,note,step,duration,channel,velocity
0,44.0,0.0,180.0,13.0,0.0
1,56.0,0.0,180.0,11.0,0.0
2,56.0,0.0,180.0,12.0,0.0
3,32.0,0.0,180.0,14.0,0.0
4,56.0,480.0,180.0,10.0,0.0
5,27.0,480.0,180.0,14.0,0.0
6,51.0,0.0,180.0,12.0,0.0
7,39.0,0.0,180.0,13.0,0.0
8,51.0,0.0,180.0,11.0,0.0
9,51.0,0.0,180.0,10.0,0.0
10,56.0,0.0,180.0,12.0,0.0
11,56.0,0.0,180.0,11.0,0.0
12,44.0,0.0,180.0,13.0,0.0
13,56.0,0.0,180.0,10.0,0.0
14,32.0,480.0,180.0,14.0,0.0
15,36.0,0.0,180.0,14.0,0.0
16,60.0,0.0,180.0,11.0,0.0
17,60.0,0.0,180.0,12.0,0.0
18,60.0,1008.0,180.0,10.0,0.0
19,48.0,0.0,180.0,13.0,0.0
20,49.0,0.0,720.0,13.0,0.0
21,37.0,0.0,720.0,14.0,0.0
22,61.0,0.0,720.0,10.0,0.0
23,61.0,0.0,720.0,11.0,0.0
24,61.0,80.0,720.0,12.0,0.0
25,48.0,0.0,90.0,13.0,0.0
26,36.0,0.0,90.0,14.0,0.0
27,60.0,0.0,90.0,12.0,0.0
28,60.0,80.0,90.0,10.0,0.0
29,60.0,0.0,90.0,11.0,0.0
30,58.0,0.0,90.0,11.0,0.0
31,34.0,0.0,90.0,14.0,0.0
32,58.0,80.0,90.0,10.0,0.0
33,58.0,0.0,90.0,12.0,0.0
34,46.0,0.0,90.0,13.0,0.0
35,44.0,0.0,90.0,13.0,0.0
36,56.0,0.0,90.0,11.0,0.0
37,32.0,0.0,90.0,14.0,0.0
38,56.0,384.0,90.0,10.0,0.0
39,56.0,0.0,90.0,12.0,0.0
40,55.0,552.0,390.0,11.0,0.0
41,55.0,0.0,390.0,12.0,0.0
42,31.0,0.0,390.0,14.0,0.0
43,43.0,0.0,390.0,13.0,0.0
44,55.0,0.0,390.0,10.0,0.0
45,51.0,0.0,90.0,10.0,0.0
46,51.0,0.0,90.0,12.0,0.0
47,39.0,0.0,90.0,13.0,0.0
48,27.0,0.0,90.0,14.0,0.0
49,51.0,216.0,90.0,11.0,0.0
50,55.0,480.0,180.0,10.0,0.0
51,31.0,0.0,180.0,14.0,0.0
52,43.0,0.0,180.0,13.0,0.0
53,55.0,0.0,180.0,12.0,0.0
54,55.0,0.0,180.0,11.0,0.0
55,58.0,0.0,180.0,11.0,0.0
56,58.0,0.0,180.0,12.0,0.0
57,46.0,0.0,180.0,13.0,0.0
58,34.0,0.0,180.0,14.0,0.0
59,58.0,480.0,180.0,10.0,0.0
60,37.0,480.0,180.0,14.0,0.0
61,49.0,0.0,180.0,13.0,0.0
62,61.0,0.0,180.0,11.0,0.0
63,61.0,0.0,180.0,12.0,0.0
64,61.0,0.0,180.0,10.0,0.0
65,34.0,0.0,180.0,14.0,0.0
66,46.0,0.0,180.0,13.0,0.0
67,58.0,1008.0,180.0,12.0,0.0
68,58.0,0.0,180.0,10.0,0.0
69,58.0,0.0,180.0,11.0,0.0
70,39.0,0.0,720.0,14.0,0.0
71,63.0,0.0,720.0,11.0,0.0
72,63.0,0.0,720.0,12.0,0.0
73,63.0,80.0,720.0,10.0,0.0
74,51.0,0.0,720.0,13.0,0.0
75,53.0,0.0,90.0,13.0,0.0
76,65.0,0.0,90.0,11.0,0.0
77,41.0,80.0,90.0,14.0,0.0
78,65.0,0.0,90.0,12.0,0.0
79,65.0,0.0,90.0,10.0,0.0
80,63.0,0.0,90.0,10.0,0.0
81,63.0,80.0,90.0,11.0,0.0
82,63.0,0.0,90.0,12.0,0.0
83,51.0,0.0,90.0,13.0,0.0
84,39.0,0.0,90.0,14.0,0.0
85,61.0,0.0,90.0,10.0,0.0
86,61.0,0.0,90.0,12.0,0.0
87,37.0,384.0,90.0,14.0,0.0
88,49.0,0.0,90.0,13.0,0.0
89,61.0,0.0,90.0,11.0,0.0
90,60.0,0.0,390.0,10.0,0.0
91,48.0,972.0,390.0,13.0,0.0
92,60.0,0.0,390.0,12.0,0.0
93,36.0,0.0,390.0,14.0,0.0
94,60.0,0.0,390.0,11.0,0.0
95,75.0,240.0,1110.0,10.0,0.0
96,60.0,0.0,150.0,12.0,0.0
97,44.0,0.0,150.0,14.0,0.0
98,56.0,240.0,150.0,13.0,0.0
99,63.0,0.0,150.0,11.0,0.0
100,44.0,240.0,150.0,14.0,0.0
101,56.0,0.0,150.0,13.0,0.0
102,63.0,0.0,150.0,11.0,0.0
103,60.0,0.0,150.0,12.0,0.0
104,56.0,228.0,150.0,13.0,0.0
105,44.0,0.0,150.0,14.0,0.0
106,60.0,0.0,150.0,12.0,0.0
107,63.0,0.0,150.0,11.0,0.0
108,63.0,0.0,390.0,11.0,0.0
109,60.0,0.0,390.0,12.0,0.0
110,44.0,0.0,390.0,14.0,0.0
111,56.0,0.0,390.0,13.0,0.0
112,74.0,240.0,150.0,10.0,0.0
113,75.0,240.0,150.0,10.0,0.0
114,72.0,492.0,150.0,10.0,0.0
115,73.0,240.0,1110.0,10.0,0.0
116,51.0,0.0,150.0,12.0,0.0
117,58.0,0.0,150.0,11.0,0.0
118,67.0,0.0,150.0,11.0,0.0
119,39.0,240.0,150.0,14.0,0.0
120,61.0,0.0,150.0,12.0,0.0
121,51.0,0.0,150.0,13.0,0.0
122,58.0,0.0,150.0,11.0,0.0
123,39.0,0.0,150.0,14.0,0.0
124,61.0,240.0,150.0,12.0,0.0
125,51.0,0.0,150.0,12.0,0.0
126,67.0,0.0,150.0,11.0,0.0
127,51.0,0.0,150.0,13.0,0.0
128,39.0,228.0,150.0,14.0,0.0
129,51.0,0.0,150.0,13.0,0.0
130,51.0,0.0,150.0,12.0,0.0
131,61.0,0.0,150.0,12.0,0.0
132,58.0,0.0,150.0,11.0,0.0
133,67.0,0.0,150.0,11.0,0.0
134,39.0,0.0,390.0,14.0,0.0
135,51.0,0.0,390.0,13.0,0.0
136,58.0,0.0,390.0,11.0,0.0
137,51.0,0.0,390.0,12.0,0.0
138,61.0,0.0,390.0,12.0,0.0
139,67.0,0.0,390.0,11.0,0.0
140,72.0,240.0,150.0,10.0,0.0
141,73.0,240.0,150.0,10.0,0.0
142,70.0,408.0,150.0,10.0,0.0
143,63.0,0.0,300.0,1.0,0.0
144,80.0,0.0,300.0,0.0,0.0
145,44.0,0.0,300.0,5.0,0.0
146,68.0,0.0,300.0,1.0,0.0
147,56.0,0.0,300.0,2.0,0.0
148,51.0,0.0,300.0,2.0,0.0
149,68.0,330.0,390.0,10.0,0.0
150,56.0,0.0,300.0,3.0,0.0
151,48.0,0.0,300.0,3.0,0.0
152,60.0,0.0,300.0,4.0,0.0
153,68.0,72.0,300.0,4.0,0.0
154,51.0,0.0,240.0,2.0,0.0
155,56.0,0.0,240.0,2.0,0.0
156,80.0,204.0,240.0,0.0,0.0
157,68.0,0.0,240.0,1.0,0.0
158,56.0,0.0,240.0,3.0,0.0
159,48.0,0.0,240.0,3.0,0.0
160,63.0,0.0,240.0,1.0,0.0
161,44.0,0.0,240.0,5.0,0.0
162,60.0,0.0,240.0,4.0,0.0
163,68.0,0.0,240.0,4.0,0.0
164,51.0,0.0,90.0,2.0,0.0
165,80.0,0.0,90.0,0.0,0.0
166,56.0,0.0,90.0,3.0,0.0
167,56.0,0.0,90.0,2.0,0.0
168,44.0,0.0,90.0,5.0,0.0
169,63.0,0.0,90.0,1.0,0.0
170,68.0,0.0,90.0,1.0,0.0
171,68.0,354.0,90.0,4.0,0.0
172,48.0,0.0,90.0,3.0,0.0
173,60.0,0.0,90.0,4.0,0.0
174,58.0,0.0,300.0,3.0,0.0
175,51.0,0.0,300.0,3.0,0.0
176,63.0,0.0,300.0,4.0,0.0
177,82.0,0.0,300.0,0.0,0.0
178,55.0,0.0,300.0,2.0,0.0
179,58.0,0.0,300.0,2.0,0.0
180,70.0,0.0,300.0,1.0,0.0
181,67.0,0.0,300.0,1.0,0.0
182,39.0,0.0,300.0,5.0,0.0
183,70.0,402.0,300.0,4.0,0.0
184,63.0,0.0,240.0,4.0,0.0
185,55.0,0.0,240.0,2.0,0.0
186,58.0,0.0,240.0,2.0,0.0
187,39.0,204.0,240.0,5.0,0.0
188,70.0,0.0,240.0,4.0,0.0
189,67.0,0.0,240.0,1.0,0.0
190,82.0,0.0,240.0,0.0,0.0
191,58.0,0.0,240.0,3.0,0.0
192,51.0,0.0,240.0,3.0,0.0
193,70.0,0.0,240.0,1.0,0.0
194,39.0,102.0,90.0,5.0,0.0
195,70.0,0.0,90.0,4.0,0.0
196,63.0,0.0,90.0,4.0,0.0
197,58.0,0.0,90.0,2.0,0.0
198,70.0,0.0,90.0,1.0,0.0
199,55.0,0.0,90.0,2.0,0.0
200,51.0,0.0,90.0,3.0,0.0
201,58.0,0.0,90.0,3.0,0.0
202,82.0,0.0,90.0,0.0,0.0
203,67.0,0.0,90.0,1.0,0.0
204,56.0,0.0,390.0,3.0,0.0
205,60.0,0.0,390.0,3.0,0.0
206,60.0,0.0,390.0,2.0,0.0
207,56.0,96.0,390.0,2.0,0.0
208,44.0,0.0,390.0,5.0,0.0
209,84.0,0.0,390.0,0.0,0.0
210,70.0,60.0,60.0,1.0,0.0
211,72.0,0.0,390.0,4.0,0.0
212,73.0,0.0,60.0,1.0,0.0
213,68.0,0.0,390.0,4.0,0.0
214,72.0,60.0,60.0,1.0,0.0
215,68.0,0.0,60.0,1.0,0.0
216,70.0,60.0,60.0,1.0,0.0
217,73.0,0.0,60.0,1.0,0.0
218,72.0,0.0,60.0,1.0,0.0
219,68.0,120.0,60.0,1.0,0.0
220,70.0,0.0,120.0,1.0,0.0
221,67.0,24.0,120.0,1.0,0.0
222,68.0,0.0,120.0,1.0,0.0
223,72.0,144.0,120.0,1.0,0.0
224,70.0,0.0,150.0,1.0,0.0
225,73.0,0.0,150.0,1.0,0.0
226,55.0,0.0,150.0,2.0,0.0
227,61.0,0.0,150.0,3.0,0.0
228,58.0,0.0,150.0,3.0,0.0
229,39.0,0.0,150.0,5.0,0.0
230,85.0,0.0,150.0,0.0,0.0
231,63.0,0.0,150.0,4.0,0.0
232,43.0,240.0,150.0,2.0,0.0
233,44.0,0.0,150.0,5.0,0.0
234,60.0,336.0,150.0,3.0,0.0
235,44.0,0.0,150.0,2.0,0.0
236,56.0,0.0,150.0,3.0,0.0
237,84.0,0.0,150.0,0.0,0.0
238,63.0,0.0,150.0,4.0,0.0
239,68.0,0.0,150.0,1.0,0.0
240,72.0,0.0,150.0,1.0,0.0
241,56.0,0.0,150.0,2.0,0.0
242,58.0,0.0,390.0,3.0,0.0
243,51.0,0.0,390.0,3.0,0.0
244,39.0,0.0,390.0,5.0,0.0
245,70.0,144.0,240.0,10.0,0.0
246,82.0,0.0,390.0,0.0,0.0
247,70.0,0.0,390.0,1.0,0.0
248,67.0,0.0,390.0,1.0,0.0
249,39.0,0.0,390.0,2.0,0.0
250,51.0,96.0,390.0,2.0,0.0
251,63.0,0.0,390.0,4.0,0.0
252,72.0,240.0,240.0,10.0,0.0
253,73.0,240.0,240.0,10.0,0.0
254,74.0,396.0,240.0,10.0,0.0
255,75.0,60.0,1200.0,10.0,0.0
256,44.0,240.0,150.0,14.0,0.0
257,63.0,0.0,150.0,11.0,0.0
258,56.0,0.0,150.0,13.0,0.0
259,60.0,0.0,150.0,12.0,0.0
260,63.0,240.0,150.0,11.0,0.0
261,44.0,0.0,150.0,14.0,0.0
262,60.0,0.0,150.0,12.0,0.0
263,56.0,0.0,150.0,13.0,0.0
264,44.0,0.0,150.0,14.0,0.0
265,63.0,0.0,150.0,11.0,0.0
266,56.0,324.0,150.0,13.0,0.0
267,60.0,0.0,150.0,12.0,0.0
268,44.0,0.0,390.0,14.0,0.0
269,56.0,96.0,390.0,13.0,0.0
270,60.0,0.0,390.0,12.0,0.0
271,63.0,0.0,390.0,11.0,0.0
272,77.0,60.0,60.0,10.0,0.0
273,75.0,24.0,60.0,10.0,0.0
274,74.0,144.0,120.0,10.0,0.0
275,75.0,240.0,150.0,10.0,0.0
276,72.0,492.0,150.0,10.0,0.0
277,73.0,60.0,1200.0,10.0,0.0
278,39.0,0.0,150.0,14.0,0.0
279,61.0,0.0,150.0,12.0,0.0
280,51.0,0.0,150.0,12.0,0.0
281,67.0,240.0,150.0,11.0,0.0
282,58.0,0.0,150.0,11.0,0.0
283,51.0,0.0,150.0,13.0,0.0
284,39.0,0.0,150.0,14.0,0.0
285,51.0,240.0,150.0,13.0,0.0
286,61.0,0.0,150.0,12.0,0.0
287,67.0,0.0,150.0,11.0,0.0
288,58.0,0.0,150.0,11.0,0.0
289,51.0,0.0,150.0,12.0,0.0
290,39.0,0.0,150.0,14.0,0.0
291,58.0,324.0,150.0,11.0,0.0
292,67.0,0.0,150.0,11.0,0.0
293,51.0,0.0,150.0,13.0,0.0
294,51.0,0.0,150.0,12.0,0.0
295,61.0,0.0,150.0,12.0,0.0
296,51.0,0.0,390.0,12.0,0.0
297,61.0,0.0,390.0,12.0,0.0
298,67.0,0.0,390.0,11.0,0.0
299,58.0,96.0,390.0,11.0,0.0
300,39.0,0.0,390.0,14.0,0.0
301,51.0,0.0,390.0,13.0,0.0
302,75.0,60.0,60.0,10.0,0.0
303,73.0,24.0,60.0,10.0,0.0
304,72.0,144.0,120.0,10.0,0.0
305,73.0,240.0,150.0,10.0,0.0
306,70.0,408.0,150.0,10.0,0.0
307,80.0,0.0,300.0,0.0,0.0
308,68.0,0.0,300.0,4.0,0.0
309,51.0,0.0,300.0,2.0,0.0
310,56.0,0.0,300.0,2.0,0.0
311,68.0,330.0,390.0,10.0,0.0
312,44.0,0.0,300.0,5.0,0.0
313,48.0,0.0,300.0,3.0,0.0
314,60.0,0.0,300.0,4.0,0.0
315,63.0,72.0,300.0,1.0,0.0
316,68.0,0.0,300.0,1.0,0.0
317,56.0,0.0,300.0,3.0,0.0
318,56.0,0.0,240.0,3.0,0.0
319,68.0,0.0,240.0,4.0,0.0
320,60.0,0.0,240.0,4.0,0.0
321,44.0,0.0,240.0,5.0,0.0
322,48.0,0.0,240.0,3.0,0.0
323,56.0,0.0,240.0,2.0,0.0
324,51.0,204.0,240.0,2.0,0.0
325,63.0,0.0,240.0,1.0,0.0
326,68.0,0.0,240.0,1.0,0.0
327,80.0,0.0,240.0,0.0,0.0
328,68.0,0.0,90.0,1.0,0.0
329,63.0,0.0,90.0,1.0,0.0
330,56.0,0.0,90.0,2.0,0.0
331,51.0,0.0,90.0,2.0,0.0
332,80.0,0.0,90.0,0.0,0.0
333,68.0,0.0,90.0,4.0,0.0
334,60.0,0.0,90.0,4.0,0.0
335,44.0,102.0,90.0,5.0,0.0
336,48.0,0.0,90.0,3.0,0.0
337,56.0,0.0,90.0,3.0,0.0
338,60.0,60.0,60.0,2.0,0.0
339,70.0,0.0,300.0,4.0,0.0
340,58.0,0.0,300.0,3.0,0.0
341,63.0,6.0,300.0,4.0,0.0
342,51.0,0.0,300.0,3.0,0.0
343,56.0,0.0,60.0,2.0,0.0
344,72.0,0.0,60.0,1.0,0.0
345,84.0,0.0,60.0,0.0,0.0
346,68.0,0.0,60.0,1.0,0.0
347,39.0,0.0,300.0,5.0,0.0
348,67.0,0.0,60.0,1.0,0.0
349,70.0,60.0,60.0,1.0,0.0
350,58.0,0.0,60.0,2.0,0.0
351,55.0,0.0,60.0,2.0,0.0
352,82.0,0.0,60.0,0.0,0.0
353,60.0,0.0,60.0,2.0,0.0
354,56.0,0.0,60.0,2.0,0.0
355,84.0,0.0,60.0,0.0,0.0
356,68.0,0.0,60.0,1.0,0.0
357,72.0,60.0,60.0,1.0,0.0
358,55.0,0.0,60.0,2.0,0.0
359,67.0,72.0,60.0,1.0,0.0
360,70.0,0.0,60.0,1.0,0.0
361,58.0,0.0,60.0,2.0,0.0
362,82.0,0.0,60.0,0.0,0.0
363,56.0,0.0,90.0,2.0,0.0
364,60.0,0.0,90.0,2.0,0.0
365,68.0,0.0,90.0,1.0,0.0
366,84.0,120.0,90.0,0.0,0.0
367,72.0,0.0,90.0,1.0,0.0
368,65.0,0.0,90.0,1.0,0.0
369,68.0,0.0,90.0,1.0,0.0
370,80.0,276.0,90.0,0.0,0.0
371,53.0,0.0,90.0,2.0,0.0
372,56.0,0.0,90.0,2.0,0.0
373,39.0,0.0,300.0,3.0,0.0
374,63.0,0.0,300.0,4.0,0.0
375,55.0,0.0,240.0,2.0,0.0
376,39.0,126.0,300.0,5.0,0.0
377,82.0,0.0,240.0,0.0,0.0
378,51.0,0.0,300.0,3.0,0.0
379,70.0,0.0,240.0,1.0,0.0
380,58.0,78.0,240.0,2.0,0.0
381,51.0,0.0,300.0,4.0,0.0
382,67.0,0.0,240.0,1.0,0.0
383,63.0,0.0,90.0,1.0,0.0
384,84.0,0.0,90.0,0.0,0.0
385,51.0,0.0,90.0,2.0,0.0
386,72.0,0.0,90.0,1.0,0.0
387,60.0,138.0,90.0,2.0,0.0
388,80.0,0.0,2370.0,0.0,0.0
389,44.0,0.0,390.0,5.0,0.0
390,56.0,24.0,180.0,2.0,0.0
391,56.0,0.0,180.0,12.0,0.0
392,80.0,0.0,90.0,10.0,0.0
393,63.0,0.0,390.0,4.0,0.0
394,72.0,96.0,90.0,11.0,0.0
395,48.0,0.0,180.0,2.0,0.0
396,68.0,24.0,900.0,1.0,0.0
397,44.0,0.0,180.0,13.0,0.0
398,32.0,0.0,180.0,14.0,0.0
399,44.0,0.0,390.0,3.0,0.0
400,51.0,72.0,390.0,3.0,0.0
401,56.0,0.0,390.0,4.0,0.0
402,72.0,120.0,90.0,11.0,0.0
403,80.0,0.0,90.0,10.0,0.0
404,72.0,0.0,90.0,11.0,0.0
405,80.0,48.0,90.0,10.0,0.0
406,72.0,120.0,90.0,11.0,0.0
407,80.0,0.0,90.0,10.0,0.0
408,39.0,0.0,180.0,13.0,0.0
409,27.0,0.0,180.0,14.0,0.0
410,51.0,0.0,180.0,12.0,0.0
411,80.0,0.0,90.0,10.0,0.0
412,39.0,24.0,180.0,2.0,0.0
413,72.0,96.0,90.0,11.0,0.0
414,80.0,120.0,90.0,10.0,0.0
415,72.0,0.0,90.0,11.0,0.0
416,72.0,0.0,90.0,11.0,0.0
417,80.0,96.0,90.0,10.0,0.0
418,72.0,0.0,90.0,11.0,0.0
419,80.0,120.0,90.0,10.0,0.0
420,68.0,0.0,1410.0,1.0,0.0
421,32.0,0.0,180.0,14.0,0.0
422,72.0,24.0,900.0,1.0,0.0
423,56.0,0.0,180.0,12.0,0.0
424,44.0,0.0,180.0,2.0,0.0
425,80.0,0.0,90.0,10.0,0.0
426,44.0,24.0,180.0,13.0,0.0
427,72.0,96.0,90.0,11.0,0.0
428,80.0,120.0,90.0,10.0,0.0
429,72.0,0.0,90.0,11.0,0.0
430,72.0,0.0,90.0,11.0,0.0
431,80.0,120.0,90.0,10.0,0.0
432,72.0,120.0,90.0,11.0,0.0
433,80.0,0.0,90.0,10.0,0.0
434,48.0,24.0,180.0,13.0,0.0
435,60.0,0.0,180.0,12.0,0.0
436,80.0,96.0,90.0,10.0,0.0
437,48.0,0.0,180.0,2.0,0.0
438,36.0,0.0,180.0,14.0,0.0
439,72.0,0.0,90.0,11.0,0.0
440,72.0,120.0,90.0,11.0,0.0
441,80.0,0.0,90.0,10.0,0.0
442,72.0,96.0,90.0,11.0,0.0
443,80.0,0.0,90.0,10.0,0.0
444,72.0,120.0,90.0,11.0,0.0
445,80.0,0.0,90.0,10.0,0.0
446,80.0,120.0,90.0,10.0,0.0
447,51.0,0.0,780.0,3.0,0.0
448,70.0,0.0,1410.0,1.0,0.0
449,49.0,0.0,720.0,2.0,0.0
450,37.0,0.0,720.0,14.0,0.0
451,39.0,0.0,780.0,3.0,0.0
452,63.0,32.0,780.0,4.0,0.0
453,51.0,0.0,780.0,4.0,0.0
454,49.0,48.0,720.0,13.0,0.0
455,70.0,0.0,90.0,11.0,0.0
456,61.0,0.0,720.0,12.0,0.0
457,39.0,0.0,780.0,5.0,0.0
458,80.0,0.0,90.0,10.0,0.0
459,70.0,120.0,90.0,11.0,0.0
460,80.0,0.0,90.0,10.0,0.0
461,70.0,120.0,90.0,11.0,0.0
462,80.0,0.0,90.0,10.0,0.0
463,70.0,120.0,90.0,11.0,0.0
464,70.0,0.0,90.0,11.0,0.0
465,65.0,24.0,450.0,1.0,0.0
466,77.0,120.0,90.0,10.0,0.0
467,77.0,0.0,450.0,0.0,0.0
468,70.0,0.0,90.0,11.0,0.0
469,77.0,24.0,90.0,10.0,0.0
470,60.0,0.0,90.0,12.0,0.0
471,77.0,64.0,90.0,10.0,0.0
472,36.0,0.0,90.0,14.0,0.0
473,48.0,16.0,90.0,2.0,0.0
474,48.0,0.0,90.0,13.0,0.0
475,70.0,0.0,90.0,11.0,0.0
476,46.0,56.0,90.0,13.0,0.0
477,58.0,0.0,90.0,12.0,0.0
478,34.0,0.0,90.0,14.0,0.0
479,46.0,0.0,90.0,2.0,0.0
480,70.0,0.0,90.0,11.0,0.0
481,77.0,0.0,90.0,10.0,0.0
482,56.0,0.0,90.0,12.0,0.0
483,44.0,0.0,90.0,13.0,0.0
484,32.0,96.0,90.0,14.0,0.0
485,44.0,0.0,90.0,2.0,0.0
486,51.0,0.0,390.0,3.0,0.0
487,43.0,0.0,390.0,2.0,0.0
488,70.0,120.0,90.0,11.0,0.0
489,63.0,0.0,390.0,4.0,0.0
490,51.0,72.0,390.0,4.0,0.0
491,79.0,0.0,90.0,10.0,0.0
492,79.0,0.0,450.0,0.0,0.0
493,31.0,0.0,390.0,14.0,0.0
494,43.0,0.0,390.0,13.0,0.0
495,39.0,0.0,390.0,5.0,0.0
496,55.0,0.0,390.0,12.0,0.0
497,39.0,0.0,390.0,3.0,0.0
498,67.0,0.0,450.0,1.0,0.0
499,70.0,120.0,90.0,11.0,0.0
500,79.0,0.0,90.0,10.0,0.0
501,79.0,48.0,90.0,10.0,0.0
502,70.0,0.0,90.0,11.0,0.0
503,70.0,120.0,90.0,11.0,0.0
504,79.0,0.0,90.0,10.0,0.0
505,39.0,0.0,390.0,5.0,0.0
506,81.0,0.0,90.0,10.0,0.0
507,72.0,120.0,90.0,11.0,0.0
508,51.0,0.0,390.0,4.0,0.0
509,81.0,120.0,450.0,0.0,0.0
510,51.0,72.0,390.0,3.0,0.0
511,39.0,0.0,390.0,3.0,0.0
512,63.0,0.0,390.0,4.0,0.0
513,72.0,0.0,450.0,1.0,0.0
514,69.0,0.0,450.0,1.0,0.0
515,72.0,120.0,90.0,11.0,0.0
516,81.0,0.0,90.0,10.0,0.0
517,81.0,48.0,90.0,10.0,0.0
518,72.0,0.0,90.0,11.0,0.0
519,51.0,0.0,90.0,12.0,0.0
520,39.0,0.0,90.0,13.0,0.0
521,72.0,0.0,90.0,11.0,0.0
522,81.0,0.0,90.0,10.0,0.0
523,27.0,0.0,90.0,14.0,0.0
524,39.0,0.0,90.0,2.0,0.0
525,82.0,0.0,2370.0,0.0,0.0
526,51.0,0.0,390.0,4.0,0.0
527,70.0,0.0,2370.0,1.0,0.0
528,43.0,0.0,180.0,2.0,0.0
529,39.0,72.0,390.0,5.0,0.0
530,55.0,0.0,180.0,12.0,0.0
531,73.0,96.0,90.0,11.0,0.0
532,73.0,0.0,1530.0,1.0,0.0
533,31.0,0.0,180.0,14.0,0.0
534,39.0,0.0,390.0,3.0,0.0
535,51.0,0.0,390.0,3.0,0.0
536,63.0,0.0,390.0,4.0,0.0
537,82.0,0.0,90.0,10.0,0.0
538,43.0,24.0,180.0,13.0,0.0
539,82.0,0.0,90.0,10.0,0.0
540,73.0,120.0,90.0,11.0,0.0
541,73.0,0.0,90.0,11.0,0.0
542,82.0,48.0,90.0,10.0,0.0
543,82.0,0.0,90.0,10.0,0.0
544,73.0,120.0,90.0,11.0,0.0
545,34.0,0.0,180.0,14.0,0.0
546,82.0,0.0,90.0,10.0,0.0
547,46.0,0.0,180.0,2.0,0.0
548,58.0,24.0,180.0,12.0,0.0
549,46.0,0.0,180.0,13.0,0.0
550,73.0,96.0,90.0,11.0,0.0
551,73.0,0.0,90.0,11.0,0.0
552,82.0,120.0,90.0,10.0,0.0
553,73.0,120.0,90.0,11.0,0.0
554,82.0,0.0,90.0,10.0,0.0
555,82.0,0.0,90.0,10.0,0.0
556,73.0,120.0,90.0,11.0,0.0
557,82.0,0.0,90.0,10.0,0.0
558,61.0,24.0,180.0,12.0,0.0
559,49.0,0.0,180.0,13.0,0.0
560,37.0,0.0,180.0,14.0,0.0
561,49.0,0.0,180.0,2.0,0.0
562,73.0,96.0,90.0,11.0,0.0
563,82.0,120.0,90.0,10.0,0.0
564,73.0,0.0,90.0,11.0,0.0
565,73.0,0.0,90.0,11.0,0.0
566,82.0,120.0,90.0,10.0,0.0
567,73.0,120.0,90.0,11.0,0.0
568,82.0,0.0,90.0,10.0,0.0
569,46.0,0.0,180.0,2.0,0.0
570,46.0,0.0,180.0,13.0,0.0
571,73.0,0.0,90.0,11.0,0.0
572,34.0,24.0,180.0,14.0,0.0
573,82.0,96.0,90.0,10.0,0.0
574,58.0,0.0,180.0,12.0,0.0
575,73.0,120.0,90.0,11.0,0.0
576,82.0,0.0,90.0,10.0,0.0
577,82.0,0.0,90.0,10.0,0.0
578,73.0,120.0,90.0,11.0,0.0
579,82.0,120.0,90.0,10.0,0.0
580,73.0,0.0,90.0,11.0,0.0
581,63.0,0.0,720.0,12.0,0.0
582,39.0,32.0,780.0,5.0,0.0
583,39.0,0.0,720.0,14.0,0.0
584,72.0,0.0,930.0,1.0,0.0
585,51.0,0.0,720.0,13.0,0.0
586,82.0,0.0,90.0,10.0,0.0
587,51.0,48.0,720.0,2.0,0.0
588,39.0,0.0,780.0,3.0,0.0
589,51.0,0.0,780.0,3.0,0.0
590,63.0,0.0,780.0,4.0,0.0
591,51.0,0.0,780.0,4.0,0.0
592,72.0,120.0,90.0,11.0,0.0
593,72.0,120.0,90.0,11.0,0.0
594,82.0,0.0,90.0,10.0,0.0
595,72.0,0.0,90.0,11.0,0.0
596,82.0,120.0,90.0,10.0,0.0
597,72.0,120.0,90.0,11.0,0.0
598,82.0,0.0,90.0,10.0,0.0
599,67.0,0.0,450.0,1.0,0.0
600,79.0,0.0,90.0,10.0,0.0
601,79.0,0.0,450.0,0.0,0.0
602,72.0,120.0,90.0,11.0,0.0
603,79.0,24.0,90.0,10.0,0.0
604,72.0,0.0,90.0,11.0,0.0
605,79.0,64.0,90.0,10.0,0.0
606,53.0,0.0,90.0,13.0,0.0
607,72.0,0.0,90.0,11.0,0.0
608,53.0,0.0,90.0,2.0,0.0
609,65.0,16.0,90.0,12.0,0.0
610,41.0,0.0,90.0,14.0,0.0
611,51.0,56.0,90.0,2.0,0.0
612,51.0,0.0,90.0,13.0,0.0
613,39.0,0.0,90.0,14.0,0.0
614,63.0,0.0,90.0,12.0,0.0
615,79.0,0.0,90.0,10.0,0.0
616,72.0,24.0,90.0,11.0,0.0
617,37.0,96.0,90.0,14.0,0.0
618,49.0,0.0,90.0,13.0,0.0
619,61.0,0.0,90.0,12.0,0.0
620,49.0,0.0,90.0,2.0,0.0
621,56.0,0.0,390.0,3.0,0.0
622,80.0,120.0,90.0,10.0,0.0
623,60.0,0.0,390.0,12.0,0.0
624,48.0,0.0,390.0,2.0,0.0
625,44.0,0.0,390.0,3.0,0.0
626,68.0,0.0,450.0,1.0,0.0
627,80.0,120.0,450.0,0.0,0.0
628,48.0,0.0,390.0,13.0,0.0
629,56.0,0.0,390.0,4.0,0.0
630,36.0,0.0,390.0,14.0,0.0
631,39.0,0.0,390.0,5.0,0.0
632,75.0,0.0,450.0,1.0,0.0
633,68.0,72.0,390.0,4.0,0.0
634,75.0,0.0,90.0,11.0,0.0
635,80.0,0.0,90.0,10.0,0.0
636,75.0,120.0,90.0,11.0,0.0
637,80.0,0.0,90.0,10.0,0.0
638,75.0,48.0,90.0,11.0,0.0
639,80.0,0.0,90.0,10.0,0.0
640,75.0,0.0,90.0,11.0,0.0
641,70.0,0.0,450.0,1.0,0.0
642,79.0,120.0,90.0,11.0,0.0
643,39.0,0.0,390.0,5.0,0.0
644,79.0,0.0,450.0,1.0,0.0
645,70.0,0.0,390.0,4.0,0.0
646,82.0,120.0,450.0,0.0,0.0
647,82.0,0.0,90.0,10.0,0.0
648,51.0,0.0,390.0,3.0,0.0
649,58.0,0.0,390.0,3.0,0.0
650,63.0,72.0,390.0,4.0,0.0
651,82.0,120.0,90.0,10.0,0.0
652,79.0,0.0,90.0,11.0,0.0
653,82.0,0.0,90.0,10.0,0.0
654,79.0,48.0,90.0,11.0,0.0
655,51.0,0.0,90.0,13.0,0.0
656,51.0,0.0,90.0,2.0,0.0
657,79.0,0.0,90.0,11.0,0.0
658,39.0,0.0,90.0,14.0,0.0
659,63.0,0.0,90.0,12.0,0.0
660,82.0,0.0,90.0,10.0,0.0
661,56.0,0.0,390.0,3.0,0.0
662,60.0,0.0,390.0,3.0,0.0
663,32.0,24.0,180.0,14.0,0.0
664,72.0,0.0,2370.0,1.0,0.0
665,84.0,0.0,90.0,10.0,0.0
666,80.0,96.0,90.0,11.0,0.0
667,68.0,0.0,390.0,4.0,0.0
668,80.0,72.0,1830.0,1.0,0.0
669,72.0,0.0,390.0,4.0,0.0
670,84.0,0.0,2370.0,0.0,0.0
671,56.0,0.0,180.0,12.0,0.0
672,44.0,72.0,390.0,5.0,0.0
673,44.0,0.0,180.0,2.0,0.0
674,44.0,0.0,180.0,13.0,0.0
675,84.0,120.0,90.0,10.0,0.0
676,80.0,0.0,90.0,11.0,0.0
677,84.0,48.0,90.0,10.0,0.0
678,80.0,0.0,90.0,11.0,0.0
679,80.0,0.0,90.0,11.0,0.0
680,84.0,120.0,90.0,10.0,0.0
681,60.0,24.0,180.0,12.0,0.0
682,48.0,0.0,180.0,13.0,0.0
683,36.0,0.0,180.0,14.0,0.0
684,48.0,0.0,180.0,2.0,0.0
685,84.0,0.0,90.0,10.0,0.0
686,80.0,96.0,90.0,11.0,0.0
687,84.0,120.0,90.0,10.0,0.0
688,80.0,0.0,90.0,11.0,0.0
689,84.0,120.0,90.0,10.0,0.0
690,80.0,0.0,90.0,11.0,0.0
691,80.0,120.0,90.0,11.0,0.0
692,84.0,0.0,90.0,10.0,0.0
693,41.0,0.0,180.0,14.0,0.0
694,84.0,0.0,90.0,10.0,0.0
695,80.0,96.0,90.0,11.0,0.0
696,65.0,0.0,180.0,12.0,0.0
697,53.0,0.0,180.0,13.0,0.0
698,53.0,24.0,180.0,2.0,0.0
699,84.0,120.0,90.0,10.0,0.0
700,80.0,0.0,90.0,11.0,0.0
701,80.0,120.0,90.0,11.0,0.0
702,84.0,0.0,90.0,10.0,0.0
703,80.0,0.0,90.0,11.0,0.0
704,84.0,120.0,90.0,10.0,0.0
705,44.0,0.0,180.0,14.0,0.0
706,84.0,96.0,90.0,10.0,0.0
707,80.0,0.0,90.0,11.0,0.0
708,68.0,0.0,180.0,12.0,0.0
709,56.0,24.0,180.0,13.0,0.0
710,56.0,0.0,180.0,2.0,0.0
711,84.0,120.0,90.0,10.0,0.0
712,80.0,0.0,90.0,11.0,0.0
713,80.0,48.0,90.0,11.0,0.0
714,84.0,0.0,90.0,10.0,0.0
715,80.0,120.0,90.0,11.0,0.0
716,84.0,0.0,90.0,10.0,0.0
717,52.0,0.0,720.0,13.0,0.0
718,52.0,0.0,720.0,2.0,0.0
719,72.0,0.0,780.0,4.0,0.0
720,60.0,32.0,780.0,4.0,0.0
721,64.0,0.0,720.0,12.0,0.0
722,60.0,0.0,780.0,3.0,0.0
723,79.0,0.0,90.0,11.0,0.0
724,84.0,120.0,90.0,10.0,0.0
725,40.0,48.0,720.0,14.0,0.0
726,79.0,0.0,930.0,1.0,0.0
727,48.0,0.0,780.0,3.0,0.0
728,79.0,120.0,90.0,11.0,0.0
729,84.0,0.0,90.0,10.0,0.0
730,79.0,0.0,90.0,11.0,0.0
731,84.0,120.0,90.0,10.0,0.0
732,79.0,120.0,90.0,11.0,0.0
733,84.0,0.0,90.0,10.0,0.0
734,83.0,120.0,90.0,10.0,0.0
735,71.0,0.0,450.0,1.0,0.0
736,79.0,0.0,90.0,11.0,0.0
737,83.0,0.0,450.0,0.0,0.0
738,83.0,24.0,90.0,10.0,0.0
739,79.0,0.0,90.0,11.0,0.0
740,65.0,0.0,90.0,12.0,0.0
741,53.0,16.0,90.0,13.0,0.0
742,53.0,0.0,90.0,2.0,0.0
743,41.0,0.0,90.0,14.0,0.0
744,83.0,64.0,90.0,10.0,0.0
745,79.0,0.0,90.0,11.0,0.0
746,64.0,0.0,90.0,12.0,0.0
747,52.0,0.0,90.0,13.0,0.0
748,52.0,56.0,90.0,2.0,0.0
749,40.0,0.0,90.0,14.0,0.0
750,83.0,24.0,90.0,10.0,0.0
751,79.0,0.0,90.0,11.0,0.0
752,49.0,96.0,90.0,13.0,0.0
753,61.0,0.0,90.0,12.0,0.0
754,37.0,0.0,90.0,14.0,0.0
755,49.0,0.0,90.0,2.0,0.0
756,60.0,0.0,390.0,4.0,0.0
757,48.0,0.0,390.0,3.0,0.0
758,48.0,0.0,390.0,13.0,0.0
759,60.0,0.0,390.0,3.0,0.0
760,48.0,72.0,390.0,2.0,0.0
761,72.0,0.0,390.0,4.0,0.0
762,76.0,0.0,90.0,11.0,0.0
763,84.0,120.0,90.0,10.0,0.0
764,84.0,0.0,450.0,0.0,0.0
765,36.0,0.0,390.0,14.0,0.0
766,72.0,0.0,450.0,1.0,0.0
767,76.0,0.0,450.0,1.0,0.0
768,60.0,0.0,390.0,12.0,0.0
769,76.0,0.0,90.0,11.0,0.0
770,84.0,120.0,90.0,10.0,0.0
771,76.0,0.0,90.0,11.0,0.0
772,84.0,48.0,90.0,10.0,0.0
773,84.0,120.0,90.0,10.0,0.0
774,76.0,0.0,90.0,11.0,0.0
775,79.0,0.0,90.0,11.0,0.0
776,60.0,0.0,390.0,3.0,0.0
777,70.0,0.0,450.0,1.0,0.0
778,79.0,0.0,450.0,1.0,0.0
779,60.0,0.0,390.0,4.0,0.0
780,82.0,120.0,90.0,10.0,0.0
781,82.0,0.0,450.0,0.0,0.0
782,72.0,72.0,390.0,4.0,0.0
783,48.0,0.0,390.0,3.0,0.0
784,82.0,120.0,90.0,10.0,0.0
785,79.0,0.0,90.0,11.0,0.0
786,79.0,48.0,90.0,11.0,0.0
787,82.0,0.0,90.0,10.0,0.0
788,40.0,0.0,90.0,14.0,0.0
789,82.0,0.0,90.0,10.0,0.0
790,79.0,120.0,90.0,11.0,0.0
791,52.0,0.0,90.0,13.0,0.0
792,64.0,0.0,90.0,12.0,0.0
793,52.0,0.0,90.0,2.0,0.0
794,65.0,24.0,180.0,12.0,0.0
795,53.0,0.0,180.0,13.0,0.0
796,72.0,0.0,90.0,11.0,0.0
797,60.0,0.0,390.0,3.0,0.0
798,48.0,72.0,390.0,3.0,0.0
799,80.0,24.0,900.0,0.0,0.0
800,80.0,96.0,90.0,10.0,0.0
801,53.0,0.0,180.0,2.0,0.0
802,68.0,120.0,930.0,1.0,0.0
803,72.0,0.0,450.0,1.0,0.0
804,41.0,0.0,180.0,14.0,0.0
805,60.0,0.0,390.0,4.0,0.0
806,72.0,0.0,390.0,4.0,0.0
807,72.0,0.0,90.0,11.0,0.0
808,80.0,120.0,90.0,10.0,0.0
809,72.0,48.0,90.0,11.0,0.0
810,80.0,0.0,90.0,10.0,0.0
811,72.0,120.0,90.0,11.0,0.0
812,80.0,0.0,90.0,10.0,0.0
813,80.0,96.0,90.0,10.0,0.0
814,48.0,0.0,180.0,2.0,0.0
815,36.0,0.0,180.0,14.0,0.0
816,48.0,0.0,180.0,13.0,0.0
817,77.0,0.0,930.0,1.0,0.0
818,77.0,0.0,90.0,11.0,0.0
819,60.0,24.0,180.0,12.0,0.0
820,80.0,120.0,90.0,10.0,0.0
821,77.0,0.0,90.0,11.0,0.0
822,80.0,96.0,90.0,10.0,0.0
823,77.0,0.0,90.0,11.0,0.0
824,77.0,0.0,90.0,11.0,0.0
825,80.0,0.0,90.0,10.0,0.0
826,44.0,0.0,180.0,14.0,0.0
827,77.0,0.0,90.0,11.0,0.0
828,56.0,0.0,180.0,2.0,0.0
829,83.0,0.0,1410.0,0.0,0.0
830,71.0,0.0,1410.0,1.0,0.0
831,83.0,96.0,90.0,10.0,0.0
832,68.0,0.0,180.0,12.0,0.0
833,56.0,24.0,180.0,13.0,0.0
834,83.0,120.0,90.0,10.0,0.0
835,77.0,0.0,90.0,11.0,0.0
836,83.0,120.0,90.0,10.0,0.0
837,77.0,0.0,90.0,11.0,0.0
838,83.0,0.0,90.0,10.0,0.0
839,77.0,120.0,90.0,11.0,0.0
840,65.0,0.0,180.0,12.0,0.0
841,53.0,0.0,180.0,13.0,0.0
842,83.0,0.0,90.0,10.0,0.0
843,80.0,96.0,90.0,11.0,0.0
844,41.0,24.0,180.0,14.0,0.0
845,53.0,0.0,180.0,2.0,0.0
846,80.0,0.0,450.0,1.0,0.0
847,80.0,0.0,90.0,11.0,0.0
848,83.0,120.0,90.0,10.0,0.0
849,83.0,0.0,90.0,10.0,0.0
850,80.0,120.0,90.0,11.0,0.0
851,80.0,120.0,90.0,11.0,0.0
852,83.0,0.0,90.0,10.0,0.0
853,70.0,32.0,780.0,4.0,0.0
854,50.0,48.0,720.0,13.0,0.0
855,77.0,120.0,90.0,11.0,0.0
856,50.0,0.0,720.0,2.0,0.0
857,38.0,0.0,720.0,14.0,0.0
858,62.0,0.0,720.0,12.0,0.0
859,83.0,0.0,90.0,10.0,0.0
860,58.0,0.0,780.0,3.0,0.0
861,77.0,120.0,90.0,11.0,0.0
862,83.0,0.0,90.0,10.0,0.0
863,83.0,0.0,90.0,10.0,0.0
864,77.0,120.0,90.0,11.0,0.0
865,77.0,120.0,90.0,11.0,0.0
866,83.0,0.0,90.0,10.0,0.0
867,81.0,120.0,90.0,10.0,0.0
868,69.0,0.0,450.0,1.0,0.0
869,77.0,0.0,90.0,11.0,0.0
870,81.0,0.0,450.0,0.0,0.0
871,81.0,24.0,90.0,10.0,0.0
872,77.0,0.0,90.0,11.0,0.0
873,77.0,0.0,90.0,11.0,0.0
874,51.0,0.0,90.0,2.0,0.0
875,39.0,0.0,90.0,14.0,0.0
876,63.0,0.0,90.0,12.0,0.0
877,51.0,16.0,90.0,13.0,0.0
878,81.0,64.0,90.0,10.0,0.0
879,50.0,0.0,90.0,13.0,0.0
880,38.0,0.0,90.0,14.0,0.0
881,50.0,56.0,90.0,2.0,0.0
882,62.0,0.0,90.0,12.0,0.0
883,77.0,0.0,90.0,11.0,0.0
884,81.0,24.0,90.0,10.0,0.0
885,60.0,0.0,90.0,12.0,0.0
886,48.0,0.0,90.0,13.0,0.0
887,48.0,0.0,90.0,2.0,0.0
888,36.0,96.0,90.0,14.0,0.0
889,82.0,120.0,450.0,0.0,0.0
890,58.0,0.0,390.0,3.0,0.0
891,46.0,0.0,390.0,13.0,0.0
892,82.0,0.0,90.0,10.0,0.0
893,74.0,120.0,90.0,11.0,0.0
894,58.0,0.0,390.0,12.0,0.0
895,46.0,72.0,390.0,2.0,0.0
896,70.0,0.0,390.0,4.0,0.0
897,34.0,0.0,390.0,14.0,0.0
898,70.0,0.0,450.0,1.0,0.0
899,82.0,120.0,90.0,10.0,0.0
900,74.0,0.0,90.0,11.0,0.0
901,82.0,0.0,90.0,10.0,0.0
902,74.0,48.0,90.0,11.0,0.0
903,74.0,0.0,90.0,11.0,0.0
904,82.0,0.0,90.0,10.0,0.0
905,58.0,0.0,390.0,3.0,0.0
906,77.0,120.0,90.0,11.0,0.0
907,80.0,0.0,90.0,10.0,0.0
908,68.0,0.0,450.0,1.0,0.0
909,70.0,72.0,390.0,4.0,0.0
910,80.0,0.0,450.0,0.0,0.0
911,80.0,120.0,90.0,10.0,0.0
912,77.0,0.0,90.0,11.0,0.0
913,77.0,0.0,90.0,11.0,0.0
914,80.0,48.0,90.0,10.0,0.0
915,77.0,216.0,90.0,11.0,0.0
916,50.0,0.0,90.0,2.0,0.0
917,38.0,0.0,90.0,14.0,0.0
918,50.0,0.0,90.0,13.0,0.0
919,80.0,0.0,90.0,10.0,0.0
920,62.0,0.0,90.0,12.0,0.0
921,79.0,48.0,720.0,0.0,0.0
922,39.0,48.0,390.0,5.0,0.0
923,63.0,32.0,780.0,4.0,0.0
924,63.0,0.0,180.0,12.0,0.0
925,51.0,192.0,180.0,13.0,0.0
926,51.0,0.0,7590.0,3.0,0.0
927,79.0,0.0,720.0,10.0,0.0
928,75.0,0.0,720.0,11.0,0.0
929,51.0,0.0,1920.0,2.0,0.0
930,63.0,192.0,1920.0,2.0,0.0
931,39.0,0.0,7590.0,3.0,0.0
932,39.0,0.0,180.0,14.0,0.0
933,67.0,0.0,960.0,1.0,0.0
934,75.0,0.0,1920.0,1.0,0.0
935,39.0,0.0,180.0,14.0,0.0
936,51.0,0.0,180.0,13.0,0.0
937,63.0,240.0,180.0,12.0,0.0
938,39.0,0.0,180.0,14.0,0.0
939,51.0,0.0,180.0,13.0,0.0
940,63.0,48.0,180.0,12.0,0.0
941,39.0,0.0,180.0,14.0,0.0
942,63.0,48.0,180.0,12.0,0.0
943,51.0,0.0,180.0,13.0,0.0
944,80.0,80.0,90.0,10.0,0.0
945,80.0,0.0,90.0,0.0,0.0
946,77.0,0.0,90.0,11.0,0.0
947,79.0,0.0,90.0,0.0,0.0
948,75.0,0.0,90.0,11.0,0.0
949,79.0,32.0,90.0,10.0,0.0
950,77.0,0.0,90.0,10.0,0.0
951,77.0,0.0,90.0,0.0,0.0
952,74.0,144.0,90.0,11.0,0.0
953,51.0,0.0,180.0,13.0,0.0
954,63.0,0.0,960.0,1.0,0.0
955,75.0,0.0,150.0,10.0,0.0
956,39.0,192.0,180.0,14.0,0.0
957,75.0,0.0,150.0,0.0,0.0
958,63.0,0.0,180.0,12.0,0.0
959,75.0,48.0,150.0,11.0,0.0
960,75.0,48.0,150.0,10.0,0.0
961,75.0,0.0,150.0,0.0,0.0
962,39.0,0.0,180.0,14.0,0.0
963,75.0,0.0,150.0,11.0,0.0
964,63.0,192.0,180.0,12.0,0.0
965,51.0,0.0,180.0,13.0,0.0
966,39.0,0.0,180.0,14.0,0.0
967,51.0,0.0,180.0,13.0,0.0
968,77.0,0.0,150.0,10.0,0.0
969,63.0,192.0,180.0,12.0,0.0
970,77.0,0.0,150.0,0.0,0.0
971,74.0,48.0,150.0,11.0,0.0
972,63.0,0.0,180.0,12.0,0.0
973,51.0,0.0,180.0,13.0,0.0
974,39.0,48.0,180.0,14.0,0.0
975,79.0,0.0,150.0,0.0,0.0
976,79.0,48.0,150.0,10.0,0.0
977,75.0,0.0,150.0,11.0,0.0
978,39.0,0.0,180.0,14.0,0.0
979,53.0,192.0,1920.0,2.0,0.0
980,63.0,0.0,180.0,12.0,0.0
981,77.0,0.0,720.0,11.0,0.0
982,63.0,32.0,780.0,4.0,0.0
983,80.0,48.0,720.0,10.0,0.0
984,65.0,0.0,1920.0,1.0,0.0
985,80.0,0.0,720.0,0.0,0.0
986,74.0,0.0,1920.0,1.0,0.0
987,62.0,0.0,1920.0,2.0,0.0
988,51.0,192.0,180.0,13.0,0.0
989,39.0,48.0,390.0,5.0,0.0
990,63.0,0.0,180.0,12.0,0.0
991,39.0,0.0,180.0,14.0,0.0
992,51.0,240.0,180.0,13.0,0.0
993,51.0,0.0,180.0,13.0,0.0
994,63.0,48.0,180.0,12.0,0.0
995,39.0,0.0,180.0,14.0,0.0
996,51.0,0.0,180.0,13.0,0.0
997,79.0,0.0,90.0,11.0,0.0
998,82.0,0.0,90.0,10.0,0.0
999,63.0,48.0,180.0,12.0,0.0
1000,39.0,0.0,180.0,14.0,0.0
1001,82.0,80.0,90.0,0.0,0.0
1002,80.0,32.0,90.0,10.0,0.0
1003,80.0,0.0,90.0,0.0,0.0
1004,77.0,0.0,90.0,11.0,0.0
1005,79.0,0.0,90.0,10.0,0.0
1006,75.0,144.0,90.0,11.0,0.0
1007,79.0,0.0,90.0,0.0,0.0
1008,39.0,0.0,180.0,14.0,0.0
1009,77.0,48.0,150.0,10.0,0.0
1010,74.0,0.0,150.0,11.0,0.0
1011,77.0,0.0,150.0,0.0,0.0
1012,51.0,0.0,180.0,13.0,0.0
1013,63.0,192.0,180.0,12.0,0.0
1014,77.0,48.0,150.0,0.0,0.0
1015,77.0,0.0,150.0,10.0,0.0
1016,51.0,192.0,180.0,13.0,0.0
1017,74.0,0.0,150.0,11.0,0.0
1018,39.0,0.0,180.0,14.0,0.0
1019,63.0,0.0,180.0,12.0,0.0
1020,75.0,0.0,150.0,11.0,0.0
1021,39.0,0.0,180.0,14.0,0.0
1022,79.0,0.0,150.0,10.0,0.0
1023,63.0,192.0,180.0,12.0,0.0
1024,79.0,48.0,150.0,0.0,0.0
1025,51.0,0.0,180.0,13.0,0.0
1026,51.0,0.0,180.0,13.0,0.0
1027,39.0,48.0,180.0,14.0,0.0
1028,63.0,0.0,180.0,12.0,0.0
1029,80.0,0.0,150.0,0.0,0.0
1030,80.0,0.0,150.0,10.0,0.0
1031,77.0,48.0,150.0,11.0,0.0
1032,67.0,0.0,1920.0,1.0,0.0
1033,82.0,0.0,720.0,10.0,0.0
1034,73.0,0.0,1920.0,1.0,0.0
1035,63.0,0.0,180.0,12.0,0.0
1036,55.0,192.0,1920.0,2.0,0.0
1037,63.0,32.0,780.0,4.0,0.0
1038,61.0,0.0,1920.0,2.0,0.0
1039,82.0,0.0,720.0,0.0,0.0
1040,39.0,48.0,390.0,5.0,0.0
1041,51.0,192.0,180.0,13.0,0.0
1042,79.0,48.0,720.0,11.0,0.0
1043,39.0,0.0,180.0,14.0,0.0
1044,51.0,0.0,180.0,13.0,0.0
1045,63.0,240.0,180.0,12.0,0.0
1046,39.0,0.0,180.0,14.0,0.0
1047,63.0,0.0,180.0,12.0,0.0
1048,39.0,0.0,180.0,14.0,0.0
1049,51.0,48.0,180.0,13.0,0.0
1050,84.0,0.0,90.0,10.0,0.0
1051,84.0,0.0,90.0,0.0,0.0
1052,51.0,0.0,180.0,13.0,0.0
1053,63.0,0.0,180.0,12.0,0.0
1054,39.0,48.0,180.0,14.0,0.0
1055,80.0,80.0,90.0,11.0,0.0
1056,82.0,0.0,90.0,0.0,0.0
1057,79.0,0.0,90.0,11.0,0.0
1058,82.0,32.0,90.0,10.0,0.0
1059,77.0,0.0,90.0,11.0,0.0
1060,80.0,0.0,90.0,0.0,0.0
1061,80.0,144.0,90.0,10.0,0.0
1062,63.0,192.0,180.0,12.0,0.0
1063,79.0,0.0,150.0,0.0,0.0
1064,39.0,0.0,180.0,14.0,0.0
1065,79.0,48.0,150.0,10.0,0.0
1066,51.0,0.0,180.0,13.0,0.0
1067,75.0,0.0,150.0,11.0,0.0
1068,51.0,0.0,180.0,13.0,0.0
1069,39.0,0.0,180.0,14.0,0.0
1070,63.0,192.0,180.0,12.0,0.0
1071,75.0,48.0,150.0,11.0,0.0
1072,79.0,0.0,150.0,10.0,0.0
1073,79.0,0.0,150.0,0.0,0.0
1074,39.0,0.0,180.0,14.0,0.0
1075,77.0,0.0,150.0,11.0,0.0
1076,80.0,0.0,150.0,10.0,0.0
1077,63.0,0.0,180.0,12.0,0.0
1078,51.0,192.0,180.0,13.0,0.0
1079,80.0,48.0,150.0,0.0,0.0
1080,82.0,0.0,150.0,0.0,0.0
1081,82.0,48.0,150.0,10.0,0.0
1082,63.0,48.0,180.0,12.0,0.0
1083,79.0,0.0,150.0,11.0,0.0
1084,39.0,0.0,180.0,14.0,0.0
1085,51.0,0.0,180.0,13.0,0.0
1086,80.0,48.0,720.0,11.0,0.0
1087,51.0,0.0,180.0,13.0,0.0
1088,60.0,0.0,1920.0,2.0,0.0
1089,63.0,32.0,780.0,4.0,0.0
1090,84.0,0.0,720.0,0.0,0.0
1091,39.0,48.0,390.0,5.0,0.0
1092,63.0,192.0,180.0,12.0,0.0
1093,68.0,192.0,1920.0,1.0,0.0
1094,72.0,0.0,1920.0,1.0,0.0
1095,39.0,0.0,180.0,14.0,0.0
1096,56.0,0.0,1920.0,2.0,0.0
1097,39.0,0.0,180.0,14.0,0.0
1098,63.0,0.0,180.0,12.0,0.0
1099,51.0,240.0,180.0,13.0,0.0
1100,63.0,0.0,180.0,12.0,0.0
1101,39.0,0.0,180.0,14.0,0.0
1102,51.0,48.0,180.0,13.0,0.0
1103,39.0,48.0,180.0,14.0,0.0
1104,84.0,0.0,15.0,10.0,0.0
1105,63.0,0.0,180.0,12.0,0.0
1106,82.0,80.0,90.0,11.0,0.0
1107,51.0,0.0,180.0,13.0,0.0
1108,84.0,0.0,90.0,0.0,0.0
1109,84.0,0.0,15.0,10.0,0.0
1110,84.0,0.0,90.0,0.0,0.0
1111,80.0,0.0,90.0,11.0,0.0
1112,82.0,0.0,90.0,10.0,0.0
1113,82.0,144.0,90.0,0.0,0.0
1114,79.0,0.0,90.0,11.0,0.0
1115,80.0,0.0,150.0,11.0,0.0
1116,80.0,0.0,150.0,10.0,0.0
1117,39.0,192.0,180.0,14.0,0.0
1118,63.0,0.0,180.0,12.0,0.0
1119,51.0,0.0,180.0,13.0,0.0
1120,80.0,48.0,150.0,0.0,0.0
1121,80.0,48.0,150.0,11.0,0.0
1122,80.0,0.0,150.0,10.0,0.0
1123,63.0,0.0,180.0,12.0,0.0
1124,39.0,0.0,180.0,14.0,0.0
1125,51.0,192.0,180.0,13.0,0.0
1126,80.0,0.0,150.0,0.0,0.0
1127,82.0,48.0,150.0,10.0,0.0
1128,39.0,192.0,180.0,14.0,0.0
1129,82.0,0.0,150.0,0.0,0.0
1130,63.0,0.0,180.0,12.0,0.0
1131,79.0,0.0,150.0,11.0,0.0
1132,51.0,0.0,180.0,13.0,0.0
1133,84.0,0.0,150.0,10.0,0.0
1134,51.0,0.0,180.0,13.0,0.0
1135,63.0,0.0,180.0,12.0,0.0
1136,80.0,0.0,150.0,11.0,0.0
1137,39.0,48.0,180.0,14.0,0.0
1138,84.0,48.0,150.0,0.0,0.0
1139,58.0,0.0,720.0,2.0,0.0
1140,70.0,0.0,720.0,1.0,0.0
1141,61.0,0.0,720.0,2.0,0.0
1142,51.0,192.0,180.0,13.0,0.0
1143,63.0,0.0,180.0,12.0,0.0
1144,39.0,0.0,180.0,14.0,0.0
1145,82.0,48.0,720.0,11.0,0.0
1146,73.0,0.0,720.0,1.0,0.0
1147,85.0,0.0,720.0,0.0,0.0
1148,39.0,0.0,390.0,5.0,0.0
1149,51.0,144.0,780.0,3.0,0.0
1150,39.0,0.0,780.0,3.0,0.0
1151,85.0,0.0,720.0,10.0,0.0
1152,63.0,48.0,390.0,4.0,0.0
1153,39.0,0.0,180.0,14.0,0.0
1154,63.0,240.0,180.0,12.0,0.0
1155,51.0,0.0,180.0,13.0,0.0
1156,51.0,0.0,180.0,13.0,0.0
1157,63.0,48.0,180.0,12.0,0.0
1158,39.0,0.0,180.0,14.0,0.0
1159,51.0,0.0,180.0,13.0,0.0
1160,69.0,0.0,180.0,1.0,0.0
1161,72.0,0.0,180.0,1.0,0.0
1162,57.0,0.0,180.0,2.0,0.0
1163,60.0,240.0,180.0,2.0,0.0
1164,81.0,0.0,180.0,11.0,0.0
1165,39.0,0.0,180.0,14.0,0.0
1166,84.0,0.0,180.0,0.0,0.0
1167,63.0,0.0,180.0,12.0,0.0
1168,84.0,0.0,180.0,10.0,0.0
1169,82.0,0.0,720.0,11.0,0.0
1170,61.0,0.0,720.0,2.0,0.0
1171,51.0,0.0,180.0,13.0,0.0
1172,63.0,0.0,180.0,12.0,0.0
1173,39.0,0.0,390.0,5.0,0.0
1174,58.0,0.0,720.0,2.0,0.0
1175,73.0,0.0,720.0,1.0,0.0
1176,63.0,48.0,390.0,4.0,0.0
1177,85.0,0.0,720.0,10.0,0.0
1178,39.0,0.0,780.0,3.0,0.0
1179,51.0,144.0,780.0,3.0,0.0
1180,70.0,48.0,720.0,1.0,0.0
1181,39.0,192.0,180.0,14.0,0.0
1182,85.0,0.0,720.0,0.0,0.0
1183,51.0,0.0,180.0,13.0,0.0
1184,39.0,240.0,180.0,14.0,0.0
1185,63.0,0.0,180.0,12.0,0.0
1186,39.0,48.0,180.0,14.0,0.0
1187,63.0,0.0,180.0,12.0,0.0
1188,51.0,0.0,180.0,13.0,0.0
1189,69.0,0.0,180.0,1.0,0.0
1190,72.0,240.0,180.0,1.0,0.0
1191,39.0,0.0,180.0,14.0,0.0
1192,84.0,0.0,180.0,10.0,0.0
1193,84.0,0.0,180.0,0.0,0.0
1194,51.0,0.0,180.0,13.0,0.0
1195,81.0,0.0,180.0,11.0,0.0
1196,60.0,0.0,180.0,2.0,0.0
1197,57.0,0.0,180.0,2.0,0.0
1198,63.0,0.0,180.0,12.0,0.0
1199,61.0,0.0,240.0,2.0,0.0
1200,39.0,0.0,180.0,14.0,0.0
1201,51.0,0.0,390.0,3.0,0.0
1202,70.0,144.0,240.0,1.0,0.0
1203,73.0,0.0,240.0,1.0,0.0
1204,63.0,0.0,180.0,12.0,0.0
1205,85.0,0.0,240.0,10.0,0.0
1206,85.0,0.0,240.0,0.0,0.0
1207,63.0,48.0,390.0,4.0,0.0
1208,39.0,0.0,390.0,5.0,0.0
1209,39.0,0.0,390.0,3.0,0.0
1210,82.0,0.0,240.0,11.0,0.0
1211,58.0,0.0,240.0,2.0,0.0
1212,51.0,48.0,180.0,13.0,0.0
1213,60.0,0.0,180.0,2.0,0.0
1214,84.0,0.0,180.0,0.0,0.0
1215,57.0,0.0,180.0,2.0,0.0
1216,51.0,0.0,180.0,13.0,0.0
1217,84.0,240.0,180.0,10.0,0.0
1218,81.0,0.0,180.0,11.0,0.0
1219,39.0,0.0,180.0,14.0,0.0
1220,63.0,0.0,180.0,12.0,0.0
1221,69.0,0.0,180.0,1.0,0.0
1222,72.0,0.0,180.0,1.0,0.0
1223,63.0,48.0,180.0,12.0,0.0
1224,82.0,0.0,240.0,11.0,0.0
1225,63.0,0.0,390.0,4.0,0.0
1226,70.0,0.0,240.0,1.0,0.0
1227,73.0,0.0,240.0,1.0,0.0
1228,85.0,144.0,240.0,10.0,0.0
1229,61.0,0.0,240.0,2.0,0.0
1230,39.0,48.0,390.0,5.0,0.0
1231,39.0,0.0,390.0,3.0,0.0
1232,58.0,0.0,240.0,2.0,0.0
1233,85.0,0.0,240.0,0.0,0.0
1234,51.0,0.0,180.0,13.0,0.0
1235,39.0,0.0,180.0,14.0,0.0
1236,51.0,0.0,390.0,3.0,0.0
1237,69.0,0.0,180.0,1.0,0.0
1238,72.0,0.0,180.0,1.0,0.0
1239,60.0,0.0,180.0,2.0,0.0
1240,57.0,0.0,180.0,2.0,0.0
1241,81.0,0.0,180.0,11.0,0.0
1242,84.0,0.0,180.0,0.0,0.0
1243,39.0,0.0,180.0,14.0,0.0
1244,84.0,240.0,180.0,10.0,0.0
1245,63.0,0.0,180.0,12.0,0.0
1246,51.0,0.0,180.0,13.0,0.0
1247,58.0,0.0,240.0,2.0,0.0
1248,61.0,0.0,240.0,2.0,0.0
1249,39.0,48.0,390.0,3.0,0.0
1250,39.0,48.0,180.0,14.0,0.0
1251,63.0,0.0,180.0,12.0,0.0
1252,85.0,0.0,240.0,0.0,0.0
1253,39.0,0.0,390.0,5.0,0.0
1254,51.0,0.0,390.0,3.0,0.0
1255,73.0,0.0,240.0,1.0,0.0
1256,70.0,0.0,240.0,1.0,0.0
1257,82.0,144.0,240.0,11.0,0.0
1258,63.0,0.0,390.0,4.0,0.0
1259,51.0,0.0,180.0,13.0,0.0
1260,85.0,0.0,240.0,10.0,0.0
1261,60.0,0.0,180.0,2.0,0.0
1262,84.0,0.0,180.0,0.0,0.0
1263,81.0,0.0,180.0,11.0,0.0
1264,63.0,0.0,180.0,12.0,0.0
1265,39.0,0.0,180.0,14.0,0.0
1266,51.0,0.0,180.0,13.0,0.0
1267,69.0,0.0,180.0,1.0,0.0
1268,72.0,0.0,180.0,1.0,0.0
1269,84.0,240.0,180.0,10.0,0.0
1270,57.0,0.0,180.0,2.0,0.0
1271,85.0,0.0,240.0,0.0,0.0
1272,85.0,0.0,240.0,10.0,0.0
1273,39.0,48.0,390.0,3.0,0.0
1274,61.0,0.0,240.0,2.0,0.0
1275,39.0,0.0,390.0,5.0,0.0
1276,51.0,0.0,390.0,3.0,0.0
1277,58.0,0.0,240.0,2.0,0.0
1278,63.0,0.0,390.0,4.0,0.0
1279,51.0,48.0,180.0,13.0,0.0
1280,70.0,0.0,240.0,1.0,0.0
1281,63.0,0.0,180.0,12.0,0.0
1282,39.0,0.0,180.0,14.0,0.0
1283,73.0,144.0,240.0,1.0,0.0
1284,82.0,0.0,240.0,11.0,0.0
1285,63.0,0.0,180.0,12.0,0.0
1286,81.0,0.0,180.0,11.0,0.0
1287,84.0,0.0,180.0,0.0,0.0
1288,84.0,0.0,180.0,10.0,0.0
1289,60.0,0.0,180.0,2.0,0.0
1290,69.0,0.0,180.0,1.0,0.0
1291,72.0,0.0,180.0,1.0,0.0
1292,57.0,192.0,180.0,2.0,0.0
1293,51.0,0.0,180.0,13.0,0.0
1294,39.0,0.0,180.0,14.0,0.0
1295,51.0,0.0,3810.0,3.0,0.0
1296,85.0,0.0,390.0,0.0,0.0
1297,63.0,0.0,390.0,4.0,0.0
1298,51.0,0.0,390.0,13.0,0.0
1299,39.0,422.0,3810.0,3.0,0.0
1300,39.0,240.0,390.0,5.0,0.0
1301,58.0,0.0,390.0,2.0,0.0
1302,61.0,0.0,390.0,2.0,0.0
1303,70.0,0.0,390.0,1.0,0.0
1304,73.0,0.0,390.0,1.0,0.0
1305,39.0,0.0,390.0,14.0,0.0
1306,85.0,240.0,150.0,10.0,0.0
1307,63.0,0.0,390.0,12.0,0.0
1308,82.0,0.0,150.0,11.0,0.0
1309,84.0,0.0,150.0,10.0,0.0
1310,80.0,0.0,150.0,11.0,0.0
1311,82.0,0.0,150.0,10.0,0.0
1312,79.0,240.0,150.0,11.0,0.0
1313,80.0,0.0,150.0,10.0,0.0
1314,77.0,240.0,150.0,11.0,0.0
1315,75.0,240.0,150.0,11.0,0.0
1316,79.0,0.0,150.0,10.0,0.0
1317,77.0,0.0,150.0,10.0,0.0
1318,73.0,240.0,150.0,11.0,0.0
1319,72.0,240.0,150.0,11.0,0.0
1320,75.0,0.0,150.0,10.0,0.0
1321,74.0,0.0,150.0,10.0,0.0
1322,71.0,240.0,150.0,11.0,0.0
1323,73.0,0.0,150.0,10.0,0.0
1324,70.0,0.0,150.0,11.0,0.0
1325,58.0,0.0,150.0,2.0,0.0
1326,61.0,0.0,150.0,2.0,0.0
1327,85.0,0.0,150.0,0.0,0.0
1328,82.0,240.0,150.0,1.0,0.0
1329,80.0,0.0,150.0,1.0,0.0
1330,84.0,0.0,150.0,0.0,0.0
1331,56.0,0.0,150.0,2.0,0.0
1332,68.0,0.0,150.0,11.0,0.0
1333,60.0,0.0,150.0,2.0,0.0
1334,72.0,240.0,150.0,10.0,0.0
1335,70.0,0.0,150.0,10.0,0.0
1336,79.0,0.0,150.0,1.0,0.0
1337,82.0,0.0,150.0,0.0,0.0
1338,67.0,0.0,150.0,11.0,0.0
1339,58.0,0.0,150.0,2.0,0.0
1340,55.0,240.0,150.0,2.0,0.0
1341,77.0,0.0,150.0,1.0,0.0
1342,68.0,0.0,150.0,10.0,0.0
1343,65.0,0.0,150.0,11.0,0.0
1344,56.0,0.0,150.0,2.0,0.0
1345,80.0,240.0,150.0,0.0,0.0
1346,53.0,0.0,150.0,2.0,0.0
1347,63.0,0.0,150.0,11.0,0.0
1348,51.0,0.0,150.0,2.0,0.0
1349,55.0,0.0,150.0,2.0,0.0
1350,79.0,0.0,150.0,0.0,0.0
1351,67.0,240.0,150.0,10.0,0.0
1352,75.0,0.0,150.0,1.0,0.0
1353,65.0,0.0,150.0,10.0,0.0
1354,73.0,0.0,150.0,1.0,0.0
1355,53.0,0.0,150.0,2.0,0.0
1356,49.0,240.0,150.0,2.0,0.0
1357,61.0,0.0,150.0,11.0,0.0
1358,77.0,0.0,150.0,0.0,0.0
1359,63.0,0.0,150.0,10.0,0.0
1360,60.0,0.0,150.0,11.0,0.0
1361,72.0,240.0,150.0,1.0,0.0
1362,75.0,0.0,150.0,0.0,0.0
1363,51.0,0.0,150.0,2.0,0.0
1364,48.0,0.0,150.0,2.0,0.0
1365,70.0,0.0,150.0,1.0,0.0
1366,73.0,0.0,150.0,0.0,0.0
1367,58.0,0.0,150.0,11.0,0.0
1368,49.0,0.0,150.0,2.0,0.0
1369,46.0,0.0,150.0,2.0,0.0
1370,61.0,58.0,150.0,10.0,0.0
1371,72.0,0.0,390.0,0.0,0.0
1372,32.0,0.0,390.0,14.0,0.0
1373,68.0,480.0,390.0,1.0,0.0
1374,60.0,0.0,390.0,10.0,0.0
1375,48.0,0.0,390.0,2.0,0.0
1376,44.0,0.0,390.0,13.0,0.0
1377,56.0,0.0,390.0,12.0,0.0
1378,48.0,0.0,960.0,3.0,0.0
1379,51.0,0.0,960.0,3.0,0.0
1380,63.0,384.0,960.0,4.0,0.0
1381,60.0,0.0,960.0,4.0,0.0
1382,56.0,0.0,390.0,11.0,0.0
1383,44.0,0.0,390.0,2.0,0.0
1384,32.0,0.0,390.0,14.0,0.0
1385,56.0,0.0,390.0,12.0,0.0
1386,44.0,96.0,390.0,13.0,0.0
1387,32.0,0.0,390.0,14.0,0.0
1388,44.0,0.0,390.0,13.0,0.0
1389,44.0,0.0,390.0,3.0,0.0
1390,48.0,480.0,390.0,3.0,0.0
1391,56.0,0.0,390.0,4.0,0.0
1392,60.0,0.0,390.0,4.0,0.0
1393,56.0,0.0,390.0,12.0,0.0
1394,44.0,0.0,390.0,13.0,0.0
1395,56.0,240.0,390.0,12.0,0.0
1396,32.0,0.0,390.0,14.0,0.0
1397,80.0,0.0,150.0,0.0,0.0
1398,72.0,156.0,150.0,1.0,0.0
1399,44.0,0.0,390.0,13.0,0.0
1400,32.0,0.0,390.0,14.0,0.0
1401,68.0,0.0,150.0,1.0,0.0
1402,56.0,96.0,390.0,12.0,0.0
1403,73.0,60.0,60.0,1.0,0.0
1404,70.0,0.0,60.0,1.0,0.0
1405,82.0,0.0,60.0,0.0,0.0
1406,80.0,0.0,60.0,0.0,0.0
1407,72.0,24.0,60.0,1.0,0.0
1408,68.0,0.0,60.0,1.0,0.0
1409,70.0,0.0,120.0,1.0,0.0
1410,67.0,0.0,120.0,1.0,0.0
1411,79.0,144.0,120.0,0.0,0.0
1412,80.0,240.0,150.0,0.0,0.0
1413,44.0,384.0,390.0,13.0,0.0
1414,56.0,0.0,390.0,12.0,0.0
1415,72.0,0.0,150.0,1.0,0.0
1416,68.0,0.0,150.0,1.0,0.0
1417,32.0,0.0,390.0,14.0,0.0
1418,82.0,0.0,150.0,0.0,0.0
1419,70.0,0.0,150.0,1.0,0.0
1420,73.0,0.0,150.0,1.0,0.0
1421,72.0,0.0,300.0,1.0,0.0
1422,56.0,0.0,390.0,12.0,0.0
1423,84.0,0.0,300.0,0.0,0.0
1424,32.0,480.0,390.0,14.0,0.0
1425,44.0,0.0,390.0,13.0,0.0
1426,75.0,96.0,300.0,1.0,0.0
1427,56.0,0.0,390.0,12.0,0.0
1428,32.0,48.0,390.0,14.0,0.0
1429,44.0,0.0,390.0,13.0,0.0
1430,75.0,288.0,180.0,0.0,0.0
1431,58.0,0.0,1440.0,2.0,0.0
1432,63.0,0.0,1890.0,12.0,0.0
1433,55.0,0.0,1440.0,2.0,0.0
1434,51.0,0.0,1890.0,13.0,0.0
1435,39.0,38.0,1890.0,14.0,0.0
1436,75.0,240.0,240.0,0.0,0.0
1437,85.0,240.0,240.0,0.0,0.0
1438,84.0,240.0,240.0,0.0,0.0
1439,82.0,240.0,240.0,0.0,0.0
1440,80.0,240.0,240.0,0.0,0.0
1441,79.0,240.0,240.0,0.0,0.0
1442,77.0,202.0,240.0,0.0,0.0
1443,60.0,240.0,480.0,2.0,0.0
1444,56.0,0.0,480.0,2.0,0.0
1445,75.0,0.0,240.0,0.0,0.0
1446,74.0,0.0,240.0,0.0,0.0
1447,51.0,0.0,1890.0,12.0,0.0
1448,74.0,240.0,240.0,1.0,0.0
1449,27.0,0.0,1890.0,14.0,0.0
1450,61.0,0.0,480.0,2.0,0.0
1451,39.0,38.0,1890.0,13.0,0.0
1452,75.0,0.0,240.0,0.0,0.0
1453,75.0,0.0,240.0,1.0,0.0
1454,58.0,240.0,15.0,2.0,0.0
1455,77.0,240.0,240.0,1.0,0.0
1456,55.0,0.0,480.0,2.0,0.0
1457,55.0,0.0,480.0,2.0,0.0
1458,51.0,240.0,480.0,2.0,0.0
1459,75.0,240.0,15.0,1.0,0.0
1460,74.0,0.0,240.0,1.0,0.0
1461,73.0,202.0,240.0,1.0,0.0
1462,58.0,384.0,480.0,2.0,0.0
1463,55.0,0.0,480.0,2.0,0.0
1464,70.0,0.0,240.0,1.0,0.0
1465,44.0,0.0,390.0,13.0,0.0
1466,56.0,480.0,390.0,12.0,0.0
1467,68.0,0.0,390.0,1.0,0.0
1468,63.0,384.0,960.0,4.0,0.0
1469,60.0,0.0,960.0,4.0,0.0
1470,48.0,0.0,960.0,3.0,0.0
1471,60.0,0.0,390.0,2.0,0.0
1472,51.0,0.0,960.0,3.0,0.0
1473,56.0,0.0,390.0,2.0,0.0
1474,32.0,0.0,390.0,14.0,0.0
1475,44.0,96.0,390.0,13.0,0.0
1476,56.0,0.0,390.0,12.0,0.0
1477,32.0,0.0,390.0,14.0,0.0
1478,60.0,0.0,390.0,4.0,0.0
1479,56.0,480.0,390.0,4.0,0.0
1480,56.0,0.0,390.0,12.0,0.0
1481,32.0,0.0,390.0,14.0,0.0
1482,48.0,0.0,390.0,3.0,0.0
1483,44.0,0.0,390.0,3.0,0.0
1484,44.0,0.0,390.0,13.0,0.0
1485,56.0,240.0,390.0,12.0,0.0
1486,32.0,0.0,390.0,14.0,0.0
1487,44.0,0.0,390.0,13.0,0.0
1488,80.0,156.0,150.0,0.0,0.0
1489,68.0,0.0,150.0,1.0,0.0
1490,32.0,0.0,390.0,14.0,0.0
1491,56.0,96.0,390.0,12.0,0.0
1492,72.0,0.0,150.0,1.0,0.0
1493,63.0,288.0,960.0,4.0,0.0
1494,72.0,0.0,960.0,4.0,0.0
1495,44.0,0.0,390.0,13.0,0.0
1496,51.0,0.0,960.0,3.0,0.0
1497,60.0,0.0,960.0,3.0,0.0
1498,73.0,60.0,60.0,1.0,0.0
1499,70.0,0.0,60.0,1.0,0.0
1500,82.0,0.0,60.0,0.0,0.0
1501,80.0,24.0,60.0,0.0,0.0
1502,72.0,0.0,60.0,1.0,0.0
1503,68.0,0.0,60.0,1.0,0.0
1504,70.0,0.0,120.0,1.0,0.0
1505,67.0,144.0,120.0,1.0,0.0
1506,79.0,0.0,120.0,0.0,0.0
1507,80.0,0.0,150.0,0.0,0.0
1508,32.0,0.0,390.0,14.0,0.0
1509,56.0,0.0,390.0,12.0,0.0
1510,72.0,0.0,150.0,1.0,0.0
1511,44.0,96.0,390.0,13.0,0.0
1512,68.0,240.0,150.0,1.0,0.0
1513,82.0,0.0,150.0,0.0,0.0
1514,70.0,0.0,150.0,1.0,0.0
1515,73.0,0.0,150.0,1.0,0.0
1516,32.0,0.0,390.0,14.0,0.0
1517,48.0,0.0,390.0,3.0,0.0
1518,60.0,0.0,390.0,4.0,0.0
1519,68.0,0.0,390.0,4.0,0.0
1520,84.0,0.0,300.0,0.0,0.0
1521,56.0,480.0,390.0,12.0,0.0
1522,56.0,0.0,390.0,3.0,0.0
1523,75.0,0.0,300.0,1.0,0.0
1524,44.0,0.0,390.0,13.0,0.0
1525,72.0,96.0,300.0,1.0,0.0
1526,56.0,0.0,390.0,12.0,0.0
1527,44.0,0.0,390.0,13.0,0.0
1528,32.0,48.0,390.0,14.0,0.0
1529,75.0,288.0,180.0,0.0,0.0
1530,51.0,0.0,1920.0,13.0,0.0
1531,58.0,240.0,1440.0,2.0,0.0
1532,55.0,0.0,1440.0,2.0,0.0
1533,39.0,0.0,1920.0,14.0,0.0
1534,63.0,0.0,1920.0,12.0,0.0
1535,75.0,240.0,240.0,0.0,0.0
1536,85.0,240.0,240.0,0.0,0.0
1537,84.0,240.0,240.0,0.0,0.0
1538,82.0,240.0,240.0,0.0,0.0
1539,80.0,240.0,240.0,0.0,0.0
1540,79.0,0.0,240.0,0.0,0.0
1541,77.0,240.0,240.0,0.0,0.0
1542,56.0,0.0,480.0,2.0,0.0
1543,60.0,0.0,480.0,2.0,0.0
1544,75.0,240.0,240.0,0.0,0.0
1545,51.0,0.0,1920.0,12.0,0.0
1546,39.0,0.0,1920.0,13.0,0.0
1547,74.0,0.0,240.0,0.0,0.0
1548,74.0,240.0,240.0,1.0,0.0
1549,27.0,0.0,1920.0,14.0,0.0
1550,61.0,240.0,480.0,2.0,0.0
1551,75.0,0.0,240.0,0.0,0.0
1552,75.0,0.0,240.0,1.0,0.0
1553,77.0,240.0,240.0,1.0,0.0
1554,58.0,0.0,15.0,2.0,0.0
1555,75.0,0.0,240.0,1.0,0.0
1556,55.0,240.0,15.0,2.0,0.0
1557,75.0,240.0,240.0,1.0,0.0
1558,51.0,0.0,480.0,2.0,0.0
1559,74.0,0.0,240.0,1.0,0.0
1560,55.0,240.0,15.0,2.0,0.0
1561,58.0,0.0,480.0,2.0,0.0
1562,73.0,240.0,240.0,1.0,0.0
1563,70.0,0.0,240.0,1.0,0.0
1564,44.0,0.0,390.0,13.0,0.0
1565,68.0,192.0,180.0,10.0,0.0
1566,56.0,0.0,390.0,12.0,0.0
1567,32.0,0.0,390.0,14.0,0.0
1568,68.0,0.0,390.0,1.0,0.0
1569,56.0,288.0,390.0,2.0,0.0
1570,63.0,480.0,180.0,10.0,0.0
1571,68.0,480.0,180.0,10.0,0.0
1572,72.0,480.0,180.0,10.0,0.0
1573,73.0,80.0,720.0,10.0,0.0
1574,58.0,480.0,180.0,12.0,0.0
1575,51.0,48.0,180.0,12.0,0.0
1576,72.0,80.0,90.0,10.0,0.0
1577,70.0,80.0,90.0,10.0,0.0
1578,68.0,192.0,90.0,10.0,0.0
1579,58.0,192.0,180.0,12.0,0.0
1580,67.0,288.0,390.0,10.0,0.0
1581,61.0,480.0,180.0,12.0,0.0
1582,60.0,80.0,720.0,12.0,0.0
1583,75.0,0.0,180.0,10.0,0.0
1584,68.0,432.0,180.0,11.0,0.0
1585,75.0,48.0,390.0,10.0,0.0
1586,63.0,48.0,180.0,11.0,0.0
1587,75.0,48.0,390.0,10.0,0.0
1588,61.0,80.0,90.0,12.0,0.0
1589,60.0,80.0,90.0,12.0,0.0
1590,58.0,144.0,90.0,12.0,0.0
1591,56.0,240.0,390.0,12.0,0.0
1592,68.0,192.0,180.0,11.0,0.0
1593,75.0,48.0,390.0,10.0,0.0
1594,72.0,480.0,180.0,11.0,0.0
1595,75.0,432.0,420.0,10.0,0.0
1596,46.0,0.0,180.0,14.0,0.0
1597,58.0,0.0,180.0,13.0,0.0
1598,73.0,80.0,720.0,11.0,0.0
1599,75.0,48.0,390.0,10.0,0.0
1600,51.0,0.0,180.0,13.0,0.0
1601,39.0,48.0,180.0,14.0,0.0
1602,75.0,48.0,390.0,10.0,0.0
1603,72.0,80.0,90.0,11.0,0.0
1604,70.0,80.0,90.0,11.0,0.0
1605,68.0,144.0,90.0,11.0,0.0
1606,46.0,192.0,180.0,14.0,0.0
1607,67.0,240.0,390.0,11.0,0.0
1608,58.0,0.0,180.0,13.0,0.0
1609,75.0,48.0,390.0,10.0,0.0
1610,49.0,240.0,180.0,14.0,0.0
1611,61.0,0.0,180.0,13.0,0.0
1612,75.0,144.0,180.0,10.0,0.0
1613,75.0,96.0,90.0,10.0,0.0
1614,48.0,0.0,720.0,14.0,0.0
1615,56.0,0.0,180.0,2.0,0.0
1616,39.0,14.0,3810.0,3.0,0.0
1617,60.0,80.0,720.0,13.0,0.0
1618,68.0,0.0,180.0,11.0,0.0
1619,51.0,0.0,3810.0,3.0,0.0
1620,68.0,0.0,180.0,1.0,0.0
1621,56.0,24.0,180.0,12.0,0.0
1622,75.0,120.0,90.0,10.0,0.0
1623,75.0,120.0,90.0,10.0,0.0
1624,75.0,120.0,90.0,10.0,0.0
1625,51.0,24.0,180.0,2.0,0.0
1626,75.0,96.0,90.0,10.0,0.0
1627,63.0,0.0,180.0,11.0,0.0
1628,51.0,0.0,180.0,12.0,0.0
1629,63.0,0.0,180.0,1.0,0.0
1630,75.0,24.0,90.0,10.0,0.0
1631,61.0,16.0,90.0,13.0,0.0
1632,75.0,64.0,90.0,10.0,0.0
1633,49.0,0.0,90.0,14.0,0.0
1634,48.0,56.0,90.0,14.0,0.0
1635,60.0,0.0,90.0,13.0,0.0
1636,75.0,24.0,90.0,10.0,0.0
1637,58.0,96.0,90.0,13.0,0.0
1638,46.0,0.0,90.0,14.0,0.0
1639,56.0,24.0,180.0,12.0,0.0
1640,44.0,0.0,390.0,14.0,0.0
1641,75.0,96.0,90.0,10.0,0.0
1642,56.0,72.0,390.0,13.0,0.0
1643,56.0,0.0,180.0,2.0,0.0
1644,68.0,0.0,180.0,11.0,0.0
1645,68.0,0.0,180.0,1.0,0.0
1646,75.0,120.0,90.0,10.0,0.0
1647,75.0,48.0,90.0,10.0,0.0
1648,75.0,120.0,90.0,10.0,0.0
1649,75.0,96.0,90.0,10.0,0.0
1650,60.0,0.0,180.0,12.0,0.0
1651,60.0,0.0,180.0,2.0,0.0
1652,72.0,0.0,180.0,11.0,0.0
1653,72.0,24.0,180.0,1.0,0.0
1654,75.0,120.0,90.0,10.0,0.0
1655,75.0,120.0,90.0,10.0,0.0
1656,75.0,120.0,90.0,10.0,0.0
1657,46.0,24.0,180.0,13.0,0.0
1658,73.0,0.0,720.0,1.0,0.0
1659,61.0,0.0,720.0,2.0,0.0
1660,34.0,0.0,180.0,14.0,0.0
1661,73.0,80.0,720.0,11.0,0.0
1662,75.0,96.0,90.0,10.0,0.0
1663,61.0,0.0,720.0,12.0,0.0
1664,75.0,120.0,90.0,10.0,0.0
1665,75.0,120.0,90.0,10.0,0.0
1666,75.0,120.0,90.0,10.0,0.0
1667,27.0,0.0,180.0,14.0,0.0
1668,39.0,24.0,180.0,13.0,0.0
1669,75.0,96.0,90.0,10.0,0.0
1670,75.0,24.0,90.0,10.0,0.0
1671,60.0,0.0,90.0,2.0,0.0
1672,60.0,0.0,90.0,12.0,0.0
1673,72.0,0.0,90.0,1.0,0.0
1674,75.0,64.0,90.0,10.0,0.0
1675,72.0,16.0,90.0,11.0,0.0
1676,58.0,0.0,90.0,2.0,0.0
1677,58.0,0.0,90.0,12.0,0.0
1678,70.0,56.0,90.0,11.0,0.0
1679,70.0,0.0,90.0,1.0,0.0
1680,75.0,24.0,90.0,10.0,0.0
1681,56.0,96.0,90.0,12.0,0.0
1682,68.0,0.0,90.0,11.0,0.0
1683,56.0,0.0,90.0,2.0,0.0
1684,68.0,0.0,90.0,1.0,0.0
1685,55.0,72.0,390.0,2.0,0.0
1686,46.0,24.0,180.0,13.0,0.0
1687,75.0,96.0,90.0,10.0,0.0
1688,67.0,0.0,390.0,11.0,0.0
1689,55.0,0.0,390.0,12.0,0.0
1690,67.0,0.0,390.0,1.0,0.0
1691,34.0,0.0,180.0,14.0,0.0
1692,75.0,120.0,90.0,10.0,0.0
1693,75.0,48.0,90.0,10.0,0.0
1694,75.0,120.0,90.0,10.0,0.0
1695,75.0,96.0,90.0,10.0,0.0
1696,37.0,24.0,180.0,14.0,0.0
1697,49.0,0.0,180.0,13.0,0.0
1698,75.0,120.0,90.0,10.0,0.0
1699,75.0,106.0,90.0,10.0,0.0
1700,75.0,120.0,90.0,10.0,0.0
1701,36.0,80.0,720.0,14.0,0.0
1702,80.0,0.0,180.0,10.0,0.0
1703,80.0,0.0,180.0,0.0,0.0
1704,68.0,0.0,180.0,4.0,0.0
1705,56.0,24.0,180.0,4.0,0.0
1706,44.0,72.0,390.0,5.0,0.0
1707,44.0,0.0,180.0,3.0,0.0
1708,51.0,192.0,4800.0,2.0,0.0
1709,56.0,0.0,180.0,3.0,0.0
1710,68.0,0.0,180.0,11.0,0.0
1711,48.0,0.0,720.0,13.0,0.0
1712,51.0,96.0,90.0,12.0,0.0
1713,63.0,0.0,90.0,12.0,0.0
1714,75.0,0.0,4770.0,1.0,0.0
1715,63.0,20.0,4770.0,1.0,0.0
1716,63.0,14.0,3810.0,2.0,0.0
1717,63.0,120.0,90.0,12.0,0.0
1718,51.0,0.0,90.0,12.0,0.0
1719,63.0,0.0,90.0,12.0,0.0
1720,51.0,48.0,90.0,12.0,0.0
1721,51.0,120.0,90.0,12.0,0.0
1722,63.0,0.0,90.0,12.0,0.0
1723,75.0,0.0,180.0,10.0,0.0
1724,51.0,0.0,180.0,3.0,0.0
1725,63.0,0.0,180.0,11.0,0.0
1726,75.0,0.0,180.0,0.0,0.0
1727,39.0,0.0,180.0,3.0,0.0
1728,51.0,0.0,180.0,4.0,0.0
1729,63.0,24.0,180.0,4.0,0.0
1730,51.0,96.0,90.0,12.0,0.0
1731,63.0,0.0,90.0,12.0,0.0
1732,51.0,0.0,90.0,12.0,0.0
1733,63.0,24.0,90.0,12.0,0.0
1734,37.0,16.0,90.0,14.0,0.0
1735,49.0,0.0,90.0,13.0,0.0
1736,51.0,64.0,90.0,12.0,0.0
1737,63.0,0.0,90.0,12.0,0.0
1738,36.0,0.0,90.0,14.0,0.0
1739,48.0,56.0,90.0,13.0,0.0
1740,63.0,24.0,90.0,12.0,0.0
1741,51.0,0.0,90.0,12.0,0.0
1742,34.0,0.0,90.0,14.0,0.0
1743,46.0,96.0,90.0,13.0,0.0
1744,44.0,0.0,180.0,3.0,0.0
1745,56.0,0.0,180.0,3.0,0.0
1746,32.0,72.0,390.0,14.0,0.0
1747,68.0,24.0,180.0,11.0,0.0
1748,68.0,0.0,180.0,4.0,0.0
1749,63.0,0.0,90.0,12.0,0.0
1750,51.0,96.0,90.0,12.0,0.0
1751,80.0,0.0,180.0,0.0,0.0
1752,80.0,0.0,180.0,10.0,0.0
1753,56.0,0.0,180.0,4.0,0.0
1754,44.0,0.0,390.0,13.0,0.0
1755,63.0,0.0,90.0,12.0,0.0
1756,51.0,120.0,90.0,12.0,0.0
1757,51.0,48.0,90.0,12.0,0.0
1758,63.0,0.0,90.0,12.0,0.0
1759,51.0,120.0,90.0,12.0,0.0
1760,63.0,0.0,90.0,12.0,0.0
1761,84.0,0.0,180.0,10.0,0.0
1762,72.0,24.0,180.0,11.0,0.0
1763,60.0,0.0,180.0,3.0,0.0
1764,48.0,0.0,180.0,3.0,0.0
1765,84.0,0.0,180.0,0.0,0.0
1766,63.0,96.0,90.0,12.0,0.0
1767,51.0,0.0,90.0,12.0,0.0
1768,72.0,0.0,180.0,4.0,0.0
1769,60.0,0.0,180.0,4.0,0.0
1770,51.0,120.0,90.0,12.0,0.0
1771,63.0,0.0,90.0,12.0,0.0
1772,63.0,120.0,90.0,12.0,0.0
1773,51.0,0.0,90.0,12.0,0.0
1774,63.0,120.0,90.0,12.0,0.0
1775,51.0,0.0,90.0,12.0,0.0
1776,85.0,80.0,720.0,10.0,0.0
1777,63.0,0.0,90.0,12.0,0.0
1778,51.0,120.0,90.0,12.0,0.0
1779,51.0,192.0,1920.0,3.0,0.0
1780,63.0,0.0,1920.0,3.0,0.0
1781,75.0,0.0,1920.0,4.0,0.0
1782,55.0,0.0,720.0,13.0,0.0
1783,39.0,72.0,390.0,5.0,0.0
1784,73.0,0.0,720.0,11.0,0.0
1785,43.0,0.0,720.0,14.0,0.0
1786,63.0,0.0,1920.0,4.0,0.0
1787,85.0,0.0,720.0,0.0,0.0
1788,63.0,0.0,90.0,12.0,0.0
1789,51.0,120.0,90.0,12.0,0.0
1790,51.0,0.0,90.0,12.0,0.0
1791,63.0,48.0,90.0,12.0,0.0
1792,63.0,120.0,90.0,12.0,0.0
1793,51.0,0.0,90.0,12.0,0.0
1794,51.0,120.0,90.0,12.0,0.0
1795,63.0,0.0,90.0,12.0,0.0
1796,51.0,0.0,90.0,12.0,0.0
1797,63.0,24.0,90.0,12.0,0.0
1798,56.0,0.0,90.0,13.0,0.0
1799,72.0,0.0,90.0,11.0,0.0
1800,51.0,64.0,90.0,12.0,0.0
1801,84.0,16.0,90.0,0.0,0.0
1802,84.0,0.0,90.0,10.0,0.0
1803,63.0,0.0,90.0,12.0,0.0
1804,44.0,0.0,90.0,14.0,0.0
1805,58.0,0.0,90.0,13.0,0.0
1806,70.0,0.0,90.0,11.0,0.0
1807,82.0,0.0,90.0,10.0,0.0
1808,46.0,56.0,90.0,14.0,0.0
1809,82.0,0.0,90.0,0.0,0.0
1810,51.0,0.0,90.0,12.0,0.0
1811,63.0,24.0,90.0,12.0,0.0
1812,80.0,0.0,90.0,10.0,0.0
1813,68.0,0.0,90.0,11.0,0.0
1814,48.0,96.0,90.0,14.0,0.0
1815,60.0,0.0,90.0,13.0,0.0
1816,80.0,0.0,90.0,0.0,0.0
1817,63.0,0.0,90.0,12.0,0.0
1818,61.0,0.0,390.0,13.0,0.0
1819,79.0,0.0,390.0,0.0,0.0
1820,49.0,0.0,390.0,14.0,0.0
1821,79.0,0.0,390.0,10.0,0.0
1822,51.0,120.0,90.0,12.0,0.0
1823,67.0,72.0,390.0,11.0,0.0
1824,63.0,120.0,90.0,12.0,0.0
1825,51.0,0.0,90.0,12.0,0.0
1826,63.0,48.0,90.0,12.0,0.0
1827,51.0,0.0,90.0,12.0,0.0
1828,63.0,0.0,90.0,12.0,0.0
1829,51.0,120.0,90.0,12.0,0.0
1830,37.0,0.0,390.0,14.0,0.0
1831,51.0,0.0,90.0,12.0,0.0
1832,63.0,120.0,90.0,12.0,0.0
1833,49.0,58.0,390.0,13.0,0.0
1834,51.0,120.0,90.0,12.0,0.0
1835,63.0,0.0,90.0,12.0,0.0
1836,51.0,0.0,90.0,12.0,0.0
1837,63.0,48.0,90.0,12.0,0.0
1838,51.0,24.0,90.0,12.0,0.0
1839,63.0,0.0,90.0,12.0,0.0
1840,63.0,192.0,180.0,12.0,0.0
1841,36.0,0.0,180.0,14.0,0.0
1842,44.0,0.0,780.0,3.0,0.0
1843,80.0,0.0,1200.0,10.0,0.0
1844,48.0,0.0,180.0,13.0,0.0
1845,56.0,0.0,780.0,4.0,0.0
1846,68.0,144.0,780.0,4.0,0.0
1847,56.0,192.0,1200.0,2.0,0.0
1848,80.0,0.0,1200.0,0.0,0.0
1849,44.0,48.0,390.0,5.0,0.0
1850,56.0,0.0,780.0,3.0,0.0
1851,68.0,0.0,1200.0,11.0,0.0
1852,36.0,0.0,180.0,14.0,0.0
1853,48.0,0.0,180.0,13.0,0.0
1854,51.0,240.0,180.0,12.0,0.0
1855,48.0,96.0,180.0,13.0,0.0
1856,51.0,0.0,180.0,12.0,0.0
1857,36.0,0.0,180.0,14.0,0.0
1858,48.0,28.0,180.0,13.0,0.0
1859,36.0,0.0,180.0,14.0,0.0
1860,51.0,0.0,180.0,12.0,0.0
1861,64.0,0.0,930.0,1.0,0.0
1862,52.0,0.0,900.0,2.0,0.0
1863,52.0,48.0,180.0,12.0,0.0
1864,76.0,212.0,930.0,1.0,0.0
1865,49.0,0.0,180.0,13.0,0.0
1866,37.0,0.0,180.0,14.0,0.0
1867,52.0,0.0,180.0,12.0,0.0
1868,49.0,48.0,180.0,13.0,0.0
1869,81.0,0.0,240.0,0.0,0.0
1870,69.0,192.0,240.0,11.0,0.0
1871,81.0,0.0,240.0,10.0,0.0
1872,57.0,0.0,240.0,2.0,0.0
1873,37.0,0.0,180.0,14.0,0.0
1874,80.0,0.0,240.0,0.0,0.0
1875,80.0,192.0,240.0,10.0,0.0
1876,68.0,0.0,240.0,11.0,0.0
1877,49.0,0.0,180.0,13.0,0.0
1878,37.0,0.0,180.0,14.0,0.0
1879,56.0,0.0,240.0,2.0,0.0
1880,52.0,48.0,180.0,12.0,0.0
1881,79.0,0.0,180.0,0.0,0.0
1882,37.0,28.0,180.0,14.0,0.0
1883,52.0,0.0,180.0,12.0,0.0
1884,49.0,0.0,180.0,13.0,0.0
1885,79.0,0.0,180.0,10.0,0.0
1886,67.0,0.0,180.0,11.0,0.0
1887,55.0,0.0,180.0,2.0,0.0
1888,80.0,0.0,1200.0,10.0,0.0
1889,56.0,0.0,1200.0,2.0,0.0
1890,51.0,192.0,960.0,2.0,0.0
1891,56.0,0.0,780.0,4.0,0.0
1892,68.0,0.0,780.0,4.0,0.0
1893,36.0,0.0,180.0,14.0,0.0
1894,44.0,48.0,390.0,5.0,0.0
1895,75.0,0.0,930.0,1.0,0.0
1896,68.0,192.0,1200.0,11.0,0.0
1897,51.0,192.0,180.0,12.0,0.0
1898,80.0,0.0,1200.0,0.0,0.0
1899,56.0,144.0,780.0,3.0,0.0
1900,44.0,0.0,780.0,3.0,0.0
1901,48.0,0.0,180.0,13.0,0.0
1902,63.0,20.0,930.0,1.0,0.0
1903,48.0,240.0,180.0,13.0,0.0
1904,51.0,0.0,180.0,12.0,0.0
1905,36.0,0.0,180.0,14.0,0.0
1906,51.0,0.0,180.0,12.0,0.0
1907,48.0,96.0,180.0,13.0,0.0
1908,36.0,0.0,180.0,14.0,0.0
1909,36.0,0.0,180.0,14.0,0.0
1910,51.0,28.0,180.0,12.0,0.0
1911,48.0,0.0,180.0,13.0,0.0
1912,64.0,212.0,930.0,1.0,0.0
1913,76.0,0.0,930.0,1.0,0.0
1914,52.0,0.0,900.0,2.0,0.0
1915,37.0,48.0,180.0,14.0,0.0
1916,52.0,0.0,180.0,12.0,0.0
1917,49.0,0.0,180.0,13.0,0.0
1918,81.0,192.0,240.0,0.0,0.0
1919,37.0,0.0,180.0,14.0,0.0
1920,81.0,0.0,240.0,10.0,0.0
1921,57.0,0.0,240.0,2.0,0.0
1922,52.0,0.0,180.0,12.0,0.0
1923,49.0,48.0,180.0,13.0,0.0
1924,69.0,0.0,240.0,11.0,0.0
1925,68.0,192.0,240.0,11.0,0.0
1926,49.0,0.0,180.0,13.0,0.0
1927,80.0,0.0,240.0,10.0,0.0
1928,56.0,0.0,240.0,2.0,0.0
1929,80.0,0.0,240.0,0.0,0.0
1930,37.0,0.0,180.0,14.0,0.0
1931,52.0,48.0,180.0,12.0,0.0
1932,79.0,0.0,180.0,10.0,0.0
1933,52.0,0.0,180.0,12.0,0.0
1934,55.0,0.0,180.0,2.0,0.0
1935,67.0,0.0,180.0,11.0,0.0
1936,49.0,0.0,180.0,13.0,0.0
1937,79.0,28.0,180.0,0.0,0.0
1938,37.0,0.0,180.0,14.0,0.0
1939,63.0,20.0,930.0,1.0,0.0
1940,75.0,0.0,930.0,1.0,0.0
1941,56.0,0.0,1200.0,2.0,0.0
1942,51.0,192.0,960.0,2.0,0.0
1943,80.0,192.0,1200.0,10.0,0.0
1944,80.0,0.0,1200.0,0.0,0.0
1945,48.0,0.0,180.0,13.0,0.0
1946,44.0,144.0,780.0,3.0,0.0
1947,68.0,0.0,780.0,4.0,0.0
1948,51.0,0.0,180.0,12.0,0.0
1949,44.0,48.0,390.0,5.0,0.0
1950,56.0,0.0,780.0,3.0,0.0
1951,68.0,0.0,1200.0,11.0,0.0
1952,56.0,0.0,780.0,4.0,0.0
1953,36.0,192.0,180.0,14.0,0.0
1954,51.0,240.0,180.0,12.0,0.0
1955,48.0,0.0,180.0,13.0,0.0
1956,36.0,0.0,180.0,14.0,0.0
1957,36.0,0.0,180.0,14.0,0.0
1958,48.0,0.0,180.0,13.0,0.0
1959,51.0,96.0,180.0,12.0,0.0
1960,51.0,0.0,180.0,12.0,0.0
1961,48.0,0.0,180.0,13.0,0.0
1962,36.0,28.0,180.0,14.0,0.0
1963,37.0,0.0,180.0,14.0,0.0
1964,64.0,116.0,930.0,1.0,0.0
1965,52.0,0.0,900.0,2.0,0.0
1966,49.0,48.0,180.0,13.0,0.0
1967,52.0,0.0,180.0,12.0,0.0
1968,76.0,0.0,930.0,1.0,0.0
1969,81.0,0.0,240.0,0.0,0.0
1970,49.0,48.0,180.0,13.0,0.0
1971,81.0,0.0,240.0,10.0,0.0
1972,52.0,0.0,180.0,12.0,0.0
1973,37.0,0.0,180.0,14.0,0.0
1974,69.0,0.0,240.0,11.0,0.0
1975,57.0,192.0,240.0,2.0,0.0
1976,68.0,0.0,240.0,11.0,0.0
1977,49.0,0.0,180.0,13.0,0.0
1978,80.0,0.0,240.0,0.0,0.0
1979,80.0,192.0,240.0,10.0,0.0
1980,56.0,0.0,240.0,2.0,0.0
1981,37.0,0.0,180.0,14.0,0.0
1982,52.0,48.0,180.0,12.0,0.0
1983,37.0,28.0,180.0,14.0,0.0
1984,49.0,0.0,180.0,13.0,0.0
1985,52.0,0.0,180.0,12.0,0.0
1986,79.0,0.0,180.0,0.0,0.0
1987,67.0,0.0,180.0,11.0,0.0
1988,55.0,0.0,180.0,2.0,0.0
1989,79.0,0.0,180.0,10.0,0.0
1990,80.0,48.0,150.0,10.0,0.0
1991,44.0,0.0,1740.0,3.0,0.0
1992,80.0,96.0,3360.0,0.0,0.0
1993,56.0,48.0,1740.0,3.0,0.0
1994,51.0,0.0,90.0,12.0,0.0
1995,36.0,0.0,180.0,14.0,0.0
1996,68.0,48.0,780.0,4.0,0.0
1997,44.0,0.0,390.0,5.0,0.0
1998,63.0,0.0,390.0,1.0,0.0
1999,75.0,48.0,390.0,1.0,0.0
2000,48.0,0.0,180.0,13.0,0.0
2001,56.0,24.0,180.0,2.0,0.0
2002,48.0,0.0,180.0,2.0,0.0
2003,56.0,0.0,780.0,4.0,0.0
2004,68.0,48.0,90.0,11.0,0.0
2005,51.0,120.0,90.0,12.0,0.0
2006,68.0,0.0,90.0,11.0,0.0
2007,75.0,0.0,150.0,10.0,0.0
2008,36.0,0.0,180.0,14.0,0.0
2009,51.0,0.0,90.0,12.0,0.0
2010,48.0,0.0,180.0,13.0,0.0
2011,48.0,24.0,180.0,2.0,0.0
2012,68.0,48.0,90.0,11.0,0.0
2013,68.0,0.0,90.0,11.0,0.0
2014,51.0,120.0,90.0,12.0,0.0
2015,56.0,0.0,90.0,12.0,0.0
2016,75.0,0.0,900.0,10.0,0.0
2017,75.0,0.0,900.0,1.0,0.0
2018,36.0,0.0,180.0,14.0,0.0
2019,68.0,96.0,90.0,11.0,0.0
2020,63.0,24.0,900.0,1.0,0.0
2021,48.0,0.0,180.0,2.0,0.0
2022,48.0,24.0,180.0,13.0,0.0
2023,68.0,0.0,90.0,11.0,0.0
2024,56.0,72.0,90.0,12.0,0.0
2025,48.0,24.0,180.0,2.0,0.0
2026,48.0,0.0,180.0,13.0,0.0
2027,56.0,0.0,90.0,12.0,0.0
2028,36.0,0.0,180.0,14.0,0.0
2029,68.0,96.0,90.0,11.0,0.0
2030,68.0,120.0,90.0,11.0,0.0
2031,56.0,0.0,90.0,12.0,0.0
2032,63.0,0.0,90.0,12.0,0.0
2033,36.0,0.0,180.0,14.0,0.0
2034,48.0,24.0,180.0,13.0,0.0
2035,48.0,0.0,180.0,2.0,0.0
2036,68.0,96.0,90.0,11.0,0.0
2037,63.0,0.0,90.0,12.0,0.0
2038,68.0,120.0,90.0,11.0,0.0
2039,63.0,0.0,90.0,12.0,0.0
2040,48.0,0.0,180.0,13.0,0.0
2041,48.0,0.0,180.0,2.0,0.0
2042,68.0,96.0,90.0,11.0,0.0
2043,36.0,0.0,180.0,14.0,0.0
2044,68.0,120.0,90.0,11.0,0.0
2045,63.0,0.0,90.0,12.0,0.0
2046,66.0,96.0,90.0,12.0,0.0
2047,76.0,96.0,720.0,10.0,0.0
2048,76.0,0.0,720.0,1.0,0.0
2049,48.0,0.0,180.0,2.0,0.0
2050,36.0,24.0,180.0,14.0,0.0
2051,48.0,0.0,180.0,13.0,0.0
2052,64.0,0.0,720.0,1.0,0.0
2053,68.0,0.0,90.0,11.0,0.0
2054,68.0,0.0,90.0,11.0,0.0
2055,66.0,72.0,90.0,12.0,0.0
2056,36.0,0.0,180.0,14.0,0.0
2057,66.0,96.0,90.0,12.0,0.0
2058,48.0,0.0,180.0,13.0,0.0
2059,68.0,0.0,90.0,11.0,0.0
2060,48.0,24.0,180.0,2.0,0.0
2061,68.0,0.0,90.0,11.0,0.0
2062,66.0,120.0,90.0,12.0,0.0
2063,65.0,0.0,90.0,12.0,0.0
2064,49.0,0.0,180.0,13.0,0.0
2065,56.0,48.0,780.0,4.0,0.0
2066,68.0,0.0,780.0,4.0,0.0
2067,56.0,0.0,780.0,3.0,0.0
2068,37.0,0.0,180.0,14.0,0.0
2069,49.0,24.0,180.0,2.0,0.0
2070,44.0,0.0,780.0,3.0,0.0
2071,68.0,96.0,90.0,11.0,0.0
2072,44.0,48.0,390.0,5.0,0.0
2073,68.0,0.0,90.0,11.0,0.0
2074,65.0,24.0,90.0,12.0,0.0
2075,49.0,0.0,180.0,13.0,0.0
2076,65.0,0.0,180.0,1.0,0.0
2077,77.0,0.0,180.0,1.0,0.0
2078,37.0,24.0,180.0,14.0,0.0
2079,49.0,0.0,180.0,2.0,0.0
2080,65.0,48.0,90.0,12.0,0.0
2081,68.0,0.0,90.0,11.0,0.0
2082,77.0,0.0,180.0,10.0,0.0
2083,65.0,0.0,90.0,12.0,0.0
2084,68.0,120.0,90.0,11.0,0.0
2085,68.0,0.0,90.0,11.0,0.0
2086,37.0,0.0,180.0,14.0,0.0
2087,49.0,0.0,180.0,2.0,0.0
2088,65.0,24.0,900.0,1.0,0.0
2089,77.0,0.0,900.0,1.0,0.0
2090,49.0,24.0,180.0,13.0,0.0
2091,65.0,96.0,90.0,12.0,0.0
2092,77.0,0.0,900.0,10.0,0.0
2093,68.0,72.0,90.0,11.0,0.0
2094,65.0,0.0,90.0,12.0,0.0
2095,68.0,96.0,90.0,11.0,0.0
2096,37.0,0.0,180.0,14.0,0.0
2097,49.0,24.0,180.0,13.0,0.0
2098,49.0,0.0,180.0,2.0,0.0
2099,65.0,0.0,90.0,12.0,0.0
2100,68.0,0.0,90.0,11.0,0.0
2101,65.0,120.0,90.0,12.0,0.0
2102,68.0,0.0,90.0,11.0,0.0
2103,49.0,0.0,180.0,13.0,0.0
2104,65.0,96.0,90.0,12.0,0.0
2105,37.0,0.0,180.0,14.0,0.0
2106,49.0,24.0,180.0,2.0,0.0
2107,65.0,120.0,90.0,12.0,0.0
2108,68.0,0.0,90.0,11.0,0.0
2109,37.0,0.0,180.0,14.0,0.0
2110,65.0,96.0,90.0,12.0,0.0
2111,49.0,0.0,180.0,13.0,0.0
2112,68.0,0.0,90.0,11.0,0.0
2113,49.0,0.0,180.0,2.0,0.0
2114,68.0,0.0,90.0,11.0,0.0
2115,65.0,24.0,90.0,12.0,0.0
2116,49.0,24.0,180.0,13.0,0.0
2117,79.0,0.0,720.0,10.0,0.0
2118,70.0,96.0,90.0,11.0,0.0
2119,49.0,0.0,180.0,2.0,0.0
2120,79.0,96.0,720.0,1.0,0.0
2121,67.0,0.0,720.0,1.0,0.0
2122,82.0,0.0,720.0,0.0,0.0
2123,64.0,0.0,90.0,12.0,0.0
2124,37.0,0.0,180.0,14.0,0.0
2125,64.0,0.0,90.0,12.0,0.0
2126,70.0,120.0,90.0,11.0,0.0
2127,49.0,24.0,180.0,13.0,0.0
2128,49.0,0.0,180.0,2.0,0.0
2129,37.0,0.0,180.0,14.0,0.0
2130,64.0,96.0,90.0,12.0,0.0
2131,70.0,0.0,90.0,11.0,0.0
2132,64.0,120.0,90.0,12.0,0.0
2133,70.0,0.0,90.0,11.0,0.0
2134,65.0,96.0,90.0,12.0,0.0
2135,56.0,48.0,390.0,3.0,0.0
2136,38.0,0.0,180.0,14.0,0.0
2137,56.0,0.0,390.0,4.0,0.0
2138,44.0,0.0,390.0,3.0,0.0
2139,68.0,0.0,390.0,4.0,0.0
2140,44.0,0.0,390.0,5.0,0.0
2141,50.0,24.0,180.0,13.0,0.0
2142,71.0,0.0,90.0,11.0,0.0
2143,50.0,0.0,180.0,2.0,0.0
2144,71.0,0.0,90.0,11.0,0.0
2145,65.0,24.0,90.0,12.0,0.0
2146,68.0,0.0,180.0,1.0,0.0
2147,80.0,24.0,180.0,1.0,0.0
2148,83.0,0.0,180.0,0.0,0.0
2149,50.0,0.0,180.0,13.0,0.0
2150,50.0,0.0,180.0,2.0,0.0
2151,71.0,48.0,90.0,11.0,0.0
2152,38.0,0.0,180.0,14.0,0.0
2153,65.0,0.0,90.0,12.0,0.0
2154,80.0,0.0,180.0,10.0,0.0
2155,71.0,120.0,90.0,11.0,0.0
2156,65.0,0.0,90.0,12.0,0.0
2157,83.0,0.0,900.0,0.0,0.0
2158,50.0,24.0,180.0,13.0,0.0
2159,44.0,48.0,300.0,5.0,0.0
2160,80.0,0.0,900.0,1.0,0.0
2161,68.0,0.0,900.0,1.0,0.0
2162,38.0,0.0,180.0,14.0,0.0
2163,71.0,0.0,90.0,11.0,0.0
2164,50.0,0.0,180.0,2.0,0.0
2165,56.0,0.0,300.0,4.0,0.0
2166,56.0,0.0,300.0,3.0,0.0
2167,80.0,24.0,900.0,10.0,0.0
2168,68.0,0.0,300.0,4.0,0.0
2169,44.0,0.0,300.0,3.0,0.0
2170,65.0,96.0,90.0,12.0,0.0
2171,71.0,72.0,90.0,11.0,0.0
2172,65.0,0.0,90.0,12.0,0.0
2173,65.0,96.0,90.0,12.0,0.0
2174,50.0,0.0,180.0,13.0,0.0
2175,71.0,0.0,90.0,11.0,0.0
2176,38.0,0.0,180.0,14.0,0.0
2177,50.0,24.0,180.0,2.0,0.0
2178,44.0,0.0,90.0,5.0,0.0
2179,65.0,0.0,90.0,12.0,0.0
2180,44.0,0.0,90.0,3.0,0.0
2181,56.0,0.0,90.0,3.0,0.0
2182,71.0,0.0,90.0,11.0,0.0
2183,56.0,120.0,90.0,4.0,0.0
2184,68.0,0.0,90.0,4.0,0.0
2185,44.0,48.0,390.0,5.0,0.0
2186,44.0,0.0,390.0,3.0,0.0
2187,56.0,0.0,390.0,3.0,0.0
2188,41.0,0.0,180.0,14.0,0.0
2189,71.0,96.0,90.0,11.0,0.0
2190,68.0,0.0,90.0,12.0,0.0
2191,53.0,24.0,180.0,13.0,0.0
2192,56.0,0.0,390.0,4.0,0.0
2193,53.0,0.0,180.0,2.0,0.0
2194,68.0,0.0,390.0,4.0,0.0
2195,68.0,0.0,90.0,12.0,0.0
2196,71.0,120.0,90.0,11.0,0.0
2197,41.0,0.0,180.0,14.0,0.0
2198,53.0,0.0,180.0,2.0,0.0
2199,71.0,0.0,90.0,11.0,0.0
2200,53.0,0.0,180.0,13.0,0.0
2201,68.0,48.0,90.0,12.0,0.0
2202,68.0,120.0,90.0,12.0,0.0
2203,71.0,0.0,90.0,11.0,0.0
2204,56.0,0.0,390.0,3.0,0.0
2205,44.0,0.0,390.0,3.0,0.0
2206,68.0,0.0,390.0,4.0,0.0
2207,62.0,0.0,390.0,1.0,0.0
2208,74.0,0.0,390.0,1.0,0.0
2209,71.0,0.0,90.0,11.0,0.0
2210,68.0,96.0,90.0,12.0,0.0
2211,53.0,0.0,180.0,13.0,0.0
2212,86.0,0.0,390.0,0.0,0.0
2213,53.0,24.0,180.0,2.0,0.0
2214,44.0,48.0,390.0,5.0,0.0
2215,56.0,0.0,390.0,4.0,0.0
2216,41.0,0.0,180.0,14.0,0.0
2217,74.0,0.0,390.0,10.0,0.0
2218,68.0,120.0,90.0,12.0,0.0
2219,71.0,0.0,90.0,11.0,0.0
2220,68.0,48.0,90.0,12.0,0.0
2221,71.0,0.0,90.0,11.0,0.0
2222,41.0,0.0,180.0,14.0,0.0
2223,53.0,0.0,180.0,2.0,0.0
2224,53.0,24.0,180.0,13.0,0.0
2225,68.0,0.0,90.0,12.0,0.0
2226,71.0,120.0,90.0,11.0,0.0
2227,87.0,48.0,780.0,0.0,0.0
2228,51.0,0.0,180.0,2.0,0.0
2229,63.0,0.0,390.0,1.0,0.0
2230,39.0,0.0,390.0,5.0,0.0
2231,68.0,0.0,90.0,12.0,0.0
2232,39.0,24.0,180.0,14.0,0.0
2233,51.0,0.0,180.0,13.0,0.0
2234,72.0,48.0,90.0,11.0,0.0
2235,60.0,0.0,390.0,3.0,0.0
2236,56.0,48.0,390.0,3.0,0.0
2237,75.0,0.0,390.0,1.0,0.0
2238,63.0,0.0,780.0,4.0,0.0
2239,75.0,48.0,150.0,10.0,0.0
2240,68.0,0.0,90.0,12.0,0.0
2241,72.0,120.0,90.0,11.0,0.0
2242,72.0,0.0,90.0,11.0,0.0
2243,39.0,0.0,180.0,14.0,0.0
2244,51.0,24.0,180.0,2.0,0.0
2245,75.0,0.0,150.0,10.0,0.0
2246,68.0,48.0,90.0,12.0,0.0
2247,51.0,0.0,180.0,13.0,0.0
2248,72.0,0.0,90.0,11.0,0.0
2249,68.0,120.0,90.0,12.0,0.0
2250,72.0,0.0,300.0,1.0,0.0
2251,68.0,0.0,300.0,1.0,0.0
2252,68.0,96.0,90.0,12.0,0.0
2253,75.0,12.0,690.0,10.0,0.0
2254,60.0,0.0,300.0,3.0,0.0
2255,72.0,0.0,90.0,11.0,0.0
2256,51.0,24.0,180.0,13.0,0.0
2257,56.0,0.0,300.0,3.0,0.0
2258,51.0,0.0,180.0,2.0,0.0
2259,39.0,0.0,180.0,14.0,0.0
2260,68.0,72.0,90.0,12.0,0.0
2261,72.0,0.0,90.0,11.0,0.0
2262,72.0,0.0,90.0,11.0,0.0
2263,51.0,0.0,180.0,13.0,0.0
2264,68.0,96.0,90.0,12.0,0.0
2265,51.0,24.0,180.0,2.0,0.0
2266,39.0,0.0,180.0,14.0,0.0
2267,68.0,0.0,90.0,12.0,0.0
2268,72.0,120.0,90.0,1.0,0.0
2269,68.0,0.0,90.0,1.0,0.0
2270,60.0,0.0,90.0,3.0,0.0
2271,72.0,0.0,90.0,11.0,0.0
2272,56.0,0.0,90.0,3.0,0.0
2273,51.0,0.0,180.0,13.0,0.0
2274,39.0,12.0,180.0,14.0,0.0
2275,56.0,96.0,90.0,12.0,0.0
2276,63.0,0.0,390.0,4.0,0.0
2277,51.0,0.0,180.0,2.0,0.0
2278,60.0,0.0,90.0,11.0,0.0
2279,56.0,0.0,390.0,3.0,0.0
2280,68.0,0.0,390.0,1.0,0.0
2281,72.0,48.0,390.0,1.0,0.0
2282,84.0,0.0,390.0,0.0,0.0
2283,60.0,0.0,390.0,3.0,0.0
2284,60.0,0.0,90.0,11.0,0.0
2285,56.0,120.0,90.0,12.0,0.0
2286,60.0,0.0,90.0,11.0,0.0
2287,51.0,24.0,180.0,2.0,0.0
2288,56.0,0.0,90.0,12.0,0.0
2289,51.0,0.0,180.0,13.0,0.0
2290,39.0,0.0,180.0,14.0,0.0
2291,77.0,48.0,90.0,10.0,0.0
2292,56.0,120.0,90.0,12.0,0.0
2293,60.0,0.0,90.0,11.0,0.0
2294,75.0,0.0,90.0,10.0,0.0
2295,72.0,0.0,390.0,1.0,0.0
2296,60.0,0.0,90.0,11.0,0.0
2297,51.0,24.0,180.0,13.0,0.0
2298,68.0,0.0,390.0,1.0,0.0
2299,39.0,0.0,180.0,14.0,0.0
2300,73.0,96.0,90.0,10.0,0.0
2301,60.0,0.0,390.0,3.0,0.0
2302,56.0,0.0,390.0,3.0,0.0
2303,63.0,48.0,390.0,4.0,0.0
2304,51.0,0.0,180.0,2.0,0.0
2305,56.0,0.0,90.0,12.0,0.0
2306,80.0,0.0,390.0,0.0,0.0
2307,56.0,0.0,90.0,12.0,0.0
2308,60.0,120.0,90.0,11.0,0.0
2309,72.0,0.0,90.0,10.0,0.0
2310,70.0,0.0,90.0,10.0,0.0
2311,39.0,0.0,180.0,14.0,0.0
2312,60.0,48.0,90.0,11.0,0.0
2313,51.0,24.0,180.0,2.0,0.0
2314,56.0,0.0,90.0,12.0,0.0
2315,51.0,0.0,180.0,13.0,0.0
2316,68.0,0.0,90.0,10.0,0.0
2317,56.0,120.0,90.0,12.0,0.0
2318,60.0,0.0,90.0,11.0,0.0
2319,63.0,0.0,780.0,4.0,0.0
2320,51.0,0.0,180.0,13.0,0.0
2321,39.0,0.0,180.0,14.0,0.0
2322,73.0,48.0,150.0,10.0,0.0
2323,70.0,0.0,390.0,1.0,0.0
2324,67.0,0.0,390.0,1.0,0.0
2325,51.0,0.0,390.0,3.0,0.0
2326,39.0,0.0,780.0,5.0,0.0
2327,58.0,0.0,90.0,11.0,0.0
2328,85.0,0.0,780.0,0.0,0.0
2329,55.0,48.0,90.0,12.0,0.0
2330,58.0,0.0,390.0,3.0,0.0
2331,51.0,24.0,180.0,2.0,0.0
2332,58.0,0.0,90.0,11.0,0.0
2333,55.0,120.0,90.0,12.0,0.0
2334,58.0,48.0,90.0,11.0,0.0
2335,39.0,0.0,180.0,14.0,0.0
2336,51.0,0.0,180.0,2.0,0.0
2337,73.0,48.0,150.0,10.0,0.0
2338,51.0,24.0,180.0,13.0,0.0
2339,55.0,0.0,90.0,12.0,0.0
2340,58.0,0.0,90.0,11.0,0.0
2341,55.0,120.0,90.0,12.0,0.0
2342,51.0,24.0,180.0,2.0,0.0
2343,58.0,0.0,300.0,3.0,0.0
2344,67.0,0.0,300.0,1.0,0.0
2345,70.0,0.0,300.0,1.0,0.0
2346,51.0,48.0,300.0,3.0,0.0
2347,51.0,0.0,180.0,13.0,0.0
2348,73.0,12.0,690.0,10.0,0.0
2349,55.0,96.0,90.0,12.0,0.0
2350,39.0,0.0,180.0,14.0,0.0
2351,58.0,0.0,90.0,11.0,0.0
2352,58.0,0.0,90.0,11.0,0.0
2353,55.0,72.0,90.0,12.0,0.0
2354,58.0,96.0,90.0,11.0,0.0
2355,55.0,0.0,90.0,12.0,0.0
2356,51.0,24.0,180.0,2.0,0.0
2357,39.0,0.0,180.0,14.0,0.0
2358,51.0,0.0,180.0,13.0,0.0
2359,58.0,0.0,90.0,3.0,0.0
2360,51.0,0.0,90.0,3.0,0.0
2361,58.0,120.0,90.0,11.0,0.0
2362,70.0,0.0,90.0,1.0,0.0
2363,67.0,0.0,90.0,1.0,0.0
2364,55.0,0.0,90.0,12.0,0.0
2365,58.0,0.0,90.0,12.0,0.0
2366,82.0,0.0,390.0,0.0,0.0
2367,63.0,0.0,390.0,4.0,0.0
2368,51.0,12.0,180.0,2.0,0.0
2369,39.0,0.0,180.0,14.0,0.0
2370,39.0,0.0,390.0,5.0,0.0
2371,58.0,0.0,390.0,3.0,0.0
2372,51.0,48.0,390.0,3.0,0.0
2373,51.0,0.0,180.0,13.0,0.0
2374,70.0,0.0,390.0,1.0,0.0
2375,67.0,0.0,390.0,1.0,0.0
2376,61.0,96.0,90.0,11.0,0.0
2377,58.0,0.0,90.0,12.0,0.0
2378,61.0,120.0,90.0,11.0,0.0
2379,75.0,0.0,90.0,10.0,0.0
2380,39.0,0.0,180.0,14.0,0.0
2381,58.0,0.0,90.0,12.0,0.0
2382,51.0,0.0,180.0,2.0,0.0
2383,61.0,48.0,90.0,11.0,0.0
2384,51.0,24.0,180.0,13.0,0.0
2385,58.0,0.0,90.0,12.0,0.0
2386,73.0,120.0,90.0,10.0,0.0
2387,61.0,0.0,90.0,11.0,0.0
2388,58.0,0.0,390.0,3.0,0.0
2389,67.0,48.0,390.0,1.0,0.0
2390,61.0,0.0,90.0,11.0,0.0
2391,51.0,0.0,180.0,2.0,0.0
2392,51.0,0.0,180.0,13.0,0.0
2393,72.0,96.0,90.0,10.0,0.0
2394,58.0,0.0,90.0,12.0,0.0
2395,70.0,0.0,390.0,1.0,0.0
2396,39.0,24.0,180.0,14.0,0.0
2397,39.0,0.0,390.0,5.0,0.0
2398,51.0,0.0,390.0,3.0,0.0
2399,79.0,0.0,390.0,0.0,0.0
2400,63.0,0.0,390.0,4.0,0.0
2401,61.0,0.0,90.0,11.0,0.0
2402,58.0,120.0,90.0,12.0,0.0
2403,70.0,0.0,90.0,10.0,0.0
2404,39.0,24.0,180.0,14.0,0.0
2405,68.0,48.0,90.0,10.0,0.0
2406,58.0,0.0,90.0,12.0,0.0
2407,51.0,0.0,180.0,2.0,0.0
2408,51.0,0.0,180.0,13.0,0.0
2409,61.0,0.0,90.0,11.0,0.0
2410,58.0,0.0,90.0,12.0,0.0
2411,67.0,0.0,90.0,10.0,0.0
2412,61.0,408.0,90.0,11.0,0.0
2413,68.0,0.0,390.0,1.0,0.0
2414,56.0,0.0,390.0,4.0,0.0
2415,60.0,0.0,390.0,11.0,0.0
2416,32.0,0.0,390.0,14.0,0.0
2417,56.0,0.0,390.0,12.0,0.0
2418,51.0,0.0,390.0,3.0,0.0
2419,80.0,0.0,390.0,0.0,0.0
2420,63.0,0.0,390.0,4.0,0.0
2421,44.0,0.0,390.0,13.0,0.0
2422,56.0,0.0,390.0,3.0,0.0
2423,68.0,0.0,390.0,10.0,0.0
2424,44.0,0.0,390.0,2.0,0.0
2425,44.0,240.0,390.0,5.0,0.0
2426,63.0,0.0,150.0,1.0,0.0
2427,41.0,0.0,150.0,2.0,0.0
2428,69.0,144.0,480.0,0.0,0.0
2429,60.0,0.0,150.0,1.0,0.0
2430,53.0,240.0,150.0,2.0,0.0
2431,63.0,0.0,150.0,1.0,0.0
2432,60.0,0.0,150.0,1.0,0.0
2433,53.0,0.0,150.0,2.0,0.0
2434,41.0,96.0,150.0,2.0,0.0
2435,58.0,0.0,150.0,1.0,0.0
2436,46.0,240.0,150.0,2.0,0.0
2437,61.0,0.0,150.0,1.0,0.0
2438,70.0,144.0,480.0,0.0,0.0
2439,53.0,0.0,150.0,2.0,0.0
2440,46.0,0.0,150.0,2.0,0.0
2441,58.0,0.0,150.0,1.0,0.0
2442,61.0,0.0,150.0,1.0,0.0
2443,53.0,96.0,150.0,2.0,0.0
2444,56.0,0.0,150.0,2.0,0.0
2445,72.0,144.0,480.0,0.0,0.0
2446,63.0,240.0,150.0,1.0,0.0
2447,66.0,0.0,150.0,1.0,0.0
2448,44.0,0.0,150.0,2.0,0.0
2449,63.0,0.0,150.0,1.0,0.0
2450,56.0,96.0,150.0,2.0,0.0
2451,44.0,0.0,150.0,2.0,0.0
2452,66.0,0.0,150.0,1.0,0.0
2453,73.0,144.0,480.0,0.0,0.0
2454,49.0,0.0,150.0,2.0,0.0
2455,61.0,240.0,150.0,1.0,0.0
2456,56.0,0.0,150.0,2.0,0.0
2457,65.0,0.0,150.0,1.0,0.0
2458,56.0,0.0,150.0,2.0,0.0
2459,49.0,0.0,150.0,2.0,0.0
2460,61.0,96.0,150.0,1.0,0.0
2461,65.0,0.0,150.0,1.0,0.0
2462,65.0,0.0,150.0,1.0,0.0
2463,74.0,144.0,480.0,0.0,0.0
2464,58.0,0.0,150.0,2.0,0.0
2465,46.0,240.0,150.0,2.0,0.0
2466,68.0,0.0,150.0,1.0,0.0
2467,58.0,0.0,150.0,2.0,0.0
2468,68.0,96.0,150.0,1.0,0.0
2469,65.0,0.0,150.0,1.0,0.0
2470,46.0,0.0,150.0,2.0,0.0
2471,67.0,0.0,150.0,1.0,0.0
2472,63.0,0.0,150.0,1.0,0.0
2473,75.0,144.0,480.0,0.0,0.0
2474,51.0,240.0,150.0,2.0,0.0
2475,58.0,0.0,150.0,2.0,0.0
2476,67.0,0.0,150.0,1.0,0.0
2477,58.0,96.0,150.0,2.0,0.0
2478,63.0,0.0,150.0,1.0,0.0
2479,51.0,0.0,150.0,2.0,0.0
2480,76.0,192.0,480.0,0.0,0.0
2481,70.0,0.0,150.0,1.0,0.0
2482,67.0,0.0,150.0,1.0,0.0
2483,60.0,240.0,150.0,2.0,0.0
2484,48.0,0.0,150.0,2.0,0.0
2485,48.0,96.0,150.0,2.0,0.0
2486,60.0,0.0,150.0,2.0,0.0
2487,67.0,0.0,150.0,1.0,0.0
2488,70.0,0.0,150.0,1.0,0.0
2489,56.0,0.0,180.0,12.0,0.0
2490,65.0,0.0,390.0,1.0,0.0
2491,77.0,0.0,390.0,0.0,0.0
2492,68.0,0.0,390.0,1.0,0.0
2493,49.0,0.0,180.0,13.0,0.0
2494,58.0,192.0,180.0,11.0,0.0
2495,49.0,48.0,390.0,2.0,0.0
2496,37.0,0.0,180.0,14.0,0.0
2497,77.0,144.0,1200.0,10.0,0.0
2498,61.0,0.0,390.0,2.0,0.0
2499,37.0,0.0,180.0,14.0,0.0
2500,49.0,0.0,180.0,13.0,0.0
2501,58.0,240.0,180.0,11.0,0.0
2502,56.0,0.0,180.0,12.0,0.0
2503,37.0,0.0,180.0,14.0,0.0
2504,49.0,240.0,180.0,13.0,0.0
2505,56.0,0.0,180.0,12.0,0.0
2506,58.0,0.0,180.0,11.0,0.0
2507,58.0,0.0,180.0,11.0,0.0
2508,37.0,0.0,180.0,14.0,0.0
2509,56.0,0.0,180.0,12.0,0.0
2510,49.0,240.0,180.0,13.0,0.0
2511,58.0,48.0,180.0,11.0,0.0
2512,37.0,0.0,180.0,14.0,0.0
2513,56.0,0.0,180.0,12.0,0.0
2514,49.0,0.0,180.0,13.0,0.0
2515,49.0,0.0,180.0,13.0,0.0
2516,37.0,0.0,180.0,14.0,0.0
2517,80.0,48.0,150.0,10.0,0.0
2518,56.0,0.0,180.0,12.0,0.0
2519,58.0,192.0,180.0,11.0,0.0
2520,79.0,48.0,150.0,10.0,0.0
2521,56.0,0.0,180.0,12.0,0.0
2522,49.0,0.0,180.0,13.0,0.0
2523,37.0,192.0,180.0,14.0,0.0
2524,58.0,0.0,180.0,11.0,0.0
2525,37.0,240.0,180.0,14.0,0.0
2526,77.0,48.0,150.0,10.0,0.0
2527,56.0,0.0,180.0,12.0,0.0
2528,49.0,0.0,180.0,13.0,0.0
2529,58.0,0.0,180.0,11.0,0.0
2530,39.0,48.0,180.0,14.0,0.0
2531,56.0,0.0,180.0,12.0,0.0
2532,60.0,0.0,180.0,11.0,0.0
2533,77.0,144.0,240.0,10.0,0.0
2534,51.0,0.0,180.0,13.0,0.0
2535,56.0,0.0,180.0,12.0,0.0
2536,39.0,0.0,180.0,14.0,0.0
2537,60.0,0.0,180.0,11.0,0.0
2538,51.0,192.0,180.0,13.0,0.0
2539,75.0,48.0,150.0,10.0,0.0
2540,39.0,0.0,180.0,14.0,0.0
2541,60.0,0.0,180.0,11.0,0.0
2542,56.0,0.0,180.0,12.0,0.0
2543,73.0,48.0,150.0,10.0,0.0
2544,51.0,192.0,180.0,13.0,0.0
2545,39.0,0.0,180.0,14.0,0.0
2546,60.0,0.0,180.0,11.0,0.0
2547,56.0,240.0,180.0,12.0,0.0
2548,72.0,48.0,150.0,10.0,0.0
2549,51.0,0.0,180.0,13.0,0.0
2550,58.0,0.0,180.0,12.0,0.0
2551,72.0,144.0,240.0,10.0,0.0
2552,27.0,0.0,180.0,14.0,0.0
2553,39.0,0.0,180.0,13.0,0.0
2554,61.0,48.0,180.0,11.0,0.0
2555,58.0,0.0,180.0,12.0,0.0
2556,39.0,192.0,180.0,13.0,0.0
2557,70.0,48.0,150.0,10.0,0.0
2558,61.0,0.0,180.0,11.0,0.0
2559,27.0,0.0,180.0,14.0,0.0
2560,58.0,192.0,180.0,12.0,0.0
2561,68.0,48.0,150.0,10.0,0.0
2562,39.0,0.0,180.0,13.0,0.0
2563,61.0,0.0,180.0,11.0,0.0
2564,27.0,0.0,180.0,14.0,0.0
2565,27.0,0.0,180.0,14.0,0.0
2566,39.0,0.0,180.0,13.0,0.0
2567,67.0,48.0,150.0,10.0,0.0
2568,58.0,192.0,180.0,12.0,0.0
2569,61.0,0.0,180.0,11.0,0.0
2570,68.0,0.0,390.0,10.0,0.0
2571,63.0,240.0,150.0,1.0,0.0
2572,60.0,0.0,150.0,1.0,0.0
2573,44.0,0.0,390.0,13.0,0.0
2574,32.0,0.0,390.0,14.0,0.0
2575,56.0,0.0,390.0,12.0,0.0
2576,51.0,0.0,390.0,2.0,0.0
2577,60.0,96.0,390.0,11.0,0.0
2578,68.0,144.0,480.0,0.0,0.0
2579,44.0,0.0,150.0,2.0,0.0
2580,44.0,0.0,150.0,2.0,0.0
2581,63.0,0.0,150.0,1.0,0.0
2582,60.0,0.0,150.0,1.0,0.0
2583,60.0,240.0,150.0,1.0,0.0
2584,63.0,0.0,150.0,1.0,0.0
2585,41.0,0.0,150.0,2.0,0.0
2586,53.0,0.0,150.0,2.0,0.0
2587,69.0,144.0,480.0,0.0,0.0
2588,63.0,0.0,150.0,1.0,0.0
2589,60.0,0.0,150.0,1.0,0.0
2590,41.0,0.0,150.0,2.0,0.0
2591,53.0,96.0,150.0,2.0,0.0
2592,70.0,144.0,480.0,0.0,0.0
2593,46.0,240.0,150.0,2.0,0.0
2594,53.0,0.0,150.0,2.0,0.0
2595,61.0,0.0,150.0,1.0,0.0
2596,58.0,0.0,150.0,1.0,0.0
2597,61.0,0.0,150.0,1.0,0.0
2598,58.0,0.0,150.0,1.0,0.0
2599,46.0,96.0,150.0,2.0,0.0
2600,53.0,0.0,150.0,2.0,0.0
2601,63.0,0.0,150.0,1.0,0.0
2602,66.0,0.0,150.0,1.0,0.0
2603,72.0,144.0,480.0,0.0,0.0
2604,56.0,0.0,150.0,2.0,0.0
2605,44.0,240.0,150.0,2.0,0.0
2606,66.0,0.0,150.0,1.0,0.0
2607,44.0,0.0,150.0,2.0,0.0
2608,56.0,0.0,150.0,2.0,0.0
2609,63.0,96.0,150.0,1.0,0.0
2610,73.0,144.0,480.0,0.0,0.0
2611,56.0,0.0,150.0,2.0,0.0
2612,61.0,240.0,150.0,1.0,0.0
2613,65.0,0.0,150.0,1.0,0.0
2614,49.0,0.0,150.0,2.0,0.0
2615,61.0,0.0,150.0,1.0,0.0
2616,65.0,96.0,150.0,1.0,0.0
2617,49.0,0.0,150.0,2.0,0.0
2618,56.0,0.0,150.0,2.0,0.0
2619,46.0,0.0,150.0,2.0,0.0
2620,58.0,240.0,150.0,2.0,0.0
2621,74.0,144.0,480.0,0.0,0.0
2622,68.0,0.0,150.0,1.0,0.0
2623,65.0,0.0,150.0,1.0,0.0
2624,58.0,0.0,150.0,2.0,0.0
2625,68.0,96.0,150.0,1.0,0.0
2626,65.0,0.0,150.0,1.0,0.0
2627,46.0,0.0,150.0,2.0,0.0
2628,67.0,0.0,150.0,1.0,0.0
2629,63.0,240.0,150.0,1.0,0.0
2630,75.0,144.0,480.0,0.0,0.0
2631,58.0,0.0,150.0,2.0,0.0
2632,51.0,0.0,150.0,2.0,0.0
2633,63.0,0.0,150.0,1.0,0.0
2634,51.0,0.0,150.0,2.0,0.0
2635,58.0,96.0,150.0,2.0,0.0
2636,67.0,0.0,150.0,1.0,0.0
2637,70.0,0.0,150.0,1.0,0.0
2638,48.0,240.0,150.0,2.0,0.0
2639,60.0,0.0,150.0,2.0,0.0
2640,67.0,0.0,150.0,1.0,0.0
2641,76.0,192.0,480.0,0.0,0.0
2642,48.0,0.0,150.0,2.0,0.0
2643,60.0,0.0,150.0,2.0,0.0
2644,70.0,96.0,150.0,1.0,0.0
2645,67.0,0.0,150.0,1.0,0.0
2646,68.0,0.0,390.0,1.0,0.0
2647,77.0,48.0,390.0,0.0,0.0
2648,65.0,0.0,390.0,1.0,0.0
2649,56.0,0.0,180.0,12.0,0.0
2650,49.0,192.0,180.0,13.0,0.0
2651,49.0,0.0,390.0,2.0,0.0
2652,58.0,0.0,180.0,11.0,0.0
2653,37.0,0.0,180.0,14.0,0.0
2654,77.0,144.0,1200.0,10.0,0.0
2655,61.0,0.0,390.0,2.0,0.0
2656,49.0,0.0,180.0,13.0,0.0
2657,56.0,0.0,180.0,12.0,0.0
2658,37.0,240.0,180.0,14.0,0.0
2659,58.0,0.0,180.0,11.0,0.0
2660,49.0,0.0,180.0,13.0,0.0
2661,56.0,0.0,180.0,12.0,0.0
2662,58.0,0.0,180.0,11.0,0.0
2663,37.0,240.0,180.0,14.0,0.0
2664,37.0,0.0,180.0,14.0,0.0
2665,56.0,0.0,180.0,12.0,0.0
2666,49.0,240.0,180.0,13.0,0.0
2667,58.0,0.0,180.0,11.0,0.0
2668,49.0,0.0,180.0,13.0,0.0
2669,58.0,48.0,180.0,11.0,0.0
2670,56.0,0.0,180.0,12.0,0.0
2671,37.0,0.0,180.0,14.0,0.0
2672,37.0,0.0,180.0,14.0,0.0
2673,49.0,192.0,180.0,13.0,0.0
2674,58.0,0.0,180.0,11.0,0.0
2675,80.0,48.0,150.0,10.0,0.0
2676,56.0,0.0,180.0,12.0,0.0
2677,37.0,192.0,180.0,14.0,0.0
2678,58.0,0.0,180.0,11.0,0.0
2679,56.0,0.0,180.0,12.0,0.0
2680,79.0,48.0,150.0,10.0,0.0
2681,49.0,0.0,180.0,13.0,0.0
2682,49.0,0.0,180.0,13.0,0.0
2683,56.0,0.0,180.0,12.0,0.0
2684,58.0,0.0,180.0,11.0,0.0
2685,37.0,240.0,180.0,14.0,0.0
2686,77.0,48.0,150.0,10.0,0.0
2687,56.0,48.0,180.0,12.0,0.0
2688,39.0,0.0,180.0,14.0,0.0
2689,77.0,144.0,240.0,10.0,0.0
2690,51.0,0.0,180.0,13.0,0.0
2691,60.0,0.0,180.0,11.0,0.0
2692,39.0,0.0,180.0,14.0,0.0
2693,60.0,0.0,180.0,11.0,0.0
2694,75.0,48.0,150.0,10.0,0.0
2695,56.0,0.0,180.0,12.0,0.0
2696,51.0,192.0,180.0,13.0,0.0
2697,73.0,48.0,150.0,10.0,0.0
2698,56.0,0.0,180.0,12.0,0.0
2699,60.0,0.0,180.0,11.0,0.0
2700,39.0,192.0,180.0,14.0,0.0
2701,51.0,0.0,180.0,13.0,0.0
2702,51.0,0.0,180.0,13.0,0.0
2703,56.0,0.0,180.0,12.0,0.0
2704,72.0,48.0,150.0,10.0,0.0
2705,39.0,0.0,180.0,14.0,0.0
2706,60.0,240.0,180.0,11.0,0.0
2707,40.0,0.0,180.0,14.0,0.0
2708,72.0,144.0,240.0,10.0,0.0
2709,61.0,48.0,180.0,11.0,0.0
2710,52.0,0.0,180.0,13.0,0.0
2711,55.0,0.0,180.0,12.0,0.0
2712,40.0,48.0,180.0,14.0,0.0
2713,52.0,0.0,180.0,13.0,0.0
2714,61.0,0.0,180.0,11.0,0.0
2715,70.0,48.0,150.0,10.0,0.0
2716,55.0,144.0,240.0,12.0,0.0
2717,52.0,0.0,180.0,13.0,0.0
2718,68.0,48.0,150.0,10.0,0.0
2719,40.0,48.0,180.0,14.0,0.0
2720,61.0,0.0,180.0,11.0,0.0
2721,56.0,144.0,240.0,12.0,0.0
2722,61.0,0.0,180.0,11.0,0.0
2723,52.0,48.0,180.0,13.0,0.0
2724,67.0,48.0,150.0,10.0,0.0
2725,58.0,192.0,240.0,12.0,0.0
2726,40.0,0.0,180.0,14.0,0.0
2727,70.0,144.0,240.0,10.0,0.0
2728,53.0,0.0,180.0,13.0,0.0
2729,41.0,48.0,180.0,14.0,0.0
2730,60.0,0.0,180.0,11.0,0.0
2731,56.0,0.0,180.0,12.0,0.0
2732,60.0,0.0,180.0,11.0,0.0
2733,53.0,0.0,180.0,13.0,0.0
2734,41.0,0.0,180.0,14.0,0.0
2735,68.0,48.0,150.0,10.0,0.0
2736,56.0,192.0,180.0,12.0,0.0
2737,56.0,0.0,180.0,12.0,0.0
2738,53.0,192.0,180.0,13.0,0.0
2739,68.0,48.0,150.0,10.0,0.0
2740,60.0,0.0,180.0,11.0,0.0
2741,41.0,0.0,180.0,14.0,0.0
2742,41.0,240.0,180.0,14.0,0.0
2743,53.0,0.0,180.0,13.0,0.0
2744,68.0,48.0,150.0,10.0,0.0
2745,60.0,0.0,180.0,11.0,0.0
2746,56.0,0.0,180.0,12.0,0.0
2747,80.0,0.0,720.0,10.0,0.0
2748,62.0,0.0,180.0,11.0,0.0
2749,52.0,0.0,180.0,13.0,0.0
2750,59.0,0.0,180.0,12.0,0.0
2751,40.0,240.0,180.0,14.0,0.0
2752,40.0,0.0,180.0,14.0,0.0
2753,59.0,0.0,180.0,12.0,0.0
2754,52.0,0.0,180.0,13.0,0.0
2755,62.0,240.0,180.0,11.0,0.0
2756,40.0,0.0,180.0,14.0,0.0
2757,52.0,48.0,180.0,13.0,0.0
2758,62.0,192.0,240.0,11.0,0.0
2759,59.0,0.0,240.0,12.0,0.0
2760,56.0,0.0,180.0,12.0,0.0
2761,74.0,204.0,240.0,10.0,0.0
2762,52.0,36.0,180.0,13.0,0.0
2763,71.0,0.0,180.0,11.0,0.0
2764,40.0,0.0,180.0,14.0,0.0
2765,75.0,192.0,720.0,10.0,0.0
2766,72.0,0.0,180.0,11.0,0.0
2767,56.0,0.0,180.0,12.0,0.0
2768,39.0,0.0,180.0,14.0,0.0
2769,51.0,240.0,180.0,13.0,0.0
2770,39.0,0.0,180.0,14.0,0.0
2771,56.0,0.0,180.0,12.0,0.0
2772,72.0,240.0,180.0,11.0,0.0
2773,51.0,0.0,180.0,13.0,0.0
2774,51.0,0.0,180.0,13.0,0.0
2775,72.0,0.0,180.0,11.0,0.0
2776,56.0,0.0,180.0,12.0,0.0
2777,39.0,48.0,180.0,14.0,0.0
2778,68.0,204.0,240.0,10.0,0.0
2779,51.0,36.0,180.0,13.0,0.0
2780,60.0,0.0,180.0,11.0,0.0
2781,56.0,0.0,180.0,12.0,0.0
2782,39.0,0.0,180.0,14.0,0.0
2783,38.0,240.0,180.0,14.0,0.0
2784,50.0,0.0,180.0,13.0,0.0
2785,72.0,192.0,480.0,10.0,0.0
2786,56.0,0.0,180.0,12.0,0.0
2787,65.0,0.0,180.0,11.0,0.0
2788,65.0,0.0,180.0,11.0,0.0
2789,50.0,0.0,180.0,13.0,0.0
2790,56.0,48.0,180.0,12.0,0.0
2791,38.0,0.0,180.0,14.0,0.0
2792,70.0,216.0,450.0,10.0,0.0
2793,38.0,240.0,180.0,14.0,0.0
2794,65.0,0.0,180.0,11.0,0.0
2795,50.0,0.0,180.0,13.0,0.0
2796,56.0,0.0,180.0,12.0,0.0
2797,50.0,0.0,180.0,13.0,0.0
2798,56.0,0.0,180.0,12.0,0.0
2799,65.0,24.0,180.0,11.0,0.0
2800,38.0,0.0,180.0,14.0,0.0
2801,58.0,0.0,180.0,11.0,0.0
2802,37.0,0.0,180.0,14.0,0.0
2803,49.0,0.0,180.0,13.0,0.0
2804,70.0,144.0,960.0,1.0,0.0
2805,77.0,48.0,1110.0,10.0,0.0
2806,68.0,0.0,2880.0,1.0,0.0
2807,56.0,240.0,180.0,12.0,0.0
2808,56.0,0.0,180.0,12.0,0.0
2809,49.0,0.0,180.0,13.0,0.0
2810,58.0,0.0,180.0,11.0,0.0
2811,37.0,240.0,180.0,14.0,0.0
2812,56.0,0.0,180.0,12.0,0.0
2813,49.0,240.0,180.0,13.0,0.0
2814,58.0,0.0,180.0,11.0,0.0
2815,37.0,0.0,180.0,14.0,0.0
2816,49.0,0.0,180.0,13.0,0.0
2817,56.0,0.0,180.0,12.0,0.0
2818,37.0,48.0,180.0,14.0,0.0
2819,58.0,0.0,180.0,11.0,0.0
2820,50.0,0.0,180.0,13.0,0.0
2821,71.0,120.0,960.0,1.0,0.0
2822,56.0,0.0,180.0,12.0,0.0
2823,59.0,0.0,180.0,11.0,0.0
2824,38.0,192.0,180.0,14.0,0.0
2825,77.0,48.0,150.0,10.0,0.0
2826,59.0,192.0,180.0,11.0,0.0
2827,38.0,0.0,180.0,14.0,0.0
2828,56.0,0.0,180.0,12.0,0.0
2829,50.0,0.0,180.0,13.0,0.0
2830,59.0,192.0,180.0,11.0,0.0
2831,56.0,0.0,180.0,12.0,0.0
2832,38.0,0.0,180.0,14.0,0.0
2833,79.0,48.0,150.0,10.0,0.0
2834,50.0,0.0,180.0,13.0,0.0
2835,59.0,0.0,180.0,11.0,0.0
2836,38.0,48.0,180.0,14.0,0.0
2837,80.0,48.0,150.0,10.0,0.0
2838,50.0,0.0,180.0,13.0,0.0
2839,56.0,0.0,180.0,12.0,0.0
2840,51.0,0.0,180.0,13.0,0.0
2841,56.0,0.0,180.0,12.0,0.0
2842,75.0,60.0,960.0,0.0,0.0
2843,60.0,240.0,180.0,11.0,0.0
2844,80.0,72.0,120.0,10.0,0.0
2845,72.0,0.0,960.0,1.0,0.0
2846,39.0,0.0,180.0,14.0,0.0
2847,68.0,42.0,810.0,10.0,0.0
2848,51.0,0.0,180.0,13.0,0.0
2849,56.0,0.0,180.0,12.0,0.0
2850,39.0,0.0,180.0,14.0,0.0
2851,60.0,240.0,180.0,11.0,0.0
2852,56.0,0.0,180.0,12.0,0.0
2853,60.0,0.0,180.0,11.0,0.0
2854,39.0,240.0,180.0,14.0,0.0
2855,51.0,0.0,180.0,13.0,0.0
2856,51.0,0.0,180.0,13.0,0.0
2857,60.0,0.0,180.0,11.0,0.0
2858,39.0,6.0,180.0,14.0,0.0
2859,56.0,0.0,180.0,12.0,0.0
2860,55.0,0.0,180.0,12.0,0.0
2861,72.0,60.0,60.0,10.0,0.0
2862,70.0,0.0,960.0,1.0,0.0
2863,27.0,0.0,180.0,14.0,0.0
2864,61.0,0.0,180.0,11.0,0.0
2865,73.0,0.0,960.0,1.0,0.0
2866,39.0,48.0,180.0,13.0,0.0
2867,80.0,0.0,60.0,0.0,0.0
2868,79.0,0.0,60.0,0.0,0.0
2869,70.0,60.0,60.0,10.0,0.0
2870,72.0,12.0,60.0,10.0,0.0
2871,80.0,0.0,60.0,0.0,0.0
2872,79.0,60.0,60.0,0.0,0.0
2873,70.0,0.0,60.0,10.0,0.0
2874,72.0,0.0,60.0,10.0,0.0
2875,80.0,60.0,60.0,0.0,0.0
2876,55.0,0.0,180.0,12.0,0.0
2877,27.0,0.0,180.0,14.0,0.0
2878,39.0,48.0,180.0,13.0,0.0
2879,61.0,0.0,180.0,11.0,0.0
2880,79.0,60.0,60.0,0.0,0.0
2881,70.0,0.0,60.0,10.0,0.0
2882,72.0,0.0,60.0,10.0,0.0
2883,80.0,12.0,60.0,0.0,0.0
2884,79.0,0.0,60.0,0.0,0.0
2885,70.0,60.0,60.0,10.0,0.0
2886,61.0,0.0,180.0,11.0,0.0
2887,80.0,60.0,60.0,0.0,0.0
2888,72.0,0.0,60.0,10.0,0.0
2889,55.0,0.0,180.0,12.0,0.0
2890,27.0,0.0,180.0,14.0,0.0
2891,39.0,48.0,180.0,13.0,0.0
2892,70.0,0.0,60.0,10.0,0.0
2893,79.0,60.0,60.0,0.0,0.0
2894,80.0,12.0,60.0,0.0,0.0
2895,72.0,0.0,60.0,10.0,0.0
2896,79.0,120.0,60.0,0.0,0.0
2897,70.0,0.0,60.0,10.0,0.0
2898,55.0,0.0,180.0,12.0,0.0
2899,68.0,72.0,120.0,10.0,0.0
2900,61.0,0.0,180.0,11.0,0.0
2901,77.0,0.0,120.0,0.0,0.0
2902,27.0,0.0,180.0,14.0,0.0
2903,39.0,48.0,180.0,13.0,0.0
2904,70.0,0.0,120.0,10.0,0.0
2905,79.0,192.0,120.0,0.0,0.0
2906,68.0,0.0,180.0,4.0,0.0
2907,44.0,0.0,180.0,3.0,0.0
2908,60.0,288.0,390.0,11.0,0.0
2909,44.0,0.0,390.0,13.0,0.0
2910,68.0,192.0,180.0,1.0,0.0
2911,72.0,0.0,180.0,1.0,0.0
2912,56.0,0.0,180.0,4.0,0.0
2913,68.0,0.0,390.0,10.0,0.0
2914,32.0,0.0,390.0,14.0,0.0
2915,56.0,0.0,390.0,12.0,0.0
2916,56.0,0.0,180.0,3.0,0.0
2917,80.0,0.0,180.0,0.0,0.0
2918,63.0,0.0,180.0,4.0,0.0
2919,51.0,0.0,180.0,4.0,0.0
2920,39.0,480.0,180.0,3.0,0.0
2921,75.0,0.0,180.0,0.0,0.0
2922,51.0,0.0,180.0,3.0,0.0
2923,63.0,0.0,180.0,1.0,0.0
2924,56.0,0.0,180.0,4.0,0.0
2925,68.0,0.0,180.0,1.0,0.0
2926,68.0,0.0,180.0,4.0,0.0
2927,80.0,0.0,180.0,0.0,0.0
2928,56.0,480.0,180.0,3.0,0.0
2929,44.0,0.0,180.0,3.0,0.0
2930,48.0,480.0,180.0,3.0,0.0
2931,60.0,0.0,180.0,3.0,0.0
2932,72.0,0.0,180.0,4.0,0.0
2933,84.0,0.0,180.0,0.0,0.0
2934,60.0,0.0,180.0,4.0,0.0
2935,72.0,0.0,180.0,1.0,0.0
2936,68.0,0.0,180.0,10.0,0.0
2937,44.0,0.0,180.0,14.0,0.0
2938,75.0,0.0,390.0,4.0,0.0
2939,56.0,0.0,180.0,13.0,0.0
2940,75.0,288.0,390.0,1.0,0.0
2941,63.0,0.0,390.0,3.0,0.0
2942,87.0,0.0,1830.0,0.0,0.0
2943,44.0,0.0,180.0,5.0,0.0
2944,63.0,0.0,390.0,4.0,0.0
2945,68.0,0.0,180.0,11.0,0.0
2946,56.0,0.0,180.0,12.0,0.0
2947,51.0,0.0,390.0,3.0,0.0
2948,56.0,192.0,180.0,2.0,0.0
2949,51.0,96.0,180.0,2.0,0.0
2950,75.0,168.0,300.0,1.0,0.0
2951,63.0,0.0,180.0,10.0,0.0
2952,51.0,0.0,300.0,3.0,0.0
2953,63.0,0.0,300.0,3.0,0.0
2954,51.0,0.0,180.0,13.0,0.0
2955,39.0,0.0,180.0,14.0,0.0
2956,75.0,0.0,300.0,4.0,0.0
2957,51.0,0.0,180.0,12.0,0.0
2958,63.0,0.0,180.0,11.0,0.0
2959,39.0,0.0,180.0,5.0,0.0
2960,63.0,0.0,300.0,4.0,0.0
2961,75.0,0.0,90.0,1.0,0.0
2962,63.0,0.0,90.0,4.0,0.0
2963,75.0,0.0,90.0,4.0,0.0
2964,51.0,216.0,90.0,3.0,0.0
2965,63.0,0.0,90.0,3.0,0.0
2966,44.0,0.0,180.0,14.0,0.0
2967,68.0,0.0,180.0,11.0,0.0
2968,56.0,192.0,180.0,2.0,0.0
2969,56.0,0.0,180.0,13.0,0.0
2970,68.0,0.0,180.0,10.0,0.0
2971,75.0,0.0,390.0,4.0,0.0
2972,63.0,0.0,390.0,4.0,0.0
2973,44.0,0.0,180.0,5.0,0.0
2974,75.0,288.0,390.0,1.0,0.0
2975,56.0,0.0,180.0,12.0,0.0
2976,63.0,0.0,390.0,3.0,0.0
2977,51.0,0.0,390.0,3.0,0.0
2978,72.0,0.0,180.0,11.0,0.0
2979,60.0,0.0,180.0,12.0,0.0
2980,60.0,0.0,180.0,13.0,0.0
2981,75.0,0.0,390.0,1.0,0.0
2982,48.0,0.0,180.0,14.0,0.0
2983,63.0,0.0,390.0,3.0,0.0
2984,51.0,480.0,390.0,3.0,0.0
2985,44.0,192.0,180.0,5.0,0.0
2986,72.0,0.0,180.0,10.0,0.0
2987,75.0,0.0,390.0,4.0,0.0
2988,63.0,0.0,390.0,4.0,0.0
2989,60.0,0.0,180.0,2.0,0.0
2990,63.0,24.0,900.0,4.0,0.0
2991,75.0,0.0,900.0,4.0,0.0
2992,61.0,0.0,690.0,2.0,0.0
2993,73.0,0.0,690.0,1.0,0.0
2994,85.0,0.0,690.0,0.0,0.0
2995,39.0,300.0,390.0,5.0,0.0
2996,49.0,0.0,690.0,14.0,0.0
2997,61.0,0.0,690.0,12.0,0.0
2998,63.0,0.0,900.0,3.0,0.0
2999,61.0,0.0,690.0,13.0,0.0
3000,51.0,0.0,900.0,3.0,0.0
3001,73.0,84.0,690.0,11.0,0.0
3002,73.0,0.0,690.0,10.0,0.0
3003,39.0,72.0,300.0,5.0,0.0
3004,58.0,72.0,120.0,2.0,0.0
3005,58.0,0.0,120.0,12.0,0.0
3006,58.0,0.0,120.0,13.0,0.0
3007,70.0,0.0,120.0,11.0,0.0
3008,82.0,0.0,120.0,0.0,0.0
3009,82.0,0.0,120.0,1.0,0.0
3010,70.0,0.0,120.0,1.0,0.0
3011,46.0,0.0,120.0,14.0,0.0
3012,70.0,0.0,120.0,10.0,0.0
3013,55.0,0.0,90.0,13.0,0.0
3014,55.0,0.0,90.0,12.0,0.0
3015,67.0,408.0,90.0,11.0,0.0
3016,79.0,0.0,90.0,0.0,0.0
3017,43.0,0.0,90.0,14.0,0.0
3018,39.0,0.0,90.0,5.0,0.0
3019,67.0,0.0,90.0,1.0,0.0
3020,79.0,0.0,90.0,1.0,0.0
3021,67.0,0.0,90.0,10.0,0.0
3022,55.0,0.0,90.0,2.0,0.0
3023,80.0,0.0,690.0,0.0,0.0
3024,44.0,300.0,390.0,5.0,0.0
3025,44.0,0.0,900.0,3.0,0.0
3026,68.0,0.0,690.0,1.0,0.0
3027,80.0,0.0,690.0,1.0,0.0
3028,56.0,0.0,690.0,12.0,0.0
3029,44.0,0.0,690.0,14.0,0.0
3030,68.0,0.0,900.0,4.0,0.0
3031,56.0,24.0,900.0,3.0,0.0
3032,68.0,0.0,690.0,11.0,0.0
3033,56.0,0.0,900.0,4.0,0.0
3034,56.0,0.0,690.0,13.0,0.0
3035,56.0,0.0,690.0,2.0,0.0
3036,68.0,84.0,690.0,10.0,0.0
3037,44.0,72.0,300.0,5.0,0.0
3038,65.0,0.0,120.0,10.0,0.0
3039,77.0,0.0,120.0,1.0,0.0
3040,77.0,0.0,120.0,0.0,0.0
3041,65.0,0.0,120.0,1.0,0.0
3042,41.0,0.0,120.0,14.0,0.0
3043,53.0,0.0,120.0,12.0,0.0
3044,53.0,72.0,120.0,2.0,0.0
3045,65.0,0.0,120.0,11.0,0.0
3046,53.0,0.0,120.0,13.0,0.0
3047,50.0,0.0,90.0,12.0,0.0
3048,38.0,0.0,90.0,14.0,0.0
3049,62.0,0.0,90.0,11.0,0.0
3050,62.0,0.0,90.0,10.0,0.0
3051,74.0,0.0,90.0,1.0,0.0
3052,44.0,408.0,90.0,5.0,0.0
3053,50.0,0.0,90.0,2.0,0.0
3054,74.0,0.0,90.0,0.0,0.0
3055,62.0,0.0,90.0,1.0,0.0
3056,50.0,0.0,90.0,13.0,0.0
3057,56.0,0.0,390.0,3.0,0.0
3058,60.0,0.0,390.0,3.0,0.0
3059,63.0,0.0,390.0,10.0,0.0
3060,75.0,0.0,390.0,0.0,0.0
3061,51.0,0.0,390.0,13.0,0.0
3062,72.0,0.0,390.0,4.0,0.0
3063,39.0,0.0,390.0,5.0,0.0
3064,39.0,0.0,390.0,14.0,0.0
3065,51.0,0.0,390.0,12.0,0.0
3066,68.0,0.0,390.0,4.0,0.0
3067,51.0,0.0,390.0,2.0,0.0
3068,75.0,0.0,390.0,1.0,0.0
3069,63.0,384.0,390.0,11.0,0.0
3070,63.0,0.0,390.0,1.0,0.0
3071,68.0,0.0,300.0,4.0,0.0
3072,80.0,0.0,390.0,1.0,0.0
3073,56.0,0.0,300.0,3.0,0.0
3074,60.0,72.0,300.0,3.0,0.0
3075,80.0,0.0,360.0,10.0,0.0
3076,84.0,0.0,390.0,0.0,0.0
3077,72.0,0.0,360.0,10.0,0.0
3078,68.0,0.0,360.0,11.0,0.0
3079,72.0,0.0,360.0,11.0,0.0
3080,63.0,24.0,360.0,12.0,0.0
3081,72.0,72.0,390.0,1.0,0.0
3082,72.0,0.0,300.0,4.0,0.0
3083,72.0,0.0,90.0,4.0,0.0
3084,68.0,0.0,90.0,4.0,0.0
3085,56.0,408.0,90.0,3.0,0.0
3086,60.0,0.0,90.0,3.0,0.0
3087,27.0,0.0,390.0,14.0,0.0
3088,39.0,0.0,390.0,2.0,0.0
3089,39.0,0.0,390.0,5.0,0.0
3090,51.0,0.0,390.0,3.0,0.0
3091,58.0,0.0,390.0,3.0,0.0
3092,70.0,0.0,390.0,4.0,0.0
3093,39.0,0.0,390.0,13.0,0.0
3094,63.0,456.0,390.0,4.0,0.0
3095,70.0,480.0,390.0,4.0,0.0
3096,63.0,0.0,390.0,4.0,0.0
3097,70.0,0.0,360.0,10.0,0.0
3098,79.0,24.0,360.0,10.0,0.0
3099,51.0,0.0,390.0,3.0,0.0
3100,70.0,0.0,390.0,1.0,0.0
3101,82.0,0.0,390.0,0.0,0.0
3102,58.0,0.0,390.0,3.0,0.0
3103,79.0,0.0,390.0,1.0,0.0
3104,67.0,0.0,360.0,11.0,0.0
3105,63.0,0.0,360.0,12.0,0.0
3106,75.0,0.0,360.0,11.0,0.0
3107,44.0,0.0,390.0,5.0,0.0
3108,72.0,0.0,390.0,10.0,0.0
3109,80.0,0.0,390.0,10.0,0.0
3110,68.0,0.0,390.0,4.0,0.0
3111,60.0,0.0,390.0,4.0,0.0
3112,80.0,0.0,390.0,0.0,0.0
3113,80.0,0.0,390.0,1.0,0.0
3114,63.0,0.0,390.0,12.0,0.0
3115,48.0,0.0,390.0,3.0,0.0
3116,68.0,0.0,390.0,11.0,0.0
3117,72.0,0.0,390.0,11.0,0.0
3118,56.0,0.0,390.0,3.0,0.0
3119,44.0,0.0,390.0,13.0,0.0
3120,32.0,576.0,390.0,14.0,0.0
3121,44.0,0.0,390.0,2.0,0.0
3122,75.0,240.0,240.0,1.0,0.0
3123,74.0,240.0,240.0,1.0,0.0
3124,75.0,240.0,240.0,1.0,0.0
3125,77.0,240.0,240.0,1.0,0.0
3126,75.0,384.0,240.0,1.0,0.0
3127,80.0,1056.0,390.0,1.0,0.0
3128,72.0,480.0,960.0,1.0,0.0
3129,65.0,0.0,960.0,11.0,0.0
3130,68.0,0.0,960.0,10.0,0.0
3131,58.0,384.0,960.0,12.0,0.0
3132,74.0,0.0,480.0,1.0,0.0
3133,63.0,0.0,390.0,11.0,0.0
3134,67.0,576.0,390.0,10.0,0.0
3135,51.0,0.0,390.0,12.0,0.0
3136,75.0,0.0,390.0,1.0,0.0
3137,51.0,240.0,240.0,2.0,0.0
3138,50.0,240.0,240.0,2.0,0.0
3139,51.0,240.0,240.0,2.0,0.0
3140,53.0,240.0,240.0,2.0,0.0
3141,51.0,240.0,240.0,2.0,0.0
3142,56.0,0.0,1920.0,11.0,0.0
3143,48.0,480.0,960.0,12.0,0.0
3144,56.0,80.0,240.0,2.0,0.0
3145,41.0,0.0,1920.0,13.0,0.0
3146,29.0,0.0,1920.0,14.0,0.0
3147,58.0,80.0,90.0,2.0,0.0
3148,56.0,80.0,90.0,2.0,0.0
3149,55.0,144.0,90.0,2.0,0.0
3150,56.0,240.0,150.0,2.0,0.0
3151,58.0,96.0,150.0,2.0,0.0
3152,60.0,480.0,480.0,2.0,0.0
3153,44.0,0.0,960.0,12.0,0.0
3154,62.0,384.0,480.0,2.0,0.0
3155,27.0,0.0,390.0,14.0,0.0
3156,39.0,576.0,390.0,13.0,0.0
3157,46.0,0.0,390.0,12.0,0.0
3158,63.0,0.0,390.0,2.0,0.0
3159,55.0,0.0,390.0,11.0,0.0
3160,75.0,240.0,240.0,0.0,0.0
3161,74.0,240.0,240.0,0.0,0.0
3162,75.0,240.0,240.0,0.0,0.0
3163,77.0,240.0,240.0,0.0,0.0
3164,79.0,480.0,240.0,0.0,0.0
3165,40.0,0.0,1920.0,14.0,0.0
3166,52.0,0.0,1920.0,13.0,0.0
3167,56.0,0.0,480.0,12.0,0.0
3168,71.0,480.0,480.0,10.0,0.0
3169,80.0,0.0,480.0,0.0,0.0
3170,59.0,0.0,480.0,11.0,0.0
3171,61.0,480.0,480.0,12.0,0.0
3172,67.0,0.0,480.0,10.0,0.0
3173,82.0,0.0,480.0,0.0,0.0
3174,55.0,0.0,480.0,11.0,0.0
3175,83.0,480.0,480.0,0.0,0.0
3176,56.0,0.0,960.0,11.0,0.0
3177,68.0,120.0,960.0,10.0,0.0
3178,59.0,0.0,480.0,12.0,0.0
3179,86.0,0.0,480.0,0.0,0.0
3180,56.0,0.0,480.0,12.0,0.0
3181,87.0,0.0,390.0,0.0,0.0
3182,39.0,0.0,390.0,8.0,0.0
3183,39.0,0.0,390.0,14.0,0.0
3184,51.0,0.0,390.0,8.0,0.0
3185,63.0,0.0,390.0,12.0,0.0
3186,67.0,96.0,390.0,10.0,0.0
3187,58.0,0.0,390.0,11.0,0.0
3188,51.0,0.0,390.0,13.0,0.0
3189,63.0,120.0,120.0,6.0,0.0
3190,65.0,120.0,120.0,6.0,0.0
3191,63.0,24.0,120.0,6.0,0.0
3192,62.0,120.0,120.0,6.0,0.0
3193,63.0,120.0,120.0,6.0,0.0
3194,58.0,120.0,120.0,6.0,0.0
3195,67.0,120.0,120.0,6.0,0.0
3196,65.0,432.0,120.0,6.0,0.0
3197,63.0,192.0,480.0,6.0,0.0
3198,55.0,0.0,180.0,11.0,0.0
3199,63.0,0.0,180.0,10.0,0.0
3200,58.0,0.0,180.0,12.0,0.0
3201,39.0,0.0,180.0,14.0,0.0
3202,51.0,48.0,180.0,13.0,0.0
3203,55.0,0.0,180.0,11.0,0.0
3204,58.0,0.0,180.0,12.0,0.0
3205,39.0,240.0,180.0,14.0,0.0
3206,51.0,0.0,180.0,13.0,0.0
3207,63.0,0.0,180.0,10.0,0.0
3208,63.0,0.0,180.0,10.0,0.0
3209,55.0,168.0,180.0,11.0,0.0
3210,51.0,0.0,180.0,13.0,0.0
3211,39.0,0.0,180.0,14.0,0.0
3212,58.0,0.0,180.0,12.0,0.0
3213,39.0,0.0,390.0,14.0,0.0
3214,51.0,0.0,390.0,8.0,0.0
3215,58.0,0.0,390.0,12.0,0.0
3216,51.0,96.0,390.0,13.0,0.0
3217,55.0,0.0,390.0,11.0,0.0
3218,39.0,0.0,390.0,8.0,0.0
3219,67.0,120.0,120.0,6.0,0.0
3220,63.0,0.0,390.0,10.0,0.0
3221,68.0,120.0,120.0,6.0,0.0
3222,67.0,24.0,120.0,6.0,0.0
3223,65.0,120.0,120.0,6.0,0.0
3224,67.0,120.0,120.0,6.0,0.0
3225,63.0,120.0,120.0,6.0,0.0
3226,70.0,120.0,120.0,6.0,0.0
3227,68.0,384.0,120.0,6.0,0.0
3228,67.0,48.0,390.0,6.0,0.0
3229,67.0,0.0,180.0,10.0,0.0
3230,63.0,0.0,180.0,12.0,0.0
3231,58.0,0.0,180.0,11.0,0.0
3232,39.0,0.0,180.0,14.0,0.0
3233,51.0,240.0,180.0,13.0,0.0
3234,58.0,0.0,180.0,11.0,0.0
3235,67.0,0.0,180.0,10.0,0.0
3236,39.0,240.0,180.0,14.0,0.0
3237,51.0,0.0,180.0,13.0,0.0
3238,63.0,0.0,180.0,12.0,0.0
3239,63.0,0.0,180.0,12.0,0.0
3240,67.0,0.0,180.0,10.0,0.0
3241,39.0,0.0,180.0,14.0,0.0
3242,58.0,0.0,180.0,11.0,0.0
3243,51.0,168.0,180.0,13.0,0.0
3244,58.0,0.0,390.0,11.0,0.0
3245,67.0,0.0,390.0,10.0,0.0
3246,70.0,0.0,960.0,0.0,0.0
3247,70.0,120.0,120.0,6.0,0.0
3248,51.0,0.0,6150.0,4.0,0.0
3249,63.0,1536.0,6150.0,4.0,0.0
3250,51.0,0.0,390.0,13.0,0.0
3251,61.0,0.0,6150.0,2.0,0.0
3252,39.0,0.0,6150.0,3.0,0.0
3253,58.0,0.0,6150.0,3.0,0.0
3254,67.0,0.0,6150.0,1.0,0.0
3255,70.0,0.0,6150.0,1.0,0.0
3256,39.0,96.0,390.0,14.0,0.0
3257,63.0,0.0,390.0,12.0,0.0
3258,55.0,0.0,6150.0,2.0,0.0
3259,72.0,120.0,120.0,6.0,0.0
3260,70.0,24.0,120.0,6.0,0.0
3261,69.0,120.0,120.0,6.0,0.0
3262,70.0,120.0,120.0,6.0,0.0
3263,67.0,120.0,120.0,6.0,0.0
3264,73.0,120.0,120.0,6.0,0.0
3265,72.0,120.0,120.0,6.0,0.0
3266,73.0,120.0,120.0,6.0,0.0
3267,73.0,0.0,960.0,0.0,0.0
3268,75.0,120.0,120.0,6.0,0.0
3269,73.0,120.0,120.0,6.0,0.0
3270,72.0,120.0,120.0,6.0,0.0
3271,73.0,120.0,120.0,6.0,0.0
3272,70.0,120.0,120.0,6.0,0.0
3273,79.0,120.0,120.0,6.0,0.0
3274,77.0,120.0,120.0,6.0,0.0
3275,79.0,0.0,960.0,0.0,0.0
3276,79.0,120.0,120.0,6.0,0.0
3277,80.0,120.0,120.0,6.0,0.0
3278,79.0,120.0,120.0,6.0,0.0
3279,77.0,120.0,120.0,6.0,0.0
3280,79.0,120.0,120.0,6.0,0.0
3281,75.0,120.0,120.0,6.0,0.0
3282,82.0,120.0,120.0,6.0,0.0
3283,81.0,120.0,120.0,6.0,0.0
3284,82.0,120.0,960.0,0.0,0.0
3285,82.0,120.0,120.0,6.0,0.0
3286,84.0,120.0,120.0,6.0,0.0
3287,82.0,120.0,120.0,6.0,0.0
3288,81.0,120.0,120.0,6.0,0.0
3289,82.0,120.0,120.0,6.0,0.0
3290,79.0,120.0,120.0,6.0,0.0
3291,85.0,120.0,120.0,6.0,0.0
3292,84.0,0.0,120.0,6.0,0.0
3293,85.0,120.0,120.0,6.0,0.0
3294,51.0,0.0,960.0,8.0,0.0
3295,55.0,0.0,960.0,8.0,0.0
3296,85.0,0.0,480.0,0.0,0.0
3297,58.0,0.0,960.0,8.0,0.0
3298,82.0,120.0,120.0,6.0,0.0
3299,79.0,120.0,120.0,6.0,0.0
3300,82.0,120.0,120.0,6.0,0.0
3301,85.0,120.0,120.0,6.0,0.0
3302,82.0,120.0,480.0,0.0,0.0
3303,82.0,120.0,120.0,6.0,0.0
3304,85.0,120.0,120.0,6.0,0.0
3305,82.0,0.0,120.0,6.0,0.0
3306,58.0,0.0,960.0,8.0,0.0
3307,51.0,0.0,960.0,8.0,0.0
3308,55.0,384.0,960.0,8.0,0.0
3309,85.0,120.0,120.0,6.0,0.0
3310,79.0,120.0,480.0,0.0,0.0
3311,82.0,120.0,120.0,6.0,0.0
3312,79.0,120.0,120.0,6.0,0.0
3313,82.0,0.0,120.0,6.0,0.0
3314,75.0,0.0,480.0,0.0,0.0
3315,85.0,120.0,120.0,6.0,0.0
3316,82.0,120.0,120.0,6.0,0.0
3317,85.0,120.0,120.0,6.0,0.0
3318,82.0,0.0,120.0,6.0,0.0
3319,73.0,0.0,390.0,0.0,0.0
3320,85.0,0.0,1920.0,6.0,0.0
3321,43.0,0.0,1920.0,8.0,0.0
3322,46.0,0.0,1920.0,8.0,0.0
3323,51.0,0.0,1920.0,8.0,0.0
3324,39.0,60.0,1920.0,8.0,0.0
3325,77.0,60.0,60.0,6.0,0.0
3326,32.0,48.0,180.0,14.0,0.0
3327,56.0,0.0,180.0,12.0,0.0
3328,56.0,0.0,180.0,10.0,0.0
3329,44.0,0.0,180.0,13.0,0.0
3330,56.0,0.0,180.0,11.0,0.0
3331,75.0,60.0,60.0,6.0,0.0
3332,77.0,12.0,60.0,6.0,0.0
3333,75.0,60.0,60.0,6.0,0.0
3334,77.0,60.0,60.0,6.0,0.0
3335,75.0,60.0,60.0,6.0,0.0
3336,77.0,60.0,60.0,6.0,0.0
3337,75.0,60.0,60.0,6.0,0.0
3338,27.0,0.0,180.0,14.0,0.0
3339,77.0,60.0,60.0,6.0,0.0
3340,39.0,48.0,180.0,13.0,0.0
3341,51.0,0.0,180.0,10.0,0.0
3342,51.0,0.0,180.0,11.0,0.0
3343,51.0,0.0,180.0,12.0,0.0
3344,75.0,60.0,60.0,6.0,0.0
3345,77.0,12.0,60.0,6.0,0.0
3346,75.0,60.0,60.0,6.0,0.0
3347,77.0,60.0,60.0,6.0,0.0
3348,75.0,60.0,60.0,6.0,0.0
3349,77.0,60.0,60.0,6.0,0.0
3350,75.0,60.0,60.0,6.0,0.0
3351,32.0,0.0,180.0,14.0,0.0
3352,56.0,48.0,180.0,12.0,0.0
3353,56.0,0.0,180.0,11.0,0.0
3354,44.0,0.0,180.0,13.0,0.0
3355,56.0,0.0,180.0,10.0,0.0
3356,77.0,60.0,60.0,6.0,0.0
3357,75.0,60.0,60.0,6.0,0.0
3358,77.0,12.0,60.0,6.0,0.0
3359,75.0,60.0,60.0,6.0,0.0
3360,77.0,60.0,60.0,6.0,0.0
3361,75.0,60.0,60.0,6.0,0.0
3362,77.0,60.0,60.0,6.0,0.0
3363,75.0,60.0,60.0,6.0,0.0
3364,60.0,0.0,180.0,12.0,0.0
3365,48.0,0.0,180.0,13.0,0.0
3366,60.0,0.0,180.0,11.0,0.0
3367,77.0,60.0,60.0,6.0,0.0
3368,36.0,0.0,180.0,14.0,0.0
3369,60.0,48.0,180.0,10.0,0.0
3370,75.0,60.0,60.0,6.0,0.0
3371,77.0,12.0,60.0,6.0,0.0
3372,75.0,60.0,60.0,6.0,0.0
3373,77.0,60.0,60.0,6.0,0.0
3374,75.0,60.0,60.0,6.0,0.0
3375,77.0,60.0,60.0,6.0,0.0
3376,75.0,60.0,60.0,6.0,0.0
3377,37.0,0.0,720.0,14.0,0.0
3378,61.0,0.0,720.0,11.0,0.0
3379,49.0,0.0,720.0,13.0,0.0
3380,77.0,60.0,60.0,6.0,0.0
3381,61.0,60.0,720.0,12.0,0.0
3382,61.0,0.0,720.0,10.0,0.0
3383,75.0,60.0,60.0,6.0,0.0
3384,77.0,60.0,60.0,6.0,0.0
3385,75.0,60.0,60.0,6.0,0.0
3386,77.0,60.0,60.0,6.0,0.0
3387,75.0,60.0,60.0,6.0,0.0
3388,77.0,60.0,60.0,6.0,0.0
3389,75.0,60.0,60.0,6.0,0.0
3390,77.0,60.0,60.0,6.0,0.0
3391,75.0,60.0,60.0,6.0,0.0
3392,77.0,60.0,60.0,6.0,0.0
3393,75.0,0.0,60.0,6.0,0.0
3394,36.0,0.0,90.0,14.0,0.0
3395,60.0,0.0,90.0,11.0,0.0
3396,77.0,20.0,60.0,6.0,0.0
3397,48.0,0.0,90.0,13.0,0.0
3398,60.0,40.0,90.0,12.0,0.0
3399,60.0,0.0,90.0,10.0,0.0
3400,75.0,40.0,60.0,6.0,0.0
3401,34.0,0.0,90.0,14.0,0.0
3402,46.0,0.0,90.0,13.0,0.0
3403,58.0,0.0,90.0,12.0,0.0
3404,58.0,0.0,90.0,11.0,0.0
3405,58.0,20.0,90.0,10.0,0.0
3406,77.0,60.0,60.0,6.0,0.0
3407,44.0,0.0,90.0,13.0,0.0
3408,56.0,0.0,90.0,12.0,0.0
3409,56.0,0.0,90.0,11.0,0.0
3410,32.0,0.0,90.0,14.0,0.0
3411,56.0,60.0,90.0,10.0,0.0
3412,75.0,0.0,60.0,6.0,0.0
3413,55.0,36.0,390.0,10.0,0.0
3414,55.0,0.0,390.0,12.0,0.0
3415,43.0,0.0,390.0,13.0,0.0
3416,55.0,0.0,390.0,11.0,0.0
3417,31.0,0.0,390.0,14.0,0.0
3418,77.0,60.0,60.0,6.0,0.0
3419,75.0,60.0,60.0,6.0,0.0
3420,77.0,60.0,60.0,6.0,0.0
3421,75.0,60.0,60.0,6.0,0.0
3422,77.0,60.0,60.0,6.0,0.0
3423,75.0,24.0,60.0,6.0,0.0
3424,77.0,60.0,60.0,6.0,0.0
3425,75.0,60.0,60.0,6.0,0.0
3426,77.0,60.0,60.0,6.0,0.0
3427,75.0,60.0,60.0,6.0,0.0
3428,77.0,60.0,60.0,6.0,0.0
3429,75.0,60.0,60.0,6.0,0.0
3430,77.0,60.0,60.0,6.0,0.0
3431,75.0,60.0,60.0,6.0,0.0
3432,51.0,0.0,90.0,10.0,0.0
3433,77.0,36.0,60.0,6.0,0.0
3434,27.0,24.0,90.0,14.0,0.0
3435,51.0,0.0,90.0,11.0,0.0
3436,51.0,0.0,90.0,12.0,0.0
3437,39.0,0.0,90.0,13.0,0.0
3438,75.0,60.0,60.0,6.0,0.0
3439,55.0,0.0,180.0,10.0,0.0
3440,55.0,0.0,180.0,11.0,0.0
3441,31.0,48.0,180.0,14.0,0.0
3442,55.0,0.0,180.0,12.0,0.0
3443,77.0,60.0,60.0,6.0,0.0
3444,43.0,0.0,180.0,13.0,0.0
3445,75.0,60.0,60.0,6.0,0.0
3446,77.0,12.0,60.0,6.0,0.0
3447,75.0,60.0,60.0,6.0,0.0
3448,77.0,60.0,60.0,6.0,0.0
3449,75.0,60.0,60.0,6.0,0.0
3450,77.0,60.0,60.0,6.0,0.0
3451,75.0,60.0,60.0,6.0,0.0
3452,77.0,60.0,60.0,6.0,0.0
3453,34.0,48.0,180.0,14.0,0.0
3454,46.0,0.0,180.0,13.0,0.0
3455,58.0,0.0,180.0,10.0,0.0
3456,58.0,0.0,180.0,12.0,0.0
3457,58.0,0.0,180.0,11.0,0.0
3458,75.0,60.0,60.0,6.0,0.0
3459,77.0,12.0,60.0,6.0,0.0
3460,75.0,60.0,60.0,6.0,0.0
3461,77.0,60.0,60.0,6.0,0.0
3462,75.0,60.0,60.0,6.0,0.0
3463,77.0,60.0,60.0,6.0,0.0
3464,75.0,60.0,60.0,6.0,0.0
3465,77.0,60.0,60.0,6.0,0.0
3466,61.0,0.0,180.0,10.0,0.0
3467,37.0,0.0,180.0,14.0,0.0
3468,49.0,48.0,180.0,13.0,0.0
3469,61.0,0.0,180.0,11.0,0.0
3470,61.0,0.0,180.0,12.0,0.0
3471,75.0,60.0,60.0,6.0,0.0
3472,77.0,12.0,60.0,6.0,0.0
3473,75.0,60.0,60.0,6.0,0.0
3474,77.0,60.0,60.0,6.0,0.0
3475,75.0,60.0,60.0,6.0,0.0
3476,77.0,60.0,60.0,6.0,0.0
3477,75.0,60.0,60.0,6.0,0.0
3478,46.0,48.0,180.0,13.0,0.0
3479,58.0,0.0,180.0,12.0,0.0
3480,34.0,0.0,180.0,14.0,0.0
3481,58.0,0.0,180.0,10.0,0.0
3482,77.0,60.0,60.0,6.0,0.0
3483,58.0,0.0,180.0,11.0,0.0
3484,75.0,60.0,60.0,6.0,0.0
3485,77.0,12.0,60.0,6.0,0.0
3486,75.0,60.0,60.0,6.0,0.0
3487,77.0,60.0,60.0,6.0,0.0
3488,75.0,60.0,60.0,6.0,0.0
3489,77.0,60.0,60.0,6.0,0.0
3490,75.0,60.0,60.0,6.0,0.0
3491,77.0,60.0,60.0,6.0,0.0
3492,63.0,0.0,720.0,10.0,0.0
3493,51.0,60.0,720.0,13.0,0.0
3494,63.0,0.0,720.0,12.0,0.0
3495,63.0,0.0,720.0,11.0,0.0
3496,39.0,0.0,720.0,14.0,0.0
3497,75.0,60.0,60.0,6.0,0.0
3498,77.0,60.0,60.0,6.0,0.0
3499,75.0,60.0,60.0,6.0,0.0
3500,77.0,60.0,60.0,6.0,0.0
3501,75.0,60.0,60.0,6.0,0.0
3502,77.0,60.0,60.0,6.0,0.0
3503,75.0,60.0,60.0,6.0,0.0
3504,77.0,60.0,60.0,6.0,0.0
3505,75.0,60.0,60.0,6.0,0.0
3506,77.0,60.0,60.0,6.0,0.0
3507,75.0,0.0,60.0,6.0,0.0
3508,65.0,0.0,90.0,10.0,0.0
3509,53.0,40.0,90.0,13.0,0.0
3510,41.0,0.0,90.0,14.0,0.0
3511,77.0,20.0,60.0,6.0,0.0
3512,65.0,0.0,90.0,11.0,0.0
3513,65.0,0.0,90.0,12.0,0.0
3514,75.0,40.0,60.0,6.0,0.0
3515,63.0,20.0,90.0,12.0,0.0
3516,63.0,0.0,90.0,10.0,0.0
3517,63.0,0.0,90.0,11.0,0.0
3518,39.0,0.0,90.0,14.0,0.0
3519,51.0,0.0,90.0,13.0,0.0
3520,77.0,60.0,60.0,6.0,0.0
3521,37.0,60.0,90.0,14.0,0.0
3522,61.0,0.0,90.0,10.0,0.0
3523,61.0,0.0,90.0,11.0,0.0
3524,61.0,0.0,90.0,12.0,0.0
3525,49.0,0.0,90.0,13.0,0.0
3526,75.0,0.0,60.0,6.0,0.0
3527,36.0,0.0,390.0,14.0,0.0
3528,77.0,60.0,60.0,6.0,0.0
3529,60.0,0.0,390.0,10.0,0.0
3530,48.0,0.0,390.0,13.0,0.0
3531,60.0,0.0,390.0,11.0,0.0
3532,60.0,36.0,390.0,12.0,0.0
3533,75.0,60.0,60.0,6.0,0.0
3534,77.0,60.0,60.0,6.0,0.0
3535,75.0,60.0,60.0,6.0,0.0
3536,77.0,60.0,60.0,6.0,0.0
3537,75.0,24.0,60.0,6.0,0.0
3538,77.0,60.0,60.0,6.0,0.0
3539,75.0,60.0,60.0,6.0,0.0
3540,77.0,60.0,60.0,6.0,0.0
3541,75.0,60.0,60.0,6.0,0.0
3542,77.0,60.0,60.0,6.0,0.0
3543,75.0,120.0,60.0,6.0,0.0
3544,74.0,120.0,120.0,6.0,0.0
3545,75.0,432.0,120.0,6.0,0.0
3546,75.0,192.0,1140.0,6.0,0.0
3547,56.0,0.0,180.0,7.0,0.0
3548,63.0,0.0,180.0,7.0,0.0
3549,60.0,240.0,180.0,7.0,0.0
3550,63.0,0.0,180.0,7.0,0.0
3551,56.0,0.0,180.0,7.0,0.0
3552,60.0,240.0,180.0,7.0,0.0
3553,63.0,240.0,180.0,7.0,0.0
3554,60.0,0.0,180.0,7.0,0.0
3555,56.0,0.0,180.0,7.0,0.0
3556,60.0,0.0,390.0,7.0,0.0
3557,63.0,0.0,390.0,7.0,0.0
3558,56.0,48.0,390.0,7.0,0.0
3559,74.0,240.0,180.0,6.0,0.0
3560,75.0,240.0,180.0,6.0,0.0
3561,72.0,480.0,180.0,6.0,0.0
3562,73.0,192.0,1140.0,6.0,0.0
3563,58.0,240.0,180.0,7.0,0.0
3564,63.0,0.0,180.0,7.0,0.0
3565,55.0,0.0,180.0,7.0,0.0
3566,58.0,0.0,180.0,7.0,0.0
3567,55.0,0.0,180.0,7.0,0.0
3568,63.0,240.0,180.0,7.0,0.0
3569,55.0,240.0,180.0,7.0,0.0
3570,63.0,0.0,180.0,7.0,0.0
3571,58.0,0.0,180.0,7.0,0.0
3572,58.0,48.0,390.0,7.0,0.0
3573,63.0,0.0,390.0,7.0,0.0
3574,55.0,0.0,390.0,7.0,0.0
3575,72.0,240.0,180.0,6.0,0.0
3576,73.0,240.0,180.0,6.0,0.0
3577,70.0,168.0,180.0,6.0,0.0
3578,68.0,120.0,120.0,6.0,0.0
3579,56.0,0.0,390.0,7.0,0.0
3580,60.0,0.0,390.0,7.0,0.0
3581,63.0,96.0,390.0,7.0,0.0
3582,70.0,120.0,120.0,6.0,0.0
3583,68.0,24.0,120.0,6.0,0.0
3584,67.0,144.0,120.0,6.0,0.0
3585,68.0,240.0,150.0,6.0,0.0
3586,69.0,216.0,150.0,6.0,0.0
3587,61.0,96.0,390.0,7.0,0.0
3588,70.0,120.0,120.0,6.0,0.0
3589,63.0,0.0,390.0,7.0,0.0
3590,55.0,0.0,390.0,7.0,0.0
3591,72.0,120.0,120.0,6.0,0.0
3592,70.0,24.0,120.0,6.0,0.0
3593,69.0,144.0,120.0,6.0,0.0
3594,70.0,240.0,150.0,6.0,0.0
3595,71.0,336.0,150.0,6.0,0.0
3596,72.0,120.0,240.0,6.0,0.0
3597,56.0,0.0,960.0,7.0,0.0
3598,60.0,240.0,960.0,7.0,0.0
3599,73.0,120.0,120.0,6.0,0.0
3600,75.0,144.0,120.0,6.0,0.0
3601,73.0,240.0,150.0,6.0,0.0
3602,72.0,96.0,150.0,6.0,0.0
3603,51.0,0.0,390.0,7.0,0.0
3604,70.0,144.0,240.0,6.0,0.0
3605,55.0,96.0,390.0,7.0,0.0
3606,63.0,0.0,15.0,7.0,0.0
3607,72.0,240.0,240.0,6.0,0.0
3608,73.0,240.0,240.0,6.0,0.0
3609,74.0,360.0,240.0,6.0,0.0
3610,75.0,24.0,360.0,6.0,0.0
3611,60.0,0.0,1140.0,11.0,0.0
3612,56.0,0.0,390.0,13.0,0.0
3613,63.0,0.0,4230.0,12.0,0.0
3614,44.0,48.0,390.0,14.0,0.0
3615,75.0,48.0,1140.0,10.0,0.0
3616,60.0,48.0,180.0,7.0,0.0
3617,63.0,0.0,180.0,7.0,0.0
3618,56.0,0.0,180.0,7.0,0.0
3619,72.0,192.0,120.0,6.0,0.0
3620,84.0,72.0,600.0,6.0,0.0
3621,56.0,240.0,180.0,7.0,0.0
3622,60.0,0.0,180.0,7.0,0.0
3623,63.0,0.0,180.0,7.0,0.0
3624,63.0,168.0,180.0,7.0,0.0
3625,56.0,0.0,180.0,7.0,0.0
3626,60.0,0.0,180.0,7.0,0.0
3627,60.0,96.0,390.0,7.0,0.0
3628,56.0,0.0,390.0,7.0,0.0
3629,63.0,0.0,390.0,7.0,0.0
3630,82.0,120.0,120.0,6.0,0.0
3631,80.0,24.0,120.0,6.0,0.0
3632,74.0,0.0,150.0,10.0,0.0
3633,59.0,0.0,150.0,11.0,0.0
3634,79.0,120.0,120.0,6.0,0.0
3635,60.0,0.0,150.0,11.0,0.0
3636,77.0,24.0,120.0,6.0,0.0
3637,75.0,96.0,150.0,10.0,0.0
3638,75.0,120.0,120.0,6.0,0.0
3639,72.0,0.0,150.0,10.0,0.0
3640,56.0,96.0,150.0,11.0,0.0
3641,73.0,24.0,120.0,6.0,0.0
3642,72.0,120.0,120.0,6.0,0.0
3643,51.0,48.0,390.0,13.0,0.0
3644,39.0,0.0,390.0,14.0,0.0
3645,58.0,48.0,1140.0,11.0,0.0
3646,73.0,0.0,1140.0,10.0,0.0
3647,75.0,120.0,120.0,6.0,0.0
3648,73.0,120.0,120.0,6.0,0.0
3649,58.0,0.0,180.0,7.0,0.0
3650,82.0,24.0,120.0,6.0,0.0
3651,63.0,48.0,180.0,7.0,0.0
3652,55.0,0.0,180.0,7.0,0.0
3653,79.0,192.0,120.0,6.0,0.0
3654,85.0,72.0,600.0,6.0,0.0
3655,55.0,0.0,180.0,7.0,0.0
3656,58.0,0.0,180.0,7.0,0.0
3657,63.0,240.0,180.0,7.0,0.0
3658,63.0,168.0,180.0,7.0,0.0
3659,58.0,0.0,180.0,7.0,0.0
3660,55.0,0.0,180.0,7.0,0.0
3661,58.0,0.0,390.0,7.0,0.0
3662,55.0,0.0,390.0,7.0,0.0
3663,63.0,96.0,390.0,7.0,0.0
3664,84.0,120.0,120.0,6.0,0.0
3665,57.0,0.0,150.0,11.0,0.0
3666,82.0,24.0,120.0,6.0,0.0
3667,72.0,0.0,150.0,10.0,0.0
3668,80.0,120.0,120.0,6.0,0.0
3669,58.0,0.0,150.0,11.0,0.0
3670,79.0,24.0,120.0,6.0,0.0
3671,73.0,96.0,150.0,10.0,0.0
3672,77.0,120.0,120.0,6.0,0.0
3673,70.0,96.0,150.0,10.0,0.0
3674,55.0,0.0,150.0,11.0,0.0
3675,75.0,24.0,120.0,6.0,0.0
3676,73.0,96.0,120.0,6.0,0.0
3677,80.0,0.0,390.0,0.0,0.0
3678,60.0,0.0,390.0,4.0,0.0
3679,44.0,0.0,390.0,7.0,0.0
3680,44.0,0.0,390.0,5.0,0.0
3681,48.0,72.0,390.0,3.0,0.0
3682,56.0,0.0,390.0,3.0,0.0
3683,51.0,0.0,390.0,2.0,0.0
3684,56.0,0.0,390.0,2.0,0.0
3685,68.0,0.0,390.0,4.0,0.0
3686,68.0,0.0,390.0,10.0,0.0
3687,56.0,0.0,390.0,7.0,0.0
3688,72.0,120.0,90.0,6.0,0.0
3689,68.0,0.0,390.0,1.0,0.0
3690,63.0,0.0,390.0,1.0,0.0
3691,56.0,0.0,390.0,11.0,0.0
3692,75.0,120.0,90.0,6.0,0.0
3693,80.0,48.0,90.0,6.0,0.0
3694,79.0,120.0,90.0,6.0,0.0
3695,56.0,0.0,300.0,3.0,0.0
3696,48.0,0.0,300.0,3.0,0.0
3697,68.0,0.0,300.0,1.0,0.0
3698,60.0,0.0,300.0,4.0,0.0
3699,68.0,0.0,300.0,4.0,0.0
3700,77.0,120.0,90.0,6.0,0.0
3701,63.0,0.0,300.0,1.0,0.0
3702,56.0,0.0,300.0,2.0,0.0
3703,51.0,48.0,300.0,2.0,0.0
3704,44.0,0.0,300.0,5.0,0.0
3705,80.0,0.0,300.0,0.0,0.0
3706,75.0,72.0,90.0,6.0,0.0
3707,73.0,120.0,90.0,6.0,0.0
3708,72.0,0.0,90.0,6.0,0.0
3709,68.0,0.0,90.0,1.0,0.0
3710,63.0,0.0,90.0,1.0,0.0
3711,56.0,84.0,90.0,3.0,0.0
3712,68.0,0.0,90.0,4.0,0.0
3713,51.0,0.0,90.0,2.0,0.0
3714,80.0,0.0,90.0,0.0,0.0
3715,44.0,0.0,90.0,5.0,0.0
3716,48.0,0.0,90.0,3.0,0.0
3717,56.0,0.0,90.0,2.0,0.0
3718,60.0,0.0,90.0,4.0,0.0
3719,70.0,0.0,390.0,4.0,0.0
3720,58.0,72.0,390.0,3.0,0.0
3721,51.0,0.0,390.0,3.0,0.0
3722,70.0,24.0,90.0,6.0,0.0
3723,60.0,0.0,60.0,2.0,0.0
3724,84.0,0.0,60.0,0.0,0.0
3725,51.0,0.0,390.0,7.0,0.0
3726,39.0,0.0,390.0,7.0,0.0
3727,72.0,0.0,60.0,1.0,0.0
3728,68.0,0.0,60.0,1.0,0.0
3729,39.0,0.0,390.0,5.0,0.0
3730,56.0,36.0,60.0,2.0,0.0
3731,63.0,0.0,390.0,4.0,0.0
3732,82.0,60.0,60.0,0.0,0.0
3733,67.0,0.0,60.0,1.0,0.0
3734,70.0,0.0,60.0,1.0,0.0
3735,55.0,0.0,60.0,2.0,0.0
3736,58.0,0.0,60.0,2.0,0.0
3737,84.0,0.0,60.0,0.0,0.0
3738,72.0,0.0,60.0,1.0,0.0
3739,68.0,0.0,60.0,1.0,0.0
3740,56.0,0.0,60.0,2.0,0.0
3741,74.0,24.0,90.0,6.0,0.0
3742,60.0,36.0,60.0,2.0,0.0
3743,55.0,0.0,60.0,2.0,0.0
3744,58.0,96.0,60.0,2.0,0.0
3745,82.0,0.0,60.0,0.0,0.0
3746,70.0,0.0,60.0,1.0,0.0
3747,67.0,0.0,60.0,1.0,0.0
3748,72.0,0.0,90.0,1.0,0.0
3749,56.0,0.0,90.0,2.0,0.0
3750,60.0,0.0,90.0,2.0,0.0
3751,68.0,0.0,90.0,1.0,0.0
3752,75.0,48.0,90.0,6.0,0.0
3753,84.0,0.0,90.0,0.0,0.0
3754,53.0,0.0,90.0,2.0,0.0
3755,73.0,0.0,90.0,6.0,0.0
3756,80.0,0.0,90.0,0.0,0.0
3757,68.0,120.0,90.0,1.0,0.0
3758,65.0,0.0,90.0,1.0,0.0
3759,56.0,0.0,90.0,2.0,0.0
3760,51.0,0.0,390.0,3.0,0.0
3761,72.0,120.0,90.0,6.0,0.0
3762,67.0,0.0,300.0,1.0,0.0
3763,70.0,0.0,300.0,1.0,0.0
3764,82.0,0.0,300.0,0.0,0.0
3765,39.0,72.0,390.0,5.0,0.0
3766,39.0,0.0,390.0,3.0,0.0
3767,58.0,48.0,300.0,2.0,0.0
3768,55.0,0.0,300.0,2.0,0.0
3769,63.0,0.0,390.0,4.0,0.0
3770,51.0,0.0,390.0,4.0,0.0
3771,70.0,72.0,90.0,6.0,0.0
3772,68.0,48.0,90.0,6.0,0.0
3773,67.0,0.0,90.0,6.0,0.0
3774,60.0,0.0,90.0,2.0,0.0
3775,84.0,264.0,90.0,0.0,0.0
3776,51.0,0.0,90.0,2.0,0.0
3777,63.0,0.0,90.0,1.0,0.0
3778,72.0,0.0,90.0,1.0,0.0
3779,60.0,0.0,390.0,1.0,0.0
3780,56.0,0.0,390.0,4.0,0.0
3781,63.0,0.0,390.0,4.0,0.0
3782,68.0,0.0,390.0,6.0,0.0
3783,68.0,0.0,390.0,1.0,0.0
3784,56.0,96.0,390.0,2.0,0.0
3785,48.0,0.0,390.0,2.0,0.0
3786,44.0,0.0,390.0,5.0,0.0
3787,60.0,144.0,240.0,7.0,0.0
3788,80.0,0.0,390.0,0.0,0.0
3789,44.0,0.0,390.0,3.0,0.0
3790,51.0,0.0,390.0,3.0,0.0
3791,56.0,240.0,240.0,7.0,0.0
3792,60.0,240.0,240.0,7.0,0.0
3793,56.0,240.0,240.0,7.0,0.0
3794,60.0,60.0,240.0,7.0,0.0
3795,70.0,60.0,60.0,6.0,0.0
3796,56.0,240.0,240.0,7.0,0.0
3797,68.0,60.0,60.0,6.0,0.0
3798,67.0,60.0,60.0,6.0,0.0
3799,68.0,0.0,60.0,6.0,0.0
3800,63.0,240.0,240.0,7.0,0.0
3801,72.0,0.0,240.0,6.0,0.0
3802,60.0,0.0,240.0,7.0,0.0
3803,68.0,240.0,240.0,6.0,0.0
3804,64.0,0.0,240.0,6.0,0.0
3805,61.0,240.0,240.0,7.0,0.0
3806,56.0,240.0,240.0,7.0,0.0
3807,65.0,0.0,15.0,6.0,0.0
3808,61.0,240.0,240.0,7.0,0.0
3809,56.0,240.0,240.0,7.0,0.0
3810,61.0,240.0,240.0,7.0,0.0
3811,65.0,0.0,15.0,6.0,0.0
3812,56.0,0.0,240.0,7.0,0.0
3813,73.0,0.0,240.0,6.0,0.0
3814,61.0,240.0,240.0,7.0,0.0
3815,70.0,240.0,240.0,6.0,0.0
3816,56.0,0.0,240.0,7.0,0.0
3817,58.0,0.0,240.0,7.0,0.0
3818,68.0,240.0,240.0,6.0,0.0
3819,56.0,0.0,240.0,7.0,0.0
3820,67.0,240.0,15.0,6.0,0.0
3821,58.0,240.0,240.0,7.0,0.0
3822,56.0,240.0,240.0,7.0,0.0
3823,58.0,240.0,240.0,7.0,0.0
3824,67.0,0.0,15.0,6.0,0.0
3825,56.0,240.0,240.0,7.0,0.0
3826,77.0,240.0,240.0,6.0,0.0
3827,61.0,0.0,240.0,7.0,0.0
3828,75.0,0.0,240.0,6.0,0.0
3829,56.0,240.0,240.0,7.0,0.0
3830,44.0,0.0,5760.0,13.0,0.0
3831,75.0,120.0,360.0,6.0,0.0
3832,63.0,0.0,1920.0,10.0,0.0
3833,60.0,192.0,1920.0,11.0,0.0
3834,56.0,0.0,3840.0,12.0,0.0
3835,60.0,120.0,240.0,7.0,0.0
3836,56.0,240.0,240.0,7.0,0.0
3837,72.0,0.0,120.0,6.0,0.0
3838,60.0,144.0,240.0,7.0,0.0
3839,68.0,96.0,390.0,6.0,0.0
3840,56.0,240.0,240.0,7.0,0.0
3841,60.0,60.0,240.0,7.0,0.0
3842,70.0,60.0,60.0,6.0,0.0
3843,56.0,0.0,240.0,7.0,0.0
3844,68.0,60.0,60.0,6.0,0.0
3845,67.0,60.0,60.0,6.0,0.0
3846,68.0,240.0,60.0,6.0,0.0
3847,63.0,240.0,240.0,7.0,0.0
3848,72.0,0.0,240.0,6.0,0.0
3849,68.0,0.0,240.0,6.0,0.0
3850,60.0,0.0,240.0,7.0,0.0
3851,61.0,96.0,3840.0,11.0,0.0
3852,65.0,240.0,1920.0,10.0,0.0
3853,61.0,168.0,180.0,7.0,0.0
3854,67.0,120.0,360.0,6.0,0.0
3855,56.0,0.0,240.0,7.0,0.0
3856,65.0,240.0,120.0,6.0,0.0
3857,61.0,240.0,240.0,7.0,0.0
3858,77.0,120.0,600.0,6.0,0.0
3859,56.0,120.0,240.0,7.0,0.0
3860,61.0,120.0,240.0,7.0,0.0
3861,75.0,0.0,120.0,6.0,0.0
3862,56.0,0.0,240.0,7.0,0.0
3863,73.0,120.0,120.0,6.0,0.0
3864,72.0,120.0,120.0,6.0,0.0
3865,70.0,120.0,120.0,6.0,0.0
3866,61.0,0.0,240.0,7.0,0.0
3867,68.0,120.0,120.0,6.0,0.0
3868,56.0,0.0,240.0,7.0,0.0
3869,67.0,120.0,120.0,6.0,0.0
3870,65.0,0.0,120.0,6.0,0.0
3871,68.0,120.0,360.0,6.0,0.0
3872,58.0,120.0,240.0,7.0,0.0
3873,58.0,0.0,1920.0,12.0,0.0
3874,67.0,0.0,1920.0,10.0,0.0
3875,56.0,240.0,240.0,7.0,0.0
3876,67.0,0.0,120.0,6.0,0.0
3877,79.0,120.0,600.0,6.0,0.0
3878,58.0,240.0,240.0,7.0,0.0
3879,56.0,120.0,240.0,7.0,0.0
3880,58.0,120.0,240.0,7.0,0.0
3881,77.0,0.0,120.0,6.0,0.0
3882,56.0,120.0,240.0,7.0,0.0
3883,75.0,120.0,120.0,6.0,0.0
3884,73.0,0.0,120.0,6.0,0.0
3885,61.0,120.0,240.0,7.0,0.0
3886,72.0,120.0,120.0,6.0,0.0
3887,70.0,0.0,120.0,6.0,0.0
3888,68.0,120.0,120.0,6.0,0.0
3889,56.0,0.0,240.0,7.0,0.0
3890,67.0,0.0,120.0,6.0,0.0
3891,32.0,0.0,15.0,14.0,0.0
3892,60.0,96.0,240.0,7.0,0.0
3893,70.0,120.0,90.0,6.0,0.0
3894,60.0,0.0,390.0,11.0,0.0
3895,56.0,0.0,390.0,12.0,0.0
3896,68.0,0.0,390.0,10.0,0.0
3897,44.0,72.0,390.0,13.0,0.0
3898,68.0,24.0,90.0,6.0,0.0
3899,56.0,96.0,240.0,7.0,0.0
3900,80.0,48.0,90.0,6.0,0.0
3901,79.0,24.0,90.0,6.0,0.0
3902,60.0,96.0,240.0,7.0,0.0
3903,77.0,120.0,90.0,6.0,0.0
3904,75.0,24.0,90.0,6.0,0.0
3905,73.0,120.0,90.0,6.0,0.0
3906,56.0,96.0,240.0,7.0,0.0
3907,72.0,24.0,90.0,6.0,0.0
3908,69.0,120.0,90.0,6.0,0.0
3909,70.0,0.0,390.0,10.0,0.0
3910,63.0,0.0,390.0,11.0,0.0
3911,55.0,72.0,390.0,12.0,0.0
3912,55.0,96.0,240.0,7.0,0.0
3913,70.0,24.0,90.0,6.0,0.0
3914,63.0,96.0,240.0,7.0,0.0
3915,82.0,48.0,90.0,6.0,0.0
3916,80.0,24.0,90.0,6.0,0.0
3917,79.0,120.0,90.0,6.0,0.0
3918,61.0,96.0,240.0,7.0,0.0
3919,77.0,24.0,90.0,6.0,0.0
3920,75.0,120.0,90.0,6.0,0.0
3921,63.0,96.0,240.0,7.0,0.0
3922,73.0,24.0,90.0,6.0,0.0
3923,56.0,96.0,240.0,7.0,0.0
3924,63.0,96.0,480.0,11.0,0.0
3925,56.0,96.0,960.0,12.0,0.0
3926,71.0,120.0,90.0,6.0,0.0
3927,72.0,0.0,960.0,10.0,0.0
3928,72.0,24.0,90.0,6.0,0.0
3929,63.0,0.0,240.0,7.0,0.0
3930,84.0,120.0,90.0,6.0,0.0
3931,82.0,24.0,90.0,6.0,0.0
3932,60.0,96.0,240.0,7.0,0.0
3933,65.0,0.0,960.0,11.0,0.0
3934,80.0,120.0,90.0,6.0,0.0
3935,79.0,24.0,90.0,6.0,0.0
3936,65.0,0.0,240.0,7.0,0.0
3937,77.0,120.0,90.0,6.0,0.0
3938,75.0,24.0,90.0,6.0,0.0
3939,72.0,120.0,90.0,6.0,0.0
3940,73.0,96.0,960.0,10.0,0.0
3941,58.0,0.0,960.0,12.0,0.0
3942,58.0,96.0,240.0,7.0,0.0
3943,73.0,24.0,90.0,6.0,0.0
3944,65.0,96.0,240.0,7.0,0.0
3945,85.0,120.0,90.0,6.0,0.0
3946,84.0,24.0,90.0,6.0,0.0
3947,82.0,120.0,90.0,6.0,0.0
3948,67.0,0.0,480.0,11.0,0.0
3949,61.0,96.0,240.0,7.0,0.0
3950,80.0,24.0,90.0,6.0,0.0
3951,67.0,0.0,240.0,7.0,0.0
3952,79.0,120.0,90.0,6.0,0.0
3953,77.0,24.0,90.0,6.0,0.0
3954,60.0,96.0,240.0,7.0,0.0
3955,75.0,0.0,390.0,10.0,0.0
3956,60.0,0.0,390.0,12.0,0.0
3957,68.0,72.0,390.0,11.0,0.0
3958,74.0,120.0,90.0,6.0,0.0
3959,75.0,24.0,90.0,6.0,0.0
3960,84.0,48.0,90.0,6.0,0.0
3961,68.0,96.0,240.0,7.0,0.0
3962,72.0,24.0,90.0,6.0,0.0
3963,70.0,96.0,240.0,7.0,0.0
3964,75.0,120.0,90.0,6.0,0.0
3965,73.0,24.0,90.0,6.0,0.0
3966,82.0,120.0,90.0,6.0,0.0
3967,67.0,96.0,240.0,7.0,0.0
3968,70.0,24.0,90.0,6.0,0.0
3969,73.0,120.0,90.0,6.0,0.0
3970,68.0,96.0,240.0,7.0,0.0
3971,72.0,24.0,90.0,6.0,0.0
3972,80.0,120.0,90.0,6.0,0.0
3973,65.0,96.0,240.0,7.0,0.0
3974,68.0,24.0,90.0,6.0,0.0
3975,72.0,120.0,90.0,6.0,0.0
3976,67.0,96.0,240.0,7.0,0.0
3977,70.0,24.0,90.0,6.0,0.0
3978,63.0,0.0,180.0,12.0,0.0
3979,79.0,96.0,90.0,6.0,0.0
3980,79.0,0.0,480.0,10.0,0.0
3981,70.0,24.0,180.0,11.0,0.0
3982,63.0,96.0,240.0,7.0,0.0
3983,67.0,24.0,90.0,6.0,0.0
3984,65.0,96.0,240.0,7.0,0.0
3985,70.0,96.0,90.0,6.0,0.0
3986,68.0,96.0,480.0,11.0,0.0
3987,65.0,24.0,180.0,12.0,0.0
3988,68.0,24.0,90.0,6.0,0.0
3989,77.0,96.0,90.0,6.0,0.0
3990,61.0,24.0,180.0,12.0,0.0
3991,77.0,96.0,480.0,10.0,0.0
3992,61.0,0.0,240.0,7.0,0.0
3993,65.0,24.0,90.0,6.0,0.0
3994,67.0,0.0,480.0,11.0,0.0
3995,63.0,24.0,180.0,12.0,0.0
3996,63.0,0.0,240.0,7.0,0.0
3997,68.0,96.0,90.0,6.0,0.0
3998,67.0,24.0,90.0,6.0,0.0
3999,75.0,96.0,90.0,6.0,0.0
4000,60.0,96.0,240.0,7.0,0.0
4001,60.0,24.0,180.0,12.0,0.0
4002,75.0,96.0,480.0,10.0,0.0
4003,63.0,24.0,90.0,6.0,0.0
4004,65.0,0.0,480.0,11.0,0.0
4005,67.0,96.0,90.0,6.0,0.0
4006,61.0,0.0,240.0,7.0,0.0
4007,61.0,24.0,180.0,12.0,0.0
4008,65.0,24.0,90.0,6.0,0.0
4009,73.0,96.0,480.0,10.0,0.0
4010,58.0,96.0,240.0,7.0,0.0
4011,73.0,96.0,90.0,6.0,0.0
4012,58.0,24.0,180.0,12.0,0.0
4013,61.0,24.0,90.0,6.0,0.0
4014,63.0,0.0,480.0,11.0,0.0
4015,60.0,24.0,180.0,12.0,0.0
4016,60.0,0.0,240.0,7.0,0.0
4017,65.0,96.0,90.0,6.0,0.0
4018,63.0,24.0,90.0,6.0,0.0
4019,56.0,24.0,180.0,12.0,0.0
4020,72.0,0.0,240.0,10.0,0.0
4021,72.0,96.0,90.0,6.0,0.0
4022,56.0,240.0,240.0,7.0,0.0
4023,60.0,24.0,90.0,6.0,0.0
4024,70.0,0.0,390.0,10.0,0.0
4025,49.0,96.0,390.0,7.0,0.0
4026,65.0,0.0,390.0,11.0,0.0
4027,61.0,0.0,390.0,12.0,0.0
4028,58.0,120.0,120.0,6.0,0.0
4029,60.0,24.0,120.0,6.0,0.0
4030,61.0,120.0,120.0,6.0,0.0
4031,63.0,120.0,120.0,6.0,0.0
4032,65.0,120.0,120.0,6.0,0.0
4033,67.0,120.0,120.0,6.0,0.0
4034,68.0,120.0,120.0,6.0,0.0
4035,69.0,120.0,120.0,6.0,0.0
4036,70.0,120.0,120.0,6.0,0.0
4037,71.0,120.0,120.0,6.0,0.0
4038,72.0,120.0,120.0,6.0,0.0
4039,73.0,120.0,120.0,6.0,0.0
4040,74.0,120.0,120.0,6.0,0.0
4041,75.0,120.0,120.0,6.0,0.0
4042,76.0,120.0,120.0,6.0,0.0
4043,79.0,120.0,120.0,6.0,0.0
4044,49.0,24.0,570.0,7.0,0.0
4045,77.0,120.0,120.0,6.0,0.0
4046,80.0,120.0,120.0,6.0,0.0
4047,79.0,96.0,120.0,6.0,0.0
4048,77.0,120.0,120.0,6.0,0.0
4049,75.0,120.0,120.0,6.0,0.0
4050,51.0,48.0,180.0,7.0,0.0
4051,73.0,72.0,120.0,6.0,0.0
4052,72.0,120.0,120.0,6.0,0.0
4053,53.0,24.0,570.0,7.0,0.0
4054,75.0,120.0,120.0,6.0,0.0
4055,73.0,120.0,120.0,6.0,0.0
4056,77.0,120.0,120.0,6.0,0.0
4057,75.0,96.0,120.0,6.0,0.0
4058,73.0,120.0,120.0,6.0,0.0
4059,72.0,120.0,120.0,6.0,0.0
4060,70.0,72.0,120.0,6.0,0.0
4061,50.0,48.0,180.0,7.0,0.0
4062,68.0,120.0,120.0,6.0,0.0
4063,67.0,0.0,390.0,6.0,0.0
4064,75.0,96.0,390.0,6.0,0.0
4065,51.0,120.0,120.0,7.0,0.0
4066,63.0,120.0,120.0,7.0,0.0
4067,62.0,24.0,120.0,7.0,0.0
4068,63.0,120.0,120.0,7.0,0.0
4069,62.0,120.0,120.0,7.0,0.0
4070,63.0,120.0,120.0,7.0,0.0
4071,68.0,0.0,180.0,6.0,0.0
4072,77.0,48.0,180.0,6.0,0.0
4073,62.0,72.0,120.0,7.0,0.0
4074,63.0,120.0,120.0,7.0,0.0
4075,70.0,96.0,390.0,6.0,0.0
4076,61.0,120.0,120.0,7.0,0.0
4077,79.0,0.0,390.0,6.0,0.0
4078,63.0,120.0,120.0,7.0,0.0
4079,61.0,24.0,120.0,7.0,0.0
4080,63.0,120.0,120.0,7.0,0.0
4081,60.0,120.0,120.0,7.0,0.0
4082,63.0,120.0,120.0,7.0,0.0
4083,60.0,72.0,120.0,7.0,0.0
4084,72.0,48.0,180.0,6.0,0.0
4085,80.0,0.0,180.0,6.0,0.0
4086,63.0,120.0,120.0,7.0,0.0
4087,73.0,48.0,420.0,6.0,0.0
4088,80.0,0.0,240.0,6.0,0.0
4089,58.0,120.0,120.0,7.0,0.0
4090,63.0,120.0,120.0,7.0,0.0
4091,58.0,72.0,120.0,7.0,0.0
4092,79.0,0.0,180.0,6.0,0.0
4093,63.0,120.0,120.0,7.0,0.0
4094,56.0,120.0,120.0,7.0,0.0
4095,63.0,120.0,120.0,7.0,0.0
4096,72.0,48.0,180.0,6.0,0.0
4097,77.0,0.0,180.0,6.0,0.0
4098,56.0,72.0,120.0,7.0,0.0
4099,63.0,120.0,120.0,7.0,0.0
4100,77.0,120.0,240.0,6.0,0.0
4101,70.0,0.0,420.0,6.0,0.0
4102,55.0,120.0,120.0,7.0,0.0
4103,63.0,0.0,120.0,7.0,0.0
4104,75.0,48.0,180.0,6.0,0.0
4105,55.0,72.0,120.0,7.0,0.0
4106,63.0,120.0,120.0,7.0,0.0
4107,53.0,120.0,120.0,7.0,0.0
4108,63.0,120.0,120.0,7.0,0.0
4109,53.0,72.0,120.0,7.0,0.0
4110,68.0,48.0,180.0,6.0,0.0
4111,74.0,0.0,180.0,6.0,0.0
4112,63.0,120.0,120.0,7.0,0.0
4113,67.0,0.0,120.0,6.0,0.0
4114,51.0,120.0,120.0,7.0,0.0
4115,55.0,0.0,480.0,11.0,0.0
4116,51.0,0.0,3450.0,13.0,0.0
4117,63.0,0.0,480.0,12.0,0.0
4118,39.0,24.0,3450.0,14.0,0.0
4119,63.0,120.0,480.0,10.0,0.0
4120,75.0,0.0,120.0,6.0,0.0
4121,63.0,120.0,120.0,7.0,0.0
4122,77.0,120.0,120.0,6.0,0.0
4123,62.0,0.0,120.0,7.0,0.0
4124,63.0,0.0,120.0,7.0,0.0
4125,75.0,0.0,120.0,6.0,0.0
4126,62.0,120.0,120.0,7.0,0.0
4127,56.0,0.0,480.0,11.0,0.0
4128,62.0,0.0,480.0,12.0,0.0
4129,65.0,0.0,480.0,10.0,0.0
4130,68.0,0.0,120.0,6.0,0.0
4131,77.0,0.0,120.0,6.0,0.0
4132,63.0,120.0,120.0,7.0,0.0
4133,79.0,0.0,120.0,6.0,0.0
4134,62.0,120.0,120.0,7.0,0.0
4135,77.0,120.0,120.0,6.0,0.0
4136,63.0,0.0,120.0,7.0,0.0
4137,58.0,0.0,480.0,11.0,0.0
4138,70.0,120.0,120.0,6.0,0.0
4139,61.0,0.0,480.0,12.0,0.0
4140,67.0,0.0,480.0,10.0,0.0
4141,61.0,0.0,120.0,7.0,0.0
4142,79.0,0.0,120.0,6.0,0.0
4143,63.0,120.0,120.0,7.0,0.0
4144,80.0,120.0,120.0,6.0,0.0
4145,61.0,0.0,120.0,7.0,0.0
4146,63.0,0.0,120.0,7.0,0.0
4147,79.0,120.0,120.0,6.0,0.0
4148,60.0,120.0,480.0,12.0,0.0
4149,68.0,120.0,720.0,10.0,0.0
4150,60.0,0.0,120.0,7.0,0.0
4151,63.0,0.0,480.0,11.0,0.0
4152,72.0,120.0,120.0,6.0,0.0
4153,80.0,0.0,120.0,6.0,0.0
4154,63.0,120.0,120.0,7.0,0.0
4155,82.0,120.0,120.0,6.0,0.0
4156,60.0,0.0,120.0,7.0,0.0
4157,63.0,0.0,120.0,7.0,0.0
4158,80.0,0.0,120.0,6.0,0.0
4159,58.0,0.0,480.0,12.0,0.0
4160,58.0,0.0,120.0,7.0,0.0
4161,73.0,120.0,120.0,6.0,0.0
4162,61.0,120.0,480.0,11.0,0.0
4163,79.0,0.0,120.0,6.0,0.0
4164,63.0,0.0,120.0,7.0,0.0
4165,67.0,0.0,480.0,10.0,0.0
4166,58.0,0.0,120.0,7.0,0.0
4167,80.0,120.0,120.0,6.0,0.0
4168,63.0,0.0,120.0,7.0,0.0
4169,79.0,0.0,120.0,6.0,0.0
4170,56.0,120.0,120.0,7.0,0.0
4171,56.0,0.0,480.0,12.0,0.0
4172,72.0,0.0,120.0,6.0,0.0
4173,60.0,0.0,480.0,11.0,0.0
4174,77.0,0.0,120.0,6.0,0.0
4175,63.0,120.0,120.0,7.0,0.0
4176,56.0,120.0,120.0,7.0,0.0
4177,65.0,0.0,480.0,10.0,0.0
4178,79.0,0.0,120.0,6.0,0.0
4179,77.0,120.0,120.0,6.0,0.0
4180,63.0,0.0,120.0,7.0,0.0
4181,58.0,0.0,480.0,11.0,0.0
4182,55.0,120.0,120.0,7.0,0.0
4183,55.0,96.0,480.0,12.0,0.0
4184,70.0,0.0,120.0,6.0,0.0
4185,75.0,120.0,120.0,6.0,0.0
4186,63.0,0.0,120.0,7.0,0.0
4187,55.0,0.0,120.0,7.0,0.0
4188,63.0,120.0,480.0,10.0,0.0
4189,77.0,120.0,120.0,6.0,0.0
4190,63.0,0.0,120.0,7.0,0.0
4191,75.0,0.0,120.0,6.0,0.0
4192,56.0,0.0,480.0,11.0,0.0
4193,53.0,0.0,120.0,7.0,0.0
4194,68.0,120.0,120.0,6.0,0.0
4195,53.0,0.0,480.0,12.0,0.0
4196,74.0,0.0,120.0,6.0,0.0
4197,63.0,0.0,120.0,7.0,0.0
4198,53.0,0.0,120.0,7.0,0.0
4199,62.0,0.0,240.0,10.0,0.0
4200,75.0,120.0,120.0,6.0,0.0
4201,63.0,0.0,120.0,7.0,0.0
4202,74.0,384.0,120.0,6.0,0.0
4203,51.0,0.0,390.0,7.0,0.0
4204,63.0,0.0,780.0,4.0,0.0
4205,51.0,0.0,570.0,10.0,0.0
4206,63.0,192.0,570.0,10.0,0.0
4207,51.0,0.0,780.0,4.0,0.0
4208,39.0,0.0,390.0,5.0,0.0
4209,27.0,0.0,390.0,14.0,0.0
4210,51.0,0.0,390.0,12.0,0.0
4211,63.0,0.0,570.0,0.0,0.0
4212,55.0,0.0,570.0,11.0,0.0
4213,39.0,0.0,390.0,13.0,0.0
4214,75.0,0.0,390.0,6.0,0.0
4215,70.0,192.0,390.0,6.0,0.0
4216,67.0,0.0,390.0,6.0,0.0
4217,39.0,0.0,780.0,3.0,0.0
4218,51.0,0.0,780.0,3.0,0.0
4219,51.0,0.0,780.0,2.0,0.0
4220,39.0,0.0,780.0,2.0,0.0
4221,63.0,72.0,780.0,1.0,0.0
4222,51.0,120.0,120.0,11.0,0.0
4223,51.0,0.0,120.0,10.0,0.0
4224,63.0,0.0,120.0,0.0,0.0
4225,53.0,144.0,120.0,10.0,0.0
4226,65.0,0.0,120.0,0.0,0.0
4227,53.0,0.0,120.0,11.0,0.0
4228,55.0,0.0,150.0,10.0,0.0
4229,67.0,0.0,150.0,0.0,0.0
4230,55.0,216.0,150.0,11.0,0.0
4231,55.0,120.0,120.0,10.0,0.0
4232,55.0,0.0,120.0,11.0,0.0
4233,67.0,0.0,120.0,0.0,0.0
4234,68.0,144.0,120.0,0.0,0.0
4235,56.0,0.0,120.0,11.0,0.0
4236,56.0,0.0,120.0,10.0,0.0
4237,58.0,176.0,150.0,10.0,0.0
4238,58.0,0.0,150.0,11.0,0.0
4239,70.0,0.0,150.0,0.0,0.0
4240,58.0,0.0,90.0,10.0,0.0
4241,70.0,0.0,90.0,0.0,0.0
4242,58.0,80.0,90.0,11.0,0.0
4243,72.0,0.0,90.0,0.0,0.0
4244,60.0,0.0,90.0,11.0,0.0
4245,60.0,80.0,90.0,10.0,0.0
4246,62.0,0.0,90.0,10.0,0.0
4247,74.0,0.0,90.0,0.0,0.0
4248,62.0,576.0,90.0,11.0,0.0
4249,51.0,0.0,570.0,12.0,0.0
4250,63.0,0.0,780.0,4.0,0.0
4251,75.0,0.0,780.0,1.0,0.0
4252,67.0,0.0,780.0,1.0,0.0
4253,51.0,0.0,780.0,3.0,0.0
4254,58.0,0.0,780.0,3.0,0.0
4255,39.0,0.0,780.0,5.0,0.0
4256,51.0,72.0,780.0,4.0,0.0
4257,63.0,0.0,570.0,10.0,0.0
4258,39.0,192.0,570.0,13.0,0.0
4259,75.0,0.0,780.0,0.0,0.0
4260,63.0,0.0,570.0,11.0,0.0
4261,39.0,0.0,570.0,2.0,0.0
4262,27.0,0.0,570.0,14.0,0.0
4263,27.0,0.0,120.0,14.0,0.0
4264,63.0,120.0,120.0,10.0,0.0
4265,63.0,0.0,120.0,11.0,0.0
4266,39.0,0.0,120.0,13.0,0.0
4267,39.0,0.0,120.0,2.0,0.0
4268,51.0,0.0,120.0,12.0,0.0
4269,41.0,144.0,120.0,2.0,0.0
4270,29.0,0.0,120.0,14.0,0.0
4271,41.0,0.0,120.0,13.0,0.0
4272,53.0,0.0,120.0,12.0,0.0
4273,65.0,0.0,120.0,11.0,0.0
4274,65.0,0.0,120.0,10.0,0.0
4275,55.0,216.0,150.0,12.0,0.0
4276,31.0,0.0,150.0,14.0,0.0
4277,43.0,0.0,150.0,13.0,0.0
4278,51.0,0.0,390.0,3.0,0.0
4279,67.0,0.0,150.0,10.0,0.0
4280,75.0,96.0,390.0,1.0,0.0
4281,58.0,0.0,390.0,3.0,0.0
4282,63.0,0.0,390.0,4.0,0.0
4283,51.0,0.0,390.0,4.0,0.0
4284,43.0,0.0,150.0,2.0,0.0
4285,67.0,0.0,150.0,11.0,0.0
4286,67.0,0.0,390.0,1.0,0.0
4287,79.0,0.0,390.0,0.0,0.0
4288,39.0,0.0,390.0,5.0,0.0
4289,43.0,0.0,120.0,13.0,0.0
4290,67.0,0.0,120.0,10.0,0.0
4291,43.0,0.0,120.0,2.0,0.0
4292,31.0,0.0,120.0,14.0,0.0
4293,67.0,24.0,120.0,11.0,0.0
4294,55.0,0.0,120.0,12.0,0.0
4295,32.0,144.0,120.0,14.0,0.0
4296,68.0,0.0,120.0,10.0,0.0
4297,68.0,0.0,120.0,11.0,0.0
4298,56.0,0.0,120.0,12.0,0.0
4299,44.0,0.0,120.0,2.0,0.0
4300,44.0,0.0,120.0,13.0,0.0
4301,51.0,0.0,390.0,4.0,0.0
4302,63.0,0.0,390.0,4.0,0.0
4303,70.0,0.0,150.0,10.0,0.0
4304,75.0,0.0,390.0,1.0,0.0
4305,67.0,0.0,390.0,1.0,0.0
4306,46.0,0.0,150.0,2.0,0.0
4307,82.0,16.0,390.0,0.0,0.0
4308,39.0,0.0,390.0,5.0,0.0
4309,58.0,0.0,390.0,3.0,0.0
4310,46.0,0.0,150.0,13.0,0.0
4311,51.0,0.0,390.0,3.0,0.0
4312,58.0,0.0,150.0,12.0,0.0
4313,70.0,176.0,150.0,11.0,0.0
4314,34.0,0.0,150.0,14.0,0.0
4315,70.0,64.0,90.0,10.0,0.0
4316,46.0,0.0,90.0,2.0,0.0
4317,58.0,0.0,90.0,12.0,0.0
4318,46.0,0.0,90.0,13.0,0.0
4319,70.0,0.0,90.0,11.0,0.0
4320,34.0,0.0,90.0,14.0,0.0
4321,60.0,80.0,90.0,12.0,0.0
4322,48.0,0.0,90.0,2.0,0.0
4323,72.0,0.0,90.0,11.0,0.0
4324,48.0,0.0,90.0,13.0,0.0
4325,36.0,0.0,90.0,14.0,0.0
4326,72.0,0.0,90.0,10.0,0.0
4327,74.0,0.0,90.0,10.0,0.0
4328,74.0,384.0,90.0,11.0,0.0
4329,38.0,0.0,90.0,14.0,0.0
4330,50.0,0.0,90.0,2.0,0.0
4331,62.0,0.0,90.0,12.0,0.0
4332,50.0,0.0,90.0,13.0,0.0
4333,75.0,0.0,390.0,1.0,0.0
4334,67.0,0.0,390.0,1.0,0.0
4335,63.0,0.0,390.0,12.0,0.0
4336,58.0,0.0,390.0,3.0,0.0
4337,51.0,0.0,390.0,3.0,0.0
4338,75.0,0.0,390.0,10.0,0.0
4339,75.0,0.0,780.0,6.0,0.0
4340,63.0,960.0,780.0,6.0,0.0
4341,51.0,0.0,390.0,2.0,0.0
4342,39.0,0.0,390.0,5.0,0.0
4343,75.0,0.0,390.0,11.0,0.0
4344,39.0,0.0,390.0,14.0,0.0
4345,51.0,384.0,390.0,13.0,0.0
4346,87.0,0.0,390.0,0.0,0.0
4347,63.0,0.0,390.0,4.0,0.0
4348,51.0,0.0,390.0,4.0,0.0
4349,66.0,0.0,780.0,6.0,0.0
4350,78.0,576.0,780.0,6.0,0.0
4351,51.0,384.0,780.0,8.0,0.0
4352,42.0,0.0,390.0,7.0,0.0
4353,46.0,384.0,390.0,7.0,0.0
4354,70.0,0.0,1140.0,6.0,0.0
4355,82.0,528.0,1140.0,6.0,0.0
4356,39.0,0.0,780.0,8.0,0.0
4357,54.0,0.0,780.0,8.0,0.0
4358,51.0,144.0,780.0,8.0,0.0
4359,71.0,48.0,240.0,6.0,0.0
4360,70.0,432.0,180.0,6.0,0.0
4361,50.0,240.0,480.0,7.0,0.0
4362,70.0,96.0,390.0,6.0,0.0
4363,53.0,0.0,480.0,7.0,0.0
4364,71.0,192.0,240.0,6.0,0.0
4365,54.0,0.0,480.0,7.0,0.0
4366,51.0,384.0,480.0,7.0,0.0
4367,70.0,48.0,180.0,6.0,0.0
4368,50.0,240.0,480.0,7.0,0.0
4369,53.0,0.0,480.0,7.0,0.0
4370,70.0,96.0,390.0,6.0,0.0
4371,54.0,240.0,480.0,7.0,0.0
4372,71.0,192.0,240.0,6.0,0.0
4373,51.0,0.0,480.0,7.0,0.0
4374,70.0,48.0,180.0,6.0,0.0
4375,70.0,192.0,240.0,6.0,0.0
4376,53.0,0.0,1140.0,7.0,0.0
4377,50.0,96.0,1140.0,7.0,0.0
4378,82.0,720.0,180.0,6.0,0.0
4379,70.0,432.0,780.0,6.0,0.0
4380,71.0,192.0,240.0,6.0,0.0
4381,62.0,384.0,480.0,7.0,0.0
4382,53.0,0.0,480.0,7.0,0.0
4383,56.0,0.0,480.0,7.0,0.0
4384,70.0,48.0,180.0,6.0,0.0
4385,63.0,0.0,480.0,7.0,0.0
4386,54.0,240.0,480.0,7.0,0.0
4387,58.0,0.0,480.0,7.0,0.0
4388,70.0,96.0,390.0,6.0,0.0
4389,62.0,0.0,480.0,7.0,0.0
4390,53.0,384.0,480.0,7.0,0.0
4391,56.0,0.0,480.0,7.0,0.0
4392,71.0,192.0,240.0,6.0,0.0
4393,70.0,48.0,180.0,6.0,0.0
4394,63.0,0.0,480.0,7.0,0.0
4395,70.0,96.0,390.0,6.0,0.0
4396,54.0,0.0,480.0,7.0,0.0
4397,58.0,240.0,480.0,7.0,0.0
4398,71.0,192.0,240.0,6.0,0.0
4399,53.0,240.0,480.0,7.0,0.0
4400,62.0,0.0,480.0,7.0,0.0
4401,56.0,0.0,480.0,7.0,0.0
4402,70.0,48.0,180.0,6.0,0.0
4403,63.0,672.0,780.0,7.0,0.0
4404,58.0,0.0,780.0,7.0,0.0
4405,70.0,192.0,240.0,6.0,0.0
4406,54.0,0.0,780.0,7.0,0.0
4407,82.0,336.0,180.0,6.0,0.0
4408,70.0,240.0,960.0,6.0,0.0
4409,55.0,0.0,780.0,7.0,0.0
4410,61.0,192.0,780.0,7.0,0.0
4411,63.0,0.0,780.0,7.0,0.0
4412,75.0,48.0,240.0,6.0,0.0
4413,73.0,240.0,240.0,6.0,0.0
4414,73.0,216.0,240.0,6.0,0.0
4415,59.0,0.0,450.0,7.0,0.0
4416,56.0,24.0,450.0,7.0,0.0
4417,71.0,240.0,240.0,6.0,0.0
4418,70.0,192.0,240.0,6.0,0.0
4419,61.0,408.0,450.0,7.0,0.0
4420,58.0,0.0,450.0,7.0,0.0
4421,68.0,24.0,180.0,6.0,0.0
4422,68.0,72.0,390.0,6.0,0.0
4423,59.0,0.0,450.0,7.0,0.0
4424,63.0,408.0,450.0,7.0,0.0
4425,68.0,72.0,390.0,6.0,0.0
4426,64.0,0.0,450.0,7.0,0.0
4427,61.0,408.0,450.0,7.0,0.0
4428,68.0,528.0,390.0,6.0,0.0
4429,63.0,288.0,900.0,7.0,0.0
4430,59.0,0.0,900.0,7.0,0.0
4431,75.0,240.0,720.0,6.0,0.0
4432,55.0,288.0,900.0,7.0,0.0
4433,63.0,0.0,900.0,7.0,0.0
4434,76.0,240.0,240.0,6.0,0.0
4435,75.0,192.0,240.0,6.0,0.0
4436,73.0,0.0,180.0,6.0,0.0
4437,73.0,216.0,240.0,6.0,0.0
4438,59.0,0.0,450.0,7.0,0.0
4439,56.0,24.0,450.0,7.0,0.0
4440,71.0,240.0,240.0,6.0,0.0
4441,70.0,192.0,240.0,6.0,0.0
4442,61.0,408.0,450.0,7.0,0.0
4443,58.0,0.0,450.0,7.0,0.0
4444,68.0,24.0,180.0,6.0,0.0
4445,63.0,0.0,450.0,7.0,0.0
4446,68.0,72.0,390.0,6.0,0.0
4447,59.0,408.0,450.0,7.0,0.0
4448,68.0,72.0,390.0,6.0,0.0
4449,64.0,408.0,450.0,7.0,0.0
4450,61.0,0.0,450.0,7.0,0.0
4451,63.0,0.0,900.0,7.0,0.0
4452,59.0,288.0,900.0,7.0,0.0
4453,68.0,528.0,390.0,6.0,0.0
4454,75.0,240.0,720.0,6.0,0.0
4455,63.0,0.0,900.0,7.0,0.0
4456,55.0,0.0,900.0,7.0,0.0
4457,76.0,240.0,240.0,6.0,0.0
4458,75.0,192.0,240.0,6.0,0.0
4459,73.0,288.0,180.0,6.0,0.0
4460,63.0,0.0,900.0,7.0,0.0
4461,56.0,480.0,900.0,7.0,0.0
4462,73.0,240.0,240.0,6.0,0.0
4463,72.0,432.0,240.0,6.0,0.0
4464,71.0,480.0,900.0,6.0,0.0
4465,58.0,0.0,900.0,7.0,0.0
4466,62.0,24.0,900.0,7.0,0.0
4467,70.0,264.0,450.0,6.0,0.0
4468,70.0,0.0,240.0,6.0,0.0
4469,63.0,0.0,240.0,7.0,0.0
4470,59.0,240.0,240.0,7.0,0.0
4471,69.0,240.0,240.0,6.0,0.0
4472,59.0,0.0,240.0,7.0,0.0
4473,63.0,444.0,240.0,7.0,0.0
4474,75.0,36.0,690.0,6.0,0.0
4475,59.0,0.0,240.0,7.0,0.0
4476,63.0,120.0,240.0,7.0,0.0
4477,77.0,120.0,120.0,6.0,0.0
4478,78.0,120.0,120.0,6.0,0.0
4479,77.0,120.0,120.0,6.0,0.0
4480,75.0,120.0,120.0,6.0,0.0
4481,73.0,120.0,120.0,6.0,0.0
4482,71.0,240.0,120.0,6.0,0.0
4483,70.0,192.0,240.0,6.0,0.0
4484,69.0,288.0,180.0,6.0,0.0
4485,59.0,0.0,240.0,7.0,0.0
4486,63.0,192.0,240.0,7.0,0.0
4487,78.0,288.0,180.0,6.0,0.0
4488,77.0,192.0,240.0,6.0,0.0
4489,75.0,288.0,180.0,6.0,0.0
4490,59.0,0.0,240.0,7.0,0.0
4491,63.0,192.0,240.0,7.0,0.0
4492,69.0,168.0,180.0,6.0,0.0
4493,62.0,0.0,960.0,12.0,0.0
4494,70.0,120.0,120.0,6.0,0.0
4495,58.0,0.0,960.0,7.0,0.0
4496,62.0,0.0,960.0,7.0,0.0
4497,65.0,120.0,960.0,11.0,0.0
4498,70.0,0.0,960.0,10.0,0.0
4499,58.0,0.0,3840.0,13.0,0.0
4500,71.0,120.0,120.0,6.0,0.0
4501,72.0,120.0,120.0,6.0,0.0
4502,73.0,120.0,120.0,6.0,0.0
4503,74.0,120.0,120.0,6.0,0.0
4504,75.0,120.0,120.0,6.0,0.0
4505,76.0,120.0,120.0,6.0,0.0
4506,77.0,0.0,120.0,6.0,0.0
4507,69.0,120.0,960.0,10.0,0.0
4508,58.0,0.0,960.0,7.0,0.0
4509,63.0,0.0,960.0,7.0,0.0
4510,63.0,0.0,960.0,12.0,0.0
4511,80.0,120.0,120.0,6.0,0.0
4512,66.0,0.0,960.0,11.0,0.0
4513,78.0,120.0,120.0,6.0,0.0
4514,77.0,120.0,120.0,6.0,0.0
4515,75.0,120.0,120.0,6.0,0.0
4516,73.0,120.0,120.0,6.0,0.0
4517,71.0,120.0,120.0,6.0,0.0
4518,70.0,120.0,120.0,6.0,0.0
4519,69.0,0.0,120.0,6.0,0.0
4520,65.0,0.0,960.0,11.0,0.0
4521,70.0,120.0,120.0,6.0,0.0
4522,62.0,0.0,960.0,7.0,0.0
4523,70.0,0.0,960.0,10.0,0.0
4524,62.0,0.0,960.0,12.0,0.0
4525,71.0,120.0,120.0,6.0,0.0
4526,72.0,120.0,120.0,6.0,0.0
4527,73.0,120.0,120.0,6.0,0.0
4528,74.0,120.0,120.0,6.0,0.0
4529,75.0,120.0,120.0,6.0,0.0
4530,76.0,120.0,120.0,6.0,0.0
4531,77.0,120.0,120.0,6.0,0.0
4532,66.0,120.0,960.0,11.0,0.0
4533,63.0,0.0,960.0,7.0,0.0
4534,63.0,0.0,960.0,12.0,0.0
4535,58.0,0.0,15.0,7.0,0.0
4536,69.0,0.0,960.0,10.0,0.0
4537,80.0,120.0,120.0,6.0,0.0
4538,78.0,120.0,120.0,6.0,0.0
4539,77.0,120.0,120.0,6.0,0.0
4540,75.0,120.0,120.0,6.0,0.0
4541,73.0,120.0,120.0,6.0,0.0
4542,71.0,120.0,120.0,6.0,0.0
4543,70.0,120.0,120.0,6.0,0.0
4544,68.0,0.0,120.0,6.0,0.0
4545,58.0,96.0,390.0,13.0,0.0
4546,70.0,120.0,120.0,6.0,0.0
4547,62.0,0.0,390.0,7.0,0.0
4548,62.0,0.0,390.0,12.0,0.0
4549,65.0,0.0,390.0,11.0,0.0
4550,70.0,0.0,390.0,10.0,0.0
4551,58.0,0.0,390.0,7.0,0.0
4552,71.0,120.0,120.0,6.0,0.0
4553,72.0,24.0,120.0,6.0,0.0
4554,70.0,120.0,120.0,6.0,0.0
4555,68.0,120.0,120.0,6.0,0.0
4556,67.0,120.0,120.0,6.0,0.0
4557,65.0,120.0,120.0,6.0,0.0
4558,64.0,120.0,120.0,6.0,0.0
4559,65.0,120.0,120.0,6.0,0.0
4560,67.0,120.0,120.0,6.0,0.0
4561,68.0,120.0,120.0,6.0,0.0
4562,67.0,120.0,120.0,6.0,0.0
4563,65.0,120.0,120.0,6.0,0.0
4564,63.0,120.0,120.0,6.0,0.0
4565,62.0,120.0,120.0,6.0,0.0
4566,60.0,96.0,120.0,6.0,0.0
4567,62.0,120.0,90.0,6.0,0.0
4568,63.0,120.0,90.0,6.0,0.0
4569,65.0,120.0,90.0,6.0,0.0
4570,63.0,120.0,90.0,6.0,0.0
4571,62.0,120.0,90.0,6.0,0.0
4572,60.0,120.0,90.0,6.0,0.0
4573,58.0,120.0,90.0,6.0,0.0
4574,57.0,120.0,90.0,6.0,0.0
4575,58.0,120.0,90.0,6.0,0.0
4576,59.0,120.0,90.0,6.0,0.0
4577,60.0,120.0,90.0,6.0,0.0
4578,58.0,120.0,90.0,6.0,0.0
4579,56.0,120.0,90.0,6.0,0.0
4580,55.0,120.0,90.0,6.0,0.0
4581,53.0,120.0,90.0,6.0,0.0
4582,51.0,144.0,90.0,6.0,0.0
4583,44.0,192.0,3840.0,8.0,0.0
4584,34.0,0.0,3840.0,8.0,0.0
4585,38.0,0.0,3840.0,8.0,0.0
4586,41.0,0.0,3840.0,8.0,0.0
4587,50.0,120.0,120.0,7.0,0.0
4588,51.0,120.0,120.0,7.0,0.0
4589,52.0,120.0,120.0,7.0,0.0
4590,53.0,120.0,120.0,7.0,0.0
4591,54.0,120.0,120.0,7.0,0.0
4592,55.0,120.0,120.0,7.0,0.0
4593,56.0,120.0,120.0,7.0,0.0
4594,57.0,120.0,120.0,7.0,0.0
4595,58.0,120.0,120.0,7.0,0.0
4596,59.0,120.0,120.0,7.0,0.0
4597,60.0,120.0,120.0,7.0,0.0
4598,61.0,120.0,120.0,7.0,0.0
4599,62.0,120.0,120.0,7.0,0.0
4600,63.0,120.0,120.0,7.0,0.0
4601,64.0,120.0,120.0,7.0,0.0
4602,65.0,120.0,120.0,7.0,0.0
4603,66.0,120.0,120.0,7.0,0.0
4604,67.0,120.0,120.0,7.0,0.0
4605,68.0,120.0,120.0,7.0,0.0
4606,69.0,120.0,120.0,7.0,0.0
4607,70.0,120.0,120.0,7.0,0.0
4608,71.0,120.0,120.0,7.0,0.0
4609,72.0,120.0,120.0,7.0,0.0
4610,73.0,120.0,120.0,7.0,0.0
4611,74.0,120.0,120.0,7.0,0.0
4612,75.0,120.0,120.0,7.0,0.0
4613,76.0,120.0,120.0,7.0,0.0
4614,77.0,120.0,120.0,7.0,0.0
4615,78.0,120.0,120.0,7.0,0.0
4616,79.0,120.0,120.0,7.0,0.0
4617,80.0,120.0,120.0,7.0,0.0
4618,81.0,0.0,120.0,7.0,0.0
4619,51.0,0.0,390.0,13.0,0.0
4620,51.0,48.0,180.0,7.0,0.0
4621,82.0,144.0,240.0,6.0,0.0
4622,39.0,96.0,390.0,14.0,0.0
4623,58.0,0.0,240.0,7.0,0.0
4624,79.0,240.0,240.0,6.0,0.0
4625,77.0,144.0,240.0,6.0,0.0
4626,63.0,0.0,390.0,12.0,0.0
4627,70.0,0.0,390.0,10.0,0.0
4628,67.0,48.0,390.0,11.0,0.0
4629,55.0,0.0,240.0,7.0,0.0
4630,58.0,240.0,240.0,7.0,0.0
4631,75.0,48.0,180.0,6.0,0.0
4632,82.0,0.0,240.0,6.0,0.0
4633,51.0,144.0,240.0,7.0,0.0
4634,51.0,96.0,390.0,13.0,0.0
4635,39.0,0.0,390.0,14.0,0.0
4636,79.0,240.0,240.0,6.0,0.0
4637,58.0,0.0,240.0,7.0,0.0
4638,67.0,48.0,390.0,11.0,0.0
4639,63.0,0.0,390.0,12.0,0.0
4640,55.0,0.0,240.0,7.0,0.0
4641,77.0,144.0,240.0,6.0,0.0
4642,70.0,0.0,390.0,10.0,0.0
4643,58.0,240.0,240.0,7.0,0.0
4644,75.0,48.0,180.0,6.0,0.0
4645,84.0,144.0,240.0,6.0,0.0
4646,44.0,96.0,390.0,13.0,0.0
4647,32.0,0.0,390.0,14.0,0.0
4648,44.0,0.0,240.0,7.0,0.0
4649,53.0,0.0,240.0,7.0,0.0
4650,80.0,240.0,240.0,6.0,0.0
4651,65.0,96.0,390.0,11.0,0.0
4652,79.0,0.0,240.0,6.0,0.0
4653,48.0,144.0,240.0,7.0,0.0
4654,68.0,0.0,390.0,10.0,0.0
4655,60.0,0.0,390.0,12.0,0.0
4656,53.0,240.0,240.0,7.0,0.0
4657,77.0,0.0,240.0,6.0,0.0
4658,32.0,96.0,390.0,14.0,0.0
4659,44.0,0.0,390.0,13.0,0.0
4660,44.0,144.0,240.0,7.0,0.0
4661,77.0,0.0,960.0,6.0,0.0
4662,53.0,240.0,240.0,7.0,0.0
4663,68.0,0.0,390.0,10.0,0.0
4664,65.0,0.0,390.0,11.0,0.0
4665,48.0,144.0,240.0,7.0,0.0
4666,60.0,96.0,390.0,12.0,0.0
4667,53.0,240.0,240.0,7.0,0.0
4668,46.0,144.0,240.0,7.0,0.0
4669,80.0,0.0,240.0,6.0,0.0
4670,34.0,0.0,390.0,14.0,0.0
4671,46.0,96.0,390.0,13.0,0.0
4672,56.0,0.0,240.0,7.0,0.0
4673,77.0,240.0,240.0,6.0,0.0
4674,65.0,0.0,390.0,10.0,0.0
4675,58.0,0.0,390.0,12.0,0.0
4676,53.0,0.0,240.0,7.0,0.0
4677,75.0,144.0,240.0,6.0,0.0
4678,62.0,48.0,390.0,11.0,0.0
4679,56.0,240.0,240.0,7.0,0.0
4680,74.0,48.0,180.0,6.0,0.0
4681,80.0,0.0,240.0,6.0,0.0
4682,46.0,144.0,240.0,7.0,0.0
4683,34.0,96.0,390.0,14.0,0.0
4684,46.0,0.0,390.0,13.0,0.0
4685,77.0,0.0,240.0,6.0,0.0
4686,56.0,240.0,240.0,7.0,0.0
4687,75.0,144.0,240.0,6.0,0.0
4688,65.0,0.0,390.0,10.0,0.0
4689,58.0,0.0,390.0,12.0,0.0
4690,62.0,48.0,390.0,11.0,0.0
4691,53.0,0.0,240.0,7.0,0.0
4692,74.0,48.0,180.0,6.0,0.0
4693,56.0,240.0,240.0,7.0,0.0
4694,31.0,96.0,390.0,14.0,0.0
4695,43.0,0.0,390.0,13.0,0.0
4696,82.0,144.0,240.0,6.0,0.0
4697,43.0,0.0,240.0,7.0,0.0
4698,51.0,0.0,240.0,7.0,0.0
4699,79.0,240.0,240.0,6.0,0.0
4700,70.0,0.0,390.0,10.0,0.0
4701,63.0,0.0,390.0,11.0,0.0
4702,46.0,0.0,240.0,7.0,0.0
4703,77.0,144.0,240.0,6.0,0.0
4704,58.0,96.0,390.0,12.0,0.0
4705,51.0,0.0,240.0,7.0,0.0
4706,31.0,0.0,390.0,14.0,0.0
4707,43.0,144.0,240.0,7.0,0.0
4708,75.0,240.0,15.0,6.0,0.0
4709,43.0,96.0,390.0,13.0,0.0
4710,51.0,240.0,240.0,7.0,0.0
4711,63.0,0.0,390.0,11.0,0.0
4712,70.0,0.0,390.0,10.0,0.0
4713,58.0,96.0,390.0,12.0,0.0
4714,46.0,144.0,240.0,7.0,0.0
4715,51.0,720.0,240.0,7.0,0.0
4716,75.0,144.0,720.0,6.0,0.0
4717,58.0,48.0,390.0,7.0,0.0
4718,55.0,0.0,390.0,7.0,0.0
4719,79.0,288.0,180.0,6.0,0.0
4720,58.0,48.0,780.0,7.0,0.0
4721,56.0,0.0,780.0,7.0,0.0
4722,77.0,96.0,240.0,6.0,0.0
4723,80.0,384.0,90.0,6.0,0.0
4724,74.0,48.0,240.0,6.0,0.0
4725,77.0,864.0,90.0,6.0,0.0
4726,75.0,120.0,720.0,6.0,0.0
4727,58.0,96.0,390.0,7.0,0.0
4728,55.0,0.0,390.0,7.0,0.0
4729,75.0,24.0,120.0,6.0,0.0
4730,79.0,144.0,120.0,6.0,0.0
4731,58.0,72.0,780.0,7.0,0.0
4732,56.0,0.0,780.0,7.0,0.0
4733,77.0,216.0,150.0,6.0,0.0
4734,77.0,120.0,120.0,6.0,0.0
4735,80.0,144.0,120.0,6.0,0.0
4736,74.0,144.0,150.0,6.0,0.0
4737,74.0,120.0,120.0,6.0,0.0
4738,77.0,120.0,120.0,6.0,0.0
4739,55.0,0.0,390.0,7.0,0.0
4740,58.0,96.0,390.0,7.0,0.0
4741,75.0,120.0,120.0,6.0,0.0
4742,70.0,120.0,120.0,6.0,0.0
4743,72.0,24.0,120.0,6.0,0.0
4744,73.0,120.0,120.0,6.0,0.0
4745,74.0,120.0,120.0,6.0,0.0
4746,75.0,120.0,120.0,6.0,0.0
4747,76.0,120.0,120.0,6.0,0.0
4748,77.0,120.0,120.0,6.0,0.0
4749,78.0,120.0,120.0,6.0,0.0
4750,79.0,120.0,120.0,6.0,0.0
4751,80.0,120.0,120.0,6.0,0.0
4752,81.0,144.0,120.0,6.0,0.0
4753,55.0,0.0,150.0,7.0,0.0
4754,82.0,240.0,150.0,6.0,0.0
4755,63.0,0.0,150.0,7.0,0.0
4756,57.0,816.0,150.0,7.0,0.0
4757,84.0,0.0,150.0,6.0,0.0
4758,63.0,0.0,150.0,7.0,0.0
4759,79.0,120.0,720.0,6.0,0.0
4760,58.0,0.0,1350.0,7.0,0.0
4761,63.0,0.0,960.0,7.0,0.0
4762,80.0,120.0,120.0,6.0,0.0
4763,79.0,240.0,120.0,6.0,0.0
4764,62.0,96.0,390.0,7.0,0.0
4765,77.0,144.0,240.0,6.0,0.0
4766,79.0,240.0,240.0,6.0,0.0
4767,80.0,240.0,240.0,6.0,0.0
4768,81.0,240.0,240.0,6.0,0.0
4769,51.0,0.0,390.0,13.0,0.0
4770,39.0,96.0,390.0,14.0,0.0
4771,70.0,0.0,240.0,1.0,0.0
4772,82.0,0.0,390.0,6.0,0.0
4773,82.0,144.0,240.0,0.0,0.0
4774,51.0,0.0,240.0,2.0,0.0
4775,79.0,0.0,240.0,0.0,0.0
4776,55.0,240.0,240.0,2.0,0.0
4777,67.0,0.0,240.0,1.0,0.0
4778,77.0,192.0,240.0,0.0,0.0
4779,65.0,0.0,240.0,1.0,0.0
4780,56.0,0.0,240.0,2.0,0.0
4781,53.0,0.0,240.0,2.0,0.0
4782,75.0,48.0,180.0,0.0,0.0
4783,63.0,0.0,180.0,1.0,0.0
4784,55.0,240.0,240.0,2.0,0.0
4785,58.0,0.0,240.0,2.0,0.0
4786,51.0,0.0,390.0,13.0,0.0
4787,70.0,0.0,240.0,1.0,0.0
4788,39.0,96.0,390.0,14.0,0.0
4789,82.0,144.0,240.0,0.0,0.0
4790,67.0,240.0,240.0,1.0,0.0
4791,55.0,0.0,240.0,2.0,0.0
4792,51.0,0.0,240.0,2.0,0.0
4793,79.0,0.0,240.0,0.0,0.0
4794,53.0,0.0,240.0,2.0,0.0
4795,56.0,0.0,240.0,2.0,0.0
4796,77.0,0.0,240.0,0.0,0.0
4797,65.0,192.0,240.0,1.0,0.0
4798,63.0,0.0,180.0,1.0,0.0
4799,75.0,48.0,180.0,0.0,0.0
4800,58.0,0.0,240.0,2.0,0.0
4801,55.0,240.0,240.0,2.0,0.0
4802,44.0,0.0,390.0,13.0,0.0
4803,72.0,0.0,240.0,1.0,0.0
4804,84.0,144.0,240.0,0.0,0.0
4805,32.0,96.0,390.0,14.0,0.0
4806,68.0,0.0,240.0,1.0,0.0
4807,56.0,0.0,240.0,2.0,0.0
4808,53.0,240.0,240.0,2.0,0.0
4809,80.0,0.0,240.0,0.0,0.0
4810,79.0,192.0,240.0,0.0,0.0
4811,67.0,0.0,240.0,1.0,0.0
4812,55.0,0.0,240.0,2.0,0.0
4813,58.0,0.0,240.0,2.0,0.0
4814,77.0,48.0,180.0,0.0,0.0
4815,65.0,0.0,180.0,1.0,0.0
4816,60.0,240.0,240.0,2.0,0.0
4817,56.0,0.0,240.0,2.0,0.0
4818,72.0,0.0,240.0,7.0,0.0
4819,65.0,192.0,780.0,1.0,0.0
4820,84.0,144.0,240.0,6.0,0.0
4821,44.0,96.0,390.0,13.0,0.0
4822,32.0,0.0,390.0,14.0,0.0
4823,77.0,0.0,780.0,0.0,0.0
4824,56.0,0.0,240.0,2.0,0.0
4825,53.0,0.0,240.0,2.0,0.0
4826,68.0,0.0,240.0,7.0,0.0
4827,80.0,240.0,240.0,6.0,0.0
4828,79.0,0.0,240.0,6.0,0.0
4829,58.0,0.0,240.0,2.0,0.0
4830,55.0,48.0,240.0,2.0,0.0
4831,67.0,0.0,240.0,7.0,0.0
4832,65.0,240.0,240.0,7.0,0.0
4833,56.0,0.0,240.0,2.0,0.0
4834,60.0,0.0,240.0,2.0,0.0
4835,77.0,0.0,240.0,6.0,0.0
4836,34.0,0.0,390.0,14.0,0.0
4837,68.0,0.0,240.0,1.0,0.0
4838,46.0,96.0,390.0,13.0,0.0
4839,80.0,144.0,240.0,0.0,0.0
4840,50.0,0.0,240.0,2.0,0.0
4841,53.0,0.0,240.0,2.0,0.0
4842,65.0,0.0,240.0,1.0,0.0
4843,77.0,240.0,240.0,0.0,0.0
4844,63.0,0.0,240.0,1.0,0.0
4845,55.0,0.0,240.0,2.0,0.0
4846,75.0,192.0,240.0,0.0,0.0
4847,51.0,0.0,240.0,2.0,0.0
4848,74.0,48.0,180.0,0.0,0.0
4849,62.0,0.0,180.0,1.0,0.0
4850,53.0,240.0,240.0,2.0,0.0
4851,56.0,0.0,240.0,2.0,0.0
4852,80.0,0.0,240.0,0.0,0.0
4853,68.0,144.0,240.0,1.0,0.0
4854,46.0,0.0,390.0,13.0,0.0
4855,34.0,96.0,390.0,14.0,0.0
4856,50.0,0.0,240.0,2.0,0.0
4857,53.0,240.0,240.0,2.0,0.0
4858,77.0,0.0,240.0,0.0,0.0
4859,65.0,0.0,240.0,1.0,0.0
4860,51.0,192.0,240.0,2.0,0.0
4861,75.0,0.0,240.0,0.0,0.0
4862,63.0,0.0,240.0,1.0,0.0
4863,55.0,0.0,240.0,2.0,0.0
4864,74.0,0.0,180.0,0.0,0.0
4865,53.0,240.0,240.0,2.0,0.0
4866,62.0,48.0,180.0,1.0,0.0
4867,56.0,0.0,240.0,2.0,0.0
4868,82.0,0.0,240.0,0.0,0.0
4869,43.0,0.0,390.0,13.0,0.0
4870,70.0,144.0,240.0,1.0,0.0
4871,31.0,96.0,390.0,14.0,0.0
4872,51.0,0.0,240.0,2.0,0.0
4873,79.0,0.0,240.0,0.0,0.0
4874,67.0,240.0,240.0,1.0,0.0
4875,55.0,0.0,240.0,2.0,0.0
4876,65.0,192.0,240.0,1.0,0.0
4877,77.0,0.0,240.0,0.0,0.0
4878,53.0,0.0,240.0,2.0,0.0
4879,56.0,0.0,240.0,2.0,0.0
4880,75.0,48.0,180.0,0.0,0.0
4881,63.0,0.0,180.0,1.0,0.0
4882,55.0,240.0,240.0,2.0,0.0
4883,58.0,0.0,240.0,2.0,0.0
4884,43.0,0.0,390.0,13.0,0.0
4885,31.0,96.0,390.0,14.0,0.0
4886,82.0,144.0,240.0,6.0,0.0
4887,70.0,0.0,240.0,7.0,0.0
4888,75.0,192.0,780.0,0.0,0.0
4889,63.0,0.0,780.0,1.0,0.0
4890,67.0,0.0,240.0,7.0,0.0
4891,51.0,0.0,240.0,2.0,0.0
4892,79.0,0.0,240.0,6.0,0.0
4893,55.0,240.0,240.0,2.0,0.0
4894,77.0,0.0,240.0,6.0,0.0
4895,65.0,0.0,240.0,7.0,0.0
4896,56.0,48.0,240.0,2.0,0.0
4897,53.0,0.0,240.0,2.0,0.0
4898,63.0,720.0,240.0,7.0,0.0
4899,55.0,0.0,240.0,2.0,0.0
4900,58.0,0.0,240.0,2.0,0.0
4901,75.0,0.0,15.0,6.0,0.0
4902,55.0,0.0,480.0,7.0,0.0
4903,58.0,0.0,480.0,7.0,0.0
4904,70.0,0.0,480.0,1.0,0.0
4905,75.0,120.0,120.0,6.0,0.0
4906,79.0,144.0,120.0,6.0,0.0
4907,77.0,216.0,150.0,6.0,0.0
4908,71.0,144.0,480.0,1.0,0.0
4909,56.0,600.0,960.0,7.0,0.0
4910,59.0,0.0,480.0,7.0,0.0
4911,77.0,120.0,120.0,6.0,0.0
4912,80.0,0.0,120.0,6.0,0.0
4913,58.0,0.0,480.0,7.0,0.0
4914,74.0,216.0,150.0,6.0,0.0
4915,70.0,96.0,390.0,1.0,0.0
4916,74.0,24.0,120.0,6.0,0.0
4917,77.0,0.0,120.0,6.0,0.0
4918,75.0,120.0,600.0,6.0,0.0
4919,55.0,0.0,480.0,7.0,0.0
4920,58.0,120.0,480.0,7.0,0.0
4921,82.0,0.0,480.0,0.0,0.0
4922,77.0,120.0,120.0,6.0,0.0
4923,79.0,120.0,120.0,6.0,0.0
4924,75.0,0.0,120.0,6.0,0.0
4925,56.0,120.0,960.0,7.0,0.0
4926,83.0,0.0,480.0,0.0,0.0
4927,77.0,120.0,120.0,6.0,0.0
4928,59.0,120.0,480.0,7.0,0.0
4929,79.0,120.0,120.0,6.0,0.0
4930,80.0,120.0,120.0,6.0,0.0
4931,77.0,0.0,120.0,6.0,0.0
4932,82.0,96.0,390.0,0.0,0.0
4933,58.0,0.0,480.0,7.0,0.0
4934,74.0,120.0,120.0,6.0,0.0
4935,75.0,120.0,120.0,6.0,0.0
4936,77.0,24.0,120.0,6.0,0.0
4937,74.0,0.0,120.0,6.0,0.0
4938,75.0,120.0,120.0,6.0,0.0
4939,55.0,72.0,300.0,7.0,0.0
4940,58.0,0.0,300.0,7.0,0.0
4941,79.0,48.0,120.0,6.0,0.0
4942,75.0,120.0,120.0,6.0,0.0
4943,70.0,120.0,120.0,6.0,0.0
4944,56.0,72.0,300.0,7.0,0.0
4945,72.0,120.0,120.0,6.0,0.0
4946,75.0,48.0,120.0,6.0,0.0
4947,72.0,120.0,120.0,6.0,0.0
4948,68.0,120.0,120.0,6.0,0.0
4949,58.0,72.0,300.0,7.0,0.0
4950,67.0,120.0,120.0,6.0,0.0
4951,70.0,48.0,120.0,6.0,0.0
4952,67.0,120.0,120.0,6.0,0.0
4953,63.0,120.0,120.0,6.0,0.0
4954,46.0,72.0,300.0,7.0,0.0
4955,65.0,120.0,120.0,6.0,0.0
4956,68.0,48.0,120.0,6.0,0.0
4957,65.0,120.0,120.0,6.0,0.0
4958,62.0,192.0,120.0,6.0,0.0
4959,51.0,288.0,390.0,7.0,0.0
4960,63.0,192.0,180.0,6.0,0.0
4961,58.0,480.0,180.0,6.0,0.0
4962,63.0,480.0,180.0,6.0,0.0
4963,67.0,480.0,180.0,6.0,0.0
4964,68.0,80.0,720.0,6.0,0.0
4965,53.0,480.0,180.0,7.0,0.0
4966,46.0,48.0,180.0,7.0,0.0
4967,67.0,80.0,90.0,6.0,0.0
4968,65.0,80.0,90.0,6.0,0.0
4969,63.0,192.0,90.0,6.0,0.0
4970,53.0,192.0,180.0,7.0,0.0
4971,62.0,288.0,390.0,6.0,0.0
4972,56.0,384.0,180.0,7.0,0.0
4973,63.0,0.0,180.0,11.0,0.0
4974,75.0,24.0,180.0,10.0,0.0
4975,55.0,80.0,720.0,7.0,0.0
4976,70.0,96.0,90.0,6.0,0.0
4977,75.0,120.0,90.0,6.0,0.0
4978,79.0,120.0,90.0,6.0,0.0
4979,82.0,120.0,90.0,6.0,0.0
4980,58.0,0.0,180.0,11.0,0.0
4981,70.0,24.0,180.0,10.0,0.0
4982,70.0,96.0,90.0,6.0,0.0
4983,82.0,24.0,90.0,6.0,0.0
4984,70.0,64.0,90.0,6.0,0.0
4985,56.0,16.0,90.0,7.0,0.0
4986,55.0,56.0,90.0,7.0,0.0
4987,82.0,24.0,90.0,6.0,0.0
4988,53.0,96.0,90.0,7.0,0.0
4989,70.0,96.0,90.0,6.0,0.0
4990,63.0,0.0,180.0,11.0,0.0
4991,51.0,72.0,390.0,7.0,0.0
4992,75.0,24.0,180.0,10.0,0.0
4993,82.0,120.0,90.0,6.0,0.0
4994,70.0,48.0,90.0,6.0,0.0
4995,82.0,120.0,90.0,6.0,0.0
4996,70.0,96.0,90.0,6.0,0.0
4997,79.0,24.0,180.0,10.0,0.0
4998,67.0,0.0,180.0,11.0,0.0
4999,82.0,120.0,90.0,6.0,0.0
5000,70.0,120.0,90.0,6.0,0.0
5001,82.0,120.0,90.0,6.0,0.0
5002,53.0,0.0,180.0,13.0,0.0
5003,80.0,0.0,720.0,10.0,0.0
5004,70.0,96.0,90.0,6.0,0.0
5005,41.0,0.0,180.0,14.0,0.0
5006,65.0,24.0,180.0,12.0,0.0
5007,68.0,80.0,720.0,11.0,0.0
5008,82.0,120.0,90.0,6.0,0.0
5009,70.0,120.0,90.0,6.0,0.0
5010,82.0,120.0,90.0,6.0,0.0
5011,34.0,24.0,180.0,14.0,0.0
5012,58.0,0.0,180.0,12.0,0.0
5013,70.0,96.0,90.0,6.0,0.0
5014,46.0,0.0,180.0,13.0,0.0
5015,82.0,24.0,90.0,6.0,0.0
5016,79.0,16.0,90.0,10.0,0.0
5017,67.0,0.0,90.0,11.0,0.0
5018,70.0,64.0,90.0,6.0,0.0
5019,65.0,56.0,90.0,11.0,0.0
5020,77.0,0.0,90.0,10.0,0.0
5021,82.0,24.0,90.0,6.0,0.0
5022,75.0,96.0,90.0,10.0,0.0
5023,63.0,0.0,90.0,11.0,0.0
5024,65.0,0.0,180.0,12.0,0.0
5025,53.0,24.0,180.0,13.0,0.0
5026,70.0,96.0,90.0,6.0,0.0
5027,62.0,72.0,390.0,11.0,0.0
5028,41.0,0.0,180.0,14.0,0.0
5029,74.0,0.0,390.0,10.0,0.0
5030,82.0,120.0,90.0,6.0,0.0
5031,70.0,48.0,90.0,6.0,0.0
5032,82.0,120.0,90.0,6.0,0.0
5033,44.0,0.0,180.0,14.0,0.0
5034,56.0,0.0,180.0,13.0,0.0
5035,68.0,24.0,180.0,12.0,0.0
5036,70.0,96.0,90.0,6.0,0.0
5037,82.0,120.0,90.0,6.0,0.0
5038,70.0,120.0,90.0,6.0,0.0
5039,82.0,120.0,90.0,6.0,0.0
5040,55.0,80.0,720.0,13.0,0.0
5041,82.0,96.0,90.0,6.0,0.0
5042,51.0,0.0,180.0,2.0,0.0
5043,75.0,0.0,180.0,1.0,0.0
5044,63.0,0.0,180.0,1.0,0.0
5045,67.0,0.0,720.0,12.0,0.0
5046,43.0,0.0,720.0,14.0,0.0
5047,39.0,24.0,180.0,2.0,0.0
5048,79.0,120.0,90.0,6.0,0.0
5049,75.0,120.0,90.0,6.0,0.0
5050,70.0,120.0,90.0,6.0,0.0
5051,70.0,0.0,180.0,1.0,0.0
5052,58.0,24.0,180.0,1.0,0.0
5053,67.0,96.0,90.0,6.0,0.0
5054,46.0,0.0,180.0,2.0,0.0
5055,34.0,0.0,180.0,2.0,0.0
5056,70.0,24.0,90.0,6.0,0.0
5057,68.0,0.0,90.0,12.0,0.0
5058,75.0,64.0,90.0,6.0,0.0
5059,44.0,16.0,90.0,14.0,0.0
5060,56.0,0.0,90.0,13.0,0.0
5061,55.0,0.0,90.0,13.0,0.0
5062,43.0,0.0,90.0,14.0,0.0
5063,67.0,56.0,90.0,12.0,0.0
5064,79.0,24.0,90.0,6.0,0.0
5065,65.0,0.0,90.0,12.0,0.0
5066,53.0,0.0,90.0,13.0,0.0
5067,41.0,96.0,90.0,14.0,0.0
5068,51.0,0.0,180.0,2.0,0.0
5069,63.0,0.0,390.0,12.0,0.0
5070,63.0,0.0,180.0,1.0,0.0
5071,75.0,0.0,180.0,1.0,0.0
5072,39.0,24.0,180.0,2.0,0.0
5073,39.0,0.0,390.0,14.0,0.0
5074,82.0,96.0,90.0,6.0,0.0
5075,51.0,72.0,390.0,13.0,0.0
5076,79.0,120.0,90.0,6.0,0.0
5077,75.0,48.0,90.0,6.0,0.0
5078,70.0,120.0,90.0,6.0,0.0
5079,67.0,0.0,180.0,1.0,0.0
5080,55.0,24.0,180.0,2.0,0.0
5081,43.0,0.0,180.0,2.0,0.0
5082,79.0,0.0,180.0,1.0,0.0
5083,67.0,96.0,90.0,6.0,0.0
5084,70.0,120.0,90.0,6.0,0.0
5085,75.0,120.0,90.0,6.0,0.0
5086,79.0,144.0,90.0,6.0,0.0
5087,56.0,0.0,180.0,12.0,0.0
5088,32.0,72.0,120.0,7.0,0.0
5089,84.0,38.0,3810.0,0.0,0.0
5090,82.0,0.0,120.0,6.0,0.0
5091,44.0,48.0,180.0,13.0,0.0
5092,32.0,0.0,180.0,14.0,0.0
5093,44.0,120.0,120.0,7.0,0.0
5094,79.0,0.0,120.0,6.0,0.0
5095,43.0,120.0,120.0,7.0,0.0
5096,75.0,0.0,120.0,6.0,0.0
5097,72.0,120.0,120.0,6.0,0.0
5098,44.0,0.0,120.0,7.0,0.0
5099,27.0,0.0,180.0,14.0,0.0
5100,39.0,48.0,180.0,13.0,0.0
5101,71.0,0.0,120.0,6.0,0.0
5102,36.0,72.0,120.0,7.0,0.0
5103,51.0,0.0,180.0,12.0,0.0
5104,72.0,0.0,120.0,6.0,0.0
5105,48.0,120.0,120.0,7.0,0.0
5106,47.0,120.0,120.0,7.0,0.0
5107,75.0,0.0,120.0,6.0,0.0
5108,79.0,0.0,120.0,6.0,0.0
5109,48.0,120.0,120.0,7.0,0.0
5110,44.0,0.0,180.0,13.0,0.0
5111,39.0,0.0,120.0,7.0,0.0
5112,56.0,48.0,180.0,12.0,0.0
5113,82.0,72.0,120.0,6.0,0.0
5114,32.0,0.0,180.0,14.0,0.0
5115,51.0,0.0,120.0,7.0,0.0
5116,79.0,120.0,120.0,6.0,0.0
5117,50.0,120.0,120.0,7.0,0.0
5118,75.0,0.0,120.0,6.0,0.0
5119,72.0,120.0,120.0,6.0,0.0
5120,51.0,0.0,120.0,7.0,0.0
5121,36.0,48.0,180.0,14.0,0.0
5122,48.0,0.0,180.0,13.0,0.0
5123,71.0,0.0,120.0,6.0,0.0
5124,60.0,0.0,180.0,12.0,0.0
5125,44.0,72.0,120.0,7.0,0.0
5126,72.0,120.0,120.0,6.0,0.0
5127,56.0,0.0,120.0,7.0,0.0
5128,75.0,120.0,120.0,6.0,0.0
5129,55.0,0.0,120.0,7.0,0.0
5130,56.0,0.0,120.0,7.0,0.0
5131,79.0,120.0,120.0,6.0,0.0
5132,77.0,38.0,3810.0,1.0,0.0
5133,62.0,0.0,180.0,11.0,0.0
5134,74.0,48.0,180.0,10.0,0.0
5135,80.0,0.0,3810.0,1.0,0.0
5136,50.0,0.0,120.0,7.0,0.0
5137,80.0,72.0,120.0,6.0,0.0
5138,62.0,0.0,120.0,7.0,0.0
5139,77.0,120.0,120.0,6.0,0.0
5140,74.0,120.0,120.0,6.0,0.0
5141,61.0,0.0,120.0,7.0,0.0
5142,62.0,120.0,120.0,7.0,0.0
5143,72.0,0.0,120.0,6.0,0.0
5144,68.0,0.0,180.0,10.0,0.0
5145,56.0,48.0,180.0,11.0,0.0
5146,44.0,72.0,120.0,7.0,0.0
5147,71.0,0.0,120.0,6.0,0.0
5148,56.0,0.0,120.0,7.0,0.0
5149,72.0,120.0,120.0,6.0,0.0
5150,74.0,0.0,120.0,6.0,0.0
5151,55.0,120.0,120.0,7.0,0.0
5152,56.0,120.0,120.0,7.0,0.0
5153,77.0,0.0,120.0,6.0,0.0
5154,80.0,72.0,120.0,6.0,0.0
5155,62.0,48.0,180.0,11.0,0.0
5156,41.0,0.0,120.0,7.0,0.0
5157,74.0,0.0,180.0,10.0,0.0
5158,77.0,120.0,120.0,6.0,0.0
5159,53.0,0.0,120.0,7.0,0.0
5160,52.0,0.0,120.0,7.0,0.0
5161,74.0,120.0,120.0,6.0,0.0
5162,53.0,120.0,120.0,7.0,0.0
5163,72.0,0.0,120.0,6.0,0.0
5164,77.0,0.0,180.0,10.0,0.0
5165,65.0,48.0,180.0,11.0,0.0
5166,71.0,0.0,120.0,6.0,0.0
5167,38.0,72.0,120.0,7.0,0.0
5168,72.0,120.0,120.0,6.0,0.0
5169,50.0,0.0,120.0,7.0,0.0
5170,49.0,82.0,120.0,7.0,0.0
5171,74.0,0.0,120.0,6.0,0.0
5172,77.0,0.0,120.0,6.0,0.0
5173,50.0,120.0,120.0,7.0,0.0
5174,55.0,0.0,180.0,12.0,0.0
5175,82.0,38.0,3810.0,0.0,0.0
5176,43.0,48.0,180.0,13.0,0.0
5177,31.0,0.0,180.0,14.0,0.0
5178,31.0,0.0,120.0,7.0,0.0
5179,80.0,72.0,120.0,6.0,0.0
5180,77.0,120.0,120.0,6.0,0.0
5181,43.0,0.0,120.0,7.0,0.0
5182,42.0,120.0,120.0,7.0,0.0
5183,74.0,0.0,120.0,6.0,0.0
5184,70.0,120.0,120.0,6.0,0.0
5185,43.0,0.0,120.0,7.0,0.0
5186,50.0,48.0,180.0,12.0,0.0
5187,38.0,0.0,180.0,13.0,0.0
5188,69.0,72.0,120.0,6.0,0.0
5189,34.0,0.0,120.0,7.0,0.0
5190,26.0,0.0,180.0,14.0,0.0
5191,46.0,120.0,120.0,7.0,0.0
5192,70.0,0.0,120.0,6.0,0.0
5193,45.0,0.0,120.0,7.0,0.0
5194,74.0,120.0,120.0,6.0,0.0
5195,46.0,0.0,120.0,7.0,0.0
5196,77.0,120.0,120.0,6.0,0.0
5197,38.0,0.0,120.0,7.0,0.0
5198,43.0,0.0,180.0,13.0,0.0
5199,80.0,72.0,120.0,6.0,0.0
5200,31.0,48.0,180.0,14.0,0.0
5201,55.0,0.0,180.0,12.0,0.0
5202,50.0,120.0,120.0,7.0,0.0
5203,77.0,0.0,120.0,6.0,0.0
5204,74.0,120.0,120.0,6.0,0.0
5205,49.0,0.0,120.0,7.0,0.0
5206,50.0,120.0,120.0,7.0,0.0
5207,70.0,0.0,120.0,6.0,0.0
5208,34.0,0.0,180.0,14.0,0.0
5209,43.0,0.0,120.0,7.0,0.0
5210,46.0,0.0,180.0,13.0,0.0
5211,58.0,48.0,180.0,12.0,0.0
5212,69.0,72.0,120.0,6.0,0.0
5213,55.0,120.0,120.0,7.0,0.0
5214,70.0,0.0,120.0,6.0,0.0
5215,74.0,82.0,120.0,6.0,0.0
5216,54.0,0.0,120.0,7.0,0.0
5217,55.0,120.0,120.0,7.0,0.0
5218,77.0,0.0,120.0,6.0,0.0
5219,79.0,0.0,120.0,6.0,0.0
5220,60.0,48.0,180.0,11.0,0.0
5221,48.0,72.0,120.0,7.0,0.0
5222,72.0,0.0,180.0,10.0,0.0
5223,79.0,0.0,3810.0,1.0,0.0
5224,75.0,38.0,3810.0,1.0,0.0
5225,60.0,0.0,120.0,7.0,0.0
5226,75.0,120.0,120.0,6.0,0.0
5227,59.0,120.0,120.0,7.0,0.0
5228,72.0,0.0,120.0,6.0,0.0
5229,70.0,120.0,120.0,6.0,0.0
5230,60.0,0.0,120.0,7.0,0.0
5231,67.0,0.0,180.0,10.0,0.0
5232,55.0,48.0,180.0,11.0,0.0
5233,43.0,72.0,120.0,7.0,0.0
5234,69.0,0.0,120.0,6.0,0.0
5235,55.0,0.0,120.0,7.0,0.0
5236,70.0,120.0,120.0,6.0,0.0
5237,72.0,0.0,120.0,6.0,0.0
5238,54.0,120.0,120.0,7.0,0.0
5239,55.0,120.0,120.0,7.0,0.0
5240,75.0,0.0,120.0,6.0,0.0
5241,79.0,72.0,120.0,6.0,0.0
5242,60.0,48.0,180.0,11.0,0.0
5243,39.0,0.0,120.0,7.0,0.0
5244,72.0,0.0,180.0,10.0,0.0
5245,51.0,0.0,120.0,7.0,0.0
5246,75.0,120.0,120.0,6.0,0.0
5247,72.0,120.0,120.0,6.0,0.0
5248,50.0,0.0,120.0,7.0,0.0
5249,51.0,120.0,120.0,7.0,0.0
5250,70.0,0.0,120.0,6.0,0.0
5251,75.0,48.0,180.0,10.0,0.0
5252,63.0,0.0,180.0,11.0,0.0
5253,69.0,0.0,120.0,6.0,0.0
5254,36.0,72.0,120.0,7.0,0.0
5255,48.0,0.0,120.0,7.0,0.0
5256,70.0,120.0,120.0,6.0,0.0
5257,47.0,82.0,120.0,7.0,0.0
5258,72.0,0.0,120.0,6.0,0.0
5259,75.0,120.0,120.0,6.0,0.0
5260,48.0,0.0,120.0,7.0,0.0
5261,29.0,0.0,180.0,14.0,0.0
5262,80.0,0.0,3810.0,0.0,0.0
5263,41.0,72.0,120.0,7.0,0.0
5264,41.0,0.0,180.0,13.0,0.0
5265,53.0,48.0,180.0,12.0,0.0
5266,79.0,0.0,120.0,6.0,0.0
5267,53.0,120.0,120.0,7.0,0.0
5268,75.0,0.0,120.0,6.0,0.0
5269,52.0,120.0,120.0,7.0,0.0
5270,72.0,0.0,120.0,6.0,0.0
5271,53.0,120.0,120.0,7.0,0.0
5272,68.0,0.0,120.0,6.0,0.0
5273,48.0,48.0,180.0,12.0,0.0
5274,67.0,0.0,120.0,6.0,0.0
5275,44.0,72.0,120.0,7.0,0.0
5276,24.0,0.0,180.0,14.0,0.0
5277,36.0,0.0,180.0,13.0,0.0
5278,68.0,0.0,120.0,6.0,0.0
5279,56.0,120.0,120.0,7.0,0.0
5280,55.0,120.0,120.0,7.0,0.0
5281,72.0,0.0,120.0,6.0,0.0
5282,75.0,0.0,120.0,6.0,0.0
5283,56.0,120.0,120.0,7.0,0.0
5284,53.0,0.0,180.0,12.0,0.0
5285,41.0,48.0,180.0,13.0,0.0
5286,48.0,72.0,120.0,7.0,0.0
5287,29.0,0.0,180.0,14.0,0.0
5288,79.0,0.0,120.0,6.0,0.0
5289,60.0,0.0,120.0,7.0,0.0
5290,75.0,120.0,120.0,6.0,0.0
5291,72.0,0.0,120.0,6.0,0.0
5292,59.0,120.0,120.0,7.0,0.0
5293,68.0,120.0,120.0,6.0,0.0
5294,60.0,0.0,120.0,7.0,0.0
5295,53.0,0.0,120.0,7.0,0.0
5296,32.0,0.0,180.0,14.0,0.0
5297,67.0,72.0,120.0,6.0,0.0
5298,56.0,0.0,180.0,12.0,0.0
5299,44.0,48.0,180.0,13.0,0.0
5300,65.0,0.0,120.0,7.0,0.0
5301,68.0,120.0,120.0,6.0,0.0
5302,72.0,82.0,120.0,6.0,0.0
5303,64.0,0.0,120.0,7.0,0.0
5304,65.0,120.0,120.0,7.0,0.0
5305,75.0,0.0,120.0,6.0,0.0
5306,77.0,72.0,120.0,6.0,0.0
5307,74.0,38.0,1890.0,1.0,0.0
5308,77.0,0.0,1890.0,1.0,0.0
5309,70.0,48.0,180.0,10.0,0.0
5310,58.0,0.0,180.0,11.0,0.0
5311,46.0,0.0,120.0,7.0,0.0
5312,58.0,0.0,120.0,7.0,0.0
5313,74.0,120.0,120.0,6.0,0.0
5314,70.0,0.0,120.0,6.0,0.0
5315,57.0,120.0,120.0,7.0,0.0
5316,68.0,120.0,120.0,6.0,0.0
5317,58.0,0.0,120.0,7.0,0.0
5318,67.0,0.0,120.0,6.0,0.0
5319,41.0,72.0,120.0,7.0,0.0
5320,53.0,0.0,180.0,11.0,0.0
5321,65.0,48.0,180.0,10.0,0.0
5322,53.0,120.0,120.0,7.0,0.0
5323,68.0,0.0,120.0,6.0,0.0
5324,52.0,0.0,120.0,7.0,0.0
5325,70.0,120.0,120.0,6.0,0.0
5326,53.0,0.0,120.0,7.0,0.0
5327,74.0,120.0,120.0,6.0,0.0
5328,58.0,48.0,180.0,11.0,0.0
5329,77.0,0.0,120.0,6.0,0.0
5330,38.0,72.0,120.0,7.0,0.0
5331,70.0,0.0,180.0,10.0,0.0
5332,50.0,0.0,120.0,7.0,0.0
5333,74.0,120.0,120.0,6.0,0.0
5334,49.0,0.0,120.0,7.0,0.0
5335,70.0,120.0,120.0,6.0,0.0
5336,68.0,120.0,120.0,6.0,0.0
5337,50.0,0.0,120.0,7.0,0.0
5338,62.0,48.0,180.0,11.0,0.0
5339,67.0,0.0,120.0,6.0,0.0
5340,74.0,0.0,180.0,10.0,0.0
5341,34.0,72.0,120.0,7.0,0.0
5342,68.0,120.0,120.0,6.0,0.0
5343,46.0,0.0,120.0,7.0,0.0
5344,45.0,0.0,120.0,7.0,0.0
5345,70.0,82.0,120.0,6.0,0.0
5346,74.0,0.0,120.0,6.0,0.0
5347,46.0,120.0,120.0,7.0,0.0
5348,75.0,0.0,390.0,10.0,0.0
5349,79.0,120.0,120.0,6.0,0.0
5350,63.0,96.0,390.0,11.0,0.0
5351,79.0,0.0,390.0,0.0,0.0
5352,51.0,0.0,120.0,7.0,0.0
5353,75.0,0.0,390.0,1.0,0.0
5354,55.0,0.0,120.0,7.0,0.0
5355,75.0,120.0,120.0,6.0,0.0
5356,58.0,0.0,120.0,7.0,0.0
5357,70.0,24.0,120.0,6.0,0.0
5358,67.0,0.0,120.0,6.0,0.0
5359,63.0,120.0,120.0,7.0,0.0
5360,66.0,0.0,120.0,6.0,0.0
5361,62.0,120.0,120.0,7.0,0.0
5362,63.0,120.0,120.0,7.0,0.0
5363,67.0,0.0,120.0,6.0,0.0
5364,58.0,0.0,120.0,7.0,0.0
5365,70.0,120.0,120.0,6.0,0.0
5366,55.0,0.0,120.0,7.0,0.0
5367,75.0,120.0,120.0,6.0,0.0
5368,79.0,120.0,120.0,6.0,0.0
5369,51.0,0.0,120.0,7.0,0.0
5370,75.0,120.0,120.0,6.0,0.0
5371,55.0,0.0,120.0,7.0,0.0
5372,70.0,120.0,120.0,6.0,0.0
5373,58.0,0.0,120.0,7.0,0.0
5374,63.0,120.0,120.0,7.0,0.0
5375,67.0,0.0,120.0,6.0,0.0
5376,70.0,0.0,150.0,11.0,0.0
5377,79.0,0.0,150.0,10.0,0.0
5378,39.0,0.0,150.0,14.0,0.0
5379,63.0,96.0,150.0,12.0,0.0
5380,79.0,24.0,120.0,6.0,0.0
5381,51.0,0.0,150.0,13.0,0.0
5382,51.0,0.0,120.0,7.0,0.0
5383,63.0,0.0,120.0,7.0,0.0
5384,67.0,120.0,120.0,6.0,0.0
5385,65.0,0.0,150.0,12.0,0.0
5386,50.0,24.0,120.0,7.0,0.0
5387,50.0,0.0,150.0,13.0,0.0
5388,70.0,0.0,150.0,11.0,0.0
5389,77.0,96.0,150.0,10.0,0.0
5390,38.0,0.0,150.0,14.0,0.0
5391,77.0,0.0,120.0,6.0,0.0
5392,65.0,0.0,120.0,6.0,0.0
5393,62.0,120.0,120.0,7.0,0.0
5394,75.0,120.0,120.0,6.0,0.0
5395,36.0,96.0,390.0,14.0,0.0
5396,72.0,0.0,390.0,11.0,0.0
5397,67.0,0.0,390.0,12.0,0.0
5398,48.0,0.0,390.0,13.0,0.0
5399,48.0,0.0,120.0,7.0,0.0
5400,75.0,0.0,390.0,10.0,0.0
5401,51.0,0.0,120.0,7.0,0.0
5402,72.0,120.0,120.0,6.0,0.0
5403,67.0,0.0,120.0,6.0,0.0
5404,55.0,24.0,120.0,7.0,0.0
5405,63.0,0.0,120.0,6.0,0.0
5406,60.0,120.0,120.0,7.0,0.0
5407,59.0,120.0,120.0,7.0,0.0
5408,62.0,0.0,120.0,6.0,0.0
5409,63.0,0.0,120.0,6.0,0.0
5410,60.0,120.0,120.0,7.0,0.0
5411,67.0,120.0,120.0,6.0,0.0
5412,55.0,0.0,120.0,7.0,0.0
5413,51.0,0.0,120.0,7.0,0.0
5414,72.0,120.0,120.0,6.0,0.0
5415,48.0,120.0,120.0,7.0,0.0
5416,75.0,0.0,120.0,6.0,0.0
5417,72.0,0.0,120.0,6.0,0.0
5418,51.0,120.0,120.0,7.0,0.0
5419,67.0,0.0,120.0,6.0,0.0
5420,55.0,120.0,120.0,7.0,0.0
5421,60.0,0.0,120.0,7.0,0.0
5422,63.0,120.0,120.0,6.0,0.0
5423,67.0,96.0,150.0,11.0,0.0
5424,75.0,0.0,150.0,10.0,0.0
5425,48.0,0.0,150.0,14.0,0.0
5426,48.0,24.0,120.0,7.0,0.0
5427,60.0,0.0,150.0,12.0,0.0
5428,60.0,0.0,150.0,13.0,0.0
5429,75.0,0.0,120.0,6.0,0.0
5430,63.0,120.0,120.0,6.0,0.0
5431,60.0,0.0,120.0,7.0,0.0
5432,67.0,96.0,150.0,11.0,0.0
5433,74.0,0.0,150.0,10.0,0.0
5434,74.0,24.0,120.0,6.0,0.0
5435,58.0,0.0,150.0,13.0,0.0
5436,46.0,0.0,120.0,7.0,0.0
5437,62.0,0.0,150.0,12.0,0.0
5438,46.0,0.0,150.0,14.0,0.0
5439,58.0,120.0,120.0,7.0,0.0
5440,62.0,0.0,120.0,6.0,0.0
5441,72.0,96.0,390.0,10.0,0.0
5442,56.0,0.0,390.0,13.0,0.0
5443,44.0,0.0,390.0,14.0,0.0
5444,72.0,0.0,120.0,6.0,0.0
5445,63.0,0.0,390.0,12.0,0.0
5446,68.0,0.0,390.0,11.0,0.0
5447,44.0,120.0,120.0,7.0,0.0
5448,68.0,0.0,120.0,6.0,0.0
5449,48.0,120.0,120.0,7.0,0.0
5450,51.0,0.0,120.0,7.0,0.0
5451,63.0,24.0,120.0,6.0,0.0
5452,56.0,120.0,120.0,7.0,0.0
5453,60.0,0.0,120.0,6.0,0.0
5454,55.0,120.0,120.0,7.0,0.0
5455,59.0,0.0,120.0,6.0,0.0
5456,60.0,0.0,120.0,6.0,0.0
5457,56.0,120.0,120.0,7.0,0.0
5458,63.0,120.0,120.0,6.0,0.0
5459,51.0,0.0,120.0,7.0,0.0
5460,68.0,120.0,120.0,6.0,0.0
5461,48.0,0.0,120.0,7.0,0.0
5462,44.0,0.0,120.0,7.0,0.0
5463,72.0,120.0,120.0,6.0,0.0
5464,48.0,120.0,120.0,7.0,0.0
5465,68.0,0.0,120.0,6.0,0.0
5466,63.0,120.0,120.0,6.0,0.0
5467,51.0,0.0,120.0,7.0,0.0
5468,56.0,0.0,120.0,7.0,0.0
5469,60.0,120.0,120.0,6.0,0.0
5470,72.0,0.0,120.0,6.0,0.0
5471,63.0,0.0,150.0,11.0,0.0
5472,56.0,96.0,150.0,12.0,0.0
5473,72.0,0.0,150.0,10.0,0.0
5474,44.0,0.0,150.0,14.0,0.0
5475,56.0,0.0,150.0,13.0,0.0
5476,44.0,24.0,120.0,7.0,0.0
5477,56.0,0.0,120.0,7.0,0.0
5478,60.0,120.0,120.0,6.0,0.0
5479,58.0,0.0,150.0,12.0,0.0
5480,43.0,0.0,150.0,14.0,0.0
5481,43.0,0.0,120.0,7.0,0.0
5482,70.0,0.0,150.0,10.0,0.0
5483,63.0,96.0,150.0,11.0,0.0
5484,55.0,0.0,150.0,13.0,0.0
5485,70.0,24.0,120.0,6.0,0.0
5486,55.0,0.0,120.0,7.0,0.0
5487,58.0,120.0,120.0,6.0,0.0
5488,68.0,0.0,300.0,10.0,0.0
5489,65.0,48.0,300.0,11.0,0.0
5490,41.0,0.0,300.0,14.0,0.0
5491,41.0,120.0,120.0,7.0,0.0
5492,53.0,0.0,300.0,13.0,0.0
5493,60.0,0.0,300.0,12.0,0.0
5494,68.0,0.0,120.0,6.0,0.0
5495,44.0,0.0,120.0,7.0,0.0
5496,65.0,72.0,120.0,6.0,0.0
5497,60.0,0.0,120.0,6.0,0.0
5498,48.0,120.0,120.0,7.0,0.0
5499,56.0,0.0,120.0,6.0,0.0
5500,53.0,120.0,120.0,7.0,0.0
5501,68.0,36.0,120.0,6.0,0.0
5502,41.0,84.0,150.0,14.0,0.0
5503,60.0,0.0,150.0,11.0,0.0
5504,68.0,0.0,150.0,10.0,0.0
5505,53.0,0.0,150.0,12.0,0.0
5506,41.0,0.0,120.0,7.0,0.0
5507,53.0,0.0,150.0,13.0,0.0
5508,53.0,120.0,120.0,7.0,0.0
5509,56.0,0.0,120.0,6.0,0.0
5510,67.0,36.0,120.0,6.0,0.0
5511,55.0,0.0,150.0,12.0,0.0
5512,51.0,0.0,150.0,13.0,0.0
5513,67.0,0.0,150.0,10.0,0.0
5514,39.0,0.0,120.0,7.0,0.0
5515,39.0,0.0,150.0,14.0,0.0
5516,60.0,84.0,150.0,11.0,0.0
5517,55.0,0.0,120.0,6.0,0.0
5518,51.0,120.0,120.0,7.0,0.0
5519,65.0,120.0,120.0,6.0,0.0
5520,56.0,0.0,300.0,12.0,0.0
5521,38.0,0.0,120.0,7.0,0.0
5522,50.0,0.0,300.0,13.0,0.0
5523,38.0,0.0,300.0,14.0,0.0
5524,62.0,48.0,300.0,11.0,0.0
5525,65.0,0.0,300.0,10.0,0.0
5526,41.0,72.0,120.0,7.0,0.0
5527,62.0,0.0,120.0,6.0,0.0
5528,44.0,0.0,120.0,7.0,0.0
5529,56.0,120.0,120.0,6.0,0.0
5530,53.0,120.0,120.0,6.0,0.0
5531,50.0,0.0,120.0,7.0,0.0
5532,38.0,84.0,150.0,14.0,0.0
5533,38.0,36.0,120.0,7.0,0.0
5534,50.0,0.0,150.0,12.0,0.0
5535,65.0,0.0,120.0,6.0,0.0
5536,56.0,0.0,150.0,11.0,0.0
5537,65.0,0.0,150.0,10.0,0.0
5538,50.0,0.0,150.0,13.0,0.0
5539,50.0,0.0,120.0,7.0,0.0
5540,53.0,120.0,120.0,6.0,0.0
5541,48.0,0.0,150.0,13.0,0.0
5542,63.0,0.0,120.0,6.0,0.0
5543,63.0,0.0,150.0,10.0,0.0
5544,51.0,0.0,150.0,12.0,0.0
5545,36.0,36.0,120.0,7.0,0.0
5546,36.0,84.0,150.0,14.0,0.0
5547,56.0,0.0,150.0,11.0,0.0
5548,51.0,0.0,120.0,6.0,0.0
5549,48.0,120.0,120.0,7.0,0.0
5550,56.0,96.0,4230.0,11.0,0.0
5551,34.0,120.0,720.0,14.0,0.0
5552,62.0,120.0,120.0,6.0,0.0
5553,62.0,0.0,720.0,10.0,0.0
5554,46.0,0.0,720.0,7.0,0.0
5555,34.0,0.0,720.0,7.0,0.0
5556,46.0,0.0,720.0,13.0,0.0
5557,53.0,0.0,4230.0,12.0,0.0
5558,68.0,120.0,120.0,6.0,0.0
5559,65.0,120.0,120.0,6.0,0.0
5560,62.0,120.0,120.0,6.0,0.0
5561,58.0,120.0,120.0,6.0,0.0
5562,68.0,0.0,120.0,6.0,0.0
5563,47.0,0.0,240.0,7.0,0.0
5564,35.0,0.0,240.0,7.0,0.0
5565,59.0,120.0,120.0,6.0,0.0
5566,47.0,0.0,240.0,13.0,0.0
5567,35.0,0.0,240.0,14.0,0.0
5568,63.0,0.0,240.0,10.0,0.0
5569,68.0,120.0,120.0,6.0,0.0
5570,62.0,0.0,240.0,10.0,0.0
5571,34.0,0.0,240.0,7.0,0.0
5572,46.0,0.0,240.0,7.0,0.0
5573,46.0,120.0,240.0,13.0,0.0
5574,58.0,120.0,120.0,6.0,0.0
5575,34.0,0.0,240.0,14.0,0.0
5576,68.0,0.0,120.0,6.0,0.0
5577,35.0,0.0,240.0,7.0,0.0
5578,63.0,0.0,240.0,10.0,0.0
5579,35.0,0.0,240.0,14.0,0.0
5580,59.0,120.0,120.0,6.0,0.0
5581,47.0,0.0,240.0,7.0,0.0
5582,47.0,120.0,240.0,13.0,0.0
5583,68.0,0.0,120.0,6.0,0.0
5584,46.0,0.0,240.0,7.0,0.0
5585,62.0,0.0,240.0,10.0,0.0
5586,46.0,0.0,240.0,13.0,0.0
5587,34.0,120.0,240.0,7.0,0.0
5588,34.0,0.0,240.0,14.0,0.0
5589,58.0,120.0,120.0,6.0,0.0
5590,68.0,0.0,120.0,6.0,0.0
5591,47.0,0.0,240.0,13.0,0.0
5592,63.0,0.0,240.0,10.0,0.0
5593,35.0,0.0,240.0,14.0,0.0
5594,59.0,120.0,120.0,6.0,0.0
5595,47.0,0.0,240.0,7.0,0.0
5596,35.0,0.0,240.0,7.0,0.0
5597,68.0,120.0,120.0,6.0,0.0
5598,46.0,0.0,720.0,7.0,0.0
5599,34.0,0.0,720.0,7.0,0.0
5600,62.0,0.0,720.0,10.0,0.0
5601,46.0,0.0,720.0,13.0,0.0
5602,34.0,120.0,720.0,14.0,0.0
5603,62.0,120.0,120.0,6.0,0.0
5604,68.0,120.0,120.0,6.0,0.0
5605,65.0,120.0,120.0,6.0,0.0
5606,62.0,120.0,120.0,6.0,0.0
5607,58.0,120.0,120.0,6.0,0.0
5608,68.0,0.0,120.0,6.0,0.0
5609,59.0,120.0,120.0,6.0,0.0
5610,35.0,0.0,240.0,7.0,0.0
5611,47.0,0.0,240.0,13.0,0.0
5612,35.0,120.0,240.0,14.0,0.0
5613,47.0,0.0,240.0,7.0,0.0
5614,63.0,0.0,240.0,10.0,0.0
5615,68.0,0.0,120.0,6.0,0.0
5616,58.0,120.0,120.0,6.0,0.0
5617,46.0,0.0,240.0,7.0,0.0
5618,34.0,0.0,240.0,7.0,0.0
5619,62.0,0.0,240.0,10.0,0.0
5620,46.0,0.0,240.0,13.0,0.0
5621,34.0,120.0,240.0,14.0,0.0
5622,68.0,0.0,120.0,6.0,0.0
5623,59.0,120.0,120.0,6.0,0.0
5624,47.0,0.0,240.0,13.0,0.0
5625,63.0,0.0,240.0,10.0,0.0
5626,35.0,0.0,240.0,14.0,0.0
5627,35.0,0.0,240.0,7.0,0.0
5628,47.0,0.0,240.0,7.0,0.0
5629,68.0,120.0,120.0,6.0,0.0
5630,46.0,0.0,240.0,7.0,0.0
5631,46.0,120.0,240.0,13.0,0.0
5632,58.0,120.0,120.0,6.0,0.0
5633,34.0,0.0,240.0,7.0,0.0
5634,62.0,0.0,240.0,10.0,0.0
5635,34.0,0.0,240.0,14.0,0.0
5636,68.0,0.0,120.0,6.0,0.0
5637,47.0,0.0,240.0,7.0,0.0
5638,35.0,0.0,240.0,7.0,0.0
5639,63.0,0.0,240.0,10.0,0.0
5640,35.0,0.0,240.0,14.0,0.0
5641,47.0,0.0,240.0,13.0,0.0
5642,59.0,120.0,120.0,6.0,0.0
5643,68.0,120.0,120.0,6.0,0.0
5644,62.0,0.0,390.0,10.0,0.0
5645,46.0,48.0,180.0,7.0,0.0
5646,34.0,0.0,180.0,7.0,0.0
5647,34.0,0.0,390.0,14.0,0.0
5648,46.0,0.0,390.0,13.0,0.0
5649,58.0,72.0,120.0,6.0,0.0
5650,68.0,120.0,120.0,6.0,0.0
5651,33.0,0.0,240.0,7.0,0.0
5652,45.0,0.0,240.0,7.0,0.0
5653,57.0,24.0,120.0,6.0,0.0
5654,68.0,120.0,120.0,6.0,0.0
5655,34.0,0.0,240.0,7.0,0.0
5656,46.0,120.0,240.0,7.0,0.0
5657,58.0,120.0,120.0,6.0,0.0
5658,68.0,0.0,120.0,6.0,0.0
5659,47.0,0.0,240.0,7.0,0.0
5660,35.0,120.0,240.0,7.0,0.0
5661,59.0,120.0,120.0,6.0,0.0
5662,68.0,0.0,120.0,6.0,0.0
5663,60.0,120.0,120.0,6.0,0.0
5664,48.0,120.0,240.0,7.0,0.0
5665,36.0,0.0,240.0,7.0,0.0
5666,68.0,0.0,120.0,6.0,0.0
5667,37.0,0.0,240.0,7.0,0.0
5668,61.0,120.0,120.0,6.0,0.0
5669,49.0,0.0,240.0,7.0,0.0
5670,68.0,120.0,120.0,6.0,0.0
5671,50.0,0.0,240.0,7.0,0.0
5672,38.0,120.0,240.0,7.0,0.0
5673,62.0,120.0,120.0,6.0,0.0
5674,68.0,0.0,120.0,6.0,0.0
5675,63.0,120.0,120.0,6.0,0.0
5676,39.0,120.0,240.0,7.0,0.0
5677,51.0,0.0,240.0,7.0,0.0
5678,68.0,0.0,120.0,6.0,0.0
5679,64.0,120.0,120.0,6.0,0.0
5680,40.0,0.0,240.0,7.0,0.0
5681,52.0,120.0,240.0,7.0,0.0
5682,68.0,0.0,120.0,6.0,0.0
5683,65.0,120.0,120.0,6.0,0.0
5684,41.0,120.0,240.0,7.0,0.0
5685,53.0,0.0,240.0,7.0,0.0
5686,68.0,0.0,120.0,6.0,0.0
5687,40.0,0.0,240.0,7.0,0.0
5688,64.0,120.0,120.0,6.0,0.0
5689,52.0,120.0,240.0,7.0,0.0
5690,68.0,0.0,120.0,6.0,0.0
5691,63.0,120.0,120.0,6.0,0.0
5692,39.0,0.0,240.0,7.0,0.0
5693,51.0,0.0,240.0,7.0,0.0
5694,68.0,120.0,120.0,6.0,0.0
5695,62.0,120.0,120.0,6.0,0.0
5696,38.0,120.0,240.0,7.0,0.0
5697,50.0,0.0,240.0,7.0,0.0
5698,68.0,0.0,120.0,6.0,0.0
5699,61.0,120.0,120.0,6.0,0.0
5700,49.0,120.0,240.0,7.0,0.0
5701,37.0,0.0,240.0,7.0,0.0
5702,68.0,0.0,120.0,6.0,0.0
5703,60.0,120.0,120.0,6.0,0.0
5704,36.0,120.0,240.0,7.0,0.0
5705,48.0,0.0,240.0,7.0,0.0
5706,68.0,0.0,120.0,6.0,0.0
5707,59.0,120.0,120.0,6.0,0.0
5708,35.0,0.0,240.0,7.0,0.0
5709,47.0,384.0,240.0,7.0,0.0
5710,68.0,0.0,120.0,6.0,0.0
5711,58.0,408.0,390.0,6.0,0.0
5712,34.0,0.0,390.0,7.0,0.0
5713,46.0,0.0,390.0,7.0,0.0
5714,77.0,0.0,300.0,6.0,0.0
5715,47.0,0.0,300.0,2.0,0.0
5716,59.0,0.0,300.0,2.0,0.0
5717,80.0,0.0,300.0,6.0,0.0
5718,68.0,0.0,300.0,6.0,0.0
5719,74.0,480.0,300.0,6.0,0.0
5720,74.0,0.0,300.0,0.0,0.0
5721,35.0,0.0,300.0,7.0,0.0
5722,47.0,0.0,300.0,7.0,0.0
5723,65.0,0.0,300.0,1.0,0.0
5724,68.0,0.0,300.0,1.0,0.0
5725,60.0,0.0,300.0,2.0,0.0
5726,48.0,0.0,300.0,2.0,0.0
5727,36.0,0.0,300.0,7.0,0.0
5728,75.0,0.0,300.0,0.0,0.0
5729,67.0,480.0,300.0,6.0,0.0
5730,48.0,0.0,300.0,7.0,0.0
5731,75.0,0.0,300.0,6.0,0.0
5732,72.0,0.0,300.0,6.0,0.0
5733,67.0,0.0,300.0,1.0,0.0
5734,79.0,0.0,300.0,6.0,0.0
5735,63.0,0.0,300.0,1.0,0.0
5736,51.0,0.0,300.0,3.0,0.0
5737,63.0,0.0,300.0,3.0,0.0
5738,82.0,0.0,300.0,6.0,0.0
5739,73.0,552.0,300.0,6.0,0.0
5740,34.0,0.0,300.0,7.0,0.0
5741,46.0,0.0,300.0,7.0,0.0
5742,75.0,0.0,300.0,6.0,0.0
5743,79.0,0.0,300.0,6.0,0.0
5744,46.0,0.0,300.0,2.0,0.0
5745,67.0,0.0,300.0,1.0,0.0
5746,61.0,0.0,300.0,1.0,0.0
5747,73.0,0.0,300.0,0.0,0.0
5748,58.0,0.0,300.0,2.0,0.0
5749,68.0,0.0,390.0,1.0,0.0
5750,60.0,0.0,390.0,1.0,0.0
5751,72.0,0.0,390.0,0.0,0.0
5752,32.0,0.0,390.0,7.0,0.0
5753,44.0,0.0,390.0,7.0,0.0
5754,63.0,0.0,390.0,3.0,0.0
5755,51.0,0.0,390.0,3.0,0.0
5756,84.0,896.0,390.0,6.0,0.0
5757,75.0,0.0,390.0,6.0,0.0
5758,56.0,0.0,390.0,2.0,0.0
5759,80.0,0.0,390.0,6.0,0.0
5760,44.0,0.0,390.0,2.0,0.0
5761,72.0,0.0,390.0,6.0,0.0
5762,71.0,160.0,150.0,6.0,0.0
5763,72.0,160.0,150.0,6.0,0.0
5764,73.0,160.0,150.0,6.0,0.0
5765,74.0,160.0,150.0,6.0,0.0
5766,75.0,120.0,150.0,6.0,0.0
5767,77.0,120.0,120.0,6.0,0.0
5768,75.0,120.0,120.0,6.0,0.0
5769,74.0,120.0,120.0,6.0,0.0
5770,72.0,240.0,120.0,6.0,0.0
5771,70.0,144.0,240.0,6.0,0.0
5772,63.0,96.0,390.0,7.0,0.0
5773,60.0,0.0,390.0,7.0,0.0
5774,68.0,320.0,240.0,6.0,0.0
5775,63.0,0.0,390.0,7.0,0.0
5776,60.0,96.0,390.0,7.0,0.0
5777,67.0,64.0,150.0,6.0,0.0
5778,68.0,160.0,150.0,6.0,0.0
5779,69.0,160.0,150.0,6.0,0.0
5780,70.0,160.0,150.0,6.0,0.0
5781,72.0,120.0,150.0,6.0,0.0
5782,74.0,120.0,120.0,6.0,0.0
5783,72.0,120.0,120.0,6.0,0.0
5784,70.0,120.0,120.0,6.0,0.0
5785,68.0,240.0,120.0,6.0,0.0
5786,67.0,144.0,240.0,6.0,0.0
5787,56.0,96.0,390.0,7.0,0.0
5788,60.0,0.0,390.0,7.0,0.0
5789,65.0,320.0,240.0,6.0,0.0
5790,60.0,96.0,390.0,7.0,0.0
5791,56.0,0.0,390.0,7.0,0.0
5792,64.0,64.0,150.0,6.0,0.0
5793,65.0,160.0,150.0,6.0,0.0
5794,66.0,160.0,150.0,6.0,0.0
5795,67.0,160.0,150.0,6.0,0.0
5796,68.0,120.0,150.0,6.0,0.0
5797,69.0,120.0,120.0,6.0,0.0
5798,70.0,120.0,120.0,6.0,0.0
5799,71.0,120.0,120.0,6.0,0.0
5800,72.0,120.0,120.0,6.0,0.0
5801,71.0,120.0,120.0,6.0,0.0
5802,70.0,120.0,120.0,6.0,0.0
5803,69.0,120.0,120.0,6.0,0.0
5804,68.0,120.0,120.0,6.0,0.0
5805,67.0,120.0,120.0,6.0,0.0
5806,65.0,120.0,120.0,6.0,0.0
5807,68.0,120.0,120.0,6.0,0.0
5808,67.0,120.0,120.0,6.0,0.0
5809,70.0,120.0,120.0,6.0,0.0
5810,68.0,120.0,120.0,6.0,0.0
5811,67.0,120.0,120.0,6.0,0.0
5812,65.0,240.0,120.0,6.0,0.0
5813,46.0,0.0,390.0,13.0,0.0
5814,34.0,48.0,390.0,14.0,0.0
5815,46.0,144.0,240.0,7.0,0.0
5816,70.0,0.0,1200.0,6.0,0.0
5817,67.0,0.0,180.0,10.0,0.0
5818,63.0,48.0,180.0,11.0,0.0
5819,58.0,0.0,180.0,12.0,0.0
5820,55.0,192.0,240.0,7.0,0.0
5821,67.0,0.0,180.0,10.0,0.0
5822,51.0,192.0,240.0,7.0,0.0
5823,63.0,0.0,180.0,11.0,0.0
5824,58.0,48.0,180.0,12.0,0.0
5825,55.0,192.0,240.0,7.0,0.0
5826,63.0,0.0,180.0,11.0,0.0
5827,67.0,0.0,180.0,10.0,0.0
5828,58.0,48.0,180.0,12.0,0.0
5829,58.0,48.0,180.0,12.0,0.0
5830,46.0,120.0,240.0,7.0,0.0
5831,67.0,0.0,180.0,10.0,0.0
5832,46.0,48.0,390.0,13.0,0.0
5833,63.0,0.0,180.0,11.0,0.0
5834,34.0,0.0,390.0,14.0,0.0
5835,58.0,0.0,180.0,12.0,0.0
5836,67.0,48.0,180.0,10.0,0.0
5837,74.0,24.0,120.0,6.0,0.0
5838,55.0,120.0,240.0,7.0,0.0
5839,63.0,0.0,180.0,11.0,0.0
5840,72.0,0.0,120.0,6.0,0.0
5841,75.0,72.0,120.0,6.0,0.0
5842,51.0,0.0,240.0,7.0,0.0
5843,67.0,48.0,180.0,10.0,0.0
5844,63.0,0.0,180.0,11.0,0.0
5845,58.0,0.0,180.0,12.0,0.0
5846,74.0,120.0,120.0,6.0,0.0
5847,67.0,0.0,180.0,10.0,0.0
5848,77.0,72.0,120.0,6.0,0.0
5849,58.0,48.0,180.0,12.0,0.0
5850,63.0,0.0,180.0,11.0,0.0
5851,55.0,192.0,240.0,7.0,0.0
5852,75.0,0.0,120.0,6.0,0.0
5853,67.0,48.0,180.0,10.0,0.0
5854,46.0,144.0,240.0,7.0,0.0
5855,63.0,0.0,960.0,6.0,0.0
5856,34.0,0.0,390.0,14.0,0.0
5857,63.0,0.0,180.0,11.0,0.0
5858,58.0,0.0,180.0,12.0,0.0
5859,46.0,48.0,390.0,13.0,0.0
5860,63.0,48.0,180.0,11.0,0.0
5861,58.0,0.0,180.0,12.0,0.0
5862,55.0,192.0,240.0,7.0,0.0
5863,67.0,0.0,180.0,10.0,0.0
5864,67.0,0.0,180.0,10.0,0.0
5865,51.0,192.0,240.0,7.0,0.0
5866,63.0,48.0,180.0,11.0,0.0
5867,58.0,0.0,180.0,12.0,0.0
5868,63.0,48.0,180.0,11.0,0.0
5869,67.0,0.0,180.0,10.0,0.0
5870,55.0,60.0,240.0,7.0,0.0
5871,58.0,0.0,180.0,12.0,0.0
5872,56.0,0.0,180.0,12.0,0.0
5873,58.0,0.0,180.0,12.0,0.0
5874,46.0,0.0,240.0,7.0,0.0
5875,46.0,0.0,390.0,13.0,0.0
5876,34.0,36.0,390.0,14.0,0.0
5877,65.0,48.0,180.0,10.0,0.0
5878,62.0,0.0,180.0,11.0,0.0
5879,67.0,60.0,60.0,6.0,0.0
5880,65.0,60.0,60.0,6.0,0.0
5881,67.0,12.0,60.0,6.0,0.0
5882,65.0,60.0,60.0,6.0,0.0
5883,62.0,0.0,180.0,11.0,0.0
5884,58.0,0.0,180.0,12.0,0.0
5885,67.0,60.0,60.0,6.0,0.0
5886,56.0,60.0,240.0,7.0,0.0
5887,56.0,48.0,180.0,12.0,0.0
5888,65.0,0.0,180.0,10.0,0.0
5889,65.0,24.0,60.0,6.0,0.0
5890,67.0,12.0,60.0,6.0,0.0
5891,65.0,0.0,60.0,6.0,0.0
5892,67.0,60.0,60.0,6.0,0.0
5893,50.0,120.0,240.0,7.0,0.0
5894,62.0,0.0,180.0,11.0,0.0
5895,65.0,0.0,180.0,10.0,0.0
5896,56.0,48.0,180.0,12.0,0.0
5897,58.0,0.0,180.0,12.0,0.0
5898,65.0,60.0,60.0,6.0,0.0
5899,67.0,12.0,60.0,6.0,0.0
5900,65.0,0.0,60.0,6.0,0.0
5901,63.0,72.0,120.0,6.0,0.0
5902,56.0,0.0,180.0,12.0,0.0
5903,58.0,48.0,180.0,12.0,0.0
5904,56.0,120.0,240.0,7.0,0.0
5905,62.0,0.0,180.0,11.0,0.0
5906,65.0,0.0,180.0,10.0,0.0
5907,65.0,0.0,120.0,6.0,0.0
5908,55.0,0.0,390.0,12.0,0.0
5909,63.0,120.0,120.0,6.0,0.0
5910,55.0,96.0,390.0,7.0,0.0
5911,51.0,0.0,390.0,7.0,0.0
5912,27.0,0.0,390.0,14.0,0.0
5913,63.0,0.0,390.0,11.0,0.0
5914,63.0,0.0,390.0,10.0,0.0
5915,39.0,0.0,390.0,13.0,0.0
5916,58.0,0.0,390.0,12.0,0.0
5917,67.0,120.0,120.0,6.0,0.0
5918,70.0,24.0,120.0,6.0,0.0
5919,75.0,120.0,120.0,6.0,0.0
5920,63.0,120.0,120.0,6.0,0.0
5921,75.0,120.0,120.0,6.0,0.0
5922,65.0,120.0,120.0,6.0,0.0
5923,77.0,120.0,120.0,6.0,0.0
5924,67.0,120.0,120.0,6.0,0.0
5925,79.0,120.0,120.0,6.0,0.0
5926,68.0,120.0,120.0,6.0,0.0
5927,80.0,120.0,120.0,6.0,0.0
5928,81.0,120.0,120.0,6.0,0.0
5929,56.0,0.0,390.0,7.0,0.0
5930,46.0,0.0,390.0,7.0,0.0
5931,50.0,96.0,390.0,7.0,0.0
5932,53.0,0.0,390.0,7.0,0.0
5933,82.0,120.0,120.0,6.0,0.0
5934,80.0,24.0,120.0,6.0,0.0
5935,77.0,120.0,120.0,6.0,0.0
5936,63.0,120.0,120.0,6.0,0.0
5937,51.0,0.0,390.0,7.0,0.0
5938,55.0,96.0,390.0,7.0,0.0
5939,67.0,120.0,120.0,6.0,0.0
5940,70.0,24.0,120.0,6.0,0.0
5941,75.0,120.0,120.0,6.0,0.0
5942,63.0,120.0,120.0,6.0,0.0
5943,75.0,120.0,120.0,6.0,0.0
5944,65.0,120.0,120.0,6.0,0.0
5945,77.0,120.0,120.0,6.0,0.0
5946,67.0,120.0,120.0,6.0,0.0
5947,79.0,120.0,120.0,6.0,0.0
5948,68.0,120.0,120.0,6.0,0.0
5949,80.0,120.0,120.0,6.0,0.0
5950,53.0,0.0,390.0,7.0,0.0
5951,50.0,0.0,390.0,7.0,0.0
5952,46.0,0.0,390.0,7.0,0.0
5953,56.0,96.0,390.0,7.0,0.0
5954,81.0,120.0,120.0,6.0,0.0
5955,82.0,120.0,120.0,6.0,0.0
5956,80.0,24.0,120.0,6.0,0.0
5957,77.0,240.0,120.0,6.0,0.0
5958,75.0,96.0,390.0,6.0,0.0
5959,39.0,120.0,120.0,7.0,0.0
5960,41.0,24.0,120.0,7.0,0.0
5961,43.0,120.0,120.0,7.0,0.0
5962,44.0,120.0,120.0,7.0,0.0
5963,46.0,120.0,120.0,7.0,0.0
5964,48.0,120.0,120.0,7.0,0.0
5965,50.0,120.0,120.0,7.0,0.0
5966,51.0,120.0,120.0,7.0,0.0
5967,53.0,120.0,120.0,7.0,0.0
5968,75.0,0.0,180.0,6.0,0.0
5969,79.0,48.0,180.0,6.0,0.0
5970,55.0,72.0,120.0,7.0,0.0
5971,56.0,144.0,120.0,7.0,0.0
5972,74.0,0.0,180.0,6.0,0.0
5973,58.0,48.0,150.0,7.0,0.0
5974,77.0,240.0,180.0,6.0,0.0
5975,82.0,0.0,180.0,6.0,0.0
5976,46.0,288.0,180.0,7.0,0.0
5977,75.0,0.0,390.0,6.0,0.0
5978,72.0,0.0,390.0,6.0,0.0
5979,67.0,96.0,390.0,6.0,0.0
5980,36.0,120.0,120.0,7.0,0.0
5981,38.0,24.0,120.0,7.0,0.0
5982,39.0,120.0,120.0,7.0,0.0
5983,41.0,120.0,120.0,7.0,0.0
5984,43.0,120.0,120.0,7.0,0.0
5985,45.0,120.0,120.0,7.0,0.0
5986,47.0,120.0,120.0,7.0,0.0
5987,48.0,120.0,120.0,7.0,0.0
5988,50.0,120.0,120.0,7.0,0.0
5989,72.0,48.0,180.0,6.0,0.0
5990,75.0,0.0,180.0,6.0,0.0
5991,51.0,72.0,120.0,7.0,0.0
5992,53.0,144.0,120.0,7.0,0.0
5993,70.0,0.0,180.0,6.0,0.0
5994,55.0,48.0,150.0,7.0,0.0
5995,74.0,240.0,180.0,6.0,0.0
5996,79.0,0.0,180.0,6.0,0.0
5997,43.0,288.0,180.0,7.0,0.0
5998,63.0,0.0,390.0,6.0,0.0
5999,68.0,0.0,390.0,6.0,0.0
6000,72.0,96.0,390.0,6.0,0.0
6001,32.0,120.0,120.0,7.0,0.0
6002,34.0,24.0,120.0,7.0,0.0
6003,36.0,120.0,120.0,7.0,0.0
6004,37.0,120.0,120.0,7.0,0.0
6005,39.0,120.0,120.0,7.0,0.0
6006,41.0,120.0,120.0,7.0,0.0
6007,43.0,120.0,120.0,7.0,0.0
6008,44.0,120.0,120.0,7.0,0.0
6009,46.0,120.0,120.0,7.0,0.0
6010,72.0,48.0,180.0,6.0,0.0
6011,68.0,0.0,180.0,6.0,0.0
6012,48.0,72.0,120.0,7.0,0.0
6013,50.0,144.0,120.0,7.0,0.0
6014,70.0,240.0,180.0,6.0,0.0
6015,67.0,0.0,180.0,6.0,0.0
6016,51.0,48.0,150.0,7.0,0.0
6017,75.0,168.0,180.0,6.0,0.0
6018,39.0,0.0,180.0,7.0,0.0
6019,68.0,120.0,120.0,6.0,0.0
6020,53.0,0.0,360.0,7.0,0.0
6021,80.0,120.0,120.0,6.0,0.0
6022,68.0,120.0,120.0,6.0,0.0
6023,67.0,120.0,120.0,6.0,0.0
6024,51.0,0.0,120.0,7.0,0.0
6025,65.0,120.0,120.0,6.0,0.0
6026,50.0,0.0,360.0,7.0,0.0
6027,77.0,120.0,120.0,6.0,0.0
6028,65.0,120.0,120.0,6.0,0.0
6029,48.0,120.0,120.0,7.0,0.0
6030,63.0,0.0,120.0,6.0,0.0
6031,62.0,120.0,120.0,6.0,0.0
6032,46.0,0.0,360.0,7.0,0.0
6033,74.0,120.0,120.0,6.0,0.0
6034,62.0,120.0,120.0,6.0,0.0
6035,60.0,120.0,120.0,6.0,0.0
6036,44.0,0.0,120.0,7.0,0.0
6037,58.0,120.0,120.0,6.0,0.0
6038,43.0,120.0,360.0,7.0,0.0
6039,70.0,120.0,120.0,6.0,0.0
6040,58.0,0.0,120.0,6.0,0.0
6041,56.0,120.0,120.0,6.0,0.0
6042,41.0,0.0,120.0,7.0,0.0
6043,39.0,96.0,390.0,7.0,0.0
6044,55.0,120.0,120.0,6.0,0.0
6045,58.0,120.0,120.0,6.0,0.0
6046,63.0,24.0,120.0,6.0,0.0
6047,67.0,120.0,120.0,6.0,0.0
6048,70.0,120.0,120.0,6.0,0.0
6049,75.0,120.0,120.0,6.0,0.0
6050,79.0,120.0,120.0,6.0,0.0
6051,82.0,120.0,120.0,6.0,0.0
6052,82.0,120.0,120.0,6.0,0.0
6053,79.0,120.0,120.0,6.0,0.0
6054,75.0,120.0,120.0,6.0,0.0
6055,70.0,120.0,120.0,6.0,0.0
6056,67.0,120.0,120.0,6.0,0.0
6057,49.0,0.0,390.0,7.0,0.0
6058,37.0,96.0,390.0,7.0,0.0
6059,63.0,120.0,120.0,6.0,0.0
6060,58.0,24.0,120.0,6.0,0.0
6061,55.0,120.0,120.0,6.0,0.0
6062,36.0,96.0,390.0,7.0,0.0
6063,48.0,0.0,390.0,7.0,0.0
6064,56.0,120.0,120.0,6.0,0.0
6065,60.0,120.0,120.0,6.0,0.0
6066,63.0,24.0,120.0,6.0,0.0
6067,68.0,120.0,120.0,6.0,0.0
6068,72.0,120.0,120.0,6.0,0.0
6069,75.0,120.0,120.0,6.0,0.0
6070,80.0,120.0,120.0,6.0,0.0
6071,84.0,120.0,15.0,6.0,0.0
6072,80.0,120.0,120.0,6.0,0.0
6073,75.0,120.0,120.0,6.0,0.0
6074,72.0,120.0,120.0,6.0,0.0
6075,68.0,120.0,120.0,6.0,0.0
6076,48.0,0.0,390.0,7.0,0.0
6077,36.0,96.0,390.0,7.0,0.0
6078,63.0,120.0,120.0,6.0,0.0
6079,60.0,24.0,120.0,6.0,0.0
6080,56.0,120.0,120.0,6.0,0.0
6081,46.0,0.0,390.0,13.0,0.0
6082,34.0,48.0,390.0,7.0,0.0
6083,55.0,120.0,120.0,6.0,0.0
6084,34.0,0.0,390.0,14.0,0.0
6085,46.0,0.0,390.0,7.0,0.0
6086,58.0,120.0,120.0,6.0,0.0
6087,58.0,0.0,180.0,12.0,0.0
6088,63.0,24.0,120.0,6.0,0.0
6089,67.0,48.0,180.0,10.0,0.0
6090,63.0,0.0,180.0,11.0,0.0
6091,67.0,120.0,120.0,6.0,0.0
6092,63.0,48.0,180.0,11.0,0.0
6093,67.0,0.0,180.0,10.0,0.0
6094,70.0,72.0,120.0,6.0,0.0
6095,58.0,0.0,180.0,12.0,0.0
6096,75.0,120.0,120.0,6.0,0.0
6097,63.0,0.0,180.0,11.0,0.0
6098,67.0,48.0,180.0,10.0,0.0
6099,79.0,72.0,120.0,6.0,0.0
6100,58.0,0.0,180.0,12.0,0.0
6101,82.0,60.0,120.0,6.0,0.0
6102,79.0,60.0,60.0,6.0,0.0
6103,62.0,0.0,180.0,11.0,0.0
6104,46.0,0.0,390.0,13.0,0.0
6105,34.0,36.0,390.0,14.0,0.0
6106,56.0,48.0,180.0,12.0,0.0
6107,58.0,0.0,180.0,12.0,0.0
6108,65.0,0.0,180.0,10.0,0.0
6109,77.0,60.0,60.0,6.0,0.0
6110,79.0,12.0,60.0,6.0,0.0
6111,77.0,60.0,60.0,6.0,0.0
6112,58.0,0.0,180.0,12.0,0.0
6113,56.0,0.0,180.0,12.0,0.0
6114,65.0,48.0,180.0,10.0,0.0
6115,79.0,60.0,60.0,6.0,0.0
6116,62.0,0.0,180.0,11.0,0.0
6117,77.0,24.0,60.0,6.0,0.0
6118,79.0,12.0,60.0,6.0,0.0
6119,77.0,60.0,60.0,6.0,0.0
6120,62.0,48.0,180.0,11.0,0.0
6121,56.0,0.0,180.0,12.0,0.0
6122,65.0,0.0,180.0,10.0,0.0
6123,58.0,0.0,180.0,12.0,0.0
6124,79.0,60.0,60.0,6.0,0.0
6125,77.0,60.0,60.0,6.0,0.0
6126,79.0,12.0,60.0,6.0,0.0
6127,77.0,120.0,60.0,6.0,0.0
6128,62.0,48.0,180.0,11.0,0.0
6129,75.0,72.0,120.0,6.0,0.0
6130,65.0,0.0,180.0,10.0,0.0
6131,58.0,0.0,180.0,12.0,0.0
6132,56.0,0.0,180.0,12.0,0.0
6133,77.0,120.0,120.0,6.0,0.0
6134,75.0,0.0,390.0,6.0,0.0
6135,27.0,0.0,390.0,14.0,0.0
6136,39.0,0.0,390.0,13.0,0.0
6137,63.0,0.0,390.0,10.0,0.0
6138,63.0,0.0,390.0,11.0,0.0
6139,55.0,96.0,390.0,12.0,0.0
6140,58.0,0.0,390.0,12.0,0.0
6141,39.0,120.0,120.0,7.0,0.0
6142,43.0,120.0,120.0,7.0,0.0
6143,46.0,24.0,120.0,7.0,0.0
6144,51.0,120.0,120.0,7.0,0.0
6145,39.0,120.0,120.0,7.0,0.0
6146,51.0,120.0,120.0,7.0,0.0
6147,41.0,120.0,120.0,7.0,0.0
6148,53.0,120.0,120.0,7.0,0.0
6149,43.0,120.0,120.0,7.0,0.0
6150,55.0,120.0,120.0,7.0,0.0
6151,44.0,120.0,120.0,7.0,0.0
6152,56.0,120.0,120.0,7.0,0.0
6153,57.0,120.0,120.0,7.0,0.0
6154,74.0,96.0,390.0,6.0,0.0
6155,70.0,0.0,390.0,6.0,0.0
6156,77.0,0.0,390.0,6.0,0.0
6157,58.0,120.0,120.0,7.0,0.0
6158,56.0,24.0,120.0,7.0,0.0
6159,53.0,120.0,120.0,7.0,0.0
6160,79.0,0.0,390.0,6.0,0.0
6161,70.0,0.0,390.0,6.0,0.0
6162,75.0,96.0,390.0,6.0,0.0
6163,39.0,120.0,120.0,7.0,0.0
6164,43.0,120.0,120.0,7.0,0.0
6165,46.0,24.0,120.0,7.0,0.0
6166,51.0,120.0,120.0,7.0,0.0
6167,39.0,120.0,120.0,7.0,0.0
6168,51.0,120.0,120.0,7.0,0.0
6169,41.0,120.0,120.0,7.0,0.0
6170,53.0,120.0,120.0,7.0,0.0
6171,43.0,120.0,120.0,7.0,0.0
6172,55.0,120.0,120.0,7.0,0.0
6173,44.0,120.0,120.0,7.0,0.0
6174,56.0,120.0,120.0,7.0,0.0
6175,70.0,96.0,390.0,6.0,0.0
6176,77.0,0.0,390.0,6.0,0.0
6177,57.0,120.0,120.0,7.0,0.0
6178,74.0,0.0,390.0,6.0,0.0
6179,58.0,120.0,120.0,7.0,0.0
6180,56.0,24.0,120.0,7.0,0.0
6181,53.0,240.0,120.0,7.0,0.0
6182,51.0,96.0,390.0,7.0,0.0
6183,63.0,120.0,120.0,6.0,0.0
6184,65.0,24.0,120.0,6.0,0.0
6185,67.0,120.0,120.0,6.0,0.0
6186,68.0,120.0,120.0,6.0,0.0
6187,70.0,120.0,120.0,6.0,0.0
6188,72.0,120.0,120.0,6.0,0.0
6189,74.0,120.0,120.0,6.0,0.0
6190,75.0,120.0,120.0,6.0,0.0
6191,77.0,120.0,120.0,6.0,0.0
6192,79.0,120.0,120.0,6.0,0.0
6193,80.0,144.0,120.0,6.0,0.0
6194,82.0,0.0,150.0,6.0,0.0
6195,51.0,0.0,150.0,13.0,0.0
6196,79.0,0.0,150.0,10.0,0.0
6197,39.0,0.0,150.0,7.0,0.0
6198,51.0,0.0,150.0,7.0,0.0
6199,39.0,240.0,150.0,14.0,0.0
6200,58.0,0.0,150.0,12.0,0.0
6201,67.0,0.0,150.0,11.0,0.0
6202,58.0,336.0,150.0,12.0,0.0
6203,70.0,0.0,150.0,6.0,0.0
6204,50.0,0.0,150.0,7.0,0.0
6205,50.0,0.0,150.0,13.0,0.0
6206,65.0,0.0,150.0,11.0,0.0
6207,77.0,0.0,150.0,10.0,0.0
6208,38.0,0.0,150.0,14.0,0.0
6209,38.0,0.0,150.0,7.0,0.0
6210,63.0,96.0,390.0,11.0,0.0
6211,36.0,0.0,390.0,14.0,0.0
6212,48.0,0.0,390.0,13.0,0.0
6213,48.0,0.0,390.0,7.0,0.0
6214,36.0,0.0,390.0,7.0,0.0
6215,55.0,0.0,390.0,12.0,0.0
6216,75.0,0.0,390.0,10.0,0.0
6217,60.0,120.0,120.0,6.0,0.0
6218,62.0,24.0,120.0,6.0,0.0
6219,63.0,120.0,120.0,6.0,0.0
6220,65.0,120.0,120.0,6.0,0.0
6221,67.0,120.0,120.0,6.0,0.0
6222,69.0,120.0,120.0,6.0,0.0
6223,71.0,120.0,120.0,6.0,0.0
6224,72.0,120.0,120.0,6.0,0.0
6225,74.0,120.0,120.0,6.0,0.0
6226,75.0,120.0,120.0,6.0,0.0
6227,77.0,144.0,120.0,6.0,0.0
6228,79.0,240.0,150.0,6.0,0.0
6229,48.0,0.0,150.0,7.0,0.0
6230,55.0,0.0,150.0,12.0,0.0
6231,36.0,0.0,150.0,14.0,0.0
6232,75.0,0.0,150.0,10.0,0.0
6233,48.0,0.0,150.0,13.0,0.0
6234,63.0,0.0,150.0,11.0,0.0
6235,36.0,0.0,150.0,7.0,0.0
6236,67.0,0.0,150.0,6.0,0.0
6237,34.0,0.0,150.0,14.0,0.0
6238,34.0,0.0,150.0,7.0,0.0
6239,46.0,0.0,150.0,7.0,0.0
6240,62.0,0.0,150.0,11.0,0.0
6241,74.0,336.0,150.0,10.0,0.0
6242,46.0,0.0,150.0,13.0,0.0
6243,55.0,0.0,150.0,12.0,0.0
6244,44.0,0.0,390.0,13.0,0.0
6245,32.0,0.0,390.0,14.0,0.0
6246,32.0,0.0,390.0,7.0,0.0
6247,72.0,0.0,390.0,10.0,0.0
6248,44.0,0.0,390.0,7.0,0.0
6249,60.0,96.0,390.0,11.0,0.0
6250,51.0,0.0,390.0,12.0,0.0
6251,56.0,120.0,120.0,6.0,0.0
6252,58.0,24.0,120.0,6.0,0.0
6253,60.0,120.0,120.0,6.0,0.0
6254,61.0,120.0,120.0,6.0,0.0
6255,63.0,120.0,120.0,6.0,0.0
6256,65.0,120.0,120.0,6.0,0.0
6257,67.0,120.0,120.0,6.0,0.0
6258,68.0,120.0,120.0,6.0,0.0
6259,70.0,120.0,120.0,6.0,0.0
6260,72.0,120.0,120.0,6.0,0.0
6261,74.0,144.0,120.0,6.0,0.0
6262,60.0,0.0,150.0,11.0,0.0
6263,75.0,240.0,150.0,6.0,0.0
6264,72.0,0.0,150.0,10.0,0.0
6265,44.0,0.0,150.0,7.0,0.0
6266,32.0,0.0,150.0,7.0,0.0
6267,32.0,0.0,150.0,14.0,0.0
6268,44.0,0.0,150.0,13.0,0.0
6269,51.0,0.0,150.0,12.0,0.0
6270,70.0,0.0,150.0,10.0,0.0
6271,51.0,192.0,150.0,12.0,0.0
6272,63.0,0.0,150.0,6.0,0.0
6273,43.0,0.0,150.0,13.0,0.0
6274,58.0,0.0,150.0,11.0,0.0
6275,31.0,0.0,150.0,7.0,0.0
6276,43.0,0.0,150.0,7.0,0.0
6277,31.0,0.0,150.0,14.0,0.0
6278,29.0,48.0,390.0,14.0,0.0
6279,68.0,24.0,180.0,6.0,0.0
6280,41.0,0.0,390.0,13.0,0.0
6281,68.0,0.0,390.0,10.0,0.0
6282,56.0,0.0,390.0,11.0,0.0
6283,53.0,0.0,390.0,12.0,0.0
6284,29.0,96.0,90.0,7.0,0.0
6285,41.0,120.0,90.0,7.0,0.0
6286,70.0,24.0,180.0,6.0,0.0
6287,31.0,48.0,90.0,7.0,0.0
6288,43.0,120.0,90.0,7.0,0.0
6289,32.0,96.0,90.0,7.0,0.0
6290,72.0,24.0,180.0,6.0,0.0
6291,44.0,120.0,90.0,7.0,0.0
6292,74.0,24.0,180.0,6.0,0.0
6293,34.0,96.0,90.0,7.0,0.0
6294,46.0,120.0,90.0,7.0,0.0
6295,75.0,24.0,180.0,6.0,0.0
6296,36.0,96.0,90.0,7.0,0.0
6297,48.0,120.0,90.0,7.0,0.0
6298,38.0,96.0,90.0,7.0,0.0
6299,77.0,24.0,180.0,6.0,0.0
6300,50.0,120.0,90.0,7.0,0.0
6301,39.0,96.0,90.0,7.0,0.0
6302,79.0,24.0,180.0,6.0,0.0
6303,51.0,120.0,90.0,7.0,0.0
6304,80.0,24.0,180.0,6.0,0.0
6305,41.0,96.0,90.0,7.0,0.0
6306,53.0,144.0,90.0,7.0,0.0
6307,51.0,0.0,1920.0,13.0,0.0
6308,56.0,120.0,120.0,7.0,0.0
6309,63.0,120.0,3840.0,12.0,0.0
6310,39.0,0.0,1920.0,14.0,0.0
6311,70.0,0.0,1920.0,10.0,0.0
6312,82.0,96.0,390.0,6.0,0.0
6313,67.0,120.0,1920.0,11.0,0.0
6314,58.0,120.0,120.0,7.0,0.0
6315,51.0,24.0,120.0,7.0,0.0
6316,55.0,120.0,120.0,7.0,0.0
6317,46.0,120.0,120.0,7.0,0.0
6318,51.0,120.0,120.0,7.0,0.0
6319,43.0,120.0,120.0,7.0,0.0
6320,46.0,120.0,120.0,7.0,0.0
6321,39.0,96.0,390.0,7.0,0.0
6322,79.0,120.0,120.0,6.0,0.0
6323,82.0,120.0,120.0,6.0,0.0
6324,75.0,24.0,120.0,6.0,0.0
6325,79.0,120.0,120.0,6.0,0.0
6326,70.0,120.0,120.0,6.0,0.0
6327,75.0,120.0,120.0,6.0,0.0
6328,67.0,120.0,120.0,6.0,0.0
6329,70.0,0.0,120.0,6.0,0.0
6330,32.0,0.0,1920.0,14.0,0.0
6331,68.0,0.0,1920.0,11.0,0.0
6332,48.0,120.0,120.0,7.0,0.0
6333,44.0,0.0,1920.0,13.0,0.0
6334,63.0,96.0,390.0,6.0,0.0
6335,72.0,0.0,1920.0,10.0,0.0
6336,51.0,120.0,120.0,7.0,0.0
6337,44.0,24.0,120.0,7.0,0.0
6338,48.0,120.0,120.0,7.0,0.0
6339,39.0,120.0,120.0,7.0,0.0
6340,44.0,120.0,120.0,7.0,0.0
6341,36.0,120.0,120.0,7.0,0.0
6342,39.0,120.0,120.0,7.0,0.0
6343,32.0,96.0,390.0,7.0,0.0
6344,80.0,120.0,120.0,6.0,0.0
6345,84.0,120.0,120.0,6.0,0.0
6346,75.0,24.0,120.0,6.0,0.0
6347,80.0,120.0,120.0,6.0,0.0
6348,72.0,120.0,120.0,6.0,0.0
6349,75.0,120.0,120.0,6.0,0.0
6350,68.0,120.0,120.0,6.0,0.0
6351,72.0,0.0,120.0,6.0,0.0
6352,66.0,96.0,390.0,6.0,0.0
6353,54.0,0.0,1380.0,12.0,0.0
6354,60.0,0.0,1380.0,11.0,0.0
6355,63.0,72.0,1380.0,10.0,0.0
6356,45.0,96.0,1830.0,13.0,0.0
6357,33.0,0.0,1830.0,14.0,0.0
6358,48.0,120.0,120.0,7.0,0.0
6359,51.0,120.0,120.0,7.0,0.0
6360,45.0,24.0,120.0,7.0,0.0
6361,48.0,120.0,120.0,7.0,0.0
6362,39.0,120.0,120.0,7.0,0.0
6363,42.0,120.0,120.0,7.0,0.0
6364,36.0,120.0,120.0,7.0,0.0
6365,39.0,120.0,120.0,7.0,0.0
6366,78.0,120.0,120.0,6.0,0.0
6367,33.0,24.0,390.0,7.0,0.0
6368,84.0,120.0,120.0,6.0,0.0
6369,75.0,24.0,120.0,6.0,0.0
6370,78.0,120.0,120.0,6.0,0.0
6371,72.0,12.0,120.0,6.0,0.0
6372,60.0,0.0,120.0,12.0,0.0
6373,66.0,108.0,120.0,10.0,0.0
6374,63.0,0.0,120.0,11.0,0.0
6375,75.0,120.0,120.0,6.0,0.0
6376,69.0,0.0,120.0,1.0,0.0
6377,81.0,12.0,120.0,1.0,0.0
6378,69.0,12.0,120.0,6.0,0.0
6379,72.0,120.0,120.0,6.0,0.0
6380,66.0,12.0,120.0,6.0,0.0
6381,78.0,0.0,120.0,1.0,0.0
6382,69.0,0.0,120.0,10.0,0.0
6383,33.0,0.0,1830.0,14.0,0.0
6384,63.0,0.0,120.0,12.0,0.0
6385,66.0,108.0,120.0,11.0,0.0
6386,45.0,96.0,1830.0,13.0,0.0
6387,54.0,0.0,120.0,7.0,0.0
6388,66.0,0.0,120.0,1.0,0.0
6389,69.0,120.0,120.0,6.0,0.0
6390,87.0,0.0,120.0,0.0,0.0
6391,63.0,12.0,120.0,6.0,0.0
6392,51.0,108.0,120.0,7.0,0.0
6393,63.0,0.0,120.0,1.0,0.0
6394,75.0,0.0,120.0,1.0,0.0
6395,63.0,0.0,120.0,2.0,0.0
6396,66.0,120.0,120.0,6.0,0.0
6397,72.0,0.0,120.0,1.0,0.0
6398,60.0,0.0,120.0,1.0,0.0
6399,72.0,0.0,120.0,10.0,0.0
6400,69.0,0.0,120.0,11.0,0.0
6401,60.0,12.0,120.0,6.0,0.0
6402,66.0,0.0,120.0,12.0,0.0
6403,48.0,0.0,120.0,7.0,0.0
6404,84.0,0.0,120.0,0.0,0.0
6405,60.0,108.0,120.0,2.0,0.0
6406,63.0,120.0,120.0,6.0,0.0
6407,57.0,12.0,120.0,6.0,0.0
6408,69.0,0.0,120.0,1.0,0.0
6409,45.0,0.0,120.0,2.0,0.0
6410,57.0,108.0,120.0,2.0,0.0
6411,45.0,0.0,120.0,7.0,0.0
6412,81.0,0.0,120.0,0.0,0.0
6413,60.0,120.0,120.0,6.0,0.0
6414,78.0,0.0,120.0,0.0,0.0
6415,54.0,12.0,120.0,6.0,0.0
6416,42.0,0.0,120.0,2.0,0.0
6417,54.0,108.0,120.0,2.0,0.0
6418,69.0,0.0,120.0,12.0,0.0
6419,42.0,0.0,120.0,7.0,0.0
6420,75.0,0.0,120.0,10.0,0.0
6421,72.0,0.0,120.0,11.0,0.0
6422,66.0,0.0,120.0,1.0,0.0
6423,57.0,120.0,120.0,6.0,0.0
6424,51.0,12.0,120.0,6.0,0.0
6425,63.0,0.0,120.0,1.0,0.0
6426,51.0,0.0,120.0,2.0,0.0
6427,39.0,0.0,120.0,2.0,0.0
6428,39.0,0.0,120.0,7.0,0.0
6429,75.0,108.0,120.0,0.0,0.0
6430,54.0,120.0,120.0,6.0,0.0
6431,78.0,0.0,120.0,10.0,0.0
6432,60.0,0.0,120.0,1.0,0.0
6433,72.0,0.0,120.0,0.0,0.0
6434,48.0,12.0,120.0,8.0,0.0
6435,75.0,0.0,120.0,11.0,0.0
6436,48.0,0.0,120.0,2.0,0.0
6437,72.0,0.0,120.0,12.0,0.0
6438,36.0,108.0,120.0,7.0,0.0
6439,36.0,0.0,120.0,2.0,0.0
6440,51.0,120.0,120.0,8.0,0.0
6441,57.0,0.0,120.0,1.0,0.0
6442,69.0,0.0,120.0,0.0,0.0
6443,45.0,12.0,120.0,8.0,0.0
6444,33.0,0.0,120.0,7.0,0.0
6445,45.0,12.0,120.0,2.0,0.0
6446,33.0,0.0,120.0,2.0,0.0
6447,48.0,120.0,120.0,8.0,0.0
6448,34.0,0.0,390.0,2.0,0.0
6449,46.0,96.0,390.0,2.0,0.0
6450,70.0,0.0,390.0,0.0,0.0
6451,34.0,0.0,120.0,13.0,0.0
6452,46.0,108.0,120.0,12.0,0.0
6453,46.0,12.0,120.0,7.0,0.0
6454,58.0,0.0,390.0,1.0,0.0
6455,34.0,0.0,120.0,8.0,0.0
6456,51.0,120.0,120.0,7.0,0.0
6457,39.0,0.0,120.0,8.0,0.0
6458,40.0,0.0,120.0,13.0,0.0
6459,50.0,12.0,120.0,7.0,0.0
6460,38.0,0.0,120.0,8.0,0.0
6461,50.0,12.0,120.0,12.0,0.0
6462,41.0,120.0,120.0,8.0,0.0
6463,53.0,0.0,120.0,7.0,0.0
6464,51.0,108.0,120.0,12.0,0.0
6465,51.0,12.0,120.0,7.0,0.0
6466,39.0,0.0,120.0,8.0,0.0
6467,41.0,0.0,120.0,13.0,0.0
6468,43.0,120.0,120.0,8.0,0.0
6469,55.0,0.0,120.0,7.0,0.0
6470,43.0,0.0,120.0,13.0,0.0
6471,53.0,12.0,120.0,7.0,0.0
6472,41.0,0.0,120.0,8.0,0.0
6473,53.0,108.0,120.0,12.0,0.0
6474,44.0,0.0,120.0,8.0,0.0
6475,56.0,120.0,120.0,7.0,0.0
6476,43.0,0.0,120.0,8.0,0.0
6477,44.0,108.0,120.0,13.0,0.0
6478,55.0,0.0,120.0,12.0,0.0
6479,55.0,12.0,120.0,6.0,0.0
6480,46.0,0.0,120.0,8.0,0.0
6481,58.0,120.0,120.0,6.0,0.0
6482,56.0,0.0,120.0,12.0,0.0
6483,56.0,12.0,120.0,6.0,0.0
6484,46.0,108.0,120.0,13.0,0.0
6485,44.0,0.0,120.0,8.0,0.0
6486,48.0,0.0,120.0,8.0,0.0
6487,60.0,120.0,120.0,6.0,0.0
6488,58.0,0.0,120.0,12.0,0.0
6489,48.0,108.0,120.0,13.0,0.0
6490,58.0,12.0,120.0,6.0,0.0
6491,46.0,0.0,120.0,8.0,0.0
6492,63.0,120.0,120.0,6.0,0.0
6493,51.0,0.0,120.0,8.0,0.0
6494,50.0,12.0,120.0,8.0,0.0
6495,62.0,108.0,120.0,12.0,0.0
6496,50.0,0.0,120.0,13.0,0.0
6497,62.0,0.0,120.0,6.0,0.0
6498,53.0,120.0,120.0,8.0,0.0
6499,65.0,0.0,120.0,6.0,0.0
6500,51.0,0.0,120.0,11.0,0.0
6501,63.0,12.0,120.0,6.0,0.0
6502,63.0,96.0,390.0,12.0,0.0
6503,63.0,108.0,120.0,10.0,0.0
6504,51.0,0.0,120.0,8.0,0.0
6505,51.0,0.0,390.0,13.0,0.0
6506,67.0,0.0,120.0,6.0,0.0
6507,55.0,120.0,120.0,8.0,0.0
6508,53.0,0.0,120.0,8.0,0.0
6509,65.0,12.0,120.0,10.0,0.0
6510,53.0,0.0,120.0,11.0,0.0
6511,65.0,12.0,120.0,6.0,0.0
6512,56.0,0.0,120.0,8.0,0.0
6513,68.0,120.0,120.0,6.0,0.0
6514,67.0,108.0,120.0,10.0,0.0
6515,55.0,0.0,120.0,8.0,0.0
6516,67.0,12.0,120.0,6.0,0.0
6517,55.0,0.0,120.0,11.0,0.0
6518,58.0,0.0,120.0,8.0,0.0
6519,70.0,120.0,120.0,6.0,0.0
6520,68.0,108.0,120.0,10.0,0.0
6521,56.0,0.0,120.0,8.0,0.0
6522,68.0,12.0,120.0,6.0,0.0
6523,56.0,0.0,120.0,11.0,0.0
6524,60.0,120.0,120.0,8.0,0.0
6525,72.0,0.0,120.0,6.0,0.0
6526,58.0,0.0,120.0,11.0,0.0
6527,58.0,12.0,120.0,7.0,0.0
6528,70.0,0.0,120.0,6.0,0.0
6529,70.0,108.0,120.0,10.0,0.0
6530,75.0,0.0,120.0,6.0,0.0
6531,63.0,120.0,120.0,7.0,0.0
6532,62.0,108.0,120.0,11.0,0.0
6533,74.0,0.0,120.0,10.0,0.0
6534,74.0,12.0,120.0,6.0,0.0
6535,62.0,0.0,120.0,7.0,0.0
6536,77.0,120.0,120.0,6.0,0.0
6537,65.0,0.0,120.0,7.0,0.0
6538,63.0,0.0,120.0,7.0,0.0
6539,75.0,12.0,120.0,6.0,0.0
6540,63.0,108.0,120.0,11.0,0.0
6541,75.0,0.0,120.0,10.0,0.0
6542,67.0,0.0,120.0,7.0,0.0
6543,79.0,120.0,120.0,6.0,0.0
6544,65.0,12.0,120.0,7.0,0.0
6545,77.0,0.0,120.0,6.0,0.0
6546,77.0,0.0,120.0,10.0,0.0
6547,65.0,108.0,120.0,11.0,0.0
6548,80.0,120.0,120.0,6.0,0.0
6549,68.0,0.0,120.0,7.0,0.0
6550,79.0,0.0,4230.0,0.0,0.0
6551,79.0,120.0,120.0,6.0,0.0
6552,58.0,0.0,960.0,2.0,0.0
6553,67.0,0.0,390.0,11.0,0.0
6554,67.0,0.0,120.0,7.0,0.0
6555,70.0,0.0,960.0,1.0,0.0
6556,75.0,0.0,4230.0,1.0,0.0
6557,79.0,96.0,390.0,10.0,0.0
6558,82.0,0.0,120.0,6.0,0.0
6559,70.0,120.0,120.0,7.0,0.0
6560,74.0,24.0,120.0,6.0,0.0
6561,62.0,0.0,120.0,7.0,0.0
6562,77.0,120.0,120.0,6.0,0.0
6563,65.0,0.0,120.0,7.0,0.0
6564,75.0,120.0,120.0,6.0,0.0
6565,63.0,0.0,120.0,7.0,0.0
6566,67.0,0.0,120.0,7.0,0.0
6567,79.0,120.0,120.0,6.0,0.0
6568,69.0,120.0,120.0,6.0,0.0
6569,57.0,0.0,120.0,7.0,0.0
6570,60.0,120.0,120.0,7.0,0.0
6571,72.0,0.0,120.0,6.0,0.0
6572,67.0,120.0,480.0,1.0,0.0
6573,70.0,120.0,120.0,6.0,0.0
6574,58.0,0.0,120.0,7.0,0.0
6575,55.0,0.0,480.0,2.0,0.0
6576,75.0,120.0,120.0,6.0,0.0
6577,63.0,0.0,120.0,7.0,0.0
6578,54.0,0.0,120.0,7.0,0.0
6579,66.0,120.0,120.0,6.0,0.0
6580,69.0,0.0,120.0,6.0,0.0
6581,57.0,0.0,120.0,7.0,0.0
6582,55.0,120.0,120.0,7.0,0.0
6583,51.0,120.0,480.0,2.0,0.0
6584,63.0,0.0,480.0,1.0,0.0
6585,67.0,0.0,120.0,6.0,0.0
6586,58.0,120.0,120.0,7.0,0.0
6587,70.0,0.0,120.0,6.0,0.0
6588,62.0,120.0,120.0,6.0,0.0
6589,50.0,0.0,120.0,7.0,0.0
6590,53.0,0.0,120.0,7.0,0.0
6591,65.0,0.0,120.0,6.0,0.0
6592,63.0,0.0,120.0,6.0,0.0
6593,58.0,96.0,390.0,1.0,0.0
6594,58.0,0.0,960.0,2.0,0.0
6595,46.0,0.0,960.0,2.0,0.0
6596,51.0,120.0,120.0,8.0,0.0
6597,67.0,0.0,120.0,6.0,0.0
6598,55.0,120.0,120.0,8.0,0.0
6599,57.0,24.0,120.0,6.0,0.0
6600,45.0,0.0,120.0,8.0,0.0
6601,48.0,0.0,120.0,8.0,0.0
6602,60.0,120.0,120.0,6.0,0.0
6603,46.0,0.0,120.0,8.0,0.0
6604,58.0,120.0,120.0,6.0,0.0
6605,51.0,0.0,120.0,8.0,0.0
6606,63.0,120.0,120.0,6.0,0.0
6607,42.0,120.0,120.0,8.0,0.0
6608,54.0,0.0,120.0,6.0,0.0
6609,57.0,0.0,120.0,6.0,0.0
6610,45.0,120.0,120.0,8.0,0.0
6611,55.0,0.0,120.0,6.0,0.0
6612,43.0,0.0,480.0,2.0,0.0
6613,55.0,120.0,480.0,2.0,0.0
6614,43.0,120.0,120.0,8.0,0.0
6615,58.0,0.0,120.0,6.0,0.0
6616,46.0,120.0,120.0,8.0,0.0
6617,50.0,0.0,120.0,6.0,0.0
6618,38.0,120.0,120.0,8.0,0.0
6619,53.0,0.0,120.0,6.0,0.0
6620,41.0,0.0,120.0,8.0,0.0
6621,51.0,120.0,120.0,7.0,0.0
6622,39.0,0.0,120.0,8.0,0.0
6623,39.0,0.0,480.0,2.0,0.0
6624,51.0,0.0,480.0,2.0,0.0
6625,55.0,120.0,120.0,7.0,0.0
6626,43.0,0.0,120.0,8.0,0.0
6627,33.0,120.0,120.0,8.0,0.0
6628,45.0,0.0,120.0,7.0,0.0
6629,48.0,0.0,120.0,7.0,0.0
6630,36.0,160.0,120.0,8.0,0.0
6631,34.0,0.0,390.0,2.0,0.0
6632,46.0,48.0,390.0,2.0,0.0
6633,34.0,0.0,390.0,14.0,0.0
6634,58.0,0.0,180.0,12.0,0.0
6635,46.0,0.0,390.0,13.0,0.0
6636,34.0,0.0,390.0,8.0,0.0
6637,46.0,32.0,150.0,7.0,0.0
6638,63.0,0.0,180.0,11.0,0.0
6639,67.0,128.0,180.0,10.0,0.0
6640,51.0,64.0,150.0,7.0,0.0
6641,63.0,0.0,180.0,11.0,0.0
6642,58.0,48.0,180.0,12.0,0.0
6643,67.0,0.0,180.0,10.0,0.0
6644,55.0,160.0,150.0,7.0,0.0
6645,67.0,0.0,180.0,10.0,0.0
6646,58.0,128.0,180.0,12.0,0.0
6647,58.0,32.0,150.0,6.0,0.0
6648,63.0,0.0,180.0,11.0,0.0
6649,63.0,112.0,150.0,6.0,0.0
6650,63.0,0.0,180.0,11.0,0.0
6651,58.0,48.0,180.0,12.0,0.0
6652,67.0,0.0,180.0,10.0,0.0
6653,67.0,160.0,150.0,6.0,0.0
6654,58.0,128.0,180.0,12.0,0.0
6655,63.0,0.0,180.0,11.0,0.0
6656,70.0,32.0,150.0,6.0,0.0
6657,67.0,0.0,180.0,10.0,0.0
6658,75.0,112.0,150.0,6.0,0.0
6659,63.0,48.0,180.0,11.0,0.0
6660,58.0,0.0,180.0,12.0,0.0
6661,67.0,0.0,180.0,10.0,0.0
6662,79.0,120.0,150.0,6.0,0.0
6663,67.0,0.0,180.0,10.0,0.0
6664,58.0,0.0,180.0,12.0,0.0
6665,63.0,48.0,180.0,11.0,0.0
6666,81.0,72.0,120.0,6.0,0.0
6667,82.0,120.0,120.0,6.0,0.0
6668,67.0,0.0,180.0,10.0,0.0
6669,63.0,48.0,180.0,11.0,0.0
6670,79.0,72.0,120.0,6.0,0.0
6671,58.0,0.0,180.0,12.0,0.0
6672,75.0,60.0,120.0,6.0,0.0
6673,58.0,0.0,180.0,12.0,0.0
6674,65.0,0.0,180.0,10.0,0.0
6675,62.0,0.0,180.0,11.0,0.0
6676,56.0,0.0,180.0,12.0,0.0
6677,79.0,60.0,60.0,6.0,0.0
6678,58.0,60.0,120.0,7.0,0.0
6679,46.0,48.0,180.0,13.0,0.0
6680,34.0,0.0,180.0,14.0,0.0
6681,77.0,0.0,60.0,6.0,0.0
6682,79.0,12.0,60.0,6.0,0.0
6683,68.0,60.0,120.0,7.0,0.0
6684,77.0,0.0,60.0,6.0,0.0
6685,34.0,0.0,180.0,14.0,0.0
6686,58.0,0.0,180.0,12.0,0.0
6687,62.0,0.0,180.0,11.0,0.0
6688,79.0,60.0,60.0,6.0,0.0
6689,65.0,48.0,180.0,10.0,0.0
6690,46.0,0.0,180.0,13.0,0.0
6691,56.0,0.0,180.0,12.0,0.0
6692,62.0,60.0,120.0,7.0,0.0
6693,77.0,0.0,60.0,6.0,0.0
6694,79.0,12.0,60.0,6.0,0.0
6695,68.0,0.0,120.0,7.0,0.0
6696,77.0,60.0,60.0,6.0,0.0
6697,34.0,0.0,180.0,14.0,0.0
6698,58.0,0.0,120.0,7.0,0.0
6699,65.0,0.0,180.0,10.0,0.0
6700,46.0,0.0,180.0,13.0,0.0
6701,79.0,60.0,60.0,6.0,0.0
6702,56.0,0.0,180.0,12.0,0.0
6703,62.0,0.0,180.0,11.0,0.0
6704,58.0,48.0,180.0,12.0,0.0
6705,77.0,60.0,60.0,6.0,0.0
6706,68.0,0.0,120.0,7.0,0.0
6707,79.0,12.0,60.0,6.0,0.0
6708,77.0,60.0,60.0,6.0,0.0
6709,62.0,0.0,120.0,7.0,0.0
6710,62.0,0.0,180.0,11.0,0.0
6711,34.0,0.0,180.0,14.0,0.0
6712,65.0,0.0,180.0,10.0,0.0
6713,58.0,0.0,180.0,12.0,0.0
6714,56.0,0.0,180.0,12.0,0.0
6715,46.0,48.0,180.0,13.0,0.0
6716,79.0,60.0,60.0,6.0,0.0
6717,77.0,60.0,60.0,6.0,0.0
6718,68.0,60.0,120.0,7.0,0.0
6719,79.0,12.0,60.0,6.0,0.0
6720,77.0,0.0,60.0,6.0,0.0
6721,58.0,0.0,120.0,7.0,0.0
6722,65.0,0.0,180.0,10.0,0.0
6723,46.0,0.0,180.0,13.0,0.0
6724,58.0,0.0,180.0,12.0,0.0
6725,62.0,0.0,180.0,11.0,0.0
6726,56.0,0.0,180.0,12.0,0.0
6727,34.0,48.0,180.0,14.0,0.0
6728,79.0,60.0,60.0,6.0,0.0
6729,77.0,60.0,60.0,6.0,0.0
6730,68.0,0.0,120.0,7.0,0.0
6731,79.0,12.0,60.0,6.0,0.0
6732,77.0,60.0,60.0,6.0,0.0
6733,46.0,0.0,180.0,13.0,0.0
6734,62.0,0.0,180.0,11.0,0.0
6735,34.0,0.0,180.0,14.0,0.0
6736,56.0,0.0,180.0,12.0,0.0
6737,62.0,0.0,120.0,7.0,0.0
6738,79.0,60.0,60.0,6.0,0.0
6739,65.0,0.0,180.0,10.0,0.0
6740,58.0,48.0,180.0,12.0,0.0
6741,77.0,60.0,60.0,6.0,0.0
6742,68.0,0.0,120.0,7.0,0.0
6743,79.0,12.0,60.0,6.0,0.0
6744,77.0,60.0,60.0,6.0,0.0
6745,58.0,60.0,120.0,7.0,0.0
6746,58.0,48.0,180.0,12.0,0.0
6747,56.0,0.0,180.0,12.0,0.0
6748,46.0,0.0,180.0,13.0,0.0
6749,34.0,0.0,180.0,14.0,0.0
6750,62.0,0.0,180.0,11.0,0.0
6751,79.0,60.0,60.0,6.0,0.0
6752,65.0,0.0,180.0,10.0,0.0
6753,77.0,0.0,60.0,6.0,0.0
6754,79.0,12.0,60.0,6.0,0.0
6755,68.0,60.0,120.0,7.0,0.0
6756,77.0,0.0,60.0,6.0,0.0
6757,58.0,48.0,180.0,12.0,0.0
6758,62.0,0.0,180.0,11.0,0.0
6759,79.0,60.0,60.0,6.0,0.0
6760,34.0,0.0,180.0,14.0,0.0
6761,62.0,60.0,120.0,7.0,0.0
6762,65.0,0.0,180.0,10.0,0.0
6763,56.0,0.0,180.0,12.0,0.0
6764,46.0,0.0,180.0,13.0,0.0
6765,77.0,0.0,60.0,6.0,0.0
6766,75.0,12.0,60.0,6.0,0.0
6767,68.0,96.0,120.0,7.0,0.0
6768,77.0,0.0,60.0,6.0,0.0
6769,75.0,0.0,390.0,6.0,0.0
6770,51.0,0.0,390.0,3.0,0.0
6771,58.0,0.0,390.0,3.0,0.0
6772,67.0,96.0,90.0,11.0,0.0
6773,39.0,72.0,390.0,5.0,0.0
6774,70.0,0.0,390.0,4.0,0.0
6775,67.0,0.0,390.0,7.0,0.0
6776,63.0,0.0,390.0,7.0,0.0
6777,51.0,0.0,180.0,2.0,0.0
6778,55.0,0.0,180.0,12.0,0.0
6779,58.0,0.0,180.0,12.0,0.0
6780,39.0,0.0,180.0,14.0,0.0
6781,75.0,0.0,2340.0,1.0,0.0
6782,67.0,96.0,1920.0,1.0,0.0
6783,75.0,24.0,2340.0,0.0,0.0
6784,51.0,24.0,180.0,13.0,0.0
6785,75.0,0.0,90.0,10.0,0.0
6786,63.0,0.0,390.0,4.0,0.0
6787,75.0,120.0,90.0,10.0,0.0
6788,67.0,0.0,90.0,11.0,0.0
6789,75.0,48.0,90.0,10.0,0.0
6790,67.0,0.0,90.0,11.0,0.0
6791,75.0,120.0,90.0,10.0,0.0
6792,67.0,0.0,90.0,11.0,0.0
6793,34.0,24.0,180.0,14.0,0.0
6794,46.0,0.0,180.0,2.0,0.0
6795,46.0,0.0,180.0,13.0,0.0
6796,58.0,0.0,180.0,12.0,0.0
6797,75.0,96.0,90.0,10.0,0.0
6798,67.0,0.0,90.0,11.0,0.0
6799,67.0,120.0,90.0,11.0,0.0
6800,75.0,0.0,90.0,10.0,0.0
6801,75.0,120.0,90.0,10.0,0.0
6802,67.0,0.0,90.0,11.0,0.0
6803,75.0,0.0,90.0,10.0,0.0
6804,67.0,120.0,90.0,11.0,0.0
6805,51.0,0.0,180.0,2.0,0.0
6806,63.0,0.0,180.0,12.0,0.0
6807,39.0,0.0,180.0,14.0,0.0
6808,75.0,0.0,90.0,10.0,0.0
6809,51.0,24.0,180.0,13.0,0.0
6810,67.0,96.0,90.0,11.0,0.0
6811,67.0,0.0,90.0,11.0,0.0
6812,75.0,120.0,90.0,10.0,0.0
6813,67.0,0.0,90.0,11.0,0.0
6814,75.0,120.0,90.0,10.0,0.0
6815,67.0,120.0,90.0,11.0,0.0
6816,75.0,0.0,90.0,10.0,0.0
6817,43.0,24.0,180.0,14.0,0.0
6818,75.0,96.0,90.0,10.0,0.0
6819,55.0,0.0,180.0,2.0,0.0
6820,67.0,0.0,90.0,11.0,0.0
6821,55.0,0.0,180.0,13.0,0.0
6822,67.0,0.0,180.0,12.0,0.0
6823,75.0,120.0,90.0,10.0,0.0
6824,67.0,0.0,90.0,11.0,0.0
6825,75.0,120.0,90.0,10.0,0.0
6826,67.0,0.0,90.0,11.0,0.0
6827,75.0,24.0,90.0,10.0,0.0
6828,67.0,0.0,90.0,11.0,0.0
6829,65.0,24.0,1380.0,1.0,0.0
6830,44.0,48.0,720.0,14.0,0.0
6831,75.0,0.0,90.0,10.0,0.0
6832,56.0,0.0,720.0,13.0,0.0
6833,56.0,0.0,720.0,2.0,0.0
6834,65.0,120.0,90.0,11.0,0.0
6835,58.0,32.0,780.0,3.0,0.0
6836,68.0,0.0,720.0,12.0,0.0
6837,70.0,0.0,780.0,4.0,0.0
6838,65.0,120.0,90.0,11.0,0.0
6839,75.0,0.0,90.0,10.0,0.0
6840,65.0,0.0,90.0,11.0,0.0
6841,75.0,96.0,90.0,10.0,0.0
6842,75.0,0.0,90.0,10.0,0.0
6843,65.0,120.0,90.0,11.0,0.0
6844,72.0,120.0,90.0,10.0,0.0
6845,72.0,24.0,420.0,1.0,0.0
6846,72.0,0.0,420.0,0.0,0.0
6847,65.0,0.0,90.0,11.0,0.0
6848,65.0,0.0,90.0,11.0,0.0
6849,72.0,24.0,90.0,10.0,0.0
6850,67.0,16.0,90.0,12.0,0.0
6851,72.0,64.0,90.0,10.0,0.0
6852,55.0,0.0,90.0,13.0,0.0
6853,55.0,0.0,90.0,2.0,0.0
6854,65.0,0.0,90.0,11.0,0.0
6855,43.0,0.0,90.0,14.0,0.0
6856,65.0,32.0,90.0,12.0,0.0
6857,41.0,0.0,90.0,14.0,0.0
6858,53.0,0.0,90.0,13.0,0.0
6859,53.0,0.0,90.0,2.0,0.0
6860,65.0,24.0,90.0,11.0,0.0
6861,72.0,0.0,90.0,10.0,0.0
6862,63.0,0.0,90.0,12.0,0.0
6863,51.0,0.0,90.0,2.0,0.0
6864,39.0,96.0,90.0,14.0,0.0
6865,51.0,0.0,90.0,13.0,0.0
6866,74.0,0.0,420.0,0.0,0.0
6867,50.0,0.0,390.0,2.0,0.0
6868,70.0,0.0,390.0,4.0,0.0
6869,50.0,0.0,390.0,13.0,0.0
6870,65.0,120.0,90.0,11.0,0.0
6871,58.0,0.0,390.0,3.0,0.0
6872,38.0,48.0,390.0,14.0,0.0
6873,74.0,0.0,90.0,10.0,0.0
6874,74.0,0.0,420.0,1.0,0.0
6875,62.0,0.0,390.0,12.0,0.0
6876,74.0,0.0,90.0,10.0,0.0
6877,65.0,120.0,90.0,11.0,0.0
6878,74.0,48.0,90.0,10.0,0.0
6879,65.0,0.0,90.0,11.0,0.0
6880,65.0,120.0,90.0,11.0,0.0
6881,74.0,0.0,90.0,10.0,0.0
6882,67.0,0.0,90.0,11.0,0.0
6883,76.0,0.0,420.0,0.0,0.0
6884,76.0,24.0,420.0,1.0,0.0
6885,67.0,0.0,420.0,1.0,0.0
6886,76.0,120.0,90.0,10.0,0.0
6887,58.0,0.0,390.0,3.0,0.0
6888,70.0,48.0,390.0,4.0,0.0
6889,76.0,0.0,90.0,10.0,0.0
6890,67.0,120.0,90.0,11.0,0.0
6891,76.0,0.0,90.0,10.0,0.0
6892,67.0,48.0,90.0,11.0,0.0
6893,58.0,0.0,90.0,12.0,0.0
6894,46.0,0.0,90.0,2.0,0.0
6895,67.0,0.0,90.0,11.0,0.0
6896,34.0,0.0,90.0,14.0,0.0
6897,46.0,120.0,90.0,13.0,0.0
6898,76.0,0.0,90.0,10.0,0.0
6899,68.0,96.0,90.0,11.0,0.0
6900,50.0,0.0,180.0,13.0,0.0
6901,58.0,72.0,390.0,3.0,0.0
6902,70.0,0.0,390.0,4.0,0.0
6903,77.0,0.0,2310.0,1.0,0.0
6904,50.0,24.0,180.0,2.0,0.0
6905,77.0,0.0,90.0,10.0,0.0
6906,68.0,96.0,1920.0,1.0,0.0
6907,62.0,0.0,180.0,12.0,0.0
6908,38.0,0.0,180.0,14.0,0.0
6909,77.0,72.0,2310.0,0.0,0.0
6910,68.0,120.0,90.0,11.0,0.0
6911,77.0,0.0,90.0,10.0,0.0
6912,68.0,0.0,90.0,11.0,0.0
6913,77.0,48.0,90.0,10.0,0.0
6914,68.0,120.0,90.0,11.0,0.0
6915,77.0,0.0,90.0,10.0,0.0
6916,65.0,0.0,180.0,12.0,0.0
6917,53.0,0.0,180.0,13.0,0.0
6918,53.0,24.0,180.0,2.0,0.0
6919,77.0,96.0,90.0,10.0,0.0
6920,41.0,0.0,180.0,14.0,0.0
6921,68.0,0.0,90.0,11.0,0.0
6922,68.0,120.0,90.0,11.0,0.0
6923,77.0,0.0,90.0,10.0,0.0
6924,68.0,120.0,90.0,11.0,0.0
6925,77.0,0.0,90.0,10.0,0.0
6926,68.0,0.0,90.0,11.0,0.0
6927,77.0,120.0,90.0,10.0,0.0
6928,68.0,0.0,180.0,12.0,0.0
6929,44.0,0.0,180.0,14.0,0.0
6930,56.0,24.0,180.0,13.0,0.0
6931,68.0,0.0,90.0,11.0,0.0
6932,56.0,0.0,180.0,2.0,0.0
6933,77.0,96.0,90.0,10.0,0.0
6934,68.0,120.0,90.0,11.0,0.0
6935,77.0,0.0,90.0,10.0,0.0
6936,77.0,0.0,90.0,10.0,0.0
6937,68.0,120.0,90.0,11.0,0.0
6938,77.0,120.0,90.0,10.0,0.0
6939,68.0,0.0,90.0,11.0,0.0
6940,77.0,0.0,90.0,10.0,0.0
6941,68.0,96.0,90.0,11.0,0.0
6942,41.0,0.0,180.0,14.0,0.0
6943,65.0,0.0,180.0,12.0,0.0
6944,53.0,0.0,180.0,2.0,0.0
6945,53.0,24.0,180.0,13.0,0.0
6946,68.0,120.0,90.0,11.0,0.0
6947,77.0,0.0,90.0,10.0,0.0
6948,68.0,0.0,90.0,11.0,0.0
6949,77.0,120.0,90.0,10.0,0.0
6950,68.0,0.0,90.0,11.0,0.0
6951,77.0,24.0,90.0,10.0,0.0
6952,70.0,32.0,780.0,4.0,0.0
6953,58.0,0.0,720.0,2.0,0.0
6954,58.0,0.0,780.0,3.0,0.0
6955,58.0,0.0,720.0,13.0,0.0
6956,67.0,16.0,870.0,1.0,0.0
6957,46.0,0.0,720.0,14.0,0.0
6958,67.0,120.0,90.0,11.0,0.0
6959,77.0,0.0,90.0,10.0,0.0
6960,70.0,48.0,720.0,12.0,0.0
6961,77.0,0.0,90.0,10.0,0.0
6962,67.0,120.0,90.0,11.0,0.0
6963,67.0,0.0,90.0,11.0,0.0
6964,77.0,48.0,90.0,10.0,0.0
6965,67.0,0.0,90.0,11.0,0.0
6966,77.0,120.0,90.0,10.0,0.0
6967,74.0,120.0,90.0,10.0,0.0
6968,74.0,0.0,390.0,0.0,0.0
6969,74.0,0.0,390.0,1.0,0.0
6970,67.0,0.0,90.0,11.0,0.0
6971,74.0,24.0,90.0,10.0,0.0
6972,67.0,0.0,90.0,11.0,0.0
6973,60.0,0.0,90.0,13.0,0.0
6974,72.0,0.0,90.0,12.0,0.0
6975,74.0,0.0,90.0,10.0,0.0
6976,48.0,16.0,90.0,14.0,0.0
6977,67.0,48.0,90.0,11.0,0.0
6978,60.0,0.0,90.0,2.0,0.0
6979,46.0,56.0,90.0,14.0,0.0
6980,58.0,0.0,90.0,13.0,0.0
6981,58.0,0.0,90.0,2.0,0.0
6982,70.0,0.0,90.0,12.0,0.0
6983,67.0,24.0,90.0,11.0,0.0
6984,74.0,0.0,90.0,10.0,0.0
6985,44.0,0.0,90.0,14.0,0.0
6986,68.0,0.0,90.0,12.0,0.0
6987,56.0,96.0,90.0,2.0,0.0
6988,56.0,0.0,90.0,13.0,0.0
6989,51.0,0.0,390.0,3.0,0.0
6990,55.0,0.0,390.0,2.0,0.0
6991,58.0,0.0,390.0,3.0,0.0
6992,70.0,0.0,390.0,4.0,0.0
6993,67.0,0.0,390.0,12.0,0.0
6994,75.0,0.0,390.0,0.0,0.0
6995,70.0,0.0,390.0,1.0,0.0
6996,75.0,72.0,390.0,1.0,0.0
6997,43.0,0.0,390.0,14.0,0.0
6998,75.0,120.0,90.0,10.0,0.0
6999,55.0,0.0,390.0,13.0,0.0
7000,70.0,0.0,90.0,11.0,0.0
7001,63.0,0.0,390.0,4.0,0.0
7002,70.0,0.0,90.0,11.0,0.0
7003,75.0,120.0,90.0,10.0,0.0
7004,75.0,0.0,90.0,10.0,0.0
7005,70.0,48.0,90.0,11.0,0.0
7006,75.0,0.0,90.0,10.0,0.0
7007,70.0,120.0,90.0,11.0,0.0
7008,77.0,120.0,90.0,10.0,0.0
7009,70.0,72.0,390.0,4.0,0.0
7010,74.0,0.0,390.0,1.0,0.0
7011,74.0,0.0,90.0,11.0,0.0
7012,77.0,0.0,390.0,1.0,0.0
7013,58.0,0.0,390.0,3.0,0.0
7014,77.0,0.0,390.0,0.0,0.0
7015,74.0,0.0,90.0,11.0,0.0
7016,77.0,120.0,90.0,10.0,0.0
7017,74.0,0.0,90.0,11.0,0.0
7018,77.0,48.0,90.0,10.0,0.0
7019,74.0,0.0,90.0,11.0,0.0
7020,77.0,0.0,90.0,10.0,0.0
7021,46.0,0.0,90.0,12.0,0.0
7022,34.0,0.0,90.0,14.0,0.0
7023,46.0,120.0,90.0,13.0,0.0
7024,46.0,0.0,90.0,2.0,0.0
7025,51.0,24.0,180.0,13.0,0.0
7026,75.0,0.0,90.0,11.0,0.0
7027,78.0,72.0,1830.0,1.0,0.0
7028,75.0,0.0,1830.0,1.0,0.0
7029,78.0,12.0,9510.0,0.0,0.0
7030,39.0,0.0,180.0,14.0,0.0
7031,51.0,0.0,390.0,3.0,0.0
7032,58.0,0.0,390.0,3.0,0.0
7033,51.0,0.0,180.0,2.0,0.0
7034,63.0,72.0,390.0,4.0,0.0
7035,51.0,0.0,180.0,12.0,0.0
7036,39.0,0.0,390.0,5.0,0.0
7037,78.0,96.0,90.0,10.0,0.0
7038,70.0,0.0,390.0,4.0,0.0
7039,75.0,120.0,90.0,11.0,0.0
7040,78.0,0.0,90.0,10.0,0.0
7041,78.0,48.0,90.0,10.0,0.0
7042,75.0,0.0,90.0,11.0,0.0
7043,78.0,120.0,90.0,10.0,0.0
7044,75.0,0.0,90.0,11.0,0.0
7045,54.0,0.0,180.0,13.0,0.0
7046,39.0,48.0,300.0,5.0,0.0
7047,75.0,96.0,90.0,11.0,0.0
7048,42.0,0.0,180.0,14.0,0.0
7049,78.0,0.0,90.0,10.0,0.0
7050,54.0,24.0,180.0,2.0,0.0
7051,54.0,0.0,180.0,12.0,0.0
7052,78.0,72.0,90.0,10.0,0.0
7053,75.0,0.0,90.0,11.0,0.0
7054,75.0,0.0,90.0,11.0,0.0
7055,78.0,120.0,90.0,10.0,0.0
7056,75.0,120.0,90.0,11.0,0.0
7057,78.0,0.0,90.0,10.0,0.0
7058,39.0,0.0,90.0,5.0,0.0
7059,58.0,0.0,180.0,13.0,0.0
7060,46.0,0.0,180.0,14.0,0.0
7061,58.0,0.0,180.0,2.0,0.0
7062,39.0,72.0,390.0,5.0,0.0
7063,75.0,0.0,90.0,11.0,0.0
7064,58.0,24.0,180.0,12.0,0.0
7065,78.0,96.0,90.0,10.0,0.0
7066,75.0,0.0,90.0,11.0,0.0
7067,78.0,120.0,90.0,10.0,0.0
7068,75.0,0.0,90.0,11.0,0.0
7069,78.0,48.0,90.0,10.0,0.0
7070,78.0,0.0,90.0,10.0,0.0
7071,75.0,120.0,90.0,11.0,0.0
7072,78.0,0.0,90.0,10.0,0.0
7073,54.0,0.0,180.0,2.0,0.0
7074,54.0,24.0,180.0,13.0,0.0
7075,39.0,0.0,390.0,5.0,0.0
7076,75.0,96.0,90.0,11.0,0.0
7077,42.0,0.0,180.0,14.0,0.0
7078,54.0,0.0,180.0,12.0,0.0
7079,78.0,120.0,90.0,10.0,0.0
7080,75.0,0.0,90.0,11.0,0.0
7081,75.0,0.0,90.0,11.0,0.0
7082,78.0,48.0,90.0,10.0,0.0
7083,75.0,0.0,90.0,11.0,0.0
7084,78.0,120.0,90.0,10.0,0.0
7085,47.0,24.0,900.0,14.0,0.0
7086,78.0,120.0,90.0,10.0,0.0
7087,39.0,0.0,390.0,3.0,0.0
7088,51.0,72.0,390.0,3.0,0.0
7089,39.0,0.0,390.0,5.0,0.0
7090,75.0,0.0,90.0,11.0,0.0
7091,59.0,0.0,1830.0,2.0,0.0
7092,51.0,0.0,1830.0,2.0,0.0
7093,51.0,0.0,390.0,4.0,0.0
7094,63.0,0.0,390.0,4.0,0.0
7095,59.0,0.0,900.0,12.0,0.0
7096,59.0,0.0,900.0,13.0,0.0
7097,63.0,72.0,1830.0,1.0,0.0
7098,66.0,96.0,8160.0,1.0,0.0
7099,75.0,0.0,90.0,11.0,0.0
7100,78.0,120.0,90.0,10.0,0.0
7101,75.0,0.0,90.0,11.0,0.0
7102,78.0,48.0,90.0,10.0,0.0
7103,75.0,120.0,90.0,11.0,0.0
7104,78.0,0.0,90.0,10.0,0.0
7105,75.0,120.0,90.0,11.0,0.0
7106,78.0,0.0,90.0,10.0,0.0
7107,78.0,0.0,90.0,10.0,0.0
7108,75.0,120.0,90.0,11.0,0.0
7109,78.0,0.0,90.0,10.0,0.0
7110,75.0,96.0,90.0,11.0,0.0
7111,75.0,0.0,90.0,11.0,0.0
7112,78.0,120.0,90.0,10.0,0.0
7113,75.0,0.0,90.0,11.0,0.0
7114,78.0,120.0,90.0,10.0,0.0
7115,78.0,0.0,90.0,10.0,0.0
7116,75.0,120.0,90.0,11.0,0.0
7117,75.0,0.0,90.0,11.0,0.0
7118,78.0,120.0,90.0,10.0,0.0
7119,75.0,0.0,90.0,11.0,0.0
7120,78.0,120.0,90.0,10.0,0.0
7121,47.0,24.0,300.0,13.0,0.0
7122,47.0,0.0,300.0,12.0,0.0
7123,35.0,0.0,300.0,14.0,0.0
7124,75.0,120.0,90.0,11.0,0.0
7125,78.0,0.0,90.0,10.0,0.0
7126,78.0,0.0,90.0,10.0,0.0
7127,75.0,96.0,90.0,11.0,0.0
7128,78.0,48.0,90.0,10.0,0.0
7129,75.0,0.0,90.0,11.0,0.0
7130,78.0,0.0,90.0,10.0,0.0
7131,75.0,120.0,90.0,11.0,0.0
7132,46.0,24.0,900.0,12.0,0.0
7133,52.0,72.0,1830.0,2.0,0.0
7134,61.0,0.0,1830.0,2.0,0.0
7135,78.0,0.0,90.0,10.0,0.0
7136,46.0,0.0,900.0,13.0,0.0
7137,34.0,0.0,900.0,14.0,0.0
7138,64.0,0.0,1830.0,1.0,0.0
7139,76.0,120.0,90.0,11.0,0.0
7140,78.0,120.0,90.0,10.0,0.0
7141,76.0,0.0,90.0,11.0,0.0
7142,76.0,0.0,90.0,11.0,0.0
7143,78.0,120.0,90.0,10.0,0.0
7144,76.0,0.0,90.0,11.0,0.0
7145,78.0,120.0,90.0,10.0,0.0
7146,76.0,0.0,90.0,11.0,0.0
7147,78.0,120.0,90.0,10.0,0.0
7148,76.0,120.0,90.0,11.0,0.0
7149,78.0,0.0,90.0,10.0,0.0
7150,76.0,96.0,90.0,11.0,0.0
7151,78.0,0.0,90.0,10.0,0.0
7152,78.0,0.0,90.0,10.0,0.0
7153,76.0,120.0,90.0,11.0,0.0
7154,78.0,120.0,90.0,10.0,0.0
7155,76.0,0.0,90.0,11.0,0.0
7156,76.0,120.0,90.0,11.0,0.0
7157,78.0,0.0,90.0,10.0,0.0
7158,76.0,120.0,90.0,11.0,0.0
7159,78.0,0.0,90.0,10.0,0.0
7160,76.0,0.0,90.0,11.0,0.0
7161,78.0,120.0,90.0,10.0,0.0
7162,58.0,0.0,300.0,12.0,0.0
7163,46.0,0.0,300.0,14.0,0.0
7164,76.0,0.0,90.0,11.0,0.0
7165,58.0,24.0,300.0,13.0,0.0
7166,78.0,120.0,90.0,10.0,0.0
7167,76.0,96.0,90.0,11.0,0.0
7168,78.0,0.0,90.0,10.0,0.0
7169,78.0,48.0,90.0,10.0,0.0
7170,76.0,0.0,90.0,11.0,0.0
7171,76.0,120.0,90.0,11.0,0.0
7172,78.0,0.0,90.0,10.0,0.0
7173,51.0,0.0,900.0,2.0,0.0
7174,59.0,24.0,900.0,2.0,0.0
7175,59.0,0.0,480.0,12.0,0.0
7176,47.0,0.0,480.0,14.0,0.0
7177,75.0,0.0,90.0,11.0,0.0
7178,63.0,0.0,900.0,1.0,0.0
7179,78.0,120.0,90.0,10.0,0.0
7180,59.0,108.0,480.0,13.0,0.0
7181,75.0,0.0,90.0,11.0,0.0
7182,78.0,120.0,90.0,10.0,0.0
7183,78.0,120.0,90.0,10.0,0.0
7184,75.0,0.0,90.0,11.0,0.0
7185,75.0,0.0,90.0,11.0,0.0
7186,78.0,12.0,90.0,10.0,0.0
7187,75.0,0.0,90.0,11.0,0.0
7188,78.0,120.0,90.0,10.0,0.0
7189,78.0,0.0,90.0,10.0,0.0
7190,75.0,120.0,90.0,11.0,0.0
7191,47.0,0.0,150.0,13.0,0.0
7192,35.0,0.0,150.0,14.0,0.0
7193,75.0,60.0,90.0,11.0,0.0
7194,78.0,0.0,90.0,10.0,0.0
7195,47.0,36.0,150.0,12.0,0.0
7196,75.0,0.0,90.0,11.0,0.0
7197,78.0,120.0,90.0,10.0,0.0
7198,76.0,0.0,90.0,11.0,0.0
7199,64.0,24.0,900.0,1.0,0.0
7200,34.0,0.0,480.0,14.0,0.0
7201,46.0,108.0,480.0,12.0,0.0
7202,78.0,120.0,90.0,10.0,0.0
7203,46.0,0.0,480.0,13.0,0.0
7204,52.0,0.0,900.0,2.0,0.0
7205,61.0,0.0,900.0,2.0,0.0
7206,78.0,120.0,90.0,10.0,0.0
7207,76.0,0.0,90.0,11.0,0.0
7208,76.0,120.0,90.0,11.0,0.0
7209,78.0,0.0,90.0,10.0,0.0
7210,76.0,0.0,90.0,11.0,0.0
7211,78.0,12.0,90.0,10.0,0.0
7212,76.0,0.0,90.0,11.0,0.0
7213,78.0,120.0,90.0,10.0,0.0
7214,78.0,120.0,90.0,10.0,0.0
7215,76.0,0.0,90.0,11.0,0.0
7216,58.0,0.0,150.0,13.0,0.0
7217,46.0,0.0,150.0,14.0,0.0
7218,76.0,60.0,90.0,11.0,0.0
7219,78.0,0.0,90.0,10.0,0.0
7220,58.0,36.0,150.0,12.0,0.0
7221,76.0,0.0,90.0,11.0,0.0
7222,78.0,120.0,90.0,10.0,0.0
7223,59.0,0.0,150.0,13.0,0.0
7224,59.0,60.0,150.0,12.0,0.0
7225,75.0,0.0,90.0,11.0,0.0
7226,63.0,0.0,480.0,1.0,0.0
7227,59.0,0.0,480.0,2.0,0.0
7228,47.0,0.0,150.0,14.0,0.0
7229,51.0,96.0,480.0,2.0,0.0
7230,78.0,60.0,90.0,10.0,0.0
7231,78.0,0.0,90.0,10.0,0.0
7232,75.0,120.0,90.0,11.0,0.0
7233,78.0,0.0,90.0,10.0,0.0
7234,35.0,0.0,150.0,14.0,0.0
7235,75.0,60.0,90.0,11.0,0.0
7236,47.0,60.0,150.0,12.0,0.0
7237,47.0,0.0,150.0,13.0,0.0
7238,75.0,0.0,90.0,11.0,0.0
7239,78.0,24.0,90.0,10.0,0.0
7240,46.0,0.0,150.0,12.0,0.0
7241,46.0,60.0,150.0,13.0,0.0
7242,34.0,0.0,150.0,14.0,0.0
7243,78.0,60.0,90.0,10.0,0.0
7244,76.0,0.0,90.0,11.0,0.0
7245,61.0,0.0,480.0,2.0,0.0
7246,52.0,0.0,480.0,2.0,0.0
7247,64.0,96.0,480.0,1.0,0.0
7248,76.0,0.0,90.0,11.0,0.0
7249,78.0,120.0,90.0,10.0,0.0
7250,58.0,0.0,150.0,12.0,0.0
7251,76.0,0.0,90.0,11.0,0.0
7252,58.0,0.0,150.0,13.0,0.0
7253,78.0,60.0,90.0,10.0,0.0
7254,46.0,60.0,150.0,14.0,0.0
7255,76.0,24.0,90.0,11.0,0.0
7256,78.0,0.0,90.0,10.0,0.0
7257,75.0,0.0,90.0,11.0,0.0
7258,51.0,96.0,480.0,2.0,0.0
7259,59.0,60.0,150.0,12.0,0.0
7260,59.0,0.0,480.0,2.0,0.0
7261,63.0,0.0,480.0,1.0,0.0
7262,47.0,0.0,150.0,14.0,0.0
7263,59.0,0.0,150.0,13.0,0.0
7264,78.0,60.0,90.0,10.0,0.0
7265,78.0,120.0,90.0,10.0,0.0
7266,75.0,0.0,90.0,11.0,0.0
7267,47.0,0.0,150.0,13.0,0.0
7268,75.0,60.0,90.0,11.0,0.0
7269,78.0,0.0,90.0,10.0,0.0
7270,35.0,60.0,150.0,14.0,0.0
7271,47.0,0.0,150.0,12.0,0.0
7272,78.0,0.0,90.0,10.0,0.0
7273,75.0,24.0,90.0,11.0,0.0
7274,46.0,60.0,150.0,13.0,0.0
7275,46.0,0.0,150.0,12.0,0.0
7276,78.0,60.0,90.0,10.0,0.0
7277,61.0,96.0,480.0,2.0,0.0
7278,76.0,0.0,90.0,11.0,0.0
7279,64.0,0.0,480.0,1.0,0.0
7280,34.0,0.0,150.0,14.0,0.0
7281,52.0,0.0,480.0,2.0,0.0
7282,76.0,0.0,90.0,11.0,0.0
7283,78.0,120.0,90.0,10.0,0.0
7284,78.0,48.0,90.0,10.0,0.0
7285,76.0,0.0,90.0,11.0,0.0
7286,58.0,0.0,150.0,13.0,0.0
7287,46.0,0.0,150.0,14.0,0.0
7288,58.0,60.0,150.0,12.0,0.0
7289,76.0,0.0,90.0,11.0,0.0
7290,78.0,24.0,90.0,10.0,0.0
7291,78.0,48.0,90.0,10.0,0.0
7292,39.0,0.0,390.0,5.0,0.0
7293,87.0,144.0,1920.0,0.0,0.0
7294,75.0,0.0,90.0,11.0,0.0
7295,51.0,0.0,150.0,2.0,0.0
7296,47.0,60.0,150.0,14.0,0.0
7297,63.0,0.0,390.0,4.0,0.0
7298,51.0,12.0,390.0,3.0,0.0
7299,59.0,12.0,150.0,2.0,0.0
7300,59.0,0.0,150.0,13.0,0.0
7301,59.0,0.0,150.0,12.0,0.0
7302,75.0,120.0,90.0,11.0,0.0
7303,78.0,0.0,90.0,10.0,0.0
7304,47.0,0.0,150.0,2.0,0.0
7305,59.0,0.0,150.0,13.0,0.0
7306,78.0,48.0,90.0,10.0,0.0
7307,59.0,60.0,150.0,12.0,0.0
7308,47.0,0.0,150.0,14.0,0.0
7309,75.0,0.0,90.0,11.0,0.0
7310,75.0,0.0,90.0,11.0,0.0
7311,78.0,24.0,90.0,10.0,0.0
7312,47.0,60.0,150.0,14.0,0.0
7313,67.0,96.0,480.0,1.0,0.0
7314,63.0,48.0,300.0,4.0,0.0
7315,59.0,0.0,150.0,13.0,0.0
7316,59.0,0.0,150.0,12.0,0.0
7317,47.0,12.0,150.0,2.0,0.0
7318,75.0,48.0,90.0,11.0,0.0
7319,51.0,0.0,300.0,3.0,0.0
7320,79.0,0.0,90.0,10.0,0.0
7321,75.0,0.0,90.0,11.0,0.0
7322,79.0,72.0,90.0,10.0,0.0
7323,79.0,0.0,90.0,10.0,0.0
7324,59.0,0.0,150.0,13.0,0.0
7325,47.0,12.0,150.0,2.0,0.0
7326,59.0,60.0,150.0,12.0,0.0
7327,75.0,48.0,90.0,11.0,0.0
7328,47.0,0.0,150.0,14.0,0.0
7329,75.0,0.0,90.0,11.0,0.0
7330,51.0,0.0,90.0,3.0,0.0
7331,79.0,0.0,90.0,10.0,0.0
7332,63.0,24.0,90.0,4.0,0.0
7333,63.0,0.0,390.0,4.0,0.0
7334,80.0,0.0,90.0,10.0,0.0
7335,75.0,48.0,90.0,11.0,0.0
7336,47.0,12.0,150.0,2.0,0.0
7337,59.0,0.0,150.0,13.0,0.0
7338,68.0,96.0,480.0,1.0,0.0
7339,47.0,60.0,150.0,14.0,0.0
7340,51.0,12.0,390.0,3.0,0.0
7341,39.0,0.0,390.0,5.0,0.0
7342,59.0,0.0,150.0,12.0,0.0
7343,75.0,0.0,90.0,11.0,0.0
7344,80.0,120.0,90.0,10.0,0.0
7345,59.0,0.0,150.0,13.0,0.0
7346,47.0,0.0,150.0,2.0,0.0
7347,75.0,48.0,90.0,11.0,0.0
7348,80.0,0.0,90.0,10.0,0.0
7349,47.0,0.0,150.0,14.0,0.0
7350,59.0,60.0,150.0,12.0,0.0
7351,80.0,24.0,90.0,10.0,0.0
7352,75.0,0.0,90.0,11.0,0.0
7353,51.0,12.0,390.0,3.0,0.0
7354,75.0,48.0,90.0,11.0,0.0
7355,63.0,0.0,390.0,4.0,0.0
7356,81.0,0.0,90.0,10.0,0.0
7357,47.0,60.0,150.0,14.0,0.0
7358,59.0,0.0,150.0,12.0,0.0
7359,47.0,12.0,150.0,2.0,0.0
7360,59.0,0.0,150.0,13.0,0.0
7361,69.0,0.0,480.0,1.0,0.0
7362,81.0,0.0,90.0,10.0,0.0
7363,75.0,120.0,90.0,11.0,0.0
7364,75.0,0.0,90.0,11.0,0.0
7365,59.0,0.0,150.0,12.0,0.0
7366,47.0,60.0,150.0,14.0,0.0
7367,47.0,0.0,150.0,2.0,0.0
7368,59.0,0.0,150.0,13.0,0.0
7369,81.0,48.0,90.0,10.0,0.0
7370,75.0,0.0,90.0,11.0,0.0
7371,81.0,24.0,90.0,10.0,0.0
7372,70.0,0.0,390.0,4.0,0.0
7373,67.0,0.0,390.0,1.0,0.0
7374,70.0,0.0,390.0,1.0,0.0
7375,58.0,0.0,150.0,13.0,0.0
7376,58.0,228.0,150.0,12.0,0.0
7377,82.0,12.0,390.0,10.0,0.0
7378,46.0,12.0,150.0,2.0,0.0
7379,79.0,0.0,390.0,11.0,0.0
7380,58.0,0.0,390.0,3.0,0.0
7381,63.0,0.0,390.0,4.0,0.0
7382,51.0,0.0,390.0,3.0,0.0
7383,82.0,0.0,390.0,0.0,0.0
7384,46.0,0.0,150.0,14.0,0.0
7385,46.0,0.0,150.0,2.0,0.0
7386,46.0,228.0,150.0,14.0,0.0
7387,58.0,0.0,150.0,13.0,0.0
7388,58.0,0.0,150.0,12.0,0.0
7389,46.0,12.0,150.0,2.0,0.0
7390,58.0,0.0,150.0,12.0,0.0
7391,58.0,228.0,150.0,13.0,0.0
7392,46.0,0.0,150.0,14.0,0.0
7393,46.0,12.0,150.0,2.0,0.0
7394,58.0,0.0,150.0,12.0,0.0
7395,46.0,228.0,150.0,14.0,0.0
7396,58.0,0.0,150.0,13.0,0.0
7397,74.0,0.0,390.0,10.0,0.0
7398,65.0,0.0,390.0,10.0,0.0
7399,46.0,12.0,150.0,2.0,0.0
7400,58.0,0.0,150.0,12.0,0.0
7401,68.0,0.0,390.0,11.0,0.0
7402,58.0,0.0,390.0,11.0,0.0
7403,34.0,0.0,150.0,14.0,0.0
7404,65.0,0.0,390.0,1.0,0.0
7405,62.0,0.0,390.0,1.0,0.0
7406,46.0,228.0,150.0,13.0,0.0
7407,70.0,0.0,390.0,4.0,0.0
7408,58.0,0.0,390.0,3.0,0.0
7409,74.0,0.0,390.0,0.0,0.0
7410,58.0,12.0,390.0,10.0,0.0
7411,34.0,228.0,150.0,14.0,0.0
7412,46.0,0.0,150.0,2.0,0.0
7413,58.0,0.0,150.0,12.0,0.0
7414,46.0,0.0,150.0,13.0,0.0
7415,46.0,228.0,150.0,13.0,0.0
7416,46.0,12.0,150.0,2.0,0.0
7417,58.0,0.0,150.0,12.0,0.0
7418,34.0,0.0,150.0,14.0,0.0
7419,58.0,0.0,150.0,12.0,0.0
7420,46.0,0.0,150.0,13.0,0.0
7421,46.0,12.0,150.0,2.0,0.0
7422,34.0,372.0,150.0,14.0,0.0
7423,39.0,96.0,300.0,2.0,0.0
7424,51.0,0.0,300.0,2.0,0.0
7425,51.0,0.0,390.0,13.0,0.0
7426,75.0,0.0,390.0,10.0,0.0
7427,58.0,240.0,390.0,3.0,0.0
7428,51.0,0.0,390.0,3.0,0.0
7429,39.0,0.0,390.0,14.0,0.0
7430,39.0,0.0,390.0,5.0,0.0
7431,63.0,0.0,300.0,1.0,0.0
7432,58.0,0.0,390.0,11.0,0.0
7433,63.0,0.0,390.0,4.0,0.0
7434,70.0,0.0,390.0,4.0,0.0
7435,51.0,0.0,390.0,11.0,0.0
7436,67.0,0.0,390.0,11.0,0.0
7437,67.0,0.0,390.0,10.0,0.0
7438,58.0,0.0,390.0,12.0,0.0
7439,75.0,0.0,300.0,0.0,0.0
7440,58.0,0.0,390.0,10.0,0.0
7441,64.0,0.0,480.0,1.0,0.0
7442,48.0,240.0,150.0,2.0,0.0
7443,58.0,0.0,150.0,1.0,0.0
7444,55.0,0.0,150.0,2.0,0.0
7445,76.0,144.0,480.0,0.0,0.0
7446,58.0,96.0,150.0,1.0,0.0
7447,48.0,0.0,150.0,2.0,0.0
7448,55.0,0.0,150.0,2.0,0.0
7449,53.0,240.0,150.0,2.0,0.0
7450,41.0,0.0,150.0,2.0,0.0
7451,56.0,0.0,150.0,1.0,0.0
7452,77.0,144.0,480.0,0.0,0.0
7453,65.0,0.0,480.0,1.0,0.0
7454,53.0,0.0,150.0,2.0,0.0
7455,41.0,0.0,150.0,2.0,0.0
7456,56.0,96.0,150.0,1.0,0.0
7457,67.0,0.0,480.0,1.0,0.0
7458,61.0,0.0,150.0,1.0,0.0
7459,58.0,240.0,150.0,2.0,0.0
7460,39.0,0.0,150.0,2.0,0.0
7461,79.0,144.0,480.0,0.0,0.0
7462,61.0,0.0,150.0,1.0,0.0
7463,39.0,96.0,150.0,2.0,0.0
7464,58.0,0.0,150.0,2.0,0.0
7465,56.0,0.0,150.0,2.0,0.0
7466,60.0,240.0,150.0,1.0,0.0
7467,68.0,144.0,480.0,1.0,0.0
7468,80.0,0.0,480.0,0.0,0.0
7469,44.0,0.0,150.0,2.0,0.0
7470,44.0,0.0,150.0,2.0,0.0
7471,56.0,0.0,150.0,2.0,0.0
7472,60.0,96.0,150.0,1.0,0.0
7473,81.0,0.0,480.0,0.0,0.0
7474,63.0,0.0,150.0,1.0,0.0
7475,60.0,0.0,150.0,2.0,0.0
7476,41.0,240.0,150.0,2.0,0.0
7477,69.0,144.0,480.0,1.0,0.0
7478,63.0,0.0,150.0,1.0,0.0
7479,60.0,96.0,150.0,2.0,0.0
7480,41.0,0.0,150.0,2.0,0.0
7481,82.0,0.0,480.0,0.0,0.0
7482,58.0,240.0,150.0,2.0,0.0
7483,70.0,144.0,480.0,1.0,0.0
7484,62.0,0.0,150.0,1.0,0.0
7485,46.0,0.0,150.0,2.0,0.0
7486,46.0,0.0,150.0,2.0,0.0
7487,62.0,0.0,150.0,1.0,0.0
7488,58.0,96.0,150.0,2.0,0.0
7489,71.0,192.0,480.0,1.0,0.0
7490,65.0,0.0,150.0,1.0,0.0
7491,62.0,240.0,150.0,2.0,0.0
7492,43.0,0.0,150.0,2.0,0.0
7493,83.0,0.0,480.0,0.0,0.0
7494,43.0,0.0,150.0,2.0,0.0
7495,62.0,0.0,150.0,2.0,0.0
7496,65.0,96.0,150.0,1.0,0.0
7497,44.0,0.0,390.0,2.0,0.0
7498,60.0,48.0,390.0,2.0,0.0
7499,84.0,0.0,390.0,0.0,0.0
7500,44.0,0.0,180.0,13.0,0.0
7501,32.0,0.0,180.0,14.0,0.0
7502,51.0,192.0,180.0,12.0,0.0
7503,72.0,0.0,390.0,1.0,0.0
7504,53.0,0.0,180.0,11.0,0.0
7505,63.0,0.0,390.0,1.0,0.0
7506,72.0,144.0,1200.0,10.0,0.0
7507,32.0,0.0,180.0,14.0,0.0
7508,44.0,240.0,180.0,13.0,0.0
7509,53.0,0.0,180.0,11.0,0.0
7510,51.0,0.0,180.0,12.0,0.0
7511,53.0,0.0,180.0,11.0,0.0
7512,32.0,240.0,180.0,14.0,0.0
7513,51.0,0.0,180.0,12.0,0.0
7514,44.0,0.0,180.0,13.0,0.0
7515,44.0,0.0,180.0,13.0,0.0
7516,51.0,0.0,180.0,12.0,0.0
7517,32.0,0.0,180.0,14.0,0.0
7518,53.0,240.0,180.0,11.0,0.0
7519,51.0,0.0,180.0,12.0,0.0
7520,45.0,0.0,180.0,13.0,0.0
7521,33.0,0.0,180.0,14.0,0.0
7522,53.0,48.0,180.0,11.0,0.0
7523,53.0,0.0,180.0,11.0,0.0
7524,45.0,0.0,180.0,13.0,0.0
7525,51.0,192.0,180.0,12.0,0.0
7526,33.0,0.0,180.0,14.0,0.0
7527,75.0,48.0,150.0,10.0,0.0
7528,51.0,0.0,180.0,12.0,0.0
7529,33.0,0.0,180.0,14.0,0.0
7530,45.0,0.0,180.0,13.0,0.0
7531,74.0,48.0,150.0,10.0,0.0
7532,53.0,192.0,180.0,11.0,0.0
7533,51.0,0.0,180.0,12.0,0.0
7534,45.0,240.0,180.0,13.0,0.0
7535,53.0,0.0,180.0,11.0,0.0
7536,72.0,48.0,150.0,10.0,0.0
7537,33.0,0.0,180.0,14.0,0.0
7538,55.0,0.0,180.0,11.0,0.0
7539,72.0,144.0,240.0,10.0,0.0
7540,34.0,0.0,180.0,14.0,0.0
7541,46.0,0.0,180.0,13.0,0.0
7542,51.0,48.0,180.0,12.0,0.0
7543,46.0,0.0,180.0,13.0,0.0
7544,34.0,0.0,180.0,14.0,0.0
7545,55.0,192.0,180.0,11.0,0.0
7546,70.0,48.0,150.0,10.0,0.0
7547,51.0,0.0,180.0,12.0,0.0
7548,51.0,0.0,180.0,12.0,0.0
7549,46.0,0.0,180.0,13.0,0.0
7550,68.0,48.0,150.0,10.0,0.0
7551,55.0,192.0,180.0,11.0,0.0
7552,34.0,0.0,180.0,14.0,0.0
7553,46.0,0.0,180.0,13.0,0.0
7554,67.0,48.0,150.0,10.0,0.0
7555,34.0,240.0,180.0,14.0,0.0
7556,55.0,0.0,180.0,11.0,0.0
7557,51.0,0.0,180.0,12.0,0.0
7558,56.0,0.0,180.0,11.0,0.0
7559,46.0,48.0,180.0,13.0,0.0
7560,34.0,0.0,180.0,14.0,0.0
7561,67.0,144.0,240.0,10.0,0.0
7562,53.0,0.0,180.0,12.0,0.0
7563,56.0,0.0,180.0,11.0,0.0
7564,53.0,192.0,180.0,12.0,0.0
7565,34.0,0.0,180.0,14.0,0.0
7566,46.0,0.0,180.0,13.0,0.0
7567,65.0,48.0,150.0,10.0,0.0
7568,53.0,0.0,180.0,12.0,0.0
7569,34.0,192.0,180.0,14.0,0.0
7570,56.0,0.0,180.0,11.0,0.0
7571,63.0,48.0,150.0,10.0,0.0
7572,46.0,0.0,180.0,13.0,0.0
7573,46.0,0.0,180.0,13.0,0.0
7574,53.0,192.0,180.0,12.0,0.0
7575,34.0,0.0,180.0,14.0,0.0
7576,56.0,0.0,180.0,11.0,0.0
7577,62.0,48.0,150.0,10.0,0.0
7578,51.0,0.0,390.0,12.0,0.0
7579,63.0,0.0,390.0,10.0,0.0
7580,55.0,0.0,390.0,11.0,0.0
7581,55.0,0.0,180.0,2.0,0.0
7582,51.0,192.0,180.0,2.0,0.0
7583,51.0,0.0,390.0,13.0,0.0
7584,63.0,144.0,480.0,1.0,0.0
7585,75.0,0.0,480.0,0.0,0.0
7586,39.0,0.0,390.0,14.0,0.0
7587,58.0,48.0,150.0,1.0,0.0
7588,58.0,48.0,150.0,1.0,0.0
7589,51.0,0.0,180.0,2.0,0.0
7590,55.0,48.0,180.0,2.0,0.0
7591,55.0,0.0,150.0,2.0,0.0
7592,48.0,0.0,150.0,2.0,0.0
7593,58.0,240.0,150.0,1.0,0.0
7594,76.0,0.0,480.0,0.0,0.0
7595,64.0,144.0,480.0,1.0,0.0
7596,48.0,0.0,150.0,2.0,0.0
7597,58.0,96.0,150.0,1.0,0.0
7598,55.0,0.0,150.0,2.0,0.0
7599,77.0,144.0,480.0,0.0,0.0
7600,65.0,0.0,480.0,1.0,0.0
7601,56.0,240.0,150.0,1.0,0.0
7602,41.0,0.0,150.0,2.0,0.0
7603,53.0,0.0,150.0,2.0,0.0
7604,56.0,0.0,150.0,1.0,0.0
7605,53.0,96.0,150.0,2.0,0.0
7606,41.0,0.0,150.0,2.0,0.0
7607,61.0,0.0,150.0,1.0,0.0
7608,39.0,240.0,150.0,2.0,0.0
7609,58.0,0.0,150.0,2.0,0.0
7610,79.0,0.0,480.0,0.0,0.0
7611,67.0,144.0,480.0,1.0,0.0
7612,61.0,0.0,150.0,1.0,0.0
7613,58.0,0.0,150.0,2.0,0.0
7614,39.0,96.0,150.0,2.0,0.0
7615,60.0,240.0,150.0,1.0,0.0
7616,56.0,0.0,150.0,2.0,0.0
7617,44.0,0.0,150.0,2.0,0.0
7618,80.0,144.0,480.0,0.0,0.0
7619,68.0,0.0,480.0,1.0,0.0
7620,56.0,0.0,150.0,2.0,0.0
7621,60.0,0.0,150.0,1.0,0.0
7622,44.0,96.0,150.0,2.0,0.0
7623,63.0,240.0,150.0,1.0,0.0
7624,41.0,0.0,150.0,2.0,0.0
7625,60.0,0.0,150.0,2.0,0.0
7626,81.0,0.0,480.0,0.0,0.0
7627,69.0,144.0,480.0,1.0,0.0
7628,60.0,0.0,150.0,2.0,0.0
7629,41.0,96.0,150.0,2.0,0.0
7630,63.0,0.0,150.0,1.0,0.0
7631,62.0,0.0,150.0,1.0,0.0
7632,82.0,144.0,480.0,0.0,0.0
7633,58.0,0.0,150.0,2.0,0.0
7634,46.0,240.0,150.0,2.0,0.0
7635,70.0,0.0,480.0,1.0,0.0
7636,58.0,96.0,150.0,2.0,0.0
7637,62.0,0.0,150.0,1.0,0.0
7638,46.0,0.0,150.0,2.0,0.0
7639,71.0,192.0,480.0,1.0,0.0
7640,65.0,0.0,150.0,1.0,0.0
7641,43.0,0.0,150.0,2.0,0.0
7642,62.0,240.0,150.0,2.0,0.0
7643,83.0,0.0,480.0,0.0,0.0
7644,65.0,0.0,150.0,1.0,0.0
7645,43.0,0.0,150.0,2.0,0.0
7646,62.0,96.0,150.0,2.0,0.0
7647,63.0,0.0,390.0,1.0,0.0
7648,84.0,48.0,390.0,0.0,0.0
7649,44.0,0.0,390.0,2.0,0.0
7650,72.0,0.0,390.0,1.0,0.0
7651,60.0,0.0,390.0,2.0,0.0
7652,53.0,0.0,180.0,11.0,0.0
7653,32.0,0.0,180.0,14.0,0.0
7654,72.0,144.0,1200.0,10.0,0.0
7655,44.0,192.0,180.0,13.0,0.0
7656,51.0,0.0,180.0,12.0,0.0
7657,44.0,0.0,180.0,13.0,0.0
7658,32.0,240.0,180.0,14.0,0.0
7659,53.0,0.0,180.0,11.0,0.0
7660,51.0,0.0,180.0,12.0,0.0
7661,53.0,0.0,180.0,11.0,0.0
7662,51.0,0.0,180.0,12.0,0.0
7663,44.0,240.0,180.0,13.0,0.0
7664,32.0,0.0,180.0,14.0,0.0
7665,51.0,0.0,180.0,12.0,0.0
7666,32.0,0.0,180.0,14.0,0.0
7667,53.0,0.0,180.0,11.0,0.0
7668,44.0,240.0,180.0,13.0,0.0
7669,53.0,0.0,180.0,11.0,0.0
7670,45.0,0.0,180.0,13.0,0.0
7671,51.0,0.0,180.0,12.0,0.0
7672,33.0,48.0,180.0,14.0,0.0
7673,51.0,0.0,180.0,12.0,0.0
7674,53.0,0.0,180.0,11.0,0.0
7675,45.0,0.0,180.0,13.0,0.0
7676,75.0,48.0,150.0,10.0,0.0
7677,33.0,192.0,180.0,14.0,0.0
7678,33.0,0.0,180.0,14.0,0.0
7679,51.0,0.0,180.0,12.0,0.0
7680,74.0,48.0,150.0,10.0,0.0
7681,53.0,192.0,180.0,11.0,0.0
7682,45.0,0.0,180.0,13.0,0.0
7683,51.0,0.0,180.0,12.0,0.0
7684,72.0,48.0,150.0,10.0,0.0
7685,45.0,0.0,180.0,13.0,0.0
7686,33.0,0.0,180.0,14.0,0.0
7687,53.0,240.0,180.0,11.0,0.0
7688,34.0,48.0,180.0,14.0,0.0
7689,55.0,0.0,180.0,11.0,0.0
7690,51.0,0.0,180.0,12.0,0.0
7691,72.0,144.0,240.0,10.0,0.0
7692,46.0,0.0,180.0,13.0,0.0
7693,51.0,192.0,180.0,12.0,0.0
7694,70.0,48.0,150.0,10.0,0.0
7695,55.0,0.0,180.0,11.0,0.0
7696,46.0,0.0,180.0,13.0,0.0
7697,34.0,0.0,180.0,14.0,0.0
7698,55.0,0.0,180.0,11.0,0.0
7699,46.0,0.0,180.0,13.0,0.0
7700,34.0,0.0,180.0,14.0,0.0
7701,51.0,192.0,180.0,12.0,0.0
7702,68.0,48.0,150.0,10.0,0.0
7703,34.0,0.0,180.0,14.0,0.0
7704,46.0,0.0,180.0,13.0,0.0
7705,55.0,0.0,180.0,11.0,0.0
7706,51.0,240.0,180.0,12.0,0.0
7707,67.0,48.0,150.0,10.0,0.0
7708,46.0,0.0,180.0,13.0,0.0
7709,34.0,48.0,180.0,14.0,0.0
7710,53.0,0.0,180.0,12.0,0.0
7711,56.0,0.0,180.0,11.0,0.0
7712,67.0,144.0,240.0,10.0,0.0
7713,53.0,0.0,180.0,12.0,0.0
7714,46.0,0.0,180.0,13.0,0.0
7715,56.0,0.0,180.0,11.0,0.0
7716,34.0,192.0,180.0,14.0,0.0
7717,65.0,48.0,150.0,10.0,0.0
7718,53.0,192.0,180.0,12.0,0.0
7719,46.0,0.0,180.0,13.0,0.0
7720,63.0,48.0,150.0,10.0,0.0
7721,56.0,0.0,180.0,11.0,0.0
7722,34.0,0.0,180.0,14.0,0.0
7723,46.0,240.0,180.0,13.0,0.0
7724,62.0,48.0,150.0,10.0,0.0
7725,53.0,0.0,180.0,12.0,0.0
7726,56.0,0.0,180.0,11.0,0.0
7727,34.0,0.0,180.0,14.0,0.0
7728,55.0,48.0,180.0,11.0,0.0
7729,36.0,0.0,180.0,14.0,0.0
7730,51.0,0.0,180.0,12.0,0.0
7731,65.0,144.0,240.0,10.0,0.0
7732,48.0,0.0,180.0,13.0,0.0
7733,36.0,0.0,180.0,14.0,0.0
7734,63.0,48.0,150.0,10.0,0.0
7735,48.0,192.0,180.0,13.0,0.0
7736,55.0,0.0,180.0,11.0,0.0
7737,51.0,0.0,180.0,12.0,0.0
7738,48.0,0.0,180.0,13.0,0.0
7739,63.0,48.0,150.0,10.0,0.0
7740,36.0,0.0,180.0,14.0,0.0
7741,55.0,0.0,180.0,11.0,0.0
7742,51.0,192.0,180.0,12.0,0.0
7743,63.0,48.0,150.0,10.0,0.0
7744,48.0,0.0,180.0,13.0,0.0
7745,36.0,0.0,180.0,14.0,0.0
7746,51.0,240.0,180.0,12.0,0.0
7747,55.0,0.0,180.0,11.0,0.0
7748,75.0,144.0,720.0,10.0,0.0
7749,57.0,144.0,240.0,11.0,0.0
7750,51.0,0.0,180.0,12.0,0.0
7751,47.0,0.0,180.0,13.0,0.0
7752,35.0,48.0,180.0,14.0,0.0
7753,66.0,48.0,150.0,11.0,0.0
7754,47.0,192.0,180.0,13.0,0.0
7755,35.0,0.0,180.0,14.0,0.0
7756,51.0,0.0,180.0,12.0,0.0
7757,47.0,0.0,180.0,13.0,0.0
7758,35.0,48.0,180.0,14.0,0.0
7759,66.0,48.0,150.0,11.0,0.0
7760,51.0,0.0,180.0,12.0,0.0
7761,35.0,0.0,180.0,14.0,0.0
7762,69.0,204.0,240.0,10.0,0.0
7763,47.0,36.0,180.0,13.0,0.0
7764,51.0,0.0,180.0,12.0,0.0
7765,66.0,48.0,150.0,11.0,0.0
7766,34.0,48.0,180.0,14.0,0.0
7767,46.0,0.0,180.0,13.0,0.0
7768,67.0,192.0,240.0,11.0,0.0
7769,70.0,192.0,720.0,10.0,0.0
7770,51.0,0.0,180.0,12.0,0.0
7771,55.0,240.0,180.0,11.0,0.0
7772,51.0,0.0,180.0,12.0,0.0
7773,34.0,0.0,180.0,14.0,0.0
7774,46.0,0.0,180.0,13.0,0.0
7775,51.0,48.0,180.0,12.0,0.0
7776,46.0,0.0,180.0,13.0,0.0
7777,34.0,0.0,180.0,14.0,0.0
7778,55.0,0.0,180.0,11.0,0.0
7779,55.0,0.0,180.0,11.0,0.0
7780,63.0,204.0,240.0,10.0,0.0
7781,51.0,0.0,180.0,12.0,0.0
7782,34.0,36.0,180.0,14.0,0.0
7783,46.0,0.0,180.0,13.0,0.0
7784,45.0,0.0,180.0,13.0,0.0
7785,67.0,192.0,480.0,10.0,0.0
7786,60.0,0.0,180.0,11.0,0.0
7787,33.0,240.0,180.0,14.0,0.0
7788,51.0,0.0,180.0,12.0,0.0
7789,60.0,0.0,180.0,11.0,0.0
7790,33.0,48.0,180.0,14.0,0.0
7791,51.0,0.0,180.0,12.0,0.0
7792,45.0,0.0,180.0,13.0,0.0
7793,60.0,0.0,180.0,11.0,0.0
7794,33.0,0.0,180.0,14.0,0.0
7795,51.0,240.0,180.0,12.0,0.0
7796,45.0,0.0,180.0,13.0,0.0
7797,65.0,216.0,450.0,10.0,0.0
7798,33.0,0.0,180.0,14.0,0.0
7799,60.0,0.0,180.0,11.0,0.0
7800,45.0,24.0,180.0,13.0,0.0
7801,51.0,0.0,180.0,12.0,0.0
7802,32.0,0.0,180.0,14.0,0.0
7803,51.0,240.0,180.0,12.0,0.0
7804,72.0,0.0,1140.0,10.0,0.0
7805,44.0,0.0,180.0,13.0,0.0
7806,53.0,0.0,180.0,11.0,0.0
7807,32.0,0.0,180.0,14.0,0.0
7808,44.0,0.0,180.0,13.0,0.0
7809,53.0,0.0,180.0,11.0,0.0
7810,51.0,240.0,180.0,12.0,0.0
7811,32.0,0.0,180.0,14.0,0.0
7812,44.0,240.0,180.0,13.0,0.0
7813,51.0,0.0,180.0,12.0,0.0
7814,53.0,0.0,180.0,11.0,0.0
7815,53.0,192.0,180.0,11.0,0.0
7816,51.0,0.0,180.0,12.0,0.0
7817,32.0,0.0,180.0,14.0,0.0
7818,44.0,0.0,180.0,13.0,0.0
7819,32.0,0.0,180.0,14.0,0.0
7820,51.0,48.0,150.0,12.0,0.0
7821,54.0,192.0,180.0,11.0,0.0
7822,44.0,0.0,180.0,13.0,0.0
7823,72.0,48.0,150.0,10.0,0.0
7824,51.0,144.0,240.0,12.0,0.0
7825,32.0,48.0,180.0,14.0,0.0
7826,44.0,0.0,180.0,13.0,0.0
7827,54.0,0.0,180.0,11.0,0.0
7828,44.0,0.0,180.0,13.0,0.0
7829,47.0,144.0,240.0,12.0,0.0
7830,74.0,48.0,150.0,10.0,0.0
7831,54.0,0.0,180.0,11.0,0.0
7832,32.0,48.0,180.0,14.0,0.0
7833,54.0,48.0,180.0,11.0,0.0
7834,32.0,0.0,180.0,14.0,0.0
7835,44.0,0.0,180.0,13.0,0.0
7836,75.0,48.0,150.0,10.0,0.0
7837,48.0,192.0,15.0,12.0,0.0
7838,75.0,192.0,240.0,10.0,0.0
7839,31.0,0.0,180.0,14.0,0.0
7840,55.0,0.0,180.0,11.0,0.0
7841,43.0,48.0,180.0,13.0,0.0
7842,31.0,0.0,180.0,14.0,0.0
7843,43.0,48.0,180.0,13.0,0.0
7844,71.0,0.0,240.0,10.0,0.0
7845,55.0,0.0,180.0,11.0,0.0
7846,50.0,192.0,240.0,12.0,0.0
7847,72.0,48.0,570.0,10.0,0.0
7848,55.0,0.0,180.0,11.0,0.0
7849,43.0,0.0,180.0,13.0,0.0
7850,51.0,192.0,240.0,12.0,0.0
7851,31.0,48.0,180.0,14.0,0.0
7852,55.0,0.0,180.0,11.0,0.0
7853,50.0,96.0,240.0,12.0,0.0
7854,31.0,0.0,180.0,14.0,0.0
7855,43.0,48.0,180.0,13.0,0.0
7856,31.0,0.0,180.0,14.0,0.0
7857,55.0,48.0,150.0,11.0,0.0
7858,51.0,192.0,180.0,12.0,0.0
7859,43.0,0.0,180.0,13.0,0.0
7860,72.0,48.0,150.0,10.0,0.0
7861,43.0,0.0,180.0,13.0,0.0
7862,55.0,0.0,180.0,12.0,0.0
7863,31.0,48.0,180.0,14.0,0.0
7864,63.0,144.0,240.0,11.0,0.0
7865,59.0,144.0,240.0,11.0,0.0
7866,55.0,0.0,180.0,12.0,0.0
7867,43.0,48.0,180.0,13.0,0.0
7868,74.0,48.0,150.0,10.0,0.0
7869,31.0,0.0,180.0,14.0,0.0
7870,60.0,192.0,240.0,11.0,0.0
7871,75.0,48.0,150.0,10.0,0.0
7872,31.0,0.0,180.0,14.0,0.0
7873,43.0,0.0,180.0,13.0,0.0
7874,55.0,48.0,180.0,12.0,0.0
7875,75.0,0.0,240.0,10.0,0.0
7876,30.0,0.0,180.0,14.0,0.0
7877,57.0,0.0,180.0,12.0,0.0
7878,60.0,192.0,240.0,11.0,0.0
7879,42.0,48.0,180.0,13.0,0.0
7880,57.0,0.0,180.0,12.0,0.0
7881,71.0,0.0,240.0,10.0,0.0
7882,42.0,48.0,180.0,13.0,0.0
7883,30.0,0.0,180.0,14.0,0.0
7884,62.0,192.0,240.0,11.0,0.0
7885,30.0,0.0,180.0,14.0,0.0
7886,57.0,48.0,180.0,12.0,0.0
7887,72.0,48.0,570.0,10.0,0.0
7888,63.0,192.0,240.0,11.0,0.0
7889,42.0,0.0,180.0,13.0,0.0
7890,42.0,0.0,180.0,13.0,0.0
7891,62.0,96.0,240.0,11.0,0.0
7892,57.0,0.0,180.0,12.0,0.0
7893,30.0,48.0,180.0,14.0,0.0
7894,55.0,192.0,180.0,12.0,0.0
7895,63.0,48.0,150.0,11.0,0.0
7896,31.0,0.0,180.0,14.0,0.0
7897,43.0,0.0,180.0,13.0,0.0
7898,63.0,144.0,240.0,11.0,0.0
7899,55.0,0.0,180.0,12.0,0.0
7900,31.0,0.0,180.0,14.0,0.0
7901,72.0,48.0,150.0,10.0,0.0
7902,43.0,48.0,180.0,13.0,0.0
7903,43.0,0.0,180.0,13.0,0.0
7904,31.0,48.0,180.0,14.0,0.0
7905,74.0,48.0,150.0,10.0,0.0
7906,55.0,0.0,180.0,12.0,0.0
7907,59.0,144.0,240.0,11.0,0.0
7908,43.0,0.0,180.0,13.0,0.0
7909,31.0,0.0,180.0,14.0,0.0
7910,55.0,48.0,180.0,12.0,0.0
7911,75.0,48.0,150.0,10.0,0.0
7912,60.0,192.0,15.0,11.0,0.0
7913,75.0,192.0,480.0,10.0,0.0
7914,44.0,0.0,180.0,13.0,0.0
7915,32.0,240.0,180.0,14.0,0.0
7916,54.0,0.0,480.0,12.0,0.0
7917,44.0,0.0,180.0,13.0,0.0
7918,32.0,48.0,180.0,14.0,0.0
7919,63.0,192.0,480.0,11.0,0.0
7920,66.0,0.0,900.0,10.0,0.0
7921,44.0,0.0,180.0,13.0,0.0
7922,48.0,0.0,480.0,12.0,0.0
7923,32.0,240.0,180.0,14.0,0.0
7924,32.0,48.0,180.0,14.0,0.0
7925,44.0,0.0,180.0,13.0,0.0
7926,62.0,0.0,480.0,11.0,0.0
7927,44.0,240.0,180.0,13.0,0.0
7928,47.0,192.0,480.0,12.0,0.0
7929,32.0,0.0,180.0,14.0,0.0
7930,44.0,0.0,180.0,13.0,0.0
7931,32.0,48.0,180.0,14.0,0.0
7932,60.0,0.0,480.0,11.0,0.0
7933,44.0,240.0,180.0,13.0,0.0
7934,32.0,0.0,180.0,14.0,0.0
7935,48.0,192.0,480.0,12.0,0.0
7936,66.0,24.0,450.0,10.0,0.0
7937,44.0,24.0,180.0,13.0,0.0
7938,32.0,0.0,180.0,14.0,0.0
7939,59.0,0.0,180.0,11.0,0.0
7940,43.0,0.0,390.0,13.0,0.0
7941,31.0,0.0,390.0,14.0,0.0
7942,50.0,192.0,180.0,12.0,0.0
7943,79.0,192.0,960.0,0.0,0.0
7944,71.0,0.0,960.0,1.0,0.0
7945,67.0,48.0,390.0,10.0,0.0
7946,74.0,0.0,960.0,1.0,0.0
7947,62.0,0.0,180.0,11.0,0.0
7948,59.0,240.0,180.0,12.0,0.0
7949,59.0,240.0,180.0,12.0,0.0
7950,62.0,0.0,180.0,11.0,0.0
7951,59.0,48.0,180.0,12.0,0.0
7952,62.0,0.0,180.0,11.0,0.0
7953,31.0,48.0,390.0,14.0,0.0
7954,72.0,192.0,960.0,1.0,0.0
7955,72.0,192.0,720.0,10.0,0.0
7956,43.0,0.0,390.0,13.0,0.0
7957,60.0,192.0,180.0,12.0,0.0
7958,75.0,0.0,960.0,1.0,0.0
7959,78.0,0.0,960.0,0.0,0.0
7960,63.0,0.0,180.0,11.0,0.0
7961,63.0,0.0,180.0,11.0,0.0
7962,60.0,240.0,180.0,12.0,0.0
7963,60.0,48.0,180.0,12.0,0.0
7964,63.0,0.0,180.0,11.0,0.0
7965,63.0,48.0,180.0,11.0,0.0
7966,66.0,0.0,240.0,10.0,0.0
7967,60.0,0.0,180.0,12.0,0.0
7968,74.0,192.0,960.0,1.0,0.0
7969,67.0,0.0,390.0,10.0,0.0
7970,31.0,48.0,390.0,14.0,0.0
7971,79.0,0.0,960.0,0.0,0.0
7972,59.0,192.0,180.0,12.0,0.0
7973,43.0,0.0,390.0,13.0,0.0
7974,62.0,0.0,180.0,11.0,0.0
7975,71.0,0.0,960.0,1.0,0.0
7976,62.0,0.0,180.0,11.0,0.0
7977,59.0,240.0,180.0,12.0,0.0
7978,62.0,0.0,180.0,11.0,0.0
7979,59.0,240.0,180.0,12.0,0.0
7980,62.0,48.0,180.0,11.0,0.0
7981,59.0,0.0,180.0,12.0,0.0
7982,31.0,0.0,390.0,14.0,0.0
7983,72.0,0.0,960.0,1.0,0.0
7984,43.0,48.0,390.0,13.0,0.0
7985,75.0,0.0,960.0,1.0,0.0
7986,63.0,192.0,180.0,11.0,0.0
7987,78.0,0.0,960.0,0.0,0.0
7988,60.0,0.0,180.0,12.0,0.0
7989,72.0,192.0,720.0,10.0,0.0
7990,63.0,0.0,180.0,11.0,0.0
7991,60.0,240.0,180.0,12.0,0.0
7992,63.0,0.0,180.0,11.0,0.0
7993,60.0,48.0,180.0,12.0,0.0
7994,63.0,0.0,180.0,11.0,0.0
7995,60.0,48.0,180.0,12.0,0.0
7996,66.0,384.0,240.0,10.0,0.0
7997,67.0,0.0,390.0,10.0,0.0
7998,71.0,0.0,390.0,1.0,0.0
7999,31.0,0.0,390.0,14.0,0.0
8000,43.0,0.0,390.0,13.0,0.0
8001,74.0,960.0,390.0,1.0,0.0
8002,62.0,0.0,390.0,11.0,0.0
8003,79.0,0.0,390.0,0.0,0.0
8004,59.0,0.0,390.0,12.0,0.0
8005,79.0,960.0,390.0,0.0,0.0
8006,74.0,0.0,390.0,1.0,0.0
8007,62.0,0.0,390.0,11.0,0.0
8008,31.0,0.0,390.0,14.0,0.0
8009,67.0,0.0,390.0,10.0,0.0
8010,59.0,0.0,390.0,12.0,0.0
8011,43.0,0.0,390.0,13.0,0.0
8012,71.0,0.0,390.0,1.0,0.0
8013,59.0,0.0,390.0,12.0,0.0
8014,43.0,0.0,390.0,13.0,0.0
8015,74.0,0.0,390.0,1.0,0.0
8016,62.0,0.0,390.0,11.0,0.0
8017,79.0,576.0,390.0,0.0,0.0
8018,67.0,0.0,390.0,10.0,0.0
8019,31.0,0.0,390.0,14.0,0.0
8020,71.0,0.0,390.0,1.0,0.0
8021,67.0,384.0,120.0,6.0,0.0
8022,79.0,384.0,390.0,6.0,0.0
8023,79.0,576.0,300.0,6.0,0.0
8024,48.0,336.0,390.0,7.0,0.0
8025,79.0,80.0,720.0,6.0,0.0
8026,63.0,0.0,480.0,10.0,0.0
8027,60.0,384.0,480.0,11.0,0.0
8028,77.0,80.0,90.0,6.0,0.0
8029,75.0,80.0,90.0,6.0,0.0
8030,74.0,0.0,90.0,6.0,0.0
8031,72.0,96.0,390.0,6.0,0.0
8032,67.0,480.0,480.0,10.0,0.0
8033,63.0,0.0,480.0,11.0,0.0
8034,65.0,0.0,480.0,10.0,0.0
8035,62.0,384.0,480.0,11.0,0.0
8036,48.0,576.0,390.0,7.0,0.0
8037,60.0,0.0,390.0,11.0,0.0
8038,63.0,0.0,390.0,10.0,0.0
8039,67.0,384.0,120.0,6.0,0.0
8040,79.0,384.0,390.0,6.0,0.0
8041,79.0,576.0,300.0,6.0,0.0
8042,47.0,336.0,390.0,7.0,0.0
8043,80.0,80.0,720.0,6.0,0.0
8044,62.0,0.0,480.0,11.0,0.0
8045,65.0,384.0,480.0,10.0,0.0
8046,79.0,80.0,90.0,6.0,0.0
8047,77.0,80.0,90.0,6.0,0.0
8048,75.0,0.0,90.0,6.0,0.0
8049,74.0,96.0,390.0,6.0,0.0
8050,68.0,0.0,480.0,10.0,0.0
8051,65.0,480.0,480.0,11.0,0.0
8052,63.0,0.0,480.0,11.0,0.0
8053,67.0,384.0,480.0,10.0,0.0
8054,62.0,0.0,390.0,11.0,0.0
8055,65.0,576.0,390.0,10.0,0.0
8056,47.0,0.0,390.0,7.0,0.0
8057,68.0,384.0,120.0,6.0,0.0
8058,80.0,384.0,390.0,6.0,0.0
8059,80.0,576.0,300.0,6.0,0.0
8060,48.0,96.0,390.0,7.0,0.0
8061,78.0,240.0,240.0,6.0,0.0
8062,79.0,240.0,240.0,6.0,0.0
8063,75.0,384.0,240.0,6.0,0.0
8064,53.0,96.0,390.0,7.0,0.0
8065,76.0,240.0,240.0,6.0,0.0
8066,77.0,240.0,240.0,6.0,0.0
8067,74.0,384.0,240.0,6.0,0.0
8068,55.0,96.0,390.0,7.0,0.0
8069,74.0,240.0,240.0,6.0,0.0
8070,75.0,240.0,240.0,6.0,0.0
8071,72.0,384.0,240.0,6.0,0.0
8072,43.0,96.0,390.0,7.0,0.0
8073,73.0,240.0,240.0,6.0,0.0
8074,74.0,240.0,240.0,6.0,0.0
8075,71.0,144.0,240.0,6.0,0.0
8076,48.0,96.0,390.0,7.0,0.0
8077,72.0,240.0,150.0,6.0,0.0
8078,67.0,240.0,240.0,6.0,0.0
8079,66.0,240.0,240.0,6.0,0.0
8080,67.0,240.0,240.0,6.0,0.0
8081,68.0,240.0,240.0,6.0,0.0
8082,69.0,240.0,240.0,6.0,0.0
8083,70.0,240.0,240.0,6.0,0.0
8084,71.0,240.0,240.0,6.0,0.0
8085,72.0,240.0,240.0,6.0,0.0
8086,73.0,240.0,240.0,6.0,0.0
8087,74.0,240.0,240.0,6.0,0.0
8088,75.0,256.0,240.0,6.0,0.0
8089,76.0,320.0,270.0,6.0,0.0
8090,77.0,320.0,270.0,6.0,0.0
8091,78.0,184.0,270.0,6.0,0.0
8092,79.0,0.0,960.0,0.0,0.0
8093,75.0,0.0,960.0,1.0,0.0
8094,78.0,120.0,120.0,6.0,0.0
8095,60.0,0.0,1920.0,7.0,0.0
8096,48.0,0.0,1920.0,7.0,0.0
8097,79.0,120.0,120.0,6.0,0.0
8098,80.0,120.0,120.0,6.0,0.0
8099,79.0,120.0,120.0,6.0,0.0
8100,74.0,120.0,120.0,6.0,0.0
8101,75.0,120.0,120.0,6.0,0.0
8102,79.0,120.0,120.0,6.0,0.0
8103,75.0,120.0,120.0,6.0,0.0
8104,75.0,0.0,390.0,0.0,0.0
8105,71.0,120.0,120.0,6.0,0.0
8106,72.0,96.0,390.0,1.0,0.0
8107,72.0,120.0,120.0,6.0,0.0
8108,75.0,24.0,120.0,6.0,0.0
8109,72.0,120.0,120.0,6.0,0.0
8110,66.0,120.0,120.0,6.0,0.0
8111,67.0,120.0,120.0,6.0,0.0
8112,72.0,120.0,120.0,6.0,0.0
8113,67.0,120.0,120.0,6.0,0.0
8114,60.0,96.0,1920.0,10.0,0.0
8115,48.0,0.0,1920.0,13.0,0.0
8116,60.0,0.0,1920.0,11.0,0.0
8117,36.0,0.0,1920.0,14.0,0.0
8118,48.0,0.0,1920.0,12.0,0.0
8119,55.0,0.0,960.0,2.0,0.0
8120,62.0,120.0,120.0,6.0,0.0
8121,63.0,120.0,120.0,6.0,0.0
8122,67.0,120.0,120.0,6.0,0.0
8123,63.0,120.0,120.0,6.0,0.0
8124,59.0,120.0,120.0,6.0,0.0
8125,72.0,0.0,480.0,0.0,0.0
8126,67.0,0.0,480.0,1.0,0.0
8127,60.0,120.0,120.0,6.0,0.0
8128,63.0,120.0,120.0,6.0,0.0
8129,60.0,120.0,120.0,6.0,0.0
8130,75.0,0.0,480.0,0.0,0.0
8131,72.0,0.0,480.0,1.0,0.0
8132,54.0,120.0,120.0,6.0,0.0
8133,51.0,0.0,15.0,2.0,0.0
8134,48.0,0.0,390.0,2.0,0.0
8135,55.0,120.0,120.0,6.0,0.0
8136,60.0,24.0,120.0,6.0,0.0
8137,55.0,120.0,120.0,6.0,0.0
8138,79.0,0.0,480.0,0.0,0.0
8139,75.0,0.0,480.0,1.0,0.0
8140,50.0,120.0,120.0,6.0,0.0
8141,51.0,120.0,120.0,6.0,0.0
8142,55.0,120.0,120.0,6.0,0.0
8143,51.0,0.0,120.0,6.0,0.0
8144,56.0,144.0,90.0,6.0,0.0
8145,80.0,120.0,960.0,0.0,0.0
8146,77.0,0.0,960.0,1.0,0.0
8147,47.0,0.0,1920.0,7.0,0.0
8148,35.0,0.0,1920.0,7.0,0.0
8149,53.0,120.0,120.0,6.0,0.0
8150,56.0,120.0,120.0,6.0,0.0
8151,59.0,120.0,120.0,6.0,0.0
8152,41.0,0.0,480.0,2.0,0.0
8153,62.0,120.0,120.0,6.0,0.0
8154,56.0,120.0,120.0,6.0,0.0
8155,59.0,120.0,120.0,6.0,0.0
8156,62.0,0.0,120.0,6.0,0.0
8157,44.0,0.0,15.0,2.0,0.0
8158,77.0,0.0,390.0,0.0,0.0
8159,74.0,96.0,390.0,1.0,0.0
8160,65.0,120.0,120.0,6.0,0.0
8161,59.0,120.0,120.0,6.0,0.0
8162,62.0,24.0,120.0,6.0,0.0
8163,65.0,0.0,120.0,6.0,0.0
8164,53.0,0.0,480.0,2.0,0.0
8165,50.0,120.0,15.0,2.0,0.0
8166,68.0,120.0,120.0,6.0,0.0
8167,62.0,120.0,120.0,6.0,0.0
8168,65.0,120.0,120.0,6.0,0.0
8169,68.0,120.0,120.0,6.0,0.0
8170,71.0,120.0,120.0,6.0,0.0
8171,56.0,120.0,960.0,2.0,0.0
8172,71.0,192.0,1920.0,11.0,0.0
8173,71.0,0.0,1920.0,10.0,0.0
8174,59.0,0.0,1920.0,12.0,0.0
8175,53.0,0.0,960.0,2.0,0.0
8176,47.0,0.0,1920.0,14.0,0.0
8177,59.0,0.0,1920.0,13.0,0.0
8178,65.0,120.0,120.0,6.0,0.0
8179,68.0,120.0,120.0,6.0,0.0
8180,71.0,120.0,120.0,6.0,0.0
8181,74.0,120.0,120.0,6.0,0.0
8182,68.0,0.0,480.0,1.0,0.0
8183,74.0,0.0,480.0,0.0,0.0
8184,68.0,120.0,120.0,6.0,0.0
8185,71.0,120.0,120.0,6.0,0.0
8186,74.0,0.0,120.0,6.0,0.0
8187,77.0,120.0,120.0,6.0,0.0
8188,77.0,120.0,480.0,0.0,0.0
8189,74.0,0.0,480.0,1.0,0.0
8190,50.0,96.0,390.0,2.0,0.0
8191,53.0,0.0,390.0,2.0,0.0
8192,71.0,120.0,120.0,6.0,0.0
8193,74.0,24.0,120.0,6.0,0.0
8194,77.0,0.0,120.0,6.0,0.0
8195,80.0,0.0,480.0,0.0,0.0
8196,80.0,120.0,120.0,6.0,0.0
8197,77.0,0.0,480.0,1.0,0.0
8198,77.0,120.0,120.0,6.0,0.0
8199,74.0,120.0,120.0,6.0,0.0
8200,71.0,0.0,120.0,6.0,0.0
8201,60.0,0.0,390.0,13.0,0.0
8202,79.0,0.0,960.0,0.0,0.0
8203,72.0,48.0,180.0,10.0,0.0
8204,60.0,0.0,180.0,12.0,0.0
8205,48.0,0.0,390.0,14.0,0.0
8206,55.0,0.0,960.0,2.0,0.0
8207,72.0,0.0,180.0,11.0,0.0
8208,48.0,48.0,390.0,7.0,0.0
8209,60.0,0.0,390.0,7.0,0.0
8210,75.0,0.0,960.0,1.0,0.0
8211,51.0,0.0,960.0,2.0,0.0
8212,67.0,120.0,120.0,6.0,0.0
8213,63.0,0.0,180.0,11.0,0.0
8214,60.0,48.0,180.0,12.0,0.0
8215,72.0,24.0,120.0,6.0,0.0
8216,67.0,0.0,180.0,10.0,0.0
8217,75.0,120.0,120.0,6.0,0.0
8218,79.0,72.0,120.0,6.0,0.0
8219,63.0,0.0,180.0,11.0,0.0
8220,67.0,48.0,180.0,10.0,0.0
8221,60.0,0.0,180.0,12.0,0.0
8222,75.0,120.0,120.0,6.0,0.0
8223,72.0,72.0,120.0,6.0,0.0
8224,63.0,0.0,180.0,11.0,0.0
8225,67.0,48.0,180.0,10.0,0.0
8226,60.0,0.0,180.0,12.0,0.0
8227,67.0,240.0,120.0,6.0,0.0
8228,77.0,0.0,960.0,0.0,0.0
8229,53.0,0.0,960.0,2.0,0.0
8230,74.0,0.0,960.0,1.0,0.0
8231,50.0,0.0,960.0,2.0,0.0
8232,53.0,0.0,390.0,7.0,0.0
8233,41.0,48.0,390.0,7.0,0.0
8234,41.0,0.0,390.0,14.0,0.0
8235,53.0,0.0,390.0,13.0,0.0
8236,65.0,120.0,120.0,6.0,0.0
8237,68.0,24.0,120.0,6.0,0.0
8238,65.0,0.0,180.0,10.0,0.0
8239,53.0,48.0,180.0,12.0,0.0
8240,62.0,0.0,180.0,11.0,0.0
8241,74.0,120.0,120.0,6.0,0.0
8242,77.0,72.0,120.0,6.0,0.0
8243,53.0,0.0,180.0,12.0,0.0
8244,62.0,0.0,180.0,11.0,0.0
8245,65.0,48.0,180.0,10.0,0.0
8246,74.0,120.0,120.0,6.0,0.0
8247,53.0,48.0,180.0,12.0,0.0
8248,65.0,0.0,180.0,10.0,0.0
8249,62.0,0.0,180.0,11.0,0.0
8250,68.0,72.0,120.0,6.0,0.0
8251,65.0,240.0,120.0,6.0,0.0
8252,72.0,240.0,960.0,1.0,0.0
8253,43.0,0.0,390.0,7.0,0.0
8254,55.0,0.0,390.0,7.0,0.0
8255,51.0,0.0,960.0,2.0,0.0
8256,48.0,0.0,960.0,2.0,0.0
8257,55.0,0.0,390.0,13.0,0.0
8258,75.0,0.0,960.0,0.0,0.0
8259,43.0,48.0,390.0,14.0,0.0
8260,63.0,120.0,120.0,6.0,0.0
8261,60.0,0.0,180.0,11.0,0.0
8262,63.0,0.0,180.0,10.0,0.0
8263,67.0,24.0,120.0,6.0,0.0
8264,55.0,48.0,180.0,12.0,0.0
8265,72.0,120.0,120.0,6.0,0.0
8266,60.0,0.0,180.0,11.0,0.0
8267,75.0,72.0,120.0,6.0,0.0
8268,63.0,0.0,180.0,10.0,0.0
8269,55.0,48.0,180.0,12.0,0.0
8270,72.0,120.0,120.0,6.0,0.0
8271,63.0,0.0,180.0,10.0,0.0
8272,67.0,72.0,120.0,6.0,0.0
8273,60.0,0.0,180.0,11.0,0.0
8274,55.0,48.0,180.0,12.0,0.0
8275,63.0,0.0,120.0,6.0,0.0
8276,71.0,0.0,960.0,1.0,0.0
8277,43.0,0.0,390.0,13.0,0.0
8278,74.0,120.0,960.0,0.0,0.0
8279,31.0,48.0,390.0,7.0,0.0
8280,43.0,0.0,390.0,7.0,0.0
8281,31.0,0.0,390.0,14.0,0.0
8282,50.0,0.0,960.0,2.0,0.0
8283,47.0,0.0,960.0,2.0,0.0
8284,62.0,120.0,120.0,6.0,0.0
8285,59.0,48.0,180.0,11.0,0.0
8286,62.0,0.0,180.0,10.0,0.0
8287,65.0,24.0,120.0,6.0,0.0
8288,55.0,0.0,180.0,12.0,0.0
8289,71.0,120.0,120.0,6.0,0.0
8290,55.0,48.0,180.0,12.0,0.0
8291,62.0,0.0,180.0,10.0,0.0
8292,59.0,0.0,180.0,11.0,0.0
8293,74.0,72.0,120.0,6.0,0.0
8294,71.0,120.0,120.0,6.0,0.0
8295,65.0,72.0,120.0,6.0,0.0
8296,62.0,0.0,180.0,10.0,0.0
8297,59.0,48.0,180.0,11.0,0.0
8298,55.0,0.0,180.0,12.0,0.0
8299,62.0,0.0,120.0,6.0,0.0
8300,36.0,0.0,390.0,14.0,0.0
8301,60.0,0.0,390.0,11.0,0.0
8302,48.0,96.0,390.0,2.0,0.0
8303,76.0,0.0,390.0,0.0,0.0
8304,64.0,120.0,120.0,6.0,0.0
8305,48.0,0.0,390.0,7.0,0.0
8306,36.0,0.0,390.0,7.0,0.0
8307,48.0,0.0,390.0,13.0,0.0
8308,70.0,0.0,390.0,1.0,0.0
8309,60.0,0.0,390.0,10.0,0.0
8310,48.0,0.0,390.0,12.0,0.0
8311,67.0,120.0,120.0,6.0,0.0
8312,70.0,24.0,120.0,6.0,0.0
8313,76.0,120.0,120.0,6.0,0.0
8314,64.0,120.0,120.0,6.0,0.0
8315,76.0,120.0,120.0,6.0,0.0
8316,65.0,120.0,120.0,6.0,0.0
8317,77.0,120.0,120.0,6.0,0.0
8318,64.0,0.0,240.0,1.0,0.0
8319,61.0,0.0,960.0,2.0,0.0
8320,82.0,0.0,240.0,0.0,0.0
8321,67.0,120.0,120.0,6.0,0.0
8322,79.0,120.0,120.0,6.0,0.0
8323,80.0,0.0,240.0,0.0,0.0
8324,68.0,120.0,120.0,6.0,0.0
8325,65.0,120.0,240.0,1.0,0.0
8326,80.0,0.0,120.0,6.0,0.0
8327,79.0,120.0,240.0,0.0,0.0
8328,70.0,120.0,120.0,6.0,0.0
8329,67.0,0.0,240.0,1.0,0.0
8330,82.0,0.0,120.0,6.0,0.0
8331,67.0,120.0,120.0,6.0,0.0
8332,64.0,0.0,240.0,1.0,0.0
8333,82.0,0.0,240.0,0.0,0.0
8334,79.0,120.0,120.0,6.0,0.0
8335,60.0,0.0,390.0,2.0,0.0
8336,76.0,96.0,390.0,0.0,0.0
8337,64.0,120.0,120.0,6.0,0.0
8338,70.0,0.0,390.0,1.0,0.0
8339,67.0,120.0,120.0,6.0,0.0
8340,70.0,24.0,120.0,6.0,0.0
8341,76.0,120.0,120.0,6.0,0.0
8342,64.0,120.0,120.0,6.0,0.0
8343,76.0,120.0,120.0,6.0,0.0
8344,65.0,120.0,120.0,6.0,0.0
8345,77.0,120.0,120.0,6.0,0.0
8346,82.0,0.0,240.0,0.0,0.0
8347,67.0,120.0,120.0,6.0,0.0
8348,61.0,0.0,960.0,2.0,0.0
8349,64.0,0.0,240.0,1.0,0.0
8350,79.0,120.0,120.0,6.0,0.0
8351,65.0,0.0,240.0,1.0,0.0
8352,80.0,120.0,240.0,0.0,0.0
8353,68.0,120.0,120.0,6.0,0.0
8354,80.0,0.0,120.0,6.0,0.0
8355,67.0,120.0,240.0,1.0,0.0
8356,70.0,120.0,120.0,6.0,0.0
8357,79.0,0.0,240.0,0.0,0.0
8358,82.0,0.0,120.0,6.0,0.0
8359,82.0,0.0,240.0,0.0,0.0
8360,64.0,120.0,240.0,1.0,0.0
8361,67.0,120.0,120.0,6.0,0.0
8362,79.0,0.0,120.0,6.0,0.0
8363,67.0,0.0,390.0,6.0,0.0
8364,76.0,96.0,390.0,0.0,0.0
8365,76.0,0.0,390.0,6.0,0.0
8366,70.0,0.0,390.0,6.0,0.0
8367,60.0,0.0,390.0,2.0,0.0
8368,36.0,0.0,390.0,14.0,0.0
8369,70.0,0.0,390.0,1.0,0.0
8370,48.0,0.0,390.0,13.0,0.0
8371,47.0,120.0,120.0,7.0,0.0
8372,59.0,120.0,120.0,7.0,0.0
8373,48.0,24.0,120.0,7.0,0.0
8374,60.0,120.0,120.0,7.0,0.0
8375,55.0,0.0,300.0,11.0,0.0
8376,52.0,48.0,300.0,12.0,0.0
8377,58.0,0.0,300.0,10.0,0.0
8378,49.0,120.0,120.0,7.0,0.0
8379,61.0,72.0,120.0,7.0,0.0
8380,48.0,120.0,120.0,7.0,0.0
8381,60.0,120.0,120.0,7.0,0.0
8382,79.0,0.0,390.0,6.0,0.0
8383,76.0,0.0,390.0,6.0,0.0
8384,47.0,120.0,120.0,7.0,0.0
8385,70.0,0.0,390.0,6.0,0.0
8386,36.0,0.0,390.0,14.0,0.0
8387,48.0,96.0,390.0,13.0,0.0
8388,59.0,120.0,120.0,7.0,0.0
8389,48.0,24.0,120.0,7.0,0.0
8390,60.0,120.0,120.0,7.0,0.0
8391,55.0,0.0,300.0,12.0,0.0
8392,46.0,120.0,120.0,7.0,0.0
8393,58.0,0.0,300.0,11.0,0.0
8394,64.0,48.0,300.0,10.0,0.0
8395,58.0,72.0,120.0,7.0,0.0
8396,44.0,120.0,120.0,7.0,0.0
8397,56.0,120.0,120.0,7.0,0.0
8398,76.0,0.0,390.0,6.0,0.0
8399,79.0,0.0,390.0,6.0,0.0
8400,48.0,0.0,390.0,13.0,0.0
8401,43.0,120.0,120.0,7.0,0.0
8402,36.0,96.0,390.0,14.0,0.0
8403,82.0,0.0,390.0,6.0,0.0
8404,55.0,120.0,120.0,7.0,0.0
8405,41.0,24.0,120.0,7.0,0.0
8406,53.0,120.0,120.0,7.0,0.0
8407,64.0,0.0,300.0,11.0,0.0
8408,58.0,48.0,300.0,12.0,0.0
8409,40.0,120.0,120.0,7.0,0.0
8410,67.0,0.0,300.0,10.0,0.0
8411,52.0,72.0,120.0,7.0,0.0
8412,37.0,120.0,120.0,7.0,0.0
8413,49.0,120.0,120.0,7.0,0.0
8414,36.0,120.0,120.0,7.0,0.0
8415,64.0,0.0,300.0,12.0,0.0
8416,36.0,0.0,300.0,14.0,0.0
8417,48.0,48.0,300.0,13.0,0.0
8418,67.0,0.0,300.0,11.0,0.0
8419,70.0,0.0,300.0,10.0,0.0
8420,48.0,72.0,120.0,7.0,0.0
8421,34.0,120.0,120.0,7.0,0.0
8422,46.0,120.0,120.0,7.0,0.0
8423,36.0,0.0,300.0,14.0,0.0
8424,76.0,0.0,300.0,10.0,0.0
8425,60.0,0.0,300.0,12.0,0.0
8426,70.0,0.0,300.0,11.0,0.0
8427,32.0,120.0,120.0,7.0,0.0
8428,48.0,48.0,300.0,13.0,0.0
8429,44.0,72.0,120.0,7.0,0.0
8430,31.0,120.0,120.0,7.0,0.0
8431,43.0,120.0,120.0,7.0,0.0
8432,41.0,0.0,390.0,7.0,0.0
8433,60.0,0.0,390.0,12.0,0.0
8434,69.0,0.0,390.0,11.0,0.0
8435,77.0,0.0,390.0,10.0,0.0
8436,41.0,0.0,390.0,13.0,0.0
8437,57.0,120.0,120.0,6.0,0.0
8438,29.0,96.0,390.0,14.0,0.0
8439,60.0,120.0,120.0,6.0,0.0
8440,63.0,24.0,120.0,6.0,0.0
8441,69.0,120.0,120.0,6.0,0.0
8442,57.0,120.0,120.0,6.0,0.0
8443,69.0,120.0,120.0,6.0,0.0
8444,58.0,120.0,120.0,6.0,0.0
8445,70.0,120.0,120.0,6.0,0.0
8446,54.0,0.0,960.0,2.0,0.0
8447,60.0,120.0,120.0,6.0,0.0
8448,75.0,120.0,240.0,1.0,0.0
8449,57.0,0.0,240.0,2.0,0.0
8450,72.0,0.0,120.0,6.0,0.0
8451,73.0,0.0,240.0,1.0,0.0
8452,58.0,0.0,240.0,2.0,0.0
8453,61.0,120.0,120.0,6.0,0.0
8454,73.0,120.0,120.0,6.0,0.0
8455,60.0,0.0,240.0,2.0,0.0
8456,72.0,0.0,240.0,1.0,0.0
8457,63.0,120.0,120.0,6.0,0.0
8458,75.0,120.0,120.0,6.0,0.0
8459,60.0,120.0,120.0,6.0,0.0
8460,57.0,0.0,240.0,2.0,0.0
8461,75.0,0.0,240.0,1.0,0.0
8462,72.0,120.0,120.0,6.0,0.0
8463,53.0,0.0,390.0,7.0,0.0
8464,41.0,0.0,390.0,7.0,0.0
8465,63.0,0.0,390.0,2.0,0.0
8466,53.0,0.0,390.0,2.0,0.0
8467,69.0,96.0,390.0,1.0,0.0
8468,57.0,120.0,120.0,6.0,0.0
8469,60.0,120.0,120.0,6.0,0.0
8470,63.0,24.0,120.0,6.0,0.0
8471,69.0,120.0,120.0,6.0,0.0
8472,57.0,120.0,120.0,6.0,0.0
8473,69.0,120.0,120.0,6.0,0.0
8474,58.0,120.0,120.0,6.0,0.0
8475,70.0,120.0,120.0,6.0,0.0
8476,60.0,120.0,120.0,6.0,0.0
8477,75.0,0.0,240.0,1.0,0.0
8478,57.0,0.0,240.0,2.0,0.0
8479,54.0,120.0,960.0,2.0,0.0
8480,72.0,120.0,120.0,6.0,0.0
8481,58.0,0.0,240.0,2.0,0.0
8482,61.0,120.0,120.0,6.0,0.0
8483,73.0,0.0,240.0,1.0,0.0
8484,73.0,120.0,120.0,6.0,0.0
8485,60.0,0.0,240.0,2.0,0.0
8486,72.0,0.0,240.0,1.0,0.0
8487,63.0,120.0,120.0,6.0,0.0
8488,75.0,120.0,120.0,6.0,0.0
8489,60.0,120.0,120.0,6.0,0.0
8490,75.0,0.0,240.0,1.0,0.0
8491,57.0,0.0,240.0,2.0,0.0
8492,72.0,0.0,120.0,6.0,0.0
8493,41.0,96.0,390.0,14.0,0.0
8494,53.0,0.0,390.0,13.0,0.0
8495,52.0,120.0,120.0,7.0,0.0
8496,69.0,0.0,390.0,6.0,0.0
8497,53.0,0.0,390.0,2.0,0.0
8498,63.0,0.0,390.0,2.0,0.0
8499,69.0,0.0,390.0,1.0,0.0
8500,64.0,120.0,120.0,7.0,0.0
8501,53.0,24.0,120.0,7.0,0.0
8502,65.0,120.0,120.0,7.0,0.0
8503,54.0,120.0,120.0,7.0,0.0
8504,57.0,0.0,300.0,12.0,0.0
8505,60.0,0.0,300.0,11.0,0.0
8506,63.0,48.0,300.0,10.0,0.0
8507,66.0,72.0,120.0,7.0,0.0
8508,53.0,120.0,120.0,7.0,0.0
8509,65.0,120.0,120.0,7.0,0.0
8510,52.0,120.0,120.0,7.0,0.0
8511,72.0,0.0,390.0,6.0,0.0
8512,53.0,0.0,390.0,13.0,0.0
8513,69.0,0.0,390.0,6.0,0.0
8514,41.0,96.0,390.0,14.0,0.0
8515,64.0,120.0,120.0,7.0,0.0
8516,53.0,24.0,120.0,7.0,0.0
8517,65.0,120.0,120.0,7.0,0.0
8518,63.0,48.0,300.0,11.0,0.0
8519,51.0,120.0,120.0,7.0,0.0
8520,69.0,0.0,300.0,10.0,0.0
8521,60.0,0.0,300.0,12.0,0.0
8522,63.0,72.0,120.0,7.0,0.0
8523,49.0,120.0,120.0,7.0,0.0
8524,61.0,120.0,120.0,7.0,0.0
8525,69.0,0.0,390.0,6.0,0.0
8526,75.0,0.0,390.0,6.0,0.0
8527,72.0,0.0,390.0,6.0,0.0
8528,41.0,96.0,390.0,14.0,0.0
8529,53.0,0.0,390.0,13.0,0.0
8530,48.0,120.0,120.0,7.0,0.0
8531,60.0,120.0,120.0,7.0,0.0
8532,46.0,24.0,120.0,7.0,0.0
8533,58.0,120.0,120.0,7.0,0.0
8534,69.0,48.0,300.0,11.0,0.0
8535,45.0,120.0,120.0,7.0,0.0
8536,72.0,0.0,300.0,10.0,0.0
8537,63.0,0.0,300.0,12.0,0.0
8538,57.0,72.0,120.0,7.0,0.0
8539,42.0,120.0,120.0,7.0,0.0
8540,54.0,120.0,120.0,7.0,0.0
8541,69.0,0.0,300.0,12.0,0.0
8542,41.0,120.0,120.0,7.0,0.0
8543,41.0,0.0,300.0,14.0,0.0
8544,72.0,48.0,300.0,11.0,0.0
8545,75.0,0.0,300.0,10.0,0.0
8546,53.0,0.0,300.0,13.0,0.0
8547,53.0,72.0,120.0,7.0,0.0
8548,39.0,120.0,120.0,7.0,0.0
8549,51.0,120.0,120.0,7.0,0.0
8550,53.0,0.0,300.0,13.0,0.0
8551,81.0,0.0,300.0,10.0,0.0
8552,37.0,120.0,120.0,7.0,0.0
8553,41.0,48.0,300.0,14.0,0.0
8554,75.0,0.0,300.0,11.0,0.0
8555,65.0,0.0,300.0,12.0,0.0
8556,49.0,72.0,120.0,7.0,0.0
8557,36.0,120.0,120.0,7.0,0.0
8558,48.0,120.0,120.0,7.0,0.0
8559,46.0,0.0,390.0,13.0,0.0
8560,74.0,96.0,390.0,11.0,0.0
8561,46.0,0.0,390.0,7.0,0.0
8562,34.0,0.0,390.0,7.0,0.0
8563,34.0,0.0,390.0,14.0,0.0
8564,65.0,0.0,390.0,12.0,0.0
8565,62.0,120.0,120.0,6.0,0.0
8566,82.0,0.0,390.0,10.0,0.0
8567,65.0,120.0,120.0,6.0,0.0
8568,68.0,24.0,120.0,6.0,0.0
8569,74.0,120.0,120.0,6.0,0.0
8570,62.0,120.0,120.0,6.0,0.0
8571,74.0,120.0,120.0,6.0,0.0
8572,63.0,120.0,120.0,6.0,0.0
8573,75.0,120.0,120.0,6.0,0.0
8574,65.0,120.0,120.0,6.0,0.0
8575,80.0,0.0,240.0,0.0,0.0
8576,62.0,120.0,240.0,1.0,0.0
8577,59.0,0.0,960.0,2.0,0.0
8578,77.0,0.0,120.0,6.0,0.0
8579,66.0,120.0,120.0,6.0,0.0
8580,63.0,0.0,240.0,1.0,0.0
8581,78.0,0.0,240.0,0.0,0.0
8582,78.0,120.0,120.0,6.0,0.0
8583,65.0,0.0,240.0,1.0,0.0
8584,77.0,0.0,240.0,0.0,0.0
8585,68.0,120.0,120.0,6.0,0.0
8586,80.0,120.0,120.0,6.0,0.0
8587,80.0,0.0,240.0,0.0,0.0
8588,62.0,120.0,240.0,1.0,0.0
8589,65.0,120.0,120.0,6.0,0.0
8590,77.0,0.0,120.0,6.0,0.0
8591,74.0,0.0,390.0,0.0,0.0
8592,62.0,120.0,120.0,6.0,0.0
8593,68.0,96.0,390.0,1.0,0.0
8594,58.0,0.0,390.0,2.0,0.0
8595,65.0,120.0,120.0,6.0,0.0
8596,68.0,24.0,120.0,6.0,0.0
8597,74.0,120.0,120.0,6.0,0.0
8598,62.0,120.0,120.0,6.0,0.0
8599,74.0,120.0,120.0,6.0,0.0
8600,63.0,120.0,120.0,6.0,0.0
8601,75.0,120.0,120.0,6.0,0.0
8602,62.0,0.0,240.0,1.0,0.0
8603,80.0,0.0,240.0,0.0,0.0
8604,65.0,120.0,120.0,6.0,0.0
8605,59.0,0.0,960.0,2.0,0.0
8606,77.0,120.0,120.0,6.0,0.0
8607,66.0,120.0,120.0,6.0,0.0
8608,78.0,0.0,240.0,0.0,0.0
8609,63.0,120.0,240.0,1.0,0.0
8610,78.0,0.0,120.0,6.0,0.0
8611,68.0,120.0,120.0,6.0,0.0
8612,77.0,0.0,240.0,0.0,0.0
8613,65.0,120.0,240.0,1.0,0.0
8614,80.0,0.0,120.0,6.0,0.0
8615,62.0,0.0,240.0,1.0,0.0
8616,65.0,120.0,120.0,6.0,0.0
8617,80.0,96.0,240.0,0.0,0.0
8618,77.0,0.0,120.0,6.0,0.0
8619,65.0,0.0,390.0,6.0,0.0
8620,74.0,0.0,390.0,6.0,0.0
8621,68.0,0.0,390.0,6.0,0.0
8622,74.0,0.0,390.0,0.0,0.0
8623,58.0,0.0,390.0,2.0,0.0
8624,68.0,96.0,390.0,1.0,0.0
8625,34.0,0.0,390.0,14.0,0.0
8626,45.0,144.0,90.0,7.0,0.0
8627,46.0,0.0,390.0,13.0,0.0
8628,57.0,120.0,120.0,7.0,0.0
8629,46.0,24.0,120.0,7.0,0.0
8630,58.0,120.0,120.0,7.0,0.0
8631,47.0,120.0,120.0,7.0,0.0
8632,50.0,0.0,300.0,12.0,0.0
8633,56.0,0.0,300.0,10.0,0.0
8634,53.0,48.0,300.0,11.0,0.0
8635,59.0,72.0,120.0,7.0,0.0
8636,46.0,120.0,120.0,7.0,0.0
8637,58.0,120.0,120.0,7.0,0.0
8638,74.0,0.0,390.0,6.0,0.0
8639,68.0,96.0,390.0,6.0,0.0
8640,77.0,0.0,390.0,6.0,0.0
8641,45.0,120.0,120.0,7.0,0.0
8642,46.0,0.0,390.0,13.0,0.0
8643,34.0,0.0,390.0,14.0,0.0
8644,57.0,120.0,120.0,7.0,0.0
8645,46.0,24.0,120.0,7.0,0.0
8646,58.0,120.0,120.0,7.0,0.0
8647,56.0,48.0,300.0,11.0,0.0
8648,62.0,0.0,300.0,10.0,0.0
8649,53.0,0.0,300.0,12.0,0.0
8650,44.0,120.0,120.0,7.0,0.0
8651,56.0,72.0,120.0,7.0,0.0
8652,42.0,120.0,120.0,7.0,0.0
8653,54.0,120.0,120.0,7.0,0.0
8654,46.0,96.0,390.0,13.0,0.0
8655,74.0,0.0,390.0,6.0,0.0
8656,77.0,0.0,390.0,6.0,0.0
8657,80.0,0.0,390.0,6.0,0.0
8658,34.0,0.0,390.0,14.0,0.0
8659,41.0,120.0,120.0,7.0,0.0
8660,53.0,120.0,120.0,7.0,0.0
8661,39.0,24.0,120.0,7.0,0.0
8662,51.0,120.0,120.0,7.0,0.0
8663,38.0,120.0,120.0,7.0,0.0
8664,56.0,0.0,300.0,12.0,0.0
8665,62.0,48.0,300.0,11.0,0.0
8666,65.0,0.0,300.0,10.0,0.0
8667,50.0,72.0,120.0,7.0,0.0
8668,35.0,120.0,120.0,7.0,0.0
8669,47.0,120.0,120.0,7.0,0.0
8670,62.0,0.0,300.0,12.0,0.0
8671,68.0,0.0,300.0,10.0,0.0
8672,34.0,120.0,120.0,7.0,0.0
8673,46.0,0.0,300.0,13.0,0.0
8674,34.0,48.0,300.0,14.0,0.0
8675,65.0,0.0,300.0,11.0,0.0
8676,46.0,72.0,120.0,7.0,0.0
8677,32.0,120.0,120.0,7.0,0.0
8678,44.0,120.0,120.0,7.0,0.0
8679,46.0,0.0,300.0,13.0,0.0
8680,68.0,48.0,300.0,11.0,0.0
8681,30.0,120.0,120.0,7.0,0.0
8682,58.0,0.0,300.0,12.0,0.0
8683,74.0,0.0,300.0,10.0,0.0
8684,34.0,0.0,300.0,14.0,0.0
8685,42.0,72.0,120.0,7.0,0.0
8686,29.0,120.0,120.0,7.0,0.0
8687,41.0,120.0,120.0,7.0,0.0
8688,39.0,0.0,390.0,13.0,0.0
8689,39.0,0.0,390.0,7.0,0.0
8690,27.0,0.0,390.0,14.0,0.0
8691,27.0,0.0,390.0,7.0,0.0
8692,58.0,0.0,390.0,12.0,0.0
8693,75.0,96.0,390.0,10.0,0.0
8694,55.0,120.0,120.0,6.0,0.0
8695,67.0,0.0,390.0,11.0,0.0
8696,58.0,120.0,120.0,6.0,0.0
8697,61.0,24.0,120.0,6.0,0.0
8698,67.0,120.0,120.0,6.0,0.0
8699,55.0,120.0,120.0,6.0,0.0
8700,67.0,120.0,120.0,6.0,0.0
8701,56.0,120.0,120.0,6.0,0.0
8702,68.0,120.0,120.0,6.0,0.0
8703,58.0,120.0,120.0,6.0,0.0
8704,55.0,0.0,240.0,2.0,0.0
8705,52.0,0.0,960.0,2.0,0.0
8706,73.0,120.0,240.0,1.0,0.0
8707,70.0,0.0,120.0,6.0,0.0
8708,59.0,120.0,120.0,6.0,0.0
8709,71.0,0.0,240.0,1.0,0.0
8710,56.0,0.0,240.0,2.0,0.0
8711,71.0,120.0,120.0,6.0,0.0
8712,70.0,120.0,240.0,1.0,0.0
8713,61.0,120.0,120.0,6.0,0.0
8714,58.0,0.0,240.0,2.0,0.0
8715,73.0,0.0,120.0,6.0,0.0
8716,55.0,0.0,240.0,2.0,0.0
8717,58.0,120.0,120.0,6.0,0.0
8718,73.0,0.0,240.0,1.0,0.0
8719,70.0,120.0,120.0,6.0,0.0
8720,51.0,0.0,390.0,2.0,0.0
8721,61.0,0.0,390.0,2.0,0.0
8722,67.0,96.0,390.0,1.0,0.0
8723,55.0,120.0,120.0,6.0,0.0
8724,58.0,120.0,120.0,6.0,0.0
8725,61.0,24.0,120.0,6.0,0.0
8726,67.0,120.0,120.0,6.0,0.0
8727,55.0,120.0,120.0,6.0,0.0
8728,67.0,120.0,120.0,6.0,0.0
8729,56.0,120.0,120.0,6.0,0.0
8730,68.0,120.0,120.0,6.0,0.0
8731,58.0,120.0,120.0,6.0,0.0
8732,73.0,0.0,240.0,1.0,0.0
8733,55.0,120.0,240.0,2.0,0.0
8734,52.0,0.0,960.0,2.0,0.0
8735,70.0,0.0,120.0,6.0,0.0
8736,59.0,120.0,120.0,6.0,0.0
8737,71.0,0.0,240.0,1.0,0.0
8738,56.0,0.0,240.0,2.0,0.0
8739,71.0,120.0,120.0,6.0,0.0
8740,58.0,0.0,240.0,2.0,0.0
8741,70.0,0.0,240.0,1.0,0.0
8742,61.0,120.0,120.0,6.0,0.0
8743,73.0,120.0,120.0,6.0,0.0
8744,58.0,120.0,120.0,6.0,0.0
8745,73.0,0.0,240.0,1.0,0.0
8746,55.0,96.0,240.0,2.0,0.0
8747,70.0,0.0,120.0,6.0,0.0
8748,72.0,0.0,390.0,1.0,0.0
8749,44.0,120.0,120.0,7.0,0.0
8750,60.0,24.0,90.0,6.0,0.0
8751,44.0,96.0,390.0,2.0,0.0
8752,56.0,0.0,390.0,2.0,0.0
8753,63.0,0.0,120.0,6.0,0.0
8754,48.0,120.0,120.0,7.0,0.0
8755,51.0,24.0,120.0,7.0,0.0
8756,66.0,0.0,120.0,6.0,0.0
8757,72.0,120.0,120.0,6.0,0.0
8758,56.0,0.0,120.0,7.0,0.0
8759,60.0,120.0,120.0,6.0,0.0
8760,44.0,0.0,120.0,7.0,0.0
8761,56.0,120.0,120.0,7.0,0.0
8762,72.0,0.0,120.0,6.0,0.0
8763,46.0,120.0,120.0,7.0,0.0
8764,61.0,0.0,120.0,6.0,0.0
8765,73.0,120.0,120.0,6.0,0.0
8766,58.0,0.0,120.0,7.0,0.0
8767,48.0,120.0,120.0,7.0,0.0
8768,33.0,0.0,960.0,14.0,0.0
8769,57.0,0.0,960.0,11.0,0.0
8770,63.0,0.0,240.0,1.0,0.0
8771,45.0,0.0,960.0,13.0,0.0
8772,60.0,0.0,240.0,2.0,0.0
8773,75.0,0.0,240.0,1.0,0.0
8774,57.0,0.0,960.0,10.0,0.0
8775,63.0,0.0,120.0,6.0,0.0
8776,45.0,0.0,960.0,12.0,0.0
8777,78.0,120.0,240.0,0.0,0.0
8778,75.0,0.0,120.0,6.0,0.0
8779,60.0,0.0,120.0,7.0,0.0
8780,73.0,0.0,240.0,1.0,0.0
8781,76.0,120.0,240.0,0.0,0.0
8782,64.0,0.0,240.0,1.0,0.0
8783,64.0,120.0,120.0,6.0,0.0
8784,61.0,0.0,240.0,2.0,0.0
8785,49.0,0.0,120.0,7.0,0.0
8786,76.0,0.0,120.0,6.0,0.0
8787,61.0,0.0,120.0,7.0,0.0
8788,51.0,120.0,120.0,7.0,0.0
8789,63.0,0.0,240.0,2.0,0.0
8790,66.0,120.0,240.0,1.0,0.0
8791,66.0,0.0,120.0,6.0,0.0
8792,72.0,0.0,240.0,1.0,0.0
8793,75.0,0.0,240.0,0.0,0.0
8794,78.0,0.0,120.0,6.0,0.0
8795,63.0,0.0,120.0,7.0,0.0
8796,48.0,120.0,120.0,7.0,0.0
8797,60.0,96.0,240.0,2.0,0.0
8798,75.0,0.0,240.0,1.0,0.0
8799,63.0,0.0,120.0,6.0,0.0
8800,63.0,0.0,240.0,1.0,0.0
8801,78.0,0.0,240.0,0.0,0.0
8802,75.0,0.0,120.0,6.0,0.0
8803,60.0,0.0,120.0,7.0,0.0
8804,68.0,96.0,390.0,1.0,0.0
8805,44.0,0.0,390.0,13.0,0.0
8806,63.0,0.0,390.0,2.0,0.0
8807,56.0,0.0,390.0,11.0,0.0
8808,60.0,24.0,90.0,6.0,0.0
8809,66.0,0.0,390.0,1.0,0.0
8810,56.0,0.0,390.0,10.0,0.0
8811,72.0,0.0,390.0,0.0,0.0
8812,44.0,120.0,120.0,7.0,0.0
8813,32.0,0.0,390.0,14.0,0.0
8814,44.0,0.0,390.0,12.0,0.0
8815,63.0,0.0,120.0,6.0,0.0
8816,48.0,120.0,120.0,7.0,0.0
8817,66.0,0.0,120.0,6.0,0.0
8818,51.0,24.0,120.0,7.0,0.0
8819,56.0,120.0,120.0,7.0,0.0
8820,72.0,0.0,120.0,6.0,0.0
8821,60.0,0.0,120.0,6.0,0.0
8822,44.0,120.0,120.0,7.0,0.0
8823,72.0,0.0,120.0,6.0,0.0
8824,56.0,120.0,120.0,7.0,0.0
8825,46.0,0.0,120.0,7.0,0.0
8826,61.0,120.0,120.0,6.0,0.0
8827,73.0,0.0,120.0,6.0,0.0
8828,58.0,120.0,120.0,7.0,0.0
8829,63.0,0.0,120.0,6.0,0.0
8830,44.0,0.0,960.0,12.0,0.0
8831,56.0,0.0,960.0,10.0,0.0
8832,48.0,120.0,120.0,7.0,0.0
8833,75.0,120.0,240.0,1.0,0.0
8834,44.0,0.0,960.0,13.0,0.0
8835,78.0,0.0,240.0,0.0,0.0
8836,32.0,120.0,960.0,14.0,0.0
8837,63.0,0.0,240.0,1.0,0.0
8838,56.0,0.0,960.0,11.0,0.0
8839,60.0,0.0,240.0,2.0,0.0
8840,60.0,0.0,120.0,7.0,0.0
8841,75.0,0.0,120.0,6.0,0.0
8842,64.0,120.0,120.0,6.0,0.0
8843,49.0,0.0,120.0,7.0,0.0
8844,73.0,120.0,240.0,1.0,0.0
8845,76.0,0.0,240.0,0.0,0.0
8846,64.0,0.0,240.0,1.0,0.0
8847,61.0,0.0,240.0,2.0,0.0
8848,76.0,0.0,120.0,6.0,0.0
8849,61.0,0.0,120.0,7.0,0.0
8850,63.0,0.0,240.0,2.0,0.0
8851,66.0,120.0,120.0,6.0,0.0
8852,72.0,0.0,240.0,1.0,0.0
8853,51.0,0.0,120.0,7.0,0.0
8854,75.0,0.0,240.0,0.0,0.0
8855,66.0,0.0,240.0,1.0,0.0
8856,63.0,120.0,120.0,7.0,0.0
8857,78.0,0.0,120.0,6.0,0.0
8858,78.0,0.0,240.0,0.0,0.0
8859,75.0,0.0,240.0,1.0,0.0
8860,63.0,0.0,240.0,1.0,0.0
8861,63.0,0.0,120.0,6.0,0.0
8862,60.0,0.0,240.0,2.0,0.0
8863,48.0,120.0,120.0,7.0,0.0
8864,60.0,0.0,120.0,7.0,0.0
8865,75.0,0.0,120.0,6.0,0.0
8866,49.0,0.0,390.0,12.0,0.0
8867,73.0,0.0,390.0,1.0,0.0
8868,61.0,72.0,300.0,10.0,0.0
8869,49.0,0.0,390.0,13.0,0.0
8870,76.0,38.0,3810.0,0.0,0.0
8871,64.0,96.0,390.0,1.0,0.0
8872,61.0,0.0,390.0,2.0,0.0
8873,49.0,120.0,120.0,7.0,0.0
8874,37.0,0.0,390.0,14.0,0.0
8875,61.0,0.0,390.0,11.0,0.0
8876,61.0,0.0,120.0,7.0,0.0
8877,76.0,48.0,120.0,6.0,0.0
8878,75.0,24.0,120.0,6.0,0.0
8879,60.0,0.0,120.0,7.0,0.0
8880,61.0,0.0,120.0,7.0,0.0
8881,76.0,120.0,120.0,6.0,0.0
8882,56.0,72.0,300.0,10.0,0.0
8883,63.0,0.0,120.0,7.0,0.0
8884,78.0,120.0,120.0,6.0,0.0
8885,61.0,0.0,120.0,7.0,0.0
8886,76.0,48.0,120.0,6.0,0.0
8887,60.0,0.0,120.0,7.0,0.0
8888,75.0,120.0,120.0,6.0,0.0
8889,76.0,120.0,120.0,6.0,0.0
8890,61.0,0.0,120.0,7.0,0.0
8891,58.0,0.0,480.0,12.0,0.0
8892,64.0,96.0,1350.0,10.0,0.0
8893,61.0,0.0,480.0,11.0,0.0
8894,58.0,0.0,120.0,7.0,0.0
8895,73.0,120.0,120.0,6.0,0.0
8896,61.0,120.0,120.0,7.0,0.0
8897,76.0,0.0,120.0,6.0,0.0
8898,75.0,120.0,120.0,6.0,0.0
8899,60.0,0.0,120.0,7.0,0.0
8900,61.0,0.0,120.0,7.0,0.0
8901,76.0,120.0,120.0,6.0,0.0
8902,71.0,120.0,120.0,6.0,0.0
8903,56.0,0.0,480.0,12.0,0.0
8904,56.0,0.0,120.0,7.0,0.0
8905,59.0,120.0,480.0,11.0,0.0
8906,76.0,0.0,120.0,6.0,0.0
8907,61.0,120.0,120.0,7.0,0.0
8908,75.0,120.0,120.0,6.0,0.0
8909,60.0,0.0,120.0,7.0,0.0
8910,61.0,0.0,120.0,7.0,0.0
8911,76.0,0.0,120.0,6.0,0.0
8912,54.0,0.0,480.0,12.0,0.0
8913,54.0,0.0,120.0,7.0,0.0
8914,58.0,0.0,480.0,11.0,0.0
8915,70.0,120.0,120.0,6.0,0.0
8916,61.0,0.0,120.0,7.0,0.0
8917,76.0,120.0,120.0,6.0,0.0
8918,75.0,0.0,120.0,6.0,0.0
8919,60.0,24.0,120.0,7.0,0.0
8920,61.0,120.0,120.0,7.0,0.0
8921,76.0,0.0,120.0,6.0,0.0
8922,85.0,0.0,120.0,6.0,0.0
8923,58.0,0.0,480.0,10.0,0.0
8924,58.0,120.0,120.0,7.0,0.0
8925,52.0,0.0,480.0,12.0,0.0
8926,54.0,0.0,480.0,11.0,0.0
8927,61.0,0.0,120.0,7.0,0.0
8928,76.0,120.0,120.0,6.0,0.0
8929,56.0,0.0,120.0,7.0,0.0
8930,83.0,120.0,120.0,6.0,0.0
8931,61.0,120.0,120.0,7.0,0.0
8932,76.0,0.0,120.0,6.0,0.0
8933,51.0,0.0,480.0,12.0,0.0
8934,54.0,120.0,120.0,7.0,0.0
8935,82.0,0.0,120.0,6.0,0.0
8936,56.0,0.0,480.0,11.0,0.0
8937,59.0,0.0,480.0,10.0,0.0
8938,76.0,120.0,120.0,6.0,0.0
8939,61.0,0.0,120.0,7.0,0.0
8940,59.0,0.0,120.0,7.0,0.0
8941,80.0,120.0,120.0,6.0,0.0
8942,61.0,120.0,120.0,7.0,0.0
8943,76.0,0.0,120.0,6.0,0.0
8944,49.0,0.0,480.0,12.0,0.0
8945,61.0,0.0,480.0,10.0,0.0
8946,78.0,0.0,120.0,6.0,0.0
8947,58.0,120.0,120.0,7.0,0.0
8948,58.0,0.0,480.0,11.0,0.0
8949,61.0,0.0,120.0,7.0,0.0
8950,73.0,120.0,120.0,6.0,0.0
8951,76.0,0.0,120.0,6.0,0.0
8952,54.0,82.0,120.0,7.0,0.0
8953,73.0,120.0,120.0,6.0,0.0
8954,58.0,0.0,120.0,7.0,0.0
8955,47.0,120.0,960.0,12.0,0.0
8956,75.0,38.0,3810.0,0.0,0.0
8957,47.0,120.0,120.0,7.0,0.0
8958,47.0,0.0,780.0,13.0,0.0
8959,59.0,0.0,1440.0,11.0,0.0
8960,63.0,0.0,2310.0,10.0,0.0
8961,35.0,72.0,780.0,14.0,0.0
8962,59.0,120.0,120.0,7.0,0.0
8963,75.0,0.0,120.0,6.0,0.0
8964,73.0,120.0,120.0,6.0,0.0
8965,58.0,0.0,120.0,7.0,0.0
8966,75.0,120.0,120.0,6.0,0.0
8967,59.0,0.0,120.0,7.0,0.0
8968,61.0,0.0,120.0,7.0,0.0
8969,63.0,0.0,480.0,1.0,0.0
8970,76.0,120.0,120.0,6.0,0.0
8971,75.0,0.0,120.0,6.0,0.0
8972,59.0,48.0,120.0,7.0,0.0
8973,73.0,120.0,120.0,6.0,0.0
8974,58.0,0.0,120.0,7.0,0.0
8975,75.0,0.0,120.0,6.0,0.0
8976,59.0,0.0,120.0,7.0,0.0
8977,64.0,0.0,480.0,1.0,0.0
8978,37.0,0.0,480.0,14.0,0.0
8979,56.0,0.0,120.0,7.0,0.0
8980,56.0,0.0,480.0,12.0,0.0
8981,71.0,120.0,120.0,6.0,0.0
8982,49.0,0.0,480.0,13.0,0.0
8983,75.0,120.0,120.0,6.0,0.0
8984,59.0,0.0,120.0,7.0,0.0
8985,58.0,0.0,120.0,7.0,0.0
8986,73.0,120.0,120.0,6.0,0.0
8987,75.0,120.0,120.0,6.0,0.0
8988,59.0,0.0,120.0,7.0,0.0
8989,51.0,120.0,480.0,13.0,0.0
8990,66.0,0.0,480.0,1.0,0.0
8991,39.0,0.0,480.0,14.0,0.0
8992,58.0,0.0,480.0,11.0,0.0
8993,54.0,0.0,480.0,12.0,0.0
8994,54.0,0.0,120.0,7.0,0.0
8995,70.0,120.0,120.0,6.0,0.0
8996,59.0,120.0,120.0,7.0,0.0
8997,75.0,0.0,120.0,6.0,0.0
8998,73.0,120.0,120.0,6.0,0.0
8999,58.0,0.0,120.0,7.0,0.0
9000,59.0,0.0,120.0,7.0,0.0
9001,75.0,0.0,120.0,6.0,0.0
9002,40.0,0.0,390.0,14.0,0.0
9003,68.0,96.0,2310.0,1.0,0.0
9004,56.0,0.0,480.0,11.0,0.0
9005,52.0,0.0,120.0,7.0,0.0
9006,68.0,120.0,120.0,6.0,0.0
9007,52.0,120.0,480.0,12.0,0.0
9008,52.0,96.0,390.0,13.0,0.0
9009,75.0,0.0,120.0,6.0,0.0
9010,59.0,120.0,120.0,7.0,0.0
9011,73.0,24.0,120.0,6.0,0.0
9012,58.0,0.0,120.0,7.0,0.0
9013,59.0,0.0,120.0,7.0,0.0
9014,75.0,0.0,120.0,6.0,0.0
9015,56.0,120.0,120.0,7.0,0.0
9016,52.0,0.0,480.0,11.0,0.0
9017,51.0,0.0,480.0,12.0,0.0
9018,83.0,0.0,120.0,6.0,0.0
9019,56.0,0.0,480.0,10.0,0.0
9020,75.0,120.0,120.0,6.0,0.0
9021,59.0,0.0,120.0,7.0,0.0
9022,54.0,0.0,120.0,7.0,0.0
9023,82.0,120.0,120.0,6.0,0.0
9024,59.0,0.0,120.0,7.0,0.0
9025,75.0,120.0,120.0,6.0,0.0
9026,49.0,0.0,480.0,12.0,0.0
9027,58.0,120.0,480.0,10.0,0.0
9028,54.0,0.0,480.0,11.0,0.0
9029,52.0,120.0,120.0,7.0,0.0
9030,80.0,0.0,120.0,6.0,0.0
9031,59.0,0.0,120.0,7.0,0.0
9032,75.0,120.0,120.0,6.0,0.0
9033,78.0,0.0,120.0,6.0,0.0
9034,58.0,120.0,120.0,7.0,0.0
9035,75.0,0.0,120.0,6.0,0.0
9036,59.0,0.0,120.0,7.0,0.0
9037,48.0,0.0,480.0,12.0,0.0
9038,56.0,120.0,120.0,7.0,0.0
9039,59.0,0.0,480.0,10.0,0.0
9040,76.0,0.0,120.0,6.0,0.0
9041,56.0,0.0,480.0,11.0,0.0
9042,71.0,0.0,120.0,6.0,0.0
9043,59.0,120.0,120.0,7.0,0.0
9044,75.0,82.0,120.0,6.0,0.0
9045,52.0,0.0,120.0,7.0,0.0
9046,71.0,0.0,120.0,6.0,0.0
9047,56.0,120.0,120.0,7.0,0.0
9048,46.0,0.0,960.0,13.0,0.0
9049,61.0,0.0,2310.0,10.0,0.0
9050,73.0,38.0,3810.0,0.0,0.0
9051,46.0,120.0,120.0,7.0,0.0
9052,34.0,120.0,960.0,14.0,0.0
9053,58.0,0.0,1440.0,11.0,0.0
9054,46.0,0.0,960.0,12.0,0.0
9055,73.0,0.0,120.0,6.0,0.0
9056,58.0,120.0,120.0,7.0,0.0
9057,71.0,0.0,120.0,6.0,0.0
9058,56.0,24.0,120.0,7.0,0.0
9059,73.0,0.0,120.0,6.0,0.0
9060,58.0,120.0,120.0,7.0,0.0
9061,61.0,0.0,480.0,1.0,0.0
9062,75.0,0.0,120.0,6.0,0.0
9063,59.0,120.0,120.0,7.0,0.0
9064,58.0,120.0,120.0,7.0,0.0
9065,73.0,0.0,120.0,6.0,0.0
9066,71.0,120.0,120.0,6.0,0.0
9067,56.0,0.0,120.0,7.0,0.0
9068,58.0,0.0,120.0,7.0,0.0
9069,73.0,0.0,120.0,6.0,0.0
9070,47.0,0.0,480.0,13.0,0.0
9071,70.0,120.0,120.0,6.0,0.0
9072,35.0,0.0,480.0,14.0,0.0
9073,55.0,0.0,120.0,7.0,0.0
9074,63.0,0.0,480.0,1.0,0.0
9075,55.0,0.0,480.0,12.0,0.0
9076,58.0,0.0,120.0,7.0,0.0
9077,73.0,120.0,120.0,6.0,0.0
9078,56.0,120.0,120.0,7.0,0.0
9079,71.0,0.0,120.0,6.0,0.0
9080,73.0,120.0,120.0,6.0,0.0
9081,58.0,0.0,120.0,7.0,0.0
9082,37.0,0.0,480.0,14.0,0.0
9083,65.0,0.0,480.0,1.0,0.0
9084,53.0,0.0,480.0,12.0,0.0
9085,49.0,0.0,480.0,13.0,0.0
9086,56.0,120.0,480.0,11.0,0.0
9087,53.0,120.0,120.0,7.0,0.0
9088,68.0,0.0,120.0,6.0,0.0
9089,73.0,0.0,120.0,6.0,0.0
9090,58.0,120.0,120.0,7.0,0.0
9091,71.0,120.0,120.0,6.0,0.0
9092,56.0,0.0,120.0,7.0,0.0
9093,73.0,0.0,120.0,6.0,0.0
9094,58.0,0.0,120.0,7.0,0.0
9095,67.0,0.0,120.0,6.0,0.0
9096,51.0,48.0,900.0,13.0,0.0
9097,51.0,0.0,480.0,12.0,0.0
9098,39.0,0.0,900.0,14.0,0.0
9099,67.0,96.0,390.0,1.0,0.0
9100,51.0,120.0,120.0,7.0,0.0
9101,55.0,0.0,480.0,11.0,0.0
9102,73.0,0.0,120.0,6.0,0.0
9103,58.0,120.0,120.0,7.0,0.0
9104,71.0,0.0,120.0,6.0,0.0
9105,56.0,24.0,120.0,7.0,0.0
9106,73.0,120.0,120.0,6.0,0.0
9107,58.0,0.0,120.0,7.0,0.0
9108,51.0,0.0,480.0,11.0,0.0
9109,49.0,0.0,480.0,12.0,0.0
9110,55.0,120.0,480.0,10.0,0.0
9111,82.0,0.0,120.0,6.0,0.0
9112,55.0,120.0,120.0,7.0,0.0
9113,73.0,0.0,120.0,6.0,0.0
9114,58.0,120.0,120.0,7.0,0.0
9115,53.0,0.0,120.0,7.0,0.0
9116,80.0,72.0,120.0,6.0,0.0
9117,58.0,0.0,120.0,7.0,0.0
9118,73.0,0.0,120.0,6.0,0.0
9119,79.0,120.0,120.0,6.0,0.0
9120,27.0,0.0,900.0,14.0,0.0
9121,39.0,10.0,900.0,13.0,0.0
9122,53.0,0.0,480.0,11.0,0.0
9123,51.0,0.0,120.0,7.0,0.0
9124,47.0,0.0,480.0,12.0,0.0
9125,56.0,0.0,480.0,10.0,0.0
9126,58.0,0.0,120.0,7.0,0.0
9127,73.0,120.0,120.0,6.0,0.0
9128,56.0,120.0,120.0,7.0,0.0
9129,76.0,0.0,120.0,6.0,0.0
9130,73.0,120.0,120.0,6.0,0.0
9131,58.0,0.0,120.0,7.0,0.0
9132,58.0,0.0,480.0,10.0,0.0
9133,55.0,0.0,120.0,7.0,0.0
9134,55.0,120.0,480.0,11.0,0.0
9135,46.0,0.0,480.0,12.0,0.0
9136,75.0,120.0,120.0,6.0,0.0
9137,70.0,0.0,120.0,6.0,0.0
9138,58.0,120.0,120.0,7.0,0.0
9139,51.0,0.0,120.0,7.0,0.0
9140,73.0,72.0,120.0,6.0,0.0
9141,70.0,0.0,120.0,6.0,0.0
9142,55.0,0.0,120.0,7.0,0.0
9143,44.0,0.0,390.0,13.0,0.0
9144,32.0,96.0,390.0,14.0,0.0
9145,56.0,0.0,390.0,7.0,0.0
9146,44.0,0.0,9990.0,12.0,0.0
9147,71.0,120.0,960.0,0.0,0.0
9148,56.0,636.0,9990.0,11.0,0.0
9149,71.0,120.0,120.0,6.0,0.0
9150,68.0,120.0,120.0,6.0,0.0
9151,67.0,24.0,120.0,6.0,0.0
9152,59.0,0.0,240.0,10.0,0.0
9153,68.0,120.0,120.0,6.0,0.0
9154,58.0,120.0,240.0,10.0,0.0
9155,70.0,120.0,120.0,6.0,0.0
9156,68.0,0.0,120.0,6.0,0.0
9157,59.0,0.0,240.0,10.0,0.0
9158,71.0,120.0,120.0,6.0,0.0
9159,68.0,0.0,120.0,6.0,0.0
9160,54.0,96.0,390.0,7.0,0.0
9161,72.0,0.0,960.0,0.0,0.0
9162,72.0,120.0,120.0,6.0,0.0
9163,42.0,0.0,390.0,14.0,0.0
9164,54.0,0.0,390.0,13.0,0.0
9165,68.0,120.0,120.0,6.0,0.0
9166,67.0,24.0,120.0,6.0,0.0
9167,60.0,120.0,240.0,10.0,0.0
9168,68.0,0.0,120.0,6.0,0.0
9169,58.0,0.0,240.0,10.0,0.0
9170,70.0,120.0,120.0,6.0,0.0
9171,68.0,120.0,120.0,6.0,0.0
9172,60.0,0.0,240.0,10.0,0.0
9173,72.0,120.0,120.0,6.0,0.0
9174,68.0,120.0,120.0,6.0,0.0
9175,52.0,0.0,390.0,7.0,0.0
9176,52.0,0.0,390.0,13.0,0.0
9177,73.0,0.0,960.0,0.0,0.0
9178,40.0,96.0,390.0,14.0,0.0
9179,73.0,120.0,120.0,6.0,0.0
9180,68.0,120.0,120.0,6.0,0.0
9181,61.0,0.0,240.0,10.0,0.0
9182,67.0,24.0,120.0,6.0,0.0
9183,68.0,120.0,120.0,6.0,0.0
9184,60.0,120.0,240.0,10.0,0.0
9185,72.0,120.0,120.0,6.0,0.0
9186,68.0,0.0,120.0,6.0,0.0
9187,73.0,120.0,120.0,6.0,0.0
9188,61.0,0.0,240.0,10.0,0.0
9189,68.0,120.0,120.0,6.0,0.0
9190,48.0,0.0,390.0,7.0,0.0
9191,48.0,96.0,390.0,13.0,0.0
9192,75.0,120.0,120.0,6.0,0.0
9193,75.0,120.0,960.0,0.0,0.0
9194,36.0,0.0,390.0,14.0,0.0
9195,68.0,120.0,120.0,6.0,0.0
9196,67.0,24.0,120.0,6.0,0.0
9197,63.0,120.0,240.0,10.0,0.0
9198,68.0,0.0,120.0,6.0,0.0
9199,73.0,120.0,120.0,6.0,0.0
9200,61.0,0.0,240.0,10.0,0.0
9201,68.0,120.0,120.0,6.0,0.0
9202,75.0,120.0,120.0,6.0,0.0
9203,63.0,0.0,240.0,10.0,0.0
9204,68.0,0.0,120.0,6.0,0.0
9205,76.0,120.0,120.0,6.0,0.0
9206,76.0,0.0,960.0,0.0,0.0
9207,49.0,96.0,390.0,13.0,0.0
9208,37.0,0.0,390.0,14.0,0.0
9209,49.0,0.0,390.0,7.0,0.0
9210,68.0,120.0,120.0,6.0,0.0
9211,64.0,120.0,240.0,10.0,0.0
9212,67.0,24.0,120.0,6.0,0.0
9213,68.0,0.0,120.0,6.0,0.0
9214,75.0,120.0,120.0,6.0,0.0
9215,63.0,0.0,240.0,10.0,0.0
9216,68.0,120.0,120.0,6.0,0.0
9217,76.0,120.0,120.0,6.0,0.0
9218,64.0,120.0,240.0,10.0,0.0
9219,68.0,0.0,120.0,6.0,0.0
9220,77.0,0.0,960.0,0.0,0.0
9221,35.0,0.0,390.0,14.0,0.0
9222,77.0,120.0,120.0,6.0,0.0
9223,47.0,96.0,390.0,7.0,0.0
9224,47.0,0.0,390.0,13.0,0.0
9225,68.0,120.0,120.0,6.0,0.0
9226,67.0,24.0,120.0,6.0,0.0
9227,65.0,120.0,240.0,10.0,0.0
9228,68.0,0.0,120.0,6.0,0.0
9229,75.0,120.0,120.0,6.0,0.0
9230,63.0,0.0,240.0,10.0,0.0
9231,68.0,120.0,120.0,6.0,0.0
9232,65.0,120.0,240.0,10.0,0.0
9233,77.0,120.0,120.0,6.0,0.0
9234,68.0,0.0,120.0,6.0,0.0
9235,46.0,96.0,390.0,7.0,0.0
9236,78.0,0.0,960.0,0.0,0.0
9237,46.0,0.0,390.0,13.0,0.0
9238,34.0,0.0,390.0,14.0,0.0
9239,78.0,120.0,120.0,6.0,0.0
9240,68.0,120.0,120.0,6.0,0.0
9241,67.0,24.0,120.0,6.0,0.0
9242,66.0,0.0,240.0,10.0,0.0
9243,68.0,120.0,120.0,6.0,0.0
9244,65.0,0.0,240.0,10.0,0.0
9245,77.0,120.0,120.0,6.0,0.0
9246,68.0,120.0,120.0,6.0,0.0
9247,78.0,120.0,120.0,6.0,0.0
9248,66.0,0.0,240.0,10.0,0.0
9249,68.0,120.0,120.0,6.0,0.0
9250,79.0,0.0,960.0,0.0,0.0
9251,49.0,96.0,390.0,7.0,0.0
9252,37.0,0.0,390.0,14.0,0.0
9253,49.0,0.0,390.0,13.0,0.0
9254,79.0,120.0,120.0,6.0,0.0
9255,68.0,120.0,120.0,6.0,0.0
9256,67.0,0.0,240.0,10.0,0.0
9257,67.0,24.0,120.0,6.0,0.0
9258,68.0,120.0,120.0,6.0,0.0
9259,65.0,0.0,240.0,10.0,0.0
9260,77.0,120.0,120.0,6.0,0.0
9261,68.0,120.0,120.0,6.0,0.0
9262,79.0,120.0,120.0,6.0,0.0
9263,67.0,0.0,240.0,10.0,0.0
9264,68.0,120.0,120.0,6.0,0.0
9265,47.0,0.0,390.0,7.0,0.0
9266,35.0,0.0,390.0,14.0,0.0
9267,80.0,120.0,960.0,0.0,0.0
9268,47.0,96.0,390.0,13.0,0.0
9269,80.0,120.0,120.0,6.0,0.0
9270,68.0,120.0,120.0,6.0,0.0
9271,68.0,120.0,240.0,10.0,0.0
9272,67.0,24.0,120.0,6.0,0.0
9273,68.0,0.0,120.0,6.0,0.0
9274,79.0,120.0,120.0,6.0,0.0
9275,67.0,0.0,240.0,10.0,0.0
9276,68.0,120.0,120.0,6.0,0.0
9277,68.0,0.0,240.0,10.0,0.0
9278,80.0,120.0,120.0,6.0,0.0
9279,68.0,0.0,120.0,6.0,0.0
9280,82.0,120.0,120.0,6.0,0.0
9281,43.0,96.0,390.0,7.0,0.0
9282,31.0,0.0,390.0,14.0,0.0
9283,43.0,0.0,390.0,13.0,0.0
9284,82.0,384.0,960.0,0.0,0.0
9285,68.0,120.0,120.0,6.0,0.0
9286,70.0,120.0,240.0,10.0,0.0
9287,67.0,24.0,120.0,6.0,0.0
9288,68.0,0.0,120.0,6.0,0.0
9289,68.0,0.0,240.0,10.0,0.0
9290,80.0,120.0,120.0,6.0,0.0
9291,68.0,120.0,120.0,6.0,0.0
9292,70.0,0.0,240.0,10.0,0.0
9293,82.0,120.0,120.0,6.0,0.0
9294,68.0,0.0,120.0,6.0,0.0
9295,83.0,0.0,390.0,0.0,0.0
9296,83.0,60.0,1020.0,6.0,0.0
9297,71.0,0.0,390.0,10.0,0.0
9298,44.0,0.0,1920.0,7.0,0.0
9299,44.0,0.0,390.0,13.0,0.0
9300,32.0,0.0,390.0,14.0,0.0
9301,82.0,60.0,60.0,6.0,0.0
9302,80.0,60.0,60.0,6.0,0.0
9303,78.0,60.0,60.0,6.0,0.0
9304,76.0,60.0,60.0,6.0,0.0
9305,75.0,60.0,60.0,6.0,0.0
9306,73.0,60.0,60.0,6.0,0.0
9307,71.0,80.0,60.0,6.0,0.0
9308,70.0,80.0,90.0,6.0,0.0
9309,68.0,80.0,90.0,6.0,0.0
9310,66.0,80.0,90.0,6.0,0.0
9311,64.0,80.0,90.0,6.0,0.0
9312,63.0,80.0,90.0,6.0,0.0
9313,61.0,384.0,90.0,6.0,0.0
9314,56.0,480.0,960.0,7.0,0.0
9315,52.0,120.0,1920.0,7.0,0.0
9316,62.0,336.0,390.0,6.0,0.0
9317,68.0,60.0,240.0,6.0,0.0
9318,70.0,60.0,60.0,6.0,0.0
9319,68.0,60.0,60.0,6.0,0.0
9320,67.0,60.0,60.0,6.0,0.0
9321,68.0,0.0,60.0,6.0,0.0
9322,62.0,0.0,960.0,7.0,0.0
9323,71.0,480.0,480.0,6.0,0.0
9324,68.0,0.0,480.0,6.0,0.0
9325,51.0,0.0,4230.0,12.0,0.0
9326,70.0,0.0,1920.0,10.0,0.0
9327,51.0,0.0,120.0,7.0,0.0
9328,82.0,120.0,120.0,6.0,0.0
9329,67.0,0.0,1920.0,11.0,0.0
9330,63.0,96.0,4230.0,12.0,0.0
9331,63.0,0.0,120.0,7.0,0.0
9332,79.0,120.0,120.0,6.0,0.0
9333,75.0,120.0,120.0,6.0,0.0
9334,62.0,0.0,120.0,7.0,0.0
9335,63.0,120.0,120.0,7.0,0.0
9336,70.0,0.0,120.0,6.0,0.0
9337,62.0,0.0,120.0,7.0,0.0
9338,67.0,120.0,120.0,6.0,0.0
9339,63.0,0.0,120.0,7.0,0.0
9340,70.0,120.0,120.0,6.0,0.0
9341,62.0,120.0,120.0,7.0,0.0
9342,75.0,0.0,120.0,6.0,0.0
9343,79.0,0.0,120.0,6.0,0.0
9344,63.0,120.0,120.0,7.0,0.0
9345,82.0,0.0,120.0,6.0,0.0
9346,62.0,120.0,120.0,7.0,0.0
9347,63.0,120.0,120.0,7.0,0.0
9348,79.0,0.0,120.0,6.0,0.0
9349,75.0,120.0,120.0,6.0,0.0
9350,62.0,0.0,120.0,7.0,0.0
9351,63.0,0.0,120.0,7.0,0.0
9352,70.0,120.0,120.0,6.0,0.0
9353,61.0,120.0,120.0,7.0,0.0
9354,67.0,0.0,120.0,6.0,0.0
9355,70.0,0.0,120.0,6.0,0.0
9356,63.0,120.0,120.0,7.0,0.0
9357,75.0,0.0,120.0,6.0,0.0
9358,61.0,120.0,120.0,7.0,0.0
9359,79.0,0.0,120.0,6.0,0.0
9360,63.0,120.0,120.0,7.0,0.0
9361,83.0,120.0,120.0,6.0,0.0
9362,68.0,0.0,1920.0,11.0,0.0
9363,59.0,0.0,120.0,7.0,0.0
9364,71.0,0.0,1920.0,10.0,0.0
9365,80.0,120.0,120.0,6.0,0.0
9366,63.0,0.0,120.0,7.0,0.0
9367,75.0,0.0,120.0,6.0,0.0
9368,62.0,120.0,120.0,7.0,0.0
9369,71.0,0.0,120.0,6.0,0.0
9370,63.0,120.0,120.0,7.0,0.0
9371,68.0,120.0,120.0,6.0,0.0
9372,62.0,0.0,120.0,7.0,0.0
9373,63.0,0.0,120.0,7.0,0.0
9374,71.0,120.0,120.0,6.0,0.0
9375,62.0,120.0,120.0,7.0,0.0
9376,75.0,0.0,120.0,6.0,0.0
9377,80.0,120.0,120.0,6.0,0.0
9378,63.0,0.0,120.0,7.0,0.0
9379,59.0,0.0,120.0,7.0,0.0
9380,83.0,120.0,120.0,6.0,0.0
9381,80.0,120.0,120.0,6.0,0.0
9382,63.0,0.0,120.0,7.0,0.0
9383,59.0,0.0,120.0,7.0,0.0
9384,75.0,120.0,120.0,6.0,0.0
9385,63.0,0.0,120.0,7.0,0.0
9386,71.0,120.0,120.0,6.0,0.0
9387,68.0,120.0,120.0,6.0,0.0
9388,56.0,0.0,120.0,7.0,0.0
9389,71.0,120.0,120.0,6.0,0.0
9390,63.0,0.0,120.0,7.0,0.0
9391,56.0,0.0,120.0,7.0,0.0
9392,75.0,120.0,120.0,6.0,0.0
9393,63.0,120.0,120.0,7.0,0.0
9394,80.0,0.0,120.0,6.0,0.0
9395,39.0,192.0,11520.0,3.0,0.0
9396,67.0,0.0,1920.0,1.0,0.0
9397,82.0,120.0,120.0,6.0,0.0
9398,70.0,0.0,1920.0,1.0,0.0
9399,70.0,0.0,390.0,10.0,0.0
9400,82.0,0.0,1920.0,0.0,0.0
9401,51.0,0.0,11520.0,3.0,0.0
9402,58.0,120.0,1920.0,2.0,0.0
9403,51.0,0.0,120.0,7.0,0.0
9404,67.0,0.0,390.0,11.0,0.0
9405,55.0,0.0,1920.0,2.0,0.0
9406,79.0,0.0,120.0,6.0,0.0
9407,63.0,120.0,120.0,7.0,0.0
9408,75.0,24.0,120.0,6.0,0.0
9409,62.0,0.0,120.0,7.0,0.0
9410,70.0,120.0,120.0,6.0,0.0
9411,63.0,0.0,120.0,7.0,0.0
9412,62.0,120.0,120.0,7.0,0.0
9413,67.0,0.0,120.0,6.0,0.0
9414,70.0,0.0,120.0,6.0,0.0
9415,63.0,120.0,120.0,7.0,0.0
9416,75.0,120.0,120.0,6.0,0.0
9417,62.0,0.0,120.0,7.0,0.0
9418,79.0,0.0,120.0,6.0,0.0
9419,63.0,120.0,120.0,7.0,0.0
9420,82.0,120.0,120.0,6.0,0.0
9421,62.0,0.0,120.0,7.0,0.0
9422,79.0,120.0,120.0,6.0,0.0
9423,63.0,0.0,120.0,7.0,0.0
9424,62.0,0.0,120.0,7.0,0.0
9425,75.0,120.0,120.0,6.0,0.0
9426,63.0,0.0,120.0,7.0,0.0
9427,70.0,120.0,120.0,6.0,0.0
9428,61.0,0.0,120.0,7.0,0.0
9429,67.0,120.0,120.0,6.0,0.0
9430,63.0,0.0,120.0,7.0,0.0
9431,70.0,120.0,120.0,6.0,0.0
9432,61.0,0.0,120.0,7.0,0.0
9433,75.0,120.0,120.0,6.0,0.0
9434,79.0,0.0,120.0,6.0,0.0
9435,63.0,0.0,120.0,7.0,0.0
9436,68.0,118.0,1920.0,1.0,0.0
9437,83.0,0.0,1920.0,0.0,0.0
9438,59.0,0.0,120.0,7.0,0.0
9439,56.0,0.0,1920.0,2.0,0.0
9440,71.0,0.0,1920.0,1.0,0.0
9441,83.0,120.0,120.0,6.0,0.0
9442,59.0,0.0,1920.0,2.0,0.0
9443,63.0,120.0,120.0,7.0,0.0
9444,80.0,0.0,120.0,6.0,0.0
9445,75.0,0.0,120.0,6.0,0.0
9446,62.0,120.0,120.0,7.0,0.0
9447,63.0,120.0,120.0,7.0,0.0
9448,71.0,0.0,120.0,6.0,0.0
9449,62.0,120.0,120.0,7.0,0.0
9450,68.0,0.0,120.0,6.0,0.0
9451,71.0,0.0,120.0,6.0,0.0
9452,63.0,120.0,120.0,7.0,0.0
9453,75.0,120.0,120.0,6.0,0.0
9454,62.0,0.0,120.0,7.0,0.0
9455,80.0,120.0,120.0,6.0,0.0
9456,63.0,0.0,120.0,7.0,0.0
9457,59.0,0.0,120.0,7.0,0.0
9458,83.0,120.0,120.0,6.0,0.0
9459,63.0,120.0,120.0,7.0,0.0
9460,80.0,0.0,120.0,6.0,0.0
9461,59.0,0.0,120.0,7.0,0.0
9462,75.0,120.0,120.0,6.0,0.0
9463,63.0,0.0,120.0,7.0,0.0
9464,71.0,120.0,120.0,6.0,0.0
9465,56.0,120.0,120.0,7.0,0.0
9466,68.0,0.0,120.0,6.0,0.0
9467,63.0,0.0,120.0,7.0,0.0
9468,71.0,120.0,120.0,6.0,0.0
9469,56.0,0.0,120.0,7.0,0.0
9470,75.0,120.0,120.0,6.0,0.0
9471,63.0,0.0,120.0,7.0,0.0
9472,80.0,0.0,120.0,6.0,0.0
9473,58.0,118.0,960.0,2.0,0.0
9474,55.0,0.0,960.0,2.0,0.0
9475,51.0,0.0,3810.0,7.0,0.0
9476,63.0,0.0,3810.0,12.0,0.0
9477,82.0,0.0,960.0,0.0,0.0
9478,39.0,0.0,390.0,5.0,0.0
9479,51.0,18.0,3810.0,13.0,0.0
9480,51.0,0.0,390.0,4.0,0.0
9481,63.0,48.0,390.0,4.0,0.0
9482,70.0,0.0,960.0,1.0,0.0
9483,67.0,0.0,390.0,1.0,0.0
9484,82.0,120.0,120.0,6.0,0.0
9485,39.0,0.0,3810.0,14.0,0.0
9486,79.0,120.0,120.0,6.0,0.0
9487,75.0,26.0,120.0,6.0,0.0
9488,70.0,46.0,180.0,10.0,0.0
9489,67.0,0.0,180.0,11.0,0.0
9490,70.0,120.0,120.0,6.0,0.0
9491,67.0,74.0,120.0,6.0,0.0
9492,67.0,46.0,180.0,11.0,0.0
9493,70.0,0.0,180.0,10.0,0.0
9494,70.0,120.0,120.0,6.0,0.0
9495,75.0,74.0,120.0,6.0,0.0
9496,67.0,46.0,180.0,11.0,0.0
9497,70.0,0.0,180.0,10.0,0.0
9498,79.0,2.0,120.0,6.0,0.0
9499,80.0,120.0,120.0,6.0,0.0
9500,51.0,0.0,390.0,4.0,0.0
9501,77.0,0.0,960.0,1.0,0.0
9502,53.0,0.0,960.0,2.0,0.0
9503,56.0,0.0,960.0,2.0,0.0
9504,63.0,48.0,390.0,4.0,0.0
9505,80.0,118.0,960.0,0.0,0.0
9506,77.0,120.0,120.0,6.0,0.0
9507,68.0,0.0,180.0,10.0,0.0
9508,65.0,46.0,180.0,11.0,0.0
9509,74.0,26.0,120.0,6.0,0.0
9510,68.0,120.0,120.0,6.0,0.0
9511,65.0,74.0,120.0,6.0,0.0
9512,68.0,0.0,180.0,10.0,0.0
9513,65.0,46.0,180.0,11.0,0.0
9514,68.0,120.0,120.0,6.0,0.0
9515,65.0,0.0,180.0,11.0,0.0
9516,68.0,46.0,180.0,10.0,0.0
9517,74.0,74.0,120.0,6.0,0.0
9518,77.0,2.0,120.0,6.0,0.0
9519,51.0,0.0,390.0,4.0,0.0
9520,63.0,48.0,390.0,4.0,0.0
9521,79.0,120.0,120.0,6.0,0.0
9522,75.0,0.0,960.0,1.0,0.0
9523,79.0,118.0,960.0,0.0,0.0
9524,39.0,0.0,390.0,5.0,0.0
9525,55.0,0.0,960.0,2.0,0.0
9526,51.0,0.0,960.0,2.0,0.0
9527,75.0,120.0,120.0,6.0,0.0
9528,70.0,26.0,120.0,6.0,0.0
9529,67.0,46.0,180.0,10.0,0.0
9530,63.0,0.0,180.0,11.0,0.0
9531,67.0,120.0,120.0,6.0,0.0
9532,63.0,74.0,120.0,6.0,0.0
9533,63.0,0.0,180.0,11.0,0.0
9534,67.0,46.0,180.0,10.0,0.0
9535,67.0,120.0,120.0,6.0,0.0
9536,63.0,0.0,180.0,11.0,0.0
9537,70.0,74.0,120.0,6.0,0.0
9538,67.0,46.0,180.0,10.0,0.0
9539,75.0,2.0,120.0,6.0,0.0
9540,73.0,18.0,930.0,1.0,0.0
9541,53.0,0.0,930.0,2.0,0.0
9542,49.0,0.0,930.0,2.0,0.0
9543,51.0,48.0,390.0,4.0,0.0
9544,63.0,0.0,390.0,4.0,0.0
9545,77.0,0.0,930.0,0.0,0.0
9546,77.0,120.0,120.0,6.0,0.0
9547,73.0,120.0,120.0,6.0,0.0
9548,61.0,0.0,180.0,11.0,0.0
9549,70.0,26.0,120.0,6.0,0.0
9550,65.0,46.0,180.0,10.0,0.0
9551,65.0,120.0,120.0,6.0,0.0
9552,61.0,46.0,180.0,11.0,0.0
9553,65.0,0.0,180.0,10.0,0.0
9554,61.0,74.0,120.0,6.0,0.0
9555,65.0,120.0,120.0,6.0,0.0
9556,70.0,74.0,120.0,6.0,0.0
9557,61.0,10.0,180.0,11.0,0.0
9558,65.0,0.0,180.0,10.0,0.0
9559,73.0,120.0,120.0,6.0,0.0
9560,27.0,0.0,3810.0,14.0,0.0
9561,48.0,118.0,960.0,2.0,0.0
9562,39.0,36.0,3810.0,13.0,0.0
9563,51.0,0.0,960.0,2.0,0.0
9564,39.0,0.0,3810.0,7.0,0.0
9565,63.0,0.0,390.0,4.0,0.0
9566,72.0,0.0,960.0,1.0,0.0
9567,75.0,0.0,960.0,1.0,0.0
9568,51.0,0.0,3810.0,12.0,0.0
9569,39.0,0.0,390.0,5.0,0.0
9570,75.0,120.0,120.0,6.0,0.0
9571,51.0,48.0,390.0,4.0,0.0
9572,87.0,0.0,960.0,0.0,0.0
9573,72.0,120.0,120.0,6.0,0.0
9574,63.0,0.0,180.0,10.0,0.0
9575,68.0,26.0,120.0,6.0,0.0
9576,60.0,46.0,180.0,11.0,0.0
9577,63.0,120.0,120.0,6.0,0.0
9578,60.0,0.0,180.0,11.0,0.0
9579,63.0,46.0,180.0,10.0,0.0
9580,60.0,74.0,120.0,6.0,0.0
9581,63.0,120.0,120.0,6.0,0.0
9582,68.0,74.0,120.0,6.0,0.0
9583,60.0,0.0,180.0,11.0,0.0
9584,63.0,46.0,180.0,10.0,0.0
9585,72.0,2.0,120.0,6.0,0.0
9586,70.0,0.0,960.0,1.0,0.0
9587,63.0,0.0,390.0,4.0,0.0
9588,73.0,0.0,960.0,1.0,0.0
9589,49.0,0.0,960.0,2.0,0.0
9590,51.0,48.0,390.0,4.0,0.0
9591,85.0,0.0,960.0,0.0,0.0
9592,73.0,120.0,120.0,6.0,0.0
9593,46.0,118.0,960.0,2.0,0.0
9594,70.0,120.0,120.0,6.0,0.0
9595,67.0,26.0,120.0,6.0,0.0
9596,58.0,46.0,180.0,11.0,0.0
9597,61.0,0.0,180.0,10.0,0.0
9598,61.0,120.0,120.0,6.0,0.0
9599,61.0,0.0,180.0,10.0,0.0
9600,58.0,74.0,120.0,6.0,0.0
9601,58.0,46.0,180.0,11.0,0.0
9602,61.0,120.0,120.0,6.0,0.0
9603,61.0,46.0,180.0,10.0,0.0
9604,58.0,0.0,180.0,11.0,0.0
9605,67.0,74.0,120.0,6.0,0.0
9606,70.0,2.0,120.0,6.0,0.0
9607,39.0,0.0,390.0,5.0,0.0
9608,84.0,0.0,960.0,0.0,0.0
9609,51.0,48.0,390.0,4.0,0.0
9610,72.0,0.0,960.0,1.0,0.0
9611,72.0,120.0,120.0,6.0,0.0
9612,63.0,0.0,390.0,4.0,0.0
9613,68.0,0.0,960.0,1.0,0.0
9614,48.0,0.0,960.0,2.0,0.0
9615,44.0,118.0,960.0,2.0,0.0
9616,68.0,120.0,120.0,6.0,0.0
9617,60.0,0.0,180.0,10.0,0.0
9618,63.0,26.0,120.0,6.0,0.0
9619,56.0,46.0,180.0,11.0,0.0
9620,60.0,120.0,120.0,6.0,0.0
9621,56.0,0.0,180.0,11.0,0.0
9622,60.0,46.0,180.0,10.0,0.0
9623,56.0,74.0,120.0,6.0,0.0
9624,60.0,120.0,120.0,6.0,0.0
9625,56.0,46.0,180.0,11.0,0.0
9626,60.0,0.0,180.0,10.0,0.0
9627,63.0,74.0,120.0,6.0,0.0
9628,68.0,2.0,120.0,6.0,0.0
9629,82.0,0.0,960.0,0.0,0.0
9630,67.0,0.0,960.0,1.0,0.0
9631,51.0,0.0,390.0,4.0,0.0
9632,70.0,0.0,960.0,1.0,0.0
9633,43.0,0.0,960.0,2.0,0.0
9634,70.0,120.0,120.0,6.0,0.0
9635,46.0,0.0,960.0,2.0,0.0
9636,63.0,48.0,390.0,4.0,0.0
9637,67.0,120.0,120.0,6.0,0.0
9638,55.0,46.0,180.0,11.0,0.0
9639,61.0,26.0,120.0,6.0,0.0
9640,58.0,0.0,180.0,10.0,0.0
9641,58.0,120.0,120.0,6.0,0.0
9642,55.0,0.0,180.0,11.0,0.0
9643,58.0,46.0,180.0,10.0,0.0
9644,55.0,74.0,120.0,6.0,0.0
9645,58.0,120.0,120.0,6.0,0.0
9646,58.0,0.0,180.0,10.0,0.0
9647,55.0,10.0,180.0,11.0,0.0
9648,61.0,74.0,120.0,6.0,0.0
9649,67.0,2.0,120.0,6.0,0.0
9650,56.0,0.0,180.0,12.0,0.0
9651,80.0,0.0,390.0,0.0,0.0
9652,44.0,0.0,180.0,13.0,0.0
9653,32.0,0.0,180.0,14.0,0.0
9654,44.0,0.0,390.0,7.0,0.0
9655,68.0,0.0,390.0,6.0,0.0
9656,44.0,288.0,390.0,2.0,0.0
9657,56.0,0.0,180.0,11.0,0.0
9658,44.0,0.0,390.0,3.0,0.0
9659,56.0,0.0,390.0,4.0,0.0
9660,68.0,0.0,390.0,1.0,0.0
9661,56.0,192.0,180.0,10.0,0.0
9662,44.0,0.0,390.0,5.0,0.0
9663,51.0,0.0,180.0,10.0,0.0
9664,51.0,0.0,180.0,12.0,0.0
9665,27.0,0.0,180.0,14.0,0.0
9666,39.0,0.0,180.0,13.0,0.0
9667,51.0,480.0,180.0,11.0,0.0
9668,44.0,480.0,180.0,13.0,0.0
9669,56.0,0.0,180.0,11.0,0.0
9670,56.0,0.0,180.0,10.0,0.0
9671,56.0,0.0,180.0,12.0,0.0
9672,32.0,0.0,180.0,14.0,0.0
9673,48.0,0.0,180.0,13.0,0.0
9674,60.0,0.0,180.0,12.0,0.0
9675,36.0,0.0,180.0,14.0,0.0
9676,60.0,0.0,180.0,11.0,0.0
9677,60.0,1008.0,180.0,10.0,0.0
9678,61.0,0.0,720.0,10.0,0.0
9679,61.0,0.0,720.0,11.0,0.0
9680,37.0,0.0,720.0,14.0,0.0
9681,49.0,0.0,720.0,13.0,0.0
9682,61.0,80.0,720.0,12.0,0.0
9683,60.0,0.0,90.0,10.0,0.0
9684,36.0,80.0,90.0,14.0,0.0
9685,48.0,0.0,90.0,13.0,0.0
9686,60.0,0.0,90.0,12.0,0.0
9687,60.0,0.0,90.0,11.0,0.0
9688,46.0,0.0,90.0,13.0,0.0
9689,58.0,0.0,90.0,11.0,0.0
9690,58.0,0.0,90.0,12.0,0.0
9691,58.0,0.0,90.0,10.0,0.0
9692,34.0,80.0,90.0,14.0,0.0
9693,44.0,384.0,90.0,13.0,0.0
9694,32.0,0.0,90.0,14.0,0.0
9695,56.0,0.0,90.0,12.0,0.0
9696,56.0,0.0,90.0,11.0,0.0
9697,56.0,0.0,90.0,10.0,0.0
9698,55.0,0.0,390.0,11.0,0.0
9699,55.0,0.0,390.0,12.0,0.0
9700,31.0,552.0,390.0,14.0,0.0
9701,55.0,0.0,390.0,10.0,0.0
9702,43.0,0.0,390.0,13.0,0.0
9703,51.0,0.0,90.0,11.0,0.0
9704,51.0,0.0,90.0,12.0,0.0
9705,51.0,0.0,90.0,10.0,0.0
9706,27.0,216.0,90.0,14.0,0.0
9707,39.0,0.0,90.0,13.0,0.0
9708,55.0,480.0,180.0,12.0,0.0
9709,31.0,0.0,180.0,14.0,0.0
9710,55.0,0.0,180.0,10.0,0.0
9711,55.0,0.0,180.0,11.0,0.0
9712,43.0,0.0,180.0,13.0,0.0
9713,58.0,0.0,180.0,12.0,0.0
9714,34.0,0.0,180.0,14.0,0.0
9715,58.0,0.0,180.0,11.0,0.0
9716,46.0,0.0,180.0,13.0,0.0
9717,58.0,480.0,180.0,10.0,0.0
9718,49.0,0.0,180.0,13.0,0.0
9719,61.0,0.0,180.0,12.0,0.0
9720,37.0,0.0,180.0,14.0,0.0
9721,61.0,480.0,180.0,11.0,0.0
9722,61.0,0.0,180.0,10.0,0.0
9723,58.0,0.0,180.0,11.0,0.0
9724,34.0,0.0,180.0,14.0,0.0
9725,58.0,1008.0,180.0,10.0,0.0
9726,58.0,0.0,180.0,12.0,0.0
9727,46.0,0.0,180.0,13.0,0.0
9728,63.0,0.0,720.0,12.0,0.0
9729,51.0,0.0,720.0,13.0,0.0
9730,63.0,0.0,720.0,11.0,0.0
9731,63.0,80.0,720.0,10.0,0.0
9732,39.0,0.0,720.0,14.0,0.0
9733,65.0,80.0,90.0,10.0,0.0
9734,53.0,0.0,90.0,13.0,0.0
9735,65.0,0.0,90.0,12.0,0.0
9736,41.0,0.0,90.0,14.0,0.0
9737,65.0,0.0,90.0,11.0,0.0
9738,39.0,80.0,90.0,14.0,0.0
9739,63.0,0.0,90.0,11.0,0.0
9740,51.0,0.0,90.0,13.0,0.0
9741,63.0,0.0,90.0,12.0,0.0
9742,63.0,0.0,90.0,10.0,0.0
9743,61.0,0.0,90.0,12.0,0.0
9744,61.0,0.0,90.0,10.0,0.0
9745,37.0,0.0,90.0,14.0,0.0
9746,61.0,0.0,90.0,11.0,0.0
9747,49.0,384.0,90.0,13.0,0.0
9748,60.0,0.0,390.0,10.0,0.0
9749,60.0,0.0,390.0,12.0,0.0
9750,36.0,0.0,390.0,14.0,0.0
9751,60.0,960.0,390.0,11.0,0.0
9752,48.0,0.0,390.0,13.0,0.0
9753,75.0,240.0,1110.0,10.0,0.0
9754,44.0,0.0,150.0,14.0,0.0
9755,60.0,240.0,150.0,12.0,0.0
9756,56.0,0.0,150.0,13.0,0.0
9757,63.0,0.0,150.0,11.0,0.0
9758,60.0,0.0,150.0,12.0,0.0
9759,63.0,0.0,150.0,11.0,0.0
9760,56.0,0.0,150.0,13.0,0.0
9761,44.0,240.0,150.0,14.0,0.0
9762,56.0,0.0,150.0,13.0,0.0
9763,44.0,0.0,150.0,14.0,0.0
9764,63.0,0.0,150.0,11.0,0.0
9765,60.0,240.0,150.0,12.0,0.0
9766,63.0,0.0,390.0,11.0,0.0
9767,44.0,0.0,390.0,14.0,0.0
9768,56.0,240.0,390.0,13.0,0.0
9769,60.0,0.0,390.0,12.0,0.0
9770,74.0,0.0,150.0,10.0,0.0
9771,75.0,240.0,150.0,10.0,0.0
9772,72.0,480.0,150.0,10.0,0.0
9773,73.0,240.0,1110.0,10.0,0.0
9774,39.0,240.0,150.0,14.0,0.0
9775,51.0,0.0,150.0,12.0,0.0
9776,61.0,0.0,150.0,12.0,0.0
9777,51.0,0.0,150.0,13.0,0.0
9778,58.0,0.0,150.0,11.0,0.0
9779,67.0,0.0,150.0,11.0,0.0
9780,67.0,0.0,150.0,11.0,0.0
9781,58.0,240.0,150.0,11.0,0.0
9782,61.0,0.0,150.0,12.0,0.0
9783,51.0,0.0,150.0,12.0,0.0
9784,51.0,0.0,150.0,13.0,0.0
9785,39.0,0.0,150.0,14.0,0.0
9786,67.0,0.0,150.0,11.0,0.0
9787,51.0,0.0,150.0,12.0,0.0
9788,61.0,0.0,150.0,12.0,0.0
9789,58.0,240.0,150.0,11.0,0.0
9790,51.0,0.0,150.0,13.0,0.0
9791,39.0,0.0,150.0,14.0,0.0
9792,58.0,0.0,390.0,11.0,0.0
9793,67.0,0.0,390.0,11.0,0.0
9794,39.0,0.0,390.0,14.0,0.0
9795,51.0,240.0,390.0,13.0,0.0
9796,51.0,0.0,390.0,12.0,0.0
9797,61.0,0.0,390.0,12.0,0.0
9798,72.0,0.0,150.0,10.0,0.0
9799,73.0,240.0,150.0,10.0,0.0
9800,70.0,408.0,150.0,10.0,0.0
9801,44.0,0.0,300.0,5.0,0.0
9802,56.0,0.0,300.0,2.0,0.0
9803,68.0,330.0,390.0,10.0,0.0
9804,48.0,0.0,300.0,3.0,0.0
9805,51.0,0.0,300.0,2.0,0.0
9806,68.0,0.0,300.0,1.0,0.0
9807,80.0,0.0,300.0,0.0,0.0
9808,60.0,0.0,300.0,4.0,0.0
9809,68.0,0.0,300.0,4.0,0.0
9810,56.0,0.0,300.0,3.0,0.0
9811,63.0,72.0,300.0,1.0,0.0
9812,48.0,0.0,240.0,3.0,0.0
9813,56.0,0.0,240.0,3.0,0.0
9814,44.0,204.0,240.0,5.0,0.0
9815,68.0,0.0,240.0,1.0,0.0
9816,63.0,0.0,240.0,1.0,0.0
9817,80.0,0.0,240.0,0.0,0.0
9818,60.0,0.0,240.0,4.0,0.0
9819,68.0,0.0,240.0,4.0,0.0
9820,51.0,0.0,240.0,2.0,0.0
9821,56.0,0.0,240.0,2.0,0.0
9822,48.0,0.0,90.0,3.0,0.0
9823,56.0,0.0,90.0,3.0,0.0
9824,68.0,0.0,90.0,1.0,0.0
9825,63.0,0.0,90.0,1.0,0.0
9826,56.0,0.0,90.0,2.0,0.0
9827,44.0,0.0,90.0,5.0,0.0
9828,51.0,0.0,90.0,2.0,0.0
9829,80.0,0.0,90.0,0.0,0.0
9830,60.0,354.0,90.0,4.0,0.0
9831,68.0,0.0,90.0,4.0,0.0
9832,55.0,0.0,300.0,2.0,0.0
9833,51.0,0.0,300.0,3.0,0.0
9834,58.0,0.0,300.0,3.0,0.0
9835,39.0,0.0,300.0,5.0,0.0
9836,63.0,0.0,300.0,4.0,0.0
9837,82.0,402.0,300.0,0.0,0.0
9838,70.0,0.0,300.0,1.0,0.0
9839,67.0,0.0,300.0,1.0,0.0
9840,70.0,0.0,300.0,4.0,0.0
9841,58.0,0.0,300.0,2.0,0.0
9842,55.0,0.0,240.0,2.0,0.0
9843,39.0,0.0,240.0,5.0,0.0
9844,70.0,0.0,240.0,4.0,0.0
9845,58.0,0.0,240.0,2.0,0.0
9846,63.0,0.0,240.0,4.0,0.0
9847,70.0,0.0,240.0,1.0,0.0
9848,51.0,0.0,240.0,3.0,0.0
9849,58.0,204.0,240.0,3.0,0.0
9850,67.0,0.0,240.0,1.0,0.0
9851,82.0,0.0,240.0,0.0,0.0
9852,70.0,102.0,90.0,1.0,0.0
9853,51.0,0.0,90.0,3.0,0.0
9854,39.0,0.0,90.0,5.0,0.0
9855,70.0,0.0,90.0,4.0,0.0
9856,58.0,0.0,90.0,3.0,0.0
9857,58.0,0.0,90.0,2.0,0.0
9858,63.0,0.0,90.0,4.0,0.0
9859,55.0,0.0,90.0,2.0,0.0
9860,67.0,0.0,90.0,1.0,0.0
9861,82.0,0.0,90.0,0.0,0.0
9862,56.0,0.0,390.0,2.0,0.0
9863,60.0,0.0,390.0,3.0,0.0
9864,60.0,0.0,390.0,2.0,0.0
9865,84.0,96.0,390.0,0.0,0.0
9866,68.0,0.0,390.0,4.0,0.0
9867,44.0,0.0,390.0,5.0,0.0
9868,72.0,0.0,390.0,4.0,0.0
9869,70.0,60.0,60.0,1.0,0.0
9870,73.0,0.0,60.0,1.0,0.0
9871,56.0,0.0,390.0,3.0,0.0
9872,68.0,0.0,60.0,1.0,0.0
9873,72.0,60.0,60.0,1.0,0.0
9874,73.0,60.0,60.0,1.0,0.0
9875,70.0,0.0,60.0,1.0,0.0
9876,68.0,0.0,60.0,1.0,0.0
9877,72.0,120.0,60.0,1.0,0.0
9878,70.0,24.0,120.0,1.0,0.0
9879,67.0,0.0,120.0,1.0,0.0
9880,72.0,0.0,120.0,1.0,0.0
9881,68.0,132.0,120.0,1.0,0.0
9882,43.0,0.0,120.0,2.0,0.0
9883,55.0,0.0,120.0,2.0,0.0
9884,39.0,240.0,120.0,5.0,0.0
9885,63.0,0.0,120.0,4.0,0.0
9886,73.0,0.0,120.0,1.0,0.0
9887,70.0,0.0,120.0,1.0,0.0
9888,85.0,0.0,120.0,0.0,0.0
9889,61.0,0.0,120.0,3.0,0.0
9890,58.0,0.0,120.0,3.0,0.0
9891,60.0,0.0,120.0,3.0,0.0
9892,56.0,348.0,120.0,3.0,0.0
9893,72.0,0.0,120.0,1.0,0.0
9894,84.0,0.0,120.0,0.0,0.0
9895,68.0,0.0,120.0,1.0,0.0
9896,44.0,0.0,120.0,2.0,0.0
9897,44.0,0.0,120.0,5.0,0.0
9898,63.0,0.0,120.0,4.0,0.0
9899,56.0,0.0,120.0,2.0,0.0
9900,58.0,0.0,390.0,3.0,0.0
9901,70.0,144.0,240.0,10.0,0.0
9902,51.0,0.0,390.0,3.0,0.0
9903,70.0,0.0,390.0,1.0,0.0
9904,51.0,0.0,390.0,2.0,0.0
9905,63.0,96.0,390.0,4.0,0.0
9906,39.0,0.0,390.0,2.0,0.0
9907,39.0,0.0,390.0,5.0,0.0
9908,82.0,0.0,390.0,0.0,0.0
9909,67.0,0.0,390.0,1.0,0.0
9910,72.0,240.0,240.0,10.0,0.0
9911,73.0,240.0,240.0,10.0,0.0
9912,74.0,384.0,240.0,10.0,0.0
9913,60.0,132.0,1440.0,3.0,0.0
9914,75.0,108.0,1140.0,10.0,0.0
9915,68.0,0.0,390.0,4.0,0.0
9916,56.0,0.0,390.0,4.0,0.0
9917,63.0,0.0,1440.0,3.0,0.0
9918,44.0,0.0,390.0,5.0,0.0
9919,63.0,0.0,150.0,11.0,0.0
9920,56.0,0.0,150.0,13.0,0.0
9921,44.0,0.0,150.0,14.0,0.0
9922,60.0,240.0,150.0,12.0,0.0
9923,56.0,0.0,150.0,13.0,0.0
9924,44.0,240.0,150.0,14.0,0.0
9925,63.0,0.0,150.0,11.0,0.0
9926,60.0,0.0,150.0,12.0,0.0
9927,60.0,0.0,150.0,12.0,0.0
9928,56.0,0.0,150.0,13.0,0.0
9929,44.0,0.0,150.0,14.0,0.0
9930,63.0,288.0,150.0,11.0,0.0
9931,63.0,96.0,390.0,11.0,0.0
9932,44.0,0.0,390.0,14.0,0.0
9933,60.0,0.0,390.0,12.0,0.0
9934,56.0,0.0,390.0,13.0,0.0
9935,77.0,60.0,60.0,10.0,0.0
9936,75.0,24.0,60.0,10.0,0.0
9937,74.0,0.0,120.0,10.0,0.0
9938,60.0,0.0,480.0,3.0,0.0
9939,56.0,384.0,480.0,3.0,0.0
9940,75.0,240.0,120.0,10.0,0.0
9941,72.0,108.0,120.0,10.0,0.0
9942,73.0,108.0,1140.0,10.0,0.0
9943,39.0,240.0,390.0,5.0,0.0
9944,70.0,0.0,390.0,4.0,0.0
9945,63.0,0.0,390.0,4.0,0.0
9946,61.0,132.0,1440.0,3.0,0.0
9947,39.0,0.0,150.0,14.0,0.0
9948,51.0,0.0,150.0,13.0,0.0
9949,67.0,0.0,150.0,11.0,0.0
9950,58.0,0.0,150.0,11.0,0.0
9951,61.0,0.0,150.0,12.0,0.0
9952,51.0,0.0,150.0,12.0,0.0
9953,61.0,0.0,150.0,12.0,0.0
9954,51.0,0.0,150.0,13.0,0.0
9955,51.0,0.0,150.0,12.0,0.0
9956,58.0,240.0,150.0,11.0,0.0
9957,67.0,0.0,150.0,11.0,0.0
9958,39.0,0.0,150.0,14.0,0.0
9959,39.0,0.0,150.0,14.0,0.0
9960,67.0,288.0,150.0,11.0,0.0
9961,51.0,0.0,150.0,12.0,0.0
9962,61.0,0.0,150.0,12.0,0.0
9963,58.0,0.0,150.0,11.0,0.0
9964,51.0,0.0,150.0,13.0,0.0
9965,61.0,0.0,390.0,12.0,0.0
9966,39.0,0.0,390.0,14.0,0.0
9967,51.0,0.0,390.0,12.0,0.0
9968,67.0,0.0,390.0,11.0,0.0
9969,58.0,0.0,390.0,11.0,0.0
9970,51.0,96.0,390.0,13.0,0.0
9971,75.0,60.0,60.0,10.0,0.0
9972,73.0,24.0,60.0,10.0,0.0
9973,72.0,0.0,120.0,10.0,0.0
9974,73.0,240.0,120.0,10.0,0.0
9975,51.0,312.0,480.0,3.0,0.0
9976,58.0,0.0,15.0,3.0,0.0
9977,70.0,108.0,120.0,10.0,0.0
9978,68.0,330.0,390.0,10.0,0.0
9979,63.0,0.0,300.0,1.0,0.0
9980,60.0,0.0,300.0,4.0,0.0
9981,68.0,0.0,300.0,1.0,0.0
9982,44.0,0.0,300.0,5.0,0.0
9983,68.0,0.0,300.0,4.0,0.0
9984,56.0,0.0,300.0,3.0,0.0
9985,56.0,72.0,300.0,2.0,0.0
9986,48.0,0.0,300.0,3.0,0.0
9987,51.0,0.0,300.0,2.0,0.0
9988,80.0,0.0,300.0,0.0,0.0
9989,68.0,0.0,240.0,4.0,0.0
9990,51.0,0.0,240.0,2.0,0.0
9991,56.0,0.0,240.0,2.0,0.0
9992,56.0,0.0,240.0,3.0,0.0
9993,48.0,0.0,240.0,3.0,0.0
9994,80.0,0.0,240.0,0.0,0.0
9995,60.0,0.0,240.0,4.0,0.0
9996,44.0,0.0,240.0,5.0,0.0
9997,63.0,204.0,240.0,1.0,0.0
9998,68.0,0.0,240.0,1.0,0.0
9999,56.0,0.0,90.0,3.0,0.0
10000,80.0,0.0,90.0,0.0,0.0
10001,56.0,0.0,90.0,2.0,0.0
10002,44.0,0.0,90.0,5.0,0.0
10003,60.0,0.0,90.0,4.0,0.0
10004,68.0,0.0,90.0,4.0,0.0
10005,51.0,102.0,90.0,2.0,0.0
10006,48.0,0.0,90.0,3.0,0.0
10007,68.0,0.0,90.0,1.0,0.0
10008,63.0,0.0,90.0,1.0,0.0
10009,70.0,0.0,300.0,4.0,0.0
10010,72.0,0.0,60.0,1.0,0.0
10011,39.0,0.0,300.0,5.0,0.0
10012,58.0,0.0,300.0,3.0,0.0
10013,63.0,24.0,300.0,4.0,0.0
10014,56.0,60.0,60.0,2.0,0.0
10015,60.0,0.0,60.0,2.0,0.0
10016,84.0,0.0,60.0,0.0,0.0
10017,51.0,0.0,300.0,3.0,0.0
10018,68.0,0.0,60.0,1.0,0.0
10019,70.0,60.0,60.0,1.0,0.0
10020,67.0,0.0,60.0,1.0,0.0
10021,82.0,0.0,60.0,0.0,0.0
10022,58.0,0.0,60.0,2.0,0.0
10023,55.0,0.0,60.0,2.0,0.0
10024,84.0,0.0,60.0,0.0,0.0
10025,60.0,60.0,60.0,2.0,0.0
10026,56.0,0.0,60.0,2.0,0.0
10027,72.0,0.0,60.0,1.0,0.0
10028,68.0,0.0,60.0,1.0,0.0
10029,67.0,0.0,60.0,1.0,0.0
10030,70.0,0.0,60.0,1.0,0.0
10031,58.0,0.0,60.0,2.0,0.0
10032,82.0,72.0,60.0,0.0,0.0
10033,55.0,0.0,60.0,2.0,0.0
10034,56.0,0.0,90.0,2.0,0.0
10035,68.0,96.0,90.0,1.0,0.0
10036,84.0,0.0,60.0,0.0,0.0
10037,72.0,0.0,60.0,1.0,0.0
10038,60.0,0.0,60.0,2.0,0.0
10039,65.0,240.0,90.0,1.0,0.0
10040,56.0,0.0,60.0,2.0,0.0
10041,53.0,0.0,90.0,2.0,0.0
10042,68.0,24.0,60.0,1.0,0.0
10043,80.0,0.0,60.0,0.0,0.0
10044,55.0,24.0,300.0,2.0,0.0
10045,82.0,0.0,210.0,0.0,0.0
10046,39.0,0.0,300.0,5.0,0.0
10047,51.0,0.0,300.0,3.0,0.0
10048,51.0,120.0,300.0,4.0,0.0
10049,58.0,72.0,210.0,2.0,0.0
10050,63.0,0.0,300.0,4.0,0.0
10051,70.0,0.0,210.0,1.0,0.0
10052,39.0,0.0,300.0,3.0,0.0
10053,67.0,0.0,300.0,1.0,0.0
10054,51.0,0.0,90.0,2.0,0.0
10055,60.0,0.0,60.0,2.0,0.0
10056,72.0,24.0,60.0,1.0,0.0
10057,63.0,120.0,90.0,1.0,0.0
10058,84.0,0.0,60.0,0.0,0.0
10059,56.0,0.0,180.0,12.0,0.0
10060,72.0,96.0,90.0,11.0,0.0
10061,80.0,0.0,90.0,10.0,0.0
10062,68.0,24.0,900.0,1.0,0.0
10063,48.0,0.0,180.0,2.0,0.0
10064,60.0,48.0,780.0,1.0,0.0
10065,63.0,0.0,390.0,4.0,0.0
10066,56.0,0.0,390.0,4.0,0.0
10067,80.0,0.0,2370.0,0.0,0.0
10068,56.0,0.0,180.0,2.0,0.0
10069,51.0,0.0,390.0,3.0,0.0
10070,44.0,72.0,390.0,3.0,0.0
10071,44.0,0.0,390.0,5.0,0.0
10072,32.0,24.0,180.0,14.0,0.0
10073,44.0,0.0,180.0,13.0,0.0
10074,72.0,0.0,90.0,11.0,0.0
10075,80.0,120.0,90.0,10.0,0.0
10076,72.0,0.0,90.0,11.0,0.0
10077,80.0,48.0,90.0,10.0,0.0
10078,72.0,0.0,90.0,11.0,0.0
10079,80.0,120.0,90.0,10.0,0.0
10080,27.0,0.0,180.0,14.0,0.0
10081,39.0,0.0,180.0,2.0,0.0
10082,80.0,0.0,90.0,10.0,0.0
10083,51.0,0.0,180.0,12.0,0.0
10084,39.0,24.0,180.0,13.0,0.0
10085,72.0,96.0,90.0,11.0,0.0
10086,72.0,0.0,90.0,11.0,0.0
10087,80.0,72.0,90.0,10.0,0.0
10088,72.0,96.0,90.0,11.0,0.0
10089,80.0,0.0,90.0,10.0,0.0
10090,80.0,120.0,90.0,10.0,0.0
10091,72.0,0.0,90.0,11.0,0.0
10092,68.0,0.0,1410.0,1.0,0.0
10093,44.0,0.0,180.0,2.0,0.0
10094,32.0,0.0,180.0,14.0,0.0
10095,80.0,0.0,90.0,10.0,0.0
10096,44.0,24.0,180.0,13.0,0.0
10097,72.0,24.0,900.0,1.0,0.0
10098,72.0,96.0,90.0,11.0,0.0
10099,56.0,0.0,180.0,12.0,0.0
10100,72.0,120.0,90.0,11.0,0.0
10101,80.0,0.0,90.0,10.0,0.0
10102,72.0,120.0,90.0,11.0,0.0
10103,80.0,0.0,90.0,10.0,0.0
10104,72.0,120.0,90.0,11.0,0.0
10105,80.0,0.0,90.0,10.0,0.0
10106,80.0,96.0,90.0,10.0,0.0
10107,48.0,0.0,180.0,2.0,0.0
10108,48.0,0.0,180.0,13.0,0.0
10109,72.0,0.0,90.0,11.0,0.0
10110,60.0,0.0,180.0,12.0,0.0
10111,36.0,24.0,180.0,14.0,0.0
10112,72.0,120.0,90.0,11.0,0.0
10113,80.0,0.0,90.0,10.0,0.0
10114,72.0,96.0,90.0,11.0,0.0
10115,80.0,0.0,90.0,10.0,0.0
10116,72.0,0.0,90.0,11.0,0.0
10117,80.0,120.0,90.0,10.0,0.0
10118,63.0,32.0,780.0,4.0,0.0
10119,70.0,120.0,90.0,11.0,0.0
10120,51.0,0.0,780.0,4.0,0.0
10121,70.0,48.0,1380.0,1.0,0.0
10122,49.0,0.0,720.0,2.0,0.0
10123,61.0,48.0,720.0,12.0,0.0
10124,49.0,0.0,720.0,13.0,0.0
10125,39.0,0.0,780.0,5.0,0.0
10126,39.0,0.0,780.0,3.0,0.0
10127,80.0,0.0,90.0,10.0,0.0
10128,51.0,0.0,780.0,3.0,0.0
10129,37.0,0.0,720.0,14.0,0.0
10130,80.0,120.0,90.0,10.0,0.0
10131,70.0,0.0,90.0,11.0,0.0
10132,70.0,120.0,90.0,11.0,0.0
10133,80.0,0.0,90.0,10.0,0.0
10134,80.0,0.0,90.0,10.0,0.0
10135,70.0,120.0,90.0,11.0,0.0
10136,65.0,0.0,450.0,1.0,0.0
10137,77.0,0.0,450.0,0.0,0.0
10138,70.0,0.0,90.0,11.0,0.0
10139,77.0,120.0,90.0,10.0,0.0
10140,77.0,24.0,90.0,10.0,0.0
10141,70.0,0.0,90.0,11.0,0.0
10142,77.0,64.0,90.0,10.0,0.0
10143,48.0,0.0,90.0,2.0,0.0
10144,36.0,0.0,90.0,14.0,0.0
10145,48.0,16.0,90.0,13.0,0.0
10146,60.0,0.0,90.0,12.0,0.0
10147,70.0,0.0,90.0,11.0,0.0
10148,58.0,56.0,90.0,12.0,0.0
10149,46.0,0.0,90.0,13.0,0.0
10150,34.0,0.0,90.0,14.0,0.0
10151,46.0,0.0,90.0,2.0,0.0
10152,70.0,0.0,90.0,11.0,0.0
10153,77.0,24.0,90.0,10.0,0.0
10154,32.0,0.0,90.0,14.0,0.0
10155,44.0,0.0,90.0,2.0,0.0
10156,56.0,96.0,90.0,12.0,0.0
10157,44.0,0.0,90.0,13.0,0.0
10158,70.0,0.0,90.0,11.0,0.0
10159,43.0,0.0,390.0,2.0,0.0
10160,43.0,0.0,390.0,13.0,0.0
10161,67.0,120.0,450.0,1.0,0.0
10162,63.0,0.0,390.0,4.0,0.0
10163,51.0,0.0,390.0,4.0,0.0
10164,31.0,24.0,390.0,14.0,0.0
10165,79.0,0.0,450.0,0.0,0.0
10166,39.0,0.0,390.0,5.0,0.0
10167,79.0,120.0,90.0,10.0,0.0
10168,39.0,0.0,390.0,3.0,0.0
10169,51.0,0.0,390.0,3.0,0.0
10170,55.0,0.0,390.0,12.0,0.0
10171,70.0,0.0,90.0,11.0,0.0
10172,79.0,120.0,90.0,10.0,0.0
10173,70.0,48.0,90.0,11.0,0.0
10174,79.0,0.0,90.0,10.0,0.0
10175,70.0,0.0,90.0,11.0,0.0
10176,79.0,0.0,90.0,10.0,0.0
10177,69.0,120.0,450.0,1.0,0.0
10178,39.0,0.0,390.0,3.0,0.0
10179,81.0,0.0,450.0,0.0,0.0
10180,63.0,0.0,390.0,4.0,0.0
10181,51.0,0.0,390.0,4.0,0.0
10182,51.0,0.0,390.0,3.0,0.0
10183,39.0,72.0,390.0,5.0,0.0
10184,72.0,0.0,90.0,11.0,0.0
10185,72.0,0.0,450.0,1.0,0.0
10186,81.0,120.0,90.0,10.0,0.0
10187,72.0,120.0,90.0,11.0,0.0
10188,81.0,0.0,90.0,10.0,0.0
10189,72.0,48.0,90.0,11.0,0.0
10190,81.0,0.0,90.0,10.0,0.0
10191,39.0,0.0,90.0,13.0,0.0
10192,51.0,0.0,90.0,12.0,0.0
10193,72.0,0.0,90.0,11.0,0.0
10194,27.0,0.0,90.0,14.0,0.0
10195,81.0,0.0,90.0,10.0,0.0
10196,39.0,0.0,90.0,2.0,0.0
10197,43.0,0.0,180.0,2.0,0.0
10198,39.0,0.0,390.0,3.0,0.0
10199,43.0,0.0,180.0,13.0,0.0
10200,51.0,0.0,390.0,4.0,0.0
10201,73.0,0.0,90.0,11.0,0.0
10202,82.0,96.0,90.0,10.0,0.0
10203,51.0,72.0,390.0,3.0,0.0
10204,31.0,24.0,180.0,14.0,0.0
10205,73.0,72.0,1830.0,1.0,0.0
10206,55.0,0.0,180.0,12.0,0.0
10207,39.0,0.0,390.0,5.0,0.0
10208,63.0,0.0,390.0,4.0,0.0
10209,70.0,0.0,2370.0,1.0,0.0
10210,82.0,0.0,2370.0,0.0,0.0
10211,73.0,0.0,90.0,11.0,0.0
10212,82.0,120.0,90.0,10.0,0.0
10213,73.0,0.0,90.0,11.0,0.0
10214,82.0,48.0,90.0,10.0,0.0
10215,82.0,0.0,90.0,10.0,0.0
10216,73.0,120.0,90.0,11.0,0.0
10217,82.0,96.0,90.0,10.0,0.0
10218,34.0,0.0,180.0,14.0,0.0
10219,73.0,0.0,90.0,11.0,0.0
10220,46.0,0.0,180.0,13.0,0.0
10221,58.0,24.0,180.0,12.0,0.0
10222,46.0,0.0,180.0,2.0,0.0
10223,73.0,120.0,90.0,11.0,0.0
10224,82.0,0.0,90.0,10.0,0.0
10225,73.0,0.0,90.0,11.0,0.0
10226,82.0,120.0,90.0,10.0,0.0
10227,82.0,0.0,90.0,10.0,0.0
10228,73.0,120.0,90.0,11.0,0.0
10229,82.0,0.0,90.0,10.0,0.0
10230,61.0,0.0,180.0,12.0,0.0
10231,37.0,24.0,180.0,14.0,0.0
10232,49.0,0.0,180.0,13.0,0.0
10233,49.0,0.0,180.0,2.0,0.0
10234,73.0,96.0,90.0,11.0,0.0
10235,73.0,0.0,90.0,11.0,0.0
10236,82.0,120.0,90.0,10.0,0.0
10237,82.0,0.0,90.0,10.0,0.0
10238,73.0,120.0,90.0,11.0,0.0
10239,73.0,0.0,90.0,11.0,0.0
10240,82.0,120.0,90.0,10.0,0.0
10241,82.0,96.0,90.0,10.0,0.0
10242,73.0,0.0,90.0,11.0,0.0
10243,46.0,0.0,180.0,13.0,0.0
10244,58.0,0.0,180.0,12.0,0.0
10245,46.0,24.0,180.0,2.0,0.0
10246,34.0,0.0,180.0,14.0,0.0
10247,73.0,0.0,90.0,11.0,0.0
10248,82.0,120.0,90.0,10.0,0.0
10249,82.0,0.0,90.0,10.0,0.0
10250,73.0,48.0,90.0,11.0,0.0
10251,73.0,120.0,90.0,11.0,0.0
10252,82.0,0.0,90.0,10.0,0.0
10253,51.0,48.0,720.0,13.0,0.0
10254,51.0,32.0,780.0,4.0,0.0
10255,63.0,0.0,780.0,4.0,0.0
10256,51.0,0.0,780.0,3.0,0.0
10257,51.0,0.0,720.0,2.0,0.0
10258,39.0,0.0,720.0,14.0,0.0
10259,63.0,0.0,720.0,12.0,0.0
10260,72.0,0.0,90.0,11.0,0.0
10261,72.0,24.0,900.0,1.0,0.0
10262,39.0,0.0,780.0,5.0,0.0
10263,39.0,0.0,780.0,3.0,0.0
10264,82.0,120.0,90.0,10.0,0.0
10265,82.0,120.0,90.0,10.0,0.0
10266,72.0,0.0,90.0,11.0,0.0
10267,82.0,120.0,90.0,10.0,0.0
10268,72.0,0.0,90.0,11.0,0.0
10269,82.0,0.0,90.0,10.0,0.0
10270,72.0,120.0,90.0,11.0,0.0
10271,79.0,120.0,90.0,10.0,0.0
10272,67.0,0.0,450.0,1.0,0.0
10273,72.0,0.0,90.0,11.0,0.0
10274,79.0,0.0,450.0,0.0,0.0
10275,72.0,0.0,90.0,11.0,0.0
10276,79.0,24.0,90.0,10.0,0.0
10277,72.0,64.0,90.0,11.0,0.0
10278,53.0,16.0,90.0,2.0,0.0
10279,65.0,0.0,90.0,12.0,0.0
10280,41.0,0.0,90.0,14.0,0.0
10281,79.0,0.0,90.0,10.0,0.0
10282,53.0,0.0,90.0,13.0,0.0
10283,51.0,32.0,90.0,13.0,0.0
10284,39.0,0.0,90.0,14.0,0.0
10285,63.0,0.0,90.0,12.0,0.0
10286,51.0,0.0,90.0,2.0,0.0
10287,72.0,0.0,90.0,11.0,0.0
10288,79.0,24.0,90.0,10.0,0.0
10289,61.0,0.0,90.0,12.0,0.0
10290,49.0,0.0,90.0,2.0,0.0
10291,49.0,96.0,90.0,13.0,0.0
10292,37.0,0.0,90.0,14.0,0.0
10293,60.0,0.0,390.0,12.0,0.0
10294,36.0,0.0,390.0,14.0,0.0
10295,75.0,120.0,90.0,11.0,0.0
10296,48.0,0.0,390.0,2.0,0.0
10297,75.0,0.0,450.0,1.0,0.0
10298,80.0,0.0,90.0,10.0,0.0
10299,68.0,0.0,390.0,4.0,0.0
10300,56.0,0.0,390.0,4.0,0.0
10301,80.0,0.0,450.0,0.0,0.0
10302,68.0,0.0,450.0,1.0,0.0
10303,44.0,0.0,390.0,5.0,0.0
10304,56.0,72.0,390.0,3.0,0.0
10305,44.0,0.0,390.0,3.0,0.0
10306,48.0,0.0,390.0,13.0,0.0
10307,75.0,120.0,90.0,11.0,0.0
10308,80.0,0.0,90.0,10.0,0.0
10309,80.0,48.0,90.0,10.0,0.0
10310,75.0,0.0,90.0,11.0,0.0
10311,75.0,0.0,90.0,11.0,0.0
10312,80.0,120.0,90.0,10.0,0.0
10313,70.0,0.0,450.0,1.0,0.0
10314,82.0,0.0,450.0,0.0,0.0
10315,82.0,120.0,90.0,10.0,0.0
10316,70.0,0.0,390.0,4.0,0.0
10317,39.0,72.0,390.0,5.0,0.0
10318,63.0,0.0,390.0,4.0,0.0
10319,58.0,0.0,390.0,3.0,0.0
10320,79.0,0.0,90.0,11.0,0.0
10321,51.0,0.0,390.0,3.0,0.0
10322,79.0,0.0,450.0,1.0,0.0
10323,79.0,120.0,90.0,11.0,0.0
10324,82.0,0.0,90.0,10.0,0.0
10325,79.0,48.0,90.0,11.0,0.0
10326,82.0,0.0,90.0,10.0,0.0
10327,79.0,0.0,90.0,11.0,0.0
10328,63.0,0.0,90.0,12.0,0.0
10329,51.0,120.0,90.0,2.0,0.0
10330,82.0,0.0,90.0,10.0,0.0
10331,39.0,0.0,90.0,14.0,0.0
10332,51.0,0.0,90.0,13.0,0.0
10333,84.0,96.0,90.0,10.0,0.0
10334,32.0,0.0,180.0,14.0,0.0
10335,56.0,0.0,180.0,12.0,0.0
10336,60.0,0.0,390.0,3.0,0.0
10337,44.0,0.0,180.0,13.0,0.0
10338,44.0,72.0,390.0,5.0,0.0
10339,44.0,24.0,180.0,2.0,0.0
10340,72.0,0.0,2370.0,1.0,0.0
10341,80.0,72.0,1830.0,1.0,0.0
10342,80.0,0.0,90.0,11.0,0.0
10343,72.0,0.0,390.0,4.0,0.0
10344,68.0,0.0,390.0,4.0,0.0
10345,84.0,0.0,2370.0,0.0,0.0
10346,56.0,0.0,390.0,3.0,0.0
10347,84.0,120.0,90.0,10.0,0.0
10348,80.0,0.0,90.0,11.0,0.0
10349,80.0,0.0,90.0,11.0,0.0
10350,84.0,48.0,90.0,10.0,0.0
10351,80.0,0.0,90.0,11.0,0.0
10352,84.0,120.0,90.0,10.0,0.0
10353,48.0,0.0,180.0,13.0,0.0
10354,80.0,96.0,90.0,11.0,0.0
10355,36.0,0.0,180.0,14.0,0.0
10356,84.0,0.0,90.0,10.0,0.0
10357,48.0,24.0,180.0,2.0,0.0
10358,60.0,0.0,180.0,12.0,0.0
10359,84.0,120.0,90.0,10.0,0.0
10360,80.0,0.0,90.0,11.0,0.0
10361,80.0,0.0,90.0,11.0,0.0
10362,84.0,120.0,90.0,10.0,0.0
10363,80.0,0.0,90.0,11.0,0.0
10364,84.0,120.0,90.0,10.0,0.0
10365,65.0,0.0,180.0,12.0,0.0
10366,53.0,0.0,180.0,2.0,0.0
10367,84.0,0.0,90.0,10.0,0.0
10368,53.0,0.0,180.0,13.0,0.0
10369,41.0,24.0,180.0,14.0,0.0
10370,80.0,96.0,90.0,11.0,0.0
10371,80.0,0.0,90.0,11.0,0.0
10372,84.0,120.0,90.0,10.0,0.0
10373,80.0,0.0,90.0,11.0,0.0
10374,84.0,120.0,90.0,10.0,0.0
10375,84.0,0.0,90.0,10.0,0.0
10376,80.0,120.0,90.0,11.0,0.0
10377,56.0,24.0,180.0,2.0,0.0
10378,44.0,0.0,180.0,14.0,0.0
10379,56.0,0.0,180.0,13.0,0.0
10380,84.0,0.0,90.0,10.0,0.0
10381,80.0,96.0,90.0,11.0,0.0
10382,68.0,0.0,180.0,12.0,0.0
10383,84.0,120.0,90.0,10.0,0.0
10384,80.0,0.0,90.0,11.0,0.0
10385,80.0,48.0,90.0,11.0,0.0
10386,84.0,0.0,90.0,10.0,0.0
10387,84.0,0.0,90.0,10.0,0.0
10388,80.0,120.0,90.0,11.0,0.0
10389,84.0,120.0,90.0,10.0,0.0
10390,40.0,0.0,720.0,14.0,0.0
10391,52.0,48.0,720.0,2.0,0.0
10392,52.0,0.0,720.0,13.0,0.0
10393,79.0,24.0,900.0,1.0,0.0
10394,72.0,0.0,780.0,4.0,0.0
10395,60.0,32.0,780.0,4.0,0.0
10396,48.0,0.0,780.0,3.0,0.0
10397,60.0,0.0,780.0,3.0,0.0
10398,79.0,0.0,90.0,11.0,0.0
10399,64.0,0.0,720.0,12.0,0.0
10400,84.0,120.0,90.0,10.0,0.0
10401,79.0,0.0,90.0,11.0,0.0
10402,79.0,0.0,90.0,11.0,0.0
10403,84.0,120.0,90.0,10.0,0.0
10404,79.0,120.0,90.0,11.0,0.0
10405,84.0,0.0,90.0,10.0,0.0
10406,83.0,120.0,90.0,10.0,0.0
10407,71.0,0.0,450.0,1.0,0.0
10408,79.0,0.0,90.0,11.0,0.0
10409,83.0,0.0,450.0,0.0,0.0
10410,83.0,24.0,90.0,10.0,0.0
10411,79.0,0.0,90.0,11.0,0.0
10412,79.0,0.0,90.0,11.0,0.0
10413,53.0,0.0,90.0,13.0,0.0
10414,41.0,0.0,90.0,14.0,0.0
10415,65.0,16.0,90.0,12.0,0.0
10416,53.0,0.0,90.0,2.0,0.0
10417,83.0,64.0,90.0,10.0,0.0
10418,52.0,0.0,90.0,2.0,0.0
10419,40.0,32.0,90.0,14.0,0.0
10420,52.0,0.0,90.0,13.0,0.0
10421,64.0,0.0,90.0,12.0,0.0
10422,79.0,0.0,90.0,11.0,0.0
10423,83.0,24.0,90.0,10.0,0.0
10424,50.0,0.0,90.0,2.0,0.0
10425,50.0,0.0,90.0,13.0,0.0
10426,62.0,0.0,90.0,12.0,0.0
10427,38.0,96.0,90.0,14.0,0.0
10428,48.0,0.0,390.0,13.0,0.0
10429,60.0,0.0,390.0,12.0,0.0
10430,76.0,120.0,90.0,11.0,0.0
10431,72.0,0.0,450.0,1.0,0.0
10432,36.0,0.0,390.0,14.0,0.0
10433,72.0,72.0,390.0,4.0,0.0
10434,84.0,0.0,90.0,10.0,0.0
10435,48.0,0.0,390.0,2.0,0.0
10436,76.0,120.0,450.0,1.0,0.0
10437,48.0,0.0,390.0,3.0,0.0
10438,60.0,0.0,390.0,4.0,0.0
10439,84.0,0.0,450.0,0.0,0.0
10440,60.0,0.0,390.0,3.0,0.0
10441,84.0,0.0,90.0,10.0,0.0
10442,76.0,120.0,90.0,11.0,0.0
10443,76.0,0.0,90.0,11.0,0.0
10444,84.0,48.0,90.0,10.0,0.0
10445,76.0,0.0,90.0,11.0,0.0
10446,84.0,0.0,90.0,10.0,0.0
10447,48.0,0.0,390.0,3.0,0.0
10448,70.0,0.0,450.0,1.0,0.0
10449,82.0,0.0,450.0,0.0,0.0
10450,82.0,120.0,90.0,10.0,0.0
10451,60.0,0.0,390.0,3.0,0.0
10452,72.0,0.0,390.0,4.0,0.0
10453,60.0,72.0,390.0,4.0,0.0
10454,79.0,0.0,90.0,11.0,0.0
10455,79.0,0.0,450.0,1.0,0.0
10456,79.0,0.0,90.0,11.0,0.0
10457,82.0,120.0,90.0,10.0,0.0
10458,82.0,0.0,90.0,10.0,0.0
10459,79.0,48.0,90.0,11.0,0.0
10460,82.0,0.0,90.0,10.0,0.0
10461,79.0,120.0,90.0,11.0,0.0
10462,52.0,0.0,90.0,13.0,0.0
10463,40.0,0.0,90.0,14.0,0.0
10464,64.0,0.0,90.0,12.0,0.0
10465,52.0,0.0,90.0,2.0,0.0
10466,53.0,0.0,180.0,2.0,0.0
10467,65.0,0.0,180.0,12.0,0.0
10468,41.0,0.0,180.0,14.0,0.0
10469,48.0,0.0,390.0,3.0,0.0
10470,80.0,116.0,930.0,0.0,0.0
10471,53.0,24.0,180.0,13.0,0.0
10472,72.0,106.0,480.0,1.0,0.0
10473,60.0,72.0,390.0,3.0,0.0
10474,72.0,0.0,390.0,4.0,0.0
10475,60.0,0.0,390.0,4.0,0.0
10476,80.0,96.0,90.0,10.0,0.0
10477,68.0,0.0,930.0,1.0,0.0
10478,72.0,0.0,90.0,11.0,0.0
10479,72.0,0.0,90.0,11.0,0.0
10480,80.0,120.0,90.0,10.0,0.0
10481,80.0,0.0,90.0,10.0,0.0
10482,72.0,48.0,90.0,11.0,0.0
10483,80.0,14.0,90.0,10.0,0.0
10484,72.0,0.0,90.0,11.0,0.0
10485,48.0,0.0,180.0,13.0,0.0
10486,80.0,96.0,90.0,10.0,0.0
10487,77.0,116.0,930.0,1.0,0.0
10488,60.0,24.0,180.0,12.0,0.0
10489,36.0,0.0,180.0,14.0,0.0
10490,48.0,0.0,180.0,2.0,0.0
10491,77.0,0.0,90.0,11.0,0.0
10492,77.0,120.0,90.0,11.0,0.0
10493,80.0,0.0,90.0,10.0,0.0
10494,80.0,0.0,90.0,10.0,0.0
10495,77.0,120.0,90.0,11.0,0.0
10496,77.0,4.0,90.0,11.0,0.0
10497,80.0,0.0,90.0,10.0,0.0
10498,68.0,24.0,180.0,12.0,0.0
10499,77.0,0.0,90.0,11.0,0.0
10500,83.0,96.0,90.0,10.0,0.0
10501,83.0,106.0,1440.0,0.0,0.0
10502,71.0,0.0,1440.0,1.0,0.0
10503,56.0,0.0,180.0,2.0,0.0
10504,44.0,0.0,180.0,14.0,0.0
10505,56.0,0.0,180.0,13.0,0.0
10506,77.0,120.0,90.0,11.0,0.0
10507,83.0,0.0,90.0,10.0,0.0
10508,83.0,120.0,90.0,10.0,0.0
10509,77.0,0.0,90.0,11.0,0.0
10510,77.0,0.0,90.0,11.0,0.0
10511,83.0,4.0,90.0,10.0,0.0
10512,80.0,96.0,90.0,11.0,0.0
10513,83.0,0.0,90.0,10.0,0.0
10514,80.0,106.0,480.0,1.0,0.0
10515,53.0,0.0,180.0,13.0,0.0
10516,65.0,0.0,180.0,12.0,0.0
10517,53.0,0.0,180.0,2.0,0.0
10518,41.0,24.0,180.0,14.0,0.0
10519,80.0,120.0,90.0,11.0,0.0
10520,83.0,0.0,90.0,10.0,0.0
10521,80.0,0.0,90.0,11.0,0.0
10522,83.0,120.0,90.0,10.0,0.0
10523,83.0,0.0,90.0,10.0,0.0
10524,80.0,14.0,90.0,11.0,0.0
10525,50.0,0.0,720.0,13.0,0.0
10526,58.0,32.0,780.0,3.0,0.0
10527,77.0,10.0,930.0,1.0,0.0
10528,62.0,0.0,720.0,12.0,0.0
10529,38.0,0.0,720.0,14.0,0.0
10530,50.0,48.0,720.0,2.0,0.0
10531,77.0,120.0,90.0,11.0,0.0
10532,83.0,0.0,90.0,10.0,0.0
10533,70.0,0.0,780.0,4.0,0.0
10534,83.0,120.0,90.0,10.0,0.0
10535,77.0,0.0,90.0,11.0,0.0
10536,77.0,0.0,90.0,11.0,0.0
10537,83.0,120.0,90.0,10.0,0.0
10538,77.0,14.0,90.0,11.0,0.0
10539,83.0,0.0,90.0,10.0,0.0
10540,77.0,120.0,90.0,11.0,0.0
10541,81.0,0.0,480.0,0.0,0.0
10542,81.0,0.0,90.0,10.0,0.0
10543,69.0,10.0,480.0,1.0,0.0
10544,81.0,0.0,90.0,10.0,0.0
10545,77.0,24.0,90.0,11.0,0.0
10546,51.0,0.0,90.0,13.0,0.0
10547,81.0,0.0,90.0,10.0,0.0
10548,51.0,0.0,90.0,2.0,0.0
10549,39.0,16.0,90.0,14.0,0.0
10550,77.0,64.0,90.0,11.0,0.0
10551,63.0,0.0,90.0,12.0,0.0
10552,62.0,0.0,90.0,12.0,0.0
10553,50.0,0.0,90.0,2.0,0.0
10554,50.0,0.0,90.0,13.0,0.0
10555,38.0,56.0,90.0,14.0,0.0
10556,81.0,0.0,90.0,10.0,0.0
10557,77.0,4.0,90.0,11.0,0.0
10558,60.0,96.0,90.0,12.0,0.0
10559,48.0,0.0,90.0,13.0,0.0
10560,36.0,0.0,90.0,14.0,0.0
10561,48.0,0.0,90.0,2.0,0.0
10562,70.0,0.0,390.0,4.0,0.0
10563,82.0,120.0,90.0,10.0,0.0
10564,70.0,0.0,480.0,1.0,0.0
10565,58.0,0.0,390.0,12.0,0.0
10566,58.0,72.0,390.0,3.0,0.0
10567,46.0,0.0,390.0,2.0,0.0
10568,46.0,0.0,390.0,13.0,0.0
10569,74.0,0.0,90.0,11.0,0.0
10570,82.0,106.0,480.0,0.0,0.0
10571,34.0,0.0,390.0,14.0,0.0
10572,74.0,0.0,480.0,1.0,0.0
10573,74.0,0.0,90.0,11.0,0.0
10574,82.0,120.0,90.0,10.0,0.0
10575,74.0,0.0,90.0,11.0,0.0
10576,82.0,48.0,90.0,10.0,0.0
10577,82.0,0.0,90.0,10.0,0.0
10578,74.0,14.0,90.0,11.0,0.0
10579,77.0,0.0,90.0,11.0,0.0
10580,58.0,0.0,390.0,3.0,0.0
10581,68.0,106.0,480.0,1.0,0.0
10582,70.0,72.0,390.0,4.0,0.0
10583,80.0,120.0,90.0,10.0,0.0
10584,80.0,0.0,480.0,0.0,0.0
10585,77.0,0.0,480.0,1.0,0.0
10586,77.0,120.0,90.0,11.0,0.0
10587,80.0,0.0,90.0,10.0,0.0
10588,77.0,48.0,90.0,11.0,0.0
10589,80.0,0.0,90.0,10.0,0.0
10590,80.0,0.0,90.0,10.0,0.0
10591,50.0,0.0,90.0,13.0,0.0
10592,38.0,14.0,90.0,14.0,0.0
10593,77.0,0.0,90.0,11.0,0.0
10594,62.0,0.0,90.0,12.0,0.0
10595,50.0,0.0,90.0,2.0,0.0
10596,70.0,96.0,90.0,11.0,0.0
10597,63.0,0.0,390.0,4.0,0.0
10598,39.0,72.0,390.0,5.0,0.0
10599,51.0,0.0,180.0,2.0,0.0
10600,70.0,0.0,390.0,4.0,0.0
10601,78.0,0.0,930.0,0.0,0.0
10602,39.0,0.0,180.0,14.0,0.0
10603,66.0,116.0,930.0,1.0,0.0
10604,70.0,106.0,480.0,1.0,0.0
10605,63.0,0.0,180.0,12.0,0.0
10606,51.0,0.0,390.0,3.0,0.0
10607,58.0,0.0,390.0,3.0,0.0
10608,78.0,0.0,90.0,10.0,0.0
10609,51.0,24.0,180.0,13.0,0.0
10610,70.0,0.0,90.0,11.0,0.0
10611,78.0,120.0,90.0,10.0,0.0
10612,70.0,0.0,90.0,11.0,0.0
10613,78.0,48.0,90.0,10.0,0.0
10614,70.0,14.0,90.0,11.0,0.0
10615,78.0,0.0,90.0,10.0,0.0
10616,46.0,24.0,180.0,13.0,0.0
10617,46.0,0.0,180.0,2.0,0.0
10618,58.0,0.0,180.0,12.0,0.0
10619,75.0,96.0,90.0,11.0,0.0
10620,34.0,0.0,180.0,14.0,0.0
10621,78.0,0.0,90.0,10.0,0.0
10622,75.0,116.0,930.0,1.0,0.0
10623,75.0,0.0,90.0,11.0,0.0
10624,78.0,120.0,90.0,10.0,0.0
10625,78.0,0.0,90.0,10.0,0.0
10626,75.0,120.0,90.0,11.0,0.0
10627,78.0,0.0,90.0,10.0,0.0
10628,75.0,4.0,90.0,11.0,0.0
10629,81.0,96.0,90.0,10.0,0.0
10630,69.0,0.0,1440.0,1.0,0.0
10631,54.0,0.0,180.0,13.0,0.0
10632,54.0,24.0,180.0,2.0,0.0
10633,81.0,106.0,1440.0,0.0,0.0
10634,66.0,0.0,180.0,12.0,0.0
10635,75.0,0.0,90.0,11.0,0.0
10636,42.0,0.0,180.0,14.0,0.0
10637,75.0,120.0,90.0,11.0,0.0
10638,81.0,0.0,90.0,10.0,0.0
10639,75.0,0.0,90.0,11.0,0.0
10640,81.0,120.0,90.0,10.0,0.0
10641,81.0,4.0,90.0,10.0,0.0
10642,75.0,0.0,90.0,11.0,0.0
10643,51.0,0.0,180.0,2.0,0.0
10644,63.0,0.0,180.0,12.0,0.0
10645,39.0,0.0,180.0,14.0,0.0
10646,51.0,24.0,180.0,13.0,0.0
10647,81.0,0.0,90.0,10.0,0.0
10648,78.0,106.0,480.0,1.0,0.0
10649,78.0,96.0,90.0,11.0,0.0
10650,81.0,120.0,90.0,10.0,0.0
10651,78.0,0.0,90.0,11.0,0.0
10652,78.0,120.0,90.0,11.0,0.0
10653,81.0,0.0,90.0,10.0,0.0
10654,78.0,0.0,90.0,11.0,0.0
10655,81.0,14.0,90.0,10.0,0.0
10656,60.0,0.0,720.0,12.0,0.0
10657,44.0,0.0,780.0,5.0,0.0
10658,48.0,48.0,720.0,2.0,0.0
10659,56.0,0.0,780.0,3.0,0.0
10660,68.0,0.0,780.0,4.0,0.0
10661,75.0,10.0,930.0,1.0,0.0
10662,56.0,0.0,780.0,4.0,0.0
10663,48.0,0.0,720.0,13.0,0.0
10664,75.0,120.0,90.0,11.0,0.0
10665,36.0,0.0,720.0,14.0,0.0
10666,44.0,32.0,780.0,3.0,0.0
10667,81.0,0.0,90.0,10.0,0.0
10668,75.0,120.0,90.0,11.0,0.0
10669,81.0,0.0,90.0,10.0,0.0
10670,81.0,120.0,90.0,10.0,0.0
10671,75.0,0.0,90.0,11.0,0.0
10672,81.0,14.0,90.0,10.0,0.0
10673,75.0,0.0,90.0,11.0,0.0
10674,79.0,10.0,480.0,0.0,0.0
10675,79.0,120.0,90.0,10.0,0.0
10676,75.0,0.0,90.0,11.0,0.0
10677,67.0,0.0,480.0,1.0,0.0
10678,75.0,0.0,90.0,11.0,0.0
10679,79.0,24.0,90.0,10.0,0.0
10680,49.0,0.0,90.0,13.0,0.0
10681,49.0,16.0,90.0,2.0,0.0
10682,37.0,0.0,90.0,14.0,0.0
10683,79.0,0.0,90.0,10.0,0.0
10684,61.0,0.0,90.0,12.0,0.0
10685,75.0,64.0,90.0,11.0,0.0
10686,48.0,0.0,90.0,2.0,0.0
10687,60.0,0.0,90.0,12.0,0.0
10688,36.0,0.0,90.0,14.0,0.0
10689,48.0,56.0,90.0,13.0,0.0
10690,79.0,4.0,90.0,10.0,0.0
10691,75.0,0.0,90.0,11.0,0.0
10692,46.0,0.0,90.0,13.0,0.0
10693,58.0,0.0,90.0,12.0,0.0
10694,46.0,0.0,90.0,2.0,0.0
10695,34.0,96.0,90.0,14.0,0.0
10696,68.0,106.0,480.0,1.0,0.0
10697,68.0,0.0,390.0,4.0,0.0
10698,56.0,72.0,390.0,4.0,0.0
10699,44.0,0.0,390.0,5.0,0.0
10700,44.0,0.0,390.0,13.0,0.0
10701,44.0,0.0,390.0,3.0,0.0
10702,44.0,0.0,390.0,2.0,0.0
10703,80.0,0.0,90.0,10.0,0.0
10704,32.0,0.0,390.0,14.0,0.0
10705,56.0,0.0,390.0,3.0,0.0
10706,72.0,0.0,480.0,1.0,0.0
10707,80.0,0.0,480.0,0.0,0.0
10708,72.0,120.0,90.0,11.0,0.0
10709,56.0,48.0,300.0,12.0,0.0
10710,72.0,0.0,90.0,11.0,0.0
10711,80.0,72.0,90.0,10.0,0.0
10712,72.0,48.0,90.0,11.0,0.0
10713,80.0,0.0,90.0,10.0,0.0
10714,72.0,0.0,90.0,11.0,0.0
10715,80.0,14.0,90.0,10.0,0.0
10716,56.0,0.0,390.0,4.0,0.0
10717,68.0,48.0,300.0,12.0,0.0
10718,75.0,0.0,480.0,1.0,0.0
10719,75.0,0.0,90.0,11.0,0.0
10720,78.0,120.0,90.0,10.0,0.0
10721,44.0,72.0,390.0,5.0,0.0
10722,66.0,0.0,480.0,1.0,0.0
10723,44.0,0.0,390.0,3.0,0.0
10724,78.0,202.0,480.0,0.0,0.0
10725,56.0,0.0,390.0,3.0,0.0
10726,68.0,0.0,390.0,4.0,0.0
10727,78.0,0.0,90.0,10.0,0.0
10728,75.0,72.0,90.0,11.0,0.0
10729,78.0,48.0,90.0,10.0,0.0
10730,75.0,0.0,90.0,11.0,0.0
10731,36.0,0.0,90.0,14.0,0.0
10732,48.0,14.0,90.0,2.0,0.0
10733,75.0,0.0,90.0,11.0,0.0
10734,48.0,0.0,90.0,13.0,0.0
10735,78.0,0.0,90.0,10.0,0.0
10736,73.0,288.0,390.0,1.0,0.0
10737,73.0,0.0,390.0,11.0,0.0
10738,49.0,0.0,390.0,2.0,0.0
10739,77.0,0.0,390.0,0.0,0.0
10740,49.0,0.0,390.0,13.0,0.0
10741,77.0,192.0,180.0,10.0,0.0
10742,37.0,0.0,390.0,14.0,0.0
10743,68.0,0.0,390.0,12.0,0.0
10744,65.0,0.0,390.0,1.0,0.0
10745,68.0,480.0,180.0,10.0,0.0
10746,73.0,480.0,180.0,10.0,0.0
10747,77.0,480.0,180.0,10.0,0.0
10748,63.0,480.0,180.0,11.0,0.0
10749,78.0,80.0,720.0,10.0,0.0
10750,56.0,48.0,180.0,11.0,0.0
10751,77.0,80.0,90.0,10.0,0.0
10752,75.0,80.0,90.0,10.0,0.0
10753,73.0,192.0,90.0,10.0,0.0
10754,72.0,288.0,390.0,10.0,0.0
10755,63.0,192.0,180.0,11.0,0.0
10756,66.0,480.0,180.0,11.0,0.0
10757,65.0,80.0,720.0,11.0,0.0
10758,73.0,480.0,180.0,6.0,0.0
10759,68.0,48.0,180.0,6.0,0.0
10760,66.0,80.0,90.0,11.0,0.0
10761,65.0,80.0,90.0,11.0,0.0
10762,63.0,192.0,90.0,11.0,0.0
10763,61.0,288.0,390.0,11.0,0.0
10764,73.0,192.0,180.0,6.0,0.0
10765,77.0,480.0,180.0,6.0,0.0
10766,63.0,480.0,180.0,7.0,0.0
10767,78.0,80.0,720.0,6.0,0.0
10768,56.0,48.0,180.0,7.0,0.0
10769,77.0,80.0,90.0,6.0,0.0
10770,75.0,80.0,90.0,6.0,0.0
10771,73.0,192.0,90.0,6.0,0.0
10772,72.0,288.0,390.0,6.0,0.0
10773,63.0,192.0,180.0,7.0,0.0
10774,66.0,264.0,180.0,7.0,0.0
10775,72.0,120.0,90.0,6.0,0.0
10776,73.0,96.0,90.0,6.0,0.0
10777,73.0,64.0,180.0,0.0,0.0
10778,64.0,32.0,390.0,7.0,0.0
10779,67.0,128.0,90.0,6.0,0.0
10780,68.0,160.0,90.0,6.0,0.0
10781,69.0,96.0,90.0,6.0,0.0
10782,68.0,64.0,180.0,0.0,0.0
10783,70.0,160.0,90.0,6.0,0.0
10784,71.0,160.0,90.0,6.0,0.0
10785,73.0,64.0,180.0,0.0,0.0
10786,72.0,96.0,90.0,6.0,0.0
10787,73.0,160.0,90.0,6.0,0.0
10788,74.0,160.0,90.0,6.0,0.0
10789,76.0,64.0,180.0,0.0,0.0
10790,75.0,96.0,90.0,6.0,0.0
10791,76.0,160.0,90.0,6.0,0.0
10792,77.0,256.0,90.0,6.0,0.0
10793,81.0,48.0,900.0,0.0,0.0
10794,66.0,48.0,180.0,1.0,0.0
10795,63.0,240.0,240.0,7.0,0.0
10796,78.0,0.0,720.0,6.0,0.0
10797,69.0,192.0,240.0,7.0,0.0
10798,63.0,48.0,180.0,1.0,0.0
10799,66.0,80.0,240.0,7.0,0.0
10800,76.0,80.0,90.0,6.0,0.0
10801,69.0,0.0,240.0,7.0,0.0
10802,75.0,32.0,90.0,6.0,0.0
10803,73.0,192.0,90.0,6.0,0.0
10804,63.0,144.0,240.0,7.0,0.0
10805,66.0,48.0,180.0,1.0,0.0
10806,72.0,10.0,900.0,0.0,0.0
10807,72.0,96.0,390.0,6.0,0.0
10808,69.0,192.0,240.0,7.0,0.0
10809,66.0,192.0,240.0,7.0,0.0
10810,69.0,48.0,180.0,1.0,0.0
10811,69.0,240.0,240.0,7.0,0.0
10812,68.0,0.0,960.0,1.0,0.0
10813,64.0,240.0,240.0,7.0,0.0
10814,73.0,0.0,960.0,0.0,0.0
10815,80.0,120.0,480.0,6.0,0.0
10816,64.0,0.0,960.0,1.0,0.0
10817,68.0,0.0,240.0,7.0,0.0
10818,64.0,0.0,240.0,7.0,0.0
10819,78.0,120.0,120.0,6.0,0.0
10820,76.0,120.0,120.0,6.0,0.0
10821,68.0,240.0,240.0,7.0,0.0
10822,75.0,96.0,120.0,6.0,0.0
10823,73.0,24.0,90.0,6.0,0.0
10824,66.0,0.0,960.0,1.0,0.0
10825,63.0,240.0,960.0,1.0,0.0
10826,81.0,240.0,240.0,6.0,0.0
10827,72.0,0.0,960.0,0.0,0.0
10828,63.0,0.0,240.0,7.0,0.0
10829,78.0,0.0,240.0,6.0,0.0
10830,69.0,240.0,240.0,7.0,0.0
10831,66.0,0.0,240.0,7.0,0.0
10832,75.0,192.0,240.0,6.0,0.0
10833,72.0,48.0,180.0,6.0,0.0
10834,69.0,0.0,240.0,7.0,0.0
10835,80.0,0.0,480.0,6.0,0.0
10836,73.0,240.0,960.0,0.0,0.0
10837,64.0,240.0,240.0,7.0,0.0
10838,68.0,0.0,960.0,1.0,0.0
10839,64.0,0.0,960.0,1.0,0.0
10840,68.0,120.0,240.0,7.0,0.0
10841,78.0,120.0,120.0,6.0,0.0
10842,64.0,0.0,240.0,7.0,0.0
10843,76.0,120.0,120.0,6.0,0.0
10844,68.0,0.0,240.0,7.0,0.0
10845,75.0,96.0,120.0,6.0,0.0
10846,73.0,24.0,90.0,6.0,0.0
10847,81.0,240.0,240.0,6.0,0.0
10848,66.0,0.0,960.0,1.0,0.0
10849,63.0,240.0,960.0,1.0,0.0
10850,72.0,0.0,960.0,0.0,0.0
10851,63.0,0.0,240.0,7.0,0.0
10852,69.0,0.0,240.0,7.0,0.0
10853,78.0,240.0,240.0,6.0,0.0
10854,66.0,192.0,240.0,7.0,0.0
10855,75.0,0.0,240.0,6.0,0.0
10856,72.0,48.0,180.0,6.0,0.0
10857,69.0,0.0,240.0,7.0,0.0
10858,73.0,0.0,390.0,0.0,0.0
10859,64.0,0.0,390.0,7.0,0.0
10860,73.0,144.0,240.0,6.0,0.0
10861,64.0,96.0,390.0,1.0,0.0
10862,68.0,0.0,390.0,1.0,0.0
10863,68.0,0.0,390.0,7.0,0.0
10864,79.0,240.0,240.0,6.0,0.0
10865,81.0,192.0,240.0,6.0,0.0
10866,80.0,288.0,180.0,6.0,0.0
10867,78.0,240.0,240.0,6.0,0.0
10868,77.0,240.0,240.0,6.0,0.0
10869,76.0,192.0,240.0,6.0,0.0
10870,75.0,288.0,180.0,6.0,0.0
10871,75.0,156.0,240.0,6.0,0.0
10872,74.0,372.0,150.0,6.0,0.0
10873,68.0,108.0,300.0,7.0,0.0
10874,65.0,0.0,300.0,7.0,0.0
10875,82.0,324.0,150.0,6.0,0.0
10876,85.0,156.0,240.0,6.0,0.0
10877,83.0,372.0,150.0,6.0,0.0
10878,65.0,108.0,300.0,7.0,0.0
10879,68.0,0.0,300.0,7.0,0.0
10880,74.0,204.0,150.0,6.0,0.0
10881,63.0,0.0,4230.0,13.0,0.0
10882,75.0,0.0,960.0,10.0,0.0
10883,67.0,0.0,960.0,12.0,0.0
10884,75.0,120.0,120.0,6.0,0.0
10885,70.0,120.0,960.0,11.0,0.0
10886,63.0,0.0,930.0,7.0,0.0
10887,67.0,20.0,930.0,7.0,0.0
10888,76.0,120.0,120.0,6.0,0.0
10889,77.0,120.0,120.0,6.0,0.0
10890,78.0,120.0,120.0,6.0,0.0
10891,79.0,120.0,120.0,6.0,0.0
10892,80.0,120.0,120.0,6.0,0.0
10893,81.0,100.0,120.0,6.0,0.0
10894,82.0,0.0,120.0,6.0,0.0
10895,85.0,120.0,120.0,6.0,0.0
10896,71.0,20.0,930.0,11.0,0.0
10897,68.0,0.0,930.0,12.0,0.0
10898,63.0,0.0,930.0,7.0,0.0
10899,68.0,0.0,930.0,7.0,0.0
10900,74.0,0.0,930.0,10.0,0.0
10901,83.0,120.0,120.0,6.0,0.0
10902,81.0,120.0,120.0,6.0,0.0
10903,80.0,120.0,120.0,6.0,0.0
10904,78.0,120.0,120.0,6.0,0.0
10905,76.0,120.0,120.0,6.0,0.0
10906,75.0,100.0,120.0,6.0,0.0
10907,74.0,120.0,120.0,6.0,0.0
10908,67.0,0.0,960.0,12.0,0.0
10909,75.0,120.0,120.0,6.0,0.0
10910,63.0,0.0,930.0,7.0,0.0
10911,75.0,120.0,960.0,10.0,0.0
10912,67.0,20.0,930.0,7.0,0.0
10913,70.0,0.0,960.0,11.0,0.0
10914,76.0,120.0,120.0,6.0,0.0
10915,77.0,120.0,120.0,6.0,0.0
10916,78.0,120.0,120.0,6.0,0.0
10917,79.0,120.0,120.0,6.0,0.0
10918,80.0,120.0,120.0,6.0,0.0
10919,81.0,100.0,120.0,6.0,0.0
10920,82.0,0.0,120.0,6.0,0.0
10921,68.0,0.0,930.0,7.0,0.0
10922,63.0,20.0,930.0,7.0,0.0
10923,71.0,0.0,930.0,11.0,0.0
10924,68.0,0.0,930.0,12.0,0.0
10925,74.0,0.0,930.0,10.0,0.0
10926,85.0,120.0,120.0,6.0,0.0
10927,83.0,120.0,120.0,6.0,0.0
10928,81.0,120.0,120.0,6.0,0.0
10929,80.0,120.0,120.0,6.0,0.0
10930,78.0,120.0,120.0,6.0,0.0
10931,76.0,120.0,120.0,6.0,0.0
10932,75.0,100.0,120.0,6.0,0.0
10933,74.0,120.0,120.0,6.0,0.0
10934,67.0,96.0,390.0,12.0,0.0
10935,75.0,0.0,390.0,10.0,0.0
10936,70.0,0.0,390.0,11.0,0.0
10937,63.0,0.0,390.0,7.0,0.0
10938,67.0,0.0,390.0,7.0,0.0
10939,75.0,120.0,120.0,6.0,0.0
10940,76.0,120.0,120.0,6.0,0.0
10941,77.0,24.0,120.0,6.0,0.0
10942,75.0,120.0,120.0,6.0,0.0
10943,73.0,120.0,120.0,6.0,0.0
10944,72.0,120.0,120.0,6.0,0.0
10945,70.0,120.0,120.0,6.0,0.0
10946,69.0,120.0,120.0,6.0,0.0
10947,70.0,120.0,120.0,6.0,0.0
10948,72.0,120.0,120.0,6.0,0.0
10949,73.0,120.0,120.0,6.0,0.0
10950,72.0,120.0,120.0,6.0,0.0
10951,70.0,120.0,120.0,6.0,0.0
10952,68.0,120.0,120.0,6.0,0.0
10953,67.0,120.0,120.0,6.0,0.0
10954,65.0,120.0,120.0,6.0,0.0
10955,67.0,120.0,120.0,6.0,0.0
10956,68.0,120.0,120.0,6.0,0.0
10957,70.0,120.0,120.0,6.0,0.0
10958,68.0,120.0,120.0,6.0,0.0
10959,67.0,120.0,120.0,6.0,0.0
10960,65.0,120.0,120.0,6.0,0.0
10961,63.0,120.0,120.0,6.0,0.0
10962,62.0,120.0,120.0,6.0,0.0
10963,63.0,120.0,120.0,6.0,0.0
10964,64.0,120.0,120.0,6.0,0.0
10965,65.0,120.0,120.0,6.0,0.0
10966,63.0,120.0,120.0,6.0,0.0
10967,61.0,120.0,120.0,6.0,0.0
10968,60.0,120.0,120.0,6.0,0.0
10969,58.0,120.0,120.0,6.0,0.0
10970,57.0,120.0,120.0,6.0,0.0
10971,61.0,0.0,6720.0,1.0,0.0
10972,43.0,0.0,1920.0,8.0,0.0
10973,55.0,120.0,6720.0,2.0,0.0
10974,39.0,0.0,7680.0,3.0,0.0
10975,39.0,0.0,1920.0,8.0,0.0
10976,49.0,0.0,1920.0,8.0,0.0
10977,46.0,0.0,1920.0,8.0,0.0
10978,58.0,0.0,6720.0,2.0,0.0
10979,58.0,120.0,120.0,6.0,0.0
10980,51.0,96.0,8070.0,3.0,0.0
10981,60.0,120.0,120.0,6.0,0.0
10982,61.0,120.0,120.0,6.0,0.0
10983,60.0,120.0,120.0,6.0,0.0
10984,58.0,120.0,120.0,6.0,0.0
10985,56.0,120.0,120.0,6.0,0.0
10986,55.0,120.0,120.0,6.0,0.0
10987,53.0,120.0,120.0,6.0,0.0
10988,55.0,120.0,120.0,6.0,0.0
10989,56.0,120.0,120.0,6.0,0.0
10990,58.0,120.0,120.0,6.0,0.0
10991,56.0,120.0,120.0,6.0,0.0
10992,55.0,120.0,120.0,6.0,0.0
10993,53.0,120.0,120.0,6.0,0.0
10994,51.0,120.0,120.0,6.0,0.0
10995,50.0,120.0,120.0,6.0,0.0
10996,51.0,120.0,120.0,7.0,0.0
10997,52.0,120.0,120.0,7.0,0.0
10998,53.0,120.0,120.0,7.0,0.0
10999,51.0,120.0,120.0,7.0,0.0
11000,49.0,120.0,120.0,7.0,0.0
11001,48.0,120.0,120.0,7.0,0.0
11002,46.0,120.0,120.0,7.0,0.0
11003,45.0,120.0,120.0,7.0,0.0
11004,46.0,120.0,120.0,7.0,0.0
11005,48.0,120.0,120.0,7.0,0.0
11006,49.0,120.0,120.0,7.0,0.0
11007,48.0,120.0,120.0,7.0,0.0
11008,46.0,120.0,120.0,7.0,0.0
11009,44.0,120.0,120.0,7.0,0.0
11010,43.0,120.0,120.0,7.0,0.0
11011,41.0,120.0,120.0,7.0,0.0
11012,85.0,0.0,2880.0,0.0,0.0
11013,27.0,0.0,1920.0,8.0,0.0
11014,39.0,0.0,1920.0,8.0,0.0
11015,67.0,0.0,3360.0,1.0,0.0
11016,43.0,120.0,120.0,7.0,0.0
11017,44.0,120.0,120.0,7.0,0.0
11018,45.0,120.0,120.0,7.0,0.0
11019,46.0,120.0,120.0,7.0,0.0
11020,47.0,120.0,120.0,7.0,0.0
11021,48.0,120.0,120.0,7.0,0.0
11022,49.0,120.0,120.0,7.0,0.0
11023,50.0,120.0,120.0,7.0,0.0
11024,51.0,120.0,120.0,7.0,0.0
11025,52.0,120.0,120.0,7.0,0.0
11026,53.0,120.0,120.0,7.0,0.0
11027,54.0,120.0,120.0,7.0,0.0
11028,55.0,120.0,120.0,7.0,0.0
11029,56.0,120.0,120.0,7.0,0.0
11030,57.0,120.0,120.0,7.0,0.0
11031,58.0,120.0,120.0,7.0,0.0
11032,59.0,120.0,120.0,6.0,0.0
11033,60.0,120.0,120.0,6.0,0.0
11034,61.0,120.0,120.0,6.0,0.0
11035,62.0,120.0,120.0,6.0,0.0
11036,63.0,120.0,120.0,6.0,0.0
11037,64.0,120.0,120.0,6.0,0.0
11038,65.0,120.0,120.0,6.0,0.0
11039,66.0,0.0,120.0,6.0,0.0
11040,67.0,120.0,120.0,6.0,0.0
11041,82.0,0.0,480.0,0.0,0.0
11042,58.0,0.0,960.0,2.0,0.0
11043,61.0,0.0,960.0,2.0,0.0
11044,70.0,0.0,960.0,1.0,0.0
11045,68.0,120.0,120.0,6.0,0.0
11046,69.0,120.0,120.0,6.0,0.0
11047,70.0,120.0,120.0,6.0,0.0
11048,73.0,0.0,480.0,1.0,0.0
11049,79.0,240.0,480.0,0.0,0.0
11050,71.0,120.0,120.0,6.0,0.0
11051,72.0,120.0,120.0,6.0,0.0
11052,73.0,120.0,120.0,6.0,0.0
11053,74.0,0.0,120.0,6.0,0.0
11054,75.0,144.0,240.0,6.0,0.0
11055,68.0,0.0,390.0,1.0,0.0
11056,32.0,0.0,390.0,14.0,0.0
11057,56.0,0.0,390.0,2.0,0.0
11058,56.0,0.0,240.0,7.0,0.0
11059,44.0,0.0,390.0,13.0,0.0
11060,44.0,0.0,390.0,3.0,0.0
11061,60.0,0.0,390.0,2.0,0.0
11062,80.0,0.0,390.0,0.0,0.0
11063,72.0,0.0,240.0,6.0,0.0
11064,63.0,240.0,240.0,7.0,0.0
11065,70.0,144.0,240.0,6.0,0.0
11066,60.0,0.0,390.0,11.0,0.0
11067,56.0,48.0,390.0,12.0,0.0
11068,63.0,0.0,390.0,10.0,0.0
11069,60.0,0.0,240.0,7.0,0.0
11070,63.0,240.0,240.0,7.0,0.0
11071,68.0,48.0,180.0,6.0,0.0
11072,56.0,0.0,240.0,7.0,0.0
11073,32.0,0.0,390.0,14.0,0.0
11074,44.0,96.0,390.0,13.0,0.0
11075,75.0,144.0,240.0,6.0,0.0
11076,63.0,240.0,240.0,7.0,0.0
11077,72.0,0.0,240.0,6.0,0.0
11078,60.0,48.0,390.0,11.0,0.0
11079,56.0,0.0,390.0,12.0,0.0
11080,70.0,0.0,240.0,6.0,0.0
11081,63.0,0.0,390.0,10.0,0.0
11082,60.0,144.0,240.0,7.0,0.0
11083,68.0,48.0,180.0,6.0,0.0
11084,63.0,240.0,240.0,7.0,0.0
11085,37.0,0.0,390.0,14.0,0.0
11086,49.0,96.0,390.0,13.0,0.0
11087,77.0,144.0,240.0,6.0,0.0
11088,49.0,0.0,240.0,7.0,0.0
11089,58.0,240.0,240.0,7.0,0.0
11090,73.0,0.0,240.0,6.0,0.0
11091,53.0,0.0,390.0,12.0,0.0
11092,61.0,0.0,390.0,10.0,0.0
11093,72.0,144.0,240.0,6.0,0.0
11094,58.0,48.0,390.0,11.0,0.0
11095,53.0,0.0,240.0,7.0,0.0
11096,58.0,240.0,240.0,7.0,0.0
11097,70.0,48.0,180.0,6.0,0.0
11098,49.0,96.0,390.0,13.0,0.0
11099,37.0,0.0,390.0,14.0,0.0
11100,70.0,96.0,780.0,6.0,0.0
11101,49.0,144.0,240.0,7.0,0.0
11102,58.0,240.0,240.0,7.0,0.0
11103,53.0,0.0,390.0,12.0,0.0
11104,53.0,48.0,240.0,7.0,0.0
11105,58.0,0.0,390.0,11.0,0.0
11106,61.0,96.0,390.0,10.0,0.0
11107,58.0,240.0,240.0,7.0,0.0
11108,51.0,0.0,390.0,13.0,0.0
11109,73.0,0.0,240.0,6.0,0.0
11110,39.0,96.0,390.0,14.0,0.0
11111,51.0,144.0,240.0,7.0,0.0
11112,70.0,240.0,240.0,6.0,0.0
11113,61.0,0.0,240.0,7.0,0.0
11114,58.0,144.0,240.0,7.0,0.0
11115,51.0,48.0,390.0,12.0,0.0
11116,68.0,0.0,240.0,6.0,0.0
11117,55.0,0.0,390.0,11.0,0.0
11118,58.0,0.0,390.0,10.0,0.0
11119,61.0,240.0,240.0,7.0,0.0
11120,67.0,48.0,180.0,6.0,0.0
11121,39.0,96.0,390.0,14.0,0.0
11122,51.0,0.0,390.0,13.0,0.0
11123,51.0,144.0,240.0,7.0,0.0
11124,73.0,0.0,240.0,6.0,0.0
11125,70.0,0.0,240.0,6.0,0.0
11126,61.0,240.0,240.0,7.0,0.0
11127,51.0,0.0,390.0,12.0,0.0
11128,68.0,0.0,240.0,6.0,0.0
11129,58.0,48.0,390.0,10.0,0.0
11130,55.0,0.0,390.0,11.0,0.0
11131,58.0,144.0,240.0,7.0,0.0
11132,61.0,240.0,240.0,7.0,0.0
11133,67.0,48.0,180.0,6.0,0.0
11134,48.0,96.0,390.0,13.0,0.0
11135,36.0,0.0,390.0,14.0,0.0
11136,48.0,0.0,240.0,7.0,0.0
11137,75.0,144.0,240.0,6.0,0.0
11138,72.0,240.0,240.0,6.0,0.0
11139,56.0,0.0,240.0,7.0,0.0
11140,56.0,48.0,390.0,11.0,0.0
11141,51.0,0.0,390.0,12.0,0.0
11142,70.0,0.0,240.0,6.0,0.0
11143,63.0,0.0,390.0,10.0,0.0
11144,51.0,144.0,240.0,7.0,0.0
11145,68.0,48.0,180.0,6.0,0.0
11146,56.0,240.0,240.0,7.0,0.0
11147,36.0,96.0,390.0,14.0,0.0
11148,48.0,144.0,240.0,7.0,0.0
11149,68.0,96.0,780.0,6.0,0.0
11150,48.0,0.0,390.0,13.0,0.0
11151,56.0,240.0,240.0,7.0,0.0
11152,56.0,96.0,390.0,11.0,0.0
11153,51.0,48.0,240.0,7.0,0.0
11154,51.0,0.0,390.0,12.0,0.0
11155,63.0,0.0,390.0,10.0,0.0
11156,56.0,720.0,240.0,7.0,0.0
11157,68.0,48.0,720.0,6.0,0.0
11158,48.0,0.0,300.0,7.0,0.0
11159,51.0,144.0,300.0,7.0,0.0
11160,72.0,288.0,180.0,6.0,0.0
11161,49.0,72.0,780.0,7.0,0.0
11162,70.0,120.0,240.0,6.0,0.0
11163,51.0,0.0,780.0,7.0,0.0
11164,73.0,360.0,120.0,6.0,0.0
11165,67.0,48.0,240.0,6.0,0.0
11166,70.0,840.0,120.0,6.0,0.0
11167,51.0,0.0,300.0,7.0,0.0
11168,48.0,72.0,300.0,7.0,0.0
11169,68.0,48.0,15.0,6.0,0.0
11170,72.0,144.0,120.0,6.0,0.0
11171,70.0,216.0,150.0,6.0,0.0
11172,51.0,0.0,780.0,7.0,0.0
11173,49.0,72.0,780.0,7.0,0.0
11174,70.0,120.0,120.0,6.0,0.0
11175,73.0,144.0,120.0,6.0,0.0
11176,67.0,144.0,150.0,6.0,0.0
11177,67.0,120.0,120.0,6.0,0.0
11178,70.0,120.0,120.0,6.0,0.0
11179,48.0,96.0,390.0,7.0,0.0
11180,68.0,120.0,120.0,6.0,0.0
11181,51.0,0.0,390.0,7.0,0.0
11182,63.0,120.0,120.0,6.0,0.0
11183,65.0,24.0,120.0,6.0,0.0
11184,66.0,120.0,120.0,6.0,0.0
11185,67.0,120.0,120.0,6.0,0.0
11186,68.0,120.0,120.0,6.0,0.0
11187,69.0,120.0,120.0,6.0,0.0
11188,70.0,120.0,120.0,6.0,0.0
11189,71.0,120.0,120.0,6.0,0.0
11190,72.0,120.0,120.0,6.0,0.0
11191,73.0,120.0,120.0,6.0,0.0
11192,74.0,144.0,120.0,6.0,0.0
11193,48.0,0.0,150.0,7.0,0.0
11194,56.0,0.0,150.0,7.0,0.0
11195,75.0,240.0,150.0,6.0,0.0
11196,77.0,816.0,150.0,6.0,0.0
11197,50.0,0.0,150.0,7.0,0.0
11198,56.0,0.0,150.0,7.0,0.0
11199,72.0,120.0,720.0,6.0,0.0
11200,56.0,0.0,960.0,7.0,0.0
11201,51.0,0.0,1260.0,7.0,0.0
11202,73.0,120.0,120.0,6.0,0.0
11203,72.0,240.0,120.0,6.0,0.0
11204,55.0,192.0,300.0,7.0,0.0
11205,70.0,48.0,240.0,6.0,0.0
11206,72.0,240.0,240.0,6.0,0.0
11207,73.0,240.0,240.0,6.0,0.0
11208,74.0,240.0,240.0,6.0,0.0
11209,75.0,144.0,240.0,1.0,0.0
11210,32.0,0.0,390.0,14.0,0.0
11211,44.0,96.0,390.0,13.0,0.0
11212,75.0,0.0,390.0,6.0,0.0
11213,72.0,0.0,240.0,1.0,0.0
11214,56.0,0.0,240.0,2.0,0.0
11215,60.0,240.0,240.0,1.0,0.0
11216,61.0,0.0,240.0,1.0,0.0
11217,58.0,192.0,240.0,2.0,0.0
11218,44.0,0.0,480.0,2.0,0.0
11219,70.0,0.0,240.0,1.0,0.0
11220,63.0,0.0,240.0,1.0,0.0
11221,68.0,48.0,180.0,1.0,0.0
11222,60.0,240.0,240.0,2.0,0.0
11223,75.0,144.0,240.0,1.0,0.0
11224,44.0,0.0,390.0,13.0,0.0
11225,32.0,96.0,390.0,14.0,0.0
11226,60.0,240.0,240.0,1.0,0.0
11227,72.0,0.0,240.0,1.0,0.0
11228,56.0,0.0,240.0,2.0,0.0
11229,61.0,0.0,240.0,1.0,0.0
11230,70.0,192.0,240.0,1.0,0.0
11231,58.0,0.0,240.0,2.0,0.0
11232,44.0,0.0,480.0,2.0,0.0
11233,63.0,240.0,240.0,1.0,0.0
11234,68.0,48.0,180.0,1.0,0.0
11235,60.0,0.0,240.0,2.0,0.0
11236,77.0,144.0,240.0,1.0,0.0
11237,37.0,96.0,390.0,14.0,0.0
11238,49.0,0.0,390.0,13.0,0.0
11239,58.0,240.0,240.0,2.0,0.0
11240,73.0,0.0,240.0,1.0,0.0
11241,61.0,0.0,240.0,1.0,0.0
11242,49.0,240.0,480.0,2.0,0.0
11243,72.0,0.0,240.0,1.0,0.0
11244,63.0,0.0,240.0,1.0,0.0
11245,60.0,192.0,240.0,2.0,0.0
11246,70.0,48.0,180.0,1.0,0.0
11247,61.0,0.0,240.0,2.0,0.0
11248,65.0,0.0,240.0,1.0,0.0
11249,49.0,0.0,390.0,13.0,0.0
11250,37.0,96.0,390.0,14.0,0.0
11251,65.0,0.0,240.0,7.0,0.0
11252,70.0,192.0,780.0,1.0,0.0
11253,77.0,144.0,240.0,6.0,0.0
11254,61.0,0.0,240.0,7.0,0.0
11255,73.0,0.0,240.0,6.0,0.0
11256,58.0,0.0,240.0,2.0,0.0
11257,61.0,240.0,240.0,1.0,0.0
11258,60.0,0.0,240.0,7.0,0.0
11259,72.0,0.0,240.0,6.0,0.0
11260,60.0,48.0,240.0,2.0,0.0
11261,49.0,0.0,480.0,2.0,0.0
11262,63.0,0.0,240.0,1.0,0.0
11263,70.0,0.0,240.0,6.0,0.0
11264,58.0,240.0,240.0,7.0,0.0
11265,65.0,0.0,240.0,1.0,0.0
11266,61.0,0.0,240.0,2.0,0.0
11267,51.0,96.0,390.0,13.0,0.0
11268,39.0,0.0,390.0,14.0,0.0
11269,73.0,0.0,240.0,1.0,0.0
11270,85.0,144.0,240.0,0.0,0.0
11271,55.0,0.0,240.0,2.0,0.0
11272,70.0,240.0,240.0,1.0,0.0
11273,58.0,0.0,240.0,1.0,0.0
11274,82.0,0.0,240.0,0.0,0.0
11275,68.0,192.0,240.0,1.0,0.0
11276,80.0,0.0,240.0,0.0,0.0
11277,60.0,0.0,240.0,1.0,0.0
11278,56.0,0.0,240.0,2.0,0.0
11279,51.0,240.0,480.0,2.0,0.0
11280,61.0,0.0,240.0,1.0,0.0
11281,79.0,48.0,180.0,0.0,0.0
11282,67.0,0.0,180.0,1.0,0.0
11283,58.0,0.0,240.0,2.0,0.0
11284,51.0,96.0,390.0,13.0,0.0
11285,39.0,0.0,390.0,14.0,0.0
11286,73.0,0.0,240.0,1.0,0.0
11287,85.0,144.0,240.0,0.0,0.0
11288,70.0,0.0,240.0,1.0,0.0
11289,55.0,240.0,240.0,2.0,0.0
11290,58.0,0.0,240.0,1.0,0.0
11291,82.0,0.0,240.0,0.0,0.0
11292,56.0,0.0,240.0,2.0,0.0
11293,51.0,0.0,480.0,2.0,0.0
11294,68.0,192.0,240.0,1.0,0.0
11295,60.0,0.0,240.0,1.0,0.0
11296,80.0,0.0,240.0,0.0,0.0
11297,58.0,0.0,240.0,2.0,0.0
11298,61.0,240.0,240.0,1.0,0.0
11299,67.0,48.0,180.0,1.0,0.0
11300,79.0,0.0,180.0,0.0,0.0
11301,48.0,96.0,390.0,13.0,0.0
11302,87.0,144.0,240.0,0.0,0.0
11303,36.0,0.0,390.0,14.0,0.0
11304,75.0,0.0,240.0,1.0,0.0
11305,56.0,0.0,240.0,2.0,0.0
11306,72.0,240.0,240.0,1.0,0.0
11307,84.0,0.0,240.0,0.0,0.0
11308,60.0,0.0,240.0,1.0,0.0
11309,70.0,0.0,240.0,1.0,0.0
11310,82.0,0.0,240.0,0.0,0.0
11311,61.0,0.0,240.0,1.0,0.0
11312,58.0,192.0,240.0,2.0,0.0
11313,48.0,0.0,480.0,2.0,0.0
11314,80.0,0.0,180.0,0.0,0.0
11315,60.0,0.0,240.0,2.0,0.0
11316,68.0,48.0,180.0,1.0,0.0
11317,63.0,240.0,240.0,1.0,0.0
11318,80.0,192.0,780.0,0.0,0.0
11319,63.0,0.0,240.0,7.0,0.0
11320,75.0,144.0,240.0,6.0,0.0
11321,48.0,96.0,390.0,13.0,0.0
11322,36.0,0.0,390.0,14.0,0.0
11323,68.0,0.0,780.0,1.0,0.0
11324,60.0,0.0,240.0,1.0,0.0
11325,60.0,0.0,240.0,7.0,0.0
11326,56.0,0.0,240.0,2.0,0.0
11327,72.0,240.0,240.0,6.0,0.0
11328,48.0,0.0,480.0,2.0,0.0
11329,58.0,0.0,240.0,7.0,0.0
11330,61.0,0.0,240.0,1.0,0.0
11331,70.0,0.0,240.0,6.0,0.0
11332,58.0,48.0,240.0,2.0,0.0
11333,56.0,720.0,240.0,7.0,0.0
11334,63.0,0.0,240.0,1.0,0.0
11335,60.0,0.0,240.0,2.0,0.0
11336,68.0,0.0,15.0,6.0,0.0
11337,51.0,0.0,480.0,7.0,0.0
11338,48.0,96.0,390.0,8.0,0.0
11339,63.0,144.0,480.0,1.0,0.0
11340,68.0,120.0,15.0,6.0,0.0
11341,72.0,0.0,120.0,6.0,0.0
11342,70.0,216.0,150.0,6.0,0.0
11343,52.0,144.0,480.0,7.0,0.0
11344,64.0,0.0,480.0,1.0,0.0
11345,49.0,72.0,780.0,8.0,0.0
11346,70.0,120.0,120.0,6.0,0.0
11347,73.0,0.0,120.0,6.0,0.0
11348,67.0,144.0,150.0,6.0,0.0
11349,63.0,0.0,480.0,1.0,0.0
11350,51.0,120.0,480.0,7.0,0.0
11351,67.0,120.0,120.0,6.0,0.0
11352,70.0,0.0,120.0,6.0,0.0
11353,68.0,480.0,120.0,6.0,0.0
11354,80.0,120.0,480.0,6.0,0.0
11355,60.0,96.0,390.0,7.0,0.0
11356,75.0,0.0,480.0,0.0,0.0
11357,63.0,0.0,480.0,7.0,0.0
11358,82.0,120.0,120.0,6.0,0.0
11359,84.0,24.0,120.0,6.0,0.0
11360,80.0,120.0,120.0,6.0,0.0
11361,76.0,0.0,480.0,0.0,0.0
11362,64.0,0.0,480.0,7.0,0.0
11363,61.0,72.0,780.0,7.0,0.0
11364,82.0,120.0,120.0,6.0,0.0
11365,84.0,120.0,120.0,6.0,0.0
11366,85.0,120.0,120.0,6.0,0.0
11367,82.0,120.0,120.0,6.0,0.0
11368,75.0,0.0,480.0,0.0,0.0
11369,79.0,120.0,120.0,6.0,0.0
11370,80.0,48.0,120.0,6.0,0.0
11371,82.0,120.0,120.0,6.0,0.0
11372,79.0,0.0,120.0,6.0,0.0
11373,63.0,120.0,15.0,7.0,0.0
11374,80.0,120.0,120.0,6.0,0.0
11375,60.0,120.0,480.0,7.0,0.0
11376,84.0,120.0,120.0,6.0,0.0
11377,80.0,120.0,120.0,6.0,0.0
11378,75.0,0.0,120.0,6.0,0.0
11379,61.0,0.0,480.0,7.0,0.0
11380,77.0,120.0,120.0,6.0,0.0
11381,80.0,120.0,120.0,6.0,0.0
11382,77.0,120.0,120.0,6.0,0.0
11383,73.0,120.0,120.0,6.0,0.0
11384,72.0,120.0,120.0,6.0,0.0
11385,63.0,120.0,480.0,7.0,0.0
11386,75.0,120.0,120.0,6.0,0.0
11387,72.0,120.0,120.0,6.0,0.0
11388,68.0,0.0,120.0,6.0,0.0
11389,70.0,120.0,120.0,6.0,0.0
11390,51.0,192.0,480.0,7.0,0.0
11391,73.0,120.0,120.0,6.0,0.0
11392,70.0,120.0,120.0,6.0,0.0
11393,67.0,0.0,120.0,6.0,0.0
11394,68.0,192.0,180.0,6.0,0.0
11395,56.0,288.0,390.0,7.0,0.0
11396,63.0,480.0,180.0,6.0,0.0
11397,68.0,480.0,180.0,6.0,0.0
11398,72.0,480.0,180.0,6.0,0.0
11399,73.0,80.0,720.0,6.0,0.0
11400,58.0,480.0,180.0,7.0,0.0
11401,51.0,48.0,180.0,7.0,0.0
11402,72.0,80.0,90.0,6.0,0.0
11403,70.0,80.0,90.0,6.0,0.0
11404,68.0,192.0,90.0,6.0,0.0
11405,67.0,288.0,390.0,6.0,0.0
11406,58.0,192.0,180.0,7.0,0.0
11407,61.0,408.0,180.0,7.0,0.0
11408,63.0,72.0,120.0,6.0,0.0
11409,68.0,0.0,180.0,10.0,0.0
11410,56.0,48.0,180.0,11.0,0.0
11411,60.0,0.0,720.0,7.0,0.0
11412,68.0,120.0,120.0,6.0,0.0
11413,72.0,120.0,120.0,6.0,0.0
11414,75.0,120.0,120.0,6.0,0.0
11415,63.0,0.0,180.0,10.0,0.0
11416,51.0,48.0,180.0,11.0,0.0
11417,63.0,72.0,120.0,6.0,0.0
11418,75.0,80.0,120.0,6.0,0.0
11419,63.0,40.0,120.0,6.0,0.0
11420,61.0,40.0,90.0,7.0,0.0
11421,60.0,80.0,90.0,7.0,0.0
11422,75.0,120.0,120.0,6.0,0.0
11423,58.0,0.0,90.0,7.0,0.0
11424,68.0,0.0,180.0,10.0,0.0
11425,56.0,48.0,180.0,11.0,0.0
11426,56.0,96.0,390.0,7.0,0.0
11427,63.0,72.0,120.0,6.0,0.0
11428,75.0,120.0,120.0,6.0,0.0
11429,63.0,24.0,120.0,6.0,0.0
11430,75.0,120.0,120.0,6.0,0.0
11431,72.0,48.0,180.0,10.0,0.0
11432,60.0,0.0,180.0,11.0,0.0
11433,63.0,72.0,120.0,6.0,0.0
11434,75.0,120.0,120.0,6.0,0.0
11435,63.0,120.0,120.0,6.0,0.0
11436,75.0,120.0,120.0,6.0,0.0
11437,58.0,0.0,180.0,12.0,0.0
11438,46.0,0.0,180.0,13.0,0.0
11439,63.0,72.0,120.0,6.0,0.0
11440,61.0,0.0,720.0,11.0,0.0
11441,73.0,80.0,720.0,10.0,0.0
11442,34.0,48.0,180.0,14.0,0.0
11443,75.0,120.0,120.0,6.0,0.0
11444,63.0,120.0,120.0,6.0,0.0
11445,75.0,120.0,120.0,6.0,0.0
11446,63.0,72.0,120.0,6.0,0.0
11447,39.0,0.0,180.0,13.0,0.0
11448,51.0,0.0,180.0,12.0,0.0
11449,27.0,48.0,180.0,14.0,0.0
11450,75.0,0.0,120.0,6.0,0.0
11451,60.0,0.0,90.0,11.0,0.0
11452,63.0,40.0,120.0,6.0,0.0
11453,72.0,40.0,90.0,10.0,0.0
11454,58.0,0.0,90.0,11.0,0.0
11455,70.0,80.0,90.0,10.0,0.0
11456,75.0,0.0,120.0,6.0,0.0
11457,56.0,0.0,90.0,11.0,0.0
11458,68.0,120.0,90.0,10.0,0.0
11459,63.0,72.0,120.0,6.0,0.0
11460,55.0,96.0,390.0,11.0,0.0
11461,58.0,48.0,180.0,12.0,0.0
11462,67.0,0.0,390.0,10.0,0.0
11463,46.0,0.0,180.0,13.0,0.0
11464,34.0,0.0,180.0,14.0,0.0
11465,75.0,120.0,120.0,6.0,0.0
11466,63.0,24.0,120.0,6.0,0.0
11467,75.0,120.0,120.0,6.0,0.0
11468,37.0,48.0,180.0,14.0,0.0
11469,63.0,72.0,120.0,6.0,0.0
11470,49.0,0.0,180.0,13.0,0.0
11471,61.0,0.0,180.0,12.0,0.0
11472,75.0,120.0,120.0,6.0,0.0
11473,63.0,120.0,120.0,6.0,0.0
11474,75.0,96.0,120.0,6.0,0.0
11475,36.0,0.0,720.0,14.0,0.0
11476,44.0,0.0,180.0,2.0,0.0
11477,75.0,96.0,90.0,6.0,0.0
11478,80.0,24.0,180.0,0.0,0.0
11479,56.0,0.0,180.0,2.0,0.0
11480,68.0,0.0,180.0,1.0,0.0
11481,60.0,80.0,720.0,12.0,0.0
11482,48.0,0.0,720.0,13.0,0.0
11483,72.0,120.0,90.0,6.0,0.0
11484,68.0,120.0,90.0,6.0,0.0
11485,63.0,120.0,90.0,6.0,0.0
11486,63.0,24.0,180.0,1.0,0.0
11487,39.0,0.0,180.0,2.0,0.0
11488,60.0,96.0,90.0,6.0,0.0
11489,51.0,0.0,180.0,2.0,0.0
11490,75.0,0.0,180.0,0.0,0.0
11491,63.0,24.0,90.0,6.0,0.0
11492,37.0,0.0,90.0,14.0,0.0
11493,61.0,0.0,90.0,12.0,0.0
11494,49.0,16.0,90.0,13.0,0.0
11495,68.0,64.0,90.0,6.0,0.0
11496,60.0,0.0,90.0,12.0,0.0
11497,48.0,56.0,90.0,13.0,0.0
11498,36.0,0.0,90.0,14.0,0.0
11499,72.0,24.0,90.0,6.0,0.0
11500,34.0,0.0,90.0,14.0,0.0
11501,46.0,0.0,90.0,13.0,0.0
11502,58.0,96.0,90.0,12.0,0.0
11503,56.0,24.0,180.0,2.0,0.0
11504,56.0,0.0,390.0,12.0,0.0
11505,80.0,0.0,180.0,0.0,0.0
11506,44.0,0.0,390.0,13.0,0.0
11507,68.0,0.0,180.0,1.0,0.0
11508,75.0,96.0,90.0,6.0,0.0
11509,32.0,72.0,390.0,14.0,0.0
11510,44.0,0.0,180.0,2.0,0.0
11511,72.0,120.0,90.0,6.0,0.0
11512,68.0,48.0,90.0,6.0,0.0
11513,63.0,120.0,90.0,6.0,0.0
11514,72.0,0.0,180.0,1.0,0.0
11515,84.0,0.0,180.0,0.0,0.0
11516,60.0,96.0,90.0,6.0,0.0
11517,60.0,24.0,180.0,2.0,0.0
11518,48.0,0.0,180.0,2.0,0.0
11519,63.0,120.0,90.0,6.0,0.0
11520,68.0,120.0,90.0,6.0,0.0
11521,72.0,144.0,90.0,6.0,0.0
11522,75.0,0.0,120.0,6.0,0.0
11523,37.0,72.0,120.0,7.0,0.0
11524,49.0,0.0,180.0,13.0,0.0
11525,37.0,48.0,180.0,14.0,0.0
11526,61.0,0.0,180.0,12.0,0.0
11527,56.0,0.0,720.0,2.0,0.0
11528,77.0,38.0,3810.0,1.0,0.0
11529,72.0,0.0,120.0,6.0,0.0
11530,49.0,120.0,120.0,7.0,0.0
11531,68.0,120.0,120.0,6.0,0.0
11532,48.0,0.0,120.0,7.0,0.0
11533,49.0,0.0,120.0,7.0,0.0
11534,65.0,120.0,120.0,6.0,0.0
11535,41.0,0.0,120.0,7.0,0.0
11536,56.0,0.0,180.0,12.0,0.0
11537,32.0,48.0,180.0,14.0,0.0
11538,64.0,72.0,120.0,6.0,0.0
11539,44.0,0.0,180.0,13.0,0.0
11540,65.0,80.0,120.0,6.0,0.0
11541,53.0,0.0,120.0,7.0,0.0
11542,55.0,40.0,90.0,2.0,0.0
11543,52.0,40.0,120.0,7.0,0.0
11544,68.0,0.0,120.0,6.0,0.0
11545,53.0,80.0,90.0,2.0,0.0
11546,72.0,0.0,120.0,6.0,0.0
11547,53.0,120.0,120.0,7.0,0.0
11548,51.0,0.0,90.0,2.0,0.0
11549,49.0,96.0,390.0,2.0,0.0
11550,61.0,0.0,180.0,12.0,0.0
11551,37.0,48.0,180.0,14.0,0.0
11552,44.0,0.0,120.0,7.0,0.0
11553,75.0,72.0,120.0,6.0,0.0
11554,49.0,0.0,180.0,13.0,0.0
11555,56.0,120.0,120.0,7.0,0.0
11556,72.0,0.0,120.0,6.0,0.0
11557,68.0,0.0,120.0,6.0,0.0
11558,55.0,24.0,120.0,7.0,0.0
11559,56.0,120.0,120.0,7.0,0.0
11560,65.0,0.0,120.0,6.0,0.0
11561,53.0,48.0,180.0,13.0,0.0
11562,41.0,0.0,180.0,14.0,0.0
11563,65.0,0.0,180.0,12.0,0.0
11564,49.0,0.0,120.0,7.0,0.0
11565,64.0,72.0,120.0,6.0,0.0
11566,65.0,120.0,120.0,6.0,0.0
11567,61.0,0.0,120.0,7.0,0.0
11568,60.0,120.0,120.0,7.0,0.0
11569,68.0,0.0,120.0,6.0,0.0
11570,61.0,0.0,120.0,7.0,0.0
11571,72.0,120.0,120.0,6.0,0.0
11572,67.0,0.0,180.0,11.0,0.0
11573,73.0,0.0,120.0,6.0,0.0
11574,70.0,38.0,3810.0,1.0,0.0
11575,85.0,0.0,3840.0,0.0,0.0
11576,61.0,0.0,720.0,2.0,0.0
11577,43.0,72.0,120.0,7.0,0.0
11578,79.0,48.0,180.0,10.0,0.0
11579,55.0,0.0,120.0,7.0,0.0
11580,70.0,120.0,120.0,6.0,0.0
11581,54.0,120.0,120.0,7.0,0.0
11582,67.0,0.0,120.0,6.0,0.0
11583,65.0,120.0,120.0,6.0,0.0
11584,55.0,0.0,120.0,7.0,0.0
11585,64.0,72.0,120.0,6.0,0.0
11586,73.0,0.0,180.0,10.0,0.0
11587,61.0,48.0,180.0,11.0,0.0
11588,37.0,0.0,120.0,7.0,0.0
11589,49.0,80.0,120.0,7.0,0.0
11590,65.0,0.0,120.0,6.0,0.0
11591,60.0,40.0,90.0,2.0,0.0
11592,67.0,0.0,120.0,6.0,0.0
11593,48.0,40.0,120.0,7.0,0.0
11594,58.0,80.0,90.0,2.0,0.0
11595,70.0,120.0,120.0,6.0,0.0
11596,49.0,0.0,120.0,7.0,0.0
11597,56.0,0.0,90.0,2.0,0.0
11598,34.0,0.0,120.0,7.0,0.0
11599,73.0,72.0,120.0,6.0,0.0
11600,67.0,0.0,180.0,11.0,0.0
11601,79.0,48.0,180.0,10.0,0.0
11602,55.0,96.0,390.0,2.0,0.0
11603,70.0,120.0,120.0,6.0,0.0
11604,46.0,0.0,120.0,7.0,0.0
11605,67.0,24.0,120.0,6.0,0.0
11606,45.0,0.0,120.0,7.0,0.0
11607,46.0,120.0,120.0,7.0,0.0
11608,65.0,0.0,120.0,6.0,0.0
11609,64.0,0.0,120.0,6.0,0.0
11610,31.0,72.0,120.0,7.0,0.0
11611,82.0,0.0,180.0,10.0,0.0
11612,70.0,48.0,180.0,11.0,0.0
11613,65.0,120.0,120.0,6.0,0.0
11614,43.0,0.0,120.0,7.0,0.0
11615,67.0,82.0,120.0,6.0,0.0
11616,42.0,0.0,120.0,7.0,0.0
11617,43.0,120.0,120.0,7.0,0.0
11618,70.0,0.0,120.0,6.0,0.0
11619,55.0,0.0,720.0,2.0,0.0
11620,36.0,48.0,180.0,14.0,0.0
11621,73.0,72.0,120.0,6.0,0.0
11622,36.0,0.0,120.0,7.0,0.0
11623,60.0,0.0,180.0,12.0,0.0
11624,48.0,0.0,180.0,13.0,0.0
11625,75.0,38.0,3810.0,1.0,0.0
11626,48.0,120.0,120.0,7.0,0.0
11627,70.0,0.0,120.0,6.0,0.0
11628,67.0,120.0,120.0,6.0,0.0
11629,47.0,0.0,120.0,7.0,0.0
11630,48.0,120.0,120.0,7.0,0.0
11631,63.0,0.0,120.0,6.0,0.0
11632,31.0,48.0,180.0,14.0,0.0
11633,39.0,72.0,120.0,7.0,0.0
11634,43.0,0.0,180.0,13.0,0.0
11635,55.0,0.0,180.0,12.0,0.0
11636,62.0,0.0,120.0,6.0,0.0
11637,63.0,80.0,120.0,6.0,0.0
11638,51.0,0.0,120.0,7.0,0.0
11639,67.0,40.0,120.0,6.0,0.0
11640,50.0,0.0,120.0,7.0,0.0
11641,53.0,40.0,90.0,2.0,0.0
11642,51.0,80.0,90.0,2.0,0.0
11643,51.0,0.0,120.0,7.0,0.0
11644,70.0,120.0,120.0,6.0,0.0
11645,49.0,0.0,90.0,2.0,0.0
11646,48.0,96.0,390.0,2.0,0.0
11647,48.0,0.0,180.0,13.0,0.0
11648,73.0,0.0,120.0,6.0,0.0
11649,60.0,48.0,180.0,12.0,0.0
11650,36.0,0.0,180.0,14.0,0.0
11651,43.0,72.0,120.0,7.0,0.0
11652,70.0,0.0,120.0,6.0,0.0
11653,55.0,120.0,120.0,7.0,0.0
11654,54.0,0.0,120.0,7.0,0.0
11655,67.0,24.0,120.0,6.0,0.0
11656,55.0,0.0,120.0,7.0,0.0
11657,63.0,120.0,120.0,6.0,0.0
11658,39.0,0.0,180.0,14.0,0.0
11659,51.0,0.0,180.0,13.0,0.0
11660,63.0,48.0,180.0,12.0,0.0
11661,48.0,72.0,120.0,7.0,0.0
11662,62.0,0.0,120.0,6.0,0.0
11663,63.0,0.0,120.0,6.0,0.0
11664,60.0,120.0,120.0,7.0,0.0
11665,67.0,0.0,120.0,6.0,0.0
11666,59.0,82.0,120.0,7.0,0.0
11667,60.0,120.0,120.0,7.0,0.0
11668,70.0,0.0,120.0,6.0,0.0
11669,68.0,38.0,3810.0,1.0,0.0
11670,60.0,0.0,720.0,2.0,0.0
11671,65.0,0.0,180.0,11.0,0.0
11672,84.0,72.0,120.0,6.0,0.0
11673,53.0,0.0,120.0,7.0,0.0
11674,77.0,48.0,180.0,10.0,0.0
11675,84.0,0.0,3840.0,0.0,0.0
11676,80.0,120.0,120.0,6.0,0.0
11677,65.0,0.0,120.0,7.0,0.0
11678,64.0,120.0,120.0,7.0,0.0
11679,77.0,0.0,120.0,6.0,0.0
11680,65.0,0.0,120.0,7.0,0.0
11681,75.0,120.0,120.0,6.0,0.0
11682,48.0,72.0,120.0,7.0,0.0
11683,72.0,0.0,180.0,10.0,0.0
11684,60.0,48.0,180.0,11.0,0.0
11685,74.0,0.0,120.0,6.0,0.0
11686,60.0,0.0,120.0,7.0,0.0
11687,75.0,80.0,120.0,6.0,0.0
11688,59.0,40.0,120.0,7.0,0.0
11689,77.0,0.0,120.0,6.0,0.0
11690,58.0,40.0,90.0,2.0,0.0
11691,56.0,80.0,90.0,2.0,0.0
11692,80.0,0.0,120.0,6.0,0.0
11693,60.0,120.0,120.0,7.0,0.0
11694,55.0,0.0,90.0,2.0,0.0
11695,84.0,72.0,120.0,6.0,0.0
11696,65.0,0.0,180.0,11.0,0.0
11697,77.0,48.0,180.0,10.0,0.0
11698,53.0,96.0,390.0,2.0,0.0
11699,44.0,0.0,120.0,7.0,0.0
11700,56.0,0.0,120.0,7.0,0.0
11701,80.0,120.0,120.0,6.0,0.0
11702,77.0,24.0,120.0,6.0,0.0
11703,55.0,0.0,120.0,7.0,0.0
11704,75.0,0.0,120.0,6.0,0.0
11705,56.0,120.0,120.0,7.0,0.0
11706,80.0,48.0,180.0,10.0,0.0
11707,74.0,72.0,120.0,6.0,0.0
11708,68.0,0.0,180.0,11.0,0.0
11709,41.0,0.0,120.0,7.0,0.0
11710,53.0,120.0,120.0,7.0,0.0
11711,75.0,0.0,120.0,6.0,0.0
11712,52.0,0.0,120.0,7.0,0.0
11713,77.0,82.0,120.0,6.0,0.0
11714,80.0,0.0,120.0,6.0,0.0
11715,53.0,120.0,120.0,7.0,0.0
11716,84.0,72.0,120.0,6.0,0.0
11717,53.0,0.0,720.0,2.0,0.0
11718,46.0,0.0,120.0,7.0,0.0
11719,34.0,0.0,180.0,14.0,0.0
11720,46.0,0.0,180.0,13.0,0.0
11721,58.0,48.0,180.0,12.0,0.0
11722,73.0,38.0,3810.0,1.0,0.0
11723,58.0,0.0,120.0,7.0,0.0
11724,80.0,120.0,120.0,6.0,0.0
11725,57.0,0.0,120.0,7.0,0.0
11726,77.0,120.0,120.0,6.0,0.0
11727,58.0,120.0,120.0,7.0,0.0
11728,73.0,0.0,120.0,6.0,0.0
11729,29.0,48.0,180.0,14.0,0.0
11730,53.0,0.0,180.0,12.0,0.0
11731,49.0,72.0,120.0,7.0,0.0
11732,41.0,0.0,180.0,13.0,0.0
11733,72.0,0.0,120.0,6.0,0.0
11734,73.0,80.0,120.0,6.0,0.0
11735,61.0,0.0,120.0,7.0,0.0
11736,60.0,40.0,120.0,7.0,0.0
11737,51.0,40.0,90.0,2.0,0.0
11738,77.0,0.0,120.0,6.0,0.0
11739,49.0,80.0,90.0,2.0,0.0
11740,61.0,0.0,120.0,7.0,0.0
11741,80.0,0.0,120.0,6.0,0.0
11742,48.0,120.0,90.0,2.0,0.0
11743,46.0,48.0,180.0,13.0,0.0
11744,58.0,0.0,180.0,12.0,0.0
11745,46.0,96.0,390.0,2.0,0.0
11746,84.0,72.0,120.0,6.0,0.0
11747,53.0,0.0,120.0,7.0,0.0
11748,34.0,0.0,180.0,14.0,0.0
11749,80.0,0.0,120.0,6.0,0.0
11750,65.0,120.0,120.0,7.0,0.0
11751,64.0,24.0,120.0,7.0,0.0
11752,77.0,0.0,120.0,6.0,0.0
11753,73.0,0.0,120.0,6.0,0.0
11754,65.0,120.0,120.0,7.0,0.0
11755,56.0,0.0,120.0,7.0,0.0
11756,61.0,0.0,180.0,12.0,0.0
11757,72.0,72.0,120.0,6.0,0.0
11758,49.0,0.0,180.0,13.0,0.0
11759,37.0,48.0,180.0,14.0,0.0
11760,70.0,0.0,120.0,7.0,0.0
11761,73.0,120.0,120.0,6.0,0.0
11762,69.0,82.0,120.0,7.0,0.0
11763,77.0,0.0,120.0,6.0,0.0
11764,80.0,0.0,120.0,6.0,0.0
11765,70.0,120.0,120.0,7.0,0.0
11766,51.0,72.0,120.0,7.0,0.0
11767,63.0,0.0,180.0,11.0,0.0
11768,75.0,48.0,180.0,10.0,0.0
11769,82.0,0.0,1920.0,0.0,0.0
11770,58.0,0.0,720.0,2.0,0.0
11771,67.0,0.0,1890.0,1.0,0.0
11772,82.0,0.0,120.0,6.0,0.0
11773,79.0,0.0,120.0,6.0,0.0
11774,63.0,120.0,120.0,7.0,0.0
11775,75.0,0.0,120.0,6.0,0.0
11776,62.0,120.0,120.0,7.0,0.0
11777,73.0,0.0,120.0,6.0,0.0
11778,63.0,120.0,120.0,7.0,0.0
11779,46.0,0.0,120.0,7.0,0.0
11780,72.0,72.0,120.0,6.0,0.0
11781,70.0,48.0,180.0,10.0,0.0
11782,58.0,0.0,180.0,11.0,0.0
11783,73.0,0.0,120.0,6.0,0.0
11784,58.0,80.0,120.0,7.0,0.0
11785,75.0,40.0,120.0,6.0,0.0
11786,56.0,40.0,90.0,2.0,0.0
11787,57.0,0.0,120.0,7.0,0.0
11788,55.0,80.0,90.0,2.0,0.0
11789,79.0,0.0,120.0,6.0,0.0
11790,58.0,0.0,120.0,7.0,0.0
11791,53.0,120.0,90.0,2.0,0.0
11792,75.0,48.0,180.0,10.0,0.0
11793,82.0,0.0,120.0,6.0,0.0
11794,51.0,96.0,390.0,2.0,0.0
11795,63.0,0.0,180.0,11.0,0.0
11796,43.0,72.0,120.0,7.0,0.0
11797,79.0,120.0,120.0,6.0,0.0
11798,55.0,0.0,120.0,7.0,0.0
11799,54.0,0.0,120.0,7.0,0.0
11800,75.0,24.0,120.0,6.0,0.0
11801,73.0,120.0,120.0,6.0,0.0
11802,55.0,0.0,120.0,7.0,0.0
11803,79.0,0.0,180.0,10.0,0.0
11804,72.0,0.0,120.0,6.0,0.0
11805,67.0,48.0,180.0,11.0,0.0
11806,39.0,72.0,120.0,7.0,0.0
11807,73.0,120.0,120.0,6.0,0.0
11808,51.0,0.0,120.0,7.0,0.0
11809,75.0,82.0,120.0,6.0,0.0
11810,50.0,0.0,120.0,7.0,0.0
11811,51.0,0.0,120.0,7.0,0.0
11812,79.0,120.0,120.0,6.0,0.0
11813,68.0,0.0,390.0,1.0,0.0
11814,72.0,0.0,390.0,1.0,0.0
11815,56.0,120.0,120.0,7.0,0.0
11816,68.0,0.0,390.0,11.0,0.0
11817,80.0,0.0,390.0,10.0,0.0
11818,84.0,0.0,120.0,6.0,0.0
11819,80.0,96.0,390.0,0.0,0.0
11820,80.0,120.0,120.0,6.0,0.0
11821,60.0,0.0,120.0,7.0,0.0
11822,75.0,0.0,120.0,6.0,0.0
11823,63.0,24.0,120.0,7.0,0.0
11824,72.0,120.0,120.0,6.0,0.0
11825,68.0,0.0,120.0,7.0,0.0
11826,71.0,0.0,120.0,6.0,0.0
11827,67.0,120.0,120.0,7.0,0.0
11828,72.0,0.0,120.0,6.0,0.0
11829,68.0,120.0,120.0,7.0,0.0
11830,75.0,0.0,120.0,6.0,0.0
11831,63.0,120.0,120.0,7.0,0.0
11832,80.0,0.0,120.0,6.0,0.0
11833,60.0,120.0,120.0,7.0,0.0
11834,84.0,0.0,120.0,6.0,0.0
11835,56.0,120.0,120.0,7.0,0.0
11836,80.0,120.0,120.0,6.0,0.0
11837,60.0,0.0,120.0,7.0,0.0
11838,63.0,0.0,120.0,7.0,0.0
11839,75.0,120.0,120.0,6.0,0.0
11840,72.0,120.0,120.0,6.0,0.0
11841,68.0,0.0,120.0,7.0,0.0
11842,63.0,0.0,150.0,11.0,0.0
11843,56.0,0.0,120.0,7.0,0.0
11844,84.0,24.0,120.0,6.0,0.0
11845,56.0,96.0,150.0,13.0,0.0
11846,44.0,0.0,150.0,14.0,0.0
11847,56.0,0.0,150.0,12.0,0.0
11848,72.0,0.0,150.0,10.0,0.0
11849,68.0,120.0,120.0,7.0,0.0
11850,72.0,0.0,120.0,6.0,0.0
11851,63.0,0.0,150.0,11.0,0.0
11852,43.0,0.0,150.0,14.0,0.0
11853,58.0,96.0,150.0,12.0,0.0
11854,82.0,24.0,120.0,6.0,0.0
11855,70.0,0.0,150.0,10.0,0.0
11856,55.0,0.0,150.0,13.0,0.0
11857,55.0,0.0,120.0,7.0,0.0
11858,70.0,120.0,120.0,6.0,0.0
11859,67.0,0.0,120.0,7.0,0.0
11860,65.0,96.0,390.0,11.0,0.0
11861,53.0,0.0,390.0,13.0,0.0
11862,80.0,120.0,120.0,6.0,0.0
11863,41.0,0.0,390.0,14.0,0.0
11864,53.0,0.0,120.0,7.0,0.0
11865,60.0,0.0,390.0,12.0,0.0
11866,68.0,0.0,390.0,10.0,0.0
11867,77.0,120.0,120.0,6.0,0.0
11868,56.0,0.0,120.0,7.0,0.0
11869,72.0,0.0,120.0,6.0,0.0
11870,60.0,24.0,120.0,7.0,0.0
11871,68.0,120.0,120.0,6.0,0.0
11872,65.0,0.0,120.0,7.0,0.0
11873,64.0,0.0,120.0,7.0,0.0
11874,67.0,120.0,120.0,6.0,0.0
11875,68.0,0.0,120.0,6.0,0.0
11876,65.0,120.0,120.0,7.0,0.0
11877,60.0,120.0,120.0,7.0,0.0
11878,72.0,0.0,120.0,6.0,0.0
11879,77.0,0.0,120.0,6.0,0.0
11880,56.0,120.0,120.0,7.0,0.0
11881,80.0,0.0,120.0,6.0,0.0
11882,53.0,120.0,120.0,7.0,0.0
11883,56.0,120.0,120.0,7.0,0.0
11884,77.0,0.0,120.0,6.0,0.0
11885,72.0,0.0,120.0,6.0,0.0
11886,60.0,120.0,120.0,7.0,0.0
11887,68.0,120.0,120.0,6.0,0.0
11888,65.0,0.0,120.0,7.0,0.0
11889,53.0,0.0,120.0,7.0,0.0
11890,80.0,0.0,150.0,10.0,0.0
11891,72.0,0.0,150.0,11.0,0.0
11892,65.0,0.0,150.0,12.0,0.0
11893,53.0,96.0,150.0,13.0,0.0
11894,41.0,0.0,150.0,14.0,0.0
11895,80.0,24.0,120.0,6.0,0.0
11896,65.0,120.0,120.0,7.0,0.0
11897,68.0,0.0,120.0,6.0,0.0
11898,51.0,0.0,150.0,13.0,0.0
11899,79.0,0.0,120.0,6.0,0.0
11900,79.0,0.0,150.0,10.0,0.0
11901,51.0,24.0,120.0,7.0,0.0
11902,67.0,0.0,150.0,12.0,0.0
11903,39.0,0.0,150.0,14.0,0.0
11904,72.0,96.0,150.0,11.0,0.0
11905,67.0,120.0,120.0,6.0,0.0
11906,63.0,0.0,120.0,7.0,0.0
11907,49.0,0.0,390.0,13.0,0.0
11908,77.0,96.0,390.0,10.0,0.0
11909,68.0,0.0,390.0,12.0,0.0
11910,49.0,120.0,120.0,7.0,0.0
11911,73.0,0.0,390.0,11.0,0.0
11912,37.0,0.0,390.0,14.0,0.0
11913,77.0,0.0,120.0,6.0,0.0
11914,53.0,0.0,120.0,7.0,0.0
11915,73.0,120.0,120.0,6.0,0.0
11916,56.0,0.0,120.0,7.0,0.0
11917,68.0,24.0,120.0,6.0,0.0
11918,61.0,120.0,120.0,7.0,0.0
11919,65.0,0.0,120.0,6.0,0.0
11920,60.0,120.0,120.0,7.0,0.0
11921,64.0,0.0,120.0,6.0,0.0
11922,65.0,0.0,120.0,6.0,0.0
11923,61.0,120.0,120.0,7.0,0.0
11924,68.0,0.0,120.0,6.0,0.0
11925,56.0,120.0,120.0,7.0,0.0
11926,53.0,120.0,120.0,7.0,0.0
11927,73.0,0.0,120.0,6.0,0.0
11928,49.0,120.0,120.0,7.0,0.0
11929,77.0,0.0,120.0,6.0,0.0
11930,73.0,120.0,120.0,6.0,0.0
11931,53.0,0.0,120.0,7.0,0.0
11932,68.0,0.0,120.0,6.0,0.0
11933,56.0,120.0,120.0,7.0,0.0
11934,61.0,120.0,120.0,7.0,0.0
11935,65.0,0.0,120.0,6.0,0.0
11936,49.0,96.0,150.0,14.0,0.0
11937,61.0,0.0,150.0,13.0,0.0
11938,61.0,0.0,150.0,12.0,0.0
11939,49.0,0.0,120.0,7.0,0.0
11940,68.0,0.0,150.0,11.0,0.0
11941,77.0,0.0,150.0,10.0,0.0
11942,77.0,24.0,120.0,6.0,0.0
11943,61.0,120.0,120.0,7.0,0.0
11944,65.0,0.0,120.0,6.0,0.0
11945,48.0,0.0,150.0,14.0,0.0
11946,60.0,96.0,150.0,13.0,0.0
11947,75.0,0.0,150.0,10.0,0.0
11948,68.0,0.0,150.0,11.0,0.0
11949,63.0,0.0,150.0,12.0,0.0
11950,75.0,24.0,120.0,6.0,0.0
11951,48.0,0.0,120.0,7.0,0.0
11952,63.0,120.0,120.0,6.0,0.0
11953,60.0,0.0,120.0,7.0,0.0
11954,70.0,0.0,300.0,11.0,0.0
11955,73.0,0.0,300.0,10.0,0.0
11956,58.0,0.0,300.0,13.0,0.0
11957,73.0,120.0,120.0,6.0,0.0
11958,46.0,72.0,300.0,14.0,0.0
11959,65.0,0.0,300.0,12.0,0.0
11960,46.0,0.0,120.0,7.0,0.0
11961,70.0,0.0,120.0,6.0,0.0
11962,49.0,48.0,120.0,7.0,0.0
11963,65.0,120.0,120.0,6.0,0.0
11964,53.0,0.0,120.0,7.0,0.0
11965,61.0,0.0,120.0,6.0,0.0
11966,58.0,120.0,120.0,7.0,0.0
11967,46.0,0.0,120.0,7.0,0.0
11968,73.0,24.0,120.0,6.0,0.0
11969,58.0,0.0,150.0,12.0,0.0
11970,58.0,0.0,150.0,13.0,0.0
11971,73.0,96.0,150.0,10.0,0.0
11972,65.0,0.0,150.0,11.0,0.0
11973,46.0,0.0,150.0,14.0,0.0
11974,61.0,0.0,120.0,6.0,0.0
11975,58.0,120.0,120.0,7.0,0.0
11976,44.0,0.0,150.0,14.0,0.0
11977,72.0,0.0,120.0,6.0,0.0
11978,65.0,0.0,150.0,11.0,0.0
11979,44.0,24.0,120.0,7.0,0.0
11980,56.0,0.0,150.0,13.0,0.0
11981,72.0,0.0,150.0,10.0,0.0
11982,60.0,96.0,150.0,12.0,0.0
11983,60.0,0.0,120.0,6.0,0.0
11984,56.0,120.0,120.0,7.0,0.0
11985,55.0,0.0,300.0,13.0,0.0
11986,43.0,0.0,120.0,7.0,0.0
11987,43.0,72.0,300.0,14.0,0.0
11988,67.0,0.0,300.0,11.0,0.0
11989,70.0,0.0,300.0,10.0,0.0
11990,61.0,0.0,300.0,12.0,0.0
11991,70.0,120.0,120.0,6.0,0.0
11992,46.0,0.0,120.0,7.0,0.0
11993,67.0,48.0,120.0,6.0,0.0
11994,49.0,120.0,120.0,7.0,0.0
11995,61.0,0.0,120.0,6.0,0.0
11996,58.0,0.0,120.0,6.0,0.0
11997,55.0,120.0,120.0,7.0,0.0
11998,70.0,24.0,120.0,6.0,0.0
11999,55.0,0.0,150.0,13.0,0.0
12000,70.0,0.0,150.0,10.0,0.0
12001,43.0,96.0,150.0,14.0,0.0
12002,43.0,0.0,120.0,7.0,0.0
12003,55.0,0.0,150.0,12.0,0.0
12004,61.0,0.0,150.0,11.0,0.0
12005,55.0,120.0,120.0,7.0,0.0
12006,58.0,0.0,120.0,6.0,0.0
12007,53.0,0.0,150.0,13.0,0.0
12008,68.0,0.0,150.0,10.0,0.0
12009,56.0,0.0,150.0,12.0,0.0
12010,41.0,96.0,150.0,14.0,0.0
12011,68.0,0.0,120.0,6.0,0.0
12012,61.0,0.0,150.0,11.0,0.0
12013,41.0,24.0,120.0,7.0,0.0
12014,53.0,0.0,120.0,7.0,0.0
12015,56.0,120.0,120.0,6.0,0.0
12016,39.0,0.0,720.0,14.0,0.0
12017,51.0,0.0,720.0,7.0,0.0
12018,58.0,0.0,4230.0,12.0,0.0
12019,61.0,0.0,4230.0,11.0,0.0
12020,67.0,0.0,720.0,10.0,0.0
12021,39.0,0.0,720.0,7.0,0.0
12022,67.0,120.0,120.0,6.0,0.0
12023,51.0,0.0,720.0,13.0,0.0
12024,73.0,120.0,120.0,6.0,0.0
12025,70.0,120.0,120.0,6.0,0.0
12026,67.0,120.0,120.0,6.0,0.0
12027,63.0,120.0,120.0,6.0,0.0
12028,73.0,120.0,120.0,6.0,0.0
12029,40.0,0.0,240.0,14.0,0.0
12030,40.0,0.0,240.0,7.0,0.0
12031,52.0,120.0,240.0,13.0,0.0
12032,68.0,0.0,240.0,10.0,0.0
12033,64.0,120.0,120.0,6.0,0.0
12034,52.0,0.0,240.0,7.0,0.0
12035,73.0,0.0,120.0,6.0,0.0
12036,39.0,0.0,240.0,7.0,0.0
12037,63.0,120.0,120.0,6.0,0.0
12038,39.0,120.0,240.0,14.0,0.0
12039,67.0,0.0,240.0,10.0,0.0
12040,51.0,0.0,240.0,7.0,0.0
12041,51.0,0.0,240.0,13.0,0.0
12042,73.0,0.0,120.0,6.0,0.0
12043,68.0,0.0,240.0,10.0,0.0
12044,52.0,0.0,240.0,13.0,0.0
12045,64.0,120.0,120.0,6.0,0.0
12046,40.0,0.0,240.0,7.0,0.0
12047,52.0,0.0,240.0,7.0,0.0
12048,40.0,120.0,240.0,14.0,0.0
12049,73.0,0.0,120.0,6.0,0.0
12050,67.0,120.0,240.0,10.0,0.0
12051,63.0,120.0,120.0,6.0,0.0
12052,51.0,0.0,240.0,13.0,0.0
12053,39.0,0.0,240.0,14.0,0.0
12054,39.0,0.0,240.0,7.0,0.0
12055,51.0,0.0,240.0,7.0,0.0
12056,73.0,0.0,120.0,6.0,0.0
12057,40.0,0.0,240.0,7.0,0.0
12058,64.0,120.0,120.0,6.0,0.0
12059,40.0,0.0,240.0,14.0,0.0
12060,68.0,0.0,240.0,10.0,0.0
12061,52.0,0.0,240.0,7.0,0.0
12062,52.0,120.0,240.0,13.0,0.0
12063,73.0,0.0,120.0,6.0,0.0
12064,39.0,0.0,720.0,14.0,0.0
12065,39.0,0.0,720.0,7.0,0.0
12066,51.0,0.0,720.0,7.0,0.0
12067,67.0,0.0,720.0,10.0,0.0
12068,51.0,120.0,720.0,13.0,0.0
12069,67.0,120.0,120.0,6.0,0.0
12070,73.0,120.0,120.0,6.0,0.0
12071,70.0,120.0,120.0,6.0,0.0
12072,67.0,120.0,120.0,6.0,0.0
12073,63.0,120.0,120.0,6.0,0.0
12074,73.0,0.0,120.0,6.0,0.0
12075,40.0,120.0,240.0,14.0,0.0
12076,40.0,0.0,240.0,7.0,0.0
12077,52.0,0.0,240.0,7.0,0.0
12078,64.0,120.0,120.0,6.0,0.0
12079,52.0,0.0,240.0,13.0,0.0
12080,68.0,0.0,240.0,10.0,0.0
12081,73.0,0.0,120.0,6.0,0.0
12082,39.0,0.0,240.0,7.0,0.0
12083,51.0,0.0,240.0,7.0,0.0
12084,51.0,120.0,240.0,13.0,0.0
12085,67.0,0.0,240.0,10.0,0.0
12086,39.0,0.0,240.0,14.0,0.0
12087,63.0,120.0,120.0,6.0,0.0
12088,73.0,0.0,120.0,6.0,0.0
12089,64.0,120.0,120.0,6.0,0.0
12090,52.0,120.0,240.0,7.0,0.0
12091,40.0,0.0,240.0,7.0,0.0
12092,68.0,0.0,240.0,10.0,0.0
12093,52.0,0.0,240.0,13.0,0.0
12094,40.0,0.0,240.0,14.0,0.0
12095,73.0,0.0,120.0,6.0,0.0
12096,63.0,120.0,120.0,6.0,0.0
12097,39.0,0.0,240.0,14.0,0.0
12098,51.0,0.0,240.0,13.0,0.0
12099,67.0,120.0,240.0,10.0,0.0
12100,51.0,0.0,240.0,7.0,0.0
12101,39.0,0.0,240.0,7.0,0.0
12102,73.0,0.0,120.0,6.0,0.0
12103,40.0,0.0,240.0,7.0,0.0
12104,52.0,0.0,240.0,7.0,0.0
12105,64.0,120.0,120.0,6.0,0.0
12106,40.0,96.0,240.0,14.0,0.0
12107,52.0,0.0,240.0,13.0,0.0
12108,68.0,0.0,240.0,10.0,0.0
12109,73.0,0.0,120.0,6.0,0.0
12110,51.0,0.0,240.0,7.0,0.0
12111,39.0,120.0,240.0,7.0,0.0
12112,39.0,0.0,390.0,14.0,0.0
12113,67.0,96.0,390.0,10.0,0.0
12114,51.0,0.0,390.0,13.0,0.0
12115,63.0,144.0,90.0,6.0,0.0
12116,73.0,0.0,120.0,6.0,0.0
12117,62.0,24.0,120.0,6.0,0.0
12118,50.0,0.0,240.0,7.0,0.0
12119,38.0,120.0,240.0,7.0,0.0
12120,73.0,0.0,120.0,6.0,0.0
12121,51.0,0.0,240.0,7.0,0.0
12122,39.0,120.0,240.0,7.0,0.0
12123,63.0,120.0,120.0,6.0,0.0
12124,73.0,0.0,120.0,6.0,0.0
12125,64.0,120.0,120.0,6.0,0.0
12126,52.0,120.0,240.0,7.0,0.0
12127,40.0,0.0,240.0,7.0,0.0
12128,73.0,0.0,120.0,6.0,0.0
12129,53.0,0.0,240.0,7.0,0.0
12130,65.0,120.0,120.0,6.0,0.0
12131,41.0,120.0,240.0,7.0,0.0
12132,73.0,0.0,120.0,6.0,0.0
12133,42.0,120.0,240.0,7.0,0.0
12134,54.0,0.0,240.0,7.0,0.0
12135,66.0,120.0,120.0,6.0,0.0
12136,73.0,0.0,120.0,6.0,0.0
12137,43.0,0.0,240.0,7.0,0.0
12138,67.0,120.0,120.0,6.0,0.0
12139,55.0,0.0,240.0,7.0,0.0
12140,73.0,120.0,120.0,6.0,0.0
12141,44.0,0.0,240.0,7.0,0.0
12142,56.0,0.0,240.0,7.0,0.0
12143,68.0,120.0,120.0,6.0,0.0
12144,73.0,120.0,120.0,6.0,0.0
12145,45.0,0.0,240.0,7.0,0.0
12146,57.0,0.0,240.0,7.0,0.0
12147,69.0,120.0,120.0,6.0,0.0
12148,73.0,120.0,120.0,6.0,0.0
12149,58.0,0.0,240.0,7.0,0.0
12150,46.0,0.0,240.0,7.0,0.0
12151,70.0,120.0,120.0,6.0,0.0
12152,73.0,120.0,120.0,6.0,0.0
12153,69.0,120.0,120.0,6.0,0.0
12154,57.0,0.0,240.0,7.0,0.0
12155,45.0,0.0,240.0,7.0,0.0
12156,73.0,120.0,120.0,6.0,0.0
12157,44.0,0.0,240.0,7.0,0.0
12158,56.0,0.0,240.0,7.0,0.0
12159,68.0,120.0,120.0,6.0,0.0
12160,73.0,120.0,120.0,6.0,0.0
12161,43.0,120.0,240.0,7.0,0.0
12162,67.0,120.0,120.0,6.0,0.0
12163,55.0,0.0,240.0,7.0,0.0
12164,73.0,0.0,120.0,6.0,0.0
12165,42.0,120.0,240.0,7.0,0.0
12166,54.0,0.0,240.0,7.0,0.0
12167,66.0,120.0,120.0,6.0,0.0
12168,73.0,0.0,120.0,6.0,0.0
12169,53.0,0.0,240.0,7.0,0.0
12170,65.0,120.0,120.0,6.0,0.0
12171,41.0,0.0,240.0,7.0,0.0
12172,73.0,120.0,120.0,6.0,0.0
12173,40.0,0.0,240.0,7.0,0.0
12174,52.0,120.0,240.0,7.0,0.0
12175,64.0,120.0,120.0,6.0,0.0
12176,73.0,0.0,120.0,6.0,0.0
12177,73.0,120.0,120.0,6.0,0.0
12178,58.0,0.0,720.0,11.0,0.0
12179,61.0,120.0,720.0,10.0,0.0
12180,39.0,96.0,390.0,7.0,0.0
12181,51.0,0.0,390.0,7.0,0.0
12182,39.0,0.0,4230.0,14.0,0.0
12183,51.0,72.0,4230.0,13.0,0.0
12184,63.0,0.0,4230.0,12.0,0.0
12185,70.0,120.0,120.0,6.0,0.0
12186,67.0,24.0,120.0,6.0,0.0
12187,70.0,120.0,120.0,6.0,0.0
12188,73.0,120.0,120.0,6.0,0.0
12189,70.0,0.0,120.0,6.0,0.0
12190,72.0,120.0,120.0,6.0,0.0
12191,60.0,0.0,240.0,10.0,0.0
12192,57.0,120.0,240.0,11.0,0.0
12193,69.0,0.0,120.0,6.0,0.0
12194,61.0,0.0,240.0,10.0,0.0
12195,58.0,120.0,240.0,11.0,0.0
12196,73.0,120.0,120.0,6.0,0.0
12197,70.0,0.0,120.0,6.0,0.0
12198,72.0,120.0,120.0,6.0,0.0
12199,60.0,0.0,240.0,10.0,0.0
12200,57.0,120.0,240.0,11.0,0.0
12201,69.0,0.0,120.0,6.0,0.0
12202,61.0,0.0,240.0,10.0,0.0
12203,73.0,120.0,120.0,6.0,0.0
12204,58.0,0.0,240.0,11.0,0.0
12205,70.0,120.0,120.0,6.0,0.0
12206,60.0,120.0,240.0,10.0,0.0
12207,57.0,0.0,240.0,11.0,0.0
12208,72.0,120.0,120.0,6.0,0.0
12209,69.0,0.0,120.0,6.0,0.0
12210,73.0,120.0,120.0,6.0,0.0
12211,58.0,96.0,390.0,11.0,0.0
12212,61.0,0.0,390.0,10.0,0.0
12213,79.0,120.0,120.0,6.0,0.0
12214,82.0,24.0,120.0,6.0,0.0
12215,79.0,120.0,120.0,6.0,0.0
12216,73.0,0.0,240.0,10.0,0.0
12217,85.0,120.0,120.0,6.0,0.0
12218,70.0,0.0,240.0,11.0,0.0
12219,82.0,120.0,120.0,6.0,0.0
12220,69.0,120.0,240.0,11.0,0.0
12221,84.0,120.0,120.0,6.0,0.0
12222,72.0,0.0,240.0,10.0,0.0
12223,81.0,0.0,120.0,6.0,0.0
12224,70.0,0.0,240.0,11.0,0.0
12225,85.0,120.0,120.0,6.0,0.0
12226,73.0,0.0,240.0,10.0,0.0
12227,82.0,120.0,120.0,6.0,0.0
12228,84.0,120.0,120.0,6.0,0.0
12229,72.0,120.0,240.0,10.0,0.0
12230,69.0,0.0,240.0,11.0,0.0
12231,81.0,0.0,120.0,6.0,0.0
12232,85.0,120.0,120.0,6.0,0.0
12233,70.0,120.0,240.0,11.0,0.0
12234,73.0,0.0,240.0,10.0,0.0
12235,82.0,0.0,120.0,6.0,0.0
12236,72.0,96.0,240.0,10.0,0.0
12237,84.0,120.0,120.0,6.0,0.0
12238,69.0,0.0,240.0,11.0,0.0
12239,81.0,0.0,120.0,6.0,0.0
12240,73.0,84.0,120.0,10.0,0.0
12241,51.0,0.0,3810.0,3.0,0.0
12242,70.0,0.0,120.0,11.0,0.0
12243,85.0,36.0,90.0,6.0,0.0
12244,39.0,14.0,3810.0,3.0,0.0
12245,82.0,120.0,90.0,6.0,0.0
12246,84.0,36.0,90.0,6.0,0.0
12247,68.0,12.0,120.0,11.0,0.0
12248,72.0,0.0,120.0,10.0,0.0
12249,80.0,120.0,90.0,6.0,0.0
12250,70.0,0.0,120.0,10.0,0.0
12251,82.0,36.0,90.0,6.0,0.0
12252,67.0,84.0,120.0,11.0,0.0
12253,79.0,120.0,90.0,6.0,0.0
12254,68.0,0.0,120.0,10.0,0.0
12255,65.0,84.0,120.0,11.0,0.0
12256,80.0,36.0,90.0,6.0,0.0
12257,77.0,120.0,90.0,6.0,0.0
12258,79.0,36.0,90.0,6.0,0.0
12259,67.0,0.0,120.0,10.0,0.0
12260,63.0,84.0,120.0,11.0,0.0
12261,75.0,120.0,90.0,6.0,0.0
12262,77.0,36.0,90.0,6.0,0.0
12263,61.0,84.0,120.0,11.0,0.0
12264,65.0,0.0,120.0,10.0,0.0
12265,73.0,120.0,90.0,6.0,0.0
12266,75.0,36.0,90.0,6.0,0.0
12267,60.0,84.0,120.0,11.0,0.0
12268,63.0,0.0,120.0,10.0,0.0
12269,72.0,120.0,90.0,6.0,0.0
12270,59.0,84.0,120.0,11.0,0.0
12271,62.0,0.0,120.0,10.0,0.0
12272,74.0,36.0,90.0,6.0,0.0
12273,71.0,120.0,90.0,6.0,0.0
12274,73.0,36.0,90.0,6.0,0.0
12275,85.0,0.0,120.0,0.0,0.0
12276,73.0,0.0,120.0,1.0,0.0
12277,61.0,72.0,390.0,10.0,0.0
12278,58.0,0.0,390.0,11.0,0.0
12279,61.0,84.0,120.0,2.0,0.0
12280,58.0,0.0,120.0,2.0,0.0
12281,70.0,0.0,120.0,1.0,0.0
12282,70.0,120.0,90.0,6.0,0.0
12283,72.0,0.0,120.0,1.0,0.0
12284,84.0,0.0,120.0,0.0,0.0
12285,60.0,0.0,120.0,2.0,0.0
12286,56.0,0.0,120.0,2.0,0.0
12287,72.0,36.0,90.0,6.0,0.0
12288,68.0,12.0,120.0,1.0,0.0
12289,68.0,120.0,90.0,6.0,0.0
12290,70.0,36.0,90.0,6.0,0.0
12291,67.0,0.0,120.0,1.0,0.0
12292,70.0,0.0,120.0,1.0,0.0
12293,58.0,0.0,120.0,2.0,0.0
12294,55.0,0.0,120.0,2.0,0.0
12295,82.0,84.0,120.0,0.0,0.0
12296,67.0,120.0,90.0,6.0,0.0
12297,53.0,0.0,120.0,2.0,0.0
12298,65.0,0.0,120.0,1.0,0.0
12299,80.0,0.0,120.0,0.0,0.0
12300,68.0,0.0,120.0,1.0,0.0
12301,56.0,84.0,120.0,2.0,0.0
12302,68.0,36.0,90.0,6.0,0.0
12303,65.0,120.0,90.0,6.0,0.0
12304,67.0,0.0,120.0,1.0,0.0
12305,51.0,0.0,120.0,2.0,0.0
12306,63.0,84.0,120.0,1.0,0.0
12307,55.0,0.0,120.0,2.0,0.0
12308,79.0,0.0,120.0,0.0,0.0
12309,67.0,36.0,90.0,6.0,0.0
12310,63.0,120.0,90.0,6.0,0.0
12311,49.0,0.0,120.0,2.0,0.0
12312,53.0,84.0,120.0,2.0,0.0
12313,65.0,36.0,90.0,6.0,0.0
12314,61.0,0.0,120.0,1.0,0.0
12315,65.0,0.0,120.0,1.0,0.0
12316,77.0,0.0,120.0,0.0,0.0
12317,61.0,120.0,90.0,6.0,0.0
12318,63.0,36.0,90.0,6.0,0.0
12319,51.0,84.0,120.0,2.0,0.0
12320,75.0,0.0,120.0,0.0,0.0
12321,48.0,0.0,120.0,2.0,0.0
12322,60.0,0.0,120.0,1.0,0.0
12323,63.0,0.0,120.0,1.0,0.0
12324,60.0,120.0,90.0,6.0,0.0
12325,73.0,0.0,120.0,0.0,0.0
12326,49.0,0.0,120.0,2.0,0.0
12327,46.0,70.0,120.0,2.0,0.0
12328,61.0,0.0,120.0,1.0,0.0
12329,61.0,36.0,90.0,6.0,0.0
12330,58.0,0.0,120.0,1.0,0.0
12331,58.0,408.0,90.0,6.0,0.0
12332,56.0,480.0,390.0,1.0,0.0
12333,60.0,0.0,390.0,1.0,0.0
12334,60.0,0.0,960.0,4.0,0.0
12335,63.0,0.0,960.0,4.0,0.0
12336,48.0,0.0,960.0,3.0,0.0
12337,44.0,0.0,390.0,13.0,0.0
12338,48.0,0.0,390.0,2.0,0.0
12339,60.0,0.0,390.0,6.0,0.0
12340,44.0,0.0,390.0,2.0,0.0
12341,51.0,384.0,960.0,3.0,0.0
12342,72.0,0.0,390.0,0.0,0.0
12343,32.0,0.0,390.0,14.0,0.0
12344,56.0,0.0,390.0,12.0,0.0
12345,44.0,0.0,390.0,13.0,0.0
12346,56.0,0.0,390.0,12.0,0.0
12347,32.0,96.0,390.0,14.0,0.0
12348,56.0,480.0,390.0,4.0,0.0
12349,56.0,0.0,390.0,12.0,0.0
12350,60.0,0.0,390.0,4.0,0.0
12351,32.0,0.0,390.0,14.0,0.0
12352,48.0,0.0,390.0,3.0,0.0
12353,44.0,0.0,390.0,3.0,0.0
12354,44.0,0.0,390.0,13.0,0.0
12355,44.0,0.0,390.0,13.0,0.0
12356,32.0,240.0,390.0,14.0,0.0
12357,56.0,0.0,390.0,12.0,0.0
12358,56.0,0.0,390.0,12.0,0.0
12359,44.0,96.0,390.0,13.0,0.0
12360,32.0,0.0,390.0,14.0,0.0
12361,68.0,0.0,150.0,1.0,0.0
12362,72.0,0.0,150.0,1.0,0.0
12363,80.0,156.0,150.0,0.0,0.0
12364,70.0,0.0,60.0,1.0,0.0
12365,73.0,60.0,60.0,1.0,0.0
12366,82.0,0.0,60.0,0.0,0.0
12367,72.0,24.0,60.0,1.0,0.0
12368,80.0,0.0,60.0,0.0,0.0
12369,68.0,0.0,60.0,1.0,0.0
12370,67.0,144.0,120.0,1.0,0.0
12371,79.0,0.0,120.0,0.0,0.0
12372,70.0,0.0,120.0,1.0,0.0
12373,72.0,0.0,150.0,1.0,0.0
12374,56.0,0.0,390.0,12.0,0.0
12375,80.0,0.0,150.0,0.0,0.0
12376,32.0,0.0,390.0,14.0,0.0
12377,44.0,0.0,390.0,13.0,0.0
12378,68.0,240.0,150.0,1.0,0.0
12379,70.0,480.0,150.0,1.0,0.0
12380,73.0,0.0,150.0,1.0,0.0
12381,82.0,0.0,150.0,0.0,0.0
12382,44.0,480.0,390.0,13.0,0.0
12383,56.0,0.0,390.0,12.0,0.0
12384,72.0,0.0,390.0,1.0,0.0
12385,32.0,0.0,390.0,14.0,0.0
12386,84.0,0.0,390.0,0.0,0.0
12387,75.0,0.0,390.0,1.0,0.0
12388,32.0,0.0,390.0,14.0,0.0
12389,44.0,288.0,390.0,13.0,0.0
12390,56.0,0.0,390.0,12.0,0.0
12391,51.0,0.0,150.0,2.0,0.0
12392,75.0,0.0,150.0,0.0,0.0
12393,75.0,240.0,240.0,0.0,0.0
12394,55.0,0.0,1440.0,11.0,0.0
12395,51.0,48.0,180.0,2.0,0.0
12396,51.0,38.0,1890.0,13.0,0.0
12397,39.0,0.0,1890.0,14.0,0.0
12398,63.0,0.0,1890.0,12.0,0.0
12399,58.0,240.0,1440.0,10.0,0.0
12400,85.0,240.0,240.0,0.0,0.0
12401,61.0,0.0,240.0,2.0,0.0
12402,60.0,0.0,240.0,2.0,0.0
12403,84.0,240.0,240.0,0.0,0.0
12404,58.0,0.0,240.0,2.0,0.0
12405,82.0,240.0,240.0,0.0,0.0
12406,56.0,240.0,240.0,2.0,0.0
12407,80.0,0.0,240.0,0.0,0.0
12408,79.0,0.0,240.0,0.0,0.0
12409,55.0,0.0,240.0,2.0,0.0
12410,53.0,144.0,240.0,2.0,0.0
12411,60.0,0.0,480.0,10.0,0.0
12412,56.0,240.0,480.0,11.0,0.0
12413,77.0,0.0,240.0,0.0,0.0
12414,75.0,0.0,150.0,1.0,0.0
12415,51.0,58.0,150.0,2.0,0.0
12416,75.0,0.0,240.0,0.0,0.0
12417,39.0,0.0,1890.0,13.0,0.0
12418,51.0,0.0,1890.0,12.0,0.0
12419,74.0,0.0,240.0,1.0,0.0
12420,74.0,192.0,240.0,0.0,0.0
12421,50.0,0.0,240.0,2.0,0.0
12422,61.0,0.0,480.0,10.0,0.0
12423,58.0,0.0,480.0,11.0,0.0
12424,27.0,38.0,1890.0,14.0,0.0
12425,75.0,240.0,240.0,1.0,0.0
12426,75.0,48.0,180.0,0.0,0.0
12427,51.0,0.0,240.0,2.0,0.0
12428,55.0,0.0,480.0,11.0,0.0
12429,58.0,0.0,480.0,10.0,0.0
12430,53.0,0.0,240.0,2.0,0.0
12431,77.0,240.0,240.0,1.0,0.0
12432,51.0,0.0,240.0,2.0,0.0
12433,63.0,240.0,240.0,2.0,0.0
12434,75.0,0.0,240.0,1.0,0.0
12435,55.0,240.0,480.0,10.0,0.0
12436,75.0,0.0,240.0,1.0,0.0
12437,63.0,0.0,240.0,2.0,0.0
12438,51.0,240.0,240.0,2.0,0.0
12439,51.0,0.0,480.0,11.0,0.0
12440,74.0,0.0,240.0,1.0,0.0
12441,50.0,0.0,240.0,2.0,0.0
12442,62.0,0.0,240.0,2.0,0.0
12443,55.0,0.0,480.0,11.0,0.0
12444,61.0,202.0,240.0,2.0,0.0
12445,73.0,0.0,240.0,1.0,0.0
12446,58.0,384.0,480.0,10.0,0.0
12447,49.0,0.0,240.0,2.0,0.0
12448,58.0,0.0,240.0,2.0,0.0
12449,46.0,0.0,240.0,2.0,0.0
12450,70.0,0.0,240.0,1.0,0.0
12451,32.0,0.0,390.0,14.0,0.0
12452,68.0,480.0,390.0,1.0,0.0
12453,75.0,0.0,960.0,6.0,0.0
12454,44.0,0.0,390.0,13.0,0.0
12455,63.0,312.0,960.0,7.0,0.0
12456,60.0,0.0,960.0,7.0,0.0
12457,56.0,0.0,390.0,10.0,0.0
12458,44.0,0.0,390.0,2.0,0.0
12459,56.0,0.0,390.0,2.0,0.0
12460,56.0,0.0,390.0,11.0,0.0
12461,56.0,0.0,390.0,12.0,0.0
12462,44.0,0.0,390.0,13.0,0.0
12463,56.0,0.0,390.0,12.0,0.0
12464,32.0,96.0,390.0,14.0,0.0
12465,72.0,0.0,15.0,6.0,0.0
12466,56.0,0.0,390.0,12.0,0.0
12467,32.0,0.0,390.0,14.0,0.0
12468,56.0,0.0,300.0,7.0,0.0
12469,68.0,0.0,300.0,6.0,0.0
12470,44.0,480.0,390.0,13.0,0.0
12471,60.0,0.0,300.0,7.0,0.0
12472,56.0,240.0,390.0,12.0,0.0
12473,32.0,0.0,390.0,14.0,0.0
12474,44.0,0.0,390.0,13.0,0.0
12475,63.0,0.0,960.0,4.0,0.0
12476,56.0,96.0,390.0,12.0,0.0
12477,75.0,0.0,960.0,1.0,0.0
12478,72.0,0.0,960.0,1.0,0.0
12479,60.0,144.0,720.0,7.0,0.0
12480,80.0,156.0,150.0,6.0,0.0
12481,44.0,0.0,390.0,13.0,0.0
12482,63.0,0.0,960.0,3.0,0.0
12483,84.0,384.0,960.0,0.0,0.0
12484,60.0,0.0,960.0,2.0,0.0
12485,51.0,0.0,960.0,2.0,0.0
12486,32.0,0.0,390.0,14.0,0.0
12487,68.0,0.0,720.0,7.0,0.0
12488,75.0,0.0,960.0,4.0,0.0
12489,82.0,60.0,60.0,6.0,0.0
12490,80.0,24.0,60.0,6.0,0.0
12491,79.0,144.0,120.0,6.0,0.0
12492,32.0,96.0,390.0,14.0,0.0
12493,80.0,96.0,150.0,6.0,0.0
12494,56.0,0.0,390.0,12.0,0.0
12495,44.0,0.0,390.0,13.0,0.0
12496,63.0,0.0,240.0,7.0,0.0
12497,70.0,0.0,240.0,7.0,0.0
12498,82.0,0.0,150.0,6.0,0.0
12499,80.0,0.0,390.0,0.0,0.0
12500,56.0,480.0,390.0,12.0,0.0
12501,68.0,0.0,390.0,4.0,0.0
12502,60.0,0.0,390.0,4.0,0.0
12503,32.0,0.0,390.0,14.0,0.0
12504,56.0,0.0,390.0,3.0,0.0
12505,68.0,0.0,390.0,7.0,0.0
12506,72.0,0.0,390.0,7.0,0.0
12507,44.0,0.0,390.0,13.0,0.0
12508,84.0,0.0,390.0,6.0,0.0
12509,48.0,0.0,390.0,2.0,0.0
12510,60.0,0.0,15.0,3.0,0.0
12511,72.0,0.0,390.0,1.0,0.0
12512,68.0,0.0,390.0,1.0,0.0
12513,56.0,0.0,390.0,2.0,0.0
12514,44.0,336.0,390.0,13.0,0.0
12515,32.0,0.0,390.0,14.0,0.0
12516,56.0,0.0,390.0,12.0,0.0
12517,75.0,0.0,150.0,6.0,0.0
12518,63.0,0.0,150.0,7.0,0.0
12519,63.0,0.0,4230.0,4.0,0.0
12520,55.0,0.0,1440.0,2.0,0.0
12521,51.0,0.0,1890.0,13.0,0.0
12522,63.0,0.0,1890.0,12.0,0.0
12523,70.0,0.0,1440.0,1.0,0.0
12524,67.0,240.0,1440.0,1.0,0.0
12525,51.0,0.0,3840.0,4.0,0.0
12526,63.0,240.0,240.0,7.0,0.0
12527,75.0,0.0,240.0,6.0,0.0
12528,58.0,0.0,1440.0,2.0,0.0
12529,39.0,38.0,1890.0,14.0,0.0
12530,73.0,240.0,240.0,7.0,0.0
12531,85.0,0.0,240.0,6.0,0.0
12532,84.0,0.0,240.0,6.0,0.0
12533,72.0,240.0,240.0,7.0,0.0
12534,82.0,0.0,240.0,6.0,0.0
12535,70.0,240.0,240.0,7.0,0.0
12536,80.0,240.0,240.0,6.0,0.0
12537,68.0,0.0,240.0,7.0,0.0
12538,67.0,0.0,240.0,7.0,0.0
12539,79.0,0.0,240.0,6.0,0.0
12540,77.0,202.0,240.0,6.0,0.0
12541,56.0,0.0,480.0,2.0,0.0
12542,68.0,0.0,480.0,1.0,0.0
12543,60.0,0.0,480.0,2.0,0.0
12544,65.0,0.0,240.0,7.0,0.0
12545,72.0,0.0,480.0,1.0,0.0
12546,63.0,240.0,240.0,7.0,0.0
12547,75.0,0.0,240.0,6.0,0.0
12548,61.0,0.0,480.0,2.0,0.0
12549,27.0,0.0,1890.0,14.0,0.0
12550,74.0,0.0,240.0,6.0,0.0
12551,51.0,0.0,1890.0,12.0,0.0
12552,73.0,0.0,480.0,1.0,0.0
12553,39.0,38.0,1890.0,13.0,0.0
12554,62.0,240.0,240.0,7.0,0.0
12555,63.0,0.0,240.0,7.0,0.0
12556,75.0,0.0,240.0,6.0,0.0
12557,65.0,0.0,240.0,7.0,0.0
12558,77.0,240.0,240.0,6.0,0.0
12559,70.0,240.0,15.0,1.0,0.0
12560,67.0,0.0,480.0,1.0,0.0
12561,58.0,0.0,15.0,2.0,0.0
12562,63.0,0.0,240.0,7.0,0.0
12563,75.0,240.0,240.0,6.0,0.0
12564,63.0,0.0,240.0,7.0,0.0
12565,55.0,0.0,15.0,2.0,0.0
12566,51.0,0.0,480.0,2.0,0.0
12567,75.0,240.0,240.0,6.0,0.0
12568,63.0,0.0,480.0,1.0,0.0
12569,74.0,0.0,240.0,6.0,0.0
12570,62.0,0.0,240.0,7.0,0.0
12571,61.0,202.0,240.0,7.0,0.0
12572,67.0,240.0,15.0,1.0,0.0
12573,55.0,0.0,15.0,2.0,0.0
12574,58.0,0.0,480.0,2.0,0.0
12575,73.0,0.0,240.0,6.0,0.0
12576,70.0,0.0,480.0,1.0,0.0
12577,70.0,240.0,240.0,6.0,0.0
12578,58.0,0.0,240.0,7.0,0.0
12579,32.0,96.0,390.0,14.0,0.0
12580,60.0,0.0,390.0,2.0,0.0
12581,56.0,0.0,390.0,12.0,0.0
12582,56.0,0.0,390.0,2.0,0.0
12583,68.0,0.0,390.0,1.0,0.0
12584,56.0,0.0,390.0,4.0,0.0
12585,44.0,0.0,390.0,13.0,0.0
12586,68.0,0.0,390.0,6.0,0.0
12587,72.0,0.0,390.0,1.0,0.0
12588,44.0,120.0,120.0,7.0,0.0
12589,46.0,24.0,120.0,7.0,0.0
12590,48.0,120.0,120.0,7.0,0.0
12591,49.0,120.0,120.0,7.0,0.0
12592,51.0,120.0,120.0,7.0,0.0
12593,53.0,120.0,120.0,7.0,0.0
12594,55.0,120.0,120.0,7.0,0.0
12595,56.0,120.0,120.0,7.0,0.0
12596,58.0,120.0,120.0,7.0,0.0
12597,60.0,120.0,120.0,7.0,0.0
12598,80.0,144.0,480.0,7.0,0.0
12599,84.0,0.0,240.0,6.0,0.0
12600,61.0,144.0,120.0,7.0,0.0
12601,82.0,48.0,390.0,6.0,0.0
12602,63.0,96.0,150.0,7.0,0.0
12603,51.0,0.0,150.0,7.0,0.0
12604,79.0,288.0,180.0,7.0,0.0
12605,80.0,0.0,390.0,6.0,0.0
12606,77.0,96.0,390.0,7.0,0.0
12607,72.0,0.0,390.0,7.0,0.0
12608,41.0,120.0,120.0,7.0,0.0
12609,43.0,24.0,120.0,7.0,0.0
12610,44.0,120.0,120.0,7.0,0.0
12611,46.0,120.0,120.0,7.0,0.0
12612,48.0,120.0,120.0,7.0,0.0
12613,50.0,120.0,120.0,7.0,0.0
12614,52.0,120.0,120.0,7.0,0.0
12615,53.0,120.0,120.0,7.0,0.0
12616,55.0,120.0,120.0,7.0,0.0
12617,56.0,120.0,120.0,7.0,0.0
12618,77.0,144.0,480.0,7.0,0.0
12619,80.0,144.0,240.0,6.0,0.0
12620,58.0,0.0,120.0,7.0,0.0
12621,79.0,0.0,390.0,6.0,0.0
12622,60.0,96.0,150.0,7.0,0.0
12623,48.0,48.0,150.0,7.0,0.0
12624,75.0,288.0,180.0,7.0,0.0
12625,77.0,0.0,390.0,6.0,0.0
12626,73.0,96.0,390.0,7.0,0.0
12627,68.0,0.0,390.0,7.0,0.0
12628,37.0,120.0,120.0,7.0,0.0
12629,39.0,24.0,120.0,7.0,0.0
12630,41.0,120.0,120.0,7.0,0.0
12631,42.0,120.0,120.0,7.0,0.0
12632,44.0,120.0,120.0,7.0,0.0
12633,46.0,120.0,120.0,7.0,0.0
12634,48.0,120.0,120.0,7.0,0.0
12635,49.0,120.0,120.0,7.0,0.0
12636,51.0,120.0,120.0,7.0,0.0
12637,73.0,144.0,480.0,7.0,0.0
12638,53.0,120.0,120.0,7.0,0.0
12639,77.0,0.0,240.0,6.0,0.0
12640,54.0,144.0,120.0,7.0,0.0
12641,75.0,0.0,390.0,6.0,0.0
12642,56.0,96.0,150.0,7.0,0.0
12643,44.0,48.0,150.0,7.0,0.0
12644,72.0,168.0,180.0,7.0,0.0
12645,58.0,54.0,300.0,7.0,0.0
12646,73.0,120.0,120.0,6.0,0.0
12647,85.0,66.0,120.0,6.0,0.0
12648,73.0,102.0,120.0,6.0,0.0
12649,56.0,18.0,90.0,7.0,0.0
12650,72.0,120.0,120.0,6.0,0.0
12651,70.0,120.0,120.0,6.0,0.0
12652,55.0,54.0,300.0,7.0,0.0
12653,82.0,66.0,120.0,6.0,0.0
12654,70.0,102.0,120.0,6.0,0.0
12655,53.0,18.0,90.0,7.0,0.0
12656,68.0,120.0,120.0,6.0,0.0
12657,67.0,120.0,120.0,6.0,0.0
12658,51.0,54.0,300.0,7.0,0.0
12659,79.0,66.0,120.0,6.0,0.0
12660,67.0,102.0,120.0,6.0,0.0
12661,65.0,120.0,120.0,6.0,0.0
12662,49.0,18.0,90.0,7.0,0.0
12663,63.0,120.0,120.0,6.0,0.0
12664,48.0,54.0,300.0,7.0,0.0
12665,75.0,66.0,120.0,6.0,0.0
12666,63.0,102.0,120.0,6.0,0.0
12667,46.0,18.0,90.0,7.0,0.0
12668,61.0,120.0,120.0,6.0,0.0
12669,44.0,96.0,390.0,7.0,0.0
12670,60.0,120.0,120.0,6.0,0.0
12671,56.0,120.0,120.0,6.0,0.0
12672,63.0,24.0,120.0,6.0,0.0
12673,60.0,120.0,120.0,6.0,0.0
12674,68.0,120.0,120.0,6.0,0.0
12675,63.0,120.0,120.0,6.0,0.0
12676,72.0,120.0,120.0,6.0,0.0
12677,68.0,120.0,120.0,6.0,0.0
12678,75.0,120.0,120.0,6.0,0.0
12679,72.0,120.0,120.0,6.0,0.0
12680,80.0,120.0,120.0,6.0,0.0
12681,75.0,120.0,120.0,6.0,0.0
12682,36.0,0.0,390.0,7.0,0.0
12683,72.0,120.0,120.0,6.0,0.0
12684,48.0,96.0,390.0,7.0,0.0
12685,68.0,120.0,120.0,6.0,0.0
12686,63.0,24.0,120.0,6.0,0.0
12687,60.0,120.0,120.0,6.0,0.0
12688,58.0,120.0,120.0,6.0,0.0
12689,49.0,96.0,390.0,7.0,0.0
12690,37.0,0.0,390.0,7.0,0.0
12691,53.0,120.0,120.0,6.0,0.0
12692,61.0,24.0,120.0,6.0,0.0
12693,58.0,120.0,120.0,6.0,0.0
12694,65.0,120.0,120.0,6.0,0.0
12695,61.0,120.0,120.0,6.0,0.0
12696,70.0,120.0,120.0,6.0,0.0
12697,65.0,120.0,120.0,6.0,0.0
12698,73.0,120.0,120.0,6.0,0.0
12699,70.0,120.0,120.0,6.0,0.0
12700,77.0,120.0,120.0,6.0,0.0
12701,73.0,120.0,120.0,6.0,0.0
12702,70.0,120.0,120.0,6.0,0.0
12703,37.0,0.0,390.0,7.0,0.0
12704,49.0,96.0,390.0,7.0,0.0
12705,65.0,120.0,120.0,6.0,0.0
12706,61.0,24.0,120.0,6.0,0.0
12707,58.0,120.0,120.0,6.0,0.0
12708,51.0,0.0,390.0,13.0,0.0
12709,51.0,0.0,390.0,7.0,0.0
12710,39.0,48.0,390.0,14.0,0.0
12711,56.0,120.0,120.0,6.0,0.0
12712,60.0,120.0,120.0,6.0,0.0
12713,56.0,0.0,180.0,11.0,0.0
12714,51.0,0.0,180.0,12.0,0.0
12715,63.0,24.0,120.0,6.0,0.0
12716,60.0,48.0,180.0,10.0,0.0
12717,68.0,120.0,120.0,6.0,0.0
12718,63.0,72.0,120.0,6.0,0.0
12719,56.0,48.0,180.0,11.0,0.0
12720,51.0,0.0,180.0,12.0,0.0
12721,60.0,0.0,180.0,10.0,0.0
12722,68.0,120.0,120.0,6.0,0.0
12723,51.0,48.0,180.0,12.0,0.0
12724,60.0,0.0,180.0,10.0,0.0
12725,56.0,0.0,180.0,11.0,0.0
12726,72.0,72.0,120.0,6.0,0.0
12727,75.0,60.0,120.0,6.0,0.0
12728,51.0,48.0,180.0,12.0,0.0
12729,55.0,0.0,180.0,11.0,0.0
12730,27.0,36.0,390.0,14.0,0.0
12731,49.0,0.0,180.0,12.0,0.0
12732,39.0,0.0,390.0,13.0,0.0
12733,58.0,0.0,180.0,10.0,0.0
12734,39.0,0.0,390.0,7.0,0.0
12735,72.0,60.0,60.0,6.0,0.0
12736,70.0,60.0,60.0,6.0,0.0
12737,72.0,12.0,60.0,6.0,0.0
12738,70.0,60.0,60.0,6.0,0.0
12739,55.0,48.0,180.0,11.0,0.0
12740,72.0,60.0,60.0,6.0,0.0
12741,51.0,0.0,180.0,12.0,0.0
12742,58.0,0.0,180.0,10.0,0.0
12743,49.0,0.0,180.0,12.0,0.0
12744,70.0,24.0,60.0,6.0,0.0
12745,72.0,12.0,60.0,6.0,0.0
12746,70.0,60.0,60.0,6.0,0.0
12747,55.0,48.0,180.0,11.0,0.0
12748,72.0,60.0,60.0,6.0,0.0
12749,58.0,0.0,180.0,10.0,0.0
12750,49.0,0.0,180.0,12.0,0.0
12751,51.0,0.0,180.0,12.0,0.0
12752,70.0,60.0,60.0,6.0,0.0
12753,72.0,12.0,60.0,6.0,0.0
12754,70.0,120.0,60.0,6.0,0.0
12755,55.0,0.0,180.0,11.0,0.0
12756,51.0,0.0,180.0,12.0,0.0
12757,49.0,0.0,180.0,12.0,0.0
12758,58.0,48.0,180.0,10.0,0.0
12759,68.0,72.0,120.0,6.0,0.0
12760,70.0,240.0,120.0,6.0,0.0
12761,44.0,0.0,390.0,13.0,0.0
12762,44.0,0.0,390.0,7.0,0.0
12763,32.0,96.0,390.0,14.0,0.0
12764,56.0,0.0,390.0,10.0,0.0
12765,56.0,0.0,390.0,11.0,0.0
12766,48.0,0.0,390.0,12.0,0.0
12767,51.0,0.0,390.0,12.0,0.0
12768,56.0,120.0,120.0,6.0,0.0
12769,58.0,24.0,120.0,6.0,0.0
12770,60.0,120.0,120.0,6.0,0.0
12771,61.0,120.0,120.0,6.0,0.0
12772,63.0,120.0,120.0,6.0,0.0
12773,65.0,120.0,120.0,6.0,0.0
12774,67.0,120.0,120.0,6.0,0.0
12775,68.0,120.0,120.0,6.0,0.0
12776,70.0,120.0,120.0,6.0,0.0
12777,72.0,120.0,120.0,6.0,0.0
12778,73.0,144.0,120.0,6.0,0.0
12779,60.0,0.0,150.0,11.0,0.0
12780,51.0,240.0,150.0,12.0,0.0
12781,44.0,0.0,150.0,13.0,0.0
12782,72.0,0.0,150.0,10.0,0.0
12783,32.0,0.0,150.0,14.0,0.0
12784,56.0,0.0,150.0,7.0,0.0
12785,44.0,0.0,150.0,7.0,0.0
12786,75.0,0.0,150.0,6.0,0.0
12787,70.0,0.0,150.0,10.0,0.0
12788,58.0,0.0,150.0,11.0,0.0
12789,31.0,336.0,150.0,14.0,0.0
12790,43.0,0.0,150.0,13.0,0.0
12791,43.0,0.0,150.0,7.0,0.0
12792,63.0,0.0,150.0,6.0,0.0
12793,51.0,0.0,150.0,12.0,0.0
12794,55.0,0.0,150.0,7.0,0.0
12795,56.0,0.0,390.0,11.0,0.0
12796,41.0,0.0,390.0,13.0,0.0
12797,48.0,0.0,390.0,12.0,0.0
12798,68.0,0.0,390.0,10.0,0.0
12799,29.0,0.0,390.0,14.0,0.0
12800,53.0,0.0,390.0,7.0,0.0
12801,41.0,96.0,390.0,7.0,0.0
12802,65.0,120.0,120.0,6.0,0.0
12803,67.0,24.0,120.0,6.0,0.0
12804,68.0,120.0,120.0,6.0,0.0
12805,70.0,120.0,120.0,6.0,0.0
12806,72.0,120.0,120.0,6.0,0.0
12807,73.0,120.0,120.0,6.0,0.0
12808,75.0,120.0,120.0,6.0,0.0
12809,77.0,120.0,120.0,6.0,0.0
12810,79.0,120.0,120.0,6.0,0.0
12811,80.0,120.0,120.0,6.0,0.0
12812,82.0,144.0,120.0,6.0,0.0
12813,53.0,0.0,150.0,7.0,0.0
12814,41.0,0.0,150.0,14.0,0.0
12815,80.0,0.0,150.0,10.0,0.0
12816,68.0,0.0,150.0,11.0,0.0
12817,53.0,0.0,150.0,13.0,0.0
12818,41.0,240.0,150.0,7.0,0.0
12819,84.0,0.0,150.0,6.0,0.0
12820,60.0,0.0,150.0,12.0,0.0
12821,51.0,0.0,150.0,7.0,0.0
12822,49.0,0.0,150.0,13.0,0.0
12823,79.0,0.0,150.0,10.0,0.0
12824,60.0,336.0,150.0,12.0,0.0
12825,72.0,0.0,150.0,6.0,0.0
12826,67.0,0.0,150.0,11.0,0.0
12827,39.0,0.0,150.0,7.0,0.0
12828,39.0,0.0,150.0,14.0,0.0
12829,77.0,0.0,390.0,10.0,0.0
12830,56.0,0.0,390.0,12.0,0.0
12831,65.0,0.0,390.0,11.0,0.0
12832,37.0,0.0,390.0,14.0,0.0
12833,37.0,0.0,390.0,7.0,0.0
12834,49.0,96.0,390.0,7.0,0.0
12835,49.0,0.0,390.0,13.0,0.0
12836,61.0,120.0,120.0,6.0,0.0
12837,63.0,24.0,120.0,6.0,0.0
12838,65.0,120.0,120.0,6.0,0.0
12839,67.0,120.0,120.0,6.0,0.0
12840,68.0,120.0,120.0,6.0,0.0
12841,70.0,120.0,120.0,6.0,0.0
12842,72.0,120.0,120.0,6.0,0.0
12843,73.0,120.0,120.0,6.0,0.0
12844,75.0,120.0,120.0,6.0,0.0
12845,77.0,120.0,120.0,6.0,0.0
12846,79.0,144.0,120.0,6.0,0.0
12847,49.0,0.0,150.0,13.0,0.0
12848,77.0,0.0,150.0,10.0,0.0
12849,56.0,0.0,150.0,12.0,0.0
12850,80.0,0.0,150.0,6.0,0.0
12851,61.0,240.0,150.0,7.0,0.0
12852,49.0,0.0,150.0,7.0,0.0
12853,37.0,0.0,150.0,14.0,0.0
12854,65.0,0.0,150.0,11.0,0.0
12855,36.0,0.0,150.0,14.0,0.0
12856,75.0,0.0,150.0,10.0,0.0
12857,68.0,0.0,150.0,6.0,0.0
12858,48.0,216.0,150.0,13.0,0.0
12859,60.0,0.0,150.0,7.0,0.0
12860,56.0,0.0,150.0,12.0,0.0
12861,48.0,0.0,150.0,7.0,0.0
12862,63.0,0.0,150.0,11.0,0.0
12863,73.0,0.0,120.0,6.0,0.0
12864,61.0,0.0,390.0,11.0,0.0
12865,46.0,120.0,120.0,7.0,0.0
12866,53.0,96.0,390.0,12.0,0.0
12867,73.0,0.0,390.0,10.0,0.0
12868,58.0,120.0,960.0,2.0,0.0
12869,46.0,0.0,960.0,2.0,0.0
12870,73.0,120.0,1920.0,1.0,0.0
12871,46.0,0.0,390.0,13.0,0.0
12872,65.0,0.0,960.0,1.0,0.0
12873,34.0,0.0,390.0,14.0,0.0
12874,85.0,120.0,120.0,6.0,0.0
12875,58.0,0.0,120.0,7.0,0.0
12876,72.0,0.0,120.0,6.0,0.0
12877,44.0,24.0,120.0,7.0,0.0
12878,84.0,120.0,120.0,6.0,0.0
12879,56.0,0.0,120.0,7.0,0.0
12880,43.0,120.0,120.0,7.0,0.0
12881,70.0,0.0,120.0,6.0,0.0
12882,82.0,0.0,120.0,6.0,0.0
12883,55.0,120.0,120.0,7.0,0.0
12884,41.0,120.0,120.0,7.0,0.0
12885,68.0,0.0,120.0,6.0,0.0
12886,80.0,0.0,120.0,6.0,0.0
12887,53.0,0.0,120.0,7.0,0.0
12888,67.0,120.0,120.0,6.0,0.0
12889,39.0,0.0,120.0,7.0,0.0
12890,67.0,0.0,960.0,1.0,0.0
12891,51.0,0.0,960.0,2.0,0.0
12892,58.0,0.0,960.0,2.0,0.0
12893,51.0,120.0,120.0,7.0,0.0
12894,79.0,0.0,120.0,6.0,0.0
12895,65.0,0.0,120.0,6.0,0.0
12896,37.0,120.0,120.0,7.0,0.0
12897,77.0,120.0,120.0,6.0,0.0
12898,49.0,0.0,120.0,7.0,0.0
12899,36.0,0.0,120.0,7.0,0.0
12900,63.0,120.0,120.0,6.0,0.0
12901,75.0,120.0,120.0,6.0,0.0
12902,48.0,0.0,120.0,7.0,0.0
12903,34.0,120.0,120.0,7.0,0.0
12904,61.0,0.0,120.0,6.0,0.0
12905,73.0,0.0,120.0,6.0,0.0
12906,46.0,0.0,120.0,7.0,0.0
12907,60.0,72.0,300.0,6.0,0.0
12908,44.0,0.0,1920.0,13.0,0.0
12909,51.0,0.0,1920.0,12.0,0.0
12910,60.0,0.0,1920.0,11.0,0.0
12911,68.0,0.0,390.0,1.0,0.0
12912,68.0,120.0,1920.0,10.0,0.0
12913,44.0,0.0,390.0,2.0,0.0
12914,56.0,0.0,390.0,2.0,0.0
12915,32.0,0.0,1920.0,14.0,0.0
12916,44.0,120.0,120.0,7.0,0.0
12917,72.0,96.0,390.0,1.0,0.0
12918,51.0,48.0,120.0,7.0,0.0
12919,48.0,24.0,120.0,7.0,0.0
12920,44.0,120.0,120.0,7.0,0.0
12921,39.0,120.0,120.0,7.0,0.0
12922,44.0,120.0,120.0,7.0,0.0
12923,36.0,120.0,120.0,7.0,0.0
12924,39.0,120.0,120.0,7.0,0.0
12925,32.0,72.0,300.0,7.0,0.0
12926,80.0,120.0,120.0,6.0,0.0
12927,84.0,48.0,120.0,6.0,0.0
12928,75.0,120.0,120.0,6.0,0.0
12929,80.0,120.0,120.0,6.0,0.0
12930,72.0,120.0,120.0,6.0,0.0
12931,75.0,120.0,120.0,6.0,0.0
12932,68.0,120.0,120.0,6.0,0.0
12933,75.0,0.0,120.0,6.0,0.0
12934,48.0,0.0,1920.0,13.0,0.0
12935,66.0,120.0,1920.0,10.0,0.0
12936,56.0,0.0,3840.0,12.0,0.0
12937,51.0,120.0,120.0,7.0,0.0
12938,63.0,0.0,1920.0,11.0,0.0
12939,36.0,0.0,1920.0,14.0,0.0
12940,66.0,72.0,300.0,6.0,0.0
12941,54.0,48.0,120.0,7.0,0.0
12942,48.0,120.0,120.0,7.0,0.0
12943,51.0,120.0,120.0,7.0,0.0
12944,42.0,120.0,120.0,7.0,0.0
12945,48.0,120.0,120.0,7.0,0.0
12946,39.0,120.0,120.0,7.0,0.0
12947,42.0,120.0,120.0,7.0,0.0
12948,36.0,72.0,300.0,7.0,0.0
12949,75.0,120.0,120.0,6.0,0.0
12950,78.0,48.0,120.0,6.0,0.0
12951,72.0,120.0,120.0,6.0,0.0
12952,75.0,120.0,120.0,6.0,0.0
12953,68.0,120.0,120.0,6.0,0.0
12954,75.0,120.0,120.0,6.0,0.0
12955,66.0,120.0,120.0,6.0,0.0
12956,75.0,0.0,120.0,6.0,0.0
12957,49.0,120.0,120.0,7.0,0.0
12958,61.0,0.0,1920.0,11.0,0.0
12959,37.0,0.0,1920.0,14.0,0.0
12960,49.0,0.0,1920.0,13.0,0.0
12961,65.0,120.0,1920.0,10.0,0.0
12962,65.0,72.0,300.0,6.0,0.0
12963,56.0,48.0,120.0,7.0,0.0
12964,53.0,120.0,120.0,7.0,0.0
12965,49.0,120.0,120.0,7.0,0.0
12966,44.0,120.0,120.0,7.0,0.0
12967,49.0,120.0,120.0,7.0,0.0
12968,41.0,120.0,120.0,7.0,0.0
12969,44.0,120.0,120.0,7.0,0.0
12970,37.0,72.0,300.0,7.0,0.0
12971,80.0,120.0,120.0,6.0,0.0
12972,85.0,48.0,120.0,6.0,0.0
12973,77.0,120.0,120.0,6.0,0.0
12974,80.0,120.0,120.0,6.0,0.0
12975,73.0,120.0,120.0,6.0,0.0
12976,77.0,120.0,120.0,6.0,0.0
12977,68.0,120.0,120.0,6.0,0.0
12978,73.0,0.0,120.0,6.0,0.0
12979,56.0,0.0,1140.0,11.0,0.0
12980,65.0,72.0,300.0,6.0,0.0
12981,53.0,48.0,1140.0,12.0,0.0
12982,50.0,0.0,2190.0,13.0,0.0
12983,59.0,0.0,1140.0,10.0,0.0
12984,38.0,96.0,2190.0,14.0,0.0
12985,50.0,120.0,120.0,7.0,0.0
12986,53.0,48.0,120.0,7.0,0.0
12987,47.0,120.0,120.0,7.0,0.0
12988,50.0,120.0,120.0,7.0,0.0
12989,44.0,120.0,120.0,7.0,0.0
12990,47.0,120.0,120.0,7.0,0.0
12991,41.0,120.0,120.0,7.0,0.0
12992,44.0,120.0,120.0,7.0,0.0
12993,80.0,72.0,120.0,6.0,0.0
12994,38.0,72.0,300.0,7.0,0.0
12995,83.0,48.0,120.0,6.0,0.0
12996,77.0,120.0,120.0,6.0,0.0
12997,80.0,120.0,120.0,6.0,0.0
12998,74.0,24.0,120.0,6.0,0.0
12999,65.0,0.0,150.0,10.0,0.0
13000,56.0,0.0,150.0,12.0,0.0
13001,59.0,96.0,150.0,11.0,0.0
13002,77.0,120.0,120.0,6.0,0.0
13003,71.0,0.0,120.0,1.0,0.0
13004,83.0,0.0,120.0,0.0,0.0
13005,59.0,108.0,120.0,2.0,0.0
13006,71.0,12.0,120.0,6.0,0.0
13007,74.0,120.0,120.0,6.0,0.0
13008,68.0,0.0,120.0,10.0,0.0
13009,65.0,0.0,120.0,11.0,0.0
13010,68.0,108.0,120.0,1.0,0.0
13011,56.0,0.0,120.0,7.0,0.0
13012,80.0,0.0,120.0,0.0,0.0
13013,56.0,0.0,120.0,2.0,0.0
13014,68.0,12.0,120.0,6.0,0.0
13015,59.0,0.0,120.0,12.0,0.0
13016,71.0,24.0,120.0,6.0,0.0
13017,77.0,108.0,120.0,0.0,0.0
13018,53.0,0.0,120.0,7.0,0.0
13019,77.0,0.0,120.0,1.0,0.0
13020,65.0,12.0,120.0,6.0,0.0
13021,53.0,0.0,120.0,2.0,0.0
13022,65.0,0.0,120.0,1.0,0.0
13023,68.0,120.0,120.0,6.0,0.0
13024,62.0,0.0,120.0,1.0,0.0
13025,50.0,0.0,120.0,7.0,0.0
13026,50.0,0.0,120.0,2.0,0.0
13027,65.0,0.0,120.0,12.0,0.0
13028,71.0,0.0,120.0,10.0,0.0
13029,62.0,12.0,120.0,6.0,0.0
13030,68.0,108.0,120.0,11.0,0.0
13031,74.0,0.0,120.0,0.0,0.0
13032,74.0,0.0,120.0,1.0,0.0
13033,65.0,120.0,120.0,6.0,0.0
13034,83.0,0.0,120.0,0.0,0.0
13035,71.0,0.0,120.0,1.0,0.0
13036,47.0,108.0,120.0,7.0,0.0
13037,59.0,12.0,120.0,6.0,0.0
13038,59.0,0.0,120.0,2.0,0.0
13039,47.0,0.0,120.0,2.0,0.0
13040,62.0,120.0,120.0,6.0,0.0
13041,56.0,12.0,120.0,6.0,0.0
13042,44.0,0.0,120.0,7.0,0.0
13043,68.0,0.0,120.0,1.0,0.0
13044,56.0,0.0,120.0,2.0,0.0
13045,80.0,0.0,120.0,0.0,0.0
13046,71.0,0.0,120.0,11.0,0.0
13047,74.0,0.0,120.0,10.0,0.0
13048,44.0,0.0,120.0,2.0,0.0
13049,68.0,108.0,120.0,12.0,0.0
13050,59.0,120.0,120.0,6.0,0.0
13051,76.0,0.0,120.0,0.0,0.0
13052,71.0,0.0,120.0,11.0,0.0
13053,52.0,12.0,120.0,6.0,0.0
13054,40.0,0.0,120.0,2.0,0.0
13055,52.0,0.0,120.0,13.0,0.0
13056,62.0,108.0,120.0,12.0,0.0
13057,64.0,0.0,120.0,1.0,0.0
13058,40.0,0.0,120.0,7.0,0.0
13059,40.0,0.0,120.0,14.0,0.0
13060,52.0,0.0,120.0,2.0,0.0
13061,80.0,0.0,120.0,10.0,0.0
13062,56.0,120.0,120.0,6.0,0.0
13063,51.0,0.0,120.0,2.0,0.0
13064,39.0,0.0,120.0,2.0,0.0
13065,71.0,108.0,120.0,11.0,0.0
13066,63.0,0.0,120.0,12.0,0.0
13067,63.0,0.0,120.0,1.0,0.0
13068,39.0,0.0,120.0,14.0,0.0
13069,51.0,0.0,120.0,13.0,0.0
13070,39.0,0.0,120.0,7.0,0.0
13071,75.0,0.0,120.0,0.0,0.0
13072,51.0,12.0,120.0,6.0,0.0
13073,80.0,0.0,120.0,10.0,0.0
13074,56.0,120.0,120.0,6.0,0.0
13075,62.0,0.0,120.0,1.0,0.0
13076,38.0,0.0,120.0,7.0,0.0
13077,65.0,0.0,120.0,12.0,0.0
13078,38.0,0.0,120.0,2.0,0.0
13079,50.0,0.0,120.0,2.0,0.0
13080,38.0,0.0,120.0,14.0,0.0
13081,50.0,12.0,120.0,6.0,0.0
13082,74.0,0.0,120.0,0.0,0.0
13083,80.0,0.0,120.0,10.0,0.0
13084,50.0,108.0,120.0,13.0,0.0
13085,71.0,0.0,120.0,11.0,0.0
13086,56.0,132.0,120.0,6.0,0.0
13087,51.0,0.0,390.0,13.0,0.0
13088,39.0,0.0,390.0,14.0,0.0
13089,39.0,0.0,1920.0,8.0,0.0
13090,51.0,0.0,6150.0,3.0,0.0
13091,63.0,0.0,390.0,10.0,0.0
13092,39.0,96.0,6150.0,3.0,0.0
13093,63.0,96.0,390.0,11.0,0.0
13094,39.0,12.0,120.0,2.0,0.0
13095,51.0,0.0,120.0,2.0,0.0
13096,63.0,96.0,270.0,1.0,0.0
13097,75.0,0.0,270.0,0.0,0.0
13098,27.0,120.0,1920.0,8.0,0.0
13099,51.0,120.0,150.0,7.0,0.0
13100,63.0,0.0,390.0,12.0,0.0
13101,48.0,0.0,120.0,2.0,0.0
13102,56.0,12.0,120.0,2.0,0.0
13103,48.0,12.0,120.0,7.0,0.0
13104,56.0,120.0,120.0,7.0,0.0
13105,46.0,108.0,120.0,2.0,0.0
13106,55.0,0.0,120.0,2.0,0.0
13107,46.0,12.0,120.0,7.0,0.0
13108,55.0,120.0,120.0,7.0,0.0
13109,49.0,12.0,120.0,7.0,0.0
13110,58.0,0.0,120.0,2.0,0.0
13111,49.0,108.0,120.0,2.0,0.0
13112,58.0,120.0,120.0,7.0,0.0
13113,48.0,12.0,120.0,7.0,0.0
13114,48.0,108.0,120.0,2.0,0.0
13115,56.0,0.0,120.0,2.0,0.0
13116,56.0,120.0,120.0,7.0,0.0
13117,60.0,108.0,120.0,2.0,0.0
13118,51.0,0.0,120.0,2.0,0.0
13119,51.0,12.0,120.0,7.0,0.0
13120,60.0,120.0,120.0,7.0,0.0
13121,53.0,0.0,120.0,2.0,0.0
13122,61.0,108.0,120.0,2.0,0.0
13123,53.0,12.0,120.0,7.0,0.0
13124,61.0,120.0,120.0,7.0,0.0
13125,58.0,0.0,120.0,2.0,0.0
13126,55.0,108.0,120.0,2.0,0.0
13127,55.0,12.0,120.0,7.0,0.0
13128,58.0,0.0,120.0,7.0,0.0
13129,56.0,0.0,270.0,2.0,0.0
13130,60.0,96.0,270.0,2.0,0.0
13131,56.0,120.0,120.0,6.0,0.0
13132,60.0,24.0,120.0,6.0,0.0
13133,60.0,12.0,120.0,6.0,0.0
13134,68.0,0.0,120.0,1.0,0.0
13135,60.0,108.0,120.0,1.0,0.0
13136,68.0,120.0,120.0,6.0,0.0
13137,67.0,108.0,120.0,1.0,0.0
13138,58.0,0.0,120.0,1.0,0.0
13139,58.0,12.0,120.0,6.0,0.0
13140,67.0,120.0,120.0,6.0,0.0
13141,61.0,12.0,120.0,6.0,0.0
13142,61.0,0.0,120.0,1.0,0.0
13143,70.0,108.0,120.0,1.0,0.0
13144,70.0,120.0,120.0,6.0,0.0
13145,68.0,108.0,120.0,1.0,0.0
13146,60.0,0.0,120.0,1.0,0.0
13147,60.0,12.0,120.0,6.0,0.0
13148,68.0,120.0,120.0,6.0,0.0
13149,63.0,108.0,120.0,1.0,0.0
13150,72.0,0.0,120.0,1.0,0.0
13151,63.0,12.0,120.0,6.0,0.0
13152,72.0,120.0,120.0,6.0,0.0
13153,65.0,108.0,120.0,1.0,0.0
13154,65.0,12.0,120.0,6.0,0.0
13155,73.0,0.0,120.0,1.0,0.0
13156,73.0,120.0,120.0,6.0,0.0
13157,70.0,0.0,120.0,1.0,0.0
13158,67.0,12.0,120.0,6.0,0.0
13159,67.0,108.0,120.0,1.0,0.0
13160,70.0,120.0,120.0,6.0,0.0
13161,72.0,108.0,120.0,1.0,0.0
13162,68.0,12.0,120.0,6.0,0.0
13163,68.0,96.0,270.0,1.0,0.0
13164,72.0,24.0,120.0,6.0,0.0
13165,80.0,0.0,120.0,0.0,0.0
13166,72.0,12.0,120.0,6.0,0.0
13167,72.0,108.0,120.0,1.0,0.0
13168,80.0,120.0,120.0,6.0,0.0
13169,70.0,0.0,120.0,1.0,0.0
13170,70.0,12.0,120.0,6.0,0.0
13171,79.0,108.0,120.0,0.0,0.0
13172,79.0,120.0,120.0,6.0,0.0
13173,73.0,108.0,120.0,1.0,0.0
13174,73.0,12.0,120.0,6.0,0.0
13175,82.0,0.0,120.0,0.0,0.0
13176,82.0,120.0,120.0,6.0,0.0
13177,80.0,108.0,120.0,0.0,0.0
13178,72.0,0.0,120.0,1.0,0.0
13179,72.0,12.0,120.0,6.0,0.0
13180,80.0,120.0,120.0,6.0,0.0
13181,84.0,108.0,120.0,0.0,0.0
13182,75.0,12.0,120.0,6.0,0.0
13183,75.0,0.0,120.0,1.0,0.0
13184,84.0,120.0,120.0,6.0,0.0
13185,77.0,108.0,120.0,1.0,0.0
13186,85.0,0.0,120.0,0.0,0.0
13187,77.0,12.0,120.0,6.0,0.0
13188,85.0,120.0,120.0,6.0,0.0
13189,79.0,0.0,120.0,1.0,0.0
13190,82.0,108.0,120.0,0.0,0.0
13191,79.0,12.0,120.0,6.0,0.0
13192,82.0,120.0,120.0,6.0,0.0
13193,80.0,96.0,270.0,1.0,0.0
13194,84.0,0.0,270.0,0.0,0.0
13195,68.0,120.0,120.0,7.0,0.0
13196,84.0,0.0,120.0,6.0,0.0
13197,67.0,24.0,120.0,7.0,0.0
13198,83.0,0.0,120.0,6.0,0.0
13199,84.0,24.0,120.0,6.0,0.0
13200,68.0,0.0,120.0,7.0,0.0
13201,67.0,120.0,120.0,7.0,0.0
13202,83.0,0.0,120.0,6.0,0.0
13203,68.0,120.0,120.0,7.0,0.0
13204,84.0,0.0,120.0,6.0,0.0
13205,82.0,0.0,120.0,6.0,0.0
13206,67.0,120.0,120.0,7.0,0.0
13207,65.0,120.0,120.0,7.0,0.0
13208,80.0,0.0,120.0,6.0,0.0
13209,64.0,120.0,120.0,7.0,0.0
13210,79.0,0.0,120.0,6.0,0.0
13211,80.0,120.0,120.0,6.0,0.0
13212,65.0,0.0,120.0,7.0,0.0
13213,79.0,120.0,120.0,6.0,0.0
13214,63.0,0.0,120.0,7.0,0.0
13215,61.0,120.0,120.0,7.0,0.0
13216,77.0,0.0,120.0,6.0,0.0
13217,76.0,120.0,120.0,6.0,0.0
13218,60.0,0.0,120.0,7.0,0.0
13219,61.0,0.0,120.0,7.0,0.0
13220,77.0,120.0,120.0,6.0,0.0
13221,75.0,120.0,120.0,6.0,0.0
13222,60.0,0.0,120.0,7.0,0.0
13223,58.0,120.0,120.0,7.0,0.0
13224,73.0,0.0,120.0,6.0,0.0
13225,56.0,120.0,120.0,7.0,0.0
13226,72.0,0.0,120.0,6.0,0.0
13227,61.0,120.0,120.0,7.0,0.0
13228,77.0,0.0,120.0,6.0,0.0
13229,60.0,120.0,120.0,7.0,0.0
13230,76.0,0.0,120.0,6.0,0.0
13231,77.0,0.0,120.0,6.0,0.0
13232,61.0,120.0,120.0,7.0,0.0
13233,75.0,120.0,120.0,6.0,0.0
13234,60.0,0.0,120.0,7.0,0.0
13235,77.0,120.0,120.0,6.0,0.0
13236,61.0,0.0,120.0,7.0,0.0
13237,60.0,120.0,120.0,7.0,0.0
13238,75.0,0.0,120.0,6.0,0.0
13239,73.0,0.0,120.0,6.0,0.0
13240,58.0,120.0,120.0,7.0,0.0
13241,57.0,0.0,120.0,7.0,0.0
13242,72.0,120.0,120.0,6.0,0.0
13243,58.0,0.0,120.0,7.0,0.0
13244,73.0,120.0,120.0,6.0,0.0
13245,56.0,0.0,120.0,7.0,0.0
13246,72.0,120.0,120.0,6.0,0.0
13247,55.0,0.0,120.0,7.0,0.0
13248,70.0,120.0,120.0,6.0,0.0
13249,53.0,0.0,120.0,7.0,0.0
13250,68.0,120.0,120.0,6.0,0.0
13251,70.0,0.0,120.0,6.0,0.0
13252,55.0,120.0,120.0,7.0,0.0
13253,68.0,120.0,120.0,6.0,0.0
13254,53.0,0.0,120.0,7.0,0.0
13255,51.0,0.0,120.0,7.0,0.0
13256,67.0,120.0,120.0,6.0,0.0
13257,50.0,0.0,120.0,7.0,0.0
13258,65.0,120.0,120.0,6.0,0.0
13259,51.0,120.0,120.0,7.0,0.0
13260,39.0,48.0,390.0,14.0,0.0
13261,51.0,0.0,390.0,13.0,0.0
13262,63.0,0.0,1920.0,6.0,0.0
13263,75.0,0.0,960.0,1.0,0.0
13264,87.0,120.0,960.0,0.0,0.0
13265,63.0,0.0,960.0,2.0,0.0
13266,60.0,120.0,120.0,7.0,0.0
13267,56.0,0.0,180.0,11.0,0.0
13268,51.0,0.0,180.0,12.0,0.0
13269,60.0,48.0,180.0,10.0,0.0
13270,56.0,24.0,120.0,7.0,0.0
13271,60.0,120.0,120.0,7.0,0.0
13272,60.0,0.0,180.0,10.0,0.0
13273,56.0,0.0,180.0,11.0,0.0
13274,51.0,72.0,120.0,7.0,0.0
13275,51.0,48.0,180.0,12.0,0.0
13276,60.0,120.0,120.0,7.0,0.0
13277,56.0,0.0,180.0,11.0,0.0
13278,56.0,72.0,120.0,7.0,0.0
13279,51.0,0.0,180.0,12.0,0.0
13280,60.0,48.0,180.0,10.0,0.0
13281,60.0,0.0,120.0,7.0,0.0
13282,51.0,48.0,180.0,12.0,0.0
13283,60.0,0.0,180.0,10.0,0.0
13284,56.0,0.0,180.0,11.0,0.0
13285,60.0,0.0,480.0,2.0,0.0
13286,51.0,72.0,120.0,7.0,0.0
13287,72.0,0.0,480.0,1.0,0.0
13288,84.0,0.0,480.0,0.0,0.0
13289,60.0,120.0,120.0,7.0,0.0
13290,60.0,0.0,180.0,10.0,0.0
13291,51.0,0.0,180.0,12.0,0.0
13292,56.0,72.0,120.0,7.0,0.0
13293,56.0,48.0,180.0,11.0,0.0
13294,60.0,120.0,120.0,7.0,0.0
13295,80.0,0.0,480.0,0.0,0.0
13296,68.0,120.0,480.0,1.0,0.0
13297,56.0,0.0,180.0,11.0,0.0
13298,51.0,48.0,180.0,12.0,0.0
13299,60.0,0.0,180.0,10.0,0.0
13300,51.0,72.0,120.0,7.0,0.0
13301,56.0,0.0,480.0,2.0,0.0
13302,60.0,120.0,120.0,7.0,0.0
13303,56.0,72.0,120.0,7.0,0.0
13304,56.0,48.0,180.0,11.0,0.0
13305,51.0,0.0,180.0,12.0,0.0
13306,60.0,0.0,180.0,10.0,0.0
13307,60.0,0.0,120.0,7.0,0.0
13308,51.0,120.0,120.0,7.0,0.0
13309,75.0,0.0,960.0,4.0,0.0
13310,63.0,120.0,960.0,4.0,0.0
13311,84.0,0.0,120.0,6.0,0.0
13312,51.0,0.0,390.0,13.0,0.0
13313,75.0,48.0,390.0,0.0,0.0
13314,63.0,0.0,960.0,3.0,0.0
13315,51.0,0.0,960.0,3.0,0.0
13316,51.0,72.0,300.0,2.0,0.0
13317,39.0,0.0,960.0,2.0,0.0
13318,63.0,0.0,390.0,1.0,0.0
13319,39.0,0.0,390.0,14.0,0.0
13320,82.0,48.0,120.0,6.0,0.0
13321,60.0,0.0,120.0,7.0,0.0
13322,56.0,48.0,180.0,11.0,0.0
13323,56.0,0.0,120.0,7.0,0.0
13324,60.0,0.0,180.0,10.0,0.0
13325,51.0,0.0,180.0,12.0,0.0
13326,80.0,24.0,120.0,6.0,0.0
13327,79.0,0.0,120.0,6.0,0.0
13328,60.0,120.0,120.0,7.0,0.0
13329,60.0,48.0,180.0,10.0,0.0
13330,51.0,0.0,180.0,12.0,0.0
13331,77.0,72.0,120.0,6.0,0.0
13332,51.0,0.0,120.0,7.0,0.0
13333,56.0,0.0,180.0,11.0,0.0
13334,60.0,120.0,120.0,7.0,0.0
13335,75.0,0.0,120.0,6.0,0.0
13336,51.0,0.0,180.0,12.0,0.0
13337,56.0,48.0,180.0,11.0,0.0
13338,73.0,72.0,120.0,6.0,0.0
13339,56.0,0.0,120.0,7.0,0.0
13340,60.0,0.0,180.0,10.0,0.0
13341,60.0,0.0,120.0,7.0,0.0
13342,72.0,0.0,120.0,6.0,0.0
13343,80.0,72.0,120.0,6.0,0.0
13344,51.0,48.0,180.0,12.0,0.0
13345,48.0,120.0,480.0,3.0,0.0
13346,60.0,0.0,480.0,3.0,0.0
13347,60.0,0.0,180.0,10.0,0.0
13348,51.0,0.0,120.0,7.0,0.0
13349,36.0,0.0,480.0,2.0,0.0
13350,56.0,0.0,180.0,11.0,0.0
13351,60.0,0.0,480.0,4.0,0.0
13352,72.0,0.0,480.0,4.0,0.0
13353,60.0,0.0,120.0,7.0,0.0
13354,79.0,120.0,120.0,6.0,0.0
13355,56.0,72.0,120.0,7.0,0.0
13356,51.0,0.0,180.0,12.0,0.0
13357,77.0,0.0,120.0,6.0,0.0
13358,60.0,48.0,180.0,10.0,0.0
13359,56.0,0.0,180.0,11.0,0.0
13360,75.0,0.0,120.0,6.0,0.0
13361,60.0,0.0,120.0,7.0,0.0
13362,68.0,0.0,480.0,4.0,0.0
13363,60.0,0.0,180.0,10.0,0.0
13364,32.0,0.0,480.0,2.0,0.0
13365,51.0,0.0,120.0,7.0,0.0
13366,56.0,120.0,480.0,4.0,0.0
13367,51.0,0.0,180.0,12.0,0.0
13368,73.0,72.0,120.0,6.0,0.0
13369,56.0,0.0,480.0,3.0,0.0
13370,44.0,0.0,480.0,3.0,0.0
13371,56.0,48.0,180.0,11.0,0.0
13372,72.0,120.0,120.0,6.0,0.0
13373,60.0,0.0,120.0,7.0,0.0
13374,70.0,0.0,120.0,6.0,0.0
13375,56.0,72.0,120.0,7.0,0.0
13376,60.0,0.0,180.0,10.0,0.0
13377,56.0,0.0,180.0,11.0,0.0
13378,51.0,48.0,180.0,12.0,0.0
13379,68.0,0.0,120.0,6.0,0.0
13380,60.0,0.0,120.0,7.0,0.0
13381,39.0,0.0,3840.0,3.0,0.0
13382,70.0,38.0,3810.0,1.0,0.0
13383,68.0,38.0,1890.0,1.0,0.0
13384,51.0,72.0,120.0,7.0,0.0
13385,39.0,0.0,180.0,14.0,0.0
13386,69.0,0.0,120.0,6.0,0.0
13387,39.0,0.0,390.0,2.0,0.0
13388,51.0,48.0,180.0,13.0,0.0
13389,63.0,48.0,390.0,4.0,0.0
13390,51.0,0.0,390.0,4.0,0.0
13391,81.0,0.0,120.0,6.0,0.0
13392,61.0,120.0,120.0,7.0,0.0
13393,51.0,0.0,180.0,12.0,0.0
13394,70.0,24.0,120.0,6.0,0.0
13395,56.0,0.0,120.0,7.0,0.0
13396,58.0,0.0,180.0,10.0,0.0
13397,39.0,0.0,180.0,14.0,0.0
13398,51.0,0.0,180.0,13.0,0.0
13399,56.0,48.0,180.0,11.0,0.0
13400,61.0,120.0,120.0,7.0,0.0
13401,82.0,0.0,120.0,6.0,0.0
13402,51.0,0.0,180.0,12.0,0.0
13403,39.0,48.0,180.0,14.0,0.0
13404,56.0,0.0,180.0,11.0,0.0
13405,58.0,0.0,180.0,10.0,0.0
13406,69.0,0.0,120.0,6.0,0.0
13407,51.0,72.0,120.0,7.0,0.0
13408,51.0,0.0,180.0,13.0,0.0
13409,81.0,0.0,120.0,6.0,0.0
13410,61.0,120.0,120.0,7.0,0.0
13411,56.0,0.0,180.0,11.0,0.0
13412,56.0,72.0,120.0,7.0,0.0
13413,58.0,48.0,180.0,10.0,0.0
13414,39.0,0.0,180.0,14.0,0.0
13415,70.0,0.0,120.0,6.0,0.0
13416,51.0,0.0,180.0,13.0,0.0
13417,51.0,0.0,180.0,12.0,0.0
13418,82.0,0.0,120.0,6.0,0.0
13419,61.0,120.0,120.0,7.0,0.0
13420,51.0,0.0,120.0,7.0,0.0
13421,56.0,0.0,180.0,11.0,0.0
13422,51.0,48.0,180.0,13.0,0.0
13423,58.0,0.0,180.0,10.0,0.0
13424,39.0,0.0,180.0,14.0,0.0
13425,51.0,0.0,180.0,12.0,0.0
13426,69.0,72.0,120.0,6.0,0.0
13427,61.0,120.0,120.0,7.0,0.0
13428,81.0,0.0,120.0,6.0,0.0
13429,70.0,72.0,120.0,6.0,0.0
13430,58.0,0.0,180.0,10.0,0.0
13431,39.0,0.0,180.0,14.0,0.0
13432,56.0,0.0,120.0,7.0,0.0
13433,51.0,0.0,180.0,12.0,0.0
13434,51.0,48.0,180.0,13.0,0.0
13435,56.0,0.0,180.0,11.0,0.0
13436,82.0,0.0,120.0,6.0,0.0
13437,61.0,120.0,120.0,7.0,0.0
13438,73.0,0.0,120.0,6.0,0.0
13439,51.0,0.0,180.0,12.0,0.0
13440,51.0,72.0,120.0,7.0,0.0
13441,39.0,48.0,180.0,14.0,0.0
13442,58.0,0.0,180.0,10.0,0.0
13443,51.0,0.0,180.0,13.0,0.0
13444,56.0,0.0,180.0,11.0,0.0
13445,85.0,120.0,120.0,6.0,0.0
13446,61.0,0.0,120.0,7.0,0.0
13447,51.0,10.0,180.0,13.0,0.0
13448,56.0,72.0,120.0,7.0,0.0
13449,51.0,0.0,180.0,12.0,0.0
13450,56.0,0.0,180.0,11.0,0.0
13451,58.0,0.0,180.0,10.0,0.0
13452,39.0,0.0,180.0,14.0,0.0
13453,82.0,0.0,60.0,6.0,0.0
13454,61.0,60.0,120.0,7.0,0.0
13455,51.0,60.0,120.0,7.0,0.0
13456,79.0,0.0,1890.0,0.0,0.0
13457,39.0,0.0,180.0,14.0,0.0
13458,84.0,60.0,60.0,6.0,0.0
13459,67.0,0.0,1890.0,1.0,0.0
13460,55.0,0.0,180.0,11.0,0.0
13461,51.0,0.0,180.0,13.0,0.0
13462,49.0,48.0,180.0,12.0,0.0
13463,51.0,0.0,180.0,12.0,0.0
13464,58.0,0.0,180.0,10.0,0.0
13465,82.0,0.0,60.0,6.0,0.0
13466,61.0,60.0,120.0,7.0,0.0
13467,84.0,12.0,60.0,6.0,0.0
13468,82.0,0.0,60.0,6.0,0.0
13469,51.0,0.0,180.0,12.0,0.0
13470,55.0,0.0,180.0,11.0,0.0
13471,51.0,0.0,180.0,13.0,0.0
13472,49.0,48.0,180.0,12.0,0.0
13473,55.0,0.0,120.0,7.0,0.0
13474,39.0,0.0,180.0,14.0,0.0
13475,84.0,60.0,60.0,6.0,0.0
13476,58.0,0.0,180.0,10.0,0.0
13477,82.0,60.0,60.0,6.0,0.0
13478,84.0,12.0,60.0,6.0,0.0
13479,61.0,0.0,120.0,7.0,0.0
13480,82.0,60.0,60.0,6.0,0.0
13481,58.0,0.0,180.0,10.0,0.0
13482,55.0,0.0,180.0,11.0,0.0
13483,39.0,0.0,180.0,14.0,0.0
13484,51.0,48.0,180.0,13.0,0.0
13485,51.0,0.0,180.0,12.0,0.0
13486,49.0,0.0,180.0,12.0,0.0
13487,51.0,60.0,120.0,7.0,0.0
13488,84.0,60.0,60.0,6.0,0.0
13489,82.0,0.0,60.0,6.0,0.0
13490,84.0,12.0,60.0,6.0,0.0
13491,61.0,60.0,120.0,7.0,0.0
13492,82.0,0.0,60.0,6.0,0.0
13493,58.0,0.0,180.0,10.0,0.0
13494,51.0,48.0,180.0,12.0,0.0
13495,84.0,60.0,60.0,6.0,0.0
13496,49.0,0.0,180.0,12.0,0.0
13497,55.0,0.0,180.0,11.0,0.0
13498,39.0,0.0,180.0,14.0,0.0
13499,55.0,60.0,120.0,7.0,0.0
13500,51.0,0.0,180.0,13.0,0.0
13501,82.0,0.0,60.0,6.0,0.0
13502,61.0,60.0,120.0,7.0,0.0
13503,84.0,12.0,60.0,6.0,0.0
13504,82.0,0.0,60.0,6.0,0.0
13505,55.0,48.0,180.0,11.0,0.0
13506,84.0,60.0,60.0,6.0,0.0
13507,58.0,0.0,180.0,10.0,0.0
13508,51.0,0.0,180.0,12.0,0.0
13509,49.0,0.0,180.0,12.0,0.0
13510,39.0,0.0,180.0,14.0,0.0
13511,51.0,0.0,180.0,13.0,0.0
13512,51.0,0.0,120.0,7.0,0.0
13513,82.0,60.0,60.0,6.0,0.0
13514,61.0,0.0,120.0,7.0,0.0
13515,84.0,12.0,60.0,6.0,0.0
13516,82.0,60.0,60.0,6.0,0.0
13517,58.0,48.0,180.0,10.0,0.0
13518,51.0,0.0,180.0,13.0,0.0
13519,49.0,0.0,180.0,12.0,0.0
13520,51.0,0.0,180.0,12.0,0.0
13521,84.0,60.0,60.0,6.0,0.0
13522,55.0,0.0,120.0,7.0,0.0
13523,55.0,0.0,180.0,11.0,0.0
13524,39.0,0.0,180.0,14.0,0.0
13525,82.0,60.0,60.0,6.0,0.0
13526,61.0,60.0,120.0,7.0,0.0
13527,84.0,12.0,60.0,6.0,0.0
13528,82.0,0.0,60.0,6.0,0.0
13529,84.0,60.0,60.0,6.0,0.0
13530,55.0,0.0,180.0,11.0,0.0
13531,51.0,48.0,180.0,13.0,0.0
13532,51.0,0.0,180.0,12.0,0.0
13533,49.0,0.0,180.0,12.0,0.0
13534,58.0,0.0,180.0,10.0,0.0
13535,51.0,60.0,120.0,7.0,0.0
13536,39.0,0.0,180.0,14.0,0.0
13537,82.0,0.0,60.0,6.0,0.0
13538,84.0,12.0,60.0,6.0,0.0
13539,61.0,0.0,120.0,7.0,0.0
13540,82.0,60.0,60.0,6.0,0.0
13541,39.0,0.0,180.0,14.0,0.0
13542,51.0,0.0,180.0,12.0,0.0
13543,49.0,0.0,180.0,12.0,0.0
13544,51.0,10.0,180.0,13.0,0.0
13545,58.0,0.0,180.0,10.0,0.0
13546,84.0,60.0,60.0,6.0,0.0
13547,55.0,0.0,180.0,11.0,0.0
13548,55.0,0.0,120.0,7.0,0.0
13549,82.0,60.0,60.0,6.0,0.0
13550,61.0,0.0,120.0,7.0,0.0
13551,80.0,12.0,60.0,6.0,0.0
13552,82.0,96.0,60.0,6.0,0.0
13553,44.0,0.0,180.0,2.0,0.0
13554,44.0,0.0,180.0,13.0,0.0
13555,51.0,0.0,15.0,3.0,0.0
13556,72.0,0.0,90.0,11.0,0.0
13557,48.0,0.0,180.0,12.0,0.0
13558,51.0,0.0,180.0,12.0,0.0
13559,60.0,0.0,390.0,7.0,0.0
13560,32.0,24.0,180.0,14.0,0.0
13561,80.0,96.0,90.0,10.0,0.0
13562,80.0,106.0,2400.0,0.0,0.0
13563,44.0,0.0,390.0,5.0,0.0
13564,44.0,0.0,390.0,3.0,0.0
13565,80.0,0.0,390.0,6.0,0.0
13566,68.0,0.0,2400.0,1.0,0.0
13567,63.0,72.0,390.0,4.0,0.0
13568,56.0,0.0,390.0,4.0,0.0
13569,72.0,14.0,1890.0,1.0,0.0
13570,56.0,0.0,390.0,7.0,0.0
13571,72.0,0.0,90.0,11.0,0.0
13572,80.0,120.0,90.0,10.0,0.0
13573,80.0,0.0,90.0,10.0,0.0
13574,72.0,48.0,90.0,11.0,0.0
13575,80.0,120.0,90.0,10.0,0.0
13576,72.0,0.0,90.0,11.0,0.0
13577,39.0,24.0,180.0,13.0,0.0
13578,27.0,0.0,180.0,14.0,0.0
13579,80.0,0.0,90.0,10.0,0.0
13580,51.0,0.0,180.0,12.0,0.0
13581,72.0,96.0,90.0,11.0,0.0
13582,39.0,0.0,180.0,2.0,0.0
13583,80.0,0.0,90.0,10.0,0.0
13584,72.0,120.0,90.0,11.0,0.0
13585,72.0,0.0,90.0,11.0,0.0
13586,80.0,120.0,90.0,10.0,0.0
13587,72.0,0.0,90.0,11.0,0.0
13588,80.0,120.0,90.0,10.0,0.0
13589,56.0,0.0,180.0,12.0,0.0
13590,44.0,0.0,180.0,13.0,0.0
13591,44.0,0.0,180.0,2.0,0.0
13592,72.0,96.0,90.0,11.0,0.0
13593,32.0,24.0,180.0,14.0,0.0
13594,80.0,0.0,90.0,10.0,0.0
13595,72.0,0.0,90.0,11.0,0.0
13596,80.0,120.0,90.0,10.0,0.0
13597,80.0,120.0,90.0,10.0,0.0
13598,72.0,0.0,90.0,11.0,0.0
13599,72.0,120.0,90.0,11.0,0.0
13600,80.0,0.0,90.0,10.0,0.0
13601,80.0,0.0,90.0,10.0,0.0
13602,60.0,0.0,180.0,12.0,0.0
13603,48.0,24.0,180.0,2.0,0.0
13604,36.0,0.0,180.0,14.0,0.0
13605,72.0,96.0,90.0,11.0,0.0
13606,48.0,0.0,180.0,13.0,0.0
13607,72.0,120.0,90.0,11.0,0.0
13608,80.0,0.0,90.0,10.0,0.0
13609,72.0,106.0,90.0,11.0,0.0
13610,80.0,0.0,90.0,10.0,0.0
13611,80.0,0.0,90.0,10.0,0.0
13612,72.0,120.0,90.0,11.0,0.0
13613,51.0,0.0,780.0,4.0,0.0
13614,63.0,32.0,780.0,4.0,0.0
13615,39.0,0.0,780.0,3.0,0.0
13616,51.0,0.0,780.0,3.0,0.0
13617,70.0,120.0,90.0,11.0,0.0
13618,49.0,48.0,720.0,2.0,0.0
13619,80.0,0.0,90.0,10.0,0.0
13620,37.0,0.0,720.0,14.0,0.0
13621,39.0,0.0,780.0,5.0,0.0
13622,61.0,0.0,720.0,12.0,0.0
13623,49.0,0.0,720.0,13.0,0.0
13624,70.0,4.0,1410.0,1.0,0.0
13625,80.0,0.0,90.0,10.0,0.0
13626,70.0,120.0,90.0,11.0,0.0
13627,80.0,0.0,90.0,10.0,0.0
13628,70.0,120.0,90.0,11.0,0.0
13629,80.0,14.0,90.0,10.0,0.0
13630,70.0,0.0,90.0,11.0,0.0
13631,70.0,120.0,90.0,11.0,0.0
13632,77.0,0.0,90.0,10.0,0.0
13633,65.0,0.0,480.0,1.0,0.0
13634,77.0,10.0,480.0,0.0,0.0
13635,70.0,24.0,90.0,11.0,0.0
13636,77.0,0.0,90.0,10.0,0.0
13637,48.0,0.0,90.0,13.0,0.0
13638,70.0,0.0,90.0,11.0,0.0
13639,48.0,0.0,90.0,2.0,0.0
13640,60.0,16.0,90.0,12.0,0.0
13641,36.0,0.0,90.0,14.0,0.0
13642,77.0,64.0,90.0,10.0,0.0
13643,46.0,56.0,90.0,2.0,0.0
13644,58.0,0.0,90.0,12.0,0.0
13645,46.0,0.0,90.0,13.0,0.0
13646,34.0,0.0,90.0,14.0,0.0
13647,70.0,14.0,90.0,11.0,0.0
13648,77.0,0.0,90.0,10.0,0.0
13649,44.0,96.0,90.0,2.0,0.0
13650,44.0,0.0,90.0,13.0,0.0
13651,56.0,0.0,90.0,12.0,0.0
13652,32.0,0.0,90.0,14.0,0.0
13653,63.0,0.0,390.0,4.0,0.0
13654,39.0,0.0,390.0,3.0,0.0
13655,51.0,0.0,390.0,3.0,0.0
13656,51.0,68.0,390.0,4.0,0.0
13657,79.0,0.0,90.0,10.0,0.0
13658,43.0,0.0,390.0,13.0,0.0
13659,67.0,106.0,480.0,1.0,0.0
13660,39.0,0.0,390.0,5.0,0.0
13661,31.0,0.0,390.0,14.0,0.0
13662,55.0,0.0,390.0,12.0,0.0
13663,79.0,0.0,480.0,0.0,0.0
13664,43.0,0.0,390.0,2.0,0.0
13665,70.0,120.0,90.0,11.0,0.0
13666,70.0,0.0,90.0,11.0,0.0
13667,79.0,120.0,90.0,10.0,0.0
13668,79.0,0.0,90.0,10.0,0.0
13669,70.0,48.0,90.0,11.0,0.0
13670,70.0,14.0,90.0,11.0,0.0
13671,79.0,0.0,90.0,10.0,0.0
13672,81.0,106.0,480.0,0.0,0.0
13673,81.0,120.0,90.0,10.0,0.0
13674,72.0,0.0,480.0,1.0,0.0
13675,39.0,0.0,390.0,5.0,0.0
13676,51.0,72.0,390.0,4.0,0.0
13677,51.0,0.0,390.0,3.0,0.0
13678,63.0,0.0,390.0,4.0,0.0
13679,39.0,0.0,390.0,3.0,0.0
13680,72.0,0.0,90.0,11.0,0.0
13681,69.0,0.0,480.0,1.0,0.0
13682,81.0,0.0,90.0,10.0,0.0
13683,72.0,120.0,90.0,11.0,0.0
13684,81.0,48.0,90.0,10.0,0.0
13685,72.0,0.0,90.0,11.0,0.0
13686,72.0,0.0,90.0,11.0,0.0
13687,81.0,0.0,90.0,10.0,0.0
13688,27.0,0.0,90.0,14.0,0.0
13689,39.0,0.0,90.0,2.0,0.0
13690,51.0,14.0,90.0,12.0,0.0
13691,39.0,0.0,90.0,13.0,0.0
13692,39.0,72.0,390.0,5.0,0.0
13693,43.0,24.0,180.0,13.0,0.0
13694,31.0,0.0,180.0,14.0,0.0
13695,51.0,0.0,390.0,3.0,0.0
13696,39.0,0.0,390.0,3.0,0.0
13697,63.0,0.0,390.0,4.0,0.0
13698,73.0,14.0,1890.0,1.0,0.0
13699,73.0,0.0,90.0,11.0,0.0
13700,82.0,96.0,90.0,10.0,0.0
13701,82.0,0.0,2400.0,0.0,0.0
13702,55.0,0.0,180.0,12.0,0.0
13703,70.0,106.0,2400.0,1.0,0.0
13704,43.0,0.0,180.0,2.0,0.0
13705,51.0,0.0,390.0,4.0,0.0
13706,82.0,0.0,90.0,10.0,0.0
13707,73.0,120.0,90.0,11.0,0.0
13708,82.0,48.0,90.0,10.0,0.0
13709,73.0,0.0,90.0,11.0,0.0
13710,82.0,120.0,90.0,10.0,0.0
13711,73.0,0.0,90.0,11.0,0.0
13712,82.0,96.0,90.0,10.0,0.0
13713,58.0,0.0,180.0,12.0,0.0
13714,46.0,24.0,180.0,2.0,0.0
13715,34.0,0.0,180.0,14.0,0.0
13716,73.0,0.0,90.0,11.0,0.0
13717,46.0,0.0,180.0,13.0,0.0
13718,73.0,120.0,90.0,11.0,0.0
13719,82.0,0.0,90.0,10.0,0.0
13720,73.0,0.0,90.0,11.0,0.0
13721,82.0,120.0,90.0,10.0,0.0
13722,82.0,120.0,90.0,10.0,0.0
13723,73.0,0.0,90.0,11.0,0.0
13724,61.0,0.0,180.0,12.0,0.0
13725,82.0,0.0,90.0,10.0,0.0
13726,37.0,24.0,180.0,14.0,0.0
13727,73.0,96.0,90.0,11.0,0.0
13728,49.0,0.0,180.0,2.0,0.0
13729,49.0,0.0,180.0,13.0,0.0
13730,82.0,0.0,90.0,10.0,0.0
13731,73.0,120.0,90.0,11.0,0.0
13732,73.0,120.0,90.0,11.0,0.0
13733,82.0,0.0,90.0,10.0,0.0
13734,82.0,120.0,90.0,10.0,0.0
13735,73.0,0.0,90.0,11.0,0.0
13736,58.0,0.0,180.0,12.0,0.0
13737,46.0,0.0,180.0,13.0,0.0
13738,46.0,0.0,180.0,2.0,0.0
13739,34.0,24.0,180.0,14.0,0.0
13740,82.0,0.0,90.0,10.0,0.0
13741,73.0,96.0,90.0,11.0,0.0
13742,82.0,120.0,90.0,10.0,0.0
13743,73.0,0.0,90.0,11.0,0.0
13744,82.0,0.0,90.0,10.0,0.0
13745,73.0,106.0,90.0,11.0,0.0
13746,82.0,120.0,90.0,10.0,0.0
13747,73.0,0.0,90.0,11.0,0.0
13748,82.0,0.0,90.0,10.0,0.0
13749,39.0,0.0,780.0,3.0,0.0
13750,51.0,0.0,780.0,3.0,0.0
13751,63.0,0.0,780.0,4.0,0.0
13752,39.0,0.0,720.0,14.0,0.0
13753,51.0,0.0,720.0,13.0,0.0
13754,39.0,32.0,780.0,5.0,0.0
13755,72.0,120.0,90.0,11.0,0.0
13756,72.0,10.0,930.0,1.0,0.0
13757,63.0,48.0,720.0,12.0,0.0
13758,51.0,0.0,720.0,2.0,0.0
13759,51.0,0.0,780.0,4.0,0.0
13760,72.0,0.0,90.0,11.0,0.0
13761,82.0,120.0,90.0,10.0,0.0
13762,82.0,0.0,90.0,10.0,0.0
13763,72.0,120.0,90.0,11.0,0.0
13764,72.0,0.0,90.0,11.0,0.0
13765,82.0,14.0,90.0,10.0,0.0
13766,79.0,120.0,90.0,10.0,0.0
13767,72.0,0.0,90.0,11.0,0.0
13768,67.0,0.0,480.0,1.0,0.0
13769,79.0,10.0,480.0,0.0,0.0
13770,72.0,24.0,90.0,11.0,0.0
13771,79.0,0.0,90.0,10.0,0.0
13772,72.0,0.0,90.0,11.0,0.0
13773,53.0,0.0,90.0,13.0,0.0
13774,65.0,0.0,90.0,12.0,0.0
13775,41.0,0.0,90.0,14.0,0.0
13776,79.0,64.0,90.0,10.0,0.0
13777,53.0,16.0,90.0,2.0,0.0
13778,51.0,0.0,90.0,13.0,0.0
13779,63.0,0.0,90.0,12.0,0.0
13780,39.0,0.0,90.0,14.0,0.0
13781,51.0,56.0,90.0,2.0,0.0
13782,72.0,0.0,90.0,11.0,0.0
13783,79.0,4.0,90.0,10.0,0.0
13784,37.0,0.0,90.0,14.0,0.0
13785,49.0,96.0,90.0,13.0,0.0
13786,61.0,0.0,90.0,12.0,0.0
13787,49.0,0.0,90.0,2.0,0.0
13788,68.0,106.0,480.0,1.0,0.0
13789,60.0,0.0,390.0,12.0,0.0
13790,75.0,0.0,480.0,1.0,0.0
13791,80.0,120.0,90.0,10.0,0.0
13792,48.0,0.0,390.0,2.0,0.0
13793,68.0,0.0,390.0,4.0,0.0
13794,44.0,0.0,390.0,5.0,0.0
13795,56.0,0.0,390.0,4.0,0.0
13796,75.0,0.0,90.0,11.0,0.0
13797,44.0,0.0,390.0,3.0,0.0
13798,48.0,0.0,390.0,13.0,0.0
13799,36.0,72.0,390.0,14.0,0.0
13800,80.0,0.0,480.0,0.0,0.0
13801,56.0,0.0,390.0,3.0,0.0
13802,75.0,120.0,90.0,11.0,0.0
13803,80.0,0.0,90.0,10.0,0.0
13804,80.0,48.0,90.0,10.0,0.0
13805,75.0,0.0,90.0,11.0,0.0
13806,80.0,0.0,90.0,10.0,0.0
13807,75.0,14.0,90.0,11.0,0.0
13808,39.0,0.0,390.0,5.0,0.0
13809,70.0,72.0,390.0,4.0,0.0
13810,63.0,0.0,390.0,4.0,0.0
13811,82.0,120.0,90.0,10.0,0.0
13812,51.0,0.0,390.0,3.0,0.0
13813,58.0,0.0,390.0,3.0,0.0
13814,79.0,0.0,90.0,11.0,0.0
13815,79.0,106.0,480.0,1.0,0.0
13816,82.0,0.0,480.0,0.0,0.0
13817,70.0,0.0,480.0,1.0,0.0
13818,79.0,120.0,90.0,11.0,0.0
13819,82.0,0.0,90.0,10.0,0.0
13820,82.0,48.0,90.0,10.0,0.0
13821,79.0,0.0,90.0,11.0,0.0
13822,82.0,0.0,90.0,10.0,0.0
13823,79.0,14.0,90.0,11.0,0.0
13824,51.0,0.0,90.0,13.0,0.0
13825,63.0,0.0,90.0,12.0,0.0
13826,51.0,0.0,90.0,2.0,0.0
13827,39.0,0.0,90.0,14.0,0.0
13828,56.0,0.0,180.0,12.0,0.0
13829,68.0,72.0,390.0,4.0,0.0
13830,83.0,0.0,10080.0,0.0,0.0
13831,56.0,0.0,390.0,3.0,0.0
13832,44.0,0.0,390.0,3.0,0.0
13833,44.0,0.0,180.0,2.0,0.0
13834,32.0,24.0,180.0,14.0,0.0
13835,83.0,0.0,90.0,10.0,0.0
13836,44.0,0.0,390.0,5.0,0.0
13837,44.0,0.0,180.0,13.0,0.0
13838,80.0,0.0,1890.0,1.0,0.0
13839,71.0,14.0,1890.0,1.0,0.0
13840,56.0,0.0,390.0,4.0,0.0
13841,80.0,96.0,90.0,11.0,0.0
13842,80.0,120.0,90.0,11.0,0.0
13843,83.0,0.0,90.0,10.0,0.0
13844,80.0,48.0,90.0,11.0,0.0
13845,83.0,0.0,90.0,10.0,0.0
13846,83.0,120.0,90.0,10.0,0.0
13847,80.0,0.0,90.0,11.0,0.0
13848,47.0,0.0,180.0,2.0,0.0
13849,59.0,0.0,180.0,12.0,0.0
13850,47.0,0.0,180.0,13.0,0.0
13851,44.0,48.0,300.0,5.0,0.0
13852,35.0,24.0,180.0,14.0,0.0
13853,83.0,96.0,90.0,10.0,0.0
13854,80.0,0.0,90.0,11.0,0.0
13855,80.0,0.0,90.0,11.0,0.0
13856,83.0,72.0,90.0,10.0,0.0
13857,83.0,0.0,90.0,10.0,0.0
13858,80.0,120.0,90.0,11.0,0.0
13859,44.0,0.0,90.0,5.0,0.0
13860,83.0,120.0,90.0,10.0,0.0
13861,80.0,0.0,90.0,11.0,0.0
13862,51.0,24.0,180.0,2.0,0.0
13863,51.0,0.0,180.0,13.0,0.0
13864,44.0,72.0,390.0,5.0,0.0
13865,39.0,0.0,180.0,14.0,0.0
13866,80.0,0.0,90.0,11.0,0.0
13867,63.0,0.0,180.0,12.0,0.0
13868,83.0,96.0,90.0,10.0,0.0
13869,83.0,0.0,90.0,10.0,0.0
13870,80.0,120.0,90.0,11.0,0.0
13871,83.0,0.0,90.0,10.0,0.0
13872,80.0,48.0,90.0,11.0,0.0
13873,83.0,120.0,90.0,10.0,0.0
13874,80.0,0.0,90.0,11.0,0.0
13875,68.0,0.0,180.0,12.0,0.0
13876,83.0,0.0,90.0,10.0,0.0
13877,44.0,0.0,180.0,14.0,0.0
13878,44.0,58.0,390.0,5.0,0.0
13879,56.0,24.0,180.0,2.0,0.0
13880,56.0,0.0,180.0,13.0,0.0
13881,80.0,96.0,90.0,11.0,0.0
13882,83.0,0.0,90.0,10.0,0.0
13883,80.0,120.0,90.0,11.0,0.0
13884,80.0,48.0,90.0,11.0,0.0
13885,83.0,0.0,90.0,10.0,0.0
13886,80.0,0.0,90.0,11.0,0.0
13887,83.0,120.0,90.0,10.0,0.0
13888,52.0,96.0,1920.0,2.0,0.0
13889,64.0,0.0,1920.0,1.0,0.0
13890,56.0,72.0,390.0,3.0,0.0
13891,44.0,0.0,390.0,3.0,0.0
13892,52.0,0.0,930.0,13.0,0.0
13893,83.0,120.0,90.0,10.0,0.0
13894,56.0,0.0,390.0,4.0,0.0
13895,68.0,0.0,390.0,4.0,0.0
13896,64.0,0.0,930.0,12.0,0.0
13897,80.0,0.0,90.0,11.0,0.0
13898,40.0,116.0,930.0,14.0,0.0
13899,56.0,0.0,1920.0,2.0,0.0
13900,68.0,0.0,1920.0,1.0,0.0
13901,44.0,0.0,390.0,5.0,0.0
13902,71.0,0.0,90.0,10.0,0.0
13903,68.0,120.0,90.0,11.0,0.0
13904,71.0,0.0,90.0,10.0,0.0
13905,68.0,48.0,90.0,11.0,0.0
13906,71.0,0.0,90.0,10.0,0.0
13907,68.0,120.0,90.0,11.0,0.0
13908,71.0,0.0,90.0,10.0,0.0
13909,68.0,120.0,90.0,11.0,0.0
13910,71.0,120.0,90.0,10.0,0.0
13911,68.0,0.0,90.0,11.0,0.0
13912,68.0,0.0,90.0,11.0,0.0
13913,71.0,120.0,90.0,10.0,0.0
13914,68.0,4.0,90.0,11.0,0.0
13915,71.0,0.0,90.0,10.0,0.0
13916,71.0,0.0,90.0,10.0,0.0
13917,68.0,120.0,90.0,11.0,0.0
13918,71.0,0.0,90.0,10.0,0.0
13919,68.0,120.0,90.0,11.0,0.0
13920,71.0,0.0,90.0,10.0,0.0
13921,68.0,120.0,90.0,11.0,0.0
13922,68.0,120.0,90.0,11.0,0.0
13923,71.0,0.0,90.0,10.0,0.0
13924,71.0,0.0,90.0,10.0,0.0
13925,40.0,0.0,390.0,13.0,0.0
13926,68.0,120.0,90.0,11.0,0.0
13927,28.0,72.0,390.0,14.0,0.0
13928,52.0,0.0,390.0,12.0,0.0
13929,68.0,120.0,90.0,11.0,0.0
13930,71.0,0.0,90.0,10.0,0.0
13931,68.0,0.0,90.0,11.0,0.0
13932,71.0,48.0,90.0,10.0,0.0
13933,71.0,0.0,90.0,10.0,0.0
13934,68.0,24.0,90.0,11.0,0.0
13935,51.0,0.0,930.0,12.0,0.0
13936,66.0,192.0,1920.0,1.0,0.0
13937,69.0,0.0,1920.0,1.0,0.0
13938,69.0,0.0,90.0,11.0,0.0
13939,39.0,0.0,930.0,13.0,0.0
13940,57.0,0.0,1920.0,2.0,0.0
13941,54.0,0.0,1920.0,2.0,0.0
13942,71.0,120.0,90.0,10.0,0.0
13943,27.0,116.0,930.0,14.0,0.0
13944,71.0,120.0,90.0,10.0,0.0
13945,69.0,0.0,90.0,11.0,0.0
13946,69.0,0.0,90.0,11.0,0.0
13947,71.0,120.0,90.0,10.0,0.0
13948,69.0,120.0,90.0,11.0,0.0
13949,71.0,0.0,90.0,10.0,0.0
13950,71.0,120.0,90.0,10.0,0.0
13951,69.0,0.0,90.0,11.0,0.0
13952,69.0,0.0,90.0,11.0,0.0
13953,71.0,120.0,90.0,10.0,0.0
13954,69.0,0.0,90.0,11.0,0.0
13955,71.0,120.0,90.0,10.0,0.0
13956,69.0,0.0,90.0,11.0,0.0
13957,71.0,4.0,90.0,10.0,0.0
13958,69.0,0.0,90.0,11.0,0.0
13959,71.0,120.0,90.0,10.0,0.0
13960,71.0,0.0,90.0,10.0,0.0
13961,69.0,120.0,90.0,11.0,0.0
13962,69.0,120.0,90.0,11.0,0.0
13963,71.0,0.0,90.0,10.0,0.0
13964,71.0,120.0,90.0,10.0,0.0
13965,69.0,0.0,90.0,11.0,0.0
13966,69.0,120.0,90.0,11.0,0.0
13967,71.0,0.0,90.0,10.0,0.0
13968,51.0,72.0,390.0,13.0,0.0
13969,63.0,0.0,390.0,12.0,0.0
13970,39.0,0.0,390.0,14.0,0.0
13971,71.0,0.0,90.0,10.0,0.0
13972,69.0,120.0,90.0,11.0,0.0
13973,69.0,0.0,90.0,11.0,0.0
13974,71.0,48.0,90.0,10.0,0.0
13975,69.0,24.0,90.0,11.0,0.0
13976,71.0,0.0,90.0,10.0,0.0
13977,71.0,276.0,180.0,10.0,0.0
13978,52.0,0.0,480.0,13.0,0.0
13979,40.0,0.0,480.0,14.0,0.0
13980,68.0,0.0,960.0,1.0,0.0
13981,64.0,0.0,960.0,1.0,0.0
13982,56.0,0.0,960.0,2.0,0.0
13983,52.0,0.0,960.0,2.0,0.0
13984,64.0,156.0,480.0,12.0,0.0
13985,68.0,0.0,180.0,11.0,0.0
13986,83.0,252.0,390.0,10.0,0.0
13987,80.0,0.0,390.0,11.0,0.0
13988,83.0,48.0,390.0,10.0,0.0
13989,28.0,84.0,150.0,14.0,0.0
13990,52.0,0.0,150.0,12.0,0.0
13991,80.0,144.0,240.0,11.0,0.0
13992,40.0,0.0,150.0,13.0,0.0
13993,51.0,0.0,480.0,12.0,0.0
13994,39.0,0.0,480.0,13.0,0.0
13995,27.0,156.0,480.0,14.0,0.0
13996,69.0,0.0,960.0,1.0,0.0
13997,57.0,0.0,960.0,2.0,0.0
13998,66.0,0.0,960.0,1.0,0.0
13999,54.0,0.0,960.0,2.0,0.0
14000,81.0,276.0,180.0,11.0,0.0
14001,83.0,252.0,390.0,10.0,0.0
14002,81.0,0.0,390.0,11.0,0.0
14003,51.0,0.0,150.0,13.0,0.0
14004,39.0,84.0,150.0,14.0,0.0
14005,63.0,0.0,150.0,12.0,0.0
14006,83.0,204.0,420.0,10.0,0.0
14007,81.0,156.0,240.0,11.0,0.0
14008,52.0,0.0,150.0,13.0,0.0
14009,52.0,0.0,480.0,2.0,0.0
14010,40.0,0.0,150.0,14.0,0.0
14011,64.0,144.0,480.0,1.0,0.0
14012,80.0,36.0,150.0,11.0,0.0
14013,64.0,0.0,150.0,12.0,0.0
14014,68.0,0.0,480.0,1.0,0.0
14015,56.0,0.0,480.0,2.0,0.0
14016,71.0,12.0,390.0,10.0,0.0
14017,68.0,0.0,150.0,11.0,0.0
14018,52.0,84.0,150.0,12.0,0.0
14019,40.0,0.0,150.0,13.0,0.0
14020,28.0,0.0,150.0,14.0,0.0
14021,66.0,0.0,480.0,1.0,0.0
14022,69.0,0.0,150.0,11.0,0.0
14023,27.0,0.0,150.0,14.0,0.0
14024,54.0,0.0,480.0,2.0,0.0
14025,51.0,240.0,150.0,12.0,0.0
14026,69.0,0.0,480.0,1.0,0.0
14027,57.0,144.0,480.0,2.0,0.0
14028,39.0,0.0,150.0,13.0,0.0
14029,51.0,0.0,150.0,13.0,0.0
14030,71.0,12.0,390.0,10.0,0.0
14031,39.0,0.0,150.0,14.0,0.0
14032,63.0,84.0,150.0,12.0,0.0
14033,69.0,0.0,150.0,11.0,0.0
14034,68.0,0.0,150.0,11.0,0.0
14035,68.0,144.0,480.0,1.0,0.0
14036,52.0,240.0,150.0,13.0,0.0
14037,64.0,0.0,150.0,12.0,0.0
14038,64.0,0.0,480.0,1.0,0.0
14039,56.0,0.0,480.0,2.0,0.0
14040,40.0,0.0,150.0,14.0,0.0
14041,52.0,0.0,480.0,2.0,0.0
14042,40.0,0.0,150.0,13.0,0.0
14043,68.0,0.0,150.0,11.0,0.0
14044,52.0,84.0,150.0,12.0,0.0
14045,28.0,0.0,150.0,14.0,0.0
14046,71.0,12.0,390.0,10.0,0.0
14047,57.0,0.0,480.0,2.0,0.0
14048,54.0,96.0,480.0,2.0,0.0
14049,66.0,0.0,480.0,1.0,0.0
14050,69.0,0.0,150.0,11.0,0.0
14051,39.0,0.0,150.0,13.0,0.0
14052,27.0,0.0,150.0,14.0,0.0
14053,69.0,0.0,480.0,1.0,0.0
14054,51.0,240.0,150.0,12.0,0.0
14055,69.0,0.0,150.0,11.0,0.0
14056,71.0,48.0,180.0,10.0,0.0
14057,63.0,0.0,150.0,12.0,0.0
14058,51.0,0.0,150.0,13.0,0.0
14059,39.0,36.0,150.0,14.0,0.0
14060,52.0,60.0,150.0,13.0,0.0
14061,64.0,0.0,480.0,1.0,0.0
14062,64.0,0.0,150.0,12.0,0.0
14063,44.0,0.0,390.0,5.0,0.0
14064,71.0,0.0,90.0,10.0,0.0
14065,56.0,0.0,390.0,4.0,0.0
14066,56.0,0.0,390.0,3.0,0.0
14067,44.0,0.0,390.0,3.0,0.0
14068,68.0,60.0,90.0,11.0,0.0
14069,40.0,0.0,150.0,14.0,0.0
14070,68.0,12.0,390.0,4.0,0.0
14071,52.0,96.0,480.0,2.0,0.0
14072,56.0,0.0,1920.0,2.0,0.0
14073,68.0,0.0,1920.0,1.0,0.0
14074,68.0,120.0,90.0,11.0,0.0
14075,71.0,0.0,90.0,10.0,0.0
14076,71.0,0.0,90.0,10.0,0.0
14077,40.0,0.0,150.0,14.0,0.0
14078,52.0,0.0,150.0,13.0,0.0
14079,68.0,48.0,90.0,11.0,0.0
14080,64.0,60.0,150.0,12.0,0.0
14081,71.0,0.0,90.0,10.0,0.0
14082,68.0,24.0,90.0,11.0,0.0
14083,44.0,0.0,300.0,3.0,0.0
14084,56.0,0.0,300.0,3.0,0.0
14085,44.0,48.0,300.0,5.0,0.0
14086,68.0,60.0,90.0,11.0,0.0
14087,60.0,96.0,480.0,1.0,0.0
14088,72.0,0.0,90.0,10.0,0.0
14089,64.0,0.0,150.0,12.0,0.0
14090,48.0,0.0,480.0,2.0,0.0
14091,40.0,60.0,150.0,14.0,0.0
14092,56.0,0.0,300.0,4.0,0.0
14093,84.0,0.0,480.0,0.0,0.0
14094,68.0,0.0,300.0,4.0,0.0
14095,52.0,0.0,150.0,13.0,0.0
14096,72.0,0.0,90.0,10.0,0.0
14097,68.0,72.0,90.0,11.0,0.0
14098,52.0,0.0,150.0,13.0,0.0
14099,40.0,60.0,150.0,14.0,0.0
14100,64.0,0.0,150.0,12.0,0.0
14101,72.0,60.0,90.0,10.0,0.0
14102,68.0,0.0,90.0,11.0,0.0
14103,68.0,0.0,90.0,11.0,0.0
14104,44.0,0.0,90.0,5.0,0.0
14105,68.0,0.0,90.0,4.0,0.0
14106,72.0,0.0,90.0,10.0,0.0
14107,56.0,0.0,90.0,3.0,0.0
14108,56.0,0.0,90.0,4.0,0.0
14109,44.0,24.0,90.0,3.0,0.0
14110,73.0,0.0,90.0,10.0,0.0
14111,56.0,0.0,390.0,4.0,0.0
14112,68.0,0.0,390.0,4.0,0.0
14113,56.0,0.0,390.0,3.0,0.0
14114,44.0,0.0,390.0,3.0,0.0
14115,40.0,0.0,150.0,14.0,0.0
14116,85.0,0.0,480.0,0.0,0.0
14117,52.0,60.0,150.0,13.0,0.0
14118,61.0,96.0,480.0,1.0,0.0
14119,44.0,12.0,390.0,5.0,0.0
14120,64.0,0.0,150.0,12.0,0.0
14121,68.0,60.0,90.0,11.0,0.0
14122,49.0,0.0,480.0,2.0,0.0
14123,73.0,120.0,90.0,10.0,0.0
14124,68.0,0.0,90.0,11.0,0.0
14125,68.0,0.0,90.0,11.0,0.0
14126,64.0,0.0,150.0,12.0,0.0
14127,40.0,60.0,150.0,14.0,0.0
14128,73.0,48.0,90.0,10.0,0.0
14129,52.0,0.0,150.0,13.0,0.0
14130,73.0,24.0,90.0,10.0,0.0
14131,68.0,0.0,90.0,11.0,0.0
14132,68.0,0.0,390.0,4.0,0.0
14133,56.0,0.0,390.0,4.0,0.0
14134,86.0,0.0,480.0,0.0,0.0
14135,68.0,60.0,90.0,11.0,0.0
14136,50.0,0.0,480.0,2.0,0.0
14137,44.0,12.0,390.0,3.0,0.0
14138,74.0,0.0,90.0,10.0,0.0
14139,52.0,0.0,150.0,13.0,0.0
14140,44.0,0.0,390.0,5.0,0.0
14141,62.0,384.0,480.0,1.0,0.0
14142,40.0,60.0,150.0,14.0,0.0
14143,56.0,0.0,390.0,3.0,0.0
14144,64.0,0.0,150.0,12.0,0.0
14145,74.0,120.0,90.0,10.0,0.0
14146,68.0,0.0,90.0,11.0,0.0
14147,40.0,0.0,150.0,14.0,0.0
14148,64.0,0.0,150.0,12.0,0.0
14149,74.0,0.0,90.0,10.0,0.0
14150,52.0,60.0,150.0,13.0,0.0
14151,68.0,48.0,90.0,11.0,0.0
14152,68.0,24.0,90.0,11.0,0.0
14153,74.0,0.0,90.0,10.0,0.0
14154,63.0,0.0,390.0,1.0,0.0
14155,67.0,0.0,390.0,1.0,0.0
14156,51.0,0.0,390.0,13.0,0.0
14157,63.0,0.0,390.0,12.0,0.0
14158,55.0,0.0,390.0,2.0,0.0
14159,51.0,0.0,390.0,2.0,0.0
14160,39.0,0.0,390.0,14.0,0.0
14161,87.0,0.0,390.0,0.0,0.0
14162,63.0,0.0,390.0,4.0,0.0
14163,67.0,0.0,390.0,11.0,0.0
14164,75.0,960.0,390.0,10.0,0.0
14165,39.0,0.0,390.0,5.0,0.0
14166,70.0,0.0,390.0,4.0,0.0
14167,58.0,0.0,390.0,3.0,0.0
14168,51.0,0.0,390.0,3.0,0.0
14169,61.0,0.0,390.0,12.0,0.0
14170,37.0,0.0,390.0,14.0,0.0
14171,79.0,0.0,390.0,0.0,0.0
14172,49.0,0.0,390.0,2.0,0.0
14173,70.0,0.0,390.0,1.0,0.0
14174,58.0,0.0,390.0,3.0,0.0
14175,39.0,960.0,390.0,5.0,0.0
14176,49.0,0.0,390.0,13.0,0.0
14177,79.0,0.0,390.0,10.0,0.0
14178,75.0,0.0,390.0,1.0,0.0
14179,70.0,0.0,390.0,4.0,0.0
14180,51.0,0.0,390.0,3.0,0.0
14181,75.0,0.0,390.0,11.0,0.0
14182,63.0,0.0,390.0,4.0,0.0
14183,70.0,0.0,390.0,11.0,0.0
14184,48.0,0.0,390.0,2.0,0.0
14185,80.0,0.0,390.0,0.0,0.0
14186,80.0,0.0,390.0,10.0,0.0
14187,63.0,0.0,390.0,4.0,0.0
14188,68.0,0.0,390.0,4.0,0.0
14189,44.0,0.0,390.0,5.0,0.0
14190,60.0,0.0,390.0,3.0,0.0
14191,72.0,0.0,390.0,1.0,0.0
14192,48.0,0.0,390.0,13.0,0.0
14193,75.0,0.0,390.0,1.0,0.0
14194,60.0,0.0,390.0,12.0,0.0
14195,75.0,0.0,390.0,11.0,0.0
14196,36.0,0.0,390.0,14.0,0.0
14197,56.0,960.0,390.0,3.0,0.0
14198,68.0,0.0,390.0,11.0,0.0
14199,65.0,0.0,390.0,12.0,0.0
14200,56.0,0.0,390.0,4.0,0.0
14201,71.0,0.0,390.0,1.0,0.0
14202,68.0,0.0,390.0,11.0,0.0
14203,74.0,0.0,390.0,10.0,0.0
14204,86.0,0.0,390.0,0.0,0.0
14205,56.0,0.0,390.0,3.0,0.0
14206,59.0,0.0,390.0,11.0,0.0
14207,44.0,0.0,390.0,5.0,0.0
14208,41.0,0.0,390.0,14.0,0.0
14209,80.0,0.0,390.0,1.0,0.0
14210,68.0,0.0,390.0,4.0,0.0
14211,53.0,0.0,390.0,2.0,0.0
14212,53.0,960.0,390.0,13.0,0.0
14213,44.0,0.0,390.0,3.0,0.0
14214,60.0,0.0,390.0,11.0,0.0
14215,39.0,0.0,1350.0,14.0,0.0
14216,51.0,0.0,390.0,11.0,0.0
14217,68.0,0.0,1440.0,11.0,0.0
14218,51.0,0.0,1350.0,2.0,0.0
14219,75.0,600.0,1440.0,10.0,0.0
14220,51.0,0.0,1350.0,4.0,0.0
14221,80.0,0.0,1350.0,1.0,0.0
14222,39.0,0.0,390.0,5.0,0.0
14223,72.0,0.0,1350.0,1.0,0.0
14224,51.0,0.0,1350.0,13.0,0.0
14225,87.0,0.0,1350.0,0.0,0.0
14226,63.0,0.0,1350.0,12.0,0.0
14227,51.0,96.0,1350.0,3.0,0.0
14228,63.0,0.0,1350.0,4.0,0.0
14229,68.0,960.0,390.0,10.0,0.0
14230,60.0,0.0,390.0,10.0,0.0
14231,39.0,0.0,1350.0,3.0,0.0
14232,44.0,120.0,120.0,7.0,0.0
14233,51.0,120.0,120.0,7.0,0.0
14234,47.0,120.0,120.0,7.0,0.0
14235,44.0,120.0,120.0,7.0,0.0
14236,39.0,120.0,120.0,7.0,0.0
14237,44.0,120.0,120.0,7.0,0.0
14238,35.0,120.0,120.0,7.0,0.0
14239,39.0,120.0,120.0,7.0,0.0
14240,80.0,120.0,120.0,7.0,0.0
14241,32.0,120.0,480.0,7.0,0.0
14242,83.0,120.0,120.0,7.0,0.0
14243,75.0,120.0,120.0,7.0,0.0
14244,80.0,0.0,120.0,7.0,0.0
14245,71.0,120.0,120.0,7.0,0.0
14246,75.0,120.0,120.0,7.0,0.0
14247,68.0,120.0,120.0,7.0,0.0
14248,75.0,120.0,120.0,7.0,0.0
14249,51.0,120.0,120.0,7.0,0.0
14250,66.0,0.0,480.0,7.0,0.0
14251,54.0,120.0,120.0,7.0,0.0
14252,47.0,120.0,120.0,7.0,0.0
14253,51.0,120.0,120.0,7.0,0.0
14254,42.0,120.0,120.0,7.0,0.0
14255,47.0,120.0,120.0,7.0,0.0
14256,39.0,120.0,120.0,7.0,0.0
14257,42.0,120.0,120.0,7.0,0.0
14258,75.0,120.0,120.0,7.0,0.0
14259,35.0,120.0,480.0,7.0,0.0
14260,78.0,120.0,120.0,7.0,0.0
14261,71.0,120.0,120.0,7.0,0.0
14262,75.0,0.0,120.0,7.0,0.0
14263,68.0,120.0,120.0,7.0,0.0
14264,75.0,120.0,120.0,7.0,0.0
14265,66.0,120.0,120.0,7.0,0.0
14266,75.0,120.0,120.0,7.0,0.0
14267,49.0,120.0,120.0,7.0,0.0
14268,64.0,0.0,480.0,7.0,0.0
14269,56.0,120.0,120.0,7.0,0.0
14270,52.0,120.0,120.0,7.0,0.0
14271,49.0,120.0,120.0,7.0,0.0
14272,44.0,120.0,120.0,7.0,0.0
14273,49.0,120.0,120.0,7.0,0.0
14274,40.0,120.0,120.0,7.0,0.0
14275,44.0,120.0,120.0,7.0,0.0
14276,37.0,0.0,480.0,7.0,0.0
14277,80.0,120.0,120.0,7.0,0.0
14278,85.0,120.0,120.0,7.0,0.0
14279,76.0,120.0,120.0,7.0,0.0
14280,80.0,120.0,120.0,7.0,0.0
14281,73.0,120.0,120.0,7.0,0.0
14282,76.0,120.0,120.0,7.0,0.0
14283,68.0,120.0,120.0,7.0,0.0
14284,73.0,120.0,120.0,7.0,0.0
14285,50.0,120.0,120.0,7.0,0.0
14286,65.0,120.0,480.0,7.0,0.0
14287,53.0,120.0,120.0,7.0,0.0
14288,47.0,120.0,120.0,7.0,0.0
14289,50.0,0.0,120.0,7.0,0.0
14290,44.0,120.0,120.0,7.0,0.0
14291,47.0,120.0,120.0,7.0,0.0
14292,41.0,120.0,120.0,7.0,0.0
14293,44.0,120.0,120.0,7.0,0.0
14294,38.0,120.0,480.0,7.0,0.0
14295,80.0,120.0,120.0,7.0,0.0
14296,83.0,120.0,120.0,7.0,0.0
14297,77.0,120.0,120.0,7.0,0.0
14298,80.0,0.0,120.0,7.0,0.0
14299,74.0,120.0,120.0,7.0,0.0
14300,77.0,120.0,120.0,7.0,0.0
14301,71.0,120.0,120.0,7.0,0.0
14302,74.0,120.0,120.0,7.0,0.0
14303,32.0,120.0,120.0,7.0,0.0
14304,68.0,0.0,120.0,7.0,0.0
14305,56.0,120.0,120.0,7.0,0.0
14306,41.0,0.0,120.0,7.0,0.0
14307,38.0,120.0,120.0,7.0,0.0
14308,59.0,0.0,120.0,7.0,0.0
14309,56.0,120.0,120.0,7.0,0.0
14310,44.0,0.0,120.0,7.0,0.0
14311,41.0,120.0,120.0,7.0,0.0
14312,62.0,0.0,120.0,7.0,0.0
14313,47.0,0.0,120.0,7.0,0.0
14314,56.0,120.0,120.0,7.0,0.0
14315,44.0,120.0,120.0,7.0,0.0
14316,65.0,0.0,120.0,7.0,0.0
14317,56.0,0.0,120.0,7.0,0.0
14318,50.0,120.0,120.0,7.0,0.0
14319,68.0,120.0,120.0,7.0,0.0
14320,47.0,0.0,120.0,7.0,0.0
14321,56.0,120.0,120.0,7.0,0.0
14322,53.0,0.0,120.0,7.0,0.0
14323,50.0,120.0,120.0,7.0,0.0
14324,71.0,0.0,120.0,7.0,0.0
14325,56.0,0.0,120.0,7.0,0.0
14326,59.0,120.0,15.0,7.0,0.0
14327,74.0,0.0,120.0,7.0,0.0
14328,65.0,120.0,120.0,7.0,0.0
14329,56.0,0.0,120.0,7.0,0.0
14330,77.0,0.0,120.0,7.0,0.0
14331,53.0,120.0,120.0,7.0,0.0
14332,50.0,480.0,300.0,7.0,0.0
14333,68.0,192.0,120.0,7.0,0.0
14334,56.0,480.0,180.0,6.0,0.0
14335,51.0,480.0,180.0,6.0,0.0
14336,56.0,480.0,180.0,6.0,0.0
14337,59.0,480.0,180.0,6.0,0.0
14338,51.0,384.0,180.0,7.0,0.0
14339,61.0,96.0,570.0,6.0,0.0
14340,46.0,112.0,180.0,7.0,0.0
14341,59.0,80.0,60.0,6.0,0.0
14342,58.0,80.0,60.0,6.0,0.0
14343,56.0,208.0,60.0,6.0,0.0
14344,51.0,192.0,180.0,7.0,0.0
14345,55.0,288.0,390.0,6.0,0.0
14346,55.0,264.0,180.0,7.0,0.0
14347,51.0,216.0,90.0,6.0,0.0
14348,55.0,480.0,180.0,6.0,0.0
14349,58.0,480.0,180.0,6.0,0.0
14350,61.0,480.0,180.0,6.0,0.0
14351,58.0,480.0,180.0,6.0,0.0
14352,63.0,96.0,570.0,6.0,0.0
14353,56.0,384.0,180.0,7.0,0.0
14354,51.0,112.0,180.0,7.0,0.0
14355,64.0,80.0,60.0,6.0,0.0
14356,63.0,80.0,60.0,6.0,0.0
14357,61.0,208.0,60.0,6.0,0.0
14358,47.0,192.0,180.0,7.0,0.0
14359,59.0,288.0,390.0,6.0,0.0
14360,44.0,756.0,180.0,7.0,0.0
14361,75.0,216.0,1200.0,6.0,0.0
14362,56.0,240.0,240.0,7.0,0.0
14363,63.0,0.0,240.0,7.0,0.0
14364,59.0,0.0,240.0,7.0,0.0
14365,59.0,240.0,240.0,7.0,0.0
14366,63.0,0.0,240.0,7.0,0.0
14367,56.0,0.0,240.0,7.0,0.0
14368,63.0,252.0,240.0,7.0,0.0
14369,59.0,0.0,240.0,7.0,0.0
14370,56.0,0.0,240.0,7.0,0.0
14371,59.0,0.0,450.0,7.0,0.0
14372,56.0,24.0,450.0,7.0,0.0
14373,63.0,0.0,450.0,7.0,0.0
14374,74.0,240.0,240.0,6.0,0.0
14375,75.0,240.0,240.0,6.0,0.0
14376,71.0,468.0,240.0,6.0,0.0
14377,73.0,216.0,1200.0,6.0,0.0
14378,63.0,240.0,240.0,7.0,0.0
14379,58.0,0.0,240.0,7.0,0.0
14380,55.0,0.0,240.0,7.0,0.0
14381,63.0,240.0,240.0,7.0,0.0
14382,58.0,0.0,240.0,7.0,0.0
14383,55.0,0.0,240.0,7.0,0.0
14384,58.0,0.0,240.0,7.0,0.0
14385,63.0,0.0,240.0,7.0,0.0
14386,55.0,252.0,240.0,7.0,0.0
14387,63.0,0.0,450.0,7.0,0.0
14388,55.0,0.0,450.0,7.0,0.0
14389,58.0,24.0,450.0,7.0,0.0
14390,71.0,240.0,240.0,6.0,0.0
14391,73.0,240.0,240.0,6.0,0.0
14392,70.0,384.0,240.0,6.0,0.0
14393,63.0,0.0,390.0,7.0,0.0
14394,59.0,0.0,390.0,7.0,0.0
14395,56.0,0.0,390.0,7.0,0.0
14396,68.0,288.0,390.0,6.0,0.0
14397,68.0,264.0,180.0,6.0,0.0
14398,68.0,408.0,90.0,6.0,0.0
14399,70.0,0.0,390.0,6.0,0.0
14400,55.0,288.0,390.0,7.0,0.0
14401,63.0,0.0,390.0,7.0,0.0
14402,61.0,0.0,390.0,7.0,0.0
14403,70.0,264.0,180.0,6.0,0.0
14404,70.0,144.0,90.0,6.0,0.0
14405,71.0,120.0,120.0,6.0,0.0
14406,63.0,0.0,960.0,7.0,0.0
14407,59.0,240.0,960.0,7.0,0.0
14408,56.0,0.0,960.0,7.0,0.0
14409,72.0,120.0,120.0,6.0,0.0
14410,73.0,120.0,120.0,6.0,0.0
14411,75.0,144.0,120.0,6.0,0.0
14412,73.0,240.0,150.0,6.0,0.0
14413,71.0,96.0,150.0,6.0,0.0
14414,70.0,144.0,240.0,6.0,0.0
14415,55.0,96.0,390.0,7.0,0.0
14416,63.0,0.0,390.0,7.0,0.0
14417,51.0,0.0,390.0,7.0,0.0
14418,71.0,240.0,240.0,6.0,0.0
14419,73.0,240.0,240.0,6.0,0.0
14420,74.0,360.0,240.0,6.0,0.0
14421,75.0,120.0,360.0,6.0,0.0
14422,71.0,432.0,120.0,6.0,0.0
14423,83.0,0.0,600.0,6.0,0.0
14424,39.0,168.0,180.0,7.0,0.0
14425,44.0,120.0,120.0,7.0,0.0
14426,46.0,120.0,120.0,7.0,0.0
14427,82.0,0.0,120.0,6.0,0.0
14428,80.0,0.0,120.0,6.0,0.0
14429,47.0,120.0,120.0,7.0,0.0
14430,78.0,0.0,120.0,6.0,0.0
14431,49.0,120.0,120.0,7.0,0.0
14432,76.0,120.0,120.0,6.0,0.0
14433,51.0,0.0,120.0,7.0,0.0
14434,53.0,0.0,120.0,7.0,0.0
14435,75.0,120.0,120.0,6.0,0.0
14436,55.0,0.0,120.0,7.0,0.0
14437,73.0,120.0,120.0,6.0,0.0
14438,56.0,0.0,120.0,7.0,0.0
14439,71.0,120.0,120.0,6.0,0.0
14440,58.0,48.0,180.0,7.0,0.0
14441,75.0,72.0,120.0,6.0,0.0
14442,73.0,120.0,120.0,6.0,0.0
14443,82.0,120.0,120.0,6.0,0.0
14444,79.0,432.0,120.0,6.0,0.0
14445,85.0,120.0,600.0,6.0,0.0
14446,46.0,168.0,180.0,7.0,0.0
14447,47.0,0.0,120.0,7.0,0.0
14448,48.0,120.0,120.0,7.0,0.0
14449,84.0,0.0,120.0,6.0,0.0
14450,49.0,120.0,120.0,7.0,0.0
14451,82.0,0.0,120.0,6.0,0.0
14452,80.0,120.0,120.0,6.0,0.0
14453,51.0,0.0,120.0,7.0,0.0
14454,53.0,0.0,120.0,7.0,0.0
14455,78.0,120.0,120.0,6.0,0.0
14456,55.0,0.0,120.0,7.0,0.0
14457,76.0,120.0,120.0,6.0,0.0
14458,75.0,0.0,120.0,6.0,0.0
14459,56.0,120.0,120.0,7.0,0.0
14460,73.0,120.0,120.0,6.0,0.0
14461,58.0,0.0,120.0,7.0,0.0
14462,56.0,48.0,180.0,7.0,0.0
14463,59.0,0.0,180.0,7.0,0.0
14464,71.0,72.0,120.0,6.0,0.0
14465,75.0,120.0,120.0,6.0,0.0
14466,80.0,120.0,120.0,6.0,0.0
14467,78.0,120.0,120.0,6.0,0.0
14468,77.0,120.0,120.0,6.0,0.0
14469,75.0,120.0,120.0,6.0,0.0
14470,73.0,120.0,120.0,6.0,0.0
14471,71.0,120.0,120.0,6.0,0.0
14472,39.0,96.0,390.0,7.0,0.0
14473,51.0,0.0,390.0,7.0,0.0
14474,70.0,120.0,120.0,6.0,0.0
14475,73.0,120.0,120.0,6.0,0.0
14476,75.0,24.0,120.0,6.0,0.0
14477,73.0,120.0,120.0,6.0,0.0
14478,71.0,120.0,120.0,6.0,0.0
14479,70.0,120.0,120.0,6.0,0.0
14480,68.0,120.0,120.0,6.0,0.0
14481,67.0,96.0,120.0,6.0,0.0
14482,70.0,96.0,90.0,6.0,0.0
14483,56.0,24.0,180.0,7.0,0.0
14484,59.0,0.0,180.0,7.0,0.0
14485,68.0,120.0,90.0,6.0,0.0
14486,56.0,24.0,180.0,7.0,0.0
14487,80.0,96.0,90.0,6.0,0.0
14488,78.0,120.0,90.0,6.0,0.0
14489,76.0,96.0,90.0,6.0,0.0
14490,59.0,24.0,180.0,7.0,0.0
14491,75.0,120.0,90.0,6.0,0.0
14492,56.0,24.0,180.0,7.0,0.0
14493,73.0,96.0,90.0,6.0,0.0
14494,71.0,120.0,90.0,6.0,0.0
14495,55.0,24.0,180.0,7.0,0.0
14496,68.0,96.0,90.0,6.0,0.0
14497,70.0,120.0,90.0,6.0,0.0
14498,82.0,96.0,90.0,6.0,0.0
14499,63.0,24.0,180.0,7.0,0.0
14500,80.0,120.0,90.0,6.0,0.0
14501,78.0,96.0,90.0,6.0,0.0
14502,61.0,24.0,180.0,7.0,0.0
14503,76.0,120.0,90.0,6.0,0.0
14504,63.0,24.0,180.0,7.0,0.0
14505,75.0,96.0,90.0,6.0,0.0
14506,73.0,120.0,90.0,6.0,0.0
14507,56.0,24.0,180.0,7.0,0.0
14508,70.0,96.0,90.0,6.0,0.0
14509,71.0,120.0,90.0,6.0,0.0
14510,63.0,24.0,180.0,7.0,0.0
14511,83.0,96.0,90.0,6.0,0.0
14512,82.0,120.0,90.0,6.0,0.0
14513,59.0,24.0,180.0,7.0,0.0
14514,80.0,96.0,90.0,6.0,0.0
14515,78.0,120.0,90.0,6.0,0.0
14516,76.0,96.0,90.0,6.0,0.0
14517,64.0,24.0,180.0,7.0,0.0
14518,75.0,120.0,90.0,6.0,0.0
14519,72.0,96.0,90.0,6.0,0.0
14520,58.0,24.0,180.0,7.0,0.0
14521,73.0,120.0,90.0,6.0,0.0
14522,64.0,24.0,180.0,7.0,0.0
14523,85.0,96.0,90.0,6.0,0.0
14524,83.0,120.0,90.0,6.0,0.0
14525,61.0,24.0,180.0,7.0,0.0
14526,82.0,96.0,90.0,6.0,0.0
14527,80.0,120.0,90.0,6.0,0.0
14528,78.0,96.0,90.0,6.0,0.0
14529,66.0,24.0,180.0,7.0,0.0
14530,76.0,120.0,90.0,6.0,0.0
14531,59.0,24.0,180.0,7.0,0.0
14532,73.0,96.0,90.0,6.0,0.0
14533,75.0,120.0,90.0,6.0,0.0
14534,83.0,96.0,90.0,6.0,0.0
14535,68.0,24.0,180.0,7.0,0.0
14536,71.0,120.0,90.0,6.0,0.0
14537,70.0,24.0,180.0,7.0,0.0
14538,75.0,96.0,90.0,6.0,0.0
14539,73.0,120.0,90.0,6.0,0.0
14540,82.0,96.0,90.0,6.0,0.0
14541,67.0,24.0,180.0,7.0,0.0
14542,70.0,120.0,90.0,6.0,0.0
14543,73.0,96.0,90.0,6.0,0.0
14544,68.0,24.0,180.0,7.0,0.0
14545,71.0,120.0,90.0,6.0,0.0
14546,64.0,24.0,180.0,7.0,0.0
14547,80.0,96.0,90.0,6.0,0.0
14548,68.0,120.0,90.0,6.0,0.0
14549,71.0,96.0,90.0,6.0,0.0
14550,66.0,24.0,180.0,7.0,0.0
14551,70.0,120.0,90.0,6.0,0.0
14552,63.0,24.0,180.0,7.0,0.0
14553,78.0,96.0,90.0,6.0,0.0
14554,66.0,120.0,90.0,6.0,0.0
14555,64.0,24.0,180.0,7.0,0.0
14556,70.0,96.0,90.0,6.0,0.0
14557,68.0,120.0,90.0,6.0,0.0
14558,76.0,96.0,90.0,6.0,0.0
14559,61.0,24.0,180.0,7.0,0.0
14560,64.0,120.0,90.0,6.0,0.0
14561,68.0,96.0,90.0,6.0,0.0
14562,63.0,24.0,180.0,7.0,0.0
14563,66.0,120.0,90.0,6.0,0.0
14564,75.0,96.0,90.0,6.0,0.0
14565,60.0,24.0,180.0,7.0,0.0
14566,63.0,120.0,90.0,6.0,0.0
14567,61.0,24.0,180.0,7.0,0.0
14568,66.0,96.0,90.0,6.0,0.0
14569,64.0,120.0,90.0,6.0,0.0
14570,73.0,96.0,90.0,6.0,0.0
14571,58.0,24.0,180.0,7.0,0.0
14572,61.0,120.0,90.0,6.0,0.0
14573,64.0,96.0,90.0,6.0,0.0
14574,59.0,24.0,180.0,7.0,0.0
14575,63.0,120.0,90.0,6.0,0.0
14576,56.0,24.0,180.0,7.0,0.0
14577,71.0,96.0,90.0,6.0,0.0
14578,59.0,240.0,90.0,6.0,0.0
14579,49.0,72.0,390.0,7.0,0.0
14580,58.0,120.0,90.0,6.0,0.0
14581,60.0,48.0,90.0,6.0,0.0
14582,61.0,120.0,90.0,6.0,0.0
14583,63.0,120.0,90.0,6.0,0.0
14584,65.0,120.0,90.0,6.0,0.0
14585,67.0,120.0,90.0,6.0,0.0
14586,68.0,120.0,90.0,6.0,0.0
14587,69.0,120.0,90.0,6.0,0.0
14588,70.0,120.0,90.0,6.0,0.0
14589,71.0,120.0,90.0,6.0,0.0
14590,72.0,120.0,90.0,6.0,0.0
14591,73.0,120.0,90.0,6.0,0.0
14592,74.0,120.0,90.0,6.0,0.0
14593,75.0,120.0,90.0,6.0,0.0
14594,76.0,120.0,90.0,6.0,0.0
14595,49.0,48.0,780.0,7.0,0.0
14596,78.0,120.0,90.0,6.0,0.0
14597,77.0,120.0,90.0,6.0,0.0
14598,80.0,120.0,90.0,6.0,0.0
14599,78.0,120.0,90.0,6.0,0.0
14600,76.0,120.0,90.0,6.0,0.0
14601,75.0,72.0,90.0,6.0,0.0
14602,73.0,120.0,90.0,6.0,0.0
14603,71.0,120.0,90.0,6.0,0.0
14604,52.0,48.0,780.0,7.0,0.0
14605,75.0,120.0,90.0,6.0,0.0
14606,73.0,120.0,90.0,6.0,0.0
14607,76.0,120.0,90.0,6.0,0.0
14608,75.0,120.0,90.0,6.0,0.0
14609,73.0,120.0,90.0,6.0,0.0
14610,71.0,72.0,90.0,6.0,0.0
14611,70.0,120.0,90.0,6.0,0.0
14612,68.0,792.0,90.0,6.0,0.0
14613,70.0,912.0,780.0,6.0,0.0
14614,51.0,0.0,780.0,7.0,0.0
14615,63.0,0.0,780.0,6.0,0.0
14616,71.0,192.0,240.0,6.0,0.0
14617,70.0,432.0,180.0,6.0,0.0
14618,53.0,250.0,480.0,7.0,0.0
14619,50.0,0.0,480.0,7.0,0.0
14620,70.0,86.0,390.0,6.0,0.0
14621,54.0,394.0,480.0,7.0,0.0
14622,71.0,192.0,240.0,6.0,0.0
14623,51.0,0.0,480.0,7.0,0.0
14624,70.0,38.0,180.0,6.0,0.0
14625,50.0,0.0,480.0,7.0,0.0
14626,53.0,250.0,480.0,7.0,0.0
14627,70.0,86.0,390.0,6.0,0.0
14628,71.0,192.0,240.0,6.0,0.0
14629,51.0,250.0,480.0,7.0,0.0
14630,54.0,0.0,480.0,7.0,0.0
14631,70.0,38.0,180.0,6.0,0.0
14632,50.0,0.0,1410.0,7.0,0.0
14633,53.0,268.0,1410.0,7.0,0.0
14634,70.0,192.0,240.0,6.0,0.0
14635,82.0,816.0,180.0,6.0,0.0
14636,70.0,164.0,780.0,6.0,0.0
14637,83.0,192.0,240.0,6.0,0.0
14638,62.0,0.0,480.0,7.0,0.0
14639,53.0,0.0,480.0,7.0,0.0
14640,56.0,394.0,480.0,7.0,0.0
14641,82.0,38.0,180.0,6.0,0.0
14642,63.0,250.0,480.0,7.0,0.0
14643,58.0,0.0,480.0,7.0,0.0
14644,54.0,0.0,480.0,7.0,0.0
14645,82.0,86.0,390.0,6.0,0.0
14646,83.0,192.0,240.0,6.0,0.0
14647,53.0,0.0,480.0,7.0,0.0
14648,56.0,394.0,480.0,7.0,0.0
14649,62.0,0.0,480.0,7.0,0.0
14650,82.0,38.0,180.0,6.0,0.0
14651,82.0,86.0,390.0,6.0,0.0
14652,63.0,0.0,480.0,7.0,0.0
14653,54.0,250.0,480.0,7.0,0.0
14654,58.0,0.0,480.0,7.0,0.0
14655,53.0,0.0,480.0,7.0,0.0
14656,62.0,250.0,480.0,7.0,0.0
14657,56.0,0.0,480.0,7.0,0.0
14658,83.0,192.0,240.0,6.0,0.0
14659,82.0,38.0,180.0,6.0,0.0
14660,63.0,0.0,930.0,7.0,0.0
14661,54.0,308.0,930.0,7.0,0.0
14662,58.0,0.0,930.0,7.0,0.0
14663,82.0,192.0,240.0,6.0,0.0
14664,78.0,508.0,180.0,6.0,0.0
14665,70.0,432.0,780.0,6.0,0.0
14666,55.0,0.0,930.0,7.0,0.0
14667,61.0,20.0,930.0,7.0,0.0
14668,63.0,0.0,930.0,7.0,0.0
14669,75.0,220.0,240.0,6.0,0.0
14670,73.0,240.0,240.0,6.0,0.0
14671,73.0,230.0,240.0,6.0,0.0
14672,56.0,10.0,480.0,7.0,0.0
14673,59.0,0.0,480.0,7.0,0.0
14674,71.0,240.0,240.0,6.0,0.0
14675,70.0,192.0,240.0,6.0,0.0
14676,61.0,0.0,480.0,7.0,0.0
14677,58.0,394.0,480.0,7.0,0.0
14678,68.0,38.0,180.0,6.0,0.0
14679,68.0,86.0,390.0,6.0,0.0
14680,63.0,394.0,480.0,7.0,0.0
14681,59.0,0.0,480.0,7.0,0.0
14682,68.0,86.0,390.0,6.0,0.0
14683,61.0,394.0,480.0,7.0,0.0
14684,64.0,0.0,480.0,7.0,0.0
14685,68.0,556.0,390.0,6.0,0.0
14686,63.0,260.0,930.0,7.0,0.0
14687,59.0,0.0,930.0,7.0,0.0
14688,75.0,240.0,720.0,6.0,0.0
14689,63.0,20.0,930.0,7.0,0.0
14690,55.0,0.0,930.0,7.0,0.0
14691,76.0,240.0,240.0,6.0,0.0
14692,75.0,220.0,240.0,6.0,0.0
14693,73.0,240.0,240.0,6.0,0.0
14694,85.0,230.0,240.0,6.0,0.0
14695,71.0,10.0,480.0,7.0,0.0
14696,68.0,0.0,480.0,7.0,0.0
14697,83.0,240.0,240.0,6.0,0.0
14698,73.0,0.0,480.0,7.0,0.0
14699,70.0,394.0,480.0,7.0,0.0
14700,82.0,192.0,240.0,6.0,0.0
14701,80.0,38.0,180.0,6.0,0.0
14702,75.0,394.0,480.0,7.0,0.0
14703,80.0,86.0,390.0,6.0,0.0
14704,71.0,0.0,480.0,7.0,0.0
14705,73.0,0.0,480.0,7.0,0.0
14706,76.0,394.0,480.0,7.0,0.0
14707,80.0,86.0,390.0,6.0,0.0
14708,75.0,0.0,930.0,7.0,0.0
14709,80.0,556.0,390.0,6.0,0.0
14710,71.0,260.0,930.0,7.0,0.0
14711,63.0,240.0,720.0,6.0,0.0
14712,67.0,20.0,930.0,7.0,0.0
14713,75.0,0.0,930.0,7.0,0.0
14714,64.0,240.0,240.0,6.0,0.0
14715,63.0,220.0,240.0,6.0,0.0
14716,61.0,192.0,15.0,6.0,0.0
14717,68.0,480.0,780.0,7.0,0.0
14718,75.0,0.0,780.0,7.0,0.0
14719,60.0,336.0,180.0,6.0,0.0
14720,59.0,480.0,780.0,6.0,0.0
14721,74.0,96.0,780.0,7.0,0.0
14722,70.0,0.0,780.0,7.0,0.0
14723,58.0,288.0,390.0,6.0,0.0
14724,59.0,96.0,180.0,6.0,0.0
14725,35.0,144.0,300.0,8.0,0.0
14726,39.0,0.0,300.0,8.0,0.0
14727,56.0,336.0,180.0,6.0,0.0
14728,35.0,0.0,300.0,8.0,0.0
14729,39.0,288.0,300.0,8.0,0.0
14730,75.0,192.0,570.0,6.0,0.0
14731,39.0,48.0,300.0,8.0,0.0
14732,35.0,0.0,300.0,8.0,0.0
14733,77.0,120.0,90.0,6.0,0.0
14734,78.0,120.0,90.0,6.0,0.0
14735,77.0,120.0,90.0,6.0,0.0
14736,75.0,120.0,90.0,6.0,0.0
14737,73.0,120.0,90.0,6.0,0.0
14738,71.0,216.0,90.0,6.0,0.0
14739,46.0,240.0,180.0,7.0,0.0
14740,45.0,336.0,180.0,7.0,0.0
14741,35.0,144.0,300.0,8.0,0.0
14742,39.0,0.0,300.0,8.0,0.0
14743,42.0,240.0,180.0,7.0,0.0
14744,41.0,240.0,180.0,7.0,0.0
14745,39.0,336.0,180.0,7.0,0.0
14746,35.0,0.0,300.0,8.0,0.0
14747,39.0,144.0,300.0,8.0,0.0
14748,45.0,144.0,180.0,7.0,0.0
14749,62.0,0.0,780.0,7.0,0.0
14750,46.0,120.0,90.0,8.0,0.0
14751,58.0,48.0,780.0,7.0,0.0
14752,47.0,120.0,90.0,8.0,0.0
14753,48.0,120.0,90.0,8.0,0.0
14754,49.0,120.0,90.0,8.0,0.0
14755,50.0,120.0,90.0,8.0,0.0
14756,51.0,72.0,90.0,8.0,0.0
14757,52.0,120.0,90.0,8.0,0.0
14758,53.0,120.0,90.0,8.0,0.0
14759,63.0,48.0,780.0,7.0,0.0
14760,58.0,0.0,780.0,7.0,0.0
14761,80.0,120.0,90.0,6.0,0.0
14762,78.0,120.0,90.0,6.0,0.0
14763,77.0,120.0,90.0,6.0,0.0
14764,75.0,120.0,90.0,6.0,0.0
14765,73.0,120.0,90.0,6.0,0.0
14766,71.0,72.0,90.0,6.0,0.0
14767,70.0,120.0,90.0,6.0,0.0
14768,69.0,120.0,90.0,6.0,0.0
14769,62.0,0.0,780.0,7.0,0.0
14770,58.0,48.0,780.0,7.0,0.0
14771,46.0,120.0,90.0,8.0,0.0
14772,47.0,120.0,90.0,8.0,0.0
14773,48.0,120.0,90.0,8.0,0.0
14774,49.0,120.0,90.0,8.0,0.0
14775,50.0,120.0,90.0,8.0,0.0
14776,51.0,72.0,90.0,8.0,0.0
14777,52.0,120.0,90.0,8.0,0.0
14778,53.0,120.0,90.0,8.0,0.0
14779,80.0,120.0,90.0,6.0,0.0
14780,63.0,0.0,780.0,7.0,0.0
14781,58.0,48.0,780.0,7.0,0.0
14782,78.0,120.0,90.0,6.0,0.0
14783,77.0,120.0,90.0,6.0,0.0
14784,75.0,120.0,90.0,6.0,0.0
14785,73.0,120.0,90.0,6.0,0.0
14786,71.0,72.0,90.0,6.0,0.0
14787,70.0,120.0,90.0,6.0,0.0
14788,69.0,144.0,90.0,6.0,0.0
14789,46.0,0.0,720.0,8.0,0.0
14790,34.0,0.0,720.0,8.0,0.0
14791,72.0,120.0,120.0,6.0,0.0
14792,70.0,120.0,120.0,6.0,0.0
14793,72.0,120.0,120.0,6.0,0.0
14794,70.0,120.0,120.0,6.0,0.0
14795,72.0,120.0,120.0,6.0,0.0
14796,70.0,120.0,120.0,6.0,0.0
14797,47.0,0.0,240.0,8.0,0.0
14798,35.0,0.0,240.0,8.0,0.0
14799,72.0,120.0,120.0,6.0,0.0
14800,70.0,48.0,120.0,6.0,0.0
14801,34.0,0.0,240.0,8.0,0.0
14802,46.0,48.0,240.0,8.0,0.0
14803,72.0,60.0,60.0,6.0,0.0
14804,70.0,60.0,60.0,6.0,0.0
14805,72.0,60.0,60.0,6.0,0.0
14806,70.0,12.0,60.0,6.0,0.0
14807,35.0,48.0,240.0,8.0,0.0
14808,47.0,0.0,240.0,8.0,0.0
14809,72.0,60.0,60.0,6.0,0.0
14810,70.0,60.0,60.0,6.0,0.0
14811,72.0,60.0,60.0,6.0,0.0
14812,70.0,12.0,60.0,6.0,0.0
14813,46.0,48.0,240.0,8.0,0.0
14814,34.0,0.0,240.0,8.0,0.0
14815,72.0,60.0,60.0,6.0,0.0
14816,70.0,60.0,60.0,6.0,0.0
14817,72.0,60.0,60.0,6.0,0.0
14818,70.0,12.0,60.0,6.0,0.0
14819,35.0,0.0,240.0,8.0,0.0
14820,47.0,48.0,240.0,8.0,0.0
14821,72.0,60.0,60.0,6.0,0.0
14822,70.0,60.0,60.0,6.0,0.0
14823,72.0,60.0,60.0,6.0,0.0
14824,70.0,12.0,60.0,6.0,0.0
14825,72.0,60.0,60.0,6.0,0.0
14826,34.0,0.0,720.0,8.0,0.0
14827,46.0,48.0,720.0,8.0,0.0
14828,70.0,60.0,60.0,6.0,0.0
14829,72.0,60.0,60.0,6.0,0.0
14830,70.0,60.0,60.0,6.0,0.0
14831,72.0,60.0,60.0,6.0,0.0
14832,70.0,60.0,60.0,6.0,0.0
14833,72.0,60.0,60.0,6.0,0.0
14834,70.0,60.0,60.0,6.0,0.0
14835,72.0,60.0,60.0,6.0,0.0
14836,70.0,60.0,60.0,6.0,0.0
14837,72.0,60.0,60.0,6.0,0.0
14838,70.0,12.0,60.0,6.0,0.0
14839,72.0,60.0,60.0,6.0,0.0
14840,35.0,0.0,240.0,8.0,0.0
14841,47.0,48.0,240.0,8.0,0.0
14842,70.0,60.0,60.0,6.0,0.0
14843,72.0,60.0,60.0,6.0,0.0
14844,70.0,12.0,60.0,6.0,0.0
14845,34.0,0.0,240.0,8.0,0.0
14846,72.0,60.0,60.0,6.0,0.0
14847,46.0,48.0,240.0,8.0,0.0
14848,70.0,60.0,60.0,6.0,0.0
14849,72.0,60.0,60.0,6.0,0.0
14850,70.0,12.0,60.0,6.0,0.0
14851,72.0,60.0,60.0,6.0,0.0
14852,35.0,0.0,240.0,8.0,0.0
14853,47.0,48.0,240.0,8.0,0.0
14854,70.0,60.0,60.0,6.0,0.0
14855,72.0,60.0,60.0,6.0,0.0
14856,70.0,12.0,60.0,6.0,0.0
14857,34.0,48.0,240.0,8.0,0.0
14858,46.0,0.0,240.0,8.0,0.0
14859,72.0,60.0,60.0,6.0,0.0
14860,70.0,60.0,60.0,6.0,0.0
14861,72.0,60.0,60.0,6.0,0.0
14862,70.0,12.0,60.0,6.0,0.0
14863,35.0,0.0,240.0,8.0,0.0
14864,47.0,48.0,240.0,8.0,0.0
14865,72.0,60.0,60.0,6.0,0.0
14866,70.0,60.0,60.0,6.0,0.0
14867,72.0,60.0,60.0,6.0,0.0
14868,70.0,12.0,60.0,6.0,0.0
14869,72.0,60.0,60.0,6.0,0.0
14870,46.0,48.0,240.0,8.0,0.0
14871,34.0,0.0,240.0,8.0,0.0
14872,70.0,60.0,60.0,6.0,0.0
14873,72.0,60.0,60.0,6.0,0.0
14874,70.0,12.0,60.0,6.0,0.0
14875,35.0,0.0,240.0,8.0,0.0
14876,72.0,60.0,60.0,6.0,0.0
14877,47.0,48.0,240.0,8.0,0.0
14878,70.0,60.0,60.0,6.0,0.0
14879,72.0,60.0,60.0,6.0,0.0
14880,70.0,12.0,60.0,6.0,0.0
14881,48.0,0.0,240.0,8.0,0.0
14882,36.0,48.0,240.0,8.0,0.0
14883,72.0,60.0,60.0,6.0,0.0
14884,70.0,60.0,60.0,6.0,0.0
14885,72.0,60.0,60.0,6.0,0.0
14886,70.0,12.0,60.0,6.0,0.0
14887,72.0,60.0,60.0,6.0,0.0
14888,37.0,0.0,240.0,8.0,0.0
14889,49.0,48.0,240.0,8.0,0.0
14890,70.0,60.0,60.0,6.0,0.0
14891,72.0,60.0,60.0,6.0,0.0
14892,70.0,12.0,60.0,6.0,0.0
14893,72.0,60.0,60.0,6.0,0.0
14894,38.0,48.0,240.0,8.0,0.0
14895,50.0,0.0,240.0,8.0,0.0
14896,70.0,60.0,60.0,6.0,0.0
14897,72.0,60.0,60.0,6.0,0.0
14898,70.0,12.0,60.0,6.0,0.0
14899,51.0,48.0,240.0,8.0,0.0
14900,39.0,0.0,240.0,8.0,0.0
14901,72.0,60.0,60.0,6.0,0.0
14902,70.0,60.0,60.0,6.0,0.0
14903,72.0,60.0,60.0,6.0,0.0
14904,70.0,12.0,60.0,6.0,0.0
14905,40.0,48.0,240.0,8.0,0.0
14906,52.0,0.0,240.0,8.0,0.0
14907,72.0,60.0,60.0,6.0,0.0
14908,70.0,60.0,60.0,6.0,0.0
14909,72.0,60.0,60.0,6.0,0.0
14910,70.0,12.0,60.0,6.0,0.0
14911,72.0,60.0,60.0,6.0,0.0
14912,41.0,0.0,240.0,8.0,0.0
14913,53.0,48.0,240.0,8.0,0.0
14914,70.0,60.0,60.0,6.0,0.0
14915,72.0,60.0,60.0,6.0,0.0
14916,70.0,12.0,60.0,6.0,0.0
14917,72.0,60.0,60.0,6.0,0.0
14918,54.0,48.0,240.0,8.0,0.0
14919,42.0,0.0,240.0,8.0,0.0
14920,70.0,60.0,60.0,6.0,0.0
14921,72.0,60.0,60.0,6.0,0.0
14922,70.0,12.0,60.0,6.0,0.0
14923,72.0,60.0,60.0,6.0,0.0
14924,43.0,48.0,240.0,8.0,0.0
14925,55.0,0.0,240.0,8.0,0.0
14926,70.0,60.0,60.0,6.0,0.0
14927,72.0,60.0,60.0,6.0,0.0
14928,70.0,12.0,60.0,6.0,0.0
14929,44.0,48.0,240.0,8.0,0.0
14930,56.0,0.0,240.0,8.0,0.0
14931,72.0,60.0,60.0,6.0,0.0
14932,70.0,60.0,60.0,6.0,0.0
14933,72.0,60.0,60.0,6.0,0.0
14934,70.0,12.0,60.0,6.0,0.0
14935,45.0,0.0,240.0,8.0,0.0
14936,72.0,60.0,60.0,6.0,0.0
14937,57.0,48.0,240.0,8.0,0.0
14938,70.0,60.0,60.0,6.0,0.0
14939,72.0,60.0,60.0,6.0,0.0
14940,70.0,12.0,60.0,6.0,0.0
14941,72.0,60.0,60.0,6.0,0.0
14942,46.0,48.0,240.0,8.0,0.0
14943,58.0,0.0,240.0,8.0,0.0
14944,70.0,60.0,60.0,6.0,0.0
14945,72.0,60.0,60.0,6.0,0.0
14946,70.0,12.0,60.0,6.0,0.0
14947,47.0,0.0,240.0,8.0,0.0
14948,59.0,48.0,240.0,8.0,0.0
14949,72.0,60.0,60.0,6.0,0.0
14950,70.0,60.0,60.0,6.0,0.0
14951,72.0,60.0,60.0,6.0,0.0
14952,70.0,12.0,60.0,6.0,0.0
14953,60.0,0.0,240.0,8.0,0.0
14954,48.0,48.0,240.0,8.0,0.0
14955,72.0,60.0,60.0,6.0,0.0
14956,70.0,60.0,60.0,6.0,0.0
14957,72.0,60.0,60.0,6.0,0.0
14958,70.0,12.0,60.0,6.0,0.0
14959,61.0,0.0,240.0,8.0,0.0
14960,49.0,48.0,240.0,8.0,0.0
14961,72.0,60.0,60.0,6.0,0.0
14962,70.0,60.0,60.0,6.0,0.0
14963,72.0,60.0,60.0,6.0,0.0
14964,70.0,12.0,60.0,6.0,0.0
14965,62.0,48.0,240.0,7.0,0.0
14966,84.0,60.0,60.0,6.0,0.0
14967,50.0,0.0,240.0,7.0,0.0
14968,82.0,60.0,60.0,6.0,0.0
14969,84.0,60.0,60.0,6.0,0.0
14970,82.0,12.0,60.0,6.0,0.0
14971,63.0,0.0,240.0,7.0,0.0
14972,51.0,48.0,240.0,7.0,0.0
14973,84.0,60.0,60.0,6.0,0.0
14974,82.0,60.0,60.0,6.0,0.0
14975,84.0,60.0,60.0,6.0,0.0
14976,82.0,12.0,60.0,6.0,0.0
14977,64.0,0.0,240.0,7.0,0.0
14978,52.0,48.0,240.0,7.0,0.0
14979,84.0,60.0,60.0,6.0,0.0
14980,82.0,60.0,60.0,6.0,0.0
14981,84.0,60.0,60.0,6.0,0.0
14982,82.0,12.0,60.0,6.0,0.0
14983,84.0,60.0,60.0,6.0,0.0
14984,53.0,0.0,240.0,7.0,0.0
14985,65.0,48.0,240.0,7.0,0.0
14986,82.0,60.0,60.0,6.0,0.0
14987,84.0,60.0,60.0,6.0,0.0
14988,82.0,12.0,60.0,6.0,0.0
14989,66.0,0.0,240.0,7.0,0.0
14990,54.0,48.0,240.0,7.0,0.0
14991,84.0,60.0,60.0,6.0,0.0
14992,82.0,60.0,60.0,6.0,0.0
14993,84.0,60.0,60.0,6.0,0.0
14994,82.0,12.0,60.0,6.0,0.0
14995,84.0,60.0,60.0,6.0,0.0
14996,67.0,48.0,240.0,7.0,0.0
14997,55.0,0.0,240.0,7.0,0.0
14998,82.0,60.0,60.0,6.0,0.0
14999,84.0,60.0,60.0,6.0,0.0
15000,82.0,12.0,60.0,6.0,0.0
15001,56.0,48.0,240.0,7.0,0.0
15002,68.0,0.0,240.0,7.0,0.0
15003,84.0,60.0,60.0,6.0,0.0
15004,82.0,60.0,60.0,6.0,0.0
15005,84.0,60.0,60.0,6.0,0.0
15006,82.0,12.0,60.0,6.0,0.0
15007,57.0,0.0,240.0,7.0,0.0
15008,69.0,48.0,240.0,7.0,0.0
15009,84.0,60.0,60.0,6.0,0.0
15010,82.0,60.0,60.0,6.0,0.0
15011,84.0,60.0,60.0,6.0,0.0
15012,82.0,12.0,60.0,6.0,0.0
15013,58.0,48.0,240.0,7.0,0.0
15014,70.0,0.0,240.0,7.0,0.0
15015,84.0,60.0,60.0,6.0,0.0
15016,82.0,60.0,60.0,6.0,0.0
15017,84.0,60.0,60.0,6.0,0.0
15018,82.0,12.0,60.0,6.0,0.0
15019,71.0,0.0,240.0,7.0,0.0
15020,59.0,48.0,240.0,7.0,0.0
15021,84.0,60.0,60.0,6.0,0.0
15022,82.0,60.0,60.0,6.0,0.0
15023,84.0,60.0,60.0,6.0,0.0
15024,82.0,12.0,60.0,6.0,0.0
15025,84.0,60.0,60.0,6.0,0.0
15026,72.0,0.0,240.0,7.0,0.0
15027,60.0,48.0,240.0,7.0,0.0
15028,82.0,60.0,60.0,6.0,0.0
15029,84.0,60.0,60.0,6.0,0.0
15030,82.0,12.0,60.0,6.0,0.0
15031,84.0,60.0,60.0,6.0,0.0
15032,73.0,0.0,240.0,7.0,0.0
15033,61.0,48.0,240.0,7.0,0.0
15034,82.0,60.0,60.0,6.0,0.0
15035,84.0,60.0,60.0,6.0,0.0
15036,82.0,12.0,60.0,6.0,0.0
15037,74.0,0.0,240.0,7.0,0.0
15038,84.0,60.0,60.0,6.0,0.0
15039,62.0,48.0,240.0,7.0,0.0
15040,82.0,60.0,60.0,6.0,0.0
15041,84.0,60.0,60.0,6.0,0.0
15042,82.0,12.0,60.0,6.0,0.0
15043,63.0,48.0,240.0,7.0,0.0
15044,75.0,0.0,240.0,7.0,0.0
15045,84.0,60.0,60.0,6.0,0.0
15046,82.0,60.0,60.0,6.0,0.0
15047,84.0,60.0,60.0,6.0,0.0
15048,82.0,12.0,60.0,6.0,0.0
15049,55.0,24.0,390.0,7.0,0.0
15050,61.0,0.0,390.0,7.0,0.0
15051,51.0,0.0,390.0,7.0,0.0
15052,84.0,60.0,60.0,6.0,0.0
15053,82.0,60.0,60.0,6.0,0.0
15054,84.0,60.0,60.0,6.0,0.0
15055,82.0,60.0,60.0,6.0,0.0
15056,84.0,60.0,60.0,6.0,0.0
15057,82.0,36.0,60.0,6.0,0.0
15058,80.0,60.0,60.0,6.0,0.0
15059,82.0,204.0,60.0,6.0,0.0
15060,80.0,0.0,1200.0,0.0,0.0
15061,68.0,0.0,1200.0,11.0,0.0
15062,48.0,192.0,480.0,2.0,0.0
15063,56.0,192.0,1200.0,2.0,0.0
15064,44.0,0.0,180.0,13.0,0.0
15065,56.0,0.0,780.0,4.0,0.0
15066,56.0,0.0,390.0,8.0,0.0
15067,44.0,144.0,780.0,3.0,0.0
15068,60.0,0.0,390.0,8.0,0.0
15069,60.0,0.0,480.0,1.0,0.0
15070,68.0,0.0,480.0,1.0,0.0
15071,80.0,0.0,1200.0,10.0,0.0
15072,48.0,192.0,180.0,12.0,0.0
15073,68.0,0.0,780.0,4.0,0.0
15074,56.0,0.0,780.0,3.0,0.0
15075,32.0,0.0,180.0,14.0,0.0
15076,44.0,0.0,390.0,5.0,0.0
15077,80.0,48.0,390.0,6.0,0.0
15078,68.0,0.0,390.0,6.0,0.0
15079,32.0,0.0,180.0,14.0,0.0
15080,44.0,0.0,180.0,13.0,0.0
15081,48.0,48.0,180.0,12.0,0.0
15082,48.0,0.0,180.0,13.0,0.0
15083,63.0,0.0,480.0,1.0,0.0
15084,72.0,192.0,480.0,1.0,0.0
15085,51.0,0.0,180.0,12.0,0.0
15086,36.0,96.0,180.0,14.0,0.0
15087,51.0,0.0,480.0,2.0,0.0
15088,48.0,0.0,180.0,13.0,0.0
15089,51.0,0.0,180.0,12.0,0.0
15090,36.0,48.0,180.0,14.0,0.0
15091,52.0,0.0,180.0,12.0,0.0
15092,37.0,48.0,180.0,14.0,0.0
15093,49.0,0.0,180.0,13.0,0.0
15094,64.0,0.0,960.0,1.0,0.0
15095,52.0,192.0,960.0,2.0,0.0
15096,76.0,0.0,960.0,1.0,0.0
15097,69.0,192.0,240.0,11.0,0.0
15098,81.0,0.0,240.0,10.0,0.0
15099,52.0,0.0,180.0,12.0,0.0
15100,49.0,0.0,180.0,13.0,0.0
15101,81.0,0.0,240.0,0.0,0.0
15102,37.0,48.0,180.0,14.0,0.0
15103,57.0,0.0,240.0,2.0,0.0
15104,80.0,0.0,240.0,0.0,0.0
15105,68.0,0.0,240.0,11.0,0.0
15106,37.0,0.0,180.0,14.0,0.0
15107,80.0,192.0,240.0,10.0,0.0
15108,56.0,0.0,240.0,2.0,0.0
15109,52.0,0.0,180.0,12.0,0.0
15110,49.0,48.0,180.0,13.0,0.0
15111,55.0,0.0,240.0,2.0,0.0
15112,67.0,0.0,240.0,11.0,0.0
15113,79.0,0.0,240.0,10.0,0.0
15114,49.0,0.0,180.0,13.0,0.0
15115,52.0,0.0,180.0,12.0,0.0
15116,37.0,48.0,180.0,14.0,0.0
15117,79.0,0.0,240.0,0.0,0.0
15118,32.0,0.0,180.0,14.0,0.0
15119,56.0,0.0,780.0,4.0,0.0
15120,60.0,0.0,480.0,1.0,0.0
15121,80.0,0.0,1200.0,10.0,0.0
15122,80.0,0.0,1200.0,0.0,0.0
15123,48.0,192.0,180.0,12.0,0.0
15124,68.0,192.0,480.0,1.0,0.0
15125,68.0,144.0,780.0,4.0,0.0
15126,56.0,0.0,780.0,3.0,0.0
15127,44.0,0.0,180.0,13.0,0.0
15128,56.0,192.0,1200.0,2.0,0.0
15129,68.0,0.0,1200.0,11.0,0.0
15130,48.0,0.0,480.0,2.0,0.0
15131,44.0,0.0,780.0,3.0,0.0
15132,44.0,48.0,390.0,5.0,0.0
15133,32.0,0.0,180.0,14.0,0.0
15134,48.0,0.0,180.0,12.0,0.0
15135,44.0,48.0,180.0,13.0,0.0
15136,51.0,0.0,180.0,12.0,0.0
15137,36.0,0.0,180.0,14.0,0.0
15138,63.0,0.0,480.0,1.0,0.0
15139,51.0,192.0,480.0,2.0,0.0
15140,72.0,0.0,480.0,1.0,0.0
15141,48.0,96.0,180.0,13.0,0.0
15142,51.0,48.0,180.0,12.0,0.0
15143,36.0,0.0,180.0,14.0,0.0
15144,48.0,0.0,180.0,13.0,0.0
15145,37.0,0.0,180.0,14.0,0.0
15146,49.0,0.0,180.0,13.0,0.0
15147,52.0,48.0,180.0,12.0,0.0
15148,52.0,0.0,960.0,2.0,0.0
15149,64.0,0.0,960.0,1.0,0.0
15150,76.0,192.0,960.0,1.0,0.0
15151,52.0,0.0,180.0,12.0,0.0
15152,49.0,48.0,180.0,13.0,0.0
15153,81.0,192.0,240.0,10.0,0.0
15154,37.0,0.0,180.0,14.0,0.0
15155,81.0,0.0,240.0,0.0,0.0
15156,69.0,0.0,240.0,11.0,0.0
15157,57.0,0.0,240.0,2.0,0.0
15158,52.0,0.0,180.0,12.0,0.0
15159,80.0,0.0,240.0,0.0,0.0
15160,37.0,0.0,180.0,14.0,0.0
15161,80.0,192.0,240.0,10.0,0.0
15162,49.0,48.0,180.0,13.0,0.0
15163,68.0,0.0,240.0,11.0,0.0
15164,56.0,0.0,240.0,2.0,0.0
15165,55.0,0.0,240.0,2.0,0.0
15166,67.0,0.0,240.0,11.0,0.0
15167,79.0,0.0,240.0,0.0,0.0
15168,79.0,0.0,240.0,10.0,0.0
15169,52.0,48.0,180.0,12.0,0.0
15170,37.0,0.0,180.0,14.0,0.0
15171,49.0,0.0,180.0,13.0,0.0
15172,56.0,0.0,780.0,3.0,0.0
15173,44.0,0.0,780.0,3.0,0.0
15174,68.0,0.0,1200.0,11.0,0.0
15175,80.0,0.0,1200.0,10.0,0.0
15176,56.0,0.0,1200.0,2.0,0.0
15177,48.0,192.0,480.0,2.0,0.0
15178,68.0,0.0,780.0,4.0,0.0
15179,56.0,144.0,780.0,4.0,0.0
15180,60.0,0.0,480.0,1.0,0.0
15181,68.0,0.0,480.0,1.0,0.0
15182,80.0,192.0,1200.0,0.0,0.0
15183,32.0,0.0,180.0,14.0,0.0
15184,44.0,48.0,390.0,5.0,0.0
15185,44.0,0.0,180.0,13.0,0.0
15186,48.0,192.0,180.0,12.0,0.0
15187,44.0,0.0,180.0,13.0,0.0
15188,48.0,0.0,180.0,12.0,0.0
15189,32.0,48.0,180.0,14.0,0.0
15190,72.0,192.0,480.0,1.0,0.0
15191,48.0,0.0,180.0,13.0,0.0
15192,36.0,96.0,180.0,14.0,0.0
15193,51.0,0.0,180.0,12.0,0.0
15194,51.0,0.0,480.0,2.0,0.0
15195,63.0,0.0,480.0,1.0,0.0
15196,51.0,0.0,180.0,12.0,0.0
15197,36.0,0.0,180.0,14.0,0.0
15198,48.0,48.0,180.0,13.0,0.0
15199,37.0,0.0,180.0,14.0,0.0
15200,52.0,0.0,960.0,2.0,0.0
15201,52.0,48.0,180.0,12.0,0.0
15202,64.0,0.0,960.0,1.0,0.0
15203,76.0,96.0,960.0,1.0,0.0
15204,49.0,0.0,180.0,13.0,0.0
15205,81.0,0.0,240.0,10.0,0.0
15206,69.0,192.0,240.0,11.0,0.0
15207,49.0,0.0,180.0,13.0,0.0
15208,81.0,0.0,240.0,0.0,0.0
15209,52.0,48.0,180.0,12.0,0.0
15210,37.0,0.0,180.0,14.0,0.0
15211,57.0,0.0,240.0,2.0,0.0
15212,52.0,48.0,180.0,12.0,0.0
15213,49.0,0.0,180.0,13.0,0.0
15214,56.0,192.0,240.0,2.0,0.0
15215,80.0,0.0,240.0,10.0,0.0
15216,80.0,0.0,240.0,0.0,0.0
15217,37.0,0.0,180.0,14.0,0.0
15218,68.0,0.0,240.0,11.0,0.0
15219,79.0,0.0,240.0,0.0,0.0
15220,79.0,0.0,240.0,10.0,0.0
15221,67.0,0.0,240.0,11.0,0.0
15222,52.0,0.0,180.0,12.0,0.0
15223,37.0,48.0,180.0,14.0,0.0
15224,49.0,0.0,180.0,13.0,0.0
15225,55.0,0.0,240.0,2.0,0.0
15226,56.0,0.0,2310.0,4.0,0.0
15227,68.0,48.0,90.0,11.0,0.0
15228,63.0,48.0,390.0,1.0,0.0
15229,68.0,0.0,2310.0,4.0,0.0
15230,48.0,0.0,180.0,2.0,0.0
15231,44.0,0.0,2310.0,3.0,0.0
15232,56.0,0.0,2310.0,3.0,0.0
15233,44.0,48.0,780.0,5.0,0.0
15234,80.0,24.0,3300.0,0.0,0.0
15235,48.0,0.0,180.0,13.0,0.0
15236,36.0,24.0,180.0,14.0,0.0
15237,80.0,48.0,150.0,10.0,0.0
15238,51.0,0.0,90.0,12.0,0.0
15239,75.0,0.0,390.0,1.0,0.0
15240,51.0,0.0,90.0,12.0,0.0
15241,68.0,120.0,90.0,11.0,0.0
15242,36.0,24.0,180.0,14.0,0.0
15243,48.0,0.0,180.0,2.0,0.0
15244,51.0,0.0,90.0,12.0,0.0
15245,68.0,48.0,90.0,11.0,0.0
15246,75.0,0.0,150.0,10.0,0.0
15247,48.0,0.0,180.0,13.0,0.0
15248,68.0,0.0,90.0,11.0,0.0
15249,51.0,120.0,90.0,12.0,0.0
15250,48.0,0.0,180.0,13.0,0.0
15251,63.0,0.0,780.0,1.0,0.0
15252,56.0,0.0,90.0,12.0,0.0
15253,68.0,96.0,90.0,11.0,0.0
15254,75.0,116.0,930.0,10.0,0.0
15255,48.0,24.0,180.0,2.0,0.0
15256,36.0,0.0,180.0,14.0,0.0
15257,75.0,48.0,780.0,1.0,0.0
15258,68.0,72.0,90.0,11.0,0.0
15259,56.0,0.0,90.0,12.0,0.0
15260,56.0,0.0,90.0,12.0,0.0
15261,48.0,0.0,180.0,13.0,0.0
15262,48.0,0.0,180.0,2.0,0.0
15263,68.0,96.0,90.0,11.0,0.0
15264,36.0,24.0,180.0,14.0,0.0
15265,56.0,120.0,90.0,12.0,0.0
15266,68.0,0.0,90.0,11.0,0.0
15267,48.0,24.0,180.0,13.0,0.0
15268,68.0,96.0,90.0,11.0,0.0
15269,44.0,48.0,390.0,5.0,0.0
15270,48.0,0.0,180.0,2.0,0.0
15271,63.0,0.0,90.0,12.0,0.0
15272,36.0,0.0,180.0,14.0,0.0
15273,63.0,0.0,90.0,12.0,0.0
15274,68.0,72.0,90.0,11.0,0.0
15275,63.0,48.0,90.0,12.0,0.0
15276,48.0,24.0,180.0,2.0,0.0
15277,36.0,0.0,180.0,14.0,0.0
15278,68.0,0.0,90.0,11.0,0.0
15279,48.0,0.0,180.0,13.0,0.0
15280,68.0,0.0,90.0,11.0,0.0
15281,63.0,4.0,90.0,12.0,0.0
15282,76.0,0.0,720.0,10.0,0.0
15283,66.0,0.0,90.0,12.0,0.0
15284,76.0,96.0,720.0,1.0,0.0
15285,44.0,48.0,390.0,5.0,0.0
15286,36.0,0.0,180.0,14.0,0.0
15287,48.0,0.0,180.0,2.0,0.0
15288,64.0,0.0,720.0,1.0,0.0
15289,68.0,96.0,90.0,11.0,0.0
15290,48.0,24.0,180.0,13.0,0.0
15291,68.0,0.0,90.0,11.0,0.0
15292,66.0,120.0,90.0,12.0,0.0
15293,48.0,24.0,180.0,13.0,0.0
15294,66.0,0.0,90.0,12.0,0.0
15295,36.0,0.0,180.0,14.0,0.0
15296,68.0,48.0,90.0,11.0,0.0
15297,48.0,0.0,180.0,2.0,0.0
15298,66.0,120.0,90.0,12.0,0.0
15299,68.0,0.0,90.0,11.0,0.0
15300,65.0,0.0,90.0,12.0,0.0
15301,44.0,0.0,390.0,5.0,0.0
15302,49.0,24.0,180.0,2.0,0.0
15303,49.0,0.0,180.0,13.0,0.0
15304,37.0,0.0,180.0,14.0,0.0
15305,68.0,96.0,90.0,11.0,0.0
15306,65.0,0.0,90.0,12.0,0.0
15307,68.0,24.0,90.0,11.0,0.0
15308,49.0,0.0,180.0,13.0,0.0
15309,65.0,0.0,90.0,12.0,0.0
15310,65.0,24.0,180.0,1.0,0.0
15311,49.0,0.0,180.0,2.0,0.0
15312,77.0,0.0,180.0,1.0,0.0
15313,37.0,0.0,180.0,14.0,0.0
15314,77.0,48.0,150.0,10.0,0.0
15315,68.0,48.0,90.0,11.0,0.0
15316,68.0,0.0,90.0,11.0,0.0
15317,65.0,120.0,90.0,12.0,0.0
15318,65.0,48.0,780.0,1.0,0.0
15319,77.0,0.0,780.0,1.0,0.0
15320,65.0,96.0,90.0,12.0,0.0
15321,49.0,0.0,180.0,2.0,0.0
15322,37.0,0.0,180.0,14.0,0.0
15323,49.0,24.0,180.0,13.0,0.0
15324,77.0,116.0,930.0,10.0,0.0
15325,68.0,0.0,90.0,11.0,0.0
15326,65.0,0.0,90.0,12.0,0.0
15327,68.0,120.0,90.0,11.0,0.0
15328,37.0,0.0,180.0,14.0,0.0
15329,65.0,0.0,90.0,12.0,0.0
15330,49.0,24.0,180.0,2.0,0.0
15331,49.0,0.0,180.0,13.0,0.0
15332,68.0,96.0,90.0,11.0,0.0
15333,68.0,120.0,90.0,11.0,0.0
15334,65.0,0.0,90.0,12.0,0.0
15335,49.0,0.0,180.0,2.0,0.0
15336,37.0,24.0,180.0,14.0,0.0
15337,49.0,0.0,180.0,13.0,0.0
15338,65.0,96.0,90.0,12.0,0.0
15339,68.0,0.0,90.0,11.0,0.0
15340,65.0,72.0,90.0,12.0,0.0
15341,68.0,0.0,90.0,11.0,0.0
15342,49.0,0.0,180.0,2.0,0.0
15343,65.0,0.0,90.0,12.0,0.0
15344,68.0,72.0,90.0,11.0,0.0
15345,37.0,24.0,180.0,14.0,0.0
15346,49.0,0.0,180.0,13.0,0.0
15347,68.0,4.0,90.0,11.0,0.0
15348,65.0,0.0,90.0,12.0,0.0
15349,49.0,24.0,180.0,2.0,0.0
15350,37.0,0.0,180.0,14.0,0.0
15351,70.0,96.0,90.0,11.0,0.0
15352,64.0,0.0,90.0,12.0,0.0
15353,49.0,0.0,180.0,13.0,0.0
15354,67.0,96.0,720.0,1.0,0.0
15355,79.0,0.0,720.0,10.0,0.0
15356,82.0,120.0,450.0,0.0,0.0
15357,79.0,0.0,720.0,1.0,0.0
15358,70.0,120.0,90.0,11.0,0.0
15359,64.0,0.0,90.0,12.0,0.0
15360,49.0,0.0,180.0,2.0,0.0
15361,37.0,0.0,180.0,14.0,0.0
15362,70.0,0.0,90.0,11.0,0.0
15363,49.0,24.0,180.0,13.0,0.0
15364,64.0,96.0,90.0,12.0,0.0
15365,70.0,0.0,90.0,11.0,0.0
15366,64.0,0.0,90.0,12.0,0.0
15367,44.0,48.0,390.0,3.0,0.0
15368,38.0,24.0,180.0,14.0,0.0
15369,44.0,0.0,390.0,5.0,0.0
15370,71.0,0.0,90.0,11.0,0.0
15371,56.0,0.0,390.0,4.0,0.0
15372,68.0,0.0,390.0,4.0,0.0
15373,56.0,0.0,390.0,3.0,0.0
15374,50.0,0.0,180.0,2.0,0.0
15375,50.0,0.0,180.0,13.0,0.0
15376,83.0,24.0,1380.0,0.0,0.0
15377,65.0,96.0,90.0,12.0,0.0
15378,71.0,0.0,90.0,11.0,0.0
15379,65.0,24.0,90.0,12.0,0.0
15380,65.0,48.0,90.0,12.0,0.0
15381,80.0,0.0,180.0,1.0,0.0
15382,50.0,24.0,180.0,2.0,0.0
15383,38.0,0.0,180.0,14.0,0.0
15384,80.0,0.0,150.0,10.0,0.0
15385,71.0,0.0,90.0,11.0,0.0
15386,68.0,0.0,180.0,1.0,0.0
15387,50.0,0.0,180.0,13.0,0.0
15388,65.0,120.0,90.0,12.0,0.0
15389,71.0,0.0,90.0,11.0,0.0
15390,65.0,0.0,90.0,12.0,0.0
15391,50.0,0.0,180.0,2.0,0.0
15392,80.0,0.0,780.0,1.0,0.0
15393,38.0,0.0,180.0,14.0,0.0
15394,44.0,0.0,300.0,3.0,0.0
15395,80.0,116.0,930.0,10.0,0.0
15396,44.0,0.0,300.0,5.0,0.0
15397,56.0,0.0,300.0,4.0,0.0
15398,68.0,0.0,300.0,4.0,0.0
15399,71.0,96.0,90.0,11.0,0.0
15400,50.0,24.0,180.0,13.0,0.0
15401,56.0,48.0,300.0,3.0,0.0
15402,68.0,48.0,780.0,1.0,0.0
15403,65.0,72.0,90.0,12.0,0.0
15404,71.0,0.0,90.0,11.0,0.0
15405,38.0,0.0,180.0,14.0,0.0
15406,65.0,96.0,90.0,12.0,0.0
15407,71.0,0.0,90.0,11.0,0.0
15408,50.0,0.0,180.0,13.0,0.0
15409,50.0,24.0,180.0,2.0,0.0
15410,65.0,0.0,90.0,12.0,0.0
15411,44.0,0.0,90.0,5.0,0.0
15412,71.0,0.0,90.0,11.0,0.0
15413,56.0,0.0,90.0,4.0,0.0
15414,56.0,0.0,90.0,3.0,0.0
15415,44.0,120.0,90.0,3.0,0.0
15416,68.0,0.0,90.0,4.0,0.0
15417,41.0,0.0,180.0,14.0,0.0
15418,71.0,96.0,90.0,11.0,0.0
15419,56.0,0.0,390.0,4.0,0.0
15420,68.0,0.0,390.0,4.0,0.0
15421,44.0,0.0,390.0,3.0,0.0
15422,56.0,0.0,390.0,3.0,0.0
15423,68.0,0.0,90.0,12.0,0.0
15424,44.0,24.0,390.0,5.0,0.0
15425,53.0,0.0,180.0,13.0,0.0
15426,53.0,24.0,180.0,2.0,0.0
15427,71.0,0.0,90.0,11.0,0.0
15428,68.0,72.0,90.0,12.0,0.0
15429,53.0,0.0,180.0,2.0,0.0
15430,53.0,0.0,180.0,13.0,0.0
15431,41.0,24.0,180.0,14.0,0.0
15432,71.0,0.0,90.0,11.0,0.0
15433,68.0,48.0,90.0,12.0,0.0
15434,71.0,4.0,90.0,11.0,0.0
15435,68.0,0.0,90.0,12.0,0.0
15436,41.0,24.0,180.0,14.0,0.0
15437,74.0,0.0,390.0,10.0,0.0
15438,62.0,0.0,390.0,1.0,0.0
15439,56.0,0.0,390.0,4.0,0.0
15440,68.0,0.0,390.0,4.0,0.0
15441,86.0,0.0,450.0,0.0,0.0
15442,68.0,96.0,90.0,12.0,0.0
15443,71.0,0.0,90.0,11.0,0.0
15444,44.0,48.0,390.0,3.0,0.0
15445,56.0,0.0,390.0,3.0,0.0
15446,44.0,0.0,390.0,5.0,0.0
15447,74.0,0.0,390.0,1.0,0.0
15448,53.0,0.0,180.0,13.0,0.0
15449,53.0,0.0,180.0,2.0,0.0
15450,68.0,120.0,90.0,12.0,0.0
15451,71.0,0.0,90.0,11.0,0.0
15452,68.0,0.0,90.0,12.0,0.0
15453,41.0,0.0,180.0,14.0,0.0
15454,71.0,48.0,90.0,11.0,0.0
15455,53.0,0.0,180.0,2.0,0.0
15456,53.0,24.0,180.0,13.0,0.0
15457,71.0,120.0,90.0,11.0,0.0
15458,68.0,0.0,90.0,12.0,0.0
15459,68.0,48.0,90.0,12.0,0.0
15460,51.0,0.0,180.0,2.0,0.0
15461,75.0,0.0,390.0,1.0,0.0
15462,63.0,0.0,390.0,1.0,0.0
15463,51.0,0.0,180.0,13.0,0.0
15464,60.0,48.0,390.0,3.0,0.0
15465,72.0,0.0,90.0,11.0,0.0
15466,39.0,0.0,390.0,5.0,0.0
15467,39.0,24.0,180.0,14.0,0.0
15468,87.0,96.0,960.0,0.0,0.0
15469,75.0,48.0,150.0,10.0,0.0
15470,51.0,0.0,780.0,4.0,0.0
15471,63.0,48.0,780.0,4.0,0.0
15472,56.0,0.0,390.0,3.0,0.0
15473,68.0,120.0,90.0,12.0,0.0
15474,72.0,0.0,90.0,11.0,0.0
15475,75.0,0.0,150.0,10.0,0.0
15476,72.0,0.0,90.0,11.0,0.0
15477,39.0,24.0,180.0,14.0,0.0
15478,68.0,48.0,90.0,12.0,0.0
15479,51.0,0.0,180.0,13.0,0.0
15480,51.0,0.0,180.0,2.0,0.0
15481,72.0,120.0,90.0,11.0,0.0
15482,68.0,0.0,90.0,12.0,0.0
15483,68.0,0.0,300.0,1.0,0.0
15484,51.0,0.0,180.0,2.0,0.0
15485,63.0,0.0,90.0,12.0,0.0
15486,72.0,0.0,300.0,1.0,0.0
15487,68.0,96.0,90.0,11.0,0.0
15488,39.0,24.0,180.0,14.0,0.0
15489,56.0,0.0,300.0,3.0,0.0
15490,75.0,12.0,690.0,10.0,0.0
15491,60.0,0.0,300.0,3.0,0.0
15492,51.0,0.0,180.0,13.0,0.0
15493,63.0,0.0,90.0,12.0,0.0
15494,68.0,72.0,90.0,11.0,0.0
15495,51.0,0.0,180.0,13.0,0.0
15496,68.0,0.0,90.0,11.0,0.0
15497,63.0,96.0,90.0,12.0,0.0
15498,51.0,0.0,180.0,2.0,0.0
15499,39.0,24.0,180.0,14.0,0.0
15500,68.0,0.0,90.0,1.0,0.0
15501,68.0,0.0,90.0,11.0,0.0
15502,56.0,24.0,90.0,3.0,0.0
15503,72.0,0.0,90.0,1.0,0.0
15504,60.0,0.0,90.0,3.0,0.0
15505,63.0,0.0,90.0,12.0,0.0
15506,84.0,96.0,480.0,0.0,0.0
15507,39.0,0.0,180.0,14.0,0.0
15508,51.0,0.0,180.0,2.0,0.0
15509,60.0,0.0,90.0,12.0,0.0
15510,63.0,96.0,90.0,11.0,0.0
15511,51.0,0.0,390.0,4.0,0.0
15512,60.0,0.0,390.0,3.0,0.0
15513,51.0,12.0,180.0,13.0,0.0
15514,68.0,0.0,390.0,1.0,0.0
15515,72.0,0.0,390.0,1.0,0.0
15516,63.0,48.0,390.0,4.0,0.0
15517,56.0,0.0,390.0,3.0,0.0
15518,63.0,120.0,90.0,11.0,0.0
15519,60.0,0.0,90.0,12.0,0.0
15520,77.0,48.0,90.0,10.0,0.0
15521,51.0,0.0,180.0,13.0,0.0
15522,60.0,0.0,90.0,12.0,0.0
15523,63.0,0.0,90.0,11.0,0.0
15524,51.0,0.0,180.0,2.0,0.0
15525,39.0,24.0,180.0,14.0,0.0
15526,75.0,24.0,90.0,10.0,0.0
15527,63.0,0.0,90.0,11.0,0.0
15528,60.0,0.0,90.0,12.0,0.0
15529,73.0,96.0,90.0,10.0,0.0
15530,80.0,96.0,480.0,0.0,0.0
15531,56.0,0.0,390.0,3.0,0.0
15532,51.0,0.0,180.0,13.0,0.0
15533,60.0,0.0,90.0,11.0,0.0
15534,51.0,0.0,180.0,2.0,0.0
15535,60.0,48.0,390.0,3.0,0.0
15536,68.0,0.0,390.0,1.0,0.0
15537,56.0,0.0,90.0,12.0,0.0
15538,39.0,24.0,180.0,14.0,0.0
15539,51.0,0.0,390.0,4.0,0.0
15540,63.0,0.0,390.0,4.0,0.0
15541,72.0,0.0,390.0,1.0,0.0
15542,72.0,0.0,90.0,10.0,0.0
15543,60.0,120.0,90.0,11.0,0.0
15544,56.0,0.0,90.0,12.0,0.0
15545,39.0,24.0,180.0,14.0,0.0
15546,56.0,0.0,90.0,12.0,0.0
15547,51.0,0.0,180.0,13.0,0.0
15548,51.0,0.0,180.0,2.0,0.0
15549,70.0,0.0,90.0,10.0,0.0
15550,60.0,48.0,90.0,11.0,0.0
15551,68.0,24.0,90.0,10.0,0.0
15552,56.0,0.0,90.0,12.0,0.0
15553,60.0,0.0,90.0,11.0,0.0
15554,51.0,0.0,180.0,13.0,0.0
15555,58.0,48.0,90.0,11.0,0.0
15556,55.0,0.0,90.0,12.0,0.0
15557,39.0,24.0,180.0,14.0,0.0
15558,70.0,48.0,390.0,1.0,0.0
15559,63.0,0.0,780.0,4.0,0.0
15560,73.0,48.0,150.0,10.0,0.0
15561,39.0,48.0,780.0,5.0,0.0
15562,51.0,0.0,180.0,2.0,0.0
15563,51.0,0.0,390.0,3.0,0.0
15564,58.0,0.0,390.0,3.0,0.0
15565,85.0,96.0,960.0,0.0,0.0
15566,51.0,0.0,780.0,4.0,0.0
15567,67.0,0.0,390.0,1.0,0.0
15568,55.0,0.0,90.0,12.0,0.0
15569,58.0,120.0,90.0,11.0,0.0
15570,58.0,0.0,90.0,11.0,0.0
15571,73.0,0.0,150.0,10.0,0.0
15572,51.0,0.0,180.0,13.0,0.0
15573,51.0,0.0,180.0,2.0,0.0
15574,39.0,24.0,180.0,14.0,0.0
15575,55.0,48.0,90.0,12.0,0.0
15576,55.0,0.0,90.0,12.0,0.0
15577,58.0,120.0,90.0,11.0,0.0
15578,70.0,0.0,300.0,1.0,0.0
15579,39.0,0.0,180.0,14.0,0.0
15580,67.0,0.0,300.0,1.0,0.0
15581,51.0,0.0,300.0,3.0,0.0
15582,51.0,0.0,180.0,2.0,0.0
15583,55.0,96.0,90.0,12.0,0.0
15584,51.0,24.0,180.0,13.0,0.0
15585,58.0,0.0,90.0,11.0,0.0
15586,73.0,12.0,690.0,10.0,0.0
15587,58.0,0.0,300.0,3.0,0.0
15588,58.0,0.0,90.0,11.0,0.0
15589,55.0,72.0,90.0,12.0,0.0
15590,55.0,0.0,90.0,12.0,0.0
15591,39.0,0.0,180.0,14.0,0.0
15592,58.0,96.0,90.0,11.0,0.0
15593,51.0,0.0,180.0,13.0,0.0
15594,51.0,24.0,180.0,2.0,0.0
15595,51.0,0.0,90.0,3.0,0.0
15596,58.0,24.0,90.0,3.0,0.0
15597,55.0,0.0,90.0,12.0,0.0
15598,70.0,0.0,90.0,1.0,0.0
15599,67.0,0.0,90.0,1.0,0.0
15600,58.0,0.0,90.0,11.0,0.0
15601,58.0,96.0,90.0,12.0,0.0
15602,61.0,0.0,90.0,11.0,0.0
15603,51.0,0.0,180.0,13.0,0.0
15604,82.0,96.0,480.0,0.0,0.0
15605,51.0,0.0,390.0,3.0,0.0
15606,58.0,0.0,390.0,3.0,0.0
15607,67.0,48.0,390.0,1.0,0.0
15608,70.0,0.0,390.0,1.0,0.0
15609,51.0,0.0,390.0,4.0,0.0
15610,63.0,0.0,390.0,4.0,0.0
15611,39.0,0.0,390.0,5.0,0.0
15612,51.0,12.0,180.0,2.0,0.0
15613,39.0,0.0,180.0,14.0,0.0
15614,58.0,0.0,90.0,12.0,0.0
15615,61.0,120.0,90.0,11.0,0.0
15616,51.0,0.0,180.0,13.0,0.0
15617,61.0,0.0,90.0,11.0,0.0
15618,58.0,48.0,90.0,12.0,0.0
15619,51.0,0.0,180.0,2.0,0.0
15620,39.0,24.0,180.0,14.0,0.0
15621,75.0,0.0,90.0,10.0,0.0
15622,61.0,0.0,90.0,11.0,0.0
15623,73.0,24.0,90.0,10.0,0.0
15624,58.0,0.0,90.0,12.0,0.0
15625,51.0,0.0,180.0,2.0,0.0
15626,70.0,0.0,390.0,1.0,0.0
15627,67.0,0.0,390.0,1.0,0.0
15628,51.0,48.0,390.0,4.0,0.0
15629,61.0,96.0,90.0,11.0,0.0
15630,63.0,0.0,390.0,4.0,0.0
15631,72.0,0.0,90.0,10.0,0.0
15632,79.0,132.0,480.0,0.0,0.0
15633,58.0,0.0,90.0,12.0,0.0
15634,51.0,24.0,180.0,13.0,0.0
15635,39.0,0.0,180.0,14.0,0.0
15636,51.0,0.0,390.0,3.0,0.0
15637,58.0,0.0,390.0,3.0,0.0
15638,39.0,0.0,390.0,5.0,0.0
15639,58.0,0.0,90.0,12.0,0.0
15640,61.0,0.0,90.0,11.0,0.0
15641,70.0,120.0,90.0,10.0,0.0
15642,51.0,0.0,180.0,13.0,0.0
15643,61.0,0.0,90.0,11.0,0.0
15644,68.0,48.0,90.0,10.0,0.0
15645,39.0,0.0,180.0,14.0,0.0
15646,58.0,0.0,90.0,12.0,0.0
15647,51.0,24.0,180.0,2.0,0.0
15648,58.0,0.0,90.0,12.0,0.0
15649,61.0,24.0,90.0,11.0,0.0
15650,67.0,0.0,90.0,10.0,0.0
15651,63.0,0.0,390.0,4.0,0.0
15652,32.0,0.0,390.0,14.0,0.0
15653,56.0,0.0,390.0,3.0,0.0
15654,68.0,0.0,390.0,10.0,0.0
15655,60.0,0.0,390.0,11.0,0.0
15656,44.0,0.0,390.0,3.0,0.0
15657,44.0,0.0,390.0,13.0,0.0
15658,68.0,60.0,120.0,1.0,0.0
15659,56.0,228.0,390.0,4.0,0.0
15660,80.0,180.0,180.0,0.0,0.0
15661,44.0,0.0,390.0,5.0,0.0
15662,56.0,0.0,120.0,2.0,0.0
15663,44.0,0.0,120.0,2.0,0.0
15664,56.0,0.0,390.0,12.0,0.0
15665,56.0,12.0,120.0,2.0,0.0
15666,68.0,0.0,120.0,1.0,0.0
15667,60.0,240.0,120.0,1.0,0.0
15668,63.0,0.0,120.0,1.0,0.0
15669,69.0,132.0,480.0,0.0,0.0
15670,53.0,0.0,120.0,2.0,0.0
15671,41.0,0.0,120.0,2.0,0.0
15672,60.0,0.0,120.0,1.0,0.0
15673,63.0,108.0,120.0,1.0,0.0
15674,41.0,0.0,120.0,2.0,0.0
15675,53.0,0.0,120.0,2.0,0.0
15676,70.0,132.0,480.0,0.0,0.0
15677,46.0,0.0,120.0,2.0,0.0
15678,53.0,0.0,120.0,2.0,0.0
15679,61.0,0.0,120.0,1.0,0.0
15680,58.0,240.0,120.0,1.0,0.0
15681,61.0,0.0,120.0,1.0,0.0
15682,58.0,0.0,120.0,1.0,0.0
15683,46.0,108.0,120.0,2.0,0.0
15684,53.0,0.0,120.0,2.0,0.0
15685,66.0,0.0,120.0,1.0,0.0
15686,63.0,240.0,120.0,1.0,0.0
15687,72.0,132.0,480.0,0.0,0.0
15688,56.0,0.0,120.0,2.0,0.0
15689,44.0,0.0,120.0,2.0,0.0
15690,56.0,0.0,120.0,2.0,0.0
15691,63.0,108.0,120.0,1.0,0.0
15692,66.0,0.0,120.0,1.0,0.0
15693,44.0,0.0,120.0,2.0,0.0
15694,73.0,132.0,480.0,0.0,0.0
15695,65.0,240.0,120.0,1.0,0.0
15696,56.0,0.0,120.0,2.0,0.0
15697,49.0,0.0,120.0,2.0,0.0
15698,61.0,0.0,120.0,1.0,0.0
15699,65.0,0.0,120.0,1.0,0.0
15700,56.0,0.0,120.0,2.0,0.0
15701,49.0,0.0,120.0,2.0,0.0
15702,61.0,108.0,120.0,1.0,0.0
15703,68.0,0.0,120.0,1.0,0.0
15704,65.0,0.0,120.0,1.0,0.0
15705,74.0,132.0,480.0,0.0,0.0
15706,46.0,240.0,120.0,2.0,0.0
15707,58.0,0.0,120.0,2.0,0.0
15708,68.0,0.0,120.0,1.0,0.0
15709,46.0,108.0,120.0,2.0,0.0
15710,65.0,0.0,120.0,1.0,0.0
15711,58.0,0.0,120.0,2.0,0.0
15712,67.0,0.0,120.0,1.0,0.0
15713,51.0,240.0,120.0,2.0,0.0
15714,58.0,0.0,120.0,2.0,0.0
15715,75.0,132.0,480.0,0.0,0.0
15716,63.0,0.0,120.0,1.0,0.0
15717,63.0,0.0,120.0,1.0,0.0
15718,51.0,0.0,120.0,2.0,0.0
15719,67.0,108.0,120.0,1.0,0.0
15720,58.0,0.0,120.0,2.0,0.0
15721,48.0,0.0,120.0,2.0,0.0
15722,76.0,192.0,480.0,0.0,0.0
15723,67.0,0.0,120.0,1.0,0.0
15724,70.0,0.0,120.0,1.0,0.0
15725,60.0,240.0,120.0,2.0,0.0
15726,48.0,0.0,120.0,2.0,0.0
15727,60.0,108.0,120.0,2.0,0.0
15728,70.0,0.0,120.0,1.0,0.0
15729,67.0,0.0,120.0,1.0,0.0
15730,61.0,0.0,390.0,2.0,0.0
15731,37.0,0.0,180.0,14.0,0.0
15732,77.0,144.0,1200.0,10.0,0.0
15733,58.0,0.0,180.0,11.0,0.0
15734,49.0,192.0,180.0,13.0,0.0
15735,49.0,48.0,390.0,2.0,0.0
15736,77.0,0.0,390.0,0.0,0.0
15737,56.0,0.0,180.0,12.0,0.0
15738,68.0,0.0,390.0,1.0,0.0
15739,37.0,0.0,180.0,14.0,0.0
15740,56.0,0.0,180.0,12.0,0.0
15741,49.0,240.0,180.0,13.0,0.0
15742,58.0,0.0,180.0,11.0,0.0
15743,49.0,0.0,180.0,13.0,0.0
15744,56.0,0.0,180.0,12.0,0.0
15745,37.0,240.0,180.0,14.0,0.0
15746,58.0,0.0,180.0,11.0,0.0
15747,37.0,0.0,180.0,14.0,0.0
15748,49.0,0.0,180.0,13.0,0.0
15749,56.0,240.0,180.0,12.0,0.0
15750,58.0,0.0,180.0,11.0,0.0
15751,37.0,48.0,180.0,14.0,0.0
15752,56.0,0.0,180.0,12.0,0.0
15753,49.0,0.0,180.0,13.0,0.0
15754,58.0,0.0,180.0,11.0,0.0
15755,58.0,192.0,180.0,11.0,0.0
15756,49.0,0.0,180.0,13.0,0.0
15757,37.0,0.0,180.0,14.0,0.0
15758,56.0,0.0,180.0,12.0,0.0
15759,80.0,48.0,150.0,10.0,0.0
15760,56.0,0.0,180.0,12.0,0.0
15761,58.0,0.0,180.0,11.0,0.0
15762,79.0,48.0,150.0,10.0,0.0
15763,37.0,192.0,180.0,14.0,0.0
15764,49.0,0.0,180.0,13.0,0.0
15765,56.0,0.0,180.0,12.0,0.0
15766,77.0,48.0,150.0,10.0,0.0
15767,49.0,0.0,180.0,13.0,0.0
15768,58.0,240.0,180.0,11.0,0.0
15769,37.0,0.0,180.0,14.0,0.0
15770,39.0,0.0,180.0,14.0,0.0
15771,51.0,0.0,180.0,13.0,0.0
15772,56.0,0.0,180.0,12.0,0.0
15773,60.0,48.0,180.0,11.0,0.0
15774,77.0,144.0,240.0,10.0,0.0
15775,75.0,48.0,150.0,10.0,0.0
15776,51.0,0.0,180.0,13.0,0.0
15777,60.0,192.0,180.0,11.0,0.0
15778,56.0,0.0,180.0,12.0,0.0
15779,39.0,0.0,180.0,14.0,0.0
15780,56.0,192.0,180.0,12.0,0.0
15781,60.0,0.0,180.0,11.0,0.0
15782,73.0,48.0,150.0,10.0,0.0
15783,39.0,0.0,180.0,14.0,0.0
15784,51.0,0.0,180.0,13.0,0.0
15785,51.0,240.0,180.0,13.0,0.0
15786,60.0,0.0,180.0,11.0,0.0
15787,56.0,0.0,180.0,12.0,0.0
15788,39.0,0.0,180.0,14.0,0.0
15789,72.0,48.0,150.0,10.0,0.0
15790,27.0,48.0,180.0,14.0,0.0
15791,61.0,0.0,180.0,11.0,0.0
15792,55.0,0.0,180.0,12.0,0.0
15793,72.0,144.0,240.0,10.0,0.0
15794,39.0,0.0,180.0,13.0,0.0
15795,70.0,48.0,150.0,10.0,0.0
15796,39.0,0.0,180.0,13.0,0.0
15797,55.0,0.0,180.0,12.0,0.0
15798,27.0,0.0,180.0,14.0,0.0
15799,61.0,192.0,180.0,11.0,0.0
15800,61.0,192.0,180.0,11.0,0.0
15801,39.0,0.0,180.0,13.0,0.0
15802,27.0,0.0,180.0,14.0,0.0
15803,56.0,0.0,180.0,12.0,0.0
15804,68.0,48.0,150.0,10.0,0.0
15805,61.0,0.0,180.0,11.0,0.0
15806,58.0,0.0,180.0,12.0,0.0
15807,39.0,0.0,180.0,13.0,0.0
15808,27.0,240.0,180.0,14.0,0.0
15809,67.0,48.0,150.0,10.0,0.0
15810,44.0,0.0,390.0,13.0,0.0
15811,44.0,0.0,180.0,3.0,0.0
15812,56.0,0.0,180.0,3.0,0.0
15813,68.0,0.0,390.0,10.0,0.0
15814,68.0,0.0,180.0,1.0,0.0
15815,56.0,192.0,180.0,4.0,0.0
15816,68.0,0.0,180.0,4.0,0.0
15817,80.0,0.0,180.0,0.0,0.0
15818,32.0,0.0,390.0,14.0,0.0
15819,56.0,288.0,390.0,12.0,0.0
15820,60.0,0.0,390.0,11.0,0.0
15821,63.0,0.0,180.0,1.0,0.0
15822,51.0,0.0,180.0,4.0,0.0
15823,63.0,0.0,180.0,4.0,0.0
15824,75.0,480.0,180.0,0.0,0.0
15825,39.0,0.0,180.0,3.0,0.0
15826,51.0,0.0,180.0,3.0,0.0
15827,44.0,0.0,180.0,3.0,0.0
15828,56.0,0.0,180.0,3.0,0.0
15829,68.0,0.0,180.0,1.0,0.0
15830,56.0,480.0,180.0,4.0,0.0
15831,68.0,0.0,180.0,4.0,0.0
15832,80.0,0.0,180.0,0.0,0.0
15833,72.0,0.0,180.0,1.0,0.0
15834,60.0,0.0,180.0,4.0,0.0
15835,48.0,0.0,180.0,3.0,0.0
15836,60.0,0.0,180.0,3.0,0.0
15837,84.0,0.0,180.0,0.0,0.0
15838,72.0,480.0,180.0,4.0,0.0
15839,44.0,0.0,180.0,5.0,0.0
15840,68.0,0.0,180.0,10.0,0.0
15841,63.0,0.0,390.0,3.0,0.0
15842,87.0,384.0,1920.0,0.0,0.0
15843,56.0,0.0,180.0,13.0,0.0
15844,44.0,0.0,180.0,14.0,0.0
15845,75.0,0.0,390.0,1.0,0.0
15846,56.0,0.0,180.0,2.0,0.0
15847,51.0,0.0,390.0,3.0,0.0
15848,68.0,0.0,180.0,12.0,0.0
15849,68.0,192.0,180.0,11.0,0.0
15850,75.0,288.0,390.0,4.0,0.0
15851,63.0,0.0,390.0,4.0,0.0
15852,51.0,0.0,180.0,13.0,0.0
15853,75.0,168.0,300.0,4.0,0.0
15854,39.0,96.0,180.0,14.0,0.0
15855,63.0,0.0,180.0,11.0,0.0
15856,63.0,0.0,300.0,3.0,0.0
15857,63.0,0.0,180.0,12.0,0.0
15858,39.0,0.0,180.0,5.0,0.0
15859,75.0,0.0,300.0,1.0,0.0
15860,51.0,0.0,180.0,2.0,0.0
15861,63.0,0.0,180.0,10.0,0.0
15862,51.0,0.0,300.0,3.0,0.0
15863,63.0,0.0,300.0,4.0,0.0
15864,63.0,0.0,90.0,4.0,0.0
15865,75.0,216.0,90.0,1.0,0.0
15866,75.0,0.0,90.0,4.0,0.0
15867,51.0,0.0,90.0,3.0,0.0
15868,63.0,0.0,90.0,3.0,0.0
15869,68.0,0.0,180.0,12.0,0.0
15870,68.0,192.0,180.0,10.0,0.0
15871,68.0,0.0,180.0,11.0,0.0
15872,56.0,0.0,180.0,2.0,0.0
15873,44.0,0.0,180.0,5.0,0.0
15874,75.0,0.0,390.0,1.0,0.0
15875,44.0,0.0,180.0,14.0,0.0
15876,56.0,0.0,180.0,13.0,0.0
15877,63.0,0.0,390.0,4.0,0.0
15878,63.0,288.0,390.0,3.0,0.0
15879,51.0,0.0,390.0,3.0,0.0
15880,75.0,0.0,390.0,4.0,0.0
15881,72.0,0.0,180.0,10.0,0.0
15882,60.0,0.0,180.0,2.0,0.0
15883,72.0,0.0,180.0,11.0,0.0
15884,72.0,0.0,180.0,12.0,0.0
15885,48.0,0.0,180.0,14.0,0.0
15886,75.0,96.0,390.0,4.0,0.0
15887,63.0,0.0,390.0,3.0,0.0
15888,63.0,0.0,390.0,4.0,0.0
15889,44.0,192.0,180.0,5.0,0.0
15890,60.0,0.0,180.0,13.0,0.0
15891,51.0,0.0,390.0,3.0,0.0
15892,75.0,0.0,390.0,1.0,0.0
15893,63.0,72.0,780.0,4.0,0.0
15894,61.0,0.0,690.0,13.0,0.0
15895,73.0,0.0,690.0,1.0,0.0
15896,51.0,0.0,780.0,3.0,0.0
15897,75.0,0.0,780.0,4.0,0.0
15898,61.0,0.0,690.0,2.0,0.0
15899,85.0,0.0,690.0,0.0,0.0
15900,73.0,0.0,690.0,12.0,0.0
15901,73.0,84.0,690.0,10.0,0.0
15902,49.0,0.0,690.0,14.0,0.0
15903,39.0,300.0,390.0,5.0,0.0
15904,63.0,0.0,780.0,3.0,0.0
15905,73.0,0.0,690.0,11.0,0.0
15906,39.0,0.0,300.0,5.0,0.0
15907,70.0,0.0,120.0,11.0,0.0
15908,70.0,0.0,120.0,1.0,0.0
15909,58.0,0.0,120.0,2.0,0.0
15910,82.0,0.0,120.0,0.0,0.0
15911,82.0,96.0,120.0,1.0,0.0
15912,70.0,0.0,120.0,10.0,0.0
15913,70.0,0.0,120.0,12.0,0.0
15914,46.0,0.0,120.0,14.0,0.0
15915,58.0,0.0,120.0,13.0,0.0
15916,43.0,0.0,120.0,14.0,0.0
15917,67.0,0.0,120.0,10.0,0.0
15918,67.0,0.0,120.0,11.0,0.0
15919,39.0,0.0,90.0,5.0,0.0
15920,55.0,390.0,120.0,13.0,0.0
15921,79.0,0.0,90.0,0.0,0.0
15922,55.0,18.0,90.0,2.0,0.0
15923,67.0,0.0,120.0,12.0,0.0
15924,67.0,0.0,90.0,1.0,0.0
15925,79.0,0.0,90.0,1.0,0.0
15926,68.0,0.0,690.0,1.0,0.0
15927,56.0,0.0,780.0,3.0,0.0
15928,44.0,300.0,390.0,5.0,0.0
15929,56.0,0.0,690.0,2.0,0.0
15930,68.0,0.0,690.0,11.0,0.0
15931,44.0,0.0,690.0,14.0,0.0
15932,80.0,0.0,690.0,0.0,0.0
15933,44.0,72.0,780.0,3.0,0.0
15934,68.0,0.0,690.0,12.0,0.0
15935,56.0,0.0,780.0,4.0,0.0
15936,68.0,0.0,780.0,4.0,0.0
15937,68.0,84.0,690.0,10.0,0.0
15938,80.0,0.0,690.0,1.0,0.0
15939,56.0,0.0,690.0,13.0,0.0
15940,44.0,0.0,300.0,5.0,0.0
15941,65.0,0.0,120.0,1.0,0.0
15942,53.0,0.0,120.0,2.0,0.0
15943,77.0,0.0,120.0,0.0,0.0
15944,65.0,0.0,120.0,11.0,0.0
15945,65.0,0.0,120.0,12.0,0.0
15946,65.0,0.0,120.0,10.0,0.0
15947,41.0,0.0,120.0,14.0,0.0
15948,77.0,0.0,120.0,1.0,0.0
15949,53.0,96.0,120.0,13.0,0.0
15950,44.0,18.0,90.0,5.0,0.0
15951,38.0,0.0,120.0,14.0,0.0
15952,62.0,0.0,120.0,10.0,0.0
15953,62.0,0.0,90.0,1.0,0.0
15954,62.0,0.0,120.0,11.0,0.0
15955,74.0,0.0,90.0,0.0,0.0
15956,50.0,0.0,90.0,2.0,0.0
15957,62.0,390.0,120.0,12.0,0.0
15958,74.0,0.0,90.0,1.0,0.0
15959,50.0,0.0,120.0,13.0,0.0
15960,75.0,384.0,390.0,0.0,0.0
15961,39.0,0.0,390.0,3.0,0.0
15962,51.0,0.0,390.0,3.0,0.0
15963,63.0,0.0,390.0,10.0,0.0
15964,63.0,0.0,390.0,12.0,0.0
15965,75.0,0.0,390.0,1.0,0.0
15966,63.0,0.0,390.0,11.0,0.0
15967,51.0,0.0,390.0,4.0,0.0
15968,63.0,0.0,390.0,1.0,0.0
15969,39.0,0.0,390.0,14.0,0.0
15970,51.0,0.0,390.0,13.0,0.0
15971,39.0,0.0,390.0,5.0,0.0
15972,63.0,0.0,390.0,4.0,0.0
15973,51.0,0.0,390.0,2.0,0.0
15974,80.0,0.0,390.0,10.0,0.0
15975,68.0,0.0,390.0,1.0,0.0
15976,72.0,0.0,390.0,11.0,0.0
15977,72.0,0.0,390.0,1.0,0.0
15978,84.0,0.0,390.0,0.0,0.0
15979,56.0,0.0,390.0,3.0,0.0
15980,72.0,0.0,390.0,10.0,0.0
15981,68.0,0.0,390.0,11.0,0.0
15982,39.0,96.0,300.0,5.0,0.0
15983,72.0,0.0,390.0,4.0,0.0
15984,68.0,72.0,390.0,4.0,0.0
15985,63.0,0.0,390.0,12.0,0.0
15986,60.0,0.0,390.0,3.0,0.0
15987,39.0,408.0,90.0,5.0,0.0
15988,39.0,0.0,390.0,2.0,0.0
15989,39.0,0.0,390.0,5.0,0.0
15990,39.0,0.0,390.0,13.0,0.0
15991,27.0,480.0,390.0,14.0,0.0
15992,63.0,0.0,390.0,12.0,0.0
15993,58.0,0.0,390.0,3.0,0.0
15994,51.0,0.0,390.0,3.0,0.0
15995,79.0,0.0,390.0,10.0,0.0
15996,70.0,0.0,390.0,10.0,0.0
15997,70.0,0.0,390.0,1.0,0.0
15998,39.0,0.0,390.0,5.0,0.0
15999,70.0,0.0,390.0,4.0,0.0
16000,82.0,0.0,390.0,0.0,0.0
16001,63.0,0.0,390.0,4.0,0.0
16002,67.0,480.0,390.0,1.0,0.0
16003,75.0,0.0,390.0,11.0,0.0
16004,67.0,0.0,390.0,11.0,0.0
16005,44.0,0.0,390.0,2.0,0.0
16006,44.0,0.0,390.0,13.0,0.0
16007,32.0,0.0,390.0,14.0,0.0
16008,80.0,0.0,390.0,0.0,0.0
16009,60.0,0.0,390.0,4.0,0.0
16010,68.0,0.0,390.0,4.0,0.0
16011,80.0,0.0,390.0,10.0,0.0
16012,68.0,0.0,390.0,1.0,0.0
16013,56.0,0.0,390.0,3.0,0.0
16014,68.0,816.0,390.0,11.0,0.0
16015,72.0,0.0,390.0,11.0,0.0
16016,48.0,0.0,390.0,3.0,0.0
16017,44.0,0.0,390.0,5.0,0.0
16018,63.0,0.0,390.0,12.0,0.0
16019,59.0,0.0,240.0,2.0,0.0
16020,62.0,0.0,240.0,2.0,0.0
16021,74.0,0.0,240.0,1.0,0.0
16022,71.0,0.0,240.0,1.0,0.0
16023,86.0,144.0,240.0,0.0,0.0
16024,60.0,0.0,150.0,2.0,0.0
16025,63.0,0.0,150.0,2.0,0.0
16026,87.0,240.0,150.0,0.0,0.0
16027,75.0,0.0,150.0,1.0,0.0
16028,72.0,0.0,150.0,1.0,0.0
16029,60.0,0.0,150.0,2.0,0.0
16030,63.0,0.0,150.0,2.0,0.0
16031,72.0,0.0,150.0,1.0,0.0
16032,75.0,240.0,150.0,1.0,0.0
16033,87.0,0.0,150.0,0.0,0.0
16034,87.0,0.0,150.0,0.0,0.0
16035,75.0,0.0,150.0,1.0,0.0
16036,72.0,0.0,150.0,1.0,0.0
16037,60.0,72.0,150.0,2.0,0.0
16038,63.0,0.0,150.0,2.0,0.0
16039,51.0,216.0,90.0,11.0,0.0
16040,51.0,0.0,90.0,12.0,0.0
16041,39.0,0.0,90.0,13.0,0.0
16042,27.0,0.0,90.0,14.0,0.0
16043,51.0,0.0,90.0,10.0,0.0
16044,56.0,192.0,180.0,12.0,0.0
16045,32.0,0.0,180.0,14.0,0.0
16046,56.0,0.0,180.0,4.0,0.0
16047,75.0,0.0,390.0,1.0,0.0
16048,44.0,0.0,180.0,13.0,0.0
16049,60.0,0.0,390.0,2.0,0.0
16050,63.0,0.0,390.0,2.0,0.0
16051,44.0,0.0,390.0,5.0,0.0
16052,72.0,0.0,390.0,1.0,0.0
16053,56.0,0.0,180.0,11.0,0.0
16054,87.0,288.0,390.0,0.0,0.0
16055,56.0,0.0,180.0,10.0,0.0
16056,44.0,0.0,180.0,3.0,0.0
16057,36.0,0.0,180.0,14.0,0.0
16058,48.0,0.0,180.0,13.0,0.0
16059,60.0,0.0,180.0,11.0,0.0
16060,60.0,0.0,180.0,10.0,0.0
16061,60.0,0.0,180.0,4.0,0.0
16062,48.0,0.0,180.0,3.0,0.0
16063,60.0,480.0,180.0,12.0,0.0
16064,63.0,0.0,390.0,12.0,0.0
16065,63.0,240.0,390.0,11.0,0.0
16066,67.0,0.0,240.0,1.0,0.0
16067,39.0,0.0,390.0,14.0,0.0
16068,55.0,0.0,240.0,2.0,0.0
16069,59.0,0.0,240.0,2.0,0.0
16070,71.0,144.0,240.0,1.0,0.0
16071,83.0,0.0,240.0,0.0,0.0
16072,63.0,0.0,390.0,10.0,0.0
16073,51.0,0.0,390.0,13.0,0.0
16074,63.0,48.0,180.0,4.0,0.0
16075,51.0,0.0,180.0,3.0,0.0
16076,72.0,0.0,150.0,1.0,0.0
16077,68.0,0.0,150.0,1.0,0.0
16078,84.0,0.0,150.0,0.0,0.0
16079,56.0,0.0,150.0,2.0,0.0
16080,60.0,0.0,150.0,2.0,0.0
16081,68.0,0.0,150.0,1.0,0.0
16082,56.0,0.0,150.0,2.0,0.0
16083,60.0,0.0,150.0,2.0,0.0
16084,84.0,240.0,150.0,0.0,0.0
16085,72.0,0.0,150.0,1.0,0.0
16086,72.0,0.0,150.0,1.0,0.0
16087,68.0,0.0,150.0,1.0,0.0
16088,84.0,0.0,150.0,0.0,0.0
16089,56.0,72.0,150.0,2.0,0.0
16090,60.0,0.0,150.0,2.0,0.0
16091,51.0,0.0,90.0,10.0,0.0
16092,51.0,0.0,90.0,12.0,0.0
16093,39.0,0.0,90.0,13.0,0.0
16094,51.0,216.0,90.0,11.0,0.0
16095,27.0,0.0,90.0,14.0,0.0
16096,68.0,0.0,390.0,1.0,0.0
16097,32.0,192.0,180.0,14.0,0.0
16098,72.0,0.0,390.0,1.0,0.0
16099,44.0,0.0,180.0,13.0,0.0
16100,56.0,0.0,180.0,12.0,0.0
16101,60.0,0.0,390.0,2.0,0.0
16102,44.0,0.0,180.0,3.0,0.0
16103,56.0,0.0,180.0,4.0,0.0
16104,56.0,0.0,180.0,10.0,0.0
16105,44.0,288.0,390.0,5.0,0.0
16106,56.0,0.0,180.0,11.0,0.0
16107,56.0,0.0,390.0,2.0,0.0
16108,84.0,0.0,390.0,0.0,0.0
16109,48.0,0.0,180.0,3.0,0.0
16110,60.0,480.0,180.0,12.0,0.0
16111,48.0,0.0,180.0,13.0,0.0
16112,60.0,0.0,180.0,10.0,0.0
16113,36.0,0.0,180.0,14.0,0.0
16114,60.0,0.0,180.0,11.0,0.0
16115,60.0,0.0,180.0,4.0,0.0
16116,47.0,0.0,240.0,2.0,0.0
16117,63.0,0.0,720.0,11.0,0.0
16118,79.0,0.0,240.0,0.0,0.0
16119,51.0,0.0,180.0,3.0,0.0
16120,63.0,48.0,180.0,4.0,0.0
16121,63.0,0.0,720.0,10.0,0.0
16122,59.0,144.0,240.0,1.0,0.0
16123,39.0,0.0,720.0,14.0,0.0
16124,51.0,80.0,720.0,13.0,0.0
16125,63.0,0.0,720.0,12.0,0.0
16126,55.0,0.0,240.0,2.0,0.0
16127,67.0,0.0,240.0,1.0,0.0
16128,56.0,0.0,150.0,2.0,0.0
16129,80.0,0.0,150.0,0.0,0.0
16130,48.0,0.0,150.0,2.0,0.0
16131,60.0,0.0,150.0,1.0,0.0
16132,68.0,240.0,150.0,1.0,0.0
16133,48.0,0.0,150.0,2.0,0.0
16134,56.0,0.0,150.0,2.0,0.0
16135,68.0,96.0,150.0,1.0,0.0
16136,80.0,0.0,150.0,0.0,0.0
16137,60.0,0.0,150.0,1.0,0.0
16138,68.0,0.0,150.0,1.0,0.0
16139,48.0,16.0,150.0,2.0,0.0
16140,37.0,0.0,90.0,14.0,0.0
16141,60.0,0.0,150.0,1.0,0.0
16142,56.0,0.0,150.0,2.0,0.0
16143,61.0,64.0,90.0,12.0,0.0
16144,61.0,0.0,90.0,11.0,0.0
16145,49.0,0.0,90.0,13.0,0.0
16146,61.0,0.0,90.0,10.0,0.0
16147,80.0,0.0,150.0,0.0,0.0
16148,48.0,0.0,90.0,13.0,0.0
16149,60.0,0.0,90.0,10.0,0.0
16150,60.0,0.0,90.0,12.0,0.0
16151,36.0,0.0,90.0,14.0,0.0
16152,60.0,80.0,90.0,11.0,0.0
16153,58.0,0.0,90.0,12.0,0.0
16154,46.0,0.0,90.0,13.0,0.0
16155,34.0,192.0,90.0,14.0,0.0
16156,58.0,0.0,90.0,10.0,0.0
16157,58.0,0.0,90.0,11.0,0.0
16158,44.0,0.0,180.0,13.0,0.0
16159,48.0,0.0,180.0,2.0,0.0
16160,56.0,0.0,180.0,2.0,0.0
16161,56.0,0.0,180.0,10.0,0.0
16162,56.0,0.0,180.0,11.0,0.0
16163,80.0,0.0,180.0,0.0,0.0
16164,60.0,480.0,180.0,1.0,0.0
16165,44.0,0.0,180.0,5.0,0.0
16166,32.0,0.0,180.0,14.0,0.0
16167,56.0,0.0,180.0,12.0,0.0
16168,68.0,0.0,180.0,1.0,0.0
16169,56.0,0.0,180.0,4.0,0.0
16170,44.0,0.0,180.0,3.0,0.0
16171,51.0,0.0,180.0,12.0,0.0
16172,60.0,0.0,180.0,1.0,0.0
16173,56.0,480.0,180.0,2.0,0.0
16174,80.0,0.0,180.0,0.0,0.0
16175,68.0,0.0,180.0,1.0,0.0
16176,27.0,0.0,180.0,14.0,0.0
16177,39.0,0.0,180.0,13.0,0.0
16178,51.0,0.0,180.0,4.0,0.0
16179,39.0,0.0,180.0,3.0,0.0
16180,51.0,0.0,180.0,11.0,0.0
16181,51.0,0.0,180.0,10.0,0.0
16182,48.0,0.0,180.0,2.0,0.0
16183,44.0,0.0,180.0,13.0,0.0
16184,44.0,0.0,180.0,3.0,0.0
16185,56.0,0.0,180.0,11.0,0.0
16186,80.0,0.0,180.0,0.0,0.0
16187,56.0,0.0,180.0,10.0,0.0
16188,56.0,0.0,180.0,4.0,0.0
16189,56.0,0.0,180.0,12.0,0.0
16190,60.0,0.0,180.0,1.0,0.0
16191,68.0,0.0,180.0,1.0,0.0
16192,32.0,0.0,180.0,14.0,0.0
16193,48.0,0.0,180.0,2.0,0.0
16194,56.0,480.0,180.0,2.0,0.0
16195,44.0,0.0,180.0,5.0,0.0
16196,48.0,0.0,180.0,2.0,0.0
16197,60.0,0.0,180.0,10.0,0.0
16198,60.0,0.0,180.0,11.0,0.0
16199,60.0,0.0,180.0,4.0,0.0
16200,48.0,0.0,180.0,13.0,0.0
16201,80.0,672.0,180.0,0.0,0.0
16202,36.0,0.0,180.0,14.0,0.0
16203,60.0,0.0,180.0,1.0,0.0
16204,68.0,0.0,180.0,1.0,0.0
16205,56.0,0.0,180.0,2.0,0.0
16206,60.0,0.0,180.0,12.0,0.0
16207,48.0,0.0,180.0,3.0,0.0
16208,56.0,0.0,390.0,10.0,0.0
16209,56.0,0.0,390.0,12.0,0.0
16210,44.0,0.0,390.0,3.0,0.0
16211,68.0,0.0,390.0,1.0,0.0
16212,60.0,0.0,390.0,1.0,0.0
16213,44.0,0.0,390.0,5.0,0.0
16214,44.0,0.0,390.0,13.0,0.0
16215,56.0,0.0,390.0,2.0,0.0
16216,56.0,0.0,390.0,4.0,0.0
16217,32.0,0.0,390.0,14.0,0.0
16218,80.0,0.0,390.0,0.0,0.0
16219,48.0,3072.0,390.0,2.0,0.0
16220,56.0,0.0,390.0,11.0,0.0
16221,32.0,0.0,1530.0,14.0,0.0
