,note,step,duration,channel,velocity
0,72.0,59.0,60.0,0.0,0.0
1,53.0,1.0,120.0,1.0,0.0
2,69.0,20.0,60.0,0.0,0.0
3,67.0,20.0,20.0,0.0,0.0
4,69.0,20.0,20.0,0.0,0.0
5,67.0,60.0,20.0,0.0,0.0
6,65.0,60.0,60.0,0.0,0.0
7,77.0,1.0,120.0,0.0,0.0
8,41.0,59.0,60.0,1.0,0.0
9,53.0,60.0,60.0,1.0,0.0
10,48.0,60.0,60.0,1.0,0.0
11,45.0,60.0,60.0,1.0,0.0
12,41.0,1.0,120.0,1.0,0.0
13,72.0,59.0,60.0,0.0,0.0
14,69.0,20.0,60.0,0.0,0.0
15,67.0,20.0,20.0,0.0,0.0
16,69.0,20.0,20.0,0.0,0.0
17,67.0,60.0,20.0,0.0,0.0
18,65.0,60.0,60.0,0.0,0.0
19,77.0,61.0,120.0,0.0,0.0
20,41.0,57.0,60.0,1.0,0.0
21,53.0,2.0,60.0,1.0,0.0
22,45.0,57.0,60.0,1.0,0.0
23,53.0,63.0,60.0,1.0,0.0
24,77.0,0.0,60.0,0.0,0.0
25,43.0,57.0,60.0,1.0,0.0
26,76.0,0.0,60.0,0.0,0.0
27,55.0,63.0,60.0,1.0,0.0
28,53.0,61.0,120.0,1.0,0.0
29,76.0,57.0,60.0,0.0,0.0
30,74.0,2.0,60.0,0.0,0.0
31,52.0,61.0,120.0,1.0,0.0
32,74.0,57.0,60.0,0.0,0.0
33,72.0,2.0,60.0,0.0,0.0
34,50.0,61.0,120.0,1.0,0.0
35,72.0,57.0,60.0,0.0,0.0
36,70.0,2.0,60.0,0.0,0.0
37,48.0,60.0,120.0,1.0,0.0
38,69.0,57.0,60.0,0.0,0.0
39,72.0,2.0,60.0,0.0,0.0
40,46.0,120.0,120.0,1.0,0.0
41,64.0,60.0,60.0,0.0,0.0
42,67.0,0.0,60.0,0.0,0.0
43,45.0,0.0,120.0,1.0,0.0
44,65.0,120.0,120.0,0.0,0.0
45,41.0,61.0,120.0,1.0,0.0
46,53.0,1.0,120.0,1.0,0.0
47,72.0,59.0,60.0,0.0,0.0
48,69.0,20.0,60.0,0.0,0.0
49,67.0,20.0,20.0,0.0,0.0
50,69.0,20.0,20.0,0.0,0.0
51,67.0,60.0,20.0,0.0,0.0
52,65.0,60.0,60.0,0.0,0.0
53,41.0,59.0,60.0,1.0,0.0
54,77.0,1.0,120.0,0.0,0.0
55,53.0,60.0,60.0,1.0,0.0
56,48.0,60.0,60.0,1.0,0.0
57,45.0,60.0,60.0,1.0,0.0
58,72.0,59.0,60.0,0.0,0.0
59,41.0,1.0,120.0,1.0,0.0
60,69.0,20.0,60.0,0.0,0.0
61,67.0,20.0,20.0,0.0,0.0
62,69.0,20.0,20.0,0.0,0.0
63,67.0,60.0,20.0,0.0,0.0
64,65.0,60.0,60.0,0.0,0.0
65,77.0,60.0,120.0,0.0,0.0
66,41.0,57.0,60.0,1.0,0.0
67,53.0,2.0,60.0,1.0,0.0
68,45.0,60.0,60.0,1.0,0.0
69,48.0,61.0,60.0,1.0,0.0
70,77.0,57.0,60.0,0.0,0.0
71,43.0,0.0,60.0,1.0,0.0
72,55.0,63.0,60.0,1.0,0.0
73,76.0,0.0,60.0,0.0,0.0
74,76.0,57.0,60.0,0.0,0.0
75,53.0,61.0,120.0,1.0,0.0
76,74.0,2.0,60.0,0.0,0.0
77,74.0,57.0,60.0,0.0,0.0
78,52.0,61.0,120.0,1.0,0.0
79,72.0,2.0,60.0,0.0,0.0
80,50.0,61.0,120.0,1.0,0.0
81,72.0,57.0,60.0,0.0,0.0
82,70.0,2.0,60.0,0.0,0.0
83,48.0,60.0,120.0,1.0,0.0
84,69.0,57.0,60.0,0.0,0.0
85,72.0,2.0,60.0,0.0,0.0
86,46.0,0.0,120.0,1.0,0.0
87,64.0,60.0,60.0,0.0,0.0
88,67.0,60.0,60.0,0.0,0.0
89,45.0,60.0,60.0,1.0,0.0
90,65.0,0.0,120.0,0.0,0.0
91,53.0,60.0,60.0,1.0,0.0
92,48.0,60.0,60.0,1.0,0.0
93,45.0,61.0,60.0,1.0,0.0
94,53.0,1.0,120.0,1.0,0.0
95,72.0,59.0,60.0,0.0,0.0
96,69.0,20.0,60.0,0.0,0.0
97,67.0,20.0,20.0,0.0,0.0
98,69.0,20.0,20.0,0.0,0.0
99,67.0,60.0,20.0,0.0,0.0
100,65.0,60.0,60.0,0.0,0.0
101,77.0,1.0,120.0,0.0,0.0
102,41.0,59.0,60.0,1.0,0.0
103,53.0,60.0,60.0,1.0,0.0
104,48.0,60.0,60.0,1.0,0.0
105,45.0,60.0,60.0,1.0,0.0
106,72.0,59.0,60.0,0.0,0.0
107,41.0,1.0,120.0,1.0,0.0
108,69.0,20.0,60.0,0.0,0.0
109,67.0,20.0,20.0,0.0,0.0
110,69.0,20.0,20.0,0.0,0.0
111,67.0,60.0,20.0,0.0,0.0
112,65.0,60.0,60.0,0.0,0.0
113,41.0,57.0,60.0,1.0,0.0
114,77.0,61.0,120.0,0.0,0.0
115,53.0,2.0,60.0,1.0,0.0
116,45.0,57.0,60.0,1.0,0.0
117,53.0,63.0,60.0,1.0,0.0
118,43.0,57.0,60.0,1.0,0.0
119,77.0,0.0,60.0,0.0,0.0
120,76.0,0.0,60.0,0.0,0.0
121,55.0,63.0,60.0,1.0,0.0
122,53.0,61.0,120.0,1.0,0.0
123,76.0,57.0,60.0,0.0,0.0
124,74.0,2.0,60.0,0.0,0.0
125,74.0,57.0,60.0,0.0,0.0
126,52.0,61.0,120.0,1.0,0.0
127,72.0,2.0,60.0,0.0,0.0
128,50.0,61.0,120.0,1.0,0.0
129,72.0,57.0,60.0,0.0,0.0
130,70.0,2.0,60.0,0.0,0.0
131,69.0,57.0,60.0,0.0,0.0
132,48.0,60.0,120.0,1.0,0.0
133,72.0,2.0,60.0,0.0,0.0
134,64.0,60.0,60.0,0.0,0.0
135,46.0,0.0,120.0,1.0,0.0
136,67.0,120.0,60.0,0.0,0.0
137,65.0,120.0,120.0,0.0,0.0
138,45.0,0.0,120.0,1.0,0.0
139,41.0,61.0,120.0,1.0,0.0
140,53.0,1.0,120.0,1.0,0.0
141,72.0,59.0,60.0,0.0,0.0
142,69.0,20.0,60.0,0.0,0.0
143,67.0,20.0,20.0,0.0,0.0
144,69.0,20.0,20.0,0.0,0.0
145,67.0,60.0,20.0,0.0,0.0
146,65.0,60.0,60.0,0.0,0.0
147,41.0,59.0,60.0,1.0,0.0
148,77.0,1.0,120.0,0.0,0.0
149,53.0,60.0,60.0,1.0,0.0
150,48.0,60.0,60.0,1.0,0.0
151,45.0,60.0,60.0,1.0,0.0
152,41.0,1.0,120.0,1.0,0.0
153,72.0,59.0,60.0,0.0,0.0
154,69.0,20.0,60.0,0.0,0.0
155,67.0,20.0,20.0,0.0,0.0
156,69.0,20.0,20.0,0.0,0.0
157,67.0,60.0,20.0,0.0,0.0
158,65.0,60.0,60.0,0.0,0.0
159,41.0,57.0,60.0,1.0,0.0
160,77.0,60.0,120.0,0.0,0.0
161,53.0,2.0,60.0,1.0,0.0
162,45.0,60.0,60.0,1.0,0.0
163,48.0,61.0,60.0,1.0,0.0
164,77.0,0.0,60.0,0.0,0.0
165,43.0,57.0,60.0,1.0,0.0
166,76.0,63.0,60.0,0.0,0.0
167,55.0,0.0,60.0,1.0,0.0
168,53.0,61.0,120.0,1.0,0.0
169,76.0,57.0,60.0,0.0,0.0
170,74.0,2.0,60.0,0.0,0.0
171,74.0,57.0,60.0,0.0,0.0
172,52.0,61.0,120.0,1.0,0.0
173,72.0,2.0,60.0,0.0,0.0
174,72.0,57.0,60.0,0.0,0.0
175,50.0,61.0,120.0,1.0,0.0
176,70.0,2.0,60.0,0.0,0.0
177,69.0,57.0,60.0,0.0,0.0
178,48.0,60.0,120.0,1.0,0.0
179,72.0,2.0,60.0,0.0,0.0
180,46.0,60.0,120.0,1.0,0.0
181,64.0,60.0,60.0,0.0,0.0
182,67.0,0.0,60.0,0.0,0.0
183,45.0,60.0,60.0,1.0,0.0
184,65.0,0.0,120.0,0.0,0.0
185,53.0,60.0,60.0,1.0,0.0
186,48.0,60.0,60.0,1.0,0.0
187,45.0,120.0,60.0,1.0,0.0
188,53.0,120.0,120.0,1.0,0.0
189,68.0,120.0,120.0,0.0,0.0
190,72.0,0.0,120.0,0.0,0.0
191,46.0,120.0,120.0,1.0,0.0
192,70.0,120.0,120.0,0.0,0.0
193,73.0,0.0,120.0,0.0,0.0
194,48.0,120.0,120.0,1.0,0.0
195,76.0,120.0,120.0,0.0,0.0
196,67.0,0.0,120.0,0.0,0.0
197,41.0,120.0,120.0,1.0,0.0
198,68.0,121.0,120.0,0.0,0.0
199,77.0,0.0,120.0,0.0,0.0
200,64.0,117.0,120.0,0.0,0.0
201,36.0,0.0,240.0,1.0,0.0
202,48.0,120.0,240.0,1.0,0.0
203,67.0,0.0,120.0,0.0,0.0
204,65.0,2.0,120.0,0.0,0.0
205,68.0,0.0,120.0,0.0,0.0
206,36.0,1.0,120.0,1.0,0.0
207,70.0,117.0,120.0,0.0,0.0
208,67.0,0.0,120.0,0.0,0.0
209,48.0,0.0,120.0,1.0,0.0
210,65.0,2.0,120.0,0.0,0.0
211,68.0,0.0,120.0,0.0,0.0
212,48.0,60.0,120.0,1.0,0.0
213,36.0,0.0,120.0,1.0,0.0
214,48.0,0.0,60.0,1.0,0.0
215,36.0,0.0,60.0,1.0,0.0
216,64.0,60.0,60.0,0.0,0.0
217,67.0,0.0,60.0,0.0,0.0
218,65.0,0.0,60.0,0.0,0.0
219,68.0,0.0,60.0,0.0,0.0
220,36.0,0.0,60.0,1.0,0.0
221,48.0,60.0,60.0,1.0,0.0
222,67.0,0.0,60.0,0.0,0.0
223,70.0,60.0,60.0,0.0,0.0
224,48.0,0.0,60.0,1.0,0.0
225,36.0,0.0,60.0,1.0,0.0
226,68.0,0.0,60.0,0.0,0.0
227,36.0,0.0,60.0,1.0,0.0
228,65.0,0.0,60.0,0.0,0.0
229,48.0,120.0,60.0,1.0,0.0
230,64.0,0.0,240.0,0.0,0.0
231,67.0,0.0,240.0,0.0,0.0
232,48.0,120.0,120.0,1.0,0.0
233,36.0,120.0,120.0,1.0,0.0
234,53.0,120.0,120.0,1.0,0.0
235,72.0,0.0,120.0,0.0,0.0
236,69.0,120.0,120.0,0.0,0.0
237,46.0,120.0,120.0,1.0,0.0
238,70.0,120.0,120.0,0.0,0.0
239,73.0,0.0,120.0,0.0,0.0
240,47.0,120.0,120.0,1.0,0.0
241,74.0,120.0,120.0,0.0,0.0
242,67.0,0.0,120.0,0.0,0.0
243,48.0,120.0,120.0,1.0,0.0
244,76.0,0.0,120.0,0.0,0.0
245,70.0,121.0,120.0,0.0,0.0
246,68.0,117.0,120.0,0.0,0.0
247,41.0,0.0,240.0,1.0,0.0
248,53.0,120.0,240.0,1.0,0.0
249,77.0,0.0,120.0,0.0,0.0
250,73.0,0.0,120.0,0.0,0.0
251,70.0,2.0,120.0,0.0,0.0
252,72.0,0.0,120.0,0.0,0.0
253,68.0,117.0,120.0,0.0,0.0
254,53.0,1.0,120.0,1.0,0.0
255,41.0,0.0,120.0,1.0,0.0
256,67.0,0.0,120.0,0.0,0.0
257,70.0,2.0,120.0,0.0,0.0
258,53.0,60.0,120.0,1.0,0.0
259,41.0,0.0,120.0,1.0,0.0
260,68.0,0.0,60.0,0.0,0.0
261,65.0,0.0,60.0,0.0,0.0
262,53.0,60.0,60.0,1.0,0.0
263,41.0,0.0,60.0,1.0,0.0
264,68.0,60.0,60.0,0.0,0.0
265,72.0,0.0,60.0,0.0,0.0
266,53.0,0.0,60.0,1.0,0.0
267,41.0,0.0,60.0,1.0,0.0
268,67.0,0.0,60.0,0.0,0.0
269,70.0,0.0,60.0,0.0,0.0
270,53.0,60.0,60.0,1.0,0.0
271,41.0,0.0,60.0,1.0,0.0
272,41.0,0.0,60.0,1.0,0.0
273,53.0,0.0,60.0,1.0,0.0
274,67.0,240.0,60.0,0.0,0.0
275,64.0,0.0,60.0,0.0,0.0
276,56.0,0.0,240.0,0.0,0.0
277,60.0,120.0,240.0,0.0,0.0
278,65.0,0.0,240.0,0.0,0.0
279,53.0,0.0,240.0,1.0,0.0
280,48.0,0.0,240.0,1.0,0.0
281,44.0,0.0,240.0,1.0,0.0
282,41.0,0.0,240.0,1.0,0.0
283,53.0,120.0,120.0,1.0,0.0
284,68.0,120.0,120.0,0.0,0.0
285,72.0,0.0,120.0,0.0,0.0
286,46.0,120.0,120.0,1.0,0.0
287,70.0,0.0,120.0,0.0,0.0
288,73.0,120.0,120.0,0.0,0.0
289,48.0,120.0,120.0,1.0,0.0
290,67.0,120.0,120.0,0.0,0.0
291,76.0,0.0,120.0,0.0,0.0
292,41.0,120.0,120.0,1.0,0.0
293,77.0,121.0,120.0,0.0,0.0
294,68.0,0.0,120.0,0.0,0.0
295,67.0,0.0,120.0,0.0,0.0
296,48.0,0.0,240.0,1.0,0.0
297,36.0,120.0,240.0,1.0,0.0
298,64.0,117.0,120.0,0.0,0.0
299,65.0,2.0,120.0,0.0,0.0
300,68.0,0.0,120.0,0.0,0.0
301,70.0,117.0,120.0,0.0,0.0
302,36.0,0.0,120.0,1.0,0.0
303,67.0,0.0,120.0,0.0,0.0
304,48.0,1.0,120.0,1.0,0.0
305,65.0,2.0,120.0,0.0,0.0
306,48.0,60.0,120.0,1.0,0.0
307,36.0,0.0,120.0,1.0,0.0
308,68.0,0.0,120.0,0.0,0.0
309,48.0,60.0,60.0,1.0,0.0
310,36.0,0.0,60.0,1.0,0.0
311,67.0,0.0,60.0,0.0,0.0
312,64.0,0.0,60.0,0.0,0.0
313,68.0,60.0,60.0,0.0,0.0
314,65.0,0.0,60.0,0.0,0.0
315,48.0,0.0,60.0,1.0,0.0
316,36.0,0.0,60.0,1.0,0.0
317,36.0,0.0,60.0,1.0,0.0
318,67.0,0.0,60.0,0.0,0.0
319,48.0,0.0,60.0,1.0,0.0
320,70.0,60.0,60.0,0.0,0.0
321,36.0,0.0,60.0,1.0,0.0
322,48.0,0.0,60.0,1.0,0.0
323,68.0,0.0,60.0,0.0,0.0
324,65.0,120.0,60.0,0.0,0.0
325,67.0,0.0,240.0,0.0,0.0
326,48.0,120.0,120.0,1.0,0.0
327,64.0,120.0,240.0,0.0,0.0
328,36.0,0.0,120.0,1.0,0.0
329,53.0,120.0,120.0,1.0,0.0
330,72.0,120.0,120.0,0.0,0.0
331,69.0,0.0,120.0,0.0,0.0
332,46.0,120.0,120.0,1.0,0.0
333,70.0,0.0,120.0,0.0,0.0
334,73.0,120.0,120.0,0.0,0.0
335,47.0,120.0,120.0,1.0,0.0
336,74.0,0.0,120.0,0.0,0.0
337,67.0,120.0,120.0,0.0,0.0
338,48.0,120.0,120.0,1.0,0.0
339,76.0,121.0,120.0,0.0,0.0
340,70.0,0.0,120.0,0.0,0.0
341,41.0,0.0,240.0,1.0,0.0
342,53.0,120.0,240.0,1.0,0.0
343,68.0,117.0,120.0,0.0,0.0
344,77.0,0.0,120.0,0.0,0.0
345,73.0,2.0,120.0,0.0,0.0
346,70.0,0.0,120.0,0.0,0.0
347,72.0,117.0,120.0,0.0,0.0
348,68.0,0.0,120.0,0.0,0.0
349,53.0,1.0,120.0,1.0,0.0
350,41.0,0.0,120.0,1.0,0.0
351,53.0,0.0,120.0,1.0,0.0
352,41.0,60.0,120.0,1.0,0.0
353,70.0,2.0,120.0,0.0,0.0
354,67.0,0.0,120.0,0.0,0.0
355,41.0,0.0,60.0,1.0,0.0
356,53.0,0.0,60.0,1.0,0.0
357,65.0,60.0,60.0,0.0,0.0
358,68.0,0.0,60.0,0.0,0.0
359,68.0,0.0,60.0,0.0,0.0
360,72.0,60.0,60.0,0.0,0.0
361,41.0,0.0,60.0,1.0,0.0
362,53.0,0.0,60.0,1.0,0.0
363,70.0,0.0,60.0,0.0,0.0
364,67.0,0.0,60.0,0.0,0.0
365,41.0,0.0,60.0,1.0,0.0
366,53.0,60.0,60.0,1.0,0.0
367,67.0,0.0,60.0,0.0,0.0
368,64.0,240.0,60.0,0.0,0.0
369,41.0,0.0,60.0,1.0,0.0
370,53.0,0.0,60.0,1.0,0.0
371,53.0,0.0,240.0,1.0,0.0
372,41.0,0.0,240.0,1.0,0.0
373,48.0,0.0,240.0,1.0,0.0
374,65.0,0.0,240.0,0.0,0.0
375,60.0,0.0,240.0,0.0,0.0
376,56.0,0.0,240.0,0.0,0.0
377,44.0,0.0,240.0,1.0,0.0
