,note,step,duration,channel,velocity
0,65.0,10.0,180.0,0.0,0.0
1,68.0,0.0,180.0,0.0,0.0
2,37.0,86.0,90.0,1.0,0.0
3,49.0,96.0,90.0,1.0,0.0
4,49.0,96.0,90.0,1.0,0.0
5,68.0,19.0,270.0,0.0,0.0
6,65.0,0.0,270.0,0.0,0.0
7,49.0,77.0,90.0,1.0,0.0
8,49.0,96.0,90.0,1.0,0.0
9,49.0,0.0,90.0,1.0,0.0
10,66.0,0.0,90.0,0.0,0.0
11,70.0,31.0,90.0,0.0,0.0
12,68.0,24.0,20.0,0.0,0.0
13,49.0,7.0,90.0,1.0,0.0
14,65.0,0.0,20.0,0.0,0.0
15,70.0,0.0,20.0,0.0,0.0
16,66.0,24.0,20.0,0.0,0.0
17,65.0,17.0,20.0,0.0,0.0
18,68.0,0.0,20.0,0.0,0.0
19,66.0,0.0,20.0,0.0,0.0
20,70.0,24.0,20.0,0.0,0.0
21,49.0,7.0,90.0,1.0,0.0
22,68.0,24.0,20.0,0.0,0.0
23,65.0,0.0,20.0,0.0,0.0
24,70.0,24.0,20.0,0.0,0.0
25,66.0,0.0,20.0,0.0,0.0
26,65.0,17.0,20.0,0.0,0.0
27,68.0,0.0,20.0,0.0,0.0
28,66.0,24.0,20.0,0.0,0.0
29,70.0,0.0,20.0,0.0,0.0
30,65.0,24.0,20.0,0.0,0.0
31,68.0,0.0,20.0,0.0,0.0
32,49.0,7.0,90.0,1.0,0.0
33,66.0,24.0,20.0,0.0,0.0
34,70.0,0.0,20.0,0.0,0.0
35,65.0,17.0,20.0,0.0,0.0
36,68.0,0.0,20.0,0.0,0.0
37,66.0,0.0,20.0,0.0,0.0
38,70.0,89.0,20.0,0.0,0.0
39,63.0,0.0,90.0,0.0,0.0
40,66.0,96.0,90.0,0.0,0.0
41,49.0,0.0,90.0,1.0,0.0
42,65.0,10.0,180.0,0.0,0.0
43,61.0,0.0,180.0,0.0,0.0
44,49.0,86.0,90.0,1.0,0.0
45,49.0,96.0,90.0,1.0,0.0
46,37.0,86.0,90.0,1.0,0.0
47,56.0,10.0,180.0,0.0,0.0
48,65.0,0.0,180.0,0.0,0.0
49,49.0,96.0,90.0,1.0,0.0
50,49.0,96.0,90.0,1.0,0.0
51,65.0,19.0,270.0,0.0,0.0
52,56.0,0.0,270.0,0.0,0.0
53,49.0,77.0,90.0,1.0,0.0
54,49.0,96.0,90.0,1.0,0.0
55,58.0,0.0,90.0,0.0,0.0
56,66.0,0.0,90.0,0.0,0.0
57,49.0,31.0,90.0,1.0,0.0
58,49.0,7.0,90.0,1.0,0.0
59,56.0,24.0,20.0,0.0,0.0
60,65.0,0.0,20.0,0.0,0.0
61,58.0,24.0,20.0,0.0,0.0
62,66.0,0.0,20.0,0.0,0.0
63,65.0,0.0,20.0,0.0,0.0
64,56.0,17.0,20.0,0.0,0.0
65,66.0,24.0,20.0,0.0,0.0
66,58.0,0.0,20.0,0.0,0.0
67,49.0,7.0,90.0,1.0,0.0
68,65.0,0.0,20.0,0.0,0.0
69,56.0,24.0,20.0,0.0,0.0
70,58.0,24.0,20.0,0.0,0.0
71,66.0,0.0,20.0,0.0,0.0
72,56.0,17.0,20.0,0.0,0.0
73,65.0,0.0,20.0,0.0,0.0
74,58.0,24.0,20.0,0.0,0.0
75,66.0,0.0,20.0,0.0,0.0
76,65.0,0.0,20.0,0.0,0.0
77,49.0,7.0,90.0,1.0,0.0
78,56.0,24.0,20.0,0.0,0.0
79,58.0,24.0,20.0,0.0,0.0
80,66.0,0.0,20.0,0.0,0.0
81,56.0,17.0,20.0,0.0,0.0
82,65.0,0.0,20.0,0.0,0.0
83,66.0,89.0,20.0,0.0,0.0
84,58.0,0.0,20.0,0.0,0.0
85,49.0,0.0,90.0,1.0,0.0
86,54.0,0.0,90.0,0.0,0.0
87,63.0,96.0,90.0,0.0,0.0
88,61.0,10.0,180.0,0.0,0.0
89,49.0,86.0,90.0,1.0,0.0
90,53.0,0.0,180.0,0.0,0.0
91,49.0,96.0,90.0,1.0,0.0
92,32.0,86.0,90.0,1.0,0.0
93,63.0,10.0,180.0,0.0,0.0
94,60.0,0.0,180.0,0.0,0.0
95,44.0,96.0,90.0,1.0,0.0
96,44.0,86.0,90.0,1.0,0.0
97,60.0,10.0,180.0,0.0,0.0
98,63.0,0.0,180.0,0.0,0.0
99,44.0,96.0,90.0,1.0,0.0
100,64.0,10.0,180.0,0.0,0.0
101,44.0,86.0,90.0,1.0,0.0
102,60.0,0.0,180.0,0.0,0.0
103,44.0,96.0,90.0,1.0,0.0
104,61.0,86.0,300.0,0.0,0.0
105,65.0,0.0,300.0,0.0,0.0
106,44.0,96.0,90.0,1.0,0.0
107,44.0,96.0,90.0,1.0,0.0
108,44.0,10.0,90.0,1.0,0.0
109,44.0,10.0,90.0,1.0,0.0
110,60.0,0.0,90.0,0.0,0.0
111,64.0,86.0,90.0,0.0,0.0
112,44.0,96.0,90.0,1.0,0.0
113,61.0,0.0,180.0,0.0,0.0
114,44.0,10.0,90.0,1.0,0.0
115,65.0,86.0,15.0,0.0,0.0
116,61.0,0.0,180.0,0.0,0.0
117,32.0,86.0,90.0,1.0,0.0
118,44.0,96.0,90.0,1.0,0.0
119,61.0,0.0,180.0,0.0,0.0
120,44.0,86.0,90.0,1.0,0.0
121,65.0,10.0,180.0,0.0,0.0
122,44.0,96.0,90.0,1.0,0.0
123,44.0,86.0,90.0,1.0,0.0
124,65.0,0.0,180.0,0.0,0.0
125,62.0,10.0,180.0,0.0,0.0
126,44.0,96.0,90.0,1.0,0.0
127,63.0,0.0,300.0,0.0,0.0
128,44.0,96.0,90.0,1.0,0.0
129,66.0,86.0,300.0,0.0,0.0
130,44.0,96.0,90.0,1.0,0.0
131,44.0,10.0,90.0,1.0,0.0
132,65.0,86.0,90.0,0.0,0.0
133,62.0,0.0,90.0,0.0,0.0
134,44.0,10.0,90.0,1.0,0.0
135,66.0,0.0,180.0,0.0,0.0
136,63.0,144.0,180.0,0.0,0.0
137,44.0,96.0,90.0,1.0,0.0
138,44.0,10.0,90.0,1.0,0.0
139,49.0,15.0,180.0,1.0,0.0
140,65.0,28.0,150.0,0.0,0.0
141,61.0,0.0,150.0,0.0,0.0
142,68.0,48.0,40.0,0.0,0.0
143,61.0,0.0,40.0,0.0,0.0
144,41.0,96.0,40.0,1.0,0.0
145,56.0,0.0,40.0,0.0,0.0
146,49.0,0.0,40.0,1.0,0.0
147,56.0,0.0,40.0,0.0,0.0
148,61.0,0.0,40.0,0.0,0.0
149,49.0,0.0,40.0,1.0,0.0
150,41.0,96.0,40.0,1.0,0.0
151,44.0,96.0,40.0,1.0,0.0
152,51.0,0.0,40.0,1.0,0.0
153,63.0,0.0,40.0,0.0,0.0
154,60.0,0.0,40.0,0.0,0.0
155,44.0,197.0,40.0,1.0,0.0
156,63.0,0.0,40.0,0.0,0.0
157,60.0,0.0,40.0,0.0,0.0
158,51.0,0.0,40.0,1.0,0.0
159,61.0,0.0,150.0,0.0,0.0
160,49.0,15.0,180.0,1.0,0.0
161,53.0,0.0,180.0,1.0,0.0
162,65.0,28.0,150.0,0.0,0.0
163,68.0,48.0,40.0,0.0,0.0
164,61.0,96.0,40.0,0.0,0.0
165,49.0,0.0,40.0,1.0,0.0
166,56.0,0.0,40.0,0.0,0.0
167,41.0,0.0,40.0,1.0,0.0
168,41.0,0.0,40.0,1.0,0.0
169,49.0,0.0,40.0,1.0,0.0
170,56.0,96.0,40.0,0.0,0.0
171,61.0,0.0,40.0,0.0,0.0
172,63.0,0.0,40.0,0.0,0.0
173,51.0,0.0,40.0,1.0,0.0
174,44.0,96.0,40.0,1.0,0.0
175,60.0,0.0,40.0,0.0,0.0
176,60.0,0.0,40.0,0.0,0.0
177,44.0,0.0,40.0,1.0,0.0
178,51.0,0.0,40.0,1.0,0.0
179,63.0,197.0,40.0,0.0,0.0
180,53.0,0.0,180.0,1.0,0.0
181,65.0,28.0,150.0,0.0,0.0
182,49.0,15.0,180.0,1.0,0.0
183,73.0,149.0,40.0,0.0,0.0
184,42.0,15.0,180.0,1.0,0.0
185,63.0,28.0,150.0,0.0,0.0
186,70.0,149.0,40.0,0.0,0.0
187,68.0,28.0,150.0,0.0,0.0
188,44.0,15.0,180.0,1.0,0.0
189,60.0,177.0,40.0,0.0,0.0
190,61.0,0.0,180.0,0.0,0.0
191,37.0,192.0,180.0,1.0,0.0
192,49.0,10.0,180.0,1.0,0.0
193,61.0,96.0,90.0,0.0,0.0
194,60.0,96.0,90.0,0.0,0.0
195,63.0,0.0,90.0,0.0,0.0
196,59.0,34.0,90.0,0.0,0.0
197,65.0,0.0,90.0,0.0,0.0
198,68.0,72.0,20.0,0.0,0.0
199,49.0,96.0,570.0,1.0,0.0
200,58.0,96.0,390.0,1.0,0.0
201,66.0,96.0,60.0,0.0,0.0
202,65.0,96.0,90.0,0.0,0.0
203,66.0,96.0,90.0,0.0,0.0
204,70.0,0.0,90.0,0.0,0.0
205,68.0,76.0,90.0,0.0,0.0
206,60.0,20.0,180.0,1.0,0.0
207,66.0,0.0,90.0,0.0,0.0
208,64.0,76.0,90.0,0.0,0.0
209,49.0,20.0,180.0,1.0,0.0
210,61.0,0.0,180.0,1.0,0.0
211,65.0,43.0,90.0,0.0,0.0
212,49.0,149.0,40.0,1.0,0.0
213,49.0,0.0,90.0,1.0,0.0
214,65.0,96.0,90.0,0.0,0.0
215,51.0,86.0,90.0,1.0,0.0
216,66.0,0.0,90.0,0.0,0.0
217,68.0,24.0,90.0,0.0,0.0
218,53.0,10.0,90.0,1.0,0.0
219,72.0,62.0,20.0,0.0,0.0
220,54.0,10.0,90.0,1.0,0.0
221,70.0,86.0,60.0,0.0,0.0
222,69.0,86.0,90.0,0.0,0.0
223,53.0,10.0,90.0,1.0,0.0
224,54.0,10.0,90.0,1.0,0.0
225,70.0,86.0,90.0,0.0,0.0
226,58.0,10.0,90.0,1.0,0.0
227,73.0,86.0,90.0,0.0,0.0
228,72.0,86.0,90.0,0.0,0.0
229,56.0,10.0,90.0,1.0,0.0
230,70.0,0.0,90.0,0.0,0.0
231,54.0,10.0,90.0,1.0,0.0
232,49.0,129.0,15.0,1.0,0.0
233,73.0,28.0,150.0,0.0,0.0
234,58.0,15.0,120.0,1.0,0.0
235,54.0,5.0,40.0,1.0,0.0
236,70.0,172.0,40.0,0.0,0.0
237,53.0,0.0,180.0,1.0,0.0
238,49.0,0.0,180.0,1.0,0.0
239,68.0,356.0,180.0,0.0,0.0
240,32.0,0.0,180.0,1.0,0.0
241,44.0,15.0,180.0,1.0,0.0
242,60.0,0.0,180.0,0.0,0.0
243,63.0,0.0,180.0,0.0,0.0
244,68.0,28.0,150.0,0.0,0.0
245,72.0,48.0,40.0,0.0,0.0
246,36.0,192.0,180.0,1.0,0.0
247,63.0,96.0,40.0,0.0,0.0
248,48.0,0.0,180.0,1.0,0.0
249,63.0,33.0,40.0,0.0,0.0
250,51.0,0.0,180.0,1.0,0.0
251,39.0,10.0,180.0,1.0,0.0
252,61.0,0.0,90.0,0.0,0.0
253,67.0,154.0,90.0,0.0,0.0
254,68.0,28.0,150.0,0.0,0.0
255,60.0,0.0,180.0,0.0,0.0
256,56.0,15.0,180.0,1.0,0.0
257,44.0,0.0,180.0,1.0,0.0
258,72.0,48.0,40.0,0.0,0.0
259,63.0,96.0,40.0,0.0,0.0
260,36.0,0.0,180.0,1.0,0.0
261,48.0,192.0,180.0,1.0,0.0
262,63.0,33.0,40.0,0.0,0.0
263,51.0,10.0,180.0,1.0,0.0
264,39.0,0.0,180.0,1.0,0.0
265,61.0,106.0,90.0,0.0,0.0
266,67.0,0.0,90.0,0.0,0.0
267,56.0,20.0,180.0,1.0,0.0
268,44.0,0.0,180.0,1.0,0.0
269,68.0,48.0,90.0,0.0,0.0
270,60.0,0.0,180.0,0.0,0.0
271,72.0,28.0,40.0,0.0,0.0
272,75.0,43.0,40.0,0.0,0.0
273,48.0,0.0,180.0,1.0,0.0
274,36.0,159.0,180.0,1.0,0.0
275,63.0,96.0,40.0,0.0,0.0
276,63.0,33.0,40.0,0.0,0.0
277,39.0,10.0,180.0,1.0,0.0
278,51.0,0.0,180.0,1.0,0.0
279,67.0,33.0,40.0,0.0,0.0
280,61.0,269.0,90.0,0.0,0.0
281,60.0,0.0,270.0,0.0,0.0
282,68.0,0.0,270.0,0.0,0.0
283,32.0,77.0,270.0,1.0,0.0
284,44.0,0.0,270.0,1.0,0.0
285,69.0,0.0,40.0,0.0,0.0
286,53.0,96.0,40.0,1.0,0.0
287,54.0,0.0,40.0,1.0,0.0
288,70.0,96.0,40.0,0.0,0.0
289,68.0,0.0,40.0,0.0,0.0
290,53.0,96.0,40.0,1.0,0.0
291,51.0,0.0,40.0,1.0,0.0
292,66.0,96.0,40.0,0.0,0.0
293,65.0,96.0,40.0,0.0,0.0
294,49.0,0.0,40.0,1.0,0.0
295,48.0,0.0,40.0,1.0,0.0
296,63.0,96.0,40.0,0.0,0.0
297,51.0,0.0,40.0,1.0,0.0
298,66.0,96.0,40.0,0.0,0.0
299,49.0,0.0,40.0,1.0,0.0
300,65.0,96.0,40.0,0.0,0.0
301,63.0,144.0,40.0,0.0,0.0
302,48.0,0.0,40.0,1.0,0.0
303,49.0,10.0,180.0,1.0,0.0
304,54.0,0.0,90.0,0.0,0.0
305,60.0,76.0,90.0,0.0,0.0
306,61.0,0.0,90.0,0.0,0.0
307,53.0,202.0,90.0,0.0,0.0
308,37.0,0.0,180.0,1.0,0.0
309,53.0,240.0,180.0,0.0,0.0
310,61.0,0.0,180.0,0.0,0.0
311,68.0,48.0,40.0,0.0,0.0
312,49.0,48.0,180.0,1.0,0.0
313,65.0,48.0,40.0,0.0,0.0
314,61.0,48.0,40.0,0.0,0.0
315,65.0,0.0,40.0,0.0,0.0
316,37.0,48.0,180.0,1.0,0.0
317,68.0,48.0,40.0,0.0,0.0
318,65.0,48.0,40.0,0.0,0.0
319,61.0,48.0,40.0,0.0,0.0
320,65.0,0.0,40.0,0.0,0.0
321,68.0,48.0,40.0,0.0,0.0
322,65.0,48.0,40.0,0.0,0.0
323,49.0,0.0,90.0,1.0,0.0
324,70.0,48.0,40.0,0.0,0.0
325,66.0,48.0,40.0,0.0,0.0
326,49.0,0.0,180.0,1.0,0.0
327,68.0,48.0,40.0,0.0,0.0
328,65.0,48.0,40.0,0.0,0.0
329,61.0,48.0,40.0,0.0,0.0
330,65.0,48.0,40.0,0.0,0.0
331,68.0,48.0,40.0,0.0,0.0
332,37.0,0.0,180.0,1.0,0.0
333,65.0,48.0,40.0,0.0,0.0
334,66.0,48.0,40.0,0.0,0.0
335,63.0,48.0,40.0,0.0,0.0
336,65.0,48.0,40.0,0.0,0.0
337,61.0,48.0,40.0,0.0,0.0
338,56.0,48.0,40.0,0.0,0.0
339,61.0,48.0,40.0,0.0,0.0
340,65.0,48.0,40.0,0.0,0.0
341,49.0,0.0,180.0,1.0,0.0
342,61.0,48.0,40.0,0.0,0.0
343,56.0,48.0,40.0,0.0,0.0
344,61.0,48.0,40.0,0.0,0.0
345,37.0,48.0,180.0,1.0,0.0
346,65.0,48.0,40.0,0.0,0.0
347,61.0,48.0,40.0,0.0,0.0
348,56.0,48.0,40.0,0.0,0.0
349,61.0,0.0,40.0,0.0,0.0
350,65.0,48.0,40.0,0.0,0.0
351,56.0,48.0,40.0,0.0,0.0
352,49.0,48.0,90.0,1.0,0.0
353,66.0,48.0,40.0,0.0,0.0
354,58.0,0.0,40.0,0.0,0.0
355,65.0,48.0,40.0,0.0,0.0
356,49.0,48.0,180.0,1.0,0.0
357,61.0,48.0,40.0,0.0,0.0
358,56.0,48.0,40.0,0.0,0.0
359,61.0,0.0,40.0,0.0,0.0
360,65.0,48.0,40.0,0.0,0.0
361,37.0,0.0,180.0,1.0,0.0
362,56.0,48.0,40.0,0.0,0.0
363,63.0,48.0,40.0,0.0,0.0
364,54.0,48.0,40.0,0.0,0.0
365,61.0,48.0,40.0,0.0,0.0
366,53.0,48.0,40.0,0.0,0.0
367,62.0,48.0,40.0,0.0,0.0
368,53.0,48.0,40.0,0.0,0.0
369,63.0,48.0,40.0,0.0,0.0
370,44.0,0.0,180.0,1.0,0.0
371,60.0,48.0,40.0,0.0,0.0
372,56.0,48.0,40.0,0.0,0.0
373,60.0,48.0,40.0,0.0,0.0
374,32.0,48.0,180.0,1.0,0.0
375,63.0,48.0,40.0,0.0,0.0
376,60.0,48.0,40.0,0.0,0.0
377,56.0,48.0,40.0,0.0,0.0
378,60.0,0.0,40.0,0.0,0.0
379,63.0,48.0,40.0,0.0,0.0
380,60.0,48.0,40.0,0.0,0.0
381,64.0,48.0,40.0,0.0,0.0
382,60.0,48.0,40.0,0.0,0.0
383,65.0,48.0,40.0,0.0,0.0
384,44.0,0.0,15.0,1.0,0.0
385,61.0,48.0,40.0,0.0,0.0
386,56.0,48.0,40.0,0.0,0.0
387,61.0,48.0,40.0,0.0,0.0
388,65.0,48.0,40.0,0.0,0.0
389,32.0,0.0,180.0,1.0,0.0
390,61.0,48.0,40.0,0.0,0.0
391,64.0,48.0,40.0,0.0,0.0
392,60.0,48.0,40.0,0.0,0.0
393,65.0,48.0,40.0,0.0,0.0
394,61.0,48.0,40.0,0.0,0.0
395,64.0,48.0,40.0,0.0,0.0
396,60.0,48.0,40.0,0.0,0.0
397,44.0,0.0,180.0,1.0,0.0
398,65.0,48.0,40.0,0.0,0.0
399,61.0,48.0,40.0,0.0,0.0
400,56.0,48.0,40.0,0.0,0.0
401,61.0,48.0,40.0,0.0,0.0
402,32.0,48.0,180.0,1.0,0.0
403,65.0,48.0,40.0,0.0,0.0
404,61.0,48.0,40.0,0.0,0.0
405,56.0,48.0,40.0,0.0,0.0
406,61.0,0.0,40.0,0.0,0.0
407,65.0,48.0,40.0,0.0,0.0
408,61.0,48.0,40.0,0.0,0.0
409,65.0,48.0,40.0,0.0,0.0
410,44.0,0.0,90.0,1.0,0.0
411,62.0,48.0,40.0,0.0,0.0
412,66.0,48.0,40.0,0.0,0.0
413,44.0,0.0,180.0,1.0,0.0
414,63.0,48.0,40.0,0.0,0.0
415,56.0,48.0,40.0,0.0,0.0
416,63.0,48.0,40.0,0.0,0.0
417,66.0,48.0,40.0,0.0,0.0
418,32.0,0.0,180.0,1.0,0.0
419,63.0,48.0,40.0,0.0,0.0
420,65.0,48.0,40.0,0.0,0.0
421,62.0,48.0,40.0,0.0,0.0
422,66.0,48.0,40.0,0.0,0.0
423,63.0,48.0,40.0,0.0,0.0
424,66.0,48.0,40.0,0.0,0.0
425,64.0,48.0,40.0,0.0,0.0
426,49.0,48.0,90.0,1.0,0.0
427,37.0,0.0,90.0,1.0,0.0
428,65.0,48.0,40.0,0.0,0.0
429,80.0,0.0,40.0,0.0,0.0
430,77.0,48.0,40.0,0.0,0.0
431,73.0,48.0,40.0,0.0,0.0
432,41.0,0.0,90.0,1.0,0.0
433,53.0,0.0,90.0,1.0,0.0
434,68.0,48.0,40.0,0.0,0.0
435,73.0,48.0,40.0,0.0,0.0
436,68.0,48.0,40.0,0.0,0.0
437,65.0,48.0,40.0,0.0,0.0
438,63.0,48.0,40.0,0.0,0.0
439,56.0,0.0,90.0,1.0,0.0
440,44.0,0.0,90.0,1.0,0.0
441,68.0,48.0,40.0,0.0,0.0
442,66.0,48.0,40.0,0.0,0.0
443,64.0,48.0,40.0,0.0,0.0
444,49.0,0.0,90.0,1.0,0.0
445,37.0,48.0,90.0,1.0,0.0
446,65.0,48.0,40.0,0.0,0.0
447,80.0,0.0,40.0,0.0,0.0
448,77.0,48.0,40.0,0.0,0.0
449,73.0,48.0,40.0,0.0,0.0
450,68.0,48.0,40.0,0.0,0.0
451,41.0,48.0,90.0,1.0,0.0
452,53.0,0.0,90.0,1.0,0.0
453,73.0,0.0,40.0,0.0,0.0
454,68.0,48.0,40.0,0.0,0.0
455,65.0,48.0,40.0,0.0,0.0
456,44.0,48.0,90.0,1.0,0.0
457,63.0,48.0,40.0,0.0,0.0
458,56.0,0.0,90.0,1.0,0.0
459,68.0,0.0,40.0,0.0,0.0
460,66.0,48.0,40.0,0.0,0.0
461,64.0,48.0,40.0,0.0,0.0
462,37.0,48.0,180.0,1.0,0.0
463,65.0,48.0,40.0,0.0,0.0
464,49.0,0.0,180.0,1.0,0.0
465,73.0,48.0,40.0,0.0,0.0
466,68.0,48.0,40.0,0.0,0.0
467,65.0,0.0,40.0,0.0,0.0
468,63.0,48.0,40.0,0.0,0.0
469,51.0,48.0,180.0,1.0,0.0
470,42.0,0.0,180.0,1.0,0.0
471,70.0,48.0,40.0,0.0,0.0
472,66.0,48.0,40.0,0.0,0.0
473,63.0,0.0,40.0,0.0,0.0
474,54.0,0.0,180.0,1.0,0.0
475,44.0,192.0,180.0,1.0,0.0
476,60.0,48.0,40.0,0.0,0.0
477,66.0,48.0,40.0,0.0,0.0
478,63.0,48.0,40.0,0.0,0.0
479,60.0,0.0,40.0,0.0,0.0
480,61.0,0.0,180.0,0.0,0.0
481,53.0,0.0,180.0,1.0,0.0
482,49.0,96.0,180.0,1.0,0.0
483,37.0,0.0,180.0,1.0,0.0
484,61.0,48.0,40.0,0.0,0.0
485,60.0,48.0,40.0,0.0,0.0
486,61.0,48.0,40.0,0.0,0.0
487,49.0,0.0,180.0,1.0,0.0
488,59.0,48.0,180.0,1.0,0.0
489,62.0,48.0,40.0,0.0,0.0
490,63.0,48.0,40.0,0.0,0.0
491,64.0,48.0,40.0,0.0,0.0
492,65.0,0.0,40.0,0.0,0.0
493,58.0,0.0,390.0,1.0,0.0
494,66.0,48.0,40.0,0.0,0.0
495,49.0,0.0,570.0,1.0,0.0
496,68.0,48.0,40.0,0.0,0.0
497,66.0,48.0,40.0,0.0,0.0
498,65.0,48.0,40.0,0.0,0.0
499,66.0,48.0,40.0,0.0,0.0
500,68.0,48.0,40.0,0.0,0.0
501,70.0,48.0,40.0,0.0,0.0
502,68.0,48.0,40.0,0.0,0.0
503,60.0,0.0,180.0,1.0,0.0
504,72.0,48.0,40.0,0.0,0.0
505,70.0,48.0,40.0,0.0,0.0
506,68.0,48.0,40.0,0.0,0.0
507,66.0,48.0,40.0,0.0,0.0
508,61.0,24.0,180.0,1.0,0.0
509,68.0,48.0,40.0,0.0,0.0
510,66.0,48.0,40.0,0.0,0.0
511,65.0,48.0,40.0,0.0,0.0
512,66.0,0.0,40.0,0.0,0.0
513,65.0,72.0,20.0,0.0,0.0
514,65.0,0.0,40.0,0.0,0.0
515,49.0,48.0,40.0,1.0,0.0
516,64.0,48.0,40.0,0.0,0.0
517,48.0,0.0,40.0,1.0,0.0
518,49.0,0.0,40.0,1.0,0.0
519,65.0,48.0,40.0,0.0,0.0
520,50.0,0.0,40.0,1.0,0.0
521,66.0,48.0,40.0,0.0,0.0
522,67.0,0.0,40.0,0.0,0.0
523,51.0,48.0,40.0,1.0,0.0
524,68.0,48.0,40.0,0.0,0.0
525,52.0,0.0,40.0,1.0,0.0
526,53.0,48.0,40.0,1.0,0.0
527,69.0,0.0,40.0,0.0,0.0
528,70.0,0.0,40.0,0.0,0.0
529,54.0,48.0,40.0,1.0,0.0
530,72.0,48.0,40.0,0.0,0.0
531,56.0,0.0,40.0,1.0,0.0
532,70.0,0.0,40.0,0.0,0.0
533,54.0,48.0,40.0,1.0,0.0
534,68.0,48.0,40.0,0.0,0.0
535,53.0,0.0,40.0,1.0,0.0
536,54.0,48.0,40.0,1.0,0.0
537,70.0,0.0,40.0,0.0,0.0
538,72.0,0.0,40.0,0.0,0.0
539,56.0,48.0,40.0,1.0,0.0
540,58.0,0.0,40.0,1.0,0.0
541,73.0,48.0,40.0,0.0,0.0
542,72.0,48.0,40.0,0.0,0.0
543,56.0,0.0,40.0,1.0,0.0
544,75.0,48.0,40.0,0.0,0.0
545,60.0,0.0,40.0,1.0,0.0
546,58.0,0.0,40.0,1.0,0.0
547,73.0,48.0,40.0,0.0,0.0
548,56.0,48.0,40.0,1.0,0.0
549,72.0,0.0,40.0,0.0,0.0
550,70.0,48.0,40.0,0.0,0.0
551,54.0,0.0,40.0,1.0,0.0
552,58.0,48.0,40.0,1.0,0.0
553,49.0,0.0,390.0,1.0,0.0
554,73.0,0.0,40.0,0.0,0.0
555,70.0,0.0,40.0,0.0,0.0
556,54.0,48.0,40.0,1.0,0.0
557,73.0,0.0,40.0,0.0,0.0
558,58.0,48.0,40.0,1.0,0.0
559,70.0,192.0,40.0,0.0,0.0
560,54.0,0.0,40.0,1.0,0.0
561,68.0,0.0,180.0,0.0,0.0
562,53.0,216.0,180.0,1.0,0.0
563,68.0,48.0,150.0,0.0,0.0
564,60.0,24.0,180.0,0.0,0.0
565,32.0,72.0,20.0,1.0,0.0
566,44.0,48.0,40.0,1.0,0.0
567,43.0,0.0,40.0,1.0,0.0
568,72.0,0.0,40.0,0.0,0.0
569,44.0,0.0,40.0,1.0,0.0
570,63.0,0.0,15.0,0.0,0.0
571,36.0,24.0,20.0,1.0,0.0
572,48.0,48.0,40.0,1.0,0.0
573,47.0,0.0,40.0,1.0,0.0
574,63.0,48.0,40.0,0.0,0.0
575,48.0,24.0,40.0,1.0,0.0
576,39.0,72.0,20.0,1.0,0.0
577,51.0,48.0,40.0,1.0,0.0
578,67.0,0.0,90.0,0.0,0.0
579,50.0,48.0,40.0,1.0,0.0
580,61.0,24.0,90.0,0.0,0.0
581,51.0,0.0,40.0,1.0,0.0
582,44.0,72.0,20.0,1.0,0.0
583,60.0,0.0,180.0,0.0,0.0
584,68.0,48.0,150.0,0.0,0.0
585,56.0,48.0,40.0,1.0,0.0
586,55.0,0.0,40.0,1.0,0.0
587,72.0,0.0,40.0,0.0,0.0
588,56.0,0.0,40.0,1.0,0.0
589,48.0,0.0,40.0,1.0,0.0
590,63.0,48.0,15.0,0.0,0.0
591,60.0,48.0,40.0,1.0,0.0
592,59.0,0.0,40.0,1.0,0.0
593,63.0,48.0,40.0,0.0,0.0
594,60.0,24.0,40.0,1.0,0.0
595,39.0,72.0,20.0,1.0,0.0
596,51.0,48.0,40.0,1.0,0.0
597,61.0,0.0,90.0,0.0,0.0
598,50.0,48.0,40.0,1.0,0.0
599,67.0,0.0,90.0,0.0,0.0
600,51.0,24.0,40.0,1.0,0.0
601,60.0,0.0,180.0,0.0,0.0
602,68.0,16.0,120.0,0.0,0.0
603,44.0,72.0,20.0,1.0,0.0
604,56.0,32.0,40.0,1.0,0.0
605,55.0,16.0,40.0,1.0,0.0
606,72.0,32.0,30.0,0.0,64.0
607,56.0,0.0,40.0,1.0,0.0
608,75.0,24.0,30.0,0.0,0.0
609,36.0,24.0,20.0,1.0,0.0
610,63.0,48.0,40.0,0.0,0.0
611,48.0,48.0,40.0,1.0,0.0
612,47.0,0.0,40.0,1.0,0.0
613,63.0,48.0,40.0,0.0,0.0
614,48.0,24.0,40.0,1.0,0.0
615,39.0,72.0,20.0,1.0,0.0
616,51.0,48.0,40.0,1.0,0.0
617,61.0,0.0,90.0,0.0,0.0
618,67.0,0.0,90.0,0.0,0.0
619,50.0,48.0,40.0,1.0,0.0
620,51.0,288.0,40.0,1.0,0.0
621,68.0,0.0,300.0,0.0,0.0
622,60.0,0.0,300.0,0.0,0.0
623,44.0,48.0,300.0,1.0,0.0
624,32.0,0.0,300.0,1.0,0.0
625,53.0,24.0,40.0,1.0,0.0
626,69.0,72.0,20.0,0.0,0.0
627,54.0,24.0,40.0,1.0,0.0
628,70.0,72.0,20.0,0.0,0.0
629,53.0,24.0,40.0,1.0,0.0
630,68.0,72.0,20.0,0.0,0.0
631,51.0,24.0,40.0,1.0,0.0
632,66.0,72.0,20.0,0.0,0.0
633,49.0,24.0,40.0,1.0,0.0
634,65.0,72.0,20.0,0.0,0.0
635,48.0,24.0,40.0,1.0,0.0
636,63.0,72.0,20.0,0.0,0.0
637,51.0,24.0,40.0,1.0,0.0
638,66.0,72.0,20.0,0.0,0.0
639,49.0,24.0,40.0,1.0,0.0
640,65.0,72.0,20.0,0.0,0.0
641,48.0,24.0,40.0,1.0,0.0
642,63.0,120.0,20.0,0.0,0.0
643,60.0,0.0,90.0,0.0,0.0
644,55.0,96.0,90.0,0.0,0.0
645,49.0,192.0,180.0,1.0,0.0
646,53.0,0.0,90.0,0.0,0.0
647,61.0,0.0,90.0,0.0,0.0
648,53.0,0.0,180.0,0.0,0.0
649,61.0,235.0,180.0,0.0,0.0
650,37.0,0.0,180.0,1.0,0.0
651,37.0,48.0,40.0,1.0,0.0
652,49.0,0.0,40.0,1.0,0.0
653,77.0,0.0,40.0,0.0,0.0
654,80.0,48.0,40.0,0.0,0.0
655,61.0,48.0,40.0,1.0,0.0
656,65.0,48.0,40.0,0.0,0.0
657,68.0,0.0,40.0,0.0,0.0
658,49.0,0.0,40.0,1.0,0.0
659,37.0,48.0,40.0,1.0,0.0
660,80.0,0.0,40.0,0.0,0.0
661,77.0,48.0,40.0,0.0,0.0
662,61.0,48.0,40.0,1.0,0.0
663,65.0,0.0,40.0,0.0,0.0
664,68.0,48.0,40.0,0.0,0.0
665,61.0,48.0,40.0,1.0,0.0
666,80.0,0.0,40.0,0.0,0.0
667,77.0,48.0,40.0,0.0,0.0
668,61.0,48.0,40.0,1.0,0.0
669,78.0,48.0,40.0,0.0,0.0
670,82.0,0.0,40.0,0.0,0.0
671,49.0,48.0,40.0,1.0,0.0
672,37.0,0.0,40.0,1.0,0.0
673,77.0,48.0,40.0,0.0,0.0
674,80.0,0.0,40.0,0.0,0.0
675,61.0,48.0,40.0,1.0,0.0
676,65.0,48.0,40.0,0.0,0.0
677,68.0,0.0,40.0,0.0,0.0
678,61.0,48.0,40.0,1.0,0.0
679,77.0,48.0,40.0,0.0,0.0
680,80.0,0.0,40.0,0.0,0.0
681,61.0,48.0,40.0,1.0,0.0
682,78.0,48.0,40.0,0.0,0.0
683,75.0,0.0,40.0,0.0,0.0
684,61.0,48.0,40.0,1.0,0.0
685,77.0,0.0,40.0,0.0,0.0
686,73.0,48.0,40.0,0.0,0.0
687,61.0,48.0,40.0,1.0,0.0
688,68.0,0.0,40.0,0.0,0.0
689,65.0,48.0,40.0,0.0,0.0
690,49.0,0.0,40.0,1.0,0.0
691,37.0,48.0,40.0,1.0,0.0
692,77.0,48.0,40.0,0.0,0.0
693,68.0,0.0,40.0,0.0,0.0
694,61.0,48.0,40.0,1.0,0.0
695,65.0,0.0,40.0,0.0,0.0
696,68.0,48.0,40.0,0.0,0.0
697,37.0,0.0,40.0,1.0,0.0
698,49.0,48.0,40.0,1.0,0.0
699,68.0,48.0,40.0,0.0,0.0
700,77.0,0.0,40.0,0.0,0.0
701,61.0,48.0,40.0,1.0,0.0
702,65.0,48.0,40.0,0.0,0.0
703,68.0,0.0,40.0,0.0,0.0
704,61.0,48.0,40.0,1.0,0.0
705,68.0,48.0,40.0,0.0,0.0
706,77.0,0.0,40.0,0.0,0.0
707,61.0,48.0,40.0,1.0,0.0
708,78.0,48.0,40.0,0.0,0.0
709,70.0,0.0,40.0,0.0,0.0
710,37.0,48.0,40.0,1.0,0.0
711,49.0,0.0,40.0,1.0,0.0
712,68.0,48.0,40.0,0.0,0.0
713,77.0,0.0,40.0,0.0,0.0
714,61.0,48.0,40.0,1.0,0.0
715,65.0,48.0,40.0,0.0,0.0
716,68.0,0.0,40.0,0.0,0.0
717,61.0,48.0,40.0,1.0,0.0
718,77.0,0.0,40.0,0.0,0.0
719,68.0,48.0,40.0,0.0,0.0
720,61.0,48.0,40.0,1.0,0.0
721,75.0,48.0,40.0,0.0,0.0
722,66.0,0.0,40.0,0.0,0.0
723,61.0,48.0,40.0,1.0,0.0
724,65.0,48.0,40.0,0.0,0.0
725,73.0,0.0,40.0,0.0,0.0
726,61.0,48.0,40.0,1.0,0.0
727,73.0,48.0,40.0,0.0,0.0
728,65.0,0.0,40.0,0.0,0.0
729,32.0,48.0,40.0,1.0,0.0
730,44.0,0.0,40.0,1.0,0.0
731,72.0,0.0,40.0,0.0,0.0
732,75.0,48.0,40.0,0.0,0.0
733,56.0,48.0,40.0,1.0,0.0
734,60.0,48.0,40.0,0.0,0.0
735,63.0,0.0,40.0,0.0,0.0
736,44.0,48.0,40.0,1.0,0.0
737,32.0,0.0,40.0,1.0,0.0
738,72.0,48.0,40.0,0.0,0.0
739,75.0,0.0,40.0,0.0,0.0
740,56.0,48.0,40.0,1.0,0.0
741,63.0,0.0,40.0,0.0,0.0
742,60.0,48.0,40.0,0.0,0.0
743,56.0,48.0,40.0,1.0,0.0
744,75.0,0.0,40.0,0.0,0.0
745,72.0,48.0,40.0,0.0,0.0
746,56.0,48.0,40.0,1.0,0.0
747,76.0,48.0,40.0,0.0,0.0
748,72.0,0.0,40.0,0.0,0.0
749,32.0,48.0,40.0,1.0,0.0
750,44.0,0.0,40.0,1.0,0.0
751,77.0,48.0,40.0,0.0,0.0
752,73.0,0.0,40.0,0.0,0.0
753,56.0,48.0,40.0,1.0,0.0
754,65.0,48.0,40.0,0.0,0.0
755,61.0,0.0,40.0,0.0,0.0
756,56.0,48.0,40.0,1.0,0.0
757,73.0,48.0,40.0,0.0,0.0
758,77.0,0.0,40.0,0.0,0.0
759,56.0,48.0,40.0,1.0,0.0
760,72.0,0.0,40.0,0.0,0.0
761,76.0,48.0,40.0,0.0,0.0
762,56.0,48.0,40.0,1.0,0.0
763,77.0,48.0,40.0,0.0,0.0
764,73.0,0.0,40.0,0.0,0.0
765,56.0,48.0,40.0,1.0,0.0
766,76.0,48.0,40.0,0.0,0.0
767,72.0,0.0,40.0,0.0,0.0
768,44.0,48.0,40.0,1.0,0.0
769,32.0,0.0,40.0,1.0,0.0
770,73.0,0.0,40.0,0.0,0.0
771,77.0,48.0,40.0,0.0,0.0
772,56.0,48.0,40.0,1.0,0.0
773,61.0,48.0,40.0,0.0,0.0
774,65.0,0.0,40.0,0.0,0.0
775,32.0,0.0,40.0,1.0,0.0
776,44.0,48.0,40.0,1.0,0.0
777,77.0,48.0,40.0,0.0,0.0
778,73.0,0.0,40.0,0.0,0.0
779,56.0,48.0,40.0,1.0,0.0
780,65.0,48.0,40.0,0.0,0.0
781,61.0,0.0,40.0,0.0,0.0
782,56.0,48.0,40.0,1.0,0.0
783,73.0,48.0,40.0,0.0,0.0
784,77.0,0.0,40.0,0.0,0.0
785,56.0,48.0,40.0,1.0,0.0
786,74.0,0.0,40.0,0.0,0.0
787,77.0,48.0,40.0,0.0,0.0
788,32.0,0.0,40.0,1.0,0.0
789,44.0,48.0,40.0,1.0,0.0
790,78.0,48.0,40.0,0.0,0.0
791,75.0,0.0,40.0,0.0,0.0
792,56.0,48.0,40.0,1.0,0.0
793,63.0,48.0,40.0,0.0,0.0
794,66.0,0.0,40.0,0.0,0.0
795,56.0,48.0,40.0,1.0,0.0
796,78.0,0.0,40.0,0.0,0.0
797,75.0,48.0,40.0,0.0,0.0
798,56.0,48.0,40.0,1.0,0.0
799,74.0,0.0,40.0,0.0,0.0
800,77.0,48.0,40.0,0.0,0.0
801,56.0,48.0,40.0,1.0,0.0
802,75.0,48.0,40.0,0.0,0.0
803,78.0,0.0,40.0,0.0,0.0
804,56.0,48.0,40.0,1.0,0.0
805,76.0,0.0,40.0,0.0,0.0
806,72.0,48.0,40.0,0.0,0.0
807,37.0,48.0,40.0,1.0,0.0
808,73.0,48.0,40.0,0.0,0.0
809,77.0,0.0,40.0,0.0,0.0
810,49.0,48.0,40.0,1.0,0.0
811,68.0,48.0,40.0,0.0,0.0
812,80.0,0.0,40.0,0.0,0.0
813,41.0,48.0,40.0,1.0,0.0
814,61.0,0.0,40.0,0.0,0.0
815,73.0,48.0,40.0,0.0,0.0
816,53.0,48.0,40.0,1.0,0.0
817,74.0,0.0,40.0,0.0,0.0
818,62.0,48.0,40.0,0.0,0.0
819,44.0,48.0,40.0,1.0,0.0
820,75.0,48.0,40.0,0.0,0.0
821,63.0,0.0,40.0,0.0,0.0
822,56.0,48.0,40.0,1.0,0.0
823,76.0,0.0,40.0,0.0,0.0
824,64.0,48.0,40.0,0.0,0.0
825,37.0,48.0,40.0,1.0,0.0
826,65.0,0.0,40.0,0.0,0.0
827,77.0,48.0,40.0,0.0,0.0
828,49.0,48.0,40.0,1.0,0.0
829,80.0,0.0,40.0,0.0,0.0
830,68.0,48.0,40.0,0.0,0.0
831,41.0,48.0,40.0,1.0,0.0
832,61.0,48.0,40.0,0.0,0.0
833,73.0,0.0,40.0,0.0,0.0
834,53.0,48.0,40.0,1.0,0.0
835,74.0,48.0,40.0,0.0,0.0
836,62.0,0.0,40.0,0.0,0.0
837,44.0,48.0,40.0,1.0,0.0
838,63.0,48.0,40.0,0.0,0.0
839,75.0,0.0,40.0,0.0,0.0
840,56.0,48.0,40.0,1.0,0.0
841,64.0,48.0,40.0,0.0,0.0
842,76.0,0.0,40.0,0.0,0.0
843,49.0,48.0,40.0,1.0,0.0
844,37.0,0.0,40.0,1.0,0.0
845,77.0,0.0,40.0,0.0,0.0
846,65.0,48.0,40.0,0.0,0.0
847,41.0,48.0,40.0,1.0,0.0
848,73.0,48.0,40.0,0.0,0.0
849,68.0,0.0,40.0,0.0,0.0
850,42.0,48.0,40.0,1.0,0.0
851,70.0,0.0,40.0,0.0,0.0
852,61.0,48.0,40.0,0.0,0.0
853,39.0,48.0,40.0,1.0,0.0
854,63.0,48.0,40.0,0.0,0.0
855,66.0,0.0,40.0,0.0,0.0
856,44.0,48.0,40.0,1.0,0.0
857,54.0,48.0,40.0,0.0,0.0
858,63.0,0.0,40.0,0.0,0.0
859,32.0,48.0,40.0,1.0,0.0
860,60.0,101.0,40.0,0.0,0.0
861,51.0,0.0,40.0,0.0,0.0
862,61.0,20.0,180.0,0.0,0.0
863,53.0,0.0,180.0,0.0,0.0
864,37.0,48.0,40.0,1.0,0.0
865,41.0,28.0,40.0,1.0,0.0
866,44.0,128.0,40.0,1.0,0.0
867,49.0,19.0,360.0,1.0,0.0
868,61.0,64.0,60.0,0.0,0.0
869,60.0,64.0,60.0,0.0,0.0
870,59.0,20.0,180.0,1.0,0.0
871,61.0,64.0,60.0,0.0,0.0
872,63.0,25.0,60.0,0.0,0.0
873,65.0,64.0,60.0,0.0,0.0
874,66.0,64.0,60.0,0.0,0.0
875,58.0,0.0,390.0,1.0,0.0
876,49.0,38.0,510.0,1.0,0.0
877,68.0,64.0,60.0,0.0,0.0
878,65.0,64.0,60.0,0.0,0.0
879,66.0,64.0,60.0,0.0,0.0
880,70.0,64.0,60.0,0.0,0.0
881,68.0,64.0,60.0,0.0,0.0
882,60.0,20.0,180.0,1.0,0.0
883,70.0,64.0,60.0,0.0,0.0
884,68.0,6.0,60.0,0.0,0.0
885,66.0,64.0,60.0,0.0,0.0
886,49.0,20.0,180.0,1.0,0.0
887,61.0,0.0,180.0,1.0,0.0
888,66.0,64.0,60.0,0.0,0.0
889,65.0,44.0,60.0,0.0,0.0
890,64.0,32.0,60.0,0.0,0.0
891,65.0,96.0,30.0,0.0,0.0
892,49.0,0.0,60.0,1.0,0.0
893,65.0,64.0,60.0,0.0,0.0
894,48.0,0.0,60.0,1.0,0.0
895,64.0,64.0,60.0,0.0,0.0
896,49.0,0.0,60.0,1.0,0.0
897,65.0,64.0,60.0,0.0,0.0
898,66.0,0.0,60.0,0.0,0.0
899,51.0,64.0,60.0,1.0,0.0
900,68.0,0.0,60.0,0.0,0.0
901,53.0,64.0,60.0,1.0,0.0
902,70.0,0.0,60.0,0.0,0.0
903,54.0,64.0,60.0,1.0,0.0
904,72.0,0.0,60.0,0.0,0.0
905,56.0,64.0,60.0,1.0,0.0
906,69.0,0.0,60.0,0.0,0.0
907,53.0,64.0,60.0,1.0,0.0
908,54.0,64.0,60.0,1.0,0.0
909,70.0,0.0,60.0,0.0,0.0
910,73.0,64.0,60.0,0.0,0.0
911,58.0,0.0,60.0,1.0,0.0
912,57.0,0.0,60.0,1.0,0.0
913,72.0,64.0,60.0,0.0,0.0
914,58.0,0.0,60.0,1.0,0.0
915,73.0,64.0,60.0,0.0,0.0
916,57.0,0.0,60.0,1.0,0.0
917,72.0,57.0,60.0,0.0,0.0
918,54.0,0.0,60.0,1.0,0.0
919,70.0,71.0,60.0,0.0,0.0
920,49.0,19.0,360.0,1.0,0.0
921,54.0,0.0,60.0,1.0,0.0
922,70.0,64.0,60.0,0.0,0.0
923,53.0,0.0,60.0,1.0,0.0
924,68.0,64.0,60.0,0.0,0.0
925,52.0,0.0,60.0,1.0,0.0
926,67.0,153.0,60.0,0.0,0.0
927,53.0,240.0,180.0,1.0,0.0
928,68.0,0.0,180.0,0.0,0.0
929,32.0,100.0,30.0,1.0,0.0
930,68.0,28.0,150.0,0.0,0.0
931,63.0,0.0,180.0,0.0,0.0
932,60.0,13.0,180.0,0.0,0.0
933,43.0,16.0,60.0,1.0,0.0
934,44.0,2.0,60.0,1.0,0.0
935,72.0,33.0,40.0,0.0,0.0
936,36.0,15.0,30.0,1.0,0.0
937,63.0,85.0,40.0,0.0,0.0
938,47.0,11.0,60.0,1.0,0.0
939,63.0,46.0,40.0,0.0,0.0
940,48.0,35.0,60.0,1.0,0.0
941,39.0,100.0,30.0,1.0,0.0
942,50.0,54.0,60.0,1.0,0.0
943,61.0,3.0,90.0,0.0,0.0
944,67.0,0.0,90.0,0.0,0.0
945,51.0,35.0,60.0,1.0,0.0
946,44.0,100.0,30.0,1.0,0.0
947,60.0,13.0,180.0,0.0,0.0
948,68.0,28.0,150.0,0.0,0.0
949,55.0,16.0,60.0,1.0,0.0
950,56.0,2.0,60.0,1.0,0.0
951,72.0,33.0,40.0,0.0,0.0
952,63.0,85.0,40.0,0.0,0.0
953,48.0,15.0,30.0,1.0,0.0
954,59.0,11.0,60.0,1.0,0.0
955,63.0,46.0,40.0,0.0,0.0
956,60.0,35.0,60.0,1.0,0.0
957,39.0,100.0,30.0,1.0,0.0
958,50.0,54.0,60.0,1.0,0.0
959,67.0,3.0,90.0,0.0,0.0
960,61.0,0.0,90.0,0.0,0.0
961,51.0,35.0,60.0,1.0,0.0
962,44.0,100.0,30.0,1.0,0.0
963,63.0,13.0,180.0,0.0,0.0
964,60.0,0.0,180.0,0.0,0.0
965,68.0,28.0,150.0,0.0,0.0
966,55.0,16.0,60.0,1.0,0.0
967,56.0,2.0,60.0,1.0,0.0
968,72.0,33.0,40.0,0.0,0.0
969,36.0,15.0,30.0,1.0,0.0
970,75.0,85.0,40.0,0.0,0.0
971,47.0,11.0,60.0,1.0,0.0
972,75.0,46.0,40.0,0.0,0.0
973,48.0,35.0,60.0,1.0,0.0
974,39.0,100.0,30.0,1.0,0.0
975,50.0,54.0,60.0,1.0,0.0
976,61.0,0.0,90.0,0.0,0.0
977,67.0,3.0,90.0,0.0,0.0
978,51.0,179.0,60.0,1.0,0.0
979,68.0,68.0,180.0,0.0,0.0
980,63.0,0.0,180.0,0.0,0.0
981,44.0,0.0,180.0,1.0,0.0
982,32.0,0.0,180.0,1.0,0.0
983,60.0,0.0,180.0,0.0,0.0
984,68.0,48.0,40.0,0.0,0.0
985,69.0,48.0,40.0,0.0,0.0
986,53.0,48.0,90.0,1.0,0.0
987,81.0,48.0,40.0,0.0,0.0
988,69.0,0.0,40.0,0.0,0.0
989,54.0,48.0,90.0,1.0,0.0
990,82.0,48.0,40.0,0.0,0.0
991,70.0,0.0,40.0,0.0,0.0
992,80.0,38.0,40.0,0.0,0.0
993,53.0,10.0,90.0,1.0,0.0
994,68.0,48.0,40.0,0.0,0.0
995,78.0,48.0,40.0,0.0,0.0
996,44.0,10.0,510.0,1.0,0.0
997,51.0,0.0,90.0,1.0,0.0
998,66.0,48.0,40.0,0.0,0.0
999,49.0,0.0,90.0,1.0,0.0
1000,77.0,48.0,40.0,0.0,0.0
1001,65.0,48.0,40.0,0.0,0.0
1002,48.0,0.0,90.0,1.0,0.0
1003,75.0,48.0,40.0,0.0,0.0
1004,63.0,48.0,40.0,0.0,0.0
1005,78.0,48.0,40.0,0.0,0.0
1006,51.0,48.0,90.0,1.0,0.0
1007,66.0,0.0,40.0,0.0,0.0
1008,77.0,48.0,40.0,0.0,0.0
1009,49.0,38.0,90.0,1.0,0.0
1010,65.0,0.0,40.0,0.0,0.0
1011,75.0,38.0,40.0,0.0,0.0
1012,48.0,5.0,90.0,1.0,0.0
1013,63.0,101.0,40.0,0.0,0.0
1014,60.0,0.0,90.0,0.0,0.0
1015,72.0,0.0,90.0,0.0,0.0
1016,49.0,10.0,180.0,1.0,0.0
1017,54.0,76.0,90.0,1.0,0.0
1018,61.0,0.0,90.0,0.0,0.0
1019,73.0,182.0,90.0,0.0,0.0
1020,53.0,0.0,90.0,1.0,0.0
1021,53.0,0.0,180.0,1.0,0.0
1022,73.0,0.0,180.0,0.0,0.0
1023,61.0,260.0,180.0,0.0,0.0
1024,49.0,0.0,180.0,1.0,0.0
1025,37.0,48.0,40.0,1.0,0.0
1026,56.0,2.0,180.0,0.0,0.0
1027,61.0,2.0,150.0,0.0,0.0
1028,65.0,1.0,150.0,0.0,0.0
1029,49.0,48.0,40.0,1.0,0.0
1030,68.0,15.0,120.0,0.0,0.0
1031,53.0,28.0,40.0,1.0,0.0
1032,49.0,48.0,40.0,1.0,0.0
1033,65.0,48.0,180.0,0.0,0.0
1034,68.0,0.0,180.0,0.0,0.0
1035,44.0,48.0,40.0,1.0,0.0
1036,49.0,48.0,40.0,1.0,0.0
1037,41.0,48.0,40.0,1.0,0.0
1038,44.0,0.0,40.0,1.0,0.0
1039,65.0,15.0,120.0,0.0,0.0
1040,68.0,0.0,120.0,0.0,0.0
1041,37.0,48.0,40.0,1.0,0.0
1042,41.0,33.0,40.0,1.0,0.0
1043,44.0,43.0,40.0,1.0,0.0
1044,49.0,48.0,40.0,1.0,0.0
1045,70.0,0.0,40.0,0.0,0.0
1046,66.0,5.0,40.0,0.0,0.0
1047,37.0,48.0,40.0,1.0,0.0
1048,68.0,0.0,180.0,0.0,0.0
1049,65.0,48.0,180.0,0.0,0.0
1050,49.0,48.0,40.0,1.0,0.0
1051,53.0,48.0,40.0,1.0,0.0
1052,49.0,0.0,40.0,1.0,0.0
1053,44.0,48.0,40.0,1.0,0.0
1054,65.0,15.0,120.0,0.0,0.0
1055,68.0,0.0,120.0,0.0,0.0
1056,49.0,33.0,40.0,1.0,0.0
1057,41.0,43.0,40.0,1.0,0.0
1058,44.0,48.0,40.0,1.0,0.0
1059,66.0,5.0,40.0,0.0,0.0
1060,63.0,0.0,40.0,0.0,0.0
1061,37.0,48.0,40.0,1.0,0.0
1062,65.0,20.0,180.0,0.0,0.0
1063,61.0,0.0,180.0,0.0,0.0
1064,41.0,48.0,40.0,1.0,0.0
1065,44.0,28.0,40.0,1.0,0.0
1066,49.0,48.0,40.0,1.0,0.0
1067,56.0,0.0,180.0,0.0,0.0
1068,65.0,20.0,180.0,0.0,0.0
1069,37.0,48.0,40.0,1.0,0.0
1070,49.0,48.0,40.0,1.0,0.0
1071,53.0,28.0,40.0,1.0,0.0
1072,49.0,48.0,40.0,1.0,0.0
1073,44.0,48.0,40.0,1.0,0.0
1074,49.0,48.0,40.0,1.0,0.0
1075,41.0,48.0,40.0,1.0,0.0
1076,44.0,0.0,40.0,1.0,0.0
1077,37.0,48.0,40.0,1.0,0.0
1078,56.0,0.0,15.0,0.0,0.0
1079,65.0,48.0,15.0,0.0,0.0
1080,41.0,33.0,40.0,1.0,0.0
1081,44.0,43.0,40.0,1.0,0.0
1082,49.0,48.0,40.0,1.0,0.0
1083,58.0,0.0,40.0,0.0,0.0
1084,66.0,5.0,40.0,0.0,0.0
1085,37.0,48.0,40.0,1.0,0.0
1086,49.0,48.0,40.0,1.0,0.0
1087,53.0,48.0,40.0,1.0,0.0
1088,49.0,48.0,40.0,1.0,0.0
1089,65.0,0.0,15.0,0.0,0.0
1090,56.0,0.0,15.0,0.0,0.0
1091,44.0,48.0,40.0,1.0,0.0
1092,49.0,33.0,40.0,1.0,0.0
1093,41.0,43.0,40.0,1.0,0.0
1094,44.0,48.0,40.0,1.0,0.0
1095,63.0,5.0,40.0,0.0,0.0
1096,54.0,0.0,40.0,0.0,0.0
1097,53.0,0.0,180.0,0.0,0.0
1098,61.0,20.0,180.0,0.0,0.0
1099,37.0,48.0,40.0,1.0,0.0
1100,41.0,48.0,40.0,1.0,0.0
1101,44.0,28.0,40.0,1.0,0.0
1102,49.0,48.0,40.0,1.0,0.0
1103,51.0,2.0,180.0,0.0,0.0
1104,32.0,48.0,40.0,1.0,0.0
1105,56.0,2.0,150.0,0.0,0.0
1106,60.0,1.0,150.0,0.0,0.0
1107,44.0,48.0,40.0,1.0,0.0
1108,63.0,15.0,120.0,0.0,0.0
1109,48.0,28.0,40.0,1.0,0.0
1110,44.0,48.0,40.0,1.0,0.0
1111,60.0,0.0,180.0,0.0,0.0
1112,63.0,0.0,180.0,0.0,0.0
1113,56.0,20.0,180.0,0.0,0.0
1114,39.0,48.0,40.0,1.0,0.0
1115,44.0,48.0,40.0,1.0,0.0
1116,36.0,28.0,40.0,1.0,0.0
1117,39.0,48.0,40.0,1.0,0.0
1118,32.0,48.0,40.0,1.0,0.0
1119,63.0,20.0,180.0,0.0,0.0
1120,60.0,0.0,180.0,0.0,0.0
1121,56.0,0.0,180.0,0.0,0.0
1122,36.0,48.0,40.0,1.0,0.0
1123,39.0,28.0,40.0,1.0,0.0
1124,44.0,48.0,40.0,1.0,0.0
1125,56.0,48.0,180.0,0.0,0.0
1126,32.0,48.0,40.0,1.0,0.0
1127,61.0,0.0,180.0,0.0,0.0
1128,65.0,0.0,180.0,0.0,0.0
1129,44.0,48.0,40.0,1.0,0.0
1130,49.0,48.0,40.0,1.0,0.0
1131,44.0,0.0,40.0,1.0,0.0
1132,41.0,48.0,40.0,1.0,0.0
1133,65.0,15.0,120.0,0.0,0.0
1134,61.0,0.0,120.0,0.0,0.0
1135,44.0,33.0,40.0,1.0,0.0
1136,37.0,43.0,40.0,1.0,0.0
1137,60.0,0.0,40.0,0.0,0.0
1138,64.0,5.0,40.0,0.0,0.0
1139,41.0,48.0,40.0,1.0,0.0
1140,32.0,48.0,40.0,1.0,0.0
1141,61.0,0.0,180.0,0.0,0.0
1142,65.0,20.0,180.0,0.0,0.0
1143,37.0,48.0,40.0,1.0,0.0
1144,41.0,28.0,40.0,1.0,0.0
1145,44.0,48.0,40.0,1.0,0.0
1146,32.0,48.0,40.0,1.0,0.0
1147,65.0,0.0,180.0,0.0,0.0
1148,56.0,20.0,180.0,0.0,0.0
1149,61.0,0.0,180.0,0.0,0.0
1150,44.0,48.0,40.0,1.0,0.0
1151,49.0,28.0,40.0,1.0,0.0
1152,44.0,48.0,40.0,1.0,0.0
1153,41.0,48.0,40.0,1.0,0.0
1154,56.0,0.0,180.0,0.0,0.0
1155,61.0,0.0,180.0,0.0,0.0
1156,65.0,20.0,180.0,0.0,0.0
1157,44.0,48.0,40.0,1.0,0.0
1158,37.0,28.0,40.0,1.0,0.0
1159,41.0,48.0,40.0,1.0,0.0
1160,62.0,0.0,180.0,0.0,0.0
1161,56.0,0.0,180.0,0.0,0.0
1162,65.0,20.0,180.0,0.0,0.0
1163,32.0,48.0,40.0,1.0,0.0
1164,38.0,48.0,40.0,1.0,0.0
1165,41.0,28.0,40.0,1.0,0.0
1166,44.0,48.0,40.0,1.0,0.0
1167,32.0,48.0,40.0,1.0,0.0
1168,66.0,0.0,180.0,0.0,0.0
1169,60.0,0.0,180.0,0.0,0.0
1170,56.0,0.0,180.0,0.0,0.0
1171,44.0,48.0,40.0,1.0,0.0
1172,48.0,48.0,40.0,1.0,0.0
1173,44.0,48.0,40.0,1.0,0.0
1174,63.0,0.0,15.0,0.0,0.0
1175,66.0,15.0,120.0,0.0,0.0
1176,39.0,48.0,40.0,1.0,0.0
1177,44.0,33.0,40.0,1.0,0.0
1178,36.0,43.0,40.0,1.0,0.0
1179,39.0,48.0,40.0,1.0,0.0
1180,62.0,0.0,40.0,0.0,0.0
1181,65.0,5.0,40.0,0.0,0.0
1182,66.0,20.0,180.0,0.0,0.0
1183,63.0,0.0,180.0,0.0,0.0
1184,32.0,48.0,40.0,1.0,0.0
1185,36.0,48.0,40.0,1.0,0.0
1186,39.0,28.0,40.0,1.0,0.0
1187,44.0,48.0,40.0,1.0,0.0
1188,25.0,48.0,40.0,1.0,0.0
1189,61.0,0.0,150.0,0.0,0.0
1190,65.0,43.0,150.0,0.0,0.0
1191,29.0,48.0,40.0,1.0,0.0
1192,32.0,0.0,40.0,1.0,0.0
1193,37.0,43.0,40.0,1.0,0.0
1194,68.0,5.0,40.0,0.0,0.0
1195,29.0,48.0,40.0,1.0,0.0
1196,56.0,5.0,40.0,0.0,0.0
1197,61.0,0.0,40.0,0.0,0.0
1198,32.0,43.0,40.0,1.0,0.0
1199,56.0,5.0,40.0,0.0,0.0
1200,37.0,48.0,40.0,1.0,0.0
1201,61.0,0.0,40.0,0.0,0.0
1202,41.0,43.0,40.0,1.0,0.0
1203,32.0,48.0,40.0,1.0,0.0
1204,63.0,5.0,40.0,0.0,0.0
1205,60.0,0.0,40.0,0.0,0.0
1206,36.0,43.0,40.0,1.0,0.0
1207,39.0,48.0,40.0,1.0,0.0
1208,63.0,0.0,40.0,0.0,0.0
1209,60.0,5.0,40.0,0.0,0.0
1210,44.0,48.0,40.0,1.0,0.0
1211,37.0,48.0,40.0,1.0,0.0
1212,65.0,0.0,150.0,0.0,0.0
1213,61.0,43.0,150.0,0.0,0.0
1214,41.0,48.0,40.0,1.0,0.0
1215,44.0,0.0,40.0,1.0,0.0
1216,68.0,5.0,40.0,0.0,0.0
1217,49.0,43.0,40.0,1.0,0.0
1218,56.0,5.0,40.0,0.0,0.0
1219,61.0,0.0,40.0,0.0,0.0
1220,41.0,48.0,40.0,1.0,0.0
1221,44.0,43.0,40.0,1.0,0.0
1222,61.0,0.0,40.0,0.0,0.0
1223,49.0,48.0,40.0,1.0,0.0
1224,56.0,5.0,40.0,0.0,0.0
1225,53.0,43.0,40.0,1.0,0.0
1226,60.0,0.0,40.0,0.0,0.0
1227,63.0,5.0,40.0,0.0,0.0
1228,44.0,48.0,40.0,1.0,0.0
1229,48.0,43.0,40.0,1.0,0.0
1230,63.0,5.0,40.0,0.0,0.0
1231,51.0,48.0,40.0,1.0,0.0
1232,60.0,0.0,40.0,0.0,0.0
1233,56.0,48.0,40.0,1.0,0.0
1234,65.0,48.0,40.0,0.0,0.0
1235,49.0,48.0,180.0,1.0,0.0
1236,73.0,48.0,40.0,0.0,0.0
1237,68.0,48.0,40.0,0.0,0.0
1238,65.0,0.0,40.0,0.0,0.0
1239,51.0,48.0,180.0,1.0,0.0
1240,42.0,0.0,180.0,1.0,0.0
1241,63.0,48.0,40.0,0.0,0.0
1242,70.0,48.0,40.0,0.0,0.0
1243,66.0,48.0,40.0,0.0,0.0
1244,63.0,0.0,40.0,0.0,0.0
1245,44.0,0.0,180.0,1.0,0.0
1246,60.0,48.0,40.0,0.0,0.0
1247,54.0,0.0,180.0,1.0,0.0
1248,66.0,48.0,40.0,0.0,0.0
1249,63.0,48.0,40.0,0.0,0.0
1250,60.0,86.0,40.0,0.0,0.0
1251,49.0,96.0,570.0,1.0,0.0
1252,53.0,96.0,180.0,1.0,0.0
1253,61.0,106.0,90.0,0.0,0.0
1254,73.0,96.0,180.0,0.0,0.0
1255,56.0,0.0,180.0,1.0,0.0
1256,71.0,96.0,90.0,0.0,0.0
1257,70.0,86.0,90.0,0.0,0.0
1258,59.0,0.0,180.0,1.0,0.0
1259,68.0,10.0,90.0,0.0,0.0
1260,68.0,96.0,90.0,0.0,0.0
1261,58.0,43.0,390.0,1.0,0.0
1262,67.0,43.0,90.0,0.0,0.0
1263,66.0,96.0,40.0,0.0,0.0
1264,66.0,53.0,40.0,0.0,0.0
1265,66.0,96.0,40.0,0.0,0.0
1266,60.0,0.0,180.0,1.0,0.0
1267,66.0,53.0,40.0,0.0,0.0
1268,65.0,10.0,90.0,0.0,0.0
1269,49.0,86.0,15.0,1.0,0.0
1270,76.0,171.0,20.0,0.0,0.0
1271,61.0,21.0,15.0,1.0,0.0
1272,77.0,96.0,180.0,0.0,0.0
1273,60.0,0.0,90.0,1.0,0.0
1274,75.0,96.0,90.0,0.0,0.0
1275,73.0,0.0,90.0,0.0,0.0
1276,58.0,86.0,90.0,1.0,0.0
1277,72.0,10.0,90.0,0.0,0.0
1278,56.0,96.0,15.0,1.0,0.0
1279,72.0,96.0,90.0,0.0,0.0
1280,53.0,48.0,90.0,1.0,0.0
1281,69.0,0.0,90.0,0.0,0.0
1282,54.0,0.0,40.0,1.0,0.0
1283,70.0,48.0,40.0,0.0,0.0
1284,72.0,0.0,40.0,0.0,0.0
1285,56.0,48.0,40.0,1.0,0.0
1286,73.0,48.0,40.0,0.0,0.0
1287,58.0,0.0,40.0,1.0,0.0
1288,72.0,0.0,40.0,0.0,0.0
1289,56.0,48.0,40.0,1.0,0.0
1290,60.0,48.0,40.0,1.0,0.0
1291,75.0,0.0,40.0,0.0,0.0
1292,73.0,0.0,40.0,0.0,0.0
1293,58.0,48.0,40.0,1.0,0.0
1294,72.0,48.0,40.0,0.0,0.0
1295,56.0,0.0,40.0,1.0,0.0
1296,54.0,0.0,40.0,1.0,0.0
1297,70.0,144.0,40.0,0.0,0.0
1298,49.0,264.0,390.0,1.0,0.0
1299,58.0,0.0,150.0,1.0,0.0
1300,73.0,48.0,150.0,0.0,0.0
1301,70.0,0.0,40.0,0.0,0.0
1302,54.0,172.0,40.0,1.0,0.0
1303,68.0,20.0,180.0,0.0,0.0
1304,53.0,0.0,180.0,1.0,0.0
1305,44.0,0.0,180.0,1.0,0.0
1306,32.0,96.0,180.0,1.0,0.0
1307,63.0,24.0,20.0,0.0,0.0
1308,68.0,24.0,20.0,0.0,0.0
1309,72.0,24.0,20.0,0.0,0.0
1310,75.0,24.0,20.0,0.0,0.0
1311,72.0,24.0,20.0,0.0,0.0
1312,68.0,0.0,20.0,0.0,0.0
1313,63.0,96.0,90.0,0.0,0.0
1314,36.0,0.0,180.0,1.0,0.0
1315,48.0,76.0,180.0,1.0,0.0
1316,63.0,106.0,180.0,0.0,0.0
1317,51.0,72.0,180.0,1.0,0.0
1318,39.0,0.0,180.0,1.0,0.0
1319,67.0,0.0,90.0,0.0,0.0
1320,61.0,10.0,90.0,0.0,0.0
1321,44.0,0.0,180.0,1.0,0.0
1322,32.0,96.0,180.0,1.0,0.0
1323,63.0,24.0,20.0,0.0,0.0
1324,68.0,24.0,20.0,0.0,0.0
1325,72.0,24.0,20.0,0.0,0.0
1326,75.0,24.0,20.0,0.0,0.0
1327,72.0,24.0,20.0,0.0,0.0
1328,68.0,0.0,20.0,0.0,0.0
1329,63.0,96.0,90.0,0.0,0.0
1330,48.0,0.0,180.0,1.0,0.0
1331,36.0,76.0,180.0,1.0,0.0
1332,63.0,106.0,180.0,0.0,0.0
1333,39.0,0.0,180.0,1.0,0.0
1334,51.0,72.0,180.0,1.0,0.0
1335,61.0,10.0,90.0,0.0,0.0
1336,67.0,0.0,90.0,0.0,0.0
1337,44.0,96.0,180.0,1.0,0.0
1338,32.0,0.0,180.0,1.0,0.0
1339,63.0,24.0,20.0,0.0,0.0
1340,68.0,24.0,20.0,0.0,0.0
1341,72.0,24.0,20.0,0.0,0.0
1342,75.0,24.0,20.0,0.0,0.0
1343,72.0,24.0,20.0,0.0,0.0
1344,68.0,0.0,20.0,0.0,0.0
1345,63.0,96.0,90.0,0.0,0.0
1346,36.0,0.0,180.0,1.0,0.0
1347,48.0,76.0,180.0,1.0,0.0
1348,63.0,106.0,180.0,0.0,0.0
1349,51.0,259.0,180.0,1.0,0.0
1350,39.0,0.0,180.0,1.0,0.0
1351,67.0,10.0,90.0,0.0,0.0
1352,61.0,0.0,90.0,0.0,0.0
1353,60.0,0.0,270.0,0.0,0.0
1354,68.0,29.0,270.0,0.0,0.0
1355,56.0,86.0,300.0,1.0,0.0
1356,44.0,0.0,300.0,1.0,0.0
1357,69.0,10.0,90.0,0.0,0.0
1358,53.0,48.0,90.0,1.0,0.0
1359,54.0,48.0,90.0,1.0,0.0
1360,72.0,43.0,40.0,0.0,0.0
1361,70.0,5.0,40.0,0.0,0.0
1362,53.0,48.0,90.0,1.0,0.0
1363,70.0,43.0,40.0,0.0,0.0
1364,68.0,5.0,40.0,0.0,0.0
1365,44.0,0.0,570.0,1.0,0.0
1366,51.0,48.0,90.0,1.0,0.0
1367,68.0,43.0,40.0,0.0,0.0
1368,66.0,5.0,40.0,0.0,0.0
1369,49.0,48.0,90.0,1.0,0.0
1370,66.0,43.0,40.0,0.0,0.0
1371,65.0,5.0,40.0,0.0,0.0
1372,65.0,43.0,40.0,0.0,0.0
1373,48.0,48.0,90.0,1.0,0.0
1374,63.0,5.0,40.0,0.0,0.0
1375,63.0,43.0,40.0,0.0,0.0
1376,49.0,48.0,90.0,1.0,0.0
1377,65.0,5.0,40.0,0.0,0.0
1378,65.0,43.0,40.0,0.0,0.0
1379,51.0,48.0,90.0,1.0,0.0
1380,66.0,5.0,40.0,0.0,0.0
1381,66.0,43.0,40.0,0.0,0.0
1382,48.0,96.0,90.0,1.0,0.0
1383,63.0,5.0,40.0,0.0,0.0
1384,60.0,86.0,90.0,0.0,0.0
1385,55.0,0.0,90.0,0.0,0.0
1386,49.0,192.0,180.0,1.0,0.0
1387,61.0,10.0,90.0,0.0,0.0
1388,53.0,0.0,90.0,0.0,0.0
1389,61.0,384.0,180.0,0.0,0.0
1390,53.0,0.0,180.0,0.0,0.0
1391,37.0,0.0,180.0,1.0,0.0
1392,49.0,38.0,510.0,1.0,0.0
1393,68.0,96.0,90.0,0.0,0.0
1394,64.0,76.0,90.0,0.0,0.0
1395,52.0,96.0,180.0,1.0,0.0
1396,61.0,58.0,180.0,0.0,0.0
1397,54.0,20.0,180.0,1.0,0.0
1398,69.0,86.0,15.0,0.0,0.0
1399,52.0,96.0,180.0,1.0,0.0
1400,68.0,96.0,180.0,0.0,0.0
1401,51.0,96.0,180.0,1.0,0.0
1402,66.0,58.0,180.0,0.0,0.0
1403,49.0,38.0,120.0,1.0,0.0
1404,64.0,202.0,90.0,0.0,0.0
1405,49.0,38.0,510.0,1.0,0.0
1406,64.0,96.0,90.0,0.0,0.0
1407,60.0,76.0,90.0,0.0,0.0
1408,56.0,96.0,180.0,1.0,0.0
1409,61.0,58.0,180.0,0.0,0.0
1410,57.0,20.0,180.0,1.0,0.0
1411,66.0,86.0,90.0,0.0,0.0
1412,66.0,86.0,90.0,0.0,0.0
1413,56.0,96.0,180.0,1.0,0.0
1414,49.0,38.0,510.0,1.0,0.0
1415,64.0,96.0,180.0,0.0,0.0
1416,54.0,96.0,180.0,1.0,0.0
1417,63.0,58.0,180.0,0.0,0.0
1418,52.0,10.0,180.0,1.0,0.0
1419,61.0,182.0,90.0,0.0,0.0
1420,44.0,20.0,180.0,1.0,0.0
1421,32.0,0.0,180.0,1.0,0.0
1422,63.0,96.0,90.0,0.0,0.0
1423,60.0,96.0,90.0,0.0,0.0
1424,43.0,0.0,90.0,1.0,0.0
1425,55.0,86.0,90.0,0.0,0.0
1426,44.0,10.0,180.0,1.0,0.0
1427,56.0,86.0,90.0,0.0,0.0
1428,63.0,0.0,90.0,0.0,0.0
1429,60.0,192.0,90.0,0.0,0.0
1430,61.0,0.0,270.0,0.0,0.0
1431,64.0,125.0,270.0,0.0,0.0
1432,44.0,77.0,90.0,1.0,0.0
1433,56.0,29.0,360.0,1.0,0.0
1434,63.0,96.0,90.0,0.0,0.0
1435,60.0,0.0,90.0,0.0,0.0
1436,64.0,57.0,90.0,0.0,0.0
1437,61.0,0.0,90.0,0.0,0.0
1438,63.0,182.0,90.0,0.0,0.0
1439,60.0,0.0,90.0,0.0,0.0
1440,32.0,20.0,180.0,1.0,0.0
1441,44.0,0.0,180.0,1.0,0.0
1442,64.0,96.0,90.0,0.0,0.0
1443,61.0,96.0,90.0,0.0,0.0
1444,43.0,86.0,90.0,1.0,0.0
1445,55.0,0.0,90.0,0.0,0.0
1446,44.0,10.0,180.0,1.0,0.0
1447,56.0,86.0,90.0,0.0,0.0
1448,64.0,192.0,90.0,0.0,0.0
1449,61.0,0.0,90.0,0.0,0.0
1450,66.0,0.0,270.0,0.0,0.0
1451,63.0,125.0,270.0,0.0,0.0
1452,44.0,77.0,90.0,1.0,0.0
1453,56.0,29.0,360.0,1.0,0.0
1454,65.0,96.0,90.0,0.0,0.0
1455,62.0,0.0,90.0,0.0,0.0
1456,66.0,0.0,90.0,0.0,0.0
1457,63.0,57.0,90.0,0.0,0.0
1458,60.0,106.0,90.0,0.0,0.0
1459,63.0,0.0,90.0,0.0,0.0
1460,64.0,76.0,90.0,0.0,0.0
1461,61.0,0.0,90.0,0.0,0.0
1462,49.0,10.0,180.0,1.0,0.0
1463,69.0,106.0,90.0,0.0,0.0
1464,68.0,76.0,90.0,0.0,0.0
1465,52.0,10.0,180.0,1.0,0.0
1466,61.0,58.0,90.0,0.0,0.0
1467,56.0,10.0,180.0,1.0,0.0
1468,63.0,0.0,40.0,0.0,0.0
1469,60.0,124.0,40.0,0.0,0.0
1470,63.0,106.0,90.0,0.0,0.0
1471,66.0,0.0,90.0,0.0,0.0
1472,64.0,76.0,90.0,0.0,0.0
1473,61.0,0.0,90.0,0.0,0.0
1474,49.0,10.0,180.0,1.0,0.0
1475,69.0,106.0,90.0,0.0,0.0
1476,40.0,10.0,180.0,1.0,0.0
1477,68.0,76.0,90.0,0.0,0.0
1478,61.0,106.0,90.0,0.0,0.0
1479,44.0,10.0,180.0,1.0,0.0
1480,63.0,76.0,90.0,0.0,0.0
1481,60.0,0.0,90.0,0.0,0.0
1482,66.0,106.0,90.0,0.0,0.0
1483,63.0,0.0,90.0,0.0,0.0
1484,61.0,0.0,90.0,0.0,0.0
1485,64.0,76.0,90.0,0.0,0.0
1486,49.0,10.0,180.0,1.0,0.0
1487,73.0,106.0,90.0,0.0,0.0
1488,63.0,76.0,90.0,0.0,0.0
1489,42.0,10.0,180.0,1.0,0.0
1490,69.0,106.0,90.0,0.0,0.0
1491,54.0,10.0,180.0,1.0,0.0
1492,44.0,0.0,180.0,1.0,0.0
1493,68.0,76.0,90.0,0.0,0.0
1494,60.0,106.0,90.0,0.0,0.0
1495,63.0,76.0,90.0,0.0,0.0
1496,52.0,10.0,180.0,1.0,0.0
1497,49.0,0.0,180.0,1.0,0.0
1498,61.0,182.0,90.0,0.0,0.0
1499,37.0,20.0,180.0,1.0,0.0
1500,61.0,96.0,90.0,0.0,0.0
1501,49.0,20.0,180.0,1.0,0.0
1502,59.0,0.0,180.0,1.0,0.0
1503,63.0,76.0,90.0,0.0,0.0
1504,65.0,96.0,90.0,0.0,0.0
1505,49.0,116.0,180.0,1.0,0.0
1506,68.0,76.0,90.0,0.0,0.0
1507,57.0,0.0,180.0,1.0,0.0
1508,66.0,96.0,180.0,0.0,0.0
1509,60.0,39.0,360.0,1.0,0.0
1510,49.0,0.0,360.0,1.0,0.0
1511,69.0,96.0,90.0,0.0,0.0
1512,68.0,57.0,90.0,0.0,0.0
1513,66.0,96.0,90.0,0.0,0.0
1514,49.0,96.0,180.0,1.0,0.0
1515,63.0,76.0,90.0,0.0,0.0
1516,61.0,0.0,180.0,1.0,0.0
1517,64.0,96.0,180.0,0.0,0.0
1518,49.0,20.0,180.0,1.0,0.0
1519,64.0,96.0,90.0,0.0,0.0
1520,66.0,96.0,90.0,0.0,0.0
1521,68.0,96.0,90.0,0.0,0.0
1522,71.0,192.0,90.0,0.0,0.0
1523,69.0,76.0,180.0,0.0,0.0
1524,49.0,20.0,180.0,1.0,0.0
1525,52.0,0.0,180.0,1.0,0.0
1526,73.0,96.0,90.0,0.0,0.0
1527,54.0,20.0,180.0,1.0,0.0
1528,51.0,0.0,180.0,1.0,0.0
1529,71.0,76.0,90.0,0.0,0.0
1530,69.0,96.0,90.0,0.0,0.0
1531,67.0,172.0,90.0,0.0,0.0
1532,68.0,96.0,180.0,0.0,0.0
1533,52.0,20.0,180.0,1.0,0.0
1534,59.0,0.0,180.0,1.0,0.0
1535,76.0,96.0,90.0,0.0,0.0
1536,52.0,0.0,180.0,1.0,0.0
1537,44.0,20.0,180.0,1.0,0.0
1538,75.0,76.0,90.0,0.0,0.0
1539,74.0,48.0,90.0,0.0,0.0
1540,72.0,48.0,40.0,0.0,0.0
1541,52.0,20.0,180.0,1.0,0.0
1542,45.0,10.0,510.0,1.0,0.0
1543,73.0,48.0,40.0,0.0,0.0
1544,74.0,28.0,40.0,0.0,0.0
1545,73.0,48.0,40.0,0.0,0.0
1546,49.0,20.0,180.0,1.0,0.0
1547,71.0,48.0,40.0,0.0,0.0
1548,69.0,48.0,40.0,0.0,0.0
1549,68.0,28.0,40.0,0.0,0.0
1550,66.0,48.0,40.0,0.0,0.0
1551,65.0,48.0,40.0,0.0,0.0
1552,57.0,20.0,180.0,1.0,0.0
1553,66.0,38.0,40.0,0.0,0.0
1554,69.0,28.0,40.0,0.0,0.0
1555,73.0,144.0,40.0,0.0,0.0
1556,56.0,0.0,180.0,1.0,0.0
1557,48.0,19.0,360.0,1.0,0.0
1558,64.0,24.0,150.0,0.0,0.0
1559,66.0,24.0,20.0,0.0,0.0
1560,64.0,43.0,20.0,0.0,0.0
1561,54.0,20.0,180.0,1.0,0.0
1562,63.0,53.0,40.0,0.0,0.0
1563,59.0,48.0,40.0,0.0,0.0
1564,61.0,9.0,40.0,0.0,0.0
1565,63.0,48.0,40.0,0.0,0.0
1566,64.0,48.0,40.0,0.0,0.0
1567,66.0,48.0,40.0,0.0,0.0
1568,68.0,48.0,40.0,0.0,0.0
1569,69.0,86.0,40.0,0.0,0.0
1570,71.0,0.0,90.0,0.0,0.0
1571,40.0,96.0,90.0,1.0,0.0
1572,71.0,10.0,180.0,0.0,0.0
1573,68.0,0.0,180.0,0.0,0.0
1574,52.0,86.0,90.0,1.0,0.0
1575,52.0,96.0,90.0,1.0,0.0
1576,71.0,10.0,180.0,0.0,0.0
1577,52.0,86.0,90.0,1.0,0.0
1578,68.0,0.0,180.0,0.0,0.0
1579,52.0,96.0,90.0,1.0,0.0
1580,73.0,0.0,90.0,0.0,0.0
1581,52.0,10.0,90.0,1.0,0.0
1582,69.0,86.0,90.0,0.0,0.0
1583,69.0,0.0,90.0,0.0,0.0
1584,73.0,96.0,90.0,0.0,0.0
1585,52.0,0.0,90.0,1.0,0.0
1586,71.0,0.0,180.0,0.0,0.0
1587,52.0,86.0,90.0,1.0,0.0
1588,68.0,10.0,180.0,0.0,0.0
1589,52.0,96.0,90.0,1.0,0.0
1590,66.0,0.0,180.0,0.0,0.0
1591,69.0,10.0,180.0,0.0,0.0
1592,52.0,86.0,90.0,1.0,0.0
1593,52.0,96.0,90.0,1.0,0.0
1594,52.0,10.0,90.0,1.0,0.0
1595,64.0,0.0,90.0,0.0,0.0
1596,59.0,0.0,90.0,0.0,0.0
1597,68.0,86.0,15.0,0.0,0.0
1598,40.0,0.0,90.0,1.0,0.0
1599,59.0,10.0,180.0,0.0,0.0
1600,68.0,0.0,180.0,0.0,0.0
1601,52.0,86.0,90.0,1.0,0.0
1602,52.0,96.0,90.0,1.0,0.0
1603,52.0,86.0,90.0,1.0,0.0
1604,59.0,10.0,180.0,0.0,0.0
1605,68.0,0.0,180.0,0.0,0.0
1606,52.0,96.0,90.0,1.0,0.0
1607,52.0,10.0,90.0,1.0,0.0
1608,69.0,0.0,15.0,0.0,0.0
1609,61.0,86.0,15.0,0.0,0.0
1610,52.0,0.0,90.0,1.0,0.0
1611,59.0,10.0,180.0,0.0,0.0
1612,68.0,0.0,180.0,0.0,0.0
1613,52.0,86.0,90.0,1.0,0.0
1614,52.0,96.0,90.0,1.0,0.0
1615,57.0,0.0,180.0,0.0,0.0
1616,52.0,86.0,90.0,1.0,0.0
1617,66.0,10.0,180.0,0.0,0.0
1618,52.0,96.0,90.0,1.0,0.0
1619,56.0,96.0,90.0,0.0,0.0
1620,52.0,0.0,90.0,1.0,0.0
1621,64.0,0.0,90.0,0.0,0.0
1622,65.0,0.0,90.0,0.0,0.0
1623,62.0,0.0,90.0,0.0,0.0
1624,59.0,0.0,90.0,0.0,0.0
1625,37.0,96.0,90.0,1.0,0.0
1626,49.0,86.0,90.0,1.0,0.0
1627,65.0,10.0,180.0,0.0,0.0
1628,62.0,0.0,180.0,0.0,0.0
1629,59.0,0.0,180.0,0.0,0.0
1630,49.0,96.0,90.0,1.0,0.0
1631,49.0,86.0,90.0,1.0,0.0
1632,65.0,0.0,180.0,0.0,0.0
1633,61.0,0.0,180.0,0.0,0.0
1634,57.0,10.0,180.0,0.0,0.0
1635,49.0,96.0,90.0,1.0,0.0
1636,49.0,0.0,90.0,1.0,0.0
1637,59.0,0.0,90.0,0.0,0.0
1638,56.0,0.0,90.0,0.0,0.0
1639,65.0,58.0,90.0,0.0,0.0
1640,57.0,0.0,180.0,1.0,0.0
1641,54.0,20.0,180.0,1.0,0.0
1642,66.0,48.0,40.0,0.0,0.0
1643,61.0,48.0,40.0,0.0,0.0
1644,63.0,28.0,40.0,0.0,0.0
1645,65.0,48.0,40.0,0.0,0.0
1646,66.0,48.0,40.0,0.0,0.0
1647,68.0,48.0,40.0,0.0,0.0
1648,69.0,48.0,40.0,0.0,0.0
1649,71.0,48.0,40.0,0.0,0.0
1650,73.0,48.0,40.0,0.0,0.0
1651,72.0,48.0,40.0,0.0,0.0
1652,73.0,43.0,40.0,0.0,0.0
1653,70.0,91.0,40.0,0.0,0.0
1654,67.0,0.0,90.0,0.0,0.0
1655,39.0,96.0,90.0,1.0,0.0
1656,64.0,0.0,90.0,0.0,0.0
1657,61.0,0.0,90.0,0.0,0.0
1658,67.0,0.0,180.0,0.0,0.0
1659,51.0,86.0,90.0,1.0,0.0
1660,61.0,10.0,180.0,0.0,0.0
1661,64.0,0.0,180.0,0.0,0.0
1662,51.0,96.0,90.0,1.0,0.0
1663,51.0,86.0,90.0,1.0,0.0
1664,67.0,0.0,180.0,0.0,0.0
1665,63.0,0.0,180.0,0.0,0.0
1666,60.0,10.0,180.0,0.0,0.0
1667,51.0,96.0,90.0,1.0,0.0
1668,51.0,58.0,90.0,1.0,0.0
1669,61.0,0.0,90.0,0.0,0.0
1670,67.0,0.0,90.0,0.0,0.0
1671,58.0,0.0,90.0,0.0,0.0
1672,56.0,20.0,180.0,1.0,0.0
1673,68.0,48.0,40.0,0.0,0.0
1674,60.0,0.0,180.0,1.0,0.0
1675,63.0,48.0,40.0,0.0,0.0
1676,65.0,28.0,40.0,0.0,0.0
1677,67.0,48.0,40.0,0.0,0.0
1678,68.0,48.0,40.0,0.0,0.0
1679,70.0,48.0,40.0,0.0,0.0
1680,72.0,48.0,40.0,0.0,0.0
1681,73.0,48.0,40.0,0.0,0.0
1682,75.0,48.0,40.0,0.0,0.0
1683,72.0,48.0,40.0,0.0,0.0
1684,70.0,48.0,40.0,0.0,0.0
1685,68.0,172.0,40.0,0.0,0.0
1686,57.0,0.0,690.0,1.0,0.0
1687,61.0,29.0,690.0,1.0,0.0
1688,67.0,279.0,180.0,0.0,0.0
1689,76.0,77.0,270.0,0.0,0.0
1690,75.0,43.0,40.0,0.0,0.0
1691,73.0,53.0,40.0,0.0,0.0
1692,72.0,43.0,40.0,0.0,0.0
1693,69.0,24.0,40.0,0.0,0.0
1694,68.0,43.0,40.0,0.0,0.0
1695,67.0,53.0,40.0,0.0,0.0
1696,67.0,48.0,40.0,0.0,0.0
1697,60.0,2.0,690.0,1.0,0.0
1698,56.0,0.0,690.0,1.0,0.0
1699,68.0,48.0,40.0,0.0,0.0
1700,70.0,21.0,40.0,0.0,0.0
1701,68.0,24.0,20.0,0.0,0.0
1702,70.0,24.0,20.0,0.0,0.0
1703,68.0,24.0,20.0,0.0,0.0
1704,70.0,24.0,20.0,0.0,0.0
1705,68.0,24.0,20.0,0.0,0.0
1706,70.0,24.0,20.0,0.0,0.0
1707,68.0,24.0,20.0,0.0,0.0
1708,70.0,24.0,20.0,0.0,0.0
1709,68.0,24.0,20.0,0.0,0.0
1710,70.0,24.0,20.0,0.0,0.0
1711,68.0,24.0,20.0,0.0,0.0
1712,70.0,24.0,20.0,0.0,0.0
1713,68.0,24.0,20.0,0.0,0.0
1714,70.0,24.0,20.0,0.0,0.0
1715,68.0,24.0,20.0,0.0,0.0
1716,70.0,24.0,20.0,0.0,0.0
1717,68.0,24.0,20.0,0.0,0.0
1718,70.0,24.0,20.0,0.0,0.0
1719,68.0,24.0,20.0,0.0,0.0
1720,70.0,24.0,20.0,0.0,0.0
1721,68.0,24.0,20.0,0.0,0.0
1722,70.0,22.0,20.0,0.0,0.0
1723,68.0,24.0,20.0,0.0,0.0
1724,70.0,24.0,20.0,0.0,0.0
1725,68.0,24.0,20.0,0.0,0.0
1726,70.0,24.0,20.0,0.0,0.0
1727,67.0,123.0,20.0,0.0,0.0
1728,68.0,48.0,120.0,0.0,0.0
1729,72.0,48.0,40.0,0.0,0.0
1730,70.0,48.0,40.0,0.0,0.0
1731,73.0,48.0,40.0,0.0,0.0
1732,72.0,48.0,40.0,0.0,0.0
1733,75.0,24.0,40.0,0.0,0.0
1734,73.0,24.0,20.0,0.0,0.0
1735,77.0,24.0,20.0,0.0,0.0
1736,75.0,24.0,20.0,0.0,0.0
1737,78.0,24.0,20.0,0.0,0.0
1738,77.0,24.0,20.0,0.0,0.0
1739,80.0,302.0,20.0,0.0,0.0
1740,56.0,0.0,300.0,1.0,0.0
1741,78.0,58.0,300.0,0.0,0.0
1742,60.0,0.0,300.0,1.0,0.0
1743,63.0,0.0,300.0,1.0,0.0
1744,66.0,0.0,300.0,1.0,0.0
1745,80.0,24.0,20.0,0.0,0.0
1746,82.0,96.0,20.0,0.0,0.0
1747,80.0,43.0,90.0,0.0,0.0
1748,78.0,149.0,40.0,0.0,0.0
1749,77.0,43.0,90.0,0.0,0.0
1750,75.0,197.0,40.0,0.0,0.0
1751,73.0,48.0,150.0,0.0,0.0
1752,72.0,144.0,40.0,0.0,0.0
1753,78.0,43.0,150.0,0.0,0.0
1754,72.0,29.0,40.0,0.0,0.0
1755,73.0,24.0,20.0,0.0,0.0
1756,65.0,20.0,180.0,1.0,0.0
1757,68.0,0.0,180.0,1.0,0.0
1758,75.0,24.0,20.0,0.0,0.0
1759,73.0,24.0,20.0,0.0,0.0
1760,75.0,24.0,20.0,0.0,0.0
1761,73.0,24.0,20.0,0.0,0.0
1762,75.0,24.0,20.0,0.0,0.0
1763,73.0,4.0,20.0,0.0,0.0
1764,75.0,24.0,20.0,0.0,0.0
1765,68.0,5.0,270.0,1.0,0.0
1766,65.0,0.0,270.0,1.0,0.0
1767,73.0,24.0,20.0,0.0,0.0
1768,75.0,24.0,20.0,0.0,0.0
1769,73.0,24.0,20.0,0.0,0.0
1770,75.0,24.0,20.0,0.0,0.0
1771,73.0,24.0,20.0,0.0,0.0
1772,75.0,24.0,20.0,0.0,0.0
1773,73.0,24.0,20.0,0.0,0.0
1774,75.0,24.0,20.0,0.0,0.0
1775,73.0,24.0,20.0,0.0,0.0
1776,75.0,19.0,20.0,0.0,0.0
1777,73.0,24.0,20.0,0.0,0.0
1778,75.0,24.0,20.0,0.0,0.0
1779,73.0,24.0,20.0,0.0,0.0
1780,70.0,10.0,90.0,1.0,0.0
1781,66.0,0.0,90.0,1.0,0.0
1782,75.0,24.0,20.0,0.0,0.0
1783,73.0,14.0,20.0,0.0,0.0
1784,75.0,24.0,20.0,0.0,0.0
1785,65.0,5.0,270.0,1.0,0.0
1786,68.0,0.0,270.0,1.0,0.0
1787,73.0,24.0,20.0,0.0,0.0
1788,75.0,24.0,20.0,0.0,0.0
1789,73.0,24.0,20.0,0.0,0.0
1790,75.0,24.0,20.0,0.0,0.0
1791,73.0,24.0,20.0,0.0,0.0
1792,75.0,24.0,20.0,0.0,0.0
1793,73.0,24.0,20.0,0.0,0.0
1794,75.0,24.0,20.0,0.0,0.0
1795,73.0,24.0,20.0,0.0,0.0
1796,75.0,19.0,20.0,0.0,0.0
1797,73.0,24.0,20.0,0.0,0.0
1798,75.0,24.0,20.0,0.0,0.0
1799,63.0,10.0,90.0,1.0,0.0
1800,73.0,24.0,20.0,0.0,0.0
1801,66.0,0.0,90.0,1.0,0.0
1802,75.0,24.0,20.0,0.0,0.0
1803,73.0,14.0,20.0,0.0,0.0
1804,75.0,24.0,20.0,0.0,0.0
1805,73.0,24.0,20.0,0.0,0.0
1806,65.0,20.0,180.0,1.0,0.0
1807,61.0,0.0,180.0,1.0,0.0
1808,75.0,24.0,20.0,0.0,0.0
1809,73.0,24.0,20.0,0.0,0.0
1810,75.0,24.0,20.0,0.0,0.0
1811,73.0,24.0,20.0,0.0,0.0
1812,75.0,24.0,20.0,0.0,0.0
1813,73.0,4.0,20.0,0.0,0.0
1814,75.0,24.0,20.0,0.0,0.0
1815,56.0,0.0,180.0,1.0,0.0
1816,73.0,24.0,20.0,0.0,0.0
1817,65.0,20.0,180.0,1.0,0.0
1818,75.0,24.0,20.0,0.0,0.0
1819,73.0,24.0,20.0,0.0,0.0
1820,75.0,24.0,20.0,0.0,0.0
1821,73.0,24.0,20.0,0.0,0.0
1822,75.0,24.0,20.0,0.0,0.0
1823,73.0,4.0,20.0,0.0,0.0
1824,75.0,24.0,20.0,0.0,0.0
1825,73.0,24.0,20.0,0.0,0.0
1826,65.0,5.0,270.0,1.0,0.0
1827,56.0,0.0,270.0,1.0,0.0
1828,75.0,24.0,20.0,0.0,0.0
1829,73.0,24.0,20.0,0.0,0.0
1830,75.0,24.0,20.0,0.0,0.0
1831,73.0,24.0,20.0,0.0,0.0
1832,75.0,24.0,20.0,0.0,0.0
1833,73.0,24.0,20.0,0.0,0.0
1834,75.0,24.0,20.0,0.0,0.0
1835,73.0,24.0,20.0,0.0,0.0
1836,75.0,19.0,20.0,0.0,0.0
1837,73.0,24.0,20.0,0.0,0.0
1838,75.0,24.0,20.0,0.0,0.0
1839,66.0,10.0,90.0,1.0,0.0
1840,58.0,0.0,90.0,1.0,0.0
1841,73.0,24.0,20.0,0.0,0.0
1842,75.0,24.0,20.0,0.0,0.0
1843,73.0,14.0,20.0,0.0,0.0
1844,75.0,24.0,20.0,0.0,0.0
1845,73.0,24.0,20.0,0.0,0.0
1846,56.0,5.0,270.0,1.0,0.0
1847,65.0,0.0,270.0,1.0,0.0
1848,75.0,24.0,20.0,0.0,0.0
1849,73.0,24.0,20.0,0.0,0.0
1850,75.0,24.0,20.0,0.0,0.0
1851,73.0,24.0,20.0,0.0,0.0
1852,75.0,24.0,20.0,0.0,0.0
1853,73.0,24.0,20.0,0.0,0.0
1854,75.0,24.0,20.0,0.0,0.0
1855,73.0,24.0,20.0,0.0,0.0
1856,75.0,19.0,20.0,0.0,0.0
1857,73.0,24.0,20.0,0.0,0.0
1858,75.0,24.0,20.0,0.0,0.0
1859,54.0,10.0,90.0,1.0,0.0
1860,73.0,24.0,20.0,0.0,0.0
1861,63.0,0.0,90.0,1.0,0.0
1862,75.0,24.0,20.0,0.0,0.0
1863,73.0,14.0,20.0,0.0,0.0
1864,75.0,24.0,20.0,0.0,0.0
1865,53.0,0.0,180.0,1.0,0.0
1866,73.0,24.0,20.0,0.0,0.0
1867,61.0,20.0,180.0,1.0,0.0
1868,75.0,24.0,20.0,0.0,0.0
1869,73.0,24.0,20.0,0.0,0.0
1870,75.0,48.0,20.0,0.0,0.0
1871,72.0,28.0,40.0,0.0,0.0
1872,73.0,24.0,40.0,0.0,0.0
1873,56.0,0.0,180.0,1.0,0.0
1874,63.0,20.0,180.0,1.0,0.0
1875,60.0,0.0,180.0,1.0,0.0
1876,80.0,24.0,20.0,0.0,0.0
1877,82.0,24.0,20.0,0.0,0.0
1878,80.0,24.0,20.0,0.0,0.0
1879,82.0,24.0,20.0,0.0,0.0
1880,80.0,24.0,20.0,0.0,0.0
1881,82.0,24.0,20.0,0.0,0.0
1882,80.0,4.0,20.0,0.0,0.0
1883,82.0,24.0,20.0,0.0,0.0
1884,63.0,0.0,180.0,1.0,0.0
1885,60.0,0.0,180.0,1.0,0.0
1886,56.0,20.0,180.0,1.0,0.0
1887,80.0,24.0,20.0,0.0,0.0
1888,82.0,24.0,20.0,0.0,0.0
1889,80.0,24.0,20.0,0.0,0.0
1890,82.0,24.0,20.0,0.0,0.0
1891,80.0,24.0,20.0,0.0,0.0
1892,82.0,24.0,20.0,0.0,0.0
1893,80.0,4.0,20.0,0.0,0.0
1894,82.0,24.0,20.0,0.0,0.0
1895,80.0,24.0,20.0,0.0,0.0
1896,60.0,0.0,180.0,1.0,0.0
1897,63.0,0.0,180.0,1.0,0.0
1898,56.0,20.0,180.0,1.0,0.0
1899,82.0,24.0,20.0,0.0,0.0
1900,80.0,24.0,20.0,0.0,0.0
1901,82.0,24.0,20.0,0.0,0.0
1902,80.0,24.0,20.0,0.0,0.0
1903,82.0,24.0,20.0,0.0,0.0
1904,80.0,4.0,20.0,0.0,0.0
1905,82.0,24.0,20.0,0.0,0.0
1906,65.0,24.0,300.0,1.0,0.0
1907,61.0,0.0,300.0,1.0,0.0
1908,80.0,24.0,20.0,0.0,0.0
1909,82.0,24.0,20.0,0.0,0.0
1910,80.0,24.0,20.0,0.0,0.0
1911,82.0,24.0,20.0,0.0,0.0
1912,80.0,24.0,20.0,0.0,0.0
1913,82.0,24.0,20.0,0.0,0.0
1914,80.0,24.0,20.0,0.0,0.0
1915,82.0,24.0,20.0,0.0,0.0
1916,80.0,24.0,20.0,0.0,0.0
1917,82.0,24.0,20.0,0.0,0.0
1918,80.0,24.0,20.0,0.0,0.0
1919,82.0,0.0,20.0,0.0,0.0
1920,60.0,24.0,90.0,1.0,0.0
1921,64.0,0.0,90.0,1.0,0.0
1922,80.0,24.0,20.0,0.0,0.0
1923,82.0,24.0,20.0,0.0,0.0
1924,80.0,24.0,20.0,0.0,0.0
1925,82.0,0.0,20.0,0.0,0.0
1926,61.0,0.0,180.0,1.0,0.0
1927,80.0,24.0,20.0,0.0,0.0
1928,65.0,20.0,180.0,1.0,0.0
1929,82.0,24.0,20.0,0.0,0.0
1930,80.0,24.0,20.0,0.0,0.0
1931,82.0,24.0,20.0,0.0,0.0
1932,80.0,24.0,20.0,0.0,0.0
1933,82.0,24.0,20.0,0.0,0.0
1934,80.0,4.0,20.0,0.0,0.0
1935,82.0,24.0,20.0,0.0,0.0
1936,65.0,0.0,180.0,1.0,0.0
1937,80.0,24.0,20.0,0.0,0.0
1938,56.0,0.0,180.0,1.0,0.0
1939,61.0,20.0,180.0,1.0,0.0
1940,82.0,24.0,20.0,0.0,0.0
1941,80.0,24.0,20.0,0.0,0.0
1942,82.0,24.0,20.0,0.0,0.0
1943,80.0,24.0,20.0,0.0,0.0
1944,82.0,24.0,20.0,0.0,0.0
1945,80.0,4.0,20.0,0.0,0.0
1946,82.0,24.0,20.0,0.0,0.0
1947,65.0,0.0,180.0,1.0,0.0
1948,61.0,0.0,180.0,1.0,0.0
1949,56.0,20.0,180.0,1.0,0.0
1950,80.0,24.0,20.0,0.0,0.0
1951,82.0,24.0,20.0,0.0,0.0
1952,80.0,24.0,20.0,0.0,0.0
1953,82.0,24.0,20.0,0.0,0.0
1954,80.0,24.0,20.0,0.0,0.0
1955,82.0,24.0,20.0,0.0,0.0
1956,80.0,4.0,20.0,0.0,0.0
1957,82.0,24.0,20.0,0.0,0.0
1958,80.0,24.0,20.0,0.0,0.0
1959,65.0,0.0,180.0,1.0,0.0
1960,62.0,0.0,180.0,1.0,0.0
1961,56.0,20.0,180.0,1.0,0.0
1962,82.0,24.0,20.0,0.0,0.0
1963,80.0,24.0,20.0,0.0,0.0
1964,82.0,24.0,20.0,0.0,0.0
1965,80.0,24.0,20.0,0.0,0.0
1966,82.0,24.0,20.0,0.0,0.0
1967,80.0,4.0,20.0,0.0,0.0
1968,82.0,24.0,20.0,0.0,0.0
1969,80.0,24.0,20.0,0.0,0.0
1970,63.0,0.0,300.0,1.0,0.0
1971,66.0,24.0,300.0,1.0,0.0
1972,82.0,24.0,20.0,0.0,0.0
1973,80.0,24.0,20.0,0.0,0.0
1974,82.0,24.0,20.0,0.0,0.0
1975,80.0,24.0,20.0,0.0,0.0
1976,82.0,24.0,20.0,0.0,0.0
1977,80.0,24.0,20.0,0.0,0.0
1978,82.0,24.0,20.0,0.0,0.0
1979,80.0,24.0,20.0,0.0,0.0
1980,82.0,24.0,20.0,0.0,0.0
1981,80.0,24.0,20.0,0.0,0.0
1982,82.0,0.0,20.0,0.0,0.0
1983,62.0,0.0,90.0,1.0,0.0
1984,65.0,0.0,90.0,1.0,0.0
1985,80.0,24.0,20.0,0.0,0.0
1986,82.0,24.0,20.0,0.0,0.0
1987,80.0,24.0,20.0,0.0,0.0
1988,82.0,24.0,20.0,0.0,0.0
1989,63.0,0.0,180.0,1.0,0.0
1990,66.0,20.0,180.0,1.0,0.0
1991,80.0,24.0,20.0,0.0,0.0
1992,82.0,24.0,20.0,0.0,0.0
1993,80.0,24.0,20.0,0.0,0.0
1994,82.0,24.0,20.0,0.0,0.0
1995,80.0,24.0,20.0,0.0,0.0
1996,82.0,24.0,20.0,0.0,0.0
1997,80.0,4.0,20.0,0.0,0.0
1998,82.0,24.0,20.0,0.0,0.0
1999,61.0,15.0,180.0,1.0,0.0
2000,65.0,24.0,150.0,1.0,0.0
2001,80.0,24.0,20.0,0.0,0.0
2002,82.0,24.0,20.0,0.0,0.0
2003,80.0,24.0,20.0,0.0,0.0
2004,82.0,24.0,20.0,0.0,0.0
2005,80.0,24.0,20.0,0.0,0.0
2006,82.0,0.0,20.0,0.0,0.0
2007,80.0,4.0,20.0,0.0,0.0
2008,68.0,5.0,40.0,1.0,0.0
2009,82.0,24.0,20.0,0.0,0.0
2010,61.0,5.0,40.0,1.0,0.0
2011,53.0,0.0,40.0,1.0,0.0
2012,80.0,19.0,20.0,0.0,0.0
2013,82.0,24.0,20.0,0.0,0.0
2014,80.0,24.0,20.0,0.0,0.0
2015,82.0,24.0,20.0,0.0,0.0
2016,53.0,5.0,40.0,1.0,0.0
2017,61.0,0.0,40.0,1.0,0.0
2018,80.0,19.0,20.0,0.0,0.0
2019,82.0,24.0,20.0,0.0,0.0
2020,80.0,24.0,20.0,0.0,0.0
2021,82.0,24.0,20.0,0.0,0.0
2022,56.0,0.0,40.0,1.0,0.0
2023,80.0,19.0,20.0,0.0,0.0
2024,63.0,5.0,40.0,1.0,0.0
2025,82.0,24.0,20.0,0.0,0.0
2026,80.0,24.0,20.0,0.0,0.0
2027,82.0,24.0,20.0,0.0,0.0
2028,80.0,19.0,20.0,0.0,0.0
2029,56.0,5.0,40.0,1.0,0.0
2030,63.0,0.0,40.0,1.0,0.0
2031,82.0,24.0,20.0,0.0,0.0
2032,80.0,24.0,20.0,0.0,0.0
2033,82.0,24.0,20.0,0.0,0.0
2034,80.0,24.0,20.0,0.0,0.0
2035,65.0,0.0,150.0,1.0,0.0
2036,61.0,15.0,180.0,1.0,0.0
2037,82.0,24.0,20.0,0.0,0.0
2038,80.0,24.0,20.0,0.0,0.0
2039,82.0,24.0,20.0,0.0,0.0
2040,80.0,24.0,20.0,0.0,0.0
2041,82.0,24.0,20.0,0.0,0.0
2042,80.0,4.0,20.0,0.0,0.0
2043,68.0,5.0,40.0,1.0,0.0
2044,82.0,24.0,20.0,0.0,0.0
2045,80.0,19.0,20.0,0.0,0.0
2046,61.0,5.0,40.0,1.0,0.0
2047,53.0,0.0,40.0,1.0,0.0
2048,82.0,24.0,20.0,0.0,0.0
2049,80.0,24.0,20.0,0.0,0.0
2050,82.0,24.0,20.0,0.0,0.0
2051,80.0,19.0,20.0,0.0,0.0
2052,53.0,0.0,40.0,1.0,0.0
2053,61.0,5.0,40.0,1.0,0.0
2054,82.0,24.0,20.0,0.0,0.0
2055,80.0,24.0,20.0,0.0,0.0
2056,82.0,24.0,20.0,0.0,0.0
2057,56.0,5.0,40.0,1.0,0.0
2058,63.0,0.0,40.0,1.0,0.0
2059,80.0,19.0,20.0,0.0,0.0
2060,82.0,24.0,20.0,0.0,0.0
2061,80.0,24.0,20.0,0.0,0.0
2062,82.0,24.0,20.0,0.0,0.0
2063,63.0,5.0,40.0,1.0,0.0
2064,56.0,0.0,40.0,1.0,0.0
2065,80.0,19.0,20.0,0.0,0.0
2066,82.0,21.0,20.0,0.0,0.0
2067,80.0,24.0,20.0,0.0,0.0
2068,79.0,27.0,20.0,0.0,0.0
2069,61.0,0.0,180.0,1.0,0.0
2070,65.0,20.0,180.0,1.0,0.0
2071,80.0,24.0,20.0,0.0,0.0
2072,82.0,24.0,20.0,0.0,0.0
2073,84.0,24.0,20.0,0.0,0.0
2074,85.0,24.0,20.0,0.0,0.0
2075,84.0,24.0,20.0,0.0,0.0
2076,82.0,24.0,20.0,0.0,0.0
2077,80.0,4.0,20.0,0.0,0.0
2078,78.0,24.0,20.0,0.0,0.0
2079,77.0,24.0,20.0,0.0,0.0
2080,51.0,20.0,180.0,1.0,0.0
2081,44.0,0.0,180.0,1.0,0.0
2082,75.0,24.0,20.0,0.0,0.0
2083,73.0,24.0,20.0,0.0,0.0
2084,72.0,24.0,20.0,0.0,0.0
2085,70.0,24.0,20.0,0.0,0.0
2086,68.0,24.0,20.0,0.0,0.0
2087,66.0,4.0,20.0,0.0,0.0
2088,65.0,24.0,20.0,0.0,0.0
2089,44.0,17.0,180.0,1.0,0.0
2090,63.0,24.0,20.0,0.0,0.0
2091,48.0,0.0,180.0,1.0,0.0
2092,61.0,24.0,20.0,0.0,0.0
2093,60.0,24.0,20.0,0.0,0.0
2094,58.0,24.0,20.0,0.0,0.0
2095,56.0,24.0,20.0,0.0,0.0
2096,54.0,24.0,20.0,0.0,0.0
2097,53.0,4.0,20.0,0.0,0.0
2098,51.0,27.0,20.0,0.0,0.0
2099,65.0,20.0,180.0,0.0,0.0
2100,68.0,0.0,180.0,0.0,0.0
2101,49.0,24.0,20.0,1.0,0.0
2102,51.0,24.0,20.0,1.0,0.0
2103,49.0,24.0,20.0,1.0,0.0
2104,51.0,24.0,20.0,1.0,0.0
2105,49.0,24.0,20.0,1.0,0.0
2106,51.0,24.0,20.0,1.0,0.0
2107,49.0,4.0,20.0,1.0,0.0
2108,51.0,24.0,20.0,1.0,0.0
2109,68.0,0.0,270.0,0.0,0.0
2110,65.0,5.0,270.0,0.0,0.0
2111,49.0,24.0,20.0,1.0,0.0
2112,51.0,24.0,20.0,1.0,0.0
2113,49.0,24.0,20.0,1.0,0.0
2114,51.0,24.0,20.0,1.0,0.0
2115,49.0,24.0,20.0,1.0,0.0
2116,51.0,24.0,20.0,1.0,0.0
2117,49.0,24.0,20.0,1.0,0.0
2118,51.0,24.0,20.0,1.0,0.0
2119,49.0,24.0,20.0,1.0,0.0
2120,51.0,19.0,20.0,1.0,0.0
2121,49.0,24.0,20.0,1.0,0.0
2122,51.0,24.0,20.0,1.0,0.0
2123,70.0,10.0,90.0,0.0,0.0
2124,49.0,24.0,20.0,1.0,0.0
2125,66.0,0.0,90.0,0.0,0.0
2126,51.0,24.0,20.0,1.0,0.0
2127,49.0,14.0,20.0,1.0,0.0
2128,51.0,24.0,20.0,1.0,0.0
2129,65.0,5.0,270.0,0.0,0.0
2130,68.0,0.0,270.0,0.0,0.0
2131,49.0,24.0,20.0,1.0,0.0
2132,51.0,24.0,20.0,1.0,0.0
2133,49.0,24.0,20.0,1.0,0.0
2134,51.0,24.0,20.0,1.0,0.0
2135,49.0,24.0,20.0,1.0,0.0
2136,51.0,24.0,20.0,1.0,0.0
2137,49.0,24.0,20.0,1.0,0.0
2138,51.0,24.0,20.0,1.0,0.0
2139,49.0,24.0,20.0,1.0,0.0
2140,51.0,19.0,20.0,1.0,0.0
2141,49.0,24.0,20.0,1.0,0.0
2142,51.0,24.0,20.0,1.0,0.0
2143,66.0,10.0,90.0,0.0,0.0
2144,63.0,0.0,90.0,0.0,0.0
2145,49.0,24.0,20.0,1.0,0.0
2146,51.0,24.0,20.0,1.0,0.0
2147,49.0,14.0,20.0,1.0,0.0
2148,51.0,24.0,20.0,1.0,0.0
2149,65.0,20.0,180.0,0.0,0.0
2150,61.0,0.0,180.0,0.0,0.0
2151,49.0,24.0,20.0,1.0,0.0
2152,51.0,24.0,20.0,1.0,0.0
2153,49.0,24.0,20.0,1.0,0.0
2154,51.0,24.0,20.0,1.0,0.0
2155,49.0,24.0,20.0,1.0,0.0
2156,51.0,24.0,20.0,1.0,0.0
2157,49.0,4.0,20.0,1.0,0.0
2158,51.0,24.0,20.0,1.0,0.0
2159,56.0,0.0,180.0,0.0,0.0
2160,65.0,20.0,180.0,0.0,0.0
2161,49.0,24.0,20.0,1.0,0.0
2162,51.0,24.0,20.0,1.0,0.0
2163,49.0,24.0,20.0,1.0,0.0
2164,51.0,24.0,20.0,1.0,0.0
2165,49.0,24.0,20.0,1.0,0.0
2166,51.0,24.0,20.0,1.0,0.0
2167,49.0,4.0,20.0,1.0,0.0
2168,51.0,24.0,20.0,1.0,0.0
2169,49.0,24.0,20.0,1.0,0.0
2170,65.0,0.0,270.0,0.0,0.0
2171,56.0,5.0,270.0,0.0,0.0
2172,51.0,24.0,20.0,1.0,0.0
2173,49.0,24.0,20.0,1.0,0.0
2174,51.0,24.0,20.0,1.0,0.0
2175,49.0,24.0,20.0,1.0,0.0
2176,51.0,24.0,20.0,1.0,0.0
2177,49.0,24.0,20.0,1.0,0.0
2178,51.0,24.0,20.0,1.0,0.0
2179,49.0,24.0,20.0,1.0,0.0
2180,51.0,19.0,20.0,1.0,0.0
2181,49.0,24.0,20.0,1.0,0.0
2182,51.0,24.0,20.0,1.0,0.0
2183,66.0,10.0,90.0,0.0,0.0
2184,58.0,0.0,90.0,0.0,0.0
2185,49.0,24.0,20.0,1.0,0.0
2186,51.0,24.0,20.0,1.0,0.0
2187,49.0,14.0,20.0,1.0,0.0
2188,51.0,24.0,20.0,1.0,0.0
2189,49.0,24.0,20.0,1.0,0.0
2190,65.0,5.0,270.0,0.0,0.0
2191,56.0,0.0,270.0,0.0,0.0
2192,51.0,24.0,20.0,1.0,0.0
2193,49.0,24.0,20.0,1.0,0.0
2194,51.0,24.0,20.0,1.0,0.0
2195,49.0,24.0,20.0,1.0,0.0
2196,51.0,24.0,20.0,1.0,0.0
2197,49.0,24.0,20.0,1.0,0.0
2198,51.0,24.0,20.0,1.0,0.0
2199,49.0,24.0,20.0,1.0,0.0
2200,51.0,19.0,20.0,1.0,0.0
2201,49.0,24.0,20.0,1.0,0.0
2202,51.0,24.0,20.0,1.0,0.0
2203,49.0,24.0,20.0,1.0,0.0
2204,54.0,10.0,90.0,0.0,0.0
2205,63.0,0.0,90.0,0.0,0.0
2206,51.0,24.0,20.0,1.0,0.0
2207,49.0,14.0,20.0,1.0,0.0
2208,51.0,24.0,20.0,1.0,0.0
2209,49.0,24.0,20.0,1.0,0.0
2210,61.0,0.0,180.0,0.0,0.0
2211,53.0,20.0,180.0,0.0,0.0
2212,51.0,24.0,20.0,1.0,0.0
2213,49.0,24.0,20.0,1.0,0.0
2214,51.0,24.0,20.0,1.0,0.0
2215,49.0,24.0,20.0,1.0,0.0
2216,51.0,24.0,20.0,1.0,0.0
2217,49.0,4.0,20.0,1.0,0.0
2218,51.0,24.0,20.0,1.0,0.0
2219,44.0,24.0,20.0,1.0,0.0
2220,63.0,0.0,180.0,0.0,0.0
2221,56.0,20.0,180.0,0.0,0.0
2222,60.0,0.0,180.0,0.0,0.0
2223,46.0,24.0,20.0,1.0,0.0
2224,44.0,24.0,20.0,1.0,0.0
2225,46.0,24.0,20.0,1.0,0.0
2226,44.0,24.0,20.0,1.0,0.0
2227,46.0,24.0,20.0,1.0,0.0
2228,44.0,4.0,20.0,1.0,0.0
2229,46.0,24.0,20.0,1.0,0.0
2230,63.0,0.0,180.0,0.0,0.0
2231,44.0,24.0,20.0,1.0,0.0
2232,56.0,0.0,180.0,0.0,0.0
2233,60.0,20.0,180.0,0.0,0.0
2234,46.0,24.0,20.0,1.0,0.0
2235,44.0,24.0,20.0,1.0,0.0
2236,46.0,24.0,20.0,1.0,0.0
2237,44.0,24.0,20.0,1.0,0.0
2238,46.0,24.0,20.0,1.0,0.0
2239,44.0,4.0,20.0,1.0,0.0
2240,46.0,24.0,20.0,1.0,0.0
2241,44.0,24.0,20.0,1.0,0.0
2242,64.0,20.0,180.0,0.0,0.0
2243,60.0,0.0,180.0,0.0,0.0
2244,56.0,0.0,180.0,0.0,0.0
2245,46.0,24.0,20.0,1.0,0.0
2246,44.0,24.0,20.0,1.0,0.0
2247,46.0,24.0,20.0,1.0,0.0
2248,44.0,24.0,20.0,1.0,0.0
2249,46.0,24.0,20.0,1.0,0.0
2250,44.0,4.0,20.0,1.0,0.0
2251,46.0,24.0,20.0,1.0,0.0
2252,44.0,24.0,20.0,1.0,0.0
2253,61.0,24.0,300.0,0.0,0.0
2254,65.0,0.0,300.0,0.0,0.0
2255,46.0,24.0,20.0,1.0,0.0
2256,44.0,24.0,20.0,1.0,0.0
2257,46.0,24.0,20.0,1.0,0.0
2258,44.0,24.0,20.0,1.0,0.0
2259,46.0,24.0,20.0,1.0,0.0
2260,44.0,24.0,20.0,1.0,0.0
2261,46.0,24.0,20.0,1.0,0.0
2262,44.0,24.0,20.0,1.0,0.0
2263,46.0,24.0,20.0,1.0,0.0
2264,44.0,24.0,20.0,1.0,0.0
2265,46.0,0.0,20.0,1.0,0.0
2266,60.0,0.0,90.0,0.0,0.0
2267,44.0,24.0,20.0,1.0,0.0
2268,64.0,0.0,90.0,0.0,0.0
2269,46.0,24.0,20.0,1.0,0.0
2270,44.0,24.0,20.0,1.0,0.0
2271,46.0,24.0,20.0,1.0,0.0
2272,44.0,24.0,20.0,1.0,0.0
2273,61.0,20.0,180.0,0.0,0.0
2274,65.0,0.0,180.0,0.0,0.0
2275,46.0,24.0,20.0,1.0,0.0
2276,44.0,24.0,20.0,1.0,0.0
2277,46.0,24.0,20.0,1.0,0.0
2278,44.0,24.0,20.0,1.0,0.0
2279,46.0,24.0,20.0,1.0,0.0
2280,44.0,4.0,20.0,1.0,0.0
2281,46.0,24.0,20.0,1.0,0.0
2282,56.0,20.0,180.0,0.0,0.0
2283,65.0,0.0,180.0,0.0,0.0
2284,61.0,0.0,180.0,0.0,0.0
2285,44.0,24.0,20.0,1.0,0.0
2286,46.0,24.0,20.0,1.0,0.0
2287,44.0,24.0,20.0,1.0,0.0
2288,46.0,24.0,20.0,1.0,0.0
2289,44.0,24.0,20.0,1.0,0.0
2290,46.0,24.0,20.0,1.0,0.0
2291,44.0,4.0,20.0,1.0,0.0
2292,46.0,24.0,20.0,1.0,0.0
2293,44.0,24.0,20.0,1.0,0.0
2294,56.0,20.0,180.0,0.0,0.0
2295,61.0,0.0,180.0,0.0,0.0
2296,65.0,0.0,180.0,0.0,0.0
2297,46.0,24.0,20.0,1.0,0.0
2298,44.0,24.0,20.0,1.0,0.0
2299,46.0,24.0,20.0,1.0,0.0
2300,44.0,24.0,20.0,1.0,0.0
2301,46.0,24.0,20.0,1.0,0.0
2302,44.0,4.0,20.0,1.0,0.0
2303,46.0,24.0,20.0,1.0,0.0
2304,44.0,24.0,20.0,1.0,0.0
2305,56.0,20.0,180.0,0.0,0.0
2306,62.0,0.0,180.0,0.0,0.0
2307,65.0,0.0,180.0,0.0,0.0
2308,46.0,24.0,20.0,1.0,0.0
2309,44.0,24.0,20.0,1.0,0.0
2310,46.0,24.0,20.0,1.0,0.0
2311,44.0,24.0,20.0,1.0,0.0
2312,46.0,24.0,20.0,1.0,0.0
2313,44.0,4.0,20.0,1.0,0.0
2314,46.0,24.0,20.0,1.0,0.0
2315,66.0,0.0,300.0,0.0,0.0
2316,63.0,0.0,300.0,0.0,0.0
2317,44.0,24.0,20.0,1.0,0.0
2318,46.0,24.0,20.0,1.0,0.0
2319,44.0,24.0,20.0,1.0,0.0
2320,46.0,24.0,20.0,1.0,0.0
2321,44.0,24.0,20.0,1.0,0.0
2322,46.0,24.0,20.0,1.0,0.0
2323,44.0,24.0,20.0,1.0,0.0
2324,46.0,24.0,20.0,1.0,0.0
2325,44.0,24.0,20.0,1.0,0.0
2326,46.0,24.0,20.0,1.0,0.0
2327,44.0,24.0,20.0,1.0,0.0
2328,46.0,24.0,20.0,1.0,0.0
2329,65.0,0.0,90.0,0.0,0.0
2330,62.0,24.0,90.0,0.0,0.0
2331,44.0,24.0,20.0,1.0,0.0
2332,46.0,24.0,20.0,1.0,0.0
2333,44.0,24.0,20.0,1.0,0.0
2334,46.0,0.0,20.0,1.0,0.0
2335,66.0,0.0,180.0,0.0,0.0
2336,63.0,20.0,180.0,0.0,0.0
2337,44.0,24.0,20.0,1.0,0.0
2338,46.0,24.0,20.0,1.0,0.0
2339,44.0,24.0,20.0,1.0,0.0
2340,46.0,48.0,20.0,1.0,0.0
2341,43.0,28.0,40.0,1.0,0.0
2342,44.0,24.0,40.0,1.0,0.0
2343,61.0,15.0,180.0,0.0,0.0
2344,65.0,24.0,150.0,0.0,0.0
2345,37.0,24.0,20.0,1.0,0.0
2346,39.0,24.0,20.0,1.0,0.0
2347,37.0,24.0,20.0,1.0,0.0
2348,39.0,24.0,20.0,1.0,0.0
2349,37.0,24.0,20.0,1.0,0.0
2350,39.0,0.0,20.0,1.0,0.0
2351,37.0,4.0,20.0,1.0,0.0
2352,68.0,5.0,40.0,0.0,0.0
2353,39.0,24.0,20.0,1.0,0.0
2354,37.0,19.0,20.0,1.0,0.0
2355,61.0,0.0,40.0,0.0,0.0
2356,53.0,5.0,40.0,0.0,0.0
2357,39.0,24.0,20.0,1.0,0.0
2358,37.0,24.0,20.0,1.0,0.0
2359,39.0,24.0,20.0,1.0,0.0
2360,37.0,19.0,20.0,1.0,0.0
2361,61.0,0.0,40.0,0.0,0.0
2362,53.0,5.0,40.0,0.0,0.0
2363,39.0,24.0,20.0,1.0,0.0
2364,37.0,24.0,20.0,1.0,0.0
2365,39.0,24.0,20.0,1.0,0.0
2366,37.0,19.0,20.0,1.0,0.0
2367,56.0,5.0,40.0,0.0,0.0
2368,63.0,0.0,40.0,0.0,0.0
2369,39.0,24.0,20.0,1.0,0.0
2370,37.0,24.0,20.0,1.0,0.0
2371,39.0,24.0,20.0,1.0,0.0
2372,56.0,0.0,40.0,0.0,0.0
2373,37.0,19.0,20.0,1.0,0.0
2374,63.0,5.0,40.0,0.0,0.0
2375,39.0,24.0,20.0,1.0,0.0
2376,37.0,24.0,20.0,1.0,0.0
2377,39.0,24.0,20.0,1.0,0.0
2378,65.0,0.0,150.0,0.0,0.0
2379,61.0,15.0,180.0,0.0,0.0
2380,37.0,24.0,20.0,1.0,0.0
2381,39.0,24.0,20.0,1.0,0.0
2382,37.0,24.0,20.0,1.0,0.0
2383,39.0,24.0,20.0,1.0,0.0
2384,37.0,24.0,20.0,1.0,0.0
2385,39.0,24.0,20.0,1.0,0.0
2386,37.0,4.0,20.0,1.0,0.0
2387,68.0,5.0,40.0,0.0,0.0
2388,39.0,24.0,20.0,1.0,0.0
2389,37.0,19.0,20.0,1.0,0.0
2390,61.0,0.0,40.0,0.0,0.0
2391,53.0,5.0,40.0,0.0,0.0
2392,39.0,24.0,20.0,1.0,0.0
2393,37.0,24.0,20.0,1.0,0.0
2394,39.0,24.0,20.0,1.0,0.0
2395,53.0,5.0,40.0,0.0,0.0
2396,37.0,19.0,20.0,1.0,0.0
2397,61.0,0.0,40.0,0.0,0.0
2398,39.0,24.0,20.0,1.0,0.0
2399,37.0,24.0,20.0,1.0,0.0
2400,39.0,24.0,20.0,1.0,0.0
2401,37.0,19.0,20.0,1.0,0.0
2402,56.0,0.0,40.0,0.0,0.0
2403,63.0,5.0,40.0,0.0,0.0
2404,39.0,24.0,20.0,1.0,0.0
2405,37.0,24.0,20.0,1.0,0.0
2406,39.0,24.0,20.0,1.0,0.0
2407,37.0,19.0,20.0,1.0,0.0
2408,63.0,5.0,40.0,0.0,0.0
2409,56.0,0.0,40.0,0.0,0.0
2410,39.0,24.0,20.0,1.0,0.0
2411,37.0,24.0,20.0,1.0,0.0
2412,39.0,24.0,20.0,1.0,0.0
2413,38.0,24.0,20.0,1.0,0.0
2414,59.0,15.0,180.0,0.0,0.0
2415,65.0,0.0,150.0,0.0,0.0
2416,39.0,24.0,20.0,1.0,0.0
2417,38.0,24.0,20.0,1.0,0.0
2418,39.0,24.0,20.0,1.0,0.0
2419,38.0,24.0,20.0,1.0,0.0
2420,39.0,24.0,20.0,1.0,0.0
2421,38.0,4.0,20.0,1.0,0.0
2422,68.0,5.0,40.0,0.0,0.0
2423,58.0,0.0,360.0,0.0,0.0
2424,67.0,39.0,360.0,0.0,0.0
2425,39.0,24.0,15.0,1.0,0.0
2426,41.0,24.0,20.0,1.0,0.0
2427,39.0,24.0,20.0,1.0,0.0
2428,41.0,24.0,20.0,1.0,0.0
2429,39.0,24.0,20.0,1.0,0.0
2430,41.0,24.0,20.0,1.0,0.0
2431,39.0,24.0,20.0,1.0,0.0
2432,41.0,24.0,20.0,1.0,0.0
2433,39.0,24.0,20.0,1.0,0.0
2434,41.0,24.0,20.0,1.0,0.0
2435,39.0,24.0,20.0,1.0,0.0
2436,41.0,48.0,20.0,1.0,0.0
2437,38.0,9.0,40.0,1.0,0.0
2438,39.0,24.0,40.0,1.0,0.0
2439,36.0,24.0,20.0,1.0,0.0
2440,57.0,15.0,180.0,0.0,0.0
2441,63.0,24.0,150.0,0.0,0.0
2442,37.0,24.0,20.0,1.0,0.0
2443,36.0,24.0,20.0,1.0,0.0
2444,37.0,24.0,20.0,1.0,0.0
2445,36.0,24.0,20.0,1.0,0.0
2446,37.0,0.0,20.0,1.0,0.0
2447,36.0,4.0,20.0,1.0,0.0
2448,66.0,5.0,40.0,0.0,0.0
2449,37.0,24.0,20.0,1.0,0.0
2450,65.0,39.0,360.0,0.0,0.0
2451,56.0,0.0,360.0,0.0,0.0
2452,37.0,24.0,20.0,1.0,0.0
2453,39.0,24.0,20.0,1.0,0.0
2454,37.0,24.0,20.0,1.0,0.0
2455,39.0,24.0,20.0,1.0,0.0
2456,37.0,24.0,20.0,1.0,0.0
2457,39.0,24.0,20.0,1.0,0.0
2458,37.0,24.0,20.0,1.0,0.0
2459,39.0,24.0,20.0,1.0,0.0
2460,37.0,24.0,20.0,1.0,0.0
2461,39.0,24.0,20.0,1.0,0.0
2462,37.0,24.0,20.0,1.0,0.0
2463,39.0,48.0,20.0,1.0,0.0
2464,36.0,9.0,40.0,1.0,0.0
2465,37.0,384.0,40.0,1.0,0.0
2466,31.0,192.0,390.0,1.0,0.0
2467,34.0,192.0,180.0,1.0,0.0
2468,37.0,96.0,180.0,1.0,0.0
2469,40.0,96.0,90.0,1.0,0.0
2470,43.0,96.0,90.0,1.0,0.0
2471,46.0,96.0,90.0,1.0,0.0
2472,49.0,48.0,90.0,1.0,0.0
2473,52.0,48.0,40.0,1.0,0.0
2474,55.0,48.0,40.0,0.0,0.0
2475,58.0,48.0,40.0,0.0,0.0
2476,61.0,48.0,40.0,0.0,0.0
2477,64.0,48.0,40.0,0.0,0.0
2478,67.0,48.0,40.0,0.0,0.0
2479,70.0,48.0,40.0,0.0,0.0
2480,73.0,48.0,40.0,0.0,0.0
2481,76.0,48.0,40.0,0.0,0.0
2482,73.0,48.0,40.0,0.0,0.0
2483,70.0,48.0,40.0,0.0,0.0
2484,67.0,48.0,40.0,0.0,0.0
2485,64.0,48.0,40.0,0.0,0.0
2486,61.0,48.0,40.0,0.0,0.0
2487,58.0,48.0,40.0,0.0,0.0
2488,55.0,48.0,40.0,1.0,0.0
2489,52.0,48.0,40.0,1.0,0.0
2490,49.0,48.0,40.0,1.0,0.0
2491,46.0,48.0,40.0,1.0,0.0
2492,43.0,345.0,40.0,1.0,0.0
2493,32.0,87.0,360.0,1.0,0.0
2494,44.0,0.0,360.0,1.0,0.0
2495,44.0,48.0,40.0,1.0,0.0
2496,48.0,48.0,40.0,1.0,0.0
2497,46.0,48.0,40.0,1.0,0.0
2498,44.0,48.0,40.0,1.0,0.0
2499,46.0,48.0,40.0,1.0,0.0
2500,48.0,48.0,40.0,1.0,0.0
2501,49.0,48.0,40.0,1.0,0.0
2502,51.0,24.0,40.0,1.0,0.0
2503,53.0,21.0,20.0,1.0,0.0
2504,54.0,24.0,20.0,0.0,0.0
2505,56.0,24.0,20.0,0.0,0.0
2506,58.0,24.0,20.0,0.0,0.0
2507,60.0,24.0,20.0,0.0,0.0
2508,61.0,24.0,20.0,0.0,0.0
2509,63.0,24.0,20.0,0.0,0.0
2510,65.0,24.0,20.0,0.0,0.0
2511,66.0,24.0,20.0,0.0,0.0
2512,68.0,24.0,20.0,0.0,0.0
2513,70.0,24.0,20.0,0.0,0.0
2514,72.0,24.0,20.0,0.0,0.0
2515,73.0,24.0,20.0,0.0,0.0
2516,75.0,24.0,20.0,0.0,0.0
2517,77.0,24.0,20.0,0.0,0.0
2518,78.0,24.0,20.0,0.0,0.0
2519,80.0,24.0,20.0,0.0,0.0
2520,82.0,24.0,20.0,0.0,0.0
2521,84.0,24.0,20.0,0.0,0.0
2522,85.0,48.0,20.0,0.0,0.0
2523,73.0,147.0,20.0,0.0,0.0
2524,78.0,16.0,150.0,0.0,0.0
2525,77.0,16.0,15.0,0.0,0.0
2526,75.0,16.0,15.0,0.0,0.0
2527,73.0,24.0,15.0,0.0,0.0
2528,75.0,24.0,20.0,0.0,0.0
2529,66.0,21.0,870.0,1.0,0.0
2530,60.0,0.0,870.0,1.0,0.0
2531,56.0,0.0,870.0,1.0,0.0
2532,77.0,21.0,20.0,0.0,0.0
2533,75.0,27.0,20.0,0.0,0.0
2534,77.0,21.0,20.0,0.0,0.0
2535,75.0,27.0,20.0,0.0,0.0
2536,77.0,21.0,20.0,0.0,0.0
2537,75.0,27.0,20.0,0.0,0.0
2538,77.0,21.0,20.0,0.0,0.0
2539,75.0,27.0,20.0,0.0,0.0
2540,77.0,21.0,20.0,0.0,0.0
2541,75.0,27.0,20.0,0.0,0.0
2542,77.0,21.0,20.0,0.0,0.0
2543,75.0,24.0,20.0,0.0,0.0
2544,77.0,24.0,20.0,0.0,0.0
2545,75.0,24.0,20.0,0.0,0.0
2546,77.0,24.0,20.0,0.0,0.0
2547,77.0,24.0,20.0,0.0,0.0
2548,78.0,24.0,20.0,0.0,0.0
2549,77.0,24.0,20.0,0.0,0.0
2550,78.0,24.0,20.0,0.0,0.0
2551,77.0,24.0,20.0,0.0,0.0
2552,78.0,24.0,20.0,0.0,0.0
2553,77.0,24.0,20.0,0.0,0.0
2554,78.0,24.0,20.0,0.0,0.0
2555,78.0,24.0,20.0,0.0,0.0
2556,80.0,24.0,20.0,0.0,0.0
2557,78.0,24.0,20.0,0.0,0.0
2558,80.0,24.0,20.0,0.0,0.0
2559,78.0,24.0,20.0,0.0,0.0
2560,80.0,24.0,20.0,0.0,0.0
2561,78.0,24.0,20.0,0.0,0.0
2562,80.0,24.0,20.0,0.0,0.0
2563,79.0,24.0,20.0,0.0,0.0
2564,80.0,24.0,20.0,0.0,0.0
2565,79.0,24.0,20.0,0.0,0.0
2566,80.0,3.0,20.0,0.0,0.0
2567,79.0,24.0,20.0,0.0,0.0
2568,80.0,24.0,20.0,0.0,0.0
2569,77.0,24.0,20.0,0.0,0.0
2570,79.0,35.0,20.0,0.0,0.0
2571,49.0,0.0,30.0,1.0,0.0
2572,80.0,32.0,30.0,0.0,0.0
2573,77.0,32.0,30.0,0.0,0.0
2574,53.0,0.0,30.0,1.0,0.0
2575,56.0,0.0,30.0,1.0,0.0
2576,73.0,32.0,30.0,0.0,0.0
2577,61.0,0.0,30.0,1.0,0.0
2578,68.0,32.0,30.0,0.0,0.0
2579,56.0,0.0,30.0,1.0,0.0
2580,73.0,32.0,30.0,0.0,0.0
2581,53.0,32.0,30.0,1.0,0.0
2582,77.0,0.0,30.0,0.0,0.0
2583,80.0,0.0,30.0,0.0,0.0
2584,49.0,32.0,30.0,1.0,0.0
2585,77.0,0.0,30.0,0.0,0.0
2586,53.0,32.0,30.0,1.0,0.0
2587,73.0,0.0,30.0,0.0,0.0
2588,56.0,32.0,30.0,1.0,0.0
2589,61.0,0.0,30.0,1.0,0.0
2590,68.0,32.0,30.0,0.0,0.0
2591,56.0,0.0,30.0,1.0,0.0
2592,73.0,32.0,30.0,0.0,0.0
2593,53.0,32.0,30.0,1.0,0.0
2594,77.0,0.0,30.0,0.0,0.0
2595,49.0,32.0,30.0,1.0,0.0
2596,80.0,0.0,30.0,0.0,0.0
2597,53.0,32.0,30.0,1.0,0.0
2598,77.0,0.0,30.0,0.0,0.0
2599,73.0,0.0,30.0,0.0,0.0
2600,56.0,32.0,30.0,1.0,0.0
2601,49.0,32.0,30.0,1.0,0.0
2602,82.0,0.0,30.0,0.0,0.0
2603,54.0,32.0,30.0,1.0,0.0
2604,78.0,0.0,30.0,0.0,0.0
2605,73.0,32.0,30.0,0.0,0.0
2606,58.0,0.0,30.0,1.0,0.0
2607,49.0,0.0,30.0,1.0,0.0
2608,80.0,32.0,30.0,0.0,0.0
2609,77.0,32.0,30.0,0.0,0.0
2610,53.0,0.0,30.0,1.0,0.0
2611,56.0,32.0,30.0,1.0,0.0
2612,73.0,0.0,30.0,0.0,0.0
2613,68.0,0.0,30.0,0.0,0.0
2614,61.0,32.0,30.0,1.0,0.0
2615,56.0,32.0,30.0,1.0,0.0
2616,73.0,0.0,30.0,0.0,0.0
2617,53.0,32.0,30.0,1.0,0.0
2618,77.0,0.0,30.0,0.0,0.0
2619,49.0,0.0,30.0,1.0,0.0
2620,80.0,32.0,30.0,0.0,0.0
2621,53.0,32.0,30.0,1.0,0.0
2622,77.0,0.0,30.0,0.0,0.0
2623,73.0,0.0,30.0,0.0,0.0
2624,56.0,32.0,30.0,1.0,0.0
2625,78.0,0.0,30.0,0.0,0.0
2626,49.0,32.0,30.0,1.0,0.0
2627,75.0,32.0,30.0,0.0,0.0
2628,51.0,0.0,30.0,1.0,0.0
2629,72.0,0.0,30.0,0.0,0.0
2630,54.0,32.0,30.0,1.0,0.0
2631,49.0,0.0,30.0,1.0,0.0
2632,77.0,32.0,30.0,0.0,0.0
2633,53.0,0.0,30.0,1.0,0.0
2634,73.0,32.0,30.0,0.0,0.0
2635,56.0,0.0,30.0,1.0,0.0
2636,68.0,32.0,30.0,0.0,0.0
2637,49.0,32.0,30.0,1.0,0.0
2638,77.0,0.0,30.0,0.0,0.0
2639,53.0,32.0,30.0,1.0,0.0
2640,73.0,0.0,30.0,0.0,0.0
2641,68.0,32.0,30.0,0.0,0.0
2642,56.0,0.0,30.0,1.0,0.0
2643,49.0,32.0,30.0,1.0,0.0
2644,77.0,0.0,30.0,0.0,0.0
2645,73.0,0.0,30.0,0.0,0.0
2646,53.0,32.0,30.0,1.0,0.0
2647,68.0,0.0,30.0,0.0,0.0
2648,56.0,32.0,30.0,1.0,0.0
2649,61.0,32.0,30.0,1.0,0.0
2650,65.0,0.0,30.0,0.0,0.0
2651,56.0,0.0,30.0,1.0,0.0
2652,68.0,32.0,30.0,0.0,0.0
2653,73.0,32.0,30.0,0.0,0.0
2654,53.0,0.0,30.0,1.0,0.0
2655,49.0,0.0,30.0,1.0,0.0
2656,77.0,32.0,30.0,0.0,0.0
2657,53.0,32.0,30.0,1.0,0.0
2658,73.0,0.0,30.0,0.0,0.0
2659,56.0,32.0,30.0,1.0,0.0
2660,68.0,0.0,30.0,0.0,0.0
2661,61.0,0.0,30.0,1.0,0.0
2662,65.0,32.0,30.0,0.0,0.0
2663,68.0,32.0,30.0,0.0,0.0
2664,56.0,0.0,30.0,1.0,0.0
2665,73.0,32.0,30.0,0.0,0.0
2666,53.0,0.0,30.0,1.0,0.0
2667,49.0,0.0,30.0,1.0,0.0
2668,77.0,32.0,30.0,0.0,0.0
2669,53.0,0.0,30.0,1.0,0.0
2670,73.0,32.0,30.0,0.0,0.0
2671,56.0,32.0,30.0,1.0,0.0
2672,68.0,0.0,30.0,0.0,0.0
2673,78.0,0.0,30.0,0.0,0.0
2674,49.0,32.0,30.0,1.0,0.0
2675,54.0,0.0,30.0,1.0,0.0
2676,73.0,32.0,30.0,0.0,0.0
2677,58.0,32.0,30.0,1.0,0.0
2678,70.0,0.0,30.0,0.0,0.0
2679,77.0,0.0,30.0,0.0,0.0
2680,49.0,32.0,30.0,1.0,0.0
2681,73.0,0.0,30.0,0.0,0.0
2682,53.0,32.0,30.0,1.0,0.0
2683,68.0,0.0,30.0,0.0,0.0
2684,56.0,32.0,30.0,1.0,0.0
2685,65.0,32.0,30.0,0.0,0.0
2686,61.0,0.0,30.0,1.0,0.0
2687,56.0,32.0,30.0,1.0,0.0
2688,68.0,0.0,30.0,0.0,0.0
2689,53.0,0.0,30.0,1.0,0.0
2690,73.0,32.0,30.0,0.0,0.0
2691,77.0,0.0,30.0,0.0,0.0
2692,49.0,32.0,30.0,1.0,0.0
2693,73.0,0.0,30.0,0.0,0.0
2694,53.0,32.0,30.0,1.0,0.0
2695,68.0,0.0,30.0,0.0,0.0
2696,56.0,32.0,30.0,1.0,0.0
2697,49.0,0.0,30.0,1.0,0.0
2698,75.0,32.0,30.0,0.0,0.0
2699,51.0,0.0,30.0,1.0,0.0
2700,72.0,32.0,30.0,0.0,0.0
2701,54.0,0.0,30.0,1.0,0.0
2702,66.0,32.0,30.0,0.0,0.0
2703,49.0,0.0,30.0,1.0,0.0
2704,73.0,32.0,30.0,0.0,0.0
2705,53.0,0.0,30.0,1.0,0.0
2706,68.0,32.0,30.0,0.0,0.0
2707,56.0,0.0,30.0,1.0,0.0
2708,65.0,32.0,30.0,0.0,0.0
2709,49.0,0.0,30.0,1.0,0.0
2710,73.0,32.0,30.0,0.0,0.0
2711,53.0,32.0,30.0,1.0,0.0
2712,68.0,0.0,30.0,0.0,0.0
2713,65.0,0.0,30.0,0.0,0.0
2714,56.0,32.0,30.0,1.0,0.0
2715,75.0,0.0,30.0,0.0,0.0
2716,44.0,32.0,30.0,1.0,0.0
2717,48.0,32.0,30.0,1.0,0.0
2718,72.0,0.0,30.0,0.0,0.0
2719,51.0,32.0,30.0,1.0,0.0
2720,68.0,0.0,30.0,0.0,0.0
2721,56.0,0.0,30.0,1.0,0.0
2722,63.0,32.0,30.0,0.0,0.0
2723,51.0,0.0,30.0,1.0,0.0
2724,68.0,32.0,30.0,0.0,0.0
2725,48.0,0.0,30.0,1.0,0.0
2726,72.0,32.0,30.0,0.0,0.0
2727,44.0,32.0,30.0,1.0,0.0
2728,75.0,0.0,30.0,0.0,0.0
2729,72.0,0.0,30.0,0.0,0.0
2730,48.0,32.0,30.0,1.0,0.0
2731,68.0,0.0,30.0,0.0,0.0
2732,51.0,32.0,30.0,1.0,0.0
2733,63.0,0.0,30.0,0.0,0.0
2734,56.0,32.0,30.0,1.0,0.0
2735,51.0,0.0,30.0,1.0,0.0
2736,68.0,32.0,30.0,0.0,0.0
2737,48.0,0.0,30.0,1.0,0.0
2738,72.0,32.0,30.0,0.0,0.0
2739,75.0,0.0,30.0,0.0,0.0
2740,44.0,32.0,30.0,1.0,0.0
2741,72.0,0.0,30.0,0.0,0.0
2742,48.0,32.0,30.0,1.0,0.0
2743,51.0,0.0,30.0,1.0,0.0
2744,68.0,32.0,30.0,0.0,0.0
2745,76.0,0.0,30.0,0.0,0.0
2746,44.0,32.0,30.0,1.0,0.0
2747,72.0,32.0,30.0,0.0,0.0
2748,48.0,0.0,30.0,1.0,0.0
2749,52.0,0.0,30.0,1.0,0.0
2750,68.0,32.0,30.0,0.0,0.0
2751,77.0,32.0,30.0,0.0,0.0
2752,44.0,0.0,30.0,1.0,0.0
2753,49.0,32.0,30.0,1.0,0.0
2754,73.0,0.0,30.0,0.0,0.0
2755,53.0,0.0,30.0,1.0,0.0
2756,68.0,32.0,30.0,0.0,0.0
2757,65.0,32.0,30.0,0.0,0.0
2758,56.0,0.0,30.0,1.0,0.0
2759,68.0,0.0,30.0,0.0,0.0
2760,53.0,32.0,30.0,1.0,0.0
2761,73.0,32.0,30.0,0.0,0.0
2762,49.0,0.0,30.0,1.0,0.0
2763,77.0,0.0,30.0,0.0,0.0
2764,44.0,32.0,30.0,1.0,0.0
2765,49.0,0.0,30.0,1.0,0.0
2766,73.0,32.0,30.0,0.0,0.0
2767,53.0,0.0,30.0,1.0,0.0
2768,68.0,32.0,30.0,0.0,0.0
2769,76.0,0.0,30.0,0.0,0.0
2770,44.0,32.0,30.0,1.0,0.0
2771,72.0,0.0,30.0,0.0,0.0
2772,48.0,32.0,30.0,1.0,0.0
2773,68.0,32.0,30.0,0.0,0.0
2774,52.0,0.0,30.0,1.0,0.0
2775,44.0,0.0,30.0,1.0,0.0
2776,77.0,32.0,30.0,0.0,0.0
2777,49.0,0.0,30.0,1.0,0.0
2778,73.0,32.0,30.0,0.0,0.0
2779,68.0,32.0,30.0,0.0,0.0
2780,53.0,0.0,30.0,1.0,0.0
2781,76.0,0.0,30.0,0.0,0.0
2782,44.0,32.0,30.0,1.0,0.0
2783,72.0,0.0,30.0,0.0,0.0
2784,48.0,32.0,30.0,1.0,0.0
2785,68.0,0.0,30.0,0.0,0.0
2786,52.0,32.0,30.0,1.0,0.0
2787,77.0,32.0,30.0,0.0,0.0
2788,44.0,0.0,30.0,1.0,0.0
2789,49.0,0.0,30.0,1.0,0.0
2790,73.0,32.0,30.0,0.0,0.0
2791,53.0,0.0,30.0,1.0,0.0
2792,68.0,32.0,30.0,0.0,0.0
2793,56.0,32.0,30.0,1.0,0.0
2794,65.0,0.0,30.0,0.0,0.0
2795,53.0,32.0,30.0,1.0,0.0
2796,68.0,0.0,30.0,0.0,0.0
2797,73.0,32.0,30.0,0.0,0.0
2798,49.0,0.0,30.0,1.0,0.0
2799,44.0,0.0,30.0,1.0,0.0
2800,77.0,32.0,30.0,0.0,0.0
2801,49.0,32.0,30.0,1.0,0.0
2802,73.0,0.0,30.0,0.0,0.0
2803,68.0,32.0,30.0,0.0,0.0
2804,53.0,0.0,30.0,1.0,0.0
2805,56.0,32.0,30.0,1.0,0.0
2806,65.0,0.0,30.0,0.0,0.0
2807,53.0,0.0,30.0,1.0,0.0
2808,68.0,32.0,30.0,0.0,0.0
2809,73.0,0.0,30.0,0.0,0.0
2810,49.0,32.0,30.0,1.0,0.0
2811,77.0,32.0,30.0,0.0,0.0
2812,44.0,0.0,30.0,1.0,0.0
2813,73.0,0.0,30.0,0.0,0.0
2814,49.0,32.0,30.0,1.0,0.0
2815,68.0,0.0,30.0,0.0,0.0
2816,53.0,32.0,30.0,1.0,0.0
2817,77.0,0.0,30.0,0.0,0.0
2818,44.0,32.0,30.0,1.0,0.0
2819,74.0,0.0,30.0,0.0,0.0
2820,50.0,32.0,30.0,1.0,0.0
2821,68.0,0.0,30.0,0.0,0.0
2822,53.0,32.0,30.0,1.0,0.0
2823,78.0,0.0,30.0,0.0,0.0
2824,44.0,32.0,30.0,1.0,0.0
2825,75.0,0.0,30.0,0.0,0.0
2826,51.0,32.0,30.0,1.0,0.0
2827,72.0,0.0,30.0,0.0,0.0
2828,54.0,32.0,30.0,1.0,0.0
2829,68.0,0.0,30.0,0.0,0.0
2830,56.0,32.0,30.0,1.0,0.0
2831,72.0,0.0,30.0,0.0,0.0
2832,54.0,32.0,30.0,1.0,0.0
2833,75.0,0.0,30.0,0.0,0.0
2834,51.0,32.0,30.0,1.0,0.0
2835,78.0,0.0,30.0,0.0,0.0
2836,44.0,32.0,30.0,1.0,0.0
2837,75.0,0.0,30.0,0.0,0.0
2838,51.0,32.0,30.0,1.0,0.0
2839,68.0,0.0,30.0,0.0,0.0
2840,54.0,32.0,30.0,1.0,0.0
2841,77.0,0.0,30.0,0.0,0.0
2842,44.0,32.0,30.0,1.0,0.0
2843,74.0,0.0,30.0,0.0,0.0
2844,50.0,32.0,30.0,1.0,0.0
2845,68.0,32.0,30.0,0.0,0.0
2846,53.0,0.0,30.0,1.0,0.0
2847,44.0,0.0,30.0,1.0,0.0
2848,78.0,32.0,30.0,0.0,0.0
2849,75.0,0.0,30.0,0.0,0.0
2850,51.0,32.0,30.0,1.0,0.0
2851,68.0,0.0,30.0,0.0,0.0
2852,54.0,32.0,30.0,1.0,0.0
2853,44.0,0.0,30.0,1.0,0.0
2854,75.0,32.0,30.0,0.0,0.0
2855,48.0,0.0,30.0,1.0,0.0
2856,72.0,32.0,30.0,0.0,0.0
2857,51.0,32.0,30.0,1.0,0.0
2858,68.0,0.0,30.0,0.0,0.0
2859,77.0,32.0,30.0,0.0,0.0
2860,49.0,0.0,30.0,1.0,0.0
2861,73.0,32.0,30.0,0.0,0.0
2862,53.0,0.0,30.0,1.0,0.0
2863,56.0,0.0,30.0,1.0,0.0
2864,68.0,32.0,30.0,0.0,0.0
2865,80.0,0.0,30.0,0.0,0.0
2866,44.0,32.0,30.0,1.0,0.0
2867,73.0,0.0,30.0,0.0,0.0
2868,49.0,32.0,30.0,1.0,0.0
2869,68.0,0.0,30.0,0.0,0.0
2870,53.0,32.0,30.0,1.0,0.0
2871,73.0,0.0,30.0,0.0,0.0
2872,41.0,32.0,30.0,1.0,0.0
2873,68.0,0.0,30.0,0.0,0.0
2874,44.0,32.0,30.0,1.0,0.0
2875,65.0,0.0,30.0,0.0,0.0
2876,49.0,32.0,30.0,1.0,0.0
2877,41.0,0.0,30.0,1.0,0.0
2878,74.0,32.0,30.0,0.0,0.0
2879,44.0,0.0,30.0,1.0,0.0
2880,68.0,32.0,30.0,0.0,0.0
2881,50.0,32.0,30.0,1.0,0.0
2882,65.0,0.0,30.0,0.0,0.0
2883,75.0,0.0,30.0,0.0,0.0
2884,44.0,32.0,30.0,1.0,0.0
2885,72.0,0.0,30.0,0.0,0.0
2886,48.0,32.0,30.0,1.0,0.0
2887,51.0,32.0,30.0,1.0,0.0
2888,68.0,0.0,30.0,0.0,0.0
2889,44.0,0.0,30.0,1.0,0.0
2890,76.0,32.0,30.0,0.0,0.0
2891,48.0,32.0,30.0,1.0,0.0
2892,72.0,0.0,30.0,0.0,0.0
2893,68.0,0.0,30.0,0.0,0.0
2894,52.0,32.0,30.0,1.0,0.0
2895,77.0,32.0,30.0,0.0,0.0
2896,49.0,0.0,30.0,1.0,0.0
2897,73.0,0.0,30.0,0.0,0.0
2898,53.0,32.0,30.0,1.0,0.0
2899,56.0,32.0,30.0,1.0,0.0
2900,68.0,0.0,30.0,0.0,0.0
2901,80.0,32.0,30.0,0.0,0.0
2902,44.0,0.0,30.0,1.0,0.0
2903,49.0,32.0,30.0,1.0,0.0
2904,73.0,0.0,30.0,0.0,0.0
2905,53.0,32.0,30.0,1.0,0.0
2906,68.0,0.0,30.0,0.0,0.0
2907,41.0,0.0,30.0,1.0,0.0
2908,73.0,32.0,30.0,0.0,0.0
2909,68.0,0.0,30.0,0.0,0.0
2910,44.0,32.0,30.0,1.0,0.0
2911,65.0,32.0,30.0,0.0,0.0
2912,49.0,0.0,30.0,1.0,0.0
2913,41.0,32.0,30.0,1.0,0.0
2914,74.0,0.0,30.0,0.0,0.0
2915,68.0,0.0,30.0,0.0,0.0
2916,44.0,32.0,30.0,1.0,0.0
2917,65.0,0.0,30.0,0.0,0.0
2918,50.0,32.0,30.0,1.0,0.0
2919,75.0,0.0,30.0,0.0,0.0
2920,44.0,32.0,30.0,1.0,0.0
2921,72.0,0.0,30.0,0.0,0.0
2922,48.0,32.0,30.0,1.0,0.0
2923,51.0,32.0,30.0,1.0,0.0
2924,68.0,0.0,30.0,0.0,0.0
2925,76.0,0.0,30.0,0.0,0.0
2926,44.0,32.0,30.0,1.0,0.0
2927,72.0,0.0,30.0,0.0,0.0
2928,48.0,32.0,30.0,1.0,0.0
2929,52.0,0.0,30.0,1.0,0.0
2930,68.0,32.0,30.0,0.0,0.0
2931,49.0,32.0,30.0,1.0,0.0
2932,77.0,0.0,30.0,0.0,0.0
2933,73.0,32.0,30.0,0.0,0.0
2934,53.0,0.0,30.0,1.0,0.0
2935,56.0,0.0,30.0,1.0,0.0
2936,68.0,32.0,30.0,0.0,0.0
2937,73.0,32.0,30.0,0.0,0.0
2938,41.0,0.0,30.0,1.0,0.0
2939,68.0,0.0,30.0,0.0,0.0
2940,44.0,32.0,30.0,1.0,0.0
2941,49.0,0.0,30.0,1.0,0.0
2942,65.0,32.0,30.0,0.0,0.0
2943,42.0,32.0,30.0,1.0,0.0
2944,70.0,0.0,30.0,0.0,0.0
2945,46.0,0.0,30.0,1.0,0.0
2946,66.0,32.0,30.0,0.0,0.0
2947,51.0,0.0,30.0,1.0,0.0
2948,63.0,32.0,30.0,0.0,0.0
2949,66.0,0.0,30.0,0.0,0.0
2950,39.0,32.0,30.0,1.0,0.0
2951,63.0,0.0,30.0,0.0,0.0
2952,42.0,32.0,30.0,1.0,0.0
2953,60.0,0.0,30.0,0.0,0.0
2954,46.0,32.0,30.0,1.0,0.0
2955,63.0,0.0,30.0,0.0,0.0
2956,44.0,32.0,30.0,1.0,0.0
2957,48.0,32.0,30.0,1.0,0.0
2958,60.0,0.0,30.0,0.0,0.0
2959,54.0,0.0,30.0,0.0,0.0
2960,51.0,32.0,30.0,1.0,0.0
2961,60.0,32.0,30.0,0.0,0.0
2962,32.0,0.0,30.0,1.0,0.0
2963,39.0,32.0,30.0,1.0,0.0
2964,54.0,0.0,30.0,0.0,0.0
2965,51.0,0.0,30.0,0.0,0.0
2966,44.0,32.0,30.0,1.0,0.0
2967,65.0,0.0,30.0,0.0,0.0
2968,37.0,32.0,30.0,1.0,0.0
2969,41.0,32.0,30.0,1.0,0.0
2970,61.0,0.0,30.0,0.0,0.0
2971,56.0,32.0,30.0,0.0,0.0
2972,44.0,0.0,30.0,1.0,0.0
2973,32.0,0.0,30.0,1.0,0.0
2974,68.0,32.0,30.0,0.0,0.0
2975,37.0,0.0,30.0,1.0,0.0
2976,61.0,32.0,30.0,0.0,0.0
2977,41.0,32.0,30.0,1.0,0.0
2978,56.0,0.0,30.0,0.0,0.0
2979,61.0,0.0,30.0,0.0,0.0
2980,29.0,32.0,30.0,1.0,0.0
2981,56.0,0.0,30.0,0.0,0.0
2982,32.0,32.0,30.0,1.0,0.0
2983,37.0,0.0,30.0,1.0,0.0
2984,53.0,32.0,30.0,0.0,0.0
2985,29.0,0.0,30.0,1.0,0.0
2986,62.0,32.0,30.0,0.0,0.0
2987,32.0,0.0,30.0,1.0,0.0
2988,56.0,32.0,30.0,0.0,0.0
2989,38.0,32.0,30.0,1.0,0.0
2990,53.0,0.0,30.0,0.0,0.0
2991,63.0,32.0,30.0,0.0,0.0
2992,32.0,0.0,30.0,1.0,0.0
2993,60.0,32.0,30.0,0.0,0.0
2994,36.0,0.0,30.0,1.0,0.0
2995,39.0,32.0,30.0,1.0,0.0
2996,56.0,0.0,30.0,0.0,0.0
2997,64.0,32.0,30.0,0.0,0.0
2998,32.0,0.0,30.0,1.0,0.0
2999,36.0,32.0,30.0,1.0,0.0
3000,60.0,0.0,30.0,0.0,0.0
3001,40.0,32.0,30.0,1.0,0.0
3002,56.0,0.0,30.0,0.0,0.0
3003,37.0,0.0,30.0,1.0,0.0
3004,65.0,32.0,30.0,0.0,0.0
3005,41.0,32.0,30.0,1.0,0.0
3006,61.0,0.0,30.0,0.0,0.0
3007,44.0,32.0,30.0,1.0,0.0
3008,56.0,0.0,30.0,0.0,0.0
3009,32.0,32.0,30.0,1.0,0.0
3010,68.0,0.0,30.0,0.0,0.0
3011,61.0,32.0,30.0,0.0,0.0
3012,37.0,0.0,30.0,1.0,0.0
3013,56.0,0.0,30.0,0.0,0.0
3014,41.0,32.0,30.0,1.0,0.0
3015,61.0,0.0,30.0,0.0,0.0
3016,29.0,32.0,30.0,1.0,0.0
3017,56.0,32.0,30.0,0.0,0.0
3018,32.0,0.0,30.0,1.0,0.0
3019,53.0,0.0,30.0,0.0,0.0
3020,37.0,32.0,30.0,1.0,0.0
3021,62.0,0.0,30.0,0.0,0.0
3022,29.0,32.0,30.0,1.0,0.0
3023,56.0,0.0,30.0,0.0,0.0
3024,32.0,32.0,30.0,1.0,0.0
3025,38.0,32.0,30.0,1.0,0.0
3026,53.0,0.0,30.0,0.0,0.0
3027,32.0,0.0,30.0,1.0,0.0
3028,63.0,32.0,30.0,0.0,0.0
3029,60.0,32.0,30.0,0.0,0.0
3030,36.0,0.0,30.0,1.0,0.0
3031,39.0,0.0,30.0,1.0,0.0
3032,56.0,32.0,30.0,0.0,0.0
3033,64.0,32.0,30.0,0.0,0.0
3034,32.0,0.0,30.0,1.0,0.0
3035,36.0,32.0,30.0,1.0,0.0
3036,60.0,0.0,30.0,0.0,0.0
3037,40.0,0.0,30.0,1.0,0.0
3038,56.0,32.0,30.0,0.0,0.0
3039,37.0,0.0,30.0,1.0,0.0
3040,65.0,32.0,30.0,0.0,0.0
3041,61.0,32.0,30.0,0.0,0.0
3042,41.0,0.0,30.0,1.0,0.0
3043,44.0,0.0,30.0,1.0,0.0
3044,56.0,32.0,30.0,0.0,0.0
3045,35.0,32.0,30.0,1.0,0.0
3046,65.0,0.0,30.0,0.0,0.0
3047,61.0,32.0,30.0,0.0,0.0
3048,37.0,0.0,30.0,1.0,0.0
3049,44.0,0.0,30.0,1.0,0.0
3050,56.0,32.0,30.0,0.0,0.0
3051,66.0,32.0,30.0,0.0,0.0
3052,34.0,0.0,30.0,1.0,0.0
3053,37.0,32.0,30.0,1.0,0.0
3054,61.0,0.0,30.0,0.0,0.0
3055,42.0,0.0,30.0,1.0,0.0
3056,58.0,32.0,30.0,0.0,0.0
3057,33.0,32.0,30.0,1.0,0.0
3058,67.0,0.0,30.0,0.0,0.0
3059,61.0,0.0,30.0,0.0,0.0
3060,37.0,32.0,30.0,1.0,0.0
3061,55.0,0.0,30.0,0.0,0.0
3062,43.0,32.0,30.0,1.0,0.0
3063,68.0,0.0,30.0,0.0,0.0
3064,32.0,32.0,30.0,1.0,0.0
3065,36.0,32.0,30.0,1.0,0.0
3066,60.0,0.0,30.0,0.0,0.0
3067,44.0,0.0,30.0,1.0,0.0
3068,56.0,32.0,30.0,0.0,0.0
3069,69.0,32.0,30.0,0.0,0.0
3070,41.0,0.0,30.0,1.0,0.0
3071,48.0,0.0,30.0,1.0,0.0
3072,63.0,32.0,30.0,0.0,0.0
3073,51.0,0.0,30.0,1.0,0.0
3074,60.0,32.0,30.0,0.0,0.0
3075,42.0,0.0,30.0,1.0,0.0
3076,70.0,32.0,30.0,0.0,0.0
3077,46.0,0.0,30.0,1.0,0.0
3078,61.0,32.0,30.0,0.0,0.0
3079,49.0,32.0,30.0,1.0,0.0
3080,58.0,0.0,30.0,0.0,0.0
3081,72.0,0.0,30.0,0.0,0.0
3082,39.0,32.0,30.0,1.0,0.0
3083,42.0,0.0,30.0,1.0,0.0
3084,66.0,32.0,30.0,0.0,0.0
3085,48.0,32.0,30.0,1.0,0.0
3086,63.0,0.0,30.0,0.0,0.0
3087,41.0,32.0,30.0,1.0,0.0
3088,73.0,0.0,30.0,0.0,0.0
3089,68.0,32.0,30.0,0.0,0.0
3090,44.0,0.0,30.0,1.0,0.0
3091,49.0,0.0,30.0,1.0,0.0
3092,61.0,32.0,30.0,0.0,0.0
3093,74.0,0.0,30.0,0.0,0.0
3094,41.0,32.0,30.0,1.0,0.0
3095,68.0,0.0,30.0,0.0,0.0
3096,44.0,32.0,30.0,1.0,0.0
3097,65.0,32.0,30.0,0.0,0.0
3098,47.0,0.0,30.0,1.0,0.0
3099,75.0,32.0,30.0,0.0,0.0
3100,42.0,0.0,30.0,1.0,0.0
3101,70.0,0.0,30.0,0.0,0.0
3102,46.0,32.0,30.0,1.0,0.0
3103,66.0,0.0,30.0,0.0,0.0
3104,51.0,32.0,30.0,1.0,0.0
3105,76.0,0.0,30.0,0.0,0.0
3106,43.0,32.0,30.0,1.0,0.0
3107,73.0,0.0,30.0,0.0,0.0
3108,46.0,32.0,30.0,1.0,0.0
3109,49.0,0.0,30.0,1.0,0.0
3110,70.0,384.0,30.0,0.0,0.0
3111,32.0,0.0,390.0,1.0,0.0
3112,44.0,0.0,390.0,1.0,0.0
3113,77.0,182.0,390.0,0.0,0.0
3114,73.0,0.0,390.0,0.0,0.0
3115,68.0,0.0,390.0,0.0,0.0
3116,56.0,96.0,90.0,0.0,0.0
3117,61.0,106.0,90.0,0.0,0.0
3118,65.0,96.0,90.0,0.0,0.0
3119,68.0,96.0,90.0,0.0,0.0
3120,73.0,96.0,90.0,0.0,0.0
3121,77.0,96.0,90.0,0.0,0.0
3122,80.0,216.0,90.0,0.0,0.0
3123,85.0,24.0,210.0,0.0,0.0
3124,80.0,48.0,40.0,0.0,0.0
3125,77.0,48.0,40.0,0.0,0.0
3126,73.0,48.0,40.0,0.0,0.0
3127,80.0,48.0,40.0,0.0,0.0
3128,77.0,48.0,40.0,0.0,0.0
3129,73.0,48.0,40.0,0.0,0.0
3130,68.0,48.0,40.0,0.0,0.0
3131,77.0,48.0,40.0,0.0,0.0
3132,73.0,48.0,40.0,0.0,0.0
3133,68.0,48.0,40.0,0.0,0.0
3134,65.0,48.0,40.0,0.0,0.0
3135,73.0,48.0,40.0,0.0,0.0
3136,68.0,48.0,40.0,0.0,0.0
3137,65.0,48.0,40.0,0.0,0.0
3138,61.0,48.0,40.0,0.0,0.0
3139,68.0,48.0,40.0,0.0,0.0
3140,65.0,48.0,40.0,0.0,0.0
3141,61.0,48.0,40.0,0.0,0.0
3142,56.0,48.0,40.0,0.0,0.0
3143,65.0,48.0,40.0,0.0,0.0
3144,61.0,48.0,40.0,0.0,0.0
3145,56.0,48.0,40.0,0.0,0.0
3146,53.0,48.0,40.0,1.0,0.0
3147,61.0,48.0,40.0,1.0,0.0
3148,56.0,48.0,40.0,1.0,0.0
3149,53.0,48.0,40.0,1.0,0.0
3150,49.0,48.0,40.0,1.0,0.0
3151,56.0,48.0,40.0,1.0,0.0
3152,53.0,48.0,40.0,1.0,0.0
3153,49.0,48.0,40.0,1.0,0.0
3154,44.0,48.0,40.0,1.0,0.0
3155,53.0,48.0,40.0,1.0,0.0
3156,49.0,48.0,40.0,1.0,0.0
3157,44.0,48.0,40.0,1.0,0.0
3158,41.0,48.0,40.0,1.0,0.0
3159,49.0,48.0,40.0,1.0,0.0
3160,44.0,48.0,40.0,1.0,0.0
3161,41.0,48.0,40.0,1.0,0.0
3162,37.0,48.0,40.0,1.0,0.0
3163,44.0,48.0,40.0,1.0,0.0
3164,41.0,48.0,40.0,1.0,0.0
3165,37.0,345.0,40.0,1.0,0.0
3166,32.0,125.0,360.0,1.0,0.0
3167,32.0,58.0,90.0,1.0,0.0
3168,34.0,48.0,40.0,1.0,0.0
3169,36.0,48.0,40.0,1.0,0.0
3170,37.0,48.0,40.0,1.0,0.0
3171,39.0,48.0,40.0,1.0,0.0
3172,41.0,48.0,40.0,1.0,0.0
3173,42.0,48.0,40.0,1.0,0.0
3174,44.0,48.0,40.0,1.0,0.0
3175,37.0,48.0,40.0,1.0,0.0
3176,39.0,48.0,40.0,1.0,0.0
3177,41.0,48.0,40.0,1.0,0.0
3178,42.0,48.0,40.0,1.0,0.0
3179,44.0,48.0,40.0,1.0,0.0
3180,46.0,48.0,40.0,1.0,0.0
3181,48.0,48.0,40.0,1.0,0.0
3182,49.0,48.0,40.0,1.0,0.0
3183,44.0,48.0,40.0,1.0,0.0
3184,46.0,48.0,40.0,1.0,0.0
3185,48.0,48.0,40.0,1.0,0.0
3186,49.0,48.0,40.0,1.0,0.0
3187,51.0,48.0,40.0,1.0,0.0
3188,53.0,48.0,40.0,1.0,0.0
3189,54.0,48.0,40.0,1.0,0.0
3190,56.0,48.0,40.0,1.0,0.0
3191,49.0,48.0,40.0,1.0,0.0
3192,51.0,48.0,40.0,1.0,0.0
3193,53.0,48.0,40.0,1.0,0.0
3194,54.0,48.0,40.0,1.0,0.0
3195,56.0,48.0,40.0,1.0,0.0
3196,58.0,48.0,40.0,1.0,0.0
3197,60.0,48.0,40.0,1.0,0.0
3198,61.0,48.0,40.0,1.0,0.0
3199,56.0,48.0,40.0,0.0,0.0
3200,58.0,48.0,40.0,0.0,0.0
3201,60.0,48.0,40.0,0.0,0.0
3202,61.0,48.0,40.0,0.0,0.0
3203,63.0,48.0,40.0,0.0,0.0
3204,65.0,48.0,40.0,0.0,0.0
3205,66.0,48.0,40.0,0.0,0.0
3206,68.0,48.0,40.0,0.0,0.0
3207,61.0,48.0,40.0,0.0,0.0
3208,63.0,48.0,40.0,0.0,0.0
3209,65.0,48.0,40.0,0.0,0.0
3210,66.0,48.0,40.0,0.0,0.0
3211,68.0,48.0,40.0,0.0,0.0
3212,70.0,48.0,40.0,0.0,0.0
3213,72.0,48.0,40.0,0.0,0.0
3214,73.0,48.0,40.0,0.0,0.0
3215,68.0,48.0,40.0,0.0,0.0
3216,70.0,48.0,40.0,0.0,0.0
3217,72.0,48.0,40.0,0.0,0.0
3218,73.0,48.0,40.0,0.0,0.0
3219,75.0,48.0,40.0,0.0,0.0
3220,77.0,48.0,40.0,0.0,0.0
3221,78.0,48.0,40.0,0.0,0.0
3222,80.0,48.0,40.0,0.0,0.0
3223,73.0,48.0,40.0,0.0,0.0
3224,75.0,48.0,40.0,0.0,0.0
3225,77.0,48.0,40.0,0.0,0.0
3226,78.0,48.0,40.0,0.0,0.0
3227,80.0,48.0,40.0,0.0,0.0
3228,82.0,48.0,40.0,0.0,0.0
3229,84.0,86.0,40.0,0.0,0.0
3230,46.0,0.0,330.0,1.0,0.0
3231,85.0,106.0,90.0,0.0,0.0
3232,52.0,0.0,330.0,1.0,0.0
3233,49.0,48.0,330.0,1.0,0.0
3234,43.0,0.0,330.0,1.0,0.0
3235,82.0,64.0,40.0,0.0,0.0
3236,79.0,64.0,60.0,0.0,0.0
3237,82.0,16.0,60.0,0.0,0.0
3238,79.0,64.0,60.0,0.0,0.0
3239,76.0,64.0,60.0,0.0,0.0
3240,79.0,64.0,60.0,0.0,0.0
3241,76.0,64.0,60.0,0.0,0.0
3242,73.0,64.0,60.0,0.0,0.0
3243,76.0,64.0,60.0,0.0,0.0
3244,73.0,64.0,60.0,0.0,0.0
3245,70.0,64.0,60.0,0.0,0.0
3246,73.0,64.0,60.0,0.0,0.0
3247,70.0,64.0,60.0,0.0,0.0
3248,67.0,64.0,60.0,0.0,0.0
3249,70.0,64.0,60.0,0.0,0.0
3250,67.0,64.0,60.0,0.0,0.0
3251,64.0,64.0,60.0,0.0,0.0
3252,67.0,64.0,60.0,0.0,0.0
3253,64.0,64.0,60.0,0.0,0.0
3254,61.0,64.0,60.0,0.0,0.0
3255,64.0,64.0,60.0,0.0,0.0
3256,61.0,64.0,60.0,0.0,0.0
3257,58.0,64.0,60.0,0.0,0.0
3258,61.0,64.0,60.0,0.0,0.0
3259,58.0,64.0,60.0,0.0,0.0
3260,55.0,64.0,60.0,1.0,0.0
3261,58.0,64.0,60.0,1.0,0.0
3262,55.0,64.0,60.0,1.0,0.0
3263,52.0,64.0,60.0,1.0,0.0
3264,55.0,64.0,60.0,1.0,0.0
3265,52.0,86.0,60.0,1.0,0.0
3266,49.0,35.0,90.0,1.0,0.0
3267,52.0,64.0,60.0,1.0,0.0
3268,49.0,93.0,60.0,1.0,0.0
3269,46.0,35.0,90.0,1.0,0.0
3270,49.0,64.0,60.0,1.0,0.0
3271,46.0,93.0,60.0,1.0,0.0
3272,43.0,35.0,90.0,1.0,0.0
3273,46.0,64.0,60.0,1.0,0.0
3274,43.0,93.0,60.0,1.0,0.0
3275,42.0,35.0,90.0,1.0,0.0
3276,45.0,64.0,60.0,1.0,0.0
3277,48.0,64.0,60.0,1.0,0.0
3278,51.0,64.0,60.0,1.0,0.0
3279,54.0,64.0,60.0,1.0,0.0
3280,57.0,93.0,60.0,1.0,0.0
3281,51.0,35.0,90.0,1.0,0.0
3282,54.0,64.0,60.0,1.0,0.0
3283,57.0,64.0,60.0,1.0,0.0
3284,60.0,64.0,60.0,0.0,0.0
3285,63.0,64.0,60.0,0.0,0.0
3286,66.0,93.0,60.0,0.0,0.0
3287,60.0,35.0,90.0,0.0,0.0
3288,63.0,64.0,60.0,0.0,0.0
3289,66.0,64.0,60.0,0.0,0.0
3290,69.0,64.0,60.0,0.0,0.0
3291,72.0,64.0,60.0,0.0,0.0
3292,75.0,93.0,60.0,0.0,0.0
3293,66.0,35.0,90.0,0.0,0.0
3294,69.0,64.0,60.0,0.0,0.0
3295,72.0,64.0,60.0,0.0,0.0
3296,75.0,64.0,60.0,0.0,0.0
3297,78.0,64.0,60.0,0.0,0.0
3298,81.0,50.0,60.0,0.0,0.0
3299,80.0,48.0,40.0,0.0,0.0
3300,65.0,15.0,180.0,0.0,0.0
3301,73.0,48.0,40.0,0.0,0.0
3302,85.0,33.0,40.0,0.0,0.0
3303,73.0,48.0,40.0,0.0,0.0
3304,84.0,48.0,40.0,0.0,0.0
3305,73.0,48.0,40.0,0.0,0.0
3306,83.0,48.0,40.0,0.0,0.0
3307,53.0,43.0,90.0,1.0,0.0
3308,73.0,5.0,40.0,0.0,0.0
3309,54.0,15.0,180.0,1.0,0.0
3310,82.0,48.0,40.0,0.0,0.0
3311,73.0,48.0,40.0,0.0,0.0
3312,85.0,33.0,40.0,0.0,0.0
3313,73.0,48.0,40.0,0.0,0.0
3314,84.0,48.0,40.0,0.0,0.0
3315,73.0,48.0,40.0,0.0,0.0
3316,53.0,43.0,90.0,1.0,0.0
3317,83.0,48.0,40.0,0.0,0.0
3318,73.0,5.0,40.0,0.0,0.0
3319,54.0,15.0,180.0,1.0,0.0
3320,82.0,48.0,40.0,0.0,0.0
3321,73.0,48.0,40.0,0.0,0.0
3322,85.0,33.0,40.0,0.0,0.0
3323,73.0,48.0,40.0,0.0,0.0
3324,84.0,48.0,40.0,0.0,0.0
3325,73.0,48.0,40.0,0.0,0.0
3326,83.0,43.0,40.0,0.0,0.0
3327,41.0,5.0,90.0,1.0,0.0
3328,53.0,0.0,90.0,1.0,0.0
3329,73.0,48.0,40.0,0.0,0.0
3330,82.0,43.0,40.0,0.0,0.0
3331,42.0,0.0,90.0,1.0,0.0
3332,54.0,5.0,90.0,1.0,0.0
3333,73.0,48.0,40.0,0.0,0.0
3334,83.0,43.0,40.0,0.0,0.0
3335,53.0,0.0,90.0,1.0,0.0
3336,41.0,5.0,90.0,1.0,0.0
3337,73.0,48.0,40.0,0.0,0.0
3338,42.0,5.0,90.0,1.0,0.0
3339,54.0,0.0,90.0,1.0,0.0
3340,82.0,43.0,40.0,0.0,0.0
3341,73.0,48.0,40.0,0.0,0.0
3342,41.0,5.0,90.0,1.0,0.0
3343,83.0,43.0,40.0,0.0,0.0
3344,53.0,0.0,90.0,1.0,0.0
3345,73.0,53.0,40.0,0.0,0.0
3346,82.0,24.0,40.0,0.0,0.0
3347,42.0,0.0,180.0,1.0,0.0
3348,54.0,15.0,180.0,1.0,0.0
3349,84.0,24.0,20.0,0.0,0.0
3350,82.0,24.0,20.0,0.0,0.0
3351,80.0,24.0,20.0,0.0,0.0
3352,82.0,28.0,20.0,0.0,0.0
3353,85.0,53.0,40.0,0.0,0.0
3354,51.0,0.0,750.0,1.0,0.0
3355,49.0,0.0,750.0,1.0,0.0
3356,46.0,19.0,750.0,1.0,0.0
3357,42.0,0.0,750.0,1.0,0.0
3358,75.0,24.0,40.0,0.0,0.0
3359,77.0,24.0,20.0,0.0,0.0
3360,75.0,24.0,20.0,0.0,0.0
3361,74.0,24.0,20.0,0.0,0.0
3362,75.0,43.0,20.0,0.0,0.0
3363,78.0,53.0,40.0,0.0,0.0
3364,70.0,24.0,40.0,0.0,0.0
3365,72.0,24.0,20.0,0.0,0.0
3366,70.0,24.0,20.0,0.0,0.0
3367,69.0,24.0,20.0,0.0,0.0
3368,70.0,43.0,20.0,0.0,0.0
3369,73.0,53.0,40.0,0.0,0.0
3370,66.0,24.0,40.0,0.0,0.0
3371,68.0,24.0,20.0,0.0,0.0
3372,66.0,24.0,20.0,0.0,0.0
3373,65.0,24.0,20.0,0.0,0.0
3374,66.0,43.0,20.0,0.0,0.0
3375,70.0,53.0,40.0,0.0,0.0
3376,63.0,24.0,40.0,0.0,0.0
3377,65.0,24.0,20.0,0.0,0.0
3378,63.0,24.0,20.0,0.0,0.0
3379,62.0,24.0,20.0,0.0,0.0
3380,63.0,24.0,20.0,0.0,0.0
3381,66.0,389.0,40.0,0.0,0.0
3382,65.0,48.0,390.0,0.0,0.0
3383,49.0,0.0,390.0,1.0,0.0
3384,53.0,0.0,390.0,1.0,0.0
3385,44.0,0.0,390.0,1.0,0.0
3386,65.0,48.0,40.0,0.0,0.0
3387,68.0,48.0,40.0,0.0,0.0
3388,66.0,48.0,40.0,0.0,0.0
3389,65.0,48.0,40.0,0.0,0.0
3390,66.0,48.0,40.0,0.0,0.0
3391,68.0,48.0,40.0,0.0,0.0
3392,70.0,48.0,40.0,0.0,0.0
3393,72.0,48.0,40.0,0.0,0.0
3394,73.0,48.0,40.0,0.0,0.0
3395,72.0,48.0,40.0,0.0,0.0
3396,70.0,48.0,40.0,0.0,0.0
3397,68.0,48.0,40.0,0.0,0.0
3398,70.0,48.0,40.0,0.0,0.0
3399,72.0,48.0,40.0,0.0,0.0
3400,73.0,48.0,40.0,0.0,0.0
3401,75.0,48.0,40.0,0.0,0.0
3402,77.0,48.0,40.0,0.0,0.0
3403,75.0,48.0,40.0,0.0,0.0
3404,73.0,48.0,40.0,0.0,0.0
3405,72.0,48.0,40.0,0.0,0.0
3406,73.0,48.0,40.0,0.0,0.0
3407,75.0,48.0,40.0,0.0,0.0
3408,77.0,48.0,40.0,0.0,0.0
3409,78.0,48.0,40.0,0.0,0.0
3410,82.0,48.0,40.0,0.0,0.0
3411,80.0,48.0,40.0,0.0,0.0
3412,78.0,48.0,40.0,0.0,0.0
3413,77.0,48.0,40.0,0.0,0.0
3414,78.0,48.0,40.0,0.0,0.0
3415,80.0,48.0,40.0,0.0,0.0
3416,82.0,48.0,40.0,0.0,0.0
3417,84.0,172.0,40.0,0.0,0.0
3418,85.0,212.0,180.0,0.0,0.0
3419,77.0,96.0,90.0,0.0,0.0
3420,78.0,96.0,90.0,0.0,0.0
3421,79.0,96.0,90.0,0.0,0.0
3422,80.0,96.0,90.0,0.0,0.0
3423,81.0,96.0,90.0,0.0,0.0
3424,82.0,96.0,90.0,0.0,0.0
3425,83.0,96.0,90.0,0.0,0.0
3426,84.0,86.0,90.0,0.0,0.0
3427,85.0,101.0,90.0,0.0,0.0
3428,73.0,149.0,40.0,0.0,0.0
3429,78.0,16.0,150.0,0.0,0.0
3430,77.0,16.0,15.0,0.0,0.0
3431,75.0,16.0,15.0,0.0,0.0
3432,74.0,48.0,15.0,0.0,0.0
3433,75.0,48.0,40.0,0.0,0.0
3434,82.0,48.0,40.0,0.0,0.0
3435,80.0,48.0,40.0,0.0,0.0
3436,78.0,48.0,40.0,0.0,0.0
3437,77.0,48.0,40.0,0.0,0.0
3438,75.0,48.0,40.0,0.0,0.0
3439,74.0,48.0,40.0,0.0,0.0
3440,75.0,96.0,40.0,0.0,0.0
3441,78.0,86.0,90.0,0.0,0.0
3442,70.0,31.0,90.0,0.0,0.0
3443,72.0,24.0,20.0,0.0,0.0
3444,56.0,0.0,360.0,1.0,0.0
3445,66.0,12.0,360.0,1.0,0.0
3446,73.0,24.0,20.0,0.0,0.0
3447,72.0,24.0,20.0,0.0,0.0
3448,73.0,24.0,20.0,0.0,0.0
3449,72.0,24.0,20.0,0.0,0.0
3450,73.0,24.0,20.0,0.0,0.0
3451,72.0,24.0,20.0,0.0,0.0
3452,73.0,24.0,20.0,0.0,0.0
3453,72.0,24.0,20.0,0.0,0.0
3454,73.0,24.0,20.0,0.0,0.0
3455,72.0,24.0,20.0,0.0,0.0
3456,73.0,24.0,20.0,0.0,0.0
3457,72.0,24.0,20.0,0.0,0.0
3458,73.0,12.0,20.0,0.0,0.0
3459,72.0,24.0,20.0,0.0,0.0
3460,73.0,24.0,20.0,0.0,0.0
3461,73.0,24.0,20.0,0.0,0.0
3462,56.0,0.0,360.0,1.0,0.0
3463,65.0,12.0,360.0,1.0,0.0
3464,75.0,24.0,20.0,0.0,0.0
3465,73.0,24.0,20.0,0.0,0.0
3466,75.0,24.0,20.0,0.0,0.0
3467,73.0,24.0,20.0,0.0,0.0
3468,75.0,24.0,20.0,0.0,0.0
3469,73.0,24.0,20.0,0.0,0.0
3470,75.0,24.0,20.0,0.0,0.0
3471,73.0,24.0,20.0,0.0,0.0
3472,75.0,24.0,20.0,0.0,0.0
3473,73.0,24.0,20.0,0.0,0.0
3474,75.0,24.0,20.0,0.0,0.0
3475,73.0,24.0,20.0,0.0,0.0
3476,75.0,12.0,20.0,0.0,0.0
3477,73.0,24.0,20.0,0.0,0.0
3478,75.0,24.0,20.0,0.0,0.0
3479,74.0,24.0,20.0,0.0,0.0
3480,56.0,12.0,360.0,1.0,0.0
3481,59.0,0.0,360.0,1.0,0.0
3482,75.0,24.0,20.0,0.0,0.0
3483,74.0,24.0,20.0,0.0,0.0
3484,75.0,24.0,20.0,0.0,0.0
3485,74.0,24.0,20.0,0.0,0.0
3486,75.0,24.0,20.0,0.0,0.0
3487,74.0,24.0,20.0,0.0,0.0
3488,75.0,24.0,20.0,0.0,0.0
3489,74.0,24.0,20.0,0.0,0.0
3490,75.0,24.0,20.0,0.0,0.0
3491,74.0,24.0,20.0,0.0,0.0
3492,75.0,24.0,20.0,0.0,0.0
3493,74.0,24.0,20.0,0.0,0.0
3494,75.0,12.0,20.0,0.0,0.0
3495,74.0,24.0,20.0,0.0,0.0
3496,75.0,24.0,20.0,0.0,0.0
3497,60.0,12.0,360.0,1.0,0.0
3498,56.0,0.0,360.0,1.0,0.0
3499,75.0,24.0,20.0,0.0,0.0
3500,77.0,24.0,20.0,0.0,0.0
3501,75.0,24.0,20.0,0.0,0.0
3502,77.0,24.0,20.0,0.0,0.0
3503,75.0,24.0,20.0,0.0,0.0
3504,77.0,24.0,20.0,0.0,0.0
3505,75.0,24.0,20.0,0.0,0.0
3506,77.0,24.0,20.0,0.0,0.0
3507,75.0,24.0,20.0,0.0,0.0
3508,77.0,24.0,20.0,0.0,0.0
3509,75.0,24.0,20.0,0.0,0.0
3510,77.0,24.0,20.0,0.0,0.0
3511,75.0,24.0,20.0,0.0,0.0
3512,77.0,12.0,20.0,0.0,0.0
3513,75.0,24.0,20.0,0.0,0.0
3514,77.0,24.0,20.0,0.0,0.0
3515,75.0,24.0,20.0,0.0,64.0
3516,77.0,24.0,20.0,0.0,64.0
3517,78.0,24.0,20.0,0.0,64.0
3518,77.0,27.0,20.0,0.0,0.0
3519,75.0,24.0,20.0,0.0,0.0
3520,73.0,24.0,20.0,0.0,0.0
3521,72.0,24.0,20.0,0.0,0.0
3522,70.0,24.0,20.0,0.0,0.0
3523,68.0,24.0,20.0,0.0,0.0
3524,66.0,24.0,20.0,0.0,0.0
3525,65.0,24.0,20.0,0.0,0.0
3526,63.0,24.0,20.0,0.0,0.0
3527,61.0,24.0,20.0,0.0,0.0
3528,63.0,24.0,20.0,0.0,0.0
3529,65.0,24.0,20.0,0.0,0.0
3530,63.0,24.0,20.0,0.0,0.0
3531,65.0,24.0,20.0,0.0,0.0
3532,63.0,24.0,20.0,0.0,0.0
3533,65.0,24.0,20.0,0.0,0.0
3534,63.0,24.0,20.0,0.0,0.0
3535,65.0,24.0,20.0,0.0,0.0
3536,63.0,24.0,20.0,0.0,0.0
3537,65.0,24.0,20.0,0.0,0.0
3538,63.0,24.0,20.0,0.0,0.0
3539,65.0,24.0,20.0,0.0,0.0
3540,63.0,24.0,20.0,0.0,0.0
3541,65.0,24.0,20.0,0.0,0.0
3542,63.0,24.0,20.0,0.0,0.0
3543,65.0,24.0,20.0,0.0,0.0
3544,63.0,24.0,20.0,0.0,0.0
3545,65.0,24.0,20.0,0.0,0.0
3546,63.0,24.0,20.0,0.0,0.0
3547,65.0,24.0,20.0,0.0,0.0
3548,63.0,24.0,20.0,0.0,0.0
3549,65.0,24.0,20.0,0.0,0.0
3550,63.0,24.0,20.0,0.0,0.0
3551,65.0,24.0,20.0,0.0,0.0
3552,63.0,24.0,20.0,0.0,0.0
3553,65.0,24.0,20.0,0.0,0.0
3554,63.0,24.0,20.0,0.0,0.0
3555,65.0,24.0,20.0,0.0,0.0
3556,63.0,24.0,20.0,0.0,0.0
3557,65.0,24.0,20.0,0.0,0.0
3558,63.0,24.0,20.0,0.0,0.0
3559,54.0,43.0,870.0,1.0,0.0
3560,48.0,0.0,870.0,1.0,0.0
3561,44.0,0.0,870.0,1.0,0.0
3562,65.0,24.0,20.0,0.0,0.0
3563,63.0,24.0,20.0,0.0,0.0
3564,65.0,24.0,20.0,0.0,0.0
3565,63.0,24.0,20.0,0.0,0.0
3566,65.0,24.0,20.0,0.0,0.0
3567,63.0,24.0,20.0,0.0,0.0
3568,65.0,24.0,20.0,0.0,0.0
3569,63.0,24.0,20.0,0.0,0.0
3570,65.0,24.0,20.0,0.0,0.0
3571,63.0,24.0,20.0,0.0,0.0
3572,65.0,24.0,20.0,0.0,0.0
3573,63.0,24.0,20.0,0.0,0.0
3574,65.0,24.0,20.0,0.0,0.0
3575,63.0,24.0,20.0,0.0,0.0
3576,65.0,24.0,20.0,0.0,0.0
3577,63.0,24.0,20.0,0.0,0.0
3578,65.0,24.0,20.0,0.0,0.0
3579,63.0,24.0,20.0,0.0,0.0
3580,65.0,24.0,20.0,0.0,0.0
3581,63.0,24.0,20.0,0.0,0.0
3582,65.0,24.0,20.0,0.0,0.0
3583,63.0,24.0,20.0,0.0,0.0
3584,65.0,24.0,20.0,0.0,0.0
3585,63.0,24.0,20.0,0.0,0.0
3586,65.0,24.0,20.0,0.0,0.0
3587,63.0,24.0,20.0,0.0,0.0
3588,65.0,24.0,20.0,0.0,0.0
3589,63.0,24.0,20.0,0.0,0.0
3590,65.0,24.0,20.0,0.0,0.0
3591,63.0,24.0,20.0,0.0,0.0
3592,65.0,24.0,20.0,0.0,0.0
3593,63.0,24.0,20.0,0.0,0.0
3594,65.0,24.0,20.0,0.0,0.0
3595,63.0,24.0,20.0,0.0,0.0
3596,65.0,24.0,20.0,0.0,0.0
3597,63.0,0.0,20.0,0.0,0.0
3598,61.0,48.0,40.0,0.0,0.0
3599,63.0,91.0,40.0,0.0,0.0
3600,61.0,10.0,180.0,0.0,0.0
3601,37.0,58.0,90.0,1.0,0.0
3602,65.0,28.0,150.0,0.0,0.0
3603,49.0,5.0,90.0,1.0,0.0
3604,68.0,48.0,40.0,0.0,0.0
3605,41.0,53.0,90.0,1.0,0.0
3606,61.0,0.0,40.0,0.0,0.0
3607,56.0,43.0,40.0,0.0,0.0
3608,56.0,43.0,40.0,0.0,0.0
3609,61.0,0.0,40.0,0.0,0.0
3610,53.0,53.0,90.0,1.0,0.0
3611,60.0,0.0,40.0,0.0,0.0
3612,63.0,43.0,40.0,0.0,0.0
3613,44.0,53.0,90.0,1.0,0.0
3614,56.0,96.0,90.0,1.0,0.0
3615,60.0,0.0,40.0,0.0,0.0
3616,63.0,43.0,40.0,0.0,0.0
3617,65.0,28.0,150.0,0.0,0.0
3618,37.0,58.0,90.0,1.0,0.0
3619,61.0,10.0,180.0,0.0,0.0
3620,49.0,5.0,90.0,1.0,0.0
3621,68.0,48.0,40.0,0.0,0.0
3622,41.0,53.0,90.0,1.0,0.0
3623,61.0,43.0,40.0,0.0,0.0
3624,56.0,0.0,40.0,0.0,0.0
3625,56.0,0.0,40.0,0.0,0.0
3626,61.0,43.0,40.0,0.0,0.0
3627,53.0,53.0,90.0,1.0,0.0
3628,44.0,53.0,90.0,1.0,0.0
3629,60.0,43.0,40.0,0.0,0.0
3630,63.0,0.0,40.0,0.0,0.0
3631,63.0,43.0,40.0,0.0,0.0
3632,60.0,0.0,40.0,0.0,0.0
3633,56.0,154.0,90.0,1.0,0.0
3634,49.0,15.0,180.0,1.0,0.0
3635,61.0,0.0,180.0,0.0,0.0
3636,65.0,28.0,150.0,0.0,0.0
3637,73.0,149.0,40.0,0.0,0.0
3638,42.0,15.0,180.0,1.0,0.0
3639,54.0,0.0,180.0,1.0,0.0
3640,63.0,28.0,150.0,0.0,0.0
3641,61.0,0.0,180.0,0.0,0.0
3642,70.0,149.0,40.0,0.0,0.0
3643,60.0,0.0,180.0,0.0,0.0
3644,68.0,28.0,150.0,0.0,0.0
3645,56.0,15.0,180.0,1.0,0.0
3646,44.0,0.0,180.0,1.0,0.0
3647,66.0,350.0,40.0,0.0,0.0
3648,66.0,0.0,390.0,0.0,0.0
3649,60.0,172.0,390.0,0.0,0.0
3650,58.0,39.0,360.0,1.0,0.0
3651,46.0,0.0,360.0,1.0,0.0
3652,65.0,68.0,180.0,0.0,0.0
3653,61.0,0.0,180.0,0.0,0.0
3654,77.0,38.0,40.0,0.0,0.0
3655,49.0,10.0,90.0,1.0,0.0
3656,78.0,48.0,40.0,0.0,0.0
3657,79.0,38.0,40.0,0.0,0.0
3658,61.0,10.0,90.0,1.0,0.0
3659,80.0,43.0,40.0,0.0,0.0
3660,53.0,53.0,90.0,1.0,0.0
3661,73.0,43.0,40.0,0.0,0.0
3662,65.0,53.0,90.0,1.0,0.0
3663,73.0,43.0,40.0,0.0,0.0
3664,75.0,43.0,40.0,0.0,0.0
3665,56.0,53.0,90.0,1.0,0.0
3666,68.0,58.0,90.0,1.0,0.0
3667,75.0,43.0,40.0,0.0,0.0
3668,77.0,38.0,40.0,0.0,0.0
3669,49.0,10.0,90.0,1.0,0.0
3670,78.0,48.0,40.0,0.0,0.0
3671,79.0,38.0,40.0,0.0,0.0
3672,61.0,10.0,90.0,1.0,0.0
3673,80.0,43.0,40.0,0.0,0.0
3674,53.0,53.0,90.0,1.0,0.0
3675,73.0,43.0,40.0,0.0,0.0
3676,65.0,53.0,90.0,1.0,0.0
3677,73.0,43.0,40.0,0.0,0.0
3678,75.0,43.0,40.0,0.0,0.0
3679,56.0,53.0,90.0,1.0,0.0
3680,75.0,43.0,40.0,0.0,0.0
3681,68.0,154.0,90.0,1.0,0.0
3682,73.0,20.0,180.0,1.0,0.0
3683,61.0,0.0,180.0,1.0,0.0
3684,77.0,28.0,150.0,0.0,0.0
3685,85.0,144.0,40.0,0.0,0.0
3686,63.0,20.0,180.0,1.0,0.0
3687,54.0,0.0,180.0,1.0,0.0
3688,75.0,28.0,150.0,0.0,0.0
3689,82.0,144.0,40.0,0.0,0.0
3690,66.0,0.0,180.0,1.0,0.0
3691,56.0,20.0,180.0,1.0,0.0
3692,80.0,28.0,150.0,0.0,0.0
3693,72.0,216.0,40.0,0.0,0.0
3694,61.0,480.0,240.0,1.0,0.0
3695,65.0,0.0,240.0,1.0,0.0
3696,73.0,24.0,210.0,0.0,0.0
3697,53.0,0.0,180.0,1.0,0.0
3698,41.0,20.0,180.0,1.0,0.0
3699,65.0,28.0,150.0,0.0,0.0
3700,73.0,144.0,40.0,0.0,0.0
3701,51.0,20.0,180.0,1.0,0.0
3702,42.0,0.0,180.0,1.0,0.0
3703,63.0,28.0,150.0,0.0,0.0
3704,70.0,144.0,40.0,0.0,0.0
3705,44.0,20.0,180.0,1.0,0.0
3706,54.0,0.0,180.0,1.0,0.0
3707,68.0,28.0,150.0,0.0,0.0
3708,60.0,240.0,40.0,0.0,0.0
3709,61.0,0.0,240.0,0.0,0.0
3710,53.0,384.0,240.0,1.0,0.0
3711,49.0,0.0,240.0,1.0,0.0
3712,53.0,124.0,40.0,0.0,0.0
3713,46.0,5.0,180.0,1.0,0.0
3714,61.0,63.0,120.0,0.0,0.0
3715,42.0,5.0,180.0,1.0,0.0
3716,51.0,124.0,40.0,0.0,0.0
3717,58.0,63.0,120.0,0.0,0.0
3718,56.0,124.0,40.0,0.0,0.0
3719,44.0,5.0,180.0,1.0,0.0
3720,48.0,255.0,120.0,0.0,0.0
3721,37.0,336.0,300.0,1.0,0.0
3722,49.0,48.0,240.0,0.0,0.0
3723,41.0,124.0,40.0,0.0,0.0
3724,34.0,5.0,180.0,1.0,0.0
3725,49.0,63.0,120.0,0.0,0.0
3726,39.0,124.0,40.0,0.0,0.0
3727,30.0,5.0,180.0,1.0,0.0
3728,46.0,63.0,120.0,0.0,0.0
3729,32.0,5.0,180.0,1.0,0.0
3730,44.0,124.0,40.0,0.0,0.0
3731,36.0,63.0,120.0,0.0,0.0
3732,25.0,0.0,510.0,1.0,0.0
3733,37.0,43.0,510.0,1.0,0.0
3734,53.0,129.0,40.0,0.0,0.0
3735,59.0,63.0,120.0,0.0,0.0
3736,58.0,129.0,40.0,0.0,0.0
3737,54.0,63.0,120.0,0.0,0.0
3738,53.0,86.0,40.0,0.0,0.0
3739,57.0,63.0,120.0,0.0,0.0
3740,37.0,43.0,510.0,1.0,0.0
3741,25.0,0.0,510.0,1.0,0.0
3742,58.0,129.0,40.0,0.0,0.0
3743,54.0,63.0,120.0,0.0,0.0
3744,53.0,129.0,40.0,0.0,0.0
3745,56.0,63.0,120.0,0.0,0.0
3746,55.0,86.0,40.0,0.0,0.0
3747,52.0,63.0,120.0,0.0,0.0
3748,37.0,43.0,510.0,1.0,0.0
3749,25.0,0.0,510.0,1.0,0.0
3750,53.0,129.0,40.0,0.0,0.0
3751,56.0,63.0,120.0,0.0,0.0
3752,54.0,129.0,40.0,0.0,0.0
3753,51.0,63.0,120.0,0.0,0.0
3754,49.0,86.0,40.0,0.0,0.0
3755,53.0,39.0,120.0,0.0,0.0
3756,48.0,24.0,20.0,0.0,0.0
3757,51.0,129.0,20.0,0.0,0.0
3758,54.0,187.0,120.0,0.0,0.0
3759,51.0,0.0,180.0,0.0,0.0
3760,54.0,192.0,180.0,0.0,0.0
3761,44.0,0.0,180.0,1.0,0.0
3762,32.0,0.0,180.0,1.0,0.0
3763,51.0,0.0,180.0,0.0,0.0
3764,44.0,596.0,180.0,1.0,0.0
3765,32.0,0.0,180.0,1.0,0.0
3766,54.0,0.0,180.0,0.0,0.0
3767,54.0,0.0,570.0,0.0,0.0
3768,51.0,0.0,570.0,0.0,0.0
3769,48.0,0.0,570.0,0.0,0.0
3770,37.0,345.0,15.0,1.0,0.0
3771,53.0,0.0,360.0,0.0,0.0
3772,49.0,39.0,360.0,0.0,0.0
3773,25.0,0.0,15.0,1.0,0.0
