,note,step,duration,channel,velocity
0,39.0,30.0,1140.0,8.0,0.0
1,51.0,0.0,1140.0,7.0,0.0
2,55.0,0.0,120.0,5.0,0.0
3,63.0,60.0,120.0,4.0,0.0
4,51.0,60.0,720.0,6.0,0.0
5,58.0,0.0,60.0,5.0,0.0
6,67.0,120.0,60.0,4.0,0.0
7,65.0,60.0,120.0,4.0,0.0
8,56.0,0.0,120.0,5.0,0.0
9,55.0,120.0,60.0,5.0,0.0
10,63.0,0.0,60.0,4.0,0.0
11,60.0,60.0,120.0,5.0,0.0
12,68.0,0.0,300.0,4.0,0.0
13,63.0,120.0,60.0,5.0,0.0
14,58.0,60.0,120.0,5.0,0.0
15,67.0,60.0,120.0,4.0,0.0
16,63.0,0.0,60.0,5.0,0.0
17,56.0,30.0,360.0,5.0,0.0
18,48.0,0.0,180.0,6.0,0.0
19,65.0,60.0,60.0,4.0,0.0
20,67.0,30.0,60.0,4.0,0.0
21,50.0,30.0,60.0,6.0,0.0
22,57.0,30.0,30.0,4.0,0.0
23,58.0,0.0,30.0,4.0,0.0
24,59.0,30.0,30.0,4.0,0.0
25,51.0,30.0,60.0,6.0,0.0
26,60.0,0.0,30.0,4.0,0.0
27,61.0,30.0,30.0,4.0,0.0
28,53.0,0.0,60.0,6.0,0.0
29,62.0,0.0,30.0,4.0,0.0
30,46.0,0.0,60.0,6.0,0.0
31,63.0,30.0,30.0,4.0,0.0
32,55.0,0.0,60.0,5.0,0.0
33,64.0,0.0,30.0,4.0,0.0
34,65.0,30.0,30.0,4.0,0.0
35,66.0,30.0,30.0,4.0,0.0
36,67.0,30.0,30.0,4.0,0.0
37,68.0,30.0,30.0,4.0,0.0
38,69.0,30.0,30.0,4.0,0.0
39,70.0,30.0,30.0,4.0,0.0
40,72.0,30.0,30.0,4.0,0.0
41,70.0,30.0,30.0,4.0,0.0
42,68.0,25.0,30.0,4.0,0.0
43,65.0,125.0,30.0,4.0,0.0
44,51.0,100.0,1140.0,3.0,0.0
45,51.0,0.0,120.0,2.0,0.0
46,63.0,60.0,120.0,4.0,0.0
47,55.0,0.0,120.0,5.0,0.0
48,51.0,0.0,720.0,6.0,0.0
49,67.0,0.0,120.0,0.0,0.0
50,75.0,0.0,120.0,0.0,0.0
51,63.0,0.0,1140.0,3.0,0.0
52,70.0,0.0,60.0,0.0,0.0
53,79.0,0.0,60.0,0.0,0.0
54,58.0,0.0,60.0,5.0,0.0
55,55.0,120.0,60.0,2.0,0.0
56,67.0,0.0,60.0,4.0,0.0
57,65.0,0.0,120.0,4.0,0.0
58,56.0,0.0,120.0,5.0,0.0
59,53.0,0.0,120.0,2.0,0.0
60,68.0,0.0,120.0,0.0,0.0
61,77.0,60.0,120.0,0.0,0.0
62,63.0,0.0,60.0,4.0,0.0
63,55.0,0.0,60.0,5.0,0.0
64,51.0,60.0,60.0,2.0,0.0
65,67.0,0.0,60.0,0.0,0.0
66,75.0,0.0,15.0,0.0,0.0
67,70.0,0.0,60.0,4.0,0.0
68,72.0,0.0,180.0,1.0,0.0
69,60.0,60.0,120.0,5.0,0.0
70,82.0,0.0,60.0,0.0,0.0
71,58.0,60.0,60.0,2.0,0.0
72,69.0,0.0,60.0,4.0,0.0
73,81.0,0.0,60.0,0.0,0.0
74,57.0,0.0,60.0,2.0,0.0
75,63.0,60.0,60.0,5.0,0.0
76,80.0,60.0,120.0,0.0,0.0
77,68.0,0.0,120.0,4.0,0.0
78,56.0,0.0,120.0,2.0,0.0
79,58.0,0.0,120.0,5.0,0.0
80,70.0,0.0,180.0,1.0,0.0
81,78.0,0.0,60.0,0.0,0.0
82,54.0,60.0,60.0,2.0,0.0
83,66.0,0.0,60.0,4.0,0.0
84,63.0,60.0,60.0,5.0,0.0
85,67.0,60.0,120.0,4.0,0.0
86,79.0,0.0,120.0,0.0,0.0
87,55.0,0.0,120.0,2.0,0.0
88,74.0,0.0,180.0,0.0,0.0
89,50.0,0.0,180.0,6.0,0.0
90,56.0,0.0,360.0,5.0,0.0
91,68.0,0.0,360.0,1.0,0.0
92,52.0,0.0,60.0,2.0,0.0
93,64.0,0.0,60.0,4.0,0.0
94,76.0,60.0,60.0,0.0,0.0
95,65.0,0.0,60.0,4.0,0.0
96,53.0,0.0,60.0,2.0,0.0
97,77.0,30.0,60.0,0.0,0.0
98,57.0,30.0,30.0,4.0,0.0
99,45.0,0.0,30.0,2.0,0.0
100,70.0,0.0,180.0,0.0,0.0
101,69.0,0.0,30.0,0.0,0.0
102,46.0,30.0,30.0,2.0,0.0
103,58.0,0.0,30.0,4.0,0.0
104,59.0,0.0,30.0,4.0,0.0
105,51.0,30.0,60.0,6.0,0.0
106,71.0,0.0,30.0,0.0,0.0
107,47.0,30.0,30.0,2.0,0.0
108,48.0,0.0,30.0,2.0,0.0
109,72.0,0.0,30.0,0.0,0.0
110,60.0,0.0,30.0,4.0,0.0
111,53.0,0.0,60.0,6.0,0.0
112,73.0,30.0,30.0,0.0,0.0
113,61.0,0.0,30.0,4.0,0.0
114,49.0,0.0,30.0,2.0,0.0
115,74.0,0.0,30.0,0.0,0.0
116,50.0,60.0,30.0,2.0,0.0
117,62.0,0.0,30.0,4.0,0.0
118,58.0,0.0,15.0,5.0,0.0
119,27.0,0.0,15.0,8.0,0.0
120,55.0,0.0,60.0,5.0,0.0
121,39.0,0.0,15.0,7.0,0.0
122,63.0,0.0,60.0,4.0,0.0
123,67.0,0.0,60.0,1.0,0.0
124,51.0,0.0,60.0,6.0,0.0
125,75.0,0.0,60.0,0.0,0.0
126,51.0,0.0,60.0,2.0,0.0
127,63.0,60.0,30.0,5.0,0.0
128,63.0,0.0,30.0,4.0,0.0
129,51.0,0.0,30.0,6.0,0.0
130,39.0,0.0,30.0,8.0,0.0
131,51.0,0.0,30.0,7.0,0.0
132,50.0,0.0,30.0,7.0,0.0
133,62.0,0.0,30.0,4.0,0.0
134,62.0,0.0,30.0,5.0,0.0
135,38.0,0.0,30.0,8.0,0.0
136,50.0,60.0,30.0,6.0,0.0
137,51.0,0.0,30.0,6.0,0.0
138,51.0,0.0,30.0,7.0,0.0
139,39.0,60.0,30.0,8.0,0.0
140,63.0,0.0,30.0,5.0,0.0
141,63.0,0.0,30.0,4.0,0.0
142,65.0,80.0,30.0,4.0,0.0
143,53.0,0.0,30.0,6.0,0.0
144,53.0,0.0,30.0,7.0,0.0
145,41.0,0.0,30.0,8.0,0.0
146,65.0,0.0,30.0,5.0,0.0
147,58.0,0.0,60.0,4.0,0.0
148,34.0,0.0,60.0,8.0,0.0
149,58.0,0.0,60.0,5.0,0.0
150,46.0,0.0,60.0,6.0,0.0
151,46.0,100.0,60.0,7.0,0.0
152,53.0,60.0,30.0,6.0,0.0
153,65.0,0.0,30.0,4.0,0.0
154,41.0,0.0,30.0,8.0,0.0
155,65.0,0.0,30.0,5.0,0.0
156,53.0,0.0,30.0,7.0,0.0
157,51.0,60.0,30.0,6.0,0.0
158,39.0,0.0,30.0,8.0,0.0
159,63.0,0.0,30.0,5.0,0.0
160,51.0,0.0,30.0,7.0,0.0
161,63.0,0.0,30.0,4.0,0.0
162,41.0,0.0,30.0,8.0,0.0
163,53.0,0.0,30.0,6.0,0.0
164,53.0,0.0,30.0,7.0,0.0
165,65.0,60.0,30.0,5.0,0.0
166,65.0,0.0,30.0,4.0,0.0
167,43.0,0.0,30.0,8.0,0.0
168,67.0,0.0,30.0,5.0,0.0
169,67.0,0.0,30.0,4.0,0.0
170,55.0,0.0,30.0,6.0,0.0
171,55.0,50.0,30.0,7.0,0.0
172,46.0,30.0,30.0,6.0,0.0
173,46.0,0.0,60.0,7.0,0.0
174,58.0,0.0,30.0,5.0,0.0
175,34.0,0.0,60.0,8.0,0.0
176,58.0,30.0,1500.0,3.0,0.0
177,46.0,0.0,1500.0,3.0,0.0
178,58.0,30.0,60.0,4.0,0.0
179,58.0,0.0,30.0,6.0,0.0
180,55.0,0.0,30.0,5.0,0.0
181,58.0,0.0,30.0,6.0,0.0
182,58.0,30.0,30.0,6.0,0.0
183,55.0,30.0,15.0,5.0,0.0
184,75.0,20.0,30.0,4.0,0.0
185,58.0,10.0,30.0,6.0,0.0
186,55.0,0.0,30.0,5.0,0.0
187,55.0,0.0,30.0,5.0,0.0
188,58.0,30.0,30.0,6.0,0.0
189,74.0,20.0,30.0,4.0,0.0
190,56.0,10.0,30.0,5.0,0.0
191,58.0,0.0,15.0,6.0,0.0
192,56.0,30.0,30.0,5.0,0.0
193,75.0,20.0,30.0,4.0,0.0
194,58.0,0.0,30.0,6.0,0.0
195,58.0,0.0,30.0,6.0,0.0
196,56.0,10.0,15.0,5.0,0.0
197,77.0,0.0,30.0,4.0,0.0
198,58.0,0.0,30.0,6.0,0.0
199,51.0,20.0,30.0,7.0,0.0
200,39.0,0.0,30.0,8.0,0.0
201,56.0,30.0,15.0,5.0,0.0
202,58.0,0.0,30.0,6.0,0.0
203,70.0,0.0,60.0,4.0,0.0
204,50.0,0.0,30.0,7.0,0.0
205,56.0,30.0,15.0,5.0,0.0
206,38.0,20.0,30.0,8.0,0.0
207,58.0,10.0,15.0,6.0,0.0
208,56.0,0.0,15.0,5.0,0.0
209,51.0,20.0,30.0,7.0,0.0
210,58.0,30.0,15.0,6.0,0.0
211,39.0,0.0,30.0,8.0,0.0
212,56.0,0.0,15.0,5.0,0.0
213,58.0,10.0,15.0,6.0,0.0
214,53.0,20.0,30.0,7.0,0.0
215,56.0,0.0,15.0,5.0,0.0
216,77.0,0.0,30.0,4.0,0.0
217,41.0,0.0,30.0,8.0,0.0
218,58.0,10.0,15.0,6.0,0.0
219,56.0,0.0,15.0,5.0,0.0
220,46.0,0.0,60.0,7.0,0.0
221,55.0,10.0,30.0,5.0,0.0
222,58.0,30.0,15.0,6.0,0.0
223,75.0,20.0,30.0,4.0,0.0
224,34.0,30.0,60.0,8.0,0.0
225,58.0,0.0,15.0,6.0,0.0
226,77.0,20.0,30.0,4.0,0.0
227,58.0,0.0,15.0,6.0,0.0
228,55.0,0.0,15.0,5.0,0.0
229,55.0,0.0,15.0,5.0,0.0
230,58.0,10.0,15.0,6.0,0.0
231,53.0,0.0,30.0,7.0,0.0
232,58.0,30.0,15.0,6.0,0.0
233,79.0,20.0,30.0,4.0,0.0
234,55.0,10.0,30.0,5.0,0.0
235,41.0,0.0,30.0,8.0,0.0
236,55.0,0.0,30.0,5.0,0.0
237,51.0,20.0,30.0,7.0,0.0
238,58.0,30.0,15.0,6.0,0.0
239,70.0,0.0,60.0,4.0,0.0
240,55.0,10.0,30.0,5.0,0.0
241,39.0,0.0,30.0,8.0,0.0
242,58.0,0.0,30.0,6.0,0.0
243,63.0,30.0,30.0,5.0,0.0
244,53.0,20.0,30.0,7.0,0.0
245,63.0,0.0,30.0,5.0,0.0
246,41.0,0.0,30.0,8.0,0.0
247,58.0,10.0,15.0,6.0,0.0
248,63.0,0.0,15.0,5.0,0.0
249,55.0,0.0,30.0,7.0,0.0
250,79.0,20.0,30.0,4.0,0.0
251,43.0,0.0,30.0,8.0,0.0
252,58.0,30.0,15.0,6.0,0.0
253,63.0,30.0,30.0,5.0,0.0
254,58.0,10.0,15.0,6.0,0.0
255,56.0,10.0,30.0,6.0,0.0
256,46.0,30.0,60.0,7.0,0.0
257,63.0,0.0,30.0,5.0,0.0
258,34.0,0.0,60.0,8.0,0.0
259,77.0,20.0,30.0,4.0,0.0
260,63.0,0.0,30.0,5.0,0.0
261,56.0,0.0,15.0,6.0,0.0
262,79.0,20.0,30.0,4.0,0.0
263,63.0,0.0,30.0,5.0,0.0
264,63.0,0.0,30.0,5.0,0.0
265,56.0,30.0,30.0,6.0,0.0
266,55.0,20.0,30.0,7.0,0.0
267,43.0,0.0,30.0,8.0,0.0
268,80.0,0.0,30.0,4.0,0.0
269,56.0,0.0,15.0,6.0,0.0
270,63.0,10.0,15.0,5.0,0.0
271,70.0,30.0,60.0,4.0,0.0
272,56.0,0.0,30.0,6.0,0.0
273,62.0,10.0,30.0,5.0,0.0
274,53.0,0.0,30.0,7.0,0.0
275,41.0,20.0,30.0,8.0,0.0
276,56.0,0.0,15.0,6.0,0.0
277,55.0,0.0,30.0,7.0,0.0
278,43.0,20.0,30.0,8.0,0.0
279,65.0,0.0,15.0,5.0,0.0
280,65.0,10.0,15.0,5.0,0.0
281,56.0,20.0,30.0,7.0,0.0
282,56.0,0.0,15.0,6.0,0.0
283,80.0,0.0,30.0,4.0,0.0
284,65.0,30.0,15.0,5.0,0.0
285,44.0,0.0,30.0,8.0,0.0
286,65.0,10.0,15.0,5.0,0.0
287,56.0,0.0,30.0,6.0,0.0
288,79.0,0.0,30.0,4.0,0.0
289,65.0,30.0,15.0,5.0,0.0
290,34.0,0.0,30.0,8.0,0.0
291,46.0,20.0,30.0,7.0,0.0
292,58.0,10.0,15.0,6.0,0.0
293,65.0,30.0,30.0,5.0,0.0
294,80.0,20.0,30.0,4.0,0.0
295,65.0,0.0,15.0,5.0,0.0
296,58.0,10.0,15.0,6.0,0.0
297,58.0,0.0,30.0,6.0,0.0
298,44.0,0.0,30.0,8.0,0.0
299,56.0,0.0,30.0,7.0,0.0
300,82.0,20.0,30.0,4.0,0.0
301,65.0,30.0,15.0,5.0,0.0
302,65.0,10.0,15.0,5.0,0.0
303,58.0,0.0,15.0,6.0,0.0
304,43.0,0.0,30.0,8.0,0.0
305,55.0,20.0,30.0,7.0,0.0
306,70.0,0.0,60.0,4.0,0.0
307,63.0,0.0,30.0,5.0,0.0
308,56.0,20.0,30.0,7.0,0.0
309,58.0,0.0,15.0,6.0,0.0
310,67.0,0.0,15.0,5.0,0.0
311,44.0,0.0,30.0,8.0,0.0
312,67.0,30.0,30.0,5.0,0.0
313,58.0,0.0,15.0,6.0,0.0
314,58.0,0.0,30.0,7.0,0.0
315,46.0,20.0,30.0,8.0,0.0
316,67.0,0.0,30.0,5.0,0.0
317,82.0,0.0,120.0,4.0,0.0
318,67.0,0.0,30.0,5.0,0.0
319,58.0,60.0,30.0,6.0,0.0
320,67.0,60.0,60.0,5.0,0.0
321,60.0,0.0,120.0,7.0,0.0
322,48.0,0.0,120.0,8.0,0.0
323,63.0,0.0,60.0,6.0,0.0
324,75.0,0.0,60.0,4.0,0.0
325,70.0,0.0,60.0,5.0,0.0
326,67.0,60.0,60.0,6.0,0.0
327,80.0,0.0,120.0,4.0,0.0
328,68.0,0.0,60.0,5.0,0.0
329,65.0,0.0,60.0,6.0,0.0
330,53.0,0.0,60.0,7.0,0.0
331,41.0,60.0,60.0,8.0,0.0
332,58.0,0.0,120.0,7.0,0.0
333,46.0,60.0,120.0,8.0,0.0
334,62.0,0.0,60.0,6.0,0.0
335,65.0,60.0,60.0,5.0,0.0
336,68.0,0.0,60.0,5.0,0.0
337,74.0,0.0,60.0,4.0,0.0
338,65.0,0.0,60.0,6.0,0.0
339,39.0,0.0,60.0,8.0,0.0
340,67.0,0.0,60.0,5.0,0.0
341,51.0,0.0,60.0,7.0,0.0
342,79.0,60.0,60.0,4.0,0.0
343,63.0,0.0,60.0,6.0,0.0
344,68.0,60.0,60.0,5.0,0.0
345,56.0,0.0,60.0,7.0,0.0
346,60.0,0.0,60.0,6.0,0.0
347,77.0,0.0,60.0,4.0,0.0
348,44.0,0.0,60.0,8.0,0.0
349,56.0,0.0,60.0,6.0,0.0
350,80.0,0.0,60.0,4.0,0.0
351,41.0,0.0,60.0,8.0,0.0
352,53.0,60.0,60.0,7.0,0.0
353,72.0,0.0,60.0,5.0,0.0
354,65.0,0.0,60.0,5.0,0.0
355,58.0,60.0,60.0,7.0,0.0
356,46.0,0.0,60.0,8.0,0.0
357,58.0,0.0,60.0,6.0,0.0
358,74.0,0.0,60.0,4.0,0.0
359,43.0,0.0,60.0,8.0,0.0
360,58.0,0.0,60.0,6.0,0.0
361,75.0,0.0,60.0,4.0,0.0
362,70.0,0.0,60.0,5.0,0.0
363,55.0,60.0,60.0,7.0,0.0
364,70.0,0.0,60.0,4.0,0.0
365,39.0,0.0,60.0,8.0,0.0
366,51.0,60.0,60.0,7.0,0.0
367,63.0,0.0,60.0,6.0,0.0
368,67.0,0.0,60.0,5.0,0.0
369,58.0,60.0,60.0,7.0,0.0
370,67.0,60.0,60.0,5.0,0.0
371,46.0,0.0,15.0,8.0,0.0
372,63.0,0.0,60.0,6.0,0.0
373,72.0,0.0,180.0,4.0,0.0
374,58.0,0.0,60.0,7.0,0.0
375,51.0,60.0,60.0,7.0,0.0
376,39.0,0.0,60.0,8.0,0.0
377,70.0,0.0,60.0,5.0,0.0
378,67.0,0.0,60.0,6.0,0.0
379,68.0,60.0,60.0,5.0,0.0
380,56.0,0.0,60.0,7.0,0.0
381,65.0,0.0,60.0,6.0,0.0
382,56.0,0.0,60.0,7.0,0.0
383,44.0,0.0,15.0,8.0,0.0
384,65.0,60.0,60.0,5.0,0.0
385,62.0,0.0,60.0,6.0,0.0
386,65.0,0.0,60.0,6.0,0.0
387,68.0,60.0,60.0,5.0,0.0
388,50.0,0.0,60.0,7.0,0.0
389,38.0,0.0,60.0,8.0,0.0
390,51.0,0.0,60.0,7.0,0.0
391,63.0,0.0,60.0,6.0,0.0
392,39.0,0.0,60.0,8.0,0.0
393,67.0,0.0,15.0,5.0,0.0
394,70.0,0.0,15.0,4.0,0.0
395,65.0,0.0,30.0,5.0,0.0
396,32.0,60.0,30.0,8.0,0.0
397,44.0,0.0,30.0,7.0,0.0
398,60.0,0.0,30.0,6.0,0.0
399,68.0,0.0,30.0,4.0,0.0
400,67.0,0.0,30.0,4.0,0.0
401,63.0,60.0,30.0,5.0,0.0
402,34.0,0.0,30.0,8.0,0.0
403,46.0,0.0,30.0,7.0,0.0
404,58.0,0.0,30.0,6.0,0.0
405,34.0,0.0,30.0,8.0,0.0
406,62.0,0.0,30.0,5.0,0.0
407,46.0,90.0,30.0,7.0,0.0
408,65.0,0.0,30.0,4.0,0.0
409,56.0,0.0,30.0,6.0,0.0
410,39.0,0.0,60.0,7.0,0.0
411,63.0,0.0,60.0,4.0,0.0
412,63.0,38.0,60.0,5.0,0.0
413,27.0,0.0,60.0,8.0,0.0
414,55.0,0.0,60.0,6.0,0.0
415,79.0,0.0,30.0,1.0,0.0
416,67.0,60.0,30.0,1.0,0.0
417,55.0,0.0,30.0,2.0,0.0
418,43.0,0.0,30.0,2.0,0.0
419,67.0,0.0,30.0,0.0,0.0
420,79.0,0.0,30.0,0.0,0.0
421,67.0,0.0,30.0,3.0,0.0
422,55.0,0.0,30.0,3.0,0.0
423,55.0,0.0,30.0,2.0,0.0
424,43.0,60.0,30.0,2.0,0.0
425,67.0,0.0,30.0,3.0,0.0
426,67.0,0.0,30.0,1.0,0.0
427,79.0,0.0,30.0,1.0,0.0
428,67.0,0.0,30.0,0.0,0.0
429,79.0,0.0,30.0,0.0,0.0
430,55.0,0.0,30.0,3.0,0.0
431,79.0,0.0,30.0,0.0,0.0
432,67.0,0.0,30.0,0.0,0.0
433,55.0,60.0,30.0,2.0,0.0
434,79.0,0.0,30.0,1.0,0.0
435,67.0,0.0,30.0,1.0,0.0
436,67.0,0.0,30.0,3.0,0.0
437,43.0,0.0,30.0,2.0,0.0
438,55.0,0.0,30.0,3.0,0.0
439,79.0,0.0,30.0,0.0,0.0
440,55.0,0.0,30.0,2.0,0.0
441,67.0,0.0,30.0,3.0,0.0
442,43.0,60.0,30.0,2.0,0.0
443,79.0,0.0,30.0,1.0,0.0
444,67.0,0.0,30.0,1.0,0.0
445,67.0,0.0,30.0,0.0,0.0
446,55.0,0.0,30.0,3.0,0.0
447,67.0,0.0,30.0,1.0,0.0
448,79.0,0.0,30.0,1.0,0.0
449,67.0,0.0,30.0,0.0,0.0
450,79.0,0.0,30.0,0.0,0.0
451,55.0,0.0,30.0,3.0,0.0
452,67.0,0.0,30.0,3.0,0.0
453,43.0,52.0,30.0,2.0,0.0
454,55.0,0.0,30.0,2.0,0.0
455,67.0,0.0,60.0,3.0,0.0
456,48.0,0.0,60.0,7.0,0.0
457,63.0,0.0,180.0,1.0,0.0
458,55.0,0.0,60.0,3.0,0.0
459,84.0,30.0,180.0,0.0,0.0
460,75.0,0.0,180.0,0.0,0.0
461,36.0,30.0,60.0,8.0,0.0
462,60.0,0.0,30.0,5.0,0.0
463,72.0,0.0,180.0,1.0,0.0
464,60.0,0.0,180.0,2.0,0.0
465,55.0,0.0,180.0,2.0,0.0
466,79.0,0.0,120.0,4.0,0.0
467,51.0,30.0,15.0,6.0,0.0
468,60.0,0.0,30.0,5.0,0.0
469,51.0,0.0,15.0,6.0,0.0
470,36.0,0.0,60.0,8.0,0.0
471,51.0,0.0,15.0,6.0,0.0
472,60.0,30.0,15.0,5.0,0.0
473,48.0,0.0,15.0,7.0,0.0
474,36.0,0.0,60.0,8.0,0.0
475,77.0,15.0,15.0,4.0,0.0
476,75.0,15.0,15.0,4.0,0.0
477,51.0,0.0,15.0,6.0,0.0
478,60.0,0.0,15.0,5.0,0.0
479,74.0,15.0,15.0,4.0,0.0
480,72.0,0.0,15.0,4.0,0.0
481,53.0,0.0,30.0,6.0,0.0
482,56.0,0.0,180.0,2.0,0.0
483,80.0,15.0,60.0,4.0,0.0
484,71.0,0.0,180.0,1.0,0.0
485,65.0,0.0,180.0,1.0,0.0
486,83.0,0.0,180.0,0.0,0.0
487,74.0,0.0,180.0,0.0,0.0
488,62.0,0.0,180.0,2.0,0.0
489,59.0,15.0,15.0,5.0,0.0
490,53.0,0.0,30.0,6.0,0.0
491,36.0,0.0,15.0,8.0,0.0
492,59.0,30.0,15.0,5.0,0.0
493,48.0,0.0,15.0,7.0,0.0
494,80.0,15.0,60.0,4.0,0.0
495,53.0,0.0,30.0,6.0,0.0
496,59.0,15.0,15.0,5.0,0.0
497,36.0,0.0,15.0,8.0,0.0
498,48.0,0.0,15.0,7.0,0.0
499,53.0,30.0,15.0,6.0,0.0
500,80.0,15.0,60.0,4.0,0.0
501,59.0,0.0,15.0,5.0,0.0
502,53.0,0.0,30.0,6.0,0.0
503,60.0,0.0,60.0,5.0,0.0
504,60.0,0.0,60.0,2.0,0.0
505,55.0,0.0,60.0,2.0,0.0
506,36.0,0.0,60.0,8.0,0.0
507,51.0,0.0,60.0,6.0,0.0
508,79.0,180.0,180.0,4.0,0.0
509,63.0,0.0,60.0,1.0,0.0
510,72.0,0.0,60.0,1.0,0.0
511,75.0,0.0,60.0,0.0,0.0
512,84.0,0.0,60.0,0.0,0.0
513,48.0,120.0,60.0,7.0,0.0
514,45.0,30.0,120.0,7.0,0.0
515,60.0,0.0,120.0,5.0,0.0
516,57.0,0.0,120.0,6.0,0.0
517,78.0,30.0,15.0,4.0,0.0
518,33.0,0.0,120.0,8.0,0.0
519,77.0,45.0,15.0,4.0,0.0
520,77.0,15.0,30.0,4.0,0.0
521,75.0,15.0,15.0,4.0,0.0
522,34.0,0.0,60.0,8.0,0.0
523,46.0,0.0,60.0,7.0,0.0
524,75.0,15.0,30.0,4.0,0.0
525,58.0,0.0,60.0,6.0,0.0
526,74.0,15.0,15.0,4.0,0.0
527,39.0,0.0,60.0,8.0,0.0
528,65.0,30.0,15.0,5.0,0.0
529,74.0,15.0,30.0,4.0,0.0
530,51.0,30.0,60.0,7.0,0.0
531,55.0,0.0,60.0,6.0,0.0
532,63.0,0.0,15.0,5.0,0.0
533,72.0,15.0,15.0,4.0,0.0
534,41.0,30.0,60.0,8.0,0.0
535,63.0,0.0,30.0,5.0,0.0
536,53.0,0.0,60.0,6.0,0.0
537,53.0,0.0,60.0,7.0,0.0
538,72.0,15.0,30.0,4.0,0.0
539,62.0,15.0,15.0,5.0,0.0
540,70.0,0.0,15.0,4.0,0.0
541,70.0,0.0,30.0,4.0,0.0
542,51.0,0.0,60.0,6.0,0.0
543,29.0,30.0,60.0,8.0,0.0
544,41.0,0.0,60.0,7.0,0.0
545,62.0,15.0,30.0,5.0,0.0
546,69.0,15.0,15.0,4.0,0.0
547,60.0,0.0,15.0,5.0,0.0
548,58.0,30.0,30.0,5.0,0.0
549,53.0,0.0,360.0,2.0,0.0
550,61.0,0.0,360.0,2.0,0.0
551,58.0,2.0,360.0,3.0,0.0
552,46.0,0.0,360.0,3.0,0.0
553,46.0,30.0,60.0,7.0,0.0
554,34.0,0.0,60.0,8.0,0.0
555,49.0,0.0,15.0,6.0,0.0
556,49.0,0.0,15.0,6.0,0.0
557,53.0,0.0,15.0,5.0,0.0
558,72.0,15.0,15.0,4.0,0.0
559,49.0,0.0,15.0,6.0,0.0
560,53.0,0.0,15.0,5.0,0.0
561,70.0,15.0,15.0,4.0,0.0
562,72.0,0.0,15.0,4.0,0.0
563,49.0,0.0,15.0,6.0,0.0
564,73.0,0.0,60.0,4.0,0.0
565,53.0,0.0,15.0,5.0,0.0
566,49.0,30.0,15.0,6.0,0.0
567,53.0,0.0,30.0,5.0,0.0
568,46.0,0.0,60.0,7.0,0.0
569,34.0,30.0,60.0,8.0,0.0
570,53.0,0.0,30.0,5.0,0.0
571,49.0,30.0,30.0,6.0,0.0
572,53.0,0.0,30.0,5.0,0.0
573,49.0,0.0,30.0,6.0,0.0
574,49.0,15.0,30.0,6.0,0.0
575,72.0,0.0,15.0,4.0,0.0
576,70.0,15.0,15.0,4.0,0.0
577,53.0,0.0,15.0,5.0,0.0
578,72.0,0.0,15.0,4.0,0.0
579,73.0,0.0,60.0,4.0,0.0
580,53.0,0.0,15.0,5.0,0.0
581,49.0,30.0,15.0,6.0,0.0
582,53.0,30.0,15.0,5.0,0.0
583,54.0,0.0,15.0,5.0,0.0
584,61.0,58.0,15.0,5.0,0.0
585,70.0,15.0,180.0,5.0,0.0
586,42.0,0.0,60.0,7.0,0.0
587,70.0,0.0,180.0,0.0,0.0
588,49.0,0.0,15.0,6.0,0.0
589,30.0,45.0,60.0,8.0,0.0
590,78.0,0.0,180.0,0.0,0.0
591,78.0,0.0,180.0,4.0,0.0
592,42.0,60.0,360.0,2.0,0.0
593,54.0,0.0,360.0,2.0,0.0
594,66.0,0.0,180.0,1.0,0.0
595,70.0,0.0,180.0,1.0,0.0
596,61.0,0.0,60.0,6.0,0.0
597,54.0,0.0,60.0,7.0,0.0
598,42.0,60.0,60.0,8.0,0.0
599,54.0,0.0,60.0,7.0,0.0
600,42.0,0.0,60.0,8.0,0.0
601,61.0,0.0,60.0,6.0,0.0
602,73.0,45.0,15.0,4.0,0.0
603,66.0,0.0,15.0,0.0,0.0
604,66.0,0.0,15.0,5.0,0.0
605,61.0,0.0,60.0,6.0,0.0
606,42.0,60.0,60.0,8.0,0.0
607,73.0,0.0,15.0,0.0,0.0
608,73.0,0.0,180.0,1.0,0.0
609,61.0,0.0,180.0,1.0,0.0
610,82.0,0.0,180.0,0.0,0.0
611,82.0,0.0,180.0,4.0,0.0
612,73.0,0.0,180.0,5.0,0.0
613,54.0,0.0,60.0,7.0,0.0
614,42.0,0.0,60.0,8.0,0.0
615,54.0,0.0,60.0,7.0,0.0
616,61.0,60.0,60.0,6.0,0.0
617,42.0,0.0,60.0,8.0,0.0
618,61.0,15.0,60.0,6.0,0.0
619,54.0,0.0,60.0,7.0,0.0
620,80.0,0.0,15.0,0.0,0.0
621,71.0,0.0,15.0,0.0,0.0
622,80.0,0.0,15.0,4.0,0.0
623,71.0,0.0,15.0,5.0,0.0
624,80.0,30.0,60.0,0.0,0.0
625,71.0,0.0,60.0,0.0,0.0
626,80.0,0.0,60.0,4.0,0.0
627,61.0,0.0,180.0,6.0,0.0
628,71.0,0.0,60.0,5.0,0.0
629,54.0,0.0,180.0,7.0,0.0
630,71.0,0.0,15.0,1.0,0.0
631,65.0,0.0,15.0,1.0,0.0
632,54.0,0.0,180.0,2.0,0.0
633,42.0,0.0,180.0,2.0,0.0
634,70.0,0.0,30.0,1.0,0.0
635,66.0,0.0,30.0,1.0,0.0
636,70.0,0.0,30.0,0.0,0.0
637,78.0,0.0,30.0,0.0,0.0
638,70.0,0.0,30.0,5.0,0.0
639,78.0,60.0,30.0,4.0,0.0
640,78.0,0.0,30.0,4.0,0.0
641,66.0,0.0,30.0,1.0,0.0
642,70.0,0.0,30.0,1.0,0.0
643,70.0,30.0,30.0,0.0,0.0
644,70.0,0.0,30.0,5.0,0.0
645,78.0,0.0,30.0,0.0,0.0
646,78.0,30.0,60.0,4.0,0.0
647,61.0,0.0,240.0,6.0,0.0
648,70.0,30.0,240.0,5.0,0.0
649,54.0,0.0,180.0,7.0,0.0
650,42.0,60.0,15.0,8.0,0.0
651,77.0,60.0,30.0,4.0,0.0
652,77.0,30.0,30.0,4.0,0.0
653,77.0,0.0,60.0,4.0,0.0
654,30.0,60.0,360.0,8.0,0.0
655,42.0,0.0,360.0,7.0,0.0
656,72.0,0.0,60.0,5.0,0.0
657,76.0,30.0,30.0,4.0,0.0
658,57.0,30.0,60.0,6.0,0.0
659,76.0,30.0,30.0,4.0,0.0
660,58.0,30.0,60.0,6.0,0.0
661,73.0,0.0,60.0,5.0,0.0
662,72.0,0.0,60.0,5.0,0.0
663,57.0,30.0,60.0,6.0,0.0
664,76.0,30.0,30.0,4.0,0.0
665,73.0,0.0,60.0,5.0,0.0
666,76.0,30.0,30.0,4.0,0.0
667,58.0,30.0,60.0,6.0,0.0
668,62.0,0.0,60.0,6.0,0.0
669,72.0,0.0,60.0,5.0,0.0
670,76.0,30.0,30.0,4.0,0.0
671,29.0,0.0,60.0,8.0,0.0
672,65.0,30.0,780.0,3.0,0.0
673,60.0,60.0,60.0,6.0,0.0
674,41.0,0.0,60.0,7.0,0.0
675,77.0,0.0,60.0,4.0,0.0
676,69.0,0.0,60.0,5.0,0.0
677,57.0,0.0,60.0,6.0,0.0
678,57.0,0.0,60.0,6.0,0.0
679,60.0,60.0,15.0,5.0,0.0
680,53.0,0.0,60.0,7.0,0.0
681,70.0,30.0,30.0,4.0,0.0
682,41.0,0.0,60.0,8.0,0.0
683,69.0,0.0,30.0,4.0,0.0
684,58.0,0.0,15.0,6.0,0.0
685,70.0,30.0,30.0,4.0,0.0
686,61.0,30.0,15.0,5.0,0.0
687,72.0,0.0,30.0,4.0,0.0
688,73.0,30.0,30.0,4.0,0.0
689,58.0,0.0,60.0,6.0,0.0
690,61.0,0.0,60.0,5.0,0.0
691,70.0,30.0,30.0,4.0,0.0
692,57.0,0.0,60.0,6.0,0.0
693,69.0,30.0,30.0,4.0,0.0
694,29.0,0.0,60.0,8.0,0.0
695,41.0,30.0,60.0,7.0,0.0
696,72.0,0.0,30.0,4.0,0.0
697,77.0,30.0,30.0,4.0,0.0
698,60.0,0.0,15.0,5.0,0.0
699,75.0,0.0,30.0,4.0,0.0
700,73.0,30.0,30.0,4.0,0.0
701,57.0,30.0,15.0,6.0,0.0
702,60.0,30.0,60.0,5.0,0.0
703,72.0,0.0,30.0,4.0,0.0
704,61.0,0.0,60.0,5.0,0.0
705,70.0,30.0,30.0,4.0,0.0
706,53.0,0.0,60.0,7.0,0.0
707,41.0,0.0,60.0,8.0,0.0
708,69.0,30.0,30.0,4.0,0.0
709,58.0,0.0,15.0,6.0,0.0
710,70.0,30.0,30.0,4.0,0.0
711,72.0,0.0,30.0,4.0,0.0
712,73.0,30.0,30.0,4.0,0.0
713,61.0,0.0,15.0,5.0,0.0
714,58.0,0.0,60.0,6.0,0.0
715,70.0,0.0,30.0,4.0,0.0
716,41.0,0.0,60.0,7.0,0.0
717,69.0,30.0,30.0,4.0,0.0
718,29.0,0.0,60.0,8.0,0.0
719,57.0,0.0,60.0,6.0,0.0
720,41.0,0.0,780.0,2.0,0.0
721,60.0,0.0,60.0,5.0,0.0
722,72.0,0.0,30.0,4.0,0.0
723,65.0,30.0,30.0,4.0,0.0
724,45.0,30.0,60.0,6.0,0.0
725,63.0,0.0,30.0,4.0,0.0
726,48.0,0.0,15.0,6.0,0.0
727,53.0,0.0,15.0,5.0,0.0
728,61.0,30.0,30.0,4.0,0.0
729,45.0,30.0,60.0,6.0,0.0
730,60.0,0.0,30.0,4.0,0.0
731,53.0,30.0,60.0,7.0,0.0
732,58.0,0.0,30.0,4.0,0.0
733,41.0,0.0,60.0,8.0,0.0
734,52.0,0.0,180.0,5.0,0.0
735,70.0,30.0,30.0,1.0,0.0
736,57.0,0.0,30.0,4.0,0.0
737,69.0,0.0,30.0,1.0,0.0
738,70.0,30.0,30.0,1.0,0.0
739,49.0,0.0,15.0,6.0,0.0
740,46.0,0.0,15.0,6.0,0.0
741,58.0,0.0,30.0,4.0,0.0
742,60.0,0.0,30.0,4.0,0.0
743,72.0,30.0,30.0,1.0,0.0
744,49.0,0.0,60.0,6.0,0.0
745,46.0,0.0,60.0,6.0,0.0
746,61.0,0.0,30.0,4.0,0.0
747,73.0,30.0,30.0,1.0,0.0
748,58.0,0.0,30.0,4.0,0.0
749,70.0,30.0,30.0,1.0,0.0
750,57.0,0.0,30.0,4.0,0.0
751,41.0,0.0,60.0,7.0,0.0
752,53.0,30.0,180.0,5.0,0.0
753,29.0,0.0,60.0,8.0,0.0
754,45.0,0.0,60.0,6.0,0.0
755,69.0,30.0,30.0,1.0,0.0
756,60.0,0.0,30.0,4.0,0.0
757,72.0,0.0,30.0,1.0,0.0
758,65.0,30.0,30.0,4.0,0.0
759,77.0,0.0,30.0,1.0,0.0
760,48.0,30.0,15.0,6.0,0.0
761,75.0,30.0,30.0,1.0,0.0
762,63.0,0.0,30.0,4.0,0.0
763,45.0,0.0,15.0,6.0,0.0
764,61.0,0.0,30.0,4.0,0.0
765,48.0,0.0,60.0,6.0,0.0
766,73.0,30.0,30.0,1.0,0.0
767,60.0,0.0,30.0,4.0,0.0
768,72.0,0.0,30.0,1.0,0.0
769,58.0,0.0,30.0,4.0,0.0
770,70.0,30.0,30.0,1.0,0.0
771,41.0,0.0,60.0,8.0,0.0
772,46.0,0.0,60.0,6.0,0.0
773,53.0,0.0,60.0,7.0,0.0
774,52.0,0.0,180.0,5.0,0.0
775,57.0,30.0,30.0,4.0,0.0
776,69.0,0.0,30.0,1.0,0.0
777,49.0,0.0,15.0,6.0,0.0
778,58.0,30.0,30.0,4.0,0.0
779,70.0,0.0,30.0,1.0,0.0
780,46.0,0.0,60.0,6.0,0.0
781,72.0,30.0,30.0,1.0,0.0
782,60.0,0.0,30.0,4.0,0.0
783,73.0,30.0,30.0,1.0,0.0
784,46.0,0.0,60.0,6.0,0.0
785,49.0,30.0,60.0,6.0,0.0
786,61.0,0.0,30.0,4.0,0.0
787,58.0,0.0,30.0,4.0,0.0
788,70.0,0.0,30.0,1.0,0.0
789,53.0,0.0,60.0,5.0,0.0
790,69.0,0.0,30.0,1.0,0.0
791,57.0,30.0,30.0,4.0,0.0
792,45.0,0.0,60.0,6.0,0.0
793,48.0,0.0,60.0,6.0,0.0
794,41.0,0.0,60.0,7.0,0.0
795,29.0,0.0,60.0,8.0,0.0
796,66.0,30.0,30.0,1.0,0.0
797,78.0,0.0,30.0,0.0,0.0
798,54.0,0.0,30.0,4.0,0.0
799,77.0,0.0,30.0,0.0,0.0
800,53.0,0.0,30.0,4.0,0.0
801,65.0,30.0,30.0,1.0,0.0
802,78.0,0.0,30.0,0.0,0.0
803,66.0,0.0,30.0,1.0,0.0
804,54.0,30.0,30.0,4.0,0.0
805,53.0,0.0,30.0,4.0,0.0
806,77.0,0.0,30.0,0.0,0.0
807,65.0,30.0,30.0,1.0,0.0
808,66.0,0.0,30.0,1.0,0.0
809,78.0,30.0,30.0,0.0,0.0
810,54.0,0.0,30.0,4.0,0.0
811,65.0,30.0,30.0,1.0,0.0
812,77.0,0.0,30.0,0.0,0.0
813,53.0,0.0,30.0,4.0,0.0
814,54.0,30.0,30.0,5.0,0.0
815,78.0,0.0,30.0,0.0,0.0
816,58.0,0.0,30.0,4.0,0.0
817,82.0,0.0,30.0,0.0,0.0
818,66.0,0.0,30.0,1.0,0.0
819,70.0,0.0,30.0,1.0,0.0
820,57.0,0.0,30.0,4.0,0.0
821,69.0,0.0,30.0,1.0,0.0
822,65.0,0.0,30.0,1.0,0.0
823,81.0,0.0,30.0,0.0,0.0
824,77.0,0.0,30.0,0.0,0.0
825,53.0,30.0,30.0,5.0,0.0
826,70.0,0.0,30.0,1.0,0.0
827,66.0,0.0,30.0,1.0,0.0
828,58.0,0.0,30.0,4.0,0.0
829,78.0,0.0,30.0,0.0,0.0
830,82.0,30.0,30.0,0.0,0.0
831,54.0,0.0,30.0,5.0,0.0
832,57.0,0.0,30.0,4.0,0.0
833,69.0,30.0,30.0,1.0,0.0
834,65.0,0.0,30.0,1.0,0.0
835,77.0,0.0,30.0,0.0,0.0
836,81.0,0.0,30.0,0.0,0.0
837,53.0,0.0,30.0,5.0,0.0
838,54.0,0.0,30.0,5.0,0.0
839,58.0,0.0,30.0,4.0,0.0
840,82.0,0.0,30.0,0.0,0.0
841,78.0,0.0,30.0,0.0,0.0
842,70.0,0.0,30.0,1.0,0.0
843,66.0,30.0,30.0,1.0,0.0
844,69.0,0.0,30.0,1.0,0.0
845,65.0,0.0,30.0,1.0,0.0
846,53.0,0.0,30.0,5.0,0.0
847,77.0,0.0,30.0,0.0,0.0
848,81.0,0.0,30.0,0.0,0.0
849,57.0,30.0,30.0,4.0,0.0
850,58.0,30.0,30.0,5.0,0.0
851,85.0,0.0,30.0,0.0,0.0
852,82.0,0.0,30.0,0.0,0.0
853,73.0,0.0,30.0,1.0,0.0
854,70.0,0.0,30.0,1.0,0.0
855,61.0,0.0,30.0,4.0,0.0
856,84.0,0.0,30.0,0.0,0.0
857,60.0,30.0,30.0,4.0,0.0
858,81.0,0.0,30.0,0.0,0.0
859,72.0,0.0,30.0,1.0,0.0
860,69.0,0.0,30.0,1.0,0.0
861,57.0,0.0,30.0,5.0,0.0
862,70.0,0.0,30.0,1.0,0.0
863,85.0,30.0,30.0,0.0,0.0
864,82.0,0.0,30.0,0.0,0.0
865,73.0,0.0,30.0,1.0,0.0
866,58.0,0.0,30.0,5.0,0.0
867,61.0,0.0,30.0,4.0,0.0
868,57.0,0.0,30.0,5.0,0.0
869,72.0,0.0,30.0,1.0,0.0
870,69.0,30.0,30.0,1.0,0.0
871,84.0,0.0,30.0,0.0,0.0
872,60.0,0.0,30.0,4.0,0.0
873,81.0,0.0,30.0,0.0,0.0
874,58.0,0.0,30.0,5.0,0.0
875,73.0,0.0,30.0,1.0,0.0
876,61.0,0.0,30.0,4.0,0.0
877,82.0,0.0,30.0,0.0,0.0
878,85.0,0.0,30.0,0.0,0.0
879,70.0,30.0,30.0,1.0,0.0
880,84.0,0.0,30.0,0.0,0.0
881,81.0,30.0,30.0,0.0,0.0
882,60.0,0.0,30.0,4.0,0.0
883,57.0,0.0,30.0,5.0,0.0
884,72.0,0.0,30.0,1.0,0.0
885,69.0,0.0,30.0,1.0,0.0
886,62.0,0.0,30.0,4.0,0.0
887,74.0,0.0,30.0,1.0,0.0
888,71.0,0.0,30.0,1.0,0.0
889,59.0,0.0,30.0,5.0,0.0
890,86.0,0.0,30.0,0.0,0.0
891,83.0,30.0,30.0,0.0,0.0
892,72.0,0.0,30.0,1.0,0.0
893,75.0,0.0,30.0,1.0,0.0
894,63.0,0.0,30.0,4.0,0.0
895,87.0,0.0,30.0,0.0,0.0
896,60.0,30.0,30.0,5.0,0.0
897,84.0,0.0,30.0,0.0,0.0
898,62.0,0.0,30.0,4.0,0.0
899,59.0,0.0,30.0,5.0,0.0
900,83.0,30.0,30.0,0.0,0.0
901,86.0,0.0,30.0,0.0,0.0
902,71.0,0.0,30.0,1.0,0.0
903,74.0,0.0,30.0,1.0,0.0
904,75.0,0.0,30.0,1.0,0.0
905,87.0,0.0,30.0,0.0,0.0
906,63.0,0.0,30.0,4.0,0.0
907,60.0,30.0,30.0,5.0,0.0
908,84.0,0.0,30.0,0.0,0.0
909,72.0,0.0,30.0,1.0,0.0
910,86.0,60.0,30.0,0.0,0.0
911,59.0,0.0,30.0,5.0,0.0
912,83.0,0.0,30.0,0.0,0.0
913,71.0,0.0,30.0,1.0,0.0
914,74.0,0.0,30.0,1.0,0.0
915,62.0,0.0,30.0,4.0,0.0
916,65.0,0.0,390.0,3.0,0.0
917,60.0,0.0,390.0,5.0,0.0
918,75.0,59.0,390.0,1.0,0.0
919,84.0,0.0,390.0,0.0,0.0
920,72.0,0.0,390.0,1.0,0.0
921,63.0,0.0,390.0,4.0,0.0
922,87.0,0.0,390.0,0.0,0.0
923,40.0,0.0,30.0,2.0,0.0
924,52.0,0.0,30.0,6.0,0.0
925,28.0,0.0,30.0,8.0,0.0
926,40.0,30.0,30.0,7.0,0.0
927,41.0,30.0,30.0,2.0,0.0
928,29.0,0.0,30.0,8.0,0.0
929,53.0,0.0,30.0,6.0,0.0
930,41.0,0.0,30.0,7.0,0.0
931,43.0,30.0,30.0,7.0,0.0
932,55.0,0.0,30.0,6.0,0.0
933,31.0,0.0,30.0,8.0,0.0
934,43.0,0.0,30.0,2.0,0.0
935,33.0,30.0,30.0,8.0,0.0
936,57.0,0.0,30.0,6.0,0.0
937,45.0,0.0,30.0,7.0,0.0
938,45.0,0.0,30.0,2.0,0.0
939,46.0,0.0,30.0,2.0,0.0
940,34.0,0.0,30.0,8.0,0.0
941,58.0,0.0,30.0,6.0,0.0
942,46.0,30.0,30.0,7.0,0.0
943,60.0,0.0,30.0,6.0,0.0
944,48.0,30.0,30.0,2.0,0.0
945,48.0,0.0,30.0,7.0,0.0
946,36.0,0.0,30.0,8.0,0.0
947,62.0,0.0,30.0,6.0,0.0
948,38.0,0.0,30.0,8.0,0.0
949,50.0,30.0,30.0,2.0,0.0
950,50.0,0.0,30.0,7.0,0.0
951,51.0,0.0,30.0,7.0,0.0
952,51.0,0.0,30.0,2.0,0.0
953,39.0,30.0,30.0,8.0,0.0
954,63.0,0.0,30.0,6.0,0.0
955,62.0,0.0,30.0,6.0,0.0
956,50.0,0.0,30.0,7.0,0.0
957,38.0,30.0,30.0,8.0,0.0
958,50.0,0.0,30.0,2.0,0.0
959,48.0,0.0,30.0,2.0,0.0
960,48.0,0.0,30.0,7.0,0.0
961,60.0,30.0,30.0,6.0,0.0
962,36.0,0.0,30.0,8.0,0.0
963,46.0,0.0,30.0,2.0,0.0
964,46.0,0.0,30.0,7.0,0.0
965,34.0,30.0,30.0,8.0,0.0
966,58.0,0.0,30.0,6.0,0.0
967,45.0,1.0,30.0,2.0,0.0
968,33.0,0.0,30.0,8.0,0.0
969,57.0,0.0,30.0,6.0,0.0
970,45.0,0.0,30.0,7.0,0.0
971,75.0,0.0,30.0,0.0,0.0
972,77.0,0.0,30.0,0.0,0.0
973,51.0,0.0,30.0,5.0,0.0
974,33.0,60.0,30.0,8.0,0.0
975,45.0,0.0,30.0,2.0,0.0
976,48.0,0.0,30.0,6.0,0.0
977,53.0,0.0,30.0,4.0,0.0
978,65.0,0.0,30.0,1.0,0.0
979,72.0,0.0,30.0,1.0,0.0
980,45.0,0.0,30.0,7.0,0.0
981,51.0,0.0,30.0,5.0,0.0
982,33.0,0.0,30.0,8.0,0.0
983,65.0,60.0,30.0,1.0,0.0
984,77.0,0.0,30.0,0.0,0.0
985,45.0,0.0,30.0,7.0,0.0
986,45.0,0.0,30.0,2.0,0.0
987,53.0,0.0,30.0,4.0,0.0
988,48.0,0.0,30.0,6.0,0.0
989,72.0,0.0,30.0,1.0,0.0
990,75.0,0.0,30.0,0.0,0.0
991,45.0,0.0,30.0,7.0,0.0
992,77.0,0.0,30.0,0.0,0.0
993,75.0,0.0,30.0,0.0,0.0
994,53.0,0.0,30.0,4.0,0.0
995,65.0,0.0,30.0,1.0,0.0
996,72.0,0.0,30.0,1.0,0.0
997,51.0,180.0,30.0,5.0,0.0
998,33.0,0.0,30.0,8.0,0.0
999,48.0,0.0,30.0,6.0,0.0
1000,60.0,0.0,30.0,6.0,0.0
1001,63.0,0.0,30.0,5.0,0.0
1002,57.0,0.0,30.0,7.0,0.0
1003,79.0,30.0,30.0,4.0,0.0
1004,45.0,0.0,30.0,8.0,0.0
1005,77.0,30.0,30.0,4.0,0.0
1006,60.0,0.0,30.0,6.0,0.0
1007,57.0,0.0,30.0,7.0,0.0
1008,63.0,30.0,30.0,5.0,0.0
1009,45.0,0.0,30.0,8.0,0.0
1010,76.0,0.0,30.0,4.0,0.0
1011,77.0,30.0,30.0,4.0,0.0
1012,60.0,0.0,30.0,6.0,0.0
1013,45.0,0.0,30.0,8.0,0.0
1014,76.0,0.0,30.0,4.0,0.0
1015,63.0,30.0,30.0,5.0,0.0
1016,57.0,0.0,30.0,7.0,0.0
1017,77.0,30.0,30.0,4.0,0.0
1018,57.0,30.0,30.0,7.0,0.0
1019,45.0,0.0,30.0,8.0,0.0
1020,60.0,0.0,30.0,6.0,0.0
1021,79.0,0.0,30.0,4.0,0.0
1022,63.0,0.0,30.0,5.0,0.0
1023,77.0,360.0,30.0,4.0,0.0
1024,46.0,30.0,960.0,6.0,0.0
1025,46.0,0.0,960.0,7.0,0.0
1026,34.0,0.0,960.0,8.0,0.0
1027,58.0,0.0,960.0,3.0,0.0
1028,46.0,0.0,960.0,2.0,0.0
1029,46.0,0.0,960.0,3.0,0.0
1030,74.0,60.0,60.0,4.0,0.0
1031,65.0,0.0,60.0,5.0,0.0
1032,62.0,0.0,60.0,5.0,0.0
1033,70.0,60.0,60.0,4.0,0.0
1034,75.0,0.0,60.0,4.0,0.0
1035,67.0,60.0,60.0,5.0,0.0
1036,72.0,60.0,60.0,4.0,0.0
1037,63.0,0.0,60.0,5.0,0.0
1038,60.0,60.0,60.0,5.0,0.0
1039,77.0,0.0,120.0,4.0,0.0
1040,57.0,60.0,60.0,5.0,0.0
1041,74.0,0.0,60.0,4.0,0.0
1042,65.0,60.0,60.0,5.0,0.0
1043,70.0,0.0,60.0,4.0,0.0
1044,62.0,60.0,60.0,5.0,0.0
1045,75.0,0.0,60.0,4.0,0.0
1046,67.0,60.0,60.0,5.0,0.0
1047,72.0,0.0,60.0,4.0,0.0
1048,63.0,60.0,60.0,5.0,0.0
1049,77.0,0.0,120.0,4.0,0.0
1050,60.0,60.0,60.0,5.0,0.0
1051,57.0,30.0,60.0,5.0,0.0
1052,58.0,30.0,30.0,5.0,0.0
1053,74.0,0.0,30.0,4.0,0.0
1054,48.0,0.0,30.0,2.0,0.0
1055,75.0,60.0,30.0,4.0,0.0
1056,70.0,0.0,30.0,5.0,0.0
1057,48.0,0.0,30.0,7.0,0.0
1058,36.0,0.0,30.0,8.0,0.0
1059,58.0,0.0,30.0,6.0,0.0
1060,77.0,0.0,30.0,4.0,0.0
1061,50.0,0.0,30.0,7.0,0.0
1062,50.0,0.0,30.0,2.0,0.0
1063,70.0,0.0,30.0,5.0,0.0
1064,58.0,60.0,30.0,6.0,0.0
1065,38.0,0.0,30.0,8.0,0.0
1066,39.0,0.0,30.0,8.0,0.0
1067,70.0,30.0,60.0,5.0,0.0
1068,79.0,30.0,90.0,4.0,0.0
1069,51.0,0.0,30.0,7.0,0.0
1070,58.0,0.0,30.0,6.0,0.0
1071,51.0,30.0,30.0,2.0,0.0
1072,81.0,60.0,30.0,4.0,0.0
1073,82.0,60.0,60.0,4.0,0.0
1074,41.0,0.0,60.0,2.0,0.0
1075,57.0,0.0,60.0,5.0,0.0
1076,69.0,0.0,60.0,0.0,0.0
1077,41.0,0.0,60.0,7.0,0.0
1078,29.0,0.0,60.0,8.0,0.0
1079,65.0,0.0,60.0,4.0,0.0
1080,43.0,0.0,60.0,2.0,0.0
1081,65.0,0.0,60.0,4.0,0.0
1082,58.0,0.0,60.0,5.0,0.0
1083,53.0,60.0,15.0,6.0,0.0
1084,70.0,0.0,60.0,0.0,0.0
1085,77.0,0.0,15.0,0.0,0.0
1086,43.0,0.0,60.0,7.0,0.0
1087,31.0,60.0,60.0,8.0,0.0
1088,65.0,0.0,60.0,4.0,0.0
1089,33.0,0.0,60.0,8.0,0.0
1090,45.0,0.0,60.0,2.0,0.0
1091,72.0,0.0,60.0,0.0,0.0
1092,45.0,0.0,60.0,7.0,0.0
1093,77.0,0.0,60.0,0.0,0.0
1094,63.0,60.0,120.0,4.0,0.0
1095,46.0,0.0,180.0,2.0,0.0
1096,60.0,0.0,15.0,5.0,0.0
1097,75.0,0.0,120.0,0.0,0.0
1098,58.0,30.0,960.0,3.0,0.0
1099,46.0,0.0,960.0,3.0,0.0
1100,46.0,0.0,960.0,7.0,0.0
1101,72.0,0.0,120.0,0.0,0.0
1102,53.0,120.0,15.0,6.0,0.0
1103,34.0,0.0,960.0,8.0,0.0
1104,70.0,60.0,60.0,0.0,0.0
1105,74.0,0.0,60.0,0.0,0.0
1106,58.0,0.0,60.0,5.0,0.0
1107,56.0,0.0,120.0,2.0,0.0
1108,62.0,0.0,15.0,4.0,0.0
1109,46.0,0.0,780.0,6.0,0.0
1110,58.0,0.0,240.0,5.0,0.0
1111,74.0,0.0,60.0,1.0,0.0
1112,70.0,0.0,240.0,1.0,0.0
1113,58.0,60.0,60.0,4.0,0.0
1114,63.0,0.0,60.0,4.0,0.0
1115,55.0,0.0,60.0,2.0,0.0
1116,75.0,60.0,60.0,1.0,0.0
1117,60.0,0.0,60.0,4.0,0.0
1118,54.0,15.0,60.0,2.0,0.0
1119,72.0,0.0,60.0,1.0,0.0
1120,69.0,0.0,90.0,1.0,0.0
1121,57.0,15.0,15.0,5.0,0.0
1122,77.0,0.0,120.0,1.0,0.0
1123,53.0,15.0,30.0,2.0,0.0
1124,65.0,60.0,120.0,4.0,0.0
1125,55.0,0.0,15.0,5.0,0.0
1126,57.0,15.0,15.0,5.0,0.0
1127,50.0,15.0,30.0,2.0,0.0
1128,55.0,0.0,15.0,5.0,0.0
1129,57.0,15.0,15.0,5.0,0.0
1130,51.0,0.0,30.0,2.0,0.0
1131,67.0,15.0,15.0,1.0,0.0
1132,55.0,15.0,15.0,5.0,0.0
1133,48.0,0.0,30.0,2.0,0.0
1134,57.0,0.0,15.0,5.0,0.0
1135,69.0,0.0,15.0,1.0,0.0
1136,58.0,0.0,240.0,5.0,0.0
1137,70.0,0.0,240.0,1.0,0.0
1138,62.0,0.0,60.0,4.0,0.0
1139,74.0,0.0,60.0,1.0,0.0
1140,46.0,60.0,60.0,2.0,0.0
1141,58.0,60.0,60.0,4.0,0.0
1142,56.0,0.0,60.0,2.0,0.0
1143,55.0,0.0,60.0,2.0,0.0
1144,63.0,0.0,60.0,4.0,0.0
1145,75.0,60.0,60.0,1.0,0.0
1146,54.0,15.0,60.0,2.0,0.0
1147,60.0,0.0,60.0,4.0,0.0
1148,72.0,0.0,60.0,1.0,0.0
1149,69.0,15.0,90.0,1.0,0.0
1150,65.0,0.0,120.0,4.0,0.0
1151,57.0,15.0,15.0,5.0,0.0
1152,53.0,0.0,30.0,2.0,0.0
1153,55.0,15.0,15.0,5.0,0.0
1154,50.0,15.0,30.0,2.0,0.0
1155,57.0,15.0,15.0,5.0,0.0
1156,55.0,0.0,15.0,5.0,0.0
1157,57.0,15.0,15.0,5.0,0.0
1158,51.0,0.0,30.0,2.0,0.0
1159,55.0,0.0,15.0,5.0,0.0
1160,67.0,0.0,15.0,1.0,0.0
1161,55.0,15.0,15.0,5.0,0.0
1162,48.0,0.0,30.0,2.0,0.0
1163,69.0,0.0,15.0,1.0,0.0
1164,57.0,30.0,15.0,5.0,0.0
1165,62.0,0.0,30.0,4.0,0.0
1166,46.0,0.0,60.0,2.0,0.0
1167,70.0,0.0,60.0,1.0,0.0
1168,58.0,30.0,30.0,5.0,0.0
1169,74.0,0.0,30.0,0.0,0.0
1170,70.0,0.0,30.0,0.0,0.0
1171,70.0,0.0,30.0,0.0,0.0
1172,75.0,0.0,30.0,0.0,0.0
1173,63.0,60.0,30.0,4.0,0.0
1174,48.0,0.0,30.0,7.0,0.0
1175,46.0,0.0,30.0,6.0,0.0
1176,58.0,0.0,30.0,5.0,0.0
1177,36.0,0.0,30.0,8.0,0.0
1178,65.0,60.0,30.0,4.0,0.0
1179,58.0,0.0,30.0,5.0,0.0
1180,50.0,0.0,30.0,7.0,0.0
1181,38.0,0.0,30.0,8.0,0.0
1182,77.0,0.0,30.0,0.0,0.0
1183,70.0,0.0,30.0,0.0,0.0
1184,46.0,0.0,30.0,6.0,0.0
1185,46.0,0.0,30.0,6.0,0.0
1186,67.0,0.0,90.0,4.0,0.0
1187,70.0,0.0,30.0,0.0,0.0
1188,58.0,60.0,30.0,5.0,0.0
1189,79.0,30.0,90.0,0.0,0.0
1190,39.0,0.0,30.0,8.0,0.0
1191,51.0,0.0,30.0,7.0,0.0
1192,81.0,0.0,30.0,0.0,0.0
1193,69.0,60.0,30.0,4.0,0.0
1194,82.0,60.0,60.0,0.0,0.0
1195,70.0,0.0,60.0,4.0,0.0
1196,65.0,60.0,60.0,1.0,0.0
1197,71.0,0.0,60.0,0.0,0.0
1198,74.0,0.0,60.0,0.0,0.0
1199,55.0,0.0,15.0,2.0,0.0
1200,65.0,0.0,60.0,1.0,0.0
1201,55.0,60.0,60.0,2.0,0.0
1202,65.0,0.0,60.0,1.0,0.0
1203,74.0,60.0,15.0,0.0,0.0
1204,71.0,0.0,15.0,0.0,0.0
1205,63.0,30.0,60.0,1.0,0.0
1206,75.0,30.0,90.0,0.0,0.0
1207,72.0,0.0,90.0,0.0,0.0
1208,48.0,0.0,60.0,2.0,0.0
1209,74.0,0.0,30.0,0.0,0.0
1210,77.0,60.0,30.0,0.0,0.0
1211,79.0,60.0,60.0,0.0,0.0
1212,75.0,0.0,60.0,0.0,0.0
1213,69.0,0.0,60.0,1.0,0.0
1214,72.0,60.0,60.0,1.0,0.0
1215,63.0,0.0,60.0,2.0,0.0
1216,53.0,0.0,60.0,2.0,0.0
1217,63.0,0.0,60.0,2.0,0.0
1218,53.0,0.0,60.0,2.0,0.0
1219,72.0,0.0,60.0,1.0,0.0
1220,69.0,60.0,60.0,1.0,0.0
1221,53.0,0.0,60.0,2.0,0.0
1222,69.0,30.0,60.0,1.0,0.0
1223,63.0,0.0,60.0,2.0,0.0
1224,72.0,0.0,60.0,1.0,0.0
1225,46.0,0.0,120.0,8.0,0.0
1226,58.0,0.0,60.0,2.0,0.0
1227,62.0,30.0,60.0,2.0,0.0
1228,70.0,0.0,30.0,1.0,0.0
1229,74.0,30.0,30.0,1.0,0.0
1230,58.0,0.0,120.0,7.0,0.0
1231,62.0,0.0,120.0,5.0,0.0
1232,53.0,0.0,120.0,6.0,0.0
1233,65.0,0.0,120.0,4.0,0.0
1234,72.0,0.0,30.0,1.0,0.0
1235,75.0,0.0,30.0,1.0,0.0
1236,77.0,30.0,30.0,1.0,0.0
1237,74.0,0.0,30.0,1.0,0.0
1238,74.0,30.0,30.0,1.0,0.0
1239,70.0,0.0,30.0,1.0,0.0
1240,60.0,0.0,60.0,5.0,0.0
1241,55.0,0.0,60.0,6.0,0.0
1242,63.0,0.0,60.0,4.0,0.0
1243,67.0,0.0,30.0,1.0,0.0
1244,75.0,30.0,30.0,1.0,0.0
1245,39.0,30.0,60.0,8.0,0.0
1246,51.0,0.0,60.0,7.0,0.0
1247,63.0,0.0,30.0,1.0,0.0
1248,72.0,0.0,30.0,1.0,0.0
1249,53.0,0.0,120.0,7.0,0.0
1250,62.0,0.0,60.0,1.0,0.0
1251,70.0,0.0,60.0,1.0,0.0
1252,74.0,0.0,30.0,0.0,0.0
1253,82.0,0.0,30.0,0.0,0.0
1254,62.0,0.0,30.0,4.0,0.0
1255,53.0,0.0,120.0,6.0,0.0
1256,58.0,30.0,30.0,5.0,0.0
1257,41.0,0.0,120.0,8.0,0.0
1258,75.0,0.0,30.0,0.0,0.0
1259,63.0,30.0,30.0,4.0,0.0
1260,60.0,0.0,30.0,5.0,0.0
1261,84.0,0.0,30.0,0.0,0.0
1262,62.0,30.0,30.0,5.0,0.0
1263,77.0,0.0,30.0,0.0,0.0
1264,86.0,0.0,30.0,0.0,0.0
1265,65.0,0.0,30.0,4.0,0.0
1266,62.0,0.0,30.0,4.0,0.0
1267,82.0,30.0,30.0,0.0,0.0
1268,74.0,0.0,30.0,0.0,0.0
1269,58.0,0.0,30.0,5.0,0.0
1270,60.0,0.0,30.0,5.0,0.0
1271,41.0,0.0,60.0,7.0,0.0
1272,51.0,60.0,60.0,6.0,0.0
1273,75.0,0.0,30.0,0.0,0.0
1274,29.0,0.0,60.0,8.0,0.0
1275,84.0,0.0,30.0,0.0,0.0
1276,63.0,30.0,30.0,4.0,0.0
1277,53.0,0.0,60.0,6.0,0.0
1278,72.0,0.0,30.0,0.0,0.0
1279,57.0,0.0,30.0,5.0,0.0
1280,60.0,0.0,30.0,4.0,0.0
1281,81.0,0.0,30.0,0.0,0.0
1282,50.0,0.0,60.0,6.0,0.0
1283,34.0,0.0,60.0,8.0,0.0
1284,58.0,0.0,60.0,5.0,0.0
1285,74.0,0.0,60.0,0.0,0.0
1286,82.0,0.0,60.0,0.0,0.0
1287,58.0,0.0,60.0,4.0,0.0
1288,53.0,60.0,60.0,6.0,0.0
1289,46.0,0.0,60.0,7.0,0.0
1290,41.0,0.0,60.0,2.0,0.0
1291,65.0,60.0,60.0,1.0,0.0
1292,46.0,60.0,60.0,2.0,0.0
1293,70.0,0.0,60.0,1.0,0.0
1294,69.0,60.0,60.0,1.0,0.0
1295,45.0,0.0,60.0,2.0,0.0
1296,51.0,60.0,60.0,2.0,0.0
1297,75.0,0.0,60.0,1.0,0.0
1298,74.0,60.0,60.0,1.0,0.0
1299,50.0,0.0,60.0,2.0,0.0
1300,55.0,0.0,60.0,2.0,0.0
1301,79.0,60.0,60.0,1.0,0.0
1302,53.0,30.0,60.0,2.0,0.0
1303,77.0,0.0,60.0,1.0,0.0
1304,55.0,0.0,30.0,7.0,0.0
1305,43.0,0.0,30.0,8.0,0.0
1306,58.0,0.0,30.0,5.0,0.0
1307,62.0,0.0,30.0,4.0,0.0
1308,55.0,60.0,30.0,6.0,0.0
1309,62.0,30.0,60.0,4.0,0.0
1310,39.0,0.0,30.0,8.0,0.0
1311,58.0,0.0,60.0,5.0,0.0
1312,51.0,0.0,30.0,6.0,0.0
1313,51.0,30.0,30.0,7.0,0.0
1314,48.0,0.0,30.0,6.0,0.0
1315,60.0,0.0,30.0,5.0,0.0
1316,36.0,0.0,30.0,8.0,0.0
1317,63.0,0.0,30.0,4.0,0.0
1318,48.0,60.0,30.0,7.0,0.0
1319,41.0,60.0,30.0,8.0,0.0
1320,57.0,0.0,30.0,5.0,0.0
1321,53.0,0.0,30.0,7.0,0.0
1322,53.0,0.0,30.0,6.0,0.0
1323,60.0,0.0,30.0,4.0,0.0
1324,58.0,0.0,30.0,4.0,0.0
1325,46.0,0.0,30.0,6.0,0.0
1326,34.0,0.0,30.0,8.0,0.0
1327,58.0,0.0,30.0,5.0,0.0
1328,46.0,90.0,30.0,7.0,0.0
1329,65.0,60.0,60.0,1.0,0.0
1330,41.0,0.0,60.0,2.0,0.0
1331,46.0,0.0,60.0,2.0,0.0
1332,70.0,60.0,60.0,1.0,0.0
1333,69.0,60.0,60.0,1.0,0.0
1334,45.0,0.0,60.0,2.0,0.0
1335,51.0,60.0,60.0,2.0,0.0
1336,75.0,0.0,60.0,1.0,0.0
1337,50.0,0.0,60.0,2.0,0.0
1338,74.0,60.0,60.0,1.0,0.0
1339,55.0,60.0,60.0,2.0,0.0
1340,79.0,0.0,60.0,1.0,0.0
1341,77.0,0.0,60.0,1.0,0.0
1342,53.0,30.0,60.0,2.0,0.0
1343,55.0,60.0,30.0,6.0,0.0
1344,58.0,0.0,30.0,5.0,0.0
1345,43.0,0.0,30.0,8.0,0.0
1346,55.0,0.0,30.0,7.0,0.0
1347,62.0,0.0,30.0,4.0,0.0
1348,51.0,0.0,30.0,6.0,0.0
1349,58.0,0.0,60.0,5.0,0.0
1350,51.0,30.0,30.0,7.0,0.0
1351,62.0,30.0,60.0,4.0,0.0
1352,39.0,0.0,30.0,8.0,0.0
1353,36.0,0.0,30.0,8.0,0.0
1354,48.0,0.0,30.0,6.0,0.0
1355,63.0,60.0,30.0,4.0,0.0
1356,60.0,0.0,30.0,5.0,0.0
1357,48.0,0.0,30.0,7.0,0.0
1358,53.0,0.0,30.0,7.0,0.0
1359,57.0,0.0,30.0,5.0,0.0
1360,53.0,0.0,30.0,6.0,0.0
1361,41.0,90.0,30.0,8.0,0.0
1362,60.0,0.0,30.0,4.0,0.0
1363,75.0,30.0,60.0,0.0,0.0
1364,79.0,0.0,60.0,0.0,0.0
1365,55.0,0.0,60.0,2.0,0.0
1366,51.0,0.0,60.0,2.0,0.0
1367,63.0,0.0,60.0,1.0,0.0
1368,67.0,0.0,60.0,1.0,0.0
1369,74.0,0.0,30.0,0.0,0.0
1370,62.0,0.0,30.0,1.0,0.0
1371,65.0,0.0,30.0,1.0,0.0
1372,50.0,0.0,30.0,2.0,0.0
1373,53.0,60.0,30.0,2.0,0.0
1374,77.0,0.0,30.0,0.0,0.0
1375,43.0,0.0,30.0,8.0,0.0
1376,55.0,0.0,30.0,6.0,0.0
1377,55.0,0.0,30.0,7.0,0.0
1378,58.0,0.0,30.0,5.0,0.0
1379,62.0,60.0,30.0,4.0,0.0
1380,51.0,0.0,30.0,7.0,0.0
1381,39.0,0.0,30.0,8.0,0.0
1382,62.0,30.0,60.0,4.0,0.0
1383,58.0,0.0,60.0,5.0,0.0
1384,51.0,30.0,30.0,6.0,0.0
1385,48.0,60.0,30.0,7.0,0.0
1386,63.0,0.0,30.0,4.0,0.0
1387,48.0,0.0,30.0,6.0,0.0
1388,36.0,0.0,30.0,8.0,0.0
1389,60.0,0.0,30.0,5.0,0.0
1390,41.0,0.0,30.0,8.0,0.0
1391,60.0,0.0,30.0,4.0,0.0
1392,53.0,0.0,30.0,7.0,0.0
1393,57.0,0.0,30.0,5.0,0.0
1394,53.0,90.0,30.0,6.0,0.0
1395,63.0,0.0,60.0,1.0,0.0
1396,51.0,0.0,60.0,2.0,0.0
1397,57.0,0.0,60.0,2.0,0.0
1398,81.0,0.0,60.0,0.0,0.0
1399,75.0,0.0,60.0,0.0,0.0
1400,69.0,30.0,60.0,1.0,0.0
1401,74.0,0.0,30.0,0.0,0.0
1402,82.0,60.0,30.0,0.0,0.0
1403,62.0,0.0,30.0,1.0,0.0
1404,70.0,0.0,30.0,1.0,0.0
1405,50.0,0.0,30.0,2.0,0.0
1406,58.0,0.0,30.0,2.0,0.0
1407,55.0,60.0,30.0,6.0,0.0
1408,62.0,0.0,30.0,4.0,0.0
1409,58.0,0.0,30.0,5.0,0.0
1410,43.0,0.0,30.0,8.0,0.0
1411,55.0,0.0,30.0,7.0,0.0
1412,62.0,0.0,60.0,4.0,0.0
1413,58.0,30.0,60.0,5.0,0.0
1414,39.0,0.0,30.0,8.0,0.0
1415,51.0,30.0,30.0,6.0,0.0
1416,51.0,0.0,30.0,7.0,0.0
1417,36.0,0.0,30.0,8.0,0.0
1418,48.0,60.0,30.0,6.0,0.0
1419,60.0,0.0,30.0,5.0,0.0
1420,48.0,0.0,30.0,7.0,0.0
1421,63.0,0.0,30.0,4.0,0.0
1422,41.0,0.0,30.0,8.0,0.0
1423,57.0,0.0,30.0,5.0,0.0
1424,60.0,0.0,30.0,4.0,0.0
1425,53.0,0.0,30.0,6.0,0.0
1426,53.0,90.0,30.0,7.0,0.0
1427,69.0,0.0,60.0,1.0,0.0
1428,57.0,0.0,60.0,2.0,0.0
1429,81.0,0.0,60.0,0.0,0.0
1430,84.0,0.0,60.0,0.0,0.0
1431,72.0,40.0,60.0,1.0,0.0
1432,60.0,0.0,60.0,2.0,0.0
1433,28.0,60.0,30.0,8.0,0.0
1434,82.0,0.0,480.0,0.0,0.0
1435,52.0,0.0,30.0,4.0,0.0
1436,85.0,0.0,300.0,0.0,0.0
1437,52.0,0.0,30.0,5.0,0.0
1438,58.0,0.0,480.0,2.0,0.0
1439,61.0,60.0,300.0,2.0,0.0
1440,52.0,0.0,30.0,6.0,0.0
1441,73.0,0.0,300.0,1.0,0.0
1442,70.0,0.0,480.0,1.0,0.0
1443,40.0,0.0,30.0,7.0,0.0
1444,28.0,0.0,30.0,8.0,0.0
1445,52.0,0.0,30.0,4.0,0.0
1446,40.0,0.0,30.0,7.0,0.0
1447,52.0,60.0,30.0,6.0,0.0
1448,52.0,0.0,30.0,5.0,0.0
1449,40.0,0.0,30.0,7.0,0.0
1450,52.0,60.0,30.0,6.0,0.0
1451,52.0,0.0,30.0,4.0,0.0
1452,28.0,0.0,30.0,8.0,0.0
1453,52.0,0.0,30.0,5.0,0.0
1454,52.0,0.0,30.0,6.0,0.0
1455,52.0,60.0,30.0,4.0,0.0
1456,52.0,0.0,30.0,5.0,0.0
1457,40.0,0.0,30.0,7.0,0.0
1458,28.0,0.0,30.0,8.0,0.0
1459,52.0,20.0,30.0,5.0,0.0
1460,28.0,0.0,30.0,8.0,0.0
1461,40.0,0.0,30.0,7.0,0.0
1462,52.0,0.0,30.0,6.0,0.0
1463,52.0,0.0,30.0,4.0,0.0
1464,52.0,0.0,60.0,6.0,0.0
1465,52.0,0.0,60.0,5.0,0.0
1466,86.0,60.0,180.0,0.0,0.0
1467,52.0,40.0,60.0,4.0,0.0
1468,74.0,0.0,180.0,1.0,0.0
1469,40.0,0.0,60.0,7.0,0.0
1470,62.0,0.0,180.0,2.0,0.0
1471,28.0,0.0,60.0,8.0,0.0
1472,53.0,0.0,30.0,5.0,0.0
1473,53.0,0.0,30.0,6.0,0.0
1474,29.0,60.0,30.0,8.0,0.0
1475,41.0,0.0,30.0,7.0,0.0
1476,53.0,0.0,30.0,4.0,0.0
1477,41.0,0.0,30.0,7.0,0.0
1478,53.0,0.0,30.0,5.0,0.0
1479,53.0,20.0,30.0,6.0,0.0
1480,53.0,0.0,30.0,4.0,0.0
1481,29.0,0.0,30.0,8.0,0.0
1482,75.0,0.0,180.0,0.0,0.0
1483,72.0,0.0,180.0,1.0,0.0
1484,60.0,60.0,180.0,2.0,0.0
1485,51.0,0.0,180.0,2.0,0.0
1486,29.0,0.0,60.0,8.0,0.0
1487,41.0,0.0,60.0,7.0,0.0
1488,81.0,0.0,180.0,0.0,0.0
1489,53.0,40.0,60.0,6.0,0.0
1490,53.0,0.0,60.0,4.0,0.0
1491,53.0,0.0,60.0,5.0,0.0
1492,69.0,0.0,180.0,1.0,0.0
1493,30.0,0.0,30.0,8.0,0.0
1494,54.0,60.0,30.0,5.0,0.0
1495,54.0,0.0,30.0,4.0,0.0
1496,42.0,0.0,30.0,7.0,0.0
1497,54.0,0.0,30.0,6.0,0.0
1498,54.0,0.0,30.0,4.0,0.0
1499,30.0,0.0,30.0,8.0,0.0
1500,54.0,0.0,30.0,5.0,0.0
1501,42.0,0.0,30.0,7.0,0.0
1502,54.0,20.0,30.0,6.0,0.0
1503,74.0,0.0,180.0,0.0,0.0
1504,82.0,60.0,180.0,0.0,0.0
1505,54.0,0.0,60.0,4.0,0.0
1506,42.0,40.0,60.0,7.0,0.0
1507,70.0,0.0,360.0,1.0,0.0
1508,54.0,0.0,60.0,5.0,0.0
1509,54.0,0.0,60.0,6.0,0.0
1510,58.0,0.0,180.0,2.0,0.0
1511,50.0,0.0,180.0,2.0,0.0
1512,30.0,0.0,60.0,8.0,0.0
1513,31.0,0.0,30.0,8.0,0.0
1514,43.0,0.0,30.0,7.0,0.0
1515,55.0,60.0,30.0,5.0,0.0
1516,55.0,0.0,30.0,4.0,0.0
1517,55.0,0.0,30.0,6.0,0.0
1518,55.0,0.0,30.0,6.0,0.0
1519,55.0,0.0,30.0,5.0,0.0
1520,43.0,0.0,30.0,7.0,0.0
1521,55.0,20.0,30.0,4.0,0.0
1522,31.0,0.0,30.0,8.0,0.0
1523,31.0,0.0,60.0,8.0,0.0
1524,61.0,60.0,180.0,2.0,0.0
1525,55.0,0.0,60.0,4.0,0.0
1526,58.0,0.0,360.0,2.0,0.0
1527,64.0,0.0,180.0,1.0,0.0
1528,43.0,0.0,60.0,7.0,0.0
1529,55.0,0.0,60.0,5.0,0.0
1530,76.0,0.0,180.0,0.0,0.0
1531,55.0,40.0,60.0,6.0,0.0
1532,73.0,0.0,180.0,0.0,0.0
1533,54.0,0.0,30.0,6.0,0.0
1534,30.0,0.0,30.0,8.0,0.0
1535,42.0,60.0,30.0,7.0,0.0
1536,54.0,0.0,30.0,4.0,0.0
1537,54.0,0.0,30.0,5.0,0.0
1538,54.0,0.0,30.0,6.0,0.0
1539,30.0,20.0,30.0,8.0,0.0
1540,54.0,0.0,30.0,5.0,0.0
1541,42.0,0.0,30.0,7.0,0.0
1542,54.0,0.0,30.0,4.0,0.0
1543,70.0,40.0,180.0,1.0,0.0
1544,62.0,0.0,180.0,2.0,0.0
1545,65.0,0.0,180.0,1.0,0.0
1546,54.0,0.0,60.0,6.0,0.0
1547,42.0,0.0,60.0,7.0,0.0
1548,30.0,0.0,60.0,8.0,0.0
1549,54.0,0.0,60.0,4.0,0.0
1550,77.0,0.0,180.0,0.0,0.0
1551,74.0,0.0,180.0,0.0,0.0
1552,54.0,40.0,60.0,5.0,0.0
1553,41.0,0.0,30.0,7.0,0.0
1554,53.0,0.0,30.0,6.0,0.0
1555,53.0,0.0,30.0,5.0,0.0
1556,53.0,0.0,30.0,4.0,0.0
1557,29.0,60.0,30.0,8.0,0.0
1558,53.0,0.0,30.0,6.0,0.0
1559,29.0,0.0,30.0,8.0,0.0
1560,41.0,0.0,30.0,7.0,0.0
1561,53.0,0.0,30.0,5.0,0.0
1562,53.0,20.0,30.0,4.0,0.0
1563,53.0,68.0,30.0,5.0,0.0
1564,60.0,0.0,180.0,1.0,0.0
1565,63.0,0.0,180.0,1.0,0.0
1566,41.0,0.0,30.0,7.0,0.0
1567,51.0,0.0,180.0,2.0,0.0
1568,57.0,0.0,180.0,2.0,0.0
1569,53.0,0.0,30.0,6.0,0.0
1570,65.0,0.0,300.0,0.0,0.0
1571,69.0,30.0,180.0,0.0,0.0
1572,29.0,0.0,30.0,8.0,0.0
1573,77.0,60.0,60.0,4.0,0.0
1574,77.0,12.0,60.0,4.0,0.0
1575,58.0,0.0,180.0,6.0,0.0
1576,53.0,30.0,30.0,5.0,0.0
1577,58.0,0.0,180.0,2.0,0.0
1578,50.0,0.0,180.0,2.0,0.0
1579,70.0,0.0,120.0,0.0,0.0
1580,34.0,0.0,180.0,8.0,0.0
1581,46.0,30.0,180.0,7.0,0.0
1582,58.0,0.0,120.0,1.0,0.0
1583,62.0,0.0,120.0,1.0,0.0
1584,58.0,30.0,30.0,5.0,0.0
1585,62.0,18.0,30.0,5.0,0.0
1586,77.0,12.0,60.0,4.0,0.0
1587,58.0,30.0,30.0,5.0,0.0
1588,77.0,12.0,60.0,4.0,0.0
1589,53.0,18.0,30.0,5.0,0.0
1590,58.0,0.0,30.0,5.0,0.0
1591,57.0,0.0,180.0,6.0,0.0
1592,51.0,0.0,180.0,2.0,0.0
1593,48.0,30.0,180.0,2.0,0.0
1594,33.0,0.0,180.0,8.0,0.0
1595,53.0,30.0,30.0,5.0,0.0
1596,45.0,0.0,180.0,7.0,0.0
1597,60.0,30.0,30.0,5.0,0.0
1598,79.0,0.0,30.0,4.0,0.0
1599,63.0,30.0,30.0,5.0,0.0
1600,77.0,30.0,30.0,4.0,0.0
1601,60.0,0.0,30.0,5.0,0.0
1602,53.0,0.0,30.0,5.0,0.0
1603,75.0,30.0,30.0,4.0,0.0
1604,60.0,0.0,30.0,5.0,0.0
1605,72.0,0.0,30.0,4.0,0.0
1606,53.0,30.0,30.0,5.0,0.0
1607,65.0,0.0,780.0,3.0,0.0
1608,70.0,0.0,30.0,4.0,0.0
1609,46.0,0.0,180.0,2.0,0.0
1610,58.0,0.0,180.0,6.0,0.0
1611,46.0,30.0,180.0,7.0,0.0
1612,34.0,0.0,180.0,8.0,0.0
1613,70.0,0.0,180.0,1.0,0.0
1614,74.0,0.0,180.0,1.0,0.0
1615,50.0,0.0,180.0,2.0,0.0
1616,74.0,30.0,30.0,4.0,0.0
1617,58.0,0.0,30.0,5.0,0.0
1618,62.0,0.0,30.0,5.0,0.0
1619,77.0,30.0,30.0,4.0,0.0
1620,82.0,0.0,30.0,4.0,0.0
1621,58.0,30.0,30.0,5.0,0.0
1622,53.0,30.0,30.0,5.0,0.0
1623,77.0,0.0,60.0,4.0,0.0
1624,58.0,0.0,30.0,5.0,0.0
1625,72.0,0.0,180.0,1.0,0.0
1626,75.0,0.0,180.0,1.0,0.0
1627,33.0,0.0,180.0,8.0,0.0
1628,45.0,0.0,180.0,7.0,0.0
1629,53.0,30.0,30.0,5.0,0.0
1630,48.0,0.0,180.0,2.0,0.0
1631,57.0,0.0,180.0,6.0,0.0
1632,51.0,0.0,180.0,2.0,0.0
1633,60.0,30.0,30.0,5.0,0.0
1634,63.0,18.0,30.0,5.0,0.0
1635,77.0,12.0,60.0,4.0,0.0
1636,60.0,30.0,30.0,5.0,0.0
1637,53.0,18.0,30.0,5.0,0.0
1638,77.0,12.0,60.0,4.0,0.0
1639,60.0,30.0,30.0,5.0,0.0
1640,34.0,30.0,180.0,8.0,0.0
1641,46.0,0.0,180.0,2.0,0.0
1642,70.0,0.0,180.0,1.0,0.0
1643,74.0,0.0,180.0,1.0,0.0
1644,74.0,0.0,180.0,0.0,0.0
1645,50.0,0.0,180.0,2.0,0.0
1646,46.0,0.0,180.0,7.0,0.0
1647,77.0,0.0,180.0,0.0,0.0
1648,58.0,0.0,180.0,6.0,0.0
1649,53.0,30.0,30.0,5.0,0.0
1650,58.0,30.0,30.0,5.0,0.0
1651,77.0,12.0,60.0,4.0,0.0
1652,62.0,18.0,30.0,5.0,0.0
1653,58.0,30.0,30.0,5.0,0.0
1654,53.0,18.0,30.0,5.0,0.0
1655,77.0,12.0,60.0,4.0,0.0
1656,58.0,0.0,30.0,5.0,0.0
1657,75.0,0.0,180.0,0.0,0.0
1658,81.0,0.0,180.0,0.0,0.0
1659,69.0,0.0,180.0,1.0,0.0
1660,51.0,0.0,180.0,2.0,0.0
1661,48.0,0.0,180.0,2.0,0.0
1662,72.0,0.0,180.0,1.0,0.0
1663,41.0,0.0,180.0,7.0,0.0
1664,57.0,30.0,30.0,5.0,0.0
1665,53.0,0.0,240.0,6.0,0.0
1666,29.0,0.0,180.0,8.0,0.0
1667,60.0,30.0,30.0,5.0,0.0
1668,63.0,0.0,30.0,5.0,0.0
1669,79.0,30.0,30.0,4.0,0.0
1670,60.0,30.0,30.0,5.0,0.0
1671,77.0,0.0,30.0,4.0,0.0
1672,75.0,30.0,30.0,4.0,0.0
1673,65.0,0.0,30.0,5.0,0.0
1674,72.0,0.0,30.0,4.0,0.0
1675,63.0,60.0,30.0,5.0,0.0
1676,70.0,0.0,60.0,1.0,0.0
1677,46.0,0.0,60.0,7.0,0.0
1678,34.0,0.0,60.0,8.0,0.0
1679,70.0,0.0,60.0,4.0,0.0
1680,62.0,0.0,60.0,5.0,0.0
1681,46.0,0.0,60.0,2.0,0.0
1682,50.0,0.0,60.0,2.0,0.0
1683,74.0,0.0,60.0,0.0,0.0
1684,82.0,0.0,60.0,0.0,0.0
1685,53.0,0.0,30.0,5.0,0.0
1686,46.0,0.0,30.0,2.0,0.0
1687,46.0,0.0,30.0,7.0,0.0
1688,70.0,0.0,30.0,0.0,0.0
1689,58.0,30.0,15.0,3.0,0.0
1690,46.0,0.0,30.0,3.0,0.0
1691,50.0,0.0,30.0,2.0,0.0
1692,65.0,0.0,30.0,1.0,0.0
1693,50.0,0.0,30.0,6.0,0.0
1694,34.0,60.0,30.0,8.0,0.0
1695,62.0,0.0,30.0,1.0,0.0
1696,58.0,0.0,30.0,4.0,0.0
1697,50.0,90.0,30.0,2.0,0.0
1698,46.0,0.0,30.0,2.0,0.0
1699,70.0,0.0,30.0,0.0,0.0
1700,50.0,0.0,30.0,6.0,0.0
1701,46.0,0.0,30.0,3.0,0.0
1702,34.0,0.0,30.0,8.0,0.0
1703,53.0,0.0,30.0,5.0,0.0
1704,46.0,0.0,30.0,7.0,0.0
1705,58.0,0.0,30.0,4.0,0.0
1706,58.0,0.0,30.0,3.0,0.0
1707,65.0,0.0,30.0,1.0,0.0
1708,62.0,0.0,30.0,1.0,0.0
1709,46.0,0.0,60.0,7.0,0.0
1710,34.0,0.0,60.0,8.0,0.0
1711,65.0,0.0,60.0,1.0,0.0
1712,50.0,0.0,60.0,6.0,0.0
1713,53.0,240.0,60.0,5.0,0.0
1714,46.0,0.0,60.0,2.0,0.0
1715,62.0,0.0,60.0,1.0,0.0
1716,46.0,0.0,60.0,3.0,0.0
1717,58.0,0.0,60.0,3.0,0.0
1718,70.0,0.0,60.0,0.0,0.0
1719,58.0,0.0,60.0,4.0,0.0
1720,50.0,0.0,60.0,2.0,0.0
1721,51.0,60.0,720.0,6.0,0.0
1722,55.0,0.0,120.0,5.0,0.0
1723,51.0,0.0,1140.0,7.0,0.0
1724,39.0,0.0,1140.0,8.0,0.0
1725,63.0,60.0,120.0,4.0,0.0
1726,67.0,0.0,60.0,4.0,0.0
1727,58.0,120.0,60.0,5.0,0.0
1728,56.0,0.0,120.0,5.0,0.0
1729,65.0,60.0,120.0,4.0,0.0
1730,55.0,120.0,60.0,5.0,0.0
1731,63.0,0.0,60.0,4.0,0.0
1732,68.0,60.0,300.0,4.0,0.0
1733,60.0,60.0,120.0,5.0,0.0
1734,63.0,120.0,60.0,5.0,0.0
1735,58.0,0.0,120.0,5.0,0.0
1736,63.0,0.0,60.0,5.0,0.0
1737,67.0,60.0,120.0,4.0,0.0
1738,56.0,0.0,360.0,5.0,0.0
1739,48.0,30.0,180.0,6.0,0.0
1740,65.0,60.0,60.0,4.0,0.0
1741,67.0,0.0,60.0,4.0,0.0
1742,57.0,30.0,30.0,4.0,0.0
1743,50.0,30.0,60.0,6.0,0.0
1744,58.0,0.0,30.0,4.0,0.0
1745,59.0,30.0,30.0,4.0,0.0
1746,51.0,0.0,60.0,6.0,0.0
1747,60.0,30.0,30.0,4.0,0.0
1748,61.0,30.0,30.0,4.0,0.0
1749,53.0,0.0,60.0,6.0,0.0
1750,62.0,30.0,30.0,4.0,0.0
1751,55.0,0.0,60.0,5.0,0.0
1752,46.0,30.0,60.0,6.0,0.0
1753,63.0,30.0,30.0,4.0,0.0
1754,64.0,0.0,30.0,4.0,0.0
1755,65.0,30.0,30.0,4.0,0.0
1756,66.0,30.0,30.0,4.0,0.0
1757,67.0,30.0,30.0,4.0,0.0
1758,68.0,30.0,30.0,4.0,0.0
1759,69.0,30.0,30.0,4.0,0.0
1760,70.0,30.0,30.0,4.0,0.0
1761,72.0,30.0,30.0,4.0,0.0
1762,70.0,30.0,30.0,4.0,0.0
1763,68.0,25.0,30.0,4.0,0.0
1764,65.0,125.0,30.0,4.0,0.0
1765,63.0,0.0,120.0,4.0,0.0
1766,51.0,0.0,1140.0,3.0,0.0
1767,63.0,0.0,1140.0,3.0,0.0
1768,75.0,60.0,120.0,0.0,0.0
1769,67.0,0.0,120.0,0.0,0.0
1770,55.0,0.0,120.0,5.0,0.0
1771,39.0,60.0,1080.0,7.0,0.0
1772,51.0,0.0,120.0,2.0,0.0
1773,51.0,60.0,720.0,6.0,0.0
1774,67.0,120.0,60.0,4.0,0.0
1775,55.0,0.0,60.0,2.0,0.0
1776,58.0,0.0,60.0,5.0,0.0
1777,79.0,0.0,60.0,0.0,0.0
1778,70.0,0.0,60.0,0.0,0.0
1779,68.0,0.0,120.0,0.0,0.0
1780,56.0,0.0,120.0,5.0,0.0
1781,53.0,0.0,120.0,2.0,0.0
1782,65.0,0.0,120.0,4.0,0.0
1783,77.0,60.0,120.0,0.0,0.0
1784,55.0,0.0,60.0,5.0,0.0
1785,51.0,60.0,60.0,2.0,0.0
1786,63.0,0.0,60.0,4.0,0.0
1787,67.0,0.0,60.0,0.0,0.0
1788,75.0,0.0,60.0,0.0,0.0
1789,60.0,0.0,120.0,5.0,0.0
1790,72.0,60.0,180.0,1.0,0.0
1791,70.0,0.0,60.0,4.0,0.0
1792,58.0,60.0,60.0,2.0,0.0
1793,75.0,0.0,360.0,0.0,0.0
1794,82.0,0.0,60.0,0.0,0.0
1795,69.0,60.0,60.0,4.0,0.0
1796,81.0,0.0,60.0,0.0,0.0
1797,57.0,0.0,60.0,2.0,0.0
1798,63.0,0.0,60.0,5.0,0.0
1799,80.0,0.0,120.0,0.0,0.0
1800,56.0,60.0,120.0,2.0,0.0
1801,68.0,0.0,120.0,4.0,0.0
1802,58.0,0.0,120.0,5.0,0.0
1803,70.0,0.0,180.0,1.0,0.0
1804,66.0,60.0,60.0,4.0,0.0
1805,78.0,0.0,60.0,0.0,0.0
1806,54.0,0.0,60.0,2.0,0.0
1807,79.0,60.0,120.0,0.0,0.0
1808,55.0,0.0,120.0,2.0,0.0
1809,63.0,0.0,60.0,5.0,0.0
1810,67.0,0.0,120.0,4.0,0.0
1811,50.0,0.0,180.0,6.0,0.0
1812,58.0,0.0,360.0,5.0,0.0
1813,56.0,0.0,360.0,5.0,0.0
1814,68.0,0.0,360.0,1.0,0.0
1815,74.0,0.0,180.0,0.0,0.0
1816,64.0,0.0,60.0,4.0,0.0
1817,52.0,0.0,60.0,2.0,0.0
1818,76.0,60.0,60.0,0.0,0.0
1819,65.0,0.0,60.0,4.0,0.0
1820,77.0,30.0,60.0,0.0,0.0
1821,53.0,0.0,60.0,2.0,0.0
1822,70.0,0.0,180.0,0.0,0.0
1823,69.0,0.0,30.0,0.0,0.0
1824,57.0,30.0,30.0,4.0,0.0
1825,45.0,0.0,30.0,2.0,0.0
1826,58.0,30.0,30.0,4.0,0.0
1827,46.0,0.0,30.0,2.0,0.0
1828,71.0,30.0,30.0,0.0,0.0
1829,47.0,0.0,30.0,2.0,0.0
1830,51.0,0.0,60.0,6.0,0.0
1831,59.0,0.0,30.0,4.0,0.0
1832,60.0,0.0,30.0,4.0,0.0
1833,48.0,0.0,30.0,2.0,0.0
1834,72.0,30.0,30.0,0.0,0.0
1835,53.0,0.0,60.0,6.0,0.0
1836,61.0,30.0,30.0,4.0,0.0
1837,49.0,0.0,30.0,2.0,0.0
1838,73.0,0.0,30.0,0.0,0.0
1839,74.0,0.0,30.0,0.0,0.0
1840,50.0,0.0,30.0,2.0,0.0
1841,62.0,0.0,30.0,4.0,0.0
1842,75.0,0.0,60.0,0.0,0.0
1843,27.0,0.0,15.0,8.0,0.0
1844,51.0,0.0,60.0,2.0,0.0
1845,55.0,100.0,60.0,5.0,0.0
1846,67.0,0.0,60.0,1.0,0.0
1847,58.0,0.0,60.0,5.0,0.0
1848,63.0,0.0,60.0,4.0,0.0
1849,51.0,0.0,60.0,6.0,0.0
1850,39.0,0.0,60.0,7.0,0.0
1851,51.0,60.0,30.0,7.0,0.0
1852,51.0,0.0,30.0,6.0,0.0
1853,39.0,0.0,30.0,8.0,0.0
1854,63.0,0.0,30.0,5.0,0.0
1855,63.0,0.0,30.0,4.0,0.0
1856,50.0,0.0,30.0,6.0,0.0
1857,50.0,0.0,30.0,7.0,0.0
1858,62.0,0.0,30.0,4.0,0.0
1859,38.0,60.0,30.0,8.0,0.0
1860,62.0,0.0,30.0,5.0,0.0
1861,39.0,0.0,30.0,8.0,0.0
1862,63.0,0.0,30.0,4.0,0.0
1863,51.0,0.0,30.0,7.0,0.0
1864,51.0,60.0,30.0,6.0,0.0
1865,63.0,0.0,30.0,5.0,0.0
1866,65.0,0.0,30.0,4.0,0.0
1867,41.0,80.0,30.0,8.0,0.0
1868,65.0,0.0,30.0,5.0,0.0
1869,53.0,0.0,30.0,7.0,0.0
1870,53.0,0.0,30.0,6.0,0.0
1871,58.0,100.0,60.0,5.0,0.0
1872,58.0,0.0,60.0,4.0,0.0
1873,34.0,0.0,60.0,8.0,0.0
1874,46.0,0.0,60.0,6.0,0.0
1875,46.0,0.0,60.0,7.0,0.0
1876,53.0,0.0,30.0,7.0,0.0
1877,65.0,0.0,30.0,5.0,0.0
1878,65.0,0.0,30.0,4.0,0.0
1879,53.0,0.0,30.0,6.0,0.0
1880,41.0,60.0,30.0,8.0,0.0
1881,39.0,0.0,30.0,8.0,0.0
1882,51.0,0.0,30.0,6.0,0.0
1883,51.0,0.0,30.0,7.0,0.0
1884,63.0,0.0,30.0,5.0,0.0
1885,63.0,60.0,30.0,4.0,0.0
1886,65.0,0.0,30.0,4.0,0.0
1887,41.0,0.0,30.0,8.0,0.0
1888,65.0,0.0,30.0,5.0,0.0
1889,53.0,60.0,30.0,6.0,0.0
1890,53.0,0.0,30.0,7.0,0.0
1891,67.0,0.0,30.0,5.0,0.0
1892,55.0,0.0,30.0,6.0,0.0
1893,43.0,0.0,30.0,8.0,0.0
1894,67.0,50.0,30.0,4.0,0.0
1895,55.0,0.0,30.0,7.0,0.0
1896,46.0,0.0,30.0,6.0,0.0
1897,46.0,0.0,60.0,7.0,0.0
1898,34.0,0.0,60.0,8.0,0.0
1899,58.0,30.0,30.0,5.0,0.0
1900,58.0,0.0,60.0,4.0,0.0
1901,46.0,0.0,1500.0,3.0,0.0
1902,58.0,0.0,1500.0,3.0,0.0
1903,58.0,30.0,30.0,6.0,0.0
1904,55.0,0.0,30.0,5.0,0.0
1905,55.0,0.0,30.0,5.0,0.0
1906,58.0,30.0,15.0,6.0,0.0
1907,55.0,0.0,30.0,5.0,0.0
1908,55.0,10.0,30.0,5.0,0.0
1909,58.0,30.0,15.0,6.0,0.0
1910,75.0,20.0,30.0,4.0,0.0
1911,55.0,30.0,30.0,5.0,0.0
1912,58.0,0.0,15.0,6.0,0.0
1913,74.0,20.0,30.0,4.0,0.0
1914,56.0,0.0,30.0,5.0,0.0
1915,56.0,0.0,30.0,5.0,0.0
1916,58.0,10.0,15.0,6.0,0.0
1917,56.0,10.0,30.0,5.0,0.0
1918,75.0,20.0,30.0,4.0,0.0
1919,58.0,30.0,15.0,6.0,0.0
1920,58.0,0.0,30.0,6.0,0.0
1921,39.0,20.0,30.0,8.0,0.0
1922,56.0,30.0,15.0,5.0,0.0
1923,58.0,0.0,30.0,6.0,0.0
1924,51.0,0.0,30.0,7.0,0.0
1925,77.0,0.0,30.0,4.0,0.0
1926,56.0,10.0,15.0,5.0,0.0
1927,70.0,0.0,60.0,4.0,0.0
1928,38.0,0.0,30.0,8.0,0.0
1929,58.0,30.0,15.0,6.0,0.0
1930,50.0,20.0,30.0,7.0,0.0
1931,56.0,0.0,15.0,5.0,0.0
1932,58.0,10.0,15.0,6.0,0.0
1933,51.0,0.0,30.0,7.0,0.0
1934,56.0,0.0,15.0,5.0,0.0
1935,58.0,10.0,30.0,6.0,0.0
1936,39.0,20.0,30.0,8.0,0.0
1937,56.0,0.0,15.0,5.0,0.0
1938,58.0,0.0,30.0,6.0,0.0
1939,56.0,30.0,15.0,5.0,0.0
1940,41.0,20.0,30.0,8.0,0.0
1941,58.0,0.0,30.0,6.0,0.0
1942,77.0,0.0,30.0,4.0,0.0
1943,53.0,0.0,30.0,7.0,0.0
1944,58.0,30.0,30.0,6.0,0.0
1945,56.0,10.0,15.0,5.0,0.0
1946,34.0,0.0,60.0,8.0,0.0
1947,46.0,0.0,60.0,7.0,0.0
1948,55.0,0.0,30.0,5.0,0.0
1949,75.0,20.0,30.0,4.0,0.0
1950,58.0,10.0,15.0,6.0,0.0
1951,55.0,30.0,15.0,5.0,0.0
1952,77.0,20.0,30.0,4.0,0.0
1953,58.0,10.0,15.0,6.0,0.0
1954,55.0,0.0,15.0,5.0,0.0
1955,58.0,0.0,30.0,6.0,0.0
1956,53.0,20.0,30.0,7.0,0.0
1957,41.0,0.0,30.0,8.0,0.0
1958,79.0,0.0,30.0,4.0,0.0
1959,58.0,0.0,30.0,6.0,0.0
1960,55.0,10.0,15.0,5.0,0.0
1961,55.0,30.0,15.0,5.0,0.0
1962,58.0,10.0,30.0,6.0,0.0
1963,39.0,0.0,30.0,8.0,0.0
1964,70.0,0.0,60.0,4.0,0.0
1965,51.0,20.0,30.0,7.0,0.0
1966,63.0,0.0,30.0,5.0,0.0
1967,41.0,0.0,30.0,8.0,0.0
1968,63.0,10.0,30.0,5.0,0.0
1969,53.0,20.0,30.0,7.0,0.0
1970,58.0,30.0,15.0,6.0,0.0
1971,58.0,30.0,30.0,6.0,0.0
1972,63.0,0.0,30.0,5.0,0.0
1973,55.0,0.0,30.0,7.0,0.0
1974,63.0,0.0,30.0,5.0,0.0
1975,79.0,20.0,30.0,4.0,0.0
1976,58.0,10.0,30.0,6.0,0.0
1977,43.0,0.0,30.0,8.0,0.0
1978,58.0,30.0,30.0,6.0,0.0
1979,63.0,0.0,30.0,5.0,0.0
1980,77.0,20.0,30.0,4.0,0.0
1981,34.0,30.0,60.0,8.0,0.0
1982,63.0,10.0,30.0,5.0,0.0
1983,56.0,0.0,30.0,6.0,0.0
1984,46.0,0.0,60.0,7.0,0.0
1985,56.0,0.0,30.0,6.0,0.0
1986,63.0,0.0,30.0,5.0,0.0
1987,79.0,20.0,30.0,4.0,0.0
1988,56.0,0.0,15.0,6.0,0.0
1989,63.0,10.0,15.0,5.0,0.0
1990,56.0,0.0,30.0,6.0,0.0
1991,43.0,0.0,30.0,8.0,0.0
1992,55.0,0.0,30.0,7.0,0.0
1993,63.0,10.0,30.0,5.0,0.0
1994,80.0,20.0,30.0,4.0,0.0
1995,56.0,30.0,30.0,6.0,0.0
1996,63.0,0.0,30.0,5.0,0.0
1997,70.0,0.0,60.0,4.0,0.0
1998,41.0,20.0,30.0,8.0,0.0
1999,62.0,0.0,30.0,5.0,0.0
2000,53.0,0.0,30.0,7.0,0.0
2001,56.0,10.0,15.0,6.0,0.0
2002,55.0,0.0,30.0,7.0,0.0
2003,65.0,0.0,15.0,5.0,0.0
2004,43.0,20.0,30.0,8.0,0.0
2005,56.0,30.0,15.0,6.0,0.0
2006,56.0,10.0,15.0,6.0,0.0
2007,65.0,30.0,30.0,5.0,0.0
2008,56.0,0.0,30.0,6.0,0.0
2009,80.0,0.0,30.0,4.0,0.0
2010,44.0,20.0,30.0,8.0,0.0
2011,56.0,0.0,30.0,7.0,0.0
2012,65.0,10.0,15.0,5.0,0.0
2013,56.0,0.0,30.0,6.0,0.0
2014,65.0,30.0,15.0,5.0,0.0
2015,58.0,10.0,30.0,6.0,0.0
2016,34.0,20.0,30.0,8.0,0.0
2017,79.0,0.0,30.0,4.0,0.0
2018,46.0,0.0,30.0,7.0,0.0
2019,65.0,0.0,30.0,5.0,0.0
2020,58.0,30.0,15.0,6.0,0.0
2021,65.0,0.0,30.0,5.0,0.0
2022,80.0,20.0,30.0,4.0,0.0
2023,65.0,30.0,30.0,5.0,0.0
2024,44.0,20.0,30.0,8.0,0.0
2025,58.0,0.0,15.0,6.0,0.0
2026,56.0,0.0,30.0,7.0,0.0
2027,82.0,0.0,30.0,4.0,0.0
2028,65.0,0.0,30.0,5.0,0.0
2029,65.0,30.0,30.0,5.0,0.0
2030,58.0,10.0,15.0,6.0,0.0
2031,63.0,10.0,30.0,5.0,0.0
2032,43.0,0.0,30.0,8.0,0.0
2033,58.0,0.0,15.0,6.0,0.0
2034,55.0,20.0,30.0,7.0,0.0
2035,70.0,0.0,60.0,4.0,0.0
2036,67.0,0.0,30.0,5.0,0.0
2037,56.0,0.0,30.0,7.0,0.0
2038,58.0,30.0,15.0,6.0,0.0
2039,44.0,20.0,30.0,8.0,0.0
2040,67.0,0.0,15.0,5.0,0.0
2041,58.0,0.0,30.0,6.0,0.0
2042,58.0,20.0,30.0,7.0,0.0
2043,46.0,0.0,30.0,8.0,0.0
2044,58.0,10.0,30.0,6.0,0.0
2045,67.0,30.0,15.0,5.0,0.0
2046,82.0,0.0,120.0,4.0,0.0
2047,58.0,60.0,30.0,6.0,0.0
2048,67.0,0.0,30.0,5.0,0.0
2049,63.0,60.0,60.0,6.0,0.0
2050,48.0,0.0,120.0,8.0,0.0
2051,67.0,0.0,60.0,5.0,0.0
2052,60.0,0.0,120.0,7.0,0.0
2053,70.0,60.0,60.0,5.0,0.0
2054,75.0,0.0,60.0,4.0,0.0
2055,67.0,0.0,60.0,6.0,0.0
2056,80.0,60.0,120.0,4.0,0.0
2057,65.0,60.0,60.0,6.0,0.0
2058,68.0,0.0,60.0,5.0,0.0
2059,41.0,0.0,60.0,8.0,0.0
2060,53.0,0.0,60.0,7.0,0.0
2061,46.0,0.0,120.0,8.0,0.0
2062,62.0,0.0,60.0,6.0,0.0
2063,65.0,0.0,60.0,5.0,0.0
2064,58.0,0.0,120.0,7.0,0.0
2065,68.0,60.0,60.0,5.0,0.0
2066,74.0,0.0,60.0,4.0,0.0
2067,65.0,0.0,60.0,6.0,0.0
2068,67.0,0.0,60.0,5.0,0.0
2069,79.0,0.0,60.0,4.0,0.0
2070,63.0,0.0,60.0,6.0,0.0
2071,39.0,0.0,60.0,8.0,0.0
2072,51.0,60.0,60.0,7.0,0.0
2073,68.0,0.0,60.0,5.0,0.0
2074,44.0,0.0,60.0,8.0,0.0
2075,77.0,0.0,60.0,4.0,0.0
2076,60.0,60.0,60.0,6.0,0.0
2077,56.0,0.0,60.0,7.0,0.0
2078,80.0,0.0,60.0,4.0,0.0
2079,53.0,0.0,60.0,7.0,0.0
2080,41.0,0.0,60.0,8.0,0.0
2081,72.0,0.0,60.0,5.0,0.0
2082,56.0,60.0,60.0,6.0,0.0
2083,58.0,0.0,60.0,7.0,0.0
2084,65.0,0.0,60.0,5.0,0.0
2085,74.0,0.0,60.0,4.0,0.0
2086,46.0,60.0,60.0,8.0,0.0
2087,58.0,0.0,60.0,6.0,0.0
2088,58.0,60.0,60.0,6.0,0.0
2089,70.0,0.0,60.0,5.0,0.0
2090,75.0,0.0,60.0,4.0,0.0
2091,55.0,0.0,60.0,7.0,0.0
2092,43.0,0.0,60.0,8.0,0.0
2093,51.0,60.0,60.0,7.0,0.0
2094,39.0,0.0,60.0,8.0,0.0
2095,67.0,0.0,60.0,5.0,0.0
2096,70.0,0.0,60.0,4.0,0.0
2097,63.0,0.0,60.0,6.0,0.0
2098,46.0,0.0,15.0,8.0,0.0
2099,58.0,60.0,15.0,7.0,0.0
2100,72.0,0.0,180.0,4.0,0.0
2101,63.0,0.0,60.0,6.0,0.0
2102,67.0,0.0,60.0,5.0,0.0
2103,67.0,0.0,60.0,6.0,0.0
2104,70.0,60.0,60.0,5.0,0.0
2105,39.0,0.0,60.0,8.0,0.0
2106,51.0,0.0,60.0,7.0,0.0
2107,56.0,60.0,60.0,7.0,0.0
2108,68.0,0.0,60.0,5.0,0.0
2109,65.0,0.0,60.0,6.0,0.0
2110,44.0,0.0,15.0,8.0,0.0
2111,65.0,0.0,60.0,5.0,0.0
2112,62.0,0.0,60.0,6.0,0.0
2113,56.0,0.0,60.0,7.0,0.0
2114,65.0,60.0,60.0,6.0,0.0
2115,50.0,0.0,60.0,7.0,0.0
2116,68.0,0.0,60.0,5.0,0.0
2117,38.0,0.0,60.0,8.0,0.0
2118,51.0,0.0,60.0,7.0,0.0
2119,39.0,0.0,60.0,8.0,0.0
2120,63.0,0.0,60.0,6.0,0.0
2121,70.0,0.0,15.0,4.0,0.0
2122,67.0,0.0,15.0,5.0,0.0
2123,68.0,0.0,30.0,4.0,0.0
2124,60.0,0.0,30.0,6.0,0.0
2125,65.0,0.0,30.0,5.0,0.0
2126,44.0,0.0,30.0,7.0,0.0
2127,32.0,60.0,30.0,8.0,0.0
2128,67.0,0.0,30.0,4.0,0.0
2129,63.0,0.0,30.0,5.0,0.0
2130,34.0,0.0,30.0,8.0,0.0
2131,46.0,60.0,30.0,7.0,0.0
2132,58.0,0.0,30.0,6.0,0.0
2133,46.0,0.0,30.0,7.0,0.0
2134,62.0,90.0,30.0,5.0,0.0
2135,34.0,0.0,30.0,8.0,0.0
2136,65.0,0.0,30.0,4.0,0.0
2137,56.0,0.0,30.0,6.0,0.0
2138,27.0,0.0,60.0,8.0,0.0
2139,39.0,38.0,60.0,7.0,0.0
2140,63.0,0.0,60.0,5.0,0.0
2141,63.0,0.0,60.0,4.0,0.0
2142,55.0,0.0,60.0,6.0,0.0
2143,43.0,0.0,30.0,2.0,0.0
2144,79.0,0.0,30.0,1.0,0.0
2145,55.0,0.0,30.0,3.0,0.0
2146,79.0,0.0,30.0,0.0,0.0
2147,67.0,60.0,30.0,0.0,0.0
2148,67.0,0.0,30.0,3.0,0.0
2149,55.0,0.0,30.0,2.0,0.0
2150,67.0,0.0,30.0,1.0,0.0
2151,55.0,0.0,30.0,3.0,0.0
2152,67.0,60.0,30.0,3.0,0.0
2153,79.0,0.0,30.0,0.0,0.0
2154,43.0,0.0,30.0,2.0,0.0
2155,55.0,0.0,30.0,2.0,0.0
2156,67.0,0.0,30.0,1.0,0.0
2157,79.0,0.0,30.0,1.0,0.0
2158,67.0,0.0,30.0,0.0,0.0
2159,67.0,0.0,30.0,0.0,0.0
2160,55.0,60.0,30.0,2.0,0.0
2161,43.0,0.0,30.0,2.0,0.0
2162,55.0,0.0,30.0,3.0,0.0
2163,67.0,0.0,30.0,1.0,0.0
2164,79.0,0.0,30.0,1.0,0.0
2165,79.0,0.0,30.0,0.0,0.0
2166,67.0,0.0,30.0,3.0,0.0
2167,79.0,0.0,30.0,0.0,0.0
2168,55.0,0.0,30.0,2.0,0.0
2169,43.0,0.0,30.0,2.0,0.0
2170,67.0,0.0,30.0,0.0,0.0
2171,67.0,0.0,30.0,3.0,0.0
2172,67.0,0.0,30.0,1.0,0.0
2173,79.0,60.0,30.0,1.0,0.0
2174,55.0,0.0,30.0,3.0,0.0
2175,55.0,0.0,30.0,2.0,0.0
2176,43.0,0.0,30.0,2.0,0.0
2177,67.0,0.0,30.0,1.0,0.0
2178,67.0,52.0,30.0,0.0,0.0
2179,79.0,0.0,30.0,1.0,0.0
2180,67.0,0.0,30.0,3.0,0.0
2181,55.0,0.0,30.0,3.0,0.0
2182,79.0,0.0,30.0,0.0,0.0
2183,72.0,0.0,180.0,1.0,0.0
2184,60.0,0.0,180.0,2.0,0.0
2185,51.0,0.0,30.0,6.0,0.0
2186,63.0,0.0,180.0,1.0,0.0
2187,55.0,0.0,180.0,2.0,0.0
2188,55.0,0.0,60.0,3.0,0.0
2189,75.0,0.0,180.0,0.0,0.0
2190,67.0,0.0,60.0,3.0,0.0
2191,84.0,0.0,180.0,0.0,0.0
2192,79.0,0.0,120.0,4.0,0.0
2193,48.0,0.0,60.0,7.0,0.0
2194,60.0,30.0,15.0,5.0,0.0
2195,51.0,0.0,15.0,6.0,0.0
2196,36.0,30.0,15.0,8.0,0.0
2197,48.0,0.0,60.0,7.0,0.0
2198,60.0,0.0,30.0,5.0,0.0
2199,77.0,15.0,15.0,4.0,0.0
2200,60.0,0.0,15.0,5.0,0.0
2201,51.0,15.0,15.0,6.0,0.0
2202,75.0,0.0,15.0,4.0,0.0
2203,74.0,15.0,15.0,4.0,0.0
2204,60.0,0.0,15.0,5.0,0.0
2205,51.0,15.0,15.0,6.0,0.0
2206,72.0,0.0,15.0,4.0,0.0
2207,62.0,0.0,180.0,2.0,0.0
2208,56.0,0.0,180.0,2.0,0.0
2209,59.0,0.0,30.0,5.0,0.0
2210,83.0,0.0,180.0,0.0,0.0
2211,48.0,0.0,15.0,7.0,0.0
2212,65.0,0.0,180.0,1.0,0.0
2213,74.0,0.0,180.0,0.0,0.0
2214,36.0,30.0,15.0,8.0,0.0
2215,80.0,15.0,60.0,4.0,0.0
2216,71.0,0.0,180.0,1.0,0.0
2217,53.0,15.0,15.0,6.0,0.0
2218,59.0,0.0,30.0,5.0,0.0
2219,80.0,15.0,60.0,4.0,0.0
2220,36.0,0.0,15.0,8.0,0.0
2221,59.0,0.0,30.0,5.0,0.0
2222,48.0,0.0,60.0,7.0,0.0
2223,53.0,15.0,15.0,6.0,0.0
2224,53.0,0.0,15.0,6.0,0.0
2225,36.0,0.0,15.0,8.0,0.0
2226,80.0,15.0,60.0,4.0,0.0
2227,59.0,30.0,15.0,5.0,0.0
2228,48.0,0.0,60.0,7.0,0.0
2229,53.0,15.0,15.0,6.0,0.0
2230,59.0,0.0,15.0,5.0,0.0
2231,51.0,0.0,60.0,6.0,0.0
2232,36.0,0.0,60.0,8.0,0.0
2233,60.0,0.0,60.0,2.0,0.0
2234,55.0,0.0,60.0,2.0,0.0
2235,63.0,120.0,60.0,1.0,0.0
2236,72.0,0.0,60.0,1.0,0.0
2237,75.0,0.0,60.0,0.0,0.0
2238,48.0,0.0,60.0,7.0,0.0
2239,79.0,180.0,180.0,4.0,0.0
2240,60.0,0.0,60.0,5.0,0.0
2241,84.0,0.0,60.0,0.0,0.0
2242,78.0,30.0,180.0,4.0,0.0
2243,78.0,15.0,30.0,4.0,0.0
2244,57.0,30.0,120.0,6.0,0.0
2245,60.0,0.0,120.0,5.0,0.0
2246,45.0,0.0,120.0,7.0,0.0
2247,33.0,0.0,120.0,8.0,0.0
2248,77.0,45.0,15.0,4.0,0.0
2249,77.0,15.0,30.0,4.0,0.0
2250,75.0,15.0,15.0,4.0,0.0
2251,34.0,0.0,60.0,8.0,0.0
2252,58.0,0.0,60.0,6.0,0.0
2253,75.0,15.0,30.0,4.0,0.0
2254,46.0,30.0,60.0,7.0,0.0
2255,74.0,15.0,15.0,4.0,0.0
2256,51.0,0.0,60.0,7.0,0.0
2257,65.0,0.0,15.0,5.0,0.0
2258,74.0,0.0,30.0,4.0,0.0
2259,55.0,0.0,60.0,6.0,0.0
2260,39.0,30.0,60.0,8.0,0.0
2261,63.0,0.0,15.0,5.0,0.0
2262,72.0,15.0,15.0,4.0,0.0
2263,63.0,0.0,30.0,5.0,0.0
2264,53.0,30.0,60.0,7.0,0.0
2265,72.0,15.0,30.0,4.0,0.0
2266,41.0,0.0,60.0,8.0,0.0
2267,53.0,0.0,60.0,6.0,0.0
2268,62.0,0.0,15.0,5.0,0.0
2269,70.0,15.0,15.0,4.0,0.0
2270,29.0,30.0,60.0,8.0,0.0
2271,51.0,0.0,60.0,6.0,0.0
2272,62.0,0.0,30.0,5.0,0.0
2273,70.0,15.0,30.0,4.0,0.0
2274,41.0,0.0,60.0,7.0,0.0
2275,60.0,15.0,15.0,5.0,0.0
2276,69.0,0.0,15.0,4.0,0.0
2277,46.0,0.0,60.0,7.0,0.0
2278,49.0,30.0,30.0,6.0,0.0
2279,58.0,0.0,30.0,5.0,0.0
2280,61.0,0.0,360.0,2.0,0.0
2281,53.0,0.0,360.0,2.0,0.0
2282,46.0,2.0,360.0,3.0,0.0
2283,58.0,0.0,360.0,3.0,0.0
2284,34.0,30.0,60.0,8.0,0.0
2285,53.0,0.0,30.0,5.0,0.0
2286,49.0,0.0,30.0,6.0,0.0
2287,72.0,0.0,15.0,4.0,0.0
2288,53.0,15.0,15.0,5.0,0.0
2289,49.0,0.0,15.0,6.0,0.0
2290,70.0,15.0,15.0,4.0,0.0
2291,72.0,0.0,15.0,4.0,0.0
2292,53.0,30.0,15.0,5.0,0.0
2293,73.0,30.0,60.0,4.0,0.0
2294,49.0,30.0,15.0,6.0,0.0
2295,53.0,0.0,30.0,5.0,0.0
2296,34.0,0.0,60.0,8.0,0.0
2297,53.0,30.0,30.0,5.0,0.0
2298,46.0,30.0,60.0,7.0,0.0
2299,49.0,0.0,15.0,6.0,0.0
2300,53.0,0.0,30.0,5.0,0.0
2301,49.0,0.0,15.0,6.0,0.0
2302,72.0,0.0,15.0,4.0,0.0
2303,53.0,0.0,15.0,5.0,0.0
2304,70.0,15.0,15.0,4.0,0.0
2305,49.0,15.0,15.0,6.0,0.0
2306,72.0,0.0,15.0,4.0,0.0
2307,73.0,0.0,60.0,4.0,0.0
2308,53.0,0.0,15.0,5.0,0.0
2309,49.0,30.0,15.0,6.0,0.0
2310,53.0,0.0,15.0,5.0,0.0
2311,49.0,30.0,15.0,6.0,0.0
2312,54.0,0.0,15.0,5.0,0.0
2313,61.0,58.0,15.0,5.0,0.0
2314,42.0,45.0,60.0,7.0,0.0
2315,78.0,0.0,180.0,0.0,0.0
2316,70.0,0.0,180.0,5.0,0.0
2317,70.0,0.0,180.0,0.0,0.0
2318,70.0,45.0,180.0,1.0,0.0
2319,78.0,0.0,180.0,4.0,0.0
2320,54.0,0.0,360.0,2.0,0.0
2321,49.0,0.0,15.0,6.0,0.0
2322,30.0,0.0,60.0,8.0,0.0
2323,42.0,0.0,360.0,2.0,0.0
2324,66.0,0.0,180.0,1.0,0.0
2325,61.0,60.0,60.0,6.0,0.0
2326,54.0,0.0,60.0,7.0,0.0
2327,42.0,0.0,60.0,8.0,0.0
2328,54.0,0.0,60.0,7.0,0.0
2329,61.0,0.0,60.0,6.0,0.0
2330,42.0,15.0,60.0,8.0,0.0
2331,73.0,0.0,15.0,4.0,0.0
2332,66.0,0.0,15.0,0.0,0.0
2333,66.0,0.0,15.0,5.0,0.0
2334,73.0,0.0,15.0,0.0,0.0
2335,73.0,0.0,180.0,5.0,0.0
2336,82.0,0.0,180.0,4.0,0.0
2337,42.0,0.0,60.0,8.0,0.0
2338,54.0,60.0,60.0,7.0,0.0
2339,73.0,0.0,180.0,1.0,0.0
2340,82.0,0.0,180.0,0.0,0.0
2341,73.0,0.0,180.0,0.0,0.0
2342,61.0,0.0,180.0,1.0,0.0
2343,61.0,0.0,60.0,6.0,0.0
2344,42.0,60.0,60.0,8.0,0.0
2345,61.0,0.0,60.0,6.0,0.0
2346,54.0,0.0,60.0,7.0,0.0
2347,42.0,0.0,60.0,8.0,0.0
2348,61.0,0.0,60.0,6.0,0.0
2349,54.0,15.0,60.0,7.0,0.0
2350,80.0,60.0,15.0,0.0,0.0
2351,65.0,0.0,15.0,1.0,0.0
2352,71.0,0.0,15.0,5.0,0.0
2353,54.0,0.0,180.0,2.0,0.0
2354,42.0,0.0,180.0,2.0,0.0
2355,71.0,0.0,15.0,1.0,0.0
2356,80.0,0.0,15.0,4.0,0.0
2357,71.0,0.0,15.0,0.0,0.0
2358,71.0,0.0,60.0,5.0,0.0
2359,61.0,0.0,180.0,6.0,0.0
2360,65.0,0.0,60.0,1.0,0.0
2361,80.0,0.0,60.0,0.0,0.0
2362,78.0,0.0,30.0,4.0,0.0
2363,70.0,0.0,30.0,0.0,0.0
2364,78.0,0.0,30.0,0.0,0.0
2365,70.0,0.0,30.0,1.0,0.0
2366,66.0,60.0,30.0,1.0,0.0
2367,70.0,0.0,30.0,5.0,0.0
2368,78.0,0.0,30.0,0.0,0.0
2369,66.0,0.0,30.0,1.0,0.0
2370,70.0,30.0,30.0,5.0,0.0
2371,78.0,0.0,30.0,4.0,0.0
2372,70.0,0.0,30.0,0.0,0.0
2373,70.0,0.0,30.0,1.0,0.0
2374,70.0,0.0,240.0,5.0,0.0
2375,42.0,60.0,15.0,8.0,0.0
2376,78.0,30.0,60.0,4.0,0.0
2377,54.0,0.0,15.0,7.0,0.0
2378,61.0,0.0,240.0,6.0,0.0
2379,77.0,60.0,30.0,4.0,0.0
2380,77.0,30.0,30.0,4.0,0.0
2381,42.0,0.0,360.0,7.0,0.0
2382,77.0,30.0,60.0,4.0,0.0
2383,30.0,0.0,360.0,8.0,0.0
2384,57.0,0.0,60.0,6.0,0.0
2385,72.0,30.0,60.0,5.0,0.0
2386,76.0,30.0,30.0,4.0,0.0
2387,73.0,30.0,60.0,5.0,0.0
2388,58.0,0.0,60.0,6.0,0.0
2389,76.0,30.0,30.0,4.0,0.0
2390,72.0,0.0,60.0,5.0,0.0
2391,76.0,30.0,30.0,4.0,0.0
2392,57.0,30.0,60.0,6.0,0.0
2393,73.0,30.0,60.0,5.0,0.0
2394,58.0,0.0,60.0,6.0,0.0
2395,76.0,30.0,30.0,4.0,0.0
2396,62.0,0.0,60.0,6.0,0.0
2397,76.0,30.0,30.0,4.0,0.0
2398,72.0,60.0,60.0,5.0,0.0
2399,77.0,0.0,60.0,4.0,0.0
2400,60.0,0.0,60.0,6.0,0.0
2401,69.0,0.0,60.0,5.0,0.0
2402,29.0,60.0,60.0,8.0,0.0
2403,41.0,0.0,60.0,7.0,0.0
2404,65.0,0.0,780.0,3.0,0.0
2405,60.0,0.0,60.0,5.0,0.0
2406,60.0,0.0,60.0,5.0,0.0
2407,57.0,60.0,15.0,6.0,0.0
2408,53.0,0.0,60.0,7.0,0.0
2409,70.0,30.0,30.0,4.0,0.0
2410,41.0,0.0,60.0,8.0,0.0
2411,69.0,0.0,30.0,4.0,0.0
2412,58.0,30.0,15.0,6.0,0.0
2413,70.0,30.0,30.0,4.0,0.0
2414,61.0,0.0,15.0,5.0,0.0
2415,72.0,0.0,30.0,4.0,0.0
2416,58.0,0.0,15.0,6.0,0.0
2417,73.0,30.0,30.0,4.0,0.0
2418,61.0,30.0,15.0,5.0,0.0
2419,70.0,30.0,30.0,4.0,0.0
2420,41.0,0.0,60.0,7.0,0.0
2421,60.0,0.0,60.0,5.0,0.0
2422,29.0,0.0,60.0,8.0,0.0
2423,69.0,30.0,30.0,4.0,0.0
2424,72.0,30.0,30.0,4.0,0.0
2425,77.0,30.0,30.0,4.0,0.0
2426,57.0,0.0,15.0,6.0,0.0
2427,75.0,0.0,30.0,4.0,0.0
2428,60.0,0.0,15.0,5.0,0.0
2429,73.0,30.0,30.0,4.0,0.0
2430,57.0,30.0,15.0,6.0,0.0
2431,72.0,30.0,30.0,4.0,0.0
2432,41.0,0.0,60.0,8.0,0.0
2433,58.0,0.0,60.0,6.0,0.0
2434,53.0,0.0,60.0,7.0,0.0
2435,70.0,30.0,30.0,4.0,0.0
2436,69.0,30.0,30.0,4.0,0.0
2437,70.0,30.0,30.0,4.0,0.0
2438,61.0,0.0,15.0,5.0,0.0
2439,58.0,30.0,60.0,6.0,0.0
2440,72.0,0.0,30.0,4.0,0.0
2441,61.0,0.0,15.0,5.0,0.0
2442,73.0,30.0,30.0,4.0,0.0
2443,58.0,0.0,60.0,6.0,0.0
2444,70.0,30.0,30.0,4.0,0.0
2445,41.0,0.0,780.0,2.0,0.0
2446,41.0,0.0,60.0,7.0,0.0
2447,60.0,0.0,60.0,5.0,0.0
2448,57.0,30.0,60.0,6.0,0.0
2449,69.0,30.0,30.0,4.0,0.0
2450,29.0,0.0,60.0,8.0,0.0
2451,72.0,0.0,30.0,4.0,0.0
2452,53.0,30.0,60.0,5.0,0.0
2453,48.0,0.0,60.0,6.0,0.0
2454,65.0,30.0,30.0,4.0,0.0
2455,45.0,0.0,60.0,6.0,0.0
2456,63.0,0.0,30.0,4.0,0.0
2457,61.0,30.0,30.0,4.0,0.0
2458,45.0,30.0,60.0,6.0,0.0
2459,48.0,0.0,60.0,6.0,0.0
2460,53.0,0.0,60.0,5.0,0.0
2461,60.0,0.0,30.0,4.0,0.0
2462,49.0,0.0,60.0,6.0,0.0
2463,53.0,30.0,60.0,7.0,0.0
2464,52.0,0.0,180.0,5.0,0.0
2465,58.0,0.0,30.0,4.0,0.0
2466,41.0,0.0,60.0,8.0,0.0
2467,70.0,30.0,30.0,1.0,0.0
2468,57.0,0.0,30.0,4.0,0.0
2469,69.0,0.0,30.0,1.0,0.0
2470,46.0,0.0,15.0,6.0,0.0
2471,58.0,30.0,30.0,4.0,0.0
2472,70.0,0.0,30.0,1.0,0.0
2473,72.0,0.0,30.0,1.0,0.0
2474,60.0,0.0,30.0,4.0,0.0
2475,73.0,0.0,30.0,1.0,0.0
2476,61.0,30.0,30.0,4.0,0.0
2477,49.0,30.0,15.0,6.0,0.0
2478,46.0,0.0,15.0,6.0,0.0
2479,70.0,30.0,30.0,1.0,0.0
2480,58.0,0.0,30.0,4.0,0.0
2481,53.0,0.0,180.0,5.0,0.0
2482,57.0,30.0,30.0,4.0,0.0
2483,41.0,0.0,60.0,7.0,0.0
2484,48.0,0.0,60.0,6.0,0.0
2485,29.0,0.0,60.0,8.0,0.0
2486,69.0,0.0,30.0,1.0,0.0
2487,72.0,0.0,30.0,1.0,0.0
2488,60.0,0.0,30.0,4.0,0.0
2489,65.0,0.0,30.0,4.0,0.0
2490,45.0,30.0,15.0,6.0,0.0
2491,77.0,30.0,30.0,1.0,0.0
2492,63.0,30.0,30.0,4.0,0.0
2493,75.0,0.0,30.0,1.0,0.0
2494,73.0,30.0,30.0,1.0,0.0
2495,48.0,0.0,15.0,6.0,0.0
2496,61.0,0.0,30.0,4.0,0.0
2497,45.0,0.0,60.0,6.0,0.0
2498,60.0,0.0,30.0,4.0,0.0
2499,72.0,30.0,30.0,1.0,0.0
2500,49.0,0.0,60.0,6.0,0.0
2501,58.0,0.0,30.0,4.0,0.0
2502,53.0,0.0,60.0,7.0,0.0
2503,52.0,30.0,180.0,5.0,0.0
2504,70.0,30.0,30.0,1.0,0.0
2505,41.0,0.0,60.0,8.0,0.0
2506,57.0,0.0,30.0,4.0,0.0
2507,69.0,30.0,30.0,1.0,0.0
2508,58.0,0.0,30.0,4.0,0.0
2509,46.0,0.0,15.0,6.0,0.0
2510,49.0,0.0,60.0,6.0,0.0
2511,70.0,30.0,30.0,1.0,0.0
2512,60.0,0.0,30.0,4.0,0.0
2513,72.0,30.0,30.0,1.0,0.0
2514,61.0,30.0,30.0,4.0,0.0
2515,73.0,0.0,30.0,1.0,0.0
2516,46.0,0.0,60.0,6.0,0.0
2517,49.0,0.0,60.0,6.0,0.0
2518,58.0,0.0,30.0,4.0,0.0
2519,70.0,0.0,30.0,1.0,0.0
2520,69.0,30.0,30.0,1.0,0.0
2521,29.0,0.0,60.0,8.0,0.0
2522,57.0,0.0,30.0,4.0,0.0
2523,41.0,0.0,60.0,7.0,0.0
2524,45.0,0.0,60.0,6.0,0.0
2525,48.0,30.0,60.0,6.0,0.0
2526,53.0,0.0,60.0,5.0,0.0
2527,54.0,0.0,30.0,4.0,0.0
2528,78.0,0.0,30.0,0.0,0.0
2529,66.0,0.0,30.0,1.0,0.0
2530,65.0,30.0,30.0,1.0,0.0
2531,53.0,0.0,30.0,4.0,0.0
2532,77.0,0.0,30.0,0.0,0.0
2533,54.0,0.0,30.0,4.0,0.0
2534,66.0,30.0,30.0,1.0,0.0
2535,78.0,0.0,30.0,0.0,0.0
2536,65.0,30.0,30.0,1.0,0.0
2537,77.0,0.0,30.0,0.0,0.0
2538,53.0,0.0,30.0,4.0,0.0
2539,66.0,0.0,30.0,1.0,0.0
2540,78.0,0.0,30.0,0.0,0.0
2541,54.0,30.0,30.0,4.0,0.0
2542,53.0,0.0,30.0,4.0,0.0
2543,65.0,30.0,30.0,1.0,0.0
2544,77.0,0.0,30.0,0.0,0.0
2545,66.0,0.0,30.0,1.0,0.0
2546,82.0,0.0,30.0,0.0,0.0
2547,78.0,0.0,30.0,0.0,0.0
2548,54.0,0.0,30.0,5.0,0.0
2549,58.0,0.0,30.0,4.0,0.0
2550,70.0,30.0,30.0,1.0,0.0
2551,77.0,0.0,30.0,0.0,0.0
2552,81.0,0.0,30.0,0.0,0.0
2553,65.0,30.0,30.0,1.0,0.0
2554,69.0,0.0,30.0,1.0,0.0
2555,53.0,0.0,30.0,5.0,0.0
2556,57.0,0.0,30.0,4.0,0.0
2557,54.0,0.0,30.0,5.0,0.0
2558,66.0,0.0,30.0,1.0,0.0
2559,82.0,30.0,30.0,0.0,0.0
2560,78.0,0.0,30.0,0.0,0.0
2561,58.0,0.0,30.0,4.0,0.0
2562,70.0,0.0,30.0,1.0,0.0
2563,65.0,0.0,30.0,1.0,0.0
2564,69.0,0.0,30.0,1.0,0.0
2565,53.0,0.0,30.0,5.0,0.0
2566,57.0,0.0,30.0,4.0,0.0
2567,77.0,30.0,30.0,0.0,0.0
2568,81.0,0.0,30.0,0.0,0.0
2569,66.0,0.0,30.0,1.0,0.0
2570,70.0,0.0,30.0,1.0,0.0
2571,58.0,0.0,30.0,4.0,0.0
2572,82.0,0.0,30.0,0.0,0.0
2573,78.0,30.0,30.0,0.0,0.0
2574,54.0,0.0,30.0,5.0,0.0
2575,57.0,0.0,30.0,4.0,0.0
2576,53.0,0.0,30.0,5.0,0.0
2577,65.0,0.0,30.0,1.0,0.0
2578,69.0,0.0,30.0,1.0,0.0
2579,77.0,0.0,30.0,0.0,0.0
2580,81.0,30.0,30.0,0.0,0.0
2581,73.0,0.0,30.0,1.0,0.0
2582,70.0,30.0,30.0,1.0,0.0
2583,58.0,0.0,30.0,5.0,0.0
2584,85.0,0.0,30.0,0.0,0.0
2585,82.0,0.0,30.0,0.0,0.0
2586,61.0,0.0,30.0,4.0,0.0
2587,57.0,0.0,30.0,5.0,0.0
2588,81.0,0.0,30.0,0.0,0.0
2589,84.0,0.0,30.0,0.0,0.0
2590,69.0,0.0,30.0,1.0,0.0
2591,72.0,30.0,30.0,1.0,0.0
2592,60.0,0.0,30.0,4.0,0.0
2593,58.0,0.0,30.0,5.0,0.0
2594,73.0,0.0,30.0,1.0,0.0
2595,82.0,0.0,30.0,0.0,0.0
2596,85.0,30.0,30.0,0.0,0.0
2597,70.0,0.0,30.0,1.0,0.0
2598,61.0,0.0,30.0,4.0,0.0
2599,57.0,0.0,30.0,5.0,0.0
2600,60.0,30.0,30.0,4.0,0.0
2601,84.0,0.0,30.0,0.0,0.0
2602,72.0,0.0,30.0,1.0,0.0
2603,69.0,0.0,30.0,1.0,0.0
2604,81.0,0.0,30.0,0.0,0.0
2605,70.0,0.0,30.0,1.0,0.0
2606,73.0,0.0,30.0,1.0,0.0
2607,58.0,0.0,30.0,5.0,0.0
2608,85.0,0.0,30.0,0.0,0.0
2609,82.0,0.0,30.0,0.0,0.0
2610,61.0,30.0,30.0,4.0,0.0
2611,60.0,30.0,30.0,4.0,0.0
2612,69.0,0.0,30.0,1.0,0.0
2613,72.0,0.0,30.0,1.0,0.0
2614,84.0,0.0,30.0,0.0,0.0
2615,81.0,0.0,30.0,0.0,0.0
2616,57.0,0.0,30.0,5.0,0.0
2617,59.0,0.0,30.0,5.0,0.0
2618,83.0,0.0,30.0,0.0,0.0
2619,74.0,0.0,30.0,1.0,0.0
2620,71.0,30.0,30.0,1.0,0.0
2621,86.0,0.0,30.0,0.0,0.0
2622,62.0,0.0,30.0,4.0,0.0
2623,87.0,30.0,30.0,0.0,0.0
2624,84.0,0.0,30.0,0.0,0.0
2625,72.0,0.0,30.0,1.0,0.0
2626,63.0,0.0,30.0,4.0,0.0
2627,75.0,0.0,30.0,1.0,0.0
2628,60.0,0.0,30.0,5.0,0.0
2629,62.0,0.0,30.0,4.0,0.0
2630,59.0,0.0,30.0,5.0,0.0
2631,71.0,0.0,30.0,1.0,0.0
2632,74.0,0.0,30.0,1.0,0.0
2633,83.0,30.0,30.0,0.0,0.0
2634,86.0,0.0,30.0,0.0,0.0
2635,63.0,0.0,30.0,4.0,0.0
2636,87.0,0.0,30.0,0.0,0.0
2637,72.0,0.0,30.0,1.0,0.0
2638,84.0,0.0,30.0,0.0,0.0
2639,60.0,30.0,30.0,5.0,0.0
2640,75.0,0.0,30.0,1.0,0.0
2641,71.0,0.0,30.0,1.0,0.0
2642,74.0,0.0,30.0,1.0,0.0
2643,83.0,60.0,30.0,0.0,0.0
2644,86.0,0.0,30.0,0.0,0.0
2645,62.0,0.0,30.0,4.0,0.0
2646,59.0,0.0,30.0,5.0,0.0
2647,75.0,0.0,390.0,1.0,0.0
2648,72.0,0.0,390.0,1.0,0.0
2649,87.0,0.0,390.0,0.0,0.0
2650,84.0,0.0,390.0,0.0,0.0
2651,63.0,0.0,390.0,4.0,0.0
2652,65.0,0.0,390.0,3.0,0.0
2653,60.0,59.0,390.0,5.0,0.0
2654,40.0,0.0,30.0,7.0,0.0
2655,28.0,0.0,30.0,8.0,0.0
2656,52.0,30.0,30.0,6.0,0.0
2657,40.0,0.0,30.0,2.0,0.0
2658,29.0,0.0,30.0,8.0,0.0
2659,41.0,0.0,30.0,2.0,0.0
2660,41.0,0.0,30.0,7.0,0.0
2661,53.0,30.0,30.0,6.0,0.0
2662,43.0,0.0,30.0,2.0,0.0
2663,43.0,0.0,30.0,7.0,0.0
2664,31.0,0.0,30.0,8.0,0.0
2665,55.0,30.0,30.0,6.0,0.0
2666,57.0,0.0,30.0,6.0,0.0
2667,33.0,0.0,30.0,8.0,0.0
2668,45.0,0.0,30.0,7.0,0.0
2669,45.0,30.0,30.0,2.0,0.0
2670,58.0,0.0,30.0,6.0,0.0
2671,34.0,30.0,30.0,8.0,0.0
2672,46.0,0.0,30.0,2.0,0.0
2673,46.0,0.0,30.0,7.0,0.0
2674,48.0,0.0,30.0,7.0,0.0
2675,60.0,0.0,30.0,6.0,0.0
2676,48.0,0.0,30.0,2.0,0.0
2677,36.0,30.0,30.0,8.0,0.0
2678,50.0,0.0,30.0,2.0,0.0
2679,50.0,30.0,30.0,7.0,0.0
2680,62.0,0.0,30.0,6.0,0.0
2681,38.0,0.0,30.0,8.0,0.0
2682,51.0,30.0,30.0,2.0,0.0
2683,63.0,0.0,30.0,6.0,0.0
2684,51.0,0.0,30.0,7.0,0.0
2685,39.0,0.0,30.0,8.0,0.0
2686,50.0,0.0,30.0,7.0,0.0
2687,38.0,0.0,30.0,8.0,0.0
2688,62.0,0.0,30.0,6.0,0.0
2689,50.0,30.0,30.0,2.0,0.0
2690,36.0,0.0,30.0,8.0,0.0
2691,48.0,30.0,30.0,2.0,0.0
2692,48.0,0.0,30.0,7.0,0.0
2693,60.0,0.0,30.0,6.0,0.0
2694,58.0,0.0,30.0,6.0,0.0
2695,34.0,30.0,30.0,8.0,0.0
2696,46.0,0.0,30.0,2.0,0.0
2697,46.0,0.0,30.0,7.0,0.0
2698,45.0,0.0,30.0,2.0,0.0
2699,33.0,1.0,30.0,8.0,0.0
2700,45.0,0.0,30.0,7.0,0.0
2701,57.0,0.0,30.0,6.0,0.0
2702,65.0,0.0,30.0,1.0,0.0
2703,51.0,0.0,30.0,5.0,0.0
2704,48.0,60.0,30.0,6.0,0.0
2705,33.0,0.0,30.0,8.0,0.0
2706,45.0,0.0,30.0,2.0,0.0
2707,53.0,0.0,30.0,4.0,0.0
2708,77.0,0.0,30.0,0.0,0.0
2709,75.0,0.0,30.0,0.0,0.0
2710,45.0,0.0,30.0,7.0,0.0
2711,72.0,0.0,30.0,1.0,0.0
2712,77.0,0.0,30.0,0.0,0.0
2713,33.0,0.0,30.0,8.0,0.0
2714,75.0,0.0,30.0,0.0,0.0
2715,45.0,60.0,30.0,7.0,0.0
2716,72.0,0.0,30.0,1.0,0.0
2717,45.0,0.0,30.0,2.0,0.0
2718,53.0,0.0,30.0,4.0,0.0
2719,65.0,0.0,30.0,1.0,0.0
2720,51.0,0.0,30.0,5.0,0.0
2721,48.0,0.0,30.0,6.0,0.0
2722,48.0,0.0,30.0,6.0,0.0
2723,72.0,0.0,30.0,1.0,0.0
2724,75.0,0.0,30.0,0.0,0.0
2725,77.0,0.0,30.0,0.0,0.0
2726,51.0,0.0,30.0,5.0,0.0
2727,65.0,0.0,30.0,1.0,0.0
2728,45.0,180.0,30.0,7.0,0.0
2729,53.0,0.0,30.0,4.0,0.0
2730,33.0,0.0,30.0,8.0,0.0
2731,63.0,0.0,30.0,5.0,0.0
2732,45.0,0.0,30.0,8.0,0.0
2733,79.0,0.0,30.0,4.0,0.0
2734,60.0,30.0,30.0,6.0,0.0
2735,57.0,0.0,30.0,7.0,0.0
2736,77.0,30.0,30.0,4.0,0.0
2737,57.0,0.0,30.0,7.0,0.0
2738,63.0,0.0,30.0,5.0,0.0
2739,60.0,0.0,30.0,6.0,0.0
2740,76.0,30.0,30.0,4.0,0.0
2741,45.0,0.0,30.0,8.0,0.0
2742,77.0,30.0,30.0,4.0,0.0
2743,63.0,0.0,30.0,5.0,0.0
2744,60.0,0.0,30.0,6.0,0.0
2745,76.0,0.0,30.0,4.0,0.0
2746,45.0,0.0,30.0,8.0,0.0
2747,57.0,30.0,30.0,7.0,0.0
2748,77.0,30.0,30.0,4.0,0.0
2749,45.0,30.0,30.0,8.0,0.0
2750,63.0,0.0,30.0,5.0,0.0
2751,79.0,0.0,30.0,4.0,0.0
2752,60.0,0.0,30.0,6.0,0.0
2753,57.0,0.0,30.0,7.0,0.0
2754,77.0,360.0,30.0,4.0,0.0
2755,46.0,0.0,960.0,2.0,0.0
2756,46.0,30.0,960.0,6.0,0.0
2757,58.0,0.0,960.0,3.0,0.0
2758,34.0,0.0,960.0,8.0,0.0
2759,46.0,0.0,960.0,7.0,0.0
2760,46.0,0.0,960.0,3.0,0.0
2761,74.0,0.0,60.0,4.0,0.0
2762,65.0,60.0,60.0,5.0,0.0
2763,70.0,60.0,60.0,4.0,0.0
2764,62.0,0.0,60.0,5.0,0.0
2765,67.0,0.0,60.0,5.0,0.0
2766,75.0,60.0,60.0,4.0,0.0
2767,63.0,0.0,60.0,5.0,0.0
2768,72.0,60.0,60.0,4.0,0.0
2769,60.0,60.0,60.0,5.0,0.0
2770,77.0,60.0,120.0,4.0,0.0
2771,57.0,0.0,60.0,5.0,0.0
2772,65.0,60.0,60.0,5.0,0.0
2773,74.0,0.0,60.0,4.0,0.0
2774,70.0,0.0,60.0,4.0,0.0
2775,62.0,60.0,60.0,5.0,0.0
2776,75.0,0.0,60.0,4.0,0.0
2777,67.0,60.0,60.0,5.0,0.0
2778,72.0,0.0,60.0,4.0,0.0
2779,63.0,60.0,60.0,5.0,0.0
2780,77.0,30.0,120.0,4.0,0.0
2781,60.0,60.0,60.0,5.0,0.0
2782,57.0,0.0,60.0,5.0,0.0
2783,58.0,30.0,30.0,5.0,0.0
2784,74.0,0.0,30.0,4.0,0.0
2785,48.0,0.0,30.0,2.0,0.0
2786,70.0,0.0,30.0,5.0,0.0
2787,48.0,0.0,30.0,7.0,0.0
2788,36.0,60.0,30.0,8.0,0.0
2789,75.0,0.0,30.0,4.0,0.0
2790,58.0,0.0,30.0,6.0,0.0
2791,50.0,0.0,30.0,7.0,0.0
2792,70.0,0.0,30.0,5.0,0.0
2793,77.0,0.0,30.0,4.0,0.0
2794,58.0,0.0,30.0,6.0,0.0
2795,38.0,0.0,30.0,8.0,0.0
2796,50.0,60.0,30.0,2.0,0.0
2797,58.0,0.0,30.0,6.0,0.0
2798,51.0,30.0,30.0,2.0,0.0
2799,51.0,0.0,30.0,7.0,0.0
2800,79.0,30.0,90.0,4.0,0.0
2801,39.0,0.0,30.0,8.0,0.0
2802,70.0,30.0,60.0,5.0,0.0
2803,81.0,60.0,30.0,4.0,0.0
2804,82.0,60.0,60.0,4.0,0.0
2805,77.0,0.0,60.0,0.0,0.0
2806,41.0,0.0,60.0,7.0,0.0
2807,57.0,0.0,60.0,5.0,0.0
2808,29.0,0.0,60.0,8.0,0.0
2809,41.0,0.0,60.0,2.0,0.0
2810,69.0,60.0,60.0,0.0,0.0
2811,53.0,0.0,15.0,6.0,0.0
2812,65.0,0.0,15.0,4.0,0.0
2813,43.0,0.0,60.0,7.0,0.0
2814,70.0,60.0,60.0,0.0,0.0
2815,58.0,0.0,60.0,5.0,0.0
2816,31.0,0.0,60.0,8.0,0.0
2817,43.0,0.0,60.0,2.0,0.0
2818,60.0,0.0,60.0,5.0,0.0
2819,45.0,0.0,60.0,7.0,0.0
2820,45.0,0.0,60.0,2.0,0.0
2821,65.0,0.0,15.0,4.0,0.0
2822,53.0,120.0,60.0,6.0,0.0
2823,77.0,0.0,15.0,0.0,0.0
2824,33.0,0.0,60.0,8.0,0.0
2825,72.0,0.0,15.0,0.0,0.0
2826,58.0,0.0,960.0,3.0,0.0
2827,46.0,0.0,960.0,7.0,0.0
2828,75.0,60.0,120.0,0.0,0.0
2829,46.0,0.0,960.0,3.0,0.0
2830,60.0,0.0,120.0,5.0,0.0
2831,34.0,0.0,960.0,8.0,0.0
2832,46.0,0.0,180.0,2.0,0.0
2833,63.0,0.0,120.0,4.0,0.0
2834,53.0,0.0,180.0,6.0,0.0
2835,70.0,0.0,60.0,0.0,0.0
2836,74.0,0.0,60.0,0.0,0.0
2837,62.0,0.0,60.0,4.0,0.0
2838,58.0,60.0,60.0,5.0,0.0
2839,62.0,0.0,60.0,4.0,0.0
2840,56.0,60.0,120.0,2.0,0.0
2841,70.0,0.0,240.0,1.0,0.0
2842,74.0,60.0,60.0,1.0,0.0
2843,58.0,15.0,240.0,5.0,0.0
2844,58.0,0.0,60.0,4.0,0.0
2845,75.0,0.0,60.0,1.0,0.0
2846,63.0,60.0,60.0,4.0,0.0
2847,55.0,0.0,60.0,2.0,0.0
2848,54.0,0.0,60.0,2.0,0.0
2849,72.0,0.0,60.0,1.0,0.0
2850,60.0,0.0,60.0,4.0,0.0
2851,69.0,0.0,90.0,1.0,0.0
2852,77.0,0.0,120.0,1.0,0.0
2853,65.0,0.0,120.0,4.0,0.0
2854,57.0,15.0,15.0,5.0,0.0
2855,53.0,0.0,30.0,2.0,0.0
2856,55.0,15.0,15.0,5.0,0.0
2857,50.0,0.0,30.0,2.0,0.0
2858,57.0,15.0,15.0,5.0,0.0
2859,55.0,15.0,15.0,5.0,0.0
2860,51.0,0.0,30.0,2.0,0.0
2861,57.0,15.0,15.0,5.0,0.0
2862,67.0,15.0,15.0,1.0,0.0
2863,48.0,0.0,30.0,2.0,0.0
2864,55.0,15.0,15.0,5.0,0.0
2865,57.0,0.0,15.0,5.0,0.0
2866,69.0,60.0,15.0,1.0,0.0
2867,62.0,0.0,60.0,4.0,0.0
2868,58.0,0.0,240.0,5.0,0.0
2869,70.0,0.0,240.0,1.0,0.0
2870,46.0,60.0,60.0,2.0,0.0
2871,74.0,0.0,60.0,1.0,0.0
2872,58.0,60.0,60.0,4.0,0.0
2873,56.0,0.0,60.0,2.0,0.0
2874,75.0,0.0,60.0,1.0,0.0
2875,55.0,0.0,60.0,2.0,0.0
2876,63.0,60.0,60.0,4.0,0.0
2877,54.0,0.0,60.0,2.0,0.0
2878,72.0,15.0,60.0,1.0,0.0
2879,60.0,0.0,60.0,4.0,0.0
2880,57.0,15.0,15.0,5.0,0.0
2881,53.0,15.0,30.0,2.0,0.0
2882,69.0,0.0,90.0,1.0,0.0
2883,65.0,0.0,120.0,4.0,0.0
2884,55.0,0.0,15.0,5.0,0.0
2885,50.0,15.0,30.0,2.0,0.0
2886,57.0,15.0,15.0,5.0,0.0
2887,55.0,0.0,15.0,5.0,0.0
2888,51.0,0.0,30.0,2.0,0.0
2889,57.0,15.0,15.0,5.0,0.0
2890,48.0,0.0,30.0,2.0,0.0
2891,55.0,15.0,15.0,5.0,0.0
2892,67.0,15.0,15.0,1.0,0.0
2893,69.0,30.0,15.0,1.0,0.0
2894,57.0,0.0,15.0,5.0,0.0
2895,46.0,0.0,60.0,2.0,0.0
2896,58.0,0.0,30.0,5.0,0.0
2897,70.0,30.0,60.0,1.0,0.0
2898,70.0,0.0,30.0,0.0,0.0
2899,74.0,0.0,30.0,0.0,0.0
2900,62.0,30.0,30.0,4.0,0.0
2901,58.0,0.0,30.0,5.0,0.0
2902,48.0,0.0,30.0,7.0,0.0
2903,63.0,0.0,30.0,4.0,0.0
2904,36.0,0.0,30.0,8.0,0.0
2905,75.0,0.0,30.0,0.0,0.0
2906,70.0,60.0,30.0,0.0,0.0
2907,46.0,0.0,15.0,6.0,0.0
2908,50.0,0.0,30.0,7.0,0.0
2909,77.0,0.0,30.0,0.0,0.0
2910,46.0,0.0,30.0,6.0,0.0
2911,58.0,0.0,30.0,5.0,0.0
2912,70.0,0.0,30.0,0.0,0.0
2913,65.0,0.0,30.0,4.0,0.0
2914,38.0,60.0,30.0,8.0,0.0
2915,70.0,60.0,30.0,0.0,0.0
2916,67.0,0.0,90.0,4.0,0.0
2917,79.0,30.0,90.0,0.0,0.0
2918,51.0,0.0,30.0,7.0,0.0
2919,58.0,0.0,30.0,5.0,0.0
2920,39.0,0.0,30.0,8.0,0.0
2921,46.0,0.0,30.0,6.0,0.0
2922,81.0,0.0,30.0,0.0,0.0
2923,69.0,60.0,30.0,4.0,0.0
2924,70.0,0.0,60.0,4.0,0.0
2925,82.0,60.0,60.0,0.0,0.0
2926,71.0,0.0,60.0,0.0,0.0
2927,55.0,0.0,60.0,2.0,0.0
2928,71.0,0.0,60.0,0.0,0.0
2929,74.0,60.0,15.0,0.0,0.0
2930,65.0,0.0,15.0,1.0,0.0
2931,55.0,0.0,15.0,2.0,0.0
2932,71.0,0.0,60.0,0.0,0.0
2933,74.0,0.0,15.0,0.0,0.0
2934,65.0,0.0,60.0,1.0,0.0
2935,48.0,0.0,60.0,2.0,0.0
2936,72.0,30.0,90.0,0.0,0.0
2937,75.0,0.0,90.0,0.0,0.0
2938,63.0,30.0,60.0,1.0,0.0
2939,74.0,0.0,30.0,0.0,0.0
2940,77.0,60.0,30.0,0.0,0.0
2941,79.0,60.0,60.0,0.0,0.0
2942,75.0,0.0,60.0,0.0,0.0
2943,63.0,0.0,60.0,2.0,0.0
2944,72.0,0.0,60.0,1.0,0.0
2945,69.0,60.0,60.0,1.0,0.0
2946,53.0,0.0,15.0,2.0,0.0
2947,72.0,0.0,60.0,1.0,0.0
2948,53.0,0.0,15.0,2.0,0.0
2949,63.0,0.0,15.0,2.0,0.0
2950,72.0,0.0,60.0,1.0,0.0
2951,69.0,60.0,15.0,1.0,0.0
2952,58.0,0.0,60.0,2.0,0.0
2953,62.0,0.0,60.0,2.0,0.0
2954,53.0,0.0,120.0,6.0,0.0
2955,65.0,0.0,120.0,4.0,0.0
2956,74.0,30.0,30.0,1.0,0.0
2957,70.0,0.0,30.0,1.0,0.0
2958,46.0,0.0,120.0,8.0,0.0
2959,58.0,30.0,120.0,7.0,0.0
2960,62.0,0.0,120.0,5.0,0.0
2961,75.0,30.0,30.0,1.0,0.0
2962,72.0,0.0,30.0,1.0,0.0
2963,77.0,30.0,30.0,1.0,0.0
2964,74.0,0.0,15.0,1.0,0.0
2965,70.0,0.0,30.0,1.0,0.0
2966,75.0,0.0,30.0,1.0,0.0
2967,67.0,30.0,30.0,1.0,0.0
2968,39.0,30.0,60.0,8.0,0.0
2969,60.0,0.0,60.0,5.0,0.0
2970,55.0,0.0,60.0,6.0,0.0
2971,63.0,0.0,60.0,4.0,0.0
2972,51.0,0.0,60.0,7.0,0.0
2973,72.0,0.0,30.0,1.0,0.0
2974,63.0,0.0,30.0,1.0,0.0
2975,82.0,0.0,30.0,0.0,0.0
2976,74.0,30.0,30.0,0.0,0.0
2977,53.0,0.0,120.0,7.0,0.0
2978,53.0,0.0,120.0,6.0,0.0
2979,58.0,0.0,30.0,5.0,0.0
2980,62.0,0.0,60.0,1.0,0.0
2981,70.0,0.0,60.0,1.0,0.0
2982,41.0,0.0,120.0,8.0,0.0
2983,62.0,0.0,30.0,4.0,0.0
2984,63.0,0.0,30.0,4.0,0.0
2985,60.0,0.0,30.0,5.0,0.0
2986,84.0,0.0,30.0,0.0,0.0
2987,75.0,30.0,30.0,0.0,0.0
2988,62.0,0.0,30.0,5.0,0.0
2989,65.0,0.0,30.0,4.0,0.0
2990,86.0,0.0,30.0,0.0,0.0
2991,77.0,30.0,30.0,0.0,0.0
2992,58.0,0.0,30.0,5.0,0.0
2993,74.0,0.0,30.0,0.0,0.0
2994,82.0,30.0,30.0,0.0,0.0
2995,62.0,0.0,30.0,4.0,0.0
2996,29.0,0.0,60.0,8.0,0.0
2997,63.0,0.0,30.0,4.0,0.0
2998,41.0,0.0,60.0,7.0,0.0
2999,60.0,30.0,30.0,5.0,0.0
3000,84.0,0.0,30.0,0.0,0.0
3001,75.0,0.0,30.0,0.0,0.0
3002,51.0,0.0,60.0,6.0,0.0
3003,60.0,0.0,30.0,4.0,0.0
3004,81.0,0.0,30.0,0.0,0.0
3005,72.0,0.0,30.0,0.0,0.0
3006,57.0,60.0,30.0,5.0,0.0
3007,82.0,0.0,60.0,0.0,0.0
3008,58.0,0.0,60.0,4.0,0.0
3009,50.0,0.0,60.0,6.0,0.0
3010,53.0,0.0,15.0,6.0,0.0
3011,58.0,0.0,60.0,5.0,0.0
3012,74.0,0.0,60.0,0.0,0.0
3013,46.0,0.0,60.0,7.0,0.0
3014,34.0,0.0,60.0,8.0,0.0
3015,41.0,0.0,60.0,2.0,0.0
3016,65.0,60.0,60.0,1.0,0.0
3017,46.0,0.0,60.0,2.0,0.0
3018,70.0,60.0,60.0,1.0,0.0
3019,45.0,60.0,60.0,2.0,0.0
3020,69.0,0.0,60.0,1.0,0.0
3021,75.0,60.0,60.0,1.0,0.0
3022,51.0,0.0,60.0,2.0,0.0
3023,74.0,0.0,60.0,1.0,0.0
3024,50.0,60.0,60.0,2.0,0.0
3025,55.0,0.0,60.0,2.0,0.0
3026,79.0,60.0,60.0,1.0,0.0
3027,77.0,0.0,60.0,1.0,0.0
3028,53.0,30.0,60.0,2.0,0.0
3029,58.0,0.0,30.0,5.0,0.0
3030,55.0,60.0,30.0,7.0,0.0
3031,55.0,0.0,30.0,6.0,0.0
3032,43.0,0.0,30.0,8.0,0.0
3033,62.0,0.0,30.0,4.0,0.0
3034,58.0,0.0,60.0,5.0,0.0
3035,51.0,30.0,30.0,6.0,0.0
3036,39.0,0.0,30.0,8.0,0.0
3037,51.0,0.0,30.0,7.0,0.0
3038,62.0,30.0,60.0,4.0,0.0
3039,48.0,0.0,30.0,6.0,0.0
3040,60.0,60.0,30.0,5.0,0.0
3041,36.0,0.0,30.0,8.0,0.0
3042,63.0,0.0,30.0,4.0,0.0
3043,48.0,0.0,30.0,7.0,0.0
3044,53.0,0.0,30.0,7.0,0.0
3045,41.0,0.0,30.0,8.0,0.0
3046,53.0,60.0,30.0,6.0,0.0
3047,60.0,0.0,30.0,4.0,0.0
3048,57.0,0.0,30.0,5.0,0.0
3049,58.0,0.0,30.0,5.0,0.0
3050,46.0,0.0,30.0,6.0,0.0
3051,58.0,0.0,30.0,4.0,0.0
3052,34.0,90.0,30.0,8.0,0.0
3053,46.0,0.0,30.0,7.0,0.0
3054,41.0,0.0,60.0,2.0,0.0
3055,65.0,60.0,60.0,1.0,0.0
3056,70.0,60.0,60.0,1.0,0.0
3057,46.0,0.0,60.0,2.0,0.0
3058,45.0,0.0,60.0,2.0,0.0
3059,69.0,60.0,60.0,1.0,0.0
3060,75.0,0.0,60.0,1.0,0.0
3061,51.0,60.0,60.0,2.0,0.0
3062,74.0,60.0,60.0,1.0,0.0
3063,50.0,0.0,60.0,2.0,0.0
3064,79.0,60.0,60.0,1.0,0.0
3065,55.0,0.0,60.0,2.0,0.0
3066,53.0,30.0,60.0,2.0,0.0
3067,77.0,0.0,60.0,1.0,0.0
3068,55.0,0.0,30.0,7.0,0.0
3069,58.0,0.0,30.0,5.0,0.0
3070,62.0,0.0,30.0,4.0,0.0
3071,55.0,60.0,30.0,6.0,0.0
3072,43.0,0.0,30.0,8.0,0.0
3073,51.0,0.0,30.0,7.0,0.0
3074,39.0,30.0,30.0,8.0,0.0
3075,51.0,0.0,30.0,6.0,0.0
3076,62.0,0.0,60.0,4.0,0.0
3077,58.0,30.0,60.0,5.0,0.0
3078,60.0,0.0,30.0,5.0,0.0
3079,63.0,0.0,30.0,4.0,0.0
3080,48.0,60.0,30.0,7.0,0.0
3081,48.0,0.0,30.0,6.0,0.0
3082,36.0,0.0,30.0,8.0,0.0
3083,57.0,0.0,30.0,5.0,0.0
3084,53.0,90.0,30.0,6.0,0.0
3085,60.0,0.0,30.0,4.0,0.0
3086,41.0,0.0,30.0,8.0,0.0
3087,53.0,0.0,30.0,7.0,0.0
3088,75.0,30.0,60.0,0.0,0.0
3089,79.0,0.0,60.0,0.0,0.0
3090,51.0,0.0,60.0,2.0,0.0
3091,55.0,0.0,60.0,2.0,0.0
3092,63.0,0.0,60.0,1.0,0.0
3093,67.0,0.0,60.0,1.0,0.0
3094,65.0,0.0,30.0,1.0,0.0
3095,53.0,0.0,30.0,2.0,0.0
3096,50.0,60.0,30.0,2.0,0.0
3097,77.0,0.0,30.0,0.0,0.0
3098,74.0,0.0,30.0,0.0,0.0
3099,62.0,0.0,30.0,1.0,0.0
3100,55.0,0.0,30.0,7.0,0.0
3101,55.0,60.0,30.0,6.0,0.0
3102,62.0,0.0,30.0,4.0,0.0
3103,58.0,0.0,30.0,5.0,0.0
3104,43.0,0.0,30.0,8.0,0.0
3105,39.0,0.0,30.0,8.0,0.0
3106,58.0,30.0,60.0,5.0,0.0
3107,51.0,0.0,30.0,6.0,0.0
3108,62.0,0.0,60.0,4.0,0.0
3109,51.0,30.0,30.0,7.0,0.0
3110,48.0,60.0,30.0,6.0,0.0
3111,48.0,0.0,30.0,7.0,0.0
3112,63.0,0.0,30.0,4.0,0.0
3113,60.0,0.0,30.0,5.0,0.0
3114,36.0,0.0,30.0,8.0,0.0
3115,41.0,0.0,30.0,8.0,0.0
3116,57.0,90.0,30.0,5.0,0.0
3117,53.0,0.0,30.0,6.0,0.0
3118,53.0,0.0,30.0,7.0,0.0
3119,60.0,0.0,30.0,4.0,0.0
3120,63.0,0.0,60.0,1.0,0.0
3121,75.0,0.0,60.0,0.0,0.0
3122,69.0,30.0,60.0,1.0,0.0
3123,81.0,0.0,60.0,0.0,0.0
3124,51.0,0.0,60.0,2.0,0.0
3125,57.0,0.0,60.0,2.0,0.0
3126,58.0,0.0,30.0,2.0,0.0
3127,82.0,0.0,30.0,0.0,0.0
3128,50.0,60.0,30.0,2.0,0.0
3129,74.0,0.0,30.0,0.0,0.0
3130,70.0,0.0,30.0,1.0,0.0
3131,62.0,0.0,30.0,1.0,0.0
3132,58.0,0.0,30.0,5.0,0.0
3133,55.0,60.0,30.0,6.0,0.0
3134,62.0,0.0,30.0,4.0,0.0
3135,55.0,0.0,30.0,7.0,0.0
3136,43.0,0.0,30.0,8.0,0.0
3137,51.0,0.0,30.0,7.0,0.0
3138,39.0,30.0,30.0,8.0,0.0
3139,62.0,30.0,60.0,4.0,0.0
3140,51.0,0.0,30.0,6.0,0.0
3141,58.0,0.0,60.0,5.0,0.0
3142,48.0,0.0,30.0,7.0,0.0
3143,48.0,0.0,30.0,6.0,0.0
3144,63.0,0.0,30.0,4.0,0.0
3145,36.0,0.0,30.0,8.0,0.0
3146,60.0,60.0,30.0,5.0,0.0
3147,53.0,0.0,30.0,6.0,0.0
3148,57.0,0.0,30.0,5.0,0.0
3149,53.0,0.0,30.0,7.0,0.0
3150,41.0,90.0,30.0,8.0,0.0
3151,60.0,0.0,30.0,4.0,0.0
3152,84.0,0.0,60.0,0.0,0.0
3153,81.0,0.0,60.0,0.0,0.0
3154,60.0,0.0,60.0,2.0,0.0
3155,57.0,0.0,60.0,2.0,0.0
3156,72.0,0.0,60.0,1.0,0.0
3157,69.0,40.0,60.0,1.0,0.0
3158,52.0,0.0,30.0,6.0,0.0
3159,52.0,0.0,30.0,4.0,0.0
3160,52.0,0.0,30.0,5.0,0.0
3161,70.0,0.0,480.0,1.0,0.0
3162,58.0,0.0,480.0,2.0,0.0
3163,61.0,0.0,300.0,2.0,0.0
3164,82.0,0.0,480.0,0.0,0.0
3165,85.0,0.0,300.0,0.0,0.0
3166,40.0,0.0,30.0,7.0,0.0
3167,73.0,60.0,300.0,1.0,0.0
3168,28.0,60.0,30.0,8.0,0.0
3169,52.0,60.0,30.0,5.0,0.0
3170,28.0,0.0,30.0,8.0,0.0
3171,40.0,0.0,30.0,7.0,0.0
3172,52.0,0.0,30.0,6.0,0.0
3173,52.0,0.0,30.0,4.0,0.0
3174,52.0,60.0,30.0,5.0,0.0
3175,52.0,0.0,30.0,6.0,0.0
3176,52.0,0.0,30.0,4.0,0.0
3177,28.0,0.0,30.0,8.0,0.0
3178,40.0,0.0,30.0,7.0,0.0
3179,40.0,0.0,30.0,7.0,0.0
3180,28.0,0.0,30.0,8.0,0.0
3181,52.0,0.0,30.0,6.0,0.0
3182,52.0,0.0,30.0,4.0,0.0
3183,52.0,60.0,30.0,5.0,0.0
3184,52.0,0.0,30.0,6.0,0.0
3185,28.0,0.0,30.0,8.0,0.0
3186,52.0,20.0,30.0,4.0,0.0
3187,52.0,0.0,30.0,5.0,0.0
3188,40.0,0.0,30.0,7.0,0.0
3189,52.0,0.0,60.0,6.0,0.0
3190,28.0,0.0,60.0,8.0,0.0
3191,40.0,0.0,60.0,7.0,0.0
3192,74.0,60.0,180.0,1.0,0.0
3193,86.0,0.0,180.0,0.0,0.0
3194,62.0,0.0,180.0,2.0,0.0
3195,52.0,0.0,60.0,4.0,0.0
3196,52.0,40.0,60.0,5.0,0.0
3197,53.0,0.0,30.0,5.0,0.0
3198,41.0,0.0,30.0,7.0,0.0
3199,53.0,60.0,30.0,4.0,0.0
3200,29.0,0.0,30.0,8.0,0.0
3201,53.0,0.0,30.0,6.0,0.0
3202,53.0,0.0,30.0,4.0,0.0
3203,53.0,20.0,30.0,5.0,0.0
3204,29.0,0.0,30.0,8.0,0.0
3205,53.0,0.0,30.0,6.0,0.0
3206,41.0,0.0,30.0,7.0,0.0
3207,53.0,0.0,60.0,5.0,0.0
3208,51.0,0.0,180.0,2.0,0.0
3209,60.0,0.0,180.0,2.0,0.0
3210,41.0,0.0,60.0,7.0,0.0
3211,81.0,60.0,180.0,0.0,0.0
3212,69.0,0.0,180.0,1.0,0.0
3213,72.0,0.0,180.0,1.0,0.0
3214,53.0,0.0,60.0,4.0,0.0
3215,75.0,0.0,180.0,0.0,0.0
3216,29.0,40.0,60.0,8.0,0.0
3217,53.0,0.0,60.0,6.0,0.0
3218,42.0,0.0,30.0,7.0,0.0
3219,54.0,0.0,30.0,5.0,0.0
3220,54.0,0.0,30.0,6.0,0.0
3221,54.0,60.0,30.0,4.0,0.0
3222,30.0,0.0,30.0,8.0,0.0
3223,42.0,20.0,30.0,7.0,0.0
3224,54.0,0.0,30.0,4.0,0.0
3225,30.0,0.0,30.0,8.0,0.0
3226,54.0,0.0,30.0,6.0,0.0
3227,54.0,0.0,30.0,5.0,0.0
3228,82.0,0.0,180.0,0.0,0.0
3229,50.0,60.0,180.0,2.0,0.0
3230,54.0,0.0,60.0,5.0,0.0
3231,30.0,0.0,60.0,8.0,0.0
3232,70.0,0.0,360.0,1.0,0.0
3233,54.0,0.0,60.0,4.0,0.0
3234,54.0,0.0,60.0,6.0,0.0
3235,42.0,40.0,60.0,7.0,0.0
3236,74.0,0.0,180.0,0.0,0.0
3237,31.0,0.0,30.0,8.0,0.0
3238,55.0,0.0,30.0,6.0,0.0
3239,55.0,60.0,30.0,5.0,0.0
3240,55.0,0.0,30.0,4.0,0.0
3241,43.0,0.0,30.0,7.0,0.0
3242,55.0,0.0,30.0,6.0,0.0
3243,31.0,0.0,30.0,8.0,0.0
3244,43.0,0.0,30.0,7.0,0.0
3245,55.0,0.0,30.0,4.0,0.0
3246,55.0,20.0,30.0,5.0,0.0
3247,55.0,0.0,60.0,6.0,0.0
3248,55.0,0.0,60.0,5.0,0.0
3249,55.0,40.0,60.0,4.0,0.0
3250,61.0,0.0,180.0,2.0,0.0
3251,58.0,0.0,15.0,2.0,0.0
3252,31.0,0.0,60.0,8.0,0.0
3253,43.0,0.0,60.0,7.0,0.0
3254,64.0,0.0,180.0,1.0,0.0
3255,73.0,0.0,180.0,0.0,0.0
3256,76.0,60.0,180.0,0.0,0.0
3257,42.0,0.0,30.0,7.0,0.0
3258,54.0,0.0,30.0,5.0,0.0
3259,54.0,0.0,30.0,4.0,0.0
3260,30.0,0.0,30.0,8.0,0.0
3261,54.0,60.0,30.0,6.0,0.0
3262,54.0,0.0,30.0,6.0,0.0
3263,30.0,0.0,30.0,8.0,0.0
3264,42.0,0.0,30.0,7.0,0.0
3265,54.0,0.0,30.0,5.0,0.0
3266,54.0,20.0,30.0,4.0,0.0
3267,74.0,0.0,180.0,0.0,0.0
3268,54.0,0.0,60.0,6.0,0.0
3269,42.0,40.0,60.0,7.0,0.0
3270,70.0,0.0,180.0,1.0,0.0
3271,30.0,0.0,60.0,8.0,0.0
3272,54.0,0.0,60.0,4.0,0.0
3273,65.0,0.0,180.0,1.0,0.0
3274,62.0,0.0,180.0,2.0,0.0
3275,54.0,0.0,60.0,5.0,0.0
3276,77.0,40.0,180.0,0.0,0.0
3277,29.0,0.0,30.0,8.0,0.0
3278,53.0,0.0,30.0,6.0,0.0
3279,53.0,0.0,30.0,4.0,0.0
3280,41.0,60.0,30.0,7.0,0.0
3281,53.0,0.0,30.0,5.0,0.0
3282,29.0,20.0,30.0,8.0,0.0
3283,53.0,0.0,30.0,4.0,0.0
3284,41.0,0.0,30.0,7.0,0.0
3285,53.0,0.0,30.0,6.0,0.0
3286,53.0,0.0,30.0,5.0,0.0
3287,53.0,0.0,30.0,6.0,0.0
3288,41.0,68.0,30.0,7.0,0.0
3289,69.0,0.0,180.0,0.0,0.0
3290,60.0,0.0,180.0,1.0,0.0
3291,57.0,0.0,180.0,2.0,0.0
3292,29.0,0.0,30.0,8.0,0.0
3293,51.0,30.0,180.0,2.0,0.0
3294,65.0,0.0,300.0,0.0,0.0
3295,53.0,0.0,30.0,5.0,0.0
3296,63.0,0.0,180.0,1.0,0.0
3297,77.0,60.0,60.0,4.0,0.0
3298,77.0,12.0,60.0,4.0,0.0
3299,53.0,30.0,30.0,5.0,0.0
3300,58.0,0.0,180.0,6.0,0.0
3301,50.0,0.0,180.0,2.0,0.0
3302,70.0,0.0,120.0,0.0,0.0
3303,62.0,30.0,120.0,1.0,0.0
3304,58.0,0.0,120.0,1.0,0.0
3305,46.0,0.0,180.0,7.0,0.0
3306,34.0,0.0,180.0,8.0,0.0
3307,58.0,30.0,180.0,2.0,0.0
3308,58.0,30.0,30.0,5.0,0.0
3309,62.0,18.0,30.0,5.0,0.0
3310,77.0,12.0,60.0,4.0,0.0
3311,58.0,0.0,30.0,5.0,0.0
3312,53.0,18.0,30.0,5.0,0.0
3313,77.0,12.0,60.0,4.0,0.0
3314,58.0,0.0,30.0,5.0,0.0
3315,33.0,0.0,180.0,8.0,0.0
3316,57.0,0.0,180.0,6.0,0.0
3317,45.0,0.0,180.0,7.0,0.0
3318,53.0,30.0,30.0,5.0,0.0
3319,48.0,0.0,180.0,2.0,0.0
3320,51.0,0.0,180.0,2.0,0.0
3321,60.0,30.0,30.0,5.0,0.0
3322,63.0,0.0,30.0,5.0,0.0
3323,79.0,30.0,30.0,4.0,0.0
3324,60.0,30.0,30.0,5.0,0.0
3325,77.0,0.0,30.0,4.0,0.0
3326,75.0,0.0,30.0,4.0,0.0
3327,53.0,30.0,30.0,5.0,0.0
3328,60.0,30.0,30.0,5.0,0.0
3329,72.0,0.0,30.0,4.0,0.0
3330,70.0,0.0,30.0,4.0,0.0
3331,58.0,30.0,180.0,6.0,0.0
3332,46.0,0.0,180.0,7.0,0.0
3333,70.0,0.0,180.0,1.0,0.0
3334,74.0,0.0,180.0,1.0,0.0
3335,46.0,0.0,180.0,2.0,0.0
3336,65.0,0.0,780.0,3.0,0.0
3337,50.0,0.0,180.0,2.0,0.0
3338,34.0,0.0,180.0,8.0,0.0
3339,53.0,30.0,30.0,5.0,0.0
3340,74.0,0.0,30.0,4.0,0.0
3341,58.0,30.0,30.0,5.0,0.0
3342,62.0,30.0,30.0,5.0,0.0
3343,77.0,0.0,30.0,4.0,0.0
3344,82.0,30.0,30.0,4.0,0.0
3345,58.0,0.0,30.0,5.0,0.0
3346,53.0,30.0,30.0,5.0,0.0
3347,77.0,0.0,60.0,4.0,0.0
3348,58.0,0.0,30.0,5.0,0.0
3349,72.0,30.0,180.0,1.0,0.0
3350,75.0,0.0,180.0,1.0,0.0
3351,48.0,0.0,180.0,2.0,0.0
3352,53.0,30.0,30.0,5.0,0.0
3353,33.0,0.0,180.0,8.0,0.0
3354,51.0,0.0,180.0,2.0,0.0
3355,45.0,0.0,180.0,7.0,0.0
3356,57.0,0.0,180.0,6.0,0.0
3357,60.0,30.0,30.0,5.0,0.0
3358,63.0,18.0,30.0,5.0,0.0
3359,77.0,12.0,60.0,4.0,0.0
3360,60.0,30.0,30.0,5.0,0.0
3361,53.0,18.0,30.0,5.0,0.0
3362,77.0,12.0,60.0,4.0,0.0
3363,60.0,0.0,30.0,5.0,0.0
3364,58.0,0.0,180.0,6.0,0.0
3365,77.0,0.0,180.0,0.0,0.0
3366,46.0,0.0,180.0,2.0,0.0
3367,50.0,30.0,180.0,2.0,0.0
3368,74.0,0.0,180.0,0.0,0.0
3369,46.0,0.0,180.0,7.0,0.0
3370,34.0,0.0,180.0,8.0,0.0
3371,53.0,30.0,30.0,5.0,0.0
3372,74.0,0.0,180.0,1.0,0.0
3373,70.0,0.0,180.0,1.0,0.0
3374,58.0,30.0,30.0,5.0,0.0
3375,77.0,12.0,60.0,4.0,0.0
3376,62.0,18.0,30.0,5.0,0.0
3377,58.0,30.0,30.0,5.0,0.0
3378,77.0,12.0,60.0,4.0,0.0
3379,53.0,18.0,30.0,5.0,0.0
3380,58.0,0.0,30.0,5.0,0.0
3381,72.0,30.0,180.0,1.0,0.0
3382,69.0,0.0,180.0,1.0,0.0
3383,41.0,0.0,180.0,7.0,0.0
3384,75.0,0.0,180.0,0.0,0.0
3385,81.0,0.0,180.0,0.0,0.0
3386,48.0,0.0,180.0,2.0,0.0
3387,51.0,0.0,180.0,2.0,0.0
3388,57.0,30.0,30.0,5.0,0.0
3389,29.0,0.0,180.0,8.0,0.0
3390,53.0,0.0,180.0,6.0,0.0
3391,60.0,30.0,30.0,5.0,0.0
3392,79.0,30.0,30.0,4.0,0.0
3393,63.0,0.0,30.0,5.0,0.0
3394,60.0,30.0,30.0,5.0,0.0
3395,77.0,0.0,30.0,4.0,0.0
3396,75.0,30.0,30.0,4.0,0.0
3397,65.0,0.0,30.0,5.0,0.0
3398,63.0,0.0,30.0,5.0,0.0
3399,72.0,0.0,30.0,4.0,0.0
3400,74.0,0.0,60.0,0.0,0.0
3401,82.0,0.0,60.0,0.0,0.0
3402,46.0,0.0,180.0,2.0,0.0
3403,58.0,0.0,60.0,3.0,0.0
3404,70.0,0.0,180.0,4.0,0.0
3405,34.0,0.0,180.0,8.0,0.0
3406,50.0,0.0,180.0,2.0,0.0
3407,70.0,0.0,60.0,1.0,0.0
3408,62.0,30.0,30.0,5.0,0.0
3409,46.0,0.0,180.0,7.0,0.0
3410,58.0,30.0,180.0,6.0,0.0
3411,58.0,30.0,30.0,5.0,0.0
3412,53.0,30.0,30.0,5.0,0.0
3413,58.0,30.0,30.0,5.0,0.0
3414,62.0,30.0,30.0,5.0,0.0
3415,58.0,0.0,30.0,5.0,0.0
3416,48.0,30.0,180.0,2.0,0.0
3417,42.0,0.0,180.0,8.0,0.0
3418,45.0,0.0,180.0,2.0,0.0
3419,57.0,30.0,30.0,5.0,0.0
3420,54.0,0.0,180.0,6.0,0.0
3421,54.0,0.0,180.0,7.0,0.0
3422,60.0,30.0,30.0,5.0,0.0
3423,74.0,12.0,60.0,4.0,0.0
3424,62.0,18.0,30.0,5.0,0.0
3425,60.0,30.0,30.0,5.0,0.0
3426,57.0,18.0,30.0,5.0,0.0
3427,74.0,12.0,60.0,4.0,0.0
3428,60.0,0.0,30.0,5.0,0.0
3429,43.0,0.0,180.0,8.0,0.0
3430,55.0,0.0,180.0,6.0,0.0
3431,55.0,30.0,180.0,7.0,0.0
3432,55.0,30.0,30.0,5.0,0.0
3433,46.0,0.0,180.0,2.0,0.0
3434,43.0,0.0,180.0,2.0,0.0
3435,58.0,30.0,30.0,5.0,0.0
3436,74.0,12.0,60.0,4.0,0.0
3437,62.0,18.0,30.0,5.0,0.0
3438,58.0,30.0,30.0,5.0,0.0
3439,55.0,18.0,30.0,5.0,0.0
3440,74.0,12.0,60.0,4.0,0.0
3441,58.0,0.0,30.0,5.0,0.0
3442,54.0,0.0,180.0,2.0,0.0
3443,72.0,0.0,180.0,1.0,0.0
3444,69.0,30.0,180.0,1.0,0.0
3445,38.0,0.0,180.0,8.0,0.0
3446,50.0,0.0,180.0,6.0,0.0
3447,57.0,0.0,180.0,2.0,0.0
3448,54.0,30.0,30.0,5.0,0.0
3449,50.0,0.0,180.0,7.0,0.0
3450,57.0,30.0,30.0,5.0,0.0
3451,75.0,30.0,30.0,4.0,0.0
3452,60.0,0.0,30.0,5.0,0.0
3453,74.0,30.0,30.0,4.0,0.0
3454,57.0,0.0,30.0,5.0,0.0
3455,54.0,0.0,30.0,5.0,0.0
3456,72.0,30.0,30.0,4.0,0.0
3457,57.0,0.0,30.0,5.0,0.0
3458,69.0,0.0,30.0,4.0,0.0
3459,43.0,0.0,180.0,7.0,0.0
3460,58.0,0.0,180.0,2.0,0.0
3461,55.0,0.0,180.0,6.0,0.0
3462,46.0,0.0,720.0,3.0,0.0
3463,58.0,0.0,720.0,3.0,0.0
3464,55.0,0.0,180.0,2.0,0.0
3465,67.0,0.0,30.0,4.0,0.0
3466,58.0,30.0,30.0,5.0,0.0
3467,67.0,0.0,180.0,1.0,0.0
3468,31.0,0.0,180.0,8.0,0.0
3469,70.0,0.0,180.0,1.0,0.0
3470,70.0,0.0,30.0,4.0,0.0
3471,62.0,30.0,30.0,5.0,0.0
3472,74.0,30.0,30.0,4.0,0.0
3473,67.0,0.0,30.0,5.0,0.0
3474,79.0,30.0,30.0,4.0,0.0
3475,62.0,0.0,30.0,5.0,0.0
3476,58.0,30.0,30.0,5.0,0.0
3477,74.0,30.0,60.0,4.0,0.0
3478,62.0,0.0,30.0,5.0,0.0
3479,56.0,30.0,30.0,5.0,0.0
3480,53.0,0.0,180.0,2.0,0.0
3481,50.0,0.0,180.0,7.0,0.0
3482,56.0,0.0,180.0,2.0,0.0
3483,38.0,0.0,180.0,8.0,0.0
3484,68.0,0.0,180.0,1.0,0.0
3485,65.0,30.0,180.0,1.0,0.0
3486,50.0,0.0,180.0,6.0,0.0
3487,58.0,30.0,30.0,5.0,0.0
3488,65.0,18.0,30.0,5.0,0.0
3489,70.0,12.0,60.0,4.0,0.0
3490,58.0,30.0,30.0,5.0,0.0
3491,70.0,12.0,60.0,4.0,0.0
3492,56.0,18.0,30.0,5.0,0.0
3493,58.0,0.0,30.0,5.0,0.0
3494,51.0,0.0,180.0,6.0,0.0
3495,63.0,0.0,180.0,1.0,0.0
3496,55.0,30.0,30.0,5.0,0.0
3497,67.0,0.0,180.0,1.0,0.0
3498,51.0,0.0,180.0,7.0,0.0
3499,51.0,0.0,180.0,2.0,0.0
3500,55.0,0.0,180.0,2.0,0.0
3501,39.0,0.0,180.0,8.0,0.0
3502,58.0,30.0,30.0,5.0,0.0
3503,70.0,12.0,60.0,4.0,0.0
3504,63.0,18.0,30.0,5.0,0.0
3505,58.0,30.0,30.0,5.0,0.0
3506,70.0,12.0,60.0,4.0,0.0
3507,55.0,18.0,30.0,5.0,0.0
3508,58.0,30.0,30.0,5.0,0.0
3509,62.0,30.0,180.0,1.0,0.0
3510,65.0,0.0,180.0,1.0,0.0
3511,46.0,0.0,180.0,6.0,0.0
3512,77.0,0.0,180.0,0.0,0.0
3513,80.0,0.0,180.0,0.0,0.0
3514,34.0,0.0,180.0,8.0,0.0
3515,41.0,0.0,180.0,2.0,0.0
3516,46.0,0.0,180.0,7.0,0.0
3517,56.0,30.0,30.0,5.0,0.0
3518,44.0,0.0,180.0,2.0,0.0
3519,58.0,30.0,30.0,5.0,0.0
3520,62.0,30.0,30.0,5.0,0.0
3521,72.0,0.0,30.0,4.0,0.0
3522,70.0,30.0,30.0,4.0,0.0
3523,58.0,0.0,30.0,5.0,0.0
3524,56.0,0.0,30.0,5.0,0.0
3525,68.0,30.0,30.0,4.0,0.0
3526,58.0,0.0,30.0,5.0,0.0
3527,65.0,0.0,30.0,4.0,0.0
3528,75.0,0.0,180.0,0.0,0.0
3529,51.0,0.0,180.0,6.0,0.0
3530,43.0,0.0,180.0,2.0,0.0
3531,67.0,0.0,360.0,3.0,0.0
3532,55.0,0.0,360.0,3.0,0.0
3533,39.0,0.0,180.0,2.0,0.0
3534,79.0,0.0,180.0,0.0,0.0
3535,63.0,0.0,180.0,1.0,0.0
3536,55.0,0.0,30.0,5.0,0.0
3537,39.0,0.0,180.0,8.0,0.0
3538,51.0,0.0,180.0,7.0,0.0
3539,67.0,30.0,180.0,1.0,0.0
3540,63.0,30.0,30.0,4.0,0.0
3541,67.0,0.0,30.0,4.0,0.0
3542,58.0,30.0,30.0,5.0,0.0
3543,70.0,30.0,30.0,4.0,0.0
3544,63.0,0.0,30.0,5.0,0.0
3545,75.0,30.0,30.0,4.0,0.0
3546,58.0,0.0,30.0,5.0,0.0
3547,55.0,30.0,30.0,5.0,0.0
3548,70.0,0.0,60.0,4.0,0.0
3549,58.0,0.0,30.0,5.0,0.0
3550,74.0,0.0,180.0,0.0,0.0
3551,77.0,0.0,180.0,0.0,0.0
3552,53.0,0.0,180.0,2.0,0.0
3553,43.0,0.0,180.0,7.0,0.0
3554,50.0,0.0,180.0,2.0,0.0
3555,31.0,0.0,180.0,8.0,0.0
3556,59.0,30.0,30.0,5.0,0.0
3557,59.0,0.0,180.0,1.0,0.0
3558,62.0,0.0,180.0,1.0,0.0
3559,55.0,0.0,180.0,6.0,0.0
3560,62.0,30.0,30.0,5.0,0.0
3561,68.0,0.0,30.0,4.0,0.0
3562,65.0,30.0,30.0,5.0,0.0
3563,67.0,0.0,30.0,4.0,0.0
3564,62.0,30.0,30.0,5.0,0.0
3565,65.0,0.0,30.0,4.0,0.0
3566,59.0,30.0,30.0,5.0,0.0
3567,62.0,0.0,30.0,4.0,0.0
3568,62.0,30.0,30.0,5.0,0.0
3569,48.0,0.0,180.0,2.0,0.0
3570,51.0,0.0,180.0,2.0,0.0
3571,60.0,0.0,180.0,1.0,0.0
3572,48.0,30.0,180.0,7.0,0.0
3573,63.0,0.0,180.0,1.0,0.0
3574,36.0,0.0,180.0,8.0,0.0
3575,51.0,0.0,420.0,3.0,0.0
3576,72.0,0.0,180.0,0.0,0.0
3577,75.0,0.0,180.0,0.0,0.0
3578,63.0,0.0,420.0,3.0,0.0
3579,48.0,0.0,180.0,6.0,0.0
3580,60.0,0.0,30.0,4.0,0.0
3581,55.0,30.0,30.0,5.0,0.0
3582,60.0,0.0,30.0,5.0,0.0
3583,63.0,30.0,30.0,4.0,0.0
3584,67.0,0.0,30.0,4.0,0.0
3585,63.0,30.0,30.0,5.0,0.0
3586,60.0,0.0,30.0,5.0,0.0
3587,72.0,30.0,30.0,4.0,0.0
3588,67.0,0.0,60.0,4.0,0.0
3589,55.0,30.0,30.0,5.0,0.0
3590,60.0,0.0,30.0,5.0,0.0
3591,61.0,0.0,180.0,1.0,0.0
3592,67.0,0.0,180.0,1.0,0.0
3593,39.0,0.0,180.0,7.0,0.0
3594,46.0,0.0,180.0,2.0,0.0
3595,27.0,0.0,180.0,8.0,0.0
3596,49.0,0.0,180.0,2.0,0.0
3597,55.0,30.0,30.0,5.0,0.0
3598,51.0,0.0,180.0,6.0,0.0
3599,79.0,0.0,180.0,0.0,0.0
3600,73.0,60.0,180.0,0.0,0.0
3601,58.0,30.0,30.0,5.0,0.0
3602,61.0,30.0,30.0,5.0,0.0
3603,65.0,0.0,30.0,4.0,0.0
3604,63.0,30.0,30.0,4.0,0.0
3605,58.0,0.0,30.0,5.0,0.0
3606,55.0,30.0,30.0,5.0,0.0
3607,61.0,0.0,30.0,4.0,0.0
3608,58.0,0.0,30.0,4.0,0.0
3609,58.0,0.0,30.0,5.0,0.0
3610,48.0,60.0,120.0,6.0,0.0
3611,44.0,0.0,1140.0,7.0,0.0
3612,60.0,0.0,120.0,1.0,0.0
3613,68.0,0.0,120.0,1.0,0.0
3614,56.0,60.0,720.0,5.0,0.0
3615,48.0,0.0,60.0,2.0,0.0
3616,44.0,60.0,60.0,2.0,0.0
3617,72.0,0.0,60.0,0.0,0.0
3618,80.0,0.0,60.0,0.0,0.0
3619,32.0,0.0,1140.0,8.0,0.0
3620,56.0,0.0,120.0,4.0,0.0
3621,51.0,0.0,60.0,6.0,0.0
3622,60.0,0.0,60.0,4.0,0.0
3623,63.0,0.0,60.0,1.0,0.0
3624,72.0,120.0,60.0,1.0,0.0
3625,58.0,60.0,120.0,4.0,0.0
3626,61.0,0.0,120.0,1.0,0.0
3627,70.0,0.0,120.0,1.0,0.0
3628,49.0,0.0,120.0,6.0,0.0
3629,68.0,0.0,60.0,1.0,0.0
3630,60.0,0.0,60.0,1.0,0.0
3631,48.0,120.0,60.0,6.0,0.0
3632,56.0,0.0,60.0,4.0,0.0
3633,65.0,120.0,180.0,2.0,0.0
3634,68.0,0.0,360.0,1.0,0.0
3635,61.0,0.0,300.0,4.0,0.0
3636,73.0,60.0,300.0,1.0,0.0
3637,53.0,60.0,120.0,6.0,0.0
3638,56.0,0.0,60.0,6.0,0.0
3639,51.0,0.0,120.0,6.0,0.0
3640,63.0,0.0,180.0,2.0,0.0
3641,72.0,0.0,120.0,1.0,0.0
3642,60.0,60.0,120.0,4.0,0.0
3643,56.0,0.0,60.0,6.0,0.0
3644,65.0,60.0,180.0,1.0,0.0
3645,61.0,0.0,360.0,2.0,0.0
3646,49.0,0.0,360.0,6.0,0.0
3647,53.0,0.0,180.0,5.0,0.0
3648,69.0,0.0,60.0,1.0,0.0
3649,57.0,60.0,60.0,4.0,0.0
3650,70.0,0.0,60.0,1.0,0.0
3651,58.0,0.0,60.0,4.0,0.0
3652,51.0,30.0,60.0,4.0,0.0
3653,51.0,0.0,240.0,5.0,0.0
3654,63.0,0.0,240.0,1.0,0.0
3655,64.0,0.0,30.0,1.0,0.0
3656,52.0,30.0,30.0,4.0,0.0
3657,53.0,30.0,30.0,4.0,0.0
3658,65.0,0.0,30.0,1.0,0.0
3659,54.0,0.0,30.0,4.0,0.0
3660,66.0,30.0,30.0,1.0,0.0
3661,67.0,30.0,30.0,1.0,0.0
3662,55.0,0.0,30.0,4.0,0.0
3663,48.0,30.0,60.0,6.0,0.0
3664,56.0,30.0,30.0,4.0,0.0
3665,68.0,0.0,30.0,1.0,0.0
3666,60.0,0.0,60.0,2.0,0.0
3667,69.0,0.0,30.0,1.0,0.0
3668,57.0,0.0,30.0,4.0,0.0
3669,70.0,0.0,30.0,1.0,0.0
3670,58.0,30.0,30.0,4.0,0.0
3671,71.0,0.0,30.0,1.0,0.0
3672,59.0,30.0,30.0,4.0,0.0
3673,60.0,30.0,30.0,4.0,0.0
3674,72.0,0.0,30.0,1.0,0.0
3675,73.0,0.0,30.0,1.0,0.0
3676,61.0,30.0,30.0,4.0,0.0
3677,62.0,0.0,30.0,4.0,0.0
3678,74.0,30.0,30.0,1.0,0.0
3679,63.0,0.0,30.0,4.0,0.0
3680,75.0,30.0,30.0,1.0,0.0
3681,65.0,0.0,30.0,4.0,0.0
3682,77.0,30.0,30.0,1.0,0.0
3683,75.0,30.0,30.0,1.0,0.0
3684,63.0,0.0,30.0,4.0,0.0
3685,61.0,30.0,30.0,4.0,0.0
3686,73.0,0.0,30.0,1.0,0.0
3687,70.0,0.0,30.0,1.0,0.0
3688,58.0,60.0,30.0,4.0,0.0
3689,60.0,0.0,120.0,5.0,0.0
3690,80.0,0.0,120.0,0.0,0.0
3691,72.0,60.0,120.0,0.0,0.0
3692,32.0,0.0,1140.0,8.0,0.0
3693,44.0,0.0,1140.0,7.0,0.0
3694,56.0,60.0,720.0,6.0,0.0
3695,56.0,0.0,120.0,2.0,0.0
3696,68.0,60.0,60.0,1.0,0.0
3697,68.0,0.0,120.0,4.0,0.0
3698,63.0,0.0,60.0,5.0,0.0
3699,72.0,120.0,60.0,4.0,0.0
3700,60.0,0.0,60.0,2.0,0.0
3701,84.0,0.0,60.0,0.0,0.0
3702,75.0,0.0,60.0,0.0,0.0
3703,61.0,60.0,120.0,5.0,0.0
3704,58.0,0.0,120.0,2.0,0.0
3705,73.0,0.0,120.0,0.0,0.0
3706,82.0,0.0,120.0,0.0,0.0
3707,70.0,0.0,120.0,4.0,0.0
3708,56.0,0.0,60.0,2.0,0.0
3709,60.0,0.0,60.0,5.0,0.0
3710,72.0,0.0,60.0,0.0,0.0
3711,80.0,60.0,60.0,0.0,0.0
3712,68.0,0.0,60.0,4.0,0.0
3713,75.0,0.0,60.0,4.0,0.0
3714,63.0,60.0,60.0,2.0,0.0
3715,77.0,60.0,180.0,1.0,0.0
3716,65.0,0.0,120.0,5.0,0.0
3717,87.0,0.0,60.0,0.0,0.0
3718,80.0,0.0,360.0,0.0,0.0
3719,74.0,0.0,60.0,4.0,0.0
3720,62.0,0.0,60.0,2.0,0.0
3721,86.0,60.0,60.0,0.0,0.0
3722,73.0,60.0,120.0,4.0,0.0
3723,68.0,0.0,60.0,5.0,0.0
3724,85.0,0.0,120.0,0.0,0.0
3725,61.0,0.0,120.0,2.0,0.0
3726,75.0,0.0,180.0,1.0,0.0
3727,63.0,60.0,120.0,5.0,0.0
3728,59.0,0.0,60.0,2.0,0.0
3729,71.0,0.0,60.0,4.0,0.0
3730,83.0,0.0,60.0,0.0,0.0
3731,68.0,0.0,60.0,5.0,0.0
3732,84.0,0.0,120.0,0.0,0.0
3733,72.0,0.0,120.0,4.0,0.0
3734,60.0,60.0,120.0,2.0,0.0
3735,75.0,0.0,420.0,0.0,0.0
3736,73.0,0.0,360.0,1.0,0.0
3737,61.0,60.0,360.0,5.0,0.0
3738,55.0,30.0,240.0,6.0,0.0
3739,51.0,0.0,420.0,5.0,0.0
3740,69.0,0.0,60.0,4.0,0.0
3741,81.0,60.0,60.0,0.0,0.0
3742,57.0,0.0,60.0,2.0,0.0
3743,70.0,0.0,60.0,4.0,0.0
3744,58.0,30.0,60.0,2.0,0.0
3745,82.0,0.0,60.0,0.0,0.0
3746,74.0,0.0,30.0,0.0,0.0
3747,62.0,0.0,30.0,4.0,0.0
3748,50.0,30.0,30.0,2.0,0.0
3749,63.0,0.0,30.0,4.0,0.0
3750,51.0,0.0,30.0,2.0,0.0
3751,52.0,0.0,30.0,2.0,0.0
3752,64.0,0.0,30.0,4.0,0.0
3753,76.0,30.0,30.0,0.0,0.0
3754,56.0,0.0,60.0,6.0,0.0
3755,53.0,0.0,30.0,2.0,0.0
3756,65.0,30.0,30.0,4.0,0.0
3757,77.0,0.0,30.0,0.0,0.0
3758,58.0,0.0,60.0,6.0,0.0
3759,54.0,0.0,30.0,2.0,0.0
3760,78.0,30.0,30.0,0.0,0.0
3761,66.0,0.0,30.0,4.0,0.0
3762,79.0,0.0,30.0,0.0,0.0
3763,55.0,0.0,30.0,2.0,0.0
3764,67.0,0.0,30.0,4.0,0.0
3765,56.0,90.0,60.0,6.0,0.0
3766,56.0,0.0,60.0,2.0,0.0
3767,68.0,0.0,60.0,4.0,0.0
3768,72.0,0.0,60.0,1.0,0.0
3769,60.0,0.0,60.0,5.0,0.0
3770,80.0,0.0,60.0,0.0,0.0
3771,56.0,0.0,30.0,4.0,0.0
3772,56.0,0.0,30.0,6.0,0.0
3773,32.0,60.0,30.0,8.0,0.0
3774,56.0,0.0,30.0,5.0,0.0
3775,44.0,0.0,30.0,7.0,0.0
3776,55.0,0.0,30.0,6.0,0.0
3777,55.0,0.0,30.0,4.0,0.0
3778,43.0,0.0,30.0,7.0,0.0
3779,55.0,0.0,30.0,5.0,0.0
3780,31.0,60.0,30.0,8.0,0.0
3781,32.0,0.0,30.0,8.0,0.0
3782,56.0,0.0,30.0,4.0,0.0
3783,44.0,0.0,30.0,7.0,0.0
3784,56.0,0.0,30.0,5.0,0.0
3785,56.0,60.0,30.0,6.0,0.0
3786,58.0,0.0,30.0,5.0,0.0
3787,46.0,0.0,30.0,7.0,0.0
3788,34.0,0.0,30.0,8.0,0.0
3789,58.0,0.0,30.0,4.0,0.0
3790,58.0,60.0,30.0,6.0,0.0
3791,68.0,0.0,60.0,1.0,0.0
3792,51.0,30.0,30.0,4.0,0.0
3793,73.0,60.0,90.0,1.0,0.0
3794,52.0,30.0,60.0,2.0,0.0
3795,51.0,0.0,30.0,6.0,0.0
3796,39.0,0.0,30.0,7.0,0.0
3797,27.0,0.0,30.0,8.0,0.0
3798,51.0,0.0,30.0,5.0,0.0
3799,58.0,0.0,90.0,2.0,0.0
3800,51.0,0.0,30.0,2.0,0.0
3801,67.0,0.0,30.0,1.0,0.0
3802,61.0,0.0,30.0,6.0,0.0
3803,37.0,0.0,30.0,8.0,0.0
3804,49.0,0.0,30.0,7.0,0.0
3805,61.0,0.0,30.0,5.0,0.0
3806,61.0,60.0,30.0,4.0,0.0
3807,47.0,0.0,30.0,7.0,0.0
3808,59.0,0.0,30.0,6.0,0.0
3809,35.0,60.0,30.0,8.0,0.0
3810,59.0,0.0,30.0,5.0,0.0
3811,59.0,0.0,30.0,4.0,0.0
3812,61.0,0.0,30.0,4.0,0.0
3813,37.0,0.0,30.0,8.0,0.0
3814,61.0,60.0,30.0,5.0,0.0
3815,61.0,0.0,30.0,6.0,0.0
3816,49.0,0.0,30.0,7.0,0.0
3817,63.0,0.0,30.0,4.0,0.0
3818,63.0,0.0,30.0,6.0,0.0
3819,63.0,0.0,30.0,5.0,0.0
3820,39.0,60.0,30.0,8.0,0.0
3821,51.0,0.0,30.0,7.0,0.0
3822,72.0,0.0,120.0,1.0,0.0
3823,53.0,0.0,30.0,5.0,0.0
3824,53.0,30.0,30.0,6.0,0.0
3825,53.0,0.0,30.0,4.0,0.0
3826,78.0,40.0,60.0,0.0,0.0
3827,41.0,0.0,30.0,7.0,0.0
3828,66.0,0.0,60.0,1.0,0.0
3829,58.0,0.0,60.0,2.0,0.0
3830,29.0,0.0,30.0,8.0,0.0
3831,57.0,20.0,30.0,2.0,0.0
3832,77.0,0.0,30.0,0.0,0.0
3833,65.0,0.0,30.0,1.0,0.0
3834,60.0,0.0,15.0,2.0,0.0
3835,72.0,0.0,30.0,1.0,0.0
3836,65.0,60.0,30.0,1.0,0.0
3837,57.0,0.0,30.0,2.0,0.0
3838,77.0,0.0,30.0,0.0,0.0
3839,75.0,40.0,15.0,0.0,0.0
3840,57.0,0.0,30.0,2.0,0.0
3841,60.0,60.0,30.0,2.0,0.0
3842,65.0,0.0,30.0,1.0,0.0
3843,72.0,0.0,30.0,1.0,0.0
3844,77.0,0.0,30.0,0.0,0.0
3845,75.0,0.0,30.0,0.0,0.0
3846,72.0,0.0,30.0,1.0,0.0
3847,75.0,60.0,30.0,0.0,0.0
3848,77.0,0.0,30.0,0.0,0.0
3849,65.0,0.0,30.0,1.0,0.0
3850,60.0,0.0,30.0,2.0,0.0
3851,57.0,0.0,30.0,2.0,0.0
3852,72.0,0.0,30.0,1.0,0.0
3853,65.0,140.0,30.0,1.0,0.0
3854,77.0,0.0,30.0,0.0,0.0
3855,75.0,0.0,30.0,0.0,0.0
3856,60.0,0.0,30.0,2.0,0.0
3857,57.0,0.0,30.0,2.0,0.0
3858,70.0,0.0,120.0,1.0,0.0
3859,46.0,0.0,1140.0,7.0,0.0
3860,34.0,0.0,1140.0,8.0,0.0
3861,58.0,0.0,1140.0,3.0,0.0
3862,58.0,60.0,720.0,5.0,0.0
3863,49.0,0.0,120.0,6.0,0.0
3864,46.0,0.0,1140.0,3.0,0.0
3865,58.0,60.0,120.0,4.0,0.0
3866,73.0,0.0,60.0,1.0,0.0
3867,53.0,120.0,60.0,6.0,0.0
3868,61.0,0.0,60.0,4.0,0.0
3869,60.0,60.0,120.0,4.0,0.0
3870,72.0,0.0,120.0,1.0,0.0
3871,51.0,0.0,120.0,6.0,0.0
3872,70.0,0.0,60.0,1.0,0.0
3873,50.0,120.0,60.0,6.0,0.0
3874,58.0,0.0,60.0,4.0,0.0
3875,54.0,60.0,120.0,6.0,0.0
3876,75.0,0.0,300.0,1.0,0.0
3877,63.0,60.0,300.0,4.0,0.0
3878,58.0,120.0,60.0,6.0,0.0
3879,53.0,0.0,120.0,6.0,0.0
3880,61.0,0.0,120.0,4.0,0.0
3881,58.0,0.0,60.0,6.0,0.0
3882,73.0,60.0,120.0,1.0,0.0
3883,51.0,0.0,360.0,6.0,0.0
3884,54.0,0.0,180.0,5.0,0.0
3885,59.0,0.0,60.0,4.0,0.0
3886,71.0,60.0,60.0,1.0,0.0
3887,60.0,0.0,60.0,4.0,0.0
3888,72.0,30.0,60.0,1.0,0.0
3889,64.0,30.0,30.0,1.0,0.0
3890,52.0,0.0,30.0,4.0,0.0
3891,53.0,0.0,240.0,5.0,0.0
3892,65.0,0.0,30.0,1.0,0.0
3893,53.0,30.0,30.0,4.0,0.0
3894,66.0,30.0,30.0,1.0,0.0
3895,54.0,0.0,30.0,4.0,0.0
3896,55.0,30.0,30.0,4.0,0.0
3897,67.0,0.0,30.0,1.0,0.0
3898,56.0,30.0,30.0,4.0,0.0
3899,68.0,0.0,30.0,1.0,0.0
3900,69.0,60.0,30.0,1.0,0.0
3901,57.0,0.0,30.0,4.0,0.0
3902,70.0,0.0,60.0,1.0,0.0
3903,49.0,90.0,60.0,6.0,0.0
3904,58.0,0.0,60.0,4.0,0.0
3905,58.0,0.0,30.0,6.0,0.0
3906,58.0,0.0,30.0,5.0,0.0
3907,46.0,0.0,30.0,7.0,0.0
3908,34.0,0.0,30.0,8.0,0.0
3909,58.0,60.0,30.0,4.0,0.0
3910,57.0,0.0,30.0,5.0,0.0
3911,45.0,60.0,30.0,7.0,0.0
3912,57.0,0.0,30.0,6.0,0.0
3913,33.0,0.0,30.0,8.0,0.0
3914,57.0,0.0,30.0,4.0,0.0
3915,58.0,0.0,30.0,6.0,0.0
3916,46.0,0.0,30.0,7.0,0.0
3917,34.0,0.0,30.0,8.0,0.0
3918,58.0,60.0,30.0,4.0,0.0
3919,58.0,0.0,30.0,5.0,0.0
3920,60.0,0.0,30.0,6.0,0.0
3921,60.0,60.0,30.0,5.0,0.0
3922,36.0,0.0,30.0,8.0,0.0
3923,48.0,0.0,30.0,7.0,0.0
3924,60.0,0.0,30.0,4.0,0.0
3925,29.0,0.0,30.0,8.0,0.0
3926,53.0,30.0,30.0,5.0,0.0
3927,53.0,0.0,30.0,6.0,0.0
3928,53.0,0.0,30.0,4.0,0.0
3929,75.0,0.0,90.0,1.0,0.0
3930,54.0,0.0,60.0,2.0,0.0
3931,41.0,0.0,30.0,7.0,0.0
3932,60.0,0.0,90.0,2.0,0.0
3933,70.0,30.0,60.0,1.0,0.0
3934,53.0,0.0,30.0,2.0,0.0
3935,69.0,60.0,30.0,1.0,0.0
3936,63.0,60.0,30.0,5.0,0.0
3937,39.0,0.0,30.0,8.0,0.0
3938,63.0,0.0,30.0,6.0,0.0
3939,63.0,0.0,30.0,4.0,0.0
3940,51.0,0.0,30.0,7.0,0.0
3941,49.0,0.0,30.0,7.0,0.0
3942,61.0,0.0,30.0,4.0,0.0
3943,37.0,0.0,30.0,8.0,0.0
3944,61.0,0.0,30.0,5.0,0.0
3945,61.0,60.0,30.0,6.0,0.0
3946,63.0,0.0,30.0,4.0,0.0
3947,51.0,0.0,30.0,7.0,0.0
3948,39.0,0.0,30.0,8.0,0.0
3949,63.0,0.0,30.0,6.0,0.0
3950,63.0,60.0,30.0,5.0,0.0
3951,41.0,0.0,30.0,8.0,0.0
3952,65.0,60.0,30.0,4.0,0.0
3953,65.0,0.0,30.0,6.0,0.0
3954,65.0,0.0,30.0,5.0,0.0
3955,53.0,0.0,30.0,7.0,0.0
3956,80.0,0.0,60.0,0.0,0.0
3957,55.0,0.0,30.0,4.0,0.0
3958,62.0,40.0,120.0,2.0,0.0
3959,60.0,40.0,60.0,2.0,0.0
3960,55.0,30.0,30.0,5.0,0.0
3961,68.0,0.0,60.0,1.0,0.0
3962,31.0,0.0,30.0,8.0,0.0
3963,43.0,0.0,30.0,7.0,0.0
3964,55.0,0.0,30.0,6.0,0.0
3965,79.0,0.0,30.0,0.0,0.0
3966,59.0,0.0,30.0,2.0,0.0
3967,67.0,20.0,30.0,1.0,0.0
3968,79.0,0.0,30.0,0.0,0.0
3969,77.0,0.0,15.0,0.0,0.0
3970,59.0,0.0,30.0,2.0,0.0
3971,74.0,0.0,15.0,1.0,0.0
3972,67.0,0.0,30.0,1.0,0.0
3973,62.0,0.0,30.0,2.0,0.0
3974,79.0,0.0,30.0,0.0,0.0
3975,77.0,0.0,30.0,0.0,0.0
3976,59.0,0.0,30.0,2.0,0.0
3977,74.0,60.0,30.0,1.0,0.0
3978,67.0,0.0,30.0,1.0,0.0
3979,62.0,0.0,30.0,2.0,0.0
3980,77.0,60.0,30.0,0.0,0.0
3981,62.0,0.0,30.0,2.0,0.0
3982,59.0,0.0,30.0,2.0,0.0
3983,74.0,0.0,30.0,1.0,0.0
3984,67.0,0.0,30.0,1.0,0.0
3985,79.0,0.0,30.0,0.0,0.0
3986,59.0,0.0,30.0,2.0,0.0
3987,62.0,140.0,30.0,2.0,0.0
3988,67.0,0.0,30.0,1.0,0.0
3989,79.0,0.0,30.0,0.0,0.0
3990,77.0,0.0,30.0,0.0,0.0
3991,74.0,0.0,30.0,1.0,0.0
3992,60.0,60.0,720.0,5.0,0.0
3993,72.0,0.0,120.0,0.0,0.0
3994,51.0,0.0,120.0,6.0,0.0
3995,60.0,60.0,120.0,4.0,0.0
3996,36.0,0.0,720.0,8.0,0.0
3997,48.0,0.0,720.0,7.0,0.0
3998,63.0,0.0,60.0,4.0,0.0
3999,55.0,120.0,60.0,6.0,0.0
4000,75.0,0.0,60.0,0.0,0.0
4001,74.0,0.0,120.0,0.0,0.0
4002,62.0,60.0,120.0,4.0,0.0
4003,53.0,0.0,120.0,6.0,0.0
4004,72.0,120.0,60.0,0.0,0.0
4005,52.0,0.0,60.0,6.0,0.0
4006,60.0,0.0,60.0,4.0,0.0
4007,56.0,60.0,120.0,6.0,0.0
4008,77.0,0.0,300.0,0.0,0.0
4009,65.0,0.0,300.0,4.0,0.0
4010,60.0,120.0,60.0,6.0,0.0
4011,55.0,60.0,120.0,6.0,0.0
4012,75.0,0.0,120.0,0.0,0.0
4013,63.0,60.0,120.0,4.0,0.0
4014,60.0,0.0,60.0,6.0,0.0
4015,29.0,0.0,300.0,8.0,0.0
4016,56.0,0.0,180.0,5.0,0.0
4017,53.0,0.0,300.0,6.0,0.0
4018,41.0,30.0,300.0,7.0,0.0
4019,61.0,0.0,60.0,4.0,0.0
4020,73.0,60.0,60.0,0.0,0.0
4021,62.0,30.0,60.0,4.0,0.0
4022,74.0,0.0,60.0,0.0,0.0
4023,54.0,0.0,30.0,5.0,0.0
4024,54.0,0.0,30.0,4.0,0.0
4025,66.0,30.0,30.0,0.0,0.0
4026,55.0,30.0,30.0,5.0,0.0
4027,67.0,0.0,30.0,0.0,0.0
4028,55.0,0.0,30.0,4.0,0.0
4029,68.0,0.0,30.0,0.0,0.0
4030,56.0,0.0,30.0,5.0,0.0
4031,56.0,30.0,30.0,4.0,0.0
4032,69.0,0.0,30.0,0.0,0.0
4033,57.0,0.0,30.0,5.0,0.0
4034,57.0,0.0,30.0,4.0,0.0
4035,41.0,0.0,60.0,8.0,0.0
4036,55.0,0.0,60.0,6.0,0.0
4037,70.0,0.0,30.0,0.0,0.0
4038,58.0,30.0,30.0,5.0,0.0
4039,65.0,0.0,60.0,3.0,0.0
4040,53.0,0.0,60.0,7.0,0.0
4041,58.0,0.0,30.0,4.0,0.0
4042,71.0,0.0,30.0,0.0,0.0
4043,59.0,0.0,30.0,4.0,0.0
4044,59.0,15.0,30.0,5.0,0.0
4045,39.0,0.0,30.0,8.0,0.0
4046,55.0,0.0,15.0,6.0,0.0
4047,72.0,0.0,30.0,0.0,0.0
4048,60.0,5.0,30.0,4.0,0.0
4049,63.0,0.0,60.0,3.0,0.0
4050,51.0,0.0,30.0,7.0,0.0
4051,60.0,25.0,15.0,5.0,0.0
4052,60.0,0.0,15.0,5.0,0.0
4053,55.0,30.0,15.0,6.0,0.0
4054,53.0,5.0,30.0,7.0,0.0
4055,41.0,0.0,30.0,8.0,0.0
4056,60.0,25.0,15.0,5.0,0.0
4057,62.0,0.0,15.0,6.0,0.0
4058,65.0,30.0,60.0,3.0,0.0
4059,62.0,0.0,15.0,6.0,0.0
4060,60.0,0.0,15.0,5.0,0.0
4061,59.0,25.0,15.0,5.0,0.0
4062,62.0,0.0,15.0,6.0,0.0
4063,77.0,0.0,30.0,4.0,0.0
4064,77.0,0.0,30.0,0.0,0.0
4065,55.0,0.0,30.0,7.0,0.0
4066,43.0,5.0,30.0,8.0,0.0
4067,67.0,0.0,60.0,3.0,0.0
4068,59.0,30.0,15.0,5.0,0.0
4069,62.0,0.0,15.0,6.0,0.0
4070,58.0,25.0,15.0,5.0,0.0
4071,70.0,0.0,60.0,1.0,0.0
4072,67.0,0.0,60.0,3.0,0.0
4073,58.0,0.0,60.0,3.0,0.0
4074,36.0,0.0,30.0,8.0,0.0
4075,76.0,0.0,30.0,4.0,0.0
4076,76.0,5.0,30.0,0.0,0.0
4077,55.0,0.0,60.0,2.0,0.0
4078,67.0,15.0,60.0,1.0,0.0
4079,52.0,0.0,60.0,2.0,0.0
4080,48.0,0.0,30.0,7.0,0.0
4081,60.0,0.0,15.0,6.0,0.0
4082,60.0,0.0,15.0,6.0,0.0
4083,58.0,15.0,15.0,5.0,0.0
4084,77.0,0.0,30.0,0.0,0.0
4085,60.0,0.0,15.0,6.0,0.0
4086,56.0,25.0,15.0,5.0,0.0
4087,77.0,5.0,30.0,4.0,0.0
4088,65.0,0.0,60.0,1.0,0.0
4089,56.0,15.0,60.0,2.0,0.0
4090,53.0,0.0,60.0,2.0,0.0
4091,68.0,0.0,60.0,1.0,0.0
4092,60.0,0.0,15.0,6.0,0.0
4093,56.0,15.0,15.0,5.0,0.0
4094,58.0,0.0,60.0,2.0,0.0
4095,79.0,0.0,30.0,0.0,0.0
4096,67.0,15.0,60.0,1.0,0.0
4097,64.0,0.0,60.0,1.0,0.0
4098,46.0,5.0,30.0,8.0,0.0
4099,55.0,0.0,60.0,2.0,0.0
4100,58.0,0.0,30.0,7.0,0.0
4101,52.0,0.0,15.0,5.0,0.0
4102,79.0,0.0,30.0,4.0,0.0
4103,60.0,25.0,15.0,6.0,0.0
4104,60.0,0.0,15.0,6.0,0.0
4105,52.0,15.0,15.0,5.0,0.0
4106,60.0,25.0,15.0,6.0,0.0
4107,53.0,0.0,15.0,5.0,0.0
4108,57.0,0.0,30.0,7.0,0.0
4109,72.0,0.0,30.0,4.0,0.0
4110,72.0,5.0,30.0,0.0,0.0
4111,45.0,0.0,30.0,8.0,0.0
4112,60.0,30.0,15.0,6.0,0.0
4113,65.0,0.0,15.0,5.0,0.0
4114,67.0,25.0,15.0,6.0,0.0
4115,46.0,0.0,30.0,8.0,0.0
4116,65.0,0.0,15.0,5.0,0.0
4117,58.0,5.0,30.0,7.0,0.0
4118,67.0,0.0,15.0,6.0,0.0
4119,65.0,30.0,15.0,5.0,0.0
4120,64.0,25.0,15.0,5.0,0.0
4121,67.0,0.0,15.0,6.0,0.0
4122,60.0,0.0,30.0,7.0,0.0
4123,48.0,0.0,30.0,8.0,0.0
4124,70.0,0.0,30.0,4.0,0.0
4125,82.0,5.0,30.0,0.0,0.0
4126,64.0,30.0,15.0,5.0,0.0
4127,67.0,0.0,15.0,6.0,0.0
4128,41.0,0.0,30.0,8.0,0.0
4129,65.0,25.0,15.0,6.0,0.0
4130,72.0,0.0,60.0,1.0,0.0
4131,75.0,0.0,60.0,1.0,0.0
4132,63.0,0.0,15.0,5.0,0.0
4133,81.0,5.0,30.0,0.0,0.0
4134,69.0,0.0,30.0,4.0,0.0
4135,60.0,15.0,60.0,2.0,0.0
4136,53.0,0.0,30.0,7.0,0.0
4137,57.0,0.0,60.0,2.0,0.0
4138,63.0,15.0,15.0,5.0,0.0
4139,65.0,0.0,15.0,6.0,0.0
4140,82.0,0.0,30.0,0.0,0.0
4141,73.0,15.0,60.0,1.0,0.0
4142,70.0,0.0,60.0,1.0,0.0
4143,61.0,0.0,15.0,5.0,0.0
4144,70.0,5.0,30.0,4.0,0.0
4145,58.0,0.0,60.0,2.0,0.0
4146,61.0,0.0,60.0,2.0,0.0
4147,65.0,25.0,15.0,6.0,0.0
4148,61.0,15.0,15.0,5.0,0.0
4149,65.0,0.0,15.0,6.0,0.0
4150,84.0,0.0,30.0,0.0,0.0
4151,65.0,25.0,15.0,6.0,0.0
4152,57.0,0.0,15.0,5.0,0.0
4153,60.0,0.0,60.0,2.0,0.0
4154,63.0,0.0,60.0,2.0,0.0
4155,72.0,5.0,30.0,4.0,0.0
4156,69.0,15.0,60.0,1.0,0.0
4157,72.0,0.0,60.0,1.0,0.0
4158,51.0,0.0,30.0,7.0,0.0
4159,39.0,0.0,30.0,8.0,0.0
4160,57.0,0.0,15.0,5.0,0.0
4161,65.0,15.0,15.0,6.0,0.0
4162,65.0,0.0,15.0,6.0,0.0
4163,65.0,0.0,30.0,4.0,0.0
4164,49.0,0.0,30.0,7.0,0.0
4165,58.0,25.0,15.0,5.0,0.0
4166,37.0,5.0,30.0,8.0,0.0
4167,77.0,0.0,30.0,0.0,0.0
4168,70.0,0.0,15.0,5.0,0.0
4169,65.0,30.0,15.0,6.0,0.0
4170,70.0,25.0,15.0,5.0,0.0
4171,63.0,5.0,30.0,3.0,0.0
4172,51.0,0.0,30.0,7.0,0.0
4173,60.0,0.0,15.0,6.0,0.0
4174,39.0,0.0,30.0,8.0,0.0
4175,60.0,0.0,15.0,6.0,0.0
4176,70.0,30.0,15.0,5.0,0.0
4177,53.0,0.0,30.0,7.0,0.0
4178,65.0,0.0,30.0,3.0,0.0
4179,69.0,0.0,15.0,5.0,0.0
4180,60.0,25.0,15.0,6.0,0.0
4181,75.0,0.0,30.0,0.0,0.0
4182,75.0,5.0,30.0,4.0,0.0
4183,41.0,0.0,30.0,8.0,0.0
4184,60.0,30.0,15.0,6.0,0.0
4185,69.0,0.0,15.0,5.0,0.0
4186,53.0,15.0,60.0,2.0,0.0
4187,46.0,0.0,30.0,7.0,0.0
4188,68.0,0.0,15.0,5.0,0.0
4189,80.0,0.0,60.0,1.0,0.0
4190,77.0,0.0,60.0,1.0,0.0
4191,50.0,0.0,60.0,2.0,0.0
4192,34.0,0.0,30.0,8.0,0.0
4193,65.0,5.0,30.0,3.0,0.0
4194,58.0,0.0,30.0,3.0,0.0
4195,58.0,25.0,15.0,6.0,0.0
4196,74.0,0.0,30.0,0.0,0.0
4197,74.0,0.0,30.0,4.0,0.0
4198,58.0,0.0,15.0,6.0,0.0
4199,68.0,15.0,15.0,5.0,0.0
4200,51.0,0.0,60.0,2.0,0.0
4201,75.0,5.0,30.0,0.0,0.0
4202,58.0,25.0,15.0,6.0,0.0
4203,66.0,0.0,15.0,5.0,0.0
4204,54.0,0.0,60.0,2.0,0.0
4205,75.0,0.0,30.0,4.0,0.0
4206,78.0,0.0,60.0,1.0,0.0
4207,75.0,15.0,60.0,1.0,0.0
4208,58.0,15.0,15.0,6.0,0.0
4209,66.0,0.0,15.0,5.0,0.0
4210,74.0,0.0,60.0,1.0,0.0
4211,77.0,0.0,30.0,0.0,0.0
4212,77.0,0.0,60.0,1.0,0.0
4213,58.0,0.0,30.0,3.0,0.0
4214,56.0,0.0,60.0,2.0,0.0
4215,65.0,0.0,30.0,3.0,0.0
4216,77.0,5.0,30.0,4.0,0.0
4217,44.0,0.0,30.0,8.0,0.0
4218,56.0,0.0,30.0,7.0,0.0
4219,62.0,25.0,15.0,5.0,0.0
4220,58.0,0.0,15.0,6.0,0.0
4221,53.0,15.0,60.0,2.0,0.0
4222,62.0,15.0,15.0,5.0,0.0
4223,58.0,0.0,15.0,6.0,0.0
4224,70.0,0.0,30.0,4.0,0.0
4225,42.0,0.0,30.0,8.0,0.0
4226,63.0,5.0,30.0,3.0,0.0
4227,51.0,0.0,30.0,3.0,0.0
4228,70.0,0.0,30.0,0.0,0.0
4229,63.0,0.0,15.0,5.0,0.0
4230,54.0,0.0,30.0,7.0,0.0
4231,58.0,25.0,15.0,6.0,0.0
4232,58.0,0.0,15.0,6.0,0.0
4233,63.0,30.0,15.0,5.0,0.0
4234,65.0,0.0,30.0,3.0,0.0
4235,63.0,0.0,30.0,3.0,0.0
4236,44.0,0.0,30.0,8.0,0.0
4237,63.0,25.0,15.0,5.0,0.0
4238,56.0,5.0,30.0,7.0,0.0
4239,65.0,0.0,15.0,6.0,0.0
4240,63.0,0.0,15.0,5.0,0.0
4241,65.0,30.0,15.0,6.0,0.0
4242,58.0,0.0,30.0,7.0,0.0
4243,62.0,25.0,15.0,5.0,0.0
4244,80.0,0.0,30.0,0.0,0.0
4245,46.0,0.0,30.0,8.0,0.0
4246,65.0,0.0,15.0,6.0,0.0
4247,58.0,5.0,30.0,3.0,0.0
4248,65.0,0.0,30.0,3.0,0.0
4249,68.0,0.0,30.0,4.0,0.0
4250,62.0,0.0,15.0,5.0,0.0
4251,65.0,30.0,15.0,6.0,0.0
4252,73.0,0.0,60.0,1.0,0.0
4253,70.0,15.0,60.0,1.0,0.0
4254,61.0,25.0,15.0,5.0,0.0
4255,63.0,0.0,15.0,6.0,0.0
4256,51.0,0.0,30.0,3.0,0.0
4257,63.0,5.0,30.0,3.0,0.0
4258,67.0,0.0,30.0,4.0,0.0
4259,58.0,0.0,60.0,2.0,0.0
4260,55.0,0.0,60.0,2.0,0.0
4261,39.0,0.0,30.0,8.0,0.0
4262,79.0,0.0,30.0,0.0,0.0
4263,51.0,0.0,30.0,7.0,0.0
4264,61.0,15.0,15.0,5.0,0.0
4265,63.0,0.0,15.0,6.0,0.0
4266,68.0,5.0,30.0,4.0,0.0
4267,63.0,25.0,15.0,6.0,0.0
4268,59.0,0.0,60.0,2.0,0.0
4269,59.0,0.0,15.0,5.0,0.0
4270,56.0,0.0,60.0,2.0,0.0
4271,68.0,0.0,60.0,1.0,0.0
4272,71.0,15.0,60.0,1.0,0.0
4273,80.0,0.0,30.0,0.0,0.0
4274,59.0,15.0,15.0,5.0,0.0
4275,63.0,0.0,15.0,6.0,0.0
4276,55.0,0.0,15.0,5.0,0.0
4277,70.0,0.0,30.0,4.0,0.0
4278,82.0,5.0,30.0,0.0,0.0
4279,49.0,0.0,30.0,7.0,0.0
4280,37.0,0.0,30.0,8.0,0.0
4281,67.0,0.0,60.0,1.0,0.0
4282,70.0,15.0,60.0,1.0,0.0
4283,63.0,25.0,15.0,6.0,0.0
4284,61.0,0.0,60.0,2.0,0.0
4285,58.0,0.0,60.0,2.0,0.0
4286,55.0,15.0,15.0,5.0,0.0
4287,63.0,0.0,15.0,6.0,0.0
4288,63.0,0.0,30.0,4.0,0.0
4289,48.0,0.0,30.0,7.0,0.0
4290,75.0,5.0,30.0,0.0,0.0
4291,63.0,0.0,15.0,6.0,0.0
4292,36.0,0.0,30.0,8.0,0.0
4293,56.0,25.0,15.0,5.0,0.0
4294,63.0,30.0,15.0,6.0,0.0
4295,56.0,0.0,15.0,5.0,0.0
4296,37.0,0.0,30.0,8.0,0.0
4297,56.0,0.0,15.0,5.0,0.0
4298,49.0,5.0,30.0,7.0,0.0
4299,58.0,25.0,15.0,6.0,0.0
4300,56.0,0.0,15.0,5.0,0.0
4301,58.0,30.0,15.0,6.0,0.0
4302,58.0,0.0,15.0,6.0,0.0
4303,85.0,5.0,30.0,0.0,0.0
4304,55.0,25.0,15.0,5.0,0.0
4305,73.0,0.0,30.0,4.0,0.0
4306,51.0,0.0,30.0,7.0,0.0
4307,70.0,0.0,60.0,1.0,0.0
4308,55.0,0.0,60.0,2.0,0.0
4309,58.0,0.0,60.0,2.0,0.0
4310,67.0,15.0,60.0,1.0,0.0
4311,39.0,0.0,30.0,8.0,0.0
4312,51.0,0.0,30.0,3.0,0.0
4313,63.0,0.0,30.0,3.0,0.0
4314,55.0,0.0,15.0,5.0,0.0
4315,58.0,15.0,15.0,6.0,0.0
4316,63.0,15.0,120.0,3.0,0.0
4317,56.0,0.0,30.0,2.0,0.0
4318,60.0,0.0,30.0,2.0,0.0
4319,51.0,0.0,120.0,3.0,0.0
4320,32.0,0.0,30.0,8.0,0.0
4321,84.0,0.0,30.0,0.0,0.0
4322,72.0,0.0,30.0,4.0,0.0
4323,60.0,25.0,15.0,5.0,0.0
4324,56.0,0.0,15.0,6.0,0.0
4325,44.0,0.0,30.0,7.0,0.0
4326,68.0,0.0,30.0,1.0,0.0
4327,72.0,35.0,30.0,1.0,0.0
4328,74.0,0.0,30.0,1.0,0.0
4329,86.0,0.0,30.0,0.0,0.0
4330,62.0,25.0,15.0,5.0,0.0
4331,74.0,0.0,30.0,4.0,0.0
4332,62.0,20.0,30.0,2.0,0.0
4333,87.0,0.0,30.0,0.0,0.0
4334,63.0,25.0,15.0,5.0,0.0
4335,39.0,35.0,30.0,8.0,0.0
4336,75.0,0.0,30.0,4.0,0.0
4337,51.0,0.0,30.0,7.0,0.0
4338,75.0,0.0,30.0,1.0,0.0
4339,63.0,0.0,30.0,1.0,0.0
4340,51.0,0.0,30.0,2.0,0.0
4341,63.0,0.0,30.0,2.0,0.0
4342,51.0,0.0,15.0,6.0,0.0
4343,80.0,0.0,30.0,0.0,0.0
4344,56.0,0.0,30.0,2.0,0.0
4345,56.0,25.0,15.0,5.0,0.0
4346,60.0,0.0,30.0,7.0,0.0
4347,68.0,0.0,30.0,4.0,0.0
4348,48.0,0.0,30.0,2.0,0.0
4349,48.0,35.0,30.0,8.0,0.0
4350,60.0,0.0,15.0,6.0,0.0
4351,68.0,0.0,30.0,1.0,0.0
4352,60.0,0.0,30.0,1.0,0.0
4353,50.0,35.0,30.0,8.0,0.0
4354,62.0,0.0,30.0,7.0,0.0
4355,58.0,0.0,15.0,5.0,0.0
4356,62.0,0.0,30.0,1.0,0.0
4357,70.0,0.0,30.0,1.0,0.0
4358,62.0,25.0,15.0,6.0,0.0
4359,50.0,0.0,30.0,2.0,0.0
4360,70.0,0.0,30.0,4.0,0.0
4361,58.0,0.0,30.0,2.0,0.0
4362,82.0,0.0,30.0,0.0,0.0
4363,60.0,0.0,30.0,2.0,0.0
4364,51.0,0.0,30.0,8.0,0.0
4365,84.0,0.0,30.0,0.0,0.0
4366,63.0,0.0,30.0,1.0,0.0
4367,72.0,0.0,30.0,4.0,0.0
4368,63.0,35.0,30.0,7.0,0.0
4369,72.0,0.0,30.0,1.0,0.0
4370,60.0,0.0,15.0,5.0,0.0
4371,63.0,25.0,15.0,6.0,0.0
4372,51.0,0.0,30.0,2.0,0.0
4373,56.0,0.0,30.0,7.0,0.0
4374,77.0,35.0,30.0,0.0,0.0
4375,56.0,25.0,15.0,6.0,0.0
4376,44.0,0.0,30.0,8.0,0.0
4377,68.0,0.0,30.0,1.0,0.0
4378,53.0,0.0,15.0,5.0,0.0
4379,53.0,0.0,30.0,2.0,0.0
4380,44.0,0.0,30.0,2.0,0.0
4381,65.0,0.0,30.0,4.0,0.0
4382,77.0,0.0,30.0,1.0,0.0
4383,58.0,0.0,30.0,7.0,0.0
4384,70.0,0.0,30.0,1.0,0.0
4385,79.0,0.0,30.0,0.0,0.0
4386,46.0,35.0,30.0,8.0,0.0
4387,46.0,0.0,30.0,2.0,0.0
4388,55.0,0.0,30.0,2.0,0.0
4389,58.0,25.0,15.0,6.0,0.0
4390,67.0,0.0,30.0,4.0,0.0
4391,55.0,0.0,15.0,5.0,0.0
4392,79.0,0.0,30.0,1.0,0.0
4393,48.0,0.0,30.0,8.0,0.0
4394,80.0,0.0,30.0,0.0,0.0
4395,56.0,0.0,30.0,2.0,0.0
4396,48.0,0.0,30.0,2.0,0.0
4397,60.0,25.0,15.0,6.0,0.0
4398,56.0,0.0,15.0,5.0,0.0
4399,68.0,0.0,30.0,4.0,0.0
4400,80.0,60.0,30.0,1.0,0.0
4401,72.0,0.0,30.0,1.0,0.0
4402,60.0,0.0,30.0,7.0,0.0
4403,53.0,0.0,1140.0,6.0,0.0
4404,38.0,0.0,30.0,8.0,0.0
4405,50.0,20.0,30.0,7.0,0.0
4406,38.0,0.0,30.0,2.0,0.0
4407,46.0,0.0,30.0,2.0,0.0
4408,56.0,40.0,1140.0,5.0,0.0
4409,70.0,0.0,30.0,0.0,0.0
4410,58.0,0.0,30.0,1.0,0.0
4411,70.0,0.0,30.0,1.0,0.0
4412,58.0,60.0,60.0,4.0,0.0
4413,68.0,40.0,60.0,4.0,0.0
4414,47.0,0.0,60.0,7.0,0.0
4415,59.0,40.0,60.0,4.0,0.0
4416,35.0,0.0,60.0,8.0,0.0
4417,75.0,20.0,30.0,1.0,0.0
4418,63.0,0.0,30.0,1.0,0.0
4419,74.0,20.0,30.0,1.0,0.0
4420,62.0,0.0,30.0,1.0,0.0
4421,46.0,0.0,60.0,7.0,0.0
4422,34.0,0.0,60.0,8.0,0.0
4423,58.0,40.0,60.0,4.0,0.0
4424,68.0,40.0,60.0,4.0,0.0
4425,63.0,0.0,30.0,1.0,0.0
4426,75.0,20.0,30.0,1.0,0.0
4427,83.0,0.0,60.0,0.0,0.0
4428,71.0,0.0,60.0,0.0,0.0
4429,65.0,0.0,30.0,1.0,0.0
4430,77.0,0.0,30.0,1.0,0.0
4431,39.0,20.0,30.0,2.0,0.0
4432,51.0,0.0,30.0,2.0,0.0
4433,59.0,40.0,60.0,4.0,0.0
4434,82.0,0.0,30.0,0.0,0.0
4435,70.0,0.0,30.0,0.0,0.0
4436,70.0,20.0,30.0,1.0,0.0
4437,58.0,0.0,30.0,1.0,0.0
4438,58.0,40.0,60.0,4.0,0.0
4439,38.0,0.0,30.0,2.0,0.0
4440,50.0,0.0,30.0,2.0,0.0
4441,39.0,20.0,30.0,2.0,0.0
4442,51.0,0.0,30.0,2.0,0.0
4443,68.0,40.0,60.0,4.0,0.0
4444,35.0,40.0,60.0,8.0,0.0
4445,59.0,0.0,60.0,4.0,0.0
4446,53.0,0.0,30.0,2.0,0.0
4447,41.0,0.0,30.0,2.0,0.0
4448,63.0,0.0,30.0,1.0,0.0
4449,75.0,20.0,30.0,1.0,0.0
4450,47.0,0.0,60.0,7.0,0.0
4451,58.0,40.0,60.0,4.0,0.0
4452,74.0,5.0,30.0,1.0,0.0
4453,34.0,0.0,30.0,2.0,0.0
4454,46.0,0.0,30.0,2.0,0.0
4455,62.0,0.0,30.0,1.0,0.0
4456,46.0,0.0,60.0,7.0,0.0
4457,34.0,15.0,60.0,8.0,0.0
4458,75.0,20.0,30.0,1.0,0.0
4459,63.0,0.0,30.0,1.0,0.0
4460,68.0,40.0,60.0,4.0,0.0
4461,71.0,40.0,60.0,0.0,0.0
4462,51.0,0.0,30.0,2.0,0.0
4463,39.0,0.0,30.0,2.0,0.0
4464,59.0,0.0,60.0,4.0,0.0
4465,83.0,0.0,60.0,0.0,0.0
4466,65.0,20.0,30.0,1.0,0.0
4467,77.0,0.0,30.0,1.0,0.0
4468,50.0,20.0,30.0,2.0,0.0
4469,38.0,0.0,30.0,2.0,0.0
4470,70.0,0.0,30.0,1.0,0.0
4471,58.0,0.0,30.0,1.0,0.0
4472,58.0,40.0,60.0,4.0,0.0
4473,70.0,0.0,30.0,0.0,0.0
4474,82.0,0.0,30.0,0.0,0.0
4475,68.0,40.0,60.0,4.0,0.0
4476,51.0,0.0,30.0,2.0,0.0
4477,39.0,20.0,30.0,2.0,0.0
4478,59.0,40.0,60.0,4.0,0.0
4479,63.0,0.0,30.0,1.0,0.0
4480,41.0,0.0,30.0,2.0,0.0
4481,53.0,0.0,30.0,2.0,0.0
4482,47.0,0.0,60.0,7.0,0.0
4483,35.0,0.0,60.0,8.0,0.0
4484,75.0,20.0,30.0,1.0,0.0
4485,62.0,0.0,30.0,1.0,0.0
4486,74.0,5.0,30.0,1.0,0.0
4487,46.0,0.0,30.0,2.0,0.0
4488,34.0,0.0,30.0,2.0,0.0
4489,46.0,15.0,60.0,7.0,0.0
4490,34.0,0.0,60.0,8.0,0.0
4491,58.0,40.0,60.0,4.0,0.0
4492,63.0,0.0,30.0,1.0,0.0
4493,68.0,40.0,60.0,4.0,0.0
4494,75.0,20.0,30.0,1.0,0.0
4495,39.0,0.0,60.0,8.0,0.0
4496,51.0,0.0,60.0,7.0,0.0
4497,59.0,0.0,60.0,4.0,0.0
4498,65.0,0.0,30.0,1.0,0.0
4499,77.0,20.0,30.0,1.0,0.0
4500,71.0,40.0,60.0,0.0,0.0
4501,83.0,0.0,60.0,0.0,0.0
4502,58.0,0.0,30.0,4.0,0.0
4503,38.0,0.0,60.0,8.0,0.0
4504,50.0,0.0,60.0,7.0,0.0
4505,58.0,0.0,30.0,1.0,0.0
4506,70.0,20.0,30.0,1.0,0.0
4507,46.0,0.0,30.0,2.0,0.0
4508,82.0,0.0,30.0,0.0,0.0
4509,70.0,0.0,30.0,0.0,0.0
4510,60.0,0.0,30.0,4.0,0.0
4511,48.0,60.0,30.0,2.0,0.0
4512,72.0,0.0,30.0,1.0,0.0
4513,74.0,0.0,30.0,1.0,0.0
4514,62.0,0.0,30.0,4.0,0.0
4515,50.0,60.0,30.0,2.0,0.0
4516,74.0,0.0,30.0,1.0,0.0
4517,70.0,0.0,30.0,1.0,0.0
4518,62.0,0.0,30.0,4.0,0.0
4519,58.0,60.0,30.0,5.0,0.0
4520,46.0,0.0,30.0,2.0,0.0
4521,50.0,0.0,30.0,2.0,0.0
4522,75.0,0.0,30.0,1.0,0.0
4523,63.0,0.0,30.0,4.0,0.0
4524,48.0,0.0,30.0,2.0,0.0
4525,60.0,60.0,30.0,5.0,0.0
4526,72.0,0.0,30.0,1.0,0.0
4527,51.0,0.0,30.0,2.0,0.0
4528,50.0,0.0,30.0,2.0,0.0
4529,53.0,80.0,30.0,2.0,0.0
4530,74.0,0.0,30.0,1.0,0.0
4531,65.0,0.0,30.0,4.0,0.0
4532,77.0,0.0,30.0,1.0,0.0
4533,62.0,0.0,30.0,5.0,0.0
4534,77.0,0.0,60.0,0.0,0.0
4535,65.0,0.0,60.0,4.0,0.0
4536,53.0,0.0,60.0,2.0,0.0
4537,62.0,0.0,60.0,5.0,0.0
4538,65.0,0.0,60.0,3.0,0.0
4539,58.0,0.0,360.0,1.0,0.0
4540,50.0,0.0,60.0,2.0,0.0
4541,74.0,60.0,60.0,0.0,0.0
4542,70.0,0.0,360.0,1.0,0.0
4543,58.0,0.0,60.0,3.0,0.0
4544,55.0,0.0,60.0,2.0,0.0
4545,63.0,0.0,60.0,3.0,0.0
4546,67.0,60.0,60.0,3.0,0.0
4547,51.0,0.0,60.0,2.0,0.0
4548,75.0,0.0,60.0,0.0,0.0
4549,79.0,0.0,60.0,0.0,0.0
4550,63.0,0.0,60.0,5.0,0.0
4551,67.0,0.0,60.0,4.0,0.0
4552,56.0,0.0,60.0,2.0,0.0
4553,53.0,0.0,60.0,2.0,0.0
4554,65.0,0.0,60.0,3.0,0.0
4555,77.0,0.0,60.0,0.0,0.0
4556,67.0,0.0,15.0,5.0,0.0
4557,70.0,0.0,15.0,4.0,0.0
4558,67.0,0.0,15.0,3.0,0.0
4559,70.0,0.0,15.0,3.0,0.0
4560,79.0,0.0,15.0,0.0,0.0
4561,55.0,0.0,15.0,2.0,0.0
4562,58.0,0.0,15.0,2.0,0.0
4563,82.0,0.0,15.0,0.0,0.0
4564,56.0,60.0,60.0,2.0,0.0
4565,53.0,0.0,60.0,2.0,0.0
4566,65.0,0.0,60.0,3.0,0.0
4567,68.0,0.0,15.0,3.0,0.0
4568,65.0,0.0,15.0,5.0,0.0
4569,77.0,0.0,60.0,0.0,0.0
4570,80.0,60.0,15.0,0.0,0.0
4571,68.0,0.0,15.0,4.0,0.0
4572,51.0,0.0,60.0,2.0,0.0
4573,63.0,0.0,60.0,5.0,0.0
4574,67.0,0.0,60.0,4.0,0.0
4575,55.0,0.0,60.0,2.0,0.0
4576,79.0,0.0,60.0,0.0,0.0
4577,75.0,0.0,60.0,0.0,0.0
4578,63.0,60.0,60.0,3.0,0.0
4579,67.0,0.0,60.0,3.0,0.0
4580,77.0,0.0,60.0,0.0,0.0
4581,74.0,0.0,60.0,0.0,0.0
4582,65.0,0.0,60.0,3.0,0.0
4583,53.0,60.0,60.0,2.0,0.0
4584,50.0,0.0,60.0,2.0,0.0
4585,65.0,0.0,60.0,4.0,0.0
4586,62.0,0.0,60.0,5.0,0.0
4587,58.0,0.0,60.0,3.0,0.0
4588,75.0,0.0,120.0,0.0,0.0
4589,67.0,0.0,60.0,1.0,0.0
4590,63.0,60.0,60.0,1.0,0.0
4591,63.0,60.0,120.0,4.0,0.0
4592,51.0,0.0,120.0,2.0,0.0
4593,51.0,0.0,1140.0,3.0,0.0
4594,39.0,0.0,1140.0,8.0,0.0
4595,51.0,0.0,720.0,6.0,0.0
4596,55.0,0.0,120.0,5.0,0.0
4597,51.0,0.0,1140.0,7.0,0.0
4598,63.0,0.0,1140.0,3.0,0.0
4599,70.0,120.0,60.0,0.0,0.0
4600,79.0,0.0,60.0,0.0,0.0
4601,58.0,0.0,60.0,5.0,0.0
4602,67.0,0.0,60.0,4.0,0.0
4603,55.0,0.0,60.0,2.0,0.0
4604,53.0,0.0,120.0,2.0,0.0
4605,56.0,0.0,120.0,5.0,0.0
4606,77.0,0.0,120.0,0.0,0.0
4607,68.0,60.0,120.0,0.0,0.0
4608,65.0,0.0,120.0,4.0,0.0
4609,75.0,0.0,60.0,0.0,0.0
4610,55.0,0.0,60.0,5.0,0.0
4611,51.0,0.0,60.0,2.0,0.0
4612,63.0,0.0,60.0,4.0,0.0
4613,67.0,60.0,60.0,0.0,0.0
4614,72.0,60.0,180.0,1.0,0.0
4615,75.0,0.0,360.0,0.0,0.0
4616,58.0,0.0,60.0,2.0,0.0
4617,60.0,60.0,120.0,5.0,0.0
4618,82.0,60.0,60.0,0.0,0.0
4619,70.0,0.0,60.0,4.0,0.0
4620,81.0,0.0,60.0,0.0,0.0
4621,69.0,0.0,60.0,4.0,0.0
4622,57.0,0.0,60.0,2.0,0.0
4623,80.0,0.0,120.0,0.0,0.0
4624,63.0,0.0,60.0,5.0,0.0
4625,68.0,60.0,120.0,4.0,0.0
4626,56.0,0.0,120.0,2.0,0.0
4627,58.0,0.0,120.0,5.0,0.0
4628,70.0,60.0,180.0,1.0,0.0
4629,78.0,0.0,60.0,0.0,0.0
4630,54.0,0.0,60.0,2.0,0.0
4631,66.0,60.0,60.0,4.0,0.0
4632,79.0,0.0,120.0,0.0,0.0
4633,63.0,0.0,60.0,5.0,0.0
4634,55.0,60.0,120.0,2.0,0.0
4635,67.0,0.0,120.0,4.0,0.0
4636,56.0,0.0,360.0,5.0,0.0
4637,50.0,0.0,240.0,6.0,0.0
4638,59.0,0.0,180.0,5.0,0.0
4639,71.0,0.0,180.0,0.0,0.0
4640,68.0,0.0,360.0,1.0,0.0
4641,64.0,0.0,60.0,4.0,0.0
4642,76.0,0.0,60.0,0.0,0.0
4643,52.0,60.0,60.0,2.0,0.0
4644,65.0,30.0,60.0,4.0,0.0
4645,77.0,0.0,60.0,0.0,0.0
4646,53.0,0.0,60.0,2.0,0.0
4647,69.0,30.0,30.0,0.0,0.0
4648,45.0,0.0,30.0,2.0,0.0
4649,57.0,0.0,30.0,4.0,0.0
4650,46.0,30.0,30.0,2.0,0.0
4651,58.0,0.0,30.0,4.0,0.0
4652,47.0,0.0,30.0,2.0,0.0
4653,51.0,0.0,60.0,6.0,0.0
4654,71.0,0.0,30.0,0.0,0.0
4655,59.0,30.0,30.0,4.0,0.0
4656,72.0,0.0,30.0,0.0,0.0
4657,48.0,30.0,30.0,2.0,0.0
4658,60.0,0.0,30.0,4.0,0.0
4659,73.0,0.0,30.0,0.0,0.0
4660,53.0,0.0,60.0,6.0,0.0
4661,61.0,0.0,30.0,4.0,0.0
4662,49.0,30.0,30.0,2.0,0.0
4663,50.0,0.0,30.0,2.0,0.0
4664,74.0,0.0,30.0,0.0,0.0
4665,62.0,15.0,30.0,4.0,0.0
4666,51.0,0.0,15.0,6.0,0.0
4667,67.0,0.0,60.0,1.0,0.0
4668,70.0,0.0,15.0,0.0,0.0
4669,75.0,0.0,60.0,0.0,0.0
4670,58.0,0.0,15.0,5.0,0.0
4671,55.0,0.0,15.0,5.0,0.0
4672,51.0,15.0,60.0,2.0,0.0
4673,63.0,0.0,60.0,4.0,0.0
4674,55.0,0.0,15.0,5.0,0.0
4675,58.0,15.0,15.0,6.0,0.0
4676,58.0,25.0,15.0,6.0,0.0
4677,46.0,5.0,30.0,3.0,0.0
4678,58.0,0.0,30.0,3.0,0.0
4679,55.0,0.0,15.0,5.0,0.0
4680,55.0,0.0,15.0,5.0,0.0
4681,58.0,30.0,15.0,6.0,0.0
4682,58.0,25.0,15.0,6.0,0.0
4683,46.0,0.0,30.0,3.0,0.0
4684,58.0,0.0,30.0,3.0,0.0
4685,55.0,0.0,15.0,5.0,0.0
4686,75.0,5.0,30.0,4.0,0.0
4687,58.0,30.0,15.0,6.0,0.0
4688,55.0,0.0,15.0,5.0,0.0
4689,74.0,5.0,30.0,4.0,0.0
4690,58.0,0.0,15.0,6.0,0.0
4691,58.0,15.0,240.0,3.0,0.0
4692,46.0,0.0,240.0,3.0,0.0
4693,56.0,25.0,15.0,5.0,0.0
4694,58.0,0.0,15.0,6.0,0.0
4695,56.0,30.0,15.0,5.0,0.0
4696,56.0,25.0,15.0,5.0,0.0
4697,75.0,5.0,30.0,4.0,0.0
4698,58.0,0.0,15.0,6.0,0.0
4699,56.0,0.0,15.0,5.0,0.0
4700,58.0,30.0,15.0,6.0,0.0
4701,58.0,25.0,15.0,6.0,0.0
4702,56.0,0.0,15.0,5.0,0.0
4703,77.0,0.0,30.0,4.0,0.0
4704,51.0,5.0,30.0,7.0,0.0
4705,39.0,0.0,30.0,8.0,0.0
4706,58.0,30.0,15.0,6.0,0.0
4707,56.0,0.0,15.0,5.0,0.0
4708,58.0,15.0,15.0,6.0,0.0
4709,70.0,5.0,30.0,4.0,0.0
4710,56.0,10.0,30.0,5.0,0.0
4711,50.0,0.0,30.0,7.0,0.0
4712,38.0,0.0,30.0,8.0,0.0
4713,65.0,0.0,15.0,5.0,0.0
4714,58.0,15.0,15.0,6.0,0.0
4715,39.0,0.0,30.0,8.0,0.0
4716,58.0,5.0,30.0,3.0,0.0
4717,46.0,0.0,30.0,3.0,0.0
4718,51.0,0.0,30.0,7.0,0.0
4719,65.0,0.0,15.0,5.0,0.0
4720,58.0,25.0,15.0,6.0,0.0
4721,58.0,30.0,15.0,6.0,0.0
4722,65.0,0.0,15.0,5.0,0.0
4723,80.0,0.0,30.0,4.0,0.0
4724,53.0,0.0,30.0,7.0,0.0
4725,65.0,0.0,15.0,5.0,0.0
4726,58.0,25.0,15.0,6.0,0.0
4727,58.0,0.0,30.0,3.0,0.0
4728,41.0,5.0,30.0,8.0,0.0
4729,46.0,0.0,30.0,3.0,0.0
4730,58.0,0.0,15.0,6.0,0.0
4731,65.0,30.0,15.0,5.0,0.0
4732,65.0,0.0,15.0,5.0,0.0
4733,58.0,25.0,15.0,6.0,0.0
4734,46.0,0.0,240.0,3.0,0.0
4735,46.0,5.0,30.0,7.0,0.0
4736,79.0,0.0,30.0,4.0,0.0
4737,34.0,0.0,30.0,8.0,0.0
4738,58.0,15.0,240.0,3.0,0.0
4739,65.0,30.0,15.0,5.0,0.0
4740,58.0,0.0,15.0,6.0,0.0
4741,80.0,5.0,30.0,4.0,0.0
4742,65.0,25.0,15.0,5.0,0.0
4743,58.0,0.0,15.0,6.0,0.0
4744,65.0,0.0,15.0,5.0,0.0
4745,58.0,30.0,15.0,6.0,0.0
4746,58.0,0.0,15.0,6.0,0.0
4747,56.0,5.0,30.0,7.0,0.0
4748,65.0,25.0,15.0,5.0,0.0
4749,44.0,0.0,30.0,8.0,0.0
4750,82.0,0.0,30.0,4.0,0.0
4751,65.0,30.0,15.0,5.0,0.0
4752,58.0,0.0,15.0,6.0,0.0
4753,58.0,15.0,15.0,6.0,0.0
4754,55.0,0.0,30.0,7.0,0.0
4755,75.0,0.0,30.0,4.0,0.0
4756,43.0,5.0,30.0,8.0,0.0
4757,63.0,10.0,30.0,5.0,0.0
4758,67.0,0.0,15.0,5.0,0.0
4759,58.0,15.0,15.0,6.0,0.0
4760,58.0,25.0,15.0,6.0,0.0
4761,44.0,5.0,30.0,8.0,0.0
4762,67.0,0.0,15.0,5.0,0.0
4763,56.0,0.0,30.0,7.0,0.0
4764,67.0,0.0,15.0,5.0,0.0
4765,58.0,30.0,15.0,6.0,0.0
4766,82.0,0.0,120.0,4.0,0.0
4767,46.0,5.0,30.0,8.0,0.0
4768,58.0,0.0,15.0,6.0,0.0
4769,67.0,25.0,15.0,5.0,0.0
4770,58.0,0.0,30.0,7.0,0.0
4771,58.0,75.0,15.0,6.0,0.0
4772,67.0,0.0,15.0,5.0,0.0
4773,60.0,0.0,120.0,7.0,0.0
4774,48.0,0.0,120.0,8.0,0.0
4775,63.0,0.0,60.0,6.0,0.0
4776,67.0,60.0,60.0,5.0,0.0
4777,75.0,0.0,60.0,4.0,0.0
4778,70.0,40.0,60.0,5.0,0.0
4779,67.0,0.0,60.0,6.0,0.0
4780,65.0,60.0,60.0,6.0,0.0
4781,41.0,0.0,30.0,8.0,0.0
4782,80.0,60.0,120.0,4.0,0.0
4783,53.0,20.0,30.0,7.0,0.0
4784,68.0,0.0,60.0,5.0,0.0
4785,46.0,0.0,120.0,8.0,0.0
4786,58.0,60.0,120.0,7.0,0.0
4787,65.0,0.0,60.0,5.0,0.0
4788,62.0,0.0,60.0,6.0,0.0
4789,65.0,0.0,60.0,6.0,0.0
4790,68.0,0.0,60.0,5.0,0.0
4791,74.0,0.0,60.0,4.0,0.0
4792,79.0,0.0,60.0,4.0,0.0
4793,67.0,0.0,60.0,5.0,0.0
4794,63.0,0.0,60.0,6.0,0.0
4795,51.0,60.0,60.0,7.0,0.0
4796,39.0,0.0,60.0,8.0,0.0
4797,44.0,60.0,60.0,8.0,0.0
4798,56.0,0.0,60.0,7.0,0.0
4799,68.0,0.0,60.0,5.0,0.0
4800,60.0,0.0,60.0,6.0,0.0
4801,77.0,0.0,60.0,4.0,0.0
4802,56.0,0.0,60.0,6.0,0.0
4803,41.0,0.0,60.0,8.0,0.0
4804,80.0,60.0,60.0,4.0,0.0
4805,53.0,0.0,60.0,7.0,0.0
4806,72.0,0.0,60.0,5.0,0.0
4807,58.0,0.0,60.0,6.0,0.0
4808,58.0,0.0,60.0,7.0,0.0
4809,65.0,30.0,60.0,5.0,0.0
4810,74.0,0.0,60.0,4.0,0.0
4811,46.0,0.0,60.0,8.0,0.0
4812,43.0,0.0,30.0,8.0,0.0
4813,55.0,30.0,30.0,7.0,0.0
4814,75.0,0.0,60.0,4.0,0.0
4815,58.0,30.0,60.0,6.0,0.0
4816,70.0,0.0,60.0,5.0,0.0
4817,39.0,0.0,30.0,8.0,0.0
4818,70.0,0.0,60.0,4.0,0.0
4819,63.0,60.0,60.0,6.0,0.0
4820,67.0,0.0,60.0,5.0,0.0
4821,51.0,30.0,30.0,7.0,0.0
4822,46.0,0.0,120.0,8.0,0.0
4823,62.0,60.0,60.0,6.0,0.0
4824,65.0,0.0,60.0,5.0,0.0
4825,58.0,0.0,120.0,7.0,0.0
4826,72.0,60.0,180.0,4.0,0.0
4827,84.0,0.0,180.0,1.0,0.0
4828,67.0,60.0,60.0,5.0,0.0
4829,63.0,0.0,60.0,6.0,0.0
4830,60.0,0.0,180.0,2.0,0.0
4831,39.0,0.0,60.0,8.0,0.0
4832,51.0,0.0,60.0,7.0,0.0
4833,70.0,60.0,60.0,5.0,0.0
4834,67.0,0.0,60.0,6.0,0.0
4835,65.0,0.0,60.0,6.0,0.0
4836,44.0,0.0,120.0,8.0,0.0
4837,56.0,0.0,120.0,7.0,0.0
4838,68.0,0.0,60.0,5.0,0.0
4839,65.0,60.0,60.0,5.0,0.0
4840,62.0,0.0,60.0,6.0,0.0
4841,38.0,0.0,60.0,8.0,0.0
4842,65.0,60.0,60.0,6.0,0.0
4843,68.0,0.0,60.0,5.0,0.0
4844,50.0,0.0,60.0,7.0,0.0
4845,51.0,0.0,60.0,7.0,0.0
4846,39.0,0.0,60.0,8.0,0.0
4847,63.0,0.0,60.0,6.0,0.0
4848,67.0,0.0,15.0,5.0,0.0
4849,82.0,0.0,15.0,1.0,0.0
4850,70.0,0.0,15.0,4.0,0.0
4851,58.0,0.0,15.0,2.0,0.0
4852,56.0,0.0,30.0,2.0,0.0
4853,44.0,0.0,30.0,7.0,0.0
4854,60.0,60.0,30.0,6.0,0.0
4855,65.0,0.0,30.0,5.0,0.0
4856,68.0,0.0,30.0,4.0,0.0
4857,32.0,0.0,30.0,8.0,0.0
4858,80.0,0.0,30.0,1.0,0.0
4859,79.0,0.0,30.0,1.0,0.0
4860,55.0,0.0,30.0,2.0,0.0
4861,34.0,0.0,30.0,8.0,0.0
4862,58.0,0.0,30.0,6.0,0.0
4863,63.0,0.0,30.0,5.0,0.0
4864,46.0,0.0,30.0,7.0,0.0
4865,67.0,60.0,30.0,4.0,0.0
4866,46.0,0.0,30.0,7.0,0.0
4867,56.0,60.0,30.0,6.0,0.0
4868,62.0,0.0,30.0,5.0,0.0
4869,53.0,0.0,30.0,2.0,0.0
4870,34.0,0.0,30.0,8.0,0.0
4871,77.0,0.0,30.0,1.0,0.0
4872,65.0,0.0,30.0,4.0,0.0
4873,63.0,0.0,30.0,4.0,0.0
4874,55.0,0.0,30.0,6.0,0.0
4875,63.0,0.0,30.0,5.0,0.0
4876,51.0,0.0,30.0,2.0,0.0
4877,39.0,120.0,30.0,7.0,0.0
4878,27.0,0.0,30.0,8.0,0.0
4879,75.0,0.0,30.0,1.0,0.0
4880,63.0,0.0,30.0,4.0,0.0
4881,39.0,0.0,30.0,8.0,0.0
4882,51.0,60.0,30.0,7.0,0.0
4883,63.0,0.0,30.0,5.0,0.0
4884,51.0,0.0,30.0,6.0,0.0
4885,61.0,0.0,30.0,5.0,0.0
4886,61.0,0.0,30.0,4.0,0.0
4887,49.0,60.0,30.0,7.0,0.0
4888,49.0,0.0,30.0,6.0,0.0
4889,37.0,0.0,30.0,8.0,0.0
4890,51.0,0.0,30.0,7.0,0.0
4891,63.0,0.0,30.0,4.0,0.0
4892,39.0,0.0,30.0,8.0,0.0
4893,51.0,0.0,30.0,6.0,0.0
4894,63.0,60.0,30.0,5.0,0.0
4895,64.0,0.0,30.0,4.0,0.0
4896,64.0,0.0,30.0,5.0,0.0
4897,52.0,60.0,30.0,6.0,0.0
4898,40.0,0.0,30.0,8.0,0.0
4899,52.0,0.0,30.0,7.0,0.0
4900,34.0,0.0,30.0,8.0,0.0
4901,58.0,0.0,30.0,5.0,0.0
4902,68.0,30.0,60.0,1.0,0.0
4903,58.0,70.0,90.0,2.0,0.0
4904,52.0,0.0,60.0,2.0,0.0
4905,46.0,0.0,30.0,7.0,0.0
4906,46.0,20.0,30.0,6.0,0.0
4907,58.0,0.0,30.0,4.0,0.0
4908,73.0,0.0,90.0,1.0,0.0
4909,67.0,0.0,30.0,1.0,0.0
4910,51.0,0.0,30.0,2.0,0.0
4911,68.0,0.0,30.0,4.0,0.0
4912,44.0,0.0,30.0,8.0,0.0
4913,56.0,0.0,30.0,6.0,0.0
4914,56.0,60.0,30.0,7.0,0.0
4915,68.0,0.0,30.0,5.0,0.0
4916,67.0,0.0,30.0,5.0,0.0
4917,43.0,60.0,30.0,8.0,0.0
4918,55.0,0.0,30.0,6.0,0.0
4919,67.0,0.0,30.0,4.0,0.0
4920,55.0,0.0,30.0,7.0,0.0
4921,56.0,60.0,30.0,7.0,0.0
4922,56.0,0.0,30.0,6.0,0.0
4923,68.0,0.0,30.0,5.0,0.0
4924,44.0,0.0,30.0,8.0,0.0
4925,68.0,0.0,30.0,4.0,0.0
4926,70.0,0.0,30.0,4.0,0.0
4927,58.0,0.0,30.0,6.0,0.0
4928,46.0,0.0,30.0,8.0,0.0
4929,70.0,0.0,30.0,5.0,0.0
4930,58.0,60.0,30.0,7.0,0.0
4931,36.0,0.0,30.0,8.0,0.0
4932,41.0,0.0,60.0,2.0,0.0
4933,48.0,0.0,30.0,7.0,0.0
4934,60.0,0.0,30.0,4.0,0.0
4935,60.0,20.0,30.0,5.0,0.0
4936,48.0,0.0,30.0,6.0,0.0
4937,53.0,0.0,60.0,2.0,0.0
4938,73.0,40.0,60.0,0.0,0.0
4939,67.0,40.0,120.0,1.0,0.0
4940,85.0,0.0,60.0,0.0,0.0
4941,84.0,0.0,30.0,0.0,0.0
4942,72.0,0.0,30.0,0.0,0.0
4943,40.0,0.0,30.0,2.0,0.0
4944,52.0,20.0,30.0,2.0,0.0
4945,72.0,0.0,30.0,0.0,0.0
4946,40.0,0.0,30.0,2.0,0.0
4947,70.0,0.0,15.0,1.0,0.0
4948,84.0,0.0,30.0,0.0,0.0
4949,67.0,0.0,30.0,1.0,0.0
4950,52.0,0.0,30.0,2.0,0.0
4951,70.0,60.0,30.0,1.0,0.0
4952,72.0,0.0,30.0,0.0,0.0
4953,67.0,0.0,30.0,1.0,0.0
4954,40.0,0.0,30.0,2.0,0.0
4955,52.0,0.0,30.0,2.0,0.0
4956,84.0,0.0,30.0,0.0,0.0
4957,52.0,0.0,30.0,2.0,0.0
4958,67.0,0.0,30.0,1.0,0.0
4959,40.0,0.0,30.0,2.0,0.0
4960,70.0,0.0,30.0,1.0,0.0
4961,84.0,60.0,30.0,0.0,0.0
4962,72.0,0.0,30.0,0.0,0.0
4963,52.0,0.0,30.0,2.0,0.0
4964,40.0,35.0,30.0,2.0,0.0
4965,70.0,0.0,30.0,1.0,0.0
4966,84.0,0.0,30.0,0.0,0.0
4967,72.0,0.0,30.0,0.0,0.0
4968,67.0,0.0,30.0,1.0,0.0
4969,84.0,15.0,120.0,0.0,0.0
4970,53.0,0.0,180.0,2.0,0.0
4971,53.0,0.0,15.0,5.0,0.0
4972,41.0,0.0,180.0,2.0,0.0
4973,68.0,0.0,180.0,1.0,0.0
4974,65.0,0.0,180.0,1.0,0.0
4975,72.0,0.0,120.0,4.0,0.0
4976,41.0,5.0,30.0,7.0,0.0
4977,56.0,25.0,15.0,6.0,0.0
4978,29.0,0.0,30.0,8.0,0.0
4979,53.0,30.0,15.0,5.0,0.0
4980,56.0,0.0,15.0,6.0,0.0
4981,41.0,5.0,30.0,8.0,0.0
4982,53.0,0.0,30.0,7.0,0.0
4983,56.0,0.0,15.0,6.0,0.0
4984,53.0,25.0,15.0,5.0,0.0
4985,56.0,15.0,15.0,6.0,0.0
4986,53.0,0.0,15.0,5.0,0.0
4987,53.0,5.0,30.0,7.0,0.0
4988,41.0,0.0,30.0,8.0,0.0
4989,53.0,15.0,15.0,5.0,0.0
4990,56.0,0.0,15.0,6.0,0.0
4991,82.0,0.0,15.0,0.0,0.0
4992,70.0,0.0,15.0,4.0,0.0
4993,80.0,0.0,15.0,0.0,0.0
4994,68.0,10.0,15.0,4.0,0.0
4995,53.0,0.0,15.0,5.0,0.0
4996,67.0,15.0,15.0,4.0,0.0
4997,79.0,0.0,15.0,0.0,0.0
4998,56.0,0.0,15.0,6.0,0.0
4999,77.0,0.0,15.0,0.0,0.0
5000,65.0,0.0,15.0,4.0,0.0
5001,53.0,0.0,30.0,7.0,0.0
5002,55.0,0.0,15.0,6.0,0.0
5003,58.0,0.0,15.0,6.0,0.0
5004,41.0,0.0,30.0,8.0,0.0
5005,73.0,5.0,30.0,4.0,0.0
5006,85.0,0.0,30.0,0.0,0.0
5007,82.0,0.0,180.0,0.0,0.0
5008,76.0,0.0,180.0,1.0,0.0
5009,67.0,0.0,180.0,1.0,0.0
5010,58.0,0.0,180.0,2.0,0.0
5011,61.0,40.0,180.0,2.0,0.0
5012,52.0,25.0,15.0,5.0,0.0
5013,58.0,0.0,15.0,6.0,0.0
5014,52.0,0.0,15.0,5.0,0.0
5015,55.0,30.0,15.0,6.0,0.0
5016,73.0,5.0,30.0,4.0,0.0
5017,52.0,0.0,15.0,5.0,0.0
5018,41.0,0.0,30.0,8.0,0.0
5019,85.0,0.0,30.0,0.0,0.0
5020,58.0,0.0,15.0,6.0,0.0
5021,53.0,0.0,30.0,7.0,0.0
5022,55.0,25.0,15.0,6.0,0.0
5023,58.0,30.0,15.0,6.0,0.0
5024,55.0,0.0,15.0,6.0,0.0
5025,52.0,0.0,15.0,5.0,0.0
5026,58.0,0.0,15.0,6.0,0.0
5027,55.0,25.0,15.0,6.0,0.0
5028,52.0,0.0,15.0,5.0,0.0
5029,85.0,0.0,30.0,0.0,0.0
5030,41.0,0.0,30.0,8.0,0.0
5031,73.0,0.0,30.0,4.0,0.0
5032,53.0,5.0,30.0,7.0,0.0
5033,52.0,15.0,15.0,5.0,0.0
5034,55.0,0.0,15.0,6.0,0.0
5035,58.0,0.0,15.0,6.0,0.0
5036,77.0,0.0,60.0,1.0,0.0
5037,56.0,0.0,30.0,6.0,0.0
5038,41.0,0.0,30.0,8.0,0.0
5039,80.0,0.0,60.0,0.0,0.0
5040,84.0,210.0,180.0,0.0,0.0
5041,72.0,0.0,180.0,4.0,0.0
5042,68.0,0.0,60.0,1.0,0.0
5043,53.0,0.0,30.0,7.0,0.0
5044,56.0,120.0,60.0,2.0,0.0
5045,65.0,0.0,15.0,3.0,0.0
5046,60.0,0.0,180.0,2.0,0.0
5047,53.0,20.0,30.0,5.0,0.0
5048,83.0,0.0,210.0,0.0,0.0
5049,71.0,0.0,210.0,4.0,0.0
5050,59.0,15.0,210.0,2.0,0.0
5051,53.0,30.0,120.0,5.0,0.0
5052,50.0,0.0,120.0,6.0,0.0
5053,38.0,0.0,120.0,8.0,0.0
5054,50.0,0.0,120.0,7.0,0.0
5055,82.0,0.0,15.0,0.0,0.0
5056,70.0,0.0,15.0,4.0,0.0
5057,58.0,45.0,15.0,2.0,0.0
5058,58.0,0.0,30.0,2.0,0.0
5059,82.0,15.0,30.0,0.0,0.0
5060,70.0,0.0,30.0,4.0,0.0
5061,68.0,0.0,15.0,4.0,0.0
5062,56.0,0.0,15.0,2.0,0.0
5063,80.0,15.0,15.0,0.0,0.0
5064,56.0,0.0,30.0,2.0,0.0
5065,80.0,0.0,30.0,0.0,0.0
5066,51.0,0.0,30.0,6.0,0.0
5067,51.0,5.0,30.0,7.0,0.0
5068,39.0,0.0,30.0,8.0,0.0
5069,55.0,45.0,60.0,5.0,0.0
5070,68.0,10.0,30.0,4.0,0.0
5071,55.0,0.0,15.0,2.0,0.0
5072,79.0,0.0,15.0,0.0,0.0
5073,67.0,0.0,15.0,4.0,0.0
5074,44.0,5.0,30.0,7.0,0.0
5075,58.0,0.0,30.0,5.0,0.0
5076,79.0,0.0,30.0,0.0,0.0
5077,48.0,0.0,30.0,6.0,0.0
5078,32.0,0.0,30.0,8.0,0.0
5079,67.0,10.0,30.0,4.0,0.0
5080,55.0,0.0,30.0,2.0,0.0
5081,56.0,0.0,15.0,5.0,0.0
5082,77.0,0.0,15.0,0.0,0.0
5083,65.0,45.0,15.0,4.0,0.0
5084,53.0,0.0,15.0,2.0,0.0
5085,46.0,0.0,30.0,6.0,0.0
5086,77.0,0.0,30.0,0.0,0.0
5087,53.0,10.0,30.0,2.0,0.0
5088,34.0,5.0,30.0,8.0,0.0
5089,65.0,0.0,30.0,4.0,0.0
5090,56.0,0.0,30.0,5.0,0.0
5091,46.0,0.0,30.0,7.0,0.0
5092,63.0,45.0,15.0,4.0,0.0
5093,55.0,0.0,15.0,5.0,0.0
5094,75.0,0.0,15.0,0.0,0.0
5095,51.0,0.0,15.0,2.0,0.0
5096,46.0,5.0,30.0,7.0,0.0
5097,51.0,0.0,30.0,2.0,0.0
5098,63.0,0.0,30.0,4.0,0.0
5099,55.0,10.0,30.0,5.0,0.0
5100,46.0,0.0,30.0,6.0,0.0
5101,75.0,0.0,30.0,0.0,0.0
5102,34.0,0.0,30.0,8.0,0.0
5103,74.0,0.0,15.0,0.0,0.0
5104,53.0,0.0,15.0,5.0,0.0
5105,62.0,30.0,15.0,4.0,0.0
5106,50.0,0.0,15.0,2.0,0.0
5107,51.0,15.0,60.0,7.0,0.0
5108,39.0,0.0,60.0,8.0,0.0
5109,54.0,0.0,15.0,5.0,0.0
5110,51.0,0.0,360.0,3.0,0.0
5111,63.0,60.0,360.0,3.0,0.0
5112,46.0,30.0,15.0,6.0,0.0
5113,46.0,15.0,15.0,6.0,0.0
5114,54.0,0.0,15.0,5.0,0.0
5115,54.0,15.0,15.0,5.0,0.0
5116,46.0,0.0,15.0,6.0,0.0
5117,77.0,0.0,15.0,0.0,0.0
5118,65.0,15.0,15.0,4.0,0.0
5119,53.0,0.0,15.0,2.0,0.0
5120,74.0,15.0,15.0,0.0,0.0
5121,62.0,0.0,15.0,4.0,0.0
5122,50.0,0.0,15.0,2.0,0.0
5123,54.0,0.0,15.0,5.0,0.0
5124,46.0,0.0,15.0,6.0,0.0
5125,51.0,0.0,15.0,2.0,0.0
5126,63.0,0.0,15.0,4.0,0.0
5127,75.0,0.0,15.0,0.0,0.0
5128,78.0,30.0,60.0,0.0,0.0
5129,54.0,30.0,15.0,5.0,0.0
5130,46.0,0.0,15.0,6.0,0.0
5131,54.0,0.0,60.0,2.0,0.0
5132,66.0,0.0,60.0,4.0,0.0
5133,46.0,0.0,15.0,6.0,0.0
5134,54.0,0.0,15.0,5.0,0.0
5135,39.0,15.0,60.0,8.0,0.0
5136,54.0,30.0,15.0,5.0,0.0
5137,51.0,0.0,60.0,7.0,0.0
5138,46.0,0.0,15.0,6.0,0.0
5139,46.0,15.0,15.0,6.0,0.0
5140,54.0,0.0,15.0,5.0,0.0
5141,54.0,0.0,15.0,5.0,0.0
5142,46.0,15.0,15.0,6.0,0.0
5143,77.0,0.0,15.0,0.0,0.0
5144,65.0,0.0,15.0,4.0,0.0
5145,53.0,15.0,15.0,2.0,0.0
5146,46.0,0.0,15.0,6.0,0.0
5147,54.0,15.0,15.0,5.0,0.0
5148,62.0,0.0,15.0,4.0,0.0
5149,74.0,0.0,15.0,0.0,0.0
5150,50.0,0.0,15.0,2.0,0.0
5151,51.0,0.0,15.0,2.0,0.0
5152,63.0,0.0,15.0,4.0,0.0
5153,75.0,0.0,15.0,0.0,0.0
5154,78.0,0.0,60.0,0.0,0.0
5155,54.0,0.0,15.0,5.0,0.0
5156,66.0,0.0,60.0,4.0,0.0
5157,46.0,30.0,15.0,6.0,0.0
5158,54.0,0.0,60.0,2.0,0.0
5159,46.0,0.0,15.0,6.0,0.0
5160,54.0,15.0,15.0,5.0,0.0
5161,47.0,0.0,420.0,2.0,0.0
5162,35.0,0.0,420.0,2.0,0.0
5163,63.0,0.0,180.0,1.0,0.0
5164,66.0,0.0,180.0,1.0,0.0
5165,47.0,60.0,60.0,7.0,0.0
5166,75.0,15.0,180.0,0.0,0.0
5167,83.0,0.0,180.0,0.0,0.0
5168,54.0,0.0,60.0,6.0,0.0
5169,35.0,0.0,60.0,8.0,0.0
5170,54.0,0.0,180.0,5.0,0.0
5171,63.0,0.0,180.0,5.0,0.0
5172,71.0,0.0,180.0,4.0,0.0
5173,47.0,0.0,60.0,8.0,0.0
5174,59.0,0.0,15.0,7.0,0.0
5175,54.0,45.0,15.0,6.0,0.0
5176,59.0,0.0,15.0,5.0,0.0
5177,66.0,0.0,15.0,4.0,0.0
5178,71.0,0.0,15.0,0.0,0.0
5179,75.0,15.0,180.0,4.0,0.0
5180,47.0,0.0,15.0,8.0,0.0
5181,78.0,60.0,15.0,0.0,0.0
5182,87.0,0.0,180.0,0.0,0.0
5183,59.0,0.0,15.0,7.0,0.0
5184,66.0,0.0,180.0,5.0,0.0
5185,78.0,0.0,180.0,1.0,0.0
5186,66.0,0.0,180.0,1.0,0.0
5187,54.0,0.0,15.0,6.0,0.0
5188,54.0,0.0,15.0,6.0,0.0
5189,47.0,0.0,60.0,8.0,0.0
5190,59.0,60.0,15.0,7.0,0.0
5191,59.0,0.0,15.0,7.0,0.0
5192,76.0,0.0,15.0,0.0,0.0
5193,85.0,0.0,15.0,0.0,0.0
5194,54.0,0.0,15.0,6.0,0.0
5195,64.0,0.0,15.0,5.0,0.0
5196,76.0,60.0,15.0,1.0,0.0
5197,47.0,0.0,15.0,8.0,0.0
5198,73.0,0.0,15.0,4.0,0.0
5199,76.0,0.0,60.0,0.0,0.0
5200,85.0,0.0,60.0,0.0,0.0
5201,59.0,0.0,15.0,7.0,0.0
5202,70.0,0.0,15.0,1.0,0.0
5203,83.0,0.0,30.0,0.0,0.0
5204,75.0,0.0,30.0,0.0,0.0
5205,71.0,0.0,30.0,4.0,0.0
5206,75.0,0.0,30.0,1.0,0.0
5207,71.0,0.0,30.0,1.0,0.0
5208,63.0,60.0,30.0,5.0,0.0
5209,75.0,0.0,30.0,0.0,0.0
5210,71.0,0.0,30.0,4.0,0.0
5211,71.0,80.0,30.0,1.0,0.0
5212,63.0,0.0,30.0,5.0,0.0
5213,75.0,0.0,30.0,1.0,0.0
5214,83.0,0.0,30.0,0.0,0.0
5215,71.0,0.0,60.0,4.0,0.0
5216,83.0,40.0,60.0,0.0,0.0
5217,63.0,0.0,240.0,5.0,0.0
5218,82.0,0.0,30.0,0.0,0.0
5219,70.0,60.0,30.0,4.0,0.0
5220,70.0,20.0,30.0,4.0,0.0
5221,82.0,0.0,30.0,0.0,0.0
5222,35.0,45.0,360.0,8.0,0.0
5223,82.0,40.0,60.0,0.0,0.0
5224,70.0,0.0,60.0,4.0,0.0
5225,47.0,0.0,360.0,7.0,0.0
5226,81.0,20.0,30.0,0.0,0.0
5227,69.0,0.0,30.0,4.0,0.0
5228,65.0,40.0,60.0,5.0,0.0
5229,50.0,0.0,60.0,6.0,0.0
5230,81.0,20.0,30.0,0.0,0.0
5231,69.0,0.0,30.0,4.0,0.0
5232,66.0,40.0,60.0,5.0,0.0
5233,51.0,0.0,60.0,6.0,0.0
5234,50.0,40.0,60.0,6.0,0.0
5235,69.0,20.0,30.0,4.0,0.0
5236,65.0,0.0,60.0,5.0,0.0
5237,81.0,0.0,30.0,0.0,0.0
5238,66.0,0.0,60.0,5.0,0.0
5239,51.0,40.0,60.0,6.0,0.0
5240,81.0,0.0,30.0,0.0,0.0
5241,69.0,20.0,30.0,4.0,0.0
5242,69.0,20.0,30.0,4.0,0.0
5243,63.0,0.0,60.0,5.0,0.0
5244,81.0,0.0,30.0,0.0,0.0
5245,54.0,0.0,60.0,6.0,0.0
5246,34.0,0.0,60.0,8.0,0.0
5247,62.0,15.0,60.0,5.0,0.0
5248,82.0,0.0,60.0,0.0,0.0
5249,53.0,0.0,60.0,6.0,0.0
5250,46.0,0.0,60.0,7.0,0.0
5251,70.0,45.0,60.0,4.0,0.0
5252,65.0,60.0,60.0,5.0,0.0
5253,62.0,0.0,60.0,6.0,0.0
5254,62.0,0.0,60.0,6.0,0.0
5255,65.0,45.0,60.0,5.0,0.0
5256,58.0,0.0,60.0,7.0,0.0
5257,63.0,0.0,60.0,6.0,0.0
5258,75.0,15.0,30.0,4.0,0.0
5259,46.0,0.0,60.0,8.0,0.0
5260,66.0,15.0,60.0,5.0,0.0
5261,74.0,30.0,30.0,4.0,0.0
5262,63.0,0.0,60.0,6.0,0.0
5263,66.0,15.0,60.0,5.0,0.0
5264,75.0,15.0,30.0,4.0,0.0
5265,77.0,30.0,30.0,4.0,0.0
5266,66.0,0.0,60.0,5.0,0.0
5267,78.0,15.0,30.0,4.0,0.0
5268,63.0,15.0,60.0,6.0,0.0
5269,75.0,30.0,30.0,4.0,0.0
5270,62.0,15.0,60.0,6.0,0.0
5271,34.0,30.0,60.0,8.0,0.0
5272,74.0,15.0,30.0,4.0,0.0
5273,46.0,0.0,60.0,7.0,0.0
5274,65.0,0.0,60.0,5.0,0.0
5275,77.0,0.0,30.0,4.0,0.0
5276,82.0,15.0,30.0,4.0,0.0
5277,62.0,15.0,60.0,6.0,0.0
5278,65.0,0.0,60.0,5.0,0.0
5279,80.0,30.0,30.0,4.0,0.0
5280,78.0,15.0,30.0,4.0,0.0
5281,62.0,15.0,60.0,6.0,0.0
5282,65.0,0.0,60.0,5.0,0.0
5283,77.0,30.0,30.0,4.0,0.0
5284,75.0,15.0,30.0,4.0,0.0
5285,66.0,0.0,60.0,5.0,0.0
5286,46.0,0.0,60.0,8.0,0.0
5287,63.0,15.0,60.0,6.0,0.0
5288,58.0,30.0,60.0,7.0,0.0
5289,74.0,0.0,30.0,4.0,0.0
5290,66.0,15.0,60.0,5.0,0.0
5291,75.0,15.0,30.0,4.0,0.0
5292,63.0,0.0,60.0,6.0,0.0
5293,77.0,30.0,30.0,4.0,0.0
5294,78.0,15.0,30.0,4.0,0.0
5295,66.0,0.0,60.0,5.0,0.0
5296,63.0,15.0,60.0,6.0,0.0
5297,75.0,30.0,30.0,4.0,0.0
5298,65.0,15.0,60.0,5.0,0.0
5299,62.0,0.0,180.0,1.0,0.0
5300,34.0,0.0,60.0,8.0,0.0
5301,46.0,0.0,60.0,7.0,0.0
5302,74.0,15.0,30.0,4.0,0.0
5303,62.0,0.0,60.0,6.0,0.0
5304,65.0,30.0,180.0,1.0,0.0
5305,77.0,30.0,30.0,4.0,0.0
5306,58.0,15.0,60.0,5.0,0.0
5307,70.0,15.0,30.0,4.0,0.0
5308,53.0,0.0,60.0,6.0,0.0
5309,50.0,0.0,60.0,6.0,0.0
5310,68.0,30.0,30.0,4.0,0.0
5311,50.0,0.0,60.0,6.0,0.0
5312,66.0,15.0,30.0,4.0,0.0
5313,58.0,15.0,60.0,5.0,0.0
5314,53.0,0.0,60.0,6.0,0.0
5315,65.0,0.0,30.0,4.0,0.0
5316,46.0,0.0,60.0,8.0,0.0
5317,57.0,0.0,180.0,5.0,0.0
5318,69.0,30.0,180.0,0.0,0.0
5319,58.0,0.0,60.0,7.0,0.0
5320,54.0,15.0,60.0,6.0,0.0
5321,51.0,0.0,60.0,6.0,0.0
5322,63.0,0.0,30.0,4.0,0.0
5323,63.0,0.0,180.0,1.0,0.0
5324,75.0,15.0,30.0,0.0,0.0
5325,51.0,0.0,30.0,2.0,0.0
5326,66.0,0.0,180.0,1.0,0.0
5327,62.0,0.0,30.0,4.0,0.0
5328,50.0,30.0,30.0,2.0,0.0
5329,74.0,0.0,30.0,0.0,0.0
5330,54.0,0.0,60.0,6.0,0.0
5331,75.0,15.0,30.0,0.0,0.0
5332,51.0,15.0,60.0,6.0,0.0
5333,63.0,0.0,30.0,4.0,0.0
5334,51.0,0.0,30.0,2.0,0.0
5335,53.0,0.0,30.0,2.0,0.0
5336,65.0,30.0,30.0,4.0,0.0
5337,77.0,0.0,30.0,0.0,0.0
5338,78.0,15.0,30.0,0.0,0.0
5339,51.0,15.0,60.0,6.0,0.0
5340,66.0,0.0,30.0,4.0,0.0
5341,54.0,0.0,30.0,2.0,0.0
5342,54.0,0.0,60.0,6.0,0.0
5343,51.0,0.0,30.0,2.0,0.0
5344,63.0,0.0,30.0,4.0,0.0
5345,75.0,0.0,30.0,0.0,0.0
5346,62.0,0.0,30.0,4.0,0.0
5347,58.0,0.0,180.0,5.0,0.0
5348,50.0,15.0,30.0,2.0,0.0
5349,62.0,0.0,180.0,1.0,0.0
5350,34.0,0.0,60.0,8.0,0.0
5351,53.0,0.0,60.0,6.0,0.0
5352,50.0,15.0,60.0,6.0,0.0
5353,70.0,30.0,180.0,0.0,0.0
5354,65.0,0.0,180.0,1.0,0.0
5355,74.0,0.0,30.0,0.0,0.0
5356,46.0,0.0,60.0,7.0,0.0
5357,77.0,30.0,30.0,0.0,0.0
5358,65.0,0.0,30.0,4.0,0.0
5359,53.0,0.0,30.0,2.0,0.0
5360,70.0,0.0,30.0,4.0,0.0
5361,82.0,15.0,30.0,0.0,0.0
5362,53.0,0.0,60.0,6.0,0.0
5363,50.0,15.0,60.0,6.0,0.0
5364,58.0,0.0,30.0,2.0,0.0
5365,68.0,0.0,30.0,4.0,0.0
5366,80.0,0.0,30.0,0.0,0.0
5367,56.0,30.0,30.0,2.0,0.0
5368,66.0,0.0,30.0,4.0,0.0
5369,78.0,0.0,30.0,0.0,0.0
5370,53.0,15.0,60.0,6.0,0.0
5371,50.0,0.0,60.0,6.0,0.0
5372,54.0,15.0,30.0,2.0,0.0
5373,77.0,0.0,30.0,0.0,0.0
5374,53.0,0.0,30.0,2.0,0.0
5375,65.0,0.0,30.0,4.0,0.0
5376,58.0,0.0,60.0,7.0,0.0
5377,63.0,15.0,30.0,4.0,0.0
5378,63.0,0.0,180.0,1.0,0.0
5379,66.0,0.0,180.0,1.0,0.0
5380,51.0,0.0,60.0,6.0,0.0
5381,54.0,15.0,60.0,6.0,0.0
5382,51.0,0.0,30.0,2.0,0.0
5383,46.0,0.0,60.0,8.0,0.0
5384,69.0,0.0,180.0,0.0,0.0
5385,75.0,0.0,30.0,0.0,0.0
5386,57.0,30.0,180.0,5.0,0.0
5387,62.0,0.0,30.0,4.0,0.0
5388,50.0,0.0,30.0,2.0,0.0
5389,74.0,30.0,30.0,0.0,0.0
5390,75.0,0.0,30.0,0.0,0.0
5391,54.0,0.0,60.0,6.0,0.0
5392,51.0,15.0,60.0,6.0,0.0
5393,63.0,15.0,30.0,4.0,0.0
5394,51.0,0.0,30.0,2.0,0.0
5395,77.0,0.0,30.0,0.0,0.0
5396,53.0,30.0,30.0,2.0,0.0
5397,65.0,0.0,30.0,4.0,0.0
5398,78.0,0.0,30.0,0.0,0.0
5399,51.0,15.0,60.0,6.0,0.0
5400,54.0,0.0,60.0,6.0,0.0
5401,66.0,0.0,30.0,4.0,0.0
5402,54.0,15.0,30.0,2.0,0.0
5403,75.0,0.0,30.0,0.0,0.0
5404,51.0,0.0,30.0,2.0,0.0
5405,63.0,0.0,30.0,4.0,0.0
5406,50.0,0.0,30.0,2.0,0.0
5407,34.0,0.0,60.0,8.0,0.0
5408,65.0,0.0,60.0,1.0,0.0
5409,62.0,30.0,60.0,1.0,0.0
5410,62.0,15.0,30.0,4.0,0.0
5411,70.0,0.0,30.0,0.0,0.0
5412,74.0,0.0,30.0,0.0,0.0
5413,58.0,0.0,60.0,5.0,0.0
5414,46.0,0.0,60.0,7.0,0.0
5415,50.0,0.0,60.0,6.0,0.0
5416,53.0,15.0,60.0,6.0,0.0
5417,47.0,0.0,30.0,2.0,0.0
5418,71.0,0.0,30.0,0.0,0.0
5419,59.0,0.0,30.0,4.0,0.0
5420,46.0,0.0,30.0,2.0,0.0
5421,58.0,0.0,30.0,4.0,0.0
5422,70.0,30.0,30.0,0.0,0.0
5423,59.0,30.0,30.0,4.0,0.0
5424,47.0,0.0,30.0,2.0,0.0
5425,71.0,0.0,30.0,0.0,0.0
5426,70.0,30.0,30.0,0.0,0.0
5427,46.0,0.0,30.0,2.0,0.0
5428,58.0,0.0,30.0,4.0,0.0
5429,47.0,0.0,30.0,2.0,0.0
5430,71.0,30.0,30.0,0.0,0.0
5431,59.0,0.0,30.0,4.0,0.0
5432,58.0,0.0,30.0,4.0,0.0
5433,70.0,30.0,30.0,0.0,0.0
5434,46.0,0.0,30.0,2.0,0.0
5435,47.0,0.0,30.0,2.0,0.0
5436,51.0,0.0,30.0,2.0,0.0
5437,63.0,30.0,30.0,4.0,0.0
5438,71.0,0.0,30.0,0.0,0.0
5439,59.0,0.0,30.0,5.0,0.0
5440,75.0,0.0,30.0,0.0,0.0
5441,46.0,0.0,30.0,2.0,0.0
5442,50.0,0.0,30.0,2.0,0.0
5443,62.0,0.0,30.0,4.0,0.0
5444,70.0,30.0,30.0,0.0,0.0
5445,58.0,0.0,30.0,5.0,0.0
5446,74.0,0.0,30.0,0.0,0.0
5447,47.0,0.0,30.0,2.0,0.0
5448,75.0,0.0,30.0,0.0,0.0
5449,71.0,0.0,30.0,0.0,0.0
5450,59.0,0.0,30.0,5.0,0.0
5451,63.0,0.0,30.0,4.0,0.0
5452,51.0,30.0,30.0,2.0,0.0
5453,58.0,0.0,30.0,5.0,0.0
5454,62.0,0.0,30.0,4.0,0.0
5455,46.0,0.0,30.0,2.0,0.0
5456,74.0,0.0,30.0,0.0,0.0
5457,70.0,0.0,30.0,0.0,0.0
5458,50.0,30.0,30.0,2.0,0.0
5459,59.0,0.0,30.0,5.0,0.0
5460,75.0,0.0,30.0,0.0,0.0
5461,63.0,0.0,30.0,4.0,0.0
5462,47.0,0.0,30.0,2.0,0.0
5463,51.0,0.0,30.0,2.0,0.0
5464,71.0,30.0,30.0,0.0,0.0
5465,58.0,0.0,30.0,5.0,0.0
5466,62.0,0.0,30.0,4.0,0.0
5467,50.0,0.0,30.0,2.0,0.0
5468,46.0,0.0,30.0,2.0,0.0
5469,74.0,0.0,30.0,0.0,0.0
5470,70.0,30.0,30.0,0.0,0.0
5471,63.0,0.0,30.0,5.0,0.0
5472,51.0,0.0,30.0,2.0,0.0
5473,54.0,0.0,30.0,2.0,0.0
5474,66.0,0.0,30.0,4.0,0.0
5475,75.0,0.0,30.0,0.0,0.0
5476,78.0,30.0,30.0,0.0,0.0
5477,50.0,30.0,30.0,2.0,0.0
5478,53.0,0.0,30.0,2.0,0.0
5479,62.0,0.0,30.0,5.0,0.0
5480,65.0,0.0,30.0,4.0,0.0
5481,74.0,0.0,30.0,0.0,0.0
5482,77.0,0.0,30.0,0.0,0.0
5483,78.0,0.0,30.0,0.0,0.0
5484,63.0,0.0,30.0,5.0,0.0
5485,66.0,0.0,30.0,4.0,0.0
5486,75.0,30.0,30.0,0.0,0.0
5487,51.0,0.0,30.0,2.0,0.0
5488,54.0,0.0,30.0,2.0,0.0
5489,74.0,30.0,30.0,0.0,0.0
5490,77.0,0.0,30.0,0.0,0.0
5491,65.0,0.0,30.0,4.0,0.0
5492,62.0,0.0,30.0,5.0,0.0
5493,53.0,0.0,30.0,2.0,0.0
5494,50.0,0.0,30.0,2.0,0.0
5495,54.0,0.0,30.0,2.0,0.0
5496,51.0,0.0,30.0,2.0,0.0
5497,75.0,0.0,30.0,0.0,0.0
5498,78.0,0.0,30.0,0.0,0.0
5499,66.0,0.0,30.0,4.0,0.0
5500,63.0,30.0,30.0,5.0,0.0
5501,53.0,30.0,30.0,2.0,0.0
5502,50.0,0.0,30.0,2.0,0.0
5503,65.0,0.0,30.0,4.0,0.0
5504,77.0,0.0,30.0,0.0,0.0
5505,74.0,0.0,30.0,0.0,0.0
5506,62.0,0.0,30.0,5.0,0.0
5507,79.0,0.0,30.0,0.0,0.0
5508,76.0,30.0,30.0,0.0,0.0
5509,64.0,0.0,30.0,5.0,0.0
5510,52.0,0.0,30.0,2.0,0.0
5511,67.0,0.0,30.0,4.0,0.0
5512,55.0,0.0,30.0,2.0,0.0
5513,56.0,30.0,30.0,2.0,0.0
5514,53.0,0.0,30.0,2.0,0.0
5515,68.0,0.0,30.0,4.0,0.0
5516,80.0,0.0,30.0,0.0,0.0
5517,77.0,0.0,30.0,0.0,0.0
5518,65.0,0.0,30.0,5.0,0.0
5519,79.0,30.0,30.0,0.0,0.0
5520,76.0,0.0,30.0,0.0,0.0
5521,67.0,0.0,30.0,4.0,0.0
5522,55.0,0.0,30.0,2.0,0.0
5523,52.0,0.0,30.0,2.0,0.0
5524,64.0,0.0,30.0,5.0,0.0
5525,68.0,0.0,30.0,4.0,0.0
5526,53.0,30.0,30.0,2.0,0.0
5527,77.0,0.0,30.0,0.0,0.0
5528,80.0,0.0,30.0,0.0,0.0
5529,56.0,0.0,30.0,2.0,0.0
5530,65.0,0.0,30.0,5.0,0.0
5531,67.0,0.0,30.0,4.0,0.0
5532,79.0,0.0,30.0,0.0,0.0
5533,76.0,0.0,30.0,0.0,0.0
5534,52.0,0.0,30.0,2.0,0.0
5535,64.0,60.0,30.0,5.0,0.0
5536,55.0,0.0,30.0,2.0,0.0
5537,74.0,0.0,420.0,1.0,0.0
5538,56.0,0.0,420.0,2.0,0.0
5539,77.0,40.0,420.0,0.0,0.0
5540,80.0,0.0,420.0,0.0,0.0
5541,53.0,0.0,420.0,2.0,0.0
5542,68.0,0.0,420.0,4.0,0.0
5543,65.0,0.0,420.0,5.0,0.0
5544,45.0,30.0,30.0,6.0,0.0
5545,45.0,0.0,30.0,7.0,0.0
5546,33.0,0.0,30.0,8.0,0.0
5547,46.0,30.0,30.0,7.0,0.0
5548,34.0,0.0,30.0,8.0,0.0
5549,46.0,0.0,30.0,6.0,0.0
5550,36.0,0.0,30.0,8.0,0.0
5551,48.0,30.0,30.0,6.0,0.0
5552,48.0,0.0,30.0,7.0,0.0
5553,50.0,0.0,30.0,6.0,0.0
5554,50.0,30.0,30.0,7.0,0.0
5555,38.0,0.0,30.0,8.0,0.0
5556,51.0,0.0,30.0,6.0,0.0
5557,39.0,0.0,30.0,8.0,0.0
5558,51.0,30.0,30.0,7.0,0.0
5559,41.0,30.0,30.0,8.0,0.0
5560,53.0,0.0,30.0,6.0,0.0
5561,53.0,0.0,30.0,7.0,0.0
5562,43.0,0.0,30.0,8.0,0.0
5563,55.0,30.0,30.0,6.0,0.0
5564,55.0,0.0,30.0,7.0,0.0
5565,56.0,30.0,30.0,7.0,0.0
5566,44.0,0.0,30.0,8.0,0.0
5567,56.0,0.0,30.0,6.0,0.0
5568,55.0,0.0,30.0,7.0,0.0
5569,43.0,30.0,30.0,8.0,0.0
5570,55.0,0.0,30.0,6.0,0.0
5571,53.0,30.0,30.0,7.0,0.0
5572,53.0,0.0,30.0,6.0,0.0
5573,41.0,0.0,30.0,8.0,0.0
5574,51.0,60.0,30.0,6.0,0.0
5575,51.0,0.0,30.0,7.0,0.0
5576,39.0,0.0,30.0,8.0,0.0
5577,38.0,0.0,60.0,8.0,0.0
5578,50.0,0.0,60.0,6.0,0.0
5579,58.0,0.0,30.0,4.0,0.0
5580,50.0,0.0,15.0,7.0,0.0
5581,44.0,0.0,30.0,2.0,0.0
5582,46.0,0.0,30.0,2.0,0.0
5583,65.0,0.0,15.0,1.0,0.0
5584,58.0,0.0,30.0,1.0,0.0
5585,53.0,0.0,30.0,6.0,0.0
5586,56.0,0.0,30.0,5.0,0.0
5587,58.0,0.0,15.0,3.0,0.0
5588,46.0,0.0,15.0,3.0,0.0
5589,38.0,0.0,30.0,8.0,0.0
5590,70.0,0.0,30.0,0.0,0.0
5591,68.0,0.0,30.0,0.0,0.0
5592,53.0,60.0,30.0,6.0,0.0
5593,44.0,0.0,30.0,2.0,0.0
5594,46.0,0.0,30.0,2.0,0.0
5595,56.0,0.0,30.0,5.0,0.0
5596,58.0,0.0,30.0,1.0,0.0
5597,70.0,0.0,30.0,0.0,0.0
5598,46.0,0.0,30.0,3.0,0.0
5599,58.0,0.0,30.0,3.0,0.0
5600,68.0,0.0,30.0,0.0,0.0
5601,50.0,0.0,30.0,7.0,0.0
5602,58.0,0.0,30.0,4.0,0.0
5603,65.0,0.0,30.0,1.0,0.0
5604,38.0,0.0,30.0,8.0,0.0
5605,46.0,0.0,30.0,3.0,0.0
5606,46.0,0.0,30.0,2.0,0.0
5607,56.0,0.0,30.0,5.0,0.0
5608,58.0,0.0,30.0,4.0,0.0
5609,44.0,0.0,30.0,2.0,0.0
5610,70.0,0.0,30.0,0.0,0.0
5611,68.0,0.0,30.0,0.0,0.0
5612,58.0,0.0,30.0,3.0,0.0
5613,38.0,0.0,30.0,8.0,0.0
5614,53.0,0.0,30.0,6.0,0.0
5615,58.0,0.0,30.0,1.0,0.0
5616,65.0,0.0,30.0,1.0,0.0
5617,50.0,170.0,30.0,7.0,0.0
5618,50.0,20.0,30.0,8.0,0.0
5619,84.0,10.0,30.0,4.0,0.0
5620,68.0,0.0,30.0,5.0,0.0
5621,65.0,0.0,30.0,6.0,0.0
5622,62.0,0.0,30.0,7.0,0.0
5623,82.0,30.0,30.0,4.0,0.0
5624,81.0,10.0,30.0,4.0,0.0
5625,65.0,20.0,30.0,6.0,0.0
5626,68.0,0.0,30.0,5.0,0.0
5627,62.0,0.0,30.0,7.0,0.0
5628,50.0,0.0,30.0,8.0,0.0
5629,82.0,30.0,30.0,4.0,0.0
5630,50.0,20.0,30.0,8.0,0.0
5631,68.0,0.0,30.0,5.0,0.0
5632,81.0,10.0,30.0,4.0,0.0
5633,62.0,0.0,30.0,7.0,0.0
5634,65.0,0.0,30.0,6.0,0.0
5635,82.0,30.0,30.0,4.0,0.0
5636,65.0,0.0,30.0,6.0,0.0
5637,68.0,0.0,30.0,5.0,0.0
5638,62.0,20.0,30.0,7.0,0.0
5639,50.0,0.0,30.0,8.0,0.0
5640,84.0,10.0,30.0,4.0,0.0
5641,82.0,300.0,30.0,4.0,0.0
5642,51.0,0.0,930.0,7.0,0.0
5643,63.0,60.0,180.0,3.0,0.0
5644,39.0,0.0,930.0,8.0,0.0
5645,51.0,0.0,15.0,3.0,0.0
5646,63.0,0.0,240.0,5.0,0.0
5647,63.0,0.0,780.0,3.0,0.0
5648,67.0,0.0,60.0,4.0,0.0
5649,58.0,0.0,60.0,6.0,0.0
5650,79.0,0.0,60.0,0.0,0.0
5651,55.0,60.0,60.0,2.0,0.0
5652,63.0,0.0,60.0,4.0,0.0
5653,55.0,0.0,60.0,6.0,0.0
5654,75.0,0.0,60.0,0.0,0.0
5655,51.0,60.0,60.0,2.0,0.0
5656,80.0,0.0,60.0,0.0,0.0
5657,60.0,0.0,60.0,6.0,0.0
5658,56.0,0.0,60.0,2.0,0.0
5659,68.0,60.0,60.0,4.0,0.0
5660,53.0,0.0,60.0,2.0,0.0
5661,65.0,60.0,60.0,4.0,0.0
5662,56.0,0.0,60.0,6.0,0.0
5663,77.0,0.0,60.0,0.0,0.0
5664,62.0,60.0,60.0,5.0,0.0
5665,82.0,0.0,120.0,0.0,0.0
5666,53.0,0.0,60.0,6.0,0.0
5667,58.0,0.0,120.0,2.0,0.0
5668,70.0,0.0,120.0,4.0,0.0
5669,50.0,0.0,60.0,6.0,0.0
5670,65.0,60.0,60.0,5.0,0.0
5671,58.0,0.0,60.0,6.0,0.0
5672,79.0,0.0,60.0,0.0,0.0
5673,55.0,60.0,60.0,2.0,0.0
5674,63.0,60.0,240.0,5.0,0.0
5675,67.0,0.0,60.0,4.0,0.0
5676,55.0,0.0,60.0,6.0,0.0
5677,63.0,0.0,60.0,4.0,0.0
5678,51.0,0.0,60.0,2.0,0.0
5679,75.0,60.0,60.0,0.0,0.0
5680,56.0,60.0,60.0,2.0,0.0
5681,60.0,0.0,60.0,6.0,0.0
5682,68.0,0.0,60.0,4.0,0.0
5683,80.0,0.0,60.0,0.0,0.0
5684,77.0,0.0,60.0,0.0,0.0
5685,53.0,0.0,60.0,2.0,0.0
5686,65.0,0.0,60.0,4.0,0.0
5687,56.0,0.0,60.0,6.0,0.0
5688,58.0,0.0,120.0,2.0,0.0
5689,82.0,0.0,120.0,0.0,0.0
5690,70.0,0.0,120.0,4.0,0.0
5691,62.0,0.0,60.0,5.0,0.0
5692,53.0,60.0,60.0,6.0,0.0
5693,65.0,0.0,60.0,5.0,0.0
5694,50.0,40.0,60.0,6.0,0.0
5695,51.0,0.0,30.0,6.0,0.0
5696,67.0,20.0,30.0,4.0,0.0
5697,55.0,0.0,30.0,2.0,0.0
5698,63.0,0.0,30.0,5.0,0.0
5699,79.0,0.0,30.0,0.0,0.0
5700,80.0,0.0,30.0,0.0,0.0
5701,41.0,0.0,30.0,8.0,0.0
5702,51.0,60.0,30.0,6.0,0.0
5703,68.0,0.0,30.0,4.0,0.0
5704,63.0,0.0,30.0,5.0,0.0
5705,56.0,0.0,30.0,2.0,0.0
5706,53.0,0.0,30.0,7.0,0.0
5707,55.0,0.0,30.0,7.0,0.0
5708,51.0,0.0,30.0,6.0,0.0
5709,82.0,0.0,30.0,0.0,0.0
5710,70.0,60.0,30.0,4.0,0.0
5711,58.0,0.0,30.0,2.0,0.0
5712,63.0,0.0,30.0,5.0,0.0
5713,43.0,0.0,30.0,8.0,0.0
5714,56.0,0.0,30.0,7.0,0.0
5715,84.0,0.0,90.0,0.0,0.0
5716,63.0,0.0,30.0,5.0,0.0
5717,72.0,30.0,90.0,4.0,0.0
5718,60.0,0.0,90.0,2.0,0.0
5719,44.0,50.0,30.0,8.0,0.0
5720,51.0,0.0,30.0,6.0,0.0
5721,74.0,0.0,30.0,4.0,0.0
5722,86.0,40.0,30.0,0.0,0.0
5723,62.0,0.0,30.0,2.0,0.0
5724,87.0,0.0,30.0,0.0,0.0
5725,63.0,0.0,30.0,2.0,0.0
5726,75.0,60.0,30.0,4.0,0.0
5727,34.0,0.0,60.0,8.0,0.0
5728,74.0,0.0,60.0,0.0,0.0
5729,82.0,0.0,30.0,0.0,0.0
5730,62.0,0.0,60.0,1.0,0.0
5731,50.0,0.0,60.0,6.0,0.0
5732,58.0,0.0,30.0,4.0,0.0
5733,58.0,0.0,30.0,2.0,0.0
5734,46.0,40.0,60.0,7.0,0.0
5735,70.0,20.0,30.0,1.0,0.0
5736,70.0,0.0,30.0,1.0,0.0
5737,82.0,20.0,30.0,0.0,0.0
5738,75.0,0.0,60.0,0.0,0.0
5739,58.0,0.0,30.0,4.0,0.0
5740,36.0,0.0,60.0,8.0,0.0
5741,51.0,0.0,60.0,6.0,0.0
5742,48.0,40.0,60.0,7.0,0.0
5743,63.0,0.0,60.0,1.0,0.0
5744,58.0,0.0,30.0,2.0,0.0
5745,53.0,0.0,60.0,6.0,0.0
5746,58.0,20.0,30.0,4.0,0.0
5747,70.0,0.0,30.0,1.0,0.0
5748,58.0,0.0,30.0,2.0,0.0
5749,82.0,0.0,30.0,0.0,0.0
5750,50.0,0.0,60.0,7.0,0.0
5751,77.0,0.0,60.0,0.0,0.0
5752,38.0,120.0,60.0,8.0,0.0
5753,51.0,0.0,360.0,7.0,0.0
5754,51.0,0.0,930.0,3.0,0.0
5755,53.0,0.0,15.0,5.0,0.0
5756,56.0,0.0,120.0,2.0,0.0
5757,46.0,60.0,180.0,6.0,0.0
5758,68.0,0.0,120.0,1.0,0.0
5759,65.0,0.0,15.0,1.0,0.0
5760,77.0,0.0,120.0,0.0,0.0
5761,63.0,0.0,930.0,3.0,0.0
5762,80.0,0.0,120.0,0.0,0.0
5763,39.0,60.0,360.0,8.0,0.0
5764,56.0,0.0,120.0,4.0,0.0
5765,63.0,15.0,30.0,1.0,0.0
5766,67.0,0.0,30.0,1.0,0.0
5767,79.0,0.0,30.0,0.0,0.0
5768,75.0,0.0,30.0,0.0,0.0
5769,55.0,15.0,60.0,4.0,0.0
5770,51.0,0.0,30.0,5.0,0.0
5771,55.0,0.0,30.0,2.0,0.0
5772,75.0,0.0,240.0,1.0,0.0
5773,79.0,60.0,60.0,0.0,0.0
5774,55.0,0.0,60.0,5.0,0.0
5775,61.0,60.0,120.0,2.0,0.0
5776,63.0,0.0,240.0,6.0,0.0
5777,67.0,0.0,60.0,4.0,0.0
5778,63.0,0.0,60.0,4.0,0.0
5779,75.0,0.0,60.0,0.0,0.0
5780,51.0,0.0,60.0,5.0,0.0
5781,68.0,0.0,60.0,4.0,0.0
5782,56.0,0.0,60.0,5.0,0.0
5783,80.0,0.0,60.0,0.0,0.0
5784,60.0,0.0,60.0,2.0,0.0
5785,59.0,0.0,60.0,2.0,0.0
5786,77.0,0.0,60.0,0.0,0.0
5787,27.0,0.0,570.0,8.0,0.0
5788,53.0,0.0,60.0,5.0,0.0
5789,39.0,0.0,570.0,7.0,0.0
5790,65.0,15.0,60.0,4.0,0.0
5791,82.0,0.0,120.0,0.0,0.0
5792,70.0,0.0,120.0,4.0,0.0
5793,62.0,15.0,15.0,6.0,0.0
5794,74.0,15.0,90.0,1.0,0.0
5795,58.0,0.0,120.0,5.0,0.0
5796,58.0,0.0,30.0,2.0,0.0
5797,60.0,15.0,15.0,6.0,0.0
5798,55.0,0.0,30.0,2.0,0.0
5799,62.0,15.0,15.0,6.0,0.0
5800,60.0,30.0,15.0,6.0,0.0
5801,60.0,0.0,30.0,6.0,0.0
5802,56.0,0.0,30.0,2.0,0.0
5803,53.0,0.0,30.0,2.0,0.0
5804,62.0,60.0,30.0,6.0,0.0
5805,72.0,15.0,15.0,1.0,0.0
5806,74.0,0.0,15.0,1.0,0.0
5807,63.0,0.0,240.0,6.0,0.0
5808,75.0,0.0,240.0,1.0,0.0
5809,79.0,60.0,60.0,0.0,0.0
5810,67.0,0.0,60.0,4.0,0.0
5811,55.0,0.0,60.0,5.0,0.0
5812,51.0,0.0,60.0,2.0,0.0
5813,51.0,0.0,60.0,5.0,0.0
5814,63.0,0.0,60.0,4.0,0.0
5815,61.0,0.0,60.0,2.0,0.0
5816,75.0,60.0,60.0,0.0,0.0
5817,56.0,60.0,60.0,5.0,0.0
5818,68.0,0.0,60.0,4.0,0.0
5819,80.0,0.0,60.0,0.0,0.0
5820,60.0,0.0,60.0,2.0,0.0
5821,59.0,0.0,60.0,2.0,0.0
5822,77.0,15.0,60.0,0.0,0.0
5823,65.0,0.0,60.0,4.0,0.0
5824,53.0,0.0,60.0,5.0,0.0
5825,58.0,0.0,30.0,2.0,0.0
5826,70.0,40.0,120.0,4.0,0.0
5827,62.0,15.0,15.0,6.0,0.0
5828,58.0,0.0,120.0,5.0,0.0
5829,82.0,0.0,120.0,0.0,0.0
5830,74.0,0.0,90.0,1.0,0.0
5831,60.0,15.0,15.0,6.0,0.0
5832,55.0,0.0,30.0,2.0,0.0
5833,62.0,15.0,15.0,6.0,0.0
5834,56.0,15.0,30.0,2.0,0.0
5835,60.0,30.0,15.0,6.0,0.0
5836,62.0,0.0,30.0,6.0,0.0
5837,72.0,15.0,15.0,1.0,0.0
5838,53.0,0.0,30.0,2.0,0.0
5839,74.0,0.0,15.0,1.0,0.0
5840,67.0,60.0,30.0,4.0,0.0
5841,55.0,0.0,30.0,5.0,0.0
5842,63.0,0.0,30.0,6.0,0.0
5843,51.0,0.0,30.0,2.0,0.0
5844,75.0,0.0,30.0,1.0,0.0
5845,79.0,0.0,30.0,0.0,0.0
5846,51.0,0.0,30.0,3.0,0.0
5847,63.0,0.0,30.0,3.0,0.0
5848,56.0,0.0,30.0,5.0,0.0
5849,75.0,0.0,30.0,1.0,0.0
5850,41.0,0.0,30.0,7.0,0.0
5851,51.0,0.0,30.0,6.0,0.0
5852,29.0,60.0,30.0,8.0,0.0
5853,80.0,0.0,30.0,0.0,0.0
5854,68.0,0.0,30.0,4.0,0.0
5855,58.0,0.0,30.0,5.0,0.0
5856,51.0,0.0,30.0,6.0,0.0
5857,43.0,0.0,30.0,7.0,0.0
5858,51.0,0.0,30.0,3.0,0.0
5859,70.0,0.0,30.0,4.0,0.0
5860,75.0,0.0,30.0,1.0,0.0
5861,82.0,0.0,30.0,0.0,0.0
5862,31.0,60.0,30.0,8.0,0.0
5863,63.0,0.0,30.0,3.0,0.0
5864,72.0,0.0,90.0,4.0,0.0
5865,60.0,0.0,90.0,5.0,0.0
5866,84.0,30.0,90.0,0.0,0.0
5867,75.0,0.0,30.0,1.0,0.0
5868,44.0,50.0,30.0,7.0,0.0
5869,63.0,0.0,30.0,3.0,0.0
5870,51.0,0.0,30.0,6.0,0.0
5871,32.0,0.0,30.0,8.0,0.0
5872,51.0,0.0,30.0,3.0,0.0
5873,74.0,0.0,30.0,4.0,0.0
5874,62.0,40.0,30.0,5.0,0.0
5875,86.0,0.0,30.0,0.0,0.0
5876,87.0,55.0,60.0,0.0,0.0
5877,75.0,0.0,30.0,4.0,0.0
5878,63.0,5.0,30.0,5.0,0.0
5879,60.0,0.0,30.0,2.0,0.0
5880,70.0,0.0,30.0,1.0,0.0
5881,72.0,0.0,30.0,1.0,0.0
5882,76.0,60.0,30.0,0.0,0.0
5883,79.0,0.0,30.0,0.0,0.0
5884,76.0,60.0,30.0,0.0,0.0
5885,79.0,0.0,30.0,0.0,0.0
5886,72.0,0.0,30.0,1.0,0.0
5887,70.0,0.0,30.0,1.0,0.0
5888,60.0,0.0,30.0,2.0,0.0
5889,70.0,0.0,30.0,1.0,0.0
5890,72.0,0.0,30.0,1.0,0.0
5891,60.0,0.0,30.0,2.0,0.0
5892,76.0,60.0,30.0,0.0,0.0
5893,79.0,0.0,30.0,0.0,0.0
5894,53.0,0.0,30.0,2.0,0.0
5895,77.0,30.0,90.0,0.0,0.0
5896,80.0,0.0,90.0,0.0,0.0
5897,68.0,50.0,30.0,1.0,0.0
5898,72.0,0.0,30.0,1.0,0.0
5899,82.0,0.0,30.0,0.0,0.0
5900,79.0,45.0,30.0,0.0,0.0
5901,80.0,55.0,60.0,0.0,0.0
5902,84.0,0.0,60.0,0.0,0.0
5903,70.0,0.0,30.0,1.0,0.0
5904,58.0,0.0,30.0,2.0,0.0
5905,65.0,60.0,30.0,3.0,0.0
5906,77.0,0.0,30.0,0.0,0.0
5907,68.0,0.0,30.0,1.0,0.0
5908,74.0,0.0,30.0,0.0,0.0
5909,58.0,0.0,30.0,3.0,0.0
5910,58.0,0.0,30.0,2.0,0.0
5911,58.0,0.0,30.0,3.0,0.0
5912,65.0,0.0,30.0,3.0,0.0
5913,70.0,0.0,30.0,1.0,0.0
5914,68.0,60.0,30.0,1.0,0.0
5915,77.0,0.0,30.0,0.0,0.0
5916,74.0,0.0,30.0,0.0,0.0
5917,58.0,0.0,30.0,3.0,0.0
5918,77.0,0.0,30.0,0.0,0.0
5919,74.0,0.0,30.0,0.0,0.0
5920,68.0,50.0,30.0,1.0,0.0
5921,70.0,0.0,30.0,1.0,0.0
5922,58.0,0.0,30.0,2.0,0.0
5923,65.0,0.0,30.0,3.0,0.0
5924,58.0,30.0,120.0,6.0,0.0
5925,51.0,0.0,30.0,2.0,0.0
5926,51.0,0.0,120.0,7.0,0.0
5927,79.0,0.0,30.0,0.0,0.0
5928,75.0,10.0,30.0,0.0,0.0
5929,70.0,0.0,120.0,4.0,0.0
5930,39.0,0.0,120.0,8.0,0.0
5931,67.0,0.0,120.0,3.0,0.0
5932,63.0,0.0,120.0,3.0,0.0
5933,67.0,20.0,30.0,1.0,0.0
5934,70.0,0.0,30.0,1.0,0.0
5935,67.0,0.0,120.0,5.0,0.0
5936,80.0,30.0,30.0,0.0,0.0
5937,77.0,0.0,30.0,0.0,0.0
5938,82.0,30.0,30.0,0.0,0.0
5939,79.0,0.0,30.0,0.0,0.0
5940,75.0,0.0,30.0,0.0,0.0
5941,79.0,0.0,30.0,0.0,0.0
5942,65.0,0.0,60.0,5.0,0.0
5943,44.0,0.0,60.0,7.0,0.0
5944,80.0,30.0,30.0,0.0,0.0
5945,72.0,0.0,30.0,0.0,0.0
5946,68.0,30.0,60.0,4.0,0.0
5947,32.0,0.0,60.0,8.0,0.0
5948,60.0,0.0,60.0,6.0,0.0
5949,65.0,0.0,60.0,3.0,0.0
5950,68.0,0.0,60.0,3.0,0.0
5951,77.0,0.0,30.0,0.0,0.0
5952,68.0,0.0,30.0,0.0,0.0
5953,67.0,0.0,120.0,3.0,0.0
5954,63.0,0.0,120.0,3.0,0.0
5955,75.0,0.0,60.0,0.0,0.0
5956,67.0,30.0,60.0,0.0,0.0
5957,46.0,0.0,120.0,7.0,0.0
5958,63.0,0.0,30.0,5.0,0.0
5959,67.0,0.0,30.0,4.0,0.0
5960,75.0,0.0,30.0,1.0,0.0
5961,67.0,30.0,30.0,1.0,0.0
5962,68.0,0.0,30.0,4.0,0.0
5963,77.0,0.0,30.0,1.0,0.0
5964,68.0,0.0,30.0,1.0,0.0
5965,65.0,0.0,30.0,5.0,0.0
5966,70.0,0.0,30.0,4.0,0.0
5967,67.0,0.0,30.0,5.0,0.0
5968,79.0,0.0,30.0,1.0,0.0
5969,70.0,30.0,30.0,1.0,0.0
5970,67.0,0.0,30.0,4.0,0.0
5971,63.0,0.0,30.0,5.0,0.0
5972,67.0,30.0,30.0,1.0,0.0
5973,75.0,0.0,30.0,1.0,0.0
5974,58.0,0.0,15.0,6.0,0.0
5975,65.0,0.0,30.0,5.0,0.0
5976,56.0,0.0,60.0,6.0,0.0
5977,34.0,0.0,15.0,8.0,0.0
5978,68.0,0.0,30.0,1.0,0.0
5979,65.0,0.0,60.0,3.0,0.0
5980,58.0,0.0,60.0,3.0,0.0
5981,77.0,0.0,30.0,1.0,0.0
5982,68.0,30.0,30.0,4.0,0.0
5983,46.0,0.0,60.0,7.0,0.0
5984,65.0,0.0,30.0,1.0,0.0
5985,62.0,60.0,30.0,5.0,0.0
5986,65.0,0.0,30.0,4.0,0.0
5987,74.0,0.0,30.0,1.0,0.0
5988,39.0,0.0,60.0,7.0,0.0
5989,27.0,0.0,60.0,8.0,0.0
5990,75.0,0.0,60.0,1.0,0.0
5991,67.0,0.0,60.0,1.0,0.0
5992,55.0,0.0,60.0,6.0,0.0
5993,63.0,0.0,60.0,5.0,0.0
5994,55.0,0.0,60.0,3.0,0.0
5995,63.0,0.0,60.0,3.0,0.0
5996,58.0,60.0,60.0,6.0,0.0
5997,63.0,0.0,60.0,4.0,0.0
5998,58.0,0.0,60.0,1.0,0.0
5999,46.0,60.0,60.0,2.0,0.0
6000,70.0,0.0,60.0,0.0,0.0
6001,63.0,60.0,60.0,1.0,0.0
6002,75.0,0.0,60.0,0.0,0.0
6003,51.0,0.0,60.0,2.0,0.0
6004,62.0,0.0,60.0,1.0,0.0
6005,74.0,0.0,60.0,0.0,0.0
6006,50.0,60.0,60.0,2.0,0.0
6007,80.0,60.0,60.0,0.0,0.0
6008,68.0,0.0,60.0,1.0,0.0
6009,56.0,0.0,60.0,2.0,0.0
6010,55.0,60.0,60.0,2.0,0.0
6011,67.0,0.0,60.0,1.0,0.0
6012,79.0,0.0,60.0,0.0,0.0
6013,84.0,60.0,60.0,0.0,0.0
6014,72.0,0.0,60.0,1.0,0.0
6015,60.0,0.0,60.0,2.0,0.0
6016,58.0,0.0,60.0,2.0,0.0
6017,82.0,0.0,60.0,0.0,0.0
6018,70.0,40.0,60.0,1.0,0.0
6019,67.0,60.0,30.0,4.0,0.0
6020,63.0,0.0,30.0,5.0,0.0
6021,48.0,0.0,30.0,8.0,0.0
6022,60.0,0.0,30.0,6.0,0.0
6023,60.0,0.0,30.0,7.0,0.0
6024,56.0,20.0,30.0,7.0,0.0
6025,63.0,0.0,60.0,5.0,0.0
6026,56.0,0.0,30.0,6.0,0.0
6027,44.0,0.0,30.0,8.0,0.0
6028,67.0,40.0,60.0,4.0,0.0
6029,68.0,0.0,30.0,4.0,0.0
6030,53.0,0.0,30.0,7.0,0.0
6031,65.0,0.0,30.0,5.0,0.0
6032,53.0,60.0,30.0,6.0,0.0
6033,41.0,0.0,30.0,8.0,0.0
6034,58.0,0.0,30.0,7.0,0.0
6035,58.0,60.0,30.0,6.0,0.0
6036,62.0,0.0,30.0,5.0,0.0
6037,65.0,0.0,30.0,4.0,0.0
6038,46.0,0.0,30.0,8.0,0.0
6039,63.0,0.0,30.0,4.0,0.0
6040,51.0,0.0,30.0,7.0,0.0
6041,63.0,0.0,30.0,5.0,0.0
6042,39.0,0.0,30.0,8.0,0.0
6043,51.0,80.0,30.0,6.0,0.0
6044,58.0,60.0,60.0,1.0,0.0
6045,70.0,0.0,60.0,0.0,0.0
6046,46.0,0.0,60.0,2.0,0.0
6047,63.0,0.0,60.0,1.0,0.0
6048,75.0,0.0,60.0,0.0,0.0
6049,51.0,60.0,60.0,2.0,0.0
6050,50.0,0.0,60.0,2.0,0.0
6051,74.0,0.0,60.0,0.0,0.0
6052,62.0,60.0,60.0,1.0,0.0
6053,80.0,0.0,60.0,0.0,0.0
6054,68.0,0.0,60.0,1.0,0.0
6055,56.0,60.0,60.0,2.0,0.0
6056,66.0,0.0,60.0,1.0,0.0
6057,54.0,0.0,60.0,2.0,0.0
6058,78.0,60.0,60.0,0.0,0.0
6059,71.0,0.0,60.0,1.0,0.0
6060,59.0,0.0,60.0,2.0,0.0
6061,83.0,60.0,60.0,0.0,0.0
6062,82.0,0.0,60.0,0.0,0.0
6063,58.0,40.0,60.0,2.0,0.0
6064,70.0,0.0,60.0,1.0,0.0
6065,66.0,0.0,30.0,4.0,0.0
6066,59.0,0.0,30.0,6.0,0.0
6067,59.0,0.0,30.0,7.0,0.0
6068,63.0,0.0,30.0,5.0,0.0
6069,47.0,60.0,30.0,8.0,0.0
6070,44.0,0.0,30.0,8.0,0.0
6071,56.0,20.0,30.0,6.0,0.0
6072,66.0,0.0,60.0,4.0,0.0
6073,56.0,0.0,30.0,7.0,0.0
6074,63.0,40.0,60.0,5.0,0.0
6075,68.0,60.0,30.0,4.0,0.0
6076,41.0,0.0,30.0,8.0,0.0
6077,65.0,0.0,30.0,5.0,0.0
6078,53.0,0.0,30.0,7.0,0.0
6079,53.0,0.0,30.0,6.0,0.0
6080,65.0,80.0,30.0,4.0,0.0
6081,62.0,0.0,30.0,5.0,0.0
6082,46.0,0.0,30.0,8.0,0.0
6083,58.0,0.0,30.0,6.0,0.0
6084,58.0,0.0,30.0,7.0,0.0
6085,80.0,0.0,60.0,0.0,0.0
6086,72.0,0.0,60.0,1.0,0.0
6087,68.0,0.0,60.0,1.0,0.0
6088,84.0,0.0,60.0,0.0,0.0
6089,56.0,0.0,60.0,2.0,0.0
6090,60.0,30.0,60.0,2.0,0.0
6091,67.0,0.0,30.0,1.0,0.0
6092,70.0,0.0,30.0,1.0,0.0
6093,79.0,0.0,30.0,0.0,0.0
6094,55.0,0.0,30.0,2.0,0.0
6095,58.0,0.0,30.0,2.0,0.0
6096,82.0,70.0,30.0,0.0,0.0
6097,63.0,0.0,30.0,5.0,0.0
6098,60.0,0.0,30.0,7.0,0.0
6099,67.0,0.0,30.0,4.0,0.0
6100,48.0,0.0,30.0,8.0,0.0
6101,60.0,60.0,30.0,6.0,0.0
6102,56.0,0.0,30.0,7.0,0.0
6103,63.0,40.0,60.0,5.0,0.0
6104,67.0,0.0,60.0,4.0,0.0
6105,44.0,20.0,30.0,8.0,0.0
6106,56.0,0.0,30.0,6.0,0.0
6107,68.0,0.0,30.0,4.0,0.0
6108,65.0,60.0,30.0,5.0,0.0
6109,41.0,0.0,30.0,8.0,0.0
6110,53.0,0.0,30.0,6.0,0.0
6111,53.0,0.0,30.0,7.0,0.0
6112,65.0,0.0,30.0,4.0,0.0
6113,46.0,0.0,30.0,8.0,0.0
6114,58.0,80.0,30.0,7.0,0.0
6115,62.0,0.0,30.0,5.0,0.0
6116,58.0,0.0,30.0,6.0,0.0
6117,62.0,0.0,60.0,2.0,0.0
6118,56.0,0.0,60.0,2.0,0.0
6119,80.0,30.0,60.0,0.0,0.0
6120,86.0,0.0,60.0,0.0,0.0
6121,74.0,0.0,60.0,1.0,0.0
6122,68.0,0.0,60.0,1.0,0.0
6123,79.0,0.0,30.0,0.0,0.0
6124,87.0,0.0,30.0,0.0,0.0
6125,63.0,0.0,30.0,2.0,0.0
6126,75.0,0.0,30.0,1.0,0.0
6127,67.0,70.0,30.0,1.0,0.0
6128,55.0,0.0,30.0,2.0,0.0
6129,60.0,0.0,30.0,7.0,0.0
6130,63.0,0.0,30.0,5.0,0.0
6131,60.0,0.0,30.0,6.0,0.0
6132,67.0,0.0,30.0,4.0,0.0
6133,48.0,60.0,30.0,8.0,0.0
6134,56.0,20.0,30.0,6.0,0.0
6135,67.0,0.0,60.0,4.0,0.0
6136,56.0,0.0,30.0,7.0,0.0
6137,44.0,0.0,30.0,8.0,0.0
6138,63.0,40.0,60.0,5.0,0.0
6139,65.0,0.0,30.0,5.0,0.0
6140,41.0,0.0,30.0,8.0,0.0
6141,53.0,0.0,30.0,7.0,0.0
6142,53.0,60.0,30.0,6.0,0.0
6143,68.0,0.0,30.0,4.0,0.0
6144,65.0,0.0,30.0,4.0,0.0
6145,58.0,0.0,30.0,7.0,0.0
6146,46.0,0.0,30.0,8.0,0.0
6147,58.0,0.0,30.0,6.0,0.0
6148,62.0,80.0,30.0,5.0,0.0
6149,50.0,0.0,60.0,2.0,0.0
6150,77.0,0.0,60.0,1.0,0.0
6151,74.0,40.0,60.0,1.0,0.0
6152,53.0,0.0,60.0,2.0,0.0
6153,54.0,60.0,300.0,2.0,0.0
6154,51.0,0.0,300.0,2.0,0.0
6155,78.0,0.0,300.0,1.0,0.0
6156,75.0,0.0,300.0,1.0,0.0
6157,45.0,0.0,30.0,7.0,0.0
6158,57.0,0.0,30.0,5.0,0.0
6159,57.0,60.0,30.0,4.0,0.0
6160,45.0,0.0,30.0,6.0,0.0
6161,33.0,0.0,30.0,8.0,0.0
6162,33.0,0.0,30.0,8.0,0.0
6163,57.0,60.0,30.0,4.0,0.0
6164,45.0,0.0,30.0,7.0,0.0
6165,45.0,0.0,30.0,6.0,0.0
6166,57.0,0.0,30.0,5.0,0.0
6167,57.0,60.0,30.0,4.0,0.0
6168,45.0,0.0,30.0,6.0,0.0
6169,57.0,0.0,30.0,5.0,0.0
6170,45.0,0.0,30.0,7.0,0.0
6171,33.0,0.0,30.0,8.0,0.0
6172,33.0,0.0,30.0,8.0,0.0
6173,57.0,60.0,30.0,5.0,0.0
6174,57.0,0.0,30.0,4.0,0.0
6175,45.0,0.0,30.0,6.0,0.0
6176,45.0,0.0,30.0,7.0,0.0
6177,57.0,20.0,30.0,5.0,0.0
6178,45.0,0.0,30.0,6.0,0.0
6179,45.0,0.0,30.0,7.0,0.0
6180,57.0,0.0,30.0,4.0,0.0
6181,33.0,0.0,30.0,8.0,0.0
6182,45.0,40.0,60.0,7.0,0.0
6183,75.0,0.0,180.0,1.0,0.0
6184,79.0,60.0,180.0,1.0,0.0
6185,57.0,0.0,60.0,4.0,0.0
6186,33.0,0.0,60.0,8.0,0.0
6187,45.0,0.0,60.0,6.0,0.0
6188,57.0,0.0,60.0,5.0,0.0
6189,55.0,0.0,180.0,2.0,0.0
6190,51.0,0.0,180.0,2.0,0.0
6191,46.0,0.0,30.0,6.0,0.0
6192,46.0,60.0,30.0,7.0,0.0
6193,58.0,0.0,30.0,5.0,0.0
6194,58.0,0.0,30.0,4.0,0.0
6195,34.0,0.0,30.0,8.0,0.0
6196,46.0,20.0,30.0,7.0,0.0
6197,34.0,0.0,30.0,8.0,0.0
6198,58.0,0.0,30.0,5.0,0.0
6199,46.0,0.0,30.0,6.0,0.0
6200,58.0,0.0,30.0,4.0,0.0
6201,86.0,60.0,180.0,0.0,0.0
6202,58.0,0.0,60.0,4.0,0.0
6203,34.0,40.0,60.0,8.0,0.0
6204,56.0,0.0,180.0,2.0,0.0
6205,77.0,0.0,180.0,1.0,0.0
6206,74.0,0.0,180.0,1.0,0.0
6207,46.0,0.0,60.0,7.0,0.0
6208,46.0,0.0,60.0,6.0,0.0
6209,58.0,0.0,60.0,5.0,0.0
6210,65.0,0.0,180.0,2.0,0.0
6211,80.0,0.0,180.0,0.0,0.0
6212,47.0,0.0,30.0,7.0,0.0
6213,47.0,0.0,30.0,6.0,0.0
6214,59.0,0.0,30.0,4.0,0.0
6215,59.0,0.0,30.0,5.0,0.0
6216,35.0,60.0,30.0,8.0,0.0
6217,35.0,0.0,30.0,8.0,0.0
6218,59.0,0.0,30.0,4.0,0.0
6219,59.0,20.0,30.0,5.0,0.0
6220,47.0,0.0,30.0,7.0,0.0
6221,47.0,0.0,30.0,6.0,0.0
6222,51.0,0.0,540.0,3.0,0.0
6223,59.0,0.0,60.0,4.0,0.0
6224,47.0,40.0,60.0,7.0,0.0
6225,47.0,0.0,60.0,6.0,0.0
6226,75.0,40.0,540.0,1.0,0.0
6227,63.0,0.0,540.0,3.0,0.0
6228,35.0,0.0,60.0,8.0,0.0
6229,87.0,0.0,180.0,0.0,0.0
6230,79.0,0.0,180.0,0.0,0.0
6231,59.0,0.0,60.0,5.0,0.0
6232,55.0,60.0,180.0,2.0,0.0
6233,63.0,0.0,180.0,2.0,0.0
6234,60.0,0.0,30.0,4.0,0.0
6235,48.0,0.0,30.0,6.0,0.0
6236,60.0,0.0,30.0,5.0,0.0
6237,36.0,0.0,30.0,8.0,0.0
6238,48.0,60.0,30.0,7.0,0.0
6239,36.0,0.0,30.0,8.0,0.0
6240,60.0,0.0,30.0,4.0,0.0
6241,48.0,0.0,30.0,6.0,0.0
6242,48.0,0.0,30.0,7.0,0.0
6243,60.0,20.0,30.0,5.0,0.0
6244,36.0,40.0,60.0,8.0,0.0
6245,48.0,0.0,60.0,7.0,0.0
6246,57.0,0.0,180.0,2.0,0.0
6247,54.0,0.0,180.0,2.0,0.0
6248,78.0,0.0,180.0,0.0,0.0
6249,81.0,60.0,180.0,0.0,0.0
6250,69.0,0.0,180.0,1.0,0.0
6251,60.0,0.0,60.0,5.0,0.0
6252,48.0,0.0,60.0,6.0,0.0
6253,60.0,0.0,60.0,4.0,0.0
6254,47.0,60.0,30.0,7.0,0.0
6255,59.0,0.0,30.0,5.0,0.0
6256,59.0,0.0,30.0,4.0,0.0
6257,47.0,0.0,30.0,6.0,0.0
6258,35.0,0.0,30.0,8.0,0.0
6259,59.0,0.0,30.0,4.0,0.0
6260,59.0,0.0,30.0,5.0,0.0
6261,35.0,0.0,30.0,8.0,0.0
6262,47.0,0.0,30.0,6.0,0.0
6263,47.0,20.0,30.0,7.0,0.0
6264,59.0,0.0,60.0,4.0,0.0
6265,82.0,0.0,180.0,0.0,0.0
6266,79.0,0.0,180.0,0.0,0.0
6267,47.0,0.0,60.0,6.0,0.0
6268,47.0,0.0,60.0,7.0,0.0
6269,59.0,0.0,60.0,5.0,0.0
6270,70.0,0.0,180.0,1.0,0.0
6271,35.0,40.0,60.0,8.0,0.0
6272,55.0,0.0,180.0,2.0,0.0
6273,58.0,0.0,180.0,2.0,0.0
6274,34.0,60.0,30.0,8.0,0.0
6275,46.0,0.0,30.0,7.0,0.0
6276,58.0,0.0,30.0,4.0,0.0
6277,58.0,0.0,30.0,5.0,0.0
6278,46.0,0.0,30.0,6.0,0.0
6279,46.0,0.0,30.0,7.0,0.0
6280,58.0,0.0,30.0,5.0,0.0
6281,34.0,0.0,30.0,8.0,0.0
6282,58.0,0.0,30.0,4.0,0.0
6283,46.0,20.0,30.0,6.0,0.0
6284,46.0,0.0,30.0,6.0,0.0
6285,46.0,0.0,1260.0,3.0,0.0
6286,46.0,0.0,30.0,7.0,0.0
6287,58.0,0.0,1320.0,3.0,0.0
6288,44.0,0.0,180.0,2.0,0.0
6289,50.0,30.0,180.0,2.0,0.0
6290,34.0,60.0,30.0,8.0,0.0
6291,65.0,0.0,180.0,1.0,0.0
6292,68.0,0.0,180.0,1.0,0.0
6293,58.0,0.0,30.0,5.0,0.0
6294,74.0,0.0,180.0,0.0,0.0
6295,70.0,0.0,180.0,0.0,0.0
6296,70.0,60.0,30.0,4.0,0.0
6297,70.0,20.0,30.0,4.0,0.0
6298,39.0,0.0,180.0,8.0,0.0
6299,75.0,0.0,120.0,0.0,0.0
6300,63.0,0.0,180.0,6.0,0.0
6301,70.0,0.0,120.0,0.0,0.0
6302,43.0,0.0,180.0,2.0,0.0
6303,51.0,0.0,180.0,2.0,0.0
6304,51.0,30.0,180.0,7.0,0.0
6305,67.0,0.0,120.0,1.0,0.0
6306,63.0,0.0,120.0,1.0,0.0
6307,55.0,30.0,30.0,5.0,0.0
6308,58.0,30.0,30.0,5.0,0.0
6309,63.0,10.0,30.0,5.0,0.0
6310,70.0,20.0,30.0,4.0,0.0
6311,58.0,30.0,30.0,5.0,0.0
6312,70.0,20.0,30.0,4.0,0.0
6313,55.0,10.0,30.0,5.0,0.0
6314,58.0,0.0,30.0,5.0,0.0
6315,53.0,0.0,180.0,2.0,0.0
6316,56.0,0.0,180.0,2.0,0.0
6317,50.0,0.0,180.0,7.0,0.0
6318,62.0,0.0,180.0,6.0,0.0
6319,56.0,30.0,30.0,5.0,0.0
6320,38.0,0.0,180.0,8.0,0.0
6321,58.0,30.0,30.0,5.0,0.0
6322,65.0,30.0,30.0,5.0,0.0
6323,72.0,0.0,30.0,4.0,0.0
6324,70.0,30.0,30.0,4.0,0.0
6325,58.0,0.0,30.0,5.0,0.0
6326,68.0,30.0,30.0,4.0,0.0
6327,56.0,0.0,30.0,5.0,0.0
6328,65.0,0.0,30.0,4.0,0.0
6329,58.0,30.0,30.0,5.0,0.0
6330,51.0,0.0,180.0,7.0,0.0
6331,63.0,30.0,180.0,1.0,0.0
6332,51.0,0.0,180.0,2.0,0.0
6333,67.0,0.0,180.0,1.0,0.0
6334,55.0,0.0,180.0,2.0,0.0
6335,63.0,30.0,30.0,4.0,0.0
6336,39.0,0.0,180.0,8.0,0.0
6337,63.0,0.0,180.0,6.0,0.0
6338,55.0,0.0,30.0,5.0,0.0
6339,67.0,0.0,30.0,4.0,0.0
6340,58.0,30.0,30.0,5.0,0.0
6341,70.0,30.0,30.0,4.0,0.0
6342,63.0,0.0,30.0,5.0,0.0
6343,58.0,0.0,30.0,5.0,0.0
6344,75.0,30.0,30.0,4.0,0.0
6345,55.0,20.0,30.0,5.0,0.0
6346,70.0,10.0,60.0,4.0,0.0
6347,58.0,0.0,30.0,5.0,0.0
6348,68.0,0.0,180.0,1.0,0.0
6349,65.0,0.0,180.0,1.0,0.0
6350,80.0,30.0,180.0,0.0,0.0
6351,53.0,0.0,180.0,2.0,0.0
6352,56.0,0.0,180.0,2.0,0.0
6353,50.0,0.0,180.0,7.0,0.0
6354,56.0,30.0,30.0,5.0,0.0
6355,38.0,0.0,180.0,8.0,0.0
6356,62.0,0.0,180.0,6.0,0.0
6357,58.0,30.0,30.0,5.0,0.0
6358,82.0,20.0,30.0,0.0,0.0
6359,70.0,0.0,30.0,4.0,0.0
6360,65.0,10.0,30.0,5.0,0.0
6361,58.0,30.0,30.0,5.0,0.0
6362,82.0,0.0,30.0,0.0,0.0
6363,70.0,20.0,30.0,4.0,0.0
6364,56.0,10.0,30.0,5.0,0.0
6365,58.0,0.0,30.0,5.0,0.0
6366,63.0,0.0,180.0,6.0,0.0
6367,55.0,30.0,30.0,5.0,0.0
6368,55.0,0.0,180.0,2.0,0.0
6369,51.0,30.0,180.0,2.0,0.0
6370,51.0,0.0,180.0,7.0,0.0
6371,67.0,0.0,180.0,1.0,0.0
6372,39.0,0.0,180.0,8.0,0.0
6373,63.0,0.0,180.0,1.0,0.0
6374,79.0,0.0,180.0,0.0,0.0
6375,58.0,30.0,30.0,5.0,0.0
6376,82.0,20.0,30.0,0.0,0.0
6377,63.0,10.0,30.0,5.0,0.0
6378,70.0,0.0,30.0,4.0,0.0
6379,58.0,30.0,30.0,5.0,0.0
6380,82.0,20.0,30.0,0.0,0.0
6381,70.0,0.0,30.0,4.0,0.0
6382,55.0,10.0,30.0,5.0,0.0
6383,58.0,0.0,30.0,5.0,0.0
6384,53.0,0.0,180.0,2.0,0.0
6385,50.0,0.0,180.0,2.0,0.0
6386,56.0,30.0,30.0,5.0,0.0
6387,65.0,0.0,180.0,1.0,0.0
6388,34.0,40.0,180.0,8.0,0.0
6389,74.0,0.0,180.0,0.0,0.0
6390,46.0,0.0,180.0,7.0,0.0
6391,68.0,0.0,180.0,1.0,0.0
6392,58.0,0.0,180.0,6.0,0.0
6393,58.0,30.0,30.0,5.0,0.0
6394,72.0,0.0,30.0,4.0,0.0
6395,65.0,0.0,30.0,5.0,0.0
6396,84.0,30.0,30.0,0.0,0.0
6397,70.0,30.0,30.0,4.0,0.0
6398,58.0,0.0,30.0,5.0,0.0
6399,82.0,0.0,30.0,0.0,0.0
6400,80.0,0.0,30.0,0.0,0.0
6401,56.0,0.0,30.0,5.0,0.0
6402,68.0,30.0,30.0,4.0,0.0
6403,77.0,0.0,30.0,0.0,0.0
6404,58.0,0.0,30.0,5.0,0.0
6405,65.0,0.0,30.0,4.0,0.0
6406,51.0,0.0,60.0,6.0,0.0
6407,27.0,0.0,60.0,8.0,0.0
6408,39.0,100.0,60.0,7.0,0.0
6409,63.0,20.0,30.0,4.0,0.0
6410,55.0,0.0,60.0,5.0,0.0
6411,75.0,0.0,60.0,0.0,0.0
6412,51.0,0.0,60.0,2.0,0.0
6413,51.0,0.0,60.0,3.0,0.0
6414,67.0,0.0,60.0,1.0,0.0
6415,63.0,0.0,60.0,1.0,0.0
6416,80.0,60.0,30.0,4.0,0.0
6417,79.0,60.0,30.0,4.0,0.0
6418,80.0,60.0,30.0,4.0,0.0
6419,68.0,0.0,30.0,6.0,0.0
6420,58.0,0.0,30.0,7.0,0.0
6421,74.0,0.0,30.0,5.0,0.0
6422,82.0,60.0,30.0,4.0,0.0
6423,67.0,0.0,30.0,6.0,0.0
6424,75.0,0.0,30.0,5.0,0.0
6425,75.0,120.0,30.0,4.0,0.0
6426,63.0,0.0,30.0,7.0,0.0
6427,80.0,0.0,30.0,0.0,0.0
6428,68.0,0.0,30.0,1.0,0.0
6429,56.0,60.0,30.0,2.0,0.0
6430,55.0,0.0,30.0,2.0,0.0
6431,79.0,60.0,30.0,0.0,0.0
6432,67.0,0.0,30.0,1.0,0.0
6433,68.0,0.0,30.0,1.0,0.0
6434,56.0,0.0,30.0,2.0,0.0
6435,80.0,60.0,30.0,0.0,0.0
6436,58.0,0.0,60.0,3.0,0.0
6437,70.0,0.0,30.0,1.0,0.0
6438,68.0,0.0,30.0,1.0,0.0
6439,74.0,0.0,30.0,0.0,0.0
6440,82.0,0.0,30.0,0.0,0.0
6441,46.0,0.0,30.0,2.0,0.0
6442,58.0,20.0,30.0,2.0,0.0
6443,65.0,40.0,60.0,3.0,0.0
6444,75.0,0.0,30.0,0.0,0.0
6445,63.0,0.0,30.0,1.0,0.0
6446,67.0,0.0,30.0,1.0,0.0
6447,55.0,0.0,60.0,3.0,0.0
6448,63.0,100.0,60.0,3.0,0.0
6449,39.0,0.0,30.0,2.0,0.0
6450,51.0,20.0,30.0,2.0,0.0
6451,56.0,0.0,30.0,5.0,0.0
6452,32.0,60.0,30.0,8.0,0.0
6453,44.0,0.0,30.0,7.0,0.0
6454,56.0,0.0,30.0,4.0,0.0
6455,56.0,0.0,30.0,6.0,0.0
6456,55.0,0.0,30.0,4.0,0.0
6457,55.0,0.0,30.0,6.0,0.0
6458,58.0,0.0,60.0,2.0,0.0
6459,51.0,0.0,60.0,3.0,0.0
6460,63.0,0.0,60.0,3.0,0.0
6461,70.0,0.0,60.0,1.0,0.0
6462,67.0,0.0,60.0,1.0,0.0
6463,87.0,0.0,60.0,0.0,0.0
6464,79.0,0.0,60.0,0.0,0.0
6465,43.0,0.0,30.0,7.0,0.0
6466,31.0,0.0,30.0,8.0,0.0
6467,55.0,20.0,30.0,5.0,0.0
6468,55.0,40.0,60.0,2.0,0.0
6469,32.0,0.0,30.0,8.0,0.0
6470,44.0,0.0,30.0,7.0,0.0
6471,56.0,0.0,30.0,4.0,0.0
6472,56.0,60.0,30.0,6.0,0.0
6473,56.0,0.0,30.0,5.0,0.0
6474,58.0,0.0,30.0,6.0,0.0
6475,46.0,0.0,30.0,7.0,0.0
6476,58.0,80.0,30.0,5.0,0.0
6477,58.0,0.0,30.0,4.0,0.0
6478,34.0,0.0,30.0,8.0,0.0
6479,51.0,0.0,60.0,6.0,0.0
6480,51.0,0.0,60.0,5.0,0.0
6481,79.0,240.0,60.0,0.0,0.0
6482,87.0,0.0,60.0,0.0,0.0
6483,51.0,0.0,60.0,4.0,0.0
6484,39.0,0.0,60.0,7.0,0.0
6485,58.0,0.0,60.0,2.0,0.0
6486,70.0,0.0,60.0,1.0,0.0
6487,55.0,0.0,60.0,2.0,0.0
6488,63.0,0.0,60.0,3.0,0.0
6489,51.0,0.0,60.0,3.0,0.0
6490,67.0,0.0,60.0,1.0,0.0
6491,27.0,0.0,60.0,8.0,0.0
6492,55.0,0.0,120.0,2.0,0.0
