,note,step,duration,channel,velocity
0,59.0,0.0,600.0,3.0,64.0
1,47.0,0.0,600.0,4.0,64.0
2,59.0,0.0,600.0,8.0,64.0
3,59.0,205.0,600.0,2.0,64.0
4,75.0,0.0,360.0,1.0,64.0
5,78.0,0.0,360.0,0.0,64.0
6,47.0,0.0,600.0,10.0,64.0
7,78.0,0.0,360.0,5.0,64.0
8,75.0,65.0,360.0,6.0,64.0
9,59.0,0.0,600.0,7.0,64.0
10,75.0,0.0,60.0,0.0,64.0
11,75.0,0.0,60.0,5.0,64.0
12,71.0,60.0,60.0,1.0,64.0
13,71.0,0.0,60.0,6.0,64.0
14,76.0,0.0,60.0,5.0,64.0
15,73.0,80.0,60.0,6.0,64.0
16,76.0,0.0,60.0,0.0,64.0
17,73.0,0.0,60.0,1.0,64.0
18,75.0,35.0,90.0,1.0,64.0
19,75.0,0.0,90.0,6.0,64.0
20,78.0,0.0,90.0,0.0,64.0
21,78.0,0.0,90.0,5.0,64.0
22,78.0,0.0,90.0,0.0,64.0
23,75.0,0.0,90.0,1.0,64.0
24,75.0,400.0,90.0,6.0,64.0
25,78.0,0.0,90.0,5.0,64.0
26,78.0,0.0,240.0,5.0,64.0
27,75.0,0.0,240.0,6.0,64.0
28,78.0,175.0,240.0,0.0,64.0
29,75.0,0.0,240.0,1.0,64.0
30,83.0,60.0,180.0,5.0,64.0
31,83.0,0.0,180.0,0.0,64.0
32,78.0,0.0,180.0,1.0,64.0
33,78.0,360.0,240.0,6.0,64.0
34,78.0,65.0,360.0,0.0,64.0
35,75.0,0.0,360.0,1.0,64.0
36,47.0,0.0,600.0,8.0,64.0
37,35.0,0.0,600.0,4.0,64.0
38,78.0,0.0,360.0,5.0,64.0
39,59.0,285.0,600.0,7.0,64.0
40,47.0,0.0,600.0,3.0,64.0
41,35.0,0.0,600.0,10.0,64.0
42,59.0,0.0,600.0,2.0,64.0
43,75.0,0.0,360.0,6.0,64.0
44,71.0,0.0,60.0,1.0,64.0
45,75.0,0.0,60.0,5.0,64.0
46,71.0,60.0,60.0,6.0,64.0
47,75.0,0.0,60.0,0.0,64.0
48,76.0,115.0,60.0,5.0,64.0
49,73.0,0.0,60.0,1.0,64.0
50,73.0,0.0,60.0,6.0,64.0
51,76.0,0.0,60.0,0.0,64.0
52,75.0,0.0,390.0,1.0,64.0
53,78.0,0.0,390.0,0.0,64.0
54,78.0,0.0,390.0,5.0,64.0
55,75.0,80.0,390.0,6.0,64.0
56,47.0,0.0,240.0,3.0,64.0
57,47.0,0.0,240.0,8.0,64.0
58,35.0,240.0,240.0,4.0,64.0
59,35.0,0.0,240.0,10.0,64.0
60,63.0,0.0,240.0,2.0,64.0
61,63.0,0.0,240.0,7.0,64.0
62,37.0,0.0,240.0,10.0,64.0
63,64.0,240.0,240.0,2.0,64.0
64,49.0,0.0,240.0,8.0,64.0
65,37.0,0.0,240.0,4.0,64.0
66,49.0,0.0,240.0,3.0,64.0
67,64.0,0.0,240.0,7.0,64.0
68,39.0,0.0,240.0,4.0,64.0
69,39.0,0.0,240.0,10.0,64.0
70,51.0,0.0,240.0,3.0,64.0
71,66.0,0.0,240.0,2.0,64.0
72,51.0,0.0,240.0,8.0,64.0
73,66.0,120.0,240.0,7.0,64.0
74,52.0,0.0,480.0,3.0,64.0
75,68.0,0.0,480.0,2.0,64.0
76,52.0,0.0,480.0,8.0,64.0
77,68.0,0.0,480.0,7.0,64.0
78,40.0,0.0,480.0,10.0,64.0
79,40.0,0.0,480.0,4.0,64.0
80,73.0,0.0,120.0,6.0,64.0
81,76.0,120.0,120.0,5.0,64.0
82,76.0,0.0,120.0,0.0,64.0
83,73.0,0.0,120.0,1.0,64.0
84,75.0,120.0,120.0,6.0,64.0
85,75.0,0.0,120.0,1.0,64.0
86,78.0,0.0,120.0,0.0,64.0
87,78.0,0.0,120.0,5.0,64.0
88,80.0,0.0,120.0,0.0,64.0
89,76.0,120.0,120.0,1.0,64.0
90,76.0,0.0,120.0,6.0,64.0
91,80.0,0.0,120.0,5.0,64.0
92,76.0,0.0,120.0,0.0,64.0
93,73.0,120.0,120.0,1.0,64.0
94,73.0,0.0,120.0,6.0,64.0
95,76.0,0.0,120.0,5.0,64.0
96,42.0,0.0,480.0,4.0,64.0
97,42.0,0.0,480.0,10.0,64.0
98,75.0,120.0,120.0,0.0,64.0
99,66.0,0.0,480.0,7.0,64.0
100,71.0,0.0,120.0,6.0,64.0
101,75.0,0.0,120.0,5.0,64.0
102,71.0,0.0,120.0,1.0,64.0
103,73.0,0.0,120.0,6.0,64.0
104,76.0,0.0,120.0,5.0,64.0
105,73.0,0.0,120.0,1.0,64.0
106,76.0,120.0,120.0,0.0,64.0
107,78.0,120.0,120.0,5.0,64.0
108,75.0,0.0,120.0,6.0,64.0
109,78.0,0.0,120.0,0.0,64.0
110,75.0,0.0,120.0,1.0,64.0
111,75.0,0.0,120.0,5.0,64.0
112,75.0,0.0,120.0,0.0,64.0
113,71.0,0.0,120.0,6.0,64.0
114,71.0,0.0,120.0,1.0,64.0
115,73.0,0.0,120.0,5.0,64.0
116,73.0,120.0,120.0,0.0,64.0
117,54.0,0.0,15.0,3.0,64.0
118,42.0,0.0,480.0,4.0,64.0
119,54.0,0.0,15.0,8.0,64.0
120,70.0,0.0,120.0,6.0,64.0
121,66.0,120.0,15.0,2.0,64.0
122,70.0,0.0,120.0,1.0,64.0
123,42.0,0.0,480.0,10.0,64.0
124,66.0,0.0,480.0,7.0,64.0
125,75.0,0.0,120.0,5.0,64.0
126,71.0,0.0,120.0,6.0,64.0
127,71.0,120.0,120.0,1.0,64.0
128,75.0,0.0,120.0,0.0,64.0
129,73.0,0.0,120.0,6.0,64.0
130,76.0,0.0,120.0,0.0,64.0
131,76.0,0.0,120.0,5.0,64.0
132,73.0,120.0,120.0,1.0,64.0
133,70.0,0.0,120.0,1.0,64.0
134,73.0,0.0,120.0,5.0,64.0
135,70.0,0.0,120.0,6.0,64.0
136,73.0,0.0,120.0,0.0,64.0
137,76.0,0.0,120.0,5.0,64.0
138,47.0,0.0,390.0,10.0,64.0
139,68.0,0.0,120.0,2.0,64.0
140,59.0,0.0,390.0,8.0,64.0
141,73.0,0.0,120.0,1.0,64.0
142,73.0,120.0,120.0,6.0,64.0
143,68.0,0.0,120.0,7.0,64.0
144,76.0,0.0,120.0,0.0,64.0
145,47.0,0.0,390.0,4.0,64.0
146,59.0,75.0,390.0,3.0,64.0
147,66.0,0.0,120.0,2.0,64.0
148,66.0,0.0,120.0,7.0,64.0
149,75.0,0.0,120.0,0.0,64.0
150,75.0,0.0,120.0,5.0,64.0
151,71.0,115.0,120.0,1.0,64.0
152,71.0,0.0,120.0,6.0,64.0
153,70.0,0.0,120.0,1.0,64.0
154,70.0,5.0,120.0,6.0,64.0
155,64.0,0.0,120.0,7.0,64.0
156,73.0,0.0,120.0,0.0,64.0
157,73.0,0.0,120.0,5.0,64.0
158,64.0,40.0,120.0,2.0,64.0
159,71.0,0.0,120.0,5.0,64.0
160,63.0,0.0,120.0,2.0,64.0
161,71.0,5.0,120.0,0.0,64.0
162,63.0,400.0,120.0,7.0,64.0
163,71.0,80.0,390.0,0.0,64.0
164,71.0,0.0,390.0,5.0,64.0
165,63.0,0.0,390.0,2.0,64.0
166,63.0,0.0,390.0,7.0,64.0
167,51.0,0.0,240.0,8.0,64.0
168,51.0,0.0,240.0,3.0,64.0
169,39.0,0.0,240.0,4.0,64.0
170,39.0,240.0,240.0,10.0,64.0
171,54.0,0.0,240.0,8.0,64.0
172,42.0,0.0,240.0,10.0,64.0
173,42.0,0.0,240.0,4.0,64.0
174,54.0,240.0,240.0,3.0,64.0
175,51.0,0.0,240.0,8.0,64.0
176,39.0,0.0,240.0,4.0,64.0
177,51.0,355.0,240.0,3.0,64.0
178,39.0,0.0,240.0,10.0,64.0
179,47.0,0.0,600.0,8.0,64.0
180,75.0,0.0,360.0,1.0,64.0
181,78.0,0.0,360.0,5.0,64.0
182,35.0,205.0,600.0,10.0,64.0
183,59.0,0.0,600.0,2.0,64.0
184,78.0,0.0,360.0,0.0,64.0
185,35.0,0.0,600.0,4.0,64.0
186,47.0,0.0,600.0,3.0,64.0
187,75.0,65.0,360.0,6.0,64.0
188,59.0,0.0,600.0,7.0,64.0
189,75.0,60.0,60.0,5.0,64.0
190,71.0,0.0,60.0,6.0,64.0
191,71.0,0.0,60.0,1.0,64.0
192,75.0,0.0,60.0,0.0,64.0
193,76.0,0.0,60.0,0.0,64.0
194,73.0,0.0,60.0,6.0,64.0
195,76.0,80.0,60.0,5.0,64.0
196,73.0,0.0,60.0,1.0,64.0
197,78.0,0.0,90.0,0.0,64.0
198,75.0,35.0,90.0,6.0,64.0
199,78.0,0.0,90.0,5.0,64.0
200,75.0,0.0,90.0,1.0,64.0
201,75.0,0.0,90.0,6.0,64.0
202,75.0,400.0,90.0,1.0,64.0
203,78.0,0.0,90.0,5.0,64.0
204,78.0,0.0,90.0,0.0,64.0
205,75.0,175.0,240.0,6.0,64.0
206,75.0,0.0,240.0,1.0,64.0
207,78.0,0.0,240.0,5.0,64.0
208,78.0,0.0,240.0,0.0,64.0
209,78.0,0.0,180.0,6.0,64.0
210,83.0,0.0,180.0,5.0,64.0
211,83.0,420.0,180.0,0.0,64.0
212,78.0,0.0,180.0,1.0,64.0
213,78.0,0.0,360.0,5.0,64.0
214,75.0,0.0,360.0,6.0,64.0
215,78.0,0.0,360.0,0.0,64.0
216,47.0,0.0,600.0,3.0,64.0
217,59.0,0.0,600.0,2.0,64.0
218,59.0,0.0,600.0,7.0,64.0
219,75.0,65.0,360.0,1.0,64.0
220,35.0,0.0,600.0,4.0,64.0
221,35.0,0.0,600.0,10.0,64.0
222,47.0,285.0,600.0,8.0,64.0
223,75.0,60.0,60.0,0.0,64.0
224,71.0,0.0,60.0,1.0,64.0
225,71.0,0.0,60.0,6.0,64.0
226,75.0,0.0,60.0,5.0,64.0
227,76.0,0.0,60.0,5.0,64.0
228,73.0,115.0,60.0,6.0,64.0
229,76.0,0.0,60.0,0.0,64.0
230,73.0,0.0,60.0,1.0,64.0
231,78.0,0.0,390.0,0.0,64.0
232,78.0,0.0,390.0,5.0,64.0
233,75.0,80.0,390.0,6.0,64.0
234,75.0,0.0,390.0,1.0,64.0
235,47.0,0.0,240.0,3.0,64.0
236,63.0,240.0,240.0,7.0,64.0
237,35.0,0.0,240.0,10.0,64.0
238,63.0,0.0,240.0,2.0,64.0
239,47.0,0.0,240.0,8.0,64.0
240,35.0,0.0,240.0,4.0,64.0
241,49.0,0.0,240.0,3.0,64.0
242,37.0,0.0,240.0,10.0,64.0
243,64.0,0.0,240.0,7.0,64.0
244,49.0,235.0,240.0,8.0,64.0
245,64.0,0.0,240.0,2.0,64.0
246,37.0,0.0,240.0,4.0,64.0
247,83.0,0.0,240.0,0.0,64.0
248,39.0,5.0,240.0,10.0,64.0
249,51.0,0.0,240.0,3.0,64.0
250,66.0,0.0,240.0,2.0,64.0
251,51.0,0.0,240.0,8.0,64.0
252,83.0,235.0,240.0,5.0,64.0
253,39.0,0.0,240.0,4.0,64.0
254,66.0,0.0,240.0,7.0,64.0
255,82.0,0.0,240.0,0.0,64.0
256,52.0,0.0,240.0,3.0,64.0
257,59.0,0.0,240.0,7.0,64.0
258,40.0,0.0,240.0,10.0,64.0
259,52.0,125.0,240.0,8.0,64.0
260,59.0,0.0,240.0,2.0,64.0
261,40.0,0.0,240.0,4.0,64.0
262,82.0,0.0,240.0,5.0,64.0
263,40.0,0.0,480.0,4.0,64.0
264,80.0,0.0,390.0,0.0,64.0
265,71.0,0.0,480.0,6.0,64.0
266,64.0,0.0,120.0,7.0,64.0
267,71.0,120.0,480.0,1.0,64.0
268,40.0,0.0,480.0,10.0,64.0
269,80.0,75.0,390.0,5.0,64.0
270,64.0,120.0,120.0,2.0,64.0
271,52.0,5.0,480.0,8.0,64.0
272,52.0,0.0,480.0,3.0,64.0
273,63.0,160.0,120.0,2.0,64.0
274,63.0,0.0,120.0,7.0,64.0
275,64.0,0.0,240.0,7.0,64.0
276,64.0,0.0,15.0,2.0,64.0
277,40.0,5.0,480.0,10.0,64.0
278,40.0,0.0,480.0,4.0,64.0
279,78.0,120.0,120.0,0.0,64.0
280,78.0,0.0,120.0,5.0,64.0
281,52.0,0.0,480.0,3.0,64.0
282,68.0,120.0,240.0,1.0,64.0
283,64.0,0.0,240.0,7.0,64.0
284,68.0,0.0,240.0,6.0,64.0
285,52.0,0.0,480.0,8.0,64.0
286,76.0,0.0,120.0,5.0,64.0
287,76.0,0.0,120.0,0.0,64.0
288,75.0,0.0,120.0,0.0,64.0
289,64.0,0.0,240.0,6.0,64.0
290,68.0,120.0,240.0,7.0,64.0
291,68.0,0.0,240.0,2.0,64.0
292,64.0,0.0,240.0,1.0,64.0
293,75.0,115.0,120.0,5.0,64.0
294,73.0,0.0,120.0,0.0,64.0
295,73.0,0.0,120.0,5.0,64.0
296,56.0,0.0,240.0,7.0,64.0
297,63.0,0.0,240.0,1.0,64.0
298,73.0,0.0,120.0,5.0,64.0
299,41.0,0.0,240.0,10.0,64.0
300,63.0,5.0,240.0,6.0,64.0
301,41.0,0.0,240.0,4.0,64.0
302,73.0,115.0,120.0,0.0,64.0
303,53.0,0.0,240.0,8.0,64.0
304,53.0,120.0,240.0,3.0,64.0
305,56.0,0.0,240.0,2.0,64.0
306,71.0,0.0,120.0,5.0,64.0
307,71.0,0.0,120.0,0.0,64.0
308,42.0,285.0,600.0,10.0,64.0
309,54.0,0.0,600.0,8.0,64.0
310,54.0,75.0,390.0,2.0,64.0
311,73.0,0.0,120.0,5.0,64.0
312,64.0,115.0,120.0,1.0,64.0
313,64.0,0.0,120.0,6.0,64.0
314,42.0,0.0,600.0,4.0,64.0
315,54.0,0.0,600.0,3.0,64.0
316,73.0,0.0,120.0,0.0,64.0
317,54.0,0.0,600.0,7.0,64.0
318,63.0,5.0,120.0,6.0,64.0
319,63.0,0.0,120.0,1.0,64.0
320,71.0,0.0,120.0,5.0,64.0
321,71.0,120.0,120.0,0.0,64.0
322,70.0,40.0,120.0,5.0,64.0
323,70.0,0.0,120.0,0.0,64.0
324,61.0,0.0,120.0,6.0,64.0
325,61.0,0.0,120.0,1.0,64.0
326,59.0,0.0,120.0,1.0,64.0
327,59.0,5.0,120.0,6.0,64.0
328,71.0,0.0,120.0,5.0,64.0
329,71.0,115.0,120.0,0.0,64.0
330,61.0,0.0,390.0,1.0,64.0
331,70.0,80.0,390.0,5.0,64.0
332,70.0,0.0,390.0,0.0,64.0
333,61.0,0.0,390.0,6.0,64.0
334,46.0,0.0,240.0,4.0,64.0
335,58.0,240.0,240.0,3.0,64.0
336,46.0,0.0,240.0,10.0,64.0
337,58.0,0.0,240.0,8.0,64.0
338,49.0,0.0,240.0,4.0,64.0
339,49.0,0.0,240.0,10.0,64.0
340,61.0,0.0,240.0,8.0,64.0
341,61.0,235.0,240.0,3.0,64.0
342,46.0,120.0,240.0,4.0,64.0
343,46.0,5.0,240.0,10.0,64.0
344,58.0,0.0,240.0,3.0,64.0
345,58.0,0.0,240.0,8.0,64.0
346,54.0,75.0,390.0,8.0,64.0
347,54.0,0.0,480.0,3.0,64.0
348,75.0,0.0,120.0,1.0,64.0
349,71.0,0.0,120.0,7.0,64.0
350,85.0,235.0,3360.0,0.0,64.0
351,42.0,0.0,390.0,10.0,64.0
352,85.0,0.0,3360.0,5.0,64.0
353,75.0,0.0,120.0,6.0,64.0
354,42.0,80.0,480.0,4.0,64.0
355,71.0,115.0,120.0,2.0,64.0
356,70.0,0.0,120.0,7.0,64.0
357,73.0,125.0,120.0,6.0,64.0
358,70.0,0.0,120.0,2.0,64.0
359,73.0,0.0,120.0,1.0,64.0
360,68.0,0.0,120.0,2.0,64.0
361,68.0,40.0,120.0,7.0,64.0
362,71.0,0.0,120.0,6.0,64.0
363,71.0,0.0,120.0,1.0,64.0
364,70.0,5.0,120.0,1.0,64.0
365,70.0,0.0,120.0,6.0,64.0
366,66.0,0.0,120.0,2.0,64.0
367,66.0,0.0,120.0,7.0,64.0
368,42.0,320.0,390.0,3.0,64.0
369,66.0,240.0,90.0,2.0,64.0
370,70.0,0.0,90.0,6.0,64.0
371,42.0,0.0,390.0,8.0,64.0
372,70.0,0.0,90.0,1.0,64.0
373,30.0,0.0,390.0,4.0,64.0
374,30.0,0.0,390.0,10.0,64.0
375,66.0,0.0,90.0,7.0,64.0
376,66.0,0.0,90.0,7.0,64.0
377,70.0,0.0,90.0,1.0,64.0
378,66.0,80.0,90.0,2.0,64.0
379,70.0,0.0,90.0,6.0,64.0
380,70.0,0.0,240.0,1.0,64.0
381,66.0,0.0,240.0,2.0,64.0
382,66.0,0.0,240.0,7.0,64.0
383,70.0,235.0,240.0,6.0,64.0
384,73.0,0.0,240.0,1.0,64.0
385,70.0,125.0,240.0,2.0,64.0
386,70.0,0.0,240.0,7.0,64.0
387,73.0,0.0,240.0,6.0,64.0
388,73.0,0.0,120.0,6.0,64.0
389,49.0,0.0,390.0,10.0,64.0
390,70.0,0.0,120.0,7.0,64.0
391,73.0,0.0,120.0,1.0,64.0
392,70.0,115.0,120.0,2.0,64.0
393,61.0,0.0,390.0,3.0,64.0
394,61.0,0.0,390.0,8.0,64.0
395,49.0,75.0,390.0,4.0,64.0
396,71.0,0.0,120.0,6.0,64.0
397,68.0,0.0,120.0,7.0,64.0
398,71.0,0.0,120.0,1.0,64.0
399,68.0,125.0,120.0,2.0,64.0
400,66.0,0.0,120.0,7.0,64.0
401,66.0,0.0,120.0,2.0,64.0
402,70.0,0.0,120.0,6.0,64.0
403,70.0,40.0,120.0,1.0,64.0
404,68.0,405.0,120.0,1.0,64.0
405,65.0,0.0,120.0,7.0,64.0
406,68.0,0.0,120.0,6.0,64.0
407,65.0,0.0,120.0,2.0,64.0
408,65.0,75.0,390.0,7.0,64.0
409,68.0,0.0,390.0,1.0,64.0
410,65.0,0.0,390.0,2.0,64.0
411,68.0,0.0,390.0,6.0,64.0
412,37.0,240.0,240.0,4.0,64.0
413,49.0,0.0,240.0,3.0,64.0
414,37.0,0.0,240.0,10.0,64.0
415,49.0,5.0,240.0,8.0,64.0
416,49.0,0.0,240.0,4.0,64.0
417,61.0,0.0,240.0,3.0,64.0
418,49.0,0.0,240.0,10.0,64.0
419,61.0,235.0,240.0,8.0,64.0
420,59.0,320.0,240.0,3.0,64.0
421,47.0,0.0,240.0,4.0,64.0
422,47.0,5.0,240.0,10.0,64.0
423,59.0,0.0,240.0,8.0,64.0
424,66.0,40.0,360.0,6.0,64.0
425,66.0,40.0,330.0,1.0,64.0
426,46.0,20.0,390.0,10.0,64.0
427,58.0,0.0,390.0,8.0,64.0
428,58.0,0.0,480.0,3.0,64.0
429,46.0,0.0,480.0,4.0,64.0
430,61.0,0.0,480.0,7.0,64.0
431,61.0,165.0,480.0,2.0,64.0
432,68.0,0.0,90.0,1.0,64.0
433,68.0,55.0,60.0,6.0,64.0
434,70.0,0.0,90.0,1.0,64.0
435,70.0,5.0,60.0,6.0,64.0
436,56.0,0.0,480.0,8.0,64.0
437,56.0,0.0,480.0,3.0,64.0
438,65.0,0.0,480.0,1.0,64.0
439,83.0,0.0,480.0,0.0,64.0
440,44.0,0.0,480.0,4.0,64.0
441,44.0,0.0,480.0,10.0,64.0
442,83.0,235.0,480.0,5.0,64.0
443,65.0,80.0,390.0,6.0,64.0
444,61.0,165.0,480.0,2.0,64.0
445,61.0,0.0,480.0,7.0,64.0
446,54.0,0.0,390.0,8.0,64.0
447,54.0,0.0,480.0,3.0,64.0
448,42.0,80.0,390.0,10.0,64.0
449,66.0,0.0,480.0,1.0,64.0
450,42.0,120.0,480.0,4.0,64.0
451,82.0,0.0,480.0,5.0,64.0
452,66.0,0.0,390.0,6.0,64.0
453,82.0,0.0,480.0,0.0,64.0
454,61.0,0.0,630.0,2.0,64.0
455,61.0,0.0,630.0,7.0,64.0
456,83.0,0.0,120.0,5.0,64.0
457,37.0,75.0,390.0,10.0,64.0
458,68.0,115.0,120.0,6.0,64.0
459,49.0,0.0,390.0,3.0,64.0
460,68.0,0.0,120.0,1.0,64.0
461,37.0,0.0,390.0,4.0,64.0
462,83.0,0.0,120.0,0.0,64.0
463,49.0,0.0,390.0,8.0,64.0
464,82.0,0.0,120.0,0.0,64.0
465,82.0,120.0,120.0,5.0,64.0
466,66.0,5.0,120.0,6.0,64.0
467,66.0,0.0,120.0,1.0,64.0
468,65.0,40.0,120.0,6.0,64.0
469,80.0,0.0,120.0,0.0,64.0
470,65.0,0.0,120.0,1.0,64.0
471,80.0,0.0,120.0,5.0,64.0
472,82.0,0.0,120.0,0.0,64.0
473,66.0,400.0,120.0,1.0,64.0
474,82.0,0.0,120.0,5.0,64.0
475,66.0,5.0,120.0,6.0,64.0
476,80.0,0.0,390.0,5.0,64.0
477,61.0,0.0,390.0,7.0,64.0
478,65.0,0.0,390.0,1.0,64.0
479,61.0,75.0,390.0,2.0,64.0
480,65.0,0.0,390.0,6.0,64.0
481,80.0,0.0,390.0,0.0,64.0
482,49.0,0.0,240.0,3.0,64.0
483,49.0,125.0,240.0,8.0,64.0
484,37.0,0.0,240.0,4.0,64.0
485,37.0,0.0,240.0,10.0,64.0
486,49.0,120.0,120.0,10.0,64.0
487,49.0,0.0,120.0,4.0,64.0
488,61.0,0.0,120.0,8.0,64.0
489,61.0,0.0,120.0,3.0,64.0
490,59.0,0.0,120.0,8.0,64.0
491,59.0,120.0,120.0,3.0,64.0
492,47.0,0.0,120.0,4.0,64.0
493,47.0,0.0,120.0,10.0,64.0
494,46.0,115.0,120.0,10.0,64.0
495,58.0,0.0,120.0,8.0,64.0
496,46.0,0.0,120.0,4.0,64.0
497,58.0,0.0,120.0,3.0,64.0
498,44.0,0.0,120.0,4.0,64.0
499,44.0,0.0,120.0,10.0,64.0
500,56.0,5.0,120.0,8.0,64.0
501,56.0,120.0,120.0,3.0,64.0
502,83.0,0.0,120.0,5.0,64.0
503,54.0,0.0,390.0,8.0,64.0
504,42.0,75.0,390.0,4.0,64.0
505,75.0,0.0,120.0,6.0,64.0
506,75.0,115.0,120.0,1.0,64.0
507,54.0,0.0,390.0,3.0,64.0
508,42.0,0.0,390.0,10.0,64.0
509,83.0,0.0,120.0,0.0,64.0
510,82.0,0.0,120.0,0.0,64.0
511,73.0,0.0,120.0,6.0,64.0
512,73.0,0.0,120.0,1.0,64.0
513,82.0,125.0,120.0,5.0,64.0
514,61.0,5.0,240.0,7.0,64.0
515,80.0,0.0,120.0,0.0,64.0
516,80.0,0.0,120.0,5.0,64.0
517,71.0,40.0,120.0,1.0,64.0
518,71.0,0.0,120.0,6.0,64.0
519,61.0,80.0,240.0,2.0,64.0
520,70.0,0.0,120.0,1.0,64.0
521,78.0,0.0,120.0,0.0,64.0
522,78.0,0.0,120.0,5.0,64.0
523,70.0,0.0,120.0,6.0,64.0
524,70.0,160.0,90.0,6.0,64.0
525,78.0,0.0,90.0,0.0,64.0
526,70.0,0.0,90.0,1.0,64.0
527,66.0,80.0,240.0,2.0,64.0
528,78.0,0.0,90.0,5.0,64.0
529,66.0,0.0,240.0,7.0,64.0
530,70.0,5.0,240.0,7.0,64.0
531,70.0,0.0,90.0,1.0,64.0
532,70.0,0.0,90.0,6.0,64.0
533,78.0,155.0,90.0,5.0,64.0
534,78.0,0.0,90.0,0.0,64.0
535,70.0,240.0,240.0,2.0,64.0
536,78.0,0.0,240.0,0.0,64.0
537,73.0,0.0,390.0,2.0,64.0
538,70.0,0.0,240.0,6.0,64.0
539,70.0,0.0,240.0,1.0,64.0
540,78.0,160.0,240.0,5.0,64.0
541,73.0,75.0,390.0,7.0,64.0
542,82.0,0.0,240.0,5.0,64.0
543,73.0,0.0,240.0,1.0,64.0
544,82.0,0.0,240.0,0.0,64.0
545,73.0,125.0,240.0,6.0,64.0
546,73.0,0.0,120.0,6.0,64.0
547,82.0,115.0,120.0,0.0,64.0
548,37.0,0.0,390.0,10.0,64.0
549,49.0,75.0,390.0,3.0,64.0
550,37.0,0.0,390.0,4.0,64.0
551,49.0,0.0,390.0,8.0,64.0
552,82.0,0.0,120.0,5.0,64.0
553,73.0,0.0,120.0,1.0,64.0
554,71.0,0.0,120.0,6.0,64.0
555,71.0,120.0,120.0,1.0,64.0
556,80.0,5.0,120.0,5.0,64.0
557,80.0,0.0,120.0,0.0,64.0
558,78.0,0.0,120.0,5.0,64.0
559,78.0,0.0,120.0,0.0,64.0
560,70.0,0.0,120.0,6.0,64.0
561,61.0,0.0,240.0,2.0,64.0
562,70.0,40.0,120.0,1.0,64.0
563,61.0,240.0,240.0,7.0,64.0
564,77.0,0.0,120.0,0.0,64.0
565,68.0,0.0,120.0,6.0,64.0
566,68.0,0.0,120.0,1.0,64.0
567,77.0,0.0,120.0,5.0,64.0
568,77.0,0.0,390.0,0.0,64.0
569,68.0,0.0,390.0,1.0,64.0
570,65.0,160.0,240.0,7.0,64.0
571,68.0,0.0,390.0,6.0,64.0
572,65.0,5.0,240.0,2.0,64.0
573,77.0,75.0,390.0,5.0,64.0
574,68.0,245.0,240.0,7.0,64.0
575,68.0,0.0,240.0,2.0,64.0
576,73.0,235.0,240.0,7.0,64.0
577,73.0,0.0,240.0,2.0,64.0
578,71.0,0.0,240.0,7.0,64.0
579,71.0,365.0,240.0,2.0,64.0
580,78.0,60.0,360.0,0.0,64.0
581,39.0,40.0,1320.0,10.0,64.0
582,51.0,0.0,1320.0,8.0,64.0
583,66.0,0.0,1320.0,6.0,64.0
584,66.0,0.0,1440.0,1.0,64.0
585,51.0,0.0,1440.0,3.0,64.0
586,70.0,0.0,960.0,2.0,64.0
587,39.0,235.0,1440.0,4.0,64.0
588,70.0,120.0,840.0,7.0,64.0
589,78.0,0.0,360.0,5.0,64.0
590,80.0,0.0,60.0,5.0,64.0
591,80.0,60.0,60.0,0.0,64.0
592,78.0,240.0,60.0,0.0,64.0
593,78.0,0.0,60.0,5.0,64.0
594,77.0,120.0,240.0,0.0,64.0
595,77.0,0.0,240.0,5.0,64.0
596,75.0,0.0,240.0,0.0,64.0
597,75.0,240.0,240.0,5.0,64.0
598,73.0,0.0,240.0,0.0,64.0
599,66.0,80.0,390.0,7.0,64.0
600,66.0,0.0,480.0,2.0,64.0
601,73.0,120.0,240.0,5.0,64.0
602,72.0,0.0,240.0,0.0,64.0
603,72.0,0.0,240.0,5.0,64.0
604,49.0,0.0,480.0,3.0,64.0
605,73.0,75.0,390.0,5.0,64.0
606,65.0,0.0,240.0,7.0,64.0
607,68.0,125.0,240.0,6.0,64.0
608,73.0,0.0,390.0,0.0,64.0
609,49.0,0.0,390.0,8.0,64.0
610,65.0,0.0,240.0,2.0,64.0
611,68.0,0.0,240.0,1.0,64.0
612,37.0,0.0,480.0,4.0,64.0
613,37.0,0.0,390.0,10.0,64.0
614,77.0,0.0,120.0,1.0,64.0
615,77.0,40.0,120.0,6.0,64.0
616,61.0,0.0,120.0,2.0,64.0
617,61.0,0.0,120.0,7.0,64.0
618,78.0,0.0,120.0,1.0,64.0
619,63.0,5.0,120.0,7.0,64.0
620,63.0,120.0,120.0,2.0,64.0
621,78.0,0.0,120.0,6.0,64.0
622,65.0,115.0,120.0,7.0,64.0
623,49.0,120.0,480.0,4.0,64.0
624,80.0,0.0,120.0,1.0,64.0
625,61.0,0.0,390.0,8.0,64.0
626,65.0,0.0,120.0,2.0,64.0
627,80.0,0.0,120.0,6.0,64.0
628,49.0,75.0,390.0,10.0,64.0
629,61.0,0.0,480.0,3.0,64.0
630,82.0,5.0,120.0,6.0,64.0
631,66.0,120.0,120.0,2.0,64.0
632,66.0,0.0,120.0,7.0,64.0
633,82.0,0.0,120.0,1.0,64.0
634,68.0,0.0,120.0,7.0,64.0
635,83.0,0.0,120.0,1.0,64.0
636,68.0,0.0,120.0,2.0,64.0
637,83.0,40.0,120.0,6.0,64.0
638,66.0,0.0,120.0,2.0,64.0
639,82.0,0.0,120.0,6.0,64.0
640,82.0,0.0,120.0,1.0,64.0
641,66.0,5.0,120.0,7.0,64.0
642,68.0,5.0,240.0,7.0,64.0
643,59.0,0.0,390.0,3.0,64.0
644,85.0,0.0,120.0,6.0,64.0
645,68.0,120.0,240.0,2.0,64.0
646,59.0,0.0,390.0,8.0,64.0
647,47.0,75.0,390.0,10.0,64.0
648,85.0,115.0,120.0,1.0,64.0
649,47.0,0.0,390.0,4.0,64.0
650,83.0,0.0,120.0,6.0,64.0
651,83.0,0.0,120.0,1.0,64.0
652,82.0,0.0,120.0,1.0,64.0
653,70.0,0.0,120.0,2.0,64.0
654,70.0,40.0,120.0,7.0,64.0
655,82.0,0.0,120.0,6.0,64.0
656,71.0,0.0,120.0,2.0,64.0
657,80.0,5.0,120.0,6.0,64.0
658,71.0,0.0,120.0,7.0,64.0
659,80.0,235.0,120.0,1.0,64.0
660,73.0,0.0,240.0,7.0,64.0
661,58.0,0.0,240.0,8.0,64.0
662,78.0,0.0,240.0,1.0,64.0
663,78.0,0.0,240.0,6.0,64.0
664,90.0,0.0,1200.0,0.0,64.0
665,73.0,235.0,240.0,2.0,64.0
666,46.0,0.0,240.0,4.0,64.0
667,58.0,0.0,240.0,3.0,64.0
668,90.0,0.0,1200.0,5.0,64.0
669,46.0,5.0,240.0,10.0,64.0
670,58.0,0.0,240.0,8.0,64.0
671,73.0,0.0,240.0,6.0,64.0
672,73.0,0.0,240.0,1.0,64.0
673,70.0,0.0,240.0,7.0,64.0
674,58.0,0.0,240.0,3.0,64.0
675,70.0,240.0,240.0,2.0,64.0
676,46.0,0.0,240.0,4.0,64.0
677,46.0,0.0,240.0,10.0,64.0
678,58.0,0.0,240.0,7.0,64.0
679,58.0,0.0,240.0,2.0,64.0
680,58.0,0.0,240.0,8.0,64.0
681,73.0,0.0,240.0,6.0,64.0
682,58.0,0.0,240.0,3.0,64.0
683,46.0,0.0,240.0,10.0,64.0
684,73.0,0.0,240.0,1.0,64.0
685,46.0,240.0,240.0,4.0,64.0
686,46.0,0.0,240.0,4.0,64.0
687,58.0,0.0,240.0,8.0,64.0
688,58.0,240.0,240.0,7.0,64.0
689,73.0,0.0,240.0,6.0,64.0
690,58.0,0.0,240.0,3.0,64.0
691,58.0,0.0,240.0,2.0,64.0
692,73.0,0.0,240.0,1.0,64.0
693,46.0,0.0,240.0,10.0,64.0
694,58.0,0.0,240.0,3.0,64.0
695,46.0,0.0,240.0,4.0,64.0
696,58.0,0.0,240.0,8.0,64.0
697,73.0,0.0,240.0,6.0,64.0
698,73.0,0.0,240.0,1.0,64.0
699,58.0,0.0,240.0,7.0,64.0
700,58.0,240.0,240.0,2.0,64.0
701,46.0,0.0,240.0,10.0,64.0
702,58.0,0.0,240.0,3.0,64.0
703,58.0,0.0,240.0,8.0,64.0
704,88.0,5.0,240.0,5.0,64.0
705,88.0,0.0,240.0,0.0,64.0
706,58.0,235.0,240.0,2.0,64.0
707,58.0,0.0,240.0,7.0,64.0
708,46.0,0.0,240.0,10.0,64.0
709,73.0,0.0,240.0,1.0,64.0
710,73.0,0.0,240.0,6.0,64.0
711,46.0,0.0,240.0,4.0,64.0
712,47.0,0.0,240.0,4.0,64.0
713,86.0,120.0,240.0,0.0,64.0
714,59.0,0.0,240.0,7.0,64.0
715,59.0,0.0,240.0,3.0,64.0
716,59.0,0.0,240.0,8.0,64.0
717,59.0,0.0,240.0,2.0,64.0
718,73.0,5.0,240.0,1.0,64.0
719,73.0,0.0,240.0,6.0,64.0
720,86.0,0.0,240.0,5.0,64.0
721,47.0,0.0,240.0,10.0,64.0
722,87.0,0.0,240.0,0.0,64.0
723,71.0,115.0,120.0,6.0,64.0
724,59.0,5.0,240.0,8.0,64.0
725,87.0,0.0,240.0,5.0,64.0
726,47.0,0.0,240.0,10.0,64.0
727,71.0,0.0,120.0,1.0,64.0
728,66.0,0.0,480.0,7.0,64.0
729,47.0,0.0,240.0,4.0,64.0
730,66.0,0.0,480.0,2.0,64.0
731,59.0,0.0,240.0,3.0,64.0
732,70.0,235.0,120.0,1.0,64.0
733,70.0,0.0,120.0,6.0,64.0
734,71.0,0.0,240.0,6.0,64.0
735,87.0,0.0,630.0,5.0,64.0
736,59.0,0.0,240.0,3.0,64.0
737,47.0,5.0,240.0,10.0,64.0
738,47.0,0.0,240.0,4.0,64.0
739,87.0,75.0,630.0,0.0,64.0
740,71.0,115.0,240.0,1.0,64.0
741,59.0,0.0,240.0,8.0,64.0
742,59.0,0.0,240.0,8.0,64.0
743,70.0,0.0,240.0,6.0,64.0
744,66.0,0.0,120.0,7.0,64.0
745,47.0,0.0,240.0,10.0,64.0
746,70.0,160.0,240.0,1.0,64.0
747,47.0,0.0,240.0,4.0,64.0
748,66.0,65.0,120.0,2.0,64.0
749,59.0,0.0,240.0,3.0,64.0
750,68.0,0.0,60.0,7.0,64.0
751,68.0,55.0,60.0,2.0,64.0
752,70.0,5.0,60.0,7.0,64.0
753,70.0,0.0,60.0,2.0,64.0
754,47.0,0.0,240.0,10.0,64.0
755,59.0,0.0,240.0,8.0,64.0
756,68.0,0.0,240.0,1.0,64.0
757,71.0,235.0,240.0,2.0,64.0
758,47.0,0.0,240.0,4.0,64.0
759,68.0,0.0,240.0,6.0,64.0
760,59.0,5.0,240.0,3.0,64.0
761,71.0,0.0,240.0,7.0,64.0
762,70.0,5.0,240.0,7.0,64.0
763,47.0,0.0,240.0,10.0,64.0
764,66.0,0.0,240.0,6.0,64.0
765,59.0,235.0,240.0,3.0,64.0
766,59.0,0.0,240.0,8.0,64.0
767,87.0,0.0,240.0,0.0,64.0
768,70.0,0.0,240.0,2.0,64.0
769,87.0,0.0,240.0,5.0,64.0
770,47.0,0.0,240.0,4.0,64.0
771,66.0,0.0,240.0,1.0,64.0
772,65.0,0.0,240.0,6.0,64.0
773,61.0,0.0,240.0,3.0,64.0
774,87.0,475.0,240.0,5.0,64.0
775,61.0,0.0,240.0,8.0,64.0
776,68.0,0.0,240.0,2.0,64.0
777,87.0,0.0,240.0,0.0,64.0
778,49.0,0.0,240.0,10.0,64.0
779,49.0,0.0,240.0,4.0,64.0
780,65.0,0.0,240.0,1.0,64.0
781,68.0,5.0,240.0,7.0,64.0
782,68.0,0.0,480.0,7.0,64.0
783,49.0,0.0,480.0,4.0,64.0
784,85.0,0.0,480.0,0.0,64.0
785,65.0,0.0,480.0,1.0,64.0
786,85.0,125.0,480.0,5.0,64.0
787,61.0,0.0,480.0,8.0,64.0
788,68.0,0.0,480.0,2.0,64.0
789,65.0,0.0,480.0,6.0,64.0
790,61.0,0.0,480.0,3.0,64.0
791,49.0,0.0,480.0,10.0,64.0
792,61.0,0.0,240.0,8.0,64.0
793,49.0,0.0,240.0,4.0,64.0
794,68.0,0.0,240.0,2.0,64.0
795,61.0,0.0,240.0,3.0,64.0
796,49.0,5.0,240.0,10.0,64.0
797,80.0,0.0,120.0,0.0,64.0
798,65.0,0.0,240.0,6.0,64.0
799,80.0,115.0,120.0,5.0,64.0
800,68.0,0.0,240.0,7.0,64.0
801,65.0,80.0,240.0,1.0,64.0
802,82.0,0.0,120.0,5.0,64.0
803,82.0,0.0,120.0,0.0,64.0
804,65.0,5.0,240.0,2.0,64.0
805,83.0,0.0,90.0,5.0,64.0
806,49.0,0.0,240.0,3.0,64.0
807,65.0,0.0,240.0,7.0,64.0
808,49.0,0.0,240.0,8.0,64.0
809,83.0,80.0,90.0,0.0,64.0
810,37.0,0.0,240.0,4.0,64.0
811,37.0,0.0,240.0,10.0,64.0
812,68.0,0.0,240.0,6.0,64.0
813,68.0,0.0,240.0,1.0,64.0
814,82.0,0.0,90.0,5.0,64.0
815,82.0,75.0,90.0,0.0,64.0
816,80.0,80.0,90.0,5.0,64.0
817,80.0,0.0,90.0,0.0,64.0
818,87.0,80.0,90.0,0.0,64.0
819,68.0,0.0,240.0,6.0,64.0
820,37.0,0.0,240.0,10.0,64.0
821,37.0,30.0,240.0,4.0,64.0
822,49.0,5.0,240.0,8.0,64.0
823,49.0,0.0,240.0,3.0,64.0
824,87.0,0.0,90.0,5.0,64.0
825,65.0,0.0,240.0,7.0,64.0
826,85.0,0.0,90.0,5.0,64.0
827,85.0,75.0,90.0,0.0,64.0
828,83.0,0.0,90.0,0.0,64.0
829,83.0,0.0,30.0,0.0,64.0
830,51.0,0.0,630.0,8.0,64.0
831,39.0,0.0,630.0,10.0,64.0
832,65.0,0.0,15.0,2.0,64.0
833,68.0,0.0,15.0,1.0,64.0
834,68.0,0.0,480.0,6.0,64.0
835,83.0,0.0,15.0,5.0,64.0
836,51.0,75.0,630.0,3.0,64.0
837,39.0,0.0,630.0,4.0,64.0
838,65.0,160.0,480.0,7.0,64.0
839,85.0,0.0,30.0,5.0,64.0
840,85.0,30.0,30.0,0.0,64.0
841,83.0,0.0,30.0,5.0,64.0
842,83.0,30.0,30.0,0.0,64.0
843,85.0,0.0,30.0,5.0,64.0
844,85.0,30.0,30.0,0.0,64.0
845,83.0,30.0,30.0,0.0,64.0
846,83.0,0.0,30.0,5.0,64.0
847,85.0,0.0,30.0,0.0,64.0
848,85.0,30.0,30.0,5.0,64.0
849,83.0,30.0,30.0,5.0,64.0
850,83.0,0.0,30.0,0.0,64.0
851,85.0,0.0,30.0,0.0,64.0
852,85.0,30.0,30.0,5.0,64.0
853,83.0,0.0,30.0,5.0,64.0
854,83.0,30.0,30.0,0.0,64.0
855,85.0,0.0,30.0,5.0,64.0
856,85.0,30.0,30.0,0.0,64.0
857,83.0,30.0,30.0,0.0,64.0
858,83.0,0.0,30.0,5.0,64.0
859,85.0,0.0,30.0,0.0,64.0
860,85.0,40.0,30.0,5.0,64.0
861,82.0,0.0,60.0,0.0,64.0
862,82.0,60.0,60.0,5.0,64.0
863,83.0,0.0,60.0,0.0,64.0
864,83.0,0.0,60.0,5.0,64.0
865,66.0,0.0,390.0,6.0,64.0
866,82.0,0.0,240.0,5.0,64.0
867,66.0,0.0,240.0,7.0,64.0
868,66.0,80.0,390.0,1.0,64.0
869,66.0,0.0,240.0,2.0,64.0
870,82.0,165.0,240.0,0.0,64.0
871,66.0,0.0,240.0,2.0,64.0
872,39.0,0.0,240.0,10.0,64.0
873,66.0,0.0,240.0,7.0,64.0
874,39.0,0.0,240.0,4.0,64.0
875,51.0,0.0,240.0,3.0,64.0
876,51.0,240.0,240.0,8.0,64.0
877,49.0,0.0,240.0,8.0,64.0
878,49.0,0.0,240.0,3.0,64.0
879,37.0,0.0,240.0,10.0,64.0
880,65.0,0.0,240.0,2.0,64.0
881,65.0,0.0,240.0,7.0,64.0
882,37.0,235.0,240.0,4.0,64.0
883,63.0,0.0,240.0,7.0,64.0
884,47.0,0.0,240.0,8.0,64.0
885,63.0,0.0,240.0,2.0,64.0
886,47.0,245.0,240.0,3.0,64.0
887,35.0,0.0,240.0,10.0,64.0
888,35.0,0.0,240.0,4.0,64.0
889,46.0,0.0,390.0,3.0,64.0
890,61.0,0.0,390.0,7.0,64.0
891,46.0,0.0,390.0,8.0,64.0
892,34.0,40.0,390.0,10.0,64.0
893,61.0,0.0,390.0,2.0,64.0
894,34.0,0.0,390.0,4.0,64.0
895,78.0,80.0,120.0,5.0,64.0
896,66.0,0.0,120.0,1.0,64.0
897,78.0,0.0,120.0,0.0,64.0
898,66.0,0.0,120.0,6.0,64.0
899,77.0,0.0,90.0,0.0,64.0
900,77.0,0.0,90.0,5.0,64.0
901,65.0,0.0,90.0,6.0,64.0
902,65.0,80.0,90.0,1.0,64.0
903,78.0,0.0,90.0,5.0,64.0
904,78.0,160.0,90.0,0.0,64.0
905,66.0,0.0,90.0,1.0,64.0
906,66.0,0.0,90.0,6.0,64.0
907,68.0,0.0,120.0,6.0,64.0
908,68.0,0.0,120.0,1.0,64.0
909,80.0,0.0,120.0,5.0,64.0
910,80.0,80.0,120.0,0.0,64.0
911,66.0,160.0,90.0,1.0,64.0
912,78.0,0.0,90.0,5.0,64.0
913,66.0,0.0,90.0,6.0,64.0
914,78.0,0.0,90.0,0.0,64.0
915,82.0,0.0,120.0,5.0,64.0
916,70.0,0.0,120.0,1.0,64.0
917,70.0,0.0,120.0,6.0,64.0
918,82.0,80.0,120.0,0.0,64.0
919,68.0,0.0,90.0,6.0,64.0
920,80.0,0.0,90.0,0.0,64.0
921,68.0,0.0,90.0,1.0,64.0
922,80.0,160.0,90.0,5.0,64.0
923,83.0,0.0,120.0,5.0,64.0
924,71.0,80.0,120.0,6.0,64.0
925,71.0,0.0,120.0,1.0,64.0
926,83.0,0.0,120.0,0.0,64.0
927,70.0,0.0,90.0,1.0,64.0
928,82.0,0.0,90.0,0.0,64.0
929,82.0,0.0,90.0,5.0,64.0
930,70.0,160.0,90.0,6.0,64.0
931,68.0,0.0,120.0,6.0,64.0
932,80.0,0.0,120.0,0.0,64.0
933,68.0,0.0,120.0,1.0,64.0
934,80.0,80.0,120.0,5.0,64.0
935,67.0,0.0,90.0,1.0,64.0
936,67.0,0.0,90.0,6.0,64.0
937,79.0,245.0,90.0,0.0,64.0
938,79.0,0.0,90.0,5.0,64.0
939,47.0,0.0,390.0,3.0,64.0
940,35.0,0.0,390.0,10.0,64.0
941,47.0,0.0,390.0,8.0,64.0
942,63.0,0.0,390.0,7.0,64.0
943,63.0,40.0,390.0,2.0,64.0
944,35.0,0.0,390.0,4.0,64.0
945,68.0,80.0,120.0,1.0,64.0
946,68.0,0.0,90.0,6.0,64.0
947,80.0,0.0,90.0,5.0,64.0
948,80.0,35.0,90.0,0.0,64.0
949,67.0,0.0,90.0,1.0,64.0
950,79.0,0.0,90.0,5.0,64.0
951,67.0,0.0,90.0,6.0,64.0
952,79.0,80.0,90.0,0.0,64.0
953,68.0,0.0,90.0,1.0,64.0
954,80.0,0.0,90.0,5.0,64.0
955,80.0,0.0,90.0,0.0,64.0
956,68.0,160.0,90.0,6.0,64.0
957,70.0,0.0,120.0,6.0,64.0
958,82.0,80.0,120.0,0.0,64.0
959,82.0,0.0,120.0,5.0,64.0
960,70.0,0.0,120.0,1.0,64.0
961,80.0,0.0,90.0,5.0,64.0
962,68.0,0.0,90.0,1.0,64.0
963,68.0,0.0,90.0,6.0,64.0
964,80.0,160.0,90.0,0.0,64.0
965,83.0,0.0,120.0,5.0,64.0
966,71.0,0.0,120.0,6.0,64.0
967,83.0,0.0,120.0,0.0,64.0
968,71.0,80.0,120.0,1.0,64.0
969,82.0,0.0,90.0,0.0,64.0
970,70.0,160.0,90.0,1.0,64.0
971,82.0,0.0,90.0,5.0,64.0
972,70.0,0.0,90.0,6.0,64.0
973,85.0,0.0,120.0,5.0,64.0
974,73.0,0.0,120.0,1.0,64.0
975,68.0,75.0,390.0,7.0,64.0
976,85.0,0.0,120.0,0.0,64.0
977,68.0,0.0,390.0,2.0,64.0
978,41.0,0.0,390.0,10.0,64.0
979,41.0,240.0,480.0,4.0,64.0
980,73.0,80.0,120.0,6.0,64.0
981,53.0,0.0,480.0,3.0,64.0
982,53.0,0.0,390.0,8.0,64.0
983,71.0,160.0,90.0,1.0,64.0
984,83.0,0.0,90.0,0.0,64.0
985,83.0,0.0,90.0,5.0,64.0
986,71.0,0.0,90.0,6.0,64.0
987,82.0,0.0,120.0,5.0,64.0
988,82.0,0.0,120.0,0.0,64.0
989,70.0,0.0,120.0,6.0,64.0
990,70.0,40.0,120.0,1.0,64.0
991,80.0,5.0,120.0,0.0,64.0
992,68.0,0.0,120.0,1.0,64.0
993,68.0,0.0,120.0,6.0,64.0
994,80.0,0.0,120.0,5.0,64.0
995,42.0,0.0,390.0,10.0,64.0
996,42.0,40.0,390.0,4.0,64.0
997,54.0,0.0,390.0,8.0,64.0
998,54.0,0.0,390.0,3.0,64.0
999,66.0,0.0,120.0,2.0,64.0
1000,70.0,0.0,120.0,1.0,64.0
1001,82.0,0.0,120.0,0.0,64.0
1002,70.0,0.0,120.0,6.0,64.0
1003,66.0,0.0,120.0,7.0,64.0
1004,82.0,80.0,120.0,5.0,64.0
1005,83.0,0.0,90.0,0.0,64.0
1006,83.0,80.0,90.0,5.0,64.0
1007,71.0,0.0,90.0,6.0,64.0
1008,71.0,0.0,90.0,1.0,64.0
1009,68.0,0.0,90.0,7.0,64.0
1010,68.0,0.0,90.0,2.0,64.0
1011,83.0,0.0,90.0,0.0,64.0
1012,68.0,0.0,90.0,7.0,64.0
1013,71.0,120.0,90.0,1.0,64.0
1014,71.0,0.0,90.0,6.0,64.0
1015,68.0,0.0,90.0,2.0,64.0
1016,83.0,0.0,90.0,5.0,64.0
1017,85.0,0.0,90.0,5.0,64.0
1018,73.0,0.0,90.0,6.0,64.0
1019,70.0,120.0,90.0,2.0,64.0
1020,85.0,0.0,90.0,0.0,64.0
1021,73.0,0.0,90.0,1.0,64.0
1022,70.0,0.0,90.0,7.0,64.0
1023,73.0,0.0,90.0,1.0,64.0
1024,85.0,0.0,90.0,5.0,64.0
1025,70.0,0.0,90.0,2.0,64.0
1026,73.0,0.0,90.0,6.0,64.0
1027,85.0,0.0,90.0,0.0,64.0
1028,70.0,120.0,90.0,7.0,64.0
1029,75.0,0.0,90.0,1.0,64.0
1030,71.0,120.0,90.0,2.0,64.0
1031,75.0,0.0,90.0,6.0,64.0
1032,71.0,0.0,90.0,7.0,64.0
1033,87.0,0.0,90.0,0.0,64.0
1034,87.0,0.0,90.0,5.0,64.0
1035,75.0,0.0,90.0,1.0,64.0
1036,87.0,0.0,90.0,5.0,64.0
1037,71.0,120.0,90.0,7.0,64.0
1038,75.0,0.0,90.0,6.0,64.0
1039,87.0,0.0,90.0,0.0,64.0
1040,71.0,0.0,90.0,2.0,64.0
1041,77.0,120.0,90.0,1.0,64.0
1042,73.0,0.0,90.0,7.0,64.0
1043,89.0,0.0,90.0,0.0,64.0
1044,73.0,0.0,90.0,2.0,64.0
1045,89.0,0.0,90.0,5.0,64.0
1046,77.0,0.0,90.0,6.0,64.0
1047,73.0,0.0,90.0,2.0,64.0
1048,73.0,0.0,90.0,7.0,64.0
1049,77.0,0.0,90.0,6.0,64.0
1050,89.0,0.0,90.0,5.0,64.0
1051,77.0,120.0,90.0,1.0,64.0
1052,89.0,0.0,90.0,0.0,64.0
1053,78.0,0.0,90.0,1.0,64.0
1054,75.0,0.0,90.0,2.0,64.0
1055,90.0,0.0,90.0,0.0,64.0
1056,90.0,120.0,90.0,5.0,64.0
1057,75.0,0.0,90.0,7.0,64.0
1058,78.0,0.0,90.0,6.0,64.0
1059,78.0,0.0,90.0,6.0,64.0
1060,90.0,0.0,90.0,0.0,64.0
1061,78.0,0.0,90.0,1.0,64.0
1062,90.0,160.0,90.0,5.0,64.0
1063,75.0,0.0,90.0,7.0,64.0
1064,75.0,0.0,90.0,2.0,64.0
1065,73.0,0.0,120.0,2.0,64.0
1066,73.0,0.0,120.0,7.0,64.0
1067,89.0,0.0,120.0,5.0,64.0
1068,89.0,115.0,120.0,0.0,64.0
1069,47.0,5.0,240.0,10.0,64.0
1070,59.0,0.0,240.0,3.0,64.0
1071,77.0,0.0,120.0,1.0,64.0
1072,47.0,0.0,240.0,4.0,64.0
1073,77.0,0.0,120.0,6.0,64.0
1074,59.0,0.0,240.0,8.0,64.0
1075,87.0,0.0,120.0,5.0,64.0
1076,71.0,0.0,120.0,7.0,64.0
1077,87.0,120.0,120.0,0.0,64.0
1078,75.0,0.0,120.0,6.0,64.0
1079,75.0,0.0,120.0,1.0,64.0
1080,71.0,0.0,120.0,2.0,64.0
1081,85.0,0.0,120.0,5.0,64.0
1082,70.0,0.0,120.0,7.0,64.0
1083,73.0,115.0,120.0,6.0,64.0
1084,70.0,0.0,120.0,2.0,64.0
1085,73.0,0.0,120.0,1.0,64.0
1086,47.0,0.0,240.0,10.0,64.0
1087,59.0,0.0,240.0,8.0,64.0
1088,59.0,0.0,240.0,3.0,64.0
1089,47.0,0.0,240.0,4.0,64.0
1090,85.0,0.0,120.0,0.0,64.0
1091,71.0,0.0,120.0,6.0,64.0
1092,68.0,0.0,120.0,7.0,64.0
1093,83.0,0.0,120.0,0.0,64.0
1094,71.0,235.0,120.0,1.0,64.0
1095,83.0,0.0,120.0,5.0,64.0
1096,68.0,5.0,120.0,2.0,64.0
1097,61.0,165.0,240.0,3.0,64.0
1098,82.0,0.0,480.0,5.0,64.0
1099,66.0,0.0,390.0,7.0,64.0
1100,66.0,0.0,480.0,2.0,64.0
1101,49.0,0.0,240.0,4.0,64.0
1102,49.0,0.0,240.0,10.0,64.0
1103,61.0,0.0,240.0,8.0,64.0
1104,82.0,0.0,480.0,0.0,64.0
1105,70.0,75.0,390.0,6.0,64.0
1106,70.0,30.0,480.0,1.0,64.0
1107,49.0,0.0,240.0,10.0,64.0
1108,61.0,5.0,240.0,8.0,64.0
1109,61.0,0.0,240.0,3.0,64.0
1110,49.0,0.0,240.0,4.0,64.0
1111,37.0,0.0,240.0,4.0,64.0
1112,80.0,0.0,30.0,5.0,64.0
1113,49.0,0.0,240.0,3.0,64.0
1114,37.0,0.0,240.0,10.0,64.0
1115,80.0,0.0,30.0,0.0,64.0
1116,68.0,0.0,30.0,1.0,64.0
1117,49.0,5.0,240.0,8.0,64.0
1118,65.0,240.0,480.0,2.0,64.0
1119,65.0,20.0,390.0,7.0,64.0
1120,68.0,30.0,30.0,6.0,64.0
1121,70.0,30.0,30.0,6.0,64.0
1122,82.0,0.0,30.0,0.0,64.0
1123,70.0,0.0,30.0,1.0,64.0
1124,82.0,0.0,30.0,5.0,64.0
1125,68.0,0.0,30.0,6.0,64.0
1126,80.0,0.0,30.0,5.0,64.0
1127,68.0,0.0,30.0,1.0,64.0
1128,80.0,30.0,30.0,0.0,64.0
1129,70.0,0.0,30.0,1.0,64.0
1130,82.0,0.0,30.0,0.0,64.0
1131,82.0,0.0,30.0,5.0,64.0
1132,70.0,30.0,30.0,6.0,64.0
1133,80.0,0.0,30.0,5.0,64.0
1134,68.0,0.0,30.0,1.0,64.0
1135,68.0,0.0,15.0,6.0,64.0
1136,68.0,0.0,30.0,1.0,64.0
1137,80.0,30.0,15.0,0.0,64.0
1138,80.0,0.0,30.0,5.0,64.0
1139,70.0,0.0,30.0,1.0,64.0
1140,82.0,0.0,30.0,5.0,64.0
1141,82.0,25.0,30.0,0.0,64.0
1142,70.0,0.0,30.0,6.0,64.0
1143,80.0,0.0,30.0,0.0,64.0
1144,68.0,30.0,30.0,6.0,64.0
1145,80.0,0.0,30.0,5.0,64.0
1146,68.0,0.0,30.0,1.0,64.0
1147,82.0,0.0,30.0,0.0,64.0
1148,49.0,0.0,240.0,8.0,64.0
1149,37.0,0.0,240.0,4.0,64.0
1150,82.0,30.0,30.0,5.0,64.0
1151,49.0,0.0,240.0,3.0,64.0
1152,70.0,0.0,30.0,1.0,64.0
1153,37.0,5.0,240.0,10.0,64.0
1154,70.0,0.0,30.0,6.0,64.0
1155,68.0,0.0,30.0,1.0,64.0
1156,80.0,30.0,30.0,5.0,64.0
1157,80.0,0.0,30.0,0.0,64.0
1158,68.0,0.0,30.0,6.0,64.0
1159,70.0,0.0,30.0,1.0,64.0
1160,82.0,0.0,30.0,5.0,64.0
1161,82.0,30.0,30.0,0.0,64.0
1162,70.0,0.0,15.0,6.0,64.0
1163,70.0,0.0,30.0,1.0,64.0
1164,82.0,0.0,30.0,5.0,64.0
1165,82.0,0.0,30.0,0.0,64.0
1166,66.0,0.0,60.0,1.0,64.0
1167,66.0,0.0,60.0,6.0,64.0
1168,78.0,0.0,60.0,0.0,64.0
1169,78.0,55.0,60.0,5.0,64.0
1170,80.0,0.0,60.0,0.0,64.0
1171,68.0,0.0,60.0,6.0,64.0
1172,80.0,0.0,60.0,5.0,64.0
1173,68.0,0.0,60.0,1.0,64.0
1174,61.0,0.0,390.0,7.0,64.0
1175,46.0,45.0,390.0,8.0,64.0
1176,46.0,0.0,390.0,3.0,64.0
1177,34.0,0.0,390.0,4.0,64.0
1178,34.0,0.0,390.0,10.0,64.0
1179,61.0,0.0,390.0,2.0,64.0
1180,66.0,55.0,120.0,6.0,64.0
1181,78.0,0.0,120.0,5.0,64.0
1182,78.0,0.0,120.0,0.0,64.0
1183,66.0,0.0,120.0,1.0,64.0
1184,77.0,0.0,60.0,5.0,64.0
1185,77.0,0.0,60.0,0.0,64.0
1186,65.0,105.0,60.0,6.0,64.0
1187,65.0,0.0,60.0,1.0,64.0
1188,66.0,0.0,90.0,6.0,64.0
1189,78.0,0.0,90.0,0.0,64.0
1190,66.0,155.0,90.0,1.0,64.0
1191,78.0,0.0,90.0,5.0,64.0
1192,80.0,55.0,120.0,0.0,64.0
1193,68.0,0.0,120.0,6.0,64.0
1194,80.0,0.0,120.0,5.0,64.0
1195,68.0,0.0,120.0,1.0,64.0
1196,66.0,0.0,60.0,6.0,64.0
1197,78.0,185.0,60.0,5.0,64.0
1198,78.0,0.0,60.0,0.0,64.0
1199,66.0,0.0,60.0,1.0,64.0
1200,70.0,0.0,120.0,1.0,64.0
1201,70.0,55.0,120.0,6.0,64.0
1202,82.0,0.0,120.0,0.0,64.0
1203,82.0,0.0,120.0,5.0,64.0
1204,68.0,185.0,60.0,1.0,64.0
1205,80.0,0.0,60.0,0.0,64.0
1206,80.0,0.0,60.0,5.0,64.0
1207,68.0,0.0,60.0,6.0,64.0
1208,71.0,55.0,120.0,1.0,64.0
1209,83.0,0.0,120.0,0.0,64.0
1210,83.0,0.0,120.0,5.0,64.0
1211,71.0,0.0,120.0,6.0,64.0
1212,70.0,185.0,60.0,6.0,64.0
1213,82.0,0.0,60.0,0.0,64.0
1214,82.0,0.0,60.0,5.0,64.0
1215,70.0,0.0,60.0,1.0,64.0
1216,80.0,0.0,120.0,0.0,64.0
1217,68.0,0.0,120.0,6.0,64.0
1218,80.0,115.0,120.0,5.0,64.0
1219,68.0,0.0,120.0,1.0,64.0
1220,67.0,0.0,120.0,6.0,64.0
1221,79.0,0.0,120.0,5.0,64.0
1222,79.0,0.0,120.0,0.0,64.0
1223,67.0,245.0,120.0,1.0,64.0
1224,47.0,0.0,390.0,3.0,64.0
1225,35.0,40.0,390.0,10.0,64.0
1226,63.0,0.0,390.0,7.0,64.0
1227,63.0,0.0,390.0,2.0,64.0
1228,35.0,0.0,390.0,4.0,64.0
1229,47.0,0.0,390.0,8.0,64.0
1230,68.0,0.0,120.0,6.0,64.0
1231,80.0,0.0,120.0,0.0,64.0
1232,80.0,0.0,120.0,5.0,64.0
1233,68.0,80.0,120.0,1.0,64.0
1234,67.0,0.0,90.0,1.0,64.0
1235,79.0,80.0,90.0,0.0,64.0
1236,79.0,0.0,90.0,5.0,64.0
1237,67.0,0.0,90.0,6.0,64.0
1238,80.0,160.0,90.0,5.0,64.0
1239,80.0,0.0,90.0,0.0,64.0
1240,68.0,0.0,90.0,1.0,64.0
1241,68.0,0.0,90.0,6.0,64.0
1242,82.0,0.0,120.0,0.0,64.0
1243,82.0,55.0,120.0,5.0,64.0
1244,70.0,0.0,120.0,1.0,64.0
1245,70.0,0.0,120.0,6.0,64.0
1246,68.0,0.0,60.0,1.0,64.0
1247,68.0,185.0,60.0,6.0,64.0
1248,80.0,0.0,60.0,0.0,64.0
1249,80.0,0.0,60.0,5.0,64.0
1250,71.0,0.0,120.0,1.0,64.0
1251,71.0,0.0,120.0,6.0,64.0
1252,83.0,55.0,120.0,5.0,64.0
1253,83.0,0.0,120.0,0.0,64.0
1254,70.0,0.0,60.0,6.0,64.0
1255,82.0,0.0,60.0,0.0,64.0
1256,82.0,0.0,60.0,5.0,64.0
1257,70.0,185.0,60.0,1.0,64.0
1258,68.0,75.0,390.0,7.0,64.0
1259,53.0,0.0,390.0,8.0,64.0
1260,68.0,0.0,390.0,2.0,64.0
1261,85.0,55.0,120.0,0.0,64.0
1262,73.0,0.0,120.0,6.0,64.0
1263,41.0,0.0,390.0,10.0,64.0
1264,41.0,240.0,480.0,4.0,64.0
1265,73.0,0.0,120.0,1.0,64.0
1266,53.0,0.0,480.0,3.0,64.0
1267,85.0,0.0,120.0,5.0,64.0
1268,83.0,0.0,60.0,0.0,64.0
1269,83.0,0.0,60.0,5.0,64.0
1270,71.0,0.0,60.0,6.0,64.0
1271,71.0,185.0,60.0,1.0,64.0
1272,82.0,0.0,120.0,0.0,64.0
1273,82.0,40.0,120.0,5.0,64.0
1274,70.0,0.0,120.0,6.0,64.0
1275,70.0,0.0,120.0,1.0,64.0
1276,68.0,0.0,120.0,1.0,64.0
1277,68.0,0.0,120.0,6.0,64.0
1278,80.0,5.0,120.0,5.0,64.0
1279,80.0,0.0,120.0,0.0,64.0
1280,54.0,0.0,390.0,3.0,64.0
1281,42.0,0.0,390.0,10.0,64.0
1282,42.0,40.0,390.0,4.0,64.0
1283,54.0,0.0,390.0,8.0,64.0
1284,66.0,0.0,120.0,7.0,64.0
1285,82.0,0.0,120.0,5.0,64.0
1286,82.0,0.0,120.0,0.0,64.0
1287,70.0,80.0,120.0,6.0,64.0
1288,70.0,0.0,120.0,1.0,64.0
1289,66.0,0.0,120.0,2.0,64.0
1290,71.0,0.0,90.0,1.0,64.0
1291,83.0,0.0,90.0,5.0,64.0
1292,83.0,0.0,90.0,0.0,64.0
1293,68.0,80.0,90.0,2.0,64.0
1294,68.0,0.0,90.0,7.0,64.0
1295,71.0,0.0,90.0,6.0,64.0
1296,83.0,0.0,90.0,5.0,64.0
1297,68.0,0.0,90.0,7.0,64.0
1298,71.0,0.0,90.0,6.0,64.0
1299,68.0,0.0,90.0,2.0,64.0
1300,83.0,0.0,90.0,0.0,64.0
1301,71.0,120.0,90.0,1.0,64.0
1302,73.0,0.0,90.0,1.0,64.0
1303,70.0,120.0,90.0,2.0,64.0
1304,70.0,0.0,90.0,7.0,64.0
1305,85.0,0.0,90.0,0.0,64.0
1306,85.0,0.0,90.0,5.0,64.0
1307,73.0,0.0,90.0,6.0,64.0
1308,85.0,0.0,90.0,0.0,64.0
1309,73.0,0.0,90.0,1.0,64.0
1310,85.0,0.0,90.0,5.0,64.0
1311,73.0,0.0,90.0,6.0,64.0
1312,70.0,0.0,90.0,7.0,64.0
1313,70.0,120.0,90.0,2.0,64.0
1314,87.0,0.0,90.0,5.0,64.0
1315,75.0,0.0,90.0,6.0,64.0
1316,75.0,120.0,90.0,1.0,64.0
1317,87.0,0.0,90.0,0.0,64.0
1318,71.0,0.0,90.0,7.0,64.0
1319,71.0,0.0,90.0,2.0,64.0
1320,87.0,0.0,90.0,5.0,64.0
1321,71.0,120.0,90.0,2.0,64.0
1322,75.0,0.0,90.0,6.0,64.0
1323,71.0,0.0,90.0,7.0,64.0
1324,87.0,0.0,90.0,0.0,64.0
1325,75.0,0.0,90.0,1.0,64.0
1326,77.0,0.0,90.0,1.0,64.0
1327,73.0,0.0,90.0,2.0,64.0
1328,77.0,0.0,90.0,6.0,64.0
1329,89.0,120.0,90.0,0.0,64.0
1330,89.0,0.0,90.0,5.0,64.0
1331,73.0,0.0,90.0,7.0,64.0
1332,73.0,0.0,90.0,7.0,64.0
1333,77.0,0.0,90.0,6.0,64.0
1334,89.0,0.0,90.0,5.0,64.0
1335,77.0,0.0,90.0,1.0,64.0
1336,89.0,0.0,90.0,0.0,64.0
1337,73.0,120.0,90.0,2.0,64.0
1338,75.0,0.0,90.0,7.0,64.0
1339,78.0,0.0,90.0,6.0,64.0
1340,90.0,0.0,90.0,0.0,64.0
1341,75.0,0.0,90.0,2.0,64.0
1342,78.0,120.0,90.0,1.0,64.0
1343,90.0,0.0,90.0,5.0,64.0
1344,75.0,0.0,90.0,7.0,64.0
1345,75.0,0.0,90.0,2.0,64.0
1346,78.0,0.0,90.0,6.0,64.0
1347,90.0,160.0,90.0,0.0,64.0
1348,90.0,0.0,90.0,5.0,64.0
1349,78.0,0.0,90.0,1.0,64.0
1350,89.0,0.0,120.0,5.0,64.0
1351,47.0,0.0,240.0,4.0,64.0
1352,73.0,115.0,120.0,7.0,64.0
1353,59.0,0.0,240.0,3.0,64.0
1354,47.0,0.0,240.0,10.0,64.0
1355,59.0,0.0,240.0,8.0,64.0
1356,73.0,0.0,120.0,2.0,64.0
1357,89.0,0.0,120.0,0.0,64.0
1358,77.0,0.0,120.0,1.0,64.0
1359,77.0,0.0,120.0,6.0,64.0
1360,75.0,5.0,120.0,6.0,64.0
1361,71.0,0.0,120.0,2.0,64.0
1362,87.0,0.0,120.0,0.0,64.0
1363,71.0,0.0,120.0,7.0,64.0
1364,87.0,120.0,120.0,5.0,64.0
1365,75.0,0.0,120.0,1.0,64.0
1366,70.0,0.0,120.0,2.0,64.0
1367,85.0,115.0,120.0,0.0,64.0
1368,70.0,0.0,120.0,7.0,64.0
1369,73.0,0.0,120.0,6.0,64.0
1370,73.0,0.0,120.0,1.0,64.0
1371,47.0,0.0,240.0,4.0,64.0
1372,85.0,0.0,120.0,5.0,64.0
1373,59.0,0.0,240.0,3.0,64.0
1374,59.0,0.0,240.0,8.0,64.0
1375,47.0,5.0,240.0,10.0,64.0
1376,71.0,0.0,120.0,6.0,64.0
1377,83.0,0.0,120.0,5.0,64.0
1378,68.0,0.0,120.0,2.0,64.0
1379,68.0,0.0,120.0,7.0,64.0
1380,71.0,235.0,120.0,1.0,64.0
1381,83.0,0.0,120.0,0.0,64.0
1382,82.0,30.0,480.0,0.0,64.0
1383,66.0,0.0,390.0,7.0,64.0
1384,49.0,0.0,240.0,10.0,64.0
1385,82.0,0.0,480.0,5.0,64.0
1386,61.0,0.0,240.0,3.0,64.0
1387,61.0,0.0,240.0,8.0,64.0
1388,70.0,0.0,480.0,1.0,64.0
1389,70.0,75.0,390.0,6.0,64.0
1390,49.0,165.0,240.0,4.0,64.0
1391,66.0,0.0,480.0,2.0,64.0
1392,61.0,0.0,240.0,3.0,64.0
1393,49.0,0.0,240.0,4.0,64.0
1394,49.0,5.0,240.0,10.0,64.0
1395,61.0,0.0,240.0,8.0,64.0
1396,65.0,0.0,480.0,2.0,64.0
1397,49.0,0.0,240.0,8.0,64.0
1398,49.0,0.0,240.0,3.0,64.0
1399,68.0,0.0,30.0,6.0,64.0
1400,68.0,30.0,30.0,1.0,64.0
1401,80.0,0.0,30.0,5.0,64.0
1402,37.0,0.0,240.0,4.0,64.0
1403,65.0,20.0,390.0,7.0,64.0
1404,37.0,5.0,240.0,10.0,64.0
1405,80.0,0.0,30.0,0.0,64.0
1406,82.0,0.0,30.0,0.0,64.0
1407,70.0,30.0,30.0,1.0,64.0
1408,70.0,0.0,30.0,6.0,64.0
1409,82.0,0.0,30.0,5.0,64.0
1410,68.0,0.0,30.0,6.0,64.0
1411,80.0,0.0,30.0,5.0,64.0
1412,80.0,30.0,30.0,0.0,64.0
1413,68.0,0.0,30.0,1.0,64.0
1414,82.0,0.0,30.0,0.0,64.0
1415,82.0,0.0,30.0,5.0,64.0
1416,70.0,0.0,30.0,6.0,64.0
1417,70.0,30.0,30.0,1.0,64.0
1418,80.0,30.0,30.0,5.0,64.0
1419,68.0,0.0,30.0,6.0,64.0
1420,68.0,0.0,30.0,1.0,64.0
1421,80.0,0.0,30.0,0.0,64.0
1422,82.0,0.0,30.0,0.0,64.0
1423,82.0,30.0,30.0,5.0,64.0
1424,70.0,0.0,30.0,6.0,64.0
1425,70.0,0.0,30.0,1.0,64.0
1426,68.0,0.0,30.0,1.0,64.0
1427,68.0,0.0,30.0,6.0,64.0
1428,80.0,25.0,30.0,5.0,64.0
1429,80.0,0.0,30.0,0.0,64.0
1430,70.0,0.0,30.0,6.0,64.0
1431,82.0,0.0,30.0,5.0,64.0
1432,70.0,30.0,30.0,1.0,64.0
1433,82.0,0.0,30.0,0.0,64.0
1434,37.0,0.0,240.0,10.0,64.0
1435,49.0,5.0,240.0,8.0,64.0
1436,68.0,0.0,30.0,6.0,64.0
1437,49.0,0.0,240.0,3.0,64.0
1438,37.0,0.0,240.0,4.0,64.0
1439,80.0,0.0,30.0,0.0,64.0
1440,68.0,30.0,30.0,1.0,64.0
1441,80.0,0.0,30.0,5.0,64.0
1442,70.0,30.0,30.0,6.0,64.0
1443,82.0,0.0,30.0,0.0,64.0
1444,70.0,0.0,30.0,1.0,64.0
1445,82.0,0.0,30.0,5.0,64.0
1446,68.0,30.0,30.0,6.0,64.0
1447,80.0,0.0,30.0,0.0,64.0
1448,68.0,0.0,30.0,1.0,64.0
1449,80.0,0.0,30.0,5.0,64.0
1450,82.0,0.0,30.0,5.0,64.0
1451,70.0,30.0,30.0,6.0,64.0
1452,82.0,0.0,30.0,0.0,64.0
1453,70.0,0.0,30.0,1.0,64.0
1454,80.0,0.0,30.0,0.0,64.0
1455,68.0,0.0,30.0,1.0,64.0
1456,80.0,10.0,30.0,5.0,64.0
1457,68.0,0.0,30.0,6.0,64.0
1458,82.0,0.0,30.0,5.0,64.0
1459,70.0,0.0,30.0,1.0,64.0
1460,82.0,30.0,30.0,0.0,64.0
1461,70.0,0.0,30.0,6.0,64.0
1462,66.0,25.0,30.0,6.0,64.0
1463,78.0,0.0,30.0,0.0,64.0
1464,78.0,0.0,30.0,5.0,64.0
1465,66.0,0.0,30.0,1.0,64.0
1466,80.0,0.0,30.0,5.0,64.0
1467,68.0,235.0,30.0,1.0,64.0
1468,80.0,0.0,30.0,0.0,64.0
1469,68.0,0.0,30.0,6.0,64.0
1470,66.0,0.0,630.0,2.0,64.0
1471,70.0,165.0,240.0,6.0,64.0
1472,78.0,0.0,240.0,5.0,64.0
1473,54.0,240.0,390.0,3.0,64.0
1474,42.0,0.0,390.0,4.0,64.0
1475,70.0,0.0,240.0,1.0,64.0
1476,42.0,0.0,390.0,10.0,64.0
1477,66.0,240.0,630.0,7.0,64.0
1478,78.0,0.0,240.0,0.0,64.0
1479,54.0,0.0,390.0,8.0,64.0
1480,85.0,0.0,630.0,0.0,64.0
1481,85.0,0.0,630.0,5.0,64.0
1482,73.0,0.0,630.0,1.0,64.0
1483,73.0,75.0,630.0,6.0,64.0
1484,30.0,0.0,390.0,10.0,64.0
1485,42.0,0.0,390.0,8.0,64.0
1486,30.0,0.0,480.0,4.0,64.0
1487,42.0,0.0,480.0,3.0,64.0
1488,66.0,80.0,240.0,2.0,64.0
1489,66.0,5.0,240.0,7.0,64.0
1490,83.0,80.0,90.0,5.0,64.0
1491,37.0,0.0,480.0,4.0,64.0
1492,49.0,0.0,480.0,3.0,64.0
1493,73.0,0.0,720.0,1.0,64.0
1494,83.0,0.0,90.0,0.0,64.0
1495,65.0,0.0,240.0,2.0,64.0
1496,37.0,75.0,390.0,10.0,64.0
1497,73.0,0.0,720.0,6.0,64.0
1498,49.0,0.0,390.0,8.0,64.0
1499,65.0,5.0,240.0,7.0,64.0
1500,82.0,0.0,90.0,0.0,64.0
1501,82.0,75.0,90.0,5.0,64.0
1502,80.0,80.0,90.0,5.0,64.0
1503,80.0,0.0,90.0,0.0,64.0
1504,68.0,40.0,120.0,7.0,64.0
1505,68.0,0.0,120.0,2.0,64.0
1506,78.0,0.0,90.0,0.0,64.0
1507,78.0,40.0,90.0,5.0,64.0
1508,80.0,0.0,90.0,0.0,64.0
1509,80.0,0.0,90.0,5.0,64.0
1510,71.0,5.0,120.0,7.0,64.0
1511,71.0,0.0,120.0,2.0,64.0
1512,77.0,0.0,90.0,0.0,64.0
1513,77.0,235.0,90.0,5.0,64.0
1514,54.0,0.0,390.0,3.0,64.0
1515,70.0,0.0,390.0,7.0,64.0
1516,78.0,165.0,240.0,0.0,64.0
1517,42.0,80.0,390.0,10.0,64.0
1518,42.0,0.0,390.0,4.0,64.0
1519,78.0,0.0,240.0,5.0,64.0
1520,54.0,0.0,390.0,8.0,64.0
1521,70.0,0.0,390.0,2.0,64.0
1522,70.0,235.0,240.0,6.0,64.0
1523,73.0,0.0,720.0,5.0,64.0
1524,73.0,0.0,720.0,0.0,64.0
1525,70.0,0.0,240.0,1.0,64.0
1526,46.0,75.0,390.0,8.0,64.0
1527,61.0,160.0,240.0,2.0,64.0
1528,34.0,0.0,480.0,4.0,64.0
1529,66.0,0.0,240.0,6.0,64.0
1530,61.0,0.0,240.0,7.0,64.0
1531,46.0,0.0,480.0,3.0,64.0
1532,66.0,5.0,240.0,1.0,64.0
1533,34.0,0.0,390.0,10.0,64.0
1534,58.0,0.0,240.0,7.0,64.0
1535,61.0,5.0,240.0,6.0,64.0
1536,58.0,0.0,240.0,2.0,64.0
1537,71.0,0.0,90.0,5.0,64.0
1538,61.0,80.0,15.0,1.0,64.0
1539,61.0,75.0,390.0,6.0,64.0
1540,56.0,0.0,240.0,2.0,64.0
1541,37.0,0.0,390.0,10.0,64.0
1542,56.0,0.0,240.0,7.0,64.0
1543,71.0,80.0,90.0,0.0,64.0
1544,37.0,0.0,480.0,4.0,64.0
1545,49.0,0.0,480.0,3.0,64.0
1546,49.0,0.0,390.0,8.0,64.0
1547,70.0,0.0,90.0,5.0,64.0
1548,70.0,80.0,90.0,0.0,64.0
1549,68.0,0.0,90.0,0.0,64.0
1550,68.0,80.0,90.0,5.0,64.0
1551,59.0,0.0,240.0,2.0,64.0
1552,66.0,80.0,90.0,0.0,64.0
1553,59.0,5.0,240.0,7.0,64.0
1554,66.0,0.0,90.0,5.0,64.0
1555,68.0,0.0,90.0,5.0,64.0
1556,68.0,0.0,90.0,0.0,64.0
1557,65.0,0.0,90.0,5.0,64.0
1558,65.0,0.0,90.0,0.0,64.0
1559,42.0,0.0,1320.0,8.0,64.0
1560,61.0,0.0,1320.0,6.0,64.0
1561,30.0,0.0,1320.0,4.0,64.0
1562,65.0,360.0,960.0,0.0,64.0
1563,65.0,0.0,960.0,5.0,64.0
1564,42.0,0.0,1320.0,3.0,64.0
1565,30.0,40.0,1320.0,10.0,64.0
1566,61.0,0.0,1320.0,1.0,64.0
1567,59.0,0.0,960.0,2.0,64.0
1568,59.0,0.0,960.0,7.0,64.0
1569,58.0,0.0,390.0,7.0,64.0
1570,66.0,0.0,390.0,5.0,64.0
1571,58.0,0.0,390.0,2.0,64.0
1572,66.0,320.0,390.0,0.0,64.0
1573,54.0,0.0,390.0,8.0,64.0
1574,61.0,0.0,120.0,2.0,64.0
1575,61.0,0.0,120.0,7.0,64.0
1576,42.0,0.0,390.0,4.0,64.0
1577,66.0,0.0,120.0,1.0,64.0
1578,54.0,0.0,390.0,3.0,64.0
1579,42.0,75.0,390.0,10.0,64.0
1580,66.0,120.0,120.0,6.0,64.0
1581,66.0,120.0,120.0,2.0,64.0
1582,70.0,0.0,120.0,1.0,64.0
1583,66.0,0.0,120.0,7.0,64.0
1584,70.0,0.0,120.0,6.0,64.0
1585,73.0,40.0,120.0,6.0,64.0
1586,70.0,0.0,120.0,2.0,64.0
1587,73.0,0.0,120.0,1.0,64.0
1588,70.0,0.0,120.0,7.0,64.0
1589,66.0,120.0,120.0,2.0,64.0
1590,70.0,0.0,120.0,1.0,64.0
1591,66.0,5.0,120.0,7.0,64.0
1592,70.0,0.0,120.0,6.0,64.0
1593,61.0,0.0,120.0,2.0,64.0
1594,66.0,120.0,120.0,1.0,64.0
1595,54.0,0.0,390.0,3.0,64.0
1596,42.0,0.0,390.0,10.0,64.0
1597,66.0,0.0,120.0,6.0,64.0
1598,42.0,0.0,390.0,4.0,64.0
1599,61.0,0.0,120.0,7.0,64.0
1600,54.0,75.0,390.0,8.0,64.0
1601,66.0,0.0,120.0,7.0,64.0
1602,70.0,0.0,120.0,6.0,64.0
1603,66.0,0.0,120.0,2.0,64.0
1604,70.0,120.0,120.0,1.0,64.0
1605,73.0,0.0,120.0,6.0,64.0
1606,73.0,0.0,120.0,1.0,64.0
1607,70.0,0.0,120.0,7.0,64.0
1608,70.0,40.0,120.0,2.0,64.0
1609,70.0,120.0,120.0,1.0,64.0
1610,66.0,5.0,120.0,7.0,64.0
1611,70.0,0.0,120.0,6.0,64.0
1612,66.0,0.0,120.0,2.0,64.0
1613,66.0,120.0,120.0,6.0,64.0
1614,61.0,0.0,120.0,2.0,64.0
1615,54.0,75.0,390.0,3.0,64.0
1616,61.0,0.0,120.0,7.0,64.0
1617,66.0,0.0,120.0,1.0,64.0
1618,42.0,0.0,390.0,10.0,64.0
1619,42.0,0.0,390.0,4.0,64.0
1620,54.0,0.0,390.0,8.0,64.0
1621,66.0,0.0,120.0,7.0,64.0
1622,70.0,120.0,120.0,6.0,64.0
1623,70.0,0.0,120.0,1.0,64.0
1624,66.0,0.0,120.0,2.0,64.0
1625,70.0,0.0,120.0,7.0,64.0
1626,73.0,0.0,120.0,6.0,64.0
1627,73.0,40.0,120.0,1.0,64.0
1628,70.0,0.0,120.0,2.0,64.0
1629,66.0,5.0,120.0,7.0,64.0
1630,70.0,0.0,120.0,6.0,64.0
1631,66.0,120.0,120.0,2.0,64.0
1632,70.0,0.0,120.0,1.0,64.0
1633,52.0,0.0,390.0,8.0,64.0
1634,40.0,0.0,390.0,4.0,64.0
1635,85.0,120.0,960.0,0.0,64.0
1636,61.0,0.0,120.0,7.0,64.0
1637,85.0,0.0,960.0,5.0,64.0
1638,66.0,120.0,120.0,6.0,64.0
1639,40.0,0.0,390.0,10.0,64.0
1640,66.0,0.0,120.0,1.0,64.0
1641,61.0,0.0,120.0,2.0,64.0
1642,52.0,75.0,390.0,3.0,64.0
1643,70.0,0.0,120.0,6.0,64.0
1644,66.0,0.0,120.0,7.0,64.0
1645,70.0,0.0,120.0,1.0,64.0
1646,66.0,120.0,120.0,2.0,64.0
1647,70.0,0.0,120.0,7.0,64.0
1648,73.0,0.0,120.0,6.0,64.0
1649,70.0,0.0,120.0,2.0,64.0
1650,73.0,40.0,120.0,1.0,64.0
1651,66.0,0.0,120.0,7.0,64.0
1652,66.0,0.0,120.0,2.0,64.0
1653,70.0,120.0,120.0,1.0,64.0
1654,70.0,5.0,120.0,6.0,64.0
1655,52.0,0.0,390.0,3.0,64.0
1656,40.0,0.0,390.0,4.0,64.0
1657,66.0,0.0,120.0,6.0,64.0
1658,61.0,0.0,120.0,2.0,64.0
1659,61.0,120.0,120.0,7.0,64.0
1660,66.0,0.0,120.0,1.0,64.0
1661,40.0,0.0,390.0,10.0,64.0
1662,52.0,75.0,390.0,8.0,64.0
1663,70.0,120.0,120.0,6.0,64.0
1664,70.0,0.0,120.0,1.0,64.0
1665,66.0,0.0,120.0,2.0,64.0
1666,66.0,0.0,120.0,7.0,64.0
1667,70.0,40.0,120.0,2.0,64.0
1668,70.0,0.0,120.0,7.0,64.0
1669,73.0,0.0,120.0,1.0,64.0
1670,73.0,0.0,120.0,6.0,64.0
1671,70.0,0.0,120.0,6.0,64.0
1672,66.0,5.0,120.0,7.0,64.0
1673,70.0,0.0,120.0,1.0,64.0
1674,66.0,0.0,120.0,2.0,64.0
1675,83.0,0.0,120.0,5.0,64.0
1676,61.0,0.0,120.0,7.0,64.0
1677,52.0,0.0,390.0,3.0,64.0
1678,66.0,0.0,120.0,1.0,64.0
1679,83.0,0.0,120.0,0.0,64.0
1680,40.0,0.0,390.0,10.0,64.0
1681,66.0,120.0,120.0,6.0,64.0
1682,40.0,0.0,390.0,4.0,64.0
1683,61.0,0.0,120.0,2.0,64.0
1684,52.0,75.0,390.0,8.0,64.0
1685,70.0,0.0,120.0,1.0,64.0
1686,66.0,0.0,120.0,2.0,64.0
1687,82.0,0.0,120.0,0.0,64.0
1688,70.0,0.0,120.0,6.0,64.0
1689,66.0,120.0,120.0,7.0,64.0
1690,82.0,0.0,120.0,5.0,64.0
1691,73.0,0.0,120.0,6.0,64.0
1692,70.0,40.0,120.0,2.0,64.0
1693,80.0,0.0,120.0,5.0,64.0
1694,70.0,0.0,120.0,7.0,64.0
1695,80.0,0.0,120.0,0.0,64.0
1696,73.0,0.0,120.0,1.0,64.0
1697,70.0,0.0,120.0,1.0,64.0
1698,78.0,0.0,120.0,5.0,64.0
1699,66.0,5.0,120.0,7.0,64.0
1700,70.0,0.0,120.0,6.0,64.0
1701,78.0,0.0,120.0,0.0,64.0
1702,66.0,120.0,120.0,2.0,64.0
1703,66.0,120.0,120.0,1.0,64.0
1704,83.0,0.0,240.0,5.0,64.0
1705,39.0,0.0,390.0,10.0,64.0
1706,83.0,0.0,240.0,0.0,64.0
1707,39.0,0.0,390.0,4.0,64.0
1708,66.0,0.0,120.0,6.0,64.0
1709,51.0,75.0,390.0,3.0,64.0
1710,63.0,0.0,120.0,2.0,64.0
1711,51.0,0.0,390.0,8.0,64.0
1712,63.0,0.0,120.0,7.0,64.0
1713,66.0,120.0,120.0,7.0,64.0
1714,66.0,0.0,120.0,2.0,64.0
1715,71.0,0.0,120.0,6.0,64.0
1716,71.0,0.0,120.0,1.0,64.0
1717,78.0,0.0,240.0,5.0,64.0
1718,71.0,0.0,120.0,2.0,64.0
1719,78.0,5.0,240.0,0.0,64.0
1720,75.0,40.0,120.0,1.0,64.0
1721,75.0,0.0,120.0,6.0,64.0
1722,71.0,0.0,120.0,7.0,64.0
1723,66.0,0.0,120.0,7.0,64.0
1724,71.0,0.0,120.0,6.0,64.0
1725,71.0,0.0,120.0,1.0,64.0
1726,66.0,120.0,120.0,2.0,64.0
1727,39.0,0.0,390.0,10.0,64.0
1728,66.0,0.0,120.0,1.0,64.0
1729,39.0,75.0,390.0,4.0,64.0
1730,63.0,0.0,120.0,7.0,64.0
1731,78.0,0.0,390.0,0.0,64.0
1732,63.0,0.0,120.0,2.0,64.0
1733,78.0,0.0,390.0,5.0,64.0
1734,51.0,0.0,390.0,3.0,64.0
1735,66.0,120.0,120.0,6.0,64.0
1736,51.0,0.0,390.0,8.0,64.0
1737,71.0,0.0,120.0,1.0,64.0
1738,71.0,0.0,120.0,6.0,64.0
1739,66.0,0.0,120.0,7.0,64.0
1740,66.0,120.0,120.0,2.0,64.0
1741,71.0,0.0,120.0,2.0,64.0
1742,71.0,40.0,120.0,7.0,64.0
1743,75.0,0.0,120.0,1.0,64.0
1744,75.0,0.0,120.0,6.0,64.0
1745,71.0,120.0,120.0,1.0,64.0
1746,71.0,0.0,120.0,6.0,64.0
1747,66.0,5.0,120.0,7.0,64.0
1748,66.0,0.0,120.0,2.0,64.0
1749,51.0,0.0,390.0,8.0,64.0
1750,39.0,0.0,390.0,4.0,64.0
1751,63.0,0.0,120.0,7.0,64.0
1752,63.0,0.0,120.0,2.0,64.0
1753,51.0,0.0,390.0,3.0,64.0
1754,66.0,0.0,120.0,6.0,64.0
1755,39.0,75.0,390.0,10.0,64.0
1756,66.0,120.0,120.0,1.0,64.0
1757,66.0,120.0,120.0,7.0,64.0
1758,66.0,0.0,120.0,2.0,64.0
1759,71.0,0.0,120.0,6.0,64.0
1760,71.0,0.0,120.0,1.0,64.0
1761,75.0,0.0,120.0,6.0,64.0
1762,75.0,0.0,120.0,1.0,64.0
1763,78.0,0.0,240.0,5.0,64.0
1764,71.0,40.0,120.0,2.0,64.0
1765,78.0,0.0,240.0,0.0,64.0
1766,71.0,0.0,120.0,7.0,64.0
1767,66.0,0.0,120.0,7.0,64.0
1768,71.0,0.0,120.0,1.0,64.0
1769,71.0,5.0,120.0,6.0,64.0
1770,66.0,120.0,120.0,2.0,64.0
1771,68.0,115.0,120.0,1.0,64.0
1772,37.0,0.0,390.0,4.0,64.0
1773,49.0,75.0,390.0,8.0,64.0
1774,68.0,0.0,120.0,6.0,64.0
1775,37.0,0.0,390.0,10.0,64.0
1776,76.0,0.0,240.0,5.0,64.0
1777,76.0,5.0,240.0,0.0,64.0
1778,61.0,40.0,840.0,7.0,64.0
1779,49.0,0.0,390.0,3.0,64.0
1780,61.0,0.0,960.0,2.0,64.0
1781,73.0,0.0,120.0,6.0,64.0
1782,73.0,120.0,120.0,1.0,64.0
1783,76.0,0.0,120.0,1.0,64.0
1784,88.0,0.0,480.0,5.0,64.0
1785,76.0,40.0,120.0,6.0,64.0
1786,88.0,5.0,480.0,0.0,64.0
1787,68.0,5.0,120.0,6.0,64.0
1788,68.0,120.0,120.0,1.0,64.0
1789,37.0,0.0,390.0,4.0,64.0
1790,49.0,75.0,390.0,3.0,64.0
1791,37.0,0.0,390.0,10.0,64.0
1792,66.0,0.0,120.0,1.0,64.0
1793,66.0,115.0,120.0,6.0,64.0
1794,49.0,0.0,390.0,8.0,64.0
1795,70.0,0.0,120.0,6.0,64.0
1796,70.0,120.0,120.0,1.0,64.0
1797,85.0,120.0,240.0,0.0,64.0
1798,85.0,0.0,240.0,5.0,64.0
1799,76.0,0.0,120.0,1.0,64.0
1800,76.0,0.0,120.0,6.0,64.0
1801,70.0,0.0,120.0,1.0,64.0
1802,70.0,5.0,120.0,6.0,64.0
1803,58.0,0.0,390.0,7.0,64.0
1804,30.0,0.0,390.0,10.0,64.0
1805,58.0,0.0,480.0,2.0,64.0
1806,66.0,120.0,120.0,1.0,64.0
1807,82.0,120.0,240.0,0.0,64.0
1808,66.0,0.0,120.0,6.0,64.0
1809,42.0,75.0,390.0,8.0,64.0
1810,42.0,0.0,390.0,3.0,64.0
1811,30.0,0.0,390.0,4.0,64.0
1812,82.0,0.0,240.0,5.0,64.0
1813,70.0,0.0,120.0,6.0,64.0
1814,70.0,0.0,120.0,1.0,64.0
1815,73.0,40.0,120.0,1.0,64.0
1816,73.0,0.0,120.0,6.0,64.0
1817,76.0,0.0,240.0,5.0,64.0
1818,61.0,5.0,120.0,6.0,64.0
1819,61.0,120.0,120.0,1.0,64.0
1820,76.0,0.0,15.0,0.0,64.0
1821,59.0,315.0,1830.0,7.0,64.0
1822,35.0,0.0,390.0,10.0,64.0
1823,76.0,0.0,120.0,5.0,64.0
1824,47.0,75.0,390.0,8.0,64.0
1825,35.0,0.0,390.0,4.0,64.0
1826,59.0,0.0,1830.0,2.0,64.0
1827,59.0,0.0,120.0,1.0,64.0
1828,59.0,120.0,120.0,6.0,64.0
1829,47.0,0.0,390.0,3.0,64.0
1830,63.0,0.0,120.0,1.0,64.0
1831,75.0,0.0,120.0,0.0,64.0
1832,63.0,120.0,120.0,6.0,64.0
1833,75.0,0.0,120.0,5.0,64.0
1834,66.0,0.0,120.0,1.0,64.0
1835,80.0,0.0,120.0,5.0,64.0
1836,80.0,40.0,120.0,0.0,64.0
1837,66.0,0.0,120.0,6.0,64.0
1838,78.0,0.0,120.0,5.0,64.0
1839,63.0,0.0,120.0,6.0,64.0
1840,78.0,5.0,120.0,0.0,64.0
1841,63.0,120.0,120.0,1.0,64.0
1842,47.0,0.0,390.0,3.0,64.0
1843,78.0,75.0,390.0,0.0,64.0
1844,47.0,0.0,390.0,8.0,64.0
1845,78.0,0.0,390.0,5.0,64.0
1846,35.0,0.0,390.0,10.0,64.0
1847,59.0,0.0,120.0,1.0,64.0
1848,59.0,120.0,120.0,6.0,64.0
1849,35.0,0.0,390.0,4.0,64.0
1850,63.0,0.0,120.0,1.0,64.0
1851,63.0,120.0,120.0,6.0,64.0
1852,66.0,0.0,120.0,1.0,64.0
1853,66.0,40.0,120.0,6.0,64.0
1854,63.0,120.0,120.0,1.0,64.0
1855,63.0,5.0,120.0,6.0,64.0
1856,59.0,0.0,120.0,6.0,64.0
1857,59.0,120.0,120.0,1.0,64.0
1858,39.0,75.0,390.0,10.0,64.0
1859,39.0,0.0,390.0,4.0,64.0
1860,51.0,0.0,390.0,3.0,64.0
1861,51.0,0.0,390.0,8.0,64.0
1862,66.0,120.0,120.0,6.0,64.0
1863,66.0,0.0,120.0,1.0,64.0
1864,81.0,235.0,240.0,0.0,64.0
1865,71.0,0.0,120.0,1.0,64.0
1866,71.0,40.0,120.0,6.0,64.0
1867,81.0,0.0,240.0,5.0,64.0
1868,66.0,5.0,120.0,6.0,64.0
1869,66.0,0.0,120.0,1.0,64.0
1870,40.0,0.0,390.0,4.0,64.0
1871,52.0,0.0,390.0,8.0,64.0
1872,52.0,0.0,390.0,3.0,64.0
1873,40.0,0.0,390.0,10.0,64.0
1874,80.0,0.0,240.0,5.0,64.0
1875,68.0,0.0,240.0,6.0,64.0
1876,68.0,0.0,240.0,1.0,64.0
1877,80.0,165.0,240.0,0.0,64.0
1878,80.0,0.0,480.0,1.0,64.0
1879,80.0,0.0,480.0,6.0,64.0
1880,88.0,165.0,480.0,5.0,64.0
1881,88.0,0.0,480.0,0.0,64.0
1882,52.0,0.0,390.0,8.0,64.0
1883,52.0,0.0,390.0,3.0,64.0
1884,40.0,0.0,390.0,10.0,64.0
1885,40.0,80.0,390.0,4.0,64.0
1886,87.0,0.0,240.0,0.0,64.0
1887,78.0,235.0,240.0,1.0,64.0
1888,87.0,0.0,240.0,5.0,64.0
1889,68.0,0.0,480.0,2.0,64.0
1890,78.0,0.0,240.0,6.0,64.0
1891,68.0,5.0,480.0,7.0,64.0
1892,40.0,0.0,240.0,4.0,64.0
1893,76.0,0.0,240.0,6.0,64.0
1894,85.0,0.0,240.0,0.0,64.0
1895,52.0,0.0,240.0,8.0,64.0
1896,52.0,235.0,240.0,3.0,64.0
1897,85.0,0.0,240.0,5.0,64.0
1898,40.0,0.0,240.0,10.0,64.0
1899,76.0,0.0,240.0,1.0,64.0
1900,68.0,0.0,240.0,7.0,64.0
1901,75.0,0.0,240.0,1.0,64.0
1902,75.0,0.0,240.0,6.0,64.0
1903,53.0,5.0,240.0,8.0,64.0
1904,41.0,0.0,240.0,10.0,64.0
1905,41.0,0.0,240.0,4.0,64.0
1906,53.0,0.0,240.0,3.0,64.0
1907,68.0,0.0,240.0,2.0,64.0
1908,42.0,0.0,390.0,10.0,64.0
1909,66.0,0.0,390.0,7.0,64.0
1910,42.0,20.0,390.0,4.0,64.0
1911,66.0,0.0,390.0,2.0,64.0
1912,75.0,0.0,30.0,6.0,64.0
1913,75.0,30.0,30.0,1.0,64.0
1914,54.0,0.0,390.0,3.0,64.0
1915,83.0,0.0,15.0,5.0,64.0
1916,83.0,30.0,15.0,0.0,64.0
1917,54.0,0.0,390.0,8.0,64.0
1918,85.0,0.0,30.0,5.0,64.0
1919,76.0,30.0,30.0,6.0,64.0
1920,85.0,0.0,30.0,0.0,64.0
1921,76.0,0.0,30.0,1.0,64.0
1922,75.0,0.0,30.0,1.0,64.0
1923,83.0,0.0,30.0,5.0,64.0
1924,75.0,0.0,30.0,6.0,64.0
1925,83.0,30.0,30.0,0.0,64.0
1926,76.0,0.0,30.0,6.0,64.0
1927,85.0,30.0,30.0,5.0,64.0
1928,76.0,0.0,30.0,1.0,64.0
1929,85.0,0.0,30.0,0.0,64.0
1930,75.0,0.0,30.0,1.0,64.0
1931,83.0,0.0,30.0,0.0,64.0
1932,75.0,30.0,30.0,6.0,64.0
1933,83.0,0.0,30.0,5.0,64.0
1934,85.0,0.0,30.0,5.0,64.0
1935,76.0,0.0,30.0,1.0,64.0
1936,85.0,0.0,30.0,0.0,64.0
1937,76.0,30.0,30.0,6.0,64.0
1938,83.0,30.0,30.0,5.0,64.0
1939,83.0,0.0,30.0,0.0,64.0
1940,75.0,0.0,30.0,1.0,64.0
1941,75.0,0.0,30.0,6.0,64.0
1942,76.0,0.0,30.0,6.0,64.0
1943,85.0,30.0,30.0,0.0,64.0
1944,76.0,0.0,30.0,1.0,64.0
1945,85.0,0.0,30.0,5.0,64.0
1946,75.0,30.0,30.0,1.0,64.0
1947,83.0,0.0,30.0,5.0,64.0
1948,75.0,0.0,30.0,6.0,64.0
1949,83.0,0.0,30.0,0.0,64.0
1950,85.0,0.0,30.0,0.0,64.0
1951,76.0,0.0,30.0,6.0,64.0
1952,85.0,30.0,30.0,5.0,64.0
1953,76.0,0.0,30.0,1.0,64.0
1954,75.0,0.0,30.0,1.0,64.0
1955,75.0,30.0,30.0,6.0,64.0
1956,83.0,0.0,30.0,5.0,64.0
1957,83.0,0.0,30.0,0.0,64.0
1958,76.0,0.0,30.0,6.0,64.0
1959,85.0,0.0,30.0,0.0,64.0
1960,85.0,30.0,30.0,5.0,64.0
1961,76.0,0.0,30.0,1.0,64.0
1962,75.0,0.0,30.0,6.0,64.0
1963,75.0,10.0,30.0,1.0,64.0
1964,83.0,0.0,30.0,0.0,64.0
1965,83.0,0.0,30.0,5.0,64.0
1966,85.0,0.0,30.0,5.0,64.0
1967,76.0,30.0,30.0,6.0,64.0
1968,76.0,0.0,30.0,1.0,64.0
1969,85.0,0.0,30.0,0.0,64.0
1970,82.0,0.0,30.0,5.0,64.0
1971,82.0,0.0,30.0,0.0,64.0
1972,73.0,0.0,30.0,6.0,64.0
1973,73.0,30.0,30.0,1.0,64.0
1974,83.0,235.0,30.0,5.0,64.0
1975,83.0,0.0,30.0,0.0,64.0
1976,75.0,0.0,30.0,1.0,64.0
1977,75.0,0.0,30.0,6.0,64.0
1978,82.0,245.0,240.0,5.0,64.0
1979,73.0,0.0,240.0,1.0,64.0
1980,73.0,0.0,240.0,6.0,64.0
1981,82.0,0.0,240.0,0.0,64.0
1982,68.0,0.0,240.0,2.0,64.0
1983,68.0,0.0,240.0,7.0,64.0
1984,40.0,0.0,240.0,4.0,64.0
1985,52.0,0.0,240.0,8.0,64.0
1986,52.0,240.0,240.0,3.0,64.0
1987,40.0,0.0,240.0,10.0,64.0
1988,66.0,0.0,240.0,7.0,64.0
1989,39.0,0.0,240.0,10.0,64.0
1990,51.0,235.0,240.0,8.0,64.0
1991,51.0,0.0,240.0,3.0,64.0
1992,39.0,0.0,240.0,4.0,64.0
1993,66.0,0.0,240.0,2.0,64.0
1994,64.0,0.0,240.0,2.0,64.0
1995,37.0,0.0,240.0,10.0,64.0
1996,49.0,0.0,240.0,3.0,64.0
1997,64.0,360.0,240.0,7.0,64.0
1998,49.0,0.0,240.0,8.0,64.0
1999,37.0,0.0,240.0,4.0,64.0
2000,59.0,0.0,600.0,7.0,64.0
2001,75.0,0.0,360.0,6.0,64.0
2002,78.0,65.0,360.0,0.0,64.0
2003,59.0,0.0,600.0,8.0,64.0
2004,47.0,0.0,600.0,10.0,64.0
2005,78.0,0.0,360.0,5.0,64.0
2006,75.0,0.0,360.0,1.0,64.0
2007,59.0,205.0,600.0,2.0,64.0
2008,47.0,0.0,600.0,4.0,64.0
2009,59.0,0.0,600.0,3.0,64.0
2010,75.0,60.0,60.0,0.0,64.0
2011,71.0,0.0,60.0,1.0,64.0
2012,71.0,0.0,60.0,6.0,64.0
2013,75.0,0.0,60.0,5.0,64.0
2014,76.0,0.0,60.0,5.0,64.0
2015,73.0,0.0,60.0,1.0,64.0
2016,76.0,80.0,60.0,0.0,64.0
2017,73.0,0.0,60.0,6.0,64.0
2018,78.0,0.0,90.0,5.0,64.0
2019,75.0,0.0,90.0,1.0,64.0
2020,75.0,35.0,90.0,6.0,64.0
2021,78.0,0.0,90.0,0.0,64.0
2022,78.0,0.0,90.0,5.0,64.0
2023,78.0,0.0,90.0,0.0,64.0
2024,75.0,0.0,90.0,6.0,64.0
2025,75.0,400.0,90.0,1.0,64.0
2026,75.0,0.0,240.0,1.0,64.0
2027,78.0,0.0,240.0,0.0,64.0
2028,78.0,175.0,240.0,5.0,64.0
2029,75.0,0.0,240.0,6.0,64.0
2030,83.0,0.0,180.0,0.0,64.0
2031,78.0,60.0,180.0,1.0,64.0
2032,83.0,0.0,180.0,5.0,64.0
2033,78.0,325.0,240.0,6.0,64.0
2034,47.0,285.0,600.0,3.0,64.0
2035,78.0,45.0,360.0,5.0,64.0
2036,47.0,0.0,600.0,8.0,64.0
2037,35.0,0.0,600.0,4.0,64.0
2038,75.0,35.0,330.0,1.0,64.0
2039,59.0,0.0,600.0,2.0,64.0
2040,59.0,0.0,600.0,7.0,64.0
2041,75.0,0.0,360.0,6.0,64.0
2042,78.0,0.0,330.0,0.0,64.0
2043,35.0,0.0,600.0,10.0,64.0
2044,75.0,0.0,90.0,0.0,64.0
2045,71.0,20.0,90.0,1.0,64.0
2046,75.0,60.0,60.0,5.0,64.0
2047,71.0,0.0,60.0,6.0,64.0
2048,76.0,0.0,90.0,0.0,64.0
2049,73.0,0.0,90.0,1.0,64.0
2050,76.0,115.0,60.0,5.0,64.0
2051,73.0,0.0,60.0,6.0,64.0
2052,75.0,0.0,390.0,6.0,64.0
2053,75.0,80.0,390.0,1.0,64.0
2054,78.0,0.0,390.0,0.0,64.0
2055,78.0,0.0,390.0,5.0,64.0
2056,35.0,0.0,240.0,10.0,64.0
2057,47.0,0.0,240.0,8.0,64.0
2058,63.0,0.0,240.0,2.0,64.0
2059,63.0,0.0,240.0,7.0,64.0
2060,47.0,240.0,240.0,3.0,64.0
2061,35.0,0.0,240.0,4.0,64.0
2062,37.0,0.0,240.0,4.0,64.0
2063,49.0,0.0,240.0,8.0,64.0
2064,64.0,0.0,240.0,7.0,64.0
2065,64.0,0.0,240.0,2.0,64.0
2066,49.0,235.0,240.0,3.0,64.0
2067,37.0,0.0,240.0,10.0,64.0
2068,51.0,5.0,240.0,3.0,64.0
2069,39.0,0.0,240.0,10.0,64.0
2070,51.0,120.0,240.0,8.0,64.0
2071,66.0,0.0,240.0,2.0,64.0
2072,66.0,0.0,240.0,7.0,64.0
2073,39.0,0.0,240.0,4.0,64.0
2074,68.0,120.0,480.0,7.0,64.0
2075,73.0,0.0,120.0,6.0,64.0
2076,68.0,0.0,480.0,2.0,64.0
2077,52.0,0.0,480.0,8.0,64.0
2078,40.0,0.0,480.0,10.0,64.0
2079,73.0,0.0,120.0,1.0,64.0
2080,76.0,0.0,120.0,5.0,64.0
2081,52.0,0.0,480.0,3.0,64.0
2082,40.0,0.0,480.0,4.0,64.0
2083,76.0,120.0,120.0,0.0,64.0
2084,75.0,0.0,120.0,6.0,64.0
2085,75.0,0.0,120.0,1.0,64.0
2086,78.0,120.0,120.0,5.0,64.0
2087,78.0,0.0,120.0,0.0,64.0
2088,76.0,120.0,120.0,6.0,64.0
2089,76.0,0.0,120.0,1.0,64.0
2090,80.0,0.0,120.0,5.0,64.0
2091,80.0,0.0,120.0,0.0,64.0
2092,73.0,0.0,120.0,1.0,64.0
2093,73.0,0.0,120.0,6.0,64.0
2094,76.0,0.0,120.0,0.0,64.0
2095,76.0,0.0,120.0,5.0,64.0
2096,71.0,0.0,120.0,6.0,64.0
2097,75.0,0.0,120.0,5.0,64.0
2098,54.0,0.0,480.0,8.0,64.0
2099,75.0,120.0,120.0,0.0,64.0
2100,66.0,0.0,480.0,2.0,64.0
2101,71.0,0.0,120.0,1.0,64.0
2102,76.0,0.0,120.0,0.0,64.0
2103,73.0,0.0,120.0,1.0,64.0
2104,73.0,120.0,120.0,6.0,64.0
2105,76.0,0.0,120.0,5.0,64.0
2106,75.0,0.0,120.0,6.0,64.0
2107,78.0,0.0,120.0,5.0,64.0
2108,78.0,120.0,120.0,0.0,64.0
2109,75.0,0.0,120.0,1.0,64.0
2110,71.0,120.0,120.0,6.0,64.0
2111,71.0,0.0,120.0,1.0,64.0
2112,75.0,0.0,120.0,0.0,64.0
2113,75.0,0.0,120.0,5.0,64.0
2114,73.0,0.0,120.0,5.0,64.0
2115,70.0,120.0,120.0,1.0,64.0
2116,42.0,0.0,15.0,4.0,64.0
2117,54.0,0.0,15.0,3.0,64.0
2118,54.0,0.0,480.0,8.0,64.0
2119,66.0,0.0,15.0,7.0,64.0
2120,73.0,0.0,120.0,0.0,64.0
2121,42.0,0.0,15.0,10.0,64.0
2122,66.0,0.0,480.0,2.0,64.0
2123,70.0,0.0,120.0,6.0,64.0
2124,71.0,0.0,120.0,6.0,64.0
2125,75.0,0.0,120.0,0.0,64.0
2126,71.0,0.0,120.0,1.0,64.0
2127,75.0,120.0,120.0,5.0,64.0
2128,76.0,0.0,120.0,5.0,64.0
2129,76.0,0.0,120.0,0.0,64.0
2130,73.0,0.0,120.0,1.0,64.0
2131,73.0,120.0,120.0,6.0,64.0
2132,73.0,0.0,120.0,5.0,64.0
2133,73.0,0.0,120.0,0.0,64.0
2134,70.0,0.0,120.0,6.0,64.0
2135,70.0,0.0,120.0,1.0,64.0
2136,73.0,0.0,120.0,6.0,64.0
2137,76.0,0.0,120.0,0.0,64.0
2138,68.0,0.0,120.0,2.0,64.0
2139,59.0,0.0,390.0,8.0,64.0
2140,76.0,0.0,120.0,5.0,64.0
2141,59.0,75.0,390.0,3.0,64.0
2142,47.0,0.0,390.0,10.0,64.0
2143,47.0,0.0,390.0,4.0,64.0
2144,68.0,120.0,120.0,7.0,64.0
2145,73.0,0.0,120.0,1.0,64.0
2146,66.0,115.0,120.0,7.0,64.0
2147,75.0,0.0,120.0,5.0,64.0
2148,75.0,0.0,120.0,0.0,64.0
2149,71.0,0.0,120.0,6.0,64.0
2150,66.0,0.0,120.0,2.0,64.0
2151,71.0,0.0,120.0,1.0,64.0
2152,64.0,0.0,120.0,2.0,64.0
2153,73.0,40.0,120.0,0.0,64.0
2154,70.0,0.0,120.0,6.0,64.0
2155,70.0,5.0,120.0,1.0,64.0
2156,73.0,0.0,120.0,5.0,64.0
2157,64.0,0.0,120.0,7.0,64.0
2158,71.0,0.0,120.0,5.0,64.0
2159,71.0,5.0,120.0,0.0,64.0
2160,63.0,0.0,120.0,2.0,64.0
2161,63.0,400.0,15.0,7.0,64.0
2162,63.0,80.0,390.0,2.0,64.0
2163,71.0,0.0,390.0,5.0,64.0
2164,71.0,0.0,390.0,0.0,64.0
2165,51.0,0.0,240.0,3.0,64.0
2166,39.0,0.0,240.0,4.0,64.0
2167,51.0,0.0,240.0,8.0,64.0
2168,39.0,240.0,240.0,10.0,64.0
2169,54.0,0.0,240.0,3.0,64.0
2170,42.0,0.0,240.0,4.0,64.0
2171,42.0,0.0,240.0,10.0,64.0
2172,54.0,235.0,240.0,8.0,64.0
2173,51.0,0.0,240.0,8.0,64.0
2174,39.0,0.0,240.0,10.0,64.0
2175,39.0,0.0,240.0,4.0,64.0
2176,51.0,360.0,240.0,3.0,64.0
2177,75.0,0.0,360.0,6.0,64.0
2178,47.0,0.0,600.0,3.0,64.0
2179,47.0,0.0,600.0,8.0,64.0
2180,35.0,205.0,600.0,10.0,64.0
2181,35.0,0.0,600.0,4.0,64.0
2182,78.0,0.0,360.0,5.0,64.0
2183,59.0,0.0,600.0,7.0,64.0
2184,78.0,65.0,360.0,0.0,64.0
2185,75.0,0.0,360.0,1.0,64.0
2186,59.0,0.0,600.0,2.0,64.0
2187,75.0,60.0,60.0,5.0,64.0
2188,71.0,0.0,60.0,1.0,64.0
2189,71.0,0.0,60.0,6.0,64.0
2190,75.0,0.0,60.0,0.0,64.0
2191,76.0,80.0,60.0,0.0,64.0
2192,73.0,0.0,60.0,6.0,64.0
2193,73.0,0.0,60.0,1.0,64.0
2194,76.0,0.0,60.0,5.0,64.0
2195,78.0,0.0,90.0,0.0,64.0
2196,78.0,35.0,90.0,5.0,64.0
2197,75.0,0.0,90.0,1.0,64.0
2198,75.0,0.0,90.0,6.0,64.0
2199,78.0,400.0,90.0,5.0,64.0
2200,75.0,0.0,90.0,6.0,64.0
2201,75.0,0.0,90.0,1.0,64.0
2202,78.0,0.0,90.0,0.0,64.0
2203,75.0,0.0,240.0,6.0,64.0
2204,78.0,175.0,240.0,0.0,64.0
2205,78.0,0.0,240.0,5.0,64.0
2206,75.0,0.0,240.0,1.0,64.0
2207,83.0,0.0,180.0,5.0,64.0
2208,83.0,60.0,180.0,0.0,64.0
2209,78.0,360.0,240.0,6.0,64.0
2210,78.0,0.0,180.0,1.0,64.0
2211,35.0,285.0,600.0,4.0,64.0
2212,35.0,0.0,600.0,10.0,64.0
2213,78.0,0.0,360.0,5.0,64.0
2214,78.0,0.0,360.0,0.0,64.0
2215,75.0,0.0,360.0,6.0,64.0
2216,47.0,0.0,600.0,3.0,64.0
2217,59.0,0.0,600.0,2.0,64.0
2218,75.0,65.0,360.0,1.0,64.0
2219,47.0,0.0,600.0,8.0,64.0
2220,59.0,0.0,600.0,7.0,64.0
2221,71.0,60.0,60.0,6.0,64.0
2222,75.0,0.0,60.0,0.0,64.0
2223,71.0,0.0,60.0,1.0,64.0
2224,75.0,0.0,60.0,5.0,64.0
2225,76.0,0.0,60.0,5.0,64.0
2226,73.0,0.0,60.0,1.0,64.0
2227,76.0,115.0,60.0,0.0,64.0
2228,73.0,0.0,60.0,6.0,64.0
2229,78.0,80.0,390.0,0.0,64.0
2230,75.0,0.0,390.0,1.0,64.0
2231,78.0,0.0,390.0,5.0,64.0
2232,75.0,0.0,390.0,6.0,64.0
2233,35.0,0.0,240.0,10.0,64.0
2234,63.0,0.0,240.0,7.0,64.0
2235,47.0,0.0,240.0,8.0,64.0
2236,35.0,240.0,240.0,4.0,64.0
2237,47.0,0.0,240.0,3.0,64.0
2238,63.0,0.0,240.0,2.0,64.0
2239,49.0,0.0,240.0,8.0,64.0
2240,64.0,0.0,240.0,7.0,64.0
2241,49.0,0.0,240.0,3.0,64.0
2242,37.0,0.0,240.0,10.0,64.0
2243,64.0,0.0,240.0,2.0,64.0
2244,37.0,235.0,240.0,4.0,64.0
2245,39.0,0.0,240.0,10.0,64.0
2246,66.0,0.0,240.0,2.0,64.0
2247,83.0,0.0,240.0,5.0,64.0
2248,66.0,5.0,240.0,7.0,64.0
2249,51.0,0.0,240.0,3.0,64.0
2250,39.0,0.0,240.0,4.0,64.0
2251,51.0,0.0,240.0,8.0,64.0
2252,83.0,235.0,240.0,0.0,64.0
2253,52.0,0.0,240.0,8.0,64.0
2254,59.0,0.0,240.0,7.0,64.0
2255,52.0,0.0,240.0,3.0,64.0
2256,59.0,0.0,240.0,2.0,64.0
2257,40.0,125.0,240.0,4.0,64.0
2258,82.0,0.0,240.0,0.0,64.0
2259,82.0,0.0,240.0,5.0,64.0
2260,40.0,0.0,240.0,10.0,64.0
2261,64.0,120.0,120.0,7.0,64.0
2262,80.0,0.0,390.0,5.0,64.0
2263,40.0,0.0,480.0,4.0,64.0
2264,71.0,0.0,480.0,1.0,64.0
2265,71.0,0.0,480.0,6.0,64.0
2266,52.0,0.0,480.0,3.0,64.0
2267,40.0,0.0,480.0,10.0,64.0
2268,52.0,5.0,480.0,8.0,64.0
2269,64.0,0.0,120.0,2.0,64.0
2270,80.0,75.0,390.0,0.0,64.0
2271,63.0,0.0,120.0,2.0,64.0
2272,63.0,160.0,120.0,7.0,64.0
2273,64.0,0.0,240.0,7.0,64.0
2274,64.0,120.0,240.0,2.0,64.0
2275,52.0,0.0,480.0,8.0,64.0
2276,40.0,0.0,480.0,4.0,64.0
2277,40.0,0.0,480.0,10.0,64.0
2278,64.0,120.0,240.0,7.0,64.0
2279,52.0,5.0,480.0,3.0,64.0
2280,68.0,0.0,240.0,1.0,64.0
2281,78.0,120.0,120.0,0.0,64.0
2282,78.0,0.0,120.0,5.0,64.0
2283,68.0,0.0,240.0,6.0,64.0
2284,64.0,0.0,240.0,2.0,64.0
2285,76.0,0.0,120.0,0.0,64.0
2286,76.0,0.0,120.0,5.0,64.0
2287,64.0,0.0,240.0,6.0,64.0
2288,75.0,115.0,120.0,5.0,64.0
2289,68.0,0.0,240.0,2.0,64.0
2290,75.0,0.0,120.0,0.0,64.0
2291,64.0,120.0,240.0,1.0,64.0
2292,68.0,0.0,240.0,7.0,64.0
2293,73.0,0.0,120.0,0.0,64.0
2294,73.0,0.0,120.0,5.0,64.0
2295,53.0,0.0,240.0,3.0,64.0
2296,56.0,0.0,240.0,7.0,64.0
2297,63.0,5.0,240.0,6.0,64.0
2298,73.0,115.0,120.0,0.0,64.0
2299,56.0,0.0,240.0,2.0,64.0
2300,63.0,0.0,240.0,1.0,64.0
2301,73.0,0.0,120.0,5.0,64.0
2302,41.0,0.0,240.0,4.0,64.0
2303,53.0,0.0,240.0,8.0,64.0
2304,41.0,0.0,240.0,10.0,64.0
2305,71.0,0.0,120.0,5.0,64.0
2306,71.0,120.0,120.0,0.0,64.0
2307,64.0,115.0,120.0,6.0,64.0
2308,42.0,0.0,390.0,4.0,64.0
2309,73.0,0.0,120.0,5.0,64.0
2310,64.0,0.0,120.0,1.0,64.0
2311,54.0,0.0,390.0,3.0,64.0
2312,54.0,0.0,390.0,8.0,64.0
2313,73.0,0.0,120.0,0.0,64.0
2314,54.0,75.0,390.0,2.0,64.0
2315,42.0,0.0,390.0,10.0,64.0
2316,54.0,0.0,390.0,7.0,64.0
2317,71.0,0.0,120.0,5.0,64.0
2318,71.0,120.0,120.0,0.0,64.0
2319,63.0,5.0,120.0,6.0,64.0
2320,63.0,0.0,120.0,1.0,64.0
2321,70.0,0.0,120.0,5.0,64.0
2322,61.0,40.0,120.0,1.0,64.0
2323,61.0,0.0,120.0,6.0,64.0
2324,70.0,0.0,120.0,0.0,64.0
2325,71.0,0.0,120.0,5.0,64.0
2326,59.0,235.0,120.0,1.0,64.0
2327,59.0,5.0,120.0,6.0,64.0
2328,71.0,0.0,120.0,0.0,64.0
2329,30.0,0.0,240.0,4.0,64.0
2330,61.0,0.0,390.0,6.0,64.0
2331,61.0,80.0,390.0,1.0,64.0
2332,42.0,0.0,240.0,8.0,64.0
2333,30.0,0.0,240.0,10.0,64.0
2334,70.0,0.0,390.0,0.0,64.0
2335,70.0,0.0,390.0,5.0,64.0
2336,42.0,165.0,240.0,3.0,64.0
2337,64.0,0.0,240.0,8.0,64.0
2338,52.0,240.0,240.0,10.0,64.0
2339,52.0,0.0,240.0,4.0,64.0
2340,64.0,0.0,240.0,3.0,64.0
2341,63.0,0.0,240.0,8.0,64.0
2342,51.0,0.0,240.0,4.0,64.0
2343,63.0,0.0,240.0,3.0,64.0
2344,51.0,235.0,240.0,10.0,64.0
2345,61.0,0.0,240.0,8.0,64.0
2346,49.0,0.0,240.0,10.0,64.0
2347,61.0,0.0,240.0,3.0,64.0
2348,49.0,125.0,240.0,4.0,64.0
2349,47.0,0.0,390.0,10.0,64.0
2350,90.0,0.0,3360.0,5.0,64.0
2351,59.0,0.0,390.0,8.0,64.0
2352,90.0,480.0,3360.0,0.0,64.0
2353,59.0,0.0,390.0,3.0,64.0
2354,47.0,75.0,390.0,4.0,64.0
2355,76.0,0.0,120.0,7.0,64.0
2356,80.0,0.0,120.0,6.0,64.0
2357,76.0,115.0,120.0,2.0,64.0
2358,80.0,0.0,120.0,1.0,64.0
2359,78.0,125.0,120.0,6.0,64.0
2360,78.0,0.0,120.0,1.0,64.0
2361,75.0,0.0,120.0,7.0,64.0
2362,75.0,0.0,120.0,2.0,64.0
2363,73.0,0.0,120.0,7.0,64.0
2364,76.0,40.0,120.0,6.0,64.0
2365,73.0,0.0,120.0,2.0,64.0
2366,76.0,0.0,120.0,1.0,64.0
2367,75.0,85.0,120.0,6.0,64.0
2368,71.0,0.0,120.0,7.0,64.0
2369,71.0,0.0,120.0,2.0,64.0
2370,75.0,0.0,120.0,1.0,64.0
2371,35.0,320.0,390.0,4.0,64.0
2372,47.0,0.0,390.0,3.0,64.0
2373,71.0,0.0,90.0,2.0,64.0
2374,71.0,0.0,90.0,7.0,64.0
2375,75.0,240.0,90.0,6.0,64.0
2376,75.0,0.0,90.0,1.0,64.0
2377,47.0,0.0,390.0,8.0,64.0
2378,35.0,0.0,390.0,10.0,64.0
2379,75.0,0.0,90.0,1.0,64.0
2380,71.0,0.0,90.0,2.0,64.0
2381,75.0,80.0,90.0,6.0,64.0
2382,71.0,0.0,90.0,7.0,64.0
2383,75.0,0.0,240.0,6.0,64.0
2384,71.0,235.0,240.0,7.0,64.0
2385,71.0,0.0,240.0,2.0,64.0
2386,75.0,0.0,240.0,1.0,64.0
2387,75.0,0.0,240.0,2.0,64.0
2388,78.0,125.0,240.0,6.0,64.0
2389,75.0,0.0,240.0,7.0,64.0
2390,78.0,0.0,240.0,1.0,64.0
2391,78.0,115.0,120.0,1.0,64.0
2392,75.0,0.0,120.0,2.0,64.0
2393,42.0,0.0,390.0,4.0,64.0
2394,54.0,0.0,390.0,8.0,64.0
2395,75.0,0.0,120.0,7.0,64.0
2396,42.0,0.0,390.0,10.0,64.0
2397,78.0,0.0,120.0,6.0,64.0
2398,54.0,75.0,390.0,3.0,64.0
2399,76.0,115.0,120.0,1.0,64.0
2400,73.0,0.0,120.0,7.0,64.0
2401,76.0,5.0,120.0,6.0,64.0
2402,73.0,0.0,120.0,2.0,64.0
2403,75.0,0.0,120.0,1.0,64.0
2404,75.0,0.0,120.0,6.0,64.0
2405,71.0,5.0,120.0,7.0,64.0
2406,71.0,40.0,120.0,2.0,64.0
2407,70.0,5.0,120.0,7.0,64.0
2408,73.0,0.0,120.0,6.0,64.0
2409,42.0,0.0,240.0,3.0,64.0
2410,70.0,0.0,390.0,7.0,64.0
2411,73.0,0.0,15.0,1.0,64.0
2412,30.0,160.0,240.0,10.0,64.0
2413,70.0,240.0,15.0,2.0,64.0
2414,73.0,0.0,390.0,6.0,64.0
2415,42.0,0.0,240.0,8.0,64.0
2416,30.0,0.0,240.0,4.0,64.0
2417,42.0,245.0,240.0,10.0,64.0
2418,54.0,0.0,240.0,8.0,64.0
2419,54.0,0.0,240.0,3.0,64.0
2420,42.0,0.0,240.0,4.0,64.0
2421,42.0,0.0,240.0,4.0,64.0
2422,54.0,0.0,240.0,3.0,64.0
2423,54.0,235.0,240.0,8.0,64.0
2424,42.0,0.0,240.0,10.0,64.0
2425,52.0,5.0,240.0,8.0,64.0
2426,40.0,0.0,240.0,10.0,64.0
2427,40.0,400.0,240.0,4.0,64.0
2428,52.0,0.0,240.0,3.0,64.0
2429,66.0,0.0,1830.0,2.0,64.0
2430,71.0,0.0,480.0,1.0,64.0
2431,51.0,0.0,480.0,3.0,64.0
2432,66.0,75.0,1830.0,7.0,64.0
2433,71.0,0.0,390.0,6.0,64.0
2434,39.0,0.0,480.0,4.0,64.0
2435,39.0,80.0,390.0,10.0,64.0
2436,51.0,0.0,390.0,8.0,64.0
2437,49.0,0.0,480.0,8.0,64.0
2438,70.0,400.0,480.0,6.0,64.0
2439,88.0,0.0,480.0,5.0,64.0
2440,37.0,0.0,480.0,10.0,64.0
2441,70.0,0.0,480.0,1.0,64.0
2442,49.0,0.0,480.0,3.0,64.0
2443,37.0,0.0,480.0,4.0,64.0
2444,88.0,0.0,480.0,0.0,64.0
2445,87.0,0.0,480.0,5.0,64.0
2446,87.0,120.0,480.0,0.0,64.0
2447,35.0,0.0,390.0,10.0,64.0
2448,47.0,80.0,390.0,8.0,64.0
2449,71.0,0.0,390.0,6.0,64.0
2450,47.0,0.0,480.0,3.0,64.0
2451,35.0,0.0,480.0,4.0,64.0
2452,71.0,0.0,480.0,1.0,64.0
2453,42.0,0.0,240.0,8.0,64.0
2454,88.0,0.0,120.0,0.0,64.0
2455,88.0,115.0,120.0,5.0,64.0
2456,73.0,0.0,120.0,6.0,64.0
2457,73.0,0.0,120.0,1.0,64.0
2458,42.0,0.0,240.0,3.0,64.0
2459,30.0,0.0,240.0,10.0,64.0
2460,30.0,0.0,240.0,4.0,64.0
2461,87.0,120.0,120.0,0.0,64.0
2462,71.0,0.0,120.0,1.0,64.0
2463,71.0,5.0,120.0,6.0,64.0
2464,87.0,0.0,120.0,5.0,64.0
2465,42.0,0.0,240.0,10.0,64.0
2466,70.0,0.0,120.0,6.0,64.0
2467,70.0,0.0,120.0,1.0,64.0
2468,42.0,0.0,240.0,4.0,64.0
2469,85.0,40.0,120.0,0.0,64.0
2470,54.0,0.0,240.0,3.0,64.0
2471,85.0,0.0,120.0,5.0,64.0
2472,54.0,5.0,240.0,8.0,64.0
2473,87.0,0.0,120.0,5.0,64.0
2474,87.0,0.0,120.0,0.0,64.0
2475,71.0,240.0,120.0,1.0,64.0
2476,71.0,0.0,120.0,6.0,64.0
2477,42.0,160.0,240.0,10.0,64.0
2478,70.0,0.0,390.0,1.0,64.0
2479,85.0,75.0,390.0,5.0,64.0
2480,85.0,0.0,390.0,0.0,64.0
2481,70.0,0.0,390.0,6.0,64.0
2482,54.0,0.0,240.0,3.0,64.0
2483,54.0,0.0,240.0,8.0,64.0
2484,54.0,0.0,390.0,7.0,64.0
2485,54.0,0.0,390.0,2.0,64.0
2486,42.0,0.0,240.0,4.0,64.0
2487,66.0,0.0,240.0,3.0,64.0
2488,54.0,0.0,240.0,4.0,64.0
2489,66.0,0.0,240.0,8.0,64.0
2490,54.0,125.0,240.0,10.0,64.0
2491,66.0,120.0,120.0,8.0,64.0
2492,54.0,0.0,120.0,4.0,64.0
2493,66.0,0.0,120.0,3.0,64.0
2494,54.0,0.0,120.0,10.0,64.0
2495,64.0,0.0,120.0,3.0,64.0
2496,52.0,0.0,120.0,10.0,64.0
2497,64.0,120.0,120.0,8.0,64.0
2498,52.0,0.0,120.0,4.0,64.0
2499,51.0,0.0,120.0,10.0,64.0
2500,63.0,115.0,120.0,8.0,64.0
2501,51.0,0.0,120.0,4.0,64.0
2502,63.0,0.0,120.0,3.0,64.0
2503,49.0,5.0,120.0,10.0,64.0
2504,61.0,0.0,120.0,3.0,64.0
2505,61.0,0.0,120.0,8.0,64.0
2506,49.0,120.0,120.0,4.0,64.0
2507,47.0,0.0,390.0,10.0,64.0
2508,80.0,0.0,120.0,1.0,64.0
2509,80.0,0.0,120.0,6.0,64.0
2510,47.0,0.0,390.0,4.0,64.0
2511,88.0,0.0,120.0,0.0,64.0
2512,59.0,0.0,390.0,3.0,64.0
2513,88.0,115.0,120.0,5.0,64.0
2514,59.0,75.0,390.0,8.0,64.0
2515,87.0,0.0,120.0,0.0,64.0
2516,78.0,0.0,120.0,1.0,64.0
2517,78.0,0.0,120.0,6.0,64.0
2518,87.0,125.0,120.0,5.0,64.0
2519,63.0,0.0,240.0,2.0,64.0
2520,85.0,40.0,120.0,0.0,64.0
2521,76.0,0.0,120.0,1.0,64.0
2522,85.0,0.0,120.0,5.0,64.0
2523,63.0,0.0,240.0,7.0,64.0
2524,76.0,0.0,120.0,6.0,64.0
2525,75.0,0.0,120.0,6.0,64.0
2526,75.0,85.0,120.0,1.0,64.0
2527,83.0,0.0,120.0,0.0,64.0
2528,83.0,0.0,120.0,5.0,64.0
2529,83.0,160.0,90.0,0.0,64.0
2530,71.0,0.0,240.0,7.0,64.0
2531,75.0,0.0,90.0,1.0,64.0
2532,75.0,0.0,90.0,6.0,64.0
2533,83.0,0.0,90.0,5.0,64.0
2534,71.0,80.0,240.0,2.0,64.0
2535,75.0,0.0,90.0,1.0,64.0
2536,75.0,0.0,90.0,6.0,64.0
2537,75.0,245.0,240.0,7.0,64.0
2538,75.0,0.0,240.0,2.0,64.0
2539,83.0,0.0,90.0,0.0,64.0
2540,83.0,155.0,90.0,5.0,64.0
2541,75.0,160.0,240.0,1.0,64.0
2542,78.0,75.0,390.0,7.0,64.0
2543,83.0,0.0,240.0,5.0,64.0
2544,78.0,0.0,390.0,2.0,64.0
2545,83.0,0.0,240.0,0.0,64.0
2546,75.0,0.0,240.0,6.0,64.0
2547,87.0,0.0,240.0,0.0,64.0
2548,78.0,0.0,240.0,1.0,64.0
2549,87.0,0.0,240.0,5.0,64.0
2550,78.0,125.0,240.0,6.0,64.0
2551,87.0,0.0,120.0,0.0,64.0
2552,42.0,0.0,390.0,10.0,64.0
2553,54.0,75.0,390.0,3.0,64.0
2554,54.0,0.0,390.0,8.0,64.0
2555,87.0,0.0,120.0,5.0,64.0
2556,78.0,115.0,120.0,1.0,64.0
2557,78.0,0.0,120.0,6.0,64.0
2558,42.0,0.0,390.0,4.0,64.0
2559,85.0,0.0,120.0,0.0,64.0
2560,85.0,0.0,120.0,5.0,64.0
2561,76.0,120.0,120.0,1.0,64.0
2562,76.0,5.0,120.0,6.0,64.0
2563,75.0,40.0,120.0,6.0,64.0
2564,83.0,0.0,120.0,0.0,64.0
2565,66.0,240.0,240.0,7.0,64.0
2566,83.0,0.0,120.0,5.0,64.0
2567,75.0,0.0,120.0,1.0,64.0
2568,66.0,0.0,240.0,2.0,64.0
2569,82.0,0.0,120.0,0.0,64.0
2570,82.0,0.0,120.0,5.0,64.0
2571,73.0,5.0,120.0,6.0,64.0
2572,73.0,0.0,15.0,1.0,64.0
2573,82.0,0.0,390.0,0.0,64.0
2574,82.0,75.0,390.0,5.0,64.0
2575,70.0,0.0,240.0,2.0,64.0
2576,70.0,160.0,240.0,7.0,64.0
2577,73.0,0.0,390.0,6.0,64.0
2578,73.0,0.0,240.0,7.0,64.0
2579,73.0,245.0,240.0,2.0,64.0
2580,78.0,0.0,240.0,7.0,64.0
2581,78.0,235.0,240.0,2.0,64.0
2582,76.0,325.0,240.0,7.0,64.0
2583,76.0,0.0,240.0,2.0,64.0
2584,71.0,0.0,1320.0,1.0,64.0
2585,83.0,80.0,330.0,0.0,64.0
2586,71.0,0.0,1320.0,6.0,64.0
2587,44.0,0.0,1320.0,4.0,64.0
2588,75.0,0.0,960.0,7.0,64.0
2589,75.0,240.0,960.0,2.0,64.0
2590,83.0,0.0,330.0,5.0,64.0
2591,44.0,40.0,1320.0,10.0,64.0
2592,56.0,0.0,1320.0,3.0,64.0
2593,56.0,0.0,1320.0,8.0,64.0
2594,85.0,80.0,90.0,5.0,64.0
2595,85.0,0.0,90.0,0.0,64.0
2596,83.0,0.0,90.0,0.0,64.0
2597,83.0,240.0,90.0,5.0,64.0
2598,82.0,0.0,240.0,0.0,64.0
2599,82.0,235.0,240.0,5.0,64.0
2600,80.0,0.0,240.0,0.0,64.0
2601,80.0,5.0,240.0,5.0,64.0
2602,78.0,120.0,240.0,0.0,64.0
2603,71.0,75.0,390.0,7.0,64.0
2604,78.0,0.0,240.0,5.0,64.0
2605,71.0,0.0,390.0,2.0,64.0
2606,77.0,0.0,240.0,0.0,64.0
2607,77.0,240.0,240.0,5.0,64.0
2608,54.0,0.0,240.0,3.0,64.0
2609,73.0,0.0,240.0,7.0,64.0
2610,54.0,0.0,240.0,8.0,64.0
2611,78.0,0.0,390.0,0.0,64.0
2612,42.0,0.0,240.0,4.0,64.0
2613,78.0,75.0,390.0,5.0,64.0
2614,70.0,0.0,240.0,6.0,64.0
2615,70.0,0.0,240.0,1.0,64.0
2616,73.0,0.0,240.0,2.0,64.0
2617,42.0,125.0,240.0,10.0,64.0
2618,66.0,0.0,120.0,2.0,64.0
2619,54.0,0.0,240.0,3.0,64.0
2620,70.0,0.0,120.0,6.0,64.0
2621,42.0,0.0,240.0,10.0,64.0
2622,42.0,0.0,240.0,4.0,64.0
2623,70.0,40.0,120.0,1.0,64.0
2624,66.0,0.0,120.0,7.0,64.0
2625,54.0,5.0,240.0,8.0,64.0
2626,68.0,0.0,120.0,7.0,64.0
2627,71.0,0.0,120.0,1.0,64.0
2628,71.0,0.0,120.0,6.0,64.0
2629,68.0,120.0,120.0,2.0,64.0
2630,42.0,0.0,240.0,4.0,64.0
2631,42.0,0.0,240.0,10.0,64.0
2632,70.0,0.0,120.0,7.0,64.0
2633,73.0,0.0,120.0,1.0,64.0
2634,73.0,0.0,120.0,6.0,64.0
2635,54.0,0.0,240.0,3.0,64.0
2636,70.0,115.0,120.0,2.0,64.0
2637,54.0,5.0,240.0,8.0,64.0
2638,71.0,0.0,120.0,7.0,64.0
2639,71.0,0.0,120.0,2.0,64.0
2640,75.0,0.0,120.0,6.0,64.0
2641,75.0,120.0,120.0,1.0,64.0
2642,73.0,115.0,120.0,7.0,64.0
2643,54.0,5.0,240.0,3.0,64.0
2644,42.0,0.0,240.0,10.0,64.0
2645,54.0,0.0,240.0,8.0,64.0
2646,73.0,0.0,120.0,2.0,64.0
2647,76.0,0.0,120.0,6.0,64.0
2648,76.0,0.0,120.0,1.0,64.0
2649,42.0,0.0,240.0,4.0,64.0
2650,75.0,0.0,120.0,6.0,64.0
2651,71.0,0.0,120.0,7.0,64.0
2652,71.0,0.0,120.0,2.0,64.0
2653,75.0,120.0,120.0,1.0,64.0
2654,40.0,5.0,240.0,10.0,64.0
2655,75.0,0.0,120.0,2.0,64.0
2656,78.0,115.0,120.0,6.0,64.0
2657,75.0,0.0,120.0,7.0,64.0
2658,40.0,0.0,240.0,4.0,64.0
2659,78.0,0.0,120.0,1.0,64.0
2660,52.0,0.0,240.0,8.0,64.0
2661,52.0,0.0,240.0,3.0,64.0
2662,73.0,0.0,120.0,2.0,64.0
2663,76.0,120.0,120.0,1.0,64.0
2664,73.0,0.0,120.0,7.0,64.0
2665,76.0,0.0,120.0,6.0,64.0
2666,71.0,0.0,120.0,7.0,64.0
2667,75.0,0.0,120.0,6.0,64.0
2668,71.0,0.0,120.0,2.0,64.0
2669,40.0,0.0,240.0,4.0,64.0
2670,40.0,5.0,240.0,10.0,64.0
2671,52.0,0.0,240.0,3.0,64.0
2672,52.0,0.0,240.0,8.0,64.0
2673,75.0,115.0,120.0,1.0,64.0
2674,73.0,0.0,120.0,6.0,64.0
2675,70.0,0.0,120.0,7.0,64.0
2676,70.0,0.0,120.0,2.0,64.0
2677,73.0,235.0,120.0,1.0,64.0
2678,39.0,240.0,240.0,10.0,64.0
2679,78.0,0.0,240.0,1.0,64.0
2680,78.0,0.0,240.0,6.0,64.0
2681,39.0,0.0,240.0,4.0,64.0
2682,71.0,0.0,240.0,2.0,64.0
2683,51.0,0.0,240.0,8.0,64.0
2684,51.0,0.0,240.0,3.0,64.0
2685,71.0,0.0,240.0,7.0,64.0
2686,83.0,0.0,960.0,0.0,64.0
2687,83.0,235.0,960.0,5.0,64.0
2688,51.0,0.0,240.0,8.0,64.0
2689,78.0,0.0,240.0,1.0,64.0
2690,71.0,0.0,240.0,2.0,64.0
2691,39.0,0.0,240.0,10.0,64.0
2692,51.0,0.0,240.0,3.0,64.0
2693,71.0,0.0,240.0,7.0,64.0
2694,78.0,0.0,240.0,6.0,64.0
2695,39.0,240.0,240.0,4.0,64.0
2696,71.0,240.0,240.0,7.0,64.0
2697,51.0,0.0,240.0,8.0,64.0
2698,51.0,0.0,240.0,3.0,64.0
2699,78.0,0.0,240.0,1.0,64.0
2700,39.0,0.0,240.0,10.0,64.0
2701,39.0,0.0,240.0,4.0,64.0
2702,78.0,0.0,240.0,6.0,64.0
2703,71.0,0.0,240.0,2.0,64.0
2704,51.0,0.0,240.0,8.0,64.0
2705,78.0,0.0,240.0,1.0,64.0
2706,78.0,0.0,240.0,6.0,64.0
2707,71.0,0.0,240.0,2.0,64.0
2708,39.0,5.0,240.0,4.0,64.0
2709,39.0,0.0,240.0,10.0,64.0
2710,51.0,0.0,240.0,3.0,64.0
2711,71.0,0.0,240.0,7.0,64.0
2712,51.0,0.0,240.0,8.0,64.0
2713,71.0,0.0,240.0,2.0,64.0
2714,78.0,0.0,240.0,1.0,64.0
2715,78.0,0.0,240.0,6.0,64.0
2716,51.0,0.0,240.0,3.0,64.0
2717,85.0,0.0,240.0,0.0,64.0
2718,39.0,0.0,240.0,4.0,64.0
2719,39.0,5.0,240.0,10.0,64.0
2720,71.0,0.0,240.0,7.0,64.0
2721,85.0,235.0,240.0,5.0,64.0
2722,51.0,0.0,240.0,3.0,64.0
2723,78.0,0.0,240.0,1.0,64.0
2724,71.0,0.0,240.0,2.0,64.0
2725,78.0,0.0,240.0,6.0,64.0
2726,81.0,235.0,240.0,0.0,64.0
2727,39.0,0.0,240.0,10.0,64.0
2728,39.0,0.0,240.0,4.0,64.0
2729,51.0,5.0,240.0,8.0,64.0
2730,81.0,0.0,240.0,5.0,64.0
2731,71.0,0.0,240.0,7.0,64.0
2732,52.0,0.0,240.0,3.0,64.0
2733,40.0,0.0,240.0,4.0,64.0
2734,40.0,0.0,240.0,10.0,64.0
2735,79.0,120.0,240.0,0.0,64.0
2736,71.0,0.0,240.0,2.0,64.0
2737,52.0,5.0,240.0,8.0,64.0
2738,71.0,0.0,240.0,7.0,64.0
2739,79.0,0.0,240.0,5.0,64.0
2740,78.0,0.0,240.0,6.0,64.0
2741,78.0,0.0,240.0,1.0,64.0
2742,71.0,0.0,240.0,2.0,64.0
2743,40.0,0.0,240.0,10.0,64.0
2744,80.0,0.0,240.0,5.0,64.0
2745,71.0,5.0,240.0,7.0,64.0
2746,76.0,115.0,120.0,6.0,64.0
2747,40.0,0.0,240.0,4.0,64.0
2748,52.0,0.0,240.0,8.0,64.0
2749,52.0,0.0,240.0,3.0,64.0
2750,76.0,0.0,120.0,1.0,64.0
2751,75.0,0.0,120.0,6.0,64.0
2752,75.0,0.0,120.0,1.0,64.0
2753,76.0,115.0,240.0,1.0,64.0
2754,80.0,235.0,15.0,0.0,64.0
2755,40.0,0.0,240.0,4.0,64.0
2756,71.0,45.0,360.0,7.0,64.0
2757,52.0,0.0,240.0,8.0,64.0
2758,40.0,0.0,240.0,10.0,64.0
2759,76.0,0.0,240.0,6.0,64.0
2760,52.0,5.0,240.0,3.0,64.0
2761,71.0,0.0,360.0,2.0,64.0
2762,80.0,0.0,390.0,5.0,64.0
2763,75.0,0.0,240.0,6.0,64.0
2764,75.0,0.0,240.0,1.0,64.0
2765,40.0,240.0,240.0,4.0,64.0
2766,52.0,0.0,240.0,3.0,64.0
2767,52.0,0.0,240.0,8.0,64.0
2768,40.0,0.0,240.0,10.0,64.0
2769,73.0,0.0,60.0,2.0,64.0
2770,73.0,55.0,60.0,7.0,64.0
2771,75.0,0.0,60.0,2.0,64.0
2772,75.0,0.0,60.0,7.0,64.0
2773,52.0,5.0,240.0,8.0,64.0
2774,76.0,0.0,240.0,7.0,64.0
2775,73.0,0.0,240.0,6.0,64.0
2776,40.0,0.0,240.0,10.0,64.0
2777,76.0,235.0,240.0,2.0,64.0
2778,52.0,0.0,240.0,3.0,64.0
2779,40.0,0.0,240.0,4.0,64.0
2780,73.0,0.0,240.0,1.0,64.0
2781,52.0,0.0,240.0,8.0,64.0
2782,71.0,0.0,240.0,6.0,64.0
2783,75.0,0.0,240.0,7.0,64.0
2784,71.0,0.0,240.0,1.0,64.0
2785,80.0,0.0,240.0,0.0,64.0
2786,75.0,235.0,240.0,2.0,64.0
2787,40.0,0.0,240.0,10.0,64.0
2788,80.0,5.0,240.0,5.0,64.0
2789,52.0,0.0,240.0,3.0,64.0
2790,40.0,0.0,240.0,4.0,64.0
2791,73.0,0.0,240.0,2.0,64.0
2792,42.0,0.0,240.0,4.0,64.0
2793,70.0,0.0,240.0,6.0,64.0
2794,80.0,0.0,240.0,0.0,64.0
2795,54.0,0.0,240.0,8.0,64.0
2796,80.0,235.0,240.0,5.0,64.0
2797,73.0,5.0,240.0,7.0,64.0
2798,70.0,0.0,240.0,1.0,64.0
2799,54.0,0.0,240.0,3.0,64.0
2800,42.0,0.0,240.0,10.0,64.0
2801,42.0,0.0,240.0,4.0,64.0
2802,78.0,0.0,480.0,5.0,64.0
2803,54.0,0.0,240.0,3.0,64.0
2804,70.0,0.0,240.0,1.0,64.0
2805,73.0,0.0,240.0,7.0,64.0
2806,54.0,0.0,240.0,8.0,64.0
2807,78.0,0.0,480.0,0.0,64.0
2808,70.0,0.0,240.0,6.0,64.0
2809,73.0,0.0,240.0,2.0,64.0
2810,42.0,240.0,240.0,10.0,64.0
2811,73.0,0.0,240.0,2.0,64.0
2812,70.0,0.0,240.0,6.0,64.0
2813,42.0,0.0,240.0,4.0,64.0
2814,70.0,0.0,240.0,1.0,64.0
2815,54.0,0.0,240.0,3.0,64.0
2816,73.0,0.0,240.0,7.0,64.0
2817,42.0,125.0,240.0,10.0,64.0
2818,54.0,0.0,240.0,8.0,64.0
2819,42.0,0.0,240.0,4.0,64.0
2820,54.0,0.0,240.0,3.0,64.0
2821,73.0,115.0,120.0,0.0,64.0
2822,54.0,0.0,240.0,8.0,64.0
2823,70.0,5.0,240.0,6.0,64.0
2824,73.0,0.0,120.0,5.0,64.0
2825,73.0,0.0,240.0,7.0,64.0
2826,70.0,0.0,240.0,1.0,64.0
2827,42.0,0.0,240.0,10.0,64.0
2828,73.0,0.0,240.0,2.0,64.0
2829,75.0,80.0,120.0,0.0,64.0
2830,75.0,0.0,120.0,5.0,64.0
2831,42.0,0.0,240.0,10.0,64.0
2832,54.0,0.0,240.0,3.0,64.0
2833,73.0,0.0,240.0,1.0,64.0
2834,54.0,0.0,240.0,8.0,64.0
2835,70.0,5.0,240.0,7.0,64.0
2836,73.0,0.0,240.0,6.0,64.0
2837,42.0,0.0,240.0,4.0,64.0
2838,76.0,80.0,90.0,0.0,64.0
2839,76.0,0.0,90.0,5.0,64.0
2840,70.0,0.0,240.0,2.0,64.0
2841,75.0,0.0,90.0,5.0,64.0
2842,75.0,75.0,90.0,0.0,64.0
2843,73.0,80.0,90.0,5.0,64.0
2844,73.0,0.0,90.0,0.0,64.0
2845,54.0,0.0,240.0,8.0,64.0
2846,42.0,0.0,240.0,10.0,64.0
2847,42.0,0.0,240.0,4.0,64.0
2848,70.0,0.0,240.0,2.0,64.0
2849,73.0,0.0,240.0,6.0,64.0
2850,80.0,80.0,90.0,0.0,64.0
2851,54.0,5.0,240.0,3.0,64.0
2852,80.0,0.0,90.0,5.0,64.0
2853,73.0,0.0,240.0,1.0,64.0
2854,70.0,0.0,240.0,7.0,64.0
2855,78.0,0.0,90.0,0.0,64.0
2856,78.0,75.0,90.0,5.0,64.0
2857,76.0,0.0,90.0,5.0,64.0
2858,76.0,30.0,90.0,0.0,64.0
2859,76.0,0.0,30.0,5.0,64.0
2860,73.0,0.0,480.0,1.0,64.0
2861,56.0,0.0,240.0,8.0,64.0
2862,56.0,5.0,240.0,3.0,64.0
2863,70.0,0.0,480.0,7.0,64.0
2864,70.0,0.0,480.0,2.0,64.0
2865,44.0,0.0,240.0,4.0,64.0
2866,73.0,235.0,480.0,6.0,64.0
2867,76.0,30.0,30.0,0.0,64.0
2868,44.0,0.0,240.0,10.0,64.0
2869,78.0,0.0,30.0,5.0,64.0
2870,78.0,30.0,30.0,0.0,64.0
2871,76.0,30.0,30.0,5.0,64.0
2872,76.0,0.0,30.0,0.0,64.0
2873,78.0,0.0,30.0,0.0,64.0
2874,78.0,30.0,30.0,5.0,64.0
2875,76.0,0.0,30.0,5.0,64.0
2876,76.0,30.0,30.0,0.0,64.0
2877,78.0,0.0,30.0,5.0,64.0
2878,78.0,30.0,30.0,0.0,64.0
2879,76.0,0.0,30.0,5.0,64.0
2880,76.0,25.0,30.0,0.0,64.0
2881,78.0,0.0,30.0,5.0,64.0
2882,78.0,30.0,30.0,0.0,64.0
2883,56.0,0.0,240.0,3.0,64.0
2884,44.0,0.0,240.0,4.0,64.0
2885,76.0,30.0,30.0,5.0,64.0
2886,44.0,5.0,240.0,10.0,64.0
2887,56.0,0.0,240.0,8.0,64.0
2888,76.0,0.0,30.0,0.0,64.0
2889,78.0,0.0,30.0,0.0,64.0
2890,78.0,30.0,30.0,5.0,64.0
2891,76.0,30.0,30.0,0.0,64.0
2892,76.0,0.0,30.0,5.0,64.0
2893,78.0,30.0,30.0,0.0,64.0
2894,78.0,0.0,30.0,5.0,64.0
2895,76.0,0.0,30.0,5.0,64.0
2896,76.0,30.0,30.0,0.0,64.0
2897,78.0,30.0,30.0,5.0,64.0
2898,78.0,0.0,30.0,0.0,64.0
2899,75.0,25.0,30.0,0.0,64.0
2900,75.0,0.0,30.0,5.0,64.0
2901,76.0,0.0,30.0,0.0,64.0
2902,76.0,0.0,30.0,5.0,64.0
2903,75.0,0.0,240.0,0.0,64.0
2904,71.0,0.0,240.0,7.0,64.0
2905,71.0,80.0,390.0,1.0,64.0
2906,71.0,0.0,240.0,2.0,64.0
2907,44.0,0.0,240.0,10.0,64.0
2908,56.0,0.0,240.0,3.0,64.0
2909,56.0,165.0,240.0,8.0,64.0
2910,44.0,0.0,240.0,4.0,64.0
2911,75.0,0.0,240.0,5.0,64.0
2912,71.0,0.0,390.0,6.0,64.0
2913,56.0,240.0,240.0,8.0,64.0
2914,44.0,0.0,240.0,4.0,64.0
2915,56.0,0.0,240.0,3.0,64.0
2916,44.0,0.0,240.0,10.0,64.0
2917,71.0,0.0,240.0,2.0,64.0
2918,71.0,0.0,240.0,7.0,64.0
2919,42.0,235.0,240.0,4.0,64.0
2920,42.0,0.0,240.0,10.0,64.0
2921,54.0,0.0,240.0,3.0,64.0
2922,54.0,0.0,240.0,8.0,64.0
2923,70.0,0.0,240.0,7.0,64.0
2924,70.0,0.0,240.0,2.0,64.0
2925,52.0,245.0,240.0,3.0,64.0
2926,68.0,0.0,240.0,7.0,64.0
2927,68.0,0.0,240.0,2.0,64.0
2928,52.0,0.0,240.0,8.0,64.0
2929,40.0,0.0,240.0,10.0,64.0
2930,40.0,0.0,240.0,4.0,64.0
2931,39.0,0.0,390.0,4.0,64.0
2932,66.0,0.0,390.0,7.0,64.0
2933,66.0,0.0,390.0,2.0,64.0
2934,39.0,0.0,390.0,10.0,64.0
2935,51.0,0.0,390.0,8.0,64.0
2936,51.0,200.0,390.0,3.0,64.0
2937,71.0,0.0,120.0,6.0,64.0
2938,83.0,80.0,120.0,0.0,64.0
2939,83.0,0.0,120.0,5.0,64.0
2940,71.0,0.0,120.0,1.0,64.0
2941,73.0,0.0,90.0,1.0,64.0
2942,85.0,0.0,90.0,5.0,64.0
2943,73.0,80.0,90.0,6.0,64.0
2944,85.0,0.0,90.0,0.0,64.0
2945,83.0,0.0,30.0,5.0,64.0
2946,83.0,0.0,30.0,0.0,64.0
2947,71.0,0.0,30.0,6.0,64.0
2948,71.0,0.0,30.0,1.0,64.0
2949,70.0,0.0,120.0,6.0,64.0
2950,70.0,0.0,120.0,1.0,64.0
2951,82.0,0.0,120.0,5.0,64.0
2952,82.0,40.0,120.0,0.0,64.0
2953,71.0,0.0,30.0,1.0,64.0
2954,83.0,200.0,30.0,0.0,64.0
2955,83.0,0.0,30.0,5.0,64.0
2956,71.0,0.0,30.0,6.0,64.0
2957,68.0,40.0,120.0,6.0,64.0
2958,80.0,0.0,120.0,0.0,64.0
2959,68.0,0.0,120.0,1.0,64.0
2960,80.0,0.0,120.0,5.0,64.0
2961,66.0,0.0,30.0,1.0,64.0
2962,66.0,0.0,30.0,6.0,64.0
2963,78.0,0.0,30.0,0.0,64.0
2964,78.0,200.0,30.0,5.0,64.0
2965,64.0,40.0,120.0,1.0,64.0
2966,76.0,0.0,120.0,0.0,64.0
2967,64.0,0.0,120.0,6.0,64.0
2968,76.0,0.0,120.0,5.0,64.0
2969,75.0,200.0,30.0,0.0,64.0
2970,75.0,0.0,30.0,5.0,64.0
2971,63.0,0.0,30.0,6.0,64.0
2972,63.0,0.0,30.0,1.0,64.0
2973,73.0,0.0,120.0,5.0,64.0
2974,61.0,0.0,120.0,6.0,64.0
2975,73.0,40.0,120.0,0.0,64.0
2976,61.0,0.0,120.0,1.0,64.0
2977,71.0,0.0,30.0,5.0,64.0
2978,71.0,0.0,30.0,0.0,64.0
2979,59.0,0.0,30.0,1.0,64.0
2980,59.0,320.0,30.0,6.0,64.0
2981,40.0,0.0,390.0,4.0,64.0
2982,40.0,0.0,390.0,10.0,64.0
2983,52.0,0.0,390.0,3.0,64.0
2984,68.0,40.0,390.0,2.0,64.0
2985,68.0,0.0,390.0,7.0,64.0
2986,52.0,0.0,390.0,8.0,64.0
2987,85.0,0.0,120.0,5.0,64.0
2988,85.0,40.0,120.0,0.0,64.0
2989,73.0,0.0,120.0,1.0,64.0
2990,73.0,0.0,120.0,6.0,64.0
2991,75.0,0.0,30.0,6.0,64.0
2992,87.0,0.0,30.0,0.0,64.0
2993,75.0,0.0,30.0,1.0,64.0
2994,87.0,120.0,30.0,5.0,64.0
2995,85.0,160.0,90.0,5.0,64.0
2996,73.0,0.0,90.0,1.0,64.0
2997,73.0,0.0,90.0,6.0,64.0
2998,85.0,0.0,90.0,0.0,64.0
2999,72.0,0.0,120.0,6.0,64.0
3000,72.0,40.0,120.0,1.0,64.0
3001,84.0,0.0,120.0,0.0,64.0
3002,84.0,0.0,120.0,5.0,64.0
3003,73.0,0.0,30.0,1.0,64.0
3004,85.0,0.0,30.0,5.0,64.0
3005,73.0,200.0,30.0,6.0,64.0
3006,85.0,0.0,30.0,0.0,64.0
3007,83.0,40.0,120.0,0.0,64.0
3008,83.0,0.0,120.0,5.0,64.0
3009,71.0,0.0,120.0,1.0,64.0
3010,71.0,0.0,120.0,6.0,64.0
3011,70.0,200.0,30.0,6.0,64.0
3012,82.0,0.0,30.0,5.0,64.0
3013,82.0,0.0,30.0,0.0,64.0
3014,70.0,0.0,30.0,1.0,64.0
3015,61.0,40.0,390.0,7.0,64.0
3016,58.0,0.0,390.0,8.0,64.0
3017,80.0,0.0,120.0,5.0,64.0
3018,68.0,40.0,120.0,6.0,64.0
3019,46.0,0.0,390.0,10.0,64.0
3020,68.0,0.0,120.0,1.0,64.0
3021,61.0,0.0,390.0,2.0,64.0
3022,80.0,0.0,120.0,0.0,64.0
3023,46.0,0.0,390.0,4.0,64.0
3024,58.0,0.0,390.0,3.0,64.0
3025,78.0,0.0,30.0,0.0,64.0
3026,78.0,200.0,30.0,5.0,64.0
3027,66.0,0.0,30.0,6.0,64.0
3028,66.0,0.0,30.0,1.0,64.0
3029,61.0,0.0,120.0,6.0,64.0
3030,61.0,40.0,120.0,1.0,64.0
3031,73.0,0.0,120.0,5.0,64.0
3032,73.0,0.0,120.0,0.0,64.0
3033,64.0,0.0,90.0,1.0,64.0
3034,64.0,0.0,90.0,6.0,64.0
3035,76.0,0.0,90.0,5.0,64.0
3036,76.0,280.0,90.0,0.0,64.0
3037,47.0,40.0,390.0,4.0,64.0
3038,59.0,0.0,390.0,8.0,64.0
3039,47.0,0.0,390.0,10.0,64.0
3040,59.0,0.0,390.0,3.0,64.0
3041,75.0,0.0,120.0,5.0,64.0
3042,63.0,0.0,120.0,6.0,64.0
3043,59.0,0.0,120.0,2.0,64.0
3044,63.0,80.0,120.0,1.0,64.0
3045,59.0,0.0,120.0,7.0,64.0
3046,75.0,0.0,120.0,0.0,64.0
3047,76.0,0.0,90.0,5.0,64.0
3048,61.0,0.0,90.0,2.0,64.0
3049,76.0,0.0,90.0,0.0,64.0
3050,61.0,80.0,90.0,7.0,64.0
3051,64.0,0.0,90.0,1.0,64.0
3052,64.0,0.0,90.0,6.0,64.0
3053,64.0,0.0,90.0,6.0,64.0
3054,76.0,0.0,90.0,5.0,64.0
3055,61.0,0.0,90.0,2.0,64.0
3056,76.0,120.0,90.0,0.0,64.0
3057,61.0,0.0,90.0,7.0,64.0
3058,64.0,0.0,90.0,1.0,64.0
3059,78.0,0.0,90.0,5.0,64.0
3060,66.0,0.0,90.0,1.0,64.0
3061,66.0,0.0,90.0,6.0,64.0
3062,63.0,0.0,90.0,2.0,64.0
3063,78.0,120.0,90.0,0.0,64.0
3064,63.0,0.0,90.0,7.0,64.0
3065,66.0,0.0,90.0,1.0,64.0
3066,63.0,0.0,90.0,2.0,64.0
3067,78.0,0.0,90.0,0.0,64.0
3068,63.0,0.0,90.0,7.0,64.0
3069,66.0,120.0,90.0,6.0,64.0
3070,78.0,0.0,90.0,5.0,64.0
3071,64.0,0.0,90.0,2.0,64.0
3072,80.0,0.0,90.0,0.0,64.0
3073,68.0,120.0,90.0,6.0,64.0
3074,80.0,0.0,90.0,5.0,64.0
3075,68.0,0.0,90.0,1.0,64.0
3076,64.0,0.0,90.0,7.0,64.0
3077,80.0,0.0,90.0,5.0,64.0
3078,68.0,0.0,90.0,6.0,64.0
3079,80.0,0.0,90.0,0.0,64.0
3080,68.0,0.0,90.0,1.0,64.0
3081,64.0,0.0,90.0,2.0,64.0
3082,64.0,120.0,90.0,7.0,64.0
3083,82.0,120.0,90.0,5.0,64.0
3084,70.0,0.0,90.0,6.0,64.0
3085,70.0,0.0,90.0,1.0,64.0
3086,82.0,0.0,90.0,0.0,64.0
3087,66.0,0.0,90.0,7.0,64.0
3088,66.0,0.0,90.0,2.0,64.0
3089,70.0,0.0,90.0,1.0,64.0
3090,82.0,120.0,90.0,0.0,64.0
3091,66.0,0.0,90.0,2.0,64.0
3092,66.0,0.0,90.0,7.0,64.0
3093,70.0,0.0,90.0,6.0,64.0
3094,82.0,0.0,90.0,5.0,64.0
3095,68.0,0.0,90.0,7.0,64.0
3096,71.0,0.0,90.0,1.0,64.0
3097,71.0,0.0,90.0,6.0,64.0
3098,83.0,0.0,90.0,0.0,64.0
3099,83.0,0.0,90.0,5.0,64.0
3100,68.0,120.0,90.0,2.0,64.0
3101,68.0,160.0,90.0,7.0,64.0
3102,68.0,0.0,90.0,2.0,64.0
3103,71.0,0.0,90.0,1.0,64.0
3104,83.0,0.0,90.0,0.0,64.0
3105,83.0,0.0,90.0,5.0,64.0
3106,71.0,0.0,90.0,6.0,64.0
3107,40.0,0.0,240.0,4.0,64.0
3108,82.0,0.0,120.0,0.0,64.0
3109,52.0,0.0,240.0,8.0,64.0
3110,70.0,0.0,120.0,1.0,64.0
3111,66.0,115.0,120.0,7.0,64.0
3112,40.0,0.0,240.0,10.0,64.0
3113,66.0,0.0,120.0,2.0,64.0
3114,52.0,0.0,240.0,3.0,64.0
3115,70.0,0.0,120.0,6.0,64.0
3116,82.0,0.0,120.0,5.0,64.0
3117,80.0,120.0,120.0,0.0,64.0
3118,68.0,0.0,120.0,1.0,64.0
3119,80.0,0.0,120.0,5.0,64.0
3120,64.0,0.0,120.0,2.0,64.0
3121,68.0,5.0,120.0,6.0,64.0
3122,64.0,0.0,120.0,7.0,64.0
3123,52.0,5.0,240.0,3.0,64.0
3124,78.0,115.0,120.0,5.0,64.0
3125,78.0,0.0,120.0,0.0,64.0
3126,63.0,0.0,120.0,2.0,64.0
3127,66.0,0.0,120.0,1.0,64.0
3128,40.0,0.0,240.0,4.0,64.0
3129,63.0,0.0,120.0,7.0,64.0
3130,52.0,0.0,240.0,8.0,64.0
3131,40.0,0.0,240.0,10.0,64.0
3132,66.0,0.0,120.0,6.0,64.0
3133,76.0,0.0,120.0,0.0,64.0
3134,64.0,235.0,120.0,1.0,64.0
3135,76.0,0.0,120.0,5.0,64.0
3136,61.0,0.0,120.0,7.0,64.0
3137,61.0,0.0,120.0,2.0,64.0
3138,64.0,0.0,120.0,6.0,64.0
3139,42.0,0.0,240.0,10.0,64.0
3140,63.0,0.0,390.0,6.0,64.0
3141,42.0,0.0,240.0,4.0,64.0
3142,75.0,0.0,480.0,0.0,64.0
3143,54.0,0.0,240.0,3.0,64.0
3144,59.0,75.0,390.0,7.0,64.0
3145,54.0,165.0,240.0,8.0,64.0
3146,59.0,30.0,480.0,2.0,64.0
3147,63.0,0.0,480.0,1.0,64.0
3148,75.0,0.0,480.0,5.0,64.0
3149,42.0,0.0,240.0,4.0,64.0
3150,54.0,0.0,240.0,8.0,64.0
3151,54.0,0.0,240.0,3.0,64.0
3152,42.0,5.0,240.0,10.0,64.0
3153,54.0,0.0,240.0,3.0,64.0
3154,73.0,0.0,30.0,5.0,64.0
3155,58.0,20.0,390.0,7.0,64.0
3156,61.0,0.0,30.0,1.0,64.0
3157,58.0,240.0,480.0,2.0,64.0
3158,61.0,30.0,30.0,6.0,64.0
3159,54.0,0.0,240.0,8.0,64.0
3160,73.0,0.0,30.0,0.0,64.0
3161,42.0,0.0,240.0,10.0,64.0
3162,42.0,5.0,240.0,4.0,64.0
3163,75.0,0.0,30.0,0.0,64.0
3164,75.0,0.0,30.0,5.0,64.0
3165,63.0,30.0,30.0,1.0,64.0
3166,63.0,0.0,30.0,6.0,64.0
3167,73.0,0.0,30.0,5.0,64.0
3168,61.0,0.0,30.0,1.0,64.0
3169,73.0,30.0,30.0,0.0,64.0
3170,61.0,0.0,30.0,6.0,64.0
3171,63.0,0.0,30.0,6.0,64.0
3172,75.0,0.0,30.0,0.0,64.0
3173,75.0,0.0,30.0,5.0,64.0
3174,63.0,30.0,30.0,1.0,64.0
3175,73.0,30.0,30.0,5.0,64.0
3176,61.0,0.0,30.0,6.0,64.0
3177,61.0,0.0,30.0,1.0,64.0
3178,73.0,0.0,30.0,0.0,64.0
3179,63.0,0.0,30.0,1.0,64.0
3180,75.0,0.0,30.0,5.0,64.0
3181,63.0,0.0,30.0,6.0,64.0
3182,75.0,30.0,30.0,0.0,64.0
3183,61.0,25.0,30.0,1.0,64.0
3184,61.0,0.0,30.0,6.0,64.0
3185,73.0,0.0,30.0,5.0,64.0
3186,73.0,0.0,30.0,0.0,64.0
3187,75.0,0.0,30.0,0.0,64.0
3188,63.0,0.0,30.0,6.0,64.0
3189,75.0,30.0,30.0,5.0,64.0
3190,63.0,0.0,30.0,1.0,64.0
3191,73.0,0.0,30.0,5.0,64.0
3192,61.0,30.0,30.0,1.0,64.0
3193,73.0,0.0,30.0,0.0,64.0
3194,54.0,0.0,240.0,3.0,64.0
3195,42.0,0.0,240.0,10.0,64.0
3196,42.0,0.0,240.0,4.0,64.0
3197,54.0,0.0,240.0,8.0,64.0
3198,61.0,0.0,30.0,6.0,64.0
3199,75.0,0.0,30.0,0.0,64.0
3200,75.0,0.0,30.0,5.0,64.0
3201,63.0,30.0,30.0,1.0,64.0
3202,63.0,0.0,30.0,6.0,64.0
3203,61.0,0.0,30.0,1.0,64.0
3204,73.0,0.0,30.0,5.0,64.0
3205,61.0,30.0,30.0,6.0,64.0
3206,73.0,0.0,30.0,0.0,64.0
3207,75.0,0.0,30.0,0.0,64.0
3208,63.0,0.0,30.0,1.0,64.0
3209,75.0,0.0,30.0,5.0,64.0
3210,63.0,40.0,30.0,6.0,64.0
3211,59.0,0.0,60.0,1.0,64.0
3212,71.0,55.0,60.0,0.0,64.0
3213,71.0,0.0,60.0,5.0,64.0
3214,59.0,0.0,60.0,6.0,64.0
3215,73.0,0.0,60.0,5.0,64.0
3216,61.0,0.0,60.0,6.0,64.0
3217,61.0,5.0,60.0,1.0,64.0
3218,73.0,0.0,60.0,0.0,64.0
3219,39.0,0.0,390.0,10.0,64.0
3220,51.0,0.0,390.0,3.0,64.0
3221,51.0,200.0,390.0,8.0,64.0
3222,59.0,0.0,390.0,2.0,64.0
3223,39.0,0.0,390.0,4.0,64.0
3224,59.0,0.0,390.0,7.0,64.0
3225,71.0,0.0,120.0,1.0,64.0
3226,83.0,0.0,120.0,0.0,64.0
3227,83.0,80.0,120.0,5.0,64.0
3228,71.0,0.0,120.0,6.0,64.0
3229,85.0,0.0,90.0,0.0,64.0
3230,73.0,0.0,90.0,1.0,64.0
3231,85.0,80.0,90.0,5.0,64.0
3232,73.0,0.0,90.0,6.0,64.0
3233,71.0,0.0,30.0,6.0,64.0
3234,83.0,0.0,30.0,5.0,64.0
3235,83.0,0.0,30.0,0.0,64.0
3236,71.0,0.0,30.0,1.0,64.0
3237,70.0,0.0,120.0,1.0,64.0
3238,70.0,40.0,120.0,6.0,64.0
3239,82.0,0.0,120.0,0.0,64.0
3240,82.0,0.0,120.0,5.0,64.0
3241,71.0,0.0,30.0,6.0,64.0
3242,71.0,0.0,30.0,1.0,64.0
3243,83.0,0.0,30.0,5.0,64.0
3244,83.0,200.0,30.0,0.0,64.0
3245,80.0,0.0,120.0,5.0,64.0
3246,68.0,40.0,120.0,6.0,64.0
3247,80.0,0.0,120.0,0.0,64.0
3248,68.0,0.0,120.0,1.0,64.0
3249,66.0,0.0,30.0,6.0,64.0
3250,78.0,0.0,30.0,5.0,64.0
3251,78.0,0.0,30.0,0.0,64.0
3252,66.0,200.0,30.0,1.0,64.0
3253,64.0,0.0,120.0,1.0,64.0
3254,76.0,0.0,120.0,0.0,64.0
3255,76.0,0.0,120.0,5.0,64.0
3256,64.0,40.0,120.0,6.0,64.0
3257,63.0,0.0,30.0,6.0,64.0
3258,63.0,0.0,30.0,1.0,64.0
3259,75.0,200.0,30.0,0.0,64.0
3260,75.0,0.0,30.0,5.0,64.0
3261,73.0,0.0,120.0,5.0,64.0
3262,61.0,0.0,120.0,6.0,64.0
3263,73.0,40.0,120.0,0.0,64.0
3264,61.0,0.0,120.0,1.0,64.0
3265,59.0,0.0,30.0,6.0,64.0
3266,59.0,320.0,30.0,1.0,64.0
3267,71.0,0.0,30.0,5.0,64.0
3268,71.0,0.0,30.0,0.0,64.0
3269,40.0,0.0,390.0,4.0,64.0
3270,68.0,40.0,390.0,2.0,64.0
3271,52.0,0.0,390.0,3.0,64.0
3272,40.0,0.0,390.0,10.0,64.0
3273,68.0,0.0,390.0,7.0,64.0
3274,52.0,0.0,390.0,8.0,64.0
3275,73.0,40.0,120.0,6.0,64.0
3276,85.0,0.0,120.0,0.0,64.0
3277,85.0,0.0,120.0,5.0,64.0
3278,73.0,0.0,120.0,1.0,64.0
3279,87.0,0.0,30.0,5.0,64.0
3280,87.0,0.0,30.0,0.0,64.0
3281,75.0,0.0,30.0,1.0,64.0
3282,75.0,120.0,30.0,6.0,64.0
3283,85.0,160.0,90.0,5.0,64.0
3284,73.0,0.0,90.0,1.0,64.0
3285,73.0,0.0,90.0,6.0,64.0
3286,85.0,0.0,90.0,0.0,64.0
3287,84.0,40.0,120.0,5.0,64.0
3288,72.0,0.0,120.0,1.0,64.0
3289,84.0,0.0,120.0,0.0,64.0
3290,72.0,0.0,120.0,6.0,64.0
3291,85.0,200.0,30.0,0.0,64.0
3292,73.0,0.0,30.0,6.0,64.0
3293,85.0,0.0,30.0,5.0,64.0
3294,73.0,0.0,30.0,1.0,64.0
3295,83.0,0.0,120.0,0.0,64.0
3296,71.0,0.0,120.0,6.0,64.0
3297,71.0,40.0,120.0,1.0,64.0
3298,83.0,0.0,120.0,5.0,64.0
3299,70.0,0.0,30.0,6.0,64.0
3300,82.0,0.0,30.0,0.0,64.0
3301,82.0,200.0,30.0,5.0,64.0
3302,70.0,0.0,30.0,1.0,64.0
3303,46.0,0.0,390.0,10.0,64.0
3304,46.0,40.0,390.0,4.0,64.0
3305,68.0,40.0,120.0,6.0,64.0
3306,58.0,0.0,390.0,8.0,64.0
3307,58.0,0.0,390.0,3.0,64.0
3308,61.0,0.0,390.0,7.0,64.0
3309,80.0,0.0,120.0,5.0,64.0
3310,80.0,0.0,120.0,0.0,64.0
3311,68.0,0.0,120.0,1.0,64.0
3312,61.0,0.0,390.0,2.0,64.0
3313,78.0,0.0,30.0,5.0,64.0
3314,78.0,200.0,30.0,0.0,64.0
3315,66.0,0.0,30.0,1.0,64.0
3316,66.0,0.0,30.0,6.0,64.0
3317,73.0,0.0,120.0,5.0,64.0
3318,61.0,40.0,120.0,1.0,64.0
3319,61.0,0.0,120.0,6.0,64.0
3320,73.0,0.0,120.0,0.0,64.0
3321,76.0,0.0,90.0,5.0,64.0
3322,76.0,0.0,90.0,0.0,64.0
3323,64.0,280.0,90.0,6.0,64.0
3324,64.0,0.0,90.0,1.0,64.0
3325,59.0,40.0,390.0,8.0,64.0
3326,47.0,0.0,390.0,10.0,64.0
3327,59.0,0.0,390.0,3.0,64.0
3328,47.0,0.0,390.0,4.0,64.0
3329,63.0,0.0,120.0,1.0,64.0
3330,63.0,0.0,120.0,6.0,64.0
3331,75.0,0.0,120.0,5.0,64.0
3332,75.0,0.0,120.0,0.0,64.0
3333,59.0,0.0,120.0,2.0,64.0
3334,59.0,80.0,120.0,7.0,64.0
3335,76.0,0.0,90.0,0.0,64.0
3336,64.0,0.0,90.0,1.0,64.0
3337,76.0,0.0,90.0,5.0,64.0
3338,61.0,0.0,90.0,2.0,64.0
3339,64.0,0.0,90.0,6.0,64.0
3340,61.0,80.0,90.0,7.0,64.0
3341,61.0,0.0,90.0,7.0,64.0
3342,64.0,0.0,90.0,1.0,64.0
3343,76.0,120.0,90.0,0.0,64.0
3344,61.0,0.0,90.0,2.0,64.0
3345,76.0,0.0,90.0,5.0,64.0
3346,64.0,0.0,90.0,6.0,64.0
3347,63.0,0.0,90.0,2.0,64.0
3348,78.0,120.0,90.0,0.0,64.0
3349,63.0,0.0,90.0,7.0,64.0
3350,78.0,0.0,90.0,5.0,64.0
3351,66.0,0.0,90.0,6.0,64.0
3352,66.0,0.0,90.0,1.0,64.0
3353,66.0,120.0,90.0,6.0,64.0
3354,63.0,0.0,90.0,7.0,64.0
3355,78.0,0.0,90.0,5.0,64.0
3356,78.0,0.0,90.0,0.0,64.0
3357,63.0,0.0,90.0,2.0,64.0
3358,66.0,0.0,90.0,1.0,64.0
3359,80.0,0.0,90.0,5.0,64.0
3360,64.0,120.0,90.0,7.0,64.0
3361,80.0,0.0,90.0,0.0,64.0
3362,68.0,0.0,90.0,1.0,64.0
3363,64.0,0.0,90.0,2.0,64.0
3364,68.0,0.0,90.0,6.0,64.0
3365,68.0,0.0,90.0,1.0,64.0
3366,80.0,0.0,90.0,0.0,64.0
3367,64.0,0.0,90.0,2.0,64.0
3368,80.0,120.0,90.0,5.0,64.0
3369,68.0,0.0,90.0,6.0,64.0
3370,64.0,0.0,90.0,7.0,64.0
3371,70.0,0.0,90.0,1.0,64.0
3372,82.0,0.0,90.0,0.0,64.0
3373,66.0,0.0,90.0,7.0,64.0
3374,66.0,0.0,90.0,2.0,64.0
3375,70.0,120.0,90.0,6.0,64.0
3376,82.0,0.0,90.0,5.0,64.0
3377,66.0,0.0,90.0,7.0,64.0
3378,66.0,0.0,90.0,2.0,64.0
3379,82.0,0.0,90.0,0.0,64.0
3380,70.0,0.0,90.0,6.0,64.0
3381,82.0,0.0,90.0,5.0,64.0
3382,70.0,120.0,90.0,1.0,64.0
3383,71.0,120.0,90.0,6.0,64.0
3384,83.0,0.0,90.0,5.0,64.0
3385,68.0,0.0,90.0,7.0,64.0
3386,83.0,0.0,90.0,0.0,64.0
3387,68.0,0.0,90.0,2.0,64.0
3388,71.0,0.0,90.0,1.0,64.0
3389,83.0,0.0,90.0,5.0,64.0
3390,68.0,0.0,90.0,7.0,64.0
3391,83.0,0.0,90.0,0.0,64.0
3392,68.0,0.0,90.0,2.0,64.0
3393,71.0,160.0,90.0,6.0,64.0
3394,71.0,0.0,90.0,1.0,64.0
3395,66.0,115.0,120.0,2.0,64.0
3396,66.0,0.0,120.0,7.0,64.0
3397,52.0,5.0,240.0,3.0,64.0
3398,82.0,0.0,120.0,5.0,64.0
3399,70.0,0.0,120.0,6.0,64.0
3400,40.0,0.0,240.0,10.0,64.0
3401,52.0,0.0,240.0,8.0,64.0
3402,40.0,0.0,240.0,4.0,64.0
3403,82.0,0.0,120.0,0.0,64.0
3404,70.0,0.0,120.0,1.0,64.0
3405,68.0,0.0,120.0,1.0,64.0
3406,68.0,0.0,120.0,6.0,64.0
3407,80.0,0.0,120.0,0.0,64.0
3408,80.0,0.0,120.0,5.0,64.0
3409,64.0,0.0,120.0,7.0,64.0
3410,64.0,120.0,120.0,2.0,64.0
3411,78.0,0.0,120.0,5.0,64.0
3412,78.0,0.0,120.0,0.0,64.0
3413,63.0,115.0,120.0,7.0,64.0
3414,40.0,0.0,240.0,10.0,64.0
3415,66.0,0.0,120.0,6.0,64.0
3416,52.0,0.0,240.0,8.0,64.0
3417,52.0,0.0,240.0,3.0,64.0
3418,40.0,0.0,240.0,4.0,64.0
3419,63.0,0.0,120.0,2.0,64.0
3420,66.0,0.0,120.0,1.0,64.0
3421,76.0,0.0,120.0,5.0,64.0
3422,61.0,5.0,120.0,7.0,64.0
3423,64.0,235.0,120.0,1.0,64.0
3424,61.0,0.0,120.0,2.0,64.0
3425,64.0,0.0,120.0,6.0,64.0
3426,76.0,0.0,120.0,0.0,64.0
3427,75.0,0.0,480.0,5.0,64.0
3428,63.0,75.0,390.0,6.0,64.0
3429,54.0,0.0,240.0,3.0,64.0
3430,59.0,0.0,480.0,2.0,64.0
3431,54.0,165.0,240.0,8.0,64.0
3432,59.0,0.0,390.0,7.0,64.0
3433,75.0,0.0,480.0,0.0,64.0
3434,42.0,0.0,240.0,10.0,64.0
3435,63.0,30.0,480.0,1.0,64.0
3436,42.0,0.0,240.0,4.0,64.0
3437,42.0,0.0,240.0,10.0,64.0
3438,54.0,5.0,240.0,3.0,64.0
3439,42.0,0.0,240.0,4.0,64.0
3440,54.0,0.0,240.0,8.0,64.0
3441,73.0,30.0,30.0,5.0,64.0
3442,61.0,0.0,30.0,6.0,64.0
3443,58.0,20.0,390.0,7.0,64.0
3444,54.0,0.0,240.0,3.0,64.0
3445,73.0,0.0,30.0,0.0,64.0
3446,42.0,0.0,240.0,4.0,64.0
3447,58.0,0.0,390.0,2.0,64.0
3448,61.0,0.0,30.0,1.0,64.0
3449,54.0,5.0,240.0,8.0,64.0
3450,42.0,0.0,240.0,10.0,64.0
3451,63.0,0.0,30.0,1.0,64.0
3452,75.0,0.0,30.0,5.0,64.0
3453,75.0,0.0,30.0,0.0,64.0
3454,63.0,30.0,30.0,6.0,64.0
3455,73.0,0.0,30.0,5.0,64.0
3456,61.0,30.0,30.0,6.0,64.0
3457,73.0,0.0,30.0,0.0,64.0
3458,61.0,0.0,30.0,1.0,64.0
3459,75.0,0.0,30.0,5.0,64.0
3460,63.0,30.0,30.0,1.0,64.0
3461,75.0,0.0,30.0,0.0,64.0
3462,63.0,0.0,30.0,6.0,64.0
3463,61.0,0.0,30.0,1.0,64.0
3464,73.0,0.0,30.0,5.0,64.0
3465,73.0,0.0,30.0,0.0,64.0
3466,61.0,30.0,30.0,6.0,64.0
3467,75.0,0.0,30.0,0.0,64.0
3468,75.0,0.0,30.0,5.0,64.0
3469,63.0,0.0,30.0,1.0,64.0
3470,63.0,30.0,30.0,6.0,64.0
3471,73.0,0.0,30.0,0.0,64.0
3472,61.0,0.0,30.0,1.0,64.0
3473,73.0,0.0,30.0,5.0,64.0
3474,61.0,25.0,30.0,6.0,64.0
3475,75.0,0.0,30.0,5.0,64.0
3476,63.0,30.0,30.0,1.0,64.0
3477,63.0,0.0,30.0,6.0,64.0
3478,75.0,0.0,30.0,0.0,64.0
3479,61.0,0.0,30.0,6.0,64.0
3480,42.0,0.0,240.0,4.0,64.0
3481,54.0,0.0,240.0,3.0,64.0
3482,73.0,30.0,30.0,5.0,64.0
3483,73.0,0.0,30.0,0.0,64.0
3484,42.0,0.0,240.0,10.0,64.0
3485,54.0,240.0,240.0,8.0,64.0
3486,61.0,0.0,30.0,1.0,64.0
3487,63.0,0.0,30.0,1.0,64.0
3488,75.0,0.0,30.0,0.0,64.0
3489,75.0,30.0,30.0,5.0,64.0
3490,63.0,0.0,30.0,6.0,64.0
3491,61.0,30.0,30.0,6.0,64.0
3492,61.0,0.0,30.0,1.0,64.0
3493,73.0,0.0,30.0,5.0,64.0
3494,73.0,0.0,30.0,0.0,64.0
3495,75.0,0.0,30.0,0.0,64.0
3496,63.0,30.0,30.0,6.0,64.0
3497,75.0,0.0,30.0,5.0,64.0
3498,63.0,0.0,30.0,1.0,64.0
3499,61.0,0.0,30.0,1.0,64.0
3500,73.0,0.0,30.0,5.0,64.0
3501,73.0,10.0,30.0,0.0,64.0
3502,61.0,0.0,30.0,6.0,64.0
3503,63.0,0.0,30.0,1.0,64.0
3504,75.0,30.0,30.0,5.0,64.0
3505,75.0,0.0,30.0,0.0,64.0
3506,63.0,0.0,30.0,6.0,64.0
3507,71.0,0.0,30.0,5.0,64.0
3508,59.0,0.0,30.0,6.0,64.0
3509,59.0,25.0,30.0,1.0,64.0
3510,71.0,0.0,30.0,0.0,64.0
3511,73.0,0.0,30.0,5.0,64.0
3512,61.0,0.0,30.0,1.0,64.0
3513,73.0,0.0,30.0,0.0,64.0
3514,61.0,0.0,30.0,6.0,64.0
3515,71.0,5.0,240.0,0.0,64.0
3516,59.0,0.0,240.0,1.0,64.0
3517,47.0,0.0,720.0,4.0,64.0
3518,47.0,0.0,630.0,10.0,64.0
3519,59.0,0.0,240.0,2.0,64.0
3520,59.0,235.0,240.0,7.0,64.0
3521,59.0,80.0,630.0,8.0,64.0
3522,59.0,0.0,720.0,3.0,64.0
3523,59.0,0.0,240.0,6.0,64.0
3524,71.0,0.0,240.0,5.0,64.0
3525,66.0,160.0,240.0,2.0,64.0
3526,71.0,0.0,240.0,1.0,64.0
3527,71.0,5.0,240.0,6.0,64.0
3528,90.0,75.0,630.0,5.0,64.0
3529,66.0,0.0,240.0,7.0,64.0
3530,90.0,0.0,630.0,0.0,64.0
3531,71.0,0.0,240.0,7.0,64.0
3532,75.0,0.0,240.0,6.0,64.0
3533,71.0,0.0,240.0,2.0,64.0
3534,75.0,160.0,240.0,1.0,64.0
3535,63.0,0.0,240.0,8.0,64.0
3536,78.0,5.0,240.0,6.0,64.0
3537,78.0,0.0,240.0,1.0,64.0
3538,63.0,0.0,240.0,3.0,64.0
3539,75.0,0.0,240.0,2.0,64.0
3540,51.0,80.0,240.0,4.0,64.0
3541,75.0,0.0,240.0,7.0,64.0
3542,51.0,0.0,240.0,10.0,64.0
3543,73.0,0.0,240.0,2.0,64.0
3544,88.0,0.0,90.0,0.0,64.0
3545,78.0,0.0,720.0,6.0,64.0
3546,66.0,75.0,390.0,8.0,64.0
3547,54.0,0.0,390.0,10.0,64.0
3548,66.0,0.0,390.0,3.0,64.0
3549,78.0,0.0,720.0,1.0,64.0
3550,88.0,80.0,90.0,5.0,64.0
3551,54.0,0.0,390.0,4.0,64.0
3552,73.0,0.0,240.0,7.0,64.0
3553,87.0,80.0,90.0,0.0,64.0
3554,87.0,0.0,90.0,5.0,64.0
3555,85.0,80.0,90.0,5.0,64.0
3556,85.0,0.0,90.0,0.0,64.0
3557,83.0,80.0,90.0,0.0,64.0
3558,76.0,0.0,240.0,2.0,64.0
3559,76.0,5.0,240.0,7.0,64.0
3560,83.0,0.0,90.0,5.0,64.0
3561,85.0,0.0,90.0,5.0,64.0
3562,85.0,0.0,90.0,0.0,64.0
3563,82.0,235.0,90.0,5.0,64.0
3564,82.0,0.0,90.0,0.0,64.0
3565,47.0,0.0,390.0,10.0,64.0
3566,47.0,0.0,480.0,4.0,64.0
3567,59.0,0.0,480.0,3.0,64.0
3568,59.0,80.0,390.0,8.0,64.0
3569,75.0,0.0,240.0,2.0,64.0
3570,83.0,165.0,240.0,0.0,64.0
3571,83.0,0.0,240.0,5.0,64.0
3572,75.0,0.0,240.0,7.0,64.0
3573,71.0,0.0,240.0,2.0,64.0
3574,78.0,0.0,630.0,0.0,64.0
3575,75.0,240.0,240.0,6.0,64.0
3576,75.0,0.0,240.0,1.0,64.0
3577,78.0,75.0,630.0,5.0,64.0
3578,71.0,0.0,240.0,7.0,64.0
3579,51.0,0.0,480.0,3.0,64.0
3580,71.0,0.0,240.0,1.0,64.0
3581,51.0,0.0,390.0,8.0,64.0
3582,71.0,0.0,240.0,6.0,64.0
3583,39.0,80.0,480.0,4.0,64.0
3584,66.0,0.0,240.0,2.0,64.0
3585,39.0,0.0,390.0,10.0,64.0
3586,66.0,160.0,240.0,7.0,64.0
3587,66.0,0.0,240.0,6.0,64.0
3588,63.0,0.0,240.0,2.0,64.0
3589,63.0,5.0,240.0,7.0,64.0
3590,66.0,0.0,240.0,1.0,64.0
3591,54.0,0.0,480.0,3.0,64.0
3592,76.0,0.0,90.0,0.0,64.0
3593,58.0,80.0,240.0,2.0,64.0
3594,58.0,0.0,240.0,7.0,64.0
3595,76.0,80.0,90.0,5.0,64.0
3596,42.0,75.0,390.0,10.0,64.0
3597,42.0,0.0,480.0,4.0,64.0
3598,61.0,0.0,240.0,6.0,64.0
3599,54.0,0.0,390.0,8.0,64.0
3600,61.0,0.0,240.0,1.0,64.0
3601,75.0,80.0,90.0,5.0,64.0
3602,75.0,0.0,90.0,0.0,64.0
3603,73.0,0.0,90.0,5.0,64.0
3604,73.0,0.0,90.0,0.0,64.0
3605,64.0,0.0,240.0,6.0,64.0
3606,64.0,0.0,240.0,1.0,64.0
3607,71.0,80.0,90.0,0.0,64.0
3608,61.0,960.0,240.0,2.0,64.0
3609,61.0,5.0,240.0,7.0,64.0
3610,71.0,0.0,90.0,5.0,64.0
3611,73.0,0.0,90.0,5.0,64.0
3612,73.0,0.0,90.0,0.0,64.0
3613,70.0,0.0,90.0,5.0,64.0
3614,70.0,0.0,90.0,0.0,64.0
3615,64.0,360.0,960.0,6.0,64.0
3616,35.0,40.0,1320.0,10.0,64.0
3617,70.0,0.0,960.0,5.0,64.0
3618,70.0,0.0,960.0,0.0,64.0
3619,47.0,0.0,1320.0,8.0,64.0
3620,64.0,0.0,960.0,1.0,64.0
3621,35.0,0.0,1320.0,4.0,64.0
3622,61.0,0.0,960.0,2.0,64.0
3623,47.0,0.0,1320.0,3.0,64.0
3624,61.0,0.0,960.0,7.0,64.0
3625,63.0,0.0,390.0,1.0,64.0
3626,59.0,0.0,390.0,2.0,64.0
3627,59.0,0.0,390.0,7.0,64.0
3628,71.0,0.0,390.0,0.0,64.0
3629,63.0,0.0,390.0,6.0,64.0
3630,71.0,0.0,390.0,5.0,64.0
