,note,step,duration,channel,velocity
0,59.0,0.0,5460.0,1.0,0.0
1,67.0,10.0,5460.0,1.0,0.0
2,62.0,0.0,390.0,4.0,0.0
3,71.0,40.0,390.0,4.0,0.0
4,62.0,0.0,390.0,3.0,0.0
5,71.0,0.0,390.0,3.0,0.0
6,79.0,0.0,390.0,3.0,0.0
7,71.0,0.0,1620.0,0.0,0.0
8,79.0,10.0,1620.0,0.0,0.0
9,43.0,240.0,210.0,7.0,0.0
10,67.0,0.0,210.0,5.0,0.0
11,55.0,0.0,210.0,6.0,0.0
12,79.0,0.0,600.0,3.0,0.0
13,71.0,0.0,210.0,5.0,0.0
14,47.0,240.0,210.0,7.0,0.0
15,59.0,0.0,210.0,6.0,0.0
16,71.0,160.0,600.0,4.0,0.0
17,74.0,170.0,210.0,5.0,0.0
18,62.0,0.0,210.0,6.0,0.0
19,50.0,0.0,210.0,7.0,0.0
20,67.0,0.0,390.0,6.0,0.0
21,62.0,0.0,390.0,5.0,0.0
22,55.0,80.0,390.0,7.0,0.0
23,81.0,70.0,60.0,3.0,0.0
24,72.0,0.0,60.0,4.0,0.0
25,71.0,0.0,60.0,4.0,0.0
26,79.0,40.0,60.0,3.0,0.0
27,78.0,0.0,120.0,3.0,0.0
28,69.0,190.0,120.0,4.0,0.0
29,71.0,0.0,210.0,4.0,0.0
30,55.0,480.0,390.0,6.0,0.0
31,79.0,160.0,210.0,3.0,0.0
32,74.0,0.0,390.0,5.0,0.0
33,43.0,0.0,390.0,7.0,0.0
34,67.0,0.0,120.0,4.0,0.0
35,74.0,40.0,120.0,3.0,0.0
36,62.0,40.0,390.0,4.0,0.0
37,71.0,0.0,390.0,4.0,0.0
38,79.0,0.0,390.0,4.0,0.0
39,74.0,10.0,1620.0,0.0,0.0
40,83.0,0.0,1620.0,0.0,0.0
41,74.0,0.0,390.0,3.0,0.0
42,67.0,0.0,390.0,3.0,0.0
43,83.0,0.0,390.0,3.0,0.0
44,43.0,240.0,210.0,7.0,0.0
45,55.0,0.0,210.0,6.0,0.0
46,67.0,0.0,210.0,5.0,0.0
47,47.0,0.0,210.0,7.0,0.0
48,83.0,0.0,600.0,3.0,0.0
49,59.0,240.0,210.0,6.0,0.0
50,71.0,0.0,210.0,5.0,0.0
51,79.0,160.0,600.0,4.0,0.0
52,62.0,0.0,210.0,6.0,0.0
53,50.0,170.0,210.0,7.0,0.0
54,74.0,0.0,210.0,5.0,0.0
55,67.0,0.0,390.0,6.0,0.0
56,55.0,60.0,390.0,7.0,0.0
57,62.0,0.0,390.0,5.0,0.0
58,84.0,0.0,60.0,3.0,0.0
59,81.0,50.0,60.0,4.0,0.0
60,79.0,40.0,60.0,4.0,0.0
61,83.0,20.0,30.0,3.0,0.0
62,78.0,190.0,120.0,4.0,0.0
63,81.0,20.0,90.0,3.0,0.0
64,83.0,40.0,210.0,3.0,0.0
65,43.0,0.0,390.0,7.0,0.0
66,74.0,0.0,390.0,5.0,0.0
67,79.0,120.0,240.0,4.0,0.0
68,55.0,480.0,390.0,6.0,0.0
69,71.0,40.0,120.0,4.0,0.0
70,79.0,0.0,120.0,3.0,0.0
71,86.0,80.0,570.0,3.0,0.0
72,67.0,40.0,390.0,3.0,0.0
73,74.0,0.0,390.0,3.0,0.0
74,83.0,0.0,570.0,4.0,0.0
75,67.0,0.0,390.0,4.0,0.0
76,74.0,0.0,390.0,4.0,0.0
77,86.0,0.0,1680.0,0.0,0.0
78,43.0,140.0,210.0,7.0,0.0
79,67.0,0.0,210.0,5.0,0.0
80,55.0,0.0,210.0,6.0,0.0
81,47.0,0.0,210.0,7.0,0.0
82,71.0,0.0,210.0,5.0,0.0
83,59.0,100.0,210.0,6.0,0.0
84,84.0,0.0,60.0,3.0,0.0
85,84.0,20.0,60.0,4.0,0.0
86,83.0,0.0,60.0,3.0,0.0
87,50.0,0.0,210.0,7.0,0.0
88,74.0,160.0,210.0,5.0,0.0
89,83.0,120.0,60.0,4.0,0.0
90,62.0,0.0,210.0,6.0,0.0
91,81.0,20.0,60.0,3.0,0.0
92,81.0,0.0,60.0,4.0,0.0
93,79.0,0.0,120.0,4.0,0.0
94,59.0,0.0,210.0,6.0,0.0
95,47.0,40.0,210.0,7.0,0.0
96,71.0,0.0,210.0,5.0,0.0
97,79.0,80.0,120.0,3.0,0.0
98,78.0,0.0,120.0,4.0,0.0
99,78.0,60.0,120.0,3.0,0.0
100,62.0,140.0,210.0,6.0,0.0
101,76.0,120.0,60.0,3.0,0.0
102,76.0,0.0,60.0,4.0,0.0
103,74.0,0.0,210.0,5.0,0.0
104,50.0,0.0,210.0,7.0,0.0
105,74.0,0.0,60.0,3.0,0.0
106,74.0,20.0,60.0,4.0,0.0
107,67.0,20.0,210.0,5.0,0.0
108,72.0,0.0,90.0,3.0,0.0
109,55.0,0.0,210.0,6.0,0.0
110,43.0,0.0,210.0,7.0,0.0
111,72.0,90.0,90.0,4.0,0.0
112,71.0,0.0,90.0,4.0,0.0
113,71.0,20.0,90.0,3.0,0.0
114,79.0,0.0,240.0,0.0,0.0
115,83.0,100.0,15.0,0.0,0.0
116,71.0,0.0,210.0,5.0,0.0
117,60.0,0.0,210.0,6.0,0.0
118,69.0,0.0,90.0,3.0,0.0
119,69.0,100.0,90.0,4.0,0.0
120,48.0,20.0,210.0,7.0,0.0
121,67.0,0.0,90.0,3.0,0.0
122,67.0,20.0,90.0,4.0,0.0
123,48.0,240.0,210.0,7.0,0.0
124,69.0,0.0,810.0,1.0,0.0
125,78.0,0.0,720.0,0.0,0.0
126,81.0,90.0,720.0,0.0,0.0
127,66.0,0.0,600.0,4.0,0.0
128,62.0,0.0,600.0,4.0,0.0
129,62.0,30.0,810.0,1.0,0.0
130,60.0,0.0,210.0,6.0,0.0
131,69.0,0.0,600.0,3.0,0.0
132,64.0,70.0,600.0,3.0,0.0
133,72.0,0.0,210.0,5.0,0.0
134,57.0,170.0,210.0,6.0,0.0
135,69.0,0.0,210.0,5.0,0.0
136,45.0,0.0,210.0,7.0,0.0
137,42.0,0.0,210.0,7.0,0.0
138,54.0,40.0,210.0,6.0,0.0
139,66.0,0.0,210.0,5.0,0.0
140,67.0,0.0,120.0,4.0,0.0
141,38.0,0.0,210.0,7.0,0.0
142,50.0,0.0,210.0,6.0,0.0
143,62.0,20.0,210.0,5.0,0.0
144,71.0,0.0,120.0,3.0,0.0
145,83.0,0.0,120.0,0.0,0.0
146,79.0,80.0,120.0,0.0,0.0
147,69.0,0.0,120.0,4.0,0.0
148,84.0,0.0,90.0,0.0,0.0
149,72.0,200.0,120.0,3.0,0.0
150,81.0,20.0,90.0,0.0,0.0
151,83.0,0.0,210.0,0.0,0.0
152,71.0,0.0,210.0,1.0,0.0
153,67.0,0.0,210.0,1.0,0.0
154,71.0,40.0,390.0,3.0,0.0
155,71.0,0.0,210.0,4.0,0.0
156,55.0,0.0,210.0,6.0,0.0
157,43.0,0.0,210.0,7.0,0.0
158,79.0,140.0,210.0,0.0,0.0
159,67.0,0.0,210.0,5.0,0.0
160,79.0,0.0,480.0,0.0,0.0
161,67.0,0.0,210.0,1.0,0.0
162,43.0,20.0,210.0,7.0,0.0
163,71.0,60.0,90.0,4.0,0.0
164,67.0,0.0,210.0,5.0,0.0
165,83.0,100.0,240.0,0.0,0.0
166,55.0,0.0,210.0,1.0,0.0
167,55.0,0.0,210.0,6.0,0.0
168,67.0,20.0,90.0,4.0,0.0
169,84.0,100.0,240.0,0.0,0.0
170,72.0,100.0,90.0,4.0,0.0
171,45.0,20.0,210.0,7.0,0.0
172,69.0,0.0,210.0,5.0,0.0
173,55.0,0.0,210.0,1.0,0.0
174,67.0,0.0,210.0,1.0,0.0
175,57.0,0.0,210.0,6.0,0.0
176,67.0,20.0,90.0,4.0,0.0
177,74.0,100.0,90.0,4.0,0.0
178,67.0,0.0,210.0,1.0,0.0
179,59.0,0.0,210.0,6.0,0.0
180,47.0,0.0,210.0,7.0,0.0
181,86.0,200.0,240.0,0.0,0.0
182,55.0,20.0,210.0,1.0,0.0
183,79.0,0.0,240.0,0.0,0.0
184,71.0,0.0,210.0,5.0,0.0
185,67.0,20.0,90.0,4.0,0.0
186,60.0,200.0,210.0,6.0,0.0
187,72.0,0.0,210.0,5.0,0.0
188,55.0,0.0,3540.0,1.0,0.0
189,67.0,10.0,3540.0,1.0,0.0
190,88.0,10.0,1620.0,0.0,0.0
191,79.0,0.0,1620.0,0.0,0.0
192,48.0,0.0,210.0,7.0,0.0
193,88.0,0.0,390.0,3.0,0.0
194,79.0,0.0,390.0,3.0,0.0
195,72.0,0.0,390.0,3.0,0.0
196,76.0,40.0,390.0,4.0,0.0
197,60.0,0.0,210.0,5.0,0.0
198,36.0,0.0,210.0,7.0,0.0
199,48.0,240.0,210.0,6.0,0.0
200,40.0,0.0,210.0,7.0,0.0
201,60.0,0.0,390.0,4.0,0.0
202,64.0,200.0,210.0,5.0,0.0
203,60.0,40.0,390.0,3.0,0.0
204,52.0,0.0,210.0,6.0,0.0
205,67.0,0.0,210.0,5.0,0.0
206,43.0,0.0,210.0,7.0,0.0
207,55.0,240.0,210.0,6.0,0.0
208,72.0,0.0,210.0,5.0,0.0
209,60.0,160.0,210.0,6.0,0.0
210,48.0,0.0,210.0,7.0,0.0
211,79.0,80.0,120.0,3.0,0.0
212,55.0,40.0,210.0,6.0,0.0
213,67.0,0.0,210.0,5.0,0.0
214,43.0,0.0,210.0,7.0,0.0
215,76.0,0.0,120.0,4.0,0.0
216,79.0,0.0,120.0,4.0,0.0
217,84.0,190.0,120.0,3.0,0.0
218,52.0,0.0,210.0,6.0,0.0
219,84.0,0.0,210.0,4.0,0.0
220,40.0,0.0,210.0,7.0,0.0
221,64.0,240.0,210.0,5.0,0.0
222,88.0,0.0,210.0,3.0,0.0
223,88.0,440.0,210.0,3.0,0.0
224,48.0,0.0,210.0,6.0,0.0
225,60.0,0.0,210.0,5.0,0.0
226,36.0,0.0,210.0,7.0,0.0
227,84.0,0.0,210.0,4.0,0.0
228,83.0,40.0,390.0,4.0,0.0
229,86.0,0.0,390.0,3.0,0.0
230,86.0,0.0,1620.0,0.0,0.0
231,83.0,0.0,1620.0,0.0,0.0
232,67.0,240.0,210.0,5.0,0.0
233,43.0,0.0,210.0,7.0,0.0
234,55.0,0.0,210.0,6.0,0.0
235,59.0,200.0,210.0,6.0,0.0
236,67.0,0.0,390.0,3.0,0.0
237,71.0,0.0,210.0,5.0,0.0
238,59.0,40.0,390.0,4.0,0.0
239,59.0,0.0,390.0,3.0,0.0
240,47.0,0.0,210.0,7.0,0.0
241,67.0,0.0,390.0,4.0,0.0
242,74.0,240.0,210.0,5.0,0.0
243,50.0,0.0,210.0,7.0,0.0
244,62.0,0.0,210.0,6.0,0.0
245,55.0,0.0,210.0,7.0,0.0
246,79.0,160.0,210.0,5.0,0.0
247,67.0,0.0,210.0,6.0,0.0
248,62.0,0.0,210.0,6.0,0.0
249,50.0,0.0,210.0,7.0,0.0
250,71.0,0.0,120.0,4.0,0.0
251,79.0,80.0,120.0,3.0,0.0
252,74.0,40.0,210.0,5.0,0.0
253,79.0,190.0,120.0,4.0,0.0
254,83.0,0.0,120.0,3.0,0.0
255,71.0,0.0,210.0,5.0,0.0
256,86.0,0.0,210.0,3.0,0.0
257,47.0,0.0,210.0,7.0,0.0
258,59.0,0.0,210.0,6.0,0.0
259,83.0,240.0,210.0,4.0,0.0
260,43.0,0.0,210.0,7.0,0.0
261,55.0,0.0,210.0,6.0,0.0
262,67.0,0.0,210.0,5.0,0.0
263,86.0,0.0,210.0,3.0,0.0
264,83.0,240.0,210.0,4.0,0.0
265,84.0,30.0,1620.0,0.0,0.0
266,57.0,0.0,600.0,6.0,0.0
267,84.0,140.0,210.0,3.0,0.0
268,84.0,0.0,210.0,4.0,0.0
269,69.0,10.0,810.0,1.0,0.0
270,76.0,0.0,810.0,0.0,0.0
271,64.0,90.0,600.0,5.0,0.0
272,45.0,0.0,600.0,7.0,0.0
273,67.0,0.0,810.0,1.0,0.0
274,88.0,0.0,90.0,3.0,0.0
275,88.0,120.0,90.0,4.0,0.0
276,86.0,0.0,90.0,3.0,0.0
277,86.0,120.0,90.0,4.0,0.0
278,84.0,30.0,90.0,4.0,0.0
279,84.0,0.0,90.0,3.0,0.0
280,83.0,0.0,90.0,4.0,0.0
281,83.0,110.0,90.0,3.0,0.0
282,60.0,20.0,210.0,6.0,0.0
283,81.0,0.0,90.0,3.0,0.0
284,81.0,100.0,90.0,4.0,0.0
285,48.0,0.0,210.0,7.0,0.0
286,76.0,0.0,210.0,5.0,0.0
287,79.0,220.0,90.0,4.0,0.0
288,79.0,0.0,90.0,3.0,0.0
289,78.0,0.0,210.0,3.0,0.0
290,62.0,0.0,600.0,6.0,0.0
291,69.0,0.0,810.0,1.0,0.0
292,62.0,10.0,810.0,1.0,0.0
293,78.0,140.0,210.0,4.0,0.0
294,50.0,0.0,600.0,7.0,0.0
295,78.0,60.0,600.0,0.0,0.0
296,69.0,0.0,600.0,5.0,0.0
297,81.0,0.0,90.0,4.0,0.0
298,81.0,120.0,90.0,3.0,0.0
299,79.0,0.0,90.0,3.0,0.0
300,79.0,120.0,90.0,4.0,0.0
301,78.0,0.0,90.0,4.0,0.0
302,78.0,30.0,90.0,3.0,0.0
303,76.0,110.0,90.0,3.0,0.0
304,76.0,0.0,90.0,4.0,0.0
305,69.0,20.0,210.0,5.0,0.0
306,74.0,0.0,90.0,3.0,0.0
307,42.0,0.0,210.0,7.0,0.0
308,81.0,0.0,210.0,0.0,0.0
309,54.0,0.0,210.0,6.0,0.0
310,74.0,100.0,90.0,4.0,0.0
311,72.0,0.0,90.0,3.0,0.0
312,72.0,120.0,90.0,4.0,0.0
313,71.0,100.0,90.0,4.0,0.0
314,43.0,20.0,210.0,7.0,0.0
315,67.0,0.0,390.0,1.0,0.0
316,79.0,0.0,390.0,0.0,0.0
317,83.0,0.0,390.0,0.0,0.0
318,71.0,40.0,390.0,1.0,0.0
319,67.0,0.0,210.0,5.0,0.0
320,71.0,0.0,90.0,3.0,0.0
321,55.0,0.0,210.0,6.0,0.0
322,74.0,120.0,90.0,3.0,0.0
323,74.0,0.0,90.0,4.0,0.0
324,72.0,0.0,90.0,4.0,0.0
325,43.0,20.0,210.0,7.0,0.0
326,72.0,60.0,90.0,3.0,0.0
327,67.0,0.0,210.0,5.0,0.0
328,55.0,0.0,210.0,6.0,0.0
329,71.0,120.0,90.0,4.0,0.0
330,71.0,0.0,90.0,3.0,0.0
331,57.0,20.0,210.0,6.0,0.0
332,66.0,0.0,210.0,5.0,0.0
333,69.0,0.0,390.0,1.0,0.0
334,72.0,0.0,90.0,3.0,0.0
335,78.0,0.0,390.0,0.0,0.0
336,45.0,0.0,210.0,7.0,0.0
337,72.0,100.0,90.0,4.0,0.0
338,62.0,40.0,390.0,1.0,0.0
339,81.0,0.0,390.0,0.0,0.0
340,74.0,120.0,90.0,3.0,0.0
341,74.0,0.0,90.0,4.0,0.0
342,76.0,60.0,90.0,3.0,0.0
343,60.0,0.0,210.0,5.0,0.0
344,57.0,20.0,210.0,6.0,0.0
345,45.0,0.0,210.0,7.0,0.0
346,76.0,0.0,90.0,4.0,0.0
347,78.0,120.0,90.0,3.0,0.0
348,78.0,0.0,90.0,4.0,0.0
349,79.0,0.0,90.0,3.0,0.0
350,47.0,20.0,210.0,7.0,0.0
351,62.0,0.0,210.0,5.0,0.0
352,59.0,0.0,210.0,6.0,0.0
353,67.0,40.0,390.0,1.0,0.0
354,59.0,0.0,390.0,1.0,0.0
355,74.0,0.0,390.0,0.0,0.0
356,86.0,70.0,810.0,0.0,0.0
357,79.0,100.0,90.0,4.0,0.0
358,81.0,120.0,90.0,3.0,0.0
359,81.0,0.0,90.0,4.0,0.0
360,59.0,0.0,210.0,6.0,0.0
361,83.0,60.0,90.0,3.0,0.0
362,83.0,0.0,90.0,4.0,0.0
363,66.0,20.0,210.0,5.0,0.0
364,47.0,0.0,210.0,7.0,0.0
365,84.0,0.0,90.0,3.0,0.0
366,84.0,220.0,90.0,4.0,0.0
367,55.0,130.0,210.0,6.0,0.0
368,67.0,40.0,390.0,1.0,0.0
369,71.0,0.0,210.0,5.0,0.0
370,86.0,0.0,210.0,4.0,0.0
371,86.0,0.0,210.0,3.0,0.0
372,43.0,0.0,210.0,7.0,0.0
373,71.0,0.0,390.0,1.0,0.0
374,79.0,0.0,870.0,0.0,0.0
375,86.0,0.0,210.0,4.0,0.0
376,86.0,0.0,210.0,3.0,0.0
377,43.0,0.0,210.0,7.0,0.0
378,55.0,0.0,210.0,6.0,0.0
379,71.0,160.0,210.0,5.0,0.0
380,64.0,0.0,210.0,6.0,0.0
381,84.0,40.0,390.0,0.0,0.0
382,52.0,0.0,210.0,7.0,0.0
383,86.0,80.0,120.0,4.0,0.0
384,67.0,100.0,1230.0,1.0,0.0
385,55.0,0.0,1230.0,1.0,0.0
386,86.0,0.0,120.0,3.0,0.0
387,67.0,40.0,210.0,5.0,0.0
388,84.0,0.0,120.0,4.0,0.0
389,84.0,120.0,120.0,3.0,0.0
390,52.0,0.0,210.0,7.0,0.0
391,83.0,0.0,120.0,4.0,0.0
392,83.0,40.0,120.0,3.0,0.0
393,64.0,0.0,210.0,6.0,0.0
394,67.0,40.0,210.0,5.0,0.0
395,83.0,0.0,390.0,0.0,0.0
396,84.0,0.0,15.0,4.0,0.0
397,78.0,40.0,390.0,0.0,0.0
398,84.0,100.0,15.0,3.0,0.0
399,50.0,0.0,210.0,7.0,0.0
400,66.0,0.0,210.0,5.0,0.0
401,62.0,40.0,210.0,6.0,0.0
402,83.0,120.0,120.0,3.0,0.0
403,83.0,0.0,120.0,4.0,0.0
404,82.0,0.0,120.0,4.0,0.0
405,62.0,20.0,210.0,6.0,0.0
406,82.0,40.0,120.0,3.0,0.0
407,50.0,0.0,210.0,7.0,0.0
408,74.0,0.0,210.0,5.0,0.0
409,83.0,20.0,90.0,3.0,0.0
410,81.0,40.0,390.0,0.0,0.0
411,76.0,30.0,810.0,0.0,0.0
412,83.0,80.0,120.0,3.0,0.0
413,48.0,40.0,210.0,7.0,0.0
414,60.0,0.0,210.0,6.0,0.0
415,64.0,0.0,210.0,5.0,0.0
416,83.0,100.0,15.0,4.0,0.0
417,81.0,0.0,120.0,3.0,0.0
418,81.0,20.0,120.0,4.0,0.0
419,80.0,0.0,120.0,3.0,0.0
420,64.0,40.0,210.0,5.0,0.0
421,60.0,0.0,210.0,6.0,0.0
422,48.0,0.0,210.0,7.0,0.0
423,80.0,40.0,120.0,4.0,0.0
424,81.0,120.0,120.0,4.0,0.0
425,81.0,0.0,15.0,3.0,0.0
426,79.0,40.0,390.0,0.0,0.0
427,49.0,0.0,210.0,7.0,0.0
428,81.0,80.0,120.0,4.0,0.0
429,69.0,40.0,210.0,5.0,0.0
430,67.0,0.0,390.0,1.0,0.0
431,61.0,0.0,210.0,6.0,0.0
432,69.0,0.0,390.0,1.0,0.0
433,79.0,0.0,120.0,3.0,0.0
434,79.0,90.0,120.0,4.0,0.0
435,78.0,40.0,120.0,4.0,0.0
436,78.0,0.0,120.0,3.0,0.0
437,69.0,0.0,210.0,5.0,0.0
438,49.0,40.0,210.0,7.0,0.0
439,61.0,0.0,210.0,6.0,0.0
440,79.0,0.0,120.0,3.0,0.0
441,79.0,100.0,120.0,4.0,0.0
442,78.0,20.0,210.0,0.0,0.0
443,66.0,100.0,90.0,5.0,0.0
444,78.0,0.0,90.0,3.0,0.0
445,62.0,40.0,390.0,1.0,0.0
446,69.0,0.0,390.0,1.0,0.0
447,78.0,0.0,390.0,4.0,0.0
448,50.0,0.0,210.0,7.0,0.0
449,62.0,0.0,210.0,6.0,0.0
450,74.0,0.0,210.0,0.0,0.0
451,69.0,0.0,90.0,5.0,0.0
452,81.0,120.0,90.0,3.0,0.0
453,38.0,0.0,210.0,7.0,0.0
454,50.0,20.0,210.0,6.0,0.0
455,81.0,0.0,210.0,0.0,0.0
456,78.0,0.0,210.0,0.0,0.0
457,66.0,60.0,90.0,5.0,0.0
458,78.0,0.0,90.0,3.0,0.0
459,74.0,120.0,90.0,3.0,0.0
460,62.0,0.0,90.0,5.0,0.0
461,81.0,0.0,210.0,0.0,0.0
462,42.0,0.0,210.0,7.0,0.0
463,66.0,100.0,90.0,5.0,0.0
464,78.0,0.0,90.0,3.0,0.0
465,54.0,0.0,210.0,6.0,0.0
466,78.0,20.0,210.0,0.0,0.0
467,81.0,120.0,90.0,3.0,0.0
468,69.0,0.0,90.0,5.0,0.0
469,78.0,0.0,210.0,0.0,0.0
470,62.0,0.0,210.0,1.0,0.0
471,69.0,20.0,210.0,1.0,0.0
472,50.0,0.0,210.0,6.0,0.0
473,66.0,100.0,90.0,5.0,0.0
474,81.0,0.0,210.0,0.0,0.0
475,78.0,0.0,90.0,3.0,0.0
476,81.0,0.0,210.0,4.0,0.0
477,66.0,0.0,210.0,4.0,0.0
478,74.0,0.0,210.0,4.0,0.0
479,38.0,0.0,210.0,7.0,0.0
480,74.0,0.0,90.0,3.0,0.0
481,62.0,120.0,90.0,5.0,0.0
482,71.0,0.0,390.0,1.0,0.0
483,55.0,0.0,210.0,6.0,0.0
484,67.0,0.0,390.0,1.0,0.0
485,83.0,0.0,90.0,3.0,0.0
486,43.0,20.0,210.0,7.0,0.0
487,83.0,0.0,390.0,4.0,0.0
488,74.0,0.0,390.0,4.0,0.0
489,71.0,100.0,90.0,5.0,0.0
490,67.0,40.0,390.0,4.0,0.0
491,86.0,120.0,90.0,3.0,0.0
492,74.0,0.0,90.0,5.0,0.0
493,62.0,0.0,210.0,6.0,0.0
494,50.0,0.0,210.0,7.0,0.0
495,83.0,0.0,210.0,0.0,0.0
496,71.0,0.0,90.0,5.0,0.0
497,79.0,20.0,210.0,0.0,0.0
498,83.0,60.0,90.0,3.0,0.0
499,79.0,0.0,90.0,3.0,0.0
500,67.0,120.0,90.0,5.0,0.0
501,79.0,0.0,210.0,0.0,0.0
502,59.0,0.0,210.0,6.0,0.0
503,71.0,100.0,90.0,5.0,0.0
504,47.0,20.0,210.0,7.0,0.0
505,83.0,0.0,90.0,3.0,0.0
506,83.0,0.0,210.0,0.0,0.0
507,74.0,0.0,90.0,5.0,0.0
508,86.0,120.0,90.0,3.0,0.0
509,43.0,0.0,210.0,7.0,0.0
510,83.0,0.0,210.0,4.0,0.0
511,74.0,0.0,210.0,4.0,0.0
512,67.0,0.0,210.0,4.0,0.0
513,83.0,0.0,210.0,0.0,0.0
514,55.0,0.0,210.0,6.0,0.0
515,79.0,20.0,210.0,0.0,0.0
516,83.0,100.0,90.0,3.0,0.0
517,71.0,0.0,210.0,1.0,0.0
518,67.0,0.0,210.0,1.0,0.0
519,71.0,0.0,90.0,5.0,0.0
520,67.0,120.0,90.0,5.0,0.0
521,79.0,0.0,90.0,3.0,0.0
522,66.0,0.0,390.0,4.0,0.0
523,74.0,0.0,390.0,4.0,0.0
524,81.0,0.0,390.0,4.0,0.0
525,69.0,0.0,390.0,1.0,0.0
526,62.0,40.0,390.0,1.0,0.0
527,78.0,0.0,90.0,3.0,0.0
528,62.0,0.0,210.0,6.0,0.0
529,50.0,20.0,210.0,7.0,0.0
530,66.0,100.0,90.0,5.0,0.0
531,81.0,120.0,90.0,3.0,0.0
532,69.0,0.0,90.0,5.0,0.0
533,66.0,60.0,90.0,5.0,0.0
534,78.0,0.0,90.0,3.0,0.0
535,78.0,0.0,210.0,0.0,0.0
536,50.0,20.0,210.0,6.0,0.0
537,38.0,0.0,210.0,7.0,0.0
538,81.0,0.0,210.0,0.0,0.0
539,62.0,0.0,90.0,5.0,0.0
540,74.0,120.0,90.0,3.0,0.0
541,78.0,0.0,90.0,3.0,0.0
542,81.0,0.0,210.0,0.0,0.0
543,78.0,20.0,210.0,0.0,0.0
544,42.0,0.0,210.0,7.0,0.0
545,66.0,100.0,90.0,5.0,0.0
546,54.0,0.0,210.0,6.0,0.0
547,81.0,120.0,90.0,3.0,0.0
548,69.0,0.0,90.0,5.0,0.0
549,81.0,0.0,210.0,0.0,0.0
550,78.0,0.0,90.0,3.0,0.0
551,50.0,0.0,210.0,6.0,0.0
552,81.0,0.0,210.0,4.0,0.0
553,74.0,0.0,210.0,4.0,0.0
554,66.0,0.0,210.0,4.0,0.0
555,62.0,20.0,210.0,1.0,0.0
556,69.0,0.0,210.0,1.0,0.0
557,66.0,100.0,90.0,5.0,0.0
558,78.0,0.0,210.0,0.0,0.0
559,38.0,0.0,210.0,7.0,0.0
560,62.0,120.0,90.0,5.0,0.0
561,74.0,0.0,90.0,3.0,0.0
562,67.0,0.0,390.0,4.0,0.0
563,71.0,40.0,390.0,1.0,0.0
564,67.0,0.0,390.0,1.0,0.0
565,74.0,0.0,390.0,4.0,0.0
566,83.0,0.0,390.0,4.0,0.0
567,71.0,0.0,90.0,5.0,0.0
568,43.0,20.0,210.0,7.0,0.0
569,55.0,0.0,210.0,6.0,0.0
570,83.0,100.0,90.0,3.0,0.0
571,74.0,120.0,90.0,5.0,0.0
572,86.0,0.0,90.0,3.0,0.0
573,83.0,0.0,90.0,3.0,0.0
574,62.0,0.0,210.0,6.0,0.0
575,50.0,20.0,210.0,7.0,0.0
576,83.0,0.0,210.0,0.0,0.0
577,71.0,60.0,90.0,5.0,0.0
578,79.0,0.0,210.0,0.0,0.0
579,67.0,120.0,90.0,5.0,0.0
580,79.0,0.0,90.0,3.0,0.0
581,59.0,0.0,210.0,6.0,0.0
582,83.0,20.0,210.0,0.0,0.0
583,79.0,0.0,210.0,0.0,0.0
584,47.0,0.0,210.0,7.0,0.0
585,83.0,100.0,90.0,3.0,0.0
586,71.0,0.0,90.0,5.0,0.0
587,86.0,120.0,90.0,3.0,0.0
588,74.0,0.0,90.0,5.0,0.0
589,83.0,100.0,90.0,3.0,0.0
590,67.0,0.0,210.0,1.0,0.0
591,74.0,0.0,210.0,4.0,0.0
592,67.0,0.0,210.0,4.0,0.0
593,83.0,0.0,210.0,4.0,0.0
594,71.0,0.0,90.0,5.0,0.0
595,55.0,0.0,210.0,6.0,0.0
596,83.0,0.0,210.0,0.0,0.0
597,79.0,0.0,210.0,0.0,0.0
598,71.0,0.0,210.0,1.0,0.0
599,43.0,20.0,210.0,7.0,0.0
600,67.0,0.0,90.0,5.0,0.0
601,79.0,220.0,90.0,3.0,0.0
602,74.0,0.0,210.0,4.0,0.0
603,62.0,240.0,210.0,1.0,0.0
604,78.0,0.0,210.0,3.0,0.0
605,78.0,0.0,210.0,0.0,0.0
606,38.0,0.0,210.0,7.0,0.0
607,69.0,0.0,210.0,1.0,0.0
608,66.0,0.0,210.0,4.0,0.0
609,62.0,0.0,210.0,5.0,0.0
610,81.0,0.0,210.0,4.0,0.0
611,81.0,0.0,210.0,0.0,0.0
612,50.0,0.0,210.0,6.0,0.0
613,62.0,0.0,210.0,6.0,0.0
614,50.0,0.0,210.0,1.0,0.0
615,86.0,0.0,210.0,4.0,0.0
616,74.0,0.0,210.0,5.0,0.0
617,86.0,0.0,210.0,0.0,0.0
618,50.0,0.0,210.0,7.0,0.0
619,62.0,0.0,210.0,1.0,0.0
620,86.0,240.0,210.0,3.0,0.0
621,62.0,0.0,210.0,3.0,0.0
622,50.0,0.0,210.0,6.0,0.0
623,62.0,0.0,210.0,5.0,0.0
624,50.0,0.0,210.0,1.0,0.0
625,62.0,0.0,210.0,1.0,0.0
626,38.0,0.0,210.0,7.0,0.0
627,74.0,240.0,210.0,0.0,0.0
628,62.0,0.0,210.0,4.0,0.0
629,62.0,0.0,210.0,1.0,0.0
630,50.0,0.0,210.0,1.0,0.0
631,38.0,0.0,210.0,7.0,0.0
632,62.0,440.0,210.0,4.0,0.0
633,74.0,0.0,210.0,0.0,0.0
634,50.0,0.0,210.0,6.0,0.0
635,62.0,0.0,210.0,3.0,0.0
636,62.0,0.0,210.0,5.0,0.0
637,62.0,0.0,390.0,5.0,0.0
638,62.0,760.0,390.0,1.0,0.0
639,38.0,0.0,390.0,7.0,0.0
640,50.0,0.0,390.0,1.0,0.0
641,74.0,0.0,390.0,0.0,0.0
642,62.0,0.0,390.0,3.0,0.0
643,62.0,0.0,390.0,4.0,0.0
644,50.0,0.0,390.0,6.0,0.0
645,55.0,200.0,960.0,5.0,0.0
646,62.0,480.0,210.0,4.0,0.0
647,71.0,150.0,810.0,3.0,0.0
648,55.0,0.0,960.0,6.0,0.0
649,43.0,0.0,960.0,7.0,0.0
650,62.0,130.0,450.0,4.0,0.0
651,62.0,40.0,450.0,4.0,0.0
652,45.0,240.0,960.0,7.0,0.0
653,54.0,200.0,480.0,5.0,0.0
654,57.0,0.0,960.0,6.0,0.0
655,72.0,240.0,240.0,3.0,0.0
656,69.0,0.0,240.0,3.0,0.0
657,62.0,40.0,450.0,4.0,0.0
658,60.0,80.0,390.0,5.0,0.0
659,67.0,160.0,240.0,3.0,0.0
660,66.0,0.0,240.0,3.0,0.0
661,62.0,160.0,480.0,4.0,0.0
662,67.0,0.0,240.0,3.0,0.0
663,59.0,240.0,480.0,6.0,0.0
664,47.0,0.0,480.0,7.0,0.0
665,59.0,80.0,390.0,5.0,0.0
666,67.0,0.0,240.0,4.0,0.0
667,71.0,0.0,240.0,3.0,0.0
668,71.0,240.0,240.0,4.0,0.0
669,74.0,110.0,600.0,3.0,0.0
670,43.0,0.0,480.0,7.0,0.0
671,55.0,0.0,480.0,6.0,0.0
672,67.0,0.0,240.0,4.0,0.0
673,59.0,130.0,240.0,5.0,0.0
674,72.0,240.0,240.0,4.0,0.0
675,57.0,240.0,480.0,5.0,0.0
676,42.0,0.0,480.0,7.0,0.0
677,54.0,0.0,480.0,6.0,0.0
678,76.0,0.0,240.0,3.0,0.0
679,69.0,0.0,240.0,4.0,0.0
680,38.0,0.0,480.0,7.0,0.0
681,66.0,200.0,240.0,4.0,0.0
682,69.0,0.0,240.0,3.0,0.0
683,50.0,0.0,480.0,6.0,0.0
684,66.0,0.0,240.0,5.0,0.0
685,69.0,40.0,210.0,4.0,0.0
686,72.0,200.0,240.0,3.0,0.0
687,67.0,280.0,390.0,5.0,0.0
688,83.0,0.0,810.0,0.0,0.0
689,74.0,0.0,2400.0,0.0,0.0
690,62.0,0.0,3540.0,1.0,0.0
691,71.0,150.0,810.0,3.0,0.0
692,50.0,10.0,3540.0,1.0,0.0
693,43.0,0.0,960.0,7.0,0.0
694,55.0,200.0,960.0,6.0,0.0
695,67.0,200.0,210.0,4.0,0.0
696,62.0,130.0,450.0,4.0,0.0
697,55.0,0.0,480.0,5.0,0.0
698,62.0,40.0,450.0,4.0,0.0
699,72.0,240.0,240.0,3.0,0.0
700,57.0,0.0,480.0,6.0,0.0
701,45.0,200.0,480.0,7.0,0.0
702,54.0,0.0,480.0,5.0,0.0
703,84.0,0.0,240.0,0.0,0.0
704,81.0,0.0,240.0,0.0,0.0
705,62.0,40.0,450.0,4.0,0.0
706,69.0,0.0,240.0,3.0,0.0
707,57.0,0.0,480.0,5.0,0.0
708,67.0,0.0,240.0,3.0,0.0
709,79.0,240.0,240.0,0.0,0.0
710,60.0,0.0,480.0,6.0,0.0
711,48.0,240.0,480.0,7.0,0.0
712,66.0,0.0,240.0,3.0,0.0
713,62.0,160.0,480.0,4.0,0.0
714,78.0,0.0,240.0,0.0,0.0
715,67.0,0.0,240.0,3.0,0.0
716,79.0,0.0,240.0,0.0,0.0
717,47.0,0.0,480.0,7.0,0.0
718,55.0,40.0,390.0,5.0,0.0
719,59.0,240.0,480.0,6.0,0.0
720,83.0,40.0,210.0,0.0,0.0
721,67.0,0.0,240.0,4.0,0.0
722,71.0,0.0,240.0,3.0,0.0
723,86.0,110.0,600.0,0.0,0.0
724,83.0,80.0,390.0,0.0,0.0
725,71.0,160.0,240.0,4.0,0.0
726,55.0,0.0,480.0,6.0,0.0
727,74.0,0.0,600.0,3.0,0.0
728,43.0,0.0,480.0,7.0,0.0
729,67.0,0.0,240.0,4.0,0.0
730,59.0,130.0,240.0,5.0,0.0
731,72.0,160.0,240.0,4.0,0.0
732,42.0,0.0,480.0,7.0,0.0
733,57.0,0.0,480.0,5.0,0.0
734,54.0,190.0,480.0,6.0,0.0
735,81.0,40.0,390.0,0.0,0.0
736,88.0,40.0,210.0,0.0,0.0
737,69.0,0.0,240.0,4.0,0.0
738,76.0,0.0,240.0,3.0,0.0
739,38.0,0.0,480.0,7.0,0.0
740,78.0,40.0,390.0,0.0,0.0
741,81.0,40.0,210.0,0.0,0.0
742,69.0,0.0,240.0,3.0,0.0
743,66.0,160.0,240.0,4.0,0.0
744,50.0,0.0,480.0,6.0,0.0
745,84.0,40.0,210.0,0.0,0.0
746,69.0,0.0,240.0,4.0,0.0
747,72.0,200.0,240.0,3.0,0.0
748,66.0,0.0,240.0,5.0,0.0
749,43.0,0.0,210.0,7.0,0.0
750,79.0,0.0,1620.0,0.0,0.0
751,83.0,10.0,1620.0,0.0,0.0
752,67.0,0.0,9990.0,1.0,0.0
753,55.0,0.0,9990.0,1.0,0.0
754,67.0,0.0,390.0,4.0,0.0
755,71.0,40.0,390.0,3.0,0.0
756,67.0,200.0,480.0,5.0,0.0
757,55.0,200.0,210.0,6.0,0.0
758,55.0,40.0,210.0,6.0,0.0
759,43.0,0.0,210.0,7.0,0.0
760,43.0,0.0,210.0,7.0,0.0
761,55.0,30.0,810.0,5.0,0.0
762,55.0,40.0,210.0,6.0,0.0
763,67.0,120.0,120.0,4.0,0.0
764,71.0,0.0,120.0,3.0,0.0
765,69.0,0.0,120.0,3.0,0.0
766,43.0,0.0,210.0,7.0,0.0
767,55.0,40.0,210.0,6.0,0.0
768,66.0,80.0,120.0,4.0,0.0
769,71.0,0.0,120.0,3.0,0.0
770,67.0,120.0,120.0,4.0,0.0
771,43.0,40.0,210.0,7.0,0.0
772,69.0,0.0,120.0,4.0,0.0
773,72.0,80.0,120.0,3.0,0.0
774,55.0,0.0,210.0,6.0,0.0
775,71.0,90.0,120.0,3.0,0.0
776,67.0,0.0,120.0,4.0,0.0
777,66.0,0.0,120.0,4.0,0.0
778,55.0,40.0,210.0,6.0,0.0
779,69.0,80.0,120.0,3.0,0.0
780,43.0,0.0,210.0,7.0,0.0
781,67.0,0.0,120.0,4.0,0.0
782,71.0,120.0,120.0,3.0,0.0
783,55.0,0.0,210.0,6.0,0.0
784,43.0,40.0,210.0,7.0,0.0
785,67.0,40.0,390.0,5.0,0.0
786,69.0,0.0,120.0,4.0,0.0
787,72.0,70.0,120.0,3.0,0.0
788,67.0,120.0,120.0,4.0,0.0
789,71.0,0.0,120.0,3.0,0.0
790,69.0,40.0,120.0,3.0,0.0
791,55.0,0.0,210.0,6.0,0.0
792,66.0,0.0,120.0,4.0,0.0
793,43.0,40.0,210.0,7.0,0.0
794,67.0,0.0,120.0,4.0,0.0
795,71.0,200.0,120.0,3.0,0.0
796,55.0,0.0,210.0,6.0,0.0
797,72.0,0.0,210.0,3.0,0.0
798,43.0,240.0,210.0,7.0,0.0
799,81.0,0.0,1620.0,0.0,0.0
800,66.0,0.0,1620.0,5.0,0.0
801,69.0,0.0,210.0,4.0,0.0
802,84.0,10.0,1620.0,0.0,0.0
803,43.0,240.0,210.0,7.0,0.0
804,55.0,0.0,210.0,6.0,0.0
805,69.0,0.0,210.0,4.0,0.0
806,72.0,0.0,210.0,3.0,0.0
807,55.0,40.0,210.0,6.0,0.0
808,43.0,0.0,210.0,7.0,0.0
809,72.0,0.0,120.0,3.0,0.0
810,69.0,120.0,120.0,4.0,0.0
811,55.0,40.0,210.0,6.0,0.0
812,71.0,80.0,120.0,3.0,0.0
813,68.0,0.0,120.0,4.0,0.0
814,43.0,0.0,210.0,7.0,0.0
815,69.0,0.0,120.0,4.0,0.0
816,72.0,120.0,120.0,3.0,0.0
817,71.0,0.0,120.0,4.0,0.0
818,74.0,80.0,120.0,3.0,0.0
819,43.0,0.0,210.0,7.0,0.0
820,55.0,40.0,210.0,6.0,0.0
821,69.0,0.0,120.0,4.0,0.0
822,72.0,120.0,120.0,3.0,0.0
823,43.0,40.0,210.0,7.0,0.0
824,68.0,0.0,120.0,4.0,0.0
825,71.0,80.0,120.0,3.0,0.0
826,55.0,0.0,210.0,6.0,0.0
827,72.0,120.0,120.0,3.0,0.0
828,69.0,0.0,120.0,4.0,0.0
829,55.0,40.0,210.0,6.0,0.0
830,43.0,0.0,210.0,7.0,0.0
831,74.0,70.0,120.0,3.0,0.0
832,71.0,0.0,120.0,4.0,0.0
833,69.0,0.0,120.0,4.0,0.0
834,72.0,120.0,120.0,3.0,0.0
835,68.0,0.0,120.0,4.0,0.0
836,43.0,40.0,210.0,7.0,0.0
837,55.0,0.0,210.0,6.0,0.0
838,71.0,80.0,120.0,3.0,0.0
839,69.0,0.0,120.0,4.0,0.0
840,72.0,200.0,120.0,3.0,0.0
841,86.0,0.0,1620.0,0.0,0.0
842,55.0,0.0,210.0,6.0,0.0
843,43.0,0.0,210.0,7.0,0.0
844,74.0,240.0,210.0,3.0,0.0
845,65.0,10.0,1620.0,5.0,0.0
846,83.0,0.0,1620.0,0.0,0.0
847,71.0,0.0,210.0,4.0,0.0
848,71.0,0.0,210.0,4.0,0.0
849,43.0,240.0,210.0,7.0,0.0
850,55.0,0.0,210.0,6.0,0.0
851,74.0,0.0,210.0,3.0,0.0
852,43.0,40.0,210.0,7.0,0.0
853,55.0,0.0,210.0,6.0,0.0
854,71.0,120.0,120.0,4.0,0.0
855,74.0,0.0,120.0,3.0,0.0
856,43.0,0.0,210.0,7.0,0.0
857,73.0,0.0,120.0,3.0,0.0
858,55.0,40.0,210.0,6.0,0.0
859,70.0,80.0,120.0,4.0,0.0
860,71.0,120.0,120.0,4.0,0.0
861,74.0,0.0,120.0,3.0,0.0
862,55.0,40.0,210.0,6.0,0.0
863,72.0,80.0,120.0,4.0,0.0
864,43.0,0.0,210.0,7.0,0.0
865,76.0,0.0,120.0,3.0,0.0
866,74.0,120.0,120.0,3.0,0.0
867,71.0,0.0,120.0,4.0,0.0
868,43.0,40.0,210.0,7.0,0.0
869,73.0,0.0,120.0,3.0,0.0
870,70.0,80.0,120.0,4.0,0.0
871,55.0,0.0,210.0,6.0,0.0
872,74.0,120.0,120.0,3.0,0.0
873,71.0,0.0,120.0,4.0,0.0
874,55.0,40.0,210.0,6.0,0.0
875,76.0,0.0,120.0,3.0,0.0
876,72.0,70.0,120.0,4.0,0.0
877,43.0,0.0,210.0,7.0,0.0
878,71.0,120.0,120.0,4.0,0.0
879,74.0,0.0,120.0,3.0,0.0
880,55.0,0.0,210.0,6.0,0.0
881,73.0,0.0,120.0,3.0,0.0
882,70.0,80.0,120.0,4.0,0.0
883,43.0,40.0,210.0,7.0,0.0
884,71.0,0.0,120.0,4.0,0.0
885,74.0,100.0,120.0,3.0,0.0
886,64.0,0.0,810.0,5.0,0.0
887,43.0,40.0,210.0,7.0,0.0
888,76.0,100.0,90.0,3.0,0.0
889,72.0,0.0,90.0,4.0,0.0
890,88.0,0.0,810.0,0.0,0.0
891,84.0,30.0,810.0,0.0,0.0
892,55.0,0.0,210.0,6.0,0.0
893,76.0,0.0,120.0,3.0,0.0
894,72.0,120.0,120.0,4.0,0.0
895,75.0,0.0,120.0,3.0,0.0
896,55.0,40.0,210.0,6.0,0.0
897,43.0,0.0,210.0,7.0,0.0
898,71.0,80.0,120.0,4.0,0.0
899,76.0,120.0,120.0,3.0,0.0
900,72.0,0.0,120.0,4.0,0.0
901,78.0,80.0,120.0,3.0,0.0
902,74.0,0.0,120.0,4.0,0.0
903,43.0,0.0,210.0,7.0,0.0
904,55.0,40.0,210.0,6.0,0.0
905,72.0,0.0,120.0,4.0,0.0
906,76.0,90.0,120.0,3.0,0.0
907,55.0,0.0,210.0,6.0,0.0
908,71.0,80.0,120.0,4.0,0.0
909,43.0,20.0,210.0,7.0,0.0
910,75.0,0.0,120.0,3.0,0.0
911,76.0,20.0,90.0,3.0,0.0
912,72.0,100.0,120.0,4.0,0.0
913,55.0,0.0,210.0,6.0,0.0
914,60.0,30.0,810.0,5.0,0.0
915,78.0,0.0,810.0,0.0,0.0
916,72.0,0.0,810.0,0.0,0.0
917,78.0,100.0,90.0,3.0,0.0
918,43.0,40.0,210.0,7.0,0.0
919,69.0,0.0,90.0,4.0,0.0
920,78.0,0.0,120.0,3.0,0.0
921,69.0,120.0,120.0,4.0,0.0
922,67.0,80.0,120.0,4.0,0.0
923,76.0,0.0,120.0,3.0,0.0
924,43.0,40.0,210.0,7.0,0.0
925,55.0,0.0,210.0,6.0,0.0
926,78.0,0.0,120.0,3.0,0.0
927,69.0,120.0,120.0,4.0,0.0
928,79.0,0.0,120.0,3.0,0.0
929,71.0,80.0,120.0,4.0,0.0
930,55.0,0.0,210.0,6.0,0.0
931,43.0,40.0,210.0,7.0,0.0
932,78.0,0.0,120.0,3.0,0.0
933,69.0,90.0,120.0,4.0,0.0
934,76.0,0.0,120.0,3.0,0.0
935,67.0,80.0,120.0,4.0,0.0
936,55.0,40.0,210.0,6.0,0.0
937,43.0,0.0,210.0,7.0,0.0
938,78.0,0.0,120.0,3.0,0.0
939,69.0,120.0,120.0,4.0,0.0
940,72.0,80.0,120.0,4.0,0.0
941,71.0,0.0,480.0,0.0,0.0
942,79.0,0.0,480.0,0.0,0.0
943,55.0,0.0,210.0,6.0,0.0
944,43.0,0.0,210.0,7.0,0.0
945,59.0,40.0,210.0,5.0,0.0
946,81.0,0.0,120.0,3.0,0.0
947,79.0,120.0,120.0,3.0,0.0
948,71.0,0.0,120.0,4.0,0.0
949,59.0,0.0,210.0,5.0,0.0
950,69.0,0.0,120.0,4.0,0.0
951,55.0,40.0,210.0,6.0,0.0
952,78.0,80.0,120.0,3.0,0.0
953,43.0,0.0,210.0,7.0,0.0
954,79.0,0.0,120.0,3.0,0.0
955,71.0,120.0,120.0,4.0,0.0
956,55.0,0.0,210.0,6.0,0.0
957,43.0,40.0,210.0,7.0,0.0
958,83.0,0.0,120.0,3.0,0.0
959,60.0,0.0,210.0,5.0,0.0
960,78.0,0.0,480.0,0.0,0.0
961,81.0,120.0,480.0,0.0,0.0
962,67.0,80.0,120.0,4.0,0.0
963,81.0,0.0,120.0,3.0,0.0
964,66.0,120.0,120.0,4.0,0.0
965,55.0,0.0,210.0,6.0,0.0
966,64.0,80.0,120.0,4.0,0.0
967,79.0,0.0,120.0,3.0,0.0
968,60.0,40.0,210.0,5.0,0.0
969,43.0,0.0,210.0,7.0,0.0
970,81.0,0.0,120.0,3.0,0.0
971,66.0,0.0,120.0,4.0,0.0
972,69.0,80.0,120.0,4.0,0.0
973,84.0,0.0,120.0,3.0,0.0
974,83.0,0.0,480.0,0.0,0.0
975,55.0,40.0,210.0,6.0,0.0
976,59.0,0.0,210.0,5.0,0.0
977,43.0,0.0,210.0,7.0,0.0
978,79.0,0.0,480.0,0.0,0.0
979,67.0,120.0,120.0,4.0,0.0
980,83.0,0.0,120.0,3.0,0.0
981,81.0,80.0,120.0,3.0,0.0
982,55.0,0.0,210.0,6.0,0.0
983,43.0,0.0,210.0,7.0,0.0
984,66.0,0.0,120.0,4.0,0.0
985,59.0,40.0,210.0,5.0,0.0
986,67.0,120.0,120.0,4.0,0.0
987,83.0,0.0,120.0,3.0,0.0
988,86.0,0.0,120.0,3.0,0.0
989,57.0,0.0,210.0,5.0,0.0
990,81.0,100.0,480.0,0.0,0.0
991,84.0,0.0,480.0,0.0,0.0
992,55.0,40.0,210.0,6.0,0.0
993,71.0,80.0,120.0,4.0,0.0
994,43.0,0.0,210.0,7.0,0.0
995,84.0,120.0,120.0,3.0,0.0
996,69.0,0.0,120.0,4.0,0.0
997,67.0,0.0,120.0,4.0,0.0
998,57.0,0.0,210.0,5.0,0.0
999,83.0,80.0,120.0,3.0,0.0
1000,55.0,20.0,210.0,6.0,0.0
1001,43.0,0.0,210.0,7.0,0.0
1002,69.0,0.0,90.0,4.0,0.0
1003,84.0,20.0,90.0,3.0,0.0
1004,55.0,0.0,210.0,5.0,0.0
1005,43.0,20.0,210.0,7.0,0.0
1006,55.0,0.0,210.0,6.0,0.0
1007,86.0,40.0,390.0,0.0,0.0
1008,83.0,0.0,390.0,0.0,0.0
1009,86.0,0.0,90.0,3.0,0.0
1010,71.0,100.0,90.0,4.0,0.0
1011,71.0,0.0,90.0,4.0,0.0
1012,86.0,120.0,90.0,3.0,0.0
1013,43.0,0.0,210.0,7.0,0.0
1014,55.0,0.0,210.0,6.0,0.0
1015,71.0,0.0,90.0,4.0,0.0
1016,55.0,20.0,210.0,5.0,0.0
1017,86.0,60.0,90.0,3.0,0.0
1018,86.0,120.0,90.0,3.0,0.0
1019,71.0,0.0,90.0,4.0,0.0
1020,83.0,0.0,90.0,4.0,0.0
1021,87.0,100.0,90.0,3.0,0.0
1022,67.0,0.0,210.0,5.0,0.0
1023,43.0,20.0,210.0,7.0,0.0
1024,67.0,40.0,390.0,1.0,0.0
1025,83.0,0.0,390.0,0.0,0.0
1026,75.0,0.0,390.0,0.0,0.0
1027,55.0,0.0,390.0,1.0,0.0
1028,55.0,0.0,210.0,6.0,0.0
1029,83.0,0.0,90.0,4.0,0.0
1030,87.0,120.0,90.0,3.0,0.0
1031,83.0,0.0,90.0,4.0,0.0
1032,67.0,0.0,210.0,5.0,0.0
1033,43.0,20.0,210.0,7.0,0.0
1034,55.0,0.0,210.0,6.0,0.0
1035,87.0,60.0,90.0,3.0,0.0
1036,83.0,0.0,90.0,4.0,0.0
1037,87.0,120.0,90.0,3.0,0.0
1038,67.0,40.0,390.0,1.0,0.0
1039,55.0,0.0,390.0,1.0,0.0
1040,84.0,10.0,810.0,0.0,0.0
1041,76.0,0.0,390.0,0.0,0.0
1042,88.0,100.0,90.0,3.0,0.0
1043,84.0,0.0,90.0,4.0,0.0
1044,55.0,20.0,210.0,6.0,0.0
1045,43.0,0.0,210.0,7.0,0.0
1046,67.0,0.0,210.0,5.0,0.0
1047,84.0,0.0,90.0,4.0,0.0
1048,88.0,120.0,90.0,3.0,0.0
1049,43.0,0.0,210.0,7.0,0.0
1050,84.0,0.0,90.0,4.0,0.0
1051,88.0,60.0,90.0,3.0,0.0
1052,55.0,0.0,210.0,6.0,0.0
1053,67.0,20.0,210.0,5.0,0.0
1054,84.0,120.0,90.0,4.0,0.0
1055,88.0,0.0,90.0,3.0,0.0
1056,78.0,0.0,390.0,0.0,0.0
1057,43.0,20.0,210.0,7.0,0.0
1058,55.0,0.0,210.0,6.0,0.0
1059,72.0,0.0,210.0,5.0,0.0
1060,81.0,0.0,90.0,4.0,0.0
1061,90.0,100.0,90.0,3.0,0.0
1062,67.0,40.0,390.0,1.0,0.0
1063,55.0,0.0,390.0,1.0,0.0
1064,90.0,0.0,90.0,3.0,0.0
1065,81.0,110.0,90.0,4.0,0.0
1066,55.0,0.0,210.0,6.0,0.0
1067,43.0,20.0,210.0,7.0,0.0
1068,81.0,0.0,90.0,4.0,0.0
1069,90.0,60.0,90.0,3.0,0.0
1070,72.0,0.0,210.0,5.0,0.0
1071,90.0,0.0,90.0,3.0,0.0
1072,81.0,120.0,90.0,4.0,0.0
1073,55.0,0.0,210.0,6.0,0.0
1074,71.0,0.0,210.0,5.0,0.0
1075,67.0,0.0,3540.0,1.0,0.0
1076,91.0,10.0,810.0,3.0,0.0
1077,43.0,20.0,210.0,7.0,0.0
1078,83.0,10.0,1620.0,0.0,0.0
1079,79.0,0.0,3540.0,0.0,0.0
1080,55.0,10.0,3540.0,1.0,0.0
1081,83.0,100.0,90.0,4.0,0.0
1082,83.0,120.0,90.0,4.0,0.0
1083,55.0,0.0,210.0,6.0,0.0
1084,43.0,20.0,210.0,7.0,0.0
1085,67.0,0.0,210.0,5.0,0.0
1086,83.0,100.0,90.0,4.0,0.0
1087,83.0,120.0,90.0,4.0,0.0
1088,67.0,20.0,210.0,5.0,0.0
1089,55.0,0.0,210.0,6.0,0.0
1090,43.0,0.0,210.0,7.0,0.0
1091,83.0,100.0,90.0,4.0,0.0
1092,83.0,110.0,90.0,4.0,0.0
1093,43.0,0.0,210.0,7.0,0.0
1094,55.0,0.0,210.0,6.0,0.0
1095,67.0,20.0,210.0,5.0,0.0
1096,83.0,100.0,90.0,4.0,0.0
1097,83.0,120.0,90.0,4.0,0.0
1098,53.0,0.0,210.0,6.0,0.0
1099,41.0,0.0,210.0,7.0,0.0
1100,59.0,60.0,600.0,3.0,0.0
1101,67.0,0.0,90.0,4.0,0.0
1102,62.0,100.0,90.0,4.0,0.0
1103,65.0,20.0,210.0,5.0,0.0
1104,67.0,0.0,90.0,4.0,0.0
1105,62.0,120.0,90.0,4.0,0.0
1106,62.0,0.0,90.0,4.0,0.0
1107,65.0,20.0,210.0,5.0,0.0
1108,67.0,100.0,90.0,4.0,0.0
1109,53.0,0.0,210.0,6.0,0.0
1110,41.0,0.0,210.0,7.0,0.0
1111,62.0,120.0,90.0,4.0,0.0
1112,67.0,0.0,90.0,4.0,0.0
1113,67.0,30.0,90.0,4.0,0.0
1114,65.0,0.0,210.0,5.0,0.0
1115,41.0,20.0,210.0,7.0,0.0
1116,53.0,0.0,210.0,6.0,0.0
1117,62.0,0.0,90.0,4.0,0.0
1118,62.0,120.0,90.0,4.0,0.0
1119,67.0,0.0,90.0,4.0,0.0
1120,59.0,0.0,210.0,3.0,0.0
1121,53.0,0.0,210.0,6.0,0.0
1122,65.0,0.0,210.0,5.0,0.0
1123,67.0,100.0,90.0,4.0,0.0
1124,62.0,0.0,90.0,4.0,0.0
1125,41.0,20.0,210.0,7.0,0.0
1126,67.0,0.0,90.0,4.0,0.0
1127,62.0,120.0,90.0,4.0,0.0
1128,84.0,10.0,810.0,0.0,0.0
1129,40.0,0.0,210.0,7.0,0.0
1130,60.0,40.0,390.0,3.0,0.0
1131,64.0,0.0,90.0,4.0,0.0
1132,67.0,100.0,90.0,4.0,0.0
1133,64.0,0.0,210.0,5.0,0.0
1134,52.0,20.0,210.0,6.0,0.0
1135,67.0,0.0,90.0,4.0,0.0
1136,64.0,120.0,90.0,4.0,0.0
1137,52.0,20.0,210.0,6.0,0.0
1138,40.0,0.0,210.0,7.0,0.0
1139,67.0,0.0,90.0,4.0,0.0
1140,64.0,0.0,210.0,5.0,0.0
1141,64.0,60.0,90.0,4.0,0.0
1142,67.0,0.0,90.0,4.0,0.0
1143,64.0,120.0,90.0,4.0,0.0
1144,64.0,0.0,90.0,4.0,0.0
1145,52.0,0.0,210.0,6.0,0.0
1146,67.0,100.0,90.0,4.0,0.0
1147,40.0,0.0,210.0,7.0,0.0
1148,64.0,20.0,210.0,5.0,0.0
1149,64.0,0.0,90.0,4.0,0.0
1150,67.0,110.0,90.0,4.0,0.0
1151,84.0,80.0,120.0,3.0,0.0
1152,40.0,0.0,210.0,7.0,0.0
1153,64.0,0.0,210.0,5.0,0.0
1154,52.0,20.0,210.0,6.0,0.0
1155,64.0,20.0,90.0,4.0,0.0
1156,67.0,0.0,90.0,4.0,0.0
1157,67.0,120.0,90.0,4.0,0.0
1158,86.0,0.0,90.0,3.0,0.0
1159,64.0,0.0,90.0,4.0,0.0
1160,48.0,0.0,210.0,6.0,0.0
1161,88.0,10.0,810.0,0.0,0.0
1162,79.0,100.0,90.0,4.0,0.0
1163,69.0,0.0,90.0,4.0,0.0
1164,36.0,0.0,210.0,7.0,0.0
1165,60.0,0.0,210.0,5.0,0.0
1166,88.0,20.0,210.0,3.0,0.0
1167,69.0,120.0,90.0,4.0,0.0
1168,79.0,0.0,90.0,4.0,0.0
1169,48.0,20.0,210.0,6.0,0.0
1170,69.0,100.0,90.0,4.0,0.0
1171,60.0,0.0,210.0,5.0,0.0
1172,79.0,0.0,90.0,4.0,0.0
1173,36.0,0.0,210.0,7.0,0.0
1174,88.0,0.0,210.0,3.0,0.0
1175,69.0,120.0,90.0,4.0,0.0
1176,79.0,0.0,90.0,4.0,0.0
1177,48.0,0.0,210.0,6.0,0.0
1178,79.0,0.0,90.0,4.0,0.0
1179,69.0,90.0,90.0,4.0,0.0
1180,88.0,0.0,210.0,3.0,0.0
1181,36.0,20.0,210.0,7.0,0.0
1182,60.0,0.0,210.0,5.0,0.0
1183,79.0,110.0,90.0,4.0,0.0
1184,69.0,0.0,90.0,4.0,0.0
1185,79.0,100.0,90.0,4.0,0.0
1186,69.0,0.0,90.0,4.0,0.0
1187,60.0,0.0,210.0,5.0,0.0
1188,88.0,20.0,210.0,3.0,0.0
1189,48.0,0.0,210.0,6.0,0.0
1190,36.0,0.0,210.0,7.0,0.0
1191,69.0,120.0,90.0,4.0,0.0
1192,79.0,0.0,90.0,4.0,0.0
1193,86.0,40.0,390.0,3.0,0.0
1194,62.0,20.0,210.0,5.0,0.0
1195,62.0,10.0,810.0,1.0,0.0
1196,50.0,0.0,810.0,1.0,0.0
1197,86.0,0.0,810.0,0.0,0.0
1198,83.0,0.0,810.0,0.0,0.0
1199,50.0,0.0,210.0,6.0,0.0
1200,38.0,0.0,210.0,7.0,0.0
1201,71.0,100.0,90.0,4.0,0.0
1202,79.0,0.0,90.0,4.0,0.0
1203,71.0,120.0,90.0,4.0,0.0
1204,79.0,0.0,90.0,4.0,0.0
1205,79.0,0.0,90.0,4.0,0.0
1206,71.0,60.0,90.0,4.0,0.0
1207,38.0,0.0,210.0,7.0,0.0
1208,50.0,0.0,210.0,6.0,0.0
1209,62.0,20.0,210.0,5.0,0.0
1210,79.0,0.0,90.0,4.0,0.0
1211,71.0,120.0,90.0,4.0,0.0
1212,71.0,20.0,90.0,4.0,0.0
1213,62.0,0.0,210.0,5.0,0.0
1214,38.0,0.0,210.0,7.0,0.0
1215,50.0,20.0,210.0,6.0,0.0
1216,84.0,80.0,120.0,3.0,0.0
1217,79.0,0.0,90.0,4.0,0.0
1218,83.0,90.0,120.0,3.0,0.0
1219,79.0,0.0,90.0,4.0,0.0
1220,71.0,20.0,90.0,4.0,0.0
1221,50.0,20.0,210.0,6.0,0.0
1222,81.0,80.0,120.0,3.0,0.0
1223,62.0,0.0,210.0,5.0,0.0
1224,38.0,0.0,210.0,7.0,0.0
1225,79.0,20.0,90.0,4.0,0.0
1226,71.0,0.0,90.0,4.0,0.0
1227,79.0,120.0,90.0,4.0,0.0
1228,71.0,0.0,90.0,4.0,0.0
1229,79.0,0.0,90.0,3.0,0.0
1230,62.0,0.0,210.0,5.0,0.0
1231,50.0,0.0,210.0,6.0,0.0
1232,50.0,0.0,390.0,1.0,0.0
1233,79.0,0.0,390.0,0.0,0.0
1234,79.0,100.0,90.0,4.0,0.0
1235,71.0,0.0,90.0,4.0,0.0
1236,83.0,0.0,390.0,0.0,0.0
1237,62.0,0.0,390.0,1.0,0.0
1238,38.0,20.0,210.0,7.0,0.0
1239,83.0,40.0,390.0,3.0,0.0
1240,71.0,0.0,90.0,4.0,0.0
1241,79.0,120.0,90.0,4.0,0.0
1242,71.0,60.0,90.0,4.0,0.0
1243,62.0,20.0,210.0,5.0,0.0
1244,50.0,0.0,210.0,6.0,0.0
1245,38.0,0.0,210.0,7.0,0.0
1246,79.0,0.0,90.0,4.0,0.0
1247,71.0,0.0,90.0,4.0,0.0
1248,79.0,120.0,90.0,4.0,0.0
1249,81.0,0.0,390.0,3.0,0.0
1250,62.0,0.0,390.0,1.0,0.0
1251,50.0,0.0,390.0,1.0,0.0
1252,36.0,20.0,210.0,7.0,0.0
1253,78.0,0.0,390.0,0.0,0.0
1254,60.0,0.0,210.0,5.0,0.0
1255,48.0,0.0,210.0,6.0,0.0
1256,74.0,0.0,390.0,3.0,0.0
1257,78.0,0.0,90.0,4.0,0.0
1258,69.0,100.0,90.0,4.0,0.0
1259,81.0,0.0,390.0,0.0,0.0
1260,66.0,40.0,390.0,3.0,0.0
1261,69.0,120.0,90.0,4.0,0.0
1262,78.0,0.0,90.0,4.0,0.0
1263,48.0,0.0,210.0,6.0,0.0
1264,78.0,0.0,90.0,4.0,0.0
1265,69.0,60.0,90.0,4.0,0.0
1266,36.0,20.0,210.0,7.0,0.0
1267,60.0,0.0,210.0,5.0,0.0
1268,69.0,0.0,90.0,4.0,0.0
1269,78.0,120.0,90.0,4.0,0.0
1270,67.0,40.0,390.0,3.0,0.0
1271,79.0,10.0,810.0,0.0,0.0
1272,79.0,0.0,90.0,4.0,0.0
1273,55.0,0.0,810.0,1.0,0.0
1274,86.0,0.0,810.0,3.0,0.0
1275,74.0,0.0,390.0,3.0,0.0
1276,86.0,0.0,810.0,0.0,0.0
1277,47.0,0.0,210.0,6.0,0.0
1278,67.0,0.0,810.0,1.0,0.0
1279,59.0,20.0,210.0,5.0,0.0
1280,35.0,0.0,210.0,7.0,0.0
1281,67.0,100.0,90.0,4.0,0.0
1282,67.0,120.0,90.0,4.0,0.0
1283,79.0,0.0,90.0,4.0,0.0
1284,67.0,60.0,90.0,4.0,0.0
1285,79.0,0.0,90.0,4.0,0.0
1286,35.0,0.0,210.0,7.0,0.0
1287,47.0,20.0,210.0,6.0,0.0
1288,59.0,0.0,210.0,5.0,0.0
1289,79.0,0.0,90.0,4.0,0.0
1290,67.0,120.0,90.0,4.0,0.0
1291,35.0,20.0,210.0,7.0,0.0
1292,59.0,0.0,210.0,5.0,0.0
1293,47.0,0.0,210.0,6.0,0.0
1294,67.0,100.0,90.0,4.0,0.0
1295,79.0,0.0,90.0,4.0,0.0
1296,79.0,0.0,90.0,4.0,0.0
1297,67.0,110.0,90.0,4.0,0.0
1298,47.0,20.0,210.0,6.0,0.0
1299,79.0,100.0,90.0,4.0,0.0
1300,67.0,0.0,90.0,4.0,0.0
1301,59.0,0.0,210.0,5.0,0.0
1302,35.0,0.0,210.0,7.0,0.0
1303,67.0,0.0,90.0,4.0,0.0
1304,79.0,120.0,90.0,4.0,0.0
1305,35.0,0.0,210.0,7.0,0.0
1306,59.0,0.0,210.0,5.0,0.0
1307,47.0,20.0,210.0,6.0,0.0
1308,74.0,10.0,810.0,0.0,0.0
1309,55.0,70.0,600.0,1.0,0.0
1310,67.0,0.0,90.0,4.0,0.0
1311,62.0,100.0,90.0,4.0,0.0
1312,67.0,0.0,600.0,1.0,0.0
1313,77.0,0.0,810.0,0.0,0.0
1314,65.0,0.0,600.0,3.0,0.0
1315,67.0,120.0,90.0,4.0,0.0
1316,62.0,0.0,90.0,4.0,0.0
1317,62.0,100.0,90.0,4.0,0.0
1318,59.0,0.0,210.0,5.0,0.0
1319,47.0,20.0,210.0,6.0,0.0
1320,67.0,0.0,90.0,4.0,0.0
1321,35.0,0.0,210.0,7.0,0.0
1322,67.0,0.0,90.0,4.0,0.0
1323,62.0,120.0,90.0,4.0,0.0
1324,47.0,0.0,210.0,6.0,0.0
1325,59.0,0.0,210.0,5.0,0.0
1326,67.0,30.0,90.0,4.0,0.0
1327,62.0,0.0,90.0,4.0,0.0
1328,35.0,20.0,210.0,7.0,0.0
1329,67.0,0.0,90.0,4.0,0.0
1330,62.0,110.0,90.0,4.0,0.0
1331,67.0,0.0,210.0,1.0,0.0
1332,55.0,0.0,210.0,1.0,0.0
1333,65.0,0.0,210.0,3.0,0.0
1334,35.0,0.0,210.0,7.0,0.0
1335,67.0,100.0,90.0,4.0,0.0
1336,62.0,0.0,90.0,4.0,0.0
1337,59.0,20.0,210.0,5.0,0.0
1338,47.0,0.0,210.0,6.0,0.0
1339,67.0,0.0,90.0,4.0,0.0
1340,62.0,120.0,90.0,4.0,0.0
1341,67.0,0.0,1620.0,1.0,0.0
1342,55.0,10.0,1620.0,1.0,0.0
1343,48.0,0.0,210.0,6.0,0.0
1344,64.0,40.0,390.0,3.0,0.0
1345,72.0,0.0,810.0,0.0,0.0
1346,76.0,10.0,810.0,0.0,0.0
1347,60.0,0.0,210.0,5.0,0.0
1348,67.0,0.0,90.0,4.0,0.0
1349,60.0,100.0,90.0,4.0,0.0
1350,36.0,20.0,210.0,7.0,0.0
1351,67.0,0.0,90.0,4.0,0.0
1352,60.0,120.0,90.0,4.0,0.0
1353,60.0,0.0,90.0,4.0,0.0
1354,67.0,60.0,90.0,4.0,0.0
1355,48.0,20.0,210.0,6.0,0.0
1356,36.0,0.0,210.0,7.0,0.0
1357,60.0,0.0,210.0,5.0,0.0
1358,67.0,120.0,90.0,4.0,0.0
1359,60.0,0.0,90.0,4.0,0.0
1360,36.0,20.0,210.0,7.0,0.0
1361,48.0,0.0,210.0,6.0,0.0
1362,60.0,0.0,210.0,5.0,0.0
1363,60.0,0.0,90.0,4.0,0.0
1364,67.0,100.0,90.0,4.0,0.0
1365,67.0,0.0,90.0,4.0,0.0
1366,60.0,110.0,90.0,4.0,0.0
1367,88.0,80.0,120.0,3.0,0.0
1368,48.0,20.0,210.0,6.0,0.0
1369,60.0,0.0,90.0,4.0,0.0
1370,67.0,20.0,90.0,4.0,0.0
1371,36.0,0.0,210.0,7.0,0.0
1372,60.0,0.0,210.0,5.0,0.0
1373,67.0,0.0,90.0,4.0,0.0
1374,90.0,100.0,120.0,3.0,0.0
1375,60.0,20.0,90.0,4.0,0.0
1376,82.0,0.0,90.0,4.0,0.0
1377,76.0,20.0,210.0,5.0,0.0
1378,91.0,0.0,210.0,3.0,0.0
1379,49.0,0.0,210.0,6.0,0.0
1380,79.0,100.0,90.0,4.0,0.0
1381,37.0,0.0,210.0,7.0,0.0
1382,82.0,0.0,810.0,0.0,0.0
1383,88.0,10.0,810.0,0.0,0.0
1384,82.0,120.0,90.0,4.0,0.0
1385,79.0,0.0,90.0,4.0,0.0
1386,91.0,0.0,210.0,3.0,0.0
1387,37.0,20.0,210.0,7.0,0.0
1388,79.0,0.0,90.0,4.0,0.0
1389,82.0,100.0,90.0,4.0,0.0
1390,49.0,0.0,210.0,6.0,0.0
1391,76.0,0.0,210.0,5.0,0.0
1392,79.0,120.0,90.0,4.0,0.0
1393,82.0,0.0,90.0,4.0,0.0
1394,79.0,0.0,90.0,4.0,0.0
1395,76.0,20.0,210.0,5.0,0.0
1396,37.0,0.0,210.0,7.0,0.0
1397,49.0,0.0,210.0,6.0,0.0
1398,91.0,0.0,210.0,3.0,0.0
1399,82.0,90.0,90.0,4.0,0.0
1400,82.0,0.0,90.0,4.0,0.0
1401,79.0,110.0,90.0,4.0,0.0
1402,91.0,0.0,210.0,3.0,0.0
1403,76.0,0.0,210.0,5.0,0.0
1404,82.0,0.0,90.0,4.0,0.0
1405,37.0,20.0,210.0,7.0,0.0
1406,79.0,100.0,90.0,4.0,0.0
1407,49.0,0.0,210.0,6.0,0.0
1408,82.0,0.0,90.0,4.0,0.0
1409,79.0,220.0,90.0,4.0,0.0
1410,62.0,0.0,210.0,1.0,0.0
1411,86.0,40.0,390.0,3.0,0.0
1412,71.0,0.0,210.0,1.0,0.0
1413,38.0,0.0,210.0,7.0,0.0
1414,50.0,0.0,210.0,6.0,0.0
1415,86.0,200.0,210.0,0.0,0.0
1416,79.0,0.0,210.0,4.0,0.0
1417,83.0,0.0,210.0,4.0,0.0
1418,74.0,0.0,210.0,5.0,0.0
1419,83.0,0.0,210.0,0.0,0.0
1420,83.0,0.0,210.0,4.0,0.0
1421,74.0,0.0,210.0,4.0,0.0
1422,50.0,0.0,210.0,1.0,0.0
1423,67.0,0.0,210.0,4.0,0.0
1424,62.0,0.0,210.0,6.0,0.0
1425,50.0,0.0,210.0,7.0,0.0
1426,71.0,0.0,210.0,1.0,0.0
1427,79.0,160.0,210.0,0.0,0.0
1428,83.0,0.0,210.0,0.0,0.0
1429,74.0,0.0,210.0,5.0,0.0
1430,71.0,0.0,390.0,1.0,0.0
1431,83.0,0.0,390.0,4.0,0.0
1432,74.0,0.0,390.0,4.0,0.0
1433,67.0,20.0,390.0,4.0,0.0
1434,50.0,0.0,390.0,1.0,0.0
1435,50.0,0.0,390.0,7.0,0.0
1436,86.0,120.0,120.0,3.0,0.0
1437,74.0,0.0,390.0,5.0,0.0
1438,83.0,0.0,390.0,0.0,0.0
1439,62.0,0.0,390.0,6.0,0.0
1440,79.0,0.0,390.0,0.0,0.0
1441,88.0,60.0,120.0,3.0,0.0
1442,85.0,100.0,60.0,3.0,0.0
1443,88.0,460.0,60.0,3.0,0.0
1444,86.0,40.0,390.0,3.0,0.0
1445,50.0,0.0,210.0,7.0,0.0
1446,74.0,0.0,210.0,4.0,0.0
1447,62.0,0.0,210.0,6.0,0.0
1448,50.0,160.0,210.0,1.0,0.0
1449,79.0,0.0,210.0,0.0,0.0
1450,83.0,0.0,210.0,0.0,0.0
1451,71.0,0.0,210.0,1.0,0.0
1452,83.0,0.0,210.0,4.0,0.0
1453,74.0,0.0,210.0,5.0,0.0
1454,67.0,0.0,210.0,4.0,0.0
1455,62.0,0.0,390.0,6.0,0.0
1456,67.0,0.0,390.0,4.0,0.0
1457,74.0,0.0,390.0,4.0,0.0
1458,83.0,0.0,390.0,4.0,0.0
1459,86.0,120.0,120.0,3.0,0.0
1460,50.0,0.0,390.0,1.0,0.0
1461,79.0,0.0,390.0,0.0,0.0
1462,83.0,20.0,390.0,0.0,0.0
1463,50.0,0.0,390.0,7.0,0.0
1464,71.0,0.0,390.0,1.0,0.0
1465,74.0,0.0,390.0,5.0,0.0
1466,88.0,60.0,120.0,3.0,0.0
1467,85.0,100.0,60.0,3.0,0.0
1468,88.0,460.0,60.0,3.0,0.0
1469,86.0,40.0,390.0,3.0,0.0
1470,79.0,160.0,210.0,0.0,0.0
1471,74.0,0.0,210.0,5.0,0.0
1472,50.0,0.0,210.0,7.0,0.0
1473,71.0,0.0,210.0,1.0,0.0
1474,83.0,0.0,210.0,0.0,0.0
1475,67.0,0.0,210.0,4.0,0.0
1476,74.0,0.0,210.0,4.0,0.0
1477,83.0,0.0,210.0,4.0,0.0
1478,62.0,0.0,210.0,6.0,0.0
1479,50.0,0.0,210.0,1.0,0.0
1480,50.0,0.0,210.0,7.0,0.0
1481,71.0,0.0,210.0,1.0,0.0
1482,50.0,0.0,210.0,1.0,0.0
1483,83.0,0.0,210.0,0.0,0.0
1484,62.0,40.0,210.0,6.0,0.0
1485,79.0,0.0,210.0,0.0,0.0
1486,67.0,0.0,210.0,4.0,0.0
1487,74.0,0.0,210.0,4.0,0.0
1488,74.0,0.0,210.0,5.0,0.0
1489,86.0,80.0,120.0,3.0,0.0
1490,83.0,0.0,210.0,4.0,0.0
1491,88.0,60.0,120.0,3.0,0.0
1492,85.0,120.0,60.0,3.0,0.0
1493,88.0,180.0,60.0,3.0,0.0
1494,83.0,0.0,210.0,4.0,0.0
1495,67.0,0.0,210.0,4.0,0.0
1496,74.0,0.0,210.0,4.0,0.0
1497,50.0,0.0,210.0,7.0,0.0
1498,62.0,0.0,210.0,6.0,0.0
1499,74.0,0.0,210.0,5.0,0.0
1500,71.0,0.0,210.0,1.0,0.0
1501,50.0,0.0,210.0,1.0,0.0
1502,86.0,80.0,120.0,3.0,0.0
1503,83.0,40.0,210.0,0.0,0.0
1504,79.0,0.0,210.0,0.0,0.0
1505,88.0,60.0,120.0,3.0,0.0
1506,85.0,120.0,60.0,3.0,0.0
1507,88.0,180.0,60.0,3.0,0.0
1508,74.0,0.0,210.0,4.0,0.0
1509,62.0,40.0,210.0,6.0,0.0
1510,74.0,0.0,210.0,5.0,0.0
1511,71.0,0.0,210.0,1.0,0.0
1512,50.0,0.0,210.0,1.0,0.0
1513,83.0,0.0,210.0,0.0,0.0
1514,79.0,0.0,210.0,0.0,0.0
1515,50.0,0.0,210.0,7.0,0.0
1516,83.0,0.0,210.0,4.0,0.0
1517,86.0,80.0,120.0,3.0,0.0
1518,67.0,0.0,210.0,4.0,0.0
1519,88.0,60.0,120.0,3.0,0.0
1520,85.0,120.0,60.0,3.0,0.0
1521,88.0,260.0,60.0,3.0,0.0
1522,86.0,0.0,210.0,3.0,0.0
1523,71.0,240.0,210.0,1.0,0.0
1524,74.0,0.0,210.0,5.0,0.0
1525,62.0,0.0,210.0,6.0,0.0
1526,50.0,0.0,210.0,1.0,0.0
1527,79.0,0.0,210.0,0.0,0.0
1528,50.0,0.0,210.0,7.0,0.0
1529,83.0,0.0,210.0,0.0,0.0
1530,74.0,0.0,210.0,4.0,0.0
1531,67.0,0.0,210.0,4.0,0.0
1532,83.0,0.0,210.0,4.0,0.0
1533,86.0,0.0,210.0,4.0,0.0
1534,86.0,240.0,210.0,3.0,0.0
1535,74.0,40.0,390.0,0.0,0.0
1536,74.0,0.0,390.0,5.0,0.0
1537,62.0,0.0,390.0,1.0,0.0
1538,62.0,0.0,390.0,6.0,0.0
1539,50.0,0.0,390.0,7.0,0.0
1540,91.0,200.0,210.0,4.0,0.0
1541,91.0,0.0,210.0,3.0,0.0
1542,50.0,0.0,390.0,1.0,0.0
1543,83.0,0.0,210.0,4.0,0.0
1544,83.0,240.0,210.0,3.0,0.0
1545,67.0,0.0,390.0,0.0,0.0
1546,71.0,0.0,390.0,5.0,0.0
1547,59.0,0.0,390.0,6.0,0.0
1548,79.0,0.0,390.0,0.0,0.0
1549,47.0,40.0,390.0,7.0,0.0
1550,55.0,0.0,390.0,1.0,0.0
1551,86.0,0.0,210.0,3.0,0.0
1552,67.0,0.0,390.0,1.0,0.0
1553,86.0,200.0,210.0,4.0,0.0
1554,79.0,0.0,210.0,3.0,0.0
1555,79.0,240.0,210.0,4.0,0.0
1556,43.0,0.0,390.0,7.0,0.0
1557,67.0,40.0,390.0,5.0,0.0
1558,55.0,0.0,390.0,6.0,0.0
1559,83.0,0.0,210.0,3.0,0.0
1560,59.0,0.0,390.0,1.0,0.0
1561,83.0,0.0,390.0,0.0,0.0
1562,83.0,200.0,210.0,4.0,0.0
1563,71.0,0.0,390.0,0.0,0.0
1564,71.0,0.0,390.0,1.0,0.0
1565,74.0,0.0,210.0,3.0,0.0
1566,74.0,240.0,210.0,4.0,0.0
1567,74.0,0.0,390.0,1.0,0.0
1568,79.0,40.0,390.0,0.0,0.0
1569,83.0,0.0,390.0,0.0,0.0
1570,62.0,0.0,390.0,1.0,0.0
1571,62.0,0.0,210.0,5.0,0.0
1572,50.0,140.0,210.0,6.0,0.0
1573,86.0,0.0,210.0,3.0,0.0
1574,38.0,0.0,210.0,7.0,0.0
1575,86.0,0.0,210.0,4.0,0.0
1576,83.0,60.0,90.0,4.0,0.0
1577,38.0,0.0,210.0,7.0,0.0
1578,50.0,0.0,210.0,6.0,0.0
1579,83.0,0.0,90.0,3.0,0.0
1580,62.0,20.0,210.0,5.0,0.0
1581,79.0,0.0,90.0,3.0,0.0
1582,79.0,220.0,90.0,4.0,0.0
1583,67.0,0.0,300.0,1.0,0.0
1584,43.0,0.0,210.0,7.0,0.0
1585,67.0,0.0,210.0,5.0,0.0
1586,79.0,40.0,300.0,0.0,0.0
1587,74.0,100.0,210.0,4.0,0.0
1588,71.0,0.0,300.0,1.0,0.0
1589,74.0,0.0,210.0,3.0,0.0
1590,55.0,0.0,210.0,6.0,0.0
1591,83.0,0.0,300.0,0.0,0.0
1592,71.0,0.0,90.0,4.0,0.0
1593,71.0,100.0,90.0,3.0,0.0
1594,59.0,0.0,210.0,6.0,0.0
1595,47.0,20.0,210.0,7.0,0.0
1596,71.0,0.0,210.0,5.0,0.0
1597,79.0,0.0,90.0,0.0,0.0
1598,67.0,0.0,90.0,1.0,0.0
1599,67.0,420.0,90.0,4.0,0.0
1600,67.0,0.0,90.0,3.0,0.0
1601,71.0,0.0,90.0,1.0,0.0
1602,83.0,0.0,90.0,0.0,0.0
1603,69.0,0.0,390.0,1.0,0.0
1604,62.0,0.0,390.0,6.0,0.0
1605,62.0,0.0,390.0,1.0,0.0
1606,81.0,0.0,390.0,0.0,0.0
1607,62.0,380.0,390.0,3.0,0.0
1608,74.0,0.0,390.0,5.0,0.0
1609,50.0,0.0,390.0,7.0,0.0
1610,62.0,0.0,390.0,4.0,0.0
1611,78.0,0.0,390.0,0.0,0.0
1612,62.0,0.0,300.0,1.0,0.0
1613,62.0,0.0,390.0,5.0,0.0
1614,69.0,0.0,300.0,1.0,0.0
1615,78.0,100.0,300.0,0.0,0.0
1616,38.0,60.0,390.0,7.0,0.0
1617,62.0,0.0,390.0,3.0,0.0
1618,78.0,0.0,390.0,3.0,0.0
1619,50.0,0.0,390.0,6.0,0.0
1620,62.0,0.0,390.0,4.0,0.0
1621,69.0,0.0,390.0,4.0,0.0
1622,69.0,0.0,390.0,3.0,0.0
1623,81.0,0.0,300.0,0.0,0.0
1624,78.0,0.0,390.0,4.0,0.0
1625,69.0,420.0,90.0,1.0,0.0
1626,62.0,0.0,90.0,1.0,0.0
1627,81.0,0.0,90.0,0.0,0.0
1628,78.0,0.0,90.0,0.0,0.0
1629,62.0,0.0,390.0,4.0,0.0
1630,71.0,0.0,390.0,4.0,0.0
1631,79.0,0.0,390.0,4.0,0.0
1632,67.0,0.0,5460.0,1.0,0.0
1633,55.0,0.0,5460.0,1.0,0.0
1634,67.0,0.0,390.0,5.0,0.0
1635,55.0,0.0,5460.0,6.0,0.0
1636,79.0,1040.0,390.0,0.0,0.0
1637,43.0,290.0,5460.0,7.0,0.0
1638,79.0,0.0,390.0,3.0,0.0
1639,71.0,0.0,390.0,3.0,0.0
1640,62.0,0.0,390.0,3.0,0.0
1641,62.0,0.0,810.0,5.0,0.0
1642,71.0,330.0,480.0,3.0,0.0
1643,65.0,150.0,810.0,4.0,0.0
1644,67.0,610.0,480.0,3.0,0.0
1645,64.0,240.0,960.0,4.0,0.0
1646,60.0,0.0,960.0,5.0,0.0
1647,72.0,310.0,600.0,3.0,0.0
1648,69.0,40.0,210.0,3.0,0.0
1649,57.0,240.0,960.0,5.0,0.0
1650,67.0,240.0,240.0,3.0,0.0
1651,60.0,150.0,810.0,4.0,0.0
1652,66.0,240.0,240.0,3.0,0.0
1653,64.0,90.0,240.0,3.0,0.0
1654,66.0,0.0,240.0,3.0,0.0
1655,67.0,240.0,240.0,3.0,0.0
1656,59.0,0.0,960.0,4.0,0.0
1657,55.0,480.0,960.0,5.0,0.0
1658,71.0,400.0,240.0,3.0,0.0
1659,74.0,80.0,390.0,3.0,0.0
1660,71.0,190.0,480.0,3.0,0.0
1661,65.0,610.0,960.0,4.0,0.0
1662,62.0,0.0,960.0,5.0,0.0
1663,67.0,0.0,480.0,3.0,0.0
1664,48.0,0.0,960.0,6.0,0.0
1665,64.0,0.0,810.0,4.0,0.0
1666,60.0,110.0,810.0,5.0,0.0
1667,36.0,240.0,960.0,7.0,0.0
1668,72.0,200.0,600.0,3.0,0.0
1669,69.0,40.0,210.0,3.0,0.0
1670,57.0,240.0,240.0,5.0,0.0
1671,60.0,0.0,240.0,4.0,0.0
1672,38.0,0.0,960.0,7.0,0.0
1673,50.0,0.0,960.0,6.0,0.0
1674,66.0,0.0,240.0,3.0,0.0
1675,67.0,120.0,240.0,3.0,0.0
1676,59.0,0.0,240.0,4.0,0.0
1677,55.0,0.0,240.0,5.0,0.0
1678,69.0,120.0,240.0,3.0,0.0
1679,54.0,120.0,120.0,5.0,0.0
1680,60.0,0.0,240.0,4.0,0.0
1681,62.0,0.0,240.0,4.0,0.0
1682,71.0,120.0,240.0,3.0,0.0
1683,54.0,120.0,120.0,5.0,0.0
1684,55.0,0.0,5460.0,1.0,0.0
1685,67.0,0.0,5460.0,1.0,0.0
1686,55.0,0.0,5460.0,6.0,0.0
1687,59.0,0.0,120.0,4.0,0.0
1688,67.0,120.0,120.0,3.0,0.0
1689,43.0,50.0,5460.0,7.0,0.0
1690,55.0,70.0,4650.0,5.0,0.0
1691,60.0,0.0,120.0,4.0,0.0
1692,66.0,120.0,120.0,3.0,0.0
1693,59.0,0.0,120.0,4.0,0.0
1694,67.0,120.0,120.0,3.0,0.0
1695,60.0,240.0,120.0,4.0,0.0
1696,66.0,0.0,120.0,3.0,0.0
1697,59.0,360.0,240.0,4.0,0.0
1698,67.0,0.0,240.0,3.0,0.0
1699,83.0,0.0,480.0,0.0,0.0
1700,65.0,0.0,120.0,3.0,0.0
1701,62.0,120.0,120.0,4.0,0.0
1702,64.0,0.0,120.0,3.0,0.0
1703,61.0,120.0,120.0,4.0,0.0
1704,62.0,120.0,120.0,4.0,0.0
1705,65.0,0.0,120.0,3.0,0.0
1706,64.0,0.0,120.0,3.0,0.0
1707,61.0,240.0,120.0,4.0,0.0
1708,65.0,240.0,240.0,3.0,0.0
1709,62.0,0.0,240.0,4.0,0.0
1710,79.0,120.0,480.0,0.0,0.0
1711,64.0,120.0,120.0,3.0,0.0
1712,60.0,0.0,120.0,4.0,0.0
1713,84.0,110.0,600.0,0.0,0.0
1714,63.0,120.0,120.0,3.0,0.0
1715,59.0,0.0,120.0,4.0,0.0
1716,64.0,0.0,120.0,3.0,0.0
1717,60.0,120.0,120.0,4.0,0.0
1718,63.0,0.0,120.0,3.0,0.0
1719,59.0,130.0,120.0,4.0,0.0
1720,64.0,200.0,240.0,3.0,0.0
1721,60.0,0.0,240.0,4.0,0.0
1722,81.0,140.0,210.0,0.0,0.0
1723,60.0,120.0,120.0,4.0,0.0
1724,79.0,120.0,240.0,0.0,0.0
1725,69.0,20.0,90.0,3.0,0.0
1726,59.0,0.0,120.0,4.0,0.0
1727,68.0,0.0,120.0,3.0,0.0
1728,69.0,120.0,120.0,3.0,0.0
1729,60.0,0.0,120.0,4.0,0.0
1730,78.0,0.0,240.0,0.0,0.0
1731,68.0,120.0,120.0,3.0,0.0
1732,59.0,0.0,120.0,4.0,0.0
1733,76.0,0.0,240.0,0.0,0.0
1734,60.0,0.0,120.0,4.0,0.0
1735,69.0,120.0,120.0,3.0,0.0
1736,64.0,120.0,120.0,4.0,0.0
1737,72.0,0.0,120.0,3.0,0.0
1738,62.0,0.0,120.0,4.0,0.0
1739,71.0,120.0,120.0,3.0,0.0
1740,78.0,120.0,240.0,0.0,0.0
1741,60.0,0.0,120.0,4.0,0.0
1742,69.0,0.0,120.0,3.0,0.0
1743,67.0,120.0,120.0,3.0,0.0
1744,59.0,0.0,120.0,4.0,0.0
1745,79.0,0.0,240.0,0.0,0.0
1746,60.0,120.0,120.0,4.0,0.0
1747,66.0,0.0,120.0,3.0,0.0
1748,67.0,0.0,120.0,3.0,0.0
1749,83.0,0.0,240.0,0.0,0.0
1750,59.0,120.0,120.0,4.0,0.0
1751,66.0,0.0,120.0,3.0,0.0
1752,60.0,240.0,120.0,4.0,0.0
1753,67.0,90.0,240.0,3.0,0.0
1754,59.0,0.0,240.0,4.0,0.0
1755,86.0,200.0,390.0,0.0,0.0
1756,77.0,0.0,120.0,3.0,0.0
1757,67.0,130.0,1440.0,5.0,0.0
1758,74.0,120.0,120.0,4.0,0.0
1759,83.0,190.0,480.0,0.0,0.0
1760,73.0,120.0,120.0,4.0,0.0
1761,76.0,0.0,120.0,3.0,0.0
1762,77.0,0.0,120.0,3.0,0.0
1763,74.0,120.0,120.0,4.0,0.0
1764,76.0,0.0,120.0,3.0,0.0
1765,73.0,0.0,120.0,4.0,0.0
1766,77.0,0.0,240.0,3.0,0.0
1767,79.0,120.0,480.0,0.0,0.0
1768,74.0,240.0,240.0,4.0,0.0
1769,76.0,0.0,120.0,3.0,0.0
1770,36.0,0.0,960.0,7.0,0.0
1771,84.0,110.0,600.0,0.0,0.0
1772,72.0,120.0,120.0,4.0,0.0
1773,48.0,0.0,960.0,6.0,0.0
1774,75.0,120.0,120.0,3.0,0.0
1775,71.0,0.0,120.0,4.0,0.0
1776,76.0,120.0,120.0,3.0,0.0
1777,72.0,0.0,120.0,4.0,0.0
1778,75.0,0.0,120.0,3.0,0.0
1779,71.0,0.0,120.0,4.0,0.0
1780,72.0,0.0,240.0,4.0,0.0
1781,76.0,200.0,240.0,3.0,0.0
1782,64.0,240.0,480.0,5.0,0.0
1783,81.0,40.0,210.0,0.0,0.0
1784,69.0,0.0,240.0,3.0,0.0
1785,60.0,0.0,240.0,4.0,0.0
1786,50.0,0.0,960.0,6.0,0.0
1787,38.0,0.0,960.0,7.0,0.0
1788,62.0,30.0,810.0,5.0,0.0
1789,78.0,240.0,240.0,0.0,0.0
1790,59.0,0.0,240.0,4.0,0.0
1791,67.0,0.0,240.0,3.0,0.0
1792,79.0,120.0,240.0,0.0,0.0
1793,66.0,120.0,120.0,3.0,0.0
1794,81.0,90.0,240.0,0.0,0.0
1795,60.0,0.0,240.0,4.0,0.0
1796,83.0,0.0,240.0,0.0,0.0
1797,62.0,100.0,240.0,4.0,0.0
1798,66.0,120.0,120.0,3.0,0.0
1799,43.0,0.0,390.0,7.0,0.0
1800,62.0,0.0,390.0,5.0,0.0
1801,79.0,20.0,210.0,0.0,0.0
1802,67.0,40.0,390.0,3.0,0.0
1803,55.0,0.0,390.0,6.0,0.0
1804,59.0,100.0,90.0,4.0,0.0
1805,62.0,120.0,90.0,4.0,0.0
1806,67.0,60.0,90.0,4.0,0.0
1807,62.0,0.0,90.0,1.0,0.0
1808,74.0,20.0,210.0,0.0,0.0
1809,71.0,120.0,90.0,4.0,0.0
1810,62.0,0.0,90.0,1.0,0.0
1811,62.0,20.0,210.0,1.0,0.0
1812,74.0,0.0,210.0,0.0,0.0
1813,74.0,100.0,90.0,4.0,0.0
1814,74.0,120.0,90.0,4.0,0.0
1815,38.0,0.0,210.0,7.0,0.0
1816,86.0,0.0,210.0,3.0,0.0
1817,74.0,0.0,210.0,0.0,0.0
1818,62.0,0.0,210.0,1.0,0.0
1819,50.0,0.0,210.0,6.0,0.0
1820,78.0,100.0,90.0,4.0,0.0
1821,62.0,20.0,210.0,5.0,0.0
1822,74.0,0.0,210.0,3.0,0.0
1823,81.0,120.0,90.0,4.0,0.0
1824,71.0,0.0,210.0,0.0,0.0
1825,43.0,0.0,210.0,7.0,0.0
1826,67.0,0.0,210.0,5.0,0.0
1827,79.0,100.0,90.0,4.0,0.0
1828,59.0,0.0,210.0,1.0,0.0
1829,67.0,0.0,210.0,1.0,0.0
1830,83.0,0.0,210.0,3.0,0.0
1831,74.0,0.0,210.0,3.0,0.0
1832,55.0,20.0,210.0,6.0,0.0
1833,79.0,0.0,210.0,0.0,0.0
1834,74.0,120.0,90.0,4.0,0.0
1835,67.0,0.0,210.0,5.0,0.0
1836,79.0,100.0,90.0,4.0,0.0
1837,59.0,0.0,210.0,1.0,0.0
1838,67.0,0.0,210.0,1.0,0.0
1839,74.0,0.0,210.0,3.0,0.0
1840,55.0,0.0,210.0,6.0,0.0
1841,83.0,0.0,210.0,3.0,0.0
1842,43.0,20.0,210.0,7.0,0.0
1843,71.0,0.0,210.0,0.0,0.0
1844,79.0,0.0,210.0,0.0,0.0
1845,74.0,120.0,90.0,4.0,0.0
1846,38.0,20.0,210.0,7.0,0.0
1847,78.0,100.0,90.0,4.0,0.0
1848,62.0,0.0,210.0,1.0,0.0
1849,69.0,0.0,210.0,1.0,0.0
1850,81.0,0.0,210.0,0.0,0.0
1851,50.0,0.0,210.0,6.0,0.0
1852,84.0,0.0,210.0,3.0,0.0
1853,74.0,0.0,210.0,3.0,0.0
1854,74.0,0.0,210.0,0.0,0.0
1855,62.0,0.0,210.0,5.0,0.0
1856,81.0,120.0,90.0,4.0,0.0
1857,84.0,0.0,210.0,3.0,0.0
1858,62.0,0.0,210.0,5.0,0.0
1859,81.0,20.0,210.0,0.0,0.0
1860,74.0,0.0,210.0,3.0,0.0
1861,62.0,0.0,210.0,1.0,0.0
1862,69.0,0.0,210.0,1.0,0.0
1863,78.0,100.0,90.0,4.0,0.0
1864,50.0,0.0,210.0,6.0,0.0
1865,38.0,0.0,210.0,7.0,0.0
1866,74.0,0.0,210.0,0.0,0.0
1867,81.0,120.0,90.0,4.0,0.0
1868,79.0,0.0,210.0,0.0,0.0
1869,83.0,20.0,210.0,0.0,0.0
1870,67.0,0.0,210.0,1.0,0.0
1871,67.0,0.0,390.0,5.0,0.0
1872,79.0,100.0,90.0,4.0,0.0
1873,55.0,0.0,390.0,6.0,0.0
1874,43.0,40.0,390.0,7.0,0.0
1875,74.0,0.0,390.0,3.0,0.0
1876,83.0,0.0,390.0,3.0,0.0
1877,71.0,0.0,210.0,1.0,0.0
1878,86.0,120.0,90.0,4.0,0.0
1879,74.0,20.0,210.0,0.0,0.0
1880,83.0,0.0,90.0,4.0,0.0
1881,62.0,60.0,90.0,1.0,0.0
1882,79.0,120.0,90.0,4.0,0.0
1883,62.0,0.0,90.0,1.0,0.0
1884,74.0,100.0,90.0,4.0,0.0
1885,62.0,0.0,210.0,1.0,0.0
1886,74.0,20.0,210.0,0.0,0.0
1887,74.0,120.0,90.0,4.0,0.0
1888,62.0,0.0,210.0,1.0,0.0
1889,62.0,20.0,210.0,5.0,0.0
1890,78.0,100.0,90.0,4.0,0.0
1891,74.0,0.0,210.0,0.0,0.0
1892,81.0,0.0,210.0,3.0,0.0
1893,38.0,0.0,210.0,7.0,0.0
1894,50.0,0.0,210.0,6.0,0.0
1895,74.0,0.0,210.0,3.0,0.0
1896,74.0,120.0,90.0,4.0,0.0
1897,79.0,0.0,210.0,0.0,0.0
1898,55.0,0.0,210.0,6.0,0.0
1899,79.0,100.0,90.0,4.0,0.0
1900,83.0,0.0,210.0,0.0,0.0
1901,67.0,0.0,210.0,5.0,0.0
1902,79.0,20.0,210.0,3.0,0.0
1903,71.0,0.0,210.0,3.0,0.0
1904,43.0,0.0,210.0,7.0,0.0
1905,71.0,0.0,210.0,1.0,0.0
1906,67.0,0.0,210.0,1.0,0.0
1907,74.0,120.0,90.0,4.0,0.0
1908,55.0,0.0,210.0,6.0,0.0
1909,67.0,0.0,210.0,1.0,0.0
1910,71.0,0.0,210.0,3.0,0.0
1911,79.0,0.0,210.0,3.0,0.0
1912,83.0,0.0,210.0,0.0,0.0
1913,43.0,0.0,210.0,7.0,0.0
1914,67.0,20.0,210.0,5.0,0.0
1915,79.0,100.0,90.0,4.0,0.0
1916,79.0,0.0,210.0,0.0,0.0
1917,71.0,0.0,210.0,1.0,0.0
1918,74.0,120.0,90.0,4.0,0.0
1919,38.0,0.0,210.0,7.0,0.0
1920,81.0,0.0,210.0,3.0,0.0
1921,50.0,0.0,210.0,6.0,0.0
1922,78.0,100.0,90.0,4.0,0.0
1923,74.0,0.0,210.0,3.0,0.0
1924,69.0,0.0,210.0,1.0,0.0
1925,74.0,20.0,210.0,0.0,0.0
1926,81.0,0.0,210.0,0.0,0.0
1927,62.0,0.0,210.0,5.0,0.0
1928,62.0,0.0,210.0,1.0,0.0
1929,74.0,120.0,90.0,4.0,0.0
1930,50.0,0.0,210.0,6.0,0.0
1931,62.0,0.0,210.0,5.0,0.0
1932,81.0,0.0,210.0,0.0,0.0
1933,74.0,0.0,210.0,0.0,0.0
1934,74.0,0.0,210.0,3.0,0.0
1935,81.0,20.0,210.0,3.0,0.0
1936,38.0,0.0,210.0,7.0,0.0
1937,78.0,100.0,90.0,4.0,0.0
1938,69.0,0.0,210.0,1.0,0.0
1939,62.0,0.0,210.0,1.0,0.0
1940,74.0,420.0,90.0,4.0,0.0
1941,43.0,0.0,390.0,7.0,0.0
1942,79.0,0.0,390.0,4.0,0.0
1943,71.0,0.0,390.0,4.0,0.0
1944,67.0,0.0,390.0,1.0,0.0
1945,59.0,0.0,390.0,1.0,0.0
1946,71.0,0.0,390.0,0.0,0.0
1947,55.0,0.0,390.0,6.0,0.0
1948,79.0,0.0,390.0,3.0,0.0
1949,71.0,0.0,390.0,3.0,0.0
1950,79.0,480.0,390.0,0.0,0.0
1951,67.0,0.0,390.0,5.0,0.0
1952,67.0,0.0,390.0,1.0,0.0
1953,55.0,0.0,390.0,1.0,0.0
1954,83.0,0.0,390.0,4.0,0.0
1955,74.0,0.0,390.0,4.0,0.0
1956,74.0,0.0,390.0,0.0,0.0
1957,67.0,0.0,390.0,4.0,0.0
1958,83.0,0.0,390.0,3.0,0.0
1959,74.0,0.0,390.0,3.0,0.0
1960,67.0,0.0,390.0,3.0,0.0
1961,83.0,0.0,390.0,0.0,0.0
1962,67.0,0.0,390.0,5.0,0.0
1963,43.0,0.0,390.0,7.0,0.0
1964,55.0,480.0,390.0,6.0,0.0
1965,55.0,0.0,390.0,6.0,0.0
1966,55.0,0.0,390.0,1.0,0.0
1967,67.0,0.0,390.0,4.0,0.0
1968,59.0,0.0,390.0,4.0,0.0
1969,67.0,0.0,390.0,5.0,0.0
1970,59.0,0.0,390.0,3.0,0.0
1971,67.0,960.0,390.0,1.0,0.0
1972,43.0,0.0,390.0,7.0,0.0
1973,79.0,0.0,390.0,0.0,0.0
1974,67.0,0.0,390.0,3.0,0.0
1975,71.0,0.0,390.0,0.0,0.0
1976,67.0,10.0,1620.0,2.0,0.0
1977,43.0,0.0,390.0,7.0,0.0
1978,55.0,40.0,390.0,6.0,0.0
1979,62.0,240.0,210.0,5.0,0.0
1980,59.0,0.0,210.0,4.0,0.0
1981,67.0,0.0,210.0,3.0,0.0
1982,59.0,0.0,210.0,4.0,0.0
1983,62.0,0.0,210.0,5.0,0.0
1984,67.0,240.0,210.0,3.0,0.0
1985,59.0,0.0,210.0,4.0,0.0
1986,62.0,0.0,210.0,5.0,0.0
1987,67.0,240.0,210.0,3.0,0.0
1988,62.0,0.0,210.0,5.0,0.0
1989,67.0,0.0,210.0,3.0,0.0
1990,59.0,240.0,210.0,4.0,0.0
1991,67.0,230.0,210.0,3.0,0.0
1992,62.0,0.0,210.0,5.0,0.0
1993,59.0,0.0,210.0,4.0,0.0
1994,62.0,0.0,210.0,5.0,0.0
1995,67.0,0.0,210.0,3.0,0.0
1996,59.0,240.0,210.0,4.0,0.0
1997,67.0,440.0,210.0,3.0,0.0
1998,62.0,0.0,210.0,5.0,0.0
1999,59.0,0.0,210.0,4.0,0.0
2000,55.0,40.0,390.0,6.0,0.0
2001,71.0,10.0,1620.0,2.0,0.0
2002,43.0,0.0,390.0,7.0,0.0
2003,62.0,0.0,210.0,5.0,0.0
2004,59.0,0.0,210.0,4.0,0.0
2005,67.0,240.0,210.0,3.0,0.0
2006,59.0,240.0,210.0,4.0,0.0
2007,62.0,0.0,210.0,5.0,0.0
2008,67.0,0.0,210.0,3.0,0.0
2009,62.0,0.0,210.0,5.0,0.0
2010,67.0,240.0,210.0,3.0,0.0
2011,59.0,0.0,210.0,4.0,0.0
2012,59.0,0.0,210.0,4.0,0.0
2013,67.0,0.0,210.0,3.0,0.0
2014,62.0,240.0,210.0,5.0,0.0
2015,67.0,0.0,210.0,3.0,0.0
2016,62.0,230.0,210.0,5.0,0.0
2017,59.0,0.0,210.0,4.0,0.0
2018,67.0,240.0,210.0,3.0,0.0
2019,59.0,0.0,210.0,4.0,0.0
2020,62.0,0.0,210.0,5.0,0.0
2021,62.0,440.0,210.0,5.0,0.0
2022,59.0,0.0,210.0,4.0,0.0
2023,67.0,0.0,210.0,3.0,0.0
2024,43.0,40.0,390.0,7.0,0.0
2025,55.0,0.0,390.0,6.0,0.0
2026,74.0,110.0,810.0,2.0,0.0
2027,62.0,0.0,210.0,5.0,0.0
2028,59.0,0.0,210.0,4.0,0.0
2029,67.0,240.0,210.0,3.0,0.0
2030,67.0,0.0,210.0,3.0,0.0
2031,59.0,0.0,210.0,4.0,0.0
2032,62.0,130.0,210.0,5.0,0.0
2033,67.0,240.0,210.0,3.0,0.0
2034,59.0,0.0,210.0,4.0,0.0
2035,62.0,0.0,210.0,5.0,0.0
2036,67.0,40.0,210.0,3.0,0.0
2037,72.0,200.0,240.0,2.0,0.0
2038,62.0,0.0,210.0,5.0,0.0
2039,59.0,0.0,210.0,4.0,0.0
2040,67.0,40.0,210.0,3.0,0.0
2041,62.0,0.0,210.0,5.0,0.0
2042,71.0,200.0,240.0,2.0,0.0
2043,59.0,0.0,210.0,4.0,0.0
2044,59.0,40.0,210.0,4.0,0.0
2045,62.0,0.0,210.0,5.0,0.0
2046,69.0,200.0,240.0,2.0,0.0
2047,67.0,0.0,210.0,3.0,0.0
2048,59.0,0.0,210.0,4.0,0.0
2049,67.0,200.0,240.0,2.0,0.0
2050,62.0,0.0,210.0,5.0,0.0
2051,67.0,40.0,210.0,3.0,0.0
2052,42.0,0.0,480.0,7.0,0.0
2053,60.0,0.0,210.0,4.0,0.0
2054,62.0,0.0,210.0,5.0,0.0
2055,69.0,120.0,720.0,2.0,0.0
2056,54.0,200.0,480.0,6.0,0.0
2057,69.0,240.0,210.0,3.0,0.0
2058,62.0,0.0,210.0,5.0,0.0
2059,60.0,0.0,210.0,4.0,0.0
2060,69.0,40.0,210.0,3.0,0.0
2061,62.0,40.0,210.0,5.0,0.0
2062,60.0,0.0,210.0,4.0,0.0
2063,38.0,0.0,480.0,7.0,0.0
2064,50.0,200.0,480.0,6.0,0.0
2065,66.0,0.0,210.0,3.0,0.0
2066,60.0,0.0,210.0,4.0,0.0
2067,66.0,0.0,210.0,3.0,0.0
2068,71.0,80.0,120.0,2.0,0.0
2069,62.0,40.0,210.0,5.0,0.0
2070,72.0,0.0,120.0,2.0,0.0
2071,43.0,0.0,390.0,7.0,0.0
2072,59.0,0.0,210.0,4.0,0.0
2073,71.0,80.0,390.0,2.0,0.0
2074,67.0,0.0,210.0,3.0,0.0
2075,62.0,200.0,210.0,5.0,0.0
2076,55.0,0.0,390.0,6.0,0.0
2077,67.0,0.0,240.0,3.0,0.0
2078,55.0,240.0,240.0,5.0,0.0
2079,59.0,0.0,240.0,4.0,0.0
2080,60.0,0.0,240.0,4.0,0.0
2081,66.0,240.0,240.0,3.0,0.0
2082,57.0,0.0,240.0,5.0,0.0
2083,59.0,0.0,240.0,5.0,0.0
2084,62.0,0.0,240.0,4.0,0.0
2085,65.0,200.0,240.0,3.0,0.0
2086,64.0,70.0,600.0,2.0,0.0
2087,60.0,40.0,210.0,5.0,0.0
2088,48.0,0.0,390.0,7.0,0.0
2089,64.0,0.0,210.0,4.0,0.0
2090,64.0,160.0,240.0,3.0,0.0
2091,60.0,40.0,390.0,6.0,0.0
2092,67.0,120.0,240.0,3.0,0.0
2093,64.0,0.0,210.0,4.0,0.0
2094,60.0,40.0,210.0,5.0,0.0
2095,64.0,0.0,210.0,4.0,0.0
2096,67.0,10.0,120.0,3.0,0.0
2097,60.0,160.0,210.0,5.0,0.0
2098,60.0,240.0,210.0,5.0,0.0
2099,67.0,0.0,210.0,2.0,0.0
2100,67.0,80.0,120.0,3.0,0.0
2101,64.0,0.0,210.0,4.0,0.0
2102,72.0,70.0,600.0,2.0,0.0
2103,60.0,0.0,210.0,5.0,0.0
2104,64.0,240.0,210.0,4.0,0.0
2105,67.0,0.0,210.0,3.0,0.0
2106,67.0,0.0,210.0,3.0,0.0
2107,60.0,0.0,210.0,5.0,0.0
2108,64.0,170.0,210.0,4.0,0.0
2109,60.0,0.0,210.0,5.0,0.0
2110,67.0,240.0,210.0,3.0,0.0
2111,64.0,0.0,210.0,4.0,0.0
2112,64.0,0.0,210.0,4.0,0.0
2113,76.0,0.0,210.0,2.0,0.0
2114,67.0,0.0,210.0,3.0,0.0
2115,60.0,440.0,210.0,5.0,0.0
2116,59.0,40.0,390.0,6.0,0.0
2117,74.0,110.0,810.0,2.0,0.0
2118,47.0,0.0,390.0,7.0,0.0
2119,67.0,0.0,210.0,3.0,0.0
2120,62.0,0.0,210.0,4.0,0.0
2121,59.0,240.0,210.0,5.0,0.0
2122,62.0,130.0,210.0,4.0,0.0
2123,67.0,0.0,210.0,3.0,0.0
2124,59.0,0.0,210.0,5.0,0.0
2125,62.0,240.0,210.0,4.0,0.0
2126,59.0,0.0,210.0,5.0,0.0
2127,67.0,0.0,210.0,3.0,0.0
2128,66.0,0.0,240.0,3.0,0.0
2129,62.0,40.0,210.0,4.0,0.0
2130,57.0,0.0,240.0,5.0,0.0
2131,72.0,200.0,240.0,2.0,0.0
2132,62.0,40.0,210.0,4.0,0.0
2133,67.0,200.0,240.0,3.0,0.0
2134,55.0,0.0,240.0,5.0,0.0
2135,71.0,0.0,240.0,2.0,0.0
2136,69.0,0.0,240.0,2.0,0.0
2137,62.0,40.0,210.0,4.0,0.0
2138,54.0,200.0,240.0,5.0,0.0
2139,69.0,0.0,240.0,3.0,0.0
2140,62.0,0.0,210.0,4.0,0.0
2141,67.0,40.0,210.0,2.0,0.0
2142,55.0,200.0,240.0,5.0,0.0
2143,71.0,0.0,240.0,3.0,0.0
2144,62.0,40.0,210.0,4.0,0.0
2145,66.0,0.0,240.0,2.0,0.0
2146,72.0,0.0,240.0,3.0,0.0
2147,57.0,200.0,240.0,5.0,0.0
2148,67.0,0.0,240.0,2.0,0.0
2149,71.0,0.0,240.0,3.0,0.0
2150,59.0,200.0,240.0,5.0,0.0
2151,62.0,40.0,210.0,4.0,0.0
2152,69.0,0.0,240.0,2.0,0.0
2153,69.0,200.0,240.0,3.0,0.0
2154,62.0,40.0,210.0,4.0,0.0
2155,60.0,0.0,240.0,5.0,0.0
2156,67.0,0.0,240.0,3.0,0.0
2157,62.0,40.0,210.0,4.0,0.0
2158,71.0,200.0,240.0,2.0,0.0
2159,59.0,0.0,210.0,5.0,0.0
2160,57.0,0.0,210.0,5.0,0.0
2161,62.0,0.0,210.0,4.0,0.0
2162,66.0,200.0,210.0,3.0,0.0
2163,72.0,40.0,390.0,2.0,0.0
2164,57.0,0.0,210.0,5.0,0.0
2165,62.0,0.0,210.0,4.0,0.0
2166,66.0,240.0,210.0,3.0,0.0
2167,50.0,40.0,390.0,7.0,0.0
2168,66.0,200.0,210.0,4.0,0.0
2169,62.0,0.0,210.0,5.0,0.0
2170,69.0,0.0,210.0,3.0,0.0
2171,62.0,0.0,390.0,6.0,0.0
2172,72.0,0.0,390.0,2.0,0.0
2173,62.0,0.0,210.0,5.0,0.0
2174,69.0,0.0,210.0,3.0,0.0
2175,66.0,240.0,210.0,4.0,0.0
2176,62.0,200.0,210.0,5.0,0.0
2177,43.0,0.0,390.0,7.0,0.0
2178,60.0,0.0,210.0,4.0,0.0
2179,66.0,0.0,210.0,3.0,0.0
2180,55.0,40.0,390.0,6.0,0.0
2181,70.0,200.0,480.0,2.0,0.0
2182,60.0,40.0,210.0,4.0,0.0
2183,66.0,0.0,210.0,3.0,0.0
2184,62.0,0.0,210.0,5.0,0.0
2185,62.0,200.0,210.0,5.0,0.0
2186,59.0,0.0,210.0,4.0,0.0
2187,55.0,0.0,390.0,7.0,0.0
2188,67.0,0.0,210.0,3.0,0.0
2189,71.0,200.0,480.0,2.0,0.0
2190,67.0,40.0,390.0,6.0,0.0
2191,55.0,0.0,210.0,5.0,0.0
2192,67.0,40.0,210.0,3.0,0.0
2193,59.0,0.0,210.0,4.0,0.0
2194,57.0,240.0,210.0,5.0,0.0
2195,66.0,0.0,210.0,3.0,0.0
2196,60.0,0.0,210.0,4.0,0.0
2197,57.0,0.0,210.0,5.0,0.0
2198,66.0,240.0,210.0,3.0,0.0
2199,60.0,0.0,210.0,4.0,0.0
2200,59.0,240.0,210.0,5.0,0.0
2201,62.0,0.0,210.0,4.0,0.0
2202,65.0,0.0,210.0,3.0,0.0
2203,65.0,240.0,210.0,3.0,0.0
2204,62.0,0.0,210.0,4.0,0.0
2205,59.0,0.0,210.0,5.0,0.0
2206,48.0,40.0,390.0,7.0,0.0
2207,64.0,0.0,210.0,4.0,0.0
2208,64.0,160.0,240.0,3.0,0.0
2209,60.0,40.0,210.0,5.0,0.0
2210,64.0,70.0,600.0,2.0,0.0
2211,60.0,0.0,390.0,6.0,0.0
2212,60.0,40.0,210.0,5.0,0.0
2213,64.0,0.0,210.0,4.0,0.0
2214,60.0,0.0,210.0,5.0,0.0
2215,64.0,240.0,210.0,4.0,0.0
2216,67.0,130.0,15.0,3.0,0.0
2217,60.0,0.0,210.0,5.0,0.0
2218,67.0,0.0,210.0,2.0,0.0
2219,64.0,240.0,210.0,4.0,0.0
2220,67.0,0.0,210.0,3.0,0.0
2221,60.0,0.0,210.0,5.0,0.0
2222,72.0,70.0,600.0,2.0,0.0
2223,64.0,240.0,210.0,4.0,0.0
2224,67.0,0.0,210.0,3.0,0.0
2225,67.0,0.0,210.0,3.0,0.0
2226,64.0,170.0,210.0,4.0,0.0
2227,60.0,0.0,210.0,5.0,0.0
2228,60.0,0.0,210.0,5.0,0.0
2229,64.0,240.0,210.0,4.0,0.0
2230,67.0,0.0,210.0,3.0,0.0
2231,64.0,440.0,210.0,4.0,0.0
2232,60.0,0.0,210.0,5.0,0.0
2233,67.0,0.0,210.0,3.0,0.0
2234,76.0,0.0,210.0,2.0,0.0
2235,59.0,0.0,390.0,6.0,0.0
2236,67.0,0.0,390.0,3.0,0.0
2237,62.0,0.0,390.0,4.0,0.0
2238,47.0,480.0,390.0,7.0,0.0
2239,74.0,160.0,1170.0,2.0,0.0
2240,59.0,0.0,390.0,5.0,0.0
2241,62.0,280.0,390.0,5.0,0.0
2242,45.0,0.0,390.0,7.0,0.0
2243,66.0,0.0,390.0,4.0,0.0
2244,72.0,0.0,390.0,3.0,0.0
2245,57.0,0.0,390.0,6.0,0.0
2246,71.0,80.0,390.0,3.0,0.0
2247,67.0,0.0,390.0,4.0,0.0
2248,62.0,0.0,390.0,5.0,0.0
2249,55.0,0.0,390.0,6.0,0.0
2250,43.0,0.0,390.0,7.0,0.0
2251,76.0,40.0,120.0,2.0,0.0
2252,74.0,120.0,120.0,2.0,0.0
2253,72.0,120.0,120.0,2.0,0.0
2254,71.0,60.0,120.0,2.0,0.0
2255,69.0,120.0,60.0,2.0,0.0
2256,67.0,300.0,60.0,2.0,0.0
2257,71.0,0.0,240.0,4.0,0.0
2258,74.0,200.0,240.0,3.0,0.0
2259,74.0,0.0,240.0,2.0,0.0
2260,72.0,0.0,210.0,2.0,0.0
2261,69.0,0.0,210.0,4.0,0.0
2262,72.0,520.0,210.0,3.0,0.0
2263,67.0,0.0,960.0,4.0,0.0
2264,71.0,0.0,960.0,3.0,0.0
2265,71.0,150.0,810.0,2.0,0.0
2266,64.0,0.0,120.0,5.0,0.0
2267,61.0,330.0,120.0,6.0,0.0
2268,49.0,0.0,120.0,7.0,0.0
2269,50.0,400.0,480.0,7.0,0.0
2270,62.0,0.0,480.0,5.0,0.0
2271,62.0,0.0,480.0,6.0,0.0
2272,60.0,0.0,390.0,5.0,0.0
2273,50.0,80.0,390.0,6.0,0.0
2274,69.0,100.0,480.0,3.0,0.0
2275,66.0,0.0,390.0,4.0,0.0
2276,69.0,0.0,390.0,2.0,0.0
2277,38.0,0.0,390.0,7.0,0.0
2278,67.0,0.0,390.0,2.0,0.0
2279,43.0,40.0,390.0,7.0,0.0
2280,67.0,120.0,90.0,4.0,0.0
2281,55.0,0.0,390.0,6.0,0.0
2282,59.0,0.0,390.0,5.0,0.0
2283,67.0,0.0,390.0,3.0,0.0
2284,62.0,120.0,90.0,4.0,0.0
2285,74.0,20.0,210.0,0.0,0.0
2286,62.0,60.0,90.0,1.0,0.0
2287,67.0,0.0,90.0,4.0,0.0
2288,71.0,0.0,90.0,4.0,0.0
2289,62.0,120.0,90.0,1.0,0.0
2290,62.0,20.0,210.0,1.0,0.0
2291,74.0,0.0,210.0,0.0,0.0
2292,74.0,100.0,90.0,4.0,0.0
2293,74.0,120.0,90.0,4.0,0.0
2294,74.0,0.0,210.0,0.0,0.0
2295,50.0,0.0,210.0,6.0,0.0
2296,62.0,0.0,210.0,1.0,0.0
2297,74.0,0.0,210.0,3.0,0.0
2298,38.0,0.0,210.0,7.0,0.0
2299,62.0,20.0,210.0,5.0,0.0
2300,78.0,100.0,90.0,4.0,0.0
2301,86.0,0.0,210.0,3.0,0.0
2302,81.0,120.0,90.0,4.0,0.0
2303,59.0,0.0,210.0,1.0,0.0
2304,74.0,0.0,210.0,3.0,0.0
2305,83.0,0.0,210.0,3.0,0.0
2306,79.0,100.0,90.0,4.0,0.0
2307,55.0,0.0,210.0,6.0,0.0
2308,79.0,0.0,210.0,0.0,0.0
2309,67.0,0.0,210.0,1.0,0.0
2310,67.0,0.0,210.0,5.0,0.0
2311,71.0,0.0,210.0,0.0,0.0
2312,43.0,20.0,210.0,7.0,0.0
2313,74.0,120.0,90.0,4.0,0.0
2314,71.0,0.0,210.0,0.0,0.0
2315,55.0,20.0,210.0,6.0,0.0
2316,79.0,100.0,90.0,4.0,0.0
2317,67.0,0.0,210.0,1.0,0.0
2318,67.0,0.0,210.0,5.0,0.0
2319,43.0,0.0,210.0,7.0,0.0
2320,79.0,0.0,210.0,0.0,0.0
2321,59.0,0.0,210.0,1.0,0.0
2322,83.0,0.0,210.0,3.0,0.0
2323,74.0,0.0,210.0,3.0,0.0
2324,74.0,120.0,90.0,4.0,0.0
2325,69.0,0.0,210.0,1.0,0.0
2326,86.0,0.0,210.0,3.0,0.0
2327,50.0,20.0,210.0,6.0,0.0
2328,38.0,0.0,210.0,7.0,0.0
2329,81.0,0.0,210.0,0.0,0.0
2330,60.0,0.0,210.0,5.0,0.0
2331,74.0,0.0,210.0,3.0,0.0
2332,74.0,0.0,210.0,0.0,0.0
2333,78.0,100.0,90.0,4.0,0.0
2334,62.0,0.0,210.0,1.0,0.0
2335,81.0,120.0,90.0,4.0,0.0
2336,81.0,0.0,210.0,0.0,0.0
2337,69.0,0.0,210.0,1.0,0.0
2338,62.0,0.0,210.0,1.0,0.0
2339,38.0,0.0,210.0,7.0,0.0
2340,74.0,0.0,210.0,0.0,0.0
2341,78.0,100.0,90.0,4.0,0.0
2342,50.0,0.0,210.0,6.0,0.0
2343,74.0,0.0,210.0,3.0,0.0
2344,86.0,0.0,210.0,3.0,0.0
2345,60.0,20.0,210.0,5.0,0.0
2346,81.0,120.0,90.0,4.0,0.0
2347,79.0,100.0,90.0,4.0,0.0
2348,55.0,40.0,390.0,6.0,0.0
2349,71.0,0.0,210.0,1.0,0.0
2350,74.0,0.0,390.0,3.0,0.0
2351,79.0,20.0,210.0,0.0,0.0
2352,83.0,0.0,210.0,0.0,0.0
2353,67.0,0.0,210.0,1.0,0.0
2354,67.0,0.0,390.0,5.0,0.0
2355,43.0,0.0,390.0,7.0,0.0
2356,83.0,0.0,390.0,3.0,0.0
2357,86.0,120.0,90.0,4.0,0.0
2358,83.0,60.0,90.0,4.0,0.0
2359,74.0,20.0,210.0,0.0,0.0
2360,62.0,0.0,90.0,1.0,0.0
2361,62.0,0.0,90.0,1.0,0.0
2362,79.0,120.0,90.0,4.0,0.0
2363,62.0,0.0,210.0,1.0,0.0
2364,74.0,20.0,210.0,0.0,0.0
2365,74.0,100.0,90.0,4.0,0.0
2366,74.0,120.0,90.0,4.0,0.0
2367,74.0,0.0,210.0,3.0,0.0
2368,78.0,100.0,90.0,4.0,0.0
2369,81.0,20.0,210.0,3.0,0.0
2370,38.0,0.0,210.0,7.0,0.0
2371,74.0,0.0,210.0,0.0,0.0
2372,62.0,0.0,210.0,5.0,0.0
2373,50.0,0.0,210.0,6.0,0.0
2374,62.0,0.0,210.0,1.0,0.0
2375,74.0,120.0,90.0,4.0,0.0
2376,71.0,0.0,210.0,1.0,0.0
2377,79.0,0.0,210.0,3.0,0.0
2378,71.0,0.0,210.0,3.0,0.0
2379,43.0,0.0,210.0,7.0,0.0
2380,79.0,100.0,90.0,4.0,0.0
2381,83.0,0.0,210.0,0.0,0.0
2382,79.0,0.0,210.0,0.0,0.0
2383,67.0,0.0,210.0,1.0,0.0
2384,67.0,0.0,210.0,5.0,0.0
2385,55.0,20.0,210.0,6.0,0.0
2386,74.0,120.0,90.0,4.0,0.0
2387,67.0,0.0,210.0,5.0,0.0
2388,83.0,20.0,210.0,0.0,0.0
2389,79.0,0.0,210.0,0.0,0.0
2390,67.0,0.0,210.0,1.0,0.0
2391,71.0,0.0,210.0,1.0,0.0
2392,43.0,0.0,210.0,7.0,0.0
2393,79.0,0.0,210.0,3.0,0.0
2394,79.0,100.0,90.0,4.0,0.0
2395,55.0,0.0,210.0,6.0,0.0
2396,71.0,0.0,210.0,3.0,0.0
2397,74.0,120.0,90.0,4.0,0.0
2398,50.0,0.0,210.0,6.0,0.0
2399,62.0,0.0,210.0,1.0,0.0
2400,69.0,0.0,210.0,1.0,0.0
2401,38.0,0.0,210.0,7.0,0.0
2402,81.0,20.0,210.0,3.0,0.0
2403,74.0,0.0,210.0,0.0,0.0
2404,74.0,0.0,210.0,3.0,0.0
2405,62.0,0.0,210.0,5.0,0.0
2406,81.0,0.0,210.0,0.0,0.0
2407,78.0,100.0,90.0,4.0,0.0
2408,74.0,120.0,90.0,4.0,0.0
2409,81.0,0.0,210.0,3.0,0.0
2410,74.0,0.0,210.0,3.0,0.0
2411,50.0,20.0,210.0,6.0,0.0
2412,38.0,0.0,210.0,7.0,0.0
2413,62.0,0.0,210.0,1.0,0.0
2414,78.0,100.0,90.0,4.0,0.0
2415,69.0,0.0,210.0,1.0,0.0
2416,81.0,0.0,210.0,0.0,0.0
2417,62.0,0.0,210.0,5.0,0.0
2418,74.0,0.0,210.0,0.0,0.0
2419,74.0,420.0,90.0,4.0,0.0
2420,79.0,480.0,390.0,4.0,0.0
2421,71.0,0.0,390.0,4.0,0.0
2422,43.0,0.0,390.0,7.0,0.0
2423,67.0,0.0,390.0,5.0,0.0
2424,79.0,0.0,390.0,3.0,0.0
2425,59.0,0.0,390.0,1.0,0.0
2426,79.0,0.0,390.0,0.0,0.0
2427,55.0,0.0,390.0,6.0,0.0
2428,71.0,0.0,390.0,3.0,0.0
2429,71.0,0.0,390.0,0.0,0.0
2430,67.0,0.0,390.0,1.0,0.0
2431,62.0,480.0,390.0,2.0,0.0
2432,67.0,480.0,390.0,2.0,0.0
2433,71.0,480.0,390.0,2.0,0.0
2434,55.0,0.0,390.0,6.0,0.0
2435,74.0,180.0,1230.0,2.0,0.0
2436,43.0,40.0,390.0,7.0,0.0
2437,62.0,0.0,210.0,5.0,0.0
2438,59.0,0.0,210.0,4.0,0.0
2439,67.0,240.0,210.0,3.0,0.0
2440,59.0,0.0,210.0,4.0,0.0
2441,62.0,240.0,210.0,5.0,0.0
2442,67.0,0.0,210.0,3.0,0.0
2443,62.0,0.0,210.0,5.0,0.0
2444,59.0,240.0,210.0,4.0,0.0
2445,67.0,0.0,210.0,3.0,0.0
2446,59.0,0.0,210.0,4.0,0.0
2447,67.0,60.0,210.0,3.0,0.0
2448,62.0,0.0,210.0,5.0,0.0
2449,67.0,0.0,210.0,3.0,0.0
2450,62.0,0.0,210.0,5.0,0.0
2451,59.0,240.0,210.0,4.0,0.0
2452,59.0,0.0,210.0,4.0,0.0
2453,67.0,40.0,390.0,2.0,0.0
2454,62.0,200.0,210.0,5.0,0.0
2455,67.0,0.0,210.0,3.0,0.0
2456,62.0,440.0,210.0,5.0,0.0
2457,67.0,0.0,210.0,3.0,0.0
2458,59.0,0.0,210.0,4.0,0.0
2459,42.0,0.0,390.0,7.0,0.0
2460,54.0,40.0,390.0,6.0,0.0
2461,68.0,200.0,480.0,2.0,0.0
2462,66.0,0.0,210.0,5.0,0.0
2463,69.0,40.0,210.0,3.0,0.0
2464,62.0,0.0,210.0,4.0,0.0
2465,62.0,0.0,210.0,4.0,0.0
2466,66.0,240.0,210.0,5.0,0.0
2467,69.0,0.0,210.0,3.0,0.0
2468,69.0,0.0,210.0,3.0,0.0
2469,62.0,0.0,210.0,4.0,0.0
2470,66.0,240.0,210.0,5.0,0.0
2471,69.0,0.0,210.0,3.0,0.0
2472,62.0,40.0,210.0,4.0,0.0
2473,66.0,0.0,210.0,5.0,0.0
2474,69.0,0.0,210.0,3.0,0.0
2475,66.0,0.0,210.0,5.0,0.0
2476,62.0,240.0,210.0,4.0,0.0
2477,69.0,200.0,15.0,2.0,0.0
2478,62.0,0.0,210.0,4.0,0.0
2479,69.0,0.0,210.0,2.0,0.0
2480,66.0,240.0,210.0,5.0,0.0
2481,69.0,0.0,210.0,3.0,0.0
2482,66.0,0.0,210.0,5.0,0.0
2483,62.0,280.0,210.0,4.0,0.0
2484,69.0,0.0,210.0,3.0,0.0
2485,69.0,0.0,210.0,2.0,0.0
2486,40.0,0.0,960.0,7.0,0.0
2487,52.0,200.0,960.0,6.0,0.0
2488,69.0,200.0,240.0,2.0,0.0
2489,67.0,0.0,210.0,3.0,0.0
2490,62.0,0.0,210.0,4.0,0.0
2491,67.0,200.0,240.0,2.0,0.0
2492,59.0,40.0,210.0,5.0,0.0
2493,62.0,0.0,210.0,4.0,0.0
2494,59.0,240.0,210.0,5.0,0.0
2495,67.0,0.0,210.0,3.0,0.0
2496,67.0,120.0,720.0,2.0,0.0
2497,59.0,0.0,210.0,5.0,0.0
2498,67.0,40.0,210.0,3.0,0.0
2499,62.0,0.0,210.0,4.0,0.0
2500,64.0,0.0,210.0,4.0,0.0
2501,45.0,0.0,960.0,7.0,0.0
2502,67.0,0.0,210.0,3.0,0.0
2503,61.0,40.0,210.0,5.0,0.0
2504,57.0,200.0,960.0,6.0,0.0
2505,64.0,0.0,210.0,4.0,0.0
2506,61.0,40.0,210.0,5.0,0.0
2507,69.0,80.0,120.0,2.0,0.0
2508,67.0,0.0,210.0,3.0,0.0
2509,71.0,200.0,120.0,2.0,0.0
2510,64.0,0.0,210.0,4.0,0.0
2511,69.0,0.0,210.0,2.0,0.0
2512,67.0,240.0,210.0,3.0,0.0
2513,61.0,0.0,210.0,5.0,0.0
2514,64.0,40.0,210.0,4.0,0.0
2515,67.0,0.0,210.0,3.0,0.0
2516,61.0,0.0,210.0,5.0,0.0
2517,67.0,0.0,210.0,2.0,0.0
2518,67.0,0.0,210.0,3.0,0.0
2519,38.0,140.0,1230.0,7.0,0.0
2520,61.0,240.0,210.0,5.0,0.0
2521,50.0,0.0,1230.0,6.0,0.0
2522,69.0,70.0,600.0,2.0,0.0
2523,64.0,0.0,210.0,4.0,0.0
2524,64.0,0.0,210.0,4.0,0.0
2525,67.0,0.0,210.0,3.0,0.0
2526,61.0,170.0,210.0,5.0,0.0
2527,64.0,0.0,210.0,4.0,0.0
2528,67.0,240.0,210.0,3.0,0.0
2529,61.0,0.0,210.0,5.0,0.0
2530,64.0,0.0,210.0,4.0,0.0
2531,67.0,0.0,210.0,2.0,0.0
2532,67.0,280.0,210.0,3.0,0.0
2533,61.0,0.0,210.0,5.0,0.0
2534,62.0,0.0,240.0,5.0,0.0
2535,66.0,0.0,240.0,3.0,0.0
2536,66.0,80.0,390.0,2.0,0.0
2537,62.0,20.0,240.0,4.0,0.0
2538,57.0,240.0,480.0,5.0,0.0
2539,66.0,240.0,240.0,4.0,0.0
2540,62.0,0.0,240.0,3.0,0.0
2541,64.0,0.0,240.0,4.0,0.0
2542,67.0,0.0,240.0,3.0,0.0
2543,67.0,0.0,240.0,4.0,0.0
2544,64.0,0.0,240.0,3.0,0.0
2545,55.0,200.0,240.0,5.0,0.0
2546,54.0,0.0,390.0,6.0,0.0
2547,69.0,40.0,390.0,2.0,0.0
2548,42.0,0.0,390.0,7.0,0.0
2549,62.0,0.0,210.0,4.0,0.0
2550,69.0,0.0,210.0,3.0,0.0
2551,54.0,200.0,210.0,5.0,0.0
2552,62.0,0.0,210.0,4.0,0.0
2553,69.0,240.0,210.0,3.0,0.0
2554,54.0,0.0,210.0,5.0,0.0
2555,74.0,70.0,810.0,2.0,0.0
2556,54.0,0.0,210.0,5.0,0.0
2557,69.0,0.0,210.0,3.0,0.0
2558,62.0,240.0,210.0,4.0,0.0
2559,54.0,0.0,210.0,5.0,0.0
2560,69.0,0.0,210.0,3.0,0.0
2561,62.0,240.0,210.0,4.0,0.0
2562,69.0,130.0,210.0,4.0,0.0
2563,62.0,0.0,210.0,5.0,0.0
2564,54.0,0.0,390.0,6.0,0.0
2565,42.0,40.0,390.0,7.0,0.0
2566,72.0,0.0,210.0,3.0,0.0
2567,72.0,0.0,210.0,3.0,0.0
2568,62.0,0.0,210.0,5.0,0.0
2569,69.0,240.0,210.0,4.0,0.0
2570,62.0,0.0,210.0,5.0,0.0
2571,72.0,40.0,390.0,2.0,0.0
2572,69.0,0.0,210.0,4.0,0.0
2573,72.0,200.0,210.0,3.0,0.0
2574,72.0,240.0,210.0,3.0,0.0
2575,62.0,0.0,210.0,5.0,0.0
2576,69.0,0.0,210.0,4.0,0.0
2577,62.0,0.0,210.0,5.0,0.0
2578,70.0,40.0,390.0,2.0,0.0
2579,70.0,0.0,210.0,3.0,0.0
2580,55.0,0.0,810.0,6.0,0.0
2581,43.0,110.0,810.0,7.0,0.0
2582,66.0,200.0,210.0,4.0,0.0
2583,62.0,240.0,210.0,5.0,0.0
2584,70.0,0.0,210.0,3.0,0.0
2585,66.0,0.0,210.0,4.0,0.0
2586,71.0,0.0,210.0,3.0,0.0
2587,62.0,0.0,210.0,5.0,0.0
2588,71.0,70.0,600.0,2.0,0.0
2589,67.0,130.0,210.0,4.0,0.0
2590,62.0,0.0,210.0,5.0,0.0
2591,67.0,40.0,210.0,4.0,0.0
2592,43.0,0.0,240.0,7.0,0.0
2593,67.0,40.0,210.0,4.0,0.0
2594,71.0,130.0,15.0,3.0,0.0
2595,62.0,0.0,240.0,5.0,0.0
2596,55.0,240.0,240.0,6.0,0.0
2597,70.0,200.0,240.0,3.0,0.0
2598,62.0,40.0,450.0,4.0,0.0
2599,42.0,0.0,240.0,7.0,0.0
2600,54.0,0.0,240.0,6.0,0.0
2601,70.0,0.0,240.0,2.0,0.0
2602,60.0,0.0,240.0,5.0,0.0
2603,59.0,0.0,240.0,5.0,0.0
2604,71.0,0.0,240.0,2.0,0.0
2605,55.0,0.0,240.0,6.0,0.0
2606,43.0,0.0,240.0,7.0,0.0
2607,71.0,240.0,240.0,3.0,0.0
2608,60.0,0.0,240.0,5.0,0.0
2609,42.0,200.0,240.0,7.0,0.0
2610,70.0,0.0,240.0,2.0,0.0
2611,70.0,0.0,240.0,3.0,0.0
2612,54.0,0.0,240.0,6.0,0.0
2613,62.0,0.0,450.0,4.0,0.0
2614,71.0,240.0,210.0,3.0,0.0
2615,71.0,0.0,210.0,2.0,0.0
2616,59.0,0.0,210.0,5.0,0.0
2617,55.0,0.0,210.0,6.0,0.0
2618,43.0,0.0,210.0,7.0,0.0
2619,59.0,240.0,210.0,5.0,0.0
2620,71.0,0.0,210.0,3.0,0.0
2621,62.0,0.0,210.0,4.0,0.0
2622,57.0,0.0,210.0,5.0,0.0
2623,40.0,0.0,210.0,7.0,0.0
2624,67.0,0.0,210.0,4.0,0.0
2625,73.0,0.0,210.0,2.0,0.0
2626,73.0,0.0,210.0,3.0,0.0
2627,52.0,240.0,210.0,6.0,0.0
2628,73.0,0.0,210.0,3.0,0.0
2629,67.0,0.0,210.0,4.0,0.0
2630,57.0,240.0,210.0,5.0,0.0
2631,74.0,0.0,210.0,2.0,0.0
2632,57.0,0.0,210.0,5.0,0.0
2633,66.0,0.0,210.0,4.0,0.0
2634,74.0,0.0,210.0,3.0,0.0
2635,54.0,240.0,210.0,6.0,0.0
2636,42.0,0.0,210.0,7.0,0.0
2637,74.0,0.0,210.0,3.0,0.0
2638,57.0,0.0,210.0,5.0,0.0
2639,66.0,240.0,210.0,4.0,0.0
2640,71.0,240.0,210.0,4.0,0.0
2641,76.0,0.0,210.0,3.0,0.0
2642,44.0,0.0,210.0,7.0,0.0
2643,56.0,0.0,210.0,6.0,0.0
2644,62.0,0.0,210.0,5.0,0.0
2645,76.0,0.0,210.0,2.0,0.0
2646,62.0,0.0,210.0,5.0,0.0
2647,76.0,240.0,210.0,3.0,0.0
2648,71.0,0.0,210.0,4.0,0.0
2649,57.0,0.0,210.0,6.0,0.0
2650,69.0,0.0,210.0,3.0,0.0
2651,61.0,0.0,210.0,5.0,0.0
2652,45.0,200.0,210.0,7.0,0.0
2653,66.0,0.0,210.0,4.0,0.0
2654,69.0,40.0,390.0,2.0,0.0
2655,81.0,0.0,210.0,4.0,0.0
2656,81.0,0.0,210.0,0.0,0.0
2657,69.0,240.0,210.0,1.0,0.0
2658,57.0,0.0,210.0,7.0,0.0
2659,69.0,0.0,210.0,5.0,0.0
2660,81.0,0.0,210.0,3.0,0.0
2661,69.0,0.0,210.0,6.0,0.0
2662,81.0,0.0,210.0,4.0,0.0
2663,69.0,0.0,210.0,5.0,0.0
2664,69.0,0.0,210.0,6.0,0.0
2665,81.0,0.0,210.0,3.0,0.0
2666,69.0,240.0,210.0,1.0,0.0
2667,57.0,0.0,210.0,7.0,0.0
2668,81.0,0.0,210.0,0.0,0.0
2669,81.0,0.0,210.0,3.0,0.0
2670,81.0,0.0,210.0,4.0,0.0
2671,69.0,0.0,210.0,5.0,0.0
2672,81.0,0.0,210.0,0.0,0.0
2673,57.0,0.0,210.0,7.0,0.0
2674,69.0,0.0,210.0,1.0,0.0
2675,69.0,240.0,210.0,6.0,0.0
2676,69.0,0.0,210.0,6.0,0.0
2677,57.0,0.0,210.0,7.0,0.0
2678,69.0,40.0,390.0,1.0,0.0
2679,81.0,200.0,210.0,4.0,0.0
2680,81.0,0.0,210.0,3.0,0.0
2681,69.0,0.0,210.0,5.0,0.0
2682,81.0,0.0,390.0,0.0,0.0
2683,76.0,0.0,210.0,3.0,0.0
2684,64.0,0.0,210.0,5.0,0.0
2685,76.0,240.0,210.0,4.0,0.0
2686,52.0,0.0,210.0,7.0,0.0
2687,64.0,0.0,210.0,6.0,0.0
2688,61.0,200.0,210.0,5.0,0.0
2689,69.0,40.0,390.0,2.0,0.0
2690,73.0,0.0,210.0,4.0,0.0
2691,61.0,0.0,210.0,6.0,0.0
2692,49.0,0.0,210.0,7.0,0.0
2693,73.0,0.0,210.0,3.0,0.0
2694,69.0,0.0,210.0,3.0,0.0
2695,45.0,0.0,210.0,7.0,0.0
2696,69.0,0.0,210.0,4.0,0.0
2697,57.0,0.0,210.0,6.0,0.0
2698,57.0,240.0,210.0,5.0,0.0
2699,67.0,240.0,210.0,3.0,0.0
2700,67.0,140.0,1170.0,2.0,0.0
2701,45.0,0.0,210.0,6.0,0.0
2702,64.0,0.0,210.0,5.0,0.0
2703,61.0,0.0,210.0,4.0,0.0
2704,33.0,0.0,210.0,7.0,0.0
2705,64.0,0.0,210.0,5.0,0.0
2706,67.0,240.0,210.0,3.0,0.0
2707,61.0,0.0,210.0,4.0,0.0
2708,64.0,0.0,210.0,5.0,0.0
2709,61.0,0.0,210.0,4.0,0.0
2710,45.0,0.0,210.0,7.0,0.0
2711,67.0,0.0,210.0,3.0,0.0
2712,57.0,240.0,210.0,6.0,0.0
2713,61.0,0.0,210.0,4.0,0.0
2714,64.0,240.0,210.0,5.0,0.0
2715,67.0,0.0,210.0,3.0,0.0
2716,64.0,0.0,210.0,5.0,0.0
2717,52.0,0.0,210.0,6.0,0.0
2718,40.0,0.0,210.0,7.0,0.0
2719,67.0,0.0,210.0,3.0,0.0
2720,61.0,0.0,210.0,4.0,0.0
2721,69.0,100.0,90.0,2.0,0.0
2722,67.0,0.0,210.0,3.0,0.0
2723,64.0,20.0,210.0,5.0,0.0
2724,61.0,0.0,210.0,4.0,0.0
2725,71.0,120.0,90.0,2.0,0.0
2726,37.0,0.0,210.0,7.0,0.0
2727,49.0,0.0,210.0,6.0,0.0
2728,64.0,0.0,210.0,5.0,0.0
2729,73.0,100.0,90.0,2.0,0.0
2730,67.0,0.0,210.0,3.0,0.0
2731,61.0,20.0,210.0,4.0,0.0
2732,74.0,120.0,90.0,2.0,0.0
2733,67.0,0.0,210.0,3.0,0.0
2734,64.0,20.0,210.0,5.0,0.0
2735,61.0,0.0,210.0,4.0,0.0
2736,76.0,100.0,90.0,2.0,0.0
2737,74.0,140.0,90.0,2.0,0.0
2738,61.0,0.0,120.0,4.0,0.0
2739,73.0,80.0,390.0,2.0,0.0
2740,64.0,0.0,390.0,5.0,0.0
2741,45.0,0.0,390.0,6.0,0.0
2742,67.0,240.0,120.0,3.0,0.0
2743,33.0,0.0,390.0,7.0,0.0
2744,79.0,0.0,120.0,3.0,0.0
2745,76.0,40.0,120.0,4.0,0.0
2746,78.0,0.0,120.0,3.0,0.0
2747,74.0,120.0,120.0,4.0,0.0
2748,73.0,0.0,120.0,4.0,0.0
2749,76.0,240.0,120.0,3.0,0.0
2750,73.0,120.0,120.0,4.0,0.0
2751,76.0,0.0,120.0,3.0,0.0
2752,71.0,120.0,120.0,4.0,0.0
2753,74.0,0.0,120.0,3.0,0.0
2754,73.0,0.0,120.0,3.0,0.0
2755,69.0,240.0,120.0,4.0,0.0
2756,69.0,0.0,120.0,4.0,0.0
2757,73.0,120.0,120.0,3.0,0.0
2758,71.0,0.0,120.0,3.0,0.0
2759,67.0,120.0,120.0,4.0,0.0
2760,69.0,0.0,120.0,3.0,0.0
2761,66.0,240.0,120.0,4.0,0.0
2762,69.0,0.0,120.0,3.0,0.0
2763,66.0,120.0,120.0,4.0,0.0
2764,67.0,0.0,120.0,3.0,0.0
2765,64.0,200.0,120.0,4.0,0.0
2766,66.0,0.0,210.0,3.0,0.0
2767,62.0,0.0,210.0,4.0,0.0
2768,57.0,0.0,210.0,5.0,0.0
2769,33.0,0.0,210.0,7.0,0.0
2770,69.0,0.0,1170.0,2.0,0.0
2771,45.0,240.0,210.0,6.0,0.0
2772,57.0,0.0,210.0,5.0,0.0
2773,62.0,240.0,210.0,4.0,0.0
2774,66.0,0.0,210.0,3.0,0.0
2775,66.0,0.0,210.0,3.0,0.0
2776,57.0,0.0,210.0,5.0,0.0
2777,62.0,0.0,210.0,4.0,0.0
2778,45.0,0.0,210.0,7.0,0.0
2779,57.0,240.0,210.0,6.0,0.0
2780,62.0,240.0,210.0,4.0,0.0
2781,66.0,0.0,210.0,3.0,0.0
2782,57.0,0.0,210.0,5.0,0.0
2783,66.0,0.0,210.0,3.0,0.0
2784,40.0,140.0,210.0,7.0,0.0
2785,57.0,0.0,210.0,5.0,0.0
2786,62.0,0.0,210.0,4.0,0.0
2787,52.0,0.0,210.0,6.0,0.0
2788,57.0,0.0,210.0,5.0,0.0
2789,66.0,20.0,210.0,3.0,0.0
2790,62.0,0.0,210.0,4.0,0.0
2791,71.0,100.0,90.0,2.0,0.0
2792,73.0,120.0,90.0,2.0,0.0
2793,66.0,0.0,210.0,3.0,0.0
2794,49.0,0.0,210.0,6.0,0.0
2795,74.0,100.0,90.0,2.0,0.0
2796,57.0,0.0,210.0,5.0,0.0
2797,62.0,0.0,210.0,4.0,0.0
2798,37.0,20.0,210.0,7.0,0.0
2799,76.0,120.0,90.0,2.0,0.0
2800,57.0,0.0,210.0,5.0,0.0
2801,66.0,0.0,210.0,3.0,0.0
2802,78.0,100.0,90.0,2.0,0.0
2803,62.0,20.0,210.0,4.0,0.0
2804,76.0,140.0,90.0,2.0,0.0
2805,62.0,240.0,120.0,4.0,0.0
2806,57.0,0.0,390.0,5.0,0.0
2807,33.0,80.0,390.0,7.0,0.0
2808,45.0,0.0,390.0,6.0,0.0
2809,74.0,0.0,390.0,2.0,0.0
2810,66.0,0.0,120.0,3.0,0.0
2811,81.0,0.0,120.0,3.0,0.0
2812,78.0,40.0,120.0,4.0,0.0
2813,79.0,0.0,120.0,3.0,0.0
2814,76.0,120.0,120.0,4.0,0.0
2815,78.0,240.0,120.0,3.0,0.0
2816,74.0,0.0,120.0,4.0,0.0
2817,74.0,0.0,120.0,4.0,0.0
2818,78.0,120.0,120.0,3.0,0.0
2819,76.0,0.0,120.0,3.0,0.0
2820,73.0,120.0,120.0,4.0,0.0
2821,71.0,240.0,120.0,4.0,0.0
2822,74.0,0.0,120.0,3.0,0.0
2823,71.0,100.0,120.0,4.0,0.0
2824,74.0,0.0,120.0,3.0,0.0
2825,73.0,120.0,120.0,3.0,0.0
2826,69.0,20.0,90.0,4.0,0.0
2827,67.0,0.0,120.0,4.0,0.0
2828,71.0,240.0,120.0,3.0,0.0
2829,67.0,0.0,120.0,4.0,0.0
2830,71.0,120.0,120.0,3.0,0.0
2831,69.0,200.0,120.0,3.0,0.0
2832,66.0,0.0,120.0,4.0,0.0
2833,67.0,240.0,210.0,3.0,0.0
2834,64.0,0.0,210.0,4.0,0.0
2835,67.0,0.0,1170.0,2.0,0.0
2836,45.0,0.0,210.0,6.0,0.0
2837,33.0,0.0,210.0,7.0,0.0
2838,61.0,0.0,210.0,5.0,0.0
2839,64.0,0.0,210.0,4.0,0.0
2840,61.0,0.0,210.0,5.0,0.0
2841,67.0,240.0,210.0,3.0,0.0
2842,57.0,0.0,210.0,6.0,0.0
2843,67.0,0.0,210.0,3.0,0.0
2844,45.0,0.0,210.0,7.0,0.0
2845,64.0,240.0,210.0,4.0,0.0
2846,61.0,0.0,210.0,5.0,0.0
2847,61.0,240.0,210.0,5.0,0.0
2848,67.0,0.0,210.0,3.0,0.0
2849,64.0,0.0,210.0,4.0,0.0
2850,64.0,0.0,210.0,4.0,0.0
2851,61.0,0.0,210.0,5.0,0.0
2852,52.0,0.0,210.0,6.0,0.0
2853,67.0,0.0,210.0,3.0,0.0
2854,40.0,140.0,210.0,7.0,0.0
2855,61.0,0.0,210.0,5.0,0.0
2856,64.0,0.0,210.0,4.0,0.0
2857,67.0,20.0,210.0,3.0,0.0
2858,69.0,100.0,90.0,2.0,0.0
2859,71.0,120.0,90.0,2.0,0.0
2860,37.0,0.0,210.0,7.0,0.0
2861,73.0,100.0,90.0,2.0,0.0
2862,49.0,0.0,210.0,6.0,0.0
2863,67.0,0.0,210.0,3.0,0.0
2864,61.0,20.0,210.0,5.0,0.0
2865,64.0,0.0,210.0,4.0,0.0
2866,74.0,120.0,90.0,2.0,0.0
2867,61.0,0.0,210.0,5.0,0.0
2868,76.0,100.0,90.0,2.0,0.0
2869,67.0,0.0,210.0,3.0,0.0
2870,64.0,20.0,210.0,4.0,0.0
2871,78.0,220.0,90.0,2.0,0.0
2872,79.0,0.0,390.0,2.0,0.0
2873,67.0,0.0,210.0,3.0,0.0
2874,45.0,0.0,390.0,6.0,0.0
2875,64.0,200.0,210.0,4.0,0.0
2876,61.0,0.0,390.0,5.0,0.0
2877,33.0,40.0,390.0,7.0,0.0
2878,79.0,240.0,210.0,3.0,0.0
2879,76.0,0.0,210.0,4.0,0.0
2880,76.0,0.0,210.0,4.0,0.0
2881,79.0,240.0,210.0,3.0,0.0
2882,76.0,0.0,210.0,4.0,0.0
2883,79.0,480.0,210.0,3.0,0.0
2884,46.0,0.0,810.0,7.0,0.0
2885,67.0,0.0,810.0,2.0,0.0
2886,58.0,110.0,810.0,6.0,0.0
2887,64.0,0.0,210.0,4.0,0.0
2888,67.0,240.0,210.0,3.0,0.0
2889,61.0,0.0,210.0,5.0,0.0
2890,67.0,0.0,210.0,3.0,0.0
2891,64.0,0.0,210.0,4.0,0.0
2892,61.0,130.0,210.0,5.0,0.0
2893,67.0,0.0,210.0,3.0,0.0
2894,64.0,480.0,210.0,4.0,0.0
2895,61.0,0.0,210.0,5.0,0.0
2896,59.0,0.0,810.0,6.0,0.0
2897,66.0,0.0,810.0,2.0,0.0
2898,47.0,110.0,810.0,7.0,0.0
2899,66.0,240.0,210.0,3.0,0.0
2900,62.0,0.0,210.0,5.0,0.0
2901,62.0,0.0,210.0,4.0,0.0
2902,62.0,130.0,210.0,5.0,0.0
2903,62.0,0.0,210.0,4.0,0.0
2904,66.0,0.0,210.0,3.0,0.0
2905,62.0,0.0,210.0,4.0,0.0
2906,66.0,0.0,210.0,3.0,0.0
2907,62.0,480.0,210.0,5.0,0.0
2908,44.0,0.0,810.0,7.0,0.0
2909,56.0,110.0,810.0,6.0,0.0
2910,71.0,0.0,810.0,2.0,0.0
2911,71.0,240.0,210.0,3.0,0.0
2912,65.0,0.0,210.0,4.0,0.0
2913,62.0,0.0,210.0,5.0,0.0
2914,65.0,0.0,210.0,4.0,0.0
2915,71.0,0.0,210.0,3.0,0.0
2916,62.0,130.0,210.0,5.0,0.0
2917,71.0,0.0,210.0,3.0,0.0
2918,62.0,0.0,210.0,5.0,0.0
2919,65.0,240.0,210.0,4.0,0.0
2920,69.0,240.0,1170.0,2.0,0.0
2921,57.0,240.0,210.0,6.0,0.0
2922,45.0,0.0,210.0,7.0,0.0
2923,69.0,10.0,3540.0,1.0,0.0
2924,57.0,0.0,210.0,6.0,0.0
2925,45.0,0.0,210.0,7.0,0.0
2926,69.0,0.0,210.0,3.0,0.0
2927,62.0,0.0,210.0,5.0,0.0
2928,66.0,240.0,210.0,4.0,0.0
2929,66.0,0.0,210.0,4.0,0.0
2930,62.0,240.0,210.0,5.0,0.0
2931,57.0,0.0,210.0,6.0,0.0
2932,45.0,0.0,210.0,7.0,0.0
2933,69.0,0.0,210.0,3.0,0.0
2934,66.0,0.0,210.0,4.0,0.0
2935,57.0,0.0,210.0,6.0,0.0
2936,69.0,0.0,210.0,3.0,0.0
2937,45.0,0.0,210.0,7.0,0.0
2938,62.0,240.0,210.0,5.0,0.0
2939,57.0,0.0,210.0,6.0,0.0
2940,69.0,0.0,210.0,3.0,0.0
2941,66.0,0.0,210.0,4.0,0.0
2942,62.0,0.0,210.0,5.0,0.0
2943,45.0,0.0,210.0,7.0,0.0
2944,78.0,0.0,810.0,0.0,0.0
2945,74.0,110.0,810.0,0.0,0.0
2946,45.0,0.0,210.0,7.0,0.0
2947,71.0,200.0,240.0,2.0,0.0
2948,69.0,40.0,210.0,3.0,0.0
2949,66.0,0.0,210.0,4.0,0.0
2950,57.0,0.0,210.0,6.0,0.0
2951,62.0,0.0,210.0,5.0,0.0
2952,62.0,0.0,210.0,5.0,0.0
2953,69.0,0.0,210.0,3.0,0.0
2954,66.0,0.0,210.0,4.0,0.0
2955,45.0,40.0,210.0,7.0,0.0
2956,73.0,90.0,240.0,2.0,0.0
2957,57.0,0.0,210.0,6.0,0.0
2958,74.0,60.0,240.0,2.0,0.0
2959,57.0,0.0,210.0,6.0,0.0
2960,45.0,0.0,210.0,7.0,0.0
2961,62.0,0.0,210.0,5.0,0.0
2962,69.0,40.0,210.0,3.0,0.0
2963,66.0,0.0,210.0,4.0,0.0
2964,79.0,0.0,960.0,0.0,0.0
2965,45.0,20.0,210.0,7.0,0.0
2966,69.0,0.0,90.0,5.0,0.0
2967,76.0,0.0,960.0,0.0,0.0
2968,72.0,40.0,60.0,2.0,0.0
2969,64.0,20.0,90.0,4.0,0.0
2970,57.0,0.0,210.0,6.0,0.0
2971,67.0,0.0,90.0,3.0,0.0
2972,74.0,60.0,60.0,2.0,0.0
2973,69.0,0.0,90.0,5.0,0.0
2974,64.0,0.0,90.0,4.0,0.0
2975,67.0,20.0,90.0,3.0,0.0
2976,72.0,20.0,60.0,2.0,0.0
2977,74.0,60.0,60.0,2.0,0.0
2978,57.0,0.0,210.0,6.0,0.0
2979,72.0,40.0,60.0,2.0,0.0
2980,69.0,0.0,90.0,5.0,0.0
2981,45.0,20.0,210.0,7.0,0.0
2982,64.0,0.0,90.0,4.0,0.0
2983,67.0,20.0,90.0,3.0,0.0
2984,74.0,60.0,60.0,2.0,0.0
2985,67.0,0.0,90.0,3.0,0.0
2986,69.0,20.0,90.0,5.0,0.0
2987,64.0,0.0,90.0,4.0,0.0
2988,72.0,20.0,60.0,2.0,0.0
2989,74.0,60.0,60.0,2.0,0.0
2990,57.0,0.0,210.0,6.0,0.0
2991,76.0,0.0,90.0,3.0,0.0
2992,45.0,20.0,210.0,7.0,0.0
2993,67.0,0.0,90.0,4.0,0.0
2994,69.0,20.0,90.0,5.0,0.0
2995,72.0,40.0,60.0,2.0,0.0
2996,74.0,60.0,60.0,2.0,0.0
2997,69.0,0.0,90.0,5.0,0.0
2998,72.0,20.0,60.0,2.0,0.0
2999,76.0,20.0,90.0,3.0,0.0
3000,67.0,0.0,90.0,4.0,0.0
3001,74.0,60.0,60.0,2.0,0.0
3002,45.0,20.0,210.0,7.0,0.0
3003,72.0,40.0,60.0,2.0,0.0
3004,57.0,0.0,210.0,6.0,0.0
3005,67.0,0.0,90.0,4.0,0.0
3006,76.0,0.0,90.0,3.0,0.0
3007,69.0,20.0,90.0,5.0,0.0
3008,74.0,60.0,60.0,2.0,0.0
3009,72.0,20.0,60.0,2.0,0.0
3010,69.0,0.0,90.0,5.0,0.0
3011,67.0,20.0,90.0,4.0,0.0
3012,76.0,0.0,90.0,3.0,0.0
3013,74.0,60.0,60.0,2.0,0.0
3014,45.0,0.0,210.0,7.0,0.0
3015,69.0,20.0,90.0,5.0,0.0
3016,73.0,0.0,810.0,0.0,0.0
3017,76.0,10.0,810.0,0.0,0.0
3018,72.0,40.0,60.0,2.0,0.0
3019,76.0,0.0,90.0,4.0,0.0
3020,57.0,20.0,210.0,6.0,0.0
3021,79.0,0.0,90.0,3.0,0.0
3022,74.0,60.0,60.0,2.0,0.0
3023,72.0,20.0,60.0,2.0,0.0
3024,76.0,20.0,90.0,4.0,0.0
3025,79.0,0.0,90.0,3.0,0.0
3026,69.0,0.0,90.0,5.0,0.0
3027,74.0,60.0,60.0,2.0,0.0
3028,79.0,0.0,90.0,3.0,0.0
3029,72.0,40.0,60.0,2.0,0.0
3030,76.0,0.0,90.0,4.0,0.0
3031,45.0,0.0,210.0,7.0,0.0
3032,69.0,20.0,90.0,5.0,0.0
3033,57.0,20.0,210.0,6.0,0.0
3034,74.0,60.0,60.0,2.0,0.0
3035,79.0,0.0,90.0,3.0,0.0
3036,72.0,20.0,60.0,2.0,0.0
3037,69.0,0.0,90.0,5.0,0.0
3038,76.0,20.0,90.0,4.0,0.0
3039,74.0,60.0,60.0,2.0,0.0
3040,79.0,0.0,90.0,4.0,0.0
3041,72.0,40.0,60.0,2.0,0.0
3042,85.0,0.0,90.0,3.0,0.0
3043,45.0,0.0,210.0,7.0,0.0
3044,76.0,20.0,90.0,5.0,0.0
3045,57.0,20.0,210.0,6.0,0.0
3046,74.0,60.0,60.0,2.0,0.0
3047,72.0,10.0,60.0,2.0,0.0
3048,85.0,0.0,90.0,3.0,0.0
3049,76.0,0.0,90.0,5.0,0.0
3050,79.0,20.0,90.0,4.0,0.0
3051,74.0,60.0,60.0,2.0,0.0
3052,85.0,0.0,90.0,3.0,0.0
3053,72.0,30.0,60.0,2.0,0.0
3054,76.0,0.0,90.0,5.0,0.0
3055,45.0,0.0,210.0,7.0,0.0
3056,57.0,20.0,210.0,6.0,0.0
3057,79.0,20.0,90.0,4.0,0.0
3058,74.0,60.0,60.0,2.0,0.0
3059,85.0,0.0,90.0,3.0,0.0
3060,76.0,0.0,90.0,5.0,0.0
3061,79.0,20.0,90.0,4.0,0.0
3062,71.0,20.0,60.0,2.0,0.0
3063,72.0,200.0,60.0,2.0,0.0
3064,50.0,0.0,210.0,6.0,0.0
3065,74.0,0.0,210.0,5.0,0.0
3066,86.0,0.0,390.0,3.0,0.0
3067,62.0,10.0,1620.0,1.0,0.0
3068,78.0,0.0,390.0,4.0,0.0
3069,69.0,0.0,1620.0,1.0,0.0
3070,74.0,200.0,480.0,2.0,0.0
3071,74.0,40.0,390.0,0.0,0.0
3072,38.0,200.0,210.0,7.0,0.0
3073,50.0,0.0,210.0,6.0,0.0
3074,38.0,0.0,210.0,7.0,0.0
3075,62.0,40.0,210.0,5.0,0.0
3076,54.0,0.0,210.0,6.0,0.0
3077,62.0,40.0,390.0,4.0,0.0
3078,66.0,0.0,210.0,5.0,0.0
3079,62.0,0.0,390.0,3.0,0.0
3080,81.0,180.0,1230.0,0.0,0.0
3081,78.0,0.0,1230.0,0.0,0.0
3082,42.0,200.0,210.0,7.0,0.0
3083,57.0,0.0,210.0,6.0,0.0
3084,45.0,240.0,210.0,7.0,0.0
3085,69.0,0.0,210.0,5.0,0.0
3086,50.0,0.0,210.0,7.0,0.0
3087,62.0,0.0,210.0,6.0,0.0
3088,74.0,160.0,210.0,5.0,0.0
3089,74.0,0.0,120.0,4.0,0.0
3090,78.0,80.0,120.0,3.0,0.0
3091,69.0,0.0,210.0,5.0,0.0
3092,45.0,40.0,210.0,7.0,0.0
3093,57.0,0.0,210.0,6.0,0.0
3094,78.0,190.0,120.0,4.0,0.0
3095,81.0,0.0,120.0,3.0,0.0
3096,81.0,60.0,210.0,4.0,0.0
3097,66.0,0.0,210.0,5.0,0.0
3098,86.0,0.0,210.0,3.0,0.0
3099,54.0,0.0,210.0,6.0,0.0
3100,42.0,0.0,210.0,7.0,0.0
3101,86.0,0.0,210.0,3.0,0.0
3102,78.0,440.0,210.0,4.0,0.0
3103,62.0,0.0,210.0,5.0,0.0
3104,38.0,0.0,210.0,7.0,0.0
3105,50.0,0.0,210.0,6.0,0.0
3106,83.0,40.0,390.0,3.0,0.0
3107,79.0,0.0,390.0,4.0,0.0
3108,83.0,0.0,1620.0,0.0,0.0
3109,79.0,0.0,1620.0,0.0,0.0
3110,67.0,10.0,1620.0,1.0,0.0
3111,71.0,0.0,1620.0,1.0,0.0
3112,55.0,240.0,210.0,5.0,0.0
3113,43.0,0.0,210.0,7.0,0.0
3114,55.0,0.0,210.0,6.0,0.0
3115,59.0,0.0,210.0,5.0,0.0
3116,67.0,0.0,390.0,4.0,0.0
3117,59.0,40.0,390.0,4.0,0.0
3118,47.0,0.0,210.0,7.0,0.0
3119,59.0,200.0,210.0,6.0,0.0
3120,67.0,0.0,390.0,3.0,0.0
3121,59.0,0.0,390.0,3.0,0.0
3122,62.0,240.0,210.0,6.0,0.0
3123,62.0,0.0,210.0,5.0,0.0
3124,50.0,0.0,210.0,7.0,0.0
3125,67.0,0.0,210.0,5.0,0.0
3126,67.0,0.0,210.0,6.0,0.0
3127,55.0,160.0,210.0,7.0,0.0
3128,74.0,0.0,120.0,4.0,0.0
3129,50.0,20.0,210.0,7.0,0.0
3130,62.0,0.0,210.0,6.0,0.0
3131,62.0,0.0,210.0,5.0,0.0
3132,79.0,80.0,120.0,3.0,0.0
3133,83.0,190.0,120.0,3.0,0.0
3134,79.0,20.0,90.0,4.0,0.0
3135,59.0,240.0,210.0,5.0,0.0
3136,47.0,0.0,210.0,7.0,0.0
3137,86.0,0.0,210.0,3.0,0.0
3138,83.0,0.0,210.0,4.0,0.0
3139,59.0,0.0,210.0,6.0,0.0
3140,83.0,0.0,210.0,4.0,0.0
3141,86.0,0.0,210.0,3.0,0.0
3142,43.0,0.0,210.0,7.0,0.0
3143,55.0,0.0,210.0,6.0,0.0
3144,55.0,440.0,210.0,5.0,0.0
3145,81.0,0.0,1620.0,0.0,0.0
3146,78.0,0.0,390.0,4.0,0.0
3147,78.0,0.0,1620.0,0.0,0.0
3148,62.0,0.0,1620.0,1.0,0.0
3149,69.0,10.0,1620.0,1.0,0.0
3150,81.0,40.0,390.0,3.0,0.0
3151,62.0,0.0,210.0,5.0,0.0
3152,38.0,0.0,210.0,7.0,0.0
3153,50.0,240.0,210.0,6.0,0.0
3154,42.0,0.0,210.0,7.0,0.0
3155,54.0,200.0,210.0,6.0,0.0
3156,66.0,0.0,210.0,5.0,0.0
3157,66.0,0.0,390.0,4.0,0.0
3158,62.0,40.0,390.0,3.0,0.0
3159,66.0,0.0,390.0,3.0,0.0
3160,45.0,0.0,210.0,7.0,0.0
3161,69.0,240.0,210.0,5.0,0.0
3162,57.0,0.0,210.0,6.0,0.0
3163,62.0,0.0,210.0,6.0,0.0
3164,50.0,0.0,210.0,7.0,0.0
3165,74.0,160.0,210.0,5.0,0.0
3166,69.0,0.0,210.0,5.0,0.0
3167,74.0,80.0,120.0,4.0,0.0
3168,45.0,0.0,210.0,7.0,0.0
3169,78.0,0.0,120.0,3.0,0.0
3170,57.0,20.0,210.0,6.0,0.0
3171,81.0,190.0,120.0,3.0,0.0
3172,78.0,20.0,90.0,4.0,0.0
3173,66.0,0.0,210.0,5.0,0.0
3174,81.0,0.0,210.0,4.0,0.0
3175,86.0,240.0,210.0,3.0,0.0
3176,42.0,0.0,210.0,7.0,0.0
3177,54.0,0.0,210.0,6.0,0.0
3178,38.0,240.0,210.0,7.0,0.0
3179,62.0,0.0,210.0,5.0,0.0
3180,50.0,0.0,210.0,6.0,0.0
3181,78.0,0.0,210.0,4.0,0.0
3182,86.0,0.0,210.0,3.0,0.0
3183,79.0,140.0,210.0,4.0,0.0
3184,71.0,0.0,810.0,1.0,0.0
3185,62.0,0.0,810.0,1.0,0.0
3186,59.0,0.0,600.0,5.0,0.0
3187,40.0,0.0,600.0,7.0,0.0
3188,74.0,10.0,810.0,0.0,0.0
3189,52.0,90.0,600.0,6.0,0.0
3190,79.0,0.0,210.0,3.0,0.0
3191,79.0,30.0,1620.0,0.0,0.0
3192,83.0,120.0,90.0,3.0,0.0
3193,83.0,0.0,90.0,4.0,0.0
3194,81.0,120.0,90.0,3.0,0.0
3195,81.0,0.0,90.0,4.0,0.0
3196,79.0,0.0,90.0,3.0,0.0
3197,79.0,30.0,90.0,4.0,0.0
3198,78.0,110.0,90.0,4.0,0.0
3199,78.0,0.0,90.0,3.0,0.0
3200,76.0,0.0,90.0,3.0,0.0
3201,71.0,0.0,210.0,5.0,0.0
3202,76.0,100.0,90.0,4.0,0.0
3203,43.0,20.0,210.0,7.0,0.0
3204,55.0,0.0,210.0,6.0,0.0
3205,74.0,0.0,90.0,3.0,0.0
3206,74.0,220.0,90.0,4.0,0.0
3207,73.0,140.0,210.0,4.0,0.0
3208,73.0,0.0,210.0,3.0,0.0
3209,64.0,0.0,600.0,5.0,0.0
3210,45.0,60.0,600.0,7.0,0.0
3211,57.0,0.0,600.0,6.0,0.0
3212,69.0,10.0,810.0,1.0,0.0
3213,73.0,90.0,720.0,0.0,0.0
3214,76.0,120.0,90.0,4.0,0.0
3215,76.0,0.0,90.0,3.0,0.0
3216,74.0,120.0,90.0,3.0,0.0
3217,74.0,0.0,90.0,4.0,0.0
3218,73.0,0.0,90.0,3.0,0.0
3219,73.0,30.0,90.0,4.0,0.0
3220,71.0,20.0,90.0,4.0,0.0
3221,71.0,0.0,90.0,3.0,0.0
3222,64.0,20.0,210.0,5.0,0.0
3223,69.0,100.0,90.0,3.0,0.0
3224,37.0,0.0,210.0,7.0,0.0
3225,69.0,0.0,90.0,4.0,0.0
3226,49.0,0.0,210.0,6.0,0.0
3227,76.0,100.0,240.0,0.0,0.0
3228,67.0,0.0,90.0,3.0,0.0
3229,67.0,20.0,90.0,4.0,0.0
3230,66.0,100.0,90.0,4.0,0.0
3231,69.0,0.0,390.0,1.0,0.0
3232,50.0,0.0,210.0,6.0,0.0
3233,62.0,40.0,390.0,1.0,0.0
3234,78.0,0.0,390.0,0.0,0.0
3235,74.0,0.0,390.0,0.0,0.0
3236,38.0,0.0,210.0,7.0,0.0
3237,62.0,20.0,210.0,5.0,0.0
3238,66.0,0.0,90.0,3.0,0.0
3239,69.0,0.0,90.0,4.0,0.0
3240,69.0,120.0,90.0,3.0,0.0
3241,67.0,0.0,90.0,4.0,0.0
3242,38.0,0.0,210.0,7.0,0.0
3243,67.0,60.0,90.0,3.0,0.0
3244,57.0,0.0,210.0,5.0,0.0
3245,50.0,20.0,210.0,6.0,0.0
3246,66.0,0.0,90.0,4.0,0.0
3247,66.0,120.0,90.0,3.0,0.0
3248,67.0,100.0,90.0,3.0,0.0
3249,76.0,40.0,390.0,0.0,0.0
3250,73.0,0.0,390.0,0.0,0.0
3251,69.0,0.0,390.0,1.0,0.0
3252,67.0,0.0,90.0,4.0,0.0
3253,52.0,0.0,210.0,6.0,0.0
3254,67.0,0.0,390.0,1.0,0.0
3255,40.0,0.0,210.0,7.0,0.0
3256,57.0,20.0,210.0,5.0,0.0
3257,69.0,120.0,90.0,4.0,0.0
3258,69.0,0.0,90.0,3.0,0.0
3259,40.0,0.0,210.0,7.0,0.0
3260,71.0,60.0,90.0,3.0,0.0
3261,71.0,0.0,90.0,4.0,0.0
3262,52.0,20.0,210.0,6.0,0.0
3263,67.0,0.0,210.0,5.0,0.0
3264,73.0,0.0,90.0,3.0,0.0
3265,73.0,120.0,90.0,4.0,0.0
3266,69.0,40.0,390.0,0.0,0.0
3267,74.0,0.0,90.0,4.0,0.0
3268,62.0,0.0,390.0,1.0,0.0
3269,69.0,0.0,390.0,1.0,0.0
3270,42.0,0.0,210.0,7.0,0.0
3271,69.0,20.0,210.0,5.0,0.0
3272,81.0,0.0,390.0,0.0,0.0
3273,74.0,100.0,90.0,3.0,0.0
3274,54.0,0.0,210.0,6.0,0.0
3275,76.0,0.0,90.0,3.0,0.0
3276,76.0,120.0,90.0,4.0,0.0
3277,42.0,0.0,210.0,7.0,0.0
3278,54.0,0.0,210.0,6.0,0.0
3279,69.0,20.0,210.0,5.0,0.0
3280,78.0,60.0,90.0,3.0,0.0
3281,78.0,0.0,90.0,4.0,0.0
3282,79.0,0.0,90.0,3.0,0.0
3283,79.0,120.0,90.0,4.0,0.0
3284,69.0,40.0,390.0,1.0,0.0
3285,81.0,100.0,90.0,3.0,0.0
3286,62.0,0.0,390.0,1.0,0.0
3287,38.0,0.0,210.0,7.0,0.0
3288,74.0,0.0,390.0,0.0,0.0
3289,78.0,0.0,390.0,0.0,0.0
3290,50.0,20.0,210.0,6.0,0.0
3291,81.0,0.0,90.0,4.0,0.0
3292,66.0,0.0,210.0,5.0,0.0
3293,83.0,0.0,90.0,3.0,0.0
3294,83.0,120.0,90.0,4.0,0.0
3295,66.0,0.0,210.0,5.0,0.0
3296,85.0,60.0,90.0,4.0,0.0
3297,85.0,0.0,90.0,3.0,0.0
3298,50.0,20.0,210.0,6.0,0.0
3299,38.0,0.0,210.0,7.0,0.0
3300,86.0,0.0,90.0,3.0,0.0
3301,86.0,120.0,90.0,4.0,0.0
3302,74.0,100.0,90.0,4.0,0.0
3303,83.0,0.0,90.0,4.0,0.0
3304,83.0,40.0,390.0,3.0,0.0
3305,43.0,20.0,210.0,7.0,0.0
3306,71.0,10.0,1620.0,1.0,0.0
3307,67.0,0.0,810.0,1.0,0.0
3308,74.0,0.0,810.0,0.0,0.0
3309,83.0,10.0,810.0,0.0,0.0
3310,67.0,0.0,210.0,5.0,0.0
3311,55.0,0.0,210.0,6.0,0.0
3312,74.0,120.0,90.0,4.0,0.0
3313,83.0,0.0,90.0,4.0,0.0
3314,83.0,0.0,90.0,4.0,0.0
3315,74.0,60.0,90.0,4.0,0.0
3316,43.0,0.0,210.0,7.0,0.0
3317,55.0,20.0,210.0,6.0,0.0
3318,67.0,0.0,210.0,5.0,0.0
3319,83.0,120.0,90.0,4.0,0.0
3320,74.0,0.0,90.0,4.0,0.0
3321,43.0,20.0,210.0,7.0,0.0
3322,67.0,0.0,210.0,5.0,0.0
3323,83.0,0.0,90.0,4.0,0.0
3324,74.0,100.0,90.0,4.0,0.0
3325,55.0,0.0,210.0,6.0,0.0
3326,74.0,110.0,90.0,4.0,0.0
3327,83.0,0.0,90.0,4.0,0.0
3328,55.0,20.0,210.0,6.0,0.0
3329,67.0,0.0,210.0,5.0,0.0
3330,43.0,0.0,210.0,7.0,0.0
3331,83.0,20.0,90.0,4.0,0.0
3332,83.0,80.0,120.0,3.0,0.0
3333,74.0,0.0,90.0,4.0,0.0
3334,74.0,20.0,90.0,4.0,0.0
3335,85.0,100.0,120.0,3.0,0.0
3336,83.0,0.0,90.0,4.0,0.0
3337,83.0,100.0,90.0,4.0,0.0
3338,68.0,0.0,210.0,5.0,0.0
3339,86.0,0.0,1350.0,0.0,0.0
3340,77.0,10.0,810.0,0.0,0.0
3341,44.0,0.0,210.0,7.0,0.0
3342,86.0,20.0,210.0,3.0,0.0
3343,62.0,0.0,810.0,1.0,0.0
3344,77.0,0.0,90.0,4.0,0.0
3345,56.0,0.0,210.0,6.0,0.0
3346,77.0,0.0,90.0,4.0,0.0
3347,83.0,120.0,90.0,4.0,0.0
3348,44.0,0.0,210.0,7.0,0.0
3349,56.0,20.0,210.0,6.0,0.0
3350,68.0,0.0,210.0,5.0,0.0
3351,86.0,0.0,210.0,3.0,0.0
3352,83.0,0.0,90.0,4.0,0.0
3353,77.0,100.0,90.0,4.0,0.0
3354,83.0,0.0,90.0,4.0,0.0
3355,77.0,120.0,90.0,4.0,0.0
3356,86.0,0.0,210.0,3.0,0.0
3357,68.0,0.0,210.0,5.0,0.0
3358,83.0,0.0,90.0,4.0,0.0
3359,77.0,90.0,90.0,4.0,0.0
3360,56.0,20.0,210.0,6.0,0.0
3361,44.0,0.0,210.0,7.0,0.0
3362,77.0,110.0,90.0,4.0,0.0
3363,83.0,0.0,90.0,4.0,0.0
3364,83.0,0.0,90.0,4.0,0.0
3365,77.0,100.0,90.0,4.0,0.0
3366,68.0,0.0,210.0,5.0,0.0
3367,86.0,0.0,210.0,3.0,0.0
3368,56.0,20.0,210.0,6.0,0.0
3369,44.0,0.0,210.0,7.0,0.0
3370,77.0,0.0,90.0,4.0,0.0
3371,83.0,220.0,90.0,4.0,0.0
3372,78.0,0.0,390.0,0.0,0.0
3373,69.0,40.0,390.0,1.0,0.0
3374,43.0,0.0,210.0,7.0,0.0
3375,69.0,0.0,210.0,5.0,0.0
3376,86.0,0.0,210.0,3.0,0.0
3377,78.0,0.0,210.0,4.0,0.0
3378,81.0,0.0,210.0,4.0,0.0
3379,62.0,0.0,390.0,1.0,0.0
3380,55.0,160.0,210.0,6.0,0.0
3381,55.0,40.0,210.0,6.0,0.0
3382,81.0,0.0,120.0,4.0,0.0
3383,69.0,0.0,210.0,5.0,0.0
3384,43.0,0.0,210.0,7.0,0.0
3385,81.0,40.0,120.0,3.0,0.0
3386,78.0,200.0,120.0,4.0,0.0
3387,78.0,0.0,120.0,3.0,0.0
3388,74.0,0.0,300.0,0.0,0.0
3389,78.0,0.0,300.0,0.0,0.0
3390,43.0,0.0,210.0,7.0,0.0
3391,81.0,100.0,210.0,4.0,0.0
3392,69.0,60.0,300.0,1.0,0.0
3393,81.0,0.0,210.0,3.0,0.0
3394,55.0,0.0,210.0,6.0,0.0
3395,69.0,0.0,210.0,5.0,0.0
3396,78.0,80.0,120.0,3.0,0.0
3397,43.0,20.0,210.0,7.0,0.0
3398,69.0,0.0,210.0,5.0,0.0
3399,55.0,0.0,210.0,6.0,0.0
3400,78.0,0.0,120.0,4.0,0.0
3401,74.0,0.0,120.0,3.0,0.0
3402,74.0,20.0,90.0,0.0,0.0
3403,78.0,0.0,90.0,0.0,0.0
3404,74.0,200.0,120.0,4.0,0.0
3405,69.0,0.0,90.0,1.0,0.0
3406,69.0,0.0,390.0,1.0,0.0
3407,43.0,0.0,210.0,7.0,0.0
3408,76.0,0.0,390.0,0.0,0.0
3409,73.0,0.0,390.0,0.0,0.0
3410,69.0,200.0,210.0,5.0,0.0
3411,69.0,40.0,390.0,3.0,0.0
3412,69.0,0.0,390.0,4.0,0.0
3413,55.0,0.0,210.0,6.0,0.0
3414,55.0,240.0,210.0,6.0,0.0
3415,69.0,0.0,210.0,5.0,0.0
3416,43.0,0.0,210.0,7.0,0.0
3417,69.0,0.0,390.0,4.0,0.0
3418,43.0,100.0,210.0,7.0,0.0
3419,76.0,0.0,390.0,3.0,0.0
3420,69.0,0.0,390.0,3.0,0.0
3421,55.0,0.0,210.0,6.0,0.0
3422,69.0,0.0,210.0,5.0,0.0
3423,85.0,0.0,390.0,3.0,0.0
3424,76.0,40.0,390.0,4.0,0.0
3425,85.0,0.0,390.0,4.0,0.0
3426,76.0,0.0,300.0,0.0,0.0
3427,73.0,100.0,300.0,0.0,0.0
3428,69.0,0.0,300.0,1.0,0.0
3429,43.0,0.0,210.0,7.0,0.0
3430,69.0,20.0,210.0,5.0,0.0
3431,55.0,0.0,210.0,6.0,0.0
3432,69.0,0.0,90.0,1.0,0.0
3433,76.0,0.0,90.0,0.0,0.0
3434,73.0,420.0,90.0,0.0,0.0
3435,69.0,0.0,390.0,1.0,0.0
3436,62.0,0.0,390.0,1.0,0.0
3437,38.0,0.0,390.0,7.0,0.0
3438,69.0,0.0,390.0,4.0,0.0
3439,78.0,0.0,390.0,4.0,0.0
3440,86.0,560.0,390.0,4.0,0.0
3441,50.0,0.0,390.0,6.0,0.0
3442,74.0,0.0,390.0,0.0,0.0
3443,69.0,0.0,390.0,3.0,0.0
3444,86.0,0.0,390.0,3.0,0.0
3445,62.0,0.0,390.0,5.0,0.0
3446,78.0,0.0,390.0,3.0,0.0
3447,50.0,480.0,240.0,6.0,0.0
3448,38.0,0.0,240.0,7.0,0.0
3449,62.0,0.0,240.0,4.0,0.0
3450,62.0,0.0,240.0,3.0,0.0
3451,62.0,0.0,240.0,5.0,0.0
3452,42.0,0.0,480.0,7.0,0.0
3453,54.0,0.0,480.0,6.0,0.0
3454,66.0,480.0,480.0,4.0,0.0
3455,66.0,0.0,480.0,5.0,0.0
3456,66.0,0.0,480.0,3.0,0.0
3457,66.0,0.0,240.0,3.0,0.0
3458,42.0,0.0,240.0,7.0,0.0
3459,66.0,0.0,240.0,4.0,0.0
3460,66.0,0.0,240.0,5.0,0.0
3461,54.0,480.0,240.0,6.0,0.0
3462,69.0,0.0,480.0,4.0,0.0
3463,69.0,0.0,480.0,3.0,0.0
3464,69.0,0.0,480.0,5.0,0.0
3465,45.0,0.0,480.0,7.0,0.0
3466,57.0,440.0,480.0,6.0,0.0
3467,69.0,0.0,210.0,3.0,0.0
3468,45.0,0.0,210.0,7.0,0.0
3469,57.0,0.0,210.0,6.0,0.0
3470,69.0,0.0,210.0,4.0,0.0
3471,69.0,650.0,210.0,5.0,0.0
3472,72.0,0.0,600.0,5.0,0.0
3473,72.0,0.0,600.0,3.0,0.0
3474,48.0,0.0,600.0,7.0,0.0
3475,72.0,230.0,600.0,4.0,0.0
3476,60.0,0.0,600.0,6.0,0.0
3477,69.0,0.0,120.0,5.0,0.0
3478,69.0,0.0,120.0,4.0,0.0
3479,57.0,100.0,120.0,6.0,0.0
3480,45.0,0.0,120.0,7.0,0.0
3481,69.0,0.0,120.0,3.0,0.0
3482,66.0,20.0,90.0,4.0,0.0
3483,54.0,0.0,120.0,6.0,0.0
3484,42.0,200.0,120.0,7.0,0.0
3485,66.0,0.0,120.0,5.0,0.0
3486,66.0,0.0,120.0,3.0,0.0
3487,51.0,0.0,210.0,6.0,0.0
3488,39.0,0.0,210.0,7.0,0.0
3489,63.0,0.0,210.0,4.0,0.0
3490,63.0,480.0,210.0,5.0,0.0
3491,63.0,0.0,210.0,3.0,0.0
3492,42.0,0.0,210.0,7.0,0.0
3493,66.0,890.0,210.0,4.0,0.0
3494,66.0,0.0,210.0,5.0,0.0
3495,54.0,0.0,210.0,6.0,0.0
3496,66.0,0.0,210.0,3.0,0.0
3497,47.0,0.0,600.0,7.0,0.0
3498,59.0,0.0,600.0,6.0,0.0
3499,71.0,0.0,600.0,4.0,0.0
3500,71.0,0.0,600.0,5.0,0.0
3501,71.0,230.0,600.0,3.0,0.0
3502,69.0,0.0,120.0,4.0,0.0
3503,45.0,0.0,120.0,7.0,0.0
3504,69.0,0.0,120.0,3.0,0.0
3505,57.0,0.0,120.0,6.0,0.0
3506,69.0,120.0,120.0,5.0,0.0
3507,66.0,0.0,120.0,4.0,0.0
3508,54.0,0.0,120.0,6.0,0.0
3509,42.0,200.0,120.0,7.0,0.0
3510,66.0,0.0,120.0,3.0,0.0
3511,66.0,0.0,120.0,5.0,0.0
3512,40.0,40.0,390.0,7.0,0.0
3513,64.0,0.0,210.0,3.0,0.0
3514,64.0,200.0,210.0,5.0,0.0
3515,64.0,0.0,210.0,4.0,0.0
3516,71.0,110.0,810.0,2.0,0.0
3517,52.0,0.0,390.0,6.0,0.0
3518,64.0,240.0,210.0,4.0,0.0
3519,64.0,0.0,210.0,3.0,0.0
3520,55.0,0.0,210.0,5.0,0.0
3521,55.0,0.0,210.0,5.0,0.0
3522,64.0,0.0,210.0,4.0,0.0
3523,64.0,130.0,210.0,3.0,0.0
3524,64.0,0.0,210.0,4.0,0.0
3525,55.0,240.0,210.0,5.0,0.0
3526,64.0,0.0,210.0,3.0,0.0
3527,69.0,200.0,240.0,2.0,0.0
3528,55.0,0.0,210.0,5.0,0.0
3529,64.0,0.0,210.0,3.0,0.0
3530,64.0,40.0,210.0,4.0,0.0
3531,67.0,200.0,240.0,2.0,0.0
3532,64.0,40.0,210.0,3.0,0.0
3533,64.0,0.0,210.0,4.0,0.0
3534,55.0,0.0,210.0,5.0,0.0
3535,55.0,0.0,210.0,5.0,0.0
3536,64.0,40.0,210.0,4.0,0.0
3537,64.0,0.0,210.0,3.0,0.0
3538,66.0,200.0,240.0,2.0,0.0
3539,64.0,0.0,210.0,3.0,0.0
3540,55.0,0.0,210.0,5.0,0.0
3541,64.0,440.0,210.0,2.0,0.0
3542,64.0,0.0,210.0,4.0,0.0
3543,72.0,70.0,600.0,3.0,0.0
3544,54.0,40.0,390.0,6.0,0.0
3545,42.0,0.0,390.0,7.0,0.0
3546,64.0,110.0,810.0,2.0,0.0
3547,59.0,170.0,210.0,4.0,0.0
3548,57.0,0.0,210.0,5.0,0.0
3549,59.0,130.0,210.0,4.0,0.0
3550,57.0,0.0,210.0,5.0,0.0
3551,71.0,240.0,210.0,3.0,0.0
3552,57.0,0.0,210.0,5.0,0.0
3553,59.0,0.0,210.0,4.0,0.0
3554,69.0,160.0,240.0,3.0,0.0
3555,59.0,40.0,210.0,4.0,0.0
3556,63.0,40.0,390.0,2.0,0.0
3557,57.0,0.0,210.0,5.0,0.0
3558,57.0,0.0,210.0,5.0,0.0
3559,67.0,200.0,240.0,3.0,0.0
3560,59.0,40.0,210.0,4.0,0.0
3561,59.0,40.0,210.0,4.0,0.0
3562,66.0,200.0,240.0,3.0,0.0
3563,57.0,0.0,210.0,5.0,0.0
3564,64.0,400.0,240.0,3.0,0.0
3565,59.0,40.0,210.0,4.0,0.0
3566,57.0,0.0,210.0,5.0,0.0
3567,35.0,0.0,390.0,7.0,0.0
3568,47.0,40.0,390.0,6.0,0.0
3569,72.0,110.0,810.0,2.0,0.0
3570,64.0,240.0,210.0,3.0,0.0
3571,59.0,0.0,210.0,4.0,0.0
3572,54.0,0.0,210.0,5.0,0.0
3573,63.0,0.0,210.0,3.0,0.0
3574,54.0,130.0,210.0,5.0,0.0
3575,59.0,0.0,210.0,4.0,0.0
3576,54.0,0.0,210.0,5.0,0.0
3577,59.0,240.0,210.0,4.0,0.0
3578,63.0,0.0,210.0,3.0,0.0
3579,59.0,0.0,210.0,4.0,0.0
3580,63.0,0.0,210.0,3.0,0.0
3581,54.0,40.0,210.0,5.0,0.0
3582,71.0,200.0,240.0,2.0,0.0
3583,63.0,40.0,210.0,3.0,0.0
3584,69.0,200.0,240.0,2.0,0.0
3585,54.0,0.0,210.0,5.0,0.0
3586,59.0,0.0,210.0,4.0,0.0
3587,63.0,0.0,210.0,3.0,0.0
3588,57.0,40.0,210.0,5.0,0.0
3589,67.0,200.0,240.0,2.0,0.0
3590,59.0,0.0,210.0,4.0,0.0
3591,66.0,400.0,240.0,2.0,0.0
3592,57.0,40.0,210.0,5.0,0.0
3593,59.0,0.0,210.0,4.0,0.0
3594,63.0,0.0,210.0,3.0,0.0
3595,52.0,0.0,390.0,6.0,0.0
3596,66.0,120.0,720.0,2.0,0.0
3597,40.0,40.0,390.0,7.0,0.0
3598,63.0,0.0,210.0,3.0,0.0
3599,59.0,240.0,210.0,4.0,0.0
3600,57.0,0.0,210.0,5.0,0.0
3601,57.0,40.0,210.0,5.0,0.0
3602,59.0,0.0,210.0,4.0,0.0
3603,63.0,0.0,210.0,3.0,0.0
3604,63.0,0.0,210.0,3.0,0.0
3605,57.0,0.0,210.0,5.0,0.0
3606,67.0,80.0,120.0,2.0,0.0
3607,59.0,40.0,210.0,4.0,0.0
3608,66.0,200.0,120.0,2.0,0.0
3609,64.0,200.0,210.0,3.0,0.0
3610,64.0,40.0,390.0,2.0,0.0
3611,59.0,0.0,210.0,4.0,0.0
3612,55.0,0.0,210.0,5.0,0.0
3613,55.0,0.0,210.0,5.0,0.0
3614,59.0,0.0,210.0,4.0,0.0
3615,64.0,240.0,210.0,3.0,0.0
3616,59.0,0.0,210.0,4.0,0.0
3617,64.0,240.0,210.0,3.0,0.0
3618,55.0,0.0,210.0,5.0,0.0
3619,64.0,440.0,210.0,3.0,0.0
3620,59.0,0.0,210.0,4.0,0.0
3621,64.0,0.0,210.0,2.0,0.0
3622,55.0,0.0,210.0,5.0,0.0
3623,65.0,110.0,810.0,2.0,0.0
3624,57.0,40.0,390.0,6.0,0.0
3625,45.0,0.0,390.0,7.0,0.0
3626,60.0,0.0,210.0,4.0,0.0
3627,65.0,240.0,210.0,3.0,0.0
3628,57.0,0.0,210.0,5.0,0.0
3629,60.0,0.0,210.0,4.0,0.0
3630,57.0,0.0,210.0,5.0,0.0
3631,65.0,130.0,210.0,3.0,0.0
3632,60.0,440.0,210.0,4.0,0.0
3633,57.0,0.0,210.0,5.0,0.0
3634,65.0,0.0,210.0,3.0,0.0
3635,59.0,0.0,390.0,6.0,0.0
3636,68.0,110.0,810.0,2.0,0.0
3637,47.0,40.0,390.0,7.0,0.0
3638,65.0,0.0,210.0,4.0,0.0
3639,62.0,0.0,210.0,5.0,0.0
3640,68.0,240.0,210.0,3.0,0.0
3641,68.0,0.0,210.0,3.0,0.0
3642,62.0,0.0,210.0,5.0,0.0
3643,65.0,130.0,210.0,4.0,0.0
3644,68.0,480.0,210.0,3.0,0.0
3645,62.0,0.0,210.0,5.0,0.0
3646,65.0,0.0,210.0,4.0,0.0
3647,48.0,40.0,690.0,7.0,0.0
3648,69.0,70.0,600.0,2.0,0.0
3649,60.0,0.0,690.0,6.0,0.0
3650,69.0,0.0,210.0,3.0,0.0
3651,64.0,170.0,210.0,4.0,0.0
3652,60.0,0.0,210.0,5.0,0.0
3653,66.0,0.0,240.0,4.0,0.0
3654,60.0,0.0,240.0,5.0,0.0
3655,69.0,200.0,240.0,3.0,0.0
3656,71.0,200.0,240.0,3.0,0.0
3657,68.0,0.0,240.0,4.0,0.0
3658,59.0,0.0,210.0,6.0,0.0
3659,71.0,40.0,210.0,2.0,0.0
3660,62.0,0.0,240.0,5.0,0.0
3661,47.0,0.0,210.0,7.0,0.0
3662,64.0,0.0,210.0,5.0,0.0
3663,45.0,70.0,810.0,7.0,0.0
3664,72.0,40.0,390.0,2.0,0.0
3665,69.0,200.0,210.0,4.0,0.0
3666,72.0,0.0,210.0,3.0,0.0
3667,57.0,0.0,810.0,6.0,0.0
3668,69.0,0.0,210.0,4.0,0.0
3669,72.0,0.0,210.0,3.0,0.0
3670,64.0,240.0,210.0,5.0,0.0
3671,66.0,0.0,210.0,4.0,0.0
3672,60.0,0.0,210.0,5.0,0.0
3673,69.0,130.0,210.0,3.0,0.0
3674,69.0,40.0,390.0,2.0,0.0
3675,60.0,0.0,210.0,5.0,0.0
3676,66.0,440.0,210.0,4.0,0.0
3677,69.0,0.0,210.0,3.0,0.0
3678,67.0,80.0,390.0,2.0,0.0
3679,59.0,0.0,810.0,6.0,0.0
3680,59.0,0.0,1200.0,5.0,0.0
3681,47.0,110.0,810.0,7.0,0.0
3682,64.0,240.0,240.0,4.0,0.0
3683,67.0,0.0,240.0,3.0,0.0
3684,71.0,110.0,600.0,2.0,0.0
3685,71.0,90.0,240.0,3.0,0.0
3686,67.0,0.0,240.0,4.0,0.0
3687,67.0,0.0,210.0,4.0,0.0
3688,71.0,170.0,210.0,3.0,0.0
3689,47.0,0.0,810.0,6.0,0.0
3690,35.0,110.0,810.0,7.0,0.0
3691,67.0,0.0,240.0,4.0,0.0
3692,71.0,200.0,240.0,3.0,0.0
3693,69.0,40.0,210.0,2.0,0.0
3694,66.0,200.0,240.0,4.0,0.0
3695,60.0,0.0,240.0,5.0,0.0
3696,69.0,0.0,240.0,3.0,0.0
3697,67.0,0.0,240.0,3.0,0.0
3698,64.0,90.0,240.0,4.0,0.0
3699,59.0,0.0,240.0,5.0,0.0
3700,67.0,40.0,210.0,2.0,0.0
3701,57.0,0.0,240.0,5.0,0.0
3702,66.0,400.0,240.0,3.0,0.0
3703,63.0,0.0,240.0,4.0,0.0
3704,66.0,40.0,210.0,2.0,0.0
3705,64.0,0.0,390.0,2.0,0.0
3706,64.0,0.0,390.0,4.0,0.0
3707,55.0,280.0,390.0,5.0,0.0
3708,52.0,0.0,390.0,6.0,0.0
3709,64.0,0.0,390.0,3.0,0.0
3710,40.0,0.0,390.0,7.0,0.0
3711,79.0,0.0,210.0,3.0,0.0
3712,76.0,240.0,210.0,4.0,0.0
3713,79.0,0.0,210.0,3.0,0.0
3714,76.0,240.0,210.0,4.0,0.0
3715,77.0,0.0,210.0,3.0,0.0
3716,74.0,240.0,210.0,4.0,0.0
3717,74.0,0.0,210.0,4.0,0.0
3718,77.0,240.0,210.0,3.0,0.0
3719,72.0,0.0,210.0,4.0,0.0
3720,67.0,40.0,390.0,2.0,0.0
3721,76.0,200.0,210.0,3.0,0.0
3722,76.0,0.0,210.0,3.0,0.0
3723,72.0,440.0,210.0,4.0,0.0
3724,65.0,0.0,480.0,5.0,0.0
3725,67.0,150.0,810.0,2.0,0.0
3726,43.0,80.0,390.0,7.0,0.0
3727,55.0,0.0,390.0,6.0,0.0
3728,62.0,0.0,240.0,3.0,0.0
3729,59.0,240.0,240.0,4.0,0.0
3730,62.0,0.0,240.0,4.0,0.0
3731,65.0,90.0,240.0,3.0,0.0
3732,55.0,240.0,1440.0,5.0,0.0
3733,62.0,0.0,240.0,3.0,0.0
3734,59.0,200.0,240.0,4.0,0.0
3735,62.0,0.0,210.0,4.0,0.0
3736,71.0,200.0,240.0,2.0,0.0
3737,65.0,40.0,210.0,3.0,0.0
3738,62.0,40.0,210.0,4.0,0.0
3739,67.0,200.0,240.0,2.0,0.0
3740,65.0,0.0,210.0,3.0,0.0
3741,65.0,0.0,210.0,3.0,0.0
3742,62.0,40.0,210.0,4.0,0.0
3743,71.0,200.0,240.0,2.0,0.0
3744,62.0,40.0,210.0,4.0,0.0
3745,67.0,0.0,240.0,2.0,0.0
3746,65.0,0.0,210.0,3.0,0.0
3747,72.0,160.0,240.0,2.0,0.0
3748,64.0,240.0,480.0,5.0,0.0
3749,36.0,80.0,390.0,7.0,0.0
3750,48.0,0.0,390.0,6.0,0.0
3751,64.0,0.0,240.0,3.0,0.0
3752,60.0,0.0,240.0,4.0,0.0
3753,60.0,400.0,1440.0,5.0,0.0
3754,67.0,0.0,240.0,3.0,0.0
3755,64.0,160.0,240.0,4.0,0.0
3756,67.0,0.0,15.0,2.0,0.0
3757,64.0,200.0,240.0,3.0,0.0
3758,60.0,0.0,240.0,4.0,0.0
3759,64.0,0.0,210.0,4.0,0.0
3760,67.0,240.0,210.0,3.0,0.0
3761,64.0,0.0,210.0,4.0,0.0
3762,67.0,240.0,210.0,3.0,0.0
3763,67.0,200.0,210.0,3.0,0.0
3764,64.0,40.0,390.0,2.0,0.0
3765,64.0,0.0,210.0,4.0,0.0
3766,64.0,0.0,210.0,4.0,0.0
3767,67.0,40.0,210.0,3.0,0.0
3768,52.0,0.0,390.0,6.0,0.0
3769,40.0,80.0,390.0,7.0,0.0
3770,64.0,150.0,810.0,2.0,0.0
3771,62.0,240.0,480.0,5.0,0.0
3772,68.0,0.0,240.0,3.0,0.0
3773,59.0,0.0,240.0,4.0,0.0
3774,62.0,0.0,240.0,4.0,0.0
3775,52.0,240.0,1440.0,5.0,0.0
3776,71.0,90.0,240.0,3.0,0.0
3777,59.0,0.0,240.0,4.0,0.0
3778,68.0,200.0,240.0,3.0,0.0
3779,68.0,200.0,240.0,2.0,0.0
3780,71.0,40.0,210.0,3.0,0.0
3781,62.0,0.0,210.0,4.0,0.0
3782,62.0,0.0,210.0,4.0,0.0
3783,71.0,40.0,210.0,3.0,0.0
3784,64.0,200.0,240.0,2.0,0.0
3785,71.0,40.0,210.0,3.0,0.0
3786,62.0,0.0,210.0,4.0,0.0
3787,68.0,200.0,240.0,2.0,0.0
3788,62.0,40.0,210.0,4.0,0.0
3789,71.0,0.0,210.0,3.0,0.0
3790,64.0,0.0,240.0,2.0,0.0
3791,45.0,80.0,390.0,6.0,0.0
3792,33.0,0.0,390.0,7.0,0.0
3793,69.0,160.0,240.0,2.0,0.0
3794,60.0,0.0,480.0,5.0,0.0
3795,69.0,0.0,240.0,3.0,0.0
3796,64.0,240.0,240.0,2.0,0.0
3797,60.0,0.0,240.0,4.0,0.0
3798,57.0,440.0,1440.0,5.0,0.0
3799,72.0,160.0,240.0,3.0,0.0
3800,64.0,0.0,240.0,4.0,0.0
3801,64.0,80.0,390.0,2.0,0.0
3802,60.0,0.0,240.0,4.0,0.0
3803,69.0,200.0,240.0,3.0,0.0
3804,64.0,240.0,210.0,4.0,0.0
3805,72.0,0.0,210.0,3.0,0.0
3806,64.0,240.0,210.0,4.0,0.0
3807,72.0,0.0,210.0,3.0,0.0
3808,64.0,200.0,210.0,4.0,0.0
3809,72.0,0.0,210.0,3.0,0.0
3810,64.0,40.0,390.0,2.0,0.0
3811,72.0,0.0,210.0,3.0,0.0
3812,64.0,40.0,210.0,4.0,0.0
3813,42.0,0.0,960.0,7.0,0.0
3814,72.0,110.0,810.0,2.0,0.0
3815,54.0,440.0,960.0,6.0,0.0
3816,69.0,240.0,210.0,4.0,0.0
3817,62.0,0.0,210.0,5.0,0.0
3818,72.0,0.0,210.0,3.0,0.0
3819,72.0,0.0,210.0,3.0,0.0
3820,62.0,0.0,210.0,5.0,0.0
3821,69.0,130.0,210.0,4.0,0.0
3822,69.0,0.0,210.0,4.0,0.0
3823,72.0,40.0,210.0,3.0,0.0
3824,62.0,0.0,210.0,5.0,0.0
3825,55.0,240.0,960.0,6.0,0.0
3826,43.0,0.0,960.0,7.0,0.0
3827,71.0,110.0,810.0,2.0,0.0
3828,67.0,0.0,210.0,4.0,0.0
3829,62.0,240.0,210.0,5.0,0.0
3830,71.0,0.0,210.0,3.0,0.0
3831,71.0,130.0,210.0,3.0,0.0
3832,62.0,0.0,210.0,5.0,0.0
3833,67.0,0.0,210.0,4.0,0.0
3834,71.0,0.0,210.0,3.0,0.0
3835,62.0,0.0,210.0,5.0,0.0
3836,67.0,40.0,210.0,4.0,0.0
3837,48.0,130.0,960.0,7.0,0.0
3838,68.0,200.0,240.0,2.0,0.0
3839,60.0,0.0,960.0,6.0,0.0
3840,76.0,40.0,210.0,3.0,0.0
3841,69.0,0.0,210.0,4.0,0.0
3842,64.0,200.0,240.0,5.0,0.0
3843,76.0,0.0,210.0,3.0,0.0
3844,69.0,0.0,15.0,2.0,0.0
3845,60.0,200.0,240.0,5.0,0.0
3846,69.0,40.0,210.0,4.0,0.0
3847,76.0,0.0,210.0,3.0,0.0
3848,60.0,0.0,210.0,5.0,0.0
3849,69.0,40.0,210.0,4.0,0.0
3850,61.0,400.0,960.0,6.0,0.0
3851,49.0,0.0,960.0,7.0,0.0
3852,57.0,0.0,210.0,5.0,0.0
3853,67.0,40.0,210.0,3.0,0.0
3854,70.0,200.0,240.0,2.0,0.0
3855,64.0,0.0,210.0,4.0,0.0
3856,67.0,0.0,210.0,3.0,0.0
3857,64.0,40.0,210.0,4.0,0.0
3858,57.0,0.0,210.0,5.0,0.0
3859,71.0,200.0,240.0,2.0,0.0
3860,67.0,0.0,240.0,2.0,0.0
3861,57.0,40.0,210.0,5.0,0.0
3862,64.0,0.0,210.0,4.0,0.0
3863,67.0,0.0,210.0,3.0,0.0
3864,62.0,0.0,390.0,4.0,0.0
3865,62.0,620.0,390.0,6.0,0.0
3866,74.0,200.0,2130.0,2.0,0.0
3867,57.0,0.0,390.0,5.0,0.0
3868,50.0,0.0,390.0,7.0,0.0
3869,66.0,0.0,390.0,3.0,0.0
3870,78.0,60.0,60.0,4.0,0.0
3871,81.0,0.0,60.0,3.0,0.0
3872,79.0,0.0,60.0,4.0,0.0
3873,83.0,60.0,60.0,3.0,0.0
3874,78.0,60.0,60.0,4.0,0.0
3875,81.0,0.0,60.0,3.0,0.0
3876,79.0,60.0,60.0,4.0,0.0
3877,83.0,0.0,60.0,3.0,0.0
3878,78.0,0.0,60.0,4.0,0.0
3879,81.0,60.0,60.0,3.0,0.0
3880,83.0,0.0,60.0,3.0,0.0
3881,79.0,60.0,60.0,4.0,0.0
3882,81.0,0.0,60.0,3.0,0.0
3883,78.0,60.0,60.0,4.0,0.0
3884,79.0,60.0,60.0,4.0,0.0
3885,83.0,0.0,60.0,3.0,0.0
3886,81.0,0.0,60.0,3.0,0.0
3887,78.0,60.0,60.0,4.0,0.0
3888,79.0,0.0,60.0,4.0,0.0
3889,83.0,60.0,60.0,3.0,0.0
3890,78.0,0.0,60.0,4.0,0.0
3891,81.0,60.0,60.0,3.0,0.0
3892,83.0,0.0,60.0,3.0,0.0
3893,79.0,120.0,60.0,4.0,0.0
3894,79.0,0.0,120.0,3.0,0.0
3895,76.0,100.0,120.0,4.0,0.0
3896,81.0,0.0,90.0,3.0,0.0
3897,78.0,220.0,90.0,4.0,0.0
3898,62.0,0.0,390.0,5.0,0.0
3899,81.0,40.0,390.0,3.0,0.0
3900,78.0,0.0,390.0,4.0,0.0
3901,62.0,240.0,210.0,2.0,0.0
3902,62.0,240.0,210.0,2.0,0.0
3903,62.0,90.0,210.0,2.0,0.0
3904,66.0,0.0,60.0,4.0,0.0
3905,81.0,50.0,60.0,0.0,0.0
3906,78.0,0.0,60.0,0.0,0.0
3907,62.0,30.0,210.0,2.0,0.0
3908,69.0,10.0,60.0,3.0,0.0
3909,79.0,50.0,60.0,0.0,0.0
3910,71.0,10.0,60.0,3.0,0.0
3911,83.0,0.0,60.0,0.0,0.0
3912,67.0,0.0,60.0,4.0,0.0
3913,81.0,0.0,60.0,0.0,0.0
3914,78.0,0.0,60.0,0.0,0.0
3915,66.0,20.0,60.0,4.0,0.0
3916,69.0,10.0,60.0,3.0,0.0
3917,79.0,0.0,60.0,0.0,0.0
3918,83.0,50.0,60.0,0.0,0.0
3919,71.0,10.0,60.0,3.0,0.0
3920,67.0,0.0,60.0,4.0,0.0
3921,64.0,10.0,90.0,2.0,0.0
3922,69.0,10.0,60.0,3.0,0.0
3923,66.0,40.0,60.0,4.0,0.0
3924,78.0,0.0,60.0,0.0,0.0
3925,81.0,0.0,60.0,0.0,0.0
3926,71.0,10.0,60.0,3.0,0.0
3927,79.0,0.0,60.0,0.0,0.0
3928,67.0,50.0,60.0,4.0,0.0
3929,83.0,0.0,60.0,0.0,0.0
3930,81.0,0.0,60.0,0.0,0.0
3931,78.0,40.0,60.0,0.0,0.0
3932,66.0,10.0,90.0,2.0,0.0
3933,69.0,10.0,60.0,3.0,0.0
3934,66.0,0.0,60.0,4.0,0.0
3935,71.0,10.0,60.0,3.0,0.0
3936,67.0,0.0,60.0,4.0,0.0
3937,83.0,50.0,60.0,0.0,0.0
3938,79.0,0.0,60.0,0.0,0.0
3939,69.0,10.0,60.0,3.0,0.0
3940,81.0,0.0,60.0,0.0,0.0
3941,78.0,40.0,60.0,0.0,0.0
3942,67.0,10.0,90.0,2.0,0.0
3943,66.0,0.0,60.0,4.0,0.0
3944,67.0,50.0,60.0,4.0,0.0
3945,71.0,10.0,60.0,3.0,0.0
3946,83.0,0.0,60.0,0.0,0.0
3947,79.0,0.0,60.0,0.0,0.0
3948,69.0,10.0,90.0,2.0,0.0
3949,81.0,0.0,60.0,0.0,0.0
3950,78.0,0.0,60.0,0.0,0.0
3951,66.0,40.0,60.0,4.0,0.0
3952,69.0,10.0,60.0,3.0,0.0
3953,71.0,10.0,60.0,3.0,0.0
3954,79.0,100.0,60.0,0.0,0.0
3955,83.0,0.0,60.0,0.0,0.0
3956,67.0,0.0,60.0,4.0,0.0
3957,71.0,0.0,90.0,2.0,0.0
3958,67.0,20.0,90.0,3.0,0.0
3959,79.0,100.0,120.0,0.0,0.0
3960,76.0,0.0,120.0,0.0,0.0
3961,64.0,0.0,120.0,4.0,0.0
3962,66.0,0.0,90.0,4.0,0.0
3963,78.0,0.0,90.0,0.0,0.0
3964,81.0,0.0,90.0,0.0,0.0
3965,73.0,0.0,90.0,2.0,0.0
3966,69.0,140.0,90.0,3.0,0.0
3967,81.0,0.0,390.0,0.0,0.0
3968,78.0,0.0,390.0,0.0,0.0
3969,62.0,0.0,390.0,5.0,0.0
3970,66.0,20.0,390.0,4.0,0.0
3971,50.0,0.0,210.0,6.0,0.0
3972,38.0,20.0,210.0,7.0,0.0
3973,69.0,80.0,120.0,3.0,0.0
3974,74.0,0.0,390.0,2.0,0.0
3975,67.0,80.0,90.0,3.0,0.0
3976,66.0,100.0,60.0,3.0,0.0
3977,64.0,180.0,60.0,3.0,0.0
3978,62.0,80.0,120.0,3.0,0.0
3979,50.0,0.0,210.0,6.0,0.0
3980,38.0,40.0,210.0,7.0,0.0
3981,61.0,60.0,120.0,3.0,0.0
3982,62.0,120.0,60.0,3.0,0.0
3983,64.0,180.0,60.0,3.0,0.0
3984,66.0,80.0,120.0,3.0,0.0
3985,50.0,40.0,210.0,6.0,0.0
3986,38.0,0.0,210.0,7.0,0.0
3987,64.0,60.0,120.0,3.0,0.0
3988,66.0,160.0,60.0,3.0,0.0
3989,67.0,80.0,90.0,3.0,0.0
3990,50.0,0.0,210.0,6.0,0.0
3991,74.0,20.0,390.0,0.0,0.0
3992,38.0,40.0,210.0,7.0,0.0
3993,69.0,140.0,60.0,3.0,0.0
3994,67.0,60.0,120.0,3.0,0.0
3995,69.0,100.0,60.0,3.0,0.0
3996,66.0,180.0,60.0,3.0,0.0
3997,50.0,0.0,210.0,6.0,0.0
3998,62.0,0.0,6150.0,1.0,0.0
3999,38.0,40.0,210.0,7.0,0.0
4000,76.0,60.0,720.0,0.0,0.0
4001,67.0,80.0,120.0,3.0,0.0
4002,50.0,60.0,6150.0,1.0,0.0
4003,61.0,10.0,1620.0,5.0,0.0
4004,66.0,60.0,120.0,3.0,0.0
4005,64.0,120.0,60.0,3.0,0.0
4006,63.0,180.0,60.0,3.0,0.0
4007,38.0,0.0,210.0,7.0,0.0
4008,50.0,40.0,210.0,6.0,0.0
4009,64.0,80.0,120.0,3.0,0.0
4010,63.0,0.0,120.0,3.0,0.0
4011,78.0,120.0,240.0,0.0,0.0
4012,64.0,120.0,60.0,3.0,0.0
4013,66.0,60.0,60.0,3.0,0.0
4014,50.0,0.0,210.0,6.0,0.0
4015,79.0,20.0,390.0,0.0,0.0
4016,38.0,40.0,210.0,7.0,0.0
4017,67.0,80.0,120.0,3.0,0.0
4018,66.0,60.0,120.0,3.0,0.0
4019,67.0,100.0,60.0,3.0,0.0
4020,69.0,180.0,60.0,3.0,0.0
4021,71.0,70.0,120.0,3.0,0.0
4022,79.0,20.0,390.0,0.0,0.0
4023,38.0,0.0,210.0,7.0,0.0
4024,50.0,40.0,210.0,6.0,0.0
4025,69.0,60.0,120.0,3.0,0.0
4026,71.0,100.0,60.0,3.0,0.0
4027,67.0,180.0,60.0,3.0,0.0
4028,60.0,70.0,810.0,5.0,0.0
4029,38.0,20.0,210.0,7.0,0.0
4030,69.0,80.0,120.0,3.0,0.0
4031,50.0,0.0,210.0,6.0,0.0
4032,77.0,60.0,240.0,0.0,0.0
4033,66.0,0.0,120.0,4.0,0.0
4034,67.0,0.0,90.0,3.0,0.0
4035,64.0,20.0,90.0,4.0,0.0
4036,66.0,120.0,60.0,3.0,0.0
4037,78.0,120.0,240.0,0.0,0.0
4038,62.0,0.0,60.0,4.0,0.0
4039,64.0,0.0,60.0,3.0,0.0
4040,61.0,60.0,60.0,4.0,0.0
4041,38.0,40.0,210.0,7.0,0.0
4042,62.0,0.0,120.0,4.0,0.0
4043,66.0,80.0,120.0,3.0,0.0
4044,50.0,0.0,210.0,6.0,0.0
4045,78.0,20.0,390.0,0.0,0.0
4046,61.0,0.0,120.0,4.0,0.0
4047,64.0,60.0,120.0,3.0,0.0
4048,66.0,0.0,60.0,3.0,0.0
4049,62.0,30.0,60.0,4.0,0.0
4050,67.0,180.0,60.0,3.0,0.0
4051,64.0,0.0,60.0,4.0,0.0
4052,57.0,120.0,480.0,5.0,0.0
4053,69.0,80.0,120.0,3.0,0.0
4054,66.0,0.0,120.0,4.0,0.0
4055,50.0,0.0,210.0,6.0,0.0
4056,38.0,40.0,210.0,7.0,0.0
4057,64.0,60.0,120.0,4.0,0.0
4058,67.0,0.0,120.0,3.0,0.0
4059,69.0,0.0,60.0,3.0,0.0
4060,66.0,120.0,60.0,4.0,0.0
4061,67.0,60.0,60.0,4.0,0.0
4062,71.0,0.0,60.0,3.0,0.0
4063,74.0,0.0,390.0,0.0,0.0
4064,50.0,40.0,210.0,6.0,0.0
4065,54.0,120.0,480.0,5.0,0.0
4066,78.0,20.0,390.0,0.0,0.0
4067,38.0,0.0,210.0,7.0,0.0
4068,72.0,80.0,120.0,3.0,0.0
4069,69.0,0.0,120.0,4.0,0.0
4070,67.0,60.0,120.0,4.0,0.0
4071,71.0,0.0,120.0,3.0,0.0
4072,69.0,0.0,60.0,4.0,0.0
4073,72.0,100.0,60.0,3.0,0.0
4074,66.0,60.0,60.0,4.0,0.0
4075,69.0,0.0,60.0,3.0,0.0
4076,62.0,90.0,810.0,5.0,0.0
4077,76.0,0.0,720.0,0.0,0.0
4078,79.0,0.0,720.0,0.0,0.0
4079,50.0,20.0,210.0,6.0,0.0
4080,71.0,0.0,120.0,3.0,0.0
4081,38.0,0.0,210.0,7.0,0.0
4082,67.0,80.0,120.0,4.0,0.0
4083,69.0,80.0,90.0,3.0,0.0
4084,66.0,0.0,90.0,4.0,0.0
4085,64.0,120.0,60.0,4.0,0.0
4086,67.0,0.0,60.0,3.0,0.0
4087,66.0,0.0,60.0,3.0,0.0
4088,62.0,180.0,60.0,4.0,0.0
4089,38.0,0.0,210.0,7.0,0.0
4090,67.0,0.0,120.0,3.0,0.0
4091,64.0,80.0,120.0,4.0,0.0
4092,50.0,40.0,210.0,6.0,0.0
4093,62.0,60.0,120.0,4.0,0.0
4094,66.0,0.0,120.0,3.0,0.0
4095,78.0,0.0,240.0,0.0,0.0
4096,81.0,120.0,240.0,0.0,0.0
4097,64.0,0.0,60.0,4.0,0.0
4098,67.0,30.0,60.0,3.0,0.0
4099,66.0,0.0,60.0,4.0,0.0
4100,69.0,60.0,60.0,3.0,0.0
4101,59.0,120.0,480.0,5.0,0.0
4102,83.0,0.0,390.0,0.0,0.0
4103,50.0,40.0,210.0,6.0,0.0
4104,79.0,20.0,390.0,0.0,0.0
4105,67.0,0.0,120.0,4.0,0.0
4106,71.0,80.0,120.0,3.0,0.0
4107,38.0,0.0,210.0,7.0,0.0
4108,66.0,60.0,120.0,4.0,0.0
4109,69.0,0.0,120.0,3.0,0.0
4110,67.0,0.0,60.0,4.0,0.0
4111,71.0,100.0,60.0,3.0,0.0
4112,72.0,60.0,60.0,3.0,0.0
4113,69.0,0.0,60.0,4.0,0.0
4114,71.0,80.0,120.0,4.0,0.0
4115,50.0,0.0,210.0,6.0,0.0
4116,74.0,0.0,120.0,3.0,0.0
4117,38.0,20.0,210.0,7.0,0.0
4118,79.0,0.0,390.0,0.0,0.0
4119,83.0,20.0,390.0,0.0,0.0
4120,55.0,100.0,480.0,5.0,0.0
4121,69.0,80.0,90.0,4.0,0.0
4122,72.0,0.0,90.0,3.0,0.0
4123,71.0,100.0,60.0,4.0,0.0
4124,74.0,0.0,60.0,3.0,0.0
4125,71.0,0.0,60.0,3.0,0.0
4126,67.0,60.0,60.0,4.0,0.0
4127,62.0,0.0,390.0,5.0,0.0
4128,80.0,100.0,240.0,0.0,0.0
4129,77.0,0.0,240.0,0.0,0.0
4130,38.0,0.0,390.0,7.0,0.0
4131,72.0,0.0,90.0,3.0,0.0
4132,69.0,120.0,90.0,4.0,0.0
4133,50.0,0.0,390.0,6.0,0.0
4134,69.0,0.0,90.0,3.0,0.0
4135,66.0,20.0,90.0,4.0,0.0
4136,71.0,0.0,90.0,3.0,0.0
4137,81.0,0.0,240.0,0.0,0.0
4138,67.0,60.0,90.0,4.0,0.0
4139,72.0,0.0,90.0,3.0,0.0
4140,69.0,20.0,90.0,4.0,0.0
4141,74.0,120.0,90.0,3.0,0.0
4142,71.0,0.0,90.0,4.0,0.0
4143,81.0,0.0,810.0,0.0,0.0
4144,78.0,100.0,15.0,0.0,0.0
4145,50.0,10.0,810.0,1.0,0.0
4146,62.0,0.0,810.0,1.0,0.0
4147,72.0,120.0,90.0,4.0,0.0
4148,76.0,0.0,90.0,3.0,0.0
4149,74.0,120.0,90.0,4.0,0.0
4150,78.0,0.0,90.0,3.0,0.0
4151,76.0,120.0,90.0,4.0,0.0
4152,79.0,0.0,90.0,3.0,0.0
4153,78.0,0.0,90.0,4.0,0.0
4154,81.0,120.0,90.0,3.0,0.0
4155,76.0,110.0,90.0,4.0,0.0
4156,79.0,0.0,90.0,3.0,0.0
4157,78.0,120.0,90.0,3.0,0.0
4158,74.0,0.0,90.0,4.0,0.0
4159,76.0,0.0,90.0,3.0,0.0
4160,73.0,120.0,90.0,4.0,0.0
4161,74.0,120.0,90.0,4.0,0.0
4162,78.0,0.0,90.0,3.0,0.0
4163,62.0,0.0,870.0,1.0,0.0
4164,81.0,0.0,870.0,0.0,0.0
4165,78.0,0.0,870.0,0.0,0.0
4166,50.0,40.0,870.0,1.0,0.0
4167,79.0,120.0,90.0,3.0,0.0
4168,76.0,0.0,90.0,4.0,0.0
4169,78.0,0.0,90.0,4.0,0.0
4170,81.0,120.0,90.0,3.0,0.0
4171,79.0,0.0,90.0,4.0,0.0
4172,83.0,220.0,90.0,3.0,0.0
4173,84.0,0.0,210.0,3.0,0.0
4174,81.0,200.0,210.0,4.0,0.0
4175,50.0,0.0,210.0,6.0,0.0
4176,78.0,0.0,450.0,4.0,0.0
4177,38.0,240.0,210.0,7.0,0.0
4178,74.0,0.0,450.0,3.0,0.0
4179,84.0,0.0,450.0,3.0,0.0
4180,81.0,0.0,450.0,4.0,0.0
4181,62.0,0.0,210.0,5.0,0.0
4182,54.0,0.0,210.0,6.0,0.0
4183,78.0,140.0,300.0,0.0,0.0
4184,69.0,0.0,300.0,1.0,0.0
4185,62.0,0.0,300.0,1.0,0.0
4186,42.0,0.0,210.0,7.0,0.0
4187,66.0,100.0,210.0,5.0,0.0
4188,84.0,0.0,300.0,0.0,0.0
4189,81.0,0.0,450.0,4.0,0.0
4190,84.0,0.0,450.0,3.0,0.0
4191,78.0,0.0,450.0,4.0,0.0
4192,74.0,0.0,450.0,3.0,0.0
4193,69.0,0.0,210.0,5.0,0.0
4194,45.0,0.0,210.0,7.0,0.0
4195,57.0,20.0,210.0,6.0,0.0
4196,78.0,0.0,90.0,0.0,0.0
4197,84.0,0.0,90.0,0.0,0.0
4198,69.0,0.0,90.0,1.0,0.0
4199,62.0,220.0,90.0,1.0,0.0
4200,74.0,0.0,210.0,5.0,0.0
4201,50.0,200.0,210.0,7.0,0.0
4202,62.0,0.0,210.0,6.0,0.0
4203,62.0,0.0,390.0,1.0,0.0
4204,78.0,0.0,390.0,0.0,0.0
4205,84.0,0.0,390.0,0.0,0.0
4206,69.0,40.0,390.0,1.0,0.0
4207,78.0,0.0,450.0,4.0,0.0
4208,81.0,200.0,450.0,4.0,0.0
4209,84.0,0.0,450.0,3.0,0.0
4210,69.0,0.0,210.0,5.0,0.0
4211,74.0,0.0,450.0,3.0,0.0
4212,57.0,0.0,210.0,6.0,0.0
4213,45.0,240.0,210.0,7.0,0.0
4214,42.0,0.0,210.0,7.0,0.0
4215,78.0,0.0,390.0,0.0,0.0
4216,66.0,0.0,210.0,5.0,0.0
4217,54.0,0.0,210.0,6.0,0.0
4218,84.0,0.0,390.0,0.0,0.0
4219,62.0,40.0,390.0,1.0,0.0
4220,69.0,0.0,390.0,1.0,0.0
4221,84.0,440.0,630.0,3.0,0.0
4222,74.0,0.0,630.0,3.0,0.0
4223,57.0,0.0,210.0,6.0,0.0
4224,81.0,0.0,630.0,4.0,0.0
4225,78.0,0.0,630.0,4.0,0.0
4226,45.0,0.0,210.0,7.0,0.0
4227,69.0,440.0,210.0,5.0,0.0
4228,69.0,0.0,390.0,1.0,0.0
4229,62.0,0.0,390.0,1.0,0.0
4230,78.0,0.0,390.0,0.0,0.0
4231,62.0,0.0,390.0,5.0,0.0
4232,38.0,0.0,390.0,7.0,0.0
4233,84.0,0.0,390.0,0.0,0.0
4234,50.0,0.0,390.0,6.0,0.0
4235,81.0,120.0,120.0,3.0,0.0
4236,78.0,0.0,120.0,4.0,0.0
4237,83.0,400.0,120.0,3.0,0.0
4238,79.0,0.0,120.0,4.0,0.0
4239,81.0,440.0,390.0,4.0,0.0
4240,84.0,0.0,390.0,3.0,0.0
4241,78.0,0.0,120.0,4.0,0.0
4242,81.0,120.0,120.0,3.0,0.0
4243,83.0,0.0,120.0,3.0,0.0
4244,79.0,200.0,120.0,4.0,0.0
4245,84.0,240.0,210.0,3.0,0.0
4246,81.0,0.0,210.0,4.0,0.0
4247,81.0,0.0,210.0,4.0,0.0
4248,84.0,100.0,210.0,3.0,0.0
4249,79.0,60.0,60.0,4.0,0.0
4250,83.0,0.0,60.0,3.0,0.0
4251,81.0,60.0,60.0,4.0,0.0
4252,84.0,0.0,60.0,3.0,0.0
4253,83.0,0.0,60.0,3.0,0.0
4254,79.0,60.0,60.0,4.0,0.0
4255,81.0,120.0,60.0,4.0,0.0
4256,84.0,0.0,60.0,3.0,0.0
4257,81.0,0.0,120.0,3.0,0.0
4258,78.0,120.0,120.0,4.0,0.0
4259,83.0,200.0,120.0,3.0,0.0
4260,79.0,0.0,120.0,4.0,0.0
4261,81.0,0.0,210.0,3.0,0.0
4262,78.0,240.0,210.0,4.0,0.0
4263,81.0,0.0,210.0,3.0,0.0
4264,78.0,100.0,210.0,4.0,0.0
4265,79.0,60.0,60.0,3.0,0.0
4266,76.0,0.0,60.0,4.0,0.0
4267,78.0,0.0,60.0,4.0,0.0
4268,81.0,60.0,60.0,3.0,0.0
4269,76.0,0.0,60.0,4.0,0.0
4270,79.0,60.0,60.0,3.0,0.0
4271,81.0,0.0,60.0,3.0,0.0
4272,78.0,120.0,60.0,4.0,0.0
4273,78.0,120.0,120.0,3.0,0.0
4274,74.0,0.0,120.0,4.0,0.0
4275,79.0,240.0,120.0,3.0,0.0
4276,76.0,0.0,120.0,4.0,0.0
4277,78.0,0.0,240.0,3.0,0.0
4278,74.0,240.0,240.0,4.0,0.0
4279,76.0,240.0,240.0,4.0,0.0
4280,79.0,0.0,240.0,3.0,0.0
4281,81.0,240.0,240.0,3.0,0.0
4282,78.0,0.0,240.0,4.0,0.0
4283,79.0,0.0,240.0,3.0,0.0
4284,76.0,240.0,240.0,4.0,0.0
4285,78.0,0.0,240.0,3.0,0.0
4286,74.0,240.0,240.0,4.0,0.0
4287,79.0,0.0,240.0,3.0,0.0
4288,76.0,240.0,240.0,4.0,0.0
4289,78.0,0.0,240.0,3.0,0.0
4290,74.0,240.0,240.0,4.0,0.0
4291,76.0,200.0,240.0,3.0,0.0
4292,72.0,0.0,240.0,4.0,0.0
4293,71.0,0.0,210.0,4.0,0.0
4294,86.0,0.0,480.0,0.0,0.0
4295,83.0,200.0,480.0,0.0,0.0
4296,74.0,280.0,210.0,3.0,0.0
4297,69.0,0.0,210.0,4.0,0.0
4298,81.0,200.0,480.0,0.0,0.0
4299,72.0,280.0,210.0,3.0,0.0
4300,84.0,0.0,480.0,0.0,0.0
4301,83.0,0.0,480.0,0.0,0.0
4302,79.0,200.0,480.0,0.0,0.0
4303,67.0,0.0,210.0,4.0,0.0
4304,71.0,280.0,210.0,3.0,0.0
4305,78.0,0.0,480.0,0.0,0.0
4306,81.0,400.0,480.0,0.0,0.0
4307,69.0,0.0,210.0,3.0,0.0
4308,66.0,280.0,210.0,4.0,0.0
4309,43.0,0.0,390.0,7.0,0.0
4310,55.0,0.0,390.0,6.0,0.0
4311,79.0,40.0,390.0,0.0,0.0
4312,67.0,10.0,1620.0,2.0,0.0
4313,59.0,0.0,210.0,4.0,0.0
4314,67.0,0.0,210.0,3.0,0.0
4315,62.0,240.0,210.0,5.0,0.0
4316,62.0,0.0,210.0,5.0,0.0
4317,67.0,240.0,210.0,3.0,0.0
4318,59.0,0.0,210.0,4.0,0.0
4319,67.0,0.0,210.0,3.0,0.0
4320,62.0,0.0,210.0,5.0,0.0
4321,59.0,240.0,210.0,4.0,0.0
4322,62.0,0.0,210.0,5.0,0.0
4323,59.0,0.0,210.0,4.0,0.0
4324,67.0,240.0,210.0,3.0,0.0
4325,62.0,0.0,210.0,5.0,0.0
4326,67.0,0.0,210.0,3.0,0.0
4327,59.0,230.0,210.0,4.0,0.0
4328,67.0,0.0,210.0,3.0,0.0
4329,59.0,0.0,210.0,4.0,0.0
4330,62.0,240.0,210.0,5.0,0.0
4331,62.0,0.0,210.0,5.0,0.0
4332,67.0,440.0,210.0,3.0,0.0
4333,59.0,0.0,210.0,4.0,0.0
4334,55.0,0.0,390.0,6.0,0.0
4335,71.0,10.0,1620.0,2.0,0.0
4336,43.0,40.0,390.0,7.0,0.0
4337,67.0,0.0,210.0,3.0,0.0
4338,62.0,240.0,210.0,5.0,0.0
4339,59.0,0.0,210.0,4.0,0.0
4340,62.0,240.0,210.0,5.0,0.0
4341,67.0,0.0,210.0,3.0,0.0
4342,59.0,0.0,210.0,4.0,0.0
4343,67.0,0.0,210.0,3.0,0.0
4344,59.0,240.0,210.0,4.0,0.0
4345,62.0,0.0,210.0,5.0,0.0
4346,62.0,0.0,210.0,5.0,0.0
4347,59.0,0.0,210.0,4.0,0.0
4348,67.0,240.0,210.0,3.0,0.0
4349,62.0,230.0,210.0,5.0,0.0
4350,59.0,0.0,210.0,4.0,0.0
4351,67.0,0.0,210.0,3.0,0.0
4352,62.0,0.0,210.0,5.0,0.0
4353,59.0,0.0,210.0,4.0,0.0
4354,67.0,240.0,210.0,3.0,0.0
4355,59.0,440.0,210.0,4.0,0.0
4356,62.0,0.0,210.0,5.0,0.0
4357,67.0,0.0,210.0,3.0,0.0
4358,43.0,40.0,390.0,7.0,0.0
4359,74.0,110.0,810.0,2.0,0.0
4360,55.0,0.0,390.0,6.0,0.0
4361,67.0,0.0,210.0,3.0,0.0
4362,59.0,240.0,210.0,4.0,0.0
4363,62.0,0.0,210.0,5.0,0.0
4364,67.0,130.0,210.0,3.0,0.0
4365,59.0,0.0,210.0,4.0,0.0
4366,62.0,0.0,210.0,5.0,0.0
4367,62.0,240.0,210.0,5.0,0.0
4368,67.0,0.0,210.0,3.0,0.0
4369,59.0,0.0,210.0,4.0,0.0
4370,59.0,0.0,210.0,4.0,0.0
4371,67.0,0.0,210.0,3.0,0.0
4372,72.0,200.0,240.0,2.0,0.0
4373,62.0,40.0,210.0,5.0,0.0
4374,67.0,0.0,210.0,3.0,0.0
4375,62.0,40.0,210.0,5.0,0.0
4376,59.0,0.0,210.0,4.0,0.0
4377,71.0,200.0,240.0,2.0,0.0
4378,59.0,40.0,210.0,4.0,0.0
4379,62.0,0.0,210.0,5.0,0.0
4380,69.0,200.0,240.0,2.0,0.0
4381,67.0,0.0,210.0,3.0,0.0
4382,62.0,0.0,210.0,5.0,0.0
4383,67.0,0.0,210.0,3.0,0.0
4384,67.0,200.0,240.0,2.0,0.0
4385,59.0,40.0,210.0,4.0,0.0
4386,69.0,120.0,720.0,2.0,0.0
4387,69.0,0.0,210.0,3.0,0.0
4388,42.0,40.0,390.0,7.0,0.0
4389,60.0,200.0,210.0,4.0,0.0
4390,54.0,0.0,390.0,6.0,0.0
4391,62.0,0.0,210.0,5.0,0.0
4392,69.0,240.0,210.0,3.0,0.0
4393,62.0,0.0,210.0,5.0,0.0
4394,60.0,0.0,210.0,4.0,0.0
4395,50.0,0.0,390.0,6.0,0.0
4396,38.0,40.0,390.0,7.0,0.0
4397,60.0,0.0,210.0,4.0,0.0
4398,62.0,0.0,210.0,5.0,0.0
4399,66.0,40.0,210.0,3.0,0.0
4400,66.0,0.0,210.0,3.0,0.0
4401,62.0,0.0,210.0,5.0,0.0
4402,71.0,40.0,120.0,2.0,0.0
4403,60.0,40.0,210.0,4.0,0.0
4404,72.0,200.0,120.0,2.0,0.0
4405,67.0,0.0,390.0,3.0,0.0
4406,55.0,0.0,390.0,6.0,0.0
4407,60.0,200.0,210.0,4.0,0.0
4408,71.0,0.0,390.0,2.0,0.0
4409,62.0,0.0,210.0,5.0,0.0
4410,43.0,40.0,390.0,7.0,0.0
4411,79.0,0.0,240.0,0.0,0.0
4412,83.0,0.0,240.0,0.0,0.0
4413,55.0,40.0,210.0,1.0,0.0
4414,67.0,0.0,210.0,1.0,0.0
4415,67.0,200.0,240.0,5.0,0.0
4416,71.0,0.0,240.0,4.0,0.0
4417,69.0,0.0,240.0,5.0,0.0
4418,55.0,40.0,210.0,1.0,0.0
4419,81.0,0.0,240.0,0.0,0.0
4420,84.0,0.0,240.0,0.0,0.0
4421,67.0,0.0,210.0,1.0,0.0
4422,72.0,200.0,240.0,4.0,0.0
4423,86.0,200.0,240.0,0.0,0.0
4424,83.0,0.0,240.0,0.0,0.0
4425,55.0,40.0,210.0,1.0,0.0
4426,67.0,0.0,210.0,1.0,0.0
4427,71.0,0.0,240.0,5.0,0.0
4428,74.0,0.0,240.0,4.0,0.0
4429,88.0,0.0,390.0,3.0,0.0
4430,67.0,10.0,3540.0,1.0,0.0
4431,55.0,0.0,3540.0,1.0,0.0
4432,72.0,200.0,210.0,5.0,0.0
4433,79.0,0.0,390.0,3.0,0.0
4434,76.0,0.0,390.0,4.0,0.0
4435,72.0,40.0,390.0,3.0,0.0
4436,84.0,0.0,1620.0,0.0,0.0
4437,88.0,10.0,1620.0,0.0,0.0
4438,36.0,240.0,210.0,7.0,0.0
4439,60.0,0.0,210.0,5.0,0.0
4440,48.0,0.0,210.0,6.0,0.0
4441,40.0,0.0,210.0,7.0,0.0
4442,52.0,0.0,210.0,6.0,0.0
4443,64.0,200.0,210.0,5.0,0.0
4444,60.0,40.0,390.0,4.0,0.0
4445,60.0,0.0,390.0,3.0,0.0
4446,43.0,160.0,210.0,7.0,0.0
4447,67.0,0.0,210.0,5.0,0.0
4448,55.0,0.0,210.0,6.0,0.0
4449,48.0,0.0,210.0,7.0,0.0
4450,76.0,80.0,120.0,4.0,0.0
4451,72.0,0.0,210.0,5.0,0.0
4452,60.0,40.0,210.0,6.0,0.0
4453,79.0,120.0,120.0,4.0,0.0
4454,84.0,0.0,210.0,4.0,0.0
4455,55.0,0.0,210.0,6.0,0.0
4456,79.0,80.0,120.0,3.0,0.0
4457,43.0,40.0,210.0,7.0,0.0
4458,67.0,0.0,210.0,5.0,0.0
4459,84.0,190.0,120.0,3.0,0.0
4460,84.0,0.0,210.0,4.0,0.0
4461,88.0,0.0,210.0,3.0,0.0
4462,52.0,0.0,210.0,6.0,0.0
4463,40.0,0.0,210.0,7.0,0.0
4464,64.0,240.0,210.0,5.0,0.0
4465,36.0,0.0,210.0,7.0,0.0
4466,88.0,0.0,210.0,3.0,0.0
4467,60.0,440.0,210.0,5.0,0.0
4468,48.0,0.0,210.0,6.0,0.0
4469,86.0,0.0,390.0,3.0,0.0
4470,83.0,40.0,390.0,4.0,0.0
4471,86.0,0.0,1620.0,0.0,0.0
4472,83.0,0.0,1620.0,0.0,0.0
4473,55.0,0.0,210.0,6.0,0.0
4474,67.0,0.0,210.0,5.0,0.0
4475,43.0,240.0,210.0,7.0,0.0
4476,67.0,0.0,390.0,3.0,0.0
4477,59.0,0.0,390.0,3.0,0.0
4478,47.0,0.0,210.0,7.0,0.0
4479,59.0,0.0,210.0,6.0,0.0
4480,67.0,0.0,390.0,4.0,0.0
4481,59.0,40.0,390.0,4.0,0.0
4482,71.0,200.0,210.0,5.0,0.0
4483,50.0,240.0,210.0,7.0,0.0
4484,62.0,0.0,210.0,6.0,0.0
4485,74.0,0.0,210.0,5.0,0.0
4486,79.0,0.0,210.0,5.0,0.0
4487,67.0,0.0,210.0,6.0,0.0
4488,55.0,160.0,210.0,7.0,0.0
4489,74.0,0.0,210.0,5.0,0.0
4490,79.0,0.0,120.0,3.0,0.0
4491,71.0,80.0,120.0,4.0,0.0
4492,50.0,0.0,210.0,7.0,0.0
4493,62.0,20.0,210.0,6.0,0.0
4494,79.0,0.0,90.0,4.0,0.0
4495,83.0,210.0,90.0,3.0,0.0
4496,71.0,0.0,210.0,5.0,0.0
4497,86.0,0.0,210.0,3.0,0.0
4498,59.0,240.0,210.0,6.0,0.0
4499,83.0,0.0,210.0,4.0,0.0
4500,47.0,0.0,210.0,7.0,0.0
4501,83.0,0.0,210.0,4.0,0.0
4502,86.0,0.0,210.0,3.0,0.0
4503,43.0,0.0,210.0,7.0,0.0
4504,55.0,240.0,210.0,6.0,0.0
4505,67.0,0.0,210.0,5.0,0.0
4506,76.0,90.0,810.0,0.0,0.0
4507,84.0,110.0,1620.0,0.0,0.0
4508,57.0,0.0,600.0,6.0,0.0
4509,45.0,0.0,600.0,7.0,0.0
4510,84.0,160.0,210.0,4.0,0.0
4511,69.0,0.0,810.0,1.0,0.0
4512,67.0,0.0,810.0,1.0,0.0
4513,64.0,50.0,600.0,5.0,0.0
4514,84.0,0.0,210.0,3.0,0.0
4515,88.0,0.0,120.0,3.0,0.0
4516,88.0,120.0,120.0,4.0,0.0
4517,86.0,60.0,120.0,3.0,0.0
4518,86.0,0.0,120.0,4.0,0.0
4519,84.0,0.0,60.0,4.0,0.0
4520,84.0,70.0,60.0,3.0,0.0
4521,83.0,120.0,60.0,3.0,0.0
4522,83.0,0.0,60.0,4.0,0.0
4523,60.0,240.0,210.0,6.0,0.0
4524,76.0,0.0,210.0,5.0,0.0
4525,81.0,0.0,60.0,4.0,0.0
4526,81.0,30.0,60.0,3.0,0.0
4527,48.0,0.0,210.0,7.0,0.0
4528,79.0,20.0,60.0,4.0,0.0
4529,79.0,0.0,60.0,3.0,0.0
4530,78.0,0.0,210.0,4.0,0.0
4531,50.0,0.0,600.0,7.0,0.0
4532,78.0,160.0,210.0,3.0,0.0
4533,62.0,0.0,600.0,6.0,0.0
4534,69.0,90.0,810.0,1.0,0.0
4535,78.0,0.0,600.0,0.0,0.0
4536,69.0,50.0,600.0,5.0,0.0
4537,62.0,0.0,810.0,1.0,0.0
4538,81.0,100.0,120.0,4.0,0.0
4539,81.0,0.0,120.0,3.0,0.0
4540,79.0,60.0,120.0,3.0,0.0
4541,79.0,20.0,90.0,4.0,0.0
4542,78.0,0.0,60.0,3.0,0.0
4543,78.0,70.0,60.0,4.0,0.0
4544,76.0,0.0,60.0,3.0,0.0
4545,76.0,10.0,60.0,4.0,0.0
4546,81.0,0.0,210.0,0.0,0.0
4547,74.0,30.0,60.0,4.0,0.0
4548,54.0,140.0,210.0,6.0,0.0
4549,42.0,0.0,210.0,7.0,0.0
4550,66.0,0.0,210.0,5.0,0.0
4551,74.0,0.0,60.0,3.0,0.0
4552,72.0,20.0,60.0,3.0,0.0
4553,72.0,0.0,60.0,4.0,0.0
4554,71.0,0.0,90.0,3.0,0.0
4555,67.0,0.0,210.0,5.0,0.0
4556,71.0,100.0,90.0,4.0,0.0
4557,79.0,40.0,390.0,0.0,0.0
4558,71.0,0.0,390.0,1.0,0.0
4559,67.0,0.0,390.0,1.0,0.0
4560,55.0,0.0,210.0,6.0,0.0
4561,83.0,0.0,390.0,0.0,0.0
4562,43.0,20.0,210.0,7.0,0.0
4563,74.0,0.0,90.0,3.0,0.0
4564,74.0,120.0,90.0,4.0,0.0
4565,72.0,60.0,90.0,4.0,0.0
4566,43.0,0.0,210.0,7.0,0.0
4567,55.0,20.0,210.0,6.0,0.0
4568,67.0,0.0,210.0,5.0,0.0
4569,72.0,0.0,90.0,3.0,0.0
4570,71.0,0.0,90.0,4.0,0.0
4571,71.0,120.0,90.0,3.0,0.0
4572,57.0,20.0,210.0,6.0,0.0
4573,45.0,0.0,210.0,7.0,0.0
4574,66.0,0.0,210.0,5.0,0.0
4575,69.0,40.0,390.0,1.0,0.0
4576,78.0,0.0,390.0,0.0,0.0
4577,62.0,0.0,390.0,1.0,0.0
4578,72.0,100.0,90.0,4.0,0.0
4579,81.0,0.0,390.0,0.0,0.0
4580,72.0,0.0,90.0,3.0,0.0
4581,74.0,0.0,90.0,3.0,0.0
4582,74.0,120.0,90.0,4.0,0.0
4583,60.0,0.0,210.0,5.0,0.0
4584,57.0,0.0,210.0,6.0,0.0
4585,76.0,60.0,90.0,4.0,0.0
4586,45.0,20.0,210.0,7.0,0.0
4587,76.0,0.0,90.0,3.0,0.0
4588,78.0,120.0,90.0,4.0,0.0
4589,78.0,0.0,90.0,3.0,0.0
4590,79.0,120.0,90.0,3.0,0.0
4591,79.0,0.0,390.0,0.0,0.0
4592,74.0,0.0,390.0,0.0,0.0
4593,59.0,0.0,390.0,6.0,0.0
4594,79.0,0.0,90.0,4.0,0.0
4595,67.0,0.0,390.0,1.0,0.0
4596,59.0,0.0,390.0,1.0,0.0
4597,47.0,0.0,390.0,7.0,0.0
4598,62.0,60.0,390.0,5.0,0.0
4599,81.0,0.0,90.0,4.0,0.0
4600,81.0,120.0,90.0,3.0,0.0
4601,83.0,0.0,90.0,4.0,0.0
4602,83.0,60.0,90.0,3.0,0.0
4603,84.0,0.0,90.0,3.0,0.0
4604,84.0,220.0,90.0,4.0,0.0
4605,86.0,680.0,210.0,3.0,0.0
4606,86.0,0.0,210.0,4.0,0.0
4607,48.0,40.0,390.0,7.0,0.0
4608,64.0,70.0,600.0,2.0,0.0
4609,60.0,0.0,390.0,6.0,0.0
4610,67.0,0.0,210.0,3.0,0.0
4611,60.0,170.0,210.0,5.0,0.0
4612,64.0,0.0,210.0,4.0,0.0
4613,64.0,0.0,210.0,4.0,0.0
4614,60.0,240.0,210.0,5.0,0.0
4615,67.0,0.0,210.0,3.0,0.0
4616,67.0,0.0,210.0,2.0,0.0
4617,60.0,0.0,210.0,5.0,0.0
4618,64.0,0.0,210.0,4.0,0.0
4619,67.0,240.0,210.0,3.0,0.0
4620,72.0,70.0,600.0,2.0,0.0
4621,60.0,0.0,210.0,5.0,0.0
4622,67.0,0.0,210.0,3.0,0.0
4623,64.0,240.0,210.0,4.0,0.0
4624,60.0,0.0,210.0,5.0,0.0
4625,67.0,0.0,210.0,3.0,0.0
4626,64.0,170.0,210.0,4.0,0.0
4627,60.0,240.0,210.0,5.0,0.0
4628,67.0,0.0,210.0,3.0,0.0
4629,64.0,0.0,210.0,4.0,0.0
4630,64.0,0.0,210.0,4.0,0.0
4631,60.0,0.0,210.0,5.0,0.0
4632,76.0,440.0,210.0,2.0,0.0
4633,67.0,0.0,210.0,3.0,0.0
4634,74.0,160.0,1110.0,2.0,0.0
4635,59.0,0.0,390.0,6.0,0.0
4636,62.0,480.0,390.0,4.0,0.0
4637,47.0,0.0,390.0,7.0,0.0
4638,67.0,0.0,390.0,3.0,0.0
4639,59.0,0.0,390.0,5.0,0.0
4640,45.0,0.0,390.0,7.0,0.0
4641,72.0,0.0,390.0,3.0,0.0
4642,66.0,240.0,390.0,4.0,0.0
4643,57.0,0.0,390.0,6.0,0.0
4644,62.0,0.0,390.0,5.0,0.0
4645,43.0,0.0,390.0,7.0,0.0
4646,71.0,0.0,390.0,3.0,0.0
4647,62.0,0.0,390.0,5.0,0.0
4648,67.0,80.0,390.0,4.0,0.0
4649,55.0,0.0,390.0,6.0,0.0
4650,67.0,80.0,150.0,2.0,0.0
4651,69.0,160.0,150.0,2.0,0.0
4652,71.0,160.0,150.0,2.0,0.0
4653,72.0,160.0,150.0,2.0,0.0
4654,74.0,240.0,150.0,2.0,0.0
4655,74.0,240.0,240.0,3.0,0.0
4656,74.0,0.0,240.0,2.0,0.0
4657,71.0,0.0,240.0,4.0,0.0
4658,69.0,0.0,240.0,4.0,0.0
4659,72.0,480.0,240.0,3.0,0.0
4660,72.0,0.0,240.0,2.0,0.0
4661,71.0,0.0,810.0,2.0,0.0
4662,67.0,0.0,810.0,4.0,0.0
4663,71.0,150.0,810.0,3.0,0.0
4664,64.0,0.0,120.0,5.0,0.0
4665,61.0,0.0,120.0,6.0,0.0
4666,49.0,330.0,120.0,7.0,0.0
4667,62.0,0.0,480.0,6.0,0.0
4668,50.0,400.0,480.0,7.0,0.0
4669,62.0,0.0,480.0,5.0,0.0
4670,69.0,0.0,390.0,2.0,0.0
4671,69.0,0.0,390.0,3.0,0.0
4672,50.0,0.0,390.0,6.0,0.0
4673,38.0,180.0,390.0,7.0,0.0
4674,60.0,0.0,390.0,5.0,0.0
4675,66.0,0.0,390.0,4.0,0.0
4676,67.0,0.0,390.0,2.0,0.0
4677,67.0,120.0,90.0,4.0,0.0
4678,43.0,40.0,390.0,7.0,0.0
4679,67.0,0.0,390.0,3.0,0.0
4680,55.0,0.0,390.0,6.0,0.0
4681,59.0,0.0,390.0,5.0,0.0
4682,62.0,120.0,90.0,4.0,0.0
4683,67.0,60.0,90.0,4.0,0.0
4684,62.0,0.0,90.0,1.0,0.0
4685,74.0,20.0,210.0,0.0,0.0
4686,71.0,0.0,90.0,4.0,0.0
4687,62.0,120.0,90.0,1.0,0.0
4688,74.0,20.0,210.0,0.0,0.0
4689,62.0,0.0,210.0,1.0,0.0
4690,74.0,100.0,90.0,4.0,0.0
4691,74.0,120.0,90.0,4.0,0.0
4692,86.0,0.0,210.0,3.0,0.0
4693,74.0,0.0,210.0,3.0,0.0
4694,78.0,100.0,90.0,4.0,0.0
4695,74.0,0.0,210.0,0.0,0.0
4696,50.0,20.0,210.0,6.0,0.0
4697,62.0,0.0,210.0,5.0,0.0
4698,62.0,0.0,210.0,1.0,0.0
4699,38.0,0.0,210.0,7.0,0.0
4700,81.0,120.0,90.0,4.0,0.0
4701,59.0,0.0,210.0,1.0,0.0
4702,83.0,0.0,210.0,3.0,0.0
4703,74.0,0.0,210.0,3.0,0.0
4704,79.0,0.0,210.0,0.0,0.0
4705,71.0,0.0,210.0,0.0,0.0
4706,79.0,100.0,90.0,4.0,0.0
4707,43.0,0.0,210.0,7.0,0.0
4708,67.0,0.0,210.0,1.0,0.0
4709,55.0,0.0,210.0,6.0,0.0
4710,67.0,20.0,210.0,5.0,0.0
4711,74.0,120.0,90.0,4.0,0.0
4712,43.0,20.0,210.0,7.0,0.0
4713,55.0,0.0,210.0,6.0,0.0
4714,71.0,0.0,210.0,0.0,0.0
4715,79.0,0.0,210.0,0.0,0.0
4716,74.0,0.0,210.0,3.0,0.0
4717,79.0,100.0,90.0,4.0,0.0
4718,67.0,0.0,210.0,5.0,0.0
4719,83.0,0.0,210.0,3.0,0.0
4720,59.0,0.0,210.0,1.0,0.0
4721,67.0,0.0,210.0,1.0,0.0
4722,74.0,120.0,90.0,4.0,0.0
4723,84.0,0.0,210.0,3.0,0.0
4724,74.0,20.0,210.0,3.0,0.0
4725,50.0,0.0,210.0,6.0,0.0
4726,81.0,0.0,210.0,0.0,0.0
4727,78.0,100.0,90.0,4.0,0.0
4728,62.0,0.0,210.0,5.0,0.0
4729,62.0,0.0,210.0,1.0,0.0
4730,69.0,0.0,210.0,1.0,0.0
4731,74.0,0.0,210.0,0.0,0.0
4732,38.0,0.0,210.0,7.0,0.0
4733,81.0,120.0,90.0,4.0,0.0
4734,84.0,0.0,210.0,3.0,0.0
4735,74.0,0.0,210.0,0.0,0.0
4736,69.0,0.0,210.0,1.0,0.0
4737,62.0,0.0,210.0,1.0,0.0
4738,50.0,0.0,210.0,6.0,0.0
4739,81.0,0.0,210.0,0.0,0.0
4740,78.0,100.0,90.0,4.0,0.0
4741,62.0,0.0,210.0,5.0,0.0
4742,74.0,0.0,210.0,3.0,0.0
4743,38.0,20.0,210.0,7.0,0.0
4744,81.0,120.0,90.0,4.0,0.0
4745,43.0,0.0,390.0,7.0,0.0
4746,83.0,0.0,210.0,0.0,0.0
4747,79.0,20.0,210.0,0.0,0.0
4748,67.0,0.0,390.0,5.0,0.0
4749,83.0,0.0,390.0,3.0,0.0
4750,74.0,0.0,390.0,3.0,0.0
4751,67.0,0.0,210.0,1.0,0.0
4752,79.0,100.0,90.0,4.0,0.0
4753,55.0,40.0,390.0,6.0,0.0
4754,71.0,0.0,210.0,1.0,0.0
4755,86.0,120.0,90.0,4.0,0.0
4756,74.0,20.0,210.0,0.0,0.0
4757,83.0,0.0,90.0,4.0,0.0
4758,62.0,60.0,90.0,1.0,0.0
4759,62.0,120.0,90.0,1.0,0.0
4760,79.0,0.0,90.0,4.0,0.0
4761,74.0,100.0,90.0,4.0,0.0
4762,62.0,0.0,210.0,1.0,0.0
4763,74.0,20.0,210.0,0.0,0.0
4764,74.0,120.0,90.0,4.0,0.0
4765,78.0,100.0,90.0,4.0,0.0
4766,74.0,0.0,210.0,3.0,0.0
4767,81.0,0.0,210.0,3.0,0.0
4768,62.0,0.0,210.0,5.0,0.0
4769,50.0,20.0,210.0,6.0,0.0
4770,38.0,0.0,210.0,7.0,0.0
4771,62.0,0.0,210.0,1.0,0.0
4772,74.0,0.0,210.0,0.0,0.0
4773,74.0,120.0,90.0,4.0,0.0
4774,79.0,0.0,210.0,0.0,0.0
4775,71.0,20.0,210.0,3.0,0.0
4776,43.0,0.0,210.0,7.0,0.0
4777,55.0,0.0,210.0,6.0,0.0
4778,83.0,0.0,210.0,0.0,0.0
4779,79.0,0.0,210.0,3.0,0.0
4780,71.0,0.0,210.0,1.0,0.0
4781,79.0,100.0,90.0,4.0,0.0
4782,67.0,0.0,210.0,1.0,0.0
4783,67.0,0.0,210.0,5.0,0.0
4784,74.0,120.0,90.0,4.0,0.0
4785,71.0,0.0,210.0,3.0,0.0
4786,67.0,0.0,210.0,1.0,0.0
4787,71.0,0.0,210.0,1.0,0.0
4788,79.0,0.0,210.0,0.0,0.0
4789,83.0,0.0,210.0,0.0,0.0
4790,43.0,20.0,210.0,7.0,0.0
4791,79.0,0.0,210.0,3.0,0.0
4792,79.0,100.0,90.0,4.0,0.0
4793,67.0,0.0,210.0,5.0,0.0
4794,55.0,0.0,210.0,6.0,0.0
4795,74.0,120.0,90.0,4.0,0.0
4796,62.0,0.0,210.0,1.0,0.0
4797,69.0,20.0,210.0,1.0,0.0
4798,78.0,100.0,90.0,4.0,0.0
4799,50.0,0.0,210.0,6.0,0.0
4800,38.0,0.0,210.0,7.0,0.0
4801,78.0,0.0,210.0,0.0,0.0
4802,81.0,0.0,210.0,3.0,0.0
4803,74.0,0.0,210.0,3.0,0.0
4804,62.0,0.0,210.0,5.0,0.0
4805,81.0,0.0,210.0,0.0,0.0
4806,74.0,120.0,90.0,4.0,0.0
4807,78.0,0.0,210.0,0.0,0.0
4808,62.0,0.0,210.0,5.0,0.0
4809,81.0,0.0,210.0,0.0,0.0
4810,62.0,0.0,210.0,1.0,0.0
4811,78.0,100.0,90.0,4.0,0.0
4812,50.0,20.0,210.0,6.0,0.0
4813,81.0,0.0,210.0,3.0,0.0
4814,74.0,0.0,210.0,3.0,0.0
4815,69.0,0.0,210.0,1.0,0.0
4816,38.0,0.0,210.0,7.0,0.0
4817,74.0,420.0,90.0,4.0,0.0
4818,67.0,0.0,390.0,5.0,0.0
4819,55.0,0.0,390.0,6.0,0.0
4820,71.0,480.0,390.0,3.0,0.0
4821,67.0,0.0,390.0,1.0,0.0
4822,79.0,0.0,390.0,4.0,0.0
4823,43.0,0.0,390.0,7.0,0.0
4824,79.0,0.0,390.0,3.0,0.0
4825,59.0,0.0,390.0,1.0,0.0
4826,79.0,0.0,390.0,0.0,0.0
4827,71.0,0.0,390.0,0.0,0.0
4828,62.0,480.0,390.0,2.0,0.0
4829,67.0,480.0,390.0,2.0,0.0
4830,71.0,480.0,390.0,2.0,0.0
4831,53.0,40.0,390.0,6.0,0.0
4832,74.0,200.0,1200.0,2.0,0.0
4833,41.0,0.0,390.0,7.0,0.0
4834,69.0,0.0,210.0,3.0,0.0
4835,62.0,240.0,210.0,4.0,0.0
4836,57.0,0.0,210.0,5.0,0.0
4837,62.0,0.0,210.0,4.0,0.0
4838,69.0,240.0,210.0,3.0,0.0
4839,57.0,0.0,210.0,5.0,0.0
4840,69.0,240.0,210.0,3.0,0.0
4841,62.0,0.0,210.0,4.0,0.0
4842,57.0,0.0,210.0,5.0,0.0
4843,69.0,40.0,210.0,3.0,0.0
4844,57.0,0.0,210.0,5.0,0.0
4845,62.0,0.0,210.0,4.0,0.0
4846,57.0,0.0,210.0,5.0,0.0
4847,69.0,40.0,210.0,3.0,0.0
4848,72.0,200.0,240.0,2.0,0.0
4849,62.0,0.0,210.0,4.0,0.0
4850,71.0,200.0,240.0,2.0,0.0
4851,69.0,0.0,210.0,3.0,0.0
4852,62.0,40.0,210.0,4.0,0.0
4853,57.0,0.0,210.0,5.0,0.0
4854,62.0,40.0,210.0,4.0,0.0
4855,57.0,0.0,210.0,5.0,0.0
4856,69.0,0.0,210.0,3.0,0.0
4857,69.0,240.0,15.0,2.0,0.0
4858,40.0,0.0,390.0,7.0,0.0
4859,52.0,40.0,390.0,6.0,0.0
4860,68.0,200.0,240.0,2.0,0.0
4861,74.0,0.0,210.0,3.0,0.0
4862,71.0,0.0,210.0,4.0,0.0
4863,64.0,40.0,210.0,5.0,0.0
4864,71.0,0.0,210.0,4.0,0.0
4865,74.0,0.0,210.0,3.0,0.0
4866,64.0,240.0,210.0,5.0,0.0
4867,68.0,110.0,810.0,2.0,0.0
4868,71.0,0.0,210.0,4.0,0.0
4869,64.0,240.0,210.0,5.0,0.0
4870,74.0,0.0,210.0,3.0,0.0
4871,64.0,130.0,210.0,5.0,0.0
4872,71.0,0.0,210.0,4.0,0.0
4873,74.0,0.0,210.0,3.0,0.0
4874,74.0,0.0,210.0,3.0,0.0
4875,64.0,0.0,210.0,5.0,0.0
4876,71.0,240.0,210.0,4.0,0.0
4877,64.0,0.0,210.0,5.0,0.0
4878,74.0,0.0,210.0,3.0,0.0
4879,68.0,200.0,210.0,4.0,0.0
4880,71.0,40.0,390.0,2.0,0.0
4881,64.0,0.0,210.0,5.0,0.0
4882,68.0,440.0,210.0,4.0,0.0
4883,74.0,0.0,210.0,3.0,0.0
4884,72.0,200.0,1200.0,2.0,0.0
4885,51.0,40.0,390.0,6.0,0.0
4886,39.0,0.0,390.0,7.0,0.0
4887,67.0,0.0,210.0,3.0,0.0
4888,55.0,0.0,210.0,5.0,0.0
4889,60.0,240.0,210.0,4.0,0.0
4890,67.0,0.0,210.0,3.0,0.0
4891,55.0,0.0,210.0,5.0,0.0
4892,60.0,240.0,210.0,4.0,0.0
4893,55.0,240.0,210.0,5.0,0.0
4894,67.0,0.0,210.0,3.0,0.0
4895,60.0,0.0,210.0,4.0,0.0
4896,55.0,40.0,210.0,5.0,0.0
4897,60.0,0.0,210.0,4.0,0.0
4898,67.0,0.0,210.0,3.0,0.0
4899,70.0,200.0,240.0,2.0,0.0
4900,55.0,0.0,210.0,5.0,0.0
4901,67.0,40.0,210.0,3.0,0.0
4902,60.0,0.0,210.0,4.0,0.0
4903,69.0,200.0,240.0,2.0,0.0
4904,67.0,40.0,210.0,3.0,0.0
4905,55.0,0.0,210.0,5.0,0.0
4906,60.0,0.0,210.0,4.0,0.0
4907,55.0,40.0,210.0,5.0,0.0
4908,60.0,0.0,210.0,4.0,0.0
4909,67.0,0.0,210.0,3.0,0.0
4910,67.0,240.0,15.0,2.0,0.0
4911,50.0,0.0,390.0,6.0,0.0
4912,38.0,40.0,390.0,7.0,0.0
4913,62.0,0.0,210.0,5.0,0.0
4914,69.0,0.0,210.0,4.0,0.0
4915,72.0,40.0,210.0,3.0,0.0
4916,66.0,200.0,240.0,2.0,0.0
4917,69.0,0.0,210.0,4.0,0.0
4918,66.0,70.0,600.0,2.0,0.0
4919,62.0,240.0,210.0,5.0,0.0
4920,72.0,0.0,210.0,3.0,0.0
4921,62.0,0.0,210.0,5.0,0.0
4922,69.0,0.0,210.0,4.0,0.0
4923,72.0,170.0,210.0,3.0,0.0
4924,69.0,240.0,210.0,4.0,0.0
4925,72.0,0.0,210.0,3.0,0.0
4926,62.0,0.0,210.0,5.0,0.0
4927,72.0,0.0,240.0,3.0,0.0
4928,62.0,40.0,210.0,2.0,0.0
4929,62.0,0.0,480.0,5.0,0.0
4930,69.0,200.0,240.0,4.0,0.0
4931,62.0,40.0,210.0,2.0,0.0
4932,71.0,0.0,240.0,3.0,0.0
4933,67.0,200.0,240.0,4.0,0.0
4934,69.0,0.0,240.0,3.0,0.0
4935,62.0,40.0,210.0,2.0,0.0
4936,60.0,200.0,240.0,5.0,0.0
4937,66.0,0.0,240.0,4.0,0.0
4938,67.0,240.0,210.0,2.0,0.0
4939,40.0,0.0,210.0,7.0,0.0
4940,52.0,0.0,210.0,6.0,0.0
4941,67.0,0.0,210.0,4.0,0.0
4942,67.0,240.0,210.0,3.0,0.0
4943,59.0,0.0,210.0,5.0,0.0
4944,69.0,0.0,210.0,2.0,0.0
4945,42.0,0.0,210.0,7.0,0.0
4946,54.0,240.0,210.0,6.0,0.0
4947,69.0,0.0,210.0,3.0,0.0
4948,62.0,0.0,210.0,5.0,0.0
4949,60.0,240.0,210.0,4.0,0.0
4950,71.0,240.0,210.0,2.0,0.0
4951,55.0,0.0,210.0,6.0,0.0
4952,43.0,0.0,210.0,7.0,0.0
4953,71.0,0.0,210.0,3.0,0.0
4954,62.0,0.0,210.0,5.0,0.0
4955,59.0,240.0,210.0,4.0,0.0
4956,40.0,0.0,210.0,7.0,0.0
4957,73.0,240.0,210.0,2.0,0.0
4958,52.0,0.0,210.0,6.0,0.0
4959,73.0,0.0,210.0,3.0,0.0
4960,67.0,0.0,210.0,4.0,0.0
4961,55.0,240.0,210.0,5.0,0.0
4962,74.0,0.0,210.0,3.0,0.0
4963,66.0,0.0,210.0,4.0,0.0
4964,38.0,0.0,210.0,7.0,0.0
4965,74.0,40.0,390.0,2.0,0.0
4966,50.0,0.0,210.0,6.0,0.0
4967,57.0,200.0,210.0,5.0,0.0
4968,62.0,0.0,210.0,6.0,0.0
4969,86.0,0.0,210.0,4.0,0.0
4970,50.0,0.0,210.0,7.0,0.0
4971,62.0,0.0,210.0,1.0,0.0
4972,74.0,240.0,210.0,5.0,0.0
4973,86.0,0.0,210.0,0.0,0.0
4974,86.0,0.0,210.0,3.0,0.0
4975,86.0,0.0,210.0,3.0,0.0
4976,50.0,240.0,210.0,7.0,0.0
4977,86.0,0.0,210.0,4.0,0.0
4978,62.0,0.0,210.0,1.0,0.0
4979,74.0,0.0,210.0,5.0,0.0
4980,62.0,0.0,210.0,6.0,0.0
4981,86.0,0.0,210.0,0.0,0.0
4982,86.0,240.0,210.0,3.0,0.0
4983,50.0,0.0,210.0,7.0,0.0
4984,62.0,0.0,210.0,1.0,0.0
4985,62.0,0.0,210.0,6.0,0.0
4986,86.0,0.0,210.0,0.0,0.0
4987,86.0,0.0,210.0,4.0,0.0
4988,74.0,0.0,210.0,5.0,0.0
4989,45.0,0.0,210.0,7.0,0.0
4990,81.0,0.0,210.0,4.0,0.0
4991,57.0,0.0,210.0,6.0,0.0
4992,81.0,0.0,210.0,0.0,0.0
4993,62.0,40.0,390.0,1.0,0.0
4994,69.0,200.0,210.0,5.0,0.0
4995,81.0,0.0,210.0,3.0,0.0
4996,74.0,0.0,210.0,5.0,0.0
4997,50.0,0.0,210.0,7.0,0.0
4998,86.0,0.0,210.0,4.0,0.0
4999,86.0,240.0,210.0,3.0,0.0
5000,86.0,0.0,210.0,0.0,0.0
5001,62.0,0.0,210.0,6.0,0.0
5002,78.0,0.0,210.0,0.0,0.0
5003,66.0,0.0,210.0,5.0,0.0
5004,78.0,200.0,210.0,4.0,0.0
5005,54.0,0.0,210.0,6.0,0.0
5006,42.0,0.0,210.0,7.0,0.0
5007,62.0,40.0,390.0,1.0,0.0
5008,78.0,0.0,210.0,3.0,0.0
5009,69.0,0.0,210.0,5.0,0.0
5010,81.0,0.0,210.0,0.0,0.0
5011,57.0,240.0,210.0,6.0,0.0
5012,81.0,0.0,210.0,4.0,0.0
5013,81.0,0.0,210.0,3.0,0.0
5014,45.0,0.0,210.0,7.0,0.0
5015,38.0,0.0,390.0,7.0,0.0
5016,74.0,80.0,390.0,0.0,0.0
5017,74.0,40.0,210.0,4.0,0.0
5018,74.0,0.0,210.0,3.0,0.0
5019,62.0,160.0,240.0,5.0,0.0
5020,50.0,0.0,390.0,6.0,0.0
5021,62.0,50.0,1620.0,1.0,0.0
5022,50.0,0.0,1620.0,1.0,0.0
5023,61.0,240.0,240.0,5.0,0.0
5024,62.0,0.0,240.0,5.0,0.0
5025,62.0,240.0,240.0,3.0,0.0
5026,64.0,0.0,240.0,3.0,0.0
5027,61.0,240.0,240.0,5.0,0.0
5028,66.0,240.0,240.0,3.0,0.0
5029,60.0,0.0,240.0,5.0,0.0
5030,62.0,0.0,240.0,4.0,0.0
5031,67.0,0.0,240.0,3.0,0.0
5032,59.0,0.0,240.0,5.0,0.0
5033,64.0,190.0,240.0,4.0,0.0
5034,74.0,80.0,390.0,2.0,0.0
5035,57.0,0.0,240.0,5.0,0.0
5036,66.0,160.0,240.0,4.0,0.0
5037,69.0,0.0,240.0,3.0,0.0
5038,71.0,120.0,240.0,3.0,0.0
5039,67.0,0.0,240.0,4.0,0.0
5040,55.0,0.0,240.0,5.0,0.0
5041,50.0,0.0,390.0,6.0,0.0
5042,38.0,0.0,390.0,7.0,0.0
5043,72.0,120.0,120.0,2.0,0.0
5044,54.0,20.0,390.0,5.0,0.0
5045,72.0,0.0,390.0,3.0,0.0
5046,69.0,0.0,390.0,4.0,0.0
5047,74.0,60.0,120.0,2.0,0.0
5048,71.0,100.0,60.0,2.0,0.0
5049,72.0,180.0,60.0,2.0,0.0
5050,69.0,120.0,120.0,2.0,0.0
5051,71.0,60.0,120.0,2.0,0.0
5052,67.0,120.0,60.0,2.0,0.0
5053,69.0,460.0,60.0,2.0,0.0
5054,66.0,40.0,390.0,2.0,0.0
5055,78.0,0.0,210.0,4.0,0.0
5056,72.0,240.0,210.0,5.0,0.0
5057,62.0,0.0,210.0,6.0,0.0
5058,50.0,0.0,210.0,7.0,0.0
5059,81.0,0.0,210.0,3.0,0.0
5060,81.0,0.0,210.0,4.0,0.0
5061,42.0,0.0,210.0,7.0,0.0
5062,62.0,0.0,210.0,5.0,0.0
5063,84.0,240.0,210.0,3.0,0.0
5064,54.0,0.0,210.0,6.0,0.0
5065,78.0,0.0,210.0,4.0,0.0
5066,81.0,0.0,210.0,3.0,0.0
5067,45.0,0.0,210.0,7.0,0.0
5068,57.0,0.0,210.0,6.0,0.0
5069,72.0,160.0,210.0,5.0,0.0
5070,81.0,0.0,210.0,4.0,0.0
5071,38.0,10.0,1620.0,7.0,0.0
5072,84.0,0.0,210.0,3.0,0.0
5073,50.0,0.0,1620.0,6.0,0.0
5074,66.0,80.0,120.0,2.0,0.0
5075,66.0,40.0,210.0,5.0,0.0
5076,67.0,120.0,120.0,2.0,0.0
5077,66.0,100.0,120.0,2.0,0.0
5078,67.0,140.0,90.0,2.0,0.0
5079,69.0,80.0,120.0,2.0,0.0
5080,78.0,40.0,210.0,4.0,0.0
5081,81.0,0.0,210.0,3.0,0.0
5082,72.0,0.0,210.0,5.0,0.0
5083,71.0,120.0,120.0,2.0,0.0
5084,69.0,120.0,120.0,2.0,0.0
5085,71.0,120.0,120.0,2.0,0.0
5086,78.0,40.0,210.0,3.0,0.0
5087,72.0,80.0,120.0,2.0,0.0
5088,69.0,0.0,210.0,5.0,0.0
5089,72.0,0.0,210.0,4.0,0.0
5090,71.0,120.0,120.0,2.0,0.0
5091,72.0,120.0,120.0,2.0,0.0
5092,71.0,120.0,120.0,2.0,0.0
5093,69.0,40.0,210.0,4.0,0.0
5094,66.0,0.0,210.0,5.0,0.0
5095,72.0,0.0,210.0,3.0,0.0
5096,74.0,70.0,120.0,2.0,0.0
5097,72.0,120.0,120.0,2.0,0.0
5098,71.0,120.0,120.0,2.0,0.0
5099,69.0,400.0,120.0,2.0,0.0
5100,43.0,0.0,390.0,7.0,0.0
5101,55.0,0.0,390.0,6.0,0.0
5102,71.0,40.0,390.0,2.0,0.0
5103,71.0,240.0,210.0,3.0,0.0
5104,67.0,0.0,210.0,4.0,0.0
5105,62.0,0.0,210.0,5.0,0.0
5106,62.0,0.0,210.0,5.0,0.0
5107,67.0,0.0,210.0,4.0,0.0
5108,71.0,240.0,210.0,3.0,0.0
5109,62.0,0.0,210.0,5.0,0.0
5110,67.0,0.0,210.0,4.0,0.0
5111,71.0,440.0,210.0,3.0,0.0
5112,47.0,0.0,390.0,7.0,0.0
5113,67.0,110.0,810.0,2.0,0.0
5114,59.0,40.0,390.0,6.0,0.0
5115,55.0,240.0,210.0,5.0,0.0
5116,67.0,0.0,210.0,3.0,0.0
5117,62.0,0.0,210.0,4.0,0.0
5118,55.0,0.0,210.0,5.0,0.0
5119,67.0,0.0,210.0,3.0,0.0
5120,62.0,130.0,210.0,4.0,0.0
5121,67.0,0.0,210.0,3.0,0.0
5122,55.0,0.0,210.0,5.0,0.0
5123,62.0,440.0,210.0,4.0,0.0
5124,45.0,0.0,390.0,7.0,0.0
5125,57.0,40.0,390.0,6.0,0.0
5126,66.0,110.0,810.0,2.0,0.0
5127,62.0,0.0,210.0,5.0,0.0
5128,60.0,0.0,210.0,4.0,0.0
5129,66.0,240.0,210.0,3.0,0.0
5130,66.0,0.0,210.0,3.0,0.0
5131,60.0,0.0,210.0,4.0,0.0
5132,62.0,130.0,210.0,5.0,0.0
5133,66.0,440.0,210.0,3.0,0.0
5134,60.0,0.0,210.0,4.0,0.0
5135,62.0,0.0,210.0,5.0,0.0
5136,72.0,110.0,810.0,2.0,0.0
5137,42.0,0.0,390.0,7.0,0.0
5138,54.0,40.0,390.0,6.0,0.0
5139,62.0,240.0,210.0,5.0,0.0
5140,72.0,0.0,210.0,3.0,0.0
5141,69.0,0.0,210.0,4.0,0.0
5142,72.0,0.0,210.0,3.0,0.0
5143,69.0,130.0,210.0,4.0,0.0
5144,62.0,0.0,210.0,5.0,0.0
5145,62.0,0.0,210.0,5.0,0.0
5146,69.0,0.0,210.0,4.0,0.0
5147,72.0,440.0,210.0,3.0,0.0
5148,43.0,40.0,390.0,7.0,0.0
5149,71.0,110.0,810.0,2.0,0.0
5150,55.0,0.0,390.0,6.0,0.0
5151,62.0,0.0,210.0,5.0,0.0
5152,71.0,0.0,210.0,3.0,0.0
5153,67.0,240.0,210.0,4.0,0.0
5154,71.0,0.0,210.0,3.0,0.0
5155,62.0,0.0,210.0,5.0,0.0
5156,67.0,130.0,210.0,4.0,0.0
5157,71.0,0.0,210.0,3.0,0.0
5158,67.0,440.0,210.0,4.0,0.0
5159,62.0,0.0,210.0,5.0,0.0
5160,35.0,40.0,390.0,7.0,0.0
5161,65.0,110.0,810.0,2.0,0.0
5162,47.0,0.0,390.0,6.0,0.0
5163,77.0,240.0,210.0,3.0,0.0
5164,67.0,0.0,210.0,5.0,0.0
5165,74.0,0.0,210.0,4.0,0.0
5166,67.0,130.0,210.0,5.0,0.0
5167,74.0,0.0,210.0,4.0,0.0
5168,77.0,0.0,210.0,3.0,0.0
5169,77.0,0.0,210.0,3.0,0.0
5170,74.0,0.0,210.0,4.0,0.0
5171,67.0,240.0,210.0,5.0,0.0
5172,72.0,80.0,390.0,4.0,0.0
5173,36.0,0.0,390.0,7.0,0.0
5174,64.0,200.0,210.0,2.0,0.0
5175,67.0,0.0,390.0,5.0,0.0
5176,76.0,50.0,1620.0,3.0,0.0
5177,48.0,0.0,390.0,6.0,0.0
5178,66.0,240.0,240.0,2.0,0.0
5179,67.0,240.0,240.0,2.0,0.0
5180,64.0,150.0,810.0,4.0,0.0
5181,68.0,240.0,240.0,2.0,0.0
5182,69.0,90.0,240.0,2.0,0.0
5183,71.0,190.0,240.0,2.0,0.0
5184,69.0,40.0,390.0,4.0,0.0
5185,72.0,160.0,240.0,2.0,0.0
5186,73.0,280.0,210.0,2.0,0.0
5187,38.0,0.0,390.0,7.0,0.0
5188,50.0,80.0,390.0,6.0,0.0
5189,62.0,200.0,1170.0,5.0,0.0
5190,74.0,0.0,240.0,2.0,0.0
5191,71.0,0.0,240.0,4.0,0.0
5192,74.0,160.0,240.0,3.0,0.0
5193,79.0,0.0,240.0,3.0,0.0
5194,71.0,0.0,240.0,2.0,0.0
5195,74.0,400.0,240.0,4.0,0.0
5196,38.0,0.0,390.0,7.0,0.0
5197,50.0,210.0,390.0,6.0,0.0
5198,71.0,0.0,600.0,3.0,0.0
5199,67.0,70.0,600.0,4.0,0.0
5200,67.0,0.0,600.0,2.0,0.0
5201,50.0,80.0,390.0,6.0,0.0
5202,38.0,0.0,390.0,7.0,0.0
5203,71.0,240.0,240.0,2.0,0.0
5204,71.0,0.0,240.0,4.0,0.0
5205,74.0,0.0,240.0,3.0,0.0
5206,59.0,0.0,240.0,5.0,0.0
5207,38.0,0.0,390.0,7.0,0.0
5208,72.0,0.0,240.0,3.0,0.0
5209,69.0,0.0,240.0,4.0,0.0
5210,50.0,80.0,390.0,6.0,0.0
5211,62.0,0.0,240.0,5.0,0.0
5212,69.0,160.0,240.0,2.0,0.0
5213,69.0,0.0,240.0,3.0,0.0
5214,60.0,0.0,240.0,5.0,0.0
5215,66.0,0.0,240.0,2.0,0.0
5216,66.0,200.0,240.0,4.0,0.0
5217,71.0,150.0,810.0,3.0,0.0
5218,43.0,200.0,960.0,7.0,0.0
5219,67.0,80.0,390.0,2.0,0.0
5220,59.0,200.0,480.0,5.0,0.0
5221,55.0,0.0,960.0,6.0,0.0
5222,67.0,200.0,210.0,4.0,0.0
5223,62.0,130.0,450.0,4.0,0.0
5224,55.0,0.0,480.0,5.0,0.0
5225,62.0,40.0,450.0,4.0,0.0
5226,57.0,0.0,480.0,6.0,0.0
5227,45.0,200.0,480.0,7.0,0.0
5228,72.0,240.0,240.0,3.0,0.0
5229,54.0,0.0,480.0,5.0,0.0
5230,62.0,40.0,450.0,4.0,0.0
5231,69.0,0.0,240.0,3.0,0.0
5232,67.0,160.0,240.0,3.0,0.0
5233,57.0,0.0,480.0,5.0,0.0
5234,48.0,80.0,390.0,7.0,0.0
5235,60.0,0.0,390.0,6.0,0.0
5236,62.0,40.0,450.0,4.0,0.0
5237,66.0,200.0,240.0,3.0,0.0
5238,59.0,0.0,480.0,6.0,0.0
5239,47.0,240.0,480.0,7.0,0.0
5240,55.0,80.0,390.0,5.0,0.0
5241,67.0,160.0,240.0,3.0,0.0
5242,67.0,0.0,240.0,4.0,0.0
5243,71.0,0.0,240.0,3.0,0.0
5244,71.0,240.0,240.0,4.0,0.0
5245,74.0,0.0,720.0,3.0,0.0
5246,43.0,0.0,480.0,7.0,0.0
5247,55.0,0.0,480.0,6.0,0.0
5248,59.0,240.0,240.0,5.0,0.0
5249,67.0,0.0,240.0,4.0,0.0
5250,42.0,0.0,480.0,7.0,0.0
5251,54.0,0.0,480.0,6.0,0.0
5252,57.0,0.0,480.0,5.0,0.0
5253,72.0,240.0,240.0,4.0,0.0
5254,69.0,240.0,240.0,4.0,0.0
5255,76.0,0.0,240.0,3.0,0.0
5256,38.0,0.0,480.0,7.0,0.0
5257,69.0,240.0,240.0,3.0,0.0
5258,50.0,200.0,480.0,6.0,0.0
5259,66.0,0.0,240.0,4.0,0.0
5260,72.0,0.0,240.0,3.0,0.0
5261,66.0,0.0,240.0,5.0,0.0
5262,69.0,0.0,240.0,4.0,0.0
5263,62.0,0.0,3540.0,1.0,0.0
5264,67.0,0.0,480.0,5.0,0.0
5265,71.0,0.0,810.0,2.0,0.0
5266,71.0,0.0,810.0,3.0,0.0
5267,67.0,280.0,210.0,4.0,0.0
5268,43.0,0.0,480.0,7.0,0.0
5269,50.0,50.0,3540.0,1.0,0.0
5270,74.0,0.0,2400.0,0.0,0.0
5271,83.0,150.0,810.0,0.0,0.0
5272,55.0,200.0,480.0,6.0,0.0
5273,62.0,130.0,450.0,4.0,0.0
5274,44.0,0.0,480.0,7.0,0.0
5275,56.0,200.0,480.0,6.0,0.0
5276,62.0,40.0,450.0,4.0,0.0
5277,72.0,0.0,240.0,3.0,0.0
5278,72.0,240.0,240.0,2.0,0.0
5279,45.0,0.0,480.0,7.0,0.0
5280,54.0,0.0,480.0,5.0,0.0
5281,84.0,0.0,240.0,0.0,0.0
5282,57.0,0.0,480.0,6.0,0.0
5283,81.0,200.0,240.0,0.0,0.0
5284,62.0,40.0,450.0,4.0,0.0
5285,69.0,0.0,240.0,3.0,0.0
5286,69.0,0.0,240.0,2.0,0.0
5287,60.0,200.0,480.0,6.0,0.0
5288,67.0,240.0,240.0,3.0,0.0
5289,57.0,0.0,480.0,5.0,0.0
5290,48.0,0.0,480.0,7.0,0.0
5291,79.0,0.0,240.0,0.0,0.0
5292,67.0,0.0,240.0,2.0,0.0
5293,78.0,0.0,240.0,0.0,0.0
5294,66.0,0.0,240.0,2.0,0.0
5295,66.0,0.0,240.0,3.0,0.0
5296,62.0,40.0,450.0,4.0,0.0
5297,79.0,160.0,240.0,0.0,0.0
5298,59.0,0.0,480.0,6.0,0.0
5299,55.0,80.0,390.0,5.0,0.0
5300,67.0,0.0,240.0,3.0,0.0
5301,67.0,0.0,240.0,2.0,0.0
5302,47.0,0.0,480.0,7.0,0.0
5303,67.0,0.0,240.0,4.0,0.0
5304,71.0,240.0,240.0,2.0,0.0
5305,71.0,0.0,240.0,3.0,0.0
5306,86.0,0.0,720.0,0.0,0.0
5307,55.0,0.0,480.0,6.0,0.0
5308,83.0,0.0,15.0,0.0,0.0
5309,74.0,0.0,720.0,3.0,0.0
5310,43.0,0.0,480.0,7.0,0.0
5311,71.0,240.0,240.0,4.0,0.0
5312,74.0,110.0,600.0,2.0,0.0
5313,67.0,0.0,240.0,4.0,0.0
5314,59.0,130.0,240.0,5.0,0.0
5315,81.0,0.0,480.0,0.0,0.0
5316,54.0,0.0,480.0,6.0,0.0
5317,42.0,0.0,480.0,7.0,0.0
5318,72.0,240.0,240.0,4.0,0.0
5319,57.0,0.0,480.0,5.0,0.0
5320,76.0,0.0,240.0,2.0,0.0
5321,69.0,0.0,240.0,4.0,0.0
5322,88.0,0.0,240.0,0.0,0.0
5323,76.0,190.0,240.0,3.0,0.0
5324,81.0,200.0,240.0,0.0,0.0
5325,78.0,0.0,240.0,0.0,0.0
5326,50.0,0.0,480.0,6.0,0.0
5327,66.0,0.0,240.0,4.0,0.0
5328,69.0,0.0,240.0,3.0,0.0
5329,69.0,0.0,240.0,2.0,0.0
5330,38.0,100.0,480.0,7.0,0.0
5331,69.0,0.0,240.0,4.0,0.0
5332,84.0,0.0,240.0,0.0,0.0
5333,72.0,0.0,240.0,2.0,0.0
5334,66.0,0.0,240.0,5.0,0.0
5335,72.0,40.0,210.0,3.0,0.0
5336,67.0,0.0,390.0,4.0,0.0
5337,47.0,0.0,390.0,7.0,0.0
5338,59.0,40.0,390.0,6.0,0.0
5339,83.0,0.0,390.0,0.0,0.0
5340,62.0,100.0,480.0,5.0,0.0
5341,79.0,0.0,390.0,0.0,0.0
5342,71.0,100.0,90.0,2.0,0.0
5343,71.0,20.0,210.0,3.0,0.0
5344,67.0,120.0,90.0,2.0,0.0
5345,69.0,60.0,90.0,2.0,0.0
5346,79.0,20.0,210.0,3.0,0.0
5347,71.0,20.0,90.0,2.0,0.0
5348,72.0,120.0,90.0,2.0,0.0
5349,74.0,120.0,90.0,2.0,0.0
5350,76.0,120.0,90.0,2.0,0.0
5351,78.0,420.0,90.0,2.0,0.0
5352,79.0,40.0,390.0,2.0,0.0
5353,47.0,0.0,210.0,7.0,0.0
5354,79.0,0.0,210.0,3.0,0.0
5355,74.0,0.0,210.0,4.0,0.0
5356,67.0,0.0,210.0,5.0,0.0
5357,59.0,240.0,210.0,6.0,0.0
5358,79.0,240.0,210.0,3.0,0.0
5359,67.0,0.0,210.0,5.0,0.0
5360,59.0,0.0,210.0,6.0,0.0
5361,47.0,0.0,210.0,7.0,0.0
5362,74.0,0.0,210.0,4.0,0.0
5363,74.0,0.0,210.0,4.0,0.0
5364,79.0,0.0,210.0,3.0,0.0
5365,59.0,0.0,210.0,6.0,0.0
5366,67.0,0.0,210.0,5.0,0.0
5367,47.0,240.0,210.0,7.0,0.0
5368,48.0,0.0,390.0,7.0,0.0
5369,76.0,60.0,390.0,3.0,0.0
5370,72.0,0.0,390.0,4.0,0.0
5371,64.0,140.0,210.0,2.0,0.0
5372,67.0,0.0,390.0,5.0,0.0
5373,60.0,0.0,390.0,6.0,0.0
5374,66.0,60.0,90.0,2.0,0.0
5375,67.0,120.0,90.0,2.0,0.0
5376,69.0,120.0,90.0,2.0,0.0
5377,71.0,120.0,90.0,2.0,0.0
5378,72.0,120.0,90.0,2.0,0.0
5379,74.0,420.0,90.0,2.0,0.0
5380,76.0,40.0,390.0,2.0,0.0
5381,60.0,0.0,210.0,6.0,0.0
5382,67.0,240.0,210.0,5.0,0.0
5383,76.0,0.0,210.0,3.0,0.0
5384,69.0,0.0,210.0,4.0,0.0
5385,48.0,0.0,210.0,7.0,0.0
5386,48.0,0.0,210.0,7.0,0.0
5387,60.0,0.0,210.0,6.0,0.0
5388,69.0,240.0,210.0,4.0,0.0
5389,76.0,0.0,210.0,3.0,0.0
5390,67.0,0.0,210.0,5.0,0.0
5391,67.0,140.0,210.0,5.0,0.0
5392,76.0,0.0,210.0,3.0,0.0
5393,60.0,0.0,210.0,6.0,0.0
5394,69.0,0.0,210.0,4.0,0.0
5395,48.0,0.0,210.0,7.0,0.0
5396,62.0,10.0,3540.0,1.0,0.0
5397,50.0,0.0,210.0,7.0,0.0
5398,71.0,100.0,90.0,4.0,0.0
5399,74.0,0.0,90.0,3.0,0.0
5400,67.0,0.0,90.0,5.0,0.0
5401,62.0,20.0,210.0,6.0,0.0
5402,62.0,40.0,390.0,2.0,0.0
5403,50.0,0.0,3540.0,1.0,0.0
5404,67.0,0.0,90.0,5.0,0.0
5405,74.0,120.0,90.0,3.0,0.0
5406,71.0,0.0,90.0,4.0,0.0
5407,67.0,0.0,90.0,5.0,0.0
5408,74.0,0.0,90.0,3.0,0.0
5409,62.0,0.0,210.0,6.0,0.0
5410,50.0,20.0,210.0,7.0,0.0
5411,71.0,60.0,90.0,4.0,0.0
5412,67.0,0.0,90.0,5.0,0.0
5413,71.0,0.0,90.0,4.0,0.0
5414,74.0,120.0,90.0,3.0,0.0
5415,62.0,0.0,210.0,6.0,0.0
5416,74.0,0.0,90.0,3.0,0.0
5417,50.0,20.0,210.0,7.0,0.0
5418,71.0,100.0,90.0,4.0,0.0
5419,67.0,0.0,90.0,5.0,0.0
5420,74.0,10.0,810.0,2.0,0.0
5421,74.0,0.0,90.0,3.0,0.0
5422,67.0,0.0,90.0,5.0,0.0
5423,71.0,120.0,90.0,4.0,0.0
5424,74.0,0.0,90.0,3.0,0.0
5425,71.0,100.0,90.0,4.0,0.0
5426,62.0,0.0,210.0,6.0,0.0
5427,50.0,20.0,210.0,7.0,0.0
5428,67.0,0.0,90.0,5.0,0.0
5429,71.0,120.0,90.0,4.0,0.0
5430,67.0,0.0,90.0,5.0,0.0
5431,74.0,0.0,90.0,3.0,0.0
5432,62.0,20.0,210.0,6.0,0.0
5433,59.0,0.0,90.0,4.0,0.0
5434,50.0,0.0,210.0,7.0,0.0
5435,62.0,0.0,90.0,5.0,0.0
5436,83.0,10.0,810.0,0.0,0.0
5437,79.0,0.0,810.0,0.0,0.0
5438,67.0,100.0,90.0,3.0,0.0
5439,59.0,0.0,90.0,4.0,0.0
5440,62.0,0.0,90.0,5.0,0.0
5441,67.0,110.0,90.0,3.0,0.0
5442,59.0,100.0,90.0,4.0,0.0
5443,67.0,0.0,90.0,3.0,0.0
5444,62.0,20.0,210.0,6.0,0.0
5445,62.0,0.0,90.0,5.0,0.0
5446,50.0,0.0,210.0,7.0,0.0
5447,62.0,120.0,90.0,5.0,0.0
5448,67.0,0.0,90.0,3.0,0.0
5449,59.0,0.0,90.0,4.0,0.0
5450,50.0,0.0,210.0,7.0,0.0
5451,67.0,0.0,90.0,3.0,0.0
5452,59.0,0.0,90.0,4.0,0.0
5453,62.0,100.0,90.0,5.0,0.0
5454,72.0,0.0,90.0,2.0,0.0
5455,62.0,20.0,210.0,6.0,0.0
5456,71.0,0.0,90.0,2.0,0.0
5457,67.0,110.0,90.0,3.0,0.0
5458,62.0,0.0,90.0,5.0,0.0
5459,59.0,0.0,90.0,4.0,0.0
5460,59.0,0.0,90.0,4.0,0.0
5461,69.0,0.0,90.0,2.0,0.0
5462,50.0,0.0,210.0,7.0,0.0
5463,62.0,0.0,90.0,5.0,0.0
5464,67.0,100.0,90.0,3.0,0.0
5465,62.0,20.0,210.0,6.0,0.0
5466,59.0,0.0,90.0,4.0,0.0
5467,67.0,0.0,90.0,2.0,0.0
5468,62.0,80.0,90.0,5.0,0.0
5469,67.0,0.0,90.0,3.0,0.0
5470,81.0,0.0,1620.0,0.0,0.0
5471,69.0,40.0,60.0,2.0,0.0
5472,50.0,0.0,210.0,6.0,0.0
5473,78.0,0.0,1620.0,0.0,0.0
5474,60.0,0.0,90.0,4.0,0.0
5475,66.0,0.0,90.0,3.0,0.0
5476,38.0,20.0,210.0,7.0,0.0
5477,57.0,20.0,90.0,5.0,0.0
5478,71.0,60.0,60.0,2.0,0.0
5479,69.0,20.0,60.0,2.0,0.0
5480,66.0,0.0,90.0,3.0,0.0
5481,60.0,0.0,90.0,4.0,0.0
5482,57.0,20.0,90.0,5.0,0.0
5483,71.0,60.0,60.0,2.0,0.0
5484,69.0,40.0,60.0,2.0,0.0
5485,57.0,0.0,90.0,5.0,0.0
5486,50.0,20.0,210.0,6.0,0.0
5487,38.0,0.0,210.0,7.0,0.0
5488,66.0,20.0,90.0,3.0,0.0
5489,60.0,0.0,90.0,4.0,0.0
5490,71.0,60.0,60.0,2.0,0.0
5491,66.0,0.0,90.0,3.0,0.0
5492,69.0,20.0,60.0,2.0,0.0
5493,57.0,20.0,90.0,5.0,0.0
5494,60.0,0.0,90.0,4.0,0.0
5495,71.0,60.0,60.0,2.0,0.0
5496,66.0,0.0,90.0,4.0,0.0
5497,38.0,0.0,210.0,7.0,0.0
5498,69.0,40.0,60.0,2.0,0.0
5499,69.0,20.0,90.0,3.0,0.0
5500,60.0,0.0,90.0,5.0,0.0
5501,50.0,20.0,210.0,6.0,0.0
5502,71.0,60.0,60.0,2.0,0.0
5503,60.0,0.0,90.0,5.0,0.0
5504,69.0,20.0,60.0,2.0,0.0
5505,69.0,20.0,90.0,3.0,0.0
5506,66.0,0.0,90.0,4.0,0.0
5507,71.0,60.0,60.0,2.0,0.0
5508,38.0,20.0,210.0,7.0,0.0
5509,50.0,0.0,210.0,6.0,0.0
5510,69.0,0.0,90.0,3.0,0.0
5511,69.0,40.0,60.0,2.0,0.0
5512,66.0,0.0,90.0,4.0,0.0
5513,60.0,20.0,90.0,5.0,0.0
5514,71.0,60.0,60.0,2.0,0.0
5515,69.0,0.0,90.0,3.0,0.0
5516,66.0,0.0,90.0,4.0,0.0
5517,69.0,20.0,60.0,2.0,0.0
5518,60.0,20.0,90.0,5.0,0.0
5519,71.0,60.0,60.0,2.0,0.0
5520,69.0,0.0,90.0,4.0,0.0
5521,50.0,20.0,210.0,6.0,0.0
5522,66.0,0.0,90.0,5.0,0.0
5523,72.0,20.0,90.0,3.0,0.0
5524,38.0,0.0,210.0,7.0,0.0
5525,69.0,40.0,60.0,2.0,0.0
5526,71.0,60.0,60.0,2.0,0.0
5527,69.0,20.0,60.0,2.0,0.0
5528,72.0,20.0,90.0,3.0,0.0
5529,69.0,0.0,90.0,4.0,0.0
5530,66.0,0.0,90.0,5.0,0.0
5531,71.0,60.0,60.0,2.0,0.0
5532,66.0,0.0,90.0,5.0,0.0
5533,72.0,20.0,90.0,3.0,0.0
5534,38.0,20.0,210.0,7.0,0.0
5535,69.0,0.0,90.0,4.0,0.0
5536,69.0,40.0,60.0,2.0,0.0
5537,50.0,0.0,210.0,6.0,0.0
5538,71.0,60.0,60.0,2.0,0.0
5539,69.0,20.0,60.0,2.0,0.0
5540,69.0,0.0,90.0,4.0,0.0
5541,66.0,20.0,90.0,5.0,0.0
5542,72.0,0.0,90.0,3.0,0.0
5543,71.0,60.0,60.0,2.0,0.0
5544,50.0,0.0,210.0,6.0,0.0
5545,69.0,20.0,90.0,5.0,0.0
5546,69.0,40.0,60.0,2.0,0.0
5547,78.0,0.0,90.0,3.0,0.0
5548,38.0,20.0,210.0,7.0,0.0
5549,72.0,0.0,90.0,4.0,0.0
5550,71.0,60.0,60.0,2.0,0.0
5551,69.0,20.0,90.0,5.0,0.0
5552,78.0,0.0,90.0,3.0,0.0
5553,69.0,10.0,60.0,2.0,0.0
5554,72.0,0.0,90.0,4.0,0.0
5555,71.0,60.0,60.0,2.0,0.0
5556,50.0,20.0,210.0,6.0,0.0
5557,69.0,40.0,60.0,2.0,0.0
5558,69.0,20.0,90.0,5.0,0.0
5559,78.0,0.0,90.0,3.0,0.0
5560,72.0,0.0,90.0,4.0,0.0
5561,38.0,0.0,210.0,7.0,0.0
5562,71.0,60.0,60.0,2.0,0.0
5563,67.0,20.0,60.0,2.0,0.0
5564,78.0,20.0,90.0,3.0,0.0
5565,72.0,0.0,90.0,4.0,0.0
5566,69.0,0.0,90.0,5.0,0.0
5567,69.0,100.0,60.0,2.0,0.0
5568,43.0,0.0,810.0,7.0,0.0
5569,55.0,0.0,390.0,1.0,0.0
5570,67.0,0.0,390.0,1.0,0.0
5571,67.0,60.0,390.0,2.0,0.0
5572,55.0,10.0,810.0,6.0,0.0
5573,67.0,0.0,810.0,5.0,0.0
5574,79.0,120.0,90.0,3.0,0.0
5575,79.0,0.0,390.0,0.0,0.0
5576,71.0,0.0,90.0,4.0,0.0
5577,83.0,120.0,90.0,3.0,0.0
5578,79.0,0.0,90.0,4.0,0.0
5579,83.0,0.0,90.0,3.0,0.0
5580,79.0,60.0,90.0,4.0,0.0
5581,79.0,0.0,90.0,4.0,0.0
5582,83.0,120.0,90.0,3.0,0.0
5583,79.0,60.0,390.0,0.0,0.0
5584,83.0,0.0,390.0,0.0,0.0
5585,79.0,120.0,90.0,4.0,0.0
5586,67.0,30.0,300.0,1.0,0.0
5587,83.0,0.0,90.0,3.0,0.0
5588,55.0,0.0,300.0,1.0,0.0
5589,83.0,80.0,90.0,3.0,0.0
5590,79.0,0.0,90.0,4.0,0.0
5591,83.0,60.0,90.0,3.0,0.0
5592,79.0,0.0,90.0,4.0,0.0
5593,79.0,120.0,90.0,4.0,0.0
5594,55.0,0.0,90.0,1.0,0.0
5595,67.0,0.0,90.0,1.0,0.0
5596,83.0,0.0,90.0,3.0,0.0
5597,83.0,0.0,90.0,3.0,0.0
5598,79.0,120.0,90.0,4.0,0.0
5599,67.0,0.0,3270.0,1.0,0.0
5600,55.0,60.0,3270.0,1.0,0.0
5601,79.0,0.0,3120.0,0.0,0.0
5602,79.0,0.0,90.0,4.0,0.0
5603,83.0,120.0,90.0,3.0,0.0
5604,67.0,0.0,210.0,5.0,0.0
5605,83.0,100.0,90.0,3.0,0.0
5606,43.0,0.0,210.0,7.0,0.0
5607,79.0,0.0,90.0,4.0,0.0
5608,55.0,20.0,210.0,6.0,0.0
5609,83.0,120.0,90.0,3.0,0.0
5610,79.0,0.0,90.0,4.0,0.0
5611,79.0,0.0,90.0,4.0,0.0
5612,69.0,0.0,210.0,5.0,0.0
5613,83.0,100.0,90.0,3.0,0.0
5614,57.0,20.0,210.0,6.0,0.0
5615,45.0,0.0,210.0,7.0,0.0
5616,79.0,120.0,90.0,4.0,0.0
5617,83.0,0.0,90.0,3.0,0.0
5618,47.0,20.0,210.0,7.0,0.0
5619,59.0,0.0,210.0,6.0,0.0
5620,79.0,0.0,90.0,4.0,0.0
5621,71.0,0.0,210.0,5.0,0.0
5622,83.0,100.0,90.0,3.0,0.0
5623,83.0,120.0,90.0,3.0,0.0
5624,79.0,0.0,90.0,4.0,0.0
5625,72.0,60.0,390.0,5.0,0.0
5626,60.0,0.0,390.0,6.0,0.0
5627,48.0,0.0,390.0,7.0,0.0
5628,83.0,0.0,90.0,3.0,0.0
5629,79.0,120.0,90.0,4.0,0.0
5630,83.0,0.0,90.0,3.0,0.0
5631,79.0,120.0,90.0,4.0,0.0
5632,79.0,0.0,90.0,4.0,0.0
5633,83.0,60.0,90.0,3.0,0.0
5634,79.0,0.0,90.0,4.0,0.0
5635,83.0,120.0,90.0,3.0,0.0
5636,62.0,0.0,390.0,6.0,0.0
5637,79.0,0.0,90.0,4.0,0.0
5638,50.0,0.0,390.0,7.0,0.0
5639,74.0,60.0,390.0,5.0,0.0
5640,83.0,120.0,90.0,3.0,0.0
5641,83.0,0.0,90.0,3.0,0.0
5642,79.0,120.0,90.0,4.0,0.0
5643,79.0,60.0,90.0,4.0,0.0
5644,83.0,0.0,90.0,3.0,0.0
5645,83.0,0.0,90.0,3.0,0.0
5646,79.0,120.0,90.0,4.0,0.0
5647,79.0,120.0,90.0,4.0,0.0
5648,52.0,60.0,390.0,7.0,0.0
5649,64.0,0.0,390.0,6.0,0.0
5650,76.0,0.0,390.0,5.0,0.0
5651,83.0,0.0,90.0,3.0,0.0
5652,79.0,120.0,90.0,4.0,0.0
5653,83.0,0.0,90.0,3.0,0.0
5654,79.0,60.0,90.0,4.0,0.0
5655,83.0,0.0,90.0,3.0,0.0
5656,83.0,120.0,90.0,3.0,0.0
5657,79.0,0.0,90.0,4.0,0.0
5658,83.0,0.0,90.0,3.0,0.0
5659,73.0,0.0,390.0,5.0,0.0
5660,49.0,60.0,390.0,7.0,0.0
5661,61.0,0.0,390.0,6.0,0.0
5662,79.0,120.0,90.0,4.0,0.0
5663,79.0,120.0,90.0,4.0,0.0
5664,83.0,0.0,90.0,3.0,0.0
5665,83.0,60.0,90.0,3.0,0.0
5666,79.0,0.0,90.0,4.0,0.0
5667,79.0,120.0,90.0,4.0,0.0
5668,83.0,0.0,90.0,3.0,0.0
5669,50.0,10.0,810.0,7.0,0.0
5670,74.0,0.0,810.0,5.0,0.0
5671,79.0,120.0,90.0,4.0,0.0
5672,62.0,0.0,810.0,6.0,0.0
5673,83.0,0.0,90.0,3.0,0.0
5674,83.0,0.0,90.0,3.0,0.0
5675,79.0,20.0,90.0,4.0,0.0
5676,86.0,0.0,240.0,0.0,0.0
5677,83.0,100.0,15.0,0.0,0.0
5678,83.0,60.0,90.0,3.0,0.0
5679,79.0,0.0,90.0,4.0,0.0
5680,79.0,20.0,90.0,4.0,0.0
5681,83.0,0.0,90.0,3.0,0.0
5682,79.0,20.0,90.0,4.0,0.0
5683,83.0,0.0,90.0,3.0,0.0
5684,55.0,0.0,300.0,1.0,0.0
5685,67.0,30.0,300.0,1.0,0.0
5686,79.0,100.0,120.0,0.0,0.0
5687,83.0,0.0,120.0,0.0,0.0
5688,83.0,80.0,90.0,3.0,0.0
5689,79.0,0.0,90.0,4.0,0.0
5690,79.0,0.0,120.0,0.0,0.0
5691,79.0,0.0,90.0,4.0,0.0
5692,83.0,20.0,90.0,3.0,0.0
5693,83.0,100.0,120.0,0.0,0.0
5694,83.0,0.0,90.0,3.0,0.0
5695,55.0,0.0,90.0,1.0,0.0
5696,67.0,120.0,90.0,1.0,0.0
5697,79.0,0.0,90.0,4.0,0.0
5698,79.0,0.0,3120.0,0.0,0.0
5699,83.0,120.0,90.0,3.0,0.0
5700,79.0,0.0,90.0,4.0,0.0
5701,55.0,60.0,3270.0,1.0,0.0
5702,67.0,0.0,3270.0,1.0,0.0
5703,83.0,0.0,90.0,3.0,0.0
5704,79.0,120.0,90.0,4.0,0.0
5705,83.0,0.0,90.0,3.0,0.0
5706,43.0,0.0,210.0,7.0,0.0
5707,79.0,100.0,90.0,4.0,0.0
5708,55.0,0.0,210.0,6.0,0.0
5709,67.0,20.0,210.0,5.0,0.0
5710,83.0,0.0,90.0,3.0,0.0
5711,79.0,120.0,90.0,4.0,0.0
5712,45.0,20.0,210.0,7.0,0.0
5713,57.0,0.0,210.0,6.0,0.0
5714,79.0,100.0,90.0,4.0,0.0
5715,83.0,0.0,90.0,3.0,0.0
5716,69.0,0.0,210.0,5.0,0.0
5717,79.0,0.0,90.0,4.0,0.0
5718,83.0,120.0,90.0,3.0,0.0
5719,79.0,0.0,90.0,4.0,0.0
5720,47.0,0.0,210.0,7.0,0.0
5721,83.0,100.0,90.0,3.0,0.0
5722,71.0,0.0,210.0,5.0,0.0
5723,59.0,20.0,210.0,6.0,0.0
5724,79.0,120.0,90.0,4.0,0.0
5725,83.0,0.0,90.0,3.0,0.0
5726,48.0,0.0,390.0,7.0,0.0
5727,83.0,120.0,90.0,3.0,0.0
5728,79.0,0.0,90.0,4.0,0.0
5729,72.0,0.0,390.0,5.0,0.0
5730,60.0,60.0,390.0,6.0,0.0
5731,83.0,0.0,90.0,3.0,0.0
5732,79.0,120.0,90.0,4.0,0.0
5733,83.0,0.0,90.0,3.0,0.0
5734,79.0,60.0,90.0,4.0,0.0
5735,79.0,0.0,90.0,4.0,0.0
5736,83.0,120.0,90.0,3.0,0.0
5737,62.0,0.0,390.0,6.0,0.0
5738,74.0,0.0,390.0,5.0,0.0
5739,50.0,60.0,390.0,7.0,0.0
5740,79.0,0.0,90.0,4.0,0.0
5741,83.0,120.0,90.0,3.0,0.0
5742,83.0,0.0,90.0,3.0,0.0
5743,79.0,120.0,90.0,4.0,0.0
5744,79.0,60.0,90.0,4.0,0.0
5745,83.0,0.0,90.0,3.0,0.0
5746,83.0,120.0,90.0,3.0,0.0
5747,79.0,0.0,90.0,4.0,0.0
5748,52.0,0.0,390.0,7.0,0.0
5749,76.0,0.0,390.0,5.0,0.0
5750,79.0,120.0,90.0,4.0,0.0
5751,83.0,0.0,90.0,3.0,0.0
5752,64.0,60.0,390.0,6.0,0.0
5753,83.0,0.0,90.0,3.0,0.0
5754,79.0,120.0,90.0,4.0,0.0
5755,83.0,0.0,90.0,3.0,0.0
5756,79.0,60.0,90.0,4.0,0.0
5757,79.0,120.0,90.0,4.0,0.0
5758,83.0,0.0,90.0,3.0,0.0
5759,83.0,120.0,90.0,3.0,0.0
5760,61.0,0.0,390.0,6.0,0.0
5761,73.0,0.0,390.0,5.0,0.0
5762,49.0,60.0,390.0,7.0,0.0
5763,79.0,0.0,90.0,4.0,0.0
5764,79.0,120.0,90.0,4.0,0.0
5765,83.0,0.0,90.0,3.0,0.0
5766,83.0,0.0,90.0,3.0,0.0
5767,79.0,60.0,90.0,4.0,0.0
5768,83.0,0.0,90.0,3.0,0.0
5769,79.0,120.0,90.0,4.0,0.0
5770,50.0,0.0,810.0,7.0,0.0
5771,79.0,120.0,90.0,4.0,0.0
5772,62.0,0.0,810.0,6.0,0.0
5773,74.0,10.0,810.0,5.0,0.0
5774,83.0,0.0,90.0,3.0,0.0
5775,83.0,20.0,90.0,3.0,0.0
5776,79.0,0.0,90.0,4.0,0.0
5777,79.0,60.0,90.0,4.0,0.0
5778,86.0,0.0,240.0,0.0,0.0
5779,83.0,100.0,15.0,0.0,0.0
5780,83.0,0.0,90.0,3.0,0.0
5781,79.0,20.0,90.0,4.0,0.0
5782,83.0,0.0,90.0,3.0,0.0
5783,79.0,0.0,120.0,0.0,0.0
5784,83.0,100.0,120.0,0.0,0.0
5785,83.0,0.0,90.0,3.0,0.0
5786,55.0,30.0,300.0,1.0,0.0
5787,67.0,0.0,300.0,1.0,0.0
5788,79.0,20.0,90.0,4.0,0.0
5789,83.0,0.0,90.0,3.0,0.0
5790,79.0,80.0,90.0,4.0,0.0
5791,79.0,0.0,120.0,0.0,0.0
5792,83.0,100.0,120.0,0.0,0.0
5793,83.0,20.0,90.0,3.0,0.0
5794,79.0,0.0,90.0,4.0,0.0
5795,79.0,0.0,90.0,4.0,0.0
5796,83.0,120.0,90.0,3.0,0.0
5797,67.0,0.0,90.0,1.0,0.0
5798,55.0,0.0,90.0,1.0,0.0
5799,79.0,0.0,7530.0,0.0,0.0
5800,67.0,0.0,5190.0,1.0,0.0
5801,55.0,0.0,5190.0,1.0,0.0
5802,79.0,120.0,90.0,4.0,0.0
5803,83.0,100.0,960.0,0.0,0.0
5804,83.0,0.0,90.0,3.0,0.0
5805,79.0,120.0,90.0,4.0,0.0
5806,83.0,0.0,90.0,3.0,0.0
5807,67.0,0.0,210.0,5.0,0.0
5808,43.0,20.0,210.0,7.0,0.0
5809,55.0,0.0,210.0,6.0,0.0
5810,79.0,0.0,90.0,4.0,0.0
5811,83.0,100.0,90.0,3.0,0.0
5812,79.0,120.0,90.0,4.0,0.0
5813,83.0,0.0,90.0,3.0,0.0
5814,57.0,0.0,210.0,6.0,0.0
5815,79.0,100.0,90.0,4.0,0.0
5816,83.0,0.0,90.0,3.0,0.0
5817,45.0,20.0,210.0,7.0,0.0
5818,69.0,0.0,210.0,5.0,0.0
5819,79.0,120.0,90.0,4.0,0.0
5820,83.0,0.0,90.0,3.0,0.0
5821,79.0,0.0,90.0,4.0,0.0
5822,59.0,0.0,210.0,6.0,0.0
5823,83.0,100.0,90.0,3.0,0.0
5824,71.0,0.0,210.0,5.0,0.0
5825,47.0,20.0,210.0,7.0,0.0
5826,79.0,20.0,90.0,4.0,0.0
5827,83.0,0.0,90.0,3.0,0.0
5828,60.0,0.0,390.0,6.0,0.0
5829,81.0,120.0,90.0,3.0,0.0
5830,81.0,100.0,1920.0,0.0,0.0
5831,79.0,0.0,90.0,4.0,0.0
5832,72.0,0.0,390.0,5.0,0.0
5833,48.0,60.0,390.0,7.0,0.0
5834,79.0,120.0,90.0,4.0,0.0
5835,81.0,0.0,90.0,3.0,0.0
5836,81.0,60.0,90.0,3.0,0.0
5837,79.0,0.0,90.0,4.0,0.0
5838,79.0,120.0,90.0,4.0,0.0
5839,81.0,0.0,90.0,3.0,0.0
5840,79.0,0.0,90.0,4.0,0.0
5841,81.0,120.0,90.0,3.0,0.0
5842,62.0,60.0,390.0,6.0,0.0
5843,50.0,0.0,390.0,7.0,0.0
5844,74.0,0.0,390.0,5.0,0.0
5845,79.0,120.0,90.0,4.0,0.0
5846,81.0,0.0,90.0,3.0,0.0
5847,79.0,0.0,90.0,4.0,0.0
5848,81.0,60.0,90.0,3.0,0.0
5849,79.0,120.0,90.0,4.0,0.0
5850,81.0,0.0,90.0,3.0,0.0
5851,81.0,0.0,90.0,3.0,0.0
5852,79.0,120.0,90.0,4.0,0.0
5853,64.0,0.0,390.0,6.0,0.0
5854,76.0,0.0,390.0,5.0,0.0
5855,52.0,60.0,390.0,7.0,0.0
5856,81.0,120.0,90.0,3.0,0.0
5857,79.0,0.0,90.0,4.0,0.0
5858,81.0,0.0,90.0,3.0,0.0
5859,79.0,60.0,90.0,4.0,0.0
5860,81.0,0.0,90.0,3.0,0.0
5861,79.0,120.0,90.0,4.0,0.0
5862,81.0,120.0,90.0,3.0,0.0
5863,79.0,0.0,90.0,4.0,0.0
5864,74.0,0.0,390.0,5.0,0.0
5865,62.0,60.0,390.0,6.0,0.0
5866,50.0,0.0,390.0,7.0,0.0
5867,79.0,0.0,90.0,4.0,0.0
5868,81.0,120.0,90.0,3.0,0.0
5869,79.0,0.0,90.0,4.0,0.0
5870,81.0,60.0,90.0,3.0,0.0
5871,81.0,0.0,90.0,3.0,0.0
5872,79.0,20.0,90.0,4.0,0.0
5873,81.0,0.0,390.0,0.0,0.0
5874,79.0,0.0,90.0,4.0,0.0
5875,48.0,0.0,390.0,7.0,0.0
5876,60.0,60.0,390.0,6.0,0.0
5877,67.0,0.0,90.0,4.0,0.0
5878,76.0,0.0,390.0,5.0,0.0
5879,81.0,120.0,90.0,3.0,0.0
5880,67.0,0.0,90.0,4.0,0.0
5881,79.0,0.0,90.0,4.0,0.0
5882,81.0,120.0,90.0,3.0,0.0
5883,81.0,0.0,90.0,3.0,0.0
5884,79.0,60.0,90.0,4.0,0.0
5885,67.0,0.0,90.0,4.0,0.0
5886,79.0,0.0,90.0,4.0,0.0
5887,67.0,0.0,90.0,4.0,0.0
5888,81.0,120.0,90.0,3.0,0.0
5889,83.0,120.0,90.0,3.0,0.0
5890,83.0,60.0,390.0,0.0,0.0
5891,74.0,0.0,390.0,5.0,0.0
5892,79.0,0.0,90.0,4.0,0.0
5893,62.0,0.0,390.0,6.0,0.0
5894,50.0,0.0,390.0,7.0,0.0
5895,67.0,0.0,90.0,4.0,0.0
5896,83.0,120.0,90.0,3.0,0.0
5897,79.0,0.0,90.0,4.0,0.0
5898,67.0,0.0,90.0,4.0,0.0
5899,79.0,0.0,90.0,4.0,0.0
5900,67.0,60.0,90.0,4.0,0.0
5901,83.0,0.0,90.0,3.0,0.0
5902,79.0,0.0,90.0,4.0,0.0
5903,83.0,120.0,90.0,3.0,0.0
5904,67.0,0.0,90.0,4.0,0.0
5905,84.0,0.0,390.0,0.0,0.0
5906,84.0,120.0,90.0,3.0,0.0
5907,79.0,0.0,90.0,4.0,0.0
5908,67.0,0.0,90.0,4.0,0.0
5909,72.0,60.0,390.0,5.0,0.0
5910,64.0,0.0,390.0,6.0,0.0
5911,52.0,0.0,390.0,7.0,0.0
5912,67.0,0.0,90.0,4.0,0.0
5913,79.0,120.0,90.0,4.0,0.0
5914,84.0,0.0,90.0,3.0,0.0
5915,84.0,0.0,90.0,3.0,0.0
5916,67.0,0.0,90.0,4.0,0.0
5917,79.0,60.0,90.0,4.0,0.0
5918,79.0,0.0,90.0,4.0,0.0
5919,67.0,0.0,90.0,4.0,0.0
5920,84.0,120.0,90.0,3.0,0.0
5921,62.0,0.0,390.0,6.0,0.0
5922,83.0,0.0,90.0,3.0,0.0
5923,74.0,0.0,390.0,5.0,0.0
5924,50.0,60.0,390.0,7.0,0.0
5925,67.0,0.0,90.0,4.0,0.0
5926,79.0,120.0,90.0,4.0,0.0
5927,83.0,0.0,390.0,0.0,0.0
5928,79.0,0.0,90.0,4.0,0.0
5929,67.0,120.0,90.0,4.0,0.0
5930,83.0,0.0,90.0,3.0,0.0
5931,67.0,0.0,90.0,4.0,0.0
5932,79.0,60.0,90.0,4.0,0.0
5933,83.0,0.0,90.0,3.0,0.0
5934,67.0,0.0,90.0,4.0,0.0
5935,79.0,120.0,90.0,4.0,0.0
5936,83.0,0.0,90.0,3.0,0.0
5937,69.0,60.0,390.0,5.0,0.0
5938,48.0,0.0,390.0,7.0,0.0
5939,67.0,120.0,90.0,4.0,0.0
5940,79.0,0.0,90.0,4.0,0.0
5941,60.0,0.0,390.0,6.0,0.0
5942,88.0,0.0,390.0,0.0,0.0
5943,88.0,0.0,90.0,3.0,0.0
5944,88.0,0.0,90.0,3.0,0.0
5945,79.0,0.0,90.0,4.0,0.0
5946,67.0,120.0,90.0,4.0,0.0
5947,88.0,0.0,90.0,3.0,0.0
5948,79.0,60.0,90.0,4.0,0.0
5949,67.0,0.0,90.0,4.0,0.0
5950,67.0,0.0,90.0,4.0,0.0
5951,88.0,120.0,90.0,3.0,0.0
5952,79.0,0.0,90.0,4.0,0.0
5953,59.0,60.0,390.0,6.0,0.0
5954,71.0,0.0,390.0,5.0,0.0
5955,79.0,0.0,90.0,4.0,0.0
5956,67.0,0.0,90.0,4.0,0.0
5957,67.0,0.0,390.0,1.0,0.0
5958,86.0,120.0,90.0,3.0,0.0
5959,86.0,0.0,390.0,0.0,0.0
5960,47.0,0.0,390.0,7.0,0.0
5961,55.0,0.0,390.0,1.0,0.0
5962,79.0,0.0,90.0,4.0,0.0
5963,67.0,0.0,90.0,4.0,0.0
5964,86.0,120.0,90.0,3.0,0.0
5965,79.0,0.0,90.0,4.0,0.0
5966,86.0,60.0,90.0,3.0,0.0
5967,67.0,0.0,90.0,4.0,0.0
5968,79.0,0.0,90.0,4.0,0.0
5969,86.0,120.0,90.0,3.0,0.0
5970,67.0,0.0,90.0,4.0,0.0
5971,55.0,0.0,390.0,1.0,0.0
5972,79.0,120.0,90.0,4.0,0.0
5973,52.0,0.0,390.0,7.0,0.0
5974,84.0,0.0,90.0,3.0,0.0
5975,67.0,0.0,90.0,4.0,0.0
5976,64.0,60.0,390.0,6.0,0.0
5977,67.0,0.0,390.0,1.0,0.0
5978,72.0,0.0,390.0,5.0,0.0
5979,84.0,0.0,390.0,0.0,0.0
5980,79.0,0.0,90.0,4.0,0.0
5981,67.0,120.0,90.0,4.0,0.0
5982,84.0,0.0,90.0,3.0,0.0
5983,79.0,0.0,90.0,4.0,0.0
5984,67.0,60.0,90.0,4.0,0.0
5985,84.0,0.0,90.0,3.0,0.0
5986,84.0,120.0,90.0,3.0,0.0
5987,79.0,0.0,90.0,4.0,0.0
5988,67.0,0.0,90.0,4.0,0.0
5989,61.0,0.0,390.0,6.0,0.0
5990,67.0,0.0,390.0,1.0,0.0
5991,67.0,120.0,90.0,4.0,0.0
5992,79.0,0.0,90.0,4.0,0.0
5993,82.0,0.0,90.0,3.0,0.0
5994,76.0,60.0,390.0,5.0,0.0
5995,49.0,0.0,390.0,7.0,0.0
5996,82.0,0.0,390.0,0.0,0.0
5997,55.0,0.0,390.0,1.0,0.0
5998,79.0,120.0,90.0,4.0,0.0
5999,82.0,0.0,90.0,3.0,0.0
6000,67.0,0.0,90.0,4.0,0.0
6001,79.0,0.0,90.0,4.0,0.0
6002,82.0,0.0,90.0,3.0,0.0
6003,67.0,60.0,90.0,4.0,0.0
6004,67.0,830.0,90.0,4.0,0.0
6005,79.0,0.0,90.0,4.0,0.0
6006,82.0,0.0,90.0,3.0,0.0
6007,67.0,1100.0,1230.0,2.0,0.0
6008,83.0,0.0,810.0,0.0,0.0
6009,83.0,0.0,810.0,3.0,0.0
6010,79.0,0.0,810.0,4.0,0.0
6011,67.0,0.0,810.0,4.0,0.0
6012,62.0,0.0,810.0,1.0,0.0
6013,50.0,0.0,810.0,1.0,0.0
6014,50.0,0.0,810.0,7.0,0.0
6015,62.0,0.0,810.0,6.0,0.0
6016,74.0,410.0,810.0,5.0,0.0
6017,62.0,690.0,390.0,2.0,0.0
6018,62.0,160.0,600.0,2.0,0.0
6019,64.0,70.0,60.0,2.0,0.0
6020,62.0,120.0,60.0,2.0,0.0
6021,61.0,240.0,120.0,2.0,0.0
6022,62.0,200.0,240.0,2.0,0.0
6023,57.0,440.0,210.0,2.0,0.0
6024,67.0,690.0,390.0,2.0,0.0
6025,67.0,160.0,600.0,2.0,0.0
6026,69.0,70.0,60.0,2.0,0.0
6027,67.0,120.0,60.0,2.0,0.0
6028,66.0,240.0,120.0,2.0,0.0
6029,67.0,200.0,240.0,2.0,0.0
6030,62.0,440.0,210.0,2.0,0.0
6031,71.0,680.0,390.0,2.0,0.0
6032,74.0,120.0,600.0,2.0,0.0
6033,72.0,100.0,120.0,2.0,0.0
6034,71.0,120.0,90.0,2.0,0.0
6035,69.0,140.0,90.0,2.0,0.0
6036,67.0,120.0,120.0,2.0,0.0
6037,66.0,100.0,120.0,2.0,0.0
6038,64.0,120.0,90.0,2.0,0.0
6039,62.0,120.0,90.0,2.0,0.0
6040,60.0,120.0,90.0,2.0,0.0
6041,59.0,120.0,90.0,2.0,0.0
6042,57.0,120.0,90.0,2.0,0.0
6043,55.0,120.0,90.0,2.0,0.0
6044,54.0,120.0,90.0,2.0,0.0
6045,57.0,120.0,90.0,2.0,0.0
6046,62.0,120.0,90.0,2.0,0.0
6047,60.0,360.0,90.0,2.0,0.0
6048,59.0,120.0,330.0,2.0,0.0
6049,63.0,100.0,90.0,2.0,0.0
6050,64.0,90.0,90.0,2.0,0.0
6051,66.0,100.0,90.0,2.0,0.0
6052,67.0,90.0,90.0,2.0,0.0
6053,69.0,100.0,90.0,2.0,0.0
6054,66.0,980.0,90.0,2.0,0.0
6055,67.0,240.0,960.0,2.0,0.0
6056,69.0,240.0,240.0,2.0,0.0
6057,66.0,240.0,240.0,2.0,0.0
6058,64.0,240.0,240.0,2.0,0.0
6059,63.0,240.0,240.0,2.0,0.0
6060,64.0,240.0,240.0,2.0,0.0
6061,67.0,960.0,240.0,2.0,0.0
6062,71.0,1440.0,960.0,2.0,0.0
6063,71.0,240.0,960.0,2.0,0.0
6064,72.0,240.0,240.0,2.0,0.0
6065,69.0,240.0,240.0,2.0,0.0
6066,67.0,240.0,240.0,2.0,0.0
6067,66.0,240.0,240.0,2.0,0.0
6068,67.0,240.0,240.0,2.0,0.0
6069,71.0,810.0,240.0,2.0,0.0
6070,74.0,550.0,810.0,2.0,0.0
6071,67.0,480.0,390.0,2.0,0.0
6072,76.0,200.0,390.0,2.0,0.0
6073,74.0,120.0,120.0,2.0,0.0
6074,72.0,100.0,120.0,2.0,0.0
6075,71.0,120.0,90.0,2.0,0.0
6076,69.0,420.0,90.0,2.0,0.0
6077,74.0,480.0,390.0,2.0,0.0
6078,71.0,320.0,390.0,2.0,0.0
6079,76.0,120.0,240.0,2.0,0.0
6080,75.0,120.0,120.0,2.0,0.0
6081,76.0,120.0,120.0,2.0,0.0
6082,74.0,120.0,120.0,2.0,0.0
6083,72.0,100.0,120.0,2.0,0.0
6084,71.0,120.0,90.0,2.0,0.0
6085,69.0,470.0,90.0,2.0,0.0
6086,74.0,480.0,450.0,2.0,0.0
6087,71.0,150.0,450.0,2.0,0.0
6088,69.0,120.0,120.0,2.0,0.0
6089,68.0,100.0,120.0,2.0,0.0
6090,69.0,120.0,90.0,2.0,0.0
6091,71.0,140.0,90.0,2.0,0.0
6092,72.0,120.0,120.0,2.0,0.0
6093,74.0,120.0,120.0,2.0,0.0
6094,76.0,120.0,120.0,2.0,0.0
6095,74.0,120.0,120.0,2.0,0.0
6096,72.0,120.0,120.0,2.0,0.0
6097,74.0,120.0,120.0,2.0,0.0
6098,71.0,120.0,120.0,2.0,0.0
6099,72.0,120.0,120.0,2.0,0.0
6100,69.0,120.0,120.0,2.0,0.0
6101,71.0,120.0,120.0,2.0,0.0
6102,68.0,120.0,120.0,2.0,0.0
6103,69.0,120.0,120.0,2.0,0.0
6104,66.0,100.0,120.0,2.0,0.0
6105,64.0,120.0,90.0,2.0,0.0
6106,66.0,120.0,90.0,2.0,0.0
6107,67.0,140.0,90.0,2.0,0.0
6108,69.0,120.0,120.0,2.0,0.0
6109,71.0,120.0,120.0,2.0,0.0
6110,72.0,120.0,120.0,2.0,0.0
6111,71.0,120.0,120.0,2.0,0.0
6112,69.0,120.0,120.0,2.0,0.0
6113,71.0,120.0,120.0,2.0,0.0
6114,67.0,120.0,120.0,2.0,0.0
6115,69.0,120.0,120.0,2.0,0.0
6116,66.0,120.0,120.0,2.0,0.0
6117,67.0,120.0,120.0,2.0,0.0
6118,64.0,120.0,120.0,2.0,0.0
6119,66.0,100.0,120.0,2.0,0.0
6120,62.0,120.0,90.0,2.0,0.0
6121,62.0,120.0,90.0,2.0,0.0
6122,64.0,120.0,90.0,2.0,0.0
6123,66.0,120.0,90.0,2.0,0.0
6124,67.0,120.0,90.0,2.0,0.0
6125,69.0,120.0,90.0,2.0,0.0
6126,71.0,120.0,90.0,2.0,0.0
6127,72.0,220.0,90.0,2.0,0.0
6128,74.0,240.0,210.0,2.0,0.0
6129,76.0,240.0,210.0,2.0,0.0
6130,78.0,240.0,210.0,2.0,0.0
6131,79.0,100.0,210.0,2.0,0.0
6132,71.0,0.0,60.0,2.0,0.0
6133,69.0,60.0,60.0,2.0,0.0
6134,69.0,60.0,60.0,2.0,0.0
6135,71.0,60.0,60.0,2.0,0.0
6136,69.0,60.0,60.0,2.0,0.0
6137,71.0,60.0,60.0,2.0,0.0
6138,69.0,60.0,60.0,2.0,0.0
6139,71.0,60.0,60.0,2.0,0.0
6140,69.0,60.0,60.0,2.0,0.0
6141,71.0,60.0,60.0,2.0,0.0
6142,69.0,60.0,60.0,2.0,0.0
6143,71.0,60.0,60.0,2.0,0.0
6144,69.0,60.0,60.0,2.0,0.0
6145,71.0,60.0,60.0,2.0,0.0
6146,69.0,60.0,60.0,2.0,0.0
6147,71.0,60.0,60.0,2.0,0.0
6148,69.0,60.0,60.0,2.0,0.0
6149,71.0,60.0,60.0,2.0,0.0
6150,69.0,60.0,60.0,2.0,0.0
6151,71.0,60.0,60.0,2.0,0.0
6152,69.0,60.0,60.0,2.0,0.0
6153,71.0,60.0,60.0,2.0,0.0
6154,69.0,60.0,60.0,2.0,0.0
6155,71.0,60.0,60.0,2.0,0.0
6156,69.0,60.0,60.0,2.0,0.0
6157,71.0,60.0,60.0,2.0,0.0
6158,69.0,60.0,60.0,2.0,0.0
6159,71.0,120.0,60.0,2.0,0.0
6160,67.0,120.0,120.0,2.0,0.0
6161,69.0,200.0,120.0,2.0,0.0
6162,67.0,0.0,390.0,2.0,0.0
6163,55.0,0.0,210.0,6.0,0.0
6164,67.0,200.0,210.0,5.0,0.0
6165,79.0,0.0,390.0,4.0,0.0
6166,86.0,10.0,1620.0,0.0,0.0
6167,83.0,0.0,1620.0,0.0,0.0
6168,79.0,40.0,390.0,3.0,0.0
6169,43.0,0.0,210.0,7.0,0.0
6170,67.0,0.0,5460.0,1.0,0.0
6171,55.0,0.0,5460.0,1.0,0.0
6172,43.0,0.0,210.0,7.0,0.0
6173,55.0,240.0,210.0,6.0,0.0
6174,67.0,0.0,210.0,5.0,0.0
6175,67.0,0.0,390.0,3.0,0.0
6176,71.0,0.0,210.0,5.0,0.0
6177,47.0,0.0,210.0,7.0,0.0
6178,59.0,0.0,390.0,3.0,0.0
6179,67.0,40.0,390.0,4.0,0.0
6180,59.0,200.0,210.0,6.0,0.0
6181,59.0,0.0,390.0,4.0,0.0
6182,74.0,0.0,210.0,5.0,0.0
6183,50.0,240.0,210.0,7.0,0.0
6184,62.0,0.0,210.0,6.0,0.0
6185,55.0,0.0,210.0,7.0,0.0
6186,79.0,0.0,210.0,5.0,0.0
6187,67.0,160.0,210.0,6.0,0.0
6188,71.0,0.0,120.0,4.0,0.0
6189,50.0,0.0,210.0,7.0,0.0
6190,79.0,80.0,120.0,3.0,0.0
6191,74.0,0.0,210.0,5.0,0.0
6192,62.0,40.0,210.0,6.0,0.0
6193,79.0,0.0,120.0,4.0,0.0
6194,83.0,190.0,120.0,3.0,0.0
6195,71.0,0.0,210.0,5.0,0.0
6196,47.0,0.0,210.0,7.0,0.0
6197,86.0,0.0,210.0,3.0,0.0
6198,83.0,240.0,210.0,4.0,0.0
6199,59.0,0.0,210.0,6.0,0.0
6200,86.0,0.0,210.0,3.0,0.0
6201,55.0,0.0,210.0,6.0,0.0
6202,67.0,0.0,210.0,5.0,0.0
6203,43.0,0.0,210.0,7.0,0.0
6204,83.0,440.0,210.0,4.0,0.0
6205,88.0,40.0,390.0,3.0,0.0
6206,88.0,0.0,1620.0,0.0,0.0
6207,84.0,10.0,1620.0,0.0,0.0
6208,84.0,0.0,390.0,4.0,0.0
6209,36.0,0.0,210.0,7.0,0.0
6210,48.0,0.0,210.0,6.0,0.0
6211,60.0,240.0,210.0,5.0,0.0
6212,52.0,0.0,210.0,6.0,0.0
6213,60.0,0.0,390.0,4.0,0.0
6214,60.0,40.0,390.0,3.0,0.0
6215,64.0,200.0,210.0,5.0,0.0
6216,40.0,0.0,210.0,7.0,0.0
6217,55.0,0.0,210.0,6.0,0.0
6218,43.0,0.0,210.0,7.0,0.0
6219,67.0,240.0,210.0,5.0,0.0
6220,72.0,0.0,210.0,5.0,0.0
6221,48.0,0.0,210.0,7.0,0.0
6222,60.0,160.0,210.0,6.0,0.0
6223,79.0,80.0,120.0,3.0,0.0
6224,55.0,0.0,210.0,6.0,0.0
6225,67.0,0.0,210.0,5.0,0.0
6226,43.0,40.0,210.0,7.0,0.0
6227,76.0,0.0,120.0,4.0,0.0
6228,84.0,0.0,120.0,3.0,0.0
6229,79.0,190.0,120.0,4.0,0.0
6230,88.0,240.0,210.0,3.0,0.0
6231,84.0,0.0,210.0,4.0,0.0
6232,64.0,0.0,210.0,5.0,0.0
6233,52.0,0.0,210.0,6.0,0.0
6234,40.0,0.0,210.0,7.0,0.0
6235,60.0,440.0,210.0,5.0,0.0
6236,84.0,0.0,210.0,4.0,0.0
6237,48.0,0.0,210.0,6.0,0.0
6238,36.0,0.0,210.0,7.0,0.0
6239,88.0,0.0,210.0,3.0,0.0
6240,86.0,40.0,390.0,3.0,0.0
6241,83.0,0.0,390.0,4.0,0.0
6242,83.0,10.0,1620.0,0.0,0.0
6243,86.0,0.0,1620.0,0.0,0.0
6244,55.0,0.0,210.0,6.0,0.0
6245,67.0,240.0,210.0,5.0,0.0
6246,43.0,0.0,210.0,7.0,0.0
6247,67.0,40.0,390.0,3.0,0.0
6248,59.0,0.0,390.0,4.0,0.0
6249,71.0,200.0,210.0,5.0,0.0
6250,59.0,0.0,210.0,6.0,0.0
6251,59.0,0.0,390.0,3.0,0.0
6252,47.0,0.0,210.0,7.0,0.0
6253,67.0,0.0,390.0,4.0,0.0
6254,50.0,0.0,210.0,7.0,0.0
6255,62.0,240.0,210.0,6.0,0.0
6256,74.0,0.0,210.0,5.0,0.0
6257,55.0,0.0,210.0,7.0,0.0
6258,79.0,160.0,210.0,5.0,0.0
6259,67.0,0.0,210.0,6.0,0.0
6260,79.0,0.0,120.0,3.0,0.0
6261,50.0,0.0,210.0,7.0,0.0
6262,74.0,40.0,210.0,5.0,0.0
6263,71.0,80.0,120.0,4.0,0.0
6264,62.0,0.0,210.0,6.0,0.0
6265,79.0,190.0,120.0,4.0,0.0
6266,83.0,0.0,120.0,3.0,0.0
6267,59.0,0.0,210.0,6.0,0.0
6268,86.0,0.0,210.0,3.0,0.0
6269,71.0,0.0,210.0,5.0,0.0
6270,47.0,0.0,210.0,7.0,0.0
6271,83.0,240.0,210.0,4.0,0.0
6272,43.0,0.0,210.0,7.0,0.0
6273,67.0,0.0,210.0,5.0,0.0
6274,55.0,0.0,210.0,6.0,0.0
6275,86.0,240.0,210.0,3.0,0.0
6276,83.0,0.0,210.0,4.0,0.0
6277,67.0,10.0,810.0,1.0,0.0
6278,45.0,90.0,600.0,7.0,0.0
6279,84.0,0.0,210.0,3.0,0.0
6280,84.0,140.0,210.0,4.0,0.0
6281,69.0,0.0,810.0,1.0,0.0
6282,64.0,0.0,600.0,5.0,0.0
6283,57.0,0.0,600.0,6.0,0.0
6284,84.0,30.0,1620.0,0.0,0.0
6285,76.0,0.0,810.0,0.0,0.0
6286,88.0,120.0,90.0,3.0,0.0
6287,88.0,0.0,90.0,4.0,0.0
6288,86.0,0.0,90.0,3.0,0.0
6289,86.0,120.0,90.0,4.0,0.0
6290,84.0,30.0,90.0,4.0,0.0
6291,84.0,0.0,90.0,3.0,0.0
6292,83.0,0.0,90.0,3.0,0.0
6293,83.0,110.0,90.0,4.0,0.0
6294,60.0,0.0,210.0,6.0,0.0
6295,81.0,100.0,90.0,4.0,0.0
6296,48.0,0.0,210.0,7.0,0.0
6297,81.0,0.0,90.0,3.0,0.0
6298,72.0,20.0,210.0,5.0,0.0
6299,79.0,0.0,90.0,3.0,0.0
6300,79.0,220.0,90.0,4.0,0.0
6301,69.0,10.0,810.0,1.0,0.0
6302,78.0,0.0,210.0,3.0,0.0
6303,78.0,90.0,720.0,0.0,0.0
6304,78.0,140.0,210.0,4.0,0.0
6305,69.0,0.0,600.0,5.0,0.0
6306,62.0,0.0,810.0,1.0,0.0
6307,62.0,60.0,600.0,6.0,0.0
6308,50.0,0.0,600.0,7.0,0.0
6309,81.0,120.0,90.0,3.0,0.0
6310,81.0,0.0,90.0,4.0,0.0
6311,79.0,0.0,90.0,3.0,0.0
6312,79.0,120.0,90.0,4.0,0.0
6313,78.0,0.0,90.0,3.0,0.0
6314,78.0,30.0,90.0,4.0,0.0
6315,76.0,20.0,90.0,3.0,0.0
6316,76.0,0.0,90.0,4.0,0.0
6317,74.0,100.0,90.0,3.0,0.0
6318,69.0,20.0,210.0,5.0,0.0
6319,74.0,0.0,90.0,4.0,0.0
6320,54.0,0.0,210.0,6.0,0.0
6321,81.0,100.0,240.0,0.0,0.0
6322,42.0,0.0,210.0,7.0,0.0
6323,72.0,0.0,90.0,4.0,0.0
6324,72.0,20.0,90.0,3.0,0.0
6325,71.0,40.0,390.0,3.0,0.0
6326,79.0,100.0,90.0,4.0,0.0
6327,71.0,0.0,90.0,4.0,0.0
6328,43.0,0.0,210.0,7.0,0.0
6329,67.0,20.0,210.0,5.0,0.0
6330,55.0,0.0,1170.0,1.0,0.0
6331,79.0,0.0,810.0,0.0,0.0
6332,83.0,10.0,810.0,0.0,0.0
6333,55.0,0.0,210.0,6.0,0.0
6334,67.0,0.0,1170.0,1.0,0.0
6335,79.0,0.0,90.0,4.0,0.0
6336,71.0,120.0,90.0,4.0,0.0
6337,67.0,0.0,210.0,5.0,0.0
6338,79.0,0.0,90.0,4.0,0.0
6339,55.0,20.0,210.0,6.0,0.0
6340,43.0,0.0,210.0,7.0,0.0
6341,71.0,60.0,90.0,4.0,0.0
6342,71.0,120.0,90.0,4.0,0.0
6343,79.0,0.0,90.0,4.0,0.0
6344,67.0,0.0,210.0,5.0,0.0
6345,79.0,100.0,90.0,4.0,0.0
6346,71.0,0.0,90.0,4.0,0.0
6347,55.0,0.0,210.0,6.0,0.0
6348,43.0,20.0,210.0,7.0,0.0
6349,79.0,110.0,90.0,4.0,0.0
6350,71.0,0.0,90.0,4.0,0.0
6351,79.0,0.0,90.0,4.0,0.0
6352,71.0,20.0,90.0,4.0,0.0
6353,43.0,0.0,210.0,7.0,0.0
6354,67.0,20.0,210.0,5.0,0.0
6355,86.0,80.0,120.0,3.0,0.0
6356,55.0,0.0,210.0,6.0,0.0
6357,71.0,20.0,90.0,4.0,0.0
6358,88.0,100.0,120.0,3.0,0.0
6359,79.0,0.0,90.0,4.0,0.0
6360,67.0,100.0,90.0,4.0,0.0
6361,71.0,0.0,210.0,5.0,0.0
6362,47.0,0.0,210.0,7.0,0.0
6363,74.0,0.0,90.0,4.0,0.0
6364,77.0,0.0,810.0,0.0,0.0
6365,89.0,0.0,210.0,3.0,0.0
6366,86.0,10.0,810.0,0.0,0.0
6367,59.0,20.0,210.0,6.0,0.0
6368,67.0,120.0,90.0,4.0,0.0
6369,74.0,0.0,90.0,4.0,0.0
6370,67.0,0.0,210.0,1.0,0.0
6371,74.0,100.0,90.0,4.0,0.0
6372,71.0,0.0,210.0,5.0,0.0
6373,55.0,0.0,210.0,1.0,0.0
6374,67.0,0.0,90.0,4.0,0.0
6375,47.0,20.0,210.0,7.0,0.0
6376,89.0,0.0,210.0,3.0,0.0
6377,59.0,0.0,210.0,6.0,0.0
6378,67.0,0.0,90.0,4.0,0.0
6379,74.0,120.0,90.0,4.0,0.0
6380,47.0,20.0,210.0,7.0,0.0
6381,74.0,0.0,90.0,4.0,0.0
6382,67.0,0.0,210.0,1.0,0.0
6383,89.0,0.0,210.0,3.0,0.0
6384,59.0,0.0,210.0,6.0,0.0
6385,55.0,0.0,210.0,1.0,0.0
6386,71.0,0.0,210.0,5.0,0.0
6387,67.0,100.0,90.0,4.0,0.0
6388,74.0,0.0,90.0,4.0,0.0
6389,67.0,110.0,90.0,4.0,0.0
6390,67.0,0.0,210.0,1.0,0.0
6391,89.0,0.0,210.0,3.0,0.0
6392,74.0,100.0,90.0,4.0,0.0
6393,67.0,0.0,90.0,4.0,0.0
6394,71.0,0.0,210.0,5.0,0.0
6395,59.0,0.0,210.0,6.0,0.0
6396,55.0,0.0,210.0,1.0,0.0
6397,47.0,20.0,210.0,7.0,0.0
6398,67.0,120.0,90.0,4.0,0.0
6399,74.0,0.0,90.0,4.0,0.0
6400,76.0,10.0,810.0,0.0,0.0
6401,60.0,0.0,210.0,6.0,0.0
6402,67.0,0.0,1170.0,1.0,0.0
6403,84.0,0.0,810.0,0.0,0.0
6404,48.0,20.0,210.0,7.0,0.0
6405,67.0,0.0,90.0,4.0,0.0
6406,72.0,0.0,210.0,5.0,0.0
6407,76.0,100.0,90.0,4.0,0.0
6408,55.0,0.0,1170.0,1.0,0.0
6409,88.0,40.0,390.0,3.0,0.0
6410,76.0,0.0,90.0,4.0,0.0
6411,67.0,120.0,90.0,4.0,0.0
6412,48.0,0.0,210.0,7.0,0.0
6413,60.0,20.0,210.0,6.0,0.0
6414,72.0,0.0,210.0,5.0,0.0
6415,67.0,0.0,90.0,4.0,0.0
6416,76.0,60.0,90.0,4.0,0.0
6417,76.0,0.0,90.0,4.0,0.0
6418,67.0,120.0,90.0,4.0,0.0
6419,48.0,0.0,210.0,7.0,0.0
6420,60.0,0.0,210.0,6.0,0.0
6421,67.0,0.0,90.0,4.0,0.0
6422,76.0,100.0,90.0,4.0,0.0
6423,72.0,20.0,210.0,5.0,0.0
6424,76.0,110.0,90.0,4.0,0.0
6425,67.0,0.0,90.0,4.0,0.0
6426,72.0,0.0,210.0,5.0,0.0
6427,48.0,0.0,210.0,7.0,0.0
6428,88.0,80.0,120.0,3.0,0.0
6429,76.0,20.0,90.0,4.0,0.0
6430,67.0,0.0,90.0,4.0,0.0
6431,60.0,20.0,210.0,6.0,0.0
6432,90.0,100.0,120.0,3.0,0.0
6433,76.0,20.0,90.0,4.0,0.0
6434,67.0,0.0,90.0,4.0,0.0
6435,88.0,10.0,810.0,0.0,0.0
6436,82.0,0.0,90.0,4.0,0.0
6437,79.0,100.0,90.0,4.0,0.0
6438,82.0,0.0,810.0,0.0,0.0
6439,49.0,0.0,210.0,7.0,0.0
6440,73.0,0.0,210.0,5.0,0.0
6441,91.0,20.0,210.0,3.0,0.0
6442,61.0,0.0,210.0,6.0,0.0
6443,82.0,120.0,90.0,4.0,0.0
6444,79.0,0.0,90.0,4.0,0.0
6445,61.0,0.0,210.0,6.0,0.0
6446,67.0,0.0,210.0,1.0,0.0
6447,55.0,0.0,210.0,1.0,0.0
6448,73.0,0.0,210.0,5.0,0.0
6449,91.0,20.0,210.0,3.0,0.0
6450,79.0,0.0,90.0,4.0,0.0
6451,82.0,100.0,90.0,4.0,0.0
6452,49.0,0.0,210.0,7.0,0.0
6453,82.0,120.0,90.0,4.0,0.0
6454,79.0,0.0,90.0,4.0,0.0
6455,91.0,0.0,210.0,3.0,0.0
6456,79.0,100.0,90.0,4.0,0.0
6457,82.0,0.0,90.0,4.0,0.0
6458,55.0,20.0,210.0,1.0,0.0
6459,73.0,0.0,210.0,5.0,0.0
6460,49.0,0.0,210.0,7.0,0.0
6461,67.0,0.0,210.0,1.0,0.0
6462,61.0,0.0,210.0,6.0,0.0
6463,79.0,0.0,90.0,4.0,0.0
6464,82.0,110.0,90.0,4.0,0.0
6465,79.0,0.0,90.0,4.0,0.0
6466,82.0,100.0,90.0,4.0,0.0
6467,91.0,0.0,210.0,3.0,0.0
6468,67.0,0.0,210.0,1.0,0.0
6469,55.0,20.0,210.0,1.0,0.0
6470,61.0,0.0,210.0,6.0,0.0
6471,49.0,0.0,210.0,7.0,0.0
6472,73.0,0.0,210.0,5.0,0.0
6473,79.0,0.0,90.0,4.0,0.0
6474,82.0,220.0,90.0,4.0,0.0
6475,67.0,0.0,390.0,1.0,0.0
6476,83.0,40.0,390.0,0.0,0.0
6477,74.0,0.0,210.0,5.0,0.0
6478,71.0,0.0,390.0,1.0,0.0
6479,83.0,0.0,210.0,4.0,0.0
6480,86.0,0.0,390.0,0.0,0.0
6481,50.0,0.0,210.0,7.0,0.0
6482,62.0,0.0,210.0,6.0,0.0
6483,79.0,0.0,210.0,4.0,0.0
6484,86.0,140.0,210.0,3.0,0.0
6485,50.0,20.0,210.0,7.0,0.0
6486,83.0,0.0,90.0,4.0,0.0
6487,83.0,60.0,90.0,3.0,0.0
6488,74.0,0.0,210.0,5.0,0.0
6489,62.0,0.0,210.0,6.0,0.0
6490,79.0,0.0,90.0,4.0,0.0
6491,79.0,220.0,90.0,3.0,0.0
6492,74.0,0.0,210.0,3.0,0.0
6493,71.0,0.0,300.0,1.0,0.0
6494,83.0,0.0,300.0,0.0,0.0
6495,67.0,40.0,300.0,1.0,0.0
6496,79.0,0.0,300.0,0.0,0.0
6497,74.0,0.0,210.0,5.0,0.0
6498,62.0,100.0,210.0,6.0,0.0
6499,74.0,0.0,210.0,4.0,0.0
6500,50.0,0.0,210.0,7.0,0.0
6501,71.0,0.0,90.0,3.0,0.0
6502,62.0,20.0,210.0,6.0,0.0
6503,71.0,100.0,90.0,4.0,0.0
6504,50.0,0.0,210.0,7.0,0.0
6505,74.0,0.0,210.0,5.0,0.0
6506,67.0,0.0,90.0,1.0,0.0
6507,79.0,0.0,90.0,0.0,0.0
6508,83.0,0.0,90.0,0.0,0.0
6509,67.0,220.0,90.0,3.0,0.0
6510,71.0,0.0,90.0,1.0,0.0
6511,67.0,0.0,90.0,4.0,0.0
6512,50.0,0.0,210.0,6.0,0.0
6513,62.0,40.0,390.0,3.0,0.0
6514,81.0,0.0,390.0,0.0,0.0
6515,38.0,0.0,210.0,7.0,0.0
6516,69.0,0.0,390.0,1.0,0.0
6517,62.0,200.0,210.0,5.0,0.0
6518,62.0,0.0,390.0,4.0,0.0
6519,62.0,0.0,390.0,1.0,0.0
6520,78.0,0.0,390.0,0.0,0.0
6521,50.0,0.0,210.0,6.0,0.0
6522,38.0,0.0,210.0,7.0,0.0
6523,62.0,240.0,210.0,5.0,0.0
6524,50.0,100.0,210.0,6.0,0.0
6525,38.0,0.0,210.0,7.0,0.0
6526,78.0,40.0,390.0,4.0,0.0
6527,69.0,0.0,390.0,4.0,0.0
6528,62.0,0.0,390.0,4.0,0.0
6529,78.0,0.0,390.0,3.0,0.0
6530,69.0,0.0,390.0,3.0,0.0
6531,62.0,0.0,210.0,5.0,0.0
6532,78.0,100.0,300.0,0.0,0.0
6533,81.0,0.0,300.0,0.0,0.0
6534,69.0,0.0,300.0,1.0,0.0
6535,62.0,0.0,300.0,1.0,0.0
6536,62.0,0.0,390.0,3.0,0.0
6537,62.0,20.0,210.0,5.0,0.0
6538,50.0,0.0,210.0,6.0,0.0
6539,38.0,0.0,210.0,7.0,0.0
6540,69.0,420.0,90.0,1.0,0.0
6541,62.0,0.0,90.0,1.0,0.0
6542,78.0,0.0,90.0,0.0,0.0
6543,81.0,0.0,90.0,0.0,0.0
6544,79.0,0.0,390.0,3.0,0.0
6545,71.0,0.0,390.0,3.0,0.0
6546,62.0,0.0,390.0,3.0,0.0
6547,43.0,290.0,5460.0,7.0,0.0
6548,67.0,0.0,390.0,1.0,0.0
6549,59.0,0.0,390.0,1.0,0.0
6550,79.0,0.0,390.0,0.0,0.0
6551,67.0,0.0,390.0,5.0,0.0
6552,79.0,1040.0,390.0,4.0,0.0
6553,67.0,0.0,390.0,4.0,0.0
6554,59.0,0.0,390.0,4.0,0.0
6555,55.0,0.0,5460.0,6.0,0.0
6556,62.0,150.0,810.0,5.0,0.0
6557,71.0,330.0,480.0,3.0,0.0
6558,65.0,0.0,810.0,4.0,0.0
6559,67.0,610.0,480.0,3.0,0.0
6560,60.0,240.0,960.0,5.0,0.0
6561,72.0,310.0,600.0,3.0,0.0
6562,64.0,0.0,960.0,4.0,0.0
6563,69.0,40.0,210.0,3.0,0.0
6564,60.0,240.0,960.0,4.0,0.0
6565,57.0,0.0,960.0,5.0,0.0
6566,67.0,240.0,240.0,3.0,0.0
6567,66.0,240.0,240.0,3.0,0.0
6568,64.0,240.0,240.0,3.0,0.0
6569,66.0,0.0,240.0,3.0,0.0
6570,67.0,240.0,240.0,3.0,0.0
6571,55.0,480.0,960.0,5.0,0.0
6572,59.0,0.0,960.0,4.0,0.0
6573,71.0,400.0,240.0,3.0,0.0
6574,74.0,80.0,390.0,3.0,0.0
6575,71.0,190.0,480.0,3.0,0.0
6576,62.0,0.0,960.0,5.0,0.0
6577,65.0,0.0,960.0,4.0,0.0
6578,67.0,720.0,480.0,3.0,0.0
6579,48.0,240.0,960.0,6.0,0.0
6580,60.0,0.0,810.0,5.0,0.0
6581,72.0,90.0,720.0,3.0,0.0
6582,36.0,0.0,960.0,7.0,0.0
6583,64.0,150.0,810.0,4.0,0.0
6584,69.0,0.0,240.0,3.0,0.0
6585,50.0,120.0,960.0,6.0,0.0
6586,57.0,0.0,240.0,5.0,0.0
6587,38.0,0.0,960.0,7.0,0.0
6588,60.0,240.0,240.0,4.0,0.0
6589,66.0,0.0,240.0,3.0,0.0
6590,59.0,0.0,240.0,4.0,0.0
6591,67.0,120.0,240.0,3.0,0.0
6592,55.0,0.0,240.0,5.0,0.0
6593,60.0,0.0,240.0,4.0,0.0
6594,54.0,120.0,120.0,5.0,0.0
6595,69.0,120.0,240.0,3.0,0.0
6596,71.0,0.0,240.0,3.0,0.0
6597,62.0,0.0,240.0,4.0,0.0
6598,54.0,120.0,120.0,5.0,0.0
6599,67.0,0.0,5460.0,1.0,0.0
6600,55.0,70.0,4650.0,5.0,0.0
6601,43.0,0.0,5460.0,7.0,0.0
6602,59.0,0.0,120.0,4.0,0.0
6603,55.0,50.0,5460.0,6.0,0.0
6604,55.0,0.0,5460.0,1.0,0.0
6605,67.0,120.0,120.0,3.0,0.0
6606,66.0,120.0,120.0,3.0,0.0
6607,60.0,0.0,120.0,4.0,0.0
6608,59.0,0.0,120.0,4.0,0.0
6609,67.0,120.0,120.0,3.0,0.0
6610,60.0,0.0,120.0,4.0,0.0
6611,66.0,240.0,120.0,3.0,0.0
6612,59.0,0.0,240.0,4.0,0.0
6613,67.0,360.0,240.0,3.0,0.0
6614,83.0,0.0,480.0,0.0,0.0
6615,71.0,0.0,480.0,2.0,0.0
6616,62.0,0.0,120.0,4.0,0.0
6617,65.0,120.0,120.0,3.0,0.0
6618,61.0,0.0,120.0,4.0,0.0
6619,64.0,120.0,120.0,3.0,0.0
6620,62.0,120.0,120.0,4.0,0.0
6621,65.0,0.0,120.0,3.0,0.0
6622,61.0,240.0,120.0,4.0,0.0
6623,64.0,0.0,120.0,3.0,0.0
6624,67.0,0.0,480.0,2.0,0.0
6625,79.0,120.0,480.0,0.0,0.0
6626,65.0,0.0,240.0,3.0,0.0
6627,62.0,240.0,240.0,4.0,0.0
6628,84.0,0.0,720.0,0.0,0.0
6629,72.0,240.0,720.0,2.0,0.0
6630,64.0,120.0,120.0,3.0,0.0
6631,60.0,0.0,120.0,4.0,0.0
6632,59.0,0.0,120.0,4.0,0.0
6633,63.0,120.0,120.0,3.0,0.0
6634,64.0,120.0,120.0,3.0,0.0
6635,60.0,0.0,120.0,4.0,0.0
6636,63.0,240.0,120.0,3.0,0.0
6637,59.0,0.0,120.0,4.0,0.0
6638,60.0,0.0,240.0,4.0,0.0
6639,64.0,0.0,240.0,3.0,0.0
6640,81.0,120.0,240.0,0.0,0.0
6641,69.0,0.0,240.0,2.0,0.0
6642,67.0,0.0,240.0,2.0,0.0
6643,69.0,120.0,120.0,3.0,0.0
6644,79.0,0.0,240.0,0.0,0.0
6645,60.0,0.0,120.0,4.0,0.0
6646,59.0,120.0,120.0,4.0,0.0
6647,68.0,0.0,120.0,3.0,0.0
6648,78.0,0.0,240.0,0.0,0.0
6649,66.0,0.0,240.0,2.0,0.0
6650,69.0,0.0,120.0,3.0,0.0
6651,60.0,120.0,120.0,4.0,0.0
6652,68.0,0.0,120.0,3.0,0.0
6653,59.0,120.0,120.0,4.0,0.0
6654,64.0,0.0,240.0,2.0,0.0
6655,69.0,120.0,120.0,3.0,0.0
6656,60.0,0.0,120.0,4.0,0.0
6657,76.0,120.0,240.0,0.0,0.0
6658,64.0,0.0,120.0,4.0,0.0
6659,72.0,0.0,120.0,3.0,0.0
6660,78.0,120.0,240.0,0.0,0.0
6661,62.0,0.0,120.0,4.0,0.0
6662,66.0,0.0,240.0,2.0,0.0
6663,71.0,100.0,120.0,3.0,0.0
6664,60.0,0.0,90.0,4.0,0.0
6665,69.0,20.0,90.0,3.0,0.0
6666,67.0,0.0,120.0,3.0,0.0
6667,79.0,0.0,240.0,0.0,0.0
6668,59.0,120.0,120.0,4.0,0.0
6669,67.0,0.0,240.0,2.0,0.0
6670,66.0,120.0,120.0,3.0,0.0
6671,60.0,0.0,120.0,4.0,0.0
6672,71.0,40.0,210.0,2.0,0.0
6673,83.0,240.0,240.0,0.0,0.0
6674,67.0,80.0,120.0,3.0,0.0
6675,59.0,0.0,120.0,4.0,0.0
6676,66.0,0.0,120.0,3.0,0.0
6677,60.0,0.0,120.0,4.0,0.0
6678,67.0,90.0,240.0,3.0,0.0
6679,74.0,200.0,390.0,2.0,0.0
6680,59.0,0.0,240.0,4.0,0.0
6681,86.0,0.0,390.0,0.0,0.0
6682,77.0,120.0,120.0,3.0,0.0
6683,83.0,0.0,480.0,0.0,0.0
6684,74.0,0.0,120.0,4.0,0.0
6685,71.0,0.0,480.0,2.0,0.0
6686,67.0,0.0,1440.0,5.0,0.0
6687,76.0,120.0,120.0,3.0,0.0
6688,73.0,0.0,120.0,4.0,0.0
6689,77.0,120.0,120.0,3.0,0.0
6690,74.0,0.0,120.0,4.0,0.0
6691,76.0,0.0,120.0,3.0,0.0
6692,73.0,190.0,120.0,4.0,0.0
6693,77.0,0.0,240.0,3.0,0.0
6694,79.0,0.0,390.0,0.0,0.0
6695,67.0,200.0,390.0,2.0,0.0
6696,74.0,160.0,240.0,4.0,0.0
6697,48.0,0.0,960.0,6.0,0.0
6698,36.0,200.0,960.0,7.0,0.0
6699,84.0,0.0,720.0,0.0,0.0
6700,72.0,0.0,120.0,4.0,0.0
6701,76.0,120.0,120.0,3.0,0.0
6702,72.0,0.0,720.0,2.0,0.0
6703,71.0,0.0,120.0,4.0,0.0
6704,75.0,120.0,120.0,3.0,0.0
6705,76.0,120.0,120.0,3.0,0.0
6706,72.0,0.0,120.0,4.0,0.0
6707,71.0,0.0,120.0,4.0,0.0
6708,75.0,240.0,120.0,3.0,0.0
6709,64.0,0.0,480.0,5.0,0.0
6710,72.0,0.0,240.0,4.0,0.0
6711,76.0,240.0,240.0,3.0,0.0
6712,81.0,0.0,240.0,0.0,0.0
6713,69.0,0.0,240.0,2.0,0.0
6714,62.0,0.0,1350.0,5.0,0.0
6715,78.0,40.0,210.0,0.0,0.0
6716,66.0,0.0,210.0,2.0,0.0
6717,50.0,100.0,960.0,6.0,0.0
6718,60.0,200.0,240.0,4.0,0.0
6719,38.0,0.0,960.0,7.0,0.0
6720,69.0,0.0,210.0,3.0,0.0
6721,67.0,0.0,210.0,2.0,0.0
6722,59.0,200.0,240.0,4.0,0.0
6723,79.0,40.0,210.0,0.0,0.0
6724,67.0,0.0,210.0,3.0,0.0
6725,69.0,0.0,210.0,2.0,0.0
6726,81.0,40.0,210.0,0.0,0.0
6727,60.0,200.0,240.0,4.0,0.0
6728,66.0,0.0,210.0,3.0,0.0
6729,66.0,0.0,210.0,3.0,0.0
6730,83.0,0.0,210.0,0.0,0.0
6731,62.0,0.0,210.0,4.0,0.0
6732,71.0,40.0,210.0,2.0,0.0
6733,59.0,100.0,90.0,4.0,0.0
6734,43.0,0.0,390.0,7.0,0.0
6735,67.0,0.0,390.0,2.0,0.0
6736,79.0,20.0,210.0,0.0,0.0
6737,67.0,40.0,390.0,3.0,0.0
6738,55.0,0.0,390.0,6.0,0.0
6739,62.0,120.0,90.0,4.0,0.0
6740,67.0,60.0,90.0,4.0,0.0
6741,62.0,0.0,90.0,1.0,0.0
6742,74.0,20.0,210.0,0.0,0.0
6743,71.0,0.0,90.0,4.0,0.0
6744,62.0,120.0,90.0,1.0,0.0
6745,74.0,20.0,210.0,0.0,0.0
6746,74.0,100.0,90.0,4.0,0.0
6747,62.0,0.0,210.0,1.0,0.0
6748,74.0,120.0,90.0,4.0,0.0
6749,50.0,0.0,210.0,6.0,0.0
6750,62.0,0.0,210.0,5.0,0.0
6751,78.0,100.0,90.0,4.0,0.0
6752,38.0,0.0,210.0,7.0,0.0
6753,62.0,20.0,210.0,1.0,0.0
6754,74.0,0.0,210.0,3.0,0.0
6755,74.0,0.0,210.0,0.0,0.0
6756,86.0,0.0,210.0,3.0,0.0
6757,81.0,120.0,90.0,4.0,0.0
6758,67.0,0.0,210.0,1.0,0.0
6759,55.0,0.0,210.0,6.0,0.0
6760,43.0,0.0,210.0,7.0,0.0
6761,71.0,20.0,210.0,0.0,0.0
6762,74.0,0.0,210.0,3.0,0.0
6763,83.0,0.0,210.0,3.0,0.0
6764,67.0,0.0,210.0,5.0,0.0
6765,79.0,100.0,90.0,4.0,0.0
6766,79.0,0.0,210.0,0.0,0.0
6767,59.0,0.0,210.0,1.0,0.0
6768,74.0,120.0,90.0,4.0,0.0
6769,43.0,20.0,210.0,7.0,0.0
6770,67.0,0.0,210.0,1.0,0.0
6771,79.0,100.0,90.0,4.0,0.0
6772,67.0,0.0,210.0,5.0,0.0
6773,59.0,0.0,210.0,1.0,0.0
6774,83.0,0.0,210.0,3.0,0.0
6775,71.0,0.0,210.0,0.0,0.0
6776,79.0,0.0,210.0,0.0,0.0
6777,55.0,0.0,210.0,6.0,0.0
6778,74.0,0.0,210.0,3.0,0.0
6779,74.0,120.0,90.0,4.0,0.0
6780,78.0,100.0,90.0,4.0,0.0
6781,62.0,0.0,210.0,1.0,0.0
6782,69.0,0.0,210.0,1.0,0.0
6783,84.0,0.0,210.0,3.0,0.0
6784,81.0,20.0,210.0,0.0,0.0
6785,74.0,0.0,210.0,0.0,0.0
6786,62.0,0.0,210.0,5.0,0.0
6787,38.0,0.0,210.0,7.0,0.0
6788,50.0,0.0,210.0,6.0,0.0
6789,74.0,0.0,210.0,3.0,0.0
6790,81.0,120.0,90.0,4.0,0.0
6791,74.0,0.0,210.0,0.0,0.0
6792,69.0,20.0,210.0,1.0,0.0
6793,62.0,0.0,210.0,1.0,0.0
6794,81.0,0.0,210.0,0.0,0.0
6795,84.0,0.0,210.0,3.0,0.0
6796,50.0,0.0,210.0,6.0,0.0
6797,78.0,100.0,90.0,4.0,0.0
6798,62.0,0.0,210.0,5.0,0.0
6799,74.0,0.0,210.0,3.0,0.0
6800,38.0,0.0,210.0,7.0,0.0
6801,81.0,120.0,90.0,4.0,0.0
6802,74.0,0.0,390.0,3.0,0.0
6803,79.0,100.0,90.0,4.0,0.0
6804,67.0,0.0,210.0,1.0,0.0
6805,43.0,40.0,390.0,7.0,0.0
6806,55.0,0.0,390.0,6.0,0.0
6807,67.0,0.0,390.0,5.0,0.0
6808,79.0,20.0,210.0,0.0,0.0
6809,83.0,0.0,390.0,3.0,0.0
6810,71.0,0.0,210.0,1.0,0.0
6811,83.0,0.0,210.0,0.0,0.0
6812,86.0,120.0,90.0,4.0,0.0
6813,83.0,60.0,90.0,4.0,0.0
6814,62.0,0.0,90.0,1.0,0.0
6815,74.0,20.0,210.0,0.0,0.0
6816,62.0,120.0,90.0,1.0,0.0
6817,79.0,0.0,90.0,4.0,0.0
6818,74.0,20.0,210.0,0.0,0.0
6819,74.0,100.0,90.0,4.0,0.0
6820,62.0,0.0,210.0,1.0,0.0
6821,74.0,120.0,90.0,4.0,0.0
6822,74.0,0.0,210.0,3.0,0.0
6823,62.0,0.0,210.0,1.0,0.0
6824,50.0,0.0,210.0,6.0,0.0
6825,78.0,100.0,90.0,4.0,0.0
6826,38.0,20.0,210.0,7.0,0.0
6827,62.0,0.0,210.0,5.0,0.0
6828,81.0,0.0,210.0,3.0,0.0
6829,74.0,0.0,210.0,0.0,0.0
6830,74.0,120.0,90.0,4.0,0.0
6831,71.0,0.0,210.0,3.0,0.0
6832,83.0,0.0,210.0,0.0,0.0
6833,79.0,0.0,210.0,3.0,0.0
6834,79.0,20.0,210.0,0.0,0.0
6835,43.0,0.0,210.0,7.0,0.0
6836,67.0,0.0,210.0,1.0,0.0
6837,55.0,0.0,210.0,6.0,0.0
6838,79.0,100.0,90.0,4.0,0.0
6839,67.0,0.0,210.0,5.0,0.0
6840,71.0,0.0,210.0,1.0,0.0
6841,74.0,120.0,90.0,4.0,0.0
6842,79.0,0.0,210.0,3.0,0.0
6843,79.0,100.0,90.0,4.0,0.0
6844,67.0,0.0,210.0,5.0,0.0
6845,79.0,0.0,210.0,0.0,0.0
6846,43.0,0.0,210.0,7.0,0.0
6847,83.0,0.0,210.0,0.0,0.0
6848,71.0,20.0,210.0,3.0,0.0
6849,71.0,0.0,210.0,1.0,0.0
6850,55.0,0.0,210.0,6.0,0.0
6851,67.0,0.0,210.0,1.0,0.0
6852,74.0,120.0,90.0,4.0,0.0
6853,38.0,0.0,210.0,7.0,0.0
6854,62.0,0.0,210.0,1.0,0.0
6855,50.0,0.0,210.0,6.0,0.0
6856,62.0,0.0,210.0,5.0,0.0
6857,78.0,100.0,90.0,4.0,0.0
6858,69.0,0.0,210.0,1.0,0.0
6859,78.0,0.0,210.0,0.0,0.0
6860,81.0,20.0,210.0,0.0,0.0
6861,81.0,0.0,210.0,3.0,0.0
6862,74.0,0.0,210.0,3.0,0.0
6863,74.0,120.0,90.0,4.0,0.0
6864,69.0,20.0,210.0,1.0,0.0
6865,62.0,0.0,210.0,1.0,0.0
6866,62.0,0.0,210.0,5.0,0.0
6867,81.0,0.0,210.0,0.0,0.0
6868,38.0,0.0,210.0,7.0,0.0
6869,74.0,0.0,210.0,3.0,0.0
6870,81.0,0.0,210.0,3.0,0.0
6871,50.0,0.0,210.0,6.0,0.0
6872,78.0,100.0,90.0,4.0,0.0
6873,78.0,0.0,210.0,0.0,0.0
6874,74.0,220.0,90.0,4.0,0.0
6875,79.0,0.0,390.0,3.0,0.0
6876,71.0,0.0,390.0,3.0,0.0
6877,55.0,0.0,210.0,6.0,0.0
6878,43.0,0.0,210.0,7.0,0.0
6879,59.0,0.0,390.0,1.0,0.0
6880,79.0,0.0,390.0,0.0,0.0
6881,71.0,40.0,390.0,0.0,0.0
6882,55.0,200.0,210.0,5.0,0.0
6883,79.0,0.0,390.0,4.0,0.0
6884,67.0,0.0,390.0,1.0,0.0
6885,59.0,240.0,210.0,5.0,0.0
6886,47.0,0.0,210.0,7.0,0.0
6887,59.0,0.0,210.0,6.0,0.0
6888,50.0,160.0,210.0,7.0,0.0
6889,62.0,0.0,210.0,6.0,0.0
6890,62.0,0.0,210.0,5.0,0.0
6891,86.0,0.0,120.0,3.0,0.0
6892,67.0,0.0,210.0,6.0,0.0
6893,55.0,0.0,210.0,7.0,0.0
6894,83.0,80.0,120.0,4.0,0.0
6895,67.0,40.0,210.0,5.0,0.0
6896,84.0,0.0,120.0,3.0,0.0
6897,81.0,200.0,120.0,4.0,0.0
6898,55.0,200.0,210.0,5.0,0.0
6899,79.0,0.0,390.0,0.0,0.0
6900,71.0,0.0,390.0,0.0,0.0
6901,43.0,0.0,390.0,7.0,0.0
6902,79.0,0.0,390.0,4.0,0.0
6903,83.0,40.0,390.0,3.0,0.0
6904,55.0,0.0,390.0,6.0,0.0
6905,55.0,0.0,210.0,1.0,0.0
6906,59.0,0.0,210.0,1.0,0.0
6907,59.0,240.0,210.0,5.0,0.0
6908,62.0,200.0,210.0,1.0,0.0
6909,83.0,0.0,390.0,0.0,0.0
6910,62.0,0.0,210.0,5.0,0.0
6911,83.0,0.0,390.0,3.0,0.0
6912,79.0,40.0,390.0,4.0,0.0
6913,74.0,0.0,390.0,0.0,0.0
6914,67.0,0.0,210.0,5.0,0.0
6915,67.0,240.0,210.0,1.0,0.0
6916,71.0,40.0,390.0,0.0,0.0
6917,79.0,0.0,390.0,4.0,0.0
6918,79.0,0.0,390.0,0.0,0.0
6919,55.0,0.0,210.0,5.0,0.0
6920,83.0,0.0,390.0,3.0,0.0
6921,55.0,0.0,210.0,6.0,0.0
6922,43.0,200.0,210.0,7.0,0.0
6923,55.0,0.0,390.0,1.0,0.0
6924,47.0,240.0,210.0,7.0,0.0
6925,59.0,0.0,210.0,5.0,0.0
6926,59.0,0.0,210.0,6.0,0.0
6927,62.0,160.0,210.0,6.0,0.0
6928,62.0,0.0,210.0,5.0,0.0
6929,50.0,0.0,210.0,7.0,0.0
6930,55.0,0.0,210.0,7.0,0.0
6931,67.0,40.0,210.0,6.0,0.0
6932,74.0,80.0,120.0,4.0,0.0
6933,83.0,0.0,120.0,3.0,0.0
6934,67.0,0.0,210.0,5.0,0.0
6935,81.0,200.0,120.0,3.0,0.0
6936,72.0,0.0,120.0,4.0,0.0
6937,55.0,0.0,210.0,1.0,0.0
6938,55.0,0.0,390.0,6.0,0.0
6939,71.0,0.0,390.0,0.0,0.0
6940,55.0,200.0,210.0,5.0,0.0
6941,43.0,0.0,390.0,7.0,0.0
6942,71.0,40.0,390.0,4.0,0.0
6943,79.0,0.0,390.0,0.0,0.0
6944,79.0,0.0,390.0,3.0,0.0
6945,59.0,240.0,210.0,1.0,0.0
6946,59.0,0.0,210.0,5.0,0.0
6947,83.0,0.0,390.0,0.0,0.0
6948,74.0,0.0,390.0,0.0,0.0
6949,71.0,0.0,390.0,4.0,0.0
6950,79.0,40.0,390.0,3.0,0.0
6951,62.0,200.0,210.0,5.0,0.0
6952,62.0,0.0,210.0,1.0,0.0
6953,67.0,0.0,210.0,5.0,0.0
6954,67.0,440.0,210.0,1.0,0.0
6955,55.0,0.0,390.0,5.0,0.0
6956,43.0,0.0,390.0,7.0,0.0
6957,55.0,0.0,390.0,1.0,0.0
6958,79.0,0.0,390.0,3.0,0.0
6959,79.0,0.0,390.0,0.0,0.0
6960,71.0,0.0,390.0,0.0,0.0
6961,55.0,480.0,390.0,6.0,0.0
6962,71.0,0.0,390.0,4.0,0.0
6963,55.0,0.0,390.0,7.0,0.0
6964,67.0,480.0,390.0,5.0,0.0
6965,67.0,0.0,390.0,6.0,0.0
6966,83.0,0.0,390.0,0.0,0.0
6967,74.0,480.0,390.0,3.0,0.0
6968,50.0,0.0,390.0,7.0,0.0
6969,83.0,0.0,390.0,3.0,0.0
6970,59.0,0.0,390.0,1.0,0.0
6971,79.0,0.0,390.0,4.0,0.0
6972,71.0,0.0,390.0,4.0,0.0
6973,62.0,0.0,390.0,4.0,0.0
6974,74.0,0.0,390.0,0.0,0.0
6975,62.0,0.0,390.0,5.0,0.0
6976,62.0,0.0,390.0,6.0,0.0
6977,67.0,0.0,390.0,1.0,0.0
6978,67.0,0.0,390.0,3.0,0.0
6979,59.0,0.0,390.0,6.0,0.0
6980,47.0,890.0,390.0,7.0,0.0
6981,59.0,0.0,390.0,5.0,0.0
6982,79.0,0.0,810.0,0.0,0.0
6983,67.0,0.0,810.0,4.0,0.0
6984,59.0,0.0,810.0,4.0,0.0
6985,43.0,0.0,810.0,7.0,0.0
6986,59.0,0.0,810.0,3.0,0.0
6987,67.0,0.0,810.0,3.0,0.0
6988,59.0,1170.0,810.0,1.0,0.0
6989,67.0,0.0,810.0,1.0,0.0
6990,55.0,0.0,810.0,6.0,0.0
6991,71.0,0.0,810.0,0.0,0.0
6992,55.0,0.0,810.0,5.0,0.0
