,note,step,duration,channel,velocity
0,59.0,0.0,900.0,10.0,0.0
1,51.0,0.0,900.0,10.0,0.0
2,47.0,0.0,900.0,13.0,0.0
3,83.0,0.0,900.0,0.0,0.0
4,47.0,424.0,450.0,5.0,0.0
5,59.0,0.0,900.0,11.0,0.0
6,51.0,28.0,900.0,11.0,0.0
7,66.0,0.0,900.0,3.0,0.0
8,47.0,0.0,900.0,2.0,0.0
9,71.0,0.0,900.0,4.0,0.0
10,59.0,0.0,900.0,4.0,0.0
11,35.0,0.0,900.0,14.0,0.0
12,54.0,0.0,900.0,12.0,0.0
13,75.0,0.0,900.0,1.0,0.0
14,78.0,0.0,900.0,1.0,0.0
15,63.0,0.0,900.0,3.0,0.0
16,59.0,0.0,900.0,2.0,0.0
17,47.0,32.0,30.0,5.0,0.0
18,47.0,404.0,30.0,5.0,0.0
19,54.0,0.0,750.0,3.0,0.0
20,59.0,0.0,750.0,10.0,0.0
21,23.0,0.0,750.0,14.0,0.0
22,59.0,0.0,750.0,4.0,0.0
23,51.0,0.0,750.0,10.0,0.0
24,66.0,12.0,750.0,1.0,0.0
25,63.0,0.0,750.0,1.0,0.0
26,51.0,0.0,750.0,3.0,0.0
27,71.0,0.0,750.0,4.0,0.0
28,35.0,0.0,750.0,13.0,0.0
29,59.0,0.0,750.0,11.0,0.0
30,51.0,0.0,750.0,11.0,0.0
31,47.0,0.0,750.0,2.0,0.0
32,59.0,0.0,750.0,2.0,0.0
33,47.0,372.0,390.0,5.0,0.0
34,54.0,0.0,750.0,12.0,0.0
35,71.0,0.0,750.0,0.0,0.0
36,47.0,150.0,300.0,5.0,0.0
37,59.0,0.0,90.0,11.0,0.0
38,54.0,0.0,90.0,3.0,0.0
39,71.0,0.0,90.0,4.0,0.0
40,59.0,18.0,90.0,4.0,0.0
41,51.0,0.0,90.0,11.0,0.0
42,35.0,0.0,90.0,13.0,0.0
43,51.0,0.0,90.0,3.0,0.0
44,63.0,0.0,90.0,1.0,0.0
45,47.0,0.0,90.0,2.0,0.0
46,54.0,0.0,90.0,12.0,0.0
47,23.0,0.0,90.0,14.0,0.0
48,59.0,0.0,90.0,2.0,0.0
49,66.0,0.0,90.0,1.0,0.0
50,71.0,0.0,90.0,0.0,0.0
51,51.0,0.0,90.0,10.0,0.0
52,47.0,452.0,90.0,5.0,0.0
53,59.0,0.0,90.0,10.0,0.0
54,59.0,0.0,810.0,11.0,0.0
55,51.0,0.0,810.0,11.0,0.0
56,47.0,330.0,450.0,5.0,0.0
57,71.0,0.0,420.0,0.0,0.0
58,54.0,0.0,420.0,3.0,0.0
59,35.0,0.0,810.0,13.0,0.0
60,47.0,0.0,420.0,2.0,0.0
61,59.0,0.0,420.0,2.0,0.0
62,54.0,0.0,810.0,12.0,0.0
63,66.0,28.0,420.0,1.0,0.0
64,51.0,0.0,420.0,3.0,0.0
65,63.0,0.0,420.0,1.0,0.0
66,71.0,0.0,420.0,4.0,0.0
67,23.0,0.0,810.0,14.0,0.0
68,51.0,126.0,810.0,10.0,0.0
69,59.0,0.0,810.0,10.0,0.0
70,59.0,0.0,420.0,4.0,0.0
71,47.0,0.0,300.0,2.0,0.0
72,71.0,0.0,300.0,0.0,0.0
73,66.0,30.0,300.0,1.0,0.0
74,63.0,0.0,300.0,1.0,0.0
75,51.0,0.0,300.0,3.0,0.0
76,54.0,0.0,300.0,3.0,0.0
77,59.0,0.0,300.0,2.0,0.0
78,66.0,318.0,90.0,1.0,0.0
79,63.0,0.0,90.0,1.0,0.0
80,54.0,0.0,90.0,3.0,0.0
81,51.0,0.0,90.0,3.0,0.0
82,47.0,0.0,90.0,2.0,0.0
83,71.0,0.0,90.0,0.0,0.0
84,59.0,0.0,90.0,2.0,0.0
85,63.0,0.0,390.0,1.0,0.0
86,51.0,0.0,390.0,3.0,0.0
87,54.0,0.0,390.0,3.0,0.0
88,66.0,36.0,390.0,1.0,0.0
89,71.0,0.0,390.0,0.0,0.0
90,59.0,0.0,390.0,2.0,0.0
91,47.0,0.0,390.0,2.0,0.0
92,78.0,60.0,60.0,10.0,0.0
93,78.0,0.0,60.0,11.0,0.0
94,76.0,24.0,60.0,11.0,0.0
95,76.0,0.0,60.0,10.0,0.0
96,75.0,0.0,60.0,11.0,0.0
97,75.0,60.0,60.0,10.0,0.0
98,73.0,0.0,60.0,11.0,0.0
99,73.0,60.0,60.0,10.0,0.0
100,66.0,0.0,390.0,1.0,0.0
101,47.0,0.0,390.0,2.0,0.0
102,51.0,0.0,390.0,3.0,0.0
103,59.0,0.0,390.0,2.0,0.0
104,54.0,0.0,390.0,3.0,0.0
105,63.0,0.0,390.0,1.0,0.0
106,71.0,60.0,60.0,10.0,0.0
107,71.0,36.0,390.0,0.0,0.0
108,71.0,0.0,60.0,11.0,0.0
109,70.0,0.0,60.0,10.0,0.0
110,70.0,60.0,60.0,11.0,0.0
111,68.0,60.0,60.0,10.0,0.0
112,68.0,0.0,60.0,11.0,0.0
113,66.0,0.0,60.0,10.0,0.0
114,66.0,60.0,60.0,11.0,0.0
115,64.0,60.0,60.0,10.0,0.0
116,64.0,0.0,60.0,11.0,0.0
117,63.0,0.0,60.0,11.0,0.0
118,63.0,24.0,60.0,10.0,0.0
119,61.0,60.0,60.0,11.0,0.0
120,61.0,0.0,60.0,10.0,0.0
121,59.0,0.0,60.0,11.0,0.0
122,59.0,384.0,60.0,10.0,0.0
123,42.0,0.0,900.0,3.0,0.0
124,54.0,0.0,900.0,3.0,0.0
125,76.0,0.0,900.0,1.0,0.0
126,61.0,0.0,900.0,2.0,0.0
127,37.0,0.0,900.0,14.0,0.0
128,54.0,0.0,900.0,12.0,0.0
129,58.0,28.0,900.0,11.0,0.0
130,52.0,0.0,900.0,11.0,0.0
131,54.0,0.0,900.0,4.0,0.0
132,78.0,0.0,900.0,1.0,0.0
133,82.0,0.0,900.0,0.0,0.0
134,49.0,0.0,900.0,13.0,0.0
135,52.0,0.0,900.0,10.0,0.0
136,58.0,0.0,900.0,10.0,0.0
137,49.0,0.0,900.0,2.0,0.0
138,42.0,496.0,390.0,5.0,0.0
139,66.0,0.0,900.0,4.0,0.0
140,42.0,32.0,30.0,5.0,0.0
141,42.0,404.0,30.0,5.0,0.0
142,58.0,0.0,750.0,11.0,0.0
143,52.0,0.0,750.0,11.0,0.0
144,54.0,12.0,750.0,4.0,0.0
145,66.0,0.0,750.0,4.0,0.0
146,52.0,0.0,750.0,10.0,0.0
147,58.0,0.0,750.0,10.0,0.0
148,61.0,0.0,750.0,2.0,0.0
149,49.0,0.0,750.0,2.0,0.0
150,54.0,0.0,750.0,12.0,0.0
151,54.0,0.0,750.0,3.0,0.0
152,25.0,0.0,750.0,14.0,0.0
153,42.0,0.0,750.0,3.0,0.0
154,64.0,0.0,750.0,1.0,0.0
155,66.0,0.0,750.0,1.0,0.0
156,37.0,0.0,750.0,13.0,0.0
157,70.0,0.0,750.0,0.0,0.0
158,42.0,372.0,390.0,5.0,0.0
159,42.0,150.0,300.0,5.0,0.0
160,42.0,408.0,90.0,5.0,0.0
161,54.0,0.0,90.0,12.0,0.0
162,64.0,0.0,90.0,1.0,0.0
163,49.0,0.0,90.0,2.0,0.0
164,54.0,0.0,90.0,3.0,0.0
165,61.0,0.0,90.0,2.0,0.0
166,25.0,0.0,90.0,14.0,0.0
167,66.0,0.0,90.0,1.0,0.0
168,42.0,0.0,90.0,3.0,0.0
169,37.0,0.0,90.0,13.0,0.0
170,58.0,18.0,90.0,11.0,0.0
171,52.0,0.0,90.0,11.0,0.0
172,66.0,0.0,90.0,4.0,0.0
173,54.0,0.0,90.0,4.0,0.0
174,70.0,0.0,90.0,0.0,0.0
175,52.0,0.0,90.0,10.0,0.0
176,58.0,0.0,90.0,10.0,0.0
177,54.0,0.0,390.0,3.0,0.0
178,42.0,0.0,390.0,5.0,0.0
179,37.0,0.0,780.0,13.0,0.0
180,66.0,0.0,390.0,4.0,0.0
181,54.0,0.0,390.0,4.0,0.0
182,52.0,0.0,780.0,10.0,0.0
183,70.0,0.0,390.0,0.0,0.0
184,66.0,384.0,390.0,1.0,0.0
185,64.0,0.0,390.0,1.0,0.0
186,58.0,0.0,780.0,10.0,0.0
187,54.0,0.0,780.0,12.0,0.0
188,25.0,0.0,780.0,14.0,0.0
189,52.0,0.0,780.0,11.0,0.0
190,58.0,0.0,780.0,11.0,0.0
191,49.0,0.0,390.0,2.0,0.0
192,42.0,0.0,390.0,3.0,0.0
193,61.0,0.0,390.0,2.0,0.0
194,61.0,0.0,300.0,2.0,0.0
195,70.0,150.0,300.0,0.0,0.0
196,49.0,0.0,300.0,2.0,0.0
197,66.0,0.0,300.0,1.0,0.0
198,64.0,0.0,300.0,1.0,0.0
199,66.0,0.0,90.0,1.0,0.0
200,61.0,0.0,90.0,2.0,0.0
201,49.0,0.0,90.0,2.0,0.0
202,70.0,342.0,90.0,0.0,0.0
203,64.0,0.0,90.0,1.0,0.0
204,61.0,36.0,390.0,2.0,0.0
205,64.0,0.0,390.0,1.0,0.0
206,66.0,0.0,390.0,1.0,0.0
207,49.0,0.0,390.0,2.0,0.0
208,70.0,0.0,390.0,0.0,0.0
209,80.0,60.0,60.0,10.0,0.0
210,80.0,0.0,60.0,11.0,0.0
211,78.0,24.0,60.0,11.0,0.0
212,78.0,0.0,60.0,10.0,0.0
213,76.0,60.0,60.0,11.0,0.0
214,76.0,0.0,60.0,10.0,0.0
215,75.0,0.0,60.0,10.0,0.0
216,75.0,60.0,60.0,11.0,0.0
217,64.0,36.0,390.0,1.0,0.0
218,66.0,0.0,390.0,1.0,0.0
219,73.0,0.0,60.0,11.0,0.0
220,49.0,0.0,390.0,2.0,0.0
221,61.0,0.0,390.0,2.0,0.0
222,73.0,60.0,60.0,10.0,0.0
223,70.0,0.0,390.0,0.0,0.0
224,71.0,60.0,60.0,11.0,0.0
225,71.0,0.0,60.0,10.0,0.0
226,70.0,60.0,60.0,10.0,0.0
227,70.0,0.0,60.0,11.0,0.0
228,68.0,0.0,60.0,11.0,0.0
229,68.0,60.0,60.0,10.0,0.0
230,66.0,60.0,60.0,11.0,0.0
231,66.0,0.0,60.0,10.0,0.0
232,64.0,24.0,60.0,10.0,0.0
233,64.0,0.0,60.0,11.0,0.0
234,63.0,48.0,60.0,11.0,0.0
235,63.0,0.0,60.0,10.0,0.0
236,61.0,396.0,60.0,11.0,0.0
237,61.0,0.0,60.0,10.0,0.0
238,39.0,0.0,900.0,14.0,0.0
239,84.0,0.0,900.0,0.0,0.0
240,42.0,0.0,900.0,3.0,0.0
241,60.0,0.0,900.0,11.0,0.0
242,51.0,0.0,900.0,10.0,0.0
243,60.0,0.0,900.0,10.0,0.0
244,51.0,0.0,900.0,2.0,0.0
245,63.0,0.0,900.0,2.0,0.0
246,51.0,0.0,900.0,11.0,0.0
247,66.0,0.0,900.0,4.0,0.0
248,54.0,0.0,900.0,4.0,0.0
249,78.0,28.0,900.0,1.0,0.0
250,72.0,0.0,900.0,1.0,0.0
251,51.0,0.0,900.0,13.0,0.0
252,42.0,496.0,390.0,5.0,0.0
253,57.0,0.0,900.0,12.0,0.0
254,54.0,0.0,900.0,3.0,0.0
255,42.0,32.0,30.0,5.0,0.0
256,42.0,404.0,30.0,5.0,0.0
257,27.0,0.0,750.0,14.0,0.0
258,54.0,0.0,750.0,3.0,0.0
259,54.0,0.0,750.0,4.0,0.0
260,66.0,0.0,750.0,4.0,0.0
261,42.0,0.0,750.0,3.0,0.0
262,72.0,0.0,750.0,0.0,0.0
263,51.0,0.0,750.0,2.0,0.0
264,42.0,372.0,390.0,5.0,0.0
265,66.0,0.0,750.0,1.0,0.0
266,57.0,0.0,750.0,12.0,0.0
267,60.0,0.0,750.0,11.0,0.0
268,51.0,0.0,750.0,11.0,0.0
269,51.0,0.0,750.0,10.0,0.0
270,39.0,12.0,750.0,13.0,0.0
271,60.0,0.0,750.0,10.0,0.0
272,69.0,0.0,750.0,1.0,0.0
273,63.0,0.0,750.0,2.0,0.0
274,42.0,162.0,300.0,5.0,0.0
275,51.0,0.0,90.0,11.0,0.0
276,60.0,0.0,90.0,11.0,0.0
277,63.0,0.0,90.0,2.0,0.0
278,66.0,0.0,90.0,1.0,0.0
279,51.0,0.0,90.0,2.0,0.0
280,72.0,0.0,90.0,0.0,0.0
281,39.0,0.0,90.0,13.0,0.0
282,54.0,0.0,90.0,4.0,0.0
283,69.0,6.0,90.0,1.0,0.0
284,57.0,0.0,90.0,12.0,0.0
285,51.0,0.0,90.0,10.0,0.0
286,60.0,0.0,90.0,10.0,0.0
287,42.0,0.0,90.0,3.0,0.0
288,54.0,0.0,90.0,3.0,0.0
289,27.0,0.0,90.0,14.0,0.0
290,42.0,408.0,90.0,5.0,0.0
291,66.0,0.0,90.0,4.0,0.0
292,69.0,0.0,390.0,1.0,0.0
293,60.0,168.0,780.0,11.0,0.0
294,57.0,0.0,780.0,12.0,0.0
295,51.0,0.0,780.0,11.0,0.0
296,51.0,0.0,390.0,2.0,0.0
297,63.0,0.0,390.0,2.0,0.0
298,66.0,0.0,390.0,1.0,0.0
299,27.0,0.0,780.0,14.0,0.0
300,39.0,0.0,780.0,13.0,0.0
301,51.0,0.0,780.0,10.0,0.0
302,72.0,0.0,390.0,0.0,0.0
303,42.0,0.0,390.0,3.0,0.0
304,42.0,0.0,390.0,5.0,0.0
305,54.0,0.0,390.0,3.0,0.0
306,54.0,0.0,390.0,4.0,0.0
307,60.0,0.0,780.0,10.0,0.0
308,66.0,384.0,390.0,4.0,0.0
309,57.0,0.0,300.0,2.0,0.0
310,66.0,0.0,300.0,1.0,0.0
311,69.0,0.0,300.0,1.0,0.0
312,72.0,0.0,300.0,0.0,0.0
313,63.0,0.0,300.0,2.0,0.0
314,54.0,0.0,300.0,3.0,0.0
315,51.0,0.0,300.0,3.0,0.0
316,51.0,0.0,90.0,3.0,0.0
317,54.0,0.0,90.0,3.0,0.0
318,72.0,0.0,90.0,0.0,0.0
319,57.0,0.0,90.0,2.0,0.0
320,63.0,324.0,90.0,2.0,0.0
321,69.0,0.0,90.0,1.0,0.0
322,66.0,0.0,90.0,1.0,0.0
323,63.0,36.0,390.0,2.0,0.0
324,66.0,0.0,390.0,1.0,0.0
325,69.0,0.0,390.0,1.0,0.0
326,72.0,0.0,390.0,0.0,0.0
327,57.0,0.0,390.0,2.0,0.0
328,51.0,0.0,390.0,3.0,0.0
329,54.0,0.0,390.0,3.0,0.0
330,81.0,0.0,60.0,10.0,0.0
331,81.0,60.0,60.0,11.0,0.0
332,80.0,24.0,60.0,10.0,0.0
333,80.0,0.0,60.0,11.0,0.0
334,78.0,0.0,60.0,11.0,0.0
335,78.0,60.0,60.0,10.0,0.0
336,76.0,0.0,60.0,11.0,0.0
337,76.0,60.0,60.0,10.0,0.0
338,63.0,0.0,390.0,2.0,0.0
339,75.0,0.0,60.0,10.0,0.0
340,57.0,0.0,390.0,2.0,0.0
341,75.0,60.0,60.0,11.0,0.0
342,72.0,0.0,390.0,0.0,0.0
343,51.0,0.0,390.0,3.0,0.0
344,54.0,0.0,390.0,3.0,0.0
345,66.0,36.0,390.0,1.0,0.0
346,69.0,0.0,390.0,1.0,0.0
347,73.0,0.0,60.0,11.0,0.0
348,73.0,60.0,60.0,10.0,0.0
349,72.0,60.0,60.0,11.0,0.0
350,72.0,0.0,60.0,10.0,0.0
351,69.0,0.0,60.0,11.0,0.0
352,69.0,60.0,60.0,10.0,0.0
353,68.0,0.0,60.0,10.0,0.0
354,68.0,60.0,60.0,11.0,0.0
355,66.0,24.0,60.0,11.0,0.0
356,66.0,0.0,60.0,10.0,0.0
357,64.0,48.0,60.0,10.0,0.0
358,64.0,0.0,60.0,11.0,0.0
359,63.0,0.0,60.0,11.0,0.0
360,63.0,252.0,60.0,10.0,0.0
361,68.0,0.0,390.0,1.0,0.0
362,28.0,0.0,390.0,14.0,0.0
363,61.0,0.0,390.0,11.0,0.0
364,56.0,0.0,390.0,2.0,0.0
365,64.0,0.0,390.0,2.0,0.0
366,73.0,0.0,390.0,0.0,0.0
367,64.0,0.0,390.0,1.0,0.0
368,61.0,144.0,240.0,10.0,0.0
369,56.0,0.0,390.0,12.0,0.0
370,40.0,336.0,390.0,13.0,0.0
371,67.0,480.0,480.0,10.0,0.0
372,68.0,144.0,480.0,10.0,0.0
373,52.0,0.0,390.0,13.0,0.0
374,40.0,336.0,390.0,14.0,0.0
375,61.0,0.0,390.0,12.0,0.0
376,64.0,0.0,390.0,11.0,0.0
377,72.0,432.0,480.0,10.0,0.0
378,73.0,432.0,480.0,10.0,0.0
379,68.0,48.0,180.0,11.0,0.0
380,28.0,0.0,180.0,14.0,0.0
381,64.0,0.0,180.0,12.0,0.0
382,40.0,0.0,180.0,13.0,0.0
383,76.0,432.0,480.0,10.0,0.0
384,52.0,48.0,180.0,13.0,0.0
385,73.0,0.0,180.0,11.0,0.0
386,40.0,0.0,180.0,14.0,0.0
387,68.0,0.0,180.0,12.0,0.0
388,79.0,432.0,480.0,10.0,0.0
389,28.0,0.0,180.0,14.0,0.0
390,73.0,0.0,180.0,12.0,0.0
391,40.0,0.0,180.0,13.0,0.0
392,76.0,48.0,180.0,11.0,0.0
393,80.0,228.0,480.0,10.0,0.0
394,40.0,48.0,180.0,13.0,0.0
395,61.0,0.0,180.0,12.0,0.0
396,28.0,0.0,180.0,14.0,0.0
397,68.0,0.0,180.0,11.0,0.0
398,71.0,36.0,240.0,10.0,0.0
399,42.0,0.0,9510.0,3.0,0.0
400,61.0,12.0,180.0,12.0,0.0
401,54.0,0.0,780.0,4.0,0.0
402,70.0,6.0,780.0,10.0,0.0
403,42.0,0.0,180.0,13.0,0.0
404,66.0,0.0,780.0,11.0,0.0
405,66.0,0.0,780.0,4.0,0.0
406,42.0,30.0,20.0,5.0,0.0
407,30.0,0.0,180.0,14.0,0.0
408,54.0,0.0,9510.0,3.0,0.0
409,42.0,30.0,20.0,5.0,0.0
410,42.0,30.0,20.0,5.0,0.0
411,42.0,30.0,20.0,5.0,0.0
412,42.0,30.0,20.0,5.0,0.0
413,42.0,18.0,20.0,5.0,0.0
414,42.0,30.0,20.0,5.0,0.0
415,42.0,30.0,20.0,5.0,0.0
416,42.0,30.0,20.0,5.0,0.0
417,42.0,30.0,20.0,5.0,0.0
418,42.0,30.0,20.0,5.0,0.0
419,42.0,30.0,20.0,5.0,0.0
420,42.0,30.0,20.0,5.0,0.0
421,42.0,0.0,90.0,13.0,0.0
422,30.0,0.0,90.0,14.0,0.0
423,54.0,18.0,90.0,12.0,0.0
424,42.0,30.0,20.0,5.0,0.0
425,42.0,12.0,20.0,5.0,0.0
426,42.0,30.0,20.0,5.0,0.0
427,30.0,0.0,180.0,14.0,0.0
428,42.0,0.0,180.0,13.0,0.0
429,54.0,12.0,180.0,12.0,0.0
430,42.0,30.0,20.0,5.0,0.0
431,42.0,30.0,20.0,5.0,0.0
432,42.0,30.0,20.0,5.0,0.0
433,42.0,30.0,20.0,5.0,0.0
434,42.0,30.0,20.0,5.0,0.0
435,42.0,18.0,20.0,5.0,0.0
436,42.0,30.0,20.0,5.0,0.0
437,42.0,30.0,20.0,5.0,0.0
438,42.0,24.0,20.0,5.0,0.0
439,42.0,30.0,20.0,5.0,0.0
440,42.0,30.0,20.0,5.0,0.0
441,42.0,30.0,20.0,5.0,0.0
442,42.0,30.0,20.0,5.0,0.0
443,42.0,0.0,90.0,13.0,0.0
444,54.0,0.0,90.0,12.0,0.0
445,30.0,18.0,90.0,14.0,0.0
446,42.0,30.0,20.0,5.0,0.0
447,42.0,12.0,20.0,5.0,0.0
448,42.0,60.0,20.0,5.0,0.0
449,30.0,0.0,180.0,14.0,0.0
450,66.0,0.0,1920.0,1.0,0.0
451,61.0,0.0,900.0,2.0,0.0
452,58.0,12.0,900.0,2.0,0.0
453,54.0,0.0,180.0,12.0,0.0
454,42.0,12.0,180.0,13.0,0.0
455,42.0,30.0,20.0,5.0,0.0
456,42.0,30.0,20.0,5.0,0.0
457,42.0,30.0,20.0,5.0,0.0
458,42.0,30.0,20.0,5.0,0.0
459,42.0,18.0,20.0,5.0,0.0
460,42.0,30.0,20.0,5.0,0.0
461,42.0,30.0,20.0,5.0,0.0
462,42.0,30.0,20.0,5.0,0.0
463,42.0,30.0,20.0,5.0,0.0
464,42.0,30.0,20.0,5.0,0.0
465,42.0,30.0,20.0,5.0,0.0
466,42.0,0.0,90.0,13.0,0.0
467,30.0,0.0,90.0,14.0,0.0
468,54.0,18.0,90.0,12.0,0.0
469,42.0,30.0,20.0,5.0,0.0
470,42.0,30.0,20.0,5.0,0.0
471,42.0,12.0,20.0,5.0,0.0
472,42.0,30.0,20.0,5.0,0.0
473,30.0,0.0,180.0,14.0,0.0
474,54.0,12.0,180.0,12.0,0.0
475,42.0,0.0,180.0,13.0,0.0
476,42.0,30.0,20.0,5.0,0.0
477,42.0,30.0,20.0,5.0,0.0
478,42.0,30.0,20.0,5.0,0.0
479,42.0,30.0,20.0,5.0,0.0
480,42.0,30.0,20.0,5.0,0.0
481,42.0,18.0,20.0,5.0,0.0
482,42.0,30.0,20.0,5.0,0.0
483,42.0,30.0,20.0,5.0,0.0
484,42.0,30.0,20.0,5.0,0.0
485,42.0,30.0,20.0,5.0,0.0
486,42.0,30.0,20.0,5.0,0.0
487,42.0,30.0,20.0,5.0,0.0
488,42.0,30.0,20.0,5.0,0.0
489,54.0,0.0,90.0,12.0,0.0
490,30.0,0.0,90.0,14.0,0.0
491,42.0,18.0,90.0,13.0,0.0
492,42.0,18.0,20.0,5.0,0.0
493,42.0,12.0,20.0,5.0,0.0
494,42.0,30.0,20.0,5.0,0.0
495,42.0,0.0,180.0,13.0,0.0
496,54.0,6.0,780.0,4.0,0.0
497,66.0,0.0,780.0,4.0,0.0
498,68.0,12.0,1860.0,1.0,0.0
499,60.0,54.0,960.0,2.0,0.0
500,30.0,12.0,180.0,14.0,0.0
501,63.0,0.0,960.0,2.0,0.0
502,42.0,30.0,20.0,5.0,0.0
503,54.0,0.0,180.0,12.0,0.0
504,42.0,30.0,20.0,5.0,0.0
505,42.0,30.0,20.0,5.0,0.0
506,42.0,30.0,20.0,5.0,0.0
507,42.0,30.0,20.0,5.0,0.0
508,42.0,18.0,20.0,5.0,0.0
509,42.0,30.0,20.0,5.0,0.0
510,42.0,30.0,20.0,5.0,0.0
511,42.0,30.0,20.0,5.0,0.0
512,75.0,24.0,240.0,0.0,0.0
513,42.0,30.0,20.0,5.0,0.0
514,42.0,30.0,20.0,5.0,0.0
515,42.0,30.0,20.0,5.0,0.0
516,30.0,18.0,90.0,14.0,0.0
517,42.0,0.0,90.0,13.0,0.0
518,42.0,30.0,20.0,5.0,0.0
519,54.0,0.0,90.0,12.0,0.0
520,42.0,30.0,20.0,5.0,0.0
521,42.0,12.0,20.0,5.0,0.0
522,42.0,6.0,20.0,5.0,0.0
523,54.0,0.0,180.0,12.0,0.0
524,42.0,0.0,180.0,13.0,0.0
525,72.0,24.0,240.0,0.0,0.0
526,42.0,30.0,20.0,5.0,0.0
527,30.0,12.0,180.0,14.0,0.0
528,42.0,30.0,20.0,5.0,0.0
529,42.0,30.0,20.0,5.0,0.0
530,42.0,30.0,20.0,5.0,0.0
531,42.0,30.0,20.0,5.0,0.0
532,42.0,18.0,20.0,5.0,0.0
533,42.0,30.0,20.0,5.0,0.0
534,42.0,6.0,20.0,5.0,0.0
535,68.0,12.0,180.0,0.0,0.0
536,42.0,24.0,20.0,5.0,0.0
537,42.0,30.0,20.0,5.0,0.0
538,42.0,30.0,20.0,5.0,0.0
539,42.0,30.0,20.0,5.0,0.0
540,42.0,0.0,90.0,13.0,0.0
541,42.0,30.0,20.0,5.0,0.0
542,30.0,18.0,90.0,14.0,0.0
543,54.0,0.0,90.0,12.0,0.0
544,42.0,18.0,20.0,5.0,0.0
545,42.0,12.0,20.0,5.0,0.0
546,42.0,6.0,20.0,5.0,0.0
547,54.0,0.0,180.0,12.0,0.0
548,64.0,0.0,1920.0,1.0,0.0
549,42.0,0.0,180.0,13.0,0.0
550,30.0,12.0,180.0,14.0,0.0
551,61.0,54.0,1920.0,2.0,0.0
552,42.0,30.0,20.0,5.0,0.0
553,42.0,30.0,20.0,5.0,0.0
554,42.0,30.0,20.0,5.0,0.0
555,42.0,30.0,20.0,5.0,0.0
556,42.0,18.0,20.0,5.0,0.0
557,42.0,30.0,20.0,5.0,0.0
558,42.0,30.0,20.0,5.0,0.0
559,76.0,24.0,240.0,0.0,0.0
560,42.0,30.0,20.0,5.0,0.0
561,80.0,24.0,60.0,10.0,0.0
562,42.0,6.0,20.0,5.0,0.0
563,78.0,24.0,60.0,10.0,0.0
564,42.0,30.0,20.0,5.0,0.0
565,42.0,6.0,20.0,5.0,0.0
566,54.0,18.0,90.0,12.0,0.0
567,42.0,0.0,90.0,13.0,0.0
568,30.0,0.0,90.0,14.0,0.0
569,76.0,24.0,60.0,10.0,0.0
570,42.0,30.0,20.0,5.0,0.0
571,42.0,6.0,20.0,5.0,0.0
572,75.0,0.0,60.0,10.0,0.0
573,42.0,12.0,20.0,5.0,0.0
574,42.0,6.0,20.0,5.0,0.0
575,42.0,30.0,20.0,5.0,0.0
576,42.0,0.0,180.0,13.0,0.0
577,73.0,24.0,60.0,10.0,0.0
578,80.0,0.0,240.0,0.0,0.0
579,30.0,12.0,180.0,14.0,0.0
580,54.0,0.0,180.0,12.0,0.0
581,42.0,6.0,20.0,5.0,0.0
582,42.0,30.0,20.0,5.0,0.0
583,71.0,24.0,60.0,10.0,0.0
584,42.0,6.0,20.0,5.0,0.0
585,42.0,30.0,20.0,5.0,0.0
586,70.0,12.0,60.0,10.0,0.0
587,42.0,6.0,20.0,5.0,0.0
588,68.0,24.0,60.0,10.0,0.0
589,42.0,30.0,20.0,5.0,0.0
590,42.0,6.0,20.0,5.0,0.0
591,85.0,0.0,180.0,0.0,0.0
592,42.0,30.0,20.0,5.0,0.0
593,66.0,24.0,60.0,10.0,0.0
594,42.0,6.0,20.0,5.0,0.0
595,64.0,24.0,60.0,10.0,0.0
596,42.0,30.0,20.0,5.0,0.0
597,42.0,6.0,20.0,5.0,0.0
598,30.0,0.0,90.0,14.0,0.0
599,63.0,12.0,60.0,10.0,0.0
600,42.0,30.0,20.0,5.0,0.0
601,42.0,0.0,90.0,13.0,0.0
602,54.0,12.0,90.0,12.0,0.0
603,42.0,6.0,20.0,5.0,0.0
604,61.0,6.0,60.0,10.0,0.0
605,42.0,12.0,20.0,5.0,0.0
606,42.0,30.0,20.0,5.0,0.0
607,42.0,0.0,180.0,13.0,0.0
608,54.0,0.0,780.0,4.0,0.0
609,30.0,12.0,180.0,14.0,0.0
610,42.0,30.0,20.0,5.0,0.0
611,66.0,12.0,1860.0,1.0,0.0
612,58.0,0.0,960.0,2.0,0.0
613,66.0,0.0,780.0,4.0,0.0
614,66.0,6.0,780.0,10.0,0.0
615,54.0,0.0,180.0,12.0,0.0
616,42.0,30.0,20.0,5.0,0.0
617,42.0,30.0,20.0,5.0,0.0
618,42.0,30.0,20.0,5.0,0.0
619,42.0,30.0,20.0,5.0,0.0
620,42.0,18.0,20.0,5.0,0.0
621,42.0,30.0,20.0,5.0,0.0
622,42.0,30.0,20.0,5.0,0.0
623,73.0,24.0,60.0,11.0,0.0
624,70.0,0.0,240.0,0.0,0.0
625,42.0,30.0,20.0,5.0,0.0
626,42.0,6.0,20.0,5.0,0.0
627,42.0,30.0,20.0,5.0,0.0
628,71.0,24.0,60.0,11.0,0.0
629,42.0,6.0,20.0,5.0,0.0
630,54.0,0.0,90.0,12.0,0.0
631,30.0,18.0,90.0,14.0,0.0
632,70.0,24.0,60.0,11.0,0.0
633,42.0,0.0,90.0,13.0,0.0
634,42.0,30.0,20.0,5.0,0.0
635,42.0,6.0,20.0,5.0,0.0
636,42.0,12.0,20.0,5.0,0.0
637,68.0,24.0,60.0,11.0,0.0
638,42.0,6.0,20.0,5.0,0.0
639,42.0,30.0,20.0,5.0,0.0
640,54.0,12.0,180.0,12.0,0.0
641,30.0,0.0,180.0,14.0,0.0
642,66.0,24.0,60.0,11.0,0.0
643,42.0,0.0,180.0,13.0,0.0
644,73.0,24.0,240.0,0.0,0.0
645,42.0,6.0,20.0,5.0,0.0
646,64.0,24.0,60.0,11.0,0.0
647,42.0,30.0,20.0,5.0,0.0
648,42.0,6.0,20.0,5.0,0.0
649,42.0,30.0,20.0,5.0,0.0
650,63.0,12.0,60.0,11.0,0.0
651,42.0,6.0,20.0,5.0,0.0
652,61.0,0.0,60.0,11.0,0.0
653,42.0,30.0,20.0,5.0,0.0
654,42.0,6.0,20.0,5.0,0.0
655,76.0,12.0,180.0,0.0,0.0
656,59.0,24.0,60.0,11.0,0.0
657,42.0,24.0,20.0,5.0,0.0
658,42.0,6.0,20.0,5.0,0.0
659,42.0,30.0,20.0,5.0,0.0
660,58.0,24.0,60.0,11.0,0.0
661,42.0,6.0,20.0,5.0,0.0
662,42.0,0.0,90.0,13.0,0.0
663,56.0,12.0,60.0,11.0,0.0
664,54.0,0.0,90.0,12.0,0.0
665,42.0,30.0,20.0,5.0,0.0
666,30.0,12.0,90.0,14.0,0.0
667,42.0,6.0,20.0,5.0,0.0
668,42.0,12.0,20.0,5.0,0.0
669,54.0,6.0,60.0,11.0,0.0
670,42.0,6.0,20.0,5.0,0.0
671,42.0,0.0,180.0,13.0,0.0
672,59.0,0.0,1920.0,2.0,0.0
673,54.0,12.0,180.0,12.0,0.0
674,59.0,6.0,780.0,11.0,0.0
675,30.0,0.0,180.0,14.0,0.0
676,63.0,0.0,1920.0,1.0,0.0
677,42.0,30.0,20.0,5.0,0.0
678,42.0,30.0,20.0,5.0,0.0
679,42.0,30.0,20.0,5.0,0.0
680,42.0,30.0,20.0,5.0,0.0
681,42.0,18.0,20.0,5.0,0.0
682,42.0,30.0,20.0,5.0,0.0
683,42.0,30.0,20.0,5.0,0.0
684,75.0,0.0,240.0,0.0,0.0
685,42.0,30.0,20.0,5.0,0.0
686,78.0,24.0,60.0,10.0,0.0
687,42.0,6.0,20.0,5.0,0.0
688,76.0,24.0,60.0,10.0,0.0
689,42.0,30.0,20.0,5.0,0.0
690,42.0,6.0,20.0,5.0,0.0
691,42.0,30.0,20.0,5.0,0.0
692,54.0,0.0,90.0,12.0,0.0
693,30.0,0.0,90.0,14.0,0.0
694,42.0,18.0,90.0,13.0,0.0
695,75.0,24.0,60.0,10.0,0.0
696,42.0,6.0,20.0,5.0,0.0
697,42.0,12.0,20.0,5.0,0.0
698,73.0,24.0,60.0,10.0,0.0
699,42.0,6.0,20.0,5.0,0.0
700,42.0,12.0,180.0,13.0,0.0
701,42.0,30.0,20.0,5.0,0.0
702,54.0,0.0,180.0,12.0,0.0
703,30.0,0.0,180.0,14.0,0.0
704,78.0,0.0,240.0,0.0,0.0
705,71.0,24.0,60.0,10.0,0.0
706,42.0,6.0,20.0,5.0,0.0
707,70.0,24.0,60.0,10.0,0.0
708,42.0,30.0,20.0,5.0,0.0
709,42.0,6.0,20.0,5.0,0.0
710,42.0,30.0,20.0,5.0,0.0
711,68.0,12.0,60.0,10.0,0.0
712,42.0,6.0,20.0,5.0,0.0
713,66.0,24.0,60.0,10.0,0.0
714,42.0,30.0,20.0,5.0,0.0
715,42.0,6.0,20.0,5.0,0.0
716,64.0,24.0,60.0,10.0,0.0
717,83.0,0.0,180.0,0.0,0.0
718,42.0,24.0,20.0,5.0,0.0
719,42.0,6.0,20.0,5.0,0.0
720,42.0,30.0,20.0,5.0,0.0
721,63.0,24.0,60.0,10.0,0.0
722,42.0,6.0,20.0,5.0,0.0
723,61.0,12.0,60.0,10.0,0.0
724,42.0,0.0,90.0,13.0,0.0
725,42.0,30.0,20.0,5.0,0.0
726,54.0,12.0,90.0,12.0,0.0
727,30.0,0.0,90.0,14.0,0.0
728,42.0,6.0,20.0,5.0,0.0
729,59.0,6.0,60.0,10.0,0.0
730,42.0,12.0,20.0,5.0,0.0
731,42.0,30.0,20.0,5.0,0.0
732,42.0,30.0,20.0,5.0,0.0
733,54.0,12.0,180.0,12.0,0.0
734,56.0,54.0,960.0,2.0,0.0
735,66.0,6.0,780.0,4.0,0.0
736,42.0,0.0,180.0,13.0,0.0
737,64.0,12.0,1860.0,1.0,0.0
738,30.0,0.0,180.0,14.0,0.0
739,64.0,0.0,780.0,10.0,0.0
740,54.0,0.0,780.0,4.0,0.0
741,42.0,30.0,20.0,5.0,0.0
742,42.0,30.0,20.0,5.0,0.0
743,42.0,30.0,20.0,5.0,0.0
744,42.0,30.0,20.0,5.0,0.0
745,42.0,18.0,20.0,5.0,0.0
746,42.0,30.0,20.0,5.0,0.0
747,42.0,30.0,20.0,5.0,0.0
748,68.0,24.0,240.0,0.0,0.0
749,42.0,30.0,20.0,5.0,0.0
750,71.0,24.0,60.0,11.0,0.0
751,42.0,6.0,20.0,5.0,0.0
752,69.0,24.0,60.0,11.0,0.0
753,42.0,30.0,20.0,5.0,0.0
754,42.0,6.0,20.0,5.0,0.0
755,42.0,18.0,90.0,13.0,0.0
756,42.0,30.0,20.0,5.0,0.0
757,68.0,24.0,60.0,11.0,0.0
758,30.0,0.0,90.0,14.0,0.0
759,54.0,0.0,90.0,12.0,0.0
760,42.0,6.0,20.0,5.0,0.0
761,66.0,0.0,60.0,11.0,0.0
762,42.0,12.0,20.0,5.0,0.0
763,42.0,6.0,20.0,5.0,0.0
764,71.0,0.0,240.0,0.0,0.0
765,42.0,0.0,180.0,13.0,0.0
766,30.0,12.0,180.0,14.0,0.0
767,54.0,0.0,180.0,12.0,0.0
768,42.0,30.0,20.0,5.0,0.0
769,64.0,24.0,60.0,11.0,0.0
770,42.0,6.0,20.0,5.0,0.0
771,42.0,30.0,20.0,5.0,0.0
772,63.0,24.0,60.0,11.0,0.0
773,42.0,6.0,20.0,5.0,0.0
774,61.0,12.0,60.0,11.0,0.0
775,42.0,30.0,20.0,5.0,0.0
776,42.0,6.0,20.0,5.0,0.0
777,42.0,30.0,20.0,5.0,0.0
778,59.0,24.0,60.0,11.0,0.0
779,42.0,6.0,20.0,5.0,0.0
780,75.0,12.0,180.0,0.0,0.0
781,42.0,24.0,20.0,5.0,0.0
782,57.0,24.0,60.0,11.0,0.0
783,42.0,6.0,20.0,5.0,0.0
784,42.0,30.0,20.0,5.0,0.0
785,56.0,24.0,60.0,11.0,0.0
786,42.0,6.0,20.0,5.0,0.0
787,30.0,0.0,90.0,14.0,0.0
788,42.0,12.0,90.0,13.0,0.0
789,54.0,0.0,90.0,12.0,0.0
790,54.0,12.0,60.0,11.0,0.0
791,42.0,30.0,20.0,5.0,0.0
792,42.0,6.0,20.0,5.0,0.0
793,42.0,12.0,20.0,5.0,0.0
794,52.0,6.0,60.0,11.0,0.0
795,42.0,6.0,20.0,5.0,0.0
796,54.0,0.0,180.0,12.0,0.0
797,42.0,12.0,180.0,13.0,0.0
798,61.0,0.0,900.0,1.0,0.0
799,30.0,0.0,180.0,14.0,0.0
800,58.0,6.0,780.0,11.0,0.0
801,58.0,0.0,900.0,2.0,0.0
802,42.0,30.0,20.0,5.0,0.0
803,42.0,30.0,20.0,5.0,0.0
804,42.0,30.0,20.0,5.0,0.0
805,42.0,30.0,20.0,5.0,0.0
806,42.0,18.0,20.0,5.0,0.0
807,42.0,30.0,20.0,5.0,0.0
808,42.0,30.0,20.0,5.0,0.0
809,73.0,24.0,240.0,0.0,0.0
810,42.0,30.0,20.0,5.0,0.0
811,76.0,24.0,60.0,10.0,0.0
812,42.0,6.0,20.0,5.0,0.0
813,42.0,30.0,20.0,5.0,0.0
814,75.0,24.0,60.0,10.0,0.0
815,42.0,6.0,20.0,5.0,0.0
816,42.0,0.0,90.0,13.0,0.0
817,54.0,0.0,90.0,12.0,0.0
818,42.0,30.0,20.0,5.0,0.0
819,73.0,24.0,60.0,10.0,0.0
820,30.0,18.0,90.0,14.0,0.0
821,42.0,6.0,20.0,5.0,0.0
822,42.0,12.0,20.0,5.0,0.0
823,71.0,0.0,60.0,10.0,0.0
824,42.0,6.0,20.0,5.0,0.0
825,54.0,0.0,180.0,12.0,0.0
826,42.0,0.0,180.0,13.0,0.0
827,70.0,24.0,60.0,10.0,0.0
828,42.0,30.0,20.0,5.0,0.0
829,76.0,24.0,240.0,0.0,0.0
830,30.0,12.0,180.0,14.0,0.0
831,42.0,6.0,20.0,5.0,0.0
832,42.0,30.0,20.0,5.0,0.0
833,68.0,24.0,60.0,10.0,0.0
834,42.0,6.0,20.0,5.0,0.0
835,42.0,30.0,20.0,5.0,0.0
836,66.0,12.0,60.0,10.0,0.0
837,42.0,6.0,20.0,5.0,0.0
838,42.0,30.0,20.0,5.0,0.0
839,64.0,0.0,60.0,10.0,0.0
840,42.0,6.0,20.0,5.0,0.0
841,63.0,24.0,60.0,10.0,0.0
842,82.0,0.0,180.0,0.0,0.0
843,42.0,24.0,20.0,5.0,0.0
844,42.0,6.0,20.0,5.0,0.0
845,42.0,30.0,20.0,5.0,0.0
846,61.0,24.0,60.0,10.0,0.0
847,42.0,6.0,20.0,5.0,0.0
848,54.0,0.0,90.0,12.0,0.0
849,42.0,30.0,20.0,5.0,0.0
850,42.0,12.0,90.0,13.0,0.0
851,30.0,0.0,90.0,14.0,0.0
852,59.0,12.0,60.0,10.0,0.0
853,42.0,6.0,20.0,5.0,0.0
854,42.0,12.0,20.0,5.0,0.0
855,58.0,6.0,60.0,10.0,0.0
856,42.0,30.0,20.0,5.0,0.0
857,54.0,54.0,960.0,2.0,0.0
858,59.0,0.0,960.0,2.0,0.0
859,42.0,30.0,20.0,5.0,0.0
860,42.0,0.0,180.0,13.0,0.0
861,54.0,12.0,180.0,12.0,0.0
862,30.0,0.0,180.0,14.0,0.0
863,66.0,0.0,780.0,4.0,0.0
864,54.0,6.0,780.0,4.0,0.0
865,63.0,0.0,780.0,10.0,0.0
866,63.0,0.0,960.0,1.0,0.0
867,59.0,0.0,2310.0,1.0,0.0
868,42.0,30.0,20.0,5.0,0.0
869,42.0,30.0,20.0,5.0,0.0
870,42.0,30.0,20.0,5.0,0.0
871,42.0,30.0,20.0,5.0,0.0
872,42.0,18.0,20.0,5.0,0.0
873,42.0,30.0,20.0,5.0,0.0
874,42.0,30.0,20.0,5.0,0.0
875,71.0,0.0,240.0,0.0,0.0
876,66.0,24.0,60.0,11.0,0.0
877,42.0,30.0,20.0,5.0,0.0
878,42.0,6.0,20.0,5.0,0.0
879,42.0,30.0,20.0,5.0,0.0
880,64.0,24.0,60.0,11.0,0.0
881,42.0,6.0,20.0,5.0,0.0
882,42.0,18.0,90.0,13.0,0.0
883,30.0,0.0,90.0,14.0,0.0
884,63.0,24.0,60.0,11.0,0.0
885,54.0,0.0,90.0,12.0,0.0
886,42.0,30.0,20.0,5.0,0.0
887,42.0,6.0,20.0,5.0,0.0
888,42.0,12.0,20.0,5.0,0.0
889,61.0,24.0,60.0,11.0,0.0
890,42.0,6.0,20.0,5.0,0.0
891,54.0,12.0,180.0,12.0,0.0
892,42.0,0.0,180.0,13.0,0.0
893,30.0,0.0,180.0,14.0,0.0
894,59.0,24.0,60.0,11.0,0.0
895,42.0,30.0,20.0,5.0,0.0
896,75.0,0.0,240.0,0.0,0.0
897,42.0,6.0,20.0,5.0,0.0
898,61.0,24.0,60.0,11.0,0.0
899,42.0,30.0,20.0,5.0,0.0
900,42.0,6.0,20.0,5.0,0.0
901,42.0,30.0,20.0,5.0,0.0
902,63.0,12.0,60.0,11.0,0.0
903,42.0,6.0,20.0,5.0,0.0
904,42.0,30.0,20.0,5.0,0.0
905,61.0,24.0,60.0,11.0,0.0
906,42.0,6.0,20.0,5.0,0.0
907,59.0,24.0,60.0,11.0,0.0
908,78.0,12.0,180.0,0.0,0.0
909,42.0,24.0,20.0,5.0,0.0
910,42.0,6.0,20.0,5.0,0.0
911,42.0,30.0,20.0,5.0,0.0
912,58.0,24.0,60.0,11.0,0.0
913,42.0,6.0,20.0,5.0,0.0
914,56.0,12.0,60.0,11.0,0.0
915,30.0,0.0,90.0,14.0,0.0
916,42.0,30.0,20.0,5.0,0.0
917,42.0,12.0,90.0,13.0,0.0
918,54.0,0.0,90.0,12.0,0.0
919,42.0,6.0,20.0,5.0,0.0
920,54.0,6.0,60.0,11.0,0.0
921,42.0,12.0,20.0,5.0,0.0
922,42.0,6.0,20.0,5.0,0.0
923,30.0,0.0,180.0,14.0,0.0
924,53.0,6.0,780.0,11.0,0.0
925,61.0,0.0,1350.0,2.0,0.0
926,42.0,12.0,180.0,13.0,0.0
927,47.0,192.0,960.0,12.0,0.0
928,56.0,0.0,900.0,2.0,0.0
929,65.0,12.0,900.0,1.0,0.0
930,42.0,30.0,20.0,5.0,0.0
931,42.0,30.0,20.0,5.0,0.0
932,42.0,30.0,20.0,5.0,0.0
933,42.0,30.0,20.0,5.0,0.0
934,42.0,18.0,20.0,5.0,0.0
935,42.0,30.0,20.0,5.0,0.0
936,42.0,30.0,20.0,5.0,0.0
937,42.0,30.0,20.0,5.0,0.0
938,80.0,0.0,240.0,0.0,0.0
939,75.0,24.0,60.0,10.0,0.0
940,42.0,6.0,20.0,5.0,0.0
941,42.0,30.0,20.0,5.0,0.0
942,73.0,24.0,60.0,10.0,0.0
943,42.0,6.0,20.0,5.0,0.0
944,30.0,0.0,90.0,14.0,0.0
945,42.0,30.0,20.0,5.0,0.0
946,71.0,24.0,60.0,10.0,0.0
947,42.0,18.0,90.0,13.0,0.0
948,42.0,6.0,20.0,5.0,0.0
949,70.0,24.0,60.0,10.0,0.0
950,42.0,12.0,20.0,5.0,0.0
951,42.0,6.0,20.0,5.0,0.0
952,42.0,30.0,20.0,5.0,0.0
953,68.0,24.0,60.0,10.0,0.0
954,42.0,0.0,180.0,13.0,0.0
955,30.0,12.0,180.0,14.0,0.0
956,83.0,24.0,240.0,0.0,0.0
957,42.0,6.0,20.0,5.0,0.0
958,42.0,30.0,20.0,5.0,0.0
959,66.0,24.0,60.0,10.0,0.0
960,42.0,6.0,20.0,5.0,0.0
961,42.0,30.0,20.0,5.0,0.0
962,65.0,12.0,60.0,10.0,0.0
963,42.0,6.0,20.0,5.0,0.0
964,42.0,30.0,20.0,5.0,0.0
965,63.0,0.0,60.0,10.0,0.0
966,42.0,6.0,20.0,5.0,0.0
967,42.0,24.0,20.0,5.0,0.0
968,61.0,24.0,60.0,10.0,0.0
969,77.0,0.0,180.0,0.0,0.0
970,42.0,6.0,20.0,5.0,0.0
971,59.0,24.0,60.0,10.0,0.0
972,42.0,30.0,20.0,5.0,0.0
973,42.0,6.0,20.0,5.0,0.0
974,42.0,30.0,20.0,5.0,0.0
975,42.0,12.0,90.0,13.0,0.0
976,30.0,0.0,90.0,14.0,0.0
977,58.0,12.0,60.0,10.0,0.0
978,42.0,6.0,20.0,5.0,0.0
979,56.0,6.0,60.0,10.0,0.0
980,42.0,12.0,20.0,5.0,0.0
981,42.0,6.0,20.0,5.0,0.0
982,42.0,0.0,180.0,5.0,0.0
983,78.0,66.0,390.0,0.0,0.0
984,54.0,0.0,180.0,3.0,0.0
985,42.0,0.0,180.0,3.0,0.0
986,54.0,0.0,390.0,2.0,0.0
987,46.0,168.0,780.0,12.0,0.0
988,30.0,0.0,780.0,14.0,0.0
989,54.0,0.0,390.0,11.0,0.0
990,66.0,0.0,180.0,4.0,0.0
991,54.0,192.0,180.0,10.0,0.0
992,66.0,0.0,390.0,1.0,0.0
993,42.0,0.0,780.0,13.0,0.0
994,54.0,0.0,180.0,4.0,0.0
995,66.0,0.0,90.0,4.0,0.0
996,66.0,0.0,90.0,10.0,0.0
997,78.0,6.0,90.0,10.0,0.0
998,54.0,0.0,90.0,4.0,0.0
999,54.0,216.0,90.0,3.0,0.0
1000,42.0,0.0,90.0,3.0,0.0
1001,42.0,0.0,90.0,5.0,0.0
1002,42.0,96.0,180.0,3.0,0.0
1003,66.0,0.0,180.0,4.0,0.0
1004,54.0,0.0,180.0,4.0,0.0
1005,42.0,0.0,180.0,5.0,0.0
1006,66.0,0.0,180.0,10.0,0.0
1007,78.0,0.0,180.0,10.0,0.0
1008,54.0,0.0,180.0,3.0,0.0
1009,42.0,0.0,90.0,5.0,0.0
1010,42.0,0.0,90.0,3.0,0.0
1011,54.0,0.0,90.0,3.0,0.0
1012,66.0,216.0,90.0,10.0,0.0
1013,66.0,0.0,90.0,4.0,0.0
1014,78.0,0.0,90.0,10.0,0.0
1015,54.0,0.0,90.0,4.0,0.0
1016,42.0,0.0,180.0,5.0,0.0
1017,42.0,0.0,180.0,3.0,0.0
1018,78.0,0.0,180.0,10.0,0.0
1019,54.0,108.0,180.0,3.0,0.0
1020,66.0,0.0,180.0,10.0,0.0
1021,66.0,0.0,180.0,4.0,0.0
1022,54.0,0.0,180.0,4.0,0.0
1023,41.0,0.0,60.0,13.0,0.0
1024,29.0,60.0,60.0,14.0,0.0
1025,53.0,0.0,60.0,12.0,0.0
1026,54.0,60.0,60.0,12.0,0.0
1027,42.0,0.0,60.0,13.0,0.0
1028,30.0,0.0,60.0,14.0,0.0
1029,54.0,24.0,90.0,4.0,0.0
1030,66.0,0.0,90.0,4.0,0.0
1031,42.0,0.0,90.0,3.0,0.0
1032,54.0,0.0,90.0,3.0,0.0
1033,44.0,0.0,60.0,13.0,0.0
1034,78.0,0.0,90.0,10.0,0.0
1035,32.0,0.0,60.0,14.0,0.0
1036,66.0,0.0,90.0,10.0,0.0
1037,56.0,36.0,60.0,12.0,0.0
1038,42.0,0.0,90.0,5.0,0.0
1039,34.0,0.0,60.0,14.0,0.0
1040,58.0,0.0,60.0,12.0,0.0
1041,46.0,60.0,60.0,13.0,0.0
1042,66.0,0.0,180.0,4.0,0.0
1043,59.0,0.0,60.0,12.0,0.0
1044,35.0,60.0,60.0,14.0,0.0
1045,42.0,48.0,180.0,5.0,0.0
1046,54.0,0.0,180.0,4.0,0.0
1047,66.0,0.0,180.0,10.0,0.0
1048,54.0,0.0,180.0,3.0,0.0
1049,42.0,0.0,180.0,3.0,0.0
1050,47.0,0.0,60.0,13.0,0.0
1051,78.0,0.0,180.0,10.0,0.0
1052,61.0,60.0,60.0,12.0,0.0
1053,37.0,0.0,60.0,14.0,0.0
1054,49.0,0.0,60.0,13.0,0.0
1055,51.0,0.0,60.0,13.0,0.0
1056,39.0,12.0,60.0,14.0,0.0
1057,63.0,0.0,60.0,12.0,0.0
1058,64.0,0.0,60.0,12.0,0.0
1059,52.0,0.0,60.0,13.0,0.0
1060,40.0,60.0,60.0,14.0,0.0
1061,54.0,0.0,60.0,13.0,0.0
1062,66.0,0.0,60.0,12.0,0.0
1063,42.0,60.0,60.0,14.0,0.0
1064,56.0,0.0,60.0,13.0,0.0
1065,68.0,0.0,60.0,12.0,0.0
1066,44.0,60.0,60.0,14.0,0.0
1067,66.0,0.0,90.0,10.0,0.0
1068,78.0,24.0,90.0,10.0,0.0
1069,70.0,0.0,60.0,12.0,0.0
1070,54.0,0.0,90.0,4.0,0.0
1071,54.0,0.0,90.0,3.0,0.0
1072,42.0,0.0,90.0,3.0,0.0
1073,46.0,0.0,60.0,14.0,0.0
1074,42.0,0.0,90.0,5.0,0.0
1075,66.0,0.0,90.0,4.0,0.0
1076,58.0,36.0,60.0,13.0,0.0
1077,71.0,0.0,60.0,12.0,0.0
1078,59.0,0.0,60.0,13.0,0.0
1079,47.0,192.0,60.0,14.0,0.0
1080,66.0,0.0,180.0,10.0,0.0
1081,78.0,0.0,180.0,10.0,0.0
1082,58.0,0.0,1920.0,2.0,0.0
1083,52.0,0.0,1920.0,2.0,0.0
1084,61.0,0.0,180.0,13.0,0.0
1085,64.0,192.0,1920.0,1.0,0.0
1086,82.0,0.0,1920.0,0.0,0.0
1087,76.0,0.0,180.0,11.0,0.0
1088,54.0,0.0,180.0,4.0,0.0
1089,42.0,0.0,180.0,5.0,0.0
1090,73.0,0.0,180.0,12.0,0.0
1091,42.0,264.0,180.0,3.0,0.0
1092,54.0,0.0,180.0,3.0,0.0
1093,66.0,0.0,180.0,4.0,0.0
1094,49.0,0.0,180.0,14.0,0.0
1095,70.0,0.0,1920.0,1.0,0.0
1096,47.0,0.0,90.0,14.0,0.0
1097,66.0,0.0,90.0,10.0,0.0
1098,54.0,0.0,90.0,3.0,0.0
1099,42.0,0.0,90.0,3.0,0.0
1100,78.0,0.0,90.0,10.0,0.0
1101,59.0,0.0,90.0,13.0,0.0
1102,54.0,0.0,90.0,4.0,0.0
1103,66.0,0.0,90.0,4.0,0.0
1104,76.0,0.0,90.0,11.0,0.0
1105,42.0,0.0,90.0,5.0,0.0
1106,71.0,216.0,90.0,12.0,0.0
1107,70.0,0.0,180.0,12.0,0.0
1108,54.0,0.0,180.0,4.0,0.0
1109,66.0,0.0,180.0,4.0,0.0
1110,42.0,0.0,180.0,5.0,0.0
1111,58.0,0.0,180.0,13.0,0.0
1112,46.0,0.0,180.0,14.0,0.0
1113,66.0,0.0,180.0,10.0,0.0
1114,42.0,0.0,180.0,3.0,0.0
1115,54.0,264.0,180.0,3.0,0.0
1116,76.0,0.0,180.0,11.0,0.0
1117,78.0,0.0,180.0,10.0,0.0
1118,66.0,0.0,90.0,4.0,0.0
1119,76.0,0.0,90.0,11.0,0.0
1120,42.0,0.0,90.0,5.0,0.0
1121,68.0,0.0,90.0,12.0,0.0
1122,44.0,0.0,90.0,14.0,0.0
1123,56.0,0.0,90.0,13.0,0.0
1124,42.0,216.0,90.0,3.0,0.0
1125,54.0,0.0,90.0,3.0,0.0
1126,66.0,0.0,90.0,10.0,0.0
1127,78.0,0.0,90.0,10.0,0.0
1128,54.0,0.0,90.0,4.0,0.0
1129,54.0,0.0,180.0,13.0,0.0
1130,66.0,0.0,180.0,10.0,0.0
1131,78.0,0.0,180.0,10.0,0.0
1132,54.0,264.0,180.0,4.0,0.0
1133,66.0,0.0,180.0,4.0,0.0
1134,54.0,0.0,180.0,3.0,0.0
1135,42.0,0.0,180.0,3.0,0.0
1136,76.0,0.0,180.0,11.0,0.0
1137,66.0,0.0,180.0,12.0,0.0
1138,42.0,0.0,180.0,5.0,0.0
1139,42.0,0.0,180.0,14.0,0.0
1140,40.0,0.0,90.0,14.0,0.0
1141,66.0,0.0,90.0,4.0,0.0
1142,54.0,0.0,90.0,4.0,0.0
1143,78.0,0.0,90.0,10.0,0.0
1144,66.0,0.0,90.0,10.0,0.0
1145,64.0,0.0,90.0,12.0,0.0
1146,54.0,0.0,90.0,3.0,0.0
1147,76.0,0.0,90.0,11.0,0.0
1148,42.0,0.0,90.0,3.0,0.0
1149,52.0,0.0,90.0,13.0,0.0
1150,42.0,216.0,90.0,5.0,0.0
1151,54.0,0.0,180.0,3.0,0.0
1152,66.0,0.0,180.0,4.0,0.0
1153,42.0,0.0,180.0,5.0,0.0
1154,63.0,0.0,180.0,12.0,0.0
1155,78.0,0.0,180.0,10.0,0.0
1156,66.0,0.0,180.0,10.0,0.0
1157,39.0,0.0,180.0,14.0,0.0
1158,42.0,264.0,180.0,3.0,0.0
1159,54.0,0.0,180.0,4.0,0.0
1160,76.0,0.0,180.0,11.0,0.0
1161,51.0,0.0,180.0,13.0,0.0
1162,42.0,0.0,90.0,3.0,0.0
1163,54.0,0.0,90.0,3.0,0.0
1164,61.0,0.0,90.0,12.0,0.0
1165,49.0,0.0,90.0,13.0,0.0
1166,42.0,0.0,90.0,5.0,0.0
1167,66.0,0.0,90.0,10.0,0.0
1168,66.0,0.0,90.0,4.0,0.0
1169,54.0,0.0,90.0,4.0,0.0
1170,78.0,0.0,90.0,10.0,0.0
1171,37.0,24.0,90.0,14.0,0.0
1172,76.0,0.0,90.0,11.0,0.0
1173,63.0,72.0,390.0,1.0,0.0
1174,78.0,0.0,390.0,10.0,0.0
1175,66.0,0.0,390.0,10.0,0.0
1176,35.0,168.0,780.0,14.0,0.0
1177,59.0,0.0,390.0,2.0,0.0
1178,51.0,0.0,390.0,2.0,0.0
1179,42.0,0.0,390.0,5.0,0.0
1180,83.0,0.0,390.0,0.0,0.0
1181,42.0,0.0,390.0,3.0,0.0
1182,75.0,192.0,180.0,11.0,0.0
1183,59.0,0.0,780.0,12.0,0.0
1184,54.0,0.0,390.0,4.0,0.0
1185,47.0,0.0,780.0,13.0,0.0
1186,66.0,0.0,390.0,4.0,0.0
1187,71.0,0.0,390.0,1.0,0.0
1188,54.0,0.0,390.0,3.0,0.0
1189,66.0,216.0,90.0,11.0,0.0
1190,78.0,0.0,90.0,11.0,0.0
1191,78.0,96.0,180.0,11.0,0.0
1192,66.0,0.0,180.0,11.0,0.0
1193,78.0,0.0,90.0,11.0,0.0
1194,66.0,216.0,90.0,11.0,0.0
1195,78.0,0.0,180.0,11.0,0.0
1196,66.0,108.0,180.0,11.0,0.0
1197,30.0,0.0,60.0,14.0,0.0
1198,42.0,0.0,60.0,13.0,0.0
1199,54.0,60.0,60.0,12.0,0.0
1200,32.0,0.0,60.0,14.0,0.0
1201,44.0,60.0,60.0,13.0,0.0
1202,56.0,0.0,60.0,12.0,0.0
1203,34.0,36.0,60.0,14.0,0.0
1204,66.0,24.0,90.0,11.0,0.0
1205,58.0,0.0,60.0,12.0,0.0
1206,78.0,0.0,90.0,11.0,0.0
1207,46.0,0.0,60.0,13.0,0.0
1208,47.0,0.0,60.0,13.0,0.0
1209,59.0,0.0,60.0,12.0,0.0
1210,35.0,60.0,60.0,14.0,0.0
1211,66.0,48.0,180.0,11.0,0.0
1212,61.0,0.0,60.0,12.0,0.0
1213,37.0,0.0,60.0,14.0,0.0
1214,78.0,0.0,180.0,11.0,0.0
1215,49.0,60.0,60.0,13.0,0.0
1216,51.0,0.0,60.0,13.0,0.0
1217,63.0,60.0,60.0,12.0,0.0
1218,39.0,0.0,60.0,14.0,0.0
1219,52.0,0.0,60.0,13.0,0.0
1220,40.0,0.0,60.0,14.0,0.0
1221,64.0,12.0,60.0,12.0,0.0
1222,42.0,0.0,60.0,14.0,0.0
1223,54.0,60.0,60.0,13.0,0.0
1224,66.0,0.0,60.0,12.0,0.0
1225,68.0,0.0,60.0,12.0,0.0
1226,44.0,60.0,60.0,14.0,0.0
1227,56.0,0.0,60.0,13.0,0.0
1228,70.0,0.0,60.0,12.0,0.0
1229,58.0,60.0,60.0,13.0,0.0
1230,46.0,0.0,60.0,14.0,0.0
1231,66.0,24.0,90.0,11.0,0.0
1232,72.0,0.0,60.0,12.0,0.0
1233,60.0,36.0,60.0,13.0,0.0
1234,78.0,0.0,90.0,11.0,0.0
1235,48.0,0.0,60.0,14.0,0.0
1236,61.0,0.0,60.0,13.0,0.0
1237,73.0,192.0,60.0,12.0,0.0
1238,49.0,0.0,60.0,14.0,0.0
1239,63.0,0.0,180.0,13.0,0.0
1240,60.0,0.0,1920.0,2.0,0.0
1241,75.0,0.0,180.0,12.0,0.0
1242,78.0,0.0,180.0,11.0,0.0
1243,66.0,0.0,180.0,11.0,0.0
1244,54.0,192.0,1920.0,2.0,0.0
1245,51.0,264.0,180.0,14.0,0.0
1246,66.0,0.0,1920.0,1.0,0.0
1247,72.0,0.0,1920.0,1.0,0.0
1248,80.0,0.0,90.0,10.0,0.0
1249,78.0,0.0,90.0,11.0,0.0
1250,49.0,0.0,90.0,14.0,0.0
1251,68.0,0.0,90.0,10.0,0.0
1252,61.0,0.0,90.0,13.0,0.0
1253,73.0,216.0,90.0,12.0,0.0
1254,48.0,0.0,180.0,14.0,0.0
1255,78.0,0.0,180.0,11.0,0.0
1256,68.0,0.0,180.0,10.0,0.0
1257,60.0,264.0,180.0,13.0,0.0
1258,72.0,0.0,180.0,12.0,0.0
1259,80.0,0.0,180.0,10.0,0.0
1260,68.0,0.0,90.0,10.0,0.0
1261,57.0,0.0,90.0,13.0,0.0
1262,69.0,0.0,90.0,12.0,0.0
1263,78.0,216.0,90.0,11.0,0.0
1264,45.0,0.0,90.0,14.0,0.0
1265,80.0,0.0,90.0,10.0,0.0
1266,44.0,0.0,180.0,14.0,0.0
1267,80.0,0.0,180.0,10.0,0.0
1268,68.0,0.0,180.0,10.0,0.0
1269,56.0,264.0,180.0,13.0,0.0
1270,68.0,0.0,180.0,12.0,0.0
1271,78.0,0.0,180.0,11.0,0.0
1272,42.0,0.0,90.0,14.0,0.0
1273,78.0,0.0,90.0,11.0,0.0
1274,68.0,0.0,90.0,10.0,0.0
1275,66.0,0.0,90.0,12.0,0.0
1276,54.0,0.0,90.0,13.0,0.0
1277,80.0,216.0,90.0,10.0,0.0
1278,68.0,0.0,180.0,10.0,0.0
1279,80.0,0.0,180.0,10.0,0.0
1280,40.0,264.0,180.0,14.0,0.0
1281,64.0,0.0,180.0,12.0,0.0
1282,52.0,0.0,180.0,13.0,0.0
1283,78.0,0.0,180.0,11.0,0.0
1284,63.0,0.0,90.0,12.0,0.0
1285,78.0,0.0,90.0,11.0,0.0
1286,68.0,24.0,90.0,10.0,0.0
1287,51.0,0.0,90.0,13.0,0.0
1288,39.0,0.0,90.0,14.0,0.0
1289,80.0,0.0,90.0,10.0,0.0
1290,37.0,0.0,780.0,14.0,0.0
1291,52.0,72.0,390.0,2.0,0.0
1292,61.0,0.0,390.0,2.0,0.0
1293,76.0,192.0,180.0,11.0,0.0
1294,61.0,0.0,780.0,12.0,0.0
1295,49.0,0.0,780.0,13.0,0.0
1296,73.0,0.0,390.0,1.0,0.0
1297,80.0,0.0,180.0,10.0,0.0
1298,68.0,0.0,180.0,10.0,0.0
1299,64.0,0.0,390.0,1.0,0.0
1300,80.0,0.0,90.0,10.0,0.0
1301,69.0,0.0,90.0,11.0,0.0
1302,81.0,216.0,90.0,11.0,0.0
1303,80.0,0.0,180.0,10.0,0.0
1304,73.0,0.0,300.0,1.0,0.0
1305,80.0,168.0,300.0,1.0,0.0
1306,57.0,0.0,300.0,2.0,0.0
1307,56.0,0.0,300.0,2.0,0.0
1308,81.0,0.0,300.0,0.0,0.0
1309,61.0,0.0,300.0,3.0,0.0
1310,81.0,96.0,180.0,11.0,0.0
1311,64.0,0.0,300.0,3.0,0.0
1312,69.0,0.0,180.0,11.0,0.0
1313,56.0,0.0,90.0,2.0,0.0
1314,57.0,0.0,90.0,2.0,0.0
1315,64.0,216.0,90.0,3.0,0.0
1316,61.0,0.0,90.0,3.0,0.0
1317,69.0,0.0,90.0,11.0,0.0
1318,80.0,0.0,90.0,10.0,0.0
1319,81.0,0.0,90.0,11.0,0.0
1320,80.0,0.0,90.0,1.0,0.0
1321,81.0,0.0,90.0,0.0,0.0
1322,73.0,0.0,90.0,1.0,0.0
1323,69.0,0.0,180.0,11.0,0.0
1324,81.0,0.0,180.0,11.0,0.0
1325,61.0,36.0,390.0,3.0,0.0
1326,64.0,0.0,390.0,3.0,0.0
1327,80.0,108.0,180.0,10.0,0.0
1328,56.0,0.0,390.0,2.0,0.0
1329,81.0,0.0,390.0,0.0,0.0
1330,57.0,0.0,390.0,2.0,0.0
1331,80.0,0.0,390.0,1.0,0.0
1332,73.0,0.0,390.0,1.0,0.0
1333,33.0,60.0,60.0,13.0,0.0
1334,33.0,0.0,60.0,14.0,0.0
1335,45.0,0.0,60.0,12.0,0.0
1336,47.0,24.0,60.0,12.0,0.0
1337,35.0,0.0,60.0,13.0,0.0
1338,35.0,0.0,60.0,14.0,0.0
1339,25.0,0.0,60.0,14.0,0.0
1340,37.0,0.0,60.0,13.0,0.0
1341,80.0,0.0,90.0,10.0,0.0
1342,81.0,0.0,90.0,11.0,0.0
1343,69.0,24.0,90.0,11.0,0.0
1344,49.0,36.0,60.0,12.0,0.0
1345,26.0,0.0,60.0,14.0,0.0
1346,50.0,60.0,60.0,12.0,0.0
1347,38.0,0.0,60.0,13.0,0.0
1348,80.0,48.0,180.0,10.0,0.0
1349,81.0,36.0,390.0,0.0,0.0
1350,73.0,0.0,390.0,1.0,0.0
1351,80.0,0.0,390.0,1.0,0.0
1352,28.0,0.0,60.0,14.0,0.0
1353,81.0,0.0,180.0,11.0,0.0
1354,61.0,0.0,390.0,3.0,0.0
1355,64.0,0.0,390.0,3.0,0.0
1356,40.0,60.0,60.0,13.0,0.0
1357,57.0,0.0,390.0,2.0,0.0
1358,56.0,0.0,390.0,2.0,0.0
1359,52.0,0.0,60.0,12.0,0.0
1360,69.0,0.0,180.0,11.0,0.0
1361,42.0,0.0,60.0,13.0,0.0
1362,54.0,0.0,60.0,12.0,0.0
1363,30.0,60.0,60.0,14.0,0.0
1364,56.0,12.0,60.0,12.0,0.0
1365,44.0,0.0,60.0,13.0,0.0
1366,32.0,0.0,60.0,14.0,0.0
1367,33.0,0.0,60.0,14.0,0.0
1368,45.0,0.0,60.0,13.0,0.0
1369,57.0,60.0,60.0,12.0,0.0
1370,59.0,0.0,60.0,12.0,0.0
1371,35.0,0.0,60.0,14.0,0.0
1372,47.0,60.0,60.0,13.0,0.0
1373,37.0,0.0,60.0,14.0,0.0
1374,49.0,0.0,60.0,13.0,0.0
1375,61.0,24.0,60.0,12.0,0.0
1376,69.0,0.0,90.0,11.0,0.0
1377,81.0,0.0,90.0,11.0,0.0
1378,51.0,0.0,60.0,13.0,0.0
1379,63.0,0.0,60.0,12.0,0.0
1380,39.0,36.0,60.0,14.0,0.0
1381,80.0,24.0,90.0,10.0,0.0
1382,64.0,0.0,60.0,12.0,0.0
1383,52.0,192.0,60.0,13.0,0.0
1384,40.0,0.0,60.0,14.0,0.0
1385,47.0,0.0,180.0,5.0,0.0
1386,66.0,0.0,180.0,3.0,0.0
1387,59.0,192.0,180.0,4.0,0.0
1388,63.0,0.0,180.0,3.0,0.0
1389,78.0,0.0,180.0,10.0,0.0
1390,75.0,0.0,390.0,1.0,0.0
1391,71.0,0.0,180.0,4.0,0.0
1392,66.0,0.0,180.0,12.0,0.0
1393,81.0,0.0,180.0,11.0,0.0
1394,81.0,0.0,390.0,0.0,0.0
1395,78.0,72.0,390.0,1.0,0.0
1396,42.0,0.0,180.0,14.0,0.0
1397,57.0,0.0,390.0,2.0,0.0
1398,54.0,0.0,390.0,2.0,0.0
1399,54.0,0.0,180.0,13.0,0.0
1400,59.0,0.0,90.0,3.0,0.0
1401,64.0,0.0,90.0,12.0,0.0
1402,83.0,0.0,90.0,10.0,0.0
1403,52.0,0.0,90.0,13.0,0.0
1404,40.0,0.0,90.0,14.0,0.0
1405,47.0,0.0,90.0,5.0,0.0
1406,47.0,0.0,90.0,3.0,0.0
1407,81.0,216.0,90.0,11.0,0.0
1408,71.0,0.0,90.0,4.0,0.0
1409,59.0,0.0,90.0,4.0,0.0
1410,47.0,0.0,180.0,5.0,0.0
1411,63.0,168.0,300.0,2.0,0.0
1412,47.0,0.0,180.0,3.0,0.0
1413,59.0,0.0,180.0,4.0,0.0
1414,63.0,0.0,180.0,12.0,0.0
1415,83.0,0.0,300.0,0.0,0.0
1416,39.0,96.0,180.0,14.0,0.0
1417,71.0,0.0,180.0,4.0,0.0
1418,51.0,0.0,180.0,13.0,0.0
1419,59.0,0.0,180.0,3.0,0.0
1420,69.0,0.0,300.0,1.0,0.0
1421,75.0,0.0,300.0,1.0,0.0
1422,57.0,0.0,300.0,2.0,0.0
1423,83.0,0.0,180.0,10.0,0.0
1424,81.0,0.0,180.0,11.0,0.0
1425,83.0,0.0,90.0,10.0,0.0
1426,49.0,0.0,90.0,13.0,0.0
1427,83.0,0.0,90.0,0.0,0.0
1428,75.0,0.0,90.0,1.0,0.0
1429,63.0,0.0,90.0,2.0,0.0
1430,57.0,0.0,90.0,2.0,0.0
1431,69.0,0.0,90.0,1.0,0.0
1432,61.0,216.0,90.0,12.0,0.0
1433,37.0,0.0,90.0,14.0,0.0
1434,47.0,0.0,90.0,5.0,0.0
1435,81.0,0.0,90.0,11.0,0.0
1436,59.0,0.0,90.0,4.0,0.0
1437,59.0,0.0,90.0,3.0,0.0
1438,47.0,0.0,90.0,3.0,0.0
1439,71.0,0.0,90.0,4.0,0.0
1440,83.0,0.0,180.0,10.0,0.0
1441,69.0,72.0,390.0,1.0,0.0
1442,83.0,0.0,390.0,0.0,0.0
1443,75.0,0.0,390.0,1.0,0.0
1444,81.0,0.0,180.0,11.0,0.0
1445,59.0,0.0,180.0,12.0,0.0
1446,47.0,0.0,180.0,5.0,0.0
1447,35.0,192.0,180.0,14.0,0.0
1448,71.0,0.0,180.0,4.0,0.0
1449,59.0,0.0,180.0,4.0,0.0
1450,47.0,0.0,180.0,3.0,0.0
1451,63.0,0.0,390.0,2.0,0.0
1452,57.0,0.0,390.0,2.0,0.0
1453,47.0,0.0,180.0,13.0,0.0
1454,59.0,0.0,180.0,3.0,0.0
1455,71.0,0.0,90.0,4.0,0.0
1456,59.0,0.0,90.0,4.0,0.0
1457,45.0,0.0,90.0,13.0,0.0
1458,33.0,0.0,90.0,14.0,0.0
1459,59.0,0.0,90.0,3.0,0.0
1460,57.0,0.0,90.0,12.0,0.0
1461,47.0,0.0,90.0,5.0,0.0
1462,83.0,0.0,90.0,10.0,0.0
1463,47.0,0.0,90.0,3.0,0.0
1464,81.0,216.0,90.0,11.0,0.0
1465,69.0,0.0,390.0,1.0,0.0
1466,32.0,0.0,180.0,14.0,0.0
1467,47.0,0.0,180.0,5.0,0.0
1468,57.0,0.0,390.0,2.0,0.0
1469,83.0,0.0,180.0,10.0,0.0
1470,63.0,0.0,390.0,2.0,0.0
1471,44.0,0.0,180.0,13.0,0.0
1472,75.0,72.0,390.0,1.0,0.0
1473,56.0,0.0,180.0,12.0,0.0
1474,59.0,192.0,180.0,4.0,0.0
1475,83.0,0.0,390.0,0.0,0.0
1476,81.0,0.0,180.0,11.0,0.0
1477,59.0,0.0,180.0,3.0,0.0
1478,71.0,0.0,180.0,4.0,0.0
1479,47.0,0.0,180.0,3.0,0.0
1480,47.0,0.0,90.0,3.0,0.0
1481,47.0,0.0,90.0,5.0,0.0
1482,83.0,0.0,90.0,10.0,0.0
1483,59.0,0.0,90.0,3.0,0.0
1484,30.0,216.0,90.0,14.0,0.0
1485,71.0,0.0,90.0,4.0,0.0
1486,54.0,0.0,90.0,12.0,0.0
1487,59.0,0.0,90.0,4.0,0.0
1488,42.0,0.0,90.0,13.0,0.0
1489,81.0,0.0,90.0,11.0,0.0
1490,47.0,0.0,390.0,3.0,0.0
1491,59.0,0.0,390.0,3.0,0.0
1492,59.0,0.0,390.0,4.0,0.0
1493,28.0,72.0,390.0,14.0,0.0
1494,71.0,0.0,390.0,4.0,0.0
1495,68.0,0.0,390.0,1.0,0.0
1496,83.0,0.0,390.0,0.0,0.0
1497,80.0,0.0,180.0,11.0,0.0
1498,40.0,0.0,390.0,13.0,0.0
1499,76.0,0.0,390.0,1.0,0.0
1500,71.0,192.0,180.0,10.0,0.0
1501,47.0,0.0,390.0,5.0,0.0
1502,52.0,0.0,390.0,12.0,0.0
1503,56.0,0.0,390.0,2.0,0.0
1504,64.0,0.0,390.0,2.0,0.0
1505,83.0,0.0,180.0,10.0,0.0
1506,71.0,0.0,90.0,11.0,0.0
1507,80.0,408.0,90.0,10.0,0.0
1508,71.0,0.0,390.0,11.0,0.0
1509,80.0,24.0,390.0,10.0,0.0
1510,64.0,0.0,90.0,2.0,0.0
1511,56.0,0.0,90.0,2.0,0.0
1512,80.0,0.0,90.0,0.0,0.0
1513,40.0,0.0,90.0,13.0,0.0
1514,47.0,0.0,90.0,3.0,0.0
1515,68.0,0.0,90.0,1.0,0.0
1516,52.0,0.0,90.0,12.0,0.0
1517,59.0,0.0,90.0,4.0,0.0
1518,71.0,12.0,90.0,4.0,0.0
1519,76.0,0.0,90.0,1.0,0.0
1520,47.0,48.0,60.0,5.0,0.0
1521,59.0,0.0,90.0,3.0,0.0
1522,28.0,0.0,90.0,14.0,0.0
1523,47.0,396.0,60.0,5.0,0.0
1524,47.0,0.0,390.0,5.0,0.0
1525,63.0,0.0,390.0,2.0,0.0
1526,66.0,0.0,390.0,1.0,0.0
1527,75.0,0.0,390.0,1.0,0.0
1528,30.0,0.0,390.0,14.0,0.0
1529,59.0,0.0,390.0,4.0,0.0
1530,71.0,0.0,390.0,4.0,0.0
1531,54.0,0.0,390.0,2.0,0.0
1532,54.0,72.0,390.0,12.0,0.0
1533,59.0,0.0,390.0,3.0,0.0
1534,47.0,0.0,390.0,3.0,0.0
1535,78.0,0.0,390.0,0.0,0.0
1536,42.0,0.0,390.0,13.0,0.0
1537,78.0,408.0,90.0,10.0,0.0
1538,71.0,0.0,90.0,11.0,0.0
1539,75.0,0.0,90.0,11.0,0.0
1540,71.0,0.0,390.0,11.0,0.0
1541,75.0,0.0,390.0,11.0,0.0
1542,78.0,24.0,390.0,10.0,0.0
1543,59.0,0.0,90.0,4.0,0.0
1544,54.0,0.0,90.0,12.0,0.0
1545,78.0,0.0,90.0,0.0,0.0
1546,75.0,0.0,90.0,1.0,0.0
1547,66.0,12.0,90.0,1.0,0.0
1548,42.0,0.0,90.0,13.0,0.0
1549,63.0,0.0,90.0,2.0,0.0
1550,47.0,48.0,60.0,5.0,0.0
1551,59.0,0.0,90.0,3.0,0.0
1552,30.0,0.0,90.0,14.0,0.0
1553,71.0,0.0,90.0,4.0,0.0
1554,54.0,0.0,90.0,2.0,0.0
1555,47.0,0.0,90.0,3.0,0.0
1556,47.0,396.0,60.0,5.0,0.0
1557,44.0,0.0,390.0,13.0,0.0
1558,77.0,0.0,390.0,0.0,0.0
1559,56.0,0.0,390.0,12.0,0.0
1560,47.0,0.0,390.0,5.0,0.0
1561,65.0,0.0,390.0,1.0,0.0
1562,74.0,0.0,390.0,1.0,0.0
1563,59.0,0.0,390.0,4.0,0.0
1564,32.0,0.0,390.0,14.0,0.0
1565,62.0,0.0,390.0,2.0,0.0
1566,71.0,72.0,390.0,4.0,0.0
1567,53.0,0.0,390.0,2.0,0.0
1568,47.0,0.0,390.0,3.0,0.0
1569,59.0,0.0,390.0,3.0,0.0
1570,71.0,480.0,90.0,11.0,0.0
1571,74.0,0.0,90.0,11.0,0.0
1572,77.0,0.0,90.0,10.0,0.0
1573,74.0,0.0,450.0,11.0,0.0
1574,77.0,0.0,450.0,10.0,0.0
1575,71.0,480.0,450.0,11.0,0.0
1576,71.0,0.0,90.0,4.0,0.0
1577,59.0,0.0,90.0,4.0,0.0
1578,74.0,0.0,90.0,1.0,0.0
1579,77.0,0.0,90.0,1.0,0.0
1580,59.0,0.0,90.0,3.0,0.0
1581,86.0,0.0,90.0,0.0,0.0
1582,56.0,0.0,90.0,2.0,0.0
1583,44.0,0.0,90.0,2.0,0.0
1584,47.0,0.0,90.0,3.0,0.0
1585,59.0,0.0,450.0,4.0,0.0
1586,71.0,0.0,450.0,4.0,0.0
1587,86.0,0.0,450.0,0.0,0.0
1588,74.0,0.0,450.0,1.0,0.0
1589,56.0,0.0,450.0,2.0,0.0
1590,44.0,0.0,450.0,2.0,0.0
1591,77.0,0.0,450.0,1.0,0.0
1592,47.0,1464.0,450.0,3.0,0.0
1593,59.0,0.0,450.0,3.0,0.0
1594,41.0,912.0,960.0,2.0,0.0
1595,47.0,0.0,5670.0,3.0,0.0
1596,53.0,0.0,960.0,10.0,0.0
1597,59.0,48.0,5670.0,3.0,0.0
1598,65.0,0.0,960.0,0.0,0.0
1599,62.0,0.0,900.0,10.0,0.0
1600,50.0,1008.0,900.0,2.0,0.0
1601,74.0,0.0,900.0,0.0,0.0
1602,41.0,0.0,960.0,13.0,0.0
1603,56.0,912.0,960.0,2.0,0.0
1604,80.0,0.0,960.0,0.0,0.0
1605,29.0,0.0,960.0,14.0,0.0
1606,68.0,0.0,960.0,10.0,0.0
1607,38.0,0.0,900.0,14.0,0.0
1608,50.0,0.0,900.0,13.0,0.0
1609,79.0,0.0,960.0,0.0,0.0
1610,67.0,48.0,900.0,10.0,0.0
1611,55.0,480.0,960.0,2.0,0.0
1612,66.0,480.0,480.0,10.0,0.0
1613,44.0,0.0,960.0,14.0,0.0
1614,56.0,480.0,960.0,13.0,0.0
1615,54.0,0.0,480.0,2.0,0.0
1616,78.0,0.0,480.0,0.0,0.0
1617,53.0,0.0,960.0,2.0,0.0
1618,77.0,384.0,960.0,0.0,0.0
1619,65.0,0.0,960.0,10.0,0.0
1620,43.0,0.0,900.0,14.0,0.0
1621,55.0,24.0,900.0,13.0,0.0
1622,52.0,0.0,450.0,2.0,0.0
1623,64.0,0.0,450.0,10.0,0.0
1624,76.0,216.0,450.0,0.0,0.0
1625,42.0,0.0,180.0,3.0,0.0
1626,54.0,960.0,180.0,3.0,0.0
1627,59.0,0.0,180.0,11.0,0.0
1628,54.0,0.0,180.0,12.0,0.0
1629,54.0,0.0,180.0,13.0,0.0
1630,63.0,0.0,180.0,10.0,0.0
1631,75.0,0.0,180.0,0.0,0.0
1632,51.0,0.0,180.0,2.0,0.0
1633,42.0,0.0,180.0,14.0,0.0
1634,47.0,0.0,180.0,2.0,0.0
1635,42.0,0.0,180.0,13.0,0.0
1636,30.0,0.0,180.0,14.0,0.0
1637,61.0,0.0,180.0,10.0,0.0
1638,42.0,0.0,180.0,3.0,0.0
1639,54.0,0.0,180.0,3.0,0.0
1640,73.0,0.0,180.0,0.0,0.0
1641,54.0,0.0,180.0,12.0,0.0
1642,49.0,0.0,180.0,2.0,0.0
1643,46.0,0.0,180.0,2.0,0.0
1644,58.0,1152.0,180.0,11.0,0.0
1645,47.0,0.0,390.0,13.0,0.0
1646,35.0,576.0,390.0,14.0,0.0
1647,59.0,456.0,480.0,10.0,0.0
1648,63.0,984.0,450.0,10.0,0.0
1649,66.0,480.0,1920.0,10.0,0.0
1650,59.0,0.0,480.0,3.0,0.0
1651,47.0,456.0,480.0,3.0,0.0
1652,63.0,504.0,450.0,3.0,0.0
1653,51.0,0.0,450.0,3.0,0.0
1654,66.0,0.0,3270.0,3.0,0.0
1655,54.0,0.0,3270.0,3.0,0.0
1656,75.0,480.0,480.0,10.0,0.0
1657,73.0,864.0,480.0,10.0,0.0
1658,71.0,384.0,960.0,10.0,0.0
1659,64.0,0.0,390.0,11.0,0.0
1660,61.0,96.0,390.0,12.0,0.0
1661,64.0,0.0,390.0,11.0,0.0
1662,61.0,0.0,390.0,12.0,0.0
1663,70.0,480.0,390.0,10.0,0.0
1664,61.0,576.0,390.0,12.0,0.0
1665,42.0,0.0,390.0,13.0,0.0
1666,30.0,0.0,390.0,14.0,0.0
1667,64.0,0.0,390.0,11.0,0.0
1668,70.0,384.0,480.0,10.0,0.0
1669,73.0,1056.0,390.0,10.0,0.0
1670,66.0,480.0,1920.0,10.0,0.0
1671,46.0,0.0,480.0,2.0,0.0
1672,58.0,384.0,480.0,2.0,0.0
1673,61.0,576.0,390.0,2.0,0.0
1674,49.0,0.0,390.0,2.0,0.0
1675,42.0,192.0,2580.0,2.0,0.0
1676,54.0,0.0,2580.0,2.0,0.0
1677,54.0,0.0,480.0,11.0,0.0
1678,58.0,384.0,480.0,10.0,0.0
1679,58.0,0.0,390.0,11.0,0.0
1680,61.0,960.0,390.0,10.0,0.0
1681,61.0,192.0,960.0,11.0,0.0
1682,64.0,0.0,960.0,10.0,0.0
1683,46.0,0.0,480.0,13.0,0.0
1684,34.0,0.0,480.0,14.0,0.0
1685,54.0,96.0,390.0,12.0,0.0
1686,54.0,480.0,390.0,12.0,0.0
1687,63.0,0.0,390.0,10.0,0.0
1688,35.0,0.0,390.0,14.0,0.0
1689,47.0,0.0,390.0,13.0,0.0
1690,59.0,0.0,390.0,11.0,0.0
1691,52.0,0.0,390.0,12.0,0.0
1692,28.0,576.0,390.0,14.0,0.0
1693,40.0,0.0,390.0,13.0,0.0
1694,56.0,0.0,390.0,11.0,0.0
1695,61.0,384.0,480.0,10.0,0.0
1696,68.0,960.0,390.0,10.0,0.0
1697,58.0,0.0,960.0,10.0,0.0
1698,54.0,96.0,390.0,11.0,0.0
1699,40.0,0.0,480.0,13.0,0.0
1700,49.0,0.0,480.0,12.0,0.0
1701,28.0,384.0,480.0,14.0,0.0
1702,59.0,0.0,390.0,10.0,0.0
1703,54.0,0.0,390.0,11.0,0.0
1704,39.0,480.0,390.0,13.0,0.0
1705,51.0,0.0,390.0,12.0,0.0
1706,27.0,0.0,390.0,14.0,0.0
1707,40.0,0.0,390.0,13.0,0.0
1708,56.0,576.0,390.0,11.0,0.0
1709,52.0,0.0,390.0,12.0,0.0
1710,28.0,0.0,390.0,14.0,0.0
1711,73.0,384.0,480.0,10.0,0.0
1712,61.0,0.0,480.0,11.0,0.0
1713,80.0,0.0,390.0,10.0,0.0
1714,68.0,960.0,390.0,11.0,0.0
1715,58.0,0.0,960.0,11.0,0.0
1716,70.0,384.0,960.0,10.0,0.0
1717,52.0,0.0,480.0,13.0,0.0
1718,40.0,0.0,480.0,14.0,0.0
1719,54.0,96.0,390.0,12.0,0.0
1720,51.0,0.0,390.0,13.0,0.0
1721,39.0,0.0,390.0,14.0,0.0
1722,59.0,0.0,390.0,11.0,0.0
1723,71.0,480.0,390.0,10.0,0.0
1724,54.0,0.0,390.0,12.0,0.0
1725,54.0,96.0,390.0,12.0,0.0
1726,34.0,0.0,960.0,14.0,0.0
1727,61.0,0.0,390.0,11.0,0.0
1728,73.0,480.0,480.0,10.0,0.0
1729,46.0,0.0,960.0,13.0,0.0
1730,73.0,0.0,480.0,11.0,0.0
1731,76.0,384.0,480.0,10.0,0.0
1732,66.0,144.0,1200.0,12.0,0.0
1733,35.0,96.0,390.0,14.0,0.0
1734,47.0,0.0,390.0,13.0,0.0
1735,71.0,240.0,480.0,11.0,0.0
1736,75.0,0.0,390.0,10.0,0.0
1737,70.0,96.0,390.0,11.0,0.0
1738,73.0,0.0,390.0,10.0,0.0
1739,30.0,0.0,390.0,14.0,0.0
1740,42.0,0.0,390.0,13.0,0.0
1741,68.0,240.0,240.0,12.0,0.0
1742,66.0,240.0,240.0,12.0,0.0
1743,63.0,240.0,240.0,12.0,0.0
1744,64.0,240.0,240.0,12.0,0.0
1745,61.0,384.0,240.0,12.0,0.0
1746,59.0,576.0,390.0,12.0,0.0
1747,35.0,0.0,480.0,14.0,0.0
1748,47.0,456.0,480.0,13.0,0.0
1749,51.0,984.0,450.0,13.0,0.0
1750,39.0,0.0,450.0,14.0,0.0
1751,42.0,0.0,1920.0,14.0,0.0
1752,54.0,480.0,1920.0,13.0,0.0
1753,59.0,0.0,480.0,1.0,0.0
1754,71.0,384.0,480.0,1.0,0.0
1755,75.0,576.0,390.0,1.0,0.0
1756,63.0,0.0,390.0,1.0,0.0
1757,78.0,576.0,3270.0,1.0,0.0
1758,66.0,0.0,3270.0,1.0,0.0
1759,66.0,0.0,480.0,11.0,0.0
1760,71.0,0.0,480.0,10.0,0.0
1761,63.0,0.0,480.0,13.0,0.0
1762,66.0,0.0,480.0,12.0,0.0
1763,51.0,384.0,480.0,14.0,0.0
1764,64.0,0.0,390.0,12.0,0.0
1765,73.0,0.0,390.0,10.0,0.0
1766,70.0,0.0,390.0,11.0,0.0
1767,61.0,0.0,390.0,13.0,0.0
1768,49.0,576.0,390.0,14.0,0.0
1769,75.0,0.0,960.0,10.0,0.0
1770,71.0,480.0,480.0,11.0,0.0
1771,47.0,240.0,960.0,14.0,0.0
1772,59.0,0.0,960.0,13.0,0.0
1773,63.0,0.0,960.0,12.0,0.0
1774,72.0,0.0,480.0,11.0,0.0
1775,73.0,48.0,390.0,11.0,0.0
1776,58.0,0.0,390.0,13.0,0.0
1777,61.0,0.0,390.0,12.0,0.0
1778,78.0,144.0,240.0,10.0,0.0
1779,46.0,0.0,390.0,14.0,0.0
1780,76.0,432.0,180.0,10.0,0.0
1781,76.0,0.0,390.0,10.0,0.0
1782,73.0,0.0,390.0,11.0,0.0
1783,46.0,384.0,480.0,14.0,0.0
1784,58.0,0.0,480.0,13.0,0.0
1785,49.0,1056.0,390.0,14.0,0.0
1786,61.0,0.0,390.0,13.0,0.0
1787,42.0,480.0,1920.0,14.0,0.0
1788,54.0,0.0,1920.0,13.0,0.0
1789,70.0,0.0,480.0,1.0,0.0
1790,82.0,384.0,480.0,0.0,0.0
1791,85.0,576.0,390.0,0.0,0.0
1792,73.0,0.0,390.0,1.0,0.0
1793,66.0,0.0,480.0,10.0,0.0
1794,54.0,0.0,480.0,11.0,0.0
1795,78.0,0.0,2580.0,0.0,0.0
1796,66.0,192.0,2580.0,1.0,0.0
1797,67.0,0.0,480.0,10.0,0.0
1798,46.0,0.0,480.0,13.0,0.0
1799,34.0,0.0,480.0,14.0,0.0
1800,55.0,384.0,480.0,11.0,0.0
1801,52.0,0.0,480.0,12.0,0.0
1802,64.0,0.0,390.0,12.0,0.0
1803,68.0,0.0,480.0,10.0,0.0
1804,37.0,96.0,390.0,14.0,0.0
1805,49.0,0.0,390.0,13.0,0.0
1806,56.0,480.0,480.0,11.0,0.0
1807,69.0,480.0,480.0,10.0,0.0
1808,61.0,0.0,960.0,12.0,0.0
1809,57.0,0.0,480.0,11.0,0.0
1810,40.0,0.0,960.0,14.0,0.0
1811,52.0,0.0,960.0,13.0,0.0
1812,58.0,0.0,480.0,11.0,0.0
1813,70.0,192.0,480.0,10.0,0.0
1814,59.0,0.0,390.0,11.0,0.0
1815,63.0,0.0,390.0,12.0,0.0
1816,39.0,1056.0,390.0,14.0,0.0
1817,71.0,0.0,390.0,10.0,0.0
1818,51.0,0.0,390.0,13.0,0.0
1819,76.0,240.0,1680.0,10.0,0.0
1820,64.0,0.0,1680.0,11.0,0.0
1821,56.0,0.0,480.0,12.0,0.0
1822,49.0,0.0,480.0,13.0,0.0
1823,37.0,384.0,480.0,14.0,0.0
1824,61.0,0.0,390.0,12.0,0.0
1825,56.0,336.0,390.0,13.0,0.0
1826,44.0,0.0,390.0,14.0,0.0
1827,54.0,48.0,1140.0,12.0,0.0
1828,34.0,0.0,960.0,14.0,0.0
1829,46.0,0.0,960.0,13.0,0.0
1830,75.0,240.0,240.0,10.0,0.0
1831,63.0,0.0,240.0,11.0,0.0
1832,64.0,0.0,240.0,11.0,0.0
1833,76.0,240.0,240.0,10.0,0.0
1834,78.0,0.0,240.0,10.0,0.0
1835,66.0,192.0,240.0,11.0,0.0
1836,35.0,48.0,390.0,14.0,0.0
1837,75.0,144.0,240.0,10.0,0.0
1838,47.0,0.0,390.0,13.0,0.0
1839,63.0,0.0,240.0,11.0,0.0
1840,59.0,1008.0,180.0,11.0,0.0
1841,71.0,0.0,180.0,10.0,0.0
1842,76.0,240.0,1680.0,10.0,0.0
1843,64.0,0.0,1680.0,11.0,0.0
1844,49.0,384.0,480.0,13.0,0.0
1845,68.0,0.0,480.0,12.0,0.0
1846,37.0,0.0,480.0,14.0,0.0
1847,44.0,0.0,390.0,14.0,0.0
1848,56.0,336.0,390.0,13.0,0.0
1849,64.0,0.0,390.0,12.0,0.0
1850,34.0,0.0,960.0,14.0,0.0
1851,46.0,0.0,960.0,13.0,0.0
1852,67.0,0.0,480.0,12.0,0.0
1853,75.0,240.0,240.0,10.0,0.0
1854,63.0,0.0,240.0,11.0,0.0
1855,66.0,96.0,390.0,12.0,0.0
1856,76.0,0.0,240.0,10.0,0.0
1857,64.0,144.0,240.0,11.0,0.0
1858,78.0,0.0,240.0,10.0,0.0
1859,66.0,240.0,240.0,11.0,0.0
1860,63.0,0.0,240.0,11.0,0.0
1861,66.0,48.0,390.0,12.0,0.0
1862,75.0,144.0,240.0,10.0,0.0
1863,35.0,0.0,390.0,14.0,0.0
1864,47.0,0.0,390.0,13.0,0.0
1865,71.0,0.0,180.0,10.0,0.0
1866,59.0,240.0,180.0,11.0,0.0
1867,40.0,288.0,390.0,14.0,0.0
1868,52.0,0.0,390.0,13.0,0.0
1869,61.0,0.0,390.0,12.0,0.0
1870,70.0,192.0,180.0,10.0,0.0
1871,67.0,0.0,180.0,11.0,0.0
1872,71.0,0.0,180.0,10.0,0.0
1873,68.0,480.0,180.0,11.0,0.0
1874,61.0,480.0,180.0,10.0,0.0
1875,58.0,0.0,180.0,11.0,0.0
1876,54.0,0.0,390.0,13.0,0.0
1877,42.0,0.0,390.0,14.0,0.0
1878,52.0,288.0,390.0,12.0,0.0
1879,63.0,192.0,180.0,10.0,0.0
1880,60.0,0.0,180.0,11.0,0.0
1881,64.0,0.0,180.0,10.0,0.0
1882,61.0,480.0,180.0,11.0,0.0
1883,52.0,0.0,180.0,11.0,0.0
1884,58.0,480.0,180.0,10.0,0.0
1885,47.0,0.0,1140.0,3.0,0.0
1886,47.0,48.0,390.0,5.0,0.0
1887,71.0,0.0,1140.0,0.0,0.0
1888,71.0,0.0,1140.0,1.0,0.0
1889,59.0,240.0,1140.0,4.0,0.0
1890,35.0,0.0,180.0,14.0,0.0
1891,59.0,192.0,180.0,12.0,0.0
1892,59.0,0.0,1140.0,3.0,0.0
1893,51.0,0.0,1140.0,11.0,0.0
1894,59.0,0.0,1140.0,11.0,0.0
1895,47.0,0.0,180.0,13.0,0.0
1896,71.0,0.0,1140.0,4.0,0.0
1897,51.0,0.0,1140.0,10.0,0.0
1898,47.0,0.0,180.0,2.0,0.0
1899,59.0,0.0,1140.0,10.0,0.0
1900,47.0,0.0,180.0,2.0,0.0
1901,47.0,0.0,180.0,13.0,0.0
1902,59.0,240.0,180.0,12.0,0.0
1903,35.0,0.0,180.0,14.0,0.0
1904,35.0,240.0,180.0,14.0,0.0
1905,47.0,0.0,180.0,13.0,0.0
1906,59.0,0.0,180.0,12.0,0.0
1907,47.0,0.0,180.0,2.0,0.0
1908,47.0,0.0,180.0,2.0,0.0
1909,47.0,0.0,180.0,13.0,0.0
1910,59.0,240.0,180.0,12.0,0.0
1911,35.0,0.0,180.0,14.0,0.0
1912,47.0,0.0,180.0,13.0,0.0
1913,35.0,0.0,180.0,14.0,0.0
1914,59.0,0.0,180.0,12.0,0.0
1915,47.0,0.0,180.0,2.0,0.0
1916,59.0,0.0,180.0,12.0,0.0
1917,35.0,0.0,180.0,14.0,0.0
1918,47.0,240.0,180.0,13.0,0.0
1919,47.0,0.0,180.0,2.0,0.0
1920,63.0,0.0,780.0,4.0,0.0
1921,51.0,0.0,180.0,13.0,0.0
1922,63.0,0.0,780.0,11.0,0.0
1923,63.0,0.0,780.0,10.0,0.0
1924,39.0,192.0,180.0,14.0,0.0
1925,75.0,144.0,780.0,4.0,0.0
1926,75.0,0.0,780.0,0.0,0.0
1927,75.0,0.0,780.0,1.0,0.0
1928,51.0,0.0,180.0,2.0,0.0
1929,47.0,48.0,390.0,5.0,0.0
1930,63.0,0.0,180.0,12.0,0.0
1931,63.0,0.0,780.0,3.0,0.0
1932,51.0,0.0,780.0,3.0,0.0
1933,63.0,0.0,180.0,12.0,0.0
1934,51.0,240.0,180.0,13.0,0.0
1935,51.0,0.0,180.0,2.0,0.0
1936,39.0,0.0,180.0,14.0,0.0
1937,39.0,0.0,180.0,14.0,0.0
1938,51.0,96.0,180.0,13.0,0.0
1939,63.0,0.0,180.0,12.0,0.0
1940,51.0,0.0,180.0,2.0,0.0
1941,51.0,0.0,180.0,2.0,0.0
1942,51.0,0.0,180.0,13.0,0.0
1943,39.0,0.0,180.0,14.0,0.0
1944,63.0,240.0,180.0,12.0,0.0
1945,71.0,48.0,390.0,0.0,0.0
1946,47.0,192.0,180.0,2.0,0.0
1947,47.0,0.0,390.0,3.0,0.0
1948,59.0,0.0,390.0,3.0,0.0
1949,47.0,0.0,180.0,13.0,0.0
1950,35.0,0.0,180.0,14.0,0.0
1951,59.0,0.0,390.0,11.0,0.0
1952,59.0,0.0,180.0,12.0,0.0
1953,71.0,0.0,390.0,1.0,0.0
1954,59.0,0.0,390.0,4.0,0.0
1955,71.0,0.0,390.0,4.0,0.0
1956,59.0,0.0,390.0,10.0,0.0
1957,59.0,0.0,180.0,12.0,0.0
1958,47.0,0.0,180.0,2.0,0.0
1959,35.0,240.0,180.0,14.0,0.0
1960,47.0,0.0,180.0,13.0,0.0
1961,30.0,0.0,180.0,14.0,0.0
1962,66.0,0.0,780.0,1.0,0.0
1963,66.0,0.0,780.0,0.0,0.0
1964,42.0,0.0,180.0,13.0,0.0
1965,42.0,0.0,1140.0,3.0,0.0
1966,54.0,0.0,1140.0,3.0,0.0
1967,54.0,0.0,780.0,10.0,0.0
1968,54.0,0.0,180.0,12.0,0.0
1969,54.0,96.0,780.0,11.0,0.0
1970,54.0,0.0,1140.0,4.0,0.0
1971,66.0,48.0,1140.0,4.0,0.0
1972,42.0,192.0,180.0,2.0,0.0
1973,42.0,48.0,390.0,5.0,0.0
1974,42.0,0.0,180.0,2.0,0.0
1975,42.0,0.0,180.0,13.0,0.0
1976,54.0,240.0,180.0,12.0,0.0
1977,30.0,0.0,180.0,14.0,0.0
1978,42.0,48.0,390.0,5.0,0.0
1979,54.0,0.0,180.0,12.0,0.0
1980,42.0,96.0,180.0,2.0,0.0
1981,30.0,0.0,180.0,14.0,0.0
1982,42.0,0.0,180.0,13.0,0.0
1983,30.0,108.0,180.0,14.0,0.0
1984,42.0,0.0,180.0,2.0,0.0
1985,42.0,0.0,180.0,13.0,0.0
1986,54.0,0.0,180.0,12.0,0.0
1987,40.0,0.0,180.0,13.0,0.0
1988,52.0,0.0,180.0,12.0,0.0
1989,54.0,60.0,60.0,10.0,0.0
1990,40.0,0.0,180.0,2.0,0.0
1991,28.0,0.0,180.0,14.0,0.0
1992,54.0,0.0,60.0,11.0,0.0
1993,66.0,0.0,60.0,0.0,0.0
1994,66.0,0.0,60.0,1.0,0.0
1995,42.0,48.0,390.0,5.0,0.0
1996,52.0,0.0,60.0,11.0,0.0
1997,52.0,60.0,60.0,10.0,0.0
1998,64.0,0.0,60.0,1.0,0.0
1999,64.0,0.0,60.0,0.0,0.0
2000,66.0,0.0,60.0,0.0,0.0
2001,54.0,0.0,60.0,11.0,0.0
2002,66.0,0.0,60.0,1.0,0.0
2003,54.0,12.0,60.0,10.0,0.0
2004,52.0,120.0,60.0,11.0,0.0
2005,64.0,0.0,60.0,0.0,0.0
2006,64.0,0.0,60.0,1.0,0.0
2007,52.0,0.0,60.0,10.0,0.0
2008,28.0,0.0,180.0,14.0,0.0
2009,63.0,0.0,120.0,0.0,0.0
2010,52.0,24.0,180.0,12.0,0.0
2011,51.0,0.0,120.0,10.0,0.0
2012,40.0,0.0,180.0,13.0,0.0
2013,51.0,0.0,120.0,11.0,0.0
2014,40.0,0.0,180.0,2.0,0.0
2015,63.0,24.0,120.0,1.0,0.0
2016,64.0,0.0,90.0,0.0,0.0
2017,52.0,120.0,90.0,10.0,0.0
2018,64.0,0.0,90.0,1.0,0.0
2019,52.0,0.0,90.0,11.0,0.0
2020,39.0,0.0,180.0,2.0,0.0
2021,39.0,0.0,180.0,13.0,0.0
2022,27.0,24.0,180.0,14.0,0.0
2023,51.0,0.0,90.0,11.0,0.0
2024,63.0,0.0,180.0,1.0,0.0
2025,51.0,0.0,180.0,12.0,0.0
2026,47.0,48.0,390.0,5.0,0.0
2027,51.0,96.0,90.0,10.0,0.0
2028,63.0,0.0,180.0,0.0,0.0
2029,51.0,0.0,90.0,11.0,0.0
2030,51.0,120.0,90.0,10.0,0.0
2031,51.0,48.0,90.0,10.0,0.0
2032,39.0,0.0,180.0,13.0,0.0
2033,51.0,0.0,90.0,11.0,0.0
2034,78.0,24.0,180.0,0.0,0.0
2035,54.0,0.0,180.0,1.0,0.0
2036,66.0,0.0,180.0,1.0,0.0
2037,27.0,0.0,180.0,14.0,0.0
2038,42.0,0.0,180.0,2.0,0.0
2039,51.0,0.0,180.0,12.0,0.0
2040,51.0,0.0,90.0,11.0,0.0
2041,51.0,120.0,90.0,10.0,0.0
2042,63.0,0.0,390.0,4.0,0.0
2043,78.0,0.0,180.0,0.0,0.0
2044,63.0,0.0,90.0,11.0,0.0
2045,54.0,0.0,180.0,1.0,0.0
2046,51.0,0.0,390.0,3.0,0.0
2047,63.0,0.0,390.0,3.0,0.0
2048,66.0,0.0,180.0,1.0,0.0
2049,75.0,48.0,390.0,4.0,0.0
2050,42.0,0.0,180.0,2.0,0.0
2051,63.0,0.0,180.0,12.0,0.0
2052,63.0,96.0,90.0,10.0,0.0
2053,51.0,0.0,180.0,13.0,0.0
2054,39.0,24.0,180.0,14.0,0.0
2055,63.0,0.0,90.0,11.0,0.0
2056,63.0,120.0,90.0,10.0,0.0
2057,63.0,0.0,90.0,10.0,0.0
2058,63.0,0.0,180.0,12.0,0.0
2059,54.0,24.0,180.0,1.0,0.0
2060,51.0,0.0,180.0,13.0,0.0
2061,78.0,0.0,180.0,0.0,0.0
2062,42.0,0.0,180.0,2.0,0.0
2063,39.0,0.0,180.0,14.0,0.0
2064,66.0,0.0,180.0,1.0,0.0
2065,63.0,48.0,90.0,11.0,0.0
2066,63.0,120.0,90.0,11.0,0.0
2067,63.0,0.0,90.0,10.0,0.0
2068,71.0,0.0,390.0,4.0,0.0
2069,59.0,24.0,180.0,12.0,0.0
2070,59.0,48.0,390.0,4.0,0.0
2071,47.0,0.0,390.0,3.0,0.0
2072,59.0,0.0,390.0,3.0,0.0
2073,59.0,0.0,90.0,10.0,0.0
2074,54.0,0.0,180.0,1.0,0.0
2075,35.0,0.0,180.0,14.0,0.0
2076,78.0,0.0,180.0,0.0,0.0
2077,59.0,96.0,90.0,11.0,0.0
2078,47.0,0.0,180.0,13.0,0.0
2079,42.0,0.0,180.0,2.0,0.0
2080,66.0,0.0,180.0,1.0,0.0
2081,59.0,120.0,90.0,10.0,0.0
2082,59.0,0.0,90.0,11.0,0.0
2083,59.0,0.0,180.0,12.0,0.0
2084,54.0,0.0,180.0,1.0,0.0
2085,59.0,48.0,90.0,11.0,0.0
2086,42.0,0.0,180.0,2.0,0.0
2087,35.0,0.0,180.0,14.0,0.0
2088,47.0,0.0,180.0,13.0,0.0
2089,78.0,0.0,180.0,0.0,0.0
2090,59.0,0.0,90.0,10.0,0.0
2091,66.0,24.0,180.0,1.0,0.0
2092,59.0,120.0,90.0,10.0,0.0
2093,59.0,0.0,90.0,11.0,0.0
2094,30.0,0.0,180.0,14.0,0.0
2095,54.0,0.0,1140.0,3.0,0.0
2096,42.0,0.0,180.0,2.0,0.0
2097,54.0,24.0,180.0,12.0,0.0
2098,42.0,0.0,1140.0,3.0,0.0
2099,54.0,96.0,90.0,11.0,0.0
2100,66.0,0.0,1140.0,4.0,0.0
2101,66.0,0.0,180.0,1.0,0.0
2102,54.0,0.0,180.0,1.0,0.0
2103,42.0,0.0,180.0,13.0,0.0
2104,78.0,0.0,180.0,0.0,0.0
2105,54.0,0.0,90.0,10.0,0.0
2106,42.0,48.0,390.0,5.0,0.0
2107,54.0,0.0,1140.0,4.0,0.0
2108,54.0,0.0,90.0,11.0,0.0
2109,54.0,120.0,90.0,10.0,0.0
2110,66.0,0.0,180.0,1.0,0.0
2111,42.0,0.0,180.0,13.0,0.0
2112,54.0,0.0,90.0,11.0,0.0
2113,78.0,0.0,180.0,0.0,0.0
2114,30.0,0.0,180.0,14.0,0.0
2115,42.0,24.0,180.0,2.0,0.0
2116,54.0,0.0,180.0,1.0,0.0
2117,54.0,0.0,180.0,12.0,0.0
2118,54.0,48.0,90.0,10.0,0.0
2119,54.0,0.0,90.0,10.0,0.0
2120,54.0,120.0,90.0,11.0,0.0
2121,41.0,0.0,180.0,13.0,0.0
2122,53.0,0.0,180.0,12.0,0.0
2123,78.0,24.0,180.0,0.0,0.0
2124,42.0,0.0,180.0,2.0,0.0
2125,53.0,0.0,90.0,11.0,0.0
2126,54.0,0.0,180.0,1.0,0.0
2127,42.0,48.0,390.0,5.0,0.0
2128,29.0,0.0,180.0,14.0,0.0
2129,66.0,0.0,180.0,1.0,0.0
2130,53.0,96.0,90.0,10.0,0.0
2131,53.0,120.0,90.0,11.0,0.0
2132,53.0,0.0,90.0,10.0,0.0
2133,53.0,0.0,180.0,12.0,0.0
2134,78.0,0.0,180.0,0.0,0.0
2135,54.0,0.0,180.0,1.0,0.0
2136,42.0,24.0,180.0,2.0,0.0
2137,53.0,0.0,90.0,11.0,0.0
2138,66.0,0.0,180.0,1.0,0.0
2139,41.0,0.0,180.0,13.0,0.0
2140,53.0,48.0,90.0,10.0,0.0
2141,29.0,0.0,180.0,14.0,0.0
2142,53.0,120.0,90.0,11.0,0.0
2143,53.0,0.0,90.0,10.0,0.0
2144,66.0,0.0,180.0,1.0,0.0
2145,42.0,0.0,180.0,2.0,0.0
2146,42.0,48.0,390.0,5.0,0.0
2147,40.0,0.0,180.0,13.0,0.0
2148,78.0,0.0,180.0,0.0,0.0
2149,52.0,24.0,180.0,12.0,0.0
2150,52.0,96.0,90.0,11.0,0.0
2151,52.0,0.0,90.0,10.0,0.0
2152,28.0,0.0,180.0,14.0,0.0
2153,54.0,0.0,180.0,1.0,0.0
2154,52.0,120.0,90.0,11.0,0.0
2155,52.0,0.0,90.0,10.0,0.0
2156,54.0,0.0,180.0,1.0,0.0
2157,28.0,0.0,180.0,14.0,0.0
2158,78.0,0.0,180.0,0.0,0.0
2159,52.0,0.0,180.0,12.0,0.0
2160,52.0,48.0,90.0,11.0,0.0
2161,52.0,0.0,90.0,10.0,0.0
2162,42.0,0.0,180.0,2.0,0.0
2163,40.0,24.0,180.0,13.0,0.0
2164,66.0,0.0,180.0,1.0,0.0
2165,52.0,0.0,90.0,10.0,0.0
2166,52.0,120.0,90.0,11.0,0.0
2167,47.0,0.0,390.0,5.0,0.0
2168,51.0,0.0,180.0,12.0,0.0
2169,78.0,0.0,180.0,0.0,0.0
2170,51.0,96.0,90.0,10.0,0.0
2171,27.0,0.0,180.0,14.0,0.0
2172,39.0,0.0,180.0,13.0,0.0
2173,42.0,24.0,180.0,2.0,0.0
2174,42.0,0.0,390.0,3.0,0.0
2175,66.0,0.0,180.0,1.0,0.0
2176,54.0,0.0,180.0,1.0,0.0
2177,54.0,0.0,390.0,3.0,0.0
2178,54.0,0.0,390.0,4.0,0.0
2179,66.0,48.0,390.0,4.0,0.0
2180,51.0,0.0,90.0,11.0,0.0
2181,51.0,120.0,90.0,10.0,0.0
2182,51.0,0.0,90.0,11.0,0.0
2183,78.0,0.0,180.0,0.0,0.0
2184,66.0,0.0,180.0,1.0,0.0
2185,54.0,0.0,180.0,2.0,0.0
2186,42.0,0.0,180.0,2.0,0.0
2187,51.0,0.0,180.0,12.0,0.0
2188,39.0,0.0,180.0,13.0,0.0
2189,78.0,24.0,180.0,1.0,0.0
2190,27.0,0.0,180.0,14.0,0.0
2191,51.0,0.0,90.0,11.0,0.0
2192,51.0,48.0,90.0,10.0,0.0
2193,51.0,120.0,90.0,10.0,0.0
2194,51.0,0.0,90.0,11.0,0.0
2195,59.0,0.0,390.0,3.0,0.0
2196,47.0,0.0,390.0,3.0,0.0
2197,59.0,96.0,90.0,11.0,0.0
2198,59.0,0.0,90.0,10.0,0.0
2199,42.0,0.0,180.0,2.0,0.0
2200,54.0,0.0,180.0,2.0,0.0
2201,59.0,0.0,180.0,12.0,0.0
2202,78.0,0.0,180.0,0.0,0.0
2203,35.0,0.0,180.0,14.0,0.0
2204,47.0,24.0,180.0,13.0,0.0
2205,71.0,48.0,390.0,4.0,0.0
2206,59.0,0.0,390.0,4.0,0.0
2207,66.0,0.0,180.0,1.0,0.0
2208,78.0,0.0,180.0,1.0,0.0
2209,59.0,0.0,90.0,11.0,0.0
2210,59.0,120.0,90.0,10.0,0.0
2211,78.0,0.0,180.0,1.0,0.0
2212,59.0,0.0,90.0,11.0,0.0
2213,78.0,0.0,180.0,0.0,0.0
2214,42.0,24.0,180.0,2.0,0.0
2215,54.0,0.0,180.0,2.0,0.0
2216,66.0,0.0,180.0,1.0,0.0
2217,35.0,0.0,180.0,14.0,0.0
2218,59.0,0.0,180.0,12.0,0.0
2219,59.0,48.0,90.0,10.0,0.0
2220,47.0,0.0,180.0,13.0,0.0
2221,59.0,120.0,90.0,10.0,0.0
2222,59.0,0.0,90.0,11.0,0.0
2223,54.0,24.0,180.0,2.0,0.0
2224,42.0,0.0,180.0,2.0,0.0
2225,63.0,96.0,90.0,10.0,0.0
2226,63.0,0.0,180.0,12.0,0.0
2227,78.0,0.0,180.0,0.0,0.0
2228,51.0,0.0,180.0,13.0,0.0
2229,75.0,0.0,390.0,4.0,0.0
2230,63.0,48.0,390.0,4.0,0.0
2231,63.0,0.0,390.0,3.0,0.0
2232,66.0,0.0,180.0,1.0,0.0
2233,78.0,0.0,180.0,1.0,0.0
2234,39.0,0.0,180.0,14.0,0.0
2235,51.0,0.0,390.0,3.0,0.0
2236,63.0,0.0,90.0,11.0,0.0
2237,63.0,120.0,90.0,10.0,0.0
2238,63.0,0.0,90.0,11.0,0.0
2239,78.0,0.0,180.0,1.0,0.0
2240,66.0,0.0,180.0,1.0,0.0
2241,51.0,0.0,180.0,13.0,0.0
2242,63.0,0.0,180.0,12.0,0.0
2243,63.0,0.0,90.0,11.0,0.0
2244,39.0,0.0,180.0,14.0,0.0
2245,78.0,24.0,180.0,0.0,0.0
2246,42.0,0.0,180.0,2.0,0.0
2247,63.0,48.0,90.0,10.0,0.0
2248,54.0,0.0,180.0,2.0,0.0
2249,63.0,120.0,90.0,10.0,0.0
2250,63.0,0.0,90.0,11.0,0.0
2251,66.0,0.0,180.0,1.0,0.0
2252,78.0,0.0,180.0,1.0,0.0
2253,42.0,0.0,180.0,14.0,0.0
2254,54.0,0.0,390.0,3.0,0.0
2255,66.0,0.0,390.0,4.0,0.0
2256,66.0,24.0,180.0,12.0,0.0
2257,54.0,0.0,180.0,13.0,0.0
2258,42.0,0.0,180.0,2.0,0.0
2259,54.0,0.0,180.0,2.0,0.0
2260,78.0,0.0,180.0,0.0,0.0
2261,42.0,48.0,390.0,5.0,0.0
2262,66.0,96.0,90.0,10.0,0.0
2263,66.0,0.0,390.0,3.0,0.0
2264,78.0,0.0,390.0,4.0,0.0
2265,66.0,0.0,90.0,11.0,0.0
2266,66.0,120.0,90.0,11.0,0.0
2267,66.0,0.0,90.0,10.0,0.0
2268,54.0,0.0,180.0,2.0,0.0
2269,42.0,0.0,180.0,2.0,0.0
2270,66.0,48.0,90.0,11.0,0.0
2271,54.0,0.0,180.0,13.0,0.0
2272,42.0,0.0,180.0,14.0,0.0
2273,66.0,0.0,180.0,12.0,0.0
2274,66.0,0.0,90.0,10.0,0.0
2275,78.0,0.0,180.0,0.0,0.0
2276,66.0,24.0,180.0,1.0,0.0
2277,78.0,0.0,180.0,1.0,0.0
2278,66.0,0.0,90.0,10.0,0.0
2279,66.0,120.0,90.0,11.0,0.0
2280,42.0,0.0,390.0,5.0,0.0
2281,53.0,0.0,180.0,13.0,0.0
2282,41.0,0.0,180.0,14.0,0.0
2283,78.0,0.0,390.0,4.0,0.0
2284,65.0,0.0,90.0,11.0,0.0
2285,78.0,0.0,180.0,1.0,0.0
2286,42.0,0.0,180.0,2.0,0.0
2287,78.0,24.0,180.0,0.0,0.0
2288,54.0,0.0,180.0,2.0,0.0
2289,65.0,0.0,180.0,12.0,0.0
2290,54.0,48.0,390.0,3.0,0.0
2291,65.0,96.0,90.0,10.0,0.0
2292,66.0,0.0,390.0,3.0,0.0
2293,66.0,0.0,180.0,1.0,0.0
2294,66.0,0.0,390.0,4.0,0.0
2295,65.0,0.0,90.0,10.0,0.0
2296,65.0,120.0,90.0,11.0,0.0
2297,54.0,0.0,180.0,2.0,0.0
2298,78.0,0.0,180.0,0.0,0.0
2299,41.0,0.0,180.0,14.0,0.0
2300,53.0,0.0,180.0,13.0,0.0
2301,42.0,0.0,180.0,2.0,0.0
2302,65.0,48.0,90.0,10.0,0.0
2303,78.0,0.0,180.0,1.0,0.0
2304,66.0,0.0,180.0,1.0,0.0
2305,65.0,0.0,90.0,11.0,0.0
2306,65.0,24.0,180.0,12.0,0.0
2307,65.0,0.0,90.0,10.0,0.0
2308,65.0,120.0,90.0,11.0,0.0
2309,40.0,0.0,180.0,14.0,0.0
2310,64.0,0.0,90.0,10.0,0.0
2311,64.0,24.0,180.0,12.0,0.0
2312,66.0,0.0,390.0,3.0,0.0
2313,54.0,0.0,390.0,3.0,0.0
2314,52.0,0.0,180.0,13.0,0.0
2315,66.0,0.0,180.0,1.0,0.0
2316,78.0,0.0,180.0,0.0,0.0
2317,54.0,0.0,180.0,2.0,0.0
2318,66.0,0.0,390.0,4.0,0.0
2319,78.0,48.0,390.0,4.0,0.0
2320,42.0,0.0,180.0,2.0,0.0
2321,78.0,0.0,180.0,1.0,0.0
2322,64.0,96.0,90.0,11.0,0.0
2323,42.0,0.0,390.0,5.0,0.0
2324,64.0,0.0,90.0,10.0,0.0
2325,64.0,120.0,90.0,11.0,0.0
2326,78.0,24.0,180.0,1.0,0.0
2327,66.0,0.0,180.0,1.0,0.0
2328,78.0,0.0,180.0,0.0,0.0
2329,52.0,0.0,180.0,13.0,0.0
2330,42.0,0.0,180.0,2.0,0.0
2331,64.0,0.0,90.0,11.0,0.0
2332,64.0,48.0,90.0,10.0,0.0
2333,40.0,0.0,180.0,14.0,0.0
2334,64.0,0.0,180.0,12.0,0.0
2335,54.0,0.0,180.0,2.0,0.0
2336,64.0,204.0,90.0,10.0,0.0
2337,64.0,0.0,90.0,11.0,0.0
2338,63.0,0.0,390.0,12.0,0.0
2339,66.0,0.0,390.0,1.0,0.0
2340,59.0,0.0,390.0,3.0,0.0
2341,47.0,0.0,390.0,3.0,0.0
2342,63.0,0.0,180.0,10.0,0.0
2343,42.0,0.0,390.0,2.0,0.0
2344,47.0,0.0,390.0,5.0,0.0
2345,78.0,0.0,390.0,1.0,0.0
2346,54.0,0.0,390.0,2.0,0.0
2347,39.0,36.0,390.0,14.0,0.0
2348,71.0,0.0,390.0,4.0,0.0
2349,59.0,0.0,390.0,4.0,0.0
2350,78.0,0.0,390.0,0.0,0.0
2351,63.0,204.0,180.0,11.0,0.0
2352,51.0,0.0,390.0,13.0,0.0
2353,83.0,0.0,180.0,10.0,0.0
2354,83.0,240.0,180.0,11.0,0.0
2355,83.0,240.0,180.0,10.0,0.0
2356,83.0,0.0,180.0,11.0,0.0
2357,83.0,0.0,180.0,10.0,0.0
2358,83.0,240.0,180.0,11.0,0.0
2359,83.0,0.0,180.0,11.0,0.0
2360,83.0,240.0,180.0,10.0,0.0
2361,83.0,0.0,180.0,10.0,0.0
2362,83.0,444.0,180.0,11.0,0.0
2363,47.0,0.0,390.0,5.0,0.0
2364,71.0,48.0,390.0,4.0,0.0
2365,59.0,0.0,390.0,4.0,0.0
2366,83.0,0.0,1380.0,10.0,0.0
2367,83.0,24.0,1380.0,11.0,0.0
2368,39.0,0.0,180.0,14.0,0.0
2369,54.0,0.0,180.0,12.0,0.0
2370,51.0,240.0,180.0,13.0,0.0
2371,47.0,0.0,180.0,3.0,0.0
2372,83.0,0.0,180.0,0.0,0.0
2373,78.0,0.0,180.0,1.0,0.0
2374,75.0,0.0,180.0,1.0,0.0
2375,59.0,0.0,180.0,3.0,0.0
2376,54.0,0.0,180.0,2.0,0.0
2377,51.0,0.0,180.0,2.0,0.0
2378,39.0,0.0,180.0,14.0,0.0
2379,47.0,240.0,180.0,3.0,0.0
2380,54.0,0.0,180.0,2.0,0.0
2381,51.0,0.0,180.0,2.0,0.0
2382,59.0,0.0,180.0,3.0,0.0
2383,83.0,0.0,180.0,0.0,0.0
2384,75.0,0.0,180.0,1.0,0.0
2385,51.0,0.0,180.0,13.0,0.0
2386,54.0,0.0,180.0,12.0,0.0
2387,78.0,0.0,180.0,1.0,0.0
2388,83.0,0.0,180.0,0.0,0.0
2389,51.0,0.0,180.0,13.0,0.0
2390,39.0,0.0,180.0,14.0,0.0
2391,47.0,0.0,180.0,3.0,0.0
2392,54.0,0.0,180.0,2.0,0.0
2393,75.0,0.0,180.0,1.0,0.0
2394,78.0,0.0,180.0,1.0,0.0
2395,54.0,0.0,180.0,12.0,0.0
2396,59.0,240.0,180.0,3.0,0.0
2397,51.0,0.0,180.0,2.0,0.0
2398,51.0,0.0,180.0,13.0,0.0
2399,54.0,0.0,180.0,2.0,0.0
2400,51.0,0.0,180.0,2.0,0.0
2401,78.0,0.0,180.0,1.0,0.0
2402,54.0,216.0,180.0,12.0,0.0
2403,59.0,0.0,180.0,3.0,0.0
2404,47.0,0.0,180.0,3.0,0.0
2405,75.0,0.0,180.0,1.0,0.0
2406,39.0,0.0,180.0,14.0,0.0
2407,83.0,0.0,180.0,0.0,0.0
2408,51.0,0.0,180.0,13.0,0.0
2409,59.0,0.0,180.0,3.0,0.0
2410,47.0,0.0,180.0,3.0,0.0
2411,39.0,0.0,180.0,14.0,0.0
2412,83.0,0.0,180.0,0.0,0.0
2413,78.0,0.0,180.0,1.0,0.0
2414,54.0,0.0,180.0,2.0,0.0
2415,51.0,240.0,180.0,2.0,0.0
2416,75.0,0.0,180.0,1.0,0.0
2417,54.0,0.0,180.0,12.0,0.0
2418,76.0,0.0,180.0,1.0,0.0
2419,59.0,0.0,390.0,4.0,0.0
2420,71.0,0.0,390.0,4.0,0.0
2421,40.0,0.0,180.0,14.0,0.0
2422,47.0,48.0,390.0,5.0,0.0
2423,52.0,0.0,390.0,11.0,0.0
2424,73.0,0.0,180.0,1.0,0.0
2425,59.0,0.0,180.0,3.0,0.0
2426,47.0,0.0,180.0,3.0,0.0
2427,56.0,0.0,180.0,12.0,0.0
2428,56.0,0.0,180.0,2.0,0.0
2429,52.0,0.0,180.0,13.0,0.0
2430,52.0,192.0,180.0,2.0,0.0
2431,83.0,0.0,180.0,0.0,0.0
2432,52.0,0.0,390.0,10.0,0.0
2433,83.0,0.0,180.0,0.0,0.0
2434,76.0,0.0,180.0,1.0,0.0
2435,56.0,0.0,180.0,2.0,0.0
2436,56.0,0.0,180.0,12.0,0.0
2437,40.0,0.0,180.0,14.0,0.0
2438,73.0,0.0,180.0,1.0,0.0
2439,47.0,0.0,180.0,3.0,0.0
2440,52.0,0.0,180.0,13.0,0.0
2441,59.0,0.0,180.0,3.0,0.0
2442,52.0,240.0,180.0,2.0,0.0
2443,56.0,0.0,180.0,2.0,0.0
2444,52.0,0.0,180.0,2.0,0.0
2445,56.0,0.0,180.0,12.0,0.0
2446,80.0,0.0,390.0,10.0,0.0
2447,83.0,0.0,180.0,0.0,0.0
2448,80.0,48.0,390.0,11.0,0.0
2449,47.0,0.0,180.0,3.0,0.0
2450,59.0,0.0,180.0,3.0,0.0
2451,76.0,0.0,180.0,1.0,0.0
2452,73.0,0.0,180.0,1.0,0.0
2453,40.0,192.0,180.0,14.0,0.0
2454,52.0,0.0,180.0,13.0,0.0
2455,40.0,0.0,180.0,14.0,0.0
2456,59.0,0.0,180.0,3.0,0.0
2457,47.0,0.0,180.0,3.0,0.0
2458,52.0,0.0,180.0,13.0,0.0
2459,56.0,0.0,180.0,2.0,0.0
2460,76.0,0.0,180.0,1.0,0.0
2461,73.0,0.0,180.0,1.0,0.0
2462,52.0,240.0,180.0,2.0,0.0
2463,83.0,0.0,180.0,0.0,0.0
2464,56.0,0.0,180.0,12.0,0.0
2465,59.0,0.0,180.0,3.0,0.0
2466,47.0,0.0,180.0,3.0,0.0
2467,40.0,0.0,180.0,14.0,0.0
2468,56.0,0.0,180.0,2.0,0.0
2469,52.0,0.0,180.0,2.0,0.0
2470,83.0,0.0,180.0,0.0,0.0
2471,73.0,0.0,180.0,1.0,0.0
2472,52.0,0.0,180.0,13.0,0.0
2473,56.0,0.0,180.0,12.0,0.0
2474,76.0,240.0,180.0,1.0,0.0
2475,76.0,0.0,180.0,1.0,0.0
2476,73.0,0.0,180.0,1.0,0.0
2477,56.0,0.0,180.0,2.0,0.0
2478,56.0,0.0,180.0,12.0,0.0
2479,59.0,0.0,180.0,3.0,0.0
2480,47.0,240.0,180.0,3.0,0.0
2481,52.0,0.0,180.0,13.0,0.0
2482,83.0,0.0,180.0,0.0,0.0
2483,40.0,0.0,180.0,14.0,0.0
2484,52.0,0.0,180.0,2.0,0.0
2485,54.0,0.0,390.0,4.0,0.0
2486,42.0,0.0,180.0,14.0,0.0
2487,73.0,0.0,180.0,1.0,0.0
2488,76.0,0.0,180.0,1.0,0.0
2489,66.0,48.0,390.0,4.0,0.0
2490,42.0,0.0,390.0,5.0,0.0
2491,54.0,0.0,390.0,10.0,0.0
2492,58.0,0.0,180.0,12.0,0.0
2493,54.0,0.0,180.0,13.0,0.0
2494,61.0,192.0,180.0,2.0,0.0
2495,54.0,0.0,180.0,2.0,0.0
2496,42.0,0.0,180.0,3.0,0.0
2497,54.0,0.0,180.0,3.0,0.0
2498,54.0,0.0,390.0,11.0,0.0
2499,82.0,0.0,180.0,0.0,0.0
2500,54.0,0.0,180.0,13.0,0.0
2501,54.0,0.0,180.0,3.0,0.0
2502,76.0,0.0,180.0,1.0,0.0
2503,73.0,0.0,180.0,1.0,0.0
2504,42.0,0.0,180.0,14.0,0.0
2505,61.0,0.0,180.0,2.0,0.0
2506,42.0,0.0,180.0,3.0,0.0
2507,58.0,240.0,180.0,12.0,0.0
2508,82.0,0.0,180.0,0.0,0.0
2509,54.0,0.0,180.0,2.0,0.0
2510,76.0,0.0,570.0,11.0,0.0
2511,58.0,0.0,180.0,12.0,0.0
2512,42.0,240.0,180.0,14.0,0.0
2513,42.0,0.0,180.0,3.0,0.0
2514,54.0,0.0,180.0,3.0,0.0
2515,76.0,96.0,570.0,10.0,0.0
2516,54.0,0.0,180.0,2.0,0.0
2517,73.0,0.0,180.0,1.0,0.0
2518,76.0,0.0,180.0,1.0,0.0
2519,61.0,0.0,180.0,2.0,0.0
2520,82.0,0.0,180.0,0.0,0.0
2521,54.0,0.0,180.0,13.0,0.0
2522,54.0,0.0,180.0,3.0,0.0
2523,42.0,0.0,180.0,3.0,0.0
2524,54.0,0.0,180.0,13.0,0.0
2525,73.0,0.0,180.0,1.0,0.0
2526,54.0,144.0,180.0,2.0,0.0
2527,42.0,0.0,180.0,14.0,0.0
2528,61.0,0.0,180.0,2.0,0.0
2529,82.0,0.0,180.0,0.0,0.0
2530,58.0,0.0,180.0,12.0,0.0
2531,76.0,0.0,180.0,1.0,0.0
2532,82.0,0.0,180.0,0.0,0.0
2533,58.0,0.0,180.0,12.0,0.0
2534,76.0,0.0,180.0,1.0,0.0
2535,73.0,0.0,180.0,1.0,0.0
2536,54.0,0.0,180.0,13.0,0.0
2537,54.0,0.0,180.0,3.0,0.0
2538,42.0,240.0,180.0,14.0,0.0
2539,61.0,0.0,180.0,2.0,0.0
2540,42.0,0.0,180.0,3.0,0.0
2541,54.0,0.0,180.0,2.0,0.0
2542,58.0,0.0,180.0,12.0,0.0
2543,82.0,0.0,180.0,0.0,0.0
2544,61.0,0.0,180.0,2.0,0.0
2545,54.0,0.0,180.0,2.0,0.0
2546,54.0,168.0,180.0,3.0,0.0
2547,42.0,0.0,180.0,14.0,0.0
2548,76.0,0.0,180.0,1.0,0.0
2549,73.0,0.0,180.0,1.0,0.0
2550,42.0,0.0,180.0,3.0,0.0
2551,54.0,0.0,180.0,13.0,0.0
2552,76.0,0.0,180.0,10.0,0.0
2553,76.0,0.0,180.0,11.0,0.0
2554,47.0,24.0,390.0,5.0,0.0
2555,75.0,0.0,180.0,1.0,0.0
2556,71.0,0.0,180.0,1.0,0.0
2557,56.0,192.0,180.0,13.0,0.0
2558,47.0,0.0,180.0,3.0,0.0
2559,44.0,0.0,180.0,14.0,0.0
2560,59.0,0.0,390.0,4.0,0.0
2561,71.0,0.0,390.0,4.0,0.0
2562,59.0,0.0,180.0,3.0,0.0
2563,59.0,0.0,180.0,2.0,0.0
2564,59.0,0.0,180.0,12.0,0.0
2565,83.0,0.0,180.0,0.0,0.0
2566,74.0,0.0,120.0,11.0,0.0
2567,74.0,72.0,120.0,10.0,0.0
2568,56.0,0.0,180.0,2.0,0.0
2569,75.0,24.0,300.0,10.0,0.0
2570,75.0,0.0,300.0,11.0,0.0
2571,83.0,0.0,180.0,0.0,0.0
2572,56.0,240.0,180.0,2.0,0.0
2573,59.0,0.0,180.0,3.0,0.0
2574,71.0,0.0,180.0,1.0,0.0
2575,59.0,0.0,180.0,2.0,0.0
2576,47.0,0.0,180.0,3.0,0.0
2577,56.0,0.0,180.0,13.0,0.0
2578,75.0,0.0,180.0,1.0,0.0
2579,59.0,0.0,180.0,12.0,0.0
2580,44.0,0.0,180.0,14.0,0.0
2581,56.0,0.0,180.0,2.0,0.0
2582,44.0,0.0,180.0,14.0,0.0
2583,71.0,0.0,390.0,4.0,0.0
2584,59.0,0.0,390.0,4.0,0.0
2585,47.0,0.0,180.0,3.0,0.0
2586,59.0,0.0,180.0,3.0,0.0
2587,56.0,0.0,180.0,13.0,0.0
2588,83.0,0.0,180.0,0.0,0.0
2589,59.0,0.0,180.0,2.0,0.0
2590,75.0,0.0,390.0,11.0,0.0
2591,47.0,48.0,390.0,5.0,0.0
2592,75.0,0.0,390.0,10.0,0.0
2593,59.0,0.0,180.0,12.0,0.0
2594,71.0,0.0,180.0,1.0,0.0
2595,75.0,192.0,180.0,1.0,0.0
2596,75.0,0.0,180.0,1.0,0.0
2597,83.0,0.0,180.0,0.0,0.0
2598,44.0,0.0,180.0,14.0,0.0
2599,56.0,0.0,180.0,13.0,0.0
2600,47.0,0.0,180.0,3.0,0.0
2601,59.0,240.0,180.0,12.0,0.0
2602,56.0,0.0,180.0,2.0,0.0
2603,59.0,0.0,180.0,2.0,0.0
2604,59.0,0.0,180.0,3.0,0.0
2605,71.0,0.0,180.0,1.0,0.0
2606,47.0,0.0,390.0,5.0,0.0
2607,71.0,48.0,390.0,4.0,0.0
2608,75.0,0.0,180.0,1.0,0.0
2609,71.0,0.0,180.0,1.0,0.0
2610,59.0,0.0,180.0,2.0,0.0
2611,56.0,0.0,180.0,13.0,0.0
2612,59.0,0.0,180.0,12.0,0.0
2613,59.0,0.0,390.0,4.0,0.0
2614,44.0,0.0,180.0,14.0,0.0
2615,83.0,0.0,180.0,0.0,0.0
2616,59.0,0.0,180.0,3.0,0.0
2617,47.0,0.0,180.0,3.0,0.0
2618,56.0,192.0,180.0,2.0,0.0
2619,71.0,0.0,180.0,1.0,0.0
2620,83.0,0.0,180.0,0.0,0.0
2621,44.0,0.0,180.0,14.0,0.0
2622,59.0,0.0,180.0,12.0,0.0
2623,56.0,0.0,180.0,2.0,0.0
2624,59.0,432.0,180.0,3.0,0.0
2625,75.0,0.0,180.0,1.0,0.0
2626,59.0,0.0,180.0,2.0,0.0
2627,56.0,0.0,180.0,13.0,0.0
2628,47.0,0.0,180.0,3.0,0.0
2629,47.0,36.0,390.0,5.0,0.0
2630,47.0,0.0,1380.0,3.0,0.0
2631,71.0,0.0,1380.0,4.0,0.0
2632,59.0,0.0,1380.0,4.0,0.0
2633,57.0,0.0,1380.0,13.0,0.0
2634,78.0,0.0,1380.0,1.0,0.0
2635,59.0,0.0,1380.0,3.0,0.0
2636,63.0,0.0,1380.0,12.0,0.0
2637,83.0,0.0,1380.0,0.0,0.0
2638,63.0,12.0,1380.0,2.0,0.0
2639,45.0,0.0,1380.0,14.0,0.0
2640,75.0,0.0,1380.0,1.0,0.0
2641,57.0,0.0,1380.0,2.0,0.0
2642,83.0,0.0,180.0,10.0,0.0
2643,83.0,240.0,180.0,11.0,0.0
2644,83.0,0.0,180.0,10.0,0.0
2645,83.0,240.0,180.0,11.0,0.0
2646,83.0,240.0,180.0,10.0,0.0
2647,83.0,0.0,180.0,11.0,0.0
2648,83.0,0.0,180.0,10.0,0.0
2649,83.0,228.0,180.0,11.0,0.0
2650,83.0,0.0,180.0,10.0,0.0
2651,83.0,444.0,180.0,11.0,0.0
2652,47.0,48.0,390.0,5.0,0.0
2653,83.0,0.0,1380.0,10.0,0.0
2654,71.0,0.0,390.0,4.0,0.0
2655,83.0,24.0,1380.0,11.0,0.0
2656,59.0,0.0,390.0,4.0,0.0
2657,59.0,0.0,180.0,2.0,0.0
2658,59.0,0.0,180.0,3.0,0.0
2659,47.0,0.0,180.0,3.0,0.0
2660,83.0,0.0,180.0,0.0,0.0
2661,64.0,0.0,180.0,12.0,0.0
2662,56.0,0.0,180.0,13.0,0.0
2663,56.0,0.0,180.0,2.0,0.0
2664,71.0,0.0,180.0,1.0,0.0
2665,76.0,240.0,180.0,1.0,0.0
2666,44.0,0.0,180.0,14.0,0.0
2667,56.0,0.0,180.0,13.0,0.0
2668,59.0,0.0,180.0,2.0,0.0
2669,56.0,240.0,180.0,2.0,0.0
2670,71.0,0.0,180.0,1.0,0.0
2671,76.0,0.0,180.0,1.0,0.0
2672,47.0,0.0,180.0,3.0,0.0
2673,59.0,0.0,180.0,3.0,0.0
2674,64.0,0.0,180.0,12.0,0.0
2675,44.0,0.0,180.0,14.0,0.0
2676,83.0,0.0,180.0,0.0,0.0
2677,83.0,0.0,180.0,0.0,0.0
2678,71.0,0.0,180.0,1.0,0.0
2679,76.0,0.0,180.0,1.0,0.0
2680,56.0,0.0,180.0,13.0,0.0
2681,44.0,0.0,180.0,14.0,0.0
2682,56.0,0.0,180.0,2.0,0.0
2683,59.0,0.0,180.0,2.0,0.0
2684,59.0,240.0,180.0,3.0,0.0
2685,64.0,0.0,180.0,12.0,0.0
2686,47.0,0.0,180.0,3.0,0.0
2687,71.0,0.0,180.0,1.0,0.0
2688,64.0,0.0,180.0,12.0,0.0
2689,76.0,0.0,180.0,1.0,0.0
2690,59.0,216.0,180.0,2.0,0.0
2691,83.0,0.0,180.0,0.0,0.0
2692,59.0,0.0,180.0,3.0,0.0
2693,47.0,0.0,180.0,3.0,0.0
2694,44.0,0.0,180.0,14.0,0.0
2695,56.0,0.0,180.0,13.0,0.0
2696,56.0,0.0,180.0,2.0,0.0
2697,83.0,0.0,180.0,0.0,0.0
2698,56.0,0.0,180.0,13.0,0.0
2699,44.0,0.0,180.0,14.0,0.0
2700,71.0,0.0,180.0,1.0,0.0
2701,59.0,240.0,180.0,2.0,0.0
2702,56.0,0.0,180.0,2.0,0.0
2703,47.0,0.0,180.0,3.0,0.0
2704,59.0,0.0,180.0,3.0,0.0
2705,64.0,0.0,180.0,12.0,0.0
2706,76.0,0.0,180.0,1.0,0.0
2707,47.0,0.0,390.0,5.0,0.0
2708,62.0,0.0,180.0,12.0,0.0
2709,53.0,0.0,180.0,13.0,0.0
2710,53.0,48.0,390.0,10.0,0.0
2711,83.0,0.0,180.0,0.0,0.0
2712,47.0,0.0,180.0,3.0,0.0
2713,53.0,0.0,390.0,11.0,0.0
2714,80.0,0.0,180.0,1.0,0.0
2715,74.0,0.0,180.0,1.0,0.0
2716,59.0,0.0,180.0,3.0,0.0
2717,56.0,192.0,180.0,2.0,0.0
2718,62.0,0.0,180.0,2.0,0.0
2719,59.0,0.0,390.0,4.0,0.0
2720,71.0,0.0,390.0,4.0,0.0
2721,41.0,0.0,180.0,14.0,0.0
2722,83.0,0.0,180.0,0.0,0.0
2723,53.0,0.0,180.0,13.0,0.0
2724,62.0,240.0,180.0,2.0,0.0
2725,59.0,0.0,180.0,3.0,0.0
2726,80.0,0.0,180.0,1.0,0.0
2727,74.0,0.0,180.0,1.0,0.0
2728,56.0,0.0,180.0,2.0,0.0
2729,62.0,0.0,180.0,12.0,0.0
2730,47.0,0.0,180.0,3.0,0.0
2731,41.0,0.0,180.0,14.0,0.0
2732,80.0,192.0,180.0,1.0,0.0
2733,41.0,0.0,180.0,14.0,0.0
2734,80.0,0.0,390.0,11.0,0.0
2735,47.0,0.0,390.0,5.0,0.0
2736,74.0,0.0,180.0,1.0,0.0
2737,53.0,0.0,180.0,13.0,0.0
2738,80.0,48.0,390.0,10.0,0.0
2739,47.0,0.0,180.0,3.0,0.0
2740,83.0,0.0,180.0,0.0,0.0
2741,62.0,0.0,180.0,2.0,0.0
2742,56.0,0.0,180.0,2.0,0.0
2743,59.0,0.0,180.0,3.0,0.0
2744,62.0,0.0,180.0,12.0,0.0
2745,71.0,0.0,390.0,4.0,0.0
2746,59.0,0.0,390.0,4.0,0.0
2747,74.0,0.0,180.0,1.0,0.0
2748,80.0,0.0,180.0,1.0,0.0
2749,56.0,0.0,180.0,2.0,0.0
2750,41.0,0.0,180.0,14.0,0.0
2751,53.0,0.0,180.0,13.0,0.0
2752,62.0,240.0,180.0,12.0,0.0
2753,83.0,0.0,180.0,0.0,0.0
2754,59.0,0.0,180.0,3.0,0.0
2755,47.0,0.0,180.0,3.0,0.0
2756,62.0,0.0,180.0,2.0,0.0
2757,62.0,0.0,180.0,12.0,0.0
2758,56.0,0.0,180.0,2.0,0.0
2759,62.0,0.0,180.0,2.0,0.0
2760,80.0,0.0,180.0,1.0,0.0
2761,74.0,0.0,180.0,1.0,0.0
2762,47.0,0.0,390.0,5.0,0.0
2763,41.0,0.0,180.0,14.0,0.0
2764,83.0,0.0,180.0,0.0,0.0
2765,53.0,192.0,180.0,13.0,0.0
2766,59.0,0.0,180.0,3.0,0.0
2767,47.0,0.0,180.0,3.0,0.0
2768,59.0,48.0,390.0,4.0,0.0
2769,71.0,0.0,390.0,4.0,0.0
2770,80.0,0.0,180.0,1.0,0.0
2771,62.0,0.0,180.0,2.0,0.0
2772,56.0,0.0,180.0,2.0,0.0
2773,83.0,0.0,180.0,0.0,0.0
2774,53.0,0.0,180.0,13.0,0.0
2775,47.0,0.0,180.0,3.0,0.0
2776,62.0,0.0,180.0,12.0,0.0
2777,74.0,0.0,180.0,1.0,0.0
2778,41.0,204.0,180.0,14.0,0.0
2779,59.0,0.0,180.0,3.0,0.0
2780,83.0,0.0,390.0,0.0,0.0
2781,66.0,0.0,390.0,3.0,0.0
2782,54.0,0.0,390.0,3.0,0.0
2783,78.0,0.0,150.0,11.0,0.0
2784,75.0,0.0,390.0,1.0,0.0
2785,78.0,0.0,390.0,1.0,0.0
2786,63.0,0.0,390.0,12.0,0.0
2787,78.0,228.0,150.0,10.0,0.0
2788,42.0,0.0,390.0,14.0,0.0
2789,54.0,0.0,390.0,2.0,0.0
2790,54.0,0.0,390.0,13.0,0.0
2791,71.0,0.0,390.0,4.0,0.0
2792,59.0,0.0,390.0,4.0,0.0
2793,42.0,12.0,390.0,5.0,0.0
2794,63.0,0.0,390.0,2.0,0.0
2795,75.0,0.0,150.0,11.0,0.0
2796,75.0,240.0,150.0,10.0,0.0
2797,71.0,0.0,150.0,10.0,0.0
2798,71.0,240.0,150.0,11.0,0.0
2799,66.0,240.0,150.0,10.0,0.0
2800,66.0,0.0,150.0,11.0,0.0
2801,63.0,0.0,150.0,11.0,0.0
2802,63.0,240.0,150.0,10.0,0.0
2803,59.0,0.0,150.0,11.0,0.0
2804,59.0,444.0,150.0,10.0,0.0
2805,54.0,384.0,360.0,11.0,0.0
2806,54.0,0.0,360.0,10.0,0.0
2807,66.0,0.0,270.0,12.0,0.0
2808,42.0,0.0,270.0,5.0,0.0
2809,66.0,0.0,270.0,11.0,0.0
2810,59.0,0.0,270.0,11.0,0.0
2811,71.0,0.0,270.0,1.0,0.0
2812,75.0,480.0,270.0,1.0,0.0
2813,75.0,0.0,270.0,11.0,0.0
2814,66.0,0.0,270.0,4.0,0.0
2815,75.0,0.0,270.0,10.0,0.0
2816,63.0,0.0,270.0,3.0,0.0
2817,42.0,0.0,270.0,14.0,0.0
2818,54.0,0.0,270.0,4.0,0.0
2819,66.0,0.0,270.0,10.0,0.0
2820,73.0,0.0,270.0,0.0,0.0
2821,54.0,0.0,270.0,13.0,0.0
2822,54.0,0.0,270.0,2.0,0.0
2823,59.0,0.0,270.0,3.0,0.0
2824,59.0,0.0,270.0,10.0,0.0
2825,42.0,0.0,270.0,13.0,0.0
2826,42.0,0.0,270.0,2.0,0.0
2827,54.0,0.0,270.0,4.0,0.0
2828,54.0,0.0,270.0,12.0,0.0
2829,66.0,0.0,270.0,4.0,0.0
2830,30.0,0.0,270.0,14.0,0.0
2831,58.0,0.0,270.0,10.0,0.0
2832,42.0,0.0,270.0,5.0,0.0
2833,73.0,0.0,270.0,0.0,0.0
2834,66.0,0.0,270.0,11.0,0.0
2835,58.0,360.0,270.0,11.0,0.0
2836,73.0,0.0,270.0,11.0,0.0
2837,73.0,0.0,270.0,10.0,0.0
2838,54.0,0.0,270.0,3.0,0.0
2839,61.0,0.0,270.0,3.0,0.0
2840,70.0,0.0,270.0,1.0,0.0
2841,73.0,0.0,270.0,1.0,0.0
2842,66.0,0.0,270.0,10.0,0.0
2843,71.0,72.0,1260.0,10.0,0.0
2844,51.0,0.0,390.0,10.0,0.0
2845,47.0,0.0,150.0,13.0,0.0
2846,59.0,0.0,390.0,10.0,0.0
2847,35.0,216.0,150.0,14.0,0.0
2848,51.0,0.0,360.0,3.0,0.0
2849,71.0,0.0,1260.0,11.0,0.0
2850,59.0,0.0,390.0,11.0,0.0
2851,47.0,0.0,390.0,5.0,0.0
2852,51.0,0.0,150.0,12.0,0.0
2853,71.0,24.0,360.0,1.0,0.0
2854,71.0,0.0,360.0,0.0,0.0
2855,63.0,0.0,360.0,4.0,0.0
2856,59.0,0.0,360.0,4.0,0.0
2857,59.0,0.0,360.0,3.0,0.0
2858,51.0,0.0,390.0,11.0,0.0
2859,47.0,0.0,150.0,2.0,0.0
2860,51.0,0.0,150.0,13.0,0.0
2861,54.0,0.0,150.0,12.0,0.0
2862,39.0,0.0,150.0,14.0,0.0
2863,51.0,240.0,150.0,2.0,0.0
2864,47.0,0.0,150.0,13.0,0.0
2865,47.0,0.0,150.0,2.0,0.0
2866,78.0,0.0,360.0,0.0,0.0
2867,47.0,0.0,390.0,5.0,0.0
2868,35.0,0.0,150.0,14.0,0.0
2869,59.0,0.0,360.0,3.0,0.0
2870,75.0,0.0,360.0,1.0,0.0
2871,51.0,216.0,150.0,12.0,0.0
2872,59.0,0.0,360.0,4.0,0.0
2873,71.0,0.0,360.0,4.0,0.0
2874,47.0,0.0,360.0,3.0,0.0
2875,66.0,24.0,360.0,1.0,0.0
2876,54.0,0.0,150.0,12.0,0.0
2877,51.0,0.0,150.0,2.0,0.0
2878,39.0,0.0,150.0,14.0,0.0
2879,51.0,240.0,150.0,13.0,0.0
2880,51.0,0.0,150.0,12.0,0.0
2881,59.0,0.0,360.0,3.0,0.0
2882,47.0,0.0,360.0,3.0,0.0
2883,47.0,0.0,150.0,2.0,0.0
2884,66.0,0.0,360.0,1.0,0.0
2885,47.0,0.0,390.0,5.0,0.0
2886,59.0,0.0,360.0,4.0,0.0
2887,71.0,0.0,360.0,4.0,0.0
2888,35.0,0.0,150.0,14.0,0.0
2889,78.0,24.0,360.0,0.0,0.0
2890,75.0,0.0,360.0,1.0,0.0
2891,47.0,144.0,150.0,13.0,0.0
2892,39.0,0.0,150.0,14.0,0.0
2893,51.0,216.0,150.0,13.0,0.0
2894,51.0,0.0,150.0,2.0,0.0
2895,54.0,0.0,150.0,12.0,0.0
2896,59.0,0.0,1140.0,3.0,0.0
2897,47.0,0.0,1140.0,2.0,0.0
2898,78.0,120.0,120.0,11.0,0.0
2899,47.0,0.0,1140.0,13.0,0.0
2900,59.0,0.0,1140.0,4.0,0.0
2901,71.0,0.0,1140.0,4.0,0.0
2902,75.0,0.0,1140.0,1.0,0.0
2903,47.0,96.0,390.0,5.0,0.0
2904,35.0,0.0,1140.0,14.0,0.0
2905,51.0,0.0,1140.0,12.0,0.0
2906,78.0,0.0,1140.0,0.0,0.0
2907,47.0,0.0,1140.0,3.0,0.0
2908,78.0,0.0,120.0,10.0,0.0
2909,66.0,48.0,1140.0,1.0,0.0
2910,76.0,0.0,120.0,10.0,0.0
2911,76.0,120.0,120.0,11.0,0.0
2912,75.0,24.0,120.0,10.0,0.0
2913,75.0,0.0,120.0,11.0,0.0
2914,73.0,120.0,120.0,11.0,0.0
2915,73.0,0.0,120.0,10.0,0.0
2916,71.0,120.0,120.0,11.0,0.0
2917,71.0,0.0,120.0,10.0,0.0
2918,70.0,120.0,120.0,11.0,0.0
2919,70.0,0.0,120.0,10.0,0.0
2920,68.0,120.0,120.0,11.0,0.0
2921,68.0,0.0,120.0,10.0,0.0
2922,66.0,120.0,120.0,10.0,0.0
2923,66.0,0.0,120.0,11.0,0.0
2924,64.0,72.0,120.0,11.0,0.0
2925,64.0,0.0,120.0,10.0,0.0
2926,63.0,120.0,120.0,11.0,0.0
2927,63.0,0.0,120.0,10.0,0.0
2928,61.0,96.0,120.0,11.0,0.0
2929,61.0,0.0,120.0,10.0,0.0
2930,59.0,168.0,90.0,10.0,0.0
2931,59.0,0.0,90.0,11.0,0.0
2932,64.0,0.0,390.0,3.0,0.0
2933,67.0,0.0,1140.0,11.0,0.0
2934,58.0,0.0,1140.0,11.0,0.0
2935,79.0,0.0,390.0,0.0,0.0
2936,76.0,0.0,390.0,1.0,0.0
2937,67.0,0.0,390.0,1.0,0.0
2938,58.0,0.0,1140.0,10.0,0.0
2939,67.0,192.0,1140.0,10.0,0.0
2940,61.0,0.0,390.0,3.0,0.0
2941,49.0,0.0,150.0,13.0,0.0
2942,49.0,0.0,150.0,2.0,0.0
2943,37.0,0.0,150.0,14.0,0.0
2944,64.0,240.0,150.0,12.0,0.0
2945,76.0,0.0,390.0,4.0,0.0
2946,73.0,0.0,390.0,4.0,0.0
2947,52.0,0.0,150.0,2.0,0.0
2948,52.0,0.0,150.0,13.0,0.0
2949,40.0,0.0,150.0,14.0,0.0
2950,61.0,240.0,150.0,12.0,0.0
2951,79.0,0.0,390.0,0.0,0.0
2952,49.0,240.0,150.0,2.0,0.0
2953,67.0,240.0,390.0,1.0,0.0
2954,49.0,0.0,150.0,13.0,0.0
2955,37.0,0.0,150.0,14.0,0.0
2956,64.0,0.0,390.0,3.0,0.0
2957,64.0,0.0,150.0,12.0,0.0
2958,76.0,0.0,390.0,1.0,0.0
2959,61.0,0.0,390.0,3.0,0.0
2960,73.0,0.0,390.0,4.0,0.0
2961,76.0,0.0,390.0,4.0,0.0
2962,40.0,0.0,150.0,14.0,0.0
2963,61.0,0.0,150.0,12.0,0.0
2964,52.0,0.0,150.0,13.0,0.0
2965,52.0,0.0,150.0,2.0,0.0
2966,49.0,48.0,150.0,2.0,0.0
2967,64.0,0.0,150.0,12.0,0.0
2968,76.0,0.0,390.0,1.0,0.0
2969,61.0,0.0,390.0,3.0,0.0
2970,64.0,0.0,390.0,3.0,0.0
2971,49.0,0.0,150.0,13.0,0.0
2972,76.0,0.0,390.0,4.0,0.0
2973,73.0,0.0,390.0,4.0,0.0
2974,37.0,0.0,150.0,14.0,0.0
2975,67.0,0.0,390.0,1.0,0.0
2976,79.0,0.0,390.0,0.0,0.0
2977,40.0,216.0,150.0,14.0,0.0
2978,52.0,0.0,150.0,13.0,0.0
2979,61.0,0.0,150.0,12.0,0.0
2980,52.0,0.0,150.0,2.0,0.0
2981,37.0,48.0,1140.0,14.0,0.0
2982,79.0,0.0,1140.0,0.0,0.0
2983,67.0,0.0,1140.0,12.0,0.0
2984,67.0,0.0,1140.0,1.0,0.0
2985,76.0,0.0,120.0,10.0,0.0
2986,76.0,0.0,1140.0,1.0,0.0
2987,49.0,0.0,1140.0,13.0,0.0
2988,49.0,0.0,1140.0,2.0,0.0
2989,76.0,120.0,120.0,11.0,0.0
2990,73.0,0.0,1140.0,4.0,0.0
2991,76.0,0.0,1140.0,4.0,0.0
2992,64.0,0.0,1140.0,3.0,0.0
2993,61.0,0.0,1140.0,3.0,0.0
2994,75.0,0.0,120.0,10.0,0.0
2995,75.0,120.0,120.0,11.0,0.0
2996,73.0,0.0,120.0,10.0,0.0
2997,73.0,120.0,120.0,11.0,0.0
2998,71.0,120.0,120.0,10.0,0.0
2999,71.0,0.0,120.0,11.0,0.0
3000,70.0,120.0,120.0,10.0,0.0
3001,70.0,0.0,120.0,11.0,0.0
3002,68.0,0.0,120.0,10.0,0.0
3003,68.0,120.0,120.0,11.0,0.0
3004,67.0,120.0,120.0,11.0,0.0
3005,67.0,0.0,120.0,10.0,0.0
3006,64.0,0.0,120.0,10.0,0.0
3007,64.0,120.0,120.0,11.0,0.0
3008,63.0,0.0,120.0,11.0,0.0
3009,63.0,72.0,120.0,10.0,0.0
3010,61.0,0.0,120.0,10.0,0.0
3011,61.0,120.0,120.0,11.0,0.0
3012,59.0,0.0,120.0,10.0,0.0
3013,59.0,96.0,120.0,11.0,0.0
3014,58.0,168.0,90.0,10.0,0.0
3015,58.0,0.0,90.0,11.0,0.0
3016,68.0,0.0,1140.0,10.0,0.0
3017,59.0,0.0,1140.0,11.0,0.0
3018,75.0,0.0,390.0,4.0,0.0
3019,68.0,0.0,1140.0,11.0,0.0
3020,71.0,0.0,390.0,4.0,0.0
3021,47.0,240.0,150.0,2.0,0.0
3022,47.0,0.0,150.0,13.0,0.0
3023,80.0,240.0,390.0,0.0,0.0
3024,68.0,0.0,390.0,1.0,0.0
3025,63.0,0.0,150.0,12.0,0.0
3026,63.0,0.0,390.0,3.0,0.0
3027,75.0,0.0,390.0,1.0,0.0
3028,35.0,0.0,150.0,14.0,0.0
3029,59.0,192.0,1140.0,10.0,0.0
3030,47.0,0.0,390.0,5.0,0.0
3031,59.0,0.0,390.0,3.0,0.0
3032,59.0,0.0,150.0,12.0,0.0
3033,39.0,0.0,150.0,14.0,0.0
3034,51.0,0.0,150.0,2.0,0.0
3035,51.0,0.0,150.0,13.0,0.0
3036,47.0,0.0,390.0,5.0,0.0
3037,63.0,0.0,150.0,12.0,0.0
3038,75.0,0.0,390.0,1.0,0.0
3039,63.0,0.0,390.0,3.0,0.0
3040,47.0,0.0,150.0,2.0,0.0
3041,80.0,0.0,390.0,0.0,0.0
3042,59.0,0.0,390.0,3.0,0.0
3043,71.0,0.0,390.0,4.0,0.0
3044,75.0,0.0,390.0,4.0,0.0
3045,35.0,0.0,150.0,14.0,0.0
3046,47.0,240.0,150.0,13.0,0.0
3047,68.0,240.0,390.0,1.0,0.0
3048,51.0,0.0,150.0,2.0,0.0
3049,51.0,0.0,150.0,13.0,0.0
3050,59.0,0.0,150.0,12.0,0.0
3051,39.0,0.0,150.0,14.0,0.0
3052,68.0,0.0,390.0,1.0,0.0
3053,75.0,0.0,390.0,1.0,0.0
3054,63.0,0.0,150.0,12.0,0.0
3055,75.0,0.0,390.0,4.0,0.0
3056,59.0,0.0,390.0,3.0,0.0
3057,63.0,0.0,390.0,3.0,0.0
3058,47.0,0.0,150.0,2.0,0.0
3059,35.0,0.0,150.0,14.0,0.0
3060,47.0,48.0,150.0,13.0,0.0
3061,47.0,0.0,390.0,5.0,0.0
3062,71.0,0.0,390.0,4.0,0.0
3063,80.0,216.0,390.0,0.0,0.0
3064,51.0,0.0,150.0,13.0,0.0
3065,39.0,0.0,150.0,14.0,0.0
3066,51.0,0.0,150.0,2.0,0.0
3067,59.0,0.0,150.0,12.0,0.0
3068,47.0,96.0,390.0,5.0,0.0
3069,47.0,0.0,1140.0,2.0,0.0
3070,35.0,0.0,1140.0,14.0,0.0
3071,59.0,0.0,1140.0,3.0,0.0
3072,63.0,0.0,1140.0,3.0,0.0
3073,68.0,0.0,1140.0,12.0,0.0
3074,80.0,0.0,1140.0,0.0,0.0
3075,75.0,120.0,120.0,11.0,0.0
3076,47.0,48.0,1140.0,13.0,0.0
3077,68.0,0.0,1140.0,1.0,0.0
3078,75.0,0.0,1140.0,1.0,0.0
3079,75.0,0.0,120.0,10.0,0.0
3080,71.0,0.0,1140.0,4.0,0.0
3081,75.0,0.0,1140.0,4.0,0.0
3082,73.0,0.0,120.0,10.0,0.0
3083,73.0,120.0,120.0,11.0,0.0
3084,71.0,0.0,120.0,10.0,0.0
3085,71.0,24.0,120.0,11.0,0.0
3086,70.0,0.0,120.0,10.0,0.0
3087,70.0,120.0,120.0,11.0,0.0
3088,68.0,0.0,120.0,10.0,0.0
3089,68.0,120.0,120.0,11.0,0.0
3090,66.0,120.0,120.0,11.0,0.0
3091,66.0,0.0,120.0,10.0,0.0
3092,64.0,0.0,120.0,11.0,0.0
3093,64.0,120.0,120.0,10.0,0.0
3094,63.0,0.0,120.0,10.0,0.0
3095,63.0,120.0,120.0,11.0,0.0
3096,61.0,0.0,120.0,10.0,0.0
3097,61.0,72.0,120.0,11.0,0.0
3098,59.0,0.0,120.0,10.0,0.0
3099,59.0,120.0,120.0,11.0,0.0
3100,58.0,96.0,120.0,10.0,0.0
3101,58.0,0.0,120.0,11.0,0.0
3102,56.0,0.0,90.0,11.0,0.0
3103,56.0,168.0,90.0,10.0,0.0
3104,65.0,0.0,1140.0,10.0,0.0
3105,61.0,0.0,1140.0,10.0,0.0
3106,47.0,0.0,150.0,13.0,0.0
3107,61.0,0.0,390.0,3.0,0.0
3108,47.0,240.0,150.0,2.0,0.0
3109,35.0,0.0,150.0,14.0,0.0
3110,73.0,240.0,390.0,4.0,0.0
3111,71.0,0.0,390.0,4.0,0.0
3112,77.0,0.0,390.0,0.0,0.0
3113,59.0,0.0,390.0,3.0,0.0
3114,65.0,192.0,1140.0,11.0,0.0
3115,47.0,0.0,390.0,5.0,0.0
3116,61.0,0.0,1140.0,11.0,0.0
3117,68.0,0.0,390.0,1.0,0.0
3118,65.0,0.0,390.0,1.0,0.0
3119,56.0,0.0,150.0,12.0,0.0
3120,37.0,0.0,150.0,14.0,0.0
3121,53.0,0.0,150.0,12.0,0.0
3122,49.0,0.0,150.0,13.0,0.0
3123,49.0,0.0,150.0,2.0,0.0
3124,71.0,0.0,390.0,4.0,0.0
3125,68.0,0.0,390.0,1.0,0.0
3126,73.0,0.0,390.0,4.0,0.0
3127,77.0,0.0,390.0,0.0,0.0
3128,47.0,0.0,390.0,5.0,0.0
3129,35.0,240.0,150.0,14.0,0.0
3130,65.0,0.0,390.0,1.0,0.0
3131,47.0,0.0,150.0,2.0,0.0
3132,61.0,0.0,390.0,3.0,0.0
3133,56.0,0.0,150.0,12.0,0.0
3134,47.0,0.0,150.0,13.0,0.0
3135,59.0,240.0,390.0,3.0,0.0
3136,53.0,0.0,150.0,12.0,0.0
3137,49.0,0.0,150.0,2.0,0.0
3138,37.0,0.0,150.0,14.0,0.0
3139,49.0,0.0,150.0,13.0,0.0
3140,47.0,0.0,150.0,2.0,0.0
3141,47.0,0.0,150.0,13.0,0.0
3142,68.0,0.0,390.0,1.0,0.0
3143,65.0,216.0,390.0,1.0,0.0
3144,35.0,48.0,150.0,14.0,0.0
3145,59.0,0.0,390.0,3.0,0.0
3146,47.0,0.0,390.0,5.0,0.0
3147,73.0,0.0,390.0,4.0,0.0
3148,71.0,0.0,390.0,4.0,0.0
3149,61.0,0.0,390.0,3.0,0.0
3150,77.0,0.0,390.0,0.0,0.0
3151,56.0,0.0,150.0,12.0,0.0
3152,53.0,0.0,150.0,12.0,0.0
3153,49.0,0.0,150.0,2.0,0.0
3154,49.0,0.0,150.0,13.0,0.0
3155,37.0,0.0,150.0,14.0,0.0
3156,65.0,0.0,1140.0,12.0,0.0
3157,47.0,96.0,390.0,5.0,0.0
3158,80.0,120.0,120.0,11.0,0.0
3159,71.0,0.0,1140.0,4.0,0.0
3160,73.0,0.0,1140.0,4.0,0.0
3161,61.0,48.0,1140.0,3.0,0.0
3162,80.0,0.0,120.0,10.0,0.0
3163,68.0,0.0,1140.0,1.0,0.0
3164,65.0,0.0,1140.0,1.0,0.0
3165,44.0,0.0,1140.0,2.0,0.0
3166,32.0,0.0,1140.0,14.0,0.0
3167,44.0,0.0,1140.0,13.0,0.0
3168,59.0,0.0,1140.0,3.0,0.0
3169,77.0,0.0,1140.0,0.0,0.0
3170,78.0,120.0,120.0,10.0,0.0
3171,78.0,0.0,120.0,11.0,0.0
3172,77.0,0.0,120.0,11.0,0.0
3173,77.0,24.0,120.0,10.0,0.0
3174,75.0,0.0,120.0,10.0,0.0
3175,75.0,120.0,120.0,11.0,0.0
3176,73.0,0.0,120.0,10.0,0.0
3177,73.0,120.0,120.0,11.0,0.0
3178,71.0,120.0,120.0,10.0,0.0
3179,71.0,0.0,120.0,11.0,0.0
3180,70.0,120.0,120.0,10.0,0.0
3181,70.0,0.0,120.0,11.0,0.0
3182,68.0,0.0,120.0,11.0,0.0
3183,68.0,120.0,120.0,10.0,0.0
3184,66.0,0.0,120.0,11.0,0.0
3185,66.0,72.0,120.0,10.0,0.0
3186,65.0,0.0,120.0,11.0,0.0
3187,65.0,120.0,120.0,10.0,0.0
3188,63.0,0.0,120.0,11.0,0.0
3189,63.0,96.0,120.0,10.0,0.0
3190,61.0,0.0,90.0,10.0,0.0
3191,61.0,168.0,90.0,11.0,0.0
3192,46.0,240.0,150.0,13.0,0.0
3193,66.0,0.0,390.0,1.0,0.0
3194,70.0,0.0,390.0,1.0,0.0
3195,66.0,0.0,1140.0,11.0,0.0
3196,58.0,192.0,1140.0,11.0,0.0
3197,54.0,0.0,390.0,3.0,0.0
3198,61.0,0.0,390.0,3.0,0.0
3199,34.0,0.0,150.0,14.0,0.0
3200,58.0,0.0,1140.0,10.0,0.0
3201,66.0,0.0,1140.0,10.0,0.0
3202,73.0,240.0,390.0,4.0,0.0
3203,42.0,0.0,390.0,5.0,0.0
3204,46.0,0.0,150.0,2.0,0.0
3205,78.0,0.0,390.0,0.0,0.0
3206,61.0,0.0,150.0,12.0,0.0
3207,66.0,0.0,390.0,4.0,0.0
3208,58.0,0.0,150.0,12.0,0.0
3209,37.0,0.0,150.0,14.0,0.0
3210,49.0,0.0,150.0,13.0,0.0
3211,49.0,0.0,150.0,2.0,0.0
3212,70.0,0.0,390.0,1.0,0.0
3213,66.0,0.0,390.0,1.0,0.0
3214,42.0,240.0,390.0,5.0,0.0
3215,46.0,0.0,150.0,2.0,0.0
3216,46.0,240.0,150.0,13.0,0.0
3217,66.0,0.0,390.0,4.0,0.0
3218,78.0,0.0,390.0,0.0,0.0
3219,61.0,0.0,390.0,3.0,0.0
3220,54.0,0.0,390.0,3.0,0.0
3221,34.0,0.0,150.0,14.0,0.0
3222,61.0,0.0,150.0,12.0,0.0
3223,73.0,0.0,390.0,4.0,0.0
3224,49.0,0.0,150.0,13.0,0.0
3225,49.0,0.0,150.0,2.0,0.0
3226,58.0,0.0,150.0,12.0,0.0
3227,37.0,0.0,150.0,14.0,0.0
3228,70.0,0.0,390.0,1.0,0.0
3229,46.0,0.0,150.0,2.0,0.0
3230,61.0,0.0,390.0,3.0,0.0
3231,54.0,0.0,390.0,3.0,0.0
3232,34.0,0.0,150.0,14.0,0.0
3233,66.0,0.0,390.0,1.0,0.0
3234,66.0,0.0,390.0,4.0,0.0
3235,73.0,0.0,390.0,4.0,0.0
3236,46.0,0.0,150.0,13.0,0.0
3237,42.0,0.0,390.0,5.0,0.0
3238,78.0,0.0,390.0,0.0,0.0
3239,61.0,48.0,150.0,12.0,0.0
3240,58.0,216.0,150.0,12.0,0.0
3241,49.0,0.0,150.0,2.0,0.0
3242,37.0,0.0,150.0,14.0,0.0
3243,49.0,0.0,150.0,13.0,0.0
3244,82.0,120.0,120.0,11.0,0.0
3245,82.0,0.0,120.0,10.0,0.0
3246,54.0,0.0,1140.0,3.0,0.0
3247,46.0,0.0,1140.0,13.0,0.0
3248,34.0,0.0,1140.0,14.0,0.0
3249,73.0,0.0,1140.0,4.0,0.0
3250,66.0,0.0,1140.0,4.0,0.0
3251,46.0,0.0,1140.0,2.0,0.0
3252,61.0,48.0,1140.0,3.0,0.0
3253,70.0,0.0,1140.0,1.0,0.0
3254,66.0,0.0,1140.0,1.0,0.0
3255,66.0,0.0,1140.0,12.0,0.0
3256,78.0,0.0,1140.0,0.0,0.0
3257,42.0,96.0,390.0,5.0,0.0
3258,80.0,0.0,120.0,11.0,0.0
3259,80.0,120.0,120.0,10.0,0.0
3260,78.0,24.0,120.0,11.0,0.0
3261,78.0,0.0,120.0,10.0,0.0
3262,77.0,0.0,120.0,10.0,0.0
3263,77.0,120.0,120.0,11.0,0.0
3264,78.0,120.0,120.0,11.0,0.0
3265,78.0,0.0,120.0,10.0,0.0
3266,77.0,120.0,120.0,11.0,0.0
3267,77.0,0.0,120.0,10.0,0.0
3268,75.0,0.0,120.0,11.0,0.0
3269,75.0,120.0,120.0,10.0,0.0
3270,73.0,0.0,120.0,11.0,0.0
3271,73.0,120.0,120.0,10.0,0.0
3272,71.0,72.0,120.0,10.0,0.0
3273,71.0,0.0,120.0,11.0,0.0
3274,70.0,120.0,120.0,10.0,0.0
3275,70.0,0.0,120.0,11.0,0.0
3276,68.0,0.0,120.0,11.0,0.0
3277,68.0,96.0,120.0,10.0,0.0
3278,66.0,168.0,90.0,10.0,0.0
3279,66.0,0.0,90.0,11.0,0.0
3280,63.0,0.0,390.0,4.0,0.0
3281,66.0,0.0,390.0,4.0,0.0
3282,51.0,0.0,390.0,3.0,0.0
3283,72.0,0.0,1140.0,11.0,0.0
3284,72.0,240.0,390.0,1.0,0.0
3285,66.0,0.0,1140.0,11.0,0.0
3286,54.0,0.0,390.0,3.0,0.0
3287,39.0,0.0,150.0,14.0,0.0
3288,78.0,0.0,390.0,1.0,0.0
3289,66.0,0.0,150.0,12.0,0.0
3290,51.0,0.0,150.0,2.0,0.0
3291,72.0,0.0,1140.0,10.0,0.0
3292,66.0,192.0,1140.0,10.0,0.0
3293,51.0,240.0,150.0,13.0,0.0
3294,84.0,0.0,390.0,0.0,0.0
3295,42.0,0.0,390.0,5.0,0.0
3296,54.0,0.0,150.0,2.0,0.0
3297,42.0,0.0,150.0,14.0,0.0
3298,63.0,0.0,150.0,12.0,0.0
3299,54.0,0.0,150.0,13.0,0.0
3300,54.0,0.0,390.0,3.0,0.0
3301,51.0,0.0,390.0,3.0,0.0
3302,66.0,240.0,150.0,12.0,0.0
3303,39.0,0.0,150.0,14.0,0.0
3304,42.0,0.0,390.0,5.0,0.0
3305,78.0,0.0,390.0,1.0,0.0
3306,72.0,0.0,390.0,1.0,0.0
3307,84.0,0.0,390.0,0.0,0.0
3308,63.0,0.0,390.0,4.0,0.0
3309,66.0,240.0,390.0,4.0,0.0
3310,51.0,0.0,150.0,2.0,0.0
3311,51.0,0.0,150.0,13.0,0.0
3312,42.0,0.0,150.0,14.0,0.0
3313,54.0,0.0,150.0,2.0,0.0
3314,63.0,0.0,150.0,12.0,0.0
3315,54.0,0.0,150.0,13.0,0.0
3316,51.0,0.0,150.0,2.0,0.0
3317,78.0,0.0,390.0,1.0,0.0
3318,63.0,0.0,390.0,4.0,0.0
3319,66.0,0.0,150.0,12.0,0.0
3320,72.0,0.0,390.0,1.0,0.0
3321,39.0,48.0,150.0,14.0,0.0
3322,51.0,0.0,150.0,13.0,0.0
3323,84.0,0.0,390.0,0.0,0.0
3324,51.0,0.0,390.0,3.0,0.0
3325,54.0,0.0,390.0,3.0,0.0
3326,42.0,0.0,390.0,5.0,0.0
3327,66.0,0.0,390.0,4.0,0.0
3328,42.0,216.0,150.0,14.0,0.0
3329,54.0,0.0,150.0,2.0,0.0
3330,54.0,0.0,150.0,13.0,0.0
3331,63.0,0.0,150.0,12.0,0.0
3332,51.0,0.0,1140.0,2.0,0.0
3333,72.0,0.0,1140.0,1.0,0.0
3334,42.0,96.0,390.0,5.0,0.0
3335,60.0,120.0,960.0,12.0,0.0
3336,78.0,120.0,120.0,10.0,0.0
3337,84.0,0.0,1140.0,0.0,0.0
3338,51.0,0.0,1140.0,13.0,0.0
3339,78.0,0.0,1140.0,1.0,0.0
3340,54.0,0.0,1140.0,3.0,0.0
3341,63.0,0.0,1140.0,4.0,0.0
3342,66.0,48.0,1140.0,4.0,0.0
3343,51.0,0.0,1140.0,3.0,0.0
3344,39.0,0.0,1140.0,14.0,0.0
3345,78.0,0.0,120.0,11.0,0.0
3346,77.0,0.0,120.0,11.0,0.0
3347,77.0,120.0,120.0,10.0,0.0
3348,75.0,0.0,120.0,10.0,0.0
3349,75.0,24.0,120.0,11.0,0.0
3350,73.0,120.0,120.0,10.0,0.0
3351,73.0,0.0,120.0,11.0,0.0
3352,72.0,0.0,120.0,11.0,0.0
3353,72.0,120.0,120.0,10.0,0.0
3354,70.0,120.0,120.0,11.0,0.0
3355,70.0,0.0,120.0,10.0,0.0
3356,68.0,0.0,120.0,10.0,0.0
3357,68.0,120.0,120.0,11.0,0.0
3358,66.0,0.0,120.0,11.0,0.0
3359,66.0,0.0,120.0,10.0,0.0
3360,65.0,72.0,120.0,10.0,0.0
3361,65.0,0.0,120.0,11.0,0.0
3362,54.0,72.0,390.0,12.0,0.0
3363,63.0,0.0,120.0,10.0,0.0
3364,63.0,120.0,120.0,11.0,0.0
3365,61.0,24.0,120.0,10.0,0.0
3366,61.0,0.0,120.0,11.0,0.0
3367,60.0,120.0,90.0,10.0,0.0
3368,60.0,0.0,90.0,11.0,0.0
3369,61.0,0.0,90.0,10.0,0.0
3370,37.0,0.0,180.0,14.0,0.0
3371,53.0,0.0,180.0,12.0,0.0
3372,73.0,48.0,390.0,4.0,0.0
3373,61.0,96.0,90.0,11.0,0.0
3374,73.0,0.0,1140.0,1.0,0.0
3375,77.0,0.0,1140.0,1.0,0.0
3376,85.0,0.0,1140.0,0.0,0.0
3377,49.0,0.0,180.0,13.0,0.0
3378,49.0,24.0,180.0,2.0,0.0
3379,61.0,72.0,1080.0,3.0,0.0
3380,61.0,120.0,90.0,11.0,0.0
3381,61.0,0.0,90.0,10.0,0.0
3382,49.0,0.0,180.0,2.0,0.0
3383,65.0,48.0,90.0,10.0,0.0
3384,37.0,24.0,180.0,14.0,0.0
3385,56.0,0.0,180.0,12.0,0.0
3386,49.0,0.0,180.0,13.0,0.0
3387,65.0,0.0,90.0,11.0,0.0
3388,65.0,0.0,90.0,10.0,0.0
3389,65.0,120.0,90.0,11.0,0.0
3390,68.0,96.0,90.0,10.0,0.0
3391,68.0,0.0,90.0,11.0,0.0
3392,49.0,0.0,180.0,2.0,0.0
3393,56.0,24.0,180.0,12.0,0.0
3394,49.0,0.0,180.0,13.0,0.0
3395,37.0,0.0,180.0,14.0,0.0
3396,68.0,120.0,90.0,10.0,0.0
3397,68.0,0.0,90.0,11.0,0.0
3398,73.0,96.0,90.0,11.0,0.0
3399,49.0,0.0,180.0,2.0,0.0
3400,73.0,0.0,90.0,10.0,0.0
3401,37.0,0.0,180.0,14.0,0.0
3402,49.0,0.0,180.0,13.0,0.0
3403,56.0,24.0,180.0,12.0,0.0
3404,73.0,0.0,90.0,10.0,0.0
3405,73.0,120.0,90.0,11.0,0.0
3406,37.0,24.0,180.0,14.0,0.0
3407,49.0,0.0,180.0,2.0,0.0
3408,77.0,0.0,90.0,11.0,0.0
3409,56.0,0.0,180.0,12.0,0.0
3410,49.0,0.0,180.0,13.0,0.0
3411,77.0,24.0,90.0,10.0,0.0
3412,77.0,120.0,90.0,11.0,0.0
3413,77.0,0.0,90.0,10.0,0.0
3414,49.0,24.0,180.0,2.0,0.0
3415,49.0,0.0,180.0,13.0,0.0
3416,73.0,96.0,90.0,10.0,0.0
3417,73.0,0.0,90.0,11.0,0.0
3418,37.0,0.0,180.0,14.0,0.0
3419,56.0,0.0,180.0,12.0,0.0
3420,73.0,0.0,90.0,11.0,0.0
3421,73.0,120.0,90.0,10.0,0.0
3422,84.0,0.0,1140.0,0.0,0.0
3423,78.0,0.0,1140.0,1.0,0.0
3424,72.0,0.0,1140.0,1.0,0.0
3425,49.0,0.0,180.0,13.0,0.0
3426,49.0,24.0,180.0,2.0,0.0
3427,63.0,0.0,180.0,12.0,0.0
3428,61.0,72.0,1080.0,3.0,0.0
3429,72.0,96.0,90.0,10.0,0.0
3430,72.0,0.0,90.0,11.0,0.0
3431,37.0,0.0,180.0,14.0,0.0
3432,72.0,120.0,90.0,11.0,0.0
3433,72.0,0.0,90.0,10.0,0.0
3434,78.0,0.0,90.0,11.0,0.0
3435,49.0,0.0,180.0,2.0,0.0
3436,63.0,24.0,180.0,12.0,0.0
3437,49.0,0.0,180.0,13.0,0.0
3438,78.0,96.0,90.0,10.0,0.0
3439,37.0,0.0,180.0,14.0,0.0
3440,78.0,0.0,90.0,11.0,0.0
3441,78.0,120.0,90.0,10.0,0.0
3442,49.0,0.0,180.0,2.0,0.0
3443,49.0,24.0,180.0,13.0,0.0
3444,75.0,96.0,90.0,10.0,0.0
3445,37.0,0.0,180.0,14.0,0.0
3446,75.0,0.0,90.0,11.0,0.0
3447,63.0,0.0,180.0,12.0,0.0
3448,75.0,120.0,90.0,11.0,0.0
3449,75.0,0.0,90.0,10.0,0.0
3450,72.0,96.0,90.0,11.0,0.0
3451,72.0,0.0,90.0,10.0,0.0
3452,49.0,0.0,180.0,13.0,0.0
3453,37.0,0.0,180.0,14.0,0.0
3454,49.0,0.0,180.0,2.0,0.0
3455,63.0,24.0,180.0,12.0,0.0
3456,72.0,0.0,90.0,10.0,0.0
3457,72.0,120.0,90.0,11.0,0.0
3458,63.0,0.0,180.0,12.0,0.0
3459,68.0,0.0,90.0,10.0,0.0
3460,49.0,24.0,180.0,13.0,0.0
3461,49.0,0.0,180.0,2.0,0.0
3462,68.0,24.0,90.0,11.0,0.0
3463,37.0,0.0,180.0,14.0,0.0
3464,68.0,0.0,90.0,11.0,0.0
3465,68.0,120.0,90.0,10.0,0.0
3466,63.0,0.0,180.0,12.0,0.0
3467,37.0,0.0,180.0,14.0,0.0
3468,49.0,0.0,180.0,2.0,0.0
3469,49.0,24.0,180.0,13.0,0.0
3470,66.0,0.0,90.0,11.0,0.0
3471,66.0,96.0,90.0,10.0,0.0
3472,66.0,120.0,90.0,11.0,0.0
3473,66.0,0.0,90.0,10.0,0.0
3474,65.0,96.0,90.0,10.0,0.0
3475,73.0,48.0,390.0,4.0,0.0
3476,37.0,0.0,180.0,14.0,0.0
3477,49.0,24.0,180.0,13.0,0.0
3478,73.0,0.0,1140.0,1.0,0.0
3479,61.0,72.0,1080.0,3.0,0.0
3480,56.0,0.0,180.0,12.0,0.0
3481,65.0,0.0,90.0,11.0,0.0
3482,85.0,0.0,1140.0,0.0,0.0
3483,77.0,0.0,1140.0,1.0,0.0
3484,49.0,0.0,180.0,2.0,0.0
3485,65.0,120.0,90.0,11.0,0.0
3486,65.0,0.0,90.0,10.0,0.0
3487,49.0,0.0,180.0,2.0,0.0
3488,68.0,0.0,90.0,11.0,0.0
3489,37.0,0.0,180.0,14.0,0.0
3490,56.0,24.0,180.0,12.0,0.0
3491,68.0,48.0,90.0,10.0,0.0
3492,49.0,0.0,180.0,13.0,0.0
3493,68.0,120.0,90.0,10.0,0.0
3494,68.0,0.0,90.0,11.0,0.0
3495,49.0,0.0,180.0,13.0,0.0
3496,49.0,0.0,180.0,2.0,0.0
3497,56.0,0.0,180.0,12.0,0.0
3498,73.0,0.0,90.0,11.0,0.0
3499,73.0,96.0,90.0,10.0,0.0
3500,37.0,24.0,180.0,14.0,0.0
3501,73.0,0.0,90.0,10.0,0.0
3502,73.0,120.0,90.0,11.0,0.0
3503,68.0,96.0,90.0,11.0,0.0
3504,37.0,0.0,180.0,14.0,0.0
3505,68.0,0.0,90.0,10.0,0.0
3506,49.0,0.0,180.0,13.0,0.0
3507,56.0,0.0,180.0,12.0,0.0
3508,49.0,24.0,180.0,2.0,0.0
3509,68.0,120.0,90.0,11.0,0.0
3510,68.0,0.0,90.0,10.0,0.0
3511,37.0,0.0,180.0,14.0,0.0
3512,56.0,0.0,180.0,12.0,0.0
3513,77.0,0.0,90.0,10.0,0.0
3514,77.0,24.0,90.0,11.0,0.0
3515,49.0,0.0,180.0,13.0,0.0
3516,49.0,24.0,180.0,2.0,0.0
3517,77.0,120.0,90.0,10.0,0.0
3518,77.0,0.0,90.0,11.0,0.0
3519,73.0,96.0,90.0,11.0,0.0
3520,49.0,0.0,180.0,13.0,0.0
3521,73.0,0.0,90.0,10.0,0.0
3522,56.0,0.0,180.0,12.0,0.0
3523,37.0,24.0,180.0,14.0,0.0
3524,49.0,0.0,180.0,2.0,0.0
3525,73.0,0.0,90.0,11.0,0.0
3526,73.0,120.0,90.0,10.0,0.0
3527,63.0,0.0,180.0,12.0,0.0
3528,61.0,72.0,1080.0,3.0,0.0
3529,72.0,0.0,1140.0,1.0,0.0
3530,72.0,96.0,90.0,10.0,0.0
3531,72.0,0.0,90.0,11.0,0.0
3532,49.0,0.0,180.0,13.0,0.0
3533,84.0,0.0,1140.0,0.0,0.0
3534,78.0,0.0,1140.0,1.0,0.0
3535,37.0,0.0,180.0,14.0,0.0
3536,49.0,24.0,180.0,2.0,0.0
3537,72.0,120.0,90.0,11.0,0.0
3538,72.0,0.0,90.0,10.0,0.0
3539,78.0,0.0,90.0,11.0,0.0
3540,37.0,0.0,180.0,14.0,0.0
3541,78.0,96.0,90.0,10.0,0.0
3542,63.0,0.0,180.0,12.0,0.0
3543,49.0,0.0,180.0,2.0,0.0
3544,49.0,24.0,180.0,13.0,0.0
3545,78.0,120.0,90.0,11.0,0.0
3546,78.0,0.0,90.0,10.0,0.0
3547,49.0,24.0,180.0,13.0,0.0
3548,75.0,96.0,90.0,10.0,0.0
3549,37.0,0.0,180.0,14.0,0.0
3550,63.0,0.0,180.0,12.0,0.0
3551,75.0,0.0,90.0,11.0,0.0
3552,49.0,0.0,180.0,2.0,0.0
3553,75.0,120.0,90.0,11.0,0.0
3554,75.0,0.0,90.0,10.0,0.0
3555,72.0,0.0,90.0,10.0,0.0
3556,49.0,0.0,180.0,2.0,0.0
3557,63.0,0.0,180.0,12.0,0.0
3558,37.0,24.0,180.0,14.0,0.0
3559,49.0,0.0,180.0,13.0,0.0
3560,72.0,96.0,90.0,11.0,0.0
3561,72.0,120.0,90.0,10.0,0.0
3562,72.0,0.0,90.0,11.0,0.0
3563,49.0,24.0,180.0,13.0,0.0
3564,68.0,24.0,90.0,11.0,0.0
3565,49.0,0.0,180.0,2.0,0.0
3566,68.0,0.0,90.0,10.0,0.0
3567,37.0,0.0,180.0,14.0,0.0
3568,63.0,0.0,180.0,12.0,0.0
3569,68.0,0.0,90.0,11.0,0.0
3570,68.0,120.0,90.0,10.0,0.0
3571,37.0,0.0,180.0,14.0,0.0
3572,49.0,0.0,180.0,2.0,0.0
3573,66.0,0.0,90.0,11.0,0.0
3574,63.0,24.0,180.0,12.0,0.0
3575,66.0,96.0,90.0,10.0,0.0
3576,49.0,0.0,180.0,13.0,0.0
3577,66.0,0.0,90.0,10.0,0.0
3578,66.0,120.0,90.0,11.0,0.0
3579,49.0,0.0,180.0,13.0,0.0
3580,65.0,96.0,90.0,10.0,0.0
3581,56.0,0.0,180.0,12.0,0.0
3582,85.0,0.0,180.0,0.0,0.0
3583,49.0,24.0,180.0,2.0,0.0
3584,37.0,0.0,180.0,14.0,0.0
3585,61.0,48.0,300.0,3.0,0.0
3586,73.0,0.0,300.0,4.0,0.0
3587,73.0,0.0,180.0,1.0,0.0
3588,77.0,0.0,180.0,1.0,0.0
3589,65.0,0.0,90.0,11.0,0.0
3590,65.0,72.0,90.0,10.0,0.0
3591,65.0,0.0,90.0,11.0,0.0
3592,61.0,0.0,90.0,11.0,0.0
3593,49.0,24.0,180.0,12.0,0.0
3594,37.0,0.0,180.0,14.0,0.0
3595,61.0,0.0,180.0,1.0,0.0
3596,73.0,0.0,180.0,0.0,0.0
3597,49.0,0.0,180.0,2.0,0.0
3598,61.0,96.0,90.0,10.0,0.0
3599,49.0,0.0,180.0,13.0,0.0
3600,61.0,120.0,90.0,10.0,0.0
3601,61.0,0.0,90.0,11.0,0.0
3602,51.0,0.0,180.0,12.0,0.0
3603,51.0,0.0,180.0,13.0,0.0
3604,51.0,0.0,180.0,2.0,0.0
3605,63.0,0.0,180.0,1.0,0.0
3606,63.0,96.0,90.0,10.0,0.0
3607,63.0,0.0,90.0,11.0,0.0
3608,39.0,0.0,180.0,14.0,0.0
3609,75.0,24.0,180.0,0.0,0.0
3610,63.0,0.0,90.0,10.0,0.0
3611,63.0,120.0,90.0,11.0,0.0
3612,65.0,96.0,90.0,10.0,0.0
3613,53.0,0.0,180.0,12.0,0.0
3614,65.0,0.0,90.0,11.0,0.0
3615,53.0,0.0,180.0,13.0,0.0
3616,53.0,0.0,180.0,2.0,0.0
3617,65.0,24.0,180.0,1.0,0.0
3618,41.0,0.0,180.0,14.0,0.0
3619,77.0,0.0,180.0,0.0,0.0
3620,65.0,0.0,90.0,10.0,0.0
3621,65.0,120.0,90.0,11.0,0.0
3622,54.0,0.0,180.0,13.0,0.0
3623,66.0,0.0,180.0,1.0,0.0
3624,54.0,24.0,180.0,2.0,0.0
3625,66.0,0.0,90.0,10.0,0.0
3626,54.0,0.0,180.0,12.0,0.0
3627,66.0,96.0,90.0,11.0,0.0
3628,78.0,0.0,180.0,0.0,0.0
3629,42.0,0.0,180.0,14.0,0.0
3630,66.0,0.0,90.0,11.0,0.0
3631,66.0,120.0,90.0,10.0,0.0
3632,80.0,24.0,180.0,0.0,0.0
3633,56.0,0.0,180.0,2.0,0.0
3634,44.0,0.0,180.0,14.0,0.0
3635,68.0,0.0,90.0,10.0,0.0
3636,56.0,0.0,180.0,12.0,0.0
3637,56.0,0.0,180.0,13.0,0.0
3638,68.0,96.0,90.0,11.0,0.0
3639,68.0,0.0,180.0,1.0,0.0
3640,68.0,120.0,90.0,10.0,0.0
3641,68.0,0.0,90.0,11.0,0.0
3642,70.0,0.0,90.0,11.0,0.0
3643,58.0,0.0,180.0,13.0,0.0
3644,58.0,0.0,180.0,12.0,0.0
3645,82.0,0.0,180.0,0.0,0.0
3646,70.0,0.0,180.0,1.0,0.0
3647,70.0,96.0,90.0,10.0,0.0
3648,46.0,0.0,180.0,14.0,0.0
3649,58.0,24.0,180.0,2.0,0.0
3650,70.0,120.0,90.0,11.0,0.0
3651,70.0,0.0,90.0,10.0,0.0
3652,53.0,0.0,180.0,12.0,0.0
3653,41.0,24.0,180.0,14.0,0.0
3654,53.0,0.0,180.0,2.0,0.0
3655,65.0,0.0,90.0,10.0,0.0
3656,65.0,0.0,180.0,1.0,0.0
3657,77.0,0.0,180.0,0.0,0.0
3658,65.0,96.0,90.0,11.0,0.0
3659,53.0,0.0,180.0,13.0,0.0
3660,65.0,120.0,90.0,10.0,0.0
3661,65.0,0.0,90.0,11.0,0.0
3662,78.0,0.0,180.0,0.0,0.0
3663,54.0,0.0,180.0,2.0,0.0
3664,66.0,0.0,90.0,11.0,0.0
3665,66.0,0.0,180.0,1.0,0.0
3666,66.0,96.0,90.0,10.0,0.0
3667,54.0,0.0,180.0,13.0,0.0
3668,42.0,0.0,180.0,14.0,0.0
3669,54.0,24.0,180.0,12.0,0.0
3670,66.0,120.0,90.0,10.0,0.0
3671,66.0,0.0,90.0,11.0,0.0
3672,68.0,0.0,90.0,10.0,0.0
3673,80.0,0.0,180.0,0.0,0.0
3674,68.0,0.0,180.0,1.0,0.0
3675,56.0,0.0,180.0,13.0,0.0
3676,56.0,0.0,180.0,2.0,0.0
3677,44.0,24.0,180.0,14.0,0.0
3678,56.0,0.0,180.0,12.0,0.0
3679,68.0,96.0,90.0,11.0,0.0
3680,68.0,0.0,90.0,10.0,0.0
3681,68.0,120.0,90.0,11.0,0.0
3682,58.0,0.0,180.0,13.0,0.0
3683,58.0,0.0,180.0,2.0,0.0
3684,82.0,0.0,180.0,0.0,0.0
3685,58.0,0.0,180.0,12.0,0.0
3686,70.0,0.0,180.0,1.0,0.0
3687,70.0,0.0,90.0,11.0,0.0
3688,70.0,96.0,90.0,10.0,0.0
3689,46.0,24.0,180.0,14.0,0.0
3690,70.0,120.0,90.0,10.0,0.0
3691,70.0,0.0,90.0,11.0,0.0
3692,72.0,0.0,90.0,11.0,0.0
3693,60.0,24.0,180.0,12.0,0.0
3694,72.0,0.0,180.0,1.0,0.0
3695,48.0,0.0,180.0,14.0,0.0
3696,60.0,0.0,180.0,13.0,0.0
3697,72.0,96.0,90.0,10.0,0.0
3698,60.0,0.0,180.0,2.0,0.0
3699,84.0,0.0,180.0,0.0,0.0
3700,72.0,168.0,90.0,10.0,0.0
3701,72.0,0.0,90.0,11.0,0.0
3702,61.0,0.0,150.0,2.0,0.0
3703,73.0,0.0,150.0,11.0,0.0
3704,85.0,0.0,390.0,0.0,0.0
3705,73.0,0.0,150.0,10.0,0.0
3706,61.0,0.0,150.0,13.0,0.0
3707,73.0,72.0,390.0,1.0,0.0
3708,61.0,0.0,150.0,12.0,0.0
3709,49.0,216.0,150.0,14.0,0.0
3710,75.0,24.0,120.0,10.0,0.0
3711,63.0,0.0,120.0,13.0,0.0
3712,75.0,0.0,120.0,11.0,0.0
3713,51.0,0.0,120.0,14.0,0.0
3714,63.0,0.0,120.0,2.0,0.0
3715,63.0,0.0,120.0,12.0,0.0
3716,60.0,168.0,90.0,2.0,0.0
3717,60.0,0.0,90.0,12.0,0.0
3718,48.0,0.0,90.0,14.0,0.0
3719,72.0,0.0,90.0,11.0,0.0
3720,60.0,0.0,90.0,13.0,0.0
3721,72.0,0.0,90.0,10.0,0.0
3722,61.0,0.0,150.0,2.0,0.0
3723,73.0,0.0,150.0,10.0,0.0
3724,49.0,0.0,150.0,14.0,0.0
3725,73.0,0.0,150.0,11.0,0.0
3726,61.0,0.0,150.0,12.0,0.0
3727,61.0,216.0,150.0,13.0,0.0
3728,63.0,0.0,120.0,2.0,0.0
3729,63.0,96.0,120.0,12.0,0.0
3730,63.0,0.0,120.0,13.0,0.0
3731,51.0,0.0,120.0,14.0,0.0
3732,75.0,0.0,120.0,10.0,0.0
3733,75.0,0.0,120.0,11.0,0.0
3734,60.0,0.0,90.0,13.0,0.0
3735,60.0,168.0,90.0,12.0,0.0
3736,72.0,0.0,90.0,10.0,0.0
3737,48.0,0.0,90.0,14.0,0.0
3738,60.0,0.0,90.0,2.0,0.0
3739,72.0,0.0,90.0,11.0,0.0
3740,49.0,0.0,150.0,14.0,0.0
3741,61.0,0.0,150.0,2.0,0.0
3742,73.0,0.0,150.0,11.0,0.0
3743,61.0,0.0,150.0,13.0,0.0
3744,73.0,0.0,150.0,10.0,0.0
3745,61.0,216.0,150.0,12.0,0.0
3746,63.0,0.0,120.0,12.0,0.0
3747,75.0,0.0,120.0,11.0,0.0
3748,63.0,0.0,120.0,2.0,0.0
3749,63.0,96.0,120.0,13.0,0.0
3750,75.0,0.0,120.0,10.0,0.0
3751,51.0,0.0,120.0,14.0,0.0
3752,72.0,336.0,90.0,11.0,0.0
3753,60.0,0.0,90.0,12.0,0.0
3754,48.0,0.0,90.0,14.0,0.0
3755,72.0,0.0,90.0,10.0,0.0
3756,60.0,0.0,90.0,2.0,0.0
3757,60.0,0.0,90.0,13.0,0.0
3758,61.0,0.0,300.0,13.0,0.0
3759,65.0,0.0,390.0,1.0,0.0
3760,73.0,0.0,300.0,10.0,0.0
3761,61.0,0.0,390.0,3.0,0.0
3762,49.0,0.0,300.0,14.0,0.0
3763,68.0,0.0,390.0,1.0,0.0
3764,61.0,72.0,300.0,12.0,0.0
3765,73.0,0.0,300.0,11.0,0.0
3766,73.0,0.0,390.0,0.0,0.0
3767,73.0,408.0,390.0,4.0,0.0
3768,61.0,0.0,390.0,2.0,0.0
3769,61.0,0.0,300.0,11.0,0.0
3770,53.0,0.0,300.0,11.0,0.0
3771,61.0,480.0,390.0,3.0,0.0
3772,73.0,0.0,390.0,4.0,0.0
3773,61.0,0.0,300.0,10.0,0.0
3774,61.0,0.0,390.0,2.0,0.0
3775,53.0,0.0,300.0,10.0,0.0
3776,65.0,0.0,390.0,1.0,0.0
3777,68.0,0.0,390.0,1.0,0.0
3778,49.0,0.0,300.0,13.0,0.0
3779,73.0,0.0,390.0,0.0,0.0
3780,49.0,72.0,300.0,12.0,0.0
3781,37.0,0.0,300.0,14.0,0.0
3782,65.0,0.0,390.0,1.0,0.0
3783,61.0,0.0,390.0,2.0,0.0
3784,73.0,0.0,390.0,4.0,0.0
3785,68.0,0.0,390.0,1.0,0.0
3786,73.0,0.0,390.0,0.0,0.0
3787,61.0,240.0,390.0,3.0,0.0
3788,47.0,0.0,150.0,14.0,0.0
3789,77.0,0.0,1830.0,0.0,0.0
3790,71.0,0.0,1830.0,4.0,0.0
3791,59.0,0.0,1830.0,3.0,0.0
3792,59.0,0.0,150.0,12.0,0.0
3793,73.0,0.0,1830.0,4.0,0.0
3794,59.0,216.0,150.0,13.0,0.0
3795,71.0,0.0,150.0,10.0,0.0
3796,65.0,0.0,1830.0,1.0,0.0
3797,68.0,408.0,1830.0,1.0,0.0
3798,71.0,0.0,150.0,11.0,0.0
3799,59.0,0.0,1830.0,2.0,0.0
3800,61.0,0.0,1830.0,3.0,0.0
3801,61.0,96.0,120.0,13.0,0.0
3802,73.0,0.0,120.0,11.0,0.0
3803,73.0,0.0,120.0,10.0,0.0
3804,49.0,0.0,120.0,14.0,0.0
3805,61.0,0.0,120.0,12.0,0.0
3806,70.0,168.0,90.0,10.0,0.0
3807,58.0,0.0,90.0,13.0,0.0
3808,46.0,0.0,90.0,14.0,0.0
3809,70.0,0.0,90.0,11.0,0.0
3810,58.0,0.0,90.0,12.0,0.0
3811,71.0,0.0,150.0,11.0,0.0
3812,47.0,0.0,150.0,14.0,0.0
3813,59.0,216.0,150.0,13.0,0.0
3814,71.0,0.0,150.0,10.0,0.0
3815,59.0,0.0,150.0,12.0,0.0
3816,73.0,0.0,120.0,10.0,0.0
3817,61.0,0.0,120.0,13.0,0.0
3818,49.0,96.0,120.0,14.0,0.0
3819,73.0,0.0,120.0,11.0,0.0
3820,61.0,0.0,120.0,12.0,0.0
3821,70.0,0.0,90.0,10.0,0.0
3822,70.0,0.0,90.0,11.0,0.0
3823,58.0,0.0,90.0,13.0,0.0
3824,46.0,168.0,90.0,14.0,0.0
3825,58.0,0.0,90.0,12.0,0.0
3826,71.0,216.0,150.0,10.0,0.0
3827,47.0,0.0,150.0,14.0,0.0
3828,59.0,0.0,150.0,13.0,0.0
3829,71.0,0.0,150.0,11.0,0.0
3830,59.0,0.0,150.0,12.0,0.0
3831,73.0,0.0,120.0,11.0,0.0
3832,61.0,0.0,120.0,12.0,0.0
3833,61.0,0.0,120.0,13.0,0.0
3834,49.0,96.0,120.0,14.0,0.0
3835,73.0,0.0,120.0,10.0,0.0
3836,58.0,336.0,90.0,13.0,0.0
3837,70.0,0.0,90.0,10.0,0.0
3838,46.0,0.0,90.0,14.0,0.0
3839,70.0,0.0,90.0,11.0,0.0
3840,58.0,0.0,90.0,12.0,0.0
3841,71.0,0.0,300.0,11.0,0.0
3842,47.0,0.0,300.0,14.0,0.0
3843,59.0,72.0,300.0,12.0,0.0
3844,71.0,0.0,300.0,10.0,0.0
3845,59.0,0.0,300.0,13.0,0.0
3846,59.0,0.0,300.0,10.0,0.0
3847,65.0,0.0,390.0,1.0,0.0
3848,59.0,72.0,300.0,11.0,0.0
3849,47.0,0.0,300.0,12.0,0.0
3850,47.0,0.0,300.0,13.0,0.0
3851,59.0,0.0,390.0,2.0,0.0
3852,35.0,0.0,300.0,14.0,0.0
3853,68.0,0.0,390.0,1.0,0.0
3854,77.0,0.0,390.0,0.0,0.0
3855,71.0,0.0,390.0,4.0,0.0
3856,73.0,0.0,390.0,4.0,0.0
3857,59.0,480.0,390.0,3.0,0.0
3858,61.0,0.0,390.0,3.0,0.0
3859,71.0,0.0,390.0,4.0,0.0
3860,73.0,0.0,390.0,4.0,0.0
3861,59.0,0.0,390.0,2.0,0.0
3862,77.0,0.0,390.0,0.0,0.0
3863,65.0,0.0,390.0,1.0,0.0
3864,68.0,0.0,390.0,1.0,0.0
3865,59.0,240.0,390.0,3.0,0.0
3866,61.0,0.0,390.0,3.0,0.0
3867,58.0,0.0,1830.0,2.0,0.0
3868,42.0,72.0,390.0,5.0,0.0
3869,73.0,0.0,1830.0,4.0,0.0
3870,58.0,0.0,150.0,12.0,0.0
3871,70.0,0.0,150.0,10.0,0.0
3872,58.0,0.0,150.0,13.0,0.0
3873,78.0,0.0,1830.0,0.0,0.0
3874,46.0,216.0,150.0,14.0,0.0
3875,54.0,0.0,1830.0,3.0,0.0
3876,70.0,0.0,150.0,11.0,0.0
3877,61.0,0.0,1830.0,3.0,0.0
3878,70.0,0.0,1830.0,1.0,0.0
3879,66.0,0.0,1830.0,1.0,0.0
3880,66.0,408.0,1830.0,4.0,0.0
3881,71.0,24.0,120.0,11.0,0.0
3882,47.0,0.0,120.0,14.0,0.0
3883,59.0,0.0,120.0,13.0,0.0
3884,59.0,0.0,120.0,12.0,0.0
3885,71.0,0.0,120.0,10.0,0.0
3886,56.0,0.0,90.0,12.0,0.0
3887,56.0,0.0,90.0,13.0,0.0
3888,68.0,0.0,90.0,10.0,0.0
3889,44.0,168.0,90.0,14.0,0.0
3890,68.0,0.0,90.0,11.0,0.0
3891,70.0,0.0,150.0,11.0,0.0
3892,58.0,216.0,150.0,12.0,0.0
3893,70.0,0.0,150.0,10.0,0.0
3894,46.0,0.0,150.0,14.0,0.0
3895,58.0,0.0,150.0,13.0,0.0
3896,42.0,72.0,390.0,5.0,0.0
3897,71.0,0.0,120.0,11.0,0.0
3898,59.0,0.0,120.0,12.0,0.0
3899,71.0,0.0,120.0,10.0,0.0
3900,59.0,24.0,120.0,13.0,0.0
3901,47.0,0.0,120.0,14.0,0.0
3902,68.0,0.0,90.0,11.0,0.0
3903,68.0,0.0,90.0,10.0,0.0
3904,56.0,168.0,90.0,12.0,0.0
3905,44.0,0.0,90.0,14.0,0.0
3906,56.0,0.0,90.0,13.0,0.0
3907,46.0,0.0,150.0,14.0,0.0
3908,58.0,216.0,150.0,13.0,0.0
3909,42.0,72.0,390.0,5.0,0.0
3910,70.0,0.0,150.0,10.0,0.0
3911,58.0,0.0,150.0,12.0,0.0
3912,70.0,0.0,150.0,11.0,0.0
3913,59.0,0.0,120.0,13.0,0.0
3914,47.0,0.0,120.0,14.0,0.0
3915,59.0,0.0,120.0,12.0,0.0
3916,71.0,24.0,120.0,11.0,0.0
3917,71.0,0.0,120.0,10.0,0.0
3918,56.0,0.0,90.0,12.0,0.0
3919,44.0,0.0,90.0,14.0,0.0
3920,68.0,336.0,90.0,11.0,0.0
3921,56.0,0.0,90.0,13.0,0.0
3922,68.0,0.0,90.0,10.0,0.0
3923,42.0,0.0,390.0,5.0,0.0
3924,70.0,0.0,300.0,11.0,0.0
3925,58.0,0.0,300.0,13.0,0.0
3926,58.0,0.0,300.0,12.0,0.0
3927,70.0,0.0,300.0,10.0,0.0
3928,46.0,72.0,300.0,14.0,0.0
3929,73.0,0.0,390.0,4.0,0.0
3930,61.0,0.0,390.0,3.0,0.0
3931,58.0,0.0,390.0,2.0,0.0
3932,70.0,0.0,390.0,1.0,0.0
3933,58.0,0.0,300.0,10.0,0.0
3934,54.0,0.0,390.0,3.0,0.0
3935,46.0,0.0,300.0,13.0,0.0
3936,66.0,0.0,390.0,1.0,0.0
3937,66.0,0.0,390.0,4.0,0.0
3938,82.0,480.0,390.0,0.0,0.0
3939,46.0,72.0,300.0,12.0,0.0
3940,34.0,0.0,300.0,14.0,0.0
3941,58.0,0.0,300.0,11.0,0.0
3942,54.0,0.0,390.0,3.0,0.0
3943,61.0,0.0,390.0,3.0,0.0
3944,66.0,0.0,390.0,4.0,0.0
3945,73.0,0.0,390.0,4.0,0.0
3946,78.0,0.0,390.0,0.0,0.0
3947,58.0,0.0,390.0,2.0,0.0
3948,66.0,0.0,390.0,1.0,0.0
3949,70.0,240.0,390.0,1.0,0.0
3950,56.0,0.0,150.0,13.0,0.0
3951,77.0,0.0,1830.0,1.0,0.0
3952,68.0,0.0,150.0,11.0,0.0
3953,83.0,24.0,1800.0,0.0,0.0
3954,68.0,0.0,150.0,10.0,0.0
3955,56.0,216.0,150.0,12.0,0.0
3956,68.0,36.0,1830.0,1.0,0.0
3957,44.0,0.0,150.0,14.0,0.0
3958,44.0,0.0,1830.0,2.0,0.0
3959,71.0,0.0,1830.0,4.0,0.0
3960,61.0,0.0,1830.0,3.0,0.0
3961,59.0,0.0,1830.0,3.0,0.0
3962,47.0,72.0,390.0,5.0,0.0
3963,73.0,0.0,1830.0,4.0,0.0
3964,56.0,0.0,1830.0,2.0,0.0
3965,70.0,0.0,120.0,11.0,0.0
3966,58.0,0.0,120.0,13.0,0.0
3967,46.0,0.0,120.0,14.0,0.0
3968,58.0,0.0,120.0,12.0,0.0
3969,70.0,24.0,120.0,10.0,0.0
3970,54.0,0.0,90.0,13.0,0.0
3971,42.0,0.0,90.0,14.0,0.0
3972,66.0,0.0,90.0,11.0,0.0
3973,54.0,168.0,90.0,12.0,0.0
3974,66.0,0.0,90.0,10.0,0.0
3975,44.0,0.0,150.0,14.0,0.0
3976,47.0,72.0,390.0,5.0,0.0
3977,56.0,0.0,150.0,13.0,0.0
3978,68.0,0.0,150.0,11.0,0.0
3979,68.0,0.0,150.0,10.0,0.0
3980,56.0,216.0,150.0,12.0,0.0
3981,58.0,0.0,120.0,13.0,0.0
3982,58.0,0.0,120.0,12.0,0.0
3983,70.0,0.0,120.0,11.0,0.0
3984,46.0,0.0,120.0,14.0,0.0
3985,70.0,24.0,120.0,10.0,0.0
3986,54.0,0.0,90.0,12.0,0.0
3987,42.0,168.0,90.0,14.0,0.0
3988,54.0,0.0,90.0,13.0,0.0
3989,66.0,0.0,90.0,10.0,0.0
3990,66.0,0.0,90.0,11.0,0.0
3991,68.0,0.0,150.0,11.0,0.0
3992,47.0,72.0,390.0,5.0,0.0
3993,56.0,0.0,150.0,12.0,0.0
3994,44.0,0.0,150.0,14.0,0.0
3995,68.0,216.0,150.0,10.0,0.0
3996,56.0,0.0,150.0,13.0,0.0
3997,70.0,0.0,120.0,10.0,0.0
3998,58.0,24.0,120.0,13.0,0.0
3999,70.0,0.0,120.0,11.0,0.0
4000,58.0,0.0,120.0,12.0,0.0
4001,46.0,0.0,120.0,14.0,0.0
4002,42.0,0.0,90.0,14.0,0.0
4003,66.0,0.0,90.0,11.0,0.0
4004,66.0,0.0,90.0,10.0,0.0
4005,54.0,0.0,90.0,13.0,0.0
4006,54.0,336.0,90.0,12.0,0.0
4007,44.0,0.0,300.0,14.0,0.0
4008,68.0,0.0,300.0,11.0,0.0
4009,47.0,0.0,390.0,5.0,0.0
4010,56.0,48.0,300.0,13.0,0.0
4011,56.0,0.0,300.0,12.0,0.0
4012,68.0,0.0,300.0,10.0,0.0
4013,82.0,60.0,60.0,0.0,0.0
4014,83.0,312.0,60.0,0.0,0.0
4015,56.0,0.0,300.0,10.0,0.0
4016,44.0,0.0,300.0,13.0,0.0
4017,73.0,96.0,390.0,4.0,0.0
4018,32.0,0.0,300.0,14.0,0.0
4019,44.0,0.0,390.0,2.0,0.0
4020,85.0,384.0,480.0,0.0,0.0
4021,71.0,0.0,390.0,4.0,0.0
4022,61.0,0.0,390.0,3.0,0.0
4023,59.0,0.0,390.0,3.0,0.0
4024,44.0,0.0,300.0,12.0,0.0
4025,68.0,0.0,390.0,1.0,0.0
4026,77.0,0.0,390.0,1.0,0.0
4027,56.0,0.0,390.0,2.0,0.0
4028,56.0,72.0,300.0,11.0,0.0
4029,73.0,288.0,390.0,4.0,0.0
4030,71.0,0.0,390.0,4.0,0.0
4031,44.0,0.0,390.0,2.0,0.0
4032,56.0,0.0,390.0,2.0,0.0
4033,83.0,0.0,390.0,0.0,0.0
4034,68.0,0.0,390.0,1.0,0.0
4035,77.0,0.0,390.0,1.0,0.0
4036,61.0,0.0,390.0,3.0,0.0
4037,59.0,0.0,390.0,3.0,0.0
4038,54.0,240.0,1140.0,12.0,0.0
4039,54.0,0.0,1440.0,3.0,0.0
4040,54.0,0.0,1140.0,10.0,0.0
4041,42.0,192.0,1440.0,3.0,0.0
4042,42.0,192.0,180.0,13.0,0.0
4043,30.0,0.0,180.0,14.0,0.0
4044,82.0,0.0,390.0,0.0,0.0
4045,54.0,0.0,1140.0,11.0,0.0
4046,70.0,48.0,390.0,1.0,0.0
4047,78.0,0.0,390.0,1.0,0.0
4048,66.0,0.0,1140.0,4.0,0.0
4049,54.0,0.0,1140.0,4.0,0.0
4050,54.0,0.0,390.0,2.0,0.0
4051,42.0,0.0,390.0,5.0,0.0
4052,30.0,0.0,180.0,14.0,0.0
4053,42.0,240.0,180.0,13.0,0.0
4054,42.0,240.0,180.0,13.0,0.0
4055,30.0,0.0,180.0,14.0,0.0
4056,30.0,0.0,180.0,14.0,0.0
4057,42.0,240.0,180.0,13.0,0.0
4058,42.0,0.0,180.0,13.0,0.0
4059,30.0,0.0,180.0,14.0,0.0
4060,42.0,48.0,180.0,13.0,0.0
4061,30.0,0.0,180.0,14.0,0.0
4062,63.0,0.0,240.0,11.0,0.0
4063,30.0,48.0,180.0,14.0,0.0
4064,42.0,0.0,11220.0,3.0,0.0
4065,54.0,0.0,11220.0,3.0,0.0
4066,42.0,48.0,390.0,13.0,0.0
4067,78.0,144.0,240.0,10.0,0.0
4068,82.0,0.0,240.0,10.0,0.0
4069,30.0,48.0,180.0,14.0,0.0
4070,66.0,192.0,240.0,11.0,0.0
4071,80.0,0.0,240.0,10.0,0.0
4072,30.0,48.0,180.0,14.0,0.0
4073,65.0,192.0,240.0,11.0,0.0
4074,77.0,0.0,240.0,10.0,0.0
4075,61.0,192.0,240.0,11.0,0.0
4076,30.0,48.0,180.0,14.0,0.0
4077,30.0,48.0,180.0,14.0,0.0
4078,75.0,0.0,240.0,10.0,0.0
4079,59.0,192.0,240.0,11.0,0.0
4080,30.0,48.0,180.0,14.0,0.0
4081,63.0,0.0,240.0,11.0,0.0
4082,78.0,192.0,240.0,10.0,0.0
4083,61.0,192.0,240.0,11.0,0.0
4084,77.0,0.0,240.0,10.0,0.0
4085,30.0,48.0,180.0,14.0,0.0
4086,73.0,0.0,240.0,10.0,0.0
4087,58.0,192.0,240.0,11.0,0.0
4088,30.0,48.0,180.0,14.0,0.0
4089,56.0,192.0,240.0,11.0,0.0
4090,30.0,48.0,180.0,14.0,0.0
4091,71.0,0.0,240.0,10.0,0.0
4092,59.0,192.0,240.0,11.0,0.0
4093,75.0,0.0,240.0,10.0,0.0
4094,30.0,48.0,180.0,14.0,0.0
4095,73.0,0.0,240.0,10.0,0.0
4096,30.0,48.0,180.0,14.0,0.0
4097,58.0,192.0,240.0,11.0,0.0
4098,70.0,0.0,180.0,10.0,0.0
4099,54.0,0.0,180.0,11.0,0.0
4100,30.0,240.0,180.0,14.0,0.0
4101,73.0,72.0,360.0,0.0,0.0
4102,56.0,0.0,360.0,2.0,0.0
4103,59.0,0.0,360.0,2.0,0.0
4104,41.0,120.0,240.0,13.0,0.0
4105,30.0,48.0,180.0,14.0,0.0
4106,68.0,0.0,360.0,1.0,0.0
4107,71.0,0.0,360.0,1.0,0.0
4108,30.0,48.0,180.0,14.0,0.0
4109,42.0,192.0,240.0,13.0,0.0
4110,56.0,0.0,360.0,2.0,0.0
4111,59.0,0.0,360.0,2.0,0.0
4112,44.0,120.0,240.0,13.0,0.0
4113,30.0,48.0,180.0,14.0,0.0
4114,71.0,0.0,360.0,1.0,0.0
4115,73.0,72.0,360.0,0.0,0.0
4116,68.0,0.0,360.0,1.0,0.0
4117,46.0,192.0,240.0,13.0,0.0
4118,30.0,48.0,180.0,14.0,0.0
4119,47.0,120.0,240.0,13.0,0.0
4120,59.0,0.0,360.0,2.0,0.0
4121,56.0,0.0,360.0,2.0,0.0
4122,68.0,0.0,360.0,1.0,0.0
4123,30.0,48.0,180.0,14.0,0.0
4124,73.0,0.0,360.0,0.0,0.0
4125,71.0,72.0,360.0,1.0,0.0
4126,48.0,192.0,240.0,13.0,0.0
4127,30.0,48.0,180.0,14.0,0.0
4128,56.0,0.0,960.0,2.0,0.0
4129,73.0,120.0,720.0,0.0,0.0
4130,49.0,192.0,240.0,13.0,0.0
4131,68.0,0.0,960.0,1.0,0.0
4132,71.0,192.0,960.0,1.0,0.0
4133,59.0,0.0,960.0,2.0,0.0
4134,30.0,48.0,180.0,14.0,0.0
4135,30.0,48.0,180.0,14.0,0.0
4136,50.0,192.0,240.0,13.0,0.0
4137,30.0,48.0,180.0,14.0,0.0
4138,51.0,0.0,240.0,13.0,0.0
4139,53.0,0.0,240.0,13.0,0.0
4140,75.0,72.0,120.0,0.0,0.0
4141,30.0,48.0,180.0,14.0,0.0
4142,73.0,0.0,120.0,0.0,0.0
4143,56.0,192.0,240.0,13.0,0.0
4144,30.0,48.0,180.0,14.0,0.0
4145,78.0,0.0,240.0,0.0,0.0
4146,58.0,0.0,240.0,2.0,0.0
4147,54.0,0.0,240.0,2.0,0.0
4148,66.0,0.0,240.0,1.0,0.0
4149,70.0,0.0,240.0,1.0,0.0
4150,30.0,240.0,180.0,14.0,0.0
4151,54.0,0.0,180.0,13.0,0.0
4152,63.0,0.0,240.0,11.0,0.0
4153,78.0,192.0,240.0,10.0,0.0
4154,30.0,48.0,180.0,14.0,0.0
4155,82.0,0.0,240.0,10.0,0.0
4156,66.0,192.0,240.0,11.0,0.0
4157,30.0,48.0,180.0,14.0,0.0
4158,80.0,192.0,240.0,10.0,0.0
4159,30.0,48.0,180.0,14.0,0.0
4160,65.0,0.0,240.0,11.0,0.0
4161,61.0,192.0,240.0,11.0,0.0
4162,30.0,48.0,180.0,14.0,0.0
4163,77.0,0.0,240.0,10.0,0.0
4164,75.0,0.0,240.0,10.0,0.0
4165,59.0,192.0,240.0,11.0,0.0
4166,30.0,48.0,180.0,14.0,0.0
4167,63.0,192.0,240.0,11.0,0.0
4168,78.0,0.0,240.0,10.0,0.0
4169,30.0,48.0,180.0,14.0,0.0
4170,30.0,48.0,180.0,14.0,0.0
4171,77.0,0.0,240.0,10.0,0.0
4172,61.0,192.0,240.0,11.0,0.0
4173,73.0,0.0,240.0,10.0,0.0
4174,30.0,48.0,180.0,14.0,0.0
4175,58.0,192.0,240.0,11.0,0.0
4176,71.0,192.0,240.0,10.0,0.0
4177,56.0,0.0,240.0,11.0,0.0
4178,30.0,48.0,180.0,14.0,0.0
4179,59.0,192.0,240.0,11.0,0.0
4180,75.0,0.0,240.0,10.0,0.0
4181,30.0,48.0,180.0,14.0,0.0
4182,30.0,48.0,180.0,14.0,0.0
4183,58.0,192.0,240.0,11.0,0.0
4184,73.0,0.0,240.0,10.0,0.0
4185,30.0,240.0,180.0,14.0,0.0
4186,70.0,0.0,180.0,10.0,0.0
4187,54.0,0.0,180.0,11.0,0.0
4188,59.0,0.0,360.0,2.0,0.0
4189,41.0,120.0,240.0,13.0,0.0
4190,56.0,72.0,360.0,2.0,0.0
4191,73.0,0.0,360.0,0.0,0.0
4192,71.0,0.0,360.0,1.0,0.0
4193,30.0,48.0,180.0,14.0,0.0
4194,68.0,0.0,360.0,1.0,0.0
4195,42.0,192.0,240.0,13.0,0.0
4196,30.0,48.0,180.0,14.0,0.0
4197,68.0,0.0,360.0,1.0,0.0
4198,71.0,72.0,360.0,1.0,0.0
4199,56.0,0.0,360.0,2.0,0.0
4200,59.0,0.0,360.0,2.0,0.0
4201,44.0,120.0,240.0,13.0,0.0
4202,30.0,48.0,180.0,14.0,0.0
4203,73.0,0.0,360.0,0.0,0.0
4204,46.0,192.0,240.0,13.0,0.0
4205,30.0,48.0,180.0,14.0,0.0
4206,56.0,0.0,360.0,2.0,0.0
4207,71.0,72.0,360.0,1.0,0.0
4208,68.0,0.0,360.0,1.0,0.0
4209,47.0,120.0,240.0,13.0,0.0
4210,59.0,0.0,360.0,2.0,0.0
4211,30.0,48.0,180.0,14.0,0.0
4212,73.0,0.0,360.0,0.0,0.0
4213,30.0,48.0,180.0,14.0,0.0
4214,48.0,192.0,240.0,13.0,0.0
4215,49.0,192.0,240.0,13.0,0.0
4216,71.0,0.0,960.0,1.0,0.0
4217,68.0,0.0,960.0,1.0,0.0
4218,73.0,0.0,720.0,0.0,0.0
4219,56.0,0.0,960.0,2.0,0.0
4220,59.0,0.0,960.0,2.0,0.0
4221,30.0,48.0,180.0,14.0,0.0
4222,50.0,192.0,240.0,13.0,0.0
4223,30.0,48.0,180.0,14.0,0.0
4224,30.0,48.0,180.0,14.0,0.0
4225,51.0,120.0,240.0,13.0,0.0
4226,30.0,48.0,180.0,14.0,0.0
4227,75.0,72.0,120.0,0.0,0.0
4228,53.0,192.0,240.0,13.0,0.0
4229,73.0,0.0,120.0,0.0,0.0
4230,56.0,0.0,240.0,13.0,0.0
4231,78.0,0.0,240.0,0.0,0.0
4232,54.0,0.0,240.0,2.0,0.0
4233,30.0,48.0,180.0,14.0,0.0
4234,66.0,0.0,240.0,1.0,0.0
4235,70.0,0.0,240.0,1.0,0.0
4236,58.0,192.0,240.0,2.0,0.0
4237,54.0,528.0,180.0,13.0,0.0
4238,73.0,480.0,480.0,1.0,0.0
4239,70.0,0.0,480.0,1.0,0.0
4240,68.0,0.0,480.0,1.0,0.0
4241,71.0,480.0,480.0,1.0,0.0
4242,67.0,0.0,480.0,1.0,0.0
4243,70.0,720.0,480.0,1.0,0.0
4244,51.0,0.0,960.0,12.0,0.0
4245,61.0,0.0,960.0,2.0,0.0
4246,58.0,0.0,960.0,2.0,0.0
4247,70.0,0.0,960.0,1.0,0.0
4248,67.0,0.0,960.0,1.0,0.0
4249,51.0,0.0,960.0,13.0,0.0
4250,39.0,240.0,960.0,14.0,0.0
4251,76.0,120.0,720.0,0.0,0.0
4252,75.0,120.0,120.0,0.0,0.0
4253,73.0,0.0,120.0,0.0,0.0
4254,56.0,0.0,240.0,2.0,0.0
4255,59.0,0.0,240.0,2.0,0.0
4256,56.0,0.0,240.0,12.0,0.0
4257,44.0,0.0,240.0,13.0,0.0
4258,71.0,720.0,240.0,0.0,0.0
4259,32.0,0.0,240.0,14.0,0.0
4260,71.0,0.0,240.0,1.0,0.0
4261,68.0,0.0,240.0,1.0,0.0
4262,68.0,0.0,480.0,1.0,0.0
4263,71.0,480.0,480.0,1.0,0.0
4264,70.0,0.0,480.0,1.0,0.0
4265,66.0,480.0,480.0,1.0,0.0
4266,68.0,720.0,480.0,1.0,0.0
4267,65.0,0.0,480.0,1.0,0.0
4268,75.0,120.0,720.0,0.0,0.0
4269,59.0,0.0,960.0,2.0,0.0
4270,68.0,0.0,960.0,1.0,0.0
4271,49.0,0.0,960.0,12.0,0.0
4272,49.0,0.0,960.0,13.0,0.0
4273,65.0,0.0,960.0,1.0,0.0
4274,37.0,240.0,960.0,14.0,0.0
4275,56.0,0.0,960.0,2.0,0.0
4276,73.0,120.0,120.0,0.0,0.0
4277,71.0,0.0,120.0,0.0,0.0
4278,66.0,0.0,240.0,1.0,0.0
4279,58.0,0.0,240.0,2.0,0.0
4280,54.0,432.0,240.0,2.0,0.0
4281,42.0,0.0,240.0,13.0,0.0
4282,70.0,0.0,240.0,1.0,0.0
4283,54.0,0.0,240.0,12.0,0.0
4284,70.0,0.0,240.0,0.0,0.0
4285,30.0,0.0,240.0,14.0,0.0
4286,54.0,0.0,1440.0,12.0,0.0
4287,58.0,0.0,1440.0,11.0,0.0
4288,66.0,192.0,1440.0,10.0,0.0
4289,42.0,480.0,180.0,7.0,0.0
4290,46.0,0.0,1440.0,12.0,0.0
4291,54.0,0.0,180.0,6.0,0.0
4292,58.0,0.0,180.0,6.0,0.0
4293,46.0,480.0,180.0,7.0,0.0
4294,42.0,0.0,180.0,7.0,0.0
4295,54.0,288.0,180.0,6.0,0.0
4296,41.0,0.0,180.0,7.0,0.0
4297,49.0,0.0,1380.0,12.0,0.0
4298,53.0,480.0,180.0,6.0,0.0
4299,61.0,0.0,1380.0,11.0,0.0
4300,68.0,264.0,1380.0,10.0,0.0
4301,56.0,0.0,1380.0,12.0,0.0
4302,37.0,0.0,180.0,7.0,0.0
4303,49.0,480.0,180.0,6.0,0.0
4304,41.0,216.0,180.0,7.0,0.0
4305,53.0,0.0,180.0,6.0,0.0
4306,66.0,0.0,480.0,11.0,0.0
4307,54.0,480.0,480.0,12.0,0.0
4308,42.0,0.0,180.0,7.0,0.0
4309,70.0,0.0,480.0,10.0,0.0
4310,54.0,288.0,180.0,6.0,0.0
4311,58.0,0.0,480.0,12.0,0.0
4312,59.0,0.0,480.0,12.0,0.0
4313,63.0,192.0,480.0,12.0,0.0
4314,71.0,0.0,480.0,11.0,0.0
4315,75.0,0.0,480.0,10.0,0.0
4316,73.0,0.0,450.0,10.0,0.0
4317,58.0,216.0,450.0,12.0,0.0
4318,30.0,0.0,180.0,7.0,0.0
4319,61.0,0.0,450.0,12.0,0.0
4320,70.0,0.0,450.0,11.0,0.0
4321,42.0,264.0,180.0,6.0,0.0
4322,47.0,0.0,180.0,6.0,0.0
4323,35.0,0.0,180.0,7.0,0.0
4324,61.0,0.0,240.0,12.0,0.0
4325,73.0,0.0,240.0,10.0,0.0
4326,70.0,192.0,240.0,11.0,0.0
4327,58.0,48.0,180.0,12.0,0.0
4328,71.0,0.0,180.0,10.0,0.0
4329,59.0,0.0,180.0,12.0,0.0
4330,68.0,240.0,180.0,11.0,0.0
4331,56.0,0.0,180.0,12.0,0.0
4332,71.0,0.0,240.0,10.0,0.0
4333,68.0,0.0,240.0,11.0,0.0
4334,37.0,0.0,180.0,7.0,0.0
4335,49.0,48.0,180.0,6.0,0.0
4336,56.0,0.0,180.0,12.0,0.0
4337,59.0,192.0,240.0,12.0,0.0
4338,54.0,240.0,180.0,12.0,0.0
4339,70.0,0.0,180.0,10.0,0.0
4340,66.0,0.0,180.0,11.0,0.0
4341,58.0,0.0,180.0,12.0,0.0
4342,70.0,0.0,240.0,10.0,0.0
4343,37.0,48.0,180.0,7.0,0.0
4344,66.0,0.0,240.0,11.0,0.0
4345,49.0,0.0,180.0,6.0,0.0
4346,58.0,192.0,240.0,12.0,0.0
4347,54.0,0.0,180.0,12.0,0.0
4348,65.0,0.0,180.0,11.0,0.0
4349,56.0,0.0,180.0,12.0,0.0
4350,53.0,240.0,180.0,12.0,0.0
4351,68.0,0.0,180.0,10.0,0.0
4352,42.0,480.0,180.0,7.0,0.0
4353,68.0,240.0,720.0,10.0,0.0
4354,56.0,0.0,720.0,12.0,0.0
4355,65.0,0.0,960.0,11.0,0.0
4356,54.0,0.0,180.0,6.0,0.0
4357,53.0,0.0,720.0,12.0,0.0
4358,49.0,0.0,180.0,6.0,0.0
4359,37.0,48.0,180.0,7.0,0.0
4360,53.0,0.0,240.0,12.0,0.0
4361,57.0,0.0,240.0,12.0,0.0
4362,69.0,192.0,240.0,10.0,0.0
4363,54.0,720.0,240.0,12.0,0.0
4364,42.0,48.0,180.0,6.0,0.0
4365,30.0,0.0,180.0,7.0,0.0
4366,58.0,0.0,240.0,12.0,0.0
4367,70.0,0.0,240.0,10.0,0.0
4368,66.0,0.0,240.0,11.0,0.0
4369,27.0,0.0,1440.0,14.0,0.0
4370,78.0,480.0,480.0,10.0,0.0
4371,42.0,0.0,1440.0,2.0,0.0
4372,54.0,0.0,1440.0,2.0,0.0
4373,57.0,120.0,1200.0,12.0,0.0
4374,39.0,0.0,1440.0,13.0,0.0
4375,66.0,0.0,1440.0,1.0,0.0
4376,66.0,0.0,480.0,11.0,0.0
4377,54.0,144.0,1440.0,1.0,0.0
4378,63.0,240.0,480.0,11.0,0.0
4379,75.0,0.0,480.0,10.0,0.0
4380,72.0,0.0,390.0,10.0,0.0
4381,60.0,72.0,390.0,11.0,0.0
4382,56.0,24.0,120.0,12.0,0.0
4383,54.0,24.0,90.0,12.0,0.0
4384,80.0,0.0,150.0,10.0,0.0
4385,59.0,144.0,480.0,12.0,0.0
4386,29.0,144.0,1440.0,14.0,0.0
4387,68.0,240.0,150.0,11.0,0.0
4388,41.0,0.0,1440.0,13.0,0.0
4389,49.0,0.0,1380.0,2.0,0.0
4390,68.0,72.0,1380.0,1.0,0.0
4391,56.0,0.0,1380.0,2.0,0.0
4392,61.0,0.0,1380.0,1.0,0.0
4393,78.0,0.0,150.0,10.0,0.0
4394,66.0,96.0,150.0,11.0,0.0
4395,56.0,144.0,480.0,12.0,0.0
4396,77.0,0.0,150.0,10.0,0.0
4397,65.0,240.0,150.0,11.0,0.0
4398,75.0,96.0,150.0,10.0,0.0
4399,63.0,0.0,150.0,11.0,0.0
4400,73.0,0.0,150.0,10.0,0.0
4401,49.0,0.0,480.0,12.0,0.0
4402,61.0,240.0,150.0,11.0,0.0
4403,71.0,24.0,150.0,10.0,0.0
4404,59.0,0.0,150.0,11.0,0.0
4405,70.0,144.0,480.0,1.0,0.0
4406,54.0,0.0,480.0,2.0,0.0
4407,58.0,0.0,480.0,2.0,0.0
4408,42.0,0.0,390.0,13.0,0.0
4409,66.0,0.0,480.0,1.0,0.0
4410,58.0,0.0,150.0,11.0,0.0
4411,54.0,96.0,390.0,12.0,0.0
4412,70.0,240.0,150.0,10.0,0.0
4413,30.0,0.0,390.0,14.0,0.0
4414,66.0,0.0,150.0,11.0,0.0
4415,78.0,0.0,150.0,10.0,0.0
4416,71.0,0.0,480.0,1.0,0.0
4417,75.0,0.0,480.0,1.0,0.0
4418,59.0,0.0,480.0,2.0,0.0
4419,63.0,144.0,480.0,2.0,0.0
4420,78.0,240.0,150.0,10.0,0.0
4421,66.0,0.0,150.0,11.0,0.0
4422,78.0,0.0,150.0,10.0,0.0
4423,66.0,96.0,150.0,11.0,0.0
4424,70.0,0.0,390.0,1.0,0.0
4425,73.0,0.0,390.0,1.0,0.0
4426,58.0,0.0,390.0,2.0,0.0
4427,61.0,288.0,390.0,2.0,0.0
4428,78.0,0.0,150.0,10.0,0.0
4429,66.0,240.0,150.0,11.0,0.0
4430,78.0,0.0,150.0,10.0,0.0
4431,66.0,0.0,150.0,11.0,0.0
4432,59.0,0.0,270.0,10.0,0.0
4433,61.0,24.0,240.0,2.0,0.0
4434,35.0,0.0,270.0,14.0,0.0
4435,58.0,0.0,180.0,2.0,0.0
4436,70.0,48.0,180.0,1.0,0.0
4437,73.0,0.0,240.0,1.0,0.0
4438,47.0,0.0,270.0,13.0,0.0
4439,59.0,0.0,270.0,11.0,0.0
4440,59.0,168.0,270.0,12.0,0.0
4441,59.0,0.0,180.0,2.0,0.0
4442,56.0,240.0,180.0,2.0,0.0
4443,68.0,0.0,180.0,1.0,0.0
4444,71.0,0.0,180.0,1.0,0.0
4445,71.0,0.0,240.0,1.0,0.0
4446,68.0,48.0,180.0,1.0,0.0
4447,56.0,0.0,180.0,2.0,0.0
4448,61.0,0.0,270.0,12.0,0.0
4449,49.0,0.0,270.0,13.0,0.0
4450,61.0,168.0,270.0,10.0,0.0
4451,61.0,0.0,270.0,11.0,0.0
4452,37.0,0.0,270.0,14.0,0.0
4453,59.0,24.0,240.0,2.0,0.0
4454,66.0,0.0,180.0,1.0,0.0
4455,70.0,0.0,180.0,1.0,0.0
4456,58.0,240.0,180.0,2.0,0.0
4457,54.0,0.0,180.0,2.0,0.0
4458,70.0,24.0,240.0,1.0,0.0
4459,66.0,0.0,180.0,1.0,0.0
4460,58.0,0.0,240.0,2.0,0.0
4461,54.0,48.0,180.0,2.0,0.0
4462,37.0,168.0,270.0,13.0,0.0
4463,25.0,0.0,270.0,14.0,0.0
4464,49.0,0.0,270.0,12.0,0.0
4465,61.0,0.0,270.0,11.0,0.0
4466,61.0,0.0,270.0,10.0,0.0
4467,68.0,0.0,180.0,1.0,0.0
4468,65.0,0.0,180.0,1.0,0.0
4469,53.0,144.0,180.0,2.0,0.0
4470,56.0,0.0,180.0,2.0,0.0
4471,66.0,72.0,390.0,1.0,0.0
4472,66.0,0.0,90.0,10.0,0.0
4473,42.0,0.0,390.0,13.0,0.0
4474,66.0,120.0,90.0,11.0,0.0
4475,54.0,0.0,390.0,2.0,0.0
4476,30.0,0.0,390.0,14.0,0.0
4477,54.0,0.0,390.0,12.0,0.0
4478,66.0,0.0,90.0,10.0,0.0
4479,66.0,120.0,90.0,11.0,0.0
4480,78.0,48.0,90.0,10.0,0.0
4481,78.0,0.0,90.0,11.0,0.0
4482,78.0,120.0,90.0,10.0,0.0
4483,78.0,0.0,90.0,11.0,0.0
4484,73.0,120.0,90.0,10.0,0.0
4485,73.0,0.0,90.0,11.0,0.0
4486,73.0,0.0,90.0,10.0,0.0
4487,73.0,120.0,90.0,11.0,0.0
4488,70.0,120.0,90.0,10.0,0.0
4489,70.0,0.0,90.0,11.0,0.0
4490,70.0,120.0,90.0,11.0,0.0
4491,70.0,0.0,90.0,10.0,0.0
4492,66.0,120.0,90.0,11.0,0.0
4493,66.0,0.0,90.0,10.0,0.0
4494,66.0,0.0,90.0,11.0,0.0
4495,66.0,120.0,90.0,10.0,0.0
4496,61.0,120.0,90.0,11.0,0.0
4497,61.0,0.0,90.0,10.0,0.0
4498,61.0,0.0,90.0,11.0,0.0
4499,61.0,120.0,90.0,10.0,0.0
4500,42.0,0.0,390.0,5.0,0.0
4501,54.0,48.0,390.0,3.0,0.0
4502,49.0,96.0,240.0,12.0,0.0
4503,76.0,0.0,240.0,0.0,0.0
4504,34.0,0.0,240.0,14.0,0.0
4505,52.0,0.0,240.0,2.0,0.0
4506,64.0,0.0,240.0,1.0,0.0
4507,61.0,0.0,240.0,1.0,0.0
4508,66.0,0.0,390.0,4.0,0.0
4509,52.0,0.0,90.0,10.0,0.0
4510,46.0,0.0,240.0,13.0,0.0
4511,49.0,0.0,240.0,2.0,0.0
4512,52.0,120.0,90.0,11.0,0.0
4513,52.0,0.0,90.0,11.0,0.0
4514,52.0,24.0,90.0,10.0,0.0
4515,51.0,0.0,240.0,2.0,0.0
4516,63.0,0.0,240.0,1.0,0.0
4517,75.0,0.0,240.0,0.0,0.0
4518,51.0,48.0,90.0,10.0,0.0
4519,35.0,0.0,180.0,14.0,0.0
4520,51.0,0.0,90.0,11.0,0.0
4521,47.0,0.0,240.0,2.0,0.0
4522,59.0,96.0,240.0,1.0,0.0
4523,47.0,0.0,180.0,13.0,0.0
4524,47.0,24.0,180.0,12.0,0.0
4525,51.0,24.0,90.0,11.0,0.0
4526,51.0,0.0,90.0,10.0,0.0
4527,42.0,0.0,390.0,5.0,0.0
4528,66.0,0.0,390.0,4.0,0.0
4529,52.0,0.0,240.0,2.0,0.0
4530,49.0,0.0,240.0,2.0,0.0
4531,46.0,0.0,240.0,13.0,0.0
4532,76.0,0.0,240.0,0.0,0.0
4533,49.0,0.0,240.0,12.0,0.0
4534,52.0,0.0,90.0,10.0,0.0
4535,64.0,0.0,240.0,1.0,0.0
4536,61.0,0.0,240.0,1.0,0.0
4537,34.0,96.0,240.0,14.0,0.0
4538,54.0,48.0,390.0,3.0,0.0
4539,52.0,120.0,90.0,11.0,0.0
4540,52.0,24.0,90.0,11.0,0.0
4541,52.0,0.0,90.0,10.0,0.0
4542,75.0,0.0,240.0,0.0,0.0
4543,51.0,0.0,90.0,11.0,0.0
4544,59.0,0.0,240.0,1.0,0.0
4545,63.0,96.0,240.0,1.0,0.0
4546,47.0,24.0,180.0,13.0,0.0
4547,51.0,0.0,240.0,2.0,0.0
4548,47.0,0.0,240.0,2.0,0.0
4549,47.0,0.0,180.0,12.0,0.0
4550,51.0,48.0,90.0,10.0,0.0
4551,35.0,0.0,180.0,14.0,0.0
4552,51.0,24.0,90.0,11.0,0.0
4553,51.0,0.0,90.0,10.0,0.0
4554,52.0,0.0,240.0,2.0,0.0
4555,49.0,0.0,240.0,2.0,0.0
4556,76.0,0.0,240.0,0.0,0.0
4557,52.0,120.0,90.0,11.0,0.0
4558,42.0,48.0,390.0,5.0,0.0
4559,34.0,0.0,240.0,14.0,0.0
4560,66.0,0.0,390.0,4.0,0.0
4561,49.0,0.0,240.0,12.0,0.0
4562,52.0,0.0,90.0,10.0,0.0
4563,61.0,0.0,240.0,1.0,0.0
4564,46.0,96.0,240.0,13.0,0.0
4565,64.0,0.0,240.0,1.0,0.0
4566,54.0,0.0,390.0,3.0,0.0
4567,52.0,24.0,90.0,11.0,0.0
4568,52.0,0.0,90.0,10.0,0.0
4569,63.0,0.0,180.0,1.0,0.0
4570,51.0,0.0,90.0,10.0,0.0
4571,51.0,0.0,180.0,2.0,0.0
4572,75.0,0.0,180.0,0.0,0.0
4573,35.0,0.0,180.0,14.0,0.0
4574,47.0,0.0,180.0,13.0,0.0
4575,47.0,0.0,180.0,12.0,0.0
4576,51.0,48.0,90.0,11.0,0.0
4577,47.0,24.0,180.0,2.0,0.0
4578,59.0,0.0,180.0,1.0,0.0
4579,51.0,0.0,90.0,11.0,0.0
4580,51.0,120.0,90.0,10.0,0.0
4581,59.0,0.0,90.0,10.0,0.0
4582,59.0,120.0,90.0,11.0,0.0
4583,73.0,0.0,390.0,0.0,0.0
4584,41.0,0.0,390.0,13.0,0.0
4585,49.0,72.0,390.0,2.0,0.0
4586,56.0,0.0,390.0,1.0,0.0
4587,44.0,0.0,390.0,2.0,0.0
4588,59.0,0.0,390.0,3.0,0.0
4589,61.0,0.0,390.0,3.0,0.0
4590,29.0,0.0,390.0,14.0,0.0
4591,61.0,0.0,390.0,1.0,0.0
4592,73.0,0.0,390.0,4.0,0.0
4593,71.0,0.0,390.0,4.0,0.0
4594,56.0,0.0,390.0,12.0,0.0
4595,59.0,120.0,90.0,10.0,0.0
4596,59.0,0.0,90.0,11.0,0.0
4597,71.0,0.0,90.0,10.0,0.0
4598,71.0,48.0,90.0,11.0,0.0
4599,71.0,120.0,90.0,10.0,0.0
4600,71.0,0.0,90.0,11.0,0.0
4601,68.0,0.0,90.0,10.0,0.0
4602,68.0,120.0,90.0,11.0,0.0
4603,68.0,0.0,90.0,11.0,0.0
4604,68.0,120.0,90.0,10.0,0.0
4605,65.0,120.0,90.0,11.0,0.0
4606,65.0,0.0,90.0,10.0,0.0
4607,65.0,120.0,90.0,10.0,0.0
4608,65.0,0.0,90.0,11.0,0.0
4609,59.0,120.0,90.0,11.0,0.0
4610,59.0,0.0,90.0,10.0,0.0
4611,59.0,120.0,90.0,10.0,0.0
4612,59.0,0.0,90.0,11.0,0.0
4613,56.0,0.0,90.0,10.0,0.0
4614,56.0,120.0,90.0,11.0,0.0
4615,56.0,0.0,90.0,10.0,0.0
4616,56.0,120.0,90.0,11.0,0.0
4617,53.0,0.0,240.0,2.0,0.0
4618,65.0,0.0,240.0,1.0,0.0
4619,73.0,48.0,390.0,4.0,0.0
4620,44.0,0.0,240.0,12.0,0.0
4621,56.0,0.0,240.0,2.0,0.0
4622,53.0,120.0,90.0,11.0,0.0
4623,68.0,0.0,240.0,1.0,0.0
4624,77.0,96.0,240.0,0.0,0.0
4625,47.0,0.0,240.0,13.0,0.0
4626,61.0,0.0,390.0,3.0,0.0
4627,53.0,0.0,90.0,10.0,0.0
4628,35.0,0.0,240.0,14.0,0.0
4629,53.0,0.0,90.0,10.0,0.0
4630,53.0,24.0,90.0,11.0,0.0
4631,46.0,0.0,180.0,12.0,0.0
4632,70.0,0.0,240.0,1.0,0.0
4633,66.0,96.0,240.0,1.0,0.0
4634,46.0,24.0,180.0,13.0,0.0
4635,34.0,0.0,180.0,14.0,0.0
4636,54.0,0.0,240.0,2.0,0.0
4637,58.0,0.0,240.0,2.0,0.0
4638,78.0,0.0,240.0,0.0,0.0
4639,54.0,48.0,90.0,10.0,0.0
4640,54.0,0.0,90.0,11.0,0.0
4641,54.0,0.0,90.0,10.0,0.0
4642,54.0,24.0,90.0,11.0,0.0
4643,35.0,0.0,240.0,14.0,0.0
4644,68.0,96.0,240.0,1.0,0.0
4645,47.0,0.0,240.0,13.0,0.0
4646,77.0,0.0,240.0,0.0,0.0
4647,53.0,0.0,90.0,11.0,0.0
4648,61.0,0.0,390.0,3.0,0.0
4649,73.0,48.0,390.0,4.0,0.0
4650,53.0,0.0,240.0,2.0,0.0
4651,44.0,0.0,240.0,12.0,0.0
4652,65.0,0.0,240.0,1.0,0.0
4653,53.0,120.0,90.0,10.0,0.0
4654,56.0,0.0,240.0,2.0,0.0
4655,53.0,24.0,90.0,10.0,0.0
4656,53.0,0.0,90.0,11.0,0.0
4657,70.0,0.0,240.0,1.0,0.0
4658,58.0,0.0,240.0,2.0,0.0
4659,78.0,96.0,240.0,0.0,0.0
4660,46.0,0.0,180.0,12.0,0.0
4661,54.0,48.0,90.0,10.0,0.0
4662,54.0,0.0,240.0,2.0,0.0
4663,34.0,24.0,180.0,14.0,0.0
4664,46.0,0.0,180.0,13.0,0.0
4665,54.0,0.0,90.0,11.0,0.0
4666,66.0,0.0,240.0,1.0,0.0
4667,54.0,0.0,90.0,10.0,0.0
4668,54.0,24.0,90.0,11.0,0.0
4669,35.0,0.0,240.0,14.0,0.0
4670,65.0,0.0,240.0,1.0,0.0
4671,68.0,0.0,240.0,1.0,0.0
4672,56.0,0.0,240.0,2.0,0.0
4673,73.0,48.0,390.0,4.0,0.0
4674,44.0,0.0,240.0,12.0,0.0
4675,53.0,96.0,240.0,2.0,0.0
4676,77.0,0.0,240.0,0.0,0.0
4677,53.0,0.0,90.0,10.0,0.0
4678,47.0,0.0,240.0,13.0,0.0
4679,61.0,0.0,390.0,3.0,0.0
4680,53.0,120.0,90.0,11.0,0.0
4681,53.0,0.0,90.0,11.0,0.0
4682,53.0,24.0,90.0,10.0,0.0
4683,66.0,24.0,180.0,1.0,0.0
4684,46.0,0.0,180.0,12.0,0.0
4685,54.0,0.0,90.0,11.0,0.0
4686,46.0,0.0,180.0,13.0,0.0
4687,70.0,0.0,180.0,1.0,0.0
4688,78.0,0.0,180.0,0.0,0.0
4689,34.0,0.0,180.0,14.0,0.0
4690,54.0,48.0,90.0,10.0,0.0
4691,54.0,0.0,180.0,2.0,0.0
4692,58.0,0.0,180.0,2.0,0.0
4693,54.0,120.0,90.0,11.0,0.0
4694,54.0,0.0,90.0,10.0,0.0
4695,68.0,12.0,150.0,1.0,0.0
4696,68.0,0.0,150.0,0.0,0.0
4697,47.0,0.0,150.0,13.0,0.0
4698,51.0,60.0,150.0,12.0,0.0
4699,47.0,0.0,150.0,2.0,0.0
4700,51.0,0.0,150.0,2.0,0.0
4701,56.0,48.0,90.0,11.0,0.0
4702,35.0,0.0,150.0,14.0,0.0
4703,56.0,0.0,90.0,10.0,0.0
4704,56.0,120.0,90.0,11.0,0.0
4705,56.0,0.0,90.0,10.0,0.0
4706,58.0,48.0,90.0,10.0,0.0
4707,53.0,0.0,150.0,12.0,0.0
4708,58.0,0.0,90.0,11.0,0.0
4709,49.0,0.0,150.0,13.0,0.0
4710,70.0,0.0,150.0,1.0,0.0
4711,53.0,0.0,150.0,2.0,0.0
4712,49.0,0.0,150.0,2.0,0.0
4713,70.0,12.0,150.0,0.0,0.0
4714,37.0,60.0,150.0,14.0,0.0
4715,58.0,120.0,90.0,11.0,0.0
4716,58.0,0.0,90.0,10.0,0.0
4717,71.0,0.0,150.0,1.0,0.0
4718,71.0,0.0,150.0,0.0,0.0
4719,51.0,60.0,150.0,13.0,0.0
4720,59.0,48.0,90.0,10.0,0.0
4721,59.0,0.0,90.0,11.0,0.0
4722,51.0,0.0,150.0,2.0,0.0
4723,54.0,12.0,150.0,2.0,0.0
4724,39.0,0.0,150.0,14.0,0.0
4725,54.0,0.0,150.0,12.0,0.0
4726,59.0,120.0,90.0,11.0,0.0
4727,59.0,0.0,90.0,10.0,0.0
4728,61.0,48.0,90.0,10.0,0.0
4729,61.0,0.0,90.0,11.0,0.0
4730,56.0,0.0,150.0,12.0,0.0
4731,73.0,0.0,150.0,1.0,0.0
4732,56.0,0.0,150.0,2.0,0.0
4733,53.0,12.0,150.0,2.0,0.0
4734,73.0,0.0,150.0,0.0,0.0
4735,41.0,60.0,150.0,14.0,0.0
4736,53.0,0.0,150.0,13.0,0.0
4737,61.0,120.0,90.0,10.0,0.0
4738,61.0,0.0,90.0,11.0,0.0
4739,75.0,0.0,150.0,0.0,0.0
4740,58.0,0.0,150.0,12.0,0.0
4741,58.0,0.0,150.0,2.0,0.0
4742,54.0,0.0,150.0,2.0,0.0
4743,42.0,0.0,150.0,14.0,0.0
4744,63.0,0.0,90.0,11.0,0.0
4745,63.0,48.0,90.0,10.0,0.0
4746,75.0,12.0,150.0,1.0,0.0
4747,54.0,60.0,150.0,13.0,0.0
4748,63.0,120.0,90.0,11.0,0.0
4749,63.0,0.0,90.0,10.0,0.0
4750,77.0,0.0,150.0,0.0,0.0
4751,59.0,0.0,150.0,12.0,0.0
4752,56.0,0.0,150.0,13.0,0.0
4753,56.0,0.0,150.0,2.0,0.0
4754,59.0,0.0,150.0,2.0,0.0
4755,65.0,0.0,90.0,10.0,0.0
4756,44.0,60.0,150.0,14.0,0.0
4757,65.0,48.0,90.0,11.0,0.0
4758,77.0,12.0,150.0,1.0,0.0
4759,65.0,0.0,90.0,10.0,0.0
4760,65.0,120.0,90.0,11.0,0.0
4761,66.0,48.0,90.0,11.0,0.0
4762,61.0,0.0,150.0,12.0,0.0
4763,58.0,0.0,150.0,2.0,0.0
4764,46.0,0.0,150.0,14.0,0.0
4765,66.0,0.0,90.0,10.0,0.0
4766,73.0,0.0,570.0,4.0,0.0
4767,61.0,48.0,570.0,3.0,0.0
4768,78.0,0.0,150.0,0.0,0.0
4769,78.0,12.0,150.0,1.0,0.0
4770,61.0,0.0,150.0,2.0,0.0
4771,58.0,60.0,150.0,13.0,0.0
4772,66.0,0.0,90.0,11.0,0.0
4773,66.0,120.0,90.0,10.0,0.0
4774,41.0,60.0,150.0,14.0,0.0
4775,68.0,0.0,90.0,10.0,0.0
4776,80.0,0.0,150.0,0.0,0.0
4777,68.0,48.0,90.0,11.0,0.0
4778,53.0,0.0,150.0,2.0,0.0
4779,53.0,0.0,150.0,13.0,0.0
4780,68.0,12.0,150.0,1.0,0.0
4781,61.0,48.0,420.0,12.0,0.0
4782,68.0,120.0,90.0,10.0,0.0
4783,68.0,0.0,90.0,11.0,0.0
4784,70.0,0.0,150.0,1.0,0.0
4785,54.0,0.0,150.0,13.0,0.0
4786,54.0,0.0,150.0,2.0,0.0
4787,70.0,0.0,90.0,10.0,0.0
4788,70.0,0.0,90.0,11.0,0.0
4789,82.0,12.0,150.0,0.0,0.0
4790,42.0,12.0,150.0,14.0,0.0
4791,70.0,0.0,90.0,11.0,0.0
4792,70.0,120.0,90.0,10.0,0.0
4793,51.0,0.0,150.0,13.0,0.0
4794,39.0,36.0,150.0,14.0,0.0
4795,71.0,0.0,90.0,10.0,0.0
4796,71.0,0.0,150.0,1.0,0.0
4797,54.0,0.0,180.0,3.0,0.0
4798,83.0,0.0,150.0,0.0,0.0
4799,51.0,12.0,150.0,2.0,0.0
4800,71.0,48.0,90.0,11.0,0.0
4801,66.0,24.0,180.0,4.0,0.0
4802,66.0,24.0,420.0,12.0,0.0
4803,71.0,120.0,90.0,10.0,0.0
4804,71.0,0.0,90.0,11.0,0.0
4805,54.0,24.0,180.0,3.0,0.0
4806,49.0,0.0,150.0,2.0,0.0
4807,73.0,0.0,90.0,11.0,0.0
4808,37.0,12.0,150.0,14.0,0.0
4809,66.0,0.0,180.0,4.0,0.0
4810,73.0,48.0,90.0,10.0,0.0
4811,85.0,12.0,150.0,0.0,0.0
4812,73.0,0.0,150.0,1.0,0.0
4813,49.0,0.0,150.0,13.0,0.0
4814,73.0,120.0,90.0,11.0,0.0
4815,73.0,0.0,90.0,10.0,0.0
4816,75.0,48.0,90.0,11.0,0.0
4817,47.0,0.0,150.0,2.0,0.0
4818,47.0,0.0,150.0,13.0,0.0
4819,66.0,0.0,180.0,4.0,0.0
4820,87.0,12.0,150.0,0.0,0.0
4821,75.0,0.0,150.0,1.0,0.0
4822,66.0,0.0,150.0,12.0,0.0
4823,35.0,36.0,150.0,14.0,0.0
4824,54.0,24.0,180.0,3.0,0.0
4825,75.0,0.0,90.0,10.0,0.0
4826,75.0,0.0,90.0,11.0,0.0
4827,75.0,216.0,90.0,10.0,0.0
4828,52.0,0.0,1140.0,2.0,0.0
4829,46.0,240.0,180.0,13.0,0.0
4830,55.0,0.0,1140.0,2.0,0.0
4831,61.0,0.0,780.0,3.0,0.0
4832,79.0,0.0,1140.0,0.0,0.0
4833,76.0,0.0,1140.0,1.0,0.0
4834,64.0,144.0,780.0,3.0,0.0
4835,76.0,0.0,780.0,11.0,0.0
4836,73.0,0.0,780.0,4.0,0.0
4837,76.0,0.0,780.0,10.0,0.0
4838,34.0,0.0,180.0,14.0,0.0
4839,67.0,0.0,180.0,12.0,0.0
4840,73.0,0.0,1140.0,1.0,0.0
4841,46.0,0.0,180.0,13.0,0.0
4842,34.0,0.0,180.0,14.0,0.0
4843,67.0,240.0,180.0,12.0,0.0
4844,46.0,96.0,180.0,13.0,0.0
4845,67.0,0.0,180.0,12.0,0.0
4846,34.0,0.0,180.0,14.0,0.0
4847,34.0,240.0,180.0,14.0,0.0
4848,46.0,0.0,180.0,13.0,0.0
4849,67.0,0.0,180.0,12.0,0.0
4850,76.0,0.0,390.0,10.0,0.0
4851,64.0,0.0,390.0,3.0,0.0
4852,73.0,0.0,390.0,4.0,0.0
4853,34.0,0.0,180.0,14.0,0.0
4854,61.0,48.0,390.0,3.0,0.0
4855,46.0,0.0,180.0,13.0,0.0
4856,76.0,0.0,390.0,11.0,0.0
4857,67.0,192.0,180.0,12.0,0.0
4858,34.0,0.0,180.0,14.0,0.0
4859,67.0,0.0,180.0,12.0,0.0
4860,46.0,144.0,180.0,13.0,0.0
4861,35.0,0.0,180.0,14.0,0.0
4862,71.0,0.0,390.0,4.0,0.0
4863,80.0,0.0,1140.0,0.0,0.0
4864,59.0,24.0,390.0,3.0,0.0
4865,63.0,0.0,390.0,3.0,0.0
4866,74.0,0.0,90.0,11.0,0.0
4867,71.0,0.0,1140.0,1.0,0.0
4868,75.0,0.0,1140.0,1.0,0.0
4869,74.0,96.0,90.0,10.0,0.0
4870,47.0,0.0,180.0,13.0,0.0
4871,51.0,0.0,1140.0,2.0,0.0
4872,56.0,0.0,1140.0,2.0,0.0
4873,68.0,192.0,180.0,12.0,0.0
4874,75.0,24.0,300.0,11.0,0.0
4875,75.0,0.0,300.0,10.0,0.0
4876,47.0,0.0,180.0,13.0,0.0
4877,35.0,240.0,180.0,14.0,0.0
4878,68.0,0.0,180.0,12.0,0.0
4879,63.0,0.0,390.0,3.0,0.0
4880,47.0,192.0,180.0,13.0,0.0
4881,35.0,0.0,180.0,14.0,0.0
4882,71.0,0.0,390.0,4.0,0.0
4883,75.0,48.0,390.0,11.0,0.0
4884,75.0,0.0,390.0,10.0,0.0
4885,68.0,0.0,180.0,12.0,0.0
4886,59.0,0.0,390.0,3.0,0.0
4887,68.0,0.0,180.0,12.0,0.0
4888,47.0,240.0,180.0,13.0,0.0
4889,35.0,0.0,180.0,14.0,0.0
4890,35.0,0.0,180.0,14.0,0.0
4891,68.0,0.0,180.0,12.0,0.0
4892,47.0,240.0,180.0,13.0,0.0
4893,68.0,0.0,180.0,12.0,0.0
4894,35.0,240.0,180.0,14.0,0.0
4895,47.0,0.0,180.0,13.0,0.0
4896,51.0,0.0,1140.0,2.0,0.0
4897,36.0,240.0,180.0,14.0,0.0
4898,81.0,0.0,1140.0,0.0,0.0
4899,63.0,0.0,780.0,3.0,0.0
4900,57.0,0.0,1140.0,2.0,0.0
4901,78.0,0.0,660.0,11.0,0.0
4902,54.0,0.0,780.0,3.0,0.0
4903,48.0,0.0,180.0,13.0,0.0
4904,69.0,0.0,180.0,12.0,0.0
4905,78.0,0.0,660.0,10.0,0.0
4906,78.0,0.0,2580.0,1.0,0.0
4907,75.0,0.0,1140.0,1.0,0.0
4908,66.0,0.0,780.0,4.0,0.0
4909,75.0,144.0,780.0,4.0,0.0
4910,48.0,0.0,180.0,13.0,0.0
4911,36.0,240.0,180.0,14.0,0.0
4912,69.0,0.0,180.0,12.0,0.0
4913,69.0,96.0,180.0,12.0,0.0
4914,36.0,0.0,180.0,14.0,0.0
4915,48.0,0.0,180.0,13.0,0.0
4916,36.0,24.0,180.0,14.0,0.0
4917,69.0,0.0,180.0,12.0,0.0
4918,48.0,0.0,180.0,13.0,0.0
4919,78.0,0.0,90.0,10.0,0.0
4920,78.0,84.0,90.0,11.0,0.0
4921,80.0,0.0,60.0,10.0,0.0
4922,75.0,0.0,390.0,4.0,0.0
4923,80.0,60.0,60.0,11.0,0.0
4924,63.0,0.0,390.0,3.0,0.0
4925,54.0,36.0,390.0,3.0,0.0
4926,36.0,0.0,180.0,14.0,0.0
4927,48.0,0.0,180.0,13.0,0.0
4928,69.0,48.0,180.0,12.0,0.0
4929,66.0,0.0,390.0,4.0,0.0
4930,78.0,0.0,60.0,10.0,0.0
4931,78.0,60.0,60.0,11.0,0.0
4932,80.0,12.0,60.0,10.0,0.0
4933,80.0,0.0,60.0,11.0,0.0
4934,78.0,0.0,60.0,10.0,0.0
4935,78.0,60.0,60.0,11.0,0.0
4936,36.0,0.0,180.0,14.0,0.0
4937,80.0,0.0,60.0,10.0,0.0
4938,80.0,60.0,60.0,11.0,0.0
4939,69.0,36.0,180.0,12.0,0.0
4940,48.0,0.0,180.0,13.0,0.0
4941,78.0,24.0,60.0,10.0,0.0
4942,78.0,0.0,60.0,11.0,0.0
4943,77.0,0.0,60.0,10.0,0.0
4944,77.0,12.0,60.0,11.0,0.0
4945,78.0,0.0,60.0,10.0,0.0
4946,78.0,204.0,60.0,11.0,0.0
4947,37.0,0.0,180.0,14.0,0.0
4948,82.0,0.0,660.0,11.0,0.0
4949,73.0,0.0,1140.0,1.0,0.0
4950,58.0,0.0,1140.0,2.0,0.0
4951,70.0,240.0,180.0,12.0,0.0
4952,61.0,0.0,1140.0,3.0,0.0
4953,54.0,0.0,1140.0,2.0,0.0
4954,49.0,0.0,180.0,13.0,0.0
4955,82.0,0.0,1140.0,0.0,0.0
4956,82.0,0.0,660.0,10.0,0.0
4957,73.0,0.0,1140.0,4.0,0.0
4958,66.0,0.0,180.0,12.0,0.0
4959,49.0,240.0,180.0,13.0,0.0
4960,37.0,0.0,180.0,14.0,0.0
4961,49.0,240.0,180.0,13.0,0.0
4962,66.0,0.0,180.0,12.0,0.0
4963,37.0,0.0,180.0,14.0,0.0
4964,37.0,0.0,180.0,14.0,0.0
4965,66.0,24.0,180.0,12.0,0.0
4966,49.0,0.0,180.0,13.0,0.0
4967,78.0,216.0,90.0,11.0,0.0
4968,78.0,0.0,90.0,10.0,0.0
4969,82.0,0.0,300.0,10.0,0.0
4970,82.0,144.0,300.0,11.0,0.0
4971,37.0,96.0,180.0,14.0,0.0
4972,49.0,0.0,180.0,13.0,0.0
4973,66.0,0.0,180.0,12.0,0.0
4974,66.0,24.0,180.0,12.0,0.0
4975,49.0,0.0,180.0,13.0,0.0
4976,37.0,0.0,180.0,14.0,0.0
4977,78.0,216.0,90.0,10.0,0.0
4978,78.0,0.0,90.0,11.0,0.0
4979,56.0,0.0,1140.0,2.0,0.0
4980,77.0,0.0,1140.0,1.0,0.0
4981,80.0,72.0,1140.0,1.0,0.0
4982,83.0,0.0,1140.0,0.0,0.0
4983,61.0,0.0,390.0,3.0,0.0
4984,83.0,120.0,270.0,11.0,0.0
4985,37.0,0.0,180.0,14.0,0.0
4986,65.0,72.0,180.0,12.0,0.0
4987,53.0,0.0,1140.0,2.0,0.0
4988,83.0,0.0,270.0,10.0,0.0
4989,73.0,48.0,390.0,4.0,0.0
4990,49.0,0.0,180.0,13.0,0.0
4991,49.0,0.0,180.0,13.0,0.0
4992,37.0,240.0,180.0,14.0,0.0
4993,65.0,0.0,180.0,12.0,0.0
4994,73.0,48.0,390.0,4.0,0.0
4995,68.0,0.0,180.0,12.0,0.0
4996,80.0,120.0,270.0,11.0,0.0
4997,80.0,0.0,270.0,10.0,0.0
4998,49.0,72.0,180.0,13.0,0.0
4999,37.0,0.0,180.0,14.0,0.0
5000,61.0,0.0,390.0,3.0,0.0
5001,68.0,0.0,180.0,12.0,0.0
5002,49.0,240.0,180.0,13.0,0.0
5003,37.0,0.0,180.0,14.0,0.0
5004,77.0,120.0,270.0,11.0,0.0
5005,71.0,0.0,180.0,12.0,0.0
5006,77.0,0.0,270.0,10.0,0.0
5007,73.0,0.0,390.0,4.0,0.0
5008,61.0,48.0,390.0,3.0,0.0
5009,37.0,0.0,180.0,14.0,0.0
5010,49.0,0.0,180.0,13.0,0.0
5011,71.0,240.0,180.0,12.0,0.0
5012,49.0,0.0,180.0,13.0,0.0
5013,37.0,0.0,180.0,14.0,0.0
5014,49.0,0.0,180.0,13.0,0.0
5015,76.0,0.0,1140.0,1.0,0.0
5016,79.0,0.0,1140.0,1.0,0.0
5017,61.0,0.0,780.0,3.0,0.0
5018,64.0,0.0,780.0,3.0,0.0
5019,58.0,0.0,390.0,10.0,0.0
5020,67.0,0.0,390.0,10.0,0.0
5021,37.0,192.0,180.0,14.0,0.0
5022,76.0,0.0,870.0,10.0,0.0
5023,82.0,0.0,1140.0,0.0,0.0
5024,76.0,48.0,870.0,11.0,0.0
5025,58.0,0.0,390.0,11.0,0.0
5026,67.0,48.0,390.0,11.0,0.0
5027,58.0,0.0,1140.0,2.0,0.0
5028,55.0,0.0,1140.0,2.0,0.0
5029,73.0,96.0,780.0,4.0,0.0
5030,67.0,0.0,180.0,12.0,0.0
5031,67.0,0.0,180.0,12.0,0.0
5032,49.0,240.0,180.0,13.0,0.0
5033,37.0,0.0,180.0,14.0,0.0
5034,49.0,0.0,180.0,13.0,0.0
5035,67.0,0.0,180.0,12.0,0.0
5036,37.0,96.0,180.0,14.0,0.0
5037,37.0,240.0,180.0,14.0,0.0
5038,67.0,0.0,180.0,12.0,0.0
5039,49.0,0.0,180.0,13.0,0.0
5040,73.0,0.0,390.0,4.0,0.0
5041,67.0,0.0,180.0,12.0,0.0
5042,49.0,192.0,180.0,13.0,0.0
5043,76.0,0.0,390.0,10.0,0.0
5044,64.0,0.0,390.0,3.0,0.0
5045,76.0,48.0,390.0,11.0,0.0
5046,61.0,0.0,390.0,3.0,0.0
5047,37.0,0.0,180.0,14.0,0.0
5048,37.0,144.0,180.0,14.0,0.0
5049,67.0,0.0,180.0,12.0,0.0
5050,49.0,0.0,180.0,13.0,0.0
5051,74.0,96.0,90.0,11.0,0.0
5052,35.0,192.0,180.0,14.0,0.0
5053,59.0,0.0,1140.0,2.0,0.0
5054,56.0,0.0,1140.0,2.0,0.0
5055,80.0,0.0,1140.0,1.0,0.0
5056,75.0,0.0,1140.0,1.0,0.0
5057,59.0,0.0,390.0,3.0,0.0
5058,63.0,24.0,390.0,3.0,0.0
5059,71.0,0.0,390.0,4.0,0.0
5060,83.0,0.0,1140.0,0.0,0.0
5061,68.0,0.0,180.0,12.0,0.0
5062,47.0,0.0,180.0,13.0,0.0
5063,74.0,0.0,90.0,10.0,0.0
5064,75.0,24.0,300.0,10.0,0.0
5065,75.0,0.0,300.0,11.0,0.0
5066,68.0,0.0,180.0,12.0,0.0
5067,47.0,240.0,180.0,13.0,0.0
5068,35.0,0.0,180.0,14.0,0.0
5069,59.0,48.0,390.0,3.0,0.0
5070,75.0,0.0,390.0,10.0,0.0
5071,68.0,0.0,180.0,12.0,0.0
5072,63.0,0.0,390.0,3.0,0.0
5073,71.0,0.0,390.0,4.0,0.0
5074,47.0,0.0,180.0,13.0,0.0
5075,75.0,0.0,390.0,11.0,0.0
5076,35.0,192.0,180.0,14.0,0.0
5077,35.0,0.0,180.0,14.0,0.0
5078,68.0,240.0,180.0,12.0,0.0
5079,47.0,0.0,180.0,13.0,0.0
5080,47.0,0.0,180.0,13.0,0.0
5081,35.0,0.0,180.0,14.0,0.0
5082,68.0,240.0,180.0,12.0,0.0
5083,47.0,0.0,180.0,13.0,0.0
5084,68.0,240.0,180.0,12.0,0.0
5085,35.0,0.0,180.0,14.0,0.0
5086,51.0,0.0,180.0,13.0,0.0
5087,78.0,0.0,660.0,11.0,0.0
5088,75.0,0.0,780.0,4.0,0.0
5089,78.0,96.0,660.0,10.0,0.0
5090,60.0,0.0,1140.0,2.0,0.0
5091,78.0,0.0,1140.0,1.0,0.0
5092,81.0,0.0,1140.0,1.0,0.0
5093,69.0,240.0,180.0,12.0,0.0
5094,66.0,0.0,780.0,4.0,0.0
5095,54.0,0.0,780.0,3.0,0.0
5096,84.0,0.0,1140.0,0.0,0.0
5097,39.0,0.0,180.0,14.0,0.0
5098,63.0,144.0,780.0,3.0,0.0
5099,57.0,0.0,1140.0,2.0,0.0
5100,51.0,240.0,180.0,13.0,0.0
5101,69.0,0.0,180.0,12.0,0.0
5102,39.0,0.0,180.0,14.0,0.0
5103,39.0,0.0,180.0,14.0,0.0
5104,51.0,0.0,180.0,13.0,0.0
5105,69.0,0.0,180.0,12.0,0.0
5106,51.0,0.0,180.0,13.0,0.0
5107,39.0,24.0,180.0,14.0,0.0
5108,69.0,0.0,180.0,12.0,0.0
5109,78.0,0.0,90.0,11.0,0.0
5110,78.0,84.0,90.0,10.0,0.0
5111,66.0,36.0,390.0,4.0,0.0
5112,75.0,0.0,390.0,4.0,0.0
5113,80.0,60.0,60.0,10.0,0.0
5114,51.0,0.0,180.0,13.0,0.0
5115,69.0,48.0,180.0,12.0,0.0
5116,80.0,0.0,60.0,11.0,0.0
5117,54.0,0.0,390.0,3.0,0.0
5118,39.0,0.0,180.0,14.0,0.0
5119,63.0,0.0,390.0,3.0,0.0
5120,78.0,60.0,60.0,11.0,0.0
5121,78.0,0.0,60.0,10.0,0.0
5122,80.0,12.0,60.0,10.0,0.0
5123,80.0,0.0,60.0,11.0,0.0
5124,78.0,0.0,60.0,11.0,0.0
5125,78.0,60.0,60.0,10.0,0.0
5126,51.0,0.0,180.0,13.0,0.0
5127,69.0,36.0,180.0,12.0,0.0
5128,39.0,0.0,180.0,14.0,0.0
5129,80.0,0.0,60.0,11.0,0.0
5130,80.0,60.0,60.0,10.0,0.0
5131,78.0,24.0,60.0,11.0,0.0
5132,78.0,0.0,60.0,10.0,0.0
5133,77.0,12.0,60.0,11.0,0.0
5134,77.0,0.0,60.0,10.0,0.0
5135,78.0,204.0,60.0,11.0,0.0
5136,78.0,0.0,60.0,10.0,0.0
5137,61.0,0.0,960.0,2.0,0.0
5138,49.0,240.0,180.0,13.0,0.0
5139,78.0,0.0,1140.0,1.0,0.0
5140,82.0,0.0,660.0,11.0,0.0
5141,85.0,0.0,1140.0,0.0,0.0
5142,70.0,0.0,180.0,12.0,0.0
5143,61.0,0.0,1140.0,3.0,0.0
5144,82.0,0.0,1140.0,1.0,0.0
5145,37.0,0.0,180.0,14.0,0.0
5146,82.0,0.0,660.0,10.0,0.0
5147,73.0,0.0,1140.0,4.0,0.0
5148,49.0,0.0,180.0,13.0,0.0
5149,66.0,240.0,180.0,12.0,0.0
5150,37.0,0.0,180.0,14.0,0.0
5151,66.0,0.0,180.0,12.0,0.0
5152,37.0,240.0,180.0,14.0,0.0
5153,49.0,0.0,180.0,13.0,0.0
5154,66.0,24.0,180.0,12.0,0.0
5155,49.0,0.0,180.0,13.0,0.0
5156,37.0,0.0,180.0,14.0,0.0
5157,78.0,0.0,90.0,10.0,0.0
5158,78.0,24.0,90.0,11.0,0.0
5159,49.0,96.0,180.0,13.0,0.0
5160,82.0,0.0,300.0,11.0,0.0
5161,37.0,0.0,180.0,14.0,0.0
5162,58.0,192.0,15.0,2.0,0.0
5163,54.0,48.0,390.0,2.0,0.0
5164,82.0,96.0,300.0,10.0,0.0
5165,66.0,0.0,180.0,12.0,0.0
5166,37.0,24.0,180.0,14.0,0.0
5167,66.0,0.0,180.0,12.0,0.0
5168,49.0,0.0,180.0,13.0,0.0
5169,78.0,216.0,90.0,11.0,0.0
5170,78.0,0.0,90.0,10.0,0.0
5171,68.0,0.0,1140.0,1.0,0.0
5172,71.0,0.0,1140.0,1.0,0.0
5173,49.0,72.0,180.0,13.0,0.0
5174,37.0,0.0,180.0,14.0,0.0
5175,61.0,48.0,390.0,3.0,0.0
5176,77.0,0.0,1140.0,0.0,0.0
5177,65.0,0.0,180.0,12.0,0.0
5178,56.0,0.0,960.0,2.0,0.0
5179,73.0,0.0,390.0,4.0,0.0
5180,83.0,0.0,270.0,11.0,0.0
5181,83.0,120.0,270.0,10.0,0.0
5182,59.0,192.0,960.0,2.0,0.0
5183,37.0,0.0,180.0,14.0,0.0
5184,65.0,240.0,180.0,12.0,0.0
5185,49.0,0.0,180.0,13.0,0.0
5186,80.0,0.0,270.0,10.0,0.0
5187,49.0,72.0,180.0,13.0,0.0
5188,68.0,0.0,180.0,12.0,0.0
5189,61.0,48.0,390.0,3.0,0.0
5190,73.0,0.0,390.0,4.0,0.0
5191,80.0,120.0,270.0,11.0,0.0
5192,37.0,0.0,180.0,14.0,0.0
5193,49.0,0.0,180.0,13.0,0.0
5194,37.0,0.0,180.0,14.0,0.0
5195,68.0,48.0,180.0,12.0,0.0
5196,71.0,72.0,180.0,12.0,0.0
5197,77.0,120.0,270.0,10.0,0.0
5198,49.0,0.0,180.0,13.0,0.0
5199,77.0,0.0,270.0,11.0,0.0
5200,37.0,0.0,180.0,14.0,0.0
5201,56.0,0.0,390.0,2.0,0.0
5202,53.0,0.0,390.0,2.0,0.0
5203,73.0,48.0,390.0,4.0,0.0
5204,61.0,0.0,390.0,3.0,0.0
5205,49.0,0.0,180.0,13.0,0.0
5206,37.0,0.0,180.0,14.0,0.0
5207,71.0,144.0,180.0,12.0,0.0
5208,42.0,0.0,390.0,14.0,0.0
5209,78.0,72.0,390.0,0.0,0.0
5210,54.0,0.0,390.0,13.0,0.0
5211,42.0,0.0,390.0,5.0,0.0
5212,73.0,0.0,390.0,4.0,0.0
5213,66.0,0.0,390.0,4.0,0.0
5214,54.0,0.0,390.0,2.0,0.0
5215,54.0,0.0,390.0,3.0,0.0
5216,78.0,120.0,90.0,11.0,0.0
5217,61.0,0.0,390.0,3.0,0.0
5218,70.0,0.0,390.0,12.0,0.0
5219,66.0,0.0,390.0,1.0,0.0
5220,78.0,0.0,90.0,10.0,0.0
5221,70.0,0.0,390.0,1.0,0.0
5222,78.0,0.0,90.0,10.0,0.0
5223,78.0,120.0,90.0,11.0,0.0
5224,73.0,0.0,90.0,10.0,0.0
5225,73.0,48.0,90.0,11.0,0.0
5226,73.0,0.0,90.0,11.0,0.0
5227,73.0,120.0,90.0,10.0,0.0
5228,82.0,120.0,90.0,10.0,0.0
5229,82.0,0.0,90.0,11.0,0.0
5230,82.0,0.0,90.0,11.0,0.0
5231,82.0,120.0,90.0,10.0,0.0
5232,78.0,120.0,90.0,10.0,0.0
5233,78.0,0.0,90.0,11.0,0.0
5234,78.0,0.0,90.0,11.0,0.0
5235,78.0,120.0,90.0,10.0,0.0
5236,73.0,0.0,90.0,11.0,0.0
5237,73.0,120.0,90.0,10.0,0.0
5238,73.0,0.0,90.0,11.0,0.0
5239,73.0,120.0,90.0,10.0,0.0
5240,58.0,0.0,180.0,13.0,0.0
5241,46.0,0.0,180.0,14.0,0.0
5242,70.0,96.0,90.0,10.0,0.0
5243,70.0,0.0,180.0,12.0,0.0
5244,70.0,0.0,180.0,1.0,0.0
5245,82.0,0.0,180.0,0.0,0.0
5246,70.0,0.0,90.0,11.0,0.0
5247,58.0,24.0,180.0,2.0,0.0
5248,70.0,120.0,90.0,10.0,0.0
5249,70.0,0.0,90.0,11.0,0.0
5250,59.0,24.0,180.0,2.0,0.0
5251,71.0,0.0,90.0,11.0,0.0
5252,59.0,0.0,180.0,13.0,0.0
5253,83.0,0.0,180.0,0.0,0.0
5254,71.0,0.0,180.0,12.0,0.0
5255,71.0,96.0,90.0,10.0,0.0
5256,71.0,0.0,180.0,1.0,0.0
5257,47.0,0.0,180.0,14.0,0.0
5258,71.0,0.0,90.0,11.0,0.0
5259,71.0,120.0,90.0,10.0,0.0
5260,87.0,0.0,180.0,0.0,0.0
5261,75.0,0.0,90.0,10.0,0.0
5262,51.0,0.0,180.0,14.0,0.0
5263,75.0,0.0,180.0,1.0,0.0
5264,75.0,0.0,180.0,12.0,0.0
5265,75.0,96.0,90.0,11.0,0.0
5266,63.0,0.0,180.0,13.0,0.0
5267,63.0,24.0,180.0,2.0,0.0
5268,75.0,0.0,90.0,10.0,0.0
5269,75.0,120.0,90.0,11.0,0.0
5270,68.0,0.0,90.0,11.0,0.0
5271,44.0,24.0,180.0,14.0,0.0
5272,56.0,0.0,180.0,2.0,0.0
5273,68.0,0.0,180.0,1.0,0.0
5274,56.0,0.0,180.0,13.0,0.0
5275,80.0,0.0,180.0,0.0,0.0
5276,68.0,0.0,180.0,12.0,0.0
5277,68.0,96.0,90.0,10.0,0.0
5278,68.0,0.0,90.0,10.0,0.0
5279,68.0,120.0,90.0,11.0,0.0
5280,47.0,0.0,180.0,14.0,0.0
5281,59.0,0.0,180.0,13.0,0.0
5282,83.0,0.0,180.0,0.0,0.0
5283,71.0,0.0,180.0,1.0,0.0
5284,71.0,0.0,90.0,10.0,0.0
5285,71.0,0.0,180.0,12.0,0.0
5286,59.0,24.0,180.0,2.0,0.0
5287,71.0,96.0,90.0,11.0,0.0
5288,71.0,120.0,90.0,11.0,0.0
5289,71.0,0.0,90.0,10.0,0.0
5290,65.0,0.0,90.0,11.0,0.0
5291,41.0,24.0,180.0,14.0,0.0
5292,77.0,0.0,180.0,0.0,0.0
5293,65.0,96.0,90.0,10.0,0.0
5294,65.0,0.0,180.0,12.0,0.0
5295,53.0,0.0,180.0,13.0,0.0
5296,65.0,0.0,180.0,1.0,0.0
5297,53.0,0.0,180.0,2.0,0.0
5298,65.0,0.0,90.0,11.0,0.0
5299,65.0,120.0,90.0,10.0,0.0
5300,68.0,0.0,180.0,1.0,0.0
5301,56.0,24.0,180.0,13.0,0.0
5302,80.0,0.0,180.0,0.0,0.0
5303,68.0,96.0,90.0,10.0,0.0
5304,56.0,0.0,180.0,2.0,0.0
5305,68.0,0.0,180.0,12.0,0.0
5306,44.0,0.0,180.0,14.0,0.0
5307,68.0,0.0,90.0,11.0,0.0
5308,68.0,120.0,90.0,10.0,0.0
5309,68.0,0.0,90.0,11.0,0.0
5310,66.0,0.0,180.0,1.0,0.0
5311,66.0,0.0,390.0,4.0,0.0
5312,66.0,0.0,180.0,12.0,0.0
5313,42.0,0.0,180.0,14.0,0.0
5314,54.0,0.0,390.0,3.0,0.0
5315,54.0,0.0,180.0,13.0,0.0
5316,42.0,48.0,390.0,5.0,0.0
5317,54.0,0.0,180.0,2.0,0.0
5318,66.0,96.0,90.0,10.0,0.0
5319,66.0,0.0,90.0,11.0,0.0
5320,78.0,24.0,180.0,0.0,0.0
5321,66.0,0.0,90.0,11.0,0.0
5322,66.0,120.0,90.0,10.0,0.0
5323,61.0,24.0,180.0,1.0,0.0
5324,61.0,48.0,90.0,11.0,0.0
5325,49.0,0.0,180.0,13.0,0.0
5326,37.0,0.0,180.0,14.0,0.0
5327,73.0,0.0,180.0,0.0,0.0
5328,61.0,0.0,90.0,10.0,0.0
5329,49.0,0.0,180.0,2.0,0.0
5330,61.0,0.0,180.0,12.0,0.0
5331,61.0,120.0,90.0,11.0,0.0
5332,61.0,0.0,90.0,10.0,0.0
5333,82.0,0.0,180.0,0.0,0.0
5334,58.0,0.0,180.0,13.0,0.0
5335,58.0,0.0,180.0,2.0,0.0
5336,70.0,0.0,180.0,1.0,0.0
5337,46.0,24.0,180.0,14.0,0.0
5338,70.0,0.0,180.0,12.0,0.0
5339,70.0,96.0,90.0,10.0,0.0
5340,70.0,0.0,90.0,11.0,0.0
5341,70.0,0.0,90.0,11.0,0.0
5342,70.0,120.0,90.0,10.0,0.0
5343,66.0,0.0,90.0,10.0,0.0
5344,66.0,96.0,90.0,11.0,0.0
5345,42.0,0.0,180.0,14.0,0.0
5346,54.0,24.0,180.0,13.0,0.0
5347,66.0,0.0,180.0,12.0,0.0
5348,78.0,0.0,180.0,0.0,0.0
5349,54.0,0.0,180.0,2.0,0.0
5350,66.0,0.0,180.0,1.0,0.0
5351,66.0,120.0,90.0,10.0,0.0
5352,66.0,0.0,90.0,11.0,0.0
5353,73.0,0.0,180.0,0.0,0.0
5354,61.0,0.0,90.0,10.0,0.0
5355,61.0,24.0,180.0,12.0,0.0
5356,49.0,0.0,180.0,13.0,0.0
5357,61.0,0.0,180.0,1.0,0.0
5358,49.0,0.0,180.0,2.0,0.0
5359,37.0,0.0,180.0,14.0,0.0
5360,61.0,96.0,90.0,11.0,0.0
5361,61.0,0.0,90.0,11.0,0.0
5362,61.0,120.0,90.0,10.0,0.0
5363,58.0,0.0,180.0,1.0,0.0
5364,70.0,24.0,180.0,1.0,0.0
5365,34.0,0.0,180.0,14.0,0.0
5366,82.0,0.0,180.0,0.0,0.0
5367,58.0,0.0,180.0,12.0,0.0
5368,46.0,0.0,180.0,2.0,0.0
5369,58.0,96.0,90.0,10.0,0.0
5370,46.0,0.0,180.0,13.0,0.0
5371,58.0,0.0,90.0,11.0,0.0
5372,58.0,120.0,90.0,11.0,0.0
5373,58.0,0.0,90.0,10.0,0.0
5374,59.0,96.0,90.0,11.0,0.0
5375,35.0,0.0,180.0,14.0,0.0
5376,47.0,0.0,180.0,13.0,0.0
5377,71.0,0.0,180.0,1.0,0.0
5378,59.0,0.0,180.0,12.0,0.0
5379,83.0,24.0,180.0,0.0,0.0
5380,47.0,0.0,180.0,2.0,0.0
5381,59.0,0.0,180.0,1.0,0.0
5382,59.0,0.0,90.0,10.0,0.0
5383,59.0,0.0,90.0,10.0,0.0
5384,59.0,120.0,90.0,11.0,0.0
5385,39.0,0.0,180.0,14.0,0.0
5386,51.0,0.0,180.0,2.0,0.0
5387,63.0,0.0,90.0,10.0,0.0
5388,63.0,0.0,180.0,12.0,0.0
5389,75.0,24.0,180.0,1.0,0.0
5390,63.0,96.0,90.0,11.0,0.0
5391,63.0,0.0,180.0,1.0,0.0
5392,87.0,0.0,180.0,0.0,0.0
5393,51.0,0.0,180.0,13.0,0.0
5394,63.0,120.0,90.0,11.0,0.0
5395,63.0,0.0,90.0,10.0,0.0
5396,44.0,0.0,180.0,2.0,0.0
5397,32.0,0.0,180.0,14.0,0.0
5398,56.0,0.0,180.0,12.0,0.0
5399,80.0,24.0,180.0,0.0,0.0
5400,56.0,96.0,90.0,11.0,0.0
5401,44.0,0.0,180.0,13.0,0.0
5402,56.0,0.0,180.0,1.0,0.0
5403,68.0,0.0,180.0,1.0,0.0
5404,56.0,0.0,90.0,10.0,0.0
5405,56.0,120.0,90.0,10.0,0.0
5406,56.0,0.0,90.0,11.0,0.0
5407,59.0,96.0,90.0,11.0,0.0
5408,59.0,0.0,180.0,1.0,0.0
5409,71.0,0.0,180.0,1.0,0.0
5410,35.0,0.0,180.0,14.0,0.0
5411,47.0,24.0,180.0,2.0,0.0
5412,59.0,0.0,180.0,12.0,0.0
5413,47.0,0.0,180.0,13.0,0.0
5414,83.0,0.0,180.0,0.0,0.0
5415,59.0,0.0,90.0,10.0,0.0
5416,59.0,120.0,90.0,11.0,0.0
5417,59.0,0.0,90.0,10.0,0.0
5418,53.0,0.0,90.0,11.0,0.0
5419,53.0,0.0,180.0,1.0,0.0
5420,41.0,0.0,180.0,13.0,0.0
5421,53.0,0.0,180.0,12.0,0.0
5422,65.0,0.0,180.0,1.0,0.0
5423,29.0,0.0,180.0,14.0,0.0
5424,77.0,24.0,180.0,0.0,0.0
5425,53.0,96.0,90.0,10.0,0.0
5426,41.0,0.0,180.0,2.0,0.0
5427,53.0,120.0,90.0,10.0,0.0
5428,53.0,0.0,90.0,11.0,0.0
5429,44.0,24.0,180.0,13.0,0.0
5430,32.0,0.0,180.0,14.0,0.0
5431,68.0,0.0,180.0,1.0,0.0
5432,56.0,0.0,180.0,12.0,0.0
5433,56.0,96.0,90.0,10.0,0.0
5434,44.0,0.0,180.0,2.0,0.0
5435,80.0,0.0,180.0,0.0,0.0
5436,56.0,0.0,90.0,11.0,0.0
5437,56.0,0.0,180.0,1.0,0.0
5438,56.0,0.0,90.0,11.0,0.0
5439,56.0,216.0,90.0,10.0,0.0
5440,78.0,0.0,390.0,0.0,0.0
5441,54.0,0.0,390.0,1.0,0.0
5442,54.0,144.0,180.0,10.0,0.0
5443,42.0,0.0,390.0,5.0,0.0
5444,66.0,0.0,390.0,4.0,0.0
5445,54.0,0.0,180.0,11.0,0.0
5446,42.0,0.0,390.0,2.0,0.0
5447,30.0,0.0,390.0,14.0,0.0
5448,54.0,0.0,390.0,3.0,0.0
5449,42.0,0.0,390.0,13.0,0.0
5450,54.0,72.0,390.0,12.0,0.0
5451,66.0,0.0,390.0,1.0,0.0
5452,56.0,0.0,90.0,10.0,0.0
5453,56.0,48.0,90.0,11.0,0.0
5454,58.0,120.0,90.0,11.0,0.0
5455,58.0,0.0,90.0,10.0,0.0
5456,59.0,0.0,90.0,10.0,0.0
5457,59.0,120.0,90.0,11.0,0.0
5458,61.0,0.0,90.0,11.0,0.0
5459,61.0,120.0,90.0,10.0,0.0
5460,63.0,120.0,90.0,11.0,0.0
5461,63.0,0.0,90.0,10.0,0.0
5462,65.0,0.0,90.0,11.0,0.0
5463,65.0,120.0,90.0,10.0,0.0
5464,66.0,0.0,90.0,10.0,0.0
5465,66.0,144.0,90.0,11.0,0.0
5466,65.0,0.0,120.0,10.0,0.0
5467,65.0,120.0,120.0,11.0,0.0
5468,66.0,0.0,120.0,11.0,0.0
5469,66.0,96.0,120.0,10.0,0.0
5470,65.0,0.0,90.0,11.0,0.0
5471,65.0,216.0,90.0,10.0,0.0
5472,30.0,0.0,180.0,14.0,0.0
5473,66.0,0.0,180.0,11.0,0.0
5474,54.0,0.0,390.0,3.0,0.0
5475,66.0,144.0,180.0,0.0,0.0
5476,42.0,0.0,390.0,5.0,0.0
5477,54.0,0.0,180.0,12.0,0.0
5478,42.0,0.0,180.0,13.0,0.0
5479,66.0,72.0,390.0,4.0,0.0
5480,66.0,0.0,180.0,1.0,0.0
5481,66.0,0.0,180.0,10.0,0.0
5482,42.0,0.0,180.0,2.0,0.0
5483,44.0,0.0,90.0,2.0,0.0
5484,56.0,0.0,90.0,12.0,0.0
5485,68.0,0.0,90.0,1.0,0.0
5486,32.0,48.0,90.0,14.0,0.0
5487,68.0,0.0,90.0,0.0,0.0
5488,68.0,0.0,90.0,10.0,0.0
5489,68.0,0.0,90.0,11.0,0.0
5490,44.0,0.0,90.0,13.0,0.0
5491,70.0,0.0,90.0,11.0,0.0
5492,70.0,120.0,90.0,0.0,0.0
5493,58.0,0.0,90.0,12.0,0.0
5494,34.0,0.0,90.0,14.0,0.0
5495,70.0,0.0,90.0,1.0,0.0
5496,46.0,0.0,90.0,2.0,0.0
5497,46.0,0.0,90.0,13.0,0.0
5498,70.0,0.0,90.0,10.0,0.0
5499,71.0,0.0,90.0,1.0,0.0
5500,71.0,120.0,90.0,0.0,0.0
5501,47.0,0.0,90.0,2.0,0.0
5502,71.0,0.0,90.0,10.0,0.0
5503,47.0,0.0,90.0,13.0,0.0
5504,71.0,0.0,90.0,11.0,0.0
5505,59.0,0.0,90.0,12.0,0.0
5506,35.0,0.0,90.0,14.0,0.0
5507,73.0,0.0,90.0,1.0,0.0
5508,73.0,0.0,90.0,10.0,0.0
5509,61.0,0.0,90.0,12.0,0.0
5510,37.0,0.0,90.0,14.0,0.0
5511,49.0,0.0,90.0,13.0,0.0
5512,73.0,120.0,90.0,0.0,0.0
5513,49.0,0.0,90.0,2.0,0.0
5514,73.0,0.0,90.0,11.0,0.0
5515,51.0,0.0,90.0,2.0,0.0
5516,51.0,0.0,90.0,13.0,0.0
5517,75.0,0.0,90.0,10.0,0.0
5518,75.0,0.0,90.0,0.0,0.0
5519,63.0,120.0,90.0,12.0,0.0
5520,75.0,0.0,90.0,1.0,0.0
5521,75.0,0.0,90.0,11.0,0.0
5522,39.0,0.0,90.0,14.0,0.0
5523,41.0,0.0,90.0,14.0,0.0
5524,53.0,0.0,90.0,13.0,0.0
5525,77.0,0.0,90.0,0.0,0.0
5526,65.0,0.0,90.0,12.0,0.0
5527,77.0,0.0,90.0,11.0,0.0
5528,53.0,120.0,90.0,2.0,0.0
5529,77.0,0.0,90.0,1.0,0.0
5530,77.0,0.0,90.0,10.0,0.0
5531,66.0,0.0,90.0,12.0,0.0
5532,78.0,0.0,90.0,11.0,0.0
5533,78.0,0.0,90.0,0.0,0.0
5534,78.0,0.0,90.0,1.0,0.0
5535,42.0,0.0,90.0,14.0,0.0
5536,54.0,0.0,90.0,2.0,0.0
5537,54.0,144.0,90.0,13.0,0.0
5538,78.0,0.0,90.0,10.0,0.0
5539,77.0,120.0,120.0,10.0,0.0
5540,53.0,0.0,120.0,2.0,0.0
5541,77.0,0.0,120.0,1.0,0.0
5542,77.0,0.0,120.0,11.0,0.0
5543,53.0,0.0,120.0,13.0,0.0
5544,77.0,0.0,120.0,0.0,0.0
5545,41.0,0.0,120.0,14.0,0.0
5546,65.0,0.0,120.0,12.0,0.0
5547,54.0,0.0,120.0,13.0,0.0
5548,42.0,0.0,120.0,14.0,0.0
5549,54.0,0.0,120.0,2.0,0.0
5550,78.0,0.0,120.0,0.0,0.0
5551,78.0,0.0,120.0,1.0,0.0
5552,78.0,96.0,120.0,11.0,0.0
5553,66.0,0.0,120.0,12.0,0.0
5554,78.0,0.0,120.0,10.0,0.0
5555,77.0,0.0,90.0,0.0,0.0
5556,77.0,0.0,90.0,1.0,0.0
5557,53.0,0.0,90.0,2.0,0.0
5558,53.0,0.0,90.0,13.0,0.0
5559,77.0,0.0,90.0,10.0,0.0
5560,77.0,0.0,90.0,11.0,0.0
5561,65.0,168.0,90.0,12.0,0.0
5562,41.0,0.0,90.0,14.0,0.0
5563,66.0,0.0,390.0,4.0,0.0
5564,78.0,0.0,150.0,1.0,0.0
5565,54.0,0.0,150.0,13.0,0.0
5566,78.0,0.0,150.0,10.0,0.0
5567,42.0,0.0,390.0,5.0,0.0
5568,78.0,216.0,150.0,11.0,0.0
5569,54.0,0.0,150.0,2.0,0.0
5570,54.0,72.0,390.0,3.0,0.0
5571,42.0,0.0,150.0,14.0,0.0
5572,78.0,0.0,150.0,0.0,0.0
5573,66.0,0.0,150.0,12.0,0.0
5574,68.0,0.0,120.0,12.0,0.0
5575,80.0,0.0,120.0,10.0,0.0
5576,56.0,0.0,120.0,13.0,0.0
5577,80.0,0.0,120.0,0.0,0.0
5578,44.0,0.0,120.0,14.0,0.0
5579,56.0,0.0,120.0,2.0,0.0
5580,80.0,24.0,120.0,1.0,0.0
5581,80.0,0.0,120.0,11.0,0.0
5582,77.0,0.0,90.0,0.0,0.0
5583,41.0,0.0,90.0,14.0,0.0
5584,53.0,0.0,90.0,13.0,0.0
5585,77.0,168.0,90.0,1.0,0.0
5586,65.0,0.0,90.0,12.0,0.0
5587,53.0,0.0,90.0,2.0,0.0
5588,77.0,0.0,90.0,11.0,0.0
5589,77.0,0.0,90.0,10.0,0.0
5590,54.0,0.0,150.0,13.0,0.0
5591,78.0,216.0,150.0,1.0,0.0
5592,54.0,0.0,150.0,2.0,0.0
5593,42.0,0.0,390.0,5.0,0.0
5594,42.0,0.0,150.0,14.0,0.0
5595,54.0,72.0,390.0,3.0,0.0
5596,66.0,0.0,150.0,12.0,0.0
5597,78.0,0.0,150.0,0.0,0.0
5598,78.0,0.0,150.0,10.0,0.0
5599,66.0,0.0,390.0,4.0,0.0
5600,78.0,0.0,150.0,11.0,0.0
5601,80.0,0.0,120.0,11.0,0.0
5602,56.0,0.0,120.0,13.0,0.0
5603,68.0,24.0,120.0,12.0,0.0
5604,44.0,0.0,120.0,14.0,0.0
5605,80.0,0.0,120.0,0.0,0.0
5606,80.0,0.0,120.0,10.0,0.0
5607,80.0,0.0,120.0,1.0,0.0
5608,56.0,0.0,120.0,2.0,0.0
5609,77.0,0.0,90.0,10.0,0.0
5610,77.0,0.0,90.0,0.0,0.0
5611,65.0,0.0,90.0,12.0,0.0
5612,77.0,0.0,90.0,11.0,0.0
5613,53.0,0.0,90.0,2.0,0.0
5614,41.0,0.0,90.0,14.0,0.0
5615,77.0,168.0,90.0,1.0,0.0
5616,53.0,0.0,90.0,13.0,0.0
5617,66.0,0.0,150.0,12.0,0.0
5618,78.0,0.0,150.0,10.0,0.0
5619,78.0,0.0,150.0,11.0,0.0
5620,42.0,216.0,150.0,14.0,0.0
5621,42.0,0.0,390.0,5.0,0.0
5622,66.0,0.0,390.0,4.0,0.0
5623,54.0,72.0,390.0,3.0,0.0
5624,78.0,0.0,150.0,1.0,0.0
5625,54.0,0.0,150.0,2.0,0.0
5626,54.0,0.0,150.0,13.0,0.0
5627,78.0,0.0,150.0,0.0,0.0
5628,68.0,24.0,120.0,12.0,0.0
5629,80.0,0.0,120.0,1.0,0.0
5630,80.0,0.0,120.0,11.0,0.0
5631,56.0,0.0,120.0,13.0,0.0
5632,80.0,0.0,120.0,10.0,0.0
5633,44.0,0.0,120.0,14.0,0.0
5634,80.0,0.0,120.0,0.0,0.0
5635,56.0,0.0,120.0,2.0,0.0
5636,65.0,0.0,90.0,12.0,0.0
5637,77.0,0.0,90.0,11.0,0.0
5638,77.0,0.0,90.0,10.0,0.0
5639,53.0,0.0,90.0,2.0,0.0
5640,53.0,0.0,90.0,13.0,0.0
5641,77.0,0.0,90.0,1.0,0.0
5642,77.0,336.0,90.0,0.0,0.0
5643,41.0,0.0,90.0,14.0,0.0
5644,54.0,0.0,300.0,3.0,0.0
5645,42.0,408.0,390.0,5.0,0.0
5646,54.0,0.0,300.0,13.0,0.0
5647,66.0,0.0,300.0,12.0,0.0
5648,78.0,0.0,300.0,1.0,0.0
5649,78.0,72.0,300.0,10.0,0.0
5650,54.0,0.0,300.0,2.0,0.0
5651,78.0,0.0,300.0,11.0,0.0
5652,66.0,0.0,300.0,4.0,0.0
5653,42.0,0.0,300.0,14.0,0.0
5654,78.0,0.0,300.0,0.0,0.0
5655,42.0,960.0,390.0,5.0,0.0
5656,54.0,0.0,300.0,3.0,0.0
5657,42.0,0.0,300.0,3.0,0.0
5658,66.0,0.0,300.0,0.0,0.0
5659,58.0,0.0,300.0,10.0,0.0
5660,66.0,0.0,300.0,10.0,0.0
5661,42.0,0.0,300.0,2.0,0.0
5662,42.0,0.0,300.0,13.0,0.0
5663,54.0,72.0,300.0,12.0,0.0
5664,66.0,0.0,300.0,11.0,0.0
5665,66.0,0.0,300.0,1.0,0.0
5666,58.0,0.0,300.0,11.0,0.0
5667,54.0,0.0,300.0,4.0,0.0
5668,66.0,0.0,300.0,4.0,0.0
5669,30.0,0.0,300.0,14.0,0.0
5670,35.0,576.0,390.0,14.0,0.0
5671,47.0,0.0,390.0,13.0,0.0
5672,59.0,456.0,480.0,10.0,0.0
5673,63.0,984.0,450.0,10.0,0.0
5674,66.0,480.0,1920.0,10.0,0.0
5675,47.0,0.0,480.0,3.0,0.0
5676,59.0,456.0,480.0,3.0,0.0
5677,51.0,504.0,450.0,3.0,0.0
5678,63.0,0.0,450.0,3.0,0.0
5679,54.0,0.0,3270.0,3.0,0.0
5680,66.0,0.0,3270.0,3.0,0.0
5681,75.0,480.0,480.0,10.0,0.0
5682,73.0,864.0,480.0,10.0,0.0
5683,71.0,384.0,960.0,10.0,0.0
5684,64.0,96.0,390.0,11.0,0.0
5685,61.0,0.0,390.0,12.0,0.0
5686,70.0,0.0,390.0,10.0,0.0
5687,64.0,0.0,390.0,11.0,0.0
5688,61.0,480.0,390.0,12.0,0.0
5689,61.0,576.0,390.0,12.0,0.0
5690,64.0,0.0,390.0,11.0,0.0
5691,30.0,0.0,390.0,14.0,0.0
5692,42.0,0.0,390.0,13.0,0.0
5693,70.0,384.0,480.0,10.0,0.0
5694,73.0,1056.0,390.0,10.0,0.0
5695,66.0,480.0,1920.0,10.0,0.0
5696,46.0,0.0,480.0,2.0,0.0
5697,58.0,384.0,480.0,2.0,0.0
5698,49.0,0.0,390.0,2.0,0.0
5699,61.0,576.0,390.0,2.0,0.0
5700,42.0,192.0,2580.0,2.0,0.0
5701,54.0,0.0,2580.0,2.0,0.0
5702,54.0,384.0,480.0,11.0,0.0
5703,58.0,0.0,480.0,10.0,0.0
5704,61.0,960.0,390.0,10.0,0.0
5705,58.0,0.0,390.0,11.0,0.0
5706,61.0,192.0,960.0,11.0,0.0
5707,64.0,0.0,960.0,10.0,0.0
5708,34.0,0.0,480.0,14.0,0.0
5709,46.0,0.0,480.0,13.0,0.0
5710,54.0,96.0,390.0,12.0,0.0
5711,63.0,0.0,390.0,10.0,0.0
5712,47.0,480.0,390.0,13.0,0.0
5713,54.0,0.0,390.0,12.0,0.0
5714,35.0,0.0,390.0,14.0,0.0
5715,59.0,0.0,390.0,11.0,0.0
5716,56.0,0.0,390.0,11.0,0.0
5717,28.0,0.0,390.0,14.0,0.0
5718,40.0,0.0,390.0,13.0,0.0
5719,52.0,576.0,390.0,12.0,0.0
5720,61.0,384.0,480.0,10.0,0.0
5721,68.0,960.0,390.0,10.0,0.0
5722,58.0,0.0,960.0,10.0,0.0
5723,28.0,0.0,480.0,14.0,0.0
5724,54.0,96.0,390.0,11.0,0.0
5725,40.0,384.0,480.0,13.0,0.0
5726,49.0,0.0,480.0,12.0,0.0
5727,54.0,480.0,390.0,11.0,0.0
5728,59.0,0.0,390.0,10.0,0.0
5729,39.0,0.0,390.0,13.0,0.0
5730,27.0,0.0,390.0,14.0,0.0
5731,51.0,0.0,390.0,12.0,0.0
5732,52.0,0.0,390.0,12.0,0.0
5733,56.0,0.0,390.0,11.0,0.0
5734,40.0,0.0,390.0,13.0,0.0
5735,28.0,576.0,390.0,14.0,0.0
5736,61.0,0.0,480.0,11.0,0.0
5737,73.0,384.0,480.0,10.0,0.0
5738,68.0,0.0,390.0,11.0,0.0
5739,80.0,960.0,390.0,10.0,0.0
5740,70.0,384.0,960.0,10.0,0.0
5741,58.0,0.0,960.0,11.0,0.0
5742,40.0,0.0,480.0,14.0,0.0
5743,54.0,96.0,390.0,12.0,0.0
5744,52.0,0.0,480.0,13.0,0.0
5745,59.0,0.0,390.0,11.0,0.0
5746,54.0,0.0,390.0,12.0,0.0
5747,39.0,480.0,390.0,14.0,0.0
5748,51.0,0.0,390.0,13.0,0.0
5749,71.0,0.0,390.0,10.0,0.0
5750,46.0,0.0,960.0,13.0,0.0
5751,61.0,0.0,390.0,11.0,0.0
5752,34.0,0.0,960.0,14.0,0.0
5753,73.0,480.0,480.0,10.0,0.0
5754,54.0,96.0,390.0,12.0,0.0
5755,76.0,384.0,480.0,10.0,0.0
5756,66.0,144.0,1200.0,12.0,0.0
5757,73.0,0.0,480.0,11.0,0.0
5758,35.0,0.0,390.0,14.0,0.0
5759,47.0,0.0,390.0,13.0,0.0
5760,75.0,96.0,390.0,10.0,0.0
5761,71.0,240.0,480.0,11.0,0.0
5762,30.0,0.0,390.0,14.0,0.0
5763,73.0,0.0,390.0,10.0,0.0
5764,42.0,0.0,390.0,13.0,0.0
5765,70.0,96.0,390.0,11.0,0.0
5766,68.0,240.0,240.0,12.0,0.0
5767,66.0,240.0,240.0,12.0,0.0
5768,63.0,240.0,240.0,12.0,0.0
5769,64.0,240.0,240.0,12.0,0.0
5770,61.0,384.0,240.0,12.0,0.0
5771,59.0,576.0,390.0,12.0,0.0
5772,35.0,0.0,480.0,14.0,0.0
5773,47.0,456.0,480.0,13.0,0.0
5774,51.0,0.0,450.0,13.0,0.0
5775,39.0,984.0,450.0,14.0,0.0
5776,54.0,0.0,1920.0,13.0,0.0
5777,42.0,480.0,1920.0,14.0,0.0
5778,71.0,0.0,480.0,1.0,0.0
5779,59.0,384.0,480.0,1.0,0.0
5780,63.0,0.0,390.0,1.0,0.0
5781,75.0,576.0,390.0,1.0,0.0
5782,78.0,0.0,3270.0,1.0,0.0
5783,66.0,576.0,3270.0,1.0,0.0
5784,51.0,0.0,480.0,14.0,0.0
5785,71.0,0.0,480.0,10.0,0.0
5786,66.0,0.0,480.0,12.0,0.0
5787,66.0,0.0,480.0,11.0,0.0
5788,63.0,384.0,480.0,13.0,0.0
5789,70.0,0.0,390.0,11.0,0.0
5790,73.0,0.0,390.0,10.0,0.0
5791,64.0,576.0,390.0,12.0,0.0
5792,61.0,0.0,390.0,13.0,0.0
5793,49.0,0.0,390.0,14.0,0.0
5794,59.0,0.0,960.0,13.0,0.0
5795,71.0,480.0,480.0,11.0,0.0
5796,47.0,240.0,960.0,14.0,0.0
5797,75.0,0.0,960.0,10.0,0.0
5798,63.0,0.0,960.0,12.0,0.0
5799,72.0,0.0,480.0,11.0,0.0
5800,73.0,0.0,390.0,11.0,0.0
5801,78.0,144.0,240.0,10.0,0.0
5802,61.0,0.0,390.0,12.0,0.0
5803,58.0,48.0,390.0,13.0,0.0
5804,46.0,0.0,390.0,14.0,0.0
5805,76.0,432.0,180.0,10.0,0.0
5806,76.0,0.0,390.0,10.0,0.0
5807,73.0,0.0,390.0,11.0,0.0
5808,58.0,384.0,480.0,13.0,0.0
5809,46.0,0.0,480.0,14.0,0.0
5810,49.0,0.0,390.0,14.0,0.0
5811,61.0,1056.0,390.0,13.0,0.0
5812,54.0,0.0,1920.0,13.0,0.0
5813,42.0,0.0,1920.0,14.0,0.0
5814,70.0,384.0,480.0,1.0,0.0
5815,82.0,0.0,480.0,0.0,0.0
5816,73.0,576.0,390.0,1.0,0.0
5817,85.0,0.0,390.0,0.0,0.0
5818,66.0,0.0,2580.0,1.0,0.0
5819,54.0,0.0,480.0,11.0,0.0
5820,78.0,192.0,2580.0,0.0,0.0
5821,66.0,480.0,480.0,10.0,0.0
5822,55.0,0.0,480.0,11.0,0.0
5823,34.0,0.0,480.0,14.0,0.0
5824,46.0,0.0,480.0,13.0,0.0
5825,52.0,384.0,480.0,12.0,0.0
5826,67.0,0.0,480.0,10.0,0.0
5827,56.0,0.0,480.0,11.0,0.0
5828,49.0,0.0,390.0,13.0,0.0
5829,64.0,96.0,390.0,12.0,0.0
5830,68.0,480.0,480.0,10.0,0.0
5831,37.0,0.0,390.0,14.0,0.0
5832,52.0,192.0,960.0,13.0,0.0
5833,57.0,480.0,480.0,11.0,0.0
5834,61.0,0.0,960.0,12.0,0.0
5835,69.0,0.0,480.0,10.0,0.0
5836,40.0,0.0,960.0,14.0,0.0
5837,70.0,0.0,480.0,10.0,0.0
5838,58.0,0.0,480.0,11.0,0.0
5839,71.0,0.0,390.0,10.0,0.0
5840,63.0,1056.0,390.0,12.0,0.0
5841,39.0,0.0,390.0,14.0,0.0
5842,59.0,0.0,390.0,11.0,0.0
5843,51.0,0.0,390.0,13.0,0.0
5844,64.0,0.0,1680.0,11.0,0.0
5845,76.0,240.0,1680.0,10.0,0.0
5846,56.0,0.0,480.0,12.0,0.0
5847,49.0,384.0,480.0,13.0,0.0
5848,37.0,0.0,480.0,14.0,0.0
5849,56.0,0.0,390.0,13.0,0.0
5850,61.0,336.0,390.0,12.0,0.0
5851,44.0,0.0,390.0,14.0,0.0
5852,46.0,0.0,960.0,13.0,0.0
5853,54.0,48.0,1140.0,12.0,0.0
5854,34.0,0.0,960.0,14.0,0.0
5855,63.0,0.0,240.0,11.0,0.0
5856,75.0,240.0,240.0,10.0,0.0
5857,76.0,0.0,240.0,10.0,0.0
5858,64.0,240.0,240.0,11.0,0.0
5859,78.0,192.0,240.0,10.0,0.0
5860,66.0,0.0,240.0,11.0,0.0
5861,75.0,0.0,240.0,10.0,0.0
5862,47.0,0.0,390.0,13.0,0.0
5863,35.0,48.0,390.0,14.0,0.0
5864,63.0,144.0,240.0,11.0,0.0
5865,71.0,0.0,180.0,10.0,0.0
5866,59.0,1008.0,180.0,11.0,0.0
5867,76.0,0.0,1680.0,10.0,0.0
5868,64.0,240.0,1680.0,11.0,0.0
5869,49.0,0.0,480.0,13.0,0.0
5870,37.0,384.0,480.0,14.0,0.0
5871,68.0,0.0,480.0,12.0,0.0
5872,44.0,0.0,390.0,14.0,0.0
5873,64.0,0.0,390.0,12.0,0.0
5874,56.0,336.0,390.0,13.0,0.0
5875,67.0,0.0,480.0,12.0,0.0
5876,46.0,0.0,960.0,13.0,0.0
5877,34.0,240.0,960.0,14.0,0.0
5878,63.0,0.0,240.0,11.0,0.0
5879,75.0,240.0,240.0,10.0,0.0
5880,64.0,144.0,240.0,11.0,0.0
5881,66.0,96.0,390.0,12.0,0.0
5882,76.0,0.0,240.0,10.0,0.0
5883,78.0,0.0,240.0,10.0,0.0
5884,66.0,0.0,240.0,11.0,0.0
5885,63.0,0.0,240.0,11.0,0.0
5886,75.0,144.0,240.0,10.0,0.0
5887,47.0,0.0,390.0,13.0,0.0
5888,35.0,48.0,390.0,14.0,0.0
5889,66.0,0.0,390.0,12.0,0.0
5890,59.0,0.0,180.0,11.0,0.0
5891,71.0,240.0,180.0,10.0,0.0
5892,40.0,288.0,390.0,14.0,0.0
5893,52.0,0.0,390.0,13.0,0.0
5894,61.0,0.0,390.0,12.0,0.0
5895,67.0,192.0,180.0,11.0,0.0
5896,70.0,0.0,180.0,10.0,0.0
5897,71.0,480.0,180.0,10.0,0.0
5898,68.0,0.0,180.0,11.0,0.0
5899,61.0,0.0,180.0,10.0,0.0
5900,58.0,480.0,180.0,11.0,0.0
5901,63.0,192.0,180.0,10.0,0.0
5902,54.0,288.0,390.0,13.0,0.0
5903,52.0,0.0,390.0,12.0,0.0
5904,60.0,0.0,180.0,11.0,0.0
5905,42.0,0.0,390.0,14.0,0.0
5906,61.0,480.0,180.0,11.0,0.0
5907,64.0,0.0,180.0,10.0,0.0
5908,52.0,0.0,180.0,11.0,0.0
5909,58.0,480.0,180.0,10.0,0.0
5910,59.0,0.0,1140.0,4.0,0.0
5911,71.0,0.0,1140.0,4.0,0.0
5912,47.0,0.0,180.0,2.0,0.0
5913,47.0,0.0,180.0,13.0,0.0
5914,59.0,0.0,1140.0,11.0,0.0
5915,59.0,0.0,1140.0,10.0,0.0
5916,71.0,0.0,1140.0,1.0,0.0
5917,51.0,0.0,1140.0,11.0,0.0
5918,47.0,48.0,390.0,5.0,0.0
5919,59.0,0.0,1140.0,3.0,0.0
5920,47.0,0.0,1140.0,3.0,0.0
5921,59.0,192.0,180.0,12.0,0.0
5922,35.0,0.0,180.0,14.0,0.0
5923,51.0,0.0,1140.0,10.0,0.0
5924,71.0,0.0,1140.0,0.0,0.0
5925,59.0,240.0,180.0,12.0,0.0
5926,35.0,0.0,180.0,14.0,0.0
5927,47.0,0.0,180.0,13.0,0.0
5928,47.0,0.0,180.0,2.0,0.0
5929,47.0,0.0,180.0,2.0,0.0
5930,59.0,0.0,180.0,12.0,0.0
5931,35.0,240.0,180.0,14.0,0.0
5932,47.0,0.0,180.0,13.0,0.0
5933,59.0,0.0,180.0,12.0,0.0
5934,47.0,0.0,180.0,2.0,0.0
5935,35.0,0.0,180.0,14.0,0.0
5936,47.0,240.0,180.0,13.0,0.0
5937,47.0,240.0,180.0,2.0,0.0
5938,59.0,0.0,180.0,12.0,0.0
5939,35.0,0.0,180.0,14.0,0.0
5940,47.0,0.0,180.0,13.0,0.0
5941,47.0,240.0,180.0,13.0,0.0
5942,35.0,0.0,180.0,14.0,0.0
5943,59.0,0.0,180.0,12.0,0.0
5944,47.0,0.0,180.0,2.0,0.0
5945,51.0,0.0,180.0,2.0,0.0
5946,75.0,0.0,780.0,1.0,0.0
5947,75.0,0.0,780.0,0.0,0.0
5948,47.0,48.0,390.0,5.0,0.0
5949,75.0,0.0,780.0,4.0,0.0
5950,63.0,0.0,780.0,4.0,0.0
5951,39.0,192.0,180.0,14.0,0.0
5952,51.0,0.0,180.0,13.0,0.0
5953,63.0,0.0,780.0,3.0,0.0
5954,51.0,0.0,780.0,3.0,0.0
5955,63.0,144.0,780.0,10.0,0.0
5956,63.0,0.0,780.0,11.0,0.0
5957,63.0,0.0,180.0,12.0,0.0
5958,51.0,0.0,180.0,2.0,0.0
5959,63.0,0.0,180.0,12.0,0.0
5960,39.0,0.0,180.0,14.0,0.0
5961,51.0,240.0,180.0,13.0,0.0
5962,39.0,0.0,180.0,14.0,0.0
5963,63.0,0.0,180.0,12.0,0.0
5964,51.0,96.0,180.0,13.0,0.0
5965,51.0,0.0,180.0,2.0,0.0
5966,63.0,240.0,180.0,12.0,0.0
5967,39.0,0.0,180.0,14.0,0.0
5968,51.0,0.0,180.0,13.0,0.0
5969,51.0,0.0,180.0,2.0,0.0
5970,59.0,0.0,180.0,12.0,0.0
5971,59.0,48.0,390.0,3.0,0.0
5972,47.0,0.0,390.0,3.0,0.0
5973,59.0,0.0,390.0,11.0,0.0
5974,35.0,192.0,180.0,14.0,0.0
5975,71.0,0.0,390.0,1.0,0.0
5976,59.0,0.0,390.0,4.0,0.0
5977,47.0,0.0,180.0,2.0,0.0
5978,71.0,0.0,390.0,0.0,0.0
5979,47.0,0.0,180.0,13.0,0.0
5980,59.0,0.0,390.0,10.0,0.0
5981,71.0,0.0,390.0,4.0,0.0
5982,47.0,0.0,180.0,2.0,0.0
5983,59.0,0.0,180.0,12.0,0.0
5984,47.0,240.0,180.0,13.0,0.0
5985,35.0,0.0,180.0,14.0,0.0
5986,42.0,0.0,180.0,2.0,0.0
5987,54.0,0.0,1140.0,4.0,0.0
5988,54.0,0.0,780.0,10.0,0.0
5989,54.0,0.0,180.0,12.0,0.0
5990,54.0,0.0,1140.0,3.0,0.0
5991,54.0,0.0,780.0,11.0,0.0
5992,42.0,0.0,1140.0,3.0,0.0
5993,42.0,192.0,180.0,13.0,0.0
5994,66.0,0.0,780.0,1.0,0.0
5995,42.0,48.0,390.0,5.0,0.0
5996,30.0,0.0,180.0,14.0,0.0
5997,66.0,96.0,780.0,0.0,0.0
5998,66.0,0.0,1140.0,4.0,0.0
5999,42.0,0.0,180.0,2.0,0.0
6000,30.0,0.0,180.0,14.0,0.0
6001,42.0,240.0,180.0,13.0,0.0
6002,54.0,0.0,180.0,12.0,0.0
6003,42.0,0.0,180.0,13.0,0.0
6004,42.0,96.0,180.0,2.0,0.0
6005,30.0,0.0,180.0,14.0,0.0
6006,42.0,48.0,390.0,5.0,0.0
6007,54.0,0.0,180.0,12.0,0.0
6008,54.0,0.0,180.0,12.0,0.0
6009,42.0,0.0,180.0,2.0,0.0
6010,42.0,108.0,180.0,13.0,0.0
6011,30.0,0.0,180.0,14.0,0.0
6012,40.0,48.0,180.0,13.0,0.0
6013,42.0,48.0,390.0,5.0,0.0
6014,66.0,60.0,60.0,1.0,0.0
6015,54.0,0.0,60.0,10.0,0.0
6016,40.0,0.0,180.0,2.0,0.0
6017,66.0,0.0,60.0,0.0,0.0
6018,28.0,0.0,180.0,14.0,0.0
6019,54.0,0.0,60.0,11.0,0.0
6020,52.0,0.0,180.0,12.0,0.0
6021,64.0,60.0,60.0,1.0,0.0
6022,52.0,0.0,60.0,11.0,0.0
6023,64.0,0.0,60.0,0.0,0.0
6024,52.0,0.0,60.0,10.0,0.0
6025,66.0,0.0,60.0,0.0,0.0
6026,54.0,12.0,60.0,10.0,0.0
6027,54.0,0.0,60.0,11.0,0.0
6028,66.0,0.0,60.0,1.0,0.0
6029,64.0,0.0,60.0,0.0,0.0
6030,52.0,0.0,60.0,11.0,0.0
6031,52.0,0.0,60.0,10.0,0.0
6032,64.0,120.0,60.0,1.0,0.0
6033,63.0,24.0,120.0,0.0,0.0
6034,51.0,0.0,120.0,11.0,0.0
6035,28.0,24.0,180.0,14.0,0.0
6036,40.0,0.0,180.0,2.0,0.0
6037,40.0,0.0,180.0,13.0,0.0
6038,51.0,0.0,120.0,10.0,0.0
6039,63.0,0.0,120.0,1.0,0.0
6040,52.0,0.0,180.0,12.0,0.0
6041,52.0,120.0,90.0,11.0,0.0
6042,64.0,0.0,90.0,0.0,0.0
6043,64.0,0.0,90.0,1.0,0.0
6044,52.0,0.0,90.0,10.0,0.0
6045,51.0,96.0,90.0,10.0,0.0
6046,51.0,0.0,180.0,12.0,0.0
6047,27.0,0.0,180.0,14.0,0.0
6048,51.0,0.0,90.0,11.0,0.0
6049,63.0,24.0,180.0,1.0,0.0
6050,47.0,48.0,390.0,5.0,0.0
6051,39.0,0.0,180.0,13.0,0.0
6052,39.0,0.0,180.0,2.0,0.0
6053,63.0,0.0,180.0,0.0,0.0
6054,51.0,0.0,90.0,11.0,0.0
6055,51.0,120.0,90.0,10.0,0.0
6056,51.0,48.0,90.0,10.0,0.0
6057,51.0,0.0,180.0,12.0,0.0
6058,39.0,0.0,180.0,13.0,0.0
6059,51.0,0.0,90.0,11.0,0.0
6060,78.0,0.0,180.0,0.0,0.0
6061,27.0,24.0,180.0,14.0,0.0
6062,66.0,0.0,180.0,1.0,0.0
6063,54.0,0.0,180.0,1.0,0.0
6064,42.0,0.0,180.0,2.0,0.0
6065,51.0,0.0,90.0,11.0,0.0
6066,51.0,120.0,90.0,10.0,0.0
6067,42.0,0.0,180.0,2.0,0.0
6068,63.0,0.0,90.0,11.0,0.0
6069,39.0,0.0,180.0,14.0,0.0
6070,75.0,48.0,390.0,4.0,0.0
6071,66.0,0.0,180.0,1.0,0.0
6072,63.0,0.0,390.0,4.0,0.0
6073,54.0,0.0,180.0,1.0,0.0
6074,51.0,0.0,390.0,3.0,0.0
6075,63.0,0.0,180.0,12.0,0.0
6076,63.0,0.0,390.0,3.0,0.0
6077,78.0,24.0,180.0,0.0,0.0
6078,51.0,0.0,180.0,13.0,0.0
6079,63.0,96.0,90.0,10.0,0.0
6080,63.0,120.0,90.0,11.0,0.0
6081,63.0,0.0,90.0,10.0,0.0
6082,78.0,24.0,180.0,0.0,0.0
6083,51.0,0.0,180.0,13.0,0.0
6084,39.0,0.0,180.0,14.0,0.0
6085,42.0,0.0,180.0,2.0,0.0
6086,63.0,48.0,90.0,10.0,0.0
6087,66.0,0.0,180.0,1.0,0.0
6088,63.0,0.0,180.0,12.0,0.0
6089,54.0,0.0,180.0,1.0,0.0
6090,63.0,0.0,90.0,11.0,0.0
6091,63.0,0.0,90.0,10.0,0.0
6092,63.0,120.0,90.0,11.0,0.0
6093,71.0,0.0,390.0,4.0,0.0
6094,59.0,0.0,390.0,4.0,0.0
6095,78.0,0.0,180.0,0.0,0.0
6096,59.0,0.0,180.0,12.0,0.0
6097,59.0,0.0,90.0,10.0,0.0
6098,47.0,24.0,180.0,13.0,0.0
6099,54.0,0.0,180.0,1.0,0.0
6100,66.0,0.0,180.0,1.0,0.0
6101,59.0,96.0,90.0,11.0,0.0
6102,47.0,0.0,390.0,3.0,0.0
6103,59.0,48.0,390.0,3.0,0.0
6104,42.0,0.0,180.0,2.0,0.0
6105,35.0,0.0,180.0,14.0,0.0
6106,59.0,0.0,90.0,10.0,0.0
6107,59.0,120.0,90.0,11.0,0.0
6108,54.0,0.0,180.0,1.0,0.0
6109,47.0,24.0,180.0,13.0,0.0
6110,42.0,0.0,180.0,2.0,0.0
6111,66.0,0.0,180.0,1.0,0.0
6112,59.0,0.0,90.0,11.0,0.0
6113,78.0,0.0,180.0,0.0,0.0
6114,59.0,0.0,180.0,12.0,0.0
6115,35.0,0.0,180.0,14.0,0.0
6116,59.0,48.0,90.0,10.0,0.0
6117,59.0,120.0,90.0,10.0,0.0
6118,59.0,0.0,90.0,11.0,0.0
6119,42.0,48.0,390.0,5.0,0.0
6120,54.0,0.0,180.0,1.0,0.0
6121,42.0,0.0,180.0,13.0,0.0
6122,66.0,0.0,180.0,1.0,0.0
6123,78.0,24.0,180.0,0.0,0.0
6124,54.0,0.0,180.0,12.0,0.0
6125,54.0,0.0,90.0,10.0,0.0
6126,54.0,0.0,1140.0,3.0,0.0
6127,42.0,0.0,1140.0,3.0,0.0
6128,66.0,0.0,1140.0,4.0,0.0
6129,54.0,0.0,1140.0,4.0,0.0
6130,42.0,0.0,180.0,2.0,0.0
6131,54.0,96.0,90.0,11.0,0.0
6132,30.0,0.0,180.0,14.0,0.0
6133,54.0,0.0,90.0,10.0,0.0
6134,54.0,120.0,90.0,11.0,0.0
6135,42.0,24.0,180.0,13.0,0.0
6136,42.0,0.0,180.0,2.0,0.0
6137,54.0,0.0,90.0,11.0,0.0
6138,54.0,48.0,90.0,10.0,0.0
6139,78.0,0.0,180.0,0.0,0.0
6140,54.0,0.0,180.0,1.0,0.0
6141,30.0,0.0,180.0,14.0,0.0
6142,54.0,0.0,180.0,12.0,0.0
6143,66.0,0.0,180.0,1.0,0.0
6144,54.0,120.0,90.0,11.0,0.0
6145,54.0,0.0,90.0,10.0,0.0
6146,53.0,0.0,90.0,10.0,0.0
6147,78.0,0.0,180.0,0.0,0.0
6148,41.0,0.0,180.0,13.0,0.0
6149,54.0,24.0,180.0,1.0,0.0
6150,53.0,0.0,180.0,12.0,0.0
6151,66.0,0.0,180.0,1.0,0.0
6152,42.0,48.0,390.0,5.0,0.0
6153,42.0,0.0,180.0,2.0,0.0
6154,53.0,96.0,90.0,11.0,0.0
6155,29.0,0.0,180.0,14.0,0.0
6156,53.0,0.0,90.0,10.0,0.0
6157,53.0,120.0,90.0,11.0,0.0
6158,53.0,48.0,90.0,10.0,0.0
6159,29.0,0.0,180.0,14.0,0.0
6160,53.0,0.0,90.0,11.0,0.0
6161,42.0,24.0,180.0,2.0,0.0
6162,41.0,0.0,180.0,13.0,0.0
6163,53.0,0.0,180.0,12.0,0.0
6164,54.0,0.0,180.0,1.0,0.0
6165,78.0,0.0,180.0,0.0,0.0
6166,66.0,0.0,180.0,1.0,0.0
6167,53.0,120.0,90.0,11.0,0.0
6168,53.0,0.0,90.0,10.0,0.0
6169,28.0,24.0,180.0,14.0,0.0
6170,52.0,0.0,180.0,12.0,0.0
6171,52.0,96.0,90.0,10.0,0.0
6172,40.0,0.0,180.0,13.0,0.0
6173,78.0,0.0,180.0,0.0,0.0
6174,42.0,0.0,180.0,2.0,0.0
6175,52.0,0.0,90.0,11.0,0.0
6176,66.0,0.0,180.0,1.0,0.0
6177,54.0,0.0,180.0,1.0,0.0
6178,42.0,48.0,390.0,5.0,0.0
6179,52.0,0.0,90.0,11.0,0.0
6180,52.0,120.0,90.0,10.0,0.0
6181,66.0,24.0,180.0,1.0,0.0
6182,54.0,0.0,180.0,1.0,0.0
6183,28.0,0.0,180.0,14.0,0.0
6184,40.0,0.0,180.0,13.0,0.0
6185,52.0,0.0,90.0,11.0,0.0
6186,42.0,0.0,180.0,2.0,0.0
6187,52.0,48.0,90.0,10.0,0.0
6188,78.0,0.0,180.0,0.0,0.0
6189,52.0,0.0,180.0,12.0,0.0
6190,52.0,120.0,90.0,10.0,0.0
6191,52.0,0.0,90.0,11.0,0.0
6192,66.0,0.0,180.0,1.0,0.0
6193,54.0,0.0,180.0,1.0,0.0
6194,42.0,0.0,180.0,2.0,0.0
6195,51.0,0.0,180.0,12.0,0.0
6196,54.0,0.0,390.0,4.0,0.0
6197,51.0,0.0,90.0,11.0,0.0
6198,54.0,0.0,390.0,3.0,0.0
6199,42.0,0.0,390.0,3.0,0.0
6200,66.0,0.0,390.0,4.0,0.0
6201,27.0,0.0,180.0,14.0,0.0
6202,51.0,96.0,90.0,10.0,0.0
6203,78.0,24.0,180.0,0.0,0.0
6204,47.0,48.0,390.0,5.0,0.0
6205,39.0,0.0,180.0,13.0,0.0
6206,51.0,0.0,90.0,10.0,0.0
6207,51.0,120.0,90.0,11.0,0.0
6208,39.0,24.0,180.0,13.0,0.0
6209,27.0,0.0,180.0,14.0,0.0
6210,51.0,0.0,90.0,10.0,0.0
6211,51.0,0.0,180.0,12.0,0.0
6212,54.0,0.0,180.0,2.0,0.0
6213,42.0,0.0,180.0,2.0,0.0
6214,78.0,0.0,180.0,1.0,0.0
6215,78.0,0.0,180.0,0.0,0.0
6216,51.0,48.0,90.0,11.0,0.0
6217,66.0,0.0,180.0,1.0,0.0
6218,51.0,120.0,90.0,11.0,0.0
6219,51.0,0.0,90.0,10.0,0.0
6220,59.0,0.0,390.0,3.0,0.0
6221,47.0,48.0,390.0,3.0,0.0
6222,59.0,0.0,90.0,10.0,0.0
6223,47.0,0.0,180.0,13.0,0.0
6224,35.0,0.0,180.0,14.0,0.0
6225,59.0,0.0,390.0,4.0,0.0
6226,78.0,0.0,180.0,1.0,0.0
6227,66.0,0.0,180.0,1.0,0.0
6228,78.0,0.0,180.0,0.0,0.0
6229,54.0,0.0,180.0,2.0,0.0
6230,59.0,24.0,180.0,12.0,0.0
6231,71.0,0.0,390.0,4.0,0.0
6232,59.0,96.0,90.0,11.0,0.0
6233,42.0,0.0,180.0,2.0,0.0
6234,59.0,0.0,90.0,11.0,0.0
6235,59.0,120.0,90.0,10.0,0.0
6236,66.0,0.0,180.0,1.0,0.0
6237,78.0,0.0,180.0,1.0,0.0
6238,78.0,24.0,180.0,0.0,0.0
6239,59.0,48.0,90.0,10.0,0.0
6240,47.0,0.0,180.0,13.0,0.0
6241,59.0,0.0,180.0,12.0,0.0
6242,35.0,0.0,180.0,14.0,0.0
6243,54.0,0.0,180.0,2.0,0.0
6244,42.0,0.0,180.0,2.0,0.0
6245,59.0,0.0,90.0,11.0,0.0
6246,59.0,120.0,90.0,10.0,0.0
6247,59.0,0.0,90.0,11.0,0.0
6248,78.0,0.0,180.0,1.0,0.0
6249,42.0,0.0,180.0,2.0,0.0
6250,78.0,0.0,180.0,0.0,0.0
6251,63.0,0.0,390.0,3.0,0.0
6252,66.0,0.0,180.0,1.0,0.0
6253,39.0,24.0,180.0,14.0,0.0
6254,63.0,0.0,390.0,4.0,0.0
6255,75.0,0.0,390.0,4.0,0.0
6256,63.0,0.0,180.0,12.0,0.0
6257,51.0,48.0,390.0,3.0,0.0
6258,51.0,0.0,180.0,13.0,0.0
6259,63.0,96.0,90.0,11.0,0.0
6260,54.0,0.0,180.0,2.0,0.0
6261,63.0,0.0,90.0,10.0,0.0
6262,63.0,0.0,90.0,10.0,0.0
6263,63.0,120.0,90.0,11.0,0.0
6264,63.0,0.0,90.0,11.0,0.0
6265,54.0,0.0,180.0,2.0,0.0
6266,66.0,0.0,180.0,1.0,0.0
6267,78.0,0.0,180.0,1.0,0.0
6268,63.0,48.0,90.0,10.0,0.0
6269,51.0,0.0,180.0,13.0,0.0
6270,78.0,0.0,180.0,0.0,0.0
6271,63.0,0.0,180.0,12.0,0.0
6272,42.0,24.0,180.0,2.0,0.0
6273,39.0,0.0,180.0,14.0,0.0
6274,63.0,120.0,90.0,10.0,0.0
6275,63.0,0.0,90.0,11.0,0.0
6276,78.0,0.0,180.0,0.0,0.0
6277,42.0,0.0,180.0,2.0,0.0
6278,54.0,0.0,180.0,2.0,0.0
6279,42.0,0.0,180.0,14.0,0.0
6280,66.0,96.0,90.0,11.0,0.0
6281,54.0,0.0,180.0,13.0,0.0
6282,66.0,0.0,90.0,10.0,0.0
6283,66.0,48.0,390.0,3.0,0.0
6284,54.0,0.0,390.0,3.0,0.0
6285,66.0,24.0,180.0,12.0,0.0
6286,66.0,0.0,390.0,4.0,0.0
6287,78.0,0.0,390.0,4.0,0.0
6288,42.0,0.0,390.0,5.0,0.0
6289,66.0,0.0,180.0,1.0,0.0
6290,78.0,0.0,180.0,1.0,0.0
6291,66.0,120.0,90.0,11.0,0.0
6292,66.0,0.0,90.0,10.0,0.0
6293,78.0,0.0,180.0,1.0,0.0
6294,42.0,0.0,180.0,14.0,0.0
6295,54.0,0.0,180.0,2.0,0.0
6296,42.0,24.0,180.0,2.0,0.0
6297,66.0,0.0,180.0,1.0,0.0
6298,66.0,0.0,90.0,10.0,0.0
6299,78.0,0.0,180.0,0.0,0.0
6300,66.0,0.0,180.0,12.0,0.0
6301,66.0,48.0,90.0,11.0,0.0
6302,54.0,0.0,180.0,13.0,0.0
6303,66.0,0.0,90.0,11.0,0.0
6304,66.0,120.0,90.0,10.0,0.0
6305,66.0,0.0,180.0,1.0,0.0
6306,78.0,0.0,180.0,1.0,0.0
6307,54.0,0.0,390.0,3.0,0.0
6308,66.0,48.0,390.0,3.0,0.0
6309,42.0,0.0,390.0,5.0,0.0
6310,41.0,24.0,180.0,14.0,0.0
6311,53.0,0.0,180.0,13.0,0.0
6312,65.0,96.0,90.0,10.0,0.0
6313,78.0,0.0,390.0,4.0,0.0
6314,42.0,0.0,180.0,2.0,0.0
6315,54.0,0.0,180.0,2.0,0.0
6316,65.0,0.0,180.0,12.0,0.0
6317,66.0,0.0,390.0,4.0,0.0
6318,65.0,0.0,90.0,11.0,0.0
6319,78.0,0.0,180.0,0.0,0.0
6320,65.0,120.0,90.0,11.0,0.0
6321,65.0,0.0,90.0,10.0,0.0
6322,53.0,0.0,180.0,13.0,0.0
6323,42.0,24.0,180.0,2.0,0.0
6324,54.0,0.0,180.0,2.0,0.0
6325,78.0,0.0,180.0,0.0,0.0
6326,65.0,48.0,90.0,11.0,0.0
6327,65.0,0.0,180.0,12.0,0.0
6328,41.0,0.0,180.0,14.0,0.0
6329,78.0,0.0,180.0,1.0,0.0
6330,66.0,0.0,180.0,1.0,0.0
6331,65.0,0.0,90.0,10.0,0.0
6332,65.0,0.0,90.0,10.0,0.0
6333,65.0,120.0,90.0,11.0,0.0
6334,52.0,0.0,180.0,13.0,0.0
6335,66.0,48.0,390.0,4.0,0.0
6336,42.0,0.0,180.0,2.0,0.0
6337,66.0,0.0,180.0,1.0,0.0
6338,64.0,0.0,90.0,10.0,0.0
6339,54.0,0.0,180.0,2.0,0.0
6340,64.0,96.0,90.0,11.0,0.0
6341,64.0,0.0,180.0,12.0,0.0
6342,42.0,0.0,390.0,5.0,0.0
6343,66.0,0.0,390.0,3.0,0.0
6344,78.0,0.0,180.0,0.0,0.0
6345,54.0,0.0,390.0,3.0,0.0
6346,78.0,0.0,390.0,4.0,0.0
6347,40.0,0.0,180.0,14.0,0.0
6348,78.0,24.0,180.0,1.0,0.0
6349,64.0,0.0,90.0,11.0,0.0
6350,64.0,120.0,90.0,10.0,0.0
6351,66.0,24.0,180.0,1.0,0.0
6352,78.0,0.0,180.0,1.0,0.0
6353,42.0,0.0,180.0,2.0,0.0
6354,54.0,0.0,180.0,2.0,0.0
6355,78.0,0.0,180.0,0.0,0.0
6356,64.0,0.0,90.0,11.0,0.0
6357,64.0,48.0,90.0,10.0,0.0
6358,40.0,0.0,180.0,14.0,0.0
6359,64.0,0.0,180.0,12.0,0.0
6360,52.0,0.0,180.0,13.0,0.0
6361,64.0,204.0,90.0,10.0,0.0
6362,64.0,0.0,90.0,11.0,0.0
6363,78.0,36.0,390.0,1.0,0.0
6364,66.0,0.0,390.0,1.0,0.0
6365,63.0,204.0,180.0,10.0,0.0
6366,63.0,0.0,180.0,11.0,0.0
6367,59.0,0.0,390.0,4.0,0.0
6368,39.0,0.0,390.0,14.0,0.0
6369,42.0,0.0,390.0,2.0,0.0
6370,54.0,0.0,390.0,2.0,0.0
6371,47.0,0.0,390.0,5.0,0.0
6372,63.0,0.0,390.0,12.0,0.0
6373,47.0,0.0,390.0,3.0,0.0
6374,59.0,0.0,390.0,3.0,0.0
6375,71.0,0.0,390.0,4.0,0.0
6376,51.0,0.0,390.0,13.0,0.0
6377,78.0,0.0,390.0,0.0,0.0
6378,83.0,0.0,180.0,11.0,0.0
6379,83.0,240.0,180.0,10.0,0.0
6380,83.0,240.0,180.0,10.0,0.0
6381,83.0,0.0,180.0,11.0,0.0
6382,83.0,0.0,180.0,11.0,0.0
6383,83.0,240.0,180.0,10.0,0.0
6384,83.0,0.0,180.0,10.0,0.0
6385,83.0,240.0,180.0,11.0,0.0
6386,83.0,0.0,180.0,10.0,0.0
6387,83.0,444.0,180.0,11.0,0.0
6388,71.0,0.0,390.0,4.0,0.0
6389,83.0,24.0,1380.0,10.0,0.0
6390,83.0,0.0,1380.0,11.0,0.0
6391,59.0,48.0,390.0,4.0,0.0
6392,47.0,0.0,390.0,5.0,0.0
6393,51.0,0.0,180.0,2.0,0.0
6394,54.0,0.0,180.0,12.0,0.0
6395,39.0,0.0,180.0,14.0,0.0
6396,47.0,0.0,180.0,3.0,0.0
6397,54.0,0.0,180.0,2.0,0.0
6398,59.0,0.0,180.0,3.0,0.0
6399,78.0,0.0,180.0,1.0,0.0
6400,51.0,0.0,180.0,13.0,0.0
6401,83.0,240.0,180.0,0.0,0.0
6402,75.0,0.0,180.0,1.0,0.0
6403,59.0,0.0,180.0,3.0,0.0
6404,47.0,0.0,180.0,3.0,0.0
6405,75.0,0.0,180.0,1.0,0.0
6406,54.0,0.0,180.0,2.0,0.0
6407,51.0,240.0,180.0,2.0,0.0
6408,39.0,0.0,180.0,14.0,0.0
6409,83.0,0.0,180.0,0.0,0.0
6410,78.0,0.0,180.0,1.0,0.0
6411,51.0,0.0,180.0,13.0,0.0
6412,54.0,0.0,180.0,12.0,0.0
6413,75.0,0.0,180.0,1.0,0.0
6414,78.0,0.0,180.0,1.0,0.0
6415,83.0,0.0,180.0,0.0,0.0
6416,39.0,0.0,180.0,14.0,0.0
6417,47.0,0.0,180.0,3.0,0.0
6418,54.0,0.0,180.0,2.0,0.0
6419,51.0,0.0,180.0,13.0,0.0
6420,54.0,0.0,180.0,12.0,0.0
6421,59.0,0.0,180.0,3.0,0.0
6422,51.0,240.0,180.0,2.0,0.0
6423,83.0,0.0,180.0,0.0,0.0
6424,51.0,0.0,180.0,13.0,0.0
6425,47.0,0.0,180.0,3.0,0.0
6426,51.0,0.0,180.0,2.0,0.0
6427,54.0,216.0,180.0,2.0,0.0
6428,54.0,0.0,180.0,12.0,0.0
6429,75.0,0.0,180.0,1.0,0.0
6430,39.0,0.0,180.0,14.0,0.0
6431,59.0,0.0,180.0,3.0,0.0
6432,78.0,0.0,180.0,1.0,0.0
6433,54.0,0.0,180.0,12.0,0.0
6434,59.0,0.0,180.0,3.0,0.0
6435,51.0,0.0,180.0,13.0,0.0
6436,78.0,0.0,180.0,1.0,0.0
6437,75.0,0.0,180.0,1.0,0.0
6438,47.0,0.0,180.0,3.0,0.0
6439,83.0,240.0,180.0,0.0,0.0
6440,51.0,0.0,180.0,2.0,0.0
6441,54.0,0.0,180.0,2.0,0.0
6442,39.0,0.0,180.0,14.0,0.0
6443,56.0,0.0,180.0,2.0,0.0
6444,52.0,0.0,180.0,2.0,0.0
6445,52.0,0.0,180.0,13.0,0.0
6446,76.0,192.0,180.0,1.0,0.0
6447,73.0,0.0,180.0,1.0,0.0
6448,83.0,0.0,180.0,0.0,0.0
6449,47.0,0.0,390.0,5.0,0.0
6450,52.0,48.0,390.0,11.0,0.0
6451,59.0,0.0,390.0,4.0,0.0
6452,71.0,0.0,390.0,4.0,0.0
6453,56.0,0.0,180.0,12.0,0.0
6454,52.0,0.0,390.0,10.0,0.0
6455,47.0,0.0,180.0,3.0,0.0
6456,40.0,0.0,180.0,14.0,0.0
6457,59.0,0.0,180.0,3.0,0.0
6458,83.0,0.0,180.0,0.0,0.0
6459,52.0,0.0,180.0,13.0,0.0
6460,40.0,240.0,180.0,14.0,0.0
6461,76.0,0.0,180.0,1.0,0.0
6462,52.0,0.0,180.0,2.0,0.0
6463,59.0,0.0,180.0,3.0,0.0
6464,73.0,0.0,180.0,1.0,0.0
6465,56.0,0.0,180.0,12.0,0.0
6466,56.0,0.0,180.0,2.0,0.0
6467,47.0,0.0,180.0,3.0,0.0
6468,73.0,0.0,180.0,1.0,0.0
6469,47.0,0.0,180.0,3.0,0.0
6470,59.0,0.0,180.0,3.0,0.0
6471,80.0,0.0,390.0,11.0,0.0
6472,76.0,0.0,180.0,1.0,0.0
6473,80.0,48.0,390.0,10.0,0.0
6474,56.0,0.0,180.0,12.0,0.0
6475,52.0,0.0,180.0,13.0,0.0
6476,56.0,0.0,180.0,2.0,0.0
6477,52.0,0.0,180.0,2.0,0.0
6478,40.0,192.0,180.0,14.0,0.0
6479,83.0,0.0,180.0,0.0,0.0
6480,56.0,240.0,180.0,2.0,0.0
6481,76.0,0.0,180.0,1.0,0.0
6482,73.0,0.0,180.0,1.0,0.0
6483,52.0,0.0,180.0,13.0,0.0
6484,52.0,0.0,180.0,2.0,0.0
6485,47.0,0.0,180.0,3.0,0.0
6486,59.0,0.0,180.0,3.0,0.0
6487,40.0,0.0,180.0,14.0,0.0
6488,83.0,0.0,180.0,0.0,0.0
6489,56.0,0.0,180.0,12.0,0.0
6490,52.0,0.0,180.0,2.0,0.0
6491,76.0,0.0,180.0,1.0,0.0
6492,73.0,240.0,180.0,1.0,0.0
6493,40.0,0.0,180.0,14.0,0.0
6494,56.0,0.0,180.0,2.0,0.0
6495,47.0,0.0,180.0,3.0,0.0
6496,83.0,0.0,180.0,0.0,0.0
6497,59.0,0.0,180.0,3.0,0.0
6498,56.0,0.0,180.0,12.0,0.0
6499,52.0,0.0,180.0,13.0,0.0
6500,56.0,0.0,180.0,12.0,0.0
6501,56.0,0.0,180.0,2.0,0.0
6502,52.0,0.0,180.0,2.0,0.0
6503,40.0,0.0,180.0,14.0,0.0
6504,59.0,0.0,180.0,3.0,0.0
6505,76.0,0.0,180.0,1.0,0.0
6506,73.0,0.0,180.0,1.0,0.0
6507,52.0,0.0,180.0,13.0,0.0
6508,83.0,240.0,180.0,0.0,0.0
6509,47.0,0.0,180.0,3.0,0.0
6510,66.0,0.0,390.0,4.0,0.0
6511,54.0,0.0,180.0,13.0,0.0
6512,58.0,0.0,180.0,12.0,0.0
6513,82.0,0.0,180.0,0.0,0.0
6514,54.0,0.0,180.0,2.0,0.0
6515,61.0,0.0,180.0,2.0,0.0
6516,54.0,0.0,390.0,11.0,0.0
6517,42.0,0.0,390.0,5.0,0.0
6518,54.0,48.0,390.0,4.0,0.0
6519,76.0,0.0,180.0,1.0,0.0
6520,73.0,0.0,180.0,1.0,0.0
6521,54.0,0.0,390.0,10.0,0.0
6522,42.0,0.0,180.0,3.0,0.0
6523,42.0,0.0,180.0,14.0,0.0
6524,54.0,192.0,180.0,3.0,0.0
6525,54.0,0.0,180.0,2.0,0.0
6526,76.0,240.0,180.0,1.0,0.0
6527,73.0,0.0,180.0,1.0,0.0
6528,42.0,0.0,180.0,14.0,0.0
6529,54.0,0.0,180.0,3.0,0.0
6530,54.0,0.0,180.0,13.0,0.0
6531,58.0,0.0,180.0,12.0,0.0
6532,42.0,0.0,180.0,3.0,0.0
6533,61.0,0.0,180.0,2.0,0.0
6534,82.0,0.0,180.0,0.0,0.0
6535,73.0,0.0,180.0,1.0,0.0
6536,76.0,0.0,570.0,10.0,0.0
6537,61.0,0.0,180.0,2.0,0.0
6538,54.0,0.0,180.0,2.0,0.0
6539,42.0,0.0,180.0,14.0,0.0
6540,54.0,0.0,180.0,13.0,0.0
6541,82.0,0.0,180.0,0.0,0.0
6542,54.0,0.0,180.0,3.0,0.0
6543,76.0,96.0,570.0,11.0,0.0
6544,58.0,0.0,180.0,12.0,0.0
6545,76.0,0.0,180.0,1.0,0.0
6546,42.0,240.0,180.0,3.0,0.0
6547,82.0,0.0,180.0,0.0,0.0
6548,58.0,144.0,180.0,12.0,0.0
6549,76.0,0.0,180.0,1.0,0.0
6550,73.0,0.0,180.0,1.0,0.0
6551,42.0,0.0,180.0,14.0,0.0
6552,61.0,0.0,180.0,2.0,0.0
6553,54.0,0.0,180.0,3.0,0.0
6554,54.0,0.0,180.0,2.0,0.0
6555,42.0,0.0,180.0,3.0,0.0
6556,54.0,0.0,180.0,13.0,0.0
6557,82.0,0.0,180.0,0.0,0.0
6558,61.0,0.0,180.0,2.0,0.0
6559,54.0,0.0,180.0,3.0,0.0
6560,58.0,0.0,180.0,12.0,0.0
6561,54.0,0.0,180.0,2.0,0.0
6562,54.0,0.0,180.0,13.0,0.0
6563,73.0,240.0,180.0,1.0,0.0
6564,76.0,0.0,180.0,1.0,0.0
6565,42.0,0.0,180.0,14.0,0.0
6566,42.0,0.0,180.0,3.0,0.0
6567,42.0,0.0,180.0,14.0,0.0
6568,82.0,0.0,180.0,0.0,0.0
6569,54.0,0.0,180.0,2.0,0.0
6570,54.0,0.0,180.0,3.0,0.0
6571,58.0,0.0,180.0,12.0,0.0
6572,76.0,0.0,180.0,10.0,0.0
6573,54.0,168.0,180.0,13.0,0.0
6574,61.0,0.0,180.0,2.0,0.0
6575,76.0,0.0,180.0,1.0,0.0
6576,42.0,0.0,180.0,3.0,0.0
6577,76.0,0.0,180.0,11.0,0.0
6578,73.0,0.0,180.0,1.0,0.0
6579,56.0,0.0,180.0,2.0,0.0
6580,56.0,0.0,180.0,13.0,0.0
6581,71.0,0.0,390.0,4.0,0.0
6582,47.0,0.0,180.0,3.0,0.0
6583,59.0,192.0,180.0,3.0,0.0
6584,74.0,72.0,120.0,10.0,0.0
6585,59.0,0.0,180.0,12.0,0.0
6586,47.0,0.0,390.0,5.0,0.0
6587,83.0,0.0,180.0,0.0,0.0
6588,74.0,0.0,120.0,11.0,0.0
6589,59.0,0.0,180.0,2.0,0.0
6590,59.0,24.0,390.0,4.0,0.0
6591,75.0,0.0,180.0,1.0,0.0
6592,44.0,0.0,180.0,14.0,0.0
6593,71.0,0.0,180.0,1.0,0.0
6594,75.0,24.0,300.0,10.0,0.0
6595,75.0,0.0,300.0,11.0,0.0
6596,75.0,0.0,180.0,1.0,0.0
6597,59.0,0.0,180.0,2.0,0.0
6598,56.0,240.0,180.0,2.0,0.0
6599,56.0,0.0,180.0,13.0,0.0
6600,44.0,0.0,180.0,14.0,0.0
6601,47.0,0.0,180.0,3.0,0.0
6602,59.0,0.0,180.0,12.0,0.0
6603,83.0,0.0,180.0,0.0,0.0
6604,71.0,0.0,180.0,1.0,0.0
6605,59.0,0.0,180.0,3.0,0.0
6606,71.0,0.0,180.0,1.0,0.0
6607,75.0,192.0,180.0,1.0,0.0
6608,47.0,0.0,390.0,5.0,0.0
6609,75.0,0.0,390.0,10.0,0.0
6610,71.0,0.0,390.0,4.0,0.0
6611,47.0,0.0,180.0,3.0,0.0
6612,44.0,0.0,180.0,14.0,0.0
6613,75.0,48.0,390.0,11.0,0.0
6614,59.0,0.0,180.0,3.0,0.0
6615,59.0,0.0,180.0,12.0,0.0
6616,83.0,0.0,180.0,0.0,0.0
6617,56.0,0.0,180.0,13.0,0.0
6618,59.0,0.0,390.0,4.0,0.0
6619,59.0,0.0,180.0,2.0,0.0
6620,56.0,0.0,180.0,2.0,0.0
6621,56.0,0.0,180.0,2.0,0.0
6622,59.0,0.0,180.0,2.0,0.0
6623,83.0,0.0,180.0,0.0,0.0
6624,56.0,0.0,180.0,13.0,0.0
6625,71.0,0.0,180.0,1.0,0.0
6626,47.0,0.0,180.0,3.0,0.0
6627,59.0,0.0,180.0,3.0,0.0
6628,75.0,240.0,180.0,1.0,0.0
6629,44.0,0.0,180.0,14.0,0.0
6630,59.0,0.0,180.0,12.0,0.0
6631,56.0,0.0,180.0,2.0,0.0
6632,47.0,48.0,390.0,5.0,0.0
6633,59.0,0.0,180.0,3.0,0.0
6634,47.0,0.0,180.0,3.0,0.0
6635,83.0,0.0,180.0,0.0,0.0
6636,59.0,0.0,180.0,2.0,0.0
6637,71.0,0.0,180.0,1.0,0.0
6638,75.0,192.0,180.0,1.0,0.0
6639,71.0,0.0,390.0,4.0,0.0
6640,59.0,0.0,390.0,4.0,0.0
6641,59.0,0.0,180.0,12.0,0.0
6642,56.0,0.0,180.0,13.0,0.0
6643,44.0,0.0,180.0,14.0,0.0
6644,56.0,0.0,180.0,13.0,0.0
6645,44.0,0.0,180.0,14.0,0.0
6646,59.0,0.0,180.0,12.0,0.0
6647,71.0,0.0,180.0,1.0,0.0
6648,83.0,0.0,180.0,0.0,0.0
6649,75.0,0.0,180.0,1.0,0.0
6650,56.0,432.0,180.0,2.0,0.0
6651,59.0,0.0,180.0,3.0,0.0
6652,47.0,0.0,180.0,3.0,0.0
6653,59.0,0.0,180.0,2.0,0.0
6654,45.0,0.0,1380.0,14.0,0.0
6655,57.0,0.0,1380.0,13.0,0.0
6656,47.0,36.0,390.0,5.0,0.0
6657,63.0,0.0,1380.0,12.0,0.0
6658,78.0,0.0,1380.0,1.0,0.0
6659,75.0,12.0,1380.0,1.0,0.0
6660,57.0,0.0,1380.0,2.0,0.0
6661,63.0,0.0,1380.0,2.0,0.0
6662,83.0,0.0,1380.0,0.0,0.0
6663,59.0,0.0,1380.0,3.0,0.0
6664,47.0,0.0,1380.0,3.0,0.0
6665,59.0,0.0,1380.0,4.0,0.0
6666,71.0,0.0,1380.0,4.0,0.0
6667,83.0,0.0,180.0,11.0,0.0
6668,83.0,240.0,180.0,10.0,0.0
6669,83.0,240.0,180.0,10.0,0.0
6670,83.0,0.0,180.0,11.0,0.0
6671,83.0,0.0,180.0,10.0,0.0
6672,83.0,240.0,180.0,11.0,0.0
6673,83.0,228.0,180.0,10.0,0.0
6674,83.0,0.0,180.0,11.0,0.0
6675,83.0,0.0,180.0,10.0,0.0
6676,83.0,444.0,180.0,11.0,0.0
6677,83.0,0.0,1380.0,10.0,0.0
6678,83.0,24.0,1380.0,11.0,0.0
6679,59.0,0.0,390.0,4.0,0.0
6680,47.0,0.0,390.0,5.0,0.0
6681,71.0,48.0,390.0,4.0,0.0
6682,47.0,0.0,180.0,3.0,0.0
6683,56.0,0.0,180.0,13.0,0.0
6684,64.0,0.0,180.0,12.0,0.0
6685,83.0,0.0,180.0,0.0,0.0
6686,44.0,0.0,180.0,14.0,0.0
6687,56.0,0.0,180.0,2.0,0.0
6688,59.0,0.0,180.0,2.0,0.0
6689,76.0,0.0,180.0,1.0,0.0
6690,59.0,240.0,180.0,3.0,0.0
6691,71.0,0.0,180.0,1.0,0.0
6692,59.0,240.0,180.0,3.0,0.0
6693,47.0,0.0,180.0,3.0,0.0
6694,64.0,0.0,180.0,12.0,0.0
6695,56.0,0.0,180.0,13.0,0.0
6696,59.0,0.0,180.0,2.0,0.0
6697,44.0,0.0,180.0,14.0,0.0
6698,76.0,0.0,180.0,1.0,0.0
6699,71.0,0.0,180.0,1.0,0.0
6700,83.0,0.0,180.0,0.0,0.0
6701,56.0,0.0,180.0,2.0,0.0
6702,59.0,0.0,180.0,3.0,0.0
6703,56.0,0.0,180.0,2.0,0.0
6704,59.0,0.0,180.0,2.0,0.0
6705,76.0,0.0,180.0,1.0,0.0
6706,44.0,0.0,180.0,14.0,0.0
6707,83.0,0.0,180.0,0.0,0.0
6708,71.0,240.0,180.0,1.0,0.0
6709,56.0,0.0,180.0,13.0,0.0
6710,64.0,0.0,180.0,12.0,0.0
6711,47.0,0.0,180.0,3.0,0.0
6712,71.0,0.0,180.0,1.0,0.0
6713,76.0,0.0,180.0,1.0,0.0
6714,83.0,0.0,180.0,0.0,0.0
6715,44.0,0.0,180.0,14.0,0.0
6716,64.0,0.0,180.0,12.0,0.0
6717,47.0,216.0,180.0,3.0,0.0
6718,56.0,0.0,180.0,13.0,0.0
6719,59.0,0.0,180.0,3.0,0.0
6720,56.0,0.0,180.0,2.0,0.0
6721,59.0,0.0,180.0,2.0,0.0
6722,47.0,0.0,180.0,3.0,0.0
6723,59.0,0.0,180.0,3.0,0.0
6724,59.0,0.0,180.0,2.0,0.0
6725,71.0,0.0,180.0,1.0,0.0
6726,56.0,0.0,180.0,2.0,0.0
6727,56.0,0.0,180.0,13.0,0.0
6728,44.0,0.0,180.0,14.0,0.0
6729,64.0,240.0,180.0,12.0,0.0
6730,83.0,0.0,180.0,0.0,0.0
6731,76.0,0.0,180.0,1.0,0.0
6732,53.0,48.0,390.0,10.0,0.0
6733,74.0,0.0,180.0,1.0,0.0
6734,83.0,0.0,180.0,0.0,0.0
6735,41.0,0.0,180.0,14.0,0.0
6736,53.0,0.0,180.0,13.0,0.0
6737,53.0,0.0,390.0,11.0,0.0
6738,62.0,0.0,180.0,12.0,0.0
6739,80.0,0.0,180.0,1.0,0.0
6740,47.0,0.0,390.0,5.0,0.0
6741,59.0,0.0,390.0,4.0,0.0
6742,56.0,0.0,180.0,2.0,0.0
6743,71.0,0.0,390.0,4.0,0.0
6744,47.0,0.0,180.0,3.0,0.0
6745,59.0,0.0,180.0,3.0,0.0
6746,62.0,192.0,180.0,2.0,0.0
6747,41.0,0.0,180.0,14.0,0.0
6748,47.0,0.0,180.0,3.0,0.0
6749,83.0,240.0,180.0,0.0,0.0
6750,62.0,0.0,180.0,12.0,0.0
6751,80.0,0.0,180.0,1.0,0.0
6752,59.0,0.0,180.0,3.0,0.0
6753,56.0,0.0,180.0,2.0,0.0
6754,62.0,0.0,180.0,2.0,0.0
6755,74.0,0.0,180.0,1.0,0.0
6756,53.0,0.0,180.0,13.0,0.0
6757,80.0,0.0,390.0,11.0,0.0
6758,74.0,0.0,180.0,1.0,0.0
6759,41.0,0.0,180.0,14.0,0.0
6760,83.0,0.0,180.0,0.0,0.0
6761,62.0,0.0,180.0,12.0,0.0
6762,53.0,0.0,180.0,13.0,0.0
6763,80.0,0.0,180.0,1.0,0.0
6764,62.0,0.0,180.0,2.0,0.0
6765,56.0,192.0,180.0,2.0,0.0
6766,47.0,0.0,180.0,3.0,0.0
6767,80.0,48.0,390.0,10.0,0.0
6768,59.0,0.0,390.0,4.0,0.0
6769,59.0,0.0,180.0,3.0,0.0
6770,71.0,0.0,390.0,4.0,0.0
6771,47.0,0.0,390.0,5.0,0.0
6772,53.0,0.0,180.0,13.0,0.0
6773,83.0,240.0,180.0,0.0,0.0
6774,41.0,0.0,180.0,14.0,0.0
6775,56.0,0.0,180.0,2.0,0.0
6776,59.0,0.0,180.0,3.0,0.0
6777,47.0,0.0,180.0,3.0,0.0
6778,62.0,0.0,180.0,2.0,0.0
6779,74.0,0.0,180.0,1.0,0.0
6780,80.0,0.0,180.0,1.0,0.0
6781,62.0,0.0,180.0,12.0,0.0
6782,59.0,0.0,390.0,4.0,0.0
6783,41.0,0.0,180.0,14.0,0.0
6784,71.0,0.0,390.0,4.0,0.0
6785,62.0,0.0,180.0,2.0,0.0
6786,53.0,0.0,180.0,13.0,0.0
6787,83.0,0.0,180.0,0.0,0.0
6788,47.0,48.0,390.0,5.0,0.0
6789,59.0,0.0,180.0,3.0,0.0
6790,47.0,0.0,180.0,3.0,0.0
6791,80.0,192.0,180.0,1.0,0.0
6792,62.0,0.0,180.0,12.0,0.0
6793,56.0,0.0,180.0,2.0,0.0
6794,74.0,0.0,180.0,1.0,0.0
6795,41.0,0.0,180.0,14.0,0.0
6796,59.0,0.0,180.0,3.0,0.0
6797,47.0,0.0,180.0,3.0,0.0
6798,56.0,0.0,180.0,2.0,0.0
6799,53.0,0.0,180.0,13.0,0.0
6800,83.0,204.0,180.0,0.0,0.0
6801,74.0,0.0,180.0,1.0,0.0
6802,62.0,0.0,180.0,12.0,0.0
6803,62.0,0.0,180.0,2.0,0.0
6804,80.0,0.0,180.0,1.0,0.0
6805,54.0,0.0,390.0,13.0,0.0
6806,63.0,0.0,390.0,12.0,0.0
6807,78.0,0.0,390.0,1.0,0.0
6808,42.0,0.0,390.0,5.0,0.0
6809,66.0,0.0,390.0,3.0,0.0
6810,54.0,0.0,390.0,3.0,0.0
6811,63.0,0.0,390.0,2.0,0.0
6812,54.0,0.0,390.0,2.0,0.0
6813,75.0,0.0,390.0,1.0,0.0
6814,78.0,0.0,150.0,10.0,0.0
6815,42.0,0.0,390.0,14.0,0.0
6816,59.0,0.0,390.0,4.0,0.0
6817,71.0,12.0,390.0,4.0,0.0
6818,78.0,228.0,150.0,11.0,0.0
6819,83.0,0.0,390.0,0.0,0.0
6820,75.0,0.0,150.0,11.0,0.0
6821,75.0,240.0,150.0,10.0,0.0
6822,71.0,0.0,150.0,11.0,0.0
6823,71.0,240.0,150.0,10.0,0.0
6824,66.0,0.0,150.0,11.0,0.0
6825,66.0,240.0,150.0,10.0,0.0
6826,63.0,240.0,150.0,11.0,0.0
6827,63.0,0.0,150.0,10.0,0.0
6828,59.0,0.0,150.0,10.0,0.0
6829,59.0,444.0,150.0,11.0,0.0
6830,54.0,0.0,360.0,11.0,0.0
6831,54.0,384.0,360.0,10.0,0.0
6832,63.0,0.0,270.0,3.0,0.0
6833,71.0,0.0,270.0,1.0,0.0
6834,42.0,0.0,270.0,14.0,0.0
6835,59.0,0.0,270.0,3.0,0.0
6836,75.0,0.0,270.0,1.0,0.0
6837,54.0,0.0,270.0,2.0,0.0
6838,66.0,0.0,270.0,12.0,0.0
6839,66.0,0.0,270.0,4.0,0.0
6840,66.0,0.0,270.0,11.0,0.0
6841,59.0,0.0,270.0,11.0,0.0
6842,75.0,0.0,270.0,11.0,0.0
6843,73.0,0.0,270.0,0.0,0.0
6844,42.0,0.0,270.0,5.0,0.0
6845,54.0,480.0,270.0,4.0,0.0
6846,75.0,0.0,270.0,10.0,0.0
6847,59.0,0.0,270.0,10.0,0.0
6848,66.0,0.0,270.0,10.0,0.0
6849,54.0,0.0,270.0,13.0,0.0
6850,73.0,0.0,270.0,11.0,0.0
6851,66.0,0.0,270.0,11.0,0.0
6852,70.0,0.0,270.0,1.0,0.0
6853,73.0,0.0,270.0,1.0,0.0
6854,66.0,360.0,270.0,4.0,0.0
6855,54.0,0.0,270.0,4.0,0.0
6856,58.0,0.0,270.0,11.0,0.0
6857,73.0,0.0,270.0,10.0,0.0
6858,54.0,0.0,270.0,3.0,0.0
6859,61.0,0.0,270.0,3.0,0.0
6860,30.0,0.0,270.0,14.0,0.0
6861,54.0,0.0,270.0,12.0,0.0
6862,66.0,0.0,270.0,10.0,0.0
6863,58.0,0.0,270.0,10.0,0.0
6864,42.0,0.0,270.0,13.0,0.0
6865,42.0,0.0,270.0,2.0,0.0
6866,42.0,0.0,270.0,5.0,0.0
6867,73.0,0.0,270.0,0.0,0.0
6868,51.0,0.0,150.0,12.0,0.0
6869,59.0,0.0,390.0,11.0,0.0
6870,59.0,0.0,390.0,10.0,0.0
6871,71.0,0.0,1260.0,11.0,0.0
6872,63.0,24.0,360.0,4.0,0.0
6873,59.0,0.0,360.0,3.0,0.0
6874,51.0,0.0,360.0,3.0,0.0
6875,51.0,0.0,390.0,11.0,0.0
6876,71.0,0.0,360.0,1.0,0.0
6877,59.0,0.0,360.0,4.0,0.0
6878,47.0,216.0,150.0,13.0,0.0
6879,35.0,0.0,150.0,14.0,0.0
6880,51.0,0.0,390.0,10.0,0.0
6881,47.0,0.0,390.0,5.0,0.0
6882,71.0,0.0,360.0,0.0,0.0
6883,71.0,72.0,1260.0,10.0,0.0
6884,47.0,0.0,150.0,2.0,0.0
6885,54.0,240.0,150.0,12.0,0.0
6886,39.0,0.0,150.0,14.0,0.0
6887,51.0,0.0,150.0,13.0,0.0
6888,51.0,0.0,150.0,2.0,0.0
6889,71.0,0.0,360.0,4.0,0.0
6890,51.0,0.0,150.0,12.0,0.0
6891,35.0,216.0,150.0,14.0,0.0
6892,47.0,0.0,150.0,13.0,0.0
6893,78.0,0.0,360.0,0.0,0.0
6894,47.0,240.0,390.0,5.0,0.0
6895,59.0,24.0,360.0,4.0,0.0
6896,66.0,0.0,360.0,1.0,0.0
6897,47.0,0.0,360.0,3.0,0.0
6898,59.0,0.0,360.0,3.0,0.0
6899,47.0,0.0,150.0,2.0,0.0
6900,75.0,0.0,360.0,1.0,0.0
6901,51.0,0.0,150.0,2.0,0.0
6902,51.0,0.0,150.0,13.0,0.0
6903,39.0,0.0,150.0,14.0,0.0
6904,54.0,0.0,150.0,12.0,0.0
6905,47.0,144.0,150.0,2.0,0.0
6906,78.0,24.0,360.0,0.0,0.0
6907,51.0,0.0,150.0,12.0,0.0
6908,59.0,0.0,360.0,4.0,0.0
6909,71.0,0.0,360.0,4.0,0.0
6910,47.0,0.0,150.0,13.0,0.0
6911,35.0,0.0,150.0,14.0,0.0
6912,59.0,0.0,360.0,3.0,0.0
6913,47.0,0.0,360.0,3.0,0.0
6914,75.0,0.0,360.0,1.0,0.0
6915,66.0,0.0,360.0,1.0,0.0
6916,47.0,0.0,390.0,5.0,0.0
6917,39.0,0.0,150.0,14.0,0.0
6918,51.0,0.0,150.0,2.0,0.0
6919,54.0,216.0,150.0,12.0,0.0
6920,51.0,0.0,150.0,13.0,0.0
6921,78.0,120.0,120.0,10.0,0.0
6922,47.0,96.0,390.0,5.0,0.0
6923,59.0,0.0,1140.0,3.0,0.0
6924,35.0,0.0,1140.0,14.0,0.0
6925,59.0,48.0,1140.0,4.0,0.0
6926,71.0,0.0,1140.0,4.0,0.0
6927,47.0,0.0,1140.0,3.0,0.0
6928,78.0,0.0,1140.0,0.0,0.0
6929,47.0,0.0,1140.0,13.0,0.0
6930,47.0,0.0,1140.0,2.0,0.0
6931,51.0,0.0,1140.0,12.0,0.0
6932,66.0,0.0,1140.0,1.0,0.0
6933,78.0,0.0,120.0,11.0,0.0
6934,75.0,0.0,1140.0,1.0,0.0
6935,76.0,120.0,120.0,10.0,0.0
6936,76.0,0.0,120.0,11.0,0.0
6937,75.0,0.0,120.0,10.0,0.0
6938,75.0,24.0,120.0,11.0,0.0
6939,73.0,0.0,120.0,10.0,0.0
6940,73.0,120.0,120.0,11.0,0.0
6941,71.0,0.0,120.0,11.0,0.0
6942,71.0,120.0,120.0,10.0,0.0
6943,70.0,120.0,120.0,10.0,0.0
6944,70.0,0.0,120.0,11.0,0.0
6945,68.0,120.0,120.0,11.0,0.0
6946,68.0,0.0,120.0,10.0,0.0
6947,66.0,120.0,120.0,10.0,0.0
6948,66.0,0.0,120.0,11.0,0.0
6949,64.0,72.0,120.0,10.0,0.0
6950,64.0,0.0,120.0,11.0,0.0
6951,63.0,120.0,120.0,10.0,0.0
6952,63.0,0.0,120.0,11.0,0.0
6953,61.0,0.0,120.0,11.0,0.0
6954,61.0,96.0,120.0,10.0,0.0
6955,59.0,0.0,90.0,11.0,0.0
6956,59.0,168.0,90.0,10.0,0.0
6957,79.0,0.0,390.0,0.0,0.0
6958,61.0,0.0,390.0,3.0,0.0
6959,49.0,0.0,150.0,2.0,0.0
6960,58.0,0.0,1140.0,11.0,0.0
6961,76.0,0.0,390.0,1.0,0.0
6962,64.0,0.0,390.0,3.0,0.0
6963,67.0,0.0,390.0,1.0,0.0
6964,49.0,0.0,150.0,13.0,0.0
6965,73.0,0.0,390.0,4.0,0.0
6966,76.0,0.0,390.0,4.0,0.0
6967,67.0,192.0,1140.0,11.0,0.0
6968,64.0,0.0,150.0,12.0,0.0
6969,37.0,240.0,150.0,14.0,0.0
6970,67.0,0.0,1140.0,10.0,0.0
6971,58.0,0.0,1140.0,10.0,0.0
6972,40.0,0.0,150.0,14.0,0.0
6973,61.0,0.0,150.0,12.0,0.0
6974,52.0,240.0,150.0,2.0,0.0
6975,52.0,0.0,150.0,13.0,0.0
6976,49.0,0.0,150.0,13.0,0.0
6977,49.0,0.0,150.0,2.0,0.0
6978,76.0,0.0,390.0,4.0,0.0
6979,73.0,0.0,390.0,4.0,0.0
6980,76.0,0.0,390.0,1.0,0.0
6981,64.0,240.0,150.0,12.0,0.0
6982,67.0,0.0,390.0,1.0,0.0
6983,64.0,0.0,390.0,3.0,0.0
6984,79.0,0.0,390.0,0.0,0.0
6985,37.0,0.0,150.0,14.0,0.0
6986,61.0,0.0,390.0,3.0,0.0
6987,61.0,0.0,150.0,12.0,0.0
6988,52.0,240.0,150.0,13.0,0.0
6989,40.0,0.0,150.0,14.0,0.0
6990,52.0,0.0,150.0,2.0,0.0
6991,64.0,0.0,390.0,3.0,0.0
6992,61.0,0.0,390.0,3.0,0.0
6993,49.0,48.0,150.0,13.0,0.0
6994,67.0,0.0,390.0,1.0,0.0
6995,64.0,0.0,150.0,12.0,0.0
6996,76.0,0.0,390.0,4.0,0.0
6997,73.0,0.0,390.0,4.0,0.0
6998,49.0,0.0,150.0,2.0,0.0
6999,76.0,0.0,390.0,1.0,0.0
7000,37.0,0.0,150.0,14.0,0.0
7001,79.0,0.0,390.0,0.0,0.0
7002,52.0,216.0,150.0,2.0,0.0
7003,52.0,0.0,150.0,13.0,0.0
7004,61.0,0.0,150.0,12.0,0.0
7005,40.0,0.0,150.0,14.0,0.0
7006,79.0,0.0,1140.0,0.0,0.0
7007,49.0,48.0,1140.0,2.0,0.0
7008,49.0,0.0,1140.0,13.0,0.0
7009,67.0,0.0,1140.0,12.0,0.0
7010,61.0,0.0,1140.0,3.0,0.0
7011,64.0,0.0,1140.0,3.0,0.0
7012,67.0,0.0,1140.0,1.0,0.0
7013,76.0,120.0,120.0,11.0,0.0
7014,37.0,0.0,1140.0,14.0,0.0
7015,73.0,0.0,1140.0,4.0,0.0
7016,76.0,0.0,1140.0,1.0,0.0
7017,76.0,0.0,1140.0,4.0,0.0
7018,76.0,0.0,120.0,10.0,0.0
7019,75.0,0.0,120.0,11.0,0.0
7020,75.0,120.0,120.0,10.0,0.0
7021,73.0,120.0,120.0,10.0,0.0
7022,73.0,0.0,120.0,11.0,0.0
7023,71.0,0.0,120.0,10.0,0.0
7024,71.0,120.0,120.0,11.0,0.0
7025,70.0,0.0,120.0,10.0,0.0
7026,70.0,120.0,120.0,11.0,0.0
7027,68.0,0.0,120.0,10.0,0.0
7028,68.0,120.0,120.0,11.0,0.0
7029,67.0,0.0,120.0,10.0,0.0
7030,67.0,120.0,120.0,11.0,0.0
7031,64.0,0.0,120.0,10.0,0.0
7032,64.0,120.0,120.0,11.0,0.0
7033,63.0,0.0,120.0,10.0,0.0
7034,63.0,72.0,120.0,11.0,0.0
7035,61.0,0.0,120.0,11.0,0.0
7036,61.0,120.0,120.0,10.0,0.0
7037,59.0,96.0,120.0,11.0,0.0
7038,59.0,0.0,120.0,10.0,0.0
7039,58.0,168.0,90.0,11.0,0.0
7040,58.0,0.0,90.0,10.0,0.0
7041,75.0,0.0,390.0,1.0,0.0
7042,59.0,0.0,390.0,3.0,0.0
7043,63.0,240.0,150.0,12.0,0.0
7044,47.0,0.0,150.0,2.0,0.0
7045,80.0,0.0,390.0,0.0,0.0
7046,59.0,0.0,1140.0,11.0,0.0
7047,68.0,0.0,1140.0,11.0,0.0
7048,47.0,0.0,390.0,5.0,0.0
7049,63.0,0.0,390.0,3.0,0.0
7050,71.0,0.0,390.0,4.0,0.0
7051,35.0,0.0,150.0,14.0,0.0
7052,68.0,0.0,1140.0,10.0,0.0
7053,59.0,192.0,1140.0,10.0,0.0
7054,68.0,0.0,390.0,1.0,0.0
7055,47.0,0.0,150.0,13.0,0.0
7056,75.0,240.0,390.0,4.0,0.0
7057,51.0,0.0,150.0,2.0,0.0
7058,39.0,0.0,150.0,14.0,0.0
7059,51.0,0.0,150.0,13.0,0.0
7060,59.0,0.0,150.0,12.0,0.0
7061,47.0,0.0,150.0,13.0,0.0
7062,80.0,0.0,390.0,0.0,0.0
7063,47.0,0.0,390.0,5.0,0.0
7064,35.0,0.0,150.0,14.0,0.0
7065,68.0,240.0,390.0,1.0,0.0
7066,63.0,240.0,150.0,12.0,0.0
7067,75.0,0.0,390.0,4.0,0.0
7068,75.0,0.0,390.0,1.0,0.0
7069,71.0,0.0,390.0,4.0,0.0
7070,63.0,0.0,390.0,3.0,0.0
7071,47.0,0.0,150.0,2.0,0.0
7072,59.0,0.0,390.0,3.0,0.0
7073,51.0,0.0,150.0,2.0,0.0
7074,51.0,0.0,150.0,13.0,0.0
7075,39.0,0.0,150.0,14.0,0.0
7076,59.0,0.0,150.0,12.0,0.0
7077,47.0,0.0,390.0,5.0,0.0
7078,35.0,48.0,150.0,14.0,0.0
7079,75.0,0.0,390.0,4.0,0.0
7080,59.0,216.0,390.0,3.0,0.0
7081,71.0,0.0,390.0,4.0,0.0
7082,63.0,0.0,390.0,3.0,0.0
7083,80.0,0.0,390.0,0.0,0.0
7084,75.0,0.0,390.0,1.0,0.0
7085,63.0,0.0,150.0,12.0,0.0
7086,47.0,0.0,150.0,2.0,0.0
7087,68.0,0.0,390.0,1.0,0.0
7088,47.0,0.0,150.0,13.0,0.0
7089,39.0,0.0,150.0,14.0,0.0
7090,51.0,0.0,150.0,13.0,0.0
7091,51.0,0.0,150.0,2.0,0.0
7092,59.0,0.0,150.0,12.0,0.0
7093,75.0,0.0,1140.0,4.0,0.0
7094,47.0,0.0,1140.0,13.0,0.0
7095,68.0,0.0,1140.0,1.0,0.0
7096,75.0,0.0,1140.0,1.0,0.0
7097,68.0,0.0,1140.0,12.0,0.0
7098,80.0,0.0,1140.0,0.0,0.0
7099,47.0,0.0,1140.0,2.0,0.0
7100,59.0,0.0,1140.0,3.0,0.0
7101,75.0,0.0,120.0,11.0,0.0
7102,47.0,96.0,390.0,5.0,0.0
7103,35.0,48.0,1140.0,14.0,0.0
7104,71.0,0.0,1140.0,4.0,0.0
7105,63.0,0.0,1140.0,3.0,0.0
7106,75.0,120.0,120.0,10.0,0.0
7107,73.0,120.0,120.0,11.0,0.0
7108,73.0,0.0,120.0,10.0,0.0
7109,71.0,24.0,120.0,11.0,0.0
7110,71.0,0.0,120.0,10.0,0.0
7111,70.0,120.0,120.0,10.0,0.0
7112,70.0,0.0,120.0,11.0,0.0
7113,68.0,120.0,120.0,11.0,0.0
7114,68.0,0.0,120.0,10.0,0.0
7115,66.0,120.0,120.0,10.0,0.0
7116,66.0,0.0,120.0,11.0,0.0
7117,64.0,0.0,120.0,11.0,0.0
7118,64.0,120.0,120.0,10.0,0.0
7119,63.0,0.0,120.0,11.0,0.0
7120,63.0,120.0,120.0,10.0,0.0
7121,61.0,72.0,120.0,10.0,0.0
7122,61.0,0.0,120.0,11.0,0.0
7123,59.0,120.0,120.0,11.0,0.0
7124,59.0,0.0,120.0,10.0,0.0
7125,58.0,96.0,120.0,10.0,0.0
7126,58.0,0.0,120.0,11.0,0.0
7127,56.0,168.0,90.0,10.0,0.0
7128,56.0,0.0,90.0,11.0,0.0
7129,56.0,240.0,150.0,12.0,0.0
7130,77.0,0.0,390.0,0.0,0.0
7131,65.0,192.0,1140.0,11.0,0.0
7132,65.0,0.0,390.0,1.0,0.0
7133,47.0,0.0,150.0,13.0,0.0
7134,47.0,0.0,150.0,2.0,0.0
7135,61.0,0.0,1140.0,11.0,0.0
7136,61.0,0.0,390.0,3.0,0.0
7137,68.0,0.0,390.0,1.0,0.0
7138,65.0,0.0,1140.0,10.0,0.0
7139,35.0,0.0,150.0,14.0,0.0
7140,59.0,240.0,390.0,3.0,0.0
7141,61.0,0.0,1140.0,10.0,0.0
7142,73.0,0.0,390.0,4.0,0.0
7143,71.0,0.0,390.0,4.0,0.0
7144,47.0,0.0,390.0,5.0,0.0
7145,49.0,0.0,150.0,13.0,0.0
7146,37.0,0.0,150.0,14.0,0.0
7147,53.0,0.0,150.0,12.0,0.0
7148,49.0,0.0,150.0,2.0,0.0
7149,47.0,0.0,150.0,13.0,0.0
7150,56.0,240.0,150.0,12.0,0.0
7151,47.0,0.0,390.0,5.0,0.0
7152,35.0,0.0,150.0,14.0,0.0
7153,68.0,0.0,390.0,1.0,0.0
7154,65.0,0.0,390.0,1.0,0.0
7155,61.0,0.0,390.0,3.0,0.0
7156,71.0,0.0,390.0,4.0,0.0
7157,73.0,0.0,390.0,4.0,0.0
7158,59.0,0.0,390.0,3.0,0.0
7159,77.0,0.0,390.0,0.0,0.0
7160,47.0,0.0,150.0,2.0,0.0
7161,49.0,0.0,150.0,2.0,0.0
7162,37.0,0.0,150.0,14.0,0.0
7163,53.0,0.0,150.0,12.0,0.0
7164,49.0,240.0,150.0,13.0,0.0
7165,47.0,0.0,150.0,13.0,0.0
7166,56.0,48.0,150.0,12.0,0.0
7167,47.0,0.0,390.0,5.0,0.0
7168,73.0,216.0,390.0,4.0,0.0
7169,68.0,0.0,390.0,1.0,0.0
7170,65.0,0.0,390.0,1.0,0.0
7171,35.0,0.0,150.0,14.0,0.0
7172,71.0,0.0,390.0,4.0,0.0
7173,61.0,0.0,390.0,3.0,0.0
7174,59.0,0.0,390.0,3.0,0.0
7175,47.0,0.0,150.0,2.0,0.0
7176,77.0,0.0,390.0,0.0,0.0
7177,37.0,0.0,150.0,14.0,0.0
7178,53.0,0.0,150.0,12.0,0.0
7179,49.0,0.0,150.0,13.0,0.0
7180,49.0,0.0,150.0,2.0,0.0
7181,80.0,0.0,120.0,10.0,0.0
7182,80.0,120.0,120.0,11.0,0.0
7183,65.0,48.0,1140.0,12.0,0.0
7184,44.0,0.0,1140.0,2.0,0.0
7185,77.0,0.0,1140.0,0.0,0.0
7186,59.0,0.0,1140.0,3.0,0.0
7187,47.0,96.0,390.0,5.0,0.0
7188,61.0,0.0,1140.0,3.0,0.0
7189,44.0,0.0,1140.0,13.0,0.0
7190,65.0,0.0,1140.0,1.0,0.0
7191,68.0,0.0,1140.0,1.0,0.0
7192,71.0,0.0,1140.0,4.0,0.0
7193,73.0,0.0,1140.0,4.0,0.0
7194,32.0,0.0,1140.0,14.0,0.0
7195,78.0,0.0,120.0,10.0,0.0
7196,78.0,120.0,120.0,11.0,0.0
7197,77.0,0.0,120.0,10.0,0.0
7198,77.0,24.0,120.0,11.0,0.0
7199,75.0,120.0,120.0,10.0,0.0
7200,75.0,0.0,120.0,11.0,0.0
7201,73.0,120.0,120.0,11.0,0.0
7202,73.0,0.0,120.0,10.0,0.0
7203,71.0,120.0,120.0,11.0,0.0
7204,71.0,0.0,120.0,10.0,0.0
7205,70.0,120.0,120.0,10.0,0.0
7206,70.0,0.0,120.0,11.0,0.0
7207,68.0,0.0,120.0,11.0,0.0
7208,68.0,120.0,120.0,10.0,0.0
7209,66.0,0.0,120.0,10.0,0.0
7210,66.0,72.0,120.0,11.0,0.0
7211,65.0,120.0,120.0,10.0,0.0
7212,65.0,0.0,120.0,11.0,0.0
7213,63.0,96.0,120.0,11.0,0.0
7214,63.0,0.0,120.0,10.0,0.0
7215,61.0,0.0,90.0,10.0,0.0
7216,61.0,168.0,90.0,11.0,0.0
7217,61.0,0.0,390.0,3.0,0.0
7218,46.0,240.0,150.0,13.0,0.0
7219,46.0,0.0,150.0,2.0,0.0
7220,42.0,0.0,390.0,5.0,0.0
7221,61.0,0.0,150.0,12.0,0.0
7222,66.0,0.0,390.0,1.0,0.0
7223,66.0,0.0,1140.0,11.0,0.0
7224,54.0,0.0,390.0,3.0,0.0
7225,78.0,0.0,390.0,0.0,0.0
7226,58.0,0.0,1140.0,10.0,0.0
7227,66.0,0.0,1140.0,10.0,0.0
7228,34.0,0.0,150.0,14.0,0.0
7229,70.0,0.0,390.0,1.0,0.0
7230,73.0,0.0,390.0,4.0,0.0
7231,66.0,0.0,390.0,4.0,0.0
7232,58.0,192.0,1140.0,11.0,0.0
7233,37.0,0.0,150.0,14.0,0.0
7234,58.0,0.0,150.0,12.0,0.0
7235,49.0,240.0,150.0,13.0,0.0
7236,49.0,0.0,150.0,2.0,0.0
7237,54.0,240.0,390.0,3.0,0.0
7238,61.0,0.0,390.0,3.0,0.0
7239,66.0,0.0,390.0,1.0,0.0
7240,34.0,0.0,150.0,14.0,0.0
7241,70.0,0.0,390.0,1.0,0.0
7242,73.0,0.0,390.0,4.0,0.0
7243,66.0,0.0,390.0,4.0,0.0
7244,78.0,0.0,390.0,0.0,0.0
7245,46.0,0.0,150.0,2.0,0.0
7246,42.0,0.0,390.0,5.0,0.0
7247,61.0,0.0,150.0,12.0,0.0
7248,46.0,240.0,150.0,13.0,0.0
7249,49.0,0.0,150.0,2.0,0.0
7250,58.0,0.0,150.0,12.0,0.0
7251,49.0,0.0,150.0,13.0,0.0
7252,37.0,0.0,150.0,14.0,0.0
7253,46.0,48.0,150.0,13.0,0.0
7254,66.0,0.0,390.0,4.0,0.0
7255,61.0,0.0,390.0,3.0,0.0
7256,42.0,0.0,390.0,5.0,0.0
7257,61.0,0.0,150.0,12.0,0.0
7258,54.0,0.0,390.0,3.0,0.0
7259,66.0,0.0,390.0,1.0,0.0
7260,46.0,0.0,150.0,2.0,0.0
7261,34.0,0.0,150.0,14.0,0.0
7262,70.0,0.0,390.0,1.0,0.0
7263,73.0,0.0,390.0,4.0,0.0
7264,78.0,216.0,390.0,0.0,0.0
7265,49.0,0.0,150.0,2.0,0.0
7266,49.0,0.0,150.0,13.0,0.0
7267,37.0,0.0,150.0,14.0,0.0
7268,58.0,0.0,150.0,12.0,0.0
7269,66.0,0.0,1140.0,12.0,0.0
7270,34.0,48.0,1140.0,14.0,0.0
7271,73.0,0.0,1140.0,4.0,0.0
7272,66.0,0.0,1140.0,4.0,0.0
7273,66.0,0.0,1140.0,1.0,0.0
7274,70.0,0.0,1140.0,1.0,0.0
7275,82.0,0.0,120.0,10.0,0.0
7276,46.0,0.0,1140.0,2.0,0.0
7277,54.0,0.0,1140.0,3.0,0.0
7278,78.0,0.0,1140.0,0.0,0.0
7279,46.0,0.0,1140.0,13.0,0.0
7280,42.0,96.0,390.0,5.0,0.0
7281,61.0,0.0,1140.0,3.0,0.0
7282,82.0,120.0,120.0,11.0,0.0
7283,80.0,120.0,120.0,10.0,0.0
7284,80.0,0.0,120.0,11.0,0.0
7285,78.0,0.0,120.0,11.0,0.0
7286,78.0,24.0,120.0,10.0,0.0
7287,77.0,120.0,120.0,10.0,0.0
7288,77.0,0.0,120.0,11.0,0.0
7289,78.0,120.0,120.0,11.0,0.0
7290,78.0,0.0,120.0,10.0,0.0
7291,77.0,120.0,120.0,11.0,0.0
7292,77.0,0.0,120.0,10.0,0.0
7293,75.0,120.0,120.0,10.0,0.0
7294,75.0,0.0,120.0,11.0,0.0
7295,73.0,120.0,120.0,11.0,0.0
7296,73.0,0.0,120.0,10.0,0.0
7297,71.0,72.0,120.0,10.0,0.0
7298,71.0,0.0,120.0,11.0,0.0
7299,70.0,120.0,120.0,10.0,0.0
7300,70.0,0.0,120.0,11.0,0.0
7301,68.0,0.0,120.0,11.0,0.0
7302,68.0,96.0,120.0,10.0,0.0
7303,66.0,168.0,90.0,11.0,0.0
7304,66.0,0.0,90.0,10.0,0.0
7305,66.0,0.0,150.0,12.0,0.0
7306,51.0,0.0,150.0,13.0,0.0
7307,66.0,0.0,390.0,4.0,0.0
7308,42.0,240.0,390.0,5.0,0.0
7309,54.0,0.0,390.0,3.0,0.0
7310,51.0,0.0,390.0,3.0,0.0
7311,84.0,0.0,390.0,0.0,0.0
7312,63.0,0.0,390.0,4.0,0.0
7313,39.0,0.0,150.0,14.0,0.0
7314,72.0,0.0,1140.0,11.0,0.0
7315,51.0,240.0,150.0,2.0,0.0
7316,66.0,0.0,1140.0,11.0,0.0
7317,78.0,0.0,390.0,1.0,0.0
7318,66.0,0.0,1140.0,10.0,0.0
7319,72.0,192.0,1140.0,10.0,0.0
7320,72.0,0.0,390.0,1.0,0.0
7321,54.0,0.0,150.0,2.0,0.0
7322,54.0,0.0,150.0,13.0,0.0
7323,63.0,0.0,150.0,12.0,0.0
7324,42.0,0.0,150.0,14.0,0.0
7325,39.0,0.0,150.0,14.0,0.0
7326,51.0,0.0,150.0,2.0,0.0
7327,66.0,240.0,150.0,12.0,0.0
7328,84.0,0.0,390.0,0.0,0.0
7329,42.0,0.0,390.0,5.0,0.0
7330,51.0,0.0,390.0,3.0,0.0
7331,72.0,0.0,390.0,1.0,0.0
7332,66.0,0.0,390.0,4.0,0.0
7333,63.0,240.0,390.0,4.0,0.0
7334,54.0,0.0,390.0,3.0,0.0
7335,78.0,0.0,390.0,1.0,0.0
7336,51.0,0.0,150.0,13.0,0.0
7337,63.0,0.0,150.0,12.0,0.0
7338,54.0,0.0,150.0,13.0,0.0
7339,54.0,0.0,150.0,2.0,0.0
7340,42.0,0.0,150.0,14.0,0.0
7341,63.0,0.0,390.0,4.0,0.0
7342,72.0,0.0,390.0,1.0,0.0
7343,78.0,0.0,390.0,1.0,0.0
7344,66.0,0.0,390.0,4.0,0.0
7345,66.0,48.0,150.0,12.0,0.0
7346,84.0,0.0,390.0,0.0,0.0
7347,51.0,0.0,150.0,13.0,0.0
7348,54.0,216.0,390.0,3.0,0.0
7349,51.0,0.0,390.0,3.0,0.0
7350,39.0,0.0,150.0,14.0,0.0
7351,51.0,0.0,150.0,2.0,0.0
7352,42.0,0.0,390.0,5.0,0.0
7353,63.0,0.0,150.0,12.0,0.0
7354,54.0,0.0,150.0,2.0,0.0
7355,54.0,0.0,150.0,13.0,0.0
7356,42.0,0.0,150.0,14.0,0.0
7357,78.0,0.0,120.0,11.0,0.0
7358,51.0,0.0,1140.0,3.0,0.0
7359,78.0,120.0,120.0,10.0,0.0
7360,60.0,0.0,960.0,12.0,0.0
7361,54.0,0.0,1140.0,3.0,0.0
7362,84.0,0.0,1140.0,0.0,0.0
7363,42.0,96.0,390.0,5.0,0.0
7364,39.0,48.0,1140.0,14.0,0.0
7365,78.0,0.0,1140.0,1.0,0.0
7366,51.0,0.0,1140.0,13.0,0.0
7367,51.0,0.0,1140.0,2.0,0.0
7368,72.0,0.0,1140.0,1.0,0.0
7369,63.0,0.0,1140.0,4.0,0.0
7370,66.0,0.0,1140.0,4.0,0.0
7371,77.0,0.0,120.0,11.0,0.0
7372,77.0,120.0,120.0,10.0,0.0
7373,75.0,24.0,120.0,10.0,0.0
7374,75.0,0.0,120.0,11.0,0.0
7375,73.0,120.0,120.0,11.0,0.0
7376,73.0,0.0,120.0,10.0,0.0
7377,72.0,120.0,120.0,10.0,0.0
7378,72.0,0.0,120.0,11.0,0.0
7379,70.0,120.0,120.0,11.0,0.0
7380,70.0,0.0,120.0,10.0,0.0
7381,68.0,120.0,120.0,10.0,0.0
7382,68.0,0.0,120.0,11.0,0.0
7383,66.0,0.0,120.0,11.0,0.0
7384,66.0,120.0,120.0,10.0,0.0
7385,65.0,0.0,120.0,10.0,0.0
7386,65.0,72.0,120.0,11.0,0.0
7387,54.0,72.0,390.0,12.0,0.0
7388,63.0,120.0,120.0,10.0,0.0
7389,63.0,0.0,120.0,11.0,0.0
7390,61.0,24.0,120.0,10.0,0.0
7391,61.0,0.0,120.0,11.0,0.0
7392,60.0,0.0,90.0,11.0,0.0
7393,60.0,120.0,90.0,10.0,0.0
7394,73.0,0.0,1140.0,1.0,0.0
7395,37.0,0.0,180.0,14.0,0.0
7396,49.0,0.0,180.0,13.0,0.0
7397,61.0,96.0,90.0,11.0,0.0
7398,61.0,0.0,90.0,10.0,0.0
7399,53.0,24.0,180.0,12.0,0.0
7400,61.0,72.0,1080.0,3.0,0.0
7401,73.0,48.0,390.0,4.0,0.0
7402,85.0,0.0,1140.0,0.0,0.0
7403,77.0,24.0,1140.0,1.0,0.0
7404,49.0,0.0,180.0,2.0,0.0
7405,61.0,120.0,90.0,10.0,0.0
7406,61.0,0.0,90.0,11.0,0.0
7407,56.0,0.0,180.0,12.0,0.0
7408,49.0,0.0,180.0,2.0,0.0
7409,65.0,48.0,90.0,10.0,0.0
7410,37.0,0.0,180.0,14.0,0.0
7411,49.0,24.0,180.0,13.0,0.0
7412,65.0,0.0,90.0,11.0,0.0
7413,65.0,0.0,90.0,11.0,0.0
7414,65.0,120.0,90.0,10.0,0.0
7415,37.0,0.0,180.0,14.0,0.0
7416,68.0,96.0,90.0,11.0,0.0
7417,49.0,0.0,180.0,2.0,0.0
7418,68.0,0.0,90.0,10.0,0.0
7419,49.0,24.0,180.0,13.0,0.0
7420,56.0,0.0,180.0,12.0,0.0
7421,68.0,120.0,90.0,10.0,0.0
7422,68.0,0.0,90.0,11.0,0.0
7423,37.0,0.0,180.0,14.0,0.0
7424,49.0,0.0,180.0,2.0,0.0
7425,73.0,96.0,90.0,10.0,0.0
7426,56.0,24.0,180.0,12.0,0.0
7427,73.0,0.0,90.0,11.0,0.0
7428,49.0,0.0,180.0,13.0,0.0
7429,73.0,120.0,90.0,10.0,0.0
7430,73.0,0.0,90.0,11.0,0.0
7431,77.0,0.0,90.0,11.0,0.0
7432,77.0,24.0,90.0,10.0,0.0
7433,49.0,0.0,180.0,2.0,0.0
7434,56.0,0.0,180.0,12.0,0.0
7435,37.0,0.0,180.0,14.0,0.0
7436,49.0,0.0,180.0,13.0,0.0
7437,77.0,0.0,90.0,10.0,0.0
7438,77.0,120.0,90.0,11.0,0.0
7439,56.0,0.0,180.0,12.0,0.0
7440,73.0,0.0,90.0,11.0,0.0
7441,49.0,0.0,180.0,2.0,0.0
7442,73.0,96.0,90.0,10.0,0.0
7443,37.0,0.0,180.0,14.0,0.0
7444,49.0,24.0,180.0,13.0,0.0
7445,73.0,120.0,90.0,10.0,0.0
7446,73.0,0.0,90.0,11.0,0.0
7447,63.0,0.0,180.0,12.0,0.0
7448,49.0,0.0,180.0,2.0,0.0
7449,72.0,96.0,90.0,11.0,0.0
7450,49.0,0.0,180.0,13.0,0.0
7451,72.0,0.0,90.0,10.0,0.0
7452,37.0,24.0,180.0,14.0,0.0
7453,61.0,72.0,1080.0,3.0,0.0
7454,78.0,0.0,1140.0,1.0,0.0
7455,72.0,0.0,1140.0,1.0,0.0
7456,84.0,0.0,1140.0,0.0,0.0
7457,72.0,0.0,90.0,10.0,0.0
7458,72.0,120.0,90.0,11.0,0.0
7459,78.0,0.0,90.0,11.0,0.0
7460,49.0,0.0,180.0,2.0,0.0
7461,37.0,0.0,180.0,14.0,0.0
7462,49.0,0.0,180.0,13.0,0.0
7463,78.0,96.0,90.0,10.0,0.0
7464,63.0,24.0,180.0,12.0,0.0
7465,78.0,0.0,90.0,10.0,0.0
7466,78.0,120.0,90.0,11.0,0.0
7467,75.0,96.0,90.0,11.0,0.0
7468,37.0,0.0,180.0,14.0,0.0
7469,49.0,24.0,180.0,13.0,0.0
7470,75.0,0.0,90.0,10.0,0.0
7471,63.0,0.0,180.0,12.0,0.0
7472,49.0,0.0,180.0,2.0,0.0
7473,75.0,0.0,90.0,10.0,0.0
7474,75.0,120.0,90.0,11.0,0.0
7475,49.0,24.0,180.0,2.0,0.0
7476,72.0,0.0,90.0,11.0,0.0
7477,72.0,96.0,90.0,10.0,0.0
7478,63.0,0.0,180.0,12.0,0.0
7479,49.0,0.0,180.0,13.0,0.0
7480,37.0,0.0,180.0,14.0,0.0
7481,72.0,0.0,90.0,11.0,0.0
7482,72.0,120.0,90.0,10.0,0.0
7483,37.0,0.0,180.0,14.0,0.0
7484,68.0,0.0,90.0,10.0,0.0
7485,63.0,0.0,180.0,12.0,0.0
7486,49.0,24.0,180.0,13.0,0.0
7487,68.0,24.0,90.0,11.0,0.0
7488,49.0,0.0,180.0,2.0,0.0
7489,68.0,120.0,90.0,10.0,0.0
7490,68.0,0.0,90.0,11.0,0.0
7491,37.0,0.0,180.0,14.0,0.0
7492,66.0,0.0,90.0,10.0,0.0
7493,49.0,24.0,180.0,13.0,0.0
7494,63.0,0.0,180.0,12.0,0.0
7495,49.0,0.0,180.0,2.0,0.0
7496,66.0,96.0,90.0,11.0,0.0
7497,66.0,0.0,90.0,11.0,0.0
7498,66.0,120.0,90.0,10.0,0.0
7499,61.0,72.0,1080.0,3.0,0.0
7500,77.0,0.0,1140.0,1.0,0.0
7501,73.0,48.0,390.0,4.0,0.0
7502,37.0,24.0,180.0,14.0,0.0
7503,49.0,0.0,180.0,13.0,0.0
7504,73.0,0.0,1140.0,1.0,0.0
7505,49.0,0.0,180.0,2.0,0.0
7506,65.0,0.0,90.0,11.0,0.0
7507,56.0,0.0,180.0,12.0,0.0
7508,65.0,96.0,90.0,10.0,0.0
7509,85.0,24.0,1140.0,0.0,0.0
7510,65.0,0.0,90.0,11.0,0.0
7511,65.0,120.0,90.0,10.0,0.0
7512,68.0,0.0,90.0,10.0,0.0
7513,56.0,0.0,180.0,12.0,0.0
7514,37.0,0.0,180.0,14.0,0.0
7515,68.0,48.0,90.0,11.0,0.0
7516,49.0,24.0,180.0,2.0,0.0
7517,49.0,0.0,180.0,13.0,0.0
7518,68.0,120.0,90.0,10.0,0.0
7519,68.0,0.0,90.0,11.0,0.0
7520,49.0,0.0,180.0,13.0,0.0
7521,73.0,0.0,90.0,10.0,0.0
7522,56.0,0.0,180.0,12.0,0.0
7523,37.0,0.0,180.0,14.0,0.0
7524,49.0,24.0,180.0,2.0,0.0
7525,73.0,96.0,90.0,11.0,0.0
7526,73.0,120.0,90.0,10.0,0.0
7527,73.0,0.0,90.0,11.0,0.0
7528,49.0,0.0,180.0,13.0,0.0
7529,37.0,24.0,180.0,14.0,0.0
7530,68.0,96.0,90.0,11.0,0.0
7531,56.0,0.0,180.0,12.0,0.0
7532,68.0,0.0,90.0,10.0,0.0
7533,49.0,0.0,180.0,2.0,0.0
7534,68.0,120.0,90.0,11.0,0.0
7535,68.0,0.0,90.0,10.0,0.0
7536,49.0,0.0,180.0,2.0,0.0
7537,37.0,0.0,180.0,14.0,0.0
7538,77.0,24.0,90.0,10.0,0.0
7539,56.0,0.0,180.0,12.0,0.0
7540,77.0,0.0,90.0,11.0,0.0
7541,49.0,0.0,180.0,13.0,0.0
7542,77.0,0.0,90.0,11.0,0.0
7543,77.0,120.0,90.0,10.0,0.0
7544,49.0,0.0,180.0,2.0,0.0
7545,73.0,96.0,90.0,11.0,0.0
7546,73.0,0.0,90.0,10.0,0.0
7547,49.0,0.0,180.0,13.0,0.0
7548,37.0,0.0,180.0,14.0,0.0
7549,56.0,24.0,180.0,12.0,0.0
7550,73.0,120.0,90.0,10.0,0.0
7551,73.0,0.0,90.0,11.0,0.0
7552,72.0,0.0,90.0,11.0,0.0
7553,72.0,96.0,90.0,10.0,0.0
7554,63.0,0.0,180.0,12.0,0.0
7555,49.0,0.0,180.0,13.0,0.0
7556,49.0,0.0,180.0,2.0,0.0
7557,61.0,72.0,1080.0,3.0,0.0
7558,37.0,24.0,180.0,14.0,0.0
7559,72.0,0.0,1140.0,1.0,0.0
7560,78.0,0.0,1140.0,1.0,0.0
7561,84.0,0.0,1140.0,0.0,0.0
7562,72.0,0.0,90.0,10.0,0.0
7563,72.0,120.0,90.0,11.0,0.0
7564,78.0,0.0,90.0,10.0,0.0
7565,49.0,0.0,180.0,13.0,0.0
7566,37.0,0.0,180.0,14.0,0.0
7567,63.0,24.0,180.0,12.0,0.0
7568,49.0,0.0,180.0,2.0,0.0
7569,78.0,96.0,90.0,11.0,0.0
7570,78.0,120.0,90.0,11.0,0.0
7571,78.0,0.0,90.0,10.0,0.0
7572,75.0,0.0,90.0,11.0,0.0
7573,75.0,96.0,90.0,10.0,0.0
7574,37.0,0.0,180.0,14.0,0.0
7575,49.0,0.0,180.0,13.0,0.0
7576,63.0,0.0,180.0,12.0,0.0
7577,49.0,24.0,180.0,2.0,0.0
7578,75.0,0.0,90.0,11.0,0.0
7579,75.0,120.0,90.0,10.0,0.0
7580,63.0,0.0,180.0,12.0,0.0
7581,49.0,24.0,180.0,13.0,0.0
7582,72.0,96.0,90.0,11.0,0.0
7583,49.0,0.0,180.0,2.0,0.0
7584,72.0,0.0,90.0,10.0,0.0
7585,37.0,0.0,180.0,14.0,0.0
7586,72.0,0.0,90.0,10.0,0.0
7587,72.0,120.0,90.0,11.0,0.0
7588,63.0,0.0,180.0,12.0,0.0
7589,68.0,24.0,90.0,11.0,0.0
7590,49.0,24.0,180.0,13.0,0.0
7591,49.0,0.0,180.0,2.0,0.0
7592,37.0,0.0,180.0,14.0,0.0
7593,68.0,0.0,90.0,10.0,0.0
7594,68.0,120.0,90.0,10.0,0.0
7595,68.0,0.0,90.0,11.0,0.0
7596,49.0,24.0,180.0,2.0,0.0
7597,66.0,0.0,90.0,11.0,0.0
7598,63.0,0.0,180.0,12.0,0.0
7599,49.0,0.0,180.0,13.0,0.0
7600,37.0,0.0,180.0,14.0,0.0
7601,66.0,96.0,90.0,10.0,0.0
7602,66.0,120.0,90.0,11.0,0.0
7603,66.0,0.0,90.0,10.0,0.0
7604,65.0,0.0,90.0,11.0,0.0
7605,73.0,0.0,180.0,1.0,0.0
7606,61.0,0.0,300.0,3.0,0.0
7607,77.0,0.0,180.0,1.0,0.0
7608,56.0,0.0,180.0,12.0,0.0
7609,85.0,0.0,180.0,0.0,0.0
7610,49.0,24.0,180.0,13.0,0.0
7611,49.0,0.0,180.0,2.0,0.0
7612,65.0,96.0,90.0,10.0,0.0
7613,73.0,48.0,300.0,4.0,0.0
7614,37.0,0.0,180.0,14.0,0.0
7615,65.0,72.0,90.0,10.0,0.0
7616,65.0,0.0,90.0,11.0,0.0
7617,61.0,96.0,90.0,11.0,0.0
7618,61.0,0.0,180.0,1.0,0.0
7619,37.0,0.0,180.0,14.0,0.0
7620,61.0,0.0,90.0,10.0,0.0
7621,49.0,0.0,180.0,2.0,0.0
7622,49.0,0.0,180.0,13.0,0.0
7623,49.0,24.0,180.0,12.0,0.0
7624,73.0,0.0,180.0,0.0,0.0
7625,61.0,120.0,90.0,10.0,0.0
7626,61.0,0.0,90.0,11.0,0.0
7627,75.0,24.0,180.0,0.0,0.0
7628,63.0,0.0,90.0,10.0,0.0
7629,63.0,0.0,180.0,1.0,0.0
7630,63.0,96.0,90.0,11.0,0.0
7631,39.0,0.0,180.0,14.0,0.0
7632,51.0,0.0,180.0,13.0,0.0
7633,51.0,0.0,180.0,12.0,0.0
7634,51.0,0.0,180.0,2.0,0.0
7635,63.0,0.0,90.0,10.0,0.0
7636,63.0,120.0,90.0,11.0,0.0
7637,65.0,0.0,180.0,1.0,0.0
7638,41.0,0.0,180.0,14.0,0.0
7639,65.0,96.0,90.0,10.0,0.0
7640,77.0,0.0,180.0,0.0,0.0
7641,53.0,24.0,180.0,12.0,0.0
7642,53.0,0.0,180.0,2.0,0.0
7643,65.0,0.0,90.0,11.0,0.0
7644,53.0,0.0,180.0,13.0,0.0
7645,65.0,0.0,90.0,11.0,0.0
7646,65.0,120.0,90.0,10.0,0.0
7647,66.0,96.0,90.0,11.0,0.0
7648,54.0,0.0,180.0,13.0,0.0
7649,66.0,24.0,180.0,1.0,0.0
7650,66.0,0.0,90.0,10.0,0.0
7651,42.0,0.0,180.0,14.0,0.0
7652,78.0,0.0,180.0,0.0,0.0
7653,54.0,0.0,180.0,12.0,0.0
7654,54.0,0.0,180.0,2.0,0.0
7655,66.0,120.0,90.0,10.0,0.0
7656,66.0,0.0,90.0,11.0,0.0
7657,56.0,24.0,180.0,2.0,0.0
7658,68.0,0.0,180.0,1.0,0.0
7659,56.0,0.0,180.0,13.0,0.0
7660,68.0,96.0,90.0,10.0,0.0
7661,56.0,0.0,180.0,12.0,0.0
7662,44.0,0.0,180.0,14.0,0.0
7663,68.0,0.0,90.0,11.0,0.0
7664,80.0,0.0,180.0,0.0,0.0
7665,68.0,0.0,90.0,10.0,0.0
7666,68.0,120.0,90.0,11.0,0.0
7667,70.0,96.0,90.0,10.0,0.0
7668,82.0,0.0,180.0,0.0,0.0
7669,58.0,0.0,180.0,13.0,0.0
7670,58.0,0.0,180.0,2.0,0.0
7671,58.0,0.0,180.0,12.0,0.0
7672,70.0,0.0,90.0,11.0,0.0
7673,46.0,0.0,180.0,14.0,0.0
7674,70.0,24.0,180.0,1.0,0.0
7675,70.0,0.0,90.0,11.0,0.0
7676,70.0,120.0,90.0,10.0,0.0
7677,77.0,24.0,180.0,0.0,0.0
7678,53.0,0.0,180.0,2.0,0.0
7679,65.0,0.0,90.0,10.0,0.0
7680,65.0,0.0,180.0,1.0,0.0
7681,41.0,0.0,180.0,14.0,0.0
7682,65.0,96.0,90.0,11.0,0.0
7683,53.0,0.0,180.0,13.0,0.0
7684,53.0,0.0,180.0,12.0,0.0
7685,65.0,0.0,90.0,11.0,0.0
7686,65.0,120.0,90.0,10.0,0.0
7687,54.0,0.0,180.0,13.0,0.0
7688,78.0,0.0,180.0,0.0,0.0
7689,66.0,0.0,90.0,11.0,0.0
7690,42.0,0.0,180.0,14.0,0.0
7691,54.0,24.0,180.0,12.0,0.0
7692,66.0,0.0,180.0,1.0,0.0
7693,54.0,0.0,180.0,2.0,0.0
7694,66.0,96.0,90.0,10.0,0.0
7695,66.0,120.0,90.0,11.0,0.0
7696,66.0,0.0,90.0,10.0,0.0
7697,44.0,0.0,180.0,14.0,0.0
7698,56.0,0.0,180.0,2.0,0.0
7699,68.0,0.0,90.0,10.0,0.0
7700,68.0,96.0,90.0,11.0,0.0
7701,56.0,24.0,180.0,13.0,0.0
7702,68.0,0.0,180.0,1.0,0.0
7703,80.0,0.0,180.0,0.0,0.0
7704,56.0,0.0,180.0,12.0,0.0
7705,68.0,120.0,90.0,11.0,0.0
7706,68.0,0.0,90.0,10.0,0.0
7707,58.0,0.0,180.0,12.0,0.0
7708,70.0,0.0,90.0,11.0,0.0
7709,46.0,0.0,180.0,14.0,0.0
7710,58.0,0.0,180.0,2.0,0.0
7711,70.0,0.0,180.0,1.0,0.0
7712,70.0,96.0,90.0,10.0,0.0
7713,82.0,0.0,180.0,0.0,0.0
7714,58.0,24.0,180.0,13.0,0.0
7715,70.0,120.0,90.0,11.0,0.0
7716,70.0,0.0,90.0,10.0,0.0
7717,60.0,0.0,180.0,13.0,0.0
7718,48.0,0.0,180.0,14.0,0.0
7719,72.0,0.0,180.0,1.0,0.0
7720,60.0,0.0,180.0,2.0,0.0
7721,72.0,0.0,90.0,10.0,0.0
7722,60.0,0.0,180.0,12.0,0.0
7723,72.0,96.0,90.0,11.0,0.0
7724,84.0,24.0,180.0,0.0,0.0
7725,72.0,0.0,90.0,10.0,0.0
7726,72.0,168.0,90.0,11.0,0.0
7727,61.0,0.0,150.0,2.0,0.0
7728,73.0,0.0,390.0,1.0,0.0
7729,73.0,0.0,150.0,10.0,0.0
7730,85.0,72.0,390.0,0.0,0.0
7731,61.0,0.0,150.0,13.0,0.0
7732,49.0,0.0,150.0,14.0,0.0
7733,73.0,0.0,150.0,11.0,0.0
7734,61.0,216.0,150.0,12.0,0.0
7735,63.0,0.0,120.0,12.0,0.0
7736,75.0,0.0,120.0,11.0,0.0
7737,63.0,0.0,120.0,2.0,0.0
7738,63.0,24.0,120.0,13.0,0.0
7739,75.0,0.0,120.0,10.0,0.0
7740,51.0,0.0,120.0,14.0,0.0
7741,48.0,168.0,90.0,14.0,0.0
7742,72.0,0.0,90.0,11.0,0.0
7743,60.0,0.0,90.0,12.0,0.0
7744,72.0,0.0,90.0,10.0,0.0
7745,60.0,0.0,90.0,2.0,0.0
7746,60.0,0.0,90.0,13.0,0.0
7747,49.0,0.0,150.0,14.0,0.0
7748,61.0,216.0,150.0,12.0,0.0
7749,61.0,0.0,150.0,13.0,0.0
7750,61.0,0.0,150.0,2.0,0.0
7751,73.0,0.0,150.0,11.0,0.0
7752,73.0,0.0,150.0,10.0,0.0
7753,63.0,0.0,120.0,2.0,0.0
7754,63.0,0.0,120.0,12.0,0.0
7755,75.0,0.0,120.0,11.0,0.0
7756,51.0,0.0,120.0,14.0,0.0
7757,63.0,0.0,120.0,13.0,0.0
7758,75.0,96.0,120.0,10.0,0.0
7759,48.0,0.0,90.0,14.0,0.0
7760,60.0,0.0,90.0,13.0,0.0
7761,72.0,0.0,90.0,11.0,0.0
7762,60.0,0.0,90.0,12.0,0.0
7763,60.0,0.0,90.0,2.0,0.0
7764,72.0,168.0,90.0,10.0,0.0
7765,73.0,216.0,150.0,11.0,0.0
7766,61.0,0.0,150.0,13.0,0.0
7767,61.0,0.0,150.0,2.0,0.0
7768,49.0,0.0,150.0,14.0,0.0
7769,73.0,0.0,150.0,10.0,0.0
7770,61.0,0.0,150.0,12.0,0.0
7771,75.0,96.0,120.0,10.0,0.0
7772,63.0,0.0,120.0,13.0,0.0
7773,63.0,0.0,120.0,2.0,0.0
7774,75.0,0.0,120.0,11.0,0.0
7775,63.0,0.0,120.0,12.0,0.0
7776,51.0,0.0,120.0,14.0,0.0
7777,72.0,0.0,90.0,11.0,0.0
7778,60.0,0.0,90.0,12.0,0.0
7779,48.0,0.0,90.0,14.0,0.0
7780,60.0,336.0,90.0,13.0,0.0
7781,60.0,0.0,90.0,2.0,0.0
7782,72.0,0.0,90.0,10.0,0.0
7783,73.0,0.0,390.0,4.0,0.0
7784,49.0,0.0,300.0,14.0,0.0
7785,61.0,0.0,300.0,13.0,0.0
7786,65.0,0.0,390.0,1.0,0.0
7787,68.0,0.0,390.0,1.0,0.0
7788,61.0,72.0,300.0,12.0,0.0
7789,61.0,408.0,390.0,3.0,0.0
7790,73.0,0.0,390.0,0.0,0.0
7791,61.0,0.0,390.0,2.0,0.0
7792,73.0,0.0,300.0,11.0,0.0
7793,73.0,0.0,300.0,10.0,0.0
7794,49.0,0.0,300.0,13.0,0.0
7795,73.0,0.0,390.0,4.0,0.0
7796,68.0,0.0,390.0,1.0,0.0
7797,61.0,0.0,390.0,3.0,0.0
7798,49.0,0.0,300.0,12.0,0.0
7799,61.0,72.0,300.0,10.0,0.0
7800,53.0,0.0,300.0,10.0,0.0
7801,61.0,0.0,300.0,11.0,0.0
7802,61.0,0.0,390.0,2.0,0.0
7803,65.0,480.0,390.0,1.0,0.0
7804,37.0,0.0,300.0,14.0,0.0
7805,53.0,0.0,300.0,11.0,0.0
7806,73.0,0.0,390.0,0.0,0.0
7807,73.0,0.0,390.0,0.0,0.0
7808,68.0,0.0,390.0,1.0,0.0
7809,65.0,0.0,390.0,1.0,0.0
7810,61.0,240.0,390.0,2.0,0.0
7811,61.0,0.0,390.0,3.0,0.0
7812,73.0,0.0,390.0,4.0,0.0
7813,59.0,0.0,150.0,13.0,0.0
7814,71.0,0.0,150.0,10.0,0.0
7815,71.0,0.0,150.0,11.0,0.0
7816,47.0,0.0,150.0,14.0,0.0
7817,77.0,0.0,1830.0,0.0,0.0
7818,59.0,0.0,1830.0,3.0,0.0
7819,68.0,0.0,1830.0,1.0,0.0
7820,65.0,0.0,1830.0,1.0,0.0
7821,61.0,0.0,1830.0,3.0,0.0
7822,71.0,408.0,1830.0,4.0,0.0
7823,73.0,0.0,1830.0,4.0,0.0
7824,59.0,0.0,1830.0,2.0,0.0
7825,59.0,216.0,150.0,12.0,0.0
7826,61.0,0.0,120.0,12.0,0.0
7827,73.0,0.0,120.0,11.0,0.0
7828,49.0,0.0,120.0,14.0,0.0
7829,61.0,96.0,120.0,13.0,0.0
7830,73.0,0.0,120.0,10.0,0.0
7831,58.0,0.0,90.0,12.0,0.0
7832,70.0,0.0,90.0,10.0,0.0
7833,58.0,0.0,90.0,13.0,0.0
7834,70.0,168.0,90.0,11.0,0.0
7835,46.0,0.0,90.0,14.0,0.0
7836,71.0,0.0,150.0,10.0,0.0
7837,71.0,0.0,150.0,11.0,0.0
7838,59.0,0.0,150.0,13.0,0.0
7839,59.0,216.0,150.0,12.0,0.0
7840,47.0,0.0,150.0,14.0,0.0
7841,73.0,0.0,120.0,10.0,0.0
7842,61.0,96.0,120.0,13.0,0.0
7843,49.0,0.0,120.0,14.0,0.0
7844,61.0,0.0,120.0,12.0,0.0
7845,73.0,0.0,120.0,11.0,0.0
7846,70.0,168.0,90.0,10.0,0.0
7847,46.0,0.0,90.0,14.0,0.0
7848,58.0,0.0,90.0,12.0,0.0
7849,70.0,0.0,90.0,11.0,0.0
7850,58.0,0.0,90.0,13.0,0.0
7851,71.0,0.0,150.0,11.0,0.0
7852,71.0,216.0,150.0,10.0,0.0
7853,59.0,0.0,150.0,12.0,0.0
7854,59.0,0.0,150.0,13.0,0.0
7855,47.0,0.0,150.0,14.0,0.0
7856,61.0,96.0,120.0,12.0,0.0
7857,49.0,0.0,120.0,14.0,0.0
7858,73.0,0.0,120.0,11.0,0.0
7859,73.0,0.0,120.0,10.0,0.0
7860,61.0,0.0,120.0,13.0,0.0
7861,46.0,0.0,90.0,14.0,0.0
7862,70.0,0.0,90.0,11.0,0.0
7863,58.0,0.0,90.0,13.0,0.0
7864,70.0,0.0,90.0,10.0,0.0
7865,58.0,336.0,90.0,12.0,0.0
7866,59.0,0.0,300.0,12.0,0.0
7867,59.0,0.0,300.0,13.0,0.0
7868,71.0,0.0,300.0,11.0,0.0
7869,71.0,72.0,300.0,10.0,0.0
7870,47.0,0.0,300.0,14.0,0.0
7871,65.0,0.0,390.0,1.0,0.0
7872,68.0,480.0,390.0,1.0,0.0
7873,59.0,0.0,390.0,3.0,0.0
7874,61.0,0.0,390.0,3.0,0.0
7875,71.0,0.0,390.0,4.0,0.0
7876,73.0,0.0,390.0,4.0,0.0
7877,77.0,0.0,390.0,0.0,0.0
7878,59.0,0.0,300.0,10.0,0.0
7879,47.0,72.0,300.0,12.0,0.0
7880,47.0,0.0,300.0,13.0,0.0
7881,35.0,0.0,300.0,14.0,0.0
7882,59.0,0.0,300.0,11.0,0.0
7883,59.0,0.0,390.0,2.0,0.0
7884,77.0,0.0,390.0,0.0,0.0
7885,59.0,0.0,390.0,2.0,0.0
7886,65.0,0.0,390.0,1.0,0.0
7887,59.0,0.0,390.0,3.0,0.0
7888,61.0,0.0,390.0,3.0,0.0
7889,73.0,0.0,390.0,4.0,0.0
7890,71.0,0.0,390.0,4.0,0.0
7891,68.0,240.0,390.0,1.0,0.0
7892,58.0,216.0,150.0,13.0,0.0
7893,70.0,0.0,1830.0,1.0,0.0
7894,66.0,0.0,1830.0,1.0,0.0
7895,73.0,0.0,1830.0,4.0,0.0
7896,66.0,0.0,1830.0,4.0,0.0
7897,78.0,0.0,1830.0,0.0,0.0
7898,42.0,72.0,390.0,5.0,0.0
7899,70.0,0.0,150.0,11.0,0.0
7900,70.0,0.0,150.0,10.0,0.0
7901,58.0,0.0,150.0,12.0,0.0
7902,58.0,0.0,1830.0,2.0,0.0
7903,46.0,0.0,150.0,14.0,0.0
7904,54.0,0.0,1830.0,3.0,0.0
7905,61.0,408.0,1830.0,3.0,0.0
7906,71.0,0.0,120.0,11.0,0.0
7907,47.0,0.0,120.0,14.0,0.0
7908,59.0,0.0,120.0,13.0,0.0
7909,59.0,24.0,120.0,12.0,0.0
7910,71.0,0.0,120.0,10.0,0.0
7911,56.0,0.0,90.0,13.0,0.0
7912,68.0,0.0,90.0,11.0,0.0
7913,68.0,168.0,90.0,10.0,0.0
7914,56.0,0.0,90.0,12.0,0.0
7915,44.0,0.0,90.0,14.0,0.0
7916,58.0,0.0,150.0,13.0,0.0
7917,46.0,0.0,150.0,14.0,0.0
7918,70.0,216.0,150.0,11.0,0.0
7919,58.0,0.0,150.0,12.0,0.0
7920,42.0,72.0,390.0,5.0,0.0
7921,70.0,0.0,150.0,10.0,0.0
7922,59.0,0.0,120.0,12.0,0.0
7923,47.0,0.0,120.0,14.0,0.0
7924,71.0,0.0,120.0,10.0,0.0
7925,59.0,0.0,120.0,13.0,0.0
7926,71.0,24.0,120.0,11.0,0.0
7927,44.0,0.0,90.0,14.0,0.0
7928,56.0,168.0,90.0,13.0,0.0
7929,68.0,0.0,90.0,11.0,0.0
7930,56.0,0.0,90.0,12.0,0.0
7931,68.0,0.0,90.0,10.0,0.0
7932,42.0,72.0,390.0,5.0,0.0
7933,58.0,0.0,150.0,12.0,0.0
7934,70.0,0.0,150.0,10.0,0.0
7935,46.0,0.0,150.0,14.0,0.0
7936,70.0,216.0,150.0,11.0,0.0
7937,58.0,0.0,150.0,13.0,0.0
7938,71.0,0.0,120.0,10.0,0.0
7939,59.0,0.0,120.0,12.0,0.0
7940,59.0,0.0,120.0,13.0,0.0
7941,47.0,24.0,120.0,14.0,0.0
7942,71.0,0.0,120.0,11.0,0.0
7943,56.0,0.0,90.0,13.0,0.0
7944,56.0,0.0,90.0,12.0,0.0
7945,68.0,0.0,90.0,11.0,0.0
7946,44.0,336.0,90.0,14.0,0.0
7947,68.0,0.0,90.0,10.0,0.0
7948,58.0,0.0,300.0,13.0,0.0
7949,70.0,0.0,300.0,11.0,0.0
7950,46.0,0.0,300.0,14.0,0.0
7951,58.0,0.0,300.0,12.0,0.0
7952,42.0,0.0,390.0,5.0,0.0
7953,70.0,72.0,300.0,10.0,0.0
7954,82.0,0.0,390.0,0.0,0.0
7955,66.0,0.0,390.0,4.0,0.0
7956,73.0,480.0,390.0,4.0,0.0
7957,58.0,0.0,390.0,2.0,0.0
7958,46.0,72.0,300.0,12.0,0.0
7959,34.0,0.0,300.0,14.0,0.0
7960,46.0,0.0,300.0,13.0,0.0
7961,58.0,0.0,300.0,11.0,0.0
7962,66.0,0.0,390.0,1.0,0.0
7963,70.0,0.0,390.0,1.0,0.0
7964,61.0,0.0,390.0,3.0,0.0
7965,54.0,0.0,390.0,3.0,0.0
7966,58.0,0.0,300.0,10.0,0.0
7967,66.0,0.0,390.0,1.0,0.0
7968,70.0,0.0,390.0,1.0,0.0
7969,58.0,0.0,390.0,2.0,0.0
7970,54.0,240.0,390.0,3.0,0.0
7971,61.0,0.0,390.0,3.0,0.0
7972,73.0,0.0,390.0,4.0,0.0
7973,66.0,0.0,390.0,4.0,0.0
7974,78.0,0.0,390.0,0.0,0.0
7975,73.0,0.0,1830.0,4.0,0.0
7976,71.0,0.0,1830.0,4.0,0.0
7977,68.0,0.0,150.0,11.0,0.0
7978,68.0,0.0,150.0,10.0,0.0
7979,59.0,0.0,1830.0,3.0,0.0
7980,44.0,0.0,150.0,14.0,0.0
7981,44.0,36.0,1830.0,2.0,0.0
7982,56.0,0.0,1830.0,2.0,0.0
7983,61.0,0.0,1830.0,3.0,0.0
7984,47.0,72.0,390.0,5.0,0.0
7985,56.0,0.0,150.0,12.0,0.0
7986,83.0,24.0,1800.0,0.0,0.0
7987,68.0,0.0,1830.0,1.0,0.0
7988,77.0,0.0,1830.0,1.0,0.0
7989,56.0,216.0,150.0,13.0,0.0
7990,70.0,0.0,120.0,10.0,0.0
7991,46.0,24.0,120.0,14.0,0.0
7992,58.0,0.0,120.0,12.0,0.0
7993,70.0,0.0,120.0,11.0,0.0
7994,58.0,0.0,120.0,13.0,0.0
7995,66.0,168.0,90.0,10.0,0.0
7996,66.0,0.0,90.0,11.0,0.0
7997,54.0,0.0,90.0,12.0,0.0
7998,54.0,0.0,90.0,13.0,0.0
7999,42.0,0.0,90.0,14.0,0.0
8000,68.0,0.0,150.0,11.0,0.0
8001,56.0,0.0,150.0,12.0,0.0
8002,44.0,0.0,150.0,14.0,0.0
8003,68.0,216.0,150.0,10.0,0.0
8004,56.0,0.0,150.0,13.0,0.0
8005,47.0,72.0,390.0,5.0,0.0
8006,58.0,24.0,120.0,12.0,0.0
8007,58.0,0.0,120.0,13.0,0.0
8008,70.0,0.0,120.0,10.0,0.0
8009,46.0,0.0,120.0,14.0,0.0
8010,70.0,0.0,120.0,11.0,0.0
8011,66.0,0.0,90.0,10.0,0.0
8012,54.0,0.0,90.0,13.0,0.0
8013,42.0,168.0,90.0,14.0,0.0
8014,66.0,0.0,90.0,11.0,0.0
8015,54.0,0.0,90.0,12.0,0.0
8016,47.0,72.0,390.0,5.0,0.0
8017,68.0,0.0,150.0,11.0,0.0
8018,44.0,216.0,150.0,14.0,0.0
8019,56.0,0.0,150.0,13.0,0.0
8020,56.0,0.0,150.0,12.0,0.0
8021,68.0,0.0,150.0,10.0,0.0
8022,58.0,0.0,120.0,12.0,0.0
8023,46.0,0.0,120.0,14.0,0.0
8024,70.0,0.0,120.0,10.0,0.0
8025,58.0,0.0,120.0,13.0,0.0
8026,70.0,24.0,120.0,11.0,0.0
8027,54.0,0.0,90.0,13.0,0.0
8028,42.0,0.0,90.0,14.0,0.0
8029,54.0,0.0,90.0,12.0,0.0
8030,66.0,336.0,90.0,10.0,0.0
8031,66.0,0.0,90.0,11.0,0.0
8032,44.0,48.0,300.0,14.0,0.0
8033,56.0,0.0,300.0,12.0,0.0
8034,47.0,0.0,390.0,5.0,0.0
8035,68.0,0.0,300.0,10.0,0.0
8036,68.0,0.0,300.0,11.0,0.0
8037,56.0,0.0,300.0,13.0,0.0
8038,82.0,60.0,60.0,0.0,0.0
8039,83.0,312.0,60.0,0.0,0.0
8040,56.0,0.0,300.0,11.0,0.0
8041,73.0,0.0,390.0,4.0,0.0
8042,44.0,0.0,300.0,13.0,0.0
8043,61.0,0.0,390.0,3.0,0.0
8044,85.0,384.0,480.0,0.0,0.0
8045,68.0,0.0,390.0,1.0,0.0
8046,71.0,0.0,390.0,4.0,0.0
8047,59.0,0.0,390.0,3.0,0.0
8048,77.0,0.0,390.0,1.0,0.0
8049,56.0,96.0,390.0,2.0,0.0
8050,44.0,0.0,300.0,12.0,0.0
8051,32.0,72.0,300.0,14.0,0.0
8052,56.0,0.0,300.0,10.0,0.0
8053,44.0,0.0,390.0,2.0,0.0
8054,59.0,0.0,390.0,3.0,0.0
8055,73.0,0.0,390.0,4.0,0.0
8056,71.0,0.0,390.0,4.0,0.0
8057,61.0,0.0,390.0,3.0,0.0
8058,77.0,0.0,390.0,1.0,0.0
8059,56.0,0.0,390.0,2.0,0.0
8060,44.0,288.0,390.0,2.0,0.0
8061,83.0,0.0,390.0,0.0,0.0
8062,68.0,0.0,390.0,1.0,0.0
8063,54.0,240.0,1140.0,10.0,0.0
8064,42.0,0.0,390.0,5.0,0.0
8065,82.0,0.0,390.0,0.0,0.0
8066,30.0,0.0,180.0,14.0,0.0
8067,42.0,192.0,180.0,13.0,0.0
8068,70.0,0.0,390.0,1.0,0.0
8069,54.0,0.0,1140.0,12.0,0.0
8070,54.0,0.0,1140.0,4.0,0.0
8071,66.0,0.0,1140.0,4.0,0.0
8072,78.0,0.0,390.0,1.0,0.0
8073,54.0,0.0,1140.0,11.0,0.0
8074,54.0,48.0,390.0,2.0,0.0
8075,30.0,0.0,180.0,14.0,0.0
8076,42.0,240.0,180.0,13.0,0.0
8077,30.0,0.0,180.0,14.0,0.0
8078,42.0,240.0,180.0,13.0,0.0
8079,30.0,0.0,180.0,14.0,0.0
8080,42.0,240.0,180.0,13.0,0.0
8081,30.0,0.0,180.0,14.0,0.0
8082,42.0,0.0,180.0,13.0,0.0
8083,30.0,48.0,180.0,14.0,0.0
8084,42.0,0.0,180.0,13.0,0.0
8085,54.0,192.0,15.0,3.0,0.0
8086,78.0,0.0,240.0,10.0,0.0
8087,42.0,0.0,15.0,3.0,0.0
8088,42.0,48.0,390.0,13.0,0.0
8089,63.0,144.0,240.0,11.0,0.0
8090,30.0,48.0,180.0,14.0,0.0
8091,30.0,48.0,180.0,14.0,0.0
8092,82.0,0.0,240.0,10.0,0.0
8093,66.0,192.0,240.0,11.0,0.0
8094,30.0,48.0,180.0,14.0,0.0
8095,65.0,0.0,240.0,11.0,0.0
8096,80.0,192.0,240.0,10.0,0.0
8097,61.0,192.0,240.0,11.0,0.0
8098,30.0,48.0,180.0,14.0,0.0
8099,77.0,0.0,240.0,10.0,0.0
8100,30.0,48.0,180.0,14.0,0.0
8101,75.0,0.0,240.0,10.0,0.0
8102,59.0,192.0,240.0,11.0,0.0
8103,78.0,192.0,240.0,10.0,0.0
8104,63.0,0.0,240.0,11.0,0.0
8105,30.0,48.0,180.0,14.0,0.0
8106,30.0,48.0,180.0,14.0,0.0
8107,61.0,0.0,240.0,11.0,0.0
8108,77.0,192.0,240.0,10.0,0.0
8109,58.0,0.0,240.0,11.0,0.0
8110,30.0,48.0,180.0,14.0,0.0
8111,73.0,192.0,240.0,10.0,0.0
8112,30.0,48.0,180.0,14.0,0.0
8113,56.0,0.0,240.0,11.0,0.0
8114,71.0,192.0,240.0,10.0,0.0
8115,75.0,192.0,240.0,10.0,0.0
8116,59.0,0.0,240.0,11.0,0.0
8117,30.0,48.0,180.0,14.0,0.0
8118,30.0,48.0,180.0,14.0,0.0
8119,58.0,192.0,240.0,11.0,0.0
8120,73.0,0.0,240.0,10.0,0.0
8121,70.0,240.0,180.0,10.0,0.0
8122,30.0,0.0,180.0,14.0,0.0
8123,54.0,0.0,180.0,11.0,0.0
8124,59.0,0.0,360.0,2.0,0.0
8125,56.0,72.0,360.0,2.0,0.0
8126,73.0,0.0,360.0,0.0,0.0
8127,30.0,48.0,180.0,14.0,0.0
8128,41.0,120.0,240.0,13.0,0.0
8129,68.0,0.0,360.0,1.0,0.0
8130,71.0,0.0,360.0,1.0,0.0
8131,42.0,192.0,240.0,13.0,0.0
8132,30.0,48.0,180.0,14.0,0.0
8133,71.0,0.0,360.0,1.0,0.0
8134,68.0,72.0,360.0,1.0,0.0
8135,56.0,0.0,360.0,2.0,0.0
8136,44.0,120.0,240.0,13.0,0.0
8137,73.0,0.0,360.0,0.0,0.0
8138,59.0,0.0,360.0,2.0,0.0
8139,30.0,48.0,180.0,14.0,0.0
8140,46.0,192.0,240.0,13.0,0.0
8141,30.0,48.0,180.0,14.0,0.0
8142,71.0,0.0,360.0,1.0,0.0
8143,68.0,0.0,360.0,1.0,0.0
8144,30.0,48.0,180.0,14.0,0.0
8145,56.0,0.0,360.0,2.0,0.0
8146,59.0,0.0,360.0,2.0,0.0
8147,47.0,120.0,240.0,13.0,0.0
8148,73.0,72.0,360.0,0.0,0.0
8149,48.0,192.0,240.0,13.0,0.0
8150,30.0,48.0,180.0,14.0,0.0
8151,30.0,48.0,180.0,14.0,0.0
8152,71.0,0.0,960.0,1.0,0.0
8153,59.0,0.0,960.0,2.0,0.0
8154,73.0,120.0,720.0,0.0,0.0
8155,49.0,192.0,240.0,13.0,0.0
8156,68.0,0.0,960.0,1.0,0.0
8157,56.0,0.0,960.0,2.0,0.0
8158,50.0,192.0,240.0,13.0,0.0
8159,30.0,48.0,180.0,14.0,0.0
8160,51.0,0.0,240.0,13.0,0.0
8161,30.0,48.0,180.0,14.0,0.0
8162,53.0,192.0,240.0,13.0,0.0
8163,30.0,48.0,180.0,14.0,0.0
8164,75.0,72.0,120.0,0.0,0.0
8165,73.0,0.0,120.0,0.0,0.0
8166,66.0,0.0,240.0,1.0,0.0
8167,56.0,0.0,240.0,13.0,0.0
8168,70.0,0.0,240.0,1.0,0.0
8169,78.0,192.0,240.0,0.0,0.0
8170,30.0,48.0,180.0,14.0,0.0
8171,54.0,0.0,240.0,2.0,0.0
8172,58.0,0.0,240.0,2.0,0.0
8173,30.0,240.0,180.0,14.0,0.0
8174,54.0,0.0,180.0,13.0,0.0
8175,63.0,0.0,240.0,11.0,0.0
8176,78.0,192.0,240.0,10.0,0.0
8177,30.0,48.0,180.0,14.0,0.0
8178,30.0,48.0,180.0,14.0,0.0
8179,66.0,0.0,240.0,11.0,0.0
8180,82.0,192.0,240.0,10.0,0.0
8181,30.0,48.0,180.0,14.0,0.0
8182,80.0,192.0,240.0,10.0,0.0
8183,65.0,0.0,240.0,11.0,0.0
8184,61.0,0.0,240.0,11.0,0.0
8185,30.0,48.0,180.0,14.0,0.0
8186,77.0,192.0,240.0,10.0,0.0
8187,75.0,0.0,240.0,10.0,0.0
8188,30.0,48.0,180.0,14.0,0.0
8189,59.0,192.0,240.0,11.0,0.0
8190,78.0,192.0,240.0,10.0,0.0
8191,30.0,48.0,180.0,14.0,0.0
8192,63.0,0.0,240.0,11.0,0.0
8193,30.0,48.0,180.0,14.0,0.0
8194,77.0,192.0,240.0,10.0,0.0
8195,61.0,0.0,240.0,11.0,0.0
8196,73.0,0.0,240.0,10.0,0.0
8197,30.0,48.0,180.0,14.0,0.0
8198,58.0,192.0,240.0,11.0,0.0
8199,71.0,0.0,240.0,10.0,0.0
8200,30.0,48.0,180.0,14.0,0.0
8201,56.0,192.0,240.0,11.0,0.0
8202,75.0,0.0,240.0,10.0,0.0
8203,59.0,192.0,240.0,11.0,0.0
8204,30.0,48.0,180.0,14.0,0.0
8205,73.0,192.0,240.0,10.0,0.0
8206,58.0,0.0,240.0,11.0,0.0
8207,30.0,48.0,180.0,14.0,0.0
8208,30.0,0.0,180.0,14.0,0.0
8209,54.0,0.0,180.0,11.0,0.0
8210,70.0,240.0,180.0,10.0,0.0
8211,30.0,48.0,180.0,14.0,0.0
8212,73.0,0.0,360.0,0.0,0.0
8213,59.0,72.0,360.0,2.0,0.0
8214,68.0,0.0,360.0,1.0,0.0
8215,41.0,120.0,240.0,13.0,0.0
8216,71.0,0.0,360.0,1.0,0.0
8217,56.0,0.0,360.0,2.0,0.0
8218,30.0,48.0,180.0,14.0,0.0
8219,42.0,192.0,240.0,13.0,0.0
8220,30.0,48.0,180.0,14.0,0.0
8221,68.0,0.0,360.0,1.0,0.0
8222,71.0,0.0,360.0,1.0,0.0
8223,59.0,0.0,360.0,2.0,0.0
8224,56.0,0.0,360.0,2.0,0.0
8225,44.0,120.0,240.0,13.0,0.0
8226,73.0,72.0,360.0,0.0,0.0
8227,46.0,192.0,240.0,13.0,0.0
8228,30.0,48.0,180.0,14.0,0.0
8229,73.0,0.0,360.0,0.0,0.0
8230,71.0,0.0,360.0,1.0,0.0
8231,47.0,120.0,240.0,13.0,0.0
8232,68.0,0.0,360.0,1.0,0.0
8233,30.0,48.0,180.0,14.0,0.0
8234,59.0,0.0,360.0,2.0,0.0
8235,56.0,72.0,360.0,2.0,0.0
8236,48.0,192.0,240.0,13.0,0.0
8237,30.0,48.0,180.0,14.0,0.0
8238,56.0,192.0,960.0,2.0,0.0
8239,49.0,192.0,240.0,13.0,0.0
8240,59.0,0.0,960.0,2.0,0.0
8241,73.0,120.0,720.0,0.0,0.0
8242,68.0,0.0,960.0,1.0,0.0
8243,30.0,48.0,180.0,14.0,0.0
8244,71.0,0.0,960.0,1.0,0.0
8245,30.0,48.0,180.0,14.0,0.0
8246,50.0,192.0,240.0,13.0,0.0
8247,51.0,0.0,240.0,13.0,0.0
8248,30.0,48.0,180.0,14.0,0.0
8249,75.0,72.0,120.0,0.0,0.0
8250,30.0,48.0,180.0,14.0,0.0
8251,53.0,0.0,240.0,13.0,0.0
8252,73.0,0.0,120.0,0.0,0.0
8253,78.0,0.0,240.0,0.0,0.0
8254,30.0,0.0,180.0,14.0,0.0
8255,66.0,0.0,240.0,1.0,0.0
8256,70.0,0.0,240.0,1.0,0.0
8257,56.0,0.0,240.0,13.0,0.0
8258,54.0,192.0,240.0,2.0,0.0
8259,58.0,0.0,240.0,2.0,0.0
8260,54.0,528.0,180.0,13.0,0.0
8261,73.0,480.0,480.0,1.0,0.0
8262,70.0,0.0,480.0,1.0,0.0
8263,68.0,0.0,480.0,1.0,0.0
8264,71.0,480.0,480.0,1.0,0.0
8265,70.0,0.0,480.0,1.0,0.0
8266,61.0,0.0,960.0,2.0,0.0
8267,51.0,0.0,960.0,12.0,0.0
8268,58.0,0.0,960.0,2.0,0.0
8269,51.0,0.0,960.0,13.0,0.0
8270,67.0,720.0,15.0,1.0,0.0
8271,70.0,0.0,960.0,1.0,0.0
8272,39.0,240.0,960.0,14.0,0.0
8273,76.0,120.0,720.0,0.0,0.0
8274,75.0,120.0,120.0,0.0,0.0
8275,73.0,0.0,120.0,0.0,0.0
8276,56.0,0.0,240.0,2.0,0.0
8277,59.0,0.0,240.0,2.0,0.0
8278,56.0,720.0,240.0,12.0,0.0
8279,44.0,0.0,240.0,13.0,0.0
8280,71.0,0.0,240.0,1.0,0.0
8281,68.0,0.0,240.0,1.0,0.0
8282,71.0,0.0,240.0,0.0,0.0
8283,32.0,0.0,240.0,14.0,0.0
8284,71.0,0.0,480.0,1.0,0.0
8285,68.0,480.0,480.0,1.0,0.0
8286,70.0,480.0,480.0,1.0,0.0
8287,66.0,0.0,480.0,1.0,0.0
8288,49.0,0.0,960.0,12.0,0.0
8289,59.0,0.0,960.0,2.0,0.0
8290,49.0,240.0,960.0,13.0,0.0
8291,37.0,0.0,960.0,14.0,0.0
8292,65.0,720.0,15.0,1.0,0.0
8293,56.0,0.0,960.0,2.0,0.0
8294,75.0,120.0,720.0,0.0,0.0
8295,68.0,0.0,15.0,1.0,0.0
8296,73.0,120.0,120.0,0.0,0.0
8297,71.0,0.0,120.0,0.0,0.0
8298,30.0,0.0,240.0,14.0,0.0
8299,70.0,0.0,240.0,1.0,0.0
8300,66.0,0.0,240.0,1.0,0.0
8301,58.0,0.0,240.0,2.0,0.0
8302,54.0,432.0,240.0,2.0,0.0
8303,70.0,0.0,240.0,0.0,0.0
8304,54.0,0.0,240.0,12.0,0.0
8305,42.0,0.0,240.0,13.0,0.0
8306,58.0,0.0,1440.0,11.0,0.0
8307,54.0,0.0,1440.0,12.0,0.0
8308,66.0,192.0,1440.0,10.0,0.0
8309,54.0,0.0,180.0,6.0,0.0
8310,46.0,0.0,1440.0,12.0,0.0
8311,42.0,480.0,180.0,7.0,0.0
8312,46.0,480.0,180.0,7.0,0.0
8313,58.0,0.0,180.0,6.0,0.0
8314,42.0,0.0,180.0,7.0,0.0
8315,54.0,288.0,180.0,6.0,0.0
8316,61.0,0.0,1380.0,11.0,0.0
8317,49.0,0.0,1380.0,12.0,0.0
8318,41.0,480.0,180.0,7.0,0.0
8319,53.0,0.0,180.0,6.0,0.0
8320,56.0,0.0,1380.0,12.0,0.0
8321,68.0,264.0,1380.0,10.0,0.0
8322,37.0,0.0,180.0,7.0,0.0
8323,49.0,480.0,180.0,6.0,0.0
8324,53.0,216.0,180.0,6.0,0.0
8325,41.0,0.0,180.0,7.0,0.0
8326,66.0,0.0,480.0,11.0,0.0
8327,70.0,0.0,480.0,10.0,0.0
8328,54.0,0.0,480.0,12.0,0.0
8329,42.0,0.0,180.0,7.0,0.0
8330,54.0,288.0,180.0,6.0,0.0
8331,58.0,480.0,480.0,12.0,0.0
8332,59.0,0.0,480.0,12.0,0.0
8333,63.0,0.0,480.0,12.0,0.0
8334,75.0,0.0,480.0,10.0,0.0
8335,71.0,192.0,480.0,11.0,0.0
8336,58.0,0.0,450.0,12.0,0.0
8337,61.0,0.0,450.0,12.0,0.0
8338,73.0,216.0,450.0,10.0,0.0
8339,30.0,264.0,180.0,7.0,0.0
8340,70.0,0.0,450.0,11.0,0.0
8341,42.0,0.0,180.0,6.0,0.0
8342,35.0,0.0,180.0,7.0,0.0
8343,61.0,0.0,240.0,12.0,0.0
8344,58.0,0.0,180.0,12.0,0.0
8345,47.0,48.0,180.0,6.0,0.0
8346,73.0,192.0,240.0,10.0,0.0
8347,70.0,0.0,240.0,11.0,0.0
8348,71.0,240.0,180.0,10.0,0.0
8349,68.0,0.0,180.0,11.0,0.0
8350,59.0,0.0,180.0,12.0,0.0
8351,56.0,0.0,180.0,12.0,0.0
8352,68.0,192.0,240.0,11.0,0.0
8353,59.0,0.0,240.0,12.0,0.0
8354,56.0,48.0,180.0,12.0,0.0
8355,37.0,0.0,180.0,7.0,0.0
8356,49.0,0.0,180.0,6.0,0.0
8357,71.0,0.0,240.0,10.0,0.0
8358,70.0,0.0,180.0,10.0,0.0
8359,54.0,240.0,180.0,12.0,0.0
8360,66.0,0.0,180.0,11.0,0.0
8361,58.0,0.0,180.0,12.0,0.0
8362,66.0,192.0,240.0,11.0,0.0
8363,37.0,0.0,180.0,7.0,0.0
8364,49.0,48.0,180.0,6.0,0.0
8365,58.0,0.0,240.0,12.0,0.0
8366,54.0,0.0,180.0,12.0,0.0
8367,70.0,0.0,240.0,10.0,0.0
8368,68.0,0.0,180.0,10.0,0.0
8369,65.0,0.0,180.0,11.0,0.0
8370,56.0,240.0,180.0,12.0,0.0
8371,53.0,0.0,180.0,12.0,0.0
8372,68.0,0.0,720.0,10.0,0.0
8373,65.0,0.0,960.0,11.0,0.0
8374,56.0,0.0,720.0,12.0,0.0
8375,54.0,0.0,180.0,6.0,0.0
8376,53.0,240.0,720.0,12.0,0.0
8377,42.0,480.0,180.0,7.0,0.0
8378,49.0,0.0,180.0,6.0,0.0
8379,37.0,48.0,180.0,7.0,0.0
8380,69.0,0.0,240.0,10.0,0.0
8381,53.0,0.0,240.0,12.0,0.0
8382,57.0,192.0,240.0,12.0,0.0
8383,54.0,0.0,240.0,12.0,0.0
8384,70.0,720.0,240.0,10.0,0.0
8385,58.0,0.0,240.0,12.0,0.0
8386,30.0,0.0,180.0,7.0,0.0
8387,66.0,0.0,240.0,11.0,0.0
8388,42.0,48.0,180.0,6.0,0.0
8389,66.0,0.0,1440.0,1.0,0.0
8390,54.0,0.0,1440.0,1.0,0.0
8391,57.0,120.0,1200.0,12.0,0.0
8392,54.0,0.0,1440.0,2.0,0.0
8393,42.0,144.0,1440.0,2.0,0.0
8394,78.0,0.0,480.0,10.0,0.0
8395,39.0,0.0,1440.0,13.0,0.0
8396,27.0,0.0,1440.0,14.0,0.0
8397,66.0,480.0,480.0,11.0,0.0
8398,75.0,0.0,480.0,10.0,0.0
8399,63.0,240.0,480.0,11.0,0.0
8400,60.0,72.0,390.0,11.0,0.0
8401,72.0,0.0,390.0,10.0,0.0
8402,56.0,24.0,120.0,12.0,0.0
8403,54.0,24.0,90.0,12.0,0.0
8404,68.0,0.0,1380.0,1.0,0.0
8405,29.0,0.0,1440.0,14.0,0.0
8406,59.0,144.0,480.0,12.0,0.0
8407,49.0,0.0,1380.0,2.0,0.0
8408,68.0,0.0,150.0,11.0,0.0
8409,56.0,0.0,1380.0,2.0,0.0
8410,61.0,72.0,1380.0,1.0,0.0
8411,41.0,144.0,1440.0,13.0,0.0
8412,80.0,240.0,150.0,10.0,0.0
8413,78.0,0.0,150.0,10.0,0.0
8414,66.0,96.0,150.0,11.0,0.0
8415,77.0,0.0,150.0,10.0,0.0
8416,65.0,240.0,150.0,11.0,0.0
8417,56.0,144.0,480.0,12.0,0.0
8418,75.0,0.0,150.0,10.0,0.0
8419,63.0,96.0,150.0,11.0,0.0
8420,49.0,0.0,480.0,12.0,0.0
8421,61.0,0.0,150.0,11.0,0.0
8422,73.0,240.0,150.0,10.0,0.0
8423,59.0,24.0,150.0,11.0,0.0
8424,71.0,0.0,150.0,10.0,0.0
8425,30.0,0.0,390.0,14.0,0.0
8426,58.0,0.0,150.0,11.0,0.0
8427,58.0,0.0,480.0,2.0,0.0
8428,42.0,0.0,390.0,13.0,0.0
8429,70.0,144.0,480.0,1.0,0.0
8430,70.0,240.0,150.0,10.0,0.0
8431,54.0,0.0,390.0,12.0,0.0
8432,66.0,0.0,480.0,1.0,0.0
8433,54.0,0.0,480.0,2.0,0.0
8434,66.0,0.0,150.0,11.0,0.0
8435,78.0,96.0,150.0,10.0,0.0
8436,78.0,0.0,150.0,10.0,0.0
8437,75.0,0.0,480.0,1.0,0.0
8438,71.0,0.0,480.0,1.0,0.0
8439,63.0,0.0,480.0,2.0,0.0
8440,59.0,144.0,480.0,2.0,0.0
8441,66.0,240.0,150.0,11.0,0.0
8442,78.0,96.0,150.0,10.0,0.0
8443,66.0,0.0,150.0,11.0,0.0
8444,70.0,0.0,390.0,1.0,0.0
8445,78.0,240.0,150.0,10.0,0.0
8446,58.0,0.0,390.0,2.0,0.0
8447,61.0,288.0,390.0,2.0,0.0
8448,73.0,0.0,390.0,1.0,0.0
8449,66.0,0.0,150.0,11.0,0.0
8450,78.0,0.0,150.0,10.0,0.0
8451,66.0,0.0,150.0,11.0,0.0
8452,58.0,48.0,180.0,2.0,0.0
8453,61.0,0.0,240.0,2.0,0.0
8454,35.0,168.0,270.0,14.0,0.0
8455,73.0,24.0,240.0,1.0,0.0
8456,70.0,0.0,180.0,1.0,0.0
8457,59.0,0.0,270.0,10.0,0.0
8458,47.0,0.0,270.0,13.0,0.0
8459,59.0,0.0,270.0,12.0,0.0
8460,59.0,0.0,270.0,11.0,0.0
8461,59.0,0.0,180.0,2.0,0.0
8462,56.0,0.0,180.0,2.0,0.0
8463,68.0,0.0,180.0,1.0,0.0
8464,71.0,240.0,180.0,1.0,0.0
8465,59.0,0.0,240.0,2.0,0.0
8466,56.0,0.0,180.0,2.0,0.0
8467,61.0,0.0,270.0,11.0,0.0
8468,61.0,168.0,270.0,10.0,0.0
8469,37.0,0.0,270.0,14.0,0.0
8470,61.0,0.0,270.0,12.0,0.0
8471,71.0,24.0,240.0,1.0,0.0
8472,68.0,48.0,180.0,1.0,0.0
8473,49.0,0.0,270.0,13.0,0.0
8474,58.0,240.0,180.0,2.0,0.0
8475,66.0,0.0,180.0,1.0,0.0
8476,54.0,0.0,180.0,2.0,0.0
8477,70.0,0.0,180.0,1.0,0.0
8478,58.0,24.0,240.0,2.0,0.0
8479,54.0,48.0,180.0,2.0,0.0
8480,37.0,0.0,270.0,13.0,0.0
8481,61.0,0.0,270.0,10.0,0.0
8482,49.0,0.0,270.0,12.0,0.0
8483,70.0,0.0,240.0,1.0,0.0
8484,25.0,168.0,270.0,14.0,0.0
8485,66.0,0.0,180.0,1.0,0.0
8486,61.0,0.0,270.0,11.0,0.0
8487,65.0,0.0,180.0,1.0,0.0
8488,56.0,0.0,180.0,2.0,0.0
8489,53.0,0.0,180.0,2.0,0.0
8490,68.0,144.0,180.0,1.0,0.0
8491,66.0,0.0,90.0,11.0,0.0
8492,66.0,120.0,90.0,10.0,0.0
8493,66.0,0.0,390.0,1.0,0.0
8494,42.0,0.0,390.0,13.0,0.0
8495,30.0,0.0,390.0,14.0,0.0
8496,54.0,0.0,390.0,12.0,0.0
8497,54.0,72.0,390.0,2.0,0.0
8498,66.0,0.0,90.0,11.0,0.0
8499,66.0,120.0,90.0,10.0,0.0
8500,78.0,48.0,90.0,10.0,0.0
8501,78.0,0.0,90.0,11.0,0.0
8502,78.0,120.0,90.0,10.0,0.0
8503,78.0,0.0,90.0,11.0,0.0
8504,73.0,0.0,90.0,11.0,0.0
8505,73.0,120.0,90.0,10.0,0.0
8506,73.0,0.0,90.0,11.0,0.0
8507,73.0,120.0,90.0,10.0,0.0
8508,70.0,120.0,90.0,11.0,0.0
8509,70.0,0.0,90.0,10.0,0.0
8510,70.0,0.0,90.0,10.0,0.0
8511,70.0,120.0,90.0,11.0,0.0
8512,66.0,120.0,90.0,11.0,0.0
8513,66.0,0.0,90.0,10.0,0.0
8514,66.0,120.0,90.0,10.0,0.0
8515,66.0,0.0,90.0,11.0,0.0
8516,61.0,0.0,90.0,11.0,0.0
8517,61.0,120.0,90.0,10.0,0.0
8518,61.0,120.0,90.0,10.0,0.0
8519,61.0,0.0,90.0,11.0,0.0
8520,52.0,0.0,90.0,11.0,0.0
8521,34.0,0.0,240.0,14.0,0.0
8522,54.0,48.0,390.0,3.0,0.0
8523,66.0,0.0,390.0,4.0,0.0
8524,46.0,0.0,240.0,13.0,0.0
8525,64.0,96.0,240.0,1.0,0.0
8526,49.0,0.0,240.0,12.0,0.0
8527,49.0,0.0,240.0,2.0,0.0
8528,61.0,0.0,240.0,1.0,0.0
8529,52.0,0.0,240.0,2.0,0.0
8530,52.0,120.0,90.0,10.0,0.0
8531,76.0,0.0,240.0,0.0,0.0
8532,42.0,0.0,390.0,5.0,0.0
8533,52.0,24.0,90.0,10.0,0.0
8534,52.0,0.0,90.0,11.0,0.0
8535,51.0,0.0,90.0,10.0,0.0
8536,75.0,96.0,240.0,0.0,0.0
8537,35.0,0.0,180.0,14.0,0.0
8538,51.0,48.0,90.0,11.0,0.0
8539,47.0,0.0,180.0,13.0,0.0
8540,47.0,0.0,240.0,2.0,0.0
8541,47.0,24.0,180.0,12.0,0.0
8542,51.0,0.0,240.0,2.0,0.0
8543,63.0,0.0,240.0,1.0,0.0
8544,59.0,0.0,240.0,1.0,0.0
8545,51.0,24.0,90.0,10.0,0.0
8546,51.0,0.0,90.0,11.0,0.0
8547,34.0,0.0,240.0,14.0,0.0
8548,46.0,0.0,240.0,13.0,0.0
8549,52.0,120.0,90.0,10.0,0.0
8550,66.0,0.0,390.0,4.0,0.0
8551,61.0,0.0,240.0,1.0,0.0
8552,64.0,96.0,240.0,1.0,0.0
8553,54.0,48.0,390.0,3.0,0.0
8554,52.0,0.0,90.0,11.0,0.0
8555,49.0,0.0,240.0,2.0,0.0
8556,52.0,0.0,240.0,2.0,0.0
8557,42.0,0.0,390.0,5.0,0.0
8558,76.0,0.0,240.0,0.0,0.0
8559,49.0,0.0,240.0,12.0,0.0
8560,52.0,24.0,90.0,11.0,0.0
8561,52.0,0.0,90.0,10.0,0.0
8562,75.0,0.0,240.0,0.0,0.0
8563,63.0,0.0,240.0,1.0,0.0
8564,47.0,0.0,180.0,12.0,0.0
8565,59.0,0.0,240.0,1.0,0.0
8566,35.0,0.0,180.0,14.0,0.0
8567,47.0,96.0,240.0,2.0,0.0
8568,47.0,24.0,180.0,13.0,0.0
8569,51.0,48.0,90.0,11.0,0.0
8570,51.0,0.0,90.0,10.0,0.0
8571,51.0,0.0,240.0,2.0,0.0
8572,51.0,0.0,90.0,10.0,0.0
8573,51.0,24.0,90.0,11.0,0.0
8574,46.0,0.0,240.0,13.0,0.0
8575,54.0,0.0,390.0,3.0,0.0
8576,76.0,0.0,240.0,0.0,0.0
8577,66.0,48.0,390.0,4.0,0.0
8578,52.0,0.0,90.0,11.0,0.0
8579,49.0,0.0,240.0,2.0,0.0
8580,52.0,120.0,90.0,10.0,0.0
8581,42.0,0.0,390.0,5.0,0.0
8582,52.0,0.0,240.0,2.0,0.0
8583,49.0,96.0,240.0,12.0,0.0
8584,34.0,0.0,240.0,14.0,0.0
8585,64.0,0.0,240.0,1.0,0.0
8586,61.0,0.0,240.0,1.0,0.0
8587,52.0,0.0,90.0,11.0,0.0
8588,52.0,24.0,90.0,10.0,0.0
8589,47.0,0.0,180.0,2.0,0.0
8590,51.0,0.0,180.0,2.0,0.0
8591,35.0,24.0,180.0,14.0,0.0
8592,51.0,0.0,90.0,10.0,0.0
8593,51.0,48.0,90.0,11.0,0.0
8594,75.0,0.0,180.0,0.0,0.0
8595,47.0,0.0,180.0,13.0,0.0
8596,63.0,0.0,180.0,1.0,0.0
8597,59.0,0.0,180.0,1.0,0.0
8598,47.0,0.0,180.0,12.0,0.0
8599,51.0,0.0,90.0,11.0,0.0
8600,51.0,120.0,90.0,10.0,0.0
8601,71.0,0.0,390.0,4.0,0.0
8602,73.0,0.0,390.0,4.0,0.0
8603,41.0,0.0,390.0,13.0,0.0
8604,44.0,0.0,390.0,2.0,0.0
8605,59.0,120.0,90.0,10.0,0.0
8606,56.0,72.0,390.0,12.0,0.0
8607,29.0,0.0,390.0,14.0,0.0
8608,56.0,0.0,390.0,1.0,0.0
8609,61.0,0.0,390.0,1.0,0.0
8610,61.0,0.0,390.0,3.0,0.0
8611,59.0,0.0,390.0,3.0,0.0
8612,59.0,0.0,90.0,11.0,0.0
8613,49.0,0.0,390.0,2.0,0.0
8614,73.0,0.0,390.0,0.0,0.0
8615,59.0,120.0,90.0,10.0,0.0
8616,59.0,0.0,90.0,11.0,0.0
8617,71.0,48.0,90.0,10.0,0.0
8618,71.0,0.0,90.0,11.0,0.0
8619,71.0,120.0,90.0,10.0,0.0
8620,71.0,0.0,90.0,11.0,0.0
8621,68.0,120.0,90.0,11.0,0.0
8622,68.0,0.0,90.0,10.0,0.0
8623,68.0,0.0,90.0,11.0,0.0
8624,68.0,120.0,90.0,10.0,0.0
8625,65.0,0.0,90.0,11.0,0.0
8626,65.0,120.0,90.0,10.0,0.0
8627,65.0,120.0,90.0,10.0,0.0
8628,65.0,0.0,90.0,11.0,0.0
8629,59.0,0.0,90.0,11.0,0.0
8630,59.0,120.0,90.0,10.0,0.0
8631,59.0,0.0,90.0,11.0,0.0
8632,59.0,120.0,90.0,10.0,0.0
8633,56.0,0.0,90.0,11.0,0.0
8634,56.0,120.0,90.0,10.0,0.0
8635,56.0,120.0,90.0,11.0,0.0
8636,56.0,0.0,90.0,10.0,0.0
8637,53.0,120.0,90.0,10.0,0.0
8638,61.0,0.0,390.0,3.0,0.0
8639,35.0,0.0,240.0,14.0,0.0
8640,44.0,0.0,240.0,12.0,0.0
8641,56.0,0.0,240.0,2.0,0.0
8642,65.0,0.0,240.0,1.0,0.0
8643,68.0,0.0,240.0,1.0,0.0
8644,73.0,48.0,390.0,4.0,0.0
8645,47.0,96.0,240.0,13.0,0.0
8646,77.0,0.0,240.0,0.0,0.0
8647,53.0,0.0,240.0,2.0,0.0
8648,53.0,0.0,90.0,11.0,0.0
8649,53.0,24.0,90.0,11.0,0.0
8650,53.0,0.0,90.0,10.0,0.0
8651,58.0,0.0,240.0,2.0,0.0
8652,54.0,0.0,240.0,2.0,0.0
8653,34.0,0.0,180.0,14.0,0.0
8654,70.0,96.0,240.0,1.0,0.0
8655,66.0,0.0,240.0,1.0,0.0
8656,46.0,24.0,180.0,13.0,0.0
8657,46.0,0.0,180.0,12.0,0.0
8658,54.0,48.0,90.0,10.0,0.0
8659,54.0,0.0,90.0,11.0,0.0
8660,78.0,0.0,240.0,0.0,0.0
8661,54.0,24.0,90.0,10.0,0.0
8662,54.0,0.0,90.0,11.0,0.0
8663,35.0,0.0,240.0,14.0,0.0
8664,44.0,0.0,240.0,12.0,0.0
8665,77.0,0.0,240.0,0.0,0.0
8666,61.0,48.0,390.0,3.0,0.0
8667,53.0,0.0,90.0,11.0,0.0
8668,47.0,0.0,240.0,13.0,0.0
8669,68.0,0.0,240.0,1.0,0.0
8670,65.0,0.0,240.0,1.0,0.0
8671,53.0,120.0,90.0,10.0,0.0
8672,56.0,96.0,240.0,2.0,0.0
8673,53.0,0.0,240.0,2.0,0.0
8674,73.0,0.0,390.0,4.0,0.0
8675,53.0,0.0,90.0,10.0,0.0
8676,53.0,24.0,90.0,11.0,0.0
8677,46.0,24.0,180.0,12.0,0.0
8678,46.0,0.0,180.0,13.0,0.0
8679,70.0,0.0,240.0,1.0,0.0
8680,58.0,96.0,240.0,2.0,0.0
8681,66.0,0.0,240.0,1.0,0.0
8682,34.0,0.0,180.0,14.0,0.0
8683,54.0,48.0,90.0,10.0,0.0
8684,54.0,0.0,90.0,11.0,0.0
8685,54.0,0.0,240.0,2.0,0.0
8686,78.0,0.0,240.0,0.0,0.0
8687,54.0,24.0,90.0,11.0,0.0
8688,54.0,0.0,90.0,10.0,0.0
8689,53.0,120.0,90.0,10.0,0.0
8690,35.0,0.0,240.0,14.0,0.0
8691,53.0,0.0,90.0,11.0,0.0
8692,73.0,48.0,390.0,4.0,0.0
8693,53.0,96.0,240.0,2.0,0.0
8694,56.0,0.0,240.0,2.0,0.0
8695,44.0,0.0,240.0,12.0,0.0
8696,47.0,0.0,240.0,13.0,0.0
8697,65.0,0.0,240.0,1.0,0.0
8698,68.0,0.0,240.0,1.0,0.0
8699,77.0,0.0,240.0,0.0,0.0
8700,61.0,0.0,390.0,3.0,0.0
8701,53.0,24.0,90.0,11.0,0.0
8702,53.0,0.0,90.0,10.0,0.0
8703,78.0,0.0,180.0,0.0,0.0
8704,46.0,24.0,180.0,12.0,0.0
8705,34.0,0.0,180.0,14.0,0.0
8706,70.0,0.0,180.0,1.0,0.0
8707,54.0,0.0,90.0,11.0,0.0
8708,66.0,0.0,180.0,1.0,0.0
8709,46.0,0.0,180.0,13.0,0.0
8710,54.0,48.0,90.0,10.0,0.0
8711,58.0,0.0,180.0,2.0,0.0
8712,54.0,0.0,180.0,2.0,0.0
8713,54.0,0.0,90.0,11.0,0.0
8714,54.0,120.0,90.0,10.0,0.0
8715,51.0,0.0,150.0,2.0,0.0
8716,47.0,0.0,150.0,2.0,0.0
8717,56.0,0.0,90.0,10.0,0.0
8718,51.0,60.0,150.0,12.0,0.0
8719,35.0,0.0,150.0,14.0,0.0
8720,68.0,0.0,150.0,1.0,0.0
8721,47.0,0.0,150.0,13.0,0.0
8722,56.0,48.0,90.0,11.0,0.0
8723,68.0,12.0,150.0,0.0,0.0
8724,56.0,120.0,90.0,10.0,0.0
8725,56.0,0.0,90.0,11.0,0.0
8726,53.0,0.0,150.0,12.0,0.0
8727,37.0,60.0,150.0,14.0,0.0
8728,70.0,0.0,150.0,1.0,0.0
8729,53.0,0.0,150.0,2.0,0.0
8730,49.0,0.0,150.0,2.0,0.0
8731,58.0,48.0,90.0,10.0,0.0
8732,49.0,0.0,150.0,13.0,0.0
8733,58.0,0.0,90.0,11.0,0.0
8734,70.0,12.0,150.0,0.0,0.0
8735,58.0,120.0,90.0,10.0,0.0
8736,58.0,0.0,90.0,11.0,0.0
8737,39.0,0.0,150.0,14.0,0.0
8738,54.0,60.0,150.0,12.0,0.0
8739,54.0,0.0,150.0,2.0,0.0
8740,51.0,0.0,150.0,2.0,0.0
8741,71.0,0.0,150.0,0.0,0.0
8742,59.0,48.0,90.0,11.0,0.0
8743,71.0,12.0,150.0,1.0,0.0
8744,51.0,0.0,150.0,13.0,0.0
8745,59.0,0.0,90.0,10.0,0.0
8746,59.0,0.0,90.0,11.0,0.0
8747,59.0,120.0,90.0,10.0,0.0
8748,53.0,0.0,150.0,2.0,0.0
8749,61.0,0.0,90.0,10.0,0.0
8750,56.0,0.0,150.0,2.0,0.0
8751,73.0,0.0,150.0,1.0,0.0
8752,41.0,0.0,150.0,14.0,0.0
8753,73.0,12.0,150.0,0.0,0.0
8754,61.0,48.0,90.0,11.0,0.0
8755,53.0,0.0,150.0,13.0,0.0
8756,56.0,60.0,150.0,12.0,0.0
8757,61.0,0.0,90.0,10.0,0.0
8758,61.0,120.0,90.0,11.0,0.0
8759,75.0,0.0,150.0,0.0,0.0
8760,54.0,0.0,150.0,13.0,0.0
8761,58.0,12.0,150.0,2.0,0.0
8762,63.0,0.0,90.0,11.0,0.0
8763,63.0,48.0,90.0,10.0,0.0
8764,54.0,0.0,150.0,2.0,0.0
8765,58.0,60.0,150.0,12.0,0.0
8766,75.0,0.0,150.0,1.0,0.0
8767,42.0,0.0,150.0,14.0,0.0
8768,63.0,120.0,90.0,11.0,0.0
8769,63.0,0.0,90.0,10.0,0.0
8770,59.0,0.0,150.0,12.0,0.0
8771,77.0,0.0,150.0,0.0,0.0
8772,77.0,0.0,150.0,1.0,0.0
8773,56.0,12.0,150.0,2.0,0.0
8774,65.0,0.0,90.0,11.0,0.0
8775,65.0,48.0,90.0,10.0,0.0
8776,44.0,0.0,150.0,14.0,0.0
8777,56.0,60.0,150.0,13.0,0.0
8778,59.0,0.0,150.0,2.0,0.0
8779,65.0,120.0,90.0,10.0,0.0
8780,65.0,0.0,90.0,11.0,0.0
8781,78.0,12.0,150.0,1.0,0.0
8782,66.0,0.0,90.0,10.0,0.0
8783,58.0,0.0,150.0,2.0,0.0
8784,61.0,0.0,150.0,2.0,0.0
8785,46.0,0.0,150.0,14.0,0.0
8786,78.0,0.0,150.0,0.0,0.0
8787,73.0,48.0,570.0,4.0,0.0
8788,61.0,60.0,150.0,12.0,0.0
8789,61.0,0.0,570.0,3.0,0.0
8790,66.0,48.0,90.0,11.0,0.0
8791,58.0,0.0,150.0,13.0,0.0
8792,66.0,0.0,90.0,11.0,0.0
8793,66.0,120.0,90.0,10.0,0.0
8794,61.0,48.0,420.0,12.0,0.0
8795,41.0,60.0,150.0,14.0,0.0
8796,53.0,12.0,150.0,2.0,0.0
8797,80.0,0.0,150.0,0.0,0.0
8798,68.0,0.0,90.0,11.0,0.0
8799,68.0,48.0,90.0,10.0,0.0
8800,68.0,0.0,150.0,1.0,0.0
8801,53.0,0.0,150.0,13.0,0.0
8802,68.0,120.0,90.0,10.0,0.0
8803,68.0,0.0,90.0,11.0,0.0
8804,54.0,0.0,150.0,2.0,0.0
8805,70.0,0.0,90.0,11.0,0.0
8806,82.0,12.0,150.0,0.0,0.0
8807,54.0,12.0,150.0,13.0,0.0
8808,70.0,0.0,90.0,10.0,0.0
8809,42.0,0.0,150.0,14.0,0.0
8810,70.0,0.0,150.0,1.0,0.0
8811,70.0,0.0,90.0,11.0,0.0
8812,70.0,120.0,90.0,10.0,0.0
8813,71.0,12.0,150.0,1.0,0.0
8814,39.0,0.0,150.0,14.0,0.0
8815,71.0,0.0,90.0,11.0,0.0
8816,51.0,0.0,150.0,2.0,0.0
8817,66.0,24.0,420.0,12.0,0.0
8818,66.0,24.0,180.0,4.0,0.0
8819,51.0,36.0,150.0,13.0,0.0
8820,71.0,48.0,90.0,10.0,0.0
8821,54.0,0.0,180.0,3.0,0.0
8822,83.0,0.0,150.0,0.0,0.0
8823,71.0,0.0,90.0,10.0,0.0
8824,71.0,120.0,90.0,11.0,0.0
8825,73.0,48.0,90.0,10.0,0.0
8826,49.0,0.0,150.0,13.0,0.0
8827,66.0,0.0,180.0,4.0,0.0
8828,54.0,24.0,180.0,3.0,0.0
8829,85.0,12.0,150.0,0.0,0.0
8830,73.0,0.0,150.0,1.0,0.0
8831,49.0,0.0,150.0,2.0,0.0
8832,37.0,12.0,150.0,14.0,0.0
8833,73.0,0.0,90.0,11.0,0.0
8834,73.0,0.0,90.0,10.0,0.0
8835,73.0,120.0,90.0,11.0,0.0
8836,66.0,0.0,180.0,4.0,0.0
8837,54.0,24.0,180.0,3.0,0.0
8838,47.0,0.0,150.0,2.0,0.0
8839,75.0,0.0,90.0,11.0,0.0
8840,35.0,0.0,150.0,14.0,0.0
8841,87.0,12.0,150.0,0.0,0.0
8842,75.0,0.0,150.0,1.0,0.0
8843,66.0,0.0,150.0,12.0,0.0
8844,75.0,48.0,90.0,10.0,0.0
8845,47.0,36.0,150.0,13.0,0.0
8846,75.0,216.0,90.0,11.0,0.0
8847,75.0,0.0,90.0,10.0,0.0
8848,73.0,192.0,1140.0,1.0,0.0
8849,73.0,0.0,780.0,4.0,0.0
8850,76.0,0.0,1140.0,1.0,0.0
8851,67.0,0.0,180.0,12.0,0.0
8852,79.0,0.0,1140.0,0.0,0.0
8853,76.0,0.0,780.0,11.0,0.0
8854,52.0,0.0,1140.0,2.0,0.0
8855,76.0,0.0,780.0,10.0,0.0
8856,34.0,0.0,180.0,14.0,0.0
8857,64.0,144.0,780.0,3.0,0.0
8858,61.0,0.0,780.0,3.0,0.0
8859,46.0,240.0,180.0,13.0,0.0
8860,55.0,0.0,1140.0,2.0,0.0
8861,46.0,240.0,180.0,13.0,0.0
8862,34.0,0.0,180.0,14.0,0.0
8863,67.0,0.0,180.0,12.0,0.0
8864,46.0,0.0,180.0,13.0,0.0
8865,67.0,0.0,180.0,12.0,0.0
8866,34.0,96.0,180.0,14.0,0.0
8867,67.0,0.0,180.0,12.0,0.0
8868,46.0,0.0,180.0,13.0,0.0
8869,34.0,240.0,180.0,14.0,0.0
8870,73.0,0.0,390.0,4.0,0.0
8871,34.0,0.0,180.0,14.0,0.0
8872,76.0,0.0,390.0,11.0,0.0
8873,46.0,0.0,180.0,13.0,0.0
8874,67.0,0.0,180.0,12.0,0.0
8875,64.0,0.0,390.0,3.0,0.0
8876,76.0,0.0,390.0,10.0,0.0
8877,61.0,48.0,390.0,3.0,0.0
8878,34.0,0.0,180.0,14.0,0.0
8879,67.0,144.0,180.0,12.0,0.0
8880,46.0,0.0,180.0,13.0,0.0
8881,80.0,0.0,1140.0,0.0,0.0
8882,59.0,24.0,390.0,3.0,0.0
8883,35.0,0.0,180.0,14.0,0.0
8884,56.0,0.0,1140.0,2.0,0.0
8885,51.0,0.0,1140.0,2.0,0.0
8886,75.0,0.0,1140.0,1.0,0.0
8887,74.0,0.0,90.0,11.0,0.0
8888,71.0,240.0,1140.0,1.0,0.0
8889,63.0,0.0,390.0,3.0,0.0
8890,68.0,0.0,180.0,12.0,0.0
8891,71.0,0.0,390.0,4.0,0.0
8892,74.0,96.0,90.0,10.0,0.0
8893,47.0,192.0,180.0,13.0,0.0
8894,75.0,24.0,300.0,11.0,0.0
8895,75.0,0.0,300.0,10.0,0.0
8896,47.0,0.0,180.0,13.0,0.0
8897,68.0,240.0,180.0,12.0,0.0
8898,35.0,0.0,180.0,14.0,0.0
8899,75.0,0.0,390.0,10.0,0.0
8900,68.0,192.0,180.0,12.0,0.0
8901,59.0,48.0,390.0,3.0,0.0
8902,63.0,0.0,390.0,3.0,0.0
8903,35.0,0.0,180.0,14.0,0.0
8904,75.0,0.0,390.0,11.0,0.0
8905,47.0,0.0,180.0,13.0,0.0
8906,71.0,0.0,390.0,4.0,0.0
8907,35.0,0.0,180.0,14.0,0.0
8908,47.0,0.0,180.0,13.0,0.0
8909,68.0,240.0,180.0,12.0,0.0
8910,35.0,0.0,180.0,14.0,0.0
8911,47.0,0.0,180.0,13.0,0.0
8912,68.0,0.0,180.0,12.0,0.0
8913,47.0,240.0,180.0,13.0,0.0
8914,68.0,0.0,180.0,12.0,0.0
8915,35.0,0.0,180.0,14.0,0.0
8916,69.0,240.0,180.0,12.0,0.0
8917,36.0,0.0,180.0,14.0,0.0
8918,78.0,96.0,660.0,10.0,0.0
8919,75.0,144.0,780.0,4.0,0.0
8920,48.0,0.0,180.0,13.0,0.0
8921,78.0,0.0,660.0,11.0,0.0
8922,66.0,0.0,780.0,4.0,0.0
8923,78.0,0.0,2580.0,1.0,0.0
8924,81.0,0.0,1140.0,0.0,0.0
8925,75.0,0.0,1140.0,1.0,0.0
8926,63.0,0.0,780.0,3.0,0.0
8927,51.0,0.0,1140.0,2.0,0.0
8928,57.0,48.0,1140.0,2.0,0.0
8929,54.0,0.0,780.0,3.0,0.0
8930,48.0,0.0,180.0,13.0,0.0
8931,36.0,240.0,180.0,14.0,0.0
8932,69.0,0.0,180.0,12.0,0.0
8933,69.0,0.0,180.0,12.0,0.0
8934,36.0,0.0,180.0,14.0,0.0
8935,48.0,0.0,180.0,13.0,0.0
8936,36.0,0.0,180.0,14.0,0.0
8937,69.0,24.0,180.0,12.0,0.0
8938,48.0,0.0,180.0,13.0,0.0
8939,78.0,84.0,90.0,10.0,0.0
8940,78.0,0.0,90.0,11.0,0.0
8941,54.0,36.0,390.0,3.0,0.0
8942,80.0,0.0,60.0,11.0,0.0
8943,48.0,0.0,180.0,13.0,0.0
8944,80.0,60.0,60.0,10.0,0.0
8945,63.0,0.0,390.0,3.0,0.0
8946,36.0,0.0,180.0,14.0,0.0
8947,69.0,0.0,180.0,12.0,0.0
8948,75.0,0.0,390.0,4.0,0.0
8949,66.0,0.0,390.0,4.0,0.0
8950,78.0,60.0,60.0,10.0,0.0
8951,78.0,0.0,60.0,11.0,0.0
8952,80.0,12.0,60.0,11.0,0.0
8953,80.0,0.0,60.0,10.0,0.0
8954,78.0,60.0,60.0,10.0,0.0
8955,78.0,0.0,60.0,11.0,0.0
8956,36.0,0.0,180.0,14.0,0.0
8957,80.0,60.0,60.0,11.0,0.0
8958,80.0,0.0,60.0,10.0,0.0
8959,48.0,0.0,180.0,13.0,0.0
8960,69.0,36.0,180.0,12.0,0.0
8961,78.0,24.0,60.0,10.0,0.0
8962,78.0,0.0,60.0,11.0,0.0
8963,77.0,0.0,60.0,11.0,0.0
8964,77.0,12.0,60.0,10.0,0.0
8965,78.0,204.0,60.0,10.0,0.0
8966,78.0,0.0,60.0,11.0,0.0
8967,37.0,0.0,180.0,14.0,0.0
8968,61.0,0.0,1140.0,3.0,0.0
8969,54.0,0.0,1140.0,2.0,0.0
8970,73.0,0.0,1140.0,1.0,0.0
8971,70.0,240.0,180.0,12.0,0.0
8972,82.0,240.0,660.0,10.0,0.0
8973,82.0,96.0,1140.0,0.0,0.0
8974,73.0,0.0,1140.0,4.0,0.0
8975,82.0,0.0,660.0,11.0,0.0
8976,49.0,0.0,180.0,13.0,0.0
8977,58.0,0.0,1140.0,2.0,0.0
8978,66.0,240.0,180.0,12.0,0.0
8979,37.0,0.0,180.0,14.0,0.0
8980,49.0,0.0,180.0,13.0,0.0
8981,37.0,0.0,180.0,14.0,0.0
8982,49.0,0.0,180.0,13.0,0.0
8983,66.0,0.0,180.0,12.0,0.0
8984,37.0,0.0,180.0,14.0,0.0
8985,49.0,24.0,180.0,13.0,0.0
8986,66.0,0.0,180.0,12.0,0.0
8987,78.0,216.0,90.0,10.0,0.0
8988,78.0,0.0,90.0,11.0,0.0
8989,66.0,0.0,180.0,12.0,0.0
8990,82.0,0.0,300.0,10.0,0.0
8991,82.0,144.0,300.0,11.0,0.0
8992,37.0,0.0,180.0,14.0,0.0
8993,49.0,0.0,180.0,13.0,0.0
8994,66.0,24.0,180.0,12.0,0.0
8995,49.0,0.0,180.0,13.0,0.0
8996,37.0,0.0,180.0,14.0,0.0
8997,78.0,0.0,90.0,10.0,0.0
8998,78.0,216.0,90.0,11.0,0.0
8999,83.0,0.0,1140.0,0.0,0.0
9000,83.0,0.0,270.0,11.0,0.0
9001,49.0,72.0,180.0,13.0,0.0
9002,37.0,0.0,180.0,14.0,0.0
9003,61.0,48.0,390.0,3.0,0.0
9004,53.0,0.0,1140.0,2.0,0.0
9005,56.0,0.0,1140.0,2.0,0.0
9006,73.0,0.0,390.0,4.0,0.0
9007,80.0,0.0,1140.0,1.0,0.0
9008,83.0,120.0,270.0,10.0,0.0
9009,77.0,0.0,1140.0,1.0,0.0
9010,65.0,0.0,180.0,12.0,0.0
9011,49.0,0.0,180.0,13.0,0.0
9012,37.0,240.0,180.0,14.0,0.0
9013,65.0,0.0,180.0,12.0,0.0
9014,73.0,0.0,390.0,4.0,0.0
9015,37.0,72.0,180.0,14.0,0.0
9016,80.0,0.0,270.0,10.0,0.0
9017,49.0,0.0,180.0,13.0,0.0
9018,80.0,120.0,270.0,11.0,0.0
9019,61.0,48.0,390.0,3.0,0.0
9020,68.0,0.0,180.0,12.0,0.0
9021,37.0,240.0,180.0,14.0,0.0
9022,68.0,0.0,180.0,12.0,0.0
9023,49.0,0.0,180.0,13.0,0.0
9024,77.0,0.0,270.0,10.0,0.0
9025,77.0,120.0,270.0,11.0,0.0
9026,61.0,48.0,390.0,3.0,0.0
9027,73.0,0.0,390.0,4.0,0.0
9028,49.0,0.0,180.0,13.0,0.0
9029,37.0,0.0,180.0,14.0,0.0
9030,71.0,72.0,180.0,12.0,0.0
9031,49.0,240.0,180.0,13.0,0.0
9032,37.0,0.0,180.0,14.0,0.0
9033,71.0,0.0,180.0,12.0,0.0
9034,82.0,192.0,1140.0,0.0,0.0
9035,67.0,192.0,180.0,12.0,0.0
9036,73.0,96.0,780.0,4.0,0.0
9037,76.0,48.0,870.0,10.0,0.0
9038,58.0,0.0,390.0,10.0,0.0
9039,67.0,48.0,390.0,10.0,0.0
9040,61.0,0.0,780.0,3.0,0.0
9041,49.0,0.0,180.0,13.0,0.0
9042,76.0,0.0,870.0,11.0,0.0
9043,55.0,0.0,1140.0,2.0,0.0
9044,58.0,0.0,1140.0,2.0,0.0
9045,58.0,0.0,390.0,11.0,0.0
9046,67.0,0.0,390.0,11.0,0.0
9047,79.0,0.0,1140.0,1.0,0.0
9048,76.0,0.0,1140.0,1.0,0.0
9049,37.0,0.0,180.0,14.0,0.0
9050,64.0,0.0,780.0,3.0,0.0
9051,67.0,0.0,180.0,12.0,0.0
9052,49.0,0.0,180.0,13.0,0.0
9053,37.0,240.0,180.0,14.0,0.0
9054,49.0,0.0,180.0,13.0,0.0
9055,67.0,96.0,180.0,12.0,0.0
9056,37.0,0.0,180.0,14.0,0.0
9057,67.0,240.0,180.0,12.0,0.0
9058,49.0,0.0,180.0,13.0,0.0
9059,37.0,0.0,180.0,14.0,0.0
9060,37.0,0.0,180.0,14.0,0.0
9061,76.0,0.0,390.0,10.0,0.0
9062,76.0,0.0,390.0,11.0,0.0
9063,61.0,0.0,390.0,3.0,0.0
9064,49.0,0.0,180.0,13.0,0.0
9065,73.0,48.0,390.0,4.0,0.0
9066,64.0,0.0,390.0,3.0,0.0
9067,67.0,0.0,180.0,12.0,0.0
9068,49.0,144.0,180.0,13.0,0.0
9069,67.0,0.0,180.0,12.0,0.0
9070,37.0,0.0,180.0,14.0,0.0
9071,35.0,0.0,180.0,14.0,0.0
9072,83.0,0.0,1140.0,0.0,0.0
9073,75.0,240.0,1140.0,1.0,0.0
9074,80.0,0.0,1140.0,1.0,0.0
9075,68.0,192.0,180.0,12.0,0.0
9076,63.0,24.0,390.0,3.0,0.0
9077,56.0,0.0,1140.0,2.0,0.0
9078,74.0,0.0,90.0,10.0,0.0
9079,59.0,0.0,1140.0,2.0,0.0
9080,71.0,0.0,390.0,4.0,0.0
9081,74.0,96.0,90.0,11.0,0.0
9082,47.0,0.0,180.0,13.0,0.0
9083,59.0,0.0,390.0,3.0,0.0
9084,75.0,0.0,300.0,10.0,0.0
9085,75.0,24.0,300.0,11.0,0.0
9086,47.0,240.0,180.0,13.0,0.0
9087,68.0,0.0,180.0,12.0,0.0
9088,35.0,0.0,180.0,14.0,0.0
9089,63.0,0.0,390.0,3.0,0.0
9090,75.0,0.0,390.0,10.0,0.0
9091,68.0,0.0,180.0,12.0,0.0
9092,59.0,0.0,390.0,3.0,0.0
9093,71.0,0.0,390.0,4.0,0.0
9094,35.0,0.0,180.0,14.0,0.0
9095,47.0,192.0,180.0,13.0,0.0
9096,75.0,48.0,390.0,11.0,0.0
9097,47.0,0.0,180.0,13.0,0.0
9098,68.0,0.0,180.0,12.0,0.0
9099,35.0,240.0,180.0,14.0,0.0
9100,68.0,0.0,180.0,12.0,0.0
9101,35.0,0.0,180.0,14.0,0.0
9102,47.0,0.0,180.0,13.0,0.0
9103,68.0,0.0,180.0,12.0,0.0
9104,35.0,0.0,180.0,14.0,0.0
9105,47.0,240.0,180.0,13.0,0.0
9106,66.0,0.0,780.0,4.0,0.0
9107,75.0,0.0,780.0,4.0,0.0
9108,81.0,0.0,1140.0,1.0,0.0
9109,51.0,0.0,180.0,13.0,0.0
9110,78.0,0.0,660.0,11.0,0.0
9111,84.0,0.0,1140.0,0.0,0.0
9112,60.0,0.0,1140.0,2.0,0.0
9113,57.0,0.0,1140.0,2.0,0.0
9114,63.0,144.0,780.0,3.0,0.0
9115,54.0,0.0,780.0,3.0,0.0
9116,39.0,0.0,180.0,14.0,0.0
9117,78.0,96.0,660.0,10.0,0.0
9118,78.0,0.0,1140.0,1.0,0.0
9119,69.0,240.0,180.0,12.0,0.0
9120,51.0,0.0,180.0,13.0,0.0
9121,39.0,240.0,180.0,14.0,0.0
9122,69.0,0.0,180.0,12.0,0.0
9123,69.0,0.0,180.0,12.0,0.0
9124,39.0,0.0,180.0,14.0,0.0
9125,51.0,0.0,180.0,13.0,0.0
9126,39.0,0.0,180.0,14.0,0.0
9127,69.0,0.0,180.0,12.0,0.0
9128,51.0,24.0,180.0,13.0,0.0
9129,78.0,0.0,90.0,10.0,0.0
9130,78.0,84.0,90.0,11.0,0.0
9131,80.0,60.0,60.0,10.0,0.0
9132,69.0,0.0,180.0,12.0,0.0
9133,66.0,36.0,390.0,4.0,0.0
9134,63.0,0.0,390.0,3.0,0.0
9135,80.0,0.0,60.0,11.0,0.0
9136,39.0,0.0,180.0,14.0,0.0
9137,51.0,48.0,180.0,13.0,0.0
9138,75.0,0.0,390.0,4.0,0.0
9139,54.0,0.0,390.0,3.0,0.0
9140,78.0,0.0,60.0,11.0,0.0
9141,78.0,60.0,60.0,10.0,0.0
9142,80.0,12.0,60.0,11.0,0.0
9143,80.0,0.0,60.0,10.0,0.0
9144,78.0,60.0,60.0,11.0,0.0
9145,78.0,0.0,60.0,10.0,0.0
9146,39.0,0.0,180.0,14.0,0.0
9147,80.0,0.0,60.0,10.0,0.0
9148,80.0,60.0,60.0,11.0,0.0
9149,69.0,36.0,180.0,12.0,0.0
9150,51.0,0.0,180.0,13.0,0.0
9151,78.0,0.0,60.0,11.0,0.0
9152,78.0,24.0,60.0,10.0,0.0
9153,77.0,0.0,60.0,11.0,0.0
9154,77.0,12.0,60.0,10.0,0.0
9155,78.0,0.0,60.0,11.0,0.0
9156,78.0,204.0,60.0,10.0,0.0
9157,73.0,0.0,1140.0,4.0,0.0
9158,82.0,0.0,1140.0,1.0,0.0
9159,78.0,0.0,1140.0,1.0,0.0
9160,58.0,192.0,960.0,2.0,0.0
9161,70.0,0.0,180.0,12.0,0.0
9162,61.0,0.0,960.0,2.0,0.0
9163,85.0,0.0,1140.0,0.0,0.0
9164,49.0,240.0,180.0,13.0,0.0
9165,61.0,0.0,1140.0,3.0,0.0
9166,37.0,0.0,180.0,14.0,0.0
9167,82.0,0.0,660.0,10.0,0.0
9168,82.0,0.0,660.0,11.0,0.0
9169,66.0,240.0,180.0,12.0,0.0
9170,37.0,0.0,180.0,14.0,0.0
9171,49.0,0.0,180.0,13.0,0.0
9172,49.0,0.0,180.0,13.0,0.0
9173,37.0,0.0,180.0,14.0,0.0
9174,66.0,240.0,180.0,12.0,0.0
9175,66.0,0.0,180.0,12.0,0.0
9176,49.0,0.0,180.0,13.0,0.0
9177,37.0,24.0,180.0,14.0,0.0
9178,78.0,24.0,90.0,11.0,0.0
9179,78.0,0.0,90.0,10.0,0.0
9180,37.0,0.0,180.0,14.0,0.0
9181,82.0,0.0,300.0,10.0,0.0
9182,66.0,96.0,180.0,12.0,0.0
9183,54.0,0.0,390.0,2.0,0.0
9184,58.0,48.0,390.0,2.0,0.0
9185,49.0,0.0,180.0,13.0,0.0
9186,82.0,96.0,300.0,11.0,0.0
9187,66.0,0.0,180.0,12.0,0.0
9188,37.0,0.0,180.0,14.0,0.0
9189,49.0,24.0,180.0,13.0,0.0
9190,78.0,0.0,90.0,11.0,0.0
9191,78.0,216.0,90.0,10.0,0.0
9192,65.0,72.0,180.0,12.0,0.0
9193,77.0,0.0,1140.0,0.0,0.0
9194,83.0,0.0,270.0,11.0,0.0
9195,37.0,0.0,180.0,14.0,0.0
9196,59.0,192.0,960.0,2.0,0.0
9197,61.0,0.0,390.0,3.0,0.0
9198,73.0,48.0,390.0,4.0,0.0
9199,68.0,0.0,1140.0,1.0,0.0
9200,49.0,0.0,180.0,13.0,0.0
9201,71.0,0.0,1140.0,1.0,0.0
9202,83.0,120.0,270.0,10.0,0.0
9203,49.0,0.0,180.0,13.0,0.0
9204,37.0,240.0,180.0,14.0,0.0
9205,65.0,0.0,180.0,12.0,0.0
9206,73.0,48.0,390.0,4.0,0.0
9207,61.0,0.0,390.0,3.0,0.0
9208,68.0,72.0,180.0,12.0,0.0
9209,80.0,0.0,270.0,10.0,0.0
9210,49.0,0.0,180.0,13.0,0.0
9211,80.0,120.0,270.0,11.0,0.0
9212,37.0,0.0,180.0,14.0,0.0
9213,37.0,0.0,180.0,14.0,0.0
9214,49.0,0.0,180.0,13.0,0.0
9215,68.0,48.0,180.0,12.0,0.0
9216,53.0,0.0,390.0,2.0,0.0
9217,56.0,0.0,15.0,2.0,0.0
9218,49.0,0.0,180.0,13.0,0.0
9219,61.0,0.0,390.0,3.0,0.0
9220,77.0,0.0,270.0,10.0,0.0
9221,77.0,120.0,270.0,11.0,0.0
9222,37.0,72.0,180.0,14.0,0.0
9223,73.0,48.0,390.0,4.0,0.0
9224,71.0,0.0,180.0,12.0,0.0
9225,37.0,0.0,180.0,14.0,0.0
9226,49.0,144.0,180.0,13.0,0.0
9227,71.0,0.0,180.0,12.0,0.0
9228,66.0,0.0,390.0,4.0,0.0
9229,73.0,0.0,390.0,4.0,0.0
9230,42.0,0.0,390.0,14.0,0.0
9231,42.0,0.0,390.0,5.0,0.0
9232,70.0,0.0,390.0,12.0,0.0
9233,78.0,0.0,390.0,0.0,0.0
9234,54.0,0.0,390.0,2.0,0.0
9235,54.0,0.0,390.0,3.0,0.0
9236,78.0,120.0,90.0,10.0,0.0
9237,61.0,0.0,390.0,3.0,0.0
9238,70.0,72.0,390.0,1.0,0.0
9239,54.0,0.0,390.0,13.0,0.0
9240,78.0,0.0,90.0,11.0,0.0
9241,66.0,0.0,390.0,1.0,0.0
9242,78.0,120.0,90.0,10.0,0.0
9243,78.0,0.0,90.0,11.0,0.0
9244,73.0,48.0,90.0,10.0,0.0
9245,73.0,0.0,90.0,11.0,0.0
9246,73.0,0.0,90.0,10.0,0.0
9247,73.0,120.0,90.0,11.0,0.0
9248,82.0,0.0,90.0,10.0,0.0
9249,82.0,120.0,90.0,11.0,0.0
9250,82.0,120.0,90.0,10.0,0.0
9251,82.0,0.0,90.0,11.0,0.0
9252,78.0,120.0,90.0,11.0,0.0
9253,78.0,0.0,90.0,10.0,0.0
9254,78.0,120.0,90.0,10.0,0.0
9255,78.0,0.0,90.0,11.0,0.0
9256,73.0,0.0,90.0,10.0,0.0
9257,73.0,120.0,90.0,11.0,0.0
9258,73.0,0.0,90.0,10.0,0.0
9259,73.0,120.0,90.0,11.0,0.0
9260,58.0,24.0,180.0,2.0,0.0
9261,70.0,96.0,90.0,10.0,0.0
9262,58.0,0.0,180.0,13.0,0.0
9263,46.0,0.0,180.0,14.0,0.0
9264,70.0,0.0,180.0,1.0,0.0
9265,70.0,0.0,90.0,11.0,0.0
9266,70.0,0.0,180.0,12.0,0.0
9267,82.0,0.0,180.0,0.0,0.0
9268,70.0,120.0,90.0,11.0,0.0
9269,70.0,0.0,90.0,10.0,0.0
9270,71.0,24.0,180.0,12.0,0.0
9271,59.0,0.0,180.0,2.0,0.0
9272,71.0,0.0,180.0,1.0,0.0
9273,71.0,96.0,90.0,10.0,0.0
9274,83.0,0.0,180.0,0.0,0.0
9275,59.0,0.0,180.0,13.0,0.0
9276,47.0,0.0,180.0,14.0,0.0
9277,71.0,0.0,90.0,11.0,0.0
9278,71.0,120.0,90.0,10.0,0.0
9279,71.0,0.0,90.0,11.0,0.0
9280,51.0,0.0,180.0,14.0,0.0
9281,63.0,0.0,180.0,13.0,0.0
9282,87.0,0.0,180.0,0.0,0.0
9283,75.0,0.0,180.0,12.0,0.0
9284,75.0,0.0,180.0,1.0,0.0
9285,75.0,0.0,90.0,10.0,0.0
9286,75.0,96.0,90.0,11.0,0.0
9287,63.0,24.0,180.0,2.0,0.0
9288,75.0,0.0,90.0,10.0,0.0
9289,75.0,120.0,90.0,11.0,0.0
9290,56.0,0.0,180.0,2.0,0.0
9291,44.0,0.0,180.0,14.0,0.0
9292,68.0,96.0,90.0,11.0,0.0
9293,80.0,24.0,180.0,0.0,0.0
9294,68.0,0.0,180.0,12.0,0.0
9295,68.0,0.0,180.0,1.0,0.0
9296,68.0,0.0,90.0,10.0,0.0
9297,56.0,0.0,180.0,13.0,0.0
9298,68.0,120.0,90.0,11.0,0.0
9299,68.0,0.0,90.0,10.0,0.0
9300,71.0,0.0,90.0,10.0,0.0
9301,47.0,0.0,180.0,14.0,0.0
9302,83.0,0.0,180.0,0.0,0.0
9303,71.0,0.0,180.0,12.0,0.0
9304,59.0,24.0,180.0,2.0,0.0
9305,59.0,0.0,180.0,13.0,0.0
9306,71.0,96.0,90.0,11.0,0.0
9307,71.0,0.0,180.0,1.0,0.0
9308,71.0,120.0,90.0,11.0,0.0
9309,71.0,0.0,90.0,10.0,0.0
9310,65.0,0.0,180.0,12.0,0.0
9311,77.0,0.0,180.0,0.0,0.0
9312,65.0,0.0,90.0,11.0,0.0
9313,65.0,0.0,180.0,1.0,0.0
9314,53.0,24.0,180.0,13.0,0.0
9315,53.0,0.0,180.0,2.0,0.0
9316,65.0,96.0,90.0,10.0,0.0
9317,41.0,0.0,180.0,14.0,0.0
9318,65.0,120.0,90.0,10.0,0.0
9319,65.0,0.0,90.0,11.0,0.0
9320,68.0,96.0,90.0,11.0,0.0
9321,44.0,0.0,180.0,14.0,0.0
9322,68.0,0.0,90.0,10.0,0.0
9323,80.0,0.0,180.0,0.0,0.0
9324,56.0,24.0,180.0,2.0,0.0
9325,56.0,0.0,180.0,13.0,0.0
9326,68.0,0.0,180.0,1.0,0.0
9327,68.0,0.0,180.0,12.0,0.0
9328,68.0,120.0,90.0,11.0,0.0
9329,68.0,0.0,90.0,10.0,0.0
9330,66.0,0.0,90.0,10.0,0.0
9331,66.0,96.0,90.0,11.0,0.0
9332,54.0,0.0,180.0,2.0,0.0
9333,42.0,48.0,390.0,5.0,0.0
9334,66.0,0.0,390.0,4.0,0.0
9335,66.0,24.0,180.0,1.0,0.0
9336,78.0,0.0,180.0,0.0,0.0
9337,54.0,0.0,180.0,13.0,0.0
9338,66.0,0.0,180.0,12.0,0.0
9339,42.0,0.0,180.0,14.0,0.0
9340,54.0,0.0,390.0,3.0,0.0
9341,66.0,0.0,90.0,10.0,0.0
9342,66.0,120.0,90.0,11.0,0.0
9343,61.0,0.0,180.0,1.0,0.0
9344,37.0,0.0,180.0,14.0,0.0
9345,61.0,48.0,90.0,10.0,0.0
9346,73.0,0.0,180.0,0.0,0.0
9347,61.0,0.0,180.0,12.0,0.0
9348,49.0,0.0,180.0,13.0,0.0
9349,61.0,0.0,90.0,11.0,0.0
9350,49.0,24.0,180.0,2.0,0.0
9351,61.0,120.0,90.0,10.0,0.0
9352,61.0,0.0,90.0,11.0,0.0
9353,82.0,0.0,180.0,0.0,0.0
9354,70.0,0.0,180.0,12.0,0.0
9355,70.0,96.0,90.0,11.0,0.0
9356,70.0,0.0,90.0,10.0,0.0
9357,58.0,0.0,180.0,2.0,0.0
9358,70.0,24.0,180.0,1.0,0.0
9359,46.0,0.0,180.0,14.0,0.0
9360,58.0,0.0,180.0,13.0,0.0
9361,70.0,120.0,90.0,11.0,0.0
9362,70.0,0.0,90.0,10.0,0.0
9363,66.0,0.0,180.0,12.0,0.0
9364,54.0,0.0,180.0,13.0,0.0
9365,66.0,24.0,180.0,1.0,0.0
9366,54.0,0.0,180.0,2.0,0.0
9367,66.0,96.0,90.0,11.0,0.0
9368,42.0,0.0,180.0,14.0,0.0
9369,78.0,0.0,180.0,0.0,0.0
9370,66.0,0.0,90.0,10.0,0.0
9371,66.0,120.0,90.0,11.0,0.0
9372,66.0,0.0,90.0,10.0,0.0
9373,61.0,0.0,180.0,1.0,0.0
9374,61.0,96.0,90.0,10.0,0.0
9375,61.0,0.0,180.0,12.0,0.0
9376,73.0,24.0,180.0,0.0,0.0
9377,37.0,0.0,180.0,14.0,0.0
9378,49.0,0.0,180.0,13.0,0.0
9379,49.0,0.0,180.0,2.0,0.0
9380,61.0,0.0,90.0,11.0,0.0
9381,61.0,120.0,90.0,11.0,0.0
9382,61.0,0.0,90.0,10.0,0.0
9383,46.0,0.0,180.0,13.0,0.0
9384,58.0,0.0,180.0,1.0,0.0
9385,58.0,0.0,180.0,12.0,0.0
9386,34.0,0.0,180.0,14.0,0.0
9387,82.0,24.0,180.0,0.0,0.0
9388,46.0,0.0,180.0,2.0,0.0
9389,58.0,96.0,90.0,10.0,0.0
9390,58.0,0.0,90.0,11.0,0.0
9391,70.0,0.0,180.0,1.0,0.0
9392,58.0,120.0,90.0,11.0,0.0
9393,58.0,0.0,90.0,10.0,0.0
9394,83.0,0.0,180.0,0.0,0.0
9395,35.0,0.0,180.0,14.0,0.0
9396,59.0,0.0,90.0,10.0,0.0
9397,59.0,0.0,180.0,1.0,0.0
9398,71.0,0.0,180.0,1.0,0.0
9399,47.0,24.0,180.0,2.0,0.0
9400,47.0,0.0,180.0,13.0,0.0
9401,59.0,96.0,90.0,11.0,0.0
9402,59.0,0.0,180.0,12.0,0.0
9403,59.0,120.0,90.0,10.0,0.0
9404,59.0,0.0,90.0,11.0,0.0
9405,63.0,96.0,90.0,11.0,0.0
9406,51.0,0.0,180.0,2.0,0.0
9407,51.0,0.0,180.0,13.0,0.0
9408,39.0,0.0,180.0,14.0,0.0
9409,63.0,0.0,180.0,12.0,0.0
9410,63.0,24.0,180.0,1.0,0.0
9411,75.0,0.0,180.0,1.0,0.0
9412,87.0,0.0,180.0,0.0,0.0
9413,63.0,0.0,90.0,10.0,0.0
9414,63.0,0.0,90.0,10.0,0.0
9415,63.0,120.0,90.0,11.0,0.0
9416,56.0,0.0,180.0,12.0,0.0
9417,56.0,96.0,90.0,10.0,0.0
9418,44.0,0.0,180.0,13.0,0.0
9419,44.0,24.0,180.0,2.0,0.0
9420,56.0,0.0,90.0,11.0,0.0
9421,32.0,0.0,180.0,14.0,0.0
9422,56.0,0.0,180.0,1.0,0.0
9423,68.0,0.0,180.0,1.0,0.0
9424,80.0,0.0,180.0,0.0,0.0
9425,56.0,120.0,90.0,11.0,0.0
9426,56.0,0.0,90.0,10.0,0.0
9427,59.0,0.0,180.0,12.0,0.0
9428,59.0,96.0,90.0,11.0,0.0
9429,35.0,24.0,180.0,14.0,0.0
9430,47.0,0.0,180.0,13.0,0.0
9431,71.0,0.0,180.0,1.0,0.0
9432,47.0,0.0,180.0,2.0,0.0
9433,83.0,0.0,180.0,0.0,0.0
9434,59.0,0.0,90.0,10.0,0.0
9435,59.0,0.0,180.0,1.0,0.0
9436,59.0,120.0,90.0,10.0,0.0
9437,59.0,0.0,90.0,11.0,0.0
9438,41.0,24.0,180.0,2.0,0.0
9439,53.0,96.0,90.0,11.0,0.0
9440,41.0,0.0,180.0,13.0,0.0
9441,53.0,0.0,180.0,1.0,0.0
9442,53.0,0.0,180.0,12.0,0.0
9443,53.0,0.0,90.0,10.0,0.0
9444,77.0,0.0,180.0,0.0,0.0
9445,65.0,0.0,180.0,1.0,0.0
9446,29.0,0.0,180.0,14.0,0.0
9447,53.0,0.0,90.0,11.0,0.0
9448,53.0,120.0,90.0,10.0,0.0
9449,56.0,96.0,90.0,11.0,0.0
9450,56.0,0.0,90.0,10.0,0.0
9451,56.0,0.0,180.0,1.0,0.0
9452,68.0,0.0,180.0,1.0,0.0
9453,44.0,0.0,180.0,2.0,0.0
9454,56.0,24.0,180.0,12.0,0.0
9455,80.0,0.0,180.0,0.0,0.0
9456,44.0,0.0,180.0,13.0,0.0
9457,32.0,0.0,180.0,14.0,0.0
9458,56.0,0.0,90.0,11.0,0.0
9459,56.0,216.0,90.0,10.0,0.0
9460,78.0,0.0,390.0,0.0,0.0
9461,54.0,144.0,180.0,11.0,0.0
9462,54.0,0.0,390.0,3.0,0.0
9463,66.0,0.0,390.0,1.0,0.0
9464,54.0,0.0,390.0,1.0,0.0
9465,42.0,0.0,390.0,5.0,0.0
9466,30.0,0.0,390.0,14.0,0.0
9467,54.0,0.0,390.0,12.0,0.0
9468,42.0,72.0,390.0,13.0,0.0
9469,54.0,0.0,180.0,10.0,0.0
9470,42.0,0.0,390.0,2.0,0.0
9471,66.0,0.0,390.0,4.0,0.0
9472,56.0,0.0,90.0,11.0,0.0
9473,56.0,48.0,90.0,10.0,0.0
9474,58.0,120.0,90.0,11.0,0.0
9475,58.0,0.0,90.0,10.0,0.0
9476,59.0,0.0,90.0,10.0,0.0
9477,59.0,120.0,90.0,11.0,0.0
9478,61.0,120.0,90.0,10.0,0.0
9479,61.0,0.0,90.0,11.0,0.0
9480,63.0,120.0,90.0,11.0,0.0
9481,63.0,0.0,90.0,10.0,0.0
9482,65.0,0.0,90.0,10.0,0.0
9483,65.0,120.0,90.0,11.0,0.0
9484,66.0,144.0,90.0,10.0,0.0
9485,66.0,0.0,90.0,11.0,0.0
9486,65.0,120.0,120.0,11.0,0.0
9487,65.0,0.0,120.0,10.0,0.0
9488,66.0,96.0,120.0,10.0,0.0
9489,66.0,0.0,120.0,11.0,0.0
9490,65.0,216.0,90.0,11.0,0.0
9491,65.0,0.0,90.0,10.0,0.0
9492,42.0,0.0,180.0,13.0,0.0
9493,66.0,0.0,180.0,0.0,0.0
9494,42.0,0.0,390.0,5.0,0.0
9495,30.0,144.0,180.0,14.0,0.0
9496,66.0,0.0,390.0,4.0,0.0
9497,54.0,0.0,180.0,12.0,0.0
9498,66.0,0.0,180.0,10.0,0.0
9499,66.0,0.0,180.0,11.0,0.0
9500,42.0,0.0,180.0,2.0,0.0
9501,66.0,0.0,180.0,1.0,0.0
9502,54.0,72.0,390.0,3.0,0.0
9503,68.0,0.0,90.0,10.0,0.0
9504,68.0,0.0,90.0,11.0,0.0
9505,68.0,0.0,90.0,0.0,0.0
9506,44.0,0.0,90.0,13.0,0.0
9507,56.0,0.0,90.0,12.0,0.0
9508,44.0,48.0,90.0,2.0,0.0
9509,68.0,0.0,90.0,1.0,0.0
9510,32.0,0.0,90.0,14.0,0.0
9511,46.0,0.0,90.0,13.0,0.0
9512,70.0,0.0,90.0,10.0,0.0
9513,70.0,0.0,90.0,1.0,0.0
9514,34.0,0.0,90.0,14.0,0.0
9515,58.0,0.0,90.0,12.0,0.0
9516,46.0,120.0,90.0,2.0,0.0
9517,70.0,0.0,90.0,0.0,0.0
9518,70.0,0.0,90.0,11.0,0.0
9519,59.0,120.0,90.0,12.0,0.0
9520,71.0,0.0,90.0,0.0,0.0
9521,71.0,0.0,90.0,10.0,0.0
9522,47.0,0.0,90.0,2.0,0.0
9523,71.0,0.0,90.0,1.0,0.0
9524,35.0,0.0,90.0,14.0,0.0
9525,71.0,0.0,90.0,11.0,0.0
9526,47.0,0.0,90.0,13.0,0.0
9527,73.0,0.0,90.0,10.0,0.0
9528,73.0,0.0,90.0,0.0,0.0
9529,73.0,0.0,90.0,1.0,0.0
9530,49.0,0.0,90.0,2.0,0.0
9531,37.0,120.0,90.0,14.0,0.0
9532,49.0,0.0,90.0,13.0,0.0
9533,61.0,0.0,90.0,12.0,0.0
9534,73.0,0.0,90.0,11.0,0.0
9535,51.0,0.0,90.0,13.0,0.0
9536,39.0,0.0,90.0,14.0,0.0
9537,75.0,0.0,90.0,10.0,0.0
9538,63.0,0.0,90.0,12.0,0.0
9539,75.0,0.0,90.0,0.0,0.0
9540,75.0,0.0,90.0,11.0,0.0
9541,51.0,120.0,90.0,2.0,0.0
9542,75.0,0.0,90.0,1.0,0.0
9543,41.0,0.0,90.0,14.0,0.0
9544,53.0,0.0,90.0,13.0,0.0
9545,65.0,0.0,90.0,12.0,0.0
9546,77.0,0.0,90.0,10.0,0.0
9547,53.0,0.0,90.0,2.0,0.0
9548,77.0,0.0,90.0,0.0,0.0
9549,77.0,120.0,90.0,1.0,0.0
9550,77.0,0.0,90.0,11.0,0.0
9551,78.0,0.0,90.0,10.0,0.0
9552,54.0,0.0,90.0,13.0,0.0
9553,54.0,0.0,90.0,2.0,0.0
9554,42.0,0.0,90.0,14.0,0.0
9555,78.0,0.0,90.0,1.0,0.0
9556,66.0,144.0,90.0,12.0,0.0
9557,78.0,0.0,90.0,0.0,0.0
9558,78.0,0.0,90.0,11.0,0.0
9559,65.0,0.0,120.0,12.0,0.0
9560,77.0,0.0,120.0,10.0,0.0
9561,77.0,0.0,120.0,11.0,0.0
9562,77.0,0.0,120.0,0.0,0.0
9563,53.0,120.0,120.0,2.0,0.0
9564,41.0,0.0,120.0,14.0,0.0
9565,77.0,0.0,120.0,1.0,0.0
9566,53.0,0.0,120.0,13.0,0.0
9567,78.0,0.0,120.0,10.0,0.0
9568,78.0,96.0,120.0,1.0,0.0
9569,66.0,0.0,120.0,12.0,0.0
9570,78.0,0.0,120.0,0.0,0.0
9571,78.0,0.0,120.0,11.0,0.0
9572,42.0,0.0,120.0,14.0,0.0
9573,54.0,0.0,120.0,2.0,0.0
9574,54.0,0.0,120.0,13.0,0.0
9575,77.0,168.0,90.0,11.0,0.0
9576,65.0,0.0,90.0,12.0,0.0
9577,53.0,0.0,90.0,2.0,0.0
9578,41.0,0.0,90.0,14.0,0.0
9579,77.0,0.0,90.0,0.0,0.0
9580,77.0,0.0,90.0,10.0,0.0
9581,53.0,0.0,90.0,13.0,0.0
9582,77.0,0.0,90.0,1.0,0.0
9583,54.0,0.0,150.0,13.0,0.0
9584,78.0,0.0,150.0,10.0,0.0
9585,78.0,0.0,150.0,0.0,0.0
9586,42.0,0.0,390.0,5.0,0.0
9587,42.0,216.0,150.0,14.0,0.0
9588,66.0,0.0,390.0,4.0,0.0
9589,66.0,0.0,150.0,12.0,0.0
9590,54.0,72.0,390.0,3.0,0.0
9591,78.0,0.0,150.0,1.0,0.0
9592,78.0,0.0,150.0,11.0,0.0
9593,54.0,0.0,150.0,2.0,0.0
9594,80.0,0.0,120.0,1.0,0.0
9595,80.0,0.0,120.0,10.0,0.0
9596,80.0,0.0,120.0,0.0,0.0
9597,44.0,24.0,120.0,14.0,0.0
9598,80.0,0.0,120.0,11.0,0.0
9599,56.0,0.0,120.0,2.0,0.0
9600,56.0,0.0,120.0,13.0,0.0
9601,68.0,0.0,120.0,12.0,0.0
9602,53.0,0.0,90.0,13.0,0.0
9603,77.0,0.0,90.0,0.0,0.0
9604,53.0,0.0,90.0,2.0,0.0
9605,77.0,0.0,90.0,11.0,0.0
9606,77.0,0.0,90.0,10.0,0.0
9607,65.0,168.0,90.0,12.0,0.0
9608,41.0,0.0,90.0,14.0,0.0
9609,77.0,0.0,90.0,1.0,0.0
9610,54.0,0.0,150.0,13.0,0.0
9611,78.0,0.0,150.0,11.0,0.0
9612,78.0,0.0,150.0,10.0,0.0
9613,78.0,216.0,150.0,0.0,0.0
9614,66.0,0.0,390.0,4.0,0.0
9615,66.0,0.0,150.0,12.0,0.0
9616,42.0,0.0,150.0,14.0,0.0
9617,78.0,0.0,150.0,1.0,0.0
9618,54.0,72.0,390.0,3.0,0.0
9619,54.0,0.0,150.0,2.0,0.0
9620,42.0,0.0,390.0,5.0,0.0
9621,80.0,0.0,120.0,10.0,0.0
9622,80.0,24.0,120.0,1.0,0.0
9623,80.0,0.0,120.0,11.0,0.0
9624,44.0,0.0,120.0,14.0,0.0
9625,56.0,0.0,120.0,13.0,0.0
9626,56.0,0.0,120.0,2.0,0.0
9627,80.0,0.0,120.0,0.0,0.0
9628,68.0,0.0,120.0,12.0,0.0
9629,53.0,0.0,90.0,2.0,0.0
9630,65.0,168.0,90.0,12.0,0.0
9631,77.0,0.0,90.0,11.0,0.0
9632,41.0,0.0,90.0,14.0,0.0
9633,77.0,0.0,90.0,0.0,0.0
9634,53.0,0.0,90.0,13.0,0.0
9635,77.0,0.0,90.0,1.0,0.0
9636,77.0,0.0,90.0,10.0,0.0
9637,54.0,0.0,150.0,2.0,0.0
9638,78.0,0.0,150.0,0.0,0.0
9639,54.0,0.0,150.0,13.0,0.0
9640,66.0,0.0,150.0,12.0,0.0
9641,42.0,0.0,390.0,5.0,0.0
9642,42.0,0.0,150.0,14.0,0.0
9643,66.0,72.0,390.0,4.0,0.0
9644,78.0,0.0,150.0,10.0,0.0
9645,78.0,216.0,150.0,11.0,0.0
9646,54.0,0.0,390.0,3.0,0.0
9647,78.0,0.0,150.0,1.0,0.0
9648,56.0,0.0,120.0,2.0,0.0
9649,44.0,0.0,120.0,14.0,0.0
9650,68.0,0.0,120.0,12.0,0.0
9651,80.0,24.0,120.0,10.0,0.0
9652,56.0,0.0,120.0,13.0,0.0
9653,80.0,0.0,120.0,11.0,0.0
9654,80.0,0.0,120.0,1.0,0.0
9655,80.0,0.0,120.0,0.0,0.0
9656,77.0,0.0,90.0,0.0,0.0
9657,77.0,0.0,90.0,1.0,0.0
9658,65.0,0.0,90.0,12.0,0.0
9659,41.0,0.0,90.0,14.0,0.0
9660,77.0,336.0,90.0,10.0,0.0
9661,53.0,0.0,90.0,13.0,0.0
9662,53.0,0.0,90.0,2.0,0.0
9663,77.0,0.0,90.0,11.0,0.0
9664,78.0,0.0,300.0,10.0,0.0
9665,66.0,0.0,300.0,4.0,0.0
9666,78.0,0.0,300.0,0.0,0.0
9667,66.0,0.0,300.0,12.0,0.0
9668,78.0,0.0,300.0,11.0,0.0
9669,54.0,0.0,300.0,3.0,0.0
9670,54.0,72.0,300.0,2.0,0.0
9671,78.0,0.0,300.0,1.0,0.0
9672,42.0,0.0,300.0,14.0,0.0
9673,54.0,0.0,300.0,13.0,0.0
9674,42.0,408.0,390.0,5.0,0.0
9675,66.0,0.0,300.0,10.0,0.0
9676,54.0,0.0,300.0,12.0,0.0
9677,58.0,0.0,300.0,10.0,0.0
9678,58.0,0.0,300.0,11.0,0.0
9679,66.0,0.0,300.0,11.0,0.0
9680,54.0,72.0,300.0,3.0,0.0
9681,66.0,0.0,300.0,0.0,0.0
9682,42.0,0.0,300.0,2.0,0.0
9683,66.0,0.0,300.0,1.0,0.0
9684,30.0,0.0,300.0,14.0,0.0
9685,42.0,0.0,300.0,3.0,0.0
9686,66.0,0.0,300.0,4.0,0.0
9687,54.0,0.0,300.0,4.0,0.0
9688,42.0,0.0,300.0,13.0,0.0
9689,42.0,720.0,390.0,5.0,0.0
9690,66.0,120.0,240.0,12.0,0.0
9691,75.0,96.0,150.0,10.0,0.0
9692,70.0,0.0,240.0,11.0,0.0
9693,77.0,96.0,120.0,10.0,0.0
9694,68.0,0.0,240.0,12.0,0.0
9695,71.0,144.0,240.0,11.0,0.0
9696,74.0,24.0,90.0,10.0,0.0
9697,70.0,120.0,240.0,11.0,0.0
9698,75.0,96.0,150.0,10.0,0.0
9699,66.0,0.0,240.0,12.0,0.0
9700,68.0,0.0,240.0,12.0,0.0
9701,71.0,144.0,240.0,11.0,0.0
9702,77.0,96.0,120.0,10.0,0.0
9703,74.0,24.0,90.0,10.0,0.0
9704,66.0,120.0,240.0,12.0,0.0
9705,75.0,96.0,150.0,10.0,0.0
9706,70.0,0.0,240.0,11.0,0.0
9707,71.0,24.0,180.0,11.0,0.0
9708,68.0,0.0,180.0,12.0,0.0
9709,77.0,72.0,120.0,10.0,0.0
9710,74.0,336.0,90.0,10.0,0.0
9711,75.0,480.0,300.0,10.0,0.0
9712,66.0,0.0,300.0,12.0,0.0
9713,70.0,0.0,300.0,11.0,0.0
9714,63.0,0.0,300.0,10.0,0.0
9715,58.0,792.0,300.0,11.0,0.0
9716,54.0,0.0,300.0,12.0,0.0
9717,69.0,216.0,150.0,10.0,0.0
9718,71.0,0.0,390.0,4.0,0.0
9719,66.0,0.0,390.0,4.0,0.0
9720,54.0,0.0,390.0,2.0,0.0
9721,45.0,0.0,150.0,14.0,0.0
9722,51.0,0.0,390.0,2.0,0.0
9723,69.0,0.0,150.0,11.0,0.0
9724,57.0,0.0,150.0,12.0,0.0
9725,57.0,0.0,150.0,13.0,0.0
9726,75.0,72.0,390.0,1.0,0.0
9727,47.0,0.0,390.0,5.0,0.0
9728,83.0,0.0,390.0,0.0,0.0
9729,59.0,0.0,390.0,3.0,0.0
9730,63.0,0.0,390.0,3.0,0.0
9731,78.0,0.0,390.0,1.0,0.0
9732,71.0,24.0,120.0,10.0,0.0
9733,47.0,0.0,120.0,14.0,0.0
9734,59.0,0.0,120.0,12.0,0.0
9735,59.0,0.0,120.0,13.0,0.0
9736,71.0,0.0,120.0,11.0,0.0
9737,68.0,0.0,90.0,11.0,0.0
9738,56.0,0.0,90.0,13.0,0.0
9739,44.0,0.0,90.0,14.0,0.0
9740,56.0,168.0,90.0,12.0,0.0
9741,68.0,0.0,90.0,10.0,0.0
9742,57.0,0.0,150.0,12.0,0.0
9743,71.0,0.0,240.0,4.0,0.0
9744,78.0,0.0,240.0,1.0,0.0
9745,45.0,0.0,150.0,14.0,0.0
9746,75.0,0.0,240.0,1.0,0.0
9747,83.0,0.0,240.0,0.0,0.0
9748,63.0,0.0,240.0,3.0,0.0
9749,51.0,0.0,240.0,2.0,0.0
9750,66.0,0.0,240.0,4.0,0.0
9751,59.0,0.0,240.0,3.0,0.0
9752,69.0,0.0,150.0,11.0,0.0
9753,47.0,0.0,240.0,5.0,0.0
9754,69.0,0.0,150.0,10.0,0.0
9755,57.0,90.0,150.0,13.0,0.0
9756,54.0,126.0,240.0,2.0,0.0
9757,71.0,0.0,120.0,11.0,0.0
9758,59.0,78.0,120.0,12.0,0.0
9759,59.0,0.0,120.0,13.0,0.0
9760,47.0,0.0,120.0,14.0,0.0
9761,71.0,0.0,120.0,10.0,0.0
9762,68.0,0.0,90.0,11.0,0.0
9763,63.0,0.0,90.0,3.0,0.0
9764,75.0,0.0,90.0,1.0,0.0
9765,47.0,0.0,90.0,5.0,0.0
9766,83.0,0.0,90.0,0.0,0.0
9767,68.0,168.0,90.0,10.0,0.0
9768,44.0,0.0,90.0,14.0,0.0
9769,78.0,0.0,90.0,1.0,0.0
9770,59.0,18.0,90.0,3.0,0.0
9771,56.0,0.0,90.0,13.0,0.0
9772,66.0,0.0,90.0,4.0,0.0
9773,56.0,0.0,90.0,12.0,0.0
9774,71.0,0.0,90.0,4.0,0.0
9775,54.0,0.0,90.0,2.0,0.0
9776,51.0,0.0,90.0,2.0,0.0
9777,69.0,90.0,150.0,11.0,0.0
9778,78.0,0.0,240.0,1.0,0.0
9779,57.0,0.0,150.0,13.0,0.0
9780,69.0,0.0,150.0,10.0,0.0
9781,66.0,0.0,240.0,4.0,0.0
9782,71.0,0.0,240.0,4.0,0.0
9783,63.0,0.0,240.0,3.0,0.0
9784,47.0,0.0,240.0,5.0,0.0
9785,45.0,0.0,150.0,14.0,0.0
9786,51.0,0.0,240.0,2.0,0.0
9787,57.0,0.0,150.0,12.0,0.0
9788,54.0,126.0,240.0,2.0,0.0
9789,59.0,0.0,240.0,3.0,0.0
9790,83.0,0.0,240.0,0.0,0.0
9791,75.0,0.0,240.0,1.0,0.0
9792,71.0,78.0,120.0,10.0,0.0
9793,47.0,0.0,120.0,14.0,0.0
9794,59.0,0.0,120.0,12.0,0.0
9795,71.0,0.0,120.0,11.0,0.0
9796,59.0,0.0,120.0,13.0,0.0
9797,54.0,0.0,90.0,2.0,0.0
9798,51.0,0.0,90.0,2.0,0.0
9799,56.0,0.0,90.0,13.0,0.0
9800,78.0,18.0,90.0,1.0,0.0
9801,56.0,0.0,90.0,12.0,0.0
9802,44.0,336.0,90.0,14.0,0.0
9803,75.0,0.0,90.0,1.0,0.0
9804,59.0,0.0,90.0,3.0,0.0
9805,71.0,0.0,90.0,4.0,0.0
9806,63.0,0.0,90.0,3.0,0.0
9807,83.0,0.0,90.0,0.0,0.0
9808,68.0,0.0,90.0,10.0,0.0
9809,66.0,0.0,90.0,4.0,0.0
9810,47.0,0.0,90.0,5.0,0.0
9811,68.0,0.0,90.0,11.0,0.0
9812,69.0,0.0,300.0,10.0,0.0
9813,83.0,0.0,300.0,0.0,0.0
9814,69.0,0.0,300.0,11.0,0.0
9815,47.0,0.0,300.0,5.0,0.0
9816,66.0,0.0,300.0,4.0,0.0
9817,71.0,0.0,300.0,4.0,0.0
9818,78.0,0.0,300.0,1.0,0.0
9819,45.0,0.0,300.0,14.0,0.0
9820,75.0,0.0,300.0,1.0,0.0
9821,63.0,0.0,300.0,3.0,0.0
9822,57.0,0.0,300.0,13.0,0.0
9823,59.0,0.0,300.0,3.0,0.0
9824,54.0,0.0,300.0,2.0,0.0
9825,51.0,0.0,300.0,2.0,0.0
9826,57.0,480.0,300.0,12.0,0.0
9827,33.0,0.0,300.0,14.0,0.0
9828,75.0,0.0,300.0,1.0,0.0
9829,59.0,0.0,300.0,3.0,0.0
9830,63.0,0.0,300.0,3.0,0.0
9831,83.0,0.0,300.0,0.0,0.0
9832,57.0,0.0,300.0,11.0,0.0
9833,54.0,0.0,300.0,2.0,0.0
9834,47.0,0.0,300.0,5.0,0.0
9835,57.0,0.0,300.0,10.0,0.0
9836,51.0,0.0,300.0,2.0,0.0
9837,66.0,0.0,300.0,4.0,0.0
9838,71.0,0.0,300.0,4.0,0.0
9839,45.0,0.0,300.0,12.0,0.0
9840,78.0,0.0,300.0,1.0,0.0
9841,45.0,840.0,300.0,13.0,0.0
9842,56.0,0.0,1440.0,11.0,0.0
9843,52.0,0.0,180.0,6.0,0.0
9844,52.0,192.0,1440.0,12.0,0.0
9845,64.0,0.0,1440.0,10.0,0.0
9846,44.0,0.0,1440.0,12.0,0.0
9847,40.0,480.0,180.0,7.0,0.0
9848,44.0,480.0,180.0,7.0,0.0
9849,56.0,0.0,180.0,6.0,0.0
9850,40.0,0.0,180.0,7.0,0.0
9851,52.0,288.0,180.0,6.0,0.0
9852,66.0,0.0,1380.0,10.0,0.0
9853,39.0,480.0,180.0,7.0,0.0
9854,51.0,0.0,180.0,6.0,0.0
9855,59.0,264.0,1380.0,11.0,0.0
9856,47.0,0.0,1380.0,12.0,0.0
9857,54.0,0.0,1380.0,12.0,0.0
9858,47.0,0.0,180.0,6.0,0.0
9859,35.0,480.0,180.0,7.0,0.0
9860,39.0,0.0,180.0,7.0,0.0
9861,51.0,216.0,180.0,6.0,0.0
9862,64.0,0.0,480.0,11.0,0.0
9863,68.0,0.0,480.0,10.0,0.0
9864,52.0,288.0,180.0,6.0,0.0
9865,56.0,0.0,480.0,12.0,0.0
9866,52.0,480.0,480.0,12.0,0.0
9867,40.0,0.0,180.0,7.0,0.0
9868,73.0,0.0,480.0,10.0,0.0
9869,69.0,192.0,480.0,11.0,0.0
9870,61.0,0.0,480.0,12.0,0.0
9871,57.0,0.0,480.0,12.0,0.0
9872,59.0,0.0,390.0,12.0,0.0
9873,56.0,0.0,390.0,12.0,0.0
9874,68.0,288.0,390.0,11.0,0.0
9875,40.0,0.0,180.0,6.0,0.0
9876,71.0,0.0,390.0,10.0,0.0
9877,28.0,192.0,180.0,7.0,0.0
9878,33.0,48.0,180.0,7.0,0.0
9879,59.0,192.0,240.0,12.0,0.0
9880,68.0,0.0,240.0,11.0,0.0
9881,71.0,0.0,240.0,10.0,0.0
9882,45.0,0.0,180.0,6.0,0.0
9883,56.0,0.0,180.0,12.0,0.0
9884,69.0,0.0,180.0,10.0,0.0
9885,54.0,240.0,180.0,12.0,0.0
9886,57.0,0.0,180.0,12.0,0.0
9887,66.0,0.0,180.0,11.0,0.0
9888,66.0,0.0,240.0,11.0,0.0
9889,47.0,0.0,180.0,6.0,0.0
9890,54.0,48.0,180.0,12.0,0.0
9891,35.0,0.0,180.0,7.0,0.0
9892,57.0,0.0,240.0,12.0,0.0
9893,69.0,192.0,240.0,10.0,0.0
9894,56.0,0.0,180.0,12.0,0.0
9895,68.0,0.0,180.0,10.0,0.0
9896,64.0,0.0,180.0,11.0,0.0
9897,52.0,240.0,180.0,12.0,0.0
9898,35.0,0.0,180.0,7.0,0.0
9899,68.0,0.0,240.0,10.0,0.0
9900,56.0,192.0,240.0,12.0,0.0
9901,52.0,48.0,180.0,12.0,0.0
9902,64.0,0.0,240.0,11.0,0.0
9903,47.0,0.0,180.0,6.0,0.0
9904,54.0,0.0,180.0,12.0,0.0
9905,66.0,0.0,180.0,10.0,0.0
9906,51.0,240.0,180.0,12.0,0.0
9907,63.0,0.0,180.0,11.0,0.0
9908,52.0,0.0,180.0,6.0,0.0
9909,66.0,240.0,720.0,10.0,0.0
9910,54.0,0.0,720.0,12.0,0.0
9911,40.0,480.0,180.0,7.0,0.0
9912,51.0,0.0,960.0,12.0,0.0
9913,63.0,0.0,960.0,11.0,0.0
9914,47.0,0.0,180.0,6.0,0.0
9915,35.0,48.0,180.0,7.0,0.0
9916,67.0,0.0,240.0,10.0,0.0
9917,55.0,192.0,240.0,12.0,0.0
9918,68.0,0.0,180.0,10.0,0.0
9919,28.0,0.0,180.0,7.0,0.0
9920,40.0,0.0,180.0,6.0,0.0
9921,52.0,768.0,180.0,12.0,0.0
9922,56.0,0.0,180.0,12.0,0.0
9923,64.0,0.0,180.0,11.0,0.0
9924,64.0,480.0,480.0,11.0,0.0
9925,40.0,0.0,1440.0,2.0,0.0
9926,52.0,0.0,1440.0,2.0,0.0
9927,25.0,0.0,1440.0,14.0,0.0
9928,55.0,120.0,1200.0,12.0,0.0
9929,76.0,0.0,480.0,10.0,0.0
9930,52.0,0.0,1440.0,1.0,0.0
9931,64.0,156.0,1440.0,1.0,0.0
9932,37.0,0.0,1440.0,13.0,0.0
9933,73.0,240.0,480.0,10.0,0.0
9934,61.0,0.0,480.0,11.0,0.0
9935,58.0,0.0,390.0,11.0,0.0
9936,70.0,72.0,390.0,10.0,0.0
9937,54.0,24.0,120.0,12.0,0.0
9938,52.0,24.0,90.0,12.0,0.0
9939,66.0,240.0,150.0,11.0,0.0
9940,57.0,156.0,480.0,12.0,0.0
9941,39.0,156.0,1440.0,13.0,0.0
9942,27.0,0.0,1440.0,14.0,0.0
9943,66.0,0.0,1440.0,1.0,0.0
9944,59.0,0.0,1440.0,1.0,0.0
9945,54.0,0.0,1440.0,2.0,0.0
9946,47.0,0.0,1440.0,2.0,0.0
9947,78.0,0.0,150.0,10.0,0.0
9948,64.0,0.0,150.0,11.0,0.0
9949,76.0,84.0,150.0,10.0,0.0
9950,63.0,0.0,150.0,11.0,0.0
9951,75.0,240.0,150.0,10.0,0.0
9952,54.0,156.0,480.0,12.0,0.0
9953,73.0,0.0,150.0,10.0,0.0
9954,61.0,84.0,150.0,11.0,0.0
9955,71.0,228.0,150.0,10.0,0.0
9956,59.0,0.0,150.0,11.0,0.0
9957,47.0,12.0,390.0,12.0,0.0
9958,57.0,84.0,150.0,11.0,0.0
9959,69.0,0.0,150.0,10.0,0.0
9960,52.0,0.0,390.0,12.0,0.0
9961,56.0,228.0,150.0,11.0,0.0
9962,68.0,0.0,480.0,1.0,0.0
9963,64.0,0.0,480.0,1.0,0.0
9964,56.0,156.0,480.0,2.0,0.0
9965,52.0,0.0,480.0,2.0,0.0
9966,40.0,0.0,390.0,13.0,0.0
9967,68.0,0.0,150.0,10.0,0.0
9968,28.0,12.0,390.0,14.0,0.0
9969,64.0,0.0,150.0,11.0,0.0
9970,76.0,84.0,150.0,10.0,0.0
9971,64.0,240.0,150.0,11.0,0.0
9972,61.0,0.0,480.0,2.0,0.0
9973,76.0,0.0,150.0,10.0,0.0
9974,57.0,0.0,480.0,2.0,0.0
9975,69.0,156.0,480.0,1.0,0.0
9976,73.0,0.0,480.0,1.0,0.0
9977,76.0,0.0,150.0,10.0,0.0
9978,64.0,84.0,150.0,11.0,0.0
9979,68.0,0.0,390.0,1.0,0.0
9980,59.0,0.0,390.0,2.0,0.0
9981,56.0,12.0,390.0,2.0,0.0
9982,71.0,0.0,390.0,1.0,0.0
9983,76.0,228.0,150.0,10.0,0.0
9984,64.0,0.0,150.0,11.0,0.0
9985,64.0,0.0,150.0,11.0,0.0
9986,76.0,324.0,150.0,10.0,0.0
9987,56.0,0.0,240.0,2.0,0.0
9988,59.0,0.0,240.0,2.0,0.0
9989,57.0,0.0,300.0,10.0,0.0
9990,33.0,0.0,300.0,14.0,0.0
9991,68.0,0.0,240.0,1.0,0.0
9992,57.0,0.0,300.0,11.0,0.0
9993,71.0,48.0,240.0,1.0,0.0
9994,45.0,144.0,300.0,13.0,0.0
9995,57.0,0.0,300.0,12.0,0.0
9996,57.0,0.0,180.0,2.0,0.0
9997,54.0,0.0,180.0,2.0,0.0
9998,69.0,0.0,180.0,1.0,0.0
9999,66.0,288.0,180.0,1.0,0.0
10000,59.0,0.0,300.0,10.0,0.0
10001,54.0,0.0,240.0,2.0,0.0
10002,57.0,0.0,240.0,2.0,0.0
10003,35.0,0.0,300.0,14.0,0.0
10004,66.0,48.0,240.0,1.0,0.0
10005,47.0,144.0,300.0,13.0,0.0
10006,69.0,0.0,240.0,1.0,0.0
10007,59.0,0.0,300.0,11.0,0.0
10008,59.0,0.0,300.0,12.0,0.0
10009,64.0,0.0,180.0,1.0,0.0
10010,68.0,288.0,180.0,1.0,0.0
10011,56.0,0.0,180.0,2.0,0.0
10012,52.0,0.0,180.0,2.0,0.0
10013,56.0,48.0,240.0,2.0,0.0
10014,52.0,0.0,240.0,2.0,0.0
10015,59.0,0.0,300.0,11.0,0.0
10016,35.0,144.0,300.0,13.0,0.0
10017,35.0,0.0,300.0,14.0,0.0
10018,47.0,0.0,300.0,12.0,0.0
10019,59.0,0.0,300.0,10.0,0.0
10020,64.0,0.0,240.0,1.0,0.0
10021,68.0,0.0,240.0,1.0,0.0
10022,63.0,0.0,180.0,1.0,0.0
10023,51.0,0.0,180.0,2.0,0.0
10024,66.0,0.0,180.0,1.0,0.0
10025,54.0,528.0,180.0,2.0,0.0
10026,35.0,0.0,960.0,14.0,0.0
10027,59.0,0.0,960.0,12.0,0.0
10028,59.0,0.0,960.0,11.0,0.0
10029,62.0,0.0,480.0,1.0,0.0
10030,59.0,0.0,960.0,10.0,0.0
10031,47.0,0.0,960.0,13.0,0.0
10032,68.0,0.0,480.0,0.0,0.0
10033,50.0,0.0,480.0,2.0,0.0
10034,65.0,0.0,15.0,1.0,0.0
10035,74.0,0.0,480.0,0.0,0.0
10036,62.0,0.0,480.0,2.0,0.0
10037,53.0,480.0,15.0,2.0,0.0
10038,68.0,0.0,480.0,1.0,0.0
10039,57.0,336.0,390.0,12.0,0.0
10040,57.0,0.0,390.0,10.0,0.0
10041,57.0,0.0,390.0,11.0,0.0
10042,66.0,0.0,390.0,1.0,0.0
10043,69.0,0.0,390.0,1.0,0.0
10044,73.0,0.0,390.0,0.0,0.0
10045,61.0,0.0,390.0,2.0,0.0
10046,54.0,0.0,390.0,2.0,0.0
10047,33.0,0.0,390.0,14.0,0.0
10048,45.0,0.0,390.0,13.0,0.0
10049,47.0,144.0,300.0,13.0,0.0
10050,35.0,0.0,300.0,14.0,0.0
10051,59.0,0.0,300.0,10.0,0.0
10052,61.0,0.0,240.0,2.0,0.0
10053,57.0,0.0,240.0,2.0,0.0
10054,69.0,48.0,240.0,1.0,0.0
10055,59.0,0.0,300.0,12.0,0.0
10056,59.0,0.0,300.0,11.0,0.0
10057,73.0,0.0,240.0,0.0,0.0
10058,71.0,288.0,180.0,0.0,0.0
10059,68.0,0.0,180.0,1.0,0.0
10060,56.0,0.0,180.0,2.0,0.0
10061,59.0,0.0,180.0,2.0,0.0
10062,56.0,0.0,240.0,2.0,0.0
10063,59.0,48.0,240.0,2.0,0.0
10064,49.0,144.0,300.0,13.0,0.0
10065,71.0,0.0,240.0,0.0,0.0
10066,61.0,0.0,300.0,10.0,0.0
10067,61.0,0.0,300.0,11.0,0.0
10068,68.0,0.0,240.0,1.0,0.0
10069,37.0,0.0,300.0,14.0,0.0
10070,61.0,0.0,300.0,12.0,0.0
10071,54.0,288.0,180.0,2.0,0.0
10072,66.0,0.0,180.0,1.0,0.0
10073,69.0,0.0,180.0,0.0,0.0
10074,57.0,0.0,180.0,2.0,0.0
10075,54.0,0.0,240.0,2.0,0.0
10076,57.0,48.0,240.0,2.0,0.0
10077,61.0,0.0,300.0,10.0,0.0
10078,66.0,0.0,240.0,1.0,0.0
10079,37.0,0.0,300.0,13.0,0.0
10080,69.0,0.0,240.0,0.0,0.0
10081,49.0,0.0,300.0,12.0,0.0
10082,61.0,144.0,300.0,11.0,0.0
10083,25.0,0.0,300.0,14.0,0.0
10084,64.0,0.0,180.0,1.0,0.0
10085,68.0,528.0,180.0,0.0,0.0
10086,52.0,0.0,180.0,2.0,0.0
10087,56.0,0.0,180.0,2.0,0.0
10088,52.0,0.0,960.0,2.0,0.0
10089,67.0,0.0,960.0,11.0,0.0
10090,64.0,0.0,960.0,1.0,0.0
10091,70.0,288.0,480.0,10.0,0.0
10092,55.0,0.0,960.0,2.0,0.0
10093,49.0,0.0,960.0,13.0,0.0
10094,67.0,0.0,960.0,0.0,0.0
10095,58.0,0.0,480.0,12.0,0.0
10096,55.0,0.0,960.0,12.0,0.0
10097,37.0,0.0,960.0,14.0,0.0
10098,61.0,192.0,780.0,3.0,0.0
10099,76.0,0.0,480.0,10.0,0.0
10100,64.0,384.0,480.0,12.0,0.0
10101,59.0,0.0,390.0,3.0,0.0
10102,68.0,0.0,390.0,0.0,0.0
10103,35.0,0.0,390.0,14.0,0.0
10104,47.0,0.0,390.0,13.0,0.0
10105,51.0,0.0,390.0,2.0,0.0
10106,63.0,0.0,390.0,1.0,0.0
10107,75.0,0.0,390.0,10.0,0.0
10108,63.0,0.0,390.0,12.0,0.0
10109,56.0,0.0,390.0,12.0,0.0
10110,68.0,0.0,390.0,11.0,0.0
10111,56.0,336.0,390.0,2.0,0.0
10112,37.0,96.0,300.0,14.0,0.0
10113,49.0,0.0,300.0,13.0,0.0
10114,71.0,0.0,240.0,11.0,0.0
10115,59.0,0.0,240.0,12.0,0.0
10116,61.0,48.0,390.0,3.0,0.0
10117,75.0,0.0,240.0,10.0,0.0
10118,63.0,48.0,240.0,12.0,0.0
10119,73.0,0.0,180.0,10.0,0.0
10120,70.0,0.0,180.0,11.0,0.0
10121,61.0,0.0,180.0,12.0,0.0
10122,58.0,288.0,180.0,12.0,0.0
10123,51.0,0.0,300.0,13.0,0.0
10124,61.0,0.0,240.0,12.0,0.0
10125,58.0,0.0,240.0,12.0,0.0
10126,70.0,0.0,240.0,11.0,0.0
10127,63.0,48.0,390.0,3.0,0.0
10128,39.0,96.0,300.0,14.0,0.0
10129,73.0,48.0,240.0,10.0,0.0
10130,59.0,0.0,180.0,12.0,0.0
10131,56.0,288.0,180.0,12.0,0.0
10132,68.0,0.0,180.0,11.0,0.0
10133,71.0,0.0,180.0,10.0,0.0
10134,39.0,96.0,300.0,13.0,0.0
10135,27.0,0.0,300.0,14.0,0.0
10136,68.0,0.0,240.0,11.0,0.0
10137,71.0,0.0,240.0,10.0,0.0
10138,63.0,48.0,390.0,3.0,0.0
10139,56.0,0.0,240.0,12.0,0.0
10140,59.0,48.0,240.0,12.0,0.0
10141,70.0,0.0,180.0,10.0,0.0
10142,67.0,0.0,180.0,11.0,0.0
10143,58.0,144.0,180.0,12.0,0.0
10144,55.0,0.0,180.0,12.0,0.0
10145,59.0,0.0,390.0,3.0,0.0
10146,71.0,0.0,390.0,4.0,0.0
10147,56.0,48.0,90.0,12.0,0.0
10148,59.0,0.0,90.0,11.0,0.0
10149,51.0,0.0,90.0,11.0,0.0
10150,63.0,0.0,390.0,4.0,0.0
10151,44.0,72.0,150.0,14.0,0.0
10152,47.0,72.0,390.0,5.0,0.0
10153,68.0,0.0,390.0,10.0,0.0
10154,51.0,0.0,390.0,3.0,0.0
10155,56.0,0.0,150.0,13.0,0.0
10156,59.0,0.0,90.0,11.0,0.0
10157,51.0,120.0,90.0,11.0,0.0
10158,56.0,0.0,90.0,12.0,0.0
10159,56.0,0.0,90.0,12.0,0.0
10160,59.0,24.0,90.0,11.0,0.0
10161,58.0,24.0,120.0,13.0,0.0
10162,46.0,0.0,120.0,14.0,0.0
10163,51.0,0.0,90.0,11.0,0.0
10164,56.0,120.0,90.0,12.0,0.0
10165,59.0,0.0,90.0,11.0,0.0
10166,51.0,0.0,90.0,11.0,0.0
10167,43.0,0.0,90.0,14.0,0.0
10168,55.0,0.0,90.0,13.0,0.0
10169,51.0,0.0,90.0,11.0,0.0
10170,56.0,48.0,90.0,12.0,0.0
10171,51.0,0.0,390.0,3.0,0.0
10172,59.0,72.0,390.0,3.0,0.0
10173,59.0,0.0,90.0,11.0,0.0
10174,71.0,0.0,390.0,4.0,0.0
10175,56.0,72.0,150.0,13.0,0.0
10176,47.0,0.0,390.0,5.0,0.0
10177,63.0,0.0,390.0,4.0,0.0
10178,44.0,0.0,150.0,14.0,0.0
10179,59.0,0.0,90.0,11.0,0.0
10180,51.0,0.0,90.0,11.0,0.0
10181,56.0,120.0,90.0,12.0,0.0
10182,58.0,24.0,120.0,13.0,0.0
10183,46.0,0.0,120.0,14.0,0.0
10184,51.0,24.0,90.0,11.0,0.0
10185,56.0,0.0,90.0,12.0,0.0
10186,59.0,0.0,90.0,11.0,0.0
10187,43.0,0.0,90.0,14.0,0.0
10188,51.0,0.0,90.0,11.0,0.0
10189,56.0,120.0,90.0,12.0,0.0
10190,55.0,0.0,90.0,13.0,0.0
10191,59.0,0.0,90.0,11.0,0.0
10192,56.0,48.0,90.0,12.0,0.0
10193,47.0,0.0,390.0,5.0,0.0
10194,44.0,0.0,150.0,14.0,0.0
10195,59.0,0.0,390.0,3.0,0.0
10196,51.0,0.0,390.0,3.0,0.0
10197,63.0,0.0,390.0,4.0,0.0
10198,71.0,72.0,390.0,4.0,0.0
10199,56.0,72.0,150.0,13.0,0.0
10200,51.0,0.0,90.0,11.0,0.0
10201,59.0,0.0,90.0,11.0,0.0
10202,51.0,0.0,90.0,11.0,0.0
10203,59.0,0.0,90.0,11.0,0.0
10204,56.0,120.0,90.0,12.0,0.0
10205,59.0,0.0,90.0,11.0,0.0
10206,46.0,0.0,120.0,14.0,0.0
10207,51.0,24.0,90.0,11.0,0.0
10208,58.0,24.0,120.0,13.0,0.0
10209,56.0,0.0,90.0,12.0,0.0
10210,56.0,0.0,90.0,12.0,0.0
10211,55.0,0.0,90.0,13.0,0.0
10212,51.0,0.0,90.0,11.0,0.0
10213,59.0,0.0,90.0,11.0,0.0
10214,43.0,120.0,90.0,14.0,0.0
10215,71.0,0.0,390.0,4.0,0.0
10216,76.0,0.0,390.0,1.0,0.0
10217,44.0,0.0,300.0,14.0,0.0
10218,47.0,0.0,390.0,3.0,0.0
10219,59.0,0.0,390.0,3.0,0.0
10220,76.0,72.0,150.0,10.0,0.0
10221,56.0,0.0,390.0,2.0,0.0
10222,59.0,72.0,390.0,4.0,0.0
10223,59.0,0.0,390.0,2.0,0.0
10224,56.0,24.0,300.0,13.0,0.0
10225,64.0,0.0,90.0,12.0,0.0
10226,59.0,48.0,90.0,11.0,0.0
10227,47.0,0.0,390.0,5.0,0.0
10228,56.0,0.0,90.0,12.0,0.0
10229,88.0,0.0,390.0,0.0,0.0
10230,71.0,0.0,390.0,1.0,0.0
10231,56.0,0.0,90.0,11.0,0.0
10232,64.0,0.0,90.0,12.0,0.0
10233,56.0,0.0,90.0,12.0,0.0
10234,59.0,0.0,90.0,11.0,0.0
10235,56.0,96.0,90.0,11.0,0.0
10236,56.0,0.0,90.0,11.0,0.0
10237,78.0,24.0,120.0,10.0,0.0
10238,59.0,0.0,90.0,11.0,0.0
10239,56.0,0.0,90.0,12.0,0.0
10240,64.0,24.0,90.0,12.0,0.0
10241,75.0,0.0,90.0,10.0,0.0
10242,56.0,0.0,90.0,11.0,0.0
10243,59.0,0.0,90.0,11.0,0.0
10244,64.0,0.0,90.0,12.0,0.0
10245,56.0,120.0,90.0,12.0,0.0
10246,56.0,0.0,90.0,12.0,0.0
10247,88.0,0.0,390.0,0.0,0.0
10248,64.0,48.0,90.0,12.0,0.0
10249,59.0,0.0,390.0,2.0,0.0
10250,76.0,72.0,150.0,10.0,0.0
10251,71.0,0.0,390.0,1.0,0.0
10252,56.0,0.0,390.0,2.0,0.0
10253,44.0,24.0,300.0,13.0,0.0
10254,76.0,72.0,390.0,1.0,0.0
10255,59.0,0.0,90.0,11.0,0.0
10256,56.0,0.0,90.0,11.0,0.0
10257,32.0,0.0,300.0,14.0,0.0
10258,59.0,0.0,90.0,11.0,0.0
10259,56.0,96.0,90.0,11.0,0.0
10260,56.0,0.0,90.0,12.0,0.0
10261,64.0,0.0,90.0,12.0,0.0
10262,59.0,0.0,90.0,11.0,0.0
10263,78.0,24.0,120.0,10.0,0.0
10264,56.0,24.0,90.0,12.0,0.0
10265,64.0,0.0,90.0,12.0,0.0
10266,56.0,0.0,90.0,11.0,0.0
10267,75.0,0.0,90.0,10.0,0.0
10268,59.0,0.0,90.0,11.0,0.0
10269,64.0,120.0,90.0,12.0,0.0
10270,56.0,0.0,90.0,11.0,0.0
10271,56.0,0.0,90.0,12.0,0.0
10272,88.0,72.0,390.0,0.0,0.0
10273,64.0,0.0,90.0,12.0,0.0
10274,56.0,0.0,390.0,2.0,0.0
10275,59.0,0.0,390.0,2.0,0.0
10276,56.0,0.0,90.0,12.0,0.0
10277,59.0,48.0,90.0,11.0,0.0
10278,76.0,72.0,150.0,10.0,0.0
10279,56.0,0.0,90.0,11.0,0.0
10280,71.0,0.0,390.0,1.0,0.0
10281,76.0,0.0,390.0,1.0,0.0
10282,56.0,120.0,90.0,12.0,0.0
10283,64.0,0.0,90.0,12.0,0.0
10284,56.0,0.0,90.0,11.0,0.0
10285,59.0,0.0,90.0,11.0,0.0
10286,64.0,0.0,90.0,12.0,0.0
10287,56.0,0.0,90.0,12.0,0.0
10288,59.0,24.0,90.0,11.0,0.0
10289,78.0,24.0,120.0,10.0,0.0
10290,56.0,0.0,90.0,11.0,0.0
10291,56.0,0.0,90.0,11.0,0.0
10292,64.0,0.0,90.0,12.0,0.0
10293,56.0,0.0,90.0,12.0,0.0
10294,59.0,0.0,90.0,11.0,0.0
10295,75.0,120.0,90.0,10.0,0.0
10296,61.0,48.0,90.0,11.0,0.0
10297,54.0,0.0,390.0,3.0,0.0
10298,88.0,0.0,1140.0,0.0,0.0
10299,58.0,0.0,1140.0,2.0,0.0
10300,61.0,0.0,1140.0,2.0,0.0
10301,42.0,0.0,150.0,14.0,0.0
10302,42.0,0.0,390.0,3.0,0.0
10303,58.0,0.0,90.0,11.0,0.0
10304,54.0,72.0,150.0,13.0,0.0
10305,54.0,0.0,90.0,12.0,0.0
10306,64.0,0.0,90.0,12.0,0.0
10307,42.0,0.0,390.0,5.0,0.0
10308,70.0,0.0,1140.0,1.0,0.0
10309,76.0,24.0,1140.0,1.0,0.0
10310,76.0,24.0,300.0,10.0,0.0
10311,66.0,72.0,390.0,4.0,0.0
10312,54.0,0.0,390.0,4.0,0.0
10313,54.0,0.0,90.0,12.0,0.0
10314,64.0,0.0,90.0,12.0,0.0
10315,58.0,0.0,90.0,11.0,0.0
10316,61.0,96.0,90.0,11.0,0.0
10317,56.0,0.0,120.0,13.0,0.0
10318,54.0,0.0,90.0,12.0,0.0
10319,58.0,0.0,90.0,11.0,0.0
10320,64.0,24.0,90.0,12.0,0.0
10321,44.0,24.0,120.0,14.0,0.0
10322,61.0,0.0,90.0,11.0,0.0
10323,58.0,120.0,90.0,11.0,0.0
10324,61.0,0.0,90.0,11.0,0.0
10325,54.0,0.0,90.0,12.0,0.0
10326,64.0,0.0,90.0,12.0,0.0
10327,52.0,0.0,90.0,13.0,0.0
10328,40.0,0.0,90.0,14.0,0.0
10329,64.0,48.0,90.0,12.0,0.0
10330,66.0,0.0,390.0,4.0,0.0
10331,54.0,0.0,90.0,12.0,0.0
10332,42.0,0.0,390.0,3.0,0.0
10333,54.0,0.0,390.0,3.0,0.0
10334,58.0,0.0,90.0,11.0,0.0
10335,54.0,0.0,390.0,4.0,0.0
10336,64.0,24.0,300.0,10.0,0.0
10337,61.0,0.0,90.0,11.0,0.0
10338,42.0,0.0,150.0,14.0,0.0
10339,42.0,72.0,390.0,5.0,0.0
10340,54.0,72.0,150.0,13.0,0.0
10341,61.0,0.0,90.0,11.0,0.0
10342,58.0,96.0,90.0,11.0,0.0
10343,64.0,0.0,90.0,12.0,0.0
10344,54.0,0.0,90.0,12.0,0.0
10345,56.0,24.0,120.0,13.0,0.0
10346,54.0,24.0,90.0,12.0,0.0
10347,64.0,0.0,90.0,12.0,0.0
10348,61.0,0.0,90.0,11.0,0.0
10349,58.0,0.0,90.0,11.0,0.0
10350,44.0,0.0,120.0,14.0,0.0
10351,61.0,0.0,90.0,11.0,0.0
10352,58.0,0.0,90.0,11.0,0.0
10353,52.0,0.0,90.0,13.0,0.0
10354,54.0,0.0,90.0,12.0,0.0
10355,64.0,0.0,90.0,12.0,0.0
10356,40.0,120.0,90.0,14.0,0.0
10357,42.0,0.0,390.0,5.0,0.0
10358,61.0,0.0,90.0,11.0,0.0
10359,42.0,72.0,390.0,3.0,0.0
10360,54.0,0.0,390.0,3.0,0.0
10361,54.0,0.0,390.0,4.0,0.0
10362,54.0,0.0,90.0,12.0,0.0
10363,64.0,0.0,90.0,12.0,0.0
10364,66.0,0.0,390.0,4.0,0.0
10365,42.0,48.0,150.0,14.0,0.0
10366,58.0,48.0,90.0,11.0,0.0
10367,54.0,0.0,150.0,13.0,0.0
10368,64.0,0.0,90.0,12.0,0.0
10369,54.0,0.0,90.0,12.0,0.0
10370,61.0,0.0,90.0,11.0,0.0
10371,58.0,120.0,90.0,11.0,0.0
10372,56.0,24.0,120.0,13.0,0.0
10373,44.0,0.0,120.0,14.0,0.0
10374,64.0,0.0,90.0,12.0,0.0
10375,54.0,0.0,90.0,12.0,0.0
10376,61.0,0.0,90.0,11.0,0.0
10377,58.0,24.0,90.0,11.0,0.0
10378,40.0,0.0,90.0,14.0,0.0
10379,52.0,0.0,90.0,13.0,0.0
10380,58.0,120.0,90.0,11.0,0.0
10381,61.0,0.0,90.0,11.0,0.0
10382,64.0,0.0,90.0,12.0,0.0
10383,54.0,0.0,90.0,12.0,0.0
10384,58.0,0.0,90.0,11.0,0.0
10385,63.0,0.0,90.0,11.0,0.0
10386,54.0,0.0,390.0,4.0,0.0
10387,54.0,48.0,90.0,12.0,0.0
10388,63.0,0.0,90.0,12.0,0.0
10389,75.0,72.0,150.0,10.0,0.0
10390,87.0,0.0,390.0,0.0,0.0
10391,66.0,0.0,390.0,4.0,0.0
10392,58.0,0.0,390.0,2.0,0.0
10393,54.0,0.0,390.0,3.0,0.0
10394,42.0,0.0,390.0,3.0,0.0
10395,54.0,0.0,390.0,2.0,0.0
10396,54.0,0.0,390.0,13.0,0.0
10397,42.0,0.0,390.0,14.0,0.0
10398,42.0,0.0,390.0,5.0,0.0
10399,70.0,72.0,390.0,1.0,0.0
10400,75.0,0.0,390.0,1.0,0.0
10401,58.0,0.0,90.0,11.0,0.0
10402,63.0,0.0,90.0,11.0,0.0
10403,54.0,0.0,90.0,12.0,0.0
10404,63.0,120.0,90.0,12.0,0.0
10405,58.0,24.0,90.0,11.0,0.0
10406,76.0,24.0,120.0,10.0,0.0
10407,63.0,0.0,90.0,11.0,0.0
10408,54.0,0.0,90.0,12.0,0.0
10409,63.0,0.0,90.0,12.0,0.0
10410,54.0,0.0,90.0,12.0,0.0
10411,63.0,0.0,90.0,12.0,0.0
10412,73.0,0.0,90.0,10.0,0.0
10413,63.0,120.0,90.0,11.0,0.0
10414,58.0,0.0,90.0,11.0,0.0
10415,70.0,0.0,390.0,1.0,0.0
10416,75.0,0.0,390.0,1.0,0.0
10417,54.0,48.0,90.0,12.0,0.0
10418,63.0,0.0,90.0,12.0,0.0
10419,42.0,0.0,390.0,13.0,0.0
10420,87.0,0.0,390.0,0.0,0.0
10421,58.0,0.0,90.0,11.0,0.0
10422,30.0,72.0,390.0,14.0,0.0
10423,63.0,0.0,90.0,11.0,0.0
10424,58.0,0.0,390.0,2.0,0.0
10425,54.0,0.0,390.0,2.0,0.0
10426,75.0,72.0,150.0,10.0,0.0
10427,58.0,0.0,90.0,11.0,0.0
10428,63.0,120.0,90.0,11.0,0.0
10429,63.0,0.0,90.0,12.0,0.0
10430,54.0,0.0,90.0,12.0,0.0
10431,58.0,0.0,90.0,11.0,0.0
10432,63.0,0.0,90.0,11.0,0.0
10433,76.0,24.0,120.0,10.0,0.0
10434,54.0,24.0,90.0,12.0,0.0
10435,63.0,0.0,90.0,12.0,0.0
10436,63.0,120.0,90.0,12.0,0.0
10437,54.0,0.0,90.0,12.0,0.0
10438,63.0,0.0,90.0,11.0,0.0
10439,73.0,0.0,90.0,10.0,0.0
10440,58.0,0.0,90.0,11.0,0.0
10441,70.0,0.0,390.0,1.0,0.0
10442,75.0,72.0,150.0,10.0,0.0
10443,54.0,0.0,390.0,2.0,0.0
10444,63.0,0.0,90.0,11.0,0.0
10445,58.0,0.0,90.0,11.0,0.0
10446,54.0,0.0,90.0,12.0,0.0
10447,75.0,0.0,390.0,1.0,0.0
10448,87.0,0.0,390.0,0.0,0.0
10449,58.0,72.0,390.0,2.0,0.0
10450,63.0,48.0,90.0,12.0,0.0
10451,63.0,0.0,90.0,12.0,0.0
10452,58.0,0.0,90.0,11.0,0.0
10453,63.0,120.0,90.0,11.0,0.0
10454,54.0,0.0,90.0,12.0,0.0
10455,63.0,24.0,90.0,11.0,0.0
10456,63.0,0.0,90.0,12.0,0.0
10457,54.0,0.0,90.0,12.0,0.0
10458,58.0,0.0,90.0,11.0,0.0
10459,76.0,24.0,120.0,10.0,0.0
10460,63.0,0.0,90.0,11.0,0.0
10461,58.0,0.0,90.0,11.0,0.0
10462,54.0,120.0,90.0,12.0,0.0
10463,63.0,0.0,90.0,12.0,0.0
10464,73.0,0.0,90.0,10.0,0.0
10465,56.0,0.0,1140.0,2.0,0.0
10466,47.0,0.0,390.0,5.0,0.0
10467,41.0,0.0,150.0,14.0,0.0
10468,71.0,0.0,390.0,4.0,0.0
10469,53.0,0.0,90.0,12.0,0.0
10470,63.0,0.0,90.0,12.0,0.0
10471,59.0,24.0,1140.0,2.0,0.0
10472,59.0,72.0,390.0,3.0,0.0
10473,53.0,72.0,150.0,13.0,0.0
10474,56.0,0.0,90.0,11.0,0.0
10475,75.0,24.0,300.0,10.0,0.0
10476,87.0,0.0,1140.0,0.0,0.0
10477,75.0,0.0,1140.0,1.0,0.0
10478,68.0,0.0,1140.0,1.0,0.0
10479,59.0,48.0,90.0,11.0,0.0
10480,56.0,0.0,90.0,11.0,0.0
10481,59.0,0.0,90.0,11.0,0.0
10482,53.0,0.0,90.0,12.0,0.0
10483,63.0,96.0,90.0,12.0,0.0
10484,56.0,0.0,90.0,11.0,0.0
10485,53.0,0.0,90.0,12.0,0.0
10486,54.0,0.0,120.0,13.0,0.0
10487,59.0,24.0,90.0,11.0,0.0
10488,63.0,0.0,90.0,12.0,0.0
10489,42.0,24.0,120.0,14.0,0.0
10490,39.0,0.0,90.0,14.0,0.0
10491,63.0,0.0,90.0,12.0,0.0
10492,56.0,0.0,90.0,11.0,0.0
10493,59.0,120.0,90.0,11.0,0.0
10494,53.0,0.0,90.0,12.0,0.0
10495,51.0,0.0,90.0,13.0,0.0
10496,41.0,0.0,150.0,14.0,0.0
10497,63.0,0.0,90.0,12.0,0.0
10498,53.0,48.0,90.0,12.0,0.0
10499,71.0,0.0,390.0,4.0,0.0
10500,63.0,24.0,300.0,10.0,0.0
10501,59.0,0.0,90.0,11.0,0.0
10502,47.0,72.0,390.0,5.0,0.0
10503,59.0,0.0,390.0,3.0,0.0
10504,56.0,0.0,90.0,11.0,0.0
10505,53.0,72.0,150.0,13.0,0.0
10506,53.0,0.0,90.0,12.0,0.0
10507,59.0,96.0,90.0,11.0,0.0
10508,56.0,0.0,90.0,11.0,0.0
10509,63.0,0.0,90.0,12.0,0.0
10510,54.0,0.0,120.0,13.0,0.0
10511,53.0,0.0,90.0,12.0,0.0
10512,63.0,0.0,90.0,12.0,0.0
10513,56.0,0.0,90.0,11.0,0.0
10514,59.0,24.0,90.0,11.0,0.0
10515,42.0,24.0,120.0,14.0,0.0
10516,63.0,0.0,90.0,12.0,0.0
10517,53.0,0.0,90.0,12.0,0.0
10518,51.0,0.0,90.0,13.0,0.0
10519,39.0,120.0,90.0,14.0,0.0
10520,59.0,0.0,90.0,11.0,0.0
10521,56.0,0.0,90.0,11.0,0.0
10522,56.0,48.0,90.0,11.0,0.0
10523,53.0,48.0,150.0,13.0,0.0
10524,71.0,0.0,390.0,4.0,0.0
10525,47.0,72.0,390.0,5.0,0.0
10526,59.0,0.0,390.0,3.0,0.0
10527,53.0,0.0,90.0,12.0,0.0
10528,63.0,0.0,90.0,12.0,0.0
10529,59.0,0.0,90.0,11.0,0.0
10530,41.0,0.0,150.0,14.0,0.0
10531,59.0,0.0,90.0,11.0,0.0
10532,53.0,0.0,90.0,12.0,0.0
10533,63.0,120.0,90.0,12.0,0.0
10534,56.0,0.0,90.0,11.0,0.0
10535,53.0,0.0,90.0,12.0,0.0
10536,42.0,0.0,120.0,14.0,0.0
10537,59.0,0.0,90.0,11.0,0.0
10538,63.0,24.0,90.0,12.0,0.0
10539,56.0,0.0,90.0,11.0,0.0
10540,54.0,24.0,120.0,13.0,0.0
10541,51.0,0.0,90.0,13.0,0.0
10542,53.0,120.0,90.0,12.0,0.0
10543,39.0,0.0,90.0,14.0,0.0
10544,63.0,0.0,90.0,12.0,0.0
10545,56.0,0.0,90.0,11.0,0.0
10546,59.0,0.0,90.0,11.0,0.0
10547,61.0,0.0,90.0,12.0,0.0
10548,56.0,0.0,390.0,2.0,0.0
10549,53.0,0.0,390.0,2.0,0.0
10550,61.0,0.0,390.0,3.0,0.0
10551,85.0,0.0,390.0,0.0,0.0
10552,53.0,0.0,390.0,13.0,0.0
10553,68.0,72.0,390.0,1.0,0.0
10554,73.0,0.0,390.0,4.0,0.0
10555,41.0,0.0,390.0,14.0,0.0
10556,73.0,72.0,150.0,10.0,0.0
10557,56.0,48.0,90.0,11.0,0.0
10558,61.0,0.0,90.0,11.0,0.0
10559,53.0,0.0,90.0,12.0,0.0
10560,73.0,0.0,390.0,1.0,0.0
10561,61.0,0.0,90.0,12.0,0.0
10562,53.0,120.0,90.0,12.0,0.0
10563,56.0,0.0,90.0,11.0,0.0
10564,61.0,0.0,90.0,11.0,0.0
10565,75.0,24.0,120.0,10.0,0.0
10566,61.0,24.0,90.0,12.0,0.0
10567,53.0,0.0,90.0,12.0,0.0
10568,56.0,0.0,90.0,11.0,0.0
10569,61.0,0.0,90.0,11.0,0.0
10570,61.0,0.0,90.0,11.0,0.0
10571,61.0,0.0,90.0,12.0,0.0
10572,53.0,120.0,90.0,12.0,0.0
10573,56.0,0.0,90.0,11.0,0.0
10574,72.0,0.0,90.0,10.0,0.0
10575,56.0,0.0,90.0,11.0,0.0
10576,29.0,72.0,390.0,14.0,0.0
10577,53.0,48.0,90.0,12.0,0.0
10578,85.0,0.0,390.0,0.0,0.0
10579,61.0,0.0,90.0,11.0,0.0
10580,56.0,0.0,390.0,2.0,0.0
10581,61.0,0.0,90.0,12.0,0.0
10582,41.0,0.0,390.0,13.0,0.0
10583,73.0,0.0,390.0,1.0,0.0
10584,68.0,0.0,390.0,1.0,0.0
10585,73.0,72.0,150.0,10.0,0.0
10586,53.0,0.0,390.0,2.0,0.0
10587,53.0,120.0,90.0,12.0,0.0
10588,56.0,0.0,90.0,11.0,0.0
10589,61.0,0.0,90.0,11.0,0.0
10590,61.0,0.0,90.0,12.0,0.0
10591,75.0,24.0,120.0,10.0,0.0
10592,53.0,0.0,90.0,12.0,0.0
10593,61.0,0.0,90.0,12.0,0.0
10594,61.0,24.0,90.0,11.0,0.0
10595,56.0,0.0,90.0,11.0,0.0
10596,72.0,0.0,90.0,10.0,0.0
10597,53.0,0.0,90.0,12.0,0.0
10598,61.0,0.0,90.0,12.0,0.0
10599,61.0,0.0,90.0,11.0,0.0
10600,56.0,120.0,90.0,11.0,0.0
10601,56.0,0.0,390.0,2.0,0.0
10602,53.0,72.0,390.0,2.0,0.0
10603,53.0,0.0,90.0,12.0,0.0
10604,85.0,0.0,390.0,0.0,0.0
10605,61.0,48.0,90.0,12.0,0.0
10606,68.0,0.0,390.0,1.0,0.0
10607,73.0,72.0,150.0,10.0,0.0
10608,61.0,0.0,90.0,11.0,0.0
10609,56.0,0.0,90.0,11.0,0.0
10610,73.0,0.0,390.0,1.0,0.0
10611,53.0,0.0,90.0,12.0,0.0
10612,61.0,120.0,90.0,12.0,0.0
10613,61.0,0.0,90.0,11.0,0.0
10614,56.0,0.0,90.0,11.0,0.0
10615,56.0,0.0,90.0,11.0,0.0
10616,61.0,0.0,90.0,11.0,0.0
10617,75.0,24.0,120.0,10.0,0.0
10618,61.0,24.0,90.0,12.0,0.0
10619,53.0,0.0,90.0,12.0,0.0
10620,56.0,0.0,90.0,11.0,0.0
10621,72.0,120.0,90.0,10.0,0.0
10622,61.0,0.0,90.0,11.0,0.0
10623,61.0,0.0,90.0,12.0,0.0
10624,53.0,0.0,90.0,12.0,0.0
10625,56.0,0.0,90.0,11.0,0.0
10626,61.0,72.0,390.0,3.0,0.0
10627,85.0,0.0,1140.0,0.0,0.0
10628,68.0,0.0,1140.0,1.0,0.0
10629,73.0,0.0,1140.0,1.0,0.0
10630,56.0,24.0,1140.0,2.0,0.0
10631,52.0,72.0,150.0,13.0,0.0
10632,52.0,0.0,1140.0,2.0,0.0
10633,73.0,0.0,390.0,4.0,0.0
10634,73.0,24.0,300.0,10.0,0.0
10635,40.0,0.0,150.0,14.0,0.0
10636,61.0,0.0,90.0,12.0,0.0
10637,52.0,48.0,90.0,12.0,0.0
10638,61.0,0.0,90.0,11.0,0.0
10639,52.0,96.0,90.0,12.0,0.0
10640,61.0,0.0,90.0,11.0,0.0
10641,56.0,0.0,90.0,11.0,0.0
10642,61.0,0.0,90.0,12.0,0.0
10643,52.0,0.0,90.0,12.0,0.0
10644,61.0,0.0,90.0,12.0,0.0
10645,56.0,0.0,90.0,11.0,0.0
10646,42.0,0.0,120.0,14.0,0.0
10647,54.0,24.0,120.0,13.0,0.0
10648,61.0,24.0,90.0,11.0,0.0
10649,52.0,120.0,90.0,12.0,0.0
10650,61.0,0.0,90.0,12.0,0.0
10651,56.0,0.0,90.0,11.0,0.0
10652,39.0,0.0,90.0,14.0,0.0
10653,61.0,0.0,90.0,11.0,0.0
10654,51.0,0.0,90.0,13.0,0.0
10655,61.0,24.0,300.0,10.0,0.0
10656,73.0,72.0,390.0,4.0,0.0
10657,40.0,72.0,150.0,14.0,0.0
10658,61.0,48.0,90.0,12.0,0.0
10659,56.0,0.0,90.0,11.0,0.0
10660,61.0,0.0,90.0,11.0,0.0
10661,52.0,0.0,150.0,13.0,0.0
10662,52.0,0.0,90.0,12.0,0.0
10663,61.0,0.0,390.0,3.0,0.0
10664,61.0,0.0,90.0,11.0,0.0
10665,52.0,96.0,90.0,12.0,0.0
10666,61.0,0.0,90.0,12.0,0.0
10667,56.0,0.0,90.0,11.0,0.0
10668,54.0,24.0,120.0,13.0,0.0
10669,42.0,0.0,120.0,14.0,0.0
10670,52.0,0.0,90.0,12.0,0.0
10671,61.0,0.0,90.0,12.0,0.0
10672,56.0,0.0,90.0,11.0,0.0
10673,61.0,24.0,90.0,11.0,0.0
10674,52.0,0.0,90.0,12.0,0.0
10675,39.0,0.0,90.0,14.0,0.0
10676,61.0,0.0,90.0,12.0,0.0
10677,51.0,120.0,90.0,13.0,0.0
10678,56.0,0.0,90.0,11.0,0.0
10679,61.0,0.0,90.0,11.0,0.0
10680,61.0,0.0,90.0,12.0,0.0
10681,61.0,48.0,90.0,11.0,0.0
10682,73.0,0.0,390.0,4.0,0.0
10683,40.0,0.0,150.0,14.0,0.0
10684,52.0,48.0,150.0,13.0,0.0
10685,61.0,72.0,390.0,3.0,0.0
10686,52.0,0.0,90.0,12.0,0.0
10687,56.0,0.0,90.0,11.0,0.0
10688,61.0,0.0,90.0,11.0,0.0
10689,56.0,0.0,90.0,11.0,0.0
10690,61.0,0.0,90.0,12.0,0.0
10691,52.0,120.0,90.0,12.0,0.0
10692,54.0,24.0,120.0,13.0,0.0
10693,61.0,24.0,90.0,11.0,0.0
10694,56.0,0.0,90.0,11.0,0.0
10695,61.0,0.0,90.0,12.0,0.0
10696,52.0,0.0,90.0,12.0,0.0
10697,42.0,0.0,120.0,14.0,0.0
10698,56.0,0.0,90.0,11.0,0.0
10699,39.0,0.0,90.0,14.0,0.0
10700,61.0,0.0,90.0,12.0,0.0
10701,61.0,0.0,90.0,11.0,0.0
10702,52.0,0.0,90.0,12.0,0.0
10703,51.0,120.0,90.0,13.0,0.0
10704,40.0,0.0,300.0,14.0,0.0
10705,47.0,0.0,390.0,5.0,0.0
10706,56.0,0.0,390.0,2.0,0.0
10707,52.0,24.0,300.0,13.0,0.0
10708,52.0,0.0,390.0,2.0,0.0
10709,71.0,0.0,390.0,4.0,0.0
10710,59.0,0.0,390.0,4.0,0.0
10711,59.0,0.0,390.0,3.0,0.0
10712,59.0,0.0,90.0,11.0,0.0
10713,52.0,48.0,90.0,12.0,0.0
10714,47.0,0.0,390.0,3.0,0.0
10715,62.0,0.0,90.0,12.0,0.0
10716,56.0,0.0,90.0,11.0,0.0
10717,68.0,72.0,390.0,1.0,0.0
10718,74.0,0.0,390.0,1.0,0.0
10719,86.0,0.0,390.0,0.0,0.0
10720,80.0,72.0,150.0,10.0,0.0
10721,62.0,0.0,90.0,12.0,0.0
10722,56.0,96.0,90.0,11.0,0.0
10723,59.0,0.0,90.0,11.0,0.0
10724,52.0,0.0,90.0,12.0,0.0
10725,52.0,24.0,90.0,12.0,0.0
10726,82.0,24.0,120.0,10.0,0.0
10727,56.0,0.0,90.0,11.0,0.0
10728,59.0,0.0,90.0,11.0,0.0
10729,62.0,0.0,90.0,12.0,0.0
10730,52.0,0.0,90.0,12.0,0.0
10731,79.0,120.0,90.0,10.0,0.0
10732,62.0,0.0,90.0,12.0,0.0
10733,59.0,0.0,90.0,11.0,0.0
10734,56.0,0.0,90.0,11.0,0.0
10735,62.0,0.0,90.0,12.0,0.0
10736,52.0,48.0,90.0,12.0,0.0
10737,68.0,0.0,390.0,1.0,0.0
10738,56.0,0.0,390.0,2.0,0.0
10739,86.0,0.0,390.0,0.0,0.0
10740,40.0,24.0,300.0,13.0,0.0
10741,80.0,72.0,150.0,10.0,0.0
10742,47.0,0.0,390.0,3.0,0.0
10743,28.0,0.0,300.0,14.0,0.0
10744,74.0,0.0,390.0,1.0,0.0
10745,59.0,0.0,390.0,3.0,0.0
10746,52.0,0.0,390.0,2.0,0.0
10747,71.0,72.0,390.0,4.0,0.0
10748,56.0,0.0,90.0,11.0,0.0
10749,59.0,0.0,390.0,4.0,0.0
10750,59.0,0.0,90.0,11.0,0.0
10751,47.0,0.0,390.0,5.0,0.0
10752,56.0,0.0,90.0,11.0,0.0
10753,59.0,0.0,90.0,11.0,0.0
10754,52.0,96.0,90.0,12.0,0.0
10755,62.0,0.0,90.0,12.0,0.0
10756,52.0,24.0,90.0,12.0,0.0
10757,62.0,0.0,90.0,12.0,0.0
10758,59.0,0.0,90.0,11.0,0.0
10759,82.0,24.0,120.0,10.0,0.0
10760,56.0,0.0,90.0,11.0,0.0
10761,62.0,120.0,90.0,12.0,0.0
10762,52.0,0.0,90.0,12.0,0.0
10763,79.0,0.0,90.0,10.0,0.0
10764,56.0,0.0,90.0,11.0,0.0
10765,59.0,0.0,90.0,11.0,0.0
10766,59.0,0.0,390.0,4.0,0.0
10767,62.0,48.0,90.0,12.0,0.0
10768,56.0,72.0,390.0,2.0,0.0
10769,80.0,72.0,150.0,10.0,0.0
10770,47.0,0.0,390.0,5.0,0.0
10771,52.0,0.0,90.0,12.0,0.0
10772,71.0,0.0,390.0,4.0,0.0
10773,74.0,0.0,390.0,1.0,0.0
10774,68.0,0.0,390.0,1.0,0.0
10775,52.0,0.0,390.0,2.0,0.0
10776,56.0,0.0,90.0,11.0,0.0
10777,59.0,0.0,90.0,11.0,0.0
10778,86.0,0.0,390.0,0.0,0.0
10779,59.0,0.0,390.0,3.0,0.0
10780,47.0,0.0,390.0,3.0,0.0
10781,59.0,0.0,90.0,11.0,0.0
10782,56.0,120.0,90.0,11.0,0.0
10783,62.0,0.0,90.0,12.0,0.0
10784,52.0,0.0,90.0,12.0,0.0
10785,80.0,0.0,150.0,10.0,0.0
10786,59.0,0.0,90.0,11.0,0.0
10787,62.0,0.0,90.0,12.0,0.0
10788,56.0,0.0,90.0,11.0,0.0
10789,52.0,48.0,90.0,12.0,0.0
10790,62.0,0.0,90.0,12.0,0.0
10791,52.0,0.0,90.0,12.0,0.0
10792,59.0,120.0,90.0,11.0,0.0
10793,56.0,0.0,90.0,11.0,0.0
10794,55.0,0.0,90.0,11.0,0.0
10795,63.0,72.0,390.0,4.0,0.0
10796,75.0,0.0,390.0,4.0,0.0
10797,39.0,0.0,390.0,13.0,0.0
10798,58.0,120.0,90.0,11.0,0.0
10799,27.0,0.0,390.0,14.0,0.0
10800,87.0,0.0,780.0,0.0,0.0
10801,75.0,0.0,780.0,1.0,0.0
10802,67.0,0.0,780.0,1.0,0.0
10803,51.0,0.0,90.0,12.0,0.0
10804,63.0,0.0,90.0,12.0,0.0
10805,51.0,0.0,780.0,2.0,0.0
10806,55.0,48.0,780.0,2.0,0.0
10807,51.0,24.0,360.0,3.0,0.0
10808,79.0,0.0,90.0,10.0,0.0
10809,63.0,0.0,360.0,3.0,0.0
10810,58.0,0.0,90.0,11.0,0.0
10811,55.0,0.0,90.0,11.0,0.0
10812,51.0,0.0,90.0,12.0,0.0
10813,79.0,120.0,90.0,10.0,0.0
10814,63.0,0.0,90.0,12.0,0.0
10815,55.0,0.0,90.0,11.0,0.0
10816,51.0,24.0,90.0,12.0,0.0
10817,75.0,0.0,90.0,10.0,0.0
10818,58.0,0.0,90.0,11.0,0.0
10819,63.0,0.0,90.0,12.0,0.0
10820,55.0,120.0,90.0,11.0,0.0
10821,51.0,0.0,90.0,12.0,0.0
10822,75.0,0.0,90.0,10.0,0.0
10823,58.0,0.0,90.0,11.0,0.0
10824,63.0,0.0,90.0,12.0,0.0
10825,63.0,36.0,180.0,3.0,0.0
10826,51.0,0.0,180.0,3.0,0.0
10827,55.0,0.0,90.0,11.0,0.0
10828,58.0,84.0,90.0,11.0,0.0
10829,82.0,0.0,90.0,10.0,0.0
10830,51.0,0.0,90.0,12.0,0.0
10831,63.0,0.0,90.0,12.0,0.0
10832,51.0,0.0,90.0,12.0,0.0
10833,82.0,0.0,90.0,10.0,0.0
10834,58.0,72.0,90.0,11.0,0.0
10835,55.0,0.0,90.0,11.0,0.0
10836,63.0,0.0,90.0,12.0,0.0
10837,51.0,0.0,180.0,3.0,0.0
10838,55.0,0.0,90.0,11.0,0.0
10839,58.0,0.0,90.0,11.0,0.0
10840,51.0,84.0,90.0,12.0,0.0
10841,63.0,0.0,90.0,12.0,0.0
10842,63.0,36.0,180.0,3.0,0.0
10843,79.0,0.0,90.0,10.0,0.0
10844,63.0,0.0,90.0,12.0,0.0
10845,55.0,0.0,90.0,11.0,0.0
10846,79.0,120.0,90.0,10.0,0.0
10847,58.0,0.0,90.0,11.0,0.0
10848,51.0,0.0,90.0,12.0,0.0
10849,51.0,0.0,90.0,12.0,0.0
10850,63.0,0.0,90.0,12.0,0.0
10851,75.0,0.0,90.0,10.0,0.0
10852,51.0,0.0,180.0,3.0,0.0
10853,55.0,0.0,390.0,2.0,0.0
10854,55.0,0.0,90.0,11.0,0.0
10855,70.0,0.0,390.0,1.0,0.0
10856,73.0,0.0,390.0,1.0,0.0
10857,85.0,0.0,390.0,0.0,0.0
10858,63.0,36.0,180.0,3.0,0.0
10859,58.0,36.0,390.0,2.0,0.0
10860,58.0,84.0,90.0,11.0,0.0
10861,55.0,0.0,90.0,11.0,0.0
10862,58.0,0.0,90.0,11.0,0.0
10863,75.0,120.0,90.0,10.0,0.0
10864,51.0,0.0,90.0,12.0,0.0
10865,63.0,0.0,90.0,12.0,0.0
10866,51.0,36.0,180.0,3.0,0.0
10867,63.0,0.0,180.0,3.0,0.0
10868,73.0,48.0,90.0,10.0,0.0
10869,63.0,0.0,90.0,12.0,0.0
10870,55.0,0.0,90.0,11.0,0.0
10871,58.0,0.0,90.0,11.0,0.0
10872,51.0,0.0,90.0,12.0,0.0
10873,63.0,0.0,90.0,12.0,0.0
10874,58.0,0.0,90.0,11.0,0.0
10875,51.0,0.0,90.0,12.0,0.0
10876,55.0,0.0,90.0,11.0,0.0
10877,73.0,120.0,90.0,10.0,0.0
10878,51.0,0.0,360.0,3.0,0.0
10879,56.0,48.0,780.0,2.0,0.0
10880,83.0,0.0,780.0,0.0,0.0
10881,63.0,0.0,90.0,12.0,0.0
10882,59.0,0.0,780.0,2.0,0.0
10883,71.0,0.0,90.0,10.0,0.0
10884,63.0,24.0,360.0,3.0,0.0
10885,75.0,72.0,390.0,4.0,0.0
10886,56.0,0.0,90.0,11.0,0.0
10887,68.0,0.0,780.0,1.0,0.0
10888,71.0,0.0,780.0,1.0,0.0
10889,59.0,0.0,90.0,11.0,0.0
10890,51.0,120.0,90.0,12.0,0.0
10891,63.0,0.0,390.0,4.0,0.0
10892,51.0,120.0,90.0,12.0,0.0
10893,63.0,0.0,90.0,12.0,0.0
10894,71.0,0.0,90.0,10.0,0.0
10895,56.0,0.0,90.0,11.0,0.0
10896,59.0,0.0,90.0,11.0,0.0
10897,75.0,0.0,90.0,10.0,0.0
10898,59.0,24.0,90.0,11.0,0.0
10899,56.0,0.0,90.0,11.0,0.0
10900,51.0,0.0,90.0,12.0,0.0
10901,63.0,0.0,90.0,12.0,0.0
10902,63.0,0.0,90.0,12.0,0.0
10903,59.0,120.0,90.0,11.0,0.0
10904,51.0,0.0,90.0,12.0,0.0
10905,56.0,0.0,90.0,11.0,0.0
10906,75.0,0.0,90.0,10.0,0.0
10907,80.0,84.0,90.0,10.0,0.0
10908,63.0,36.0,180.0,3.0,0.0
10909,59.0,0.0,90.0,11.0,0.0
10910,56.0,0.0,90.0,11.0,0.0
10911,51.0,0.0,90.0,12.0,0.0
10912,63.0,0.0,90.0,12.0,0.0
10913,51.0,0.0,180.0,3.0,0.0
10914,63.0,0.0,90.0,12.0,0.0
10915,51.0,72.0,90.0,12.0,0.0
10916,80.0,0.0,90.0,10.0,0.0
10917,59.0,0.0,90.0,11.0,0.0
10918,56.0,0.0,90.0,11.0,0.0
10919,63.0,36.0,180.0,3.0,0.0
10920,63.0,0.0,90.0,12.0,0.0
10921,56.0,0.0,90.0,11.0,0.0
10922,51.0,0.0,90.0,12.0,0.0
10923,51.0,0.0,180.0,3.0,0.0
10924,75.0,84.0,90.0,10.0,0.0
10925,59.0,0.0,90.0,11.0,0.0
10926,56.0,0.0,90.0,11.0,0.0
10927,63.0,0.0,90.0,12.0,0.0
10928,51.0,0.0,90.0,12.0,0.0
10929,59.0,0.0,90.0,11.0,0.0
10930,75.0,120.0,90.0,10.0,0.0
10931,56.0,12.0,390.0,2.0,0.0
10932,59.0,0.0,90.0,11.0,0.0
10933,68.0,0.0,390.0,1.0,0.0
10934,63.0,36.0,180.0,3.0,0.0
10935,51.0,0.0,150.0,12.0,0.0
10936,80.0,0.0,390.0,0.0,0.0
10937,56.0,0.0,90.0,11.0,0.0
10938,51.0,0.0,180.0,3.0,0.0
10939,71.0,60.0,90.0,10.0,0.0
10940,63.0,24.0,150.0,12.0,0.0
10941,56.0,0.0,90.0,11.0,0.0
10942,71.0,120.0,90.0,10.0,0.0
10943,59.0,0.0,90.0,11.0,0.0
10944,68.0,48.0,90.0,11.0,0.0
10945,56.0,0.0,210.0,13.0,0.0
10946,68.0,24.0,150.0,12.0,0.0
10947,63.0,24.0,180.0,3.0,0.0
10948,51.0,0.0,180.0,3.0,0.0
10949,68.0,0.0,90.0,10.0,0.0
10950,44.0,12.0,210.0,14.0,0.0
10951,68.0,120.0,90.0,10.0,0.0
10952,68.0,0.0,90.0,11.0,0.0
10953,63.0,0.0,390.0,3.0,0.0
10954,51.0,0.0,390.0,3.0,0.0
10955,67.0,0.0,90.0,11.0,0.0
10956,67.0,96.0,90.0,10.0,0.0
10957,63.0,0.0,390.0,4.0,0.0
10958,75.0,48.0,390.0,4.0,0.0
10959,79.0,0.0,180.0,0.0,0.0
10960,55.0,0.0,180.0,2.0,0.0
10961,43.0,24.0,180.0,14.0,0.0
10962,55.0,0.0,180.0,13.0,0.0
10963,67.0,0.0,180.0,12.0,0.0
10964,67.0,0.0,180.0,1.0,0.0
10965,67.0,120.0,90.0,10.0,0.0
10966,67.0,0.0,90.0,11.0,0.0
10967,51.0,0.0,180.0,2.0,0.0
10968,39.0,0.0,180.0,14.0,0.0
10969,75.0,0.0,180.0,0.0,0.0
10970,63.0,0.0,180.0,12.0,0.0
10971,63.0,0.0,90.0,11.0,0.0
10972,63.0,0.0,180.0,1.0,0.0
10973,51.0,24.0,180.0,13.0,0.0
10974,63.0,48.0,90.0,10.0,0.0
10975,63.0,0.0,90.0,11.0,0.0
10976,63.0,120.0,90.0,10.0,0.0
10977,58.0,0.0,180.0,2.0,0.0
10978,70.0,0.0,180.0,1.0,0.0
10979,70.0,96.0,90.0,11.0,0.0
10980,46.0,0.0,180.0,14.0,0.0
10981,70.0,0.0,180.0,12.0,0.0
10982,58.0,0.0,180.0,13.0,0.0
10983,82.0,24.0,180.0,0.0,0.0
10984,70.0,0.0,90.0,10.0,0.0
10985,70.0,0.0,90.0,11.0,0.0
10986,70.0,120.0,90.0,10.0,0.0
10987,67.0,0.0,90.0,10.0,0.0
10988,43.0,0.0,180.0,14.0,0.0
10989,67.0,96.0,90.0,11.0,0.0
10990,55.0,0.0,180.0,13.0,0.0
10991,67.0,0.0,180.0,1.0,0.0
10992,67.0,0.0,180.0,12.0,0.0
10993,79.0,24.0,180.0,0.0,0.0
10994,55.0,0.0,180.0,2.0,0.0
10995,67.0,0.0,90.0,11.0,0.0
10996,67.0,120.0,90.0,10.0,0.0
10997,63.0,0.0,90.0,10.0,0.0
10998,63.0,0.0,180.0,12.0,0.0
10999,75.0,0.0,180.0,0.0,0.0
11000,51.0,0.0,180.0,2.0,0.0
11001,63.0,24.0,180.0,1.0,0.0
11002,39.0,0.0,180.0,14.0,0.0
11003,63.0,96.0,90.0,11.0,0.0
11004,51.0,0.0,180.0,13.0,0.0
11005,63.0,120.0,90.0,11.0,0.0
11006,63.0,0.0,90.0,10.0,0.0
11007,37.0,0.0,180.0,14.0,0.0
11008,49.0,0.0,180.0,13.0,0.0
11009,61.0,0.0,180.0,12.0,0.0
11010,73.0,0.0,180.0,0.0,0.0
11011,61.0,0.0,90.0,10.0,0.0
11012,61.0,96.0,90.0,11.0,0.0
11013,49.0,0.0,180.0,2.0,0.0
11014,61.0,24.0,180.0,1.0,0.0
11015,61.0,120.0,90.0,10.0,0.0
11016,61.0,0.0,90.0,11.0,0.0
11017,59.0,0.0,180.0,1.0,0.0
11018,47.0,0.0,180.0,2.0,0.0
11019,59.0,96.0,90.0,10.0,0.0
11020,59.0,0.0,90.0,11.0,0.0
11021,71.0,0.0,180.0,0.0,0.0
11022,35.0,0.0,180.0,14.0,0.0
11023,59.0,0.0,180.0,12.0,0.0
11024,47.0,24.0,180.0,13.0,0.0
11025,59.0,0.0,90.0,10.0,0.0
11026,59.0,120.0,90.0,11.0,0.0
11027,63.0,0.0,180.0,1.0,0.0
11028,51.0,24.0,180.0,13.0,0.0
11029,75.0,0.0,180.0,0.0,0.0
11030,51.0,0.0,180.0,2.0,0.0
11031,39.0,0.0,180.0,14.0,0.0
11032,63.0,0.0,180.0,12.0,0.0
11033,63.0,96.0,90.0,10.0,0.0
11034,63.0,0.0,90.0,11.0,0.0
11035,63.0,0.0,90.0,10.0,0.0
11036,63.0,120.0,90.0,11.0,0.0
11037,68.0,0.0,90.0,11.0,0.0
11038,68.0,96.0,90.0,10.0,0.0
11039,56.0,0.0,180.0,13.0,0.0
11040,56.0,0.0,180.0,2.0,0.0
11041,44.0,0.0,180.0,14.0,0.0
11042,68.0,0.0,180.0,1.0,0.0
11043,80.0,24.0,180.0,0.0,0.0
11044,68.0,0.0,180.0,12.0,0.0
11045,68.0,120.0,90.0,10.0,0.0
11046,68.0,0.0,90.0,11.0,0.0
11047,63.0,0.0,90.0,11.0,0.0
11048,51.0,0.0,180.0,2.0,0.0
11049,63.0,0.0,180.0,12.0,0.0
11050,51.0,0.0,180.0,13.0,0.0
11051,63.0,96.0,90.0,10.0,0.0
11052,39.0,24.0,180.0,14.0,0.0
11053,75.0,0.0,180.0,0.0,0.0
11054,75.0,0.0,180.0,1.0,0.0
11055,63.0,0.0,180.0,1.0,0.0
11056,63.0,0.0,90.0,10.0,0.0
11057,63.0,120.0,90.0,11.0,0.0
11058,47.0,0.0,180.0,13.0,0.0
11059,59.0,0.0,180.0,1.0,0.0
11060,59.0,96.0,90.0,10.0,0.0
11061,47.0,0.0,180.0,2.0,0.0
11062,71.0,0.0,180.0,0.0,0.0
11063,35.0,0.0,180.0,14.0,0.0
11064,59.0,0.0,90.0,11.0,0.0
11065,59.0,24.0,180.0,12.0,0.0
11066,71.0,0.0,180.0,1.0,0.0
11067,59.0,120.0,90.0,10.0,0.0
11068,59.0,0.0,90.0,11.0,0.0
11069,68.0,0.0,180.0,0.0,0.0
11070,44.0,0.0,180.0,2.0,0.0
11071,44.0,0.0,180.0,13.0,0.0
11072,32.0,0.0,180.0,14.0,0.0
11073,56.0,96.0,90.0,10.0,0.0
11074,56.0,24.0,180.0,12.0,0.0
11075,56.0,0.0,90.0,11.0,0.0
11076,56.0,0.0,180.0,1.0,0.0
11077,68.0,0.0,180.0,1.0,0.0
11078,56.0,0.0,90.0,10.0,0.0
11079,56.0,120.0,90.0,11.0,0.0
11080,52.0,0.0,240.0,2.0,0.0
11081,49.0,0.0,240.0,2.0,0.0
11082,37.0,0.0,240.0,14.0,0.0
11083,49.0,0.0,240.0,13.0,0.0
11084,57.0,0.0,90.0,11.0,0.0
11085,69.0,0.0,240.0,1.0,0.0
11086,57.0,120.0,90.0,10.0,0.0
11087,81.0,96.0,240.0,0.0,0.0
11088,52.0,0.0,240.0,12.0,0.0
11089,57.0,0.0,90.0,11.0,0.0
11090,57.0,24.0,90.0,10.0,0.0
11091,56.0,96.0,90.0,11.0,0.0
11092,51.0,0.0,180.0,12.0,0.0
11093,68.0,0.0,240.0,1.0,0.0
11094,36.0,24.0,180.0,14.0,0.0
11095,51.0,96.0,240.0,2.0,0.0
11096,48.0,0.0,240.0,2.0,0.0
11097,56.0,0.0,90.0,10.0,0.0
11098,80.0,0.0,240.0,0.0,0.0
11099,48.0,0.0,180.0,13.0,0.0
11100,56.0,0.0,90.0,10.0,0.0
11101,56.0,24.0,90.0,11.0,0.0
11102,52.0,96.0,240.0,2.0,0.0
11103,49.0,0.0,240.0,2.0,0.0
11104,69.0,0.0,240.0,1.0,0.0
11105,37.0,0.0,240.0,14.0,0.0
11106,81.0,0.0,240.0,0.0,0.0
11107,52.0,0.0,240.0,12.0,0.0
11108,57.0,0.0,90.0,10.0,0.0
11109,49.0,0.0,240.0,13.0,0.0
11110,57.0,120.0,90.0,11.0,0.0
11111,57.0,0.0,90.0,11.0,0.0
11112,57.0,24.0,90.0,10.0,0.0
11113,36.0,24.0,180.0,14.0,0.0
11114,51.0,0.0,180.0,12.0,0.0
11115,68.0,0.0,240.0,1.0,0.0
11116,80.0,0.0,240.0,0.0,0.0
11117,48.0,0.0,180.0,13.0,0.0
11118,51.0,96.0,240.0,2.0,0.0
11119,48.0,0.0,240.0,2.0,0.0
11120,56.0,96.0,90.0,11.0,0.0
11121,56.0,0.0,90.0,10.0,0.0
11122,56.0,24.0,90.0,11.0,0.0
11123,56.0,0.0,90.0,10.0,0.0
11124,81.0,0.0,240.0,0.0,0.0
11125,52.0,0.0,240.0,2.0,0.0
11126,49.0,0.0,240.0,13.0,0.0
11127,57.0,120.0,90.0,10.0,0.0
11128,69.0,96.0,240.0,1.0,0.0
11129,57.0,0.0,90.0,11.0,0.0
11130,37.0,0.0,240.0,14.0,0.0
11131,49.0,0.0,240.0,2.0,0.0
11132,52.0,0.0,240.0,12.0,0.0
11133,57.0,0.0,90.0,10.0,0.0
11134,57.0,24.0,90.0,11.0,0.0
11135,56.0,96.0,90.0,10.0,0.0
11136,80.0,0.0,240.0,0.0,0.0
11137,56.0,0.0,90.0,11.0,0.0
11138,48.0,0.0,180.0,13.0,0.0
11139,48.0,0.0,240.0,2.0,0.0
11140,36.0,24.0,180.0,14.0,0.0
11141,51.0,0.0,180.0,12.0,0.0
11142,51.0,0.0,240.0,2.0,0.0
11143,68.0,156.0,240.0,1.0,0.0
11144,56.0,0.0,90.0,10.0,0.0
11145,56.0,24.0,90.0,11.0,0.0
11146,37.0,0.0,390.0,14.0,0.0
11147,52.0,0.0,390.0,12.0,0.0
11148,49.0,0.0,390.0,2.0,0.0
11149,69.0,12.0,390.0,1.0,0.0
11150,52.0,0.0,390.0,2.0,0.0
11151,57.0,0.0,150.0,10.0,0.0
11152,57.0,228.0,150.0,11.0,0.0
11153,49.0,0.0,390.0,13.0,0.0
11154,81.0,0.0,390.0,0.0,0.0
11155,61.0,0.0,150.0,11.0,0.0
11156,61.0,240.0,150.0,10.0,0.0
11157,64.0,0.0,150.0,11.0,0.0
11158,64.0,240.0,150.0,10.0,0.0
11159,69.0,0.0,150.0,11.0,0.0
11160,69.0,240.0,150.0,10.0,0.0
11161,73.0,240.0,150.0,10.0,0.0
11162,73.0,0.0,150.0,11.0,0.0
11163,76.0,180.0,150.0,11.0,0.0
11164,76.0,0.0,150.0,10.0,0.0
11165,51.0,96.0,240.0,13.0,0.0
11166,84.0,0.0,240.0,0.0,0.0
11167,51.0,0.0,240.0,2.0,0.0
11168,54.0,0.0,240.0,12.0,0.0
11169,72.0,0.0,240.0,1.0,0.0
11170,60.0,0.0,90.0,10.0,0.0
11171,54.0,0.0,240.0,2.0,0.0
11172,60.0,120.0,90.0,11.0,0.0
11173,39.0,0.0,240.0,14.0,0.0
11174,60.0,0.0,90.0,11.0,0.0
11175,60.0,24.0,90.0,10.0,0.0
11176,85.0,96.0,240.0,0.0,0.0
11177,56.0,0.0,180.0,12.0,0.0
11178,73.0,0.0,240.0,1.0,0.0
11179,61.0,96.0,90.0,10.0,0.0
11180,52.0,0.0,240.0,2.0,0.0
11181,40.0,0.0,180.0,14.0,0.0
11182,56.0,0.0,240.0,2.0,0.0
11183,52.0,24.0,180.0,13.0,0.0
11184,61.0,0.0,90.0,11.0,0.0
11185,61.0,24.0,90.0,11.0,0.0
11186,61.0,0.0,90.0,10.0,0.0
11187,72.0,0.0,240.0,1.0,0.0
11188,39.0,96.0,240.0,14.0,0.0
11189,60.0,120.0,90.0,11.0,0.0
11190,51.0,0.0,240.0,13.0,0.0
11191,54.0,0.0,240.0,2.0,0.0
11192,54.0,0.0,240.0,12.0,0.0
11193,60.0,0.0,90.0,10.0,0.0
11194,84.0,0.0,240.0,0.0,0.0
11195,51.0,0.0,240.0,2.0,0.0
11196,60.0,24.0,90.0,11.0,0.0
11197,60.0,0.0,90.0,10.0,0.0
11198,52.0,24.0,180.0,13.0,0.0
11199,61.0,0.0,90.0,11.0,0.0
11200,73.0,0.0,240.0,1.0,0.0
11201,56.0,0.0,240.0,2.0,0.0
11202,52.0,96.0,240.0,2.0,0.0
11203,61.0,96.0,90.0,10.0,0.0
11204,85.0,0.0,240.0,0.0,0.0
11205,40.0,0.0,180.0,14.0,0.0
11206,56.0,0.0,180.0,12.0,0.0
11207,61.0,0.0,90.0,11.0,0.0
11208,61.0,24.0,90.0,10.0,0.0
11209,51.0,0.0,240.0,2.0,0.0
11210,54.0,0.0,240.0,2.0,0.0
11211,39.0,0.0,240.0,14.0,0.0
11212,72.0,96.0,240.0,1.0,0.0
11213,54.0,0.0,240.0,12.0,0.0
11214,60.0,120.0,90.0,11.0,0.0
11215,51.0,0.0,240.0,13.0,0.0
11216,84.0,0.0,240.0,0.0,0.0
11217,60.0,0.0,90.0,10.0,0.0
11218,60.0,24.0,90.0,11.0,0.0
11219,60.0,0.0,90.0,10.0,0.0
11220,61.0,96.0,90.0,11.0,0.0
11221,56.0,0.0,240.0,2.0,0.0
11222,52.0,156.0,240.0,2.0,0.0
11223,61.0,0.0,90.0,10.0,0.0
11224,73.0,0.0,240.0,1.0,0.0
11225,56.0,0.0,180.0,12.0,0.0
11226,40.0,0.0,180.0,14.0,0.0
11227,85.0,0.0,240.0,0.0,0.0
11228,52.0,24.0,180.0,13.0,0.0
11229,61.0,24.0,90.0,10.0,0.0
11230,61.0,0.0,90.0,11.0,0.0
11231,84.0,12.0,390.0,0.0,0.0
11232,54.0,0.0,390.0,12.0,0.0
11233,72.0,0.0,390.0,1.0,0.0
11234,54.0,0.0,390.0,2.0,0.0
11235,51.0,0.0,390.0,2.0,0.0
11236,60.0,228.0,150.0,11.0,0.0
11237,60.0,0.0,150.0,10.0,0.0
11238,51.0,0.0,390.0,13.0,0.0
11239,39.0,0.0,390.0,14.0,0.0
11240,63.0,0.0,150.0,11.0,0.0
11241,63.0,240.0,150.0,10.0,0.0
11242,66.0,0.0,150.0,11.0,0.0
11243,66.0,240.0,150.0,10.0,0.0
11244,72.0,240.0,150.0,10.0,0.0
11245,72.0,0.0,150.0,11.0,0.0
11246,75.0,240.0,150.0,11.0,0.0
11247,75.0,0.0,150.0,10.0,0.0
11248,78.0,0.0,150.0,11.0,0.0
11249,78.0,180.0,150.0,10.0,0.0
11250,61.0,0.0,90.0,10.0,0.0
11251,40.0,96.0,240.0,14.0,0.0
11252,52.0,0.0,240.0,13.0,0.0
11253,56.0,0.0,240.0,2.0,0.0
11254,52.0,0.0,240.0,2.0,0.0
11255,73.0,0.0,240.0,1.0,0.0
11256,85.0,0.0,240.0,0.0,0.0
11257,56.0,0.0,240.0,12.0,0.0
11258,61.0,120.0,90.0,11.0,0.0
11259,61.0,0.0,90.0,10.0,0.0
11260,61.0,24.0,90.0,11.0,0.0
11261,57.0,0.0,240.0,2.0,0.0
11262,60.0,96.0,90.0,11.0,0.0
11263,57.0,0.0,180.0,12.0,0.0
11264,54.0,0.0,240.0,2.0,0.0
11265,54.0,0.0,180.0,13.0,0.0
11266,42.0,24.0,180.0,14.0,0.0
11267,84.0,0.0,240.0,0.0,0.0
11268,60.0,0.0,90.0,10.0,0.0
11269,72.0,96.0,240.0,1.0,0.0
11270,60.0,0.0,90.0,11.0,0.0
11271,60.0,24.0,90.0,10.0,0.0
11272,85.0,0.0,240.0,0.0,0.0
11273,61.0,0.0,90.0,11.0,0.0
11274,56.0,0.0,240.0,2.0,0.0
11275,52.0,0.0,240.0,2.0,0.0
11276,73.0,96.0,240.0,1.0,0.0
11277,40.0,0.0,240.0,14.0,0.0
11278,56.0,0.0,240.0,12.0,0.0
11279,61.0,120.0,90.0,10.0,0.0
11280,52.0,0.0,240.0,13.0,0.0
11281,61.0,0.0,90.0,11.0,0.0
11282,61.0,24.0,90.0,10.0,0.0
11283,54.0,0.0,180.0,13.0,0.0
11284,84.0,96.0,240.0,0.0,0.0
11285,60.0,96.0,90.0,10.0,0.0
11286,57.0,24.0,180.0,12.0,0.0
11287,72.0,0.0,240.0,1.0,0.0
11288,60.0,0.0,90.0,11.0,0.0
11289,42.0,0.0,180.0,14.0,0.0
11290,54.0,0.0,240.0,2.0,0.0
11291,57.0,0.0,240.0,2.0,0.0
11292,60.0,24.0,90.0,11.0,0.0
11293,60.0,0.0,90.0,10.0,0.0
11294,56.0,96.0,240.0,12.0,0.0
11295,61.0,120.0,90.0,10.0,0.0
11296,52.0,0.0,240.0,2.0,0.0
11297,61.0,0.0,90.0,11.0,0.0
11298,73.0,0.0,240.0,1.0,0.0
11299,52.0,0.0,240.0,13.0,0.0
11300,56.0,0.0,240.0,2.0,0.0
11301,40.0,0.0,240.0,14.0,0.0
11302,85.0,0.0,240.0,0.0,0.0
11303,61.0,0.0,90.0,11.0,0.0
11304,61.0,24.0,90.0,10.0,0.0
11305,57.0,156.0,240.0,2.0,0.0
11306,54.0,0.0,240.0,2.0,0.0
11307,57.0,0.0,180.0,12.0,0.0
11308,60.0,0.0,90.0,11.0,0.0
11309,54.0,0.0,180.0,13.0,0.0
11310,84.0,0.0,240.0,0.0,0.0
11311,60.0,96.0,90.0,10.0,0.0
11312,72.0,0.0,240.0,1.0,0.0
11313,42.0,24.0,180.0,14.0,0.0
11314,60.0,0.0,90.0,11.0,0.0
11315,60.0,24.0,90.0,10.0,0.0
11316,56.0,0.0,390.0,12.0,0.0
11317,73.0,0.0,390.0,1.0,0.0
11318,40.0,12.0,390.0,14.0,0.0
11319,56.0,0.0,390.0,2.0,0.0
11320,85.0,0.0,390.0,0.0,0.0
11321,52.0,0.0,390.0,13.0,0.0
11322,52.0,0.0,390.0,2.0,0.0
11323,61.0,0.0,150.0,11.0,0.0
11324,61.0,228.0,150.0,10.0,0.0
11325,64.0,240.0,150.0,10.0,0.0
11326,64.0,0.0,150.0,11.0,0.0
11327,68.0,0.0,150.0,10.0,0.0
11328,68.0,240.0,150.0,11.0,0.0
11329,73.0,0.0,150.0,11.0,0.0
11330,73.0,240.0,150.0,10.0,0.0
11331,76.0,0.0,150.0,10.0,0.0
11332,76.0,240.0,150.0,11.0,0.0
11333,80.0,0.0,150.0,11.0,0.0
11334,80.0,240.0,150.0,10.0,0.0
11335,62.0,228.0,150.0,11.0,0.0
11336,53.0,0.0,390.0,13.0,0.0
11337,56.0,0.0,390.0,12.0,0.0
11338,62.0,0.0,150.0,10.0,0.0
11339,53.0,0.0,390.0,2.0,0.0
11340,86.0,0.0,390.0,0.0,0.0
11341,41.0,12.0,390.0,14.0,0.0
11342,74.0,0.0,390.0,1.0,0.0
11343,56.0,0.0,390.0,2.0,0.0
11344,65.0,240.0,150.0,11.0,0.0
11345,65.0,0.0,150.0,10.0,0.0
11346,68.0,0.0,150.0,10.0,0.0
11347,68.0,240.0,150.0,11.0,0.0
11348,74.0,0.0,150.0,10.0,0.0
11349,74.0,240.0,150.0,11.0,0.0
11350,77.0,0.0,150.0,11.0,0.0
11351,77.0,240.0,150.0,10.0,0.0
11352,80.0,348.0,150.0,11.0,0.0
11353,80.0,0.0,150.0,10.0,0.0
11354,87.0,0.0,270.0,0.0,0.0
11355,51.0,0.0,270.0,11.0,0.0
11356,51.0,0.0,270.0,2.0,0.0
11357,75.0,0.0,270.0,1.0,0.0
11358,51.0,480.0,270.0,10.0,0.0
11359,68.0,0.0,270.0,11.0,0.0
11360,56.0,0.0,270.0,2.0,0.0
11361,59.0,0.0,270.0,2.0,0.0
11362,75.0,0.0,270.0,4.0,0.0
11363,63.0,0.0,270.0,4.0,0.0
11364,63.0,0.0,270.0,12.0,0.0
11365,63.0,0.0,270.0,3.0,0.0
11366,51.0,480.0,270.0,3.0,0.0
11367,39.0,0.0,270.0,14.0,0.0
11368,71.0,0.0,270.0,1.0,0.0
11369,68.0,0.0,270.0,1.0,0.0
11370,51.0,0.0,270.0,13.0,0.0
11371,83.0,0.0,270.0,0.0,0.0
11372,71.0,0.0,270.0,10.0,0.0
11373,63.0,0.0,270.0,3.0,0.0
11374,51.0,0.0,270.0,3.0,0.0
11375,27.0,0.0,270.0,14.0,0.0
11376,75.0,0.0,270.0,4.0,0.0
11377,63.0,0.0,270.0,4.0,0.0
11378,51.0,0.0,270.0,12.0,0.0
11379,70.0,0.0,270.0,1.0,0.0
11380,70.0,0.0,270.0,10.0,0.0
11381,58.0,0.0,270.0,2.0,0.0
11382,55.0,0.0,270.0,2.0,0.0
11383,39.0,0.0,270.0,13.0,0.0
11384,82.0,2616.0,270.0,0.0,0.0
11385,67.0,0.0,270.0,11.0,0.0
11386,67.0,0.0,270.0,1.0,0.0
11387,60.0,0.0,1440.0,2.0,0.0
11388,75.0,960.0,1440.0,1.0,0.0
11389,78.0,0.0,1440.0,1.0,0.0
11390,69.0,240.0,480.0,0.0,0.0
11391,68.0,240.0,240.0,0.0,0.0
11392,59.0,0.0,1440.0,2.0,0.0
11393,77.0,0.0,1440.0,1.0,0.0
11394,68.0,960.0,1440.0,1.0,0.0
11395,74.0,240.0,480.0,0.0,0.0
11396,73.0,240.0,240.0,0.0,0.0
11397,73.0,0.0,1440.0,1.0,0.0
11398,58.0,384.0,1440.0,2.0,0.0
11399,76.0,0.0,1440.0,1.0,0.0
11400,79.0,240.0,480.0,0.0,0.0
11401,78.0,240.0,240.0,0.0,0.0
11402,47.0,576.0,390.0,13.0,0.0
11403,35.0,0.0,390.0,14.0,0.0
11404,59.0,456.0,480.0,10.0,0.0
11405,63.0,984.0,450.0,10.0,0.0
11406,66.0,480.0,1920.0,10.0,0.0
11407,59.0,456.0,480.0,3.0,0.0
11408,47.0,0.0,480.0,3.0,0.0
11409,63.0,504.0,450.0,3.0,0.0
11410,51.0,0.0,450.0,3.0,0.0
11411,66.0,0.0,3270.0,3.0,0.0
11412,54.0,0.0,3270.0,3.0,0.0
11413,75.0,480.0,480.0,10.0,0.0
11414,73.0,864.0,480.0,10.0,0.0
11415,71.0,384.0,960.0,10.0,0.0
11416,64.0,0.0,390.0,11.0,0.0
11417,61.0,96.0,390.0,12.0,0.0
11418,64.0,480.0,390.0,11.0,0.0
11419,61.0,0.0,390.0,12.0,0.0
11420,70.0,0.0,390.0,10.0,0.0
11421,61.0,0.0,390.0,12.0,0.0
11422,42.0,0.0,390.0,13.0,0.0
11423,64.0,576.0,390.0,11.0,0.0
11424,30.0,0.0,390.0,14.0,0.0
11425,70.0,384.0,480.0,10.0,0.0
11426,73.0,1056.0,390.0,10.0,0.0
11427,66.0,480.0,1920.0,10.0,0.0
11428,46.0,384.0,480.0,2.0,0.0
11429,58.0,0.0,480.0,2.0,0.0
11430,49.0,576.0,390.0,2.0,0.0
11431,61.0,0.0,390.0,2.0,0.0
11432,42.0,192.0,2580.0,2.0,0.0
11433,54.0,0.0,2580.0,2.0,0.0
11434,58.0,0.0,480.0,10.0,0.0
11435,54.0,480.0,480.0,11.0,0.0
11436,61.0,0.0,480.0,10.0,0.0
11437,58.0,864.0,480.0,11.0,0.0
11438,64.0,192.0,960.0,10.0,0.0
11439,61.0,0.0,960.0,11.0,0.0
11440,46.0,0.0,480.0,13.0,0.0
11441,54.0,96.0,390.0,12.0,0.0
11442,34.0,0.0,480.0,14.0,0.0
11443,47.0,0.0,390.0,13.0,0.0
11444,35.0,0.0,390.0,14.0,0.0
11445,54.0,480.0,390.0,12.0,0.0
11446,63.0,0.0,390.0,10.0,0.0
11447,59.0,0.0,390.0,11.0,0.0
11448,40.0,576.0,390.0,13.0,0.0
11449,56.0,0.0,390.0,11.0,0.0
11450,28.0,0.0,390.0,14.0,0.0
11451,52.0,0.0,390.0,12.0,0.0
11452,61.0,384.0,480.0,10.0,0.0
11453,68.0,960.0,390.0,10.0,0.0
11454,58.0,384.0,960.0,10.0,0.0
11455,54.0,96.0,390.0,11.0,0.0
11456,40.0,0.0,480.0,13.0,0.0
11457,28.0,0.0,480.0,14.0,0.0
11458,49.0,0.0,480.0,12.0,0.0
11459,54.0,0.0,390.0,11.0,0.0
11460,39.0,480.0,390.0,13.0,0.0
11461,59.0,0.0,390.0,10.0,0.0
11462,27.0,0.0,390.0,14.0,0.0
11463,51.0,0.0,390.0,12.0,0.0
11464,56.0,576.0,390.0,11.0,0.0
11465,28.0,0.0,390.0,14.0,0.0
11466,52.0,0.0,390.0,12.0,0.0
11467,40.0,0.0,390.0,13.0,0.0
11468,73.0,0.0,480.0,10.0,0.0
11469,61.0,384.0,480.0,11.0,0.0
11470,68.0,0.0,390.0,11.0,0.0
11471,80.0,960.0,390.0,10.0,0.0
11472,70.0,0.0,960.0,10.0,0.0
11473,58.0,0.0,960.0,11.0,0.0
11474,52.0,0.0,480.0,13.0,0.0
11475,54.0,96.0,390.0,12.0,0.0
11476,40.0,384.0,480.0,14.0,0.0
11477,59.0,384.0,480.0,11.0,0.0
11478,39.0,96.0,390.0,14.0,0.0
11479,71.0,0.0,480.0,10.0,0.0
11480,54.0,0.0,390.0,12.0,0.0
11481,51.0,0.0,390.0,13.0,0.0
11482,34.0,0.0,960.0,14.0,0.0
11483,54.0,96.0,390.0,12.0,0.0
11484,46.0,0.0,960.0,13.0,0.0
11485,61.0,480.0,480.0,11.0,0.0
11486,73.0,0.0,480.0,10.0,0.0
11487,76.0,0.0,480.0,10.0,0.0
11488,66.0,144.0,1200.0,12.0,0.0
11489,73.0,384.0,480.0,11.0,0.0
11490,75.0,0.0,390.0,10.0,0.0
11491,71.0,240.0,480.0,11.0,0.0
11492,47.0,0.0,390.0,13.0,0.0
11493,35.0,96.0,390.0,14.0,0.0
11494,30.0,96.0,390.0,14.0,0.0
11495,42.0,0.0,390.0,13.0,0.0
11496,70.0,0.0,390.0,11.0,0.0
11497,73.0,0.0,390.0,10.0,0.0
11498,68.0,240.0,240.0,12.0,0.0
11499,66.0,240.0,240.0,12.0,0.0
11500,63.0,240.0,240.0,12.0,0.0
11501,64.0,240.0,240.0,12.0,0.0
11502,61.0,384.0,240.0,12.0,0.0
11503,59.0,576.0,390.0,12.0,0.0
11504,47.0,480.0,480.0,13.0,0.0
11505,35.0,0.0,480.0,14.0,0.0
11506,39.0,0.0,480.0,14.0,0.0
11507,51.0,960.0,480.0,13.0,0.0
11508,54.0,0.0,1920.0,13.0,0.0
11509,42.0,480.0,1920.0,14.0,0.0
11510,71.0,384.0,480.0,1.0,0.0
11511,59.0,0.0,480.0,1.0,0.0
11512,75.0,0.0,390.0,1.0,0.0
11513,63.0,576.0,390.0,1.0,0.0
11514,66.0,576.0,3270.0,1.0,0.0
11515,78.0,0.0,3270.0,1.0,0.0
11516,66.0,0.0,480.0,11.0,0.0
11517,63.0,480.0,480.0,13.0,0.0
11518,71.0,0.0,480.0,10.0,0.0
11519,66.0,0.0,480.0,12.0,0.0
11520,51.0,0.0,480.0,14.0,0.0
11521,49.0,480.0,480.0,14.0,0.0
11522,70.0,0.0,480.0,11.0,0.0
11523,73.0,0.0,480.0,10.0,0.0
11524,61.0,0.0,480.0,13.0,0.0
11525,64.0,0.0,480.0,12.0,0.0
11526,71.0,480.0,480.0,11.0,0.0
11527,75.0,240.0,960.0,10.0,0.0
11528,63.0,0.0,960.0,12.0,0.0
11529,59.0,0.0,960.0,13.0,0.0
11530,47.0,0.0,960.0,14.0,0.0
11531,72.0,0.0,480.0,11.0,0.0
11532,46.0,48.0,390.0,14.0,0.0
11533,73.0,0.0,390.0,11.0,0.0
11534,61.0,0.0,390.0,12.0,0.0
11535,58.0,0.0,390.0,13.0,0.0
11536,78.0,144.0,240.0,10.0,0.0
11537,76.0,432.0,180.0,10.0,0.0
11538,76.0,0.0,390.0,10.0,0.0
11539,73.0,0.0,390.0,11.0,0.0
11540,58.0,480.0,480.0,13.0,0.0
11541,46.0,0.0,480.0,14.0,0.0
11542,61.0,0.0,480.0,13.0,0.0
11543,49.0,960.0,480.0,14.0,0.0
11544,54.0,480.0,1920.0,13.0,0.0
11545,42.0,0.0,1920.0,14.0,0.0
11546,82.0,384.0,480.0,0.0,0.0
11547,70.0,0.0,480.0,1.0,0.0
11548,73.0,0.0,390.0,1.0,0.0
11549,85.0,576.0,390.0,0.0,0.0
11550,66.0,192.0,2580.0,1.0,0.0
11551,78.0,0.0,2580.0,0.0,0.0
11552,54.0,0.0,480.0,11.0,0.0
11553,66.0,0.0,480.0,10.0,0.0
11554,67.0,0.0,480.0,10.0,0.0
11555,52.0,0.0,480.0,12.0,0.0
11556,46.0,0.0,480.0,13.0,0.0
11557,55.0,0.0,480.0,11.0,0.0
11558,34.0,384.0,480.0,14.0,0.0
11559,68.0,0.0,480.0,10.0,0.0
11560,37.0,96.0,390.0,14.0,0.0
11561,49.0,0.0,390.0,13.0,0.0
11562,56.0,480.0,480.0,11.0,0.0
11563,64.0,0.0,390.0,12.0,0.0
11564,61.0,192.0,960.0,12.0,0.0
11565,40.0,0.0,960.0,14.0,0.0
11566,69.0,0.0,480.0,10.0,0.0
11567,52.0,0.0,960.0,13.0,0.0
11568,57.0,480.0,480.0,11.0,0.0
11569,70.0,0.0,480.0,10.0,0.0
11570,58.0,0.0,480.0,11.0,0.0
11571,59.0,0.0,390.0,11.0,0.0
11572,51.0,0.0,390.0,13.0,0.0
11573,63.0,0.0,390.0,12.0,0.0
11574,39.0,0.0,390.0,14.0,0.0
11575,71.0,1056.0,390.0,10.0,0.0
11576,64.0,240.0,1680.0,11.0,0.0
11577,76.0,0.0,1680.0,10.0,0.0
11578,49.0,0.0,480.0,13.0,0.0
11579,37.0,0.0,480.0,14.0,0.0
11580,56.0,384.0,480.0,12.0,0.0
11581,56.0,0.0,390.0,13.0,0.0
11582,44.0,336.0,390.0,14.0,0.0
11583,61.0,0.0,390.0,12.0,0.0
11584,54.0,48.0,1140.0,12.0,0.0
11585,34.0,192.0,960.0,14.0,0.0
11586,46.0,0.0,960.0,13.0,0.0
11587,75.0,0.0,240.0,10.0,0.0
11588,63.0,240.0,240.0,11.0,0.0
11589,64.0,240.0,240.0,11.0,0.0
11590,76.0,0.0,240.0,10.0,0.0
11591,66.0,0.0,240.0,11.0,0.0
11592,78.0,0.0,240.0,10.0,0.0
11593,47.0,48.0,390.0,13.0,0.0
11594,63.0,144.0,240.0,11.0,0.0
11595,35.0,0.0,390.0,14.0,0.0
11596,75.0,0.0,240.0,10.0,0.0
11597,59.0,1008.0,180.0,11.0,0.0
11598,71.0,0.0,180.0,10.0,0.0
11599,76.0,240.0,1680.0,10.0,0.0
11600,64.0,0.0,1680.0,11.0,0.0
11601,37.0,0.0,480.0,14.0,0.0
11602,49.0,0.0,480.0,13.0,0.0
11603,68.0,384.0,480.0,12.0,0.0
11604,64.0,336.0,390.0,12.0,0.0
11605,44.0,0.0,390.0,14.0,0.0
11606,56.0,0.0,390.0,13.0,0.0
11607,46.0,0.0,960.0,13.0,0.0
11608,34.0,0.0,960.0,14.0,0.0
11609,67.0,0.0,480.0,12.0,0.0
11610,63.0,240.0,240.0,11.0,0.0
11611,75.0,0.0,240.0,10.0,0.0
11612,66.0,96.0,390.0,12.0,0.0
11613,76.0,0.0,240.0,10.0,0.0
11614,64.0,144.0,240.0,11.0,0.0
11615,66.0,0.0,240.0,11.0,0.0
11616,78.0,240.0,240.0,10.0,0.0
11617,66.0,0.0,390.0,12.0,0.0
11618,75.0,0.0,240.0,10.0,0.0
11619,63.0,144.0,240.0,11.0,0.0
11620,47.0,0.0,390.0,13.0,0.0
11621,35.0,48.0,390.0,14.0,0.0
11622,59.0,240.0,180.0,11.0,0.0
11623,71.0,0.0,180.0,10.0,0.0
11624,52.0,0.0,390.0,13.0,0.0
11625,40.0,288.0,390.0,14.0,0.0
11626,67.0,0.0,180.0,11.0,0.0
11627,61.0,0.0,390.0,12.0,0.0
11628,70.0,192.0,180.0,10.0,0.0
11629,71.0,0.0,180.0,10.0,0.0
11630,68.0,480.0,180.0,11.0,0.0
11631,58.0,0.0,180.0,11.0,0.0
11632,61.0,480.0,180.0,10.0,0.0
11633,54.0,0.0,390.0,13.0,0.0
11634,60.0,0.0,180.0,11.0,0.0
11635,52.0,288.0,390.0,12.0,0.0
11636,63.0,192.0,180.0,10.0,0.0
11637,42.0,0.0,390.0,14.0,0.0
11638,64.0,480.0,180.0,10.0,0.0
11639,61.0,0.0,180.0,11.0,0.0
11640,58.0,0.0,180.0,10.0,0.0
11641,52.0,480.0,180.0,11.0,0.0
11642,51.0,0.0,1140.0,10.0,0.0
11643,47.0,192.0,180.0,2.0,0.0
11644,59.0,0.0,1140.0,4.0,0.0
11645,71.0,0.0,1140.0,4.0,0.0
11646,59.0,0.0,180.0,12.0,0.0
11647,71.0,0.0,1140.0,0.0,0.0
11648,47.0,0.0,180.0,13.0,0.0
11649,59.0,0.0,1140.0,10.0,0.0
11650,59.0,0.0,1140.0,11.0,0.0
11651,71.0,0.0,1140.0,1.0,0.0
11652,35.0,0.0,180.0,14.0,0.0
11653,47.0,48.0,390.0,5.0,0.0
11654,59.0,0.0,1140.0,3.0,0.0
11655,47.0,0.0,1140.0,3.0,0.0
11656,51.0,0.0,1140.0,11.0,0.0
11657,47.0,0.0,180.0,2.0,0.0
11658,35.0,240.0,180.0,14.0,0.0
11659,47.0,0.0,180.0,13.0,0.0
11660,59.0,0.0,180.0,12.0,0.0
11661,47.0,0.0,180.0,13.0,0.0
11662,59.0,0.0,180.0,12.0,0.0
11663,47.0,0.0,180.0,2.0,0.0
11664,35.0,240.0,180.0,14.0,0.0
11665,59.0,240.0,180.0,12.0,0.0
11666,35.0,0.0,180.0,14.0,0.0
11667,47.0,0.0,180.0,2.0,0.0
11668,47.0,0.0,180.0,13.0,0.0
11669,35.0,240.0,180.0,14.0,0.0
11670,59.0,0.0,180.0,12.0,0.0
11671,47.0,0.0,180.0,2.0,0.0
11672,47.0,0.0,180.0,13.0,0.0
11673,47.0,0.0,180.0,13.0,0.0
11674,59.0,0.0,180.0,12.0,0.0
11675,47.0,0.0,180.0,2.0,0.0
11676,35.0,240.0,180.0,14.0,0.0
11677,51.0,0.0,180.0,13.0,0.0
11678,47.0,48.0,390.0,5.0,0.0
11679,63.0,0.0,780.0,3.0,0.0
11680,51.0,0.0,780.0,3.0,0.0
11681,63.0,144.0,780.0,11.0,0.0
11682,75.0,0.0,780.0,0.0,0.0
11683,63.0,0.0,180.0,12.0,0.0
11684,75.0,0.0,780.0,4.0,0.0
11685,63.0,0.0,780.0,10.0,0.0
11686,75.0,0.0,780.0,1.0,0.0
11687,63.0,0.0,780.0,4.0,0.0
11688,51.0,0.0,180.0,2.0,0.0
11689,39.0,192.0,180.0,14.0,0.0
11690,51.0,240.0,180.0,13.0,0.0
11691,51.0,0.0,180.0,2.0,0.0
11692,39.0,0.0,180.0,14.0,0.0
11693,63.0,0.0,180.0,12.0,0.0
11694,51.0,0.0,180.0,2.0,0.0
11695,39.0,96.0,180.0,14.0,0.0
11696,63.0,0.0,180.0,12.0,0.0
11697,51.0,0.0,180.0,13.0,0.0
11698,63.0,0.0,180.0,12.0,0.0
11699,51.0,0.0,180.0,13.0,0.0
11700,39.0,0.0,180.0,14.0,0.0
11701,51.0,240.0,180.0,2.0,0.0
11702,59.0,0.0,180.0,12.0,0.0
11703,47.0,0.0,180.0,2.0,0.0
11704,59.0,0.0,390.0,11.0,0.0
11705,71.0,0.0,390.0,4.0,0.0
11706,59.0,0.0,390.0,4.0,0.0
11707,71.0,0.0,390.0,1.0,0.0
11708,71.0,0.0,390.0,0.0,0.0
11709,47.0,48.0,390.0,3.0,0.0
11710,35.0,0.0,180.0,14.0,0.0
11711,47.0,192.0,180.0,13.0,0.0
11712,59.0,0.0,390.0,3.0,0.0
11713,59.0,0.0,390.0,10.0,0.0
11714,59.0,0.0,180.0,12.0,0.0
11715,35.0,0.0,180.0,14.0,0.0
11716,47.0,0.0,180.0,2.0,0.0
11717,47.0,240.0,180.0,13.0,0.0
11718,42.0,0.0,180.0,13.0,0.0
11719,54.0,192.0,180.0,12.0,0.0
11720,42.0,48.0,390.0,5.0,0.0
11721,66.0,96.0,780.0,1.0,0.0
11722,42.0,0.0,1140.0,3.0,0.0
11723,54.0,0.0,780.0,11.0,0.0
11724,42.0,0.0,180.0,2.0,0.0
11725,54.0,0.0,1140.0,4.0,0.0
11726,66.0,0.0,1140.0,4.0,0.0
11727,54.0,0.0,1140.0,3.0,0.0
11728,66.0,0.0,780.0,0.0,0.0
11729,30.0,0.0,180.0,14.0,0.0
11730,54.0,0.0,780.0,10.0,0.0
11731,30.0,0.0,180.0,14.0,0.0
11732,54.0,0.0,180.0,12.0,0.0
11733,42.0,240.0,180.0,13.0,0.0
11734,42.0,0.0,180.0,2.0,0.0
11735,42.0,0.0,180.0,2.0,0.0
11736,54.0,0.0,180.0,12.0,0.0
11737,42.0,96.0,180.0,13.0,0.0
11738,42.0,48.0,390.0,5.0,0.0
11739,30.0,0.0,180.0,14.0,0.0
11740,42.0,0.0,180.0,2.0,0.0
11741,54.0,0.0,180.0,12.0,0.0
11742,42.0,0.0,180.0,13.0,0.0
11743,30.0,108.0,180.0,14.0,0.0
11744,40.0,48.0,180.0,13.0,0.0
11745,40.0,0.0,180.0,2.0,0.0
11746,66.0,0.0,60.0,1.0,0.0
11747,42.0,48.0,390.0,5.0,0.0
11748,28.0,0.0,180.0,14.0,0.0
11749,54.0,0.0,60.0,10.0,0.0
11750,54.0,0.0,60.0,11.0,0.0
11751,52.0,0.0,180.0,12.0,0.0
11752,66.0,60.0,60.0,0.0,0.0
11753,64.0,0.0,60.0,1.0,0.0
11754,52.0,60.0,60.0,11.0,0.0
11755,52.0,0.0,60.0,10.0,0.0
11756,64.0,0.0,60.0,0.0,0.0
11757,66.0,0.0,60.0,1.0,0.0
11758,54.0,0.0,60.0,11.0,0.0
11759,66.0,12.0,60.0,0.0,0.0
11760,54.0,0.0,60.0,10.0,0.0
11761,52.0,0.0,60.0,10.0,0.0
11762,52.0,0.0,60.0,11.0,0.0
11763,64.0,0.0,60.0,0.0,0.0
11764,64.0,120.0,60.0,1.0,0.0
11765,51.0,0.0,120.0,11.0,0.0
11766,63.0,24.0,120.0,1.0,0.0
11767,52.0,24.0,180.0,12.0,0.0
11768,28.0,0.0,180.0,14.0,0.0
11769,40.0,0.0,180.0,13.0,0.0
11770,51.0,0.0,120.0,10.0,0.0
11771,40.0,0.0,180.0,2.0,0.0
11772,63.0,0.0,120.0,0.0,0.0
11773,64.0,0.0,90.0,0.0,0.0
11774,52.0,120.0,90.0,11.0,0.0
11775,52.0,0.0,90.0,10.0,0.0
11776,64.0,0.0,90.0,1.0,0.0
11777,63.0,0.0,180.0,0.0,0.0
11778,47.0,48.0,390.0,5.0,0.0
11779,39.0,0.0,180.0,13.0,0.0
11780,51.0,24.0,180.0,12.0,0.0
11781,51.0,0.0,90.0,11.0,0.0
11782,51.0,96.0,90.0,10.0,0.0
11783,27.0,0.0,180.0,14.0,0.0
11784,63.0,0.0,180.0,1.0,0.0
11785,39.0,0.0,180.0,2.0,0.0
11786,51.0,0.0,90.0,11.0,0.0
11787,51.0,120.0,90.0,10.0,0.0
11788,42.0,0.0,180.0,2.0,0.0
11789,39.0,0.0,180.0,13.0,0.0
11790,54.0,0.0,180.0,1.0,0.0
11791,51.0,48.0,90.0,10.0,0.0
11792,66.0,0.0,180.0,1.0,0.0
11793,51.0,0.0,180.0,12.0,0.0
11794,51.0,0.0,90.0,11.0,0.0
11795,27.0,24.0,180.0,14.0,0.0
11796,78.0,0.0,180.0,0.0,0.0
11797,51.0,120.0,90.0,10.0,0.0
11798,51.0,0.0,90.0,11.0,0.0
11799,42.0,0.0,180.0,2.0,0.0
11800,63.0,96.0,90.0,10.0,0.0
11801,78.0,0.0,180.0,0.0,0.0
11802,63.0,48.0,390.0,3.0,0.0
11803,51.0,0.0,390.0,3.0,0.0
11804,63.0,0.0,90.0,11.0,0.0
11805,51.0,0.0,180.0,13.0,0.0
11806,63.0,0.0,390.0,4.0,0.0
11807,75.0,0.0,390.0,4.0,0.0
11808,54.0,24.0,180.0,1.0,0.0
11809,66.0,0.0,180.0,1.0,0.0
11810,63.0,0.0,180.0,12.0,0.0
11811,39.0,0.0,180.0,14.0,0.0
11812,63.0,120.0,90.0,10.0,0.0
11813,63.0,0.0,90.0,11.0,0.0
11814,63.0,0.0,180.0,12.0,0.0
11815,66.0,0.0,180.0,1.0,0.0
11816,54.0,0.0,180.0,1.0,0.0
11817,63.0,48.0,90.0,10.0,0.0
11818,78.0,0.0,180.0,0.0,0.0
11819,51.0,0.0,180.0,13.0,0.0
11820,42.0,0.0,180.0,2.0,0.0
11821,63.0,0.0,90.0,11.0,0.0
11822,39.0,24.0,180.0,14.0,0.0
11823,63.0,0.0,90.0,10.0,0.0
11824,63.0,120.0,90.0,11.0,0.0
11825,59.0,0.0,390.0,3.0,0.0
11826,35.0,0.0,180.0,14.0,0.0
11827,59.0,96.0,90.0,10.0,0.0
11828,47.0,0.0,390.0,3.0,0.0
11829,66.0,0.0,180.0,1.0,0.0
11830,59.0,48.0,390.0,4.0,0.0
11831,59.0,24.0,180.0,12.0,0.0
11832,54.0,0.0,180.0,1.0,0.0
11833,47.0,0.0,180.0,13.0,0.0
11834,71.0,0.0,390.0,4.0,0.0
11835,78.0,0.0,180.0,0.0,0.0
11836,59.0,0.0,90.0,11.0,0.0
11837,42.0,0.0,180.0,2.0,0.0
11838,59.0,0.0,90.0,11.0,0.0
11839,59.0,120.0,90.0,10.0,0.0
11840,59.0,48.0,90.0,10.0,0.0
11841,59.0,0.0,180.0,12.0,0.0
11842,47.0,24.0,180.0,13.0,0.0
11843,59.0,0.0,90.0,11.0,0.0
11844,42.0,0.0,180.0,2.0,0.0
11845,66.0,0.0,180.0,1.0,0.0
11846,78.0,0.0,180.0,0.0,0.0
11847,35.0,0.0,180.0,14.0,0.0
11848,54.0,0.0,180.0,1.0,0.0
11849,59.0,0.0,90.0,11.0,0.0
11850,59.0,120.0,90.0,10.0,0.0
11851,66.0,0.0,180.0,1.0,0.0
11852,54.0,96.0,90.0,10.0,0.0
11853,54.0,0.0,180.0,1.0,0.0
11854,42.0,0.0,180.0,13.0,0.0
11855,54.0,0.0,1140.0,3.0,0.0
11856,30.0,0.0,180.0,14.0,0.0
11857,54.0,0.0,90.0,11.0,0.0
11858,42.0,0.0,180.0,2.0,0.0
11859,42.0,0.0,1140.0,3.0,0.0
11860,54.0,0.0,1140.0,4.0,0.0
11861,66.0,0.0,1140.0,4.0,0.0
11862,54.0,0.0,180.0,12.0,0.0
11863,42.0,48.0,390.0,5.0,0.0
11864,78.0,24.0,180.0,0.0,0.0
11865,54.0,120.0,90.0,10.0,0.0
11866,54.0,0.0,90.0,11.0,0.0
11867,42.0,0.0,180.0,2.0,0.0
11868,54.0,48.0,90.0,10.0,0.0
11869,78.0,0.0,180.0,0.0,0.0
11870,42.0,0.0,180.0,13.0,0.0
11871,30.0,0.0,180.0,14.0,0.0
11872,54.0,0.0,180.0,12.0,0.0
11873,54.0,0.0,90.0,11.0,0.0
11874,54.0,24.0,180.0,1.0,0.0
11875,66.0,0.0,180.0,1.0,0.0
11876,54.0,120.0,90.0,11.0,0.0
11877,54.0,0.0,90.0,10.0,0.0
11878,29.0,0.0,180.0,14.0,0.0
11879,42.0,0.0,180.0,2.0,0.0
11880,53.0,0.0,180.0,12.0,0.0
11881,66.0,0.0,180.0,1.0,0.0
11882,54.0,24.0,180.0,1.0,0.0
11883,41.0,0.0,180.0,13.0,0.0
11884,78.0,0.0,180.0,0.0,0.0
11885,53.0,0.0,90.0,11.0,0.0
11886,53.0,96.0,90.0,10.0,0.0
11887,42.0,48.0,390.0,5.0,0.0
11888,53.0,120.0,90.0,10.0,0.0
11889,53.0,0.0,90.0,11.0,0.0
11890,41.0,0.0,180.0,13.0,0.0
11891,54.0,0.0,180.0,1.0,0.0
11892,78.0,0.0,180.0,0.0,0.0
11893,66.0,0.0,180.0,1.0,0.0
11894,53.0,48.0,90.0,11.0,0.0
11895,53.0,0.0,90.0,10.0,0.0
11896,29.0,0.0,180.0,14.0,0.0
11897,42.0,24.0,180.0,2.0,0.0
11898,53.0,0.0,180.0,12.0,0.0
11899,53.0,120.0,90.0,10.0,0.0
11900,53.0,0.0,90.0,11.0,0.0
11901,52.0,0.0,90.0,10.0,0.0
11902,66.0,0.0,180.0,1.0,0.0
11903,54.0,0.0,180.0,1.0,0.0
11904,42.0,48.0,390.0,5.0,0.0
11905,40.0,24.0,180.0,13.0,0.0
11906,78.0,0.0,180.0,0.0,0.0
11907,52.0,96.0,90.0,11.0,0.0
11908,42.0,0.0,180.0,2.0,0.0
11909,28.0,0.0,180.0,14.0,0.0
11910,52.0,0.0,180.0,12.0,0.0
11911,52.0,0.0,90.0,11.0,0.0
11912,52.0,120.0,90.0,10.0,0.0
11913,52.0,48.0,90.0,10.0,0.0
11914,40.0,0.0,180.0,13.0,0.0
11915,28.0,0.0,180.0,14.0,0.0
11916,42.0,0.0,180.0,2.0,0.0
11917,52.0,0.0,180.0,12.0,0.0
11918,66.0,0.0,180.0,1.0,0.0
11919,78.0,24.0,180.0,0.0,0.0
11920,52.0,0.0,90.0,11.0,0.0
11921,54.0,0.0,180.0,1.0,0.0
11922,52.0,120.0,90.0,11.0,0.0
11923,52.0,0.0,90.0,10.0,0.0
11924,42.0,0.0,180.0,2.0,0.0
11925,51.0,96.0,90.0,11.0,0.0
11926,39.0,0.0,180.0,13.0,0.0
11927,27.0,0.0,180.0,14.0,0.0
11928,78.0,0.0,180.0,0.0,0.0
11929,42.0,0.0,390.0,3.0,0.0
11930,51.0,0.0,180.0,12.0,0.0
11931,66.0,0.0,180.0,1.0,0.0
11932,54.0,24.0,180.0,1.0,0.0
11933,47.0,0.0,390.0,5.0,0.0
11934,54.0,0.0,390.0,3.0,0.0
11935,66.0,0.0,390.0,4.0,0.0
11936,51.0,0.0,90.0,10.0,0.0
11937,54.0,48.0,390.0,4.0,0.0
11938,51.0,0.0,90.0,11.0,0.0
11939,51.0,120.0,90.0,10.0,0.0
11940,51.0,0.0,180.0,12.0,0.0
11941,78.0,0.0,180.0,0.0,0.0
11942,51.0,0.0,90.0,10.0,0.0
11943,42.0,0.0,180.0,2.0,0.0
11944,54.0,0.0,180.0,2.0,0.0
11945,27.0,0.0,180.0,14.0,0.0
11946,51.0,48.0,90.0,11.0,0.0
11947,78.0,0.0,180.0,1.0,0.0
11948,39.0,24.0,180.0,13.0,0.0
11949,66.0,0.0,180.0,1.0,0.0
11950,51.0,0.0,90.0,11.0,0.0
11951,51.0,120.0,90.0,10.0,0.0
11952,78.0,0.0,180.0,0.0,0.0
11953,47.0,48.0,390.0,3.0,0.0
11954,59.0,0.0,390.0,3.0,0.0
11955,71.0,0.0,390.0,4.0,0.0
11956,59.0,0.0,390.0,4.0,0.0
11957,35.0,24.0,180.0,14.0,0.0
11958,54.0,0.0,180.0,2.0,0.0
11959,59.0,0.0,180.0,12.0,0.0
11960,47.0,0.0,180.0,13.0,0.0
11961,59.0,0.0,90.0,11.0,0.0
11962,59.0,96.0,90.0,10.0,0.0
11963,66.0,0.0,180.0,1.0,0.0
11964,78.0,0.0,180.0,1.0,0.0
11965,42.0,0.0,180.0,2.0,0.0
11966,59.0,120.0,90.0,11.0,0.0
11967,59.0,0.0,90.0,10.0,0.0
11968,42.0,0.0,180.0,2.0,0.0
11969,78.0,24.0,180.0,1.0,0.0
11970,78.0,0.0,180.0,0.0,0.0
11971,66.0,0.0,180.0,1.0,0.0
11972,59.0,48.0,90.0,11.0,0.0
11973,59.0,0.0,180.0,12.0,0.0
11974,35.0,0.0,180.0,14.0,0.0
11975,47.0,0.0,180.0,13.0,0.0
11976,59.0,0.0,90.0,10.0,0.0
11977,54.0,0.0,180.0,2.0,0.0
11978,59.0,120.0,90.0,11.0,0.0
11979,59.0,0.0,90.0,10.0,0.0
11980,39.0,0.0,180.0,14.0,0.0
11981,54.0,0.0,180.0,2.0,0.0
11982,51.0,0.0,180.0,13.0,0.0
11983,75.0,0.0,390.0,4.0,0.0
11984,63.0,0.0,90.0,11.0,0.0
11985,42.0,0.0,180.0,2.0,0.0
11986,63.0,48.0,390.0,4.0,0.0
11987,51.0,0.0,390.0,3.0,0.0
11988,63.0,0.0,180.0,12.0,0.0
11989,78.0,0.0,180.0,0.0,0.0
11990,63.0,0.0,390.0,3.0,0.0
11991,63.0,96.0,90.0,10.0,0.0
11992,78.0,24.0,180.0,1.0,0.0
11993,66.0,0.0,180.0,1.0,0.0
11994,63.0,0.0,90.0,10.0,0.0
11995,63.0,120.0,90.0,11.0,0.0
11996,78.0,0.0,180.0,0.0,0.0
11997,63.0,0.0,90.0,10.0,0.0
11998,51.0,0.0,180.0,13.0,0.0
11999,63.0,0.0,180.0,12.0,0.0
12000,42.0,0.0,180.0,2.0,0.0
12001,78.0,0.0,180.0,1.0,0.0
12002,66.0,0.0,180.0,1.0,0.0
12003,54.0,24.0,180.0,2.0,0.0
12004,39.0,0.0,180.0,14.0,0.0
12005,63.0,48.0,90.0,11.0,0.0
12006,63.0,0.0,90.0,11.0,0.0
12007,63.0,120.0,90.0,10.0,0.0
12008,42.0,0.0,180.0,2.0,0.0
12009,66.0,0.0,90.0,10.0,0.0
12010,66.0,96.0,90.0,11.0,0.0
12011,78.0,0.0,180.0,1.0,0.0
12012,66.0,0.0,180.0,1.0,0.0
12013,42.0,0.0,390.0,5.0,0.0
12014,66.0,0.0,180.0,12.0,0.0
12015,54.0,0.0,180.0,2.0,0.0
12016,42.0,0.0,180.0,14.0,0.0
12017,54.0,0.0,180.0,13.0,0.0
12018,78.0,0.0,390.0,4.0,0.0
12019,66.0,0.0,390.0,4.0,0.0
12020,54.0,48.0,390.0,3.0,0.0
12021,66.0,0.0,390.0,3.0,0.0
12022,78.0,24.0,180.0,0.0,0.0
12023,66.0,120.0,90.0,10.0,0.0
12024,66.0,0.0,90.0,11.0,0.0
12025,66.0,0.0,90.0,11.0,0.0
12026,42.0,0.0,180.0,14.0,0.0
12027,66.0,0.0,180.0,1.0,0.0
12028,78.0,0.0,180.0,1.0,0.0
12029,66.0,48.0,90.0,10.0,0.0
12030,54.0,0.0,180.0,13.0,0.0
12031,78.0,0.0,180.0,0.0,0.0
12032,54.0,0.0,180.0,2.0,0.0
12033,42.0,0.0,180.0,2.0,0.0
12034,66.0,24.0,180.0,12.0,0.0
12035,66.0,0.0,90.0,10.0,0.0
12036,66.0,120.0,90.0,11.0,0.0
12037,41.0,0.0,180.0,14.0,0.0
12038,53.0,0.0,180.0,13.0,0.0
12039,78.0,0.0,390.0,4.0,0.0
12040,66.0,48.0,390.0,4.0,0.0
12041,54.0,0.0,390.0,3.0,0.0
12042,66.0,0.0,390.0,3.0,0.0
12043,66.0,0.0,180.0,1.0,0.0
12044,42.0,24.0,180.0,2.0,0.0
12045,78.0,0.0,180.0,1.0,0.0
12046,54.0,0.0,180.0,2.0,0.0
12047,78.0,0.0,180.0,0.0,0.0
12048,65.0,0.0,180.0,12.0,0.0
12049,42.0,0.0,390.0,5.0,0.0
12050,65.0,96.0,90.0,10.0,0.0
12051,65.0,0.0,90.0,11.0,0.0
12052,65.0,0.0,90.0,11.0,0.0
12053,65.0,120.0,90.0,10.0,0.0
12054,54.0,0.0,180.0,2.0,0.0
12055,65.0,48.0,90.0,11.0,0.0
12056,53.0,0.0,180.0,13.0,0.0
12057,65.0,0.0,90.0,10.0,0.0
12058,66.0,0.0,180.0,1.0,0.0
12059,41.0,24.0,180.0,14.0,0.0
12060,78.0,0.0,180.0,1.0,0.0
12061,65.0,0.0,180.0,12.0,0.0
12062,78.0,0.0,180.0,0.0,0.0
12063,42.0,0.0,180.0,2.0,0.0
12064,65.0,120.0,90.0,10.0,0.0
12065,65.0,0.0,90.0,11.0,0.0
12066,64.0,96.0,90.0,11.0,0.0
12067,54.0,0.0,180.0,2.0,0.0
12068,42.0,0.0,390.0,5.0,0.0
12069,66.0,0.0,180.0,1.0,0.0
12070,78.0,0.0,180.0,1.0,0.0
12071,64.0,0.0,90.0,10.0,0.0
12072,54.0,0.0,390.0,3.0,0.0
12073,66.0,0.0,390.0,3.0,0.0
12074,64.0,0.0,180.0,12.0,0.0
12075,66.0,48.0,390.0,4.0,0.0
12076,78.0,0.0,390.0,4.0,0.0
12077,40.0,24.0,180.0,14.0,0.0
12078,42.0,0.0,180.0,2.0,0.0
12079,52.0,0.0,180.0,13.0,0.0
12080,78.0,0.0,180.0,0.0,0.0
12081,64.0,0.0,90.0,10.0,0.0
12082,64.0,120.0,90.0,11.0,0.0
12083,78.0,24.0,180.0,1.0,0.0
12084,66.0,0.0,180.0,1.0,0.0
12085,64.0,0.0,90.0,10.0,0.0
12086,42.0,0.0,180.0,2.0,0.0
12087,40.0,0.0,180.0,14.0,0.0
12088,64.0,48.0,90.0,11.0,0.0
12089,54.0,0.0,180.0,2.0,0.0
12090,78.0,0.0,180.0,0.0,0.0
12091,52.0,0.0,180.0,13.0,0.0
12092,64.0,0.0,180.0,12.0,0.0
12093,64.0,204.0,90.0,10.0,0.0
12094,64.0,0.0,90.0,11.0,0.0
12095,47.0,36.0,390.0,5.0,0.0
12096,47.0,0.0,390.0,3.0,0.0
12097,63.0,204.0,180.0,11.0,0.0
12098,59.0,0.0,390.0,3.0,0.0
12099,66.0,0.0,390.0,1.0,0.0
12100,51.0,0.0,390.0,13.0,0.0
12101,63.0,0.0,180.0,10.0,0.0
12102,42.0,0.0,390.0,2.0,0.0
12103,63.0,0.0,390.0,12.0,0.0
12104,59.0,0.0,390.0,4.0,0.0
12105,71.0,0.0,390.0,4.0,0.0
12106,78.0,0.0,390.0,0.0,0.0
12107,39.0,0.0,390.0,14.0,0.0
12108,54.0,0.0,390.0,2.0,0.0
12109,78.0,0.0,390.0,1.0,0.0
12110,83.0,0.0,180.0,11.0,0.0
12111,83.0,240.0,180.0,10.0,0.0
12112,83.0,0.0,180.0,10.0,0.0
12113,83.0,240.0,180.0,11.0,0.0
12114,83.0,240.0,180.0,11.0,0.0
12115,83.0,0.0,180.0,10.0,0.0
12116,83.0,0.0,180.0,10.0,0.0
12117,83.0,240.0,180.0,11.0,0.0
12118,83.0,444.0,180.0,10.0,0.0
12119,83.0,0.0,180.0,11.0,0.0
12120,47.0,48.0,390.0,5.0,0.0
12121,71.0,0.0,390.0,4.0,0.0
12122,59.0,0.0,390.0,4.0,0.0
12123,83.0,24.0,1380.0,11.0,0.0
12124,83.0,0.0,1380.0,10.0,0.0
12125,83.0,0.0,180.0,0.0,0.0
12126,54.0,0.0,180.0,12.0,0.0
12127,51.0,0.0,180.0,2.0,0.0
12128,39.0,0.0,180.0,14.0,0.0
12129,54.0,0.0,180.0,2.0,0.0
12130,47.0,240.0,180.0,3.0,0.0
12131,78.0,0.0,180.0,1.0,0.0
12132,75.0,0.0,180.0,1.0,0.0
12133,59.0,0.0,180.0,3.0,0.0
12134,51.0,0.0,180.0,13.0,0.0
12135,39.0,240.0,180.0,14.0,0.0
12136,51.0,0.0,180.0,13.0,0.0
12137,78.0,0.0,180.0,1.0,0.0
12138,54.0,0.0,180.0,12.0,0.0
12139,47.0,0.0,180.0,3.0,0.0
12140,59.0,0.0,180.0,3.0,0.0
12141,54.0,0.0,180.0,2.0,0.0
12142,75.0,0.0,180.0,1.0,0.0
12143,51.0,0.0,180.0,2.0,0.0
12144,83.0,0.0,180.0,0.0,0.0
12145,39.0,240.0,180.0,14.0,0.0
12146,54.0,0.0,180.0,2.0,0.0
12147,51.0,0.0,180.0,2.0,0.0
12148,51.0,0.0,180.0,13.0,0.0
12149,59.0,0.0,180.0,3.0,0.0
12150,83.0,0.0,180.0,0.0,0.0
12151,75.0,0.0,180.0,1.0,0.0
12152,78.0,0.0,180.0,1.0,0.0
12153,47.0,0.0,180.0,3.0,0.0
12154,54.0,0.0,180.0,12.0,0.0
12155,39.0,216.0,180.0,14.0,0.0
12156,47.0,0.0,180.0,3.0,0.0
12157,51.0,0.0,180.0,13.0,0.0
12158,54.0,0.0,180.0,12.0,0.0
12159,59.0,0.0,180.0,3.0,0.0
12160,78.0,0.0,180.0,1.0,0.0
12161,75.0,0.0,180.0,1.0,0.0
12162,54.0,0.0,180.0,2.0,0.0
12163,51.0,0.0,180.0,2.0,0.0
12164,83.0,0.0,180.0,0.0,0.0
12165,47.0,0.0,180.0,3.0,0.0
12166,83.0,0.0,180.0,0.0,0.0
12167,59.0,0.0,180.0,3.0,0.0
12168,54.0,0.0,180.0,12.0,0.0
12169,75.0,0.0,180.0,1.0,0.0
12170,78.0,0.0,180.0,1.0,0.0
12171,54.0,0.0,180.0,2.0,0.0
12172,51.0,0.0,180.0,2.0,0.0
12173,39.0,0.0,180.0,14.0,0.0
12174,51.0,240.0,180.0,13.0,0.0
12175,76.0,0.0,180.0,1.0,0.0
12176,56.0,0.0,180.0,2.0,0.0
12177,52.0,0.0,180.0,2.0,0.0
12178,56.0,0.0,180.0,12.0,0.0
12179,40.0,0.0,180.0,14.0,0.0
12180,52.0,0.0,390.0,10.0,0.0
12181,52.0,48.0,390.0,11.0,0.0
12182,52.0,0.0,180.0,13.0,0.0
12183,83.0,192.0,180.0,0.0,0.0
12184,59.0,0.0,180.0,3.0,0.0
12185,47.0,0.0,180.0,3.0,0.0
12186,47.0,0.0,390.0,5.0,0.0
12187,59.0,0.0,390.0,4.0,0.0
12188,71.0,0.0,390.0,4.0,0.0
12189,73.0,0.0,180.0,1.0,0.0
12190,40.0,0.0,180.0,14.0,0.0
12191,59.0,0.0,180.0,3.0,0.0
12192,47.0,0.0,180.0,3.0,0.0
12193,56.0,0.0,180.0,2.0,0.0
12194,52.0,0.0,180.0,2.0,0.0
12195,56.0,0.0,180.0,12.0,0.0
12196,52.0,0.0,180.0,13.0,0.0
12197,76.0,240.0,180.0,1.0,0.0
12198,73.0,0.0,180.0,1.0,0.0
12199,83.0,0.0,180.0,0.0,0.0
12200,80.0,48.0,390.0,11.0,0.0
12201,80.0,0.0,390.0,10.0,0.0
12202,83.0,0.0,180.0,0.0,0.0
12203,40.0,0.0,180.0,14.0,0.0
12204,76.0,0.0,180.0,1.0,0.0
12205,73.0,0.0,180.0,1.0,0.0
12206,56.0,0.0,180.0,12.0,0.0
12207,59.0,0.0,180.0,3.0,0.0
12208,52.0,0.0,180.0,13.0,0.0
12209,56.0,192.0,180.0,2.0,0.0
12210,52.0,0.0,180.0,2.0,0.0
12211,47.0,0.0,180.0,3.0,0.0
12212,73.0,0.0,180.0,1.0,0.0
12213,47.0,0.0,180.0,3.0,0.0
12214,56.0,0.0,180.0,2.0,0.0
12215,59.0,240.0,180.0,3.0,0.0
12216,52.0,0.0,180.0,2.0,0.0
12217,40.0,0.0,180.0,14.0,0.0
12218,83.0,0.0,180.0,0.0,0.0
12219,52.0,0.0,180.0,13.0,0.0
12220,56.0,0.0,180.0,12.0,0.0
12221,76.0,0.0,180.0,1.0,0.0
12222,52.0,0.0,180.0,13.0,0.0
12223,83.0,0.0,180.0,0.0,0.0
12224,47.0,0.0,180.0,3.0,0.0
12225,56.0,0.0,180.0,2.0,0.0
12226,76.0,0.0,180.0,1.0,0.0
12227,52.0,0.0,180.0,2.0,0.0
12228,40.0,0.0,180.0,14.0,0.0
12229,56.0,240.0,180.0,12.0,0.0
12230,59.0,0.0,180.0,3.0,0.0
12231,73.0,0.0,180.0,1.0,0.0
12232,59.0,240.0,180.0,3.0,0.0
12233,47.0,0.0,180.0,3.0,0.0
12234,76.0,0.0,180.0,1.0,0.0
12235,73.0,0.0,180.0,1.0,0.0
12236,56.0,0.0,180.0,12.0,0.0
12237,52.0,0.0,180.0,13.0,0.0
12238,52.0,0.0,180.0,2.0,0.0
12239,83.0,0.0,180.0,0.0,0.0
12240,56.0,0.0,180.0,2.0,0.0
12241,40.0,0.0,180.0,14.0,0.0
12242,42.0,0.0,390.0,5.0,0.0
12243,54.0,0.0,390.0,10.0,0.0
12244,54.0,0.0,390.0,11.0,0.0
12245,58.0,0.0,180.0,12.0,0.0
12246,54.0,0.0,180.0,13.0,0.0
12247,76.0,0.0,180.0,1.0,0.0
12248,73.0,0.0,180.0,1.0,0.0
12249,42.0,192.0,180.0,3.0,0.0
12250,54.0,0.0,180.0,3.0,0.0
12251,82.0,0.0,180.0,0.0,0.0
12252,42.0,0.0,180.0,14.0,0.0
12253,54.0,48.0,390.0,4.0,0.0
12254,66.0,0.0,390.0,4.0,0.0
12255,58.0,0.0,180.0,2.0,0.0
12256,54.0,0.0,180.0,2.0,0.0
12257,42.0,0.0,180.0,14.0,0.0
12258,73.0,0.0,180.0,1.0,0.0
12259,76.0,240.0,180.0,1.0,0.0
12260,54.0,0.0,180.0,13.0,0.0
12261,58.0,0.0,180.0,12.0,0.0
12262,58.0,0.0,180.0,2.0,0.0
12263,54.0,0.0,180.0,3.0,0.0
12264,54.0,0.0,180.0,2.0,0.0
12265,82.0,0.0,180.0,0.0,0.0
12266,42.0,0.0,180.0,3.0,0.0
12267,82.0,240.0,180.0,0.0,0.0
12268,73.0,0.0,180.0,1.0,0.0
12269,54.0,0.0,180.0,3.0,0.0
12270,54.0,0.0,180.0,13.0,0.0
12271,42.0,0.0,180.0,14.0,0.0
12272,58.0,0.0,180.0,12.0,0.0
12273,54.0,0.0,180.0,2.0,0.0
12274,58.0,0.0,180.0,2.0,0.0
12275,76.0,96.0,570.0,11.0,0.0
12276,76.0,0.0,570.0,10.0,0.0
12277,42.0,0.0,180.0,3.0,0.0
12278,76.0,0.0,180.0,1.0,0.0
12279,82.0,0.0,180.0,0.0,0.0
12280,54.0,0.0,180.0,2.0,0.0
12281,76.0,0.0,180.0,1.0,0.0
12282,58.0,144.0,180.0,12.0,0.0
12283,54.0,0.0,180.0,3.0,0.0
12284,42.0,0.0,180.0,3.0,0.0
12285,58.0,0.0,180.0,2.0,0.0
12286,54.0,0.0,180.0,13.0,0.0
12287,73.0,0.0,180.0,1.0,0.0
12288,42.0,0.0,180.0,14.0,0.0
12289,82.0,0.0,180.0,0.0,0.0
12290,58.0,0.0,180.0,12.0,0.0
12291,42.0,0.0,180.0,3.0,0.0
12292,54.0,0.0,180.0,3.0,0.0
12293,76.0,0.0,180.0,1.0,0.0
12294,58.0,0.0,180.0,2.0,0.0
12295,42.0,240.0,180.0,14.0,0.0
12296,54.0,0.0,180.0,2.0,0.0
12297,73.0,0.0,180.0,1.0,0.0
12298,54.0,0.0,180.0,13.0,0.0
12299,76.0,0.0,180.0,10.0,0.0
12300,76.0,0.0,180.0,11.0,0.0
12301,42.0,0.0,180.0,14.0,0.0
12302,54.0,0.0,180.0,13.0,0.0
12303,54.0,0.0,180.0,3.0,0.0
12304,82.0,0.0,180.0,0.0,0.0
12305,42.0,168.0,180.0,3.0,0.0
12306,54.0,0.0,180.0,2.0,0.0
12307,73.0,0.0,180.0,1.0,0.0
12308,58.0,0.0,180.0,12.0,0.0
12309,58.0,0.0,180.0,2.0,0.0
12310,76.0,0.0,180.0,1.0,0.0
12311,57.0,0.0,180.0,2.0,0.0
12312,71.0,0.0,180.0,1.0,0.0
12313,47.0,0.0,180.0,3.0,0.0
12314,54.0,0.0,180.0,3.0,0.0
12315,74.0,0.0,120.0,11.0,0.0
12316,33.0,0.0,180.0,14.0,0.0
12317,54.0,0.0,180.0,2.0,0.0
12318,47.0,24.0,390.0,5.0,0.0
12319,83.0,0.0,180.0,0.0,0.0
12320,74.0,72.0,120.0,10.0,0.0
12321,75.0,0.0,180.0,1.0,0.0
12322,59.0,0.0,180.0,12.0,0.0
12323,45.0,192.0,180.0,13.0,0.0
12324,75.0,0.0,300.0,11.0,0.0
12325,75.0,24.0,300.0,10.0,0.0
12326,47.0,0.0,180.0,3.0,0.0
12327,87.0,0.0,180.0,0.0,0.0
12328,57.0,0.0,180.0,13.0,0.0
12329,45.0,0.0,180.0,14.0,0.0
12330,71.0,0.0,180.0,4.0,0.0
12331,78.0,0.0,180.0,1.0,0.0
12332,71.0,0.0,180.0,1.0,0.0
12333,66.0,0.0,180.0,12.0,0.0
12334,59.0,0.0,180.0,3.0,0.0
12335,59.0,0.0,180.0,4.0,0.0
12336,54.0,0.0,180.0,2.0,0.0
12337,57.0,240.0,180.0,2.0,0.0
12338,59.0,0.0,180.0,3.0,0.0
12339,47.0,96.0,180.0,3.0,0.0
12340,66.0,0.0,180.0,12.0,0.0
12341,71.0,0.0,180.0,1.0,0.0
12342,57.0,0.0,180.0,2.0,0.0
12343,78.0,0.0,180.0,1.0,0.0
12344,75.0,0.0,390.0,11.0,0.0
12345,57.0,0.0,180.0,13.0,0.0
12346,45.0,0.0,180.0,14.0,0.0
12347,71.0,0.0,180.0,4.0,0.0
12348,75.0,48.0,390.0,10.0,0.0
12349,59.0,0.0,180.0,4.0,0.0
12350,87.0,0.0,180.0,0.0,0.0
12351,54.0,0.0,180.0,2.0,0.0
12352,47.0,96.0,300.0,5.0,0.0
12353,57.0,0.0,180.0,13.0,0.0
12354,45.0,0.0,180.0,14.0,0.0
12355,66.0,0.0,180.0,12.0,0.0
12356,47.0,24.0,180.0,3.0,0.0
12357,78.0,0.0,180.0,1.0,0.0
12358,71.0,0.0,180.0,1.0,0.0
12359,59.0,0.0,180.0,3.0,0.0
12360,59.0,0.0,180.0,4.0,0.0
12361,71.0,0.0,180.0,4.0,0.0
12362,54.0,0.0,180.0,2.0,0.0
12363,87.0,0.0,180.0,0.0,0.0
12364,57.0,0.0,180.0,2.0,0.0
12365,47.0,216.0,90.0,5.0,0.0
12366,87.0,0.0,180.0,0.0,0.0
12367,54.0,0.0,180.0,2.0,0.0
12368,57.0,0.0,180.0,13.0,0.0
12369,66.0,0.0,180.0,12.0,0.0
12370,57.0,0.0,180.0,2.0,0.0
12371,78.0,0.0,180.0,1.0,0.0
12372,71.0,0.0,180.0,1.0,0.0
12373,59.0,0.0,180.0,4.0,0.0
12374,71.0,96.0,180.0,4.0,0.0
12375,45.0,0.0,180.0,14.0,0.0
12376,47.0,144.0,300.0,5.0,0.0
12377,59.0,0.0,180.0,3.0,0.0
12378,47.0,0.0,180.0,3.0,0.0
12379,66.0,0.0,180.0,12.0,0.0
12380,45.0,0.0,180.0,14.0,0.0
12381,59.0,0.0,180.0,4.0,0.0
12382,71.0,0.0,180.0,4.0,0.0
12383,57.0,0.0,180.0,2.0,0.0
12384,71.0,0.0,180.0,1.0,0.0
12385,78.0,0.0,180.0,1.0,0.0
12386,87.0,0.0,180.0,0.0,0.0
12387,59.0,0.0,180.0,3.0,0.0
12388,54.0,0.0,180.0,2.0,0.0
12389,57.0,0.0,180.0,13.0,0.0
12390,47.0,24.0,180.0,3.0,0.0
12391,47.0,408.0,90.0,5.0,0.0
12392,56.0,504.0,1380.0,13.0,0.0
12393,71.0,0.0,1380.0,4.0,0.0
12394,56.0,0.0,1380.0,2.0,0.0
12395,44.0,0.0,1380.0,14.0,0.0
12396,59.0,0.0,1380.0,4.0,0.0
12397,80.0,0.0,1380.0,1.0,0.0
12398,71.0,0.0,1380.0,1.0,0.0
12399,52.0,0.0,1380.0,2.0,0.0
12400,88.0,0.0,1380.0,0.0,0.0
12401,64.0,0.0,1380.0,12.0,0.0
12402,47.0,0.0,1380.0,3.0,0.0
12403,59.0,0.0,1380.0,3.0,0.0
12404,47.0,12.0,390.0,5.0,0.0
12405,76.0,0.0,150.0,11.0,0.0
12406,76.0,240.0,150.0,10.0,0.0
12407,76.0,0.0,150.0,10.0,0.0
12408,76.0,240.0,150.0,11.0,0.0
12409,76.0,0.0,150.0,11.0,0.0
12410,76.0,240.0,150.0,10.0,0.0
12411,76.0,240.0,150.0,11.0,0.0
12412,76.0,0.0,150.0,10.0,0.0
12413,76.0,0.0,150.0,11.0,0.0
12414,76.0,12.0,150.0,10.0,0.0
12415,79.0,144.0,780.0,11.0,0.0
12416,79.0,0.0,780.0,10.0,0.0
12417,76.0,0.0,180.0,1.0,0.0
12418,79.0,0.0,180.0,1.0,0.0
12419,49.0,0.0,180.0,13.0,0.0
12420,58.0,0.0,180.0,2.0,0.0
12421,82.0,0.0,180.0,0.0,0.0
12422,37.0,0.0,180.0,14.0,0.0
12423,55.0,240.0,180.0,12.0,0.0
12424,52.0,0.0,180.0,2.0,0.0
12425,82.0,0.0,180.0,0.0,0.0
12426,79.0,0.0,180.0,1.0,0.0
12427,37.0,0.0,180.0,14.0,0.0
12428,76.0,0.0,180.0,1.0,0.0
12429,58.0,96.0,180.0,2.0,0.0
12430,49.0,0.0,180.0,13.0,0.0
12431,52.0,0.0,180.0,2.0,0.0
12432,55.0,0.0,180.0,12.0,0.0
12433,52.0,0.0,180.0,2.0,0.0
12434,58.0,0.0,180.0,2.0,0.0
12435,49.0,240.0,180.0,13.0,0.0
12436,55.0,0.0,180.0,12.0,0.0
12437,37.0,0.0,180.0,14.0,0.0
12438,79.0,0.0,180.0,1.0,0.0
12439,76.0,0.0,180.0,1.0,0.0
12440,82.0,0.0,180.0,0.0,0.0
12441,76.0,0.0,180.0,1.0,0.0
12442,58.0,0.0,300.0,10.0,0.0
12443,79.0,0.0,180.0,1.0,0.0
12444,37.0,120.0,180.0,14.0,0.0
12445,49.0,0.0,180.0,13.0,0.0
12446,55.0,0.0,180.0,12.0,0.0
12447,58.0,120.0,300.0,11.0,0.0
12448,82.0,0.0,180.0,0.0,0.0
12449,52.0,0.0,180.0,2.0,0.0
12450,58.0,0.0,180.0,2.0,0.0
12451,37.0,0.0,180.0,14.0,0.0
12452,52.0,0.0,180.0,2.0,0.0
12453,55.0,0.0,180.0,12.0,0.0
12454,49.0,0.0,180.0,13.0,0.0
12455,82.0,0.0,180.0,0.0,0.0
12456,58.0,204.0,180.0,2.0,0.0
12457,79.0,0.0,180.0,1.0,0.0
12458,76.0,0.0,180.0,1.0,0.0
12459,76.0,0.0,390.0,1.0,0.0
12460,80.0,0.0,390.0,1.0,0.0
12461,35.0,0.0,390.0,14.0,0.0
12462,47.0,0.0,390.0,13.0,0.0
12463,59.0,12.0,390.0,4.0,0.0
12464,71.0,0.0,390.0,4.0,0.0
12465,59.0,0.0,150.0,10.0,0.0
12466,83.0,0.0,390.0,0.0,0.0
12467,47.0,0.0,390.0,3.0,0.0
12468,59.0,0.0,390.0,3.0,0.0
12469,59.0,228.0,150.0,11.0,0.0
12470,52.0,0.0,390.0,2.0,0.0
12471,59.0,0.0,390.0,2.0,0.0
12472,47.0,0.0,390.0,5.0,0.0
12473,56.0,0.0,390.0,12.0,0.0
12474,64.0,0.0,150.0,10.0,0.0
12475,64.0,240.0,150.0,11.0,0.0
12476,68.0,0.0,150.0,11.0,0.0
12477,68.0,240.0,150.0,10.0,0.0
12478,71.0,240.0,150.0,10.0,0.0
12479,71.0,0.0,150.0,11.0,0.0
12480,76.0,0.0,150.0,11.0,0.0
12481,76.0,240.0,150.0,10.0,0.0
12482,80.0,0.0,150.0,10.0,0.0
12483,80.0,396.0,150.0,11.0,0.0
12484,83.0,432.0,300.0,11.0,0.0
12485,83.0,0.0,300.0,10.0,0.0
12486,59.0,0.0,270.0,3.0,0.0
12487,80.0,0.0,270.0,0.0,0.0
12488,56.0,0.0,270.0,11.0,0.0
12489,47.0,0.0,270.0,13.0,0.0
12490,47.0,360.0,390.0,5.0,0.0
12491,59.0,0.0,270.0,4.0,0.0
12492,35.0,0.0,270.0,14.0,0.0
12493,47.0,0.0,270.0,3.0,0.0
12494,68.0,0.0,270.0,1.0,0.0
12495,47.0,0.0,270.0,2.0,0.0
12496,56.0,120.0,270.0,10.0,0.0
12497,59.0,0.0,270.0,12.0,0.0
12498,71.0,0.0,270.0,4.0,0.0
12499,59.0,0.0,270.0,3.0,0.0
12500,47.0,0.0,270.0,3.0,0.0
12501,54.0,0.0,270.0,11.0,0.0
12502,35.0,0.0,270.0,14.0,0.0
12503,47.0,120.0,270.0,13.0,0.0
12504,66.0,0.0,270.0,1.0,0.0
12505,54.0,0.0,270.0,10.0,0.0
12506,71.0,0.0,270.0,4.0,0.0
12507,47.0,0.0,270.0,12.0,0.0
12508,78.0,0.0,270.0,0.0,0.0
12509,47.0,0.0,270.0,2.0,0.0
12510,47.0,252.0,390.0,5.0,0.0
12511,59.0,0.0,270.0,4.0,0.0
12512,52.0,192.0,1140.0,11.0,0.0
12513,52.0,0.0,150.0,2.0,0.0
12514,40.0,0.0,150.0,14.0,0.0
12515,47.0,0.0,390.0,3.0,0.0
12516,59.0,0.0,390.0,3.0,0.0
12517,52.0,228.0,150.0,13.0,0.0
12518,56.0,0.0,150.0,12.0,0.0
12519,59.0,0.0,390.0,4.0,0.0
12520,71.0,0.0,390.0,4.0,0.0
12521,64.0,12.0,390.0,1.0,0.0
12522,47.0,0.0,390.0,5.0,0.0
12523,76.0,0.0,390.0,0.0,0.0
12524,52.0,0.0,1140.0,10.0,0.0
12525,52.0,240.0,150.0,12.0,0.0
12526,56.0,0.0,150.0,2.0,0.0
12527,56.0,0.0,150.0,13.0,0.0
12528,44.0,0.0,150.0,14.0,0.0
12529,68.0,0.0,390.0,1.0,0.0
12530,52.0,0.0,150.0,2.0,0.0
12531,56.0,0.0,150.0,12.0,0.0
12532,80.0,0.0,390.0,0.0,0.0
12533,71.0,0.0,390.0,4.0,0.0
12534,59.0,0.0,390.0,4.0,0.0
12535,76.0,0.0,390.0,1.0,0.0
12536,59.0,12.0,390.0,3.0,0.0
12537,47.0,0.0,390.0,5.0,0.0
12538,52.0,0.0,150.0,13.0,0.0
12539,40.0,228.0,150.0,14.0,0.0
12540,47.0,0.0,390.0,3.0,0.0
12541,56.0,0.0,150.0,13.0,0.0
12542,52.0,0.0,150.0,12.0,0.0
12543,44.0,0.0,150.0,14.0,0.0
12544,56.0,240.0,150.0,2.0,0.0
12545,52.0,0.0,150.0,2.0,0.0
12546,76.0,12.0,390.0,1.0,0.0
12547,68.0,0.0,390.0,1.0,0.0
12548,47.0,0.0,390.0,5.0,0.0
12549,56.0,0.0,150.0,12.0,0.0
12550,40.0,0.0,150.0,14.0,0.0
12551,80.0,0.0,390.0,0.0,0.0
12552,71.0,0.0,390.0,4.0,0.0
12553,59.0,0.0,390.0,4.0,0.0
12554,52.0,36.0,150.0,13.0,0.0
12555,59.0,0.0,390.0,3.0,0.0
12556,47.0,0.0,390.0,3.0,0.0
12557,56.0,204.0,150.0,13.0,0.0
12558,52.0,0.0,150.0,12.0,0.0
12559,44.0,0.0,150.0,14.0,0.0
12560,56.0,0.0,150.0,2.0,0.0
12561,76.0,0.0,1350.0,1.0,0.0
12562,68.0,0.0,1350.0,1.0,0.0
12563,68.0,0.0,1350.0,12.0,0.0
12564,59.0,0.0,1140.0,4.0,0.0
12565,71.0,120.0,120.0,10.0,0.0
12566,71.0,0.0,1140.0,4.0,0.0
12567,80.0,0.0,1350.0,0.0,0.0
12568,59.0,0.0,1140.0,3.0,0.0
12569,47.0,48.0,1140.0,3.0,0.0
12570,52.0,66.0,1350.0,2.0,0.0
12571,52.0,0.0,1350.0,13.0,0.0
12572,47.0,96.0,390.0,5.0,0.0
12573,40.0,0.0,1350.0,14.0,0.0
12574,71.0,0.0,120.0,11.0,0.0
12575,69.0,120.0,120.0,11.0,0.0
12576,69.0,0.0,120.0,10.0,0.0
12577,68.0,24.0,120.0,11.0,0.0
12578,68.0,0.0,120.0,10.0,0.0
12579,66.0,0.0,120.0,11.0,0.0
12580,66.0,120.0,120.0,10.0,0.0
12581,64.0,0.0,120.0,10.0,0.0
12582,64.0,120.0,120.0,11.0,0.0
12583,63.0,120.0,120.0,10.0,0.0
12584,63.0,0.0,120.0,11.0,0.0
12585,61.0,120.0,120.0,11.0,0.0
12586,61.0,0.0,120.0,10.0,0.0
12587,59.0,0.0,120.0,10.0,0.0
12588,59.0,120.0,120.0,11.0,0.0
12589,57.0,0.0,120.0,11.0,0.0
12590,57.0,72.0,120.0,10.0,0.0
12591,56.0,0.0,120.0,11.0,0.0
12592,56.0,120.0,120.0,10.0,0.0
12593,54.0,0.0,120.0,10.0,0.0
12594,54.0,30.0,120.0,11.0,0.0
12595,52.0,180.0,90.0,10.0,0.0
12596,52.0,0.0,90.0,11.0,0.0
12597,54.0,0.0,150.0,12.0,0.0
12598,51.0,0.0,1140.0,11.0,0.0
12599,66.0,12.0,390.0,4.0,0.0
12600,60.0,192.0,1140.0,11.0,0.0
12601,54.0,0.0,390.0,4.0,0.0
12602,42.0,0.0,390.0,5.0,0.0
12603,78.0,0.0,390.0,1.0,0.0
12604,39.0,228.0,150.0,14.0,0.0
12605,84.0,0.0,390.0,0.0,0.0
12606,60.0,0.0,1140.0,10.0,0.0
12607,51.0,0.0,150.0,2.0,0.0
12608,51.0,0.0,1140.0,10.0,0.0
12609,54.0,0.0,390.0,3.0,0.0
12610,51.0,0.0,150.0,13.0,0.0
12611,42.0,0.0,390.0,3.0,0.0
12612,69.0,0.0,390.0,1.0,0.0
12613,54.0,0.0,150.0,2.0,0.0
12614,42.0,0.0,150.0,14.0,0.0
12615,51.0,0.0,150.0,12.0,0.0
12616,54.0,240.0,150.0,13.0,0.0
12617,69.0,0.0,390.0,1.0,0.0
12618,39.0,0.0,150.0,14.0,0.0
12619,78.0,12.0,390.0,1.0,0.0
12620,84.0,0.0,390.0,0.0,0.0
12621,51.0,228.0,150.0,2.0,0.0
12622,51.0,0.0,150.0,13.0,0.0
12623,66.0,0.0,390.0,4.0,0.0
12624,54.0,0.0,390.0,3.0,0.0
12625,42.0,0.0,390.0,3.0,0.0
12626,54.0,0.0,390.0,4.0,0.0
12627,42.0,0.0,390.0,5.0,0.0
12628,54.0,0.0,150.0,12.0,0.0
12629,54.0,0.0,150.0,13.0,0.0
12630,42.0,0.0,150.0,14.0,0.0
12631,54.0,240.0,150.0,2.0,0.0
12632,51.0,0.0,150.0,12.0,0.0
12633,54.0,12.0,390.0,3.0,0.0
12634,54.0,0.0,150.0,12.0,0.0
12635,54.0,0.0,390.0,4.0,0.0
12636,42.0,0.0,390.0,3.0,0.0
12637,66.0,0.0,390.0,4.0,0.0
12638,51.0,0.0,150.0,2.0,0.0
12639,51.0,0.0,150.0,13.0,0.0
12640,78.0,0.0,390.0,1.0,0.0
12641,69.0,0.0,390.0,1.0,0.0
12642,42.0,0.0,390.0,5.0,0.0
12643,84.0,0.0,390.0,0.0,0.0
12644,39.0,36.0,150.0,14.0,0.0
12645,54.0,0.0,150.0,13.0,0.0
12646,42.0,204.0,150.0,14.0,0.0
12647,51.0,0.0,150.0,12.0,0.0
12648,54.0,0.0,150.0,2.0,0.0
12649,66.0,48.0,1140.0,4.0,0.0
12650,78.0,66.0,1350.0,1.0,0.0
12651,72.0,0.0,1350.0,1.0,0.0
12652,78.0,0.0,120.0,10.0,0.0
12653,84.0,0.0,1350.0,0.0,0.0
12654,51.0,0.0,1350.0,13.0,0.0
12655,54.0,0.0,1140.0,4.0,0.0
12656,42.0,0.0,1140.0,3.0,0.0
12657,54.0,0.0,1140.0,3.0,0.0
12658,39.0,0.0,1350.0,14.0,0.0
12659,42.0,96.0,390.0,5.0,0.0
12660,51.0,0.0,1350.0,2.0,0.0
12661,69.0,0.0,1350.0,12.0,0.0
12662,78.0,120.0,120.0,11.0,0.0
12663,76.0,0.0,120.0,11.0,0.0
12664,76.0,120.0,120.0,10.0,0.0
12665,75.0,0.0,120.0,11.0,0.0
12666,75.0,24.0,120.0,10.0,0.0
12667,73.0,0.0,120.0,10.0,0.0
12668,73.0,120.0,120.0,11.0,0.0
12669,72.0,120.0,120.0,11.0,0.0
12670,72.0,0.0,120.0,10.0,0.0
12671,69.0,120.0,120.0,10.0,0.0
12672,69.0,0.0,120.0,11.0,0.0
12673,68.0,120.0,120.0,11.0,0.0
12674,68.0,0.0,120.0,10.0,0.0
12675,66.0,0.0,120.0,10.0,0.0
12676,66.0,120.0,120.0,11.0,0.0
12677,64.0,72.0,120.0,11.0,0.0
12678,64.0,0.0,120.0,10.0,0.0
12679,63.0,0.0,120.0,11.0,0.0
12680,63.0,120.0,120.0,10.0,0.0
12681,61.0,0.0,120.0,10.0,0.0
12682,61.0,30.0,120.0,11.0,0.0
12683,60.0,180.0,90.0,10.0,0.0
12684,60.0,0.0,90.0,11.0,0.0
12685,52.0,0.0,1140.0,10.0,0.0
12686,76.0,0.0,390.0,1.0,0.0
12687,73.0,12.0,390.0,1.0,0.0
12688,73.0,0.0,390.0,4.0,0.0
12689,85.0,0.0,390.0,0.0,0.0
12690,37.0,228.0,150.0,14.0,0.0
12691,52.0,0.0,150.0,12.0,0.0
12692,61.0,0.0,390.0,3.0,0.0
12693,52.0,192.0,1140.0,11.0,0.0
12694,61.0,0.0,1140.0,11.0,0.0
12695,49.0,0.0,150.0,13.0,0.0
12696,61.0,0.0,1140.0,10.0,0.0
12697,49.0,0.0,150.0,2.0,0.0
12698,49.0,0.0,150.0,12.0,0.0
12699,52.0,240.0,150.0,13.0,0.0
12700,40.0,0.0,150.0,14.0,0.0
12701,52.0,0.0,150.0,2.0,0.0
12702,76.0,0.0,390.0,1.0,0.0
12703,68.0,0.0,390.0,1.0,0.0
12704,73.0,0.0,390.0,4.0,0.0
12705,52.0,228.0,150.0,12.0,0.0
12706,49.0,0.0,150.0,13.0,0.0
12707,37.0,0.0,150.0,14.0,0.0
12708,49.0,0.0,150.0,2.0,0.0
12709,61.0,12.0,390.0,3.0,0.0
12710,85.0,0.0,390.0,0.0,0.0
12711,52.0,0.0,150.0,13.0,0.0
12712,40.0,0.0,150.0,14.0,0.0
12713,52.0,240.0,150.0,2.0,0.0
12714,49.0,0.0,150.0,12.0,0.0
12715,76.0,0.0,390.0,1.0,0.0
12716,37.0,0.0,150.0,14.0,0.0
12717,68.0,12.0,390.0,1.0,0.0
12718,85.0,0.0,390.0,0.0,0.0
12719,52.0,36.0,150.0,12.0,0.0
12720,61.0,0.0,390.0,3.0,0.0
12721,73.0,0.0,390.0,4.0,0.0
12722,49.0,0.0,150.0,2.0,0.0
12723,49.0,0.0,150.0,13.0,0.0
12724,49.0,0.0,150.0,12.0,0.0
12725,40.0,204.0,150.0,14.0,0.0
12726,52.0,0.0,150.0,2.0,0.0
12727,52.0,0.0,150.0,13.0,0.0
12728,76.0,48.0,1140.0,1.0,0.0
12729,68.0,0.0,1140.0,1.0,0.0
12730,37.0,0.0,1140.0,14.0,0.0
12731,73.0,0.0,1140.0,4.0,0.0
12732,85.0,0.0,1140.0,0.0,0.0
12733,80.0,120.0,120.0,11.0,0.0
12734,61.0,0.0,1140.0,3.0,0.0
12735,49.0,0.0,1140.0,13.0,0.0
12736,80.0,0.0,120.0,10.0,0.0
12737,64.0,0.0,1140.0,12.0,0.0
12738,49.0,0.0,1140.0,2.0,0.0
12739,78.0,0.0,120.0,10.0,0.0
12740,78.0,120.0,120.0,11.0,0.0
12741,76.0,120.0,120.0,10.0,0.0
12742,76.0,0.0,120.0,11.0,0.0
12743,75.0,120.0,120.0,11.0,0.0
12744,75.0,0.0,120.0,10.0,0.0
12745,73.0,120.0,120.0,11.0,0.0
12746,73.0,0.0,120.0,10.0,0.0
12747,71.0,0.0,120.0,10.0,0.0
12748,71.0,120.0,120.0,11.0,0.0
12749,69.0,120.0,120.0,10.0,0.0
12750,69.0,0.0,120.0,11.0,0.0
12751,68.0,0.0,120.0,10.0,0.0
12752,68.0,120.0,120.0,11.0,0.0
12753,66.0,72.0,120.0,10.0,0.0
12754,66.0,0.0,120.0,11.0,0.0
12755,64.0,120.0,120.0,10.0,0.0
12756,64.0,0.0,120.0,11.0,0.0
12757,63.0,0.0,120.0,10.0,0.0
12758,63.0,96.0,120.0,11.0,0.0
12759,61.0,180.0,90.0,10.0,0.0
12760,61.0,0.0,90.0,11.0,0.0
12761,85.0,0.0,390.0,0.0,0.0
12762,34.0,0.0,150.0,14.0,0.0
12763,76.0,0.0,390.0,1.0,0.0
12764,73.0,0.0,390.0,1.0,0.0
12765,64.0,192.0,1140.0,11.0,0.0
12766,64.0,0.0,1140.0,10.0,0.0
12767,46.0,0.0,150.0,2.0,0.0
12768,42.0,0.0,390.0,5.0,0.0
12769,66.0,0.0,390.0,4.0,0.0
12770,54.0,12.0,390.0,4.0,0.0
12771,46.0,228.0,150.0,13.0,0.0
12772,61.0,0.0,150.0,12.0,0.0
12773,54.0,0.0,1140.0,11.0,0.0
12774,42.0,0.0,390.0,3.0,0.0
12775,54.0,0.0,390.0,3.0,0.0
12776,54.0,0.0,1140.0,10.0,0.0
12777,58.0,0.0,150.0,12.0,0.0
12778,37.0,0.0,150.0,14.0,0.0
12779,49.0,240.0,150.0,13.0,0.0
12780,49.0,0.0,150.0,2.0,0.0
12781,34.0,0.0,150.0,14.0,0.0
12782,73.0,0.0,390.0,1.0,0.0
12783,76.0,0.0,390.0,1.0,0.0
12784,85.0,0.0,390.0,0.0,0.0
12785,61.0,0.0,150.0,12.0,0.0
12786,66.0,12.0,390.0,4.0,0.0
12787,54.0,0.0,390.0,4.0,0.0
12788,42.0,0.0,390.0,5.0,0.0
12789,46.0,228.0,150.0,13.0,0.0
12790,46.0,0.0,150.0,2.0,0.0
12791,54.0,0.0,390.0,3.0,0.0
12792,42.0,0.0,390.0,3.0,0.0
12793,49.0,240.0,150.0,13.0,0.0
12794,58.0,0.0,150.0,12.0,0.0
12795,49.0,0.0,150.0,2.0,0.0
12796,37.0,0.0,150.0,14.0,0.0
12797,61.0,0.0,150.0,12.0,0.0
12798,54.0,0.0,390.0,3.0,0.0
12799,66.0,0.0,390.0,4.0,0.0
12800,54.0,0.0,390.0,4.0,0.0
12801,85.0,0.0,390.0,0.0,0.0
12802,42.0,0.0,390.0,5.0,0.0
12803,42.0,0.0,390.0,3.0,0.0
12804,46.0,36.0,150.0,2.0,0.0
12805,46.0,0.0,150.0,13.0,0.0
12806,76.0,0.0,390.0,1.0,0.0
12807,73.0,12.0,390.0,1.0,0.0
12808,34.0,0.0,150.0,14.0,0.0
12809,37.0,0.0,150.0,14.0,0.0
12810,49.0,0.0,150.0,2.0,0.0
12811,49.0,204.0,150.0,13.0,0.0
12812,58.0,0.0,150.0,12.0,0.0
12813,76.0,120.0,120.0,10.0,0.0
12814,85.0,0.0,1140.0,0.0,0.0
12815,76.0,0.0,1140.0,1.0,0.0
12816,73.0,0.0,1140.0,1.0,0.0
12817,46.0,0.0,1140.0,13.0,0.0
12818,66.0,0.0,1140.0,12.0,0.0
12819,54.0,0.0,1140.0,3.0,0.0
12820,76.0,0.0,120.0,11.0,0.0
12821,46.0,0.0,1140.0,2.0,0.0
12822,34.0,48.0,1140.0,14.0,0.0
12823,42.0,96.0,390.0,5.0,0.0
12824,42.0,0.0,1140.0,3.0,0.0
12825,54.0,0.0,1140.0,4.0,0.0
12826,66.0,0.0,1140.0,4.0,0.0
12827,75.0,120.0,120.0,11.0,0.0
12828,75.0,0.0,120.0,10.0,0.0
12829,73.0,24.0,120.0,11.0,0.0
12830,73.0,0.0,120.0,10.0,0.0
12831,71.0,120.0,120.0,10.0,0.0
12832,71.0,0.0,120.0,11.0,0.0
12833,70.0,0.0,120.0,11.0,0.0
12834,70.0,120.0,120.0,10.0,0.0
12835,68.0,0.0,120.0,11.0,0.0
12836,68.0,120.0,120.0,10.0,0.0
12837,66.0,120.0,120.0,11.0,0.0
12838,66.0,0.0,120.0,10.0,0.0
12839,64.0,120.0,120.0,11.0,0.0
12840,64.0,0.0,120.0,10.0,0.0
12841,63.0,0.0,120.0,11.0,0.0
12842,63.0,72.0,120.0,10.0,0.0
12843,61.0,120.0,120.0,10.0,0.0
12844,61.0,0.0,120.0,11.0,0.0
12845,59.0,96.0,120.0,11.0,0.0
12846,59.0,0.0,120.0,10.0,0.0
12847,58.0,0.0,90.0,11.0,0.0
12848,58.0,180.0,90.0,10.0,0.0
12849,47.0,0.0,390.0,3.0,0.0
12850,54.0,0.0,390.0,3.0,0.0
12851,35.0,228.0,150.0,14.0,0.0
12852,51.0,0.0,150.0,12.0,0.0
12853,54.0,192.0,1140.0,11.0,0.0
12854,63.0,0.0,1140.0,11.0,0.0
12855,71.0,0.0,390.0,1.0,0.0
12856,75.0,12.0,390.0,1.0,0.0
12857,47.0,0.0,150.0,13.0,0.0
12858,47.0,0.0,150.0,2.0,0.0
12859,83.0,0.0,390.0,0.0,0.0
12860,66.0,0.0,390.0,4.0,0.0
12861,59.0,0.0,390.0,4.0,0.0
12862,47.0,0.0,390.0,5.0,0.0
12863,54.0,0.0,1140.0,10.0,0.0
12864,63.0,0.0,1140.0,10.0,0.0
12865,51.0,0.0,150.0,2.0,0.0
12866,51.0,0.0,150.0,13.0,0.0
12867,39.0,240.0,150.0,14.0,0.0
12868,47.0,0.0,150.0,12.0,0.0
12869,83.0,12.0,390.0,0.0,0.0
12870,47.0,0.0,150.0,13.0,0.0
12871,35.0,0.0,150.0,14.0,0.0
12872,54.0,0.0,390.0,3.0,0.0
12873,47.0,0.0,390.0,3.0,0.0
12874,51.0,228.0,150.0,12.0,0.0
12875,47.0,0.0,150.0,2.0,0.0
12876,59.0,0.0,390.0,4.0,0.0
12877,47.0,0.0,390.0,5.0,0.0
12878,75.0,0.0,390.0,1.0,0.0
12879,71.0,0.0,390.0,1.0,0.0
12880,66.0,0.0,390.0,4.0,0.0
12881,47.0,0.0,150.0,12.0,0.0
12882,51.0,0.0,150.0,2.0,0.0
12883,39.0,240.0,150.0,14.0,0.0
12884,51.0,0.0,150.0,13.0,0.0
12885,71.0,0.0,390.0,1.0,0.0
12886,54.0,0.0,390.0,3.0,0.0
12887,47.0,0.0,390.0,3.0,0.0
12888,47.0,0.0,390.0,5.0,0.0
12889,51.0,0.0,150.0,12.0,0.0
12890,47.0,36.0,150.0,13.0,0.0
12891,83.0,0.0,390.0,0.0,0.0
12892,47.0,0.0,150.0,2.0,0.0
12893,75.0,0.0,390.0,1.0,0.0
12894,35.0,0.0,150.0,14.0,0.0
12895,59.0,0.0,390.0,4.0,0.0
12896,66.0,12.0,390.0,4.0,0.0
12897,47.0,0.0,150.0,12.0,0.0
12898,39.0,0.0,150.0,14.0,0.0
12899,51.0,204.0,150.0,2.0,0.0
12900,51.0,0.0,150.0,13.0,0.0
12901,47.0,0.0,1140.0,3.0,0.0
12902,78.0,120.0,120.0,10.0,0.0
12903,83.0,0.0,1140.0,0.0,0.0
12904,78.0,0.0,120.0,11.0,0.0
12905,63.0,48.0,1140.0,12.0,0.0
12906,75.0,0.0,1140.0,1.0,0.0
12907,47.0,0.0,1140.0,13.0,0.0
12908,59.0,0.0,1140.0,4.0,0.0
12909,66.0,0.0,1140.0,4.0,0.0
12910,71.0,0.0,1140.0,1.0,0.0
12911,54.0,0.0,1140.0,3.0,0.0
12912,35.0,0.0,1140.0,14.0,0.0
12913,47.0,0.0,1140.0,2.0,0.0
12914,47.0,96.0,390.0,5.0,0.0
12915,76.0,0.0,120.0,11.0,0.0
12916,76.0,120.0,120.0,10.0,0.0
12917,75.0,24.0,120.0,11.0,0.0
12918,75.0,0.0,120.0,10.0,0.0
12919,73.0,0.0,120.0,10.0,0.0
12920,73.0,120.0,120.0,11.0,0.0
12921,71.0,120.0,120.0,10.0,0.0
12922,71.0,0.0,120.0,11.0,0.0
12923,70.0,0.0,120.0,11.0,0.0
12924,70.0,120.0,120.0,10.0,0.0
12925,68.0,0.0,120.0,11.0,0.0
12926,68.0,120.0,120.0,10.0,0.0
12927,66.0,0.0,120.0,10.0,0.0
12928,66.0,120.0,120.0,11.0,0.0
12929,64.0,72.0,120.0,11.0,0.0
12930,64.0,0.0,120.0,10.0,0.0
12931,63.0,0.0,120.0,10.0,0.0
12932,63.0,120.0,120.0,11.0,0.0
12933,61.0,0.0,120.0,11.0,0.0
12934,61.0,96.0,120.0,10.0,0.0
12935,59.0,0.0,90.0,11.0,0.0
12936,59.0,180.0,90.0,10.0,0.0
12937,65.0,0.0,1140.0,11.0,0.0
12938,59.0,192.0,1140.0,11.0,0.0
12939,47.0,36.0,150.0,12.0,0.0
12940,71.0,12.0,390.0,4.0,0.0
12941,71.0,0.0,390.0,1.0,0.0
12942,47.0,0.0,390.0,5.0,0.0
12943,44.0,0.0,150.0,2.0,0.0
12944,83.0,0.0,390.0,0.0,0.0
12945,44.0,0.0,150.0,13.0,0.0
12946,77.0,0.0,390.0,1.0,0.0
12947,47.0,0.0,390.0,3.0,0.0
12948,59.0,0.0,390.0,4.0,0.0
12949,59.0,0.0,390.0,3.0,0.0
12950,59.0,0.0,1140.0,10.0,0.0
12951,32.0,192.0,180.0,14.0,0.0
12952,65.0,0.0,1140.0,10.0,0.0
12953,47.0,0.0,150.0,13.0,0.0
12954,35.0,204.0,180.0,14.0,0.0
12955,47.0,36.0,150.0,2.0,0.0
12956,44.0,0.0,150.0,12.0,0.0
12957,59.0,0.0,390.0,3.0,0.0
12958,71.0,0.0,390.0,4.0,0.0
12959,47.0,0.0,390.0,5.0,0.0
12960,47.0,0.0,390.0,3.0,0.0
12961,44.0,0.0,150.0,13.0,0.0
12962,59.0,12.0,390.0,4.0,0.0
12963,32.0,192.0,180.0,14.0,0.0
12964,77.0,0.0,390.0,1.0,0.0
12965,83.0,0.0,390.0,0.0,0.0
12966,47.0,0.0,150.0,12.0,0.0
12967,71.0,0.0,390.0,1.0,0.0
12968,44.0,36.0,150.0,2.0,0.0
12969,47.0,36.0,150.0,13.0,0.0
12970,47.0,0.0,150.0,2.0,0.0
12971,44.0,0.0,150.0,12.0,0.0
12972,35.0,204.0,180.0,14.0,0.0
12973,71.0,0.0,390.0,1.0,0.0
12974,59.0,0.0,390.0,4.0,0.0
12975,71.0,0.0,390.0,4.0,0.0
12976,44.0,0.0,150.0,13.0,0.0
12977,59.0,0.0,390.0,3.0,0.0
12978,77.0,0.0,390.0,1.0,0.0
12979,47.0,0.0,150.0,12.0,0.0
12980,83.0,12.0,390.0,0.0,0.0
12981,32.0,0.0,180.0,14.0,0.0
12982,44.0,36.0,150.0,2.0,0.0
12983,47.0,0.0,390.0,5.0,0.0
12984,47.0,0.0,390.0,3.0,0.0
12985,47.0,36.0,150.0,2.0,0.0
12986,47.0,0.0,150.0,13.0,0.0
12987,35.0,168.0,180.0,14.0,0.0
12988,44.0,0.0,150.0,12.0,0.0
12989,71.0,0.0,1140.0,4.0,0.0
12990,32.0,0.0,1140.0,14.0,0.0
12991,71.0,0.0,120.0,11.0,0.0
12992,53.0,0.0,960.0,12.0,0.0
12993,44.0,0.0,1140.0,13.0,0.0
12994,59.0,0.0,1140.0,4.0,0.0
12995,44.0,0.0,1140.0,2.0,0.0
12996,77.0,0.0,1140.0,1.0,0.0
12997,59.0,0.0,1140.0,3.0,0.0
12998,71.0,0.0,1140.0,1.0,0.0
12999,47.0,0.0,1140.0,3.0,0.0
13000,83.0,48.0,1140.0,0.0,0.0
13001,47.0,96.0,390.0,5.0,0.0
13002,71.0,120.0,120.0,10.0,0.0
13003,70.0,0.0,120.0,10.0,0.0
13004,70.0,120.0,120.0,11.0,0.0
13005,68.0,24.0,120.0,11.0,0.0
13006,68.0,0.0,120.0,10.0,0.0
13007,66.0,120.0,120.0,10.0,0.0
13008,66.0,0.0,120.0,11.0,0.0
13009,65.0,0.0,120.0,10.0,0.0
13010,65.0,120.0,120.0,11.0,0.0
13011,63.0,0.0,120.0,10.0,0.0
13012,63.0,120.0,120.0,11.0,0.0
13013,61.0,0.0,120.0,10.0,0.0
13014,61.0,120.0,120.0,11.0,0.0
13015,59.0,120.0,120.0,10.0,0.0
13016,59.0,0.0,120.0,11.0,0.0
13017,58.0,0.0,120.0,10.0,0.0
13018,47.0,72.0,390.0,12.0,0.0
13019,58.0,72.0,120.0,11.0,0.0
13020,56.0,120.0,120.0,10.0,0.0
13021,56.0,0.0,120.0,11.0,0.0
13022,54.0,24.0,120.0,10.0,0.0
13023,54.0,0.0,120.0,11.0,0.0
13024,53.0,120.0,90.0,11.0,0.0
13025,53.0,0.0,90.0,10.0,0.0
13026,54.0,0.0,90.0,10.0,0.0
13027,82.0,0.0,1140.0,0.0,0.0
13028,42.0,0.0,180.0,13.0,0.0
13029,54.0,0.0,1080.0,4.0,0.0
13030,42.0,72.0,1080.0,3.0,0.0
13031,54.0,96.0,90.0,11.0,0.0
13032,49.0,0.0,180.0,12.0,0.0
13033,42.0,48.0,390.0,5.0,0.0
13034,78.0,0.0,1140.0,1.0,0.0
13035,70.0,0.0,1140.0,1.0,0.0
13036,42.0,24.0,180.0,2.0,0.0
13037,30.0,0.0,180.0,14.0,0.0
13038,66.0,0.0,1080.0,4.0,0.0
13039,54.0,0.0,1080.0,3.0,0.0
13040,54.0,0.0,90.0,11.0,0.0
13041,54.0,120.0,90.0,10.0,0.0
13042,30.0,0.0,180.0,14.0,0.0
13043,49.0,0.0,180.0,12.0,0.0
13044,42.0,24.0,180.0,13.0,0.0
13045,58.0,48.0,90.0,11.0,0.0
13046,58.0,0.0,90.0,10.0,0.0
13047,42.0,0.0,180.0,2.0,0.0
13048,58.0,0.0,90.0,11.0,0.0
13049,58.0,120.0,90.0,10.0,0.0
13050,30.0,24.0,180.0,14.0,0.0
13051,42.0,0.0,180.0,2.0,0.0
13052,42.0,0.0,180.0,13.0,0.0
13053,61.0,96.0,90.0,10.0,0.0
13054,61.0,0.0,90.0,11.0,0.0
13055,49.0,0.0,180.0,12.0,0.0
13056,61.0,120.0,90.0,10.0,0.0
13057,61.0,0.0,90.0,11.0,0.0
13058,66.0,0.0,90.0,10.0,0.0
13059,42.0,0.0,180.0,2.0,0.0
13060,42.0,0.0,180.0,13.0,0.0
13061,30.0,0.0,180.0,14.0,0.0
13062,66.0,96.0,90.0,11.0,0.0
13063,49.0,24.0,180.0,12.0,0.0
13064,66.0,120.0,90.0,10.0,0.0
13065,66.0,0.0,90.0,11.0,0.0
13066,30.0,0.0,180.0,14.0,0.0
13067,42.0,0.0,180.0,2.0,0.0
13068,70.0,24.0,90.0,11.0,0.0
13069,70.0,0.0,90.0,10.0,0.0
13070,42.0,0.0,180.0,13.0,0.0
13071,49.0,24.0,180.0,12.0,0.0
13072,70.0,120.0,90.0,11.0,0.0
13073,70.0,0.0,90.0,10.0,0.0
13074,42.0,0.0,180.0,13.0,0.0
13075,66.0,96.0,90.0,10.0,0.0
13076,30.0,0.0,180.0,14.0,0.0
13077,42.0,24.0,180.0,2.0,0.0
13078,66.0,0.0,90.0,11.0,0.0
13079,49.0,0.0,180.0,12.0,0.0
13080,66.0,120.0,90.0,10.0,0.0
13081,66.0,0.0,90.0,11.0,0.0
13082,42.0,24.0,180.0,13.0,0.0
13083,42.0,48.0,390.0,5.0,0.0
13084,65.0,0.0,90.0,11.0,0.0
13085,30.0,0.0,180.0,14.0,0.0
13086,71.0,0.0,1140.0,1.0,0.0
13087,66.0,72.0,1080.0,4.0,0.0
13088,54.0,0.0,1080.0,3.0,0.0
13089,42.0,0.0,1080.0,3.0,0.0
13090,42.0,0.0,180.0,2.0,0.0
13091,65.0,96.0,90.0,10.0,0.0
13092,77.0,0.0,1140.0,1.0,0.0
13093,54.0,0.0,1080.0,4.0,0.0
13094,83.0,0.0,1140.0,0.0,0.0
13095,56.0,0.0,180.0,12.0,0.0
13096,65.0,120.0,90.0,10.0,0.0
13097,65.0,0.0,90.0,11.0,0.0
13098,71.0,0.0,90.0,10.0,0.0
13099,71.0,48.0,90.0,11.0,0.0
13100,30.0,0.0,180.0,14.0,0.0
13101,42.0,0.0,180.0,13.0,0.0
13102,42.0,24.0,180.0,2.0,0.0
13103,56.0,0.0,180.0,12.0,0.0
13104,71.0,120.0,90.0,11.0,0.0
13105,71.0,0.0,90.0,10.0,0.0
13106,42.0,0.0,180.0,2.0,0.0
13107,42.0,0.0,180.0,13.0,0.0
13108,68.0,0.0,90.0,10.0,0.0
13109,68.0,96.0,90.0,11.0,0.0
13110,56.0,0.0,180.0,12.0,0.0
13111,30.0,24.0,180.0,14.0,0.0
13112,68.0,120.0,90.0,11.0,0.0
13113,68.0,0.0,90.0,10.0,0.0
13114,65.0,0.0,90.0,10.0,0.0
13115,56.0,0.0,180.0,12.0,0.0
13116,65.0,96.0,90.0,11.0,0.0
13117,42.0,24.0,180.0,13.0,0.0
13118,42.0,0.0,180.0,2.0,0.0
13119,30.0,0.0,180.0,14.0,0.0
13120,65.0,0.0,90.0,10.0,0.0
13121,65.0,120.0,90.0,11.0,0.0
13122,42.0,0.0,180.0,2.0,0.0
13123,61.0,0.0,90.0,11.0,0.0
13124,30.0,0.0,180.0,14.0,0.0
13125,56.0,0.0,180.0,12.0,0.0
13126,61.0,24.0,90.0,10.0,0.0
13127,42.0,24.0,180.0,13.0,0.0
13128,61.0,0.0,90.0,11.0,0.0
13129,61.0,120.0,90.0,10.0,0.0
13130,56.0,0.0,180.0,12.0,0.0
13131,59.0,0.0,90.0,10.0,0.0
13132,42.0,0.0,180.0,13.0,0.0
13133,42.0,0.0,180.0,2.0,0.0
13134,59.0,96.0,90.0,11.0,0.0
13135,30.0,24.0,180.0,14.0,0.0
13136,59.0,0.0,90.0,11.0,0.0
13137,59.0,120.0,90.0,10.0,0.0
13138,54.0,0.0,1080.0,4.0,0.0
13139,58.0,96.0,90.0,11.0,0.0
13140,30.0,0.0,180.0,14.0,0.0
13141,61.0,24.0,180.0,12.0,0.0
13142,42.0,0.0,180.0,13.0,0.0
13143,58.0,0.0,90.0,10.0,0.0
13144,82.0,0.0,1140.0,0.0,0.0
13145,66.0,0.0,1080.0,4.0,0.0
13146,78.0,0.0,1140.0,1.0,0.0
13147,42.0,0.0,1080.0,3.0,0.0
13148,54.0,72.0,1080.0,3.0,0.0
13149,42.0,0.0,180.0,2.0,0.0
13150,70.0,0.0,1140.0,1.0,0.0
13151,42.0,48.0,390.0,5.0,0.0
13152,58.0,0.0,90.0,10.0,0.0
13153,58.0,120.0,90.0,11.0,0.0
13154,54.0,0.0,180.0,13.0,0.0
13155,54.0,24.0,180.0,2.0,0.0
13156,61.0,0.0,180.0,12.0,0.0
13157,66.0,48.0,90.0,11.0,0.0
13158,66.0,0.0,90.0,10.0,0.0
13159,42.0,0.0,180.0,14.0,0.0
13160,66.0,0.0,90.0,11.0,0.0
13161,66.0,120.0,90.0,10.0,0.0
13162,73.0,0.0,90.0,10.0,0.0
13163,42.0,0.0,180.0,14.0,0.0
13164,61.0,0.0,180.0,12.0,0.0
13165,73.0,96.0,90.0,11.0,0.0
13166,54.0,24.0,180.0,13.0,0.0
13167,54.0,0.0,180.0,2.0,0.0
13168,73.0,0.0,90.0,10.0,0.0
13169,73.0,120.0,90.0,11.0,0.0
13170,61.0,0.0,180.0,12.0,0.0
13171,78.0,96.0,90.0,11.0,0.0
13172,54.0,0.0,180.0,13.0,0.0
13173,42.0,24.0,180.0,14.0,0.0
13174,54.0,0.0,180.0,2.0,0.0
13175,78.0,0.0,90.0,10.0,0.0
13176,78.0,0.0,90.0,10.0,0.0
13177,78.0,120.0,90.0,11.0,0.0
13178,61.0,0.0,180.0,12.0,0.0
13179,54.0,24.0,180.0,13.0,0.0
13180,42.0,0.0,180.0,14.0,0.0
13181,54.0,0.0,180.0,2.0,0.0
13182,82.0,24.0,90.0,10.0,0.0
13183,82.0,0.0,90.0,11.0,0.0
13184,82.0,120.0,90.0,11.0,0.0
13185,82.0,0.0,90.0,10.0,0.0
13186,61.0,0.0,180.0,12.0,0.0
13187,54.0,24.0,180.0,2.0,0.0
13188,78.0,0.0,90.0,10.0,0.0
13189,42.0,0.0,180.0,14.0,0.0
13190,78.0,96.0,90.0,11.0,0.0
13191,54.0,0.0,180.0,13.0,0.0
13192,78.0,0.0,90.0,10.0,0.0
13193,78.0,120.0,90.0,11.0,0.0
13194,42.0,48.0,390.0,5.0,0.0
13195,71.0,0.0,1140.0,1.0,0.0
13196,77.0,0.0,1140.0,1.0,0.0
13197,83.0,0.0,1140.0,0.0,0.0
13198,77.0,96.0,90.0,11.0,0.0
13199,54.0,0.0,180.0,2.0,0.0
13200,54.0,0.0,1080.0,4.0,0.0
13201,66.0,0.0,1080.0,4.0,0.0
13202,54.0,0.0,180.0,13.0,0.0
13203,42.0,72.0,1080.0,3.0,0.0
13204,77.0,0.0,90.0,10.0,0.0
13205,54.0,0.0,1080.0,3.0,0.0
13206,68.0,24.0,180.0,12.0,0.0
13207,42.0,0.0,180.0,14.0,0.0
13208,77.0,120.0,90.0,11.0,0.0
13209,77.0,0.0,90.0,10.0,0.0
13210,68.0,24.0,180.0,12.0,0.0
13211,54.0,0.0,180.0,2.0,0.0
13212,54.0,0.0,180.0,13.0,0.0
13213,83.0,48.0,90.0,10.0,0.0
13214,42.0,0.0,180.0,14.0,0.0
13215,83.0,0.0,90.0,11.0,0.0
13216,83.0,120.0,90.0,10.0,0.0
13217,83.0,0.0,90.0,11.0,0.0
13218,42.0,0.0,180.0,14.0,0.0
13219,80.0,96.0,90.0,10.0,0.0
13220,80.0,0.0,90.0,11.0,0.0
13221,54.0,24.0,180.0,2.0,0.0
13222,54.0,0.0,180.0,13.0,0.0
13223,68.0,0.0,180.0,12.0,0.0
13224,80.0,120.0,90.0,11.0,0.0
13225,80.0,0.0,90.0,10.0,0.0
13226,54.0,0.0,180.0,2.0,0.0
13227,77.0,96.0,90.0,11.0,0.0
13228,54.0,0.0,180.0,13.0,0.0
13229,77.0,0.0,90.0,10.0,0.0
13230,68.0,24.0,180.0,12.0,0.0
13231,42.0,0.0,180.0,14.0,0.0
13232,77.0,0.0,90.0,11.0,0.0
13233,77.0,120.0,90.0,10.0,0.0
13234,73.0,24.0,90.0,10.0,0.0
13235,54.0,0.0,180.0,2.0,0.0
13236,54.0,24.0,180.0,13.0,0.0
13237,42.0,0.0,180.0,14.0,0.0
13238,73.0,0.0,90.0,11.0,0.0
13239,68.0,0.0,180.0,12.0,0.0
13240,73.0,0.0,90.0,10.0,0.0
13241,73.0,120.0,90.0,11.0,0.0
13242,54.0,0.0,180.0,13.0,0.0
13243,71.0,0.0,90.0,11.0,0.0
13244,42.0,0.0,180.0,14.0,0.0
13245,71.0,96.0,90.0,10.0,0.0
13246,68.0,24.0,180.0,12.0,0.0
13247,54.0,0.0,180.0,2.0,0.0
13248,71.0,0.0,90.0,10.0,0.0
13249,71.0,120.0,90.0,11.0,0.0
13250,54.0,0.0,270.0,3.0,0.0
13251,42.0,0.0,270.0,3.0,0.0
13252,82.0,0.0,180.0,0.0,0.0
13253,61.0,0.0,180.0,12.0,0.0
13254,70.0,0.0,90.0,10.0,0.0
13255,54.0,72.0,270.0,4.0,0.0
13256,66.0,0.0,270.0,4.0,0.0
13257,54.0,0.0,180.0,2.0,0.0
13258,42.0,36.0,390.0,5.0,0.0
13259,42.0,36.0,180.0,14.0,0.0
13260,78.0,0.0,180.0,1.0,0.0
13261,54.0,0.0,180.0,13.0,0.0
13262,70.0,84.0,90.0,11.0,0.0
13263,70.0,0.0,90.0,10.0,0.0
13264,70.0,48.0,90.0,11.0,0.0
13265,30.0,0.0,180.0,14.0,0.0
13266,42.0,0.0,180.0,13.0,0.0
13267,66.0,0.0,90.0,11.0,0.0
13268,66.0,0.0,180.0,0.0,0.0
13269,66.0,48.0,90.0,10.0,0.0
13270,42.0,36.0,180.0,2.0,0.0
13271,54.0,0.0,180.0,12.0,0.0
13272,66.0,0.0,180.0,1.0,0.0
13273,66.0,120.0,90.0,11.0,0.0
13274,66.0,0.0,90.0,10.0,0.0
13275,68.0,0.0,180.0,0.0,0.0
13276,68.0,0.0,90.0,10.0,0.0
13277,68.0,84.0,90.0,11.0,0.0
13278,44.0,0.0,180.0,2.0,0.0
13279,44.0,0.0,180.0,13.0,0.0
13280,56.0,0.0,180.0,12.0,0.0
13281,68.0,0.0,180.0,1.0,0.0
13282,32.0,36.0,180.0,14.0,0.0
13283,68.0,0.0,90.0,10.0,0.0
13284,68.0,120.0,90.0,11.0,0.0
13285,58.0,36.0,180.0,12.0,0.0
13286,46.0,0.0,180.0,2.0,0.0
13287,70.0,0.0,90.0,11.0,0.0
13288,70.0,0.0,180.0,0.0,0.0
13289,70.0,84.0,90.0,10.0,0.0
13290,34.0,0.0,180.0,14.0,0.0
13291,46.0,0.0,180.0,13.0,0.0
13292,70.0,0.0,180.0,1.0,0.0
13293,70.0,120.0,90.0,11.0,0.0
13294,70.0,0.0,90.0,10.0,0.0
13295,71.0,0.0,90.0,11.0,0.0
13296,59.0,0.0,180.0,12.0,0.0
13297,47.0,0.0,180.0,13.0,0.0
13298,35.0,0.0,180.0,14.0,0.0
13299,71.0,0.0,180.0,0.0,0.0
13300,71.0,0.0,180.0,1.0,0.0
13301,47.0,36.0,180.0,2.0,0.0
13302,71.0,84.0,90.0,10.0,0.0
13303,71.0,120.0,90.0,10.0,0.0
13304,71.0,0.0,90.0,11.0,0.0
13305,37.0,0.0,180.0,14.0,0.0
13306,61.0,0.0,180.0,12.0,0.0
13307,73.0,36.0,180.0,1.0,0.0
13308,49.0,0.0,180.0,2.0,0.0
13309,73.0,0.0,180.0,0.0,0.0
13310,73.0,0.0,90.0,11.0,0.0
13311,73.0,84.0,90.0,10.0,0.0
13312,49.0,0.0,180.0,13.0,0.0
13313,73.0,120.0,90.0,10.0,0.0
13314,73.0,0.0,90.0,11.0,0.0
13315,75.0,0.0,180.0,0.0,0.0
13316,75.0,84.0,90.0,11.0,0.0
13317,51.0,0.0,180.0,13.0,0.0
13318,75.0,0.0,180.0,1.0,0.0
13319,63.0,36.0,180.0,12.0,0.0
13320,51.0,0.0,180.0,2.0,0.0
13321,39.0,0.0,180.0,14.0,0.0
13322,75.0,0.0,90.0,10.0,0.0
13323,75.0,0.0,90.0,10.0,0.0
13324,75.0,120.0,90.0,11.0,0.0
13325,46.0,0.0,180.0,2.0,0.0
13326,34.0,36.0,180.0,14.0,0.0
13327,70.0,0.0,180.0,0.0,0.0
13328,46.0,0.0,180.0,13.0,0.0
13329,70.0,0.0,90.0,11.0,0.0
13330,70.0,0.0,180.0,1.0,0.0
13331,58.0,0.0,180.0,12.0,0.0
13332,70.0,84.0,90.0,10.0,0.0
13333,70.0,120.0,90.0,11.0,0.0
13334,70.0,0.0,90.0,10.0,0.0
13335,47.0,36.0,180.0,2.0,0.0
13336,71.0,84.0,90.0,10.0,0.0
13337,71.0,0.0,180.0,0.0,0.0
13338,47.0,0.0,180.0,13.0,0.0
13339,59.0,0.0,180.0,12.0,0.0
13340,71.0,0.0,90.0,11.0,0.0
13341,35.0,0.0,180.0,14.0,0.0
13342,71.0,0.0,180.0,1.0,0.0
13343,71.0,120.0,90.0,10.0,0.0
13344,71.0,0.0,90.0,11.0,0.0
13345,49.0,0.0,180.0,2.0,0.0
13346,61.0,0.0,180.0,12.0,0.0
13347,49.0,36.0,180.0,13.0,0.0
13348,73.0,0.0,180.0,1.0,0.0
13349,73.0,0.0,90.0,10.0,0.0
13350,73.0,0.0,180.0,0.0,0.0
13351,73.0,84.0,90.0,11.0,0.0
13352,37.0,0.0,180.0,14.0,0.0
13353,73.0,120.0,90.0,11.0,0.0
13354,73.0,0.0,90.0,10.0,0.0
13355,51.0,0.0,180.0,13.0,0.0
13356,51.0,0.0,180.0,2.0,0.0
13357,63.0,0.0,180.0,12.0,0.0
13358,75.0,0.0,180.0,1.0,0.0
13359,39.0,36.0,180.0,14.0,0.0
13360,75.0,84.0,90.0,10.0,0.0
13361,75.0,0.0,180.0,0.0,0.0
13362,75.0,0.0,90.0,11.0,0.0
13363,75.0,0.0,90.0,11.0,0.0
13364,75.0,120.0,90.0,10.0,0.0
13365,65.0,0.0,180.0,12.0,0.0
13366,53.0,0.0,180.0,2.0,0.0
13367,77.0,36.0,180.0,1.0,0.0
13368,77.0,0.0,90.0,11.0,0.0
13369,77.0,84.0,90.0,10.0,0.0
13370,77.0,0.0,180.0,0.0,0.0
13371,41.0,0.0,180.0,14.0,0.0
13372,53.0,0.0,180.0,13.0,0.0
13373,77.0,0.0,90.0,11.0,0.0
13374,77.0,168.0,90.0,10.0,0.0
13375,54.0,0.0,150.0,13.0,0.0
13376,54.0,216.0,150.0,2.0,0.0
13377,66.0,0.0,390.0,4.0,0.0
13378,42.0,0.0,150.0,14.0,0.0
13379,42.0,0.0,390.0,5.0,0.0
13380,78.0,0.0,150.0,11.0,0.0
13381,66.0,0.0,150.0,12.0,0.0
13382,78.0,0.0,150.0,10.0,0.0
13383,78.0,72.0,390.0,0.0,0.0
13384,78.0,0.0,390.0,1.0,0.0
13385,54.0,0.0,390.0,3.0,0.0
13386,44.0,0.0,120.0,14.0,0.0
13387,80.0,0.0,120.0,10.0,0.0
13388,80.0,24.0,120.0,11.0,0.0
13389,56.0,0.0,120.0,2.0,0.0
13390,68.0,0.0,120.0,12.0,0.0
13391,56.0,0.0,120.0,13.0,0.0
13392,53.0,168.0,90.0,2.0,0.0
13393,65.0,0.0,90.0,12.0,0.0
13394,41.0,0.0,90.0,14.0,0.0
13395,77.0,0.0,90.0,11.0,0.0
13396,77.0,0.0,90.0,10.0,0.0
13397,53.0,0.0,90.0,13.0,0.0
13398,78.0,0.0,150.0,11.0,0.0
13399,42.0,0.0,390.0,5.0,0.0
13400,78.0,0.0,150.0,10.0,0.0
13401,66.0,0.0,390.0,4.0,0.0
13402,42.0,0.0,150.0,14.0,0.0
13403,54.0,216.0,150.0,13.0,0.0
13404,54.0,72.0,390.0,3.0,0.0
13405,54.0,0.0,150.0,2.0,0.0
13406,66.0,0.0,150.0,12.0,0.0
13407,80.0,0.0,120.0,11.0,0.0
13408,44.0,0.0,120.0,14.0,0.0
13409,68.0,0.0,120.0,12.0,0.0
13410,56.0,24.0,120.0,2.0,0.0
13411,80.0,0.0,120.0,10.0,0.0
13412,56.0,0.0,120.0,13.0,0.0
13413,53.0,0.0,90.0,13.0,0.0
13414,65.0,0.0,90.0,12.0,0.0
13415,77.0,0.0,90.0,10.0,0.0
13416,77.0,0.0,90.0,11.0,0.0
13417,53.0,0.0,90.0,2.0,0.0
13418,41.0,168.0,90.0,14.0,0.0
13419,66.0,72.0,390.0,4.0,0.0
13420,78.0,0.0,150.0,10.0,0.0
13421,54.0,0.0,150.0,2.0,0.0
13422,54.0,0.0,390.0,3.0,0.0
13423,66.0,216.0,150.0,12.0,0.0
13424,42.0,0.0,150.0,14.0,0.0
13425,78.0,0.0,150.0,11.0,0.0
13426,42.0,0.0,390.0,5.0,0.0
13427,54.0,0.0,150.0,13.0,0.0
13428,56.0,24.0,120.0,13.0,0.0
13429,80.0,0.0,120.0,10.0,0.0
13430,80.0,0.0,120.0,11.0,0.0
13431,44.0,0.0,120.0,14.0,0.0
13432,56.0,0.0,120.0,2.0,0.0
13433,68.0,0.0,120.0,12.0,0.0
13434,41.0,0.0,90.0,14.0,0.0
13435,77.0,336.0,90.0,11.0,0.0
13436,65.0,0.0,90.0,12.0,0.0
13437,77.0,0.0,90.0,10.0,0.0
13438,53.0,0.0,90.0,2.0,0.0
13439,53.0,0.0,90.0,13.0,0.0
13440,66.0,408.0,390.0,4.0,0.0
13441,78.0,0.0,300.0,11.0,0.0
13442,66.0,0.0,300.0,12.0,0.0
13443,42.0,72.0,300.0,14.0,0.0
13444,70.0,0.0,390.0,1.0,0.0
13445,78.0,0.0,390.0,0.0,0.0
13446,78.0,0.0,300.0,10.0,0.0
13447,54.0,0.0,300.0,13.0,0.0
13448,54.0,0.0,300.0,2.0,0.0
13449,73.0,0.0,390.0,1.0,0.0
13450,42.0,0.0,390.0,5.0,0.0
13451,54.0,0.0,390.0,3.0,0.0
13452,73.0,0.0,390.0,1.0,0.0
13453,58.0,72.0,300.0,11.0,0.0
13454,78.0,0.0,390.0,0.0,0.0
13455,66.0,0.0,390.0,4.0,0.0
13456,66.0,0.0,300.0,11.0,0.0
13457,42.0,0.0,300.0,13.0,0.0
13458,54.0,0.0,300.0,12.0,0.0
13459,61.0,0.0,390.0,2.0,0.0
13460,58.0,0.0,390.0,2.0,0.0
13461,66.0,0.0,300.0,10.0,0.0
13462,70.0,0.0,390.0,1.0,0.0
13463,54.0,480.0,390.0,3.0,0.0
13464,58.0,0.0,300.0,10.0,0.0
13465,30.0,0.0,300.0,14.0,0.0
13466,70.0,0.0,390.0,1.0,0.0
13467,54.0,240.0,390.0,3.0,0.0
13468,61.0,0.0,390.0,2.0,0.0
13469,73.0,0.0,390.0,1.0,0.0
13470,78.0,0.0,390.0,0.0,0.0
13471,66.0,0.0,390.0,4.0,0.0
13472,58.0,0.0,390.0,2.0,0.0
13473,82.0,0.0,1800.0,0.0,0.0
13474,66.0,0.0,1800.0,4.0,0.0
13475,73.0,0.0,1800.0,4.0,0.0
13476,54.0,0.0,1800.0,3.0,0.0
13477,40.0,0.0,1800.0,2.0,0.0
13478,78.0,0.0,1800.0,1.0,0.0
13479,70.0,0.0,1800.0,1.0,0.0
13480,52.0,0.0,150.0,13.0,0.0
13481,61.0,24.0,1800.0,3.0,0.0
13482,64.0,216.0,150.0,12.0,0.0
13483,64.0,0.0,150.0,10.0,0.0
13484,42.0,72.0,390.0,5.0,0.0
13485,64.0,0.0,150.0,11.0,0.0
13486,40.0,0.0,150.0,14.0,0.0
13487,52.0,0.0,1800.0,2.0,0.0
13488,66.0,0.0,120.0,11.0,0.0
13489,66.0,0.0,120.0,12.0,0.0
13490,66.0,0.0,120.0,10.0,0.0
13491,42.0,0.0,120.0,14.0,0.0
13492,54.0,24.0,120.0,13.0,0.0
13493,63.0,168.0,90.0,10.0,0.0
13494,51.0,0.0,90.0,13.0,0.0
13495,63.0,0.0,90.0,11.0,0.0
13496,63.0,0.0,90.0,12.0,0.0
13497,39.0,0.0,90.0,14.0,0.0
13498,40.0,0.0,150.0,14.0,0.0
13499,64.0,0.0,150.0,11.0,0.0
13500,64.0,0.0,150.0,10.0,0.0
13501,52.0,216.0,150.0,13.0,0.0
13502,42.0,72.0,390.0,5.0,0.0
13503,64.0,0.0,150.0,12.0,0.0
13504,54.0,0.0,120.0,13.0,0.0
13505,66.0,0.0,120.0,10.0,0.0
13506,66.0,0.0,120.0,12.0,0.0
13507,66.0,24.0,120.0,11.0,0.0
13508,42.0,0.0,120.0,14.0,0.0
13509,51.0,0.0,90.0,13.0,0.0
13510,39.0,0.0,90.0,14.0,0.0
13511,63.0,168.0,90.0,12.0,0.0
13512,63.0,0.0,90.0,11.0,0.0
13513,63.0,0.0,90.0,10.0,0.0
13514,52.0,0.0,150.0,13.0,0.0
13515,40.0,216.0,150.0,14.0,0.0
13516,64.0,0.0,150.0,10.0,0.0
13517,64.0,0.0,150.0,11.0,0.0
13518,64.0,0.0,150.0,12.0,0.0
13519,42.0,72.0,390.0,5.0,0.0
13520,66.0,24.0,120.0,12.0,0.0
13521,42.0,0.0,120.0,14.0,0.0
13522,66.0,0.0,120.0,10.0,0.0
13523,54.0,0.0,120.0,13.0,0.0
13524,66.0,0.0,120.0,11.0,0.0
13525,51.0,0.0,90.0,13.0,0.0
13526,63.0,0.0,90.0,10.0,0.0
13527,63.0,0.0,90.0,11.0,0.0
13528,63.0,0.0,90.0,12.0,0.0
13529,39.0,336.0,90.0,14.0,0.0
13530,42.0,408.0,390.0,5.0,0.0
13531,52.0,0.0,300.0,13.0,0.0
13532,64.0,48.0,300.0,11.0,0.0
13533,64.0,0.0,300.0,12.0,0.0
13534,40.0,0.0,300.0,14.0,0.0
13535,64.0,0.0,300.0,10.0,0.0
13536,78.0,480.0,360.0,0.0,0.0
13537,73.0,0.0,360.0,1.0,0.0
13538,40.0,0.0,300.0,13.0,0.0
13539,52.0,0.0,360.0,2.0,0.0
13540,40.0,0.0,360.0,2.0,0.0
13541,28.0,0.0,300.0,14.0,0.0
13542,70.0,0.0,360.0,1.0,0.0
13543,52.0,0.0,300.0,12.0,0.0
13544,52.0,48.0,300.0,10.0,0.0
13545,52.0,0.0,300.0,11.0,0.0
13546,66.0,0.0,360.0,4.0,0.0
13547,73.0,0.0,360.0,4.0,0.0
13548,54.0,0.0,360.0,3.0,0.0
13549,61.0,0.0,360.0,3.0,0.0
13550,73.0,0.0,360.0,1.0,0.0
13551,73.0,264.0,360.0,4.0,0.0
13552,66.0,0.0,360.0,4.0,0.0
13553,54.0,0.0,360.0,3.0,0.0
13554,61.0,0.0,360.0,3.0,0.0
13555,40.0,0.0,360.0,2.0,0.0
13556,52.0,0.0,360.0,2.0,0.0
13557,78.0,0.0,360.0,0.0,0.0
13558,70.0,0.0,360.0,1.0,0.0
13559,63.0,0.0,150.0,10.0,0.0
13560,83.0,0.0,1800.0,0.0,0.0
13561,75.0,0.0,1800.0,1.0,0.0
13562,78.0,0.0,1800.0,1.0,0.0
13563,63.0,0.0,150.0,11.0,0.0
13564,51.0,0.0,1800.0,2.0,0.0
13565,39.0,0.0,1800.0,2.0,0.0
13566,63.0,216.0,150.0,12.0,0.0
13567,75.0,0.0,1800.0,4.0,0.0
13568,59.0,0.0,1800.0,3.0,0.0
13569,63.0,0.0,1800.0,3.0,0.0
13570,39.0,0.0,150.0,14.0,0.0
13571,42.0,72.0,390.0,5.0,0.0
13572,71.0,24.0,1800.0,4.0,0.0
13573,51.0,0.0,150.0,13.0,0.0
13574,64.0,0.0,120.0,11.0,0.0
13575,40.0,0.0,120.0,14.0,0.0
13576,64.0,0.0,120.0,10.0,0.0
13577,52.0,24.0,120.0,13.0,0.0
13578,64.0,0.0,120.0,12.0,0.0
13579,61.0,0.0,90.0,11.0,0.0
13580,61.0,0.0,90.0,10.0,0.0
13581,61.0,168.0,90.0,12.0,0.0
13582,49.0,0.0,90.0,13.0,0.0
13583,37.0,0.0,90.0,14.0,0.0
13584,63.0,0.0,150.0,10.0,0.0
13585,63.0,0.0,150.0,11.0,0.0
13586,42.0,72.0,390.0,5.0,0.0
13587,39.0,216.0,150.0,14.0,0.0
13588,51.0,0.0,150.0,13.0,0.0
13589,63.0,0.0,150.0,12.0,0.0
13590,64.0,0.0,120.0,12.0,0.0
13591,64.0,24.0,120.0,10.0,0.0
13592,40.0,0.0,120.0,14.0,0.0
13593,64.0,0.0,120.0,11.0,0.0
13594,52.0,0.0,120.0,13.0,0.0
13595,61.0,168.0,90.0,12.0,0.0
13596,61.0,0.0,90.0,11.0,0.0
13597,61.0,0.0,90.0,10.0,0.0
13598,49.0,0.0,90.0,13.0,0.0
13599,37.0,0.0,90.0,14.0,0.0
13600,39.0,0.0,150.0,14.0,0.0
13601,42.0,72.0,390.0,5.0,0.0
13602,51.0,0.0,150.0,13.0,0.0
13603,63.0,0.0,150.0,11.0,0.0
13604,63.0,0.0,150.0,12.0,0.0
13605,63.0,216.0,150.0,10.0,0.0
13606,64.0,0.0,120.0,12.0,0.0
13607,52.0,0.0,120.0,13.0,0.0
13608,40.0,0.0,120.0,14.0,0.0
13609,64.0,0.0,120.0,11.0,0.0
13610,64.0,24.0,120.0,10.0,0.0
13611,49.0,0.0,90.0,13.0,0.0
13612,61.0,0.0,90.0,11.0,0.0
13613,37.0,0.0,90.0,14.0,0.0
13614,61.0,0.0,90.0,10.0,0.0
13615,61.0,336.0,90.0,12.0,0.0
13616,63.0,0.0,300.0,12.0,0.0
13617,39.0,0.0,300.0,14.0,0.0
13618,63.0,0.0,300.0,11.0,0.0
13619,42.0,408.0,390.0,5.0,0.0
13620,51.0,48.0,300.0,13.0,0.0
13621,63.0,0.0,300.0,10.0,0.0
13622,51.0,0.0,300.0,10.0,0.0
13623,51.0,48.0,300.0,12.0,0.0
13624,39.0,0.0,300.0,13.0,0.0
13625,66.0,0.0,360.0,4.0,0.0
13626,78.0,0.0,360.0,0.0,0.0
13627,27.0,0.0,300.0,14.0,0.0
13628,75.0,0.0,360.0,1.0,0.0
13629,71.0,0.0,360.0,1.0,0.0
13630,59.0,0.0,360.0,3.0,0.0
13631,54.0,0.0,360.0,3.0,0.0
13632,51.0,0.0,300.0,11.0,0.0
13633,51.0,0.0,360.0,2.0,0.0
13634,39.0,480.0,360.0,2.0,0.0
13635,71.0,0.0,360.0,4.0,0.0
13636,75.0,0.0,360.0,1.0,0.0
13637,39.0,0.0,360.0,2.0,0.0
13638,51.0,264.0,360.0,2.0,0.0
13639,59.0,0.0,360.0,3.0,0.0
13640,71.0,0.0,360.0,4.0,0.0
13641,66.0,0.0,360.0,4.0,0.0
13642,71.0,0.0,360.0,1.0,0.0
13643,54.0,0.0,360.0,3.0,0.0
13644,78.0,0.0,360.0,0.0,0.0
13645,37.0,0.0,150.0,14.0,0.0
13646,66.0,0.0,1800.0,4.0,0.0
13647,54.0,0.0,1800.0,3.0,0.0
13648,61.0,0.0,150.0,10.0,0.0
13649,85.0,0.0,1800.0,0.0,0.0
13650,42.0,72.0,390.0,5.0,0.0
13651,52.0,168.0,1140.0,2.0,0.0
13652,58.0,24.0,1800.0,2.0,0.0
13653,42.0,0.0,1800.0,3.0,0.0
13654,54.0,0.0,1800.0,4.0,0.0
13655,49.0,0.0,150.0,13.0,0.0
13656,61.0,216.0,150.0,11.0,0.0
13657,70.0,0.0,2880.0,1.0,0.0
13658,76.0,0.0,1800.0,1.0,0.0
13659,61.0,0.0,150.0,12.0,0.0
13660,63.0,24.0,120.0,12.0,0.0
13661,51.0,0.0,120.0,13.0,0.0
13662,63.0,0.0,120.0,10.0,0.0
13663,63.0,0.0,120.0,11.0,0.0
13664,39.0,0.0,120.0,14.0,0.0
13665,59.0,0.0,90.0,12.0,0.0
13666,59.0,0.0,90.0,11.0,0.0
13667,59.0,0.0,90.0,10.0,0.0
13668,35.0,168.0,90.0,14.0,0.0
13669,47.0,0.0,90.0,13.0,0.0
13670,37.0,0.0,150.0,14.0,0.0
13671,61.0,216.0,150.0,10.0,0.0
13672,61.0,0.0,150.0,12.0,0.0
13673,61.0,0.0,150.0,11.0,0.0
13674,49.0,0.0,150.0,13.0,0.0
13675,42.0,72.0,390.0,5.0,0.0
13676,63.0,0.0,120.0,11.0,0.0
13677,39.0,0.0,120.0,14.0,0.0
13678,63.0,0.0,120.0,10.0,0.0
13679,51.0,24.0,120.0,13.0,0.0
13680,63.0,0.0,120.0,12.0,0.0
13681,59.0,0.0,90.0,10.0,0.0
13682,47.0,0.0,90.0,13.0,0.0
13683,59.0,0.0,90.0,12.0,0.0
13684,35.0,0.0,90.0,14.0,0.0
13685,59.0,168.0,90.0,11.0,0.0
13686,42.0,72.0,390.0,5.0,0.0
13687,61.0,0.0,150.0,12.0,0.0
13688,61.0,0.0,150.0,11.0,0.0
13689,61.0,48.0,150.0,10.0,0.0
13690,37.0,0.0,150.0,14.0,0.0
13691,49.0,0.0,150.0,13.0,0.0
13692,51.0,0.0,120.0,13.0,0.0
13693,63.0,0.0,120.0,10.0,0.0
13694,39.0,0.0,120.0,14.0,0.0
13695,63.0,0.0,120.0,11.0,0.0
13696,63.0,24.0,120.0,12.0,0.0
13697,59.0,0.0,90.0,11.0,0.0
13698,59.0,0.0,90.0,12.0,0.0
13699,47.0,336.0,90.0,13.0,0.0
13700,35.0,0.0,90.0,14.0,0.0
13701,59.0,0.0,90.0,10.0,0.0
13702,61.0,0.0,300.0,12.0,0.0
13703,37.0,0.0,300.0,14.0,0.0
13704,49.0,0.0,360.0,2.0,0.0
13705,61.0,48.0,300.0,11.0,0.0
13706,42.0,36.0,390.0,5.0,0.0
13707,49.0,0.0,300.0,13.0,0.0
13708,61.0,0.0,300.0,10.0,0.0
13709,75.0,60.0,60.0,1.0,0.0
13710,76.0,312.0,60.0,1.0,0.0
13711,66.0,48.0,300.0,10.0,0.0
13712,76.0,0.0,300.0,10.0,0.0
13713,66.0,0.0,390.0,11.0,0.0
13714,58.0,0.0,300.0,10.0,0.0
13715,37.0,0.0,390.0,13.0,0.0
13716,58.0,0.0,390.0,11.0,0.0
13717,76.0,0.0,390.0,11.0,0.0
13718,37.0,0.0,360.0,2.0,0.0
13719,25.0,96.0,390.0,14.0,0.0
13720,49.0,24.0,360.0,2.0,0.0
13721,78.0,360.0,480.0,1.0,0.0
13722,54.0,0.0,360.0,4.0,0.0
13723,82.0,0.0,360.0,0.0,0.0
13724,42.0,0.0,360.0,3.0,0.0
13725,49.0,0.0,390.0,12.0,0.0
13726,54.0,0.0,360.0,3.0,0.0
13727,66.0,0.0,360.0,4.0,0.0
13728,49.0,0.0,360.0,2.0,0.0
13729,37.0,0.0,360.0,2.0,0.0
13730,76.0,192.0,480.0,1.0,0.0
13731,78.0,0.0,360.0,0.0,0.0
13732,66.0,0.0,360.0,4.0,0.0
13733,42.0,0.0,360.0,3.0,0.0
13734,54.0,0.0,360.0,3.0,0.0
13735,54.0,120.0,360.0,4.0,0.0
13736,47.0,0.0,1140.0,12.0,0.0
13737,51.0,0.0,1140.0,11.0,0.0
13738,59.0,240.0,1140.0,10.0,0.0
13739,75.0,48.0,390.0,1.0,0.0
13740,71.0,0.0,390.0,1.0,0.0
13741,59.0,192.0,1440.0,3.0,0.0
13742,47.0,0.0,1440.0,3.0,0.0
13743,59.0,0.0,1140.0,11.0,0.0
13744,35.0,192.0,180.0,14.0,0.0
13745,83.0,0.0,390.0,0.0,0.0
13746,47.0,0.0,390.0,2.0,0.0
13747,71.0,0.0,1140.0,4.0,0.0
13748,59.0,0.0,1140.0,4.0,0.0
13749,47.0,0.0,390.0,5.0,0.0
13750,35.0,0.0,180.0,13.0,0.0
13751,51.0,0.0,1140.0,10.0,0.0
13752,35.0,0.0,390.0,2.0,0.0
13753,35.0,0.0,180.0,14.0,0.0
13754,47.0,240.0,180.0,13.0,0.0
13755,35.0,0.0,180.0,14.0,0.0
13756,47.0,240.0,180.0,13.0,0.0
13757,35.0,0.0,180.0,14.0,0.0
13758,47.0,240.0,180.0,13.0,0.0
13759,35.0,0.0,180.0,14.0,0.0
13760,47.0,0.0,180.0,13.0,0.0
13761,35.0,0.0,180.0,14.0,0.0
13762,47.0,48.0,180.0,13.0,0.0
13763,47.0,48.0,390.0,13.0,0.0
13764,71.0,144.0,240.0,10.0,0.0
13765,56.0,0.0,240.0,11.0,0.0
13766,59.0,0.0,2820.0,3.0,0.0
13767,47.0,24.0,2820.0,3.0,0.0
13768,35.0,48.0,180.0,14.0,0.0
13769,35.0,48.0,180.0,14.0,0.0
13770,59.0,0.0,240.0,11.0,0.0
13771,75.0,192.0,240.0,10.0,0.0
13772,35.0,48.0,180.0,14.0,0.0
13773,58.0,192.0,240.0,11.0,0.0
13774,73.0,0.0,240.0,10.0,0.0
13775,54.0,192.0,240.0,11.0,0.0
13776,35.0,48.0,180.0,14.0,0.0
13777,70.0,0.0,240.0,10.0,0.0
13778,68.0,192.0,240.0,10.0,0.0
13779,35.0,48.0,180.0,14.0,0.0
13780,52.0,0.0,240.0,11.0,0.0
13781,35.0,48.0,180.0,14.0,0.0
13782,56.0,0.0,240.0,11.0,0.0
13783,71.0,192.0,240.0,10.0,0.0
13784,54.0,192.0,240.0,11.0,0.0
13785,35.0,48.0,180.0,14.0,0.0
13786,70.0,0.0,240.0,10.0,0.0
13787,35.0,48.0,180.0,14.0,0.0
13788,66.0,192.0,240.0,10.0,0.0
13789,51.0,0.0,240.0,11.0,0.0
13790,35.0,48.0,180.0,14.0,0.0
13791,64.0,192.0,240.0,10.0,0.0
13792,56.0,0.0,240.0,11.0,0.0
13793,52.0,192.0,240.0,11.0,0.0
13794,68.0,0.0,240.0,10.0,0.0
13795,35.0,48.0,180.0,14.0,0.0
13796,35.0,48.0,180.0,14.0,0.0
13797,66.0,168.0,240.0,10.0,0.0
13798,51.0,0.0,240.0,11.0,0.0
13799,35.0,240.0,180.0,14.0,0.0
13800,63.0,0.0,180.0,10.0,0.0
13801,54.0,0.0,180.0,11.0,0.0
13802,76.0,0.0,360.0,1.0,0.0
13803,73.0,0.0,360.0,1.0,0.0
13804,46.0,120.0,240.0,13.0,0.0
13805,47.0,24.0,2820.0,3.0,0.0
13806,35.0,48.0,180.0,14.0,0.0
13807,52.0,72.0,360.0,2.0,0.0
13808,61.0,0.0,360.0,2.0,0.0
13809,78.0,0.0,360.0,0.0,0.0
13810,35.0,48.0,180.0,14.0,0.0
13811,47.0,192.0,240.0,13.0,0.0
13812,35.0,48.0,180.0,14.0,0.0
13813,49.0,120.0,240.0,13.0,0.0
13814,52.0,0.0,360.0,2.0,0.0
13815,73.0,0.0,360.0,1.0,0.0
13816,76.0,72.0,360.0,1.0,0.0
13817,61.0,0.0,360.0,2.0,0.0
13818,78.0,0.0,360.0,0.0,0.0
13819,51.0,192.0,240.0,13.0,0.0
13820,35.0,48.0,180.0,14.0,0.0
13821,52.0,120.0,240.0,13.0,0.0
13822,61.0,0.0,360.0,2.0,0.0
13823,52.0,0.0,360.0,2.0,0.0
13824,35.0,48.0,180.0,14.0,0.0
13825,73.0,0.0,360.0,1.0,0.0
13826,78.0,72.0,360.0,0.0,0.0
13827,76.0,0.0,360.0,1.0,0.0
13828,35.0,48.0,180.0,14.0,0.0
13829,53.0,192.0,240.0,13.0,0.0
13830,54.0,192.0,240.0,13.0,0.0
13831,35.0,48.0,180.0,14.0,0.0
13832,78.0,120.0,720.0,0.0,0.0
13833,61.0,192.0,960.0,2.0,0.0
13834,73.0,0.0,960.0,1.0,0.0
13835,76.0,0.0,960.0,1.0,0.0
13836,52.0,0.0,960.0,2.0,0.0
13837,35.0,48.0,180.0,14.0,0.0
13838,55.0,192.0,240.0,13.0,0.0
13839,35.0,48.0,180.0,14.0,0.0
13840,56.0,0.0,240.0,13.0,0.0
13841,58.0,0.0,240.0,13.0,0.0
13842,35.0,48.0,180.0,14.0,0.0
13843,80.0,72.0,120.0,0.0,0.0
13844,78.0,0.0,120.0,0.0,0.0
13845,61.0,0.0,240.0,13.0,0.0
13846,75.0,0.0,180.0,1.0,0.0
13847,71.0,0.0,180.0,1.0,0.0
13848,59.0,0.0,180.0,2.0,0.0
13849,51.0,48.0,180.0,2.0,0.0
13850,35.0,0.0,180.0,14.0,0.0
13851,83.0,168.0,240.0,0.0,0.0
13852,59.0,240.0,180.0,13.0,0.0
13853,35.0,0.0,180.0,14.0,0.0
13854,63.0,192.0,240.0,11.0,0.0
13855,35.0,48.0,180.0,14.0,0.0
13856,78.0,0.0,240.0,10.0,0.0
13857,47.0,0.0,5460.0,3.0,0.0
13858,35.0,0.0,5460.0,3.0,0.0
13859,83.0,0.0,240.0,10.0,0.0
13860,65.0,192.0,240.0,11.0,0.0
13861,35.0,48.0,180.0,14.0,0.0
13862,35.0,48.0,180.0,14.0,0.0
13863,82.0,0.0,240.0,10.0,0.0
13864,66.0,192.0,240.0,11.0,0.0
13865,35.0,48.0,180.0,14.0,0.0
13866,75.0,0.0,240.0,10.0,0.0
13867,59.0,192.0,240.0,11.0,0.0
13868,76.0,192.0,240.0,10.0,0.0
13869,61.0,0.0,240.0,11.0,0.0
13870,35.0,48.0,180.0,14.0,0.0
13871,62.0,0.0,240.0,11.0,0.0
13872,35.0,48.0,180.0,14.0,0.0
13873,80.0,192.0,240.0,10.0,0.0
13874,35.0,48.0,180.0,14.0,0.0
13875,63.0,192.0,240.0,11.0,0.0
13876,78.0,0.0,240.0,10.0,0.0
13877,56.0,192.0,240.0,11.0,0.0
13878,35.0,48.0,180.0,14.0,0.0
13879,71.0,0.0,240.0,10.0,0.0
13880,35.0,48.0,180.0,14.0,0.0
13881,73.0,192.0,240.0,10.0,0.0
13882,57.0,0.0,240.0,11.0,0.0
13883,58.0,0.0,240.0,11.0,0.0
13884,35.0,48.0,180.0,14.0,0.0
13885,76.0,192.0,240.0,10.0,0.0
13886,59.0,0.0,240.0,11.0,0.0
13887,35.0,48.0,180.0,14.0,0.0
13888,75.0,192.0,240.0,10.0,0.0
13889,78.0,0.0,180.0,10.0,0.0
13890,63.0,0.0,180.0,11.0,0.0
13891,35.0,240.0,180.0,14.0,0.0
13892,76.0,0.0,360.0,1.0,0.0
13893,78.0,0.0,360.0,0.0,0.0
13894,46.0,120.0,240.0,13.0,0.0
13895,73.0,0.0,360.0,1.0,0.0
13896,61.0,72.0,360.0,2.0,0.0
13897,52.0,0.0,360.0,2.0,0.0
13898,35.0,48.0,180.0,14.0,0.0
13899,47.0,192.0,240.0,13.0,0.0
13900,35.0,48.0,180.0,14.0,0.0
13901,78.0,0.0,360.0,0.0,0.0
13902,52.0,72.0,360.0,2.0,0.0
13903,61.0,0.0,360.0,2.0,0.0
13904,49.0,120.0,240.0,13.0,0.0
13905,35.0,48.0,180.0,14.0,0.0
13906,73.0,0.0,360.0,1.0,0.0
13907,76.0,0.0,360.0,1.0,0.0
13908,35.0,48.0,180.0,14.0,0.0
13909,51.0,192.0,240.0,13.0,0.0
13910,35.0,48.0,180.0,14.0,0.0
13911,52.0,72.0,360.0,2.0,0.0
13912,52.0,120.0,240.0,13.0,0.0
13913,78.0,0.0,360.0,0.0,0.0
13914,73.0,0.0,360.0,1.0,0.0
13915,76.0,0.0,360.0,1.0,0.0
13916,61.0,0.0,360.0,2.0,0.0
13917,53.0,192.0,240.0,13.0,0.0
13918,35.0,48.0,180.0,14.0,0.0
13919,73.0,0.0,960.0,1.0,0.0
13920,76.0,0.0,960.0,1.0,0.0
13921,78.0,0.0,720.0,0.0,0.0
13922,54.0,192.0,240.0,13.0,0.0
13923,61.0,192.0,960.0,2.0,0.0
13924,52.0,0.0,960.0,2.0,0.0
13925,35.0,48.0,180.0,14.0,0.0
13926,55.0,192.0,240.0,13.0,0.0
13927,35.0,48.0,180.0,14.0,0.0
13928,35.0,48.0,180.0,14.0,0.0
13929,56.0,120.0,240.0,13.0,0.0
13930,35.0,48.0,180.0,14.0,0.0
13931,80.0,72.0,120.0,0.0,0.0
13932,58.0,0.0,240.0,13.0,0.0
13933,78.0,0.0,120.0,0.0,0.0
13934,71.0,48.0,180.0,1.0,0.0
13935,75.0,0.0,180.0,1.0,0.0
13936,61.0,0.0,240.0,13.0,0.0
13937,59.0,0.0,180.0,2.0,0.0
13938,51.0,0.0,180.0,2.0,0.0
13939,35.0,0.0,180.0,14.0,0.0
13940,83.0,192.0,240.0,0.0,0.0
13941,59.0,528.0,180.0,13.0,0.0
13942,78.0,480.0,480.0,1.0,0.0
13943,75.0,0.0,480.0,1.0,0.0
13944,73.0,0.0,480.0,1.0,0.0
13945,76.0,384.0,480.0,1.0,0.0
13946,75.0,0.0,390.0,1.0,0.0
13947,72.0,816.0,390.0,1.0,0.0
13948,32.0,0.0,960.0,14.0,0.0
13949,75.0,192.0,960.0,1.0,0.0
13950,51.0,0.0,960.0,2.0,0.0
13951,56.0,0.0,960.0,12.0,0.0
13952,81.0,120.0,720.0,0.0,0.0
13953,54.0,0.0,960.0,2.0,0.0
13954,44.0,0.0,960.0,13.0,0.0
13955,72.0,0.0,960.0,1.0,0.0
13956,80.0,120.0,120.0,0.0,0.0
13957,78.0,0.0,120.0,0.0,0.0
13958,49.0,0.0,240.0,13.0,0.0
13959,49.0,0.0,180.0,2.0,0.0
13960,61.0,0.0,240.0,12.0,0.0
13961,37.0,0.0,240.0,14.0,0.0
13962,73.0,48.0,180.0,1.0,0.0
13963,76.0,0.0,180.0,1.0,0.0
13964,52.0,0.0,180.0,2.0,0.0
13965,76.0,720.0,240.0,0.0,0.0
13966,76.0,0.0,480.0,1.0,0.0
13967,73.0,480.0,480.0,1.0,0.0
13968,75.0,0.0,480.0,1.0,0.0
13969,71.0,384.0,480.0,1.0,0.0
13970,70.0,0.0,390.0,1.0,0.0
13971,73.0,816.0,390.0,1.0,0.0
13972,42.0,0.0,960.0,13.0,0.0
13973,54.0,192.0,960.0,12.0,0.0
13974,30.0,0.0,960.0,14.0,0.0
13975,49.0,0.0,960.0,2.0,0.0
13976,52.0,0.0,960.0,2.0,0.0
13977,70.0,0.0,960.0,1.0,0.0
13978,73.0,0.0,960.0,1.0,0.0
13979,80.0,120.0,720.0,0.0,0.0
13980,78.0,120.0,120.0,0.0,0.0
13981,76.0,0.0,120.0,0.0,0.0
13982,71.0,0.0,180.0,1.0,0.0
13983,35.0,0.0,240.0,14.0,0.0
13984,47.0,0.0,240.0,13.0,0.0
13985,75.0,432.0,240.0,0.0,0.0
13986,51.0,0.0,180.0,2.0,0.0
13987,47.0,0.0,180.0,2.0,0.0
13988,59.0,0.0,240.0,12.0,0.0
13989,75.0,48.0,180.0,1.0,0.0
13990,51.0,192.0,1440.0,12.0,0.0
13991,63.0,0.0,1440.0,11.0,0.0
13992,35.0,480.0,180.0,7.0,0.0
13993,71.0,0.0,1440.0,10.0,0.0
13994,59.0,0.0,1440.0,12.0,0.0
13995,47.0,0.0,180.0,6.0,0.0
13996,51.0,0.0,180.0,6.0,0.0
13997,39.0,480.0,180.0,7.0,0.0
13998,47.0,288.0,180.0,6.0,0.0
13999,35.0,0.0,180.0,7.0,0.0
14000,73.0,0.0,1380.0,10.0,0.0
14001,66.0,0.0,1380.0,11.0,0.0
14002,34.0,0.0,180.0,7.0,0.0
14003,46.0,480.0,180.0,6.0,0.0
14004,54.0,264.0,1380.0,12.0,0.0
14005,61.0,0.0,1380.0,12.0,0.0
14006,42.0,0.0,180.0,6.0,0.0
14007,30.0,480.0,180.0,7.0,0.0
14008,46.0,216.0,180.0,6.0,0.0
14009,34.0,0.0,180.0,7.0,0.0
14010,75.0,0.0,480.0,10.0,0.0
14011,47.0,288.0,180.0,6.0,0.0
14012,35.0,0.0,180.0,7.0,0.0
14013,63.0,0.0,480.0,12.0,0.0
14014,59.0,480.0,480.0,12.0,0.0
14015,71.0,0.0,480.0,11.0,0.0
14016,76.0,0.0,480.0,11.0,0.0
14017,68.0,0.0,480.0,12.0,0.0
14018,80.0,0.0,480.0,10.0,0.0
14019,64.0,192.0,480.0,12.0,0.0
14020,75.0,0.0,390.0,11.0,0.0
14021,35.0,0.0,180.0,7.0,0.0
14022,66.0,0.0,390.0,12.0,0.0
14023,63.0,0.0,390.0,12.0,0.0
14024,78.0,288.0,390.0,10.0,0.0
14025,47.0,192.0,180.0,6.0,0.0
14026,63.0,0.0,240.0,12.0,0.0
14027,40.0,0.0,180.0,7.0,0.0
14028,75.0,0.0,240.0,11.0,0.0
14029,52.0,48.0,180.0,6.0,0.0
14030,78.0,0.0,240.0,10.0,0.0
14031,66.0,192.0,240.0,12.0,0.0
14032,73.0,0.0,180.0,11.0,0.0
14033,64.0,0.0,180.0,12.0,0.0
14034,61.0,0.0,180.0,12.0,0.0
14035,76.0,240.0,180.0,10.0,0.0
14036,76.0,0.0,240.0,10.0,0.0
14037,64.0,0.0,240.0,12.0,0.0
14038,54.0,48.0,180.0,6.0,0.0
14039,42.0,0.0,180.0,7.0,0.0
14040,61.0,192.0,240.0,12.0,0.0
14041,73.0,0.0,240.0,11.0,0.0
14042,71.0,0.0,180.0,11.0,0.0
14043,75.0,240.0,180.0,10.0,0.0
14044,59.0,0.0,180.0,12.0,0.0
14045,63.0,0.0,180.0,12.0,0.0
14046,30.0,48.0,180.0,7.0,0.0
14047,75.0,0.0,240.0,10.0,0.0
14048,59.0,0.0,240.0,12.0,0.0
14049,42.0,0.0,180.0,6.0,0.0
14050,63.0,0.0,240.0,12.0,0.0
14051,71.0,192.0,240.0,11.0,0.0
14052,73.0,0.0,180.0,10.0,0.0
14053,61.0,0.0,180.0,12.0,0.0
14054,58.0,240.0,180.0,12.0,0.0
14055,70.0,0.0,180.0,11.0,0.0
14056,70.0,0.0,960.0,11.0,0.0
14057,73.0,0.0,720.0,10.0,0.0
14058,35.0,0.0,180.0,7.0,0.0
14059,58.0,0.0,960.0,12.0,0.0
14060,47.0,480.0,180.0,6.0,0.0
14061,61.0,240.0,720.0,12.0,0.0
14062,30.0,48.0,180.0,7.0,0.0
14063,42.0,0.0,180.0,6.0,0.0
14064,62.0,0.0,240.0,12.0,0.0
14065,74.0,192.0,240.0,10.0,0.0
14066,35.0,0.0,180.0,7.0,0.0
14067,75.0,624.0,240.0,10.0,0.0
14068,35.0,0.0,180.0,6.0,0.0
14069,63.0,0.0,180.0,12.0,0.0
14070,71.0,0.0,180.0,11.0,0.0
14071,59.0,48.0,180.0,12.0,0.0
14072,59.0,144.0,1440.0,3.0,0.0
14073,83.0,480.0,480.0,0.0,0.0
14074,71.0,0.0,480.0,10.0,0.0
14075,62.0,144.0,1140.0,12.0,0.0
14076,59.0,0.0,1440.0,1.0,0.0
14077,71.0,0.0,1440.0,1.0,0.0
14078,47.0,0.0,1440.0,3.0,0.0
14079,47.0,96.0,390.0,5.0,0.0
14080,35.0,0.0,1440.0,2.0,0.0
14081,47.0,0.0,1440.0,2.0,0.0
14082,32.0,0.0,1440.0,14.0,0.0
14083,59.0,0.0,1440.0,4.0,0.0
14084,71.0,0.0,1440.0,4.0,0.0
14085,59.0,0.0,480.0,11.0,0.0
14086,44.0,0.0,1440.0,13.0,0.0
14087,68.0,0.0,480.0,10.0,0.0
14088,80.0,0.0,480.0,0.0,0.0
14089,56.0,192.0,480.0,11.0,0.0
14090,65.0,0.0,390.0,10.0,0.0
14091,77.0,72.0,390.0,0.0,0.0
14092,53.0,0.0,390.0,11.0,0.0
14093,61.0,48.0,90.0,12.0,0.0
14094,59.0,24.0,90.0,12.0,0.0
14095,66.0,0.0,1380.0,4.0,0.0
14096,73.0,0.0,1380.0,1.0,0.0
14097,85.0,0.0,150.0,0.0,0.0
14098,61.0,240.0,150.0,11.0,0.0
14099,64.0,0.0,390.0,12.0,0.0
14100,46.0,0.0,1380.0,13.0,0.0
14101,73.0,0.0,150.0,10.0,0.0
14102,42.0,240.0,390.0,5.0,0.0
14103,66.0,0.0,1380.0,1.0,0.0
14104,42.0,216.0,1380.0,2.0,0.0
14105,61.0,0.0,1380.0,3.0,0.0
14106,54.0,0.0,1380.0,3.0,0.0
14107,34.0,0.0,1380.0,14.0,0.0
14108,49.0,0.0,1380.0,2.0,0.0
14109,54.0,0.0,1380.0,4.0,0.0
14110,71.0,0.0,150.0,10.0,0.0
14111,83.0,0.0,150.0,0.0,0.0
14112,59.0,0.0,150.0,11.0,0.0
14113,61.0,0.0,390.0,12.0,0.0
14114,82.0,0.0,150.0,0.0,0.0
14115,70.0,0.0,150.0,10.0,0.0
14116,58.0,240.0,150.0,11.0,0.0
14117,56.0,240.0,150.0,11.0,0.0
14118,80.0,0.0,150.0,0.0,0.0
14119,68.0,0.0,150.0,10.0,0.0
14120,54.0,0.0,150.0,11.0,0.0
14121,54.0,0.0,390.0,12.0,0.0
14122,66.0,0.0,150.0,10.0,0.0
14123,78.0,240.0,150.0,0.0,0.0
14124,76.0,0.0,150.0,0.0,0.0
14125,52.0,0.0,150.0,11.0,0.0
14126,64.0,24.0,150.0,10.0,0.0
14127,47.0,0.0,390.0,5.0,0.0
14128,59.0,0.0,390.0,3.0,0.0
14129,63.0,0.0,390.0,3.0,0.0
14130,75.0,144.0,480.0,1.0,0.0
14131,35.0,0.0,390.0,14.0,0.0
14132,59.0,0.0,390.0,4.0,0.0
14133,47.0,0.0,390.0,13.0,0.0
14134,47.0,0.0,480.0,2.0,0.0
14135,71.0,0.0,480.0,1.0,0.0
14136,51.0,0.0,480.0,2.0,0.0
14137,75.0,0.0,150.0,0.0,0.0
14138,66.0,0.0,390.0,4.0,0.0
14139,59.0,0.0,390.0,12.0,0.0
14140,51.0,0.0,150.0,11.0,0.0
14141,63.0,240.0,150.0,10.0,0.0
14142,71.0,0.0,150.0,10.0,0.0
14143,59.0,96.0,150.0,11.0,0.0
14144,83.0,0.0,150.0,0.0,0.0
14145,80.0,144.0,480.0,1.0,0.0
14146,52.0,0.0,480.0,2.0,0.0
14147,56.0,0.0,480.0,2.0,0.0
14148,71.0,0.0,150.0,10.0,0.0
14149,83.0,240.0,150.0,0.0,0.0
14150,59.0,0.0,150.0,11.0,0.0
14151,76.0,0.0,480.0,1.0,0.0
14152,83.0,0.0,150.0,0.0,0.0
14153,59.0,96.0,150.0,11.0,0.0
14154,71.0,0.0,150.0,10.0,0.0
14155,83.0,240.0,150.0,0.0,0.0
14156,75.0,0.0,390.0,1.0,0.0
14157,78.0,0.0,390.0,1.0,0.0
14158,71.0,0.0,150.0,10.0,0.0
14159,51.0,0.0,390.0,2.0,0.0
14160,54.0,336.0,390.0,2.0,0.0
14161,59.0,0.0,150.0,11.0,0.0
14162,63.0,0.0,390.0,3.0,0.0
14163,66.0,0.0,390.0,3.0,0.0
14164,59.0,0.0,150.0,11.0,0.0
14165,83.0,0.0,150.0,0.0,0.0
14166,71.0,0.0,150.0,10.0,0.0
14167,54.0,48.0,240.0,2.0,0.0
14168,52.0,0.0,300.0,10.0,0.0
14169,75.0,0.0,240.0,1.0,0.0
14170,52.0,0.0,300.0,11.0,0.0
14171,51.0,0.0,240.0,2.0,0.0
14172,78.0,0.0,240.0,1.0,0.0
14173,63.0,0.0,240.0,3.0,0.0
14174,52.0,0.0,390.0,12.0,0.0
14175,52.0,48.0,390.0,13.0,0.0
14176,40.0,0.0,390.0,14.0,0.0
14177,66.0,0.0,240.0,3.0,0.0
14178,64.0,96.0,300.0,0.0,0.0
14179,49.0,288.0,180.0,2.0,0.0
14180,73.0,0.0,180.0,1.0,0.0
14181,76.0,0.0,180.0,1.0,0.0
14182,61.0,0.0,180.0,3.0,0.0
14183,64.0,0.0,180.0,3.0,0.0
14184,52.0,0.0,180.0,2.0,0.0
14185,66.0,0.0,300.0,0.0,0.0
14186,54.0,0.0,390.0,12.0,0.0
14187,54.0,0.0,300.0,11.0,0.0
14188,64.0,0.0,240.0,3.0,0.0
14189,54.0,0.0,390.0,13.0,0.0
14190,42.0,48.0,390.0,5.0,0.0
14191,54.0,96.0,300.0,10.0,0.0
14192,61.0,0.0,240.0,3.0,0.0
14193,54.0,0.0,390.0,4.0,0.0
14194,52.0,0.0,240.0,2.0,0.0
14195,49.0,0.0,240.0,2.0,0.0
14196,66.0,0.0,390.0,4.0,0.0
14197,76.0,48.0,240.0,1.0,0.0
14198,73.0,0.0,240.0,1.0,0.0
14199,42.0,0.0,390.0,14.0,0.0
14200,59.0,0.0,180.0,3.0,0.0
14201,63.0,0.0,180.0,3.0,0.0
14202,71.0,288.0,180.0,1.0,0.0
14203,75.0,0.0,180.0,1.0,0.0
14204,47.0,0.0,180.0,2.0,0.0
14205,51.0,0.0,180.0,2.0,0.0
14206,71.0,0.0,240.0,1.0,0.0
14207,51.0,0.0,240.0,2.0,0.0
14208,47.0,48.0,240.0,2.0,0.0
14209,75.0,0.0,240.0,1.0,0.0
14210,54.0,96.0,300.0,10.0,0.0
14211,54.0,0.0,390.0,12.0,0.0
14212,42.0,0.0,390.0,13.0,0.0
14213,59.0,0.0,240.0,3.0,0.0
14214,42.0,48.0,390.0,5.0,0.0
14215,66.0,0.0,300.0,0.0,0.0
14216,54.0,0.0,300.0,11.0,0.0
14217,66.0,0.0,390.0,4.0,0.0
14218,54.0,0.0,390.0,4.0,0.0
14219,30.0,0.0,390.0,14.0,0.0
14220,63.0,0.0,240.0,3.0,0.0
14221,61.0,144.0,180.0,3.0,0.0
14222,54.0,0.0,180.0,3.0,0.0
14223,46.0,0.0,180.0,2.0,0.0
14224,49.0,0.0,180.0,2.0,0.0
14225,73.0,0.0,180.0,1.0,0.0
14226,70.0,0.0,180.0,1.0,0.0
14227,63.0,0.0,390.0,0.0,0.0
14228,59.0,72.0,390.0,4.0,0.0
14229,66.0,0.0,390.0,4.0,0.0
14230,47.0,0.0,390.0,2.0,0.0
14231,47.0,0.0,390.0,13.0,0.0
14232,35.0,0.0,390.0,14.0,0.0
14233,47.0,0.0,390.0,5.0,0.0
14234,59.0,120.0,90.0,10.0,0.0
14235,59.0,0.0,90.0,11.0,0.0
14236,54.0,0.0,390.0,12.0,0.0
14237,51.0,0.0,390.0,3.0,0.0
14238,71.0,0.0,390.0,1.0,0.0
14239,59.0,0.0,390.0,3.0,0.0
14240,59.0,120.0,90.0,10.0,0.0
14241,59.0,0.0,90.0,11.0,0.0
14242,75.0,0.0,90.0,10.0,0.0
14243,75.0,48.0,90.0,11.0,0.0
14244,75.0,0.0,90.0,11.0,0.0
14245,75.0,120.0,90.0,10.0,0.0
14246,71.0,120.0,90.0,11.0,0.0
14247,71.0,0.0,90.0,10.0,0.0
14248,71.0,120.0,90.0,10.0,0.0
14249,71.0,0.0,90.0,11.0,0.0
14250,66.0,0.0,90.0,11.0,0.0
14251,66.0,120.0,90.0,10.0,0.0
14252,66.0,0.0,90.0,11.0,0.0
14253,66.0,120.0,90.0,10.0,0.0
14254,63.0,0.0,90.0,11.0,0.0
14255,63.0,120.0,90.0,10.0,0.0
14256,63.0,0.0,90.0,10.0,0.0
14257,63.0,120.0,90.0,11.0,0.0
14258,59.0,120.0,90.0,11.0,0.0
14259,59.0,0.0,90.0,10.0,0.0
14260,59.0,0.0,90.0,10.0,0.0
14261,59.0,120.0,90.0,11.0,0.0
14262,51.0,0.0,240.0,13.0,0.0
14263,69.0,0.0,240.0,1.0,0.0
14264,66.0,0.0,240.0,1.0,0.0
14265,47.0,48.0,390.0,5.0,0.0
14266,71.0,0.0,390.0,4.0,0.0
14267,39.0,96.0,240.0,14.0,0.0
14268,59.0,0.0,390.0,4.0,0.0
14269,59.0,0.0,390.0,3.0,0.0
14270,47.0,0.0,390.0,3.0,0.0
14271,54.0,0.0,240.0,2.0,0.0
14272,57.0,0.0,240.0,2.0,0.0
14273,57.0,0.0,90.0,11.0,0.0
14274,54.0,0.0,240.0,12.0,0.0
14275,81.0,0.0,240.0,0.0,0.0
14276,57.0,120.0,90.0,10.0,0.0
14277,57.0,0.0,90.0,10.0,0.0
14278,57.0,24.0,90.0,11.0,0.0
14279,64.0,0.0,240.0,1.0,0.0
14280,56.0,0.0,90.0,10.0,0.0
14281,68.0,0.0,240.0,1.0,0.0
14282,80.0,96.0,240.0,0.0,0.0
14283,56.0,48.0,90.0,11.0,0.0
14284,52.0,24.0,180.0,13.0,0.0
14285,52.0,0.0,240.0,2.0,0.0
14286,52.0,0.0,180.0,12.0,0.0
14287,40.0,0.0,180.0,14.0,0.0
14288,56.0,0.0,240.0,2.0,0.0
14289,56.0,24.0,90.0,10.0,0.0
14290,56.0,0.0,90.0,11.0,0.0
14291,57.0,96.0,240.0,2.0,0.0
14292,59.0,0.0,390.0,4.0,0.0
14293,51.0,0.0,240.0,13.0,0.0
14294,66.0,0.0,240.0,1.0,0.0
14295,69.0,0.0,240.0,1.0,0.0
14296,39.0,0.0,240.0,14.0,0.0
14297,81.0,0.0,240.0,0.0,0.0
14298,71.0,0.0,390.0,4.0,0.0
14299,57.0,120.0,90.0,10.0,0.0
14300,54.0,0.0,240.0,2.0,0.0
14301,57.0,0.0,90.0,11.0,0.0
14302,47.0,0.0,390.0,3.0,0.0
14303,59.0,0.0,390.0,3.0,0.0
14304,54.0,0.0,240.0,12.0,0.0
14305,47.0,48.0,390.0,5.0,0.0
14306,57.0,24.0,90.0,11.0,0.0
14307,57.0,0.0,90.0,10.0,0.0
14308,40.0,0.0,180.0,14.0,0.0
14309,52.0,24.0,180.0,12.0,0.0
14310,56.0,48.0,90.0,11.0,0.0
14311,52.0,0.0,180.0,13.0,0.0
14312,56.0,0.0,90.0,10.0,0.0
14313,80.0,96.0,240.0,0.0,0.0
14314,68.0,0.0,240.0,1.0,0.0
14315,64.0,0.0,240.0,1.0,0.0
14316,56.0,0.0,240.0,2.0,0.0
14317,52.0,0.0,240.0,2.0,0.0
14318,56.0,0.0,90.0,11.0,0.0
14319,56.0,24.0,90.0,10.0,0.0
14320,54.0,96.0,240.0,2.0,0.0
14321,54.0,0.0,240.0,12.0,0.0
14322,57.0,120.0,90.0,10.0,0.0
14323,39.0,0.0,240.0,14.0,0.0
14324,66.0,0.0,240.0,1.0,0.0
14325,47.0,0.0,390.0,5.0,0.0
14326,81.0,0.0,240.0,0.0,0.0
14327,57.0,0.0,90.0,11.0,0.0
14328,59.0,48.0,390.0,4.0,0.0
14329,71.0,0.0,390.0,4.0,0.0
14330,69.0,0.0,240.0,1.0,0.0
14331,51.0,0.0,240.0,13.0,0.0
14332,47.0,0.0,390.0,3.0,0.0
14333,59.0,0.0,390.0,3.0,0.0
14334,57.0,0.0,240.0,2.0,0.0
14335,57.0,24.0,90.0,11.0,0.0
14336,57.0,0.0,90.0,10.0,0.0
14337,52.0,0.0,180.0,2.0,0.0
14338,40.0,0.0,180.0,14.0,0.0
14339,56.0,0.0,180.0,2.0,0.0
14340,56.0,48.0,90.0,11.0,0.0
14341,52.0,0.0,180.0,13.0,0.0
14342,68.0,0.0,180.0,1.0,0.0
14343,80.0,24.0,180.0,0.0,0.0
14344,64.0,0.0,180.0,1.0,0.0
14345,56.0,0.0,90.0,10.0,0.0
14346,52.0,0.0,180.0,12.0,0.0
14347,56.0,0.0,90.0,11.0,0.0
14348,56.0,120.0,90.0,10.0,0.0
14349,73.0,0.0,390.0,1.0,0.0
14350,34.0,0.0,390.0,14.0,0.0
14351,64.0,0.0,390.0,1.0,0.0
14352,61.0,0.0,390.0,2.0,0.0
14353,64.0,120.0,90.0,11.0,0.0
14354,46.0,0.0,390.0,13.0,0.0
14355,66.0,0.0,390.0,4.0,0.0
14356,49.0,0.0,390.0,12.0,0.0
14357,64.0,0.0,90.0,10.0,0.0
14358,54.0,0.0,390.0,4.0,0.0
14359,42.0,0.0,390.0,5.0,0.0
14360,52.0,0.0,390.0,2.0,0.0
14361,54.0,72.0,390.0,3.0,0.0
14362,42.0,0.0,390.0,3.0,0.0
14363,85.0,0.0,390.0,0.0,0.0
14364,64.0,120.0,90.0,10.0,0.0
14365,64.0,0.0,90.0,11.0,0.0
14366,76.0,0.0,90.0,11.0,0.0
14367,76.0,48.0,90.0,10.0,0.0
14368,76.0,0.0,90.0,11.0,0.0
14369,76.0,120.0,90.0,10.0,0.0
14370,73.0,0.0,90.0,11.0,0.0
14371,73.0,120.0,90.0,10.0,0.0
14372,73.0,120.0,90.0,10.0,0.0
14373,73.0,0.0,90.0,11.0,0.0
14374,70.0,0.0,90.0,11.0,0.0
14375,70.0,120.0,90.0,10.0,0.0
14376,70.0,0.0,90.0,11.0,0.0
14377,70.0,120.0,90.0,10.0,0.0
14378,64.0,0.0,90.0,11.0,0.0
14379,64.0,120.0,90.0,10.0,0.0
14380,64.0,120.0,90.0,10.0,0.0
14381,64.0,0.0,90.0,11.0,0.0
14382,61.0,120.0,90.0,10.0,0.0
14383,61.0,0.0,90.0,11.0,0.0
14384,61.0,0.0,90.0,11.0,0.0
14385,61.0,120.0,90.0,10.0,0.0
14386,54.0,0.0,390.0,3.0,0.0
14387,42.0,0.0,390.0,3.0,0.0
14388,40.0,0.0,240.0,14.0,0.0
14389,42.0,48.0,390.0,5.0,0.0
14390,58.0,120.0,90.0,10.0,0.0
14391,49.0,0.0,240.0,12.0,0.0
14392,82.0,96.0,240.0,0.0,0.0
14393,61.0,0.0,240.0,1.0,0.0
14394,54.0,0.0,390.0,4.0,0.0
14395,70.0,0.0,240.0,1.0,0.0
14396,49.0,0.0,240.0,2.0,0.0
14397,58.0,0.0,90.0,11.0,0.0
14398,58.0,0.0,240.0,2.0,0.0
14399,66.0,0.0,390.0,4.0,0.0
14400,52.0,0.0,240.0,13.0,0.0
14401,58.0,0.0,90.0,11.0,0.0
14402,58.0,24.0,90.0,10.0,0.0
14403,63.0,0.0,240.0,1.0,0.0
14404,51.0,0.0,180.0,12.0,0.0
14405,51.0,0.0,240.0,2.0,0.0
14406,59.0,0.0,240.0,2.0,0.0
14407,39.0,24.0,180.0,14.0,0.0
14408,51.0,0.0,180.0,13.0,0.0
14409,59.0,0.0,90.0,11.0,0.0
14410,71.0,0.0,240.0,1.0,0.0
14411,59.0,48.0,90.0,10.0,0.0
14412,83.0,96.0,240.0,0.0,0.0
14413,59.0,24.0,90.0,11.0,0.0
14414,59.0,0.0,90.0,10.0,0.0
14415,66.0,0.0,390.0,4.0,0.0
14416,70.0,0.0,240.0,1.0,0.0
14417,61.0,0.0,240.0,1.0,0.0
14418,42.0,0.0,390.0,3.0,0.0
14419,54.0,0.0,390.0,3.0,0.0
14420,40.0,0.0,240.0,14.0,0.0
14421,54.0,0.0,390.0,4.0,0.0
14422,82.0,0.0,240.0,0.0,0.0
14423,58.0,0.0,90.0,11.0,0.0
14424,58.0,0.0,240.0,2.0,0.0
14425,49.0,96.0,240.0,2.0,0.0
14426,52.0,0.0,240.0,13.0,0.0
14427,58.0,120.0,90.0,10.0,0.0
14428,49.0,0.0,240.0,12.0,0.0
14429,42.0,48.0,390.0,5.0,0.0
14430,58.0,0.0,90.0,11.0,0.0
14431,58.0,24.0,90.0,10.0,0.0
14432,71.0,96.0,240.0,1.0,0.0
14433,63.0,0.0,240.0,1.0,0.0
14434,59.0,0.0,90.0,11.0,0.0
14435,59.0,0.0,240.0,2.0,0.0
14436,51.0,0.0,180.0,12.0,0.0
14437,51.0,0.0,240.0,2.0,0.0
14438,59.0,48.0,90.0,10.0,0.0
14439,51.0,24.0,180.0,13.0,0.0
14440,83.0,0.0,240.0,0.0,0.0
14441,39.0,0.0,180.0,14.0,0.0
14442,59.0,24.0,90.0,11.0,0.0
14443,59.0,0.0,90.0,10.0,0.0
14444,58.0,0.0,90.0,10.0,0.0
14445,58.0,0.0,240.0,2.0,0.0
14446,49.0,96.0,240.0,2.0,0.0
14447,82.0,0.0,240.0,0.0,0.0
14448,61.0,0.0,240.0,1.0,0.0
14449,70.0,0.0,240.0,1.0,0.0
14450,49.0,0.0,240.0,12.0,0.0
14451,66.0,0.0,390.0,4.0,0.0
14452,52.0,0.0,240.0,13.0,0.0
14453,54.0,0.0,390.0,4.0,0.0
14454,42.0,0.0,390.0,3.0,0.0
14455,54.0,0.0,390.0,3.0,0.0
14456,40.0,0.0,240.0,14.0,0.0
14457,42.0,48.0,390.0,5.0,0.0
14458,58.0,120.0,90.0,11.0,0.0
14459,58.0,24.0,90.0,10.0,0.0
14460,58.0,0.0,90.0,11.0,0.0
14461,83.0,0.0,180.0,0.0,0.0
14462,39.0,24.0,180.0,14.0,0.0
14463,59.0,48.0,90.0,11.0,0.0
14464,71.0,0.0,180.0,1.0,0.0
14465,59.0,0.0,90.0,10.0,0.0
14466,63.0,0.0,180.0,1.0,0.0
14467,51.0,0.0,180.0,13.0,0.0
14468,51.0,0.0,180.0,12.0,0.0
14469,59.0,0.0,180.0,2.0,0.0
14470,51.0,0.0,180.0,2.0,0.0
14471,59.0,0.0,90.0,11.0,0.0
14472,59.0,120.0,90.0,10.0,0.0
14473,61.0,0.0,90.0,11.0,0.0
14474,61.0,0.0,150.0,1.0,0.0
14475,56.0,0.0,180.0,12.0,0.0
14476,52.0,0.0,150.0,2.0,0.0
14477,40.0,24.0,180.0,14.0,0.0
14478,61.0,60.0,90.0,10.0,0.0
14479,56.0,0.0,150.0,2.0,0.0
14480,56.0,36.0,150.0,1.0,0.0
14481,52.0,0.0,180.0,13.0,0.0
14482,73.0,0.0,150.0,0.0,0.0
14483,61.0,0.0,90.0,11.0,0.0
14484,61.0,120.0,90.0,10.0,0.0
14485,42.0,0.0,180.0,14.0,0.0
14486,63.0,0.0,90.0,11.0,0.0
14487,63.0,60.0,90.0,10.0,0.0
14488,58.0,24.0,180.0,12.0,0.0
14489,63.0,0.0,150.0,1.0,0.0
14490,58.0,0.0,150.0,1.0,0.0
14491,54.0,0.0,150.0,2.0,0.0
14492,75.0,36.0,150.0,0.0,0.0
14493,54.0,0.0,180.0,13.0,0.0
14494,58.0,0.0,150.0,2.0,0.0
14495,63.0,0.0,90.0,11.0,0.0
14496,63.0,120.0,90.0,10.0,0.0
14497,59.0,0.0,150.0,1.0,0.0
14498,76.0,0.0,150.0,0.0,0.0
14499,59.0,0.0,150.0,2.0,0.0
14500,64.0,0.0,90.0,11.0,0.0
14501,64.0,0.0,150.0,1.0,0.0
14502,59.0,0.0,180.0,12.0,0.0
14503,44.0,24.0,180.0,14.0,0.0
14504,64.0,60.0,90.0,10.0,0.0
14505,56.0,36.0,150.0,2.0,0.0
14506,56.0,0.0,180.0,13.0,0.0
14507,64.0,120.0,90.0,11.0,0.0
14508,64.0,0.0,90.0,10.0,0.0
14509,61.0,0.0,150.0,1.0,0.0
14510,61.0,0.0,180.0,12.0,0.0
14511,58.0,0.0,180.0,13.0,0.0
14512,58.0,0.0,150.0,2.0,0.0
14513,46.0,24.0,180.0,14.0,0.0
14514,66.0,0.0,90.0,10.0,0.0
14515,66.0,0.0,150.0,1.0,0.0
14516,78.0,36.0,150.0,0.0,0.0
14517,61.0,0.0,150.0,2.0,0.0
14518,66.0,60.0,90.0,11.0,0.0
14519,66.0,120.0,90.0,11.0,0.0
14520,66.0,0.0,90.0,10.0,0.0
14521,63.0,0.0,150.0,2.0,0.0
14522,68.0,0.0,90.0,10.0,0.0
14523,47.0,0.0,180.0,14.0,0.0
14524,68.0,0.0,150.0,1.0,0.0
14525,68.0,60.0,90.0,11.0,0.0
14526,63.0,0.0,150.0,1.0,0.0
14527,59.0,0.0,150.0,2.0,0.0
14528,63.0,0.0,180.0,12.0,0.0
14529,59.0,24.0,180.0,13.0,0.0
14530,80.0,36.0,150.0,0.0,0.0
14531,68.0,0.0,90.0,11.0,0.0
14532,68.0,120.0,90.0,10.0,0.0
14533,82.0,36.0,150.0,0.0,0.0
14534,64.0,0.0,180.0,12.0,0.0
14535,61.0,24.0,180.0,13.0,0.0
14536,64.0,0.0,150.0,1.0,0.0
14537,61.0,0.0,150.0,2.0,0.0
14538,70.0,60.0,90.0,10.0,0.0
14539,49.0,0.0,180.0,14.0,0.0
14540,70.0,0.0,90.0,11.0,0.0
14541,64.0,0.0,150.0,2.0,0.0
14542,70.0,0.0,150.0,1.0,0.0
14543,70.0,0.0,90.0,11.0,0.0
14544,70.0,120.0,90.0,10.0,0.0
14545,66.0,24.0,180.0,12.0,0.0
14546,71.0,0.0,90.0,11.0,0.0
14547,66.0,0.0,570.0,4.0,0.0
14548,83.0,0.0,390.0,0.0,0.0
14549,71.0,36.0,150.0,1.0,0.0
14550,66.0,36.0,630.0,1.0,0.0
14551,63.0,0.0,180.0,13.0,0.0
14552,42.0,12.0,390.0,5.0,0.0
14553,71.0,60.0,90.0,10.0,0.0
14554,51.0,0.0,180.0,14.0,0.0
14555,63.0,0.0,150.0,2.0,0.0
14556,54.0,0.0,570.0,3.0,0.0
14557,71.0,0.0,90.0,11.0,0.0
14558,71.0,120.0,90.0,10.0,0.0
14559,58.0,24.0,180.0,13.0,0.0
14560,58.0,0.0,150.0,2.0,0.0
14561,73.0,36.0,150.0,1.0,0.0
14562,66.0,12.0,390.0,12.0,0.0
14563,73.0,0.0,90.0,10.0,0.0
14564,46.0,0.0,180.0,14.0,0.0
14565,73.0,48.0,90.0,11.0,0.0
14566,73.0,0.0,90.0,11.0,0.0
14567,73.0,120.0,90.0,10.0,0.0
14568,59.0,24.0,180.0,13.0,0.0
14569,59.0,0.0,150.0,2.0,0.0
14570,47.0,0.0,180.0,14.0,0.0
14571,75.0,0.0,90.0,10.0,0.0
14572,75.0,48.0,90.0,11.0,0.0
14573,47.0,12.0,390.0,5.0,0.0
14574,75.0,0.0,150.0,1.0,0.0
14575,75.0,0.0,90.0,10.0,0.0
14576,75.0,120.0,90.0,11.0,0.0
14577,76.0,36.0,150.0,1.0,0.0
14578,59.0,0.0,150.0,4.0,0.0
14579,71.0,0.0,150.0,4.0,0.0
14580,44.0,24.0,180.0,14.0,0.0
14581,59.0,0.0,150.0,3.0,0.0
14582,47.0,0.0,150.0,3.0,0.0
14583,56.0,0.0,180.0,13.0,0.0
14584,71.0,0.0,150.0,1.0,0.0
14585,56.0,0.0,150.0,2.0,0.0
14586,76.0,0.0,90.0,11.0,0.0
14587,76.0,48.0,90.0,10.0,0.0
14588,59.0,12.0,390.0,12.0,0.0
14589,76.0,120.0,90.0,11.0,0.0
14590,76.0,0.0,90.0,10.0,0.0
14591,78.0,0.0,150.0,1.0,0.0
14592,42.0,0.0,180.0,14.0,0.0
14593,78.0,0.0,90.0,10.0,0.0
14594,59.0,36.0,150.0,4.0,0.0
14595,71.0,0.0,150.0,1.0,0.0
14596,59.0,0.0,150.0,3.0,0.0
14597,54.0,24.0,180.0,13.0,0.0
14598,71.0,0.0,150.0,4.0,0.0
14599,78.0,48.0,90.0,11.0,0.0
14600,47.0,12.0,390.0,5.0,0.0
14601,54.0,0.0,150.0,2.0,0.0
14602,47.0,0.0,150.0,3.0,0.0
14603,78.0,0.0,90.0,10.0,0.0
14604,78.0,120.0,90.0,11.0,0.0
14605,52.0,0.0,180.0,13.0,0.0
14606,59.0,0.0,150.0,3.0,0.0
14607,47.0,0.0,150.0,3.0,0.0
14608,71.0,0.0,150.0,1.0,0.0
14609,80.0,0.0,150.0,1.0,0.0
14610,59.0,0.0,150.0,4.0,0.0
14611,59.0,0.0,180.0,12.0,0.0
14612,52.0,0.0,150.0,2.0,0.0
14613,40.0,24.0,180.0,14.0,0.0
14614,80.0,48.0,90.0,11.0,0.0
14615,80.0,0.0,90.0,10.0,0.0
14616,71.0,36.0,150.0,4.0,0.0
14617,80.0,216.0,90.0,11.0,0.0
14618,80.0,0.0,90.0,10.0,0.0
14619,72.0,0.0,1140.0,1.0,0.0
14620,42.0,48.0,390.0,5.0,0.0
14621,57.0,0.0,1140.0,2.0,0.0
14622,60.0,0.0,1140.0,2.0,0.0
14623,81.0,0.0,780.0,10.0,0.0
14624,54.0,144.0,780.0,3.0,0.0
14625,39.0,192.0,180.0,14.0,0.0
14626,60.0,0.0,180.0,12.0,0.0
14627,81.0,0.0,1140.0,0.0,0.0
14628,78.0,192.0,1140.0,1.0,0.0
14629,51.0,0.0,180.0,13.0,0.0
14630,66.0,0.0,780.0,4.0,0.0
14631,81.0,0.0,780.0,11.0,0.0
14632,63.0,0.0,780.0,3.0,0.0
14633,75.0,0.0,780.0,4.0,0.0
14634,51.0,0.0,180.0,13.0,0.0
14635,60.0,0.0,180.0,12.0,0.0
14636,39.0,240.0,180.0,14.0,0.0
14637,39.0,96.0,180.0,14.0,0.0
14638,60.0,0.0,180.0,12.0,0.0
14639,51.0,0.0,180.0,13.0,0.0
14640,51.0,0.0,180.0,13.0,0.0
14641,39.0,240.0,180.0,14.0,0.0
14642,60.0,0.0,180.0,12.0,0.0
14643,54.0,0.0,390.0,3.0,0.0
14644,81.0,0.0,390.0,10.0,0.0
14645,39.0,0.0,180.0,14.0,0.0
14646,81.0,48.0,390.0,11.0,0.0
14647,75.0,0.0,390.0,4.0,0.0
14648,51.0,0.0,180.0,13.0,0.0
14649,60.0,0.0,180.0,12.0,0.0
14650,66.0,0.0,390.0,4.0,0.0
14651,63.0,0.0,390.0,3.0,0.0
14652,60.0,168.0,180.0,12.0,0.0
14653,39.0,0.0,180.0,14.0,0.0
14654,51.0,0.0,180.0,13.0,0.0
14655,61.0,96.0,300.0,3.0,0.0
14656,80.0,0.0,2580.0,0.0,0.0
14657,40.0,120.0,180.0,14.0,0.0
14658,52.0,0.0,180.0,13.0,0.0
14659,76.0,0.0,1140.0,1.0,0.0
14660,73.0,0.0,300.0,4.0,0.0
14661,73.0,0.0,1140.0,1.0,0.0
14662,61.0,0.0,1140.0,2.0,0.0
14663,79.0,0.0,120.0,11.0,0.0
14664,56.0,0.0,2580.0,2.0,0.0
14665,79.0,72.0,120.0,10.0,0.0
14666,61.0,0.0,180.0,12.0,0.0
14667,80.0,24.0,300.0,11.0,0.0
14668,80.0,0.0,300.0,10.0,0.0
14669,52.0,0.0,180.0,13.0,0.0
14670,61.0,240.0,180.0,12.0,0.0
14671,40.0,0.0,180.0,14.0,0.0
14672,61.0,0.0,180.0,12.0,0.0
14673,80.0,48.0,390.0,11.0,0.0
14674,80.0,0.0,390.0,10.0,0.0
14675,61.0,72.0,300.0,3.0,0.0
14676,40.0,0.0,180.0,14.0,0.0
14677,52.0,120.0,180.0,13.0,0.0
14678,73.0,0.0,300.0,4.0,0.0
14679,40.0,0.0,180.0,14.0,0.0
14680,52.0,0.0,180.0,13.0,0.0
14681,61.0,240.0,180.0,12.0,0.0
14682,40.0,240.0,180.0,14.0,0.0
14683,52.0,0.0,180.0,13.0,0.0
14684,61.0,0.0,180.0,12.0,0.0
14685,61.0,240.0,180.0,12.0,0.0
14686,52.0,0.0,180.0,13.0,0.0
14687,40.0,0.0,180.0,14.0,0.0
14688,47.0,48.0,390.0,5.0,0.0
14689,74.0,0.0,1140.0,1.0,0.0
14690,68.0,0.0,1140.0,1.0,0.0
14691,62.0,0.0,1140.0,2.0,0.0
14692,62.0,192.0,180.0,12.0,0.0
14693,47.0,0.0,780.0,3.0,0.0
14694,53.0,0.0,180.0,13.0,0.0
14695,80.0,0.0,660.0,10.0,0.0
14696,59.0,0.0,780.0,4.0,0.0
14697,71.0,0.0,780.0,4.0,0.0
14698,80.0,96.0,660.0,11.0,0.0
14699,59.0,144.0,780.0,3.0,0.0
14700,41.0,0.0,180.0,14.0,0.0
14701,62.0,0.0,180.0,12.0,0.0
14702,41.0,0.0,180.0,14.0,0.0
14703,53.0,240.0,180.0,13.0,0.0
14704,53.0,0.0,180.0,13.0,0.0
14705,41.0,0.0,180.0,14.0,0.0
14706,62.0,0.0,180.0,12.0,0.0
14707,41.0,0.0,180.0,14.0,0.0
14708,62.0,0.0,180.0,12.0,0.0
14709,53.0,24.0,180.0,13.0,0.0
14710,80.0,0.0,90.0,11.0,0.0
14711,80.0,84.0,90.0,10.0,0.0
14712,53.0,0.0,180.0,13.0,0.0
14713,82.0,60.0,60.0,10.0,0.0
14714,47.0,0.0,390.0,3.0,0.0
14715,71.0,36.0,390.0,4.0,0.0
14716,62.0,48.0,180.0,12.0,0.0
14717,59.0,0.0,390.0,4.0,0.0
14718,41.0,0.0,180.0,14.0,0.0
14719,59.0,0.0,390.0,3.0,0.0
14720,82.0,0.0,60.0,11.0,0.0
14721,80.0,0.0,60.0,10.0,0.0
14722,80.0,60.0,60.0,11.0,0.0
14723,82.0,12.0,60.0,10.0,0.0
14724,82.0,0.0,60.0,11.0,0.0
14725,80.0,0.0,60.0,11.0,0.0
14726,80.0,60.0,60.0,10.0,0.0
14727,41.0,0.0,180.0,14.0,0.0
14728,82.0,60.0,60.0,11.0,0.0
14729,53.0,36.0,180.0,13.0,0.0
14730,82.0,0.0,60.0,10.0,0.0
14731,62.0,0.0,180.0,12.0,0.0
14732,80.0,0.0,60.0,10.0,0.0
14733,80.0,24.0,60.0,11.0,0.0
14734,79.0,0.0,60.0,10.0,0.0
14735,79.0,12.0,60.0,11.0,0.0
14736,80.0,204.0,60.0,11.0,0.0
14737,80.0,0.0,60.0,10.0,0.0
14738,42.0,0.0,180.0,14.0,0.0
14739,42.0,48.0,390.0,5.0,0.0
14740,71.0,0.0,1140.0,1.0,0.0
14741,75.0,0.0,1140.0,1.0,0.0
14742,66.0,0.0,780.0,4.0,0.0
14743,54.0,0.0,780.0,4.0,0.0
14744,83.0,0.0,660.0,11.0,0.0
14745,63.0,0.0,180.0,12.0,0.0
14746,78.0,0.0,1140.0,0.0,0.0
14747,83.0,0.0,660.0,10.0,0.0
14748,59.0,0.0,1140.0,2.0,0.0
14749,63.0,48.0,1140.0,2.0,0.0
14750,54.0,144.0,780.0,3.0,0.0
14751,42.0,0.0,780.0,3.0,0.0
14752,54.0,192.0,180.0,13.0,0.0
14753,54.0,0.0,180.0,13.0,0.0
14754,63.0,240.0,180.0,12.0,0.0
14755,42.0,0.0,180.0,14.0,0.0
14756,63.0,96.0,180.0,12.0,0.0
14757,54.0,0.0,180.0,13.0,0.0
14758,42.0,0.0,180.0,14.0,0.0
14759,63.0,24.0,180.0,12.0,0.0
14760,42.0,0.0,180.0,14.0,0.0
14761,54.0,0.0,180.0,13.0,0.0
14762,75.0,84.0,90.0,10.0,0.0
14763,75.0,0.0,90.0,11.0,0.0
14764,76.0,60.0,60.0,10.0,0.0
14765,42.0,0.0,390.0,3.0,0.0
14766,42.0,0.0,180.0,14.0,0.0
14767,59.0,0.0,180.0,12.0,0.0
14768,42.0,12.0,300.0,5.0,0.0
14769,54.0,0.0,390.0,4.0,0.0
14770,76.0,0.0,60.0,11.0,0.0
14771,66.0,0.0,390.0,4.0,0.0
14772,54.0,0.0,180.0,13.0,0.0
14773,54.0,36.0,390.0,3.0,0.0
14774,75.0,0.0,60.0,11.0,0.0
14775,75.0,60.0,60.0,10.0,0.0
14776,76.0,12.0,60.0,11.0,0.0
14777,76.0,0.0,60.0,10.0,0.0
14778,75.0,0.0,60.0,10.0,0.0
14779,75.0,48.0,60.0,11.0,0.0
14780,42.0,0.0,180.0,14.0,0.0
14781,76.0,60.0,60.0,10.0,0.0
14782,59.0,24.0,180.0,12.0,0.0
14783,54.0,0.0,180.0,13.0,0.0
14784,76.0,0.0,60.0,11.0,0.0
14785,75.0,24.0,60.0,11.0,0.0
14786,75.0,0.0,60.0,10.0,0.0
14787,42.0,12.0,90.0,5.0,0.0
14788,73.0,0.0,60.0,10.0,0.0
14789,73.0,12.0,60.0,11.0,0.0
14790,75.0,0.0,60.0,10.0,0.0
14791,75.0,204.0,60.0,11.0,0.0
14792,76.0,0.0,270.0,10.0,0.0
14793,76.0,0.0,1140.0,1.0,0.0
14794,73.0,0.0,1140.0,1.0,0.0
14795,42.0,48.0,390.0,5.0,0.0
14796,61.0,0.0,1140.0,2.0,0.0
14797,54.0,0.0,390.0,4.0,0.0
14798,66.0,0.0,390.0,4.0,0.0
14799,58.0,0.0,1140.0,2.0,0.0
14800,82.0,72.0,1140.0,0.0,0.0
14801,42.0,0.0,180.0,14.0,0.0
14802,76.0,120.0,270.0,11.0,0.0
14803,58.0,0.0,180.0,12.0,0.0
14804,54.0,72.0,180.0,13.0,0.0
14805,54.0,0.0,390.0,3.0,0.0
14806,42.0,0.0,390.0,3.0,0.0
14807,42.0,0.0,180.0,14.0,0.0
14808,54.0,240.0,180.0,13.0,0.0
14809,58.0,0.0,180.0,12.0,0.0
14810,42.0,0.0,180.0,14.0,0.0
14811,61.0,0.0,180.0,12.0,0.0
14812,54.0,72.0,180.0,13.0,0.0
14813,42.0,48.0,390.0,3.0,0.0
14814,42.0,0.0,390.0,5.0,0.0
14815,54.0,0.0,390.0,4.0,0.0
14816,66.0,0.0,390.0,4.0,0.0
14817,73.0,0.0,270.0,10.0,0.0
14818,54.0,0.0,390.0,3.0,0.0
14819,73.0,120.0,270.0,11.0,0.0
14820,61.0,240.0,180.0,12.0,0.0
14821,42.0,0.0,180.0,14.0,0.0
14822,54.0,0.0,180.0,13.0,0.0
14823,42.0,0.0,180.0,14.0,0.0
14824,54.0,0.0,180.0,13.0,0.0
14825,54.0,0.0,390.0,3.0,0.0
14826,54.0,0.0,390.0,4.0,0.0
14827,42.0,48.0,390.0,5.0,0.0
14828,42.0,0.0,390.0,3.0,0.0
14829,70.0,0.0,270.0,10.0,0.0
14830,64.0,0.0,180.0,12.0,0.0
14831,66.0,0.0,390.0,4.0,0.0
14832,70.0,120.0,270.0,11.0,0.0
14833,42.0,0.0,180.0,14.0,0.0
14834,54.0,240.0,180.0,13.0,0.0
14835,64.0,0.0,180.0,12.0,0.0
14836,54.0,0.0,780.0,3.0,0.0
14837,60.0,0.0,1140.0,2.0,0.0
14838,63.0,0.0,780.0,3.0,0.0
14839,63.0,0.0,180.0,12.0,0.0
14840,84.0,0.0,1140.0,0.0,0.0
14841,42.0,0.0,180.0,14.0,0.0
14842,63.0,0.0,390.0,11.0,0.0
14843,81.0,48.0,870.0,11.0,0.0
14844,72.0,0.0,390.0,11.0,0.0
14845,54.0,192.0,180.0,13.0,0.0
14846,81.0,0.0,1140.0,1.0,0.0
14847,72.0,0.0,390.0,10.0,0.0
14848,81.0,0.0,870.0,10.0,0.0
14849,63.0,0.0,390.0,10.0,0.0
14850,75.0,0.0,1140.0,1.0,0.0
14851,66.0,96.0,780.0,4.0,0.0
14852,57.0,0.0,1140.0,2.0,0.0
14853,42.0,48.0,390.0,5.0,0.0
14854,75.0,0.0,780.0,4.0,0.0
14855,42.0,0.0,180.0,14.0,0.0
14856,60.0,240.0,180.0,12.0,0.0
14857,54.0,0.0,180.0,13.0,0.0
14858,42.0,0.0,180.0,14.0,0.0
14859,60.0,96.0,180.0,12.0,0.0
14860,54.0,0.0,180.0,13.0,0.0
14861,60.0,0.0,180.0,12.0,0.0
14862,54.0,240.0,180.0,13.0,0.0
14863,42.0,0.0,180.0,14.0,0.0
14864,42.0,0.0,180.0,14.0,0.0
14865,60.0,0.0,180.0,12.0,0.0
14866,81.0,0.0,390.0,10.0,0.0
14867,66.0,48.0,390.0,4.0,0.0
14868,54.0,192.0,180.0,13.0,0.0
14869,81.0,0.0,390.0,11.0,0.0
14870,75.0,0.0,390.0,4.0,0.0
14871,54.0,0.0,390.0,3.0,0.0
14872,63.0,0.0,390.0,3.0,0.0
14873,42.0,0.0,180.0,14.0,0.0
14874,54.0,168.0,180.0,13.0,0.0
14875,60.0,0.0,180.0,12.0,0.0
14876,56.0,0.0,2580.0,2.0,0.0
14877,61.0,0.0,1140.0,2.0,0.0
14878,61.0,0.0,180.0,12.0,0.0
14879,80.0,0.0,2580.0,1.0,0.0
14880,85.0,0.0,1140.0,0.0,0.0
14881,79.0,0.0,120.0,11.0,0.0
14882,52.0,0.0,180.0,13.0,0.0
14883,79.0,72.0,120.0,10.0,0.0
14884,76.0,0.0,1140.0,1.0,0.0
14885,73.0,0.0,390.0,4.0,0.0
14886,61.0,24.0,390.0,3.0,0.0
14887,40.0,192.0,180.0,14.0,0.0
14888,80.0,0.0,300.0,10.0,0.0
14889,80.0,24.0,300.0,11.0,0.0
14890,52.0,0.0,180.0,13.0,0.0
14891,40.0,0.0,180.0,14.0,0.0
14892,61.0,240.0,180.0,12.0,0.0
14893,73.0,0.0,390.0,4.0,0.0
14894,61.0,0.0,390.0,3.0,0.0
14895,52.0,0.0,180.0,13.0,0.0
14896,40.0,192.0,180.0,14.0,0.0
14897,80.0,0.0,390.0,11.0,0.0
14898,80.0,48.0,390.0,10.0,0.0
14899,61.0,0.0,180.0,12.0,0.0
14900,52.0,240.0,180.0,13.0,0.0
14901,61.0,0.0,180.0,12.0,0.0
14902,40.0,0.0,180.0,14.0,0.0
14903,61.0,0.0,180.0,12.0,0.0
14904,52.0,0.0,180.0,13.0,0.0
14905,40.0,240.0,180.0,14.0,0.0
14906,61.0,0.0,180.0,12.0,0.0
14907,40.0,240.0,180.0,14.0,0.0
14908,52.0,0.0,180.0,13.0,0.0
14909,47.0,48.0,390.0,5.0,0.0
14910,53.0,192.0,180.0,13.0,0.0
14911,62.0,0.0,1140.0,2.0,0.0
14912,41.0,0.0,180.0,14.0,0.0
14913,80.0,96.0,660.0,10.0,0.0
14914,71.0,144.0,780.0,4.0,0.0
14915,59.0,0.0,780.0,4.0,0.0
14916,86.0,0.0,1140.0,0.0,0.0
14917,80.0,0.0,660.0,11.0,0.0
14918,47.0,0.0,780.0,3.0,0.0
14919,62.0,0.0,180.0,12.0,0.0
14920,68.0,0.0,1140.0,1.0,0.0
14921,59.0,0.0,780.0,3.0,0.0
14922,41.0,240.0,180.0,14.0,0.0
14923,62.0,0.0,180.0,12.0,0.0
14924,53.0,0.0,180.0,13.0,0.0
14925,53.0,0.0,180.0,13.0,0.0
14926,62.0,0.0,180.0,12.0,0.0
14927,41.0,0.0,180.0,14.0,0.0
14928,53.0,24.0,180.0,13.0,0.0
14929,62.0,0.0,180.0,12.0,0.0
14930,41.0,0.0,180.0,14.0,0.0
14931,80.0,84.0,90.0,10.0,0.0
14932,80.0,0.0,90.0,11.0,0.0
14933,82.0,0.0,60.0,10.0,0.0
14934,41.0,48.0,180.0,14.0,0.0
14935,59.0,36.0,390.0,3.0,0.0
14936,82.0,60.0,60.0,11.0,0.0
14937,47.0,0.0,390.0,3.0,0.0
14938,53.0,0.0,180.0,13.0,0.0
14939,71.0,0.0,390.0,4.0,0.0
14940,47.0,12.0,300.0,5.0,0.0
14941,59.0,0.0,390.0,4.0,0.0
14942,62.0,0.0,180.0,12.0,0.0
14943,80.0,60.0,60.0,11.0,0.0
14944,80.0,0.0,60.0,10.0,0.0
14945,82.0,12.0,60.0,11.0,0.0
14946,82.0,0.0,60.0,10.0,0.0
14947,80.0,48.0,60.0,11.0,0.0
14948,80.0,0.0,60.0,10.0,0.0
14949,82.0,0.0,60.0,10.0,0.0
14950,62.0,0.0,180.0,12.0,0.0
14951,41.0,24.0,180.0,14.0,0.0
14952,82.0,60.0,60.0,11.0,0.0
14953,53.0,0.0,180.0,13.0,0.0
14954,80.0,24.0,60.0,10.0,0.0
14955,80.0,0.0,60.0,11.0,0.0
14956,79.0,0.0,60.0,11.0,0.0
14957,79.0,12.0,60.0,10.0,0.0
14958,47.0,12.0,90.0,5.0,0.0
14959,80.0,204.0,60.0,10.0,0.0
14960,80.0,0.0,60.0,11.0,0.0
14961,83.0,0.0,660.0,11.0,0.0
14962,66.0,0.0,780.0,4.0,0.0
14963,54.0,0.0,780.0,4.0,0.0
14964,63.0,0.0,180.0,12.0,0.0
14965,42.0,192.0,180.0,14.0,0.0
14966,59.0,0.0,1140.0,2.0,0.0
14967,42.0,48.0,390.0,5.0,0.0
14968,63.0,0.0,1140.0,2.0,0.0
14969,42.0,144.0,780.0,3.0,0.0
14970,54.0,0.0,780.0,3.0,0.0
14971,54.0,0.0,180.0,13.0,0.0
14972,78.0,0.0,1140.0,1.0,0.0
14973,71.0,0.0,1140.0,1.0,0.0
14974,83.0,96.0,660.0,10.0,0.0
14975,87.0,0.0,1140.0,0.0,0.0
14976,63.0,240.0,180.0,12.0,0.0
14977,54.0,0.0,180.0,13.0,0.0
14978,42.0,0.0,180.0,14.0,0.0
14979,54.0,0.0,180.0,13.0,0.0
14980,42.0,0.0,180.0,14.0,0.0
14981,63.0,0.0,180.0,12.0,0.0
14982,54.0,0.0,180.0,13.0,0.0
14983,42.0,0.0,180.0,14.0,0.0
14984,63.0,24.0,180.0,12.0,0.0
14985,75.0,84.0,90.0,11.0,0.0
14986,75.0,0.0,90.0,10.0,0.0
14987,42.0,12.0,300.0,5.0,0.0
14988,59.0,0.0,180.0,12.0,0.0
14989,54.0,0.0,180.0,13.0,0.0
14990,66.0,0.0,390.0,4.0,0.0
14991,76.0,60.0,60.0,11.0,0.0
14992,76.0,0.0,60.0,10.0,0.0
14993,42.0,48.0,180.0,14.0,0.0
14994,54.0,0.0,390.0,3.0,0.0
14995,42.0,36.0,390.0,3.0,0.0
14996,54.0,0.0,390.0,4.0,0.0
14997,75.0,0.0,60.0,11.0,0.0
14998,75.0,60.0,60.0,10.0,0.0
14999,76.0,12.0,60.0,10.0,0.0
15000,76.0,0.0,60.0,11.0,0.0
15001,75.0,0.0,60.0,11.0,0.0
15002,75.0,48.0,60.0,10.0,0.0
15003,54.0,0.0,180.0,13.0,0.0
15004,76.0,0.0,60.0,11.0,0.0
15005,59.0,0.0,180.0,12.0,0.0
15006,42.0,24.0,180.0,14.0,0.0
15007,76.0,60.0,60.0,10.0,0.0
15008,75.0,0.0,60.0,11.0,0.0
15009,75.0,24.0,60.0,10.0,0.0
15010,73.0,12.0,60.0,11.0,0.0
15011,73.0,0.0,60.0,10.0,0.0
15012,42.0,12.0,90.0,5.0,0.0
15013,75.0,0.0,60.0,11.0,0.0
15014,75.0,204.0,60.0,10.0,0.0
15015,42.0,0.0,180.0,13.0,0.0
15016,76.0,120.0,270.0,10.0,0.0
15017,58.0,0.0,180.0,12.0,0.0
15018,82.0,0.0,1140.0,0.0,0.0
15019,73.0,72.0,1140.0,1.0,0.0
15020,42.0,0.0,390.0,5.0,0.0
15021,76.0,0.0,270.0,11.0,0.0
15022,54.0,0.0,390.0,4.0,0.0
15023,66.0,0.0,390.0,4.0,0.0
15024,30.0,72.0,180.0,14.0,0.0
15025,76.0,0.0,1140.0,1.0,0.0
15026,42.0,48.0,390.0,3.0,0.0
15027,54.0,0.0,390.0,3.0,0.0
15028,61.0,0.0,1140.0,2.0,0.0
15029,58.0,0.0,1140.0,2.0,0.0
15030,58.0,240.0,180.0,12.0,0.0
15031,30.0,0.0,180.0,14.0,0.0
15032,42.0,0.0,180.0,13.0,0.0
15033,61.0,0.0,180.0,12.0,0.0
15034,42.0,0.0,390.0,5.0,0.0
15035,54.0,0.0,390.0,4.0,0.0
15036,42.0,48.0,390.0,3.0,0.0
15037,73.0,120.0,270.0,11.0,0.0
15038,73.0,0.0,270.0,10.0,0.0
15039,42.0,72.0,180.0,13.0,0.0
15040,54.0,0.0,390.0,3.0,0.0
15041,30.0,0.0,180.0,14.0,0.0
15042,66.0,0.0,390.0,4.0,0.0
15043,42.0,240.0,180.0,13.0,0.0
15044,61.0,0.0,180.0,12.0,0.0
15045,30.0,0.0,180.0,14.0,0.0
15046,70.0,120.0,270.0,10.0,0.0
15047,54.0,0.0,390.0,3.0,0.0
15048,42.0,48.0,390.0,3.0,0.0
15049,64.0,0.0,180.0,12.0,0.0
15050,70.0,0.0,270.0,11.0,0.0
15051,54.0,0.0,390.0,4.0,0.0
15052,66.0,0.0,390.0,4.0,0.0
15053,30.0,0.0,180.0,14.0,0.0
15054,42.0,0.0,180.0,13.0,0.0
15055,42.0,0.0,390.0,5.0,0.0
15056,30.0,144.0,180.0,14.0,0.0
15057,42.0,0.0,180.0,13.0,0.0
15058,64.0,0.0,180.0,12.0,0.0
15059,47.0,0.0,390.0,13.0,0.0
15060,66.0,0.0,390.0,4.0,0.0
15061,59.0,0.0,390.0,2.0,0.0
15062,47.0,0.0,390.0,3.0,0.0
15063,54.0,72.0,390.0,3.0,0.0
15064,59.0,0.0,390.0,4.0,0.0
15065,71.0,120.0,90.0,11.0,0.0
15066,83.0,0.0,390.0,0.0,0.0
15067,71.0,0.0,90.0,10.0,0.0
15068,47.0,0.0,390.0,5.0,0.0
15069,63.0,0.0,390.0,12.0,0.0
15070,35.0,0.0,390.0,14.0,0.0
15071,75.0,0.0,390.0,1.0,0.0
15072,71.0,0.0,390.0,1.0,0.0
15073,71.0,0.0,90.0,10.0,0.0
15074,71.0,120.0,90.0,11.0,0.0
15075,66.0,48.0,90.0,10.0,0.0
15076,66.0,0.0,90.0,11.0,0.0
15077,66.0,120.0,90.0,10.0,0.0
15078,66.0,0.0,90.0,11.0,0.0
15079,75.0,0.0,90.0,11.0,0.0
15080,75.0,120.0,90.0,10.0,0.0
15081,75.0,120.0,90.0,11.0,0.0
15082,75.0,0.0,90.0,10.0,0.0
15083,71.0,120.0,90.0,11.0,0.0
15084,71.0,0.0,90.0,10.0,0.0
15085,71.0,0.0,90.0,10.0,0.0
15086,71.0,120.0,90.0,11.0,0.0
15087,66.0,0.0,90.0,10.0,0.0
15088,66.0,120.0,90.0,11.0,0.0
15089,66.0,0.0,90.0,10.0,0.0
15090,66.0,120.0,90.0,11.0,0.0
15091,75.0,0.0,180.0,0.0,0.0
15092,63.0,96.0,90.0,10.0,0.0
15093,75.0,24.0,180.0,1.0,0.0
15094,51.0,0.0,180.0,2.0,0.0
15095,63.0,0.0,90.0,11.0,0.0
15096,63.0,0.0,90.0,11.0,0.0
15097,63.0,120.0,90.0,10.0,0.0
15098,52.0,24.0,180.0,2.0,0.0
15099,64.0,0.0,180.0,12.0,0.0
15100,40.0,0.0,180.0,14.0,0.0
15101,76.0,0.0,180.0,0.0,0.0
15102,76.0,0.0,180.0,1.0,0.0
15103,52.0,0.0,180.0,13.0,0.0
15104,64.0,96.0,90.0,11.0,0.0
15105,64.0,0.0,90.0,10.0,0.0
15106,64.0,0.0,90.0,10.0,0.0
15107,64.0,120.0,90.0,11.0,0.0
15108,56.0,0.0,180.0,2.0,0.0
15109,68.0,0.0,180.0,12.0,0.0
15110,80.0,24.0,180.0,1.0,0.0
15111,44.0,0.0,180.0,14.0,0.0
15112,80.0,0.0,180.0,0.0,0.0
15113,68.0,0.0,90.0,10.0,0.0
15114,56.0,0.0,180.0,13.0,0.0
15115,68.0,96.0,90.0,11.0,0.0
15116,68.0,0.0,90.0,10.0,0.0
15117,68.0,120.0,90.0,11.0,0.0
15118,61.0,0.0,90.0,10.0,0.0
15119,49.0,0.0,180.0,13.0,0.0
15120,73.0,24.0,180.0,0.0,0.0
15121,73.0,0.0,180.0,1.0,0.0
15122,61.0,96.0,90.0,11.0,0.0
15123,37.0,0.0,180.0,14.0,0.0
15124,49.0,0.0,180.0,2.0,0.0
15125,61.0,0.0,180.0,12.0,0.0
15126,61.0,120.0,90.0,10.0,0.0
15127,61.0,0.0,90.0,11.0,0.0
15128,76.0,0.0,180.0,0.0,0.0
15129,64.0,0.0,90.0,11.0,0.0
15130,52.0,0.0,180.0,2.0,0.0
15131,76.0,0.0,180.0,1.0,0.0
15132,52.0,0.0,180.0,13.0,0.0
15133,64.0,0.0,180.0,12.0,0.0
15134,40.0,24.0,180.0,14.0,0.0
15135,64.0,96.0,90.0,10.0,0.0
15136,64.0,0.0,90.0,10.0,0.0
15137,64.0,120.0,90.0,11.0,0.0
15138,58.0,96.0,90.0,10.0,0.0
15139,58.0,0.0,90.0,11.0,0.0
15140,70.0,0.0,180.0,1.0,0.0
15141,70.0,24.0,180.0,0.0,0.0
15142,46.0,0.0,180.0,2.0,0.0
15143,34.0,0.0,180.0,14.0,0.0
15144,46.0,0.0,180.0,13.0,0.0
15145,58.0,0.0,180.0,12.0,0.0
15146,58.0,120.0,90.0,10.0,0.0
15147,58.0,0.0,90.0,11.0,0.0
15148,61.0,96.0,90.0,10.0,0.0
15149,49.0,24.0,180.0,13.0,0.0
15150,61.0,0.0,180.0,12.0,0.0
15151,73.0,0.0,180.0,1.0,0.0
15152,61.0,0.0,90.0,11.0,0.0
15153,49.0,0.0,180.0,2.0,0.0
15154,73.0,0.0,180.0,0.0,0.0
15155,37.0,0.0,180.0,14.0,0.0
15156,61.0,120.0,90.0,10.0,0.0
15157,61.0,0.0,90.0,11.0,0.0
15158,59.0,96.0,90.0,10.0,0.0
15159,47.0,0.0,390.0,5.0,0.0
15160,59.0,0.0,90.0,11.0,0.0
15161,59.0,0.0,390.0,3.0,0.0
15162,47.0,48.0,390.0,3.0,0.0
15163,35.0,0.0,180.0,14.0,0.0
15164,71.0,24.0,180.0,1.0,0.0
15165,47.0,0.0,180.0,13.0,0.0
15166,59.0,0.0,180.0,12.0,0.0
15167,71.0,0.0,390.0,4.0,0.0
15168,59.0,0.0,390.0,4.0,0.0
15169,47.0,0.0,180.0,2.0,0.0
15170,71.0,0.0,180.0,0.0,0.0
15171,59.0,120.0,90.0,10.0,0.0
15172,59.0,0.0,90.0,11.0,0.0
15173,54.0,24.0,180.0,12.0,0.0
15174,54.0,0.0,90.0,11.0,0.0
15175,42.0,0.0,180.0,2.0,0.0
15176,78.0,0.0,180.0,0.0,0.0
15177,30.0,0.0,180.0,14.0,0.0
15178,42.0,0.0,180.0,13.0,0.0
15179,54.0,48.0,90.0,10.0,0.0
15180,66.0,0.0,180.0,1.0,0.0
15181,54.0,0.0,90.0,10.0,0.0
15182,54.0,120.0,90.0,11.0,0.0
15183,39.0,24.0,180.0,14.0,0.0
15184,63.0,0.0,180.0,12.0,0.0
15185,63.0,0.0,90.0,10.0,0.0
15186,51.0,0.0,180.0,2.0,0.0
15187,87.0,0.0,180.0,0.0,0.0
15188,51.0,0.0,180.0,13.0,0.0
15189,63.0,96.0,90.0,11.0,0.0
15190,75.0,0.0,180.0,1.0,0.0
15191,63.0,120.0,90.0,10.0,0.0
15192,63.0,0.0,90.0,11.0,0.0
15193,47.0,0.0,180.0,2.0,0.0
15194,71.0,0.0,180.0,1.0,0.0
15195,59.0,0.0,90.0,10.0,0.0
15196,83.0,0.0,180.0,0.0,0.0
15197,35.0,24.0,180.0,14.0,0.0
15198,59.0,0.0,180.0,12.0,0.0
15199,59.0,96.0,90.0,11.0,0.0
15200,47.0,0.0,180.0,13.0,0.0
15201,59.0,120.0,90.0,11.0,0.0
15202,59.0,0.0,90.0,10.0,0.0
15203,66.0,0.0,180.0,1.0,0.0
15204,78.0,0.0,180.0,0.0,0.0
15205,30.0,0.0,180.0,14.0,0.0
15206,54.0,0.0,180.0,12.0,0.0
15207,42.0,0.0,180.0,13.0,0.0
15208,42.0,24.0,180.0,2.0,0.0
15209,54.0,0.0,90.0,11.0,0.0
15210,54.0,96.0,90.0,10.0,0.0
15211,54.0,0.0,90.0,10.0,0.0
15212,54.0,120.0,90.0,11.0,0.0
15213,51.0,96.0,90.0,10.0,0.0
15214,51.0,0.0,180.0,12.0,0.0
15215,75.0,0.0,180.0,0.0,0.0
15216,51.0,0.0,90.0,11.0,0.0
15217,63.0,0.0,180.0,1.0,0.0
15218,39.0,0.0,180.0,2.0,0.0
15219,27.0,0.0,180.0,14.0,0.0
15220,39.0,24.0,180.0,13.0,0.0
15221,51.0,120.0,90.0,11.0,0.0
15222,51.0,0.0,90.0,10.0,0.0
15223,52.0,96.0,90.0,11.0,0.0
15224,52.0,24.0,180.0,12.0,0.0
15225,40.0,0.0,180.0,13.0,0.0
15226,40.0,0.0,180.0,2.0,0.0
15227,52.0,0.0,90.0,10.0,0.0
15228,64.0,0.0,570.0,1.0,0.0
15229,76.0,96.0,570.0,0.0,0.0
15230,28.0,0.0,180.0,14.0,0.0
15231,52.0,120.0,90.0,11.0,0.0
15232,52.0,0.0,90.0,10.0,0.0
15233,56.0,96.0,90.0,10.0,0.0
15234,32.0,0.0,180.0,14.0,0.0
15235,44.0,0.0,180.0,2.0,0.0
15236,44.0,24.0,180.0,13.0,0.0
15237,56.0,0.0,180.0,12.0,0.0
15238,56.0,0.0,90.0,11.0,0.0
15239,56.0,120.0,90.0,10.0,0.0
15240,56.0,0.0,90.0,11.0,0.0
15241,61.0,0.0,180.0,12.0,0.0
15242,61.0,0.0,90.0,11.0,0.0
15243,37.0,0.0,180.0,14.0,0.0
15244,49.0,24.0,180.0,2.0,0.0
15245,49.0,0.0,180.0,13.0,0.0
15246,61.0,0.0,90.0,10.0,0.0
15247,61.0,120.0,90.0,11.0,0.0
15248,61.0,0.0,90.0,10.0,0.0
15249,65.0,0.0,180.0,1.0,0.0
15250,53.0,0.0,90.0,11.0,0.0
15251,77.0,0.0,180.0,0.0,0.0
15252,53.0,96.0,90.0,10.0,0.0
15253,41.0,0.0,180.0,2.0,0.0
15254,41.0,24.0,180.0,13.0,0.0
15255,29.0,0.0,180.0,14.0,0.0
15256,53.0,0.0,180.0,12.0,0.0
15257,53.0,120.0,90.0,11.0,0.0
15258,53.0,0.0,90.0,10.0,0.0
15259,54.0,0.0,180.0,12.0,0.0
15260,54.0,0.0,90.0,10.0,0.0
15261,78.0,0.0,660.0,0.0,0.0
15262,54.0,96.0,90.0,11.0,0.0
15263,42.0,0.0,180.0,13.0,0.0
15264,66.0,0.0,660.0,1.0,0.0
15265,30.0,24.0,180.0,14.0,0.0
15266,42.0,0.0,180.0,2.0,0.0
15267,54.0,0.0,90.0,11.0,0.0
15268,54.0,120.0,90.0,10.0,0.0
15269,34.0,0.0,180.0,14.0,0.0
15270,58.0,0.0,180.0,12.0,0.0
15271,58.0,0.0,90.0,10.0,0.0
15272,46.0,24.0,180.0,2.0,0.0
15273,46.0,0.0,180.0,13.0,0.0
15274,58.0,96.0,90.0,11.0,0.0
15275,58.0,120.0,90.0,11.0,0.0
15276,58.0,0.0,90.0,10.0,0.0
15277,63.0,96.0,90.0,10.0,0.0
15278,63.0,0.0,90.0,11.0,0.0
15279,63.0,24.0,180.0,12.0,0.0
15280,51.0,0.0,180.0,13.0,0.0
15281,51.0,0.0,180.0,2.0,0.0
15282,39.0,0.0,180.0,14.0,0.0
15283,63.0,120.0,90.0,10.0,0.0
15284,63.0,0.0,90.0,11.0,0.0
15285,43.0,0.0,180.0,2.0,0.0
15286,55.0,0.0,180.0,12.0,0.0
15287,67.0,0.0,180.0,1.0,0.0
15288,55.0,0.0,90.0,10.0,0.0
15289,79.0,0.0,180.0,0.0,0.0
15290,55.0,96.0,90.0,11.0,0.0
15291,43.0,0.0,180.0,13.0,0.0
15292,31.0,24.0,180.0,14.0,0.0
15293,55.0,0.0,90.0,11.0,0.0
15294,55.0,120.0,90.0,10.0,0.0
15295,44.0,0.0,180.0,13.0,0.0
15296,44.0,24.0,180.0,2.0,0.0
15297,56.0,96.0,90.0,11.0,0.0
15298,80.0,0.0,570.0,0.0,0.0
15299,56.0,0.0,90.0,10.0,0.0
15300,56.0,0.0,180.0,12.0,0.0
15301,68.0,96.0,570.0,1.0,0.0
15302,32.0,0.0,180.0,14.0,0.0
15303,56.0,120.0,90.0,10.0,0.0
15304,56.0,0.0,90.0,11.0,0.0
15305,59.0,0.0,90.0,11.0,0.0
15306,35.0,0.0,180.0,14.0,0.0
15307,47.0,0.0,180.0,2.0,0.0
15308,59.0,96.0,90.0,10.0,0.0
15309,59.0,0.0,180.0,12.0,0.0
15310,47.0,24.0,180.0,13.0,0.0
15311,59.0,120.0,90.0,10.0,0.0
15312,59.0,0.0,90.0,11.0,0.0
15313,64.0,0.0,90.0,11.0,0.0
15314,52.0,0.0,180.0,13.0,0.0
15315,64.0,0.0,90.0,10.0,0.0
15316,52.0,0.0,180.0,2.0,0.0
15317,40.0,0.0,180.0,14.0,0.0
15318,64.0,24.0,180.0,12.0,0.0
15319,64.0,0.0,90.0,10.0,0.0
15320,64.0,120.0,90.0,11.0,0.0
15321,32.0,0.0,180.0,14.0,0.0
15322,80.0,0.0,180.0,0.0,0.0
15323,56.0,96.0,90.0,10.0,0.0
15324,56.0,0.0,180.0,12.0,0.0
15325,68.0,0.0,180.0,1.0,0.0
15326,56.0,0.0,90.0,11.0,0.0
15327,44.0,0.0,180.0,2.0,0.0
15328,44.0,24.0,180.0,13.0,0.0
15329,56.0,0.0,90.0,10.0,0.0
15330,56.0,120.0,90.0,11.0,0.0
15331,58.0,96.0,90.0,10.0,0.0
15332,82.0,48.0,300.0,0.0,0.0
15333,58.0,0.0,90.0,11.0,0.0
15334,34.0,24.0,180.0,14.0,0.0
15335,46.0,0.0,180.0,13.0,0.0
15336,58.0,0.0,180.0,12.0,0.0
15337,70.0,0.0,300.0,1.0,0.0
15338,46.0,0.0,180.0,2.0,0.0
15339,58.0,72.0,90.0,10.0,0.0
15340,58.0,0.0,90.0,11.0,0.0
15341,66.0,0.0,90.0,10.0,0.0
15342,66.0,24.0,180.0,12.0,0.0
15343,54.0,0.0,180.0,13.0,0.0
15344,54.0,0.0,180.0,2.0,0.0
15345,42.0,0.0,180.0,14.0,0.0
15346,66.0,96.0,90.0,11.0,0.0
15347,66.0,120.0,90.0,10.0,0.0
15348,66.0,0.0,90.0,11.0,0.0
15349,35.0,0.0,180.0,14.0,0.0
15350,59.0,0.0,180.0,12.0,0.0
15351,59.0,0.0,90.0,11.0,0.0
15352,71.0,0.0,300.0,1.0,0.0
15353,47.0,0.0,180.0,13.0,0.0
15354,59.0,96.0,90.0,10.0,0.0
15355,47.0,24.0,180.0,2.0,0.0
15356,83.0,48.0,300.0,0.0,0.0
15357,59.0,72.0,90.0,11.0,0.0
15358,59.0,0.0,90.0,10.0,0.0
15359,56.0,0.0,180.0,2.0,0.0
15360,56.0,24.0,180.0,13.0,0.0
15361,44.0,0.0,180.0,14.0,0.0
15362,68.0,0.0,180.0,12.0,0.0
15363,68.0,0.0,90.0,10.0,0.0
15364,68.0,96.0,90.0,11.0,0.0
15365,68.0,0.0,90.0,11.0,0.0
15366,68.0,120.0,90.0,10.0,0.0
15367,49.0,0.0,180.0,13.0,0.0
15368,61.0,96.0,90.0,11.0,0.0
15369,37.0,24.0,180.0,14.0,0.0
15370,85.0,48.0,300.0,0.0,0.0
15371,61.0,0.0,90.0,10.0,0.0
15372,73.0,0.0,300.0,1.0,0.0
15373,61.0,0.0,180.0,12.0,0.0
15374,49.0,0.0,180.0,2.0,0.0
15375,61.0,0.0,90.0,10.0,0.0
15376,61.0,72.0,90.0,11.0,0.0
15377,58.0,0.0,180.0,13.0,0.0
15378,70.0,0.0,180.0,12.0,0.0
15379,58.0,0.0,180.0,2.0,0.0
15380,70.0,0.0,90.0,11.0,0.0
15381,46.0,24.0,180.0,14.0,0.0
15382,70.0,96.0,90.0,10.0,0.0
15383,70.0,0.0,90.0,11.0,0.0
15384,70.0,120.0,90.0,10.0,0.0
15385,63.0,0.0,180.0,12.0,0.0
15386,87.0,0.0,390.0,0.0,0.0
15387,71.0,0.0,390.0,4.0,0.0
15388,59.0,0.0,390.0,4.0,0.0
15389,47.0,36.0,390.0,5.0,0.0
15390,71.0,0.0,90.0,11.0,0.0
15391,39.0,36.0,180.0,14.0,0.0
15392,75.0,0.0,390.0,1.0,0.0
15393,71.0,0.0,390.0,1.0,0.0
15394,71.0,84.0,90.0,10.0,0.0
15395,59.0,0.0,390.0,3.0,0.0
15396,63.0,0.0,390.0,3.0,0.0
15397,51.0,0.0,180.0,13.0,0.0
15398,51.0,0.0,180.0,2.0,0.0
15399,71.0,0.0,90.0,10.0,0.0
15400,71.0,120.0,90.0,11.0,0.0
15401,47.0,0.0,180.0,14.0,0.0
15402,71.0,48.0,90.0,10.0,0.0
15403,59.0,0.0,180.0,13.0,0.0
15404,71.0,0.0,180.0,12.0,0.0
15405,59.0,36.0,180.0,2.0,0.0
15406,71.0,0.0,90.0,11.0,0.0
15407,71.0,0.0,90.0,10.0,0.0
15408,71.0,120.0,90.0,11.0,0.0
15409,64.0,0.0,390.0,3.0,0.0
15410,73.0,84.0,90.0,10.0,0.0
15411,61.0,36.0,390.0,3.0,0.0
15412,73.0,0.0,90.0,11.0,0.0
15413,73.0,0.0,390.0,1.0,0.0
15414,76.0,0.0,390.0,1.0,0.0
15415,40.0,0.0,180.0,14.0,0.0
15416,85.0,0.0,390.0,0.0,0.0
15417,52.0,0.0,180.0,2.0,0.0
15418,52.0,36.0,180.0,13.0,0.0
15419,64.0,0.0,180.0,12.0,0.0
15420,73.0,120.0,90.0,10.0,0.0
15421,73.0,0.0,90.0,11.0,0.0
15422,68.0,0.0,180.0,12.0,0.0
15423,44.0,36.0,180.0,14.0,0.0
15424,73.0,0.0,90.0,10.0,0.0
15425,56.0,0.0,180.0,2.0,0.0
15426,56.0,0.0,180.0,13.0,0.0
15427,73.0,48.0,90.0,11.0,0.0
15428,73.0,0.0,90.0,11.0,0.0
15429,73.0,120.0,90.0,10.0,0.0
15430,73.0,0.0,390.0,1.0,0.0
15431,42.0,36.0,180.0,14.0,0.0
15432,61.0,0.0,390.0,3.0,0.0
15433,66.0,0.0,180.0,12.0,0.0
15434,42.0,36.0,390.0,5.0,0.0
15435,54.0,0.0,180.0,2.0,0.0
15436,70.0,0.0,390.0,1.0,0.0
15437,54.0,0.0,390.0,3.0,0.0
15438,54.0,0.0,180.0,13.0,0.0
15439,54.0,0.0,390.0,4.0,0.0
15440,82.0,0.0,390.0,0.0,0.0
15441,70.0,0.0,90.0,11.0,0.0
15442,66.0,0.0,390.0,4.0,0.0
15443,70.0,84.0,90.0,10.0,0.0
15444,70.0,120.0,90.0,10.0,0.0
15445,70.0,0.0,90.0,11.0,0.0
15446,52.0,0.0,180.0,2.0,0.0
15447,70.0,48.0,90.0,10.0,0.0
15448,40.0,0.0,180.0,14.0,0.0
15449,70.0,0.0,90.0,11.0,0.0
15450,52.0,36.0,180.0,13.0,0.0
15451,64.0,0.0,180.0,12.0,0.0
15452,70.0,0.0,90.0,10.0,0.0
15453,70.0,72.0,90.0,11.0,0.0
15454,83.0,0.0,1140.0,0.0,0.0
15455,47.0,0.0,390.0,3.0,0.0
15456,59.0,0.0,390.0,3.0,0.0
15457,39.0,24.0,390.0,14.0,0.0
15458,51.0,0.0,390.0,13.0,0.0
15459,78.0,48.0,120.0,10.0,0.0
15460,59.0,0.0,360.0,4.0,0.0
15461,47.0,60.0,60.0,5.0,0.0
15462,51.0,0.0,390.0,2.0,0.0
15463,75.0,36.0,1140.0,1.0,0.0
15464,66.0,0.0,1140.0,1.0,0.0
15465,78.0,0.0,120.0,11.0,0.0
15466,63.0,0.0,390.0,12.0,0.0
15467,71.0,0.0,360.0,4.0,0.0
15468,47.0,12.0,60.0,5.0,0.0
15469,76.0,0.0,120.0,11.0,0.0
15470,47.0,60.0,60.0,5.0,0.0
15471,76.0,48.0,120.0,10.0,0.0
15472,47.0,12.0,60.0,5.0,0.0
15473,75.0,24.0,120.0,10.0,0.0
15474,47.0,60.0,60.0,5.0,0.0
15475,75.0,0.0,120.0,11.0,0.0
15476,47.0,12.0,60.0,5.0,0.0
15477,73.0,0.0,120.0,10.0,0.0
15478,73.0,48.0,120.0,11.0,0.0
15479,47.0,60.0,60.0,5.0,0.0
15480,47.0,12.0,60.0,5.0,0.0
15481,71.0,48.0,120.0,11.0,0.0
15482,71.0,0.0,120.0,10.0,0.0
15483,59.0,0.0,270.0,4.0,0.0
15484,47.0,60.0,60.0,5.0,0.0
15485,71.0,18.0,270.0,4.0,0.0
15486,47.0,12.0,60.0,5.0,0.0
15487,70.0,30.0,120.0,10.0,0.0
15488,47.0,60.0,60.0,5.0,0.0
15489,70.0,0.0,120.0,11.0,0.0
15490,47.0,12.0,60.0,5.0,0.0
15491,47.0,60.0,60.0,5.0,0.0
15492,68.0,48.0,120.0,11.0,0.0
15493,68.0,0.0,120.0,10.0,0.0
15494,47.0,12.0,60.0,5.0,0.0
15495,66.0,48.0,120.0,10.0,0.0
15496,71.0,18.0,90.0,4.0,0.0
15497,59.0,0.0,90.0,4.0,0.0
15498,66.0,0.0,120.0,11.0,0.0
15499,47.0,42.0,60.0,5.0,0.0
15500,47.0,12.0,60.0,5.0,0.0
15501,64.0,0.0,120.0,11.0,0.0
15502,71.0,0.0,270.0,4.0,0.0
15503,59.0,18.0,270.0,4.0,0.0
15504,47.0,60.0,60.0,5.0,0.0
15505,64.0,48.0,120.0,10.0,0.0
15506,47.0,12.0,60.0,5.0,0.0
15507,63.0,30.0,120.0,11.0,0.0
15508,63.0,0.0,120.0,10.0,0.0
15509,47.0,24.0,60.0,5.0,0.0
15510,47.0,12.0,60.0,5.0,0.0
15511,47.0,60.0,60.0,5.0,0.0
15512,61.0,48.0,120.0,11.0,0.0
15513,61.0,0.0,120.0,10.0,0.0
15514,47.0,12.0,60.0,5.0,0.0
15515,71.0,0.0,90.0,4.0,0.0
15516,59.0,0.0,90.0,10.0,0.0
15517,59.0,6.0,90.0,4.0,0.0
15518,47.0,0.0,60.0,5.0,0.0
15519,59.0,12.0,90.0,11.0,0.0
15520,47.0,300.0,60.0,5.0,0.0
15521,76.0,0.0,300.0,1.0,0.0
15522,68.0,96.0,300.0,1.0,0.0
15523,80.0,0.0,300.0,0.0,0.0
15524,68.0,0.0,390.0,10.0,0.0
15525,68.0,0.0,390.0,11.0,0.0
15526,47.0,36.0,390.0,5.0,0.0
15527,59.0,0.0,390.0,4.0,0.0
15528,71.0,0.0,390.0,4.0,0.0
15529,64.0,240.0,180.0,12.0,0.0
15530,52.0,0.0,180.0,13.0,0.0
15531,52.0,0.0,180.0,2.0,0.0
15532,40.0,0.0,180.0,14.0,0.0
15533,61.0,0.0,390.0,10.0,0.0
15534,61.0,0.0,390.0,3.0,0.0
15535,61.0,0.0,390.0,11.0,0.0
15536,68.0,36.0,390.0,11.0,0.0
15537,76.0,0.0,300.0,11.0,0.0
15538,49.0,0.0,180.0,13.0,0.0
15539,64.0,0.0,390.0,3.0,0.0
15540,85.0,0.0,300.0,0.0,0.0
15541,49.0,108.0,180.0,2.0,0.0
15542,76.0,0.0,300.0,10.0,0.0
15543,68.0,0.0,390.0,10.0,0.0
15544,61.0,0.0,180.0,12.0,0.0
15545,73.0,0.0,300.0,1.0,0.0
15546,37.0,0.0,180.0,14.0,0.0
15547,76.0,96.0,300.0,1.0,0.0
15548,40.0,0.0,180.0,14.0,0.0
15549,52.0,0.0,180.0,2.0,0.0
15550,52.0,240.0,180.0,13.0,0.0
15551,64.0,0.0,180.0,12.0,0.0
15552,58.0,0.0,390.0,11.0,0.0
15553,66.0,0.0,390.0,10.0,0.0
15554,58.0,36.0,390.0,10.0,0.0
15555,54.0,0.0,180.0,13.0,0.0
15556,54.0,0.0,390.0,3.0,0.0
15557,73.0,0.0,300.0,1.0,0.0
15558,73.0,96.0,300.0,10.0,0.0
15559,82.0,0.0,300.0,0.0,0.0
15560,54.0,0.0,180.0,2.0,0.0
15561,66.0,0.0,180.0,12.0,0.0
15562,54.0,0.0,390.0,4.0,0.0
15563,42.0,108.0,180.0,14.0,0.0
15564,61.0,0.0,390.0,3.0,0.0
15565,66.0,0.0,390.0,4.0,0.0
15566,66.0,0.0,390.0,11.0,0.0
15567,73.0,0.0,300.0,11.0,0.0
15568,42.0,0.0,390.0,5.0,0.0
15569,70.0,0.0,300.0,1.0,0.0
15570,40.0,0.0,180.0,14.0,0.0
15571,52.0,108.0,180.0,13.0,0.0
15572,64.0,0.0,180.0,12.0,0.0
15573,52.0,0.0,180.0,2.0,0.0
15574,39.0,0.0,390.0,14.0,0.0
15575,75.0,36.0,1140.0,1.0,0.0
15576,47.0,60.0,60.0,5.0,0.0
15577,54.0,0.0,390.0,3.0,0.0
15578,51.0,0.0,390.0,13.0,0.0
15579,63.0,0.0,390.0,12.0,0.0
15580,78.0,0.0,1140.0,1.0,0.0
15581,78.0,48.0,120.0,11.0,0.0
15582,66.0,0.0,390.0,3.0,0.0
15583,51.0,24.0,390.0,2.0,0.0
15584,71.0,24.0,360.0,4.0,0.0
15585,59.0,0.0,360.0,4.0,0.0
15586,83.0,0.0,1140.0,0.0,0.0
15587,78.0,0.0,120.0,10.0,0.0
15588,47.0,12.0,60.0,5.0,0.0
15589,76.0,0.0,120.0,10.0,0.0
15590,76.0,48.0,120.0,11.0,0.0
15591,47.0,60.0,60.0,5.0,0.0
15592,47.0,12.0,60.0,5.0,0.0
15593,47.0,60.0,60.0,5.0,0.0
15594,75.0,0.0,120.0,10.0,0.0
15595,75.0,0.0,120.0,11.0,0.0
15596,47.0,12.0,60.0,5.0,0.0
15597,47.0,60.0,60.0,5.0,0.0
15598,73.0,48.0,120.0,10.0,0.0
15599,73.0,0.0,120.0,11.0,0.0
15600,47.0,12.0,60.0,5.0,0.0
15601,47.0,60.0,60.0,5.0,0.0
15602,71.0,0.0,270.0,4.0,0.0
15603,71.0,48.0,120.0,11.0,0.0
15604,71.0,0.0,120.0,10.0,0.0
15605,59.0,18.0,270.0,4.0,0.0
15606,47.0,12.0,60.0,5.0,0.0
15607,47.0,60.0,60.0,5.0,0.0
15608,70.0,30.0,120.0,11.0,0.0
15609,70.0,0.0,120.0,10.0,0.0
15610,47.0,12.0,60.0,5.0,0.0
15611,47.0,60.0,60.0,5.0,0.0
15612,68.0,0.0,120.0,11.0,0.0
15613,68.0,48.0,120.0,10.0,0.0
15614,47.0,12.0,60.0,5.0,0.0
15615,66.0,48.0,120.0,11.0,0.0
15616,71.0,0.0,90.0,4.0,0.0
15617,59.0,18.0,90.0,4.0,0.0
15618,66.0,0.0,120.0,10.0,0.0
15619,47.0,42.0,60.0,5.0,0.0
15620,47.0,12.0,60.0,5.0,0.0
15621,59.0,0.0,270.0,4.0,0.0
15622,71.0,18.0,270.0,4.0,0.0
15623,47.0,60.0,60.0,5.0,0.0
15624,64.0,0.0,120.0,11.0,0.0
15625,64.0,48.0,120.0,10.0,0.0
15626,47.0,12.0,60.0,5.0,0.0
15627,47.0,24.0,60.0,5.0,0.0
15628,63.0,30.0,120.0,11.0,0.0
15629,63.0,0.0,120.0,10.0,0.0
15630,47.0,12.0,60.0,5.0,0.0
15631,47.0,60.0,60.0,5.0,0.0
15632,61.0,48.0,120.0,10.0,0.0
15633,61.0,0.0,120.0,11.0,0.0
15634,47.0,12.0,60.0,5.0,0.0
15635,59.0,0.0,90.0,11.0,0.0
15636,71.0,0.0,90.0,4.0,0.0
15637,59.0,12.0,90.0,10.0,0.0
15638,47.0,42.0,60.0,5.0,0.0
15639,59.0,6.0,90.0,4.0,0.0
15640,47.0,300.0,60.0,5.0,0.0
15641,68.0,0.0,390.0,11.0,0.0
15642,71.0,0.0,390.0,4.0,0.0
15643,47.0,36.0,390.0,5.0,0.0
15644,68.0,0.0,390.0,10.0,0.0
15645,76.0,96.0,300.0,1.0,0.0
15646,68.0,0.0,300.0,1.0,0.0
15647,59.0,0.0,390.0,4.0,0.0
15648,80.0,0.0,300.0,0.0,0.0
15649,40.0,0.0,180.0,14.0,0.0
15650,52.0,0.0,180.0,13.0,0.0
15651,64.0,240.0,180.0,12.0,0.0
15652,52.0,0.0,180.0,2.0,0.0
15653,49.0,0.0,180.0,13.0,0.0
15654,61.0,36.0,390.0,11.0,0.0
15655,76.0,0.0,300.0,11.0,0.0
15656,37.0,0.0,180.0,14.0,0.0
15657,61.0,108.0,180.0,12.0,0.0
15658,68.0,0.0,390.0,11.0,0.0
15659,49.0,0.0,180.0,2.0,0.0
15660,64.0,0.0,390.0,3.0,0.0
15661,88.0,0.0,300.0,0.0,0.0
15662,76.0,96.0,300.0,1.0,0.0
15663,61.0,0.0,390.0,3.0,0.0
15664,61.0,0.0,390.0,10.0,0.0
15665,68.0,0.0,390.0,10.0,0.0
15666,76.0,0.0,300.0,10.0,0.0
15667,80.0,0.0,300.0,1.0,0.0
15668,52.0,0.0,180.0,2.0,0.0
15669,64.0,0.0,180.0,12.0,0.0
15670,52.0,0.0,180.0,13.0,0.0
15671,40.0,240.0,180.0,14.0,0.0
15672,58.0,0.0,390.0,11.0,0.0
15673,66.0,0.0,390.0,4.0,0.0
15674,66.0,0.0,180.0,12.0,0.0
15675,82.0,0.0,300.0,0.0,0.0
15676,54.0,0.0,390.0,4.0,0.0
15677,54.0,108.0,180.0,13.0,0.0
15678,73.0,0.0,300.0,1.0,0.0
15679,42.0,0.0,180.0,14.0,0.0
15680,54.0,0.0,180.0,2.0,0.0
15681,54.0,0.0,390.0,3.0,0.0
15682,61.0,0.0,390.0,3.0,0.0
15683,52.0,96.0,300.0,11.0,0.0
15684,58.0,0.0,390.0,10.0,0.0
15685,52.0,0.0,300.0,10.0,0.0
15686,76.0,0.0,300.0,1.0,0.0
15687,42.0,36.0,390.0,5.0,0.0
15688,42.0,0.0,180.0,2.0,0.0
15689,42.0,0.0,180.0,13.0,0.0
15690,54.0,0.0,180.0,12.0,0.0
15691,30.0,180.0,180.0,14.0,0.0
15692,75.0,48.0,390.0,1.0,0.0
15693,35.0,0.0,390.0,14.0,0.0
15694,71.0,0.0,390.0,1.0,0.0
15695,83.0,0.0,390.0,0.0,0.0
15696,59.0,96.0,120.0,10.0,0.0
15697,59.0,0.0,390.0,12.0,0.0
15698,47.0,0.0,390.0,13.0,0.0
15699,51.0,0.0,390.0,11.0,0.0
15700,47.0,0.0,390.0,5.0,0.0
15701,66.0,0.0,390.0,4.0,0.0
15702,59.0,0.0,390.0,11.0,0.0
15703,47.0,0.0,390.0,2.0,0.0
15704,59.0,0.0,390.0,3.0,0.0
15705,47.0,0.0,390.0,3.0,0.0
15706,59.0,0.0,390.0,4.0,0.0
15707,54.0,96.0,90.0,10.0,0.0
15708,56.0,72.0,60.0,10.0,0.0
15709,58.0,144.0,60.0,10.0,0.0
15710,63.0,0.0,390.0,4.0,0.0
15711,59.0,120.0,90.0,10.0,0.0
15712,51.0,0.0,390.0,3.0,0.0
15713,47.0,0.0,390.0,3.0,0.0
15714,59.0,72.0,390.0,4.0,0.0
15715,58.0,120.0,90.0,10.0,0.0
15716,59.0,48.0,90.0,10.0,0.0
15717,61.0,144.0,90.0,10.0,0.0
15718,63.0,72.0,300.0,4.0,0.0
15719,63.0,120.0,120.0,10.0,0.0
15720,51.0,0.0,300.0,3.0,0.0
15721,59.0,0.0,300.0,4.0,0.0
15722,47.0,0.0,300.0,3.0,0.0
15723,61.0,48.0,120.0,10.0,0.0
15724,63.0,96.0,120.0,10.0,0.0
15725,59.0,0.0,90.0,4.0,0.0
15726,63.0,144.0,90.0,4.0,0.0
15727,61.0,0.0,90.0,10.0,0.0
15728,51.0,0.0,90.0,3.0,0.0
15729,47.0,0.0,90.0,3.0,0.0
15730,47.0,0.0,390.0,2.0,0.0
15731,59.0,0.0,120.0,11.0,0.0
15732,59.0,0.0,390.0,4.0,0.0
15733,63.0,0.0,390.0,4.0,0.0
15734,47.0,0.0,390.0,3.0,0.0
15735,51.0,0.0,390.0,3.0,0.0
15736,35.0,0.0,390.0,14.0,0.0
15737,59.0,0.0,390.0,12.0,0.0
15738,47.0,0.0,390.0,13.0,0.0
15739,47.0,48.0,390.0,5.0,0.0
15740,63.0,96.0,120.0,10.0,0.0
15741,54.0,0.0,90.0,11.0,0.0
15742,58.0,96.0,90.0,10.0,0.0
15743,56.0,72.0,60.0,11.0,0.0
15744,59.0,0.0,60.0,10.0,0.0
15745,61.0,0.0,60.0,10.0,0.0
15746,58.0,144.0,60.0,11.0,0.0
15747,66.0,72.0,390.0,4.0,0.0
15748,63.0,120.0,90.0,10.0,0.0
15749,59.0,0.0,90.0,11.0,0.0
15750,63.0,0.0,390.0,4.0,0.0
15751,54.0,0.0,390.0,3.0,0.0
15752,51.0,0.0,390.0,3.0,0.0
15753,61.0,120.0,90.0,10.0,0.0
15754,58.0,0.0,90.0,11.0,0.0
15755,63.0,0.0,90.0,10.0,0.0
15756,59.0,48.0,90.0,11.0,0.0
15757,64.0,0.0,90.0,10.0,0.0
15758,61.0,144.0,90.0,11.0,0.0
15759,66.0,0.0,300.0,4.0,0.0
15760,63.0,72.0,300.0,4.0,0.0
15761,63.0,0.0,120.0,11.0,0.0
15762,51.0,0.0,300.0,3.0,0.0
15763,54.0,0.0,300.0,3.0,0.0
15764,66.0,120.0,120.0,10.0,0.0
15765,62.0,48.0,120.0,11.0,0.0
15766,65.0,0.0,120.0,10.0,0.0
15767,66.0,96.0,120.0,10.0,0.0
15768,63.0,0.0,120.0,11.0,0.0
15769,63.0,0.0,90.0,4.0,0.0
15770,66.0,0.0,90.0,4.0,0.0
15771,62.0,0.0,90.0,11.0,0.0
15772,51.0,0.0,90.0,3.0,0.0
15773,54.0,144.0,90.0,3.0,0.0
15774,65.0,0.0,90.0,10.0,0.0
15775,63.0,0.0,120.0,11.0,0.0
15776,54.0,0.0,390.0,3.0,0.0
15777,51.0,0.0,390.0,3.0,0.0
15778,59.0,24.0,180.0,1.0,0.0
15779,47.0,0.0,180.0,13.0,0.0
15780,47.0,0.0,180.0,2.0,0.0
15781,66.0,0.0,390.0,4.0,0.0
15782,63.0,72.0,390.0,4.0,0.0
15783,71.0,0.0,180.0,0.0,0.0
15784,47.0,0.0,390.0,5.0,0.0
15785,35.0,0.0,180.0,14.0,0.0
15786,47.0,0.0,180.0,12.0,0.0
15787,66.0,72.0,120.0,10.0,0.0
15788,59.0,0.0,90.0,11.0,0.0
15789,59.0,120.0,90.0,10.0,0.0
15790,61.0,0.0,90.0,10.0,0.0
15791,49.0,0.0,90.0,13.0,0.0
15792,61.0,0.0,90.0,11.0,0.0
15793,49.0,48.0,90.0,2.0,0.0
15794,37.0,0.0,90.0,14.0,0.0
15795,49.0,0.0,90.0,12.0,0.0
15796,73.0,0.0,90.0,0.0,0.0
15797,61.0,0.0,90.0,1.0,0.0
15798,39.0,0.0,90.0,14.0,0.0
15799,51.0,0.0,90.0,13.0,0.0
15800,63.0,120.0,90.0,10.0,0.0
15801,51.0,0.0,90.0,12.0,0.0
15802,63.0,0.0,90.0,1.0,0.0
15803,75.0,0.0,90.0,0.0,0.0
15804,51.0,0.0,90.0,2.0,0.0
15805,63.0,0.0,90.0,11.0,0.0
15806,64.0,0.0,90.0,1.0,0.0
15807,76.0,0.0,90.0,0.0,0.0
15808,71.0,72.0,390.0,4.0,0.0
15809,59.0,0.0,390.0,4.0,0.0
15810,64.0,0.0,90.0,11.0,0.0
15811,64.0,120.0,90.0,10.0,0.0
15812,40.0,0.0,90.0,14.0,0.0
15813,47.0,0.0,390.0,3.0,0.0
15814,59.0,0.0,390.0,3.0,0.0
15815,47.0,0.0,390.0,5.0,0.0
15816,52.0,0.0,90.0,2.0,0.0
15817,52.0,0.0,90.0,12.0,0.0
15818,52.0,0.0,90.0,13.0,0.0
15819,66.0,0.0,90.0,11.0,0.0
15820,54.0,0.0,90.0,2.0,0.0
15821,66.0,0.0,90.0,10.0,0.0
15822,54.0,0.0,90.0,12.0,0.0
15823,42.0,0.0,90.0,14.0,0.0
15824,54.0,120.0,90.0,13.0,0.0
15825,78.0,0.0,90.0,0.0,0.0
15826,66.0,0.0,90.0,1.0,0.0
15827,44.0,0.0,90.0,14.0,0.0
15828,56.0,0.0,90.0,13.0,0.0
15829,68.0,0.0,90.0,11.0,0.0
15830,80.0,48.0,90.0,0.0,0.0
15831,68.0,0.0,90.0,10.0,0.0
15832,56.0,0.0,90.0,2.0,0.0
15833,68.0,0.0,90.0,1.0,0.0
15834,56.0,0.0,90.0,12.0,0.0
15835,82.0,0.0,90.0,0.0,0.0
15836,58.0,0.0,90.0,2.0,0.0
15837,46.0,0.0,90.0,14.0,0.0
15838,58.0,0.0,90.0,12.0,0.0
15839,70.0,0.0,90.0,1.0,0.0
15840,58.0,0.0,90.0,13.0,0.0
15841,70.0,144.0,90.0,10.0,0.0
15842,70.0,0.0,90.0,11.0,0.0
15843,71.0,0.0,120.0,1.0,0.0
15844,59.0,0.0,120.0,13.0,0.0
15845,59.0,0.0,120.0,2.0,0.0
15846,83.0,0.0,120.0,0.0,0.0
15847,59.0,0.0,120.0,12.0,0.0
15848,47.0,0.0,390.0,3.0,0.0
15849,59.0,0.0,390.0,3.0,0.0
15850,71.0,0.0,120.0,10.0,0.0
15851,47.0,120.0,120.0,14.0,0.0
15852,47.0,72.0,300.0,5.0,0.0
15853,71.0,0.0,120.0,11.0,0.0
15854,71.0,72.0,390.0,4.0,0.0
15855,59.0,0.0,390.0,4.0,0.0
15856,70.0,0.0,120.0,10.0,0.0
15857,58.0,0.0,120.0,13.0,0.0
15858,70.0,0.0,120.0,1.0,0.0
15859,58.0,0.0,120.0,2.0,0.0
15860,82.0,0.0,120.0,0.0,0.0
15861,46.0,0.0,120.0,14.0,0.0
15862,58.0,0.0,120.0,12.0,0.0
15863,70.0,48.0,120.0,11.0,0.0
15864,83.0,0.0,120.0,0.0,0.0
15865,71.0,0.0,120.0,1.0,0.0
15866,59.0,0.0,120.0,2.0,0.0
15867,71.0,0.0,120.0,10.0,0.0
15868,59.0,0.0,120.0,13.0,0.0
15869,59.0,0.0,120.0,12.0,0.0
15870,47.0,24.0,120.0,14.0,0.0
15871,71.0,0.0,120.0,11.0,0.0
15872,58.0,0.0,90.0,13.0,0.0
15873,58.0,168.0,90.0,12.0,0.0
15874,70.0,0.0,90.0,1.0,0.0
15875,82.0,0.0,90.0,0.0,0.0
15876,47.0,0.0,90.0,5.0,0.0
15877,70.0,0.0,90.0,10.0,0.0
15878,70.0,0.0,90.0,11.0,0.0
15879,58.0,0.0,90.0,2.0,0.0
15880,46.0,0.0,90.0,14.0,0.0
15881,59.0,0.0,150.0,12.0,0.0
15882,47.0,0.0,150.0,14.0,0.0
15883,59.0,0.0,150.0,13.0,0.0
15884,71.0,0.0,150.0,11.0,0.0
15885,47.0,168.0,180.0,3.0,0.0
15886,59.0,0.0,150.0,2.0,0.0
15887,71.0,0.0,180.0,4.0,0.0
15888,47.0,0.0,180.0,5.0,0.0
15889,59.0,0.0,180.0,4.0,0.0
15890,83.0,0.0,150.0,0.0,0.0
15891,71.0,0.0,150.0,10.0,0.0
15892,59.0,0.0,180.0,3.0,0.0
15893,71.0,48.0,150.0,1.0,0.0
15894,61.0,72.0,120.0,12.0,0.0
15895,73.0,0.0,120.0,10.0,0.0
15896,73.0,0.0,120.0,1.0,0.0
15897,54.0,0.0,180.0,4.0,0.0
15898,73.0,0.0,120.0,11.0,0.0
15899,85.0,0.0,120.0,0.0,0.0
15900,61.0,0.0,120.0,13.0,0.0
15901,66.0,0.0,180.0,4.0,0.0
15902,61.0,0.0,120.0,2.0,0.0
15903,49.0,0.0,120.0,14.0,0.0
15904,42.0,24.0,180.0,3.0,0.0
15905,42.0,0.0,180.0,5.0,0.0
15906,54.0,0.0,180.0,3.0,0.0
15907,70.0,0.0,90.0,1.0,0.0
15908,58.0,168.0,90.0,13.0,0.0
15909,82.0,0.0,90.0,0.0,0.0
15910,70.0,0.0,90.0,11.0,0.0
15911,58.0,0.0,90.0,12.0,0.0
15912,58.0,0.0,90.0,2.0,0.0
15913,70.0,0.0,90.0,10.0,0.0
15914,46.0,0.0,90.0,14.0,0.0
15915,59.0,0.0,150.0,12.0,0.0
15916,71.0,0.0,150.0,10.0,0.0
15917,47.0,0.0,180.0,5.0,0.0
15918,47.0,0.0,150.0,14.0,0.0
15919,71.0,0.0,180.0,4.0,0.0
15920,59.0,0.0,180.0,4.0,0.0
15921,47.0,168.0,180.0,3.0,0.0
15922,71.0,0.0,150.0,11.0,0.0
15923,59.0,0.0,150.0,2.0,0.0
15924,71.0,48.0,150.0,1.0,0.0
15925,59.0,0.0,180.0,3.0,0.0
15926,83.0,0.0,150.0,0.0,0.0
15927,59.0,0.0,150.0,13.0,0.0
15928,61.0,0.0,120.0,13.0,0.0
15929,49.0,0.0,120.0,14.0,0.0
15930,73.0,0.0,120.0,10.0,0.0
15931,42.0,0.0,180.0,5.0,0.0
15932,42.0,24.0,180.0,3.0,0.0
15933,54.0,0.0,180.0,3.0,0.0
15934,73.0,0.0,120.0,11.0,0.0
15935,61.0,0.0,120.0,2.0,0.0
15936,66.0,0.0,180.0,4.0,0.0
15937,85.0,0.0,120.0,0.0,0.0
15938,54.0,0.0,180.0,4.0,0.0
15939,61.0,0.0,120.0,12.0,0.0
15940,73.0,72.0,120.0,1.0,0.0
15941,58.0,0.0,90.0,12.0,0.0
15942,70.0,0.0,90.0,10.0,0.0
15943,58.0,0.0,90.0,13.0,0.0
15944,46.0,168.0,90.0,14.0,0.0
15945,58.0,0.0,90.0,2.0,0.0
15946,70.0,0.0,90.0,1.0,0.0
15947,82.0,0.0,90.0,0.0,0.0
15948,70.0,0.0,90.0,11.0,0.0
15949,59.0,0.0,180.0,3.0,0.0
15950,59.0,0.0,150.0,12.0,0.0
15951,71.0,0.0,150.0,11.0,0.0
15952,47.0,168.0,180.0,5.0,0.0
15953,59.0,0.0,180.0,4.0,0.0
15954,71.0,0.0,180.0,4.0,0.0
15955,83.0,0.0,150.0,0.0,0.0
15956,47.0,0.0,180.0,3.0,0.0
15957,47.0,0.0,150.0,14.0,0.0
15958,71.0,0.0,150.0,1.0,0.0
15959,71.0,48.0,150.0,10.0,0.0
15960,59.0,0.0,150.0,13.0,0.0
15961,59.0,0.0,150.0,2.0,0.0
15962,73.0,0.0,120.0,11.0,0.0
15963,66.0,0.0,180.0,4.0,0.0
15964,54.0,0.0,180.0,4.0,0.0
15965,49.0,0.0,120.0,14.0,0.0
15966,85.0,0.0,120.0,0.0,0.0
15967,42.0,24.0,180.0,5.0,0.0
15968,73.0,0.0,120.0,10.0,0.0
15969,61.0,0.0,120.0,2.0,0.0
15970,73.0,72.0,120.0,1.0,0.0
15971,42.0,0.0,180.0,3.0,0.0
15972,54.0,0.0,180.0,3.0,0.0
15973,61.0,0.0,120.0,13.0,0.0
15974,61.0,0.0,120.0,12.0,0.0
15975,46.0,336.0,90.0,14.0,0.0
15976,58.0,0.0,90.0,13.0,0.0
15977,82.0,0.0,90.0,0.0,0.0
15978,58.0,0.0,90.0,2.0,0.0
15979,58.0,0.0,90.0,12.0,0.0
15980,70.0,0.0,90.0,11.0,0.0
15981,70.0,0.0,90.0,1.0,0.0
15982,70.0,0.0,90.0,10.0,0.0
15983,71.0,0.0,300.0,11.0,0.0
15984,47.0,0.0,300.0,14.0,0.0
15985,59.0,72.0,300.0,12.0,0.0
15986,71.0,0.0,300.0,1.0,0.0
15987,59.0,0.0,300.0,4.0,0.0
15988,47.0,0.0,300.0,3.0,0.0
15989,71.0,0.0,300.0,10.0,0.0
15990,59.0,0.0,300.0,3.0,0.0
15991,71.0,0.0,300.0,4.0,0.0
15992,47.0,408.0,390.0,5.0,0.0
15993,59.0,0.0,300.0,2.0,0.0
15994,59.0,0.0,300.0,13.0,0.0
15995,83.0,0.0,300.0,0.0,0.0
15996,75.0,72.0,300.0,11.0,0.0
15997,78.0,0.0,300.0,1.0,0.0
15998,54.0,0.0,300.0,13.0,0.0
15999,54.0,0.0,300.0,2.0,0.0
16000,59.0,0.0,300.0,10.0,0.0
16001,66.0,0.0,300.0,11.0,0.0
16002,66.0,0.0,300.0,1.0,0.0
16003,54.0,0.0,300.0,12.0,0.0
16004,47.0,408.0,390.0,5.0,0.0
16005,51.0,0.0,300.0,3.0,0.0
16006,42.0,0.0,300.0,14.0,0.0
16007,78.0,0.0,300.0,0.0,0.0
16008,75.0,0.0,300.0,10.0,0.0
16009,59.0,0.0,300.0,11.0,0.0
16010,75.0,0.0,300.0,4.0,0.0
16011,63.0,0.0,300.0,4.0,0.0
16012,63.0,0.0,300.0,3.0,0.0
16013,66.0,0.0,300.0,10.0,0.0
16014,59.0,0.0,300.0,10.0,0.0
16015,59.0,0.0,300.0,11.0,0.0
16016,66.0,0.0,300.0,11.0,0.0
16017,78.0,0.0,300.0,11.0,0.0
16018,78.0,0.0,300.0,10.0,0.0
16019,66.0,0.0,300.0,10.0,0.0
16020,66.0,72.0,300.0,4.0,0.0
16021,54.0,0.0,300.0,3.0,0.0
16022,51.0,0.0,300.0,13.0,0.0
16023,51.0,0.0,300.0,12.0,0.0
16024,39.0,0.0,300.0,14.0,0.0
16025,66.0,0.0,300.0,3.0,0.0
16026,47.0,408.0,390.0,5.0,0.0
16027,75.0,0.0,300.0,0.0,0.0
16028,75.0,0.0,300.0,1.0,0.0
16029,63.0,0.0,300.0,1.0,0.0
16030,51.0,0.0,300.0,2.0,0.0
16031,78.0,0.0,300.0,4.0,0.0
16032,59.0,0.0,300.0,4.0,0.0
16033,66.0,0.0,300.0,10.0,0.0
16034,71.0,0.0,300.0,4.0,0.0
16035,59.0,0.0,300.0,10.0,0.0
16036,75.0,0.0,300.0,10.0,0.0
16037,47.0,0.0,300.0,13.0,0.0
16038,71.0,0.0,300.0,0.0,0.0
16039,47.0,0.0,300.0,3.0,0.0
16040,47.0,0.0,300.0,2.0,0.0
16041,75.0,0.0,300.0,11.0,0.0
16042,59.0,0.0,300.0,3.0,0.0
16043,47.0,408.0,390.0,5.0,0.0
16044,71.0,0.0,300.0,1.0,0.0
16045,35.0,0.0,300.0,14.0,0.0
16046,47.0,0.0,300.0,12.0,0.0
16047,59.0,0.0,300.0,1.0,0.0
16048,59.0,72.0,300.0,11.0,0.0
16049,66.0,0.0,300.0,11.0,0.0
16050,51.0,0.0,300.0,11.0,0.0
16051,54.0,0.0,300.0,3.0,0.0
16052,51.0,0.0,300.0,3.0,0.0
16053,83.0,0.0,300.0,0.0,0.0
16054,35.0,0.0,300.0,14.0,0.0
16055,66.0,0.0,300.0,4.0,0.0
16056,59.0,0.0,300.0,11.0,0.0
16057,63.0,0.0,300.0,4.0,0.0
16058,47.0,0.0,300.0,13.0,0.0
16059,59.0,0.0,300.0,10.0,0.0
16060,51.0,0.0,300.0,10.0,0.0
16061,47.0,408.0,390.0,5.0,0.0
16062,47.0,0.0,300.0,2.0,0.0
16063,75.0,0.0,300.0,1.0,0.0
16064,71.0,0.0,300.0,1.0,0.0
16065,47.0,72.0,300.0,12.0,0.0
16066,47.0,0.0,300.0,12.0,0.0
16067,59.0,0.0,300.0,11.0,0.0
16068,47.0,408.0,390.0,5.0,0.0
16069,71.0,0.0,300.0,1.0,0.0
16070,66.0,0.0,300.0,4.0,0.0
16071,35.0,0.0,300.0,14.0,0.0
16072,83.0,0.0,300.0,0.0,0.0
16073,75.0,0.0,300.0,1.0,0.0
16074,47.0,72.0,300.0,2.0,0.0
16075,63.0,0.0,300.0,4.0,0.0
16076,51.0,0.0,300.0,11.0,0.0
16077,54.0,0.0,300.0,3.0,0.0
16078,51.0,0.0,300.0,3.0,0.0
16079,47.0,0.0,300.0,13.0,0.0
16080,51.0,0.0,300.0,10.0,0.0
16081,59.0,0.0,300.0,10.0,0.0
16082,47.0,0.0,390.0,12.0,0.0
16083,51.0,0.0,390.0,11.0,0.0
16084,75.0,0.0,300.0,1.0,0.0
16085,71.0,0.0,300.0,1.0,0.0
16086,47.0,0.0,390.0,5.0,0.0
16087,47.0,0.0,300.0,2.0,0.0
16088,59.0,0.0,390.0,10.0,0.0
16089,54.0,0.0,300.0,3.0,0.0
16090,83.0,0.0,300.0,0.0,0.0
16091,35.0,3648.0,390.0,14.0,0.0
16092,47.0,0.0,390.0,13.0,0.0
16093,63.0,0.0,300.0,4.0,0.0
16094,66.0,0.0,300.0,4.0,0.0
16095,59.0,0.0,390.0,11.0,0.0
16096,51.0,72.0,300.0,3.0,0.0
16097,51.0,0.0,390.0,10.0,0.0
16098,23.0,0.0,1140.0,14.0,0.0
