,note,step,duration,channel,velocity
0,53.0,60.0,240.0,1.0,0.0
1,49.0,0.0,240.0,1.0,0.0
2,34.0,60.0,120.0,8.0,0.0
3,46.0,0.0,240.0,14.0,0.0
4,46.0,0.0,120.0,7.0,0.0
5,58.0,0.0,240.0,2.0,0.0
6,70.0,0.0,240.0,2.0,0.0
7,53.0,0.0,120.0,6.0,0.0
8,49.0,0.0,120.0,6.0,0.0
9,46.0,0.0,120.0,15.0,0.0
10,65.0,0.0,240.0,0.0,0.0
11,61.0,0.0,240.0,0.0,0.0
12,53.0,0.0,60.0,5.0,0.0
13,53.0,0.0,60.0,4.0,0.0
14,53.0,0.0,120.0,6.0,0.0
15,46.0,0.0,120.0,7.0,0.0
16,49.0,0.0,120.0,6.0,0.0
17,65.0,0.0,60.0,5.0,0.0
18,46.0,0.0,120.0,15.0,0.0
19,65.0,60.0,60.0,4.0,0.0
20,34.0,0.0,120.0,8.0,0.0
21,64.0,0.0,60.0,4.0,0.0
22,64.0,0.0,60.0,5.0,0.0
23,49.0,0.0,120.0,6.0,0.0
24,53.0,0.0,120.0,6.0,0.0
25,46.0,0.0,120.0,7.0,0.0
26,34.0,0.0,120.0,8.0,0.0
27,66.0,60.0,60.0,4.0,0.0
28,46.0,0.0,120.0,15.0,0.0
29,66.0,0.0,60.0,5.0,0.0
30,65.0,0.0,60.0,5.0,0.0
31,65.0,60.0,60.0,4.0,0.0
32,49.0,0.0,120.0,6.0,0.0
33,63.0,60.0,60.0,5.0,0.0
34,34.0,60.0,120.0,8.0,0.0
35,63.0,0.0,60.0,4.0,0.0
36,53.0,0.0,120.0,6.0,0.0
37,46.0,0.0,120.0,15.0,0.0
38,46.0,0.0,120.0,7.0,0.0
39,61.0,0.0,60.0,4.0,0.0
40,61.0,0.0,60.0,5.0,0.0
41,60.0,60.0,60.0,4.0,0.0
42,60.0,0.0,60.0,5.0,0.0
43,49.0,0.0,120.0,6.0,0.0
44,53.0,0.0,120.0,6.0,0.0
45,34.0,0.0,120.0,8.0,0.0
46,46.0,0.0,120.0,7.0,0.0
47,46.0,60.0,120.0,15.0,0.0
48,58.0,0.0,60.0,5.0,0.0
49,58.0,0.0,60.0,4.0,0.0
50,57.0,0.0,60.0,5.0,0.0
51,57.0,60.0,60.0,4.0,0.0
52,46.0,0.0,120.0,7.0,0.0
53,46.0,120.0,120.0,15.0,0.0
54,34.0,0.0,120.0,8.0,0.0
55,49.0,0.0,120.0,6.0,0.0
56,53.0,0.0,120.0,6.0,0.0
57,58.0,0.0,60.0,4.0,0.0
58,58.0,0.0,60.0,5.0,0.0
59,53.0,0.0,240.0,1.0,0.0
60,46.0,0.0,120.0,15.0,0.0
61,70.0,0.0,240.0,2.0,0.0
62,58.0,0.0,240.0,2.0,0.0
63,53.0,0.0,120.0,6.0,0.0
64,49.0,0.0,240.0,1.0,0.0
65,46.0,0.0,120.0,7.0,0.0
66,46.0,0.0,240.0,14.0,0.0
67,34.0,0.0,120.0,8.0,0.0
68,49.0,0.0,120.0,6.0,0.0
69,65.0,0.0,240.0,0.0,0.0
70,61.0,0.0,240.0,0.0,0.0
71,53.0,0.0,60.0,5.0,0.0
72,53.0,60.0,60.0,4.0,0.0
73,65.0,60.0,60.0,5.0,0.0
74,34.0,0.0,120.0,8.0,0.0
75,46.0,0.0,120.0,7.0,0.0
76,53.0,0.0,120.0,6.0,0.0
77,49.0,0.0,120.0,6.0,0.0
78,46.0,60.0,120.0,15.0,0.0
79,65.0,0.0,60.0,4.0,0.0
80,64.0,0.0,60.0,4.0,0.0
81,64.0,0.0,60.0,5.0,0.0
82,61.0,0.0,240.0,11.0,0.0
83,46.0,0.0,240.0,3.0,0.0
84,65.0,0.0,240.0,10.0,0.0
85,46.0,0.0,120.0,15.0,0.0
86,66.0,60.0,60.0,5.0,0.0
87,34.0,0.0,120.0,8.0,0.0
88,53.0,0.0,120.0,6.0,0.0
89,58.0,0.0,240.0,3.0,0.0
90,58.0,0.0,240.0,12.0,0.0
91,66.0,0.0,60.0,4.0,0.0
92,49.0,0.0,120.0,6.0,0.0
93,61.0,60.0,240.0,3.0,0.0
94,46.0,0.0,240.0,13.0,0.0
95,46.0,0.0,120.0,7.0,0.0
96,65.0,60.0,60.0,4.0,0.0
97,65.0,0.0,60.0,5.0,0.0
98,46.0,0.0,120.0,7.0,0.0
99,53.0,0.0,120.0,6.0,0.0
100,49.0,0.0,120.0,6.0,0.0
101,46.0,0.0,120.0,15.0,0.0
102,34.0,0.0,120.0,8.0,0.0
103,63.0,60.0,60.0,4.0,0.0
104,63.0,0.0,60.0,5.0,0.0
105,61.0,0.0,60.0,4.0,0.0
106,61.0,0.0,60.0,5.0,0.0
107,61.0,0.0,240.0,3.0,0.0
108,46.0,0.0,240.0,3.0,0.0
109,46.0,120.0,240.0,13.0,0.0
110,60.0,0.0,60.0,4.0,0.0
111,61.0,0.0,240.0,11.0,0.0
112,53.0,0.0,240.0,3.0,0.0
113,60.0,60.0,60.0,5.0,0.0
114,46.0,0.0,120.0,7.0,0.0
115,53.0,60.0,120.0,6.0,0.0
116,46.0,0.0,120.0,15.0,0.0
117,34.0,0.0,120.0,8.0,0.0
118,49.0,0.0,120.0,6.0,0.0
119,65.0,0.0,240.0,10.0,0.0
120,53.0,0.0,240.0,12.0,0.0
121,58.0,0.0,60.0,4.0,0.0
122,58.0,0.0,60.0,5.0,0.0
123,57.0,60.0,60.0,4.0,0.0
124,53.0,0.0,120.0,6.0,0.0
125,49.0,0.0,120.0,6.0,0.0
126,46.0,0.0,120.0,15.0,0.0
127,34.0,0.0,120.0,8.0,0.0
128,46.0,0.0,120.0,7.0,0.0
129,57.0,0.0,60.0,5.0,0.0
130,58.0,0.0,60.0,4.0,0.0
131,58.0,0.0,60.0,5.0,0.0
132,63.0,0.0,240.0,0.0,0.0
133,66.0,0.0,240.0,0.0,0.0
134,60.0,0.0,720.0,12.0,0.0
135,66.0,0.0,720.0,10.0,0.0
136,45.0,0.0,720.0,3.0,0.0
137,33.0,0.0,120.0,8.0,0.0
138,45.0,0.0,240.0,1.0,0.0
139,60.0,0.0,720.0,3.0,0.0
140,45.0,0.0,120.0,7.0,0.0
141,63.0,0.0,720.0,11.0,0.0
142,45.0,0.0,720.0,13.0,0.0
143,60.0,0.0,240.0,1.0,0.0
144,45.0,0.0,120.0,15.0,0.0
145,63.0,0.0,720.0,3.0,0.0
146,72.0,0.0,240.0,2.0,0.0
147,48.0,0.0,120.0,6.0,0.0
148,51.0,60.0,120.0,6.0,0.0
149,54.0,0.0,60.0,5.0,0.0
150,54.0,0.0,60.0,4.0,0.0
151,51.0,0.0,120.0,6.0,0.0
152,66.0,0.0,60.0,5.0,0.0
153,66.0,60.0,60.0,4.0,0.0
154,33.0,0.0,120.0,8.0,0.0
155,48.0,60.0,120.0,6.0,0.0
156,45.0,0.0,120.0,7.0,0.0
157,45.0,0.0,120.0,15.0,0.0
158,65.0,0.0,60.0,5.0,0.0
159,65.0,0.0,60.0,4.0,0.0
160,68.0,60.0,60.0,4.0,0.0
161,51.0,0.0,120.0,6.0,0.0
162,48.0,0.0,120.0,6.0,0.0
163,45.0,0.0,120.0,15.0,0.0
164,68.0,0.0,60.0,5.0,0.0
165,33.0,0.0,120.0,8.0,0.0
166,45.0,0.0,120.0,7.0,0.0
167,66.0,0.0,60.0,5.0,0.0
168,66.0,60.0,60.0,4.0,0.0
169,45.0,0.0,120.0,15.0,0.0
170,45.0,60.0,120.0,7.0,0.0
171,48.0,0.0,120.0,6.0,0.0
172,51.0,0.0,120.0,6.0,0.0
173,65.0,0.0,60.0,5.0,0.0
174,65.0,60.0,60.0,4.0,0.0
175,33.0,0.0,120.0,8.0,0.0
176,63.0,0.0,60.0,4.0,0.0
177,63.0,0.0,60.0,5.0,0.0
178,61.0,60.0,60.0,5.0,0.0
179,45.0,0.0,120.0,15.0,0.0
180,33.0,0.0,120.0,8.0,0.0
181,45.0,0.0,120.0,7.0,0.0
182,51.0,0.0,120.0,6.0,0.0
183,61.0,0.0,60.0,4.0,0.0
184,48.0,0.0,120.0,6.0,0.0
185,60.0,60.0,60.0,4.0,0.0
186,60.0,0.0,60.0,5.0,0.0
187,45.0,120.0,120.0,7.0,0.0
188,48.0,0.0,120.0,6.0,0.0
189,51.0,0.0,120.0,6.0,0.0
190,58.0,0.0,60.0,4.0,0.0
191,45.0,0.0,120.0,15.0,0.0
192,33.0,0.0,120.0,8.0,0.0
193,58.0,60.0,60.0,5.0,0.0
194,57.0,0.0,60.0,4.0,0.0
195,57.0,0.0,60.0,5.0,0.0
196,61.0,0.0,240.0,1.0,0.0
197,46.0,0.0,240.0,1.0,0.0
198,53.0,0.0,240.0,3.0,0.0
199,61.0,0.0,240.0,0.0,0.0
200,61.0,0.0,240.0,11.0,0.0
201,65.0,0.0,240.0,0.0,0.0
202,65.0,60.0,240.0,10.0,0.0
203,46.0,0.0,120.0,15.0,0.0
204,46.0,0.0,240.0,13.0,0.0
205,53.0,0.0,240.0,12.0,0.0
206,34.0,0.0,120.0,8.0,0.0
207,49.0,0.0,120.0,6.0,0.0
208,70.0,0.0,240.0,2.0,0.0
209,58.0,0.0,240.0,2.0,0.0
210,46.0,60.0,120.0,7.0,0.0
211,61.0,0.0,240.0,3.0,0.0
212,46.0,0.0,240.0,14.0,0.0
213,46.0,0.0,240.0,3.0,0.0
214,53.0,0.0,60.0,4.0,0.0
215,53.0,0.0,60.0,5.0,0.0
216,46.0,0.0,120.0,15.0,0.0
217,46.0,0.0,120.0,7.0,0.0
218,65.0,0.0,60.0,5.0,0.0
219,65.0,60.0,60.0,4.0,0.0
220,34.0,0.0,120.0,8.0,0.0
221,49.0,0.0,120.0,6.0,0.0
222,64.0,0.0,60.0,4.0,0.0
223,64.0,0.0,60.0,5.0,0.0
224,49.0,60.0,120.0,6.0,0.0
225,34.0,0.0,120.0,8.0,0.0
226,46.0,0.0,120.0,15.0,0.0
227,46.0,0.0,120.0,7.0,0.0
228,66.0,60.0,60.0,5.0,0.0
229,66.0,0.0,60.0,4.0,0.0
230,65.0,0.0,60.0,5.0,0.0
231,65.0,0.0,60.0,4.0,0.0
232,46.0,0.0,120.0,7.0,0.0
233,46.0,0.0,120.0,15.0,0.0
234,34.0,0.0,120.0,8.0,0.0
235,49.0,60.0,120.0,6.0,0.0
236,63.0,60.0,60.0,4.0,0.0
237,63.0,0.0,60.0,5.0,0.0
238,61.0,0.0,60.0,4.0,0.0
239,61.0,0.0,60.0,5.0,0.0
240,60.0,60.0,60.0,5.0,0.0
241,58.0,120.0,240.0,12.0,0.0
242,61.0,0.0,240.0,3.0,0.0
243,58.0,0.0,240.0,3.0,0.0
244,46.0,0.0,120.0,15.0,0.0
245,61.0,0.0,240.0,11.0,0.0
246,34.0,0.0,120.0,8.0,0.0
247,46.0,0.0,240.0,3.0,0.0
248,60.0,0.0,60.0,4.0,0.0
249,46.0,0.0,120.0,7.0,0.0
250,65.0,0.0,240.0,10.0,0.0
251,49.0,0.0,120.0,6.0,0.0
252,46.0,0.0,240.0,13.0,0.0
253,58.0,0.0,60.0,4.0,0.0
254,58.0,60.0,60.0,5.0,0.0
255,34.0,0.0,120.0,8.0,0.0
256,57.0,0.0,60.0,4.0,0.0
257,46.0,0.0,120.0,15.0,0.0
258,57.0,60.0,60.0,5.0,0.0
259,49.0,0.0,120.0,6.0,0.0
260,46.0,0.0,120.0,7.0,0.0
261,58.0,0.0,60.0,5.0,0.0
262,58.0,0.0,60.0,4.0,0.0
263,48.0,60.0,240.0,1.0,0.0
264,54.0,0.0,720.0,3.0,0.0
265,63.0,120.0,720.0,11.0,0.0
266,63.0,0.0,240.0,1.0,0.0
267,69.0,0.0,720.0,10.0,0.0
268,48.0,0.0,120.0,7.0,0.0
269,48.0,0.0,720.0,13.0,0.0
270,48.0,0.0,720.0,3.0,0.0
271,48.0,0.0,120.0,15.0,0.0
272,69.0,0.0,240.0,0.0,0.0
273,66.0,0.0,240.0,0.0,0.0
274,54.0,0.0,120.0,6.0,0.0
275,51.0,60.0,120.0,6.0,0.0
276,54.0,0.0,720.0,12.0,0.0
277,63.0,0.0,720.0,3.0,0.0
278,36.0,0.0,120.0,8.0,0.0
279,60.0,0.0,60.0,4.0,0.0
280,60.0,0.0,60.0,5.0,0.0
281,48.0,0.0,120.0,15.0,0.0
282,36.0,0.0,120.0,8.0,0.0
283,54.0,0.0,120.0,6.0,0.0
284,70.0,0.0,60.0,5.0,0.0
285,48.0,0.0,120.0,7.0,0.0
286,51.0,0.0,120.0,6.0,0.0
287,70.0,60.0,60.0,4.0,0.0
288,69.0,0.0,60.0,5.0,0.0
289,69.0,0.0,60.0,4.0,0.0
290,72.0,60.0,60.0,5.0,0.0
291,36.0,0.0,120.0,8.0,0.0
292,72.0,0.0,60.0,4.0,0.0
293,51.0,0.0,120.0,6.0,0.0
294,54.0,60.0,120.0,6.0,0.0
295,48.0,0.0,120.0,15.0,0.0
296,48.0,0.0,120.0,7.0,0.0
297,70.0,0.0,60.0,4.0,0.0
298,70.0,0.0,60.0,5.0,0.0
299,69.0,0.0,60.0,5.0,0.0
300,48.0,0.0,120.0,15.0,0.0
301,36.0,0.0,120.0,8.0,0.0
302,48.0,0.0,120.0,7.0,0.0
303,69.0,60.0,60.0,4.0,0.0
304,54.0,0.0,120.0,6.0,0.0
305,51.0,0.0,120.0,6.0,0.0
306,66.0,60.0,60.0,5.0,0.0
307,66.0,0.0,60.0,4.0,0.0
308,65.0,0.0,60.0,5.0,0.0
309,51.0,0.0,120.0,6.0,0.0
310,54.0,0.0,120.0,6.0,0.0
311,36.0,0.0,120.0,8.0,0.0
312,48.0,60.0,120.0,7.0,0.0
313,48.0,0.0,120.0,15.0,0.0
314,65.0,60.0,60.0,4.0,0.0
315,63.0,0.0,60.0,4.0,0.0
316,63.0,0.0,60.0,5.0,0.0
317,48.0,0.0,120.0,7.0,0.0
318,61.0,0.0,60.0,5.0,0.0
319,48.0,0.0,120.0,15.0,0.0
320,61.0,60.0,60.0,4.0,0.0
321,51.0,0.0,120.0,6.0,0.0
322,54.0,0.0,120.0,6.0,0.0
323,36.0,0.0,120.0,8.0,0.0
324,60.0,0.0,60.0,5.0,0.0
325,60.0,0.0,60.0,4.0,0.0
326,53.0,0.0,120.0,6.0,0.0
327,49.0,0.0,240.0,1.0,0.0
328,53.0,0.0,240.0,3.0,0.0
329,58.0,0.0,240.0,2.0,0.0
330,65.0,0.0,240.0,0.0,0.0
331,70.0,0.0,240.0,0.0,0.0
332,49.0,0.0,240.0,13.0,0.0
333,61.0,0.0,240.0,3.0,0.0
334,49.0,0.0,120.0,7.0,0.0
335,70.0,0.0,240.0,2.0,0.0
336,49.0,60.0,120.0,15.0,0.0
337,49.0,0.0,120.0,6.0,0.0
338,46.0,0.0,240.0,14.0,0.0
339,53.0,0.0,240.0,12.0,0.0
340,61.0,60.0,240.0,11.0,0.0
341,49.0,0.0,240.0,3.0,0.0
342,61.0,0.0,240.0,1.0,0.0
343,70.0,0.0,240.0,10.0,0.0
344,37.0,0.0,120.0,8.0,0.0
345,58.0,0.0,60.0,4.0,0.0
346,58.0,0.0,60.0,5.0,0.0
347,53.0,0.0,120.0,6.0,0.0
348,37.0,0.0,120.0,8.0,0.0
349,73.0,0.0,60.0,4.0,0.0
350,73.0,60.0,60.0,5.0,0.0
351,49.0,0.0,120.0,6.0,0.0
352,49.0,0.0,120.0,7.0,0.0
353,49.0,0.0,120.0,15.0,0.0
354,72.0,0.0,60.0,5.0,0.0
355,72.0,0.0,60.0,4.0,0.0
356,37.0,0.0,120.0,8.0,0.0
357,70.0,0.0,60.0,5.0,0.0
358,49.0,0.0,120.0,6.0,0.0
359,49.0,60.0,120.0,15.0,0.0
360,53.0,0.0,120.0,6.0,0.0
361,70.0,60.0,60.0,4.0,0.0
362,49.0,0.0,120.0,7.0,0.0
363,77.0,0.0,60.0,4.0,0.0
364,77.0,0.0,60.0,5.0,0.0
365,75.0,60.0,60.0,4.0,0.0
366,53.0,0.0,120.0,6.0,0.0
367,37.0,0.0,120.0,8.0,0.0
368,49.0,0.0,120.0,15.0,0.0
369,49.0,0.0,120.0,7.0,0.0
370,49.0,0.0,120.0,6.0,0.0
371,75.0,0.0,60.0,5.0,0.0
372,73.0,60.0,60.0,4.0,0.0
373,73.0,0.0,60.0,5.0,0.0
374,70.0,0.0,240.0,10.0,0.0
375,49.0,60.0,120.0,7.0,0.0
376,58.0,0.0,240.0,3.0,0.0
377,49.0,0.0,240.0,13.0,0.0
378,49.0,0.0,120.0,15.0,0.0
379,72.0,60.0,60.0,4.0,0.0
380,58.0,0.0,240.0,12.0,0.0
381,49.0,0.0,240.0,3.0,0.0
382,49.0,0.0,120.0,6.0,0.0
383,65.0,0.0,240.0,3.0,0.0
384,72.0,0.0,60.0,5.0,0.0
385,53.0,0.0,120.0,6.0,0.0
386,65.0,120.0,240.0,11.0,0.0
387,37.0,0.0,120.0,8.0,0.0
388,70.0,0.0,60.0,5.0,0.0
389,70.0,0.0,60.0,4.0,0.0
390,69.0,0.0,60.0,5.0,0.0
391,49.0,0.0,120.0,15.0,0.0
392,37.0,0.0,120.0,8.0,0.0
393,49.0,0.0,120.0,6.0,0.0
394,53.0,0.0,120.0,6.0,0.0
395,49.0,0.0,120.0,7.0,0.0
396,69.0,60.0,60.0,4.0,0.0
397,70.0,0.0,60.0,4.0,0.0
398,70.0,0.0,60.0,5.0,0.0
399,39.0,60.0,120.0,8.0,0.0
400,58.0,0.0,480.0,3.0,0.0
401,51.0,0.0,120.0,15.0,0.0
402,66.0,0.0,480.0,11.0,0.0
403,46.0,0.0,240.0,14.0,0.0
404,58.0,0.0,480.0,12.0,0.0
405,51.0,0.0,480.0,13.0,0.0
406,51.0,0.0,240.0,1.0,0.0
407,51.0,0.0,120.0,6.0,0.0
408,54.0,0.0,120.0,6.0,0.0
409,66.0,0.0,240.0,0.0,0.0
410,72.0,0.0,240.0,0.0,0.0
411,72.0,0.0,480.0,10.0,0.0
412,66.0,0.0,480.0,3.0,0.0
413,51.0,0.0,480.0,3.0,0.0
414,51.0,0.0,120.0,7.0,0.0
415,58.0,60.0,240.0,2.0,0.0
416,70.0,0.0,240.0,2.0,0.0
417,58.0,0.0,240.0,1.0,0.0
418,72.0,0.0,60.0,5.0,0.0
419,72.0,0.0,60.0,4.0,0.0
420,54.0,0.0,120.0,6.0,0.0
421,39.0,0.0,120.0,8.0,0.0
422,51.0,0.0,120.0,15.0,0.0
423,51.0,0.0,120.0,6.0,0.0
424,75.0,60.0,60.0,5.0,0.0
425,51.0,0.0,120.0,7.0,0.0
426,75.0,0.0,60.0,4.0,0.0
427,73.0,0.0,60.0,4.0,0.0
428,73.0,0.0,60.0,5.0,0.0
429,51.0,0.0,120.0,7.0,0.0
430,72.0,60.0,60.0,5.0,0.0
431,51.0,0.0,120.0,6.0,0.0
432,51.0,0.0,120.0,15.0,0.0
433,72.0,0.0,60.0,4.0,0.0
434,39.0,0.0,120.0,8.0,0.0
435,54.0,60.0,120.0,6.0,0.0
436,78.0,0.0,60.0,5.0,0.0
437,78.0,0.0,60.0,4.0,0.0
438,51.0,60.0,120.0,15.0,0.0
439,54.0,0.0,120.0,6.0,0.0
440,77.0,60.0,60.0,5.0,0.0
441,51.0,0.0,120.0,7.0,0.0
442,51.0,0.0,120.0,6.0,0.0
443,77.0,0.0,60.0,4.0,0.0
444,39.0,0.0,120.0,8.0,0.0
445,75.0,0.0,60.0,5.0,0.0
446,75.0,0.0,60.0,4.0,0.0
447,72.0,0.0,240.0,10.0,0.0
448,58.0,0.0,240.0,12.0,0.0
449,66.0,0.0,240.0,3.0,0.0
450,51.0,0.0,120.0,15.0,0.0
451,51.0,0.0,240.0,13.0,0.0
452,51.0,0.0,240.0,3.0,0.0
453,51.0,0.0,120.0,7.0,0.0
454,66.0,0.0,240.0,11.0,0.0
455,54.0,60.0,120.0,6.0,0.0
456,51.0,0.0,120.0,6.0,0.0
457,58.0,0.0,240.0,3.0,0.0
458,73.0,0.0,60.0,4.0,0.0
459,73.0,60.0,60.0,5.0,0.0
460,39.0,0.0,120.0,8.0,0.0
461,72.0,0.0,60.0,4.0,0.0
462,72.0,0.0,60.0,5.0,0.0
463,39.0,0.0,120.0,8.0,0.0
464,70.0,60.0,60.0,4.0,0.0
465,70.0,0.0,60.0,5.0,0.0
466,51.0,60.0,120.0,6.0,0.0
467,51.0,0.0,120.0,7.0,0.0
468,51.0,0.0,120.0,15.0,0.0
469,54.0,0.0,120.0,6.0,0.0
470,72.0,0.0,60.0,4.0,0.0
471,72.0,0.0,60.0,5.0,0.0
472,52.0,0.0,720.0,3.0,0.0
473,40.0,0.0,120.0,8.0,0.0
474,67.0,120.0,720.0,3.0,0.0
475,73.0,0.0,720.0,10.0,0.0
476,46.0,60.0,60.0,14.0,0.0
477,70.0,0.0,720.0,0.0,0.0
478,52.0,0.0,720.0,1.0,0.0
479,67.0,0.0,720.0,0.0,0.0
480,70.0,0.0,720.0,2.0,0.0
481,58.0,0.0,720.0,2.0,0.0
482,55.0,0.0,120.0,6.0,0.0
483,58.0,0.0,720.0,3.0,0.0
484,61.0,0.0,720.0,1.0,0.0
485,52.0,60.0,120.0,15.0,0.0
486,58.0,0.0,720.0,12.0,0.0
487,52.0,0.0,720.0,13.0,0.0
488,67.0,0.0,720.0,11.0,0.0
489,52.0,0.0,120.0,7.0,0.0
490,46.0,0.0,60.0,14.0,0.0
491,61.0,0.0,60.0,4.0,0.0
492,61.0,0.0,60.0,5.0,0.0
493,46.0,0.0,60.0,14.0,0.0
494,52.0,0.0,120.0,15.0,0.0
495,73.0,0.0,60.0,4.0,0.0
496,55.0,0.0,120.0,6.0,0.0
497,73.0,60.0,60.0,5.0,0.0
498,52.0,0.0,120.0,7.0,0.0
499,40.0,30.0,120.0,8.0,0.0
500,72.0,0.0,60.0,4.0,0.0
501,72.0,0.0,60.0,5.0,0.0
502,46.0,0.0,60.0,14.0,0.0
503,75.0,0.0,60.0,4.0,0.0
504,52.0,30.0,120.0,7.0,0.0
505,40.0,0.0,120.0,8.0,0.0
506,52.0,0.0,120.0,15.0,0.0
507,75.0,0.0,60.0,5.0,0.0
508,55.0,0.0,120.0,6.0,0.0
509,46.0,30.0,30.0,14.0,0.0
510,46.0,30.0,30.0,14.0,0.0
511,73.0,0.0,60.0,5.0,0.0
512,46.0,30.0,30.0,14.0,0.0
513,73.0,0.0,60.0,4.0,0.0
514,46.0,0.0,30.0,14.0,0.0
515,40.0,30.0,120.0,8.0,0.0
516,72.0,0.0,60.0,4.0,0.0
517,52.0,0.0,120.0,15.0,0.0
518,46.0,30.0,30.0,14.0,0.0
519,72.0,0.0,60.0,5.0,0.0
520,61.0,0.0,120.0,6.0,0.0
521,52.0,0.0,120.0,7.0,0.0
522,46.0,30.0,30.0,14.0,0.0
523,70.0,0.0,60.0,4.0,0.0
524,46.0,30.0,30.0,14.0,0.0
525,70.0,0.0,60.0,5.0,0.0
526,46.0,0.0,30.0,14.0,0.0
527,40.0,0.0,120.0,8.0,0.0
528,69.0,30.0,60.0,5.0,0.0
529,52.0,0.0,120.0,15.0,0.0
530,69.0,0.0,60.0,4.0,0.0
531,52.0,0.0,120.0,7.0,0.0
532,61.0,0.0,120.0,6.0,0.0
533,46.0,30.0,30.0,14.0,0.0
534,46.0,0.0,30.0,14.0,0.0
535,46.0,30.0,30.0,14.0,0.0
536,70.0,0.0,60.0,5.0,0.0
537,70.0,0.0,60.0,4.0,0.0
538,46.0,30.0,30.0,14.0,0.0
539,52.0,0.0,120.0,7.0,0.0
540,72.0,0.0,60.0,5.0,0.0
541,40.0,0.0,120.0,8.0,0.0
542,46.0,30.0,30.0,14.0,0.0
543,72.0,30.0,60.0,4.0,0.0
544,61.0,0.0,120.0,6.0,0.0
545,52.0,0.0,120.0,15.0,0.0
546,46.0,0.0,30.0,14.0,0.0
547,46.0,30.0,30.0,14.0,0.0
548,70.0,0.0,60.0,5.0,0.0
549,70.0,0.0,60.0,4.0,0.0
550,46.0,0.0,30.0,14.0,0.0
551,53.0,0.0,240.0,7.0,0.0
552,53.0,0.0,240.0,1.0,0.0
553,69.0,0.0,240.0,0.0,0.0
554,41.0,0.0,240.0,8.0,0.0
555,60.0,0.0,240.0,11.0,0.0
556,57.0,0.0,240.0,12.0,0.0
557,72.0,0.0,240.0,10.0,0.0
558,60.0,0.0,240.0,1.0,0.0
559,65.0,0.0,240.0,0.0,0.0
560,53.0,0.0,180.0,2.0,0.0
561,57.0,0.0,240.0,3.0,0.0
562,69.0,240.0,240.0,5.0,0.0
563,77.0,0.0,240.0,5.0,0.0
564,53.0,0.0,240.0,3.0,0.0
565,53.0,0.0,240.0,15.0,0.0
566,41.0,30.0,120.0,14.0,0.0
567,60.0,0.0,240.0,6.0,0.0
568,69.0,0.0,240.0,4.0,0.0
569,77.0,0.0,240.0,4.0,0.0
570,60.0,0.0,240.0,3.0,0.0
571,53.0,0.0,240.0,13.0,0.0
572,65.0,30.0,180.0,2.0,0.0
573,41.0,30.0,30.0,14.0,0.0
574,41.0,0.0,30.0,14.0,0.0
575,65.0,0.0,60.0,2.0,0.0
576,41.0,30.0,30.0,14.0,0.0
577,53.0,0.0,60.0,2.0,0.0
578,41.0,0.0,30.0,14.0,0.0
579,65.0,0.0,240.0,2.0,0.0
580,41.0,0.0,240.0,14.0,0.0
581,53.0,360.0,240.0,4.0,0.0
582,53.0,0.0,240.0,5.0,0.0
583,53.0,0.0,240.0,2.0,0.0
584,37.0,120.0,120.0,8.0,0.0
585,49.0,0.0,120.0,7.0,0.0
586,37.0,120.0,120.0,8.0,0.0
587,49.0,0.0,120.0,7.0,0.0
588,49.0,0.0,240.0,13.0,0.0
589,37.0,0.0,120.0,8.0,0.0
590,49.0,120.0,120.0,7.0,0.0
591,37.0,0.0,120.0,8.0,0.0
592,49.0,120.0,120.0,7.0,0.0
593,49.0,0.0,120.0,7.0,0.0
594,37.0,120.0,120.0,8.0,0.0
595,49.0,120.0,240.0,13.0,0.0
596,49.0,0.0,120.0,7.0,0.0
597,37.0,0.0,120.0,8.0,0.0
598,29.0,0.0,120.0,8.0,0.0
599,41.0,120.0,120.0,7.0,0.0
600,41.0,0.0,480.0,13.0,0.0
601,41.0,120.0,120.0,7.0,0.0
602,29.0,0.0,120.0,8.0,0.0
603,61.0,0.0,240.0,5.0,0.0
604,49.0,0.0,240.0,6.0,0.0
605,41.0,120.0,120.0,7.0,0.0
606,49.0,120.0,240.0,12.0,0.0
607,61.0,0.0,240.0,11.0,0.0
608,29.0,0.0,120.0,8.0,0.0
609,68.0,0.0,240.0,4.0,0.0
610,68.0,0.0,240.0,10.0,0.0
611,41.0,0.0,120.0,7.0,0.0
612,29.0,0.0,120.0,8.0,0.0
613,68.0,0.0,240.0,10.0,0.0
614,49.0,0.0,240.0,6.0,0.0
615,59.0,0.0,240.0,5.0,0.0
616,59.0,0.0,240.0,11.0,0.0
617,49.0,0.0,240.0,12.0,0.0
618,68.0,120.0,240.0,4.0,0.0
619,41.0,0.0,120.0,7.0,0.0
620,29.0,120.0,120.0,8.0,0.0
621,41.0,0.0,240.0,13.0,0.0
622,41.0,0.0,120.0,7.0,0.0
623,29.0,0.0,120.0,8.0,0.0
624,42.0,0.0,480.0,13.0,0.0
625,49.0,120.0,120.0,12.0,0.0
626,68.0,0.0,240.0,4.0,0.0
627,59.0,0.0,240.0,5.0,0.0
628,30.0,0.0,120.0,8.0,0.0
629,42.0,0.0,120.0,7.0,0.0
630,49.0,0.0,120.0,6.0,0.0
631,68.0,0.0,240.0,10.0,0.0
632,59.0,120.0,240.0,11.0,0.0
633,30.0,0.0,120.0,8.0,0.0
634,50.0,0.0,120.0,12.0,0.0
635,50.0,0.0,120.0,6.0,0.0
636,42.0,0.0,120.0,7.0,0.0
637,58.0,0.0,120.0,5.0,0.0
638,51.0,0.0,120.0,12.0,0.0
639,58.0,0.0,120.0,11.0,0.0
640,66.0,120.0,120.0,4.0,0.0
641,66.0,0.0,120.0,10.0,0.0
642,51.0,0.0,120.0,6.0,0.0
643,42.0,0.0,120.0,7.0,0.0
644,30.0,0.0,120.0,8.0,0.0
645,42.0,0.0,120.0,7.0,0.0
646,65.0,0.0,120.0,10.0,0.0
647,56.0,0.0,120.0,5.0,0.0
648,53.0,120.0,120.0,12.0,0.0
649,65.0,0.0,120.0,4.0,0.0
650,53.0,0.0,120.0,6.0,0.0
651,56.0,0.0,120.0,11.0,0.0
652,30.0,0.0,120.0,8.0,0.0
653,63.0,0.0,120.0,4.0,0.0
654,30.0,0.0,120.0,8.0,0.0
655,63.0,0.0,120.0,10.0,0.0
656,42.0,120.0,120.0,13.0,0.0
657,54.0,0.0,120.0,6.0,0.0
658,42.0,0.0,120.0,7.0,0.0
659,54.0,0.0,120.0,11.0,0.0
660,54.0,0.0,120.0,12.0,0.0
661,54.0,0.0,120.0,5.0,0.0
662,43.0,0.0,120.0,7.0,0.0
663,53.0,0.0,120.0,5.0,0.0
664,31.0,0.0,120.0,8.0,0.0
665,43.0,0.0,120.0,13.0,0.0
666,53.0,0.0,120.0,11.0,0.0
667,61.0,120.0,120.0,4.0,0.0
668,58.0,0.0,120.0,12.0,0.0
669,61.0,0.0,120.0,10.0,0.0
670,58.0,0.0,120.0,6.0,0.0
671,32.0,120.0,120.0,8.0,0.0
672,44.0,0.0,480.0,13.0,0.0
673,56.0,0.0,480.0,12.0,0.0
674,53.0,0.0,480.0,11.0,0.0
675,61.0,0.0,480.0,10.0,0.0
676,53.0,0.0,120.0,5.0,0.0
677,56.0,0.0,120.0,6.0,0.0
678,44.0,0.0,120.0,7.0,0.0
679,61.0,30.0,480.0,4.0,0.0
680,44.0,120.0,120.0,7.0,0.0
681,53.0,0.0,120.0,5.0,0.0
682,56.0,0.0,120.0,6.0,0.0
683,32.0,0.0,120.0,8.0,0.0
684,44.0,0.0,120.0,7.0,0.0
685,53.0,0.0,120.0,5.0,0.0
686,56.0,120.0,120.0,6.0,0.0
687,32.0,0.0,120.0,8.0,0.0
688,53.0,0.0,120.0,5.0,0.0
689,44.0,0.0,120.0,7.0,0.0
690,56.0,0.0,120.0,6.0,0.0
691,32.0,0.0,120.0,8.0,0.0
692,54.0,0.0,240.0,11.0,0.0
693,65.0,60.0,60.0,10.0,0.0
694,65.0,30.0,30.0,4.0,0.0
695,32.0,0.0,120.0,8.0,0.0
696,54.0,60.0,120.0,5.0,0.0
697,44.0,0.0,120.0,7.0,0.0
698,48.0,0.0,120.0,6.0,0.0
699,48.0,0.0,240.0,12.0,0.0
700,44.0,0.0,240.0,13.0,0.0
701,63.0,60.0,150.0,4.0,0.0
702,63.0,0.0,180.0,10.0,0.0
703,44.0,0.0,120.0,7.0,0.0
704,54.0,240.0,120.0,5.0,0.0
705,32.0,0.0,120.0,8.0,0.0
706,48.0,0.0,120.0,6.0,0.0
707,61.0,0.0,60.0,4.0,0.0
708,49.0,0.0,240.0,12.0,0.0
709,61.0,0.0,240.0,4.0,0.0
710,49.0,240.0,240.0,6.0,0.0
711,53.0,0.0,240.0,11.0,0.0
712,25.0,0.0,240.0,8.0,0.0
713,37.0,0.0,240.0,7.0,0.0
714,61.0,0.0,240.0,10.0,0.0
715,37.0,0.0,240.0,13.0,0.0
716,53.0,0.0,240.0,5.0,0.0
717,61.0,0.0,240.0,0.0,0.0
718,49.0,0.0,240.0,1.0,0.0
719,68.0,0.0,240.0,0.0,0.0
720,41.0,240.0,240.0,1.0,0.0
721,41.0,120.0,240.0,1.0,0.0
722,59.0,0.0,240.0,0.0,0.0
723,49.0,0.0,240.0,1.0,0.0
724,68.0,0.0,240.0,0.0,0.0
725,49.0,120.0,120.0,1.0,0.0
726,59.0,0.0,240.0,0.0,0.0
727,68.0,0.0,240.0,0.0,0.0
728,42.0,0.0,600.0,1.0,0.0
729,50.0,120.0,120.0,1.0,0.0
730,51.0,120.0,120.0,1.0,0.0
731,66.0,0.0,120.0,0.0,0.0
732,58.0,0.0,120.0,0.0,0.0
733,56.0,0.0,120.0,0.0,0.0
734,65.0,0.0,120.0,0.0,0.0
735,53.0,120.0,120.0,1.0,0.0
736,63.0,120.0,120.0,0.0,0.0
737,54.0,0.0,120.0,0.0,0.0
738,54.0,0.0,120.0,1.0,0.0
739,53.0,480.0,120.0,0.0,0.0
740,58.0,0.0,120.0,1.0,0.0
741,43.0,0.0,120.0,1.0,0.0
742,61.0,0.0,120.0,0.0,0.0
743,61.0,0.0,480.0,0.0,0.0
744,53.0,0.0,480.0,0.0,0.0
745,44.0,30.0,480.0,1.0,0.0
746,56.0,0.0,480.0,1.0,0.0
747,32.0,0.0,240.0,8.0,0.0
748,44.0,0.0,240.0,3.0,0.0
749,53.0,0.0,240.0,3.0,0.0
750,61.0,0.0,240.0,3.0,0.0
751,44.0,0.0,240.0,7.0,0.0
752,54.0,0.0,240.0,3.0,0.0
753,54.0,0.0,240.0,0.0,0.0
754,32.0,0.0,240.0,8.0,0.0
755,32.0,0.0,240.0,1.0,0.0
756,48.0,0.0,240.0,1.0,0.0
757,44.0,0.0,240.0,7.0,0.0
758,60.0,0.0,240.0,3.0,0.0
759,65.0,150.0,30.0,0.0,0.0
760,44.0,120.0,240.0,3.0,0.0
761,63.0,60.0,150.0,0.0,0.0
762,61.0,0.0,60.0,0.0,0.0
763,37.0,0.0,120.0,15.0,0.0
764,53.0,0.0,240.0,0.0,0.0
765,61.0,0.0,240.0,3.0,0.0
766,25.0,0.0,120.0,8.0,0.0
767,37.0,60.0,120.0,7.0,0.0
768,61.0,0.0,240.0,0.0,0.0
769,53.0,0.0,120.0,6.0,0.0
770,53.0,0.0,240.0,3.0,0.0
771,49.0,0.0,240.0,3.0,0.0
772,49.0,0.0,240.0,1.0,0.0
773,37.0,0.0,240.0,1.0,0.0
774,56.0,0.0,60.0,4.0,0.0
775,56.0,0.0,60.0,5.0,0.0
776,68.0,60.0,60.0,4.0,0.0
777,49.0,60.0,120.0,15.0,0.0
778,53.0,0.0,120.0,6.0,0.0
779,37.0,0.0,120.0,8.0,0.0
780,49.0,0.0,120.0,7.0,0.0
781,68.0,0.0,60.0,5.0,0.0
782,67.0,0.0,60.0,5.0,0.0
783,67.0,0.0,60.0,4.0,0.0
784,61.0,0.0,240.0,11.0,0.0
785,61.0,0.0,240.0,3.0,0.0
786,56.0,0.0,240.0,12.0,0.0
787,65.0,0.0,240.0,10.0,0.0
788,70.0,60.0,60.0,5.0,0.0
789,49.0,0.0,240.0,13.0,0.0
790,65.0,0.0,240.0,0.0,0.0
791,61.0,0.0,240.0,0.0,0.0
792,53.0,0.0,120.0,6.0,0.0
793,49.0,0.0,120.0,15.0,0.0
794,37.0,0.0,120.0,8.0,0.0
795,56.0,0.0,240.0,3.0,0.0
796,49.0,0.0,240.0,3.0,0.0
797,70.0,0.0,60.0,4.0,0.0
798,49.0,60.0,120.0,7.0,0.0
799,56.0,0.0,240.0,1.0,0.0
800,49.0,0.0,240.0,1.0,0.0
801,68.0,0.0,60.0,5.0,0.0
802,68.0,0.0,60.0,4.0,0.0
803,49.0,0.0,120.0,7.0,0.0
804,53.0,0.0,120.0,6.0,0.0
805,66.0,60.0,60.0,4.0,0.0
806,37.0,0.0,120.0,8.0,0.0
807,49.0,60.0,120.0,15.0,0.0
808,66.0,0.0,60.0,5.0,0.0
809,65.0,0.0,60.0,4.0,0.0
810,65.0,0.0,60.0,5.0,0.0
811,37.0,0.0,120.0,8.0,0.0
812,61.0,120.0,240.0,3.0,0.0
813,61.0,0.0,240.0,0.0,0.0
814,65.0,0.0,240.0,0.0,0.0
815,63.0,0.0,60.0,4.0,0.0
816,49.0,0.0,120.0,15.0,0.0
817,56.0,0.0,240.0,3.0,0.0
818,49.0,0.0,240.0,3.0,0.0
819,53.0,0.0,120.0,6.0,0.0
820,56.0,0.0,240.0,12.0,0.0
821,61.0,0.0,240.0,11.0,0.0
822,63.0,60.0,60.0,5.0,0.0
823,49.0,0.0,240.0,1.0,0.0
824,56.0,0.0,240.0,1.0,0.0
825,65.0,0.0,240.0,10.0,0.0
826,49.0,0.0,120.0,7.0,0.0
827,49.0,0.0,240.0,13.0,0.0
828,61.0,0.0,60.0,4.0,0.0
829,61.0,60.0,60.0,5.0,0.0
830,37.0,0.0,120.0,8.0,0.0
831,49.0,0.0,120.0,7.0,0.0
832,60.0,0.0,60.0,5.0,0.0
833,49.0,0.0,120.0,15.0,0.0
834,53.0,0.0,120.0,6.0,0.0
835,60.0,60.0,60.0,4.0,0.0
836,61.0,0.0,60.0,5.0,0.0
837,61.0,0.0,60.0,4.0,0.0
838,63.0,0.0,240.0,0.0,0.0
839,63.0,0.0,720.0,11.0,0.0
840,63.0,0.0,720.0,3.0,0.0
841,48.0,0.0,720.0,13.0,0.0
842,56.0,0.0,720.0,12.0,0.0
843,48.0,0.0,120.0,7.0,0.0
844,56.0,0.0,720.0,3.0,0.0
845,48.0,0.0,240.0,1.0,0.0
846,66.0,120.0,720.0,10.0,0.0
847,56.0,60.0,240.0,1.0,0.0
848,48.0,0.0,120.0,15.0,0.0
849,53.0,0.0,120.0,6.0,0.0
850,48.0,0.0,720.0,3.0,0.0
851,66.0,0.0,240.0,0.0,0.0
852,36.0,0.0,120.0,8.0,0.0
853,60.0,0.0,60.0,5.0,0.0
854,60.0,60.0,60.0,4.0,0.0
855,48.0,0.0,120.0,15.0,0.0
856,66.0,0.0,60.0,5.0,0.0
857,53.0,0.0,120.0,6.0,0.0
858,48.0,0.0,120.0,7.0,0.0
859,36.0,0.0,120.0,8.0,0.0
860,66.0,60.0,60.0,4.0,0.0
861,65.0,0.0,60.0,5.0,0.0
862,65.0,0.0,60.0,4.0,0.0
863,48.0,0.0,120.0,7.0,0.0
864,53.0,0.0,120.0,6.0,0.0
865,36.0,60.0,120.0,8.0,0.0
866,48.0,0.0,120.0,15.0,0.0
867,68.0,0.0,60.0,5.0,0.0
868,68.0,60.0,60.0,4.0,0.0
869,66.0,0.0,60.0,5.0,0.0
870,66.0,0.0,60.0,4.0,0.0
871,48.0,0.0,120.0,15.0,0.0
872,36.0,0.0,120.0,8.0,0.0
873,65.0,60.0,60.0,4.0,0.0
874,53.0,0.0,120.0,6.0,0.0
875,48.0,0.0,120.0,7.0,0.0
876,65.0,0.0,60.0,5.0,0.0
877,63.0,0.0,60.0,4.0,0.0
878,63.0,60.0,60.0,5.0,0.0
879,61.0,60.0,60.0,5.0,0.0
880,53.0,0.0,120.0,6.0,0.0
881,61.0,0.0,60.0,4.0,0.0
882,48.0,0.0,120.0,15.0,0.0
883,48.0,0.0,120.0,7.0,0.0
884,36.0,60.0,120.0,8.0,0.0
885,60.0,0.0,60.0,4.0,0.0
886,60.0,0.0,60.0,5.0,0.0
887,58.0,60.0,60.0,4.0,0.0
888,36.0,0.0,120.0,8.0,0.0
889,53.0,0.0,120.0,6.0,0.0
890,48.0,0.0,120.0,15.0,0.0
891,48.0,0.0,120.0,7.0,0.0
892,58.0,0.0,60.0,5.0,0.0
893,56.0,0.0,60.0,5.0,0.0
894,56.0,0.0,60.0,4.0,0.0
895,61.0,60.0,240.0,11.0,0.0
896,49.0,0.0,120.0,15.0,0.0
897,56.0,0.0,240.0,1.0,0.0
898,56.0,0.0,240.0,3.0,0.0
899,53.0,0.0,120.0,6.0,0.0
900,49.0,0.0,240.0,3.0,0.0
901,49.0,0.0,240.0,1.0,0.0
902,61.0,0.0,240.0,3.0,0.0
903,65.0,0.0,240.0,10.0,0.0
904,56.0,0.0,240.0,12.0,0.0
905,37.0,0.0,120.0,8.0,0.0
906,49.0,0.0,120.0,7.0,0.0
907,61.0,0.0,240.0,0.0,0.0
908,65.0,0.0,240.0,0.0,0.0
909,49.0,0.0,240.0,13.0,0.0
910,56.0,0.0,60.0,4.0,0.0
911,56.0,60.0,60.0,5.0,0.0
912,49.0,0.0,120.0,15.0,0.0
913,49.0,0.0,120.0,7.0,0.0
914,53.0,0.0,120.0,6.0,0.0
915,37.0,0.0,120.0,8.0,0.0
916,68.0,60.0,60.0,5.0,0.0
917,68.0,0.0,60.0,4.0,0.0
918,67.0,0.0,60.0,5.0,0.0
919,67.0,0.0,60.0,4.0,0.0
920,53.0,0.0,120.0,6.0,0.0
921,70.0,0.0,60.0,4.0,0.0
922,49.0,60.0,120.0,15.0,0.0
923,70.0,60.0,60.0,5.0,0.0
924,37.0,0.0,120.0,8.0,0.0
925,49.0,0.0,120.0,7.0,0.0
926,68.0,0.0,60.0,4.0,0.0
927,68.0,0.0,60.0,5.0,0.0
928,66.0,0.0,60.0,4.0,0.0
929,66.0,60.0,60.0,5.0,0.0
930,49.0,0.0,120.0,7.0,0.0
931,37.0,0.0,120.0,8.0,0.0
932,53.0,60.0,120.0,6.0,0.0
933,49.0,0.0,120.0,15.0,0.0
934,65.0,0.0,60.0,5.0,0.0
935,65.0,0.0,60.0,4.0,0.0
936,53.0,0.0,240.0,3.0,0.0
937,63.0,0.0,60.0,5.0,0.0
938,61.0,0.0,240.0,3.0,0.0
939,58.0,120.0,240.0,12.0,0.0
940,61.0,0.0,240.0,11.0,0.0
941,53.0,0.0,240.0,13.0,0.0
942,53.0,0.0,120.0,6.0,0.0
943,34.0,0.0,120.0,8.0,0.0
944,58.0,0.0,240.0,3.0,0.0
945,63.0,60.0,60.0,4.0,0.0
946,61.0,0.0,240.0,10.0,0.0
947,46.0,0.0,120.0,15.0,0.0
948,46.0,60.0,120.0,7.0,0.0
949,61.0,0.0,60.0,5.0,0.0
950,61.0,0.0,60.0,4.0,0.0
951,60.0,0.0,60.0,5.0,0.0
952,46.0,0.0,120.0,15.0,0.0
953,46.0,0.0,120.0,7.0,0.0
954,34.0,0.0,120.0,8.0,0.0
955,53.0,0.0,120.0,6.0,0.0
956,60.0,60.0,60.0,4.0,0.0
957,61.0,0.0,60.0,4.0,0.0
958,61.0,0.0,60.0,5.0,0.0
959,63.0,0.0,720.0,11.0,0.0
960,43.0,60.0,120.0,7.0,0.0
961,43.0,0.0,120.0,15.0,0.0
962,70.0,0.0,240.0,0.0,0.0
963,63.0,0.0,240.0,0.0,0.0
964,61.0,0.0,720.0,3.0,0.0
965,43.0,0.0,720.0,3.0,0.0
966,70.0,0.0,720.0,10.0,0.0
967,61.0,120.0,720.0,12.0,0.0
968,43.0,0.0,240.0,1.0,0.0
969,61.0,0.0,240.0,1.0,0.0
970,31.0,0.0,120.0,8.0,0.0
971,63.0,0.0,720.0,3.0,0.0
972,43.0,0.0,720.0,13.0,0.0
973,55.0,0.0,120.0,6.0,0.0
974,58.0,0.0,60.0,4.0,0.0
975,58.0,0.0,60.0,5.0,0.0
976,31.0,0.0,120.0,8.0,0.0
977,43.0,60.0,120.0,15.0,0.0
978,70.0,0.0,60.0,4.0,0.0
979,70.0,60.0,60.0,5.0,0.0
980,43.0,0.0,120.0,7.0,0.0
981,54.0,0.0,120.0,6.0,0.0
982,69.0,0.0,60.0,5.0,0.0
983,69.0,0.0,60.0,4.0,0.0
984,43.0,60.0,120.0,15.0,0.0
985,43.0,0.0,120.0,7.0,0.0
986,31.0,0.0,120.0,8.0,0.0
987,72.0,0.0,60.0,5.0,0.0
988,54.0,0.0,120.0,6.0,0.0
989,72.0,60.0,60.0,4.0,0.0
990,70.0,0.0,60.0,4.0,0.0
991,70.0,0.0,60.0,5.0,0.0
992,31.0,60.0,120.0,8.0,0.0
993,58.0,0.0,120.0,6.0,0.0
994,43.0,0.0,120.0,7.0,0.0
995,43.0,0.0,120.0,15.0,0.0
996,68.0,0.0,60.0,5.0,0.0
997,68.0,60.0,60.0,4.0,0.0
998,67.0,0.0,60.0,5.0,0.0
999,67.0,0.0,60.0,4.0,0.0
1000,43.0,0.0,120.0,7.0,0.0
1001,58.0,0.0,120.0,6.0,0.0
1002,65.0,60.0,60.0,4.0,0.0
1003,65.0,0.0,60.0,5.0,0.0
1004,43.0,60.0,120.0,15.0,0.0
1005,31.0,0.0,120.0,8.0,0.0
1006,63.0,0.0,60.0,5.0,0.0
1007,63.0,0.0,60.0,4.0,0.0
1008,62.0,0.0,60.0,5.0,0.0
1009,43.0,0.0,120.0,15.0,0.0
1010,43.0,0.0,120.0,7.0,0.0
1011,62.0,60.0,60.0,4.0,0.0
1012,31.0,0.0,120.0,8.0,0.0
1013,58.0,0.0,120.0,6.0,0.0
1014,63.0,0.0,60.0,4.0,0.0
1015,63.0,0.0,60.0,5.0,0.0
1016,44.0,0.0,240.0,13.0,0.0
1017,63.0,0.0,240.0,3.0,0.0
1018,60.0,0.0,120.0,6.0,0.0
1019,60.0,0.0,240.0,12.0,0.0
1020,68.0,0.0,240.0,0.0,0.0
1021,44.0,0.0,240.0,3.0,0.0
1022,68.0,0.0,240.0,10.0,0.0
1023,44.0,0.0,240.0,1.0,0.0
1024,60.0,0.0,240.0,1.0,0.0
1025,44.0,60.0,120.0,15.0,0.0
1026,63.0,0.0,240.0,11.0,0.0
1027,32.0,0.0,120.0,8.0,0.0
1028,44.0,0.0,120.0,7.0,0.0
1029,63.0,0.0,240.0,0.0,0.0
1030,60.0,0.0,240.0,3.0,0.0
1031,63.0,0.0,60.0,5.0,0.0
1032,63.0,0.0,60.0,4.0,0.0
1033,44.0,0.0,120.0,7.0,0.0
1034,75.0,60.0,60.0,4.0,0.0
1035,44.0,0.0,120.0,15.0,0.0
1036,75.0,0.0,60.0,5.0,0.0
1037,60.0,0.0,120.0,6.0,0.0
1038,32.0,60.0,120.0,8.0,0.0
1039,74.0,0.0,60.0,4.0,0.0
1040,74.0,0.0,60.0,5.0,0.0
1041,32.0,0.0,120.0,8.0,0.0
1042,77.0,60.0,60.0,5.0,0.0
1043,77.0,0.0,60.0,4.0,0.0
1044,44.0,0.0,120.0,7.0,0.0
1045,60.0,60.0,120.0,6.0,0.0
1046,44.0,0.0,120.0,15.0,0.0
1047,75.0,0.0,60.0,4.0,0.0
1048,75.0,0.0,60.0,5.0,0.0
1049,73.0,60.0,60.0,4.0,0.0
1050,44.0,0.0,120.0,15.0,0.0
1051,32.0,0.0,120.0,8.0,0.0
1052,44.0,0.0,120.0,7.0,0.0
1053,73.0,0.0,60.0,5.0,0.0
1054,60.0,60.0,120.0,6.0,0.0
1055,72.0,0.0,60.0,5.0,0.0
1056,72.0,0.0,60.0,4.0,0.0
1057,60.0,0.0,120.0,6.0,0.0
1058,44.0,0.0,120.0,15.0,0.0
1059,44.0,0.0,240.0,13.0,0.0
1060,44.0,0.0,120.0,7.0,0.0
1061,70.0,60.0,60.0,5.0,0.0
1062,56.0,0.0,240.0,3.0,0.0
1063,72.0,0.0,240.0,10.0,0.0
1064,63.0,0.0,240.0,3.0,0.0
1065,56.0,0.0,240.0,12.0,0.0
1066,70.0,0.0,60.0,4.0,0.0
1067,32.0,0.0,120.0,8.0,0.0
1068,63.0,0.0,240.0,11.0,0.0
1069,44.0,120.0,240.0,3.0,0.0
1070,68.0,0.0,60.0,4.0,0.0
1071,68.0,60.0,60.0,5.0,0.0
1072,44.0,0.0,120.0,7.0,0.0
1073,44.0,0.0,120.0,15.0,0.0
1074,60.0,0.0,120.0,6.0,0.0
1075,67.0,60.0,60.0,4.0,0.0
1076,32.0,0.0,120.0,8.0,0.0
1077,67.0,0.0,60.0,5.0,0.0
1078,68.0,0.0,60.0,4.0,0.0
1079,68.0,0.0,60.0,5.0,0.0
1080,45.0,0.0,480.0,13.0,0.0
1081,54.0,0.0,240.0,1.0,0.0
1082,54.0,0.0,480.0,12.0,0.0
1083,45.0,60.0,240.0,1.0,0.0
1084,63.0,0.0,480.0,3.0,0.0
1085,54.0,0.0,480.0,3.0,0.0
1086,45.0,0.0,120.0,15.0,0.0
1087,33.0,0.0,120.0,8.0,0.0
1088,45.0,0.0,120.0,7.0,0.0
1089,63.0,0.0,480.0,11.0,0.0
1090,60.0,0.0,120.0,6.0,0.0
1091,63.0,0.0,240.0,0.0,0.0
1092,72.0,0.0,240.0,0.0,0.0
1093,45.0,0.0,480.0,3.0,0.0
1094,72.0,0.0,480.0,10.0,0.0
1095,66.0,60.0,60.0,5.0,0.0
1096,66.0,0.0,60.0,4.0,0.0
1097,60.0,0.0,120.0,6.0,0.0
1098,45.0,0.0,120.0,7.0,0.0
1099,33.0,0.0,120.0,8.0,0.0
1100,45.0,0.0,120.0,15.0,0.0
1101,78.0,60.0,60.0,5.0,0.0
1102,78.0,0.0,60.0,4.0,0.0
1103,77.0,0.0,60.0,4.0,0.0
1104,77.0,0.0,60.0,5.0,0.0
1105,45.0,60.0,120.0,15.0,0.0
1106,33.0,0.0,120.0,8.0,0.0
1107,80.0,0.0,60.0,4.0,0.0
1108,80.0,60.0,60.0,5.0,0.0
1109,45.0,0.0,120.0,7.0,0.0
1110,60.0,0.0,120.0,6.0,0.0
1111,78.0,0.0,60.0,4.0,0.0
1112,78.0,0.0,60.0,5.0,0.0
1113,45.0,0.0,120.0,15.0,0.0
1114,45.0,0.0,120.0,7.0,0.0
1115,77.0,60.0,60.0,4.0,0.0
1116,33.0,0.0,120.0,8.0,0.0
1117,77.0,0.0,60.0,5.0,0.0
1118,60.0,0.0,120.0,6.0,0.0
1119,78.0,60.0,60.0,4.0,0.0
1120,78.0,0.0,60.0,5.0,0.0
1121,34.0,0.0,120.0,8.0,0.0
1122,46.0,60.0,120.0,7.0,0.0
1123,46.0,0.0,120.0,15.0,0.0
1124,46.0,0.0,240.0,13.0,0.0
1125,61.0,0.0,240.0,11.0,0.0
1126,53.0,0.0,240.0,3.0,0.0
1127,61.0,0.0,240.0,3.0,0.0
1128,78.0,0.0,60.0,4.0,0.0
1129,70.0,0.0,240.0,10.0,0.0
1130,46.0,0.0,240.0,3.0,0.0
1131,78.0,60.0,60.0,5.0,0.0
1132,61.0,0.0,120.0,6.0,0.0
1133,53.0,0.0,240.0,12.0,0.0
1134,77.0,0.0,60.0,5.0,0.0
1135,77.0,0.0,60.0,4.0,0.0
1136,34.0,0.0,120.0,8.0,0.0
1137,76.0,0.0,60.0,4.0,0.0
1138,61.0,0.0,120.0,6.0,0.0
1139,46.0,0.0,120.0,15.0,0.0
1140,46.0,0.0,120.0,7.0,0.0
1141,76.0,60.0,60.0,5.0,0.0
1142,77.0,0.0,60.0,4.0,0.0
1143,77.0,120.0,60.0,5.0,0.0
1144,62.0,60.0,120.0,6.0,0.0
1145,47.0,0.0,120.0,15.0,0.0
1146,47.0,0.0,720.0,3.0,0.0
1147,62.0,0.0,720.0,1.0,0.0
1148,53.0,0.0,720.0,12.0,0.0
1149,47.0,0.0,720.0,13.0,0.0
1150,68.0,0.0,720.0,0.0,0.0
1151,68.0,0.0,720.0,10.0,0.0
1152,47.0,0.0,720.0,1.0,0.0
1153,62.0,0.0,720.0,11.0,0.0
1154,53.0,0.0,720.0,3.0,0.0
1155,62.0,0.0,720.0,3.0,0.0
1156,35.0,0.0,120.0,8.0,0.0
1157,65.0,0.0,720.0,0.0,0.0
1158,47.0,0.0,120.0,7.0,0.0
1159,68.0,0.0,60.0,4.0,0.0
1160,68.0,0.0,60.0,5.0,0.0
1161,35.0,0.0,120.0,8.0,0.0
1162,62.0,0.0,120.0,6.0,0.0
1163,47.0,0.0,120.0,15.0,0.0
1164,47.0,0.0,120.0,7.0,0.0
1165,80.0,0.0,60.0,5.0,0.0
1166,80.0,60.0,60.0,4.0,0.0
1167,79.0,60.0,60.0,5.0,0.0
1168,79.0,0.0,60.0,4.0,0.0
1169,47.0,0.0,120.0,15.0,0.0
1170,82.0,60.0,60.0,4.0,0.0
1171,47.0,0.0,120.0,7.0,0.0
1172,62.0,0.0,120.0,6.0,0.0
1173,82.0,0.0,60.0,5.0,0.0
1174,35.0,0.0,120.0,8.0,0.0
1175,80.0,0.0,60.0,5.0,0.0
1176,80.0,60.0,60.0,4.0,0.0
1177,35.0,60.0,120.0,8.0,0.0
1178,79.0,0.0,60.0,4.0,0.0
1179,47.0,0.0,120.0,7.0,0.0
1180,47.0,0.0,120.0,15.0,0.0
1181,62.0,0.0,120.0,6.0,0.0
1182,79.0,60.0,60.0,5.0,0.0
1183,80.0,0.0,60.0,4.0,0.0
1184,80.0,0.0,60.0,5.0,0.0
1185,62.0,0.0,120.0,6.0,0.0
1186,47.0,0.0,120.0,15.0,0.0
1187,79.0,0.0,60.0,5.0,0.0
1188,79.0,60.0,60.0,4.0,0.0
1189,35.0,0.0,120.0,8.0,0.0
1190,47.0,0.0,120.0,7.0,0.0
1191,77.0,60.0,60.0,5.0,0.0
1192,77.0,0.0,60.0,4.0,0.0
1193,76.0,60.0,60.0,5.0,0.0
1194,35.0,0.0,120.0,8.0,0.0
1195,62.0,0.0,120.0,6.0,0.0
1196,47.0,240.0,120.0,7.0,0.0
1197,76.0,0.0,60.0,4.0,0.0
1198,47.0,0.0,120.0,15.0,0.0
1199,77.0,0.0,60.0,4.0,0.0
1200,77.0,0.0,60.0,5.0,0.0
1201,64.0,240.0,240.0,11.0,0.0
1202,48.0,0.0,240.0,3.0,0.0
1203,48.0,0.0,240.0,13.0,0.0
1204,48.0,0.0,240.0,1.0,0.0
1205,76.0,0.0,240.0,5.0,0.0
1206,67.0,0.0,240.0,10.0,0.0
1207,60.0,0.0,240.0,12.0,0.0
1208,60.0,0.0,240.0,3.0,0.0
1209,48.0,0.0,240.0,15.0,0.0
1210,76.0,0.0,240.0,4.0,0.0
1211,60.0,0.0,240.0,6.0,0.0
1212,36.0,0.0,240.0,8.0,0.0
1213,55.0,0.0,240.0,1.0,0.0
1214,67.0,0.0,240.0,0.0,0.0
1215,48.0,0.0,240.0,7.0,0.0
1216,64.0,0.0,240.0,3.0,0.0
1217,64.0,0.0,240.0,0.0,0.0
1218,48.0,0.0,240.0,6.0,0.0
1219,64.0,0.0,240.0,5.0,0.0
1220,55.0,0.0,240.0,5.0,0.0
1221,72.0,480.0,240.0,4.0,0.0
1222,60.0,0.0,240.0,4.0,0.0
1223,67.0,0.0,240.0,4.0,0.0
1224,51.0,0.0,240.0,4.0,0.0
1225,51.0,0.0,240.0,5.0,0.0
1226,51.0,0.0,240.0,6.0,0.0
1227,39.0,0.0,240.0,15.0,0.0
1228,39.0,240.0,240.0,7.0,0.0
1229,27.0,0.0,240.0,8.0,0.0
1230,63.0,240.0,240.0,10.0,0.0
1231,63.0,0.0,240.0,4.0,0.0
1232,63.0,0.0,240.0,10.0,0.0
1233,63.0,120.0,240.0,4.0,0.0
1234,63.0,0.0,480.0,10.0,0.0
1235,63.0,240.0,120.0,4.0,0.0
1236,63.0,120.0,240.0,4.0,0.0
1237,58.0,0.0,240.0,11.0,0.0
1238,58.0,120.0,240.0,5.0,0.0
1239,55.0,0.0,240.0,12.0,0.0
1240,55.0,0.0,240.0,6.0,0.0
1241,63.0,120.0,240.0,4.0,0.0
1242,58.0,0.0,240.0,12.0,0.0
1243,61.0,0.0,240.0,11.0,0.0
1244,63.0,0.0,240.0,10.0,0.0
1245,58.0,0.0,240.0,6.0,0.0
1246,61.0,120.0,240.0,5.0,0.0
1247,63.0,0.0,240.0,4.0,0.0
1248,61.0,0.0,240.0,11.0,0.0
1249,61.0,0.0,240.0,5.0,0.0
1250,32.0,120.0,120.0,8.0,0.0
1251,44.0,0.0,120.0,7.0,0.0
1252,63.0,0.0,480.0,10.0,0.0
1253,44.0,0.0,480.0,13.0,0.0
1254,58.0,0.0,240.0,6.0,0.0
1255,58.0,0.0,240.0,12.0,0.0
1256,63.0,0.0,240.0,4.0,0.0
1257,44.0,0.0,120.0,7.0,0.0
1258,32.0,120.0,120.0,8.0,0.0
1259,56.0,0.0,120.0,12.0,0.0
1260,60.0,0.0,120.0,11.0,0.0
1261,44.0,0.0,120.0,7.0,0.0
1262,60.0,0.0,120.0,5.0,0.0
1263,56.0,120.0,120.0,6.0,0.0
1264,32.0,0.0,120.0,8.0,0.0
1265,55.0,120.0,120.0,6.0,0.0
1266,32.0,0.0,120.0,8.0,0.0
1267,58.0,0.0,120.0,5.0,0.0
1268,55.0,0.0,120.0,12.0,0.0
1269,58.0,0.0,120.0,11.0,0.0
1270,63.0,0.0,240.0,4.0,0.0
1271,44.0,0.0,120.0,7.0,0.0
1272,63.0,0.0,240.0,10.0,0.0
1273,56.0,0.0,240.0,6.0,0.0
1274,60.0,0.0,240.0,11.0,0.0
1275,60.0,0.0,240.0,5.0,0.0
1276,56.0,120.0,240.0,12.0,0.0
1277,48.0,120.0,120.0,7.0,0.0
1278,36.0,0.0,120.0,8.0,0.0
1279,48.0,0.0,240.0,13.0,0.0
1280,48.0,0.0,120.0,7.0,0.0
1281,36.0,0.0,120.0,8.0,0.0
1282,63.0,0.0,240.0,4.0,0.0
1283,56.0,0.0,480.0,5.0,0.0
1284,53.0,0.0,480.0,6.0,0.0
1285,63.0,0.0,240.0,10.0,0.0
1286,37.0,120.0,120.0,8.0,0.0
1287,49.0,0.0,120.0,7.0,0.0
1288,53.0,0.0,480.0,12.0,0.0
1289,49.0,0.0,480.0,13.0,0.0
1290,56.0,0.0,480.0,11.0,0.0
1291,37.0,0.0,120.0,8.0,0.0
1292,49.0,0.0,120.0,7.0,0.0
1293,63.0,120.0,120.0,4.0,0.0
1294,61.0,0.0,120.0,10.0,0.0
1295,49.0,0.0,120.0,7.0,0.0
1296,61.0,120.0,120.0,4.0,0.0
1297,37.0,0.0,120.0,8.0,0.0
1298,60.0,0.0,120.0,4.0,0.0
1299,60.0,120.0,120.0,10.0,0.0
1300,37.0,0.0,120.0,8.0,0.0
1301,49.0,0.0,120.0,7.0,0.0
1302,53.0,0.0,240.0,6.0,0.0
1303,53.0,0.0,240.0,12.0,0.0
1304,46.0,0.0,120.0,7.0,0.0
1305,46.0,0.0,240.0,13.0,0.0
1306,58.0,0.0,240.0,11.0,0.0
1307,58.0,0.0,480.0,5.0,0.0
1308,61.0,120.0,120.0,4.0,0.0
1309,61.0,0.0,480.0,10.0,0.0
1310,34.0,0.0,120.0,8.0,0.0
1311,46.0,120.0,120.0,7.0,0.0
1312,61.0,120.0,240.0,4.0,0.0
1313,34.0,0.0,120.0,8.0,0.0
1314,52.0,0.0,240.0,6.0,0.0
1315,43.0,0.0,240.0,13.0,0.0
1316,52.0,0.0,240.0,12.0,0.0
1317,58.0,0.0,240.0,11.0,0.0
1318,31.0,0.0,120.0,8.0,0.0
1319,43.0,0.0,120.0,7.0,0.0
1320,31.0,0.0,120.0,8.0,0.0
1321,61.0,120.0,120.0,4.0,0.0
1322,43.0,0.0,120.0,7.0,0.0
1323,44.0,0.0,240.0,13.0,0.0
1324,32.0,0.0,120.0,8.0,0.0
1325,56.0,0.0,480.0,11.0,0.0
1326,60.0,0.0,240.0,10.0,0.0
1327,60.0,0.0,120.0,4.0,0.0
1328,56.0,0.0,720.0,5.0,0.0
1329,44.0,120.0,120.0,7.0,0.0
1330,51.0,0.0,240.0,12.0,0.0
1331,51.0,0.0,240.0,6.0,0.0
1332,60.0,0.0,120.0,4.0,0.0
1333,32.0,120.0,120.0,8.0,0.0
1334,44.0,0.0,120.0,7.0,0.0
1335,59.0,0.0,120.0,4.0,0.0
1336,59.0,0.0,240.0,10.0,0.0
1337,41.0,120.0,240.0,13.0,0.0
1338,41.0,0.0,120.0,7.0,0.0
1339,50.0,0.0,240.0,12.0,0.0
1340,50.0,0.0,240.0,6.0,0.0
1341,29.0,120.0,120.0,8.0,0.0
1342,29.0,0.0,120.0,8.0,0.0
1343,59.0,0.0,120.0,4.0,0.0
1344,41.0,0.0,120.0,7.0,0.0
1345,39.0,0.0,120.0,7.0,0.0
1346,27.0,60.0,120.0,8.0,0.0
1347,51.0,0.0,480.0,6.0,0.0
1348,56.0,60.0,240.0,11.0,0.0
1349,58.0,0.0,120.0,4.0,0.0
1350,58.0,0.0,480.0,10.0,0.0
1351,39.0,60.0,480.0,13.0,0.0
1352,51.0,0.0,480.0,12.0,0.0
1353,39.0,0.0,120.0,7.0,0.0
1354,27.0,0.0,120.0,8.0,0.0
1355,58.0,60.0,60.0,4.0,0.0
1356,55.0,0.0,120.0,11.0,0.0
1357,27.0,60.0,120.0,8.0,0.0
1358,55.0,0.0,120.0,5.0,0.0
1359,39.0,0.0,120.0,7.0,0.0
1360,58.0,60.0,60.0,4.0,0.0
1361,53.0,0.0,120.0,11.0,0.0
1362,53.0,0.0,120.0,5.0,0.0
1363,58.0,60.0,60.0,4.0,0.0
1364,39.0,0.0,120.0,7.0,0.0
1365,27.0,0.0,120.0,8.0,0.0
1366,27.0,60.0,120.0,8.0,0.0
1367,55.0,0.0,240.0,11.0,0.0
1368,58.0,0.0,240.0,10.0,0.0
1369,55.0,0.0,240.0,5.0,0.0
1370,49.0,0.0,240.0,6.0,0.0
1371,39.0,0.0,240.0,13.0,0.0
1372,49.0,0.0,240.0,12.0,0.0
1373,39.0,0.0,120.0,7.0,0.0
1374,58.0,60.0,60.0,4.0,0.0
1375,39.0,120.0,120.0,7.0,0.0
1376,58.0,60.0,60.0,4.0,0.0
1377,27.0,0.0,120.0,8.0,0.0
1378,44.0,0.0,240.0,13.0,0.0
1379,56.0,0.0,240.0,10.0,0.0
1380,56.0,0.0,240.0,4.0,0.0
1381,56.0,0.0,240.0,11.0,0.0
1382,56.0,0.0,240.0,5.0,0.0
1383,48.0,0.0,240.0,6.0,0.0
1384,44.0,0.0,120.0,7.0,0.0
1385,32.0,120.0,120.0,8.0,0.0
1386,48.0,0.0,240.0,12.0,0.0
1387,32.0,120.0,120.0,8.0,0.0
1388,44.0,0.0,120.0,7.0,0.0
1389,56.0,0.0,240.0,6.0,0.0
1390,75.0,0.0,240.0,4.0,0.0
1391,36.0,0.0,120.0,8.0,0.0
1392,68.0,120.0,240.0,5.0,0.0
1393,48.0,120.0,120.0,7.0,0.0
1394,48.0,0.0,120.0,7.0,0.0
1395,36.0,0.0,120.0,8.0,0.0
1396,36.0,120.0,120.0,8.0,0.0
1397,75.0,0.0,240.0,4.0,0.0
1398,66.0,0.0,240.0,5.0,0.0
1399,56.0,0.0,240.0,6.0,0.0
1400,48.0,0.0,120.0,7.0,0.0
1401,48.0,120.0,120.0,7.0,0.0
1402,36.0,0.0,120.0,8.0,0.0
1403,37.0,0.0,120.0,8.0,0.0
1404,66.0,0.0,240.0,5.0,0.0
1405,75.0,120.0,240.0,4.0,0.0
1406,56.0,120.0,120.0,6.0,0.0
1407,49.0,0.0,120.0,7.0,0.0
1408,57.0,0.0,120.0,6.0,0.0
1409,49.0,0.0,120.0,7.0,0.0
1410,37.0,0.0,120.0,8.0,0.0
1411,73.0,0.0,120.0,4.0,0.0
1412,65.0,0.0,120.0,5.0,0.0
1413,58.0,0.0,120.0,6.0,0.0
1414,37.0,0.0,120.0,8.0,0.0
1415,49.0,120.0,120.0,7.0,0.0
1416,37.0,0.0,120.0,8.0,0.0
1417,49.0,0.0,120.0,7.0,0.0
1418,63.0,0.0,120.0,5.0,0.0
1419,72.0,0.0,120.0,4.0,0.0
1420,60.0,120.0,120.0,6.0,0.0
1421,49.0,0.0,120.0,7.0,0.0
1422,61.0,120.0,120.0,6.0,0.0
1423,70.0,0.0,120.0,4.0,0.0
1424,37.0,0.0,120.0,8.0,0.0
1425,61.0,0.0,120.0,5.0,0.0
1426,49.0,120.0,120.0,7.0,0.0
1427,65.0,0.0,120.0,6.0,0.0
1428,37.0,0.0,120.0,8.0,0.0
1429,60.0,0.0,120.0,5.0,0.0
1430,68.0,0.0,120.0,4.0,0.0
1431,51.0,120.0,120.0,7.0,0.0
1432,63.0,0.0,120.0,6.0,0.0
1433,39.0,0.0,120.0,8.0,0.0
1434,68.0,0.0,480.0,4.0,0.0
1435,60.0,0.0,120.0,5.0,0.0
1436,60.0,0.0,120.0,5.0,0.0
1437,63.0,0.0,120.0,6.0,0.0
1438,39.0,0.0,120.0,8.0,0.0
1439,51.0,120.0,120.0,7.0,0.0
1440,51.0,120.0,120.0,7.0,0.0
1441,63.0,0.0,120.0,6.0,0.0
1442,60.0,0.0,120.0,5.0,0.0
1443,39.0,0.0,120.0,8.0,0.0
1444,63.0,0.0,120.0,6.0,0.0
1445,60.0,0.0,120.0,5.0,0.0
1446,51.0,0.0,120.0,7.0,0.0
1447,39.0,30.0,120.0,8.0,0.0
1448,27.0,0.0,120.0,8.0,0.0
1449,61.0,0.0,120.0,5.0,0.0
1450,72.0,90.0,30.0,4.0,0.0
1451,39.0,0.0,120.0,7.0,0.0
1452,55.0,60.0,120.0,6.0,0.0
1453,70.0,60.0,150.0,4.0,0.0
1454,61.0,0.0,120.0,5.0,0.0
1455,27.0,0.0,120.0,8.0,0.0
1456,39.0,0.0,120.0,7.0,0.0
1457,55.0,120.0,120.0,6.0,0.0
1458,68.0,0.0,60.0,4.0,0.0
1459,44.0,120.0,120.0,7.0,0.0
1460,60.0,0.0,240.0,5.0,0.0
1461,68.0,0.0,240.0,4.0,0.0
1462,44.0,0.0,120.0,15.0,0.0
1463,32.0,0.0,120.0,8.0,0.0
1464,56.0,120.0,240.0,6.0,0.0
1465,44.0,0.0,120.0,8.0,0.0
1466,56.0,0.0,120.0,7.0,0.0
1467,56.0,0.0,120.0,15.0,0.0
1468,56.0,0.0,240.0,3.0,0.0
1469,72.0,0.0,240.0,10.0,0.0
1470,44.0,120.0,240.0,1.0,0.0
1471,56.0,0.0,240.0,1.0,0.0
1472,63.0,0.0,240.0,11.0,0.0
1473,44.0,0.0,120.0,8.0,0.0
1474,56.0,0.0,240.0,13.0,0.0
1475,63.0,0.0,240.0,3.0,0.0
1476,56.0,0.0,240.0,12.0,0.0
1477,72.0,0.0,240.0,0.0,0.0
1478,63.0,0.0,240.0,0.0,0.0
1479,56.0,0.0,120.0,15.0,0.0
1480,56.0,120.0,120.0,7.0,0.0
1481,56.0,0.0,120.0,7.0,0.0
1482,44.0,0.0,120.0,8.0,0.0
1483,56.0,0.0,120.0,15.0,0.0
1484,56.0,0.0,240.0,1.0,0.0
1485,56.0,120.0,120.0,7.0,0.0
1486,44.0,0.0,240.0,1.0,0.0
1487,72.0,0.0,240.0,10.0,0.0
1488,56.0,0.0,240.0,12.0,0.0
1489,56.0,0.0,240.0,13.0,0.0
1490,63.0,0.0,240.0,11.0,0.0
1491,63.0,0.0,240.0,3.0,0.0
1492,56.0,0.0,120.0,15.0,0.0
1493,56.0,0.0,240.0,3.0,0.0
1494,72.0,0.0,240.0,0.0,0.0
1495,63.0,0.0,240.0,0.0,0.0
1496,44.0,0.0,120.0,8.0,0.0
1497,56.0,0.0,120.0,15.0,0.0
1498,44.0,0.0,120.0,8.0,0.0
1499,56.0,0.0,120.0,7.0,0.0
1500,58.0,0.0,720.0,1.0,0.0
1501,55.0,0.0,720.0,1.0,0.0
1502,73.0,0.0,720.0,0.0,0.0
1503,55.0,0.0,120.0,15.0,0.0
1504,63.0,0.0,720.0,3.0,0.0
1505,55.0,0.0,720.0,3.0,0.0
1506,63.0,0.0,720.0,11.0,0.0
1507,55.0,0.0,720.0,13.0,0.0
1508,58.0,0.0,120.0,6.0,0.0
1509,63.0,0.0,720.0,0.0,0.0
1510,58.0,0.0,720.0,12.0,0.0
1511,73.0,0.0,720.0,10.0,0.0
1512,43.0,60.0,120.0,8.0,0.0
1513,55.0,0.0,120.0,6.0,0.0
1514,55.0,0.0,120.0,7.0,0.0
1515,58.0,120.0,720.0,3.0,0.0
1516,73.0,0.0,60.0,5.0,0.0
1517,73.0,0.0,60.0,4.0,0.0
1518,55.0,0.0,120.0,7.0,0.0
1519,72.0,0.0,60.0,5.0,0.0
1520,55.0,0.0,120.0,15.0,0.0
1521,55.0,0.0,120.0,6.0,0.0
1522,43.0,60.0,120.0,8.0,0.0
1523,58.0,0.0,120.0,6.0,0.0
1524,72.0,60.0,60.0,4.0,0.0
1525,70.0,0.0,60.0,5.0,0.0
1526,70.0,0.0,60.0,4.0,0.0
1527,55.0,60.0,120.0,15.0,0.0
1528,55.0,0.0,120.0,7.0,0.0
1529,68.0,0.0,60.0,4.0,0.0
1530,58.0,0.0,120.0,6.0,0.0
1531,68.0,60.0,60.0,5.0,0.0
1532,43.0,0.0,120.0,8.0,0.0
1533,55.0,0.0,120.0,6.0,0.0
1534,67.0,0.0,60.0,4.0,0.0
1535,67.0,0.0,60.0,5.0,0.0
1536,65.0,60.0,60.0,5.0,0.0
1537,55.0,0.0,120.0,15.0,0.0
1538,55.0,0.0,120.0,7.0,0.0
1539,55.0,60.0,120.0,6.0,0.0
1540,58.0,0.0,120.0,6.0,0.0
1541,43.0,0.0,120.0,8.0,0.0
1542,65.0,0.0,60.0,4.0,0.0
1543,63.0,0.0,60.0,4.0,0.0
1544,63.0,0.0,60.0,5.0,0.0
1545,43.0,0.0,120.0,8.0,0.0
1546,58.0,0.0,120.0,6.0,0.0
1547,55.0,0.0,120.0,6.0,0.0
1548,55.0,0.0,120.0,7.0,0.0
1549,55.0,0.0,120.0,15.0,0.0
1550,62.0,0.0,60.0,4.0,0.0
1551,62.0,60.0,60.0,5.0,0.0
1552,63.0,60.0,60.0,4.0,0.0
1553,63.0,0.0,60.0,5.0,0.0
1554,55.0,0.0,120.0,6.0,0.0
1555,65.0,60.0,60.0,5.0,0.0
1556,58.0,0.0,120.0,6.0,0.0
1557,43.0,0.0,120.0,8.0,0.0
1558,55.0,0.0,120.0,15.0,0.0
1559,55.0,0.0,120.0,7.0,0.0
1560,65.0,0.0,60.0,4.0,0.0
1561,63.0,0.0,60.0,4.0,0.0
1562,63.0,0.0,60.0,5.0,0.0
1563,56.0,0.0,240.0,13.0,0.0
1564,60.0,0.0,240.0,3.0,0.0
1565,60.0,0.0,240.0,12.0,0.0
1566,56.0,0.0,120.0,7.0,0.0
1567,63.0,60.0,240.0,3.0,0.0
1568,44.0,60.0,120.0,8.0,0.0
1569,60.0,0.0,720.0,1.0,0.0
1570,56.0,0.0,720.0,1.0,0.0
1571,63.0,0.0,240.0,11.0,0.0
1572,56.0,0.0,120.0,15.0,0.0
1573,63.0,0.0,720.0,0.0,0.0
1574,72.0,0.0,240.0,10.0,0.0
1575,56.0,0.0,240.0,3.0,0.0
1576,56.0,0.0,120.0,6.0,0.0
1577,60.0,0.0,120.0,6.0,0.0
1578,72.0,0.0,720.0,0.0,0.0
1579,63.0,0.0,60.0,5.0,0.0
1580,63.0,0.0,60.0,4.0,0.0
1581,56.0,0.0,120.0,7.0,0.0
1582,72.0,0.0,60.0,4.0,0.0
1583,60.0,0.0,120.0,6.0,0.0
1584,56.0,0.0,120.0,15.0,0.0
1585,56.0,0.0,120.0,6.0,0.0
1586,72.0,60.0,60.0,5.0,0.0
1587,44.0,0.0,120.0,8.0,0.0
1588,70.0,0.0,60.0,4.0,0.0
1589,70.0,0.0,60.0,5.0,0.0
1590,56.0,0.0,120.0,15.0,0.0
1591,73.0,60.0,60.0,5.0,0.0
1592,73.0,0.0,60.0,4.0,0.0
1593,56.0,0.0,120.0,6.0,0.0
1594,56.0,0.0,120.0,7.0,0.0
1595,60.0,0.0,120.0,6.0,0.0
1596,44.0,60.0,120.0,8.0,0.0
1597,72.0,0.0,60.0,5.0,0.0
1598,72.0,0.0,60.0,4.0,0.0
1599,60.0,0.0,120.0,6.0,0.0
1600,44.0,0.0,120.0,8.0,0.0
1601,56.0,0.0,120.0,15.0,0.0
1602,56.0,0.0,120.0,6.0,0.0
1603,56.0,0.0,120.0,7.0,0.0
1604,70.0,60.0,60.0,4.0,0.0
1605,70.0,0.0,60.0,5.0,0.0
1606,68.0,60.0,60.0,4.0,0.0
1607,68.0,0.0,60.0,5.0,0.0
1608,56.0,0.0,120.0,15.0,0.0
1609,63.0,120.0,240.0,3.0,0.0
1610,60.0,0.0,240.0,3.0,0.0
1611,56.0,0.0,120.0,7.0,0.0
1612,67.0,0.0,60.0,5.0,0.0
1613,56.0,0.0,120.0,6.0,0.0
1614,56.0,0.0,240.0,3.0,0.0
1615,67.0,60.0,60.0,4.0,0.0
1616,56.0,0.0,240.0,13.0,0.0
1617,60.0,0.0,120.0,6.0,0.0
1618,44.0,0.0,120.0,8.0,0.0
1619,72.0,0.0,240.0,10.0,0.0
1620,63.0,0.0,240.0,11.0,0.0
1621,60.0,0.0,240.0,12.0,0.0
1622,68.0,0.0,60.0,5.0,0.0
1623,68.0,60.0,60.0,4.0,0.0
1624,56.0,0.0,120.0,7.0,0.0
1625,44.0,0.0,120.0,8.0,0.0
1626,70.0,60.0,60.0,4.0,0.0
1627,70.0,0.0,60.0,5.0,0.0
1628,60.0,0.0,120.0,6.0,0.0
1629,56.0,0.0,120.0,6.0,0.0
1630,56.0,0.0,120.0,15.0,0.0
1631,68.0,0.0,60.0,5.0,0.0
1632,68.0,0.0,60.0,4.0,0.0
1633,55.0,0.0,720.0,3.0,0.0
1634,64.0,0.0,720.0,3.0,0.0
1635,73.0,0.0,720.0,10.0,0.0
1636,64.0,0.0,720.0,0.0,0.0
1637,73.0,0.0,720.0,0.0,0.0
1638,55.0,0.0,120.0,15.0,0.0
1639,58.0,0.0,720.0,3.0,0.0
1640,55.0,0.0,720.0,13.0,0.0
1641,58.0,120.0,720.0,12.0,0.0
1642,64.0,0.0,720.0,11.0,0.0
1643,43.0,0.0,120.0,8.0,0.0
1644,55.0,0.0,720.0,1.0,0.0
1645,55.0,0.0,120.0,7.0,0.0
1646,58.0,60.0,120.0,6.0,0.0
1647,58.0,0.0,720.0,1.0,0.0
1648,55.0,0.0,120.0,6.0,0.0
1649,64.0,0.0,60.0,4.0,0.0
1650,64.0,0.0,60.0,5.0,0.0
1651,76.0,60.0,60.0,5.0,0.0
1652,43.0,0.0,120.0,8.0,0.0
1653,55.0,0.0,120.0,6.0,0.0
1654,76.0,0.0,60.0,4.0,0.0
1655,58.0,0.0,120.0,6.0,0.0
1656,55.0,60.0,120.0,15.0,0.0
1657,55.0,0.0,120.0,7.0,0.0
1658,75.0,0.0,60.0,4.0,0.0
1659,75.0,0.0,60.0,5.0,0.0
1660,78.0,60.0,60.0,5.0,0.0
1661,43.0,0.0,120.0,8.0,0.0
1662,55.0,0.0,120.0,6.0,0.0
1663,78.0,0.0,60.0,4.0,0.0
1664,55.0,0.0,120.0,7.0,0.0
1665,55.0,60.0,120.0,15.0,0.0
1666,58.0,0.0,120.0,6.0,0.0
1667,76.0,0.0,60.0,5.0,0.0
1668,76.0,0.0,60.0,4.0,0.0
1669,55.0,0.0,120.0,15.0,0.0
1670,55.0,0.0,120.0,6.0,0.0
1671,58.0,0.0,120.0,6.0,0.0
1672,43.0,60.0,120.0,8.0,0.0
1673,75.0,0.0,60.0,4.0,0.0
1674,75.0,60.0,60.0,5.0,0.0
1675,55.0,0.0,120.0,7.0,0.0
1676,73.0,0.0,60.0,4.0,0.0
1677,73.0,0.0,60.0,5.0,0.0
1678,55.0,0.0,120.0,6.0,0.0
1679,58.0,0.0,120.0,6.0,0.0
1680,55.0,60.0,120.0,15.0,0.0
1681,43.0,0.0,120.0,8.0,0.0
1682,71.0,0.0,60.0,4.0,0.0
1683,71.0,60.0,60.0,5.0,0.0
1684,55.0,0.0,120.0,7.0,0.0
1685,70.0,0.0,60.0,4.0,0.0
1686,70.0,0.0,60.0,5.0,0.0
1687,55.0,0.0,120.0,7.0,0.0
1688,68.0,60.0,60.0,4.0,0.0
1689,43.0,0.0,120.0,8.0,0.0
1690,58.0,0.0,120.0,6.0,0.0
1691,68.0,0.0,60.0,5.0,0.0
1692,55.0,0.0,120.0,6.0,0.0
1693,55.0,0.0,120.0,15.0,0.0
1694,67.0,0.0,60.0,5.0,0.0
1695,67.0,0.0,60.0,4.0,0.0
1696,64.0,0.0,240.0,11.0,0.0
1697,54.0,0.0,240.0,13.0,0.0
1698,58.0,0.0,120.0,6.0,0.0
1699,54.0,0.0,120.0,6.0,0.0
1700,58.0,0.0,240.0,12.0,0.0
1701,42.0,0.0,120.0,8.0,0.0
1702,54.0,0.0,720.0,1.0,0.0
1703,73.0,0.0,240.0,10.0,0.0
1704,58.0,0.0,240.0,3.0,0.0
1705,58.0,0.0,720.0,1.0,0.0
1706,73.0,0.0,720.0,0.0,0.0
1707,64.0,0.0,720.0,0.0,0.0
1708,54.0,0.0,240.0,3.0,0.0
1709,54.0,0.0,120.0,15.0,0.0
1710,54.0,0.0,120.0,7.0,0.0
1711,64.0,0.0,240.0,3.0,0.0
1712,64.0,60.0,60.0,5.0,0.0
1713,64.0,0.0,60.0,4.0,0.0
1714,54.0,0.0,120.0,15.0,0.0
1715,54.0,0.0,120.0,6.0,0.0
1716,58.0,0.0,120.0,6.0,0.0
1717,54.0,60.0,120.0,7.0,0.0
1718,76.0,0.0,60.0,4.0,0.0
1719,42.0,0.0,120.0,8.0,0.0
1720,76.0,60.0,60.0,5.0,0.0
1721,75.0,0.0,60.0,5.0,0.0
1722,75.0,0.0,60.0,4.0,0.0
1723,78.0,0.0,60.0,4.0,0.0
1724,42.0,0.0,120.0,8.0,0.0
1725,54.0,0.0,120.0,7.0,0.0
1726,54.0,60.0,120.0,6.0,0.0
1727,54.0,0.0,120.0,15.0,0.0
1728,78.0,60.0,60.0,5.0,0.0
1729,58.0,0.0,120.0,6.0,0.0
1730,76.0,0.0,60.0,4.0,0.0
1731,76.0,0.0,60.0,5.0,0.0
1732,54.0,0.0,120.0,7.0,0.0
1733,54.0,0.0,120.0,6.0,0.0
1734,54.0,0.0,120.0,15.0,0.0
1735,75.0,60.0,60.0,5.0,0.0
1736,58.0,0.0,120.0,6.0,0.0
1737,42.0,0.0,120.0,8.0,0.0
1738,75.0,0.0,60.0,4.0,0.0
1739,73.0,60.0,60.0,4.0,0.0
1740,73.0,0.0,60.0,5.0,0.0
1741,64.0,0.0,240.0,3.0,0.0
1742,54.0,0.0,120.0,7.0,0.0
1743,58.0,0.0,240.0,12.0,0.0
1744,42.0,0.0,120.0,8.0,0.0
1745,58.0,0.0,120.0,6.0,0.0
1746,54.0,0.0,120.0,6.0,0.0
1747,71.0,0.0,60.0,4.0,0.0
1748,64.0,0.0,240.0,11.0,0.0
1749,54.0,0.0,240.0,3.0,0.0
1750,54.0,0.0,120.0,15.0,0.0
1751,73.0,0.0,240.0,10.0,0.0
1752,54.0,0.0,240.0,13.0,0.0
1753,58.0,0.0,240.0,3.0,0.0
1754,71.0,60.0,60.0,5.0,0.0
1755,70.0,60.0,60.0,4.0,0.0
1756,70.0,0.0,60.0,5.0,0.0
1757,58.0,120.0,120.0,6.0,0.0
1758,54.0,0.0,120.0,6.0,0.0
1759,42.0,0.0,120.0,8.0,0.0
1760,54.0,0.0,120.0,7.0,0.0
1761,54.0,0.0,120.0,15.0,0.0
1762,68.0,60.0,60.0,5.0,0.0
1763,68.0,0.0,60.0,4.0,0.0
1764,66.0,0.0,60.0,4.0,0.0
1765,66.0,0.0,60.0,5.0,0.0
1766,63.0,0.0,480.0,11.0,0.0
1767,59.0,0.0,120.0,6.0,0.0
1768,54.0,60.0,120.0,7.0,0.0
1769,59.0,0.0,480.0,12.0,0.0
1770,75.0,0.0,480.0,10.0,0.0
1771,54.0,0.0,480.0,13.0,0.0
1772,63.0,0.0,480.0,0.0,0.0
1773,42.0,0.0,120.0,8.0,0.0
1774,59.0,0.0,720.0,1.0,0.0
1775,54.0,0.0,720.0,1.0,0.0
1776,75.0,0.0,480.0,0.0,0.0
1777,63.0,0.0,480.0,3.0,0.0
1778,54.0,60.0,480.0,3.0,0.0
1779,60.0,0.0,480.0,3.0,0.0
1780,54.0,0.0,120.0,15.0,0.0
1781,63.0,0.0,60.0,4.0,0.0
1782,63.0,0.0,60.0,5.0,0.0
1783,54.0,0.0,120.0,15.0,0.0
1784,54.0,0.0,120.0,7.0,0.0
1785,75.0,0.0,60.0,5.0,0.0
1786,75.0,60.0,60.0,4.0,0.0
1787,42.0,0.0,120.0,8.0,0.0
1788,59.0,0.0,120.0,6.0,0.0
1789,73.0,0.0,60.0,5.0,0.0
1790,73.0,60.0,60.0,4.0,0.0
1791,54.0,0.0,120.0,7.0,0.0
1792,76.0,60.0,60.0,5.0,0.0
1793,54.0,0.0,120.0,15.0,0.0
1794,42.0,0.0,120.0,8.0,0.0
1795,76.0,0.0,60.0,4.0,0.0
1796,59.0,60.0,120.0,6.0,0.0
1797,75.0,0.0,60.0,5.0,0.0
1798,75.0,0.0,60.0,4.0,0.0
1799,73.0,0.0,60.0,5.0,0.0
1800,54.0,0.0,120.0,7.0,0.0
1801,42.0,0.0,120.0,8.0,0.0
1802,73.0,60.0,60.0,4.0,0.0
1803,54.0,0.0,120.0,15.0,0.0
1804,59.0,0.0,120.0,6.0,0.0
1805,71.0,0.0,60.0,4.0,0.0
1806,71.0,0.0,60.0,5.0,0.0
1807,60.0,0.0,240.0,3.0,0.0
1808,42.0,0.0,120.0,8.0,0.0
1809,63.0,0.0,240.0,0.0,0.0
1810,54.0,0.0,240.0,3.0,0.0
1811,71.0,0.0,240.0,0.0,0.0
1812,70.0,60.0,60.0,4.0,0.0
1813,59.0,0.0,240.0,12.0,0.0
1814,54.0,0.0,120.0,7.0,0.0
1815,54.0,0.0,120.0,15.0,0.0
1816,63.0,60.0,120.0,6.0,0.0
1817,63.0,0.0,240.0,3.0,0.0
1818,71.0,0.0,240.0,10.0,0.0
1819,70.0,0.0,60.0,5.0,0.0
1820,63.0,0.0,240.0,11.0,0.0
1821,54.0,120.0,240.0,13.0,0.0
1822,71.0,0.0,60.0,5.0,0.0
1823,71.0,0.0,60.0,4.0,0.0
1824,54.0,0.0,120.0,7.0,0.0
1825,42.0,0.0,120.0,8.0,0.0
1826,63.0,0.0,120.0,6.0,0.0
1827,73.0,60.0,60.0,5.0,0.0
1828,73.0,0.0,60.0,4.0,0.0
1829,54.0,0.0,120.0,15.0,0.0
1830,71.0,0.0,60.0,4.0,0.0
1831,71.0,0.0,60.0,5.0,0.0
1832,53.0,0.0,720.0,13.0,0.0
1833,53.0,0.0,120.0,15.0,0.0
1834,56.0,0.0,720.0,1.0,0.0
1835,56.0,0.0,120.0,6.0,0.0
1836,62.0,0.0,720.0,11.0,0.0
1837,53.0,0.0,720.0,1.0,0.0
1838,62.0,0.0,720.0,0.0,0.0
1839,53.0,0.0,120.0,7.0,0.0
1840,62.0,0.0,720.0,3.0,0.0
1841,56.0,0.0,720.0,3.0,0.0
1842,56.0,0.0,720.0,12.0,0.0
1843,71.0,0.0,720.0,10.0,0.0
1844,41.0,0.0,120.0,8.0,0.0
1845,53.0,0.0,720.0,3.0,0.0
1846,71.0,0.0,720.0,0.0,0.0
1847,62.0,60.0,60.0,4.0,0.0
1848,62.0,0.0,60.0,5.0,0.0
1849,41.0,0.0,120.0,8.0,0.0
1850,74.0,0.0,60.0,5.0,0.0
1851,56.0,0.0,120.0,6.0,0.0
1852,74.0,60.0,60.0,4.0,0.0
1853,53.0,0.0,120.0,7.0,0.0
1854,53.0,0.0,120.0,15.0,0.0
1855,73.0,60.0,60.0,4.0,0.0
1856,73.0,0.0,60.0,5.0,0.0
1857,41.0,60.0,120.0,8.0,0.0
1858,53.0,0.0,120.0,15.0,0.0
1859,56.0,0.0,120.0,6.0,0.0
1860,76.0,0.0,60.0,5.0,0.0
1861,53.0,0.0,120.0,7.0,0.0
1862,76.0,60.0,60.0,4.0,0.0
1863,74.0,0.0,60.0,5.0,0.0
1864,74.0,0.0,60.0,4.0,0.0
1865,53.0,60.0,120.0,7.0,0.0
1866,41.0,0.0,120.0,8.0,0.0
1867,56.0,0.0,120.0,6.0,0.0
1868,73.0,60.0,60.0,5.0,0.0
1869,53.0,0.0,120.0,15.0,0.0
1870,73.0,0.0,60.0,4.0,0.0
1871,71.0,0.0,60.0,5.0,0.0
1872,71.0,0.0,60.0,4.0,0.0
1873,41.0,0.0,120.0,8.0,0.0
1874,53.0,60.0,120.0,7.0,0.0
1875,56.0,0.0,120.0,6.0,0.0
1876,53.0,0.0,120.0,15.0,0.0
1877,70.0,0.0,60.0,5.0,0.0
1878,70.0,60.0,60.0,4.0,0.0
1879,71.0,0.0,60.0,4.0,0.0
1880,71.0,0.0,60.0,5.0,0.0
1881,53.0,0.0,120.0,15.0,0.0
1882,41.0,0.0,120.0,8.0,0.0
1883,73.0,0.0,60.0,4.0,0.0
1884,56.0,120.0,120.0,6.0,0.0
1885,53.0,0.0,120.0,7.0,0.0
1886,73.0,60.0,60.0,5.0,0.0
1887,71.0,0.0,60.0,4.0,0.0
1888,71.0,0.0,60.0,5.0,0.0
1889,54.0,0.0,240.0,13.0,0.0
1890,70.0,0.0,240.0,5.0,0.0
1891,70.0,0.0,240.0,4.0,0.0
1892,58.0,0.0,240.0,3.0,0.0
1893,70.0,0.0,240.0,10.0,0.0
1894,58.0,0.0,240.0,1.0,0.0
1895,42.0,0.0,120.0,8.0,0.0
1896,61.0,0.0,240.0,0.0,0.0
1897,70.0,0.0,240.0,0.0,0.0
1898,61.0,0.0,240.0,11.0,0.0
1899,54.0,0.0,240.0,1.0,0.0
1900,54.0,120.0,120.0,7.0,0.0
1901,61.0,0.0,240.0,3.0,0.0
1902,58.0,0.0,240.0,12.0,0.0
1903,54.0,0.0,240.0,3.0,0.0
1904,54.0,0.0,120.0,15.0,0.0
1905,54.0,0.0,240.0,6.0,0.0
1906,54.0,120.0,120.0,15.0,0.0
1907,54.0,0.0,120.0,7.0,0.0
1908,42.0,0.0,120.0,8.0,0.0
1909,54.0,0.0,240.0,13.0,0.0
1910,54.0,0.0,120.0,7.0,0.0
1911,42.0,0.0,120.0,8.0,0.0
1912,54.0,120.0,120.0,15.0,0.0
1913,54.0,120.0,120.0,7.0,0.0
1914,42.0,0.0,120.0,8.0,0.0
1915,54.0,0.0,120.0,15.0,0.0
1916,54.0,120.0,120.0,15.0,0.0
1917,42.0,0.0,120.0,8.0,0.0
1918,54.0,0.0,120.0,7.0,0.0
1919,54.0,0.0,240.0,13.0,0.0
1920,54.0,0.0,120.0,15.0,0.0
1921,42.0,0.0,120.0,8.0,0.0
1922,54.0,120.0,120.0,7.0,0.0
1923,46.0,0.0,120.0,15.0,0.0
1924,46.0,0.0,480.0,13.0,0.0
1925,34.0,120.0,120.0,8.0,0.0
1926,46.0,0.0,120.0,7.0,0.0
1927,46.0,120.0,120.0,7.0,0.0
1928,46.0,0.0,120.0,15.0,0.0
1929,34.0,0.0,120.0,8.0,0.0
1930,34.0,0.0,120.0,8.0,0.0
1931,54.0,0.0,240.0,12.0,0.0
1932,46.0,120.0,120.0,15.0,0.0
1933,54.0,0.0,240.0,6.0,0.0
1934,66.0,0.0,240.0,5.0,0.0
1935,73.0,0.0,240.0,10.0,0.0
1936,73.0,0.0,240.0,4.0,0.0
1937,66.0,0.0,240.0,11.0,0.0
1938,46.0,0.0,120.0,7.0,0.0
1939,34.0,0.0,120.0,8.0,0.0
1940,46.0,120.0,120.0,7.0,0.0
1941,46.0,0.0,120.0,15.0,0.0
1942,73.0,0.0,240.0,10.0,0.0
1943,34.0,120.0,120.0,8.0,0.0
1944,46.0,0.0,120.0,15.0,0.0
1945,64.0,0.0,240.0,5.0,0.0
1946,64.0,0.0,240.0,11.0,0.0
1947,54.0,0.0,240.0,6.0,0.0
1948,73.0,0.0,240.0,4.0,0.0
1949,46.0,0.0,120.0,7.0,0.0
1950,54.0,0.0,240.0,12.0,0.0
1951,46.0,0.0,240.0,13.0,0.0
1952,46.0,0.0,120.0,7.0,0.0
1953,34.0,0.0,120.0,8.0,0.0
1954,46.0,120.0,120.0,15.0,0.0
1955,47.0,0.0,600.0,13.0,0.0
1956,47.0,0.0,120.0,15.0,0.0
1957,35.0,0.0,120.0,8.0,0.0
1958,64.0,0.0,240.0,11.0,0.0
1959,47.0,120.0,120.0,7.0,0.0
1960,73.0,120.0,240.0,10.0,0.0
1961,54.0,0.0,120.0,12.0,0.0
1962,64.0,0.0,240.0,5.0,0.0
1963,54.0,0.0,120.0,6.0,0.0
1964,73.0,0.0,240.0,4.0,0.0
1965,55.0,0.0,120.0,12.0,0.0
1966,55.0,0.0,120.0,6.0,0.0
1967,35.0,0.0,120.0,8.0,0.0
1968,47.0,0.0,120.0,7.0,0.0
1969,47.0,0.0,120.0,15.0,0.0
1970,47.0,0.0,120.0,15.0,0.0
1971,35.0,0.0,120.0,8.0,0.0
1972,71.0,0.0,120.0,10.0,0.0
1973,63.0,0.0,120.0,5.0,0.0
1974,63.0,0.0,120.0,11.0,0.0
1975,71.0,0.0,120.0,4.0,0.0
1976,47.0,0.0,120.0,7.0,0.0
1977,56.0,0.0,120.0,6.0,0.0
1978,56.0,120.0,120.0,12.0,0.0
1979,58.0,0.0,120.0,12.0,0.0
1980,70.0,0.0,120.0,4.0,0.0
1981,35.0,0.0,120.0,8.0,0.0
1982,47.0,0.0,120.0,15.0,0.0
1983,58.0,0.0,120.0,6.0,0.0
1984,47.0,0.0,120.0,7.0,0.0
1985,61.0,120.0,120.0,5.0,0.0
1986,70.0,0.0,120.0,10.0,0.0
1987,61.0,0.0,120.0,11.0,0.0
1988,59.0,0.0,120.0,5.0,0.0
1989,68.0,0.0,120.0,4.0,0.0
1990,47.0,0.0,120.0,7.0,0.0
1991,59.0,0.0,120.0,6.0,0.0
1992,35.0,0.0,120.0,8.0,0.0
1993,47.0,0.0,120.0,15.0,0.0
1994,68.0,0.0,120.0,10.0,0.0
1995,59.0,0.0,120.0,12.0,0.0
1996,59.0,120.0,120.0,11.0,0.0
1997,58.0,0.0,120.0,11.0,0.0
1998,48.0,120.0,120.0,7.0,0.0
1999,48.0,0.0,120.0,13.0,0.0
2000,66.0,0.0,120.0,4.0,0.0
2001,63.0,0.0,120.0,12.0,0.0
2002,66.0,0.0,120.0,10.0,0.0
2003,58.0,0.0,120.0,5.0,0.0
2004,63.0,0.0,120.0,6.0,0.0
2005,48.0,0.0,120.0,15.0,0.0
2006,36.0,0.0,120.0,8.0,0.0
2007,58.0,0.0,120.0,5.0,0.0
2008,49.0,0.0,480.0,13.0,0.0
2009,49.0,0.0,120.0,15.0,0.0
2010,37.0,0.0,120.0,8.0,0.0
2011,58.0,0.0,480.0,11.0,0.0
2012,61.0,0.0,480.0,12.0,0.0
2013,49.0,0.0,120.0,7.0,0.0
2014,66.0,0.0,480.0,4.0,0.0
2015,61.0,120.0,120.0,6.0,0.0
2016,66.0,0.0,480.0,10.0,0.0
2017,58.0,0.0,120.0,5.0,0.0
2018,49.0,0.0,120.0,15.0,0.0
2019,61.0,120.0,120.0,6.0,0.0
2020,49.0,0.0,120.0,7.0,0.0
2021,37.0,0.0,120.0,8.0,0.0
2022,58.0,0.0,120.0,5.0,0.0
2023,61.0,0.0,120.0,6.0,0.0
2024,37.0,0.0,120.0,8.0,0.0
2025,49.0,0.0,120.0,15.0,0.0
2026,49.0,120.0,120.0,7.0,0.0
2027,49.0,0.0,120.0,15.0,0.0
2028,37.0,60.0,120.0,8.0,0.0
2029,49.0,0.0,120.0,7.0,0.0
2030,58.0,0.0,120.0,5.0,0.0
2031,61.0,0.0,120.0,6.0,0.0
2032,49.0,0.0,240.0,13.0,0.0
2033,61.0,120.0,120.0,6.0,0.0
2034,70.0,60.0,60.0,4.0,0.0
2035,49.0,0.0,120.0,15.0,0.0
2036,49.0,0.0,120.0,7.0,0.0
2037,37.0,0.0,120.0,8.0,0.0
2038,61.0,0.0,240.0,11.0,0.0
2039,53.0,0.0,120.0,6.0,0.0
2040,70.0,0.0,60.0,10.0,0.0
2041,59.0,0.0,240.0,12.0,0.0
2042,59.0,0.0,120.0,5.0,0.0
2043,68.0,0.0,180.0,4.0,0.0
2044,68.0,0.0,180.0,10.0,0.0
2045,49.0,0.0,120.0,7.0,0.0
2046,37.0,0.0,120.0,8.0,0.0
2047,49.0,0.0,120.0,15.0,0.0
2048,59.0,720.0,120.0,5.0,0.0
2049,53.0,0.0,120.0,6.0,0.0
2050,61.0,0.0,120.0,6.0,0.0
2051,60.0,0.0,720.0,6.0,0.0
2052,54.0,0.0,720.0,6.0,0.0
2053,57.0,480.0,720.0,5.0,0.0
2054,66.0,0.0,720.0,10.0,0.0
2055,60.0,0.0,720.0,11.0,0.0
2056,51.0,0.0,720.0,15.0,0.0
2057,57.0,0.0,720.0,12.0,0.0
2058,66.0,0.0,720.0,4.0,0.0
2059,51.0,0.0,720.0,7.0,0.0
2060,39.0,0.0,720.0,8.0,0.0
2061,66.0,0.0,240.0,4.0,0.0
2062,66.0,240.0,240.0,10.0,0.0
2063,66.0,0.0,240.0,4.0,0.0
2064,66.0,120.0,240.0,10.0,0.0
2065,66.0,240.0,120.0,4.0,0.0
2066,66.0,0.0,720.0,10.0,0.0
2067,66.0,0.0,240.0,4.0,0.0
2068,62.0,0.0,240.0,11.0,0.0
2069,57.0,0.0,240.0,12.0,0.0
2070,50.0,120.0,240.0,13.0,0.0
2071,62.0,0.0,240.0,5.0,0.0
2072,38.0,0.0,120.0,8.0,0.0
2073,50.0,120.0,120.0,15.0,0.0
2074,57.0,0.0,240.0,6.0,0.0
2075,50.0,0.0,120.0,7.0,0.0
2076,66.0,0.0,240.0,4.0,0.0
2077,50.0,0.0,120.0,7.0,0.0
2078,38.0,0.0,120.0,8.0,0.0
2079,50.0,0.0,120.0,15.0,0.0
2080,57.0,0.0,240.0,6.0,0.0
2081,57.0,0.0,240.0,12.0,0.0
2082,38.0,0.0,120.0,8.0,0.0
2083,62.0,0.0,240.0,11.0,0.0
2084,50.0,0.0,120.0,15.0,0.0
2085,50.0,120.0,120.0,7.0,0.0
2086,50.0,120.0,240.0,13.0,0.0
2087,62.0,0.0,240.0,5.0,0.0
2088,38.0,0.0,120.0,8.0,0.0
2089,50.0,0.0,120.0,15.0,0.0
2090,50.0,0.0,120.0,7.0,0.0
2091,66.0,0.0,120.0,4.0,0.0
2092,57.0,0.0,720.0,12.0,0.0
2093,37.0,0.0,120.0,8.0,0.0
2094,67.0,120.0,720.0,10.0,0.0
2095,49.0,120.0,120.0,15.0,0.0
2096,49.0,0.0,720.0,13.0,0.0
2097,57.0,0.0,120.0,6.0,0.0
2098,67.0,0.0,120.0,4.0,0.0
2099,64.0,0.0,720.0,11.0,0.0
2100,49.0,0.0,120.0,7.0,0.0
2101,64.0,0.0,720.0,5.0,0.0
2102,49.0,0.0,120.0,7.0,0.0
2103,49.0,120.0,120.0,15.0,0.0
2104,37.0,0.0,120.0,8.0,0.0
2105,67.0,0.0,240.0,4.0,0.0
2106,57.0,0.0,240.0,6.0,0.0
2107,49.0,0.0,120.0,15.0,0.0
2108,37.0,0.0,120.0,8.0,0.0
2109,49.0,120.0,120.0,7.0,0.0
2110,49.0,0.0,120.0,7.0,0.0
2111,57.0,0.0,240.0,6.0,0.0
2112,37.0,0.0,120.0,8.0,0.0
2113,67.0,0.0,240.0,4.0,0.0
2114,49.0,120.0,120.0,15.0,0.0
2115,37.0,0.0,120.0,8.0,0.0
2116,49.0,120.0,120.0,15.0,0.0
2117,49.0,0.0,120.0,7.0,0.0
2118,49.0,0.0,120.0,7.0,0.0
2119,37.0,0.0,120.0,8.0,0.0
2120,67.0,0.0,120.0,4.0,0.0
2121,57.0,0.0,240.0,6.0,0.0
2122,49.0,0.0,120.0,15.0,0.0
2123,66.0,0.0,720.0,10.0,0.0
2124,50.0,0.0,720.0,13.0,0.0
2125,50.0,0.0,720.0,1.0,0.0
2126,62.0,0.0,240.0,5.0,0.0
2127,38.0,0.0,120.0,8.0,0.0
2128,62.0,0.0,240.0,11.0,0.0
2129,62.0,0.0,240.0,0.0,0.0
2130,66.0,0.0,960.0,0.0,0.0
2131,50.0,0.0,120.0,15.0,0.0
2132,50.0,120.0,120.0,7.0,0.0
2133,57.0,0.0,960.0,1.0,0.0
2134,57.0,0.0,720.0,12.0,0.0
2135,66.0,0.0,120.0,4.0,0.0
2136,38.0,0.0,120.0,8.0,0.0
2137,66.0,0.0,240.0,4.0,0.0
2138,57.0,0.0,240.0,6.0,0.0
2139,50.0,0.0,120.0,15.0,0.0
2140,50.0,120.0,120.0,7.0,0.0
2141,61.0,120.0,240.0,5.0,0.0
2142,61.0,0.0,240.0,0.0,0.0
2143,61.0,0.0,240.0,11.0,0.0
2144,38.0,120.0,120.0,8.0,0.0
2145,50.0,0.0,120.0,15.0,0.0
2146,50.0,0.0,120.0,7.0,0.0
2147,50.0,0.0,120.0,7.0,0.0
2148,50.0,0.0,120.0,15.0,0.0
2149,66.0,0.0,240.0,4.0,0.0
2150,38.0,0.0,120.0,8.0,0.0
2151,57.0,0.0,240.0,6.0,0.0
2152,60.0,0.0,240.0,0.0,0.0
2153,38.0,0.0,120.0,8.0,0.0
2154,60.0,0.0,240.0,5.0,0.0
2155,50.0,0.0,120.0,7.0,0.0
2156,60.0,0.0,240.0,11.0,0.0
2157,50.0,120.0,120.0,15.0,0.0
2158,38.0,0.0,120.0,8.0,0.0
2159,50.0,0.0,120.0,7.0,0.0
2160,50.0,120.0,120.0,15.0,0.0
2161,66.0,0.0,240.0,4.0,0.0
2162,57.0,0.0,240.0,6.0,0.0
2163,57.0,0.0,240.0,3.0,0.0
2164,58.0,0.0,240.0,12.0,0.0
2165,49.0,0.0,720.0,3.0,0.0
2166,61.0,0.0,120.0,5.0,0.0
2167,49.0,120.0,120.0,15.0,0.0
2168,61.0,0.0,480.0,11.0,0.0
2169,66.0,120.0,240.0,10.0,0.0
2170,49.0,0.0,720.0,13.0,0.0
2171,49.0,0.0,720.0,1.0,0.0
2172,61.0,120.0,480.0,3.0,0.0
2173,49.0,0.0,120.0,7.0,0.0
2174,37.0,0.0,120.0,8.0,0.0
2175,61.0,0.0,480.0,0.0,0.0
2176,49.0,0.0,120.0,15.0,0.0
2177,61.0,0.0,120.0,5.0,0.0
2178,37.0,0.0,120.0,8.0,0.0
2179,57.0,0.0,120.0,6.0,0.0
2180,49.0,0.0,120.0,7.0,0.0
2181,66.0,0.0,120.0,4.0,0.0
2182,49.0,120.0,120.0,7.0,0.0
2183,61.0,0.0,120.0,5.0,0.0
2184,49.0,0.0,120.0,15.0,0.0
2185,37.0,0.0,120.0,8.0,0.0
2186,65.0,0.0,240.0,10.0,0.0
2187,56.0,0.0,240.0,3.0,0.0
2188,56.0,0.0,240.0,1.0,0.0
2189,65.0,0.0,120.0,4.0,0.0
2190,65.0,0.0,240.0,0.0,0.0
2191,56.0,0.0,120.0,6.0,0.0
2192,56.0,0.0,240.0,12.0,0.0
2193,61.0,0.0,120.0,5.0,0.0
2194,56.0,0.0,120.0,6.0,0.0
2195,37.0,0.0,120.0,8.0,0.0
2196,49.0,0.0,120.0,15.0,0.0
2197,65.0,0.0,120.0,4.0,0.0
2198,49.0,0.0,120.0,7.0,0.0
2199,60.0,0.0,240.0,0.0,0.0
2200,49.0,0.0,120.0,7.0,0.0
2201,54.0,0.0,240.0,3.0,0.0
2202,54.0,0.0,240.0,1.0,0.0
2203,63.0,120.0,120.0,4.0,0.0
2204,37.0,0.0,120.0,8.0,0.0
2205,60.0,0.0,240.0,11.0,0.0
2206,63.0,0.0,240.0,0.0,0.0
2207,60.0,0.0,240.0,3.0,0.0
2208,60.0,0.0,120.0,5.0,0.0
2209,54.0,0.0,120.0,6.0,0.0
2210,49.0,0.0,120.0,15.0,0.0
2211,54.0,0.0,240.0,12.0,0.0
2212,63.0,0.0,240.0,10.0,0.0
2213,49.0,0.0,120.0,7.0,0.0
2214,63.0,0.0,120.0,4.0,0.0
2215,37.0,0.0,120.0,8.0,0.0
2216,60.0,720.0,120.0,5.0,0.0
2217,49.0,0.0,120.0,15.0,0.0
2218,54.0,0.0,120.0,6.0,0.0
2219,61.0,0.0,720.0,11.0,0.0
2220,61.0,120.0,720.0,5.0,0.0
2221,65.0,0.0,720.0,10.0,0.0
2222,61.0,0.0,720.0,3.0,0.0
2223,56.0,0.0,720.0,6.0,0.0
2224,56.0,0.0,720.0,1.0,0.0
2225,37.0,0.0,720.0,1.0,0.0
2226,49.0,0.0,720.0,15.0,0.0
2227,56.0,0.0,720.0,12.0,0.0
2228,49.0,0.0,720.0,3.0,0.0
2229,61.0,0.0,720.0,0.0,0.0
2230,65.0,0.0,720.0,0.0,0.0
2231,49.0,0.0,720.0,13.0,0.0
2232,56.0,0.0,720.0,3.0,0.0
2233,37.0,0.0,720.0,8.0,0.0
2234,49.0,0.0,720.0,7.0,0.0
2235,65.0,0.0,720.0,4.0,0.0
2236,30.0,120.0,120.0,8.0,0.0
2237,61.0,120.0,120.0,4.0,0.0
2238,58.0,0.0,120.0,5.0,0.0
2239,54.0,0.0,120.0,6.0,0.0
2240,66.0,0.0,480.0,0.0,0.0
2241,46.0,120.0,120.0,8.0,0.0
2242,61.0,0.0,120.0,5.0,0.0
2243,66.0,0.0,120.0,4.0,0.0
2244,54.0,120.0,120.0,6.0,0.0
2245,71.0,0.0,600.0,0.0,0.0
2246,44.0,120.0,120.0,8.0,0.0
2247,66.0,0.0,120.0,4.0,0.0
2248,59.0,120.0,120.0,5.0,0.0
2249,56.0,0.0,120.0,6.0,0.0
2250,37.0,120.0,120.0,8.0,0.0
2251,65.0,0.0,240.0,0.0,0.0
2252,56.0,0.0,120.0,6.0,0.0
2253,59.0,120.0,120.0,5.0,0.0
2254,65.0,0.0,120.0,4.0,0.0
2255,61.0,0.0,300.0,1.0,0.0
2256,42.0,120.0,120.0,8.0,0.0
2257,73.0,60.0,300.0,4.0,0.0
2258,66.0,0.0,240.0,0.0,0.0
2259,54.0,0.0,240.0,6.0,0.0
2260,70.0,60.0,120.0,0.0,0.0
2261,56.0,0.0,360.0,1.0,0.0
2262,41.0,0.0,120.0,8.0,0.0
2263,68.0,0.0,360.0,5.0,0.0
2264,53.0,0.0,240.0,6.0,0.0
2265,75.0,60.0,60.0,4.0,0.0
2266,63.0,0.0,60.0,1.0,0.0
2267,61.0,60.0,60.0,1.0,0.0
2268,73.0,0.0,60.0,4.0,0.0
2269,71.0,0.0,60.0,4.0,0.0
2270,59.0,60.0,60.0,1.0,0.0
2271,70.0,0.0,60.0,4.0,0.0
2272,54.0,0.0,120.0,6.0,0.0
2273,58.0,60.0,60.0,1.0,0.0
2274,42.0,0.0,120.0,8.0,0.0
2275,61.0,60.0,60.0,1.0,0.0
2276,73.0,0.0,60.0,4.0,0.0
2277,51.0,0.0,120.0,6.0,0.0
2278,66.0,0.0,240.0,5.0,0.0
2279,59.0,60.0,60.0,1.0,0.0
2280,39.0,0.0,120.0,8.0,0.0
2281,71.0,0.0,60.0,4.0,0.0
2282,54.0,0.0,240.0,1.0,0.0
2283,70.0,0.0,60.0,4.0,0.0
2284,58.0,60.0,60.0,1.0,0.0
2285,56.0,60.0,60.0,1.0,0.0
2286,35.0,0.0,120.0,8.0,0.0
2287,47.0,0.0,120.0,6.0,0.0
2288,68.0,0.0,60.0,4.0,0.0
2289,59.0,0.0,60.0,1.0,0.0
2290,71.0,60.0,60.0,4.0,0.0
2291,53.0,0.0,120.0,1.0,0.0
2292,58.0,60.0,60.0,1.0,0.0
2293,37.0,0.0,120.0,8.0,0.0
2294,70.0,0.0,60.0,4.0,0.0
2295,65.0,240.0,120.0,5.0,0.0
2296,49.0,0.0,120.0,6.0,0.0
2297,68.0,0.0,60.0,4.0,0.0
2298,56.0,0.0,60.0,1.0,0.0
2299,70.0,60.0,240.0,10.0,0.0
2300,30.0,0.0,240.0,8.0,0.0
2301,66.0,0.0,240.0,4.0,0.0
2302,54.0,0.0,240.0,1.0,0.0
2303,54.0,0.0,240.0,6.0,0.0
2304,54.0,0.0,120.0,5.0,0.0
2305,54.0,60.0,60.0,5.0,0.0
2306,73.0,60.0,240.0,10.0,0.0
2307,53.0,60.0,60.0,5.0,0.0
2308,54.0,60.0,60.0,5.0,0.0
2309,56.0,0.0,60.0,5.0,0.0
2310,70.0,0.0,120.0,10.0,0.0
2311,58.0,60.0,60.0,5.0,0.0
2312,56.0,60.0,60.0,5.0,0.0
2313,54.0,60.0,180.0,7.0,0.0
2314,70.0,0.0,120.0,10.0,0.0
2315,58.0,60.0,60.0,5.0,0.0
2316,58.0,0.0,180.0,6.0,0.0
2317,60.0,60.0,60.0,5.0,0.0
2318,61.0,60.0,120.0,5.0,0.0
2319,70.0,0.0,360.0,10.0,0.0
2320,59.0,0.0,60.0,6.0,0.0
2321,56.0,0.0,60.0,7.0,0.0
2322,58.0,0.0,60.0,6.0,0.0
2323,54.0,60.0,60.0,7.0,0.0
2324,62.0,60.0,120.0,5.0,0.0
2325,56.0,0.0,60.0,6.0,0.0
2326,53.0,0.0,60.0,7.0,0.0
2327,63.0,60.0,240.0,5.0,0.0
2328,54.0,0.0,60.0,6.0,0.0
2329,51.0,60.0,60.0,7.0,0.0
2330,53.0,0.0,60.0,6.0,0.0
2331,49.0,60.0,60.0,7.0,0.0
2332,47.0,60.0,60.0,7.0,0.0
2333,63.0,60.0,180.0,4.0,0.0
2334,51.0,0.0,60.0,6.0,0.0
2335,70.0,0.0,120.0,10.0,0.0
2336,49.0,0.0,60.0,6.0,0.0
2337,46.0,0.0,60.0,7.0,0.0
2338,71.0,0.0,240.0,10.0,0.0
2339,47.0,0.0,240.0,6.0,0.0
2340,44.0,0.0,240.0,7.0,0.0
2341,61.0,60.0,60.0,4.0,0.0
2342,63.0,60.0,60.0,4.0,0.0
2343,65.0,60.0,60.0,4.0,0.0
2344,49.0,0.0,240.0,6.0,0.0
2345,66.0,60.0,60.0,4.0,0.0
2346,70.0,60.0,120.0,10.0,0.0
2347,46.0,60.0,180.0,7.0,0.0
2348,61.0,0.0,60.0,4.0,0.0
2349,66.0,60.0,240.0,4.0,0.0
2350,61.0,60.0,180.0,5.0,0.0
2351,70.0,0.0,120.0,10.0,0.0
2352,48.0,60.0,60.0,7.0,0.0
2353,49.0,0.0,240.0,7.0,0.0
2354,68.0,60.0,180.0,10.0,0.0
2355,63.0,0.0,60.0,5.0,0.0
2356,61.0,0.0,60.0,5.0,0.0
2357,61.0,0.0,180.0,6.0,0.0
2358,65.0,0.0,120.0,4.0,0.0
2359,59.0,60.0,60.0,5.0,0.0
2360,68.0,0.0,60.0,10.0,0.0
2361,66.0,60.0,240.0,10.0,0.0
2362,42.0,0.0,240.0,7.0,0.0
2363,58.0,60.0,60.0,5.0,0.0
2364,66.0,0.0,120.0,4.0,0.0
2365,63.0,60.0,60.0,6.0,0.0
2366,59.0,0.0,60.0,5.0,0.0
2367,58.0,0.0,60.0,5.0,0.0
2368,61.0,60.0,60.0,6.0,0.0
2369,78.0,0.0,180.0,4.0,0.0
2370,56.0,0.0,60.0,5.0,0.0
2371,59.0,0.0,60.0,6.0,0.0
2372,58.0,60.0,60.0,6.0,0.0
2373,54.0,60.0,120.0,5.0,0.0
2374,59.0,0.0,60.0,6.0,0.0
2375,80.0,0.0,60.0,4.0,0.0
2376,70.0,0.0,180.0,5.0,0.0
2377,78.0,0.0,60.0,4.0,0.0
2378,58.0,60.0,60.0,6.0,0.0
2379,77.0,60.0,60.0,4.0,0.0
2380,56.0,0.0,60.0,6.0,0.0
2381,54.0,60.0,60.0,6.0,0.0
2382,75.0,0.0,60.0,4.0,0.0
2383,77.0,60.0,60.0,4.0,0.0
2384,71.0,0.0,60.0,5.0,0.0
2385,68.0,0.0,60.0,6.0,0.0
2386,66.0,0.0,60.0,6.0,0.0
2387,75.0,0.0,60.0,4.0,0.0
2388,70.0,60.0,60.0,5.0,0.0
2389,65.0,0.0,60.0,6.0,0.0
2390,68.0,0.0,60.0,5.0,0.0
2391,73.0,60.0,60.0,4.0,0.0
2392,66.0,0.0,60.0,5.0,0.0
2393,72.0,0.0,60.0,4.0,0.0
2394,63.0,60.0,60.0,6.0,0.0
2395,68.0,0.0,60.0,5.0,0.0
2396,73.0,60.0,60.0,4.0,0.0
2397,65.0,0.0,60.0,6.0,0.0
2398,66.0,60.0,60.0,5.0,0.0
2399,63.0,0.0,60.0,6.0,0.0
2400,56.0,60.0,180.0,7.0,0.0
2401,72.0,0.0,60.0,4.0,0.0
2402,61.0,0.0,60.0,6.0,0.0
2403,70.0,60.0,60.0,4.0,0.0
2404,65.0,0.0,60.0,5.0,0.0
2405,68.0,0.0,240.0,10.0,0.0
2406,68.0,0.0,240.0,4.0,0.0
2407,63.0,0.0,120.0,5.0,0.0
2408,60.0,0.0,240.0,6.0,0.0
2409,58.0,60.0,60.0,7.0,0.0
2410,56.0,60.0,60.0,7.0,0.0
2411,68.0,0.0,180.0,5.0,0.0
2412,54.0,60.0,60.0,7.0,0.0
2413,61.0,0.0,240.0,6.0,0.0
2414,53.0,60.0,60.0,7.0,0.0
2415,68.0,60.0,120.0,10.0,0.0
2416,70.0,0.0,60.0,5.0,0.0
2417,54.0,0.0,60.0,7.0,0.0
2418,68.0,0.0,60.0,5.0,0.0
2419,80.0,0.0,180.0,4.0,0.0
2420,53.0,60.0,60.0,7.0,0.0
2421,68.0,0.0,120.0,10.0,0.0
2422,51.0,60.0,60.0,7.0,0.0
2423,66.0,0.0,60.0,5.0,0.0
2424,49.0,0.0,360.0,7.0,0.0
2425,68.0,0.0,120.0,10.0,0.0
2426,65.0,60.0,60.0,5.0,0.0
2427,82.0,0.0,60.0,4.0,0.0
2428,66.0,60.0,60.0,5.0,0.0
2429,80.0,60.0,60.0,4.0,0.0
2430,68.0,60.0,120.0,10.0,0.0
2431,65.0,0.0,60.0,5.0,0.0
2432,78.0,0.0,60.0,4.0,0.0
2433,63.0,0.0,60.0,5.0,0.0
2434,61.0,0.0,60.0,5.0,0.0
2435,77.0,60.0,60.0,4.0,0.0
2436,68.0,60.0,180.0,10.0,0.0
2437,60.0,0.0,60.0,5.0,0.0
2438,78.0,60.0,60.0,4.0,0.0
2439,61.0,0.0,60.0,5.0,0.0
2440,77.0,0.0,60.0,4.0,0.0
2441,47.0,60.0,120.0,7.0,0.0
2442,75.0,0.0,60.0,4.0,0.0
2443,63.0,0.0,60.0,5.0,0.0
2444,68.0,0.0,60.0,10.0,0.0
2445,46.0,60.0,60.0,7.0,0.0
2446,74.0,0.0,240.0,4.0,0.0
2447,65.0,0.0,240.0,5.0,0.0
2448,70.0,60.0,120.0,10.0,0.0
2449,47.0,0.0,60.0,7.0,0.0
2450,58.0,60.0,180.0,6.0,0.0
2451,70.0,0.0,120.0,10.0,0.0
2452,46.0,60.0,60.0,7.0,0.0
2453,44.0,60.0,60.0,7.0,0.0
2454,63.0,0.0,240.0,5.0,0.0
2455,63.0,0.0,120.0,10.0,0.0
2456,42.0,0.0,60.0,7.0,0.0
2457,75.0,0.0,480.0,4.0,0.0
2458,59.0,0.0,60.0,6.0,0.0
2459,41.0,60.0,60.0,7.0,0.0
2460,58.0,0.0,60.0,6.0,0.0
2461,42.0,60.0,60.0,7.0,0.0
2462,63.0,0.0,120.0,10.0,0.0
2463,44.0,0.0,60.0,7.0,0.0
2464,56.0,60.0,60.0,6.0,0.0
2465,66.0,60.0,240.0,10.0,0.0
2466,46.0,0.0,480.0,7.0,0.0
2467,54.0,60.0,60.0,6.0,0.0
2468,53.0,60.0,60.0,6.0,0.0
2469,70.0,60.0,180.0,5.0,0.0
2470,54.0,60.0,60.0,6.0,0.0
2471,56.0,0.0,60.0,6.0,0.0
2472,65.0,60.0,180.0,10.0,0.0
2473,74.0,0.0,240.0,4.0,0.0
2474,58.0,0.0,480.0,6.0,0.0
2475,71.0,60.0,60.0,5.0,0.0
2476,70.0,0.0,60.0,5.0,0.0
2477,65.0,0.0,60.0,10.0,0.0
2478,68.0,90.0,60.0,5.0,0.0
2479,66.0,0.0,90.0,5.0,0.0
2480,75.0,30.0,90.0,4.0,0.0
2481,51.0,0.0,240.0,7.0,0.0
2482,63.0,120.0,240.0,10.0,0.0
2483,54.0,0.0,30.0,5.0,0.0
2484,63.0,90.0,30.0,4.0,0.0
2485,66.0,0.0,120.0,0.0,0.0
2486,70.0,0.0,90.0,4.0,0.0
2487,63.0,30.0,90.0,5.0,0.0
2488,66.0,0.0,30.0,4.0,0.0
2489,58.0,0.0,30.0,5.0,0.0
2490,71.0,0.0,240.0,4.0,0.0
2491,71.0,0.0,360.0,0.0,0.0
2492,59.0,90.0,120.0,12.0,0.0
2493,51.0,0.0,120.0,3.0,0.0
2494,59.0,0.0,120.0,3.0,0.0
2495,51.0,0.0,120.0,13.0,0.0
2496,66.0,120.0,240.0,5.0,0.0
2497,51.0,0.0,30.0,1.0,0.0
2498,39.0,0.0,30.0,8.0,0.0
2499,51.0,0.0,30.0,15.0,0.0
2500,66.0,0.0,150.0,15.0,0.0
2501,59.0,0.0,150.0,15.0,0.0
2502,63.0,0.0,150.0,15.0,0.0
2503,54.0,0.0,30.0,6.0,0.0
2504,51.0,0.0,120.0,13.0,0.0
2505,54.0,0.0,90.0,1.0,0.0
2506,59.0,0.0,120.0,3.0,0.0
2507,63.0,0.0,90.0,6.0,0.0
2508,51.0,0.0,120.0,3.0,0.0
2509,54.0,30.0,90.0,15.0,0.0
2510,42.0,0.0,90.0,8.0,0.0
2511,59.0,0.0,120.0,12.0,0.0
2512,59.0,0.0,30.0,6.0,0.0
2513,39.0,0.0,30.0,8.0,0.0
2514,51.0,0.0,30.0,15.0,0.0
2515,51.0,0.0,30.0,1.0,0.0
2516,61.0,0.0,240.0,15.0,0.0
2517,56.0,0.0,240.0,15.0,0.0
2518,53.0,0.0,240.0,15.0,0.0
2519,68.0,0.0,120.0,3.0,0.0
2520,53.0,0.0,120.0,3.0,0.0
2521,68.0,0.0,120.0,11.0,0.0
2522,53.0,120.0,240.0,1.0,0.0
2523,61.0,0.0,240.0,6.0,0.0
2524,41.0,0.0,240.0,8.0,0.0
2525,56.0,0.0,120.0,3.0,0.0
2526,53.0,0.0,120.0,13.0,0.0
2527,56.0,0.0,120.0,12.0,0.0
2528,61.0,90.0,30.0,4.0,0.0
2529,56.0,0.0,30.0,5.0,0.0
2530,53.0,0.0,120.0,13.0,0.0
2531,68.0,0.0,120.0,3.0,0.0
2532,68.0,0.0,90.0,4.0,0.0
2533,53.0,0.0,120.0,3.0,0.0
2534,68.0,0.0,120.0,0.0,0.0
2535,61.0,0.0,120.0,3.0,0.0
2536,65.0,30.0,90.0,5.0,0.0
2537,68.0,0.0,120.0,11.0,0.0
2538,61.0,0.0,120.0,12.0,0.0
2539,65.0,0.0,30.0,4.0,0.0
2540,61.0,0.0,30.0,5.0,0.0
2541,65.0,0.0,120.0,3.0,0.0
2542,68.0,0.0,240.0,5.0,0.0
2543,65.0,0.0,120.0,11.0,0.0
2544,73.0,0.0,240.0,4.0,0.0
2545,73.0,0.0,240.0,0.0,0.0
2546,37.0,0.0,30.0,8.0,0.0
2547,65.0,0.0,30.0,6.0,0.0
2548,68.0,0.0,150.0,15.0,0.0
2549,49.0,0.0,30.0,1.0,0.0
2550,61.0,0.0,150.0,15.0,0.0
2551,65.0,0.0,150.0,15.0,0.0
2552,49.0,90.0,30.0,15.0,0.0
2553,41.0,0.0,90.0,8.0,0.0
2554,53.0,0.0,90.0,15.0,0.0
2555,61.0,0.0,120.0,11.0,0.0
2556,53.0,0.0,120.0,13.0,0.0
2557,61.0,120.0,120.0,12.0,0.0
2558,61.0,0.0,120.0,3.0,0.0
2559,68.0,0.0,90.0,6.0,0.0
2560,53.0,0.0,120.0,3.0,0.0
2561,53.0,30.0,90.0,1.0,0.0
2562,49.0,0.0,30.0,1.0,0.0
2563,49.0,0.0,30.0,15.0,0.0
2564,37.0,0.0,30.0,8.0,0.0
2565,65.0,0.0,30.0,6.0,0.0
2566,58.0,0.0,120.0,3.0,0.0
2567,54.0,0.0,120.0,13.0,0.0
2568,54.0,0.0,240.0,1.0,0.0
2569,58.0,0.0,120.0,12.0,0.0
2570,70.0,0.0,240.0,10.0,0.0
2571,42.0,0.0,240.0,8.0,0.0
2572,70.0,0.0,240.0,0.0,0.0
2573,54.0,0.0,240.0,15.0,0.0
2574,61.0,0.0,240.0,6.0,0.0
2575,54.0,0.0,120.0,3.0,0.0
2576,66.0,0.0,30.0,5.0,0.0
2577,70.0,90.0,30.0,4.0,0.0
2578,73.0,0.0,90.0,4.0,0.0
2579,54.0,0.0,120.0,12.0,0.0
2580,61.0,0.0,120.0,3.0,0.0
2581,54.0,0.0,120.0,3.0,0.0
2582,42.0,0.0,120.0,3.0,0.0
2583,42.0,120.0,120.0,13.0,0.0
2584,70.0,30.0,90.0,5.0,0.0
2585,61.0,0.0,120.0,11.0,0.0
2586,70.0,0.0,30.0,4.0,0.0
2587,66.0,0.0,30.0,5.0,0.0
2588,58.0,0.0,120.0,11.0,0.0
2589,58.0,0.0,120.0,3.0,0.0
2590,70.0,0.0,240.0,5.0,0.0
2591,73.0,0.0,240.0,0.0,0.0
2592,73.0,0.0,240.0,10.0,0.0
2593,78.0,0.0,240.0,4.0,0.0
2594,58.0,0.0,30.0,6.0,0.0
2595,54.0,90.0,30.0,1.0,0.0
2596,66.0,0.0,150.0,15.0,0.0
2597,42.0,0.0,30.0,8.0,0.0
2598,54.0,0.0,30.0,15.0,0.0
2599,70.0,0.0,150.0,15.0,0.0
2600,73.0,0.0,150.0,15.0,0.0
2601,58.0,30.0,90.0,15.0,0.0
2602,66.0,0.0,120.0,3.0,0.0
2603,66.0,0.0,120.0,11.0,0.0
2604,54.0,0.0,120.0,3.0,0.0
2605,46.0,0.0,90.0,8.0,0.0
2606,61.0,0.0,90.0,6.0,0.0
2607,58.0,0.0,90.0,1.0,0.0
2608,58.0,0.0,120.0,12.0,0.0
2609,54.0,0.0,120.0,13.0,0.0
2610,58.0,0.0,120.0,3.0,0.0
2611,42.0,0.0,30.0,8.0,0.0
2612,58.0,120.0,30.0,6.0,0.0
2613,54.0,0.0,30.0,15.0,0.0
2614,54.0,0.0,30.0,1.0,0.0
2615,53.0,0.0,360.0,12.0,0.0
2616,38.0,0.0,240.0,8.0,0.0
2617,50.0,90.0,360.0,13.0,0.0
2618,70.0,0.0,120.0,10.0,0.0
2619,50.0,0.0,360.0,3.0,0.0
2620,65.0,0.0,240.0,15.0,0.0
2621,50.0,0.0,240.0,15.0,0.0
2622,70.0,0.0,240.0,15.0,0.0
2623,53.0,0.0,360.0,3.0,0.0
2624,50.0,0.0,240.0,1.0,0.0
2625,70.0,0.0,240.0,0.0,0.0
2626,65.0,0.0,240.0,6.0,0.0
2627,58.0,90.0,30.0,5.0,0.0
2628,65.0,0.0,30.0,4.0,0.0
2629,65.0,0.0,120.0,3.0,0.0
2630,65.0,120.0,120.0,11.0,0.0
2631,70.0,0.0,120.0,10.0,0.0
2632,70.0,0.0,90.0,4.0,0.0
2633,65.0,30.0,90.0,5.0,0.0
2634,65.0,0.0,30.0,4.0,0.0
2635,62.0,0.0,30.0,5.0,0.0
2636,77.0,120.0,240.0,4.0,0.0
2637,62.0,0.0,120.0,11.0,0.0
2638,62.0,0.0,120.0,3.0,0.0
2639,74.0,0.0,240.0,5.0,0.0
2640,70.0,0.0,480.0,10.0,0.0
2641,70.0,0.0,240.0,0.0,0.0
2642,62.0,0.0,150.0,15.0,0.0
2643,62.0,0.0,30.0,6.0,0.0
2644,65.0,0.0,150.0,15.0,0.0
2645,46.0,0.0,30.0,15.0,0.0
2646,70.0,0.0,150.0,15.0,0.0
2647,46.0,0.0,30.0,1.0,0.0
2648,34.0,0.0,30.0,8.0,0.0
2649,58.0,0.0,120.0,11.0,0.0
2650,53.0,0.0,120.0,3.0,0.0
2651,50.0,0.0,120.0,13.0,0.0
2652,65.0,0.0,90.0,6.0,0.0
2653,50.0,0.0,120.0,3.0,0.0
2654,49.0,0.0,90.0,15.0,0.0
2655,49.0,0.0,90.0,1.0,0.0
2656,53.0,0.0,120.0,12.0,0.0
2657,58.0,0.0,120.0,3.0,0.0
2658,38.0,30.0,90.0,8.0,0.0
2659,34.0,0.0,30.0,8.0,0.0
2660,62.0,0.0,30.0,6.0,0.0
2661,46.0,0.0,30.0,1.0,0.0
2662,46.0,0.0,30.0,15.0,0.0
2663,70.0,120.0,240.0,15.0,0.0
2664,66.0,0.0,240.0,3.0,0.0
2665,51.0,0.0,240.0,1.0,0.0
2666,63.0,0.0,240.0,15.0,0.0
2667,54.0,0.0,120.0,12.0,0.0
2668,66.0,0.0,240.0,6.0,0.0
2669,70.0,0.0,480.0,0.0,0.0
2670,66.0,0.0,240.0,15.0,0.0
2671,54.0,0.0,120.0,3.0,0.0
2672,66.0,0.0,240.0,11.0,0.0
2673,51.0,0.0,240.0,15.0,0.0
2674,39.0,0.0,240.0,8.0,0.0
2675,51.0,0.0,120.0,13.0,0.0
2676,51.0,0.0,120.0,3.0,0.0
2677,58.0,0.0,30.0,5.0,0.0
2678,66.0,60.0,30.0,4.0,0.0
2679,70.0,30.0,90.0,4.0,0.0
2680,51.0,0.0,60.0,13.0,0.0
2681,58.0,30.0,60.0,3.0,0.0
2682,51.0,0.0,60.0,3.0,0.0
2683,66.0,0.0,90.0,5.0,0.0
2684,58.0,0.0,60.0,12.0,0.0
2685,58.0,0.0,60.0,3.0,0.0
2686,51.0,0.0,60.0,13.0,0.0
2687,51.0,0.0,60.0,3.0,0.0
2688,58.0,0.0,60.0,12.0,0.0
2689,63.0,0.0,30.0,5.0,0.0
2690,66.0,0.0,30.0,4.0,0.0
2691,63.0,0.0,120.0,3.0,0.0
2692,75.0,0.0,240.0,5.0,0.0
2693,51.0,0.0,120.0,3.0,0.0
2694,66.0,0.0,120.0,3.0,0.0
2695,78.0,0.0,240.0,4.0,0.0
2696,66.0,0.0,120.0,11.0,0.0
2697,70.0,0.0,120.0,10.0,0.0
2698,63.0,90.0,120.0,12.0,0.0
2699,51.0,0.0,120.0,13.0,0.0
2700,51.0,0.0,30.0,1.0,0.0
2701,51.0,0.0,30.0,15.0,0.0
2702,66.0,0.0,150.0,15.0,0.0
2703,39.0,0.0,30.0,8.0,0.0
2704,61.0,0.0,150.0,15.0,0.0
2705,54.0,0.0,30.0,6.0,0.0
2706,70.0,0.0,150.0,15.0,0.0
2707,70.0,0.0,120.0,10.0,0.0
2708,42.0,0.0,90.0,8.0,0.0
2709,66.0,0.0,120.0,3.0,0.0
2710,61.0,0.0,120.0,12.0,0.0
2711,51.0,0.0,120.0,3.0,0.0
2712,54.0,30.0,90.0,1.0,0.0
2713,61.0,0.0,120.0,3.0,0.0
2714,58.0,0.0,90.0,6.0,0.0
2715,51.0,0.0,120.0,13.0,0.0
2716,54.0,0.0,90.0,15.0,0.0
2717,66.0,0.0,120.0,11.0,0.0
2718,39.0,120.0,30.0,8.0,0.0
2719,51.0,0.0,30.0,15.0,0.0
2720,51.0,0.0,30.0,1.0,0.0
2721,54.0,0.0,30.0,6.0,0.0
2722,65.0,0.0,120.0,3.0,0.0
2723,72.0,0.0,120.0,0.0,0.0
2724,71.0,0.0,120.0,10.0,0.0
2725,32.0,0.0,120.0,8.0,0.0
2726,65.0,0.0,120.0,11.0,0.0
2727,71.0,0.0,120.0,15.0,0.0
2728,59.0,90.0,120.0,15.0,0.0
2729,44.0,0.0,120.0,15.0,0.0
2730,59.0,0.0,120.0,6.0,0.0
2731,59.0,0.0,120.0,3.0,0.0
2732,44.0,0.0,120.0,3.0,0.0
2733,44.0,0.0,120.0,1.0,0.0
2734,59.0,0.0,120.0,12.0,0.0
2735,44.0,0.0,120.0,13.0,0.0
2736,65.0,0.0,120.0,15.0,0.0
2737,77.0,0.0,30.0,4.0,0.0
2738,71.0,0.0,30.0,5.0,0.0
2739,78.0,0.0,90.0,4.0,0.0
2740,61.0,0.0,240.0,3.0,0.0
2741,46.0,0.0,90.0,15.0,0.0
2742,61.0,0.0,90.0,15.0,0.0
2743,34.0,0.0,90.0,8.0,0.0
2744,66.0,0.0,120.0,15.0,0.0
2745,66.0,0.0,120.0,11.0,0.0
2746,70.0,30.0,90.0,15.0,0.0
2747,61.0,0.0,240.0,12.0,0.0
2748,46.0,0.0,90.0,13.0,0.0
2749,70.0,0.0,90.0,5.0,0.0
2750,61.0,0.0,240.0,6.0,0.0
2751,66.0,0.0,120.0,3.0,0.0
2752,70.0,0.0,120.0,10.0,0.0
2753,46.0,0.0,90.0,3.0,0.0
2754,46.0,0.0,90.0,1.0,0.0
2755,70.0,0.0,120.0,0.0,0.0
2756,47.0,0.0,30.0,1.0,0.0
2757,70.0,0.0,30.0,4.0,0.0
2758,66.0,90.0,30.0,5.0,0.0
2759,47.0,0.0,30.0,15.0,0.0
2760,63.0,0.0,30.0,15.0,0.0
2761,47.0,0.0,30.0,3.0,0.0
2762,47.0,0.0,30.0,13.0,0.0
2763,35.0,0.0,30.0,8.0,0.0
2764,66.0,0.0,120.0,3.0,0.0
2765,68.0,30.0,180.0,10.0,0.0
2766,49.0,60.0,120.0,1.0,0.0
2767,49.0,0.0,120.0,3.0,0.0
2768,66.0,0.0,120.0,11.0,0.0
2769,68.0,0.0,240.0,0.0,0.0
2770,37.0,0.0,120.0,8.0,0.0
2771,68.0,0.0,90.0,4.0,0.0
2772,49.0,0.0,120.0,13.0,0.0
2773,66.0,30.0,90.0,5.0,0.0
2774,49.0,0.0,120.0,15.0,0.0
2775,61.0,0.0,240.0,15.0,0.0
2776,66.0,0.0,120.0,15.0,0.0
2777,68.0,0.0,240.0,15.0,0.0
2778,78.0,0.0,30.0,4.0,0.0
2779,68.0,0.0,30.0,5.0,0.0
2780,59.0,0.0,120.0,12.0,0.0
2781,65.0,0.0,90.0,5.0,0.0
2782,65.0,0.0,120.0,3.0,0.0
2783,59.0,0.0,120.0,6.0,0.0
2784,65.0,90.0,120.0,11.0,0.0
2785,49.0,0.0,120.0,3.0,0.0
2786,65.0,0.0,120.0,15.0,0.0
2787,37.0,0.0,120.0,15.0,0.0
2788,25.0,0.0,120.0,8.0,0.0
2789,37.0,0.0,120.0,1.0,0.0
2790,59.0,0.0,120.0,3.0,0.0
2791,49.0,0.0,120.0,13.0,0.0
2792,68.0,30.0,90.0,4.0,0.0
2793,68.0,0.0,60.0,10.0,0.0
2794,68.0,0.0,30.0,5.0,0.0
2795,77.0,0.0,30.0,4.0,0.0
2796,58.0,0.0,240.0,15.0,0.0
2797,58.0,0.0,240.0,12.0,0.0
2798,66.0,0.0,240.0,10.0,0.0
2799,58.0,0.0,240.0,6.0,0.0
2800,42.0,0.0,240.0,1.0,0.0
2801,78.0,0.0,90.0,4.0,0.0
2802,66.0,0.0,240.0,3.0,0.0
2803,61.0,0.0,240.0,15.0,0.0
2804,66.0,0.0,240.0,0.0,0.0
2805,66.0,0.0,240.0,11.0,0.0
2806,42.0,0.0,240.0,13.0,0.0
2807,30.0,0.0,240.0,8.0,0.0
2808,58.0,120.0,240.0,3.0,0.0
2809,42.0,0.0,240.0,3.0,0.0
2810,66.0,0.0,240.0,15.0,0.0
2811,42.0,0.0,240.0,15.0,0.0
2812,70.0,30.0,90.0,5.0,0.0
2813,58.0,90.0,30.0,5.0,0.0
2814,66.0,0.0,30.0,4.0,0.0
2815,61.0,0.0,90.0,5.0,0.0
2816,70.0,30.0,90.0,4.0,0.0
2817,58.0,0.0,30.0,5.0,0.0
2818,66.0,0.0,30.0,4.0,0.0
2819,70.0,0.0,240.0,5.0,0.0
2820,78.0,0.0,240.0,4.0,0.0
2821,58.0,90.0,30.0,6.0,0.0
2822,61.0,0.0,150.0,15.0,0.0
2823,54.0,0.0,30.0,15.0,0.0
2824,66.0,0.0,150.0,15.0,0.0
2825,54.0,0.0,30.0,1.0,0.0
2826,42.0,0.0,30.0,8.0,0.0
2827,70.0,0.0,150.0,15.0,0.0
2828,54.0,0.0,120.0,13.0,0.0
2829,58.0,0.0,90.0,15.0,0.0
2830,58.0,0.0,120.0,12.0,0.0
2831,58.0,0.0,120.0,3.0,0.0
2832,61.0,30.0,90.0,6.0,0.0
2833,58.0,0.0,90.0,1.0,0.0
2834,46.0,0.0,90.0,8.0,0.0
2835,54.0,0.0,120.0,3.0,0.0
2836,54.0,0.0,30.0,15.0,0.0
2837,58.0,0.0,30.0,6.0,0.0
2838,54.0,120.0,30.0,1.0,0.0
2839,42.0,0.0,30.0,8.0,0.0
2840,58.0,90.0,120.0,3.0,0.0
2841,58.0,0.0,120.0,12.0,0.0
2842,66.0,0.0,240.0,15.0,0.0
2843,51.0,0.0,240.0,1.0,0.0
2844,54.0,0.0,240.0,6.0,0.0
2845,54.0,0.0,120.0,3.0,0.0
2846,54.0,0.0,120.0,13.0,0.0
2847,51.0,0.0,240.0,15.0,0.0
2848,70.0,0.0,240.0,15.0,0.0
2849,39.0,0.0,240.0,8.0,0.0
2850,63.0,0.0,240.0,15.0,0.0
2851,70.0,0.0,30.0,4.0,0.0
2852,66.0,0.0,30.0,5.0,0.0
2853,51.0,0.0,120.0,13.0,0.0
2854,70.0,30.0,90.0,5.0,0.0
2855,54.0,0.0,120.0,12.0,0.0
2856,58.0,0.0,120.0,3.0,0.0
2857,75.0,0.0,90.0,4.0,0.0
2858,58.0,120.0,120.0,11.0,0.0
2859,54.0,0.0,120.0,3.0,0.0
2860,51.0,0.0,120.0,3.0,0.0
2861,66.0,0.0,30.0,5.0,0.0
2862,70.0,0.0,30.0,4.0,0.0
2863,78.0,0.0,240.0,5.0,0.0
2864,58.0,90.0,120.0,3.0,0.0
2865,58.0,0.0,120.0,11.0,0.0
2866,82.0,0.0,240.0,4.0,0.0
2867,51.0,0.0,30.0,1.0,0.0
2868,54.0,0.0,30.0,6.0,0.0
2869,63.0,0.0,150.0,15.0,0.0
2870,39.0,0.0,30.0,8.0,0.0
2871,66.0,0.0,150.0,15.0,0.0
2872,51.0,0.0,30.0,15.0,0.0
2873,70.0,0.0,150.0,15.0,0.0
2874,54.0,0.0,90.0,1.0,0.0
2875,54.0,0.0,120.0,3.0,0.0
2876,63.0,0.0,120.0,11.0,0.0
2877,54.0,120.0,120.0,12.0,0.0
2878,51.0,0.0,120.0,3.0,0.0
2879,63.0,0.0,120.0,3.0,0.0
2880,42.0,30.0,90.0,8.0,0.0
2881,54.0,0.0,90.0,15.0,0.0
2882,51.0,0.0,120.0,13.0,0.0
2883,58.0,0.0,90.0,6.0,0.0
2884,51.0,0.0,30.0,15.0,0.0
2885,51.0,0.0,30.0,1.0,0.0
2886,54.0,0.0,30.0,6.0,0.0
2887,39.0,0.0,30.0,8.0,0.0
2888,66.0,0.0,240.0,15.0,0.0
2889,51.0,0.0,120.0,13.0,0.0
2890,48.0,0.0,240.0,1.0,0.0
2891,51.0,0.0,120.0,3.0,0.0
2892,51.0,0.0,240.0,6.0,0.0
2893,68.0,0.0,240.0,10.0,0.0
2894,48.0,0.0,240.0,15.0,0.0
2895,36.0,0.0,240.0,8.0,0.0
2896,54.0,90.0,120.0,12.0,0.0
2897,68.0,0.0,240.0,15.0,0.0
2898,63.0,0.0,240.0,15.0,0.0
2899,68.0,120.0,240.0,0.0,0.0
2900,54.0,0.0,120.0,3.0,0.0
2901,63.0,0.0,30.0,5.0,0.0
2902,68.0,0.0,30.0,4.0,0.0
2903,48.0,0.0,120.0,13.0,0.0
2904,75.0,0.0,90.0,4.0,0.0
2905,51.0,0.0,120.0,3.0,0.0
2906,48.0,0.0,120.0,3.0,0.0
2907,68.0,30.0,90.0,5.0,0.0
2908,63.0,0.0,120.0,11.0,0.0
2909,63.0,0.0,120.0,3.0,0.0
2910,51.0,0.0,120.0,12.0,0.0
2911,63.0,0.0,30.0,5.0,0.0
2912,68.0,0.0,30.0,4.0,0.0
2913,48.0,0.0,240.0,13.0,0.0
2914,68.0,0.0,120.0,10.0,0.0
2915,48.0,0.0,240.0,3.0,0.0
2916,51.0,0.0,360.0,12.0,0.0
2917,63.0,0.0,120.0,3.0,0.0
2918,80.0,0.0,240.0,4.0,0.0
2919,78.0,0.0,240.0,5.0,0.0
2920,51.0,0.0,360.0,3.0,0.0
2921,63.0,0.0,120.0,11.0,0.0
2922,68.0,0.0,240.0,0.0,0.0
2923,48.0,0.0,30.0,1.0,0.0
2924,36.0,0.0,30.0,8.0,0.0
2925,66.0,0.0,390.0,15.0,0.0
2926,63.0,90.0,30.0,6.0,0.0
2927,63.0,0.0,390.0,15.0,0.0
2928,68.0,0.0,390.0,15.0,0.0
2929,48.0,0.0,30.0,15.0,0.0
2930,66.0,0.0,120.0,11.0,0.0
2931,51.0,0.0,90.0,15.0,0.0
2932,68.0,0.0,120.0,10.0,0.0
2933,51.0,0.0,90.0,1.0,0.0
2934,66.0,0.0,90.0,6.0,0.0
2935,66.0,0.0,120.0,3.0,0.0
2936,39.0,30.0,90.0,8.0,0.0
2937,56.0,120.0,30.0,15.0,0.0
2938,56.0,0.0,30.0,1.0,0.0
2939,63.0,0.0,30.0,6.0,0.0
2940,44.0,0.0,30.0,8.0,0.0
2941,68.0,0.0,480.0,0.0,0.0
2942,66.0,90.0,120.0,3.0,0.0
2943,66.0,0.0,120.0,11.0,0.0
2944,47.0,120.0,240.0,15.0,0.0
2945,47.0,0.0,240.0,13.0,0.0
2946,68.0,0.0,120.0,10.0,0.0
2947,47.0,0.0,240.0,3.0,0.0
2948,35.0,0.0,240.0,8.0,0.0
2949,51.0,0.0,240.0,6.0,0.0
2950,47.0,0.0,240.0,1.0,0.0
2951,63.0,0.0,30.0,5.0,0.0
2952,68.0,0.0,30.0,4.0,0.0
2953,68.0,0.0,120.0,10.0,0.0
2954,68.0,30.0,90.0,5.0,0.0
2955,51.0,0.0,120.0,12.0,0.0
2956,51.0,0.0,120.0,3.0,0.0
2957,66.0,0.0,120.0,3.0,0.0
2958,66.0,0.0,120.0,11.0,0.0
2959,75.0,0.0,90.0,4.0,0.0
2960,68.0,0.0,30.0,4.0,0.0
2961,63.0,0.0,30.0,5.0,0.0
2962,65.0,0.0,120.0,11.0,0.0
2963,80.0,0.0,240.0,4.0,0.0
2964,77.0,0.0,240.0,5.0,0.0
2965,50.0,0.0,120.0,12.0,0.0
2966,47.0,0.0,120.0,13.0,0.0
2967,47.0,60.0,120.0,3.0,0.0
2968,50.0,0.0,120.0,3.0,0.0
2969,65.0,0.0,120.0,3.0,0.0
2970,68.0,30.0,180.0,10.0,0.0
2971,47.0,0.0,30.0,15.0,0.0
2972,65.0,0.0,30.0,15.0,0.0
2973,35.0,0.0,30.0,8.0,0.0
2974,47.0,0.0,30.0,1.0,0.0
2975,68.0,0.0,150.0,15.0,0.0
2976,59.0,0.0,30.0,6.0,0.0
2977,62.0,0.0,30.0,15.0,0.0
2978,51.0,0.0,120.0,12.0,0.0
2979,63.0,0.0,120.0,15.0,0.0
2980,59.0,0.0,120.0,15.0,0.0
2981,51.0,0.0,90.0,15.0,0.0
2982,51.0,0.0,90.0,1.0,0.0
2983,47.0,0.0,120.0,3.0,0.0
2984,63.0,0.0,120.0,3.0,0.0
2985,47.0,0.0,120.0,13.0,0.0
2986,63.0,0.0,120.0,11.0,0.0
2987,51.0,30.0,90.0,6.0,0.0
2988,51.0,0.0,120.0,3.0,0.0
2989,39.0,0.0,90.0,8.0,0.0
2990,68.0,0.0,60.0,10.0,0.0
2991,56.0,0.0,30.0,15.0,0.0
2992,63.0,0.0,30.0,6.0,0.0
2993,44.0,0.0,30.0,8.0,0.0
2994,56.0,120.0,30.0,1.0,0.0
2995,46.0,0.0,120.0,1.0,0.0
2996,68.0,0.0,120.0,15.0,0.0
2997,53.0,0.0,120.0,12.0,0.0
2998,46.0,0.0,120.0,15.0,0.0
2999,62.0,0.0,240.0,11.0,0.0
3000,62.0,0.0,120.0,15.0,0.0
3001,53.0,120.0,120.0,3.0,0.0
3002,46.0,0.0,120.0,13.0,0.0
3003,70.0,0.0,240.0,0.0,0.0
3004,70.0,0.0,120.0,10.0,0.0
3005,62.0,0.0,120.0,6.0,0.0
3006,34.0,0.0,120.0,8.0,0.0
3007,46.0,0.0,120.0,3.0,0.0
3008,65.0,0.0,120.0,15.0,0.0
3009,62.0,0.0,240.0,3.0,0.0
3010,65.0,0.0,30.0,5.0,0.0
3011,68.0,0.0,30.0,4.0,0.0
3012,46.0,0.0,120.0,13.0,0.0
3013,46.0,0.0,120.0,3.0,0.0
3014,77.0,0.0,120.0,5.0,0.0
3015,80.0,0.0,120.0,4.0,0.0
3016,53.0,0.0,120.0,12.0,0.0
3017,53.0,0.0,120.0,3.0,0.0
3018,70.0,120.0,120.0,10.0,0.0
3019,46.0,0.0,30.0,8.0,0.0
3020,65.0,0.0,30.0,15.0,0.0
3021,62.0,0.0,30.0,6.0,0.0
3022,62.0,0.0,30.0,15.0,0.0
3023,58.0,0.0,30.0,15.0,0.0
3024,68.0,0.0,30.0,15.0,0.0
3025,58.0,0.0,30.0,1.0,0.0
3026,63.0,0.0,240.0,0.0,0.0
3027,60.0,0.0,240.0,11.0,0.0
3028,57.0,0.0,120.0,15.0,0.0
3029,60.0,0.0,120.0,6.0,0.0
3030,54.0,0.0,120.0,12.0,0.0
3031,60.0,0.0,120.0,15.0,0.0
3032,63.0,0.0,120.0,15.0,0.0
3033,66.0,0.0,120.0,15.0,0.0
3034,63.0,0.0,120.0,10.0,0.0
3035,45.0,0.0,120.0,3.0,0.0
3036,45.0,0.0,120.0,8.0,0.0
3037,57.0,0.0,120.0,1.0,0.0
3038,45.0,0.0,120.0,13.0,0.0
3039,54.0,120.0,120.0,3.0,0.0
3040,60.0,0.0,240.0,3.0,0.0
3041,63.0,0.0,30.0,5.0,0.0
3042,66.0,0.0,30.0,4.0,0.0
3043,51.0,0.0,120.0,12.0,0.0
3044,45.0,0.0,120.0,3.0,0.0
3045,51.0,0.0,120.0,3.0,0.0
3046,78.0,0.0,120.0,4.0,0.0
3047,63.0,0.0,120.0,10.0,0.0
3048,45.0,0.0,120.0,13.0,0.0
3049,75.0,0.0,120.0,5.0,0.0
3050,45.0,0.0,30.0,1.0,0.0
3051,60.0,120.0,30.0,6.0,0.0
3052,60.0,0.0,30.0,15.0,0.0
3053,44.0,0.0,30.0,15.0,0.0
3054,63.0,0.0,30.0,15.0,0.0
3055,66.0,0.0,30.0,15.0,0.0
3056,33.0,0.0,30.0,8.0,0.0
3057,46.0,0.0,360.0,3.0,0.0
3058,46.0,0.0,360.0,13.0,0.0
3059,66.0,0.0,240.0,0.0,0.0
3060,58.0,0.0,360.0,3.0,0.0
3061,66.0,0.0,120.0,15.0,0.0
3062,58.0,0.0,360.0,12.0,0.0
3063,58.0,0.0,120.0,15.0,0.0
3064,46.0,0.0,120.0,15.0,0.0
3065,63.0,0.0,120.0,11.0,0.0
3066,63.0,0.0,120.0,15.0,0.0
3067,66.0,90.0,240.0,10.0,0.0
3068,58.0,0.0,120.0,6.0,0.0
3069,34.0,90.0,120.0,8.0,0.0
3070,46.0,0.0,120.0,1.0,0.0
3071,63.0,0.0,120.0,3.0,0.0
3072,66.0,0.0,30.0,4.0,0.0
3073,66.0,0.0,30.0,5.0,0.0
3074,70.0,0.0,90.0,4.0,0.0
3075,70.0,30.0,90.0,5.0,0.0
3076,62.0,0.0,120.0,15.0,0.0
3077,46.0,0.0,120.0,1.0,0.0
3078,63.0,0.0,120.0,11.0,0.0
3079,63.0,0.0,120.0,3.0,0.0
3080,34.0,0.0,120.0,8.0,0.0
3081,58.0,0.0,120.0,6.0,0.0
3082,58.0,0.0,120.0,15.0,0.0
3083,65.0,0.0,120.0,15.0,0.0
3084,46.0,0.0,120.0,15.0,0.0
3085,75.0,0.0,30.0,4.0,0.0
3086,77.0,0.0,30.0,5.0,0.0
3087,58.0,30.0,90.0,5.0,0.0
3088,62.0,0.0,120.0,15.0,0.0
3089,34.0,0.0,120.0,8.0,0.0
3090,65.0,0.0,120.0,15.0,0.0
3091,61.0,30.0,180.0,11.0,0.0
3092,46.0,0.0,120.0,15.0,0.0
3093,58.0,0.0,120.0,15.0,0.0
3094,65.0,0.0,180.0,10.0,0.0
3095,58.0,0.0,90.0,4.0,0.0
3096,58.0,0.0,120.0,6.0,0.0
3097,61.0,0.0,180.0,3.0,0.0
3098,46.0,60.0,120.0,1.0,0.0
3099,65.0,0.0,240.0,0.0,0.0
3100,65.0,0.0,30.0,4.0,0.0
3101,65.0,0.0,30.0,5.0,0.0
3102,56.0,0.0,120.0,3.0,0.0
3103,34.0,120.0,120.0,8.0,0.0
3104,68.0,0.0,90.0,4.0,0.0
3105,56.0,0.0,120.0,12.0,0.0
3106,46.0,0.0,120.0,3.0,0.0
3107,58.0,0.0,120.0,15.0,0.0
3108,46.0,0.0,120.0,1.0,0.0
3109,68.0,30.0,90.0,5.0,0.0
3110,65.0,0.0,120.0,15.0,0.0
3111,62.0,0.0,120.0,15.0,0.0
3112,46.0,0.0,120.0,15.0,0.0
3113,58.0,0.0,120.0,6.0,0.0
3114,46.0,0.0,120.0,13.0,0.0
3115,61.0,0.0,60.0,11.0,0.0
3116,65.0,0.0,60.0,10.0,0.0
3117,61.0,0.0,60.0,3.0,0.0
3118,74.0,0.0,30.0,5.0,0.0
3119,74.0,0.0,30.0,4.0,0.0
3120,63.0,0.0,240.0,11.0,0.0
3121,27.0,0.0,120.0,8.0,0.0
3122,63.0,0.0,240.0,10.0,0.0
3123,39.0,0.0,240.0,1.0,0.0
3124,54.0,0.0,240.0,3.0,0.0
3125,63.0,0.0,240.0,3.0,0.0
3126,39.0,0.0,240.0,3.0,0.0
3127,39.0,120.0,240.0,13.0,0.0
3128,51.0,0.0,120.0,6.0,0.0
3129,63.0,0.0,120.0,15.0,0.0
3130,58.0,120.0,120.0,15.0,0.0
3131,39.0,0.0,120.0,15.0,0.0
3132,54.0,0.0,120.0,15.0,0.0
3133,75.0,0.0,120.0,4.0,0.0
3134,54.0,0.0,240.0,12.0,0.0
3135,75.0,0.0,120.0,5.0,0.0
3136,63.0,0.0,120.0,0.0,0.0
3137,63.0,0.0,120.0,4.0,0.0
3138,54.0,0.0,120.0,5.0,0.0
3139,51.0,0.0,120.0,6.0,0.0
3140,59.0,120.0,240.0,1.0,0.0
3141,63.0,0.0,480.0,0.0,0.0
3142,42.0,120.0,120.0,8.0,0.0
3143,63.0,0.0,120.0,4.0,0.0
3144,54.0,0.0,120.0,6.0,0.0
3145,58.0,0.0,120.0,5.0,0.0
3146,68.0,120.0,600.0,0.0,0.0
3147,58.0,0.0,780.0,1.0,0.0
3148,41.0,120.0,120.0,8.0,0.0
3149,53.0,0.0,120.0,6.0,0.0
3150,56.0,0.0,120.0,5.0,0.0
3151,63.0,120.0,120.0,4.0,0.0
3152,62.0,120.0,240.0,0.0,0.0
3153,34.0,120.0,120.0,8.0,0.0
3154,56.0,0.0,120.0,5.0,0.0
3155,62.0,0.0,120.0,4.0,0.0
3156,53.0,0.0,120.0,6.0,0.0
3157,39.0,0.0,120.0,8.0,0.0
3158,70.0,60.0,300.0,4.0,0.0
3159,51.0,0.0,240.0,6.0,0.0
3160,63.0,60.0,240.0,0.0,0.0
3161,66.0,0.0,120.0,0.0,0.0
3162,53.0,0.0,360.0,1.0,0.0
3163,38.0,0.0,120.0,8.0,0.0
3164,65.0,0.0,360.0,5.0,0.0
3165,50.0,60.0,240.0,6.0,0.0
3166,59.0,60.0,60.0,1.0,0.0
3167,71.0,0.0,60.0,4.0,0.0
3168,70.0,0.0,60.0,4.0,0.0
3169,58.0,60.0,60.0,1.0,0.0
3170,68.0,0.0,60.0,4.0,0.0
3171,56.0,0.0,60.0,1.0,0.0
3172,54.0,0.0,60.0,1.0,0.0
3173,39.0,0.0,120.0,8.0,0.0
3174,51.0,60.0,120.0,6.0,0.0
3175,66.0,60.0,60.0,4.0,0.0
3176,70.0,0.0,60.0,4.0,0.0
3177,58.0,0.0,60.0,1.0,0.0
3178,63.0,0.0,240.0,5.0,0.0
3179,68.0,60.0,60.0,4.0,0.0
3180,35.0,0.0,120.0,8.0,0.0
3181,56.0,0.0,60.0,1.0,0.0
3182,47.0,0.0,120.0,6.0,0.0
3183,51.0,0.0,240.0,1.0,0.0
3184,54.0,0.0,60.0,1.0,0.0
3185,66.0,60.0,60.0,4.0,0.0
3186,32.0,0.0,120.0,8.0,0.0
3187,65.0,60.0,60.0,4.0,0.0
3188,44.0,0.0,120.0,6.0,0.0
3189,53.0,0.0,60.0,1.0,0.0
3190,56.0,60.0,60.0,1.0,0.0
3191,68.0,0.0,60.0,4.0,0.0
3192,54.0,0.0,60.0,1.0,0.0
3193,46.0,0.0,120.0,6.0,0.0
3194,66.0,60.0,60.0,4.0,0.0
3195,62.0,0.0,120.0,5.0,0.0
3196,50.0,0.0,120.0,1.0,0.0
3197,34.0,0.0,120.0,8.0,0.0
3198,53.0,60.0,60.0,1.0,0.0
3199,65.0,0.0,60.0,4.0,0.0
3200,51.0,60.0,120.0,6.0,0.0
3201,51.0,0.0,120.0,1.0,0.0
3202,63.0,0.0,60.0,5.0,0.0
3203,63.0,60.0,60.0,4.0,0.0
3204,27.0,0.0,120.0,8.0,0.0
3205,66.0,60.0,120.0,4.0,0.0
3206,66.0,0.0,120.0,5.0,0.0
3207,78.0,0.0,60.0,4.0,0.0
3208,78.0,120.0,60.0,5.0,0.0
3209,54.0,0.0,120.0,15.0,0.0
3210,58.0,0.0,120.0,15.0,0.0
3211,54.0,60.0,120.0,6.0,0.0
3212,66.0,0.0,120.0,15.0,0.0
3213,46.0,0.0,360.0,3.0,0.0
3214,46.0,0.0,360.0,13.0,0.0
3215,46.0,0.0,480.0,1.0,0.0
3216,42.0,0.0,120.0,8.0,0.0
3217,63.0,0.0,120.0,15.0,0.0
3218,63.0,0.0,120.0,4.0,0.0
3219,63.0,60.0,120.0,5.0,0.0
3220,75.0,0.0,60.0,5.0,0.0
3221,75.0,120.0,60.0,4.0,0.0
3222,60.0,0.0,120.0,15.0,0.0
3223,58.0,0.0,120.0,15.0,0.0
3224,65.0,0.0,120.0,15.0,0.0
3225,41.0,0.0,120.0,8.0,0.0
3226,53.0,0.0,120.0,15.0,0.0
3227,53.0,60.0,120.0,6.0,0.0
3228,60.0,60.0,120.0,5.0,0.0
3229,60.0,0.0,120.0,4.0,0.0
3230,65.0,0.0,180.0,3.0,0.0
3231,65.0,0.0,180.0,11.0,0.0
3232,65.0,60.0,180.0,0.0,0.0
3233,46.0,0.0,120.0,13.0,0.0
3234,46.0,0.0,120.0,3.0,0.0
3235,72.0,0.0,60.0,5.0,0.0
3236,72.0,60.0,60.0,4.0,0.0
3237,65.0,0.0,120.0,15.0,0.0
3238,45.0,60.0,120.0,13.0,0.0
3239,41.0,0.0,120.0,15.0,0.0
3240,60.0,0.0,120.0,15.0,0.0
3241,57.0,0.0,120.0,15.0,0.0
3242,53.0,0.0,120.0,6.0,0.0
3243,45.0,0.0,240.0,1.0,0.0
3244,29.0,0.0,120.0,8.0,0.0
3245,45.0,0.0,120.0,3.0,0.0
3246,66.0,0.0,60.0,3.0,0.0
3247,65.0,0.0,120.0,5.0,0.0
3248,66.0,0.0,60.0,0.0,0.0
3249,66.0,0.0,60.0,11.0,0.0
3250,65.0,0.0,120.0,4.0,0.0
3251,65.0,60.0,60.0,11.0,0.0
3252,45.0,0.0,120.0,13.0,0.0
3253,45.0,0.0,120.0,3.0,0.0
3254,65.0,0.0,60.0,3.0,0.0
3255,65.0,0.0,60.0,0.0,0.0
3256,63.0,0.0,60.0,3.0,0.0
3257,63.0,0.0,60.0,11.0,0.0
3258,77.0,0.0,60.0,5.0,0.0
3259,63.0,60.0,60.0,0.0,0.0
3260,77.0,0.0,60.0,4.0,0.0
3261,34.0,0.0,120.0,8.0,0.0
3262,65.0,0.0,120.0,15.0,0.0
3263,61.0,0.0,120.0,15.0,0.0
3264,46.0,0.0,120.0,15.0,0.0
3265,46.0,0.0,240.0,13.0,0.0
3266,46.0,0.0,240.0,3.0,0.0
3267,46.0,0.0,240.0,1.0,0.0
3268,58.0,0.0,120.0,15.0,0.0
3269,61.0,0.0,60.0,11.0,0.0
3270,61.0,0.0,60.0,3.0,0.0
3271,58.0,60.0,120.0,6.0,0.0
3272,61.0,60.0,60.0,0.0,0.0
3273,65.0,0.0,120.0,5.0,0.0
3274,65.0,0.0,60.0,11.0,0.0
3275,65.0,0.0,60.0,0.0,0.0
3276,65.0,0.0,60.0,3.0,0.0
3277,65.0,0.0,120.0,4.0,0.0
3278,63.0,0.0,60.0,0.0,0.0
3279,63.0,60.0,60.0,3.0,0.0
3280,63.0,0.0,60.0,11.0,0.0
3281,77.0,0.0,60.0,5.0,0.0
3282,77.0,0.0,60.0,4.0,0.0
3283,61.0,0.0,60.0,0.0,0.0
3284,61.0,0.0,60.0,11.0,0.0
3285,61.0,60.0,60.0,3.0,0.0
3286,69.0,0.0,120.0,15.0,0.0
3287,48.0,0.0,240.0,1.0,0.0
3288,36.0,60.0,120.0,8.0,0.0
3289,60.0,0.0,120.0,6.0,0.0
3290,63.0,0.0,120.0,15.0,0.0
3291,60.0,0.0,120.0,15.0,0.0
3292,60.0,0.0,60.0,11.0,0.0
3293,48.0,0.0,240.0,3.0,0.0
3294,48.0,0.0,240.0,13.0,0.0
3295,60.0,0.0,60.0,3.0,0.0
3296,60.0,60.0,60.0,0.0,0.0
3297,48.0,0.0,120.0,15.0,0.0
3298,69.0,0.0,120.0,4.0,0.0
3299,63.0,0.0,60.0,11.0,0.0
3300,63.0,0.0,60.0,0.0,0.0
3301,69.0,0.0,120.0,5.0,0.0
3302,63.0,0.0,60.0,3.0,0.0
3303,61.0,60.0,60.0,0.0,0.0
3304,61.0,0.0,60.0,3.0,0.0
3305,61.0,0.0,60.0,11.0,0.0
3306,81.0,0.0,60.0,5.0,0.0
3307,81.0,0.0,60.0,4.0,0.0
3308,60.0,0.0,60.0,11.0,0.0
3309,60.0,0.0,60.0,0.0,0.0
3310,60.0,60.0,60.0,3.0,0.0
3311,65.0,0.0,120.0,15.0,0.0
3312,49.0,0.0,120.0,15.0,0.0
3313,49.0,0.0,240.0,1.0,0.0
3314,61.0,0.0,120.0,6.0,0.0
3315,61.0,0.0,120.0,15.0,0.0
3316,58.0,0.0,60.0,0.0,0.0
3317,70.0,0.0,120.0,15.0,0.0
3318,37.0,0.0,120.0,8.0,0.0
3319,58.0,0.0,60.0,3.0,0.0
3320,58.0,60.0,60.0,11.0,0.0
3321,49.0,0.0,240.0,3.0,0.0
3322,49.0,0.0,240.0,13.0,0.0
3323,57.0,0.0,60.0,3.0,0.0
3324,57.0,0.0,60.0,11.0,0.0
3325,70.0,60.0,120.0,5.0,0.0
3326,57.0,60.0,60.0,0.0,0.0
3327,70.0,0.0,120.0,4.0,0.0
3328,58.0,0.0,60.0,11.0,0.0
3329,58.0,0.0,60.0,3.0,0.0
3330,58.0,0.0,60.0,0.0,0.0
3331,60.0,60.0,60.0,3.0,0.0
3332,60.0,0.0,60.0,0.0,0.0
3333,82.0,0.0,60.0,5.0,0.0
3334,60.0,0.0,60.0,11.0,0.0
3335,82.0,0.0,60.0,4.0,0.0
3336,46.0,0.0,240.0,13.0,0.0
3337,46.0,0.0,240.0,1.0,0.0
3338,53.0,0.0,480.0,1.0,0.0
3339,53.0,0.0,360.0,3.0,0.0
3340,34.0,0.0,120.0,8.0,0.0
3341,61.0,0.0,60.0,0.0,0.0
3342,70.0,0.0,120.0,15.0,0.0
3343,61.0,60.0,120.0,15.0,0.0
3344,65.0,0.0,120.0,15.0,0.0
3345,61.0,0.0,60.0,3.0,0.0
3346,46.0,0.0,240.0,3.0,0.0
3347,53.0,0.0,360.0,12.0,0.0
3348,58.0,0.0,120.0,6.0,0.0
3349,46.0,0.0,120.0,15.0,0.0
3350,61.0,60.0,60.0,11.0,0.0
3351,61.0,0.0,120.0,5.0,0.0
3352,61.0,0.0,120.0,4.0,0.0
3353,60.0,0.0,60.0,0.0,0.0
3354,60.0,0.0,60.0,3.0,0.0
3355,60.0,0.0,60.0,11.0,0.0
3356,58.0,0.0,60.0,11.0,0.0
3357,58.0,0.0,60.0,0.0,0.0
3358,58.0,60.0,60.0,3.0,0.0
3359,73.0,0.0,60.0,5.0,0.0
3360,56.0,0.0,60.0,3.0,0.0
3361,56.0,0.0,60.0,11.0,0.0
3362,56.0,0.0,60.0,0.0,0.0
3363,73.0,120.0,60.0,4.0,0.0
3364,36.0,0.0,120.0,8.0,0.0
3365,48.0,0.0,240.0,13.0,0.0
3366,55.0,0.0,180.0,3.0,0.0
3367,48.0,60.0,240.0,1.0,0.0
3368,48.0,0.0,120.0,6.0,0.0
3369,48.0,0.0,120.0,15.0,0.0
3370,48.0,0.0,240.0,3.0,0.0
3371,55.0,60.0,120.0,15.0,0.0
3372,60.0,0.0,120.0,15.0,0.0
3373,55.0,60.0,180.0,11.0,0.0
3374,65.0,0.0,120.0,15.0,0.0
3375,55.0,0.0,480.0,0.0,0.0
3376,60.0,0.0,120.0,4.0,0.0
3377,60.0,0.0,120.0,5.0,0.0
3378,72.0,60.0,180.0,0.0,0.0
3379,72.0,0.0,180.0,10.0,0.0
3380,53.0,0.0,120.0,3.0,0.0
3381,53.0,0.0,120.0,12.0,0.0
3382,55.0,0.0,60.0,11.0,0.0
3383,55.0,0.0,60.0,3.0,0.0
3384,72.0,0.0,60.0,4.0,0.0
3385,72.0,0.0,60.0,5.0,0.0
3386,48.0,0.0,120.0,15.0,0.0
3387,60.0,0.0,120.0,15.0,0.0
3388,64.0,0.0,120.0,15.0,0.0
3389,55.0,0.0,240.0,11.0,0.0
3390,55.0,0.0,240.0,3.0,0.0
3391,52.0,0.0,120.0,3.0,0.0
3392,52.0,0.0,240.0,1.0,0.0
3393,55.0,0.0,120.0,15.0,0.0
3394,36.0,0.0,120.0,8.0,0.0
3395,48.0,0.0,120.0,6.0,0.0
3396,52.0,0.0,120.0,12.0,0.0
3397,73.0,60.0,60.0,10.0,0.0
3398,73.0,0.0,60.0,0.0,0.0
3399,67.0,0.0,120.0,5.0,0.0
3400,67.0,0.0,120.0,4.0,0.0
3401,52.0,0.0,120.0,3.0,0.0
3402,52.0,0.0,120.0,12.0,0.0
3403,72.0,0.0,60.0,0.0,0.0
3404,72.0,60.0,60.0,10.0,0.0
3405,79.0,60.0,60.0,5.0,0.0
3406,79.0,0.0,60.0,4.0,0.0
3407,70.0,0.0,60.0,0.0,0.0
3408,70.0,0.0,60.0,10.0,0.0
3409,56.0,0.0,240.0,3.0,0.0
3410,68.0,0.0,60.0,0.0,0.0
3411,56.0,0.0,240.0,11.0,0.0
3412,53.0,0.0,240.0,1.0,0.0
3413,53.0,60.0,240.0,3.0,0.0
3414,53.0,0.0,240.0,6.0,0.0
3415,60.0,0.0,240.0,15.0,0.0
3416,65.0,0.0,240.0,15.0,0.0
3417,53.0,0.0,240.0,7.0,0.0
3418,68.0,60.0,60.0,10.0,0.0
3419,53.0,0.0,240.0,15.0,0.0
3420,53.0,0.0,240.0,12.0,0.0
3421,56.0,0.0,240.0,15.0,0.0
3422,56.0,0.0,240.0,0.0,0.0
3423,72.0,0.0,60.0,0.0,0.0
3424,68.0,0.0,120.0,4.0,0.0
3425,72.0,60.0,60.0,10.0,0.0
3426,68.0,0.0,120.0,5.0,0.0
3427,70.0,0.0,60.0,0.0,0.0
3428,70.0,60.0,60.0,10.0,0.0
3429,80.0,0.0,60.0,5.0,0.0
3430,80.0,0.0,60.0,4.0,0.0
3431,68.0,0.0,60.0,0.0,0.0
3432,68.0,0.0,60.0,10.0,0.0
3433,55.0,0.0,240.0,3.0,0.0
3434,55.0,60.0,240.0,12.0,0.0
3435,58.0,0.0,240.0,11.0,0.0
3436,67.0,0.0,60.0,10.0,0.0
3437,55.0,0.0,240.0,6.0,0.0
3438,58.0,0.0,240.0,0.0,0.0
3439,67.0,60.0,60.0,0.0,0.0
3440,55.0,0.0,240.0,15.0,0.0
3441,64.0,0.0,240.0,15.0,0.0
3442,58.0,0.0,240.0,3.0,0.0
3443,55.0,0.0,240.0,7.0,0.0
3444,58.0,0.0,240.0,15.0,0.0
3445,55.0,0.0,240.0,1.0,0.0
3446,70.0,60.0,60.0,10.0,0.0
3447,64.0,0.0,120.0,4.0,0.0
3448,70.0,0.0,60.0,0.0,0.0
3449,64.0,0.0,120.0,5.0,0.0
3450,68.0,0.0,60.0,0.0,0.0
3451,68.0,60.0,60.0,10.0,0.0
3452,76.0,0.0,60.0,4.0,0.0
3453,67.0,0.0,60.0,0.0,0.0
3454,76.0,0.0,60.0,5.0,0.0
3455,67.0,0.0,60.0,10.0,0.0
3456,65.0,0.0,60.0,0.0,0.0
3457,65.0,60.0,60.0,10.0,0.0
3458,56.0,0.0,120.0,1.0,0.0
3459,60.0,0.0,120.0,3.0,0.0
3460,56.0,0.0,240.0,12.0,0.0
3461,56.0,0.0,240.0,3.0,0.0
3462,65.0,0.0,120.0,15.0,0.0
3463,56.0,0.0,120.0,15.0,0.0
3464,56.0,0.0,120.0,7.0,0.0
3465,60.0,0.0,120.0,15.0,0.0
3466,77.0,0.0,120.0,4.0,0.0
3467,60.0,0.0,240.0,0.0,0.0
3468,77.0,120.0,120.0,5.0,0.0
3469,60.0,0.0,120.0,11.0,0.0
3470,56.0,0.0,240.0,6.0,0.0
3471,67.0,0.0,60.0,0.0,0.0
3472,67.0,0.0,60.0,10.0,0.0
3473,60.0,0.0,120.0,3.0,0.0
3474,68.0,0.0,180.0,0.0,0.0
3475,41.0,0.0,120.0,8.0,0.0
3476,60.0,0.0,120.0,15.0,0.0
3477,65.0,0.0,120.0,15.0,0.0
3478,53.0,0.0,120.0,15.0,0.0
3479,53.0,0.0,120.0,3.0,0.0
3480,53.0,0.0,120.0,13.0,0.0
3481,60.0,0.0,120.0,5.0,0.0
3482,53.0,0.0,120.0,1.0,0.0
3483,68.0,60.0,180.0,10.0,0.0
3484,68.0,0.0,180.0,4.0,0.0
3485,60.0,0.0,120.0,11.0,0.0
3486,56.0,60.0,120.0,15.0,0.0
3487,50.0,0.0,120.0,13.0,0.0
3488,50.0,0.0,120.0,1.0,0.0
3489,58.0,0.0,120.0,15.0,0.0
3490,65.0,60.0,120.0,15.0,0.0
3491,50.0,0.0,120.0,15.0,0.0
3492,65.0,0.0,300.0,5.0,0.0
3493,50.0,0.0,120.0,3.0,0.0
3494,65.0,0.0,300.0,3.0,0.0
3495,58.0,0.0,360.0,6.0,0.0
3496,65.0,0.0,300.0,0.0,0.0
3497,38.0,0.0,120.0,8.0,0.0
3498,68.0,0.0,120.0,15.0,0.0
3499,65.0,60.0,300.0,11.0,0.0
3500,66.0,0.0,60.0,10.0,0.0
3501,66.0,0.0,60.0,0.0,0.0
3502,66.0,0.0,60.0,4.0,0.0
3503,68.0,0.0,60.0,4.0,0.0
3504,42.0,0.0,120.0,15.0,0.0
3505,68.0,0.0,60.0,0.0,0.0
3506,58.0,0.0,120.0,15.0,0.0
3507,34.0,0.0,120.0,8.0,0.0
3508,46.0,0.0,120.0,3.0,0.0
3509,68.0,60.0,60.0,10.0,0.0
3510,46.0,60.0,120.0,1.0,0.0
3511,66.0,0.0,120.0,15.0,0.0
3512,61.0,0.0,120.0,15.0,0.0
3513,46.0,0.0,120.0,13.0,0.0
3514,70.0,0.0,60.0,10.0,0.0
3515,70.0,0.0,60.0,4.0,0.0
3516,70.0,0.0,60.0,0.0,0.0
3517,51.0,0.0,180.0,1.0,0.0
3518,66.0,60.0,300.0,10.0,0.0
3519,66.0,0.0,240.0,15.0,0.0
3520,51.0,0.0,180.0,3.0,0.0
3521,66.0,0.0,300.0,0.0,0.0
3522,51.0,0.0,180.0,13.0,0.0
3523,39.0,60.0,180.0,8.0,0.0
3524,65.0,0.0,240.0,15.0,0.0
3525,51.0,0.0,180.0,15.0,0.0
3526,66.0,0.0,300.0,4.0,0.0
3527,58.0,0.0,60.0,5.0,0.0
3528,58.0,0.0,60.0,0.0,0.0
3529,58.0,60.0,60.0,11.0,0.0
3530,58.0,0.0,60.0,3.0,0.0
3531,60.0,0.0,60.0,11.0,0.0
3532,58.0,0.0,240.0,6.0,0.0
3533,60.0,0.0,60.0,3.0,0.0
3534,60.0,0.0,60.0,0.0,0.0
3535,60.0,0.0,60.0,5.0,0.0
3536,41.0,0.0,60.0,8.0,0.0
3537,53.0,0.0,60.0,15.0,0.0
3538,62.0,0.0,60.0,0.0,0.0
3539,53.0,0.0,60.0,13.0,0.0
3540,53.0,0.0,60.0,3.0,0.0
3541,62.0,60.0,60.0,11.0,0.0
3542,62.0,0.0,60.0,5.0,0.0
3543,62.0,0.0,60.0,3.0,0.0
3544,53.0,0.0,60.0,1.0,0.0
3545,63.0,0.0,480.0,0.0,0.0
3546,54.0,0.0,120.0,1.0,0.0
3547,63.0,0.0,360.0,3.0,0.0
3548,54.0,60.0,120.0,3.0,0.0
3549,54.0,0.0,120.0,15.0,0.0
3550,54.0,0.0,120.0,13.0,0.0
3551,63.0,0.0,360.0,5.0,0.0
3552,63.0,0.0,240.0,15.0,0.0
3553,58.0,0.0,240.0,15.0,0.0
3554,66.0,0.0,240.0,15.0,0.0
3555,63.0,0.0,360.0,11.0,0.0
3556,42.0,0.0,120.0,8.0,0.0
3557,65.0,0.0,60.0,0.0,0.0
3558,65.0,0.0,60.0,10.0,0.0
3559,65.0,0.0,60.0,4.0,0.0
3560,51.0,0.0,120.0,15.0,0.0
3561,66.0,0.0,60.0,4.0,0.0
3562,66.0,0.0,60.0,10.0,0.0
3563,66.0,60.0,60.0,0.0,0.0
3564,51.0,0.0,120.0,3.0,0.0
3565,51.0,0.0,120.0,1.0,0.0
3566,58.0,0.0,240.0,6.0,0.0
3567,51.0,0.0,120.0,13.0,0.0
3568,39.0,120.0,120.0,8.0,0.0
3569,68.0,0.0,60.0,4.0,0.0
3570,68.0,0.0,60.0,10.0,0.0
3571,68.0,0.0,60.0,0.0,0.0
3572,65.0,0.0,180.0,4.0,0.0
3573,58.0,0.0,120.0,13.0,0.0
3574,65.0,60.0,180.0,10.0,0.0
3575,65.0,0.0,480.0,0.0,0.0
3576,63.0,0.0,120.0,15.0,0.0
3577,58.0,0.0,120.0,3.0,0.0
3578,58.0,60.0,120.0,15.0,0.0
3579,65.0,0.0,120.0,15.0,0.0
3580,46.0,0.0,120.0,1.0,0.0
3581,46.0,0.0,120.0,15.0,0.0
3582,34.0,0.0,120.0,8.0,0.0
3583,46.0,0.0,120.0,13.0,0.0
3584,58.0,0.0,180.0,15.0,0.0
3585,63.0,0.0,120.0,11.0,0.0
3586,63.0,60.0,120.0,5.0,0.0
3587,58.0,60.0,180.0,7.0,0.0
3588,65.0,0.0,120.0,15.0,0.0
3589,46.0,0.0,120.0,3.0,0.0
3590,58.0,0.0,180.0,6.0,0.0
3591,58.0,0.0,180.0,3.0,0.0
3592,58.0,0.0,180.0,1.0,0.0
3593,63.0,0.0,120.0,3.0,0.0
3594,61.0,0.0,120.0,15.0,0.0
3595,58.0,0.0,180.0,12.0,0.0
3596,65.0,0.0,60.0,10.0,0.0
3597,65.0,0.0,60.0,4.0,0.0
3598,62.0,0.0,120.0,11.0,0.0
3599,62.0,0.0,120.0,5.0,0.0
3600,62.0,0.0,240.0,0.0,0.0
3601,62.0,0.0,240.0,15.0,0.0
3602,65.0,0.0,240.0,15.0,0.0
3603,62.0,0.0,120.0,3.0,0.0
3604,65.0,0.0,240.0,10.0,0.0
3605,65.0,0.0,120.0,4.0,0.0
3606,70.0,0.0,240.0,15.0,0.0
3607,59.0,0.0,60.0,6.0,0.0
3608,59.0,0.0,60.0,7.0,0.0
3609,59.0,0.0,60.0,1.0,0.0
3610,59.0,0.0,60.0,12.0,0.0
3611,59.0,0.0,60.0,3.0,0.0
3612,59.0,60.0,60.0,15.0,0.0
3613,58.0,0.0,60.0,15.0,0.0
3614,62.0,0.0,120.0,5.0,0.0
3615,62.0,0.0,120.0,11.0,0.0
3616,58.0,60.0,60.0,7.0,0.0
3617,62.0,60.0,120.0,3.0,0.0
3618,58.0,0.0,60.0,1.0,0.0
3619,65.0,0.0,120.0,4.0,0.0
3620,58.0,0.0,60.0,6.0,0.0
3621,58.0,0.0,60.0,3.0,0.0
3622,58.0,0.0,60.0,12.0,0.0
3623,56.0,0.0,60.0,12.0,0.0
3624,56.0,0.0,60.0,1.0,0.0
3625,56.0,0.0,60.0,3.0,0.0
3626,56.0,0.0,60.0,15.0,0.0
3627,56.0,0.0,60.0,6.0,0.0
3628,56.0,0.0,60.0,7.0,0.0
3629,70.0,0.0,120.0,15.0,0.0
3630,63.0,0.0,120.0,15.0,0.0
3631,54.0,0.0,120.0,7.0,0.0
3632,70.0,0.0,360.0,10.0,0.0
3633,63.0,0.0,240.0,5.0,0.0
3634,70.0,0.0,540.0,0.0,0.0
3635,63.0,0.0,240.0,3.0,0.0
3636,54.0,60.0,120.0,15.0,0.0
3637,54.0,0.0,60.0,1.0,0.0
3638,54.0,0.0,60.0,6.0,0.0
3639,63.0,0.0,240.0,11.0,0.0
3640,70.0,0.0,120.0,4.0,0.0
3641,54.0,60.0,60.0,12.0,0.0
3642,54.0,0.0,60.0,3.0,0.0
3643,63.0,0.0,240.0,0.0,0.0
3644,58.0,0.0,60.0,6.0,0.0
3645,58.0,0.0,60.0,1.0,0.0
3646,58.0,0.0,60.0,12.0,0.0
3647,58.0,0.0,60.0,3.0,0.0
3648,51.0,0.0,240.0,15.0,0.0
3649,56.0,0.0,60.0,12.0,0.0
3650,51.0,0.0,240.0,3.0,0.0
3651,56.0,60.0,60.0,1.0,0.0
3652,51.0,0.0,240.0,1.0,0.0
3653,56.0,0.0,60.0,3.0,0.0
3654,39.0,0.0,240.0,8.0,0.0
3655,70.0,0.0,240.0,4.0,0.0
3656,56.0,0.0,60.0,6.0,0.0
3657,70.0,0.0,240.0,15.0,0.0
3658,66.0,0.0,120.0,15.0,0.0
3659,51.0,0.0,240.0,13.0,0.0
3660,54.0,0.0,60.0,12.0,0.0
3661,54.0,60.0,60.0,1.0,0.0
3662,54.0,0.0,60.0,3.0,0.0
3663,54.0,0.0,60.0,6.0,0.0
3664,53.0,0.0,60.0,3.0,0.0
3665,53.0,60.0,60.0,1.0,0.0
3666,65.0,0.0,240.0,5.0,0.0
3667,65.0,0.0,240.0,0.0,0.0
3668,53.0,0.0,60.0,12.0,0.0
3669,65.0,0.0,240.0,3.0,0.0
3670,65.0,0.0,240.0,15.0,0.0
3671,53.0,0.0,60.0,6.0,0.0
3672,65.0,0.0,240.0,11.0,0.0
3673,56.0,0.0,60.0,3.0,0.0
3674,56.0,0.0,60.0,1.0,0.0
3675,56.0,60.0,60.0,12.0,0.0
3676,56.0,0.0,60.0,6.0,0.0
3677,50.0,0.0,120.0,3.0,0.0
3678,38.0,0.0,120.0,8.0,0.0
3679,50.0,0.0,120.0,15.0,0.0
3680,70.0,0.0,120.0,15.0,0.0
3681,54.0,0.0,60.0,1.0,0.0
3682,50.0,0.0,120.0,1.0,0.0
3683,50.0,0.0,120.0,13.0,0.0
3684,54.0,0.0,60.0,6.0,0.0
3685,54.0,60.0,60.0,12.0,0.0
3686,54.0,0.0,60.0,3.0,0.0
3687,70.0,0.0,120.0,10.0,0.0
3688,70.0,60.0,120.0,4.0,0.0
3689,53.0,0.0,60.0,6.0,0.0
3690,53.0,0.0,60.0,3.0,0.0
3691,53.0,0.0,60.0,1.0,0.0
3692,53.0,0.0,60.0,12.0,0.0
3693,51.0,0.0,180.0,6.0,0.0
3694,51.0,0.0,180.0,13.0,0.0
3695,66.0,60.0,60.0,3.0,0.0
3696,66.0,0.0,60.0,5.0,0.0
3697,51.0,0.0,180.0,12.0,0.0
3698,66.0,0.0,60.0,0.0,0.0
3699,39.0,0.0,240.0,8.0,0.0
3700,51.0,0.0,240.0,15.0,0.0
3701,70.0,0.0,240.0,15.0,0.0
3702,66.0,0.0,240.0,15.0,0.0
3703,63.0,0.0,240.0,15.0,0.0
3704,70.0,0.0,60.0,10.0,0.0
3705,66.0,0.0,60.0,11.0,0.0
3706,70.0,0.0,60.0,4.0,0.0
3707,51.0,0.0,180.0,3.0,0.0
3708,51.0,0.0,180.0,1.0,0.0
3709,68.0,0.0,60.0,10.0,0.0
3710,65.0,0.0,60.0,3.0,0.0
3711,68.0,0.0,60.0,4.0,0.0
3712,65.0,0.0,60.0,0.0,0.0
3713,65.0,0.0,60.0,11.0,0.0
3714,65.0,0.0,60.0,5.0,0.0
3715,68.0,60.0,60.0,0.0,0.0
3716,63.0,0.0,180.0,5.0,0.0
3717,63.0,0.0,180.0,0.0,0.0
3718,66.0,0.0,60.0,0.0,0.0
3719,66.0,0.0,60.0,4.0,0.0
3720,66.0,0.0,60.0,10.0,0.0
3721,63.0,0.0,180.0,11.0,0.0
3722,63.0,0.0,180.0,3.0,0.0
3723,68.0,0.0,60.0,0.0,0.0
3724,53.0,0.0,60.0,1.0,0.0
3725,53.0,0.0,60.0,12.0,0.0
3726,53.0,0.0,60.0,3.0,0.0
3727,53.0,0.0,60.0,6.0,0.0
3728,39.0,0.0,60.0,3.0,0.0
3729,68.0,0.0,60.0,4.0,0.0
3730,39.0,60.0,60.0,13.0,0.0
3731,68.0,0.0,60.0,10.0,0.0
3732,39.0,0.0,240.0,3.0,0.0
3733,39.0,0.0,120.0,15.0,0.0
3734,70.0,0.0,120.0,15.0,0.0
3735,27.0,0.0,120.0,8.0,0.0
3736,54.0,0.0,60.0,3.0,0.0
3737,70.0,0.0,60.0,4.0,0.0
3738,66.0,0.0,120.0,15.0,0.0
3739,39.0,60.0,240.0,13.0,0.0
3740,70.0,0.0,60.0,0.0,0.0
3741,54.0,0.0,60.0,6.0,0.0
3742,70.0,0.0,60.0,10.0,0.0
3743,39.0,60.0,120.0,1.0,0.0
3744,63.0,0.0,120.0,15.0,0.0
3745,54.0,60.0,60.0,1.0,0.0
3746,54.0,0.0,60.0,12.0,0.0
3747,68.0,0.0,60.0,4.0,0.0
3748,53.0,0.0,60.0,3.0,0.0
3749,65.0,0.0,60.0,5.0,0.0
3750,65.0,0.0,60.0,0.0,0.0
3751,68.0,0.0,60.0,0.0,0.0
3752,53.0,0.0,60.0,12.0,0.0
3753,53.0,0.0,60.0,6.0,0.0
3754,53.0,0.0,60.0,1.0,0.0
3755,65.0,0.0,60.0,3.0,0.0
3756,68.0,0.0,60.0,10.0,0.0
3757,65.0,0.0,60.0,11.0,0.0
3758,51.0,0.0,60.0,12.0,0.0
3759,70.0,60.0,60.0,10.0,0.0
3760,66.0,0.0,60.0,3.0,0.0
3761,51.0,0.0,60.0,1.0,0.0
3762,51.0,0.0,60.0,6.0,0.0
3763,39.0,0.0,120.0,8.0,0.0
3764,66.0,0.0,60.0,5.0,0.0
3765,70.0,0.0,60.0,4.0,0.0
3766,70.0,0.0,60.0,0.0,0.0
3767,66.0,0.0,60.0,11.0,0.0
3768,51.0,0.0,120.0,15.0,0.0
3769,66.0,0.0,120.0,15.0,0.0
3770,72.0,0.0,120.0,15.0,0.0
3771,66.0,0.0,60.0,0.0,0.0
3772,51.0,0.0,60.0,3.0,0.0
3773,72.0,0.0,60.0,4.0,0.0
3774,63.0,0.0,60.0,11.0,0.0
3775,72.0,0.0,60.0,10.0,0.0
3776,63.0,0.0,60.0,0.0,0.0
3777,63.0,0.0,60.0,3.0,0.0
3778,54.0,0.0,60.0,6.0,0.0
3779,54.0,0.0,60.0,3.0,0.0
3780,72.0,0.0,60.0,0.0,0.0
3781,54.0,0.0,60.0,12.0,0.0
3782,54.0,0.0,60.0,1.0,0.0
3783,63.0,0.0,60.0,5.0,0.0
3784,53.0,0.0,60.0,1.0,0.0
3785,53.0,0.0,60.0,3.0,0.0
3786,53.0,0.0,60.0,6.0,0.0
3787,53.0,0.0,60.0,12.0,0.0
3788,68.0,0.0,60.0,3.0,0.0
3789,68.0,60.0,60.0,0.0,0.0
3790,41.0,0.0,60.0,8.0,0.0
3791,68.0,0.0,480.0,15.0,0.0
3792,53.0,0.0,60.0,15.0,0.0
3793,73.0,0.0,480.0,15.0,0.0
3794,73.0,0.0,120.0,4.0,0.0
3795,73.0,0.0,120.0,10.0,0.0
3796,68.0,0.0,60.0,5.0,0.0
3797,73.0,0.0,120.0,0.0,0.0
3798,68.0,0.0,60.0,11.0,0.0
3799,51.0,60.0,60.0,15.0,0.0
3800,51.0,0.0,60.0,3.0,0.0
3801,51.0,0.0,60.0,6.0,0.0
3802,66.0,0.0,60.0,3.0,0.0
3803,66.0,0.0,60.0,0.0,0.0
3804,39.0,0.0,60.0,8.0,0.0
3805,51.0,0.0,60.0,12.0,0.0
3806,66.0,0.0,60.0,5.0,0.0
3807,66.0,0.0,60.0,11.0,0.0
3808,51.0,0.0,60.0,1.0,0.0
3809,68.0,0.0,120.0,10.0,0.0
3810,68.0,0.0,120.0,4.0,0.0
3811,49.0,0.0,60.0,12.0,0.0
3812,49.0,0.0,60.0,1.0,0.0
3813,68.0,0.0,120.0,0.0,0.0
3814,49.0,0.0,60.0,6.0,0.0
3815,49.0,0.0,60.0,3.0,0.0
3816,37.0,0.0,60.0,8.0,0.0
3817,65.0,0.0,60.0,3.0,0.0
3818,49.0,0.0,60.0,15.0,0.0
3819,65.0,0.0,60.0,11.0,0.0
3820,65.0,0.0,60.0,5.0,0.0
3821,65.0,60.0,60.0,0.0,0.0
3822,51.0,0.0,60.0,3.0,0.0
3823,39.0,0.0,60.0,8.0,0.0
3824,51.0,0.0,60.0,15.0,0.0
3825,51.0,0.0,60.0,6.0,0.0
3826,66.0,0.0,60.0,5.0,0.0
3827,51.0,0.0,60.0,1.0,0.0
3828,51.0,0.0,60.0,12.0,0.0
3829,66.0,0.0,60.0,11.0,0.0
3830,66.0,60.0,60.0,3.0,0.0
3831,66.0,0.0,60.0,0.0,0.0
3832,53.0,0.0,60.0,6.0,0.0
3833,73.0,0.0,360.0,4.0,0.0
3834,53.0,0.0,60.0,3.0,0.0
3835,68.0,0.0,60.0,11.0,0.0
3836,53.0,0.0,60.0,1.0,0.0
3837,68.0,0.0,60.0,3.0,0.0
3838,68.0,0.0,60.0,0.0,0.0
3839,73.0,0.0,480.0,0.0,0.0
3840,53.0,0.0,60.0,12.0,0.0
3841,73.0,0.0,360.0,10.0,0.0
3842,53.0,0.0,60.0,15.0,0.0
3843,41.0,60.0,60.0,8.0,0.0
3844,68.0,0.0,60.0,5.0,0.0
3845,51.0,0.0,60.0,15.0,0.0
3846,66.0,0.0,60.0,11.0,0.0
3847,66.0,0.0,60.0,0.0,0.0
3848,51.0,0.0,60.0,1.0,0.0
3849,66.0,0.0,60.0,5.0,0.0
3850,51.0,60.0,60.0,3.0,0.0
3851,39.0,0.0,60.0,8.0,0.0
3852,51.0,0.0,60.0,6.0,0.0
3853,66.0,0.0,60.0,3.0,0.0
3854,51.0,0.0,60.0,12.0,0.0
3855,53.0,0.0,60.0,15.0,0.0
3856,53.0,0.0,60.0,1.0,0.0
3857,65.0,0.0,60.0,3.0,0.0
3858,65.0,60.0,60.0,5.0,0.0
3859,53.0,0.0,60.0,3.0,0.0
3860,65.0,0.0,60.0,0.0,0.0
3861,41.0,0.0,60.0,8.0,0.0
3862,65.0,0.0,60.0,11.0,0.0
3863,53.0,0.0,60.0,6.0,0.0
3864,53.0,0.0,60.0,12.0,0.0
3865,66.0,0.0,60.0,5.0,0.0
3866,66.0,120.0,60.0,11.0,0.0
3867,37.0,0.0,60.0,8.0,0.0
3868,49.0,0.0,60.0,15.0,0.0
3869,49.0,0.0,60.0,3.0,0.0
3870,49.0,0.0,60.0,12.0,0.0
3871,49.0,0.0,60.0,1.0,0.0
3872,49.0,0.0,60.0,6.0,0.0
3873,66.0,0.0,60.0,0.0,0.0
3874,66.0,0.0,60.0,3.0,0.0
3875,32.0,60.0,120.0,8.0,0.0
3876,44.0,0.0,120.0,15.0,0.0
3877,73.0,0.0,240.0,15.0,0.0
3878,56.0,0.0,120.0,12.0,0.0
3879,56.0,0.0,300.0,1.0,0.0
3880,63.0,0.0,180.0,11.0,0.0
3881,56.0,0.0,120.0,3.0,0.0
3882,63.0,0.0,240.0,15.0,0.0
3883,56.0,0.0,120.0,15.0,0.0
3884,63.0,60.0,180.0,3.0,0.0
3885,56.0,0.0,120.0,6.0,0.0
3886,63.0,0.0,480.0,0.0,0.0
3887,63.0,0.0,180.0,5.0,0.0
3888,44.0,0.0,120.0,12.0,0.0
3889,73.0,0.0,120.0,10.0,0.0
3890,56.0,0.0,180.0,15.0,0.0
3891,73.0,0.0,120.0,4.0,0.0
3892,56.0,0.0,180.0,13.0,0.0
3893,56.0,0.0,180.0,3.0,0.0
3894,44.0,60.0,180.0,8.0,0.0
3895,44.0,0.0,120.0,6.0,0.0
3896,44.0,0.0,120.0,3.0,0.0
3897,63.0,0.0,60.0,11.0,0.0
3898,63.0,0.0,60.0,3.0,0.0
3899,63.0,60.0,60.0,5.0,0.0
3900,63.0,60.0,240.0,3.0,0.0
3901,63.0,0.0,240.0,11.0,0.0
3902,72.0,0.0,120.0,10.0,0.0
3903,72.0,0.0,240.0,0.0,0.0
3904,72.0,0.0,120.0,4.0,0.0
3905,63.0,0.0,240.0,15.0,0.0
3906,72.0,0.0,240.0,15.0,0.0
3907,56.0,0.0,480.0,6.0,0.0
3908,63.0,0.0,120.0,5.0,0.0
3909,58.0,0.0,60.0,13.0,0.0
3910,58.0,0.0,60.0,15.0,0.0
3911,58.0,60.0,60.0,1.0,0.0
3912,46.0,0.0,60.0,8.0,0.0
3913,58.0,0.0,60.0,3.0,0.0
3914,56.0,0.0,60.0,13.0,0.0
3915,56.0,60.0,60.0,1.0,0.0
3916,63.0,0.0,120.0,5.0,0.0
3917,44.0,0.0,60.0,8.0,0.0
3918,56.0,0.0,60.0,3.0,0.0
3919,72.0,0.0,120.0,10.0,0.0
3920,56.0,0.0,60.0,15.0,0.0
3921,72.0,0.0,120.0,4.0,0.0
3922,54.0,0.0,60.0,13.0,0.0
3923,42.0,0.0,60.0,8.0,0.0
3924,54.0,0.0,60.0,15.0,0.0
3925,54.0,0.0,60.0,3.0,0.0
3926,54.0,0.0,60.0,1.0,0.0
3927,56.0,30.0,120.0,5.0,0.0
3928,53.0,0.0,60.0,15.0,0.0
3929,73.0,0.0,120.0,0.0,0.0
3930,41.0,0.0,60.0,8.0,0.0
3931,73.0,0.0,240.0,10.0,0.0
3932,53.0,0.0,60.0,3.0,0.0
3933,53.0,30.0,60.0,1.0,0.0
3934,68.0,0.0,240.0,15.0,0.0
3935,56.0,0.0,240.0,12.0,0.0
3936,65.0,0.0,240.0,15.0,0.0
3937,73.0,0.0,240.0,4.0,0.0
3938,53.0,0.0,60.0,13.0,0.0
3939,73.0,0.0,240.0,15.0,0.0
3940,56.0,0.0,60.0,15.0,0.0
3941,56.0,0.0,60.0,3.0,0.0
3942,56.0,0.0,60.0,13.0,0.0
3943,56.0,0.0,60.0,1.0,0.0
3944,44.0,60.0,60.0,8.0,0.0
3945,54.0,0.0,60.0,3.0,0.0
3946,68.0,0.0,240.0,5.0,0.0
3947,68.0,60.0,120.0,0.0,0.0
3948,54.0,0.0,60.0,15.0,0.0
3949,68.0,60.0,240.0,11.0,0.0
3950,54.0,0.0,60.0,13.0,0.0
3951,42.0,60.0,60.0,8.0,0.0
3952,54.0,0.0,60.0,1.0,0.0
3953,68.0,0.0,240.0,3.0,0.0
3954,53.0,0.0,60.0,13.0,0.0
3955,41.0,0.0,60.0,8.0,0.0
3956,53.0,0.0,60.0,3.0,0.0
3957,53.0,0.0,60.0,15.0,0.0
3958,53.0,0.0,60.0,1.0,0.0
3959,60.0,0.0,240.0,3.0,0.0
3960,60.0,60.0,240.0,12.0,0.0
3961,39.0,0.0,60.0,8.0,0.0
3962,72.0,0.0,240.0,15.0,0.0
3963,66.0,0.0,240.0,15.0,0.0
3964,51.0,0.0,60.0,15.0,0.0
3965,63.0,0.0,240.0,15.0,0.0
3966,60.0,0.0,240.0,0.0,0.0
3967,75.0,0.0,240.0,10.0,0.0
3968,75.0,0.0,240.0,4.0,0.0
3969,51.0,60.0,60.0,1.0,0.0
3970,60.0,0.0,240.0,1.0,0.0
3971,60.0,0.0,240.0,6.0,0.0
3972,51.0,0.0,60.0,3.0,0.0
3973,51.0,0.0,60.0,13.0,0.0
3974,54.0,0.0,60.0,15.0,0.0
3975,54.0,0.0,60.0,13.0,0.0
3976,42.0,0.0,60.0,8.0,0.0
3977,54.0,0.0,60.0,3.0,0.0
3978,54.0,0.0,60.0,1.0,0.0
3979,53.0,0.0,60.0,15.0,0.0
3980,53.0,0.0,60.0,1.0,0.0
3981,53.0,0.0,60.0,3.0,0.0
3982,41.0,0.0,60.0,8.0,0.0
3983,66.0,0.0,120.0,3.0,0.0
3984,66.0,0.0,120.0,0.0,0.0
3985,66.0,0.0,120.0,5.0,0.0
3986,53.0,60.0,60.0,13.0,0.0
3987,66.0,0.0,120.0,11.0,0.0
3988,51.0,0.0,60.0,1.0,0.0
3989,51.0,0.0,60.0,13.0,0.0
3990,51.0,0.0,60.0,3.0,0.0
3991,39.0,0.0,60.0,8.0,0.0
3992,51.0,0.0,60.0,15.0,0.0
3993,61.0,60.0,240.0,12.0,0.0
3994,77.0,0.0,240.0,4.0,0.0
3995,65.0,0.0,120.0,11.0,0.0
3996,49.0,0.0,60.0,13.0,0.0
3997,49.0,0.0,60.0,15.0,0.0
3998,65.0,60.0,120.0,5.0,0.0
3999,65.0,0.0,60.0,15.0,0.0
4000,49.0,0.0,60.0,3.0,0.0
4001,58.0,0.0,60.0,15.0,0.0
4002,65.0,0.0,120.0,3.0,0.0
4003,61.0,0.0,240.0,0.0,0.0
4004,48.0,60.0,60.0,1.0,0.0
4005,77.0,0.0,240.0,10.0,0.0
4006,37.0,0.0,60.0,8.0,0.0
4007,65.0,0.0,240.0,0.0,0.0
4008,61.0,0.0,240.0,1.0,0.0
4009,61.0,0.0,240.0,6.0,0.0
4010,51.0,0.0,60.0,15.0,0.0
4011,51.0,0.0,60.0,1.0,0.0
4012,51.0,0.0,60.0,13.0,0.0
4013,66.0,0.0,60.0,15.0,0.0
4014,39.0,0.0,60.0,8.0,0.0
4015,51.0,0.0,60.0,3.0,0.0
4016,60.0,0.0,60.0,15.0,0.0
4017,53.0,60.0,180.0,3.0,0.0
4018,53.0,0.0,180.0,13.0,0.0
4019,63.0,0.0,60.0,11.0,0.0
4020,53.0,0.0,180.0,1.0,0.0
4021,61.0,0.0,120.0,15.0,0.0
4022,68.0,0.0,120.0,15.0,0.0
4023,53.0,0.0,180.0,15.0,0.0
4024,63.0,60.0,60.0,3.0,0.0
4025,41.0,0.0,180.0,8.0,0.0
4026,63.0,0.0,60.0,5.0,0.0
4027,61.0,0.0,60.0,11.0,0.0
4028,61.0,0.0,60.0,5.0,0.0
4029,61.0,0.0,60.0,3.0,0.0
4030,60.0,0.0,240.0,0.0,0.0
4031,69.0,0.0,120.0,10.0,0.0
4032,53.0,0.0,120.0,6.0,0.0
4033,60.0,0.0,240.0,3.0,0.0
4034,69.0,0.0,240.0,0.0,0.0
4035,69.0,0.0,240.0,15.0,0.0
4036,60.0,0.0,240.0,5.0,0.0
4037,69.0,0.0,120.0,4.0,0.0
4038,60.0,0.0,240.0,15.0,0.0
4039,60.0,0.0,240.0,11.0,0.0
4040,54.0,0.0,60.0,1.0,0.0
4041,54.0,0.0,60.0,13.0,0.0
4042,54.0,60.0,60.0,15.0,0.0
4043,54.0,0.0,60.0,3.0,0.0
4044,42.0,0.0,60.0,8.0,0.0
4045,53.0,0.0,60.0,13.0,0.0
4046,53.0,0.0,60.0,1.0,0.0
4047,53.0,0.0,120.0,6.0,0.0
4048,53.0,60.0,60.0,3.0,0.0
4049,69.0,0.0,120.0,10.0,0.0
4050,69.0,0.0,120.0,4.0,0.0
4051,41.0,0.0,60.0,8.0,0.0
4052,53.0,0.0,60.0,15.0,0.0
4053,51.0,0.0,60.0,13.0,0.0
4054,51.0,0.0,60.0,1.0,0.0
4055,51.0,0.0,60.0,15.0,0.0
4056,51.0,60.0,60.0,3.0,0.0
4057,39.0,0.0,60.0,8.0,0.0
4058,70.0,0.0,240.0,10.0,0.0
4059,49.0,0.0,60.0,13.0,0.0
4060,53.0,0.0,240.0,6.0,0.0
4061,49.0,60.0,60.0,3.0,0.0
4062,70.0,0.0,240.0,15.0,0.0
4063,70.0,0.0,240.0,4.0,0.0
4064,49.0,0.0,60.0,1.0,0.0
4065,70.0,0.0,240.0,0.0,0.0
4066,37.0,0.0,60.0,8.0,0.0
4067,65.0,60.0,240.0,15.0,0.0
4068,49.0,0.0,60.0,15.0,0.0
4069,53.0,0.0,240.0,12.0,0.0
4070,53.0,0.0,60.0,15.0,0.0
4071,53.0,0.0,60.0,13.0,0.0
4072,53.0,60.0,60.0,3.0,0.0
4073,53.0,0.0,60.0,1.0,0.0
4074,41.0,0.0,60.0,8.0,0.0
4075,51.0,0.0,60.0,15.0,0.0
4076,39.0,0.0,60.0,8.0,0.0
4077,65.0,0.0,240.0,5.0,0.0
4078,65.0,0.0,240.0,3.0,0.0
4079,65.0,0.0,240.0,0.0,0.0
4080,51.0,0.0,60.0,3.0,0.0
4081,51.0,0.0,60.0,1.0,0.0
4082,51.0,60.0,60.0,13.0,0.0
4083,65.0,0.0,240.0,11.0,0.0
4084,37.0,0.0,60.0,8.0,0.0
4085,49.0,0.0,60.0,13.0,0.0
4086,49.0,0.0,60.0,1.0,0.0
4087,49.0,0.0,60.0,3.0,0.0
4088,49.0,0.0,60.0,15.0,0.0
4089,57.0,0.0,240.0,1.0,0.0
4090,57.0,0.0,240.0,6.0,0.0
4091,48.0,0.0,60.0,1.0,0.0
4092,36.0,0.0,60.0,8.0,0.0
4093,48.0,60.0,60.0,3.0,0.0
4094,72.0,0.0,240.0,0.0,0.0
4095,48.0,0.0,60.0,13.0,0.0
4096,72.0,0.0,240.0,4.0,0.0
4097,72.0,60.0,240.0,10.0,0.0
4098,57.0,0.0,240.0,15.0,0.0
4099,63.0,0.0,240.0,15.0,0.0
4100,48.0,0.0,60.0,15.0,0.0
4101,57.0,0.0,240.0,12.0,0.0
4102,57.0,0.0,240.0,3.0,0.0
4103,51.0,0.0,60.0,1.0,0.0
4104,51.0,0.0,60.0,3.0,0.0
4105,39.0,60.0,60.0,8.0,0.0
4106,51.0,0.0,60.0,13.0,0.0
4107,51.0,0.0,60.0,15.0,0.0
4108,49.0,0.0,60.0,15.0,0.0
4109,49.0,0.0,60.0,1.0,0.0
4110,49.0,0.0,60.0,13.0,0.0
4111,49.0,60.0,60.0,3.0,0.0
4112,63.0,0.0,120.0,11.0,0.0
4113,63.0,0.0,120.0,3.0,0.0
4114,37.0,0.0,60.0,8.0,0.0
4115,63.0,0.0,120.0,5.0,0.0
4116,63.0,0.0,120.0,0.0,0.0
4117,48.0,0.0,60.0,1.0,0.0
4118,36.0,0.0,60.0,8.0,0.0
4119,48.0,0.0,60.0,15.0,0.0
4120,48.0,0.0,60.0,3.0,0.0
4121,48.0,0.0,60.0,13.0,0.0
4122,73.0,0.0,240.0,10.0,0.0
4123,58.0,0.0,240.0,12.0,0.0
4124,73.0,0.0,240.0,0.0,0.0
4125,61.0,0.0,120.0,5.0,0.0
4126,58.0,0.0,240.0,6.0,0.0
4127,46.0,60.0,60.0,1.0,0.0
4128,58.0,0.0,240.0,1.0,0.0
4129,73.0,60.0,240.0,4.0,0.0
4130,65.0,0.0,120.0,15.0,0.0
4131,61.0,0.0,240.0,15.0,0.0
4132,58.0,0.0,240.0,15.0,0.0
4133,46.0,0.0,60.0,15.0,0.0
4134,61.0,0.0,240.0,0.0,0.0
4135,46.0,0.0,60.0,13.0,0.0
4136,61.0,0.0,120.0,11.0,0.0
4137,34.0,0.0,60.0,8.0,0.0
4138,61.0,0.0,120.0,3.0,0.0
4139,46.0,0.0,60.0,3.0,0.0
4140,47.0,0.0,60.0,13.0,0.0
4141,35.0,0.0,60.0,8.0,0.0
4142,47.0,60.0,60.0,3.0,0.0
4143,47.0,0.0,60.0,15.0,0.0
4144,47.0,0.0,60.0,1.0,0.0
4145,59.0,60.0,60.0,11.0,0.0
4146,49.0,0.0,180.0,1.0,0.0
4147,49.0,0.0,180.0,15.0,0.0
4148,59.0,0.0,60.0,3.0,0.0
4149,37.0,0.0,180.0,8.0,0.0
4150,65.0,0.0,120.0,15.0,0.0
4151,49.0,0.0,180.0,3.0,0.0
4152,59.0,0.0,60.0,5.0,0.0
4153,49.0,60.0,180.0,13.0,0.0
4154,58.0,0.0,60.0,3.0,0.0
4155,58.0,0.0,60.0,11.0,0.0
4156,58.0,0.0,60.0,5.0,0.0
4157,56.0,0.0,240.0,5.0,0.0
4158,56.0,0.0,240.0,15.0,0.0
4159,56.0,0.0,240.0,3.0,0.0
4160,65.0,0.0,120.0,4.0,0.0
4161,65.0,0.0,240.0,15.0,0.0
4162,49.0,0.0,120.0,6.0,0.0
4163,61.0,0.0,240.0,15.0,0.0
4164,65.0,60.0,240.0,0.0,0.0
4165,56.0,0.0,240.0,0.0,0.0
4166,56.0,0.0,240.0,11.0,0.0
4167,65.0,0.0,120.0,10.0,0.0
4168,51.0,60.0,60.0,3.0,0.0
4169,51.0,0.0,60.0,1.0,0.0
4170,51.0,0.0,60.0,13.0,0.0
4171,51.0,0.0,60.0,15.0,0.0
4172,39.0,0.0,60.0,8.0,0.0
4173,49.0,0.0,60.0,1.0,0.0
4174,49.0,0.0,60.0,3.0,0.0
4175,65.0,0.0,120.0,10.0,0.0
4176,49.0,0.0,60.0,13.0,0.0
4177,49.0,60.0,60.0,15.0,0.0
4178,49.0,0.0,120.0,6.0,0.0
4179,65.0,0.0,120.0,4.0,0.0
4180,37.0,0.0,60.0,8.0,0.0
4181,35.0,0.0,60.0,8.0,0.0
4182,47.0,0.0,60.0,1.0,0.0
4183,47.0,0.0,60.0,13.0,0.0
4184,48.0,0.0,60.0,15.0,0.0
4185,47.0,0.0,60.0,3.0,0.0
4186,61.0,0.0,240.0,15.0,0.0
4187,66.0,0.0,240.0,15.0,0.0
4188,66.0,0.0,240.0,10.0,0.0
4189,61.0,60.0,360.0,0.0,0.0
4190,66.0,0.0,240.0,0.0,0.0
4191,46.0,0.0,60.0,15.0,0.0
4192,49.0,0.0,240.0,6.0,0.0
4193,46.0,0.0,60.0,13.0,0.0
4194,66.0,0.0,240.0,4.0,0.0
4195,46.0,0.0,60.0,3.0,0.0
4196,46.0,60.0,60.0,1.0,0.0
4197,49.0,0.0,240.0,12.0,0.0
4198,34.0,0.0,60.0,8.0,0.0
4199,37.0,0.0,60.0,8.0,0.0
4200,49.0,0.0,60.0,13.0,0.0
4201,49.0,0.0,60.0,1.0,0.0
4202,49.0,0.0,60.0,3.0,0.0
4203,49.0,60.0,60.0,15.0,0.0
4204,61.0,0.0,240.0,11.0,0.0
4205,35.0,0.0,60.0,8.0,0.0
4206,61.0,0.0,240.0,5.0,0.0
4207,47.0,0.0,60.0,13.0,0.0
4208,61.0,0.0,240.0,3.0,0.0
4209,47.0,0.0,60.0,3.0,0.0
4210,48.0,0.0,60.0,1.0,0.0
4211,48.0,60.0,60.0,15.0,0.0
4212,46.0,60.0,60.0,15.0,0.0
4213,46.0,0.0,60.0,1.0,0.0
4214,46.0,0.0,60.0,3.0,0.0
4215,46.0,0.0,60.0,13.0,0.0
4216,34.0,0.0,60.0,8.0,0.0
4217,44.0,0.0,60.0,1.0,0.0
4218,53.0,0.0,240.0,6.0,0.0
4219,53.0,0.0,240.0,12.0,0.0
4220,32.0,60.0,60.0,8.0,0.0
4221,65.0,0.0,240.0,15.0,0.0
4222,59.0,0.0,240.0,15.0,0.0
4223,68.0,0.0,240.0,4.0,0.0
4224,53.0,0.0,240.0,1.0,0.0
4225,53.0,0.0,240.0,3.0,0.0
4226,44.0,0.0,60.0,15.0,0.0
4227,44.0,0.0,60.0,3.0,0.0
4228,68.0,0.0,240.0,10.0,0.0
4229,44.0,0.0,60.0,13.0,0.0
4230,68.0,0.0,240.0,0.0,0.0
4231,48.0,0.0,60.0,15.0,0.0
4232,47.0,0.0,60.0,3.0,0.0
4233,48.0,0.0,60.0,1.0,0.0
4234,47.0,0.0,60.0,13.0,0.0
4235,35.0,0.0,60.0,8.0,0.0
4236,46.0,0.0,60.0,1.0,0.0
4237,46.0,0.0,60.0,3.0,0.0
4238,34.0,0.0,60.0,8.0,0.0
4239,46.0,60.0,60.0,13.0,0.0
4240,59.0,0.0,120.0,0.0,0.0
4241,46.0,0.0,60.0,15.0,0.0
4242,60.0,0.0,120.0,11.0,0.0
4243,60.0,0.0,120.0,5.0,0.0
4244,60.0,0.0,120.0,3.0,0.0
4245,44.0,0.0,60.0,1.0,0.0
4246,44.0,0.0,60.0,13.0,0.0
4247,44.0,120.0,60.0,15.0,0.0
4248,32.0,0.0,60.0,8.0,0.0
4249,44.0,0.0,60.0,3.0,0.0
4250,61.0,0.0,240.0,15.0,0.0
4251,70.0,120.0,120.0,0.0,0.0
4252,70.0,0.0,120.0,10.0,0.0
4253,58.0,0.0,240.0,5.0,0.0
4254,54.0,0.0,240.0,3.0,0.0
4255,58.0,0.0,120.0,0.0,0.0
4256,42.0,0.0,240.0,13.0,0.0
4257,54.0,0.0,120.0,1.0,0.0
4258,70.0,0.0,240.0,4.0,0.0
4259,54.0,0.0,240.0,15.0,0.0
4260,42.0,0.0,240.0,15.0,0.0
4261,54.0,0.0,240.0,12.0,0.0
4262,30.0,0.0,240.0,8.0,0.0
4263,54.0,0.0,240.0,6.0,0.0
4264,58.0,0.0,240.0,11.0,0.0
4265,58.0,0.0,240.0,3.0,0.0
4266,58.0,0.0,240.0,15.0,0.0
4267,42.0,0.0,240.0,3.0,0.0
4268,73.0,120.0,120.0,0.0,0.0
4269,70.0,0.0,120.0,2.0,0.0
4270,66.0,0.0,120.0,0.0,0.0
4271,70.0,0.0,120.0,10.0,0.0
4272,46.0,0.0,120.0,14.0,0.0
4273,54.0,0.0,120.0,1.0,0.0
4274,61.0,0.0,120.0,1.0,0.0
4275,58.0,0.0,120.0,2.0,0.0
4276,70.0,0.0,120.0,10.0,0.0
4277,73.0,0.0,120.0,0.0,0.0
4278,70.0,120.0,120.0,2.0,0.0
4279,61.0,0.0,120.0,1.0,0.0
4280,54.0,0.0,120.0,1.0,0.0
4281,46.0,0.0,120.0,14.0,0.0
4282,66.0,0.0,120.0,0.0,0.0
4283,58.0,0.0,120.0,2.0,0.0
4284,46.0,0.0,120.0,14.0,0.0
4285,58.0,75.0,120.0,2.0,0.0
4286,66.0,0.0,120.0,0.0,0.0
4287,73.0,0.0,120.0,0.0,0.0
4288,70.0,0.0,120.0,2.0,0.0
4289,70.0,0.0,120.0,10.0,0.0
4290,61.0,0.0,120.0,1.0,0.0
4291,54.0,0.0,120.0,1.0,0.0
4292,73.0,0.0,240.0,0.0,0.0
4293,61.0,0.0,240.0,1.0,0.0
4294,54.0,0.0,240.0,1.0,0.0
4295,58.0,0.0,240.0,2.0,0.0
4296,70.0,0.0,240.0,2.0,0.0
4297,73.0,0.0,180.0,10.0,0.0
4298,66.0,0.0,240.0,0.0,0.0
4299,46.0,0.0,240.0,14.0,0.0
4300,66.0,0.0,60.0,6.0,0.0
4301,68.0,0.0,15.0,4.0,0.0
4302,68.0,15.0,15.0,5.0,0.0
4303,42.0,0.0,60.0,8.0,0.0
4304,66.0,0.0,15.0,5.0,0.0
4305,66.0,15.0,15.0,4.0,0.0
4306,65.0,15.0,15.0,5.0,0.0
4307,65.0,0.0,15.0,4.0,0.0
4308,66.0,0.0,15.0,4.0,0.0
4309,66.0,60.0,15.0,5.0,0.0
4310,70.0,0.0,60.0,6.0,0.0
4311,58.0,0.0,120.0,12.0,0.0
4312,54.0,30.0,120.0,3.0,0.0
4313,46.0,0.0,60.0,8.0,0.0
4314,70.0,0.0,60.0,5.0,0.0
4315,70.0,30.0,60.0,4.0,0.0
4316,61.0,0.0,120.0,3.0,0.0
4317,58.0,0.0,120.0,3.0,0.0
4318,61.0,0.0,120.0,11.0,0.0
4319,54.0,0.0,120.0,13.0,0.0
4320,66.0,0.0,30.0,6.0,0.0
4321,66.0,30.0,30.0,4.0,0.0
4322,66.0,0.0,30.0,5.0,0.0
4323,72.0,0.0,60.0,10.0,0.0
4324,42.0,0.0,30.0,8.0,0.0
4325,58.0,0.0,120.0,3.0,0.0
4326,61.0,0.0,30.0,6.0,0.0
4327,70.0,0.0,240.0,10.0,0.0
4328,61.0,0.0,30.0,5.0,0.0
4329,61.0,60.0,30.0,4.0,0.0
4330,37.0,0.0,30.0,8.0,0.0
4331,61.0,30.0,120.0,11.0,0.0
4332,61.0,0.0,120.0,3.0,0.0
4333,58.0,0.0,120.0,12.0,0.0
4334,54.0,0.0,120.0,3.0,0.0
4335,54.0,0.0,120.0,13.0,0.0
4336,34.0,0.0,30.0,8.0,0.0
4337,58.0,0.0,30.0,6.0,0.0
4338,58.0,30.0,30.0,5.0,0.0
4339,58.0,0.0,30.0,4.0,0.0
4340,61.0,0.0,120.0,3.0,0.0
4341,54.0,60.0,30.0,4.0,0.0
4342,30.0,0.0,30.0,8.0,0.0
4343,54.0,0.0,30.0,6.0,0.0
4344,54.0,0.0,120.0,3.0,0.0
4345,58.0,0.0,120.0,12.0,0.0
4346,54.0,0.0,120.0,13.0,0.0
4347,54.0,0.0,30.0,5.0,0.0
4348,61.0,180.0,120.0,11.0,0.0
4349,58.0,0.0,120.0,3.0,0.0
4350,61.0,30.0,30.0,5.0,0.0
4351,61.0,0.0,30.0,4.0,0.0
4352,37.0,0.0,30.0,8.0,0.0
4353,61.0,0.0,30.0,6.0,0.0
4354,61.0,0.0,180.0,12.0,0.0
4355,53.0,0.0,240.0,4.0,0.0
4356,65.0,0.0,180.0,3.0,0.0
4357,65.0,0.0,240.0,15.0,0.0
4358,61.0,0.0,240.0,15.0,0.0
4359,58.0,0.0,240.0,15.0,0.0
4360,41.0,0.0,240.0,15.0,0.0
4361,53.0,60.0,180.0,3.0,0.0
4362,53.0,0.0,180.0,13.0,0.0
4363,65.0,0.0,180.0,11.0,0.0
4364,53.0,0.0,240.0,6.0,0.0
4365,53.0,120.0,240.0,5.0,0.0
4366,29.0,0.0,240.0,8.0,0.0
4367,61.0,0.0,180.0,3.0,0.0
4368,70.0,0.0,120.0,10.0,0.0
4369,41.0,0.0,120.0,14.0,0.0
4370,73.0,0.0,120.0,0.0,0.0
4371,70.0,0.0,120.0,0.0,0.0
4372,53.0,0.0,120.0,2.0,0.0
4373,65.0,0.0,120.0,2.0,0.0
4374,58.0,0.0,120.0,1.0,0.0
4375,61.0,0.0,120.0,1.0,0.0
4376,60.0,0.0,60.0,3.0,0.0
4377,60.0,0.0,60.0,12.0,0.0
4378,63.0,0.0,60.0,11.0,0.0
4379,53.0,0.0,60.0,3.0,0.0
4380,53.0,0.0,60.0,13.0,0.0
4381,63.0,0.0,60.0,3.0,0.0
4382,58.0,0.0,240.0,12.0,0.0
4383,58.0,0.0,240.0,3.0,0.0
4384,70.0,0.0,120.0,0.0,0.0
4385,53.0,0.0,240.0,13.0,0.0
4386,61.0,75.0,240.0,3.0,0.0
4387,53.0,0.0,240.0,3.0,0.0
4388,73.0,0.0,120.0,0.0,0.0
4389,41.0,0.0,120.0,14.0,0.0
4390,61.0,0.0,120.0,1.0,0.0
4391,58.0,0.0,120.0,1.0,0.0
4392,61.0,0.0,240.0,11.0,0.0
4393,70.0,0.0,120.0,10.0,0.0
4394,65.0,120.0,120.0,2.0,0.0
4395,53.0,0.0,120.0,2.0,0.0
4396,41.0,0.0,120.0,14.0,0.0
4397,73.0,0.0,120.0,0.0,0.0
4398,53.0,0.0,120.0,2.0,0.0
4399,65.0,0.0,120.0,2.0,0.0
4400,70.0,0.0,120.0,10.0,0.0
4401,70.0,0.0,120.0,0.0,0.0
4402,61.0,0.0,120.0,1.0,0.0
4403,58.0,0.0,120.0,1.0,0.0
4404,58.0,0.0,240.0,1.0,0.0
4405,41.0,0.0,240.0,14.0,0.0
4406,70.0,0.0,240.0,0.0,0.0
4407,73.0,0.0,180.0,10.0,0.0
4408,61.0,0.0,240.0,1.0,0.0
4409,65.0,0.0,240.0,2.0,0.0
4410,53.0,0.0,240.0,2.0,0.0
4411,73.0,0.0,240.0,0.0,0.0
4412,72.0,15.0,15.0,5.0,0.0
4413,72.0,0.0,15.0,4.0,0.0
4414,46.0,0.0,60.0,8.0,0.0
4415,70.0,0.0,60.0,6.0,0.0
4416,70.0,0.0,15.0,5.0,0.0
4417,70.0,15.0,15.0,4.0,0.0
4418,69.0,15.0,15.0,5.0,0.0
4419,69.0,0.0,15.0,4.0,0.0
4420,70.0,0.0,15.0,5.0,0.0
4421,70.0,60.0,15.0,4.0,0.0
4422,53.0,0.0,120.0,13.0,0.0
4423,61.0,0.0,120.0,3.0,0.0
4424,73.0,0.0,60.0,6.0,0.0
4425,58.0,30.0,120.0,12.0,0.0
4426,53.0,0.0,120.0,3.0,0.0
4427,61.0,0.0,120.0,11.0,0.0
4428,49.0,30.0,60.0,8.0,0.0
4429,73.0,0.0,60.0,4.0,0.0
4430,58.0,0.0,120.0,3.0,0.0
4431,73.0,0.0,60.0,5.0,0.0
4432,70.0,0.0,30.0,6.0,0.0
4433,72.0,0.0,60.0,10.0,0.0
4434,46.0,0.0,30.0,8.0,0.0
4435,70.0,30.0,30.0,4.0,0.0
4436,70.0,0.0,30.0,5.0,0.0
4437,58.0,0.0,120.0,12.0,0.0
4438,65.0,0.0,30.0,6.0,0.0
4439,61.0,0.0,120.0,11.0,0.0
4440,65.0,0.0,30.0,5.0,0.0
4441,70.0,0.0,240.0,10.0,0.0
4442,58.0,0.0,120.0,3.0,0.0
4443,53.0,30.0,120.0,3.0,0.0
4444,53.0,0.0,120.0,13.0,0.0
4445,61.0,0.0,120.0,3.0,0.0
4446,65.0,60.0,30.0,4.0,0.0
4447,41.0,0.0,30.0,8.0,0.0
4448,37.0,0.0,30.0,8.0,0.0
4449,61.0,0.0,30.0,6.0,0.0
4450,61.0,30.0,30.0,4.0,0.0
4451,61.0,0.0,30.0,5.0,0.0
4452,58.0,0.0,30.0,6.0,0.0
4453,53.0,0.0,120.0,3.0,0.0
4454,61.0,0.0,120.0,11.0,0.0
4455,53.0,120.0,120.0,13.0,0.0
4456,61.0,0.0,120.0,3.0,0.0
4457,34.0,0.0,30.0,8.0,0.0
4458,58.0,0.0,120.0,12.0,0.0
4459,58.0,0.0,120.0,3.0,0.0
4460,58.0,0.0,30.0,4.0,0.0
4461,58.0,60.0,30.0,5.0,0.0
4462,37.0,0.0,30.0,8.0,0.0
4463,61.0,0.0,30.0,5.0,0.0
4464,61.0,30.0,30.0,4.0,0.0
4465,61.0,0.0,30.0,6.0,0.0
4466,70.0,0.0,240.0,2.0,0.0
4467,61.0,0.0,480.0,15.0,0.0
4468,58.0,0.0,240.0,2.0,0.0
4469,52.0,0.0,120.0,5.0,0.0
4470,73.0,0.0,480.0,15.0,0.0
4471,40.0,0.0,120.0,15.0,0.0
4472,61.0,0.0,180.0,11.0,0.0
4473,73.0,0.0,720.0,0.0,0.0
4474,67.0,0.0,960.0,0.0,0.0
4475,58.0,0.0,720.0,1.0,0.0
4476,52.0,0.0,960.0,1.0,0.0
4477,52.0,0.0,120.0,6.0,0.0
4478,58.0,0.0,180.0,12.0,0.0
4479,28.0,0.0,120.0,8.0,0.0
4480,58.0,0.0,180.0,3.0,0.0
4481,52.0,0.0,180.0,13.0,0.0
4482,67.0,0.0,480.0,15.0,0.0
4483,52.0,60.0,120.0,4.0,0.0
4484,46.0,0.0,240.0,14.0,0.0
4485,61.0,60.0,180.0,3.0,0.0
4486,52.0,0.0,180.0,3.0,0.0
4487,67.0,0.0,120.0,6.0,0.0
4488,52.0,0.0,120.0,15.0,0.0
4489,58.0,0.0,120.0,5.0,0.0
4490,73.0,0.0,120.0,4.0,0.0
4491,40.0,120.0,120.0,8.0,0.0
4492,52.0,0.0,60.0,3.0,0.0
4493,52.0,0.0,60.0,13.0,0.0
4494,60.0,0.0,60.0,11.0,0.0
4495,60.0,0.0,60.0,3.0,0.0
4496,56.0,0.0,60.0,3.0,0.0
4497,56.0,0.0,60.0,12.0,0.0
4498,73.0,0.0,120.0,4.0,0.0
4499,55.0,0.0,240.0,12.0,0.0
4500,52.0,60.0,120.0,15.0,0.0
4501,73.0,0.0,480.0,10.0,0.0
4502,58.0,0.0,120.0,5.0,0.0
4503,40.0,0.0,120.0,8.0,0.0
4504,52.0,0.0,240.0,3.0,0.0
4505,52.0,0.0,240.0,13.0,0.0
4506,46.0,60.0,180.0,14.0,0.0
4507,70.0,0.0,180.0,2.0,0.0
4508,58.0,0.0,240.0,3.0,0.0
4509,58.0,0.0,240.0,11.0,0.0
4510,67.0,0.0,120.0,6.0,0.0
4511,58.0,0.0,180.0,2.0,0.0
4512,55.0,0.0,240.0,3.0,0.0
4513,67.0,0.0,120.0,6.0,0.0
4514,52.0,0.0,120.0,15.0,0.0
4515,73.0,0.0,120.0,4.0,0.0
4516,40.0,0.0,120.0,8.0,0.0
4517,58.0,0.0,120.0,5.0,0.0
4518,58.0,0.0,60.0,2.0,0.0
4519,46.0,120.0,60.0,14.0,0.0
4520,70.0,0.0,60.0,2.0,0.0
4521,52.0,120.0,120.0,15.0,0.0
4522,73.0,0.0,240.0,15.0,0.0
4523,67.0,0.0,240.0,15.0,0.0
4524,40.0,0.0,120.0,8.0,0.0
4525,46.0,0.0,240.0,14.0,0.0
4526,67.0,0.0,240.0,11.0,0.0
4527,52.0,0.0,240.0,3.0,0.0
4528,52.0,0.0,240.0,13.0,0.0
4529,58.0,0.0,120.0,5.0,0.0
4530,58.0,0.0,240.0,3.0,0.0
4531,58.0,0.0,240.0,12.0,0.0
4532,73.0,0.0,120.0,4.0,0.0
4533,67.0,0.0,120.0,6.0,0.0
4534,70.0,120.0,240.0,2.0,0.0
4535,58.0,0.0,240.0,2.0,0.0
4536,67.0,0.0,240.0,3.0,0.0
4537,67.0,0.0,120.0,6.0,0.0
4538,58.0,0.0,120.0,5.0,0.0
4539,73.0,0.0,120.0,4.0,0.0
4540,40.0,0.0,120.0,8.0,0.0
4541,52.0,0.0,120.0,15.0,0.0
4542,72.0,0.0,120.0,4.0,0.0
4543,60.0,0.0,120.0,5.0,0.0
4544,72.0,0.0,120.0,10.0,0.0
4545,52.0,0.0,120.0,13.0,0.0
4546,67.0,0.0,120.0,3.0,0.0
4547,67.0,0.0,120.0,6.0,0.0
4548,72.0,0.0,120.0,0.0,0.0
4549,67.0,0.0,120.0,15.0,0.0
4550,52.0,0.0,120.0,3.0,0.0
4551,52.0,0.0,120.0,15.0,0.0
4552,72.0,120.0,120.0,15.0,0.0
4553,60.0,0.0,120.0,1.0,0.0
4554,40.0,0.0,120.0,8.0,0.0
4555,67.0,0.0,120.0,11.0,0.0
4556,60.0,0.0,120.0,3.0,0.0
4557,60.0,0.0,120.0,12.0,0.0
4558,67.0,0.0,120.0,3.0,0.0
4559,67.0,0.0,120.0,15.0,0.0
4560,61.0,0.0,120.0,12.0,0.0
4561,61.0,0.0,120.0,3.0,0.0
4562,40.0,0.0,120.0,8.0,0.0
4563,52.0,0.0,120.0,15.0,0.0
4564,70.0,0.0,120.0,15.0,0.0
4565,61.0,0.0,120.0,1.0,0.0
4566,70.0,0.0,120.0,0.0,0.0
4567,58.0,0.0,120.0,2.0,0.0
4568,67.0,120.0,120.0,11.0,0.0
4569,46.0,0.0,120.0,14.0,0.0
4570,61.0,0.0,120.0,5.0,0.0
4571,67.0,0.0,120.0,6.0,0.0
4572,70.0,0.0,120.0,2.0,0.0
4573,52.0,0.0,120.0,13.0,0.0
4574,52.0,0.0,120.0,3.0,0.0
4575,70.0,0.0,120.0,10.0,0.0
4576,70.0,0.0,120.0,4.0,0.0
4577,61.0,0.0,120.0,15.0,0.0
4578,70.0,0.0,120.0,15.0,0.0
4579,65.0,120.0,120.0,11.0,0.0
4580,61.0,0.0,120.0,5.0,0.0
4581,53.0,0.0,120.0,3.0,0.0
4582,65.0,0.0,120.0,6.0,0.0
4583,70.0,0.0,120.0,10.0,0.0
4584,53.0,0.0,120.0,13.0,0.0
4585,53.0,0.0,120.0,15.0,0.0
4586,61.0,0.0,120.0,12.0,0.0
4587,53.0,0.0,120.0,2.0,0.0
4588,65.0,0.0,120.0,2.0,0.0
4589,70.0,0.0,120.0,0.0,0.0
4590,65.0,0.0,120.0,15.0,0.0
4591,65.0,0.0,240.0,0.0,0.0
4592,41.0,0.0,120.0,14.0,0.0
4593,65.0,0.0,120.0,3.0,0.0
4594,53.0,0.0,240.0,1.0,0.0
4595,61.0,0.0,120.0,1.0,0.0
4596,70.0,0.0,120.0,4.0,0.0
4597,41.0,0.0,120.0,8.0,0.0
4598,61.0,0.0,120.0,3.0,0.0
4599,60.0,0.0,120.0,1.0,0.0
4600,65.0,0.0,120.0,3.0,0.0
4601,65.0,0.0,120.0,15.0,0.0
4602,60.0,0.0,120.0,15.0,0.0
4603,69.0,0.0,120.0,15.0,0.0
4604,41.0,0.0,120.0,15.0,0.0
4605,69.0,0.0,120.0,0.0,0.0
4606,69.0,0.0,120.0,10.0,0.0
4607,53.0,0.0,120.0,3.0,0.0
4608,41.0,0.0,120.0,14.0,0.0
4609,65.0,0.0,120.0,2.0,0.0
4610,53.0,0.0,120.0,2.0,0.0
4611,60.0,0.0,120.0,5.0,0.0
4612,65.0,0.0,120.0,11.0,0.0
4613,53.0,0.0,120.0,6.0,0.0
4614,60.0,240.0,120.0,12.0,0.0
4615,29.0,0.0,120.0,8.0,0.0
4616,60.0,0.0,120.0,3.0,0.0
4617,53.0,0.0,120.0,13.0,0.0
4618,69.0,0.0,120.0,4.0,0.0
4619,65.0,0.0,120.0,10.0,0.0
4620,60.0,0.0,120.0,5.0,0.0
4621,57.0,0.0,120.0,3.0,0.0
4622,29.0,0.0,120.0,8.0,0.0
4623,53.0,0.0,120.0,13.0,0.0
4624,60.0,0.0,120.0,3.0,0.0
4625,53.0,240.0,120.0,3.0,0.0
4626,65.0,0.0,120.0,4.0,0.0
4627,60.0,0.0,120.0,15.0,0.0
4628,57.0,0.0,120.0,15.0,0.0
4629,57.0,0.0,120.0,6.0,0.0
4630,60.0,0.0,120.0,11.0,0.0
4631,57.0,0.0,120.0,12.0,0.0
4632,41.0,0.0,120.0,15.0,0.0
4633,61.0,0.0,240.0,11.0,0.0
4634,58.0,0.0,240.0,6.0,0.0
4635,58.0,0.0,240.0,15.0,0.0
4636,58.0,0.0,240.0,3.0,0.0
4637,46.0,240.0,240.0,13.0,0.0
4638,61.0,0.0,240.0,5.0,0.0
4639,46.0,0.0,240.0,3.0,0.0
4640,58.0,0.0,240.0,12.0,0.0
4641,65.0,0.0,240.0,10.0,0.0
4642,65.0,0.0,240.0,4.0,0.0
4643,46.0,0.0,240.0,15.0,0.0
4644,61.0,0.0,240.0,15.0,0.0
4645,65.0,0.0,240.0,15.0,0.0
4646,61.0,0.0,240.0,3.0,0.0
4647,34.0,0.0,240.0,8.0,0.0
4648,60.0,0.0,240.0,12.0,0.0
4649,33.0,0.0,240.0,8.0,0.0
4650,60.0,0.0,240.0,3.0,0.0
4651,45.0,0.0,240.0,3.0,0.0
4652,65.0,0.0,240.0,10.0,0.0
4653,45.0,0.0,240.0,13.0,0.0
4654,65.0,0.0,240.0,4.0,0.0
4655,63.0,0.0,240.0,3.0,0.0
4656,63.0,0.0,240.0,11.0,0.0
4657,60.0,180.0,240.0,15.0,0.0
4658,60.0,0.0,240.0,6.0,0.0
4659,63.0,0.0,240.0,15.0,0.0
4660,63.0,0.0,240.0,5.0,0.0
4661,45.0,0.0,240.0,15.0,0.0
4662,65.0,0.0,240.0,15.0,0.0
4663,58.0,0.0,240.0,6.0,0.0
4664,46.0,0.0,180.0,13.0,0.0
4665,61.0,0.0,180.0,11.0,0.0
4666,65.0,0.0,180.0,10.0,0.0
4667,34.0,0.0,240.0,8.0,0.0
4668,58.0,60.0,180.0,12.0,0.0
4669,65.0,240.0,240.0,15.0,0.0
4670,61.0,0.0,240.0,15.0,0.0
4671,65.0,0.0,240.0,4.0,0.0
4672,58.0,0.0,240.0,15.0,0.0
4673,46.0,0.0,240.0,15.0,0.0
4674,58.0,0.0,180.0,3.0,0.0
4675,46.0,0.0,180.0,3.0,0.0
4676,61.0,0.0,240.0,5.0,0.0
4677,61.0,0.0,180.0,3.0,0.0
4678,65.0,0.0,60.0,10.0,0.0
4679,46.0,0.0,60.0,13.0,0.0
4680,58.0,0.0,60.0,12.0,0.0
4681,61.0,0.0,60.0,11.0,0.0
4682,61.0,0.0,60.0,3.0,0.0
4683,58.0,0.0,60.0,3.0,0.0
4684,46.0,0.0,60.0,3.0,0.0
4685,53.0,0.0,240.0,3.0,0.0
4686,32.0,0.0,240.0,8.0,0.0
4687,65.0,0.0,240.0,10.0,0.0
4688,44.0,0.0,240.0,13.0,0.0
4689,60.0,0.0,240.0,11.0,0.0
4690,60.0,0.0,240.0,5.0,0.0
4691,44.0,0.0,240.0,3.0,0.0
4692,60.0,0.0,240.0,3.0,0.0
4693,53.0,240.0,240.0,6.0,0.0
4694,65.0,0.0,240.0,4.0,0.0
4695,53.0,0.0,240.0,15.0,0.0
4696,60.0,0.0,240.0,15.0,0.0
4697,53.0,0.0,240.0,12.0,0.0
4698,65.0,0.0,240.0,15.0,0.0
4699,44.0,0.0,240.0,15.0,0.0
4700,43.0,0.0,240.0,13.0,0.0
4701,49.0,120.0,240.0,3.0,0.0
4702,43.0,0.0,240.0,3.0,0.0
4703,65.0,0.0,240.0,15.0,0.0
4704,58.0,0.0,240.0,5.0,0.0
4705,58.0,0.0,240.0,15.0,0.0
4706,43.0,0.0,240.0,15.0,0.0
4707,49.0,0.0,240.0,6.0,0.0
4708,58.0,0.0,240.0,3.0,0.0
4709,49.0,0.0,240.0,12.0,0.0
4710,65.0,0.0,240.0,4.0,0.0
4711,31.0,0.0,240.0,8.0,0.0
4712,65.0,0.0,240.0,10.0,0.0
4713,61.0,0.0,240.0,15.0,0.0
4714,58.0,0.0,240.0,11.0,0.0
4715,48.0,0.0,120.0,6.0,0.0
4716,58.0,0.0,120.0,11.0,0.0
4717,30.0,120.0,240.0,8.0,0.0
4718,48.0,0.0,120.0,3.0,0.0
4719,64.0,0.0,240.0,15.0,0.0
4720,64.0,0.0,120.0,10.0,0.0
4721,58.0,0.0,240.0,15.0,0.0
4722,58.0,0.0,240.0,5.0,0.0
4723,48.0,120.0,120.0,12.0,0.0
4724,58.0,0.0,120.0,3.0,0.0
4725,64.0,0.0,120.0,4.0,0.0
4726,42.0,0.0,240.0,3.0,0.0
4727,42.0,0.0,240.0,15.0,0.0
4728,42.0,0.0,240.0,13.0,0.0
4729,46.0,0.0,120.0,12.0,0.0
4730,58.0,0.0,120.0,3.0,0.0
4731,46.0,0.0,120.0,6.0,0.0
4732,65.0,0.0,120.0,10.0,0.0
4733,58.0,0.0,120.0,11.0,0.0
4734,46.0,0.0,120.0,3.0,0.0
4735,65.0,0.0,120.0,4.0,0.0
4736,58.0,0.0,240.0,5.0,0.0
4737,29.0,0.0,480.0,8.0,0.0
4738,41.0,0.0,480.0,13.0,0.0
4739,58.0,0.0,240.0,11.0,0.0
4740,53.0,0.0,480.0,12.0,0.0
4741,58.0,120.0,240.0,15.0,0.0
4742,61.0,0.0,240.0,15.0,0.0
4743,41.0,0.0,480.0,15.0,0.0
4744,53.0,0.0,480.0,6.0,0.0
4745,53.0,0.0,480.0,15.0,0.0
4746,61.0,0.0,240.0,4.0,0.0
4747,61.0,0.0,240.0,10.0,0.0
4748,58.0,0.0,240.0,3.0,0.0
4749,41.0,0.0,480.0,3.0,0.0
4750,53.0,0.0,480.0,2.0,0.0
4751,53.0,0.0,480.0,3.0,0.0
4752,41.0,60.0,120.0,14.0,0.0
4753,65.0,0.0,480.0,2.0,0.0
4754,41.0,60.0,60.0,14.0,0.0
4755,41.0,0.0,60.0,14.0,0.0
4756,41.0,0.0,120.0,14.0,0.0
4757,60.0,120.0,120.0,4.0,0.0
4758,60.0,0.0,120.0,15.0,0.0
4759,57.0,0.0,120.0,5.0,0.0
4760,57.0,0.0,120.0,15.0,0.0
4761,57.0,0.0,120.0,11.0,0.0
4762,57.0,0.0,120.0,3.0,0.0
4763,60.0,0.0,120.0,10.0,0.0
4764,55.0,0.0,120.0,3.0,0.0
4765,58.0,0.0,120.0,4.0,0.0
4766,58.0,0.0,120.0,15.0,0.0
4767,41.0,0.0,120.0,14.0,0.0
4768,55.0,0.0,120.0,5.0,0.0
4769,55.0,480.0,120.0,15.0,0.0
4770,58.0,0.0,120.0,10.0,0.0
4771,55.0,0.0,120.0,11.0,0.0
4772,53.0,0.0,480.0,3.0,0.0
4773,60.0,0.0,480.0,4.0,0.0
4774,60.0,0.0,480.0,10.0,0.0
4775,53.0,0.0,480.0,2.0,0.0
4776,65.0,0.0,480.0,2.0,0.0
4777,53.0,0.0,480.0,6.0,0.0
4778,57.0,0.0,480.0,5.0,0.0
4779,41.0,0.0,480.0,3.0,0.0
4780,57.0,0.0,480.0,11.0,0.0
4781,29.0,360.0,480.0,8.0,0.0
4782,41.0,0.0,480.0,13.0,0.0
4783,57.0,0.0,480.0,3.0,0.0
4784,53.0,0.0,480.0,12.0,0.0
4785,41.0,0.0,480.0,15.0,0.0
4786,60.0,0.0,480.0,15.0,0.0
4787,41.0,0.0,480.0,14.0,0.0
4788,57.0,0.0,480.0,15.0,0.0
4789,53.0,0.0,480.0,15.0,0.0
4790,41.0,0.0,480.0,8.0,0.0
4791,53.0,0.0,480.0,1.0,0.0
4792,53.0,0.0,480.0,13.0,0.0
4793,53.0,240.0,480.0,3.0,0.0
4794,53.0,120.0,360.0,15.0,0.0
4795,53.0,0.0,120.0,15.0,0.0
4796,49.0,0.0,240.0,15.0,0.0
4797,37.0,240.0,240.0,8.0,0.0
4798,49.0,0.0,240.0,3.0,0.0
4799,49.0,0.0,240.0,13.0,0.0
4800,49.0,0.0,240.0,1.0,0.0
4801,54.0,0.0,240.0,1.0,0.0
4802,54.0,0.0,240.0,15.0,0.0
4803,39.0,240.0,240.0,8.0,0.0
4804,54.0,0.0,240.0,13.0,0.0
4805,54.0,0.0,240.0,3.0,0.0
4806,45.0,0.0,480.0,3.0,0.0
4807,45.0,0.0,480.0,1.0,0.0
4808,45.0,0.0,480.0,13.0,0.0
4809,45.0,0.0,360.0,15.0,0.0
4810,33.0,120.0,360.0,8.0,0.0
4811,60.0,120.0,120.0,7.0,0.0
4812,60.0,0.0,120.0,11.0,0.0
4813,60.0,0.0,120.0,15.0,0.0
4814,60.0,0.0,120.0,5.0,0.0
4815,63.0,0.0,120.0,0.0,0.0
4816,60.0,0.0,120.0,3.0,0.0
4817,60.0,0.0,120.0,15.0,0.0
4818,60.0,0.0,120.0,3.0,0.0
4819,60.0,0.0,120.0,7.0,0.0
4820,60.0,0.0,120.0,5.0,0.0
4821,60.0,0.0,120.0,11.0,0.0
4822,63.0,0.0,120.0,0.0,0.0
4823,63.0,0.0,120.0,0.0,0.0
4824,60.0,0.0,120.0,11.0,0.0
4825,33.0,0.0,120.0,8.0,0.0
4826,60.0,0.0,120.0,7.0,0.0
4827,60.0,0.0,120.0,5.0,0.0
4828,60.0,60.0,120.0,15.0,0.0
4829,45.0,0.0,120.0,15.0,0.0
4830,60.0,0.0,120.0,3.0,0.0
4831,46.0,0.0,240.0,1.0,0.0
4832,34.0,0.0,240.0,8.0,0.0
4833,61.0,0.0,60.0,11.0,0.0
4834,61.0,0.0,60.0,7.0,0.0
4835,46.0,0.0,240.0,3.0,0.0
4836,46.0,60.0,240.0,15.0,0.0
4837,61.0,0.0,60.0,15.0,0.0
4838,61.0,0.0,60.0,3.0,0.0
4839,46.0,0.0,240.0,13.0,0.0
4840,65.0,0.0,60.0,0.0,0.0
4841,61.0,60.0,60.0,5.0,0.0
4842,63.0,0.0,60.0,15.0,0.0
4843,63.0,0.0,60.0,5.0,0.0
4844,63.0,0.0,60.0,3.0,0.0
4845,66.0,0.0,60.0,0.0,0.0
4846,63.0,60.0,60.0,11.0,0.0
4847,63.0,0.0,60.0,7.0,0.0
4848,61.0,0.0,60.0,11.0,0.0
4849,61.0,0.0,60.0,3.0,0.0
4850,61.0,0.0,60.0,15.0,0.0
4851,61.0,0.0,60.0,5.0,0.0
4852,61.0,0.0,60.0,7.0,0.0
4853,65.0,60.0,60.0,0.0,0.0
4854,60.0,0.0,60.0,7.0,0.0
4855,60.0,0.0,60.0,11.0,0.0
4856,63.0,0.0,60.0,0.0,0.0
4857,60.0,0.0,60.0,5.0,0.0
4858,60.0,0.0,60.0,3.0,0.0
4859,60.0,0.0,60.0,15.0,0.0
4860,61.0,60.0,60.0,15.0,0.0
4861,46.0,0.0,120.0,1.0,0.0
4862,65.0,0.0,60.0,0.0,0.0
4863,61.0,0.0,60.0,3.0,0.0
4864,46.0,0.0,120.0,3.0,0.0
4865,61.0,0.0,60.0,5.0,0.0
4866,46.0,0.0,120.0,13.0,0.0
4867,61.0,0.0,60.0,7.0,0.0
4868,61.0,0.0,60.0,11.0,0.0
4869,63.0,0.0,60.0,15.0,0.0
4870,63.0,0.0,60.0,7.0,0.0
4871,63.0,0.0,60.0,3.0,0.0
4872,66.0,0.0,60.0,0.0,0.0
4873,63.0,0.0,60.0,5.0,0.0
4874,63.0,60.0,60.0,11.0,0.0
4875,60.0,60.0,60.0,11.0,0.0
4876,60.0,0.0,60.0,3.0,0.0
4877,46.0,0.0,120.0,13.0,0.0
4878,46.0,0.0,120.0,15.0,0.0
4879,46.0,0.0,120.0,1.0,0.0
4880,63.0,0.0,60.0,0.0,0.0
4881,60.0,0.0,60.0,5.0,0.0
4882,60.0,0.0,60.0,7.0,0.0
4883,34.0,0.0,120.0,8.0,0.0
4884,46.0,0.0,120.0,3.0,0.0
4885,60.0,0.0,60.0,15.0,0.0
4886,65.0,0.0,60.0,0.0,0.0
4887,61.0,0.0,60.0,3.0,0.0
4888,61.0,0.0,60.0,5.0,0.0
4889,61.0,0.0,60.0,7.0,0.0
4890,61.0,0.0,60.0,15.0,0.0
4891,61.0,60.0,60.0,11.0,0.0
4892,36.0,0.0,360.0,8.0,0.0
4893,48.0,0.0,360.0,15.0,0.0
4894,63.0,0.0,60.0,15.0,0.0
4895,63.0,0.0,60.0,5.0,0.0
4896,63.0,0.0,60.0,0.0,0.0
4897,63.0,60.0,60.0,11.0,0.0
4898,48.0,0.0,360.0,13.0,0.0
4899,48.0,0.0,360.0,1.0,0.0
4900,63.0,0.0,60.0,7.0,0.0
4901,63.0,0.0,60.0,3.0,0.0
4902,48.0,0.0,360.0,3.0,0.0
4903,65.0,0.0,60.0,15.0,0.0
4904,65.0,60.0,60.0,0.0,0.0
4905,65.0,0.0,60.0,11.0,0.0
4906,65.0,0.0,60.0,5.0,0.0
4907,65.0,0.0,60.0,7.0,0.0
4908,65.0,0.0,60.0,3.0,0.0
4909,63.0,0.0,60.0,3.0,0.0
4910,63.0,0.0,60.0,5.0,0.0
4911,63.0,0.0,60.0,11.0,0.0
4912,63.0,60.0,60.0,7.0,0.0
4913,63.0,0.0,60.0,0.0,0.0
4914,63.0,0.0,60.0,15.0,0.0
4915,61.0,0.0,60.0,15.0,0.0
4916,61.0,0.0,60.0,0.0,0.0
4917,61.0,0.0,60.0,11.0,0.0
4918,61.0,60.0,60.0,5.0,0.0
4919,61.0,0.0,60.0,3.0,0.0
4920,61.0,0.0,60.0,7.0,0.0
4921,63.0,0.0,60.0,7.0,0.0
4922,63.0,0.0,60.0,3.0,0.0
4923,63.0,60.0,60.0,5.0,0.0
4924,63.0,0.0,60.0,15.0,0.0
4925,63.0,0.0,60.0,11.0,0.0
4926,63.0,0.0,60.0,0.0,0.0
4927,65.0,0.0,60.0,11.0,0.0
4928,65.0,0.0,60.0,15.0,0.0
4929,65.0,60.0,60.0,0.0,0.0
4930,65.0,0.0,60.0,5.0,0.0
4931,65.0,0.0,60.0,7.0,0.0
4932,65.0,0.0,60.0,3.0,0.0
4933,61.0,0.0,60.0,7.0,0.0
4934,61.0,0.0,60.0,3.0,0.0
4935,46.0,0.0,60.0,1.0,0.0
4936,46.0,60.0,60.0,13.0,0.0
4937,61.0,0.0,60.0,15.0,0.0
4938,46.0,0.0,60.0,15.0,0.0
4939,34.0,0.0,60.0,8.0,0.0
4940,61.0,0.0,60.0,11.0,0.0
4941,61.0,0.0,60.0,0.0,0.0
4942,46.0,0.0,60.0,3.0,0.0
4943,61.0,0.0,60.0,5.0,0.0
4944,63.0,0.0,60.0,7.0,0.0
4945,63.0,0.0,60.0,0.0,0.0
4946,63.0,0.0,60.0,3.0,0.0
4947,48.0,0.0,60.0,13.0,0.0
4948,63.0,0.0,60.0,11.0,0.0
4949,48.0,0.0,60.0,1.0,0.0
4950,36.0,0.0,60.0,8.0,0.0
4951,63.0,120.0,60.0,5.0,0.0
4952,48.0,0.0,60.0,3.0,0.0
4953,48.0,0.0,60.0,15.0,0.0
4954,63.0,0.0,60.0,15.0,0.0
4955,49.0,0.0,120.0,13.0,0.0
4956,65.0,0.0,120.0,5.0,0.0
4957,65.0,0.0,120.0,0.0,0.0
4958,65.0,0.0,120.0,15.0,0.0
4959,65.0,0.0,120.0,3.0,0.0
4960,49.0,0.0,120.0,15.0,0.0
4961,49.0,0.0,120.0,3.0,0.0
4962,37.0,0.0,120.0,8.0,0.0
4963,49.0,0.0,120.0,1.0,0.0
4964,65.0,0.0,120.0,7.0,0.0
4965,65.0,60.0,120.0,11.0,0.0
4966,48.0,0.0,60.0,3.0,0.0
4967,68.0,0.0,60.0,0.0,0.0
4968,66.0,60.0,60.0,7.0,0.0
4969,66.0,0.0,60.0,3.0,0.0
4970,66.0,0.0,60.0,5.0,0.0
4971,48.0,0.0,60.0,15.0,0.0
4972,48.0,0.0,60.0,13.0,0.0
4973,36.0,0.0,60.0,8.0,0.0
4974,66.0,0.0,60.0,15.0,0.0
4975,66.0,0.0,60.0,11.0,0.0
4976,48.0,0.0,60.0,1.0,0.0
4977,65.0,0.0,60.0,5.0,0.0
4978,65.0,0.0,60.0,11.0,0.0
4979,49.0,0.0,60.0,13.0,0.0
4980,65.0,60.0,60.0,0.0,0.0
4981,65.0,0.0,60.0,3.0,0.0
4982,49.0,0.0,60.0,3.0,0.0
4983,49.0,0.0,60.0,15.0,0.0
4984,37.0,0.0,60.0,8.0,0.0
4985,65.0,0.0,60.0,7.0,0.0
4986,65.0,0.0,60.0,15.0,0.0
4987,49.0,0.0,60.0,1.0,0.0
4988,51.0,0.0,120.0,1.0,0.0
4989,63.0,0.0,60.0,0.0,0.0
4990,63.0,0.0,60.0,11.0,0.0
4991,63.0,0.0,60.0,3.0,0.0
4992,63.0,0.0,60.0,15.0,0.0
4993,51.0,0.0,120.0,3.0,0.0
4994,51.0,0.0,120.0,13.0,0.0
4995,39.0,0.0,120.0,8.0,0.0
4996,51.0,0.0,120.0,15.0,0.0
4997,63.0,60.0,60.0,7.0,0.0
4998,63.0,0.0,60.0,5.0,0.0
4999,61.0,0.0,60.0,0.0,0.0
5000,61.0,0.0,60.0,15.0,0.0
5001,61.0,0.0,60.0,7.0,0.0
5002,61.0,0.0,60.0,11.0,0.0
5003,61.0,0.0,60.0,5.0,0.0
5004,61.0,60.0,60.0,3.0,0.0
5005,60.0,0.0,60.0,15.0,0.0
5006,49.0,0.0,60.0,13.0,0.0
5007,49.0,60.0,60.0,3.0,0.0
5008,49.0,0.0,60.0,15.0,0.0
5009,60.0,0.0,60.0,3.0,0.0
5010,60.0,0.0,60.0,7.0,0.0
5011,49.0,0.0,60.0,1.0,0.0
5012,60.0,0.0,60.0,5.0,0.0
5013,61.0,0.0,60.0,0.0,0.0
5014,60.0,0.0,60.0,11.0,0.0
5015,37.0,0.0,60.0,8.0,0.0
5016,39.0,0.0,60.0,8.0,0.0
5017,58.0,120.0,60.0,11.0,0.0
5018,51.0,0.0,60.0,15.0,0.0
5019,51.0,0.0,60.0,3.0,0.0
5020,58.0,0.0,60.0,3.0,0.0
5021,58.0,0.0,60.0,15.0,0.0
5022,51.0,0.0,60.0,1.0,0.0
5023,58.0,0.0,60.0,5.0,0.0
5024,58.0,0.0,60.0,7.0,0.0
5025,51.0,0.0,60.0,13.0,0.0
5026,58.0,0.0,60.0,0.0,0.0
5027,57.0,120.0,120.0,3.0,0.0
5028,53.0,0.0,120.0,1.0,0.0
5029,57.0,0.0,120.0,0.0,0.0
5030,53.0,0.0,120.0,15.0,0.0
5031,57.0,0.0,120.0,15.0,0.0
5032,57.0,0.0,120.0,7.0,0.0
5033,53.0,0.0,120.0,3.0,0.0
5034,57.0,0.0,120.0,11.0,0.0
5035,53.0,0.0,120.0,13.0,0.0
5036,57.0,0.0,120.0,5.0,0.0
5037,41.0,0.0,120.0,8.0,0.0
5038,51.0,0.0,120.0,15.0,0.0
5039,60.0,120.0,120.0,11.0,0.0
5040,60.0,0.0,120.0,5.0,0.0
5041,51.0,0.0,120.0,13.0,0.0
5042,60.0,0.0,120.0,7.0,0.0
5043,51.0,0.0,120.0,1.0,0.0
5044,60.0,0.0,120.0,15.0,0.0
5045,60.0,0.0,120.0,0.0,0.0
5046,39.0,0.0,120.0,8.0,0.0
5047,51.0,0.0,120.0,3.0,0.0
5048,60.0,0.0,120.0,3.0,0.0
5049,49.0,0.0,120.0,1.0,0.0
5050,65.0,0.0,120.0,5.0,0.0
5051,49.0,0.0,120.0,15.0,0.0
5052,49.0,0.0,120.0,13.0,0.0
5053,65.0,0.0,120.0,11.0,0.0
5054,49.0,0.0,120.0,3.0,0.0
5055,65.0,0.0,120.0,3.0,0.0
5056,37.0,0.0,120.0,8.0,0.0
5057,65.0,0.0,120.0,7.0,0.0
5058,65.0,120.0,120.0,0.0,0.0
5059,61.0,0.0,120.0,15.0,0.0
5060,36.0,0.0,120.0,8.0,0.0
5061,63.0,0.0,120.0,5.0,0.0
5062,63.0,0.0,120.0,11.0,0.0
5063,48.0,0.0,120.0,13.0,0.0
5064,63.0,0.0,120.0,0.0,0.0
5065,60.0,120.0,120.0,15.0,0.0
5066,63.0,0.0,120.0,3.0,0.0
5067,63.0,0.0,120.0,7.0,0.0
5068,48.0,0.0,120.0,15.0,0.0
5069,48.0,0.0,120.0,3.0,0.0
5070,48.0,0.0,120.0,1.0,0.0
5071,61.0,0.0,120.0,5.0,0.0
5072,61.0,0.0,120.0,3.0,0.0
5073,61.0,0.0,120.0,11.0,0.0
5074,46.0,0.0,120.0,3.0,0.0
5075,46.0,60.0,120.0,15.0,0.0
5076,70.0,0.0,480.0,10.0,0.0
5077,70.0,0.0,480.0,4.0,0.0
5078,61.0,0.0,120.0,0.0,0.0
5079,46.0,0.0,120.0,1.0,0.0
5080,70.0,0.0,480.0,0.0,0.0
5081,34.0,0.0,120.0,8.0,0.0
5082,46.0,0.0,120.0,13.0,0.0
5083,44.0,60.0,120.0,13.0,0.0
5084,60.0,0.0,60.0,0.0,0.0
5085,44.0,0.0,120.0,3.0,0.0
5086,60.0,60.0,60.0,11.0,0.0
5087,32.0,0.0,120.0,8.0,0.0
5088,66.0,0.0,120.0,15.0,0.0
5089,60.0,0.0,120.0,15.0,0.0
5090,70.0,0.0,120.0,15.0,0.0
5091,63.0,0.0,120.0,15.0,0.0
5092,60.0,0.0,60.0,3.0,0.0
5093,44.0,0.0,120.0,15.0,0.0
5094,44.0,0.0,120.0,1.0,0.0
5095,60.0,0.0,60.0,5.0,0.0
5096,61.0,0.0,60.0,5.0,0.0
5097,61.0,0.0,60.0,3.0,0.0
5098,61.0,0.0,60.0,11.0,0.0
5099,61.0,0.0,60.0,0.0,0.0
5100,43.0,0.0,120.0,1.0,0.0
5101,43.0,0.0,120.0,15.0,0.0
5102,70.0,0.0,120.0,15.0,0.0
5103,62.0,60.0,120.0,15.0,0.0
5104,43.0,0.0,120.0,13.0,0.0
5105,58.0,60.0,60.0,0.0,0.0
5106,58.0,0.0,60.0,5.0,0.0
5107,58.0,0.0,60.0,3.0,0.0
5108,43.0,0.0,120.0,3.0,0.0
5109,58.0,0.0,60.0,11.0,0.0
5110,31.0,0.0,120.0,8.0,0.0
5111,60.0,0.0,60.0,3.0,0.0
5112,60.0,0.0,60.0,11.0,0.0
5113,60.0,0.0,60.0,5.0,0.0
5114,60.0,0.0,60.0,0.0,0.0
5115,70.0,0.0,120.0,15.0,0.0
5116,62.0,0.0,60.0,11.0,0.0
5117,48.0,0.0,120.0,15.0,0.0
5118,62.0,60.0,60.0,5.0,0.0
5119,67.0,0.0,120.0,15.0,0.0
5120,64.0,0.0,120.0,15.0,0.0
5121,48.0,0.0,120.0,13.0,0.0
5122,62.0,0.0,60.0,3.0,0.0
5123,62.0,0.0,60.0,0.0,0.0
5124,36.0,0.0,120.0,8.0,0.0
5125,48.0,120.0,120.0,3.0,0.0
5126,48.0,0.0,120.0,1.0,0.0
5127,64.0,0.0,60.0,3.0,0.0
5128,64.0,0.0,60.0,0.0,0.0
5129,64.0,0.0,60.0,11.0,0.0
5130,64.0,0.0,60.0,5.0,0.0
5131,65.0,0.0,240.0,15.0,0.0
5132,60.0,0.0,240.0,15.0,0.0
5133,68.0,0.0,240.0,15.0,0.0
5134,41.0,60.0,120.0,13.0,0.0
5135,65.0,60.0,240.0,5.0,0.0
5136,65.0,0.0,240.0,11.0,0.0
5137,41.0,0.0,120.0,1.0,0.0
5138,65.0,0.0,240.0,0.0,0.0
5139,68.0,0.0,240.0,0.0,0.0
5140,68.0,0.0,240.0,4.0,0.0
5141,41.0,0.0,120.0,15.0,0.0
5142,29.0,0.0,120.0,8.0,0.0
5143,68.0,0.0,240.0,10.0,0.0
5144,65.0,0.0,240.0,3.0,0.0
5145,41.0,0.0,120.0,3.0,0.0
5146,49.0,0.0,60.0,13.0,0.0
5147,49.0,0.0,60.0,1.0,0.0
5148,49.0,60.0,60.0,15.0,0.0
5149,49.0,0.0,60.0,3.0,0.0
5150,37.0,0.0,60.0,8.0,0.0
5151,48.0,0.0,60.0,13.0,0.0
5152,48.0,0.0,60.0,15.0,0.0
5153,48.0,0.0,60.0,3.0,0.0
5154,36.0,0.0,60.0,8.0,0.0
5155,48.0,0.0,60.0,1.0,0.0
5156,46.0,0.0,60.0,3.0,0.0
5157,46.0,0.0,60.0,15.0,0.0
5158,65.0,0.0,240.0,15.0,0.0
5159,46.0,0.0,60.0,1.0,0.0
5160,46.0,0.0,60.0,13.0,0.0
5161,73.0,0.0,240.0,10.0,0.0
5162,70.0,0.0,240.0,15.0,0.0
5163,73.0,0.0,240.0,0.0,0.0
5164,34.0,60.0,60.0,8.0,0.0
5165,73.0,0.0,240.0,15.0,0.0
5166,73.0,0.0,240.0,4.0,0.0
5167,43.0,0.0,60.0,15.0,0.0
5168,43.0,0.0,60.0,13.0,0.0
5169,43.0,60.0,60.0,1.0,0.0
5170,43.0,0.0,60.0,3.0,0.0
5171,31.0,0.0,60.0,8.0,0.0
5172,44.0,0.0,60.0,15.0,0.0
5173,44.0,60.0,60.0,13.0,0.0
5174,44.0,0.0,60.0,3.0,0.0
5175,32.0,0.0,60.0,8.0,0.0
5176,44.0,0.0,60.0,1.0,0.0
5177,46.0,0.0,60.0,15.0,0.0
5178,46.0,0.0,60.0,3.0,0.0
5179,34.0,0.0,60.0,8.0,0.0
5180,46.0,0.0,60.0,13.0,0.0
5181,46.0,120.0,60.0,1.0,0.0
5182,36.0,0.0,240.0,8.0,0.0
5183,48.0,0.0,240.0,3.0,0.0
5184,64.0,0.0,480.0,10.0,0.0
5185,67.0,120.0,240.0,15.0,0.0
5186,64.0,0.0,240.0,15.0,0.0
5187,64.0,0.0,480.0,4.0,0.0
5188,64.0,0.0,480.0,0.0,0.0
5189,48.0,0.0,240.0,15.0,0.0
5190,48.0,120.0,120.0,1.0,0.0
5191,48.0,0.0,240.0,13.0,0.0
5192,55.0,0.0,120.0,1.0,0.0
5193,55.0,0.0,120.0,3.0,0.0
5194,55.0,0.0,120.0,6.0,0.0
5195,55.0,0.0,120.0,12.0,0.0
5196,55.0,120.0,120.0,3.0,0.0
5197,55.0,0.0,120.0,1.0,0.0
5198,55.0,0.0,120.0,6.0,0.0
5199,55.0,0.0,120.0,12.0,0.0
5200,48.0,0.0,120.0,15.0,0.0
5201,55.0,0.0,120.0,6.0,0.0
5202,36.0,0.0,120.0,8.0,0.0
5203,55.0,0.0,120.0,3.0,0.0
5204,55.0,0.0,120.0,12.0,0.0
5205,64.0,0.0,120.0,15.0,0.0
5206,55.0,0.0,120.0,1.0,0.0
5207,67.0,60.0,120.0,15.0,0.0
5208,53.0,60.0,120.0,15.0,0.0
5209,56.0,0.0,240.0,15.0,0.0
5210,56.0,0.0,60.0,1.0,0.0
5211,56.0,0.0,60.0,12.0,0.0
5212,60.0,0.0,240.0,15.0,0.0
5213,65.0,0.0,240.0,0.0,0.0
5214,56.0,60.0,60.0,3.0,0.0
5215,65.0,0.0,240.0,10.0,0.0
5216,56.0,0.0,60.0,6.0,0.0
5217,65.0,0.0,240.0,4.0,0.0
5218,41.0,0.0,120.0,8.0,0.0
5219,58.0,0.0,60.0,6.0,0.0
5220,58.0,0.0,60.0,1.0,0.0
5221,58.0,0.0,60.0,12.0,0.0
5222,58.0,0.0,60.0,3.0,0.0
5223,56.0,0.0,60.0,12.0,0.0
5224,56.0,60.0,60.0,6.0,0.0
5225,56.0,0.0,60.0,3.0,0.0
5226,29.0,0.0,120.0,8.0,0.0
5227,41.0,0.0,120.0,15.0,0.0
5228,56.0,0.0,60.0,1.0,0.0
5229,55.0,0.0,60.0,12.0,0.0
5230,55.0,0.0,60.0,3.0,0.0
5231,55.0,0.0,60.0,1.0,0.0
5232,55.0,60.0,60.0,6.0,0.0
5233,41.0,0.0,480.0,8.0,0.0
5234,56.0,0.0,60.0,1.0,0.0
5235,56.0,0.0,60.0,12.0,0.0
5236,65.0,0.0,120.0,4.0,0.0
5237,65.0,0.0,120.0,0.0,0.0
5238,56.0,60.0,60.0,3.0,0.0
5239,56.0,0.0,60.0,6.0,0.0
5240,53.0,0.0,480.0,13.0,0.0
5241,53.0,0.0,480.0,1.0,0.0
5242,60.0,0.0,240.0,15.0,0.0
5243,53.0,0.0,480.0,3.0,0.0
5244,56.0,0.0,240.0,15.0,0.0
5245,53.0,0.0,480.0,15.0,0.0
5246,65.0,0.0,120.0,10.0,0.0
5247,58.0,0.0,60.0,3.0,0.0
5248,58.0,0.0,60.0,6.0,0.0
5249,58.0,60.0,60.0,1.0,0.0
5250,58.0,0.0,60.0,12.0,0.0
5251,65.0,0.0,120.0,10.0,0.0
5252,55.0,0.0,60.0,6.0,0.0
5253,55.0,60.0,60.0,12.0,0.0
5254,55.0,0.0,60.0,3.0,0.0
5255,65.0,0.0,120.0,0.0,0.0
5256,55.0,0.0,60.0,1.0,0.0
5257,65.0,0.0,120.0,4.0,0.0
5258,56.0,60.0,60.0,12.0,0.0
5259,56.0,0.0,60.0,3.0,0.0
5260,56.0,0.0,60.0,1.0,0.0
5261,56.0,0.0,60.0,6.0,0.0
5262,58.0,0.0,60.0,12.0,0.0
5263,58.0,0.0,240.0,15.0,0.0
5264,67.0,0.0,240.0,15.0,0.0
5265,58.0,60.0,60.0,1.0,0.0
5266,58.0,0.0,60.0,3.0,0.0
5267,67.0,0.0,360.0,10.0,0.0
5268,67.0,0.0,360.0,4.0,0.0
5269,58.0,0.0,60.0,6.0,0.0
5270,67.0,0.0,360.0,0.0,0.0
5271,61.0,0.0,240.0,15.0,0.0
5272,60.0,0.0,60.0,6.0,0.0
5273,60.0,0.0,60.0,3.0,0.0
5274,60.0,60.0,60.0,12.0,0.0
5275,60.0,0.0,60.0,1.0,0.0
5276,58.0,0.0,60.0,3.0,0.0
5277,58.0,60.0,60.0,1.0,0.0
5278,58.0,0.0,60.0,6.0,0.0
5279,58.0,0.0,60.0,12.0,0.0
5280,56.0,60.0,60.0,1.0,0.0
5281,56.0,0.0,60.0,12.0,0.0
5282,56.0,0.0,60.0,3.0,0.0
5283,56.0,0.0,60.0,6.0,0.0
5284,58.0,0.0,240.0,15.0,0.0
5285,58.0,0.0,60.0,12.0,0.0
5286,51.0,0.0,60.0,3.0,0.0
5287,51.0,0.0,60.0,1.0,0.0
5288,58.0,60.0,60.0,1.0,0.0
5289,51.0,0.0,60.0,15.0,0.0
5290,67.0,0.0,240.0,15.0,0.0
5291,39.0,0.0,60.0,8.0,0.0
5292,58.0,0.0,60.0,6.0,0.0
5293,51.0,0.0,60.0,13.0,0.0
5294,61.0,0.0,240.0,15.0,0.0
5295,58.0,0.0,60.0,3.0,0.0
5296,49.0,0.0,60.0,1.0,0.0
5297,60.0,0.0,60.0,1.0,0.0
5298,49.0,0.0,60.0,3.0,0.0
5299,60.0,0.0,60.0,6.0,0.0
5300,60.0,60.0,60.0,12.0,0.0
5301,49.0,0.0,60.0,13.0,0.0
5302,37.0,0.0,60.0,8.0,0.0
5303,49.0,0.0,60.0,15.0,0.0
5304,60.0,0.0,60.0,3.0,0.0
5305,56.0,0.0,60.0,12.0,0.0
5306,65.0,0.0,60.0,4.0,0.0
5307,65.0,0.0,60.0,0.0,0.0
5308,48.0,0.0,60.0,3.0,0.0
5309,56.0,0.0,60.0,3.0,0.0
5310,48.0,0.0,60.0,13.0,0.0
5311,48.0,0.0,60.0,15.0,0.0
5312,65.0,0.0,60.0,10.0,0.0
5313,56.0,0.0,60.0,6.0,0.0
5314,56.0,0.0,60.0,1.0,0.0
5315,36.0,60.0,60.0,8.0,0.0
5316,48.0,0.0,60.0,1.0,0.0
5317,67.0,0.0,60.0,0.0,0.0
5318,58.0,0.0,60.0,1.0,0.0
5319,46.0,120.0,60.0,1.0,0.0
5320,58.0,0.0,60.0,3.0,0.0
5321,46.0,0.0,60.0,13.0,0.0
5322,34.0,0.0,60.0,8.0,0.0
5323,58.0,0.0,60.0,12.0,0.0
5324,67.0,0.0,60.0,10.0,0.0
5325,46.0,0.0,60.0,3.0,0.0
5326,67.0,0.0,60.0,4.0,0.0
5327,46.0,0.0,60.0,15.0,0.0
5328,58.0,0.0,60.0,6.0,0.0
5329,60.0,60.0,120.0,6.0,0.0
5330,68.0,0.0,120.0,10.0,0.0
5331,60.0,0.0,120.0,3.0,0.0
5332,32.0,0.0,240.0,8.0,0.0
5333,60.0,0.0,120.0,12.0,0.0
5334,44.0,0.0,240.0,1.0,0.0
5335,68.0,0.0,120.0,4.0,0.0
5336,44.0,0.0,240.0,3.0,0.0
5337,60.0,0.0,240.0,15.0,0.0
5338,44.0,0.0,240.0,15.0,0.0
5339,63.0,0.0,240.0,15.0,0.0
5340,68.0,0.0,120.0,0.0,0.0
5341,60.0,0.0,120.0,1.0,0.0
5342,44.0,0.0,240.0,13.0,0.0
5343,61.0,0.0,60.0,3.0,0.0
5344,67.0,0.0,60.0,4.0,0.0
5345,67.0,0.0,60.0,0.0,0.0
5346,61.0,60.0,60.0,1.0,0.0
5347,67.0,0.0,60.0,10.0,0.0
5348,61.0,0.0,60.0,12.0,0.0
5349,61.0,0.0,60.0,6.0,0.0
5350,68.0,0.0,60.0,0.0,0.0
5351,60.0,0.0,60.0,12.0,0.0
5352,60.0,0.0,60.0,1.0,0.0
5353,68.0,60.0,60.0,10.0,0.0
5354,68.0,0.0,60.0,4.0,0.0
5355,60.0,0.0,60.0,3.0,0.0
5356,60.0,0.0,60.0,6.0,0.0
5357,58.0,0.0,60.0,6.0,0.0
5358,58.0,0.0,240.0,15.0,0.0
5359,43.0,0.0,120.0,3.0,0.0
5360,43.0,0.0,120.0,13.0,0.0
5361,58.0,0.0,60.0,12.0,0.0
5362,70.0,0.0,120.0,0.0,0.0
5363,31.0,0.0,120.0,8.0,0.0
5364,61.0,0.0,240.0,15.0,0.0
5365,70.0,0.0,120.0,10.0,0.0
5366,58.0,0.0,60.0,1.0,0.0
5367,65.0,0.0,240.0,15.0,0.0
5368,58.0,60.0,60.0,3.0,0.0
5369,43.0,0.0,120.0,15.0,0.0
5370,70.0,0.0,120.0,4.0,0.0
5371,43.0,0.0,120.0,1.0,0.0
5372,56.0,0.0,60.0,12.0,0.0
5373,56.0,0.0,60.0,1.0,0.0
5374,56.0,0.0,60.0,3.0,0.0
5375,56.0,60.0,60.0,6.0,0.0
5376,55.0,0.0,60.0,6.0,0.0
5377,68.0,0.0,60.0,4.0,0.0
5378,49.0,0.0,120.0,3.0,0.0
5379,49.0,0.0,120.0,13.0,0.0
5380,55.0,0.0,60.0,3.0,0.0
5381,49.0,0.0,120.0,1.0,0.0
5382,37.0,0.0,120.0,8.0,0.0
5383,68.0,60.0,60.0,0.0,0.0
5384,49.0,0.0,120.0,15.0,0.0
5385,55.0,0.0,60.0,12.0,0.0
5386,68.0,0.0,60.0,10.0,0.0
5387,55.0,0.0,60.0,1.0,0.0
5388,70.0,120.0,60.0,0.0,0.0
5389,53.0,0.0,60.0,6.0,0.0
5390,70.0,0.0,60.0,10.0,0.0
5391,70.0,0.0,60.0,4.0,0.0
5392,53.0,0.0,60.0,1.0,0.0
5393,53.0,0.0,60.0,12.0,0.0
5394,53.0,0.0,60.0,3.0,0.0
5395,52.0,0.0,120.0,1.0,0.0
5396,48.0,0.0,120.0,1.0,0.0
5397,72.0,0.0,120.0,4.0,0.0
5398,72.0,0.0,120.0,10.0,0.0
5399,52.0,0.0,120.0,6.0,0.0
5400,48.0,0.0,180.0,13.0,0.0
5401,67.0,0.0,120.0,15.0,0.0
5402,64.0,0.0,120.0,15.0,0.0
5403,72.0,0.0,120.0,15.0,0.0
5404,48.0,0.0,180.0,15.0,0.0
5405,36.0,0.0,180.0,8.0,0.0
5406,52.0,60.0,120.0,12.0,0.0
5407,72.0,0.0,120.0,0.0,0.0
5408,48.0,60.0,180.0,3.0,0.0
5409,52.0,0.0,120.0,3.0,0.0
5410,55.0,0.0,120.0,6.0,0.0
5411,70.0,0.0,120.0,10.0,0.0
5412,70.0,0.0,120.0,4.0,0.0
5413,70.0,0.0,120.0,0.0,0.0
5414,55.0,0.0,120.0,12.0,0.0
5415,55.0,0.0,120.0,1.0,0.0
5416,70.0,0.0,120.0,15.0,0.0
5417,64.0,0.0,120.0,15.0,0.0
5418,67.0,0.0,120.0,15.0,0.0
5419,55.0,0.0,120.0,3.0,0.0
5420,50.0,0.0,60.0,3.0,0.0
5421,50.0,0.0,60.0,15.0,0.0
5422,50.0,60.0,60.0,13.0,0.0
5423,38.0,0.0,60.0,8.0,0.0
5424,50.0,0.0,60.0,1.0,0.0
5425,60.0,0.0,120.0,1.0,0.0
5426,52.0,0.0,60.0,13.0,0.0
5427,52.0,0.0,60.0,1.0,0.0
5428,60.0,60.0,120.0,15.0,0.0
5429,68.0,0.0,120.0,10.0,0.0
5430,52.0,0.0,60.0,15.0,0.0
5431,40.0,60.0,60.0,8.0,0.0
5432,60.0,0.0,120.0,12.0,0.0
5433,60.0,0.0,120.0,6.0,0.0
5434,52.0,0.0,60.0,3.0,0.0
5435,68.0,0.0,120.0,0.0,0.0
5436,68.0,0.0,120.0,4.0,0.0
5437,68.0,0.0,120.0,15.0,0.0
5438,60.0,0.0,120.0,3.0,0.0
5439,53.0,0.0,60.0,1.0,0.0
5440,41.0,0.0,60.0,8.0,0.0
5441,53.0,0.0,60.0,13.0,0.0
5442,53.0,0.0,60.0,3.0,0.0
5443,53.0,0.0,60.0,15.0,0.0
5444,50.0,0.0,60.0,1.0,0.0
5445,58.0,0.0,120.0,1.0,0.0
5446,67.0,0.0,120.0,4.0,0.0
5447,58.0,0.0,120.0,15.0,0.0
5448,50.0,0.0,60.0,15.0,0.0
5449,67.0,0.0,120.0,15.0,0.0
5450,50.0,0.0,60.0,3.0,0.0
5451,67.0,0.0,120.0,0.0,0.0
5452,50.0,60.0,60.0,13.0,0.0
5453,58.0,120.0,120.0,6.0,0.0
5454,38.0,0.0,60.0,8.0,0.0
5455,67.0,0.0,120.0,10.0,0.0
5456,58.0,0.0,120.0,12.0,0.0
5457,58.0,0.0,120.0,3.0,0.0
5458,52.0,0.0,60.0,15.0,0.0
5459,52.0,0.0,60.0,13.0,0.0
5460,52.0,0.0,60.0,3.0,0.0
5461,40.0,0.0,60.0,8.0,0.0
5462,52.0,0.0,60.0,1.0,0.0
5463,41.0,0.0,120.0,14.0,0.0
5464,65.0,0.0,120.0,10.0,0.0
5465,56.0,0.0,120.0,3.0,0.0
5466,53.0,0.0,120.0,3.0,0.0
5467,65.0,0.0,480.0,5.0,0.0
5468,56.0,0.0,120.0,6.0,0.0
5469,65.0,0.0,480.0,11.0,0.0
5470,53.0,0.0,240.0,2.0,0.0
5471,65.0,0.0,240.0,2.0,0.0
5472,65.0,0.0,480.0,3.0,0.0
5473,53.0,0.0,120.0,1.0,0.0
5474,56.0,0.0,120.0,1.0,0.0
5475,41.0,0.0,120.0,8.0,0.0
5476,56.0,0.0,120.0,12.0,0.0
5477,53.0,0.0,120.0,13.0,0.0
5478,53.0,0.0,120.0,15.0,0.0
5479,65.0,0.0,120.0,15.0,0.0
5480,65.0,0.0,120.0,4.0,0.0
5481,56.0,60.0,120.0,15.0,0.0
5482,60.0,0.0,120.0,15.0,0.0
5483,65.0,0.0,120.0,0.0,0.0
5484,57.0,0.0,120.0,12.0,0.0
5485,41.0,0.0,120.0,1.0,0.0
5486,75.0,0.0,120.0,0.0,0.0
5487,57.0,0.0,120.0,3.0,0.0
5488,57.0,0.0,120.0,6.0,0.0
5489,29.0,0.0,120.0,8.0,0.0
5490,65.0,0.0,120.0,15.0,0.0
5491,57.0,0.0,120.0,15.0,0.0
5492,41.0,0.0,120.0,13.0,0.0
5493,57.0,0.0,120.0,1.0,0.0
5494,75.0,0.0,120.0,10.0,0.0
5495,75.0,0.0,120.0,4.0,0.0
5496,41.0,60.0,60.0,14.0,0.0
5497,41.0,0.0,120.0,15.0,0.0
5498,60.0,0.0,120.0,15.0,0.0
5499,41.0,0.0,120.0,3.0,0.0
5500,41.0,120.0,60.0,14.0,0.0
5501,65.0,0.0,120.0,2.0,0.0
5502,73.0,0.0,120.0,4.0,0.0
5503,65.0,120.0,120.0,15.0,0.0
5504,58.0,0.0,120.0,1.0,0.0
5505,73.0,0.0,120.0,15.0,0.0
5506,73.0,0.0,120.0,0.0,0.0
5507,53.0,0.0,120.0,2.0,0.0
5508,58.0,0.0,120.0,12.0,0.0
5509,43.0,0.0,120.0,15.0,0.0
5510,43.0,0.0,120.0,1.0,0.0
5511,58.0,0.0,120.0,15.0,0.0
5512,43.0,0.0,120.0,3.0,0.0
5513,41.0,0.0,120.0,14.0,0.0
5514,43.0,0.0,120.0,13.0,0.0
5515,73.0,0.0,120.0,10.0,0.0
5516,58.0,0.0,120.0,6.0,0.0
5517,31.0,0.0,120.0,8.0,0.0
5518,58.0,0.0,120.0,3.0,0.0
5519,53.0,120.0,120.0,2.0,0.0
5520,72.0,0.0,120.0,4.0,0.0
5521,33.0,0.0,120.0,8.0,0.0
5522,72.0,0.0,120.0,10.0,0.0
5523,65.0,0.0,120.0,15.0,0.0
5524,63.0,0.0,120.0,15.0,0.0
5525,45.0,0.0,120.0,15.0,0.0
5526,45.0,0.0,120.0,1.0,0.0
5527,60.0,0.0,120.0,3.0,0.0
5528,45.0,0.0,120.0,13.0,0.0
5529,72.0,0.0,120.0,0.0,0.0
5530,60.0,0.0,120.0,12.0,0.0
5531,45.0,0.0,120.0,3.0,0.0
5532,72.0,0.0,120.0,15.0,0.0
5533,41.0,0.0,120.0,14.0,0.0
5534,60.0,0.0,120.0,6.0,0.0
5535,60.0,0.0,120.0,1.0,0.0
5536,65.0,0.0,120.0,2.0,0.0
5537,53.0,120.0,120.0,1.0,0.0
5538,46.0,120.0,240.0,13.0,0.0
5539,46.0,0.0,240.0,14.0,0.0
5540,61.0,0.0,240.0,5.0,0.0
5541,58.0,0.0,240.0,2.0,0.0
5542,65.0,0.0,240.0,2.0,0.0
5543,34.0,0.0,120.0,8.0,0.0
5544,61.0,0.0,240.0,0.0,0.0
5545,70.0,0.0,240.0,10.0,0.0
5546,53.0,0.0,120.0,6.0,0.0
5547,70.0,0.0,240.0,4.0,0.0
5548,53.0,0.0,120.0,3.0,0.0
5549,53.0,0.0,120.0,12.0,0.0
5550,70.0,0.0,240.0,0.0,0.0
5551,61.0,0.0,240.0,11.0,0.0
5552,61.0,0.0,240.0,3.0,0.0
5553,65.0,0.0,240.0,15.0,0.0
5554,61.0,0.0,240.0,15.0,0.0
5555,46.0,0.0,120.0,15.0,0.0
5556,46.0,0.0,120.0,1.0,0.0
5557,46.0,0.0,120.0,12.0,0.0
5558,46.0,0.0,120.0,3.0,0.0
5559,34.0,0.0,120.0,8.0,0.0
5560,46.0,0.0,120.0,6.0,0.0
5561,46.0,0.0,120.0,15.0,0.0
5562,51.0,0.0,120.0,12.0,0.0
5563,51.0,0.0,120.0,15.0,0.0
5564,66.0,0.0,240.0,0.0,0.0
5565,51.0,0.0,120.0,1.0,0.0
5566,51.0,120.0,120.0,3.0,0.0
5567,39.0,0.0,120.0,8.0,0.0
5568,51.0,0.0,120.0,6.0,0.0
5569,58.0,0.0,120.0,15.0,0.0
5570,66.0,0.0,240.0,11.0,0.0
5571,54.0,0.0,240.0,15.0,0.0
5572,66.0,0.0,240.0,3.0,0.0
5573,66.0,120.0,240.0,5.0,0.0
5574,49.0,0.0,120.0,3.0,0.0
5575,63.0,0.0,120.0,15.0,0.0
5576,58.0,0.0,120.0,4.0,0.0
5577,49.0,0.0,120.0,6.0,0.0
5578,49.0,0.0,120.0,15.0,0.0
5579,49.0,0.0,120.0,12.0,0.0
5580,37.0,0.0,120.0,8.0,0.0
5581,58.0,0.0,120.0,0.0,0.0
5582,49.0,0.0,120.0,1.0,0.0
5583,58.0,0.0,120.0,10.0,0.0
5584,57.0,0.0,480.0,3.0,0.0
5585,48.0,0.0,120.0,6.0,0.0
5586,63.0,0.0,480.0,15.0,0.0
5587,54.0,0.0,480.0,15.0,0.0
5588,63.0,0.0,360.0,10.0,0.0
5589,48.0,0.0,120.0,15.0,0.0
5590,57.0,0.0,480.0,15.0,0.0
5591,36.0,0.0,120.0,8.0,0.0
5592,63.0,0.0,360.0,4.0,0.0
5593,48.0,120.0,120.0,12.0,0.0
5594,63.0,0.0,360.0,0.0,0.0
5595,57.0,0.0,480.0,0.0,0.0
5596,57.0,0.0,480.0,5.0,0.0
5597,48.0,0.0,120.0,3.0,0.0
5598,48.0,0.0,120.0,1.0,0.0
5599,57.0,0.0,480.0,11.0,0.0
5600,48.0,0.0,120.0,13.0,0.0
5601,51.0,0.0,120.0,3.0,0.0
5602,51.0,0.0,120.0,12.0,0.0
5603,51.0,0.0,120.0,6.0,0.0
5604,36.0,0.0,120.0,8.0,0.0
5605,48.0,120.0,120.0,3.0,0.0
5606,51.0,0.0,120.0,1.0,0.0
5607,48.0,0.0,120.0,1.0,0.0
5608,48.0,0.0,120.0,15.0,0.0
5609,48.0,0.0,120.0,1.0,0.0
5610,54.0,0.0,240.0,6.0,0.0
5611,54.0,0.0,240.0,1.0,0.0
5612,36.0,60.0,120.0,8.0,0.0
5613,54.0,60.0,240.0,12.0,0.0
5614,54.0,0.0,240.0,3.0,0.0
5615,48.0,0.0,120.0,13.0,0.0
5616,48.0,0.0,120.0,15.0,0.0
5617,48.0,0.0,120.0,3.0,0.0
5618,48.0,0.0,120.0,13.0,0.0
5619,48.0,0.0,120.0,15.0,0.0
5620,48.0,0.0,120.0,3.0,0.0
5621,61.0,0.0,60.0,10.0,0.0
5622,61.0,60.0,60.0,4.0,0.0
5623,36.0,0.0,120.0,8.0,0.0
5624,61.0,0.0,60.0,0.0,0.0
5625,48.0,0.0,120.0,1.0,0.0
5626,60.0,0.0,60.0,10.0,0.0
5627,60.0,0.0,60.0,0.0,0.0
5628,60.0,0.0,60.0,4.0,0.0
5629,49.0,0.0,60.0,3.0,0.0
5630,53.0,60.0,240.0,1.0,0.0
5631,49.0,0.0,60.0,1.0,0.0
5632,49.0,0.0,60.0,13.0,0.0
5633,58.0,0.0,480.0,15.0,0.0
5634,58.0,0.0,240.0,3.0,0.0
5635,49.0,0.0,60.0,15.0,0.0
5636,53.0,0.0,240.0,6.0,0.0
5637,65.0,0.0,120.0,4.0,0.0
5638,65.0,0.0,120.0,0.0,0.0
5639,58.0,0.0,240.0,11.0,0.0
5640,53.0,0.0,240.0,3.0,0.0
5641,65.0,0.0,480.0,15.0,0.0
5642,53.0,0.0,240.0,12.0,0.0
5643,58.0,0.0,240.0,5.0,0.0
5644,37.0,60.0,60.0,8.0,0.0
5645,65.0,0.0,120.0,10.0,0.0
5646,51.0,0.0,60.0,13.0,0.0
5647,51.0,0.0,60.0,3.0,0.0
5648,39.0,0.0,60.0,8.0,0.0
5649,51.0,0.0,60.0,15.0,0.0
5650,51.0,60.0,60.0,1.0,0.0
5651,49.0,0.0,60.0,13.0,0.0
5652,58.0,0.0,120.0,0.0,0.0
5653,37.0,0.0,60.0,8.0,0.0
5654,49.0,0.0,60.0,1.0,0.0
5655,58.0,0.0,120.0,4.0,0.0
5656,49.0,60.0,60.0,3.0,0.0
5657,58.0,0.0,120.0,10.0,0.0
5658,49.0,0.0,60.0,15.0,0.0
5659,48.0,0.0,60.0,3.0,0.0
5660,36.0,0.0,60.0,8.0,0.0
5661,48.0,0.0,60.0,1.0,0.0
5662,48.0,0.0,60.0,13.0,0.0
5663,48.0,0.0,60.0,15.0,0.0
5664,37.0,0.0,60.0,8.0,0.0
5665,49.0,0.0,60.0,3.0,0.0
5666,49.0,0.0,60.0,15.0,0.0
5667,58.0,0.0,120.0,5.0,0.0
5668,58.0,0.0,120.0,11.0,0.0
5669,70.0,0.0,480.0,4.0,0.0
5670,70.0,0.0,480.0,10.0,0.0
5671,49.0,60.0,60.0,13.0,0.0
5672,49.0,0.0,60.0,1.0,0.0
5673,70.0,0.0,480.0,0.0,0.0
5674,58.0,0.0,120.0,0.0,0.0
5675,58.0,0.0,120.0,3.0,0.0
5676,51.0,0.0,60.0,13.0,0.0
5677,39.0,60.0,60.0,8.0,0.0
5678,51.0,0.0,60.0,15.0,0.0
5679,51.0,0.0,60.0,1.0,0.0
5680,51.0,0.0,60.0,3.0,0.0
5681,48.0,0.0,60.0,3.0,0.0
5682,58.0,0.0,120.0,11.0,0.0
5683,48.0,0.0,60.0,13.0,0.0
5684,58.0,0.0,120.0,5.0,0.0
5685,48.0,0.0,60.0,1.0,0.0
5686,36.0,60.0,60.0,8.0,0.0
5687,58.0,0.0,120.0,0.0,0.0
5688,58.0,60.0,120.0,3.0,0.0
5689,48.0,0.0,60.0,15.0,0.0
5690,49.0,0.0,60.0,13.0,0.0
5691,49.0,0.0,60.0,3.0,0.0
5692,49.0,0.0,60.0,1.0,0.0
5693,37.0,0.0,60.0,8.0,0.0
5694,49.0,0.0,60.0,15.0,0.0
5695,51.0,0.0,60.0,13.0,0.0
5696,60.0,0.0,360.0,11.0,0.0
5697,60.0,0.0,360.0,5.0,0.0
5698,60.0,0.0,360.0,3.0,0.0
5699,70.0,0.0,480.0,15.0,0.0
5700,51.0,0.0,60.0,1.0,0.0
5701,39.0,0.0,60.0,8.0,0.0
5702,66.0,120.0,480.0,15.0,0.0
5703,61.0,0.0,480.0,15.0,0.0
5704,51.0,60.0,60.0,3.0,0.0
5705,60.0,0.0,360.0,0.0,0.0
5706,51.0,0.0,60.0,15.0,0.0
5707,41.0,60.0,60.0,8.0,0.0
5708,53.0,0.0,60.0,1.0,0.0
5709,53.0,0.0,60.0,13.0,0.0
5710,53.0,0.0,60.0,15.0,0.0
5711,53.0,0.0,60.0,3.0,0.0
5712,51.0,60.0,60.0,13.0,0.0
5713,51.0,0.0,60.0,15.0,0.0
5714,51.0,0.0,60.0,3.0,0.0
5715,39.0,0.0,60.0,8.0,0.0
5716,51.0,0.0,60.0,1.0,0.0
5717,49.0,0.0,60.0,3.0,0.0
5718,49.0,60.0,60.0,1.0,0.0
5719,49.0,0.0,60.0,13.0,0.0
5720,37.0,0.0,60.0,8.0,0.0
5721,49.0,0.0,60.0,15.0,0.0
5722,51.0,60.0,60.0,1.0,0.0
5723,39.0,0.0,60.0,8.0,0.0
5724,51.0,0.0,60.0,13.0,0.0
5725,51.0,0.0,60.0,15.0,0.0
5726,51.0,0.0,60.0,3.0,0.0
5727,70.0,0.0,240.0,0.0,0.0
5728,70.0,0.0,240.0,10.0,0.0
5729,70.0,0.0,240.0,4.0,0.0
5730,41.0,0.0,60.0,8.0,0.0
5731,53.0,0.0,60.0,3.0,0.0
5732,53.0,0.0,60.0,1.0,0.0
5733,53.0,0.0,60.0,15.0,0.0
5734,53.0,60.0,60.0,13.0,0.0
5735,58.0,60.0,60.0,0.0,0.0
5736,58.0,0.0,60.0,5.0,0.0
5737,49.0,0.0,60.0,15.0,0.0
5738,37.0,0.0,60.0,8.0,0.0
5739,49.0,0.0,60.0,3.0,0.0
5740,58.0,0.0,60.0,11.0,0.0
5741,49.0,0.0,60.0,13.0,0.0
5742,58.0,0.0,60.0,3.0,0.0
5743,49.0,0.0,60.0,1.0,0.0
5744,60.0,0.0,60.0,3.0,0.0
5745,39.0,0.0,60.0,8.0,0.0
5746,60.0,0.0,60.0,11.0,0.0
5747,60.0,0.0,60.0,0.0,0.0
5748,60.0,0.0,60.0,5.0,0.0
5749,51.0,0.0,60.0,15.0,0.0
5750,51.0,0.0,60.0,3.0,0.0
5751,51.0,0.0,60.0,1.0,0.0
5752,51.0,0.0,60.0,13.0,0.0
5753,70.0,0.0,120.0,10.0,0.0
5754,61.0,0.0,120.0,3.0,0.0
5755,61.0,0.0,120.0,11.0,0.0
5756,53.0,60.0,120.0,1.0,0.0
5757,53.0,0.0,120.0,3.0,0.0
5758,53.0,0.0,120.0,13.0,0.0
5759,61.0,0.0,120.0,0.0,0.0
5760,61.0,0.0,120.0,5.0,0.0
5761,70.0,0.0,120.0,0.0,0.0
5762,65.0,0.0,120.0,15.0,0.0
5763,61.0,0.0,120.0,15.0,0.0
5764,70.0,0.0,120.0,15.0,0.0
5765,41.0,0.0,120.0,8.0,0.0
5766,70.0,0.0,120.0,4.0,0.0
5767,53.0,0.0,120.0,15.0,0.0
5768,42.0,0.0,60.0,8.0,0.0
5769,69.0,0.0,60.0,10.0,0.0
5770,54.0,0.0,60.0,1.0,0.0
5771,61.0,0.0,120.0,15.0,0.0
5772,54.0,60.0,60.0,15.0,0.0
5773,69.0,0.0,120.0,15.0,0.0
5774,65.0,60.0,120.0,15.0,0.0
5775,69.0,0.0,60.0,4.0,0.0
5776,54.0,0.0,60.0,3.0,0.0
5777,60.0,0.0,60.0,3.0,0.0
5778,69.0,0.0,60.0,0.0,0.0
5779,60.0,0.0,60.0,0.0,0.0
5780,54.0,0.0,60.0,13.0,0.0
5781,60.0,0.0,60.0,11.0,0.0
5782,60.0,0.0,60.0,5.0,0.0
5783,53.0,0.0,60.0,13.0,0.0
5784,41.0,0.0,60.0,8.0,0.0
5785,53.0,0.0,60.0,15.0,0.0
5786,61.0,0.0,60.0,0.0,0.0
5787,70.0,0.0,60.0,0.0,0.0
5788,61.0,0.0,60.0,3.0,0.0
5789,53.0,0.0,60.0,3.0,0.0
5790,70.0,0.0,60.0,4.0,0.0
5791,61.0,0.0,60.0,5.0,0.0
5792,53.0,0.0,60.0,1.0,0.0
5793,61.0,0.0,60.0,11.0,0.0
5794,70.0,0.0,60.0,10.0,0.0
5795,72.0,0.0,240.0,15.0,0.0
5796,72.0,0.0,480.0,4.0,0.0
5797,66.0,0.0,240.0,15.0,0.0
5798,63.0,0.0,120.0,5.0,0.0
5799,51.0,0.0,60.0,13.0,0.0
5800,63.0,0.0,240.0,15.0,0.0
5801,39.0,60.0,60.0,8.0,0.0
5802,63.0,0.0,120.0,3.0,0.0
5803,51.0,0.0,60.0,3.0,0.0
5804,72.0,0.0,480.0,10.0,0.0
5805,51.0,0.0,60.0,15.0,0.0
5806,63.0,0.0,120.0,0.0,0.0
5807,72.0,0.0,480.0,0.0,0.0
5808,51.0,0.0,60.0,1.0,0.0
5809,63.0,0.0,120.0,11.0,0.0
5810,49.0,0.0,60.0,1.0,0.0
5811,49.0,0.0,60.0,13.0,0.0
5812,37.0,60.0,60.0,8.0,0.0
5813,49.0,0.0,60.0,15.0,0.0
5814,49.0,0.0,60.0,3.0,0.0
5815,61.0,0.0,60.0,3.0,0.0
5816,48.0,0.0,60.0,13.0,0.0
5817,61.0,0.0,60.0,0.0,0.0
5818,48.0,0.0,60.0,15.0,0.0
5819,36.0,0.0,60.0,8.0,0.0
5820,48.0,0.0,60.0,3.0,0.0
5821,61.0,60.0,60.0,11.0,0.0
5822,61.0,0.0,60.0,5.0,0.0
5823,48.0,0.0,60.0,1.0,0.0
5824,34.0,0.0,60.0,8.0,0.0
5825,46.0,0.0,60.0,1.0,0.0
5826,46.0,0.0,60.0,15.0,0.0
5827,63.0,0.0,60.0,11.0,0.0
5828,63.0,120.0,60.0,5.0,0.0
5829,63.0,0.0,60.0,3.0,0.0
5830,63.0,0.0,60.0,0.0,0.0
5831,46.0,0.0,60.0,3.0,0.0
5832,46.0,0.0,60.0,13.0,0.0
5833,33.0,0.0,120.0,8.0,0.0
5834,65.0,0.0,120.0,11.0,0.0
5835,65.0,0.0,120.0,3.0,0.0
5836,45.0,0.0,120.0,13.0,0.0
5837,65.0,120.0,120.0,5.0,0.0
5838,65.0,0.0,120.0,0.0,0.0
5839,45.0,0.0,120.0,3.0,0.0
5840,72.0,0.0,240.0,15.0,0.0
5841,63.0,0.0,240.0,15.0,0.0
5842,45.0,0.0,120.0,15.0,0.0
5843,65.0,0.0,240.0,15.0,0.0
5844,45.0,0.0,120.0,1.0,0.0
5845,41.0,0.0,120.0,14.0,0.0
5846,63.0,0.0,120.0,5.0,0.0
5847,63.0,120.0,120.0,11.0,0.0
5848,48.0,0.0,120.0,15.0,0.0
5849,65.0,0.0,120.0,2.0,0.0
5850,53.0,0.0,120.0,2.0,0.0
5851,48.0,0.0,120.0,13.0,0.0
5852,48.0,0.0,120.0,3.0,0.0
5853,63.0,0.0,120.0,3.0,0.0
5854,63.0,0.0,120.0,0.0,0.0
5855,48.0,0.0,120.0,1.0,0.0
5856,36.0,0.0,120.0,8.0,0.0
5857,61.0,0.0,120.0,11.0,0.0
5858,70.0,0.0,120.0,0.0,0.0
5859,53.0,0.0,120.0,13.0,0.0
5860,61.0,0.0,120.0,0.0,0.0
5861,70.0,0.0,120.0,4.0,0.0
5862,70.0,0.0,120.0,15.0,0.0
5863,53.0,0.0,120.0,1.0,0.0
5864,41.0,0.0,120.0,14.0,0.0
5865,65.0,0.0,120.0,2.0,0.0
5866,53.0,120.0,120.0,2.0,0.0
5867,70.0,0.0,120.0,10.0,0.0
5868,61.0,0.0,120.0,15.0,0.0
5869,61.0,0.0,120.0,3.0,0.0
5870,41.0,0.0,120.0,8.0,0.0
5871,61.0,0.0,120.0,5.0,0.0
5872,53.0,0.0,120.0,15.0,0.0
5873,53.0,0.0,120.0,3.0,0.0
5874,51.0,0.0,120.0,3.0,0.0
5875,60.0,0.0,120.0,3.0,0.0
5876,51.0,0.0,120.0,15.0,0.0
5877,39.0,0.0,120.0,8.0,0.0
5878,65.0,60.0,120.0,15.0,0.0
5879,69.0,0.0,120.0,10.0,0.0
5880,53.0,0.0,120.0,2.0,0.0
5881,60.0,0.0,120.0,5.0,0.0
5882,65.0,0.0,120.0,2.0,0.0
5883,69.0,0.0,120.0,4.0,0.0
5884,51.0,0.0,120.0,1.0,0.0
5885,60.0,0.0,120.0,11.0,0.0
5886,69.0,0.0,120.0,0.0,0.0
5887,60.0,0.0,120.0,0.0,0.0
5888,51.0,0.0,120.0,13.0,0.0
5889,41.0,0.0,120.0,14.0,0.0
5890,69.0,0.0,120.0,15.0,0.0
5891,58.0,0.0,180.0,11.0,0.0
5892,58.0,0.0,480.0,12.0,0.0
5893,49.0,0.0,60.0,1.0,0.0
5894,58.0,0.0,480.0,1.0,0.0
5895,58.0,0.0,480.0,6.0,0.0
5896,58.0,60.0,180.0,3.0,0.0
5897,70.0,0.0,240.0,10.0,0.0
5898,49.0,60.0,60.0,3.0,0.0
5899,46.0,0.0,240.0,14.0,0.0
5900,58.0,0.0,180.0,5.0,0.0
5901,70.0,0.0,240.0,15.0,0.0
5902,37.0,0.0,60.0,8.0,0.0
5903,70.0,0.0,240.0,4.0,0.0
5904,49.0,0.0,60.0,13.0,0.0
5905,70.0,0.0,240.0,0.0,0.0
5906,49.0,0.0,60.0,15.0,0.0
5907,58.0,0.0,180.0,0.0,0.0
5908,58.0,0.0,240.0,2.0,0.0
5909,65.0,0.0,240.0,2.0,0.0
5910,65.0,0.0,240.0,15.0,0.0
5911,48.0,60.0,60.0,1.0,0.0
5912,48.0,0.0,60.0,3.0,0.0
5913,48.0,0.0,60.0,15.0,0.0
5914,48.0,0.0,60.0,13.0,0.0
5915,36.0,0.0,60.0,8.0,0.0
5916,46.0,0.0,60.0,15.0,0.0
5917,46.0,0.0,60.0,13.0,0.0
5918,46.0,0.0,60.0,1.0,0.0
5919,34.0,0.0,60.0,8.0,0.0
5920,46.0,0.0,60.0,3.0,0.0
5921,60.0,0.0,60.0,0.0,0.0
5922,60.0,0.0,60.0,5.0,0.0
5923,44.0,0.0,60.0,13.0,0.0
5924,44.0,0.0,60.0,3.0,0.0
5925,44.0,0.0,60.0,15.0,0.0
5926,44.0,0.0,60.0,1.0,0.0
5927,60.0,0.0,60.0,3.0,0.0
5928,32.0,0.0,60.0,8.0,0.0
5929,60.0,120.0,60.0,11.0,0.0
5930,43.0,0.0,240.0,15.0,0.0
5931,43.0,0.0,240.0,3.0,0.0
5932,31.0,0.0,240.0,8.0,0.0
5933,62.0,0.0,120.0,15.0,0.0
5934,62.0,0.0,120.0,3.0,0.0
5935,62.0,0.0,120.0,11.0,0.0
5936,43.0,0.0,240.0,1.0,0.0
5937,62.0,0.0,120.0,5.0,0.0
5938,43.0,0.0,240.0,13.0,0.0
5939,62.0,0.0,120.0,0.0,0.0
5940,58.0,120.0,120.0,15.0,0.0
5941,64.0,0.0,120.0,5.0,0.0
5942,64.0,0.0,120.0,11.0,0.0
5943,64.0,0.0,120.0,15.0,0.0
5944,58.0,0.0,120.0,15.0,0.0
5945,64.0,0.0,120.0,0.0,0.0
5946,64.0,120.0,120.0,3.0,0.0
5947,56.0,120.0,240.0,15.0,0.0
5948,44.0,0.0,240.0,15.0,0.0
5949,60.0,0.0,240.0,15.0,0.0
5950,44.0,0.0,240.0,1.0,0.0
5951,56.0,0.0,240.0,1.0,0.0
5952,65.0,0.0,240.0,15.0,0.0
5953,56.0,0.0,240.0,6.0,0.0
5954,65.0,0.0,120.0,5.0,0.0
5955,44.0,0.0,240.0,3.0,0.0
5956,44.0,0.0,240.0,13.0,0.0
5957,65.0,0.0,120.0,0.0,0.0
5958,65.0,0.0,120.0,3.0,0.0
5959,65.0,120.0,120.0,11.0,0.0
5960,32.0,0.0,240.0,8.0,0.0
5961,56.0,0.0,240.0,12.0,0.0
5962,56.0,0.0,240.0,3.0,0.0
5963,60.0,0.0,240.0,5.0,0.0
5964,60.0,0.0,240.0,0.0,0.0
5965,60.0,0.0,240.0,11.0,0.0
5966,60.0,0.0,240.0,3.0,0.0
5967,68.0,60.0,120.0,15.0,0.0
5968,46.0,0.0,240.0,3.0,0.0
5969,46.0,0.0,240.0,13.0,0.0
5970,61.0,0.0,240.0,15.0,0.0
5971,46.0,0.0,240.0,1.0,0.0
5972,60.0,0.0,120.0,15.0,0.0
5973,65.0,0.0,120.0,15.0,0.0
5974,34.0,0.0,240.0,8.0,0.0
5975,61.0,0.0,240.0,12.0,0.0
5976,61.0,0.0,240.0,3.0,0.0
5977,61.0,0.0,240.0,6.0,0.0
5978,61.0,0.0,240.0,1.0,0.0
5979,46.0,0.0,240.0,15.0,0.0
5980,58.0,0.0,60.0,0.0,0.0
5981,67.0,0.0,60.0,15.0,0.0
5982,58.0,0.0,60.0,15.0,0.0
5983,58.0,0.0,60.0,5.0,0.0
5984,58.0,0.0,60.0,3.0,0.0
5985,58.0,60.0,60.0,11.0,0.0
5986,56.0,240.0,60.0,5.0,0.0
5987,65.0,0.0,60.0,15.0,0.0
5988,56.0,0.0,60.0,15.0,0.0
5989,56.0,0.0,60.0,0.0,0.0
5990,56.0,0.0,60.0,11.0,0.0
5991,56.0,0.0,60.0,3.0,0.0
5992,48.0,120.0,240.0,1.0,0.0
5993,48.0,0.0,240.0,3.0,0.0
5994,54.0,0.0,240.0,3.0,0.0
5995,48.0,0.0,240.0,13.0,0.0
5996,54.0,0.0,240.0,11.0,0.0
5997,52.0,0.0,480.0,1.0,0.0
5998,55.0,0.0,240.0,0.0,0.0
5999,52.0,0.0,480.0,6.0,0.0
6000,36.0,0.0,240.0,8.0,0.0
6001,52.0,0.0,480.0,3.0,0.0
6002,64.0,0.0,240.0,15.0,0.0
6003,52.0,60.0,480.0,12.0,0.0
6004,48.0,0.0,240.0,15.0,0.0
6005,67.0,0.0,240.0,15.0,0.0
6006,55.0,0.0,240.0,5.0,0.0
6007,67.0,0.0,120.0,4.0,0.0
6008,67.0,0.0,120.0,10.0,0.0
6009,67.0,0.0,120.0,0.0,0.0
6010,48.0,0.0,120.0,13.0,0.0
6011,67.0,120.0,120.0,4.0,0.0
6012,67.0,0.0,120.0,10.0,0.0
6013,48.0,0.0,120.0,1.0,0.0
6014,48.0,0.0,120.0,3.0,0.0
6015,67.0,0.0,120.0,0.0,0.0
6016,36.0,0.0,120.0,8.0,0.0
6017,48.0,0.0,120.0,13.0,0.0
6018,67.0,0.0,120.0,4.0,0.0
6019,67.0,0.0,120.0,0.0,0.0
6020,64.0,0.0,120.0,15.0,0.0
6021,67.0,0.0,120.0,15.0,0.0
6022,67.0,0.0,120.0,10.0,0.0
6023,48.0,0.0,120.0,3.0,0.0
6024,48.0,0.0,120.0,1.0,0.0
6025,48.0,0.0,120.0,15.0,0.0
6026,53.0,0.0,240.0,3.0,0.0
6027,53.0,0.0,300.0,13.0,0.0
6028,53.0,0.0,300.0,1.0,0.0
6029,41.0,0.0,300.0,8.0,0.0
6030,60.0,0.0,480.0,15.0,0.0
6031,53.0,0.0,300.0,15.0,0.0
6032,68.0,0.0,480.0,15.0,0.0
6033,68.0,60.0,60.0,0.0,0.0
6034,53.0,60.0,240.0,12.0,0.0
6035,68.0,0.0,60.0,10.0,0.0
6036,53.0,0.0,240.0,6.0,0.0
6037,68.0,0.0,60.0,4.0,0.0
6038,70.0,60.0,60.0,4.0,0.0
6039,70.0,0.0,60.0,10.0,0.0
6040,70.0,0.0,60.0,0.0,0.0
6041,60.0,0.0,120.0,5.0,0.0
6042,68.0,0.0,60.0,0.0,0.0
6043,60.0,0.0,120.0,0.0,0.0
6044,68.0,60.0,60.0,10.0,0.0
6045,68.0,0.0,60.0,4.0,0.0
6046,60.0,0.0,120.0,3.0,0.0
6047,60.0,0.0,120.0,11.0,0.0
6048,67.0,0.0,60.0,0.0,0.0
6049,67.0,0.0,60.0,4.0,0.0
6050,67.0,0.0,60.0,10.0,0.0
6051,65.0,0.0,300.0,11.0,0.0
6052,53.0,0.0,120.0,12.0,0.0
6053,65.0,0.0,300.0,5.0,0.0
6054,65.0,60.0,300.0,3.0,0.0
6055,65.0,0.0,300.0,0.0,0.0
6056,68.0,60.0,60.0,0.0,0.0
6057,53.0,0.0,120.0,6.0,0.0
6058,68.0,0.0,60.0,10.0,0.0
6059,68.0,0.0,60.0,4.0,0.0
6060,53.0,0.0,60.0,3.0,0.0
6061,39.0,0.0,60.0,8.0,0.0
6062,51.0,60.0,60.0,13.0,0.0
6063,51.0,0.0,60.0,1.0,0.0
6064,70.0,0.0,60.0,4.0,0.0
6065,51.0,0.0,60.0,3.0,0.0
6066,70.0,0.0,60.0,0.0,0.0
6067,70.0,0.0,60.0,10.0,0.0
6068,51.0,0.0,60.0,15.0,0.0
6069,53.0,0.0,120.0,3.0,0.0
6070,49.0,0.0,60.0,3.0,0.0
6071,53.0,0.0,120.0,6.0,0.0
6072,49.0,0.0,60.0,15.0,0.0
6073,49.0,0.0,60.0,13.0,0.0
6074,67.0,0.0,60.0,10.0,0.0
6075,49.0,0.0,60.0,1.0,0.0
6076,53.0,0.0,120.0,1.0,0.0
6077,53.0,0.0,120.0,12.0,0.0
6078,67.0,60.0,60.0,0.0,0.0
6079,67.0,0.0,60.0,4.0,0.0
6080,37.0,0.0,60.0,8.0,0.0
6081,48.0,0.0,60.0,15.0,0.0
6082,36.0,0.0,60.0,8.0,0.0
6083,48.0,0.0,60.0,13.0,0.0
6084,68.0,60.0,60.0,10.0,0.0
6085,68.0,0.0,60.0,0.0,0.0
6086,48.0,0.0,60.0,3.0,0.0
6087,48.0,0.0,60.0,1.0,0.0
6088,68.0,0.0,60.0,4.0,0.0
6089,70.0,0.0,60.0,4.0,0.0
6090,55.0,0.0,360.0,1.0,0.0
6091,55.0,0.0,360.0,6.0,0.0
6092,49.0,60.0,120.0,1.0,0.0
6093,70.0,0.0,60.0,0.0,0.0
6094,58.0,0.0,240.0,15.0,0.0
6095,37.0,0.0,120.0,8.0,0.0
6096,70.0,0.0,60.0,10.0,0.0
6097,49.0,0.0,120.0,15.0,0.0
6098,55.0,0.0,360.0,12.0,0.0
6099,55.0,0.0,240.0,15.0,0.0
6100,65.0,0.0,240.0,15.0,0.0
6101,55.0,0.0,360.0,3.0,0.0
6102,49.0,0.0,120.0,3.0,0.0
6103,49.0,0.0,120.0,13.0,0.0
6104,63.0,0.0,60.0,3.0,0.0
6105,63.0,0.0,60.0,11.0,0.0
6106,72.0,0.0,60.0,0.0,0.0
6107,63.0,0.0,60.0,0.0,0.0
6108,72.0,0.0,60.0,10.0,0.0
6109,63.0,0.0,60.0,5.0,0.0
6110,72.0,0.0,60.0,4.0,0.0
6111,70.0,0.0,60.0,0.0,0.0
6112,46.0,0.0,120.0,3.0,0.0
6113,46.0,0.0,120.0,15.0,0.0
6114,34.0,0.0,120.0,8.0,0.0
6115,61.0,0.0,60.0,5.0,0.0
6116,70.0,0.0,60.0,4.0,0.0
6117,61.0,60.0,60.0,11.0,0.0
6118,61.0,0.0,60.0,3.0,0.0
6119,70.0,0.0,60.0,10.0,0.0
6120,46.0,60.0,120.0,13.0,0.0
6121,46.0,0.0,120.0,1.0,0.0
6122,61.0,0.0,60.0,0.0,0.0
6123,68.0,0.0,60.0,4.0,0.0
6124,60.0,0.0,60.0,5.0,0.0
6125,60.0,0.0,60.0,11.0,0.0
6126,68.0,0.0,60.0,0.0,0.0
6127,60.0,0.0,60.0,0.0,0.0
6128,68.0,0.0,60.0,10.0,0.0
6129,60.0,0.0,60.0,3.0,0.0
6130,51.0,0.0,240.0,13.0,0.0
6131,61.0,60.0,120.0,11.0,0.0
6132,70.0,0.0,60.0,0.0,0.0
6133,70.0,0.0,60.0,4.0,0.0
6134,70.0,0.0,240.0,15.0,0.0
6135,51.0,0.0,240.0,15.0,0.0
6136,61.0,0.0,120.0,0.0,0.0
6137,70.0,60.0,60.0,10.0,0.0
6138,51.0,0.0,240.0,1.0,0.0
6139,63.0,0.0,120.0,15.0,0.0
6140,55.0,0.0,240.0,15.0,0.0
6141,39.0,0.0,240.0,8.0,0.0
6142,51.0,0.0,240.0,3.0,0.0
6143,61.0,0.0,120.0,3.0,0.0
6144,61.0,0.0,120.0,5.0,0.0
6145,72.0,0.0,60.0,4.0,0.0
6146,72.0,0.0,60.0,0.0,0.0
6147,72.0,0.0,60.0,10.0,0.0
6148,53.0,0.0,60.0,12.0,0.0
6149,53.0,0.0,60.0,1.0,0.0
6150,68.0,0.0,60.0,10.0,0.0
6151,63.0,0.0,60.0,5.0,0.0
6152,68.0,0.0,60.0,4.0,0.0
6153,68.0,0.0,60.0,0.0,0.0
6154,61.0,0.0,120.0,15.0,0.0
6155,53.0,60.0,60.0,6.0,0.0
6156,63.0,0.0,60.0,11.0,0.0
6157,53.0,0.0,60.0,3.0,0.0
6158,63.0,0.0,60.0,0.0,0.0
6159,63.0,0.0,60.0,3.0,0.0
6160,70.0,120.0,60.0,0.0,0.0
6161,61.0,0.0,60.0,0.0,0.0
6162,55.0,0.0,60.0,1.0,0.0
6163,55.0,0.0,60.0,3.0,0.0
6164,61.0,0.0,60.0,11.0,0.0
6165,61.0,0.0,60.0,3.0,0.0
6166,55.0,0.0,60.0,6.0,0.0
6167,61.0,0.0,60.0,5.0,0.0
6168,55.0,0.0,60.0,12.0,0.0
6169,70.0,0.0,60.0,4.0,0.0
6170,70.0,0.0,60.0,10.0,0.0
6171,56.0,0.0,120.0,3.0,0.0
6172,44.0,0.0,120.0,13.0,0.0
6173,56.0,0.0,120.0,12.0,0.0
6174,60.0,0.0,240.0,5.0,0.0
6175,65.0,0.0,240.0,15.0,0.0
6176,44.0,0.0,120.0,15.0,0.0
6177,60.0,0.0,240.0,15.0,0.0
6178,56.0,0.0,120.0,1.0,0.0
6179,44.0,0.0,120.0,3.0,0.0
6180,60.0,60.0,240.0,11.0,0.0
6181,72.0,0.0,120.0,4.0,0.0
6182,72.0,60.0,120.0,0.0,0.0
6183,60.0,0.0,240.0,0.0,0.0
6184,72.0,0.0,120.0,10.0,0.0
6185,44.0,0.0,120.0,1.0,0.0
6186,56.0,0.0,120.0,6.0,0.0
6187,60.0,0.0,240.0,3.0,0.0
6188,32.0,0.0,120.0,8.0,0.0
6189,41.0,0.0,120.0,1.0,0.0
6190,55.0,0.0,60.0,3.0,0.0
6191,73.0,0.0,60.0,4.0,0.0
6192,41.0,0.0,120.0,3.0,0.0
6193,41.0,0.0,120.0,15.0,0.0
6194,73.0,60.0,60.0,10.0,0.0
6195,55.0,0.0,60.0,1.0,0.0
6196,55.0,0.0,60.0,6.0,0.0
6197,29.0,0.0,120.0,8.0,0.0
6198,41.0,0.0,120.0,13.0,0.0
6199,55.0,0.0,60.0,12.0,0.0
6200,73.0,0.0,60.0,0.0,0.0
6201,56.0,0.0,60.0,6.0,0.0
6202,72.0,0.0,60.0,0.0,0.0
6203,56.0,0.0,60.0,12.0,0.0
6204,56.0,0.0,60.0,3.0,0.0
6205,56.0,0.0,60.0,1.0,0.0
6206,72.0,0.0,60.0,10.0,0.0
6207,72.0,0.0,60.0,4.0,0.0
6208,70.0,60.0,60.0,4.0,0.0
6209,70.0,0.0,60.0,10.0,0.0
6210,37.0,0.0,240.0,8.0,0.0
6211,58.0,0.0,120.0,6.0,0.0
6212,49.0,0.0,240.0,3.0,0.0
6213,58.0,0.0,240.0,15.0,0.0
6214,70.0,0.0,60.0,0.0,0.0
6215,49.0,120.0,240.0,15.0,0.0
6216,58.0,0.0,120.0,3.0,0.0
6217,58.0,60.0,120.0,12.0,0.0
6218,49.0,0.0,240.0,1.0,0.0
6219,58.0,0.0,120.0,1.0,0.0
6220,65.0,0.0,240.0,15.0,0.0
6221,49.0,0.0,240.0,13.0,0.0
6222,68.0,0.0,60.0,0.0,0.0
6223,68.0,0.0,60.0,4.0,0.0
6224,68.0,0.0,60.0,10.0,0.0
6225,67.0,0.0,60.0,4.0,0.0
6226,56.0,0.0,60.0,6.0,0.0
6227,67.0,0.0,60.0,10.0,0.0
6228,67.0,0.0,60.0,0.0,0.0
6229,56.0,60.0,60.0,3.0,0.0
6230,56.0,0.0,60.0,12.0,0.0
6231,56.0,0.0,60.0,1.0,0.0
6232,65.0,0.0,60.0,10.0,0.0
6233,65.0,0.0,60.0,4.0,0.0
6234,58.0,0.0,60.0,6.0,0.0
6235,58.0,0.0,60.0,3.0,0.0
6236,58.0,0.0,60.0,1.0,0.0
6237,65.0,0.0,60.0,0.0,0.0
6238,58.0,0.0,60.0,12.0,0.0
6239,36.0,0.0,120.0,8.0,0.0
6240,67.0,0.0,120.0,15.0,0.0
6241,64.0,0.0,120.0,15.0,0.0
6242,48.0,0.0,120.0,15.0,0.0
6243,64.0,0.0,120.0,0.0,0.0
6244,48.0,0.0,240.0,13.0,0.0
6245,60.0,0.0,120.0,3.0,0.0
6246,48.0,0.0,240.0,1.0,0.0
6247,60.0,0.0,120.0,1.0,0.0
6248,60.0,0.0,120.0,6.0,0.0
6249,64.0,0.0,120.0,10.0,0.0
6250,48.0,0.0,240.0,3.0,0.0
6251,60.0,120.0,120.0,12.0,0.0
6252,64.0,0.0,120.0,4.0,0.0
6253,58.0,0.0,120.0,7.0,0.0
6254,60.0,0.0,120.0,5.0,0.0
6255,60.0,0.0,120.0,0.0,0.0
6256,67.0,0.0,120.0,0.0,0.0
6257,60.0,0.0,120.0,11.0,0.0
6258,58.0,0.0,120.0,1.0,0.0
6259,58.0,0.0,120.0,6.0,0.0
6260,67.0,0.0,120.0,10.0,0.0
6261,58.0,120.0,120.0,3.0,0.0
6262,60.0,0.0,120.0,15.0,0.0
6263,67.0,0.0,120.0,4.0,0.0
6264,58.0,0.0,120.0,12.0,0.0
6265,64.0,0.0,120.0,15.0,0.0
6266,58.0,0.0,120.0,15.0,0.0
6267,60.0,0.0,120.0,3.0,0.0
6268,67.0,0.0,120.0,15.0,0.0
6269,62.0,0.0,120.0,15.0,0.0
6270,56.0,0.0,120.0,12.0,0.0
6271,62.0,0.0,120.0,11.0,0.0
6272,62.0,0.0,120.0,5.0,0.0
6273,56.0,0.0,120.0,15.0,0.0
6274,72.0,0.0,120.0,15.0,0.0
6275,65.0,120.0,120.0,15.0,0.0
6276,72.0,0.0,120.0,10.0,0.0
6277,56.0,0.0,120.0,6.0,0.0
6278,72.0,0.0,120.0,4.0,0.0
6279,72.0,0.0,120.0,0.0,0.0
6280,62.0,0.0,120.0,0.0,0.0
6281,56.0,0.0,120.0,3.0,0.0
6282,62.0,0.0,120.0,3.0,0.0
6283,56.0,0.0,120.0,1.0,0.0
6284,56.0,0.0,120.0,7.0,0.0
6285,55.0,0.0,120.0,7.0,0.0
6286,55.0,0.0,120.0,6.0,0.0
6287,70.0,0.0,120.0,10.0,0.0
6288,70.0,0.0,120.0,0.0,0.0
6289,64.0,0.0,120.0,0.0,0.0
6290,55.0,0.0,120.0,3.0,0.0
6291,55.0,0.0,120.0,15.0,0.0
6292,70.0,0.0,120.0,4.0,0.0
6293,64.0,0.0,120.0,3.0,0.0
6294,64.0,0.0,120.0,15.0,0.0
6295,70.0,60.0,120.0,15.0,0.0
6296,64.0,0.0,120.0,5.0,0.0
6297,55.0,0.0,120.0,12.0,0.0
6298,64.0,0.0,120.0,11.0,0.0
6299,55.0,0.0,120.0,1.0,0.0
6300,53.0,0.0,60.0,3.0,0.0
6301,68.0,0.0,60.0,10.0,0.0
6302,65.0,0.0,240.0,15.0,0.0
6303,53.0,0.0,120.0,7.0,0.0
6304,53.0,0.0,120.0,15.0,0.0
6305,68.0,0.0,60.0,4.0,0.0
6306,68.0,0.0,60.0,0.0,0.0
6307,53.0,0.0,60.0,1.0,0.0
6308,65.0,0.0,240.0,11.0,0.0
6309,53.0,0.0,60.0,6.0,0.0
6310,65.0,0.0,240.0,5.0,0.0
6311,68.0,0.0,240.0,15.0,0.0
6312,53.0,60.0,60.0,12.0,0.0
6313,65.0,0.0,240.0,3.0,0.0
6314,61.0,0.0,240.0,15.0,0.0
6315,55.0,0.0,60.0,1.0,0.0
6316,55.0,0.0,60.0,12.0,0.0
6317,67.0,0.0,60.0,4.0,0.0
6318,67.0,60.0,60.0,10.0,0.0
6319,67.0,0.0,60.0,0.0,0.0
6320,55.0,0.0,60.0,3.0,0.0
6321,55.0,0.0,60.0,6.0,0.0
6322,53.0,60.0,60.0,15.0,0.0
6323,56.0,0.0,240.0,12.0,0.0
6324,41.0,0.0,60.0,8.0,0.0
6325,65.0,0.0,180.0,4.0,0.0
6326,53.0,0.0,60.0,1.0,0.0
6327,56.0,0.0,240.0,1.0,0.0
6328,53.0,0.0,60.0,3.0,0.0
6329,56.0,0.0,240.0,3.0,0.0
6330,56.0,0.0,240.0,6.0,0.0
6331,65.0,0.0,180.0,10.0,0.0
6332,53.0,0.0,60.0,13.0,0.0
6333,65.0,60.0,120.0,0.0,0.0
6334,51.0,0.0,60.0,1.0,0.0
6335,51.0,0.0,60.0,3.0,0.0
6336,39.0,0.0,60.0,8.0,0.0
6337,51.0,0.0,60.0,13.0,0.0
6338,51.0,0.0,60.0,15.0,0.0
6339,49.0,0.0,120.0,3.0,0.0
6340,49.0,0.0,120.0,13.0,0.0
6341,49.0,0.0,120.0,15.0,0.0
6342,68.0,0.0,120.0,15.0,0.0
6343,49.0,0.0,120.0,1.0,0.0
6344,37.0,0.0,120.0,8.0,0.0
6345,65.0,0.0,120.0,15.0,0.0
6346,66.0,0.0,60.0,0.0,0.0
6347,66.0,0.0,60.0,4.0,0.0
6348,66.0,60.0,60.0,10.0,0.0
6349,47.0,120.0,120.0,15.0,0.0
6350,47.0,0.0,120.0,1.0,0.0
6351,57.0,0.0,120.0,1.0,0.0
6352,57.0,0.0,120.0,6.0,0.0
6353,47.0,0.0,120.0,3.0,0.0
6354,57.0,0.0,120.0,3.0,0.0
6355,35.0,0.0,120.0,8.0,0.0
6356,63.0,0.0,60.0,0.0,0.0
6357,63.0,60.0,60.0,4.0,0.0
6358,63.0,0.0,60.0,10.0,0.0
6359,57.0,0.0,120.0,12.0,0.0
6360,63.0,0.0,120.0,15.0,0.0
6361,47.0,0.0,120.0,13.0,0.0
6362,69.0,0.0,120.0,15.0,0.0
6363,65.0,0.0,60.0,0.0,0.0
6364,65.0,0.0,60.0,10.0,0.0
6365,65.0,0.0,60.0,4.0,0.0
6366,58.0,0.0,120.0,6.0,0.0
6367,62.0,0.0,240.0,4.0,0.0
6368,65.0,0.0,120.0,15.0,0.0
6369,34.0,0.0,120.0,8.0,0.0
6370,62.0,0.0,120.0,15.0,0.0
6371,58.0,0.0,120.0,3.0,0.0
6372,58.0,0.0,120.0,12.0,0.0
6373,46.0,0.0,120.0,15.0,0.0
6374,62.0,0.0,240.0,10.0,0.0
6375,62.0,0.0,240.0,0.0,0.0
6376,46.0,0.0,240.0,13.0,0.0
6377,58.0,120.0,120.0,1.0,0.0
6378,65.0,0.0,120.0,0.0,0.0
6379,46.0,0.0,120.0,1.0,0.0
6380,65.0,0.0,120.0,3.0,0.0
6381,65.0,0.0,120.0,5.0,0.0
6382,65.0,0.0,120.0,15.0,0.0
6383,62.0,0.0,120.0,15.0,0.0
6384,46.0,0.0,120.0,15.0,0.0
6385,46.0,0.0,120.0,3.0,0.0
6386,46.0,0.0,120.0,7.0,0.0
6387,46.0,0.0,120.0,6.0,0.0
6388,46.0,0.0,120.0,12.0,0.0
6389,65.0,0.0,120.0,11.0,0.0
6390,70.0,0.0,120.0,3.0,0.0
6391,63.0,0.0,120.0,4.0,0.0
6392,48.0,0.0,120.0,1.0,0.0
6393,70.0,0.0,120.0,15.0,0.0
6394,48.0,0.0,120.0,12.0,0.0
6395,48.0,0.0,120.0,3.0,0.0
6396,48.0,0.0,120.0,7.0,0.0
6397,70.0,0.0,120.0,5.0,0.0
6398,66.0,0.0,120.0,15.0,0.0
6399,63.0,0.0,120.0,0.0,0.0
6400,70.0,0.0,120.0,11.0,0.0
6401,48.0,0.0,120.0,6.0,0.0
6402,63.0,120.0,120.0,10.0,0.0
6403,70.0,0.0,120.0,0.0,0.0
6404,48.0,0.0,120.0,15.0,0.0
6405,63.0,0.0,120.0,15.0,0.0
6406,65.0,0.0,120.0,15.0,0.0
6407,50.0,0.0,120.0,3.0,0.0
6408,50.0,0.0,120.0,1.0,0.0
6409,68.0,0.0,120.0,3.0,0.0
6410,65.0,0.0,120.0,10.0,0.0
6411,50.0,60.0,120.0,7.0,0.0
6412,68.0,0.0,120.0,11.0,0.0
6413,50.0,0.0,120.0,6.0,0.0
6414,68.0,0.0,120.0,15.0,0.0
6415,50.0,0.0,120.0,15.0,0.0
6416,68.0,0.0,120.0,5.0,0.0
6417,50.0,0.0,120.0,12.0,0.0
6418,68.0,0.0,120.0,0.0,0.0
6419,65.0,0.0,120.0,0.0,0.0
6420,60.0,0.0,120.0,15.0,0.0
6421,65.0,0.0,120.0,4.0,0.0
6422,66.0,0.0,60.0,3.0,0.0
6423,51.0,60.0,60.0,6.0,0.0
6424,51.0,0.0,60.0,3.0,0.0
6425,51.0,0.0,60.0,1.0,0.0
6426,58.0,0.0,240.0,4.0,0.0
6427,58.0,0.0,240.0,0.0,0.0
6428,66.0,0.0,240.0,15.0,0.0
6429,66.0,0.0,60.0,0.0,0.0
6430,66.0,0.0,60.0,5.0,0.0
6431,51.0,0.0,60.0,12.0,0.0
6432,51.0,0.0,120.0,7.0,0.0
6433,51.0,60.0,120.0,15.0,0.0
6434,58.0,0.0,240.0,10.0,0.0
6435,58.0,0.0,240.0,15.0,0.0
6436,66.0,0.0,60.0,11.0,0.0
6437,65.0,0.0,60.0,5.0,0.0
6438,53.0,0.0,60.0,1.0,0.0
6439,53.0,0.0,60.0,3.0,0.0
6440,53.0,0.0,60.0,6.0,0.0
6441,53.0,0.0,60.0,12.0,0.0
6442,65.0,0.0,60.0,3.0,0.0
6443,65.0,0.0,60.0,11.0,0.0
6444,65.0,0.0,60.0,0.0,0.0
6445,54.0,0.0,240.0,12.0,0.0
6446,63.0,0.0,180.0,11.0,0.0
6447,54.0,0.0,240.0,1.0,0.0
6448,54.0,0.0,240.0,3.0,0.0
6449,51.0,0.0,60.0,1.0,0.0
6450,51.0,0.0,60.0,15.0,0.0
6451,51.0,60.0,60.0,13.0,0.0
6452,63.0,60.0,180.0,3.0,0.0
6453,51.0,0.0,60.0,3.0,0.0
6454,54.0,0.0,240.0,6.0,0.0
6455,63.0,0.0,180.0,5.0,0.0
6456,63.0,0.0,180.0,0.0,0.0
6457,39.0,0.0,60.0,8.0,0.0
6458,37.0,0.0,60.0,8.0,0.0
6459,49.0,60.0,60.0,15.0,0.0
6460,49.0,0.0,60.0,13.0,0.0
6461,49.0,0.0,60.0,1.0,0.0
6462,49.0,0.0,60.0,3.0,0.0
6463,48.0,0.0,120.0,3.0,0.0
6464,48.0,0.0,120.0,1.0,0.0
6465,48.0,0.0,120.0,15.0,0.0
6466,66.0,0.0,120.0,15.0,0.0
6467,63.0,0.0,120.0,15.0,0.0
6468,36.0,0.0,120.0,8.0,0.0
6469,48.0,0.0,120.0,13.0,0.0
6470,65.0,0.0,60.0,11.0,0.0
6471,65.0,60.0,60.0,3.0,0.0
6472,65.0,0.0,60.0,5.0,0.0
6473,65.0,0.0,60.0,0.0,0.0
6474,34.0,120.0,120.0,8.0,0.0
6475,67.0,0.0,120.0,15.0,0.0
6476,46.0,0.0,120.0,3.0,0.0
6477,46.0,0.0,120.0,13.0,0.0
6478,61.0,0.0,60.0,0.0,0.0
6479,55.0,0.0,120.0,3.0,0.0
6480,61.0,0.0,60.0,3.0,0.0
6481,61.0,0.0,120.0,15.0,0.0
6482,55.0,0.0,120.0,6.0,0.0
6483,61.0,60.0,60.0,5.0,0.0
6484,46.0,0.0,120.0,1.0,0.0
6485,61.0,0.0,60.0,11.0,0.0
6486,46.0,0.0,120.0,15.0,0.0
6487,55.0,0.0,120.0,1.0,0.0
6488,55.0,0.0,120.0,12.0,0.0
6489,63.0,0.0,60.0,5.0,0.0
6490,63.0,0.0,60.0,11.0,0.0
6491,63.0,0.0,60.0,0.0,0.0
6492,63.0,0.0,60.0,3.0,0.0
6493,68.0,0.0,480.0,10.0,0.0
6494,56.0,120.0,120.0,3.0,0.0
6495,60.0,0.0,240.0,11.0,0.0
6496,56.0,0.0,120.0,12.0,0.0
6497,56.0,0.0,120.0,1.0,0.0
6498,60.0,0.0,240.0,3.0,0.0
6499,44.0,0.0,240.0,13.0,0.0
6500,68.0,0.0,480.0,0.0,0.0
6501,60.0,0.0,240.0,0.0,0.0
6502,44.0,0.0,240.0,3.0,0.0
6503,56.0,0.0,120.0,6.0,0.0
6504,60.0,0.0,240.0,5.0,0.0
6505,68.0,0.0,480.0,4.0,0.0
6506,63.0,0.0,240.0,15.0,0.0
6507,68.0,0.0,120.0,15.0,0.0
6508,60.0,0.0,240.0,15.0,0.0
6509,44.0,0.0,240.0,15.0,0.0
6510,44.0,0.0,240.0,1.0,0.0
6511,32.0,0.0,240.0,8.0,0.0
6512,54.0,0.0,120.0,1.0,0.0
6513,54.0,0.0,120.0,3.0,0.0
6514,54.0,120.0,120.0,6.0,0.0
6515,54.0,0.0,120.0,12.0,0.0
6516,66.0,0.0,120.0,15.0,0.0
6517,68.0,0.0,120.0,15.0,0.0
6518,53.0,0.0,120.0,12.0,0.0
6519,61.0,0.0,120.0,15.0,0.0
6520,61.0,0.0,120.0,3.0,0.0
6521,65.0,0.0,120.0,15.0,0.0
6522,46.0,0.0,120.0,1.0,0.0
6523,53.0,0.0,120.0,1.0,0.0
6524,46.0,120.0,120.0,15.0,0.0
6525,46.0,0.0,120.0,3.0,0.0
6526,34.0,0.0,120.0,8.0,0.0
6527,61.0,0.0,120.0,11.0,0.0
6528,53.0,0.0,120.0,3.0,0.0
6529,61.0,0.0,120.0,5.0,0.0
6530,61.0,0.0,120.0,0.0,0.0
6531,53.0,0.0,120.0,6.0,0.0
6532,46.0,0.0,120.0,13.0,0.0
6533,48.0,0.0,120.0,15.0,0.0
6534,68.0,0.0,120.0,15.0,0.0
6535,63.0,0.0,120.0,15.0,0.0
6536,51.0,0.0,120.0,1.0,0.0
6537,48.0,0.0,120.0,1.0,0.0
6538,63.0,0.0,120.0,0.0,0.0
6539,36.0,0.0,120.0,8.0,0.0
6540,66.0,0.0,120.0,15.0,0.0
6541,63.0,0.0,120.0,3.0,0.0
6542,63.0,0.0,120.0,5.0,0.0
6543,51.0,0.0,120.0,6.0,0.0
6544,63.0,60.0,120.0,11.0,0.0
6545,51.0,0.0,120.0,3.0,0.0
6546,51.0,0.0,120.0,12.0,0.0
6547,48.0,0.0,120.0,13.0,0.0
6548,48.0,0.0,120.0,3.0,0.0
6549,49.0,0.0,120.0,15.0,0.0
6550,65.0,0.0,120.0,15.0,0.0
6551,61.0,0.0,120.0,15.0,0.0
6552,68.0,60.0,120.0,15.0,0.0
6553,53.0,0.0,60.0,1.0,0.0
6554,56.0,0.0,240.0,3.0,0.0
6555,65.0,0.0,240.0,4.0,0.0
6556,49.0,0.0,240.0,13.0,0.0
6557,65.0,0.0,240.0,0.0,0.0
6558,56.0,0.0,240.0,0.0,0.0
6559,37.0,0.0,120.0,8.0,0.0
6560,65.0,0.0,240.0,10.0,0.0
6561,53.0,0.0,60.0,6.0,0.0
6562,53.0,60.0,60.0,12.0,0.0
6563,56.0,0.0,240.0,11.0,0.0
6564,53.0,0.0,60.0,3.0,0.0
6565,56.0,0.0,240.0,5.0,0.0
6566,49.0,0.0,60.0,6.0,0.0
6567,49.0,0.0,60.0,12.0,0.0
6568,49.0,0.0,60.0,3.0,0.0
6569,49.0,0.0,60.0,1.0,0.0
6570,51.0,0.0,60.0,3.0,0.0
6571,51.0,0.0,60.0,15.0,0.0
6572,51.0,0.0,60.0,7.0,0.0
6573,58.0,0.0,120.0,15.0,0.0
6574,66.0,0.0,120.0,15.0,0.0
6575,51.0,0.0,60.0,1.0,0.0
6576,63.0,0.0,120.0,15.0,0.0
6577,51.0,60.0,60.0,6.0,0.0
6578,51.0,0.0,60.0,12.0,0.0
6579,53.0,0.0,60.0,6.0,0.0
6580,53.0,0.0,60.0,7.0,0.0
6581,53.0,0.0,60.0,12.0,0.0
6582,53.0,0.0,60.0,1.0,0.0
6583,53.0,0.0,60.0,15.0,0.0
6584,53.0,0.0,60.0,3.0,0.0
6585,70.0,0.0,240.0,0.0,0.0
6586,70.0,0.0,240.0,4.0,0.0
6587,63.0,0.0,240.0,15.0,0.0
6588,54.0,0.0,60.0,15.0,0.0
6589,70.0,0.0,240.0,15.0,0.0
6590,61.0,0.0,240.0,15.0,0.0
6591,54.0,0.0,60.0,3.0,0.0
6592,54.0,0.0,60.0,12.0,0.0
6593,70.0,0.0,240.0,10.0,0.0
6594,54.0,0.0,60.0,7.0,0.0
6595,54.0,0.0,60.0,1.0,0.0
6596,54.0,60.0,60.0,6.0,0.0
6597,51.0,0.0,60.0,6.0,0.0
6598,51.0,0.0,60.0,1.0,0.0
6599,51.0,0.0,60.0,3.0,0.0
6600,51.0,60.0,60.0,7.0,0.0
6601,51.0,0.0,60.0,15.0,0.0
6602,51.0,0.0,60.0,12.0,0.0
6603,53.0,60.0,60.0,12.0,0.0
6604,53.0,0.0,60.0,15.0,0.0
6605,53.0,0.0,60.0,6.0,0.0
6606,53.0,0.0,60.0,3.0,0.0
6607,53.0,0.0,60.0,1.0,0.0
6608,53.0,0.0,60.0,7.0,0.0
6609,54.0,120.0,60.0,3.0,0.0
6610,54.0,0.0,60.0,7.0,0.0
6611,54.0,0.0,60.0,12.0,0.0
6612,54.0,0.0,60.0,1.0,0.0
6613,54.0,0.0,60.0,6.0,0.0
6614,54.0,0.0,60.0,15.0,0.0
6615,56.0,0.0,120.0,15.0,0.0
6616,68.0,0.0,120.0,15.0,0.0
6617,60.0,0.0,120.0,15.0,0.0
6618,60.0,0.0,480.0,0.0,0.0
6619,63.0,0.0,120.0,15.0,0.0
6620,56.0,60.0,120.0,7.0,0.0
6621,60.0,0.0,480.0,4.0,0.0
6622,56.0,0.0,120.0,6.0,0.0
6623,60.0,0.0,480.0,10.0,0.0
6624,56.0,0.0,120.0,3.0,0.0
6625,56.0,0.0,120.0,1.0,0.0
6626,56.0,0.0,120.0,12.0,0.0
6627,56.0,0.0,120.0,0.0,0.0
6628,56.0,0.0,120.0,11.0,0.0
6629,32.0,0.0,120.0,8.0,0.0
6630,56.0,0.0,240.0,15.0,0.0
6631,63.0,0.0,240.0,15.0,0.0
6632,44.0,60.0,60.0,15.0,0.0
6633,60.0,0.0,240.0,15.0,0.0
6634,51.0,0.0,120.0,6.0,0.0
6635,51.0,0.0,120.0,12.0,0.0
6636,44.0,0.0,120.0,1.0,0.0
6637,51.0,0.0,120.0,1.0,0.0
6638,56.0,0.0,120.0,5.0,0.0
6639,44.0,0.0,120.0,3.0,0.0
6640,44.0,0.0,120.0,13.0,0.0
6641,56.0,60.0,120.0,3.0,0.0
6642,51.0,0.0,120.0,3.0,0.0
6643,56.0,0.0,120.0,0.0,0.0
6644,32.0,0.0,120.0,8.0,0.0
6645,56.0,0.0,120.0,3.0,0.0
6646,56.0,0.0,360.0,12.0,0.0
6647,56.0,60.0,120.0,11.0,0.0
6648,44.0,60.0,60.0,15.0,0.0
6649,56.0,60.0,360.0,6.0,0.0
6650,44.0,0.0,120.0,13.0,0.0
6651,56.0,0.0,120.0,5.0,0.0
6652,44.0,0.0,120.0,1.0,0.0
6653,44.0,0.0,120.0,3.0,0.0
6654,56.0,0.0,360.0,1.0,0.0
6655,44.0,0.0,120.0,3.0,0.0
6656,63.0,0.0,120.0,15.0,0.0
6657,54.0,0.0,120.0,3.0,0.0
6658,54.0,0.0,120.0,0.0,0.0
6659,54.0,0.0,120.0,15.0,0.0
6660,32.0,60.0,120.0,8.0,0.0
6661,44.0,0.0,120.0,13.0,0.0
6662,54.0,0.0,120.0,5.0,0.0
6663,60.0,0.0,120.0,15.0,0.0
6664,44.0,60.0,60.0,15.0,0.0
6665,44.0,0.0,120.0,1.0,0.0
6666,54.0,0.0,120.0,11.0,0.0
6667,53.0,0.0,120.0,15.0,0.0
6668,46.0,0.0,60.0,15.0,0.0
6669,34.0,0.0,60.0,8.0,0.0
6670,65.0,0.0,120.0,15.0,0.0
6671,53.0,0.0,120.0,3.0,0.0
6672,61.0,0.0,120.0,15.0,0.0
6673,53.0,0.0,120.0,0.0,0.0
6674,53.0,0.0,120.0,5.0,0.0
6675,61.0,0.0,240.0,4.0,0.0
6676,46.0,0.0,60.0,13.0,0.0
6677,53.0,0.0,120.0,11.0,0.0
6678,46.0,0.0,60.0,3.0,0.0
6679,61.0,0.0,240.0,10.0,0.0
6680,46.0,60.0,60.0,1.0,0.0
6681,48.0,0.0,60.0,3.0,0.0
6682,48.0,0.0,60.0,15.0,0.0
6683,48.0,0.0,60.0,1.0,0.0
6684,48.0,0.0,60.0,13.0,0.0
6685,36.0,0.0,60.0,8.0,0.0
6686,61.0,0.0,120.0,11.0,0.0
6687,54.0,0.0,60.0,12.0,0.0
6688,61.0,0.0,120.0,0.0,0.0
6689,46.0,0.0,60.0,1.0,0.0
6690,54.0,60.0,60.0,1.0,0.0
6691,54.0,0.0,60.0,3.0,0.0
6692,34.0,0.0,60.0,8.0,0.0
6693,61.0,0.0,360.0,15.0,0.0
6694,46.0,0.0,60.0,3.0,0.0
6695,54.0,0.0,60.0,6.0,0.0
6696,61.0,0.0,120.0,3.0,0.0
6697,66.0,0.0,360.0,15.0,0.0
6698,61.0,0.0,120.0,5.0,0.0
6699,46.0,0.0,60.0,15.0,0.0
6700,46.0,0.0,60.0,13.0,0.0
6701,32.0,0.0,60.0,8.0,0.0
6702,44.0,0.0,60.0,13.0,0.0
6703,44.0,60.0,60.0,15.0,0.0
6704,53.0,0.0,60.0,1.0,0.0
6705,44.0,0.0,60.0,1.0,0.0
6706,53.0,0.0,60.0,3.0,0.0
6707,53.0,0.0,60.0,6.0,0.0
6708,53.0,0.0,60.0,12.0,0.0
6709,44.0,0.0,60.0,3.0,0.0
6710,46.0,0.0,60.0,1.0,0.0
6711,58.0,0.0,120.0,5.0,0.0
6712,46.0,0.0,60.0,15.0,0.0
6713,54.0,0.0,60.0,1.0,0.0
6714,46.0,0.0,60.0,13.0,0.0
6715,58.0,0.0,120.0,11.0,0.0
6716,54.0,0.0,60.0,6.0,0.0
6717,46.0,60.0,60.0,3.0,0.0
6718,58.0,0.0,120.0,3.0,0.0
6719,54.0,0.0,60.0,12.0,0.0
6720,61.0,0.0,120.0,4.0,0.0
6721,58.0,0.0,120.0,0.0,0.0
6722,61.0,0.0,120.0,0.0,0.0
6723,61.0,0.0,120.0,10.0,0.0
6724,54.0,0.0,60.0,3.0,0.0
6725,34.0,0.0,60.0,8.0,0.0
6726,48.0,60.0,60.0,3.0,0.0
6727,56.0,0.0,60.0,12.0,0.0
6728,56.0,0.0,60.0,6.0,0.0
6729,56.0,0.0,60.0,3.0,0.0
6730,56.0,0.0,60.0,1.0,0.0
6731,48.0,0.0,60.0,15.0,0.0
6732,48.0,0.0,60.0,13.0,0.0
6733,36.0,0.0,60.0,8.0,0.0
6734,48.0,0.0,60.0,1.0,0.0
6735,61.0,0.0,120.0,4.0,0.0
6736,44.0,0.0,60.0,15.0,0.0
6737,53.0,0.0,60.0,6.0,0.0
6738,54.0,0.0,120.0,11.0,0.0
6739,44.0,0.0,60.0,13.0,0.0
6740,54.0,0.0,120.0,5.0,0.0
6741,61.0,0.0,120.0,10.0,0.0
6742,53.0,60.0,60.0,3.0,0.0
6743,61.0,0.0,120.0,0.0,0.0
6744,32.0,0.0,60.0,8.0,0.0
6745,44.0,0.0,60.0,3.0,0.0
6746,44.0,0.0,60.0,1.0,0.0
6747,53.0,0.0,60.0,12.0,0.0
6748,53.0,0.0,60.0,1.0,0.0
6749,54.0,0.0,120.0,0.0,0.0
6750,46.0,0.0,60.0,15.0,0.0
6751,46.0,0.0,60.0,3.0,0.0
6752,34.0,0.0,60.0,8.0,0.0
6753,46.0,0.0,60.0,13.0,0.0
6754,54.0,0.0,60.0,12.0,0.0
6755,46.0,0.0,60.0,1.0,0.0
6756,54.0,60.0,60.0,6.0,0.0
6757,54.0,0.0,60.0,1.0,0.0
6758,54.0,0.0,60.0,3.0,0.0
6759,36.0,0.0,60.0,8.0,0.0
6760,48.0,0.0,60.0,3.0,0.0
6761,51.0,0.0,120.0,12.0,0.0
6762,66.0,0.0,480.0,15.0,0.0
6763,48.0,0.0,60.0,15.0,0.0
6764,48.0,60.0,60.0,13.0,0.0
6765,63.0,0.0,360.0,10.0,0.0
6766,51.0,0.0,120.0,6.0,0.0
6767,51.0,0.0,120.0,1.0,0.0
6768,48.0,0.0,60.0,1.0,0.0
6769,56.0,0.0,480.0,15.0,0.0
6770,63.0,0.0,480.0,15.0,0.0
6771,51.0,60.0,120.0,3.0,0.0
6772,63.0,0.0,360.0,4.0,0.0
6773,37.0,0.0,60.0,8.0,0.0
6774,49.0,0.0,60.0,1.0,0.0
6775,49.0,0.0,60.0,13.0,0.0
6776,49.0,0.0,60.0,3.0,0.0
6777,49.0,0.0,60.0,15.0,0.0
6778,63.0,0.0,120.0,5.0,0.0
6779,63.0,0.0,120.0,3.0,0.0
6780,63.0,0.0,120.0,0.0,0.0
6781,63.0,0.0,120.0,11.0,0.0
6782,48.0,0.0,60.0,15.0,0.0
6783,48.0,0.0,60.0,13.0,0.0
6784,48.0,0.0,60.0,1.0,0.0
6785,48.0,0.0,60.0,3.0,0.0
6786,53.0,0.0,60.0,3.0,0.0
6787,53.0,60.0,60.0,1.0,0.0
6788,36.0,0.0,60.0,8.0,0.0
6789,53.0,0.0,60.0,12.0,0.0
6790,53.0,0.0,60.0,6.0,0.0
6791,46.0,0.0,60.0,15.0,0.0
6792,54.0,0.0,60.0,6.0,0.0
6793,54.0,0.0,60.0,3.0,0.0
6794,46.0,0.0,60.0,3.0,0.0
6795,46.0,0.0,60.0,1.0,0.0
6796,46.0,0.0,60.0,13.0,0.0
6797,54.0,0.0,60.0,1.0,0.0
6798,54.0,0.0,60.0,12.0,0.0
6799,34.0,60.0,60.0,8.0,0.0
6800,56.0,0.0,240.0,12.0,0.0
6801,60.0,0.0,120.0,0.0,0.0
6802,48.0,0.0,60.0,1.0,0.0
6803,48.0,0.0,60.0,15.0,0.0
6804,36.0,0.0,60.0,8.0,0.0
6805,56.0,0.0,240.0,1.0,0.0
6806,48.0,0.0,60.0,3.0,0.0
6807,60.0,0.0,120.0,3.0,0.0
6808,60.0,0.0,120.0,5.0,0.0
6809,60.0,0.0,120.0,11.0,0.0
6810,48.0,60.0,60.0,13.0,0.0
6811,56.0,0.0,240.0,6.0,0.0
6812,49.0,60.0,60.0,1.0,0.0
6813,49.0,0.0,60.0,15.0,0.0
6814,49.0,0.0,60.0,3.0,0.0
6815,37.0,0.0,60.0,8.0,0.0
6816,49.0,0.0,60.0,13.0,0.0
6817,56.0,0.0,120.0,5.0,0.0
6818,46.0,0.0,60.0,13.0,0.0
6819,46.0,0.0,60.0,1.0,0.0
6820,46.0,0.0,60.0,3.0,0.0
6821,56.0,0.0,120.0,3.0,0.0
6822,46.0,0.0,60.0,15.0,0.0
6823,61.0,0.0,60.0,0.0,0.0
6824,56.0,0.0,120.0,0.0,0.0
6825,34.0,0.0,60.0,8.0,0.0
6826,56.0,120.0,120.0,11.0,0.0
6827,61.0,0.0,60.0,4.0,0.0
6828,61.0,60.0,60.0,10.0,0.0
6829,63.0,0.0,60.0,10.0,0.0
6830,48.0,0.0,60.0,15.0,0.0
6831,63.0,0.0,60.0,4.0,0.0
6832,48.0,0.0,60.0,3.0,0.0
6833,48.0,0.0,60.0,1.0,0.0
6834,36.0,0.0,60.0,8.0,0.0
6835,63.0,0.0,60.0,0.0,0.0
6836,48.0,0.0,60.0,13.0,0.0
6837,68.0,0.0,120.0,15.0,0.0
6838,37.0,0.0,120.0,8.0,0.0
6839,49.0,60.0,120.0,1.0,0.0
6840,61.0,0.0,120.0,15.0,0.0
6841,65.0,0.0,120.0,10.0,0.0
6842,49.0,0.0,120.0,13.0,0.0
6843,65.0,0.0,120.0,0.0,0.0
6844,65.0,0.0,120.0,15.0,0.0
6845,49.0,0.0,120.0,15.0,0.0
6846,49.0,0.0,120.0,3.0,0.0
6847,65.0,0.0,120.0,4.0,0.0
6848,60.0,0.0,60.0,15.0,0.0
6849,60.0,0.0,60.0,0.0,0.0
6850,63.0,0.0,60.0,0.0,0.0
6851,51.0,0.0,60.0,1.0,0.0
6852,60.0,0.0,60.0,11.0,0.0
6853,63.0,0.0,60.0,4.0,0.0
6854,66.0,0.0,60.0,15.0,0.0
6855,60.0,0.0,60.0,5.0,0.0
6856,39.0,0.0,60.0,8.0,0.0
6857,63.0,0.0,60.0,10.0,0.0
6858,51.0,0.0,60.0,13.0,0.0
6859,51.0,0.0,60.0,15.0,0.0
6860,51.0,60.0,60.0,3.0,0.0
6861,60.0,0.0,60.0,3.0,0.0
6862,68.0,0.0,60.0,15.0,0.0
6863,65.0,0.0,60.0,10.0,0.0
6864,65.0,0.0,60.0,0.0,0.0
6865,61.0,0.0,60.0,0.0,0.0
6866,49.0,0.0,60.0,1.0,0.0
6867,61.0,60.0,60.0,5.0,0.0
6868,49.0,0.0,60.0,3.0,0.0
6869,65.0,0.0,60.0,15.0,0.0
6870,49.0,0.0,60.0,13.0,0.0
6871,61.0,0.0,60.0,3.0,0.0
6872,37.0,0.0,60.0,8.0,0.0
6873,61.0,0.0,60.0,11.0,0.0
6874,49.0,0.0,60.0,15.0,0.0
6875,65.0,0.0,60.0,4.0,0.0
6876,66.0,0.0,120.0,10.0,0.0
6877,63.0,0.0,120.0,3.0,0.0
6878,48.0,0.0,60.0,1.0,0.0
6879,36.0,0.0,60.0,8.0,0.0
6880,68.0,0.0,240.0,15.0,0.0
6881,66.0,0.0,240.0,15.0,0.0
6882,48.0,60.0,60.0,3.0,0.0
6883,63.0,0.0,120.0,11.0,0.0
6884,48.0,0.0,60.0,15.0,0.0
6885,48.0,0.0,60.0,13.0,0.0
6886,63.0,60.0,120.0,0.0,0.0
6887,66.0,0.0,120.0,0.0,0.0
6888,66.0,0.0,120.0,4.0,0.0
6889,63.0,0.0,240.0,15.0,0.0
6890,63.0,0.0,120.0,5.0,0.0
6891,34.0,0.0,60.0,8.0,0.0
6892,46.0,0.0,60.0,1.0,0.0
6893,46.0,0.0,60.0,3.0,0.0
6894,46.0,0.0,60.0,15.0,0.0
6895,46.0,0.0,60.0,13.0,0.0
6896,65.0,60.0,60.0,0.0,0.0
6897,44.0,0.0,60.0,15.0,0.0
6898,44.0,0.0,60.0,13.0,0.0
6899,61.0,0.0,60.0,5.0,0.0
6900,65.0,0.0,60.0,10.0,0.0
6901,32.0,0.0,60.0,8.0,0.0
6902,61.0,0.0,60.0,0.0,0.0
6903,65.0,0.0,60.0,4.0,0.0
6904,44.0,0.0,60.0,1.0,0.0
6905,61.0,0.0,60.0,3.0,0.0
6906,44.0,0.0,60.0,3.0,0.0
6907,61.0,0.0,60.0,11.0,0.0
6908,42.0,0.0,60.0,13.0,0.0
6909,66.0,0.0,60.0,0.0,0.0
6910,63.0,0.0,60.0,3.0,0.0
6911,30.0,0.0,60.0,8.0,0.0
6912,66.0,0.0,60.0,4.0,0.0
6913,42.0,0.0,60.0,15.0,0.0
6914,63.0,0.0,60.0,0.0,0.0
6915,63.0,0.0,60.0,5.0,0.0
6916,42.0,0.0,60.0,1.0,0.0
6917,63.0,0.0,60.0,11.0,0.0
6918,66.0,120.0,60.0,10.0,0.0
6919,42.0,0.0,60.0,3.0,0.0
6920,65.0,0.0,120.0,11.0,0.0
6921,41.0,120.0,120.0,3.0,0.0
6922,68.0,0.0,120.0,0.0,0.0
6923,68.0,0.0,120.0,4.0,0.0
6924,41.0,0.0,120.0,13.0,0.0
6925,68.0,0.0,120.0,10.0,0.0
6926,68.0,0.0,120.0,15.0,0.0
6927,29.0,0.0,120.0,8.0,0.0
6928,65.0,0.0,120.0,3.0,0.0
6929,65.0,0.0,120.0,5.0,0.0
6930,65.0,0.0,120.0,0.0,0.0
6931,41.0,0.0,120.0,1.0,0.0
6932,61.0,0.0,120.0,15.0,0.0
6933,41.0,0.0,120.0,15.0,0.0
6934,66.0,0.0,120.0,15.0,0.0
6935,32.0,0.0,120.0,8.0,0.0
6936,44.0,0.0,120.0,13.0,0.0
6937,63.0,0.0,120.0,15.0,0.0
6938,60.0,0.0,120.0,3.0,0.0
6939,66.0,0.0,120.0,4.0,0.0
6940,44.0,0.0,120.0,15.0,0.0
6941,44.0,0.0,120.0,3.0,0.0
6942,60.0,0.0,120.0,15.0,0.0
6943,66.0,0.0,120.0,10.0,0.0
6944,66.0,0.0,120.0,0.0,0.0
6945,60.0,0.0,120.0,0.0,0.0
6946,44.0,0.0,120.0,1.0,0.0
6947,60.0,120.0,120.0,5.0,0.0
6948,60.0,0.0,120.0,11.0,0.0
6949,61.0,0.0,120.0,0.0,0.0
6950,68.0,0.0,120.0,15.0,0.0
6951,49.0,0.0,120.0,1.0,0.0
6952,65.0,0.0,120.0,15.0,0.0
6953,65.0,0.0,120.0,10.0,0.0
6954,37.0,0.0,120.0,8.0,0.0
6955,61.0,0.0,120.0,11.0,0.0
6956,49.0,0.0,120.0,15.0,0.0
6957,61.0,0.0,120.0,5.0,0.0
6958,61.0,0.0,120.0,3.0,0.0
6959,65.0,0.0,120.0,4.0,0.0
6960,65.0,0.0,120.0,0.0,0.0
6961,49.0,0.0,120.0,3.0,0.0
6962,49.0,120.0,120.0,13.0,0.0
6963,57.0,0.0,120.0,11.0,0.0
6964,57.0,0.0,120.0,0.0,0.0
6965,63.0,0.0,120.0,0.0,0.0
6966,63.0,0.0,120.0,4.0,0.0
6967,35.0,0.0,120.0,8.0,0.0
6968,57.0,0.0,120.0,5.0,0.0
6969,47.0,0.0,120.0,1.0,0.0
6970,47.0,0.0,120.0,3.0,0.0
6971,63.0,0.0,120.0,10.0,0.0
6972,57.0,0.0,120.0,3.0,0.0
6973,47.0,0.0,120.0,13.0,0.0
6974,57.0,0.0,120.0,15.0,0.0
6975,63.0,120.0,120.0,15.0,0.0
6976,47.0,0.0,120.0,15.0,0.0
6977,46.0,0.0,120.0,1.0,0.0
6978,58.0,0.0,480.0,1.0,0.0
6979,46.0,0.0,240.0,14.0,0.0
6980,46.0,0.0,120.0,13.0,0.0
6981,62.0,0.0,240.0,0.0,0.0
6982,58.0,0.0,240.0,0.0,0.0
6983,62.0,0.0,240.0,4.0,0.0
6984,58.0,0.0,480.0,12.0,0.0
6985,62.0,0.0,240.0,10.0,0.0
6986,58.0,0.0,240.0,5.0,0.0
6987,46.0,0.0,120.0,3.0,0.0
6988,58.0,0.0,240.0,2.0,0.0
6989,46.0,0.0,120.0,15.0,0.0
6990,58.0,0.0,480.0,6.0,0.0
6991,34.0,120.0,120.0,8.0,0.0
6992,58.0,0.0,240.0,3.0,0.0
6993,62.0,0.0,120.0,15.0,0.0
6994,65.0,0.0,120.0,15.0,0.0
6995,58.0,120.0,240.0,11.0,0.0
6996,56.0,0.0,240.0,1.0,0.0
6997,58.0,0.0,120.0,15.0,0.0
6998,56.0,0.0,240.0,13.0,0.0
6999,56.0,0.0,240.0,15.0,0.0
7000,61.0,0.0,120.0,15.0,0.0
7001,56.0,60.0,240.0,3.0,0.0
7002,44.0,0.0,240.0,8.0,0.0
7003,63.0,0.0,120.0,0.0,0.0
7004,60.0,0.0,120.0,11.0,0.0
7005,63.0,0.0,120.0,15.0,0.0
7006,60.0,0.0,120.0,15.0,0.0
7007,63.0,0.0,120.0,4.0,0.0
7008,63.0,0.0,120.0,10.0,0.0
7009,60.0,0.0,120.0,5.0,0.0
7010,60.0,0.0,120.0,3.0,0.0
7011,58.0,0.0,120.0,2.0,0.0
7012,60.0,0.0,120.0,0.0,0.0
7013,42.0,60.0,60.0,8.0,0.0
7014,62.0,0.0,120.0,11.0,0.0
7015,65.0,60.0,120.0,4.0,0.0
7016,58.0,0.0,120.0,2.0,0.0
7017,54.0,0.0,60.0,15.0,0.0
7018,62.0,0.0,120.0,5.0,0.0
7019,60.0,0.0,120.0,15.0,0.0
7020,54.0,0.0,60.0,1.0,0.0
7021,54.0,0.0,60.0,13.0,0.0
7022,62.0,0.0,120.0,3.0,0.0
7023,62.0,0.0,120.0,0.0,0.0
7024,65.0,0.0,120.0,10.0,0.0
7025,65.0,0.0,120.0,0.0,0.0
7026,64.0,0.0,120.0,15.0,0.0
7027,54.0,0.0,60.0,3.0,0.0
7028,53.0,0.0,60.0,1.0,0.0
7029,53.0,0.0,60.0,3.0,0.0
7030,41.0,0.0,60.0,8.0,0.0
7031,53.0,0.0,60.0,13.0,0.0
7032,53.0,0.0,60.0,15.0,0.0
7033,51.0,0.0,60.0,1.0,0.0
7034,58.0,0.0,240.0,15.0,0.0
7035,66.0,0.0,240.0,15.0,0.0
7036,51.0,0.0,60.0,15.0,0.0
7037,54.0,0.0,240.0,3.0,0.0
7038,51.0,0.0,60.0,13.0,0.0
7039,63.0,0.0,240.0,3.0,0.0
7040,66.0,0.0,240.0,10.0,0.0
7041,54.0,60.0,240.0,12.0,0.0
7042,66.0,0.0,240.0,4.0,0.0
7043,66.0,0.0,240.0,0.0,0.0
7044,63.0,0.0,240.0,0.0,0.0
7045,51.0,0.0,60.0,3.0,0.0
7046,39.0,60.0,60.0,8.0,0.0
7047,63.0,0.0,240.0,5.0,0.0
7048,54.0,0.0,240.0,6.0,0.0
7049,54.0,0.0,240.0,1.0,0.0
7050,58.0,0.0,240.0,2.0,0.0
7051,63.0,0.0,240.0,11.0,0.0
7052,49.0,60.0,60.0,1.0,0.0
7053,49.0,0.0,60.0,13.0,0.0
7054,49.0,0.0,60.0,3.0,0.0
7055,37.0,0.0,60.0,8.0,0.0
7056,49.0,0.0,60.0,15.0,0.0
7057,35.0,0.0,60.0,8.0,0.0
7058,47.0,60.0,60.0,15.0,0.0
7059,47.0,0.0,60.0,3.0,0.0
7060,47.0,0.0,60.0,13.0,0.0
7061,47.0,0.0,60.0,1.0,0.0
7062,34.0,0.0,60.0,8.0,0.0
7063,46.0,0.0,60.0,13.0,0.0
7064,46.0,0.0,60.0,15.0,0.0
7065,46.0,0.0,60.0,3.0,0.0
7066,46.0,0.0,60.0,1.0,0.0
7067,63.0,0.0,240.0,15.0,0.0
7068,59.0,0.0,240.0,12.0,0.0
7069,59.0,0.0,240.0,1.0,0.0
7070,44.0,0.0,60.0,3.0,0.0
7071,44.0,60.0,60.0,13.0,0.0
7072,44.0,0.0,60.0,15.0,0.0
7073,59.0,0.0,240.0,15.0,0.0
7074,59.0,0.0,240.0,3.0,0.0
7075,44.0,0.0,60.0,1.0,0.0
7076,32.0,0.0,60.0,8.0,0.0
7077,59.0,0.0,240.0,6.0,0.0
7078,46.0,0.0,60.0,1.0,0.0
7079,46.0,0.0,60.0,15.0,0.0
7080,46.0,0.0,60.0,13.0,0.0
7081,46.0,0.0,60.0,3.0,0.0
7082,34.0,60.0,60.0,8.0,0.0
7083,42.0,0.0,60.0,1.0,0.0
7084,42.0,0.0,60.0,15.0,0.0
7085,42.0,60.0,60.0,3.0,0.0
7086,42.0,0.0,60.0,13.0,0.0
7087,30.0,0.0,60.0,8.0,0.0
7088,44.0,0.0,60.0,13.0,0.0
7089,44.0,120.0,60.0,15.0,0.0
7090,32.0,0.0,60.0,8.0,0.0
7091,44.0,0.0,60.0,3.0,0.0
7092,44.0,0.0,60.0,1.0,0.0
7093,62.0,0.0,480.0,15.0,0.0
7094,50.0,0.0,480.0,12.0,0.0
7095,50.0,0.0,480.0,6.0,0.0
7096,46.0,0.0,480.0,3.0,0.0
7097,65.0,120.0,120.0,15.0,0.0
7098,50.0,0.0,480.0,3.0,0.0
7099,34.0,0.0,480.0,8.0,0.0
7100,46.0,0.0,480.0,1.0,0.0
7101,50.0,0.0,480.0,1.0,0.0
7102,46.0,0.0,480.0,13.0,0.0
7103,46.0,0.0,360.0,15.0,0.0
7104,59.0,0.0,120.0,11.0,0.0
7105,59.0,0.0,120.0,3.0,0.0
7106,59.0,0.0,120.0,5.0,0.0
7107,59.0,0.0,120.0,15.0,0.0
7108,65.0,0.0,120.0,15.0,0.0
7109,65.0,0.0,120.0,4.0,0.0
7110,65.0,0.0,120.0,0.0,0.0
7111,65.0,120.0,120.0,10.0,0.0
7112,59.0,0.0,120.0,0.0,0.0
7113,65.0,0.0,120.0,10.0,0.0
7114,58.0,0.0,120.0,5.0,0.0
7115,65.0,120.0,120.0,0.0,0.0
7116,58.0,0.0,120.0,11.0,0.0
7117,58.0,0.0,120.0,15.0,0.0
7118,65.0,0.0,120.0,15.0,0.0
7119,65.0,0.0,120.0,4.0,0.0
7120,58.0,0.0,120.0,0.0,0.0
7121,58.0,0.0,120.0,3.0,0.0
7122,65.0,0.0,120.0,10.0,0.0
7123,56.0,0.0,120.0,11.0,0.0
7124,56.0,60.0,120.0,0.0,0.0
7125,65.0,0.0,120.0,0.0,0.0
7126,65.0,0.0,120.0,4.0,0.0
7127,56.0,0.0,120.0,15.0,0.0
7128,46.0,0.0,120.0,15.0,0.0
7129,65.0,0.0,120.0,15.0,0.0
7130,56.0,0.0,120.0,3.0,0.0
7131,56.0,0.0,120.0,5.0,0.0
7132,66.0,60.0,60.0,4.0,0.0
7133,54.0,0.0,120.0,5.0,0.0
7134,27.0,0.0,240.0,8.0,0.0
7135,39.0,0.0,240.0,13.0,0.0
7136,51.0,0.0,240.0,12.0,0.0
7137,66.0,0.0,60.0,0.0,0.0
7138,54.0,0.0,120.0,3.0,0.0
7139,51.0,0.0,240.0,6.0,0.0
7140,54.0,0.0,120.0,11.0,0.0
7141,39.0,0.0,240.0,3.0,0.0
7142,51.0,0.0,240.0,1.0,0.0
7143,39.0,0.0,240.0,1.0,0.0
7144,66.0,0.0,60.0,10.0,0.0
7145,66.0,0.0,240.0,15.0,0.0
7146,54.0,0.0,120.0,0.0,0.0
7147,39.0,0.0,240.0,15.0,0.0
7148,58.0,0.0,240.0,15.0,0.0
7149,63.0,0.0,240.0,15.0,0.0
7150,68.0,60.0,60.0,4.0,0.0
7151,68.0,0.0,60.0,0.0,0.0
7152,68.0,0.0,60.0,10.0,0.0
7153,51.0,60.0,120.0,0.0,0.0
7154,51.0,0.0,120.0,3.0,0.0
7155,51.0,0.0,120.0,5.0,0.0
7156,66.0,60.0,60.0,0.0,0.0
7157,51.0,0.0,120.0,11.0,0.0
7158,66.0,0.0,60.0,10.0,0.0
7159,66.0,0.0,60.0,4.0,0.0
7160,65.0,0.0,60.0,4.0,0.0
7161,65.0,0.0,60.0,10.0,0.0
7162,65.0,0.0,60.0,0.0,0.0
7163,66.0,60.0,60.0,0.0,0.0
7164,66.0,0.0,60.0,10.0,0.0
7165,59.0,0.0,360.0,0.0,0.0
7166,59.0,0.0,360.0,11.0,0.0
7167,66.0,0.0,60.0,4.0,0.0
7168,59.0,0.0,360.0,5.0,0.0
7169,59.0,0.0,360.0,3.0,0.0
7170,51.0,60.0,120.0,3.0,0.0
7171,51.0,0.0,120.0,12.0,0.0
7172,51.0,0.0,120.0,7.0,0.0
7173,51.0,0.0,120.0,1.0,0.0
7174,51.0,0.0,120.0,6.0,0.0
7175,68.0,0.0,60.0,4.0,0.0
7176,68.0,0.0,60.0,10.0,0.0
7177,68.0,0.0,60.0,0.0,0.0
7178,60.0,0.0,120.0,15.0,0.0
7179,51.0,0.0,120.0,12.0,0.0
7180,51.0,0.0,120.0,15.0,0.0
7181,66.0,0.0,120.0,15.0,0.0
7182,65.0,60.0,60.0,4.0,0.0
7183,51.0,0.0,120.0,1.0,0.0
7184,51.0,0.0,120.0,3.0,0.0
7185,51.0,0.0,120.0,6.0,0.0
7186,51.0,0.0,120.0,7.0,0.0
7187,65.0,0.0,60.0,10.0,0.0
7188,65.0,0.0,60.0,0.0,0.0
7189,66.0,0.0,60.0,10.0,0.0
7190,66.0,60.0,60.0,0.0,0.0
7191,66.0,0.0,60.0,4.0,0.0
7192,53.0,0.0,360.0,12.0,0.0
7193,61.0,0.0,360.0,15.0,0.0
7194,53.0,0.0,360.0,7.0,0.0
7195,53.0,0.0,360.0,15.0,0.0
7196,53.0,0.0,360.0,3.0,0.0
7197,53.0,0.0,360.0,6.0,0.0
7198,68.0,0.0,60.0,0.0,0.0
7199,68.0,0.0,60.0,10.0,0.0
7200,53.0,0.0,360.0,1.0,0.0
7201,68.0,0.0,360.0,15.0,0.0
7202,68.0,60.0,60.0,4.0,0.0
7203,70.0,0.0,60.0,0.0,0.0
7204,70.0,0.0,60.0,4.0,0.0
7205,70.0,60.0,60.0,10.0,0.0
7206,56.0,0.0,120.0,3.0,0.0
7207,56.0,60.0,120.0,11.0,0.0
7208,56.0,0.0,120.0,5.0,0.0
7209,68.0,60.0,60.0,10.0,0.0
7210,68.0,0.0,60.0,0.0,0.0
7211,68.0,0.0,60.0,4.0,0.0
7212,56.0,0.0,120.0,0.0,0.0
7213,66.0,0.0,60.0,0.0,0.0
7214,66.0,0.0,60.0,4.0,0.0
7215,66.0,0.0,60.0,10.0,0.0
7216,68.0,0.0,60.0,10.0,0.0
7217,61.0,0.0,480.0,3.0,0.0
7218,61.0,60.0,480.0,11.0,0.0
7219,61.0,0.0,480.0,0.0,0.0
7220,68.0,0.0,60.0,0.0,0.0
7221,61.0,0.0,480.0,5.0,0.0
7222,68.0,60.0,60.0,4.0,0.0
7223,70.0,0.0,60.0,10.0,0.0
7224,70.0,0.0,60.0,4.0,0.0
7225,70.0,60.0,60.0,0.0,0.0
7226,51.0,60.0,60.0,3.0,0.0
7227,66.0,0.0,60.0,0.0,0.0
7228,51.0,0.0,60.0,1.0,0.0
7229,51.0,0.0,60.0,7.0,0.0
7230,51.0,0.0,60.0,15.0,0.0
7231,66.0,0.0,120.0,15.0,0.0
7232,70.0,0.0,120.0,15.0,0.0
7233,51.0,0.0,60.0,12.0,0.0
7234,66.0,0.0,60.0,4.0,0.0
7235,51.0,0.0,60.0,6.0,0.0
7236,66.0,0.0,60.0,10.0,0.0
7237,68.0,120.0,60.0,10.0,0.0
7238,53.0,0.0,60.0,15.0,0.0
7239,68.0,0.0,60.0,0.0,0.0
7240,68.0,0.0,60.0,4.0,0.0
7241,53.0,0.0,60.0,7.0,0.0
7242,53.0,0.0,60.0,6.0,0.0
7243,53.0,0.0,60.0,3.0,0.0
7244,53.0,0.0,60.0,1.0,0.0
7245,53.0,0.0,60.0,12.0,0.0
7246,70.0,0.0,240.0,15.0,0.0
7247,54.0,0.0,120.0,15.0,0.0
7248,54.0,60.0,120.0,3.0,0.0
7249,54.0,0.0,120.0,6.0,0.0
7250,54.0,0.0,120.0,7.0,0.0
7251,54.0,0.0,120.0,1.0,0.0
7252,54.0,0.0,120.0,12.0,0.0
7253,61.0,0.0,240.0,15.0,0.0
7254,70.0,0.0,120.0,10.0,0.0
7255,70.0,0.0,120.0,0.0,0.0
7256,70.0,0.0,120.0,4.0,0.0
7257,71.0,0.0,60.0,0.0,0.0
7258,71.0,0.0,60.0,10.0,0.0
7259,53.0,0.0,60.0,15.0,0.0
7260,53.0,0.0,60.0,3.0,0.0
7261,53.0,0.0,60.0,6.0,0.0
7262,53.0,0.0,60.0,7.0,0.0
7263,53.0,0.0,60.0,1.0,0.0
7264,71.0,0.0,60.0,4.0,0.0
7265,53.0,60.0,60.0,12.0,0.0
7266,70.0,0.0,60.0,10.0,0.0
7267,54.0,0.0,60.0,12.0,0.0
7268,54.0,0.0,60.0,1.0,0.0
7269,54.0,0.0,60.0,6.0,0.0
7270,54.0,0.0,60.0,15.0,0.0
7271,54.0,0.0,60.0,7.0,0.0
7272,70.0,0.0,60.0,4.0,0.0
7273,70.0,0.0,60.0,0.0,0.0
7274,54.0,0.0,60.0,3.0,0.0
7275,56.0,0.0,120.0,7.0,0.0
7276,56.0,0.0,120.0,1.0,0.0
7277,59.0,0.0,240.0,11.0,0.0
7278,68.0,0.0,60.0,4.0,0.0
7279,68.0,0.0,60.0,10.0,0.0
7280,68.0,60.0,60.0,0.0,0.0
7281,56.0,0.0,120.0,12.0,0.0
7282,59.0,0.0,240.0,5.0,0.0
7283,63.0,120.0,240.0,15.0,0.0
7284,59.0,0.0,240.0,3.0,0.0
7285,56.0,0.0,120.0,3.0,0.0
7286,59.0,0.0,240.0,0.0,0.0
7287,59.0,0.0,240.0,15.0,0.0
7288,56.0,60.0,120.0,6.0,0.0
7289,56.0,0.0,120.0,15.0,0.0
7290,66.0,0.0,60.0,0.0,0.0
7291,66.0,0.0,60.0,10.0,0.0
7292,66.0,0.0,60.0,4.0,0.0
7293,65.0,0.0,60.0,10.0,0.0
7294,54.0,0.0,60.0,1.0,0.0
7295,54.0,0.0,60.0,6.0,0.0
7296,65.0,0.0,60.0,4.0,0.0
7297,65.0,0.0,60.0,0.0,0.0
7298,54.0,0.0,60.0,3.0,0.0
7299,54.0,0.0,60.0,15.0,0.0
7300,54.0,0.0,60.0,7.0,0.0
7301,54.0,60.0,60.0,12.0,0.0
7302,56.0,0.0,60.0,3.0,0.0
7303,63.0,0.0,60.0,4.0,0.0
7304,56.0,0.0,60.0,1.0,0.0
7305,56.0,0.0,60.0,12.0,0.0
7306,56.0,0.0,60.0,6.0,0.0
7307,63.0,0.0,60.0,0.0,0.0
7308,56.0,0.0,60.0,15.0,0.0
7309,56.0,0.0,60.0,7.0,0.0
7310,63.0,0.0,60.0,10.0,0.0
7311,58.0,0.0,120.0,0.0,0.0
7312,62.0,0.0,120.0,0.0,0.0
7313,58.0,0.0,120.0,15.0,0.0
7314,62.0,0.0,120.0,15.0,0.0
7315,65.0,0.0,120.0,15.0,0.0
7316,58.0,0.0,120.0,5.0,0.0
7317,58.0,0.0,120.0,12.0,0.0
7318,58.0,0.0,120.0,11.0,0.0
7319,58.0,0.0,120.0,1.0,0.0
7320,62.0,120.0,120.0,4.0,0.0
7321,58.0,0.0,120.0,3.0,0.0
7322,58.0,0.0,120.0,6.0,0.0
7323,58.0,0.0,120.0,7.0,0.0
7324,62.0,0.0,120.0,10.0,0.0
7325,62.0,0.0,120.0,15.0,0.0
7326,65.0,0.0,120.0,0.0,0.0
7327,56.0,0.0,120.0,1.0,0.0
7328,65.0,0.0,120.0,10.0,0.0
7329,65.0,0.0,120.0,4.0,0.0
7330,56.0,0.0,120.0,3.0,0.0
7331,62.0,0.0,120.0,5.0,0.0
7332,62.0,0.0,120.0,3.0,0.0
7333,62.0,0.0,120.0,0.0,0.0
7334,56.0,0.0,120.0,6.0,0.0
7335,56.0,120.0,120.0,7.0,0.0
7336,62.0,0.0,120.0,11.0,0.0
7337,56.0,0.0,120.0,15.0,0.0
7338,56.0,0.0,120.0,12.0,0.0
7339,58.0,0.0,120.0,15.0,0.0
7340,70.0,0.0,120.0,4.0,0.0
7341,54.0,0.0,120.0,12.0,0.0
7342,54.0,0.0,120.0,15.0,0.0
7343,70.0,0.0,120.0,15.0,0.0
7344,63.0,0.0,120.0,15.0,0.0
7345,54.0,0.0,120.0,7.0,0.0
7346,70.0,0.0,120.0,0.0,0.0
7347,54.0,0.0,120.0,6.0,0.0
7348,63.0,0.0,120.0,11.0,0.0
7349,63.0,0.0,120.0,3.0,0.0
7350,63.0,0.0,120.0,5.0,0.0
7351,54.0,0.0,120.0,3.0,0.0
7352,70.0,0.0,120.0,10.0,0.0
7353,63.0,120.0,120.0,0.0,0.0
7354,54.0,0.0,120.0,1.0,0.0
7355,53.0,0.0,120.0,6.0,0.0
7356,53.0,0.0,120.0,7.0,0.0
7357,65.0,0.0,120.0,3.0,0.0
7358,53.0,0.0,120.0,12.0,0.0
7359,62.0,0.0,120.0,15.0,0.0
7360,68.0,0.0,120.0,0.0,0.0
7361,53.0,0.0,120.0,3.0,0.0
7362,53.0,0.0,120.0,15.0,0.0
7363,65.0,0.0,120.0,11.0,0.0
7364,68.0,120.0,120.0,10.0,0.0
7365,68.0,0.0,120.0,15.0,0.0
7366,65.0,0.0,120.0,0.0,0.0
7367,53.0,0.0,120.0,1.0,0.0
7368,65.0,0.0,120.0,5.0,0.0
7369,68.0,0.0,120.0,4.0,0.0
7370,51.0,0.0,120.0,1.0,0.0
7371,51.0,0.0,120.0,12.0,0.0
7372,58.0,0.0,120.0,0.0,0.0
7373,66.0,0.0,120.0,0.0,0.0
7374,66.0,0.0,120.0,10.0,0.0
7375,66.0,0.0,120.0,15.0,0.0
7376,51.0,0.0,360.0,15.0,0.0
7377,58.0,120.0,120.0,5.0,0.0
7378,51.0,0.0,120.0,6.0,0.0
7379,58.0,0.0,120.0,15.0,0.0
7380,39.0,60.0,480.0,8.0,0.0
7381,58.0,0.0,120.0,11.0,0.0
7382,51.0,0.0,120.0,3.0,0.0
7383,58.0,0.0,120.0,3.0,0.0
7384,51.0,0.0,480.0,13.0,0.0
7385,66.0,0.0,120.0,4.0,0.0
7386,64.0,120.0,120.0,5.0,0.0
7387,67.0,0.0,120.0,4.0,0.0
7388,64.0,0.0,120.0,3.0,0.0
7389,64.0,0.0,120.0,11.0,0.0
7390,64.0,0.0,120.0,15.0,0.0
7391,67.0,0.0,120.0,15.0,0.0
7392,61.0,0.0,120.0,6.0,0.0
7393,61.0,0.0,120.0,1.0,0.0
7394,61.0,0.0,120.0,3.0,0.0
7395,61.0,0.0,120.0,12.0,0.0
7396,67.0,0.0,120.0,0.0,0.0
7397,64.0,0.0,120.0,0.0,0.0
7398,56.0,0.0,120.0,15.0,0.0
7399,67.0,0.0,120.0,10.0,0.0
7400,63.0,0.0,240.0,0.0,0.0
7401,68.0,0.0,120.0,0.0,0.0
7402,68.0,0.0,120.0,15.0,0.0
7403,63.0,0.0,240.0,5.0,0.0
7404,63.0,0.0,120.0,15.0,0.0
7405,68.0,120.0,120.0,4.0,0.0
7406,68.0,0.0,120.0,10.0,0.0
7407,59.0,0.0,120.0,3.0,0.0
7408,59.0,0.0,120.0,15.0,0.0
7409,59.0,0.0,120.0,1.0,0.0
7410,59.0,0.0,120.0,12.0,0.0
7411,63.0,0.0,240.0,11.0,0.0
7412,63.0,0.0,240.0,3.0,0.0
7413,59.0,0.0,120.0,6.0,0.0
7414,51.0,0.0,120.0,15.0,0.0
7415,55.0,0.0,120.0,1.0,0.0
7416,55.0,0.0,120.0,6.0,0.0
7417,70.0,0.0,120.0,0.0,0.0
7418,70.0,0.0,120.0,10.0,0.0
7419,55.0,0.0,120.0,3.0,0.0
7420,70.0,0.0,120.0,4.0,0.0
7421,55.0,0.0,120.0,12.0,0.0
7422,63.0,0.0,120.0,15.0,0.0
7423,55.0,0.0,120.0,15.0,0.0
7424,70.0,0.0,120.0,15.0,0.0
7425,56.0,120.0,120.0,12.0,0.0
7426,35.0,0.0,240.0,8.0,0.0
7427,71.0,0.0,60.0,10.0,0.0
7428,47.0,0.0,240.0,15.0,0.0
7429,56.0,0.0,120.0,3.0,0.0
7430,71.0,60.0,60.0,0.0,0.0
7431,47.0,0.0,240.0,3.0,0.0
7432,56.0,0.0,120.0,6.0,0.0
7433,47.0,0.0,240.0,1.0,0.0
7434,56.0,0.0,120.0,1.0,0.0
7435,68.0,0.0,240.0,15.0,0.0
7436,47.0,0.0,240.0,13.0,0.0
7437,71.0,0.0,60.0,4.0,0.0
7438,63.0,0.0,240.0,15.0,0.0
7439,70.0,0.0,60.0,4.0,0.0
7440,70.0,0.0,60.0,0.0,0.0
7441,70.0,0.0,60.0,10.0,0.0
7442,63.0,0.0,120.0,12.0,0.0
7443,68.0,60.0,120.0,10.0,0.0
7444,68.0,0.0,120.0,0.0,0.0
7445,63.0,0.0,120.0,3.0,0.0
7446,68.0,0.0,120.0,4.0,0.0
7447,63.0,0.0,120.0,6.0,0.0
7448,63.0,0.0,120.0,1.0,0.0
7449,61.0,0.0,240.0,15.0,0.0
7450,68.0,0.0,240.0,15.0,0.0
7451,52.0,0.0,240.0,15.0,0.0
7452,61.0,0.0,60.0,6.0,0.0
7453,52.0,0.0,240.0,3.0,0.0
7454,52.0,0.0,240.0,13.0,0.0
7455,61.0,0.0,60.0,1.0,0.0
7456,61.0,0.0,60.0,12.0,0.0
7457,52.0,0.0,240.0,1.0,0.0
7458,40.0,60.0,240.0,8.0,0.0
7459,61.0,60.0,60.0,3.0,0.0
7460,59.0,0.0,60.0,6.0,0.0
7461,59.0,60.0,60.0,12.0,0.0
7462,59.0,0.0,60.0,3.0,0.0
7463,59.0,0.0,60.0,1.0,0.0
7464,58.0,60.0,60.0,12.0,0.0
7465,58.0,0.0,60.0,1.0,0.0
7466,58.0,0.0,60.0,3.0,0.0
7467,58.0,0.0,60.0,6.0,0.0
7468,56.0,0.0,60.0,3.0,0.0
7469,56.0,0.0,60.0,6.0,0.0
7470,56.0,0.0,60.0,1.0,0.0
7471,56.0,0.0,60.0,12.0,0.0
7472,58.0,60.0,60.0,3.0,0.0
7473,58.0,0.0,60.0,6.0,0.0
7474,43.0,0.0,480.0,13.0,0.0
7475,43.0,0.0,480.0,1.0,0.0
7476,31.0,60.0,480.0,8.0,0.0
7477,67.0,0.0,240.0,15.0,0.0
7478,58.0,0.0,60.0,1.0,0.0
7479,58.0,0.0,60.0,12.0,0.0
7480,43.0,0.0,480.0,3.0,0.0
7481,58.0,0.0,240.0,15.0,0.0
7482,43.0,0.0,360.0,15.0,0.0
7483,61.0,0.0,240.0,15.0,0.0
7484,56.0,0.0,60.0,1.0,0.0
7485,56.0,0.0,60.0,12.0,0.0
7486,56.0,0.0,60.0,6.0,0.0
7487,56.0,60.0,60.0,3.0,0.0
7488,55.0,60.0,60.0,12.0,0.0
7489,58.0,0.0,120.0,11.0,0.0
7490,58.0,60.0,120.0,5.0,0.0
7491,58.0,0.0,120.0,3.0,0.0
7492,55.0,0.0,60.0,3.0,0.0
7493,58.0,0.0,120.0,0.0,0.0
7494,55.0,0.0,60.0,1.0,0.0
7495,55.0,0.0,60.0,6.0,0.0
7496,53.0,0.0,60.0,12.0,0.0
7497,53.0,0.0,60.0,6.0,0.0
7498,53.0,0.0,60.0,3.0,0.0
7499,53.0,0.0,60.0,1.0,0.0
7500,58.0,0.0,120.0,0.0,0.0
7501,58.0,0.0,120.0,3.0,0.0
7502,67.0,0.0,240.0,15.0,0.0
7503,51.0,0.0,60.0,6.0,0.0
7504,58.0,0.0,120.0,5.0,0.0
7505,63.0,0.0,120.0,15.0,0.0
7506,51.0,60.0,60.0,12.0,0.0
7507,51.0,0.0,60.0,3.0,0.0
7508,58.0,0.0,240.0,15.0,0.0
7509,51.0,0.0,60.0,1.0,0.0
7510,58.0,0.0,120.0,11.0,0.0
7511,52.0,0.0,60.0,12.0,0.0
7512,52.0,0.0,60.0,1.0,0.0
7513,52.0,0.0,60.0,6.0,0.0
7514,52.0,60.0,60.0,3.0,0.0
7515,58.0,0.0,120.0,5.0,0.0
7516,58.0,0.0,120.0,11.0,0.0
7517,58.0,0.0,120.0,3.0,0.0
7518,49.0,0.0,60.0,6.0,0.0
7519,49.0,60.0,60.0,1.0,0.0
7520,58.0,0.0,120.0,0.0,0.0
7521,49.0,0.0,60.0,12.0,0.0
7522,49.0,0.0,60.0,3.0,0.0
7523,61.0,0.0,120.0,15.0,0.0
7524,43.0,0.0,120.0,15.0,0.0
7525,51.0,0.0,60.0,12.0,0.0
7526,51.0,0.0,60.0,3.0,0.0
7527,51.0,0.0,60.0,6.0,0.0
7528,51.0,0.0,60.0,1.0,0.0
7529,59.0,60.0,60.0,0.0,0.0
7530,59.0,0.0,60.0,3.0,0.0
7531,47.0,0.0,120.0,6.0,0.0
7532,47.0,0.0,120.0,3.0,0.0
7533,44.0,0.0,240.0,13.0,0.0
7534,59.0,0.0,60.0,11.0,0.0
7535,47.0,0.0,120.0,1.0,0.0
7536,59.0,0.0,60.0,5.0,0.0
7537,47.0,0.0,120.0,12.0,0.0
7538,63.0,0.0,240.0,15.0,0.0
7539,59.0,0.0,240.0,15.0,0.0
7540,44.0,0.0,240.0,15.0,0.0
7541,32.0,0.0,240.0,8.0,0.0
7542,61.0,0.0,60.0,11.0,0.0
7543,61.0,0.0,60.0,5.0,0.0
7544,61.0,0.0,60.0,3.0,0.0
7545,61.0,60.0,60.0,0.0,0.0
7546,44.0,0.0,120.0,12.0,0.0
7547,44.0,0.0,120.0,6.0,0.0
7548,44.0,0.0,120.0,3.0,0.0
7549,59.0,0.0,60.0,11.0,0.0
7550,44.0,0.0,120.0,1.0,0.0
7551,59.0,60.0,60.0,5.0,0.0
7552,59.0,0.0,60.0,0.0,0.0
7553,59.0,0.0,60.0,3.0,0.0
7554,58.0,60.0,60.0,3.0,0.0
7555,58.0,0.0,60.0,0.0,0.0
7556,58.0,0.0,60.0,5.0,0.0
7557,58.0,0.0,60.0,11.0,0.0
7558,59.0,0.0,60.0,5.0,0.0
7559,44.0,60.0,120.0,13.0,0.0
7560,52.0,0.0,360.0,1.0,0.0
7561,52.0,0.0,360.0,12.0,0.0
7562,52.0,0.0,360.0,6.0,0.0
7563,59.0,0.0,60.0,11.0,0.0
7564,52.0,0.0,360.0,3.0,0.0
7565,32.0,0.0,120.0,8.0,0.0
7566,59.0,0.0,60.0,3.0,0.0
7567,44.0,0.0,120.0,3.0,0.0
7568,59.0,60.0,60.0,0.0,0.0
7569,61.0,0.0,60.0,3.0,0.0
7570,61.0,0.0,60.0,11.0,0.0
7571,61.0,0.0,60.0,5.0,0.0
7572,61.0,0.0,60.0,0.0,0.0
7573,44.0,0.0,120.0,1.0,0.0
7574,44.0,0.0,120.0,15.0,0.0
7575,58.0,0.0,60.0,3.0,0.0
7576,58.0,60.0,60.0,0.0,0.0
7577,64.0,0.0,120.0,15.0,0.0
7578,59.0,60.0,120.0,15.0,0.0
7579,58.0,0.0,60.0,11.0,0.0
7580,58.0,0.0,60.0,5.0,0.0
7581,44.0,0.0,120.0,3.0,0.0
7582,44.0,0.0,120.0,13.0,0.0
7583,32.0,0.0,120.0,8.0,0.0
7584,59.0,0.0,60.0,5.0,0.0
7585,59.0,0.0,60.0,3.0,0.0
7586,59.0,0.0,60.0,11.0,0.0
7587,59.0,0.0,60.0,0.0,0.0
7588,64.0,0.0,240.0,15.0,0.0
7589,46.0,0.0,360.0,1.0,0.0
7590,46.0,0.0,360.0,13.0,0.0
7591,34.0,0.0,360.0,8.0,0.0
7592,61.0,0.0,60.0,3.0,0.0
7593,46.0,0.0,360.0,3.0,0.0
7594,61.0,0.0,240.0,15.0,0.0
7595,61.0,0.0,60.0,0.0,0.0
7596,46.0,0.0,360.0,15.0,0.0
7597,61.0,60.0,60.0,5.0,0.0
7598,61.0,0.0,60.0,11.0,0.0
7599,63.0,0.0,60.0,0.0,0.0
7600,63.0,0.0,60.0,5.0,0.0
7601,63.0,0.0,60.0,3.0,0.0
7602,63.0,60.0,60.0,11.0,0.0
7603,49.0,0.0,120.0,6.0,0.0
7604,49.0,0.0,120.0,12.0,0.0
7605,61.0,60.0,60.0,3.0,0.0
7606,49.0,0.0,120.0,1.0,0.0
7607,49.0,0.0,120.0,3.0,0.0
7608,61.0,0.0,60.0,0.0,0.0
7609,61.0,0.0,60.0,5.0,0.0
7610,61.0,0.0,60.0,11.0,0.0
7611,59.0,0.0,60.0,0.0,0.0
7612,59.0,0.0,60.0,3.0,0.0
7613,59.0,60.0,60.0,5.0,0.0
7614,59.0,0.0,60.0,11.0,0.0
7615,54.0,0.0,480.0,12.0,0.0
7616,61.0,0.0,60.0,5.0,0.0
7617,66.0,0.0,120.0,15.0,0.0
7618,61.0,0.0,60.0,3.0,0.0
7619,61.0,60.0,60.0,11.0,0.0
7620,61.0,0.0,60.0,0.0,0.0
7621,54.0,0.0,480.0,6.0,0.0
7622,61.0,60.0,120.0,15.0,0.0
7623,54.0,0.0,480.0,3.0,0.0
7624,54.0,0.0,480.0,1.0,0.0
7625,63.0,0.0,60.0,0.0,0.0
7626,63.0,0.0,60.0,11.0,0.0
7627,63.0,0.0,60.0,3.0,0.0
7628,63.0,0.0,60.0,5.0,0.0
7629,59.0,0.0,60.0,11.0,0.0
7630,44.0,0.0,60.0,13.0,0.0
7631,63.0,0.0,120.0,15.0,0.0
7632,59.0,0.0,60.0,0.0,0.0
7633,59.0,0.0,60.0,3.0,0.0
7634,44.0,0.0,60.0,15.0,0.0
7635,44.0,60.0,60.0,1.0,0.0
7636,59.0,0.0,60.0,5.0,0.0
7637,44.0,0.0,60.0,3.0,0.0
7638,59.0,0.0,120.0,15.0,0.0
7639,32.0,0.0,60.0,8.0,0.0
7640,61.0,0.0,60.0,0.0,0.0
7641,46.0,0.0,60.0,15.0,0.0
7642,46.0,120.0,60.0,1.0,0.0
7643,61.0,0.0,60.0,3.0,0.0
7644,61.0,0.0,60.0,11.0,0.0
7645,46.0,0.0,60.0,3.0,0.0
7646,46.0,0.0,60.0,13.0,0.0
7647,34.0,0.0,60.0,8.0,0.0
7648,61.0,0.0,60.0,5.0,0.0
7649,47.0,0.0,120.0,1.0,0.0
7650,47.0,0.0,120.0,13.0,0.0
7651,63.0,0.0,120.0,11.0,0.0
7652,35.0,60.0,120.0,8.0,0.0
7653,47.0,0.0,120.0,3.0,0.0
7654,63.0,0.0,120.0,0.0,0.0
7655,63.0,0.0,120.0,5.0,0.0
7656,54.0,0.0,240.0,15.0,0.0
7657,47.0,0.0,120.0,15.0,0.0
7658,63.0,0.0,240.0,15.0,0.0
7659,63.0,0.0,120.0,3.0,0.0
7660,64.0,0.0,60.0,0.0,0.0
7661,46.0,0.0,60.0,15.0,0.0
7662,64.0,0.0,60.0,5.0,0.0
7663,46.0,0.0,60.0,1.0,0.0
7664,34.0,0.0,60.0,8.0,0.0
7665,46.0,0.0,60.0,3.0,0.0
7666,46.0,0.0,60.0,13.0,0.0
7667,64.0,0.0,60.0,11.0,0.0
7668,64.0,60.0,60.0,3.0,0.0
7669,63.0,0.0,60.0,3.0,0.0
7670,47.0,0.0,60.0,13.0,0.0
7671,63.0,0.0,60.0,5.0,0.0
7672,63.0,0.0,60.0,0.0,0.0
7673,35.0,0.0,60.0,8.0,0.0
7674,47.0,0.0,60.0,1.0,0.0
7675,63.0,0.0,60.0,11.0,0.0
7676,47.0,0.0,60.0,3.0,0.0
7677,47.0,60.0,60.0,15.0,0.0
7678,61.0,60.0,60.0,11.0,0.0
7679,52.0,0.0,240.0,12.0,0.0
7680,56.0,0.0,240.0,15.0,0.0
7681,49.0,60.0,120.0,15.0,0.0
7682,37.0,0.0,120.0,8.0,0.0
7683,61.0,0.0,60.0,0.0,0.0
7684,52.0,0.0,240.0,15.0,0.0
7685,49.0,0.0,120.0,1.0,0.0
7686,49.0,0.0,120.0,13.0,0.0
7687,52.0,0.0,240.0,1.0,0.0
7688,61.0,0.0,60.0,5.0,0.0
7689,52.0,0.0,240.0,3.0,0.0
7690,49.0,0.0,120.0,3.0,0.0
7691,61.0,0.0,60.0,3.0,0.0
7692,52.0,0.0,240.0,6.0,0.0
7693,59.0,0.0,60.0,5.0,0.0
7694,59.0,0.0,60.0,3.0,0.0
7695,59.0,0.0,60.0,0.0,0.0
7696,59.0,0.0,60.0,11.0,0.0
7697,47.0,0.0,60.0,3.0,0.0
7698,47.0,0.0,60.0,13.0,0.0
7699,58.0,0.0,60.0,11.0,0.0
7700,47.0,0.0,60.0,1.0,0.0
7701,47.0,0.0,60.0,15.0,0.0
7702,58.0,0.0,60.0,3.0,0.0
7703,35.0,60.0,60.0,8.0,0.0
7704,58.0,0.0,60.0,5.0,0.0
7705,58.0,0.0,60.0,0.0,0.0
7706,56.0,0.0,60.0,11.0,0.0
7707,56.0,120.0,60.0,5.0,0.0
7708,49.0,0.0,60.0,3.0,0.0
7709,49.0,0.0,60.0,15.0,0.0
7710,56.0,0.0,60.0,0.0,0.0
7711,49.0,0.0,60.0,13.0,0.0
7712,37.0,0.0,60.0,8.0,0.0
7713,56.0,0.0,60.0,3.0,0.0
7714,49.0,0.0,60.0,1.0,0.0
7715,55.0,0.0,120.0,11.0,0.0
7716,39.0,0.0,120.0,8.0,0.0
7717,51.0,0.0,120.0,12.0,0.0
7718,58.0,0.0,120.0,15.0,0.0
7719,51.0,0.0,120.0,15.0,0.0
7720,55.0,0.0,120.0,15.0,0.0
7721,55.0,60.0,120.0,5.0,0.0
7722,51.0,0.0,120.0,6.0,0.0
7723,51.0,0.0,120.0,13.0,0.0
7724,55.0,0.0,120.0,0.0,0.0
7725,51.0,0.0,120.0,1.0,0.0
7726,55.0,0.0,120.0,3.0,0.0
7727,51.0,0.0,120.0,3.0,0.0
7728,63.0,0.0,120.0,15.0,0.0
7729,53.0,0.0,60.0,6.0,0.0
7730,53.0,0.0,60.0,12.0,0.0
7731,58.0,0.0,120.0,0.0,0.0
7732,49.0,0.0,120.0,1.0,0.0
7733,58.0,0.0,120.0,5.0,0.0
7734,37.0,0.0,120.0,8.0,0.0
7735,55.0,120.0,120.0,15.0,0.0
7736,49.0,0.0,120.0,15.0,0.0
7737,49.0,0.0,120.0,3.0,0.0
7738,58.0,0.0,120.0,3.0,0.0
7739,49.0,0.0,120.0,13.0,0.0
7740,53.0,60.0,60.0,3.0,0.0
7741,58.0,0.0,120.0,11.0,0.0
7742,53.0,0.0,60.0,1.0,0.0
7743,55.0,0.0,60.0,12.0,0.0
7744,55.0,0.0,60.0,1.0,0.0
7745,55.0,0.0,60.0,6.0,0.0
7746,55.0,0.0,60.0,3.0,0.0
7747,47.0,0.0,120.0,1.0,0.0
7748,56.0,0.0,120.0,1.0,0.0
7749,56.0,0.0,120.0,12.0,0.0
7750,47.0,0.0,120.0,15.0,0.0
7751,56.0,0.0,120.0,6.0,0.0
7752,63.0,0.0,120.0,11.0,0.0
7753,47.0,0.0,120.0,13.0,0.0
7754,63.0,120.0,120.0,3.0,0.0
7755,47.0,0.0,120.0,3.0,0.0
7756,35.0,0.0,120.0,8.0,0.0
7757,56.0,0.0,120.0,3.0,0.0
7758,63.0,0.0,120.0,0.0,0.0
7759,63.0,0.0,120.0,5.0,0.0
7760,56.0,0.0,120.0,15.0,0.0
7761,63.0,0.0,120.0,15.0,0.0
7762,61.0,0.0,120.0,11.0,0.0
7763,58.0,60.0,120.0,12.0,0.0
7764,58.0,0.0,120.0,6.0,0.0
7765,46.0,0.0,120.0,13.0,0.0
7766,61.0,0.0,120.0,3.0,0.0
7767,61.0,0.0,120.0,0.0,0.0
7768,46.0,0.0,120.0,1.0,0.0
7769,58.0,0.0,120.0,1.0,0.0
7770,61.0,0.0,120.0,15.0,0.0
7771,46.0,0.0,120.0,15.0,0.0
7772,55.0,0.0,120.0,15.0,0.0
7773,61.0,0.0,120.0,5.0,0.0
7774,34.0,0.0,120.0,8.0,0.0
7775,58.0,0.0,120.0,3.0,0.0
7776,46.0,0.0,120.0,3.0,0.0
7777,32.0,60.0,120.0,8.0,0.0
7778,59.0,60.0,60.0,6.0,0.0
7779,59.0,0.0,360.0,11.0,0.0
7780,59.0,0.0,240.0,15.0,0.0
7781,59.0,0.0,360.0,5.0,0.0
7782,44.0,0.0,120.0,3.0,0.0
7783,59.0,0.0,60.0,12.0,0.0
7784,59.0,0.0,360.0,0.0,0.0
7785,44.0,0.0,120.0,15.0,0.0
7786,63.0,0.0,240.0,15.0,0.0
7787,44.0,0.0,120.0,13.0,0.0
7788,44.0,0.0,120.0,1.0,0.0
7789,59.0,0.0,60.0,1.0,0.0
7790,59.0,0.0,60.0,3.0,0.0
7791,58.0,0.0,60.0,12.0,0.0
7792,58.0,0.0,60.0,1.0,0.0
7793,58.0,0.0,60.0,3.0,0.0
7794,58.0,0.0,60.0,6.0,0.0
7795,56.0,0.0,60.0,6.0,0.0
7796,46.0,0.0,60.0,15.0,0.0
7797,56.0,0.0,60.0,3.0,0.0
7798,56.0,0.0,60.0,1.0,0.0
7799,46.0,0.0,60.0,1.0,0.0
7800,56.0,0.0,60.0,12.0,0.0
7801,34.0,0.0,60.0,8.0,0.0
7802,46.0,0.0,60.0,13.0,0.0
7803,46.0,60.0,60.0,3.0,0.0
7804,54.0,0.0,60.0,6.0,0.0
7805,47.0,0.0,60.0,3.0,0.0
7806,54.0,0.0,60.0,3.0,0.0
7807,47.0,0.0,60.0,15.0,0.0
7808,35.0,0.0,60.0,8.0,0.0
7809,54.0,120.0,60.0,1.0,0.0
7810,54.0,0.0,60.0,12.0,0.0
7811,47.0,0.0,60.0,13.0,0.0
7812,47.0,0.0,60.0,1.0,0.0
7813,53.0,0.0,120.0,3.0,0.0
7814,53.0,0.0,120.0,12.0,0.0
7815,49.0,0.0,360.0,13.0,0.0
7816,53.0,0.0,120.0,6.0,0.0
7817,49.0,0.0,360.0,15.0,0.0
7818,53.0,0.0,120.0,15.0,0.0
7819,59.0,0.0,120.0,15.0,0.0
7820,37.0,0.0,360.0,8.0,0.0
7821,49.0,0.0,360.0,1.0,0.0
7822,53.0,120.0,120.0,1.0,0.0
7823,56.0,0.0,120.0,15.0,0.0
7824,49.0,0.0,360.0,3.0,0.0
7825,54.0,0.0,240.0,6.0,0.0
7826,58.0,0.0,120.0,0.0,0.0
7827,54.0,0.0,240.0,12.0,0.0
7828,58.0,0.0,120.0,15.0,0.0
7829,54.0,0.0,120.0,15.0,0.0
7830,54.0,0.0,240.0,1.0,0.0
7831,54.0,0.0,240.0,3.0,0.0
7832,58.0,0.0,120.0,3.0,0.0
7833,58.0,0.0,120.0,11.0,0.0
7834,58.0,120.0,120.0,5.0,0.0
7835,73.0,0.0,480.0,0.0,0.0
7836,73.0,0.0,480.0,10.0,0.0
7837,53.0,0.0,120.0,15.0,0.0
7838,56.0,0.0,120.0,5.0,0.0
7839,56.0,0.0,120.0,0.0,0.0
7840,56.0,0.0,120.0,11.0,0.0
7841,56.0,0.0,120.0,3.0,0.0
7842,56.0,120.0,120.0,15.0,0.0
7843,73.0,0.0,480.0,4.0,0.0
7844,47.0,0.0,120.0,3.0,0.0
7845,61.0,0.0,120.0,3.0,0.0
7846,35.0,0.0,120.0,8.0,0.0
7847,61.0,0.0,120.0,11.0,0.0
7848,53.0,0.0,120.0,3.0,0.0
7849,61.0,120.0,120.0,5.0,0.0
7850,47.0,0.0,120.0,15.0,0.0
7851,61.0,0.0,120.0,15.0,0.0
7852,53.0,0.0,120.0,1.0,0.0
7853,47.0,0.0,120.0,13.0,0.0
7854,56.0,0.0,120.0,15.0,0.0
7855,53.0,0.0,120.0,6.0,0.0
7856,65.0,0.0,120.0,15.0,0.0
7857,53.0,0.0,120.0,12.0,0.0
7858,61.0,0.0,120.0,0.0,0.0
7859,47.0,0.0,120.0,1.0,0.0
7860,63.0,0.0,120.0,3.0,0.0
7861,54.0,0.0,120.0,6.0,0.0
7862,54.0,0.0,120.0,15.0,0.0
7863,54.0,120.0,120.0,12.0,0.0
7864,46.0,0.0,120.0,13.0,0.0
7865,54.0,0.0,120.0,3.0,0.0
7866,46.0,0.0,120.0,1.0,0.0
7867,46.0,0.0,120.0,3.0,0.0
7868,61.0,0.0,120.0,15.0,0.0
7869,63.0,0.0,120.0,5.0,0.0
7870,54.0,0.0,120.0,1.0,0.0
7871,63.0,0.0,120.0,11.0,0.0
7872,34.0,0.0,120.0,8.0,0.0
7873,63.0,0.0,120.0,0.0,0.0
7874,46.0,0.0,120.0,15.0,0.0
7875,44.0,120.0,120.0,3.0,0.0
7876,56.0,0.0,120.0,6.0,0.0
7877,65.0,0.0,120.0,11.0,0.0
7878,32.0,0.0,120.0,8.0,0.0
7879,56.0,0.0,120.0,15.0,0.0
7880,61.0,0.0,120.0,15.0,0.0
7881,65.0,0.0,120.0,15.0,0.0
7882,44.0,0.0,120.0,15.0,0.0
7883,44.0,0.0,120.0,13.0,0.0
7884,56.0,0.0,120.0,3.0,0.0
7885,65.0,0.0,120.0,0.0,0.0
7886,56.0,0.0,120.0,1.0,0.0
7887,44.0,0.0,120.0,1.0,0.0
7888,65.0,0.0,120.0,5.0,0.0
7889,56.0,0.0,120.0,12.0,0.0
7890,65.0,0.0,120.0,3.0,0.0
7891,30.0,0.0,120.0,8.0,0.0
7892,42.0,0.0,120.0,1.0,0.0
7893,58.0,60.0,240.0,1.0,0.0
7894,70.0,0.0,240.0,15.0,0.0
7895,42.0,0.0,120.0,15.0,0.0
7896,42.0,0.0,120.0,13.0,0.0
7897,66.0,0.0,120.0,5.0,0.0
7898,61.0,0.0,240.0,15.0,0.0
7899,66.0,0.0,240.0,15.0,0.0
7900,70.0,0.0,240.0,0.0,0.0
7901,58.0,0.0,240.0,6.0,0.0
7902,66.0,60.0,120.0,0.0,0.0
7903,66.0,0.0,120.0,11.0,0.0
7904,58.0,0.0,240.0,12.0,0.0
7905,42.0,0.0,120.0,3.0,0.0
7906,66.0,0.0,120.0,3.0,0.0
7907,58.0,0.0,240.0,3.0,0.0
7908,70.0,0.0,240.0,4.0,0.0
7909,70.0,0.0,240.0,10.0,0.0
7910,51.0,0.0,60.0,3.0,0.0
7911,54.0,0.0,120.0,11.0,0.0
7912,54.0,0.0,120.0,5.0,0.0
7913,39.0,60.0,60.0,8.0,0.0
7914,51.0,0.0,60.0,1.0,0.0
7915,51.0,0.0,60.0,15.0,0.0
7916,54.0,0.0,120.0,0.0,0.0
7917,54.0,0.0,120.0,3.0,0.0
7918,51.0,0.0,60.0,13.0,0.0
7919,49.0,0.0,60.0,13.0,0.0
7920,49.0,0.0,60.0,3.0,0.0
7921,37.0,0.0,60.0,8.0,0.0
7922,49.0,0.0,60.0,15.0,0.0
7923,49.0,0.0,60.0,1.0,0.0
7924,47.0,0.0,60.0,13.0,0.0
7925,35.0,0.0,60.0,8.0,0.0
7926,59.0,0.0,180.0,5.0,0.0
7927,47.0,0.0,60.0,3.0,0.0
7928,59.0,0.0,180.0,3.0,0.0
7929,63.0,0.0,180.0,15.0,0.0
7930,66.0,0.0,180.0,15.0,0.0
7931,75.0,0.0,240.0,4.0,0.0
7932,59.0,0.0,180.0,0.0,0.0
7933,75.0,0.0,240.0,0.0,0.0
7934,47.0,0.0,60.0,15.0,0.0
7935,59.0,0.0,180.0,11.0,0.0
7936,75.0,0.0,240.0,10.0,0.0
7937,47.0,60.0,60.0,1.0,0.0
7938,44.0,0.0,60.0,13.0,0.0
7939,32.0,0.0,60.0,8.0,0.0
7940,44.0,60.0,60.0,1.0,0.0
7941,44.0,0.0,60.0,3.0,0.0
7942,44.0,0.0,60.0,15.0,0.0
7943,46.0,0.0,60.0,15.0,0.0
7944,46.0,0.0,60.0,13.0,0.0
7945,46.0,0.0,60.0,3.0,0.0
7946,46.0,0.0,60.0,1.0,0.0
7947,34.0,60.0,60.0,8.0,0.0
7948,47.0,0.0,60.0,13.0,0.0
7949,58.0,0.0,60.0,0.0,0.0
7950,47.0,0.0,60.0,15.0,0.0
7951,58.0,0.0,60.0,3.0,0.0
7952,35.0,120.0,60.0,8.0,0.0
7953,58.0,0.0,60.0,11.0,0.0
7954,58.0,0.0,60.0,5.0,0.0
7955,63.0,0.0,60.0,15.0,0.0
7956,58.0,0.0,60.0,15.0,0.0
7957,66.0,0.0,60.0,15.0,0.0
7958,47.0,0.0,60.0,1.0,0.0
7959,47.0,0.0,60.0,3.0,0.0
7960,56.0,0.0,120.0,0.0,0.0
7961,65.0,0.0,480.0,0.0,0.0
7962,56.0,0.0,120.0,5.0,0.0
7963,56.0,120.0,120.0,3.0,0.0
7964,49.0,0.0,240.0,13.0,0.0
7965,65.0,0.0,120.0,15.0,0.0
7966,49.0,0.0,120.0,15.0,0.0
7967,61.0,0.0,120.0,15.0,0.0
7968,65.0,0.0,480.0,4.0,0.0
7969,56.0,0.0,120.0,11.0,0.0
7970,65.0,0.0,480.0,10.0,0.0
7971,56.0,0.0,120.0,15.0,0.0
7972,37.0,0.0,120.0,8.0,0.0
7973,56.0,0.0,120.0,11.0,0.0
7974,49.0,0.0,120.0,6.0,0.0
7975,61.0,0.0,360.0,15.0,0.0
7976,49.0,0.0,120.0,3.0,0.0
7977,49.0,0.0,120.0,12.0,0.0
7978,49.0,0.0,120.0,1.0,0.0
7979,56.0,0.0,360.0,15.0,0.0
7980,49.0,0.0,120.0,15.0,0.0
7981,56.0,0.0,120.0,3.0,0.0
7982,49.0,0.0,120.0,7.0,0.0
7983,56.0,120.0,120.0,5.0,0.0
7984,56.0,0.0,120.0,0.0,0.0
7985,65.0,0.0,360.0,15.0,0.0
7986,49.0,0.0,120.0,3.0,0.0
7987,61.0,0.0,360.0,3.0,0.0
7988,49.0,0.0,120.0,15.0,0.0
7989,61.0,0.0,360.0,11.0,0.0
7990,49.0,0.0,120.0,1.0,0.0
7991,61.0,0.0,360.0,0.0,0.0
7992,49.0,120.0,120.0,7.0,0.0
7993,49.0,0.0,120.0,12.0,0.0
7994,49.0,0.0,120.0,6.0,0.0
7995,61.0,0.0,360.0,5.0,0.0
7996,49.0,0.0,120.0,12.0,0.0
7997,49.0,0.0,120.0,3.0,0.0
7998,49.0,0.0,120.0,7.0,0.0
7999,49.0,60.0,120.0,15.0,0.0
8000,49.0,0.0,120.0,1.0,0.0
8001,49.0,0.0,120.0,6.0,0.0
8002,51.0,0.0,60.0,12.0,0.0
8003,51.0,0.0,60.0,3.0,0.0
8004,66.0,60.0,120.0,15.0,0.0
8005,66.0,0.0,240.0,0.0,0.0
8006,66.0,0.0,240.0,4.0,0.0
8007,61.0,0.0,120.0,15.0,0.0
8008,66.0,0.0,240.0,10.0,0.0
8009,51.0,0.0,60.0,6.0,0.0
8010,51.0,60.0,60.0,7.0,0.0
8011,51.0,0.0,60.0,1.0,0.0
8012,51.0,0.0,60.0,15.0,0.0
8013,70.0,0.0,120.0,15.0,0.0
8014,53.0,0.0,60.0,6.0,0.0
8015,53.0,0.0,60.0,12.0,0.0
8016,53.0,0.0,60.0,15.0,0.0
8017,53.0,0.0,60.0,3.0,0.0
8018,53.0,0.0,60.0,1.0,0.0
8019,53.0,0.0,60.0,7.0,0.0
8020,59.0,0.0,360.0,15.0,0.0
8021,51.0,0.0,60.0,6.0,0.0
8022,59.0,0.0,60.0,0.0,0.0
8023,51.0,0.0,60.0,12.0,0.0
8024,59.0,0.0,60.0,11.0,0.0
8025,51.0,0.0,60.0,1.0,0.0
8026,59.0,0.0,60.0,5.0,0.0
8027,59.0,0.0,60.0,3.0,0.0
8028,51.0,0.0,60.0,3.0,0.0
8029,66.0,0.0,360.0,15.0,0.0
8030,51.0,0.0,60.0,15.0,0.0
8031,51.0,60.0,60.0,7.0,0.0
8032,49.0,0.0,60.0,15.0,0.0
8033,49.0,0.0,60.0,3.0,0.0
8034,58.0,0.0,60.0,0.0,0.0
8035,58.0,0.0,60.0,11.0,0.0
8036,49.0,0.0,60.0,7.0,0.0
8037,58.0,0.0,60.0,3.0,0.0
8038,49.0,0.0,60.0,1.0,0.0
8039,49.0,60.0,60.0,12.0,0.0
8040,49.0,0.0,60.0,6.0,0.0
8041,58.0,0.0,60.0,5.0,0.0
8042,59.0,60.0,60.0,5.0,0.0
8043,51.0,0.0,60.0,1.0,0.0
8044,66.0,0.0,120.0,4.0,0.0
8045,59.0,0.0,60.0,3.0,0.0
8046,66.0,60.0,120.0,10.0,0.0
8047,51.0,0.0,60.0,15.0,0.0
8048,51.0,0.0,60.0,12.0,0.0
8049,59.0,0.0,60.0,11.0,0.0
8050,51.0,0.0,60.0,7.0,0.0
8051,51.0,0.0,60.0,3.0,0.0
8052,66.0,0.0,120.0,0.0,0.0
8053,59.0,0.0,60.0,0.0,0.0
8054,51.0,0.0,60.0,6.0,0.0
8055,53.0,0.0,60.0,6.0,0.0
8056,61.0,0.0,60.0,3.0,0.0
8057,53.0,0.0,60.0,7.0,0.0
8058,53.0,0.0,60.0,15.0,0.0
8059,61.0,0.0,60.0,5.0,0.0
8060,61.0,0.0,60.0,11.0,0.0
8061,61.0,0.0,60.0,0.0,0.0
8062,53.0,0.0,60.0,1.0,0.0
8063,53.0,0.0,60.0,12.0,0.0
8064,53.0,0.0,60.0,3.0,0.0
8065,58.0,0.0,60.0,3.0,0.0
8066,49.0,0.0,60.0,6.0,0.0
8067,49.0,0.0,60.0,12.0,0.0
8068,49.0,0.0,60.0,1.0,0.0
8069,49.0,0.0,60.0,3.0,0.0
8070,66.0,0.0,120.0,10.0,0.0
8071,66.0,0.0,120.0,4.0,0.0
8072,49.0,0.0,60.0,15.0,0.0
8073,58.0,0.0,60.0,0.0,0.0
8074,49.0,0.0,60.0,7.0,0.0
8075,66.0,60.0,120.0,0.0,0.0
8076,58.0,0.0,60.0,11.0,0.0
8077,58.0,60.0,60.0,5.0,0.0
8078,51.0,0.0,60.0,7.0,0.0
8079,51.0,0.0,60.0,12.0,0.0
8080,51.0,0.0,60.0,1.0,0.0
8081,59.0,0.0,60.0,0.0,0.0
8082,59.0,0.0,60.0,11.0,0.0
8083,59.0,0.0,60.0,3.0,0.0
8084,51.0,0.0,60.0,6.0,0.0
8085,59.0,0.0,60.0,5.0,0.0
8086,51.0,0.0,60.0,15.0,0.0
8087,51.0,0.0,60.0,3.0,0.0
8088,68.0,60.0,360.0,4.0,0.0
8089,56.0,0.0,120.0,3.0,0.0
8090,37.0,0.0,480.0,8.0,0.0
8091,61.0,0.0,480.0,15.0,0.0
8092,49.0,0.0,480.0,1.0,0.0
8093,68.0,0.0,480.0,15.0,0.0
8094,65.0,0.0,480.0,15.0,0.0
8095,56.0,0.0,120.0,0.0,0.0
8096,56.0,0.0,120.0,5.0,0.0
8097,53.0,60.0,60.0,3.0,0.0
8098,53.0,0.0,60.0,12.0,0.0
8099,56.0,0.0,120.0,11.0,0.0
8100,49.0,0.0,480.0,3.0,0.0
8101,53.0,0.0,60.0,1.0,0.0
8102,68.0,0.0,360.0,10.0,0.0
8103,53.0,0.0,60.0,6.0,0.0
8104,49.0,120.0,480.0,13.0,0.0
8105,49.0,0.0,360.0,15.0,0.0
8106,68.0,0.0,360.0,0.0,0.0
8107,54.0,0.0,60.0,6.0,0.0
8108,54.0,60.0,60.0,12.0,0.0
8109,54.0,0.0,60.0,1.0,0.0
8110,54.0,0.0,60.0,3.0,0.0
8111,58.0,0.0,60.0,3.0,0.0
8112,53.0,0.0,60.0,6.0,0.0
8113,53.0,60.0,60.0,3.0,0.0
8114,53.0,0.0,60.0,12.0,0.0
8115,53.0,0.0,60.0,1.0,0.0
8116,58.0,0.0,60.0,0.0,0.0
8117,58.0,0.0,60.0,5.0,0.0
8118,58.0,0.0,60.0,11.0,0.0
8119,59.0,0.0,60.0,0.0,0.0
8120,59.0,0.0,60.0,5.0,0.0
8121,51.0,0.0,60.0,1.0,0.0
8122,59.0,0.0,60.0,3.0,0.0
8123,59.0,0.0,60.0,11.0,0.0
8124,51.0,0.0,60.0,6.0,0.0
8125,51.0,60.0,60.0,12.0,0.0
8126,51.0,0.0,60.0,3.0,0.0
8127,61.0,0.0,360.0,11.0,0.0
8128,53.0,60.0,60.0,6.0,0.0
8129,53.0,0.0,60.0,1.0,0.0
8130,61.0,0.0,360.0,3.0,0.0
8131,61.0,60.0,360.0,0.0,0.0
8132,53.0,0.0,60.0,12.0,0.0
8133,61.0,0.0,360.0,5.0,0.0
8134,53.0,0.0,60.0,3.0,0.0
8135,54.0,0.0,60.0,12.0,0.0
8136,54.0,0.0,60.0,1.0,0.0
8137,54.0,0.0,60.0,3.0,0.0
8138,54.0,0.0,60.0,6.0,0.0
8139,51.0,0.0,60.0,6.0,0.0
8140,66.0,0.0,60.0,10.0,0.0
8141,51.0,60.0,60.0,3.0,0.0
8142,66.0,0.0,60.0,0.0,0.0
8143,49.0,0.0,120.0,15.0,0.0
8144,66.0,0.0,60.0,4.0,0.0
8145,51.0,0.0,60.0,1.0,0.0
8146,51.0,0.0,60.0,12.0,0.0
8147,53.0,0.0,60.0,6.0,0.0
8148,53.0,0.0,60.0,3.0,0.0
8149,68.0,0.0,60.0,0.0,0.0
8150,68.0,0.0,60.0,10.0,0.0
8151,53.0,0.0,60.0,1.0,0.0
8152,68.0,0.0,60.0,4.0,0.0
8153,53.0,0.0,60.0,12.0,0.0
8154,70.0,0.0,120.0,10.0,0.0
8155,46.0,0.0,240.0,3.0,0.0
8156,34.0,0.0,240.0,8.0,0.0
8157,54.0,0.0,240.0,6.0,0.0
8158,70.0,0.0,120.0,0.0,0.0
8159,54.0,0.0,240.0,12.0,0.0
8160,46.0,120.0,240.0,1.0,0.0
8161,70.0,0.0,240.0,15.0,0.0
8162,61.0,0.0,240.0,15.0,0.0
8163,46.0,0.0,240.0,15.0,0.0
8164,66.0,0.0,240.0,15.0,0.0
8165,54.0,0.0,240.0,1.0,0.0
8166,46.0,0.0,240.0,13.0,0.0
8167,70.0,0.0,120.0,4.0,0.0
8168,54.0,0.0,120.0,3.0,0.0
8169,68.0,0.0,60.0,4.0,0.0
8170,54.0,0.0,240.0,5.0,0.0
8171,68.0,60.0,60.0,10.0,0.0
8172,54.0,0.0,240.0,0.0,0.0
8173,68.0,0.0,60.0,0.0,0.0
8174,54.0,0.0,240.0,11.0,0.0
8175,70.0,0.0,60.0,10.0,0.0
8176,70.0,0.0,60.0,0.0,0.0
8177,70.0,0.0,60.0,4.0,0.0
8178,51.0,0.0,240.0,15.0,0.0
8179,71.0,0.0,120.0,10.0,0.0
8180,71.0,60.0,120.0,4.0,0.0
8181,51.0,0.0,240.0,13.0,0.0
8182,71.0,120.0,240.0,15.0,0.0
8183,39.0,0.0,240.0,8.0,0.0
8184,51.0,0.0,240.0,3.0,0.0
8185,66.0,0.0,240.0,15.0,0.0
8186,71.0,0.0,120.0,0.0,0.0
8187,51.0,0.0,240.0,1.0,0.0
8188,63.0,0.0,120.0,5.0,0.0
8189,70.0,0.0,60.0,4.0,0.0
8190,63.0,0.0,120.0,3.0,0.0
8191,70.0,0.0,60.0,10.0,0.0
8192,63.0,0.0,120.0,11.0,0.0
8193,63.0,0.0,120.0,0.0,0.0
8194,70.0,60.0,60.0,0.0,0.0
8195,71.0,0.0,60.0,10.0,0.0
8196,71.0,0.0,60.0,0.0,0.0
8197,71.0,0.0,60.0,4.0,0.0
8198,61.0,120.0,240.0,0.0,0.0
8199,73.0,0.0,360.0,15.0,0.0
8200,41.0,0.0,360.0,15.0,0.0
8201,56.0,0.0,360.0,15.0,0.0
8202,73.0,120.0,120.0,0.0,0.0
8203,41.0,0.0,480.0,13.0,0.0
8204,61.0,0.0,240.0,5.0,0.0
8205,29.0,0.0,480.0,8.0,0.0
8206,61.0,0.0,240.0,11.0,0.0
8207,41.0,0.0,480.0,1.0,0.0
8208,73.0,0.0,120.0,10.0,0.0
8209,73.0,0.0,120.0,4.0,0.0
8210,41.0,0.0,480.0,3.0,0.0
8211,61.0,0.0,240.0,3.0,0.0
8212,56.0,0.0,120.0,1.0,0.0
8213,68.0,0.0,120.0,4.0,0.0
8214,56.0,0.0,120.0,6.0,0.0
8215,68.0,0.0,120.0,0.0,0.0
8216,68.0,0.0,120.0,10.0,0.0
8217,56.0,0.0,120.0,3.0,0.0
8218,56.0,0.0,120.0,12.0,0.0
8219,73.0,0.0,120.0,4.0,0.0
8220,56.0,0.0,120.0,1.0,0.0
8221,56.0,0.0,120.0,12.0,0.0
8222,73.0,120.0,120.0,0.0,0.0
8223,56.0,0.0,120.0,3.0,0.0
8224,56.0,0.0,120.0,6.0,0.0
8225,73.0,0.0,120.0,10.0,0.0
8226,71.0,0.0,120.0,4.0,0.0
8227,56.0,0.0,120.0,6.0,0.0
8228,56.0,0.0,120.0,3.0,0.0
8229,71.0,0.0,120.0,15.0,0.0
8230,71.0,0.0,120.0,10.0,0.0
8231,56.0,0.0,120.0,15.0,0.0
8232,41.0,0.0,120.0,15.0,0.0
8233,71.0,0.0,120.0,0.0,0.0
8234,56.0,0.0,120.0,1.0,0.0
8235,56.0,60.0,120.0,12.0,0.0
8236,42.0,60.0,240.0,3.0,0.0
8237,58.0,0.0,60.0,1.0,0.0
8238,42.0,0.0,240.0,1.0,0.0
8239,42.0,0.0,240.0,15.0,0.0
8240,61.0,0.0,240.0,15.0,0.0
8241,58.0,0.0,60.0,12.0,0.0
8242,70.0,0.0,120.0,0.0,0.0
8243,70.0,0.0,240.0,15.0,0.0
8244,70.0,0.0,120.0,4.0,0.0
8245,70.0,0.0,120.0,10.0,0.0
8246,30.0,0.0,240.0,8.0,0.0
8247,58.0,0.0,60.0,3.0,0.0
8248,58.0,60.0,60.0,6.0,0.0
8249,42.0,0.0,240.0,13.0,0.0
8250,54.0,0.0,240.0,15.0,0.0
8251,59.0,0.0,60.0,3.0,0.0
8252,59.0,60.0,60.0,6.0,0.0
8253,59.0,0.0,60.0,12.0,0.0
8254,59.0,0.0,60.0,1.0,0.0
8255,61.0,0.0,120.0,0.0,0.0
8256,58.0,0.0,60.0,1.0,0.0
8257,61.0,0.0,120.0,4.0,0.0
8258,61.0,0.0,120.0,10.0,0.0
8259,58.0,60.0,60.0,3.0,0.0
8260,58.0,0.0,60.0,6.0,0.0
8261,58.0,0.0,60.0,12.0,0.0
8262,56.0,0.0,60.0,12.0,0.0
8263,56.0,0.0,60.0,1.0,0.0
8264,56.0,0.0,60.0,3.0,0.0
8265,56.0,0.0,60.0,6.0,0.0
8266,66.0,0.0,480.0,0.0,0.0
8267,58.0,0.0,60.0,3.0,0.0
8268,58.0,60.0,60.0,6.0,0.0
8269,66.0,60.0,480.0,10.0,0.0
8270,58.0,0.0,60.0,1.0,0.0
8271,42.0,0.0,120.0,3.0,0.0
8272,30.0,0.0,120.0,8.0,0.0
8273,42.0,0.0,120.0,13.0,0.0
8274,66.0,0.0,480.0,4.0,0.0
8275,58.0,0.0,60.0,12.0,0.0
8276,42.0,0.0,120.0,1.0,0.0
8277,59.0,0.0,60.0,1.0,0.0
8278,59.0,0.0,60.0,12.0,0.0
8279,59.0,0.0,60.0,3.0,0.0
8280,59.0,60.0,60.0,6.0,0.0
8281,42.0,0.0,120.0,15.0,0.0
8282,70.0,0.0,120.0,15.0,0.0
8283,54.0,60.0,120.0,15.0,0.0
8284,61.0,0.0,120.0,15.0,0.0
8285,42.0,0.0,120.0,3.0,0.0
8286,30.0,0.0,120.0,8.0,0.0
8287,56.0,0.0,60.0,12.0,0.0
8288,56.0,0.0,60.0,1.0,0.0
8289,56.0,0.0,60.0,3.0,0.0
8290,42.0,0.0,120.0,13.0,0.0
8291,42.0,0.0,120.0,1.0,0.0
8292,56.0,60.0,60.0,6.0,0.0
8293,58.0,0.0,60.0,3.0,0.0
8294,58.0,0.0,60.0,6.0,0.0
8295,58.0,0.0,60.0,12.0,0.0
8296,58.0,0.0,60.0,1.0,0.0
8297,59.0,0.0,60.0,3.0,0.0
8298,59.0,0.0,60.0,12.0,0.0
8299,44.0,60.0,360.0,3.0,0.0
8300,60.0,0.0,240.0,15.0,0.0
8301,59.0,60.0,60.0,6.0,0.0
8302,32.0,0.0,360.0,8.0,0.0
8303,63.0,0.0,240.0,15.0,0.0
8304,44.0,0.0,360.0,15.0,0.0
8305,44.0,0.0,360.0,1.0,0.0
8306,59.0,0.0,60.0,1.0,0.0
8307,66.0,0.0,240.0,15.0,0.0
8308,44.0,0.0,360.0,13.0,0.0
8309,61.0,60.0,60.0,6.0,0.0
8310,61.0,0.0,60.0,12.0,0.0
8311,61.0,0.0,60.0,3.0,0.0
8312,61.0,0.0,60.0,1.0,0.0
8313,59.0,0.0,60.0,6.0,0.0
8314,59.0,0.0,60.0,1.0,0.0
8315,59.0,60.0,60.0,3.0,0.0
8316,59.0,0.0,60.0,12.0,0.0
8317,58.0,0.0,60.0,6.0,0.0
8318,58.0,0.0,60.0,1.0,0.0
8319,58.0,0.0,60.0,12.0,0.0
8320,58.0,0.0,60.0,3.0,0.0
8321,65.0,120.0,240.0,15.0,0.0
8322,59.0,60.0,60.0,1.0,0.0
8323,59.0,0.0,60.0,6.0,0.0
8324,65.0,0.0,240.0,10.0,0.0
8325,59.0,0.0,60.0,3.0,0.0
8326,59.0,0.0,60.0,12.0,0.0
8327,65.0,0.0,240.0,0.0,0.0
8328,65.0,0.0,240.0,4.0,0.0
8329,60.0,0.0,240.0,15.0,0.0
8330,61.0,0.0,60.0,3.0,0.0
8331,61.0,0.0,60.0,1.0,0.0
8332,61.0,0.0,60.0,12.0,0.0
8333,61.0,0.0,60.0,6.0,0.0
8334,42.0,0.0,60.0,13.0,0.0
8335,58.0,0.0,60.0,1.0,0.0
8336,42.0,0.0,60.0,1.0,0.0
8337,42.0,0.0,60.0,15.0,0.0
8338,58.0,60.0,60.0,6.0,0.0
8339,58.0,0.0,60.0,3.0,0.0
8340,30.0,0.0,60.0,8.0,0.0
8341,58.0,0.0,60.0,12.0,0.0
8342,42.0,0.0,60.0,3.0,0.0
8343,59.0,0.0,60.0,6.0,0.0
8344,44.0,0.0,60.0,15.0,0.0
8345,44.0,0.0,60.0,1.0,0.0
8346,59.0,0.0,60.0,1.0,0.0
8347,59.0,0.0,60.0,3.0,0.0
8348,44.0,0.0,60.0,13.0,0.0
8349,44.0,0.0,60.0,3.0,0.0
8350,32.0,0.0,60.0,8.0,0.0
8351,59.0,0.0,60.0,12.0,0.0
8352,66.0,0.0,120.0,4.0,0.0
8353,61.0,0.0,120.0,1.0,0.0
8354,61.0,0.0,120.0,6.0,0.0
8355,46.0,0.0,120.0,3.0,0.0
8356,61.0,0.0,120.0,12.0,0.0
8357,34.0,0.0,120.0,8.0,0.0
8358,46.0,60.0,120.0,13.0,0.0
8359,66.0,0.0,120.0,10.0,0.0
8360,66.0,0.0,240.0,15.0,0.0
8361,46.0,0.0,120.0,15.0,0.0
8362,61.0,0.0,240.0,15.0,0.0
8363,46.0,0.0,120.0,1.0,0.0
8364,61.0,0.0,120.0,3.0,0.0
8365,66.0,0.0,120.0,0.0,0.0
8366,66.0,0.0,120.0,0.0,0.0
8367,58.0,0.0,120.0,1.0,0.0
8368,54.0,0.0,60.0,1.0,0.0
8369,54.0,60.0,60.0,3.0,0.0
8370,54.0,0.0,60.0,13.0,0.0
8371,58.0,0.0,120.0,3.0,0.0
8372,66.0,0.0,120.0,4.0,0.0
8373,54.0,0.0,60.0,15.0,0.0
8374,66.0,120.0,120.0,10.0,0.0
8375,42.0,0.0,60.0,8.0,0.0
8376,58.0,0.0,120.0,12.0,0.0
8377,58.0,0.0,120.0,6.0,0.0
8378,41.0,0.0,60.0,8.0,0.0
8379,53.0,0.0,60.0,13.0,0.0
8380,53.0,0.0,60.0,15.0,0.0
8381,53.0,0.0,60.0,1.0,0.0
8382,53.0,0.0,60.0,3.0,0.0
8383,51.0,0.0,120.0,1.0,0.0
8384,60.0,0.0,120.0,12.0,0.0
8385,51.0,0.0,120.0,13.0,0.0
8386,39.0,0.0,120.0,8.0,0.0
8387,60.0,120.0,120.0,1.0,0.0
8388,60.0,0.0,120.0,6.0,0.0
8389,66.0,0.0,480.0,10.0,0.0
8390,60.0,0.0,120.0,15.0,0.0
8391,66.0,120.0,480.0,4.0,0.0
8392,66.0,0.0,120.0,15.0,0.0
8393,66.0,0.0,480.0,0.0,0.0
8394,60.0,0.0,120.0,3.0,0.0
8395,51.0,0.0,120.0,15.0,0.0
8396,51.0,0.0,120.0,3.0,0.0
8397,49.0,0.0,120.0,15.0,0.0
8398,66.0,0.0,120.0,15.0,0.0
8399,61.0,0.0,120.0,15.0,0.0
8400,49.0,0.0,120.0,1.0,0.0
8401,61.0,0.0,120.0,3.0,0.0
8402,49.0,0.0,120.0,13.0,0.0
8403,37.0,0.0,120.0,8.0,0.0
8404,49.0,0.0,120.0,3.0,0.0
8405,61.0,120.0,120.0,6.0,0.0
8406,61.0,0.0,120.0,12.0,0.0
8407,61.0,0.0,120.0,1.0,0.0
8408,68.0,0.0,480.0,0.0,0.0
8409,66.0,0.0,240.0,15.0,0.0
8410,36.0,0.0,120.0,8.0,0.0
8411,63.0,0.0,240.0,15.0,0.0
8412,63.0,0.0,240.0,3.0,0.0
8413,68.0,0.0,480.0,5.0,0.0
8414,68.0,0.0,240.0,15.0,0.0
8415,48.0,120.0,120.0,3.0,0.0
8416,68.0,0.0,480.0,11.0,0.0
8417,63.0,0.0,240.0,6.0,0.0
8418,63.0,0.0,240.0,12.0,0.0
8419,48.0,0.0,120.0,13.0,0.0
8420,63.0,0.0,240.0,1.0,0.0
8421,68.0,0.0,480.0,3.0,0.0
8422,48.0,0.0,120.0,1.0,0.0
8423,48.0,0.0,120.0,15.0,0.0
8424,51.0,0.0,120.0,1.0,0.0
8425,39.0,0.0,120.0,8.0,0.0
8426,51.0,0.0,120.0,15.0,0.0
8427,51.0,0.0,120.0,13.0,0.0
8428,51.0,0.0,120.0,3.0,0.0
8429,44.0,0.0,240.0,13.0,0.0
8430,64.0,120.0,120.0,10.0,0.0
8431,61.0,0.0,120.0,6.0,0.0
8432,61.0,0.0,120.0,1.0,0.0
8433,44.0,0.0,240.0,1.0,0.0
8434,44.0,0.0,240.0,3.0,0.0
8435,64.0,0.0,120.0,4.0,0.0
8436,64.0,0.0,120.0,0.0,0.0
8437,61.0,0.0,120.0,3.0,0.0
8438,32.0,0.0,240.0,8.0,0.0
8439,44.0,0.0,240.0,15.0,0.0
8440,64.0,0.0,120.0,15.0,0.0
8441,68.0,0.0,120.0,15.0,0.0
8442,61.0,0.0,120.0,15.0,0.0
8443,61.0,0.0,120.0,12.0,0.0
8444,60.0,0.0,120.0,12.0,0.0
8445,63.0,0.0,120.0,0.0,0.0
8446,63.0,120.0,120.0,4.0,0.0
8447,68.0,0.0,120.0,15.0,0.0
8448,63.0,0.0,120.0,15.0,0.0
8449,60.0,0.0,120.0,15.0,0.0
8450,60.0,0.0,120.0,3.0,0.0
8451,60.0,0.0,120.0,1.0,0.0
8452,63.0,0.0,120.0,10.0,0.0
8453,60.0,0.0,120.0,6.0,0.0
8454,61.0,0.0,120.0,12.0,0.0
8455,64.0,0.0,240.0,10.0,0.0
8456,61.0,0.0,120.0,6.0,0.0
8457,64.0,0.0,240.0,0.0,0.0
8458,61.0,0.0,120.0,1.0,0.0
8459,64.0,0.0,240.0,4.0,0.0
8460,64.0,0.0,240.0,3.0,0.0
8461,64.0,0.0,240.0,5.0,0.0
8462,61.0,120.0,120.0,3.0,0.0
8463,64.0,0.0,240.0,11.0,0.0
8464,49.0,0.0,120.0,1.0,0.0
8465,68.0,0.0,120.0,15.0,0.0
8466,49.0,0.0,120.0,15.0,0.0
8467,49.0,0.0,120.0,7.0,0.0
8468,49.0,120.0,120.0,3.0,0.0
8469,49.0,0.0,120.0,12.0,0.0
8470,64.0,0.0,120.0,15.0,0.0
8471,49.0,0.0,120.0,6.0,0.0
8472,69.0,0.0,240.0,0.0,0.0
8473,69.0,0.0,240.0,11.0,0.0
8474,54.0,0.0,120.0,7.0,0.0
8475,54.0,0.0,120.0,1.0,0.0
8476,69.0,0.0,240.0,5.0,0.0
8477,69.0,0.0,240.0,3.0,0.0
8478,54.0,0.0,120.0,12.0,0.0
8479,63.0,0.0,240.0,4.0,0.0
8480,54.0,120.0,120.0,15.0,0.0
8481,63.0,0.0,240.0,10.0,0.0
8482,61.0,0.0,240.0,15.0,0.0
8483,54.0,0.0,120.0,3.0,0.0
8484,63.0,0.0,240.0,0.0,0.0
8485,54.0,0.0,120.0,6.0,0.0
8486,69.0,0.0,240.0,15.0,0.0
8487,51.0,0.0,120.0,7.0,0.0
8488,51.0,0.0,120.0,1.0,0.0
8489,51.0,0.0,120.0,3.0,0.0
8490,51.0,0.0,120.0,6.0,0.0
8491,51.0,120.0,120.0,15.0,0.0
8492,51.0,0.0,120.0,12.0,0.0
8493,56.0,0.0,240.0,3.0,0.0
8494,56.0,0.0,240.0,6.0,0.0
8495,60.0,0.0,480.0,3.0,0.0
8496,56.0,120.0,120.0,15.0,0.0
8497,63.0,0.0,480.0,15.0,0.0
8498,63.0,120.0,240.0,0.0,0.0
8499,60.0,0.0,480.0,0.0,0.0
8500,56.0,0.0,240.0,12.0,0.0
8501,60.0,0.0,480.0,11.0,0.0
8502,56.0,0.0,240.0,1.0,0.0
8503,60.0,0.0,480.0,5.0,0.0
8504,63.0,0.0,240.0,4.0,0.0
8505,60.0,0.0,480.0,15.0,0.0
8506,63.0,0.0,240.0,10.0,0.0
8507,32.0,0.0,120.0,8.0,0.0
8508,44.0,0.0,120.0,3.0,0.0
8509,44.0,0.0,120.0,13.0,0.0
8510,44.0,0.0,120.0,15.0,0.0
8511,56.0,0.0,360.0,15.0,0.0
8512,44.0,0.0,120.0,1.0,0.0
8513,44.0,0.0,120.0,1.0,0.0
8514,44.0,120.0,120.0,13.0,0.0
8515,44.0,0.0,120.0,3.0,0.0
8516,44.0,0.0,120.0,15.0,0.0
8517,32.0,0.0,120.0,8.0,0.0
8518,32.0,60.0,120.0,8.0,0.0
8519,44.0,0.0,120.0,1.0,0.0
8520,44.0,0.0,120.0,15.0,0.0
8521,44.0,0.0,120.0,3.0,0.0
8522,44.0,0.0,120.0,13.0,0.0
8523,45.0,0.0,60.0,1.0,0.0
8524,65.0,0.0,240.0,15.0,0.0
8525,33.0,0.0,60.0,8.0,0.0
8526,45.0,60.0,60.0,3.0,0.0
8527,45.0,0.0,60.0,13.0,0.0
8528,61.0,0.0,240.0,3.0,0.0
8529,45.0,0.0,60.0,15.0,0.0
8530,61.0,0.0,240.0,11.0,0.0
8531,61.0,0.0,240.0,15.0,0.0
8532,61.0,0.0,240.0,5.0,0.0
8533,47.0,0.0,60.0,15.0,0.0
8534,47.0,0.0,60.0,3.0,0.0
8535,47.0,0.0,60.0,1.0,0.0
8536,47.0,0.0,60.0,13.0,0.0
8537,35.0,60.0,60.0,8.0,0.0
8538,61.0,60.0,120.0,10.0,0.0
8539,45.0,60.0,60.0,15.0,0.0
8540,45.0,0.0,60.0,1.0,0.0
8541,61.0,0.0,120.0,0.0,0.0
8542,45.0,0.0,60.0,3.0,0.0
8543,33.0,0.0,60.0,8.0,0.0
8544,61.0,0.0,60.0,4.0,0.0
8545,45.0,0.0,60.0,13.0,0.0
8546,44.0,0.0,60.0,15.0,0.0
8547,44.0,0.0,60.0,1.0,0.0
8548,32.0,0.0,60.0,8.0,0.0
8549,44.0,0.0,60.0,13.0,0.0
8550,44.0,0.0,60.0,3.0,0.0
8551,46.0,0.0,60.0,3.0,0.0
8552,66.0,0.0,120.0,10.0,0.0
8553,34.0,0.0,60.0,8.0,0.0
8554,61.0,0.0,120.0,15.0,0.0
8555,46.0,60.0,60.0,13.0,0.0
8556,66.0,0.0,120.0,15.0,0.0
8557,66.0,0.0,120.0,0.0,0.0
8558,46.0,0.0,60.0,1.0,0.0
8559,66.0,0.0,120.0,4.0,0.0
8560,46.0,0.0,60.0,15.0,0.0
8561,47.0,0.0,60.0,3.0,0.0
8562,47.0,0.0,60.0,1.0,0.0
8563,35.0,60.0,60.0,8.0,0.0
8564,47.0,0.0,60.0,15.0,0.0
8565,47.0,0.0,60.0,13.0,0.0
8566,61.0,0.0,120.0,15.0,0.0
8567,64.0,0.0,120.0,10.0,0.0
8568,64.0,60.0,120.0,4.0,0.0
8569,44.0,0.0,60.0,3.0,0.0
8570,44.0,0.0,60.0,1.0,0.0
8571,64.0,0.0,120.0,0.0,0.0
8572,64.0,0.0,120.0,15.0,0.0
8573,44.0,0.0,60.0,13.0,0.0
8574,32.0,0.0,60.0,8.0,0.0
8575,44.0,60.0,60.0,15.0,0.0
8576,46.0,0.0,60.0,13.0,0.0
8577,46.0,0.0,60.0,1.0,0.0
8578,46.0,0.0,60.0,15.0,0.0
8579,46.0,0.0,60.0,3.0,0.0
8580,34.0,0.0,60.0,8.0,0.0
8581,47.0,0.0,60.0,15.0,0.0
8582,47.0,0.0,60.0,1.0,0.0
8583,47.0,0.0,60.0,3.0,0.0
8584,63.0,0.0,120.0,0.0,0.0
8585,63.0,0.0,60.0,4.0,0.0
8586,63.0,0.0,120.0,15.0,0.0
8587,66.0,0.0,120.0,15.0,0.0
8588,35.0,60.0,60.0,8.0,0.0
8589,47.0,0.0,60.0,13.0,0.0
8590,63.0,0.0,120.0,10.0,0.0
8591,49.0,0.0,60.0,15.0,0.0
8592,49.0,0.0,60.0,3.0,0.0
8593,37.0,60.0,60.0,8.0,0.0
8594,49.0,0.0,60.0,1.0,0.0
8595,49.0,0.0,60.0,13.0,0.0
8596,47.0,0.0,60.0,15.0,0.0
8597,56.0,0.0,120.0,10.0,0.0
8598,47.0,60.0,60.0,1.0,0.0
8599,51.0,0.0,120.0,1.0,0.0
8600,47.0,0.0,60.0,3.0,0.0
8601,51.0,0.0,120.0,6.0,0.0
8602,68.0,0.0,120.0,15.0,0.0
8603,56.0,0.0,60.0,4.0,0.0
8604,51.0,0.0,120.0,3.0,0.0
8605,56.0,0.0,120.0,0.0,0.0
8606,47.0,0.0,60.0,13.0,0.0
8607,63.0,0.0,120.0,15.0,0.0
8608,35.0,0.0,60.0,8.0,0.0
8609,51.0,0.0,120.0,12.0,0.0
8610,46.0,0.0,60.0,3.0,0.0
8611,46.0,0.0,60.0,1.0,0.0
8612,46.0,0.0,60.0,13.0,0.0
8613,46.0,0.0,60.0,15.0,0.0
8614,34.0,60.0,60.0,8.0,0.0
8615,51.0,0.0,120.0,6.0,0.0
8616,63.0,0.0,120.0,15.0,0.0
8617,68.0,0.0,120.0,15.0,0.0
8618,51.0,0.0,120.0,1.0,0.0
8619,48.0,60.0,60.0,1.0,0.0
8620,51.0,0.0,120.0,12.0,0.0
8621,36.0,0.0,60.0,8.0,0.0
8622,48.0,0.0,60.0,15.0,0.0
8623,48.0,0.0,60.0,13.0,0.0
8624,48.0,0.0,60.0,3.0,0.0
8625,68.0,60.0,120.0,0.0,0.0
8626,68.0,0.0,120.0,4.0,0.0
8627,68.0,0.0,120.0,10.0,0.0
8628,51.0,0.0,120.0,3.0,0.0
8629,37.0,0.0,60.0,8.0,0.0
8630,49.0,0.0,60.0,3.0,0.0
8631,49.0,0.0,60.0,15.0,0.0
8632,49.0,0.0,60.0,1.0,0.0
8633,49.0,0.0,60.0,13.0,0.0
8634,51.0,0.0,120.0,6.0,0.0
8635,46.0,0.0,60.0,3.0,0.0
8636,66.0,0.0,120.0,4.0,0.0
8637,66.0,0.0,120.0,10.0,0.0
8638,46.0,60.0,60.0,15.0,0.0
8639,66.0,0.0,120.0,15.0,0.0
8640,63.0,0.0,120.0,15.0,0.0
8641,46.0,0.0,60.0,13.0,0.0
8642,51.0,0.0,120.0,12.0,0.0
8643,66.0,0.0,120.0,0.0,0.0
8644,51.0,60.0,120.0,3.0,0.0
8645,46.0,0.0,60.0,1.0,0.0
8646,51.0,0.0,120.0,1.0,0.0
8647,34.0,0.0,60.0,8.0,0.0
8648,36.0,0.0,60.0,8.0,0.0
8649,48.0,0.0,60.0,1.0,0.0
8650,48.0,0.0,60.0,3.0,0.0
8651,48.0,0.0,60.0,13.0,0.0
8652,48.0,0.0,60.0,15.0,0.0
8653,64.0,0.0,240.0,15.0,0.0
8654,49.0,0.0,120.0,13.0,0.0
8655,52.0,0.0,60.0,6.0,0.0
8656,52.0,0.0,60.0,12.0,0.0
8657,64.0,0.0,240.0,0.0,0.0
8658,61.0,0.0,240.0,15.0,0.0
8659,68.0,0.0,240.0,15.0,0.0
8660,64.0,60.0,240.0,10.0,0.0
8661,37.0,0.0,120.0,8.0,0.0
8662,52.0,60.0,60.0,1.0,0.0
8663,52.0,0.0,60.0,3.0,0.0
8664,49.0,60.0,120.0,1.0,0.0
8665,64.0,0.0,240.0,4.0,0.0
8666,49.0,0.0,120.0,15.0,0.0
8667,49.0,0.0,120.0,3.0,0.0
8668,54.0,0.0,60.0,12.0,0.0
8669,54.0,0.0,60.0,6.0,0.0
8670,54.0,0.0,60.0,1.0,0.0
8671,54.0,0.0,60.0,3.0,0.0
8672,52.0,0.0,60.0,3.0,0.0
8673,44.0,0.0,120.0,15.0,0.0
8674,52.0,0.0,60.0,6.0,0.0
8675,32.0,0.0,120.0,8.0,0.0
8676,44.0,0.0,120.0,1.0,0.0
8677,52.0,60.0,60.0,12.0,0.0
8678,52.0,0.0,60.0,1.0,0.0
8679,44.0,0.0,120.0,13.0,0.0
8680,44.0,0.0,120.0,3.0,0.0
8681,51.0,0.0,60.0,12.0,0.0
8682,51.0,0.0,60.0,6.0,0.0
8683,51.0,0.0,60.0,1.0,0.0
8684,51.0,0.0,60.0,3.0,0.0
8685,49.0,0.0,120.0,3.0,0.0
8686,37.0,0.0,120.0,8.0,0.0
8687,49.0,0.0,120.0,1.0,0.0
8688,53.0,0.0,60.0,3.0,0.0
8689,68.0,0.0,240.0,15.0,0.0
8690,61.0,0.0,240.0,15.0,0.0
8691,53.0,0.0,60.0,1.0,0.0
8692,53.0,0.0,60.0,12.0,0.0
8693,49.0,0.0,120.0,13.0,0.0
8694,53.0,60.0,60.0,6.0,0.0
8695,49.0,0.0,120.0,15.0,0.0
8696,65.0,0.0,240.0,15.0,0.0
8697,54.0,60.0,60.0,3.0,0.0
8698,54.0,0.0,60.0,1.0,0.0
8699,54.0,0.0,60.0,6.0,0.0
8700,54.0,0.0,60.0,12.0,0.0
8701,47.0,0.0,120.0,13.0,0.0
8702,47.0,0.0,120.0,15.0,0.0
8703,51.0,0.0,60.0,3.0,0.0
8704,51.0,0.0,60.0,1.0,0.0
8705,35.0,0.0,120.0,8.0,0.0
8706,51.0,0.0,60.0,6.0,0.0
8707,47.0,0.0,120.0,1.0,0.0
8708,47.0,60.0,120.0,3.0,0.0
8709,51.0,60.0,60.0,12.0,0.0
8710,53.0,0.0,60.0,3.0,0.0
8711,53.0,0.0,60.0,1.0,0.0
8712,53.0,0.0,60.0,6.0,0.0
8713,53.0,0.0,60.0,12.0,0.0
8714,54.0,0.0,60.0,1.0,0.0
8715,34.0,0.0,120.0,8.0,0.0
8716,66.0,0.0,240.0,15.0,0.0
8717,61.0,0.0,240.0,15.0,0.0
8718,46.0,60.0,120.0,15.0,0.0
8719,46.0,0.0,120.0,13.0,0.0
8720,54.0,0.0,60.0,3.0,0.0
8721,46.0,0.0,120.0,1.0,0.0
8722,54.0,60.0,60.0,6.0,0.0
8723,54.0,0.0,60.0,12.0,0.0
8724,46.0,0.0,120.0,3.0,0.0
8725,56.0,0.0,60.0,6.0,0.0
8726,56.0,0.0,60.0,12.0,0.0
8727,56.0,0.0,60.0,1.0,0.0
8728,56.0,0.0,60.0,3.0,0.0
8729,58.0,0.0,120.0,3.0,0.0
8730,27.0,0.0,120.0,8.0,0.0
8731,58.0,60.0,120.0,11.0,0.0
8732,39.0,0.0,120.0,3.0,0.0
8733,54.0,0.0,60.0,6.0,0.0
8734,58.0,0.0,120.0,0.0,0.0
8735,39.0,0.0,120.0,13.0,0.0
8736,54.0,0.0,60.0,12.0,0.0
8737,39.0,0.0,120.0,1.0,0.0
8738,54.0,0.0,60.0,1.0,0.0
8739,39.0,0.0,120.0,15.0,0.0
8740,58.0,0.0,120.0,5.0,0.0
8741,54.0,60.0,60.0,3.0,0.0
8742,53.0,0.0,60.0,1.0,0.0
8743,53.0,0.0,60.0,6.0,0.0
8744,53.0,0.0,60.0,3.0,0.0
8745,53.0,0.0,60.0,12.0,0.0
8746,55.0,0.0,60.0,6.0,0.0
8747,55.0,0.0,60.0,12.0,0.0
8748,58.0,0.0,120.0,0.0,0.0
8749,55.0,0.0,60.0,3.0,0.0
8750,51.0,60.0,120.0,15.0,0.0
8751,67.0,0.0,240.0,15.0,0.0
8752,58.0,0.0,240.0,15.0,0.0
8753,51.0,0.0,120.0,3.0,0.0
8754,51.0,0.0,120.0,13.0,0.0
8755,39.0,0.0,120.0,8.0,0.0
8756,58.0,0.0,120.0,11.0,0.0
8757,58.0,0.0,120.0,5.0,0.0
8758,58.0,0.0,120.0,3.0,0.0
8759,51.0,0.0,120.0,1.0,0.0
8760,55.0,60.0,60.0,1.0,0.0
8761,56.0,0.0,60.0,6.0,0.0
8762,56.0,0.0,60.0,12.0,0.0
8763,56.0,0.0,60.0,3.0,0.0
8764,56.0,0.0,60.0,1.0,0.0
8765,53.0,0.0,60.0,12.0,0.0
8766,49.0,0.0,120.0,1.0,0.0
8767,58.0,0.0,120.0,3.0,0.0
8768,37.0,0.0,120.0,8.0,0.0
8769,58.0,0.0,120.0,5.0,0.0
8770,58.0,0.0,120.0,11.0,0.0
8771,49.0,60.0,120.0,15.0,0.0
8772,49.0,0.0,120.0,13.0,0.0
8773,53.0,60.0,60.0,3.0,0.0
8774,49.0,0.0,120.0,3.0,0.0
8775,58.0,0.0,120.0,0.0,0.0
8776,53.0,0.0,60.0,6.0,0.0
8777,53.0,0.0,60.0,1.0,0.0
8778,55.0,0.0,60.0,3.0,0.0
8779,55.0,0.0,60.0,1.0,0.0
8780,55.0,0.0,60.0,12.0,0.0
8781,55.0,0.0,60.0,6.0,0.0
8782,47.0,60.0,240.0,3.0,0.0
8783,47.0,0.0,240.0,13.0,0.0
8784,56.0,0.0,120.0,12.0,0.0
8785,56.0,0.0,120.0,6.0,0.0
8786,35.0,0.0,120.0,8.0,0.0
8787,56.0,0.0,120.0,15.0,0.0
8788,56.0,0.0,120.0,3.0,0.0
8789,63.0,0.0,120.0,15.0,0.0
8790,59.0,60.0,60.0,3.0,0.0
8791,59.0,0.0,60.0,11.0,0.0
8792,47.0,0.0,120.0,15.0,0.0
8793,56.0,0.0,120.0,1.0,0.0
8794,47.0,0.0,240.0,1.0,0.0
8795,59.0,0.0,60.0,0.0,0.0
8796,59.0,0.0,60.0,5.0,0.0
8797,61.0,0.0,60.0,0.0,0.0
8798,61.0,60.0,60.0,5.0,0.0
8799,61.0,0.0,60.0,3.0,0.0
8800,61.0,0.0,60.0,11.0,0.0
8801,51.0,0.0,120.0,6.0,0.0
8802,59.0,60.0,60.0,0.0,0.0
8803,59.0,0.0,60.0,5.0,0.0
8804,51.0,0.0,120.0,12.0,0.0
8805,51.0,0.0,120.0,7.0,0.0
8806,59.0,0.0,60.0,3.0,0.0
8807,58.0,0.0,120.0,15.0,0.0
8808,59.0,0.0,60.0,11.0,0.0
8809,51.0,0.0,120.0,3.0,0.0
8810,66.0,0.0,120.0,15.0,0.0
8811,51.0,0.0,120.0,15.0,0.0
8812,51.0,0.0,120.0,1.0,0.0
8813,58.0,0.0,60.0,0.0,0.0
8814,58.0,0.0,60.0,11.0,0.0
8815,58.0,0.0,60.0,5.0,0.0
8816,58.0,0.0,60.0,3.0,0.0
8817,60.0,0.0,60.0,0.0,0.0
8818,56.0,0.0,120.0,15.0,0.0
8819,60.0,0.0,60.0,11.0,0.0
8820,60.0,0.0,240.0,15.0,0.0
8821,60.0,0.0,60.0,5.0,0.0
8822,56.0,0.0,120.0,3.0,0.0
8823,56.0,0.0,120.0,6.0,0.0
8824,56.0,0.0,120.0,12.0,0.0
8825,63.0,0.0,240.0,15.0,0.0
8826,56.0,0.0,120.0,1.0,0.0
8827,60.0,60.0,60.0,3.0,0.0
8828,56.0,0.0,120.0,7.0,0.0
8829,61.0,0.0,60.0,11.0,0.0
8830,61.0,60.0,60.0,0.0,0.0
8831,61.0,0.0,60.0,3.0,0.0
8832,61.0,0.0,60.0,5.0,0.0
8833,54.0,0.0,120.0,15.0,0.0
8834,54.0,0.0,120.0,1.0,0.0
8835,54.0,0.0,120.0,6.0,0.0
8836,54.0,0.0,120.0,7.0,0.0
8837,54.0,0.0,120.0,12.0,0.0
8838,58.0,60.0,60.0,5.0,0.0
8839,58.0,0.0,60.0,11.0,0.0
8840,58.0,0.0,60.0,3.0,0.0
8841,54.0,0.0,120.0,3.0,0.0
8842,58.0,0.0,60.0,0.0,0.0
8843,60.0,0.0,60.0,11.0,0.0
8844,60.0,60.0,60.0,3.0,0.0
8845,60.0,0.0,60.0,0.0,0.0
8846,60.0,0.0,60.0,5.0,0.0
8847,53.0,0.0,120.0,15.0,0.0
8848,61.0,60.0,60.0,11.0,0.0
8849,53.0,60.0,120.0,12.0,0.0
8850,53.0,0.0,120.0,7.0,0.0
8851,61.0,0.0,60.0,3.0,0.0
8852,53.0,0.0,120.0,3.0,0.0
8853,53.0,0.0,120.0,1.0,0.0
8854,61.0,0.0,60.0,5.0,0.0
8855,56.0,0.0,240.0,15.0,0.0
8856,61.0,60.0,240.0,15.0,0.0
8857,61.0,0.0,60.0,0.0,0.0
8858,53.0,0.0,120.0,6.0,0.0
8859,63.0,0.0,60.0,0.0,0.0
8860,63.0,0.0,60.0,3.0,0.0
8861,63.0,0.0,60.0,5.0,0.0
8862,63.0,0.0,60.0,11.0,0.0
8863,46.0,0.0,120.0,3.0,0.0
8864,61.0,60.0,60.0,0.0,0.0
8865,65.0,0.0,120.0,4.0,0.0
8866,61.0,0.0,60.0,5.0,0.0
8867,61.0,0.0,60.0,11.0,0.0
8868,46.0,0.0,120.0,12.0,0.0
8869,65.0,0.0,120.0,10.0,0.0
8870,61.0,0.0,60.0,3.0,0.0
8871,65.0,0.0,120.0,0.0,0.0
8872,46.0,0.0,120.0,6.0,0.0
8873,46.0,0.0,120.0,1.0,0.0
8874,46.0,0.0,120.0,7.0,0.0
8875,46.0,0.0,120.0,15.0,0.0
8876,60.0,0.0,60.0,11.0,0.0
8877,60.0,0.0,60.0,0.0,0.0
8878,60.0,0.0,60.0,3.0,0.0
8879,60.0,0.0,60.0,5.0,0.0
8880,58.0,0.0,120.0,6.0,0.0
8881,62.0,0.0,60.0,5.0,0.0
8882,54.0,0.0,120.0,7.0,0.0
8883,62.0,0.0,60.0,11.0,0.0
8884,58.0,0.0,120.0,12.0,0.0
8885,58.0,0.0,120.0,1.0,0.0
8886,62.0,0.0,60.0,0.0,0.0
8887,65.0,0.0,240.0,15.0,0.0
8888,58.0,0.0,120.0,3.0,0.0
8889,65.0,0.0,120.0,0.0,0.0
8890,62.0,0.0,240.0,15.0,0.0
8891,62.0,60.0,60.0,3.0,0.0
8892,65.0,0.0,120.0,4.0,0.0
8893,58.0,60.0,120.0,15.0,0.0
8894,65.0,0.0,120.0,10.0,0.0
8895,63.0,0.0,60.0,3.0,0.0
8896,63.0,0.0,60.0,11.0,0.0
8897,63.0,0.0,60.0,0.0,0.0
8898,63.0,0.0,60.0,5.0,0.0
8899,65.0,0.0,120.0,10.0,0.0
8900,60.0,0.0,60.0,11.0,0.0
8901,65.0,0.0,120.0,0.0,0.0
8902,60.0,0.0,60.0,3.0,0.0
8903,56.0,60.0,120.0,15.0,0.0
8904,60.0,60.0,60.0,0.0,0.0
8905,56.0,0.0,120.0,6.0,0.0
8906,56.0,0.0,120.0,12.0,0.0
8907,56.0,0.0,120.0,1.0,0.0
8908,65.0,0.0,120.0,4.0,0.0
8909,53.0,0.0,120.0,7.0,0.0
8910,60.0,0.0,60.0,5.0,0.0
8911,56.0,0.0,120.0,3.0,0.0
8912,62.0,0.0,60.0,3.0,0.0
8913,62.0,0.0,60.0,11.0,0.0
8914,62.0,0.0,60.0,5.0,0.0
8915,62.0,0.0,60.0,0.0,0.0
8916,66.0,60.0,60.0,4.0,0.0
8917,63.0,0.0,120.0,5.0,0.0
8918,70.0,0.0,240.0,15.0,0.0
8919,54.0,0.0,240.0,1.0,0.0
8920,54.0,0.0,240.0,12.0,0.0
8921,66.0,0.0,60.0,0.0,0.0
8922,63.0,60.0,120.0,0.0,0.0
8923,54.0,0.0,120.0,15.0,0.0
8924,54.0,0.0,240.0,3.0,0.0
8925,54.0,0.0,240.0,6.0,0.0
8926,50.0,0.0,120.0,7.0,0.0
8927,63.0,0.0,240.0,15.0,0.0
8928,66.0,0.0,60.0,10.0,0.0
8929,63.0,0.0,120.0,3.0,0.0
8930,63.0,0.0,120.0,11.0,0.0
8931,68.0,0.0,60.0,10.0,0.0
8932,68.0,0.0,60.0,0.0,0.0
8933,68.0,0.0,60.0,4.0,0.0
8934,54.0,0.0,120.0,7.0,0.0
8935,58.0,0.0,120.0,15.0,0.0
8936,58.0,0.0,120.0,3.0,0.0
8937,58.0,0.0,120.0,5.0,0.0
8938,66.0,0.0,60.0,10.0,0.0
8939,66.0,0.0,60.0,0.0,0.0
8940,58.0,0.0,120.0,0.0,0.0
8941,66.0,60.0,60.0,4.0,0.0
8942,58.0,0.0,120.0,11.0,0.0
8943,65.0,0.0,60.0,10.0,0.0
8944,65.0,60.0,60.0,0.0,0.0
8945,65.0,0.0,60.0,4.0,0.0
8946,63.0,60.0,120.0,5.0,0.0
8947,63.0,0.0,120.0,15.0,0.0
8948,63.0,0.0,120.0,11.0,0.0
8949,63.0,0.0,120.0,7.0,0.0
8950,70.0,0.0,240.0,15.0,0.0
8951,63.0,0.0,120.0,0.0,0.0
8952,67.0,0.0,60.0,0.0,0.0
8953,67.0,60.0,60.0,4.0,0.0
8954,67.0,0.0,240.0,15.0,0.0
8955,67.0,0.0,60.0,10.0,0.0
8956,63.0,0.0,120.0,3.0,0.0
8957,68.0,0.0,60.0,10.0,0.0
8958,68.0,0.0,60.0,0.0,0.0
8959,68.0,0.0,60.0,4.0,0.0
8960,65.0,0.0,60.0,4.0,0.0
8961,65.0,0.0,60.0,10.0,0.0
8962,61.0,0.0,120.0,0.0,0.0
8963,65.0,60.0,60.0,0.0,0.0
8964,61.0,0.0,120.0,11.0,0.0
8965,61.0,0.0,120.0,7.0,0.0
8966,61.0,0.0,120.0,15.0,0.0
8967,61.0,60.0,120.0,3.0,0.0
8968,61.0,0.0,120.0,5.0,0.0
8969,67.0,0.0,60.0,0.0,0.0
8970,67.0,0.0,60.0,4.0,0.0
8971,67.0,0.0,60.0,10.0,0.0
8972,68.0,0.0,60.0,0.0,0.0
8973,60.0,0.0,120.0,0.0,0.0
8974,68.0,60.0,60.0,4.0,0.0
8975,68.0,0.0,120.0,15.0,0.0
8976,60.0,0.0,120.0,15.0,0.0
8977,68.0,0.0,60.0,10.0,0.0
8978,60.0,0.0,120.0,7.0,0.0
8979,63.0,0.0,120.0,15.0,0.0
8980,60.0,0.0,120.0,3.0,0.0
8981,60.0,0.0,120.0,11.0,0.0
8982,60.0,60.0,120.0,5.0,0.0
8983,70.0,0.0,60.0,0.0,0.0
8984,70.0,0.0,60.0,10.0,0.0
8985,70.0,0.0,60.0,4.0,0.0
8986,51.0,60.0,120.0,1.0,0.0
8987,68.0,0.0,120.0,15.0,0.0
8988,48.0,0.0,120.0,15.0,0.0
8989,51.0,0.0,120.0,6.0,0.0
8990,48.0,0.0,120.0,3.0,0.0
8991,53.0,0.0,120.0,11.0,0.0
8992,53.0,0.0,120.0,3.0,0.0
8993,68.0,0.0,60.0,4.0,0.0
8994,51.0,0.0,120.0,3.0,0.0
8995,68.0,0.0,60.0,0.0,0.0
8996,53.0,0.0,120.0,0.0,0.0
8997,48.0,0.0,120.0,13.0,0.0
8998,68.0,60.0,60.0,10.0,0.0
8999,36.0,0.0,120.0,8.0,0.0
9000,48.0,0.0,120.0,1.0,0.0
9001,65.0,0.0,240.0,15.0,0.0
9002,53.0,0.0,120.0,5.0,0.0
9003,51.0,0.0,120.0,12.0,0.0
9004,67.0,0.0,60.0,0.0,0.0
9005,67.0,0.0,60.0,10.0,0.0
9006,67.0,0.0,60.0,4.0,0.0
9007,36.0,0.0,120.0,8.0,0.0
9008,48.0,0.0,120.0,13.0,0.0
9009,69.0,0.0,60.0,4.0,0.0
9010,65.0,0.0,120.0,5.0,0.0
9011,65.0,0.0,120.0,11.0,0.0
9012,51.0,0.0,120.0,6.0,0.0
9013,48.0,0.0,120.0,3.0,0.0
9014,51.0,0.0,120.0,3.0,0.0
9015,51.0,0.0,120.0,12.0,0.0
9016,48.0,0.0,120.0,1.0,0.0
9017,48.0,0.0,120.0,15.0,0.0
9018,69.0,0.0,240.0,15.0,0.0
9019,51.0,0.0,120.0,1.0,0.0
9020,69.0,60.0,60.0,10.0,0.0
9021,69.0,0.0,60.0,0.0,0.0
9022,65.0,60.0,120.0,3.0,0.0
9023,65.0,0.0,120.0,0.0,0.0
9024,70.0,0.0,60.0,4.0,0.0
9025,70.0,0.0,60.0,10.0,0.0
9026,70.0,0.0,60.0,0.0,0.0
9027,53.0,0.0,120.0,12.0,0.0
9028,63.0,0.0,120.0,11.0,0.0
9029,63.0,0.0,120.0,0.0,0.0
9030,53.0,0.0,120.0,3.0,0.0
9031,48.0,0.0,120.0,3.0,0.0
9032,67.0,0.0,60.0,4.0,0.0
9033,63.0,0.0,120.0,5.0,0.0
9034,67.0,0.0,60.0,10.0,0.0
9035,67.0,60.0,60.0,0.0,0.0
9036,48.0,0.0,120.0,1.0,0.0
9037,48.0,0.0,120.0,13.0,0.0
9038,36.0,0.0,120.0,8.0,0.0
9039,63.0,0.0,120.0,3.0,0.0
9040,63.0,0.0,120.0,15.0,0.0
9041,48.0,0.0,120.0,15.0,0.0
9042,53.0,0.0,120.0,1.0,0.0
9043,53.0,0.0,120.0,6.0,0.0
9044,69.0,60.0,60.0,0.0,0.0
9045,69.0,0.0,60.0,10.0,0.0
9046,69.0,0.0,60.0,4.0,0.0
9047,61.0,60.0,240.0,5.0,0.0
9048,70.0,0.0,120.0,0.0,0.0
9049,61.0,0.0,240.0,0.0,0.0
9050,53.0,0.0,240.0,15.0,0.0
9051,53.0,0.0,120.0,1.0,0.0
9052,37.0,60.0,60.0,8.0,0.0
9053,61.0,0.0,240.0,11.0,0.0
9054,53.0,0.0,120.0,3.0,0.0
9055,49.0,0.0,60.0,15.0,0.0
9056,70.0,0.0,240.0,15.0,0.0
9057,61.0,0.0,240.0,15.0,0.0
9058,70.0,0.0,120.0,4.0,0.0
9059,49.0,0.0,60.0,3.0,0.0
9060,70.0,0.0,120.0,10.0,0.0
9061,49.0,0.0,60.0,1.0,0.0
9062,61.0,0.0,240.0,3.0,0.0
9063,53.0,0.0,120.0,6.0,0.0
9064,49.0,0.0,60.0,13.0,0.0
9065,53.0,0.0,120.0,12.0,0.0
9066,51.0,0.0,60.0,15.0,0.0
9067,39.0,0.0,60.0,8.0,0.0
9068,51.0,60.0,60.0,3.0,0.0
9069,51.0,0.0,60.0,13.0,0.0
9070,51.0,0.0,60.0,1.0,0.0
9071,49.0,0.0,60.0,3.0,0.0
9072,65.0,0.0,120.0,10.0,0.0
9073,53.0,0.0,120.0,3.0,0.0
9074,53.0,0.0,120.0,1.0,0.0
9075,49.0,0.0,60.0,15.0,0.0
9076,49.0,0.0,60.0,1.0,0.0
9077,37.0,60.0,60.0,8.0,0.0
9078,53.0,0.0,120.0,6.0,0.0
9079,49.0,0.0,60.0,13.0,0.0
9080,65.0,0.0,120.0,4.0,0.0
9081,53.0,0.0,120.0,12.0,0.0
9082,65.0,0.0,120.0,0.0,0.0
9083,48.0,0.0,60.0,1.0,0.0
9084,48.0,0.0,60.0,13.0,0.0
9085,48.0,0.0,60.0,15.0,0.0
9086,48.0,0.0,60.0,3.0,0.0
9087,36.0,0.0,60.0,8.0,0.0
9088,53.0,0.0,120.0,1.0,0.0
9089,70.0,0.0,120.0,10.0,0.0
9090,65.0,0.0,120.0,15.0,0.0
9091,50.0,60.0,60.0,15.0,0.0
9092,53.0,0.0,120.0,15.0,0.0
9093,65.0,0.0,240.0,3.0,0.0
9094,70.0,0.0,120.0,15.0,0.0
9095,53.0,60.0,120.0,12.0,0.0
9096,50.0,0.0,60.0,1.0,0.0
9097,50.0,0.0,60.0,13.0,0.0
9098,65.0,0.0,240.0,0.0,0.0
9099,50.0,0.0,60.0,3.0,0.0
9100,65.0,0.0,240.0,5.0,0.0
9101,38.0,0.0,60.0,8.0,0.0
9102,70.0,0.0,120.0,4.0,0.0
9103,53.0,0.0,120.0,3.0,0.0
9104,53.0,0.0,120.0,6.0,0.0
9105,70.0,0.0,120.0,0.0,0.0
9106,65.0,0.0,240.0,11.0,0.0
9107,51.0,0.0,60.0,3.0,0.0
9108,39.0,0.0,60.0,8.0,0.0
9109,51.0,0.0,60.0,15.0,0.0
9110,51.0,0.0,60.0,1.0,0.0
9111,51.0,0.0,60.0,13.0,0.0
9112,65.0,0.0,120.0,15.0,0.0
9113,60.0,0.0,120.0,15.0,0.0
9114,53.0,0.0,120.0,3.0,0.0
9115,53.0,0.0,120.0,6.0,0.0
9116,53.0,0.0,120.0,12.0,0.0
9117,36.0,0.0,60.0,8.0,0.0
9118,68.0,0.0,120.0,0.0,0.0
9119,68.0,0.0,120.0,15.0,0.0
9120,48.0,0.0,60.0,15.0,0.0
9121,68.0,0.0,120.0,10.0,0.0
9122,53.0,0.0,120.0,1.0,0.0
9123,48.0,0.0,60.0,1.0,0.0
9124,48.0,60.0,60.0,3.0,0.0
9125,48.0,0.0,60.0,13.0,0.0
9126,68.0,0.0,120.0,4.0,0.0
9127,50.0,0.0,60.0,15.0,0.0
9128,50.0,0.0,60.0,3.0,0.0
9129,38.0,0.0,60.0,8.0,0.0
9130,50.0,0.0,60.0,1.0,0.0
9131,50.0,60.0,60.0,13.0,0.0
9132,67.0,0.0,120.0,10.0,0.0
9133,67.0,0.0,120.0,15.0,0.0
9134,58.0,0.0,120.0,5.0,0.0
9135,51.0,0.0,60.0,1.0,0.0
9136,55.0,0.0,480.0,3.0,0.0
9137,58.0,0.0,120.0,11.0,0.0
9138,55.0,0.0,480.0,1.0,0.0
9139,51.0,0.0,60.0,13.0,0.0
9140,51.0,0.0,60.0,3.0,0.0
9141,51.0,60.0,60.0,15.0,0.0
9142,39.0,0.0,60.0,8.0,0.0
9143,58.0,0.0,120.0,3.0,0.0
9144,55.0,0.0,480.0,12.0,0.0
9145,55.0,0.0,480.0,6.0,0.0
9146,67.0,0.0,120.0,4.0,0.0
9147,67.0,0.0,120.0,0.0,0.0
9148,58.0,0.0,120.0,0.0,0.0
9149,58.0,0.0,120.0,15.0,0.0
9150,55.0,0.0,120.0,15.0,0.0
9151,41.0,0.0,60.0,8.0,0.0
9152,53.0,0.0,60.0,15.0,0.0
9153,53.0,60.0,60.0,1.0,0.0
9154,53.0,0.0,60.0,13.0,0.0
9155,53.0,0.0,60.0,3.0,0.0
9156,51.0,0.0,60.0,1.0,0.0
9157,67.0,0.0,120.0,0.0,0.0
9158,60.0,0.0,120.0,0.0,0.0
9159,67.0,0.0,120.0,5.0,0.0
9160,51.0,0.0,60.0,13.0,0.0
9161,60.0,0.0,120.0,4.0,0.0
9162,67.0,0.0,120.0,3.0,0.0
9163,60.0,0.0,120.0,10.0,0.0
9164,67.0,0.0,120.0,15.0,0.0
9165,51.0,0.0,60.0,3.0,0.0
9166,51.0,0.0,60.0,15.0,0.0
9167,55.0,0.0,120.0,15.0,0.0
9168,39.0,60.0,60.0,8.0,0.0
9169,67.0,0.0,120.0,11.0,0.0
9170,60.0,0.0,120.0,15.0,0.0
9171,50.0,0.0,60.0,3.0,0.0
9172,50.0,0.0,60.0,1.0,0.0
9173,50.0,0.0,60.0,15.0,0.0
9174,50.0,60.0,60.0,13.0,0.0
9175,37.0,0.0,60.0,8.0,0.0
9176,72.0,0.0,120.0,10.0,0.0
9177,40.0,0.0,60.0,8.0,0.0
9178,67.0,0.0,240.0,11.0,0.0
9179,52.0,0.0,60.0,3.0,0.0
9180,72.0,0.0,120.0,0.0,0.0
9181,52.0,60.0,60.0,13.0,0.0
9182,52.0,0.0,60.0,1.0,0.0
9183,72.0,60.0,120.0,4.0,0.0
9184,67.0,120.0,240.0,5.0,0.0
9185,52.0,0.0,60.0,15.0,0.0
9186,67.0,0.0,240.0,0.0,0.0
9187,67.0,0.0,240.0,15.0,0.0
9188,70.0,0.0,120.0,15.0,0.0
9189,64.0,0.0,120.0,15.0,0.0
9190,67.0,0.0,240.0,3.0,0.0
9191,53.0,0.0,60.0,3.0,0.0
9192,41.0,0.0,60.0,8.0,0.0
9193,53.0,0.0,60.0,15.0,0.0
9194,53.0,0.0,60.0,13.0,0.0
9195,53.0,0.0,60.0,1.0,0.0
9196,70.0,0.0,120.0,15.0,0.0
9197,50.0,60.0,60.0,15.0,0.0
9198,50.0,0.0,60.0,1.0,0.0
9199,70.0,0.0,120.0,4.0,0.0
9200,50.0,0.0,60.0,3.0,0.0
9201,62.0,0.0,120.0,15.0,0.0
9202,38.0,0.0,60.0,8.0,0.0
9203,70.0,0.0,120.0,0.0,0.0
9204,50.0,0.0,60.0,13.0,0.0
9205,70.0,0.0,120.0,10.0,0.0
9206,40.0,0.0,60.0,8.0,0.0
9207,52.0,0.0,60.0,1.0,0.0
9208,51.0,0.0,60.0,15.0,0.0
9209,52.0,0.0,60.0,13.0,0.0
9210,52.0,0.0,60.0,3.0,0.0
9211,69.0,120.0,240.0,0.0,0.0
9212,57.0,0.0,120.0,3.0,0.0
9213,57.0,0.0,120.0,1.0,0.0
9214,53.0,0.0,360.0,15.0,0.0
9215,60.0,0.0,120.0,3.0,0.0
9216,41.0,0.0,240.0,8.0,0.0
9217,60.0,0.0,120.0,5.0,0.0
9218,60.0,0.0,120.0,0.0,0.0
9219,69.0,0.0,240.0,15.0,0.0
9220,57.0,0.0,240.0,15.0,0.0
9221,60.0,0.0,120.0,11.0,0.0
9222,60.0,0.0,240.0,15.0,0.0
9223,53.0,0.0,240.0,13.0,0.0
9224,69.0,0.0,240.0,10.0,0.0
9225,69.0,0.0,240.0,4.0,0.0
9226,57.0,120.0,120.0,12.0,0.0
9227,57.0,0.0,120.0,6.0,0.0
9228,57.0,0.0,120.0,5.0,0.0
9229,57.0,0.0,120.0,3.0,0.0
9230,57.0,0.0,120.0,11.0,0.0
9231,41.0,0.0,120.0,14.0,0.0
9232,53.0,0.0,120.0,6.0,0.0
9233,53.0,0.0,120.0,3.0,0.0
9234,65.0,0.0,120.0,2.0,0.0
9235,53.0,0.0,120.0,12.0,0.0
9236,53.0,0.0,120.0,1.0,0.0
9237,57.0,0.0,120.0,0.0,0.0
9238,55.0,0.0,120.0,6.0,0.0
9239,53.0,0.0,240.0,1.0,0.0
9240,55.0,0.0,120.0,1.0,0.0
9241,55.0,0.0,120.0,15.0,0.0
9242,41.0,0.0,120.0,14.0,0.0
9243,53.0,0.0,240.0,3.0,0.0
9244,55.0,0.0,120.0,12.0,0.0
9245,58.0,0.0,120.0,11.0,0.0
9246,58.0,120.0,120.0,5.0,0.0
9247,58.0,0.0,120.0,15.0,0.0
9248,58.0,0.0,120.0,3.0,0.0
9249,55.0,0.0,120.0,3.0,0.0
9250,65.0,0.0,120.0,2.0,0.0
9251,58.0,0.0,120.0,0.0,0.0
9252,41.0,0.0,240.0,8.0,0.0
9253,53.0,0.0,240.0,13.0,0.0
9254,41.0,0.0,120.0,14.0,0.0
9255,57.0,0.0,120.0,6.0,0.0
9256,57.0,0.0,120.0,1.0,0.0
9257,60.0,0.0,120.0,11.0,0.0
9258,57.0,0.0,120.0,3.0,0.0
9259,60.0,120.0,120.0,5.0,0.0
9260,60.0,0.0,120.0,3.0,0.0
9261,60.0,0.0,120.0,0.0,0.0
9262,60.0,0.0,120.0,15.0,0.0
9263,57.0,0.0,120.0,15.0,0.0
9264,65.0,0.0,120.0,2.0,0.0
9265,57.0,0.0,120.0,12.0,0.0
9266,53.0,0.0,120.0,15.0,0.0
9267,49.0,0.0,240.0,3.0,0.0
9268,61.0,60.0,120.0,3.0,0.0
9269,58.0,0.0,240.0,2.0,0.0
9270,58.0,0.0,480.0,12.0,0.0
9271,49.0,0.0,240.0,1.0,0.0
9272,46.0,0.0,240.0,14.0,0.0
9273,61.0,0.0,120.0,0.0,0.0
9274,58.0,0.0,480.0,3.0,0.0
9275,37.0,0.0,240.0,8.0,0.0
9276,61.0,0.0,120.0,5.0,0.0
9277,58.0,0.0,480.0,1.0,0.0
9278,58.0,0.0,480.0,6.0,0.0
9279,49.0,0.0,240.0,13.0,0.0
9280,61.0,0.0,120.0,11.0,0.0
9281,49.0,120.0,240.0,15.0,0.0
9282,58.0,0.0,240.0,15.0,0.0
9283,65.0,0.0,240.0,15.0,0.0
9284,60.0,0.0,60.0,11.0,0.0
9285,60.0,0.0,60.0,0.0,0.0
9286,60.0,60.0,60.0,3.0,0.0
9287,60.0,0.0,60.0,5.0,0.0
9288,61.0,0.0,60.0,0.0,0.0
9289,61.0,0.0,60.0,5.0,0.0
9290,61.0,0.0,60.0,11.0,0.0
9291,61.0,0.0,60.0,3.0,0.0
9292,54.0,0.0,240.0,13.0,0.0
9293,54.0,0.0,240.0,3.0,0.0
9294,54.0,0.0,240.0,15.0,0.0
9295,58.0,0.0,240.0,15.0,0.0
9296,63.0,0.0,240.0,15.0,0.0
9297,63.0,0.0,120.0,5.0,0.0
9298,63.0,0.0,120.0,0.0,0.0
9299,54.0,0.0,240.0,1.0,0.0
9300,63.0,60.0,120.0,11.0,0.0
9301,63.0,0.0,120.0,3.0,0.0
9302,42.0,0.0,240.0,8.0,0.0
9303,61.0,0.0,60.0,5.0,0.0
9304,61.0,0.0,60.0,0.0,0.0
9305,61.0,60.0,60.0,3.0,0.0
9306,61.0,0.0,60.0,11.0,0.0
9307,63.0,0.0,60.0,11.0,0.0
9308,63.0,120.0,60.0,5.0,0.0
9309,63.0,0.0,60.0,0.0,0.0
9310,63.0,0.0,60.0,3.0,0.0
9311,33.0,60.0,480.0,8.0,0.0
9312,65.0,0.0,120.0,0.0,0.0
9313,45.0,0.0,480.0,3.0,0.0
9314,65.0,0.0,120.0,15.0,0.0
9315,60.0,0.0,480.0,15.0,0.0
9316,45.0,120.0,360.0,15.0,0.0
9317,60.0,0.0,240.0,3.0,0.0
9318,60.0,0.0,240.0,6.0,0.0
9319,65.0,0.0,120.0,11.0,0.0
9320,45.0,0.0,480.0,13.0,0.0
9321,45.0,0.0,480.0,1.0,0.0
9322,60.0,0.0,240.0,1.0,0.0
9323,65.0,0.0,120.0,3.0,0.0
9324,65.0,120.0,120.0,5.0,0.0
9325,60.0,0.0,240.0,12.0,0.0
9326,66.0,0.0,120.0,5.0,0.0
9327,72.0,0.0,120.0,15.0,0.0
9328,66.0,0.0,120.0,15.0,0.0
9329,72.0,0.0,120.0,4.0,0.0
9330,66.0,120.0,120.0,11.0,0.0
9331,66.0,0.0,120.0,0.0,0.0
9332,66.0,0.0,120.0,3.0,0.0
9333,72.0,0.0,120.0,10.0,0.0
9334,53.0,0.0,360.0,6.0,0.0
9335,72.0,0.0,120.0,4.0,0.0
9336,53.0,0.0,360.0,12.0,0.0
9337,65.0,0.0,120.0,3.0,0.0
9338,53.0,0.0,360.0,3.0,0.0
9339,72.0,0.0,120.0,10.0,0.0
9340,65.0,0.0,120.0,11.0,0.0
9341,65.0,0.0,120.0,15.0,0.0
9342,72.0,0.0,120.0,15.0,0.0
9343,65.0,0.0,120.0,0.0,0.0
9344,53.0,60.0,360.0,1.0,0.0
9345,65.0,0.0,120.0,5.0,0.0
9346,45.0,0.0,120.0,15.0,0.0
9347,63.0,0.0,120.0,3.0,0.0
9348,72.0,0.0,120.0,15.0,0.0
9349,63.0,0.0,120.0,11.0,0.0
9350,63.0,0.0,120.0,0.0,0.0
9351,72.0,0.0,120.0,4.0,0.0
9352,63.0,0.0,120.0,15.0,0.0
9353,72.0,0.0,120.0,10.0,0.0
9354,63.0,0.0,120.0,5.0,0.0
9355,61.0,0.0,120.0,3.0,0.0
9356,73.0,60.0,60.0,4.0,0.0
9357,46.0,0.0,240.0,1.0,0.0
9358,73.0,0.0,60.0,10.0,0.0
9359,46.0,0.0,240.0,3.0,0.0
9360,73.0,60.0,240.0,15.0,0.0
9361,61.0,0.0,240.0,15.0,0.0
9362,65.0,0.0,240.0,15.0,0.0
9363,46.0,0.0,240.0,15.0,0.0
9364,61.0,0.0,120.0,0.0,0.0
9365,34.0,0.0,240.0,8.0,0.0
9366,61.0,0.0,120.0,5.0,0.0
9367,61.0,0.0,120.0,11.0,0.0
9368,46.0,0.0,240.0,13.0,0.0
9369,75.0,0.0,60.0,10.0,0.0
9370,75.0,0.0,60.0,4.0,0.0
9371,49.0,0.0,120.0,12.0,0.0
9372,49.0,0.0,120.0,1.0,0.0
9373,73.0,0.0,60.0,4.0,0.0
9374,73.0,60.0,60.0,10.0,0.0
9375,65.0,0.0,120.0,11.0,0.0
9376,65.0,0.0,120.0,5.0,0.0
9377,65.0,0.0,120.0,0.0,0.0
9378,49.0,0.0,120.0,3.0,0.0
9379,65.0,0.0,120.0,3.0,0.0
9380,49.0,0.0,120.0,6.0,0.0
9381,72.0,0.0,60.0,4.0,0.0
9382,72.0,0.0,60.0,10.0,0.0
9383,70.0,0.0,480.0,3.0,0.0
9384,34.0,0.0,120.0,8.0,0.0
9385,61.0,0.0,240.0,15.0,0.0
9386,54.0,0.0,360.0,6.0,0.0
9387,54.0,60.0,360.0,1.0,0.0
9388,46.0,0.0,120.0,1.0,0.0
9389,70.0,0.0,480.0,11.0,0.0
9390,70.0,0.0,480.0,0.0,0.0
9391,66.0,0.0,120.0,15.0,0.0
9392,54.0,0.0,360.0,12.0,0.0
9393,46.0,0.0,120.0,13.0,0.0
9394,73.0,0.0,60.0,4.0,0.0
9395,73.0,60.0,60.0,10.0,0.0
9396,46.0,0.0,120.0,3.0,0.0
9397,54.0,0.0,360.0,3.0,0.0
9398,70.0,0.0,480.0,5.0,0.0
9399,75.0,60.0,60.0,10.0,0.0
9400,75.0,0.0,60.0,4.0,0.0
9401,46.0,60.0,120.0,13.0,0.0
9402,65.0,0.0,120.0,15.0,0.0
9403,34.0,0.0,120.0,8.0,0.0
9404,46.0,0.0,120.0,15.0,0.0
9405,46.0,0.0,120.0,1.0,0.0
9406,72.0,0.0,60.0,10.0,0.0
9407,46.0,0.0,120.0,3.0,0.0
9408,72.0,60.0,60.0,4.0,0.0
9409,73.0,0.0,60.0,10.0,0.0
9410,73.0,0.0,60.0,4.0,0.0
9411,75.0,60.0,60.0,4.0,0.0
9412,48.0,0.0,360.0,3.0,0.0
9413,54.0,0.0,240.0,15.0,0.0
9414,70.0,0.0,240.0,15.0,0.0
9415,48.0,0.0,360.0,1.0,0.0
9416,36.0,0.0,360.0,8.0,0.0
9417,75.0,0.0,60.0,10.0,0.0
9418,48.0,0.0,360.0,13.0,0.0
9419,63.0,0.0,480.0,15.0,0.0
9420,48.0,0.0,360.0,15.0,0.0
9421,77.0,0.0,60.0,4.0,0.0
9422,77.0,0.0,60.0,10.0,0.0
9423,75.0,0.0,60.0,4.0,0.0
9424,75.0,60.0,60.0,10.0,0.0
9425,51.0,0.0,120.0,3.0,0.0
9426,51.0,0.0,120.0,1.0,0.0
9427,51.0,0.0,120.0,12.0,0.0
9428,51.0,60.0,120.0,6.0,0.0
9429,73.0,0.0,60.0,4.0,0.0
9430,73.0,0.0,60.0,10.0,0.0
9431,75.0,60.0,60.0,4.0,0.0
9432,69.0,0.0,240.0,0.0,0.0
9433,75.0,0.0,60.0,10.0,0.0
9434,60.0,0.0,120.0,12.0,0.0
9435,60.0,0.0,120.0,3.0,0.0
9436,69.0,0.0,240.0,15.0,0.0
9437,60.0,0.0,120.0,6.0,0.0
9438,69.0,0.0,240.0,11.0,0.0
9439,69.0,0.0,240.0,5.0,0.0
9440,69.0,0.0,240.0,3.0,0.0
9441,60.0,0.0,120.0,1.0,0.0
9442,77.0,60.0,60.0,4.0,0.0
9443,77.0,0.0,60.0,10.0,0.0
9444,73.0,0.0,60.0,4.0,0.0
9445,60.0,0.0,120.0,1.0,0.0
9446,46.0,0.0,60.0,3.0,0.0
9447,46.0,0.0,60.0,1.0,0.0
9448,34.0,0.0,60.0,8.0,0.0
9449,46.0,0.0,60.0,15.0,0.0
9450,46.0,60.0,60.0,13.0,0.0
9451,73.0,0.0,60.0,10.0,0.0
9452,60.0,0.0,120.0,6.0,0.0
9453,60.0,0.0,120.0,12.0,0.0
9454,60.0,0.0,120.0,3.0,0.0
9455,48.0,0.0,60.0,13.0,0.0
9456,48.0,0.0,60.0,15.0,0.0
9457,48.0,0.0,60.0,1.0,0.0
9458,75.0,0.0,60.0,4.0,0.0
9459,48.0,0.0,60.0,3.0,0.0
9460,75.0,0.0,60.0,10.0,0.0
9461,36.0,120.0,60.0,8.0,0.0
9462,65.0,0.0,240.0,15.0,0.0
9463,58.0,0.0,120.0,3.0,0.0
9464,49.0,0.0,120.0,1.0,0.0
9465,58.0,0.0,120.0,1.0,0.0
9466,77.0,0.0,120.0,10.0,0.0
9467,37.0,0.0,120.0,8.0,0.0
9468,49.0,60.0,120.0,15.0,0.0
9469,58.0,0.0,120.0,12.0,0.0
9470,61.0,0.0,240.0,15.0,0.0
9471,49.0,0.0,120.0,3.0,0.0
9472,58.0,0.0,240.0,15.0,0.0
9473,77.0,0.0,120.0,4.0,0.0
9474,58.0,0.0,120.0,6.0,0.0
9475,49.0,0.0,120.0,13.0,0.0
9476,57.0,0.0,60.0,3.0,0.0
9477,78.0,0.0,60.0,10.0,0.0
9478,36.0,0.0,60.0,8.0,0.0
9479,57.0,60.0,60.0,12.0,0.0
9480,78.0,0.0,60.0,4.0,0.0
9481,57.0,0.0,60.0,1.0,0.0
9482,48.0,0.0,60.0,13.0,0.0
9483,48.0,0.0,60.0,1.0,0.0
9484,48.0,0.0,60.0,3.0,0.0
9485,48.0,0.0,60.0,15.0,0.0
9486,57.0,0.0,60.0,6.0,0.0
9487,77.0,0.0,60.0,10.0,0.0
9488,49.0,0.0,60.0,15.0,0.0
9489,58.0,0.0,60.0,6.0,0.0
9490,77.0,0.0,60.0,4.0,0.0
9491,37.0,0.0,60.0,8.0,0.0
9492,49.0,0.0,60.0,3.0,0.0
9493,58.0,0.0,60.0,12.0,0.0
9494,58.0,0.0,60.0,3.0,0.0
9495,49.0,0.0,60.0,13.0,0.0
9496,58.0,0.0,60.0,1.0,0.0
9497,49.0,60.0,60.0,1.0,0.0
9498,60.0,0.0,240.0,15.0,0.0
9499,51.0,60.0,120.0,15.0,0.0
9500,63.0,0.0,240.0,15.0,0.0
9501,66.0,0.0,240.0,15.0,0.0
9502,60.0,0.0,60.0,1.0,0.0
9503,51.0,0.0,120.0,1.0,0.0
9504,60.0,0.0,60.0,12.0,0.0
9505,75.0,0.0,60.0,4.0,0.0
9506,39.0,0.0,120.0,8.0,0.0
9507,75.0,60.0,60.0,10.0,0.0
9508,60.0,0.0,60.0,6.0,0.0
9509,51.0,0.0,120.0,3.0,0.0
9510,51.0,0.0,120.0,13.0,0.0
9511,60.0,0.0,60.0,3.0,0.0
9512,61.0,0.0,60.0,3.0,0.0
9513,61.0,0.0,60.0,6.0,0.0
9514,73.0,0.0,60.0,4.0,0.0
9515,61.0,0.0,60.0,12.0,0.0
9516,61.0,0.0,60.0,1.0,0.0
9517,73.0,0.0,60.0,10.0,0.0
9518,63.0,0.0,60.0,1.0,0.0
9519,63.0,0.0,60.0,6.0,0.0
9520,72.0,0.0,60.0,10.0,0.0
9521,49.0,0.0,60.0,1.0,0.0
9522,63.0,0.0,60.0,12.0,0.0
9523,37.0,0.0,60.0,8.0,0.0
9524,63.0,0.0,60.0,3.0,0.0
9525,49.0,0.0,60.0,3.0,0.0
9526,49.0,0.0,60.0,15.0,0.0
9527,49.0,0.0,60.0,13.0,0.0
9528,72.0,60.0,60.0,4.0,0.0
9529,51.0,120.0,60.0,15.0,0.0
9530,61.0,0.0,60.0,12.0,0.0
9531,70.0,0.0,60.0,4.0,0.0
9532,61.0,0.0,60.0,3.0,0.0
9533,51.0,0.0,60.0,13.0,0.0
9534,51.0,0.0,60.0,3.0,0.0
9535,39.0,0.0,60.0,8.0,0.0
9536,61.0,0.0,60.0,1.0,0.0
9537,51.0,0.0,60.0,1.0,0.0
9538,61.0,0.0,60.0,6.0,0.0
9539,70.0,0.0,60.0,10.0,0.0
9540,53.0,0.0,120.0,3.0,0.0
9541,53.0,0.0,120.0,15.0,0.0
9542,60.0,0.0,120.0,12.0,0.0
9543,53.0,0.0,120.0,13.0,0.0
9544,53.0,0.0,120.0,1.0,0.0
9545,60.0,0.0,120.0,3.0,0.0
9546,41.0,0.0,120.0,8.0,0.0
9547,69.0,0.0,120.0,10.0,0.0
9548,60.0,60.0,120.0,6.0,0.0
9549,60.0,0.0,120.0,1.0,0.0
9550,69.0,0.0,120.0,0.0,0.0
9551,60.0,0.0,120.0,15.0,0.0
9552,69.0,0.0,120.0,4.0,0.0
9553,69.0,0.0,120.0,15.0,0.0
9554,54.0,0.0,60.0,13.0,0.0
9555,42.0,0.0,60.0,8.0,0.0
9556,70.0,60.0,120.0,4.0,0.0
9557,58.0,0.0,120.0,3.0,0.0
9558,70.0,0.0,120.0,0.0,0.0
9559,58.0,0.0,120.0,12.0,0.0
9560,70.0,0.0,120.0,10.0,0.0
9561,61.0,0.0,120.0,15.0,0.0
9562,54.0,60.0,60.0,15.0,0.0
9563,54.0,0.0,60.0,1.0,0.0
9564,58.0,0.0,120.0,15.0,0.0
9565,58.0,0.0,120.0,6.0,0.0
9566,58.0,0.0,120.0,1.0,0.0
9567,54.0,0.0,60.0,3.0,0.0
9568,53.0,0.0,60.0,1.0,0.0
9569,53.0,0.0,60.0,13.0,0.0
9570,53.0,0.0,60.0,3.0,0.0
9571,41.0,0.0,60.0,8.0,0.0
9572,53.0,0.0,60.0,15.0,0.0
9573,72.0,0.0,360.0,0.0,0.0
9574,57.0,0.0,120.0,1.0,0.0
9575,66.0,0.0,240.0,0.0,0.0
9576,51.0,0.0,60.0,1.0,0.0
9577,66.0,0.0,240.0,15.0,0.0
9578,39.0,60.0,60.0,8.0,0.0
9579,51.0,0.0,60.0,13.0,0.0
9580,66.0,0.0,240.0,11.0,0.0
9581,57.0,0.0,180.0,3.0,0.0
9582,51.0,0.0,60.0,3.0,0.0
9583,72.0,0.0,360.0,4.0,0.0
9584,51.0,0.0,60.0,15.0,0.0
9585,72.0,0.0,240.0,15.0,0.0
9586,57.0,0.0,240.0,15.0,0.0
9587,72.0,0.0,360.0,10.0,0.0
9588,66.0,0.0,240.0,5.0,0.0
9589,57.0,0.0,180.0,12.0,0.0
9590,66.0,0.0,240.0,3.0,0.0
9591,57.0,0.0,180.0,6.0,0.0
9592,49.0,0.0,60.0,1.0,0.0
9593,49.0,0.0,60.0,15.0,0.0
9594,49.0,0.0,60.0,3.0,0.0
9595,37.0,0.0,60.0,8.0,0.0
9596,49.0,60.0,60.0,13.0,0.0
9597,48.0,60.0,60.0,1.0,0.0
9598,48.0,0.0,60.0,13.0,0.0
9599,48.0,0.0,60.0,3.0,0.0
9600,48.0,0.0,60.0,15.0,0.0
9601,36.0,0.0,60.0,8.0,0.0
9602,46.0,0.0,60.0,3.0,0.0
9603,58.0,120.0,60.0,6.0,0.0
9604,46.0,0.0,60.0,15.0,0.0
9605,58.0,0.0,60.0,3.0,0.0
9606,46.0,0.0,60.0,1.0,0.0
9607,58.0,0.0,60.0,12.0,0.0
9608,46.0,0.0,60.0,13.0,0.0
9609,58.0,0.0,60.0,1.0,0.0
9610,34.0,0.0,60.0,8.0,0.0
9611,60.0,0.0,240.0,3.0,0.0
9612,66.0,0.0,240.0,5.0,0.0
9613,45.0,0.0,240.0,15.0,0.0
9614,63.0,0.0,240.0,15.0,0.0
9615,66.0,0.0,240.0,15.0,0.0
9616,60.0,0.0,240.0,12.0,0.0
9617,60.0,0.0,240.0,1.0,0.0
9618,45.0,0.0,120.0,1.0,0.0
9619,66.0,0.0,240.0,0.0,0.0
9620,72.0,0.0,240.0,15.0,0.0
9621,66.0,0.0,240.0,11.0,0.0
9622,33.0,0.0,240.0,8.0,0.0
9623,45.0,0.0,120.0,13.0,0.0
9624,60.0,0.0,240.0,6.0,0.0
9625,66.0,0.0,240.0,3.0,0.0
9626,45.0,120.0,120.0,3.0,0.0
9627,45.0,0.0,120.0,13.0,0.0
9628,41.0,0.0,120.0,14.0,0.0
9629,45.0,0.0,120.0,1.0,0.0
9630,75.0,0.0,120.0,4.0,0.0
9631,65.0,0.0,120.0,2.0,0.0
9632,75.0,120.0,120.0,10.0,0.0
9633,53.0,0.0,120.0,2.0,0.0
9634,75.0,0.0,120.0,0.0,0.0
9635,45.0,0.0,120.0,3.0,0.0
9636,53.0,0.0,120.0,6.0,0.0
9637,65.0,0.0,240.0,3.0,0.0
9638,65.0,0.0,120.0,2.0,0.0
9639,65.0,0.0,120.0,15.0,0.0
9640,61.0,0.0,120.0,15.0,0.0
9641,53.0,0.0,120.0,12.0,0.0
9642,53.0,0.0,120.0,2.0,0.0
9643,46.0,0.0,120.0,3.0,0.0
9644,65.0,0.0,240.0,5.0,0.0
9645,73.0,0.0,120.0,0.0,0.0
9646,65.0,0.0,480.0,0.0,0.0
9647,34.0,0.0,120.0,8.0,0.0
9648,53.0,0.0,120.0,15.0,0.0
9649,46.0,0.0,120.0,14.0,0.0
9650,46.0,0.0,120.0,1.0,0.0
9651,46.0,0.0,120.0,15.0,0.0
9652,53.0,0.0,120.0,3.0,0.0
9653,73.0,120.0,120.0,10.0,0.0
9654,46.0,0.0,120.0,13.0,0.0
9655,53.0,0.0,120.0,1.0,0.0
9656,65.0,0.0,240.0,11.0,0.0
9657,73.0,0.0,120.0,4.0,0.0
9658,56.0,0.0,120.0,6.0,0.0
9659,53.0,0.0,120.0,1.0,0.0
9660,41.0,0.0,120.0,14.0,0.0
9661,72.0,0.0,120.0,15.0,0.0
9662,53.0,0.0,120.0,15.0,0.0
9663,57.0,120.0,120.0,15.0,0.0
9664,57.0,0.0,120.0,1.0,0.0
9665,57.0,0.0,120.0,3.0,0.0
9666,57.0,0.0,120.0,12.0,0.0
9667,41.0,0.0,120.0,8.0,0.0
9668,72.0,0.0,120.0,0.0,0.0
9669,53.0,0.0,120.0,2.0,0.0
9670,65.0,0.0,120.0,2.0,0.0
9671,72.0,0.0,120.0,10.0,0.0
9672,53.0,0.0,120.0,13.0,0.0
9673,53.0,0.0,120.0,3.0,0.0
9674,72.0,0.0,120.0,4.0,0.0
9675,65.0,0.0,240.0,3.0,0.0
9676,65.0,0.0,240.0,11.0,0.0
9677,70.0,0.0,480.0,10.0,0.0
9678,54.0,0.0,480.0,13.0,0.0
9679,46.0,0.0,120.0,14.0,0.0
9680,58.0,0.0,480.0,2.0,0.0
9681,54.0,0.0,480.0,1.0,0.0
9682,58.0,0.0,120.0,3.0,0.0
9683,58.0,60.0,120.0,1.0,0.0
9684,70.0,0.0,480.0,4.0,0.0
9685,42.0,0.0,240.0,8.0,0.0
9686,70.0,0.0,480.0,0.0,0.0
9687,65.0,0.0,240.0,5.0,0.0
9688,61.0,120.0,240.0,15.0,0.0
9689,70.0,0.0,360.0,15.0,0.0
9690,54.0,0.0,480.0,3.0,0.0
9691,54.0,0.0,240.0,15.0,0.0
9692,65.0,0.0,240.0,15.0,0.0
9693,58.0,0.0,120.0,12.0,0.0
9694,70.0,0.0,480.0,2.0,0.0
9695,58.0,0.0,120.0,6.0,0.0
9696,61.0,0.0,120.0,12.0,0.0
9697,61.0,0.0,120.0,1.0,0.0
9698,61.0,0.0,120.0,6.0,0.0
9699,46.0,60.0,60.0,14.0,0.0
9700,61.0,0.0,120.0,3.0,0.0
9701,46.0,0.0,60.0,14.0,0.0
9702,64.0,0.0,240.0,11.0,0.0
9703,64.0,0.0,240.0,0.0,0.0
9704,60.0,0.0,120.0,12.0,0.0
9705,60.0,0.0,120.0,1.0,0.0
9706,60.0,0.0,120.0,15.0,0.0
9707,30.0,0.0,240.0,8.0,0.0
9708,60.0,0.0,120.0,3.0,0.0
9709,46.0,0.0,120.0,14.0,0.0
9710,64.0,0.0,240.0,3.0,0.0
9711,64.0,0.0,240.0,5.0,0.0
9712,64.0,0.0,240.0,15.0,0.0
9713,60.0,120.0,120.0,6.0,0.0
9714,42.0,0.0,240.0,15.0,0.0
9715,58.0,0.0,120.0,1.0,0.0
9716,58.0,0.0,120.0,12.0,0.0
9717,58.0,0.0,120.0,6.0,0.0
9718,70.0,120.0,120.0,15.0,0.0
9719,46.0,0.0,120.0,14.0,0.0
9720,58.0,0.0,120.0,3.0,0.0
9721,65.0,0.0,240.0,3.0,0.0
9722,69.0,0.0,240.0,4.0,0.0
9723,60.0,0.0,240.0,15.0,0.0
9724,69.0,0.0,240.0,15.0,0.0
9725,65.0,0.0,240.0,2.0,0.0
9726,53.0,0.0,240.0,2.0,0.0
9727,65.0,0.0,240.0,5.0,0.0
9728,41.0,0.0,120.0,15.0,0.0
9729,60.0,0.0,120.0,12.0,0.0
9730,60.0,0.0,120.0,6.0,0.0
9731,60.0,120.0,120.0,3.0,0.0
9732,29.0,0.0,120.0,8.0,0.0
9733,53.0,0.0,240.0,13.0,0.0
9734,65.0,0.0,240.0,11.0,0.0
9735,41.0,120.0,240.0,14.0,0.0
9736,65.0,0.0,240.0,0.0,0.0
9737,65.0,0.0,240.0,15.0,0.0
9738,60.0,0.0,120.0,1.0,0.0
9739,69.0,0.0,240.0,10.0,0.0
9740,69.0,0.0,240.0,0.0,0.0
9741,53.0,0.0,120.0,12.0,0.0
9742,53.0,0.0,120.0,15.0,0.0
9743,53.0,0.0,120.0,3.0,0.0
9744,53.0,0.0,120.0,1.0,0.0
9745,53.0,0.0,120.0,7.0,0.0
9746,53.0,0.0,120.0,6.0,0.0
9747,70.0,120.0,120.0,4.0,0.0
9748,61.0,0.0,120.0,15.0,0.0
9749,55.0,0.0,120.0,1.0,0.0
9750,70.0,0.0,120.0,10.0,0.0
9751,55.0,0.0,120.0,15.0,0.0
9752,65.0,0.0,240.0,11.0,0.0
9753,70.0,0.0,120.0,15.0,0.0
9754,65.0,0.0,240.0,0.0,0.0
9755,55.0,0.0,120.0,7.0,0.0
9756,65.0,0.0,120.0,15.0,0.0
9757,65.0,0.0,240.0,3.0,0.0
9758,55.0,0.0,120.0,3.0,0.0
9759,70.0,0.0,120.0,0.0,0.0
9760,55.0,0.0,120.0,12.0,0.0
9761,55.0,0.0,120.0,6.0,0.0
9762,65.0,0.0,240.0,5.0,0.0
9763,72.0,0.0,120.0,4.0,0.0
9764,72.0,0.0,120.0,10.0,0.0
9765,57.0,0.0,120.0,12.0,0.0
9766,57.0,120.0,120.0,6.0,0.0
9767,57.0,0.0,120.0,7.0,0.0
9768,65.0,0.0,120.0,15.0,0.0
9769,72.0,0.0,120.0,15.0,0.0
9770,57.0,0.0,120.0,15.0,0.0
9771,57.0,0.0,120.0,1.0,0.0
9772,57.0,0.0,120.0,3.0,0.0
9773,72.0,0.0,120.0,0.0,0.0
9774,58.0,120.0,120.0,15.0,0.0
9775,61.0,0.0,240.0,15.0,0.0
9776,65.0,0.0,240.0,15.0,0.0
9777,58.0,0.0,120.0,3.0,0.0
9778,58.0,0.0,120.0,1.0,0.0
9779,58.0,0.0,120.0,7.0,0.0
9780,58.0,0.0,120.0,12.0,0.0
9781,65.0,0.0,240.0,10.0,0.0
9782,58.0,0.0,120.0,6.0,0.0
9783,61.0,0.0,240.0,3.0,0.0
9784,61.0,120.0,240.0,5.0,0.0
9785,65.0,0.0,240.0,4.0,0.0
9786,61.0,0.0,240.0,11.0,0.0
9787,61.0,0.0,240.0,0.0,0.0
9788,65.0,0.0,240.0,0.0,0.0
9789,46.0,0.0,120.0,1.0,0.0
9790,46.0,0.0,120.0,7.0,0.0
9791,46.0,0.0,120.0,3.0,0.0
9792,46.0,0.0,120.0,6.0,0.0
9793,46.0,0.0,120.0,12.0,0.0
9794,46.0,0.0,120.0,15.0,0.0
9795,51.0,0.0,120.0,7.0,0.0
9796,51.0,0.0,120.0,6.0,0.0
9797,51.0,120.0,120.0,3.0,0.0
9798,51.0,0.0,120.0,12.0,0.0
9799,66.0,120.0,240.0,15.0,0.0
9800,66.0,0.0,240.0,3.0,0.0
9801,66.0,0.0,240.0,11.0,0.0
9802,51.0,0.0,120.0,1.0,0.0
9803,51.0,0.0,120.0,15.0,0.0
9804,66.0,0.0,240.0,5.0,0.0
9805,66.0,0.0,240.0,0.0,0.0
9806,58.0,0.0,240.0,15.0,0.0
9807,48.0,0.0,120.0,15.0,0.0
9808,48.0,0.0,120.0,1.0,0.0
9809,48.0,0.0,120.0,6.0,0.0
9810,48.0,0.0,120.0,12.0,0.0
9811,48.0,0.0,120.0,3.0,0.0
9812,48.0,0.0,120.0,7.0,0.0
9813,53.0,0.0,120.0,1.0,0.0
9814,57.0,0.0,480.0,5.0,0.0
9815,57.0,0.0,480.0,11.0,0.0
9816,53.0,0.0,120.0,3.0,0.0
9817,57.0,60.0,480.0,3.0,0.0
9818,57.0,0.0,480.0,0.0,0.0
9819,53.0,0.0,120.0,6.0,0.0
9820,53.0,0.0,120.0,7.0,0.0
9821,53.0,0.0,120.0,12.0,0.0
9822,60.0,0.0,480.0,15.0,0.0
9823,53.0,120.0,120.0,15.0,0.0
9824,57.0,0.0,480.0,15.0,0.0
9825,54.0,0.0,120.0,12.0,0.0
9826,29.0,120.0,120.0,8.0,0.0
9827,41.0,0.0,120.0,13.0,0.0
9828,54.0,0.0,120.0,3.0,0.0
9829,41.0,0.0,120.0,3.0,0.0
9830,54.0,0.0,120.0,6.0,0.0
9831,44.0,0.0,120.0,1.0,0.0
9832,54.0,0.0,120.0,1.0,0.0
9833,41.0,0.0,120.0,15.0,0.0
9834,66.0,0.0,120.0,15.0,0.0
9835,44.0,0.0,120.0,1.0,0.0
9836,29.0,0.0,120.0,8.0,0.0
9837,53.0,0.0,120.0,3.0,0.0
9838,53.0,0.0,120.0,12.0,0.0
9839,53.0,0.0,120.0,6.0,0.0
9840,41.0,0.0,120.0,15.0,0.0
9841,41.0,0.0,120.0,13.0,0.0
9842,41.0,0.0,120.0,3.0,0.0
9843,53.0,120.0,120.0,1.0,0.0
9844,65.0,0.0,120.0,15.0,0.0
9845,41.0,0.0,120.0,3.0,0.0
9846,29.0,0.0,120.0,8.0,0.0
9847,41.0,0.0,120.0,15.0,0.0
9848,51.0,0.0,120.0,1.0,0.0
9849,44.0,0.0,120.0,1.0,0.0
9850,41.0,0.0,120.0,13.0,0.0
9851,51.0,0.0,120.0,6.0,0.0
9852,51.0,0.0,120.0,12.0,0.0
9853,51.0,0.0,120.0,3.0,0.0
9854,63.0,0.0,120.0,15.0,0.0
9855,42.0,0.0,60.0,1.0,0.0
9856,49.0,0.0,120.0,3.0,0.0
9857,58.0,0.0,240.0,3.0,0.0
9858,58.0,0.0,240.0,5.0,0.0
9859,30.0,0.0,60.0,8.0,0.0
9860,49.0,0.0,120.0,12.0,0.0
9861,49.0,0.0,120.0,6.0,0.0
9862,42.0,0.0,60.0,13.0,0.0
9863,42.0,60.0,60.0,3.0,0.0
9864,49.0,60.0,120.0,1.0,0.0
9865,49.0,0.0,240.0,15.0,0.0
9866,58.0,0.0,240.0,15.0,0.0
9867,58.0,0.0,240.0,0.0,0.0
9868,42.0,0.0,60.0,15.0,0.0
9869,58.0,0.0,240.0,11.0,0.0
9870,44.0,0.0,60.0,13.0,0.0
9871,44.0,0.0,60.0,3.0,0.0
9872,32.0,0.0,60.0,8.0,0.0
9873,44.0,0.0,60.0,1.0,0.0
9874,44.0,0.0,60.0,15.0,0.0
9875,46.0,0.0,120.0,6.0,0.0
9876,46.0,0.0,120.0,12.0,0.0
9877,42.0,0.0,60.0,13.0,0.0
9878,42.0,0.0,60.0,3.0,0.0
9879,46.0,0.0,120.0,3.0,0.0
9880,42.0,0.0,60.0,15.0,0.0
9881,30.0,0.0,60.0,8.0,0.0
9882,46.0,0.0,120.0,1.0,0.0
9883,42.0,60.0,60.0,1.0,0.0
9884,41.0,60.0,60.0,13.0,0.0
9885,29.0,0.0,60.0,8.0,0.0
9886,41.0,0.0,60.0,1.0,0.0
9887,41.0,0.0,60.0,3.0,0.0
9888,41.0,0.0,60.0,15.0,0.0
9889,43.0,0.0,60.0,13.0,0.0
9890,43.0,0.0,60.0,1.0,0.0
9891,51.0,0.0,120.0,1.0,0.0
9892,51.0,0.0,120.0,12.0,0.0
9893,51.0,0.0,120.0,15.0,0.0
9894,51.0,0.0,120.0,3.0,0.0
9895,58.0,0.0,120.0,0.0,0.0
9896,58.0,0.0,120.0,15.0,0.0
9897,43.0,0.0,60.0,15.0,0.0
9898,58.0,0.0,120.0,3.0,0.0
9899,43.0,60.0,60.0,3.0,0.0
9900,51.0,60.0,120.0,6.0,0.0
9901,58.0,0.0,120.0,11.0,0.0
9902,58.0,0.0,120.0,5.0,0.0
9903,31.0,0.0,60.0,8.0,0.0
9904,32.0,0.0,60.0,8.0,0.0
9905,44.0,0.0,60.0,1.0,0.0
9906,44.0,0.0,60.0,3.0,0.0
9907,44.0,0.0,60.0,13.0,0.0
9908,44.0,0.0,60.0,15.0,0.0
9909,58.0,0.0,120.0,5.0,0.0
9910,49.0,0.0,120.0,6.0,0.0
9911,58.0,0.0,120.0,3.0,0.0
9912,58.0,0.0,120.0,0.0,0.0
9913,58.0,0.0,120.0,11.0,0.0
9914,49.0,0.0,120.0,15.0,0.0
9915,41.0,60.0,60.0,3.0,0.0
9916,58.0,60.0,120.0,15.0,0.0
9917,49.0,0.0,120.0,12.0,0.0
9918,49.0,0.0,120.0,1.0,0.0
9919,41.0,0.0,60.0,1.0,0.0
9920,49.0,0.0,120.0,3.0,0.0
9921,41.0,0.0,60.0,13.0,0.0
9922,29.0,0.0,60.0,8.0,0.0
9923,41.0,0.0,60.0,15.0,0.0
9924,43.0,0.0,60.0,13.0,0.0
9925,31.0,0.0,60.0,8.0,0.0
9926,43.0,0.0,60.0,3.0,0.0
9927,43.0,0.0,60.0,1.0,0.0
9928,43.0,0.0,60.0,15.0,0.0
9929,60.0,0.0,360.0,11.0,0.0
9930,44.0,0.0,60.0,3.0,0.0
9931,32.0,0.0,60.0,8.0,0.0
9932,44.0,60.0,60.0,15.0,0.0
9933,60.0,0.0,360.0,0.0,0.0
9934,60.0,0.0,360.0,5.0,0.0
9935,63.0,0.0,120.0,15.0,0.0
9936,44.0,0.0,60.0,13.0,0.0
9937,60.0,0.0,120.0,15.0,0.0
9938,44.0,0.0,60.0,1.0,0.0
9939,48.0,0.0,120.0,1.0,0.0
9940,48.0,0.0,120.0,3.0,0.0
9941,48.0,0.0,120.0,12.0,0.0
9942,60.0,0.0,360.0,3.0,0.0
9943,48.0,0.0,120.0,6.0,0.0
9944,34.0,0.0,60.0,8.0,0.0
9945,46.0,0.0,60.0,13.0,0.0
9946,46.0,0.0,60.0,3.0,0.0
9947,46.0,0.0,60.0,1.0,0.0
9948,46.0,60.0,60.0,15.0,0.0
9949,65.0,0.0,120.0,0.0,0.0
9950,65.0,0.0,360.0,15.0,0.0
9951,60.0,0.0,360.0,15.0,0.0
9952,44.0,60.0,60.0,15.0,0.0
9953,65.0,0.0,120.0,10.0,0.0
9954,44.0,0.0,60.0,1.0,0.0
9955,32.0,0.0,60.0,8.0,0.0
9956,44.0,0.0,120.0,12.0,0.0
9957,44.0,0.0,60.0,3.0,0.0
9958,44.0,0.0,120.0,6.0,0.0
9959,65.0,0.0,120.0,4.0,0.0
9960,44.0,0.0,60.0,13.0,0.0
9961,43.0,0.0,60.0,13.0,0.0
9962,31.0,0.0,60.0,8.0,0.0
9963,43.0,60.0,60.0,3.0,0.0
9964,43.0,0.0,60.0,1.0,0.0
9965,43.0,0.0,60.0,15.0,0.0
9966,45.0,0.0,60.0,1.0,0.0
9967,53.0,0.0,120.0,6.0,0.0
9968,65.0,0.0,120.0,10.0,0.0
9969,45.0,0.0,60.0,13.0,0.0
9970,53.0,0.0,120.0,3.0,0.0
9971,65.0,60.0,120.0,0.0,0.0
9972,65.0,0.0,120.0,4.0,0.0
9973,45.0,60.0,60.0,3.0,0.0
9974,53.0,0.0,120.0,12.0,0.0
9975,53.0,0.0,120.0,1.0,0.0
9976,33.0,0.0,60.0,8.0,0.0
9977,45.0,0.0,60.0,15.0,0.0
9978,46.0,0.0,60.0,1.0,0.0
9979,46.0,0.0,60.0,13.0,0.0
9980,46.0,0.0,60.0,3.0,0.0
9981,34.0,0.0,60.0,8.0,0.0
9982,46.0,0.0,60.0,15.0,0.0
9983,65.0,0.0,120.0,0.0,0.0
9984,58.0,0.0,60.0,0.0,0.0
9985,58.0,0.0,60.0,3.0,0.0
9986,65.0,0.0,120.0,4.0,0.0
9987,43.0,0.0,60.0,13.0,0.0
9988,43.0,0.0,60.0,1.0,0.0
9989,53.0,0.0,120.0,12.0,0.0
9990,43.0,60.0,60.0,15.0,0.0
9991,53.0,0.0,120.0,3.0,0.0
9992,43.0,0.0,60.0,3.0,0.0
9993,58.0,0.0,60.0,11.0,0.0
9994,53.0,60.0,120.0,1.0,0.0
9995,53.0,0.0,120.0,6.0,0.0
9996,65.0,0.0,120.0,10.0,0.0
9997,31.0,0.0,60.0,8.0,0.0
9998,58.0,0.0,60.0,5.0,0.0
9999,60.0,0.0,60.0,3.0,0.0
10000,60.0,0.0,60.0,0.0,0.0
10001,33.0,0.0,60.0,8.0,0.0
10002,45.0,0.0,60.0,15.0,0.0
10003,60.0,0.0,60.0,5.0,0.0
10004,45.0,0.0,60.0,13.0,0.0
10005,45.0,0.0,60.0,3.0,0.0
10006,60.0,0.0,60.0,11.0,0.0
10007,45.0,0.0,60.0,1.0,0.0
10008,49.0,0.0,240.0,12.0,0.0
10009,66.0,0.0,60.0,10.0,0.0
10010,46.0,0.0,120.0,3.0,0.0
10011,61.0,0.0,240.0,5.0,0.0
10012,34.0,0.0,120.0,8.0,0.0
10013,61.0,0.0,240.0,11.0,0.0
10014,49.0,0.0,240.0,1.0,0.0
10015,46.0,0.0,120.0,1.0,0.0
10016,49.0,0.0,240.0,3.0,0.0
10017,49.0,60.0,240.0,6.0,0.0
10018,46.0,0.0,120.0,13.0,0.0
10019,49.0,0.0,240.0,15.0,0.0
10020,66.0,0.0,240.0,15.0,0.0
10021,61.0,0.0,240.0,0.0,0.0
10022,66.0,60.0,60.0,0.0,0.0
10023,66.0,0.0,60.0,4.0,0.0
10024,46.0,60.0,120.0,15.0,0.0
10025,61.0,0.0,240.0,15.0,0.0
10026,61.0,0.0,240.0,3.0,0.0
10027,68.0,0.0,60.0,4.0,0.0
10028,68.0,0.0,60.0,10.0,0.0
10029,68.0,0.0,60.0,0.0,0.0
10030,66.0,0.0,60.0,0.0,0.0
10031,46.0,0.0,120.0,1.0,0.0
10032,66.0,60.0,60.0,10.0,0.0
10033,46.0,0.0,120.0,3.0,0.0
10034,46.0,0.0,120.0,15.0,0.0
10035,66.0,0.0,60.0,4.0,0.0
10036,46.0,0.0,120.0,13.0,0.0
10037,34.0,0.0,120.0,8.0,0.0
10038,65.0,0.0,60.0,4.0,0.0
10039,65.0,0.0,60.0,0.0,0.0
10040,65.0,0.0,60.0,10.0,0.0
10041,58.0,0.0,240.0,15.0,0.0
10042,51.0,0.0,120.0,15.0,0.0
10043,67.0,0.0,240.0,15.0,0.0
10044,67.0,60.0,60.0,0.0,0.0
10045,67.0,0.0,60.0,4.0,0.0
10046,58.0,0.0,240.0,12.0,0.0
10047,58.0,0.0,240.0,6.0,0.0
10048,39.0,0.0,120.0,8.0,0.0
10049,51.0,0.0,120.0,13.0,0.0
10050,51.0,60.0,120.0,3.0,0.0
10051,51.0,0.0,120.0,1.0,0.0
10052,58.0,0.0,240.0,1.0,0.0
10053,67.0,0.0,60.0,10.0,0.0
10054,58.0,0.0,240.0,3.0,0.0
10055,68.0,0.0,60.0,0.0,0.0
10056,68.0,0.0,60.0,10.0,0.0
10057,68.0,0.0,60.0,4.0,0.0
10058,65.0,0.0,60.0,4.0,0.0
10059,37.0,0.0,120.0,8.0,0.0
10060,49.0,60.0,120.0,13.0,0.0
10061,49.0,0.0,120.0,15.0,0.0
10062,65.0,0.0,60.0,0.0,0.0
10063,49.0,0.0,120.0,1.0,0.0
10064,65.0,60.0,60.0,10.0,0.0
10065,49.0,0.0,120.0,3.0,0.0
10066,67.0,0.0,60.0,0.0,0.0
10067,67.0,0.0,60.0,10.0,0.0
10068,67.0,0.0,60.0,4.0,0.0
10069,48.0,0.0,120.0,15.0,0.0
10070,48.0,60.0,120.0,3.0,0.0
10071,48.0,0.0,120.0,1.0,0.0
10072,68.0,0.0,60.0,10.0,0.0
10073,51.0,0.0,240.0,1.0,0.0
10074,68.0,0.0,240.0,15.0,0.0
10075,51.0,0.0,240.0,15.0,0.0
10076,48.0,0.0,120.0,13.0,0.0
10077,51.0,0.0,240.0,3.0,0.0
10078,36.0,0.0,120.0,8.0,0.0
10079,68.0,60.0,60.0,0.0,0.0
10080,51.0,0.0,240.0,6.0,0.0
10081,51.0,0.0,240.0,12.0,0.0
10082,68.0,0.0,60.0,4.0,0.0
10083,70.0,0.0,60.0,0.0,0.0
10084,70.0,0.0,60.0,10.0,0.0
10085,70.0,0.0,60.0,4.0,0.0
10086,60.0,0.0,120.0,5.0,0.0
10087,36.0,0.0,120.0,8.0,0.0
10088,60.0,0.0,120.0,3.0,0.0
10089,60.0,0.0,120.0,0.0,0.0
10090,68.0,60.0,60.0,0.0,0.0
10091,48.0,0.0,120.0,3.0,0.0
10092,48.0,0.0,120.0,15.0,0.0
10093,68.0,0.0,60.0,4.0,0.0
10094,60.0,60.0,120.0,11.0,0.0
10095,48.0,0.0,120.0,1.0,0.0
10096,48.0,0.0,120.0,13.0,0.0
10097,68.0,0.0,60.0,10.0,0.0
10098,67.0,0.0,60.0,4.0,0.0
10099,67.0,0.0,60.0,10.0,0.0
10100,67.0,0.0,60.0,0.0,0.0
10101,53.0,0.0,120.0,13.0,0.0
10102,69.0,60.0,60.0,10.0,0.0
10103,53.0,60.0,120.0,1.0,0.0
10104,69.0,0.0,60.0,4.0,0.0
10105,69.0,0.0,240.0,15.0,0.0
10106,41.0,0.0,120.0,8.0,0.0
10107,53.0,0.0,120.0,15.0,0.0
10108,60.0,60.0,240.0,15.0,0.0
10109,60.0,0.0,120.0,11.0,0.0
10110,60.0,0.0,120.0,0.0,0.0
10111,60.0,0.0,120.0,3.0,0.0
10112,60.0,0.0,120.0,5.0,0.0
10113,69.0,0.0,60.0,0.0,0.0
10114,53.0,0.0,120.0,3.0,0.0
10115,70.0,0.0,60.0,0.0,0.0
10116,70.0,0.0,60.0,10.0,0.0
10117,70.0,0.0,60.0,4.0,0.0
10118,39.0,0.0,120.0,8.0,0.0
10119,67.0,60.0,60.0,10.0,0.0
10120,67.0,0.0,60.0,4.0,0.0
10121,60.0,0.0,120.0,3.0,0.0
10122,60.0,0.0,120.0,11.0,0.0
10123,51.0,0.0,120.0,13.0,0.0
10124,51.0,0.0,120.0,3.0,0.0
10125,60.0,0.0,120.0,0.0,0.0
10126,60.0,0.0,120.0,5.0,0.0
10127,51.0,0.0,120.0,1.0,0.0
10128,67.0,0.0,60.0,0.0,0.0
10129,51.0,0.0,120.0,15.0,0.0
10130,69.0,0.0,60.0,0.0,0.0
10131,69.0,0.0,60.0,4.0,0.0
10132,69.0,0.0,60.0,10.0,0.0
10133,61.0,0.0,60.0,11.0,0.0
10134,49.0,0.0,240.0,1.0,0.0
10135,70.0,0.0,240.0,10.0,0.0
10136,70.0,0.0,240.0,4.0,0.0
10137,61.0,0.0,60.0,5.0,0.0
10138,61.0,0.0,60.0,0.0,0.0
10139,70.0,0.0,240.0,0.0,0.0
10140,49.0,0.0,240.0,13.0,0.0
10141,37.0,0.0,120.0,8.0,0.0
10142,49.0,0.0,240.0,3.0,0.0
10143,61.0,60.0,60.0,3.0,0.0
10144,65.0,60.0,240.0,15.0,0.0
10145,49.0,0.0,120.0,15.0,0.0
10146,70.0,0.0,240.0,15.0,0.0
10147,63.0,0.0,60.0,11.0,0.0
10148,63.0,60.0,60.0,0.0,0.0
10149,63.0,0.0,60.0,3.0,0.0
10150,63.0,0.0,60.0,5.0,0.0
10151,53.0,0.0,120.0,12.0,0.0
10152,53.0,0.0,120.0,1.0,0.0
10153,61.0,0.0,60.0,0.0,0.0
10154,53.0,0.0,120.0,3.0,0.0
10155,61.0,0.0,60.0,11.0,0.0
10156,53.0,0.0,120.0,6.0,0.0
10157,53.0,0.0,120.0,15.0,0.0
10158,61.0,60.0,60.0,5.0,0.0
10159,53.0,0.0,120.0,7.0,0.0
10160,61.0,0.0,60.0,3.0,0.0
10161,60.0,0.0,60.0,5.0,0.0
10162,60.0,0.0,60.0,11.0,0.0
10163,60.0,0.0,60.0,3.0,0.0
10164,60.0,0.0,60.0,0.0,0.0
10165,62.0,0.0,60.0,0.0,0.0
10166,62.0,0.0,60.0,3.0,0.0
10167,58.0,0.0,120.0,3.0,0.0
10168,62.0,60.0,60.0,5.0,0.0
10169,66.0,0.0,120.0,15.0,0.0
10170,58.0,60.0,120.0,15.0,0.0
10171,62.0,0.0,120.0,15.0,0.0
10172,58.0,0.0,120.0,6.0,0.0
10173,58.0,0.0,120.0,7.0,0.0
10174,62.0,0.0,60.0,11.0,0.0
10175,58.0,0.0,120.0,1.0,0.0
10176,58.0,0.0,120.0,12.0,0.0
10177,63.0,0.0,60.0,0.0,0.0
10178,63.0,0.0,60.0,11.0,0.0
10179,63.0,0.0,60.0,5.0,0.0
10180,63.0,0.0,60.0,3.0,0.0
10181,60.0,0.0,60.0,5.0,0.0
10182,63.0,0.0,120.0,15.0,0.0
10183,56.0,0.0,120.0,15.0,0.0
10184,60.0,0.0,120.0,15.0,0.0
10185,56.0,0.0,120.0,1.0,0.0
10186,60.0,0.0,60.0,11.0,0.0
10187,60.0,60.0,60.0,3.0,0.0
10188,56.0,0.0,120.0,3.0,0.0
10189,60.0,0.0,60.0,0.0,0.0
10190,56.0,0.0,120.0,7.0,0.0
10191,56.0,0.0,120.0,6.0,0.0
10192,56.0,0.0,120.0,12.0,0.0
10193,62.0,0.0,60.0,0.0,0.0
10194,62.0,0.0,60.0,5.0,0.0
10195,62.0,60.0,60.0,3.0,0.0
10196,62.0,0.0,60.0,11.0,0.0
10197,55.0,0.0,120.0,6.0,0.0
10198,63.0,0.0,60.0,11.0,0.0
10199,58.0,0.0,120.0,15.0,0.0
10200,63.0,0.0,240.0,15.0,0.0
10201,55.0,60.0,120.0,15.0,0.0
10202,55.0,0.0,120.0,1.0,0.0
10203,63.0,60.0,60.0,3.0,0.0
10204,63.0,0.0,60.0,0.0,0.0
10205,63.0,0.0,60.0,5.0,0.0
10206,55.0,0.0,120.0,3.0,0.0
10207,55.0,0.0,120.0,7.0,0.0
10208,55.0,0.0,120.0,12.0,0.0
10209,65.0,0.0,60.0,0.0,0.0
10210,65.0,0.0,60.0,3.0,0.0
10211,65.0,0.0,60.0,11.0,0.0
10212,65.0,0.0,60.0,5.0,0.0
10213,55.0,0.0,120.0,3.0,0.0
10214,55.0,0.0,120.0,7.0,0.0
10215,55.0,0.0,120.0,12.0,0.0
10216,63.0,0.0,60.0,5.0,0.0
10217,63.0,0.0,60.0,0.0,0.0
10218,63.0,60.0,60.0,3.0,0.0
10219,72.0,0.0,120.0,10.0,0.0
10220,55.0,0.0,120.0,1.0,0.0
10221,55.0,0.0,120.0,15.0,0.0
10222,72.0,60.0,120.0,15.0,0.0
10223,63.0,0.0,60.0,11.0,0.0
10224,55.0,0.0,120.0,6.0,0.0
10225,72.0,0.0,120.0,4.0,0.0
10226,62.0,0.0,60.0,0.0,0.0
10227,62.0,0.0,60.0,11.0,0.0
10228,62.0,0.0,60.0,5.0,0.0
10229,62.0,0.0,60.0,3.0,0.0
10230,60.0,0.0,120.0,1.0,0.0
10231,64.0,0.0,60.0,11.0,0.0
10232,60.0,0.0,120.0,6.0,0.0
10233,72.0,0.0,120.0,4.0,0.0
10234,60.0,0.0,120.0,15.0,0.0
10235,64.0,0.0,240.0,15.0,0.0
10236,64.0,0.0,60.0,5.0,0.0
10237,60.0,60.0,120.0,12.0,0.0
10238,64.0,60.0,60.0,3.0,0.0
10239,64.0,0.0,60.0,0.0,0.0
10240,72.0,0.0,120.0,10.0,0.0
10241,66.0,0.0,240.0,15.0,0.0
10242,60.0,0.0,120.0,3.0,0.0
10243,60.0,0.0,120.0,7.0,0.0
10244,65.0,0.0,60.0,5.0,0.0
10245,65.0,0.0,60.0,11.0,0.0
10246,65.0,0.0,60.0,0.0,0.0
10247,65.0,0.0,60.0,3.0,0.0
10248,58.0,0.0,120.0,3.0,0.0
10249,48.0,0.0,120.0,13.0,0.0
10250,58.0,0.0,120.0,15.0,0.0
10251,48.0,0.0,120.0,15.0,0.0
10252,58.0,0.0,120.0,6.0,0.0
10253,72.0,0.0,120.0,4.0,0.0
10254,58.0,0.0,120.0,12.0,0.0
10255,62.0,0.0,60.0,3.0,0.0
10256,48.0,0.0,120.0,1.0,0.0
10257,61.0,0.0,60.0,5.0,0.0
10258,62.0,60.0,60.0,11.0,0.0
10259,48.0,60.0,120.0,3.0,0.0
10260,36.0,0.0,120.0,8.0,0.0
10261,58.0,0.0,120.0,1.0,0.0
10262,72.0,0.0,120.0,10.0,0.0
10263,61.0,0.0,60.0,0.0,0.0
10264,64.0,0.0,60.0,0.0,0.0
10265,64.0,0.0,60.0,5.0,0.0
10266,64.0,0.0,60.0,11.0,0.0
10267,64.0,0.0,60.0,3.0,0.0
10268,65.0,0.0,240.0,11.0,0.0
10269,41.0,0.0,120.0,8.0,0.0
10270,53.0,0.0,120.0,15.0,0.0
10271,73.0,0.0,240.0,15.0,0.0
10272,65.0,0.0,240.0,5.0,0.0
10273,53.0,0.0,120.0,1.0,0.0
10274,56.0,0.0,240.0,15.0,0.0
10275,56.0,0.0,240.0,1.0,0.0
10276,53.0,60.0,120.0,3.0,0.0
10277,65.0,0.0,240.0,0.0,0.0
10278,53.0,0.0,120.0,13.0,0.0
10279,56.0,0.0,240.0,6.0,0.0
10280,73.0,0.0,60.0,4.0,0.0
10281,65.0,0.0,240.0,3.0,0.0
10282,73.0,60.0,60.0,10.0,0.0
10283,56.0,0.0,240.0,3.0,0.0
10284,56.0,0.0,240.0,12.0,0.0
10285,75.0,0.0,60.0,4.0,0.0
10286,75.0,0.0,60.0,10.0,0.0
10287,41.0,0.0,120.0,15.0,0.0
10288,73.0,0.0,60.0,10.0,0.0
10289,29.0,0.0,120.0,8.0,0.0
10290,73.0,60.0,60.0,4.0,0.0
10291,44.0,0.0,120.0,13.0,0.0
10292,41.0,0.0,120.0,1.0,0.0
10293,44.0,0.0,120.0,3.0,0.0
10294,72.0,0.0,60.0,10.0,0.0
10295,72.0,60.0,60.0,4.0,0.0
10296,58.0,0.0,240.0,3.0,0.0
10297,46.0,0.0,120.0,3.0,0.0
10298,58.0,0.0,240.0,1.0,0.0
10299,46.0,60.0,120.0,1.0,0.0
10300,65.0,60.0,240.0,5.0,0.0
10301,58.0,0.0,240.0,6.0,0.0
10302,58.0,0.0,240.0,15.0,0.0
10303,46.0,0.0,120.0,13.0,0.0
10304,46.0,0.0,120.0,15.0,0.0
10305,58.0,0.0,240.0,12.0,0.0
10306,74.0,0.0,240.0,15.0,0.0
10307,74.0,0.0,60.0,4.0,0.0
10308,65.0,0.0,240.0,11.0,0.0
10309,65.0,0.0,240.0,15.0,0.0
10310,65.0,0.0,240.0,3.0,0.0
10311,65.0,0.0,240.0,0.0,0.0
10312,34.0,0.0,120.0,8.0,0.0
10313,74.0,60.0,60.0,10.0,0.0
10314,75.0,0.0,60.0,10.0,0.0
10315,75.0,0.0,60.0,4.0,0.0
10316,44.0,0.0,120.0,15.0,0.0
10317,32.0,0.0,120.0,8.0,0.0
10318,44.0,0.0,120.0,3.0,0.0
10319,44.0,0.0,120.0,1.0,0.0
10320,72.0,0.0,60.0,10.0,0.0
10321,44.0,0.0,120.0,13.0,0.0
10322,72.0,60.0,60.0,4.0,0.0
10323,74.0,0.0,60.0,10.0,0.0
10324,74.0,0.0,60.0,4.0,0.0
10325,75.0,0.0,60.0,4.0,0.0
10326,63.0,0.0,240.0,5.0,0.0
10327,58.0,0.0,240.0,3.0,0.0
10328,63.0,0.0,240.0,3.0,0.0
10329,43.0,0.0,120.0,1.0,0.0
10330,58.0,0.0,240.0,1.0,0.0
10331,43.0,0.0,120.0,13.0,0.0
10332,43.0,0.0,120.0,3.0,0.0
10333,58.0,0.0,240.0,12.0,0.0
10334,31.0,0.0,120.0,8.0,0.0
10335,63.0,0.0,240.0,0.0,0.0
10336,75.0,60.0,60.0,10.0,0.0
10337,63.0,0.0,240.0,11.0,0.0
10338,43.0,0.0,120.0,15.0,0.0
10339,58.0,0.0,240.0,15.0,0.0
10340,63.0,0.0,240.0,15.0,0.0
10341,75.0,0.0,240.0,15.0,0.0
10342,58.0,0.0,240.0,6.0,0.0
10343,77.0,0.0,60.0,4.0,0.0
10344,77.0,60.0,60.0,10.0,0.0
10345,43.0,0.0,120.0,1.0,0.0
10346,75.0,60.0,60.0,4.0,0.0
10347,31.0,0.0,120.0,8.0,0.0
10348,43.0,0.0,120.0,3.0,0.0
10349,43.0,0.0,120.0,13.0,0.0
10350,43.0,0.0,120.0,15.0,0.0
10351,75.0,0.0,60.0,10.0,0.0
10352,74.0,60.0,60.0,4.0,0.0
10353,74.0,0.0,60.0,10.0,0.0
10354,60.0,0.0,240.0,1.0,0.0
10355,48.0,60.0,120.0,1.0,0.0
10356,67.0,0.0,240.0,0.0,0.0
10357,67.0,0.0,240.0,11.0,0.0
10358,67.0,0.0,240.0,5.0,0.0
10359,67.0,0.0,240.0,3.0,0.0
10360,76.0,0.0,60.0,10.0,0.0
10361,48.0,0.0,120.0,3.0,0.0
10362,60.0,120.0,240.0,6.0,0.0
10363,36.0,0.0,120.0,8.0,0.0
10364,76.0,0.0,240.0,15.0,0.0
10365,48.0,0.0,120.0,15.0,0.0
10366,60.0,0.0,240.0,12.0,0.0
10367,48.0,0.0,120.0,13.0,0.0
10368,60.0,0.0,240.0,3.0,0.0
10369,76.0,60.0,60.0,4.0,0.0
10370,77.0,0.0,60.0,4.0,0.0
10371,77.0,0.0,60.0,10.0,0.0
10372,46.0,0.0,120.0,1.0,0.0
10373,74.0,0.0,60.0,4.0,0.0
10374,46.0,0.0,120.0,3.0,0.0
10375,46.0,0.0,120.0,13.0,0.0
10376,34.0,0.0,120.0,8.0,0.0
10377,46.0,0.0,120.0,15.0,0.0
10378,74.0,60.0,60.0,10.0,0.0
10379,76.0,0.0,60.0,4.0,0.0
10380,76.0,0.0,60.0,10.0,0.0
10381,33.0,0.0,120.0,8.0,0.0
10382,77.0,0.0,120.0,10.0,0.0
10383,45.0,0.0,120.0,15.0,0.0
10384,65.0,0.0,120.0,15.0,0.0
10385,60.0,0.0,120.0,3.0,0.0
10386,65.0,0.0,120.0,3.0,0.0
10387,41.0,120.0,240.0,14.0,0.0
10388,60.0,120.0,120.0,15.0,0.0
10389,65.0,0.0,240.0,2.0,0.0
10390,45.0,0.0,120.0,3.0,0.0
10391,45.0,0.0,120.0,1.0,0.0
10392,60.0,0.0,120.0,6.0,0.0
10393,60.0,0.0,120.0,1.0,0.0
10394,45.0,0.0,120.0,13.0,0.0
10395,77.0,0.0,120.0,4.0,0.0
10396,65.0,0.0,120.0,11.0,0.0
10397,65.0,0.0,120.0,0.0,0.0
10398,60.0,0.0,120.0,12.0,0.0
10399,65.0,0.0,120.0,5.0,0.0
10400,41.0,0.0,120.0,8.0,0.0
10401,63.0,0.0,120.0,5.0,0.0
10402,60.0,0.0,120.0,3.0,0.0
10403,60.0,0.0,120.0,6.0,0.0
10404,60.0,0.0,120.0,12.0,0.0
10405,69.0,0.0,120.0,4.0,0.0
10406,53.0,0.0,120.0,1.0,0.0
10407,69.0,0.0,120.0,15.0,0.0
10408,53.0,0.0,120.0,15.0,0.0
10409,60.0,0.0,120.0,1.0,0.0
10410,69.0,0.0,120.0,10.0,0.0
10411,63.0,0.0,120.0,15.0,0.0
10412,60.0,0.0,120.0,15.0,0.0
10413,63.0,0.0,120.0,3.0,0.0
10414,53.0,0.0,120.0,13.0,0.0
10415,63.0,0.0,120.0,0.0,0.0
10416,69.0,0.0,120.0,0.0,0.0
10417,63.0,0.0,120.0,11.0,0.0
10418,53.0,0.0,120.0,3.0,0.0
10419,61.0,0.0,120.0,3.0,0.0
10420,42.0,0.0,120.0,8.0,0.0
10421,61.0,0.0,120.0,11.0,0.0
10422,58.0,0.0,120.0,3.0,0.0
10423,54.0,0.0,120.0,3.0,0.0
10424,61.0,0.0,120.0,5.0,0.0
10425,54.0,0.0,120.0,1.0,0.0
10426,58.0,120.0,120.0,1.0,0.0
10427,70.0,0.0,120.0,0.0,0.0
10428,61.0,0.0,120.0,0.0,0.0
10429,70.0,0.0,120.0,10.0,0.0
10430,54.0,0.0,120.0,13.0,0.0
10431,70.0,0.0,120.0,4.0,0.0
10432,54.0,0.0,120.0,15.0,0.0
10433,70.0,0.0,120.0,15.0,0.0
10434,61.0,0.0,120.0,15.0,0.0
10435,46.0,0.0,120.0,14.0,0.0
10436,58.0,0.0,120.0,2.0,0.0
10437,58.0,0.0,120.0,6.0,0.0
10438,58.0,0.0,120.0,12.0,0.0
10439,51.0,0.0,120.0,1.0,0.0
10440,66.0,0.0,120.0,5.0,0.0
10441,61.0,0.0,120.0,1.0,0.0
10442,61.0,0.0,120.0,6.0,0.0
10443,58.0,0.0,120.0,2.0,0.0
10444,39.0,0.0,120.0,8.0,0.0
10445,70.0,120.0,120.0,10.0,0.0
10446,61.0,0.0,120.0,15.0,0.0
10447,51.0,0.0,120.0,13.0,0.0
10448,61.0,0.0,120.0,12.0,0.0
10449,46.0,0.0,120.0,14.0,0.0
10450,70.0,0.0,120.0,4.0,0.0
10451,51.0,0.0,120.0,3.0,0.0
10452,70.0,0.0,120.0,15.0,0.0
10453,66.0,0.0,120.0,15.0,0.0
10454,61.0,0.0,120.0,3.0,0.0
10455,66.0,0.0,120.0,3.0,0.0
10456,66.0,0.0,120.0,11.0,0.0
10457,70.0,0.0,120.0,0.0,0.0
10458,67.0,0.0,120.0,0.0,0.0
10459,51.0,0.0,120.0,15.0,0.0
10460,60.0,0.0,480.0,1.0,0.0
10461,53.0,0.0,480.0,1.0,0.0
10462,53.0,0.0,480.0,13.0,0.0
10463,70.0,0.0,240.0,4.0,0.0
10464,65.0,0.0,480.0,11.0,0.0
10465,41.0,0.0,120.0,14.0,0.0
10466,65.0,0.0,480.0,5.0,0.0
10467,65.0,0.0,120.0,2.0,0.0
10468,53.0,60.0,120.0,2.0,0.0
10469,70.0,0.0,240.0,0.0,0.0
10470,65.0,0.0,480.0,0.0,0.0
10471,60.0,0.0,480.0,12.0,0.0
10472,41.0,0.0,240.0,8.0,0.0
10473,65.0,0.0,240.0,15.0,0.0
10474,53.0,0.0,480.0,3.0,0.0
10475,65.0,0.0,480.0,3.0,0.0
10476,70.0,0.0,240.0,15.0,0.0
10477,60.0,0.0,480.0,3.0,0.0
10478,53.0,0.0,240.0,15.0,0.0
10479,70.0,120.0,240.0,10.0,0.0
10480,60.0,0.0,480.0,6.0,0.0
10481,60.0,0.0,240.0,15.0,0.0
10482,41.0,0.0,60.0,14.0,0.0
10483,53.0,0.0,60.0,2.0,0.0
10484,65.0,60.0,60.0,2.0,0.0
10485,65.0,0.0,60.0,2.0,0.0
10486,41.0,0.0,60.0,14.0,0.0
10487,53.0,0.0,60.0,2.0,0.0
10488,29.0,0.0,240.0,8.0,0.0
10489,53.0,0.0,120.0,2.0,0.0
10490,65.0,0.0,120.0,2.0,0.0
10491,53.0,0.0,240.0,15.0,0.0
10492,69.0,0.0,240.0,4.0,0.0
10493,69.0,0.0,240.0,0.0,0.0
10494,60.0,0.0,240.0,15.0,0.0
10495,69.0,0.0,240.0,10.0,0.0
10496,41.0,120.0,120.0,14.0,0.0
10497,69.0,0.0,240.0,15.0,0.0
10498,41.0,0.0,240.0,15.0,0.0
10499,41.0,0.0,120.0,14.0,0.0
10500,53.0,0.0,120.0,2.0,0.0
10501,65.0,480.0,120.0,2.0,0.0
10502,52.0,0.0,480.0,3.0,0.0
10503,58.0,0.0,480.0,2.0,0.0
10504,70.0,0.0,480.0,2.0,0.0
10505,46.0,0.0,480.0,14.0,0.0
10506,61.0,0.0,480.0,3.0,0.0
10507,61.0,0.0,480.0,1.0,0.0
10508,52.0,0.0,480.0,13.0,0.0
10509,70.0,0.0,480.0,0.0,0.0
10510,67.0,0.0,480.0,11.0,0.0
10511,70.0,0.0,480.0,4.0,0.0
10512,61.0,420.0,480.0,6.0,0.0
10513,52.0,0.0,480.0,1.0,0.0
10514,40.0,0.0,480.0,15.0,0.0
10515,67.0,0.0,480.0,15.0,0.0
10516,67.0,0.0,480.0,0.0,0.0
10517,61.0,0.0,480.0,15.0,0.0
10518,70.0,0.0,480.0,15.0,0.0
10519,67.0,0.0,480.0,5.0,0.0
10520,70.0,0.0,480.0,10.0,0.0
10521,61.0,0.0,480.0,12.0,0.0
10522,28.0,0.0,480.0,8.0,0.0
10523,67.0,0.0,480.0,3.0,0.0
10524,70.0,0.0,180.0,4.0,0.0
10525,67.0,0.0,240.0,15.0,0.0
10526,67.0,60.0,180.0,5.0,0.0
10527,52.0,0.0,240.0,15.0,0.0
10528,70.0,0.0,240.0,15.0,0.0
10529,70.0,0.0,180.0,10.0,0.0
10530,52.0,0.0,180.0,1.0,0.0
10531,67.0,0.0,180.0,3.0,0.0
10532,52.0,0.0,180.0,13.0,0.0
10533,61.0,0.0,180.0,3.0,0.0
10534,61.0,0.0,180.0,12.0,0.0
10535,67.0,0.0,180.0,11.0,0.0
10536,61.0,0.0,180.0,6.0,0.0
10537,52.0,0.0,180.0,3.0,0.0
10538,70.0,0.0,180.0,0.0,0.0
10539,67.0,0.0,180.0,0.0,0.0
10540,61.0,0.0,180.0,1.0,0.0
10541,61.0,0.0,240.0,15.0,0.0
10542,40.0,0.0,240.0,8.0,0.0
10543,61.0,0.0,60.0,1.0,0.0
10544,70.0,0.0,60.0,10.0,0.0
10545,61.0,0.0,60.0,12.0,0.0
10546,67.0,0.0,60.0,11.0,0.0
10547,67.0,240.0,60.0,5.0,0.0
10548,61.0,0.0,60.0,3.0,0.0
10549,67.0,0.0,60.0,3.0,0.0
10550,70.0,0.0,60.0,0.0,0.0
10551,52.0,0.0,60.0,13.0,0.0
10552,70.0,0.0,60.0,4.0,0.0
10553,61.0,0.0,60.0,6.0,0.0
10554,52.0,0.0,60.0,3.0,0.0
10555,52.0,0.0,60.0,1.0,0.0
10556,67.0,0.0,60.0,0.0,0.0
10557,41.0,0.0,240.0,14.0,0.0
10558,60.0,0.0,240.0,12.0,0.0
10559,65.0,0.0,720.0,11.0,0.0
10560,60.0,0.0,240.0,3.0,0.0
10561,53.0,0.0,240.0,13.0,0.0
10562,65.0,0.0,240.0,15.0,0.0
10563,69.0,0.0,240.0,15.0,0.0
10564,53.0,0.0,240.0,15.0,0.0
10565,60.0,0.0,240.0,15.0,0.0
10566,53.0,0.0,240.0,3.0,0.0
10567,69.0,0.0,240.0,4.0,0.0
10568,65.0,0.0,720.0,5.0,0.0
10569,53.0,0.0,240.0,1.0,0.0
10570,60.0,0.0,240.0,1.0,0.0
10571,60.0,120.0,240.0,6.0,0.0
10572,65.0,0.0,240.0,2.0,0.0
10573,53.0,0.0,240.0,2.0,0.0
10574,65.0,0.0,720.0,3.0,0.0
10575,69.0,0.0,240.0,10.0,0.0
10576,41.0,0.0,240.0,8.0,0.0
10577,69.0,0.0,240.0,0.0,0.0
10578,65.0,0.0,720.0,0.0,0.0
10579,70.0,0.0,240.0,15.0,0.0
10580,65.0,0.0,240.0,15.0,0.0
10581,49.0,120.0,120.0,15.0,0.0
10582,58.0,0.0,120.0,2.0,0.0
10583,49.0,0.0,120.0,3.0,0.0
10584,65.0,0.0,120.0,2.0,0.0
10585,61.0,0.0,480.0,3.0,0.0
10586,46.0,0.0,120.0,14.0,0.0
10587,70.0,0.0,480.0,10.0,0.0
10588,61.0,0.0,480.0,12.0,0.0
10589,37.0,0.0,120.0,8.0,0.0
10590,61.0,0.0,480.0,6.0,0.0
10591,49.0,0.0,120.0,13.0,0.0
10592,61.0,0.0,480.0,1.0,0.0
10593,70.0,0.0,480.0,0.0,0.0
10594,49.0,0.0,120.0,1.0,0.0
10595,70.0,0.0,480.0,4.0,0.0
10596,46.0,0.0,120.0,14.0,0.0
10597,46.0,0.0,120.0,13.0,0.0
10598,34.0,0.0,120.0,8.0,0.0
10599,46.0,0.0,120.0,1.0,0.0
10600,46.0,0.0,120.0,15.0,0.0
10601,58.0,0.0,120.0,2.0,0.0
10602,65.0,120.0,120.0,2.0,0.0
10603,46.0,0.0,120.0,3.0,0.0
10604,61.0,0.0,240.0,15.0,0.0
10605,41.0,0.0,240.0,15.0,0.0
10606,65.0,60.0,240.0,15.0,0.0
10607,70.0,0.0,240.0,15.0,0.0
10608,53.0,0.0,360.0,1.0,0.0
10609,41.0,60.0,120.0,14.0,0.0
10610,53.0,0.0,360.0,13.0,0.0
10611,29.0,0.0,240.0,8.0,0.0
10612,53.0,0.0,360.0,3.0,0.0
10613,65.0,0.0,240.0,2.0,0.0
10614,53.0,0.0,240.0,2.0,0.0
10615,41.0,60.0,60.0,14.0,0.0
10616,41.0,0.0,60.0,14.0,0.0
10617,29.0,0.0,240.0,8.0,0.0
10618,53.0,0.0,120.0,2.0,0.0
10619,60.0,0.0,240.0,6.0,0.0
10620,65.0,0.0,240.0,0.0,0.0
10621,69.0,0.0,240.0,0.0,0.0
10622,65.0,60.0,120.0,2.0,0.0
10623,69.0,0.0,240.0,10.0,0.0
10624,60.0,0.0,240.0,12.0,0.0
10625,65.0,0.0,240.0,15.0,0.0
10626,60.0,960.0,240.0,15.0,0.0
10627,69.0,0.0,240.0,15.0,0.0
10628,41.0,0.0,240.0,15.0,0.0
10629,60.0,0.0,240.0,3.0,0.0
10630,65.0,0.0,240.0,11.0,0.0
10631,69.0,0.0,240.0,4.0,0.0
10632,41.0,60.0,60.0,14.0,0.0
10633,65.0,0.0,240.0,3.0,0.0
10634,65.0,0.0,240.0,5.0,0.0
10635,60.0,0.0,240.0,1.0,0.0
10636,41.0,0.0,60.0,14.0,0.0
10637,53.0,0.0,120.0,1.0,0.0
10638,53.0,0.0,120.0,13.0,0.0
10639,53.0,0.0,120.0,3.0,0.0
10640,53.0,0.0,120.0,2.0,0.0
10641,65.0,0.0,120.0,2.0,0.0
10642,41.0,60.0,60.0,14.0,0.0
10643,41.0,0.0,60.0,14.0,0.0
10644,65.0,0.0,960.0,15.0,0.0
10645,46.0,0.0,960.0,15.0,0.0
10646,46.0,0.0,960.0,14.0,0.0
10647,65.0,0.0,960.0,3.0,0.0
10648,61.0,0.0,960.0,15.0,0.0
10649,70.0,0.0,960.0,4.0,0.0
10650,46.0,0.0,960.0,13.0,0.0
10651,34.0,0.0,960.0,8.0,0.0
10652,58.0,0.0,960.0,15.0,0.0
10653,65.0,0.0,960.0,5.0,0.0
10654,58.0,0.0,960.0,3.0,0.0
10655,65.0,0.0,960.0,0.0,0.0
10656,58.0,0.0,960.0,6.0,0.0
10657,58.0,0.0,960.0,1.0,0.0
10658,70.0,0.0,960.0,0.0,0.0
10659,70.0,0.0,960.0,15.0,0.0
10660,46.0,0.0,960.0,3.0,0.0
10661,65.0,0.0,960.0,11.0,0.0
10662,46.0,0.0,960.0,1.0,0.0
10663,70.0,0.0,960.0,10.0,0.0
10664,58.0,0.0,960.0,12.0,0.0
10665,65.0,0.0,960.0,2.0,0.0
10666,58.0,0.0,960.0,2.0,0.0
