,note,step,duration,channel,velocity
0,68.0,120.0,480.0,0.0,0.0
1,56.0,120.0,120.0,0.0,0.0
2,63.0,120.0,120.0,0.0,0.0
3,60.0,120.0,120.0,0.0,0.0
4,63.0,0.0,120.0,0.0,0.0
5,72.0,120.0,240.0,0.0,0.0
6,56.0,120.0,120.0,0.0,0.0
7,63.0,0.0,120.0,0.0,0.0
8,75.0,0.0,240.0,0.0,0.0
9,60.0,120.0,120.0,0.0,0.0
10,63.0,120.0,120.0,0.0,0.0
11,67.0,60.0,360.0,0.0,0.0
12,58.0,120.0,120.0,0.0,0.0
13,63.0,120.0,120.0,0.0,0.0
14,61.0,0.0,120.0,0.0,0.0
15,68.0,60.0,60.0,0.0,0.0
16,63.0,120.0,120.0,0.0,0.0
17,70.0,0.0,60.0,0.0,0.0
18,68.0,120.0,480.0,0.0,0.0
19,56.0,120.0,120.0,0.0,0.0
20,63.0,120.0,120.0,0.0,0.0
21,60.0,120.0,120.0,0.0,0.0
22,63.0,0.0,120.0,0.0,0.0
23,77.0,120.0,480.0,0.0,0.0
24,56.0,120.0,120.0,0.0,0.0
25,65.0,120.0,120.0,0.0,0.0
26,61.0,120.0,120.0,0.0,0.0
27,65.0,0.0,120.0,0.0,0.0
28,75.0,120.0,240.0,0.0,0.0
29,56.0,120.0,120.0,0.0,0.0
30,63.0,0.0,120.0,0.0,0.0
31,80.0,120.0,240.0,0.0,0.0
32,60.0,120.0,120.0,0.0,0.0
33,63.0,0.0,120.0,0.0,0.0
34,75.0,39.0,240.0,0.0,0.0
35,55.0,120.0,120.0,0.0,0.0
36,63.0,0.0,120.0,0.0,0.0
37,73.0,40.0,40.0,0.0,0.0
38,58.0,60.0,120.0,0.0,0.0
39,75.0,40.0,40.0,0.0,0.0
40,73.0,1.0,40.0,0.0,0.0
41,72.0,60.0,60.0,0.0,0.0
42,63.0,120.0,120.0,0.0,0.0
43,73.0,0.0,60.0,0.0,0.0
44,72.0,120.0,240.0,0.0,0.0
45,56.0,120.0,120.0,0.0,0.0
46,63.0,0.0,120.0,0.0,0.0
47,60.0,120.0,120.0,0.0,0.0
48,63.0,120.0,120.0,0.0,0.0
49,65.0,60.0,120.0,0.0,0.0
50,61.0,60.0,240.0,0.0,0.0
51,67.0,60.0,60.0,0.0,0.0
52,68.0,0.0,60.0,0.0,0.0
53,70.0,60.0,60.0,0.0,0.0
54,72.0,60.0,60.0,0.0,0.0
55,73.0,60.0,60.0,0.0,0.0
56,75.0,60.0,60.0,0.0,0.0
57,77.0,60.0,60.0,0.0,0.0
58,75.0,60.0,60.0,0.0,0.0
59,73.0,60.0,60.0,0.0,0.0
60,72.0,60.0,60.0,0.0,0.0
61,49.0,120.0,240.0,0.0,0.0
62,56.0,0.0,240.0,0.0,0.0
63,70.0,60.0,60.0,0.0,0.0
64,68.0,60.0,60.0,0.0,0.0
65,67.0,60.0,60.0,0.0,0.0
66,65.0,0.0,60.0,0.0,0.0
67,63.0,60.0,120.0,0.0,0.0
68,48.0,60.0,240.0,0.0,0.0
69,56.0,0.0,240.0,0.0,0.0
70,65.0,60.0,60.0,0.0,0.0
71,67.0,0.0,60.0,0.0,0.0
72,68.0,60.0,60.0,0.0,0.0
73,70.0,60.0,60.0,0.0,0.0
74,72.0,60.0,60.0,0.0,0.0
75,73.0,60.0,60.0,0.0,0.0
76,75.0,60.0,60.0,0.0,0.0
77,73.0,60.0,60.0,0.0,0.0
78,72.0,60.0,60.0,0.0,0.0
79,70.0,60.0,60.0,0.0,0.0
80,48.0,0.0,240.0,0.0,0.0
81,56.0,0.0,240.0,0.0,0.0
82,68.0,60.0,60.0,0.0,0.0
83,67.0,60.0,60.0,0.0,0.0
84,65.0,60.0,60.0,0.0,0.0
85,63.0,120.0,60.0,0.0,0.0
86,61.0,60.0,120.0,0.0,0.0
87,46.0,60.0,240.0,0.0,0.0
88,56.0,0.0,240.0,0.0,0.0
89,63.0,60.0,60.0,0.0,0.0
90,65.0,0.0,60.0,0.0,0.0
91,67.0,60.0,60.0,0.0,0.0
92,68.0,60.0,60.0,0.0,0.0
93,70.0,60.0,60.0,0.0,0.0
94,72.0,60.0,60.0,0.0,0.0
95,73.0,60.0,60.0,0.0,0.0
96,72.0,60.0,60.0,0.0,0.0
97,70.0,60.0,60.0,0.0,0.0
98,68.0,60.0,60.0,0.0,0.0
99,46.0,120.0,240.0,0.0,0.0
100,55.0,0.0,240.0,0.0,0.0
101,67.0,60.0,60.0,0.0,0.0
102,65.0,60.0,60.0,0.0,0.0
103,63.0,60.0,60.0,0.0,0.0
104,61.0,0.0,60.0,0.0,0.0
105,60.0,60.0,120.0,0.0,0.0
106,44.0,60.0,240.0,0.0,0.0
107,56.0,0.0,240.0,0.0,0.0
108,61.0,60.0,60.0,0.0,0.0
109,63.0,0.0,60.0,0.0,0.0
110,65.0,60.0,60.0,0.0,0.0
111,67.0,60.0,60.0,0.0,0.0
112,68.0,60.0,60.0,0.0,0.0
113,70.0,60.0,60.0,0.0,0.0
114,72.0,60.0,60.0,0.0,0.0
115,70.0,60.0,60.0,0.0,0.0
116,68.0,60.0,60.0,0.0,0.0
117,67.0,60.0,60.0,0.0,0.0
118,44.0,120.0,240.0,0.0,0.0
119,48.0,0.0,240.0,0.0,0.0
120,65.0,60.0,60.0,0.0,0.0
121,63.0,60.0,60.0,0.0,0.0
122,61.0,60.0,60.0,0.0,0.0
123,60.0,0.0,60.0,0.0,0.0
124,49.0,60.0,960.0,0.0,0.0
125,53.0,0.0,960.0,0.0,0.0
126,58.0,60.0,120.0,0.0,0.0
127,60.0,60.0,60.0,0.0,0.0
128,61.0,60.0,60.0,0.0,0.0
129,63.0,60.0,60.0,0.0,0.0
130,65.0,60.0,60.0,0.0,0.0
131,67.0,60.0,60.0,0.0,0.0
132,69.0,60.0,60.0,0.0,0.0
133,70.0,60.0,60.0,0.0,0.0
134,65.0,60.0,60.0,0.0,0.0
135,67.0,60.0,60.0,0.0,0.0
136,69.0,60.0,60.0,0.0,0.0
137,70.0,60.0,60.0,0.0,0.0
138,72.0,60.0,60.0,0.0,0.0
139,73.0,60.0,60.0,0.0,0.0
140,75.0,0.0,60.0,0.0,0.0
141,77.0,60.0,60.0,0.0,0.0
142,49.0,0.0,360.0,0.0,0.0
143,79.0,60.0,60.0,0.0,0.0
144,80.0,60.0,60.0,0.0,0.0
145,79.0,60.0,60.0,0.0,0.0
146,77.0,60.0,60.0,0.0,0.0
147,75.0,60.0,60.0,0.0,0.0
148,51.0,0.0,120.0,0.0,0.0
149,73.0,60.0,60.0,0.0,0.0
150,72.0,60.0,60.0,0.0,0.0
151,53.0,60.0,240.0,0.0,0.0
152,73.0,60.0,60.0,0.0,0.0
153,75.0,60.0,60.0,0.0,0.0
154,77.0,60.0,60.0,0.0,0.0
155,75.0,0.0,60.0,0.0,0.0
156,73.0,60.0,60.0,0.0,0.0
157,50.0,0.0,240.0,0.0,0.0
158,72.0,60.0,60.0,0.0,0.0
159,70.0,60.0,60.0,0.0,0.0
160,68.0,60.0,60.0,0.0,0.0
161,67.0,60.0,120.0,0.0,0.0
162,39.0,60.0,60.0,0.0,0.0
163,43.0,0.0,60.0,0.0,0.0
164,75.0,60.0,120.0,0.0,0.0
165,46.0,60.0,60.0,0.0,0.0
166,51.0,0.0,60.0,0.0,0.0
167,72.0,30.0,90.0,0.0,0.0
168,39.0,30.0,60.0,0.0,0.0
169,44.0,60.0,60.0,0.0,0.0
170,48.0,30.0,60.0,0.0,0.0
171,68.0,30.0,90.0,0.0,0.0
172,51.0,60.0,60.0,0.0,0.0
173,39.0,60.0,60.0,0.0,0.0
174,70.0,0.0,120.0,0.0,0.0
175,43.0,60.0,60.0,0.0,0.0
176,75.0,0.0,120.0,0.0,0.0
177,46.0,60.0,60.0,0.0,0.0
178,51.0,60.0,60.0,0.0,0.0
179,72.0,30.0,90.0,0.0,0.0
180,39.0,30.0,60.0,0.0,0.0
181,44.0,60.0,60.0,0.0,0.0
182,68.0,30.0,90.0,0.0,0.0
183,48.0,30.0,60.0,0.0,0.0
184,51.0,192.0,60.0,0.0,0.0
185,39.0,240.0,180.0,0.0,0.0
186,70.0,0.0,180.0,0.0,0.0
187,51.0,0.0,180.0,0.0,0.0
188,75.0,0.0,180.0,0.0,0.0
189,67.0,240.0,180.0,0.0,0.0
190,70.0,0.0,180.0,0.0,0.0
191,39.0,348.0,180.0,0.0,0.0
192,63.0,0.0,180.0,0.0,0.0
193,57.0,60.0,60.0,0.0,0.0
194,58.0,60.0,60.0,0.0,0.0
195,57.0,60.0,60.0,0.0,0.0
196,58.0,60.0,60.0,0.0,0.0
197,57.0,60.0,60.0,0.0,0.0
198,58.0,60.0,60.0,0.0,0.0
199,57.0,60.0,60.0,0.0,0.0
200,58.0,60.0,60.0,0.0,0.0
201,56.0,60.0,60.0,0.0,0.0
202,58.0,60.0,60.0,0.0,0.0
203,56.0,60.0,60.0,0.0,0.0
204,58.0,60.0,60.0,0.0,0.0
205,56.0,60.0,60.0,0.0,0.0
206,58.0,60.0,60.0,0.0,0.0
207,56.0,60.0,60.0,0.0,0.0
208,58.0,60.0,60.0,0.0,0.0
209,82.0,0.0,120.0,0.0,0.0
210,55.0,60.0,60.0,0.0,0.0
211,58.0,60.0,60.0,0.0,0.0
212,55.0,60.0,60.0,0.0,0.0
213,79.0,60.0,120.0,0.0,0.0
214,58.0,0.0,60.0,0.0,0.0
215,75.0,60.0,360.0,0.0,0.0
216,55.0,60.0,60.0,0.0,0.0
217,58.0,60.0,60.0,0.0,0.0
218,55.0,60.0,60.0,0.0,0.0
219,58.0,60.0,60.0,0.0,0.0
220,55.0,60.0,60.0,0.0,0.0
221,58.0,0.0,60.0,0.0,0.0
222,77.0,60.0,60.0,0.0,0.0
223,55.0,0.0,60.0,0.0,0.0
224,79.0,60.0,60.0,0.0,0.0
225,58.0,0.0,60.0,0.0,0.0
226,55.0,60.0,60.0,0.0,0.0
227,77.0,60.0,120.0,0.0,0.0
228,58.0,0.0,60.0,0.0,0.0
229,75.0,0.0,120.0,0.0,0.0
230,55.0,60.0,60.0,0.0,0.0
231,58.0,30.0,60.0,0.0,0.0
232,56.0,0.0,60.0,0.0,0.0
233,77.0,30.0,30.0,0.0,0.0
234,75.0,30.0,30.0,0.0,0.0
235,77.0,30.0,30.0,0.0,0.0
236,58.0,30.0,60.0,0.0,0.0
237,75.0,0.0,30.0,0.0,0.0
238,77.0,30.0,30.0,0.0,0.0
239,55.0,0.0,60.0,0.0,0.0
240,75.0,50.0,30.0,0.0,0.0
241,58.0,60.0,60.0,0.0,0.0
242,74.0,10.0,60.0,0.0,0.0
243,74.0,60.0,240.0,0.0,0.0
244,53.0,60.0,60.0,0.0,0.0
245,58.0,60.0,60.0,0.0,0.0
246,55.0,60.0,60.0,0.0,0.0
247,58.0,0.0,60.0,0.0,0.0
248,56.0,60.0,60.0,0.0,0.0
249,58.0,60.0,60.0,0.0,0.0
250,55.0,60.0,60.0,0.0,0.0
251,58.0,60.0,60.0,0.0,0.0
252,56.0,60.0,60.0,0.0,0.0
253,58.0,60.0,60.0,0.0,0.0
254,53.0,60.0,60.0,0.0,0.0
255,58.0,60.0,60.0,0.0,0.0
256,82.0,60.0,120.0,0.0,0.0
257,55.0,60.0,60.0,0.0,0.0
258,58.0,0.0,60.0,0.0,0.0
259,79.0,60.0,120.0,0.0,0.0
260,55.0,60.0,60.0,0.0,0.0
261,58.0,0.0,60.0,0.0,0.0
262,55.0,60.0,60.0,0.0,0.0
263,75.0,0.0,360.0,0.0,0.0
264,58.0,60.0,60.0,0.0,0.0
265,55.0,60.0,60.0,0.0,0.0
266,58.0,60.0,60.0,0.0,0.0
267,55.0,60.0,60.0,0.0,0.0
268,58.0,60.0,60.0,0.0,0.0
269,55.0,0.0,60.0,0.0,0.0
270,77.0,60.0,60.0,0.0,0.0
271,79.0,60.0,60.0,0.0,0.0
272,58.0,0.0,60.0,0.0,0.0
273,77.0,60.0,120.0,0.0,0.0
274,55.0,60.0,60.0,0.0,0.0
275,58.0,0.0,60.0,0.0,0.0
276,75.0,30.0,120.0,0.0,0.0
277,55.0,60.0,60.0,0.0,0.0
278,58.0,0.0,60.0,0.0,0.0
279,77.0,30.0,30.0,0.0,0.0
280,56.0,30.0,60.0,0.0,0.0
281,75.0,0.0,30.0,0.0,0.0
282,77.0,30.0,30.0,0.0,0.0
283,58.0,30.0,60.0,0.0,0.0
284,75.0,0.0,30.0,0.0,0.0
285,77.0,30.0,30.0,0.0,0.0
286,55.0,50.0,60.0,0.0,0.0
287,75.0,0.0,30.0,0.0,0.0
288,74.0,10.0,60.0,0.0,0.0
289,58.0,60.0,60.0,0.0,0.0
290,53.0,60.0,60.0,0.0,0.0
291,74.0,60.0,240.0,0.0,0.0
292,58.0,60.0,60.0,0.0,0.0
293,55.0,60.0,60.0,0.0,0.0
294,58.0,0.0,60.0,0.0,0.0
295,56.0,60.0,60.0,0.0,0.0
296,58.0,60.0,60.0,0.0,0.0
297,55.0,60.0,60.0,0.0,0.0
298,58.0,60.0,60.0,0.0,0.0
299,56.0,60.0,60.0,0.0,0.0
300,58.0,60.0,60.0,0.0,0.0
301,53.0,60.0,60.0,0.0,0.0
302,58.0,120.0,60.0,0.0,0.0
303,82.0,0.0,240.0,0.0,0.0
304,55.0,60.0,60.0,0.0,0.0
305,58.0,60.0,60.0,0.0,0.0
306,63.0,120.0,60.0,0.0,0.0
307,67.0,120.0,240.0,0.0,0.0
308,82.0,60.0,60.0,0.0,0.0
309,79.0,60.0,60.0,0.0,0.0
310,75.0,0.0,60.0,0.0,0.0
311,72.0,0.0,240.0,0.0,0.0
312,56.0,60.0,60.0,0.0,0.0
313,60.0,60.0,60.0,0.0,0.0
314,63.0,120.0,60.0,0.0,0.0
315,68.0,120.0,240.0,0.0,0.0
316,72.0,60.0,60.0,0.0,0.0
317,75.0,60.0,60.0,0.0,0.0
318,72.0,0.0,60.0,0.0,0.0
319,80.0,0.0,240.0,0.0,0.0
320,53.0,60.0,60.0,0.0,0.0
321,56.0,60.0,60.0,0.0,0.0
322,62.0,120.0,60.0,0.0,0.0
323,65.0,120.0,240.0,0.0,0.0
324,80.0,60.0,60.0,0.0,0.0
325,77.0,60.0,60.0,0.0,0.0
326,74.0,0.0,60.0,0.0,0.0
327,70.0,0.0,240.0,0.0,0.0
328,55.0,60.0,60.0,0.0,0.0
329,58.0,60.0,60.0,0.0,0.0
330,62.0,120.0,60.0,0.0,0.0
331,67.0,0.0,240.0,0.0,0.0
332,70.0,60.0,60.0,0.0,0.0
333,74.0,60.0,60.0,0.0,0.0
334,70.0,120.0,60.0,0.0,0.0
335,79.0,120.0,240.0,0.0,0.0
336,51.0,60.0,60.0,0.0,0.0
337,55.0,60.0,60.0,0.0,0.0
338,60.0,0.0,60.0,0.0,0.0
339,63.0,0.0,240.0,0.0,0.0
340,79.0,60.0,60.0,0.0,0.0
341,75.0,60.0,60.0,0.0,0.0
342,72.0,120.0,60.0,0.0,0.0
343,68.0,120.0,240.0,0.0,0.0
344,53.0,60.0,60.0,0.0,0.0
345,56.0,60.0,60.0,0.0,0.0
346,60.0,0.0,60.0,0.0,0.0
347,65.0,120.0,240.0,0.0,0.0
348,68.0,60.0,60.0,0.0,0.0
349,72.0,60.0,60.0,0.0,0.0
350,68.0,0.0,60.0,0.0,0.0
351,77.0,120.0,240.0,0.0,0.0
352,50.0,60.0,60.0,0.0,0.0
353,53.0,60.0,60.0,0.0,0.0
354,58.0,0.0,60.0,0.0,0.0
355,62.0,0.0,240.0,0.0,0.0
356,77.0,60.0,60.0,0.0,0.0
357,74.0,60.0,60.0,0.0,0.0
358,70.0,120.0,60.0,0.0,0.0
359,67.0,120.0,240.0,0.0,0.0
360,51.0,60.0,60.0,0.0,0.0
361,55.0,60.0,60.0,0.0,0.0
362,58.0,0.0,60.0,0.0,0.0
363,63.0,96.0,240.0,0.0,0.0
364,75.0,60.0,60.0,0.0,0.0
365,70.0,60.0,60.0,0.0,0.0
366,67.0,0.0,60.0,0.0,0.0
367,60.0,120.0,90.0,0.0,0.0
368,56.0,0.0,90.0,0.0,0.0
369,65.0,30.0,480.0,0.0,0.0
370,60.0,120.0,90.0,0.0,0.0
371,56.0,0.0,90.0,0.0,0.0
372,60.0,0.0,90.0,0.0,0.0
373,56.0,120.0,90.0,0.0,0.0
374,56.0,0.0,90.0,0.0,0.0
375,60.0,24.0,90.0,0.0,0.0
376,60.0,120.0,90.0,0.0,0.0
377,56.0,0.0,90.0,0.0,0.0
378,67.0,66.0,30.0,0.0,0.0
379,68.0,30.0,210.0,0.0,0.0
380,60.0,24.0,90.0,0.0,0.0
381,56.0,0.0,90.0,0.0,0.0
382,71.0,66.0,30.0,0.0,0.0
383,60.0,120.0,90.0,0.0,0.0
384,56.0,0.0,90.0,0.0,0.0
385,72.0,30.0,210.0,0.0,0.0
386,56.0,24.0,90.0,0.0,0.0
387,60.0,0.0,90.0,0.0,0.0
388,60.0,120.0,90.0,0.0,0.0
389,56.0,0.0,90.0,0.0,0.0
390,76.0,66.0,30.0,0.0,0.0
391,77.0,30.0,330.0,0.0,0.0
392,60.0,120.0,90.0,0.0,0.0
393,56.0,0.0,90.0,0.0,0.0
394,60.0,0.0,90.0,0.0,0.0
395,56.0,24.0,90.0,0.0,0.0
396,56.0,24.0,90.0,0.0,0.0
397,79.0,30.0,30.0,0.0,0.0
398,60.0,0.0,90.0,0.0,0.0
399,77.0,30.0,30.0,0.0,0.0
400,76.0,6.0,30.0,0.0,0.0
401,77.0,96.0,30.0,0.0,0.0
402,60.0,24.0,90.0,0.0,0.0
403,56.0,0.0,90.0,0.0,0.0
404,80.0,96.0,120.0,0.0,0.0
405,60.0,24.0,90.0,0.0,0.0
406,56.0,0.0,90.0,0.0,0.0
407,77.0,96.0,120.0,0.0,0.0
408,80.0,96.0,120.0,0.0,0.0
409,60.0,24.0,90.0,0.0,0.0
410,56.0,0.0,90.0,0.0,0.0
411,77.0,60.0,120.0,0.0,0.0
412,56.0,24.0,90.0,0.0,0.0
413,60.0,0.0,90.0,0.0,0.0
414,79.0,0.0,120.0,0.0,0.0
415,58.0,60.0,60.0,0.0,0.0
416,67.0,60.0,60.0,0.0,0.0
417,75.0,60.0,120.0,0.0,0.0
418,63.0,60.0,60.0,0.0,0.0
419,67.0,0.0,60.0,0.0,0.0
420,58.0,60.0,60.0,0.0,0.0
421,82.0,0.0,480.0,0.0,0.0
422,67.0,60.0,60.0,0.0,0.0
423,63.0,60.0,60.0,0.0,0.0
424,67.0,60.0,60.0,0.0,0.0
425,58.0,60.0,60.0,0.0,0.0
426,67.0,60.0,60.0,0.0,0.0
427,63.0,60.0,60.0,0.0,0.0
428,67.0,60.0,60.0,0.0,0.0
429,80.0,0.0,60.0,0.0,0.0
430,58.0,60.0,60.0,0.0,0.0
431,79.0,60.0,60.0,0.0,0.0
432,67.0,0.0,60.0,0.0,0.0
433,77.0,60.0,60.0,0.0,0.0
434,63.0,0.0,60.0,0.0,0.0
435,75.0,30.0,60.0,0.0,0.0
436,67.0,0.0,60.0,0.0,0.0
437,58.0,3.0,60.0,0.0,0.0
438,79.0,30.0,30.0,0.0,0.0
439,77.0,30.0,30.0,0.0,0.0
440,68.0,27.0,60.0,0.0,0.0
441,79.0,30.0,30.0,0.0,0.0
442,77.0,3.0,30.0,0.0,0.0
443,62.0,27.0,60.0,0.0,0.0
444,79.0,30.0,30.0,0.0,0.0
445,77.0,3.0,30.0,0.0,0.0
446,68.0,27.0,60.0,0.0,0.0
447,79.0,30.0,30.0,0.0,0.0
448,77.0,3.0,30.0,0.0,0.0
449,79.0,30.0,30.0,0.0,0.0
450,58.0,27.0,60.0,0.0,0.0
451,77.0,3.0,30.0,0.0,0.0
452,68.0,27.0,60.0,0.0,0.0
453,79.0,30.0,30.0,0.0,0.0
454,77.0,3.0,30.0,0.0,0.0
455,79.0,30.0,30.0,0.0,0.0
456,62.0,27.0,60.0,0.0,0.0
457,77.0,3.0,30.0,0.0,0.0
458,68.0,27.0,60.0,0.0,0.0
459,79.0,30.0,30.0,0.0,0.0
460,77.0,3.0,30.0,0.0,0.0
461,58.0,27.0,60.0,0.0,0.0
462,79.0,30.0,30.0,0.0,0.0
463,77.0,3.0,30.0,0.0,0.0
464,68.0,27.0,60.0,0.0,0.0
465,79.0,30.0,30.0,0.0,0.0
466,77.0,3.0,30.0,0.0,0.0
467,62.0,27.0,60.0,0.0,0.0
468,79.0,30.0,30.0,0.0,0.0
469,77.0,3.0,30.0,0.0,0.0
470,68.0,27.0,60.0,0.0,0.0
471,79.0,30.0,30.0,0.0,0.0
472,77.0,3.0,30.0,0.0,0.0
473,58.0,27.0,60.0,0.0,0.0
474,79.0,30.0,30.0,0.0,0.0
475,77.0,3.0,30.0,0.0,0.0
476,68.0,27.0,60.0,0.0,0.0
477,79.0,30.0,30.0,0.0,0.0
478,77.0,3.0,30.0,0.0,0.0
479,79.0,30.0,30.0,0.0,0.0
480,62.0,24.0,60.0,0.0,0.0
481,77.0,3.0,30.0,0.0,0.0
482,68.0,240.0,60.0,0.0,0.0
483,75.0,30.0,30.0,0.0,0.0
484,77.0,0.0,30.0,0.0,0.0
485,63.0,60.0,240.0,0.0,0.0
486,67.0,0.0,240.0,0.0,0.0
487,75.0,0.0,15.0,0.0,0.0
488,70.0,60.0,60.0,0.0,0.0
489,75.0,60.0,60.0,0.0,0.0
490,79.0,60.0,60.0,0.0,0.0
491,82.0,60.0,60.0,0.0,0.0
492,79.0,60.0,60.0,0.0,0.0
493,75.0,60.0,60.0,0.0,0.0
494,79.0,60.0,60.0,0.0,0.0
495,58.0,240.0,240.0,0.0,0.0
496,65.0,0.0,240.0,0.0,0.0
497,68.0,0.0,240.0,0.0,0.0
498,80.0,60.0,60.0,0.0,0.0
499,77.0,60.0,60.0,0.0,0.0
500,74.0,60.0,60.0,0.0,0.0
501,77.0,0.0,60.0,0.0,0.0
502,67.0,0.0,240.0,0.0,0.0
503,75.0,60.0,240.0,0.0,0.0
504,63.0,0.0,240.0,0.0,0.0
505,63.0,60.0,60.0,0.0,0.0
506,58.0,60.0,60.0,0.0,0.0
507,63.0,60.0,60.0,0.0,0.0
508,67.0,60.0,60.0,0.0,0.0
509,70.0,60.0,60.0,0.0,0.0
510,67.0,60.0,60.0,0.0,0.0
511,63.0,60.0,60.0,0.0,0.0
512,67.0,60.0,60.0,0.0,0.0
513,46.0,192.0,240.0,0.0,0.0
514,53.0,0.0,240.0,0.0,0.0
515,68.0,60.0,60.0,0.0,0.0
516,56.0,0.0,240.0,0.0,0.0
517,65.0,60.0,60.0,0.0,0.0
518,62.0,60.0,60.0,0.0,0.0
519,65.0,0.0,60.0,0.0,0.0
520,51.0,0.0,180.0,0.0,0.0
521,63.0,0.0,180.0,0.0,0.0
522,55.0,240.0,180.0,0.0,0.0
523,51.0,240.0,180.0,0.0,0.0
524,39.0,0.0,180.0,0.0,0.0
525,79.0,0.0,180.0,0.0,0.0
526,70.0,0.0,180.0,0.0,0.0
527,51.0,0.0,180.0,0.0,0.0
528,39.0,0.0,180.0,0.0,0.0
529,75.0,408.0,180.0,0.0,0.0
530,67.0,0.0,180.0,0.0,0.0
531,68.0,120.0,480.0,0.0,0.0
532,56.0,120.0,120.0,0.0,0.0
533,63.0,120.0,120.0,0.0,0.0
534,60.0,120.0,120.0,0.0,0.0
535,63.0,0.0,120.0,0.0,0.0
536,72.0,120.0,240.0,0.0,0.0
537,56.0,120.0,120.0,0.0,0.0
538,63.0,0.0,120.0,0.0,0.0
539,60.0,120.0,120.0,0.0,0.0
540,75.0,120.0,240.0,0.0,0.0
541,63.0,0.0,120.0,0.0,0.0
542,67.0,0.0,360.0,0.0,0.0
543,58.0,120.0,120.0,0.0,0.0
544,63.0,120.0,120.0,0.0,0.0
545,61.0,60.0,120.0,0.0,0.0
546,63.0,120.0,120.0,0.0,0.0
547,68.0,60.0,60.0,0.0,0.0
548,70.0,0.0,60.0,0.0,0.0
549,68.0,0.0,480.0,0.0,0.0
550,56.0,120.0,120.0,0.0,0.0
551,63.0,120.0,120.0,0.0,0.0
552,60.0,120.0,120.0,0.0,0.0
553,63.0,120.0,120.0,0.0,0.0
554,56.0,120.0,120.0,0.0,0.0
555,77.0,120.0,480.0,0.0,0.0
556,65.0,120.0,120.0,0.0,0.0
557,61.0,120.0,120.0,0.0,0.0
558,65.0,0.0,120.0,0.0,0.0
559,75.0,0.0,240.0,0.0,0.0
560,56.0,120.0,120.0,0.0,0.0
561,63.0,120.0,120.0,0.0,0.0
562,60.0,120.0,120.0,0.0,0.0
563,80.0,0.0,240.0,0.0,0.0
564,63.0,120.0,120.0,0.0,0.0
565,55.0,120.0,120.0,0.0,0.0
566,75.0,39.0,240.0,0.0,0.0
567,63.0,0.0,120.0,0.0,0.0
568,73.0,40.0,40.0,0.0,0.0
569,58.0,60.0,120.0,0.0,0.0
570,75.0,40.0,40.0,0.0,0.0
571,73.0,1.0,40.0,0.0,0.0
572,63.0,120.0,120.0,0.0,0.0
573,72.0,60.0,60.0,0.0,0.0
574,73.0,0.0,60.0,0.0,0.0
575,72.0,120.0,240.0,0.0,0.0
576,56.0,120.0,120.0,0.0,0.0
577,63.0,0.0,120.0,0.0,0.0
578,60.0,120.0,120.0,0.0,0.0
579,63.0,120.0,120.0,0.0,0.0
580,65.0,60.0,120.0,0.0,0.0
581,61.0,60.0,240.0,0.0,0.0
582,67.0,60.0,60.0,0.0,0.0
583,68.0,0.0,60.0,0.0,0.0
584,70.0,60.0,60.0,0.0,0.0
585,72.0,60.0,60.0,0.0,0.0
586,73.0,60.0,60.0,0.0,0.0
587,75.0,60.0,60.0,0.0,0.0
588,77.0,60.0,60.0,0.0,0.0
589,75.0,60.0,60.0,0.0,0.0
590,73.0,60.0,60.0,0.0,0.0
591,72.0,60.0,60.0,0.0,0.0
592,49.0,0.0,240.0,0.0,0.0
593,70.0,60.0,60.0,0.0,0.0
594,68.0,60.0,60.0,0.0,0.0
595,67.0,60.0,60.0,0.0,0.0
596,65.0,120.0,60.0,0.0,0.0
597,56.0,0.0,15.0,0.0,0.0
598,63.0,60.0,120.0,0.0,0.0
599,48.0,0.0,240.0,0.0,0.0
600,65.0,60.0,60.0,0.0,0.0
601,67.0,60.0,60.0,0.0,0.0
602,68.0,60.0,60.0,0.0,0.0
603,70.0,60.0,60.0,0.0,0.0
604,72.0,60.0,60.0,0.0,0.0
605,73.0,60.0,60.0,0.0,0.0
606,75.0,60.0,60.0,0.0,0.0
607,73.0,60.0,60.0,0.0,0.0
608,72.0,60.0,60.0,0.0,0.0
609,70.0,60.0,60.0,0.0,0.0
610,68.0,60.0,60.0,0.0,0.0
611,56.0,0.0,240.0,0.0,0.0
612,48.0,120.0,240.0,0.0,0.0
613,67.0,60.0,60.0,0.0,0.0
614,65.0,60.0,60.0,0.0,0.0
615,63.0,0.0,60.0,0.0,0.0
616,46.0,60.0,240.0,0.0,0.0
617,61.0,60.0,120.0,0.0,0.0
618,56.0,0.0,240.0,0.0,0.0
619,63.0,60.0,60.0,0.0,0.0
620,65.0,0.0,60.0,0.0,0.0
621,67.0,60.0,60.0,0.0,0.0
622,68.0,60.0,60.0,0.0,0.0
623,70.0,60.0,60.0,0.0,0.0
624,72.0,60.0,60.0,0.0,0.0
625,73.0,60.0,60.0,0.0,0.0
626,72.0,60.0,60.0,0.0,0.0
627,70.0,60.0,60.0,0.0,0.0
628,68.0,60.0,60.0,0.0,0.0
629,46.0,0.0,240.0,0.0,0.0
630,55.0,120.0,240.0,0.0,0.0
631,67.0,60.0,60.0,0.0,0.0
632,65.0,60.0,60.0,0.0,0.0
633,63.0,60.0,60.0,0.0,0.0
634,61.0,0.0,60.0,0.0,0.0
635,44.0,60.0,240.0,0.0,0.0
636,56.0,0.0,240.0,0.0,0.0
637,60.0,60.0,120.0,0.0,0.0
638,61.0,60.0,60.0,0.0,0.0
639,63.0,0.0,60.0,0.0,0.0
640,65.0,60.0,60.0,0.0,0.0
641,67.0,60.0,60.0,0.0,0.0
642,68.0,60.0,60.0,0.0,0.0
643,70.0,60.0,60.0,0.0,0.0
644,72.0,60.0,60.0,0.0,0.0
645,70.0,60.0,60.0,0.0,0.0
646,68.0,60.0,60.0,0.0,0.0
647,67.0,60.0,60.0,0.0,0.0
648,44.0,120.0,240.0,0.0,0.0
649,48.0,0.0,240.0,0.0,0.0
650,65.0,60.0,60.0,0.0,0.0
651,63.0,60.0,60.0,0.0,0.0
652,61.0,60.0,60.0,0.0,0.0
653,60.0,0.0,60.0,0.0,0.0
654,58.0,60.0,120.0,0.0,0.0
655,49.0,60.0,960.0,0.0,0.0
656,53.0,0.0,960.0,0.0,0.0
657,60.0,60.0,60.0,0.0,0.0
658,61.0,60.0,60.0,0.0,0.0
659,63.0,60.0,60.0,0.0,0.0
660,65.0,60.0,60.0,0.0,0.0
661,67.0,60.0,60.0,0.0,0.0
662,69.0,60.0,60.0,0.0,0.0
663,70.0,60.0,60.0,0.0,0.0
664,65.0,60.0,60.0,0.0,0.0
665,67.0,60.0,60.0,0.0,0.0
666,69.0,60.0,60.0,0.0,0.0
667,70.0,60.0,60.0,0.0,0.0
668,72.0,60.0,60.0,0.0,0.0
669,73.0,60.0,60.0,0.0,0.0
670,75.0,0.0,60.0,0.0,0.0
671,77.0,60.0,60.0,0.0,0.0
672,49.0,0.0,360.0,0.0,0.0
673,79.0,60.0,60.0,0.0,0.0
674,80.0,60.0,60.0,0.0,0.0
675,79.0,60.0,60.0,0.0,0.0
676,77.0,60.0,60.0,0.0,0.0
677,75.0,60.0,60.0,0.0,0.0
678,51.0,60.0,120.0,0.0,0.0
679,73.0,60.0,60.0,0.0,0.0
680,72.0,0.0,60.0,0.0,0.0
681,53.0,60.0,240.0,0.0,0.0
682,73.0,60.0,60.0,0.0,0.0
683,75.0,60.0,60.0,0.0,0.0
684,77.0,60.0,60.0,0.0,0.0
685,75.0,0.0,60.0,0.0,0.0
686,50.0,0.0,240.0,0.0,0.0
687,73.0,60.0,60.0,0.0,0.0
688,72.0,60.0,60.0,0.0,0.0
689,70.0,60.0,60.0,0.0,0.0
690,68.0,60.0,60.0,0.0,0.0
691,67.0,60.0,120.0,0.0,0.0
692,39.0,60.0,60.0,0.0,0.0
693,43.0,0.0,60.0,0.0,0.0
694,75.0,0.0,120.0,0.0,0.0
695,46.0,60.0,60.0,0.0,0.0
696,51.0,60.0,60.0,0.0,0.0
697,39.0,30.0,60.0,0.0,0.0
698,72.0,30.0,90.0,0.0,0.0
699,44.0,60.0,60.0,0.0,0.0
700,48.0,30.0,60.0,0.0,0.0
701,68.0,30.0,90.0,0.0,0.0
702,51.0,60.0,60.0,0.0,0.0
703,39.0,60.0,60.0,0.0,0.0
704,70.0,60.0,120.0,0.0,0.0
705,43.0,0.0,60.0,0.0,0.0
706,46.0,60.0,60.0,0.0,0.0
707,75.0,60.0,120.0,0.0,0.0
708,51.0,0.0,60.0,0.0,0.0
709,39.0,30.0,60.0,0.0,0.0
710,72.0,30.0,90.0,0.0,0.0
711,44.0,60.0,60.0,0.0,0.0
712,68.0,30.0,90.0,0.0,0.0
713,48.0,30.0,60.0,0.0,0.0
714,51.0,192.0,60.0,0.0,0.0
715,70.0,0.0,180.0,0.0,0.0
716,39.0,240.0,180.0,0.0,0.0
717,51.0,0.0,180.0,0.0,0.0
718,75.0,0.0,180.0,0.0,0.0
719,70.0,240.0,180.0,0.0,0.0
720,67.0,0.0,180.0,0.0,0.0
721,39.0,348.0,180.0,0.0,0.0
722,63.0,0.0,180.0,0.0,0.0
723,57.0,60.0,60.0,0.0,0.0
724,58.0,60.0,60.0,0.0,0.0
725,57.0,60.0,60.0,0.0,0.0
726,58.0,60.0,60.0,0.0,0.0
727,57.0,60.0,60.0,0.0,0.0
728,58.0,60.0,60.0,0.0,0.0
729,57.0,60.0,60.0,0.0,0.0
730,58.0,60.0,60.0,0.0,0.0
731,56.0,60.0,60.0,0.0,0.0
732,58.0,60.0,60.0,0.0,0.0
733,56.0,60.0,60.0,0.0,0.0
734,58.0,60.0,60.0,0.0,0.0
735,56.0,60.0,60.0,0.0,0.0
736,58.0,60.0,60.0,0.0,0.0
737,56.0,60.0,60.0,0.0,0.0
738,58.0,60.0,60.0,0.0,0.0
739,82.0,60.0,120.0,0.0,0.0
740,55.0,60.0,60.0,0.0,0.0
741,58.0,0.0,60.0,0.0,0.0
742,79.0,60.0,120.0,0.0,0.0
743,55.0,60.0,60.0,0.0,0.0
744,58.0,0.0,60.0,0.0,0.0
745,75.0,60.0,360.0,0.0,0.0
746,55.0,60.0,60.0,0.0,0.0
747,58.0,60.0,60.0,0.0,0.0
748,55.0,60.0,60.0,0.0,0.0
749,58.0,60.0,60.0,0.0,0.0
750,55.0,60.0,60.0,0.0,0.0
751,58.0,0.0,60.0,0.0,0.0
752,77.0,0.0,60.0,0.0,0.0
753,55.0,60.0,60.0,0.0,0.0
754,79.0,0.0,60.0,0.0,0.0
755,58.0,60.0,60.0,0.0,0.0
756,77.0,60.0,120.0,0.0,0.0
757,55.0,60.0,60.0,0.0,0.0
758,58.0,0.0,60.0,0.0,0.0
759,75.0,0.0,120.0,0.0,0.0
760,55.0,60.0,60.0,0.0,0.0
761,58.0,30.0,60.0,0.0,0.0
762,77.0,30.0,30.0,0.0,0.0
763,56.0,30.0,60.0,0.0,0.0
764,75.0,0.0,30.0,0.0,0.0
765,77.0,30.0,30.0,0.0,0.0
766,58.0,0.0,60.0,0.0,0.0
767,75.0,30.0,30.0,0.0,0.0
768,77.0,30.0,30.0,0.0,0.0
769,55.0,50.0,60.0,0.0,0.0
770,75.0,0.0,30.0,0.0,0.0
771,74.0,10.0,60.0,0.0,0.0
772,58.0,60.0,60.0,0.0,0.0
773,53.0,60.0,60.0,0.0,0.0
774,74.0,60.0,240.0,0.0,0.0
775,58.0,60.0,60.0,0.0,0.0
776,55.0,60.0,60.0,0.0,0.0
777,58.0,0.0,60.0,0.0,0.0
778,56.0,60.0,60.0,0.0,0.0
779,58.0,60.0,60.0,0.0,0.0
780,55.0,60.0,60.0,0.0,0.0
781,58.0,60.0,60.0,0.0,0.0
782,56.0,60.0,60.0,0.0,0.0
783,58.0,60.0,60.0,0.0,0.0
784,53.0,60.0,60.0,0.0,0.0
785,58.0,60.0,60.0,0.0,0.0
786,82.0,60.0,120.0,0.0,0.0
787,55.0,60.0,60.0,0.0,0.0
788,58.0,0.0,60.0,0.0,0.0
789,79.0,60.0,120.0,0.0,0.0
790,55.0,60.0,60.0,0.0,0.0
791,58.0,0.0,60.0,0.0,0.0
792,55.0,60.0,60.0,0.0,0.0
793,75.0,60.0,360.0,0.0,0.0
794,58.0,60.0,60.0,0.0,0.0
795,55.0,60.0,60.0,0.0,0.0
796,58.0,60.0,60.0,0.0,0.0
797,55.0,60.0,60.0,0.0,0.0
798,58.0,0.0,60.0,0.0,0.0
799,55.0,0.0,60.0,0.0,0.0
800,77.0,60.0,60.0,0.0,0.0
801,79.0,60.0,60.0,0.0,0.0
802,58.0,0.0,60.0,0.0,0.0
803,77.0,60.0,120.0,0.0,0.0
804,55.0,60.0,60.0,0.0,0.0
805,58.0,0.0,60.0,0.0,0.0
806,75.0,30.0,120.0,0.0,0.0
807,55.0,60.0,60.0,0.0,0.0
808,58.0,0.0,60.0,0.0,0.0
809,77.0,30.0,30.0,0.0,0.0
810,56.0,30.0,60.0,0.0,0.0
811,75.0,0.0,30.0,0.0,0.0
812,77.0,30.0,30.0,0.0,0.0
813,58.0,30.0,60.0,0.0,0.0
814,75.0,0.0,30.0,0.0,0.0
815,77.0,30.0,30.0,0.0,0.0
816,55.0,50.0,60.0,0.0,0.0
817,75.0,0.0,30.0,0.0,0.0
818,58.0,60.0,60.0,0.0,0.0
819,74.0,10.0,60.0,0.0,0.0
820,74.0,60.0,240.0,0.0,0.0
821,53.0,60.0,60.0,0.0,0.0
822,58.0,60.0,60.0,0.0,0.0
823,55.0,60.0,60.0,0.0,0.0
824,58.0,0.0,60.0,0.0,0.0
825,56.0,60.0,60.0,0.0,0.0
826,58.0,60.0,60.0,0.0,0.0
827,55.0,60.0,60.0,0.0,0.0
828,58.0,60.0,60.0,0.0,0.0
829,56.0,60.0,60.0,0.0,0.0
830,58.0,60.0,60.0,0.0,0.0
831,53.0,60.0,60.0,0.0,0.0
832,58.0,120.0,60.0,0.0,0.0
833,82.0,120.0,240.0,0.0,0.0
834,55.0,60.0,60.0,0.0,0.0
835,58.0,60.0,60.0,0.0,0.0
836,63.0,0.0,60.0,0.0,0.0
837,67.0,120.0,240.0,0.0,0.0
838,82.0,60.0,60.0,0.0,0.0
839,79.0,60.0,60.0,0.0,0.0
840,75.0,0.0,60.0,0.0,0.0
841,72.0,0.0,240.0,0.0,0.0
842,56.0,60.0,60.0,0.0,0.0
843,60.0,60.0,60.0,0.0,0.0
844,63.0,120.0,60.0,0.0,0.0
845,68.0,120.0,240.0,0.0,0.0
846,72.0,60.0,60.0,0.0,0.0
847,75.0,60.0,60.0,0.0,0.0
848,72.0,0.0,60.0,0.0,0.0
849,80.0,120.0,240.0,0.0,0.0
850,53.0,60.0,60.0,0.0,0.0
851,56.0,60.0,60.0,0.0,0.0
852,62.0,0.0,60.0,0.0,0.0
853,65.0,0.0,240.0,0.0,0.0
854,80.0,60.0,60.0,0.0,0.0
855,77.0,60.0,60.0,0.0,0.0
856,74.0,120.0,60.0,0.0,0.0
857,70.0,120.0,240.0,0.0,0.0
858,55.0,60.0,60.0,0.0,0.0
859,58.0,60.0,60.0,0.0,0.0
860,62.0,0.0,60.0,0.0,0.0
861,67.0,120.0,240.0,0.0,0.0
862,70.0,60.0,60.0,0.0,0.0
863,74.0,60.0,60.0,0.0,0.0
864,70.0,0.0,60.0,0.0,0.0
865,79.0,0.0,240.0,0.0,0.0
866,51.0,60.0,60.0,0.0,0.0
867,55.0,60.0,60.0,0.0,0.0
868,60.0,120.0,60.0,0.0,0.0
869,63.0,120.0,240.0,0.0,0.0
870,79.0,60.0,60.0,0.0,0.0
871,75.0,60.0,60.0,0.0,0.0
872,72.0,0.0,60.0,0.0,0.0
873,68.0,120.0,240.0,0.0,0.0
874,53.0,60.0,60.0,0.0,0.0
875,56.0,60.0,60.0,0.0,0.0
876,60.0,0.0,60.0,0.0,0.0
877,65.0,120.0,240.0,0.0,0.0
878,68.0,60.0,60.0,0.0,0.0
879,72.0,60.0,60.0,0.0,0.0
880,68.0,0.0,60.0,0.0,0.0
881,77.0,120.0,240.0,0.0,0.0
882,50.0,60.0,60.0,0.0,0.0
883,53.0,60.0,60.0,0.0,0.0
884,58.0,0.0,60.0,0.0,0.0
885,62.0,120.0,240.0,0.0,0.0
886,77.0,60.0,60.0,0.0,0.0
887,74.0,60.0,60.0,0.0,0.0
888,70.0,0.0,60.0,0.0,0.0
889,67.0,120.0,240.0,0.0,0.0
890,51.0,60.0,60.0,0.0,0.0
891,55.0,60.0,60.0,0.0,0.0
892,58.0,0.0,60.0,0.0,0.0
893,63.0,96.0,240.0,0.0,0.0
894,75.0,60.0,60.0,0.0,0.0
895,70.0,60.0,60.0,0.0,0.0
896,67.0,0.0,60.0,0.0,0.0
897,60.0,120.0,90.0,0.0,0.0
898,56.0,0.0,90.0,0.0,0.0
899,65.0,30.0,480.0,0.0,0.0
900,56.0,0.0,90.0,0.0,0.0
901,60.0,120.0,90.0,0.0,0.0
902,60.0,120.0,90.0,0.0,0.0
903,56.0,0.0,90.0,0.0,0.0
904,60.0,24.0,90.0,0.0,0.0
905,56.0,0.0,90.0,0.0,0.0
906,67.0,66.0,30.0,0.0,0.0
907,56.0,0.0,90.0,0.0,0.0
908,60.0,120.0,90.0,0.0,0.0
909,68.0,30.0,210.0,0.0,0.0
910,56.0,0.0,90.0,0.0,0.0
911,60.0,24.0,90.0,0.0,0.0
912,60.0,120.0,90.0,0.0,0.0
913,56.0,0.0,90.0,0.0,0.0
914,71.0,66.0,30.0,0.0,0.0
915,72.0,30.0,210.0,0.0,0.0
916,56.0,24.0,90.0,0.0,0.0
917,60.0,0.0,90.0,0.0,0.0
918,60.0,120.0,90.0,0.0,0.0
919,76.0,66.0,30.0,0.0,0.0
920,56.0,0.0,90.0,0.0,0.0
921,77.0,30.0,330.0,0.0,0.0
922,60.0,0.0,90.0,0.0,0.0
923,56.0,120.0,90.0,0.0,0.0
924,60.0,24.0,90.0,0.0,0.0
925,56.0,0.0,90.0,0.0,0.0
926,60.0,24.0,90.0,0.0,0.0
927,56.0,0.0,90.0,0.0,0.0
928,79.0,30.0,30.0,0.0,0.0
929,77.0,30.0,30.0,0.0,0.0
930,76.0,6.0,30.0,0.0,0.0
931,77.0,96.0,30.0,0.0,0.0
932,60.0,24.0,90.0,0.0,0.0
933,56.0,0.0,90.0,0.0,0.0
934,80.0,96.0,120.0,0.0,0.0
935,56.0,24.0,90.0,0.0,0.0
936,77.0,96.0,120.0,0.0,0.0
937,60.0,0.0,90.0,0.0,0.0
938,80.0,96.0,120.0,0.0,0.0
939,56.0,24.0,90.0,0.0,0.0
940,60.0,0.0,90.0,0.0,0.0
941,60.0,24.0,90.0,0.0,0.0
942,56.0,0.0,90.0,0.0,0.0
943,77.0,60.0,120.0,0.0,0.0
944,58.0,60.0,60.0,0.0,0.0
945,79.0,60.0,120.0,0.0,0.0
946,67.0,0.0,60.0,0.0,0.0
947,75.0,60.0,120.0,0.0,0.0
948,63.0,60.0,60.0,0.0,0.0
949,67.0,0.0,60.0,0.0,0.0
950,82.0,60.0,480.0,0.0,0.0
951,58.0,60.0,60.0,0.0,0.0
952,67.0,60.0,60.0,0.0,0.0
953,63.0,60.0,60.0,0.0,0.0
954,67.0,60.0,60.0,0.0,0.0
955,58.0,60.0,60.0,0.0,0.0
956,67.0,60.0,60.0,0.0,0.0
957,63.0,60.0,60.0,0.0,0.0
958,67.0,0.0,60.0,0.0,0.0
959,80.0,0.0,60.0,0.0,0.0
960,58.0,60.0,60.0,0.0,0.0
961,79.0,0.0,60.0,0.0,0.0
962,67.0,60.0,60.0,0.0,0.0
963,63.0,0.0,60.0,0.0,0.0
964,77.0,60.0,60.0,0.0,0.0
965,67.0,0.0,60.0,0.0,0.0
966,75.0,30.0,60.0,0.0,0.0
967,79.0,30.0,30.0,0.0,0.0
968,58.0,3.0,60.0,0.0,0.0
969,77.0,30.0,30.0,0.0,0.0
970,68.0,27.0,60.0,0.0,0.0
971,79.0,30.0,30.0,0.0,0.0
972,77.0,3.0,30.0,0.0,0.0
973,62.0,27.0,60.0,0.0,0.0
974,79.0,30.0,30.0,0.0,0.0
975,77.0,3.0,30.0,0.0,0.0
976,68.0,27.0,60.0,0.0,0.0
977,79.0,30.0,30.0,0.0,0.0
978,77.0,3.0,30.0,0.0,0.0
979,58.0,27.0,60.0,0.0,0.0
980,79.0,30.0,30.0,0.0,0.0
981,77.0,3.0,30.0,0.0,0.0
982,68.0,27.0,60.0,0.0,0.0
983,79.0,30.0,30.0,0.0,0.0
984,77.0,3.0,30.0,0.0,0.0
985,62.0,27.0,60.0,0.0,0.0
986,79.0,30.0,30.0,0.0,0.0
987,77.0,3.0,30.0,0.0,0.0
988,68.0,27.0,60.0,0.0,0.0
989,79.0,30.0,30.0,0.0,0.0
990,77.0,3.0,30.0,0.0,0.0
991,58.0,27.0,60.0,0.0,0.0
992,79.0,30.0,30.0,0.0,0.0
993,77.0,3.0,30.0,0.0,0.0
994,68.0,27.0,60.0,0.0,0.0
995,79.0,30.0,30.0,0.0,0.0
996,77.0,3.0,30.0,0.0,0.0
997,62.0,27.0,60.0,0.0,0.0
998,79.0,30.0,30.0,0.0,0.0
999,77.0,3.0,30.0,0.0,0.0
1000,68.0,27.0,60.0,0.0,0.0
1001,79.0,30.0,30.0,0.0,0.0
1002,77.0,3.0,30.0,0.0,0.0
1003,58.0,27.0,60.0,0.0,0.0
1004,79.0,30.0,30.0,0.0,0.0
1005,77.0,3.0,30.0,0.0,0.0
1006,68.0,27.0,60.0,0.0,0.0
1007,79.0,30.0,30.0,0.0,0.0
1008,77.0,3.0,30.0,0.0,0.0
1009,62.0,24.0,60.0,0.0,0.0
1010,79.0,30.0,30.0,0.0,0.0
1011,77.0,3.0,30.0,0.0,0.0
1012,68.0,240.0,60.0,0.0,0.0
1013,75.0,30.0,30.0,0.0,0.0
1014,77.0,0.0,30.0,0.0,0.0
1015,63.0,0.0,240.0,0.0,0.0
1016,67.0,0.0,240.0,0.0,0.0
1017,75.0,60.0,15.0,0.0,0.0
1018,70.0,60.0,60.0,0.0,0.0
1019,75.0,60.0,60.0,0.0,0.0
1020,79.0,60.0,60.0,0.0,0.0
1021,82.0,60.0,60.0,0.0,0.0
1022,79.0,60.0,60.0,0.0,0.0
1023,75.0,60.0,60.0,0.0,0.0
1024,79.0,60.0,60.0,0.0,0.0
1025,68.0,0.0,240.0,0.0,0.0
1026,58.0,240.0,240.0,0.0,0.0
1027,80.0,60.0,60.0,0.0,0.0
1028,65.0,0.0,240.0,0.0,0.0
1029,77.0,60.0,60.0,0.0,0.0
1030,74.0,60.0,60.0,0.0,0.0
1031,77.0,0.0,60.0,0.0,0.0
1032,75.0,0.0,240.0,0.0,0.0
1033,67.0,60.0,240.0,0.0,0.0
1034,63.0,0.0,15.0,0.0,0.0
1035,58.0,60.0,60.0,0.0,0.0
1036,63.0,60.0,60.0,0.0,0.0
1037,67.0,60.0,60.0,0.0,0.0
1038,70.0,60.0,60.0,0.0,0.0
1039,67.0,60.0,60.0,0.0,0.0
1040,63.0,60.0,60.0,0.0,0.0
1041,67.0,60.0,60.0,0.0,0.0
1042,68.0,60.0,60.0,0.0,0.0
1043,56.0,0.0,240.0,0.0,0.0
1044,53.0,0.0,240.0,0.0,0.0
1045,46.0,192.0,240.0,0.0,0.0
1046,65.0,60.0,60.0,0.0,0.0
1047,62.0,60.0,60.0,0.0,0.0
1048,65.0,0.0,60.0,0.0,0.0
1049,55.0,0.0,180.0,0.0,0.0
1050,51.0,0.0,180.0,0.0,0.0
1051,63.0,240.0,180.0,0.0,0.0
1052,79.0,240.0,180.0,0.0,0.0
1053,70.0,0.0,180.0,0.0,0.0
1054,39.0,0.0,180.0,0.0,0.0
1055,51.0,0.0,180.0,0.0,0.0
1056,51.0,0.0,180.0,0.0,0.0
1057,39.0,0.0,180.0,0.0,0.0
1058,67.0,528.0,180.0,0.0,0.0
1059,75.0,0.0,180.0,0.0,0.0
1060,51.0,0.0,240.0,0.0,0.0
1061,39.0,0.0,240.0,0.0,0.0
1062,63.0,60.0,240.0,0.0,0.0
1063,75.0,60.0,60.0,0.0,0.0
1064,70.0,60.0,60.0,0.0,0.0
1065,75.0,60.0,60.0,0.0,0.0
1066,78.0,60.0,60.0,0.0,0.0
1067,82.0,60.0,60.0,0.0,0.0
1068,78.0,60.0,60.0,0.0,0.0
1069,75.0,60.0,60.0,0.0,0.0
1070,78.0,60.0,60.0,0.0,0.0
1071,58.0,240.0,240.0,0.0,0.0
1072,65.0,0.0,240.0,0.0,0.0
1073,68.0,0.0,240.0,0.0,0.0
1074,80.0,60.0,60.0,0.0,0.0
1075,77.0,60.0,60.0,0.0,0.0
1076,74.0,60.0,60.0,0.0,0.0
1077,77.0,0.0,60.0,0.0,0.0
1078,66.0,0.0,240.0,0.0,0.0
1079,75.0,0.0,240.0,0.0,0.0
1080,63.0,60.0,15.0,0.0,0.0
1081,58.0,60.0,60.0,0.0,0.0
1082,63.0,60.0,60.0,0.0,0.0
1083,66.0,60.0,60.0,0.0,0.0
1084,70.0,60.0,60.0,0.0,0.0
1085,66.0,60.0,60.0,0.0,0.0
1086,63.0,60.0,60.0,0.0,0.0
1087,66.0,60.0,60.0,0.0,0.0
1088,56.0,0.0,240.0,0.0,0.0
1089,46.0,0.0,240.0,0.0,0.0
1090,53.0,0.0,240.0,0.0,0.0
1091,68.0,60.0,60.0,0.0,0.0
1092,65.0,60.0,60.0,0.0,0.0
1093,62.0,60.0,60.0,0.0,0.0
1094,65.0,120.0,60.0,0.0,0.0
1095,63.0,60.0,240.0,0.0,0.0
1096,39.0,60.0,60.0,0.0,0.0
1097,41.0,60.0,60.0,0.0,0.0
1098,42.0,0.0,60.0,0.0,0.0
1099,44.0,60.0,60.0,0.0,0.0
1100,46.0,60.0,60.0,0.0,0.0
1101,48.0,60.0,60.0,0.0,0.0
1102,50.0,120.0,60.0,0.0,0.0
1103,51.0,60.0,240.0,0.0,0.0
1104,75.0,60.0,60.0,0.0,0.0
1105,78.0,60.0,60.0,0.0,0.0
1106,77.0,0.0,60.0,0.0,0.0
1107,75.0,60.0,60.0,0.0,0.0
1108,73.0,60.0,60.0,0.0,0.0
1109,72.0,60.0,60.0,0.0,0.0
1110,70.0,120.0,60.0,0.0,0.0
1111,69.0,0.0,240.0,0.0,0.0
1112,41.0,60.0,60.0,0.0,0.0
1113,43.0,60.0,60.0,0.0,0.0
1114,45.0,60.0,60.0,0.0,0.0
1115,46.0,60.0,60.0,0.0,0.0
1116,48.0,60.0,60.0,0.0,0.0
1117,50.0,60.0,60.0,0.0,0.0
1118,52.0,120.0,60.0,0.0,0.0
1119,53.0,60.0,240.0,0.0,0.0
1120,81.0,60.0,60.0,0.0,0.0
1121,84.0,60.0,60.0,0.0,0.0
1122,82.0,0.0,60.0,0.0,0.0
1123,81.0,60.0,60.0,0.0,0.0
1124,78.0,60.0,60.0,0.0,0.0
1125,77.0,60.0,60.0,0.0,0.0
1126,75.0,240.0,60.0,0.0,0.0
1127,46.0,60.0,240.0,0.0,0.0
1128,34.0,0.0,240.0,0.0,0.0
1129,73.0,0.0,240.0,0.0,0.0
1130,70.0,60.0,60.0,0.0,0.0
1131,65.0,60.0,60.0,0.0,0.0
1132,70.0,60.0,60.0,0.0,0.0
1133,73.0,60.0,60.0,0.0,0.0
1134,77.0,60.0,60.0,0.0,0.0
1135,73.0,60.0,60.0,0.0,0.0
1136,70.0,60.0,60.0,0.0,0.0
1137,73.0,60.0,60.0,0.0,0.0
1138,53.0,240.0,240.0,0.0,0.0
1139,75.0,60.0,60.0,0.0,0.0
1140,63.0,0.0,240.0,0.0,0.0
1141,60.0,0.0,240.0,0.0,0.0
1142,72.0,60.0,60.0,0.0,0.0
1143,69.0,60.0,60.0,0.0,0.0
1144,72.0,0.0,60.0,0.0,0.0
1145,58.0,60.0,240.0,0.0,0.0
1146,70.0,0.0,240.0,0.0,0.0
1147,61.0,0.0,240.0,0.0,0.0
1148,58.0,60.0,60.0,0.0,0.0
1149,53.0,60.0,60.0,0.0,0.0
1150,58.0,60.0,60.0,0.0,0.0
1151,61.0,60.0,60.0,0.0,0.0
1152,65.0,60.0,60.0,0.0,0.0
1153,61.0,60.0,60.0,0.0,0.0
1154,58.0,60.0,60.0,0.0,0.0
1155,61.0,60.0,60.0,0.0,0.0
1156,41.0,0.0,240.0,0.0,0.0
1157,48.0,0.0,240.0,0.0,0.0
1158,51.0,0.0,240.0,0.0,0.0
1159,63.0,60.0,60.0,0.0,0.0
1160,60.0,60.0,60.0,0.0,0.0
1161,57.0,60.0,60.0,0.0,0.0
1162,60.0,120.0,60.0,0.0,0.0
1163,46.0,60.0,240.0,0.0,0.0
1164,49.0,0.0,240.0,0.0,0.0
1165,58.0,60.0,60.0,0.0,0.0
1166,60.0,60.0,60.0,0.0,0.0
1167,61.0,0.0,60.0,0.0,0.0
1168,63.0,60.0,60.0,0.0,0.0
1169,65.0,60.0,60.0,0.0,0.0
1170,67.0,60.0,60.0,0.0,0.0
1171,69.0,120.0,60.0,0.0,0.0
1172,70.0,60.0,240.0,0.0,0.0
1173,58.0,60.0,60.0,0.0,0.0
1174,61.0,60.0,60.0,0.0,0.0
1175,60.0,0.0,60.0,0.0,0.0
1176,58.0,60.0,60.0,0.0,0.0
1177,56.0,60.0,60.0,0.0,0.0
1178,55.0,60.0,60.0,0.0,0.0
1179,53.0,120.0,60.0,0.0,0.0
1180,52.0,60.0,240.0,0.0,0.0
1181,67.0,60.0,60.0,0.0,0.0
1182,68.0,60.0,60.0,0.0,0.0
1183,70.0,0.0,60.0,0.0,0.0
1184,72.0,60.0,60.0,0.0,0.0
1185,74.0,60.0,60.0,0.0,0.0
1186,76.0,60.0,60.0,0.0,0.0
1187,77.0,120.0,60.0,0.0,0.0
1188,79.0,60.0,240.0,0.0,0.0
1189,52.0,60.0,60.0,0.0,0.0
1190,55.0,60.0,60.0,0.0,0.0
1191,53.0,0.0,60.0,0.0,0.0
1192,52.0,60.0,60.0,0.0,0.0
1193,49.0,60.0,60.0,0.0,0.0
1194,48.0,60.0,60.0,0.0,0.0
1195,46.0,120.0,60.0,0.0,0.0
1196,44.0,0.0,240.0,0.0,0.0
1197,77.0,60.0,60.0,0.0,0.0
1198,84.0,60.0,60.0,0.0,0.0
1199,82.0,60.0,60.0,0.0,0.0
1200,80.0,60.0,60.0,0.0,0.0
1201,79.0,60.0,60.0,0.0,0.0
1202,77.0,60.0,60.0,0.0,0.0
1203,75.0,120.0,60.0,0.0,0.0
1204,73.0,60.0,240.0,0.0,0.0
1205,58.0,60.0,60.0,0.0,0.0
1206,65.0,60.0,60.0,0.0,0.0
1207,63.0,0.0,60.0,0.0,0.0
1208,61.0,60.0,60.0,0.0,0.0
1209,60.0,60.0,60.0,0.0,0.0
1210,58.0,60.0,60.0,0.0,0.0
1211,56.0,120.0,60.0,0.0,0.0
1212,55.0,60.0,240.0,0.0,0.0
1213,75.0,60.0,60.0,0.0,0.0
1214,82.0,60.0,60.0,0.0,0.0
1215,80.0,0.0,60.0,0.0,0.0
1216,79.0,60.0,60.0,0.0,0.0
1217,77.0,60.0,60.0,0.0,0.0
1218,75.0,60.0,60.0,0.0,0.0
1219,73.0,120.0,60.0,0.0,0.0
1220,72.0,0.0,240.0,0.0,0.0
1221,56.0,60.0,60.0,0.0,0.0
1222,63.0,60.0,60.0,0.0,0.0
1223,61.0,60.0,60.0,0.0,0.0
1224,60.0,60.0,60.0,0.0,0.0
1225,58.0,60.0,60.0,0.0,0.0
1226,56.0,60.0,60.0,0.0,0.0
1227,55.0,120.0,60.0,0.0,0.0
1228,53.0,0.0,240.0,0.0,0.0
1229,73.0,60.0,60.0,0.0,0.0
1230,80.0,60.0,60.0,0.0,0.0
1231,79.0,60.0,60.0,0.0,0.0
1232,77.0,60.0,60.0,0.0,0.0
1233,75.0,60.0,60.0,0.0,0.0
1234,73.0,60.0,60.0,0.0,0.0
1235,72.0,120.0,60.0,0.0,0.0
1236,70.0,60.0,240.0,0.0,0.0
1237,55.0,60.0,60.0,0.0,0.0
1238,61.0,60.0,60.0,0.0,0.0
1239,60.0,0.0,60.0,0.0,0.0
1240,58.0,60.0,60.0,0.0,0.0
1241,56.0,60.0,60.0,0.0,0.0
1242,55.0,60.0,60.0,0.0,0.0
1243,53.0,120.0,60.0,0.0,0.0
1244,52.0,60.0,240.0,0.0,0.0
1245,72.0,60.0,60.0,0.0,0.0
1246,79.0,60.0,60.0,0.0,0.0
1247,77.0,0.0,60.0,0.0,0.0
1248,76.0,60.0,60.0,0.0,0.0
1249,73.0,60.0,60.0,0.0,0.0
1250,72.0,60.0,60.0,0.0,0.0
1251,70.0,120.0,60.0,0.0,0.0
1252,68.0,60.0,240.0,0.0,0.0
1253,53.0,60.0,60.0,0.0,0.0
1254,56.0,60.0,60.0,0.0,0.0
1255,55.0,0.0,60.0,0.0,0.0
1256,53.0,60.0,60.0,0.0,0.0
1257,51.0,60.0,60.0,0.0,0.0
1258,49.0,60.0,60.0,0.0,0.0
1259,48.0,120.0,60.0,0.0,0.0
1260,46.0,0.0,480.0,0.0,0.0
1261,66.0,60.0,60.0,0.0,0.0
1262,70.0,60.0,60.0,0.0,0.0
1263,68.0,60.0,60.0,0.0,0.0
1264,66.0,60.0,60.0,0.0,0.0
1265,65.0,60.0,60.0,0.0,0.0
1266,63.0,60.0,60.0,0.0,0.0
1267,61.0,60.0,60.0,0.0,0.0
1268,60.0,60.0,60.0,0.0,0.0
1269,54.0,0.0,480.0,0.0,0.0
1270,51.0,0.0,480.0,0.0,0.0
1271,44.0,0.0,480.0,0.0,0.0
1272,61.0,60.0,60.0,0.0,0.0
1273,63.0,60.0,60.0,0.0,0.0
1274,65.0,60.0,60.0,0.0,0.0
1275,66.0,60.0,60.0,0.0,0.0
1276,68.0,60.0,60.0,0.0,0.0
1277,70.0,60.0,60.0,0.0,0.0
1278,72.0,120.0,60.0,0.0,0.0
1279,73.0,120.0,480.0,0.0,0.0
1280,61.0,120.0,120.0,0.0,0.0
1281,68.0,120.0,120.0,0.0,0.0
1282,65.0,120.0,120.0,0.0,0.0
1283,68.0,0.0,120.0,0.0,0.0
1284,77.0,120.0,240.0,0.0,0.0
1285,61.0,120.0,120.0,0.0,0.0
1286,68.0,0.0,120.0,0.0,0.0
1287,80.0,120.0,240.0,0.0,0.0
1288,65.0,120.0,120.0,0.0,0.0
1289,68.0,0.0,120.0,0.0,0.0
1290,72.0,60.0,360.0,0.0,0.0
1291,63.0,120.0,120.0,0.0,0.0
1292,68.0,120.0,120.0,0.0,0.0
1293,66.0,0.0,120.0,0.0,0.0
1294,73.0,60.0,60.0,0.0,0.0
1295,68.0,120.0,120.0,0.0,0.0
1296,75.0,0.0,60.0,0.0,0.0
1297,73.0,0.0,480.0,0.0,0.0
1298,61.0,120.0,120.0,0.0,0.0
1299,68.0,120.0,120.0,0.0,0.0
1300,65.0,120.0,120.0,0.0,0.0
1301,68.0,120.0,120.0,0.0,0.0
1302,61.0,120.0,120.0,0.0,0.0
1303,82.0,0.0,480.0,0.0,0.0
1304,70.0,120.0,120.0,0.0,0.0
1305,66.0,120.0,120.0,0.0,0.0
1306,70.0,120.0,120.0,0.0,0.0
1307,61.0,120.0,120.0,0.0,0.0
1308,80.0,0.0,240.0,0.0,0.0
1309,68.0,120.0,120.0,0.0,0.0
1310,85.0,120.0,240.0,0.0,0.0
1311,65.0,120.0,120.0,0.0,0.0
1312,68.0,0.0,120.0,0.0,0.0
1313,80.0,39.0,240.0,0.0,0.0
1314,60.0,120.0,120.0,0.0,0.0
1315,68.0,0.0,120.0,0.0,0.0
1316,78.0,40.0,40.0,0.0,0.0
1317,63.0,60.0,120.0,0.0,0.0
1318,80.0,40.0,40.0,0.0,0.0
1319,78.0,1.0,40.0,0.0,0.0
1320,77.0,60.0,60.0,0.0,0.0
1321,68.0,120.0,120.0,0.0,0.0
1322,78.0,0.0,60.0,0.0,0.0
1323,77.0,120.0,240.0,0.0,0.0
1324,61.0,120.0,120.0,0.0,0.0
1325,68.0,0.0,120.0,0.0,0.0
1326,65.0,120.0,120.0,0.0,0.0
1327,68.0,120.0,120.0,0.0,0.0
1328,70.0,60.0,120.0,0.0,0.0
1329,66.0,0.0,240.0,0.0,0.0
1330,72.0,60.0,60.0,0.0,0.0
1331,73.0,60.0,60.0,0.0,0.0
1332,75.0,60.0,60.0,0.0,0.0
1333,77.0,60.0,60.0,0.0,0.0
1334,78.0,60.0,60.0,0.0,0.0
1335,80.0,60.0,60.0,0.0,0.0
1336,82.0,60.0,60.0,0.0,0.0
1337,80.0,60.0,60.0,0.0,0.0
1338,78.0,60.0,60.0,0.0,0.0
1339,77.0,60.0,60.0,0.0,0.0
1340,75.0,60.0,60.0,0.0,0.0
1341,61.0,0.0,240.0,0.0,0.0
1342,54.0,120.0,240.0,0.0,0.0
1343,73.0,60.0,60.0,0.0,0.0
1344,72.0,60.0,60.0,0.0,0.0
1345,70.0,0.0,60.0,0.0,0.0
1346,68.0,60.0,120.0,0.0,0.0
1347,53.0,60.0,240.0,0.0,0.0
1348,61.0,0.0,240.0,0.0,0.0
1349,70.0,60.0,60.0,0.0,0.0
1350,72.0,0.0,60.0,0.0,0.0
1351,73.0,60.0,60.0,0.0,0.0
1352,75.0,60.0,60.0,0.0,0.0
1353,77.0,60.0,60.0,0.0,0.0
1354,78.0,60.0,60.0,0.0,0.0
1355,80.0,60.0,60.0,0.0,0.0
1356,78.0,60.0,60.0,0.0,0.0
1357,77.0,60.0,60.0,0.0,0.0
1358,75.0,60.0,60.0,0.0,0.0
1359,53.0,120.0,240.0,0.0,0.0
1360,61.0,0.0,240.0,0.0,0.0
1361,73.0,60.0,60.0,0.0,0.0
1362,72.0,60.0,60.0,0.0,0.0
1363,70.0,60.0,60.0,0.0,0.0
1364,68.0,0.0,60.0,0.0,0.0
1365,61.0,0.0,240.0,0.0,0.0
1366,51.0,60.0,240.0,0.0,0.0
1367,66.0,60.0,120.0,0.0,0.0
1368,68.0,60.0,60.0,0.0,0.0
1369,70.0,0.0,60.0,0.0,0.0
1370,72.0,60.0,60.0,0.0,0.0
1371,73.0,60.0,60.0,0.0,0.0
1372,75.0,60.0,60.0,0.0,0.0
1373,77.0,60.0,60.0,0.0,0.0
1374,78.0,60.0,60.0,0.0,0.0
1375,77.0,60.0,60.0,0.0,0.0
1376,75.0,60.0,60.0,0.0,0.0
1377,73.0,60.0,60.0,0.0,0.0
1378,60.0,0.0,240.0,0.0,0.0
1379,72.0,60.0,60.0,0.0,0.0
1380,51.0,0.0,240.0,0.0,0.0
1381,70.0,60.0,60.0,0.0,0.0
1382,68.0,60.0,60.0,0.0,0.0
1383,66.0,120.0,60.0,0.0,0.0
1384,65.0,60.0,120.0,0.0,0.0
1385,49.0,60.0,240.0,0.0,0.0
1386,61.0,0.0,240.0,0.0,0.0
1387,66.0,60.0,60.0,0.0,0.0
1388,68.0,0.0,60.0,0.0,0.0
1389,70.0,60.0,60.0,0.0,0.0
1390,72.0,60.0,60.0,0.0,0.0
1391,73.0,60.0,60.0,0.0,0.0
1392,75.0,60.0,60.0,0.0,0.0
1393,77.0,60.0,60.0,0.0,0.0
1394,75.0,60.0,60.0,0.0,0.0
1395,73.0,60.0,60.0,0.0,0.0
1396,72.0,60.0,60.0,0.0,0.0
1397,70.0,60.0,60.0,0.0,0.0
1398,68.0,60.0,60.0,0.0,0.0
1399,66.0,60.0,60.0,0.0,0.0
1400,65.0,120.0,60.0,0.0,0.0
1401,49.0,60.0,120.0,0.0,0.0
1402,77.0,0.0,240.0,0.0,0.0
1403,51.0,60.0,60.0,0.0,0.0
1404,53.0,60.0,60.0,0.0,0.0
1405,54.0,60.0,60.0,0.0,0.0
1406,56.0,60.0,60.0,0.0,0.0
1407,58.0,60.0,60.0,0.0,0.0
1408,60.0,60.0,60.0,0.0,0.0
1409,61.0,60.0,60.0,0.0,0.0
1410,60.0,60.0,60.0,0.0,0.0
1411,58.0,60.0,60.0,0.0,0.0
1412,56.0,60.0,60.0,0.0,0.0
1413,77.0,0.0,240.0,0.0,0.0
1414,54.0,60.0,60.0,0.0,0.0
1415,53.0,60.0,60.0,0.0,0.0
1416,51.0,60.0,60.0,0.0,0.0
1417,49.0,120.0,60.0,0.0,0.0
1418,48.0,60.0,120.0,0.0,0.0
1419,68.0,0.0,15.0,0.0,0.0
1420,75.0,0.0,240.0,0.0,0.0
1421,49.0,60.0,60.0,0.0,0.0
1422,51.0,60.0,60.0,0.0,0.0
1423,53.0,60.0,60.0,0.0,0.0
1424,55.0,60.0,60.0,0.0,0.0
1425,56.0,60.0,60.0,0.0,0.0
1426,58.0,60.0,60.0,0.0,0.0
1427,60.0,60.0,60.0,0.0,0.0
1428,58.0,60.0,60.0,0.0,0.0
1429,56.0,60.0,60.0,0.0,0.0
1430,55.0,60.0,60.0,0.0,0.0
1431,53.0,60.0,60.0,0.0,0.0
1432,75.0,0.0,240.0,0.0,0.0
1433,68.0,120.0,240.0,0.0,0.0
1434,51.0,60.0,60.0,0.0,0.0
1435,49.0,60.0,60.0,0.0,0.0
1436,48.0,0.0,60.0,0.0,0.0
1437,68.0,60.0,240.0,0.0,0.0
1438,73.0,0.0,240.0,0.0,0.0
1439,46.0,60.0,120.0,0.0,0.0
1440,48.0,60.0,60.0,0.0,0.0
1441,49.0,0.0,60.0,0.0,0.0
1442,51.0,60.0,60.0,0.0,0.0
1443,53.0,60.0,60.0,0.0,0.0
1444,55.0,60.0,60.0,0.0,0.0
1445,56.0,60.0,60.0,0.0,0.0
1446,58.0,60.0,60.0,0.0,0.0
1447,56.0,60.0,60.0,0.0,0.0
1448,55.0,60.0,60.0,0.0,0.0
1449,53.0,60.0,60.0,0.0,0.0
1450,51.0,60.0,60.0,0.0,0.0
1451,67.0,120.0,240.0,0.0,0.0
1452,73.0,0.0,240.0,0.0,0.0
1453,49.0,60.0,60.0,0.0,0.0
1454,48.0,60.0,60.0,0.0,0.0
1455,46.0,0.0,60.0,0.0,0.0
1456,72.0,0.0,240.0,0.0,0.0
1457,68.0,60.0,240.0,0.0,0.0
1458,44.0,60.0,120.0,0.0,0.0
1459,46.0,60.0,60.0,0.0,0.0
1460,48.0,0.0,60.0,0.0,0.0
1461,49.0,60.0,60.0,0.0,0.0
1462,51.0,60.0,60.0,0.0,0.0
1463,53.0,60.0,60.0,0.0,0.0
1464,55.0,60.0,60.0,0.0,0.0
1465,56.0,60.0,60.0,0.0,0.0
1466,55.0,60.0,60.0,0.0,0.0
1467,53.0,60.0,60.0,0.0,0.0
1468,51.0,60.0,60.0,0.0,0.0
1469,68.0,0.0,240.0,0.0,0.0
1470,72.0,60.0,240.0,0.0,0.0
1471,49.0,60.0,60.0,0.0,0.0
1472,48.0,60.0,60.0,0.0,0.0
1473,46.0,60.0,60.0,0.0,0.0
1474,44.0,0.0,60.0,0.0,0.0
1475,49.0,60.0,960.0,0.0,0.0
1476,53.0,0.0,960.0,0.0,0.0
1477,70.0,60.0,60.0,0.0,0.0
1478,58.0,60.0,60.0,0.0,0.0
1479,60.0,60.0,60.0,0.0,0.0
1480,61.0,60.0,60.0,0.0,0.0
1481,63.0,60.0,60.0,0.0,0.0
1482,65.0,60.0,60.0,0.0,0.0
1483,67.0,60.0,60.0,0.0,0.0
1484,69.0,60.0,60.0,0.0,0.0
1485,70.0,60.0,60.0,0.0,0.0
1486,65.0,60.0,60.0,0.0,0.0
1487,67.0,60.0,60.0,0.0,0.0
1488,69.0,60.0,60.0,0.0,0.0
1489,70.0,60.0,60.0,0.0,0.0
1490,72.0,60.0,60.0,0.0,0.0
1491,73.0,60.0,60.0,0.0,0.0
1492,75.0,0.0,60.0,0.0,0.0
1493,77.0,60.0,60.0,0.0,0.0
1494,49.0,60.0,360.0,0.0,0.0
1495,79.0,60.0,60.0,0.0,0.0
1496,80.0,60.0,60.0,0.0,0.0
1497,79.0,60.0,60.0,0.0,0.0
1498,77.0,60.0,60.0,0.0,0.0
1499,75.0,0.0,60.0,0.0,0.0
1500,73.0,60.0,60.0,0.0,0.0
1501,51.0,60.0,120.0,0.0,0.0
1502,72.0,0.0,60.0,0.0,0.0
1503,73.0,60.0,60.0,0.0,0.0
1504,53.0,60.0,360.0,0.0,0.0
1505,75.0,60.0,60.0,0.0,0.0
1506,77.0,60.0,60.0,0.0,0.0
1507,75.0,60.0,60.0,0.0,0.0
1508,73.0,60.0,60.0,0.0,0.0
1509,72.0,0.0,60.0,0.0,0.0
1510,50.0,0.0,120.0,0.0,0.0
1511,70.0,60.0,60.0,0.0,0.0
1512,68.0,60.0,60.0,0.0,0.0
1513,39.0,60.0,60.0,0.0,0.0
1514,67.0,60.0,120.0,0.0,0.0
1515,43.0,0.0,60.0,0.0,0.0
1516,75.0,60.0,120.0,0.0,0.0
1517,46.0,60.0,60.0,0.0,0.0
1518,51.0,0.0,60.0,0.0,0.0
1519,72.0,60.0,120.0,0.0,0.0
1520,39.0,60.0,60.0,0.0,0.0
1521,44.0,0.0,60.0,0.0,0.0
1522,48.0,60.0,60.0,0.0,0.0
1523,68.0,60.0,120.0,0.0,0.0
1524,51.0,0.0,60.0,0.0,0.0
1525,70.0,0.0,120.0,0.0,0.0
1526,39.0,60.0,60.0,0.0,0.0
1527,43.0,60.0,60.0,0.0,0.0
1528,46.0,60.0,60.0,0.0,0.0
1529,75.0,60.0,120.0,0.0,0.0
1530,51.0,0.0,60.0,0.0,0.0
1531,72.0,0.0,120.0,0.0,0.0
1532,39.0,60.0,60.0,0.0,0.0
1533,44.0,60.0,60.0,0.0,0.0
1534,68.0,0.0,120.0,0.0,0.0
1535,48.0,60.0,60.0,0.0,0.0
1536,51.0,240.0,60.0,0.0,0.0
1537,39.0,240.0,240.0,0.0,0.0
1538,70.0,0.0,240.0,0.0,0.0
1539,75.0,0.0,240.0,0.0,0.0
1540,51.0,240.0,240.0,0.0,0.0
1541,67.0,0.0,240.0,0.0,0.0
1542,70.0,0.0,240.0,0.0,0.0
1543,39.0,300.0,240.0,0.0,0.0
1544,63.0,0.0,240.0,0.0,0.0
1545,62.0,60.0,60.0,0.0,0.0
1546,63.0,60.0,60.0,0.0,0.0
1547,62.0,60.0,60.0,0.0,0.0
1548,63.0,60.0,60.0,0.0,0.0
1549,62.0,60.0,60.0,0.0,0.0
1550,63.0,60.0,60.0,0.0,0.0
1551,62.0,60.0,60.0,0.0,0.0
1552,63.0,60.0,60.0,0.0,0.0
1553,61.0,60.0,60.0,0.0,0.0
1554,63.0,60.0,60.0,0.0,0.0
1555,61.0,60.0,60.0,0.0,0.0
1556,63.0,60.0,60.0,0.0,0.0
1557,61.0,60.0,60.0,0.0,0.0
1558,63.0,60.0,60.0,0.0,0.0
1559,61.0,60.0,60.0,0.0,0.0
1560,63.0,60.0,60.0,0.0,0.0
1561,60.0,60.0,60.0,0.0,0.0
1562,75.0,60.0,120.0,0.0,0.0
1563,63.0,0.0,60.0,0.0,0.0
1564,60.0,60.0,60.0,0.0,0.0
1565,72.0,0.0,120.0,0.0,0.0
1566,63.0,60.0,60.0,0.0,0.0
1567,60.0,60.0,60.0,0.0,0.0
1568,68.0,0.0,360.0,0.0,0.0
1569,63.0,60.0,60.0,0.0,0.0
1570,60.0,60.0,60.0,0.0,0.0
1571,63.0,60.0,60.0,0.0,0.0
1572,60.0,60.0,60.0,0.0,0.0
1573,63.0,60.0,60.0,0.0,0.0
1574,60.0,0.0,60.0,0.0,0.0
1575,70.0,60.0,60.0,0.0,0.0
1576,63.0,0.0,60.0,0.0,0.0
1577,72.0,60.0,60.0,0.0,0.0
1578,60.0,60.0,60.0,0.0,0.0
1579,70.0,0.0,120.0,0.0,0.0
1580,63.0,60.0,60.0,0.0,0.0
1581,60.0,60.0,60.0,0.0,0.0
1582,68.0,30.0,120.0,0.0,0.0
1583,63.0,0.0,60.0,0.0,0.0
1584,61.0,30.0,60.0,0.0,0.0
1585,70.0,30.0,30.0,0.0,0.0
1586,68.0,0.0,30.0,0.0,0.0
1587,63.0,30.0,60.0,0.0,0.0
1588,70.0,30.0,30.0,0.0,0.0
1589,68.0,0.0,30.0,0.0,0.0
1590,70.0,30.0,30.0,0.0,0.0
1591,60.0,50.0,60.0,0.0,0.0
1592,68.0,0.0,30.0,0.0,0.0
1593,67.0,10.0,60.0,0.0,0.0
1594,63.0,60.0,60.0,0.0,0.0
1595,67.0,0.0,720.0,0.0,0.0
1596,58.0,60.0,60.0,0.0,0.0
1597,63.0,60.0,60.0,0.0,0.0
1598,60.0,60.0,60.0,0.0,0.0
1599,63.0,60.0,60.0,0.0,0.0
1600,61.0,60.0,60.0,0.0,0.0
1601,63.0,60.0,60.0,0.0,0.0
1602,60.0,60.0,60.0,0.0,0.0
1603,63.0,60.0,60.0,0.0,0.0
1604,61.0,60.0,60.0,0.0,0.0
1605,63.0,60.0,60.0,0.0,0.0
1606,58.0,60.0,60.0,0.0,0.0
1607,63.0,60.0,60.0,0.0,0.0
1608,75.0,0.0,120.0,0.0,0.0
1609,60.0,60.0,60.0,0.0,0.0
1610,63.0,60.0,60.0,0.0,0.0
1611,60.0,60.0,60.0,0.0,0.0
1612,72.0,60.0,120.0,0.0,0.0
1613,63.0,0.0,60.0,0.0,0.0
1614,60.0,60.0,60.0,0.0,0.0
1615,68.0,60.0,360.0,0.0,0.0
1616,63.0,60.0,60.0,0.0,0.0
1617,60.0,60.0,60.0,0.0,0.0
1618,63.0,60.0,60.0,0.0,0.0
1619,60.0,60.0,60.0,0.0,0.0
1620,63.0,0.0,60.0,0.0,0.0
1621,70.0,60.0,60.0,0.0,0.0
1622,60.0,0.0,60.0,0.0,0.0
1623,72.0,60.0,60.0,0.0,0.0
1624,63.0,0.0,60.0,0.0,0.0
1625,70.0,0.0,120.0,0.0,0.0
1626,60.0,60.0,60.0,0.0,0.0
1627,63.0,60.0,60.0,0.0,0.0
1628,68.0,30.0,120.0,0.0,0.0
1629,60.0,60.0,60.0,0.0,0.0
1630,63.0,0.0,60.0,0.0,0.0
1631,70.0,30.0,30.0,0.0,0.0
1632,61.0,0.0,60.0,0.0,0.0
1633,68.0,30.0,30.0,0.0,0.0
1634,63.0,30.0,60.0,0.0,0.0
1635,70.0,30.0,30.0,0.0,0.0
1636,68.0,0.0,30.0,0.0,0.0
1637,70.0,30.0,30.0,0.0,0.0
1638,60.0,50.0,60.0,0.0,0.0
1639,68.0,0.0,30.0,0.0,0.0
1640,67.0,10.0,60.0,0.0,0.0
1641,63.0,60.0,60.0,0.0,0.0
1642,67.0,0.0,480.0,0.0,0.0
1643,58.0,60.0,60.0,0.0,0.0
1644,63.0,60.0,60.0,0.0,0.0
1645,60.0,60.0,60.0,0.0,0.0
1646,63.0,60.0,60.0,0.0,0.0
1647,61.0,60.0,60.0,0.0,0.0
1648,63.0,60.0,60.0,0.0,0.0
1649,60.0,60.0,60.0,0.0,0.0
1650,63.0,60.0,60.0,0.0,0.0
1651,61.0,60.0,60.0,0.0,0.0
1652,63.0,60.0,60.0,0.0,0.0
1653,58.0,60.0,60.0,0.0,0.0
1654,63.0,120.0,60.0,0.0,0.0
1655,75.0,120.0,240.0,0.0,0.0
1656,48.0,60.0,60.0,0.0,0.0
1657,51.0,60.0,60.0,0.0,0.0
1658,56.0,0.0,60.0,0.0,0.0
1659,60.0,120.0,240.0,0.0,0.0
1660,75.0,60.0,60.0,0.0,0.0
1661,72.0,60.0,60.0,0.0,0.0
1662,68.0,0.0,60.0,0.0,0.0
1663,65.0,0.0,240.0,0.0,0.0
1664,49.0,60.0,60.0,0.0,0.0
1665,53.0,60.0,60.0,0.0,0.0
1666,56.0,120.0,60.0,0.0,0.0
1667,61.0,120.0,240.0,0.0,0.0
1668,65.0,60.0,60.0,0.0,0.0
1669,68.0,60.0,60.0,0.0,0.0
1670,65.0,0.0,60.0,0.0,0.0
1671,73.0,120.0,240.0,0.0,0.0
1672,46.0,60.0,60.0,0.0,0.0
1673,49.0,60.0,60.0,0.0,0.0
1674,55.0,0.0,60.0,0.0,0.0
1675,58.0,120.0,240.0,0.0,0.0
1676,73.0,60.0,60.0,0.0,0.0
1677,70.0,60.0,60.0,0.0,0.0
1678,67.0,0.0,60.0,0.0,0.0
1679,63.0,120.0,240.0,0.0,0.0
1680,48.0,60.0,60.0,0.0,0.0
1681,51.0,60.0,60.0,0.0,0.0
1682,55.0,0.0,60.0,0.0,0.0
1683,60.0,120.0,240.0,0.0,0.0
1684,75.0,60.0,60.0,0.0,0.0
1685,79.0,60.0,60.0,0.0,0.0
1686,75.0,0.0,60.0,0.0,0.0
1687,84.0,120.0,240.0,0.0,0.0
1688,56.0,60.0,60.0,0.0,0.0
1689,60.0,60.0,60.0,0.0,0.0
1690,65.0,0.0,60.0,0.0,0.0
1691,68.0,120.0,240.0,0.0,0.0
1692,84.0,60.0,60.0,0.0,0.0
1693,80.0,60.0,60.0,0.0,0.0
1694,77.0,0.0,60.0,0.0,0.0
1695,73.0,120.0,240.0,0.0,0.0
1696,58.0,60.0,60.0,0.0,0.0
1697,61.0,60.0,60.0,0.0,0.0
1698,65.0,0.0,60.0,0.0,0.0
1699,70.0,120.0,240.0,0.0,0.0
1700,73.0,60.0,60.0,0.0,0.0
1701,77.0,60.0,60.0,0.0,0.0
1702,73.0,0.0,60.0,0.0,0.0
1703,82.0,120.0,240.0,0.0,0.0
1704,55.0,60.0,60.0,0.0,0.0
1705,58.0,60.0,60.0,0.0,0.0
1706,63.0,0.0,60.0,0.0,0.0
1707,67.0,120.0,240.0,0.0,0.0
1708,82.0,60.0,60.0,0.0,0.0
1709,79.0,60.0,60.0,0.0,0.0
1710,75.0,0.0,60.0,0.0,0.0
1711,72.0,0.0,240.0,0.0,0.0
1712,56.0,60.0,60.0,0.0,0.0
1713,60.0,60.0,60.0,0.0,0.0
1714,63.0,120.0,60.0,0.0,0.0
1715,68.0,0.0,240.0,0.0,0.0
1716,80.0,60.0,60.0,0.0,0.0
1717,75.0,60.0,60.0,0.0,0.0
1718,72.0,216.0,60.0,0.0,0.0
1719,70.0,40.0,480.0,0.0,0.0
1720,65.0,120.0,90.0,0.0,0.0
1721,61.0,0.0,90.0,0.0,0.0
1722,65.0,120.0,90.0,0.0,0.0
1723,61.0,0.0,90.0,0.0,0.0
1724,61.0,14.0,90.0,0.0,0.0
1725,65.0,0.0,90.0,0.0,0.0
1726,65.0,120.0,90.0,0.0,0.0
1727,69.0,66.0,30.0,0.0,0.0
1728,61.0,0.0,90.0,0.0,0.0
1729,70.0,30.0,210.0,0.0,0.0
1730,65.0,24.0,90.0,0.0,0.0
1731,61.0,0.0,90.0,0.0,0.0
1732,69.0,66.0,30.0,0.0,0.0
1733,65.0,120.0,90.0,0.0,0.0
1734,61.0,0.0,90.0,0.0,0.0
1735,70.0,216.0,210.0,0.0,0.0
1736,61.0,24.0,90.0,0.0,0.0
1737,65.0,0.0,90.0,0.0,0.0
1738,77.0,40.0,480.0,0.0,0.0
1739,59.0,0.0,90.0,0.0,0.0
1740,50.0,120.0,90.0,0.0,0.0
1741,56.0,0.0,90.0,0.0,0.0
1742,50.0,120.0,90.0,0.0,0.0
1743,56.0,0.0,90.0,0.0,0.0
1744,59.0,0.0,90.0,0.0,0.0
1745,50.0,14.0,90.0,0.0,0.0
1746,56.0,0.0,90.0,0.0,0.0
1747,59.0,0.0,90.0,0.0,0.0
1748,76.0,66.0,30.0,0.0,0.0
1749,56.0,0.0,90.0,0.0,0.0
1750,50.0,0.0,90.0,0.0,0.0
1751,59.0,120.0,90.0,0.0,0.0
1752,77.0,30.0,210.0,0.0,0.0
1753,50.0,24.0,90.0,0.0,0.0
1754,56.0,0.0,90.0,0.0,0.0
1755,59.0,0.0,90.0,0.0,0.0
1756,56.0,120.0,90.0,0.0,0.0
1757,59.0,0.0,90.0,0.0,0.0
1758,50.0,0.0,90.0,0.0,0.0
1759,76.0,66.0,30.0,0.0,0.0
1760,77.0,60.0,210.0,0.0,0.0
1761,56.0,0.0,90.0,0.0,0.0
1762,59.0,24.0,90.0,0.0,0.0
1763,50.0,0.0,90.0,0.0,0.0
1764,75.0,60.0,120.0,0.0,0.0
1765,51.0,60.0,60.0,0.0,0.0
1766,60.0,0.0,60.0,0.0,0.0
1767,77.0,60.0,60.0,0.0,0.0
1768,56.0,0.0,60.0,0.0,0.0
1769,79.0,60.0,60.0,0.0,0.0
1770,60.0,0.0,60.0,0.0,0.0
1771,80.0,0.0,60.0,0.0,0.0
1772,51.0,60.0,60.0,0.0,0.0
1773,82.0,60.0,60.0,0.0,0.0
1774,60.0,0.0,60.0,0.0,0.0
1775,84.0,60.0,60.0,0.0,0.0
1776,56.0,0.0,60.0,0.0,0.0
1777,82.0,0.0,60.0,0.0,0.0
1778,60.0,60.0,60.0,0.0,0.0
1779,51.0,0.0,60.0,0.0,0.0
1780,80.0,60.0,60.0,0.0,0.0
1781,79.0,60.0,60.0,0.0,0.0
1782,60.0,0.0,60.0,0.0,0.0
1783,77.0,0.0,60.0,0.0,0.0
1784,56.0,60.0,60.0,0.0,0.0
1785,60.0,60.0,60.0,0.0,0.0
1786,75.0,0.0,60.0,0.0,0.0
1787,51.0,0.0,60.0,0.0,0.0
1788,73.0,60.0,60.0,0.0,0.0
1789,60.0,0.0,60.0,0.0,0.0
1790,72.0,60.0,60.0,0.0,0.0
1791,56.0,60.0,60.0,0.0,0.0
1792,70.0,0.0,60.0,0.0,0.0
1793,60.0,30.0,60.0,0.0,0.0
1794,68.0,0.0,60.0,0.0,0.0
1795,72.0,30.0,30.0,0.0,0.0
1796,51.0,30.0,60.0,0.0,0.0
1797,70.0,0.0,30.0,0.0,0.0
1798,72.0,30.0,30.0,0.0,0.0
1799,61.0,30.0,60.0,0.0,0.0
1800,70.0,0.0,30.0,0.0,0.0
1801,72.0,30.0,30.0,0.0,0.0
1802,55.0,30.0,60.0,0.0,0.0
1803,70.0,0.0,30.0,0.0,0.0
1804,72.0,30.0,30.0,0.0,0.0
1805,61.0,30.0,60.0,0.0,0.0
1806,70.0,0.0,30.0,0.0,0.0
1807,72.0,30.0,30.0,0.0,0.0
1808,51.0,0.0,60.0,0.0,0.0
1809,70.0,30.0,30.0,0.0,0.0
1810,72.0,30.0,30.0,0.0,0.0
1811,61.0,30.0,60.0,0.0,0.0
1812,70.0,0.0,30.0,0.0,0.0
1813,72.0,30.0,30.0,0.0,0.0
1814,55.0,30.0,60.0,0.0,0.0
1815,70.0,0.0,30.0,0.0,0.0
1816,72.0,30.0,30.0,0.0,0.0
1817,61.0,0.0,60.0,0.0,0.0
1818,70.0,30.0,30.0,0.0,0.0
1819,51.0,30.0,60.0,0.0,0.0
1820,72.0,30.0,30.0,0.0,0.0
1821,70.0,0.0,30.0,0.0,0.0
1822,72.0,30.0,30.0,0.0,0.0
1823,61.0,30.0,60.0,0.0,0.0
1824,70.0,0.0,30.0,0.0,0.0
1825,72.0,30.0,30.0,0.0,0.0
1826,55.0,30.0,60.0,0.0,0.0
1827,70.0,0.0,30.0,0.0,0.0
1828,61.0,0.0,60.0,0.0,0.0
1829,72.0,30.0,30.0,0.0,0.0
1830,70.0,30.0,30.0,0.0,0.0
1831,72.0,30.0,30.0,0.0,0.0
1832,51.0,30.0,60.0,0.0,0.0
1833,70.0,0.0,30.0,0.0,0.0
1834,72.0,30.0,30.0,0.0,0.0
1835,61.0,0.0,60.0,0.0,0.0
1836,70.0,30.0,30.0,0.0,0.0
1837,55.0,30.0,60.0,0.0,0.0
1838,72.0,30.0,30.0,0.0,0.0
1839,70.0,0.0,30.0,0.0,0.0
1840,68.0,30.0,30.0,0.0,0.0
1841,61.0,240.0,60.0,0.0,0.0
1842,70.0,0.0,30.0,0.0,0.0
1843,60.0,0.0,240.0,0.0,0.0
1844,68.0,60.0,240.0,0.0,0.0
1845,56.0,0.0,240.0,0.0,0.0
1846,68.0,60.0,60.0,0.0,0.0
1847,63.0,60.0,60.0,0.0,0.0
1848,68.0,60.0,60.0,0.0,0.0
1849,72.0,60.0,60.0,0.0,0.0
1850,75.0,60.0,60.0,0.0,0.0
1851,72.0,60.0,60.0,0.0,0.0
1852,68.0,60.0,60.0,0.0,0.0
1853,72.0,60.0,60.0,0.0,0.0
1854,58.0,0.0,240.0,0.0,0.0
1855,61.0,240.0,240.0,0.0,0.0
1856,73.0,60.0,60.0,0.0,0.0
1857,51.0,0.0,240.0,0.0,0.0
1858,70.0,60.0,60.0,0.0,0.0
1859,67.0,60.0,60.0,0.0,0.0
1860,70.0,0.0,60.0,0.0,0.0
1861,56.0,60.0,240.0,0.0,0.0
1862,68.0,0.0,240.0,0.0,0.0
1863,60.0,0.0,240.0,0.0,0.0
1864,56.0,60.0,60.0,0.0,0.0
1865,51.0,60.0,60.0,0.0,0.0
1866,56.0,60.0,60.0,0.0,0.0
1867,60.0,60.0,60.0,0.0,0.0
1868,63.0,60.0,60.0,0.0,0.0
1869,60.0,60.0,60.0,0.0,0.0
1870,56.0,60.0,60.0,0.0,0.0
1871,60.0,60.0,60.0,0.0,0.0
1872,39.0,0.0,240.0,0.0,0.0
1873,46.0,0.0,240.0,0.0,0.0
1874,49.0,0.0,240.0,0.0,0.0
1875,61.0,60.0,60.0,0.0,0.0
1876,58.0,60.0,60.0,0.0,0.0
1877,55.0,60.0,60.0,0.0,0.0
1878,58.0,192.0,60.0,0.0,0.0
1879,48.0,0.0,180.0,0.0,0.0
1880,56.0,0.0,180.0,0.0,0.0
1881,44.0,240.0,180.0,0.0,0.0
1882,56.0,48.0,180.0,0.0,0.0
1883,44.0,0.0,180.0,0.0,0.0
1884,75.0,0.0,180.0,0.0,0.0
1885,80.0,192.0,240.0,0.0,0.0
1886,72.0,0.0,180.0,0.0,0.0
1887,32.0,480.0,240.0,0.0,0.0
1888,44.0,48.0,180.0,0.0,0.0
1889,68.0,0.0,180.0,0.0,0.0
1890,63.0,0.0,240.0,0.0,0.0
1891,39.0,60.0,240.0,0.0,0.0
1892,51.0,0.0,240.0,0.0,0.0
1893,75.0,60.0,60.0,0.0,0.0
1894,70.0,60.0,60.0,0.0,0.0
1895,75.0,60.0,60.0,0.0,0.0
1896,78.0,60.0,60.0,0.0,0.0
1897,82.0,60.0,60.0,0.0,0.0
1898,78.0,60.0,60.0,0.0,0.0
1899,75.0,60.0,60.0,0.0,0.0
1900,78.0,60.0,60.0,0.0,0.0
1901,58.0,0.0,240.0,0.0,0.0
1902,65.0,0.0,240.0,0.0,0.0
1903,68.0,0.0,240.0,0.0,0.0
1904,80.0,60.0,60.0,0.0,0.0
1905,77.0,60.0,60.0,0.0,0.0
1906,74.0,60.0,60.0,0.0,0.0
1907,77.0,240.0,60.0,0.0,0.0
1908,66.0,60.0,240.0,0.0,0.0
1909,75.0,0.0,240.0,0.0,0.0
1910,63.0,0.0,15.0,0.0,0.0
1911,58.0,60.0,60.0,0.0,0.0
1912,63.0,60.0,60.0,0.0,0.0
1913,66.0,60.0,60.0,0.0,0.0
1914,70.0,60.0,60.0,0.0,0.0
1915,66.0,60.0,60.0,0.0,0.0
1916,63.0,60.0,60.0,0.0,0.0
1917,66.0,60.0,60.0,0.0,0.0
1918,68.0,60.0,60.0,0.0,0.0
1919,56.0,0.0,240.0,0.0,0.0
1920,53.0,0.0,240.0,0.0,0.0
1921,46.0,120.0,240.0,0.0,0.0
1922,65.0,60.0,60.0,0.0,0.0
1923,62.0,60.0,60.0,0.0,0.0
1924,65.0,0.0,60.0,0.0,0.0
1925,63.0,0.0,240.0,0.0,0.0
1926,39.0,60.0,60.0,0.0,0.0
1927,41.0,60.0,60.0,0.0,0.0
1928,42.0,60.0,60.0,0.0,0.0
1929,44.0,60.0,60.0,0.0,0.0
1930,46.0,60.0,60.0,0.0,0.0
1931,48.0,60.0,60.0,0.0,0.0
1932,50.0,120.0,60.0,0.0,0.0
1933,51.0,60.0,240.0,0.0,0.0
1934,75.0,60.0,60.0,0.0,0.0
1935,78.0,60.0,60.0,0.0,0.0
1936,77.0,0.0,60.0,0.0,0.0
1937,75.0,60.0,60.0,0.0,0.0
1938,73.0,60.0,60.0,0.0,0.0
1939,72.0,60.0,60.0,0.0,0.0
1940,70.0,120.0,60.0,0.0,0.0
1941,69.0,0.0,240.0,0.0,0.0
1942,41.0,60.0,60.0,0.0,0.0
1943,43.0,60.0,60.0,0.0,0.0
1944,45.0,60.0,60.0,0.0,0.0
1945,46.0,60.0,60.0,0.0,0.0
1946,48.0,60.0,60.0,0.0,0.0
1947,50.0,60.0,60.0,0.0,0.0
1948,52.0,120.0,60.0,0.0,0.0
1949,53.0,60.0,240.0,0.0,0.0
1950,81.0,60.0,60.0,0.0,0.0
1951,84.0,60.0,60.0,0.0,0.0
1952,82.0,0.0,60.0,0.0,0.0
1953,81.0,60.0,60.0,0.0,0.0
1954,78.0,60.0,60.0,0.0,0.0
1955,77.0,60.0,60.0,0.0,0.0
1956,75.0,240.0,60.0,0.0,0.0
1957,73.0,60.0,240.0,0.0,0.0
1958,34.0,0.0,240.0,0.0,0.0
1959,46.0,0.0,240.0,0.0,0.0
1960,70.0,60.0,60.0,0.0,0.0
1961,65.0,60.0,60.0,0.0,0.0
1962,70.0,60.0,60.0,0.0,0.0
1963,73.0,60.0,60.0,0.0,0.0
1964,77.0,60.0,60.0,0.0,0.0
1965,73.0,60.0,60.0,0.0,0.0
1966,70.0,60.0,60.0,0.0,0.0
1967,73.0,60.0,60.0,0.0,0.0
1968,75.0,60.0,60.0,0.0,0.0
1969,63.0,0.0,240.0,0.0,0.0
1970,53.0,240.0,240.0,0.0,0.0
1971,60.0,0.0,240.0,0.0,0.0
1972,72.0,60.0,60.0,0.0,0.0
1973,69.0,60.0,60.0,0.0,0.0
1974,72.0,0.0,60.0,0.0,0.0
1975,70.0,0.0,240.0,0.0,0.0
1976,61.0,0.0,240.0,0.0,0.0
1977,58.0,60.0,15.0,0.0,0.0
1978,53.0,60.0,60.0,0.0,0.0
1979,58.0,60.0,60.0,0.0,0.0
1980,61.0,60.0,60.0,0.0,0.0
1981,65.0,60.0,60.0,0.0,0.0
1982,61.0,60.0,60.0,0.0,0.0
1983,58.0,60.0,60.0,0.0,0.0
1984,61.0,60.0,60.0,0.0,0.0
1985,41.0,120.0,240.0,0.0,0.0
1986,48.0,0.0,240.0,0.0,0.0
1987,51.0,0.0,240.0,0.0,0.0
1988,63.0,60.0,60.0,0.0,0.0
1989,60.0,60.0,60.0,0.0,0.0
1990,57.0,60.0,60.0,0.0,0.0
1991,60.0,0.0,60.0,0.0,0.0
1992,49.0,0.0,240.0,0.0,0.0
1993,46.0,0.0,240.0,0.0,0.0
1994,58.0,60.0,60.0,0.0,0.0
1995,60.0,60.0,60.0,0.0,0.0
1996,61.0,60.0,60.0,0.0,0.0
1997,63.0,60.0,60.0,0.0,0.0
1998,65.0,60.0,60.0,0.0,0.0
1999,67.0,60.0,60.0,0.0,0.0
2000,69.0,120.0,60.0,0.0,0.0
2001,70.0,0.0,240.0,0.0,0.0
2002,58.0,60.0,60.0,0.0,0.0
2003,61.0,60.0,60.0,0.0,0.0
2004,60.0,60.0,60.0,0.0,0.0
2005,58.0,60.0,60.0,0.0,0.0
2006,56.0,60.0,60.0,0.0,0.0
2007,55.0,60.0,60.0,0.0,0.0
2008,53.0,120.0,60.0,0.0,0.0
2009,52.0,0.0,240.0,0.0,0.0
2010,67.0,60.0,60.0,0.0,0.0
2011,68.0,60.0,60.0,0.0,0.0
2012,70.0,60.0,60.0,0.0,0.0
2013,72.0,60.0,60.0,0.0,0.0
2014,74.0,60.0,60.0,0.0,0.0
2015,76.0,60.0,60.0,0.0,0.0
2016,77.0,120.0,60.0,0.0,0.0
2017,79.0,60.0,240.0,0.0,0.0
2018,52.0,60.0,60.0,0.0,0.0
2019,55.0,60.0,60.0,0.0,0.0
2020,53.0,0.0,60.0,0.0,0.0
2021,52.0,60.0,60.0,0.0,0.0
2022,49.0,60.0,60.0,0.0,0.0
2023,48.0,60.0,60.0,0.0,0.0
2024,46.0,120.0,60.0,0.0,0.0
2025,44.0,0.0,240.0,0.0,0.0
2026,77.0,60.0,60.0,0.0,0.0
2027,84.0,60.0,60.0,0.0,0.0
2028,82.0,60.0,60.0,0.0,0.0
2029,80.0,60.0,60.0,0.0,0.0
2030,79.0,60.0,60.0,0.0,0.0
2031,77.0,60.0,60.0,0.0,0.0
2032,75.0,120.0,60.0,0.0,0.0
2033,73.0,60.0,240.0,0.0,0.0
2034,58.0,60.0,60.0,0.0,0.0
2035,65.0,60.0,60.0,0.0,0.0
2036,63.0,0.0,60.0,0.0,0.0
2037,61.0,60.0,60.0,0.0,0.0
2038,60.0,60.0,60.0,0.0,0.0
2039,58.0,60.0,60.0,0.0,0.0
2040,56.0,120.0,60.0,0.0,0.0
2041,55.0,60.0,240.0,0.0,0.0
2042,75.0,60.0,60.0,0.0,0.0
2043,82.0,60.0,60.0,0.0,0.0
2044,80.0,0.0,60.0,0.0,0.0
2045,79.0,60.0,60.0,0.0,0.0
2046,77.0,60.0,60.0,0.0,0.0
2047,75.0,60.0,60.0,0.0,0.0
2048,73.0,120.0,60.0,0.0,0.0
2049,72.0,60.0,240.0,0.0,0.0
2050,56.0,60.0,60.0,0.0,0.0
2051,63.0,60.0,60.0,0.0,0.0
2052,61.0,0.0,60.0,0.0,0.0
2053,60.0,60.0,60.0,0.0,0.0
2054,58.0,60.0,60.0,0.0,0.0
2055,56.0,60.0,60.0,0.0,0.0
2056,55.0,120.0,60.0,0.0,0.0
2057,53.0,60.0,240.0,0.0,0.0
2058,73.0,60.0,60.0,0.0,0.0
2059,80.0,60.0,60.0,0.0,0.0
2060,79.0,0.0,60.0,0.0,0.0
2061,77.0,60.0,60.0,0.0,0.0
2062,75.0,60.0,60.0,0.0,0.0
2063,73.0,60.0,60.0,0.0,0.0
2064,72.0,120.0,60.0,0.0,0.0
2065,70.0,60.0,240.0,0.0,0.0
2066,55.0,60.0,60.0,0.0,0.0
2067,61.0,60.0,60.0,0.0,0.0
2068,60.0,0.0,60.0,0.0,0.0
2069,58.0,60.0,60.0,0.0,0.0
2070,56.0,60.0,60.0,0.0,0.0
2071,55.0,60.0,60.0,0.0,0.0
2072,53.0,120.0,60.0,0.0,0.0
2073,52.0,60.0,240.0,0.0,0.0
2074,72.0,60.0,60.0,0.0,0.0
2075,79.0,60.0,60.0,0.0,0.0
2076,77.0,0.0,60.0,0.0,0.0
2077,76.0,60.0,60.0,0.0,0.0
2078,73.0,60.0,60.0,0.0,0.0
2079,72.0,60.0,60.0,0.0,0.0
2080,70.0,120.0,60.0,0.0,0.0
2081,68.0,60.0,240.0,0.0,0.0
2082,53.0,60.0,60.0,0.0,0.0
2083,56.0,60.0,60.0,0.0,0.0
2084,55.0,0.0,60.0,0.0,0.0
2085,53.0,60.0,60.0,0.0,0.0
2086,51.0,60.0,60.0,0.0,0.0
2087,49.0,60.0,60.0,0.0,0.0
2088,48.0,120.0,60.0,0.0,0.0
2089,46.0,0.0,480.0,0.0,0.0
2090,66.0,60.0,60.0,0.0,0.0
2091,70.0,60.0,60.0,0.0,0.0
2092,68.0,60.0,60.0,0.0,0.0
2093,66.0,60.0,60.0,0.0,0.0
2094,65.0,60.0,60.0,0.0,0.0
2095,63.0,60.0,60.0,0.0,0.0
2096,61.0,60.0,60.0,0.0,0.0
2097,60.0,60.0,60.0,0.0,0.0
2098,54.0,120.0,480.0,0.0,0.0
2099,51.0,0.0,480.0,0.0,0.0
2100,44.0,0.0,480.0,0.0,0.0
2101,61.0,60.0,60.0,0.0,0.0
2102,63.0,60.0,60.0,0.0,0.0
2103,65.0,60.0,60.0,0.0,0.0
2104,66.0,60.0,60.0,0.0,0.0
2105,68.0,60.0,60.0,0.0,0.0
2106,70.0,60.0,60.0,0.0,0.0
2107,72.0,0.0,60.0,0.0,0.0
2108,73.0,0.0,480.0,0.0,0.0
2109,61.0,120.0,120.0,0.0,0.0
2110,68.0,120.0,120.0,0.0,0.0
2111,65.0,120.0,120.0,0.0,0.0
2112,68.0,120.0,120.0,0.0,0.0
2113,61.0,120.0,120.0,0.0,0.0
2114,77.0,120.0,240.0,0.0,0.0
2115,68.0,0.0,120.0,0.0,0.0
2116,80.0,120.0,240.0,0.0,0.0
2117,65.0,120.0,120.0,0.0,0.0
2118,68.0,0.0,120.0,0.0,0.0
2119,72.0,0.0,360.0,0.0,0.0
2120,63.0,120.0,120.0,0.0,0.0
2121,68.0,120.0,120.0,0.0,0.0
2122,66.0,60.0,120.0,0.0,0.0
2123,68.0,0.0,120.0,0.0,0.0
2124,73.0,60.0,60.0,0.0,0.0
2125,75.0,120.0,60.0,0.0,0.0
2126,61.0,120.0,120.0,0.0,0.0
2127,73.0,0.0,480.0,0.0,0.0
2128,68.0,120.0,120.0,0.0,0.0
2129,65.0,120.0,120.0,0.0,0.0
2130,68.0,120.0,120.0,0.0,0.0
2131,61.0,120.0,120.0,0.0,0.0
2132,82.0,0.0,480.0,0.0,0.0
2133,70.0,120.0,120.0,0.0,0.0
2134,66.0,120.0,120.0,0.0,0.0
2135,70.0,120.0,120.0,0.0,0.0
2136,61.0,120.0,120.0,0.0,0.0
2137,80.0,120.0,240.0,0.0,0.0
2138,68.0,0.0,120.0,0.0,0.0
2139,65.0,120.0,120.0,0.0,0.0
2140,85.0,0.0,240.0,0.0,0.0
2141,68.0,120.0,120.0,0.0,0.0
2142,80.0,39.0,240.0,0.0,0.0
2143,60.0,120.0,120.0,0.0,0.0
2144,68.0,0.0,120.0,0.0,0.0
2145,63.0,60.0,120.0,0.0,0.0
2146,78.0,40.0,40.0,0.0,0.0
2147,80.0,40.0,40.0,0.0,0.0
2148,78.0,1.0,40.0,0.0,0.0
2149,77.0,60.0,60.0,0.0,0.0
2150,68.0,120.0,120.0,0.0,0.0
2151,78.0,0.0,60.0,0.0,0.0
2152,77.0,120.0,240.0,0.0,0.0
2153,61.0,120.0,120.0,0.0,0.0
2154,68.0,0.0,120.0,0.0,0.0
2155,65.0,120.0,120.0,0.0,0.0
2156,68.0,120.0,120.0,0.0,0.0
2157,70.0,60.0,120.0,0.0,0.0
2158,66.0,60.0,240.0,0.0,0.0
2159,72.0,60.0,60.0,0.0,0.0
2160,73.0,0.0,60.0,0.0,0.0
2161,75.0,60.0,60.0,0.0,0.0
2162,77.0,60.0,60.0,0.0,0.0
2163,78.0,60.0,60.0,0.0,0.0
2164,80.0,60.0,60.0,0.0,0.0
2165,82.0,60.0,60.0,0.0,0.0
2166,80.0,60.0,60.0,0.0,0.0
2167,78.0,60.0,60.0,0.0,0.0
2168,77.0,60.0,60.0,0.0,0.0
2169,75.0,60.0,60.0,0.0,0.0
2170,61.0,0.0,240.0,0.0,0.0
2171,54.0,0.0,240.0,0.0,0.0
2172,73.0,60.0,60.0,0.0,0.0
2173,72.0,60.0,60.0,0.0,0.0
2174,70.0,120.0,60.0,0.0,0.0
2175,53.0,0.0,240.0,0.0,0.0
2176,61.0,0.0,240.0,0.0,0.0
2177,68.0,60.0,120.0,0.0,0.0
2178,70.0,60.0,60.0,0.0,0.0
2179,72.0,60.0,60.0,0.0,0.0
2180,73.0,60.0,60.0,0.0,0.0
2181,75.0,60.0,60.0,0.0,0.0
2182,77.0,60.0,60.0,0.0,0.0
2183,78.0,60.0,60.0,0.0,0.0
2184,80.0,60.0,60.0,0.0,0.0
2185,78.0,60.0,60.0,0.0,0.0
2186,77.0,60.0,60.0,0.0,0.0
2187,75.0,60.0,60.0,0.0,0.0
2188,53.0,0.0,240.0,0.0,0.0
2189,73.0,60.0,60.0,0.0,0.0
2190,72.0,60.0,60.0,0.0,0.0
2191,70.0,60.0,60.0,0.0,0.0
2192,68.0,0.0,60.0,0.0,0.0
2193,66.0,60.0,120.0,0.0,0.0
2194,51.0,0.0,240.0,0.0,0.0
2195,61.0,120.0,15.0,0.0,0.0
2196,68.0,60.0,60.0,0.0,0.0
2197,70.0,60.0,60.0,0.0,0.0
2198,72.0,60.0,60.0,0.0,0.0
2199,73.0,60.0,60.0,0.0,0.0
2200,75.0,60.0,60.0,0.0,0.0
2201,77.0,60.0,60.0,0.0,0.0
2202,78.0,60.0,60.0,0.0,0.0
2203,77.0,60.0,60.0,0.0,0.0
2204,75.0,60.0,60.0,0.0,0.0
2205,73.0,60.0,60.0,0.0,0.0
2206,51.0,120.0,240.0,0.0,0.0
2207,60.0,0.0,240.0,0.0,0.0
2208,72.0,60.0,60.0,0.0,0.0
2209,70.0,60.0,60.0,0.0,0.0
2210,68.0,60.0,60.0,0.0,0.0
2211,66.0,0.0,60.0,0.0,0.0
2212,65.0,60.0,120.0,0.0,0.0
2213,61.0,0.0,240.0,0.0,0.0
2214,49.0,0.0,240.0,0.0,0.0
2215,66.0,60.0,60.0,0.0,0.0
2216,68.0,60.0,60.0,0.0,0.0
2217,70.0,60.0,60.0,0.0,0.0
2218,72.0,60.0,60.0,0.0,0.0
2219,73.0,60.0,60.0,0.0,0.0
2220,75.0,60.0,60.0,0.0,0.0
2221,77.0,60.0,60.0,0.0,0.0
2222,75.0,60.0,60.0,0.0,0.0
2223,73.0,60.0,60.0,0.0,0.0
2224,72.0,60.0,60.0,0.0,0.0
2225,70.0,60.0,60.0,0.0,0.0
2226,68.0,60.0,60.0,0.0,0.0
2227,66.0,60.0,60.0,0.0,0.0
2228,65.0,120.0,60.0,0.0,0.0
2229,49.0,60.0,120.0,0.0,0.0
2230,77.0,60.0,240.0,0.0,0.0
2231,51.0,60.0,60.0,0.0,0.0
2232,53.0,0.0,60.0,0.0,0.0
2233,54.0,60.0,60.0,0.0,0.0
2234,56.0,60.0,60.0,0.0,0.0
2235,58.0,60.0,60.0,0.0,0.0
2236,60.0,60.0,60.0,0.0,0.0
2237,61.0,60.0,60.0,0.0,0.0
2238,60.0,60.0,60.0,0.0,0.0
2239,58.0,60.0,60.0,0.0,0.0
2240,56.0,60.0,60.0,0.0,0.0
2241,68.0,0.0,240.0,0.0,0.0
2242,77.0,0.0,240.0,0.0,0.0
2243,54.0,60.0,60.0,0.0,0.0
2244,53.0,60.0,60.0,0.0,0.0
2245,51.0,60.0,60.0,0.0,0.0
2246,49.0,120.0,60.0,0.0,0.0
2247,75.0,0.0,240.0,0.0,0.0
2248,48.0,60.0,120.0,0.0,0.0
2249,68.0,0.0,240.0,0.0,0.0
2250,49.0,60.0,60.0,0.0,0.0
2251,51.0,60.0,60.0,0.0,0.0
2252,53.0,60.0,60.0,0.0,0.0
2253,55.0,60.0,60.0,0.0,0.0
2254,56.0,60.0,60.0,0.0,0.0
2255,58.0,60.0,60.0,0.0,0.0
2256,60.0,60.0,60.0,0.0,0.0
2257,58.0,60.0,60.0,0.0,0.0
2258,56.0,60.0,60.0,0.0,0.0
2259,55.0,60.0,60.0,0.0,0.0
2260,68.0,120.0,240.0,0.0,0.0
2261,53.0,60.0,60.0,0.0,0.0
2262,75.0,0.0,240.0,0.0,0.0
2263,51.0,60.0,60.0,0.0,0.0
2264,49.0,60.0,60.0,0.0,0.0
2265,48.0,0.0,60.0,0.0,0.0
2266,73.0,60.0,240.0,0.0,0.0
2267,46.0,60.0,120.0,0.0,0.0
2268,68.0,0.0,240.0,0.0,0.0
2269,48.0,60.0,60.0,0.0,0.0
2270,49.0,0.0,60.0,0.0,0.0
2271,51.0,60.0,60.0,0.0,0.0
2272,53.0,60.0,60.0,0.0,0.0
2273,55.0,60.0,60.0,0.0,0.0
2274,56.0,60.0,60.0,0.0,0.0
2275,58.0,60.0,60.0,0.0,0.0
2276,56.0,60.0,60.0,0.0,0.0
2277,55.0,60.0,60.0,0.0,0.0
2278,53.0,60.0,60.0,0.0,0.0
2279,67.0,120.0,240.0,0.0,0.0
2280,73.0,0.0,240.0,0.0,0.0
2281,51.0,60.0,60.0,0.0,0.0
2282,49.0,60.0,60.0,0.0,0.0
2283,48.0,60.0,60.0,0.0,0.0
2284,46.0,0.0,60.0,0.0,0.0
2285,68.0,0.0,240.0,0.0,0.0
2286,72.0,0.0,240.0,0.0,0.0
2287,44.0,60.0,120.0,0.0,0.0
2288,46.0,60.0,60.0,0.0,0.0
2289,48.0,60.0,60.0,0.0,0.0
2290,49.0,60.0,60.0,0.0,0.0
2291,51.0,60.0,60.0,0.0,0.0
2292,53.0,60.0,60.0,0.0,0.0
2293,55.0,60.0,60.0,0.0,0.0
2294,56.0,60.0,60.0,0.0,0.0
2295,55.0,60.0,60.0,0.0,0.0
2296,53.0,60.0,60.0,0.0,0.0
2297,51.0,60.0,60.0,0.0,0.0
2298,68.0,60.0,240.0,0.0,0.0
2299,72.0,0.0,240.0,0.0,0.0
2300,49.0,60.0,60.0,0.0,0.0
2301,48.0,60.0,60.0,0.0,0.0
2302,46.0,60.0,60.0,0.0,0.0
2303,44.0,0.0,60.0,0.0,0.0
2304,70.0,60.0,60.0,0.0,0.0
2305,49.0,0.0,960.0,0.0,0.0
2306,53.0,0.0,960.0,0.0,0.0
2307,58.0,60.0,60.0,0.0,0.0
2308,60.0,60.0,60.0,0.0,0.0
2309,61.0,60.0,60.0,0.0,0.0
2310,63.0,60.0,60.0,0.0,0.0
2311,65.0,60.0,60.0,0.0,0.0
2312,67.0,60.0,60.0,0.0,0.0
2313,69.0,60.0,60.0,0.0,0.0
2314,70.0,60.0,60.0,0.0,0.0
2315,65.0,60.0,60.0,0.0,0.0
2316,67.0,60.0,60.0,0.0,0.0
2317,69.0,60.0,60.0,0.0,0.0
2318,70.0,60.0,60.0,0.0,0.0
2319,72.0,60.0,60.0,0.0,0.0
2320,73.0,60.0,60.0,0.0,0.0
2321,75.0,60.0,60.0,0.0,0.0
2322,49.0,0.0,360.0,0.0,0.0
2323,77.0,60.0,60.0,0.0,0.0
2324,79.0,60.0,60.0,0.0,0.0
2325,80.0,60.0,60.0,0.0,0.0
2326,79.0,60.0,60.0,0.0,0.0
2327,77.0,60.0,60.0,0.0,0.0
2328,75.0,60.0,60.0,0.0,0.0
2329,73.0,60.0,60.0,0.0,0.0
2330,51.0,0.0,120.0,0.0,0.0
2331,72.0,60.0,60.0,0.0,0.0
2332,53.0,0.0,360.0,0.0,0.0
2333,73.0,60.0,60.0,0.0,0.0
2334,75.0,60.0,60.0,0.0,0.0
2335,77.0,60.0,60.0,0.0,0.0
2336,75.0,60.0,60.0,0.0,0.0
2337,73.0,60.0,60.0,0.0,0.0
2338,72.0,60.0,60.0,0.0,0.0
2339,70.0,60.0,60.0,0.0,0.0
2340,50.0,0.0,120.0,0.0,0.0
2341,68.0,60.0,60.0,0.0,0.0
2342,67.0,60.0,120.0,0.0,0.0
2343,39.0,60.0,60.0,0.0,0.0
2344,43.0,0.0,60.0,0.0,0.0
2345,75.0,60.0,120.0,0.0,0.0
2346,46.0,60.0,60.0,0.0,0.0
2347,51.0,0.0,60.0,0.0,0.0
2348,72.0,60.0,120.0,0.0,0.0
2349,39.0,60.0,60.0,0.0,0.0
2350,44.0,0.0,60.0,0.0,0.0
2351,68.0,60.0,120.0,0.0,0.0
2352,48.0,60.0,60.0,0.0,0.0
2353,51.0,0.0,60.0,0.0,0.0
2354,70.0,60.0,120.0,0.0,0.0
2355,39.0,60.0,60.0,0.0,0.0
2356,43.0,0.0,60.0,0.0,0.0
2357,75.0,60.0,120.0,0.0,0.0
2358,46.0,60.0,60.0,0.0,0.0
2359,51.0,0.0,60.0,0.0,0.0
2360,72.0,0.0,120.0,0.0,0.0
2361,39.0,60.0,60.0,0.0,0.0
2362,44.0,60.0,60.0,0.0,0.0
2363,68.0,240.0,120.0,0.0,0.0
2364,48.0,60.0,60.0,0.0,0.0
2365,51.0,0.0,60.0,0.0,0.0
2366,70.0,0.0,240.0,0.0,0.0
2367,39.0,240.0,240.0,0.0,0.0
2368,67.0,0.0,240.0,0.0,0.0
2369,70.0,0.0,240.0,0.0,0.0
2370,75.0,0.0,240.0,0.0,0.0
2371,51.0,240.0,240.0,0.0,0.0
2372,63.0,0.0,240.0,0.0,0.0
2373,39.0,300.0,240.0,0.0,0.0
2374,62.0,60.0,60.0,0.0,0.0
2375,63.0,60.0,60.0,0.0,0.0
2376,62.0,60.0,60.0,0.0,0.0
2377,63.0,60.0,60.0,0.0,0.0
2378,62.0,60.0,60.0,0.0,0.0
2379,63.0,60.0,60.0,0.0,0.0
2380,62.0,60.0,60.0,0.0,0.0
2381,63.0,60.0,60.0,0.0,0.0
2382,61.0,60.0,60.0,0.0,0.0
2383,63.0,60.0,60.0,0.0,0.0
2384,61.0,60.0,60.0,0.0,0.0
2385,63.0,60.0,60.0,0.0,0.0
2386,61.0,60.0,60.0,0.0,0.0
2387,63.0,60.0,60.0,0.0,0.0
2388,61.0,60.0,60.0,0.0,0.0
2389,63.0,60.0,60.0,0.0,0.0
2390,60.0,60.0,60.0,0.0,0.0
2391,75.0,60.0,120.0,0.0,0.0
2392,63.0,0.0,60.0,0.0,0.0
2393,72.0,0.0,120.0,0.0,0.0
2394,60.0,60.0,60.0,0.0,0.0
2395,63.0,60.0,60.0,0.0,0.0
2396,60.0,60.0,60.0,0.0,0.0
2397,68.0,60.0,360.0,0.0,0.0
2398,63.0,60.0,60.0,0.0,0.0
2399,60.0,60.0,60.0,0.0,0.0
2400,63.0,60.0,60.0,0.0,0.0
2401,60.0,60.0,60.0,0.0,0.0
2402,63.0,0.0,60.0,0.0,0.0
2403,70.0,60.0,60.0,0.0,0.0
2404,60.0,0.0,60.0,0.0,0.0
2405,63.0,60.0,60.0,0.0,0.0
2406,72.0,0.0,60.0,0.0,0.0
2407,60.0,60.0,60.0,0.0,0.0
2408,70.0,60.0,120.0,0.0,0.0
2409,63.0,0.0,60.0,0.0,0.0
2410,60.0,60.0,60.0,0.0,0.0
2411,68.0,30.0,120.0,0.0,0.0
2412,63.0,0.0,60.0,0.0,0.0
2413,70.0,30.0,30.0,0.0,0.0
2414,61.0,30.0,60.0,0.0,0.0
2415,68.0,0.0,30.0,0.0,0.0
2416,63.0,30.0,60.0,0.0,0.0
2417,70.0,30.0,30.0,0.0,0.0
2418,68.0,0.0,30.0,0.0,0.0
2419,60.0,50.0,60.0,0.0,0.0
2420,70.0,30.0,30.0,0.0,0.0
2421,68.0,0.0,30.0,0.0,0.0
2422,67.0,10.0,60.0,0.0,0.0
2423,63.0,60.0,60.0,0.0,0.0
2424,58.0,60.0,60.0,0.0,0.0
2425,67.0,60.0,720.0,0.0,0.0
2426,63.0,60.0,60.0,0.0,0.0
2427,60.0,60.0,60.0,0.0,0.0
2428,63.0,60.0,60.0,0.0,0.0
2429,61.0,60.0,60.0,0.0,0.0
2430,63.0,60.0,60.0,0.0,0.0
2431,60.0,60.0,60.0,0.0,0.0
2432,63.0,60.0,60.0,0.0,0.0
2433,61.0,60.0,60.0,0.0,0.0
2434,63.0,60.0,60.0,0.0,0.0
2435,58.0,60.0,60.0,0.0,0.0
2436,63.0,0.0,60.0,0.0,0.0
2437,60.0,60.0,60.0,0.0,0.0
2438,75.0,0.0,120.0,0.0,0.0
2439,63.0,60.0,60.0,0.0,0.0
2440,72.0,60.0,120.0,0.0,0.0
2441,60.0,60.0,60.0,0.0,0.0
2442,63.0,0.0,60.0,0.0,0.0
2443,68.0,60.0,360.0,0.0,0.0
2444,60.0,60.0,60.0,0.0,0.0
2445,63.0,60.0,60.0,0.0,0.0
2446,60.0,60.0,60.0,0.0,0.0
2447,63.0,60.0,60.0,0.0,0.0
2448,60.0,60.0,60.0,0.0,0.0
2449,63.0,0.0,60.0,0.0,0.0
2450,70.0,60.0,60.0,0.0,0.0
2451,60.0,0.0,60.0,0.0,0.0
2452,72.0,60.0,60.0,0.0,0.0
2453,63.0,0.0,60.0,0.0,0.0
2454,60.0,60.0,60.0,0.0,0.0
2455,70.0,60.0,120.0,0.0,0.0
2456,63.0,0.0,60.0,0.0,0.0
2457,68.0,30.0,120.0,0.0,0.0
2458,60.0,60.0,60.0,0.0,0.0
2459,63.0,0.0,60.0,0.0,0.0
2460,70.0,30.0,30.0,0.0,0.0
2461,61.0,30.0,60.0,0.0,0.0
2462,68.0,0.0,30.0,0.0,0.0
2463,70.0,30.0,30.0,0.0,0.0
2464,63.0,30.0,60.0,0.0,0.0
2465,68.0,0.0,30.0,0.0,0.0
2466,70.0,30.0,30.0,0.0,0.0
2467,60.0,50.0,60.0,0.0,0.0
2468,68.0,0.0,30.0,0.0,0.0
2469,67.0,10.0,60.0,0.0,0.0
2470,63.0,60.0,60.0,0.0,0.0
2471,58.0,60.0,60.0,0.0,0.0
2472,67.0,60.0,480.0,0.0,0.0
2473,63.0,60.0,60.0,0.0,0.0
2474,60.0,60.0,60.0,0.0,0.0
2475,63.0,60.0,60.0,0.0,0.0
2476,61.0,60.0,60.0,0.0,0.0
2477,63.0,60.0,60.0,0.0,0.0
2478,60.0,60.0,60.0,0.0,0.0
2479,63.0,0.0,60.0,0.0,0.0
2480,61.0,60.0,60.0,0.0,0.0
2481,63.0,60.0,60.0,0.0,0.0
2482,58.0,60.0,60.0,0.0,0.0
2483,63.0,120.0,60.0,0.0,0.0
2484,75.0,120.0,240.0,0.0,0.0
2485,48.0,60.0,60.0,0.0,0.0
2486,51.0,60.0,60.0,0.0,0.0
2487,56.0,0.0,60.0,0.0,0.0
2488,60.0,120.0,240.0,0.0,0.0
2489,75.0,60.0,60.0,0.0,0.0
2490,72.0,60.0,60.0,0.0,0.0
2491,68.0,0.0,60.0,0.0,0.0
2492,65.0,120.0,240.0,0.0,0.0
2493,49.0,60.0,60.0,0.0,0.0
2494,53.0,60.0,60.0,0.0,0.0
2495,56.0,0.0,60.0,0.0,0.0
2496,61.0,0.0,240.0,0.0,0.0
2497,65.0,60.0,60.0,0.0,0.0
2498,68.0,60.0,60.0,0.0,0.0
2499,65.0,120.0,60.0,0.0,0.0
2500,73.0,120.0,240.0,0.0,0.0
2501,46.0,60.0,60.0,0.0,0.0
2502,49.0,60.0,60.0,0.0,0.0
2503,55.0,0.0,60.0,0.0,0.0
2504,58.0,0.0,240.0,0.0,0.0
2505,73.0,60.0,60.0,0.0,0.0
2506,70.0,60.0,60.0,0.0,0.0
2507,67.0,120.0,60.0,0.0,0.0
2508,63.0,120.0,240.0,0.0,0.0
2509,48.0,60.0,60.0,0.0,0.0
2510,51.0,60.0,60.0,0.0,0.0
2511,55.0,0.0,60.0,0.0,0.0
2512,60.0,0.0,240.0,0.0,0.0
2513,75.0,60.0,60.0,0.0,0.0
2514,79.0,60.0,60.0,0.0,0.0
2515,75.0,120.0,60.0,0.0,0.0
2516,84.0,120.0,240.0,0.0,0.0
2517,56.0,60.0,60.0,0.0,0.0
2518,60.0,60.0,60.0,0.0,0.0
2519,65.0,0.0,60.0,0.0,0.0
2520,68.0,0.0,240.0,0.0,0.0
2521,84.0,60.0,60.0,0.0,0.0
2522,80.0,60.0,60.0,0.0,0.0
2523,77.0,120.0,60.0,0.0,0.0
2524,73.0,120.0,240.0,0.0,0.0
2525,58.0,60.0,60.0,0.0,0.0
2526,61.0,60.0,60.0,0.0,0.0
2527,65.0,0.0,60.0,0.0,0.0
2528,70.0,120.0,240.0,0.0,0.0
2529,73.0,60.0,60.0,0.0,0.0
2530,77.0,60.0,60.0,0.0,0.0
2531,73.0,0.0,60.0,0.0,0.0
2532,82.0,120.0,240.0,0.0,0.0
2533,55.0,60.0,60.0,0.0,0.0
2534,58.0,60.0,60.0,0.0,0.0
2535,63.0,0.0,60.0,0.0,0.0
2536,67.0,120.0,240.0,0.0,0.0
2537,82.0,60.0,60.0,0.0,0.0
2538,79.0,60.0,60.0,0.0,0.0
2539,75.0,0.0,60.0,0.0,0.0
2540,72.0,120.0,240.0,0.0,0.0
2541,56.0,60.0,60.0,0.0,0.0
2542,60.0,60.0,60.0,0.0,0.0
2543,63.0,0.0,60.0,0.0,0.0
2544,68.0,216.0,240.0,0.0,0.0
2545,80.0,60.0,60.0,0.0,0.0
2546,75.0,60.0,60.0,0.0,0.0
2547,72.0,0.0,60.0,0.0,0.0
2548,70.0,40.0,480.0,0.0,0.0
2549,65.0,120.0,90.0,0.0,0.0
2550,61.0,0.0,90.0,0.0,0.0
2551,61.0,0.0,90.0,0.0,0.0
2552,65.0,120.0,90.0,0.0,0.0
2553,65.0,14.0,90.0,0.0,0.0
2554,61.0,0.0,90.0,0.0,0.0
2555,65.0,120.0,90.0,0.0,0.0
2556,61.0,0.0,90.0,0.0,0.0
2557,69.0,66.0,30.0,0.0,0.0
2558,70.0,30.0,210.0,0.0,0.0
2559,65.0,0.0,90.0,0.0,0.0
2560,61.0,24.0,90.0,0.0,0.0
2561,65.0,120.0,90.0,0.0,0.0
2562,69.0,66.0,30.0,0.0,0.0
2563,61.0,0.0,90.0,0.0,0.0
2564,70.0,216.0,210.0,0.0,0.0
2565,61.0,0.0,90.0,0.0,0.0
2566,65.0,24.0,90.0,0.0,0.0
2567,77.0,40.0,480.0,0.0,0.0
2568,59.0,120.0,90.0,0.0,0.0
2569,56.0,0.0,90.0,0.0,0.0
2570,50.0,0.0,90.0,0.0,0.0
2571,59.0,0.0,90.0,0.0,0.0
2572,56.0,0.0,90.0,0.0,0.0
2573,50.0,120.0,90.0,0.0,0.0
2574,59.0,0.0,90.0,0.0,0.0
2575,56.0,14.0,90.0,0.0,0.0
2576,50.0,0.0,90.0,0.0,0.0
2577,59.0,0.0,90.0,0.0,0.0
2578,56.0,0.0,90.0,0.0,0.0
2579,50.0,120.0,90.0,0.0,0.0
2580,76.0,66.0,30.0,0.0,0.0
2581,77.0,30.0,210.0,0.0,0.0
2582,56.0,0.0,90.0,0.0,0.0
2583,59.0,24.0,90.0,0.0,0.0
2584,50.0,0.0,90.0,0.0,0.0
2585,59.0,0.0,90.0,0.0,0.0
2586,56.0,120.0,90.0,0.0,0.0
2587,50.0,0.0,90.0,0.0,0.0
2588,76.0,66.0,30.0,0.0,0.0
2589,77.0,60.0,210.0,0.0,0.0
2590,50.0,0.0,90.0,0.0,0.0
2591,56.0,24.0,90.0,0.0,0.0
2592,59.0,0.0,90.0,0.0,0.0
2593,75.0,60.0,120.0,0.0,0.0
2594,51.0,60.0,60.0,0.0,0.0
2595,60.0,0.0,60.0,0.0,0.0
2596,77.0,0.0,60.0,0.0,0.0
2597,56.0,60.0,60.0,0.0,0.0
2598,79.0,60.0,60.0,0.0,0.0
2599,60.0,0.0,60.0,0.0,0.0
2600,80.0,0.0,60.0,0.0,0.0
2601,51.0,60.0,60.0,0.0,0.0
2602,60.0,60.0,60.0,0.0,0.0
2603,82.0,0.0,60.0,0.0,0.0
2604,84.0,60.0,60.0,0.0,0.0
2605,56.0,0.0,60.0,0.0,0.0
2606,82.0,60.0,60.0,0.0,0.0
2607,60.0,0.0,60.0,0.0,0.0
2608,51.0,0.0,60.0,0.0,0.0
2609,80.0,60.0,60.0,0.0,0.0
2610,79.0,60.0,60.0,0.0,0.0
2611,60.0,0.0,60.0,0.0,0.0
2612,77.0,60.0,60.0,0.0,0.0
2613,56.0,0.0,60.0,0.0,0.0
2614,75.0,0.0,60.0,0.0,0.0
2615,60.0,60.0,60.0,0.0,0.0
2616,51.0,0.0,60.0,0.0,0.0
2617,73.0,60.0,60.0,0.0,0.0
2618,60.0,0.0,60.0,0.0,0.0
2619,72.0,60.0,60.0,0.0,0.0
2620,56.0,0.0,60.0,0.0,0.0
2621,70.0,60.0,60.0,0.0,0.0
2622,60.0,0.0,60.0,0.0,0.0
2623,68.0,30.0,60.0,0.0,0.0
2624,72.0,30.0,30.0,0.0,0.0
2625,51.0,30.0,60.0,0.0,0.0
2626,70.0,0.0,30.0,0.0,0.0
2627,72.0,30.0,30.0,0.0,0.0
2628,61.0,0.0,60.0,0.0,0.0
2629,70.0,30.0,30.0,0.0,0.0
2630,72.0,30.0,30.0,0.0,0.0
2631,55.0,30.0,60.0,0.0,0.0
2632,70.0,0.0,30.0,0.0,0.0
2633,72.0,30.0,30.0,0.0,0.0
2634,61.0,30.0,60.0,0.0,0.0
2635,70.0,0.0,30.0,0.0,0.0
2636,72.0,30.0,30.0,0.0,0.0
2637,51.0,30.0,60.0,0.0,0.0
2638,70.0,0.0,30.0,0.0,0.0
2639,72.0,30.0,30.0,0.0,0.0
2640,61.0,0.0,60.0,0.0,0.0
2641,70.0,30.0,30.0,0.0,0.0
2642,55.0,0.0,60.0,0.0,0.0
2643,72.0,30.0,30.0,0.0,0.0
2644,70.0,30.0,30.0,0.0,0.0
2645,61.0,30.0,60.0,0.0,0.0
2646,72.0,30.0,30.0,0.0,0.0
2647,70.0,0.0,30.0,0.0,0.0
2648,51.0,0.0,60.0,0.0,0.0
2649,72.0,30.0,30.0,0.0,0.0
2650,70.0,30.0,30.0,0.0,0.0
2651,61.0,30.0,60.0,0.0,0.0
2652,72.0,30.0,30.0,0.0,0.0
2653,70.0,0.0,30.0,0.0,0.0
2654,55.0,30.0,60.0,0.0,0.0
2655,72.0,30.0,30.0,0.0,0.0
2656,70.0,0.0,30.0,0.0,0.0
2657,61.0,0.0,60.0,0.0,0.0
2658,72.0,30.0,30.0,0.0,0.0
2659,70.0,30.0,30.0,0.0,0.0
2660,51.0,30.0,60.0,0.0,0.0
2661,72.0,30.0,30.0,0.0,0.0
2662,70.0,0.0,30.0,0.0,0.0
2663,72.0,30.0,30.0,0.0,0.0
2664,61.0,30.0,60.0,0.0,0.0
2665,70.0,0.0,30.0,0.0,0.0
2666,72.0,30.0,30.0,0.0,0.0
2667,55.0,30.0,60.0,0.0,0.0
2668,70.0,0.0,30.0,0.0,0.0
2669,61.0,240.0,60.0,0.0,0.0
2670,68.0,30.0,30.0,0.0,0.0
2671,70.0,0.0,30.0,0.0,0.0
2672,68.0,60.0,240.0,0.0,0.0
2673,56.0,0.0,240.0,0.0,0.0
2674,60.0,0.0,240.0,0.0,0.0
2675,68.0,60.0,60.0,0.0,0.0
2676,63.0,60.0,60.0,0.0,0.0
2677,68.0,60.0,60.0,0.0,0.0
2678,72.0,60.0,60.0,0.0,0.0
2679,75.0,60.0,60.0,0.0,0.0
2680,72.0,60.0,60.0,0.0,0.0
2681,68.0,60.0,60.0,0.0,0.0
2682,72.0,60.0,60.0,0.0,0.0
2683,51.0,0.0,240.0,0.0,0.0
2684,58.0,0.0,240.0,0.0,0.0
2685,61.0,0.0,240.0,0.0,0.0
2686,73.0,60.0,60.0,0.0,0.0
2687,70.0,60.0,60.0,0.0,0.0
2688,67.0,60.0,60.0,0.0,0.0
2689,70.0,240.0,60.0,0.0,0.0
2690,56.0,60.0,240.0,0.0,0.0
2691,68.0,0.0,240.0,0.0,0.0
2692,60.0,0.0,240.0,0.0,0.0
2693,56.0,60.0,60.0,0.0,0.0
2694,51.0,60.0,60.0,0.0,0.0
2695,56.0,60.0,60.0,0.0,0.0
2696,60.0,60.0,60.0,0.0,0.0
2697,63.0,60.0,60.0,0.0,0.0
2698,60.0,60.0,60.0,0.0,0.0
2699,56.0,60.0,60.0,0.0,0.0
2700,60.0,60.0,60.0,0.0,0.0
2701,39.0,192.0,240.0,0.0,0.0
2702,46.0,0.0,240.0,0.0,0.0
2703,49.0,0.0,240.0,0.0,0.0
2704,61.0,60.0,60.0,0.0,0.0
2705,58.0,60.0,60.0,0.0,0.0
2706,55.0,60.0,60.0,0.0,0.0
2707,58.0,0.0,60.0,0.0,0.0
2708,48.0,0.0,180.0,0.0,0.0
2709,44.0,0.0,180.0,0.0,0.0
2710,56.0,240.0,180.0,0.0,0.0
2711,75.0,0.0,180.0,0.0,0.0
2712,80.0,192.0,240.0,0.0,0.0
2713,72.0,48.0,180.0,0.0,0.0
2714,44.0,0.0,180.0,0.0,0.0
2715,56.0,0.0,180.0,0.0,0.0
2716,68.0,0.0,180.0,0.0,0.0
2717,44.0,48.0,180.0,0.0,0.0
2718,32.0,2220.0,240.0,0.0,0.0
2719,51.0,60.0,60.0,0.0,0.0
2720,67.0,60.0,480.0,0.0,0.0
2721,58.0,60.0,60.0,0.0,0.0
2722,55.0,60.0,60.0,0.0,0.0
2723,58.0,60.0,60.0,0.0,0.0
2724,51.0,60.0,60.0,0.0,0.0
2725,58.0,60.0,60.0,0.0,0.0
2726,55.0,60.0,60.0,0.0,0.0
2727,58.0,0.0,60.0,0.0,0.0
2728,70.0,60.0,60.0,0.0,0.0
2729,53.0,0.0,60.0,0.0,0.0
2730,68.0,60.0,60.0,0.0,0.0
2731,58.0,0.0,60.0,0.0,0.0
2732,67.0,0.0,60.0,0.0,0.0
2733,56.0,60.0,60.0,0.0,0.0
2734,68.0,60.0,60.0,0.0,0.0
2735,58.0,0.0,60.0,0.0,0.0
2736,70.0,60.0,180.0,0.0,0.0
2737,51.0,60.0,60.0,0.0,0.0
2738,58.0,60.0,60.0,0.0,0.0
2739,55.0,0.0,60.0,0.0,0.0
2740,67.0,60.0,60.0,0.0,0.0
2741,58.0,0.0,60.0,0.0,0.0
2742,63.0,0.0,240.0,0.0,0.0
2743,51.0,60.0,60.0,0.0,0.0
2744,58.0,60.0,60.0,0.0,0.0
2745,55.0,60.0,60.0,0.0,0.0
2746,58.0,60.0,60.0,0.0,0.0
2747,51.0,60.0,60.0,0.0,0.0
2748,58.0,60.0,60.0,0.0,0.0
2749,55.0,60.0,60.0,0.0,0.0
2750,58.0,60.0,60.0,0.0,0.0
2751,75.0,0.0,360.0,0.0,0.0
2752,51.0,60.0,60.0,0.0,0.0
2753,60.0,60.0,60.0,0.0,0.0
2754,56.0,60.0,60.0,0.0,0.0
2755,60.0,60.0,60.0,0.0,0.0
2756,51.0,60.0,60.0,0.0,0.0
2757,60.0,60.0,60.0,0.0,0.0
2758,77.0,0.0,60.0,0.0,0.0
2759,56.0,60.0,60.0,0.0,0.0
2760,60.0,60.0,60.0,0.0,0.0
2761,75.0,0.0,60.0,0.0,0.0
2762,51.0,60.0,60.0,0.0,0.0
2763,74.0,0.0,60.0,0.0,0.0
2764,57.0,60.0,60.0,0.0,0.0
2765,72.0,0.0,60.0,0.0,0.0
2766,70.0,60.0,60.0,0.0,0.0
2767,54.0,0.0,60.0,0.0,0.0
2768,69.0,60.0,60.0,0.0,0.0
2769,57.0,0.0,60.0,0.0,0.0
2770,70.0,60.0,180.0,0.0,0.0
2771,51.0,60.0,60.0,0.0,0.0
2772,58.0,60.0,60.0,0.0,0.0
2773,55.0,0.0,60.0,0.0,0.0
2774,58.0,60.0,60.0,0.0,0.0
2775,67.0,0.0,60.0,0.0,0.0
2776,51.0,60.0,60.0,0.0,0.0
2777,63.0,0.0,240.0,0.0,0.0
2778,58.0,60.0,60.0,0.0,0.0
2779,55.0,60.0,60.0,0.0,0.0
2780,58.0,60.0,60.0,0.0,0.0
2781,51.0,60.0,60.0,0.0,0.0
2782,58.0,60.0,60.0,0.0,0.0
2783,55.0,60.0,60.0,0.0,0.0
2784,58.0,60.0,60.0,0.0,0.0
2785,53.0,60.0,60.0,0.0,0.0
2786,68.0,0.0,180.0,0.0,0.0
2787,58.0,60.0,60.0,0.0,0.0
2788,56.0,60.0,60.0,0.0,0.0
2789,58.0,60.0,60.0,0.0,0.0
2790,65.0,0.0,60.0,0.0,0.0
2791,53.0,60.0,60.0,0.0,0.0
2792,62.0,0.0,120.0,0.0,0.0
2793,58.0,60.0,60.0,0.0,0.0
2794,56.0,60.0,60.0,0.0,0.0
2795,65.0,0.0,120.0,0.0,0.0
2796,58.0,60.0,60.0,0.0,0.0
2797,53.0,60.0,60.0,0.0,0.0
2798,67.0,0.0,120.0,0.0,0.0
2799,58.0,60.0,60.0,0.0,0.0
2800,56.0,60.0,60.0,0.0,0.0
2801,68.0,0.0,120.0,0.0,0.0
2802,58.0,60.0,60.0,0.0,0.0
2803,51.0,60.0,60.0,0.0,0.0
2804,70.0,60.0,180.0,0.0,0.0
2805,58.0,60.0,60.0,0.0,0.0
2806,55.0,0.0,60.0,0.0,0.0
2807,67.0,0.0,60.0,0.0,0.0
2808,58.0,60.0,60.0,0.0,0.0
2809,75.0,0.0,240.0,0.0,0.0
2810,48.0,60.0,60.0,0.0,0.0
2811,55.0,60.0,60.0,0.0,0.0
2812,51.0,60.0,60.0,0.0,0.0
2813,55.0,60.0,60.0,0.0,0.0
2814,43.0,60.0,60.0,0.0,0.0
2815,51.0,60.0,60.0,0.0,0.0
2816,46.0,60.0,60.0,0.0,0.0
2817,51.0,60.0,60.0,0.0,0.0
2818,48.0,60.0,240.0,0.0,0.0
2819,44.0,0.0,480.0,0.0,0.0
2820,77.0,60.0,60.0,0.0,0.0
2821,75.0,60.0,60.0,0.0,0.0
2822,74.0,60.0,60.0,0.0,0.0
2823,75.0,0.0,60.0,0.0,0.0
2824,74.0,60.0,60.0,0.0,0.0
2825,72.0,60.0,60.0,0.0,0.0
2826,71.0,60.0,60.0,0.0,0.0
2827,72.0,60.0,60.0,0.0,0.0
2828,48.0,0.0,240.0,0.0,0.0
2829,70.0,60.0,60.0,0.0,0.0
2830,68.0,60.0,60.0,0.0,0.0
2831,67.0,60.0,60.0,0.0,0.0
2832,68.0,0.0,60.0,0.0,0.0
2833,51.0,180.0,15.0,0.0,0.0
2834,67.0,30.0,180.0,0.0,0.0
2835,46.0,0.0,480.0,0.0,0.0
2836,68.0,30.0,30.0,0.0,0.0
2837,67.0,120.0,30.0,0.0,0.0
2838,50.0,120.0,240.0,0.0,0.0
2839,65.0,120.0,120.0,0.0,0.0
2840,70.0,0.0,120.0,0.0,0.0
2841,69.0,120.0,120.0,0.0,0.0
2842,68.0,60.0,120.0,0.0,0.0
2843,51.0,60.0,60.0,0.0,0.0
2844,67.0,60.0,300.0,0.0,0.0
2845,58.0,60.0,60.0,0.0,0.0
2846,55.0,60.0,60.0,0.0,0.0
2847,58.0,60.0,60.0,0.0,0.0
2848,51.0,0.0,60.0,0.0,0.0
2849,63.0,60.0,60.0,0.0,0.0
2850,58.0,0.0,60.0,0.0,0.0
2851,67.0,60.0,60.0,0.0,0.0
2852,55.0,0.0,60.0,0.0,0.0
2853,70.0,60.0,60.0,0.0,0.0
2854,58.0,0.0,60.0,0.0,0.0
2855,53.0,60.0,60.0,0.0,0.0
2856,68.0,0.0,60.0,0.0,0.0
2857,65.0,60.0,60.0,0.0,0.0
2858,58.0,0.0,60.0,0.0,0.0
2859,68.0,60.0,60.0,0.0,0.0
2860,56.0,0.0,60.0,0.0,0.0
2861,58.0,0.0,60.0,0.0,0.0
2862,72.0,60.0,60.0,0.0,0.0
2863,70.0,0.0,180.0,0.0,0.0
2864,51.0,60.0,60.0,0.0,0.0
2865,58.0,60.0,60.0,0.0,0.0
2866,55.0,60.0,60.0,0.0,0.0
2867,58.0,60.0,60.0,0.0,0.0
2868,67.0,0.0,60.0,0.0,0.0
2869,51.0,60.0,60.0,0.0,0.0
2870,58.0,60.0,60.0,0.0,0.0
2871,63.0,0.0,15.0,0.0,0.0
2872,55.0,0.0,60.0,0.0,0.0
2873,65.0,60.0,60.0,0.0,0.0
2874,58.0,60.0,60.0,0.0,0.0
2875,67.0,0.0,60.0,0.0,0.0
2876,51.0,60.0,60.0,0.0,0.0
2877,68.0,0.0,60.0,0.0,0.0
2878,58.0,60.0,60.0,0.0,0.0
2879,70.0,0.0,60.0,0.0,0.0
2880,55.0,0.0,60.0,0.0,0.0
2881,72.0,60.0,60.0,0.0,0.0
2882,74.0,60.0,60.0,0.0,0.0
2883,58.0,0.0,60.0,0.0,0.0
2884,51.0,0.0,60.0,0.0,0.0
2885,75.0,60.0,60.0,0.0,0.0
2886,74.0,60.0,60.0,0.0,0.0
2887,60.0,0.0,60.0,0.0,0.0
2888,56.0,60.0,60.0,0.0,0.0
2889,75.0,0.0,60.0,0.0,0.0
2890,60.0,60.0,60.0,0.0,0.0
2891,74.0,0.0,60.0,0.0,0.0
2892,51.0,60.0,60.0,0.0,0.0
2893,77.0,0.0,60.0,0.0,0.0
2894,75.0,0.0,60.0,0.0,0.0
2895,60.0,60.0,60.0,0.0,0.0
2896,56.0,60.0,60.0,0.0,0.0
2897,74.0,0.0,60.0,0.0,0.0
2898,75.0,60.0,60.0,0.0,0.0
2899,60.0,0.0,60.0,0.0,0.0
2900,74.0,0.0,60.0,0.0,0.0
2901,51.0,60.0,60.0,0.0,0.0
2902,72.0,0.0,60.0,0.0,0.0
2903,57.0,60.0,60.0,0.0,0.0
2904,70.0,60.0,60.0,0.0,0.0
2905,54.0,0.0,60.0,0.0,0.0
2906,57.0,60.0,60.0,0.0,0.0
2907,69.0,0.0,60.0,0.0,0.0
2908,51.0,60.0,60.0,0.0,0.0
2909,70.0,0.0,60.0,0.0,0.0
2910,67.0,60.0,60.0,0.0,0.0
2911,58.0,0.0,60.0,0.0,0.0
2912,55.0,0.0,60.0,0.0,0.0
2913,70.0,60.0,60.0,0.0,0.0
2914,58.0,60.0,60.0,0.0,0.0
2915,67.0,0.0,60.0,0.0,0.0
2916,51.0,60.0,60.0,0.0,0.0
2917,63.0,0.0,240.0,0.0,0.0
2918,58.0,60.0,60.0,0.0,0.0
2919,55.0,60.0,60.0,0.0,0.0
2920,58.0,60.0,60.0,0.0,0.0
2921,51.0,60.0,60.0,0.0,0.0
2922,58.0,60.0,60.0,0.0,0.0
2923,55.0,60.0,60.0,0.0,0.0
2924,58.0,60.0,60.0,0.0,0.0
2925,53.0,60.0,60.0,0.0,0.0
2926,68.0,0.0,60.0,0.0,0.0
2927,58.0,0.0,60.0,0.0,0.0
2928,65.0,60.0,60.0,0.0,0.0
2929,56.0,60.0,60.0,0.0,0.0
2930,68.0,0.0,60.0,0.0,0.0
2931,58.0,60.0,60.0,0.0,0.0
2932,65.0,0.0,60.0,0.0,0.0
2933,53.0,60.0,60.0,0.0,0.0
2934,62.0,0.0,60.0,0.0,0.0
2935,65.0,60.0,60.0,0.0,0.0
2936,58.0,0.0,60.0,0.0,0.0
2937,64.0,0.0,60.0,0.0,0.0
2938,56.0,60.0,60.0,0.0,0.0
2939,65.0,60.0,60.0,0.0,0.0
2940,58.0,0.0,60.0,0.0,0.0
2941,66.0,0.0,60.0,0.0,0.0
2942,53.0,60.0,60.0,0.0,0.0
2943,67.0,0.0,60.0,0.0,0.0
2944,58.0,60.0,60.0,0.0,0.0
2945,68.0,60.0,60.0,0.0,0.0
2946,56.0,0.0,60.0,0.0,0.0
2947,69.0,60.0,60.0,0.0,0.0
2948,58.0,0.0,60.0,0.0,0.0
2949,51.0,0.0,60.0,0.0,0.0
2950,70.0,60.0,60.0,0.0,0.0
2951,67.0,60.0,60.0,0.0,0.0
2952,58.0,0.0,60.0,0.0,0.0
2953,70.0,0.0,60.0,0.0,0.0
2954,55.0,60.0,60.0,0.0,0.0
2955,58.0,60.0,60.0,0.0,0.0
2956,67.0,0.0,60.0,0.0,0.0
2957,48.0,60.0,60.0,0.0,0.0
2958,75.0,0.0,240.0,0.0,0.0
2959,55.0,60.0,60.0,0.0,0.0
2960,51.0,60.0,60.0,0.0,0.0
2961,55.0,60.0,60.0,0.0,0.0
2962,43.0,60.0,60.0,0.0,0.0
2963,51.0,60.0,60.0,0.0,0.0
2964,79.0,0.0,60.0,0.0,0.0
2965,46.0,60.0,60.0,0.0,0.0
2966,74.0,0.0,60.0,0.0,0.0
2967,75.0,0.0,60.0,0.0,0.0
2968,51.0,60.0,60.0,0.0,0.0
2969,71.0,60.0,60.0,0.0,0.0
2970,44.0,0.0,60.0,0.0,0.0
2971,72.0,60.0,60.0,0.0,0.0
2972,53.0,0.0,60.0,0.0,0.0
2973,68.0,60.0,60.0,0.0,0.0
2974,48.0,0.0,60.0,0.0,0.0
2975,65.0,0.0,60.0,0.0,0.0
2976,53.0,60.0,60.0,0.0,0.0
2977,46.0,60.0,60.0,0.0,0.0
2978,63.0,0.0,180.0,0.0,0.0
2979,55.0,60.0,60.0,0.0,0.0
2980,51.0,60.0,60.0,0.0,0.0
2981,63.0,0.0,60.0,0.0,0.0
2982,55.0,60.0,60.0,0.0,0.0
2983,67.0,60.0,60.0,0.0,0.0
2984,62.0,0.0,240.0,0.0,0.0
2985,46.0,0.0,60.0,0.0,0.0
2986,65.0,60.0,60.0,0.0,0.0
2987,56.0,0.0,60.0,0.0,0.0
2988,53.0,60.0,60.0,0.0,0.0
2989,63.0,0.0,60.0,0.0,0.0
2990,62.0,0.0,240.0,0.0,0.0
2991,65.0,0.0,15.0,0.0,0.0
2992,51.0,300.0,480.0,0.0,0.0
2993,56.0,240.0,15.0,0.0,0.0
2994,63.0,0.0,240.0,0.0,0.0
2995,55.0,0.0,240.0,0.0,0.0
2996,51.0,60.0,60.0,0.0,0.0
2997,67.0,60.0,480.0,0.0,0.0
2998,58.0,60.0,60.0,0.0,0.0
2999,55.0,60.0,60.0,0.0,0.0
3000,58.0,60.0,60.0,0.0,0.0
3001,51.0,60.0,60.0,0.0,0.0
3002,58.0,60.0,60.0,0.0,0.0
3003,55.0,60.0,60.0,0.0,0.0
3004,58.0,0.0,60.0,0.0,0.0
3005,53.0,60.0,60.0,0.0,0.0
3006,70.0,0.0,60.0,0.0,0.0
3007,58.0,60.0,60.0,0.0,0.0
3008,68.0,0.0,60.0,0.0,0.0
3009,56.0,60.0,60.0,0.0,0.0
3010,67.0,0.0,60.0,0.0,0.0
3011,58.0,0.0,60.0,0.0,0.0
3012,68.0,60.0,60.0,0.0,0.0
3013,70.0,60.0,180.0,0.0,0.0
3014,51.0,60.0,60.0,0.0,0.0
3015,58.0,60.0,60.0,0.0,0.0
3016,55.0,0.0,60.0,0.0,0.0
3017,67.0,60.0,60.0,0.0,0.0
3018,58.0,0.0,60.0,0.0,0.0
3019,63.0,60.0,240.0,0.0,0.0
3020,51.0,60.0,60.0,0.0,0.0
3021,58.0,60.0,60.0,0.0,0.0
3022,55.0,60.0,60.0,0.0,0.0
3023,58.0,0.0,60.0,0.0,0.0
3024,51.0,60.0,60.0,0.0,0.0
3025,58.0,60.0,60.0,0.0,0.0
3026,55.0,60.0,60.0,0.0,0.0
3027,58.0,60.0,60.0,0.0,0.0
3028,75.0,0.0,360.0,0.0,0.0
3029,51.0,60.0,60.0,0.0,0.0
3030,60.0,60.0,60.0,0.0,0.0
3031,56.0,60.0,60.0,0.0,0.0
3032,60.0,60.0,60.0,0.0,0.0
3033,51.0,60.0,60.0,0.0,0.0
3034,60.0,60.0,60.0,0.0,0.0
3035,56.0,60.0,60.0,0.0,0.0
3036,77.0,0.0,60.0,0.0,0.0
3037,60.0,0.0,60.0,0.0,0.0
3038,75.0,60.0,60.0,0.0,0.0
3039,51.0,60.0,60.0,0.0,0.0
3040,74.0,0.0,60.0,0.0,0.0
3041,57.0,60.0,60.0,0.0,0.0
3042,72.0,0.0,60.0,0.0,0.0
3043,54.0,60.0,60.0,0.0,0.0
3044,70.0,0.0,60.0,0.0,0.0
3045,57.0,0.0,60.0,0.0,0.0
3046,69.0,60.0,60.0,0.0,0.0
3047,70.0,60.0,180.0,0.0,0.0
3048,51.0,60.0,60.0,0.0,0.0
3049,58.0,60.0,60.0,0.0,0.0
3050,55.0,0.0,60.0,0.0,0.0
3051,67.0,60.0,60.0,0.0,0.0
3052,58.0,0.0,60.0,0.0,0.0
3053,63.0,0.0,240.0,0.0,0.0
3054,51.0,60.0,60.0,0.0,0.0
3055,58.0,60.0,60.0,0.0,0.0
3056,55.0,60.0,60.0,0.0,0.0
3057,58.0,60.0,60.0,0.0,0.0
3058,51.0,60.0,60.0,0.0,0.0
3059,58.0,60.0,60.0,0.0,0.0
3060,55.0,60.0,60.0,0.0,0.0
3061,58.0,60.0,60.0,0.0,0.0
3062,68.0,60.0,180.0,0.0,0.0
3063,53.0,60.0,60.0,0.0,0.0
3064,58.0,60.0,60.0,0.0,0.0
3065,56.0,0.0,60.0,0.0,0.0
3066,65.0,0.0,60.0,0.0,0.0
3067,58.0,60.0,60.0,0.0,0.0
3068,53.0,60.0,60.0,0.0,0.0
3069,62.0,60.0,120.0,0.0,0.0
3070,58.0,0.0,60.0,0.0,0.0
3071,65.0,0.0,120.0,0.0,0.0
3072,56.0,60.0,60.0,0.0,0.0
3073,58.0,60.0,60.0,0.0,0.0
3074,67.0,60.0,120.0,0.0,0.0
3075,53.0,60.0,60.0,0.0,0.0
3076,58.0,0.0,60.0,0.0,0.0
3077,56.0,60.0,60.0,0.0,0.0
3078,68.0,60.0,120.0,0.0,0.0
3079,58.0,0.0,60.0,0.0,0.0
3080,51.0,60.0,60.0,0.0,0.0
3081,70.0,0.0,180.0,0.0,0.0
3082,58.0,60.0,60.0,0.0,0.0
3083,55.0,60.0,60.0,0.0,0.0
3084,58.0,0.0,60.0,0.0,0.0
3085,67.0,60.0,60.0,0.0,0.0
3086,75.0,0.0,240.0,0.0,0.0
3087,48.0,60.0,60.0,0.0,0.0
3088,55.0,60.0,60.0,0.0,0.0
3089,51.0,60.0,60.0,0.0,0.0
3090,55.0,60.0,60.0,0.0,0.0
3091,43.0,60.0,60.0,0.0,0.0
3092,51.0,60.0,60.0,0.0,0.0
3093,46.0,60.0,60.0,0.0,0.0
3094,51.0,60.0,60.0,0.0,0.0
3095,48.0,0.0,240.0,0.0,0.0
3096,77.0,60.0,60.0,0.0,0.0
3097,44.0,0.0,480.0,0.0,0.0
3098,75.0,60.0,60.0,0.0,0.0
3099,74.0,60.0,60.0,0.0,0.0
3100,75.0,60.0,60.0,0.0,0.0
3101,74.0,60.0,60.0,0.0,0.0
3102,51.0,0.0,480.0,0.0,0.0
3103,72.0,60.0,60.0,0.0,0.0
3104,71.0,60.0,60.0,0.0,0.0
3105,72.0,60.0,60.0,0.0,0.0
3106,70.0,60.0,60.0,0.0,0.0
3107,48.0,180.0,240.0,0.0,0.0
3108,68.0,60.0,60.0,0.0,0.0
3109,67.0,60.0,60.0,0.0,0.0
3110,68.0,0.0,60.0,0.0,0.0
3111,67.0,30.0,180.0,0.0,0.0
3112,46.0,0.0,480.0,0.0,0.0
3113,51.0,120.0,240.0,0.0,0.0
3114,68.0,30.0,30.0,0.0,0.0
3115,67.0,0.0,30.0,0.0,0.0
3116,65.0,120.0,120.0,0.0,0.0
3117,50.0,0.0,240.0,0.0,0.0
3118,70.0,120.0,120.0,0.0,0.0
3119,69.0,120.0,120.0,0.0,0.0
3120,68.0,60.0,120.0,0.0,0.0
3121,67.0,0.0,300.0,0.0,0.0
3122,51.0,60.0,60.0,0.0,0.0
3123,58.0,60.0,60.0,0.0,0.0
3124,55.0,60.0,60.0,0.0,0.0
3125,58.0,60.0,60.0,0.0,0.0
3126,51.0,60.0,60.0,0.0,0.0
3127,63.0,0.0,60.0,0.0,0.0
3128,58.0,60.0,60.0,0.0,0.0
3129,55.0,60.0,60.0,0.0,0.0
3130,67.0,0.0,60.0,0.0,0.0
3131,58.0,60.0,60.0,0.0,0.0
3132,70.0,0.0,60.0,0.0,0.0
3133,53.0,60.0,60.0,0.0,0.0
3134,68.0,0.0,60.0,0.0,0.0
3135,58.0,60.0,60.0,0.0,0.0
3136,65.0,0.0,60.0,0.0,0.0
3137,56.0,60.0,60.0,0.0,0.0
3138,68.0,0.0,60.0,0.0,0.0
3139,58.0,60.0,60.0,0.0,0.0
3140,72.0,0.0,60.0,0.0,0.0
3141,51.0,60.0,60.0,0.0,0.0
3142,70.0,60.0,180.0,0.0,0.0
3143,58.0,60.0,60.0,0.0,0.0
3144,55.0,0.0,60.0,0.0,0.0
3145,67.0,60.0,60.0,0.0,0.0
3146,58.0,0.0,60.0,0.0,0.0
3147,63.0,0.0,60.0,0.0,0.0
3148,51.0,60.0,60.0,0.0,0.0
3149,63.0,0.0,60.0,0.0,0.0
3150,58.0,60.0,60.0,0.0,0.0
3151,55.0,60.0,60.0,0.0,0.0
3152,65.0,0.0,60.0,0.0,0.0
3153,67.0,0.0,60.0,0.0,0.0
3154,58.0,60.0,60.0,0.0,0.0
3155,51.0,0.0,60.0,0.0,0.0
3156,68.0,60.0,60.0,0.0,0.0
3157,70.0,60.0,60.0,0.0,0.0
3158,58.0,0.0,60.0,0.0,0.0
3159,72.0,60.0,60.0,0.0,0.0
3160,55.0,0.0,60.0,0.0,0.0
3161,74.0,0.0,60.0,0.0,0.0
3162,58.0,60.0,60.0,0.0,0.0
3163,51.0,60.0,60.0,0.0,0.0
3164,75.0,0.0,60.0,0.0,0.0
3165,60.0,60.0,60.0,0.0,0.0
3166,74.0,0.0,60.0,0.0,0.0
3167,56.0,60.0,60.0,0.0,0.0
3168,75.0,0.0,60.0,0.0,0.0
3169,60.0,60.0,60.0,0.0,0.0
3170,74.0,0.0,60.0,0.0,0.0
3171,77.0,0.0,60.0,0.0,0.0
3172,51.0,60.0,60.0,0.0,0.0
3173,60.0,60.0,60.0,0.0,0.0
3174,75.0,0.0,60.0,0.0,0.0
3175,56.0,60.0,60.0,0.0,0.0
3176,74.0,0.0,60.0,0.0,0.0
3177,60.0,0.0,60.0,0.0,0.0
3178,75.0,60.0,60.0,0.0,0.0
3179,51.0,60.0,60.0,0.0,0.0
3180,74.0,0.0,60.0,0.0,0.0
3181,57.0,60.0,60.0,0.0,0.0
3182,72.0,0.0,60.0,0.0,0.0
3183,54.0,60.0,60.0,0.0,0.0
3184,70.0,0.0,60.0,0.0,0.0
3185,69.0,60.0,60.0,0.0,0.0
3186,57.0,0.0,60.0,0.0,0.0
3187,70.0,60.0,60.0,0.0,0.0
3188,51.0,0.0,60.0,0.0,0.0
3189,58.0,0.0,60.0,0.0,0.0
3190,67.0,60.0,60.0,0.0,0.0
3191,70.0,60.0,60.0,0.0,0.0
3192,55.0,0.0,60.0,0.0,0.0
3193,58.0,60.0,60.0,0.0,0.0
3194,67.0,0.0,60.0,0.0,0.0
3195,51.0,60.0,60.0,0.0,0.0
3196,63.0,0.0,240.0,0.0,0.0
3197,58.0,60.0,60.0,0.0,0.0
3198,55.0,60.0,60.0,0.0,0.0
3199,58.0,60.0,60.0,0.0,0.0
3200,51.0,60.0,60.0,0.0,0.0
3201,58.0,60.0,60.0,0.0,0.0
3202,55.0,60.0,60.0,0.0,0.0
3203,58.0,60.0,60.0,0.0,0.0
3204,53.0,60.0,60.0,0.0,0.0
3205,68.0,0.0,60.0,0.0,0.0
3206,58.0,60.0,60.0,0.0,0.0
3207,65.0,0.0,60.0,0.0,0.0
3208,56.0,60.0,60.0,0.0,0.0
3209,68.0,0.0,60.0,0.0,0.0
3210,58.0,60.0,60.0,0.0,0.0
3211,65.0,0.0,60.0,0.0,0.0
3212,53.0,0.0,60.0,0.0,0.0
3213,62.0,60.0,60.0,0.0,0.0
3214,58.0,60.0,60.0,0.0,0.0
3215,65.0,0.0,60.0,0.0,0.0
3216,56.0,60.0,60.0,0.0,0.0
3217,64.0,0.0,60.0,0.0,0.0
3218,58.0,60.0,60.0,0.0,0.0
3219,65.0,0.0,60.0,0.0,0.0
3220,66.0,60.0,60.0,0.0,0.0
3221,53.0,0.0,60.0,0.0,0.0
3222,67.0,60.0,60.0,0.0,0.0
3223,58.0,0.0,60.0,0.0,0.0
3224,68.0,60.0,60.0,0.0,0.0
3225,56.0,0.0,60.0,0.0,0.0
3226,69.0,60.0,60.0,0.0,0.0
3227,58.0,0.0,60.0,0.0,0.0
3228,70.0,0.0,60.0,0.0,0.0
3229,51.0,60.0,60.0,0.0,0.0
3230,58.0,60.0,60.0,0.0,0.0
3231,67.0,0.0,60.0,0.0,0.0
3232,55.0,60.0,60.0,0.0,0.0
3233,70.0,0.0,60.0,0.0,0.0
3234,67.0,60.0,60.0,0.0,0.0
3235,58.0,0.0,60.0,0.0,0.0
3236,75.0,60.0,240.0,0.0,0.0
3237,48.0,60.0,60.0,0.0,0.0
3238,55.0,60.0,60.0,0.0,0.0
3239,51.0,60.0,60.0,0.0,0.0
3240,55.0,0.0,60.0,0.0,0.0
3241,43.0,60.0,60.0,0.0,0.0
3242,51.0,0.0,60.0,0.0,0.0
3243,79.0,60.0,60.0,0.0,0.0
3244,46.0,60.0,60.0,0.0,0.0
3245,74.0,0.0,60.0,0.0,0.0
3246,75.0,60.0,60.0,0.0,0.0
3247,51.0,0.0,60.0,0.0,0.0
3248,71.0,60.0,60.0,0.0,0.0
3249,44.0,0.0,60.0,0.0,0.0
3250,72.0,60.0,60.0,0.0,0.0
3251,53.0,0.0,60.0,0.0,0.0
3252,68.0,60.0,60.0,0.0,0.0
3253,48.0,0.0,60.0,0.0,0.0
3254,53.0,60.0,60.0,0.0,0.0
3255,65.0,0.0,60.0,0.0,0.0
3256,46.0,60.0,60.0,0.0,0.0
3257,55.0,60.0,60.0,0.0,0.0
3258,51.0,0.0,60.0,0.0,0.0
3259,63.0,60.0,15.0,0.0,0.0
3260,55.0,0.0,60.0,0.0,0.0
3261,46.0,60.0,60.0,0.0,0.0
3262,67.0,0.0,60.0,0.0,0.0
3263,56.0,60.0,60.0,0.0,0.0
3264,65.0,0.0,60.0,0.0,0.0
3265,53.0,60.0,60.0,0.0,0.0
3266,63.0,0.0,60.0,0.0,0.0
3267,56.0,240.0,15.0,0.0,0.0
3268,51.0,0.0,480.0,0.0,0.0
3269,65.0,0.0,15.0,0.0,0.0
3270,62.0,0.0,15.0,0.0,0.0
3271,55.0,300.0,240.0,0.0,0.0
3272,63.0,0.0,240.0,0.0,0.0
3273,70.0,60.0,300.0,0.0,0.0
3274,58.0,60.0,60.0,0.0,0.0
3275,65.0,60.0,60.0,0.0,0.0
3276,62.0,60.0,60.0,0.0,0.0
3277,65.0,60.0,60.0,0.0,0.0
3278,58.0,0.0,60.0,0.0,0.0
3279,69.0,0.0,60.0,0.0,0.0
3280,65.0,60.0,60.0,0.0,0.0
3281,72.0,60.0,60.0,0.0,0.0
3282,62.0,0.0,60.0,0.0,0.0
3283,70.0,60.0,60.0,0.0,0.0
3284,65.0,0.0,60.0,0.0,0.0
3285,75.0,60.0,60.0,0.0,0.0
3286,58.0,0.0,60.0,0.0,0.0
3287,74.0,60.0,60.0,0.0,0.0
3288,65.0,0.0,60.0,0.0,0.0
3289,62.0,0.0,60.0,0.0,0.0
3290,72.0,60.0,60.0,0.0,0.0
3291,65.0,60.0,60.0,0.0,0.0
3292,70.0,0.0,60.0,0.0,0.0
3293,60.0,60.0,60.0,0.0,0.0
3294,69.0,60.0,180.0,0.0,0.0
3295,65.0,60.0,60.0,0.0,0.0
3296,63.0,0.0,60.0,0.0,0.0
3297,70.0,60.0,60.0,0.0,0.0
3298,65.0,0.0,60.0,0.0,0.0
3299,60.0,60.0,60.0,0.0,0.0
3300,72.0,0.0,240.0,0.0,0.0
3301,65.0,60.0,60.0,0.0,0.0
3302,63.0,60.0,60.0,0.0,0.0
3303,65.0,60.0,60.0,0.0,0.0
3304,60.0,60.0,60.0,0.0,0.0
3305,65.0,60.0,60.0,0.0,0.0
3306,63.0,60.0,60.0,0.0,0.0
3307,65.0,60.0,60.0,0.0,0.0
3308,72.0,0.0,300.0,0.0,0.0
3309,57.0,60.0,60.0,0.0,0.0
3310,65.0,60.0,60.0,0.0,0.0
3311,63.0,60.0,60.0,0.0,0.0
3312,65.0,60.0,60.0,0.0,0.0
3313,57.0,60.0,60.0,0.0,0.0
3314,65.0,60.0,60.0,0.0,0.0
3315,71.0,0.0,60.0,0.0,0.0
3316,63.0,60.0,60.0,0.0,0.0
3317,74.0,0.0,60.0,0.0,0.0
3318,72.0,0.0,60.0,0.0,0.0
3319,65.0,60.0,60.0,0.0,0.0
3320,57.0,60.0,60.0,0.0,0.0
3321,77.0,0.0,60.0,0.0,0.0
3322,75.0,60.0,60.0,0.0,0.0
3323,65.0,0.0,60.0,0.0,0.0
3324,74.0,0.0,60.0,0.0,0.0
3325,63.0,60.0,60.0,0.0,0.0
3326,72.0,0.0,60.0,0.0,0.0
3327,65.0,60.0,60.0,0.0,0.0
3328,70.0,0.0,180.0,0.0,0.0
3329,58.0,60.0,60.0,0.0,0.0
3330,65.0,60.0,60.0,0.0,0.0
3331,62.0,60.0,60.0,0.0,0.0
3332,65.0,60.0,60.0,0.0,0.0
3333,72.0,0.0,60.0,0.0,0.0
3334,74.0,0.0,240.0,0.0,0.0
3335,57.0,60.0,60.0,0.0,0.0
3336,65.0,60.0,60.0,0.0,0.0
3337,58.0,60.0,60.0,0.0,0.0
3338,65.0,60.0,60.0,0.0,0.0
3339,55.0,60.0,60.0,0.0,0.0
3340,63.0,60.0,60.0,0.0,0.0
3341,58.0,60.0,60.0,0.0,0.0
3342,63.0,60.0,60.0,0.0,0.0
3343,53.0,60.0,60.0,0.0,0.0
3344,74.0,0.0,300.0,0.0,0.0
3345,62.0,60.0,60.0,0.0,0.0
3346,58.0,60.0,60.0,0.0,0.0
3347,62.0,60.0,60.0,0.0,0.0
3348,51.0,60.0,60.0,0.0,0.0
3349,60.0,60.0,60.0,0.0,0.0
3350,72.0,0.0,60.0,0.0,0.0
3351,57.0,0.0,60.0,0.0,0.0
3352,75.0,60.0,60.0,0.0,0.0
3353,74.0,60.0,60.0,0.0,0.0
3354,60.0,0.0,60.0,0.0,0.0
3355,79.0,60.0,60.0,0.0,0.0
3356,50.0,0.0,60.0,0.0,0.0
3357,77.0,60.0,60.0,0.0,0.0
3358,58.0,0.0,60.0,0.0,0.0
3359,75.0,0.0,60.0,0.0,0.0
3360,53.0,60.0,60.0,0.0,0.0
3361,58.0,60.0,60.0,0.0,0.0
3362,74.0,0.0,60.0,0.0,0.0
3363,72.0,60.0,300.0,0.0,0.0
3364,55.0,60.0,60.0,0.0,0.0
3365,63.0,60.0,60.0,0.0,0.0
3366,60.0,60.0,60.0,0.0,0.0
3367,63.0,60.0,60.0,0.0,0.0
3368,53.0,0.0,60.0,0.0,0.0
3369,71.0,60.0,60.0,0.0,0.0
3370,62.0,0.0,60.0,0.0,0.0
3371,74.0,0.0,60.0,0.0,0.0
3372,59.0,60.0,60.0,0.0,0.0
3373,62.0,60.0,60.0,0.0,0.0
3374,72.0,0.0,60.0,0.0,0.0
3375,51.0,60.0,60.0,0.0,0.0
3376,77.0,0.0,60.0,0.0,0.0
3377,60.0,60.0,60.0,0.0,0.0
3378,75.0,0.0,60.0,0.0,0.0
3379,55.0,0.0,60.0,0.0,0.0
3380,74.0,60.0,60.0,0.0,0.0
3381,60.0,60.0,60.0,0.0,0.0
3382,53.0,60.0,60.0,0.0,0.0
3383,72.0,0.0,15.0,0.0,0.0
3384,62.0,60.0,60.0,0.0,0.0
3385,70.0,0.0,15.0,0.0,0.0
3386,58.0,60.0,60.0,0.0,0.0
3387,62.0,60.0,60.0,0.0,0.0
3388,53.0,0.0,60.0,0.0,0.0
3389,65.0,60.0,60.0,0.0,0.0
3390,62.0,0.0,60.0,0.0,0.0
3391,70.0,60.0,60.0,0.0,0.0
3392,58.0,0.0,60.0,0.0,0.0
3393,62.0,60.0,60.0,0.0,0.0
3394,53.0,60.0,60.0,0.0,0.0
3395,74.0,0.0,15.0,0.0,0.0
3396,69.0,0.0,240.0,0.0,0.0
3397,63.0,60.0,60.0,0.0,0.0
3398,72.0,0.0,60.0,0.0,0.0
3399,70.0,0.0,60.0,0.0,0.0
3400,60.0,60.0,60.0,0.0,0.0
3401,63.0,0.0,60.0,0.0,0.0
3402,69.0,60.0,240.0,0.0,0.0
3403,72.0,240.0,15.0,0.0,0.0
3404,58.0,0.0,480.0,0.0,0.0
3405,63.0,0.0,240.0,0.0,0.0
3406,70.0,60.0,60.0,0.0,0.0
3407,62.0,0.0,240.0,0.0,0.0
3408,71.0,60.0,60.0,0.0,0.0
3409,72.0,60.0,60.0,0.0,0.0
3410,71.0,60.0,60.0,0.0,0.0
3411,74.0,60.0,60.0,0.0,0.0
3412,72.0,60.0,60.0,0.0,0.0
3413,70.0,60.0,60.0,0.0,0.0
3414,68.0,60.0,60.0,0.0,0.0
3415,67.0,0.0,300.0,0.0,0.0
3416,51.0,60.0,60.0,0.0,0.0
3417,58.0,60.0,60.0,0.0,0.0
3418,55.0,60.0,60.0,0.0,0.0
3419,58.0,60.0,60.0,0.0,0.0
3420,51.0,60.0,60.0,0.0,0.0
3421,58.0,60.0,60.0,0.0,0.0
3422,63.0,0.0,60.0,0.0,0.0
3423,55.0,60.0,60.0,0.0,0.0
3424,67.0,0.0,60.0,0.0,0.0
3425,70.0,0.0,60.0,0.0,0.0
3426,58.0,60.0,60.0,0.0,0.0
3427,53.0,60.0,60.0,0.0,0.0
3428,68.0,0.0,60.0,0.0,0.0
3429,58.0,60.0,60.0,0.0,0.0
3430,65.0,0.0,60.0,0.0,0.0
3431,56.0,60.0,60.0,0.0,0.0
3432,68.0,0.0,60.0,0.0,0.0
3433,72.0,0.0,60.0,0.0,0.0
3434,58.0,60.0,60.0,0.0,0.0
3435,51.0,60.0,60.0,0.0,0.0
3436,70.0,0.0,180.0,0.0,0.0
3437,58.0,60.0,60.0,0.0,0.0
3438,55.0,60.0,60.0,0.0,0.0
3439,58.0,60.0,60.0,0.0,0.0
3440,67.0,0.0,60.0,0.0,0.0
3441,51.0,60.0,60.0,0.0,0.0
3442,58.0,60.0,60.0,0.0,0.0
3443,63.0,0.0,15.0,0.0,0.0
3444,55.0,60.0,60.0,0.0,0.0
3445,65.0,0.0,60.0,0.0,0.0
3446,58.0,0.0,60.0,0.0,0.0
3447,67.0,60.0,60.0,0.0,0.0
3448,51.0,60.0,60.0,0.0,0.0
3449,68.0,0.0,60.0,0.0,0.0
3450,58.0,60.0,60.0,0.0,0.0
3451,70.0,0.0,60.0,0.0,0.0
3452,55.0,60.0,60.0,0.0,0.0
3453,72.0,0.0,60.0,0.0,0.0
3454,58.0,0.0,60.0,0.0,0.0
3455,74.0,60.0,60.0,0.0,0.0
3456,75.0,0.0,60.0,0.0,0.0
3457,51.0,60.0,60.0,0.0,0.0
3458,74.0,60.0,60.0,0.0,0.0
3459,60.0,0.0,60.0,0.0,0.0
3460,75.0,0.0,60.0,0.0,0.0
3461,56.0,60.0,60.0,0.0,0.0
3462,74.0,0.0,60.0,0.0,0.0
3463,60.0,60.0,60.0,0.0,0.0
3464,77.0,60.0,60.0,0.0,0.0
3465,51.0,0.0,60.0,0.0,0.0
3466,75.0,0.0,60.0,0.0,0.0
3467,60.0,60.0,60.0,0.0,0.0
3468,56.0,0.0,60.0,0.0,0.0
3469,74.0,60.0,60.0,0.0,0.0
3470,75.0,0.0,60.0,0.0,0.0
3471,60.0,60.0,60.0,0.0,0.0
3472,74.0,0.0,60.0,0.0,0.0
3473,51.0,60.0,60.0,0.0,0.0
3474,57.0,60.0,60.0,0.0,0.0
3475,72.0,0.0,60.0,0.0,0.0
3476,54.0,60.0,60.0,0.0,0.0
3477,70.0,0.0,60.0,0.0,0.0
3478,57.0,0.0,60.0,0.0,0.0
3479,69.0,60.0,60.0,0.0,0.0
3480,70.0,0.0,60.0,0.0,0.0
3481,51.0,60.0,60.0,0.0,0.0
3482,58.0,60.0,60.0,0.0,0.0
3483,67.0,0.0,60.0,0.0,0.0
3484,55.0,60.0,60.0,0.0,0.0
3485,70.0,0.0,60.0,0.0,0.0
3486,58.0,0.0,60.0,0.0,0.0
3487,67.0,60.0,60.0,0.0,0.0
3488,63.0,60.0,240.0,0.0,0.0
3489,51.0,60.0,60.0,0.0,0.0
3490,58.0,60.0,60.0,0.0,0.0
3491,55.0,60.0,60.0,0.0,0.0
3492,58.0,0.0,60.0,0.0,0.0
3493,51.0,60.0,60.0,0.0,0.0
3494,58.0,60.0,60.0,0.0,0.0
3495,55.0,60.0,60.0,0.0,0.0
3496,58.0,60.0,60.0,0.0,0.0
3497,53.0,60.0,60.0,0.0,0.0
3498,68.0,0.0,60.0,0.0,0.0
3499,65.0,0.0,60.0,0.0,0.0
3500,58.0,60.0,60.0,0.0,0.0
3501,68.0,0.0,60.0,0.0,0.0
3502,56.0,60.0,60.0,0.0,0.0
3503,65.0,60.0,60.0,0.0,0.0
3504,58.0,0.0,60.0,0.0,0.0
3505,62.0,0.0,60.0,0.0,0.0
3506,53.0,60.0,60.0,0.0,0.0
3507,65.0,0.0,60.0,0.0,0.0
3508,58.0,60.0,60.0,0.0,0.0
3509,56.0,60.0,60.0,0.0,0.0
3510,64.0,0.0,60.0,0.0,0.0
3511,58.0,60.0,60.0,0.0,0.0
3512,65.0,0.0,60.0,0.0,0.0
3513,53.0,60.0,60.0,0.0,0.0
3514,66.0,0.0,60.0,0.0,0.0
3515,58.0,60.0,60.0,0.0,0.0
3516,67.0,0.0,60.0,0.0,0.0
3517,68.0,0.0,60.0,0.0,0.0
3518,56.0,60.0,60.0,0.0,0.0
3519,58.0,60.0,60.0,0.0,0.0
3520,69.0,0.0,60.0,0.0,0.0
3521,51.0,60.0,60.0,0.0,0.0
3522,70.0,0.0,60.0,0.0,0.0
3523,58.0,0.0,60.0,0.0,0.0
3524,67.0,60.0,60.0,0.0,0.0
3525,55.0,60.0,60.0,0.0,0.0
3526,70.0,0.0,60.0,0.0,0.0
3527,58.0,60.0,60.0,0.0,0.0
3528,67.0,0.0,60.0,0.0,0.0
3529,48.0,60.0,60.0,0.0,0.0
3530,75.0,60.0,240.0,0.0,0.0
3531,55.0,60.0,60.0,0.0,0.0
3532,51.0,60.0,60.0,0.0,0.0
3533,55.0,0.0,60.0,0.0,0.0
3534,43.0,60.0,60.0,0.0,0.0
3535,79.0,60.0,60.0,0.0,0.0
3536,51.0,0.0,60.0,0.0,0.0
3537,74.0,0.0,60.0,0.0,0.0
3538,46.0,60.0,60.0,0.0,0.0
3539,51.0,0.0,60.0,0.0,0.0
3540,75.0,60.0,60.0,0.0,0.0
3541,71.0,60.0,60.0,0.0,0.0
3542,44.0,0.0,60.0,0.0,0.0
3543,72.0,60.0,60.0,0.0,0.0
3544,53.0,0.0,60.0,0.0,0.0
3545,68.0,60.0,60.0,0.0,0.0
3546,48.0,0.0,60.0,0.0,0.0
3547,65.0,60.0,60.0,0.0,0.0
3548,53.0,0.0,60.0,0.0,0.0
3549,46.0,60.0,60.0,0.0,0.0
3550,55.0,60.0,60.0,0.0,0.0
3551,51.0,60.0,60.0,0.0,0.0
3552,55.0,60.0,60.0,0.0,0.0
3553,63.0,0.0,15.0,0.0,0.0
3554,46.0,60.0,60.0,0.0,0.0
3555,67.0,0.0,60.0,0.0,0.0
3556,62.0,0.0,240.0,0.0,0.0
3557,56.0,60.0,60.0,0.0,0.0
3558,65.0,0.0,60.0,0.0,0.0
3559,53.0,60.0,60.0,0.0,0.0
3560,63.0,0.0,60.0,0.0,0.0
3561,65.0,240.0,60.0,0.0,0.0
3562,56.0,0.0,60.0,0.0,0.0
3563,62.0,0.0,240.0,0.0,0.0
3564,51.0,0.0,480.0,0.0,0.0
3565,56.0,0.0,240.0,0.0,0.0
3566,65.0,240.0,240.0,0.0,0.0
3567,63.0,0.0,240.0,0.0,0.0
3568,55.0,300.0,240.0,0.0,0.0
3569,70.0,0.0,300.0,0.0,0.0
3570,58.0,60.0,60.0,0.0,0.0
3571,65.0,60.0,60.0,0.0,0.0
3572,62.0,60.0,60.0,0.0,0.0
3573,65.0,60.0,60.0,0.0,0.0
3574,58.0,60.0,60.0,0.0,0.0
3575,65.0,60.0,60.0,0.0,0.0
3576,69.0,0.0,60.0,0.0,0.0
3577,72.0,0.0,60.0,0.0,0.0
3578,62.0,60.0,60.0,0.0,0.0
3579,65.0,0.0,60.0,0.0,0.0
3580,70.0,60.0,60.0,0.0,0.0
3581,75.0,60.0,60.0,0.0,0.0
3582,58.0,0.0,60.0,0.0,0.0
3583,74.0,0.0,60.0,0.0,0.0
3584,65.0,60.0,60.0,0.0,0.0
3585,72.0,0.0,60.0,0.0,0.0
3586,62.0,60.0,60.0,0.0,0.0
3587,65.0,0.0,60.0,0.0,0.0
3588,70.0,60.0,60.0,0.0,0.0
3589,69.0,60.0,180.0,0.0,0.0
3590,60.0,60.0,60.0,0.0,0.0
3591,65.0,60.0,60.0,0.0,0.0
3592,63.0,0.0,60.0,0.0,0.0
3593,70.0,60.0,60.0,0.0,0.0
3594,65.0,0.0,60.0,0.0,0.0
3595,60.0,60.0,60.0,0.0,0.0
3596,72.0,0.0,240.0,0.0,0.0
3597,65.0,60.0,60.0,0.0,0.0
3598,63.0,60.0,60.0,0.0,0.0
3599,65.0,60.0,60.0,0.0,0.0
3600,60.0,60.0,60.0,0.0,0.0
3601,65.0,60.0,60.0,0.0,0.0
3602,63.0,60.0,60.0,0.0,0.0
3603,65.0,60.0,60.0,0.0,0.0
3604,72.0,0.0,300.0,0.0,0.0
3605,57.0,60.0,60.0,0.0,0.0
3606,65.0,60.0,60.0,0.0,0.0
3607,63.0,60.0,60.0,0.0,0.0
3608,65.0,60.0,60.0,0.0,0.0
3609,57.0,60.0,60.0,0.0,0.0
3610,65.0,0.0,60.0,0.0,0.0
3611,71.0,60.0,60.0,0.0,0.0
3612,63.0,60.0,60.0,0.0,0.0
3613,74.0,0.0,60.0,0.0,0.0
3614,65.0,60.0,60.0,0.0,0.0
3615,72.0,0.0,60.0,0.0,0.0
3616,57.0,60.0,60.0,0.0,0.0
3617,77.0,0.0,60.0,0.0,0.0
3618,75.0,60.0,60.0,0.0,0.0
3619,65.0,0.0,60.0,0.0,0.0
3620,74.0,60.0,60.0,0.0,0.0
3621,63.0,0.0,60.0,0.0,0.0
3622,65.0,0.0,60.0,0.0,0.0
3623,72.0,60.0,60.0,0.0,0.0
3624,70.0,0.0,180.0,0.0,0.0
3625,58.0,60.0,60.0,0.0,0.0
3626,65.0,60.0,60.0,0.0,0.0
3627,62.0,60.0,60.0,0.0,0.0
3628,65.0,0.0,60.0,0.0,0.0
3629,72.0,60.0,60.0,0.0,0.0
3630,74.0,60.0,240.0,0.0,0.0
3631,57.0,60.0,60.0,0.0,0.0
3632,65.0,60.0,60.0,0.0,0.0
3633,58.0,60.0,60.0,0.0,0.0
3634,65.0,0.0,60.0,0.0,0.0
3635,55.0,60.0,60.0,0.0,0.0
3636,63.0,60.0,60.0,0.0,0.0
3637,58.0,60.0,60.0,0.0,0.0
3638,63.0,60.0,60.0,0.0,0.0
3639,53.0,60.0,60.0,0.0,0.0
3640,74.0,60.0,300.0,0.0,0.0
3641,62.0,60.0,60.0,0.0,0.0
3642,58.0,60.0,60.0,0.0,0.0
3643,62.0,60.0,60.0,0.0,0.0
3644,51.0,0.0,60.0,0.0,0.0
3645,60.0,60.0,60.0,0.0,0.0
3646,72.0,0.0,60.0,0.0,0.0
3647,57.0,60.0,60.0,0.0,0.0
3648,75.0,0.0,60.0,0.0,0.0
3649,60.0,60.0,60.0,0.0,0.0
3650,74.0,0.0,60.0,0.0,0.0
3651,50.0,0.0,60.0,0.0,0.0
3652,79.0,60.0,60.0,0.0,0.0
3653,77.0,60.0,60.0,0.0,0.0
3654,58.0,0.0,60.0,0.0,0.0
3655,75.0,60.0,60.0,0.0,0.0
3656,53.0,0.0,60.0,0.0,0.0
3657,74.0,60.0,60.0,0.0,0.0
3658,58.0,0.0,60.0,0.0,0.0
3659,55.0,60.0,60.0,0.0,0.0
3660,72.0,0.0,300.0,0.0,0.0
3661,63.0,60.0,60.0,0.0,0.0
3662,60.0,60.0,60.0,0.0,0.0
3663,63.0,60.0,60.0,0.0,0.0
3664,53.0,60.0,60.0,0.0,0.0
3665,71.0,0.0,60.0,0.0,0.0
3666,62.0,60.0,60.0,0.0,0.0
3667,59.0,60.0,60.0,0.0,0.0
3668,74.0,0.0,60.0,0.0,0.0
3669,72.0,60.0,60.0,0.0,0.0
3670,62.0,0.0,60.0,0.0,0.0
3671,77.0,0.0,60.0,0.0,0.0
3672,51.0,60.0,60.0,0.0,0.0
3673,75.0,60.0,60.0,0.0,0.0
3674,60.0,0.0,60.0,0.0,0.0
3675,74.0,0.0,60.0,0.0,0.0
3676,55.0,60.0,60.0,0.0,0.0
3677,60.0,0.0,60.0,0.0,0.0
3678,53.0,60.0,60.0,0.0,0.0
3679,72.0,60.0,15.0,0.0,0.0
3680,62.0,0.0,60.0,0.0,0.0
3681,70.0,60.0,15.0,0.0,0.0
3682,58.0,60.0,60.0,0.0,0.0
3683,62.0,60.0,60.0,0.0,0.0
3684,53.0,60.0,60.0,0.0,0.0
3685,62.0,60.0,60.0,0.0,0.0
3686,65.0,0.0,60.0,0.0,0.0
3687,58.0,0.0,60.0,0.0,0.0
3688,70.0,60.0,60.0,0.0,0.0
3689,62.0,60.0,60.0,0.0,0.0
3690,53.0,60.0,60.0,0.0,0.0
3691,74.0,0.0,15.0,0.0,0.0
3692,69.0,0.0,240.0,0.0,0.0
3693,63.0,60.0,60.0,0.0,0.0
3694,72.0,0.0,60.0,0.0,0.0
3695,70.0,60.0,60.0,0.0,0.0
3696,60.0,0.0,60.0,0.0,0.0
3697,63.0,0.0,60.0,0.0,0.0
3698,69.0,60.0,240.0,0.0,0.0
3699,72.0,240.0,15.0,0.0,0.0
3700,58.0,60.0,480.0,0.0,0.0
3701,63.0,0.0,240.0,0.0,0.0
3702,70.0,60.0,60.0,0.0,0.0
3703,62.0,0.0,240.0,0.0,0.0
3704,71.0,60.0,60.0,0.0,0.0
3705,72.0,60.0,60.0,0.0,0.0
3706,71.0,0.0,60.0,0.0,0.0
3707,74.0,60.0,60.0,0.0,0.0
3708,72.0,60.0,60.0,0.0,0.0
3709,70.0,60.0,60.0,0.0,0.0
3710,68.0,60.0,60.0,0.0,0.0
3711,67.0,0.0,300.0,0.0,0.0
3712,51.0,60.0,60.0,0.0,0.0
3713,58.0,60.0,60.0,0.0,0.0
3714,55.0,60.0,60.0,0.0,0.0
3715,58.0,60.0,60.0,0.0,0.0
3716,51.0,60.0,60.0,0.0,0.0
3717,58.0,60.0,60.0,0.0,0.0
3718,63.0,0.0,60.0,0.0,0.0
3719,55.0,0.0,60.0,0.0,0.0
3720,67.0,60.0,60.0,0.0,0.0
3721,70.0,60.0,60.0,0.0,0.0
3722,58.0,0.0,60.0,0.0,0.0
3723,53.0,60.0,60.0,0.0,0.0
3724,68.0,0.0,60.0,0.0,0.0
3725,58.0,60.0,60.0,0.0,0.0
3726,65.0,0.0,60.0,0.0,0.0
3727,56.0,60.0,60.0,0.0,0.0
3728,68.0,0.0,60.0,0.0,0.0
3729,58.0,0.0,60.0,0.0,0.0
3730,72.0,60.0,60.0,0.0,0.0
3731,70.0,60.0,180.0,0.0,0.0
3732,51.0,60.0,60.0,0.0,0.0
3733,58.0,60.0,60.0,0.0,0.0
3734,55.0,0.0,60.0,0.0,0.0
3735,67.0,0.0,60.0,0.0,0.0
3736,58.0,60.0,60.0,0.0,0.0
3737,51.0,60.0,60.0,0.0,0.0
3738,58.0,60.0,60.0,0.0,0.0
3739,63.0,0.0,15.0,0.0,0.0
3740,55.0,60.0,60.0,0.0,0.0
3741,65.0,0.0,60.0,0.0,0.0
3742,67.0,0.0,60.0,0.0,0.0
3743,58.0,60.0,60.0,0.0,0.0
3744,51.0,60.0,60.0,0.0,0.0
3745,68.0,0.0,60.0,0.0,0.0
3746,70.0,60.0,60.0,0.0,0.0
3747,58.0,0.0,60.0,0.0,0.0
3748,72.0,0.0,60.0,0.0,0.0
3749,55.0,60.0,60.0,0.0,0.0
3750,74.0,60.0,60.0,0.0,0.0
3751,58.0,0.0,60.0,0.0,0.0
3752,75.0,0.0,60.0,0.0,0.0
3753,51.0,60.0,60.0,0.0,0.0
3754,60.0,0.0,60.0,0.0,0.0
3755,74.0,60.0,60.0,0.0,0.0
3756,56.0,60.0,60.0,0.0,0.0
3757,75.0,0.0,60.0,0.0,0.0
3758,60.0,0.0,60.0,0.0,0.0
3759,74.0,60.0,60.0,0.0,0.0
3760,77.0,60.0,60.0,0.0,0.0
3761,51.0,0.0,60.0,0.0,0.0
3762,60.0,60.0,60.0,0.0,0.0
3763,75.0,0.0,60.0,0.0,0.0
3764,56.0,60.0,60.0,0.0,0.0
3765,74.0,0.0,60.0,0.0,0.0
3766,60.0,0.0,60.0,0.0,0.0
3767,75.0,60.0,60.0,0.0,0.0
3768,74.0,60.0,60.0,0.0,0.0
3769,51.0,0.0,60.0,0.0,0.0
3770,57.0,60.0,60.0,0.0,0.0
3771,72.0,0.0,60.0,0.0,0.0
3772,54.0,60.0,60.0,0.0,0.0
3773,70.0,0.0,60.0,0.0,0.0
3774,57.0,0.0,60.0,0.0,0.0
3775,69.0,60.0,60.0,0.0,0.0
3776,70.0,60.0,60.0,0.0,0.0
3777,51.0,0.0,60.0,0.0,0.0
3778,58.0,60.0,60.0,0.0,0.0
3779,67.0,0.0,60.0,0.0,0.0
3780,55.0,60.0,60.0,0.0,0.0
3781,70.0,0.0,60.0,0.0,0.0
3782,58.0,0.0,60.0,0.0,0.0
3783,67.0,60.0,60.0,0.0,0.0
3784,63.0,0.0,240.0,0.0,0.0
3785,51.0,60.0,60.0,0.0,0.0
3786,58.0,60.0,60.0,0.0,0.0
3787,55.0,60.0,60.0,0.0,0.0
3788,58.0,60.0,60.0,0.0,0.0
3789,51.0,60.0,60.0,0.0,0.0
3790,58.0,60.0,60.0,0.0,0.0
3791,55.0,60.0,60.0,0.0,0.0
3792,58.0,60.0,60.0,0.0,0.0
3793,68.0,60.0,60.0,0.0,0.0
3794,53.0,0.0,60.0,0.0,0.0
3795,65.0,60.0,60.0,0.0,0.0
3796,58.0,0.0,60.0,0.0,0.0
3797,68.0,60.0,60.0,0.0,0.0
3798,56.0,0.0,60.0,0.0,0.0
3799,65.0,0.0,60.0,0.0,0.0
3800,58.0,60.0,60.0,0.0,0.0
3801,62.0,60.0,60.0,0.0,0.0
3802,53.0,0.0,60.0,0.0,0.0
3803,65.0,60.0,60.0,0.0,0.0
3804,58.0,0.0,60.0,0.0,0.0
3805,56.0,0.0,60.0,0.0,0.0
3806,64.0,60.0,60.0,0.0,0.0
3807,65.0,60.0,60.0,0.0,0.0
3808,58.0,0.0,60.0,0.0,0.0
3809,66.0,0.0,60.0,0.0,0.0
3810,53.0,60.0,60.0,0.0,0.0
3811,58.0,60.0,60.0,0.0,0.0
3812,67.0,0.0,60.0,0.0,0.0
3813,56.0,60.0,60.0,0.0,0.0
3814,68.0,0.0,60.0,0.0,0.0
3815,58.0,60.0,60.0,0.0,0.0
3816,69.0,0.0,60.0,0.0,0.0
3817,51.0,60.0,60.0,0.0,0.0
3818,70.0,0.0,60.0,0.0,0.0
3819,58.0,60.0,60.0,0.0,0.0
3820,67.0,0.0,60.0,0.0,0.0
3821,55.0,60.0,60.0,0.0,0.0
3822,70.0,0.0,60.0,0.0,0.0
3823,58.0,0.0,60.0,0.0,0.0
3824,67.0,60.0,60.0,0.0,0.0
3825,75.0,60.0,240.0,0.0,0.0
3826,48.0,60.0,60.0,0.0,0.0
3827,55.0,60.0,60.0,0.0,0.0
3828,51.0,60.0,60.0,0.0,0.0
3829,55.0,0.0,60.0,0.0,0.0
3830,43.0,60.0,60.0,0.0,0.0
3831,51.0,60.0,60.0,0.0,0.0
3832,79.0,0.0,60.0,0.0,0.0
3833,46.0,60.0,60.0,0.0,0.0
3834,74.0,0.0,60.0,0.0,0.0
3835,51.0,0.0,60.0,0.0,0.0
3836,75.0,60.0,60.0,0.0,0.0
3837,44.0,60.0,60.0,0.0,0.0
3838,71.0,0.0,60.0,0.0,0.0
3839,53.0,0.0,60.0,0.0,0.0
3840,72.0,60.0,60.0,0.0,0.0
3841,68.0,60.0,60.0,0.0,0.0
3842,48.0,0.0,60.0,0.0,0.0
3843,53.0,60.0,60.0,0.0,0.0
3844,65.0,0.0,60.0,0.0,0.0
3845,63.0,0.0,180.0,0.0,0.0
3846,46.0,60.0,60.0,0.0,0.0
3847,55.0,60.0,60.0,0.0,0.0
3848,51.0,60.0,60.0,0.0,0.0
3849,55.0,60.0,60.0,0.0,0.0
3850,63.0,0.0,60.0,0.0,0.0
3851,46.0,0.0,60.0,0.0,0.0
3852,67.0,60.0,60.0,0.0,0.0
3853,65.0,60.0,60.0,0.0,0.0
3854,56.0,0.0,60.0,0.0,0.0
3855,53.0,60.0,60.0,0.0,0.0
3856,63.0,0.0,60.0,0.0,0.0
3857,56.0,0.0,60.0,0.0,0.0
3858,65.0,240.0,15.0,0.0,0.0
3859,62.0,0.0,15.0,0.0,0.0
3860,56.0,0.0,240.0,0.0,0.0
3861,51.0,0.0,480.0,0.0,0.0
3862,55.0,300.0,240.0,0.0,0.0
3863,63.0,0.0,240.0,0.0,0.0
3864,51.0,60.0,60.0,0.0,0.0
3865,66.0,60.0,300.0,0.0,0.0
3866,58.0,60.0,60.0,0.0,0.0
3867,54.0,60.0,60.0,0.0,0.0
3868,58.0,60.0,60.0,0.0,0.0
3869,51.0,0.0,60.0,0.0,0.0
3870,58.0,0.0,60.0,0.0,0.0
3871,65.0,60.0,60.0,0.0,0.0
3872,68.0,60.0,60.0,0.0,0.0
3873,54.0,0.0,60.0,0.0,0.0
3874,58.0,60.0,60.0,0.0,0.0
3875,53.0,0.0,60.0,0.0,0.0
3876,66.0,0.0,15.0,0.0,0.0
3877,65.0,60.0,60.0,0.0,0.0
3878,58.0,0.0,60.0,0.0,0.0
3879,63.0,0.0,60.0,0.0,0.0
3880,56.0,60.0,60.0,0.0,0.0
3881,62.0,60.0,60.0,0.0,0.0
3882,58.0,0.0,60.0,0.0,0.0
3883,63.0,0.0,180.0,0.0,0.0
3884,51.0,60.0,60.0,0.0,0.0
3885,58.0,60.0,60.0,0.0,0.0
3886,54.0,60.0,60.0,0.0,0.0
3887,58.0,60.0,60.0,0.0,0.0
3888,66.0,0.0,60.0,0.0,0.0
3889,51.0,60.0,60.0,0.0,0.0
3890,70.0,0.0,240.0,0.0,0.0
3891,58.0,60.0,60.0,0.0,0.0
3892,54.0,60.0,60.0,0.0,0.0
3893,58.0,60.0,60.0,0.0,0.0
3894,51.0,60.0,60.0,0.0,0.0
3895,58.0,60.0,60.0,0.0,0.0
3896,54.0,60.0,60.0,0.0,0.0
3897,58.0,60.0,60.0,0.0,0.0
3898,50.0,60.0,60.0,0.0,0.0
3899,70.0,60.0,300.0,0.0,0.0
3900,58.0,60.0,60.0,0.0,0.0
3901,53.0,60.0,60.0,0.0,0.0
3902,58.0,60.0,60.0,0.0,0.0
3903,50.0,0.0,60.0,0.0,0.0
3904,69.0,60.0,60.0,0.0,0.0
3905,58.0,0.0,60.0,0.0,0.0
3906,71.0,60.0,60.0,0.0,0.0
3907,53.0,0.0,60.0,0.0,0.0
3908,58.0,60.0,60.0,0.0,0.0
3909,46.0,60.0,60.0,0.0,0.0
3910,70.0,0.0,15.0,0.0,0.0
3911,58.0,60.0,60.0,0.0,0.0
3912,68.0,0.0,60.0,0.0,0.0
3913,66.0,0.0,60.0,0.0,0.0
3914,50.0,60.0,60.0,0.0,0.0
3915,58.0,60.0,60.0,0.0,0.0
3916,65.0,0.0,60.0,0.0,0.0
3917,66.0,0.0,180.0,0.0,0.0
3918,51.0,60.0,60.0,0.0,0.0
3919,58.0,60.0,60.0,0.0,0.0
3920,54.0,60.0,60.0,0.0,0.0
3921,70.0,0.0,60.0,0.0,0.0
3922,58.0,60.0,60.0,0.0,0.0
3923,75.0,0.0,240.0,0.0,0.0
3924,51.0,60.0,60.0,0.0,0.0
3925,58.0,60.0,60.0,0.0,0.0
3926,54.0,60.0,60.0,0.0,0.0
3927,58.0,60.0,60.0,0.0,0.0
3928,51.0,60.0,60.0,0.0,0.0
3929,59.0,60.0,60.0,0.0,0.0
3930,54.0,60.0,60.0,0.0,0.0
3931,59.0,60.0,60.0,0.0,0.0
3932,73.0,0.0,300.0,0.0,0.0
3933,53.0,60.0,60.0,0.0,0.0
3934,61.0,60.0,60.0,0.0,0.0
3935,56.0,60.0,60.0,0.0,0.0
3936,61.0,60.0,60.0,0.0,0.0
3937,53.0,60.0,60.0,0.0,0.0
3938,61.0,60.0,60.0,0.0,0.0
3939,77.0,0.0,60.0,0.0,0.0
3940,80.0,0.0,60.0,0.0,0.0
3941,56.0,60.0,60.0,0.0,0.0
3942,61.0,60.0,60.0,0.0,0.0
3943,78.0,0.0,60.0,0.0,0.0
3944,53.0,60.0,60.0,0.0,0.0
3945,77.0,0.0,60.0,0.0,0.0
3946,61.0,0.0,60.0,0.0,0.0
3947,75.0,60.0,60.0,0.0,0.0
3948,56.0,60.0,60.0,0.0,0.0
3949,73.0,0.0,60.0,0.0,0.0
3950,61.0,60.0,60.0,0.0,0.0
3951,71.0,0.0,60.0,0.0,0.0
3952,54.0,60.0,60.0,0.0,0.0
3953,70.0,60.0,300.0,0.0,0.0
3954,61.0,60.0,60.0,0.0,0.0
3955,58.0,60.0,60.0,0.0,0.0
3956,61.0,60.0,60.0,0.0,0.0
3957,51.0,0.0,60.0,0.0,0.0
3958,58.0,0.0,60.0,0.0,0.0
3959,75.0,60.0,60.0,0.0,0.0
3960,78.0,60.0,60.0,0.0,0.0
3961,54.0,0.0,60.0,0.0,0.0
3962,58.0,60.0,60.0,0.0,0.0
3963,77.0,0.0,60.0,0.0,0.0
3964,75.0,60.0,60.0,0.0,0.0
3965,46.0,0.0,60.0,0.0,0.0
3966,73.0,60.0,60.0,0.0,0.0
3967,54.0,0.0,60.0,0.0,0.0
3968,71.0,60.0,60.0,0.0,0.0
3969,49.0,0.0,60.0,0.0,0.0
3970,70.0,60.0,60.0,0.0,0.0
3971,54.0,0.0,60.0,0.0,0.0
3972,47.0,0.0,60.0,0.0,0.0
3973,67.0,60.0,60.0,0.0,0.0
3974,56.0,60.0,60.0,0.0,0.0
3975,68.0,0.0,60.0,0.0,0.0
3976,51.0,60.0,60.0,0.0,0.0
3977,71.0,0.0,60.0,0.0,0.0
3978,56.0,0.0,60.0,0.0,0.0
3979,75.0,60.0,60.0,0.0,0.0
3980,49.0,60.0,60.0,0.0,0.0
3981,58.0,60.0,60.0,0.0,0.0
3982,54.0,60.0,60.0,0.0,0.0
3983,58.0,60.0,60.0,0.0,0.0
3984,66.0,0.0,15.0,0.0,0.0
3985,49.0,0.0,60.0,0.0,0.0
3986,70.0,60.0,60.0,0.0,0.0
3987,68.0,60.0,60.0,0.0,0.0
3988,59.0,0.0,60.0,0.0,0.0
3989,66.0,60.0,60.0,0.0,0.0
3990,53.0,0.0,60.0,0.0,0.0
3991,68.0,240.0,60.0,0.0,0.0
3992,59.0,0.0,60.0,0.0,0.0
3993,65.0,0.0,240.0,0.0,0.0
3994,68.0,0.0,240.0,0.0,0.0
3995,54.0,60.0,480.0,0.0,0.0
3996,59.0,60.0,240.0,0.0,0.0
3997,58.0,0.0,240.0,0.0,0.0
3998,66.0,60.0,60.0,0.0,0.0
3999,65.0,60.0,60.0,0.0,0.0
4000,68.0,60.0,60.0,0.0,0.0
4001,66.0,0.0,60.0,0.0,0.0
4002,70.0,60.0,60.0,0.0,0.0
4003,68.0,60.0,60.0,0.0,0.0
4004,71.0,60.0,60.0,0.0,0.0
4005,70.0,60.0,60.0,0.0,0.0
4006,73.0,0.0,300.0,0.0,0.0
4007,52.0,60.0,60.0,0.0,0.0
4008,61.0,60.0,60.0,0.0,0.0
4009,56.0,60.0,60.0,0.0,0.0
4010,61.0,60.0,60.0,0.0,0.0
4011,51.0,60.0,60.0,0.0,0.0
4012,58.0,0.0,60.0,0.0,0.0
4013,76.0,60.0,60.0,0.0,0.0
4014,55.0,0.0,60.0,0.0,0.0
4015,75.0,60.0,60.0,0.0,0.0
4016,73.0,60.0,60.0,0.0,0.0
4017,58.0,0.0,60.0,0.0,0.0
4018,49.0,0.0,60.0,0.0,0.0
4019,71.0,60.0,60.0,0.0,0.0
4020,58.0,60.0,60.0,0.0,0.0
4021,70.0,0.0,60.0,0.0,0.0
4022,51.0,60.0,60.0,0.0,0.0
4023,68.0,0.0,60.0,0.0,0.0
4024,58.0,60.0,60.0,0.0,0.0
4025,67.0,0.0,60.0,0.0,0.0
4026,47.0,60.0,60.0,0.0,0.0
4027,68.0,0.0,180.0,0.0,0.0
4028,56.0,60.0,60.0,0.0,0.0
4029,51.0,60.0,60.0,0.0,0.0
4030,56.0,60.0,60.0,0.0,0.0
4031,71.0,0.0,60.0,0.0,0.0
4032,46.0,60.0,60.0,0.0,0.0
4033,75.0,60.0,240.0,0.0,0.0
4034,55.0,60.0,60.0,0.0,0.0
4035,49.0,60.0,60.0,0.0,0.0
4036,55.0,0.0,60.0,0.0,0.0
4037,44.0,60.0,60.0,0.0,0.0
4038,56.0,60.0,60.0,0.0,0.0
4039,47.0,60.0,60.0,0.0,0.0
4040,56.0,60.0,60.0,0.0,0.0
4041,75.0,0.0,300.0,0.0,0.0
4042,45.0,60.0,60.0,0.0,0.0
4043,54.0,60.0,60.0,0.0,0.0
4044,48.0,60.0,60.0,0.0,0.0
4045,54.0,60.0,60.0,0.0,0.0
4046,46.0,60.0,60.0,0.0,0.0
4047,54.0,60.0,60.0,0.0,0.0
4048,74.0,0.0,60.0,0.0,0.0
4049,77.0,60.0,60.0,0.0,0.0
4050,51.0,0.0,60.0,0.0,0.0
4051,75.0,0.0,60.0,0.0,0.0
4052,54.0,60.0,60.0,0.0,0.0
4053,78.0,60.0,60.0,0.0,0.0
4054,47.0,0.0,60.0,0.0,0.0
4055,54.0,60.0,60.0,0.0,0.0
4056,69.0,0.0,60.0,0.0,0.0
4057,51.0,60.0,60.0,0.0,0.0
4058,78.0,0.0,60.0,0.0,0.0
4059,54.0,60.0,60.0,0.0,0.0
4060,69.0,0.0,60.0,0.0,0.0
4061,46.0,60.0,60.0,0.0,0.0
4062,69.0,0.0,240.0,0.0,0.0
4063,54.0,60.0,60.0,0.0,0.0
4064,51.0,60.0,60.0,0.0,0.0
4065,54.0,60.0,60.0,0.0,0.0
4066,46.0,60.0,60.0,0.0,0.0
4067,70.0,60.0,240.0,0.0,0.0
4068,53.0,60.0,60.0,0.0,0.0
4069,50.0,60.0,60.0,0.0,0.0
4070,53.0,0.0,60.0,0.0,0.0
4071,46.0,60.0,60.0,0.0,0.0
4072,53.0,60.0,60.0,0.0,0.0
4073,50.0,60.0,60.0,0.0,0.0
4074,53.0,60.0,60.0,0.0,0.0
4075,71.0,0.0,300.0,0.0,0.0
4076,44.0,60.0,60.0,0.0,0.0
4077,53.0,60.0,60.0,0.0,0.0
4078,50.0,60.0,60.0,0.0,0.0
4079,53.0,60.0,60.0,0.0,0.0
4080,44.0,60.0,60.0,0.0,0.0
4081,53.0,60.0,60.0,0.0,0.0
4082,68.0,0.0,60.0,0.0,0.0
4083,77.0,60.0,60.0,0.0,0.0
4084,50.0,0.0,60.0,0.0,0.0
4085,74.0,0.0,60.0,0.0,0.0
4086,53.0,60.0,60.0,0.0,0.0
4087,80.0,60.0,60.0,0.0,0.0
4088,44.0,0.0,60.0,0.0,0.0
4089,77.0,0.0,60.0,0.0,0.0
4090,53.0,60.0,60.0,0.0,0.0
4091,83.0,0.0,60.0,0.0,0.0
4092,50.0,60.0,60.0,0.0,0.0
4093,53.0,0.0,60.0,0.0,0.0
4094,74.0,60.0,60.0,0.0,0.0
4095,82.0,60.0,300.0,0.0,0.0
4096,42.0,60.0,60.0,0.0,0.0
4097,51.0,60.0,60.0,0.0,0.0
4098,46.0,60.0,60.0,0.0,0.0
4099,51.0,60.0,60.0,0.0,0.0
4100,42.0,0.0,60.0,0.0,0.0
4101,77.0,0.0,60.0,0.0,0.0
4102,51.0,60.0,60.0,0.0,0.0
4103,78.0,0.0,60.0,0.0,0.0
4104,46.0,60.0,60.0,0.0,0.0
4105,51.0,60.0,60.0,0.0,0.0
4106,74.0,0.0,60.0,0.0,0.0
4107,42.0,60.0,60.0,0.0,0.0
4108,75.0,0.0,60.0,0.0,0.0
4109,51.0,60.0,60.0,0.0,0.0
4110,69.0,0.0,60.0,0.0,0.0
4111,70.0,0.0,60.0,0.0,0.0
4112,46.0,60.0,60.0,0.0,0.0
4113,51.0,60.0,60.0,0.0,0.0
4114,44.0,60.0,60.0,0.0,0.0
4115,66.0,0.0,15.0,0.0,0.0
4116,53.0,60.0,60.0,0.0,0.0
4117,65.0,0.0,60.0,0.0,0.0
4118,68.0,0.0,60.0,0.0,0.0
4119,47.0,60.0,60.0,0.0,0.0
4120,53.0,60.0,60.0,0.0,0.0
4121,71.0,0.0,60.0,0.0,0.0
4122,46.0,60.0,60.0,0.0,0.0
4123,63.0,0.0,180.0,0.0,0.0
4124,54.0,60.0,60.0,0.0,0.0
4125,51.0,60.0,60.0,0.0,0.0
4126,63.0,0.0,60.0,0.0,0.0
4127,54.0,60.0,60.0,0.0,0.0
4128,46.0,60.0,60.0,0.0,0.0
4129,66.0,0.0,60.0,0.0,0.0
4130,56.0,60.0,60.0,0.0,0.0
4131,65.0,0.0,60.0,0.0,0.0
4132,63.0,0.0,60.0,0.0,0.0
4133,50.0,60.0,60.0,0.0,0.0
4134,56.0,240.0,15.0,0.0,0.0
4135,51.0,0.0,480.0,0.0,0.0
4136,65.0,0.0,240.0,0.0,0.0
4137,62.0,0.0,15.0,0.0,0.0
4138,54.0,0.0,240.0,0.0,0.0
4139,63.0,60.0,60.0,0.0,0.0
4140,62.0,60.0,60.0,0.0,0.0
4141,63.0,60.0,60.0,0.0,0.0
4142,64.0,60.0,60.0,0.0,0.0
4143,65.0,60.0,60.0,0.0,0.0
4144,64.0,60.0,60.0,0.0,0.0
4145,65.0,60.0,60.0,0.0,0.0
4146,66.0,60.0,60.0,0.0,0.0
4147,67.0,0.0,480.0,0.0,0.0
4148,51.0,60.0,60.0,0.0,0.0
4149,58.0,60.0,60.0,0.0,0.0
4150,55.0,60.0,60.0,0.0,0.0
4151,58.0,60.0,60.0,0.0,0.0
4152,51.0,60.0,60.0,0.0,0.0
4153,58.0,60.0,60.0,0.0,0.0
4154,55.0,60.0,60.0,0.0,0.0
4155,58.0,60.0,60.0,0.0,0.0
4156,53.0,60.0,60.0,0.0,0.0
4157,70.0,0.0,60.0,0.0,0.0
4158,58.0,60.0,60.0,0.0,0.0
4159,68.0,0.0,60.0,0.0,0.0
4160,56.0,60.0,60.0,0.0,0.0
4161,67.0,0.0,60.0,0.0,0.0
4162,68.0,0.0,60.0,0.0,0.0
4163,58.0,60.0,60.0,0.0,0.0
4164,51.0,60.0,60.0,0.0,0.0
4165,70.0,60.0,180.0,0.0,0.0
4166,58.0,60.0,60.0,0.0,0.0
4167,55.0,0.0,60.0,0.0,0.0
4168,67.0,60.0,60.0,0.0,0.0
4169,58.0,0.0,60.0,0.0,0.0
4170,63.0,0.0,240.0,0.0,0.0
4171,51.0,60.0,60.0,0.0,0.0
4172,58.0,60.0,60.0,0.0,0.0
4173,55.0,60.0,60.0,0.0,0.0
4174,58.0,60.0,60.0,0.0,0.0
4175,51.0,60.0,60.0,0.0,0.0
4176,58.0,60.0,60.0,0.0,0.0
4177,55.0,60.0,60.0,0.0,0.0
4178,58.0,60.0,60.0,0.0,0.0
4179,75.0,0.0,360.0,0.0,0.0
4180,51.0,60.0,60.0,0.0,0.0
4181,60.0,60.0,60.0,0.0,0.0
4182,56.0,60.0,60.0,0.0,0.0
4183,60.0,60.0,60.0,0.0,0.0
4184,51.0,60.0,60.0,0.0,0.0
4185,60.0,60.0,60.0,0.0,0.0
4186,56.0,60.0,60.0,0.0,0.0
4187,77.0,0.0,60.0,0.0,0.0
4188,60.0,60.0,60.0,0.0,0.0
4189,75.0,0.0,60.0,0.0,0.0
4190,74.0,0.0,60.0,0.0,0.0
4191,51.0,60.0,60.0,0.0,0.0
4192,72.0,0.0,60.0,0.0,0.0
4193,57.0,60.0,60.0,0.0,0.0
4194,54.0,60.0,60.0,0.0,0.0
4195,70.0,0.0,60.0,0.0,0.0
4196,57.0,60.0,60.0,0.0,0.0
4197,69.0,0.0,60.0,0.0,0.0
4198,51.0,60.0,60.0,0.0,0.0
4199,70.0,0.0,180.0,0.0,0.0
4200,58.0,60.0,60.0,0.0,0.0
4201,55.0,60.0,60.0,0.0,0.0
4202,67.0,60.0,60.0,0.0,0.0
4203,58.0,0.0,60.0,0.0,0.0
4204,63.0,0.0,240.0,0.0,0.0
4205,51.0,60.0,60.0,0.0,0.0
4206,58.0,60.0,60.0,0.0,0.0
4207,55.0,60.0,60.0,0.0,0.0
4208,58.0,60.0,60.0,0.0,0.0
4209,51.0,60.0,60.0,0.0,0.0
4210,58.0,60.0,60.0,0.0,0.0
4211,55.0,60.0,60.0,0.0,0.0
4212,58.0,60.0,60.0,0.0,0.0
4213,53.0,60.0,60.0,0.0,0.0
4214,68.0,60.0,180.0,0.0,0.0
4215,58.0,60.0,60.0,0.0,0.0
4216,56.0,0.0,60.0,0.0,0.0
4217,65.0,0.0,60.0,0.0,0.0
4218,58.0,60.0,60.0,0.0,0.0
4219,53.0,60.0,60.0,0.0,0.0
4220,62.0,0.0,120.0,0.0,0.0
4221,58.0,60.0,60.0,0.0,0.0
4222,56.0,60.0,60.0,0.0,0.0
4223,65.0,0.0,120.0,0.0,0.0
4224,58.0,60.0,60.0,0.0,0.0
4225,67.0,0.0,120.0,0.0,0.0
4226,53.0,60.0,60.0,0.0,0.0
4227,58.0,60.0,60.0,0.0,0.0
4228,56.0,60.0,60.0,0.0,0.0
4229,68.0,60.0,120.0,0.0,0.0
4230,58.0,0.0,60.0,0.0,0.0
4231,70.0,0.0,180.0,0.0,0.0
4232,51.0,60.0,60.0,0.0,0.0
4233,58.0,60.0,60.0,0.0,0.0
4234,55.0,60.0,60.0,0.0,0.0
4235,58.0,60.0,60.0,0.0,0.0
4236,67.0,0.0,60.0,0.0,0.0
4237,48.0,60.0,60.0,0.0,0.0
4238,75.0,60.0,240.0,0.0,0.0
4239,55.0,60.0,60.0,0.0,0.0
4240,51.0,60.0,60.0,0.0,0.0
4241,55.0,0.0,60.0,0.0,0.0
4242,43.0,60.0,60.0,0.0,0.0
4243,51.0,60.0,60.0,0.0,0.0
4244,46.0,60.0,60.0,0.0,0.0
4245,51.0,60.0,60.0,0.0,0.0
4246,44.0,0.0,480.0,0.0,0.0
4247,48.0,0.0,240.0,0.0,0.0
4248,77.0,60.0,60.0,0.0,0.0
4249,75.0,60.0,60.0,0.0,0.0
4250,74.0,60.0,60.0,0.0,0.0
4251,75.0,60.0,60.0,0.0,0.0
4252,74.0,60.0,60.0,0.0,0.0
4253,72.0,60.0,60.0,0.0,0.0
4254,71.0,60.0,60.0,0.0,0.0
4255,72.0,60.0,60.0,0.0,0.0
4256,48.0,0.0,240.0,0.0,0.0
4257,70.0,60.0,60.0,0.0,0.0
4258,68.0,60.0,60.0,0.0,0.0
4259,67.0,60.0,60.0,0.0,0.0
4260,65.0,180.0,60.0,0.0,0.0
4261,51.0,0.0,15.0,0.0,0.0
4262,46.0,0.0,480.0,0.0,0.0
4263,67.0,30.0,180.0,0.0,0.0
4264,68.0,30.0,30.0,0.0,0.0
4265,67.0,0.0,30.0,0.0,0.0
4266,65.0,120.0,120.0,0.0,0.0
4267,50.0,0.0,240.0,0.0,0.0
4268,70.0,120.0,120.0,0.0,0.0
4269,69.0,120.0,120.0,0.0,0.0
4270,68.0,60.0,120.0,0.0,0.0
4271,51.0,60.0,60.0,0.0,0.0
4272,67.0,60.0,300.0,0.0,0.0
4273,58.0,60.0,60.0,0.0,0.0
4274,55.0,60.0,60.0,0.0,0.0
4275,58.0,60.0,60.0,0.0,0.0
4276,51.0,0.0,60.0,0.0,0.0
4277,63.0,60.0,60.0,0.0,0.0
4278,58.0,0.0,60.0,0.0,0.0
4279,55.0,60.0,60.0,0.0,0.0
4280,67.0,0.0,60.0,0.0,0.0
4281,70.0,60.0,60.0,0.0,0.0
4282,58.0,0.0,60.0,0.0,0.0
4283,68.0,60.0,60.0,0.0,0.0
4284,53.0,0.0,60.0,0.0,0.0
4285,58.0,0.0,60.0,0.0,0.0
4286,65.0,60.0,60.0,0.0,0.0
4287,68.0,60.0,60.0,0.0,0.0
4288,56.0,0.0,60.0,0.0,0.0
4289,72.0,60.0,60.0,0.0,0.0
4290,58.0,0.0,60.0,0.0,0.0
4291,51.0,60.0,60.0,0.0,0.0
4292,70.0,0.0,180.0,0.0,0.0
4293,58.0,60.0,60.0,0.0,0.0
4294,55.0,60.0,60.0,0.0,0.0
4295,58.0,60.0,60.0,0.0,0.0
4296,67.0,0.0,60.0,0.0,0.0
4297,51.0,0.0,60.0,0.0,0.0
4298,58.0,60.0,60.0,0.0,0.0
4299,63.0,60.0,15.0,0.0,0.0
4300,55.0,60.0,60.0,0.0,0.0
4301,65.0,0.0,60.0,0.0,0.0
4302,67.0,60.0,60.0,0.0,0.0
4303,58.0,0.0,60.0,0.0,0.0
4304,51.0,60.0,60.0,0.0,0.0
4305,68.0,0.0,60.0,0.0,0.0
4306,58.0,60.0,60.0,0.0,0.0
4307,70.0,0.0,60.0,0.0,0.0
4308,55.0,60.0,60.0,0.0,0.0
4309,72.0,0.0,60.0,0.0,0.0
4310,74.0,0.0,60.0,0.0,0.0
4311,58.0,60.0,60.0,0.0,0.0
4312,75.0,0.0,60.0,0.0,0.0
4313,51.0,60.0,60.0,0.0,0.0
4314,60.0,60.0,60.0,0.0,0.0
4315,74.0,0.0,60.0,0.0,0.0
4316,56.0,0.0,60.0,0.0,0.0
4317,75.0,60.0,60.0,0.0,0.0
4318,60.0,60.0,60.0,0.0,0.0
4319,74.0,0.0,60.0,0.0,0.0
4320,51.0,0.0,60.0,0.0,0.0
4321,77.0,60.0,60.0,0.0,0.0
4322,75.0,0.0,60.0,0.0,0.0
4323,60.0,60.0,60.0,0.0,0.0
4324,56.0,60.0,60.0,0.0,0.0
4325,74.0,0.0,60.0,0.0,0.0
4326,75.0,60.0,60.0,0.0,0.0
4327,60.0,0.0,60.0,0.0,0.0
4328,74.0,60.0,60.0,0.0,0.0
4329,51.0,0.0,60.0,0.0,0.0
4330,72.0,0.0,60.0,0.0,0.0
4331,57.0,60.0,60.0,0.0,0.0
4332,70.0,60.0,60.0,0.0,0.0
4333,54.0,0.0,60.0,0.0,0.0
4334,69.0,0.0,60.0,0.0,0.0
4335,57.0,60.0,60.0,0.0,0.0
4336,70.0,0.0,60.0,0.0,0.0
4337,51.0,60.0,60.0,0.0,0.0
4338,58.0,60.0,60.0,0.0,0.0
4339,67.0,0.0,60.0,0.0,0.0
4340,70.0,0.0,60.0,0.0,0.0
4341,55.0,60.0,60.0,0.0,0.0
4342,67.0,0.0,60.0,0.0,0.0
4343,58.0,60.0,60.0,0.0,0.0
4344,63.0,60.0,240.0,0.0,0.0
4345,51.0,60.0,60.0,0.0,0.0
4346,58.0,60.0,60.0,0.0,0.0
4347,55.0,60.0,60.0,0.0,0.0
4348,58.0,0.0,60.0,0.0,0.0
4349,51.0,60.0,60.0,0.0,0.0
4350,58.0,60.0,60.0,0.0,0.0
4351,55.0,60.0,60.0,0.0,0.0
4352,58.0,60.0,60.0,0.0,0.0
4353,53.0,60.0,60.0,0.0,0.0
4354,68.0,0.0,60.0,0.0,0.0
4355,58.0,60.0,60.0,0.0,0.0
4356,65.0,0.0,60.0,0.0,0.0
4357,68.0,0.0,60.0,0.0,0.0
4358,56.0,60.0,60.0,0.0,0.0
4359,65.0,0.0,60.0,0.0,0.0
4360,58.0,60.0,60.0,0.0,0.0
4361,53.0,60.0,60.0,0.0,0.0
4362,62.0,0.0,60.0,0.0,0.0
4363,58.0,60.0,60.0,0.0,0.0
4364,65.0,0.0,60.0,0.0,0.0
4365,56.0,60.0,60.0,0.0,0.0
4366,64.0,0.0,60.0,0.0,0.0
4367,58.0,60.0,60.0,0.0,0.0
4368,65.0,0.0,60.0,0.0,0.0
4369,53.0,60.0,60.0,0.0,0.0
4370,66.0,0.0,60.0,0.0,0.0
4371,58.0,0.0,60.0,0.0,0.0
4372,67.0,60.0,60.0,0.0,0.0
4373,68.0,60.0,60.0,0.0,0.0
4374,56.0,0.0,60.0,0.0,0.0
4375,69.0,60.0,60.0,0.0,0.0
4376,58.0,0.0,60.0,0.0,0.0
4377,70.0,60.0,60.0,0.0,0.0
4378,51.0,0.0,60.0,0.0,0.0
4379,58.0,0.0,60.0,0.0,0.0
4380,67.0,60.0,60.0,0.0,0.0
4381,70.0,60.0,60.0,0.0,0.0
4382,55.0,0.0,60.0,0.0,0.0
4383,67.0,0.0,60.0,0.0,0.0
4384,58.0,60.0,60.0,0.0,0.0
4385,75.0,0.0,240.0,0.0,0.0
4386,48.0,60.0,60.0,0.0,0.0
4387,55.0,60.0,60.0,0.0,0.0
4388,51.0,60.0,60.0,0.0,0.0
4389,55.0,60.0,60.0,0.0,0.0
4390,43.0,60.0,60.0,0.0,0.0
4391,79.0,0.0,60.0,0.0,0.0
4392,51.0,60.0,60.0,0.0,0.0
4393,46.0,60.0,60.0,0.0,0.0
4394,74.0,0.0,60.0,0.0,0.0
4395,75.0,60.0,60.0,0.0,0.0
4396,51.0,0.0,60.0,0.0,0.0
4397,44.0,60.0,60.0,0.0,0.0
4398,71.0,0.0,60.0,0.0,0.0
4399,53.0,0.0,60.0,0.0,0.0
4400,72.0,60.0,60.0,0.0,0.0
4401,48.0,0.0,60.0,0.0,0.0
4402,68.0,60.0,60.0,0.0,0.0
4403,53.0,60.0,60.0,0.0,0.0
4404,65.0,0.0,60.0,0.0,0.0
4405,46.0,60.0,60.0,0.0,0.0
4406,55.0,60.0,60.0,0.0,0.0
4407,51.0,0.0,60.0,0.0,0.0
4408,63.0,60.0,15.0,0.0,0.0
4409,55.0,60.0,60.0,0.0,0.0
4410,46.0,60.0,60.0,0.0,0.0
4411,67.0,0.0,60.0,0.0,0.0
4412,62.0,60.0,240.0,0.0,0.0
4413,56.0,60.0,60.0,0.0,0.0
4414,65.0,0.0,60.0,0.0,0.0
4415,53.0,0.0,60.0,0.0,0.0
4416,63.0,60.0,60.0,0.0,0.0
4417,56.0,0.0,60.0,0.0,0.0
4418,65.0,0.0,60.0,0.0,0.0
4419,63.0,60.0,60.0,0.0,0.0
4420,55.0,0.0,240.0,0.0,0.0
4421,51.0,0.0,240.0,0.0,0.0
4422,62.0,60.0,60.0,0.0,0.0
4423,65.0,60.0,60.0,0.0,0.0
4424,63.0,60.0,60.0,0.0,0.0
4425,67.0,60.0,60.0,0.0,0.0
4426,65.0,60.0,60.0,0.0,0.0
4427,68.0,60.0,60.0,0.0,0.0
4428,67.0,60.0,60.0,0.0,0.0
4429,70.0,60.0,60.0,0.0,0.0
4430,68.0,60.0,60.0,0.0,0.0
4431,72.0,60.0,60.0,0.0,0.0
4432,70.0,60.0,60.0,0.0,0.0
4433,53.0,60.0,60.0,0.0,0.0
4434,73.0,60.0,360.0,0.0,0.0
4435,61.0,60.0,60.0,0.0,0.0
4436,56.0,60.0,60.0,0.0,0.0
4437,61.0,60.0,60.0,0.0,0.0
4438,53.0,60.0,60.0,0.0,0.0
4439,61.0,0.0,60.0,0.0,0.0
4440,56.0,0.0,60.0,0.0,0.0
4441,75.0,60.0,60.0,0.0,0.0
4442,77.0,60.0,60.0,0.0,0.0
4443,61.0,0.0,60.0,0.0,0.0
4444,75.0,60.0,60.0,0.0,0.0
4445,55.0,0.0,60.0,0.0,0.0
4446,73.0,60.0,60.0,0.0,0.0
4447,63.0,0.0,60.0,0.0,0.0
4448,72.0,60.0,60.0,0.0,0.0
4449,58.0,0.0,60.0,0.0,0.0
4450,70.0,60.0,60.0,0.0,0.0
4451,63.0,0.0,60.0,0.0,0.0
4452,71.0,60.0,240.0,0.0,0.0
4453,56.0,60.0,60.0,0.0,0.0
4454,63.0,60.0,60.0,0.0,0.0
4455,60.0,60.0,60.0,0.0,0.0
4456,63.0,0.0,60.0,0.0,0.0
4457,72.0,0.0,240.0,0.0,0.0
4458,56.0,60.0,60.0,0.0,0.0
4459,63.0,60.0,60.0,0.0,0.0
4460,60.0,60.0,60.0,0.0,0.0
4461,63.0,60.0,60.0,0.0,0.0
4462,56.0,60.0,60.0,0.0,0.0
4463,63.0,0.0,60.0,0.0,0.0
4464,75.0,60.0,60.0,0.0,0.0
4465,74.0,60.0,60.0,0.0,0.0
4466,60.0,0.0,60.0,0.0,0.0
4467,72.0,60.0,60.0,0.0,0.0
4468,63.0,0.0,60.0,0.0,0.0
4469,55.0,60.0,60.0,0.0,0.0
4470,70.0,0.0,60.0,0.0,0.0
4471,58.0,0.0,60.0,0.0,0.0
4472,67.0,60.0,60.0,0.0,0.0
4473,65.0,60.0,60.0,0.0,0.0
4474,56.0,0.0,60.0,0.0,0.0
4475,60.0,60.0,60.0,0.0,0.0
4476,72.0,0.0,60.0,0.0,0.0
4477,46.0,60.0,60.0,0.0,0.0
4478,55.0,60.0,60.0,0.0,0.0
4479,51.0,0.0,60.0,0.0,0.0
4480,63.0,60.0,15.0,0.0,0.0
4481,55.0,60.0,60.0,0.0,0.0
4482,46.0,60.0,60.0,0.0,0.0
4483,67.0,0.0,60.0,0.0,0.0
4484,62.0,0.0,240.0,0.0,0.0
4485,56.0,60.0,60.0,0.0,0.0
4486,65.0,0.0,60.0,0.0,0.0
4487,53.0,60.0,60.0,0.0,0.0
4488,63.0,0.0,60.0,0.0,0.0
4489,56.0,0.0,60.0,0.0,0.0
4490,65.0,60.0,60.0,0.0,0.0
4491,55.0,0.0,240.0,0.0,0.0
4492,51.0,0.0,240.0,0.0,0.0
4493,63.0,60.0,60.0,0.0,0.0
4494,62.0,60.0,60.0,0.0,0.0
4495,65.0,60.0,60.0,0.0,0.0
4496,63.0,60.0,60.0,0.0,0.0
4497,67.0,60.0,60.0,0.0,0.0
4498,65.0,60.0,60.0,0.0,0.0
4499,68.0,60.0,60.0,0.0,0.0
4500,67.0,60.0,60.0,0.0,0.0
4501,70.0,60.0,60.0,0.0,0.0
4502,68.0,60.0,60.0,0.0,0.0
4503,72.0,60.0,60.0,0.0,0.0
4504,70.0,60.0,60.0,0.0,0.0
4505,73.0,60.0,360.0,0.0,0.0
4506,41.0,60.0,60.0,0.0,0.0
4507,49.0,60.0,60.0,0.0,0.0
4508,44.0,60.0,60.0,0.0,0.0
4509,49.0,60.0,60.0,0.0,0.0
4510,43.0,60.0,60.0,0.0,0.0
4511,51.0,0.0,60.0,0.0,0.0
4512,75.0,0.0,60.0,0.0,0.0
4513,46.0,60.0,60.0,0.0,0.0
4514,51.0,60.0,60.0,0.0,0.0
4515,77.0,0.0,60.0,0.0,0.0
4516,75.0,60.0,60.0,0.0,0.0
4517,39.0,0.0,60.0,0.0,0.0
4518,73.0,60.0,60.0,0.0,0.0
4519,51.0,0.0,60.0,0.0,0.0
4520,43.0,0.0,60.0,0.0,0.0
4521,72.0,60.0,60.0,0.0,0.0
4522,51.0,60.0,60.0,0.0,0.0
4523,70.0,0.0,60.0,0.0,0.0
4524,44.0,60.0,60.0,0.0,0.0
4525,72.0,60.0,240.0,0.0,0.0
4526,51.0,60.0,60.0,0.0,0.0
4527,48.0,60.0,60.0,0.0,0.0
4528,51.0,0.0,60.0,0.0,0.0
4529,74.0,60.0,240.0,0.0,0.0
4530,44.0,60.0,60.0,0.0,0.0
4531,53.0,60.0,60.0,0.0,0.0
4532,47.0,60.0,60.0,0.0,0.0
4533,53.0,0.0,60.0,0.0,0.0
4534,75.0,60.0,240.0,0.0,0.0
4535,45.0,60.0,60.0,0.0,0.0
4536,54.0,60.0,60.0,0.0,0.0
4537,48.0,60.0,60.0,0.0,0.0
4538,54.0,0.0,60.0,0.0,0.0
4539,46.0,60.0,60.0,0.0,0.0
4540,63.0,0.0,360.0,0.0,0.0
4541,55.0,60.0,60.0,0.0,0.0
4542,51.0,60.0,60.0,0.0,0.0
4543,55.0,60.0,60.0,0.0,0.0
4544,46.0,60.0,60.0,0.0,0.0
4545,55.0,30.0,60.0,0.0,0.0
4546,65.0,30.0,30.0,0.0,0.0
4547,51.0,0.0,60.0,0.0,0.0
4548,63.0,30.0,30.0,0.0,0.0
4549,62.0,30.0,30.0,0.0,0.0
4550,55.0,60.0,60.0,0.0,0.0
4551,63.0,0.0,30.0,0.0,0.0
4552,67.0,0.0,120.0,0.0,0.0
4553,46.0,60.0,60.0,0.0,0.0
4554,62.0,0.0,240.0,0.0,0.0
4555,56.0,60.0,60.0,0.0,0.0
4556,53.0,60.0,60.0,0.0,0.0
4557,65.0,0.0,120.0,0.0,0.0
4558,56.0,60.0,60.0,0.0,0.0
4559,63.0,60.0,60.0,0.0,0.0
4560,51.0,60.0,240.0,0.0,0.0
4561,55.0,0.0,240.0,0.0,0.0
4562,58.0,60.0,60.0,0.0,0.0
4563,67.0,60.0,60.0,0.0,0.0
4564,67.0,0.0,60.0,0.0,0.0
4565,67.0,60.0,60.0,0.0,0.0
4566,63.0,60.0,60.0,0.0,0.0
4567,70.0,60.0,60.0,0.0,0.0
4568,70.0,60.0,60.0,0.0,0.0
4569,70.0,60.0,60.0,0.0,0.0
4570,67.0,60.0,60.0,0.0,0.0
4571,65.0,60.0,60.0,0.0,0.0
4572,56.0,0.0,120.0,0.0,0.0
4573,46.0,0.0,120.0,0.0,0.0
4574,67.0,60.0,60.0,0.0,0.0
4575,51.0,0.0,240.0,0.0,0.0
4576,63.0,60.0,60.0,0.0,0.0
4577,55.0,0.0,240.0,0.0,0.0
4578,58.0,60.0,60.0,0.0,0.0
4579,67.0,60.0,15.0,0.0,0.0
4580,67.0,60.0,15.0,0.0,0.0
4581,63.0,60.0,60.0,0.0,0.0
4582,70.0,60.0,15.0,0.0,0.0
4583,70.0,60.0,15.0,0.0,0.0
4584,67.0,60.0,60.0,0.0,0.0
4585,65.0,60.0,60.0,0.0,0.0
4586,56.0,0.0,120.0,0.0,0.0
4587,46.0,0.0,120.0,0.0,0.0
4588,67.0,120.0,60.0,0.0,0.0
4589,51.0,0.0,120.0,0.0,0.0
4590,63.0,279.0,120.0,0.0,0.0
4591,55.0,0.0,120.0,0.0,0.0
4592,39.0,0.0,150.0,0.0,0.0
4593,63.0,0.0,150.0,0.0,0.0
4594,55.0,1131.0,150.0,0.0,0.0
4595,75.0,0.0,90.0,0.0,0.0
4596,72.0,120.0,90.0,0.0,0.0
4597,72.0,0.0,90.0,0.0,0.0
4598,75.0,120.0,90.0,0.0,0.0
4599,56.0,0.0,90.0,0.0,0.0
4600,53.0,0.0,90.0,0.0,0.0
4601,72.0,120.0,90.0,0.0,0.0
4602,68.0,0.0,90.0,0.0,0.0
4603,53.0,120.0,90.0,0.0,0.0
4604,56.0,0.0,90.0,0.0,0.0
4605,53.0,0.0,90.0,0.0,0.0
4606,73.0,120.0,90.0,0.0,0.0
4607,49.0,0.0,90.0,0.0,0.0
4608,70.0,0.0,90.0,0.0,0.0
4609,73.0,0.0,90.0,0.0,0.0
4610,70.0,120.0,90.0,0.0,0.0
4611,55.0,120.0,90.0,0.0,0.0
4612,51.0,0.0,90.0,0.0,0.0
4613,70.0,0.0,90.0,0.0,0.0
4614,67.0,0.0,90.0,0.0,0.0
4615,55.0,90.0,90.0,0.0,0.0
4616,51.0,0.0,90.0,0.0,0.0
4617,68.0,60.0,60.0,0.0,0.0
4618,48.0,0.0,120.0,0.0,0.0
4619,51.0,0.0,120.0,0.0,0.0
4620,70.0,60.0,60.0,0.0,0.0
4621,72.0,60.0,60.0,0.0,0.0
4622,68.0,60.0,60.0,0.0,0.0
4623,49.0,0.0,360.0,0.0,0.0
4624,65.0,60.0,60.0,0.0,0.0
4625,67.0,60.0,60.0,0.0,0.0
4626,68.0,60.0,60.0,0.0,0.0
4627,69.0,60.0,60.0,0.0,0.0
4628,70.0,60.0,60.0,0.0,0.0
4629,72.0,60.0,60.0,0.0,0.0
4630,73.0,60.0,60.0,0.0,0.0
4631,46.0,60.0,120.0,0.0,0.0
4632,70.0,0.0,60.0,0.0,0.0
4633,51.0,60.0,120.0,0.0,0.0
4634,68.0,60.0,60.0,0.0,0.0
4635,67.0,0.0,60.0,0.0,0.0
4636,65.0,60.0,60.0,0.0,0.0
4637,63.0,90.0,60.0,0.0,0.0
4638,72.0,0.0,90.0,0.0,0.0
4639,75.0,120.0,90.0,0.0,0.0
4640,75.0,120.0,90.0,0.0,0.0
4641,72.0,0.0,90.0,0.0,0.0
4642,53.0,0.0,90.0,0.0,0.0
4643,56.0,0.0,90.0,0.0,0.0
4644,68.0,120.0,90.0,0.0,0.0
4645,72.0,0.0,90.0,0.0,0.0
4646,53.0,0.0,90.0,0.0,0.0
4647,56.0,120.0,90.0,0.0,0.0
4648,49.0,0.0,90.0,0.0,0.0
4649,46.0,0.0,90.0,0.0,0.0
4650,77.0,120.0,90.0,0.0,0.0
4651,73.0,0.0,90.0,0.0,0.0
4652,77.0,120.0,90.0,0.0,0.0
4653,73.0,0.0,90.0,0.0,0.0
4654,51.0,120.0,90.0,0.0,0.0
4655,55.0,0.0,90.0,0.0,0.0
4656,67.0,0.0,90.0,0.0,0.0
4657,70.0,0.0,90.0,0.0,0.0
4658,55.0,90.0,90.0,0.0,0.0
4659,51.0,0.0,90.0,0.0,0.0
4660,77.0,60.0,60.0,0.0,0.0
4661,44.0,0.0,120.0,0.0,0.0
4662,48.0,60.0,120.0,0.0,0.0
4663,75.0,0.0,60.0,0.0,0.0
4664,73.0,60.0,60.0,0.0,0.0
4665,72.0,60.0,60.0,0.0,0.0
4666,53.0,60.0,360.0,0.0,0.0
4667,69.0,60.0,60.0,0.0,0.0
4668,49.0,0.0,360.0,0.0,0.0
4669,70.0,60.0,60.0,0.0,0.0
4670,72.0,60.0,60.0,0.0,0.0
4671,73.0,60.0,60.0,0.0,0.0
4672,65.0,60.0,60.0,0.0,0.0
4673,68.0,0.0,60.0,0.0,0.0
4674,51.0,0.0,120.0,0.0,0.0
4675,61.0,90.0,120.0,0.0,0.0
4676,67.0,60.0,60.0,0.0,0.0
4677,70.0,0.0,60.0,0.0,0.0
4678,56.0,0.0,90.0,0.0,0.0
4679,68.0,90.0,120.0,0.0,0.0
4680,60.0,30.0,90.0,0.0,0.0
4681,44.0,120.0,90.0,0.0,0.0
4682,72.0,120.0,90.0,0.0,0.0
4683,75.0,0.0,90.0,0.0,0.0
4684,75.0,0.0,90.0,0.0,0.0
4685,72.0,120.0,90.0,0.0,0.0
4686,72.0,0.0,90.0,0.0,0.0
4687,68.0,0.0,90.0,0.0,0.0
4688,56.0,120.0,90.0,0.0,0.0
4689,53.0,0.0,90.0,0.0,0.0
4690,56.0,0.0,90.0,0.0,0.0
4691,53.0,120.0,90.0,0.0,0.0
4692,70.0,0.0,90.0,0.0,0.0
4693,73.0,120.0,90.0,0.0,0.0
4694,49.0,0.0,90.0,0.0,0.0
4695,53.0,0.0,90.0,0.0,0.0
4696,73.0,120.0,90.0,0.0,0.0
4697,70.0,0.0,90.0,0.0,0.0
4698,55.0,0.0,90.0,0.0,0.0
4699,51.0,0.0,90.0,0.0,0.0
4700,70.0,0.0,90.0,0.0,0.0
4701,67.0,120.0,90.0,0.0,0.0
4702,55.0,90.0,90.0,0.0,0.0
4703,51.0,0.0,90.0,0.0,0.0
4704,68.0,60.0,60.0,0.0,0.0
4705,51.0,60.0,120.0,0.0,0.0
4706,48.0,0.0,120.0,0.0,0.0
4707,70.0,0.0,60.0,0.0,0.0
4708,72.0,60.0,60.0,0.0,0.0
4709,68.0,60.0,60.0,0.0,0.0
4710,49.0,60.0,360.0,0.0,0.0
4711,65.0,60.0,60.0,0.0,0.0
4712,67.0,60.0,60.0,0.0,0.0
4713,68.0,60.0,60.0,0.0,0.0
4714,69.0,60.0,60.0,0.0,0.0
4715,70.0,60.0,60.0,0.0,0.0
4716,72.0,0.0,60.0,0.0,0.0
4717,46.0,0.0,120.0,0.0,0.0
4718,73.0,60.0,60.0,0.0,0.0
4719,70.0,60.0,60.0,0.0,0.0
4720,51.0,0.0,120.0,0.0,0.0
4721,68.0,60.0,60.0,0.0,0.0
4722,67.0,60.0,60.0,0.0,0.0
4723,65.0,60.0,60.0,0.0,0.0
4724,63.0,90.0,60.0,0.0,0.0
4725,75.0,120.0,90.0,0.0,0.0
4726,72.0,0.0,90.0,0.0,0.0
4727,72.0,120.0,90.0,0.0,0.0
4728,75.0,0.0,90.0,0.0,0.0
4729,68.0,0.0,90.0,0.0,0.0
4730,72.0,120.0,90.0,0.0,0.0
4731,56.0,0.0,90.0,0.0,0.0
4732,53.0,0.0,90.0,0.0,0.0
4733,53.0,0.0,90.0,0.0,0.0
4734,56.0,120.0,90.0,0.0,0.0
4735,49.0,0.0,90.0,0.0,0.0
4736,46.0,0.0,90.0,0.0,0.0
4737,73.0,120.0,90.0,0.0,0.0
4738,77.0,0.0,90.0,0.0,0.0
4739,77.0,0.0,90.0,0.0,0.0
4740,73.0,120.0,90.0,0.0,0.0
4741,55.0,120.0,90.0,0.0,0.0
4742,51.0,0.0,90.0,0.0,0.0
4743,67.0,0.0,90.0,0.0,0.0
4744,70.0,0.0,90.0,0.0,0.0
4745,51.0,90.0,90.0,0.0,0.0
4746,55.0,0.0,90.0,0.0,0.0
4747,48.0,0.0,120.0,0.0,0.0
4748,77.0,60.0,60.0,0.0,0.0
4749,44.0,0.0,120.0,0.0,0.0
4750,75.0,60.0,60.0,0.0,0.0
4751,73.0,60.0,60.0,0.0,0.0
4752,72.0,60.0,60.0,0.0,0.0
4753,49.0,0.0,360.0,0.0,0.0
4754,53.0,0.0,360.0,0.0,0.0
4755,69.0,60.0,60.0,0.0,0.0
4756,70.0,60.0,60.0,0.0,0.0
4757,72.0,60.0,60.0,0.0,0.0
4758,73.0,60.0,60.0,0.0,0.0
4759,65.0,60.0,60.0,0.0,0.0
4760,68.0,60.0,60.0,0.0,0.0
4761,61.0,0.0,120.0,0.0,0.0
4762,51.0,90.0,120.0,0.0,0.0
4763,67.0,60.0,60.0,0.0,0.0
4764,70.0,0.0,60.0,0.0,0.0
4765,60.0,30.0,90.0,0.0,0.0
4766,56.0,0.0,90.0,0.0,0.0
4767,68.0,90.0,120.0,0.0,0.0
4768,44.0,90.0,90.0,0.0,0.0
4769,72.0,60.0,60.0,0.0,0.0
4770,56.0,0.0,60.0,0.0,0.0
4771,63.0,0.0,60.0,0.0,0.0
4772,74.0,45.0,60.0,0.0,0.0
4773,75.0,15.0,40.0,0.0,0.0
4774,60.0,45.0,60.0,0.0,0.0
4775,63.0,60.0,60.0,0.0,0.0
4776,75.0,15.0,40.0,0.0,0.0
4777,77.0,60.0,60.0,0.0,0.0
4778,55.0,0.0,60.0,0.0,0.0
4779,63.0,0.0,60.0,0.0,0.0
4780,75.0,60.0,60.0,0.0,0.0
4781,74.0,0.0,60.0,0.0,0.0
4782,58.0,60.0,60.0,0.0,0.0
4783,63.0,0.0,60.0,0.0,0.0
4784,72.0,45.0,60.0,0.0,0.0
4785,70.0,15.0,40.0,0.0,0.0
4786,50.0,45.0,60.0,0.0,0.0
4787,70.0,15.0,40.0,0.0,0.0
4788,58.0,45.0,60.0,0.0,0.0
4789,70.0,15.0,40.0,0.0,0.0
4790,53.0,45.0,60.0,0.0,0.0
4791,70.0,15.0,40.0,0.0,0.0
4792,58.0,60.0,60.0,0.0,0.0
4793,51.0,0.0,60.0,0.0,0.0
4794,72.0,60.0,60.0,0.0,0.0
4795,70.0,0.0,60.0,0.0,0.0
4796,58.0,60.0,60.0,0.0,0.0
4797,68.0,60.0,60.0,0.0,0.0
4798,55.0,0.0,60.0,0.0,0.0
4799,67.0,60.0,60.0,0.0,0.0
4800,58.0,0.0,60.0,0.0,0.0
4801,43.0,60.0,60.0,0.0,0.0
4802,84.0,0.0,60.0,0.0,0.0
4803,82.0,0.0,60.0,0.0,0.0
4804,51.0,60.0,60.0,0.0,0.0
4805,80.0,60.0,60.0,0.0,0.0
4806,46.0,0.0,60.0,0.0,0.0
4807,79.0,60.0,60.0,0.0,0.0
4808,51.0,0.0,60.0,0.0,0.0
4809,44.0,60.0,60.0,0.0,0.0
4810,76.0,0.0,60.0,0.0,0.0
4811,53.0,0.0,60.0,0.0,0.0
4812,77.0,60.0,60.0,0.0,0.0
4813,48.0,0.0,60.0,0.0,0.0
4814,79.0,60.0,60.0,0.0,0.0
4815,80.0,60.0,60.0,0.0,0.0
4816,53.0,0.0,60.0,0.0,0.0
4817,72.0,60.0,60.0,0.0,0.0
4818,45.0,0.0,60.0,0.0,0.0
4819,74.0,60.0,60.0,0.0,0.0
4820,53.0,0.0,60.0,0.0,0.0
4821,75.0,0.0,60.0,0.0,0.0
4822,48.0,60.0,60.0,0.0,0.0
4823,53.0,60.0,60.0,0.0,0.0
4824,77.0,0.0,60.0,0.0,0.0
4825,46.0,60.0,120.0,0.0,0.0
4826,75.0,60.0,60.0,0.0,0.0
4827,74.0,0.0,60.0,0.0,0.0
4828,72.0,60.0,60.0,0.0,0.0
4829,70.0,90.0,60.0,0.0,0.0
4830,79.0,0.0,90.0,0.0,0.0
4831,82.0,120.0,90.0,0.0,0.0
4832,82.0,0.0,90.0,0.0,0.0
4833,79.0,120.0,90.0,0.0,0.0
4834,75.0,30.0,180.0,0.0,0.0
4835,60.0,90.0,90.0,0.0,0.0
4836,79.0,0.0,180.0,0.0,0.0
4837,63.0,0.0,90.0,0.0,0.0
4838,60.0,0.0,90.0,0.0,0.0
4839,63.0,120.0,90.0,0.0,0.0
4840,60.0,0.0,90.0,0.0,0.0
4841,80.0,0.0,90.0,0.0,0.0
4842,77.0,120.0,90.0,0.0,0.0
4843,56.0,0.0,90.0,0.0,0.0
4844,80.0,120.0,90.0,0.0,0.0
4845,77.0,0.0,90.0,0.0,0.0
4846,74.0,30.0,180.0,0.0,0.0
4847,77.0,0.0,180.0,0.0,0.0
4848,62.0,90.0,90.0,0.0,0.0
4849,58.0,0.0,90.0,0.0,0.0
4850,62.0,90.0,90.0,0.0,0.0
4851,58.0,0.0,90.0,0.0,0.0
4852,75.0,60.0,60.0,0.0,0.0
4853,58.0,0.0,120.0,0.0,0.0
4854,55.0,60.0,120.0,0.0,0.0
4855,77.0,0.0,60.0,0.0,0.0
4856,79.0,60.0,60.0,0.0,0.0
4857,75.0,60.0,60.0,0.0,0.0
4858,71.0,60.0,60.0,0.0,0.0
4859,51.0,60.0,360.0,0.0,0.0
4860,44.0,60.0,240.0,0.0,0.0
4861,72.0,60.0,60.0,0.0,0.0
4862,75.0,60.0,60.0,0.0,0.0
4863,72.0,0.0,60.0,0.0,0.0
4864,46.0,0.0,240.0,0.0,0.0
4865,70.0,60.0,60.0,0.0,0.0
4866,67.0,0.0,60.0,0.0,0.0
4867,50.0,90.0,120.0,0.0,0.0
4868,68.0,60.0,60.0,0.0,0.0
4869,65.0,0.0,60.0,0.0,0.0
4870,51.0,30.0,90.0,0.0,0.0
4871,63.0,90.0,120.0,0.0,0.0
4872,39.0,90.0,90.0,0.0,0.0
4873,63.0,60.0,60.0,0.0,0.0
4874,65.0,60.0,60.0,0.0,0.0
4875,67.0,60.0,60.0,0.0,0.0
4876,68.0,90.0,60.0,0.0,0.0
4877,51.0,0.0,90.0,0.0,0.0
4878,70.0,90.0,120.0,0.0,0.0
4879,55.0,30.0,90.0,0.0,0.0
4880,39.0,90.0,90.0,0.0,0.0
4881,67.0,60.0,60.0,0.0,0.0
4882,68.0,60.0,60.0,0.0,0.0
4883,70.0,60.0,60.0,0.0,0.0
4884,72.0,90.0,60.0,0.0,0.0
4885,51.0,0.0,90.0,0.0,0.0
4886,73.0,90.0,120.0,0.0,0.0
4887,55.0,30.0,90.0,0.0,0.0
4888,39.0,90.0,90.0,0.0,0.0
4889,70.0,60.0,60.0,0.0,0.0
4890,72.0,60.0,60.0,0.0,0.0
4891,73.0,60.0,60.0,0.0,0.0
4892,75.0,120.0,60.0,0.0,0.0
4893,77.0,120.0,120.0,0.0,0.0
4894,76.0,120.0,120.0,0.0,0.0
4895,75.0,120.0,120.0,0.0,0.0
4896,74.0,120.0,120.0,0.0,0.0
4897,73.0,210.0,120.0,0.0,0.0
4898,72.0,120.0,90.0,0.0,0.0
4899,75.0,0.0,90.0,0.0,0.0
4900,75.0,0.0,90.0,0.0,0.0
4901,72.0,120.0,90.0,0.0,0.0
4902,72.0,0.0,90.0,0.0,0.0
4903,68.0,0.0,90.0,0.0,0.0
4904,56.0,0.0,90.0,0.0,0.0
4905,53.0,120.0,90.0,0.0,0.0
4906,56.0,120.0,90.0,0.0,0.0
4907,53.0,0.0,90.0,0.0,0.0
4908,53.0,0.0,90.0,0.0,0.0
4909,49.0,0.0,90.0,0.0,0.0
4910,73.0,0.0,90.0,0.0,0.0
4911,70.0,120.0,90.0,0.0,0.0
4912,70.0,120.0,90.0,0.0,0.0
4913,73.0,0.0,90.0,0.0,0.0
4914,51.0,0.0,90.0,0.0,0.0
4915,55.0,0.0,90.0,0.0,0.0
4916,67.0,120.0,90.0,0.0,0.0
4917,70.0,0.0,90.0,0.0,0.0
4918,51.0,0.0,90.0,0.0,0.0
4919,55.0,90.0,90.0,0.0,0.0
4920,51.0,0.0,120.0,0.0,0.0
4921,48.0,0.0,120.0,0.0,0.0
4922,68.0,60.0,60.0,0.0,0.0
4923,70.0,60.0,60.0,0.0,0.0
4924,72.0,60.0,60.0,0.0,0.0
4925,68.0,60.0,60.0,0.0,0.0
4926,49.0,60.0,360.0,0.0,0.0
4927,65.0,60.0,60.0,0.0,0.0
4928,67.0,60.0,60.0,0.0,0.0
4929,68.0,60.0,60.0,0.0,0.0
4930,69.0,60.0,60.0,0.0,0.0
4931,70.0,60.0,60.0,0.0,0.0
4932,72.0,0.0,60.0,0.0,0.0
4933,46.0,60.0,120.0,0.0,0.0
4934,73.0,60.0,60.0,0.0,0.0
4935,70.0,0.0,60.0,0.0,0.0
4936,68.0,60.0,60.0,0.0,0.0
4937,51.0,0.0,120.0,0.0,0.0
4938,67.0,60.0,60.0,0.0,0.0
4939,65.0,60.0,60.0,0.0,0.0
4940,63.0,90.0,60.0,0.0,0.0
4941,75.0,120.0,90.0,0.0,0.0
4942,72.0,0.0,90.0,0.0,0.0
4943,75.0,0.0,90.0,0.0,0.0
4944,72.0,120.0,90.0,0.0,0.0
4945,56.0,120.0,90.0,0.0,0.0
4946,53.0,0.0,90.0,0.0,0.0
4947,68.0,0.0,90.0,0.0,0.0
4948,72.0,0.0,90.0,0.0,0.0
4949,53.0,0.0,90.0,0.0,0.0
4950,56.0,120.0,90.0,0.0,0.0
4951,49.0,120.0,90.0,0.0,0.0
4952,46.0,0.0,90.0,0.0,0.0
4953,77.0,0.0,90.0,0.0,0.0
4954,73.0,0.0,90.0,0.0,0.0
4955,77.0,0.0,90.0,0.0,0.0
4956,73.0,120.0,90.0,0.0,0.0
4957,55.0,0.0,90.0,0.0,0.0
4958,51.0,0.0,90.0,0.0,0.0
4959,70.0,120.0,90.0,0.0,0.0
4960,67.0,0.0,90.0,0.0,0.0
4961,51.0,90.0,90.0,0.0,0.0
4962,55.0,0.0,90.0,0.0,0.0
4963,44.0,0.0,120.0,0.0,0.0
4964,48.0,0.0,120.0,0.0,0.0
4965,77.0,60.0,60.0,0.0,0.0
4966,75.0,60.0,60.0,0.0,0.0
4967,73.0,60.0,60.0,0.0,0.0
4968,72.0,60.0,60.0,0.0,0.0
4969,69.0,60.0,60.0,0.0,0.0
4970,49.0,0.0,360.0,0.0,0.0
4971,53.0,60.0,360.0,0.0,0.0
4972,70.0,60.0,60.0,0.0,0.0
4973,72.0,60.0,60.0,0.0,0.0
4974,73.0,60.0,60.0,0.0,0.0
4975,65.0,60.0,60.0,0.0,0.0
4976,68.0,0.0,60.0,0.0,0.0
4977,61.0,0.0,120.0,0.0,0.0
4978,67.0,60.0,60.0,0.0,0.0
4979,51.0,120.0,120.0,0.0,0.0
4980,70.0,0.0,60.0,0.0,0.0
4981,68.0,0.0,120.0,0.0,0.0
4982,56.0,0.0,120.0,0.0,0.0
4983,60.0,90.0,120.0,0.0,0.0
4984,44.0,120.0,90.0,0.0,0.0
4985,60.0,0.0,90.0,0.0,0.0
4986,56.0,120.0,90.0,0.0,0.0
4987,60.0,0.0,90.0,0.0,0.0
4988,56.0,90.0,90.0,0.0,0.0
4989,53.0,0.0,90.0,0.0,0.0
4990,72.0,30.0,60.0,0.0,0.0
4991,56.0,30.0,90.0,0.0,0.0
4992,71.0,60.0,60.0,0.0,0.0
4993,73.0,60.0,60.0,0.0,0.0
4994,72.0,90.0,60.0,0.0,0.0
4995,58.0,0.0,90.0,0.0,0.0
4996,55.0,120.0,90.0,0.0,0.0
4997,55.0,90.0,90.0,0.0,0.0
4998,58.0,0.0,90.0,0.0,0.0
4999,55.0,30.0,90.0,0.0,0.0
5000,52.0,0.0,90.0,0.0,0.0
5001,72.0,30.0,60.0,0.0,0.0
5002,71.0,60.0,60.0,0.0,0.0
5003,73.0,45.0,60.0,0.0,0.0
5004,72.0,105.0,40.0,0.0,0.0
5005,80.0,120.0,90.0,0.0,0.0
5006,72.0,0.0,90.0,0.0,0.0
5007,80.0,0.0,90.0,0.0,0.0
5008,72.0,90.0,90.0,0.0,0.0
5009,77.0,30.0,90.0,0.0,0.0
5010,60.0,30.0,60.0,0.0,0.0
5011,68.0,0.0,90.0,0.0,0.0
5012,59.0,60.0,60.0,0.0,0.0
5013,61.0,60.0,60.0,0.0,0.0
5014,60.0,90.0,60.0,0.0,0.0
5015,79.0,0.0,90.0,0.0,0.0
5016,70.0,120.0,90.0,0.0,0.0
5017,79.0,0.0,90.0,0.0,0.0
5018,70.0,90.0,90.0,0.0,0.0
5019,67.0,0.0,90.0,0.0,0.0
5020,60.0,30.0,60.0,0.0,0.0
5021,76.0,30.0,90.0,0.0,0.0
5022,59.0,60.0,60.0,0.0,0.0
5023,61.0,60.0,60.0,0.0,0.0
5024,77.0,60.0,60.0,0.0,0.0
5025,60.0,60.0,15.0,0.0,0.0
5026,56.0,60.0,240.0,0.0,0.0
5027,72.0,60.0,60.0,0.0,0.0
5028,68.0,60.0,60.0,0.0,0.0
5029,65.0,0.0,60.0,0.0,0.0
5030,68.0,60.0,60.0,0.0,0.0
5031,58.0,0.0,240.0,0.0,0.0
5032,61.0,60.0,240.0,0.0,0.0
5033,66.0,45.0,15.0,0.0,0.0
5034,66.0,15.0,40.0,0.0,0.0
5035,63.0,0.0,240.0,0.0,0.0
5036,70.0,60.0,60.0,0.0,0.0
5037,60.0,60.0,240.0,0.0,0.0
5038,69.0,45.0,60.0,0.0,0.0
5039,69.0,60.0,40.0,0.0,0.0
5040,69.0,15.0,40.0,0.0,0.0
5041,61.0,0.0,120.0,0.0,0.0
5042,65.0,0.0,480.0,0.0,0.0
5043,72.0,60.0,60.0,0.0,0.0
5044,70.0,60.0,60.0,0.0,0.0
5045,57.0,60.0,120.0,0.0,0.0
5046,73.0,60.0,60.0,0.0,0.0
5047,72.0,0.0,60.0,0.0,0.0
5048,75.0,60.0,60.0,0.0,0.0
5049,58.0,0.0,120.0,0.0,0.0
5050,60.0,0.0,120.0,0.0,0.0
5051,73.0,60.0,15.0,0.0,0.0
5052,61.0,0.0,120.0,0.0,0.0
5053,72.0,60.0,15.0,0.0,0.0
5054,65.0,240.0,120.0,0.0,0.0
5055,71.0,0.0,60.0,0.0,0.0
5056,80.0,120.0,240.0,0.0,0.0
5057,65.0,0.0,120.0,0.0,0.0
5058,61.0,0.0,120.0,0.0,0.0
5059,71.0,60.0,120.0,0.0,0.0
5060,72.0,60.0,120.0,0.0,0.0
5061,48.0,60.0,60.0,0.0,0.0
5062,60.0,0.0,60.0,0.0,0.0
5063,52.0,60.0,60.0,0.0,0.0
5064,60.0,60.0,60.0,0.0,0.0
5065,79.0,60.0,60.0,0.0,0.0
5066,55.0,0.0,60.0,0.0,0.0
5067,76.0,0.0,60.0,0.0,0.0
5068,60.0,60.0,60.0,0.0,0.0
5069,52.0,60.0,60.0,0.0,0.0
5070,72.0,0.0,60.0,0.0,0.0
5071,60.0,60.0,60.0,0.0,0.0
5072,70.0,0.0,60.0,0.0,0.0
5073,68.0,60.0,60.0,0.0,0.0
5074,48.0,0.0,60.0,0.0,0.0
5075,60.0,0.0,60.0,0.0,0.0
5076,72.0,60.0,60.0,0.0,0.0
5077,77.0,60.0,60.0,0.0,0.0
5078,53.0,0.0,60.0,0.0,0.0
5079,76.0,0.0,60.0,0.0,0.0
5080,60.0,60.0,60.0,0.0,0.0
5081,56.0,0.0,60.0,0.0,0.0
5082,77.0,60.0,60.0,0.0,0.0
5083,60.0,0.0,60.0,0.0,0.0
5084,72.0,60.0,60.0,0.0,0.0
5085,68.0,60.0,60.0,0.0,0.0
5086,53.0,0.0,60.0,0.0,0.0
5087,65.0,0.0,60.0,0.0,0.0
5088,60.0,60.0,60.0,0.0,0.0
5089,64.0,60.0,60.0,0.0,0.0
5090,48.0,0.0,60.0,0.0,0.0
5091,60.0,0.0,60.0,0.0,0.0
5092,67.0,60.0,60.0,0.0,0.0
5093,52.0,0.0,60.0,0.0,0.0
5094,72.0,60.0,60.0,0.0,0.0
5095,60.0,60.0,60.0,0.0,0.0
5096,76.0,0.0,60.0,0.0,0.0
5097,55.0,60.0,60.0,0.0,0.0
5098,79.0,0.0,60.0,0.0,0.0
5099,76.0,0.0,60.0,0.0,0.0
5100,60.0,60.0,60.0,0.0,0.0
5101,72.0,60.0,60.0,0.0,0.0
5102,52.0,0.0,60.0,0.0,0.0
5103,70.0,60.0,60.0,0.0,0.0
5104,60.0,0.0,60.0,0.0,0.0
5105,68.0,60.0,60.0,0.0,0.0
5106,48.0,0.0,60.0,0.0,0.0
5107,60.0,60.0,60.0,0.0,0.0
5108,72.0,0.0,60.0,0.0,0.0
5109,53.0,0.0,60.0,0.0,0.0
5110,77.0,60.0,60.0,0.0,0.0
5111,76.0,60.0,60.0,0.0,0.0
5112,60.0,0.0,60.0,0.0,0.0
5113,56.0,0.0,60.0,0.0,0.0
5114,77.0,60.0,60.0,0.0,0.0
5115,72.0,60.0,60.0,0.0,0.0
5116,60.0,0.0,60.0,0.0,0.0
5117,53.0,0.0,60.0,0.0,0.0
5118,68.0,60.0,60.0,0.0,0.0
5119,60.0,0.0,60.0,0.0,0.0
5120,65.0,120.0,60.0,0.0,0.0
5121,60.0,210.0,120.0,0.0,0.0
5122,48.0,0.0,120.0,0.0,0.0
5123,72.0,0.0,90.0,0.0,0.0
5124,68.0,120.0,90.0,0.0,0.0
5125,72.0,0.0,90.0,0.0,0.0
5126,68.0,90.0,90.0,0.0,0.0
5127,68.0,30.0,90.0,0.0,0.0
5128,65.0,0.0,90.0,0.0,0.0
5129,60.0,30.0,60.0,0.0,0.0
5130,59.0,60.0,60.0,0.0,0.0
5131,61.0,60.0,60.0,0.0,0.0
5132,60.0,90.0,60.0,0.0,0.0
5133,67.0,0.0,90.0,0.0,0.0
5134,70.0,120.0,90.0,0.0,0.0
5135,67.0,90.0,90.0,0.0,0.0
5136,70.0,0.0,90.0,0.0,0.0
5137,60.0,30.0,60.0,0.0,0.0
5138,64.0,0.0,90.0,0.0,0.0
5139,67.0,30.0,90.0,0.0,0.0
5140,59.0,60.0,60.0,0.0,0.0
5141,61.0,60.0,60.0,0.0,0.0
5142,60.0,90.0,60.0,0.0,0.0
5143,56.0,120.0,90.0,0.0,0.0
5144,48.0,0.0,90.0,0.0,0.0
5145,48.0,0.0,90.0,0.0,0.0
5146,56.0,90.0,90.0,0.0,0.0
5147,53.0,30.0,90.0,0.0,0.0
5148,60.0,30.0,60.0,0.0,0.0
5149,44.0,0.0,90.0,0.0,0.0
5150,59.0,60.0,60.0,0.0,0.0
5151,61.0,60.0,60.0,0.0,0.0
5152,60.0,90.0,60.0,0.0,0.0
5153,55.0,120.0,90.0,0.0,0.0
5154,46.0,0.0,90.0,0.0,0.0
5155,46.0,90.0,90.0,0.0,0.0
5156,55.0,0.0,90.0,0.0,0.0
5157,52.0,30.0,90.0,0.0,0.0
5158,84.0,30.0,60.0,0.0,0.0
5159,43.0,0.0,90.0,0.0,0.0
5160,83.0,60.0,60.0,0.0,0.0
5161,85.0,60.0,60.0,0.0,0.0
5162,84.0,60.0,60.0,0.0,0.0
5163,52.0,60.0,240.0,0.0,0.0
5164,82.0,60.0,60.0,0.0,0.0
5165,55.0,0.0,240.0,0.0,0.0
5166,81.0,60.0,60.0,0.0,0.0
5167,84.0,60.0,60.0,0.0,0.0
5168,82.0,0.0,15.0,0.0,0.0
5169,53.0,60.0,120.0,0.0,0.0
5170,56.0,0.0,120.0,0.0,0.0
5171,80.0,0.0,60.0,0.0,0.0
5172,80.0,60.0,60.0,0.0,0.0
5173,55.0,60.0,120.0,0.0,0.0
5174,58.0,0.0,120.0,0.0,0.0
5175,79.0,0.0,60.0,0.0,0.0
5176,60.0,0.0,240.0,0.0,0.0
5177,79.0,60.0,60.0,0.0,0.0
5178,56.0,0.0,120.0,0.0,0.0
5179,77.0,60.0,15.0,0.0,0.0
5180,57.0,60.0,120.0,0.0,0.0
5181,75.0,0.0,60.0,0.0,0.0
5182,65.0,60.0,480.0,0.0,0.0
5183,58.0,0.0,120.0,0.0,0.0
5184,75.0,60.0,60.0,0.0,0.0
5185,73.0,60.0,15.0,0.0,0.0
5186,60.0,0.0,120.0,0.0,0.0
5187,61.0,0.0,120.0,0.0,0.0
5188,72.0,60.0,15.0,0.0,0.0
5189,60.0,0.0,120.0,0.0,0.0
5190,70.0,60.0,15.0,0.0,0.0
5191,68.0,0.0,60.0,0.0,0.0
5192,66.0,60.0,60.0,0.0,0.0
5193,61.0,0.0,240.0,0.0,0.0
5194,58.0,0.0,240.0,0.0,0.0
5195,73.0,60.0,60.0,0.0,0.0
5196,70.0,60.0,60.0,0.0,0.0
5197,66.0,120.0,60.0,0.0,0.0
5198,48.0,0.0,240.0,0.0,0.0
5199,65.0,120.0,120.0,0.0,0.0
5200,56.0,0.0,120.0,0.0,0.0
5201,64.0,60.0,120.0,0.0,0.0
5202,55.0,0.0,120.0,0.0,0.0
5203,65.0,60.0,120.0,0.0,0.0
5204,53.0,60.0,60.0,0.0,0.0
5205,56.0,0.0,60.0,0.0,0.0
5206,60.0,60.0,60.0,0.0,0.0
5207,56.0,60.0,60.0,0.0,0.0
5208,64.0,60.0,60.0,0.0,0.0
5209,48.0,0.0,60.0,0.0,0.0
5210,70.0,60.0,60.0,0.0,0.0
5211,55.0,0.0,60.0,0.0,0.0
5212,67.0,0.0,60.0,0.0,0.0
5213,58.0,60.0,60.0,0.0,0.0
5214,64.0,60.0,60.0,0.0,0.0
5215,55.0,0.0,60.0,0.0,0.0
5216,53.0,60.0,60.0,0.0,0.0
5217,65.0,60.0,120.0,0.0,0.0
5218,56.0,0.0,60.0,0.0,0.0
5219,60.0,60.0,60.0,0.0,0.0
5220,56.0,60.0,60.0,0.0,0.0
5221,48.0,0.0,60.0,0.0,0.0
5222,64.0,60.0,60.0,0.0,0.0
5223,55.0,60.0,60.0,0.0,0.0
5224,70.0,0.0,60.0,0.0,0.0
5225,67.0,60.0,60.0,0.0,0.0
5226,58.0,0.0,60.0,0.0,0.0
5227,64.0,0.0,60.0,0.0,0.0
5228,55.0,60.0,60.0,0.0,0.0
5229,65.0,60.0,120.0,0.0,0.0
5230,53.0,60.0,60.0,0.0,0.0
5231,56.0,0.0,60.0,0.0,0.0
5232,60.0,60.0,60.0,0.0,0.0
5233,56.0,60.0,60.0,0.0,0.0
5234,64.0,60.0,60.0,0.0,0.0
5235,48.0,0.0,60.0,0.0,0.0
5236,55.0,60.0,60.0,0.0,0.0
5237,70.0,0.0,60.0,0.0,0.0
5238,58.0,0.0,60.0,0.0,0.0
5239,67.0,60.0,60.0,0.0,0.0
5240,55.0,60.0,60.0,0.0,0.0
5241,64.0,0.0,60.0,0.0,0.0
5242,53.0,0.0,60.0,0.0,0.0
5243,65.0,60.0,60.0,0.0,0.0
5244,72.0,0.0,60.0,0.0,0.0
5245,56.0,60.0,60.0,0.0,0.0
5246,68.0,0.0,60.0,0.0,0.0
5247,60.0,60.0,60.0,0.0,0.0
5248,65.0,60.0,60.0,0.0,0.0
5249,56.0,0.0,60.0,0.0,0.0
5250,67.0,60.0,60.0,0.0,0.0
5251,51.0,0.0,60.0,0.0,0.0
5252,73.0,60.0,60.0,0.0,0.0
5253,58.0,0.0,60.0,0.0,0.0
5254,70.0,0.0,60.0,0.0,0.0
5255,61.0,60.0,60.0,0.0,0.0
5256,58.0,0.0,60.0,0.0,0.0
5257,67.0,810.0,60.0,0.0,0.0
5258,75.0,120.0,90.0,0.0,0.0
5259,72.0,0.0,90.0,0.0,0.0
5260,72.0,120.0,90.0,0.0,0.0
5261,75.0,0.0,90.0,0.0,0.0
5262,72.0,0.0,90.0,0.0,0.0
5263,68.0,0.0,90.0,0.0,0.0
5264,53.0,120.0,90.0,0.0,0.0
5265,56.0,0.0,90.0,0.0,0.0
5266,56.0,0.0,90.0,0.0,0.0
5267,53.0,120.0,90.0,0.0,0.0
5268,53.0,0.0,90.0,0.0,0.0
5269,49.0,0.0,90.0,0.0,0.0
5270,70.0,120.0,90.0,0.0,0.0
5271,73.0,0.0,90.0,0.0,0.0
5272,73.0,120.0,90.0,0.0,0.0
5273,70.0,0.0,90.0,0.0,0.0
5274,51.0,0.0,90.0,0.0,0.0
5275,70.0,120.0,90.0,0.0,0.0
5276,67.0,0.0,90.0,0.0,0.0
5277,55.0,0.0,90.0,0.0,0.0
5278,55.0,0.0,90.0,0.0,0.0
5279,51.0,90.0,90.0,0.0,0.0
5280,68.0,60.0,60.0,0.0,0.0
5281,51.0,0.0,120.0,0.0,0.0
5282,48.0,60.0,120.0,0.0,0.0
5283,70.0,0.0,60.0,0.0,0.0
5284,72.0,60.0,60.0,0.0,0.0
5285,68.0,60.0,60.0,0.0,0.0
5286,49.0,60.0,360.0,0.0,0.0
5287,65.0,60.0,60.0,0.0,0.0
5288,67.0,60.0,60.0,0.0,0.0
5289,68.0,60.0,60.0,0.0,0.0
5290,69.0,60.0,60.0,0.0,0.0
5291,70.0,60.0,60.0,0.0,0.0
5292,72.0,0.0,60.0,0.0,0.0
5293,73.0,60.0,60.0,0.0,0.0
5294,46.0,60.0,120.0,0.0,0.0
5295,70.0,0.0,60.0,0.0,0.0
5296,68.0,60.0,60.0,0.0,0.0
5297,51.0,0.0,120.0,0.0,0.0
5298,67.0,60.0,60.0,0.0,0.0
5299,65.0,60.0,60.0,0.0,0.0
5300,63.0,90.0,60.0,0.0,0.0
5301,75.0,120.0,90.0,0.0,0.0
5302,72.0,0.0,90.0,0.0,0.0
5303,75.0,120.0,90.0,0.0,0.0
5304,72.0,0.0,90.0,0.0,0.0
5305,56.0,0.0,90.0,0.0,0.0
5306,72.0,0.0,90.0,0.0,0.0
5307,53.0,0.0,90.0,0.0,0.0
5308,68.0,120.0,90.0,0.0,0.0
5309,56.0,0.0,90.0,0.0,0.0
5310,53.0,120.0,90.0,0.0,0.0
5311,49.0,120.0,90.0,0.0,0.0
5312,46.0,0.0,90.0,0.0,0.0
5313,73.0,0.0,90.0,0.0,0.0
5314,77.0,0.0,90.0,0.0,0.0
5315,77.0,0.0,90.0,0.0,0.0
5316,73.0,120.0,90.0,0.0,0.0
5317,55.0,120.0,90.0,0.0,0.0
5318,51.0,0.0,90.0,0.0,0.0
5319,70.0,0.0,90.0,0.0,0.0
5320,67.0,0.0,90.0,0.0,0.0
5321,51.0,90.0,90.0,0.0,0.0
5322,55.0,0.0,90.0,0.0,0.0
5323,77.0,60.0,60.0,0.0,0.0
5324,44.0,60.0,120.0,0.0,0.0
5325,48.0,0.0,120.0,0.0,0.0
5326,75.0,0.0,60.0,0.0,0.0
5327,73.0,60.0,60.0,0.0,0.0
5328,72.0,60.0,60.0,0.0,0.0
5329,69.0,60.0,60.0,0.0,0.0
5330,49.0,60.0,360.0,0.0,0.0
5331,53.0,0.0,360.0,0.0,0.0
5332,70.0,60.0,60.0,0.0,0.0
5333,72.0,60.0,60.0,0.0,0.0
5334,73.0,60.0,60.0,0.0,0.0
5335,65.0,60.0,60.0,0.0,0.0
5336,68.0,0.0,60.0,0.0,0.0
5337,51.0,0.0,120.0,0.0,0.0
5338,61.0,0.0,120.0,0.0,0.0
5339,67.0,60.0,60.0,0.0,0.0
5340,70.0,90.0,60.0,0.0,0.0
5341,56.0,30.0,90.0,0.0,0.0
5342,60.0,0.0,120.0,0.0,0.0
5343,68.0,90.0,120.0,0.0,0.0
5344,44.0,90.0,90.0,0.0,0.0
5345,67.0,60.0,60.0,0.0,0.0
5346,49.0,0.0,60.0,0.0,0.0
5347,55.0,0.0,60.0,0.0,0.0
5348,73.0,60.0,60.0,0.0,0.0
5349,51.0,60.0,60.0,0.0,0.0
5350,70.0,0.0,60.0,0.0,0.0
5351,67.0,60.0,60.0,0.0,0.0
5352,55.0,0.0,60.0,0.0,0.0
5353,77.0,60.0,60.0,0.0,0.0
5354,48.0,0.0,60.0,0.0,0.0
5355,56.0,0.0,60.0,0.0,0.0
5356,75.0,60.0,60.0,0.0,0.0
5357,73.0,0.0,60.0,0.0,0.0
5358,51.0,60.0,60.0,0.0,0.0
5359,56.0,60.0,60.0,0.0,0.0
5360,72.0,0.0,60.0,0.0,0.0
5361,70.0,0.0,60.0,0.0,0.0
5362,49.0,60.0,60.0,0.0,0.0
5363,73.0,60.0,60.0,0.0,0.0
5364,55.0,0.0,60.0,0.0,0.0
5365,70.0,60.0,60.0,0.0,0.0
5366,51.0,0.0,60.0,0.0,0.0
5367,67.0,60.0,60.0,0.0,0.0
5368,55.0,0.0,60.0,0.0,0.0
5369,48.0,60.0,60.0,0.0,0.0
5370,77.0,0.0,60.0,0.0,0.0
5371,56.0,0.0,60.0,0.0,0.0
5372,75.0,60.0,60.0,0.0,0.0
5373,73.0,60.0,60.0,0.0,0.0
5374,51.0,0.0,60.0,0.0,0.0
5375,56.0,0.0,60.0,0.0,0.0
5376,72.0,60.0,60.0,0.0,0.0
5377,82.0,60.0,60.0,0.0,0.0
5378,49.0,0.0,60.0,0.0,0.0
5379,58.0,0.0,60.0,0.0,0.0
5380,80.0,60.0,60.0,0.0,0.0
5381,79.0,60.0,60.0,0.0,0.0
5382,53.0,0.0,60.0,0.0,0.0
5383,77.0,60.0,60.0,0.0,0.0
5384,58.0,0.0,60.0,0.0,0.0
5385,77.0,60.0,60.0,0.0,0.0
5386,51.0,0.0,60.0,0.0,0.0
5387,75.0,60.0,60.0,0.0,0.0
5388,60.0,0.0,60.0,0.0,0.0
5389,56.0,0.0,60.0,0.0,0.0
5390,73.0,60.0,60.0,0.0,0.0
5391,72.0,60.0,60.0,0.0,0.0
5392,60.0,0.0,60.0,0.0,0.0
5393,72.0,60.0,60.0,0.0,0.0
5394,51.0,0.0,60.0,0.0,0.0
5395,61.0,0.0,60.0,0.0,0.0
5396,70.0,60.0,60.0,0.0,0.0
5397,68.0,0.0,60.0,0.0,0.0
5398,58.0,60.0,60.0,0.0,0.0
5399,61.0,60.0,60.0,0.0,0.0
5400,67.0,0.0,60.0,0.0,0.0
5401,56.0,60.0,60.0,0.0,0.0
5402,70.0,60.0,120.0,0.0,0.0
5403,63.0,0.0,60.0,0.0,0.0
5404,60.0,60.0,60.0,0.0,0.0
5405,68.0,60.0,120.0,0.0,0.0
5406,63.0,0.0,60.0,0.0,0.0
5407,67.0,60.0,60.0,0.0,0.0
5408,49.0,0.0,60.0,0.0,0.0
5409,55.0,60.0,60.0,0.0,0.0
5410,73.0,0.0,60.0,0.0,0.0
5411,70.0,60.0,60.0,0.0,0.0
5412,51.0,0.0,60.0,0.0,0.0
5413,67.0,60.0,60.0,0.0,0.0
5414,55.0,0.0,60.0,0.0,0.0
5415,77.0,0.0,60.0,0.0,0.0
5416,48.0,60.0,60.0,0.0,0.0
5417,56.0,60.0,60.0,0.0,0.0
5418,75.0,0.0,60.0,0.0,0.0
5419,73.0,60.0,60.0,0.0,0.0
5420,51.0,0.0,60.0,0.0,0.0
5421,72.0,60.0,60.0,0.0,0.0
5422,56.0,0.0,60.0,0.0,0.0
5423,70.0,60.0,60.0,0.0,0.0
5424,49.0,0.0,60.0,0.0,0.0
5425,73.0,60.0,60.0,0.0,0.0
5426,55.0,0.0,60.0,0.0,0.0
5427,70.0,0.0,60.0,0.0,0.0
5428,51.0,60.0,60.0,0.0,0.0
5429,55.0,0.0,60.0,0.0,0.0
5430,67.0,60.0,60.0,0.0,0.0
5431,48.0,0.0,60.0,0.0,0.0
5432,77.0,60.0,60.0,0.0,0.0
5433,75.0,60.0,60.0,0.0,0.0
5434,56.0,0.0,60.0,0.0,0.0
5435,73.0,0.0,60.0,0.0,0.0
5436,51.0,60.0,60.0,0.0,0.0
5437,72.0,60.0,60.0,0.0,0.0
5438,56.0,0.0,60.0,0.0,0.0
5439,49.0,0.0,60.0,0.0,0.0
5440,82.0,60.0,60.0,0.0,0.0
5441,58.0,0.0,60.0,0.0,0.0
5442,80.0,60.0,60.0,0.0,0.0
5443,79.0,0.0,60.0,0.0,0.0
5444,53.0,60.0,60.0,0.0,0.0
5445,58.0,0.0,60.0,0.0,0.0
5446,51.0,0.0,60.0,0.0,0.0
5447,77.0,60.0,15.0,0.0,0.0
5448,60.0,0.0,60.0,0.0,0.0
5449,75.0,60.0,60.0,0.0,0.0
5450,73.0,60.0,60.0,0.0,0.0
5451,56.0,0.0,60.0,0.0,0.0
5452,60.0,0.0,60.0,0.0,0.0
5453,72.0,60.0,15.0,0.0,0.0
5454,51.0,60.0,60.0,0.0,0.0
5455,61.0,0.0,60.0,0.0,0.0
5456,70.0,60.0,60.0,0.0,0.0
5457,68.0,60.0,60.0,0.0,0.0
5458,58.0,0.0,60.0,0.0,0.0
5459,67.0,60.0,60.0,0.0,0.0
5460,61.0,0.0,60.0,0.0,0.0
5461,56.0,0.0,60.0,0.0,0.0
5462,68.0,60.0,60.0,0.0,0.0
5463,72.0,60.0,60.0,0.0,0.0
5464,60.0,0.0,60.0,0.0,0.0
5465,51.0,60.0,60.0,0.0,0.0
5466,63.0,0.0,60.0,0.0,0.0
5467,68.0,60.0,60.0,0.0,0.0
5468,56.0,0.0,60.0,0.0,0.0
5469,60.0,60.0,60.0,0.0,0.0
5470,48.0,0.0,60.0,0.0,0.0
5471,63.0,0.0,60.0,0.0,0.0
5472,51.0,60.0,60.0,0.0,0.0
5473,44.0,60.0,60.0,0.0,0.0
5474,56.0,0.0,60.0,0.0,0.0
5475,48.0,0.0,60.0,0.0,0.0
5476,60.0,60.0,60.0,0.0,0.0
5477,51.0,30.0,90.0,0.0,0.0
5478,63.0,30.0,60.0,0.0,0.0
5479,68.0,60.0,60.0,0.0,0.0
5480,72.0,0.0,60.0,0.0,0.0
5481,68.0,60.0,60.0,0.0,0.0
5482,39.0,30.0,90.0,0.0,0.0
5483,75.0,60.0,15.0,0.0,0.0
5484,72.0,0.0,15.0,0.0,0.0
5485,73.0,0.0,60.0,0.0,0.0
5486,70.0,60.0,60.0,0.0,0.0
5487,68.0,60.0,60.0,0.0,0.0
5488,72.0,0.0,60.0,0.0,0.0
5489,67.0,60.0,60.0,0.0,0.0
5490,70.0,0.0,60.0,0.0,0.0
5491,68.0,60.0,60.0,0.0,0.0
5492,56.0,0.0,60.0,0.0,0.0
5493,72.0,0.0,60.0,0.0,0.0
5494,60.0,60.0,60.0,0.0,0.0
5495,51.0,0.0,60.0,0.0,0.0
5496,63.0,60.0,60.0,0.0,0.0
5497,68.0,60.0,60.0,0.0,0.0
5498,56.0,0.0,60.0,0.0,0.0
5499,60.0,60.0,60.0,0.0,0.0
5500,48.0,0.0,60.0,0.0,0.0
5501,51.0,0.0,60.0,0.0,0.0
5502,63.0,60.0,60.0,0.0,0.0
5503,56.0,60.0,60.0,0.0,0.0
5504,44.0,0.0,60.0,0.0,0.0
5505,48.0,60.0,60.0,0.0,0.0
5506,60.0,0.0,60.0,0.0,0.0
5507,51.0,30.0,90.0,0.0,0.0
5508,63.0,30.0,60.0,0.0,0.0
5509,68.0,60.0,60.0,0.0,0.0
5510,68.0,60.0,60.0,0.0,0.0
5511,72.0,0.0,60.0,0.0,0.0
5512,75.0,60.0,15.0,0.0,0.0
5513,72.0,0.0,15.0,0.0,0.0
5514,39.0,30.0,90.0,0.0,0.0
5515,70.0,60.0,60.0,0.0,0.0
5516,73.0,0.0,60.0,0.0,0.0
5517,68.0,0.0,60.0,0.0,0.0
5518,72.0,60.0,60.0,0.0,0.0
5519,67.0,90.0,60.0,0.0,0.0
5520,70.0,0.0,60.0,0.0,0.0
5521,32.0,90.0,120.0,0.0,0.0
5522,68.0,30.0,90.0,0.0,0.0
5523,44.0,0.0,90.0,0.0,0.0
5524,80.0,0.0,120.0,0.0,0.0
5525,72.0,0.0,90.0,0.0,0.0
5526,36.0,90.0,120.0,0.0,0.0
5527,48.0,0.0,90.0,0.0,0.0
5528,75.0,30.0,90.0,0.0,0.0
5529,68.0,0.0,90.0,0.0,0.0
5530,51.0,30.0,90.0,0.0,0.0
5531,39.0,90.0,120.0,0.0,0.0
5532,60.0,0.0,90.0,0.0,0.0
5533,48.0,30.0,90.0,0.0,0.0
5534,60.0,0.0,90.0,0.0,0.0
5535,68.0,0.0,90.0,0.0,0.0
5536,36.0,240.0,120.0,0.0,0.0
5537,44.0,0.0,240.0,0.0,0.0
5538,32.0,0.0,240.0,0.0,0.0
5539,68.0,0.0,240.0,0.0,0.0
5540,60.0,0.0,240.0,0.0,0.0
