,note,step,duration,channel,velocity
0,47.0,66.0,90.0,12.0,0.0
1,71.0,0.0,150.0,10.0,0.0
2,71.0,0.0,150.0,8.0,0.0
3,59.0,0.0,90.0,11.0,0.0
4,71.0,30.0,150.0,7.0,0.0
5,59.0,0.0,90.0,11.0,0.0
6,47.0,96.0,90.0,12.0,0.0
7,42.0,0.0,90.0,12.0,0.0
8,66.0,0.0,150.0,7.0,0.0
9,66.0,0.0,150.0,8.0,0.0
10,66.0,30.0,150.0,10.0,0.0
11,54.0,66.0,90.0,11.0,0.0
12,42.0,0.0,90.0,12.0,0.0
13,54.0,96.0,90.0,11.0,0.0
14,51.0,0.0,90.0,11.0,0.0
15,39.0,66.0,90.0,12.0,0.0
16,63.0,30.0,150.0,8.0,0.0
17,63.0,0.0,150.0,10.0,0.0
18,63.0,0.0,150.0,7.0,0.0
19,51.0,96.0,90.0,11.0,0.0
20,39.0,0.0,90.0,12.0,0.0
21,40.0,2.0,90.0,12.0,0.0
22,64.0,46.0,90.0,10.0,0.0
23,68.0,24.0,180.0,1.0,0.0
24,71.0,16.0,540.0,5.0,0.0
25,59.0,0.0,540.0,5.0,0.0
26,52.0,0.0,90.0,11.0,0.0
27,71.0,0.0,180.0,1.0,0.0
28,64.0,0.0,150.0,7.0,0.0
29,64.0,48.0,150.0,8.0,0.0
30,71.0,2.0,90.0,10.0,0.0
31,52.0,0.0,90.0,11.0,0.0
32,40.0,0.0,90.0,12.0,0.0
33,80.0,0.0,40.0,8.0,0.0
34,83.0,0.0,40.0,7.0,0.0
35,82.0,24.0,20.0,7.0,0.0
36,71.0,96.0,90.0,10.0,0.0
37,80.0,30.0,270.0,8.0,0.0
38,40.0,0.0,90.0,12.0,0.0
39,76.0,64.0,180.0,1.0,0.0
40,52.0,0.0,90.0,11.0,0.0
41,71.0,0.0,180.0,1.0,0.0
42,83.0,24.0,20.0,7.0,0.0
43,85.0,22.0,20.0,7.0,0.0
44,83.0,0.0,180.0,7.0,0.0
45,71.0,2.0,90.0,10.0,0.0
46,40.0,0.0,90.0,12.0,0.0
47,52.0,0.0,90.0,11.0,0.0
48,71.0,50.0,90.0,10.0,0.0
49,80.0,0.0,150.0,1.0,0.0
50,76.0,30.0,150.0,1.0,0.0
51,40.0,0.0,90.0,12.0,0.0
52,52.0,0.0,90.0,11.0,0.0
53,40.0,50.0,90.0,12.0,0.0
54,71.0,0.0,90.0,10.0,0.0
55,82.0,0.0,40.0,7.0,0.0
56,52.0,0.0,90.0,11.0,0.0
57,78.0,0.0,40.0,8.0,0.0
58,80.0,0.0,40.0,7.0,0.0
59,76.0,0.0,40.0,8.0,0.0
60,71.0,0.0,90.0,10.0,0.0
61,80.0,0.0,40.0,7.0,0.0
62,76.0,46.0,40.0,8.0,0.0
63,66.0,0.0,540.0,5.0,0.0
64,42.0,0.0,90.0,12.0,0.0
65,54.0,96.0,90.0,11.0,0.0
66,76.0,0.0,40.0,1.0,0.0
67,80.0,0.0,40.0,1.0,0.0
68,54.0,0.0,540.0,5.0,0.0
69,75.0,0.0,40.0,1.0,0.0
70,78.0,0.0,40.0,1.0,0.0
71,75.0,0.0,40.0,8.0,0.0
72,78.0,0.0,40.0,7.0,0.0
73,78.0,0.0,150.0,1.0,0.0
74,71.0,0.0,90.0,10.0,0.0
75,78.0,0.0,150.0,7.0,0.0
76,75.0,30.0,150.0,8.0,0.0
77,54.0,66.0,90.0,11.0,0.0
78,42.0,0.0,90.0,12.0,0.0
79,75.0,0.0,150.0,1.0,0.0
80,42.0,0.0,90.0,12.0,0.0
81,71.0,0.0,90.0,10.0,0.0
82,54.0,50.0,90.0,11.0,0.0
83,54.0,0.0,90.0,11.0,0.0
84,76.0,0.0,40.0,8.0,0.0
85,76.0,46.0,40.0,1.0,0.0
86,42.0,0.0,90.0,12.0,0.0
87,80.0,0.0,40.0,7.0,0.0
88,71.0,0.0,90.0,10.0,0.0
89,80.0,0.0,40.0,1.0,0.0
90,78.0,50.0,40.0,7.0,0.0
91,78.0,0.0,40.0,1.0,0.0
92,75.0,0.0,40.0,8.0,0.0
93,75.0,0.0,40.0,1.0,0.0
94,75.0,0.0,40.0,8.0,0.0
95,75.0,0.0,40.0,1.0,0.0
96,66.0,0.0,90.0,10.0,0.0
97,54.0,2.0,90.0,11.0,0.0
98,42.0,0.0,90.0,12.0,0.0
99,78.0,0.0,40.0,1.0,0.0
100,78.0,46.0,40.0,7.0,0.0
101,73.0,48.0,40.0,8.0,0.0
102,73.0,0.0,40.0,1.0,0.0
103,76.0,0.0,40.0,7.0,0.0
104,76.0,0.0,40.0,1.0,0.0
105,71.0,46.0,40.0,1.0,0.0
106,71.0,0.0,40.0,8.0,0.0
107,54.0,0.0,90.0,11.0,0.0
108,42.0,0.0,90.0,12.0,0.0
109,75.0,0.0,40.0,1.0,0.0
110,66.0,0.0,90.0,10.0,0.0
111,75.0,0.0,40.0,7.0,0.0
112,76.0,166.0,40.0,7.0,0.0
113,76.0,0.0,40.0,1.0,0.0
114,73.0,0.0,40.0,8.0,0.0
115,73.0,0.0,40.0,1.0,0.0
116,64.0,68.0,180.0,10.0,0.0
117,70.0,0.0,180.0,1.0,0.0
118,73.0,0.0,180.0,7.0,0.0
119,73.0,0.0,180.0,1.0,0.0
120,70.0,0.0,180.0,8.0,0.0
121,42.0,26.0,60.0,12.0,0.0
122,54.0,0.0,60.0,11.0,0.0
123,54.0,0.0,90.0,5.0,0.0
124,66.0,2.0,90.0,5.0,0.0
125,47.0,26.0,60.0,12.0,0.0
126,75.0,0.0,150.0,1.0,0.0
127,71.0,66.0,90.0,5.0,0.0
128,75.0,0.0,150.0,7.0,0.0
129,59.0,0.0,90.0,5.0,0.0
130,71.0,0.0,150.0,8.0,0.0
131,71.0,0.0,150.0,1.0,0.0
132,59.0,0.0,60.0,11.0,0.0
133,63.0,4.0,150.0,10.0,0.0
134,42.0,0.0,60.0,12.0,0.0
135,54.0,26.0,60.0,11.0,0.0
136,66.0,0.0,90.0,5.0,0.0
137,39.0,26.0,60.0,12.0,0.0
138,63.0,0.0,90.0,5.0,0.0
139,51.0,0.0,60.0,11.0,0.0
140,59.0,0.0,90.0,5.0,0.0
141,35.0,0.0,60.0,12.0,0.0
142,47.0,26.0,60.0,11.0,0.0
143,76.0,46.0,330.0,8.0,0.0
144,88.0,0.0,330.0,7.0,0.0
145,37.0,0.0,90.0,12.0,0.0
146,49.0,96.0,90.0,11.0,0.0
147,40.0,0.0,90.0,12.0,0.0
148,52.0,48.0,90.0,11.0,0.0
149,58.0,0.0,90.0,11.0,0.0
150,46.0,94.0,90.0,12.0,0.0
151,85.0,0.0,40.0,7.0,0.0
152,73.0,2.0,40.0,8.0,0.0
153,70.0,2.0,90.0,8.0,0.0
154,82.0,0.0,90.0,7.0,0.0
155,49.0,94.0,90.0,12.0,0.0
156,61.0,0.0,90.0,11.0,0.0
157,64.0,194.0,90.0,11.0,0.0
158,52.0,0.0,90.0,12.0,0.0
159,78.0,0.0,330.0,8.0,0.0
160,90.0,46.0,330.0,7.0,0.0
161,39.0,0.0,90.0,12.0,0.0
162,51.0,96.0,90.0,11.0,0.0
163,42.0,48.0,90.0,12.0,0.0
164,54.0,0.0,90.0,11.0,0.0
165,59.0,94.0,90.0,11.0,0.0
166,47.0,0.0,90.0,12.0,0.0
167,75.0,2.0,40.0,8.0,0.0
168,87.0,0.0,40.0,7.0,0.0
169,51.0,0.0,90.0,12.0,0.0
170,83.0,2.0,90.0,7.0,0.0
171,71.0,0.0,90.0,8.0,0.0
172,63.0,94.0,90.0,11.0,0.0
173,54.0,0.0,90.0,12.0,0.0
174,66.0,162.0,90.0,11.0,0.0
175,80.0,32.0,150.0,8.0,0.0
176,92.0,30.0,270.0,7.0,0.0
177,80.0,0.0,540.0,1.0,0.0
178,68.0,46.0,540.0,1.0,0.0
179,40.0,0.0,90.0,12.0,0.0
180,52.0,64.0,90.0,11.0,0.0
181,61.0,0.0,150.0,10.0,0.0
182,56.0,0.0,90.0,11.0,0.0
183,44.0,48.0,90.0,12.0,0.0
184,64.0,2.0,90.0,8.0,0.0
185,90.0,46.0,40.0,7.0,0.0
186,68.0,30.0,150.0,8.0,0.0
187,49.0,0.0,90.0,12.0,0.0
188,61.0,0.0,90.0,11.0,0.0
189,61.0,0.0,150.0,10.0,0.0
190,88.0,50.0,40.0,7.0,0.0
191,64.0,48.0,90.0,11.0,0.0
192,87.0,16.0,40.0,7.0,0.0
193,52.0,0.0,90.0,12.0,0.0
194,85.0,2.0,40.0,7.0,0.0
195,53.0,0.0,90.0,12.0,0.0
196,65.0,0.0,90.0,10.0,0.0
197,65.0,98.0,90.0,11.0,0.0
198,73.0,0.0,90.0,8.0,0.0
199,80.0,0.0,40.0,7.0,0.0
200,85.0,0.0,40.0,7.0,0.0
201,66.0,94.0,90.0,10.0,0.0
202,66.0,0.0,90.0,11.0,0.0
203,75.0,0.0,90.0,1.0,0.0
204,54.0,0.0,90.0,12.0,0.0
205,75.0,0.0,90.0,8.0,0.0
206,83.0,0.0,90.0,7.0,0.0
207,83.0,0.0,90.0,1.0,0.0
208,67.0,0.0,90.0,11.0,0.0
209,55.0,0.0,90.0,12.0,0.0
210,76.0,0.0,90.0,1.0,0.0
211,73.0,0.0,90.0,10.0,0.0
212,76.0,96.0,90.0,8.0,0.0
213,82.0,0.0,90.0,7.0,0.0
214,82.0,0.0,90.0,1.0,0.0
215,83.0,0.0,90.0,7.0,0.0
216,75.0,2.0,90.0,8.0,0.0
217,83.0,0.0,90.0,1.0,0.0
218,68.0,0.0,90.0,11.0,0.0
219,71.0,0.0,90.0,10.0,0.0
220,56.0,94.0,90.0,12.0,0.0
221,75.0,0.0,180.0,1.0,0.0
222,59.0,0.0,300.0,5.0,0.0
223,81.0,2.0,90.0,7.0,0.0
224,63.0,0.0,90.0,8.0,0.0
225,81.0,0.0,90.0,1.0,0.0
226,71.0,30.0,150.0,10.0,0.0
227,66.0,64.0,90.0,11.0,0.0
228,54.0,0.0,90.0,12.0,0.0
229,52.0,94.0,90.0,12.0,0.0
230,64.0,0.0,90.0,8.0,0.0
231,80.0,0.0,90.0,7.0,0.0
232,80.0,0.0,90.0,1.0,0.0
233,76.0,0.0,90.0,1.0,0.0
234,64.0,0.0,90.0,11.0,0.0
235,78.0,0.0,90.0,7.0,0.0
236,63.0,96.0,90.0,11.0,0.0
237,68.0,2.0,180.0,10.0,0.0
238,51.0,0.0,90.0,12.0,0.0
239,72.0,0.0,90.0,8.0,0.0
240,61.0,94.0,90.0,11.0,0.0
241,73.0,0.0,90.0,8.0,0.0
242,49.0,0.0,90.0,12.0,0.0
243,77.0,0.0,90.0,7.0,0.0
244,76.0,0.0,90.0,7.0,0.0
245,67.0,48.0,90.0,8.0,0.0
246,46.0,2.0,90.0,12.0,0.0
247,73.0,0.0,90.0,10.0,0.0
248,58.0,0.0,90.0,11.0,0.0
249,74.0,46.0,40.0,7.0,0.0
250,59.0,0.0,90.0,11.0,0.0
251,71.0,2.0,90.0,10.0,0.0
252,47.0,0.0,90.0,12.0,0.0
253,66.0,0.0,90.0,8.0,0.0
254,75.0,48.0,40.0,7.0,0.0
255,76.0,48.0,40.0,7.0,0.0
256,77.0,48.0,40.0,7.0,0.0
257,78.0,46.0,40.0,7.0,0.0
258,39.0,2.0,90.0,12.0,0.0
259,51.0,0.0,90.0,11.0,0.0
260,79.0,48.0,40.0,7.0,0.0
261,52.0,0.0,90.0,11.0,0.0
262,40.0,50.0,90.0,12.0,0.0
263,80.0,0.0,40.0,7.0,0.0
264,64.0,46.0,40.0,8.0,0.0
265,68.0,0.0,90.0,10.0,0.0
266,73.0,0.0,40.0,8.0,0.0
267,76.0,0.0,40.0,7.0,0.0
268,66.0,0.0,40.0,10.0,0.0
269,54.0,0.0,40.0,11.0,0.0
270,42.0,48.0,40.0,12.0,0.0
271,75.0,0.0,180.0,7.0,0.0
272,71.0,94.0,180.0,8.0,0.0
273,65.0,48.0,40.0,10.0,0.0
274,41.0,0.0,40.0,12.0,0.0
275,53.0,0.0,40.0,11.0,0.0
276,54.0,46.0,40.0,11.0,0.0
277,66.0,0.0,40.0,10.0,0.0
278,42.0,0.0,40.0,12.0,0.0
279,53.0,0.0,40.0,11.0,0.0
280,65.0,0.0,40.0,10.0,0.0
281,41.0,2.0,40.0,12.0,0.0
282,70.0,0.0,150.0,8.0,0.0
283,66.0,64.0,90.0,10.0,0.0
284,73.0,30.0,150.0,7.0,0.0
285,42.0,0.0,90.0,12.0,0.0
286,54.0,2.0,90.0,11.0,0.0
287,64.0,94.0,90.0,10.0,0.0
288,40.0,2.0,90.0,12.0,0.0
289,52.0,0.0,90.0,11.0,0.0
290,51.0,0.0,90.0,11.0,0.0
291,63.0,94.0,90.0,10.0,0.0
292,39.0,2.0,90.0,12.0,0.0
293,37.0,0.0,90.0,12.0,0.0
294,61.0,0.0,90.0,10.0,0.0
295,49.0,96.0,90.0,11.0,0.0
296,59.0,0.0,150.0,10.0,0.0
297,47.0,0.0,150.0,11.0,0.0
298,75.0,0.0,90.0,7.0,0.0
299,71.0,66.0,90.0,8.0,0.0
300,83.0,30.0,150.0,6.0,0.0
301,35.0,0.0,150.0,12.0,0.0
302,71.0,0.0,90.0,8.0,0.0
303,75.0,96.0,90.0,7.0,0.0
304,75.0,0.0,90.0,7.0,0.0
305,71.0,66.0,90.0,8.0,0.0
306,78.0,30.0,150.0,6.0,0.0
307,71.0,0.0,90.0,8.0,0.0
308,75.0,96.0,90.0,7.0,0.0
309,71.0,0.0,90.0,8.0,0.0
310,78.0,66.0,90.0,7.0,0.0
311,87.0,30.0,150.0,6.0,0.0
312,71.0,0.0,90.0,8.0,0.0
313,78.0,50.0,90.0,7.0,0.0
314,84.0,48.0,40.0,6.0,0.0
315,85.0,48.0,40.0,6.0,0.0
316,70.0,96.0,90.0,8.0,0.0
317,87.0,46.0,40.0,6.0,0.0
318,78.0,0.0,90.0,7.0,0.0
319,85.0,0.0,40.0,6.0,0.0
320,70.0,0.0,90.0,8.0,0.0
321,85.0,30.0,150.0,6.0,0.0
322,78.0,66.0,90.0,7.0,0.0
323,70.0,0.0,90.0,8.0,0.0
324,78.0,96.0,90.0,7.0,0.0
325,78.0,96.0,90.0,7.0,0.0
326,70.0,0.0,90.0,8.0,0.0
327,70.0,50.0,90.0,8.0,0.0
328,78.0,0.0,90.0,7.0,0.0
329,84.0,48.0,40.0,6.0,0.0
330,85.0,48.0,40.0,6.0,0.0
331,66.0,0.0,90.0,8.0,0.0
332,70.0,0.0,90.0,7.0,0.0
333,87.0,46.0,40.0,6.0,0.0
334,85.0,96.0,40.0,6.0,0.0
335,85.0,30.0,270.0,6.0,0.0
336,70.0,96.0,90.0,7.0,0.0
337,66.0,0.0,90.0,8.0,0.0
338,70.0,0.0,90.0,7.0,0.0
339,66.0,66.0,90.0,8.0,0.0
340,70.0,0.0,90.0,7.0,0.0
341,66.0,96.0,90.0,8.0,0.0
342,70.0,0.0,90.0,7.0,0.0
343,88.0,192.0,90.0,6.0,0.0
344,66.0,0.0,90.0,8.0,0.0
345,86.0,94.0,180.0,6.0,0.0
346,78.0,0.0,90.0,8.0,0.0
347,71.0,2.0,90.0,7.0,0.0
348,71.0,0.0,90.0,7.0,0.0
349,87.0,96.0,90.0,6.0,0.0
350,78.0,0.0,90.0,8.0,0.0
351,78.0,0.0,90.0,8.0,0.0
352,71.0,96.0,90.0,7.0,0.0
353,78.0,0.0,90.0,8.0,0.0
354,71.0,96.0,90.0,7.0,0.0
355,71.0,0.0,90.0,7.0,0.0
356,78.0,96.0,90.0,8.0,0.0
357,80.0,48.0,420.0,6.0,0.0
358,76.0,96.0,90.0,8.0,0.0
359,80.0,0.0,90.0,7.0,0.0
360,80.0,96.0,90.0,7.0,0.0
361,76.0,0.0,90.0,8.0,0.0
362,73.0,96.0,90.0,8.0,0.0
363,76.0,0.0,90.0,7.0,0.0
364,76.0,48.0,90.0,7.0,0.0
365,73.0,0.0,90.0,8.0,0.0
366,71.0,0.0,90.0,7.0,0.0
367,68.0,2.0,90.0,8.0,0.0
368,83.0,48.0,40.0,6.0,0.0
369,71.0,0.0,90.0,7.0,0.0
370,68.0,96.0,90.0,8.0,0.0
371,88.0,46.0,40.0,6.0,0.0
372,92.0,0.0,40.0,6.0,0.0
373,90.0,94.0,180.0,6.0,0.0
374,70.0,0.0,90.0,8.0,0.0
375,73.0,96.0,90.0,7.0,0.0
376,70.0,0.0,90.0,8.0,0.0
377,73.0,2.0,90.0,7.0,0.0
378,88.0,30.0,150.0,6.0,0.0
379,73.0,0.0,90.0,7.0,0.0
380,70.0,66.0,90.0,8.0,0.0
381,70.0,0.0,90.0,8.0,0.0
382,73.0,96.0,90.0,7.0,0.0
383,71.0,96.0,90.0,8.0,0.0
384,78.0,0.0,90.0,7.0,0.0
385,87.0,50.0,90.0,6.0,0.0
386,71.0,0.0,90.0,8.0,0.0
387,78.0,0.0,90.0,7.0,0.0
388,80.0,46.0,150.0,7.0,0.0
389,87.0,46.0,40.0,6.0,0.0
390,64.0,0.0,90.0,8.0,0.0
391,85.0,50.0,40.0,6.0,0.0
392,88.0,0.0,40.0,6.0,0.0
393,64.0,0.0,90.0,8.0,0.0
394,85.0,96.0,40.0,6.0,0.0
395,76.0,0.0,40.0,7.0,0.0
396,66.0,66.0,90.0,8.0,0.0
397,75.0,0.0,90.0,7.0,0.0
398,83.0,30.0,150.0,6.0,0.0
399,75.0,0.0,90.0,7.0,0.0
400,66.0,10.0,90.0,8.0,0.0
401,66.0,0.0,90.0,8.0,0.0
402,73.0,2.0,90.0,7.0,0.0
403,83.0,8.0,15.0,6.0,0.0
404,82.0,8.0,15.0,6.0,0.0
405,83.0,8.0,15.0,6.0,0.0
406,82.0,8.0,15.0,6.0,0.0
407,83.0,8.0,15.0,6.0,0.0
408,82.0,8.0,15.0,6.0,0.0
409,83.0,8.0,15.0,6.0,0.0
410,82.0,8.0,15.0,6.0,0.0
411,83.0,8.0,15.0,6.0,0.0
412,82.0,8.0,15.0,6.0,0.0
413,83.0,6.0,15.0,6.0,0.0
414,82.0,8.0,15.0,6.0,0.0
415,73.0,0.0,90.0,7.0,0.0
416,83.0,8.0,15.0,6.0,0.0
417,66.0,2.0,90.0,8.0,0.0
418,82.0,8.0,15.0,6.0,0.0
419,83.0,8.0,15.0,6.0,0.0
420,82.0,8.0,15.0,6.0,0.0
421,83.0,8.0,15.0,6.0,0.0
422,82.0,24.0,15.0,6.0,0.0
423,80.0,22.0,20.0,6.0,0.0
424,82.0,94.0,20.0,6.0,0.0
425,71.0,66.0,90.0,8.0,0.0
426,71.0,0.0,90.0,7.0,0.0
427,83.0,30.0,150.0,6.0,0.0
428,71.0,0.0,90.0,10.0,0.0
429,71.0,0.0,90.0,8.0,0.0
430,47.0,0.0,90.0,12.0,0.0
431,59.0,10.0,90.0,11.0,0.0
432,71.0,0.0,90.0,7.0,0.0
433,73.0,0.0,15.0,10.0,0.0
434,49.0,0.0,15.0,12.0,0.0
435,61.0,8.0,15.0,11.0,0.0
436,73.0,0.0,15.0,7.0,0.0
437,73.0,0.0,15.0,8.0,0.0
438,59.0,0.0,15.0,11.0,0.0
439,71.0,0.0,15.0,8.0,0.0
440,71.0,0.0,15.0,10.0,0.0
441,47.0,0.0,15.0,12.0,0.0
442,71.0,8.0,15.0,7.0,0.0
443,73.0,0.0,15.0,7.0,0.0
444,73.0,0.0,15.0,10.0,0.0
445,61.0,0.0,15.0,11.0,0.0
446,49.0,0.0,15.0,12.0,0.0
447,73.0,8.0,15.0,8.0,0.0
448,71.0,0.0,15.0,7.0,0.0
449,71.0,0.0,15.0,10.0,0.0
450,47.0,0.0,15.0,12.0,0.0
451,71.0,0.0,15.0,8.0,0.0
452,59.0,8.0,15.0,11.0,0.0
453,73.0,0.0,15.0,10.0,0.0
454,49.0,0.0,15.0,12.0,0.0
455,73.0,0.0,15.0,8.0,0.0
456,61.0,8.0,15.0,11.0,0.0
457,73.0,0.0,15.0,7.0,0.0
458,71.0,0.0,15.0,7.0,0.0
459,47.0,8.0,15.0,12.0,0.0
460,71.0,0.0,15.0,10.0,0.0
461,59.0,0.0,15.0,11.0,0.0
462,71.0,0.0,15.0,8.0,0.0
463,61.0,0.0,15.0,11.0,0.0
464,73.0,0.0,15.0,10.0,0.0
465,49.0,0.0,15.0,12.0,0.0
466,73.0,8.0,15.0,7.0,0.0
467,73.0,0.0,15.0,8.0,0.0
468,71.0,0.0,15.0,8.0,0.0
469,71.0,0.0,15.0,10.0,0.0
470,47.0,8.0,15.0,12.0,0.0
471,59.0,0.0,15.0,11.0,0.0
472,71.0,0.0,15.0,7.0,0.0
473,61.0,0.0,15.0,11.0,0.0
474,73.0,0.0,15.0,10.0,0.0
475,73.0,0.0,15.0,8.0,0.0
476,73.0,0.0,15.0,7.0,0.0
477,49.0,8.0,15.0,12.0,0.0
478,59.0,0.0,15.0,11.0,0.0
479,71.0,0.0,15.0,7.0,0.0
480,47.0,8.0,15.0,12.0,0.0
481,71.0,0.0,15.0,8.0,0.0
482,71.0,0.0,15.0,10.0,0.0
483,61.0,8.0,15.0,11.0,0.0
484,73.0,0.0,15.0,8.0,0.0
485,73.0,0.0,15.0,10.0,0.0
486,73.0,0.0,15.0,7.0,0.0
487,49.0,0.0,15.0,12.0,0.0
488,71.0,0.0,15.0,7.0,0.0
489,71.0,0.0,15.0,8.0,0.0
490,71.0,8.0,15.0,10.0,0.0
491,47.0,0.0,15.0,12.0,0.0
492,59.0,0.0,15.0,11.0,0.0
493,73.0,0.0,15.0,10.0,0.0
494,61.0,0.0,15.0,11.0,0.0
495,49.0,8.0,15.0,12.0,0.0
496,73.0,0.0,15.0,8.0,0.0
497,73.0,0.0,15.0,7.0,0.0
498,71.0,0.0,15.0,7.0,0.0
499,59.0,8.0,15.0,11.0,0.0
500,71.0,0.0,15.0,8.0,0.0
501,71.0,0.0,15.0,10.0,0.0
502,47.0,0.0,15.0,12.0,0.0
503,61.0,0.0,15.0,11.0,0.0
504,73.0,0.0,15.0,7.0,0.0
505,73.0,0.0,15.0,10.0,0.0
506,73.0,8.0,15.0,8.0,0.0
507,49.0,0.0,15.0,12.0,0.0
508,59.0,8.0,15.0,11.0,0.0
509,71.0,0.0,15.0,10.0,0.0
510,47.0,0.0,15.0,12.0,0.0
511,71.0,0.0,15.0,7.0,0.0
512,71.0,0.0,15.0,8.0,0.0
513,49.0,0.0,15.0,12.0,0.0
514,73.0,0.0,15.0,10.0,0.0
515,73.0,0.0,15.0,8.0,0.0
516,73.0,0.0,15.0,7.0,0.0
517,61.0,8.0,15.0,11.0,0.0
518,71.0,0.0,15.0,10.0,0.0
519,59.0,24.0,15.0,11.0,0.0
520,47.0,0.0,15.0,12.0,0.0
521,71.0,0.0,15.0,8.0,0.0
522,71.0,0.0,15.0,7.0,0.0
523,46.0,0.0,20.0,12.0,0.0
524,70.0,22.0,20.0,10.0,0.0
525,70.0,0.0,20.0,8.0,0.0
526,58.0,0.0,20.0,11.0,0.0
527,70.0,0.0,20.0,7.0,0.0
528,71.0,0.0,20.0,7.0,0.0
529,71.0,0.0,20.0,10.0,0.0
530,59.0,96.0,20.0,11.0,0.0
531,47.0,0.0,20.0,12.0,0.0
532,71.0,0.0,20.0,8.0,0.0
533,63.0,0.0,90.0,11.0,0.0
534,51.0,96.0,90.0,12.0,0.0
535,75.0,0.0,90.0,10.0,0.0
536,75.0,0.0,90.0,7.0,0.0
537,75.0,0.0,90.0,8.0,0.0
538,67.0,26.0,90.0,10.0,0.0
539,67.0,0.0,90.0,8.0,0.0
540,67.0,0.0,90.0,7.0,0.0
541,55.0,0.0,90.0,11.0,0.0
542,43.0,0.0,90.0,12.0,0.0
543,86.0,24.0,20.0,6.0,0.0
544,44.0,30.0,150.0,12.0,0.0
545,56.0,0.0,150.0,11.0,0.0
546,68.0,66.0,90.0,7.0,0.0
547,68.0,0.0,150.0,10.0,0.0
548,68.0,0.0,90.0,8.0,0.0
549,87.0,22.0,20.0,6.0,0.0
550,88.0,24.0,20.0,6.0,0.0
551,87.0,2.0,120.0,6.0,0.0
552,68.0,96.0,90.0,8.0,0.0
553,71.0,0.0,90.0,7.0,0.0
554,85.0,0.0,90.0,6.0,0.0
555,73.0,0.0,90.0,7.0,0.0
556,70.0,96.0,90.0,8.0,0.0
557,83.0,0.0,90.0,6.0,0.0
558,75.0,0.0,90.0,7.0,0.0
559,71.0,96.0,90.0,8.0,0.0
560,76.0,94.0,90.0,7.0,0.0
561,73.0,0.0,90.0,8.0,0.0
562,82.0,0.0,90.0,6.0,0.0
563,71.0,96.0,90.0,8.0,0.0
564,80.0,0.0,90.0,6.0,0.0
565,75.0,0.0,90.0,7.0,0.0
566,73.0,0.0,90.0,7.0,0.0
567,79.0,24.0,330.0,6.0,0.0
568,70.0,96.0,90.0,8.0,0.0
569,70.0,0.0,90.0,8.0,0.0
570,73.0,96.0,90.0,7.0,0.0
571,70.0,0.0,90.0,8.0,0.0
572,73.0,50.0,90.0,7.0,0.0
573,70.0,0.0,90.0,8.0,0.0
574,73.0,96.0,90.0,7.0,0.0
575,80.0,22.0,20.0,6.0,0.0
576,82.0,0.0,20.0,6.0,0.0
577,80.0,0.0,90.0,6.0,0.0
578,71.0,96.0,90.0,8.0,0.0
579,75.0,0.0,90.0,7.0,0.0
580,75.0,0.0,90.0,7.0,0.0
581,71.0,26.0,90.0,8.0,0.0
582,84.0,24.0,20.0,6.0,0.0
583,85.0,22.0,20.0,6.0,0.0
584,87.0,120.0,20.0,6.0,0.0
585,85.0,0.0,120.0,6.0,0.0
586,70.0,0.0,90.0,7.0,0.0
587,66.0,50.0,90.0,8.0,0.0
588,85.0,46.0,40.0,6.0,0.0
589,65.0,0.0,90.0,8.0,0.0
590,68.0,48.0,90.0,7.0,0.0
591,83.0,2.0,40.0,6.0,0.0
592,83.0,46.0,40.0,6.0,0.0
593,66.0,48.0,90.0,8.0,0.0
594,70.0,0.0,90.0,7.0,0.0
595,82.0,2.0,40.0,6.0,0.0
596,82.0,46.0,40.0,6.0,0.0
597,68.0,48.0,90.0,8.0,0.0
598,71.0,0.0,90.0,7.0,0.0
599,80.0,2.0,40.0,6.0,0.0
600,70.0,0.0,90.0,8.0,0.0
601,73.0,0.0,90.0,7.0,0.0
602,80.0,46.0,40.0,6.0,0.0
603,78.0,96.0,40.0,6.0,0.0
604,77.0,32.0,210.0,6.0,0.0
605,71.0,0.0,90.0,8.0,0.0
606,74.0,96.0,90.0,7.0,0.0
607,74.0,0.0,90.0,7.0,0.0
608,71.0,34.0,90.0,8.0,0.0
609,71.0,0.0,90.0,8.0,0.0
610,74.0,0.0,90.0,7.0,0.0
611,80.0,30.0,30.0,6.0,0.0
612,78.0,34.0,30.0,6.0,0.0
613,74.0,0.0,90.0,7.0,0.0
614,77.0,32.0,30.0,6.0,0.0
615,71.0,96.0,90.0,8.0,0.0
616,78.0,30.0,30.0,6.0,0.0
617,80.0,0.0,30.0,6.0,0.0
618,73.0,0.0,90.0,7.0,0.0
619,78.0,94.0,90.0,6.0,0.0
620,70.0,2.0,90.0,8.0,0.0
621,90.0,0.0,90.0,6.0,0.0
622,73.0,98.0,90.0,7.0,0.0
623,70.0,0.0,90.0,8.0,0.0
624,89.0,94.0,90.0,6.0,0.0
625,87.0,0.0,90.0,6.0,0.0
626,78.0,0.0,90.0,7.0,0.0
627,71.0,98.0,90.0,8.0,0.0
628,78.0,0.0,90.0,7.0,0.0
629,71.0,94.0,90.0,8.0,0.0
630,85.0,0.0,90.0,6.0,0.0
631,73.0,98.0,90.0,8.0,0.0
632,77.0,0.0,90.0,7.0,0.0
633,85.0,94.0,90.0,6.0,0.0
634,84.0,98.0,90.0,6.0,0.0
635,78.0,0.0,90.0,7.0,0.0
636,63.0,0.0,90.0,8.0,0.0
637,63.0,0.0,90.0,8.0,0.0
638,78.0,94.0,90.0,7.0,0.0
639,84.0,0.0,90.0,6.0,0.0
640,81.0,98.0,90.0,7.0,0.0
641,66.0,0.0,90.0,8.0,0.0
642,85.0,94.0,90.0,6.0,0.0
643,65.0,98.0,90.0,8.0,0.0
644,80.0,0.0,90.0,7.0,0.0
645,83.0,0.0,90.0,6.0,0.0
646,80.0,94.0,90.0,7.0,0.0
647,65.0,0.0,90.0,8.0,0.0
648,66.0,96.0,90.0,8.0,0.0
649,82.0,0.0,90.0,6.0,0.0
650,73.0,0.0,90.0,7.0,0.0
651,79.0,94.0,90.0,6.0,0.0
652,75.0,0.0,90.0,7.0,0.0
653,71.0,2.0,90.0,8.0,0.0
654,71.0,50.0,90.0,8.0,0.0
655,75.0,0.0,90.0,7.0,0.0
656,80.0,46.0,150.0,6.0,0.0
657,71.0,2.0,90.0,8.0,0.0
658,75.0,0.0,90.0,7.0,0.0
659,82.0,48.0,40.0,6.0,0.0
660,75.0,0.0,90.0,7.0,0.0
661,71.0,0.0,90.0,8.0,0.0
662,83.0,46.0,40.0,6.0,0.0
663,85.0,50.0,40.0,6.0,0.0
664,75.0,2.0,90.0,7.0,0.0
665,71.0,0.0,90.0,8.0,0.0
666,86.0,46.0,40.0,6.0,0.0
667,87.0,48.0,40.0,6.0,0.0
668,71.0,10.0,90.0,8.0,0.0
669,75.0,0.0,90.0,7.0,0.0
670,83.0,46.0,40.0,6.0,0.0
671,80.0,0.0,40.0,6.0,0.0
672,73.0,2.0,90.0,8.0,0.0
673,70.0,48.0,180.0,7.0,0.0
674,73.0,48.0,2310.0,5.0,0.0
675,80.0,8.0,15.0,6.0,0.0
676,78.0,8.0,15.0,6.0,0.0
677,80.0,8.0,15.0,6.0,0.0
678,78.0,8.0,15.0,6.0,0.0
679,80.0,8.0,15.0,6.0,0.0
680,78.0,8.0,15.0,6.0,0.0
681,80.0,8.0,15.0,6.0,0.0
682,78.0,8.0,15.0,6.0,0.0
683,80.0,8.0,15.0,6.0,0.0
684,78.0,8.0,15.0,6.0,0.0
685,80.0,6.0,15.0,6.0,0.0
686,78.0,8.0,15.0,6.0,0.0
687,61.0,2.0,90.0,8.0,0.0
688,80.0,8.0,15.0,6.0,0.0
689,78.0,8.0,15.0,6.0,0.0
690,80.0,8.0,15.0,6.0,0.0
691,78.0,8.0,15.0,6.0,0.0
692,80.0,8.0,15.0,6.0,0.0
693,78.0,24.0,15.0,6.0,0.0
694,77.0,22.0,20.0,6.0,0.0
695,78.0,0.0,20.0,6.0,0.0
696,68.0,0.0,150.0,7.0,0.0
697,61.0,46.0,40.0,8.0,0.0
698,49.0,0.0,90.0,12.0,0.0
699,61.0,0.0,15.0,7.0,0.0
700,61.0,50.0,90.0,11.0,0.0
701,77.0,30.0,150.0,6.0,0.0
702,68.0,0.0,40.0,8.0,0.0
703,65.0,16.0,40.0,8.0,0.0
704,68.0,50.0,40.0,8.0,0.0
705,44.0,50.0,90.0,12.0,0.0
706,61.0,46.0,40.0,8.0,0.0
707,56.0,0.0,90.0,11.0,0.0
708,68.0,0.0,40.0,8.0,0.0
709,73.0,0.0,90.0,7.0,0.0
710,65.0,46.0,40.0,8.0,0.0
711,68.0,50.0,40.0,8.0,0.0
712,85.0,0.0,40.0,7.0,0.0
713,41.0,26.0,90.0,12.0,0.0
714,53.0,0.0,90.0,11.0,0.0
715,61.0,46.0,40.0,8.0,0.0
716,83.0,0.0,40.0,7.0,0.0
717,68.0,0.0,40.0,8.0,0.0
718,65.0,0.0,40.0,8.0,0.0
719,82.0,24.0,20.0,7.0,0.0
720,83.0,24.0,20.0,7.0,0.0
721,85.0,22.0,20.0,7.0,0.0
722,68.0,50.0,40.0,8.0,0.0
723,83.0,0.0,120.0,7.0,0.0
724,61.0,46.0,40.0,8.0,0.0
725,37.0,0.0,90.0,12.0,0.0
726,49.0,0.0,90.0,11.0,0.0
727,68.0,0.0,90.0,10.0,0.0
728,68.0,50.0,40.0,8.0,0.0
729,65.0,46.0,40.0,8.0,0.0
730,82.0,0.0,40.0,7.0,0.0
731,80.0,50.0,40.0,7.0,0.0
732,68.0,0.0,40.0,8.0,0.0
733,82.0,46.0,40.0,7.0,0.0
734,61.0,0.0,40.0,8.0,0.0
735,65.0,0.0,90.0,10.0,0.0
736,49.0,0.0,90.0,12.0,0.0
737,61.0,0.0,90.0,11.0,0.0
738,80.0,48.0,40.0,7.0,0.0
739,71.0,2.0,40.0,8.0,0.0
740,78.0,0.0,40.0,7.0,0.0
741,68.0,46.0,40.0,8.0,0.0
742,77.0,50.0,40.0,7.0,0.0
743,71.0,0.0,40.0,8.0,0.0
744,78.0,46.0,40.0,7.0,0.0
745,61.0,0.0,40.0,8.0,0.0
746,54.0,2.0,90.0,11.0,0.0
747,70.0,0.0,90.0,10.0,0.0
748,42.0,0.0,90.0,12.0,0.0
749,90.0,0.0,240.0,6.0,0.0
750,70.0,0.0,40.0,8.0,0.0
751,82.0,48.0,40.0,7.0,0.0
752,87.0,46.0,40.0,7.0,0.0
753,66.0,0.0,40.0,8.0,0.0
754,70.0,0.0,40.0,8.0,0.0
755,85.0,50.0,40.0,7.0,0.0
756,85.0,30.0,150.0,7.0,0.0
757,66.0,0.0,90.0,11.0,0.0
758,61.0,46.0,40.0,8.0,0.0
759,58.0,10.0,90.0,10.0,0.0
760,54.0,0.0,90.0,12.0,0.0
761,89.0,0.0,40.0,6.0,0.0
762,70.0,0.0,40.0,8.0,0.0
763,89.0,8.0,15.0,6.0,0.0
764,66.0,16.0,40.0,8.0,0.0
765,87.0,8.0,15.0,6.0,0.0
766,89.0,8.0,15.0,6.0,0.0
767,87.0,8.0,15.0,6.0,0.0
768,89.0,6.0,15.0,6.0,0.0
769,87.0,2.0,15.0,6.0,0.0
770,85.0,0.0,40.0,6.0,0.0
771,70.0,10.0,40.0,8.0,0.0
772,54.0,10.0,90.0,10.0,0.0
773,61.0,46.0,40.0,8.0,0.0
774,85.0,8.0,15.0,6.0,0.0
775,83.0,8.0,15.0,6.0,0.0
776,85.0,8.0,15.0,6.0,0.0
777,83.0,8.0,15.0,6.0,0.0
778,85.0,6.0,15.0,6.0,0.0
779,83.0,2.0,15.0,6.0,0.0
780,70.0,0.0,40.0,8.0,0.0
781,82.0,0.0,40.0,6.0,0.0
782,73.0,0.0,90.0,7.0,0.0
783,66.0,46.0,40.0,8.0,0.0
784,82.0,8.0,15.0,6.0,0.0
785,80.0,8.0,15.0,6.0,0.0
786,82.0,8.0,15.0,6.0,0.0
787,80.0,8.0,15.0,6.0,0.0
788,82.0,6.0,15.0,6.0,0.0
789,80.0,2.0,15.0,6.0,0.0
790,70.0,0.0,40.0,8.0,0.0
791,78.0,50.0,40.0,6.0,0.0
792,61.0,0.0,40.0,8.0,0.0
793,49.0,26.0,90.0,11.0,0.0
794,85.0,0.0,40.0,7.0,0.0
795,37.0,0.0,90.0,12.0,0.0
796,61.0,8.0,150.0,10.0,0.0
797,77.0,46.0,40.0,6.0,0.0
798,83.0,0.0,40.0,7.0,0.0
799,68.0,0.0,40.0,8.0,0.0
800,80.0,0.0,40.0,6.0,0.0
801,85.0,16.0,40.0,6.0,0.0
802,65.0,0.0,40.0,8.0,0.0
803,82.0,24.0,20.0,7.0,0.0
804,83.0,0.0,20.0,7.0,0.0
805,85.0,22.0,20.0,7.0,0.0
806,68.0,50.0,40.0,8.0,0.0
807,83.0,0.0,40.0,6.0,0.0
808,83.0,0.0,120.0,7.0,0.0
809,83.0,30.0,150.0,6.0,0.0
810,61.0,50.0,90.0,11.0,0.0
811,49.0,0.0,90.0,12.0,0.0
812,61.0,46.0,40.0,8.0,0.0
813,68.0,0.0,40.0,8.0,0.0
814,82.0,16.0,40.0,7.0,0.0
815,65.0,0.0,40.0,8.0,0.0
816,68.0,0.0,40.0,8.0,0.0
817,80.0,50.0,40.0,7.0,0.0
818,78.0,0.0,40.0,7.0,0.0
819,61.0,46.0,40.0,8.0,0.0
820,59.0,0.0,90.0,11.0,0.0
821,47.0,2.0,90.0,12.0,0.0
822,77.0,48.0,40.0,7.0,0.0
823,68.0,0.0,40.0,8.0,0.0
824,75.0,46.0,40.0,7.0,0.0
825,65.0,0.0,40.0,8.0,0.0
826,85.0,0.0,90.0,6.0,0.0
827,68.0,0.0,40.0,8.0,0.0
828,73.0,2.0,40.0,7.0,0.0
829,58.0,50.0,300.0,11.0,0.0
830,66.0,0.0,150.0,5.0,0.0
831,78.0,48.0,40.0,7.0,0.0
832,46.0,0.0,300.0,12.0,0.0
833,90.0,48.0,240.0,6.0,0.0
834,73.0,0.0,90.0,8.0,0.0
835,82.0,48.0,40.0,7.0,0.0
836,70.0,48.0,90.0,8.0,0.0
837,87.0,16.0,40.0,7.0,0.0
838,85.0,0.0,40.0,7.0,0.0
839,85.0,0.0,90.0,7.0,0.0
840,66.0,0.0,90.0,8.0,0.0
841,89.0,0.0,40.0,6.0,0.0
842,70.0,0.0,90.0,8.0,0.0
843,90.0,46.0,40.0,6.0,0.0
844,73.0,50.0,90.0,7.0,0.0
845,89.0,0.0,40.0,6.0,0.0
846,70.0,0.0,90.0,8.0,0.0
847,90.0,46.0,40.0,6.0,0.0
848,73.0,0.0,90.0,7.0,0.0
849,88.0,50.0,40.0,6.0,0.0
850,87.0,46.0,40.0,6.0,0.0
851,70.0,0.0,90.0,8.0,0.0
852,78.0,26.0,90.0,7.0,0.0
853,86.0,0.0,40.0,6.0,0.0
854,86.0,24.0,20.0,6.0,0.0
855,71.0,0.0,90.0,8.0,0.0
856,78.0,96.0,90.0,7.0,0.0
857,87.0,22.0,20.0,6.0,0.0
858,88.0,24.0,20.0,6.0,0.0
859,87.0,0.0,120.0,6.0,0.0
860,78.0,0.0,90.0,7.0,0.0
861,71.0,96.0,90.0,8.0,0.0
862,80.0,0.0,90.0,7.0,0.0
863,89.0,30.0,150.0,6.0,0.0
864,71.0,66.0,90.0,8.0,0.0
865,80.0,96.0,90.0,7.0,0.0
866,71.0,0.0,90.0,8.0,0.0
867,70.0,0.0,90.0,8.0,0.0
868,90.0,48.0,150.0,6.0,0.0
869,73.0,48.0,90.0,7.0,0.0
870,70.0,0.0,90.0,8.0,0.0
871,73.0,0.0,90.0,7.0,0.0
872,85.0,96.0,40.0,6.0,0.0
873,85.0,96.0,90.0,6.0,0.0
874,75.0,0.0,90.0,7.0,0.0
875,68.0,0.0,90.0,8.0,0.0
876,75.0,66.0,90.0,7.0,0.0
877,68.0,0.0,90.0,8.0,0.0
878,84.0,30.0,150.0,6.0,0.0
879,77.0,0.0,90.0,7.0,0.0
880,61.0,96.0,90.0,8.0,0.0
881,77.0,0.0,90.0,7.0,0.0
882,61.0,66.0,90.0,8.0,0.0
883,83.0,30.0,150.0,6.0,0.0
884,78.0,96.0,90.0,7.0,0.0
885,63.0,0.0,90.0,8.0,0.0
886,63.0,0.0,90.0,8.0,0.0
887,78.0,50.0,90.0,7.0,0.0
888,82.0,46.0,150.0,6.0,0.0
889,75.0,2.0,150.0,7.0,0.0
890,71.0,2.0,90.0,8.0,0.0
891,80.0,46.0,40.0,6.0,0.0
892,83.0,46.0,40.0,6.0,0.0
893,71.0,0.0,90.0,8.0,0.0
894,71.0,0.0,40.0,7.0,0.0
895,80.0,50.0,40.0,6.0,0.0
896,78.0,30.0,150.0,6.0,0.0
897,70.0,46.0,40.0,7.0,0.0
898,73.0,2.0,90.0,8.0,0.0
899,73.0,48.0,40.0,7.0,0.0
900,73.0,0.0,90.0,8.0,0.0
901,71.0,16.0,40.0,7.0,0.0
902,70.0,10.0,40.0,7.0,0.0
903,61.0,2.0,90.0,8.0,0.0
904,71.0,8.0,40.0,7.0,0.0
905,82.0,8.0,15.0,6.0,0.0
906,80.0,8.0,15.0,6.0,0.0
907,82.0,8.0,15.0,6.0,0.0
908,80.0,8.0,15.0,6.0,0.0
909,82.0,6.0,15.0,6.0,0.0
910,80.0,2.0,15.0,6.0,0.0
911,73.0,8.0,40.0,7.0,0.0
912,82.0,8.0,15.0,6.0,0.0
913,80.0,8.0,15.0,6.0,0.0
914,82.0,8.0,15.0,6.0,0.0
915,80.0,8.0,15.0,6.0,0.0
916,82.0,6.0,15.0,6.0,0.0
917,80.0,0.0,15.0,6.0,0.0
918,82.0,8.0,15.0,6.0,0.0
919,75.0,22.0,40.0,7.0,0.0
920,61.0,96.0,90.0,8.0,0.0
921,80.0,8.0,15.0,6.0,0.0
922,82.0,8.0,15.0,6.0,0.0
923,80.0,8.0,15.0,6.0,0.0
924,82.0,6.0,15.0,6.0,0.0
925,80.0,2.0,15.0,6.0,0.0
926,78.0,24.0,20.0,6.0,0.0
927,77.0,0.0,40.0,7.0,0.0
928,80.0,0.0,20.0,6.0,0.0
929,66.0,2.0,90.0,8.0,0.0
930,81.0,94.0,90.0,6.0,0.0
931,77.0,0.0,90.0,7.0,0.0
932,78.0,0.0,90.0,7.0,0.0
933,82.0,34.0,90.0,6.0,0.0
934,82.0,30.0,150.0,6.0,0.0
935,78.0,128.0,30.0,7.0,0.0
936,42.0,0.0,90.0,12.0,0.0
937,66.0,0.0,90.0,5.0,0.0
938,66.0,0.0,90.0,10.0,0.0
939,90.0,0.0,90.0,1.0,0.0
940,70.0,94.0,90.0,8.0,0.0
941,82.0,0.0,90.0,7.0,0.0
942,54.0,0.0,90.0,11.0,0.0
943,78.0,0.0,90.0,1.0,0.0
944,68.0,0.0,90.0,10.0,0.0
945,89.0,0.0,90.0,1.0,0.0
946,77.0,94.0,90.0,1.0,0.0
947,66.0,0.0,90.0,5.0,0.0
948,71.0,0.0,90.0,8.0,0.0
949,56.0,0.0,90.0,11.0,0.0
950,44.0,0.0,90.0,12.0,0.0
951,83.0,0.0,90.0,7.0,0.0
952,46.0,0.0,90.0,12.0,0.0
953,70.0,0.0,90.0,10.0,0.0
954,66.0,0.0,90.0,5.0,0.0
955,85.0,26.0,90.0,7.0,0.0
956,88.0,0.0,90.0,1.0,0.0
957,76.0,0.0,90.0,1.0,0.0
958,58.0,0.0,90.0,11.0,0.0
959,73.0,0.0,90.0,8.0,0.0
960,75.0,0.0,90.0,8.0,0.0
961,86.0,24.0,20.0,6.0,0.0
962,59.0,0.0,150.0,5.0,0.0
963,87.0,0.0,150.0,1.0,0.0
964,71.0,30.0,150.0,10.0,0.0
965,59.0,0.0,150.0,11.0,0.0
966,75.0,0.0,150.0,1.0,0.0
967,66.0,0.0,150.0,5.0,0.0
968,47.0,0.0,150.0,12.0,0.0
969,87.0,66.0,90.0,7.0,0.0
970,87.0,22.0,20.0,6.0,0.0
971,88.0,24.0,20.0,6.0,0.0
972,87.0,0.0,120.0,6.0,0.0
973,78.0,96.0,90.0,7.0,0.0
974,71.0,0.0,90.0,8.0,0.0
975,80.0,0.0,90.0,7.0,0.0
976,89.0,30.0,150.0,6.0,0.0
977,71.0,66.0,90.0,8.0,0.0
978,80.0,50.0,90.0,7.0,0.0
979,71.0,0.0,90.0,8.0,0.0
980,90.0,46.0,40.0,6.0,0.0
981,70.0,0.0,90.0,8.0,0.0
982,73.0,2.0,90.0,7.0,0.0
983,89.0,48.0,40.0,6.0,0.0
984,73.0,0.0,90.0,7.0,0.0
985,70.0,0.0,90.0,8.0,0.0
986,87.0,46.0,40.0,6.0,0.0
987,85.0,96.0,40.0,6.0,0.0
988,73.0,0.0,90.0,7.0,0.0
989,68.0,96.0,90.0,8.0,0.0
990,85.0,0.0,90.0,6.0,0.0
991,73.0,0.0,90.0,7.0,0.0
992,84.0,30.0,150.0,6.0,0.0
993,68.0,66.0,90.0,8.0,0.0
994,73.0,96.0,90.0,7.0,0.0
995,65.0,0.0,90.0,8.0,0.0
996,65.0,66.0,90.0,8.0,0.0
997,73.0,0.0,90.0,7.0,0.0
998,83.0,30.0,150.0,6.0,0.0
999,66.0,0.0,90.0,8.0,0.0
1000,73.0,96.0,90.0,7.0,0.0
1001,82.0,0.0,90.0,6.0,0.0
1002,73.0,0.0,90.0,7.0,0.0
1003,66.0,98.0,90.0,8.0,0.0
1004,86.0,64.0,90.0,6.0,0.0
1005,47.0,30.0,150.0,12.0,0.0
1006,59.0,0.0,150.0,11.0,0.0
1007,71.0,0.0,90.0,10.0,0.0
1008,87.0,30.0,150.0,6.0,0.0
1009,75.0,0.0,90.0,7.0,0.0
1010,66.0,66.0,90.0,8.0,0.0
1011,67.0,48.0,90.0,8.0,0.0
1012,71.0,0.0,90.0,10.0,0.0
1013,75.0,2.0,90.0,7.0,0.0
1014,68.0,34.0,90.0,8.0,0.0
1015,71.0,0.0,90.0,10.0,0.0
1016,75.0,0.0,90.0,7.0,0.0
1017,85.0,46.0,40.0,6.0,0.0
1018,83.0,0.0,40.0,6.0,0.0
1019,71.0,0.0,90.0,10.0,0.0
1020,75.0,2.0,90.0,7.0,0.0
1021,82.0,46.0,40.0,6.0,0.0
1022,68.0,16.0,30.0,8.0,0.0
1023,80.0,32.0,40.0,6.0,0.0
1024,71.0,0.0,90.0,10.0,0.0
1025,79.0,46.0,40.0,6.0,0.0
1026,68.0,16.0,30.0,8.0,0.0
1027,75.0,50.0,90.0,7.0,0.0
1028,80.0,0.0,40.0,6.0,0.0
1029,82.0,46.0,40.0,6.0,0.0
1030,49.0,16.0,150.0,12.0,0.0
1031,61.0,0.0,150.0,11.0,0.0
1032,73.0,0.0,1110.0,5.0,0.0
1033,78.0,34.0,40.0,6.0,0.0
1034,78.0,96.0,90.0,7.0,0.0
1035,70.0,0.0,90.0,8.0,0.0
1036,73.0,0.0,90.0,10.0,0.0
1037,85.0,32.0,30.0,6.0,0.0
1038,85.0,14.0,30.0,6.0,0.0
1039,73.0,0.0,90.0,10.0,0.0
1040,70.0,96.0,90.0,8.0,0.0
1041,85.0,30.0,270.0,6.0,0.0
1042,78.0,0.0,90.0,7.0,0.0
1043,73.0,0.0,90.0,10.0,0.0
1044,70.0,66.0,90.0,8.0,0.0
1045,78.0,0.0,90.0,7.0,0.0
1046,73.0,0.0,90.0,10.0,0.0
1047,70.0,0.0,90.0,8.0,0.0
1048,78.0,50.0,90.0,7.0,0.0
1049,78.0,0.0,90.0,7.0,0.0
1050,82.0,46.0,40.0,6.0,0.0
1051,73.0,0.0,90.0,10.0,0.0
1052,70.0,10.0,90.0,8.0,0.0
1053,78.0,0.0,40.0,6.0,0.0
1054,49.0,8.0,150.0,11.0,0.0
1055,37.0,0.0,150.0,12.0,0.0
1056,82.0,8.0,15.0,6.0,0.0
1057,80.0,8.0,15.0,6.0,0.0
1058,82.0,8.0,15.0,6.0,0.0
1059,80.0,8.0,15.0,6.0,0.0
1060,82.0,6.0,15.0,6.0,0.0
1061,80.0,10.0,15.0,6.0,0.0
1062,82.0,8.0,15.0,6.0,0.0
1063,80.0,8.0,15.0,6.0,0.0
1064,82.0,8.0,15.0,6.0,0.0
1065,80.0,8.0,15.0,6.0,0.0
1066,82.0,6.0,15.0,6.0,0.0
1067,80.0,10.0,15.0,6.0,0.0
1068,61.0,10.0,90.0,8.0,0.0
1069,77.0,0.0,90.0,7.0,0.0
1070,82.0,8.0,15.0,6.0,0.0
1071,73.0,0.0,90.0,10.0,0.0
1072,71.0,0.0,90.0,8.0,0.0
1073,80.0,8.0,15.0,6.0,0.0
1074,82.0,8.0,15.0,6.0,0.0
1075,80.0,8.0,15.0,6.0,0.0
1076,82.0,6.0,15.0,6.0,0.0
1077,80.0,10.0,15.0,6.0,0.0
1078,82.0,8.0,15.0,6.0,0.0
1079,80.0,0.0,15.0,6.0,0.0
1080,82.0,8.0,15.0,6.0,0.0
1081,80.0,8.0,15.0,6.0,0.0
1082,82.0,6.0,15.0,6.0,0.0
1083,80.0,0.0,15.0,6.0,0.0
1084,73.0,0.0,90.0,10.0,0.0
1085,82.0,8.0,15.0,6.0,0.0
1086,71.0,0.0,90.0,8.0,0.0
1087,77.0,10.0,90.0,7.0,0.0
1088,61.0,0.0,90.0,8.0,0.0
1089,80.0,8.0,15.0,6.0,0.0
1090,82.0,8.0,15.0,6.0,0.0
1091,80.0,8.0,15.0,6.0,0.0
1092,82.0,6.0,15.0,6.0,0.0
1093,80.0,10.0,15.0,6.0,0.0
1094,82.0,8.0,15.0,6.0,0.0
1095,80.0,8.0,15.0,6.0,0.0
1096,82.0,8.0,15.0,6.0,0.0
1097,80.0,8.0,15.0,6.0,0.0
1098,82.0,6.0,15.0,6.0,0.0
1099,80.0,0.0,15.0,6.0,0.0
1100,73.0,0.0,90.0,10.0,0.0
1101,77.0,0.0,90.0,7.0,0.0
1102,61.0,0.0,90.0,8.0,0.0
1103,82.0,8.0,15.0,6.0,0.0
1104,71.0,0.0,90.0,8.0,0.0
1105,80.0,8.0,15.0,6.0,0.0
1106,82.0,8.0,15.0,6.0,0.0
1107,80.0,8.0,15.0,6.0,0.0
1108,82.0,6.0,15.0,6.0,0.0
1109,80.0,10.0,15.0,6.0,0.0
1110,82.0,8.0,15.0,6.0,0.0
1111,80.0,8.0,15.0,6.0,0.0
1112,82.0,8.0,15.0,6.0,0.0
1113,80.0,8.0,15.0,6.0,0.0
1114,82.0,6.0,15.0,6.0,0.0
1115,80.0,10.0,15.0,6.0,0.0
1116,82.0,8.0,15.0,6.0,0.0
1117,61.0,0.0,90.0,8.0,0.0
1118,71.0,10.0,90.0,8.0,0.0
1119,77.0,0.0,90.0,7.0,0.0
1120,73.0,0.0,90.0,10.0,0.0
1121,80.0,8.0,15.0,6.0,0.0
1122,82.0,8.0,15.0,6.0,0.0
1123,80.0,8.0,15.0,6.0,0.0
1124,82.0,6.0,15.0,6.0,0.0
1125,80.0,10.0,15.0,6.0,0.0
1126,82.0,8.0,15.0,6.0,0.0
1127,80.0,8.0,15.0,6.0,0.0
1128,82.0,8.0,15.0,6.0,0.0
1129,80.0,8.0,15.0,6.0,0.0
1130,82.0,6.0,15.0,6.0,0.0
1131,80.0,0.0,15.0,6.0,0.0
1132,77.0,0.0,90.0,7.0,0.0
1133,61.0,0.0,90.0,8.0,0.0
1134,71.0,0.0,90.0,8.0,0.0
1135,73.0,0.0,90.0,10.0,0.0
1136,82.0,8.0,15.0,6.0,0.0
1137,80.0,8.0,15.0,6.0,0.0
1138,82.0,8.0,15.0,6.0,0.0
1139,80.0,8.0,15.0,6.0,0.0
1140,82.0,6.0,15.0,6.0,0.0
1141,80.0,2.0,15.0,6.0,0.0
1142,78.0,24.0,20.0,6.0,0.0
1143,80.0,50.0,20.0,6.0,0.0
1144,42.0,0.0,90.0,12.0,0.0
1145,73.0,0.0,90.0,10.0,0.0
1146,54.0,0.0,2250.0,5.0,0.0
1147,78.0,16.0,150.0,6.0,0.0
1148,70.0,46.0,40.0,8.0,0.0
1149,78.0,0.0,570.0,1.0,0.0
1150,66.0,32.0,2250.0,5.0,0.0
1151,78.0,0.0,90.0,7.0,0.0
1152,54.0,34.0,90.0,11.0,0.0
1153,73.0,0.0,40.0,8.0,0.0
1154,70.0,32.0,30.0,8.0,0.0
1155,73.0,30.0,150.0,10.0,0.0
1156,54.0,0.0,90.0,11.0,0.0
1157,42.0,50.0,90.0,12.0,0.0
1158,78.0,0.0,150.0,7.0,0.0
1159,70.0,14.0,30.0,8.0,0.0
1160,54.0,34.0,90.0,11.0,0.0
1161,42.0,0.0,90.0,12.0,0.0
1162,70.0,16.0,40.0,8.0,0.0
1163,73.0,0.0,40.0,8.0,0.0
1164,70.0,48.0,30.0,8.0,0.0
1165,78.0,30.0,150.0,7.0,0.0
1166,42.0,50.0,90.0,12.0,0.0
1167,73.0,0.0,150.0,10.0,0.0
1168,54.0,0.0,90.0,11.0,0.0
1169,70.0,14.0,30.0,8.0,0.0
1170,42.0,0.0,90.0,12.0,0.0
1171,70.0,16.0,40.0,8.0,0.0
1172,54.0,34.0,90.0,11.0,0.0
1173,73.0,0.0,40.0,8.0,0.0
1174,78.0,2.0,90.0,10.0,0.0
1175,54.0,0.0,90.0,11.0,0.0
1176,78.0,0.0,90.0,7.0,0.0
1177,42.0,0.0,90.0,12.0,0.0
1178,70.0,48.0,30.0,8.0,0.0
1179,70.0,14.0,30.0,8.0,0.0
1180,77.0,24.0,570.0,1.0,0.0
1181,71.0,46.0,40.0,8.0,0.0
1182,80.0,0.0,90.0,7.0,0.0
1183,54.0,0.0,90.0,11.0,0.0
1184,77.0,34.0,90.0,10.0,0.0
1185,42.0,0.0,90.0,12.0,0.0
1186,80.0,0.0,570.0,1.0,0.0
1187,73.0,0.0,40.0,8.0,0.0
1188,80.0,30.0,150.0,7.0,0.0
1189,77.0,0.0,150.0,10.0,0.0
1190,54.0,0.0,90.0,11.0,0.0
1191,42.0,50.0,90.0,12.0,0.0
1192,71.0,48.0,30.0,8.0,0.0
1193,71.0,14.0,30.0,8.0,0.0
1194,54.0,0.0,90.0,11.0,0.0
1195,71.0,16.0,40.0,8.0,0.0
1196,42.0,34.0,90.0,12.0,0.0
1197,73.0,0.0,40.0,8.0,0.0
1198,42.0,50.0,90.0,12.0,0.0
1199,77.0,0.0,150.0,10.0,0.0
1200,54.0,0.0,90.0,11.0,0.0
1201,80.0,30.0,150.0,7.0,0.0
1202,71.0,48.0,30.0,8.0,0.0
1203,71.0,14.0,30.0,8.0,0.0
1204,54.0,0.0,90.0,11.0,0.0
1205,42.0,0.0,90.0,12.0,0.0
1206,71.0,16.0,40.0,8.0,0.0
1207,73.0,34.0,40.0,8.0,0.0
1208,42.0,0.0,90.0,12.0,0.0
1209,80.0,0.0,90.0,7.0,0.0
1210,54.0,2.0,90.0,11.0,0.0
1211,77.0,0.0,90.0,10.0,0.0
1212,71.0,48.0,30.0,8.0,0.0
1213,71.0,14.0,30.0,8.0,0.0
1214,82.0,0.0,90.0,7.0,0.0
1215,82.0,0.0,90.0,1.0,0.0
1216,76.0,0.0,90.0,10.0,0.0
1217,73.0,0.0,40.0,8.0,0.0
1218,42.0,0.0,90.0,12.0,0.0
1219,76.0,0.0,90.0,1.0,0.0
1220,54.0,0.0,90.0,11.0,0.0
1221,89.0,24.0,20.0,6.0,0.0
1222,90.0,22.0,20.0,6.0,0.0
1223,92.0,24.0,20.0,6.0,0.0
1224,70.0,34.0,40.0,8.0,0.0
1225,90.0,66.0,1170.0,6.0,0.0
1226,76.0,0.0,150.0,10.0,0.0
1227,82.0,30.0,150.0,7.0,0.0
1228,73.0,48.0,30.0,8.0,0.0
1229,54.0,0.0,90.0,11.0,0.0
1230,42.0,50.0,90.0,12.0,0.0
1231,73.0,14.0,30.0,8.0,0.0
1232,42.0,0.0,90.0,12.0,0.0
1233,73.0,16.0,40.0,8.0,0.0
1234,54.0,34.0,90.0,11.0,0.0
1235,70.0,0.0,40.0,8.0,0.0
1236,54.0,0.0,90.0,11.0,0.0
1237,73.0,48.0,30.0,8.0,0.0
1238,82.0,30.0,150.0,7.0,0.0
1239,42.0,50.0,90.0,12.0,0.0
1240,76.0,0.0,150.0,10.0,0.0
1241,73.0,14.0,30.0,8.0,0.0
1242,54.0,34.0,90.0,11.0,0.0
1243,42.0,0.0,90.0,12.0,0.0
1244,73.0,16.0,40.0,8.0,0.0
1245,70.0,0.0,40.0,8.0,0.0
1246,76.0,50.0,90.0,10.0,0.0
1247,42.0,0.0,90.0,12.0,0.0
1248,82.0,0.0,90.0,7.0,0.0
1249,73.0,48.0,30.0,8.0,0.0
1250,54.0,0.0,90.0,11.0,0.0
1251,73.0,14.0,30.0,8.0,0.0
1252,83.0,34.0,90.0,7.0,0.0
1253,42.0,0.0,90.0,12.0,0.0
1254,75.0,0.0,90.0,10.0,0.0
1255,71.0,46.0,40.0,8.0,0.0
1256,54.0,0.0,90.0,11.0,0.0
1257,66.0,0.0,40.0,8.0,0.0
1258,71.0,48.0,30.0,8.0,0.0
1259,54.0,50.0,90.0,11.0,0.0
1260,42.0,0.0,90.0,12.0,0.0
1261,75.0,0.0,150.0,10.0,0.0
1262,83.0,30.0,150.0,7.0,0.0
1263,71.0,14.0,30.0,8.0,0.0
1264,54.0,0.0,90.0,11.0,0.0
1265,71.0,16.0,40.0,8.0,0.0
1266,42.0,0.0,90.0,12.0,0.0
1267,66.0,34.0,40.0,8.0,0.0
1268,42.0,0.0,90.0,12.0,0.0
1269,75.0,0.0,150.0,10.0,0.0
1270,54.0,50.0,90.0,11.0,0.0
1271,83.0,30.0,150.0,7.0,0.0
1272,71.0,48.0,30.0,8.0,0.0
1273,71.0,14.0,30.0,8.0,0.0
1274,42.0,34.0,90.0,12.0,0.0
1275,71.0,16.0,40.0,8.0,0.0
1276,54.0,0.0,90.0,11.0,0.0
1277,66.0,0.0,40.0,8.0,0.0
1278,54.0,0.0,90.0,11.0,0.0
1279,42.0,0.0,90.0,12.0,0.0
1280,75.0,96.0,90.0,10.0,0.0
1281,71.0,16.0,30.0,8.0,0.0
1282,83.0,0.0,180.0,7.0,0.0
1283,71.0,14.0,30.0,8.0,0.0
1284,59.0,0.0,150.0,5.0,0.0
1285,55.0,0.0,150.0,11.0,0.0
1286,43.0,0.0,150.0,12.0,0.0
1287,71.0,0.0,90.0,8.0,0.0
1288,71.0,30.0,150.0,5.0,0.0
1289,74.0,0.0,90.0,10.0,0.0
1290,83.0,0.0,150.0,7.0,0.0
1291,89.0,0.0,150.0,6.0,0.0
1292,71.0,30.0,150.0,8.0,0.0
1293,67.0,66.0,90.0,10.0,0.0
1294,67.0,96.0,90.0,10.0,0.0
1295,67.0,0.0,90.0,10.0,0.0
1296,71.0,64.0,90.0,8.0,0.0
1297,77.0,30.0,150.0,7.0,0.0
1298,86.0,2.0,90.0,6.0,0.0
1299,67.0,0.0,90.0,10.0,0.0
1300,85.0,2.0,90.0,6.0,0.0
1301,73.0,94.0,90.0,8.0,0.0
1302,74.0,0.0,90.0,8.0,0.0
1303,83.0,0.0,90.0,6.0,0.0
1304,67.0,50.0,90.0,10.0,0.0
1305,77.0,0.0,150.0,7.0,0.0
1306,66.0,30.0,150.0,5.0,0.0
1307,66.0,2.0,90.0,10.0,0.0
1308,83.0,46.0,40.0,6.0,0.0
1309,54.0,0.0,150.0,11.0,0.0
1310,54.0,0.0,150.0,5.0,0.0
1311,74.0,0.0,40.0,8.0,0.0
1312,42.0,0.0,150.0,12.0,0.0
1313,82.0,48.0,40.0,6.0,0.0
1314,73.0,0.0,40.0,8.0,0.0
1315,78.0,0.0,40.0,7.0,0.0
1316,66.0,0.0,90.0,10.0,0.0
1317,77.0,16.0,40.0,7.0,0.0
1318,86.0,0.0,40.0,6.0,0.0
1319,71.0,0.0,40.0,8.0,0.0
1320,85.0,0.0,40.0,6.0,0.0
1321,78.0,0.0,40.0,7.0,0.0
1322,70.0,96.0,40.0,8.0,0.0
1323,70.0,0.0,90.0,8.0,0.0
1324,78.0,96.0,90.0,7.0,0.0
1325,85.0,30.0,270.0,6.0,0.0
1326,66.0,0.0,90.0,10.0,0.0
1327,70.0,0.0,90.0,8.0,0.0
1328,66.0,66.0,90.0,10.0,0.0
1329,73.0,0.0,90.0,7.0,0.0
1330,70.0,0.0,90.0,8.0,0.0
1331,73.0,26.0,90.0,7.0,0.0
1332,66.0,0.0,90.0,10.0,0.0
1333,70.0,0.0,90.0,8.0,0.0
1334,83.0,24.0,20.0,6.0,0.0
1335,73.0,96.0,90.0,7.0,0.0
1336,66.0,0.0,90.0,10.0,0.0
1337,82.0,24.0,20.0,6.0,0.0
1338,80.0,22.0,20.0,6.0,0.0
1339,78.0,0.0,20.0,6.0,0.0
1340,71.0,0.0,540.0,8.0,0.0
1341,55.0,0.0,540.0,11.0,0.0
1342,71.0,96.0,150.0,7.0,0.0
1343,43.0,0.0,540.0,12.0,0.0
1344,59.0,16.0,540.0,10.0,0.0
1345,77.0,66.0,90.0,6.0,0.0
1346,74.0,96.0,150.0,6.0,0.0
1347,65.0,96.0,150.0,7.0,0.0
1348,73.0,80.0,150.0,6.0,0.0
1349,77.0,30.0,150.0,7.0,0.0
1350,71.0,34.0,90.0,6.0,0.0
1351,61.0,30.0,150.0,10.0,0.0
1352,66.0,0.0,1260.0,5.0,0.0
1353,54.0,0.0,1260.0,5.0,0.0
1354,82.0,0.0,390.0,1.0,0.0
1355,70.0,0.0,30.0,8.0,0.0
1356,70.0,16.0,150.0,6.0,0.0
1357,78.0,80.0,390.0,1.0,0.0
1358,54.0,0.0,90.0,11.0,0.0
1359,78.0,62.0,30.0,7.0,0.0
1360,42.0,2.0,90.0,12.0,0.0
1361,70.0,48.0,40.0,7.0,0.0
1362,66.0,0.0,40.0,8.0,0.0
1363,69.0,0.0,40.0,7.0,0.0
1364,65.0,0.0,40.0,8.0,0.0
1365,66.0,82.0,40.0,8.0,0.0
1366,70.0,0.0,40.0,7.0,0.0
1367,78.0,0.0,40.0,6.0,0.0
1368,54.0,30.0,540.0,10.0,0.0
1369,42.0,0.0,90.0,12.0,0.0
1370,54.0,50.0,90.0,11.0,0.0
1371,78.0,2.0,540.0,6.0,0.0
1372,70.0,0.0,30.0,7.0,0.0
1373,66.0,14.0,30.0,8.0,0.0
1374,70.0,0.0,40.0,7.0,0.0
1375,66.0,46.0,40.0,8.0,0.0
1376,70.0,0.0,40.0,8.0,0.0
1377,73.0,2.0,40.0,7.0,0.0
1378,83.0,30.0,150.0,1.0,0.0
1379,80.0,0.0,150.0,1.0,0.0
1380,54.0,50.0,90.0,11.0,0.0
1381,42.0,0.0,90.0,12.0,0.0
1382,71.0,0.0,30.0,7.0,0.0
1383,68.0,14.0,30.0,8.0,0.0
1384,68.0,0.0,40.0,8.0,0.0
1385,71.0,16.0,40.0,7.0,0.0
1386,75.0,96.0,40.0,7.0,0.0
1387,71.0,0.0,40.0,8.0,0.0
1388,54.0,0.0,90.0,11.0,0.0
1389,82.0,80.0,390.0,1.0,0.0
1390,42.0,2.0,90.0,12.0,0.0
1391,85.0,0.0,390.0,1.0,0.0
1392,70.0,0.0,40.0,8.0,0.0
1393,73.0,46.0,40.0,7.0,0.0
1394,69.0,0.0,40.0,8.0,0.0
1395,72.0,16.0,40.0,7.0,0.0
1396,73.0,82.0,40.0,7.0,0.0
1397,90.0,0.0,40.0,6.0,0.0
1398,70.0,0.0,40.0,8.0,0.0
1399,90.0,46.0,630.0,6.0,0.0
1400,54.0,0.0,90.0,11.0,0.0
1401,54.0,0.0,480.0,10.0,0.0
1402,42.0,50.0,90.0,12.0,0.0
1403,73.0,14.0,30.0,7.0,0.0
1404,70.0,0.0,30.0,8.0,0.0
1405,70.0,0.0,40.0,8.0,0.0
1406,73.0,46.0,40.0,7.0,0.0
1407,73.0,2.0,40.0,8.0,0.0
1408,76.0,0.0,40.0,7.0,0.0
1409,42.0,50.0,90.0,12.0,0.0
1410,87.0,30.0,150.0,1.0,0.0
1411,54.0,0.0,90.0,11.0,0.0
1412,83.0,0.0,150.0,1.0,0.0
1413,71.0,0.0,30.0,8.0,0.0
1414,75.0,14.0,30.0,7.0,0.0
1415,75.0,16.0,40.0,7.0,0.0
1416,71.0,0.0,40.0,8.0,0.0
1417,75.0,0.0,40.0,8.0,0.0
1418,78.0,96.0,40.0,7.0,0.0
1419,76.0,146.0,90.0,7.0,0.0
1420,73.0,0.0,90.0,8.0,0.0
1421,54.0,0.0,90.0,11.0,0.0
1422,42.0,0.0,90.0,12.0,0.0
1423,85.0,0.0,90.0,1.0,0.0
1424,88.0,0.0,90.0,1.0,0.0
1425,73.0,0.0,90.0,7.0,0.0
1426,70.0,0.0,90.0,8.0,0.0
1427,54.0,0.0,90.0,11.0,0.0
1428,42.0,2.0,90.0,12.0,0.0
1429,54.0,0.0,90.0,10.0,0.0
1430,88.0,48.0,40.0,6.0,0.0
1431,85.0,46.0,40.0,6.0,0.0
1432,82.0,50.0,40.0,6.0,0.0
1433,42.0,0.0,90.0,12.0,0.0
1434,70.0,2.0,90.0,7.0,0.0
1435,90.0,46.0,40.0,6.0,0.0
1436,54.0,0.0,90.0,10.0,0.0
1437,64.0,0.0,90.0,8.0,0.0
1438,54.0,0.0,90.0,11.0,0.0
1439,88.0,48.0,40.0,6.0,0.0
1440,85.0,46.0,40.0,6.0,0.0
1441,82.0,96.0,40.0,6.0,0.0
1442,59.0,0.0,90.0,11.0,0.0
1443,71.0,30.0,150.0,7.0,0.0
1444,71.0,0.0,150.0,10.0,0.0
1445,83.0,0.0,150.0,6.0,0.0
1446,71.0,0.0,150.0,8.0,0.0
1447,47.0,66.0,90.0,12.0,0.0
1448,63.0,0.0,150.0,8.0,0.0
1449,59.0,0.0,90.0,11.0,0.0
1450,47.0,96.0,90.0,12.0,0.0
1451,42.0,66.0,90.0,12.0,0.0
1452,66.0,0.0,150.0,8.0,0.0
1453,66.0,30.0,150.0,10.0,0.0
1454,54.0,0.0,90.0,11.0,0.0
1455,66.0,0.0,150.0,7.0,0.0
1456,54.0,0.0,90.0,11.0,0.0
1457,42.0,96.0,90.0,12.0,0.0
1458,63.0,30.0,150.0,10.0,0.0
1459,63.0,0.0,150.0,7.0,0.0
1460,39.0,66.0,90.0,12.0,0.0
1461,63.0,0.0,150.0,8.0,0.0
1462,51.0,0.0,90.0,11.0,0.0
1463,51.0,96.0,90.0,11.0,0.0
1464,39.0,0.0,90.0,12.0,0.0
1465,40.0,0.0,90.0,12.0,0.0
1466,68.0,24.0,180.0,1.0,0.0
1467,71.0,0.0,180.0,1.0,0.0
1468,64.0,0.0,150.0,7.0,0.0
1469,71.0,0.0,540.0,5.0,0.0
1470,64.0,48.0,150.0,8.0,0.0
1471,59.0,0.0,540.0,5.0,0.0
1472,52.0,2.0,90.0,11.0,0.0
1473,64.0,46.0,90.0,10.0,0.0
1474,40.0,0.0,90.0,12.0,0.0
1475,52.0,0.0,90.0,11.0,0.0
1476,71.0,2.0,90.0,10.0,0.0
1477,83.0,0.0,40.0,7.0,0.0
1478,80.0,0.0,40.0,8.0,0.0
1479,82.0,0.0,20.0,7.0,0.0
1480,79.0,24.0,20.0,8.0,0.0
1481,76.0,0.0,180.0,1.0,0.0
1482,71.0,96.0,90.0,10.0,0.0
1483,52.0,0.0,90.0,11.0,0.0
1484,71.0,64.0,180.0,1.0,0.0
1485,40.0,0.0,90.0,12.0,0.0
1486,80.0,24.0,20.0,8.0,0.0
1487,83.0,0.0,20.0,7.0,0.0
1488,82.0,0.0,20.0,8.0,0.0
1489,85.0,22.0,20.0,7.0,0.0
1490,83.0,30.0,180.0,7.0,0.0
1491,80.0,0.0,180.0,8.0,0.0
1492,52.0,0.0,90.0,11.0,0.0
1493,71.0,2.0,90.0,10.0,0.0
1494,40.0,0.0,90.0,12.0,0.0
1495,40.0,0.0,90.0,12.0,0.0
1496,52.0,0.0,90.0,11.0,0.0
1497,71.0,50.0,90.0,10.0,0.0
1498,76.0,30.0,150.0,1.0,0.0
1499,80.0,0.0,150.0,1.0,0.0
1500,52.0,50.0,90.0,11.0,0.0
1501,82.0,16.0,40.0,7.0,0.0
1502,78.0,0.0,40.0,8.0,0.0
1503,71.0,0.0,90.0,10.0,0.0
1504,40.0,0.0,90.0,12.0,0.0
1505,76.0,0.0,40.0,8.0,0.0
1506,80.0,0.0,40.0,7.0,0.0
1507,76.0,0.0,40.0,1.0,0.0
1508,54.0,0.0,90.0,11.0,0.0
1509,66.0,46.0,540.0,5.0,0.0
1510,42.0,0.0,90.0,12.0,0.0
1511,80.0,0.0,40.0,1.0,0.0
1512,76.0,46.0,40.0,8.0,0.0
1513,71.0,0.0,90.0,10.0,0.0
1514,54.0,0.0,540.0,5.0,0.0
1515,80.0,0.0,40.0,7.0,0.0
1516,78.0,96.0,40.0,1.0,0.0
1517,75.0,0.0,40.0,8.0,0.0
1518,78.0,0.0,40.0,7.0,0.0
1519,75.0,0.0,40.0,1.0,0.0
1520,75.0,0.0,150.0,8.0,0.0
1521,78.0,0.0,150.0,7.0,0.0
1522,78.0,0.0,150.0,1.0,0.0
1523,54.0,66.0,90.0,11.0,0.0
1524,42.0,0.0,90.0,12.0,0.0
1525,71.0,0.0,90.0,10.0,0.0
1526,75.0,30.0,150.0,1.0,0.0
1527,71.0,0.0,90.0,10.0,0.0
1528,42.0,0.0,90.0,12.0,0.0
1529,54.0,50.0,90.0,11.0,0.0
1530,80.0,46.0,40.0,1.0,0.0
1531,71.0,0.0,90.0,10.0,0.0
1532,80.0,0.0,40.0,7.0,0.0
1533,76.0,0.0,40.0,8.0,0.0
1534,54.0,0.0,90.0,11.0,0.0
1535,76.0,0.0,40.0,1.0,0.0
1536,42.0,0.0,90.0,12.0,0.0
1537,75.0,0.0,40.0,8.0,0.0
1538,75.0,0.0,40.0,1.0,0.0
1539,78.0,50.0,40.0,1.0,0.0
1540,78.0,0.0,40.0,7.0,0.0
1541,75.0,46.0,40.0,1.0,0.0
1542,78.0,0.0,40.0,1.0,0.0
1543,66.0,0.0,90.0,10.0,0.0
1544,54.0,0.0,90.0,11.0,0.0
1545,42.0,2.0,90.0,12.0,0.0
1546,78.0,0.0,40.0,7.0,0.0
1547,75.0,0.0,40.0,8.0,0.0
1548,76.0,0.0,40.0,7.0,0.0
1549,76.0,0.0,40.0,1.0,0.0
1550,73.0,0.0,40.0,8.0,0.0
1551,73.0,48.0,40.0,1.0,0.0
1552,71.0,0.0,40.0,1.0,0.0
1553,54.0,0.0,90.0,11.0,0.0
1554,75.0,0.0,40.0,7.0,0.0
1555,42.0,0.0,90.0,12.0,0.0
1556,66.0,0.0,90.0,10.0,0.0
1557,75.0,0.0,40.0,1.0,0.0
1558,71.0,0.0,40.0,8.0,0.0
1559,73.0,166.0,40.0,1.0,0.0
1560,73.0,0.0,40.0,8.0,0.0
1561,76.0,0.0,40.0,7.0,0.0
1562,76.0,0.0,40.0,1.0,0.0
1563,70.0,0.0,180.0,8.0,0.0
1564,73.0,0.0,180.0,7.0,0.0
1565,73.0,68.0,180.0,1.0,0.0
1566,70.0,0.0,180.0,1.0,0.0
1567,64.0,0.0,180.0,10.0,0.0
1568,42.0,0.0,60.0,12.0,0.0
1569,54.0,26.0,60.0,11.0,0.0
1570,66.0,0.0,90.0,5.0,0.0
1571,54.0,2.0,90.0,5.0,0.0
1572,71.0,2.0,90.0,5.0,0.0
1573,59.0,0.0,90.0,5.0,0.0
1574,71.0,4.0,150.0,1.0,0.0
1575,63.0,0.0,150.0,10.0,0.0
1576,59.0,0.0,60.0,11.0,0.0
1577,47.0,26.0,60.0,12.0,0.0
1578,75.0,0.0,150.0,7.0,0.0
1579,78.0,64.0,90.0,6.0,0.0
1580,75.0,0.0,150.0,1.0,0.0
1581,71.0,0.0,150.0,8.0,0.0
1582,42.0,26.0,60.0,12.0,0.0
1583,83.0,68.0,90.0,6.0,0.0
1584,54.0,0.0,60.0,11.0,0.0
1585,66.0,0.0,90.0,5.0,0.0
1586,39.0,0.0,60.0,12.0,0.0
1587,87.0,68.0,90.0,6.0,0.0
1588,63.0,0.0,90.0,5.0,0.0
1589,51.0,26.0,60.0,11.0,0.0
1590,47.0,26.0,60.0,11.0,0.0
1591,35.0,0.0,60.0,12.0,0.0
1592,90.0,194.0,90.0,6.0,0.0
1593,59.0,0.0,90.0,5.0,0.0
1594,88.0,46.0,330.0,6.0,0.0
1595,61.0,0.0,90.0,8.0,0.0
1596,61.0,96.0,90.0,7.0,0.0
1597,64.0,48.0,90.0,8.0,0.0
1598,64.0,0.0,90.0,7.0,0.0
1599,70.0,0.0,90.0,8.0,0.0
1600,70.0,94.0,90.0,7.0,0.0
1601,85.0,2.0,40.0,6.0,0.0
1602,73.0,94.0,90.0,8.0,0.0
1603,82.0,2.0,90.0,6.0,0.0
1604,73.0,0.0,90.0,7.0,0.0
1605,76.0,194.0,90.0,7.0,0.0
1606,76.0,0.0,90.0,8.0,0.0
1607,90.0,46.0,330.0,6.0,0.0
1608,63.0,0.0,90.0,8.0,0.0
1609,63.0,96.0,90.0,7.0,0.0
1610,66.0,48.0,90.0,8.0,0.0
1611,66.0,0.0,90.0,7.0,0.0
1612,71.0,0.0,90.0,8.0,0.0
1613,71.0,94.0,90.0,7.0,0.0
1614,87.0,2.0,40.0,6.0,0.0
1615,75.0,94.0,90.0,8.0,0.0
1616,75.0,0.0,90.0,7.0,0.0
1617,83.0,2.0,90.0,6.0,0.0
1618,78.0,0.0,90.0,7.0,0.0
1619,78.0,194.0,90.0,8.0,0.0
1620,59.0,46.0,540.0,5.0,0.0
1621,78.0,0.0,540.0,1.0,0.0
1622,78.0,0.0,540.0,10.0,0.0
1623,87.0,0.0,540.0,1.0,0.0
1624,81.0,0.0,330.0,8.0,0.0
1625,71.0,0.0,540.0,5.0,0.0
1626,93.0,46.0,330.0,7.0,0.0
1627,59.0,96.0,90.0,11.0,0.0
1628,47.0,0.0,90.0,12.0,0.0
1629,51.0,0.0,90.0,12.0,0.0
1630,63.0,48.0,90.0,11.0,0.0
1631,66.0,94.0,90.0,11.0,0.0
1632,54.0,0.0,90.0,12.0,0.0
1633,90.0,0.0,40.0,7.0,0.0
1634,78.0,2.0,40.0,8.0,0.0
1635,87.0,2.0,90.0,7.0,0.0
1636,69.0,48.0,90.0,11.0,0.0
1637,57.0,0.0,90.0,12.0,0.0
1638,75.0,0.0,90.0,8.0,0.0
1639,54.0,0.0,90.0,12.0,0.0
1640,66.0,26.0,90.0,11.0,0.0
1641,68.0,0.0,90.0,7.0,0.0
1642,64.0,96.0,90.0,8.0,0.0
1643,79.0,24.0,20.0,6.0,0.0
1644,80.0,22.0,20.0,6.0,0.0
1645,82.0,24.0,20.0,6.0,0.0
1646,80.0,0.0,120.0,6.0,0.0
1647,64.0,0.0,90.0,8.0,0.0
1648,68.0,96.0,90.0,7.0,0.0
1649,64.0,0.0,90.0,8.0,0.0
1650,68.0,2.0,90.0,7.0,0.0
1651,78.0,94.0,90.0,6.0,0.0
1652,68.0,96.0,90.0,7.0,0.0
1653,76.0,0.0,90.0,6.0,0.0
1654,64.0,0.0,90.0,8.0,0.0
1655,75.0,94.0,90.0,6.0,0.0
1656,68.0,0.0,90.0,7.0,0.0
1657,64.0,2.0,90.0,8.0,0.0
1658,68.0,0.0,90.0,7.0,0.0
1659,64.0,0.0,90.0,8.0,0.0
1660,73.0,96.0,90.0,6.0,0.0
1661,72.0,24.0,330.0,6.0,0.0
1662,69.0,0.0,90.0,7.0,0.0
1663,66.0,96.0,90.0,8.0,0.0
1664,69.0,96.0,90.0,7.0,0.0
1665,66.0,0.0,90.0,8.0,0.0
1666,66.0,0.0,90.0,8.0,0.0
1667,69.0,50.0,90.0,7.0,0.0
1668,66.0,0.0,90.0,8.0,0.0
1669,69.0,96.0,90.0,7.0,0.0
1670,73.0,22.0,20.0,6.0,0.0
1671,75.0,0.0,20.0,6.0,0.0
1672,64.0,96.0,90.0,8.0,0.0
1673,73.0,0.0,90.0,6.0,0.0
1674,68.0,0.0,90.0,7.0,0.0
1675,68.0,0.0,90.0,7.0,0.0
1676,64.0,50.0,90.0,8.0,0.0
1677,78.0,142.0,40.0,6.0,0.0
1678,90.0,46.0,180.0,6.0,0.0
1679,66.0,0.0,90.0,7.0,0.0
1680,63.0,50.0,90.0,8.0,0.0
1681,66.0,0.0,90.0,7.0,0.0
1682,63.0,50.0,90.0,8.0,0.0
1683,88.0,0.0,40.0,6.0,0.0
1684,63.0,50.0,90.0,8.0,0.0
1685,88.0,46.0,40.0,6.0,0.0
1686,66.0,0.0,90.0,7.0,0.0
1687,87.0,0.0,40.0,6.0,0.0
1688,87.0,46.0,40.0,6.0,0.0
1689,63.0,0.0,90.0,8.0,0.0
1690,66.0,0.0,90.0,7.0,0.0
1691,85.0,50.0,40.0,6.0,0.0
1692,66.0,0.0,90.0,7.0,0.0
1693,63.0,96.0,90.0,8.0,0.0
1694,85.0,46.0,40.0,6.0,0.0
1695,83.0,0.0,40.0,6.0,0.0
1696,64.0,0.0,90.0,8.0,0.0
1697,82.0,32.0,210.0,6.0,0.0
1698,67.0,96.0,90.0,7.0,0.0
1699,64.0,34.0,90.0,8.0,0.0
1700,67.0,0.0,90.0,7.0,0.0
1701,64.0,0.0,90.0,8.0,0.0
1702,67.0,0.0,90.0,7.0,0.0
1703,85.0,30.0,30.0,6.0,0.0
1704,83.0,34.0,30.0,6.0,0.0
1705,64.0,0.0,90.0,8.0,0.0
1706,82.0,32.0,30.0,6.0,0.0
1707,67.0,0.0,90.0,7.0,0.0
1708,83.0,30.0,30.0,6.0,0.0
1709,85.0,96.0,30.0,6.0,0.0
1710,83.0,0.0,90.0,6.0,0.0
1711,66.0,0.0,90.0,7.0,0.0
1712,63.0,96.0,90.0,8.0,0.0
1713,63.0,98.0,90.0,8.0,0.0
1714,78.0,0.0,90.0,7.0,0.0
1715,83.0,0.0,90.0,6.0,0.0
1716,82.0,94.0,90.0,6.0,0.0
1717,64.0,98.0,90.0,8.0,0.0
1718,80.0,0.0,90.0,6.0,0.0
1719,71.0,0.0,90.0,7.0,0.0
1720,64.0,0.0,90.0,8.0,0.0
1721,71.0,94.0,90.0,7.0,0.0
1722,78.0,98.0,90.0,6.0,0.0
1723,66.0,0.0,90.0,8.0,0.0
1724,70.0,0.0,90.0,7.0,0.0
1725,78.0,94.0,90.0,6.0,0.0
1726,68.0,98.0,90.0,8.0,0.0
1727,77.0,0.0,90.0,6.0,0.0
1728,71.0,0.0,90.0,7.0,0.0
1729,71.0,0.0,90.0,7.0,0.0
1730,68.0,94.0,90.0,8.0,0.0
1731,71.0,0.0,90.0,8.0,0.0
1732,89.0,0.0,90.0,6.0,0.0
1733,74.0,98.0,90.0,7.0,0.0
1734,90.0,94.0,90.0,6.0,0.0
1735,88.0,0.0,90.0,6.0,0.0
1736,70.0,0.0,90.0,8.0,0.0
1737,73.0,98.0,90.0,7.0,0.0
1738,70.0,0.0,90.0,8.0,0.0
1739,73.0,94.0,90.0,7.0,0.0
1740,71.0,0.0,90.0,8.0,0.0
1741,87.0,0.0,90.0,6.0,0.0
1742,78.0,96.0,90.0,7.0,0.0
1743,80.0,0.0,90.0,7.0,0.0
1744,84.0,94.0,90.0,6.0,0.0
1745,64.0,2.0,90.0,8.0,0.0
1746,85.0,46.0,150.0,6.0,0.0
1747,64.0,0.0,90.0,8.0,0.0
1748,80.0,50.0,90.0,7.0,0.0
1749,64.0,2.0,90.0,8.0,0.0
1750,80.0,0.0,90.0,7.0,0.0
1751,87.0,48.0,40.0,6.0,0.0
1752,80.0,50.0,90.0,7.0,0.0
1753,88.0,46.0,40.0,6.0,0.0
1754,64.0,0.0,90.0,8.0,0.0
1755,90.0,0.0,40.0,6.0,0.0
1756,64.0,50.0,90.0,8.0,0.0
1757,91.0,46.0,40.0,6.0,0.0
1758,80.0,0.0,90.0,7.0,0.0
1759,92.0,0.0,40.0,6.0,0.0
1760,88.0,46.0,40.0,6.0,0.0
1761,64.0,0.0,90.0,8.0,0.0
1762,80.0,0.0,90.0,7.0,0.0
1763,85.0,10.0,40.0,6.0,0.0
1764,66.0,0.0,90.0,8.0,0.0
1765,54.0,30.0,2460.0,5.0,0.0
1766,85.0,8.0,15.0,6.0,0.0
1767,66.0,0.0,2460.0,5.0,0.0
1768,75.0,48.0,180.0,7.0,0.0
1769,83.0,8.0,15.0,6.0,0.0
1770,85.0,8.0,15.0,6.0,0.0
1771,83.0,8.0,15.0,6.0,0.0
1772,85.0,6.0,15.0,6.0,0.0
1773,83.0,10.0,15.0,6.0,0.0
1774,85.0,8.0,15.0,6.0,0.0
1775,83.0,8.0,15.0,6.0,0.0
1776,85.0,8.0,15.0,6.0,0.0
1777,83.0,8.0,15.0,6.0,0.0
1778,85.0,6.0,15.0,6.0,0.0
1779,83.0,10.0,15.0,6.0,0.0
1780,66.0,0.0,90.0,8.0,0.0
1781,85.0,8.0,15.0,6.0,0.0
1782,83.0,8.0,15.0,6.0,0.0
1783,85.0,8.0,15.0,6.0,0.0
1784,83.0,8.0,15.0,6.0,0.0
1785,85.0,6.0,15.0,6.0,0.0
1786,83.0,24.0,15.0,6.0,0.0
1787,82.0,24.0,20.0,6.0,0.0
1788,83.0,2.0,20.0,6.0,0.0
1789,82.0,0.0,150.0,6.0,0.0
1790,54.0,0.0,90.0,12.0,0.0
1791,66.0,50.0,90.0,11.0,0.0
1792,73.0,30.0,150.0,7.0,0.0
1793,66.0,46.0,40.0,8.0,0.0
1794,73.0,0.0,40.0,8.0,0.0
1795,70.0,16.0,40.0,8.0,0.0
1796,73.0,50.0,40.0,8.0,0.0
1797,49.0,0.0,90.0,12.0,0.0
1798,61.0,50.0,90.0,11.0,0.0
1799,66.0,46.0,40.0,8.0,0.0
1800,73.0,0.0,40.0,8.0,0.0
1801,70.0,46.0,40.0,8.0,0.0
1802,66.0,50.0,90.0,7.0,0.0
1803,73.0,0.0,40.0,8.0,0.0
1804,61.0,46.0,40.0,8.0,0.0
1805,58.0,0.0,90.0,11.0,0.0
1806,46.0,0.0,90.0,12.0,0.0
1807,78.0,0.0,40.0,7.0,0.0
1808,76.0,0.0,40.0,7.0,0.0
1809,70.0,26.0,40.0,8.0,0.0
1810,66.0,24.0,40.0,8.0,0.0
1811,75.0,24.0,20.0,7.0,0.0
1812,76.0,0.0,20.0,7.0,0.0
1813,78.0,22.0,20.0,7.0,0.0
1814,70.0,50.0,40.0,8.0,0.0
1815,76.0,0.0,120.0,7.0,0.0
1816,42.0,0.0,90.0,12.0,0.0
1817,70.0,0.0,90.0,10.0,0.0
1818,61.0,46.0,40.0,8.0,0.0
1819,54.0,0.0,90.0,11.0,0.0
1820,70.0,50.0,40.0,8.0,0.0
1821,66.0,0.0,40.0,8.0,0.0
1822,75.0,46.0,40.0,7.0,0.0
1823,70.0,0.0,40.0,8.0,0.0
1824,73.0,50.0,40.0,7.0,0.0
1825,66.0,2.0,90.0,10.0,0.0
1826,66.0,0.0,90.0,11.0,0.0
1827,61.0,46.0,40.0,8.0,0.0
1828,71.0,0.0,40.0,7.0,0.0
1829,54.0,0.0,90.0,12.0,0.0
1830,70.0,48.0,40.0,7.0,0.0
1831,66.0,0.0,40.0,8.0,0.0
1832,68.0,0.0,40.0,7.0,0.0
1833,64.0,46.0,40.0,8.0,0.0
1834,70.0,0.0,40.0,7.0,0.0
1835,66.0,26.0,40.0,8.0,0.0
1836,71.0,0.0,40.0,7.0,0.0
1837,82.0,24.0,20.0,6.0,0.0
1838,66.0,2.0,90.0,10.0,0.0
1839,59.0,0.0,90.0,11.0,0.0
1840,47.0,0.0,90.0,12.0,0.0
1841,63.0,22.0,40.0,8.0,0.0
1842,83.0,0.0,20.0,6.0,0.0
1843,85.0,24.0,20.0,6.0,0.0
1844,75.0,48.0,40.0,7.0,0.0
1845,71.0,0.0,40.0,8.0,0.0
1846,83.0,2.0,180.0,6.0,0.0
1847,66.0,46.0,40.0,8.0,0.0
1848,80.0,0.0,40.0,7.0,0.0
1849,71.0,0.0,40.0,8.0,0.0
1850,78.0,48.0,40.0,7.0,0.0
1851,78.0,30.0,150.0,7.0,0.0
1852,63.0,0.0,90.0,10.0,0.0
1853,47.0,0.0,90.0,11.0,0.0
1854,63.0,46.0,40.0,8.0,0.0
1855,35.0,0.0,90.0,12.0,0.0
1856,71.0,10.0,40.0,8.0,0.0
1857,82.0,0.0,40.0,6.0,0.0
1858,82.0,8.0,15.0,6.0,0.0
1859,66.0,16.0,40.0,8.0,0.0
1860,80.0,8.0,15.0,6.0,0.0
1861,82.0,8.0,15.0,6.0,0.0
1862,80.0,8.0,15.0,6.0,0.0
1863,82.0,6.0,15.0,6.0,0.0
1864,80.0,2.0,15.0,6.0,0.0
1865,78.0,10.0,40.0,6.0,0.0
1866,71.0,0.0,40.0,8.0,0.0
1867,63.0,46.0,40.0,8.0,0.0
1868,59.0,0.0,90.0,10.0,0.0
1869,78.0,8.0,15.0,6.0,0.0
1870,76.0,8.0,15.0,6.0,0.0
1871,78.0,8.0,15.0,6.0,0.0
1872,76.0,8.0,15.0,6.0,0.0
1873,78.0,6.0,15.0,6.0,0.0
1874,76.0,2.0,15.0,6.0,0.0
1875,71.0,10.0,40.0,8.0,0.0
1876,75.0,0.0,40.0,6.0,0.0
1877,75.0,8.0,15.0,6.0,0.0
1878,66.0,46.0,40.0,8.0,0.0
1879,78.0,50.0,90.0,7.0,0.0
1880,73.0,8.0,15.0,6.0,0.0
1881,75.0,8.0,15.0,6.0,0.0
1882,73.0,8.0,15.0,6.0,0.0
1883,75.0,6.0,15.0,6.0,0.0
1884,73.0,2.0,15.0,6.0,0.0
1885,71.0,0.0,40.0,8.0,0.0
1886,71.0,0.0,40.0,6.0,0.0
1887,54.0,8.0,150.0,10.0,0.0
1888,70.0,46.0,40.0,6.0,0.0
1889,54.0,0.0,90.0,11.0,0.0
1890,42.0,0.0,90.0,12.0,0.0
1891,90.0,0.0,40.0,7.0,0.0
1892,61.0,0.0,40.0,8.0,0.0
1893,88.0,0.0,40.0,7.0,0.0
1894,73.0,0.0,40.0,6.0,0.0
1895,70.0,26.0,40.0,8.0,0.0
1896,66.0,0.0,40.0,8.0,0.0
1897,78.0,0.0,40.0,6.0,0.0
1898,87.0,24.0,20.0,7.0,0.0
1899,88.0,16.0,20.0,7.0,0.0
1900,70.0,50.0,40.0,8.0,0.0
1901,76.0,0.0,40.0,6.0,0.0
1902,90.0,22.0,20.0,7.0,0.0
1903,88.0,50.0,120.0,7.0,0.0
1904,61.0,46.0,40.0,8.0,0.0
1905,76.0,30.0,150.0,6.0,0.0
1906,66.0,0.0,90.0,11.0,0.0
1907,54.0,0.0,90.0,12.0,0.0
1908,70.0,0.0,40.0,8.0,0.0
1909,87.0,16.0,40.0,7.0,0.0
1910,66.0,0.0,40.0,8.0,0.0
1911,85.0,0.0,40.0,7.0,0.0
1912,70.0,48.0,40.0,8.0,0.0
1913,52.0,0.0,90.0,12.0,0.0
1914,66.0,46.0,40.0,8.0,0.0
1915,64.0,0.0,90.0,11.0,0.0
1916,83.0,2.0,40.0,7.0,0.0
1917,73.0,0.0,40.0,8.0,0.0
1918,82.0,48.0,40.0,7.0,0.0
1919,80.0,2.0,40.0,7.0,0.0
1920,78.0,0.0,90.0,6.0,0.0
1921,70.0,46.0,40.0,8.0,0.0
1922,73.0,0.0,40.0,8.0,0.0
1923,78.0,26.0,40.0,7.0,0.0
1924,51.0,0.0,300.0,12.0,0.0
1925,82.0,24.0,20.0,6.0,0.0
1926,63.0,2.0,300.0,11.0,0.0
1927,78.0,2.0,90.0,8.0,0.0
1928,83.0,22.0,40.0,7.0,0.0
1929,83.0,0.0,20.0,6.0,0.0
1930,87.0,48.0,40.0,7.0,0.0
1931,85.0,24.0,20.0,6.0,0.0
1932,83.0,48.0,180.0,6.0,0.0
1933,92.0,16.0,40.0,7.0,0.0
1934,75.0,48.0,90.0,8.0,0.0
1935,90.0,0.0,40.0,7.0,0.0
1936,71.0,0.0,90.0,8.0,0.0
1937,90.0,0.0,90.0,7.0,0.0
1938,82.0,48.0,40.0,6.0,0.0
1939,78.0,50.0,90.0,7.0,0.0
1940,83.0,46.0,40.0,6.0,0.0
1941,63.0,0.0,90.0,8.0,0.0
1942,82.0,0.0,40.0,6.0,0.0
1943,78.0,50.0,90.0,7.0,0.0
1944,63.0,0.0,90.0,8.0,0.0
1945,83.0,46.0,40.0,6.0,0.0
1946,81.0,0.0,40.0,6.0,0.0
1947,63.0,96.0,90.0,8.0,0.0
1948,80.0,46.0,40.0,6.0,0.0
1949,71.0,0.0,90.0,7.0,0.0
1950,79.0,0.0,40.0,6.0,0.0
1951,80.0,94.0,180.0,6.0,0.0
1952,71.0,0.0,90.0,7.0,0.0
1953,64.0,96.0,90.0,8.0,0.0
1954,64.0,2.0,90.0,8.0,0.0
1955,71.0,0.0,90.0,7.0,0.0
1956,71.0,0.0,90.0,7.0,0.0
1957,92.0,94.0,180.0,6.0,0.0
1958,64.0,96.0,90.0,8.0,0.0
1959,71.0,2.0,90.0,7.0,0.0
1960,64.0,0.0,90.0,8.0,0.0
1961,66.0,0.0,90.0,8.0,0.0
1962,90.0,98.0,300.0,6.0,0.0
1963,70.0,96.0,90.0,7.0,0.0
1964,70.0,0.0,90.0,7.0,0.0
1965,66.0,96.0,90.0,8.0,0.0
1966,68.0,64.0,180.0,8.0,0.0
1967,71.0,0.0,180.0,7.0,0.0
1968,89.0,128.0,150.0,6.0,0.0
1969,73.0,64.0,180.0,7.0,0.0
1970,70.0,0.0,180.0,8.0,0.0
1971,88.0,96.0,150.0,6.0,0.0
1972,71.0,0.0,150.0,8.0,0.0
1973,78.0,80.0,150.0,7.0,0.0
1974,87.0,46.0,150.0,6.0,0.0
1975,80.0,2.0,150.0,7.0,0.0
1976,64.0,2.0,90.0,8.0,0.0
1977,85.0,46.0,40.0,6.0,0.0
1978,64.0,0.0,90.0,8.0,0.0
1979,88.0,46.0,40.0,6.0,0.0
1980,85.0,0.0,40.0,6.0,0.0
1981,76.0,50.0,40.0,7.0,0.0
1982,66.0,2.0,90.0,8.0,0.0
1983,75.0,46.0,40.0,7.0,0.0
1984,83.0,30.0,150.0,6.0,0.0
1985,76.0,48.0,40.0,7.0,0.0
1986,78.0,16.0,40.0,7.0,0.0
1987,66.0,10.0,90.0,8.0,0.0
1988,75.0,0.0,40.0,7.0,0.0
1989,83.0,8.0,15.0,6.0,0.0
1990,67.0,0.0,90.0,8.0,0.0
1991,73.0,8.0,40.0,7.0,0.0
1992,82.0,8.0,15.0,6.0,0.0
1993,83.0,8.0,15.0,6.0,0.0
1994,82.0,8.0,15.0,6.0,0.0
1995,83.0,6.0,15.0,6.0,0.0
1996,82.0,2.0,15.0,6.0,0.0
1997,75.0,8.0,40.0,7.0,0.0
1998,83.0,8.0,15.0,6.0,0.0
1999,82.0,8.0,15.0,6.0,0.0
2000,83.0,8.0,15.0,6.0,0.0
2001,82.0,8.0,15.0,6.0,0.0
2002,83.0,6.0,15.0,6.0,0.0
2003,82.0,2.0,15.0,6.0,0.0
2004,83.0,8.0,15.0,6.0,0.0
2005,67.0,0.0,90.0,8.0,0.0
2006,76.0,22.0,40.0,7.0,0.0
2007,82.0,8.0,15.0,6.0,0.0
2008,83.0,8.0,15.0,6.0,0.0
2009,82.0,8.0,15.0,6.0,0.0
2010,83.0,6.0,15.0,6.0,0.0
2011,82.0,2.0,15.0,6.0,0.0
2012,73.0,0.0,40.0,7.0,0.0
2013,80.0,24.0,20.0,6.0,0.0
2014,82.0,66.0,20.0,6.0,0.0
2015,82.0,64.0,60.0,6.0,0.0
2016,67.0,0.0,150.0,8.0,0.0
2017,76.0,46.0,150.0,7.0,0.0
2018,85.0,16.0,60.0,6.0,0.0
2019,83.0,0.0,60.0,6.0,0.0
2020,68.0,162.0,40.0,8.0,0.0
2021,75.0,0.0,40.0,7.0,0.0
2022,75.0,0.0,150.0,7.0,0.0
2023,83.0,248.0,150.0,6.0,0.0
2024,68.0,0.0,150.0,8.0,0.0
2025,64.0,0.0,90.0,11.0,0.0
2026,71.0,96.0,90.0,7.0,0.0
2027,79.0,24.0,20.0,6.0,0.0
2028,52.0,0.0,90.0,12.0,0.0
2029,68.0,0.0,90.0,8.0,0.0
2030,64.0,94.0,180.0,10.0,0.0
2031,80.0,22.0,20.0,6.0,0.0
2032,82.0,24.0,20.0,6.0,0.0
2033,80.0,2.0,120.0,6.0,0.0
2034,64.0,0.0,90.0,11.0,0.0
2035,71.0,0.0,90.0,7.0,0.0
2036,68.0,0.0,90.0,8.0,0.0
2037,52.0,0.0,90.0,12.0,0.0
2038,92.0,30.0,150.0,6.0,0.0
2039,61.0,0.0,90.0,11.0,0.0
2040,61.0,94.0,180.0,10.0,0.0
2041,49.0,66.0,90.0,12.0,0.0
2042,76.0,0.0,90.0,8.0,0.0
2043,70.0,0.0,90.0,7.0,0.0
2044,61.0,0.0,90.0,11.0,0.0
2045,70.0,0.0,90.0,7.0,0.0
2046,49.0,2.0,90.0,12.0,0.0
2047,76.0,0.0,90.0,8.0,0.0
2048,75.0,0.0,90.0,8.0,0.0
2049,63.0,30.0,150.0,10.0,0.0
2050,63.0,0.0,90.0,11.0,0.0
2051,51.0,66.0,90.0,12.0,0.0
2052,90.0,66.0,300.0,6.0,0.0
2053,71.0,0.0,90.0,7.0,0.0
2054,51.0,0.0,90.0,12.0,0.0
2055,75.0,0.0,90.0,8.0,0.0
2056,71.0,96.0,90.0,7.0,0.0
2057,63.0,0.0,90.0,11.0,0.0
2058,56.0,0.0,180.0,11.0,0.0
2059,44.0,64.0,180.0,12.0,0.0
2060,56.0,0.0,180.0,10.0,0.0
2061,73.0,32.0,150.0,7.0,0.0
2062,71.0,0.0,180.0,8.0,0.0
2063,89.0,128.0,150.0,6.0,0.0
2064,73.0,64.0,180.0,8.0,0.0
2065,58.0,0.0,180.0,10.0,0.0
2066,78.0,64.0,300.0,7.0,0.0
2067,58.0,0.0,180.0,11.0,0.0
2068,46.0,0.0,180.0,12.0,0.0
2069,88.0,32.0,150.0,6.0,0.0
2070,59.0,0.0,150.0,10.0,0.0
2071,71.0,0.0,150.0,8.0,0.0
2072,47.0,0.0,150.0,12.0,0.0
2073,59.0,30.0,150.0,11.0,0.0
2074,79.0,0.0,90.0,7.0,0.0
2075,87.0,96.0,90.0,6.0,0.0
2076,52.0,30.0,150.0,11.0,0.0
2077,84.0,0.0,90.0,6.0,0.0
2078,80.0,2.0,90.0,7.0,0.0
2079,68.0,64.0,90.0,8.0,0.0
2080,40.0,0.0,150.0,12.0,0.0
2081,76.0,0.0,90.0,8.0,0.0
2082,80.0,0.0,90.0,7.0,0.0
2083,64.0,50.0,90.0,10.0,0.0
2084,85.0,46.0,150.0,6.0,0.0
2085,80.0,0.0,90.0,7.0,0.0
2086,76.0,0.0,90.0,8.0,0.0
2087,64.0,2.0,90.0,10.0,0.0
2088,87.0,48.0,40.0,6.0,0.0
2089,73.0,0.0,90.0,8.0,0.0
2090,76.0,0.0,90.0,7.0,0.0
2091,88.0,46.0,40.0,6.0,0.0
2092,64.0,0.0,90.0,10.0,0.0
2093,87.0,50.0,40.0,6.0,0.0
2094,85.0,46.0,40.0,6.0,0.0
2095,64.0,2.0,90.0,10.0,0.0
2096,76.0,0.0,90.0,8.0,0.0
2097,80.0,0.0,90.0,7.0,0.0
2098,83.0,48.0,40.0,6.0,0.0
2099,64.0,0.0,90.0,10.0,0.0
2100,73.0,0.0,90.0,8.0,0.0
2101,76.0,162.0,90.0,7.0,0.0
2102,82.0,46.0,40.0,6.0,0.0
2103,80.0,0.0,40.0,6.0,0.0
2104,54.0,0.0,150.0,11.0,0.0
2105,66.0,30.0,150.0,5.0,0.0
2106,78.0,0.0,150.0,6.0,0.0
2107,78.0,0.0,150.0,5.0,0.0
2108,42.0,0.0,150.0,12.0,0.0
2109,71.0,0.0,90.0,8.0,0.0
2110,66.0,96.0,90.0,10.0,0.0
2111,75.0,0.0,90.0,7.0,0.0
2112,75.0,0.0,90.0,7.0,0.0
2113,90.0,30.0,270.0,6.0,0.0
2114,75.0,0.0,150.0,5.0,0.0
2115,66.0,66.0,90.0,10.0,0.0
2116,63.0,30.0,150.0,5.0,0.0
2117,71.0,0.0,90.0,8.0,0.0
2118,75.0,0.0,90.0,7.0,0.0
2119,66.0,66.0,90.0,10.0,0.0
2120,71.0,0.0,90.0,8.0,0.0
2121,71.0,0.0,150.0,5.0,0.0
2122,75.0,0.0,90.0,7.0,0.0
2123,71.0,0.0,90.0,8.0,0.0
2124,59.0,30.0,150.0,5.0,0.0
2125,66.0,50.0,90.0,10.0,0.0
2126,66.0,0.0,90.0,10.0,0.0
2127,75.0,0.0,90.0,7.0,0.0
2128,87.0,16.0,40.0,6.0,0.0
2129,71.0,0.0,90.0,8.0,0.0
2130,83.0,10.0,40.0,6.0,0.0
2131,66.0,0.0,540.0,5.0,0.0
2132,54.0,22.0,540.0,5.0,0.0
2133,42.0,8.0,150.0,12.0,0.0
2134,54.0,0.0,150.0,11.0,0.0
2135,87.0,8.0,15.0,6.0,0.0
2136,85.0,8.0,15.0,6.0,0.0
2137,87.0,8.0,15.0,6.0,0.0
2138,85.0,8.0,15.0,6.0,0.0
2139,87.0,6.0,15.0,6.0,0.0
2140,85.0,10.0,15.0,6.0,0.0
2141,87.0,8.0,15.0,6.0,0.0
2142,85.0,8.0,15.0,6.0,0.0
2143,87.0,8.0,15.0,6.0,0.0
2144,85.0,8.0,15.0,6.0,0.0
2145,87.0,6.0,15.0,6.0,0.0
2146,85.0,10.0,15.0,6.0,0.0
2147,70.0,0.0,90.0,8.0,0.0
2148,87.0,8.0,15.0,6.0,0.0
2149,76.0,0.0,90.0,7.0,0.0
2150,54.0,10.0,90.0,10.0,0.0
2151,66.0,0.0,90.0,10.0,0.0
2152,85.0,8.0,15.0,6.0,0.0
2153,87.0,8.0,15.0,6.0,0.0
2154,85.0,8.0,15.0,6.0,0.0
2155,87.0,6.0,15.0,6.0,0.0
2156,85.0,10.0,15.0,6.0,0.0
2157,87.0,8.0,15.0,6.0,0.0
2158,85.0,0.0,15.0,6.0,0.0
2159,87.0,8.0,15.0,6.0,0.0
2160,85.0,8.0,15.0,6.0,0.0
2161,87.0,6.0,15.0,6.0,0.0
2162,85.0,0.0,15.0,6.0,0.0
2163,66.0,0.0,90.0,10.0,0.0
2164,70.0,0.0,90.0,8.0,0.0
2165,76.0,0.0,90.0,7.0,0.0
2166,87.0,8.0,15.0,6.0,0.0
2167,54.0,10.0,90.0,10.0,0.0
2168,85.0,8.0,15.0,6.0,0.0
2169,87.0,8.0,15.0,6.0,0.0
2170,85.0,8.0,15.0,6.0,0.0
2171,87.0,6.0,15.0,6.0,0.0
2172,85.0,10.0,15.0,6.0,0.0
2173,87.0,8.0,15.0,6.0,0.0
2174,85.0,8.0,15.0,6.0,0.0
2175,87.0,8.0,15.0,6.0,0.0
2176,85.0,8.0,15.0,6.0,0.0
2177,87.0,6.0,15.0,6.0,0.0
2178,85.0,0.0,15.0,6.0,0.0
2179,66.0,0.0,90.0,10.0,0.0
2180,76.0,0.0,90.0,7.0,0.0
2181,54.0,0.0,90.0,10.0,0.0
2182,87.0,8.0,15.0,6.0,0.0
2183,70.0,10.0,90.0,8.0,0.0
2184,85.0,8.0,15.0,6.0,0.0
2185,87.0,8.0,15.0,6.0,0.0
2186,85.0,8.0,15.0,6.0,0.0
2187,87.0,6.0,15.0,6.0,0.0
2188,85.0,10.0,15.0,6.0,0.0
2189,87.0,8.0,15.0,6.0,0.0
2190,85.0,8.0,15.0,6.0,0.0
2191,87.0,8.0,15.0,6.0,0.0
2192,85.0,8.0,15.0,6.0,0.0
2193,87.0,6.0,15.0,6.0,0.0
2194,85.0,0.0,15.0,6.0,0.0
2195,54.0,0.0,90.0,10.0,0.0
2196,82.0,0.0,90.0,7.0,0.0
2197,66.0,0.0,90.0,10.0,0.0
2198,76.0,0.0,90.0,8.0,0.0
2199,87.0,8.0,15.0,6.0,0.0
2200,85.0,8.0,15.0,6.0,0.0
2201,87.0,8.0,15.0,6.0,0.0
2202,85.0,8.0,15.0,6.0,0.0
2203,87.0,6.0,15.0,6.0,0.0
2204,85.0,10.0,15.0,6.0,0.0
2205,87.0,8.0,15.0,6.0,0.0
2206,85.0,8.0,15.0,6.0,0.0
2207,87.0,8.0,15.0,6.0,0.0
2208,85.0,8.0,15.0,6.0,0.0
2209,87.0,6.0,15.0,6.0,0.0
2210,85.0,10.0,15.0,6.0,0.0
2211,66.0,0.0,90.0,10.0,0.0
2212,87.0,8.0,15.0,6.0,0.0
2213,54.0,0.0,90.0,10.0,0.0
2214,82.0,0.0,90.0,7.0,0.0
2215,76.0,0.0,90.0,8.0,0.0
2216,85.0,8.0,15.0,6.0,0.0
2217,87.0,8.0,15.0,6.0,0.0
2218,85.0,8.0,15.0,6.0,0.0
2219,87.0,6.0,15.0,6.0,0.0
2220,85.0,2.0,15.0,6.0,0.0
2221,83.0,24.0,20.0,6.0,0.0
2222,85.0,50.0,20.0,6.0,0.0
2223,83.0,16.0,150.0,6.0,0.0
2224,47.0,0.0,90.0,12.0,0.0
2225,59.0,0.0,2460.0,5.0,0.0
2226,59.0,34.0,90.0,11.0,0.0
2227,66.0,0.0,90.0,10.0,0.0
2228,71.0,48.0,570.0,1.0,0.0
2229,83.0,0.0,90.0,7.0,0.0
2230,83.0,0.0,570.0,1.0,0.0
2231,75.0,46.0,40.0,8.0,0.0
2232,71.0,0.0,2460.0,5.0,0.0
2233,78.0,0.0,40.0,8.0,0.0
2234,75.0,32.0,30.0,8.0,0.0
2235,66.0,0.0,150.0,10.0,0.0
2236,83.0,30.0,150.0,7.0,0.0
2237,59.0,0.0,90.0,11.0,0.0
2238,47.0,50.0,90.0,12.0,0.0
2239,75.0,14.0,30.0,8.0,0.0
2240,47.0,0.0,90.0,12.0,0.0
2241,75.0,16.0,40.0,8.0,0.0
2242,59.0,0.0,90.0,11.0,0.0
2243,78.0,34.0,40.0,8.0,0.0
2244,47.0,50.0,90.0,12.0,0.0
2245,66.0,0.0,150.0,10.0,0.0
2246,83.0,30.0,150.0,7.0,0.0
2247,59.0,0.0,90.0,11.0,0.0
2248,75.0,48.0,30.0,8.0,0.0
2249,75.0,14.0,30.0,8.0,0.0
2250,47.0,0.0,90.0,12.0,0.0
2251,75.0,16.0,40.0,8.0,0.0
2252,59.0,0.0,90.0,11.0,0.0
2253,78.0,34.0,40.0,8.0,0.0
2254,71.0,2.0,90.0,10.0,0.0
2255,59.0,0.0,90.0,11.0,0.0
2256,47.0,0.0,90.0,12.0,0.0
2257,83.0,0.0,90.0,7.0,0.0
2258,75.0,48.0,30.0,8.0,0.0
2259,75.0,14.0,30.0,8.0,0.0
2260,85.0,0.0,90.0,7.0,0.0
2261,59.0,0.0,90.0,11.0,0.0
2262,85.0,48.0,570.0,1.0,0.0
2263,70.0,0.0,570.0,1.0,0.0
2264,47.0,0.0,90.0,12.0,0.0
2265,76.0,46.0,40.0,8.0,0.0
2266,70.0,34.0,90.0,10.0,0.0
2267,78.0,0.0,40.0,8.0,0.0
2268,59.0,0.0,90.0,11.0,0.0
2269,85.0,0.0,150.0,7.0,0.0
2270,47.0,50.0,90.0,12.0,0.0
2271,70.0,30.0,150.0,10.0,0.0
2272,76.0,48.0,30.0,8.0,0.0
2273,76.0,14.0,30.0,8.0,0.0
2274,76.0,16.0,40.0,8.0,0.0
2275,47.0,34.0,90.0,12.0,0.0
2276,59.0,0.0,90.0,11.0,0.0
2277,78.0,0.0,40.0,8.0,0.0
2278,59.0,50.0,90.0,11.0,0.0
2279,47.0,0.0,90.0,12.0,0.0
2280,70.0,30.0,150.0,10.0,0.0
2281,76.0,48.0,30.0,8.0,0.0
2282,85.0,0.0,150.0,7.0,0.0
2283,76.0,14.0,30.0,8.0,0.0
2284,47.0,0.0,90.0,12.0,0.0
2285,59.0,0.0,90.0,11.0,0.0
2286,76.0,16.0,40.0,8.0,0.0
2287,78.0,34.0,40.0,8.0,0.0
2288,47.0,0.0,90.0,12.0,0.0
2289,70.0,0.0,90.0,10.0,0.0
2290,85.0,0.0,90.0,7.0,0.0
2291,76.0,48.0,30.0,8.0,0.0
2292,59.0,2.0,90.0,11.0,0.0
2293,76.0,14.0,30.0,8.0,0.0
2294,59.0,0.0,90.0,11.0,0.0
2295,78.0,46.0,40.0,8.0,0.0
2296,87.0,0.0,90.0,7.0,0.0
2297,69.0,0.0,90.0,1.0,0.0
2298,69.0,0.0,90.0,10.0,0.0
2299,47.0,34.0,90.0,12.0,0.0
2300,87.0,0.0,90.0,1.0,0.0
2301,75.0,0.0,40.0,8.0,0.0
2302,69.0,30.0,150.0,10.0,0.0
2303,87.0,0.0,150.0,7.0,0.0
2304,59.0,0.0,90.0,11.0,0.0
2305,78.0,48.0,30.0,8.0,0.0
2306,47.0,50.0,90.0,12.0,0.0
2307,78.0,14.0,30.0,8.0,0.0
2308,78.0,16.0,40.0,8.0,0.0
2309,47.0,0.0,90.0,12.0,0.0
2310,59.0,0.0,90.0,11.0,0.0
2311,71.0,34.0,40.0,8.0,0.0
2312,59.0,0.0,150.0,10.0,0.0
2313,78.0,48.0,30.0,8.0,0.0
2314,47.0,0.0,90.0,12.0,0.0
2315,87.0,30.0,150.0,7.0,0.0
2316,59.0,50.0,90.0,11.0,0.0
2317,78.0,14.0,30.0,8.0,0.0
2318,57.0,0.0,90.0,11.0,0.0
2319,78.0,16.0,40.0,8.0,0.0
2320,45.0,34.0,90.0,12.0,0.0
2321,71.0,0.0,40.0,8.0,0.0
2322,87.0,50.0,90.0,7.0,0.0
2323,78.0,48.0,30.0,8.0,0.0
2324,71.0,0.0,180.0,10.0,0.0
2325,45.0,0.0,90.0,12.0,0.0
2326,57.0,0.0,90.0,11.0,0.0
2327,78.0,14.0,30.0,8.0,0.0
2328,44.0,0.0,90.0,12.0,0.0
2329,76.0,46.0,40.0,8.0,0.0
2330,56.0,0.0,90.0,11.0,0.0
2331,88.0,0.0,90.0,7.0,0.0
2332,71.0,34.0,40.0,8.0,0.0
2333,56.0,0.0,90.0,11.0,0.0
2334,88.0,0.0,150.0,7.0,0.0
2335,71.0,30.0,150.0,10.0,0.0
2336,80.0,48.0,30.0,8.0,0.0
2337,44.0,50.0,90.0,12.0,0.0
2338,80.0,14.0,30.0,8.0,0.0
2339,80.0,16.0,40.0,8.0,0.0
2340,56.0,0.0,90.0,11.0,0.0
2341,44.0,34.0,90.0,12.0,0.0
2342,76.0,0.0,40.0,8.0,0.0
2343,44.0,50.0,90.0,12.0,0.0
2344,56.0,0.0,90.0,11.0,0.0
2345,68.0,0.0,90.0,10.0,0.0
2346,83.0,48.0,30.0,8.0,0.0
2347,89.0,0.0,90.0,7.0,0.0
2348,83.0,14.0,30.0,8.0,0.0
2349,83.0,46.0,40.0,8.0,0.0
2350,63.0,0.0,90.0,10.0,0.0
2351,39.0,0.0,90.0,12.0,0.0
2352,90.0,0.0,90.0,7.0,0.0
2353,51.0,34.0,90.0,11.0,0.0
2354,78.0,0.0,40.0,8.0,0.0
2355,39.0,0.0,90.0,12.0,0.0
2356,83.0,48.0,30.0,8.0,0.0
2357,63.0,34.0,90.0,10.0,0.0
2358,91.0,0.0,90.0,7.0,0.0
2359,51.0,0.0,90.0,11.0,0.0
2360,83.0,14.0,30.0,8.0,0.0
2361,80.0,32.0,150.0,8.0,0.0
2362,40.0,0.0,30.0,12.0,0.0
2363,92.0,30.0,270.0,7.0,0.0
2364,64.0,0.0,150.0,10.0,0.0
2365,52.0,128.0,30.0,11.0,0.0
2366,80.0,0.0,540.0,1.0,0.0
2367,40.0,64.0,90.0,12.0,0.0
2368,52.0,0.0,90.0,11.0,0.0
2369,56.0,0.0,90.0,11.0,0.0
2370,64.0,2.0,90.0,8.0,0.0
2371,61.0,0.0,90.0,10.0,0.0
2372,44.0,48.0,90.0,12.0,0.0
2373,61.0,0.0,90.0,11.0,0.0
2374,61.0,0.0,180.0,10.0,0.0
2375,68.0,30.0,150.0,8.0,0.0
2376,49.0,0.0,90.0,12.0,0.0
2377,90.0,46.0,40.0,7.0,0.0
2378,88.0,50.0,40.0,7.0,0.0
2379,52.0,0.0,90.0,12.0,0.0
2380,64.0,48.0,90.0,11.0,0.0
2381,87.0,16.0,40.0,7.0,0.0
2382,85.0,2.0,40.0,7.0,0.0
2383,80.0,0.0,40.0,7.0,0.0
2384,53.0,0.0,90.0,12.0,0.0
2385,73.0,0.0,90.0,8.0,0.0
2386,65.0,96.0,90.0,11.0,0.0
2387,65.0,0.0,90.0,10.0,0.0
2388,85.0,0.0,40.0,7.0,0.0
2389,66.0,2.0,90.0,11.0,0.0
2390,83.0,0.0,90.0,7.0,0.0
2391,83.0,94.0,90.0,1.0,0.0
2392,66.0,0.0,90.0,10.0,0.0
2393,75.0,0.0,90.0,1.0,0.0
2394,54.0,0.0,90.0,12.0,0.0
2395,75.0,0.0,90.0,8.0,0.0
2396,73.0,0.0,90.0,10.0,0.0
2397,55.0,0.0,90.0,12.0,0.0
2398,76.0,0.0,90.0,1.0,0.0
2399,82.0,0.0,90.0,7.0,0.0
2400,76.0,0.0,90.0,8.0,0.0
2401,67.0,0.0,90.0,11.0,0.0
2402,82.0,96.0,90.0,1.0,0.0
2403,56.0,94.0,90.0,12.0,0.0
2404,71.0,0.0,90.0,10.0,0.0
2405,83.0,0.0,90.0,7.0,0.0
2406,68.0,0.0,90.0,11.0,0.0
2407,83.0,2.0,90.0,1.0,0.0
2408,75.0,0.0,90.0,8.0,0.0
2409,75.0,0.0,90.0,1.0,0.0
2410,71.0,30.0,150.0,10.0,0.0
2411,63.0,66.0,90.0,8.0,0.0
2412,66.0,0.0,90.0,11.0,0.0
2413,81.0,0.0,90.0,7.0,0.0
2414,54.0,0.0,90.0,12.0,0.0
2415,80.0,0.0,90.0,7.0,0.0
2416,64.0,2.0,90.0,8.0,0.0
2417,64.0,0.0,90.0,11.0,0.0
2418,52.0,94.0,90.0,12.0,0.0
2419,72.0,94.0,90.0,8.0,0.0
2420,78.0,0.0,90.0,7.0,0.0
2421,63.0,2.0,90.0,11.0,0.0
2422,68.0,2.0,180.0,10.0,0.0
2423,51.0,0.0,90.0,12.0,0.0
2424,77.0,0.0,90.0,7.0,0.0
2425,73.0,0.0,90.0,8.0,0.0
2426,61.0,0.0,90.0,11.0,0.0
2427,49.0,94.0,90.0,12.0,0.0
2428,73.0,0.0,90.0,10.0,0.0
2429,46.0,0.0,90.0,12.0,0.0
2430,76.0,2.0,90.0,7.0,0.0
2431,67.0,0.0,90.0,8.0,0.0
2432,58.0,48.0,90.0,11.0,0.0
2433,47.0,2.0,90.0,12.0,0.0
2434,71.0,0.0,90.0,10.0,0.0
2435,74.0,46.0,40.0,7.0,0.0
2436,66.0,0.0,90.0,8.0,0.0
2437,59.0,0.0,90.0,11.0,0.0
2438,75.0,48.0,40.0,7.0,0.0
2439,76.0,46.0,40.0,7.0,0.0
2440,77.0,50.0,40.0,7.0,0.0
2441,39.0,2.0,90.0,12.0,0.0
2442,78.0,0.0,40.0,7.0,0.0
2443,51.0,0.0,90.0,11.0,0.0
2444,78.0,46.0,40.0,1.0,0.0
2445,79.0,0.0,40.0,7.0,0.0
2446,79.0,48.0,40.0,1.0,0.0
2447,80.0,0.0,40.0,7.0,0.0
2448,64.0,0.0,40.0,8.0,0.0
2449,40.0,0.0,90.0,12.0,0.0
2450,80.0,0.0,40.0,1.0,0.0
2451,68.0,338.0,90.0,10.0,0.0
2452,52.0,0.0,90.0,11.0,0.0
2453,73.0,0.0,40.0,8.0,0.0
2454,73.0,0.0,40.0,1.0,0.0
2455,76.0,0.0,40.0,7.0,0.0
2456,76.0,46.0,15.0,1.0,0.0
2457,75.0,0.0,330.0,1.0,0.0
2458,66.0,26.0,480.0,6.0,0.0
2459,71.0,0.0,330.0,1.0,0.0
2460,42.0,0.0,330.0,12.0,0.0
2461,75.0,0.0,330.0,7.0,0.0
2462,54.0,142.0,330.0,5.0,0.0
2463,71.0,0.0,330.0,8.0,0.0
2464,66.0,0.0,330.0,5.0,0.0
2465,54.0,0.0,330.0,10.0,0.0
2466,66.0,0.0,330.0,10.0,0.0
2467,54.0,0.0,330.0,11.0,0.0
2468,71.0,12.0,20.0,6.0,0.0
2469,70.0,12.0,15.0,6.0,0.0
2470,71.0,12.0,15.0,6.0,0.0
2471,73.0,12.0,15.0,6.0,0.0
2472,71.0,12.0,15.0,6.0,0.0
2473,70.0,10.0,15.0,6.0,0.0
2474,71.0,96.0,15.0,6.0,0.0
2475,66.0,50.0,90.0,6.0,0.0
2476,75.0,24.0,40.0,6.0,0.0
2477,74.0,24.0,20.0,6.0,0.0
2478,75.0,24.0,20.0,6.0,0.0
2479,76.0,24.0,20.0,6.0,0.0
2480,75.0,24.0,20.0,6.0,0.0
2481,74.0,22.0,20.0,6.0,0.0
2482,75.0,96.0,20.0,6.0,0.0
2483,71.0,50.0,90.0,6.0,0.0
2484,78.0,24.0,40.0,6.0,0.0
2485,77.0,24.0,20.0,6.0,0.0
2486,78.0,24.0,20.0,6.0,0.0
2487,80.0,24.0,20.0,6.0,0.0
2488,78.0,24.0,20.0,6.0,0.0
2489,77.0,22.0,20.0,6.0,0.0
2490,78.0,74.0,20.0,6.0,0.0
2491,75.0,22.0,60.0,6.0,0.0
2492,78.0,26.0,20.0,6.0,0.0
2493,83.0,22.0,20.0,6.0,0.0
2494,82.0,26.0,20.0,6.0,0.0
2495,85.0,22.0,20.0,6.0,0.0
2496,83.0,26.0,20.0,6.0,0.0
2497,87.0,22.0,20.0,6.0,0.0
2498,85.0,26.0,20.0,6.0,0.0
2499,88.0,22.0,20.0,6.0,0.0
2500,87.0,26.0,20.0,6.0,0.0
2501,90.0,22.0,20.0,6.0,0.0
2502,89.0,26.0,20.0,6.0,0.0
2503,92.0,22.0,20.0,6.0,0.0
2504,90.0,74.0,20.0,6.0,0.0
2505,95.0,24.0,60.0,6.0,0.0
2506,94.0,24.0,20.0,6.0,0.0
2507,92.0,22.0,20.0,6.0,0.0
2508,90.0,14.0,20.0,6.0,0.0
2509,89.0,12.0,15.0,6.0,0.0
2510,87.0,12.0,15.0,6.0,0.0
2511,85.0,12.0,15.0,6.0,0.0
2512,83.0,12.0,15.0,6.0,0.0
2513,82.0,12.0,15.0,6.0,0.0
2514,80.0,12.0,15.0,6.0,0.0
2515,78.0,12.0,15.0,6.0,0.0
2516,76.0,12.0,15.0,6.0,0.0
2517,75.0,12.0,15.0,6.0,0.0
2518,73.0,12.0,15.0,6.0,0.0
2519,71.0,12.0,15.0,6.0,0.0
2520,70.0,12.0,15.0,6.0,0.0
2521,71.0,12.0,15.0,6.0,0.0
2522,73.0,12.0,15.0,6.0,0.0
2523,75.0,12.0,15.0,6.0,0.0
2524,76.0,12.0,15.0,6.0,0.0
2525,78.0,12.0,15.0,6.0,0.0
2526,80.0,12.0,15.0,6.0,0.0
2527,82.0,10.0,15.0,6.0,0.0
2528,83.0,26.0,15.0,6.0,0.0
2529,85.0,24.0,20.0,6.0,0.0
2530,83.0,24.0,20.0,6.0,0.0
2531,82.0,22.0,20.0,6.0,0.0
2532,83.0,26.0,20.0,6.0,0.0
2533,85.0,22.0,20.0,6.0,0.0
2534,83.0,26.0,20.0,6.0,0.0
2535,87.0,22.0,20.0,6.0,0.0
2536,85.0,98.0,20.0,6.0,0.0
2537,88.0,94.0,90.0,6.0,0.0
2538,87.0,26.0,90.0,6.0,0.0
2539,87.0,24.0,20.0,6.0,0.0
2540,85.0,16.0,20.0,6.0,0.0
2541,87.0,16.0,15.0,6.0,0.0
2542,85.0,16.0,15.0,6.0,0.0
2543,87.0,10.0,15.0,6.0,0.0
2544,85.0,14.0,15.0,6.0,0.0
2545,87.0,12.0,15.0,6.0,0.0
2546,85.0,12.0,15.0,6.0,0.0
2547,87.0,8.0,15.0,6.0,0.0
2548,85.0,8.0,15.0,6.0,0.0
2549,87.0,6.0,15.0,6.0,0.0
2550,85.0,10.0,15.0,6.0,0.0
2551,87.0,6.0,15.0,6.0,0.0
2552,85.0,10.0,15.0,6.0,0.0
2553,87.0,8.0,15.0,6.0,0.0
2554,85.0,8.0,15.0,6.0,0.0
2555,87.0,8.0,15.0,6.0,0.0
2556,85.0,8.0,15.0,6.0,0.0
2557,87.0,6.0,15.0,6.0,0.0
2558,85.0,10.0,15.0,6.0,0.0
2559,87.0,8.0,15.0,6.0,0.0
2560,85.0,8.0,15.0,6.0,0.0
2561,87.0,8.0,15.0,6.0,0.0
2562,85.0,8.0,15.0,6.0,0.0
2563,87.0,6.0,15.0,6.0,0.0
2564,85.0,10.0,15.0,6.0,0.0
2565,87.0,8.0,15.0,6.0,0.0
2566,85.0,8.0,15.0,6.0,0.0
2567,87.0,8.0,15.0,6.0,0.0
2568,85.0,8.0,15.0,6.0,0.0
2569,87.0,6.0,15.0,6.0,0.0
2570,85.0,10.0,15.0,6.0,0.0
2571,87.0,8.0,15.0,6.0,0.0
2572,85.0,8.0,15.0,6.0,0.0
2573,87.0,8.0,15.0,6.0,0.0
2574,85.0,8.0,15.0,6.0,0.0
2575,87.0,6.0,15.0,6.0,0.0
2576,85.0,10.0,15.0,6.0,0.0
2577,87.0,8.0,15.0,6.0,0.0
2578,85.0,8.0,15.0,6.0,0.0
2579,87.0,8.0,15.0,6.0,0.0
2580,85.0,8.0,15.0,6.0,0.0
2581,87.0,6.0,15.0,6.0,0.0
2582,85.0,10.0,15.0,6.0,0.0
2583,87.0,8.0,15.0,6.0,0.0
2584,85.0,8.0,15.0,6.0,0.0
2585,87.0,8.0,15.0,6.0,0.0
2586,85.0,8.0,15.0,6.0,0.0
2587,87.0,6.0,15.0,6.0,0.0
2588,85.0,10.0,15.0,6.0,0.0
2589,87.0,8.0,15.0,6.0,0.0
2590,85.0,8.0,15.0,6.0,0.0
2591,87.0,8.0,15.0,6.0,0.0
2592,85.0,8.0,15.0,6.0,0.0
2593,87.0,6.0,15.0,6.0,0.0
2594,85.0,10.0,15.0,6.0,0.0
2595,87.0,22.0,15.0,6.0,0.0
2596,83.0,24.0,20.0,6.0,0.0
2597,85.0,96.0,20.0,6.0,0.0
2598,71.0,0.0,150.0,10.0,0.0
2599,71.0,0.0,150.0,8.0,0.0
2600,47.0,0.0,90.0,12.0,0.0
2601,83.0,30.0,150.0,6.0,0.0
2602,71.0,0.0,150.0,7.0,0.0
2603,59.0,66.0,90.0,11.0,0.0
2604,47.0,0.0,90.0,12.0,0.0
2605,59.0,96.0,90.0,11.0,0.0
2606,42.0,0.0,90.0,12.0,0.0
2607,66.0,0.0,150.0,8.0,0.0
2608,66.0,30.0,150.0,10.0,0.0
2609,66.0,0.0,150.0,7.0,0.0
2610,54.0,66.0,90.0,11.0,0.0
2611,54.0,96.0,90.0,11.0,0.0
2612,42.0,0.0,90.0,12.0,0.0
2613,51.0,66.0,90.0,11.0,0.0
2614,63.0,0.0,150.0,8.0,0.0
2615,39.0,0.0,90.0,12.0,0.0
2616,63.0,30.0,150.0,7.0,0.0
2617,63.0,0.0,150.0,10.0,0.0
2618,39.0,0.0,90.0,12.0,0.0
2619,51.0,96.0,90.0,11.0,0.0
2620,68.0,0.0,180.0,1.0,0.0
2621,64.0,48.0,150.0,7.0,0.0
2622,64.0,0.0,150.0,8.0,0.0
2623,59.0,0.0,540.0,5.0,0.0
2624,40.0,2.0,90.0,12.0,0.0
2625,52.0,0.0,90.0,11.0,0.0
2626,71.0,0.0,540.0,5.0,0.0
2627,64.0,46.0,90.0,10.0,0.0
2628,52.0,0.0,90.0,11.0,0.0
2629,71.0,0.0,90.0,10.0,0.0
2630,40.0,0.0,90.0,12.0,0.0
2631,80.0,2.0,40.0,8.0,0.0
2632,83.0,0.0,40.0,7.0,0.0
2633,40.0,0.0,90.0,12.0,0.0
2634,71.0,0.0,90.0,10.0,0.0
2635,82.0,0.0,40.0,8.0,0.0
2636,71.0,46.0,15.0,1.0,0.0
2637,85.0,48.0,40.0,7.0,0.0
2638,52.0,96.0,90.0,11.0,0.0
2639,80.0,2.0,150.0,8.0,0.0
2640,83.0,0.0,150.0,7.0,0.0
2641,52.0,0.0,90.0,11.0,0.0
2642,71.0,0.0,90.0,10.0,0.0
2643,40.0,0.0,90.0,12.0,0.0
2644,76.0,48.0,15.0,1.0,0.0
2645,85.0,46.0,40.0,7.0,0.0
2646,71.0,2.0,90.0,10.0,0.0
2647,40.0,0.0,90.0,12.0,0.0
2648,52.0,0.0,90.0,11.0,0.0
2649,82.0,0.0,40.0,8.0,0.0
2650,80.0,0.0,150.0,1.0,0.0
2651,80.0,0.0,40.0,8.0,0.0
2652,83.0,48.0,40.0,7.0,0.0
2653,78.0,0.0,40.0,8.0,0.0
2654,40.0,0.0,90.0,12.0,0.0
2655,82.0,16.0,40.0,7.0,0.0
2656,71.0,0.0,90.0,10.0,0.0
2657,52.0,50.0,90.0,11.0,0.0
2658,76.0,0.0,40.0,8.0,0.0
2659,80.0,0.0,40.0,7.0,0.0
2660,76.0,0.0,40.0,8.0,0.0
2661,80.0,46.0,40.0,7.0,0.0
2662,54.0,0.0,540.0,5.0,0.0
2663,66.0,0.0,540.0,5.0,0.0
2664,80.0,0.0,40.0,1.0,0.0
2665,42.0,0.0,90.0,12.0,0.0
2666,54.0,0.0,90.0,11.0,0.0
2667,71.0,0.0,90.0,10.0,0.0
2668,76.0,0.0,40.0,1.0,0.0
2669,78.0,0.0,40.0,1.0,0.0
2670,75.0,0.0,40.0,8.0,0.0
2671,78.0,96.0,40.0,7.0,0.0
2672,75.0,0.0,40.0,1.0,0.0
2673,78.0,18.0,150.0,7.0,0.0
2674,54.0,0.0,90.0,11.0,0.0
2675,71.0,48.0,90.0,10.0,0.0
2676,78.0,0.0,150.0,1.0,0.0
2677,42.0,0.0,90.0,12.0,0.0
2678,75.0,0.0,150.0,1.0,0.0
2679,75.0,30.0,150.0,8.0,0.0
2680,42.0,48.0,90.0,12.0,0.0
2681,71.0,0.0,90.0,10.0,0.0
2682,54.0,0.0,90.0,11.0,0.0
2683,79.0,0.0,40.0,7.0,0.0
2684,42.0,0.0,90.0,12.0,0.0
2685,80.0,46.0,40.0,1.0,0.0
2686,71.0,0.0,90.0,10.0,0.0
2687,76.0,0.0,40.0,1.0,0.0
2688,54.0,0.0,90.0,11.0,0.0
2689,80.0,2.0,40.0,7.0,0.0
2690,76.0,0.0,40.0,8.0,0.0
2691,78.0,50.0,40.0,7.0,0.0
2692,78.0,0.0,40.0,1.0,0.0
2693,75.0,0.0,40.0,1.0,0.0
2694,75.0,0.0,40.0,8.0,0.0
2695,42.0,0.0,90.0,12.0,0.0
2696,66.0,2.0,90.0,10.0,0.0
2697,54.0,0.0,90.0,11.0,0.0
2698,75.0,46.0,40.0,1.0,0.0
2699,78.0,0.0,40.0,7.0,0.0
2700,78.0,0.0,40.0,1.0,0.0
2701,75.0,0.0,40.0,8.0,0.0
2702,76.0,0.0,40.0,7.0,0.0
2703,73.0,0.0,40.0,8.0,0.0
2704,76.0,48.0,40.0,1.0,0.0
2705,73.0,0.0,40.0,1.0,0.0
2706,75.0,0.0,40.0,7.0,0.0
2707,71.0,0.0,40.0,8.0,0.0
2708,71.0,46.0,40.0,1.0,0.0
2709,54.0,0.0,90.0,11.0,0.0
2710,66.0,0.0,90.0,10.0,0.0
2711,42.0,0.0,90.0,12.0,0.0
2712,75.0,0.0,40.0,1.0,0.0
2713,73.0,0.0,40.0,7.0,0.0
2714,70.0,0.0,40.0,8.0,0.0
2715,76.0,0.0,40.0,1.0,0.0
2716,73.0,82.0,40.0,1.0,0.0
2717,71.0,0.0,150.0,1.0,0.0
2718,56.0,0.0,180.0,11.0,0.0
2719,63.0,0.0,180.0,10.0,0.0
2720,44.0,80.0,180.0,12.0,0.0
2721,71.0,0.0,30.0,7.0,0.0
2722,63.0,64.0,30.0,8.0,0.0
2723,71.0,0.0,40.0,7.0,0.0
2724,63.0,16.0,40.0,8.0,0.0
2725,75.0,0.0,40.0,7.0,0.0
2726,71.0,2.0,40.0,8.0,0.0
2727,64.0,0.0,180.0,10.0,0.0
2728,80.0,0.0,150.0,1.0,0.0
2729,52.0,0.0,180.0,11.0,0.0
2730,68.0,30.0,150.0,1.0,0.0
2731,40.0,80.0,180.0,12.0,0.0
2732,68.0,64.0,30.0,8.0,0.0
2733,73.0,0.0,30.0,7.0,0.0
2734,68.0,0.0,40.0,8.0,0.0
2735,73.0,16.0,40.0,7.0,0.0
2736,71.0,0.0,40.0,8.0,0.0
2737,76.0,2.0,40.0,7.0,0.0
2738,70.0,0.0,150.0,1.0,0.0
2739,66.0,0.0,150.0,10.0,0.0
2740,54.0,0.0,150.0,11.0,0.0
2741,73.0,30.0,150.0,1.0,0.0
2742,42.0,0.0,150.0,12.0,0.0
2743,54.0,0.0,150.0,5.0,0.0
2744,66.0,0.0,150.0,5.0,0.0
2745,70.0,0.0,30.0,7.0,0.0
2746,61.0,64.0,30.0,8.0,0.0
2747,61.0,0.0,40.0,8.0,0.0
2748,70.0,16.0,40.0,7.0,0.0
2749,73.0,50.0,40.0,7.0,0.0
2750,64.0,0.0,40.0,8.0,0.0
2751,64.0,0.0,180.0,8.0,0.0
2752,59.0,48.0,40.0,10.0,0.0
2753,47.0,0.0,40.0,12.0,0.0
2754,73.0,256.0,180.0,1.0,0.0
2755,73.0,0.0,180.0,7.0,0.0
2756,66.0,0.0,480.0,5.0,0.0
2757,59.0,0.0,40.0,11.0,0.0
2758,76.0,30.0,150.0,1.0,0.0
2759,59.0,0.0,480.0,5.0,0.0
2760,58.0,48.0,40.0,11.0,0.0
2761,46.0,0.0,40.0,12.0,0.0
2762,58.0,0.0,40.0,10.0,0.0
2763,59.0,0.0,40.0,11.0,0.0
2764,59.0,16.0,40.0,10.0,0.0
2765,47.0,0.0,40.0,12.0,0.0
2766,58.0,2.0,40.0,11.0,0.0
2767,46.0,0.0,40.0,12.0,0.0
2768,58.0,0.0,40.0,10.0,0.0
2769,71.0,0.0,270.0,1.0,0.0
2770,59.0,0.0,270.0,11.0,0.0
2771,63.0,30.0,270.0,8.0,0.0
2772,75.0,0.0,270.0,1.0,0.0
2773,59.0,0.0,270.0,10.0,0.0
2774,47.0,0.0,270.0,12.0,0.0
2775,71.0,0.0,270.0,7.0,0.0
