,note,step,duration,channel,velocity
0,49.0,72.0,390.0,10.0,0.0
1,65.0,72.0,300.0,6.0,0.0
2,61.0,0.0,390.0,7.0,0.0
3,37.0,0.0,390.0,11.0,0.0
4,37.0,0.0,390.0,12.0,0.0
5,68.0,24.0,360.0,5.0,0.0
6,66.0,24.0,90.0,6.0,0.0
7,70.0,192.0,120.0,5.0,0.0
8,68.0,396.0,240.0,5.0,0.0
9,37.0,36.0,180.0,12.0,0.0
10,65.0,0.0,240.0,6.0,0.0
11,61.0,0.0,180.0,7.0,0.0
12,49.0,0.0,180.0,10.0,0.0
13,37.0,0.0,180.0,11.0,0.0
14,49.0,0.0,390.0,10.0,0.0
15,37.0,0.0,390.0,11.0,0.0
16,61.0,0.0,390.0,7.0,0.0
17,68.0,0.0,390.0,6.0,0.0
18,37.0,72.0,390.0,12.0,0.0
19,77.0,84.0,450.0,5.0,0.0
20,75.0,60.0,60.0,5.0,0.0
21,49.0,0.0,180.0,10.0,0.0
22,37.0,36.0,180.0,11.0,0.0
23,65.0,0.0,180.0,6.0,0.0
24,61.0,0.0,180.0,7.0,0.0
25,37.0,0.0,180.0,12.0,0.0
26,73.0,60.0,60.0,5.0,0.0
27,72.0,12.0,60.0,5.0,0.0
28,70.0,252.0,40.0,5.0,0.0
29,63.0,0.0,390.0,7.0,0.0
30,68.0,144.0,240.0,5.0,0.0
31,51.0,240.0,390.0,10.0,0.0
32,58.0,0.0,390.0,6.0,0.0
33,39.0,0.0,390.0,11.0,0.0
34,39.0,0.0,390.0,12.0,0.0
35,66.0,0.0,150.0,5.0,0.0
36,49.0,0.0,180.0,10.0,0.0
37,63.0,0.0,180.0,7.0,0.0
38,37.0,0.0,180.0,12.0,0.0
39,58.0,192.0,180.0,6.0,0.0
40,66.0,48.0,150.0,5.0,0.0
41,37.0,0.0,180.0,11.0,0.0
42,36.0,0.0,180.0,11.0,0.0
43,66.0,48.0,150.0,5.0,0.0
44,36.0,264.0,180.0,12.0,0.0
45,56.0,0.0,180.0,6.0,0.0
46,63.0,0.0,180.0,7.0,0.0
47,48.0,0.0,180.0,10.0,0.0
48,66.0,54.0,90.0,5.0,0.0
49,36.0,0.0,180.0,11.0,0.0
50,36.0,0.0,180.0,12.0,0.0
51,68.0,30.0,30.0,5.0,0.0
52,56.0,0.0,180.0,7.0,0.0
53,63.0,18.0,180.0,6.0,0.0
54,48.0,0.0,180.0,10.0,0.0
55,66.0,30.0,30.0,5.0,0.0
56,68.0,30.0,30.0,5.0,0.0
57,66.0,30.0,30.0,5.0,0.0
58,68.0,30.0,30.0,5.0,0.0
59,66.0,12.0,30.0,5.0,0.0
60,65.0,24.0,30.0,5.0,0.0
61,66.0,198.0,20.0,5.0,0.0
62,65.0,0.0,180.0,5.0,0.0
63,37.0,0.0,180.0,11.0,0.0
64,49.0,0.0,180.0,10.0,0.0
65,61.0,264.0,180.0,6.0,0.0
66,37.0,0.0,180.0,12.0,0.0
67,56.0,0.0,180.0,7.0,0.0
68,66.0,54.0,90.0,5.0,0.0
69,68.0,30.0,30.0,5.0,0.0
70,34.0,0.0,180.0,11.0,0.0
71,34.0,0.0,180.0,12.0,0.0
72,46.0,0.0,180.0,10.0,0.0
73,58.0,0.0,180.0,7.0,0.0
74,61.0,18.0,180.0,6.0,0.0
75,66.0,30.0,30.0,5.0,0.0
76,68.0,30.0,30.0,5.0,0.0
77,66.0,30.0,30.0,5.0,0.0
78,68.0,30.0,30.0,5.0,0.0
79,66.0,12.0,30.0,5.0,0.0
80,65.0,24.0,30.0,5.0,0.0
81,66.0,198.0,20.0,5.0,0.0
82,41.0,480.0,180.0,10.0,0.0
83,68.0,0.0,180.0,5.0,0.0
84,61.0,0.0,180.0,6.0,0.0
85,29.0,0.0,180.0,12.0,0.0
86,56.0,0.0,180.0,7.0,0.0
87,29.0,0.0,180.0,11.0,0.0
88,51.0,0.0,180.0,7.0,0.0
89,70.0,0.0,180.0,5.0,0.0
90,30.0,0.0,180.0,11.0,0.0
91,42.0,0.0,180.0,10.0,0.0
92,30.0,0.0,180.0,12.0,0.0
93,61.0,288.0,180.0,6.0,0.0
94,44.0,240.0,900.0,7.0,0.0
95,32.0,0.0,900.0,11.0,0.0
96,61.0,60.0,600.0,5.0,0.0
97,53.0,240.0,240.0,6.0,0.0
98,44.0,0.0,900.0,10.0,0.0
99,32.0,0.0,900.0,12.0,0.0
100,54.0,120.0,240.0,6.0,0.0
101,55.0,192.0,240.0,6.0,0.0
102,63.0,60.0,60.0,5.0,0.0
103,61.0,0.0,60.0,5.0,0.0
104,60.0,0.0,180.0,5.0,0.0
105,56.0,0.0,180.0,6.0,0.0
106,56.0,0.0,180.0,2.0,0.0
107,44.0,240.0,180.0,2.0,0.0
108,44.0,0.0,180.0,2.0,0.0
109,56.0,168.0,180.0,2.0,0.0
110,78.0,60.0,480.0,5.0,0.0
111,32.0,48.0,180.0,14.0,0.0
112,44.0,0.0,180.0,14.0,0.0
113,54.0,0.0,1440.0,1.0,0.0
114,60.0,0.0,1440.0,1.0,0.0
115,66.0,0.0,1440.0,0.0,0.0
116,72.0,120.0,1440.0,0.0,0.0
117,44.0,0.0,1650.0,2.0,0.0
118,56.0,36.0,1650.0,2.0,0.0
119,44.0,0.0,180.0,4.0,0.0
120,54.0,0.0,1440.0,7.0,0.0
121,51.0,0.0,1440.0,7.0,0.0
122,60.0,72.0,120.0,6.0,0.0
123,68.0,0.0,1440.0,3.0,0.0
124,56.0,120.0,120.0,6.0,0.0
125,36.0,48.0,180.0,14.0,0.0
126,54.0,72.0,120.0,6.0,0.0
127,48.0,0.0,180.0,14.0,0.0
128,56.0,0.0,120.0,6.0,0.0
129,51.0,0.0,180.0,14.0,0.0
130,39.0,24.0,180.0,14.0,0.0
131,77.0,60.0,60.0,5.0,0.0
132,60.0,60.0,120.0,6.0,0.0
133,75.0,0.0,60.0,5.0,0.0
134,73.0,12.0,60.0,5.0,0.0
135,56.0,12.0,90.0,6.0,0.0
136,72.0,132.0,40.0,5.0,0.0
137,44.0,0.0,180.0,4.0,0.0
138,70.0,0.0,120.0,5.0,0.0
139,56.0,0.0,180.0,14.0,0.0
140,60.0,72.0,120.0,6.0,0.0
141,44.0,24.0,180.0,14.0,0.0
142,68.0,24.0,90.0,5.0,0.0
143,56.0,120.0,120.0,6.0,0.0
144,68.0,48.0,180.0,5.0,0.0
145,44.0,0.0,180.0,4.0,0.0
146,54.0,72.0,120.0,6.0,0.0
147,56.0,120.0,120.0,6.0,0.0
148,60.0,72.0,120.0,6.0,0.0
149,44.0,0.0,180.0,4.0,0.0
150,68.0,24.0,180.0,5.0,0.0
151,56.0,24.0,90.0,6.0,0.0
152,49.0,0.0,1140.0,7.0,0.0
153,53.0,0.0,1140.0,7.0,0.0
154,44.0,48.0,390.0,4.0,0.0
155,65.0,0.0,1140.0,0.0,0.0
156,53.0,12.0,1140.0,1.0,0.0
157,68.0,120.0,240.0,5.0,0.0
158,37.0,12.0,180.0,14.0,0.0
159,49.0,0.0,180.0,14.0,0.0
160,56.0,0.0,15.0,3.0,0.0
161,68.0,0.0,1140.0,3.0,0.0
162,61.0,72.0,120.0,6.0,0.0
163,73.0,0.0,1140.0,0.0,0.0
164,61.0,0.0,1140.0,1.0,0.0
165,56.0,0.0,120.0,6.0,0.0
166,44.0,0.0,180.0,14.0,0.0
167,49.0,36.0,210.0,2.0,0.0
168,32.0,12.0,180.0,14.0,0.0
169,53.0,24.0,120.0,6.0,0.0
170,61.0,0.0,210.0,2.0,0.0
171,73.0,0.0,240.0,5.0,0.0
172,56.0,120.0,120.0,6.0,0.0
173,61.0,72.0,120.0,6.0,0.0
174,65.0,12.0,210.0,2.0,0.0
175,29.0,0.0,180.0,14.0,0.0
176,77.0,120.0,240.0,5.0,0.0
177,41.0,12.0,180.0,14.0,0.0
178,53.0,0.0,210.0,2.0,0.0
179,56.0,24.0,90.0,6.0,0.0
180,25.0,0.0,180.0,14.0,0.0
181,37.0,0.0,180.0,14.0,0.0
182,65.0,72.0,120.0,6.0,0.0
183,56.0,36.0,210.0,2.0,0.0
184,68.0,0.0,210.0,2.0,0.0
185,80.0,12.0,180.0,5.0,0.0
186,61.0,120.0,120.0,6.0,0.0
187,56.0,72.0,120.0,6.0,0.0
188,44.0,0.0,180.0,4.0,0.0
189,53.0,0.0,210.0,2.0,0.0
190,65.0,36.0,210.0,2.0,0.0
191,61.0,120.0,120.0,6.0,0.0
192,49.0,0.0,210.0,2.0,0.0
193,65.0,72.0,120.0,6.0,0.0
194,44.0,12.0,180.0,4.0,0.0
195,61.0,12.0,210.0,2.0,0.0
196,61.0,144.0,90.0,6.0,0.0
197,56.0,0.0,1440.0,3.0,0.0
198,68.0,0.0,1440.0,3.0,0.0
199,78.0,0.0,360.0,5.0,0.0
200,44.0,48.0,180.0,14.0,0.0
201,54.0,0.0,1440.0,1.0,0.0
202,44.0,0.0,180.0,4.0,0.0
203,32.0,0.0,180.0,14.0,0.0
204,60.0,72.0,120.0,6.0,0.0
205,54.0,120.0,1440.0,7.0,0.0
206,51.0,0.0,1440.0,7.0,0.0
207,72.0,0.0,1440.0,0.0,0.0
208,66.0,0.0,1440.0,0.0,0.0
209,56.0,36.0,1650.0,2.0,0.0
210,44.0,0.0,1650.0,2.0,0.0
211,60.0,0.0,1440.0,1.0,0.0
212,56.0,120.0,120.0,6.0,0.0
213,36.0,0.0,180.0,14.0,0.0
214,48.0,48.0,180.0,14.0,0.0
215,54.0,60.0,120.0,6.0,0.0
216,56.0,0.0,120.0,6.0,0.0
217,80.0,12.0,60.0,5.0,0.0
218,78.0,60.0,60.0,5.0,0.0
219,77.0,60.0,60.0,5.0,0.0
220,51.0,0.0,180.0,14.0,0.0
221,60.0,60.0,120.0,6.0,0.0
222,39.0,24.0,180.0,14.0,0.0
223,75.0,0.0,60.0,5.0,0.0
224,73.0,12.0,60.0,5.0,0.0
225,56.0,12.0,90.0,6.0,0.0
226,72.0,132.0,40.0,5.0,0.0
227,44.0,0.0,180.0,14.0,0.0
228,44.0,48.0,180.0,4.0,0.0
229,60.0,72.0,120.0,6.0,0.0
230,70.0,120.0,240.0,5.0,0.0
231,56.0,0.0,180.0,14.0,0.0
232,56.0,0.0,120.0,6.0,0.0
233,54.0,24.0,120.0,6.0,0.0
234,44.0,48.0,180.0,4.0,0.0
235,68.0,48.0,150.0,5.0,0.0
236,56.0,120.0,120.0,6.0,0.0
237,60.0,24.0,120.0,6.0,0.0
238,68.0,48.0,150.0,5.0,0.0
239,44.0,24.0,180.0,4.0,0.0
240,56.0,24.0,90.0,6.0,0.0
241,44.0,48.0,390.0,4.0,0.0
242,65.0,0.0,1140.0,0.0,0.0
243,68.0,12.0,1140.0,3.0,0.0
244,56.0,0.0,1140.0,3.0,0.0
245,73.0,0.0,1140.0,0.0,0.0
246,37.0,0.0,180.0,14.0,0.0
247,61.0,0.0,1140.0,1.0,0.0
248,53.0,0.0,1140.0,1.0,0.0
249,53.0,0.0,1140.0,7.0,0.0
250,49.0,0.0,1140.0,7.0,0.0
251,61.0,72.0,120.0,6.0,0.0
252,49.0,12.0,180.0,14.0,0.0
253,68.0,0.0,240.0,5.0,0.0
254,56.0,120.0,120.0,6.0,0.0
255,73.0,0.0,240.0,5.0,0.0
256,53.0,24.0,120.0,6.0,0.0
257,44.0,0.0,180.0,14.0,0.0
258,49.0,0.0,210.0,2.0,0.0
259,32.0,12.0,180.0,14.0,0.0
260,61.0,36.0,210.0,2.0,0.0
261,56.0,120.0,120.0,6.0,0.0
262,61.0,72.0,120.0,6.0,0.0
263,29.0,12.0,180.0,14.0,0.0
264,41.0,0.0,180.0,14.0,0.0
265,77.0,120.0,240.0,5.0,0.0
266,53.0,12.0,210.0,2.0,0.0
267,65.0,0.0,210.0,2.0,0.0
268,56.0,24.0,90.0,6.0,0.0
269,56.0,36.0,210.0,2.0,0.0
270,37.0,12.0,180.0,14.0,0.0
271,80.0,0.0,180.0,5.0,0.0
272,25.0,0.0,180.0,14.0,0.0
273,68.0,0.0,210.0,2.0,0.0
274,65.0,72.0,120.0,6.0,0.0
275,61.0,120.0,120.0,6.0,0.0
276,65.0,0.0,210.0,2.0,0.0
277,53.0,36.0,210.0,2.0,0.0
278,56.0,72.0,120.0,6.0,0.0
279,61.0,120.0,120.0,6.0,0.0
280,65.0,84.0,120.0,6.0,0.0
281,61.0,12.0,210.0,2.0,0.0
282,49.0,0.0,210.0,2.0,0.0
283,68.0,384.0,90.0,6.0,0.0
284,54.0,240.0,720.0,1.0,0.0
285,68.0,0.0,720.0,6.0,0.0
286,54.0,0.0,720.0,10.0,0.0
287,42.0,0.0,720.0,11.0,0.0
288,70.0,120.0,360.0,5.0,0.0
289,61.0,0.0,720.0,7.0,0.0
290,42.0,0.0,720.0,12.0,0.0
291,71.0,228.0,120.0,5.0,0.0
292,70.0,12.0,240.0,5.0,0.0
293,63.0,0.0,690.0,7.0,0.0
294,66.0,0.0,690.0,6.0,0.0
295,70.0,240.0,240.0,5.0,0.0
296,51.0,0.0,690.0,10.0,0.0
297,39.0,0.0,690.0,11.0,0.0
298,51.0,12.0,690.0,1.0,0.0
299,39.0,0.0,690.0,12.0,0.0
300,66.0,204.0,240.0,5.0,0.0
301,70.0,216.0,210.0,5.0,0.0
302,75.0,192.0,720.0,0.0,0.0
303,70.0,144.0,240.0,5.0,0.0
304,66.0,0.0,180.0,6.0,0.0
305,36.0,0.0,720.0,11.0,0.0
306,56.0,0.0,720.0,2.0,0.0
307,78.0,0.0,720.0,0.0,0.0
308,63.0,0.0,720.0,2.0,0.0
309,36.0,0.0,720.0,12.0,0.0
310,48.0,0.0,720.0,1.0,0.0
311,48.0,0.0,720.0,10.0,0.0
312,63.0,48.0,180.0,7.0,0.0
313,68.0,48.0,150.0,5.0,0.0
314,63.0,192.0,180.0,7.0,0.0
315,66.0,0.0,180.0,6.0,0.0
316,63.0,0.0,180.0,7.0,0.0
317,66.0,48.0,180.0,6.0,0.0
318,68.0,48.0,150.0,5.0,0.0
319,49.0,0.0,180.0,1.0,0.0
320,65.0,0.0,180.0,6.0,0.0
321,37.0,0.0,180.0,11.0,0.0
322,37.0,168.0,180.0,12.0,0.0
323,61.0,0.0,180.0,2.0,0.0
324,65.0,0.0,180.0,2.0,0.0
325,77.0,0.0,180.0,0.0,0.0
326,73.0,0.0,180.0,0.0,0.0
327,61.0,0.0,180.0,7.0,0.0
328,68.0,120.0,360.0,5.0,0.0
329,49.0,0.0,180.0,10.0,0.0
330,70.0,120.0,120.0,5.0,0.0
331,72.0,96.0,120.0,5.0,0.0
332,73.0,144.0,90.0,5.0,0.0
333,68.0,0.0,1590.0,3.0,0.0
334,56.0,0.0,1590.0,3.0,0.0
335,56.0,0.0,1170.0,7.0,0.0
336,32.0,0.0,180.0,11.0,0.0
337,53.0,72.0,120.0,6.0,0.0
338,73.0,120.0,1200.0,0.0,0.0
339,53.0,0.0,720.0,2.0,0.0
340,61.0,0.0,1200.0,2.0,0.0
341,44.0,0.0,180.0,10.0,0.0
342,61.0,0.0,1200.0,5.0,0.0
343,44.0,24.0,1170.0,7.0,0.0
344,44.0,48.0,180.0,1.0,0.0
345,32.0,0.0,180.0,12.0,0.0
346,56.0,120.0,120.0,6.0,0.0
347,53.0,72.0,120.0,6.0,0.0
348,44.0,0.0,180.0,10.0,0.0
349,32.0,48.0,180.0,11.0,0.0
350,44.0,0.0,180.0,1.0,0.0
351,32.0,0.0,180.0,12.0,0.0
352,56.0,120.0,120.0,6.0,0.0
353,44.0,0.0,180.0,10.0,0.0
354,44.0,0.0,180.0,1.0,0.0
355,32.0,0.0,180.0,12.0,0.0
356,32.0,48.0,180.0,11.0,0.0
357,53.0,72.0,120.0,6.0,0.0
358,56.0,120.0,120.0,6.0,0.0
359,56.0,0.0,690.0,2.0,0.0
360,44.0,48.0,180.0,10.0,0.0
361,32.0,0.0,180.0,11.0,0.0
362,32.0,0.0,180.0,12.0,0.0
363,44.0,0.0,180.0,1.0,0.0
364,54.0,72.0,120.0,6.0,0.0
365,56.0,120.0,120.0,6.0,0.0
366,54.0,72.0,120.0,6.0,0.0
367,32.0,24.0,180.0,11.0,0.0
368,44.0,0.0,180.0,1.0,0.0
369,32.0,0.0,180.0,12.0,0.0
370,44.0,0.0,180.0,10.0,0.0
371,56.0,0.0,120.0,6.0,0.0
372,65.0,0.0,120.0,2.0,0.0
373,65.0,0.0,120.0,5.0,0.0
374,54.0,0.0,120.0,6.0,0.0
375,60.0,0.0,180.0,7.0,0.0
376,44.0,0.0,180.0,10.0,0.0
377,72.0,168.0,210.0,0.0,0.0
378,77.0,72.0,120.0,0.0,0.0
379,32.0,0.0,180.0,11.0,0.0
380,32.0,0.0,180.0,12.0,0.0
381,44.0,24.0,180.0,1.0,0.0
382,63.0,0.0,90.0,2.0,0.0
383,63.0,0.0,90.0,5.0,0.0
384,56.0,0.0,90.0,6.0,0.0
385,75.0,0.0,90.0,0.0,0.0
386,53.0,240.0,150.0,6.0,0.0
387,49.0,0.0,150.0,10.0,0.0
388,61.0,0.0,150.0,7.0,0.0
389,61.0,0.0,150.0,2.0,0.0
390,49.0,0.0,150.0,1.0,0.0
391,37.0,0.0,150.0,11.0,0.0
392,73.0,0.0,150.0,0.0,0.0
393,37.0,0.0,150.0,12.0,0.0
394,61.0,0.0,150.0,5.0,0.0
395,53.0,0.0,150.0,2.0,0.0
396,49.0,0.0,150.0,10.0,0.0
397,68.0,0.0,150.0,3.0,0.0
398,53.0,0.0,150.0,7.0,0.0
399,49.0,0.0,150.0,2.0,0.0
400,53.0,0.0,150.0,2.0,0.0
401,56.0,0.0,150.0,5.0,0.0
402,65.0,0.0,150.0,0.0,0.0
403,56.0,0.0,150.0,3.0,0.0
404,37.0,0.0,150.0,11.0,0.0
405,68.0,0.0,150.0,0.0,0.0
406,49.0,0.0,150.0,1.0,0.0
407,56.0,0.0,150.0,6.0,0.0
408,37.0,240.0,150.0,12.0,0.0
409,65.0,0.0,150.0,5.0,0.0
410,56.0,0.0,150.0,3.0,0.0
411,68.0,0.0,150.0,3.0,0.0
412,49.0,0.0,150.0,10.0,0.0
413,37.0,0.0,150.0,12.0,0.0
414,37.0,0.0,150.0,11.0,0.0
415,53.0,0.0,150.0,7.0,0.0
416,53.0,0.0,150.0,2.0,0.0
417,49.0,0.0,150.0,1.0,0.0
418,56.0,0.0,150.0,6.0,0.0
419,77.0,240.0,150.0,0.0,0.0
420,68.0,0.0,150.0,0.0,0.0
421,49.0,0.0,150.0,2.0,0.0
422,53.0,0.0,150.0,2.0,0.0
423,53.0,0.0,150.0,7.0,0.0
424,61.0,0.0,150.0,5.0,0.0
425,37.0,0.0,150.0,11.0,0.0
426,37.0,0.0,150.0,12.0,0.0
427,49.0,0.0,150.0,2.0,0.0
428,49.0,0.0,150.0,1.0,0.0
429,56.0,0.0,150.0,6.0,0.0
430,56.0,0.0,150.0,3.0,0.0
431,68.0,720.0,150.0,3.0,0.0
432,49.0,0.0,150.0,10.0,0.0
433,73.0,0.0,150.0,0.0,0.0
434,65.0,0.0,150.0,0.0,0.0
435,36.0,0.0,150.0,12.0,0.0
436,36.0,240.0,150.0,11.0,0.0
437,48.0,0.0,150.0,10.0,0.0
438,68.0,0.0,150.0,5.0,0.0
439,63.0,0.0,150.0,6.0,0.0
440,60.0,0.0,150.0,7.0,0.0
441,63.0,0.0,150.0,6.0,0.0
442,63.0,0.0,150.0,5.0,0.0
443,36.0,0.0,150.0,11.0,0.0
444,48.0,0.0,150.0,10.0,0.0
445,36.0,240.0,150.0,12.0,0.0
446,60.0,0.0,150.0,7.0,0.0
447,60.0,0.0,150.0,7.0,0.0
448,48.0,0.0,150.0,10.0,0.0
449,72.0,0.0,150.0,5.0,0.0
450,63.0,0.0,150.0,6.0,0.0
451,36.0,240.0,150.0,12.0,0.0
452,36.0,0.0,150.0,11.0,0.0
453,36.0,0.0,150.0,11.0,0.0
454,60.0,0.0,150.0,7.0,0.0
455,48.0,256.0,150.0,10.0,0.0
456,68.0,0.0,150.0,5.0,0.0
457,63.0,0.0,150.0,6.0,0.0
458,36.0,0.0,150.0,12.0,0.0
459,68.0,80.0,90.0,5.0,0.0
460,67.0,80.0,90.0,5.0,0.0
461,68.0,80.0,90.0,5.0,0.0
462,70.0,64.0,90.0,5.0,0.0
463,72.0,208.0,60.0,5.0,0.0
464,73.0,208.0,180.0,5.0,0.0
465,65.0,0.0,180.0,6.0,0.0
466,34.0,0.0,180.0,12.0,0.0
467,46.0,0.0,180.0,10.0,0.0
468,58.0,0.0,180.0,7.0,0.0
469,34.0,48.0,180.0,11.0,0.0
470,73.0,32.0,90.0,5.0,0.0
471,72.0,80.0,90.0,5.0,0.0
472,73.0,80.0,90.0,5.0,0.0
473,75.0,64.0,90.0,5.0,0.0
474,77.0,208.0,60.0,5.0,0.0
475,67.0,208.0,180.0,5.0,0.0
476,61.0,48.0,180.0,6.0,0.0
477,39.0,0.0,180.0,12.0,0.0
478,58.0,0.0,180.0,7.0,0.0
479,39.0,0.0,180.0,11.0,0.0
480,51.0,0.0,180.0,10.0,0.0
481,67.0,32.0,90.0,5.0,0.0
482,65.0,80.0,90.0,5.0,0.0
483,67.0,80.0,90.0,5.0,0.0
484,68.0,64.0,90.0,5.0,0.0
485,70.0,208.0,60.0,5.0,0.0
486,72.0,208.0,180.0,5.0,0.0
487,56.0,0.0,180.0,7.0,0.0
488,60.0,48.0,180.0,6.0,0.0
489,32.0,0.0,180.0,12.0,0.0
490,44.0,0.0,180.0,10.0,0.0
491,32.0,0.0,180.0,11.0,0.0
492,72.0,32.0,90.0,5.0,0.0
493,70.0,80.0,90.0,5.0,0.0
494,72.0,80.0,90.0,5.0,0.0
495,73.0,64.0,90.0,5.0,0.0
496,75.0,400.0,60.0,5.0,0.0
497,65.0,96.0,390.0,5.0,0.0
498,37.0,0.0,240.0,12.0,0.0
499,37.0,0.0,240.0,11.0,0.0
500,49.0,0.0,240.0,10.0,0.0
501,61.0,192.0,240.0,7.0,0.0
502,58.0,0.0,240.0,6.0,0.0
503,38.0,0.0,240.0,12.0,0.0
504,38.0,0.0,240.0,11.0,0.0
505,70.0,36.0,180.0,5.0,0.0
506,50.0,132.0,240.0,10.0,0.0
507,65.0,0.0,240.0,6.0,0.0
508,62.0,0.0,240.0,7.0,0.0
509,39.0,0.0,570.0,11.0,0.0
510,51.0,24.0,570.0,10.0,0.0
511,39.0,0.0,570.0,12.0,0.0
512,60.0,96.0,480.0,6.0,0.0
513,68.0,0.0,480.0,5.0,0.0
514,63.0,120.0,120.0,7.0,0.0
515,62.0,120.0,120.0,7.0,0.0
516,63.0,120.0,120.0,7.0,0.0
517,62.0,0.0,120.0,7.0,0.0
518,58.0,0.0,180.0,6.0,0.0
519,67.0,24.0,180.0,5.0,0.0
520,63.0,72.0,120.0,7.0,0.0
521,62.0,480.0,90.0,7.0,0.0
522,39.0,0.0,450.0,4.0,0.0
523,63.0,84.0,450.0,0.0,0.0
524,63.0,24.0,570.0,7.0,0.0
525,63.0,0.0,450.0,3.0,0.0
526,51.0,0.0,450.0,3.0,0.0
527,39.0,0.0,450.0,1.0,0.0
528,51.0,0.0,450.0,1.0,0.0
529,63.0,0.0,450.0,2.0,0.0
530,67.0,0.0,180.0,6.0,0.0
531,49.0,36.0,180.0,10.0,0.0
532,37.0,0.0,180.0,12.0,0.0
533,75.0,36.0,60.0,5.0,0.0
534,37.0,0.0,180.0,11.0,0.0
535,73.0,60.0,60.0,5.0,0.0
536,72.0,12.0,60.0,5.0,0.0
537,70.0,252.0,40.0,5.0,0.0
538,63.0,48.0,2010.0,7.0,0.0
539,36.0,0.0,240.0,11.0,0.0
540,36.0,0.0,240.0,12.0,0.0
541,68.0,0.0,480.0,6.0,0.0
542,48.0,120.0,240.0,10.0,0.0
543,68.0,24.0,360.0,5.0,0.0
544,32.0,0.0,150.0,12.0,0.0
545,32.0,0.0,150.0,11.0,0.0
546,44.0,36.0,150.0,10.0,0.0
547,70.0,60.0,60.0,5.0,0.0
548,72.0,144.0,60.0,5.0,0.0
549,67.0,0.0,180.0,6.0,0.0
550,39.0,48.0,150.0,12.0,0.0
551,70.0,504.0,180.0,5.0,0.0
552,51.0,0.0,150.0,10.0,0.0
553,39.0,0.0,150.0,11.0,0.0
554,51.0,0.0,450.0,1.0,0.0
555,39.0,84.0,450.0,4.0,0.0
556,63.0,0.0,450.0,2.0,0.0
557,63.0,0.0,450.0,0.0,0.0
558,51.0,0.0,450.0,3.0,0.0
559,63.0,0.0,450.0,3.0,0.0
560,39.0,0.0,450.0,1.0,0.0
561,37.0,0.0,180.0,11.0,0.0
562,67.0,0.0,180.0,6.0,0.0
563,37.0,36.0,180.0,12.0,0.0
564,75.0,60.0,60.0,5.0,0.0
565,49.0,0.0,180.0,10.0,0.0
566,73.0,60.0,60.0,5.0,0.0
567,72.0,12.0,60.0,5.0,0.0
568,70.0,252.0,40.0,5.0,0.0
569,36.0,0.0,240.0,11.0,0.0
570,36.0,0.0,240.0,12.0,0.0
571,48.0,120.0,240.0,10.0,0.0
572,68.0,0.0,480.0,6.0,0.0
573,68.0,24.0,360.0,5.0,0.0
574,44.0,0.0,150.0,10.0,0.0
575,32.0,36.0,150.0,12.0,0.0
576,32.0,0.0,150.0,11.0,0.0
577,70.0,60.0,60.0,5.0,0.0
578,72.0,96.0,60.0,5.0,0.0
579,51.0,0.0,150.0,10.0,0.0
580,67.0,228.0,180.0,6.0,0.0
581,39.0,0.0,150.0,11.0,0.0
582,70.0,0.0,180.0,5.0,0.0
583,39.0,48.0,150.0,12.0,0.0
584,75.0,240.0,180.0,5.0,0.0
585,75.0,240.0,180.0,5.0,0.0
586,75.0,180.0,180.0,5.0,0.0
587,48.0,0.0,180.0,1.0,0.0
588,63.0,72.0,120.0,6.0,0.0
589,56.0,0.0,1620.0,3.0,0.0
590,68.0,0.0,1620.0,3.0,0.0
591,56.0,0.0,180.0,2.0,0.0
592,44.0,0.0,180.0,2.0,0.0
593,80.0,60.0,720.0,0.0,0.0
594,75.0,0.0,720.0,0.0,0.0
595,36.0,0.0,180.0,12.0,0.0
596,48.0,48.0,180.0,10.0,0.0
597,75.0,120.0,480.0,5.0,0.0
598,60.0,0.0,180.0,7.0,0.0
599,36.0,0.0,180.0,11.0,0.0
600,68.0,120.0,120.0,6.0,0.0
601,63.0,72.0,120.0,6.0,0.0
602,48.0,0.0,180.0,1.0,0.0
603,44.0,0.0,180.0,2.0,0.0
604,36.0,0.0,180.0,12.0,0.0
605,36.0,0.0,180.0,11.0,0.0
606,48.0,0.0,180.0,10.0,0.0
607,60.0,0.0,180.0,7.0,0.0
608,56.0,48.0,180.0,2.0,0.0
609,68.0,0.0,120.0,6.0,0.0
610,63.0,72.0,120.0,6.0,0.0
611,48.0,0.0,180.0,1.0,0.0
612,48.0,0.0,180.0,10.0,0.0
613,36.0,24.0,180.0,12.0,0.0
614,60.0,0.0,180.0,7.0,0.0
615,56.0,0.0,180.0,2.0,0.0
616,80.0,12.0,240.0,5.0,0.0
617,36.0,0.0,180.0,11.0,0.0
618,44.0,0.0,180.0,2.0,0.0
619,68.0,12.0,90.0,6.0,0.0
620,36.0,0.0,180.0,12.0,0.0
621,80.0,60.0,60.0,5.0,0.0
622,78.0,0.0,690.0,0.0,0.0
623,68.0,12.0,690.0,0.0,0.0
624,66.0,72.0,120.0,6.0,0.0
625,48.0,0.0,180.0,1.0,0.0
626,60.0,0.0,180.0,7.0,0.0
627,44.0,0.0,180.0,2.0,0.0
628,48.0,0.0,180.0,10.0,0.0
629,36.0,12.0,180.0,11.0,0.0
630,56.0,0.0,180.0,2.0,0.0
631,78.0,36.0,150.0,5.0,0.0
632,68.0,60.0,120.0,6.0,0.0
633,48.0,12.0,180.0,10.0,0.0
634,56.0,0.0,180.0,2.0,0.0
635,44.0,0.0,180.0,2.0,0.0
636,48.0,0.0,180.0,1.0,0.0
637,66.0,72.0,120.0,6.0,0.0
638,60.0,0.0,180.0,7.0,0.0
639,36.0,0.0,180.0,12.0,0.0
640,78.0,60.0,60.0,5.0,0.0
641,36.0,0.0,180.0,11.0,0.0
642,76.0,36.0,150.0,5.0,0.0
643,68.0,60.0,120.0,6.0,0.0
644,60.0,0.0,180.0,7.0,0.0
645,44.0,0.0,180.0,2.0,0.0
646,66.0,72.0,120.0,6.0,0.0
647,48.0,0.0,180.0,10.0,0.0
648,36.0,0.0,180.0,12.0,0.0
649,56.0,0.0,180.0,2.0,0.0
650,48.0,0.0,180.0,1.0,0.0
651,36.0,12.0,180.0,11.0,0.0
652,76.0,60.0,60.0,5.0,0.0
653,77.0,0.0,150.0,5.0,0.0
654,68.0,216.0,90.0,6.0,0.0
655,37.0,0.0,180.0,11.0,0.0
656,37.0,0.0,180.0,12.0,0.0
657,49.0,0.0,180.0,10.0,0.0
658,77.0,0.0,180.0,5.0,0.0
659,61.0,0.0,180.0,7.0,0.0
660,65.0,0.0,180.0,6.0,0.0
661,68.0,0.0,180.0,0.0,0.0
662,77.0,0.0,180.0,0.0,0.0
663,49.0,0.0,180.0,1.0,0.0
664,56.0,0.0,180.0,2.0,0.0
665,49.0,648.0,180.0,2.0,0.0
666,69.0,72.0,120.0,5.0,0.0
667,57.0,0.0,120.0,6.0,0.0
668,58.0,0.0,60.0,6.0,0.0
669,70.0,120.0,60.0,5.0,0.0
670,60.0,120.0,60.0,6.0,0.0
671,72.0,0.0,60.0,5.0,0.0
672,61.0,0.0,60.0,6.0,0.0
673,73.0,120.0,60.0,5.0,0.0
674,75.0,0.0,60.0,5.0,0.0
675,63.0,120.0,60.0,6.0,0.0
676,77.0,168.0,60.0,5.0,0.0
677,65.0,0.0,60.0,6.0,0.0
678,39.0,0.0,1440.0,12.0,0.0
679,65.0,0.0,120.0,6.0,0.0
680,77.0,0.0,120.0,5.0,0.0
681,61.0,72.0,120.0,7.0,0.0
682,39.0,384.0,1440.0,11.0,0.0
683,51.0,0.0,1440.0,10.0,0.0
684,63.0,120.0,60.0,6.0,0.0
685,75.0,0.0,60.0,5.0,0.0
686,60.0,0.0,60.0,7.0,0.0
687,65.0,0.0,60.0,7.0,0.0
688,73.0,0.0,60.0,5.0,0.0
689,61.0,120.0,60.0,6.0,0.0
690,63.0,0.0,60.0,7.0,0.0
691,72.0,120.0,60.0,5.0,0.0
692,60.0,0.0,60.0,6.0,0.0
693,61.0,0.0,60.0,7.0,0.0
694,58.0,0.0,60.0,6.0,0.0
695,70.0,120.0,60.0,5.0,0.0
696,56.0,0.0,60.0,6.0,0.0
697,60.0,168.0,60.0,7.0,0.0
698,68.0,0.0,60.0,5.0,0.0
699,68.0,0.0,480.0,5.0,0.0
700,56.0,120.0,120.0,6.0,0.0
701,60.0,120.0,480.0,7.0,0.0
702,60.0,120.0,120.0,6.0,0.0
703,63.0,120.0,120.0,6.0,0.0
704,60.0,0.0,120.0,6.0,0.0
705,63.0,0.0,120.0,6.0,0.0
706,55.0,24.0,180.0,7.0,0.0
707,72.0,72.0,120.0,5.0,0.0
708,70.0,24.0,90.0,5.0,0.0
709,61.0,0.0,90.0,6.0,0.0
710,32.0,0.0,390.0,11.0,0.0
711,32.0,0.0,390.0,12.0,0.0
712,44.0,0.0,390.0,10.0,0.0
713,56.0,48.0,390.0,7.0,0.0
714,60.0,0.0,390.0,6.0,0.0
715,68.0,0.0,390.0,5.0,0.0
716,63.0,0.0,150.0,2.0,0.0
717,63.0,0.0,150.0,3.0,0.0
718,39.0,192.0,180.0,4.0,0.0
719,51.0,0.0,150.0,3.0,0.0
720,63.0,48.0,150.0,2.0,0.0
721,39.0,112.0,180.0,4.0,0.0
722,63.0,0.0,150.0,3.0,0.0
723,51.0,0.0,150.0,3.0,0.0
724,32.0,64.0,240.0,12.0,0.0
725,63.0,0.0,150.0,3.0,0.0
726,59.0,80.0,60.0,6.0,0.0
727,32.0,0.0,240.0,11.0,0.0
728,63.0,48.0,2730.0,0.0,0.0
729,63.0,0.0,240.0,5.0,0.0
730,56.0,0.0,240.0,7.0,0.0
731,51.0,0.0,150.0,3.0,0.0
732,75.0,0.0,2730.0,0.0,0.0
733,63.0,0.0,2730.0,2.0,0.0
734,39.0,32.0,180.0,4.0,0.0
735,44.0,0.0,240.0,10.0,0.0
736,56.0,48.0,60.0,6.0,0.0
737,59.0,16.0,60.0,6.0,0.0
738,68.0,0.0,240.0,5.0,0.0
739,51.0,0.0,150.0,3.0,0.0
740,63.0,0.0,150.0,3.0,0.0
741,59.0,0.0,240.0,7.0,0.0
742,39.0,32.0,180.0,4.0,0.0
743,63.0,80.0,60.0,6.0,0.0
744,35.0,0.0,240.0,11.0,0.0
745,35.0,0.0,240.0,12.0,0.0
746,47.0,64.0,240.0,10.0,0.0
747,59.0,48.0,60.0,6.0,0.0
748,63.0,16.0,60.0,6.0,0.0
749,51.0,0.0,240.0,10.0,0.0
750,51.0,0.0,150.0,3.0,0.0
751,63.0,0.0,150.0,3.0,0.0
752,39.0,0.0,240.0,12.0,0.0
753,61.0,80.0,60.0,6.0,0.0
754,39.0,0.0,240.0,11.0,0.0
755,63.0,76.0,240.0,7.0,0.0
756,67.0,0.0,240.0,5.0,0.0
757,39.0,32.0,180.0,4.0,0.0
758,58.0,48.0,60.0,6.0,0.0
759,61.0,4.0,60.0,6.0,0.0
760,39.0,32.0,180.0,4.0,0.0
761,44.0,0.0,240.0,12.0,0.0
762,68.0,64.0,240.0,7.0,0.0
763,56.0,0.0,240.0,10.0,0.0
764,63.0,0.0,150.0,3.0,0.0
765,51.0,0.0,150.0,3.0,0.0
766,44.0,0.0,240.0,11.0,0.0
767,59.0,80.0,60.0,6.0,0.0
768,68.0,24.0,360.0,5.0,0.0
769,63.0,48.0,60.0,6.0,0.0
770,61.0,16.0,60.0,6.0,0.0
771,35.0,0.0,240.0,12.0,0.0
772,39.0,32.0,180.0,4.0,0.0
773,47.0,0.0,240.0,10.0,0.0
774,51.0,0.0,150.0,3.0,0.0
775,63.0,36.0,150.0,3.0,0.0
776,35.0,64.0,240.0,11.0,0.0
777,59.0,56.0,60.0,6.0,0.0
778,59.0,0.0,240.0,7.0,0.0
779,58.0,0.0,60.0,6.0,0.0
780,70.0,12.0,60.0,5.0,0.0
781,56.0,16.0,60.0,6.0,0.0
782,71.0,0.0,60.0,5.0,0.0
783,39.0,32.0,180.0,4.0,0.0
784,39.0,0.0,240.0,12.0,0.0
785,55.0,80.0,60.0,6.0,0.0
786,51.0,76.0,240.0,10.0,0.0
787,39.0,0.0,240.0,11.0,0.0
788,63.0,0.0,150.0,3.0,0.0
789,63.0,0.0,240.0,7.0,0.0
790,70.0,0.0,240.0,5.0,0.0
791,51.0,48.0,150.0,3.0,0.0
792,53.0,0.0,60.0,6.0,0.0
793,51.0,4.0,60.0,6.0,0.0
794,59.0,80.0,60.0,6.0,0.0
795,32.0,0.0,240.0,11.0,0.0
796,75.0,0.0,240.0,5.0,0.0
797,32.0,0.0,240.0,12.0,0.0
798,44.0,64.0,240.0,10.0,0.0
799,39.0,32.0,180.0,4.0,0.0
800,51.0,0.0,150.0,3.0,0.0
801,56.0,0.0,240.0,7.0,0.0
802,63.0,48.0,150.0,3.0,0.0
803,56.0,0.0,60.0,6.0,0.0
804,59.0,16.0,60.0,6.0,0.0
805,39.0,32.0,180.0,4.0,0.0
806,35.0,64.0,240.0,11.0,0.0
807,63.0,48.0,150.0,3.0,0.0
808,63.0,80.0,60.0,6.0,0.0
809,35.0,0.0,240.0,12.0,0.0
810,51.0,0.0,150.0,3.0,0.0
811,59.0,0.0,240.0,7.0,0.0
812,68.0,0.0,240.0,5.0,0.0
813,47.0,0.0,240.0,10.0,0.0
814,59.0,0.0,60.0,6.0,0.0
815,63.0,16.0,60.0,6.0,0.0
816,67.0,0.0,240.0,5.0,0.0
817,39.0,32.0,180.0,4.0,0.0
818,63.0,0.0,240.0,7.0,0.0
819,39.0,0.0,240.0,11.0,0.0
820,61.0,80.0,60.0,6.0,0.0
821,63.0,0.0,150.0,3.0,0.0
822,51.0,0.0,150.0,3.0,0.0
823,51.0,76.0,240.0,10.0,0.0
824,39.0,0.0,240.0,12.0,0.0
825,58.0,48.0,60.0,6.0,0.0
826,61.0,4.0,60.0,6.0,0.0
827,68.0,0.0,240.0,7.0,0.0
828,51.0,0.0,150.0,3.0,0.0
829,44.0,64.0,240.0,12.0,0.0
830,68.0,24.0,360.0,5.0,0.0
831,63.0,48.0,150.0,3.0,0.0
832,44.0,0.0,240.0,11.0,0.0
833,56.0,0.0,240.0,10.0,0.0
834,59.0,80.0,60.0,6.0,0.0
835,39.0,32.0,180.0,4.0,0.0
836,63.0,0.0,60.0,6.0,0.0
837,61.0,16.0,60.0,6.0,0.0
838,59.0,56.0,60.0,6.0,0.0
839,51.0,0.0,150.0,3.0,0.0
840,39.0,32.0,180.0,4.0,0.0
841,47.0,0.0,240.0,10.0,0.0
842,35.0,0.0,240.0,12.0,0.0
843,35.0,64.0,240.0,11.0,0.0
844,59.0,0.0,240.0,7.0,0.0
845,63.0,36.0,150.0,3.0,0.0
846,58.0,0.0,60.0,6.0,0.0
847,70.0,12.0,60.0,5.0,0.0
848,56.0,16.0,60.0,6.0,0.0
849,71.0,0.0,60.0,5.0,0.0
850,51.0,48.0,150.0,3.0,0.0
851,63.0,0.0,180.0,7.0,0.0
852,70.0,32.0,180.0,5.0,0.0
853,63.0,0.0,150.0,3.0,0.0
854,39.0,0.0,180.0,4.0,0.0
855,55.0,32.0,60.0,6.0,0.0
856,51.0,0.0,180.0,10.0,0.0
857,39.0,0.0,180.0,12.0,0.0
858,39.0,0.0,180.0,11.0,0.0
859,53.0,0.0,60.0,6.0,0.0
860,51.0,196.0,60.0,6.0,0.0
861,75.0,240.0,180.0,5.0,0.0
862,63.0,0.0,180.0,6.0,0.0
863,75.0,240.0,180.0,5.0,0.0
864,63.0,0.0,180.0,6.0,0.0
865,63.0,0.0,180.0,6.0,0.0
866,75.0,180.0,180.0,5.0,0.0
867,36.0,0.0,180.0,12.0,0.0
868,63.0,0.0,480.0,6.0,0.0
869,56.0,0.0,1620.0,3.0,0.0
870,75.0,0.0,720.0,0.0,0.0
871,56.0,0.0,180.0,2.0,0.0
872,44.0,0.0,180.0,2.0,0.0
873,48.0,0.0,180.0,10.0,0.0
874,68.0,0.0,1620.0,3.0,0.0
875,48.0,0.0,180.0,1.0,0.0
876,51.0,72.0,120.0,7.0,0.0
877,75.0,120.0,480.0,5.0,0.0
878,68.0,60.0,720.0,0.0,0.0
879,36.0,48.0,180.0,11.0,0.0
880,56.0,120.0,120.0,7.0,0.0
881,36.0,48.0,180.0,11.0,0.0
882,51.0,72.0,120.0,7.0,0.0
883,48.0,0.0,180.0,1.0,0.0
884,44.0,0.0,180.0,2.0,0.0
885,48.0,0.0,180.0,10.0,0.0
886,56.0,0.0,180.0,2.0,0.0
887,36.0,0.0,180.0,12.0,0.0
888,56.0,0.0,120.0,7.0,0.0
889,36.0,0.0,180.0,11.0,0.0
890,51.0,72.0,120.0,7.0,0.0
891,48.0,0.0,180.0,10.0,0.0
892,48.0,0.0,180.0,1.0,0.0
893,80.0,12.0,240.0,5.0,0.0
894,36.0,24.0,180.0,12.0,0.0
895,56.0,0.0,180.0,2.0,0.0
896,44.0,0.0,180.0,2.0,0.0
897,68.0,0.0,240.0,6.0,0.0
898,56.0,12.0,90.0,7.0,0.0
899,44.0,12.0,180.0,2.0,0.0
900,68.0,0.0,60.0,6.0,0.0
901,36.0,0.0,180.0,11.0,0.0
902,66.0,0.0,690.0,0.0,0.0
903,68.0,0.0,690.0,0.0,0.0
904,36.0,0.0,180.0,12.0,0.0
905,54.0,72.0,120.0,7.0,0.0
906,48.0,0.0,180.0,10.0,0.0
907,48.0,0.0,180.0,1.0,0.0
908,80.0,60.0,60.0,5.0,0.0
909,56.0,0.0,180.0,2.0,0.0
910,66.0,36.0,150.0,6.0,0.0
911,78.0,0.0,150.0,5.0,0.0
912,56.0,60.0,120.0,7.0,0.0
913,78.0,0.0,60.0,5.0,0.0
914,56.0,0.0,180.0,2.0,0.0
915,44.0,0.0,180.0,2.0,0.0
916,54.0,72.0,120.0,7.0,0.0
917,48.0,0.0,180.0,1.0,0.0
918,36.0,0.0,180.0,12.0,0.0
919,36.0,0.0,180.0,11.0,0.0
920,48.0,12.0,180.0,10.0,0.0
921,66.0,60.0,60.0,6.0,0.0
922,64.0,36.0,150.0,6.0,0.0
923,76.0,0.0,150.0,5.0,0.0
924,56.0,60.0,120.0,7.0,0.0
925,36.0,12.0,180.0,11.0,0.0
926,48.0,0.0,180.0,1.0,0.0
927,56.0,0.0,180.0,2.0,0.0
928,44.0,0.0,180.0,2.0,0.0
929,76.0,0.0,60.0,5.0,0.0
930,54.0,72.0,120.0,7.0,0.0
931,64.0,60.0,60.0,6.0,0.0
932,48.0,0.0,180.0,10.0,0.0
933,36.0,0.0,180.0,12.0,0.0
934,77.0,12.0,150.0,5.0,0.0
935,65.0,0.0,150.0,6.0,0.0
936,56.0,216.0,90.0,7.0,0.0
937,49.0,0.0,180.0,2.0,0.0
938,49.0,0.0,180.0,10.0,0.0
939,56.0,0.0,180.0,2.0,0.0
940,53.0,648.0,180.0,7.0,0.0
941,65.0,0.0,180.0,0.0,0.0
942,49.0,0.0,180.0,1.0,0.0
943,65.0,0.0,180.0,6.0,0.0
944,77.0,0.0,180.0,5.0,0.0
945,37.0,0.0,180.0,11.0,0.0
946,37.0,0.0,180.0,12.0,0.0
947,68.0,0.0,180.0,0.0,0.0
948,65.0,0.0,120.0,6.0,0.0
949,61.0,0.0,120.0,7.0,0.0
950,77.0,72.0,120.0,5.0,0.0
951,76.0,0.0,60.0,5.0,0.0
952,64.0,0.0,60.0,6.0,0.0
953,60.0,120.0,60.0,7.0,0.0
954,61.0,0.0,60.0,7.0,0.0
955,77.0,120.0,60.0,5.0,0.0
956,65.0,0.0,60.0,6.0,0.0
957,63.0,120.0,60.0,7.0,0.0
958,79.0,0.0,60.0,5.0,0.0
959,67.0,0.0,60.0,6.0,0.0
960,68.0,120.0,60.0,6.0,0.0
961,80.0,0.0,60.0,5.0,0.0
962,65.0,0.0,60.0,7.0,0.0
963,65.0,0.0,60.0,6.0,0.0
964,61.0,0.0,60.0,7.0,0.0
965,77.0,168.0,60.0,5.0,0.0
966,74.0,0.0,120.0,5.0,0.0
967,51.0,0.0,1170.0,10.0,0.0
968,62.0,0.0,120.0,6.0,0.0
969,59.0,120.0,120.0,7.0,0.0
970,39.0,24.0,1170.0,12.0,0.0
971,39.0,0.0,1170.0,11.0,0.0
972,63.0,0.0,120.0,6.0,0.0
973,75.0,120.0,120.0,5.0,0.0
974,60.0,0.0,120.0,7.0,0.0
975,65.0,0.0,120.0,6.0,0.0
976,61.0,0.0,120.0,7.0,0.0
977,77.0,120.0,120.0,5.0,0.0
978,60.0,0.0,120.0,7.0,0.0
979,63.0,0.0,120.0,6.0,0.0
980,75.0,120.0,120.0,5.0,0.0
981,58.0,0.0,120.0,7.0,0.0
982,61.0,96.0,120.0,6.0,0.0
983,73.0,0.0,120.0,5.0,0.0
984,56.0,0.0,90.0,7.0,0.0
985,72.0,144.0,90.0,5.0,0.0
986,60.0,0.0,90.0,6.0,0.0
987,60.0,120.0,120.0,7.0,0.0
988,63.0,0.0,120.0,6.0,0.0
989,72.0,0.0,120.0,5.0,0.0
990,70.0,216.0,120.0,5.0,0.0
991,61.0,0.0,120.0,6.0,0.0
992,58.0,0.0,120.0,7.0,0.0
993,60.0,228.0,240.0,6.0,0.0
994,56.0,0.0,240.0,7.0,0.0
995,68.0,0.0,240.0,5.0,0.0
996,40.0,0.0,240.0,11.0,0.0
997,58.0,0.0,240.0,6.0,0.0
998,55.0,0.0,240.0,7.0,0.0
999,67.0,492.0,240.0,5.0,0.0
1000,52.0,0.0,240.0,10.0,0.0
1001,40.0,0.0,240.0,12.0,0.0
1002,41.0,0.0,690.0,12.0,0.0
1003,41.0,0.0,690.0,11.0,0.0
1004,53.0,0.0,1140.0,2.0,0.0
1005,58.0,0.0,480.0,7.0,0.0
1006,67.0,0.0,480.0,5.0,0.0
1007,61.0,0.0,480.0,1.0,0.0
1008,61.0,0.0,480.0,6.0,0.0
1009,53.0,24.0,690.0,10.0,0.0
1010,65.0,48.0,1140.0,2.0,0.0
1011,58.0,192.0,480.0,1.0,0.0
1012,76.0,0.0,240.0,0.0,0.0
1013,64.0,0.0,240.0,0.0,0.0
1014,75.0,0.0,180.0,0.0,0.0
1015,63.0,0.0,180.0,0.0,0.0
1016,69.0,0.0,240.0,5.0,0.0
1017,63.0,0.0,240.0,6.0,0.0
1018,57.0,0.0,180.0,1.0,0.0
1019,60.0,12.0,180.0,1.0,0.0
1020,60.0,444.0,240.0,7.0,0.0
1021,60.0,0.0,480.0,1.0,0.0
1022,34.0,0.0,690.0,11.0,0.0
1023,69.0,0.0,480.0,5.0,0.0
1024,63.0,0.0,480.0,6.0,0.0
1025,46.0,96.0,690.0,10.0,0.0
1026,60.0,0.0,480.0,7.0,0.0
1027,63.0,0.0,480.0,1.0,0.0
1028,34.0,0.0,690.0,12.0,0.0
1029,75.0,192.0,240.0,0.0,0.0
1030,63.0,0.0,240.0,0.0,0.0
1031,62.0,0.0,180.0,1.0,0.0
1032,70.0,0.0,180.0,5.0,0.0
1033,58.0,0.0,180.0,1.0,0.0
1034,62.0,0.0,180.0,7.0,0.0
1035,74.0,0.0,180.0,0.0,0.0
1036,62.0,0.0,180.0,0.0,0.0
1037,65.0,12.0,180.0,6.0,0.0
1038,58.0,0.0,180.0,7.0,0.0
1039,31.0,0.0,180.0,11.0,0.0
1040,61.0,0.0,60.0,6.0,0.0
1041,43.0,0.0,180.0,10.0,0.0
1042,31.0,24.0,180.0,12.0,0.0
1043,70.0,60.0,60.0,5.0,0.0
1044,70.0,0.0,60.0,0.0,0.0
1045,73.0,0.0,60.0,0.0,0.0
1046,75.0,0.0,60.0,0.0,0.0
1047,72.0,0.0,60.0,0.0,0.0
1048,63.0,0.0,60.0,6.0,0.0
1049,72.0,72.0,60.0,5.0,0.0
1050,65.0,456.0,90.0,6.0,0.0
1051,77.0,0.0,90.0,0.0,0.0
1052,73.0,0.0,90.0,0.0,0.0
1053,73.0,0.0,90.0,5.0,0.0
1054,44.0,168.0,180.0,10.0,0.0
1055,60.0,0.0,180.0,7.0,0.0
1056,72.0,0.0,180.0,5.0,0.0
1057,32.0,0.0,180.0,12.0,0.0
1058,75.0,0.0,180.0,0.0,0.0
1059,72.0,0.0,180.0,0.0,0.0
1060,32.0,0.0,180.0,11.0,0.0
1061,63.0,0.0,180.0,6.0,0.0
1062,49.0,0.0,210.0,10.0,0.0
1063,37.0,0.0,210.0,11.0,0.0
1064,72.0,0.0,120.0,5.0,0.0
1065,75.0,0.0,120.0,0.0,0.0
1066,72.0,0.0,120.0,0.0,0.0
1067,63.0,84.0,120.0,6.0,0.0
1068,37.0,192.0,210.0,12.0,0.0
1069,53.0,0.0,210.0,7.0,0.0
1070,70.0,0.0,90.0,5.0,0.0
1071,70.0,6.0,90.0,0.0,0.0
1072,73.0,0.0,90.0,0.0,0.0
1073,61.0,6.0,90.0,6.0,0.0
1074,51.0,0.0,210.0,10.0,0.0
1075,39.0,0.0,210.0,11.0,0.0
1076,39.0,0.0,210.0,12.0,0.0
1077,72.0,48.0,180.0,0.0,0.0
1078,68.0,0.0,180.0,0.0,0.0
1079,60.0,0.0,180.0,6.0,0.0
1080,51.0,192.0,210.0,7.0,0.0
1081,68.0,0.0,180.0,5.0,0.0
1082,70.0,0.0,180.0,0.0,0.0
1083,49.0,0.0,210.0,7.0,0.0
1084,40.0,504.0,210.0,12.0,0.0
1085,67.0,48.0,180.0,0.0,0.0
1086,67.0,0.0,180.0,5.0,0.0
1087,52.0,0.0,210.0,10.0,0.0
1088,40.0,0.0,210.0,11.0,0.0
1089,58.0,0.0,180.0,6.0,0.0
1090,65.0,48.0,1140.0,2.0,0.0
1091,53.0,0.0,1140.0,2.0,0.0
1092,53.0,24.0,690.0,10.0,0.0
1093,41.0,0.0,690.0,11.0,0.0
1094,61.0,0.0,480.0,6.0,0.0
1095,41.0,0.0,690.0,12.0,0.0
1096,58.0,0.0,480.0,1.0,0.0
1097,61.0,0.0,480.0,1.0,0.0
1098,67.0,192.0,480.0,5.0,0.0
1099,58.0,0.0,480.0,7.0,0.0
1100,64.0,0.0,240.0,0.0,0.0
1101,76.0,0.0,240.0,0.0,0.0
1102,60.0,0.0,240.0,7.0,0.0
1103,63.0,0.0,240.0,6.0,0.0
1104,57.0,0.0,180.0,1.0,0.0
1105,63.0,12.0,180.0,0.0,0.0
1106,75.0,0.0,180.0,0.0,0.0
1107,69.0,444.0,240.0,5.0,0.0
1108,60.0,0.0,180.0,1.0,0.0
1109,60.0,0.0,480.0,7.0,0.0
1110,34.0,96.0,690.0,11.0,0.0
1111,69.0,0.0,480.0,5.0,0.0
1112,46.0,0.0,690.0,10.0,0.0
1113,63.0,192.0,480.0,6.0,0.0
1114,60.0,0.0,480.0,1.0,0.0
1115,63.0,0.0,480.0,1.0,0.0
1116,34.0,0.0,690.0,12.0,0.0
1117,75.0,0.0,240.0,0.0,0.0
1118,63.0,0.0,240.0,0.0,0.0
1119,65.0,0.0,180.0,6.0,0.0
1120,62.0,0.0,180.0,7.0,0.0
1121,74.0,0.0,180.0,0.0,0.0
1122,62.0,0.0,180.0,0.0,0.0
1123,70.0,12.0,180.0,5.0,0.0
1124,62.0,0.0,180.0,1.0,0.0
1125,58.0,0.0,180.0,1.0,0.0
1126,58.0,24.0,180.0,7.0,0.0
1127,70.0,0.0,60.0,5.0,0.0
1128,73.0,60.0,60.0,0.0,0.0
1129,31.0,0.0,180.0,11.0,0.0
1130,61.0,0.0,60.0,6.0,0.0
1131,31.0,0.0,180.0,12.0,0.0
1132,43.0,0.0,180.0,10.0,0.0
1133,70.0,0.0,60.0,0.0,0.0
1134,72.0,72.0,60.0,5.0,0.0
1135,72.0,0.0,60.0,0.0,0.0
1136,75.0,0.0,60.0,0.0,0.0
1137,63.0,0.0,60.0,6.0,0.0
1138,77.0,0.0,90.0,0.0,0.0
1139,73.0,0.0,90.0,0.0,0.0
1140,65.0,0.0,90.0,6.0,0.0
1141,73.0,456.0,90.0,5.0,0.0
1142,63.0,0.0,180.0,6.0,0.0
1143,60.0,168.0,180.0,7.0,0.0
1144,75.0,0.0,180.0,0.0,0.0
1145,32.0,0.0,180.0,12.0,0.0
1146,44.0,0.0,180.0,10.0,0.0
1147,72.0,0.0,180.0,5.0,0.0
1148,32.0,0.0,180.0,11.0,0.0
1149,72.0,0.0,180.0,0.0,0.0
1150,75.0,90.0,120.0,0.0,0.0
1151,72.0,0.0,120.0,0.0,0.0
1152,37.0,0.0,210.0,11.0,0.0
1153,53.0,0.0,210.0,7.0,0.0
1154,72.0,0.0,120.0,5.0,0.0
1155,49.0,0.0,210.0,10.0,0.0
1156,37.0,192.0,210.0,12.0,0.0
1157,63.0,0.0,120.0,6.0,0.0
1158,61.0,0.0,90.0,6.0,0.0
1159,70.0,0.0,90.0,0.0,0.0
1160,70.0,6.0,90.0,5.0,0.0
1161,73.0,0.0,90.0,0.0,0.0
1162,72.0,0.0,180.0,0.0,0.0
1163,51.0,0.0,210.0,10.0,0.0
1164,51.0,0.0,210.0,7.0,0.0
1165,39.0,0.0,210.0,12.0,0.0
1166,68.0,0.0,180.0,0.0,0.0
1167,60.0,0.0,180.0,6.0,0.0
1168,39.0,192.0,210.0,11.0,0.0
1169,68.0,48.0,180.0,5.0,0.0
1170,67.0,48.0,180.0,5.0,0.0
1171,67.0,0.0,180.0,0.0,0.0
1172,70.0,0.0,180.0,0.0,0.0
1173,51.0,0.0,210.0,7.0,0.0
1174,39.0,0.0,210.0,10.0,0.0
1175,27.0,408.0,210.0,11.0,0.0
1176,27.0,0.0,210.0,12.0,0.0
1177,58.0,0.0,180.0,6.0,0.0
1178,44.0,0.0,390.0,10.0,0.0
1179,51.0,0.0,390.0,7.0,0.0
1180,32.0,0.0,390.0,11.0,0.0
1181,68.0,0.0,390.0,0.0,0.0
1182,32.0,0.0,390.0,12.0,0.0
1183,60.0,0.0,390.0,6.0,0.0
1184,68.0,36.0,390.0,5.0,0.0
1185,39.0,228.0,180.0,4.0,0.0
1186,51.0,12.0,180.0,1.0,0.0
1187,51.0,0.0,180.0,3.0,0.0
1188,63.0,0.0,180.0,3.0,0.0
1189,63.0,0.0,180.0,2.0,0.0
1190,39.0,228.0,180.0,4.0,0.0
1191,51.0,0.0,180.0,1.0,0.0
1192,63.0,12.0,180.0,3.0,0.0
1193,51.0,0.0,180.0,3.0,0.0
1194,63.0,0.0,180.0,2.0,0.0
1195,51.0,12.0,180.0,1.0,0.0
1196,39.0,228.0,180.0,4.0,0.0
1197,63.0,0.0,180.0,2.0,0.0
1198,63.0,0.0,180.0,3.0,0.0
1199,51.0,0.0,180.0,3.0,0.0
1200,63.0,0.0,180.0,2.0,0.0
1201,39.0,228.0,180.0,4.0,0.0
1202,51.0,0.0,180.0,1.0,0.0
1203,63.0,12.0,180.0,3.0,0.0
1204,51.0,0.0,180.0,3.0,0.0
1205,51.0,12.0,180.0,1.0,0.0
1206,39.0,72.0,180.0,4.0,0.0
1207,63.0,0.0,180.0,2.0,0.0
1208,51.0,0.0,180.0,3.0,0.0
1209,63.0,0.0,180.0,3.0,0.0
1210,67.0,24.0,720.0,0.0,0.0
1211,51.0,12.0,1620.0,3.0,0.0
1212,82.0,16.0,690.0,5.0,0.0
1213,39.0,0.0,180.0,10.0,0.0
1214,51.0,24.0,60.0,6.0,0.0
1215,73.0,0.0,1440.0,0.0,0.0
1216,63.0,0.0,1620.0,3.0,0.0
1217,39.0,0.0,1620.0,1.0,0.0
1218,51.0,12.0,180.0,7.0,0.0
1219,27.0,0.0,180.0,12.0,0.0
1220,63.0,0.0,1620.0,2.0,0.0
1221,39.0,30.0,20.0,4.0,0.0
1222,27.0,0.0,180.0,11.0,0.0
1223,51.0,0.0,1620.0,1.0,0.0
1224,39.0,6.0,20.0,4.0,0.0
1225,39.0,30.0,20.0,4.0,0.0
1226,58.0,4.0,60.0,6.0,0.0
1227,39.0,26.0,20.0,4.0,0.0
1228,39.0,30.0,20.0,4.0,0.0
1229,39.0,18.0,20.0,4.0,0.0
1230,61.0,14.0,60.0,6.0,0.0
1231,39.0,16.0,20.0,4.0,0.0
1232,39.0,30.0,20.0,4.0,0.0
1233,63.0,24.0,60.0,6.0,0.0
1234,39.0,30.0,20.0,4.0,0.0
1235,51.0,0.0,180.0,10.0,0.0
1236,39.0,0.0,180.0,12.0,0.0
1237,39.0,0.0,180.0,11.0,0.0
1238,63.0,12.0,180.0,7.0,0.0
1239,39.0,6.0,20.0,4.0,0.0
1240,39.0,30.0,20.0,4.0,0.0
1241,61.0,4.0,60.0,6.0,0.0
1242,39.0,26.0,20.0,4.0,0.0
1243,39.0,30.0,20.0,4.0,0.0
1244,39.0,18.0,20.0,4.0,0.0
1245,58.0,14.0,60.0,6.0,0.0
1246,39.0,16.0,20.0,4.0,0.0
1247,39.0,30.0,20.0,4.0,0.0
1248,51.0,0.0,180.0,10.0,0.0
1249,39.0,0.0,180.0,11.0,0.0
1250,63.0,0.0,180.0,7.0,0.0
1251,63.0,24.0,60.0,6.0,0.0
1252,39.0,30.0,20.0,4.0,0.0
1253,39.0,12.0,180.0,12.0,0.0
1254,39.0,6.0,20.0,4.0,0.0
1255,39.0,30.0,20.0,4.0,0.0
1256,61.0,4.0,60.0,6.0,0.0
1257,39.0,26.0,20.0,4.0,0.0
1258,39.0,30.0,20.0,4.0,0.0
1259,39.0,18.0,20.0,4.0,0.0
1260,58.0,14.0,60.0,6.0,0.0
1261,39.0,0.0,20.0,4.0,0.0
1262,39.0,6.0,20.0,4.0,0.0
1263,39.0,6.0,20.0,4.0,0.0
1264,39.0,12.0,180.0,11.0,0.0
1265,51.0,0.0,180.0,10.0,0.0
1266,39.0,0.0,180.0,12.0,0.0
1267,51.0,0.0,60.0,6.0,0.0
1268,70.0,180.0,720.0,0.0,0.0
1269,80.0,24.0,30.0,5.0,0.0
1270,63.0,0.0,180.0,7.0,0.0
1271,39.0,6.0,20.0,4.0,0.0
1272,79.0,24.0,30.0,5.0,0.0
1273,80.0,24.0,30.0,5.0,0.0
1274,39.0,6.0,20.0,4.0,0.0
1275,58.0,4.0,60.0,6.0,0.0
1276,79.0,20.0,30.0,5.0,0.0
1277,39.0,6.0,20.0,4.0,0.0
1278,39.0,6.0,20.0,4.0,0.0
1279,80.0,24.0,30.0,5.0,0.0
1280,39.0,6.0,20.0,4.0,0.0
1281,79.0,12.0,30.0,5.0,0.0
1282,61.0,14.0,60.0,6.0,0.0
1283,39.0,6.0,20.0,4.0,0.0
1284,80.0,10.0,30.0,5.0,0.0
1285,39.0,6.0,20.0,4.0,0.0
1286,79.0,24.0,30.0,5.0,0.0
1287,80.0,24.0,30.0,5.0,0.0
1288,63.0,12.0,180.0,7.0,0.0
1289,39.0,0.0,180.0,12.0,0.0
1290,51.0,0.0,180.0,10.0,0.0
1291,39.0,6.0,20.0,4.0,0.0
1292,39.0,0.0,180.0,11.0,0.0
1293,63.0,24.0,60.0,6.0,0.0
1294,39.0,6.0,20.0,4.0,0.0
1295,79.0,0.0,30.0,5.0,0.0
1296,80.0,24.0,30.0,5.0,0.0
1297,39.0,6.0,20.0,4.0,0.0
1298,61.0,4.0,60.0,6.0,0.0
1299,39.0,6.0,20.0,4.0,0.0
1300,79.0,20.0,30.0,5.0,0.0
1301,39.0,6.0,20.0,4.0,0.0
1302,80.0,24.0,30.0,5.0,0.0
1303,79.0,12.0,30.0,5.0,0.0
1304,39.0,6.0,20.0,4.0,0.0
1305,58.0,14.0,60.0,6.0,0.0
1306,80.0,10.0,30.0,5.0,0.0
1307,39.0,6.0,20.0,4.0,0.0
1308,79.0,24.0,30.0,5.0,0.0
1309,39.0,6.0,20.0,4.0,0.0
1310,80.0,24.0,30.0,5.0,0.0
1311,39.0,0.0,180.0,11.0,0.0
1312,39.0,0.0,180.0,12.0,0.0
1313,51.0,12.0,180.0,10.0,0.0
1314,39.0,6.0,20.0,4.0,0.0
1315,63.0,0.0,60.0,6.0,0.0
1316,63.0,0.0,180.0,7.0,0.0
1317,39.0,6.0,20.0,4.0,0.0
1318,79.0,24.0,30.0,5.0,0.0
1319,39.0,6.0,20.0,4.0,0.0
1320,80.0,24.0,30.0,5.0,0.0
1321,61.0,4.0,60.0,6.0,0.0
1322,79.0,20.0,30.0,5.0,0.0
1323,39.0,6.0,20.0,4.0,0.0
1324,39.0,30.0,20.0,4.0,0.0
1325,77.0,12.0,60.0,5.0,0.0
1326,39.0,6.0,20.0,4.0,0.0
1327,58.0,8.0,60.0,6.0,0.0
1328,39.0,16.0,20.0,4.0,0.0
1329,79.0,6.0,40.0,5.0,0.0
1330,39.0,6.0,20.0,4.0,0.0
1331,60.0,0.0,390.0,6.0,0.0
1332,80.0,0.0,390.0,5.0,0.0
1333,44.0,192.0,180.0,4.0,0.0
1334,56.0,36.0,390.0,7.0,0.0
1335,32.0,0.0,390.0,12.0,0.0
1336,72.0,0.0,390.0,0.0,0.0
1337,68.0,0.0,390.0,0.0,0.0
1338,44.0,0.0,390.0,10.0,0.0
1339,32.0,0.0,390.0,11.0,0.0
1340,63.0,0.0,180.0,3.0,0.0
1341,51.0,12.0,180.0,1.0,0.0
1342,39.0,0.0,180.0,1.0,0.0
1343,51.0,0.0,180.0,3.0,0.0
1344,63.0,0.0,180.0,2.0,0.0
1345,39.0,228.0,180.0,4.0,0.0
1346,39.0,228.0,180.0,4.0,0.0
1347,63.0,0.0,180.0,2.0,0.0
1348,51.0,0.0,180.0,1.0,0.0
1349,39.0,12.0,180.0,1.0,0.0
1350,63.0,0.0,180.0,3.0,0.0
1351,51.0,0.0,180.0,3.0,0.0
1352,51.0,12.0,180.0,1.0,0.0
1353,39.0,228.0,180.0,4.0,0.0
1354,51.0,0.0,180.0,3.0,0.0
1355,63.0,0.0,180.0,3.0,0.0
1356,39.0,0.0,180.0,1.0,0.0
1357,63.0,0.0,180.0,2.0,0.0
1358,51.0,0.0,180.0,1.0,0.0
1359,39.0,0.0,180.0,1.0,0.0
1360,39.0,228.0,180.0,4.0,0.0
1361,51.0,0.0,180.0,3.0,0.0
1362,63.0,0.0,180.0,3.0,0.0
1363,63.0,12.0,180.0,2.0,0.0
1364,51.0,0.0,180.0,3.0,0.0
1365,39.0,72.0,180.0,4.0,0.0
1366,63.0,0.0,180.0,3.0,0.0
1367,39.0,12.0,180.0,1.0,0.0
1368,63.0,0.0,180.0,2.0,0.0
1369,51.0,0.0,180.0,1.0,0.0
1370,63.0,0.0,1140.0,3.0,0.0
1371,67.0,24.0,720.0,0.0,0.0
1372,51.0,12.0,180.0,7.0,0.0
1373,39.0,30.0,20.0,4.0,0.0
1374,51.0,12.0,1140.0,1.0,0.0
1375,39.0,0.0,1140.0,1.0,0.0
1376,63.0,0.0,1140.0,2.0,0.0
1377,27.0,0.0,180.0,11.0,0.0
1378,73.0,168.0,1440.0,0.0,0.0
1379,51.0,0.0,1140.0,3.0,0.0
1380,39.0,0.0,180.0,10.0,0.0
1381,27.0,0.0,180.0,12.0,0.0
1382,51.0,24.0,60.0,6.0,0.0
1383,82.0,0.0,690.0,5.0,0.0
1384,39.0,6.0,20.0,4.0,0.0
1385,39.0,30.0,20.0,4.0,0.0
1386,58.0,4.0,60.0,6.0,0.0
1387,39.0,26.0,20.0,4.0,0.0
1388,39.0,30.0,20.0,4.0,0.0
1389,39.0,18.0,20.0,4.0,0.0
1390,61.0,14.0,60.0,6.0,0.0
1391,39.0,16.0,20.0,4.0,0.0
1392,39.0,30.0,20.0,4.0,0.0
1393,39.0,0.0,180.0,11.0,0.0
1394,39.0,0.0,180.0,12.0,0.0
1395,39.0,30.0,20.0,4.0,0.0
1396,51.0,0.0,180.0,10.0,0.0
1397,63.0,12.0,180.0,7.0,0.0
1398,63.0,24.0,60.0,6.0,0.0
1399,39.0,6.0,20.0,4.0,0.0
1400,39.0,30.0,20.0,4.0,0.0
1401,61.0,4.0,60.0,6.0,0.0
1402,39.0,26.0,20.0,4.0,0.0
1403,39.0,30.0,20.0,4.0,0.0
1404,39.0,18.0,20.0,4.0,0.0
1405,58.0,14.0,60.0,6.0,0.0
1406,39.0,16.0,20.0,4.0,0.0
1407,39.0,30.0,20.0,4.0,0.0
1408,63.0,0.0,180.0,7.0,0.0
1409,39.0,12.0,180.0,11.0,0.0
1410,39.0,30.0,20.0,4.0,0.0
1411,39.0,0.0,180.0,12.0,0.0
1412,51.0,0.0,180.0,10.0,0.0
1413,63.0,24.0,60.0,6.0,0.0
1414,39.0,6.0,20.0,4.0,0.0
1415,39.0,30.0,20.0,4.0,0.0
1416,61.0,4.0,60.0,6.0,0.0
1417,39.0,26.0,20.0,4.0,0.0
1418,39.0,30.0,20.0,4.0,0.0
1419,39.0,18.0,20.0,4.0,0.0
1420,58.0,14.0,60.0,6.0,0.0
1421,39.0,16.0,20.0,4.0,0.0
1422,39.0,6.0,20.0,4.0,0.0
1423,39.0,0.0,180.0,11.0,0.0
1424,80.0,24.0,30.0,5.0,0.0
1425,70.0,0.0,720.0,0.0,0.0
1426,63.0,0.0,180.0,7.0,0.0
1427,51.0,24.0,60.0,6.0,0.0
1428,51.0,12.0,180.0,10.0,0.0
1429,39.0,6.0,20.0,4.0,0.0
1430,39.0,0.0,180.0,12.0,0.0
1431,79.0,0.0,30.0,5.0,0.0
1432,39.0,6.0,20.0,4.0,0.0
1433,80.0,24.0,30.0,5.0,0.0
1434,39.0,6.0,20.0,4.0,0.0
1435,58.0,4.0,60.0,6.0,0.0
1436,39.0,6.0,20.0,4.0,0.0
1437,79.0,20.0,30.0,5.0,0.0
1438,39.0,6.0,20.0,4.0,0.0
1439,80.0,24.0,30.0,5.0,0.0
1440,79.0,12.0,30.0,5.0,0.0
1441,39.0,6.0,20.0,4.0,0.0
1442,61.0,14.0,60.0,6.0,0.0
1443,80.0,10.0,30.0,5.0,0.0
1444,39.0,6.0,20.0,4.0,0.0
1445,39.0,6.0,20.0,4.0,0.0
1446,79.0,24.0,30.0,5.0,0.0
1447,51.0,0.0,180.0,10.0,0.0
1448,39.0,0.0,180.0,11.0,0.0
1449,63.0,0.0,180.0,7.0,0.0
1450,80.0,24.0,30.0,5.0,0.0
1451,39.0,0.0,180.0,12.0,0.0
1452,63.0,24.0,60.0,6.0,0.0
1453,39.0,6.0,20.0,4.0,0.0
1454,79.0,0.0,30.0,5.0,0.0
1455,39.0,6.0,20.0,4.0,0.0
1456,39.0,6.0,20.0,4.0,0.0
1457,80.0,24.0,30.0,5.0,0.0
1458,61.0,4.0,60.0,6.0,0.0
1459,79.0,20.0,30.0,5.0,0.0
1460,39.0,6.0,20.0,4.0,0.0
1461,80.0,24.0,30.0,5.0,0.0
1462,39.0,6.0,20.0,4.0,0.0
1463,79.0,12.0,30.0,5.0,0.0
1464,39.0,6.0,20.0,4.0,0.0
1465,58.0,14.0,60.0,6.0,0.0
1466,39.0,6.0,20.0,4.0,0.0
1467,80.0,10.0,30.0,5.0,0.0
1468,39.0,6.0,20.0,4.0,0.0
1469,79.0,24.0,30.0,5.0,0.0
1470,39.0,0.0,180.0,11.0,0.0
1471,63.0,0.0,180.0,7.0,0.0
1472,51.0,0.0,180.0,10.0,0.0
1473,80.0,24.0,30.0,5.0,0.0
1474,63.0,0.0,60.0,6.0,0.0
1475,39.0,12.0,180.0,12.0,0.0
1476,39.0,6.0,20.0,4.0,0.0
1477,79.0,24.0,30.0,5.0,0.0
1478,39.0,6.0,20.0,4.0,0.0
1479,39.0,6.0,20.0,4.0,0.0
1480,80.0,24.0,30.0,5.0,0.0
1481,61.0,4.0,60.0,6.0,0.0
1482,79.0,20.0,30.0,5.0,0.0
1483,39.0,6.0,20.0,4.0,0.0
1484,77.0,12.0,60.0,5.0,0.0
1485,39.0,30.0,20.0,4.0,0.0
1486,39.0,6.0,20.0,4.0,0.0
1487,58.0,8.0,60.0,6.0,0.0
1488,79.0,6.0,40.0,5.0,0.0
1489,39.0,16.0,20.0,4.0,0.0
1490,39.0,6.0,20.0,4.0,0.0
1491,60.0,0.0,180.0,6.0,0.0
1492,60.0,0.0,180.0,3.0,0.0
1493,32.0,0.0,180.0,11.0,0.0
1494,56.0,0.0,180.0,3.0,0.0
1495,44.0,216.0,180.0,4.0,0.0
1496,44.0,0.0,180.0,10.0,0.0
1497,32.0,0.0,180.0,12.0,0.0
1498,63.0,0.0,180.0,7.0,0.0
1499,56.0,0.0,180.0,2.0,0.0
1500,68.0,0.0,180.0,0.0,0.0
1501,72.0,24.0,180.0,0.0,0.0
1502,63.0,0.0,180.0,2.0,0.0
1503,51.0,0.0,180.0,1.0,0.0
1504,39.0,0.0,180.0,1.0,0.0
1505,80.0,0.0,180.0,5.0,0.0
1506,80.0,0.0,180.0,0.0,0.0
1507,56.0,0.0,180.0,2.0,0.0
1508,63.0,0.0,180.0,2.0,0.0
1509,72.0,0.0,180.0,0.0,0.0
1510,32.0,24.0,180.0,11.0,0.0
1511,63.0,0.0,180.0,7.0,0.0
1512,44.0,0.0,180.0,10.0,0.0
1513,60.0,0.0,180.0,6.0,0.0
1514,44.0,0.0,180.0,1.0,0.0
1515,68.0,0.0,180.0,5.0,0.0
1516,60.0,0.0,180.0,3.0,0.0
1517,56.0,0.0,180.0,3.0,0.0
1518,32.0,0.0,180.0,12.0,0.0
1519,44.0,216.0,180.0,4.0,0.0
1520,56.0,0.0,180.0,3.0,0.0
1521,56.0,0.0,180.0,2.0,0.0
1522,63.0,0.0,180.0,2.0,0.0
1523,63.0,0.0,180.0,7.0,0.0
1524,44.0,24.0,180.0,10.0,0.0
1525,32.0,0.0,180.0,11.0,0.0
1526,60.0,0.0,180.0,3.0,0.0
1527,68.0,0.0,180.0,5.0,0.0
1528,60.0,0.0,180.0,6.0,0.0
1529,44.0,0.0,180.0,1.0,0.0
1530,80.0,0.0,180.0,0.0,0.0
1531,72.0,0.0,180.0,0.0,0.0
1532,32.0,0.0,180.0,12.0,0.0
1533,44.0,216.0,180.0,4.0,0.0
1534,60.0,0.0,180.0,3.0,0.0
1535,56.0,0.0,180.0,3.0,0.0
1536,32.0,0.0,180.0,12.0,0.0
1537,60.0,0.0,180.0,6.0,0.0
1538,32.0,0.0,180.0,11.0,0.0
1539,44.0,816.0,180.0,4.0,0.0
1540,44.0,0.0,180.0,1.0,0.0
1541,63.0,0.0,180.0,7.0,0.0
1542,56.0,24.0,180.0,2.0,0.0
1543,63.0,0.0,180.0,2.0,0.0
1544,72.0,0.0,180.0,0.0,0.0
1545,68.0,0.0,180.0,5.0,0.0
1546,44.0,0.0,180.0,10.0,0.0
1547,80.0,0.0,180.0,0.0,0.0
1548,60.0,72.0,300.0,6.0,0.0
1549,63.0,96.0,360.0,5.0,0.0
1550,56.0,48.0,900.0,7.0,0.0
1551,56.0,0.0,900.0,10.0,0.0
1552,61.0,24.0,90.0,6.0,0.0
1553,65.0,192.0,120.0,5.0,0.0
1554,63.0,240.0,180.0,5.0,0.0
1555,60.0,0.0,180.0,6.0,0.0
1556,63.0,48.0,870.0,6.0,0.0
1557,72.0,192.0,240.0,5.0,0.0
1558,58.0,0.0,180.0,10.0,0.0
1559,70.0,192.0,240.0,5.0,0.0
1560,61.0,48.0,180.0,7.0,0.0
1561,60.0,0.0,180.0,10.0,0.0
1562,68.0,0.0,180.0,5.0,0.0
1563,60.0,168.0,180.0,7.0,0.0
1564,58.0,0.0,150.0,10.0,0.0
1565,68.0,24.0,120.0,5.0,0.0
1566,61.0,0.0,150.0,7.0,0.0
1567,67.0,192.0,60.0,5.0,0.0
1568,61.0,0.0,150.0,7.0,0.0
1569,58.0,0.0,150.0,10.0,0.0
1570,63.0,240.0,150.0,6.0,0.0
1571,67.0,0.0,150.0,5.0,0.0
1572,63.0,0.0,150.0,6.0,0.0
1573,61.0,0.0,150.0,7.0,0.0
1574,67.0,240.0,150.0,5.0,0.0
1575,58.0,0.0,150.0,10.0,0.0
1576,58.0,0.0,150.0,10.0,0.0
1577,63.0,0.0,150.0,6.0,0.0
1578,61.0,0.0,150.0,7.0,0.0
1579,67.0,336.0,150.0,5.0,0.0
1580,70.0,120.0,120.0,5.0,0.0
1581,73.0,96.0,120.0,5.0,0.0
1582,70.0,144.0,90.0,5.0,0.0
1583,63.0,0.0,150.0,7.0,0.0
1584,60.0,0.0,150.0,10.0,0.0
1585,70.0,24.0,120.0,5.0,0.0
1586,66.0,48.0,150.0,6.0,0.0
1587,69.0,192.0,60.0,5.0,0.0
1588,69.0,0.0,150.0,5.0,0.0
1589,63.0,0.0,150.0,7.0,0.0
1590,66.0,0.0,150.0,6.0,0.0
1591,60.0,240.0,150.0,10.0,0.0
1592,60.0,0.0,150.0,10.0,0.0
1593,63.0,240.0,150.0,7.0,0.0
1594,69.0,0.0,150.0,5.0,0.0
1595,66.0,0.0,150.0,6.0,0.0
1596,60.0,0.0,150.0,10.0,0.0
1597,63.0,0.0,150.0,7.0,0.0
1598,66.0,0.0,150.0,6.0,0.0
1599,69.0,336.0,150.0,5.0,0.0
1600,72.0,120.0,120.0,5.0,0.0
1601,75.0,96.0,120.0,5.0,0.0
1602,72.0,216.0,90.0,5.0,0.0
1603,70.0,168.0,180.0,5.0,0.0
1604,61.0,0.0,240.0,10.0,0.0
1605,61.0,0.0,240.0,7.0,0.0
1606,65.0,120.0,120.0,6.0,0.0
1607,70.0,0.0,120.0,6.0,0.0
1608,73.0,120.0,120.0,5.0,0.0
1609,73.0,72.0,120.0,6.0,0.0
1610,58.0,24.0,180.0,7.0,0.0
1611,58.0,0.0,180.0,10.0,0.0
1612,77.0,0.0,120.0,5.0,0.0
1613,73.0,0.0,90.0,5.0,0.0
1614,70.0,216.0,90.0,6.0,0.0
1615,72.0,0.0,180.0,5.0,0.0
1616,68.0,288.0,180.0,6.0,0.0
1617,63.0,0.0,240.0,10.0,0.0
1618,63.0,0.0,240.0,7.0,0.0
1619,68.0,0.0,120.0,6.0,0.0
1620,72.0,120.0,120.0,5.0,0.0
1621,70.0,72.0,120.0,6.0,0.0
1622,51.0,0.0,180.0,10.0,0.0
1623,61.0,24.0,180.0,7.0,0.0
1624,73.0,0.0,120.0,5.0,0.0
1625,70.0,408.0,90.0,5.0,0.0
1626,67.0,0.0,90.0,6.0,0.0
1627,60.0,48.0,390.0,7.0,0.0
1628,68.0,0.0,390.0,5.0,0.0
1629,68.0,0.0,390.0,6.0,0.0
1630,56.0,0.0,390.0,10.0,0.0
1631,44.0,0.0,180.0,2.0,0.0
1632,56.0,240.0,180.0,3.0,0.0
1633,68.0,0.0,180.0,3.0,0.0
1634,80.0,0.0,180.0,0.0,0.0
1635,72.0,0.0,180.0,0.0,0.0
1636,51.0,0.0,180.0,1.0,0.0
1637,60.0,0.0,180.0,1.0,0.0
1638,44.0,0.0,180.0,4.0,0.0
1639,56.0,0.0,180.0,2.0,0.0
1640,56.0,0.0,180.0,3.0,0.0
1641,68.0,0.0,180.0,3.0,0.0
1642,44.0,0.0,180.0,4.0,0.0
1643,80.0,0.0,180.0,0.0,0.0
1644,44.0,240.0,180.0,2.0,0.0
1645,72.0,0.0,180.0,0.0,0.0
1646,60.0,0.0,180.0,1.0,0.0
1647,51.0,0.0,180.0,1.0,0.0
1648,56.0,0.0,180.0,2.0,0.0
1649,72.0,0.0,180.0,0.0,0.0
1650,80.0,0.0,180.0,0.0,0.0
1651,44.0,0.0,180.0,4.0,0.0
1652,60.0,0.0,180.0,1.0,0.0
1653,56.0,0.0,180.0,3.0,0.0
1654,68.0,0.0,180.0,3.0,0.0
1655,56.0,240.0,180.0,2.0,0.0
1656,44.0,0.0,180.0,2.0,0.0
1657,51.0,0.0,180.0,1.0,0.0
1658,44.0,48.0,180.0,4.0,0.0
1659,51.0,0.0,180.0,1.0,0.0
1660,60.0,0.0,180.0,1.0,0.0
1661,56.0,0.0,180.0,3.0,0.0
1662,68.0,0.0,180.0,3.0,0.0
1663,56.0,0.0,180.0,2.0,0.0
1664,44.0,0.0,180.0,2.0,0.0
1665,72.0,0.0,180.0,0.0,0.0
1666,80.0,0.0,180.0,0.0,0.0
1667,72.0,120.0,120.0,5.0,0.0
1668,60.0,0.0,180.0,1.0,0.0
1669,72.0,0.0,180.0,0.0,0.0
1670,51.0,0.0,180.0,1.0,0.0
1671,56.0,0.0,180.0,2.0,0.0
1672,68.0,24.0,180.0,3.0,0.0
1673,44.0,0.0,180.0,4.0,0.0
1674,75.0,72.0,120.0,5.0,0.0
1675,80.0,0.0,180.0,0.0,0.0
1676,56.0,0.0,180.0,3.0,0.0
1677,44.0,0.0,180.0,2.0,0.0
1678,72.0,144.0,90.0,5.0,0.0
1679,79.0,0.0,1440.0,0.0,0.0
1680,70.0,0.0,1440.0,0.0,0.0
1681,61.0,0.0,1440.0,7.0,0.0
1682,61.0,0.0,1440.0,1.0,0.0
1683,64.0,0.0,1440.0,7.0,0.0
1684,52.0,192.0,1440.0,1.0,0.0
1685,76.0,48.0,180.0,5.0,0.0
1686,55.0,72.0,120.0,6.0,0.0
1687,44.0,48.0,390.0,4.0,0.0
1688,58.0,120.0,120.0,6.0,0.0
1689,32.0,0.0,180.0,12.0,0.0
1690,61.0,24.0,120.0,6.0,0.0
1691,32.0,0.0,180.0,11.0,0.0
1692,44.0,48.0,180.0,10.0,0.0
1693,73.0,120.0,120.0,5.0,0.0
1694,58.0,0.0,120.0,6.0,0.0
1695,32.0,0.0,180.0,11.0,0.0
1696,32.0,0.0,180.0,12.0,0.0
1697,76.0,0.0,120.0,5.0,0.0
1698,61.0,72.0,120.0,6.0,0.0
1699,44.0,24.0,180.0,10.0,0.0
1700,73.0,0.0,90.0,5.0,0.0
1701,58.0,144.0,90.0,6.0,0.0
1702,70.0,48.0,180.0,5.0,0.0
1703,32.0,0.0,180.0,11.0,0.0
1704,32.0,0.0,180.0,12.0,0.0
1705,64.0,72.0,120.0,6.0,0.0
1706,44.0,0.0,180.0,10.0,0.0
1707,58.0,120.0,120.0,6.0,0.0
1708,64.0,72.0,120.0,6.0,0.0
1709,32.0,0.0,180.0,11.0,0.0
1710,32.0,48.0,180.0,12.0,0.0
1711,44.0,0.0,180.0,10.0,0.0
1712,67.0,0.0,120.0,5.0,0.0
1713,58.0,120.0,120.0,6.0,0.0
1714,32.0,0.0,180.0,12.0,0.0
1715,70.0,0.0,120.0,5.0,0.0
1716,32.0,24.0,180.0,11.0,0.0
1717,61.0,72.0,120.0,6.0,0.0
1718,44.0,0.0,180.0,10.0,0.0
1719,58.0,24.0,90.0,6.0,0.0
1720,67.0,0.0,90.0,5.0,0.0
1721,68.0,0.0,180.0,5.0,0.0
1722,80.0,0.0,180.0,0.0,0.0
1723,56.0,0.0,15.0,2.0,0.0
1724,72.0,0.0,180.0,0.0,0.0
1725,44.0,0.0,390.0,10.0,0.0
1726,68.0,0.0,15.0,3.0,0.0
1727,60.0,192.0,180.0,6.0,0.0
1728,63.0,0.0,180.0,7.0,0.0
1729,60.0,0.0,180.0,7.0,0.0
1730,60.0,0.0,180.0,1.0,0.0
1731,32.0,0.0,390.0,11.0,0.0
1732,44.0,0.0,15.0,2.0,0.0
1733,56.0,0.0,15.0,3.0,0.0
1734,51.0,0.0,180.0,1.0,0.0
1735,32.0,48.0,390.0,12.0,0.0
1736,60.0,0.0,180.0,1.0,0.0
1737,44.0,0.0,180.0,4.0,0.0
1738,51.0,0.0,180.0,1.0,0.0
1739,44.0,0.0,180.0,2.0,0.0
1740,68.0,0.0,180.0,3.0,0.0
1741,56.0,240.0,180.0,2.0,0.0
1742,56.0,0.0,180.0,3.0,0.0
1743,80.0,0.0,180.0,0.0,0.0
1744,72.0,0.0,180.0,0.0,0.0
1745,56.0,0.0,180.0,3.0,0.0
1746,68.0,0.0,180.0,3.0,0.0
1747,80.0,240.0,180.0,0.0,0.0
1748,51.0,0.0,180.0,1.0,0.0
1749,60.0,0.0,180.0,1.0,0.0
1750,44.0,0.0,180.0,4.0,0.0
1751,56.0,0.0,180.0,2.0,0.0
1752,44.0,0.0,180.0,2.0,0.0
1753,72.0,0.0,180.0,0.0,0.0
1754,51.0,0.0,180.0,1.0,0.0
1755,60.0,0.0,180.0,1.0,0.0
1756,44.0,240.0,180.0,2.0,0.0
1757,56.0,0.0,180.0,3.0,0.0
1758,68.0,0.0,180.0,3.0,0.0
1759,56.0,0.0,180.0,2.0,0.0
1760,44.0,0.0,180.0,4.0,0.0
1761,80.0,0.0,180.0,0.0,0.0
1762,72.0,0.0,180.0,0.0,0.0
1763,44.0,0.0,180.0,2.0,0.0
1764,56.0,0.0,180.0,2.0,0.0
1765,60.0,0.0,180.0,1.0,0.0
1766,51.0,0.0,180.0,1.0,0.0
1767,72.0,0.0,180.0,0.0,0.0
1768,56.0,0.0,180.0,3.0,0.0
1769,68.0,0.0,180.0,3.0,0.0
1770,80.0,0.0,180.0,0.0,0.0
1771,44.0,48.0,180.0,4.0,0.0
1772,72.0,120.0,120.0,5.0,0.0
1773,75.0,72.0,120.0,5.0,0.0
1774,68.0,0.0,180.0,3.0,0.0
1775,51.0,0.0,180.0,1.0,0.0
1776,72.0,0.0,180.0,0.0,0.0
1777,80.0,0.0,180.0,0.0,0.0
1778,60.0,24.0,180.0,1.0,0.0
1779,44.0,0.0,180.0,2.0,0.0
1780,56.0,0.0,180.0,2.0,0.0
1781,56.0,0.0,180.0,3.0,0.0
1782,44.0,0.0,180.0,4.0,0.0
1783,72.0,144.0,90.0,5.0,0.0
1784,52.0,0.0,1440.0,1.0,0.0
1785,61.0,0.0,1440.0,1.0,0.0
1786,76.0,48.0,180.0,5.0,0.0
1787,55.0,72.0,120.0,6.0,0.0
1788,44.0,48.0,390.0,4.0,0.0
1789,61.0,0.0,1440.0,7.0,0.0
1790,56.0,0.0,1440.0,2.0,0.0
1791,79.0,0.0,1440.0,0.0,0.0
1792,70.0,0.0,1440.0,0.0,0.0
1793,64.0,0.0,1440.0,7.0,0.0
1794,58.0,120.0,120.0,6.0,0.0
1795,32.0,48.0,180.0,11.0,0.0
1796,44.0,0.0,180.0,10.0,0.0
1797,61.0,24.0,120.0,6.0,0.0
1798,32.0,0.0,180.0,12.0,0.0
1799,58.0,0.0,120.0,6.0,0.0
1800,73.0,120.0,120.0,5.0,0.0
1801,32.0,0.0,180.0,12.0,0.0
1802,61.0,72.0,120.0,6.0,0.0
1803,44.0,24.0,180.0,10.0,0.0
1804,76.0,0.0,120.0,5.0,0.0
1805,32.0,0.0,180.0,11.0,0.0
1806,73.0,144.0,90.0,5.0,0.0
1807,58.0,0.0,90.0,6.0,0.0
1808,32.0,0.0,180.0,12.0,0.0
1809,64.0,72.0,120.0,6.0,0.0
1810,70.0,48.0,180.0,5.0,0.0
1811,32.0,0.0,180.0,11.0,0.0
1812,44.0,0.0,180.0,10.0,0.0
1813,58.0,120.0,120.0,6.0,0.0
1814,32.0,48.0,180.0,12.0,0.0
1815,32.0,0.0,180.0,11.0,0.0
1816,64.0,72.0,120.0,6.0,0.0
1817,44.0,0.0,180.0,10.0,0.0
1818,67.0,0.0,120.0,5.0,0.0
1819,58.0,120.0,120.0,6.0,0.0
1820,32.0,0.0,180.0,12.0,0.0
1821,61.0,72.0,120.0,6.0,0.0
1822,70.0,0.0,120.0,5.0,0.0
1823,44.0,0.0,180.0,10.0,0.0
1824,32.0,24.0,180.0,11.0,0.0
1825,67.0,0.0,90.0,5.0,0.0
1826,58.0,24.0,90.0,6.0,0.0
1827,51.0,0.0,180.0,1.0,0.0
1828,32.0,240.0,180.0,11.0,0.0
1829,44.0,0.0,15.0,2.0,0.0
1830,32.0,0.0,180.0,12.0,0.0
1831,60.0,0.0,180.0,6.0,0.0
1832,63.0,0.0,180.0,7.0,0.0
1833,60.0,0.0,180.0,7.0,0.0
1834,56.0,0.0,180.0,2.0,0.0
1835,60.0,0.0,180.0,1.0,0.0
1836,68.0,0.0,180.0,5.0,0.0
1837,68.0,0.0,15.0,3.0,0.0
1838,80.0,0.0,180.0,0.0,0.0
1839,56.0,192.0,15.0,3.0,0.0
1840,44.0,0.0,180.0,10.0,0.0
1841,72.0,0.0,180.0,0.0,0.0
1842,32.0,0.0,60.0,11.0,0.0
1843,44.0,0.0,60.0,1.0,0.0
1844,32.0,120.0,60.0,12.0,0.0
1845,44.0,0.0,60.0,10.0,0.0
1846,46.0,0.0,60.0,1.0,0.0
1847,34.0,120.0,60.0,12.0,0.0
1848,34.0,0.0,60.0,11.0,0.0
1849,46.0,0.0,60.0,10.0,0.0
1850,36.0,0.0,60.0,12.0,0.0
1851,36.0,0.0,60.0,11.0,0.0
1852,48.0,0.0,60.0,10.0,0.0
1853,48.0,120.0,60.0,1.0,0.0
1854,49.0,0.0,60.0,1.0,0.0
1855,37.0,0.0,60.0,12.0,0.0
1856,49.0,0.0,60.0,10.0,0.0
1857,37.0,120.0,60.0,11.0,0.0
1858,51.0,0.0,60.0,10.0,0.0
1859,39.0,0.0,60.0,12.0,0.0
1860,39.0,0.0,60.0,11.0,0.0
1861,51.0,120.0,60.0,1.0,0.0
1862,52.0,0.0,60.0,10.0,0.0
1863,52.0,120.0,60.0,1.0,0.0
1864,40.0,0.0,60.0,12.0,0.0
1865,40.0,0.0,60.0,11.0,0.0
1866,42.0,0.0,60.0,12.0,0.0
1867,54.0,0.0,60.0,1.0,0.0
1868,54.0,120.0,60.0,10.0,0.0
1869,42.0,0.0,60.0,11.0,0.0
1870,56.0,0.0,60.0,1.0,0.0
1871,44.0,0.0,60.0,12.0,0.0
1872,56.0,0.0,60.0,10.0,0.0
1873,44.0,120.0,60.0,11.0,0.0
1874,44.0,0.0,60.0,10.0,0.0
1875,32.0,0.0,60.0,11.0,0.0
1876,32.0,192.0,60.0,12.0,0.0
1877,44.0,0.0,60.0,1.0,0.0
1878,45.0,0.0,150.0,10.0,0.0
1879,33.0,240.0,150.0,11.0,0.0
1880,45.0,0.0,150.0,1.0,0.0
1881,33.0,0.0,150.0,12.0,0.0
1882,45.0,0.0,150.0,12.0,0.0
1883,45.0,0.0,150.0,11.0,0.0
1884,57.0,240.0,150.0,10.0,0.0
1885,57.0,0.0,150.0,1.0,0.0
1886,44.0,0.0,150.0,1.0,0.0
1887,44.0,0.0,150.0,10.0,0.0
1888,32.0,816.0,150.0,12.0,0.0
1889,32.0,0.0,150.0,11.0,0.0
1890,30.0,192.0,720.0,11.0,0.0
1891,69.0,0.0,720.0,5.0,0.0
1892,63.0,0.0,900.0,7.0,0.0
1893,42.0,0.0,720.0,10.0,0.0
1894,42.0,0.0,720.0,1.0,0.0
1895,61.0,0.0,720.0,6.0,0.0
1896,30.0,0.0,720.0,12.0,0.0
1897,44.0,0.0,180.0,1.0,0.0
1898,32.0,0.0,180.0,12.0,0.0
1899,60.0,240.0,180.0,6.0,0.0
1900,63.0,0.0,180.0,5.0,0.0
1901,32.0,0.0,180.0,11.0,0.0
1902,44.0,0.0,180.0,10.0,0.0
1903,32.0,120.0,60.0,11.0,0.0
1904,32.0,0.0,60.0,12.0,0.0
1905,44.0,0.0,60.0,1.0,0.0
1906,44.0,0.0,60.0,10.0,0.0
1907,46.0,0.0,60.0,1.0,0.0
1908,34.0,0.0,60.0,12.0,0.0
1909,46.0,0.0,60.0,10.0,0.0
1910,34.0,120.0,60.0,11.0,0.0
1911,36.0,0.0,60.0,12.0,0.0
1912,36.0,0.0,60.0,11.0,0.0
1913,48.0,0.0,60.0,10.0,0.0
1914,48.0,120.0,60.0,1.0,0.0
1915,49.0,0.0,60.0,1.0,0.0
1916,37.0,0.0,60.0,12.0,0.0
1917,37.0,120.0,60.0,11.0,0.0
1918,49.0,0.0,60.0,10.0,0.0
1919,51.0,0.0,60.0,1.0,0.0
1920,51.0,120.0,60.0,10.0,0.0
1921,39.0,0.0,60.0,12.0,0.0
1922,39.0,0.0,60.0,11.0,0.0
1923,52.0,0.0,60.0,10.0,0.0
1924,40.0,0.0,60.0,12.0,0.0
1925,52.0,120.0,60.0,1.0,0.0
1926,40.0,0.0,60.0,11.0,0.0
1927,42.0,0.0,60.0,12.0,0.0
1928,42.0,120.0,60.0,11.0,0.0
1929,54.0,0.0,60.0,10.0,0.0
1930,54.0,0.0,60.0,1.0,0.0
1931,44.0,0.0,60.0,12.0,0.0
1932,56.0,120.0,60.0,10.0,0.0
1933,56.0,0.0,60.0,1.0,0.0
1934,44.0,0.0,60.0,11.0,0.0
1935,44.0,0.0,60.0,10.0,0.0
1936,32.0,0.0,60.0,11.0,0.0
1937,32.0,192.0,60.0,12.0,0.0
1938,44.0,0.0,60.0,1.0,0.0
1939,33.0,0.0,150.0,11.0,0.0
1940,45.0,0.0,150.0,1.0,0.0
1941,33.0,240.0,150.0,12.0,0.0
1942,45.0,0.0,150.0,10.0,0.0
1943,45.0,0.0,150.0,11.0,0.0
1944,57.0,0.0,150.0,10.0,0.0
1945,57.0,240.0,150.0,1.0,0.0
1946,45.0,0.0,150.0,12.0,0.0
1947,44.0,0.0,150.0,10.0,0.0
1948,32.0,0.0,150.0,12.0,0.0
1949,44.0,672.0,150.0,1.0,0.0
1950,32.0,0.0,150.0,11.0,0.0
1951,43.0,144.0,570.0,1.0,0.0
1952,43.0,192.0,720.0,10.0,0.0
1953,70.0,0.0,720.0,6.0,0.0
1954,73.0,0.0,720.0,5.0,0.0
1955,31.0,0.0,720.0,12.0,0.0
1956,31.0,0.0,720.0,11.0,0.0
1957,32.0,0.0,240.0,11.0,0.0
1958,63.0,0.0,15.0,7.0,0.0
1959,68.0,0.0,240.0,6.0,0.0
1960,44.0,48.0,180.0,1.0,0.0
1961,72.0,144.0,240.0,5.0,0.0
1962,32.0,0.0,240.0,12.0,0.0
1963,44.0,0.0,240.0,10.0,0.0
1964,48.0,0.0,240.0,10.0,0.0
1965,66.0,192.0,240.0,6.0,0.0
1966,36.0,0.0,240.0,12.0,0.0
1967,69.0,0.0,240.0,5.0,0.0
1968,36.0,0.0,240.0,11.0,0.0
1969,68.0,0.0,180.0,5.0,0.0
1970,37.0,168.0,180.0,11.0,0.0
1971,37.0,0.0,180.0,12.0,0.0
1972,56.0,0.0,180.0,7.0,0.0
1973,64.0,0.0,180.0,6.0,0.0
1974,49.0,0.0,180.0,10.0,0.0
1975,64.0,0.0,120.0,6.0,0.0
1976,57.0,0.0,240.0,7.0,0.0
1977,30.0,0.0,240.0,12.0,0.0
1978,42.0,144.0,240.0,10.0,0.0
1979,68.0,120.0,120.0,5.0,0.0
1980,30.0,0.0,240.0,11.0,0.0
1981,63.0,0.0,120.0,6.0,0.0
1982,66.0,0.0,120.0,5.0,0.0
1983,56.0,228.0,240.0,7.0,0.0
1984,61.0,0.0,240.0,6.0,0.0
1985,32.0,0.0,150.0,11.0,0.0
1986,44.0,96.0,150.0,10.0,0.0
1987,64.0,0.0,240.0,5.0,0.0
1988,32.0,0.0,150.0,12.0,0.0
1989,32.0,204.0,240.0,12.0,0.0
1990,44.0,0.0,240.0,10.0,0.0
1991,32.0,0.0,240.0,11.0,0.0
1992,63.0,0.0,240.0,5.0,0.0
1993,54.0,0.0,240.0,7.0,0.0
1994,60.0,0.0,240.0,6.0,0.0
1995,25.0,0.0,180.0,11.0,0.0
1996,61.0,0.0,180.0,6.0,0.0
1997,52.0,0.0,180.0,7.0,0.0
1998,61.0,240.0,180.0,5.0,0.0
1999,25.0,0.0,180.0,12.0,0.0
2000,37.0,0.0,180.0,10.0,0.0
2001,56.0,120.0,60.0,6.0,0.0
2002,56.0,0.0,60.0,5.0,0.0
2003,58.0,0.0,60.0,6.0,0.0
2004,58.0,120.0,60.0,5.0,0.0
2005,60.0,0.0,60.0,5.0,0.0
2006,60.0,120.0,60.0,6.0,0.0
2007,61.0,0.0,60.0,5.0,0.0
2008,61.0,120.0,60.0,6.0,0.0
2009,63.0,0.0,60.0,5.0,0.0
2010,63.0,120.0,60.0,6.0,0.0
2011,64.0,0.0,60.0,6.0,0.0
2012,64.0,120.0,60.0,5.0,0.0
2013,66.0,0.0,60.0,6.0,0.0
2014,66.0,120.0,60.0,5.0,0.0
2015,68.0,120.0,60.0,6.0,0.0
2016,68.0,0.0,60.0,5.0,0.0
2017,56.0,0.0,60.0,5.0,0.0
2018,56.0,192.0,60.0,6.0,0.0
2019,57.0,240.0,150.0,5.0,0.0
2020,57.0,0.0,150.0,6.0,0.0
2021,69.0,0.0,150.0,5.0,0.0
2022,69.0,240.0,150.0,6.0,0.0
2023,56.0,0.0,150.0,5.0,0.0
2024,56.0,480.0,150.0,6.0,0.0
2025,69.0,0.0,720.0,0.0,0.0
2026,63.0,0.0,1110.0,2.0,0.0
2027,66.0,0.0,900.0,0.0,0.0
2028,54.0,144.0,720.0,6.0,0.0
2029,54.0,0.0,720.0,5.0,0.0
2030,39.0,0.0,150.0,12.0,0.0
2031,51.0,0.0,150.0,1.0,0.0
2032,51.0,240.0,150.0,10.0,0.0
2033,39.0,0.0,150.0,11.0,0.0
2034,63.0,0.0,150.0,7.0,0.0
2035,49.0,0.0,150.0,10.0,0.0
2036,61.0,96.0,150.0,7.0,0.0
2037,37.0,0.0,150.0,11.0,0.0
2038,37.0,0.0,150.0,12.0,0.0
2039,49.0,0.0,150.0,1.0,0.0
2040,56.0,0.0,390.0,2.0,0.0
2041,56.0,0.0,180.0,6.0,0.0
2042,60.0,48.0,150.0,7.0,0.0
2043,48.0,0.0,150.0,1.0,0.0
2044,36.0,0.0,150.0,12.0,0.0
2045,56.0,0.0,180.0,5.0,0.0
2046,36.0,0.0,150.0,11.0,0.0
2047,48.0,0.0,150.0,10.0,0.0
2048,68.0,192.0,180.0,0.0,0.0
2049,32.0,0.0,150.0,11.0,0.0
2050,56.0,0.0,150.0,7.0,0.0
2051,44.0,48.0,150.0,1.0,0.0
2052,44.0,0.0,150.0,10.0,0.0
2053,32.0,0.0,150.0,12.0,0.0
2054,56.0,0.0,60.0,6.0,0.0
2055,56.0,120.0,60.0,5.0,0.0
2056,58.0,120.0,60.0,6.0,0.0
2057,58.0,0.0,60.0,5.0,0.0
2058,60.0,0.0,60.0,5.0,0.0
2059,60.0,120.0,60.0,6.0,0.0
2060,61.0,120.0,60.0,6.0,0.0
2061,61.0,0.0,60.0,5.0,0.0
2062,63.0,120.0,60.0,5.0,0.0
2063,63.0,0.0,60.0,6.0,0.0
2064,64.0,0.0,60.0,5.0,0.0
2065,64.0,120.0,60.0,6.0,0.0
2066,66.0,0.0,60.0,5.0,0.0
2067,66.0,120.0,60.0,6.0,0.0
2068,68.0,120.0,60.0,6.0,0.0
2069,68.0,0.0,60.0,5.0,0.0
2070,56.0,0.0,60.0,5.0,0.0
2071,56.0,192.0,60.0,6.0,0.0
2072,57.0,0.0,150.0,6.0,0.0
2073,57.0,240.0,150.0,5.0,0.0
2074,69.0,0.0,150.0,5.0,0.0
2075,69.0,240.0,150.0,6.0,0.0
2076,56.0,576.0,150.0,6.0,0.0
2077,56.0,0.0,150.0,5.0,0.0
2078,66.0,0.0,720.0,0.0,0.0
2079,63.0,0.0,720.0,0.0,0.0
2080,54.0,0.0,720.0,5.0,0.0
2081,59.0,0.0,1410.0,7.0,0.0
2082,51.0,240.0,720.0,6.0,0.0
2083,35.0,0.0,240.0,11.0,0.0
2084,47.0,0.0,240.0,10.0,0.0
2085,35.0,192.0,240.0,12.0,0.0
2086,33.0,0.0,180.0,11.0,0.0
2087,45.0,0.0,180.0,10.0,0.0
2088,33.0,48.0,180.0,12.0,0.0
2089,44.0,0.0,240.0,10.0,0.0
2090,32.0,0.0,240.0,11.0,0.0
2091,68.0,0.0,690.0,0.0,0.0
2092,64.0,0.0,690.0,0.0,0.0
2093,52.0,156.0,690.0,6.0,0.0
2094,56.0,0.0,690.0,5.0,0.0
2095,32.0,240.0,240.0,12.0,0.0
2096,30.0,192.0,240.0,11.0,0.0
2097,42.0,0.0,240.0,10.0,0.0
2098,30.0,0.0,240.0,12.0,0.0
2099,40.0,12.0,180.0,10.0,0.0
2100,28.0,0.0,180.0,12.0,0.0
2101,28.0,0.0,180.0,11.0,0.0
2102,71.0,120.0,120.0,0.0,0.0
2103,68.0,0.0,120.0,0.0,0.0
2104,59.0,0.0,120.0,5.0,0.0
2105,45.0,0.0,240.0,10.0,0.0
2106,33.0,0.0,240.0,12.0,0.0
2107,56.0,0.0,120.0,6.0,0.0
2108,33.0,0.0,240.0,11.0,0.0
2109,54.0,0.0,120.0,6.0,0.0
2110,57.0,216.0,120.0,5.0,0.0
2111,69.0,0.0,120.0,0.0,0.0
2112,66.0,0.0,120.0,0.0,0.0
2113,47.0,0.0,210.0,10.0,0.0
2114,56.0,0.0,240.0,5.0,0.0
2115,68.0,0.0,240.0,0.0,0.0
2116,64.0,0.0,240.0,0.0,0.0
2117,47.0,0.0,240.0,7.0,0.0
2118,52.0,216.0,240.0,6.0,0.0
2119,35.0,0.0,210.0,12.0,0.0
2120,35.0,24.0,210.0,11.0,0.0
2121,35.0,0.0,210.0,12.0,0.0
2122,54.0,0.0,210.0,5.0,0.0
2123,47.0,0.0,210.0,10.0,0.0
2124,45.0,0.0,210.0,7.0,0.0
2125,35.0,216.0,210.0,11.0,0.0
2126,63.0,0.0,210.0,0.0,0.0
2127,66.0,0.0,210.0,0.0,0.0
2128,51.0,0.0,210.0,6.0,0.0
2129,52.0,0.0,180.0,6.0,0.0
2130,52.0,0.0,180.0,5.0,0.0
2131,40.0,0.0,180.0,10.0,0.0
2132,44.0,0.0,180.0,7.0,0.0
2133,64.0,0.0,180.0,0.0,0.0
2134,28.0,0.0,180.0,11.0,0.0
2135,28.0,240.0,180.0,12.0,0.0
2136,52.0,0.0,180.0,10.0,0.0
2137,59.0,120.0,180.0,6.0,0.0
2138,40.0,0.0,180.0,11.0,0.0
2139,56.0,0.0,180.0,7.0,0.0
2140,40.0,0.0,180.0,12.0,0.0
2141,59.0,0.0,60.0,5.0,0.0
2142,59.0,0.0,180.0,6.0,0.0
2143,52.0,0.0,180.0,10.0,0.0
2144,40.0,0.0,180.0,11.0,0.0
2145,61.0,120.0,60.0,5.0,0.0
2146,56.0,0.0,180.0,7.0,0.0
2147,40.0,120.0,180.0,12.0,0.0
2148,63.0,0.0,60.0,5.0,0.0
2149,56.0,120.0,180.0,7.0,0.0
2150,59.0,0.0,180.0,6.0,0.0
2151,52.0,0.0,180.0,10.0,0.0
2152,40.0,0.0,180.0,12.0,0.0
2153,40.0,0.0,180.0,11.0,0.0
2154,64.0,120.0,60.0,5.0,0.0
2155,66.0,0.0,60.0,5.0,0.0
2156,68.0,120.0,60.0,5.0,0.0
2157,59.0,0.0,180.0,6.0,0.0
2158,40.0,0.0,180.0,11.0,0.0
2159,56.0,120.0,180.0,7.0,0.0
2160,52.0,0.0,180.0,10.0,0.0
2161,40.0,0.0,180.0,12.0,0.0
2162,69.0,0.0,60.0,5.0,0.0
2163,56.0,0.0,180.0,7.0,0.0
2164,40.0,240.0,180.0,12.0,0.0
2165,40.0,0.0,180.0,11.0,0.0
2166,71.0,120.0,60.0,5.0,0.0
2167,52.0,0.0,180.0,10.0,0.0
2168,59.0,0.0,180.0,6.0,0.0
2169,73.0,0.0,60.0,5.0,0.0
2170,41.0,0.0,180.0,11.0,0.0
2171,53.0,48.0,180.0,10.0,0.0
2172,71.0,192.0,1440.0,0.0,0.0
2173,41.0,0.0,180.0,12.0,0.0
2174,74.0,0.0,720.0,0.0,0.0
2175,74.0,0.0,180.0,5.0,0.0
2176,56.0,0.0,120.0,7.0,0.0
2177,59.0,120.0,120.0,6.0,0.0
2178,59.0,0.0,120.0,7.0,0.0
2179,62.0,72.0,120.0,6.0,0.0
2180,41.0,0.0,180.0,11.0,0.0
2181,41.0,0.0,180.0,12.0,0.0
2182,53.0,48.0,180.0,10.0,0.0
2183,59.0,0.0,120.0,6.0,0.0
2184,56.0,120.0,120.0,7.0,0.0
2185,41.0,0.0,180.0,12.0,0.0
2186,53.0,0.0,180.0,10.0,0.0
2187,59.0,72.0,120.0,7.0,0.0
2188,62.0,0.0,120.0,6.0,0.0
2189,71.0,192.0,240.0,5.0,0.0
2190,41.0,24.0,180.0,11.0,0.0
2191,59.0,0.0,90.0,6.0,0.0
2192,56.0,24.0,90.0,7.0,0.0
2193,53.0,0.0,180.0,10.0,0.0
2194,68.0,0.0,180.0,5.0,0.0
2195,41.0,48.0,180.0,12.0,0.0
2196,73.0,0.0,900.0,0.0,0.0
2197,41.0,0.0,180.0,11.0,0.0
2198,59.0,120.0,120.0,6.0,0.0
2199,56.0,0.0,120.0,7.0,0.0
2200,59.0,0.0,120.0,7.0,0.0
2201,41.0,0.0,180.0,11.0,0.0
2202,41.0,48.0,180.0,12.0,0.0
2203,61.0,72.0,120.0,6.0,0.0
2204,53.0,0.0,180.0,10.0,0.0
2205,56.0,0.0,120.0,7.0,0.0
2206,59.0,120.0,120.0,6.0,0.0
2207,41.0,0.0,180.0,11.0,0.0
2208,41.0,24.0,180.0,12.0,0.0
2209,53.0,0.0,180.0,10.0,0.0
2210,73.0,0.0,240.0,5.0,0.0
2211,59.0,72.0,120.0,7.0,0.0
2212,61.0,0.0,120.0,6.0,0.0
2213,56.0,0.0,90.0,7.0,0.0
2214,59.0,24.0,90.0,6.0,0.0
2215,54.0,0.0,180.0,7.0,0.0
2216,42.0,0.0,180.0,12.0,0.0
2217,42.0,240.0,180.0,11.0,0.0
2218,58.0,0.0,180.0,6.0,0.0
2219,70.0,0.0,180.0,5.0,0.0
2220,54.0,0.0,180.0,10.0,0.0
2221,70.0,0.0,180.0,0.0,0.0
2222,42.0,0.0,180.0,11.0,0.0
2223,42.0,0.0,180.0,12.0,0.0
2224,54.0,0.0,180.0,10.0,0.0
2225,58.0,120.0,180.0,7.0,0.0
2226,61.0,0.0,180.0,6.0,0.0
2227,61.0,0.0,60.0,5.0,0.0
2228,42.0,0.0,180.0,11.0,0.0
2229,63.0,120.0,60.0,5.0,0.0
2230,61.0,0.0,180.0,6.0,0.0
2231,58.0,0.0,180.0,7.0,0.0
2232,42.0,0.0,180.0,12.0,0.0
2233,54.0,120.0,180.0,10.0,0.0
2234,65.0,0.0,60.0,5.0,0.0
2235,61.0,0.0,180.0,6.0,0.0
2236,58.0,0.0,180.0,7.0,0.0
2237,42.0,0.0,180.0,12.0,0.0
2238,54.0,120.0,180.0,10.0,0.0
2239,42.0,0.0,180.0,11.0,0.0
2240,66.0,120.0,60.0,5.0,0.0
2241,68.0,0.0,60.0,5.0,0.0
2242,61.0,0.0,180.0,6.0,0.0
2243,70.0,120.0,60.0,5.0,0.0
2244,54.0,0.0,180.0,10.0,0.0
2245,58.0,0.0,180.0,7.0,0.0
2246,42.0,0.0,180.0,12.0,0.0
2247,42.0,120.0,180.0,11.0,0.0
2248,71.0,0.0,60.0,5.0,0.0
2249,73.0,120.0,60.0,5.0,0.0
2250,58.0,0.0,180.0,7.0,0.0
2251,54.0,240.0,180.0,10.0,0.0
2252,42.0,0.0,180.0,11.0,0.0
2253,61.0,0.0,180.0,6.0,0.0
2254,42.0,0.0,180.0,12.0,0.0
2255,75.0,0.0,60.0,5.0,0.0
2256,76.0,0.0,180.0,5.0,0.0
2257,73.0,192.0,1440.0,0.0,0.0
2258,55.0,0.0,180.0,10.0,0.0
2259,43.0,0.0,180.0,11.0,0.0
2260,43.0,48.0,180.0,12.0,0.0
2261,76.0,0.0,720.0,0.0,0.0
2262,61.0,120.0,120.0,6.0,0.0
2263,58.0,0.0,120.0,7.0,0.0
2264,43.0,48.0,180.0,11.0,0.0
2265,61.0,72.0,120.0,7.0,0.0
2266,64.0,0.0,120.0,6.0,0.0
2267,55.0,0.0,180.0,10.0,0.0
2268,43.0,0.0,180.0,12.0,0.0
2269,58.0,120.0,120.0,7.0,0.0
2270,61.0,0.0,120.0,6.0,0.0
2271,43.0,0.0,180.0,12.0,0.0
2272,55.0,0.0,180.0,10.0,0.0
2273,61.0,0.0,120.0,7.0,0.0
2274,64.0,72.0,120.0,6.0,0.0
2275,43.0,24.0,180.0,11.0,0.0
2276,73.0,192.0,240.0,5.0,0.0
2277,58.0,0.0,90.0,7.0,0.0
2278,61.0,24.0,90.0,6.0,0.0
2279,55.0,48.0,180.0,10.0,0.0
2280,75.0,0.0,900.0,0.0,0.0
2281,43.0,0.0,180.0,11.0,0.0
2282,70.0,0.0,180.0,5.0,0.0
2283,43.0,0.0,180.0,12.0,0.0
2284,61.0,120.0,120.0,6.0,0.0
2285,58.0,0.0,120.0,7.0,0.0
2286,55.0,0.0,180.0,10.0,0.0
2287,43.0,0.0,180.0,12.0,0.0
2288,61.0,72.0,120.0,7.0,0.0
2289,63.0,0.0,120.0,6.0,0.0
2290,43.0,48.0,180.0,11.0,0.0
2291,58.0,120.0,120.0,7.0,0.0
2292,61.0,0.0,120.0,6.0,0.0
2293,43.0,0.0,180.0,11.0,0.0
2294,63.0,0.0,120.0,6.0,0.0
2295,61.0,72.0,120.0,7.0,0.0
2296,43.0,0.0,180.0,12.0,0.0
2297,75.0,0.0,240.0,5.0,0.0
2298,55.0,24.0,180.0,10.0,0.0
2299,58.0,0.0,90.0,7.0,0.0
2300,61.0,24.0,90.0,6.0,0.0
2301,72.0,0.0,180.0,0.0,0.0
2302,56.0,24.0,1170.0,7.0,0.0
2303,44.0,0.0,180.0,11.0,0.0
2304,56.0,0.0,180.0,10.0,0.0
2305,44.0,48.0,180.0,12.0,0.0
2306,60.0,0.0,240.0,6.0,0.0
2307,72.0,192.0,240.0,5.0,0.0
2308,64.0,72.0,240.0,6.0,0.0
2309,68.0,0.0,240.0,5.0,0.0
2310,32.0,48.0,60.0,12.0,0.0
2311,44.0,0.0,60.0,10.0,0.0
2312,32.0,0.0,60.0,11.0,0.0
2313,46.0,120.0,60.0,10.0,0.0
2314,34.0,0.0,60.0,12.0,0.0
2315,34.0,0.0,60.0,11.0,0.0
2316,66.0,72.0,480.0,5.0,0.0
2317,63.0,0.0,480.0,6.0,0.0
2318,36.0,0.0,60.0,12.0,0.0
2319,36.0,120.0,60.0,11.0,0.0
2320,48.0,0.0,60.0,10.0,0.0
2321,37.0,120.0,60.0,12.0,0.0
2322,37.0,0.0,60.0,11.0,0.0
2323,49.0,0.0,60.0,10.0,0.0
2324,39.0,0.0,60.0,11.0,0.0
2325,39.0,48.0,60.0,12.0,0.0
2326,51.0,0.0,60.0,10.0,0.0
2327,52.0,0.0,60.0,10.0,0.0
2328,40.0,120.0,60.0,12.0,0.0
2329,40.0,0.0,60.0,11.0,0.0
2330,64.0,72.0,240.0,5.0,0.0
2331,61.0,0.0,240.0,6.0,0.0
2332,42.0,0.0,60.0,12.0,0.0
2333,54.0,24.0,60.0,10.0,0.0
2334,42.0,0.0,60.0,11.0,0.0
2335,44.0,120.0,60.0,12.0,0.0
2336,60.0,144.0,480.0,6.0,0.0
2337,54.0,0.0,480.0,7.0,0.0
2338,44.0,0.0,60.0,11.0,0.0
2339,56.0,0.0,60.0,10.0,0.0
2340,63.0,0.0,480.0,5.0,0.0
2341,32.0,0.0,60.0,12.0,0.0
2342,32.0,192.0,60.0,11.0,0.0
2343,44.0,0.0,60.0,10.0,0.0
2344,33.0,0.0,150.0,11.0,0.0
2345,45.0,0.0,150.0,10.0,0.0
2346,33.0,96.0,150.0,12.0,0.0
2347,61.0,144.0,240.0,5.0,0.0
2348,45.0,0.0,150.0,11.0,0.0
2349,57.0,0.0,150.0,10.0,0.0
2350,52.0,0.0,240.0,7.0,0.0
2351,61.0,48.0,180.0,6.0,0.0
2352,45.0,48.0,150.0,12.0,0.0
2353,32.0,48.0,150.0,12.0,0.0
2354,32.0,0.0,150.0,11.0,0.0
2355,61.0,0.0,180.0,6.0,0.0
2356,54.0,528.0,180.0,7.0,0.0
2357,44.0,0.0,150.0,10.0,0.0
2358,63.0,0.0,180.0,5.0,0.0
2359,42.0,0.0,720.0,10.0,0.0
2360,57.0,192.0,720.0,7.0,0.0
2361,63.0,120.0,480.0,5.0,0.0
2362,30.0,0.0,720.0,12.0,0.0
2363,30.0,0.0,720.0,11.0,0.0
2364,61.0,0.0,720.0,6.0,0.0
2365,66.0,96.0,120.0,5.0,0.0
2366,64.0,24.0,90.0,5.0,0.0
2367,32.0,0.0,180.0,11.0,0.0
2368,56.0,24.0,1170.0,7.0,0.0
2369,60.0,0.0,240.0,6.0,0.0
2370,44.0,0.0,180.0,10.0,0.0
2371,32.0,48.0,180.0,12.0,0.0
2372,63.0,192.0,240.0,5.0,0.0
2373,68.0,0.0,240.0,5.0,0.0
2374,76.0,72.0,240.0,0.0,0.0
2375,80.0,0.0,240.0,0.0,0.0
2376,64.0,0.0,240.0,6.0,0.0
2377,32.0,48.0,60.0,11.0,0.0
2378,32.0,0.0,60.0,12.0,0.0
2379,44.0,0.0,60.0,10.0,0.0
2380,46.0,120.0,60.0,10.0,0.0
2381,78.0,0.0,480.0,0.0,0.0
2382,34.0,0.0,60.0,12.0,0.0
2383,66.0,0.0,480.0,5.0,0.0
2384,63.0,72.0,480.0,6.0,0.0
2385,75.0,0.0,480.0,0.0,0.0
2386,34.0,0.0,60.0,11.0,0.0
2387,36.0,0.0,60.0,12.0,0.0
2388,36.0,120.0,60.0,11.0,0.0
2389,48.0,0.0,60.0,10.0,0.0
2390,49.0,0.0,60.0,10.0,0.0
2391,37.0,120.0,60.0,11.0,0.0
2392,37.0,0.0,60.0,12.0,0.0
2393,39.0,0.0,60.0,12.0,0.0
2394,39.0,0.0,60.0,11.0,0.0
2395,51.0,48.0,60.0,10.0,0.0
2396,52.0,0.0,60.0,10.0,0.0
2397,40.0,120.0,60.0,12.0,0.0
2398,61.0,0.0,240.0,6.0,0.0
2399,73.0,0.0,240.0,0.0,0.0
2400,76.0,72.0,240.0,0.0,0.0
2401,40.0,0.0,60.0,11.0,0.0
2402,64.0,0.0,240.0,5.0,0.0
2403,54.0,0.0,60.0,10.0,0.0
2404,42.0,24.0,60.0,12.0,0.0
2405,42.0,0.0,60.0,11.0,0.0
2406,56.0,0.0,60.0,10.0,0.0
2407,60.0,144.0,480.0,6.0,0.0
2408,63.0,0.0,480.0,5.0,0.0
2409,54.0,0.0,480.0,7.0,0.0
2410,75.0,0.0,480.0,0.0,0.0
2411,44.0,120.0,60.0,12.0,0.0
2412,44.0,0.0,60.0,11.0,0.0
2413,72.0,0.0,480.0,0.0,0.0
2414,32.0,0.0,60.0,11.0,0.0
2415,32.0,192.0,60.0,12.0,0.0
2416,44.0,0.0,60.0,10.0,0.0
2417,45.0,0.0,150.0,10.0,0.0
2418,33.0,0.0,150.0,11.0,0.0
2419,33.0,96.0,150.0,12.0,0.0
2420,57.0,48.0,150.0,10.0,0.0
2421,45.0,0.0,150.0,11.0,0.0
2422,45.0,0.0,150.0,12.0,0.0
2423,61.0,48.0,180.0,6.0,0.0
2424,61.0,144.0,240.0,5.0,0.0
2425,52.0,0.0,240.0,7.0,0.0
2426,63.0,432.0,180.0,5.0,0.0
2427,61.0,0.0,180.0,6.0,0.0
2428,44.0,48.0,150.0,10.0,0.0
2429,54.0,0.0,180.0,7.0,0.0
2430,32.0,0.0,150.0,12.0,0.0
2431,73.0,0.0,15.0,0.0,0.0
2432,32.0,0.0,150.0,11.0,0.0
2433,75.0,0.0,180.0,0.0,0.0
2434,58.0,0.0,720.0,7.0,0.0
2435,43.0,0.0,720.0,10.0,0.0
2436,31.0,0.0,720.0,11.0,0.0
2437,75.0,96.0,390.0,0.0,0.0
2438,61.0,24.0,570.0,6.0,0.0
2439,63.0,96.0,480.0,5.0,0.0
2440,31.0,120.0,720.0,12.0,0.0
2441,73.0,24.0,690.0,0.0,0.0
2442,78.0,0.0,90.0,0.0,0.0
2443,66.0,96.0,120.0,5.0,0.0
2444,64.0,0.0,90.0,5.0,0.0
2445,76.0,0.0,90.0,0.0,0.0
2446,51.0,0.0,180.0,7.0,0.0
2447,60.0,0.0,180.0,6.0,0.0
2448,44.0,48.0,180.0,10.0,0.0
2449,75.0,0.0,180.0,0.0,0.0
2450,32.0,0.0,180.0,11.0,0.0
2451,72.0,0.0,180.0,0.0,0.0
2452,63.0,72.0,120.0,5.0,0.0
2453,32.0,0.0,180.0,12.0,0.0
2454,67.0,120.0,120.0,5.0,0.0
2455,68.0,120.0,120.0,5.0,0.0
2456,67.0,120.0,120.0,5.0,0.0
2457,61.0,0.0,240.0,7.0,0.0
2458,64.0,0.0,240.0,6.0,0.0
2459,68.0,120.0,120.0,5.0,0.0
2460,73.0,0.0,240.0,0.0,0.0
2461,76.0,0.0,240.0,0.0,0.0
2462,67.0,120.0,120.0,5.0,0.0
2463,32.0,0.0,180.0,12.0,0.0
2464,75.0,0.0,180.0,0.0,0.0
2465,63.0,0.0,180.0,6.0,0.0
2466,60.0,0.0,180.0,7.0,0.0
2467,72.0,48.0,180.0,0.0,0.0
2468,68.0,72.0,120.0,5.0,0.0
2469,44.0,0.0,180.0,10.0,0.0
2470,32.0,0.0,180.0,11.0,0.0
2471,67.0,120.0,120.0,5.0,0.0
2472,68.0,120.0,120.0,5.0,0.0
2473,67.0,120.0,120.0,5.0,0.0
2474,64.0,0.0,240.0,6.0,0.0
2475,73.0,0.0,180.0,0.0,0.0
2476,76.0,24.0,180.0,0.0,0.0
2477,61.0,96.0,240.0,7.0,0.0
2478,68.0,72.0,120.0,5.0,0.0
2479,67.0,24.0,90.0,5.0,0.0
2480,32.0,0.0,180.0,12.0,0.0
2481,72.0,48.0,180.0,0.0,0.0
2482,75.0,0.0,180.0,0.0,0.0
2483,32.0,0.0,180.0,11.0,0.0
2484,63.0,96.0,90.0,6.0,0.0
2485,68.0,0.0,2880.0,5.0,0.0
2486,44.0,0.0,180.0,10.0,0.0
2487,60.0,0.0,90.0,7.0,0.0
2488,62.0,0.0,120.0,6.0,0.0
2489,59.0,120.0,120.0,7.0,0.0
2490,63.0,0.0,120.0,6.0,0.0
2491,60.0,120.0,120.0,7.0,0.0
2492,59.0,120.0,120.0,7.0,0.0
2493,62.0,0.0,120.0,6.0,0.0
2494,63.0,0.0,120.0,6.0,0.0
2495,60.0,120.0,120.0,7.0,0.0
2496,59.0,72.0,120.0,7.0,0.0
2497,62.0,0.0,120.0,6.0,0.0
2498,63.0,144.0,60.0,6.0,0.0
2499,60.0,0.0,60.0,7.0,0.0
2500,60.0,24.0,90.0,7.0,0.0
2501,64.0,96.0,120.0,6.0,0.0
2502,61.0,24.0,90.0,7.0,0.0
2503,65.0,96.0,120.0,6.0,0.0
2504,60.0,24.0,90.0,7.0,0.0
2505,64.0,96.0,120.0,6.0,0.0
2506,61.0,24.0,90.0,7.0,0.0
2507,65.0,96.0,120.0,6.0,0.0
2508,64.0,72.0,120.0,6.0,0.0
2509,60.0,24.0,90.0,7.0,0.0
2510,65.0,0.0,60.0,6.0,0.0
2511,61.0,168.0,60.0,7.0,0.0
2512,62.0,120.0,120.0,7.0,0.0
2513,65.0,0.0,120.0,6.0,0.0
2514,66.0,0.0,120.0,6.0,0.0
2515,63.0,120.0,120.0,7.0,0.0
2516,65.0,120.0,120.0,6.0,0.0
2517,62.0,0.0,120.0,7.0,0.0
2518,63.0,0.0,120.0,7.0,0.0
2519,66.0,96.0,120.0,6.0,0.0
2520,65.0,264.0,90.0,6.0,0.0
2521,62.0,0.0,90.0,7.0,0.0
2522,66.0,0.0,720.0,6.0,0.0
2523,63.0,0.0,720.0,7.0,0.0
2524,32.0,120.0,120.0,11.0,0.0
2525,32.0,0.0,120.0,12.0,0.0
2526,44.0,0.0,120.0,10.0,0.0
2527,33.0,0.0,120.0,12.0,0.0
2528,45.0,120.0,120.0,10.0,0.0
2529,33.0,0.0,120.0,11.0,0.0
2530,34.0,0.0,120.0,12.0,0.0
2531,34.0,0.0,120.0,11.0,0.0
2532,46.0,120.0,120.0,10.0,0.0
2533,35.0,120.0,120.0,12.0,0.0
2534,35.0,0.0,120.0,11.0,0.0
2535,47.0,0.0,120.0,10.0,0.0
2536,36.0,0.0,120.0,11.0,0.0
2537,48.0,420.0,120.0,10.0,0.0
2538,36.0,0.0,120.0,12.0,0.0
2539,37.0,96.0,390.0,11.0,0.0
2540,68.0,24.0,360.0,5.0,0.0
2541,49.0,0.0,390.0,10.0,0.0
2542,65.0,0.0,360.0,6.0,0.0
2543,61.0,0.0,390.0,7.0,0.0
2544,37.0,0.0,390.0,12.0,0.0
2545,70.0,0.0,120.0,5.0,0.0
2546,66.0,192.0,120.0,6.0,0.0
2547,49.0,0.0,180.0,10.0,0.0
2548,68.0,432.0,180.0,5.0,0.0
2549,65.0,0.0,180.0,6.0,0.0
2550,37.0,0.0,180.0,12.0,0.0
2551,61.0,0.0,180.0,7.0,0.0
2552,37.0,0.0,180.0,11.0,0.0
2553,37.0,96.0,390.0,12.0,0.0
2554,68.0,60.0,480.0,6.0,0.0
2555,61.0,0.0,390.0,7.0,0.0
2556,49.0,0.0,390.0,10.0,0.0
2557,37.0,0.0,390.0,11.0,0.0
2558,77.0,0.0,390.0,5.0,0.0
2559,61.0,0.0,180.0,7.0,0.0
2560,65.0,0.0,180.0,6.0,0.0
2561,37.0,0.0,180.0,12.0,0.0
2562,37.0,36.0,180.0,11.0,0.0
2563,75.0,60.0,60.0,5.0,0.0
2564,49.0,0.0,180.0,10.0,0.0
2565,73.0,60.0,60.0,5.0,0.0
2566,72.0,12.0,60.0,5.0,0.0
2567,70.0,132.0,40.0,5.0,0.0
2568,51.0,48.0,150.0,10.0,0.0
2569,63.0,0.0,150.0,7.0,0.0
2570,39.0,0.0,150.0,12.0,0.0
2571,58.0,0.0,150.0,6.0,0.0
2572,68.0,24.0,120.0,5.0,0.0
2573,39.0,0.0,150.0,11.0,0.0
2574,66.0,192.0,60.0,5.0,0.0
2575,39.0,0.0,240.0,11.0,0.0
2576,39.0,0.0,240.0,12.0,0.0
2577,58.0,144.0,240.0,6.0,0.0
2578,63.0,96.0,150.0,7.0,0.0
2579,66.0,0.0,150.0,5.0,0.0
2580,51.0,0.0,240.0,10.0,0.0
2581,66.0,0.0,150.0,5.0,0.0
2582,37.0,0.0,150.0,11.0,0.0
2583,37.0,240.0,150.0,12.0,0.0
2584,49.0,0.0,150.0,10.0,0.0
2585,57.0,0.0,150.0,6.0,0.0
2586,63.0,0.0,150.0,7.0,0.0
2587,66.0,576.0,150.0,5.0,0.0
2588,36.0,0.0,150.0,12.0,0.0
2589,36.0,0.0,150.0,11.0,0.0
2590,63.0,0.0,150.0,7.0,0.0
2591,56.0,0.0,150.0,6.0,0.0
2592,48.0,0.0,150.0,10.0,0.0
2593,36.0,120.0,240.0,12.0,0.0
2594,63.0,0.0,240.0,6.0,0.0
2595,48.0,0.0,240.0,10.0,0.0
2596,56.0,0.0,420.0,7.0,0.0
2597,36.0,0.0,240.0,11.0,0.0
2598,66.0,72.0,360.0,5.0,0.0
2599,61.0,48.0,180.0,6.0,0.0
2600,49.0,0.0,180.0,10.0,0.0
2601,37.0,0.0,180.0,12.0,0.0
2602,37.0,0.0,180.0,11.0,0.0
2603,63.0,120.0,120.0,5.0,0.0
2604,64.0,120.0,120.0,5.0,0.0
2605,65.0,120.0,120.0,5.0,0.0
2606,58.0,24.0,180.0,7.0,0.0
2607,46.0,0.0,180.0,10.0,0.0
2608,34.0,0.0,180.0,12.0,0.0
2609,66.0,72.0,120.0,5.0,0.0
2610,61.0,0.0,180.0,6.0,0.0
2611,34.0,0.0,180.0,11.0,0.0
2612,67.0,144.0,90.0,5.0,0.0
2613,68.0,72.0,120.0,5.0,0.0
2614,61.0,72.0,360.0,6.0,0.0
2615,41.0,48.0,180.0,10.0,0.0
2616,59.0,0.0,240.0,7.0,0.0
2617,29.0,0.0,240.0,11.0,0.0
2618,29.0,120.0,240.0,12.0,0.0
2619,69.0,0.0,120.0,5.0,0.0
2620,30.0,0.0,240.0,11.0,0.0
2621,70.0,0.0,120.0,5.0,0.0
2622,42.0,48.0,180.0,10.0,0.0
2623,58.0,0.0,180.0,7.0,0.0
2624,30.0,0.0,240.0,12.0,0.0
2625,62.0,120.0,120.0,6.0,0.0
2626,65.0,0.0,120.0,5.0,0.0
2627,39.0,0.0,180.0,10.0,0.0
2628,66.0,72.0,120.0,5.0,0.0
2629,58.0,0.0,180.0,7.0,0.0
2630,27.0,0.0,180.0,11.0,0.0
2631,27.0,24.0,180.0,12.0,0.0
2632,63.0,0.0,120.0,6.0,0.0
2633,63.0,0.0,90.0,5.0,0.0
2634,54.0,144.0,90.0,6.0,0.0
2635,56.0,60.0,480.0,7.0,0.0
2636,32.0,240.0,900.0,11.0,0.0
2637,53.0,120.0,120.0,6.0,0.0
2638,44.0,0.0,900.0,10.0,0.0
2639,32.0,0.0,900.0,12.0,0.0
2640,61.0,0.0,480.0,5.0,0.0
2641,51.0,120.0,120.0,6.0,0.0
2642,52.0,120.0,120.0,6.0,0.0
2643,53.0,0.0,120.0,6.0,0.0
2644,54.0,60.0,120.0,6.0,0.0
2645,58.0,192.0,240.0,7.0,0.0
2646,60.0,60.0,60.0,5.0,0.0
2647,61.0,0.0,60.0,5.0,0.0
2648,55.0,0.0,120.0,6.0,0.0
2649,63.0,60.0,60.0,5.0,0.0
2650,61.0,0.0,60.0,5.0,0.0
2651,60.0,0.0,180.0,5.0,0.0
2652,56.0,0.0,180.0,6.0,0.0
2653,51.0,0.0,180.0,7.0,0.0
2654,44.0,0.0,180.0,2.0,0.0
2655,56.0,240.0,180.0,2.0,0.0
2656,44.0,168.0,180.0,2.0,0.0
2657,56.0,0.0,180.0,2.0,0.0
2658,56.0,48.0,1620.0,2.0,0.0
2659,72.0,0.0,1440.0,0.0,0.0
2660,44.0,48.0,390.0,4.0,0.0
2661,54.0,0.0,1440.0,1.0,0.0
2662,60.0,0.0,1440.0,1.0,0.0
2663,78.0,0.0,480.0,5.0,0.0
2664,60.0,72.0,120.0,6.0,0.0
2665,44.0,0.0,1620.0,2.0,0.0
2666,56.0,0.0,2820.0,3.0,0.0
2667,66.0,0.0,1440.0,0.0,0.0
2668,51.0,0.0,1440.0,7.0,0.0
2669,54.0,120.0,1440.0,7.0,0.0
2670,32.0,48.0,180.0,14.0,0.0
2671,44.0,0.0,180.0,14.0,0.0
2672,68.0,0.0,2820.0,3.0,0.0
2673,56.0,120.0,120.0,6.0,0.0
2674,36.0,0.0,180.0,14.0,0.0
2675,48.0,48.0,180.0,14.0,0.0
2676,54.0,24.0,120.0,6.0,0.0
2677,56.0,60.0,120.0,6.0,0.0
2678,51.0,0.0,180.0,14.0,0.0
2679,60.0,60.0,120.0,6.0,0.0
2680,39.0,24.0,180.0,14.0,0.0
2681,77.0,60.0,60.0,5.0,0.0
2682,75.0,0.0,60.0,5.0,0.0
2683,73.0,12.0,60.0,5.0,0.0
2684,56.0,12.0,90.0,6.0,0.0
2685,72.0,132.0,40.0,5.0,0.0
2686,60.0,72.0,120.0,6.0,0.0
2687,44.0,0.0,180.0,14.0,0.0
2688,70.0,0.0,120.0,5.0,0.0
2689,56.0,24.0,180.0,14.0,0.0
2690,68.0,24.0,90.0,5.0,0.0
2691,56.0,120.0,120.0,6.0,0.0
2692,44.0,48.0,180.0,4.0,0.0
2693,68.0,48.0,150.0,5.0,0.0
2694,54.0,24.0,120.0,6.0,0.0
2695,56.0,120.0,120.0,6.0,0.0
2696,60.0,24.0,120.0,6.0,0.0
2697,44.0,24.0,180.0,4.0,0.0
2698,68.0,48.0,150.0,5.0,0.0
2699,56.0,24.0,90.0,6.0,0.0
2700,68.0,120.0,240.0,5.0,0.0
2701,37.0,0.0,180.0,14.0,0.0
2702,53.0,0.0,1380.0,1.0,0.0
2703,61.0,0.0,1380.0,1.0,0.0
2704,49.0,0.0,180.0,14.0,0.0
2705,44.0,48.0,390.0,4.0,0.0
2706,73.0,0.0,1380.0,0.0,0.0
2707,65.0,24.0,1380.0,0.0,0.0
2708,61.0,72.0,120.0,6.0,0.0
2709,53.0,0.0,1380.0,7.0,0.0
2710,49.0,0.0,1380.0,7.0,0.0
2711,56.0,0.0,120.0,6.0,0.0
2712,49.0,48.0,180.0,2.0,0.0
2713,44.0,0.0,180.0,14.0,0.0
2714,32.0,0.0,180.0,14.0,0.0
2715,61.0,0.0,180.0,2.0,0.0
2716,73.0,0.0,240.0,5.0,0.0
2717,53.0,24.0,120.0,6.0,0.0
2718,56.0,120.0,120.0,6.0,0.0
2719,41.0,0.0,180.0,14.0,0.0
2720,29.0,0.0,180.0,14.0,0.0
2721,77.0,120.0,240.0,5.0,0.0
2722,61.0,72.0,120.0,6.0,0.0
2723,53.0,0.0,180.0,2.0,0.0
2724,65.0,24.0,180.0,2.0,0.0
2725,56.0,24.0,90.0,6.0,0.0
2726,65.0,72.0,120.0,6.0,0.0
2727,37.0,0.0,180.0,14.0,0.0
2728,68.0,0.0,180.0,2.0,0.0
2729,25.0,48.0,180.0,14.0,0.0
2730,80.0,0.0,180.0,5.0,0.0
2731,56.0,0.0,180.0,2.0,0.0
2732,61.0,120.0,120.0,6.0,0.0
2733,44.0,0.0,180.0,4.0,0.0
2734,56.0,72.0,120.0,6.0,0.0
2735,53.0,48.0,180.0,2.0,0.0
2736,65.0,0.0,180.0,2.0,0.0
2737,61.0,120.0,120.0,6.0,0.0
2738,65.0,48.0,120.0,6.0,0.0
2739,44.0,0.0,180.0,4.0,0.0
2740,61.0,24.0,180.0,2.0,0.0
2741,49.0,0.0,180.0,2.0,0.0
2742,61.0,144.0,90.0,6.0,0.0
2743,60.0,72.0,120.0,6.0,0.0
2744,32.0,0.0,180.0,14.0,0.0
2745,44.0,48.0,180.0,14.0,0.0
2746,78.0,24.0,360.0,5.0,0.0
2747,56.0,0.0,2820.0,3.0,0.0
2748,68.0,0.0,2820.0,3.0,0.0
2749,54.0,0.0,1440.0,7.0,0.0
2750,44.0,36.0,390.0,4.0,0.0
2751,60.0,0.0,1440.0,1.0,0.0
2752,54.0,0.0,1440.0,1.0,0.0
2753,44.0,48.0,1620.0,2.0,0.0
2754,56.0,0.0,1620.0,2.0,0.0
2755,66.0,0.0,1440.0,0.0,0.0
2756,72.0,0.0,1440.0,0.0,0.0
2757,51.0,72.0,1440.0,7.0,0.0
2758,56.0,120.0,120.0,6.0,0.0
2759,48.0,48.0,180.0,14.0,0.0
2760,36.0,0.0,180.0,14.0,0.0
2761,54.0,0.0,120.0,6.0,0.0
2762,56.0,0.0,120.0,6.0,0.0
2763,80.0,12.0,60.0,5.0,0.0
2764,78.0,60.0,60.0,5.0,0.0
2765,39.0,24.0,180.0,14.0,0.0
2766,51.0,0.0,180.0,14.0,0.0
2767,60.0,0.0,120.0,6.0,0.0
2768,77.0,60.0,60.0,5.0,0.0
2769,75.0,60.0,60.0,5.0,0.0
2770,73.0,12.0,60.0,5.0,0.0
2771,56.0,12.0,90.0,6.0,0.0
2772,72.0,132.0,40.0,5.0,0.0
2773,44.0,24.0,180.0,14.0,0.0
2774,60.0,0.0,120.0,6.0,0.0
2775,70.0,72.0,120.0,5.0,0.0
2776,56.0,0.0,180.0,14.0,0.0
2777,56.0,120.0,120.0,6.0,0.0
2778,68.0,24.0,90.0,5.0,0.0
2779,44.0,48.0,180.0,4.0,0.0
2780,68.0,48.0,150.0,5.0,0.0
2781,54.0,24.0,120.0,6.0,0.0
2782,56.0,120.0,120.0,6.0,0.0
2783,60.0,24.0,120.0,6.0,0.0
2784,68.0,48.0,150.0,5.0,0.0
2785,44.0,24.0,180.0,4.0,0.0
2786,56.0,24.0,90.0,6.0,0.0
2787,61.0,72.0,120.0,6.0,0.0
2788,49.0,0.0,180.0,14.0,0.0
2789,37.0,0.0,180.0,14.0,0.0
2790,68.0,48.0,60.0,5.0,0.0
2791,44.0,48.0,390.0,4.0,0.0
2792,61.0,0.0,1380.0,1.0,0.0
2793,53.0,0.0,1380.0,1.0,0.0
2794,65.0,0.0,1380.0,0.0,0.0
2795,53.0,24.0,1380.0,7.0,0.0
2796,49.0,0.0,1380.0,7.0,0.0
2797,73.0,0.0,1380.0,0.0,0.0
2798,56.0,72.0,120.0,6.0,0.0
2799,68.0,0.0,60.0,5.0,0.0
2800,44.0,0.0,180.0,14.0,0.0
2801,32.0,0.0,180.0,14.0,0.0
2802,49.0,0.0,180.0,2.0,0.0
2803,61.0,48.0,180.0,2.0,0.0
2804,53.0,24.0,120.0,6.0,0.0
2805,73.0,48.0,60.0,5.0,0.0
2806,73.0,0.0,60.0,5.0,0.0
2807,56.0,72.0,120.0,6.0,0.0
2808,77.0,48.0,60.0,5.0,0.0
2809,61.0,72.0,120.0,6.0,0.0
2810,65.0,0.0,180.0,2.0,0.0
2811,41.0,0.0,180.0,14.0,0.0
2812,29.0,24.0,180.0,14.0,0.0
2813,53.0,0.0,180.0,2.0,0.0
2814,77.0,0.0,60.0,5.0,0.0
2815,56.0,144.0,90.0,6.0,0.0
2816,37.0,0.0,180.0,14.0,0.0
2817,25.0,0.0,180.0,14.0,0.0
2818,56.0,0.0,180.0,2.0,0.0
2819,65.0,72.0,120.0,6.0,0.0
2820,68.0,48.0,180.0,2.0,0.0
2821,80.0,0.0,180.0,5.0,0.0
2822,61.0,120.0,120.0,6.0,0.0
2823,65.0,48.0,180.0,2.0,0.0
2824,53.0,0.0,180.0,2.0,0.0
2825,56.0,72.0,120.0,6.0,0.0
2826,61.0,120.0,120.0,6.0,0.0
2827,61.0,24.0,180.0,2.0,0.0
2828,65.0,48.0,120.0,6.0,0.0
2829,49.0,0.0,180.0,2.0,0.0
2830,68.0,384.0,90.0,6.0,0.0
2831,61.0,240.0,720.0,7.0,0.0
2832,54.0,0.0,720.0,1.0,0.0
2833,54.0,0.0,720.0,10.0,0.0
2834,42.0,0.0,720.0,11.0,0.0
2835,42.0,0.0,720.0,12.0,0.0
2836,68.0,0.0,720.0,6.0,0.0
2837,70.0,120.0,360.0,5.0,0.0
2838,71.0,228.0,120.0,5.0,0.0
2839,70.0,12.0,240.0,5.0,0.0
2840,51.0,24.0,690.0,1.0,0.0
2841,51.0,0.0,690.0,10.0,0.0
2842,70.0,240.0,240.0,5.0,0.0
2843,39.0,0.0,690.0,12.0,0.0
2844,66.0,0.0,690.0,6.0,0.0
2845,39.0,0.0,690.0,11.0,0.0
2846,63.0,0.0,690.0,7.0,0.0
2847,66.0,204.0,240.0,5.0,0.0
2848,70.0,204.0,240.0,5.0,0.0
2849,70.0,144.0,240.0,5.0,0.0
2850,63.0,0.0,720.0,2.0,0.0
2851,66.0,48.0,180.0,6.0,0.0
2852,78.0,0.0,720.0,0.0,0.0
2853,75.0,0.0,720.0,0.0,0.0
2854,56.0,120.0,720.0,2.0,0.0
2855,48.0,0.0,720.0,10.0,0.0
2856,48.0,0.0,720.0,1.0,0.0
2857,36.0,0.0,720.0,11.0,0.0
2858,36.0,0.0,720.0,12.0,0.0
2859,63.0,0.0,180.0,7.0,0.0
2860,66.0,0.0,180.0,6.0,0.0
2861,68.0,48.0,150.0,5.0,0.0
2862,63.0,192.0,180.0,7.0,0.0
2863,68.0,48.0,150.0,5.0,0.0
2864,66.0,0.0,180.0,6.0,0.0
2865,63.0,48.0,180.0,7.0,0.0
2866,61.0,0.0,180.0,2.0,0.0
2867,37.0,0.0,180.0,12.0,0.0
2868,68.0,72.0,120.0,5.0,0.0
2869,49.0,0.0,180.0,10.0,0.0
2870,77.0,0.0,180.0,0.0,0.0
2871,73.0,48.0,180.0,0.0,0.0
2872,65.0,0.0,180.0,6.0,0.0
2873,61.0,0.0,180.0,7.0,0.0
2874,65.0,0.0,180.0,2.0,0.0
2875,37.0,0.0,180.0,11.0,0.0
2876,49.0,0.0,180.0,1.0,0.0
2877,69.0,120.0,120.0,5.0,0.0
2878,70.0,120.0,120.0,5.0,0.0
2879,71.0,120.0,120.0,5.0,0.0
2880,72.0,96.0,120.0,5.0,0.0
2881,73.0,144.0,90.0,5.0,0.0
2882,44.0,48.0,180.0,1.0,0.0
2883,32.0,0.0,180.0,11.0,0.0
2884,53.0,120.0,720.0,2.0,0.0
2885,61.0,0.0,1200.0,2.0,0.0
2886,53.0,72.0,120.0,6.0,0.0
2887,44.0,48.0,1110.0,7.0,0.0
2888,56.0,0.0,1110.0,7.0,0.0
2889,73.0,0.0,1200.0,0.0,0.0
2890,44.0,0.0,180.0,10.0,0.0
2891,32.0,0.0,180.0,12.0,0.0
2892,68.0,0.0,1590.0,3.0,0.0
2893,61.0,120.0,1200.0,5.0,0.0
2894,56.0,0.0,1590.0,3.0,0.0
2895,56.0,120.0,120.0,6.0,0.0
2896,44.0,0.0,180.0,10.0,0.0
2897,44.0,0.0,180.0,1.0,0.0
2898,53.0,72.0,120.0,6.0,0.0
2899,32.0,0.0,180.0,12.0,0.0
2900,32.0,48.0,180.0,11.0,0.0
2901,56.0,120.0,120.0,6.0,0.0
2902,44.0,0.0,180.0,10.0,0.0
2903,53.0,72.0,120.0,6.0,0.0
2904,32.0,0.0,180.0,12.0,0.0
2905,32.0,24.0,180.0,11.0,0.0
2906,44.0,0.0,180.0,1.0,0.0
2907,56.0,24.0,90.0,6.0,0.0
2908,56.0,168.0,690.0,2.0,0.0
2909,32.0,0.0,180.0,12.0,0.0
2910,44.0,48.0,180.0,10.0,0.0
2911,44.0,0.0,180.0,1.0,0.0
2912,32.0,0.0,180.0,11.0,0.0
2913,54.0,72.0,120.0,6.0,0.0
2914,56.0,120.0,120.0,6.0,0.0
2915,54.0,24.0,120.0,6.0,0.0
2916,44.0,0.0,180.0,10.0,0.0
2917,32.0,48.0,180.0,11.0,0.0
2918,32.0,0.0,180.0,12.0,0.0
2919,44.0,0.0,180.0,1.0,0.0
2920,56.0,0.0,120.0,6.0,0.0
2921,60.0,0.0,180.0,7.0,0.0
2922,65.0,0.0,120.0,5.0,0.0
2923,65.0,72.0,120.0,2.0,0.0
2924,77.0,0.0,120.0,0.0,0.0
2925,72.0,0.0,210.0,0.0,0.0
2926,32.0,0.0,180.0,12.0,0.0
2927,44.0,24.0,180.0,10.0,0.0
2928,54.0,0.0,120.0,6.0,0.0
2929,44.0,0.0,180.0,1.0,0.0
2930,32.0,0.0,180.0,11.0,0.0
2931,56.0,0.0,90.0,6.0,0.0
2932,63.0,0.0,90.0,5.0,0.0
2933,75.0,0.0,90.0,0.0,0.0
2934,63.0,0.0,90.0,2.0,0.0
2935,53.0,0.0,150.0,2.0,0.0
2936,53.0,240.0,150.0,6.0,0.0
2937,61.0,0.0,150.0,5.0,0.0
2938,37.0,0.0,150.0,11.0,0.0
2939,61.0,0.0,150.0,7.0,0.0
2940,49.0,0.0,150.0,10.0,0.0
2941,49.0,0.0,150.0,1.0,0.0
2942,37.0,0.0,150.0,12.0,0.0
2943,61.0,0.0,150.0,2.0,0.0
2944,73.0,0.0,150.0,0.0,0.0
2945,68.0,0.0,150.0,3.0,0.0
2946,56.0,0.0,150.0,3.0,0.0
2947,37.0,0.0,150.0,11.0,0.0
2948,56.0,0.0,150.0,5.0,0.0
2949,68.0,0.0,150.0,0.0,0.0
2950,65.0,0.0,150.0,0.0,0.0
2951,49.0,0.0,150.0,1.0,0.0
2952,53.0,0.0,150.0,7.0,0.0
2953,37.0,0.0,150.0,12.0,0.0
2954,49.0,0.0,150.0,10.0,0.0
2955,49.0,0.0,150.0,2.0,0.0
2956,53.0,0.0,150.0,2.0,0.0
2957,56.0,240.0,150.0,6.0,0.0
2958,53.0,0.0,150.0,2.0,0.0
2959,56.0,0.0,150.0,3.0,0.0
2960,53.0,0.0,150.0,7.0,0.0
2961,68.0,0.0,150.0,3.0,0.0
2962,49.0,0.0,150.0,2.0,0.0
2963,37.0,240.0,150.0,11.0,0.0
2964,49.0,0.0,150.0,1.0,0.0
2965,56.0,0.0,150.0,6.0,0.0
2966,68.0,0.0,150.0,0.0,0.0
2967,49.0,0.0,150.0,10.0,0.0
2968,77.0,0.0,150.0,0.0,0.0
2969,65.0,0.0,150.0,5.0,0.0
2970,37.0,0.0,150.0,12.0,0.0
2971,53.0,0.0,150.0,7.0,0.0
2972,56.0,0.0,150.0,3.0,0.0
2973,37.0,720.0,150.0,12.0,0.0
2974,68.0,0.0,150.0,3.0,0.0
2975,49.0,0.0,150.0,1.0,0.0
2976,53.0,0.0,150.0,2.0,0.0
2977,61.0,0.0,150.0,5.0,0.0
2978,49.0,0.0,150.0,10.0,0.0
2979,56.0,0.0,150.0,6.0,0.0
2980,73.0,0.0,150.0,0.0,0.0
2981,65.0,0.0,150.0,0.0,0.0
2982,49.0,0.0,150.0,2.0,0.0
2983,37.0,0.0,150.0,11.0,0.0
2984,47.0,240.0,150.0,10.0,0.0
2985,68.0,0.0,150.0,5.0,0.0
2986,35.0,0.0,150.0,11.0,0.0
2987,63.0,0.0,150.0,6.0,0.0
2988,59.0,0.0,150.0,7.0,0.0
2989,35.0,0.0,150.0,12.0,0.0
2990,35.0,240.0,150.0,12.0,0.0
2991,35.0,0.0,150.0,11.0,0.0
2992,47.0,0.0,150.0,10.0,0.0
2993,63.0,0.0,150.0,6.0,0.0
2994,59.0,0.0,150.0,7.0,0.0
2995,63.0,0.0,150.0,5.0,0.0
2996,35.0,0.0,150.0,12.0,0.0
2997,35.0,0.0,150.0,11.0,0.0
2998,71.0,0.0,150.0,5.0,0.0
2999,63.0,240.0,150.0,6.0,0.0
3000,47.0,0.0,150.0,10.0,0.0
3001,59.0,0.0,150.0,7.0,0.0
3002,35.0,0.0,150.0,11.0,0.0
3003,68.0,0.0,150.0,5.0,0.0
3004,35.0,0.0,150.0,12.0,0.0
3005,47.0,0.0,150.0,10.0,0.0
3006,63.0,0.0,150.0,6.0,0.0
3007,59.0,720.0,150.0,7.0,0.0
3008,46.0,0.0,150.0,1.0,0.0
3009,46.0,0.0,150.0,10.0,0.0
3010,68.0,0.0,150.0,6.0,0.0
3011,58.0,0.0,150.0,7.0,0.0
3012,77.0,0.0,150.0,0.0,0.0
3013,34.0,0.0,150.0,12.0,0.0
3014,80.0,0.0,150.0,0.0,0.0
3015,74.0,0.0,150.0,5.0,0.0
3016,65.0,0.0,150.0,7.0,0.0
3017,34.0,240.0,150.0,11.0,0.0
3018,34.0,0.0,150.0,11.0,0.0
3019,34.0,0.0,150.0,12.0,0.0
3020,80.0,0.0,150.0,0.0,0.0
3021,46.0,0.0,150.0,1.0,0.0
3022,46.0,0.0,150.0,10.0,0.0
3023,65.0,0.0,150.0,7.0,0.0
3024,58.0,0.0,150.0,7.0,0.0
3025,77.0,0.0,150.0,0.0,0.0
3026,68.0,240.0,150.0,6.0,0.0
3027,68.0,0.0,150.0,5.0,0.0
3028,77.0,0.0,150.0,0.0,0.0
3029,80.0,0.0,150.0,0.0,0.0
3030,34.0,0.0,150.0,11.0,0.0
3031,77.0,240.0,150.0,5.0,0.0
3032,68.0,0.0,150.0,6.0,0.0
3033,65.0,0.0,150.0,7.0,0.0
3034,58.0,0.0,150.0,7.0,0.0
3035,46.0,0.0,150.0,1.0,0.0
3036,46.0,0.0,150.0,10.0,0.0
3037,34.0,0.0,150.0,12.0,0.0
3038,74.0,0.0,150.0,5.0,0.0
3039,80.0,256.0,150.0,0.0,0.0
3040,46.0,0.0,150.0,10.0,0.0
3041,34.0,0.0,150.0,11.0,0.0
3042,34.0,0.0,150.0,12.0,0.0
3043,46.0,0.0,150.0,1.0,0.0
3044,68.0,0.0,150.0,6.0,0.0
3045,77.0,0.0,150.0,0.0,0.0
3046,65.0,0.0,150.0,7.0,0.0
3047,58.0,0.0,150.0,7.0,0.0
3048,68.0,80.0,90.0,5.0,0.0
3049,67.0,80.0,90.0,5.0,0.0
3050,68.0,80.0,90.0,5.0,0.0
3051,71.0,80.0,90.0,5.0,0.0
3052,68.0,192.0,90.0,5.0,0.0
3053,67.0,208.0,180.0,5.0,0.0
3054,39.0,0.0,180.0,12.0,0.0
3055,39.0,0.0,180.0,11.0,0.0
3056,51.0,0.0,180.0,10.0,0.0
3057,63.0,0.0,180.0,6.0,0.0
3058,58.0,48.0,180.0,7.0,0.0
3059,66.0,32.0,90.0,5.0,0.0
3060,65.0,80.0,90.0,5.0,0.0
3061,66.0,80.0,90.0,5.0,0.0
3062,70.0,80.0,90.0,5.0,0.0
3063,66.0,192.0,90.0,5.0,0.0
3064,75.0,208.0,180.0,5.0,0.0
3065,36.0,0.0,180.0,12.0,0.0
3066,48.0,0.0,180.0,10.0,0.0
3067,36.0,0.0,180.0,11.0,0.0
3068,54.0,0.0,180.0,7.0,0.0
3069,63.0,48.0,180.0,6.0,0.0
3070,66.0,32.0,90.0,5.0,0.0
3071,65.0,80.0,90.0,5.0,0.0
3072,66.0,80.0,90.0,5.0,0.0
3073,70.0,80.0,90.0,5.0,0.0
3074,66.0,192.0,90.0,5.0,0.0
3075,65.0,208.0,180.0,5.0,0.0
3076,49.0,0.0,180.0,10.0,0.0
3077,61.0,48.0,180.0,6.0,0.0
3078,37.0,0.0,180.0,12.0,0.0
3079,37.0,0.0,180.0,11.0,0.0
3080,56.0,0.0,180.0,7.0,0.0
3081,61.0,32.0,90.0,5.0,0.0
3082,60.0,80.0,90.0,5.0,0.0
3083,61.0,80.0,90.0,5.0,0.0
3084,65.0,64.0,90.0,5.0,0.0
3085,61.0,196.0,60.0,5.0,0.0
3086,73.0,220.0,180.0,5.0,0.0
3087,73.0,60.0,180.0,5.0,0.0
3088,34.0,20.0,90.0,11.0,0.0
3089,61.0,0.0,90.0,6.0,0.0
3090,34.0,0.0,90.0,12.0,0.0
3091,58.0,0.0,90.0,7.0,0.0
3092,46.0,0.0,90.0,10.0,0.0
3093,45.0,0.0,90.0,10.0,0.0
3094,60.0,80.0,90.0,6.0,0.0
3095,57.0,0.0,90.0,7.0,0.0
3096,33.0,0.0,90.0,11.0,0.0
3097,33.0,0.0,90.0,12.0,0.0
3098,73.0,44.0,180.0,5.0,0.0
3099,46.0,0.0,90.0,10.0,0.0
3100,34.0,0.0,90.0,12.0,0.0
3101,58.0,0.0,90.0,7.0,0.0
3102,34.0,0.0,90.0,11.0,0.0
3103,61.0,80.0,90.0,6.0,0.0
3104,37.0,0.0,90.0,12.0,0.0
3105,49.0,0.0,90.0,10.0,0.0
3106,65.0,20.0,90.0,6.0,0.0
3107,61.0,0.0,90.0,7.0,0.0
3108,37.0,0.0,90.0,11.0,0.0
3109,34.0,0.0,60.0,11.0,0.0
3110,46.0,0.0,60.0,10.0,0.0
3111,58.0,256.0,60.0,7.0,0.0
3112,34.0,0.0,60.0,12.0,0.0
3113,61.0,0.0,60.0,6.0,0.0
3114,73.0,240.0,240.0,5.0,0.0
3115,30.0,24.0,1170.0,11.0,0.0
3116,42.0,0.0,1170.0,10.0,0.0
3117,70.0,0.0,240.0,6.0,0.0
3118,30.0,0.0,1170.0,12.0,0.0
3119,54.0,0.0,720.0,7.0,0.0
3120,68.0,0.0,240.0,6.0,0.0
3121,72.0,240.0,240.0,5.0,0.0
3122,66.0,0.0,240.0,6.0,0.0
3123,70.0,240.0,240.0,5.0,0.0
3124,58.0,24.0,690.0,7.0,0.0
3125,65.0,0.0,240.0,6.0,0.0
3126,68.0,216.0,240.0,5.0,0.0
3127,63.0,192.0,240.0,6.0,0.0
3128,66.0,0.0,240.0,5.0,0.0
3129,65.0,132.0,240.0,5.0,0.0
3130,43.0,12.0,180.0,10.0,0.0
3131,31.0,0.0,180.0,12.0,0.0
3132,31.0,0.0,180.0,11.0,0.0
3133,61.0,0.0,240.0,6.0,0.0
3134,65.0,0.0,120.0,6.0,0.0
3135,68.0,60.0,120.0,5.0,0.0
3136,32.0,0.0,570.0,12.0,0.0
3137,56.0,60.0,180.0,7.0,0.0
3138,44.0,84.0,570.0,10.0,0.0
3139,32.0,0.0,570.0,11.0,0.0
3140,64.0,120.0,120.0,6.0,0.0
3141,67.0,0.0,120.0,5.0,0.0
3142,68.0,60.0,120.0,5.0,0.0
3143,65.0,0.0,120.0,6.0,0.0
3144,56.0,60.0,180.0,7.0,0.0
3145,61.0,0.0,120.0,6.0,0.0
3146,65.0,96.0,120.0,5.0,0.0
3147,63.0,0.0,180.0,5.0,0.0
3148,56.0,12.0,180.0,7.0,0.0
3149,60.0,504.0,180.0,6.0,0.0
3150,56.0,0.0,450.0,3.0,0.0
3151,56.0,12.0,2100.0,7.0,0.0
3152,68.0,0.0,450.0,3.0,0.0
3153,44.0,0.0,450.0,2.0,0.0
3154,56.0,0.0,450.0,2.0,0.0
3155,68.0,84.0,450.0,0.0,0.0
3156,44.0,0.0,450.0,4.0,0.0
3157,30.0,0.0,180.0,12.0,0.0
3158,30.0,0.0,180.0,11.0,0.0
3159,68.0,60.0,60.0,5.0,0.0
3160,60.0,0.0,180.0,6.0,0.0
3161,42.0,36.0,180.0,10.0,0.0
3162,66.0,60.0,60.0,5.0,0.0
3163,65.0,12.0,60.0,5.0,0.0
3164,63.0,252.0,40.0,5.0,0.0
3165,41.0,0.0,240.0,10.0,0.0
3166,29.0,0.0,240.0,12.0,0.0
3167,61.0,60.0,360.0,5.0,0.0
3168,29.0,120.0,240.0,11.0,0.0
3169,61.0,0.0,480.0,6.0,0.0
3170,25.0,0.0,180.0,11.0,0.0
3171,25.0,0.0,180.0,12.0,0.0
3172,37.0,48.0,180.0,10.0,0.0
3173,63.0,12.0,60.0,5.0,0.0
3174,65.0,168.0,60.0,5.0,0.0
3175,32.0,0.0,180.0,11.0,0.0
3176,63.0,0.0,180.0,5.0,0.0
3177,60.0,504.0,180.0,6.0,0.0
3178,32.0,0.0,180.0,12.0,0.0
3179,44.0,24.0,180.0,10.0,0.0
3180,68.0,0.0,450.0,0.0,0.0
3181,44.0,0.0,450.0,2.0,0.0
3182,44.0,84.0,450.0,4.0,0.0
3183,56.0,0.0,450.0,3.0,0.0
3184,68.0,0.0,450.0,3.0,0.0
3185,56.0,0.0,450.0,2.0,0.0
3186,42.0,0.0,180.0,12.0,0.0
3187,72.0,0.0,180.0,6.0,0.0
3188,42.0,36.0,180.0,11.0,0.0
3189,54.0,0.0,180.0,10.0,0.0
3190,80.0,60.0,60.0,5.0,0.0
3191,78.0,48.0,60.0,5.0,0.0
3192,77.0,12.0,60.0,5.0,0.0
3193,75.0,252.0,40.0,5.0,0.0
3194,41.0,0.0,240.0,11.0,0.0
3195,73.0,60.0,360.0,5.0,0.0
3196,41.0,0.0,240.0,12.0,0.0
3197,53.0,120.0,240.0,10.0,0.0
3198,68.0,72.0,570.0,7.0,0.0
3199,73.0,0.0,480.0,6.0,0.0
3200,49.0,0.0,180.0,10.0,0.0
3201,37.0,48.0,180.0,11.0,0.0
3202,37.0,0.0,180.0,12.0,0.0
3203,75.0,12.0,60.0,5.0,0.0
3204,77.0,96.0,60.0,5.0,0.0
3205,44.0,0.0,180.0,11.0,0.0
3206,56.0,0.0,180.0,10.0,0.0
3207,44.0,24.0,180.0,12.0,0.0
3208,75.0,0.0,180.0,5.0,0.0
3209,72.0,216.0,180.0,6.0,0.0
3210,68.0,240.0,180.0,5.0,0.0
3211,68.0,240.0,180.0,5.0,0.0
3212,68.0,192.0,180.0,5.0,0.0
3213,49.0,0.0,180.0,2.0,0.0
3214,68.0,0.0,480.0,5.0,0.0
3215,29.0,0.0,180.0,11.0,0.0
3216,29.0,48.0,180.0,12.0,0.0
3217,41.0,0.0,180.0,10.0,0.0
3218,41.0,0.0,180.0,1.0,0.0
3219,61.0,0.0,180.0,2.0,0.0
3220,73.0,0.0,1440.0,0.0,0.0
3221,53.0,0.0,180.0,7.0,0.0
3222,56.0,72.0,120.0,6.0,0.0
3223,68.0,60.0,720.0,0.0,0.0
3224,61.0,120.0,120.0,6.0,0.0
3225,41.0,0.0,180.0,11.0,0.0
3226,56.0,72.0,120.0,6.0,0.0
3227,53.0,48.0,180.0,7.0,0.0
3228,61.0,0.0,180.0,2.0,0.0
3229,49.0,0.0,180.0,2.0,0.0
3230,53.0,0.0,180.0,10.0,0.0
3231,53.0,0.0,180.0,1.0,0.0
3232,41.0,0.0,180.0,12.0,0.0
3233,61.0,120.0,120.0,6.0,0.0
3234,56.0,72.0,120.0,6.0,0.0
3235,53.0,0.0,180.0,10.0,0.0
3236,73.0,12.0,240.0,5.0,0.0
3237,53.0,0.0,180.0,7.0,0.0
3238,61.0,0.0,180.0,2.0,0.0
3239,49.0,0.0,180.0,2.0,0.0
3240,53.0,24.0,180.0,1.0,0.0
3241,41.0,0.0,180.0,11.0,0.0
3242,41.0,0.0,180.0,12.0,0.0
3243,61.0,12.0,90.0,6.0,0.0
3244,59.0,72.0,120.0,6.0,0.0
3245,53.0,0.0,180.0,10.0,0.0
3246,61.0,0.0,180.0,2.0,0.0
3247,49.0,0.0,180.0,2.0,0.0
3248,41.0,12.0,180.0,11.0,0.0
3249,53.0,0.0,180.0,1.0,0.0
3250,41.0,0.0,180.0,12.0,0.0
3251,53.0,0.0,180.0,7.0,0.0
3252,73.0,60.0,60.0,5.0,0.0
3253,71.0,192.0,720.0,0.0,0.0
3254,71.0,36.0,150.0,5.0,0.0
3255,61.0,60.0,120.0,6.0,0.0
3256,71.0,60.0,60.0,5.0,0.0
3257,53.0,12.0,180.0,1.0,0.0
3258,59.0,72.0,120.0,6.0,0.0
3259,49.0,0.0,180.0,2.0,0.0
3260,61.0,0.0,180.0,2.0,0.0
3261,41.0,0.0,180.0,11.0,0.0
3262,41.0,0.0,180.0,12.0,0.0
3263,53.0,0.0,180.0,7.0,0.0
3264,53.0,0.0,180.0,10.0,0.0
3265,69.0,36.0,150.0,5.0,0.0
3266,61.0,60.0,120.0,6.0,0.0
3267,59.0,72.0,120.0,6.0,0.0
3268,53.0,0.0,180.0,7.0,0.0
3269,53.0,0.0,180.0,10.0,0.0
3270,41.0,0.0,180.0,12.0,0.0
3271,53.0,12.0,180.0,1.0,0.0
3272,41.0,0.0,180.0,11.0,0.0
3273,69.0,60.0,60.0,5.0,0.0
3274,61.0,0.0,180.0,2.0,0.0
3275,49.0,0.0,180.0,2.0,0.0
3276,70.0,12.0,150.0,5.0,0.0
3277,61.0,24.0,90.0,6.0,0.0
3278,61.0,0.0,180.0,2.0,0.0
3279,49.0,648.0,180.0,2.0,0.0
3280,54.0,0.0,180.0,7.0,0.0
3281,58.0,0.0,180.0,6.0,0.0
3282,54.0,0.0,180.0,10.0,0.0
3283,54.0,0.0,180.0,1.0,0.0
3284,70.0,0.0,180.0,5.0,0.0
3285,73.0,0.0,180.0,0.0,0.0
3286,70.0,0.0,180.0,0.0,0.0
3287,42.0,0.0,180.0,11.0,0.0
3288,42.0,0.0,180.0,12.0,0.0
3289,50.0,72.0,120.0,7.0,0.0
3290,62.0,0.0,120.0,5.0,0.0
3291,63.0,0.0,60.0,5.0,0.0
3292,51.0,120.0,60.0,7.0,0.0
3293,65.0,0.0,60.0,5.0,0.0
3294,53.0,120.0,60.0,7.0,0.0
3295,66.0,120.0,60.0,5.0,0.0
3296,54.0,0.0,60.0,7.0,0.0
3297,68.0,120.0,60.0,5.0,0.0
3298,56.0,0.0,60.0,7.0,0.0
3299,70.0,0.0,60.0,5.0,0.0
3300,58.0,168.0,60.0,7.0,0.0
3301,58.0,0.0,120.0,7.0,0.0
3302,54.0,0.0,120.0,6.0,0.0
3303,56.0,0.0,720.0,10.0,0.0
3304,44.0,0.0,720.0,12.0,0.0
3305,70.0,72.0,120.0,5.0,0.0
3306,44.0,480.0,720.0,11.0,0.0
3307,53.0,120.0,60.0,6.0,0.0
3308,68.0,0.0,60.0,5.0,0.0
3309,56.0,0.0,60.0,7.0,0.0
3310,58.0,0.0,60.0,6.0,0.0
3311,54.0,120.0,60.0,7.0,0.0
3312,66.0,0.0,60.0,5.0,0.0
3313,65.0,0.0,60.0,5.0,0.0
3314,56.0,120.0,60.0,6.0,0.0
3315,53.0,0.0,60.0,7.0,0.0
3316,63.0,120.0,60.0,5.0,0.0
3317,51.0,0.0,60.0,7.0,0.0
3318,54.0,0.0,60.0,6.0,0.0
3319,49.0,0.0,60.0,7.0,0.0
3320,53.0,0.0,60.0,6.0,0.0
3321,61.0,48.0,60.0,5.0,0.0
3322,51.0,0.0,480.0,7.0,0.0
3323,32.0,0.0,480.0,11.0,0.0
3324,44.0,0.0,480.0,10.0,0.0
3325,32.0,0.0,480.0,12.0,0.0
3326,61.0,0.0,480.0,5.0,0.0
3327,56.0,120.0,480.0,6.0,0.0
3328,45.0,0.0,180.0,10.0,0.0
3329,60.0,0.0,180.0,6.0,0.0
3330,54.0,24.0,180.0,7.0,0.0
3331,33.0,0.0,180.0,11.0,0.0
3332,33.0,0.0,180.0,12.0,0.0
3333,65.0,72.0,120.0,5.0,0.0
3334,63.0,480.0,90.0,5.0,0.0
3335,52.0,192.0,720.0,7.0,0.0
3336,34.0,0.0,900.0,12.0,0.0
3337,61.0,84.0,450.0,5.0,0.0
3338,34.0,0.0,900.0,11.0,0.0
3339,46.0,0.0,900.0,10.0,0.0
3340,55.0,0.0,720.0,6.0,0.0
3341,73.0,60.0,60.0,5.0,0.0
3342,72.0,60.0,60.0,5.0,0.0
3343,73.0,60.0,60.0,5.0,0.0
3344,75.0,0.0,60.0,5.0,0.0
3345,76.0,0.0,180.0,5.0,0.0
3346,67.0,696.0,180.0,6.0,0.0
3347,61.0,0.0,180.0,7.0,0.0
3348,44.0,0.0,3450.0,2.0,0.0
3349,56.0,0.0,3450.0,2.0,0.0
3350,80.0,0.0,3450.0,0.0,0.0
3351,68.0,0.0,3450.0,0.0,0.0
3352,56.0,24.0,180.0,3.0,0.0
3353,68.0,0.0,180.0,3.0,0.0
3354,44.0,216.0,180.0,4.0,0.0
3355,44.0,216.0,180.0,4.0,0.0
3356,68.0,24.0,180.0,3.0,0.0
3357,56.0,0.0,180.0,3.0,0.0
3358,56.0,24.0,180.0,3.0,0.0
3359,68.0,0.0,180.0,3.0,0.0
3360,44.0,112.0,180.0,4.0,0.0
3361,37.0,64.0,240.0,10.0,0.0
3362,68.0,0.0,240.0,5.0,0.0
3363,56.0,24.0,180.0,3.0,0.0
3364,25.0,0.0,240.0,11.0,0.0
3365,52.0,80.0,60.0,6.0,0.0
3366,49.0,0.0,240.0,7.0,0.0
3367,25.0,0.0,240.0,12.0,0.0
3368,68.0,0.0,180.0,3.0,0.0
3369,44.0,32.0,180.0,4.0,0.0
3370,56.0,24.0,60.0,6.0,0.0
3371,52.0,16.0,60.0,6.0,0.0
3372,61.0,0.0,240.0,5.0,0.0
3373,52.0,64.0,240.0,7.0,0.0
3374,28.0,0.0,240.0,12.0,0.0
3375,28.0,0.0,240.0,11.0,0.0
3376,68.0,0.0,180.0,3.0,0.0
3377,52.0,80.0,60.0,6.0,0.0
3378,40.0,0.0,240.0,10.0,0.0
3379,56.0,24.0,180.0,3.0,0.0
3380,44.0,32.0,180.0,4.0,0.0
3381,56.0,24.0,60.0,6.0,0.0
3382,52.0,16.0,60.0,6.0,0.0
3383,51.0,80.0,60.0,6.0,0.0
3384,32.0,76.0,240.0,11.0,0.0
3385,60.0,0.0,240.0,5.0,0.0
3386,44.0,0.0,240.0,10.0,0.0
3387,68.0,0.0,180.0,3.0,0.0
3388,56.0,24.0,180.0,3.0,0.0
3389,32.0,0.0,240.0,12.0,0.0
3390,56.0,0.0,240.0,7.0,0.0
3391,44.0,32.0,180.0,4.0,0.0
3392,54.0,24.0,60.0,6.0,0.0
3393,51.0,4.0,60.0,6.0,0.0
3394,68.0,24.0,180.0,3.0,0.0
3395,37.0,0.0,240.0,11.0,0.0
3396,44.0,32.0,180.0,4.0,0.0
3397,49.0,0.0,240.0,10.0,0.0
3398,56.0,0.0,180.0,3.0,0.0
3399,37.0,0.0,240.0,12.0,0.0
3400,61.0,64.0,240.0,7.0,0.0
3401,61.0,24.0,360.0,5.0,0.0
3402,52.0,80.0,60.0,6.0,0.0
3403,56.0,24.0,60.0,6.0,0.0
3404,52.0,16.0,60.0,6.0,0.0
3405,28.0,64.0,240.0,12.0,0.0
3406,68.0,12.0,180.0,3.0,0.0
3407,28.0,0.0,240.0,11.0,0.0
3408,40.0,0.0,240.0,10.0,0.0
3409,61.0,56.0,60.0,6.0,0.0
3410,52.0,0.0,240.0,7.0,0.0
3411,44.0,32.0,180.0,4.0,0.0
3412,56.0,0.0,180.0,3.0,0.0
3413,56.0,24.0,60.0,6.0,0.0
3414,63.0,12.0,60.0,5.0,0.0
3415,61.0,16.0,60.0,6.0,0.0
3416,64.0,0.0,60.0,5.0,0.0
3417,56.0,32.0,180.0,7.0,0.0
3418,56.0,0.0,180.0,3.0,0.0
3419,68.0,24.0,180.0,3.0,0.0
3420,63.0,76.0,240.0,5.0,0.0
3421,44.0,0.0,180.0,4.0,0.0
3422,32.0,0.0,180.0,11.0,0.0
3423,44.0,0.0,180.0,10.0,0.0
3424,32.0,0.0,180.0,12.0,0.0
3425,60.0,80.0,60.0,6.0,0.0
3426,56.0,24.0,60.0,6.0,0.0
3427,60.0,4.0,60.0,6.0,0.0
3428,37.0,0.0,240.0,11.0,0.0
3429,44.0,32.0,180.0,4.0,0.0
3430,37.0,0.0,240.0,12.0,0.0
3431,49.0,0.0,240.0,10.0,0.0
3432,80.0,0.0,240.0,5.0,0.0
3433,64.0,80.0,60.0,6.0,0.0
3434,68.0,24.0,180.0,3.0,0.0
3435,56.0,0.0,180.0,3.0,0.0
3436,49.0,64.0,240.0,7.0,0.0
3437,61.0,24.0,60.0,6.0,0.0
3438,64.0,16.0,60.0,6.0,0.0
3439,52.0,0.0,240.0,10.0,0.0
3440,73.0,0.0,240.0,5.0,0.0
3441,68.0,80.0,60.0,6.0,0.0
3442,40.0,64.0,240.0,12.0,0.0
3443,40.0,0.0,240.0,11.0,0.0
3444,52.0,0.0,240.0,7.0,0.0
3445,56.0,24.0,180.0,3.0,0.0
3446,68.0,0.0,180.0,3.0,0.0
3447,44.0,32.0,180.0,4.0,0.0
3448,64.0,24.0,60.0,6.0,0.0
3449,68.0,16.0,60.0,6.0,0.0
3450,56.0,0.0,180.0,3.0,0.0
3451,56.0,0.0,240.0,10.0,0.0
3452,72.0,0.0,240.0,5.0,0.0
3453,44.0,76.0,240.0,11.0,0.0
3454,44.0,32.0,180.0,4.0,0.0
3455,56.0,0.0,240.0,7.0,0.0
3456,44.0,0.0,240.0,12.0,0.0
3457,68.0,24.0,180.0,3.0,0.0
3458,66.0,80.0,60.0,6.0,0.0
3459,63.0,24.0,60.0,6.0,0.0
3460,66.0,4.0,60.0,6.0,0.0
3461,49.0,0.0,240.0,11.0,0.0
3462,64.0,80.0,60.0,6.0,0.0
3463,44.0,0.0,390.0,4.0,0.0
3464,49.0,0.0,240.0,12.0,0.0
3465,73.0,24.0,360.0,5.0,0.0
3466,61.0,64.0,240.0,10.0,0.0
3467,56.0,48.0,570.0,3.0,0.0
3468,61.0,0.0,240.0,7.0,0.0
3469,68.0,0.0,570.0,3.0,0.0
3470,68.0,80.0,60.0,6.0,0.0
3471,66.0,16.0,60.0,6.0,0.0
3472,40.0,0.0,240.0,12.0,0.0
3473,64.0,0.0,240.0,7.0,0.0
3474,52.0,0.0,240.0,10.0,0.0
3475,40.0,0.0,240.0,11.0,0.0
3476,64.0,56.0,60.0,6.0,0.0
3477,63.0,36.0,60.0,6.0,0.0
3478,75.0,44.0,60.0,5.0,0.0
3479,61.0,16.0,60.0,6.0,0.0
3480,76.0,64.0,60.0,5.0,0.0
3481,60.0,32.0,60.0,6.0,0.0
3482,68.0,0.0,180.0,7.0,0.0
3483,44.0,32.0,180.0,12.0,0.0
3484,44.0,0.0,180.0,11.0,0.0
3485,75.0,0.0,180.0,5.0,0.0
3486,56.0,0.0,180.0,10.0,0.0
3487,58.0,48.0,60.0,6.0,0.0
3488,56.0,208.0,60.0,6.0,0.0
3489,80.0,0.0,180.0,5.0,0.0
3490,68.0,240.0,180.0,6.0,0.0
3491,80.0,240.0,180.0,5.0,0.0
3492,68.0,0.0,180.0,6.0,0.0
3493,80.0,168.0,180.0,5.0,0.0
3494,68.0,0.0,180.0,6.0,0.0
3495,68.0,0.0,720.0,6.0,0.0
3496,41.0,0.0,180.0,10.0,0.0
3497,56.0,72.0,120.0,7.0,0.0
3498,29.0,0.0,180.0,12.0,0.0
3499,41.0,0.0,180.0,1.0,0.0
3500,68.0,120.0,720.0,0.0,0.0
3501,80.0,0.0,720.0,5.0,0.0
3502,29.0,0.0,180.0,11.0,0.0
3503,73.0,96.0,1440.0,0.0,0.0
3504,61.0,48.0,180.0,2.0,0.0
3505,49.0,0.0,180.0,2.0,0.0
3506,61.0,120.0,120.0,7.0,0.0
3507,41.0,48.0,180.0,12.0,0.0
3508,53.0,0.0,180.0,10.0,0.0
3509,61.0,0.0,180.0,2.0,0.0
3510,49.0,0.0,180.0,2.0,0.0
3511,53.0,0.0,180.0,1.0,0.0
3512,41.0,0.0,180.0,11.0,0.0
3513,56.0,72.0,120.0,7.0,0.0
3514,61.0,120.0,120.0,7.0,0.0
3515,49.0,0.0,180.0,2.0,0.0
3516,53.0,0.0,180.0,10.0,0.0
3517,56.0,72.0,120.0,7.0,0.0
3518,61.0,0.0,180.0,2.0,0.0
3519,41.0,24.0,180.0,12.0,0.0
3520,53.0,0.0,180.0,1.0,0.0
3521,41.0,0.0,180.0,11.0,0.0
3522,61.0,24.0,90.0,7.0,0.0
3523,81.0,0.0,690.0,5.0,0.0
3524,69.0,12.0,690.0,6.0,0.0
3525,53.0,0.0,180.0,1.0,0.0
3526,59.0,72.0,120.0,7.0,0.0
3527,53.0,0.0,180.0,10.0,0.0
3528,61.0,0.0,180.0,2.0,0.0
3529,41.0,48.0,180.0,11.0,0.0
3530,49.0,0.0,180.0,2.0,0.0
3531,71.0,0.0,720.0,0.0,0.0
3532,41.0,0.0,180.0,12.0,0.0
3533,61.0,120.0,120.0,7.0,0.0
3534,41.0,0.0,180.0,11.0,0.0
3535,61.0,0.0,180.0,2.0,0.0
3536,49.0,0.0,180.0,2.0,0.0
3537,41.0,0.0,180.0,12.0,0.0
3538,53.0,0.0,180.0,1.0,0.0
3539,59.0,72.0,120.0,7.0,0.0
3540,53.0,48.0,180.0,10.0,0.0
3541,61.0,120.0,120.0,7.0,0.0
3542,61.0,0.0,180.0,2.0,0.0
3543,53.0,0.0,180.0,10.0,0.0
3544,41.0,12.0,180.0,11.0,0.0
3545,41.0,0.0,180.0,12.0,0.0
3546,59.0,72.0,120.0,7.0,0.0
3547,49.0,0.0,180.0,2.0,0.0
3548,53.0,0.0,180.0,1.0,0.0
3549,61.0,24.0,90.0,7.0,0.0
3550,70.0,0.0,180.0,0.0,0.0
3551,73.0,0.0,180.0,0.0,0.0
3552,69.0,24.0,90.0,6.0,0.0
3553,81.0,72.0,120.0,5.0,0.0
3554,42.0,0.0,720.0,11.0,0.0
3555,61.0,0.0,180.0,2.0,0.0
3556,42.0,120.0,720.0,12.0,0.0
3557,61.0,24.0,2010.0,7.0,0.0
3558,58.0,120.0,1140.0,7.0,0.0
3559,54.0,0.0,720.0,10.0,0.0
3560,49.0,0.0,180.0,2.0,0.0
3561,54.0,0.0,180.0,1.0,0.0
3562,70.0,96.0,90.0,6.0,0.0
3563,82.0,24.0,60.0,5.0,0.0
3564,70.0,24.0,450.0,6.0,0.0
3565,82.0,120.0,60.0,5.0,0.0
3566,82.0,120.0,60.0,5.0,0.0
3567,82.0,120.0,60.0,5.0,0.0
3568,82.0,24.0,60.0,5.0,0.0
3569,82.0,72.0,120.0,5.0,0.0
3570,43.0,0.0,570.0,11.0,0.0
3571,63.0,156.0,690.0,6.0,0.0
3572,43.0,96.0,570.0,12.0,0.0
3573,55.0,0.0,570.0,10.0,0.0
3574,70.0,120.0,60.0,5.0,0.0
3575,73.0,120.0,60.0,5.0,0.0
3576,73.0,0.0,60.0,5.0,0.0
3577,73.0,24.0,60.0,5.0,0.0
3578,73.0,12.0,60.0,5.0,0.0
3579,44.0,0.0,570.0,12.0,0.0
3580,44.0,0.0,570.0,11.0,0.0
3581,56.0,0.0,570.0,10.0,0.0
3582,56.0,0.0,570.0,7.0,0.0
3583,65.0,0.0,840.0,6.0,0.0
3584,73.0,120.0,120.0,5.0,0.0
3585,72.0,120.0,120.0,5.0,0.0
3586,70.0,120.0,120.0,5.0,0.0
3587,68.0,96.0,120.0,5.0,0.0
3588,67.0,96.0,120.0,5.0,0.0
3589,68.0,144.0,90.0,5.0,0.0
3590,44.0,192.0,480.0,10.0,0.0
3591,32.0,0.0,480.0,12.0,0.0
3592,32.0,0.0,480.0,11.0,0.0
3593,68.0,120.0,120.0,5.0,0.0
3594,63.0,0.0,120.0,6.0,0.0
3595,66.0,192.0,120.0,5.0,0.0
3596,56.0,48.0,180.0,7.0,0.0
3597,61.0,0.0,240.0,6.0,0.0
3598,65.0,0.0,240.0,5.0,0.0
3599,33.0,0.0,180.0,11.0,0.0
3600,33.0,528.0,180.0,12.0,0.0
3601,60.0,0.0,180.0,6.0,0.0
3602,54.0,0.0,180.0,7.0,0.0
3603,63.0,0.0,180.0,5.0,0.0
3604,45.0,0.0,180.0,10.0,0.0
3605,46.0,0.0,720.0,10.0,0.0
3606,63.0,0.0,480.0,5.0,0.0
3607,54.0,0.0,480.0,7.0,0.0
3608,57.0,0.0,480.0,1.0,0.0
3609,34.0,0.0,720.0,11.0,0.0
3610,34.0,480.0,720.0,12.0,0.0
3611,57.0,0.0,480.0,6.0,0.0
3612,60.0,0.0,480.0,1.0,0.0
3613,81.0,0.0,240.0,0.0,0.0
3614,69.0,192.0,240.0,0.0,0.0
3615,62.0,0.0,180.0,1.0,0.0
3616,58.0,0.0,180.0,1.0,0.0
3617,53.0,48.0,180.0,7.0,0.0
3618,62.0,0.0,180.0,5.0,0.0
3619,82.0,0.0,180.0,0.0,0.0
3620,70.0,0.0,180.0,0.0,0.0
3621,58.0,0.0,180.0,6.0,0.0
3622,59.0,192.0,480.0,7.0,0.0
3623,59.0,0.0,480.0,1.0,0.0
3624,68.0,0.0,480.0,5.0,0.0
3625,27.0,0.0,690.0,11.0,0.0
3626,62.0,0.0,480.0,6.0,0.0
3627,39.0,96.0,690.0,10.0,0.0
3628,53.0,0.0,480.0,1.0,0.0
3629,27.0,0.0,690.0,12.0,0.0
3630,62.0,0.0,240.0,0.0,0.0
3631,74.0,0.0,240.0,0.0,0.0
3632,58.0,0.0,180.0,7.0,0.0
3633,75.0,0.0,180.0,0.0,0.0
3634,63.0,0.0,180.0,0.0,0.0
3635,67.0,12.0,180.0,5.0,0.0
3636,58.0,0.0,180.0,1.0,0.0
3637,55.0,0.0,180.0,1.0,0.0
3638,63.0,0.0,180.0,6.0,0.0
3639,63.0,0.0,180.0,7.0,0.0
3640,66.0,0.0,60.0,5.0,0.0
3641,36.0,0.0,180.0,12.0,0.0
3642,66.0,0.0,60.0,0.0,0.0
3643,75.0,0.0,60.0,0.0,0.0
3644,36.0,24.0,180.0,11.0,0.0
3645,63.0,60.0,60.0,6.0,0.0
3646,48.0,0.0,180.0,10.0,0.0
3647,68.0,0.0,60.0,0.0,0.0
3648,77.0,72.0,60.0,0.0,0.0
3649,65.0,0.0,60.0,6.0,0.0
3650,68.0,0.0,60.0,5.0,0.0
3651,70.0,432.0,90.0,0.0,0.0
3652,66.0,0.0,90.0,6.0,0.0
3653,78.0,0.0,90.0,0.0,0.0
3654,70.0,0.0,90.0,5.0,0.0
3655,68.0,0.0,180.0,5.0,0.0
3656,56.0,0.0,180.0,7.0,0.0
3657,68.0,168.0,180.0,0.0,0.0
3658,77.0,0.0,180.0,0.0,0.0
3659,49.0,24.0,180.0,10.0,0.0
3660,37.0,0.0,180.0,11.0,0.0
3661,65.0,0.0,180.0,6.0,0.0
3662,37.0,0.0,180.0,12.0,0.0
3663,77.0,90.0,120.0,0.0,0.0
3664,65.0,0.0,120.0,6.0,0.0
3665,30.0,0.0,210.0,11.0,0.0
3666,58.0,0.0,210.0,7.0,0.0
3667,42.0,0.0,210.0,10.0,0.0
3668,30.0,0.0,210.0,12.0,0.0
3669,68.0,0.0,120.0,5.0,0.0
3670,68.0,0.0,120.0,0.0,0.0
3671,66.0,0.0,90.0,5.0,0.0
3672,66.0,6.0,90.0,0.0,0.0
3673,75.0,0.0,90.0,0.0,0.0
3674,63.0,192.0,90.0,6.0,0.0
3675,56.0,0.0,210.0,7.0,0.0
3676,73.0,36.0,180.0,0.0,0.0
3677,32.0,0.0,210.0,12.0,0.0
3678,65.0,0.0,180.0,0.0,0.0
3679,32.0,192.0,210.0,11.0,0.0
3680,65.0,0.0,180.0,5.0,0.0
3681,44.0,0.0,210.0,10.0,0.0
3682,61.0,12.0,180.0,6.0,0.0
3683,45.0,0.0,210.0,10.0,0.0
3684,54.0,504.0,210.0,7.0,0.0
3685,60.0,0.0,180.0,6.0,0.0
3686,33.0,0.0,210.0,12.0,0.0
3687,33.0,0.0,210.0,11.0,0.0
3688,72.0,36.0,180.0,0.0,0.0
3689,63.0,0.0,180.0,0.0,0.0
3690,63.0,12.0,180.0,5.0,0.0
3691,54.0,192.0,480.0,7.0,0.0
3692,60.0,0.0,480.0,1.0,0.0
3693,57.0,0.0,480.0,1.0,0.0
3694,34.0,0.0,720.0,12.0,0.0
3695,34.0,0.0,720.0,11.0,0.0
3696,63.0,0.0,480.0,5.0,0.0
3697,46.0,480.0,720.0,10.0,0.0
3698,57.0,0.0,480.0,6.0,0.0
3699,81.0,0.0,240.0,0.0,0.0
3700,69.0,0.0,240.0,0.0,0.0
3701,62.0,0.0,180.0,1.0,0.0
3702,58.0,0.0,180.0,6.0,0.0
3703,58.0,0.0,180.0,1.0,0.0
3704,82.0,0.0,180.0,0.0,0.0
3705,70.0,0.0,180.0,0.0,0.0
3706,53.0,48.0,180.0,7.0,0.0
3707,62.0,0.0,180.0,5.0,0.0
3708,68.0,0.0,480.0,5.0,0.0
3709,39.0,96.0,690.0,10.0,0.0
3710,53.0,0.0,480.0,1.0,0.0
3711,59.0,192.0,480.0,1.0,0.0
3712,62.0,0.0,480.0,6.0,0.0
3713,27.0,0.0,690.0,11.0,0.0
3714,59.0,0.0,480.0,7.0,0.0
3715,27.0,0.0,690.0,12.0,0.0
3716,62.0,0.0,240.0,0.0,0.0
3717,74.0,0.0,240.0,0.0,0.0
3718,75.0,0.0,180.0,0.0,0.0
3719,67.0,0.0,180.0,5.0,0.0
3720,63.0,12.0,180.0,6.0,0.0
3721,63.0,0.0,180.0,0.0,0.0
3722,58.0,0.0,180.0,7.0,0.0
3723,55.0,0.0,180.0,1.0,0.0
3724,58.0,0.0,180.0,1.0,0.0
3725,75.0,60.0,60.0,0.0,0.0
3726,63.0,0.0,180.0,7.0,0.0
3727,66.0,0.0,60.0,0.0,0.0
3728,36.0,0.0,180.0,12.0,0.0
3729,66.0,0.0,60.0,5.0,0.0
3730,48.0,24.0,180.0,10.0,0.0
3731,63.0,0.0,60.0,6.0,0.0
3732,36.0,0.0,180.0,11.0,0.0
3733,65.0,0.0,60.0,6.0,0.0
3734,68.0,72.0,60.0,5.0,0.0
3735,68.0,0.0,60.0,0.0,0.0
3736,77.0,0.0,60.0,0.0,0.0
3737,70.0,0.0,90.0,0.0,0.0
3738,78.0,0.0,90.0,0.0,0.0
3739,66.0,0.0,90.0,6.0,0.0
3740,70.0,432.0,90.0,5.0,0.0
3741,68.0,0.0,180.0,5.0,0.0
3742,37.0,0.0,180.0,12.0,0.0
3743,77.0,168.0,180.0,0.0,0.0
3744,68.0,0.0,180.0,0.0,0.0
3745,56.0,0.0,180.0,7.0,0.0
3746,49.0,0.0,180.0,10.0,0.0
3747,65.0,0.0,180.0,6.0,0.0
3748,37.0,24.0,180.0,11.0,0.0
3749,65.0,0.0,120.0,6.0,0.0
3750,77.0,90.0,120.0,0.0,0.0
3751,30.0,0.0,210.0,12.0,0.0
3752,68.0,0.0,120.0,0.0,0.0
3753,68.0,0.0,120.0,5.0,0.0
3754,30.0,192.0,210.0,11.0,0.0
3755,42.0,0.0,210.0,10.0,0.0
3756,58.0,0.0,210.0,7.0,0.0
3757,66.0,0.0,90.0,5.0,0.0
3758,66.0,0.0,90.0,0.0,0.0
3759,63.0,0.0,90.0,6.0,0.0
3760,75.0,6.0,90.0,0.0,0.0
3761,44.0,192.0,210.0,10.0,0.0
3762,73.0,36.0,180.0,0.0,0.0
3763,65.0,0.0,180.0,0.0,0.0
3764,56.0,0.0,210.0,7.0,0.0
3765,32.0,0.0,210.0,11.0,0.0
3766,65.0,12.0,180.0,5.0,0.0
3767,61.0,0.0,180.0,6.0,0.0
3768,32.0,0.0,210.0,12.0,0.0
3769,44.0,0.0,210.0,10.0,0.0
3770,54.0,0.0,210.0,7.0,0.0
3771,72.0,0.0,180.0,0.0,0.0
3772,32.0,408.0,210.0,12.0,0.0
3773,63.0,12.0,180.0,5.0,0.0
3774,63.0,36.0,180.0,0.0,0.0
3775,32.0,0.0,210.0,11.0,0.0
3776,60.0,0.0,180.0,6.0,0.0
3777,25.0,36.0,390.0,12.0,0.0
3778,61.0,0.0,390.0,6.0,0.0
3779,25.0,0.0,390.0,11.0,0.0
3780,37.0,0.0,390.0,10.0,0.0
3781,73.0,0.0,390.0,0.0,0.0
3782,53.0,0.0,390.0,7.0,0.0
3783,61.0,0.0,390.0,0.0,0.0
3784,61.0,0.0,390.0,5.0,0.0
3785,32.0,0.0,180.0,1.0,0.0
3786,68.0,0.0,180.0,3.0,0.0
3787,56.0,0.0,180.0,3.0,0.0
3788,44.0,0.0,180.0,1.0,0.0
3789,44.0,0.0,180.0,4.0,0.0
3790,44.0,0.0,180.0,2.0,0.0
3791,56.0,240.0,180.0,2.0,0.0
3792,56.0,0.0,180.0,2.0,0.0
3793,56.0,0.0,180.0,3.0,0.0
3794,32.0,0.0,180.0,1.0,0.0
3795,44.0,0.0,180.0,1.0,0.0
3796,44.0,240.0,180.0,4.0,0.0
3797,68.0,0.0,180.0,3.0,0.0
3798,44.0,0.0,180.0,2.0,0.0
3799,44.0,0.0,180.0,4.0,0.0
3800,32.0,0.0,180.0,1.0,0.0
3801,56.0,0.0,180.0,2.0,0.0
3802,44.0,0.0,180.0,2.0,0.0
3803,56.0,0.0,180.0,3.0,0.0
3804,68.0,0.0,180.0,3.0,0.0
3805,44.0,240.0,180.0,1.0,0.0
3806,56.0,0.0,180.0,3.0,0.0
3807,32.0,0.0,180.0,1.0,0.0
3808,68.0,0.0,180.0,3.0,0.0
3809,56.0,0.0,180.0,2.0,0.0
3810,44.0,240.0,180.0,2.0,0.0
3811,44.0,0.0,180.0,1.0,0.0
3812,44.0,0.0,180.0,4.0,0.0
3813,68.0,0.0,180.0,3.0,0.0
3814,44.0,84.0,180.0,1.0,0.0
3815,56.0,0.0,180.0,3.0,0.0
3816,32.0,0.0,180.0,1.0,0.0
3817,44.0,0.0,180.0,4.0,0.0
3818,44.0,0.0,180.0,2.0,0.0
3819,56.0,0.0,180.0,2.0,0.0
3820,80.0,20.0,690.0,5.0,0.0
3821,44.0,0.0,1620.0,1.0,0.0
3822,32.0,0.0,180.0,11.0,0.0
3823,32.0,0.0,1620.0,1.0,0.0
3824,44.0,12.0,180.0,10.0,0.0
3825,44.0,30.0,20.0,4.0,0.0
3826,72.0,0.0,1830.0,0.0,0.0
3827,68.0,0.0,1620.0,3.0,0.0
3828,32.0,0.0,180.0,12.0,0.0
3829,56.0,204.0,1620.0,3.0,0.0
3830,56.0,0.0,180.0,7.0,0.0
3831,63.0,20.0,60.0,6.0,0.0
3832,44.0,0.0,1620.0,2.0,0.0
3833,75.0,24.0,720.0,0.0,0.0
3834,56.0,0.0,1620.0,2.0,0.0
3835,44.0,10.0,20.0,4.0,0.0
3836,44.0,30.0,20.0,4.0,0.0
3837,66.0,30.0,60.0,6.0,0.0
3838,44.0,30.0,20.0,4.0,0.0
3839,44.0,0.0,20.0,4.0,0.0
3840,44.0,18.0,20.0,4.0,0.0
3841,68.0,10.0,60.0,6.0,0.0
3842,44.0,20.0,20.0,4.0,0.0
3843,44.0,30.0,20.0,4.0,0.0
3844,72.0,20.0,60.0,6.0,0.0
3845,56.0,0.0,180.0,10.0,0.0
3846,44.0,0.0,180.0,11.0,0.0
3847,44.0,30.0,20.0,4.0,0.0
3848,56.0,12.0,180.0,7.0,0.0
3849,44.0,0.0,180.0,12.0,0.0
3850,44.0,10.0,20.0,4.0,0.0
3851,44.0,30.0,20.0,4.0,0.0
3852,68.0,0.0,60.0,6.0,0.0
3853,44.0,30.0,20.0,4.0,0.0
3854,44.0,30.0,20.0,4.0,0.0
3855,44.0,18.0,20.0,4.0,0.0
3856,66.0,10.0,60.0,6.0,0.0
3857,44.0,20.0,20.0,4.0,0.0
3858,44.0,30.0,20.0,4.0,0.0
3859,44.0,0.0,180.0,11.0,0.0
3860,44.0,0.0,180.0,12.0,0.0
3861,56.0,12.0,180.0,7.0,0.0
3862,56.0,0.0,180.0,10.0,0.0
3863,44.0,30.0,20.0,4.0,0.0
3864,72.0,20.0,60.0,6.0,0.0
3865,44.0,10.0,20.0,4.0,0.0
3866,44.0,30.0,20.0,4.0,0.0
3867,68.0,30.0,60.0,6.0,0.0
3868,44.0,30.0,20.0,4.0,0.0
3869,44.0,0.0,20.0,4.0,0.0
3870,44.0,18.0,20.0,4.0,0.0
3871,66.0,10.0,60.0,6.0,0.0
3872,44.0,0.0,20.0,4.0,0.0
3873,44.0,6.0,20.0,4.0,0.0
3874,78.0,0.0,720.0,0.0,0.0
3875,44.0,0.0,180.0,12.0,0.0
3876,56.0,0.0,180.0,10.0,0.0
3877,44.0,12.0,180.0,11.0,0.0
3878,56.0,0.0,180.0,7.0,0.0
3879,77.0,24.0,30.0,5.0,0.0
3880,44.0,6.0,20.0,4.0,0.0
3881,63.0,20.0,60.0,6.0,0.0
3882,44.0,6.0,20.0,4.0,0.0
3883,75.0,4.0,30.0,5.0,0.0
3884,77.0,24.0,30.0,5.0,0.0
3885,44.0,6.0,20.0,4.0,0.0
3886,66.0,0.0,60.0,6.0,0.0
3887,75.0,24.0,30.0,5.0,0.0
3888,44.0,6.0,20.0,4.0,0.0
3889,44.0,6.0,20.0,4.0,0.0
3890,77.0,24.0,30.0,5.0,0.0
3891,44.0,6.0,20.0,4.0,0.0
3892,75.0,12.0,30.0,5.0,0.0
3893,68.0,10.0,60.0,6.0,0.0
3894,44.0,6.0,20.0,4.0,0.0
3895,77.0,14.0,30.0,5.0,0.0
3896,75.0,24.0,30.0,5.0,0.0
3897,44.0,6.0,20.0,4.0,0.0
3898,44.0,0.0,180.0,12.0,0.0
3899,56.0,0.0,180.0,7.0,0.0
3900,44.0,6.0,20.0,4.0,0.0
3901,77.0,24.0,30.0,5.0,0.0
3902,72.0,20.0,60.0,6.0,0.0
3903,44.0,0.0,180.0,11.0,0.0
3904,56.0,12.0,180.0,10.0,0.0
3905,44.0,6.0,20.0,4.0,0.0
3906,75.0,4.0,30.0,5.0,0.0
3907,44.0,6.0,20.0,4.0,0.0
3908,77.0,24.0,30.0,5.0,0.0
3909,68.0,6.0,60.0,6.0,0.0
3910,75.0,24.0,30.0,5.0,0.0
3911,44.0,6.0,20.0,4.0,0.0
3912,77.0,24.0,30.0,5.0,0.0
3913,44.0,0.0,20.0,4.0,0.0
3914,75.0,12.0,30.0,5.0,0.0
3915,44.0,6.0,20.0,4.0,0.0
3916,66.0,10.0,60.0,6.0,0.0
3917,77.0,14.0,30.0,5.0,0.0
3918,44.0,6.0,20.0,4.0,0.0
3919,75.0,24.0,30.0,5.0,0.0
3920,44.0,6.0,20.0,4.0,0.0
3921,56.0,0.0,180.0,10.0,0.0
3922,56.0,12.0,180.0,7.0,0.0
3923,72.0,20.0,60.0,6.0,0.0
3924,44.0,0.0,180.0,11.0,0.0
3925,77.0,24.0,30.0,5.0,0.0
3926,44.0,0.0,180.0,12.0,0.0
3927,44.0,6.0,20.0,4.0,0.0
3928,44.0,6.0,20.0,4.0,0.0
3929,75.0,4.0,30.0,5.0,0.0
3930,44.0,6.0,20.0,4.0,0.0
3931,77.0,24.0,30.0,5.0,0.0
3932,68.0,0.0,60.0,6.0,0.0
3933,75.0,24.0,30.0,5.0,0.0
3934,44.0,6.0,20.0,4.0,0.0
3935,73.0,12.0,60.0,5.0,0.0
3936,44.0,30.0,20.0,4.0,0.0
3937,44.0,6.0,20.0,4.0,0.0
3938,66.0,10.0,60.0,6.0,0.0
3939,75.0,180.0,60.0,5.0,0.0
3940,44.0,20.0,20.0,4.0,0.0
3941,44.0,6.0,20.0,4.0,0.0
3942,65.0,36.0,390.0,6.0,0.0
3943,73.0,0.0,390.0,6.0,0.0
3944,77.0,0.0,390.0,5.0,0.0
3945,37.0,0.0,390.0,12.0,0.0
3946,77.0,0.0,390.0,0.0,0.0
3947,44.0,0.0,180.0,4.0,0.0
3948,49.0,0.0,390.0,10.0,0.0
3949,56.0,0.0,390.0,7.0,0.0
3950,37.0,0.0,390.0,11.0,0.0
3951,68.0,240.0,180.0,3.0,0.0
3952,56.0,0.0,180.0,3.0,0.0
3953,44.0,0.0,180.0,1.0,0.0
3954,44.0,0.0,180.0,4.0,0.0
3955,56.0,0.0,180.0,2.0,0.0
3956,44.0,0.0,180.0,2.0,0.0
3957,32.0,0.0,180.0,1.0,0.0
3958,44.0,0.0,180.0,1.0,0.0
3959,44.0,0.0,180.0,2.0,0.0
3960,56.0,0.0,180.0,2.0,0.0
3961,44.0,0.0,180.0,4.0,0.0
3962,32.0,0.0,180.0,1.0,0.0
3963,68.0,240.0,180.0,3.0,0.0
3964,56.0,0.0,180.0,3.0,0.0
3965,56.0,0.0,180.0,2.0,0.0
3966,44.0,0.0,180.0,1.0,0.0
3967,32.0,0.0,180.0,1.0,0.0
3968,68.0,0.0,180.0,3.0,0.0
3969,44.0,0.0,180.0,2.0,0.0
3970,56.0,0.0,180.0,3.0,0.0
3971,44.0,240.0,180.0,4.0,0.0
3972,56.0,240.0,180.0,2.0,0.0
3973,44.0,0.0,180.0,2.0,0.0
3974,44.0,0.0,180.0,4.0,0.0
3975,44.0,0.0,180.0,1.0,0.0
3976,32.0,0.0,180.0,1.0,0.0
3977,56.0,0.0,180.0,3.0,0.0
3978,68.0,0.0,180.0,3.0,0.0
3979,44.0,0.0,180.0,4.0,0.0
3980,56.0,84.0,180.0,3.0,0.0
3981,44.0,0.0,180.0,2.0,0.0
3982,32.0,0.0,180.0,1.0,0.0
3983,68.0,0.0,180.0,3.0,0.0
3984,44.0,0.0,180.0,1.0,0.0
3985,56.0,0.0,180.0,2.0,0.0
3986,72.0,24.0,720.0,0.0,0.0
3987,66.0,20.0,1410.0,0.0,0.0
3988,56.0,0.0,1620.0,3.0,0.0
3989,75.0,0.0,690.0,5.0,0.0
3990,44.0,30.0,20.0,4.0,0.0
3991,44.0,0.0,1620.0,1.0,0.0
3992,56.0,0.0,1620.0,2.0,0.0
3993,32.0,0.0,180.0,12.0,0.0
3994,32.0,0.0,180.0,11.0,0.0
3995,56.0,20.0,60.0,6.0,0.0
3996,44.0,12.0,180.0,10.0,0.0
3997,68.0,0.0,1620.0,3.0,0.0
3998,32.0,240.0,1620.0,1.0,0.0
3999,44.0,0.0,180.0,7.0,0.0
4000,44.0,0.0,1440.0,2.0,0.0
4001,44.0,10.0,20.0,4.0,0.0
4002,44.0,30.0,20.0,4.0,0.0
4003,63.0,0.0,60.0,6.0,0.0
4004,44.0,30.0,20.0,4.0,0.0
4005,44.0,30.0,20.0,4.0,0.0
4006,44.0,18.0,20.0,4.0,0.0
4007,66.0,10.0,60.0,6.0,0.0
4008,44.0,20.0,20.0,4.0,0.0
4009,44.0,30.0,20.0,4.0,0.0
4010,44.0,30.0,20.0,4.0,0.0
4011,32.0,0.0,180.0,12.0,0.0
4012,44.0,0.0,180.0,10.0,0.0
4013,32.0,12.0,180.0,11.0,0.0
4014,56.0,0.0,180.0,7.0,0.0
4015,68.0,20.0,60.0,6.0,0.0
4016,44.0,10.0,20.0,4.0,0.0
4017,44.0,30.0,20.0,4.0,0.0
4018,66.0,30.0,60.0,6.0,0.0
4019,44.0,30.0,20.0,4.0,0.0
4020,44.0,0.0,20.0,4.0,0.0
4021,44.0,18.0,20.0,4.0,0.0
4022,63.0,10.0,60.0,6.0,0.0
4023,44.0,20.0,20.0,4.0,0.0
4024,44.0,30.0,20.0,4.0,0.0
4025,32.0,12.0,180.0,11.0,0.0
4026,44.0,0.0,180.0,10.0,0.0
4027,32.0,0.0,180.0,12.0,0.0
4028,56.0,0.0,180.0,7.0,0.0
4029,68.0,20.0,60.0,6.0,0.0
4030,44.0,30.0,20.0,4.0,0.0
4031,44.0,10.0,20.0,4.0,0.0
4032,44.0,30.0,20.0,4.0,0.0
4033,66.0,30.0,60.0,6.0,0.0
4034,44.0,30.0,20.0,4.0,0.0
4035,44.0,0.0,20.0,4.0,0.0
4036,44.0,18.0,20.0,4.0,0.0
4037,63.0,10.0,60.0,6.0,0.0
4038,44.0,20.0,20.0,4.0,0.0
4039,44.0,6.0,20.0,4.0,0.0
4040,44.0,6.0,20.0,4.0,0.0
4041,32.0,0.0,180.0,11.0,0.0
4042,32.0,0.0,180.0,12.0,0.0
4043,56.0,0.0,180.0,7.0,0.0
4044,56.0,20.0,60.0,6.0,0.0
4045,75.0,0.0,690.0,0.0,0.0
4046,44.0,12.0,180.0,10.0,0.0
4047,73.0,24.0,30.0,5.0,0.0
4048,72.0,4.0,30.0,5.0,0.0
4049,44.0,6.0,20.0,4.0,0.0
4050,44.0,6.0,20.0,4.0,0.0
4051,73.0,24.0,30.0,5.0,0.0
4052,63.0,0.0,60.0,6.0,0.0
4053,44.0,6.0,20.0,4.0,0.0
4054,72.0,24.0,30.0,5.0,0.0
4055,44.0,6.0,20.0,4.0,0.0
4056,73.0,24.0,30.0,5.0,0.0
4057,72.0,12.0,30.0,5.0,0.0
4058,44.0,6.0,20.0,4.0,0.0
4059,66.0,10.0,60.0,6.0,0.0
4060,73.0,14.0,30.0,5.0,0.0
4061,44.0,6.0,20.0,4.0,0.0
4062,72.0,24.0,30.0,5.0,0.0
4063,44.0,6.0,20.0,4.0,0.0
4064,73.0,24.0,30.0,5.0,0.0
4065,32.0,0.0,180.0,11.0,0.0
4066,68.0,20.0,60.0,6.0,0.0
4067,44.0,0.0,180.0,10.0,0.0
4068,44.0,6.0,20.0,4.0,0.0
4069,56.0,12.0,180.0,7.0,0.0
4070,32.0,0.0,180.0,12.0,0.0
4071,44.0,6.0,20.0,4.0,0.0
4072,72.0,4.0,30.0,5.0,0.0
4073,44.0,6.0,20.0,4.0,0.0
4074,73.0,24.0,30.0,5.0,0.0
4075,66.0,0.0,60.0,6.0,0.0
4076,44.0,6.0,20.0,4.0,0.0
4077,72.0,24.0,30.0,5.0,0.0
4078,44.0,6.0,20.0,4.0,0.0
4079,73.0,24.0,30.0,5.0,0.0
4080,72.0,12.0,30.0,5.0,0.0
4081,44.0,6.0,20.0,4.0,0.0
4082,63.0,10.0,60.0,6.0,0.0
4083,73.0,14.0,30.0,5.0,0.0
4084,44.0,6.0,20.0,4.0,0.0
4085,72.0,24.0,30.0,5.0,0.0
4086,44.0,6.0,20.0,4.0,0.0
4087,68.0,20.0,60.0,6.0,0.0
4088,44.0,0.0,180.0,10.0,0.0
4089,32.0,12.0,180.0,12.0,0.0
4090,44.0,6.0,20.0,4.0,0.0
4091,32.0,0.0,180.0,11.0,0.0
4092,56.0,0.0,180.0,7.0,0.0
4093,73.0,24.0,30.0,5.0,0.0
4094,44.0,6.0,20.0,4.0,0.0
4095,72.0,4.0,30.0,5.0,0.0
4096,73.0,24.0,30.0,5.0,0.0
4097,44.0,6.0,20.0,4.0,0.0
4098,66.0,0.0,60.0,6.0,0.0
4099,72.0,24.0,30.0,5.0,0.0
4100,44.0,6.0,20.0,4.0,0.0
4101,44.0,30.0,20.0,4.0,0.0
4102,70.0,12.0,60.0,5.0,0.0
4103,44.0,6.0,20.0,4.0,0.0
4104,63.0,10.0,60.0,6.0,0.0
4105,72.0,168.0,60.0,5.0,0.0
4106,44.0,0.0,20.0,4.0,0.0
4107,44.0,6.0,20.0,4.0,0.0
4108,49.0,0.0,180.0,2.0,0.0
4109,37.0,0.0,180.0,10.0,0.0
4110,73.0,0.0,180.0,0.0,0.0
4111,65.0,0.0,180.0,0.0,0.0
4112,25.0,0.0,180.0,11.0,0.0
4113,44.0,0.0,180.0,4.0,0.0
4114,73.0,0.0,180.0,5.0,0.0
4115,65.0,0.0,180.0,6.0,0.0
4116,56.0,0.0,180.0,7.0,0.0
4117,25.0,0.0,180.0,12.0,0.0
4118,53.0,0.0,180.0,2.0,0.0
4119,56.0,0.0,180.0,7.0,0.0
4120,53.0,0.0,180.0,5.0,0.0
4121,25.0,0.0,180.0,12.0,0.0
4122,53.0,0.0,180.0,6.0,0.0
4123,61.0,0.0,180.0,6.0,0.0
4124,44.0,240.0,180.0,4.0,0.0
4125,49.0,0.0,180.0,1.0,0.0
4126,25.0,0.0,180.0,11.0,0.0
4127,37.0,0.0,180.0,10.0,0.0
4128,37.0,0.0,180.0,1.0,0.0
4129,56.0,0.0,180.0,3.0,0.0
4130,73.0,0.0,180.0,0.0,0.0
4131,65.0,0.0,180.0,0.0,0.0
4132,68.0,0.0,180.0,3.0,0.0
4133,61.0,0.0,180.0,5.0,0.0
4134,49.0,0.0,180.0,2.0,0.0
4135,53.0,0.0,180.0,2.0,0.0
4136,65.0,0.0,180.0,0.0,0.0
4137,37.0,0.0,180.0,10.0,0.0
4138,25.0,0.0,180.0,12.0,0.0
4139,53.0,0.0,180.0,5.0,0.0
4140,49.0,0.0,180.0,2.0,0.0
4141,25.0,288.0,180.0,11.0,0.0
4142,56.0,0.0,180.0,7.0,0.0
4143,49.0,0.0,180.0,1.0,0.0
4144,37.0,0.0,180.0,1.0,0.0
4145,61.0,0.0,180.0,5.0,0.0
4146,73.0,0.0,180.0,0.0,0.0
4147,44.0,0.0,180.0,4.0,0.0
4148,56.0,0.0,180.0,3.0,0.0
4149,53.0,0.0,180.0,6.0,0.0
4150,61.0,0.0,180.0,6.0,0.0
4151,68.0,0.0,180.0,3.0,0.0
4152,25.0,1656.0,210.0,11.0,0.0
4153,49.0,0.0,210.0,1.0,0.0
4154,53.0,0.0,210.0,2.0,0.0
4155,53.0,0.0,210.0,6.0,0.0
4156,44.0,0.0,210.0,4.0,0.0
4157,37.0,0.0,210.0,10.0,0.0
4158,56.0,0.0,210.0,7.0,0.0
4159,37.0,0.0,210.0,1.0,0.0
4160,61.0,0.0,210.0,6.0,0.0
4161,49.0,0.0,210.0,2.0,0.0
4162,61.0,0.0,210.0,5.0,0.0
4163,53.0,0.0,210.0,5.0,0.0
4164,73.0,0.0,210.0,0.0,0.0
4165,65.0,0.0,210.0,0.0,0.0
4166,68.0,0.0,210.0,3.0,0.0
4167,25.0,0.0,210.0,12.0,0.0
4168,56.0,0.0,210.0,3.0,0.0
4169,15.0,0.0,1140.0,11.0,0.0
