,note,step,duration,channel,velocity
0,66.0,288.0,480.0,4.0,0.0
1,59.0,0.0,780.0,7.0,0.0
2,59.0,0.0,780.0,2.0,0.0
3,47.0,480.0,780.0,8.0,0.0
4,71.0,480.0,300.0,4.0,0.0
5,74.0,0.0,300.0,4.0,0.0
6,62.0,0.0,300.0,6.0,0.0
7,71.0,0.0,300.0,5.0,0.0
8,71.0,480.0,300.0,5.0,0.0
9,78.0,0.0,300.0,4.0,0.0
10,62.0,0.0,300.0,6.0,0.0
11,62.0,0.0,300.0,6.0,0.0
12,83.0,960.0,300.0,4.0,0.0
13,71.0,0.0,300.0,5.0,0.0
14,47.0,0.0,780.0,8.0,0.0
15,86.0,288.0,960.0,4.0,0.0
16,59.0,0.0,780.0,2.0,0.0
17,59.0,0.0,780.0,7.0,0.0
18,68.0,192.0,300.0,5.0,0.0
19,65.0,0.0,300.0,6.0,0.0
20,68.0,0.0,300.0,5.0,0.0
21,65.0,0.0,300.0,6.0,0.0
22,85.0,336.0,300.0,4.0,0.0
23,85.0,0.0,300.0,1.0,0.0
24,77.0,0.0,150.0,5.0,0.0
25,77.0,144.0,150.0,4.0,0.0
26,73.0,240.0,870.0,6.0,0.0
27,80.0,0.0,300.0,1.0,0.0
28,73.0,96.0,300.0,3.0,0.0
29,47.0,0.0,390.0,8.0,0.0
30,89.0,0.0,300.0,0.0,0.0
31,59.0,0.0,390.0,7.0,0.0
32,59.0,0.0,300.0,2.0,0.0
33,80.0,0.0,150.0,5.0,0.0
34,80.0,336.0,150.0,4.0,0.0
35,58.0,0.0,390.0,7.0,0.0
36,66.0,0.0,300.0,3.0,0.0
37,73.0,0.0,300.0,3.0,0.0
38,58.0,96.0,300.0,2.0,0.0
39,78.0,0.0,240.0,4.0,0.0
40,90.0,0.0,300.0,0.0,0.0
41,78.0,0.0,300.0,1.0,0.0
42,78.0,48.0,240.0,5.0,0.0
43,46.0,0.0,390.0,8.0,0.0
44,85.0,0.0,300.0,1.0,0.0
45,82.0,0.0,150.0,4.0,0.0
46,82.0,0.0,150.0,5.0,0.0
47,80.0,0.0,150.0,5.0,0.0
48,59.0,0.0,390.0,7.0,0.0
49,80.0,96.0,300.0,1.0,0.0
50,47.0,336.0,390.0,8.0,0.0
51,59.0,0.0,300.0,2.0,0.0
52,73.0,0.0,300.0,3.0,0.0
53,89.0,0.0,300.0,0.0,0.0
54,73.0,0.0,780.0,6.0,0.0
55,80.0,144.0,150.0,4.0,0.0
56,85.0,0.0,300.0,1.0,0.0
57,77.0,0.0,150.0,5.0,0.0
58,77.0,0.0,150.0,4.0,0.0
59,73.0,0.0,300.0,3.0,0.0
60,78.0,48.0,240.0,5.0,0.0
61,58.0,0.0,390.0,7.0,0.0
62,78.0,0.0,300.0,1.0,0.0
63,85.0,96.0,300.0,1.0,0.0
64,78.0,0.0,240.0,4.0,0.0
65,46.0,240.0,390.0,8.0,0.0
66,90.0,0.0,300.0,0.0,0.0
67,66.0,0.0,300.0,3.0,0.0
68,58.0,0.0,300.0,2.0,0.0
69,82.0,0.0,150.0,5.0,0.0
70,82.0,0.0,150.0,4.0,0.0
71,59.0,0.0,300.0,2.0,0.0
72,85.0,0.0,300.0,1.0,0.0
73,80.0,0.0,150.0,5.0,0.0
74,47.0,0.0,390.0,8.0,0.0
75,59.0,0.0,390.0,7.0,0.0
76,80.0,0.0,300.0,1.0,0.0
77,89.0,0.0,300.0,0.0,0.0
78,73.0,96.0,300.0,3.0,0.0
79,73.0,0.0,390.0,6.0,0.0
80,80.0,144.0,150.0,4.0,0.0
81,77.0,0.0,150.0,5.0,0.0
82,77.0,864.0,150.0,4.0,0.0
83,78.0,0.0,780.0,1.0,0.0
84,85.0,0.0,780.0,1.0,0.0
85,78.0,0.0,780.0,5.0,0.0
86,78.0,0.0,780.0,4.0,0.0
87,46.0,0.0,780.0,8.0,0.0
88,58.0,0.0,780.0,7.0,0.0
89,90.0,0.0,780.0,0.0,0.0
90,58.0,0.0,780.0,2.0,0.0
91,66.0,0.0,780.0,3.0,0.0
92,73.0,1152.0,780.0,3.0,0.0
93,73.0,0.0,780.0,6.0,0.0
94,78.0,288.0,480.0,4.0,0.0
95,79.0,480.0,300.0,4.0,0.0
96,52.0,0.0,780.0,2.0,0.0
97,40.0,480.0,780.0,8.0,0.0
98,52.0,0.0,780.0,7.0,0.0
99,64.0,0.0,300.0,6.0,0.0
100,82.0,0.0,300.0,4.0,0.0
101,67.0,0.0,300.0,5.0,0.0
102,85.0,0.0,300.0,4.0,0.0
103,67.0,0.0,300.0,5.0,0.0
104,64.0,480.0,300.0,6.0,0.0
105,88.0,960.0,300.0,4.0,0.0
106,64.0,0.0,300.0,6.0,0.0
107,67.0,0.0,300.0,5.0,0.0
108,42.0,0.0,780.0,8.0,0.0
109,54.0,0.0,780.0,7.0,0.0
110,91.0,288.0,960.0,4.0,0.0
111,54.0,192.0,780.0,2.0,0.0
112,70.0,0.0,300.0,5.0,0.0
113,64.0,0.0,300.0,6.0,0.0
114,64.0,0.0,300.0,6.0,0.0
115,90.0,0.0,300.0,4.0,0.0
116,70.0,336.0,300.0,5.0,0.0
117,88.0,0.0,300.0,1.0,0.0
118,54.0,0.0,300.0,2.0,0.0
119,90.0,0.0,300.0,0.0,0.0
120,66.0,96.0,780.0,6.0,0.0
121,54.0,96.0,300.0,7.0,0.0
122,82.0,0.0,300.0,1.0,0.0
123,66.0,0.0,300.0,3.0,0.0
124,76.0,0.0,300.0,3.0,0.0
125,82.0,144.0,150.0,4.0,0.0
126,73.0,0.0,150.0,5.0,0.0
127,42.0,0.0,300.0,8.0,0.0
128,76.0,336.0,150.0,5.0,0.0
129,85.0,0.0,150.0,4.0,0.0
130,86.0,0.0,300.0,1.0,0.0
131,47.0,0.0,300.0,8.0,0.0
132,59.0,0.0,300.0,7.0,0.0
133,74.0,48.0,240.0,5.0,0.0
134,83.0,0.0,300.0,1.0,0.0
135,90.0,0.0,300.0,0.0,0.0
136,66.0,0.0,300.0,3.0,0.0
137,74.0,0.0,300.0,3.0,0.0
138,59.0,0.0,300.0,2.0,0.0
139,83.0,0.0,240.0,4.0,0.0
140,86.0,240.0,150.0,4.0,0.0
141,78.0,0.0,150.0,5.0,0.0
142,54.0,0.0,300.0,7.0,0.0
143,82.0,0.0,300.0,1.0,0.0
144,88.0,0.0,300.0,1.0,0.0
145,76.0,0.0,150.0,5.0,0.0
146,85.0,144.0,150.0,4.0,0.0
147,54.0,96.0,300.0,2.0,0.0
148,42.0,0.0,300.0,8.0,0.0
149,76.0,0.0,300.0,3.0,0.0
150,66.0,0.0,300.0,3.0,0.0
151,66.0,144.0,570.0,6.0,0.0
152,90.0,0.0,300.0,0.0,0.0
153,82.0,192.0,150.0,4.0,0.0
154,73.0,0.0,150.0,5.0,0.0
155,90.0,0.0,300.0,0.0,0.0
156,59.0,0.0,300.0,7.0,0.0
157,83.0,0.0,300.0,1.0,0.0
158,86.0,0.0,300.0,1.0,0.0
159,83.0,0.0,240.0,4.0,0.0
160,59.0,0.0,300.0,2.0,0.0
161,74.0,0.0,300.0,3.0,0.0
162,66.0,0.0,300.0,3.0,0.0
163,47.0,96.0,300.0,8.0,0.0
164,74.0,48.0,240.0,5.0,0.0
165,78.0,240.0,150.0,5.0,0.0
166,86.0,0.0,150.0,4.0,0.0
167,54.0,0.0,300.0,2.0,0.0
168,76.0,0.0,150.0,5.0,0.0
169,85.0,144.0,150.0,4.0,0.0
170,66.0,0.0,300.0,3.0,0.0
171,76.0,0.0,300.0,3.0,0.0
172,82.0,0.0,300.0,1.0,0.0
173,66.0,0.0,300.0,6.0,0.0
174,54.0,96.0,300.0,7.0,0.0
175,88.0,0.0,300.0,1.0,0.0
176,42.0,0.0,300.0,8.0,0.0
177,90.0,0.0,300.0,0.0,0.0
178,82.0,864.0,150.0,4.0,0.0
179,73.0,0.0,150.0,5.0,0.0
180,47.0,0.0,780.0,8.0,0.0
181,59.0,1152.0,780.0,2.0,0.0
182,83.0,0.0,780.0,4.0,0.0
183,66.0,0.0,780.0,3.0,0.0
184,74.0,0.0,780.0,3.0,0.0
185,66.0,0.0,780.0,6.0,0.0
186,86.0,0.0,780.0,1.0,0.0
187,83.0,0.0,780.0,1.0,0.0
188,90.0,0.0,780.0,0.0,0.0
189,74.0,0.0,780.0,5.0,0.0
190,59.0,0.0,780.0,7.0,0.0
191,66.0,288.0,480.0,4.0,0.0
192,71.0,480.0,300.0,4.0,0.0
193,47.0,0.0,780.0,8.0,0.0
194,59.0,0.0,780.0,7.0,0.0
195,59.0,0.0,780.0,2.0,0.0
196,74.0,480.0,300.0,4.0,0.0
197,71.0,0.0,300.0,5.0,0.0
198,62.0,0.0,300.0,6.0,0.0
199,71.0,0.0,300.0,5.0,0.0
200,62.0,0.0,300.0,6.0,0.0
201,78.0,480.0,300.0,4.0,0.0
202,71.0,0.0,300.0,5.0,0.0
203,62.0,960.0,300.0,6.0,0.0
204,83.0,0.0,300.0,4.0,0.0
205,86.0,288.0,960.0,4.0,0.0
206,47.0,192.0,780.0,8.0,0.0
207,59.0,0.0,780.0,7.0,0.0
208,59.0,0.0,780.0,2.0,0.0
209,65.0,0.0,300.0,6.0,0.0
210,68.0,0.0,300.0,5.0,0.0
211,68.0,0.0,300.0,5.0,0.0
212,65.0,0.0,300.0,6.0,0.0
213,85.0,336.0,300.0,4.0,0.0
214,47.0,0.0,390.0,8.0,0.0
215,77.0,0.0,150.0,4.0,0.0
216,85.0,0.0,300.0,1.0,0.0
217,73.0,96.0,300.0,3.0,0.0
218,59.0,0.0,300.0,2.0,0.0
219,89.0,0.0,300.0,0.0,0.0
220,73.0,0.0,870.0,6.0,0.0
221,80.0,0.0,300.0,1.0,0.0
222,59.0,0.0,390.0,7.0,0.0
223,77.0,144.0,150.0,5.0,0.0
224,80.0,336.0,150.0,4.0,0.0
225,80.0,0.0,150.0,5.0,0.0
226,90.0,0.0,300.0,0.0,0.0
227,78.0,48.0,240.0,5.0,0.0
228,78.0,0.0,240.0,4.0,0.0
229,58.0,0.0,300.0,2.0,0.0
230,73.0,0.0,300.0,3.0,0.0
231,78.0,0.0,300.0,1.0,0.0
232,46.0,0.0,390.0,8.0,0.0
233,58.0,0.0,390.0,7.0,0.0
234,85.0,0.0,300.0,1.0,0.0
235,66.0,96.0,300.0,3.0,0.0
236,82.0,240.0,150.0,4.0,0.0
237,82.0,0.0,150.0,5.0,0.0
238,89.0,0.0,300.0,0.0,0.0
239,85.0,0.0,300.0,1.0,0.0
240,80.0,0.0,300.0,1.0,0.0
241,73.0,0.0,780.0,6.0,0.0
242,80.0,144.0,150.0,4.0,0.0
243,59.0,0.0,390.0,7.0,0.0
244,80.0,0.0,150.0,5.0,0.0
245,47.0,336.0,390.0,8.0,0.0
246,73.0,96.0,300.0,3.0,0.0
247,59.0,0.0,300.0,2.0,0.0
248,77.0,0.0,150.0,5.0,0.0
249,77.0,0.0,150.0,4.0,0.0
250,46.0,0.0,390.0,8.0,0.0
251,78.0,48.0,240.0,5.0,0.0
252,58.0,0.0,390.0,7.0,0.0
253,58.0,0.0,300.0,2.0,0.0
254,66.0,0.0,300.0,3.0,0.0
255,78.0,0.0,240.0,4.0,0.0
256,85.0,96.0,300.0,1.0,0.0
257,78.0,0.0,300.0,1.0,0.0
258,90.0,0.0,300.0,0.0,0.0
259,73.0,0.0,300.0,3.0,0.0
260,82.0,0.0,150.0,4.0,0.0
261,82.0,240.0,150.0,5.0,0.0
262,80.0,0.0,300.0,1.0,0.0
263,73.0,96.0,300.0,3.0,0.0
264,59.0,0.0,300.0,2.0,0.0
265,80.0,144.0,150.0,4.0,0.0
266,47.0,0.0,390.0,8.0,0.0
267,85.0,0.0,300.0,1.0,0.0
268,73.0,864.0,390.0,6.0,0.0
269,80.0,0.0,150.0,5.0,0.0
270,59.0,0.0,390.0,7.0,0.0
271,89.0,0.0,300.0,0.0,0.0
272,77.0,0.0,150.0,4.0,0.0
273,77.0,0.0,150.0,5.0,0.0
274,58.0,0.0,780.0,2.0,0.0
275,90.0,0.0,780.0,0.0,0.0
276,46.0,0.0,780.0,8.0,0.0
277,78.0,0.0,780.0,4.0,0.0
278,78.0,0.0,780.0,5.0,0.0
279,66.0,0.0,780.0,3.0,0.0
280,73.0,0.0,780.0,6.0,0.0
281,73.0,1152.0,780.0,3.0,0.0
282,78.0,0.0,780.0,1.0,0.0
283,85.0,0.0,780.0,1.0,0.0
284,58.0,0.0,780.0,7.0,0.0
285,78.0,288.0,480.0,4.0,0.0
286,52.0,0.0,780.0,2.0,0.0
287,40.0,0.0,780.0,8.0,0.0
288,79.0,480.0,300.0,4.0,0.0
289,52.0,480.0,780.0,7.0,0.0
290,67.0,0.0,300.0,5.0,0.0
291,64.0,0.0,300.0,6.0,0.0
292,82.0,0.0,300.0,4.0,0.0
293,85.0,0.0,300.0,4.0,0.0
294,67.0,480.0,300.0,5.0,0.0
295,64.0,0.0,300.0,6.0,0.0
296,88.0,960.0,300.0,4.0,0.0
297,64.0,0.0,300.0,6.0,0.0
298,67.0,0.0,300.0,5.0,0.0
299,91.0,288.0,960.0,4.0,0.0
300,54.0,0.0,780.0,2.0,0.0
301,54.0,192.0,780.0,7.0,0.0
302,42.0,0.0,780.0,8.0,0.0
303,70.0,0.0,300.0,5.0,0.0
304,64.0,0.0,300.0,6.0,0.0
305,90.0,336.0,300.0,4.0,0.0
306,64.0,0.0,300.0,6.0,0.0
307,70.0,0.0,300.0,5.0,0.0
308,90.0,96.0,300.0,0.0,0.0
309,42.0,0.0,300.0,8.0,0.0
310,54.0,0.0,300.0,7.0,0.0
311,82.0,0.0,300.0,1.0,0.0
312,76.0,0.0,300.0,3.0,0.0
313,82.0,144.0,150.0,4.0,0.0
314,66.0,0.0,300.0,3.0,0.0
315,54.0,0.0,300.0,2.0,0.0
316,66.0,0.0,780.0,6.0,0.0
317,88.0,0.0,300.0,1.0,0.0
318,73.0,0.0,150.0,5.0,0.0
319,85.0,336.0,150.0,4.0,0.0
320,76.0,0.0,150.0,5.0,0.0
321,59.0,0.0,300.0,7.0,0.0
322,66.0,0.0,300.0,3.0,0.0
323,74.0,0.0,300.0,3.0,0.0
324,83.0,48.0,240.0,4.0,0.0
325,74.0,0.0,240.0,5.0,0.0
326,47.0,0.0,300.0,8.0,0.0
327,83.0,0.0,300.0,1.0,0.0
328,59.0,96.0,300.0,2.0,0.0
329,90.0,0.0,300.0,0.0,0.0
330,86.0,0.0,300.0,1.0,0.0
331,78.0,0.0,150.0,5.0,0.0
332,86.0,240.0,150.0,4.0,0.0
333,54.0,0.0,300.0,7.0,0.0
334,90.0,0.0,300.0,0.0,0.0
335,76.0,0.0,150.0,5.0,0.0
336,85.0,144.0,150.0,4.0,0.0
337,76.0,0.0,300.0,3.0,0.0
338,54.0,0.0,300.0,2.0,0.0
339,66.0,0.0,300.0,3.0,0.0
340,88.0,96.0,300.0,1.0,0.0
341,82.0,0.0,300.0,1.0,0.0
342,66.0,144.0,570.0,6.0,0.0
343,42.0,0.0,300.0,8.0,0.0
344,82.0,192.0,150.0,4.0,0.0
345,73.0,0.0,150.0,5.0,0.0
346,74.0,0.0,240.0,5.0,0.0
347,90.0,0.0,300.0,0.0,0.0
348,66.0,0.0,300.0,3.0,0.0
349,74.0,0.0,300.0,3.0,0.0
350,59.0,0.0,300.0,2.0,0.0
351,83.0,0.0,300.0,1.0,0.0
352,86.0,0.0,300.0,1.0,0.0
353,59.0,0.0,300.0,7.0,0.0
354,83.0,48.0,240.0,4.0,0.0
355,47.0,96.0,300.0,8.0,0.0
356,78.0,0.0,150.0,5.0,0.0
357,86.0,240.0,150.0,4.0,0.0
358,82.0,96.0,300.0,1.0,0.0
359,76.0,144.0,150.0,5.0,0.0
360,85.0,0.0,150.0,4.0,0.0
361,66.0,0.0,300.0,6.0,0.0
362,42.0,0.0,300.0,8.0,0.0
363,54.0,0.0,300.0,2.0,0.0
364,88.0,0.0,300.0,1.0,0.0
365,66.0,0.0,300.0,3.0,0.0
366,54.0,0.0,300.0,7.0,0.0
367,76.0,0.0,300.0,3.0,0.0
368,90.0,0.0,300.0,0.0,0.0
369,73.0,0.0,150.0,5.0,0.0
370,82.0,864.0,150.0,4.0,0.0
371,59.0,0.0,780.0,2.0,0.0
372,66.0,960.0,780.0,6.0,0.0
373,86.0,0.0,780.0,1.0,0.0
374,74.0,0.0,780.0,3.0,0.0
375,74.0,0.0,780.0,5.0,0.0
376,66.0,0.0,780.0,3.0,0.0
377,47.0,0.0,780.0,8.0,0.0
378,90.0,0.0,780.0,0.0,0.0
379,83.0,0.0,780.0,4.0,0.0
380,59.0,0.0,780.0,7.0,0.0
381,83.0,0.0,780.0,1.0,0.0
382,54.0,0.0,300.0,3.0,0.0
383,66.0,0.0,300.0,3.0,0.0
384,42.0,0.0,300.0,8.0,0.0
385,90.0,0.0,300.0,0.0,0.0
386,78.0,0.0,300.0,5.0,0.0
387,90.0,0.0,300.0,4.0,0.0
388,78.0,0.0,300.0,1.0,0.0
389,54.0,0.0,300.0,2.0,0.0
390,66.0,0.0,300.0,2.0,0.0
391,66.0,0.0,300.0,6.0,0.0
392,66.0,0.0,300.0,1.0,0.0
393,54.0,480.0,300.0,7.0,0.0
394,78.0,0.0,300.0,5.0,0.0
395,66.0,480.0,300.0,6.0,0.0
396,66.0,0.0,780.0,3.0,0.0
397,54.0,0.0,780.0,3.0,0.0
398,78.0,0.0,780.0,1.0,0.0
399,42.0,0.0,780.0,8.0,0.0
400,90.0,0.0,780.0,0.0,0.0
401,54.0,0.0,300.0,7.0,0.0
402,66.0,0.0,780.0,2.0,0.0
403,54.0,0.0,780.0,2.0,0.0
404,66.0,0.0,780.0,1.0,0.0
405,90.0,96.0,1140.0,4.0,0.0
406,70.0,384.0,300.0,6.0,0.0
407,66.0,0.0,300.0,7.0,0.0
408,73.0,0.0,300.0,5.0,0.0
409,73.0,480.0,300.0,5.0,0.0
410,66.0,0.0,300.0,7.0,0.0
411,70.0,0.0,300.0,6.0,0.0
412,73.0,0.0,300.0,5.0,0.0
413,66.0,0.0,300.0,7.0,0.0
414,78.0,252.0,300.0,4.0,0.0
415,70.0,0.0,300.0,6.0,0.0
416,66.0,72.0,1140.0,7.0,0.0
417,71.0,264.0,480.0,6.0,0.0
418,81.0,60.0,60.0,4.0,0.0
419,74.0,0.0,480.0,5.0,0.0
420,79.0,60.0,60.0,4.0,0.0
421,81.0,60.0,60.0,4.0,0.0
422,79.0,60.0,60.0,4.0,0.0
423,81.0,60.0,60.0,4.0,0.0
424,79.0,60.0,60.0,4.0,0.0
425,81.0,60.0,60.0,4.0,0.0
426,79.0,0.0,60.0,4.0,0.0
427,78.0,24.0,270.0,4.0,0.0
428,70.0,0.0,300.0,6.0,0.0
429,73.0,384.0,300.0,5.0,0.0
430,70.0,0.0,300.0,6.0,0.0
431,78.0,24.0,270.0,4.0,0.0
432,73.0,480.0,300.0,5.0,0.0
433,78.0,0.0,300.0,5.0,0.0
434,54.0,0.0,300.0,7.0,0.0
435,66.0,0.0,300.0,2.0,0.0
436,54.0,0.0,300.0,2.0,0.0
437,66.0,0.0,300.0,3.0,0.0
438,54.0,480.0,300.0,3.0,0.0
439,42.0,0.0,300.0,8.0,0.0
440,78.0,0.0,300.0,1.0,0.0
441,66.0,0.0,300.0,1.0,0.0
442,90.0,0.0,300.0,4.0,0.0
443,90.0,0.0,300.0,0.0,0.0
444,66.0,0.0,300.0,6.0,0.0
445,66.0,384.0,780.0,2.0,0.0
446,54.0,0.0,300.0,7.0,0.0
447,66.0,0.0,300.0,6.0,0.0
448,78.0,480.0,300.0,5.0,0.0
449,78.0,0.0,780.0,1.0,0.0
450,66.0,0.0,780.0,1.0,0.0
451,42.0,0.0,780.0,8.0,0.0
452,90.0,0.0,780.0,0.0,0.0
453,90.0,96.0,1140.0,4.0,0.0
454,54.0,0.0,780.0,3.0,0.0
455,66.0,0.0,780.0,3.0,0.0
456,54.0,0.0,780.0,2.0,0.0
457,66.0,0.0,300.0,7.0,0.0
458,73.0,0.0,300.0,5.0,0.0
459,70.0,0.0,300.0,6.0,0.0
460,66.0,480.0,300.0,7.0,0.0
461,70.0,0.0,300.0,6.0,0.0
462,73.0,0.0,300.0,5.0,0.0
463,73.0,0.0,300.0,5.0,0.0
464,70.0,0.0,300.0,6.0,0.0
465,66.0,96.0,300.0,7.0,0.0
466,78.0,156.0,390.0,4.0,0.0
467,74.0,0.0,480.0,5.0,0.0
468,81.0,60.0,60.0,4.0,0.0
469,71.0,0.0,480.0,6.0,0.0
470,66.0,96.0,1140.0,7.0,0.0
471,79.0,60.0,60.0,4.0,0.0
472,81.0,60.0,60.0,4.0,0.0
473,79.0,60.0,60.0,4.0,0.0
474,81.0,60.0,60.0,4.0,0.0
475,79.0,60.0,60.0,4.0,0.0
476,81.0,60.0,60.0,4.0,0.0
477,79.0,264.0,60.0,4.0,0.0
478,70.0,384.0,300.0,6.0,0.0
479,73.0,0.0,300.0,5.0,0.0
480,78.0,24.0,270.0,4.0,0.0
481,78.0,576.0,390.0,4.0,0.0
482,70.0,0.0,300.0,6.0,0.0
483,73.0,96.0,300.0,5.0,0.0
484,78.0,288.0,480.0,4.0,0.0
485,52.0,0.0,780.0,2.0,0.0
486,52.0,0.0,780.0,7.0,0.0
487,40.0,0.0,780.0,8.0,0.0
488,79.0,480.0,300.0,4.0,0.0
489,64.0,480.0,300.0,6.0,0.0
490,82.0,0.0,300.0,4.0,0.0
491,67.0,0.0,300.0,5.0,0.0
492,67.0,0.0,300.0,5.0,0.0
493,64.0,0.0,300.0,6.0,0.0
494,85.0,480.0,300.0,4.0,0.0
495,88.0,0.0,300.0,4.0,0.0
496,64.0,960.0,300.0,6.0,0.0
497,67.0,0.0,300.0,5.0,0.0
498,91.0,288.0,960.0,4.0,0.0
499,54.0,0.0,780.0,2.0,0.0
500,54.0,0.0,780.0,7.0,0.0
501,42.0,0.0,780.0,8.0,0.0
502,70.0,96.0,300.0,5.0,0.0
503,64.0,96.0,390.0,6.0,0.0
504,70.0,0.0,300.0,5.0,0.0
505,90.0,96.0,300.0,4.0,0.0
506,64.0,240.0,390.0,6.0,0.0
507,66.0,0.0,870.0,6.0,0.0
508,82.0,0.0,300.0,1.0,0.0
509,88.0,96.0,300.0,1.0,0.0
510,76.0,0.0,300.0,3.0,0.0
511,42.0,0.0,300.0,8.0,0.0
512,54.0,0.0,300.0,2.0,0.0
513,90.0,0.0,300.0,0.0,0.0
514,82.0,0.0,150.0,4.0,0.0
515,54.0,0.0,300.0,7.0,0.0
516,66.0,0.0,300.0,3.0,0.0
517,73.0,144.0,150.0,5.0,0.0
518,85.0,336.0,150.0,4.0,0.0
519,76.0,0.0,150.0,5.0,0.0
520,86.0,0.0,300.0,1.0,0.0
521,83.0,0.0,300.0,1.0,0.0
522,74.0,48.0,240.0,5.0,0.0
523,90.0,0.0,300.0,0.0,0.0
524,83.0,0.0,240.0,4.0,0.0
525,59.0,0.0,300.0,7.0,0.0
526,66.0,0.0,300.0,3.0,0.0
527,47.0,96.0,300.0,8.0,0.0
528,59.0,0.0,300.0,2.0,0.0
529,74.0,0.0,300.0,3.0,0.0
530,86.0,240.0,150.0,4.0,0.0
531,78.0,0.0,150.0,5.0,0.0
532,76.0,0.0,150.0,5.0,0.0
533,76.0,0.0,300.0,3.0,0.0
534,66.0,0.0,300.0,3.0,0.0
535,88.0,0.0,300.0,1.0,0.0
536,54.0,0.0,300.0,7.0,0.0
537,82.0,0.0,300.0,1.0,0.0
538,42.0,0.0,300.0,8.0,0.0
539,66.0,0.0,780.0,6.0,0.0
540,85.0,144.0,150.0,4.0,0.0
541,90.0,0.0,300.0,0.0,0.0
542,54.0,96.0,300.0,2.0,0.0
543,82.0,336.0,150.0,4.0,0.0
544,73.0,0.0,150.0,5.0,0.0
545,59.0,0.0,300.0,2.0,0.0
546,74.0,48.0,240.0,5.0,0.0
547,74.0,0.0,300.0,3.0,0.0
548,83.0,0.0,300.0,1.0,0.0
549,86.0,0.0,300.0,1.0,0.0
550,66.0,0.0,300.0,3.0,0.0
551,47.0,96.0,300.0,8.0,0.0
552,83.0,0.0,240.0,4.0,0.0
553,90.0,0.0,300.0,0.0,0.0
554,59.0,0.0,300.0,7.0,0.0
555,78.0,240.0,150.0,5.0,0.0
556,86.0,0.0,150.0,4.0,0.0
557,54.0,0.0,300.0,7.0,0.0
558,82.0,0.0,300.0,1.0,0.0
559,76.0,0.0,300.0,3.0,0.0
560,66.0,0.0,300.0,3.0,0.0
561,54.0,0.0,300.0,2.0,0.0
562,88.0,0.0,300.0,1.0,0.0
563,90.0,96.0,300.0,0.0,0.0
564,85.0,144.0,150.0,4.0,0.0
565,76.0,0.0,150.0,5.0,0.0
566,66.0,0.0,390.0,6.0,0.0
567,42.0,0.0,300.0,8.0,0.0
568,73.0,0.0,150.0,5.0,0.0
569,82.0,864.0,150.0,4.0,0.0
570,59.0,0.0,780.0,7.0,0.0
571,83.0,0.0,780.0,4.0,0.0
572,86.0,0.0,780.0,1.0,0.0
573,83.0,0.0,780.0,1.0,0.0
574,90.0,0.0,780.0,0.0,0.0
575,66.0,0.0,780.0,6.0,0.0
576,74.0,0.0,780.0,5.0,0.0
577,47.0,960.0,780.0,8.0,0.0
578,74.0,0.0,780.0,3.0,0.0
579,66.0,0.0,780.0,3.0,0.0
580,59.0,0.0,780.0,2.0,0.0
581,90.0,0.0,300.0,0.0,0.0
582,66.0,0.0,300.0,6.0,0.0
583,42.0,0.0,300.0,8.0,0.0
584,90.0,0.0,300.0,4.0,0.0
585,78.0,0.0,300.0,5.0,0.0
586,54.0,0.0,300.0,7.0,0.0
587,66.0,0.0,300.0,3.0,0.0
588,54.0,0.0,300.0,2.0,0.0
589,78.0,0.0,300.0,1.0,0.0
590,54.0,0.0,300.0,3.0,0.0
591,66.0,480.0,300.0,1.0,0.0
592,78.0,0.0,780.0,1.0,0.0
593,42.0,0.0,780.0,8.0,0.0
594,54.0,0.0,300.0,7.0,0.0
595,66.0,480.0,300.0,6.0,0.0
596,66.0,0.0,780.0,2.0,0.0
597,90.0,0.0,780.0,0.0,0.0
598,54.0,0.0,780.0,2.0,0.0
599,54.0,0.0,780.0,3.0,0.0
600,66.0,0.0,780.0,3.0,0.0
601,78.0,0.0,300.0,5.0,0.0
602,90.0,96.0,1140.0,4.0,0.0
603,66.0,0.0,780.0,1.0,0.0
604,66.0,0.0,300.0,7.0,0.0
605,73.0,384.0,300.0,5.0,0.0
606,70.0,0.0,300.0,6.0,0.0
607,70.0,0.0,300.0,6.0,0.0
608,66.0,0.0,300.0,7.0,0.0
609,73.0,480.0,300.0,5.0,0.0
610,78.0,0.0,300.0,4.0,0.0
611,66.0,252.0,300.0,7.0,0.0
612,70.0,0.0,300.0,6.0,0.0
613,73.0,0.0,300.0,5.0,0.0
614,66.0,72.0,1140.0,7.0,0.0
615,74.0,0.0,480.0,5.0,0.0
616,81.0,60.0,60.0,4.0,0.0
617,71.0,264.0,480.0,6.0,0.0
618,79.0,60.0,60.0,4.0,0.0
619,81.0,60.0,60.0,4.0,0.0
620,79.0,60.0,60.0,4.0,0.0
621,81.0,60.0,60.0,4.0,0.0
622,79.0,60.0,60.0,4.0,0.0
623,81.0,60.0,60.0,4.0,0.0
624,79.0,0.0,60.0,4.0,0.0
625,73.0,0.0,300.0,5.0,0.0
626,78.0,24.0,270.0,4.0,0.0
627,70.0,384.0,300.0,6.0,0.0
628,73.0,480.0,300.0,5.0,0.0
629,70.0,0.0,300.0,6.0,0.0
630,78.0,24.0,270.0,4.0,0.0
631,54.0,480.0,300.0,2.0,0.0
632,66.0,0.0,300.0,6.0,0.0
633,78.0,0.0,300.0,5.0,0.0
634,66.0,0.0,300.0,2.0,0.0
635,54.0,0.0,300.0,7.0,0.0
636,90.0,0.0,300.0,4.0,0.0
637,42.0,0.0,300.0,8.0,0.0
638,66.0,0.0,300.0,1.0,0.0
639,78.0,0.0,300.0,1.0,0.0
640,54.0,0.0,300.0,3.0,0.0
641,90.0,0.0,300.0,0.0,0.0
642,66.0,0.0,300.0,3.0,0.0
643,54.0,0.0,780.0,2.0,0.0
644,42.0,0.0,780.0,8.0,0.0
645,54.0,0.0,780.0,3.0,0.0
646,78.0,0.0,780.0,1.0,0.0
647,66.0,0.0,780.0,2.0,0.0
648,54.0,480.0,300.0,7.0,0.0
649,66.0,0.0,780.0,1.0,0.0
650,66.0,0.0,780.0,3.0,0.0
651,90.0,0.0,780.0,0.0,0.0
652,90.0,96.0,1140.0,4.0,0.0
653,66.0,0.0,300.0,6.0,0.0
654,78.0,0.0,300.0,5.0,0.0
655,66.0,0.0,300.0,7.0,0.0
656,70.0,384.0,300.0,6.0,0.0
657,73.0,0.0,300.0,5.0,0.0
658,66.0,480.0,300.0,7.0,0.0
659,73.0,0.0,300.0,5.0,0.0
660,70.0,0.0,300.0,6.0,0.0
661,70.0,0.0,300.0,6.0,0.0
662,66.0,0.0,300.0,7.0,0.0
663,73.0,96.0,300.0,5.0,0.0
664,78.0,156.0,390.0,4.0,0.0
665,71.0,0.0,480.0,6.0,0.0
666,66.0,96.0,1140.0,7.0,0.0
667,81.0,60.0,60.0,4.0,0.0
668,74.0,264.0,480.0,5.0,0.0
669,79.0,60.0,60.0,4.0,0.0
670,81.0,60.0,60.0,4.0,0.0
671,79.0,60.0,60.0,4.0,0.0
672,81.0,60.0,60.0,4.0,0.0
673,79.0,60.0,60.0,4.0,0.0
674,81.0,60.0,60.0,4.0,0.0
675,79.0,0.0,60.0,4.0,0.0
676,73.0,384.0,300.0,5.0,0.0
677,78.0,24.0,270.0,4.0,0.0
678,70.0,0.0,300.0,6.0,0.0
679,70.0,0.0,300.0,6.0,0.0
680,73.0,96.0,300.0,5.0,0.0
681,78.0,576.0,390.0,4.0,0.0
682,78.0,288.0,480.0,4.0,0.0
683,40.0,0.0,780.0,8.0,0.0
684,52.0,0.0,780.0,2.0,0.0
685,79.0,480.0,300.0,4.0,0.0
686,52.0,480.0,780.0,7.0,0.0
687,67.0,0.0,300.0,5.0,0.0
688,64.0,0.0,300.0,6.0,0.0
689,82.0,0.0,300.0,4.0,0.0
690,64.0,0.0,300.0,6.0,0.0
691,67.0,480.0,300.0,5.0,0.0
692,85.0,0.0,300.0,4.0,0.0
693,88.0,0.0,300.0,4.0,0.0
694,64.0,0.0,300.0,6.0,0.0
695,67.0,960.0,300.0,5.0,0.0
696,42.0,96.0,780.0,8.0,0.0
697,54.0,0.0,780.0,7.0,0.0
698,91.0,288.0,960.0,4.0,0.0
699,54.0,0.0,780.0,2.0,0.0
700,64.0,96.0,390.0,6.0,0.0
701,70.0,0.0,300.0,5.0,0.0
702,70.0,0.0,300.0,5.0,0.0
703,64.0,240.0,390.0,6.0,0.0
704,90.0,96.0,300.0,4.0,0.0
705,73.0,144.0,150.0,5.0,0.0
706,54.0,0.0,300.0,7.0,0.0
707,66.0,0.0,870.0,6.0,0.0
708,88.0,0.0,300.0,1.0,0.0
709,82.0,96.0,300.0,1.0,0.0
710,54.0,0.0,300.0,2.0,0.0
711,90.0,0.0,300.0,0.0,0.0
712,66.0,0.0,300.0,3.0,0.0
713,82.0,0.0,150.0,4.0,0.0
714,76.0,0.0,300.0,3.0,0.0
715,42.0,0.0,300.0,8.0,0.0
716,76.0,0.0,150.0,5.0,0.0
717,85.0,336.0,150.0,4.0,0.0
718,86.0,96.0,300.0,1.0,0.0
719,83.0,0.0,300.0,1.0,0.0
720,74.0,48.0,240.0,5.0,0.0
721,59.0,0.0,300.0,7.0,0.0
722,66.0,0.0,300.0,3.0,0.0
723,47.0,0.0,300.0,8.0,0.0
724,90.0,0.0,300.0,0.0,0.0
725,59.0,0.0,300.0,2.0,0.0
726,83.0,0.0,240.0,4.0,0.0
727,74.0,0.0,300.0,3.0,0.0
728,78.0,0.0,150.0,5.0,0.0
729,86.0,240.0,150.0,4.0,0.0
730,90.0,0.0,300.0,0.0,0.0
731,54.0,0.0,300.0,7.0,0.0
732,42.0,0.0,300.0,8.0,0.0
733,66.0,0.0,780.0,6.0,0.0
734,85.0,144.0,150.0,4.0,0.0
735,66.0,0.0,300.0,3.0,0.0
736,88.0,0.0,300.0,1.0,0.0
737,76.0,0.0,150.0,5.0,0.0
738,82.0,96.0,300.0,1.0,0.0
739,54.0,0.0,300.0,2.0,0.0
740,76.0,0.0,300.0,3.0,0.0
741,82.0,0.0,150.0,4.0,0.0
742,73.0,336.0,150.0,5.0,0.0
743,59.0,0.0,300.0,7.0,0.0
744,66.0,0.0,300.0,3.0,0.0
745,90.0,0.0,300.0,0.0,0.0
746,83.0,0.0,300.0,1.0,0.0
747,74.0,96.0,300.0,3.0,0.0
748,86.0,0.0,300.0,1.0,0.0
749,83.0,48.0,240.0,4.0,0.0
750,47.0,0.0,300.0,8.0,0.0
751,74.0,0.0,240.0,5.0,0.0
752,59.0,0.0,300.0,2.0,0.0
753,86.0,0.0,150.0,4.0,0.0
754,78.0,240.0,150.0,5.0,0.0
755,85.0,0.0,150.0,4.0,0.0
756,42.0,96.0,300.0,8.0,0.0
757,76.0,144.0,150.0,5.0,0.0
758,90.0,0.0,300.0,0.0,0.0
759,66.0,0.0,390.0,6.0,0.0
760,54.0,0.0,300.0,2.0,0.0
761,54.0,0.0,300.0,7.0,0.0
762,88.0,0.0,300.0,1.0,0.0
763,82.0,0.0,300.0,1.0,0.0
764,66.0,0.0,300.0,3.0,0.0
765,76.0,0.0,300.0,3.0,0.0
766,82.0,288.0,150.0,4.0,0.0
767,73.0,0.0,150.0,5.0,0.0
768,59.0,0.0,780.0,2.0,0.0
769,74.0,48.0,390.0,5.0,0.0
770,47.0,144.0,780.0,8.0,0.0
771,86.0,0.0,780.0,1.0,0.0
772,83.0,0.0,780.0,1.0,0.0
773,90.0,0.0,780.0,0.0,0.0
774,59.0,0.0,780.0,7.0,0.0
775,74.0,0.0,780.0,3.0,0.0
776,66.0,0.0,780.0,3.0,0.0
777,66.0,0.0,780.0,6.0,0.0
778,83.0,192.0,180.0,4.0,0.0
779,78.0,240.0,180.0,4.0,0.0
780,86.0,96.0,180.0,4.0,0.0
781,86.0,0.0,180.0,5.0,0.0
782,85.0,240.0,180.0,5.0,0.0
783,85.0,0.0,180.0,4.0,0.0
784,83.0,0.0,180.0,4.0,0.0
785,83.0,240.0,180.0,5.0,0.0
786,81.0,0.0,180.0,5.0,0.0
787,81.0,240.0,180.0,4.0,0.0
788,79.0,240.0,180.0,5.0,0.0
789,79.0,0.0,180.0,4.0,0.0
790,78.0,288.0,180.0,4.0,0.0
791,78.0,0.0,180.0,5.0,0.0
792,79.0,96.0,300.0,1.0,0.0
793,71.0,0.0,300.0,6.0,0.0
794,55.0,0.0,300.0,2.0,0.0
795,43.0,0.0,300.0,8.0,0.0
796,76.0,0.0,240.0,4.0,0.0
797,76.0,0.0,300.0,3.0,0.0
798,88.0,0.0,300.0,0.0,0.0
799,76.0,48.0,240.0,5.0,0.0
800,83.0,0.0,300.0,1.0,0.0
801,71.0,0.0,300.0,3.0,0.0
802,55.0,0.0,300.0,7.0,0.0
803,79.0,240.0,150.0,5.0,0.0
804,79.0,0.0,150.0,4.0,0.0
805,84.0,0.0,300.0,1.0,0.0
806,57.0,0.0,300.0,2.0,0.0
807,78.0,0.0,300.0,1.0,0.0
808,78.0,0.0,150.0,5.0,0.0
809,78.0,144.0,150.0,4.0,0.0
810,69.0,0.0,300.0,3.0,0.0
811,78.0,0.0,300.0,3.0,0.0
812,45.0,0.0,300.0,8.0,0.0
813,57.0,0.0,300.0,7.0,0.0
814,87.0,0.0,300.0,0.0,0.0
815,72.0,96.0,300.0,6.0,0.0
816,75.0,336.0,150.0,4.0,0.0
817,75.0,0.0,150.0,5.0,0.0
818,76.0,0.0,240.0,4.0,0.0
819,83.0,0.0,300.0,1.0,0.0
820,88.0,0.0,300.0,0.0,0.0
821,43.0,0.0,300.0,8.0,0.0
822,76.0,48.0,240.0,5.0,0.0
823,79.0,0.0,300.0,1.0,0.0
824,71.0,0.0,300.0,6.0,0.0
825,76.0,96.0,300.0,3.0,0.0
826,55.0,0.0,300.0,7.0,0.0
827,55.0,0.0,300.0,2.0,0.0
828,79.0,240.0,150.0,5.0,0.0
829,79.0,0.0,150.0,4.0,0.0
830,57.0,0.0,300.0,7.0,0.0
831,57.0,96.0,300.0,2.0,0.0
832,78.0,144.0,150.0,4.0,0.0
833,78.0,0.0,300.0,1.0,0.0
834,84.0,0.0,300.0,1.0,0.0
835,78.0,0.0,300.0,3.0,0.0
836,78.0,0.0,150.0,5.0,0.0
837,45.0,0.0,300.0,8.0,0.0
838,72.0,0.0,300.0,6.0,0.0
839,87.0,0.0,300.0,0.0,0.0
840,69.0,0.0,300.0,3.0,0.0
841,75.0,0.0,150.0,4.0,0.0
842,75.0,288.0,150.0,5.0,0.0
843,88.0,0.0,780.0,0.0,0.0
844,76.0,0.0,180.0,4.0,0.0
845,55.0,0.0,780.0,7.0,0.0
846,83.0,0.0,780.0,1.0,0.0
847,79.0,0.0,780.0,1.0,0.0
848,71.0,0.0,780.0,6.0,0.0
849,76.0,0.0,780.0,3.0,0.0
850,71.0,144.0,780.0,3.0,0.0
851,43.0,0.0,780.0,8.0,0.0
852,55.0,0.0,780.0,2.0,0.0
853,76.0,240.0,180.0,5.0,0.0
854,71.0,0.0,180.0,4.0,0.0
855,71.0,240.0,180.0,5.0,0.0
856,79.0,96.0,180.0,5.0,0.0
857,79.0,0.0,180.0,4.0,0.0
858,78.0,240.0,180.0,4.0,0.0
859,78.0,0.0,180.0,5.0,0.0
860,76.0,0.0,180.0,4.0,0.0
861,76.0,240.0,180.0,5.0,0.0
862,74.0,0.0,180.0,4.0,0.0
863,74.0,240.0,180.0,5.0,0.0
864,73.0,0.0,180.0,4.0,0.0
865,73.0,240.0,180.0,5.0,0.0
866,71.0,0.0,180.0,4.0,0.0
867,71.0,288.0,180.0,5.0,0.0
868,82.0,0.0,300.0,1.0,0.0
869,70.0,0.0,240.0,4.0,0.0
870,61.0,0.0,300.0,6.0,0.0
871,54.0,96.0,300.0,7.0,0.0
872,73.0,0.0,300.0,3.0,0.0
873,54.0,0.0,300.0,2.0,0.0
874,78.0,0.0,300.0,1.0,0.0
875,85.0,0.0,300.0,0.0,0.0
876,42.0,0.0,300.0,8.0,0.0
877,66.0,0.0,300.0,3.0,0.0
878,70.0,48.0,240.0,5.0,0.0
879,73.0,0.0,150.0,5.0,0.0
880,73.0,240.0,150.0,4.0,0.0
881,41.0,0.0,300.0,8.0,0.0
882,53.0,0.0,300.0,7.0,0.0
883,53.0,0.0,300.0,2.0,0.0
884,73.0,96.0,300.0,3.0,0.0
885,83.0,0.0,300.0,1.0,0.0
886,85.0,0.0,870.0,0.0,0.0
887,71.0,0.0,150.0,4.0,0.0
888,61.0,0.0,870.0,6.0,0.0
889,80.0,0.0,300.0,1.0,0.0
890,71.0,144.0,150.0,5.0,0.0
891,68.0,0.0,150.0,5.0,0.0
892,68.0,336.0,150.0,4.0,0.0
893,66.0,0.0,300.0,3.0,0.0
894,54.0,0.0,300.0,2.0,0.0
895,70.0,0.0,240.0,5.0,0.0
896,73.0,0.0,300.0,3.0,0.0
897,54.0,0.0,300.0,7.0,0.0
898,42.0,96.0,300.0,8.0,0.0
899,70.0,48.0,240.0,4.0,0.0
900,78.0,0.0,300.0,1.0,0.0
901,82.0,0.0,300.0,1.0,0.0
902,73.0,0.0,150.0,4.0,0.0
903,73.0,240.0,150.0,5.0,0.0
904,53.0,0.0,300.0,7.0,0.0
905,61.0,96.0,300.0,6.0,0.0
906,71.0,144.0,150.0,4.0,0.0
907,71.0,0.0,150.0,5.0,0.0
908,41.0,0.0,300.0,8.0,0.0
909,80.0,0.0,300.0,1.0,0.0
910,53.0,0.0,300.0,2.0,0.0
911,73.0,0.0,300.0,3.0,0.0
912,83.0,0.0,300.0,1.0,0.0
913,85.0,0.0,300.0,0.0,0.0
914,68.0,288.0,150.0,5.0,0.0
915,68.0,0.0,150.0,4.0,0.0
916,42.0,0.0,780.0,8.0,0.0
917,70.0,0.0,180.0,5.0,0.0
918,54.0,0.0,780.0,2.0,0.0
919,61.0,0.0,780.0,6.0,0.0
920,70.0,240.0,180.0,4.0,0.0
921,82.0,0.0,780.0,1.0,0.0
922,85.0,144.0,780.0,0.0,0.0
923,78.0,0.0,780.0,1.0,0.0
924,54.0,0.0,780.0,7.0,0.0
925,66.0,0.0,780.0,3.0,0.0
926,73.0,0.0,780.0,3.0,0.0
927,66.0,240.0,180.0,4.0,0.0
928,66.0,0.0,180.0,5.0,0.0
929,73.0,96.0,180.0,4.0,0.0
930,73.0,0.0,180.0,5.0,0.0
931,71.0,240.0,180.0,5.0,0.0
932,71.0,0.0,180.0,4.0,0.0
933,70.0,240.0,180.0,5.0,0.0
934,70.0,0.0,180.0,4.0,0.0
935,67.0,240.0,180.0,4.0,0.0
936,67.0,0.0,180.0,5.0,0.0
937,46.0,0.0,390.0,2.0,0.0
938,61.0,0.0,390.0,6.0,0.0
939,66.0,0.0,180.0,4.0,0.0
940,34.0,0.0,390.0,8.0,0.0
941,46.0,48.0,390.0,7.0,0.0
942,66.0,192.0,180.0,5.0,0.0
943,64.0,0.0,180.0,4.0,0.0
944,64.0,240.0,180.0,5.0,0.0
945,90.0,0.0,1530.0,0.0,0.0
946,62.0,0.0,180.0,5.0,0.0
947,54.0,0.0,780.0,6.0,0.0
948,47.0,0.0,780.0,7.0,0.0
949,66.0,0.0,1530.0,1.0,0.0
950,78.0,96.0,1530.0,1.0,0.0
951,47.0,144.0,780.0,2.0,0.0
952,35.0,0.0,780.0,8.0,0.0
953,62.0,240.0,180.0,4.0,0.0
954,62.0,0.0,1530.0,3.0,0.0
955,71.0,0.0,1530.0,3.0,0.0
956,66.0,0.0,180.0,5.0,0.0
957,66.0,240.0,180.0,4.0,0.0
958,71.0,0.0,180.0,5.0,0.0
959,71.0,96.0,180.0,4.0,0.0
960,74.0,240.0,180.0,5.0,0.0
961,74.0,0.0,180.0,4.0,0.0
962,78.0,0.0,180.0,5.0,0.0
963,78.0,240.0,180.0,4.0,0.0
964,78.0,144.0,180.0,4.0,0.0
965,78.0,0.0,180.0,5.0,0.0
966,78.0,192.0,180.0,5.0,0.0
967,38.0,0.0,390.0,8.0,0.0
968,50.0,0.0,390.0,7.0,0.0
969,50.0,48.0,390.0,2.0,0.0
970,78.0,0.0,180.0,4.0,0.0
971,59.0,48.0,870.0,6.0,0.0
972,78.0,0.0,180.0,5.0,0.0
973,78.0,240.0,180.0,4.0,0.0
974,76.0,0.0,180.0,5.0,0.0
975,49.0,0.0,390.0,7.0,0.0
976,49.0,0.0,390.0,2.0,0.0
977,88.0,0.0,180.0,0.0,0.0
978,37.0,0.0,390.0,8.0,0.0
979,79.0,0.0,960.0,1.0,0.0
980,76.0,192.0,180.0,4.0,0.0
981,74.0,0.0,180.0,4.0,0.0
982,74.0,240.0,180.0,5.0,0.0
983,86.0,0.0,180.0,0.0,0.0
984,52.0,0.0,390.0,2.0,0.0
985,40.0,0.0,390.0,8.0,0.0
986,73.0,192.0,180.0,5.0,0.0
987,73.0,0.0,180.0,4.0,0.0
988,52.0,0.0,390.0,7.0,0.0
989,85.0,0.0,180.0,0.0,0.0
990,67.0,48.0,390.0,6.0,0.0
991,71.0,0.0,180.0,4.0,0.0
992,83.0,0.0,180.0,0.0,0.0
993,71.0,48.0,180.0,5.0,0.0
994,73.0,0.0,780.0,3.0,0.0
995,66.0,96.0,780.0,3.0,0.0
996,78.0,0.0,390.0,1.0,0.0
997,70.0,192.0,180.0,5.0,0.0
998,70.0,0.0,180.0,4.0,0.0
999,54.0,0.0,390.0,2.0,0.0
1000,82.0,48.0,390.0,0.0,0.0
1001,42.0,0.0,390.0,8.0,0.0
1002,54.0,0.0,390.0,7.0,0.0
1003,76.0,192.0,15.0,1.0,0.0
1004,61.0,0.0,780.0,6.0,0.0
1005,67.0,240.0,180.0,5.0,0.0
1006,67.0,0.0,180.0,4.0,0.0
1007,46.0,48.0,390.0,8.0,0.0
1008,66.0,0.0,180.0,5.0,0.0
1009,58.0,0.0,390.0,7.0,0.0
1010,58.0,0.0,390.0,2.0,0.0
1011,66.0,96.0,180.0,4.0,0.0
1012,64.0,240.0,180.0,4.0,0.0
1013,64.0,0.0,180.0,5.0,0.0
1014,90.0,0.0,1530.0,0.0,0.0
1015,66.0,0.0,1530.0,1.0,0.0
1016,78.0,0.0,1530.0,1.0,0.0
1017,62.0,96.0,1530.0,3.0,0.0
1018,71.0,0.0,1530.0,3.0,0.0
1019,59.0,0.0,780.0,2.0,0.0
1020,62.0,0.0,180.0,5.0,0.0
1021,62.0,240.0,180.0,4.0,0.0
1022,59.0,0.0,780.0,7.0,0.0
1023,47.0,0.0,780.0,8.0,0.0
1024,54.0,144.0,780.0,6.0,0.0
1025,66.0,0.0,180.0,5.0,0.0
1026,66.0,240.0,180.0,4.0,0.0
1027,71.0,0.0,180.0,5.0,0.0
1028,71.0,96.0,180.0,4.0,0.0
1029,74.0,0.0,180.0,5.0,0.0
1030,74.0,240.0,180.0,4.0,0.0
1031,78.0,240.0,180.0,4.0,0.0
1032,78.0,0.0,180.0,5.0,0.0
1033,78.0,0.0,180.0,5.0,0.0
1034,78.0,144.0,180.0,4.0,0.0
1035,78.0,0.0,180.0,5.0,0.0
1036,62.0,0.0,390.0,2.0,0.0
1037,78.0,192.0,180.0,4.0,0.0
1038,50.0,48.0,390.0,8.0,0.0
1039,62.0,0.0,390.0,7.0,0.0
1040,71.0,0.0,870.0,6.0,0.0
1041,78.0,0.0,180.0,5.0,0.0
1042,78.0,240.0,180.0,4.0,0.0
1043,61.0,0.0,390.0,2.0,0.0
1044,76.0,0.0,180.0,5.0,0.0
1045,79.0,192.0,960.0,1.0,0.0
1046,49.0,0.0,390.0,8.0,0.0
1047,61.0,48.0,390.0,7.0,0.0
1048,88.0,192.0,180.0,0.0,0.0
1049,76.0,0.0,180.0,4.0,0.0
1050,74.0,0.0,180.0,4.0,0.0
1051,74.0,240.0,180.0,5.0,0.0
1052,86.0,0.0,180.0,0.0,0.0
1053,85.0,0.0,180.0,0.0,0.0
1054,52.0,0.0,390.0,8.0,0.0
1055,73.0,0.0,180.0,5.0,0.0
1056,64.0,0.0,390.0,2.0,0.0
1057,67.0,48.0,390.0,6.0,0.0
1058,64.0,0.0,390.0,7.0,0.0
1059,73.0,192.0,180.0,4.0,0.0
1060,83.0,0.0,180.0,0.0,0.0
1061,71.0,48.0,180.0,4.0,0.0
1062,71.0,0.0,180.0,5.0,0.0
1063,61.0,0.0,780.0,6.0,0.0
1064,73.0,0.0,780.0,3.0,0.0
1065,66.0,96.0,780.0,3.0,0.0
1066,78.0,0.0,390.0,1.0,0.0
1067,76.0,0.0,15.0,1.0,0.0
1068,66.0,0.0,390.0,7.0,0.0
1069,54.0,0.0,390.0,8.0,0.0
1070,70.0,192.0,180.0,5.0,0.0
1071,82.0,48.0,390.0,0.0,0.0
1072,66.0,0.0,390.0,2.0,0.0
1073,70.0,0.0,180.0,4.0,0.0
1074,79.0,240.0,180.0,4.0,0.0
1075,79.0,0.0,180.0,5.0,0.0
1076,58.0,48.0,390.0,2.0,0.0
1077,78.0,0.0,180.0,4.0,0.0
1078,46.0,0.0,390.0,8.0,0.0
1079,78.0,96.0,180.0,5.0,0.0
1080,58.0,0.0,390.0,7.0,0.0
1081,76.0,240.0,180.0,5.0,0.0
1082,76.0,0.0,180.0,4.0,0.0
1083,66.0,0.0,780.0,6.0,0.0
1084,59.0,144.0,780.0,2.0,0.0
1085,62.0,0.0,1530.0,3.0,0.0
1086,71.0,0.0,1530.0,3.0,0.0
1087,78.0,0.0,1530.0,1.0,0.0
1088,74.0,0.0,1530.0,1.0,0.0
1089,74.0,0.0,180.0,5.0,0.0
1090,47.0,0.0,780.0,8.0,0.0
1091,90.0,96.0,1530.0,0.0,0.0
1092,74.0,240.0,180.0,4.0,0.0
1093,59.0,0.0,780.0,7.0,0.0
1094,78.0,0.0,180.0,5.0,0.0
1095,78.0,240.0,180.0,4.0,0.0
1096,83.0,96.0,180.0,4.0,0.0
1097,83.0,0.0,180.0,5.0,0.0
1098,86.0,240.0,180.0,4.0,0.0
1099,86.0,0.0,180.0,5.0,0.0
1100,90.0,240.0,180.0,5.0,0.0
1101,90.0,0.0,180.0,4.0,0.0
1102,90.0,0.0,180.0,5.0,0.0
1103,90.0,144.0,180.0,4.0,0.0
1104,90.0,0.0,180.0,5.0,0.0
1105,62.0,0.0,390.0,6.0,0.0
1106,57.0,0.0,390.0,2.0,0.0
1107,57.0,0.0,390.0,7.0,0.0
1108,45.0,48.0,390.0,8.0,0.0
1109,90.0,192.0,180.0,4.0,0.0
1110,90.0,240.0,180.0,4.0,0.0
1111,90.0,0.0,180.0,5.0,0.0
1112,76.0,240.0,180.0,4.0,0.0
1113,76.0,96.0,1530.0,1.0,0.0
1114,43.0,0.0,780.0,8.0,0.0
1115,76.0,0.0,180.0,5.0,0.0
1116,79.0,0.0,1530.0,1.0,0.0
1117,71.0,0.0,780.0,6.0,0.0
1118,55.0,144.0,780.0,2.0,0.0
1119,91.0,0.0,1530.0,0.0,0.0
1120,59.0,0.0,1530.0,3.0,0.0
1121,55.0,0.0,780.0,7.0,0.0
1122,79.0,0.0,180.0,4.0,0.0
1123,79.0,240.0,180.0,5.0,0.0
1124,83.0,96.0,180.0,4.0,0.0
1125,83.0,0.0,180.0,5.0,0.0
1126,88.0,240.0,180.0,5.0,0.0
1127,88.0,0.0,180.0,4.0,0.0
1128,91.0,0.0,180.0,5.0,0.0
1129,91.0,240.0,180.0,4.0,0.0
1130,91.0,144.0,180.0,5.0,0.0
1131,91.0,0.0,180.0,4.0,0.0
1132,91.0,0.0,180.0,5.0,0.0
1133,52.0,0.0,390.0,2.0,0.0
1134,40.0,48.0,390.0,8.0,0.0
1135,91.0,192.0,180.0,4.0,0.0
1136,52.0,0.0,390.0,7.0,0.0
1137,71.0,0.0,390.0,6.0,0.0
1138,91.0,240.0,180.0,5.0,0.0
1139,91.0,0.0,180.0,4.0,0.0
1140,57.0,0.0,780.0,7.0,0.0
1141,69.0,0.0,1530.0,3.0,0.0
1142,73.0,0.0,1530.0,1.0,0.0
1143,76.0,96.0,1530.0,1.0,0.0
1144,88.0,0.0,1530.0,0.0,0.0
1145,45.0,0.0,780.0,8.0,0.0
1146,64.0,144.0,780.0,6.0,0.0
1147,73.0,240.0,180.0,5.0,0.0
1148,57.0,0.0,780.0,2.0,0.0
1149,73.0,0.0,180.0,4.0,0.0
1150,76.0,0.0,180.0,4.0,0.0
1151,76.0,240.0,180.0,5.0,0.0
1152,81.0,0.0,180.0,5.0,0.0
1153,81.0,96.0,180.0,4.0,0.0
1154,85.0,0.0,180.0,5.0,0.0
1155,85.0,240.0,180.0,4.0,0.0
1156,88.0,0.0,180.0,4.0,0.0
1157,88.0,240.0,180.0,5.0,0.0
1158,88.0,0.0,180.0,4.0,0.0
1159,88.0,144.0,180.0,5.0,0.0
1160,43.0,0.0,390.0,8.0,0.0
1161,88.0,192.0,180.0,4.0,0.0
1162,55.0,0.0,390.0,7.0,0.0
1163,55.0,48.0,390.0,2.0,0.0
1164,61.0,0.0,390.0,6.0,0.0
1165,88.0,0.0,180.0,5.0,0.0
1166,88.0,0.0,180.0,4.0,0.0
1167,88.0,240.0,180.0,5.0,0.0
1168,90.0,96.0,1530.0,0.0,0.0
1169,74.0,0.0,180.0,5.0,0.0
1170,62.0,0.0,1530.0,3.0,0.0
1171,54.0,0.0,780.0,2.0,0.0
1172,69.0,0.0,780.0,6.0,0.0
1173,54.0,144.0,780.0,7.0,0.0
1174,74.0,240.0,180.0,4.0,0.0
1175,42.0,0.0,780.0,8.0,0.0
1176,74.0,0.0,1530.0,1.0,0.0
1177,78.0,0.0,1530.0,1.0,0.0
1178,78.0,240.0,180.0,4.0,0.0
1179,78.0,0.0,180.0,5.0,0.0
1180,81.0,0.0,180.0,4.0,0.0
1181,81.0,96.0,180.0,5.0,0.0
1182,86.0,0.0,180.0,4.0,0.0
1183,86.0,240.0,180.0,5.0,0.0
1184,90.0,0.0,180.0,4.0,0.0
1185,90.0,240.0,180.0,5.0,0.0
1186,90.0,144.0,180.0,4.0,0.0
1187,90.0,0.0,180.0,5.0,0.0
1188,69.0,0.0,390.0,6.0,0.0
1189,90.0,192.0,180.0,5.0,0.0
1190,38.0,0.0,390.0,8.0,0.0
1191,90.0,0.0,180.0,4.0,0.0
1192,50.0,48.0,390.0,2.0,0.0
1193,50.0,0.0,390.0,7.0,0.0
1194,90.0,240.0,180.0,4.0,0.0
1195,90.0,0.0,180.0,5.0,0.0
1196,43.0,144.0,780.0,8.0,0.0
1197,55.0,0.0,780.0,2.0,0.0
1198,83.0,240.0,180.0,4.0,0.0
1199,62.0,0.0,780.0,6.0,0.0
1200,55.0,0.0,780.0,7.0,0.0
1201,83.0,0.0,180.0,1.0,0.0
1202,83.0,0.0,180.0,5.0,0.0
1203,85.0,0.0,180.0,1.0,0.0
1204,85.0,0.0,180.0,5.0,0.0
1205,85.0,240.0,180.0,4.0,0.0
1206,86.0,0.0,180.0,4.0,0.0
1207,86.0,96.0,180.0,1.0,0.0
1208,86.0,0.0,180.0,5.0,0.0
1209,85.0,0.0,180.0,1.0,0.0
1210,85.0,240.0,180.0,5.0,0.0
1211,85.0,0.0,180.0,4.0,0.0
1212,83.0,0.0,180.0,5.0,0.0
1213,83.0,240.0,180.0,1.0,0.0
1214,83.0,0.0,180.0,4.0,0.0
1215,81.0,240.0,180.0,5.0,0.0
1216,81.0,0.0,180.0,4.0,0.0
1217,81.0,0.0,180.0,1.0,0.0
1218,45.0,0.0,390.0,8.0,0.0
1219,79.0,192.0,180.0,5.0,0.0
1220,57.0,0.0,390.0,2.0,0.0
1221,57.0,0.0,390.0,7.0,0.0
1222,79.0,0.0,180.0,1.0,0.0
1223,62.0,48.0,390.0,6.0,0.0
1224,79.0,0.0,180.0,4.0,0.0
1225,78.0,240.0,180.0,5.0,0.0
1226,78.0,0.0,180.0,1.0,0.0
1227,78.0,0.0,180.0,4.0,0.0
1228,74.0,144.0,780.0,6.0,0.0
1229,59.0,0.0,780.0,7.0,0.0
1230,47.0,0.0,780.0,8.0,0.0
1231,79.0,240.0,180.0,1.0,0.0
1232,59.0,0.0,780.0,2.0,0.0
1233,79.0,0.0,180.0,5.0,0.0
1234,79.0,0.0,180.0,4.0,0.0
1235,91.0,0.0,180.0,0.0,0.0
1236,81.0,240.0,180.0,1.0,0.0
1237,81.0,0.0,180.0,4.0,0.0
1238,81.0,0.0,180.0,5.0,0.0
1239,93.0,0.0,180.0,0.0,0.0
1240,83.0,0.0,180.0,1.0,0.0
1241,83.0,96.0,180.0,4.0,0.0
1242,83.0,0.0,180.0,5.0,0.0
1243,95.0,0.0,180.0,0.0,0.0
1244,81.0,0.0,180.0,5.0,0.0
1245,81.0,240.0,180.0,1.0,0.0
1246,93.0,0.0,180.0,0.0,0.0
1247,81.0,0.0,180.0,4.0,0.0
1248,91.0,0.0,180.0,0.0,0.0
1249,79.0,240.0,180.0,4.0,0.0
1250,79.0,0.0,180.0,5.0,0.0
1251,79.0,0.0,180.0,1.0,0.0
1252,78.0,240.0,180.0,5.0,0.0
1253,78.0,0.0,180.0,4.0,0.0
1254,90.0,0.0,180.0,0.0,0.0
1255,78.0,0.0,180.0,1.0,0.0
1256,76.0,0.0,180.0,5.0,0.0
1257,56.0,0.0,390.0,2.0,0.0
1258,56.0,0.0,390.0,7.0,0.0
1259,44.0,48.0,390.0,8.0,0.0
1260,76.0,192.0,180.0,1.0,0.0
1261,71.0,0.0,390.0,6.0,0.0
1262,88.0,0.0,180.0,0.0,0.0
1263,76.0,0.0,180.0,4.0,0.0
1264,86.0,240.0,180.0,0.0,0.0
1265,74.0,0.0,180.0,5.0,0.0
1266,74.0,0.0,180.0,1.0,0.0
1267,74.0,0.0,180.0,4.0,0.0
1268,85.0,240.0,180.0,0.0,0.0
1269,73.0,0.0,180.0,4.0,0.0
1270,57.0,0.0,780.0,7.0,0.0
1271,45.0,144.0,780.0,8.0,0.0
1272,64.0,0.0,780.0,6.0,0.0
1273,73.0,0.0,180.0,5.0,0.0
1274,57.0,0.0,780.0,2.0,0.0
1275,73.0,0.0,180.0,1.0,0.0
1276,74.0,0.0,180.0,5.0,0.0
1277,74.0,0.0,180.0,4.0,0.0
1278,86.0,240.0,180.0,0.0,0.0
1279,74.0,0.0,180.0,1.0,0.0
1280,76.0,0.0,180.0,5.0,0.0
1281,76.0,96.0,180.0,1.0,0.0
1282,76.0,0.0,180.0,4.0,0.0
1283,88.0,0.0,180.0,0.0,0.0
1284,74.0,0.0,180.0,1.0,0.0
1285,74.0,0.0,180.0,4.0,0.0
1286,74.0,240.0,180.0,5.0,0.0
1287,86.0,0.0,180.0,0.0,0.0
1288,85.0,0.0,180.0,0.0,0.0
1289,73.0,0.0,180.0,1.0,0.0
1290,73.0,240.0,180.0,4.0,0.0
1291,73.0,0.0,180.0,5.0,0.0
1292,71.0,0.0,180.0,1.0,0.0
1293,83.0,0.0,180.0,0.0,0.0
1294,71.0,240.0,180.0,5.0,0.0
1295,71.0,0.0,180.0,4.0,0.0
1296,69.0,192.0,180.0,5.0,0.0
1297,69.0,0.0,180.0,1.0,0.0
1298,69.0,0.0,180.0,4.0,0.0
1299,64.0,0.0,390.0,6.0,0.0
1300,59.0,48.0,390.0,2.0,0.0
1301,81.0,0.0,180.0,0.0,0.0
1302,59.0,0.0,390.0,7.0,0.0
1303,47.0,0.0,390.0,8.0,0.0
1304,68.0,0.0,180.0,1.0,0.0
1305,68.0,0.0,180.0,4.0,0.0
1306,68.0,240.0,180.0,5.0,0.0
1307,80.0,0.0,180.0,0.0,0.0
1308,61.0,144.0,780.0,7.0,0.0
1309,61.0,0.0,780.0,2.0,0.0
1310,49.0,0.0,780.0,8.0,0.0
1311,81.0,0.0,780.0,0.0,0.0
1312,69.0,0.0,780.0,1.0,0.0
1313,64.0,48.0,390.0,6.0,0.0
1314,69.0,192.0,180.0,5.0,0.0
1315,69.0,0.0,780.0,4.0,0.0
1316,71.0,240.0,180.0,5.0,0.0
1317,69.0,0.0,180.0,5.0,0.0
1318,69.0,96.0,180.0,6.0,0.0
1319,71.0,0.0,180.0,5.0,0.0
1320,71.0,240.0,180.0,6.0,0.0
1321,69.0,0.0,180.0,5.0,0.0
1322,69.0,240.0,180.0,6.0,0.0
1323,67.0,0.0,180.0,5.0,0.0
1324,67.0,240.0,180.0,6.0,0.0
1325,66.0,240.0,180.0,5.0,0.0
1326,66.0,0.0,180.0,6.0,0.0
1327,64.0,288.0,180.0,6.0,0.0
1328,64.0,0.0,180.0,5.0,0.0
1329,62.0,0.0,300.0,2.0,0.0
1330,62.0,0.0,240.0,7.0,0.0
1331,66.0,0.0,300.0,3.0,0.0
1332,50.0,48.0,240.0,8.0,0.0
1333,69.0,0.0,300.0,3.0,0.0
1334,66.0,0.0,240.0,6.0,0.0
1335,69.0,0.0,300.0,5.0,0.0
1336,78.0,0.0,300.0,1.0,0.0
1337,74.0,0.0,300.0,1.0,0.0
1338,81.0,0.0,300.0,4.0,0.0
1339,90.0,96.0,300.0,0.0,0.0
1340,66.0,0.0,300.0,2.0,0.0
1341,66.0,240.0,150.0,7.0,0.0
1342,54.0,0.0,150.0,8.0,0.0
1343,69.0,0.0,150.0,6.0,0.0
1344,81.0,0.0,300.0,4.0,0.0
1345,69.0,96.0,300.0,5.0,0.0
1346,64.0,0.0,150.0,7.0,0.0
1347,76.0,0.0,300.0,1.0,0.0
1348,79.0,0.0,300.0,1.0,0.0
1349,69.0,0.0,300.0,3.0,0.0
1350,64.0,0.0,300.0,2.0,0.0
1351,52.0,0.0,150.0,8.0,0.0
1352,67.0,144.0,150.0,6.0,0.0
1353,91.0,0.0,300.0,0.0,0.0
1354,67.0,0.0,300.0,2.0,0.0
1355,49.0,336.0,150.0,8.0,0.0
1356,61.0,0.0,150.0,7.0,0.0
1357,64.0,0.0,150.0,6.0,0.0
1358,78.0,0.0,300.0,1.0,0.0
1359,74.0,0.0,300.0,1.0,0.0
1360,90.0,0.0,300.0,0.0,0.0
1361,66.0,0.0,300.0,3.0,0.0
1362,81.0,0.0,300.0,4.0,0.0
1363,62.0,0.0,300.0,2.0,0.0
1364,50.0,48.0,240.0,8.0,0.0
1365,62.0,0.0,240.0,7.0,0.0
1366,66.0,0.0,300.0,2.0,0.0
1367,69.0,0.0,300.0,5.0,0.0
1368,66.0,0.0,240.0,6.0,0.0
1369,69.0,96.0,300.0,3.0,0.0
1370,69.0,0.0,150.0,6.0,0.0
1371,54.0,0.0,150.0,8.0,0.0
1372,66.0,240.0,150.0,7.0,0.0
1373,79.0,0.0,300.0,1.0,0.0
1374,76.0,0.0,300.0,1.0,0.0
1375,52.0,144.0,150.0,8.0,0.0
1376,67.0,0.0,300.0,2.0,0.0
1377,91.0,0.0,300.0,0.0,0.0
1378,69.0,0.0,300.0,3.0,0.0
1379,67.0,0.0,150.0,6.0,0.0
1380,64.0,0.0,300.0,2.0,0.0
1381,64.0,0.0,150.0,7.0,0.0
1382,81.0,0.0,300.0,4.0,0.0
1383,69.0,96.0,300.0,5.0,0.0
1384,64.0,0.0,150.0,6.0,0.0
1385,61.0,288.0,150.0,7.0,0.0
1386,49.0,0.0,150.0,8.0,0.0
1387,66.0,0.0,180.0,6.0,0.0
1388,90.0,0.0,780.0,0.0,0.0
1389,74.0,144.0,780.0,1.0,0.0
1390,78.0,0.0,780.0,1.0,0.0
1391,81.0,0.0,780.0,4.0,0.0
1392,50.0,0.0,180.0,8.0,0.0
1393,66.0,0.0,780.0,3.0,0.0
1394,62.0,240.0,180.0,7.0,0.0
1395,69.0,0.0,780.0,5.0,0.0
1396,62.0,0.0,780.0,2.0,0.0
1397,69.0,0.0,780.0,3.0,0.0
1398,66.0,0.0,780.0,2.0,0.0
1399,52.0,0.0,180.0,8.0,0.0
1400,64.0,0.0,180.0,7.0,0.0
1401,67.0,240.0,180.0,6.0,0.0
1402,54.0,0.0,180.0,8.0,0.0
1403,66.0,96.0,180.0,7.0,0.0
1404,69.0,0.0,180.0,6.0,0.0
1405,67.0,0.0,180.0,6.0,0.0
1406,52.0,240.0,180.0,8.0,0.0
1407,64.0,0.0,180.0,7.0,0.0
1408,62.0,240.0,180.0,7.0,0.0
1409,66.0,0.0,180.0,6.0,0.0
1410,50.0,0.0,180.0,8.0,0.0
1411,49.0,0.0,180.0,8.0,0.0
1412,61.0,240.0,180.0,7.0,0.0
1413,64.0,0.0,180.0,6.0,0.0
1414,47.0,0.0,180.0,8.0,0.0
1415,59.0,0.0,180.0,7.0,0.0
1416,62.0,240.0,180.0,6.0,0.0
1417,61.0,0.0,180.0,6.0,0.0
1418,46.0,0.0,180.0,8.0,0.0
1419,58.0,288.0,180.0,7.0,0.0
1420,47.0,48.0,240.0,8.0,0.0
1421,71.0,0.0,300.0,3.0,0.0
1422,62.0,0.0,300.0,3.0,0.0
1423,78.0,0.0,300.0,5.0,0.0
1424,90.0,0.0,300.0,4.0,0.0
1425,62.0,0.0,240.0,6.0,0.0
1426,86.0,0.0,300.0,0.0,0.0
1427,71.0,96.0,300.0,1.0,0.0
1428,74.0,0.0,300.0,1.0,0.0
1429,59.0,0.0,300.0,2.0,0.0
1430,62.0,0.0,300.0,2.0,0.0
1431,59.0,0.0,240.0,7.0,0.0
1432,66.0,0.0,150.0,6.0,0.0
1433,62.0,0.0,150.0,7.0,0.0
1434,50.0,240.0,150.0,8.0,0.0
1435,76.0,0.0,300.0,1.0,0.0
1436,64.0,0.0,300.0,2.0,0.0
1437,61.0,0.0,300.0,2.0,0.0
1438,64.0,0.0,150.0,6.0,0.0
1439,66.0,96.0,300.0,3.0,0.0
1440,78.0,0.0,300.0,5.0,0.0
1441,73.0,0.0,300.0,3.0,0.0
1442,90.0,0.0,300.0,4.0,0.0
1443,73.0,0.0,300.0,1.0,0.0
1444,61.0,144.0,150.0,7.0,0.0
1445,49.0,0.0,150.0,8.0,0.0
1446,88.0,0.0,300.0,0.0,0.0
1447,61.0,336.0,150.0,6.0,0.0
1448,46.0,0.0,150.0,8.0,0.0
1449,58.0,0.0,150.0,7.0,0.0
1450,74.0,0.0,300.0,1.0,0.0
1451,47.0,48.0,240.0,8.0,0.0
1452,59.0,0.0,240.0,7.0,0.0
1453,86.0,96.0,300.0,0.0,0.0
1454,90.0,0.0,300.0,4.0,0.0
1455,62.0,0.0,300.0,3.0,0.0
1456,78.0,0.0,300.0,5.0,0.0
1457,59.0,0.0,300.0,2.0,0.0
1458,62.0,0.0,300.0,2.0,0.0
1459,62.0,0.0,240.0,6.0,0.0
1460,71.0,0.0,300.0,1.0,0.0
1461,71.0,0.0,300.0,3.0,0.0
1462,62.0,240.0,150.0,7.0,0.0
1463,50.0,0.0,150.0,8.0,0.0
1464,66.0,0.0,150.0,6.0,0.0
1465,64.0,144.0,150.0,6.0,0.0
1466,49.0,0.0,150.0,8.0,0.0
1467,61.0,0.0,150.0,7.0,0.0
1468,88.0,0.0,300.0,0.0,0.0
1469,73.0,96.0,300.0,3.0,0.0
1470,66.0,0.0,300.0,3.0,0.0
1471,90.0,0.0,300.0,4.0,0.0
1472,61.0,0.0,300.0,2.0,0.0
1473,78.0,0.0,300.0,5.0,0.0
1474,64.0,0.0,300.0,2.0,0.0
1475,76.0,0.0,300.0,1.0,0.0
1476,73.0,0.0,300.0,1.0,0.0
1477,58.0,0.0,150.0,7.0,0.0
1478,61.0,240.0,150.0,6.0,0.0
1479,46.0,0.0,150.0,8.0,0.0
1480,74.0,96.0,780.0,1.0,0.0
1481,71.0,0.0,780.0,1.0,0.0
1482,62.0,0.0,780.0,3.0,0.0
1483,71.0,0.0,780.0,3.0,0.0
1484,78.0,0.0,780.0,5.0,0.0
1485,90.0,0.0,780.0,4.0,0.0
1486,62.0,0.0,780.0,2.0,0.0
1487,59.0,0.0,780.0,2.0,0.0
1488,47.0,144.0,150.0,8.0,0.0
1489,59.0,0.0,150.0,7.0,0.0
1490,86.0,0.0,780.0,0.0,0.0
1491,62.0,96.0,300.0,6.0,0.0
1492,49.0,0.0,150.0,8.0,0.0
1493,61.0,240.0,150.0,7.0,0.0
1494,62.0,0.0,150.0,7.0,0.0
1495,78.0,0.0,150.0,6.0,0.0
1496,50.0,144.0,150.0,8.0,0.0
1497,49.0,240.0,150.0,8.0,0.0
1498,76.0,0.0,150.0,6.0,0.0
1499,61.0,0.0,150.0,7.0,0.0
1500,59.0,240.0,150.0,7.0,0.0
1501,47.0,0.0,150.0,8.0,0.0
1502,74.0,0.0,150.0,6.0,0.0
1503,45.0,240.0,150.0,8.0,0.0
1504,57.0,0.0,150.0,7.0,0.0
1505,73.0,0.0,150.0,6.0,0.0
1506,43.0,240.0,150.0,8.0,0.0
1507,71.0,0.0,150.0,6.0,0.0
1508,55.0,0.0,150.0,7.0,0.0
1509,54.0,336.0,150.0,7.0,0.0
1510,42.0,0.0,150.0,8.0,0.0
1511,69.0,0.0,150.0,6.0,0.0
1512,76.0,0.0,300.0,5.0,0.0
1513,59.0,96.0,300.0,2.0,0.0
1514,83.0,0.0,300.0,1.0,0.0
1515,79.0,0.0,300.0,1.0,0.0
1516,76.0,0.0,300.0,3.0,0.0
1517,55.0,0.0,240.0,7.0,0.0
1518,88.0,0.0,300.0,0.0,0.0
1519,71.0,0.0,300.0,3.0,0.0
1520,64.0,0.0,300.0,2.0,0.0
1521,43.0,48.0,240.0,8.0,0.0
1522,71.0,0.0,240.0,6.0,0.0
1523,88.0,0.0,300.0,4.0,0.0
1524,59.0,0.0,150.0,7.0,0.0
1525,67.0,0.0,150.0,6.0,0.0
1526,47.0,240.0,150.0,8.0,0.0
1527,63.0,0.0,300.0,2.0,0.0
1528,69.0,0.0,300.0,3.0,0.0
1529,45.0,0.0,150.0,8.0,0.0
1530,57.0,0.0,150.0,7.0,0.0
1531,84.0,0.0,300.0,1.0,0.0
1532,75.0,0.0,300.0,5.0,0.0
1533,78.0,0.0,300.0,3.0,0.0
1534,90.0,0.0,300.0,0.0,0.0
1535,87.0,96.0,300.0,4.0,0.0
1536,72.0,144.0,150.0,6.0,0.0
1537,60.0,0.0,300.0,2.0,0.0
1538,81.0,0.0,300.0,1.0,0.0
1539,42.0,336.0,150.0,8.0,0.0
1540,54.0,0.0,150.0,7.0,0.0
1541,69.0,0.0,150.0,6.0,0.0
1542,88.0,0.0,300.0,4.0,0.0
1543,71.0,48.0,240.0,6.0,0.0
1544,59.0,96.0,300.0,2.0,0.0
1545,79.0,0.0,300.0,1.0,0.0
1546,83.0,0.0,300.0,1.0,0.0
1547,76.0,0.0,300.0,3.0,0.0
1548,64.0,0.0,300.0,2.0,0.0
1549,43.0,0.0,240.0,8.0,0.0
1550,71.0,0.0,300.0,3.0,0.0
1551,76.0,0.0,300.0,5.0,0.0
1552,55.0,0.0,240.0,7.0,0.0
1553,88.0,0.0,300.0,0.0,0.0
1554,59.0,240.0,150.0,7.0,0.0
1555,67.0,0.0,150.0,6.0,0.0
1556,47.0,0.0,150.0,8.0,0.0
1557,57.0,0.0,150.0,7.0,0.0
1558,75.0,96.0,300.0,5.0,0.0
1559,63.0,0.0,300.0,2.0,0.0
1560,90.0,0.0,300.0,0.0,0.0
1561,69.0,0.0,300.0,3.0,0.0
1562,60.0,0.0,300.0,2.0,0.0
1563,87.0,0.0,300.0,4.0,0.0
1564,84.0,0.0,300.0,1.0,0.0
1565,45.0,0.0,150.0,8.0,0.0
1566,72.0,144.0,150.0,6.0,0.0
1567,78.0,0.0,300.0,3.0,0.0
1568,81.0,0.0,300.0,1.0,0.0
1569,69.0,240.0,150.0,6.0,0.0
1570,42.0,0.0,150.0,8.0,0.0
1571,54.0,0.0,150.0,7.0,0.0
1572,43.0,240.0,150.0,8.0,0.0
1573,79.0,0.0,780.0,1.0,0.0
1574,88.0,0.0,780.0,4.0,0.0
1575,59.0,0.0,780.0,2.0,0.0
1576,71.0,0.0,150.0,6.0,0.0
1577,76.0,96.0,780.0,3.0,0.0
1578,71.0,0.0,780.0,3.0,0.0
1579,83.0,0.0,780.0,1.0,0.0
1580,88.0,0.0,780.0,0.0,0.0
1581,55.0,0.0,150.0,7.0,0.0
1582,64.0,0.0,780.0,2.0,0.0
1583,76.0,0.0,780.0,5.0,0.0
1584,45.0,0.0,150.0,8.0,0.0
1585,69.0,240.0,150.0,6.0,0.0
1586,57.0,0.0,150.0,7.0,0.0
1587,59.0,144.0,150.0,7.0,0.0
1588,47.0,0.0,150.0,8.0,0.0
1589,67.0,0.0,150.0,6.0,0.0
1590,57.0,0.0,150.0,7.0,0.0
1591,66.0,0.0,150.0,6.0,0.0
1592,45.0,240.0,150.0,8.0,0.0
1593,43.0,0.0,150.0,8.0,0.0
1594,64.0,0.0,150.0,6.0,0.0
1595,55.0,240.0,150.0,7.0,0.0
1596,42.0,240.0,150.0,8.0,0.0
1597,54.0,0.0,150.0,7.0,0.0
1598,62.0,0.0,150.0,6.0,0.0
1599,40.0,0.0,150.0,8.0,0.0
1600,52.0,0.0,150.0,7.0,0.0
1601,61.0,240.0,150.0,6.0,0.0
1602,62.0,0.0,150.0,6.0,0.0
1603,38.0,0.0,150.0,8.0,0.0
1604,50.0,336.0,150.0,7.0,0.0
1605,37.0,0.0,240.0,8.0,0.0
1606,79.0,0.0,300.0,5.0,0.0
1607,93.0,0.0,300.0,0.0,0.0
1608,81.0,0.0,300.0,1.0,0.0
1609,49.0,0.0,240.0,7.0,0.0
1610,91.0,0.0,300.0,4.0,0.0
1611,69.0,96.0,300.0,2.0,0.0
1612,57.0,0.0,300.0,2.0,0.0
1613,64.0,48.0,240.0,6.0,0.0
1614,64.0,0.0,300.0,3.0,0.0
1615,50.0,0.0,150.0,7.0,0.0
1616,38.0,0.0,150.0,8.0,0.0
1617,62.0,240.0,150.0,6.0,0.0
1618,61.0,0.0,150.0,6.0,0.0
1619,83.0,0.0,300.0,1.0,0.0
1620,52.0,144.0,150.0,7.0,0.0
1621,70.0,96.0,300.0,2.0,0.0
1622,79.0,0.0,300.0,5.0,0.0
1623,40.0,0.0,150.0,8.0,0.0
1624,58.0,0.0,300.0,2.0,0.0
1625,91.0,0.0,300.0,4.0,0.0
1626,64.0,0.0,300.0,3.0,0.0
1627,94.0,0.0,300.0,0.0,0.0
1628,62.0,0.0,150.0,6.0,0.0
1629,50.0,336.0,150.0,7.0,0.0
1630,38.0,0.0,150.0,8.0,0.0
1631,91.0,0.0,300.0,4.0,0.0
1632,37.0,48.0,240.0,8.0,0.0
1633,79.0,0.0,300.0,5.0,0.0
1634,93.0,0.0,300.0,0.0,0.0
1635,49.0,0.0,240.0,7.0,0.0
1636,64.0,0.0,240.0,6.0,0.0
1637,81.0,96.0,300.0,1.0,0.0
1638,64.0,0.0,300.0,3.0,0.0
1639,69.0,0.0,300.0,2.0,0.0
1640,57.0,0.0,300.0,2.0,0.0
1641,38.0,0.0,150.0,8.0,0.0
1642,50.0,0.0,150.0,7.0,0.0
1643,62.0,240.0,150.0,6.0,0.0
1644,94.0,0.0,300.0,0.0,0.0
1645,52.0,0.0,150.0,7.0,0.0
1646,91.0,96.0,300.0,4.0,0.0
1647,70.0,0.0,300.0,2.0,0.0
1648,58.0,0.0,300.0,2.0,0.0
1649,79.0,0.0,300.0,5.0,0.0
1650,40.0,0.0,150.0,8.0,0.0
1651,61.0,144.0,150.0,6.0,0.0
1652,64.0,0.0,300.0,3.0,0.0
1653,83.0,0.0,300.0,1.0,0.0
1654,38.0,288.0,150.0,8.0,0.0
1655,62.0,0.0,150.0,6.0,0.0
1656,50.0,0.0,150.0,7.0,0.0
1657,37.0,0.0,1140.0,8.0,0.0
1658,49.0,0.0,1140.0,2.0,0.0
1659,69.0,0.0,1140.0,2.0,0.0
1660,93.0,0.0,780.0,0.0,0.0
1661,81.0,144.0,780.0,1.0,0.0
1662,79.0,0.0,180.0,5.0,0.0
1663,64.0,240.0,1140.0,6.0,0.0
1664,49.0,0.0,1140.0,7.0,0.0
1665,76.0,0.0,780.0,3.0,0.0
1666,91.0,240.0,180.0,4.0,0.0
1667,90.0,240.0,180.0,4.0,0.0
1668,78.0,0.0,180.0,5.0,0.0
1669,76.0,0.0,180.0,5.0,0.0
1670,88.0,96.0,180.0,4.0,0.0
1671,74.0,240.0,180.0,5.0,0.0
1672,86.0,0.0,180.0,4.0,0.0
1673,85.0,0.0,180.0,4.0,0.0
1674,73.0,0.0,180.0,5.0,0.0
1675,83.0,240.0,180.0,4.0,0.0
1676,71.0,0.0,180.0,5.0,0.0
1677,69.0,240.0,180.0,5.0,0.0
1678,81.0,0.0,180.0,4.0,0.0
1679,73.0,0.0,180.0,6.0,0.0
1680,61.0,0.0,180.0,2.0,0.0
1681,67.0,0.0,180.0,5.0,0.0
1682,49.0,0.0,180.0,8.0,0.0
1683,79.0,0.0,180.0,4.0,0.0
1684,61.0,240.0,180.0,7.0,0.0
1685,62.0,240.0,180.0,7.0,0.0
1686,62.0,0.0,180.0,2.0,0.0
1687,81.0,0.0,1530.0,1.0,0.0
1688,74.0,0.0,180.0,6.0,0.0
1689,66.0,192.0,1140.0,5.0,0.0
1690,78.0,0.0,1140.0,4.0,0.0
1691,69.0,0.0,780.0,3.0,0.0
1692,66.0,144.0,780.0,3.0,0.0
1693,50.0,0.0,180.0,8.0,0.0
1694,69.0,96.0,1530.0,1.0,0.0
1695,81.0,0.0,1530.0,0.0,0.0
1696,49.0,0.0,180.0,8.0,0.0
1697,61.0,0.0,180.0,7.0,0.0
1698,61.0,240.0,180.0,2.0,0.0
1699,73.0,0.0,180.0,6.0,0.0
1700,47.0,0.0,180.0,8.0,0.0
1701,59.0,0.0,180.0,7.0,0.0
1702,71.0,0.0,180.0,6.0,0.0
1703,59.0,96.0,180.0,2.0,0.0
1704,57.0,0.0,180.0,2.0,0.0
1705,69.0,0.0,180.0,6.0,0.0
1706,45.0,240.0,180.0,8.0,0.0
1707,57.0,0.0,180.0,7.0,0.0
1708,55.0,0.0,180.0,7.0,0.0
1709,43.0,0.0,180.0,8.0,0.0
1710,55.0,0.0,180.0,2.0,0.0
1711,67.0,0.0,180.0,6.0,0.0
1712,66.0,48.0,390.0,3.0,0.0
1713,54.0,0.0,180.0,7.0,0.0
1714,54.0,144.0,180.0,2.0,0.0
1715,66.0,0.0,180.0,6.0,0.0
1716,42.0,0.0,180.0,8.0,0.0
1717,66.0,48.0,390.0,3.0,0.0
1718,52.0,192.0,180.0,2.0,0.0
1719,40.0,0.0,180.0,8.0,0.0
1720,52.0,0.0,180.0,7.0,0.0
1721,64.0,0.0,180.0,6.0,0.0
1722,50.0,240.0,180.0,7.0,0.0
1723,90.0,0.0,180.0,4.0,0.0
1724,38.0,0.0,180.0,8.0,0.0
1725,78.0,0.0,180.0,5.0,0.0
1726,62.0,0.0,180.0,6.0,0.0
1727,50.0,0.0,180.0,2.0,0.0
1728,82.0,0.0,1530.0,1.0,0.0
1729,88.0,240.0,180.0,4.0,0.0
1730,61.0,0.0,1140.0,6.0,0.0
1731,37.0,0.0,1140.0,8.0,0.0
1732,76.0,0.0,180.0,5.0,0.0
1733,70.0,0.0,1530.0,1.0,0.0
1734,66.0,0.0,780.0,3.0,0.0
1735,49.0,0.0,1140.0,2.0,0.0
1736,76.0,144.0,780.0,3.0,0.0
1737,82.0,96.0,1530.0,0.0,0.0
1738,49.0,0.0,1140.0,7.0,0.0
1739,74.0,0.0,180.0,5.0,0.0
1740,86.0,240.0,180.0,4.0,0.0
1741,73.0,0.0,180.0,5.0,0.0
1742,85.0,96.0,180.0,4.0,0.0
1743,71.0,0.0,180.0,5.0,0.0
1744,83.0,240.0,180.0,4.0,0.0
1745,82.0,0.0,180.0,4.0,0.0
1746,70.0,240.0,180.0,5.0,0.0
1747,79.0,144.0,180.0,4.0,0.0
1748,67.0,0.0,180.0,5.0,0.0
1749,78.0,0.0,180.0,4.0,0.0
1750,66.0,240.0,180.0,5.0,0.0
1751,61.0,0.0,180.0,7.0,0.0
1752,61.0,0.0,180.0,2.0,0.0
1753,76.0,0.0,180.0,4.0,0.0
1754,49.0,240.0,180.0,8.0,0.0
1755,73.0,0.0,180.0,6.0,0.0
1756,64.0,0.0,180.0,5.0,0.0
1757,71.0,0.0,1530.0,1.0,0.0
1758,74.0,0.0,1140.0,4.0,0.0
1759,62.0,144.0,780.0,3.0,0.0
1760,66.0,0.0,780.0,3.0,0.0
1761,59.0,0.0,180.0,2.0,0.0
1762,83.0,96.0,1530.0,0.0,0.0
1763,62.0,0.0,1140.0,5.0,0.0
1764,83.0,0.0,1530.0,1.0,0.0
1765,71.0,0.0,180.0,6.0,0.0
1766,47.0,240.0,180.0,8.0,0.0
1767,59.0,0.0,180.0,7.0,0.0
1768,45.0,0.0,180.0,8.0,0.0
1769,57.0,240.0,180.0,2.0,0.0
1770,69.0,0.0,180.0,6.0,0.0
1771,57.0,0.0,180.0,7.0,0.0
1772,55.0,0.0,180.0,2.0,0.0
1773,67.0,0.0,180.0,6.0,0.0
1774,55.0,96.0,180.0,7.0,0.0
1775,43.0,0.0,180.0,8.0,0.0
1776,66.0,0.0,180.0,6.0,0.0
1777,42.0,240.0,180.0,8.0,0.0
1778,54.0,0.0,180.0,7.0,0.0
1779,54.0,0.0,180.0,2.0,0.0
1780,64.0,192.0,180.0,6.0,0.0
1781,52.0,0.0,180.0,7.0,0.0
1782,52.0,0.0,180.0,2.0,0.0
1783,62.0,48.0,390.0,3.0,0.0
1784,40.0,0.0,180.0,8.0,0.0
1785,50.0,0.0,180.0,7.0,0.0
1786,62.0,144.0,180.0,6.0,0.0
1787,50.0,0.0,180.0,2.0,0.0
1788,38.0,0.0,180.0,8.0,0.0
1789,62.0,48.0,390.0,3.0,0.0
1790,61.0,192.0,180.0,6.0,0.0
1791,37.0,0.0,180.0,8.0,0.0
1792,49.0,0.0,180.0,2.0,0.0
1793,49.0,0.0,180.0,7.0,0.0
1794,86.0,0.0,180.0,4.0,0.0
1795,74.0,0.0,180.0,5.0,0.0
1796,47.0,0.0,180.0,7.0,0.0
1797,35.0,0.0,180.0,8.0,0.0
1798,59.0,240.0,180.0,6.0,0.0
1799,47.0,0.0,180.0,2.0,0.0
1800,45.0,240.0,1140.0,2.0,0.0
1801,78.0,0.0,1530.0,1.0,0.0
1802,66.0,0.0,780.0,3.0,0.0
1803,84.0,0.0,180.0,4.0,0.0
1804,57.0,0.0,1140.0,6.0,0.0
1805,45.0,0.0,1140.0,7.0,0.0
1806,62.0,144.0,780.0,3.0,0.0
1807,90.0,96.0,1530.0,0.0,0.0
1808,33.0,0.0,1140.0,8.0,0.0
1809,72.0,240.0,180.0,5.0,0.0
1810,83.0,240.0,180.0,4.0,0.0
1811,71.0,0.0,180.0,5.0,0.0
1812,81.0,96.0,180.0,4.0,0.0
1813,69.0,0.0,180.0,5.0,0.0
1814,79.0,240.0,180.0,4.0,0.0
1815,67.0,0.0,180.0,5.0,0.0
1816,78.0,0.0,180.0,4.0,0.0
1817,66.0,0.0,180.0,5.0,0.0
1818,64.0,0.0,180.0,5.0,0.0
1819,76.0,144.0,180.0,4.0,0.0
1820,74.0,240.0,180.0,4.0,0.0
1821,62.0,0.0,180.0,5.0,0.0
1822,69.0,0.0,180.0,7.0,0.0
1823,69.0,0.0,180.0,6.0,0.0
1824,60.0,0.0,180.0,5.0,0.0
1825,72.0,0.0,180.0,4.0,0.0
1826,69.0,240.0,180.0,2.0,0.0
1827,57.0,0.0,180.0,8.0,0.0
1828,74.0,0.0,780.0,3.0,0.0
1829,71.0,144.0,780.0,3.0,0.0
1830,67.0,0.0,180.0,6.0,0.0
1831,59.0,0.0,1140.0,5.0,0.0
1832,67.0,240.0,180.0,2.0,0.0
1833,79.0,0.0,1530.0,1.0,0.0
1834,91.0,96.0,1530.0,0.0,0.0
1835,55.0,0.0,180.0,8.0,0.0
1836,71.0,0.0,1140.0,4.0,0.0
1837,67.0,0.0,180.0,7.0,0.0
1838,66.0,0.0,180.0,2.0,0.0
1839,66.0,0.0,180.0,7.0,0.0
1840,66.0,0.0,180.0,6.0,0.0
1841,54.0,240.0,180.0,8.0,0.0
1842,64.0,0.0,180.0,6.0,0.0
1843,64.0,96.0,180.0,2.0,0.0
1844,52.0,0.0,180.0,8.0,0.0
1845,64.0,0.0,180.0,7.0,0.0
1846,62.0,0.0,180.0,6.0,0.0
1847,62.0,0.0,180.0,7.0,0.0
1848,50.0,240.0,180.0,8.0,0.0
1849,62.0,0.0,180.0,2.0,0.0
1850,60.0,192.0,180.0,2.0,0.0
1851,48.0,0.0,180.0,8.0,0.0
1852,60.0,0.0,180.0,6.0,0.0
1853,59.0,48.0,390.0,3.0,0.0
1854,60.0,0.0,180.0,7.0,0.0
1855,59.0,0.0,180.0,6.0,0.0
1856,59.0,0.0,180.0,2.0,0.0
1857,47.0,144.0,180.0,8.0,0.0
1858,59.0,0.0,180.0,7.0,0.0
1859,57.0,0.0,180.0,7.0,0.0
1860,59.0,48.0,390.0,3.0,0.0
1861,57.0,0.0,180.0,2.0,0.0
1862,57.0,0.0,180.0,6.0,0.0
1863,45.0,192.0,180.0,8.0,0.0
1864,55.0,0.0,180.0,2.0,0.0
1865,55.0,0.0,180.0,7.0,0.0
1866,83.0,0.0,180.0,5.0,0.0
1867,43.0,240.0,180.0,8.0,0.0
1868,55.0,0.0,180.0,6.0,0.0
1869,83.0,0.0,180.0,4.0,0.0
1870,87.0,0.0,1530.0,0.0,0.0
1871,75.0,96.0,1530.0,1.0,0.0
1872,54.0,0.0,780.0,2.0,0.0
1873,54.0,0.0,780.0,6.0,0.0
1874,71.0,0.0,780.0,3.0,0.0
1875,78.0,0.0,780.0,3.0,0.0
1876,42.0,0.0,780.0,8.0,0.0
1877,54.0,144.0,780.0,7.0,0.0
1878,81.0,0.0,180.0,5.0,0.0
1879,81.0,240.0,180.0,4.0,0.0
1880,79.0,0.0,180.0,4.0,0.0
1881,79.0,240.0,180.0,5.0,0.0
1882,78.0,0.0,180.0,4.0,0.0
1883,78.0,96.0,180.0,5.0,0.0
1884,76.0,240.0,180.0,4.0,0.0
1885,76.0,0.0,180.0,5.0,0.0
1886,75.0,0.0,180.0,5.0,0.0
1887,75.0,240.0,180.0,4.0,0.0
1888,72.0,144.0,180.0,5.0,0.0
1889,72.0,0.0,180.0,4.0,0.0
1890,71.0,240.0,180.0,5.0,0.0
1891,71.0,0.0,180.0,4.0,0.0
1892,69.0,240.0,180.0,4.0,0.0
1893,69.0,0.0,180.0,5.0,0.0
1894,52.0,0.0,780.0,7.0,0.0
1895,67.0,0.0,180.0,5.0,0.0
1896,40.0,0.0,780.0,8.0,0.0
1897,67.0,240.0,180.0,4.0,0.0
1898,88.0,0.0,780.0,0.0,0.0
1899,52.0,0.0,780.0,2.0,0.0
1900,76.0,0.0,780.0,1.0,0.0
1901,55.0,144.0,780.0,6.0,0.0
1902,69.0,0.0,180.0,4.0,0.0
1903,69.0,240.0,180.0,5.0,0.0
1904,71.0,0.0,180.0,4.0,0.0
1905,71.0,96.0,180.0,5.0,0.0
1906,67.0,240.0,180.0,4.0,0.0
1907,67.0,0.0,180.0,5.0,0.0
1908,54.0,0.0,780.0,2.0,0.0
1909,87.0,0.0,780.0,0.0,0.0
1910,54.0,0.0,780.0,7.0,0.0
1911,42.0,0.0,780.0,8.0,0.0
1912,57.0,144.0,780.0,6.0,0.0
1913,66.0,240.0,180.0,5.0,0.0
1914,66.0,0.0,180.0,4.0,0.0
1915,72.0,0.0,780.0,1.0,0.0
1916,81.0,0.0,780.0,1.0,0.0
1917,67.0,240.0,180.0,4.0,0.0
1918,67.0,0.0,180.0,5.0,0.0
1919,69.0,96.0,180.0,4.0,0.0
1920,69.0,0.0,180.0,5.0,0.0
1921,66.0,240.0,180.0,5.0,0.0
1922,66.0,0.0,180.0,4.0,0.0
1923,43.0,0.0,780.0,8.0,0.0
1924,55.0,0.0,780.0,7.0,0.0
1925,59.0,96.0,1530.0,6.0,0.0
1926,71.0,0.0,780.0,1.0,0.0
1927,83.0,0.0,1740.0,1.0,0.0
1928,55.0,144.0,780.0,2.0,0.0
1929,88.0,0.0,780.0,0.0,0.0
1930,64.0,240.0,180.0,5.0,0.0
1931,64.0,0.0,180.0,4.0,0.0
1932,66.0,0.0,180.0,5.0,0.0
1933,66.0,240.0,180.0,4.0,0.0
1934,67.0,0.0,180.0,4.0,0.0
1935,67.0,96.0,180.0,5.0,0.0
1936,64.0,0.0,180.0,4.0,0.0
1937,64.0,240.0,180.0,5.0,0.0
1938,86.0,0.0,780.0,0.0,0.0
1939,56.0,0.0,780.0,2.0,0.0
1940,62.0,0.0,180.0,5.0,0.0
1941,56.0,0.0,780.0,7.0,0.0
1942,76.0,0.0,780.0,1.0,0.0
1943,44.0,144.0,780.0,8.0,0.0
1944,62.0,240.0,180.0,4.0,0.0
1945,64.0,144.0,180.0,5.0,0.0
1946,64.0,0.0,180.0,4.0,0.0
1947,66.0,0.0,180.0,4.0,0.0
1948,66.0,96.0,180.0,5.0,0.0
1949,62.0,240.0,180.0,4.0,0.0
1950,62.0,0.0,180.0,5.0,0.0
1951,81.0,96.0,1530.0,1.0,0.0
1952,76.0,0.0,1530.0,1.0,0.0
1953,69.0,0.0,1530.0,3.0,0.0
1954,52.0,0.0,390.0,6.0,0.0
1955,61.0,192.0,180.0,4.0,0.0
1956,61.0,0.0,180.0,5.0,0.0
1957,85.0,0.0,1530.0,0.0,0.0
1958,57.0,0.0,390.0,7.0,0.0
1959,57.0,0.0,390.0,2.0,0.0
1960,45.0,48.0,390.0,8.0,0.0
1961,64.0,0.0,180.0,5.0,0.0
1962,64.0,240.0,180.0,4.0,0.0
1963,69.0,192.0,180.0,5.0,0.0
1964,57.0,48.0,390.0,2.0,0.0
1965,69.0,0.0,390.0,6.0,0.0
1966,45.0,0.0,390.0,8.0,0.0
1967,57.0,0.0,390.0,7.0,0.0
1968,69.0,0.0,180.0,4.0,0.0
1969,73.0,240.0,180.0,4.0,0.0
1970,73.0,0.0,180.0,5.0,0.0
1971,76.0,0.0,180.0,4.0,0.0
1972,57.0,48.0,390.0,7.0,0.0
1973,57.0,0.0,390.0,2.0,0.0
1974,69.0,0.0,390.0,6.0,0.0
1975,76.0,192.0,180.0,5.0,0.0
1976,45.0,0.0,390.0,8.0,0.0
1977,76.0,0.0,180.0,4.0,0.0
1978,76.0,144.0,180.0,5.0,0.0
1979,76.0,0.0,180.0,5.0,0.0
1980,69.0,48.0,390.0,6.0,0.0
1981,76.0,192.0,180.0,4.0,0.0
1982,57.0,0.0,390.0,7.0,0.0
1983,57.0,0.0,390.0,2.0,0.0
1984,45.0,0.0,390.0,8.0,0.0
1985,76.0,240.0,180.0,4.0,0.0
1986,76.0,0.0,180.0,5.0,0.0
1987,59.0,0.0,180.0,5.0,0.0
1988,83.0,0.0,1530.0,0.0,0.0
1989,74.0,0.0,1530.0,1.0,0.0
1990,57.0,0.0,390.0,2.0,0.0
1991,80.0,96.0,1530.0,1.0,0.0
1992,45.0,0.0,390.0,8.0,0.0
1993,69.0,0.0,1530.0,3.0,0.0
1994,57.0,48.0,390.0,7.0,0.0
1995,59.0,192.0,180.0,4.0,0.0
1996,69.0,0.0,390.0,6.0,0.0
1997,62.0,240.0,180.0,4.0,0.0
1998,62.0,0.0,180.0,5.0,0.0
1999,45.0,48.0,390.0,8.0,0.0
2000,68.0,192.0,180.0,5.0,0.0
2001,69.0,0.0,390.0,6.0,0.0
2002,68.0,0.0,180.0,4.0,0.0
2003,57.0,0.0,390.0,7.0,0.0
2004,57.0,0.0,390.0,2.0,0.0
2005,71.0,240.0,180.0,4.0,0.0
2006,71.0,0.0,180.0,5.0,0.0
2007,74.0,0.0,180.0,5.0,0.0
2008,57.0,0.0,390.0,7.0,0.0
2009,45.0,0.0,390.0,8.0,0.0
2010,74.0,192.0,180.0,4.0,0.0
2011,69.0,0.0,390.0,6.0,0.0
2012,57.0,48.0,390.0,2.0,0.0
2013,74.0,0.0,180.0,4.0,0.0
2014,74.0,144.0,180.0,5.0,0.0
2015,57.0,0.0,390.0,2.0,0.0
2016,74.0,192.0,180.0,5.0,0.0
2017,74.0,0.0,180.0,4.0,0.0
2018,69.0,48.0,390.0,6.0,0.0
2019,45.0,0.0,390.0,8.0,0.0
2020,57.0,0.0,390.0,7.0,0.0
2021,74.0,240.0,180.0,4.0,0.0
2022,74.0,0.0,180.0,5.0,0.0
2023,73.0,0.0,1530.0,1.0,0.0
2024,45.0,0.0,390.0,8.0,0.0
2025,73.0,0.0,180.0,5.0,0.0
2026,88.0,0.0,1530.0,0.0,0.0
2027,81.0,96.0,1530.0,1.0,0.0
2028,69.0,96.0,780.0,3.0,0.0
2029,57.0,0.0,390.0,2.0,0.0
2030,69.0,48.0,390.0,6.0,0.0
2031,73.0,192.0,180.0,4.0,0.0
2032,57.0,0.0,390.0,7.0,0.0
2033,76.0,0.0,180.0,5.0,0.0
2034,76.0,240.0,180.0,4.0,0.0
2035,81.0,96.0,180.0,5.0,0.0
2036,81.0,0.0,180.0,4.0,0.0
2037,45.0,0.0,390.0,8.0,0.0
2038,69.0,0.0,390.0,6.0,0.0
2039,57.0,0.0,390.0,7.0,0.0
2040,57.0,48.0,390.0,2.0,0.0
2041,85.0,0.0,180.0,5.0,0.0
2042,85.0,240.0,180.0,4.0,0.0
2043,69.0,0.0,390.0,3.0,0.0
2044,88.0,0.0,180.0,4.0,0.0
2045,45.0,0.0,390.0,8.0,0.0
2046,57.0,0.0,390.0,2.0,0.0
2047,57.0,0.0,390.0,7.0,0.0
2048,88.0,192.0,180.0,5.0,0.0
2049,69.0,48.0,390.0,6.0,0.0
2050,88.0,0.0,180.0,5.0,0.0
2051,88.0,144.0,180.0,4.0,0.0
2052,69.0,0.0,390.0,3.0,0.0
2053,88.0,192.0,180.0,4.0,0.0
2054,45.0,0.0,390.0,8.0,0.0
2055,57.0,0.0,390.0,2.0,0.0
2056,57.0,48.0,390.0,7.0,0.0
2057,69.0,0.0,390.0,6.0,0.0
2058,88.0,0.0,180.0,5.0,0.0
2059,88.0,240.0,180.0,5.0,0.0
2060,88.0,0.0,180.0,4.0,0.0
2061,71.0,192.0,180.0,4.0,0.0
2062,83.0,0.0,1530.0,1.0,0.0
2063,86.0,0.0,1530.0,1.0,0.0
2064,71.0,0.0,180.0,5.0,0.0
2065,45.0,0.0,390.0,8.0,0.0
2066,57.0,48.0,390.0,7.0,0.0
2067,92.0,96.0,1530.0,0.0,0.0
2068,69.0,0.0,390.0,6.0,0.0
2069,57.0,0.0,390.0,2.0,0.0
2070,69.0,96.0,780.0,3.0,0.0
2071,74.0,0.0,180.0,4.0,0.0
2072,74.0,240.0,180.0,5.0,0.0
2073,45.0,0.0,390.0,8.0,0.0
2074,80.0,0.0,180.0,4.0,0.0
2075,80.0,96.0,180.0,5.0,0.0
2076,69.0,48.0,390.0,6.0,0.0
2077,57.0,0.0,390.0,7.0,0.0
2078,57.0,0.0,390.0,2.0,0.0
2079,83.0,0.0,180.0,4.0,0.0
2080,83.0,240.0,180.0,5.0,0.0
2081,86.0,0.0,180.0,5.0,0.0
2082,57.0,0.0,390.0,2.0,0.0
2083,69.0,0.0,390.0,3.0,0.0
2084,57.0,0.0,390.0,7.0,0.0
2085,69.0,0.0,390.0,6.0,0.0
2086,45.0,48.0,390.0,8.0,0.0
2087,86.0,192.0,180.0,4.0,0.0
2088,86.0,0.0,180.0,5.0,0.0
2089,86.0,144.0,180.0,4.0,0.0
2090,45.0,0.0,390.0,8.0,0.0
2091,69.0,0.0,390.0,6.0,0.0
2092,57.0,48.0,390.0,2.0,0.0
2093,86.0,0.0,180.0,5.0,0.0
2094,69.0,0.0,390.0,3.0,0.0
2095,86.0,192.0,180.0,4.0,0.0
2096,57.0,0.0,390.0,7.0,0.0
2097,86.0,432.0,180.0,4.0,0.0
2098,86.0,0.0,180.0,5.0,0.0
2099,81.0,0.0,390.0,1.0,0.0
2100,57.0,960.0,390.0,2.0,0.0
2101,85.0,0.0,390.0,1.0,0.0
2102,69.0,0.0,390.0,6.0,0.0
2103,85.0,0.0,390.0,4.0,0.0
2104,93.0,0.0,390.0,0.0,0.0
2105,69.0,0.0,390.0,3.0,0.0
2106,85.0,0.0,390.0,5.0,0.0
2107,45.0,0.0,390.0,8.0,0.0
2108,57.0,0.0,390.0,7.0,0.0
2109,93.0,1344.0,390.0,0.0,0.0
2110,57.0,0.0,390.0,7.0,0.0
2111,69.0,0.0,390.0,3.0,0.0
2112,45.0,0.0,390.0,8.0,0.0
2113,73.0,0.0,390.0,5.0,0.0
2114,69.0,0.0,390.0,6.0,0.0
2115,81.0,0.0,390.0,5.0,0.0
2116,73.0,0.0,390.0,4.0,0.0
2117,81.0,0.0,390.0,4.0,0.0
2118,85.0,0.0,390.0,1.0,0.0
2119,76.0,0.0,390.0,1.0,0.0
2120,57.0,0.0,390.0,2.0,0.0
2121,73.0,0.0,780.0,1.0,0.0
2122,76.0,0.0,780.0,1.0,0.0
2123,57.0,0.0,780.0,6.0,0.0
2124,69.0,0.0,780.0,3.0,0.0
2125,81.0,0.0,780.0,0.0,0.0
2126,45.0,0.0,780.0,2.0,0.0
2127,69.0,1056.0,780.0,5.0,0.0
2128,61.0,0.0,780.0,4.0,0.0
2129,33.0,0.0,780.0,8.0,0.0
2130,69.0,0.0,780.0,4.0,0.0
2131,45.0,0.0,780.0,7.0,0.0
2132,61.0,0.0,780.0,5.0,0.0
2133,81.0,480.0,390.0,4.0,0.0
2134,74.0,0.0,390.0,6.0,0.0
2135,78.0,480.0,390.0,5.0,0.0
2136,81.0,96.0,1740.0,4.0,0.0
2137,78.0,480.0,390.0,5.0,0.0
2138,74.0,0.0,390.0,6.0,0.0
2139,74.0,0.0,390.0,6.0,0.0
2140,78.0,384.0,390.0,5.0,0.0
2141,74.0,216.0,390.0,6.0,0.0
2142,78.0,0.0,390.0,5.0,0.0
2143,76.0,408.0,390.0,5.0,0.0
2144,73.0,0.0,390.0,6.0,0.0
2145,80.0,264.0,120.0,4.0,0.0
2146,81.0,72.0,660.0,4.0,0.0
2147,73.0,0.0,390.0,6.0,0.0
2148,76.0,216.0,390.0,5.0,0.0
2149,73.0,408.0,390.0,6.0,0.0
2150,80.0,264.0,120.0,4.0,0.0
2151,76.0,0.0,390.0,5.0,0.0
2152,81.0,72.0,660.0,4.0,0.0
2153,76.0,480.0,390.0,5.0,0.0
2154,73.0,0.0,390.0,6.0,0.0
2155,71.0,336.0,390.0,6.0,0.0
2156,74.0,288.0,1530.0,5.0,0.0
2157,86.0,144.0,720.0,4.0,0.0
2158,71.0,48.0,390.0,6.0,0.0
2159,83.0,432.0,180.0,4.0,0.0
2160,71.0,192.0,390.0,6.0,0.0
2161,79.0,384.0,1920.0,4.0,0.0
2162,71.0,480.0,390.0,6.0,0.0
2163,74.0,288.0,1530.0,5.0,0.0
2164,69.0,480.0,390.0,6.0,0.0
2165,69.0,96.0,390.0,6.0,0.0
2166,78.0,576.0,1350.0,4.0,0.0
2167,69.0,192.0,390.0,6.0,0.0
2168,69.0,480.0,390.0,6.0,0.0
2169,71.0,576.0,2310.0,5.0,0.0
2170,67.0,0.0,2310.0,6.0,0.0
2171,75.0,384.0,240.0,4.0,0.0
2172,76.0,576.0,390.0,4.0,0.0
2173,78.0,384.0,240.0,4.0,0.0
2174,79.0,0.0,390.0,4.0,0.0
2175,81.0,384.0,240.0,4.0,0.0
2176,82.0,528.0,390.0,4.0,0.0
2177,83.0,432.0,180.0,4.0,0.0
2178,57.0,480.0,390.0,6.0,0.0
2179,74.0,0.0,1440.0,4.0,0.0
2180,66.0,240.0,1440.0,5.0,0.0
2181,57.0,480.0,390.0,6.0,0.0
2182,57.0,96.0,390.0,6.0,0.0
2183,78.0,144.0,240.0,4.0,0.0
2184,57.0,48.0,390.0,6.0,0.0
2185,62.0,0.0,240.0,5.0,0.0
2186,61.0,384.0,240.0,5.0,0.0
2187,76.0,48.0,180.0,4.0,0.0
2188,76.0,480.0,480.0,4.0,0.0
2189,57.0,0.0,390.0,6.0,0.0
2190,61.0,96.0,390.0,5.0,0.0
2191,78.0,480.0,480.0,4.0,0.0
2192,79.0,384.0,480.0,4.0,0.0
2193,80.0,480.0,390.0,4.0,0.0
2194,74.0,0.0,390.0,6.0,0.0
2195,81.0,0.0,2310.0,4.0,0.0
2196,78.0,480.0,390.0,5.0,0.0
2197,74.0,0.0,390.0,6.0,0.0
2198,78.0,480.0,390.0,5.0,0.0
2199,74.0,480.0,390.0,6.0,0.0
2200,78.0,0.0,390.0,5.0,0.0
2201,74.0,480.0,390.0,6.0,0.0
2202,78.0,0.0,390.0,5.0,0.0
2203,76.0,480.0,390.0,5.0,0.0
2204,73.0,0.0,390.0,6.0,0.0
2205,82.0,384.0,480.0,4.0,0.0
2206,76.0,0.0,390.0,5.0,0.0
2207,73.0,96.0,390.0,6.0,0.0
2208,76.0,96.0,390.0,5.0,0.0
2209,73.0,0.0,390.0,6.0,0.0
2210,83.0,384.0,480.0,4.0,0.0
2211,73.0,96.0,390.0,6.0,0.0
2212,85.0,480.0,480.0,4.0,0.0
2213,76.0,0.0,390.0,5.0,0.0
2214,74.0,384.0,3840.0,5.0,0.0
2215,71.0,48.0,2820.0,6.0,0.0
2216,86.0,480.0,480.0,4.0,0.0
2217,85.0,480.0,480.0,4.0,0.0
2218,83.0,480.0,480.0,4.0,0.0
2219,82.0,480.0,480.0,4.0,0.0
2220,81.0,432.0,480.0,4.0,0.0
2221,80.0,480.0,480.0,4.0,0.0
2222,69.0,48.0,900.0,6.0,0.0
2223,79.0,384.0,480.0,4.0,0.0
2224,78.0,48.0,390.0,4.0,0.0
2225,67.0,0.0,390.0,6.0,0.0
2226,75.0,528.0,420.0,4.0,0.0
2227,71.0,48.0,390.0,5.0,0.0
2228,76.0,480.0,480.0,4.0,0.0
2229,79.0,384.0,480.0,4.0,0.0
2230,83.0,1536.0,390.0,4.0,0.0
2231,57.0,0.0,1920.0,6.0,0.0
2232,66.0,240.0,1440.0,5.0,0.0
2233,74.0,0.0,1440.0,4.0,0.0
2234,78.0,0.0,240.0,4.0,0.0
2235,69.0,240.0,240.0,5.0,0.0
2236,76.0,384.0,240.0,4.0,0.0
2237,67.0,0.0,240.0,5.0,0.0
2238,74.0,0.0,390.0,4.0,0.0
2239,66.0,576.0,390.0,5.0,0.0
2240,62.0,0.0,390.0,6.0,0.0
2241,69.0,480.0,480.0,1.0,0.0
2242,74.0,480.0,480.0,1.0,0.0
2243,76.0,384.0,480.0,1.0,0.0
2244,78.0,576.0,390.0,1.0,0.0
2245,57.0,0.0,480.0,2.0,0.0
2246,74.0,480.0,480.0,1.0,0.0
2247,62.0,384.0,480.0,2.0,0.0
2248,78.0,0.0,480.0,1.0,0.0
2249,64.0,0.0,390.0,2.0,0.0
2250,79.0,480.0,390.0,1.0,0.0
2251,81.0,0.0,1530.0,1.0,0.0
2252,66.0,288.0,1530.0,2.0,0.0
2253,50.0,0.0,390.0,8.0,0.0
2254,62.0,480.0,390.0,7.0,0.0
2255,50.0,480.0,390.0,8.0,0.0
2256,62.0,0.0,390.0,7.0,0.0
2257,62.0,0.0,390.0,7.0,0.0
2258,50.0,192.0,390.0,8.0,0.0
2259,50.0,0.0,390.0,8.0,0.0
2260,62.0,216.0,390.0,7.0,0.0
2261,49.0,408.0,390.0,8.0,0.0
2262,61.0,0.0,390.0,7.0,0.0
2263,80.0,264.0,120.0,1.0,0.0
2264,64.0,216.0,1530.0,2.0,0.0
2265,81.0,72.0,660.0,1.0,0.0
2266,49.0,0.0,390.0,8.0,0.0
2267,61.0,216.0,390.0,7.0,0.0
2268,80.0,264.0,120.0,1.0,0.0
2269,61.0,0.0,390.0,7.0,0.0
2270,49.0,192.0,390.0,8.0,0.0
2271,81.0,72.0,660.0,1.0,0.0
2272,49.0,0.0,390.0,8.0,0.0
2273,61.0,336.0,390.0,7.0,0.0
2274,59.0,0.0,1530.0,7.0,0.0
2275,47.0,144.0,1530.0,8.0,0.0
2276,62.0,240.0,480.0,2.0,0.0
2277,86.0,240.0,240.0,1.0,0.0
2278,85.0,0.0,240.0,1.0,0.0
2279,83.0,0.0,240.0,1.0,0.0
2280,64.0,192.0,240.0,2.0,0.0
2281,81.0,0.0,180.0,1.0,0.0
2282,66.0,288.0,180.0,2.0,0.0
2283,67.0,0.0,1860.0,2.0,0.0
2284,79.0,0.0,240.0,4.0,0.0
2285,79.0,48.0,1860.0,1.0,0.0
2286,67.0,240.0,240.0,5.0,0.0
2287,78.0,0.0,240.0,4.0,0.0
2288,66.0,96.0,240.0,5.0,0.0
2289,76.0,0.0,240.0,4.0,0.0
2290,64.0,192.0,240.0,5.0,0.0
2291,62.0,0.0,180.0,5.0,0.0
2292,74.0,960.0,180.0,4.0,0.0
2293,61.0,768.0,960.0,5.0,0.0
2294,73.0,0.0,960.0,4.0,0.0
2295,46.0,0.0,960.0,8.0,0.0
2296,58.0,0.0,960.0,7.0,0.0
2297,59.0,0.0,780.0,7.0,0.0
2298,66.0,0.0,780.0,2.0,0.0
2299,78.0,0.0,780.0,1.0,0.0
2300,47.0,0.0,780.0,8.0,0.0
2301,74.0,0.0,780.0,4.0,0.0
2302,62.0,912.0,780.0,5.0,0.0
2303,76.0,48.0,720.0,1.0,0.0
2304,59.0,384.0,1440.0,2.0,0.0
2305,43.0,0.0,780.0,8.0,0.0
2306,55.0,32.0,780.0,7.0,0.0
2307,78.0,80.0,90.0,1.0,0.0
2308,76.0,80.0,90.0,1.0,0.0
2309,75.0,384.0,90.0,1.0,0.0
2310,76.0,96.0,390.0,1.0,0.0
2311,78.0,480.0,390.0,1.0,0.0
2312,63.0,0.0,390.0,2.0,0.0
2313,79.0,576.0,390.0,1.0,0.0
2314,64.0,0.0,390.0,2.0,0.0
2315,43.0,0.0,480.0,8.0,0.0
2316,55.0,0.0,480.0,7.0,0.0
2317,79.0,0.0,480.0,1.0,0.0
2318,64.0,480.0,480.0,2.0,0.0
2319,54.0,384.0,480.0,7.0,0.0
2320,66.0,0.0,480.0,2.0,0.0
2321,81.0,0.0,480.0,1.0,0.0
2322,42.0,0.0,480.0,8.0,0.0
2323,52.0,0.0,390.0,7.0,0.0
2324,83.0,576.0,390.0,1.0,0.0
2325,40.0,0.0,390.0,8.0,0.0
2326,67.0,0.0,390.0,2.0,0.0
2327,45.0,0.0,480.0,8.0,0.0
2328,57.0,480.0,480.0,7.0,0.0
2329,78.0,0.0,1440.0,1.0,0.0
2330,62.0,240.0,1440.0,2.0,0.0
2331,44.0,480.0,480.0,8.0,0.0
2332,56.0,0.0,480.0,7.0,0.0
2333,45.0,0.0,480.0,8.0,0.0
2334,57.0,0.0,480.0,7.0,0.0
2335,64.0,0.0,240.0,2.0,0.0
2336,44.0,384.0,480.0,8.0,0.0
2337,79.0,192.0,240.0,1.0,0.0
2338,56.0,0.0,480.0,7.0,0.0
2339,62.0,0.0,180.0,2.0,0.0
2340,78.0,48.0,180.0,1.0,0.0
2341,45.0,0.0,480.0,8.0,0.0
2342,76.0,480.0,480.0,1.0,0.0
2343,61.0,96.0,390.0,2.0,0.0
2344,57.0,0.0,480.0,7.0,0.0
2345,78.0,480.0,480.0,1.0,0.0
2346,79.0,384.0,480.0,1.0,0.0
2347,80.0,480.0,390.0,1.0,0.0
2348,69.0,0.0,4800.0,4.0,0.0
2349,81.0,0.0,4800.0,1.0,0.0
2350,78.0,0.0,960.0,1.0,0.0
2351,62.0,288.0,1530.0,3.0,0.0
2352,66.0,384.0,960.0,5.0,0.0
2353,38.0,0.0,390.0,8.0,0.0
2354,50.0,480.0,390.0,7.0,0.0
2355,57.0,0.0,3840.0,6.0,0.0
2356,50.0,96.0,390.0,7.0,0.0
2357,38.0,0.0,390.0,8.0,0.0
2358,77.0,0.0,960.0,1.0,0.0
2359,65.0,384.0,960.0,5.0,0.0
2360,50.0,0.0,390.0,8.0,0.0
2361,62.0,192.0,390.0,7.0,0.0
2362,50.0,0.0,390.0,8.0,0.0
2363,62.0,96.0,390.0,7.0,0.0
2364,76.0,384.0,960.0,1.0,0.0
2365,57.0,288.0,1530.0,3.0,0.0
2366,69.0,0.0,2880.0,2.0,0.0
2367,64.0,0.0,960.0,5.0,0.0
2368,61.0,480.0,390.0,7.0,0.0
2369,93.0,384.0,2880.0,0.0,0.0
2370,49.0,0.0,390.0,8.0,0.0
2371,49.0,0.0,390.0,8.0,0.0
2372,61.0,96.0,390.0,7.0,0.0
2373,60.0,192.0,390.0,7.0,0.0
2374,75.0,384.0,960.0,1.0,0.0
2375,48.0,0.0,390.0,8.0,0.0
2376,63.0,0.0,960.0,5.0,0.0
2377,48.0,96.0,390.0,8.0,0.0
2378,60.0,0.0,390.0,7.0,0.0
2379,50.0,96.0,2700.0,3.0,0.0
2380,62.0,0.0,2880.0,5.0,0.0
2381,59.0,480.0,390.0,7.0,0.0
2382,47.0,0.0,390.0,8.0,0.0
2383,59.0,0.0,870.0,6.0,0.0
2384,74.0,0.0,2880.0,1.0,0.0
2385,62.0,0.0,2880.0,2.0,0.0
2386,47.0,96.0,390.0,8.0,0.0
2387,59.0,0.0,390.0,7.0,0.0
2388,47.0,336.0,390.0,8.0,0.0
2389,59.0,0.0,390.0,7.0,0.0
2390,68.0,0.0,960.0,4.0,0.0
2391,92.0,0.0,960.0,0.0,0.0
2392,80.0,0.0,960.0,1.0,0.0
2393,59.0,144.0,720.0,6.0,0.0
2394,68.0,0.0,960.0,2.0,0.0
2395,47.0,0.0,390.0,8.0,0.0
2396,59.0,96.0,390.0,7.0,0.0
2397,61.0,384.0,240.0,6.0,0.0
2398,67.0,384.0,960.0,2.0,0.0
2399,79.0,0.0,960.0,1.0,0.0
2400,62.0,0.0,960.0,6.0,0.0
2401,58.0,0.0,390.0,7.0,0.0
2402,91.0,0.0,960.0,0.0,0.0
2403,46.0,384.0,390.0,8.0,0.0
2404,67.0,0.0,960.0,4.0,0.0
2405,46.0,0.0,390.0,8.0,0.0
2406,58.0,96.0,390.0,7.0,0.0
2407,78.0,0.0,780.0,1.0,0.0
2408,75.0,0.0,780.0,1.0,0.0
2409,57.0,384.0,390.0,7.0,0.0
2410,90.0,0.0,780.0,0.0,0.0
2411,63.0,96.0,780.0,5.0,0.0
2412,60.0,0.0,780.0,6.0,0.0
2413,45.0,0.0,390.0,8.0,0.0
2414,66.0,0.0,780.0,4.0,0.0
2415,66.0,0.0,780.0,2.0,0.0
2416,63.0,0.0,780.0,2.0,0.0
2417,45.0,0.0,390.0,8.0,0.0
2418,57.0,480.0,390.0,7.0,0.0
2419,79.0,0.0,1440.0,1.0,0.0
2420,76.0,0.0,1440.0,1.0,0.0
2421,43.0,480.0,390.0,8.0,0.0
2422,67.0,0.0,1440.0,4.0,0.0
2423,67.0,0.0,1920.0,2.0,0.0
2424,64.0,0.0,1920.0,2.0,0.0
2425,55.0,0.0,390.0,7.0,0.0
2426,64.0,96.0,1440.0,5.0,0.0
2427,91.0,384.0,1920.0,0.0,0.0
2428,59.0,144.0,1530.0,6.0,0.0
2429,55.0,480.0,390.0,7.0,0.0
2430,43.0,0.0,390.0,8.0,0.0
2431,55.0,0.0,390.0,7.0,0.0
2432,43.0,96.0,390.0,8.0,0.0
2433,66.0,0.0,240.0,5.0,0.0
2434,43.0,0.0,390.0,8.0,0.0
2435,69.0,144.0,240.0,4.0,0.0
2436,55.0,48.0,390.0,7.0,0.0
2437,81.0,0.0,240.0,1.0,0.0
2438,78.0,0.0,240.0,1.0,0.0
2439,71.0,0.0,180.0,4.0,0.0
2440,67.0,48.0,180.0,5.0,0.0
2441,79.0,0.0,180.0,1.0,0.0
2442,83.0,0.0,180.0,1.0,0.0
2443,62.0,0.0,570.0,5.0,0.0
2444,57.0,96.0,630.0,6.0,0.0
2445,66.0,48.0,570.0,4.0,0.0
2446,78.0,0.0,720.0,1.0,0.0
2447,74.0,144.0,720.0,1.0,0.0
2448,62.0,0.0,720.0,2.0,0.0
2449,90.0,0.0,720.0,0.0,0.0
2450,57.0,192.0,390.0,7.0,0.0
2451,45.0,0.0,390.0,8.0,0.0
2452,66.0,0.0,720.0,2.0,0.0
2453,57.0,480.0,390.0,7.0,0.0
2454,45.0,0.0,390.0,8.0,0.0
2455,33.0,192.0,390.0,8.0,0.0
2456,55.0,96.0,630.0,6.0,0.0
2457,61.0,48.0,570.0,5.0,0.0
2458,76.0,0.0,720.0,1.0,0.0
2459,88.0,0.0,720.0,0.0,0.0
2460,45.0,0.0,390.0,7.0,0.0
2461,64.0,0.0,570.0,4.0,0.0
2462,73.0,144.0,720.0,1.0,0.0
2463,64.0,0.0,720.0,2.0,0.0
2464,61.0,0.0,720.0,2.0,0.0
2465,45.0,0.0,390.0,7.0,0.0
2466,33.0,288.0,390.0,8.0,0.0
2467,50.0,0.0,780.0,7.0,0.0
2468,62.0,240.0,180.0,5.0,0.0
2469,62.0,0.0,180.0,4.0,0.0
2470,54.0,0.0,780.0,6.0,0.0
2471,38.0,0.0,780.0,8.0,0.0
2472,86.0,144.0,780.0,0.0,0.0
2473,62.0,0.0,780.0,2.0,0.0
2474,74.0,0.0,780.0,1.0,0.0
2475,81.0,0.0,180.0,4.0,0.0
2476,81.0,240.0,180.0,5.0,0.0
2477,81.0,96.0,180.0,5.0,0.0
2478,81.0,0.0,180.0,4.0,0.0
2479,81.0,0.0,180.0,4.0,0.0
2480,81.0,240.0,180.0,5.0,0.0
2481,81.0,240.0,180.0,4.0,0.0
2482,81.0,0.0,180.0,5.0,0.0
2483,81.0,0.0,180.0,5.0,0.0
2484,81.0,240.0,180.0,4.0,0.0
2485,81.0,0.0,180.0,5.0,0.0
2486,81.0,240.0,180.0,4.0,0.0
2487,81.0,288.0,180.0,5.0,0.0
2488,81.0,0.0,180.0,4.0,0.0
2489,86.0,0.0,240.0,4.0,0.0
2490,69.0,0.0,300.0,3.0,0.0
2491,66.0,0.0,390.0,7.0,0.0
2492,54.0,0.0,390.0,8.0,0.0
2493,66.0,0.0,390.0,6.0,0.0
2494,66.0,0.0,300.0,2.0,0.0
2495,62.0,0.0,300.0,2.0,0.0
2496,90.0,0.0,300.0,0.0,0.0
2497,86.0,0.0,300.0,1.0,0.0
2498,78.0,96.0,300.0,1.0,0.0
2499,86.0,48.0,240.0,5.0,0.0
2500,90.0,240.0,150.0,4.0,0.0
2501,90.0,0.0,150.0,5.0,0.0
2502,76.0,0.0,300.0,1.0,0.0
2503,85.0,0.0,300.0,1.0,0.0
2504,88.0,144.0,150.0,5.0,0.0
2505,61.0,96.0,300.0,2.0,0.0
2506,88.0,0.0,150.0,4.0,0.0
2507,67.0,336.0,390.0,7.0,0.0
2508,69.0,0.0,300.0,3.0,0.0
2509,64.0,0.0,300.0,2.0,0.0
2510,55.0,0.0,390.0,8.0,0.0
2511,67.0,0.0,390.0,6.0,0.0
2512,88.0,0.0,300.0,0.0,0.0
2513,85.0,0.0,150.0,4.0,0.0
2514,85.0,0.0,150.0,5.0,0.0
2515,86.0,0.0,300.0,1.0,0.0
2516,66.0,240.0,390.0,6.0,0.0
2517,69.0,0.0,300.0,3.0,0.0
2518,66.0,0.0,390.0,7.0,0.0
2519,62.0,0.0,300.0,2.0,0.0
2520,86.0,0.0,240.0,4.0,0.0
2521,66.0,96.0,300.0,2.0,0.0
2522,90.0,0.0,300.0,0.0,0.0
2523,54.0,0.0,390.0,8.0,0.0
2524,86.0,48.0,240.0,5.0,0.0
2525,78.0,0.0,300.0,1.0,0.0
2526,90.0,0.0,150.0,4.0,0.0
2527,90.0,0.0,150.0,5.0,0.0
2528,88.0,144.0,150.0,5.0,0.0
2529,55.0,288.0,390.0,8.0,0.0
2530,67.0,0.0,390.0,7.0,0.0
2531,69.0,0.0,300.0,3.0,0.0
2532,67.0,0.0,390.0,6.0,0.0
2533,88.0,0.0,150.0,4.0,0.0
2534,76.0,0.0,300.0,1.0,0.0
2535,85.0,0.0,300.0,1.0,0.0
2536,64.0,0.0,300.0,2.0,0.0
2537,61.0,0.0,300.0,2.0,0.0
2538,88.0,96.0,300.0,0.0,0.0
2539,85.0,0.0,150.0,4.0,0.0
2540,85.0,0.0,150.0,5.0,0.0
2541,90.0,0.0,780.0,0.0,0.0
2542,66.0,0.0,780.0,7.0,0.0
2543,62.0,0.0,780.0,2.0,0.0
2544,66.0,0.0,780.0,2.0,0.0
2545,66.0,0.0,780.0,6.0,0.0
2546,86.0,240.0,180.0,5.0,0.0
2547,86.0,0.0,780.0,1.0,0.0
2548,54.0,0.0,780.0,8.0,0.0
2549,69.0,0.0,780.0,3.0,0.0
2550,86.0,0.0,180.0,4.0,0.0
2551,78.0,144.0,780.0,1.0,0.0
2552,81.0,240.0,180.0,4.0,0.0
2553,81.0,0.0,180.0,5.0,0.0
2554,81.0,0.0,180.0,5.0,0.0
2555,81.0,96.0,180.0,4.0,0.0
2556,81.0,240.0,180.0,5.0,0.0
2557,81.0,0.0,180.0,4.0,0.0
2558,81.0,0.0,180.0,4.0,0.0
2559,81.0,240.0,180.0,5.0,0.0
2560,81.0,240.0,180.0,4.0,0.0
2561,81.0,0.0,180.0,5.0,0.0
2562,81.0,0.0,180.0,4.0,0.0
2563,81.0,240.0,180.0,5.0,0.0
2564,81.0,0.0,180.0,5.0,0.0
2565,81.0,288.0,180.0,4.0,0.0
2566,86.0,48.0,240.0,5.0,0.0
2567,86.0,0.0,300.0,1.0,0.0
2568,66.0,0.0,390.0,6.0,0.0
2569,66.0,0.0,390.0,7.0,0.0
2570,78.0,0.0,300.0,1.0,0.0
2571,54.0,240.0,390.0,8.0,0.0
2572,62.0,0.0,300.0,2.0,0.0
2573,66.0,0.0,300.0,2.0,0.0
2574,90.0,0.0,300.0,0.0,0.0
2575,86.0,0.0,240.0,4.0,0.0
2576,69.0,96.0,300.0,3.0,0.0
2577,90.0,0.0,150.0,5.0,0.0
2578,90.0,0.0,150.0,4.0,0.0
2579,88.0,0.0,300.0,0.0,0.0
2580,85.0,0.0,300.0,1.0,0.0
2581,76.0,0.0,300.0,1.0,0.0
2582,55.0,0.0,390.0,8.0,0.0
2583,64.0,96.0,300.0,2.0,0.0
2584,69.0,0.0,300.0,3.0,0.0
2585,61.0,0.0,300.0,2.0,0.0
2586,88.0,0.0,150.0,4.0,0.0
2587,67.0,336.0,390.0,6.0,0.0
2588,67.0,0.0,390.0,7.0,0.0
2589,88.0,144.0,150.0,5.0,0.0
2590,85.0,0.0,150.0,4.0,0.0
2591,85.0,0.0,150.0,5.0,0.0
2592,54.0,0.0,390.0,8.0,0.0
2593,66.0,0.0,390.0,7.0,0.0
2594,66.0,240.0,390.0,6.0,0.0
2595,78.0,0.0,300.0,1.0,0.0
2596,86.0,0.0,300.0,1.0,0.0
2597,66.0,0.0,300.0,2.0,0.0
2598,69.0,0.0,300.0,3.0,0.0
2599,62.0,96.0,300.0,2.0,0.0
2600,86.0,0.0,240.0,4.0,0.0
2601,90.0,0.0,300.0,0.0,0.0
2602,86.0,48.0,240.0,5.0,0.0
2603,90.0,0.0,150.0,4.0,0.0
2604,90.0,0.0,150.0,5.0,0.0
2605,55.0,0.0,390.0,8.0,0.0
2606,67.0,288.0,390.0,6.0,0.0
2607,69.0,0.0,300.0,3.0,0.0
2608,88.0,144.0,150.0,5.0,0.0
2609,64.0,0.0,300.0,2.0,0.0
2610,88.0,0.0,300.0,0.0,0.0
2611,88.0,0.0,150.0,4.0,0.0
2612,76.0,0.0,300.0,1.0,0.0
2613,85.0,0.0,300.0,1.0,0.0
2614,67.0,0.0,390.0,7.0,0.0
2615,61.0,96.0,300.0,2.0,0.0
2616,85.0,0.0,150.0,4.0,0.0
2617,85.0,0.0,150.0,5.0,0.0
2618,86.0,0.0,780.0,1.0,0.0
2619,66.0,0.0,780.0,2.0,0.0
2620,62.0,0.0,780.0,2.0,0.0
2621,78.0,0.0,780.0,1.0,0.0
2622,66.0,0.0,780.0,7.0,0.0
2623,86.0,240.0,180.0,5.0,0.0
2624,54.0,0.0,780.0,8.0,0.0
2625,66.0,0.0,780.0,6.0,0.0
2626,69.0,0.0,780.0,3.0,0.0
2627,86.0,0.0,180.0,4.0,0.0
2628,90.0,144.0,780.0,0.0,0.0
2629,81.0,0.0,180.0,4.0,0.0
2630,81.0,240.0,180.0,5.0,0.0
2631,81.0,0.0,180.0,4.0,0.0
2632,81.0,96.0,180.0,5.0,0.0
2633,81.0,0.0,180.0,5.0,0.0
2634,81.0,240.0,180.0,4.0,0.0
2635,81.0,0.0,180.0,4.0,0.0
2636,81.0,240.0,180.0,5.0,0.0
2637,81.0,0.0,180.0,5.0,0.0
2638,81.0,240.0,180.0,4.0,0.0
2639,81.0,240.0,180.0,5.0,0.0
2640,81.0,0.0,180.0,4.0,0.0
2641,81.0,0.0,180.0,4.0,0.0
2642,81.0,288.0,180.0,5.0,0.0
2643,69.0,0.0,300.0,3.0,0.0
2644,90.0,0.0,300.0,0.0,0.0
2645,62.0,0.0,300.0,2.0,0.0
2646,66.0,0.0,390.0,7.0,0.0
2647,66.0,96.0,300.0,2.0,0.0
2648,66.0,0.0,390.0,6.0,0.0
2649,78.0,0.0,300.0,1.0,0.0
2650,86.0,0.0,300.0,1.0,0.0
2651,54.0,0.0,390.0,8.0,0.0
2652,86.0,48.0,240.0,4.0,0.0
2653,86.0,0.0,240.0,5.0,0.0
2654,90.0,0.0,150.0,5.0,0.0
2655,90.0,240.0,150.0,4.0,0.0
2656,61.0,0.0,300.0,2.0,0.0
2657,55.0,0.0,390.0,8.0,0.0
2658,67.0,0.0,390.0,6.0,0.0
2659,88.0,0.0,150.0,5.0,0.0
2660,76.0,96.0,300.0,1.0,0.0
2661,85.0,0.0,300.0,1.0,0.0
2662,64.0,0.0,300.0,2.0,0.0
2663,67.0,336.0,390.0,7.0,0.0
2664,88.0,144.0,150.0,4.0,0.0
2665,88.0,0.0,300.0,0.0,0.0
2666,69.0,0.0,300.0,3.0,0.0
2667,85.0,0.0,150.0,4.0,0.0
2668,85.0,0.0,150.0,5.0,0.0
2669,86.0,0.0,240.0,5.0,0.0
2670,90.0,96.0,300.0,0.0,0.0
2671,54.0,0.0,390.0,8.0,0.0
2672,86.0,0.0,300.0,1.0,0.0
2673,78.0,0.0,300.0,1.0,0.0
2674,62.0,0.0,300.0,2.0,0.0
2675,66.0,0.0,300.0,2.0,0.0
2676,69.0,0.0,300.0,3.0,0.0
2677,66.0,0.0,390.0,7.0,0.0
2678,86.0,48.0,240.0,4.0,0.0
2679,66.0,240.0,390.0,6.0,0.0
2680,90.0,0.0,150.0,5.0,0.0
2681,90.0,0.0,150.0,4.0,0.0
2682,69.0,0.0,300.0,3.0,0.0
2683,55.0,0.0,390.0,8.0,0.0
2684,64.0,0.0,300.0,2.0,0.0
2685,85.0,0.0,300.0,1.0,0.0
2686,88.0,0.0,150.0,4.0,0.0
2687,76.0,96.0,300.0,1.0,0.0
2688,67.0,0.0,390.0,7.0,0.0
2689,67.0,0.0,390.0,6.0,0.0
2690,88.0,144.0,150.0,5.0,0.0
2691,61.0,0.0,300.0,2.0,0.0
2692,88.0,0.0,300.0,0.0,0.0
2693,85.0,288.0,150.0,4.0,0.0
2694,85.0,0.0,150.0,5.0,0.0
2695,86.0,0.0,180.0,4.0,0.0
2696,66.0,0.0,780.0,2.0,0.0
2697,54.0,0.0,390.0,8.0,0.0
2698,66.0,0.0,390.0,6.0,0.0
2699,86.0,192.0,180.0,5.0,0.0
2700,66.0,0.0,390.0,7.0,0.0
2701,86.0,0.0,780.0,1.0,0.0
2702,93.0,144.0,780.0,0.0,0.0
2703,78.0,0.0,780.0,1.0,0.0
2704,74.0,48.0,390.0,3.0,0.0
2705,62.0,0.0,780.0,2.0,0.0
2706,81.0,0.0,180.0,5.0,0.0
2707,81.0,240.0,180.0,4.0,0.0
2708,81.0,0.0,180.0,5.0,0.0
2709,81.0,96.0,180.0,4.0,0.0
2710,81.0,0.0,180.0,5.0,0.0
2711,81.0,240.0,180.0,4.0,0.0
2712,67.0,0.0,780.0,2.0,0.0
2713,91.0,144.0,780.0,0.0,0.0
2714,55.0,0.0,390.0,8.0,0.0
2715,67.0,0.0,390.0,7.0,0.0
2716,71.0,0.0,780.0,2.0,0.0
2717,67.0,0.0,390.0,6.0,0.0
2718,83.0,0.0,780.0,1.0,0.0
2719,83.0,0.0,180.0,4.0,0.0
2720,62.0,48.0,390.0,3.0,0.0
2721,88.0,0.0,780.0,1.0,0.0
2722,83.0,192.0,180.0,5.0,0.0
2723,79.0,0.0,180.0,4.0,0.0
2724,79.0,240.0,180.0,5.0,0.0
2725,79.0,0.0,180.0,5.0,0.0
2726,79.0,96.0,180.0,4.0,0.0
2727,79.0,0.0,180.0,5.0,0.0
2728,79.0,240.0,180.0,4.0,0.0
2729,78.0,192.0,180.0,5.0,0.0
2730,69.0,48.0,390.0,3.0,0.0
2731,78.0,0.0,180.0,4.0,0.0
2732,90.0,0.0,780.0,0.0,0.0
2733,69.0,0.0,780.0,2.0,0.0
2734,69.0,0.0,390.0,6.0,0.0
2735,81.0,144.0,780.0,1.0,0.0
2736,69.0,0.0,390.0,7.0,0.0
2737,57.0,0.0,390.0,8.0,0.0
2738,86.0,0.0,780.0,1.0,0.0
2739,66.0,0.0,780.0,2.0,0.0
2740,74.0,240.0,180.0,4.0,0.0
2741,74.0,0.0,180.0,5.0,0.0
2742,74.0,0.0,180.0,5.0,0.0
2743,74.0,96.0,180.0,4.0,0.0
2744,74.0,240.0,180.0,4.0,0.0
2745,74.0,0.0,180.0,5.0,0.0
2746,85.0,144.0,780.0,1.0,0.0
2747,57.0,0.0,390.0,6.0,0.0
2748,45.0,0.0,390.0,8.0,0.0
2749,88.0,0.0,780.0,0.0,0.0
2750,67.0,0.0,780.0,2.0,0.0
2751,64.0,0.0,780.0,2.0,0.0
2752,79.0,0.0,780.0,1.0,0.0
2753,57.0,0.0,390.0,7.0,0.0
2754,81.0,0.0,180.0,5.0,0.0
2755,69.0,48.0,390.0,3.0,0.0
2756,81.0,192.0,180.0,4.0,0.0
2757,73.0,240.0,180.0,5.0,0.0
2758,73.0,0.0,180.0,4.0,0.0
2759,73.0,0.0,180.0,5.0,0.0
2760,73.0,96.0,180.0,4.0,0.0
2761,73.0,0.0,180.0,5.0,0.0
2762,73.0,192.0,180.0,4.0,0.0
2763,74.0,240.0,150.0,4.0,0.0
2764,86.0,0.0,390.0,0.0,0.0
2765,62.0,0.0,390.0,6.0,0.0
2766,62.0,0.0,390.0,3.0,0.0
2767,66.0,0.0,390.0,2.0,0.0
2768,74.0,0.0,390.0,5.0,0.0
2769,78.0,0.0,390.0,1.0,0.0
2770,86.0,0.0,390.0,1.0,0.0
2771,50.0,0.0,390.0,8.0,0.0
2772,62.0,0.0,390.0,2.0,0.0
2773,62.0,96.0,390.0,7.0,0.0
2774,69.0,240.0,240.0,4.0,0.0
2775,68.0,240.0,240.0,4.0,0.0
2776,69.0,240.0,240.0,4.0,0.0
2777,68.0,240.0,240.0,4.0,0.0
2778,69.0,240.0,240.0,4.0,0.0
2779,71.0,192.0,240.0,4.0,0.0
2780,69.0,288.0,180.0,4.0,0.0
2781,57.0,0.0,390.0,6.0,0.0
2782,42.0,240.0,390.0,8.0,0.0
2783,54.0,0.0,390.0,7.0,0.0
2784,62.0,144.0,240.0,5.0,0.0
2785,74.0,0.0,240.0,4.0,0.0
2786,78.0,0.0,150.0,4.0,0.0
2787,66.0,0.0,150.0,5.0,0.0
2788,76.0,240.0,150.0,4.0,0.0
2789,55.0,0.0,390.0,7.0,0.0
2790,64.0,0.0,150.0,5.0,0.0
2791,57.0,96.0,780.0,6.0,0.0
2792,43.0,336.0,390.0,8.0,0.0
2793,73.0,0.0,150.0,4.0,0.0
2794,61.0,0.0,150.0,5.0,0.0
2795,42.0,0.0,390.0,8.0,0.0
2796,54.0,0.0,390.0,7.0,0.0
2797,74.0,48.0,240.0,4.0,0.0
2798,62.0,0.0,240.0,5.0,0.0
2799,78.0,0.0,150.0,4.0,0.0
2800,66.0,240.0,150.0,5.0,0.0
2801,64.0,0.0,150.0,5.0,0.0
2802,57.0,0.0,870.0,6.0,0.0
2803,55.0,0.0,390.0,7.0,0.0
2804,76.0,240.0,150.0,4.0,0.0
2805,43.0,0.0,390.0,8.0,0.0
2806,61.0,0.0,150.0,5.0,0.0
2807,73.0,240.0,150.0,4.0,0.0
2808,54.0,96.0,390.0,7.0,0.0
2809,42.0,0.0,390.0,8.0,0.0
2810,62.0,240.0,150.0,5.0,0.0
2811,74.0,0.0,150.0,4.0,0.0
2812,69.0,0.0,240.0,5.0,0.0
2813,81.0,240.0,240.0,4.0,0.0
2814,80.0,0.0,240.0,4.0,0.0
2815,68.0,240.0,240.0,5.0,0.0
2816,81.0,240.0,240.0,4.0,0.0
2817,69.0,0.0,240.0,5.0,0.0
2818,68.0,0.0,240.0,5.0,0.0
2819,80.0,240.0,240.0,4.0,0.0
2820,69.0,240.0,240.0,5.0,0.0
2821,81.0,0.0,240.0,4.0,0.0
2822,83.0,192.0,240.0,4.0,0.0
2823,71.0,0.0,240.0,5.0,0.0
2824,69.0,0.0,180.0,5.0,0.0
2825,81.0,288.0,180.0,4.0,0.0
2826,42.0,0.0,390.0,8.0,0.0
2827,74.0,144.0,240.0,4.0,0.0
2828,57.0,0.0,390.0,6.0,0.0
2829,62.0,0.0,240.0,5.0,0.0
2830,54.0,0.0,390.0,7.0,0.0
2831,66.0,240.0,150.0,5.0,0.0
2832,78.0,0.0,150.0,4.0,0.0
2833,55.0,0.0,390.0,7.0,0.0
2834,64.0,240.0,150.0,5.0,0.0
2835,43.0,0.0,390.0,8.0,0.0
2836,57.0,96.0,780.0,6.0,0.0
2837,76.0,0.0,150.0,4.0,0.0
2838,73.0,336.0,150.0,4.0,0.0
2839,61.0,0.0,150.0,5.0,0.0
2840,42.0,0.0,390.0,8.0,0.0
2841,62.0,0.0,240.0,5.0,0.0
2842,74.0,48.0,240.0,4.0,0.0
2843,54.0,240.0,390.0,7.0,0.0
2844,78.0,0.0,150.0,4.0,0.0
2845,66.0,0.0,150.0,5.0,0.0
2846,57.0,96.0,870.0,6.0,0.0
2847,43.0,240.0,390.0,8.0,0.0
2848,76.0,0.0,150.0,4.0,0.0
2849,64.0,240.0,150.0,5.0,0.0
2850,55.0,0.0,390.0,7.0,0.0
2851,73.0,0.0,150.0,4.0,0.0
2852,61.0,0.0,150.0,5.0,0.0
2853,62.0,0.0,390.0,5.0,0.0
2854,54.0,0.0,390.0,7.0,0.0
2855,74.0,240.0,150.0,4.0,0.0
2856,42.0,0.0,390.0,8.0,0.0
2857,69.0,240.0,240.0,4.0,0.0
2858,68.0,240.0,240.0,4.0,0.0
2859,69.0,240.0,240.0,4.0,0.0
2860,68.0,240.0,240.0,4.0,0.0
2861,69.0,240.0,240.0,4.0,0.0
2862,71.0,192.0,240.0,4.0,0.0
2863,69.0,240.0,180.0,4.0,0.0
2864,54.0,0.0,390.0,8.0,0.0
2865,90.0,0.0,300.0,0.0,0.0
2866,78.0,96.0,300.0,1.0,0.0
2867,86.0,0.0,300.0,1.0,0.0
2868,69.0,0.0,300.0,3.0,0.0
2869,74.0,96.0,180.0,5.0,0.0
2870,66.0,0.0,300.0,2.0,0.0
2871,66.0,0.0,390.0,7.0,0.0
2872,62.0,0.0,300.0,2.0,0.0
2873,81.0,0.0,180.0,4.0,0.0
2874,66.0,48.0,390.0,6.0,0.0
2875,81.0,240.0,180.0,4.0,0.0
2876,78.0,0.0,180.0,5.0,0.0
2877,61.0,96.0,300.0,2.0,0.0
2878,67.0,0.0,390.0,6.0,0.0
2879,76.0,0.0,300.0,1.0,0.0
2880,85.0,0.0,300.0,1.0,0.0
2881,69.0,0.0,300.0,3.0,0.0
2882,88.0,0.0,300.0,0.0,0.0
2883,67.0,0.0,390.0,7.0,0.0
2884,64.0,0.0,300.0,2.0,0.0
2885,76.0,96.0,180.0,5.0,0.0
2886,81.0,0.0,180.0,4.0,0.0
2887,55.0,48.0,390.0,8.0,0.0
2888,81.0,240.0,180.0,4.0,0.0
2889,73.0,0.0,180.0,5.0,0.0
2890,81.0,0.0,180.0,4.0,0.0
2891,86.0,0.0,300.0,1.0,0.0
2892,90.0,0.0,300.0,0.0,0.0
2893,78.0,0.0,300.0,1.0,0.0
2894,74.0,96.0,180.0,5.0,0.0
2895,66.0,0.0,390.0,6.0,0.0
2896,66.0,0.0,390.0,7.0,0.0
2897,66.0,0.0,300.0,2.0,0.0
2898,62.0,96.0,300.0,2.0,0.0
2899,54.0,48.0,390.0,8.0,0.0
2900,69.0,0.0,300.0,3.0,0.0
2901,78.0,240.0,180.0,5.0,0.0
2902,81.0,0.0,180.0,4.0,0.0
2903,81.0,96.0,180.0,4.0,0.0
2904,55.0,0.0,390.0,8.0,0.0
2905,88.0,96.0,300.0,0.0,0.0
2906,64.0,0.0,300.0,2.0,0.0
2907,76.0,0.0,300.0,1.0,0.0
2908,67.0,0.0,390.0,6.0,0.0
2909,76.0,0.0,180.0,5.0,0.0
2910,67.0,48.0,390.0,7.0,0.0
2911,69.0,0.0,300.0,3.0,0.0
2912,85.0,0.0,300.0,1.0,0.0
2913,61.0,0.0,300.0,2.0,0.0
2914,73.0,240.0,180.0,5.0,0.0
2915,81.0,0.0,180.0,4.0,0.0
2916,62.0,96.0,780.0,2.0,0.0
2917,66.0,0.0,780.0,2.0,0.0
2918,66.0,0.0,390.0,7.0,0.0
2919,86.0,0.0,780.0,1.0,0.0
2920,78.0,0.0,780.0,1.0,0.0
2921,81.0,0.0,180.0,4.0,0.0
2922,54.0,48.0,390.0,8.0,0.0
2923,74.0,0.0,390.0,3.0,0.0
2924,66.0,0.0,390.0,6.0,0.0
2925,81.0,192.0,180.0,5.0,0.0
2926,93.0,0.0,780.0,0.0,0.0
2927,86.0,0.0,180.0,5.0,0.0
2928,86.0,240.0,180.0,4.0,0.0
2929,66.0,0.0,390.0,7.0,0.0
2930,86.0,0.0,180.0,4.0,0.0
2931,66.0,48.0,390.0,6.0,0.0
2932,86.0,96.0,180.0,5.0,0.0
2933,54.0,0.0,390.0,8.0,0.0
2934,86.0,240.0,180.0,5.0,0.0
2935,86.0,0.0,180.0,4.0,0.0
2936,62.0,0.0,390.0,3.0,0.0
2937,83.0,0.0,780.0,1.0,0.0
2938,88.0,0.0,780.0,1.0,0.0
2939,91.0,96.0,780.0,0.0,0.0
2940,71.0,0.0,780.0,2.0,0.0
2941,67.0,0.0,390.0,6.0,0.0
2942,67.0,0.0,780.0,2.0,0.0
2943,76.0,0.0,180.0,5.0,0.0
2944,55.0,0.0,390.0,8.0,0.0
2945,76.0,192.0,180.0,4.0,0.0
2946,67.0,48.0,390.0,7.0,0.0
2947,83.0,240.0,180.0,4.0,0.0
2948,83.0,0.0,180.0,5.0,0.0
2949,67.0,48.0,390.0,6.0,0.0
2950,83.0,96.0,180.0,5.0,0.0
2951,83.0,0.0,180.0,4.0,0.0
2952,55.0,0.0,390.0,8.0,0.0
2953,67.0,0.0,390.0,7.0,0.0
2954,83.0,240.0,180.0,4.0,0.0
2955,83.0,0.0,180.0,5.0,0.0
2956,81.0,192.0,180.0,5.0,0.0
2957,57.0,48.0,390.0,8.0,0.0
2958,69.0,0.0,390.0,7.0,0.0
2959,69.0,0.0,390.0,6.0,0.0
2960,81.0,0.0,780.0,1.0,0.0
2961,66.0,0.0,780.0,2.0,0.0
2962,69.0,0.0,390.0,3.0,0.0
2963,81.0,0.0,180.0,4.0,0.0
2964,86.0,96.0,780.0,1.0,0.0
2965,69.0,0.0,780.0,2.0,0.0
2966,90.0,0.0,780.0,0.0,0.0
2967,78.0,240.0,180.0,4.0,0.0
2968,78.0,0.0,180.0,5.0,0.0
2969,57.0,0.0,390.0,8.0,0.0
2970,69.0,0.0,390.0,7.0,0.0
2971,69.0,48.0,390.0,6.0,0.0
2972,78.0,0.0,180.0,5.0,0.0
2973,78.0,96.0,180.0,4.0,0.0
2974,78.0,240.0,180.0,5.0,0.0
2975,78.0,0.0,180.0,4.0,0.0
2976,57.0,0.0,390.0,7.0,0.0
2977,88.0,96.0,780.0,0.0,0.0
2978,81.0,192.0,180.0,4.0,0.0
2979,45.0,0.0,390.0,8.0,0.0
2980,81.0,0.0,180.0,5.0,0.0
2981,69.0,48.0,390.0,3.0,0.0
2982,64.0,0.0,780.0,2.0,0.0
2983,85.0,0.0,780.0,1.0,0.0
2984,79.0,0.0,780.0,1.0,0.0
2985,67.0,0.0,780.0,2.0,0.0
2986,57.0,0.0,390.0,6.0,0.0
2987,73.0,240.0,180.0,5.0,0.0
2988,73.0,0.0,180.0,4.0,0.0
2989,73.0,96.0,180.0,4.0,0.0
2990,45.0,48.0,390.0,8.0,0.0
2991,57.0,0.0,390.0,7.0,0.0
2992,73.0,0.0,180.0,5.0,0.0
2993,57.0,0.0,390.0,6.0,0.0
2994,73.0,0.0,180.0,5.0,0.0
2995,73.0,228.0,180.0,4.0,0.0
2996,66.0,0.0,780.0,3.0,0.0
2997,86.0,0.0,780.0,1.0,0.0
2998,78.0,96.0,300.0,1.0,0.0
2999,66.0,0.0,780.0,2.0,0.0
3000,62.0,0.0,780.0,2.0,0.0
3001,38.0,108.0,180.0,8.0,0.0
3002,86.0,132.0,780.0,0.0,0.0
3003,74.0,0.0,390.0,5.0,0.0
3004,74.0,0.0,780.0,4.0,0.0
3005,62.0,36.0,390.0,6.0,0.0
3006,50.0,0.0,180.0,7.0,0.0
3007,40.0,0.0,180.0,8.0,0.0
3008,52.0,240.0,180.0,7.0,0.0
3009,74.0,0.0,300.0,1.0,0.0
3010,78.0,0.0,780.0,5.0,0.0
3011,74.0,0.0,780.0,6.0,0.0
3012,69.0,132.0,780.0,5.0,0.0
3013,42.0,108.0,180.0,8.0,0.0
3014,54.0,0.0,180.0,7.0,0.0
3015,62.0,0.0,300.0,3.0,0.0
3016,55.0,240.0,180.0,7.0,0.0
3017,43.0,0.0,180.0,8.0,0.0
3018,69.0,0.0,300.0,3.0,0.0
3019,81.0,0.0,300.0,1.0,0.0
3020,57.0,108.0,180.0,7.0,0.0
3021,45.0,0.0,180.0,8.0,0.0
3022,47.0,0.0,180.0,8.0,0.0
3023,59.0,240.0,180.0,7.0,0.0
3024,61.0,12.0,180.0,7.0,0.0
3025,66.0,0.0,300.0,2.0,0.0
3026,62.0,96.0,300.0,2.0,0.0
3027,86.0,0.0,300.0,0.0,0.0
3028,78.0,36.0,390.0,5.0,0.0
3029,74.0,96.0,180.0,6.0,0.0
3030,69.0,0.0,300.0,3.0,0.0
3031,81.0,0.0,300.0,1.0,0.0
3032,78.0,0.0,300.0,1.0,0.0
3033,69.0,0.0,390.0,5.0,0.0
3034,49.0,0.0,180.0,8.0,0.0
3035,86.0,0.0,180.0,4.0,0.0
3036,74.0,240.0,180.0,6.0,0.0
3037,50.0,12.0,180.0,8.0,0.0
3038,62.0,0.0,180.0,7.0,0.0
3039,85.0,144.0,300.0,0.0,0.0
3040,85.0,96.0,180.0,4.0,0.0
3041,76.0,0.0,180.0,6.0,0.0
3042,81.0,0.0,1260.0,1.0,0.0
3043,76.0,0.0,300.0,1.0,0.0
3044,69.0,96.0,1140.0,3.0,0.0
3045,64.0,0.0,300.0,2.0,0.0
3046,69.0,0.0,180.0,5.0,0.0
3047,79.0,0.0,180.0,5.0,0.0
3048,57.0,0.0,780.0,7.0,0.0
3049,59.0,0.0,300.0,2.0,0.0
3050,45.0,0.0,780.0,8.0,0.0
3051,79.0,240.0,180.0,5.0,0.0
3052,76.0,0.0,180.0,6.0,0.0
3053,88.0,0.0,180.0,4.0,0.0
3054,69.0,0.0,180.0,5.0,0.0
3055,76.0,96.0,180.0,6.0,0.0
3056,57.0,0.0,300.0,2.0,0.0
3057,73.0,0.0,300.0,1.0,0.0
3058,61.0,0.0,300.0,2.0,0.0
3059,81.0,144.0,300.0,0.0,0.0
3060,91.0,0.0,180.0,4.0,0.0
3061,69.0,0.0,180.0,5.0,0.0
3062,79.0,0.0,180.0,5.0,0.0
3063,76.0,240.0,180.0,6.0,0.0
3064,69.0,0.0,180.0,5.0,0.0
3065,79.0,0.0,180.0,5.0,0.0
3066,88.0,0.0,180.0,4.0,0.0
3067,91.0,0.0,180.0,4.0,0.0
3068,61.0,144.0,300.0,2.0,0.0
3069,69.0,0.0,300.0,2.0,0.0
3070,76.0,0.0,180.0,6.0,0.0
3071,69.0,0.0,180.0,5.0,0.0
3072,79.0,0.0,180.0,5.0,0.0
3073,93.0,0.0,300.0,0.0,0.0
3074,85.0,0.0,300.0,1.0,0.0
3075,88.0,0.0,180.0,4.0,0.0
3076,69.0,0.0,180.0,5.0,0.0
3077,79.0,240.0,180.0,5.0,0.0
3078,76.0,0.0,180.0,6.0,0.0
3079,81.0,0.0,300.0,1.0,0.0
3080,69.0,0.0,300.0,2.0,0.0
3081,61.0,0.0,300.0,2.0,0.0
3082,76.0,0.0,180.0,6.0,0.0
3083,85.0,132.0,300.0,1.0,0.0
3084,85.0,96.0,180.0,4.0,0.0
3085,93.0,0.0,300.0,0.0,0.0
3086,69.0,0.0,300.0,3.0,0.0
3087,69.0,0.0,180.0,5.0,0.0
3088,79.0,0.0,180.0,5.0,0.0
3089,88.0,0.0,180.0,4.0,0.0
3090,45.0,12.0,180.0,7.0,0.0
3091,33.0,0.0,180.0,8.0,0.0
3092,69.0,0.0,180.0,5.0,0.0
3093,76.0,0.0,180.0,6.0,0.0
3094,79.0,228.0,180.0,5.0,0.0
3095,50.0,12.0,180.0,7.0,0.0
3096,78.0,132.0,300.0,1.0,0.0
3097,90.0,0.0,1140.0,0.0,0.0
3098,66.0,132.0,780.0,3.0,0.0
3099,74.0,0.0,180.0,6.0,0.0
3100,66.0,0.0,1140.0,2.0,0.0
3101,78.0,0.0,180.0,5.0,0.0
3102,69.0,96.0,180.0,5.0,0.0
3103,86.0,132.0,1260.0,1.0,0.0
3104,38.0,0.0,180.0,8.0,0.0
3105,62.0,0.0,1140.0,2.0,0.0
3106,86.0,0.0,780.0,4.0,0.0
3107,40.0,12.0,180.0,8.0,0.0
3108,74.0,228.0,180.0,6.0,0.0
3109,69.0,0.0,180.0,5.0,0.0
3110,78.0,0.0,180.0,5.0,0.0
3111,52.0,0.0,180.0,7.0,0.0
3112,74.0,0.0,300.0,1.0,0.0
3113,74.0,0.0,180.0,6.0,0.0
3114,62.0,0.0,300.0,3.0,0.0
3115,69.0,0.0,180.0,5.0,0.0
3116,78.0,96.0,180.0,5.0,0.0
3117,42.0,12.0,180.0,8.0,0.0
3118,54.0,0.0,180.0,7.0,0.0
3119,55.0,12.0,180.0,7.0,0.0
3120,74.0,228.0,180.0,6.0,0.0
3121,78.0,0.0,180.0,5.0,0.0
3122,69.0,0.0,180.0,5.0,0.0
3123,43.0,0.0,180.0,8.0,0.0
3124,81.0,0.0,300.0,1.0,0.0
3125,45.0,12.0,180.0,8.0,0.0
3126,69.0,0.0,180.0,5.0,0.0
3127,78.0,0.0,180.0,5.0,0.0
3128,57.0,0.0,180.0,7.0,0.0
3129,74.0,96.0,180.0,6.0,0.0
3130,69.0,0.0,300.0,3.0,0.0
3131,59.0,12.0,180.0,7.0,0.0
3132,47.0,0.0,180.0,8.0,0.0
3133,78.0,0.0,180.0,5.0,0.0
3134,74.0,0.0,180.0,6.0,0.0
3135,69.0,228.0,180.0,5.0,0.0
3136,66.0,0.0,300.0,2.0,0.0
3137,74.0,0.0,180.0,6.0,0.0
3138,86.0,0.0,180.0,4.0,0.0
3139,69.0,0.0,300.0,3.0,0.0
3140,61.0,12.0,180.0,7.0,0.0
3141,49.0,0.0,180.0,8.0,0.0
3142,69.0,96.0,180.0,5.0,0.0
3143,78.0,0.0,180.0,5.0,0.0
3144,86.0,132.0,300.0,0.0,0.0
3145,81.0,0.0,300.0,1.0,0.0
3146,78.0,0.0,300.0,1.0,0.0
3147,62.0,0.0,300.0,2.0,0.0
3148,78.0,0.0,180.0,5.0,0.0
3149,62.0,0.0,180.0,7.0,0.0
3150,74.0,0.0,180.0,6.0,0.0
3151,69.0,240.0,180.0,5.0,0.0
3152,50.0,12.0,180.0,8.0,0.0
3153,59.0,0.0,300.0,2.0,0.0
3154,64.0,0.0,300.0,2.0,0.0
3155,76.0,144.0,300.0,1.0,0.0
3156,85.0,0.0,180.0,4.0,0.0
3157,57.0,0.0,780.0,7.0,0.0
3158,69.0,96.0,180.0,5.0,0.0
3159,45.0,0.0,780.0,8.0,0.0
3160,69.0,0.0,1140.0,3.0,0.0
3161,85.0,0.0,300.0,0.0,0.0
3162,81.0,144.0,1260.0,1.0,0.0
3163,79.0,0.0,180.0,5.0,0.0
3164,76.0,0.0,180.0,6.0,0.0
3165,88.0,240.0,180.0,4.0,0.0
3166,76.0,0.0,180.0,6.0,0.0
3167,69.0,0.0,180.0,5.0,0.0
3168,79.0,0.0,180.0,5.0,0.0
3169,73.0,0.0,300.0,1.0,0.0
3170,57.0,0.0,300.0,2.0,0.0
3171,76.0,0.0,180.0,6.0,0.0
3172,81.0,0.0,300.0,0.0,0.0
3173,61.0,144.0,300.0,2.0,0.0
3174,69.0,0.0,180.0,5.0,0.0
3175,91.0,96.0,180.0,4.0,0.0
3176,79.0,0.0,180.0,5.0,0.0
3177,76.0,0.0,180.0,6.0,0.0
3178,79.0,240.0,180.0,5.0,0.0
3179,88.0,0.0,180.0,4.0,0.0
3180,69.0,0.0,180.0,5.0,0.0
3181,91.0,0.0,180.0,4.0,0.0
3182,76.0,96.0,180.0,6.0,0.0
3183,79.0,0.0,180.0,5.0,0.0
3184,69.0,0.0,180.0,5.0,0.0
3185,93.0,0.0,300.0,0.0,0.0
3186,61.0,0.0,300.0,2.0,0.0
3187,85.0,0.0,300.0,1.0,0.0
3188,69.0,0.0,300.0,2.0,0.0
3189,79.0,240.0,180.0,5.0,0.0
3190,69.0,0.0,180.0,5.0,0.0
3191,76.0,0.0,180.0,6.0,0.0
3192,88.0,0.0,180.0,4.0,0.0
3193,93.0,0.0,300.0,0.0,0.0
3194,69.0,132.0,300.0,3.0,0.0
3195,79.0,0.0,180.0,5.0,0.0
3196,61.0,0.0,300.0,2.0,0.0
3197,69.0,0.0,180.0,5.0,0.0
3198,85.0,0.0,300.0,1.0,0.0
3199,81.0,0.0,300.0,1.0,0.0
3200,85.0,0.0,180.0,4.0,0.0
3201,69.0,0.0,300.0,2.0,0.0
3202,76.0,96.0,180.0,6.0,0.0
3203,79.0,228.0,180.0,5.0,0.0
3204,76.0,0.0,180.0,6.0,0.0
3205,88.0,0.0,180.0,4.0,0.0
3206,33.0,0.0,180.0,8.0,0.0
3207,69.0,0.0,180.0,5.0,0.0
3208,45.0,12.0,180.0,7.0,0.0
3209,66.0,132.0,780.0,3.0,0.0
3210,69.0,96.0,180.0,5.0,0.0
3211,86.0,0.0,780.0,4.0,0.0
3212,74.0,0.0,180.0,6.0,0.0
3213,50.0,0.0,180.0,7.0,0.0
3214,90.0,0.0,1140.0,0.0,0.0
3215,78.0,0.0,180.0,5.0,0.0
3216,62.0,0.0,1140.0,2.0,0.0
3217,66.0,96.0,1140.0,2.0,0.0
3218,38.0,12.0,180.0,8.0,0.0
3219,78.0,132.0,300.0,1.0,0.0
3220,86.0,132.0,1260.0,1.0,0.0
3221,78.0,0.0,180.0,5.0,0.0
3222,74.0,0.0,180.0,6.0,0.0
3223,52.0,12.0,180.0,7.0,0.0
3224,69.0,228.0,180.0,5.0,0.0
3225,40.0,0.0,180.0,8.0,0.0
3226,74.0,0.0,300.0,1.0,0.0
3227,62.0,0.0,300.0,3.0,0.0
3228,54.0,0.0,180.0,7.0,0.0
3229,78.0,0.0,180.0,5.0,0.0
3230,69.0,0.0,180.0,5.0,0.0
3231,42.0,12.0,180.0,8.0,0.0
3232,74.0,96.0,180.0,6.0,0.0
3233,69.0,0.0,180.0,5.0,0.0
3234,43.0,12.0,180.0,8.0,0.0
3235,55.0,0.0,180.0,7.0,0.0
3236,74.0,0.0,180.0,6.0,0.0
3237,78.0,228.0,180.0,5.0,0.0
3238,81.0,0.0,300.0,1.0,0.0
3239,57.0,12.0,180.0,7.0,0.0
3240,78.0,0.0,180.0,5.0,0.0
3241,69.0,0.0,180.0,5.0,0.0
3242,69.0,0.0,300.0,3.0,0.0
3243,45.0,0.0,180.0,8.0,0.0
3244,74.0,0.0,180.0,6.0,0.0
3245,74.0,228.0,180.0,6.0,0.0
3246,47.0,0.0,180.0,8.0,0.0
3247,78.0,0.0,180.0,5.0,0.0
3248,69.0,0.0,180.0,5.0,0.0
3249,59.0,12.0,180.0,7.0,0.0
3250,62.0,0.0,300.0,2.0,0.0
3251,86.0,0.0,300.0,0.0,0.0
3252,81.0,132.0,300.0,1.0,0.0
3253,78.0,0.0,300.0,1.0,0.0
3254,74.0,96.0,180.0,6.0,0.0
3255,69.0,0.0,300.0,3.0,0.0
3256,49.0,0.0,180.0,8.0,0.0
3257,86.0,0.0,180.0,4.0,0.0
3258,78.0,0.0,180.0,5.0,0.0
3259,69.0,0.0,180.0,5.0,0.0
3260,66.0,0.0,300.0,2.0,0.0
3261,61.0,12.0,180.0,7.0,0.0
3262,62.0,12.0,180.0,7.0,0.0
3263,50.0,0.0,180.0,8.0,0.0
3264,74.0,240.0,180.0,6.0,0.0
3265,78.0,0.0,180.0,5.0,0.0
3266,69.0,0.0,180.0,5.0,0.0
3267,57.0,0.0,780.0,7.0,0.0
3268,59.0,0.0,300.0,2.0,0.0
3269,64.0,0.0,300.0,2.0,0.0
3270,85.0,0.0,180.0,4.0,0.0
3271,76.0,0.0,180.0,6.0,0.0
3272,81.0,0.0,1260.0,1.0,0.0
3273,76.0,144.0,300.0,1.0,0.0
3274,45.0,144.0,780.0,8.0,0.0
3275,79.0,96.0,180.0,5.0,0.0
3276,69.0,96.0,1140.0,3.0,0.0
3277,85.0,0.0,300.0,0.0,0.0
3278,69.0,0.0,180.0,5.0,0.0
3279,79.0,0.0,180.0,5.0,0.0
3280,69.0,0.0,180.0,5.0,0.0
3281,88.0,0.0,180.0,4.0,0.0
3282,76.0,240.0,180.0,6.0,0.0
3283,69.0,0.0,180.0,5.0,0.0
3284,79.0,0.0,180.0,5.0,0.0
3285,81.0,0.0,300.0,0.0,0.0
3286,73.0,0.0,300.0,1.0,0.0
3287,57.0,0.0,300.0,2.0,0.0
3288,61.0,0.0,300.0,2.0,0.0
3289,76.0,0.0,180.0,6.0,0.0
3290,91.0,96.0,180.0,4.0,0.0
3291,79.0,0.0,180.0,5.0,0.0
3292,76.0,240.0,180.0,6.0,0.0
3293,69.0,0.0,180.0,5.0,0.0
3294,88.0,0.0,180.0,4.0,0.0
3295,93.0,0.0,300.0,0.0,0.0
3296,76.0,0.0,180.0,6.0,0.0
3297,85.0,0.0,300.0,1.0,0.0
3298,91.0,0.0,180.0,4.0,0.0
3299,69.0,0.0,180.0,5.0,0.0
3300,79.0,0.0,180.0,5.0,0.0
3301,61.0,144.0,300.0,2.0,0.0
3302,69.0,0.0,300.0,2.0,0.0
3303,79.0,0.0,180.0,5.0,0.0
3304,69.0,0.0,180.0,5.0,0.0
3305,88.0,240.0,180.0,4.0,0.0
3306,76.0,0.0,180.0,6.0,0.0
3307,85.0,0.0,300.0,1.0,0.0
3308,69.0,0.0,180.0,5.0,0.0
3309,76.0,0.0,180.0,6.0,0.0
3310,79.0,96.0,180.0,5.0,0.0
3311,93.0,0.0,300.0,0.0,0.0
3312,85.0,0.0,180.0,4.0,0.0
3313,69.0,0.0,300.0,3.0,0.0
3314,69.0,0.0,300.0,2.0,0.0
3315,61.0,0.0,300.0,2.0,0.0
3316,81.0,144.0,300.0,1.0,0.0
3317,76.0,0.0,180.0,6.0,0.0
3318,69.0,0.0,180.0,5.0,0.0
3319,79.0,0.0,180.0,5.0,0.0
3320,45.0,432.0,180.0,7.0,0.0
3321,88.0,0.0,180.0,4.0,0.0
3322,33.0,0.0,180.0,8.0,0.0
3323,74.0,0.0,390.0,6.0,0.0
3324,86.0,0.0,390.0,4.0,0.0
3325,86.0,0.0,390.0,0.0,0.0
3326,50.0,0.0,390.0,7.0,0.0
3327,62.0,0.0,390.0,3.0,0.0
3328,78.0,0.0,390.0,1.0,0.0
3329,66.0,0.0,390.0,3.0,0.0
3330,86.0,0.0,390.0,1.0,0.0
3331,38.0,960.0,390.0,8.0,0.0
3332,66.0,0.0,390.0,2.0,0.0
3333,62.0,0.0,390.0,2.0,0.0
3334,78.0,0.0,390.0,5.0,0.0
3335,69.0,0.0,390.0,5.0,0.0
3336,50.0,0.0,390.0,8.0,0.0
3337,81.0,1344.0,390.0,1.0,0.0
3338,74.0,0.0,390.0,6.0,0.0
3339,78.0,0.0,390.0,1.0,0.0
3340,86.0,0.0,390.0,4.0,0.0
3341,66.0,0.0,390.0,4.0,0.0
3342,62.0,0.0,390.0,7.0,0.0
3343,74.0,0.0,390.0,4.0,0.0
3344,86.0,0.0,390.0,5.0,0.0
3345,74.0,0.0,390.0,5.0,0.0
3346,66.0,0.0,390.0,5.0,0.0
3347,90.0,0.0,390.0,0.0,0.0
3348,62.0,0.0,390.0,2.0,0.0
3349,66.0,0.0,390.0,3.0,0.0
3350,69.0,0.0,390.0,3.0,0.0
3351,66.0,0.0,780.0,3.0,0.0
3352,62.0,0.0,780.0,3.0,0.0
3353,62.0,0.0,780.0,5.0,0.0
3354,62.0,0.0,780.0,4.0,0.0
3355,50.0,0.0,780.0,7.0,0.0
3356,38.0,0.0,780.0,8.0,0.0
3357,86.0,1056.0,780.0,0.0,0.0
3358,74.0,0.0,780.0,1.0,0.0
3359,50.0,0.0,780.0,2.0,0.0
3360,78.0,0.0,780.0,1.0,0.0
3361,62.0,0.0,780.0,6.0,0.0
3362,66.0,384.0,390.0,4.0,0.0
3363,59.0,0.0,780.0,7.0,0.0
3364,47.0,0.0,780.0,8.0,0.0
3365,71.0,480.0,300.0,4.0,0.0
3366,59.0,480.0,780.0,2.0,0.0
3367,71.0,0.0,300.0,5.0,0.0
3368,62.0,0.0,300.0,6.0,0.0
3369,74.0,0.0,300.0,4.0,0.0
3370,71.0,0.0,300.0,5.0,0.0
3371,62.0,0.0,300.0,6.0,0.0
3372,78.0,480.0,300.0,4.0,0.0
3373,83.0,0.0,300.0,4.0,0.0
3374,71.0,0.0,300.0,5.0,0.0
3375,62.0,960.0,300.0,6.0,0.0
3376,47.0,0.0,780.0,8.0,0.0
3377,86.0,288.0,960.0,4.0,0.0
3378,59.0,0.0,780.0,2.0,0.0
3379,59.0,192.0,780.0,7.0,0.0
3380,65.0,0.0,300.0,6.0,0.0
3381,68.0,0.0,300.0,5.0,0.0
3382,65.0,0.0,300.0,6.0,0.0
3383,85.0,0.0,300.0,4.0,0.0
3384,68.0,336.0,300.0,5.0,0.0
3385,77.0,144.0,150.0,4.0,0.0
3386,85.0,0.0,300.0,1.0,0.0
3387,73.0,0.0,300.0,3.0,0.0
3388,80.0,96.0,300.0,1.0,0.0
3389,47.0,0.0,390.0,8.0,0.0
3390,77.0,0.0,150.0,5.0,0.0
3391,59.0,0.0,300.0,2.0,0.0
3392,59.0,0.0,390.0,7.0,0.0
3393,73.0,0.0,870.0,6.0,0.0
3394,89.0,0.0,300.0,0.0,0.0
3395,80.0,336.0,150.0,4.0,0.0
3396,80.0,0.0,150.0,5.0,0.0
3397,78.0,0.0,240.0,4.0,0.0
3398,78.0,48.0,240.0,5.0,0.0
3399,73.0,0.0,300.0,3.0,0.0
3400,46.0,0.0,390.0,8.0,0.0
3401,90.0,0.0,300.0,0.0,0.0
3402,66.0,0.0,300.0,3.0,0.0
3403,78.0,0.0,300.0,1.0,0.0
3404,85.0,0.0,300.0,1.0,0.0
3405,58.0,96.0,300.0,2.0,0.0
3406,58.0,0.0,390.0,7.0,0.0
3407,82.0,240.0,150.0,4.0,0.0
3408,82.0,0.0,150.0,5.0,0.0
3409,73.0,0.0,780.0,6.0,0.0
3410,59.0,0.0,390.0,7.0,0.0
3411,80.0,144.0,150.0,4.0,0.0
3412,89.0,96.0,300.0,0.0,0.0
3413,59.0,0.0,300.0,2.0,0.0
3414,80.0,0.0,300.0,1.0,0.0
3415,47.0,0.0,390.0,8.0,0.0
3416,73.0,0.0,300.0,3.0,0.0
3417,80.0,0.0,150.0,5.0,0.0
3418,85.0,0.0,300.0,1.0,0.0
3419,77.0,336.0,150.0,4.0,0.0
3420,77.0,0.0,150.0,5.0,0.0
3421,46.0,0.0,390.0,8.0,0.0
3422,58.0,240.0,390.0,7.0,0.0
3423,85.0,0.0,300.0,1.0,0.0
3424,78.0,0.0,300.0,1.0,0.0
3425,66.0,0.0,300.0,3.0,0.0
3426,73.0,0.0,300.0,3.0,0.0
3427,58.0,0.0,300.0,2.0,0.0
3428,78.0,0.0,240.0,4.0,0.0
3429,78.0,48.0,240.0,5.0,0.0
3430,90.0,96.0,300.0,0.0,0.0
3431,82.0,0.0,150.0,4.0,0.0
3432,82.0,0.0,150.0,5.0,0.0
3433,80.0,0.0,300.0,1.0,0.0
3434,73.0,0.0,300.0,3.0,0.0
3435,80.0,0.0,150.0,4.0,0.0
3436,73.0,0.0,390.0,6.0,0.0
3437,59.0,0.0,300.0,2.0,0.0
3438,80.0,144.0,150.0,5.0,0.0
3439,47.0,0.0,390.0,8.0,0.0
3440,85.0,0.0,300.0,1.0,0.0
3441,59.0,864.0,390.0,7.0,0.0
3442,89.0,96.0,300.0,0.0,0.0
3443,77.0,0.0,150.0,5.0,0.0
3444,77.0,0.0,150.0,4.0,0.0
3445,58.0,0.0,780.0,2.0,0.0
3446,78.0,0.0,780.0,5.0,0.0
3447,58.0,0.0,780.0,7.0,0.0
3448,66.0,0.0,780.0,3.0,0.0
3449,90.0,0.0,780.0,0.0,0.0
3450,73.0,1152.0,780.0,3.0,0.0
3451,73.0,0.0,780.0,6.0,0.0
3452,78.0,0.0,780.0,4.0,0.0
3453,85.0,0.0,780.0,1.0,0.0
3454,78.0,0.0,780.0,1.0,0.0
3455,46.0,0.0,780.0,8.0,0.0
3456,78.0,288.0,480.0,4.0,0.0
3457,52.0,0.0,780.0,2.0,0.0
3458,52.0,0.0,780.0,7.0,0.0
3459,79.0,480.0,300.0,4.0,0.0
3460,40.0,0.0,780.0,8.0,0.0
3461,82.0,480.0,300.0,4.0,0.0
3462,64.0,0.0,300.0,6.0,0.0
3463,67.0,0.0,300.0,5.0,0.0
3464,67.0,0.0,300.0,5.0,0.0
3465,85.0,0.0,300.0,4.0,0.0
3466,64.0,480.0,300.0,6.0,0.0
3467,64.0,0.0,300.0,6.0,0.0
3468,88.0,960.0,300.0,4.0,0.0
3469,67.0,0.0,300.0,5.0,0.0
3470,54.0,192.0,780.0,2.0,0.0
3471,91.0,288.0,960.0,4.0,0.0
3472,54.0,0.0,780.0,7.0,0.0
3473,42.0,0.0,780.0,8.0,0.0
3474,64.0,0.0,300.0,6.0,0.0
3475,70.0,0.0,300.0,5.0,0.0
3476,64.0,0.0,300.0,6.0,0.0
3477,90.0,336.0,300.0,4.0,0.0
3478,70.0,0.0,300.0,5.0,0.0
3479,66.0,0.0,780.0,6.0,0.0
3480,90.0,0.0,300.0,0.0,0.0
3481,54.0,0.0,300.0,7.0,0.0
3482,82.0,0.0,150.0,4.0,0.0
3483,66.0,0.0,300.0,3.0,0.0
3484,82.0,0.0,300.0,1.0,0.0
3485,88.0,0.0,300.0,1.0,0.0
3486,54.0,0.0,300.0,2.0,0.0
3487,42.0,0.0,300.0,8.0,0.0
3488,76.0,96.0,300.0,3.0,0.0
3489,73.0,144.0,150.0,5.0,0.0
3490,85.0,0.0,150.0,4.0,0.0
3491,76.0,336.0,150.0,5.0,0.0
3492,59.0,0.0,300.0,7.0,0.0
3493,66.0,0.0,300.0,3.0,0.0
3494,83.0,0.0,300.0,1.0,0.0
3495,86.0,0.0,300.0,1.0,0.0
3496,59.0,0.0,300.0,2.0,0.0
3497,83.0,48.0,240.0,4.0,0.0
3498,74.0,0.0,300.0,3.0,0.0
3499,74.0,0.0,240.0,5.0,0.0
3500,47.0,0.0,300.0,8.0,0.0
3501,90.0,96.0,300.0,0.0,0.0
3502,78.0,0.0,150.0,5.0,0.0
3503,86.0,240.0,150.0,4.0,0.0
3504,88.0,0.0,300.0,1.0,0.0
3505,76.0,144.0,150.0,5.0,0.0
3506,42.0,0.0,300.0,8.0,0.0
3507,82.0,0.0,300.0,1.0,0.0
3508,54.0,0.0,300.0,7.0,0.0
3509,76.0,0.0,300.0,3.0,0.0
3510,66.0,0.0,300.0,3.0,0.0
3511,54.0,96.0,300.0,2.0,0.0
3512,66.0,144.0,570.0,6.0,0.0
3513,90.0,0.0,300.0,0.0,0.0
3514,85.0,0.0,150.0,4.0,0.0
3515,82.0,0.0,150.0,4.0,0.0
3516,73.0,192.0,150.0,5.0,0.0
3517,83.0,48.0,240.0,4.0,0.0
3518,59.0,0.0,300.0,2.0,0.0
3519,47.0,0.0,300.0,8.0,0.0
3520,74.0,0.0,300.0,3.0,0.0
3521,66.0,0.0,300.0,3.0,0.0
3522,90.0,0.0,300.0,0.0,0.0
3523,74.0,0.0,240.0,5.0,0.0
3524,83.0,0.0,300.0,1.0,0.0
3525,86.0,0.0,300.0,1.0,0.0
3526,59.0,96.0,300.0,7.0,0.0
3527,78.0,0.0,150.0,5.0,0.0
3528,86.0,240.0,150.0,4.0,0.0
3529,42.0,0.0,300.0,8.0,0.0
3530,88.0,0.0,300.0,1.0,0.0
3531,82.0,0.0,300.0,1.0,0.0
3532,54.0,0.0,300.0,7.0,0.0
3533,54.0,96.0,300.0,2.0,0.0
3534,66.0,0.0,300.0,3.0,0.0
3535,76.0,0.0,300.0,3.0,0.0
3536,90.0,0.0,300.0,0.0,0.0
3537,66.0,0.0,300.0,6.0,0.0
3538,85.0,0.0,150.0,4.0,0.0
3539,76.0,144.0,150.0,5.0,0.0
3540,82.0,0.0,150.0,4.0,0.0
3541,73.0,864.0,150.0,5.0,0.0
3542,47.0,0.0,780.0,8.0,0.0
3543,66.0,0.0,780.0,6.0,0.0
3544,59.0,0.0,780.0,2.0,0.0
3545,83.0,0.0,780.0,4.0,0.0
3546,74.0,0.0,780.0,3.0,0.0
3547,83.0,0.0,780.0,1.0,0.0
3548,86.0,0.0,780.0,1.0,0.0
3549,59.0,0.0,780.0,7.0,0.0
3550,90.0,1152.0,780.0,0.0,0.0
3551,66.0,0.0,780.0,3.0,0.0
3552,74.0,0.0,780.0,5.0,0.0
3553,66.0,288.0,480.0,4.0,0.0
3554,59.0,480.0,780.0,2.0,0.0
3555,59.0,0.0,780.0,7.0,0.0
3556,71.0,480.0,300.0,4.0,0.0
3557,47.0,0.0,780.0,8.0,0.0
3558,74.0,0.0,300.0,4.0,0.0
3559,71.0,0.0,300.0,5.0,0.0
3560,62.0,0.0,300.0,6.0,0.0
3561,62.0,480.0,300.0,6.0,0.0
3562,71.0,0.0,300.0,5.0,0.0
3563,78.0,0.0,300.0,4.0,0.0
3564,71.0,960.0,300.0,5.0,0.0
3565,62.0,0.0,300.0,6.0,0.0
3566,83.0,0.0,300.0,4.0,0.0
3567,59.0,192.0,780.0,7.0,0.0
3568,59.0,0.0,780.0,2.0,0.0
3569,86.0,288.0,960.0,4.0,0.0
3570,47.0,0.0,780.0,8.0,0.0
3571,68.0,0.0,300.0,5.0,0.0
3572,65.0,0.0,300.0,6.0,0.0
3573,85.0,0.0,300.0,4.0,0.0
3574,65.0,0.0,300.0,6.0,0.0
3575,68.0,336.0,300.0,5.0,0.0
3576,77.0,0.0,150.0,5.0,0.0
3577,59.0,0.0,390.0,7.0,0.0
3578,89.0,0.0,300.0,0.0,0.0
3579,77.0,144.0,150.0,4.0,0.0
3580,73.0,0.0,300.0,3.0,0.0
3581,85.0,0.0,300.0,1.0,0.0
3582,80.0,96.0,300.0,1.0,0.0
3583,47.0,336.0,390.0,8.0,0.0
3584,59.0,0.0,300.0,2.0,0.0
3585,73.0,240.0,870.0,6.0,0.0
3586,80.0,0.0,150.0,4.0,0.0
3587,80.0,0.0,150.0,5.0,0.0
3588,78.0,0.0,240.0,4.0,0.0
3589,78.0,48.0,240.0,5.0,0.0
3590,73.0,0.0,300.0,3.0,0.0
3591,66.0,0.0,300.0,3.0,0.0
3592,58.0,0.0,390.0,7.0,0.0
3593,90.0,96.0,300.0,0.0,0.0
3594,78.0,0.0,300.0,1.0,0.0
3595,85.0,0.0,300.0,1.0,0.0
3596,46.0,0.0,390.0,8.0,0.0
3597,58.0,0.0,300.0,2.0,0.0
3598,82.0,0.0,150.0,4.0,0.0
3599,82.0,0.0,150.0,5.0,0.0
3600,47.0,0.0,390.0,8.0,0.0
3601,80.0,0.0,300.0,1.0,0.0
3602,89.0,0.0,300.0,0.0,0.0
3603,80.0,0.0,150.0,5.0,0.0
3604,73.0,0.0,780.0,6.0,0.0
3605,73.0,96.0,300.0,3.0,0.0
3606,59.0,0.0,390.0,7.0,0.0
3607,85.0,0.0,300.0,1.0,0.0
3608,80.0,144.0,150.0,4.0,0.0
3609,59.0,0.0,300.0,2.0,0.0
3610,77.0,336.0,150.0,5.0,0.0
3611,77.0,0.0,150.0,4.0,0.0
3612,73.0,96.0,300.0,3.0,0.0
3613,58.0,0.0,300.0,2.0,0.0
3614,58.0,0.0,390.0,7.0,0.0
3615,90.0,0.0,300.0,0.0,0.0
3616,66.0,0.0,300.0,3.0,0.0
3617,46.0,0.0,390.0,8.0,0.0
3618,78.0,48.0,240.0,5.0,0.0
3619,78.0,0.0,240.0,4.0,0.0
3620,85.0,0.0,300.0,1.0,0.0
3621,78.0,0.0,300.0,1.0,0.0
3622,82.0,240.0,150.0,5.0,0.0
3623,82.0,0.0,150.0,4.0,0.0
3624,89.0,96.0,300.0,0.0,0.0
3625,59.0,0.0,300.0,2.0,0.0
3626,80.0,144.0,150.0,4.0,0.0
3627,80.0,0.0,300.0,1.0,0.0
3628,85.0,0.0,300.0,1.0,0.0
3629,80.0,0.0,150.0,5.0,0.0
3630,59.0,0.0,390.0,7.0,0.0
3631,73.0,864.0,390.0,6.0,0.0
3632,47.0,0.0,390.0,8.0,0.0
3633,73.0,0.0,300.0,3.0,0.0
3634,77.0,0.0,150.0,5.0,0.0
3635,77.0,0.0,150.0,4.0,0.0
3636,85.0,0.0,780.0,1.0,0.0
3637,58.0,0.0,780.0,7.0,0.0
3638,73.0,0.0,780.0,6.0,0.0
3639,73.0,0.0,780.0,3.0,0.0
3640,78.0,0.0,780.0,4.0,0.0
3641,66.0,0.0,780.0,3.0,0.0
3642,78.0,0.0,780.0,5.0,0.0
3643,78.0,0.0,780.0,1.0,0.0
3644,90.0,0.0,780.0,0.0,0.0
3645,46.0,0.0,780.0,8.0,0.0
3646,58.0,1152.0,780.0,2.0,0.0
3647,78.0,288.0,480.0,4.0,0.0
3648,79.0,480.0,300.0,4.0,0.0
3649,40.0,0.0,780.0,8.0,0.0
3650,52.0,0.0,780.0,2.0,0.0
3651,52.0,0.0,780.0,7.0,0.0
3652,64.0,0.0,300.0,6.0,0.0
3653,67.0,0.0,300.0,5.0,0.0
3654,82.0,480.0,300.0,4.0,0.0
3655,85.0,0.0,300.0,4.0,0.0
3656,67.0,0.0,300.0,5.0,0.0
3657,64.0,480.0,300.0,6.0,0.0
3658,67.0,0.0,300.0,5.0,0.0
3659,88.0,960.0,300.0,4.0,0.0
3660,64.0,0.0,300.0,6.0,0.0
3661,42.0,0.0,780.0,8.0,0.0
3662,54.0,0.0,780.0,2.0,0.0
3663,91.0,288.0,960.0,4.0,0.0
3664,54.0,0.0,780.0,7.0,0.0
3665,70.0,0.0,300.0,5.0,0.0
3666,64.0,192.0,300.0,6.0,0.0
3667,64.0,0.0,300.0,6.0,0.0
3668,70.0,336.0,300.0,5.0,0.0
3669,90.0,0.0,300.0,4.0,0.0
3670,66.0,0.0,300.0,3.0,0.0
3671,73.0,0.0,150.0,5.0,0.0
3672,82.0,0.0,300.0,1.0,0.0
3673,88.0,0.0,300.0,1.0,0.0
3674,54.0,0.0,300.0,2.0,0.0
3675,76.0,96.0,300.0,3.0,0.0
3676,90.0,0.0,300.0,0.0,0.0
3677,42.0,0.0,300.0,8.0,0.0
3678,66.0,96.0,780.0,6.0,0.0
3679,54.0,0.0,300.0,7.0,0.0
3680,82.0,144.0,150.0,4.0,0.0
3681,76.0,336.0,150.0,5.0,0.0
3682,85.0,0.0,150.0,4.0,0.0
3683,47.0,0.0,300.0,8.0,0.0
3684,90.0,0.0,300.0,0.0,0.0
3685,74.0,0.0,240.0,5.0,0.0
3686,83.0,48.0,240.0,4.0,0.0
3687,86.0,0.0,300.0,1.0,0.0
3688,59.0,0.0,300.0,7.0,0.0
3689,83.0,0.0,300.0,1.0,0.0
3690,74.0,0.0,300.0,3.0,0.0
3691,59.0,0.0,300.0,2.0,0.0
3692,66.0,0.0,300.0,3.0,0.0
3693,78.0,240.0,150.0,5.0,0.0
3694,86.0,0.0,150.0,4.0,0.0
3695,66.0,144.0,570.0,6.0,0.0
3696,42.0,0.0,300.0,8.0,0.0
3697,76.0,0.0,300.0,3.0,0.0
3698,85.0,0.0,150.0,4.0,0.0
3699,54.0,0.0,300.0,7.0,0.0
3700,88.0,0.0,300.0,1.0,0.0
3701,82.0,0.0,300.0,1.0,0.0
3702,66.0,0.0,300.0,3.0,0.0
3703,76.0,144.0,150.0,5.0,0.0
3704,90.0,0.0,300.0,0.0,0.0
3705,54.0,96.0,300.0,2.0,0.0
3706,73.0,192.0,150.0,5.0,0.0
3707,82.0,0.0,150.0,4.0,0.0
3708,83.0,48.0,240.0,4.0,0.0
3709,59.0,0.0,300.0,2.0,0.0
3710,90.0,0.0,300.0,0.0,0.0
3711,47.0,0.0,300.0,8.0,0.0
3712,83.0,96.0,300.0,1.0,0.0
3713,86.0,0.0,300.0,1.0,0.0
3714,74.0,0.0,240.0,5.0,0.0
3715,66.0,0.0,300.0,3.0,0.0
3716,74.0,0.0,300.0,3.0,0.0
3717,59.0,0.0,300.0,7.0,0.0
3718,78.0,0.0,150.0,5.0,0.0
3719,86.0,240.0,150.0,4.0,0.0
3720,76.0,0.0,150.0,5.0,0.0
3721,85.0,144.0,150.0,4.0,0.0
3722,90.0,0.0,300.0,0.0,0.0
3723,88.0,0.0,300.0,1.0,0.0
3724,66.0,0.0,300.0,6.0,0.0
3725,42.0,0.0,300.0,8.0,0.0
3726,82.0,0.0,300.0,1.0,0.0
3727,54.0,96.0,300.0,2.0,0.0
3728,54.0,0.0,300.0,7.0,0.0
3729,76.0,0.0,300.0,3.0,0.0
3730,66.0,0.0,300.0,3.0,0.0
3731,82.0,864.0,150.0,4.0,0.0
3732,73.0,0.0,150.0,5.0,0.0
3733,74.0,0.0,780.0,5.0,0.0
3734,66.0,0.0,780.0,6.0,0.0
3735,74.0,0.0,780.0,3.0,0.0
3736,66.0,0.0,780.0,3.0,0.0
3737,59.0,0.0,780.0,2.0,0.0
3738,90.0,0.0,780.0,0.0,0.0
3739,83.0,0.0,780.0,4.0,0.0
3740,47.0,0.0,780.0,8.0,0.0
3741,59.0,0.0,780.0,7.0,0.0
3742,83.0,960.0,780.0,1.0,0.0
3743,86.0,0.0,780.0,1.0,0.0
3744,54.0,0.0,300.0,7.0,0.0
3745,42.0,0.0,300.0,8.0,0.0
3746,66.0,0.0,300.0,2.0,0.0
3747,90.0,0.0,300.0,0.0,0.0
3748,54.0,0.0,300.0,3.0,0.0
3749,78.0,0.0,300.0,5.0,0.0
3750,54.0,0.0,300.0,2.0,0.0
3751,66.0,0.0,300.0,3.0,0.0
3752,66.0,0.0,300.0,1.0,0.0
3753,78.0,0.0,300.0,1.0,0.0
3754,90.0,0.0,300.0,4.0,0.0
3755,66.0,480.0,300.0,6.0,0.0
3756,66.0,0.0,300.0,6.0,0.0
3757,54.0,480.0,300.0,7.0,0.0
3758,66.0,0.0,780.0,1.0,0.0
3759,90.0,0.0,780.0,0.0,0.0
3760,54.0,0.0,780.0,2.0,0.0
3761,54.0,0.0,780.0,3.0,0.0
3762,78.0,0.0,780.0,1.0,0.0
3763,42.0,0.0,780.0,8.0,0.0
3764,66.0,0.0,780.0,2.0,0.0
3765,90.0,96.0,1140.0,4.0,0.0
3766,66.0,0.0,780.0,3.0,0.0
3767,78.0,0.0,300.0,5.0,0.0
3768,73.0,384.0,300.0,5.0,0.0
3769,70.0,0.0,300.0,6.0,0.0
3770,66.0,0.0,300.0,7.0,0.0
3771,66.0,480.0,300.0,7.0,0.0
3772,70.0,0.0,300.0,6.0,0.0
3773,73.0,0.0,300.0,5.0,0.0
3774,66.0,0.0,300.0,7.0,0.0
3775,73.0,252.0,300.0,5.0,0.0
3776,70.0,0.0,300.0,6.0,0.0
3777,78.0,0.0,300.0,4.0,0.0
3778,71.0,0.0,480.0,6.0,0.0
3779,66.0,72.0,1140.0,7.0,0.0
3780,74.0,264.0,480.0,5.0,0.0
3781,81.0,60.0,60.0,4.0,0.0
3782,79.0,60.0,60.0,4.0,0.0
3783,81.0,60.0,60.0,4.0,0.0
3784,79.0,60.0,60.0,4.0,0.0
3785,81.0,60.0,60.0,4.0,0.0
3786,79.0,60.0,60.0,4.0,0.0
3787,81.0,60.0,60.0,4.0,0.0
3788,79.0,0.0,60.0,4.0,0.0
3789,70.0,0.0,300.0,6.0,0.0
3790,78.0,24.0,270.0,4.0,0.0
3791,73.0,384.0,300.0,5.0,0.0
3792,73.0,0.0,300.0,5.0,0.0
3793,78.0,24.0,270.0,4.0,0.0
3794,70.0,480.0,300.0,6.0,0.0
3795,90.0,0.0,300.0,0.0,0.0
3796,90.0,0.0,300.0,4.0,0.0
3797,66.0,0.0,300.0,3.0,0.0
3798,54.0,0.0,300.0,2.0,0.0
3799,66.0,0.0,300.0,2.0,0.0
3800,78.0,0.0,300.0,1.0,0.0
3801,66.0,0.0,300.0,1.0,0.0
3802,66.0,0.0,300.0,6.0,0.0
3803,54.0,480.0,300.0,3.0,0.0
3804,54.0,0.0,300.0,7.0,0.0
3805,78.0,0.0,300.0,5.0,0.0
3806,42.0,0.0,300.0,8.0,0.0
3807,66.0,480.0,300.0,6.0,0.0
3808,66.0,384.0,780.0,2.0,0.0
3809,78.0,0.0,780.0,1.0,0.0
3810,90.0,96.0,1140.0,4.0,0.0
3811,54.0,0.0,300.0,7.0,0.0
3812,54.0,0.0,780.0,2.0,0.0
3813,90.0,0.0,780.0,0.0,0.0
3814,78.0,0.0,300.0,5.0,0.0
3815,54.0,0.0,780.0,3.0,0.0
3816,66.0,0.0,780.0,3.0,0.0
3817,66.0,0.0,780.0,1.0,0.0
3818,42.0,0.0,780.0,8.0,0.0
3819,70.0,0.0,300.0,6.0,0.0
3820,66.0,0.0,300.0,7.0,0.0
3821,73.0,0.0,300.0,5.0,0.0
3822,70.0,0.0,300.0,6.0,0.0
3823,66.0,0.0,300.0,7.0,0.0
3824,73.0,480.0,300.0,5.0,0.0
3825,73.0,0.0,300.0,5.0,0.0
3826,66.0,96.0,300.0,7.0,0.0
3827,70.0,0.0,300.0,6.0,0.0
3828,78.0,156.0,390.0,4.0,0.0
3829,71.0,0.0,480.0,6.0,0.0
3830,66.0,96.0,1140.0,7.0,0.0
3831,81.0,60.0,60.0,4.0,0.0
3832,74.0,264.0,480.0,5.0,0.0
3833,79.0,60.0,60.0,4.0,0.0
3834,81.0,60.0,60.0,4.0,0.0
3835,79.0,60.0,60.0,4.0,0.0
3836,81.0,60.0,60.0,4.0,0.0
3837,79.0,60.0,60.0,4.0,0.0
3838,81.0,60.0,60.0,4.0,0.0
3839,79.0,0.0,60.0,4.0,0.0
3840,70.0,384.0,300.0,6.0,0.0
3841,73.0,0.0,300.0,5.0,0.0
3842,78.0,24.0,270.0,4.0,0.0
3843,78.0,576.0,390.0,4.0,0.0
3844,73.0,0.0,300.0,5.0,0.0
3845,70.0,96.0,300.0,6.0,0.0
3846,78.0,288.0,480.0,4.0,0.0
3847,52.0,0.0,780.0,7.0,0.0
3848,79.0,480.0,300.0,4.0,0.0
3849,40.0,0.0,780.0,8.0,0.0
3850,52.0,480.0,780.0,2.0,0.0
3851,82.0,0.0,300.0,4.0,0.0
3852,64.0,0.0,300.0,6.0,0.0
3853,67.0,0.0,300.0,5.0,0.0
3854,64.0,0.0,300.0,6.0,0.0
3855,85.0,480.0,300.0,4.0,0.0
3856,67.0,0.0,300.0,5.0,0.0
3857,64.0,0.0,300.0,6.0,0.0
3858,88.0,960.0,300.0,4.0,0.0
3859,67.0,0.0,300.0,5.0,0.0
3860,54.0,96.0,780.0,7.0,0.0
3861,42.0,0.0,780.0,8.0,0.0
3862,54.0,0.0,780.0,2.0,0.0
3863,91.0,288.0,960.0,4.0,0.0
3864,70.0,0.0,300.0,5.0,0.0
3865,64.0,96.0,390.0,6.0,0.0
3866,70.0,96.0,300.0,5.0,0.0
3867,64.0,240.0,390.0,6.0,0.0
3868,90.0,0.0,300.0,4.0,0.0
3869,42.0,0.0,300.0,8.0,0.0
3870,54.0,96.0,300.0,2.0,0.0
3871,66.0,0.0,870.0,6.0,0.0
3872,82.0,0.0,150.0,4.0,0.0
3873,76.0,0.0,300.0,3.0,0.0
3874,66.0,0.0,300.0,3.0,0.0
3875,88.0,0.0,300.0,1.0,0.0
3876,73.0,144.0,150.0,5.0,0.0
3877,82.0,0.0,300.0,1.0,0.0
3878,54.0,0.0,300.0,7.0,0.0
3879,90.0,0.0,300.0,0.0,0.0
3880,85.0,0.0,150.0,4.0,0.0
3881,76.0,336.0,150.0,5.0,0.0
3882,83.0,0.0,300.0,1.0,0.0
3883,86.0,0.0,300.0,1.0,0.0
3884,90.0,96.0,300.0,0.0,0.0
3885,59.0,0.0,300.0,7.0,0.0
3886,74.0,0.0,300.0,3.0,0.0
3887,66.0,0.0,300.0,3.0,0.0
3888,83.0,48.0,240.0,4.0,0.0
3889,47.0,0.0,300.0,8.0,0.0
3890,59.0,0.0,300.0,2.0,0.0
3891,74.0,0.0,240.0,5.0,0.0
3892,86.0,240.0,150.0,4.0,0.0
3893,78.0,0.0,150.0,5.0,0.0
3894,42.0,96.0,300.0,8.0,0.0
3895,76.0,0.0,150.0,5.0,0.0
3896,54.0,0.0,300.0,2.0,0.0
3897,66.0,0.0,780.0,6.0,0.0
3898,54.0,0.0,300.0,7.0,0.0
3899,90.0,0.0,300.0,0.0,0.0
3900,85.0,144.0,150.0,4.0,0.0
3901,76.0,0.0,300.0,3.0,0.0
3902,66.0,0.0,300.0,3.0,0.0
3903,88.0,0.0,300.0,1.0,0.0
3904,82.0,0.0,300.0,1.0,0.0
3905,82.0,336.0,150.0,4.0,0.0
3906,73.0,0.0,150.0,5.0,0.0
3907,66.0,0.0,300.0,3.0,0.0
3908,83.0,0.0,240.0,4.0,0.0
3909,59.0,0.0,300.0,2.0,0.0
3910,59.0,0.0,300.0,7.0,0.0
3911,74.0,0.0,300.0,3.0,0.0
3912,47.0,0.0,300.0,8.0,0.0
3913,86.0,0.0,300.0,1.0,0.0
3914,83.0,0.0,300.0,1.0,0.0
3915,74.0,48.0,240.0,5.0,0.0
3916,90.0,96.0,300.0,0.0,0.0
3917,86.0,240.0,150.0,4.0,0.0
3918,78.0,0.0,150.0,5.0,0.0
3919,66.0,0.0,390.0,6.0,0.0
3920,42.0,96.0,300.0,8.0,0.0
3921,54.0,0.0,300.0,2.0,0.0
3922,88.0,0.0,300.0,1.0,0.0
3923,82.0,0.0,300.0,1.0,0.0
3924,85.0,0.0,150.0,4.0,0.0
3925,76.0,144.0,150.0,5.0,0.0
3926,66.0,0.0,300.0,3.0,0.0
3927,76.0,0.0,300.0,3.0,0.0
3928,90.0,0.0,300.0,0.0,0.0
3929,54.0,0.0,300.0,7.0,0.0
3930,82.0,864.0,150.0,4.0,0.0
3931,73.0,0.0,150.0,5.0,0.0
3932,47.0,0.0,780.0,8.0,0.0
3933,83.0,0.0,780.0,4.0,0.0
3934,66.0,0.0,780.0,3.0,0.0
3935,66.0,0.0,780.0,6.0,0.0
3936,59.0,0.0,780.0,7.0,0.0
3937,83.0,960.0,780.0,1.0,0.0
3938,59.0,0.0,780.0,2.0,0.0
3939,74.0,0.0,780.0,5.0,0.0
3940,86.0,0.0,780.0,1.0,0.0
3941,90.0,0.0,780.0,0.0,0.0
3942,74.0,0.0,780.0,3.0,0.0
3943,78.0,0.0,300.0,5.0,0.0
3944,54.0,0.0,300.0,3.0,0.0
3945,54.0,0.0,300.0,2.0,0.0
3946,90.0,0.0,300.0,4.0,0.0
3947,66.0,480.0,300.0,3.0,0.0
3948,54.0,0.0,300.0,7.0,0.0
3949,66.0,0.0,300.0,1.0,0.0
3950,78.0,0.0,300.0,1.0,0.0
3951,66.0,0.0,300.0,6.0,0.0
3952,90.0,0.0,300.0,0.0,0.0
3953,42.0,0.0,300.0,8.0,0.0
3954,42.0,0.0,780.0,8.0,0.0
3955,66.0,0.0,300.0,6.0,0.0
3956,78.0,480.0,300.0,5.0,0.0
3957,90.0,96.0,1140.0,4.0,0.0
3958,66.0,0.0,780.0,1.0,0.0
3959,78.0,0.0,780.0,1.0,0.0
3960,54.0,0.0,300.0,7.0,0.0
3961,54.0,0.0,780.0,2.0,0.0
3962,90.0,0.0,780.0,0.0,0.0
3963,54.0,0.0,780.0,3.0,0.0
3964,66.0,0.0,780.0,3.0,0.0
3965,66.0,384.0,780.0,2.0,0.0
3966,66.0,0.0,300.0,7.0,0.0
3967,70.0,0.0,300.0,6.0,0.0
3968,73.0,0.0,300.0,5.0,0.0
3969,66.0,480.0,300.0,7.0,0.0
3970,70.0,0.0,300.0,6.0,0.0
3971,73.0,0.0,300.0,5.0,0.0
3972,73.0,252.0,300.0,5.0,0.0
3973,70.0,0.0,300.0,6.0,0.0
3974,78.0,0.0,300.0,4.0,0.0
3975,66.0,0.0,300.0,7.0,0.0
3976,66.0,72.0,1140.0,7.0,0.0
3977,71.0,0.0,480.0,6.0,0.0
3978,74.0,0.0,480.0,5.0,0.0
3979,81.0,60.0,60.0,4.0,0.0
3980,79.0,60.0,60.0,4.0,0.0
3981,81.0,60.0,60.0,4.0,0.0
3982,79.0,60.0,60.0,4.0,0.0
3983,81.0,60.0,60.0,4.0,0.0
3984,79.0,60.0,60.0,4.0,0.0
3985,81.0,60.0,60.0,4.0,0.0
3986,79.0,264.0,60.0,4.0,0.0
3987,70.0,0.0,300.0,6.0,0.0
3988,78.0,24.0,270.0,4.0,0.0
3989,73.0,384.0,300.0,5.0,0.0
3990,70.0,0.0,300.0,6.0,0.0
3991,73.0,480.0,300.0,5.0,0.0
3992,78.0,24.0,270.0,4.0,0.0
3993,66.0,480.0,300.0,2.0,0.0
3994,42.0,0.0,300.0,8.0,0.0
3995,90.0,0.0,300.0,0.0,0.0
3996,54.0,0.0,300.0,2.0,0.0
3997,54.0,0.0,300.0,7.0,0.0
3998,54.0,0.0,300.0,3.0,0.0
3999,66.0,0.0,300.0,6.0,0.0
4000,78.0,0.0,300.0,1.0,0.0
4001,66.0,0.0,300.0,1.0,0.0
4002,66.0,0.0,300.0,3.0,0.0
4003,78.0,0.0,300.0,5.0,0.0
4004,90.0,0.0,300.0,4.0,0.0
4005,66.0,0.0,780.0,2.0,0.0
4006,54.0,0.0,300.0,7.0,0.0
4007,42.0,0.0,780.0,8.0,0.0
4008,66.0,0.0,300.0,6.0,0.0
4009,54.0,0.0,780.0,3.0,0.0
4010,66.0,0.0,780.0,3.0,0.0
4011,78.0,0.0,780.0,1.0,0.0
4012,66.0,0.0,780.0,1.0,0.0
4013,90.0,0.0,780.0,0.0,0.0
4014,78.0,480.0,300.0,5.0,0.0
4015,90.0,96.0,1140.0,4.0,0.0
4016,54.0,384.0,780.0,2.0,0.0
4017,66.0,0.0,300.0,7.0,0.0
4018,73.0,0.0,300.0,5.0,0.0
4019,70.0,0.0,300.0,6.0,0.0
4020,70.0,0.0,300.0,6.0,0.0
4021,73.0,480.0,300.0,5.0,0.0
4022,66.0,0.0,300.0,7.0,0.0
4023,70.0,0.0,300.0,6.0,0.0
4024,73.0,96.0,300.0,5.0,0.0
4025,66.0,0.0,300.0,7.0,0.0
4026,78.0,156.0,390.0,4.0,0.0
4027,66.0,96.0,1140.0,7.0,0.0
4028,74.0,0.0,480.0,5.0,0.0
4029,81.0,60.0,60.0,4.0,0.0
4030,71.0,0.0,480.0,6.0,0.0
4031,79.0,60.0,60.0,4.0,0.0
4032,81.0,60.0,60.0,4.0,0.0
4033,79.0,60.0,60.0,4.0,0.0
4034,81.0,60.0,60.0,4.0,0.0
4035,79.0,60.0,60.0,4.0,0.0
4036,81.0,60.0,60.0,4.0,0.0
4037,79.0,264.0,60.0,4.0,0.0
4038,78.0,24.0,270.0,4.0,0.0
4039,70.0,384.0,300.0,6.0,0.0
4040,73.0,0.0,300.0,5.0,0.0
4041,70.0,0.0,300.0,6.0,0.0
4042,78.0,576.0,390.0,4.0,0.0
4043,73.0,96.0,300.0,5.0,0.0
4044,78.0,288.0,480.0,4.0,0.0
4045,79.0,480.0,300.0,4.0,0.0
4046,52.0,0.0,780.0,7.0,0.0
4047,40.0,480.0,780.0,8.0,0.0
4048,52.0,0.0,780.0,2.0,0.0
4049,82.0,0.0,300.0,4.0,0.0
4050,64.0,0.0,300.0,6.0,0.0
4051,67.0,0.0,300.0,5.0,0.0
4052,67.0,480.0,300.0,5.0,0.0
4053,85.0,0.0,300.0,4.0,0.0
4054,64.0,0.0,300.0,6.0,0.0
4055,88.0,0.0,300.0,4.0,0.0
4056,64.0,0.0,300.0,6.0,0.0
4057,67.0,960.0,300.0,5.0,0.0
4058,91.0,288.0,960.0,4.0,0.0
4059,42.0,0.0,780.0,8.0,0.0
4060,54.0,96.0,780.0,7.0,0.0
4061,54.0,0.0,780.0,2.0,0.0
4062,70.0,0.0,300.0,5.0,0.0
4063,64.0,96.0,390.0,6.0,0.0
4064,70.0,0.0,300.0,5.0,0.0
4065,90.0,96.0,300.0,4.0,0.0
4066,64.0,240.0,390.0,6.0,0.0
4067,88.0,0.0,300.0,1.0,0.0
4068,66.0,0.0,870.0,6.0,0.0
4069,76.0,96.0,300.0,3.0,0.0
4070,54.0,0.0,300.0,2.0,0.0
4071,73.0,0.0,150.0,5.0,0.0
4072,82.0,0.0,300.0,1.0,0.0
4073,82.0,144.0,150.0,4.0,0.0
4074,90.0,0.0,300.0,0.0,0.0
4075,54.0,0.0,300.0,7.0,0.0
4076,42.0,0.0,300.0,8.0,0.0
4077,66.0,0.0,300.0,3.0,0.0
4078,85.0,336.0,150.0,4.0,0.0
4079,76.0,0.0,150.0,5.0,0.0
4080,59.0,0.0,300.0,2.0,0.0
4081,59.0,0.0,300.0,7.0,0.0
4082,74.0,0.0,300.0,3.0,0.0
4083,66.0,0.0,300.0,3.0,0.0
4084,90.0,0.0,300.0,0.0,0.0
4085,47.0,0.0,300.0,8.0,0.0
4086,86.0,96.0,300.0,1.0,0.0
4087,83.0,0.0,300.0,1.0,0.0
4088,74.0,0.0,240.0,5.0,0.0
4089,83.0,48.0,240.0,4.0,0.0
4090,78.0,240.0,150.0,5.0,0.0
4091,86.0,0.0,150.0,4.0,0.0
4092,88.0,96.0,300.0,1.0,0.0
4093,54.0,0.0,300.0,7.0,0.0
4094,76.0,0.0,150.0,5.0,0.0
4095,90.0,0.0,300.0,0.0,0.0
4096,66.0,0.0,780.0,6.0,0.0
4097,54.0,0.0,300.0,2.0,0.0
4098,85.0,144.0,150.0,4.0,0.0
4099,66.0,0.0,300.0,3.0,0.0
4100,76.0,0.0,300.0,3.0,0.0
4101,42.0,0.0,300.0,8.0,0.0
4102,82.0,0.0,300.0,1.0,0.0
4103,73.0,336.0,150.0,5.0,0.0
4104,82.0,0.0,150.0,4.0,0.0
4105,74.0,48.0,240.0,5.0,0.0
4106,59.0,0.0,300.0,2.0,0.0
4107,83.0,0.0,240.0,4.0,0.0
4108,59.0,0.0,300.0,7.0,0.0
4109,90.0,0.0,300.0,0.0,0.0
4110,74.0,0.0,300.0,3.0,0.0
4111,66.0,0.0,300.0,3.0,0.0
4112,86.0,96.0,300.0,1.0,0.0
4113,83.0,0.0,300.0,1.0,0.0
4114,47.0,0.0,300.0,8.0,0.0
4115,86.0,240.0,150.0,4.0,0.0
4116,78.0,0.0,150.0,5.0,0.0
4117,88.0,0.0,300.0,1.0,0.0
4118,82.0,0.0,300.0,1.0,0.0
4119,85.0,144.0,150.0,4.0,0.0
4120,54.0,0.0,300.0,7.0,0.0
4121,76.0,0.0,150.0,5.0,0.0
4122,76.0,0.0,300.0,3.0,0.0
4123,54.0,0.0,300.0,2.0,0.0
4124,66.0,288.0,390.0,6.0,0.0
4125,66.0,96.0,300.0,3.0,0.0
4126,42.0,0.0,300.0,8.0,0.0
4127,90.0,0.0,300.0,0.0,0.0
4128,73.0,0.0,150.0,5.0,0.0
4129,82.0,0.0,150.0,4.0,0.0
4130,74.0,0.0,780.0,3.0,0.0
4131,83.0,192.0,180.0,4.0,0.0
4132,66.0,144.0,780.0,3.0,0.0
4133,74.0,48.0,390.0,5.0,0.0
4134,90.0,0.0,780.0,0.0,0.0
4135,47.0,0.0,780.0,8.0,0.0
4136,66.0,0.0,780.0,6.0,0.0
4137,59.0,0.0,780.0,2.0,0.0
4138,59.0,0.0,780.0,7.0,0.0
4139,86.0,0.0,780.0,1.0,0.0
4140,83.0,0.0,780.0,1.0,0.0
4141,78.0,240.0,180.0,4.0,0.0
4142,86.0,0.0,180.0,5.0,0.0
4143,86.0,96.0,180.0,4.0,0.0
4144,85.0,240.0,180.0,5.0,0.0
4145,85.0,0.0,180.0,4.0,0.0
4146,83.0,0.0,180.0,4.0,0.0
4147,83.0,240.0,180.0,5.0,0.0
4148,81.0,0.0,180.0,4.0,0.0
4149,81.0,240.0,180.0,5.0,0.0
4150,79.0,0.0,180.0,4.0,0.0
4151,79.0,240.0,180.0,5.0,0.0
4152,78.0,288.0,180.0,4.0,0.0
4153,78.0,0.0,180.0,5.0,0.0
4154,79.0,0.0,300.0,1.0,0.0
4155,55.0,0.0,300.0,2.0,0.0
4156,83.0,96.0,300.0,1.0,0.0
4157,71.0,0.0,300.0,6.0,0.0
4158,43.0,0.0,300.0,8.0,0.0
4159,55.0,0.0,300.0,7.0,0.0
4160,76.0,0.0,300.0,3.0,0.0
4161,71.0,0.0,300.0,3.0,0.0
4162,76.0,0.0,240.0,5.0,0.0
4163,88.0,0.0,300.0,0.0,0.0
4164,76.0,48.0,240.0,4.0,0.0
4165,79.0,240.0,150.0,5.0,0.0
4166,79.0,0.0,150.0,4.0,0.0
4167,84.0,0.0,300.0,1.0,0.0
4168,87.0,0.0,300.0,0.0,0.0
4169,78.0,0.0,300.0,3.0,0.0
4170,69.0,96.0,300.0,3.0,0.0
4171,57.0,0.0,300.0,7.0,0.0
4172,78.0,0.0,300.0,1.0,0.0
4173,57.0,0.0,300.0,2.0,0.0
4174,78.0,0.0,150.0,5.0,0.0
4175,72.0,0.0,300.0,6.0,0.0
4176,45.0,0.0,300.0,8.0,0.0
4177,78.0,144.0,150.0,4.0,0.0
4178,75.0,0.0,150.0,4.0,0.0
4179,75.0,336.0,150.0,5.0,0.0
4180,79.0,0.0,300.0,1.0,0.0
4181,83.0,0.0,300.0,1.0,0.0
4182,76.0,0.0,240.0,4.0,0.0
4183,76.0,48.0,240.0,5.0,0.0
4184,55.0,96.0,300.0,2.0,0.0
4185,71.0,0.0,300.0,6.0,0.0
4186,76.0,0.0,300.0,3.0,0.0
4187,88.0,0.0,300.0,0.0,0.0
4188,43.0,0.0,300.0,8.0,0.0
4189,55.0,0.0,300.0,7.0,0.0
4190,79.0,0.0,150.0,4.0,0.0
4191,79.0,240.0,150.0,5.0,0.0
4192,69.0,0.0,300.0,3.0,0.0
4193,78.0,0.0,150.0,4.0,0.0
4194,87.0,0.0,300.0,0.0,0.0
4195,78.0,0.0,300.0,1.0,0.0
4196,78.0,0.0,300.0,3.0,0.0
4197,72.0,0.0,300.0,6.0,0.0
4198,78.0,144.0,150.0,5.0,0.0
4199,45.0,0.0,300.0,8.0,0.0
4200,84.0,0.0,300.0,1.0,0.0
4201,57.0,96.0,300.0,2.0,0.0
4202,57.0,0.0,300.0,7.0,0.0
4203,75.0,288.0,150.0,5.0,0.0
4204,75.0,0.0,150.0,4.0,0.0
4205,43.0,0.0,780.0,8.0,0.0
4206,76.0,0.0,780.0,3.0,0.0
4207,71.0,0.0,780.0,3.0,0.0
4208,76.0,0.0,180.0,4.0,0.0
4209,83.0,144.0,780.0,1.0,0.0
4210,79.0,0.0,780.0,1.0,0.0
4211,71.0,0.0,780.0,6.0,0.0
4212,55.0,0.0,780.0,2.0,0.0
4213,76.0,240.0,180.0,5.0,0.0
4214,55.0,0.0,780.0,7.0,0.0
4215,88.0,0.0,780.0,0.0,0.0
4216,71.0,0.0,180.0,5.0,0.0
4217,71.0,240.0,180.0,4.0,0.0
4218,79.0,0.0,180.0,5.0,0.0
4219,79.0,96.0,180.0,4.0,0.0
4220,78.0,240.0,180.0,5.0,0.0
4221,78.0,0.0,180.0,4.0,0.0
4222,76.0,240.0,180.0,5.0,0.0
4223,76.0,0.0,180.0,4.0,0.0
4224,74.0,0.0,180.0,4.0,0.0
4225,74.0,240.0,180.0,5.0,0.0
4226,73.0,240.0,180.0,4.0,0.0
4227,73.0,0.0,180.0,5.0,0.0
4228,71.0,0.0,180.0,5.0,0.0
4229,71.0,288.0,180.0,4.0,0.0
4230,70.0,0.0,240.0,5.0,0.0
4231,82.0,96.0,300.0,1.0,0.0
4232,78.0,0.0,300.0,1.0,0.0
4233,42.0,0.0,300.0,8.0,0.0
4234,66.0,0.0,300.0,3.0,0.0
4235,73.0,0.0,300.0,3.0,0.0
4236,54.0,0.0,300.0,7.0,0.0
4237,54.0,0.0,300.0,2.0,0.0
4238,85.0,0.0,300.0,0.0,0.0
4239,70.0,48.0,240.0,4.0,0.0
4240,61.0,0.0,300.0,6.0,0.0
4241,73.0,240.0,150.0,5.0,0.0
4242,73.0,0.0,150.0,4.0,0.0
4243,83.0,0.0,300.0,1.0,0.0
4244,73.0,0.0,300.0,3.0,0.0
4245,80.0,0.0,300.0,1.0,0.0
4246,53.0,0.0,300.0,7.0,0.0
4247,71.0,144.0,150.0,4.0,0.0
4248,53.0,96.0,300.0,2.0,0.0
4249,61.0,240.0,870.0,6.0,0.0
4250,85.0,0.0,870.0,0.0,0.0
4251,41.0,0.0,300.0,8.0,0.0
4252,71.0,0.0,150.0,5.0,0.0
4253,68.0,336.0,150.0,5.0,0.0
4254,68.0,0.0,150.0,4.0,0.0
4255,42.0,0.0,300.0,8.0,0.0
4256,70.0,48.0,240.0,4.0,0.0
4257,78.0,0.0,300.0,1.0,0.0
4258,82.0,0.0,300.0,1.0,0.0
4259,70.0,0.0,240.0,5.0,0.0
4260,54.0,0.0,300.0,2.0,0.0
4261,66.0,96.0,300.0,3.0,0.0
4262,73.0,0.0,300.0,3.0,0.0
4263,54.0,0.0,300.0,7.0,0.0
4264,73.0,0.0,150.0,5.0,0.0
4265,73.0,0.0,150.0,4.0,0.0
4266,41.0,0.0,300.0,8.0,0.0
4267,53.0,0.0,300.0,2.0,0.0
4268,71.0,144.0,150.0,4.0,0.0
4269,71.0,0.0,150.0,5.0,0.0
4270,85.0,0.0,300.0,0.0,0.0
4271,73.0,96.0,300.0,3.0,0.0
4272,83.0,0.0,300.0,1.0,0.0
4273,80.0,0.0,300.0,1.0,0.0
4274,61.0,0.0,300.0,6.0,0.0
4275,53.0,0.0,300.0,7.0,0.0
4276,68.0,288.0,150.0,5.0,0.0
4277,68.0,0.0,150.0,4.0,0.0
4278,66.0,0.0,780.0,3.0,0.0
4279,70.0,240.0,180.0,4.0,0.0
4280,85.0,0.0,780.0,0.0,0.0
4281,82.0,0.0,780.0,1.0,0.0
4282,78.0,0.0,780.0,1.0,0.0
4283,73.0,0.0,780.0,3.0,0.0
4284,54.0,0.0,780.0,7.0,0.0
4285,70.0,0.0,180.0,5.0,0.0
4286,61.0,144.0,780.0,6.0,0.0
4287,42.0,0.0,780.0,8.0,0.0
4288,54.0,0.0,780.0,2.0,0.0
4289,66.0,240.0,180.0,4.0,0.0
4290,66.0,0.0,180.0,5.0,0.0
4291,73.0,0.0,180.0,5.0,0.0
4292,73.0,96.0,180.0,4.0,0.0
4293,71.0,240.0,180.0,5.0,0.0
4294,71.0,0.0,180.0,4.0,0.0
4295,70.0,240.0,180.0,5.0,0.0
4296,70.0,0.0,180.0,4.0,0.0
4297,67.0,240.0,180.0,4.0,0.0
4298,67.0,0.0,180.0,5.0,0.0
4299,66.0,0.0,180.0,5.0,0.0
4300,66.0,192.0,180.0,4.0,0.0
4301,46.0,48.0,390.0,7.0,0.0
4302,61.0,0.0,390.0,6.0,0.0
4303,46.0,0.0,390.0,2.0,0.0
4304,34.0,0.0,390.0,8.0,0.0
4305,64.0,0.0,180.0,4.0,0.0
4306,64.0,240.0,180.0,5.0,0.0
4307,78.0,0.0,1530.0,1.0,0.0
4308,66.0,0.0,1530.0,1.0,0.0
4309,35.0,0.0,780.0,8.0,0.0
4310,62.0,0.0,180.0,4.0,0.0
4311,47.0,144.0,780.0,7.0,0.0
4312,90.0,96.0,1530.0,0.0,0.0
4313,71.0,0.0,1530.0,3.0,0.0
4314,54.0,0.0,780.0,6.0,0.0
4315,62.0,240.0,180.0,5.0,0.0
4316,47.0,0.0,780.0,2.0,0.0
4317,62.0,0.0,1530.0,3.0,0.0
4318,66.0,240.0,180.0,4.0,0.0
4319,66.0,0.0,180.0,5.0,0.0
4320,71.0,0.0,180.0,5.0,0.0
4321,71.0,96.0,180.0,4.0,0.0
4322,74.0,0.0,180.0,4.0,0.0
4323,74.0,240.0,180.0,5.0,0.0
4324,78.0,240.0,180.0,4.0,0.0
4325,78.0,0.0,180.0,5.0,0.0
4326,78.0,144.0,180.0,5.0,0.0
4327,78.0,0.0,180.0,4.0,0.0
4328,78.0,192.0,180.0,4.0,0.0
4329,50.0,0.0,390.0,2.0,0.0
4330,50.0,48.0,390.0,7.0,0.0
4331,59.0,0.0,870.0,6.0,0.0
4332,78.0,0.0,180.0,5.0,0.0
4333,38.0,0.0,390.0,8.0,0.0
4334,78.0,240.0,180.0,4.0,0.0
4335,78.0,0.0,180.0,5.0,0.0
4336,76.0,192.0,180.0,5.0,0.0
4337,79.0,192.0,960.0,1.0,0.0
4338,37.0,0.0,390.0,8.0,0.0
4339,88.0,0.0,180.0,0.0,0.0
4340,76.0,0.0,180.0,4.0,0.0
4341,49.0,48.0,390.0,7.0,0.0
4342,49.0,0.0,390.0,2.0,0.0
4343,74.0,0.0,180.0,4.0,0.0
4344,86.0,240.0,180.0,0.0,0.0
4345,74.0,0.0,180.0,5.0,0.0
4346,67.0,0.0,390.0,6.0,0.0
4347,52.0,48.0,390.0,7.0,0.0
4348,40.0,0.0,390.0,8.0,0.0
4349,52.0,0.0,390.0,2.0,0.0
4350,85.0,0.0,180.0,0.0,0.0
4351,73.0,0.0,180.0,4.0,0.0
4352,73.0,192.0,180.0,5.0,0.0
4353,71.0,0.0,180.0,4.0,0.0
4354,83.0,0.0,180.0,0.0,0.0
4355,71.0,48.0,180.0,5.0,0.0
4356,61.0,96.0,780.0,6.0,0.0
4357,70.0,0.0,180.0,5.0,0.0
4358,78.0,0.0,390.0,1.0,0.0
4359,76.0,0.0,15.0,1.0,0.0
4360,54.0,0.0,390.0,2.0,0.0
4361,82.0,0.0,390.0,0.0,0.0
4362,42.0,48.0,390.0,8.0,0.0
4363,70.0,192.0,180.0,4.0,0.0
4364,54.0,0.0,390.0,7.0,0.0
4365,66.0,0.0,780.0,3.0,0.0
4366,73.0,0.0,780.0,3.0,0.0
4367,67.0,0.0,180.0,5.0,0.0
4368,67.0,240.0,180.0,4.0,0.0
4369,58.0,48.0,390.0,2.0,0.0
4370,58.0,0.0,390.0,7.0,0.0
4371,66.0,96.0,180.0,4.0,0.0
4372,46.0,0.0,390.0,8.0,0.0
4373,66.0,0.0,180.0,5.0,0.0
4374,64.0,0.0,180.0,5.0,0.0
4375,64.0,240.0,180.0,4.0,0.0
4376,90.0,96.0,1530.0,0.0,0.0
4377,62.0,0.0,1530.0,3.0,0.0
4378,71.0,0.0,1530.0,3.0,0.0
4379,66.0,0.0,1530.0,1.0,0.0
4380,47.0,0.0,780.0,8.0,0.0
4381,78.0,0.0,1530.0,1.0,0.0
4382,54.0,0.0,780.0,6.0,0.0
4383,62.0,240.0,180.0,5.0,0.0
4384,62.0,0.0,180.0,4.0,0.0
4385,59.0,144.0,780.0,7.0,0.0
4386,59.0,0.0,780.0,2.0,0.0
4387,66.0,0.0,180.0,4.0,0.0
4388,66.0,240.0,180.0,5.0,0.0
4389,71.0,96.0,180.0,4.0,0.0
4390,71.0,0.0,180.0,5.0,0.0
4391,74.0,0.0,180.0,5.0,0.0
4392,74.0,240.0,180.0,4.0,0.0
4393,78.0,240.0,180.0,5.0,0.0
4394,78.0,0.0,180.0,4.0,0.0
4395,78.0,0.0,180.0,4.0,0.0
4396,78.0,144.0,180.0,5.0,0.0
4397,78.0,192.0,180.0,5.0,0.0
4398,71.0,48.0,870.0,6.0,0.0
4399,50.0,48.0,390.0,8.0,0.0
4400,62.0,0.0,390.0,7.0,0.0
4401,62.0,0.0,390.0,2.0,0.0
4402,78.0,0.0,180.0,4.0,0.0
4403,78.0,0.0,180.0,5.0,0.0
4404,78.0,240.0,180.0,4.0,0.0
4405,76.0,0.0,180.0,5.0,0.0
4406,79.0,192.0,960.0,1.0,0.0
4407,88.0,0.0,180.0,0.0,0.0
4408,61.0,0.0,390.0,7.0,0.0
4409,76.0,192.0,180.0,4.0,0.0
4410,61.0,0.0,390.0,2.0,0.0
4411,49.0,0.0,390.0,8.0,0.0
4412,74.0,240.0,180.0,5.0,0.0
4413,86.0,0.0,180.0,0.0,0.0
4414,74.0,0.0,180.0,4.0,0.0
4415,52.0,0.0,390.0,8.0,0.0
4416,85.0,192.0,180.0,0.0,0.0
4417,67.0,48.0,390.0,6.0,0.0
4418,64.0,0.0,390.0,2.0,0.0
4419,64.0,0.0,390.0,7.0,0.0
4420,73.0,0.0,180.0,4.0,0.0
4421,73.0,0.0,180.0,5.0,0.0
4422,71.0,48.0,180.0,5.0,0.0
4423,83.0,0.0,180.0,0.0,0.0
4424,71.0,0.0,180.0,4.0,0.0
4425,66.0,0.0,780.0,3.0,0.0
4426,73.0,96.0,780.0,3.0,0.0
4427,66.0,0.0,390.0,7.0,0.0
4428,70.0,0.0,180.0,4.0,0.0
4429,82.0,0.0,390.0,0.0,0.0
4430,76.0,0.0,15.0,1.0,0.0
4431,78.0,0.0,390.0,1.0,0.0
4432,61.0,0.0,780.0,6.0,0.0
4433,54.0,0.0,390.0,8.0,0.0
4434,66.0,48.0,390.0,2.0,0.0
4435,70.0,192.0,180.0,5.0,0.0
4436,79.0,0.0,180.0,5.0,0.0
4437,79.0,240.0,180.0,4.0,0.0
4438,58.0,48.0,390.0,7.0,0.0
4439,46.0,0.0,390.0,8.0,0.0
4440,78.0,96.0,180.0,4.0,0.0
4441,78.0,0.0,180.0,5.0,0.0
4442,58.0,0.0,390.0,2.0,0.0
4443,76.0,240.0,180.0,5.0,0.0
4444,76.0,0.0,180.0,4.0,0.0
4445,90.0,0.0,1530.0,0.0,0.0
4446,71.0,0.0,1530.0,3.0,0.0
4447,62.0,96.0,1530.0,3.0,0.0
4448,74.0,0.0,180.0,5.0,0.0
4449,59.0,0.0,780.0,7.0,0.0
4450,66.0,0.0,780.0,6.0,0.0
4451,78.0,0.0,1530.0,1.0,0.0
4452,74.0,0.0,1530.0,1.0,0.0
4453,47.0,144.0,780.0,8.0,0.0
4454,74.0,240.0,180.0,4.0,0.0
4455,59.0,0.0,780.0,2.0,0.0
4456,78.0,0.0,180.0,5.0,0.0
4457,78.0,240.0,180.0,4.0,0.0
4458,83.0,96.0,180.0,5.0,0.0
4459,83.0,0.0,180.0,4.0,0.0
4460,86.0,0.0,180.0,4.0,0.0
4461,86.0,240.0,180.0,5.0,0.0
4462,90.0,0.0,180.0,4.0,0.0
4463,90.0,240.0,180.0,5.0,0.0
4464,90.0,0.0,180.0,5.0,0.0
4465,90.0,144.0,180.0,4.0,0.0
4466,57.0,48.0,390.0,2.0,0.0
4467,45.0,0.0,390.0,8.0,0.0
4468,90.0,192.0,180.0,5.0,0.0
4469,62.0,0.0,390.0,6.0,0.0
4470,90.0,0.0,180.0,4.0,0.0
4471,57.0,0.0,390.0,7.0,0.0
4472,90.0,240.0,180.0,4.0,0.0
4473,90.0,0.0,180.0,5.0,0.0
4474,71.0,0.0,780.0,6.0,0.0
4475,55.0,0.0,780.0,7.0,0.0
4476,76.0,240.0,180.0,4.0,0.0
4477,76.0,0.0,180.0,5.0,0.0
4478,59.0,0.0,1530.0,3.0,0.0
4479,91.0,0.0,1530.0,0.0,0.0
4480,55.0,144.0,780.0,2.0,0.0
4481,43.0,0.0,780.0,8.0,0.0
4482,79.0,96.0,1530.0,1.0,0.0
4483,76.0,0.0,1530.0,1.0,0.0
4484,79.0,240.0,180.0,4.0,0.0
4485,79.0,0.0,180.0,5.0,0.0
4486,83.0,0.0,180.0,4.0,0.0
4487,83.0,96.0,180.0,5.0,0.0
4488,88.0,240.0,180.0,5.0,0.0
4489,88.0,0.0,180.0,4.0,0.0
4490,91.0,0.0,180.0,4.0,0.0
4491,91.0,240.0,180.0,5.0,0.0
4492,91.0,0.0,180.0,5.0,0.0
4493,91.0,144.0,180.0,4.0,0.0
4494,52.0,0.0,390.0,2.0,0.0
4495,71.0,0.0,390.0,6.0,0.0
4496,40.0,48.0,390.0,8.0,0.0
4497,52.0,0.0,390.0,7.0,0.0
4498,91.0,192.0,180.0,4.0,0.0
4499,91.0,0.0,180.0,5.0,0.0
4500,91.0,0.0,180.0,4.0,0.0
4501,91.0,240.0,180.0,5.0,0.0
4502,73.0,0.0,1530.0,1.0,0.0
4503,76.0,0.0,1530.0,1.0,0.0
4504,88.0,96.0,1530.0,0.0,0.0
4505,69.0,0.0,1530.0,3.0,0.0
4506,64.0,0.0,780.0,6.0,0.0
4507,57.0,0.0,780.0,2.0,0.0
4508,45.0,0.0,780.0,8.0,0.0
4509,73.0,0.0,180.0,4.0,0.0
4510,73.0,240.0,180.0,5.0,0.0
4511,57.0,144.0,780.0,7.0,0.0
4512,76.0,240.0,180.0,4.0,0.0
4513,76.0,0.0,180.0,5.0,0.0
4514,81.0,0.0,180.0,5.0,0.0
4515,81.0,96.0,180.0,4.0,0.0
4516,85.0,0.0,180.0,5.0,0.0
4517,85.0,240.0,180.0,4.0,0.0
4518,88.0,0.0,180.0,4.0,0.0
4519,88.0,240.0,180.0,5.0,0.0
4520,88.0,0.0,180.0,4.0,0.0
4521,88.0,144.0,180.0,5.0,0.0
4522,55.0,48.0,390.0,2.0,0.0
4523,55.0,0.0,390.0,7.0,0.0
4524,61.0,0.0,390.0,6.0,0.0
4525,88.0,192.0,180.0,4.0,0.0
4526,43.0,0.0,390.0,8.0,0.0
4527,88.0,0.0,180.0,5.0,0.0
4528,88.0,0.0,180.0,4.0,0.0
4529,88.0,240.0,180.0,5.0,0.0
4530,74.0,240.0,180.0,5.0,0.0
4531,74.0,0.0,1530.0,1.0,0.0
4532,62.0,0.0,1530.0,3.0,0.0
4533,54.0,0.0,780.0,2.0,0.0
4534,69.0,144.0,780.0,6.0,0.0
4535,74.0,0.0,180.0,4.0,0.0
4536,90.0,0.0,1530.0,0.0,0.0
4537,54.0,0.0,780.0,7.0,0.0
4538,42.0,0.0,780.0,8.0,0.0
4539,78.0,96.0,1530.0,1.0,0.0
4540,78.0,0.0,180.0,5.0,0.0
4541,78.0,240.0,180.0,4.0,0.0
4542,81.0,96.0,180.0,5.0,0.0
4543,81.0,0.0,180.0,4.0,0.0
4544,86.0,0.0,180.0,4.0,0.0
4545,86.0,240.0,180.0,5.0,0.0
4546,90.0,240.0,180.0,5.0,0.0
4547,90.0,0.0,180.0,4.0,0.0
4548,90.0,0.0,180.0,4.0,0.0
4549,90.0,144.0,180.0,5.0,0.0
4550,69.0,48.0,390.0,6.0,0.0
4551,50.0,0.0,390.0,2.0,0.0
4552,38.0,0.0,390.0,8.0,0.0
4553,90.0,192.0,180.0,4.0,0.0
4554,50.0,0.0,390.0,7.0,0.0
4555,90.0,0.0,180.0,5.0,0.0
4556,90.0,240.0,180.0,5.0,0.0
4557,90.0,0.0,180.0,4.0,0.0
4558,62.0,144.0,780.0,6.0,0.0
4559,55.0,0.0,780.0,2.0,0.0
4560,83.0,240.0,180.0,5.0,0.0
4561,83.0,0.0,180.0,1.0,0.0
4562,43.0,0.0,780.0,8.0,0.0
4563,83.0,0.0,180.0,4.0,0.0
4564,55.0,0.0,780.0,7.0,0.0
4565,85.0,0.0,180.0,1.0,0.0
4566,85.0,0.0,180.0,5.0,0.0
4567,85.0,240.0,180.0,4.0,0.0
4568,86.0,0.0,180.0,1.0,0.0
4569,86.0,96.0,180.0,5.0,0.0
4570,86.0,0.0,180.0,4.0,0.0
4571,85.0,0.0,180.0,4.0,0.0
4572,85.0,240.0,180.0,5.0,0.0
4573,85.0,0.0,180.0,1.0,0.0
4574,83.0,0.0,180.0,1.0,0.0
4575,83.0,240.0,180.0,4.0,0.0
4576,83.0,0.0,180.0,5.0,0.0
4577,81.0,240.0,180.0,4.0,0.0
4578,81.0,0.0,180.0,1.0,0.0
4579,81.0,0.0,180.0,5.0,0.0
4580,79.0,0.0,180.0,4.0,0.0
4581,79.0,192.0,180.0,5.0,0.0
4582,62.0,0.0,390.0,6.0,0.0
4583,57.0,0.0,390.0,2.0,0.0
4584,79.0,0.0,180.0,1.0,0.0
4585,45.0,0.0,390.0,8.0,0.0
4586,57.0,48.0,390.0,7.0,0.0
4587,78.0,0.0,180.0,5.0,0.0
4588,78.0,240.0,180.0,1.0,0.0
4589,78.0,0.0,180.0,4.0,0.0
4590,59.0,0.0,780.0,7.0,0.0
4591,79.0,0.0,180.0,5.0,0.0
4592,79.0,0.0,180.0,4.0,0.0
4593,91.0,240.0,180.0,0.0,0.0
4594,74.0,144.0,780.0,6.0,0.0
4595,47.0,0.0,780.0,8.0,0.0
4596,59.0,0.0,780.0,2.0,0.0
4597,79.0,0.0,180.0,1.0,0.0
4598,81.0,0.0,180.0,1.0,0.0
4599,81.0,0.0,180.0,5.0,0.0
4600,81.0,0.0,180.0,4.0,0.0
4601,93.0,240.0,180.0,0.0,0.0
4602,83.0,0.0,180.0,1.0,0.0
4603,83.0,0.0,180.0,4.0,0.0
4604,83.0,0.0,180.0,5.0,0.0
4605,95.0,96.0,180.0,0.0,0.0
4606,81.0,240.0,180.0,4.0,0.0
4607,81.0,0.0,180.0,5.0,0.0
4608,81.0,0.0,180.0,1.0,0.0
4609,93.0,0.0,180.0,0.0,0.0
4610,79.0,240.0,180.0,1.0,0.0
4611,91.0,0.0,180.0,0.0,0.0
4612,79.0,0.0,180.0,4.0,0.0
4613,79.0,0.0,180.0,5.0,0.0
4614,78.0,240.0,180.0,5.0,0.0
4615,78.0,0.0,180.0,1.0,0.0
4616,90.0,0.0,180.0,0.0,0.0
4617,78.0,0.0,180.0,4.0,0.0
4618,44.0,0.0,390.0,8.0,0.0
4619,56.0,48.0,390.0,7.0,0.0
4620,76.0,0.0,180.0,1.0,0.0
4621,88.0,0.0,180.0,0.0,0.0
4622,71.0,0.0,390.0,6.0,0.0
4623,56.0,0.0,390.0,2.0,0.0
4624,76.0,192.0,180.0,4.0,0.0
4625,76.0,0.0,180.0,5.0,0.0
4626,74.0,240.0,180.0,5.0,0.0
4627,86.0,0.0,180.0,0.0,0.0
4628,74.0,0.0,180.0,1.0,0.0
4629,74.0,0.0,180.0,4.0,0.0
4630,45.0,0.0,780.0,8.0,0.0
4631,57.0,0.0,780.0,7.0,0.0
4632,57.0,144.0,780.0,2.0,0.0
4633,85.0,0.0,180.0,0.0,0.0
4634,73.0,240.0,180.0,4.0,0.0
4635,73.0,0.0,180.0,1.0,0.0
4636,73.0,0.0,180.0,5.0,0.0
4637,64.0,0.0,780.0,6.0,0.0
4638,86.0,0.0,180.0,0.0,0.0
4639,74.0,0.0,180.0,4.0,0.0
4640,74.0,0.0,180.0,1.0,0.0
4641,74.0,240.0,180.0,5.0,0.0
4642,76.0,0.0,180.0,4.0,0.0
4643,76.0,0.0,180.0,5.0,0.0
4644,76.0,0.0,180.0,1.0,0.0
4645,88.0,96.0,180.0,0.0,0.0
4646,74.0,0.0,180.0,5.0,0.0
4647,74.0,0.0,180.0,4.0,0.0
4648,74.0,240.0,180.0,1.0,0.0
4649,86.0,0.0,180.0,0.0,0.0
4650,73.0,0.0,180.0,5.0,0.0
4651,73.0,0.0,180.0,4.0,0.0
4652,73.0,0.0,180.0,1.0,0.0
4653,85.0,240.0,180.0,0.0,0.0
4654,71.0,0.0,180.0,5.0,0.0
4655,83.0,240.0,180.0,0.0,0.0
4656,71.0,0.0,180.0,1.0,0.0
4657,71.0,0.0,180.0,4.0,0.0
4658,64.0,48.0,390.0,6.0,0.0
4659,59.0,0.0,390.0,2.0,0.0
4660,59.0,0.0,390.0,7.0,0.0
4661,47.0,0.0,390.0,8.0,0.0
4662,81.0,0.0,180.0,0.0,0.0
4663,69.0,192.0,180.0,1.0,0.0
4664,69.0,0.0,180.0,5.0,0.0
4665,69.0,0.0,180.0,4.0,0.0
4666,80.0,240.0,180.0,0.0,0.0
4667,68.0,0.0,180.0,5.0,0.0
4668,68.0,0.0,180.0,4.0,0.0
4669,68.0,0.0,180.0,1.0,0.0
4670,49.0,144.0,780.0,8.0,0.0
4671,69.0,0.0,780.0,4.0,0.0
4672,81.0,0.0,780.0,0.0,0.0
4673,69.0,0.0,780.0,1.0,0.0
4674,61.0,0.0,780.0,7.0,0.0
4675,69.0,192.0,180.0,5.0,0.0
4676,61.0,0.0,780.0,2.0,0.0
4677,64.0,48.0,390.0,6.0,0.0
4678,71.0,240.0,180.0,5.0,0.0
4679,69.0,0.0,180.0,6.0,0.0
4680,69.0,96.0,180.0,5.0,0.0
4681,71.0,0.0,180.0,5.0,0.0
4682,71.0,240.0,180.0,6.0,0.0
4683,69.0,0.0,180.0,6.0,0.0
4684,69.0,240.0,180.0,5.0,0.0
4685,67.0,0.0,180.0,5.0,0.0
4686,67.0,240.0,180.0,6.0,0.0
4687,66.0,240.0,180.0,5.0,0.0
4688,66.0,0.0,180.0,6.0,0.0
4689,64.0,288.0,180.0,6.0,0.0
4690,64.0,0.0,180.0,5.0,0.0
4691,74.0,0.0,300.0,1.0,0.0
4692,50.0,48.0,240.0,8.0,0.0
4693,69.0,96.0,300.0,5.0,0.0
4694,90.0,0.0,300.0,0.0,0.0
4695,62.0,0.0,240.0,7.0,0.0
4696,69.0,0.0,300.0,3.0,0.0
4697,62.0,0.0,300.0,2.0,0.0
4698,66.0,0.0,300.0,2.0,0.0
4699,66.0,0.0,240.0,6.0,0.0
4700,78.0,0.0,300.0,1.0,0.0
4701,81.0,0.0,300.0,4.0,0.0
4702,66.0,0.0,300.0,3.0,0.0
4703,69.0,0.0,150.0,6.0,0.0
4704,66.0,0.0,150.0,7.0,0.0
4705,54.0,240.0,150.0,8.0,0.0
4706,52.0,144.0,150.0,8.0,0.0
4707,79.0,0.0,300.0,1.0,0.0
4708,76.0,0.0,300.0,1.0,0.0
4709,91.0,0.0,300.0,0.0,0.0
4710,81.0,96.0,300.0,4.0,0.0
4711,67.0,0.0,150.0,6.0,0.0
4712,64.0,0.0,150.0,7.0,0.0
4713,69.0,0.0,300.0,3.0,0.0
4714,64.0,0.0,300.0,2.0,0.0
4715,67.0,0.0,300.0,2.0,0.0
4716,69.0,0.0,300.0,5.0,0.0
4717,49.0,0.0,150.0,8.0,0.0
4718,64.0,0.0,150.0,6.0,0.0
4719,61.0,336.0,150.0,7.0,0.0
4720,62.0,0.0,240.0,7.0,0.0
4721,66.0,0.0,300.0,2.0,0.0
4722,62.0,96.0,300.0,2.0,0.0
4723,69.0,0.0,300.0,5.0,0.0
4724,69.0,0.0,300.0,3.0,0.0
4725,66.0,0.0,300.0,3.0,0.0
4726,50.0,0.0,240.0,8.0,0.0
4727,66.0,48.0,240.0,6.0,0.0
4728,81.0,0.0,300.0,4.0,0.0
4729,74.0,0.0,300.0,1.0,0.0
4730,78.0,0.0,300.0,1.0,0.0
4731,90.0,0.0,300.0,0.0,0.0
4732,69.0,0.0,150.0,6.0,0.0
4733,54.0,0.0,150.0,8.0,0.0
4734,66.0,240.0,150.0,7.0,0.0
4735,52.0,144.0,150.0,8.0,0.0
4736,69.0,0.0,300.0,5.0,0.0
4737,81.0,96.0,300.0,4.0,0.0
4738,69.0,0.0,300.0,3.0,0.0
4739,91.0,0.0,300.0,0.0,0.0
4740,64.0,0.0,150.0,7.0,0.0
4741,67.0,0.0,150.0,6.0,0.0
4742,64.0,0.0,300.0,2.0,0.0
4743,67.0,0.0,300.0,2.0,0.0
4744,76.0,0.0,300.0,1.0,0.0
4745,79.0,0.0,300.0,1.0,0.0
4746,64.0,0.0,150.0,6.0,0.0
4747,61.0,288.0,150.0,7.0,0.0
4748,49.0,0.0,150.0,8.0,0.0
4749,66.0,0.0,780.0,2.0,0.0
4750,78.0,0.0,780.0,1.0,0.0
4751,74.0,0.0,780.0,1.0,0.0
4752,69.0,0.0,780.0,3.0,0.0
4753,66.0,0.0,780.0,3.0,0.0
4754,66.0,240.0,180.0,6.0,0.0
4755,62.0,0.0,780.0,2.0,0.0
4756,69.0,0.0,780.0,5.0,0.0
4757,50.0,0.0,180.0,8.0,0.0
4758,90.0,0.0,780.0,0.0,0.0
4759,62.0,0.0,180.0,7.0,0.0
4760,81.0,144.0,780.0,4.0,0.0
4761,64.0,240.0,180.0,7.0,0.0
4762,52.0,0.0,180.0,8.0,0.0
4763,67.0,0.0,180.0,6.0,0.0
4764,66.0,96.0,180.0,7.0,0.0
4765,54.0,0.0,180.0,8.0,0.0
4766,69.0,0.0,180.0,6.0,0.0
4767,52.0,0.0,180.0,8.0,0.0
4768,67.0,0.0,180.0,6.0,0.0
4769,64.0,240.0,180.0,7.0,0.0
4770,50.0,240.0,180.0,8.0,0.0
4771,66.0,0.0,180.0,6.0,0.0
4772,62.0,0.0,180.0,7.0,0.0
4773,64.0,0.0,180.0,6.0,0.0
4774,61.0,0.0,180.0,7.0,0.0
4775,49.0,240.0,180.0,8.0,0.0
4776,59.0,0.0,180.0,7.0,0.0
4777,62.0,240.0,180.0,6.0,0.0
4778,47.0,0.0,180.0,8.0,0.0
4779,58.0,0.0,180.0,7.0,0.0
4780,46.0,0.0,180.0,8.0,0.0
4781,61.0,288.0,180.0,6.0,0.0
4782,71.0,0.0,300.0,1.0,0.0
4783,62.0,0.0,240.0,6.0,0.0
4784,59.0,48.0,240.0,7.0,0.0
4785,74.0,0.0,300.0,1.0,0.0
4786,78.0,0.0,300.0,5.0,0.0
4787,47.0,0.0,240.0,8.0,0.0
4788,62.0,0.0,300.0,2.0,0.0
4789,59.0,0.0,300.0,2.0,0.0
4790,86.0,0.0,300.0,0.0,0.0
4791,71.0,96.0,300.0,3.0,0.0
4792,62.0,0.0,300.0,3.0,0.0
4793,90.0,0.0,300.0,4.0,0.0
4794,66.0,0.0,150.0,6.0,0.0
4795,50.0,0.0,150.0,8.0,0.0
4796,62.0,240.0,150.0,7.0,0.0
4797,76.0,0.0,300.0,1.0,0.0
4798,73.0,0.0,300.0,1.0,0.0
4799,90.0,96.0,300.0,4.0,0.0
4800,64.0,0.0,150.0,6.0,0.0
4801,61.0,0.0,300.0,2.0,0.0
4802,61.0,144.0,150.0,7.0,0.0
4803,64.0,0.0,300.0,2.0,0.0
4804,49.0,0.0,150.0,8.0,0.0
4805,88.0,0.0,300.0,0.0,0.0
4806,73.0,0.0,300.0,3.0,0.0
4807,66.0,0.0,300.0,3.0,0.0
4808,78.0,0.0,300.0,5.0,0.0
4809,61.0,0.0,150.0,6.0,0.0
4810,58.0,336.0,150.0,7.0,0.0
4811,46.0,0.0,150.0,8.0,0.0
4812,86.0,96.0,300.0,0.0,0.0
4813,47.0,48.0,240.0,8.0,0.0
4814,59.0,0.0,300.0,2.0,0.0
4815,71.0,0.0,300.0,1.0,0.0
4816,59.0,0.0,240.0,7.0,0.0
4817,74.0,0.0,300.0,1.0,0.0
4818,62.0,0.0,240.0,6.0,0.0
4819,78.0,0.0,300.0,5.0,0.0
4820,71.0,0.0,300.0,3.0,0.0
4821,62.0,0.0,300.0,3.0,0.0
4822,90.0,0.0,300.0,4.0,0.0
4823,62.0,0.0,300.0,2.0,0.0
4824,62.0,0.0,150.0,7.0,0.0
4825,50.0,0.0,150.0,8.0,0.0
4826,66.0,240.0,150.0,6.0,0.0
4827,49.0,0.0,150.0,8.0,0.0
4828,64.0,0.0,300.0,2.0,0.0
4829,90.0,0.0,300.0,4.0,0.0
4830,64.0,0.0,150.0,6.0,0.0
4831,61.0,0.0,300.0,2.0,0.0
4832,76.0,0.0,300.0,1.0,0.0
4833,66.0,0.0,300.0,3.0,0.0
4834,88.0,0.0,300.0,0.0,0.0
4835,73.0,0.0,300.0,1.0,0.0
4836,78.0,0.0,300.0,5.0,0.0
4837,61.0,144.0,150.0,7.0,0.0
4838,73.0,96.0,300.0,3.0,0.0
4839,61.0,0.0,150.0,6.0,0.0
4840,58.0,0.0,150.0,7.0,0.0
4841,46.0,240.0,150.0,8.0,0.0
4842,86.0,0.0,780.0,0.0,0.0
4843,47.0,144.0,150.0,8.0,0.0
4844,59.0,0.0,150.0,7.0,0.0
4845,62.0,0.0,780.0,2.0,0.0
4846,78.0,0.0,780.0,5.0,0.0
4847,59.0,0.0,780.0,2.0,0.0
4848,62.0,96.0,300.0,6.0,0.0
4849,74.0,0.0,780.0,1.0,0.0
4850,90.0,0.0,780.0,4.0,0.0
4851,71.0,96.0,780.0,1.0,0.0
4852,62.0,0.0,780.0,3.0,0.0
4853,71.0,0.0,780.0,3.0,0.0
4854,61.0,240.0,150.0,7.0,0.0
4855,49.0,0.0,150.0,8.0,0.0
4856,78.0,0.0,150.0,6.0,0.0
4857,50.0,0.0,150.0,8.0,0.0
4858,62.0,144.0,150.0,7.0,0.0
4859,61.0,240.0,150.0,7.0,0.0
4860,76.0,0.0,150.0,6.0,0.0
4861,49.0,0.0,150.0,8.0,0.0
4862,74.0,0.0,150.0,6.0,0.0
4863,47.0,240.0,150.0,8.0,0.0
4864,59.0,0.0,150.0,7.0,0.0
4865,57.0,0.0,150.0,7.0,0.0
4866,73.0,240.0,150.0,6.0,0.0
4867,45.0,0.0,150.0,8.0,0.0
4868,71.0,240.0,150.0,6.0,0.0
4869,55.0,0.0,150.0,7.0,0.0
4870,43.0,0.0,150.0,8.0,0.0
4871,69.0,0.0,150.0,6.0,0.0
4872,54.0,336.0,150.0,7.0,0.0
4873,42.0,0.0,150.0,8.0,0.0
4874,64.0,0.0,300.0,2.0,0.0
4875,71.0,48.0,240.0,6.0,0.0
4876,79.0,0.0,300.0,1.0,0.0
4877,76.0,0.0,300.0,5.0,0.0
4878,83.0,0.0,300.0,1.0,0.0
4879,59.0,0.0,300.0,2.0,0.0
4880,43.0,0.0,240.0,8.0,0.0
4881,71.0,0.0,300.0,3.0,0.0
4882,88.0,0.0,300.0,0.0,0.0
4883,76.0,0.0,300.0,3.0,0.0
4884,55.0,0.0,240.0,7.0,0.0
4885,88.0,96.0,300.0,4.0,0.0
4886,59.0,240.0,150.0,7.0,0.0
4887,67.0,0.0,150.0,6.0,0.0
4888,47.0,0.0,150.0,8.0,0.0
4889,57.0,0.0,150.0,7.0,0.0
4890,78.0,0.0,300.0,3.0,0.0
4891,81.0,0.0,300.0,1.0,0.0
4892,84.0,0.0,300.0,1.0,0.0
4893,45.0,144.0,150.0,8.0,0.0
4894,69.0,0.0,300.0,3.0,0.0
4895,87.0,0.0,300.0,4.0,0.0
4896,75.0,0.0,300.0,5.0,0.0
4897,60.0,0.0,300.0,2.0,0.0
4898,63.0,0.0,300.0,2.0,0.0
4899,90.0,96.0,300.0,0.0,0.0
4900,72.0,0.0,150.0,6.0,0.0
4901,42.0,336.0,150.0,8.0,0.0
4902,54.0,0.0,150.0,7.0,0.0
4903,69.0,0.0,150.0,6.0,0.0
4904,64.0,0.0,300.0,2.0,0.0
4905,59.0,0.0,300.0,2.0,0.0
4906,76.0,0.0,300.0,3.0,0.0
4907,88.0,96.0,300.0,0.0,0.0
4908,76.0,0.0,300.0,5.0,0.0
4909,71.0,0.0,300.0,3.0,0.0
4910,88.0,0.0,300.0,4.0,0.0
4911,43.0,48.0,240.0,8.0,0.0
4912,83.0,0.0,300.0,1.0,0.0
4913,79.0,0.0,300.0,1.0,0.0
4914,55.0,0.0,240.0,7.0,0.0
4915,71.0,0.0,240.0,6.0,0.0
4916,67.0,0.0,150.0,6.0,0.0
4917,59.0,0.0,150.0,7.0,0.0
4918,47.0,240.0,150.0,8.0,0.0
4919,90.0,96.0,300.0,0.0,0.0
4920,72.0,144.0,150.0,6.0,0.0
4921,84.0,0.0,300.0,1.0,0.0
4922,81.0,0.0,300.0,1.0,0.0
4923,87.0,0.0,300.0,4.0,0.0
4924,60.0,0.0,300.0,2.0,0.0
4925,63.0,0.0,300.0,2.0,0.0
4926,75.0,0.0,300.0,5.0,0.0
4927,78.0,0.0,300.0,3.0,0.0
4928,69.0,0.0,300.0,3.0,0.0
4929,45.0,0.0,150.0,8.0,0.0
4930,57.0,0.0,150.0,7.0,0.0
4931,69.0,0.0,150.0,6.0,0.0
4932,42.0,0.0,150.0,8.0,0.0
4933,54.0,240.0,150.0,7.0,0.0
4934,88.0,0.0,780.0,0.0,0.0
4935,83.0,0.0,780.0,1.0,0.0
4936,79.0,0.0,780.0,1.0,0.0
4937,88.0,0.0,780.0,4.0,0.0
4938,64.0,0.0,780.0,2.0,0.0
4939,59.0,0.0,780.0,2.0,0.0
4940,71.0,240.0,150.0,6.0,0.0
4941,76.0,96.0,780.0,3.0,0.0
4942,43.0,0.0,150.0,8.0,0.0
4943,76.0,0.0,780.0,5.0,0.0
4944,71.0,0.0,780.0,3.0,0.0
4945,55.0,0.0,150.0,7.0,0.0
4946,57.0,0.0,150.0,7.0,0.0
4947,45.0,240.0,150.0,8.0,0.0
4948,69.0,0.0,150.0,6.0,0.0
4949,47.0,144.0,150.0,8.0,0.0
4950,59.0,0.0,150.0,7.0,0.0
4951,67.0,0.0,150.0,6.0,0.0
4952,66.0,0.0,150.0,6.0,0.0
4953,57.0,0.0,150.0,7.0,0.0
4954,45.0,240.0,150.0,8.0,0.0
4955,55.0,0.0,150.0,7.0,0.0
4956,43.0,240.0,150.0,8.0,0.0
4957,64.0,0.0,150.0,6.0,0.0
4958,62.0,0.0,150.0,6.0,0.0
4959,54.0,0.0,150.0,7.0,0.0
4960,42.0,240.0,150.0,8.0,0.0
4961,61.0,0.0,150.0,6.0,0.0
4962,52.0,0.0,150.0,7.0,0.0
4963,40.0,240.0,150.0,8.0,0.0
4964,38.0,0.0,150.0,8.0,0.0
4965,50.0,336.0,150.0,7.0,0.0
4966,62.0,0.0,150.0,6.0,0.0
4967,79.0,0.0,300.0,5.0,0.0
4968,57.0,0.0,300.0,2.0,0.0
4969,93.0,0.0,300.0,0.0,0.0
4970,81.0,96.0,300.0,1.0,0.0
4971,69.0,0.0,300.0,2.0,0.0
4972,64.0,48.0,240.0,6.0,0.0
4973,49.0,0.0,240.0,7.0,0.0
4974,37.0,0.0,240.0,8.0,0.0
4975,64.0,0.0,300.0,3.0,0.0
4976,91.0,0.0,300.0,4.0,0.0
4977,50.0,0.0,150.0,7.0,0.0
4978,62.0,0.0,150.0,6.0,0.0
4979,38.0,240.0,150.0,8.0,0.0
4980,83.0,0.0,300.0,1.0,0.0
4981,94.0,0.0,300.0,0.0,0.0
4982,91.0,0.0,300.0,4.0,0.0
4983,79.0,0.0,300.0,5.0,0.0
4984,61.0,0.0,150.0,6.0,0.0
4985,70.0,0.0,300.0,2.0,0.0
4986,64.0,96.0,300.0,3.0,0.0
4987,40.0,0.0,150.0,8.0,0.0
4988,52.0,144.0,150.0,7.0,0.0
4989,58.0,0.0,300.0,2.0,0.0
4990,38.0,336.0,150.0,8.0,0.0
4991,50.0,0.0,150.0,7.0,0.0
4992,62.0,0.0,150.0,6.0,0.0
4993,64.0,0.0,300.0,3.0,0.0
4994,79.0,0.0,300.0,5.0,0.0
4995,69.0,0.0,300.0,2.0,0.0
4996,64.0,0.0,240.0,6.0,0.0
4997,37.0,0.0,240.0,8.0,0.0
4998,91.0,96.0,300.0,4.0,0.0
4999,49.0,48.0,240.0,7.0,0.0
5000,57.0,0.0,300.0,2.0,0.0
5001,93.0,0.0,300.0,0.0,0.0
5002,81.0,0.0,300.0,1.0,0.0
5003,50.0,240.0,150.0,7.0,0.0
5004,62.0,0.0,150.0,6.0,0.0
5005,38.0,0.0,150.0,8.0,0.0
5006,40.0,0.0,150.0,8.0,0.0
5007,61.0,144.0,150.0,6.0,0.0
5008,94.0,0.0,300.0,0.0,0.0
5009,52.0,0.0,150.0,7.0,0.0
5010,70.0,0.0,300.0,2.0,0.0
5011,58.0,0.0,300.0,2.0,0.0
5012,64.0,0.0,300.0,3.0,0.0
5013,83.0,96.0,300.0,1.0,0.0
5014,91.0,0.0,300.0,4.0,0.0
5015,79.0,0.0,300.0,5.0,0.0
5016,38.0,0.0,150.0,8.0,0.0
5017,50.0,288.0,150.0,7.0,0.0
5018,62.0,0.0,150.0,6.0,0.0
5019,49.0,240.0,1140.0,2.0,0.0
5020,69.0,0.0,1140.0,2.0,0.0
5021,37.0,0.0,1140.0,8.0,0.0
5022,81.0,0.0,780.0,1.0,0.0
5023,93.0,144.0,780.0,0.0,0.0
5024,91.0,0.0,180.0,4.0,0.0
5025,79.0,240.0,180.0,5.0,0.0
5026,76.0,0.0,780.0,3.0,0.0
5027,49.0,0.0,1140.0,7.0,0.0
5028,64.0,0.0,1140.0,6.0,0.0
5029,90.0,240.0,180.0,4.0,0.0
5030,78.0,0.0,180.0,5.0,0.0
5031,88.0,96.0,180.0,4.0,0.0
5032,76.0,0.0,180.0,5.0,0.0
5033,74.0,240.0,180.0,5.0,0.0
5034,86.0,0.0,180.0,4.0,0.0
5035,85.0,0.0,180.0,4.0,0.0
5036,73.0,0.0,180.0,5.0,0.0
5037,71.0,0.0,180.0,5.0,0.0
5038,83.0,240.0,180.0,4.0,0.0
5039,81.0,0.0,180.0,4.0,0.0
5040,69.0,240.0,180.0,5.0,0.0
5041,73.0,0.0,180.0,6.0,0.0
5042,61.0,240.0,180.0,7.0,0.0
5043,67.0,0.0,180.0,5.0,0.0
5044,49.0,0.0,180.0,8.0,0.0
5045,61.0,0.0,180.0,2.0,0.0
5046,79.0,0.0,180.0,4.0,0.0
5047,69.0,0.0,780.0,3.0,0.0
5048,50.0,0.0,180.0,8.0,0.0
5049,66.0,0.0,1140.0,5.0,0.0
5050,78.0,192.0,1140.0,4.0,0.0
5051,62.0,0.0,180.0,2.0,0.0
5052,62.0,0.0,180.0,7.0,0.0
5053,81.0,96.0,1530.0,1.0,0.0
5054,81.0,0.0,1530.0,0.0,0.0
5055,74.0,240.0,180.0,6.0,0.0
5056,66.0,144.0,780.0,3.0,0.0
5057,69.0,0.0,1530.0,1.0,0.0
5058,73.0,0.0,180.0,6.0,0.0
5059,49.0,240.0,180.0,8.0,0.0
5060,61.0,0.0,180.0,2.0,0.0
5061,61.0,0.0,180.0,7.0,0.0
5062,59.0,0.0,180.0,7.0,0.0
5063,47.0,96.0,180.0,8.0,0.0
5064,71.0,0.0,180.0,6.0,0.0
5065,59.0,0.0,180.0,2.0,0.0
5066,57.0,240.0,180.0,2.0,0.0
5067,69.0,0.0,180.0,6.0,0.0
5068,45.0,0.0,180.0,8.0,0.0
5069,57.0,0.0,180.0,7.0,0.0
5070,55.0,0.0,180.0,2.0,0.0
5071,66.0,48.0,390.0,3.0,0.0
5072,55.0,0.0,180.0,7.0,0.0
5073,67.0,0.0,180.0,6.0,0.0
5074,43.0,0.0,180.0,8.0,0.0
5075,54.0,0.0,180.0,7.0,0.0
5076,42.0,0.0,180.0,8.0,0.0
5077,66.0,144.0,180.0,6.0,0.0
5078,54.0,0.0,180.0,2.0,0.0
5079,66.0,48.0,390.0,3.0,0.0
5080,40.0,0.0,180.0,8.0,0.0
5081,52.0,0.0,180.0,7.0,0.0
5082,64.0,192.0,180.0,6.0,0.0
5083,52.0,0.0,180.0,2.0,0.0
5084,38.0,240.0,180.0,8.0,0.0
5085,90.0,0.0,180.0,4.0,0.0
5086,50.0,0.0,180.0,7.0,0.0
5087,50.0,0.0,180.0,2.0,0.0
5088,62.0,0.0,180.0,6.0,0.0
5089,78.0,0.0,180.0,5.0,0.0
5090,76.0,0.0,780.0,3.0,0.0
5091,49.0,0.0,1140.0,7.0,0.0
5092,66.0,144.0,780.0,3.0,0.0
5093,88.0,240.0,180.0,4.0,0.0
5094,37.0,0.0,1140.0,8.0,0.0
5095,76.0,0.0,180.0,5.0,0.0
5096,49.0,240.0,1140.0,2.0,0.0
5097,70.0,96.0,1530.0,1.0,0.0
5098,61.0,0.0,1140.0,6.0,0.0
5099,82.0,0.0,1530.0,1.0,0.0
5100,82.0,0.0,1530.0,0.0,0.0
5101,74.0,0.0,180.0,5.0,0.0
5102,86.0,240.0,180.0,4.0,0.0
5103,73.0,0.0,180.0,5.0,0.0
5104,85.0,96.0,180.0,4.0,0.0
5105,83.0,240.0,180.0,4.0,0.0
5106,71.0,0.0,180.0,5.0,0.0
5107,82.0,0.0,180.0,4.0,0.0
5108,70.0,0.0,180.0,5.0,0.0
5109,79.0,0.0,180.0,4.0,0.0
5110,67.0,144.0,180.0,5.0,0.0
5111,78.0,240.0,180.0,4.0,0.0
5112,66.0,0.0,180.0,5.0,0.0
5113,61.0,240.0,180.0,7.0,0.0
5114,64.0,0.0,180.0,5.0,0.0
5115,73.0,0.0,180.0,6.0,0.0
5116,61.0,0.0,180.0,2.0,0.0
5117,76.0,0.0,180.0,4.0,0.0
5118,49.0,0.0,180.0,8.0,0.0
5119,83.0,0.0,1530.0,0.0,0.0
5120,47.0,0.0,180.0,8.0,0.0
5121,59.0,240.0,180.0,2.0,0.0
5122,74.0,0.0,1140.0,4.0,0.0
5123,83.0,96.0,1530.0,1.0,0.0
5124,71.0,0.0,1530.0,1.0,0.0
5125,71.0,0.0,180.0,6.0,0.0
5126,66.0,0.0,780.0,3.0,0.0
5127,62.0,0.0,1140.0,5.0,0.0
5128,62.0,144.0,780.0,3.0,0.0
5129,59.0,0.0,180.0,7.0,0.0
5130,69.0,0.0,180.0,6.0,0.0
5131,45.0,0.0,180.0,8.0,0.0
5132,57.0,0.0,180.0,7.0,0.0
5133,57.0,240.0,180.0,2.0,0.0
5134,55.0,0.0,180.0,7.0,0.0
5135,55.0,0.0,180.0,2.0,0.0
5136,43.0,0.0,180.0,8.0,0.0
5137,67.0,96.0,180.0,6.0,0.0
5138,66.0,0.0,180.0,6.0,0.0
5139,54.0,0.0,180.0,2.0,0.0
5140,42.0,0.0,180.0,8.0,0.0
5141,54.0,240.0,180.0,7.0,0.0
5142,52.0,0.0,180.0,2.0,0.0
5143,52.0,0.0,180.0,7.0,0.0
5144,62.0,48.0,390.0,3.0,0.0
5145,40.0,0.0,180.0,8.0,0.0
5146,64.0,192.0,180.0,6.0,0.0
5147,38.0,0.0,180.0,8.0,0.0
5148,50.0,0.0,180.0,2.0,0.0
5149,50.0,0.0,180.0,7.0,0.0
5150,62.0,144.0,180.0,6.0,0.0
5151,49.0,0.0,180.0,7.0,0.0
5152,37.0,0.0,180.0,8.0,0.0
5153,62.0,48.0,390.0,3.0,0.0
5154,61.0,0.0,180.0,6.0,0.0
5155,49.0,192.0,180.0,2.0,0.0
5156,59.0,240.0,180.0,6.0,0.0
5157,47.0,0.0,180.0,2.0,0.0
5158,86.0,0.0,180.0,4.0,0.0
5159,35.0,0.0,180.0,8.0,0.0
5160,47.0,0.0,180.0,7.0,0.0
5161,74.0,0.0,180.0,5.0,0.0
5162,90.0,0.0,1530.0,0.0,0.0
5163,72.0,0.0,180.0,5.0,0.0
5164,62.0,0.0,780.0,3.0,0.0
5165,57.0,0.0,1140.0,6.0,0.0
5166,45.0,0.0,1140.0,2.0,0.0
5167,45.0,0.0,1140.0,7.0,0.0
5168,84.0,240.0,180.0,4.0,0.0
5169,33.0,0.0,1140.0,8.0,0.0
5170,78.0,96.0,1530.0,1.0,0.0
5171,66.0,144.0,780.0,3.0,0.0
5172,71.0,240.0,180.0,5.0,0.0
5173,83.0,0.0,180.0,4.0,0.0
5174,81.0,0.0,180.0,4.0,0.0
5175,69.0,96.0,180.0,5.0,0.0
5176,79.0,0.0,180.0,4.0,0.0
5177,67.0,240.0,180.0,5.0,0.0
5178,78.0,0.0,180.0,4.0,0.0
5179,66.0,240.0,180.0,5.0,0.0
5180,64.0,0.0,180.0,5.0,0.0
5181,76.0,144.0,180.0,4.0,0.0
5182,62.0,240.0,180.0,5.0,0.0
5183,74.0,0.0,180.0,4.0,0.0
5184,60.0,0.0,180.0,5.0,0.0
5185,72.0,240.0,180.0,4.0,0.0
5186,69.0,0.0,180.0,7.0,0.0
5187,69.0,0.0,180.0,6.0,0.0
5188,57.0,0.0,180.0,8.0,0.0
5189,69.0,0.0,180.0,2.0,0.0
5190,74.0,0.0,780.0,3.0,0.0
5191,91.0,96.0,1530.0,0.0,0.0
5192,55.0,0.0,180.0,8.0,0.0
5193,67.0,0.0,180.0,2.0,0.0
5194,79.0,0.0,1530.0,1.0,0.0
5195,67.0,0.0,180.0,6.0,0.0
5196,59.0,0.0,1140.0,5.0,0.0
5197,71.0,0.0,1140.0,4.0,0.0
5198,67.0,240.0,180.0,7.0,0.0
5199,71.0,144.0,780.0,3.0,0.0
5200,66.0,0.0,180.0,2.0,0.0
5201,66.0,0.0,180.0,7.0,0.0
5202,66.0,0.0,180.0,6.0,0.0
5203,54.0,240.0,180.0,8.0,0.0
5204,52.0,96.0,180.0,8.0,0.0
5205,64.0,0.0,180.0,7.0,0.0
5206,64.0,0.0,180.0,2.0,0.0
5207,64.0,0.0,180.0,6.0,0.0
5208,62.0,240.0,180.0,7.0,0.0
5209,62.0,0.0,180.0,2.0,0.0
5210,62.0,0.0,180.0,6.0,0.0
5211,50.0,0.0,180.0,8.0,0.0
5212,48.0,0.0,180.0,8.0,0.0
5213,59.0,48.0,390.0,3.0,0.0
5214,60.0,192.0,180.0,6.0,0.0
5215,60.0,0.0,180.0,7.0,0.0
5216,60.0,0.0,180.0,2.0,0.0
5217,59.0,144.0,180.0,6.0,0.0
5218,59.0,0.0,180.0,7.0,0.0
5219,47.0,0.0,180.0,8.0,0.0
5220,59.0,0.0,180.0,2.0,0.0
5221,59.0,48.0,390.0,3.0,0.0
5222,57.0,0.0,180.0,2.0,0.0
5223,57.0,0.0,180.0,6.0,0.0
5224,57.0,0.0,180.0,7.0,0.0
5225,45.0,192.0,180.0,8.0,0.0
5226,83.0,0.0,180.0,4.0,0.0
5227,55.0,0.0,180.0,6.0,0.0
5228,55.0,0.0,180.0,7.0,0.0
5229,43.0,0.0,180.0,8.0,0.0
5230,55.0,0.0,180.0,2.0,0.0
5231,83.0,240.0,180.0,5.0,0.0
5232,81.0,0.0,180.0,4.0,0.0
5233,78.0,0.0,780.0,3.0,0.0
5234,71.0,0.0,780.0,3.0,0.0
5235,75.0,0.0,1530.0,1.0,0.0
5236,54.0,144.0,780.0,2.0,0.0
5237,42.0,0.0,780.0,8.0,0.0
5238,54.0,0.0,780.0,6.0,0.0
5239,87.0,96.0,1530.0,0.0,0.0
5240,81.0,240.0,180.0,5.0,0.0
5241,54.0,0.0,780.0,7.0,0.0
5242,79.0,240.0,180.0,5.0,0.0
5243,79.0,0.0,180.0,4.0,0.0
5244,78.0,0.0,180.0,5.0,0.0
5245,78.0,96.0,180.0,4.0,0.0
5246,76.0,240.0,180.0,5.0,0.0
5247,76.0,0.0,180.0,4.0,0.0
5248,75.0,0.0,180.0,4.0,0.0
5249,75.0,240.0,180.0,5.0,0.0
5250,72.0,0.0,180.0,5.0,0.0
5251,72.0,144.0,180.0,4.0,0.0
5252,71.0,240.0,180.0,5.0,0.0
5253,71.0,0.0,180.0,4.0,0.0
5254,69.0,240.0,180.0,5.0,0.0
5255,69.0,0.0,180.0,4.0,0.0
5256,76.0,0.0,780.0,1.0,0.0
5257,67.0,0.0,180.0,4.0,0.0
5258,88.0,0.0,780.0,0.0,0.0
5259,52.0,0.0,780.0,7.0,0.0
5260,67.0,240.0,180.0,5.0,0.0
5261,40.0,0.0,780.0,8.0,0.0
5262,52.0,0.0,780.0,2.0,0.0
5263,55.0,144.0,780.0,6.0,0.0
5264,69.0,0.0,180.0,4.0,0.0
5265,69.0,240.0,180.0,5.0,0.0
5266,71.0,96.0,180.0,5.0,0.0
5267,71.0,0.0,180.0,4.0,0.0
5268,67.0,240.0,180.0,5.0,0.0
5269,67.0,0.0,180.0,4.0,0.0
5270,66.0,0.0,180.0,4.0,0.0
5271,57.0,0.0,780.0,6.0,0.0
5272,54.0,144.0,780.0,2.0,0.0
5273,42.0,0.0,780.0,8.0,0.0
5274,66.0,240.0,180.0,5.0,0.0
5275,87.0,0.0,780.0,0.0,0.0
5276,81.0,0.0,780.0,1.0,0.0
5277,72.0,0.0,780.0,1.0,0.0
5278,54.0,0.0,780.0,7.0,0.0
5279,67.0,0.0,180.0,4.0,0.0
5280,67.0,240.0,180.0,5.0,0.0
5281,69.0,96.0,180.0,5.0,0.0
5282,69.0,0.0,180.0,4.0,0.0
5283,66.0,240.0,180.0,4.0,0.0
5284,66.0,0.0,180.0,5.0,0.0
5285,59.0,96.0,1530.0,6.0,0.0
5286,64.0,240.0,180.0,4.0,0.0
5287,64.0,0.0,180.0,5.0,0.0
5288,88.0,0.0,780.0,0.0,0.0
5289,83.0,0.0,1740.0,1.0,0.0
5290,55.0,0.0,780.0,2.0,0.0
5291,55.0,0.0,780.0,7.0,0.0
5292,43.0,144.0,780.0,8.0,0.0
5293,71.0,0.0,780.0,1.0,0.0
5294,66.0,240.0,180.0,5.0,0.0
5295,66.0,0.0,180.0,4.0,0.0
5296,67.0,0.0,180.0,5.0,0.0
5297,67.0,96.0,180.0,4.0,0.0
5298,64.0,0.0,180.0,4.0,0.0
5299,64.0,240.0,180.0,5.0,0.0
5300,62.0,240.0,180.0,4.0,0.0
5301,56.0,0.0,780.0,7.0,0.0
5302,56.0,0.0,780.0,2.0,0.0
5303,76.0,0.0,780.0,1.0,0.0
5304,44.0,0.0,780.0,8.0,0.0
5305,62.0,0.0,180.0,5.0,0.0
5306,86.0,144.0,780.0,0.0,0.0
5307,64.0,0.0,180.0,5.0,0.0
5308,64.0,144.0,180.0,4.0,0.0
5309,66.0,96.0,180.0,5.0,0.0
5310,66.0,0.0,180.0,4.0,0.0
5311,62.0,0.0,180.0,4.0,0.0
5312,62.0,240.0,180.0,5.0,0.0
5313,45.0,0.0,390.0,8.0,0.0
5314,61.0,192.0,180.0,5.0,0.0
5315,52.0,0.0,390.0,6.0,0.0
5316,57.0,48.0,390.0,2.0,0.0
5317,81.0,96.0,1530.0,1.0,0.0
5318,76.0,0.0,1530.0,1.0,0.0
5319,85.0,0.0,1530.0,0.0,0.0
5320,61.0,0.0,180.0,4.0,0.0
5321,69.0,0.0,1530.0,3.0,0.0
5322,57.0,0.0,390.0,7.0,0.0
5323,64.0,0.0,180.0,5.0,0.0
5324,64.0,240.0,180.0,4.0,0.0
5325,69.0,192.0,180.0,4.0,0.0
5326,57.0,0.0,390.0,2.0,0.0
5327,57.0,0.0,390.0,7.0,0.0
5328,69.0,48.0,390.0,6.0,0.0
5329,69.0,0.0,180.0,5.0,0.0
5330,45.0,0.0,390.0,8.0,0.0
5331,73.0,240.0,180.0,5.0,0.0
5332,73.0,0.0,180.0,4.0,0.0
5333,76.0,0.0,180.0,4.0,0.0
5334,45.0,0.0,390.0,8.0,0.0
5335,57.0,0.0,390.0,7.0,0.0
5336,57.0,48.0,390.0,2.0,0.0
5337,76.0,192.0,180.0,5.0,0.0
5338,69.0,0.0,390.0,6.0,0.0
5339,76.0,144.0,180.0,4.0,0.0
5340,76.0,0.0,180.0,5.0,0.0
5341,57.0,48.0,390.0,7.0,0.0
5342,69.0,0.0,390.0,6.0,0.0
5343,76.0,192.0,180.0,4.0,0.0
5344,76.0,0.0,180.0,5.0,0.0
5345,57.0,0.0,390.0,2.0,0.0
5346,45.0,0.0,390.0,8.0,0.0
5347,76.0,0.0,180.0,5.0,0.0
5348,76.0,240.0,180.0,4.0,0.0
5349,69.0,0.0,1530.0,3.0,0.0
5350,80.0,96.0,1530.0,1.0,0.0
5351,57.0,0.0,390.0,7.0,0.0
5352,74.0,0.0,1530.0,1.0,0.0
5353,59.0,192.0,180.0,5.0,0.0
5354,69.0,48.0,390.0,6.0,0.0
5355,59.0,0.0,180.0,4.0,0.0
5356,45.0,0.0,390.0,8.0,0.0
5357,57.0,0.0,390.0,2.0,0.0
5358,83.0,0.0,1530.0,0.0,0.0
5359,62.0,0.0,180.0,5.0,0.0
5360,62.0,240.0,180.0,4.0,0.0
5361,45.0,0.0,390.0,8.0,0.0
5362,57.0,48.0,390.0,7.0,0.0
5363,69.0,0.0,390.0,6.0,0.0
5364,68.0,0.0,180.0,5.0,0.0
5365,57.0,0.0,390.0,2.0,0.0
5366,68.0,192.0,180.0,4.0,0.0
5367,71.0,0.0,180.0,5.0,0.0
5368,71.0,240.0,180.0,4.0,0.0
5369,57.0,0.0,390.0,7.0,0.0
5370,74.0,192.0,180.0,5.0,0.0
5371,45.0,48.0,390.0,8.0,0.0
5372,69.0,0.0,390.0,6.0,0.0
5373,57.0,0.0,390.0,2.0,0.0
5374,74.0,0.0,180.0,4.0,0.0
5375,74.0,0.0,180.0,4.0,0.0
5376,74.0,144.0,180.0,5.0,0.0
5377,74.0,0.0,180.0,4.0,0.0
5378,74.0,192.0,180.0,5.0,0.0
5379,69.0,0.0,390.0,6.0,0.0
5380,57.0,0.0,390.0,2.0,0.0
5381,57.0,48.0,390.0,7.0,0.0
5382,45.0,0.0,390.0,8.0,0.0
5383,74.0,0.0,180.0,4.0,0.0
5384,74.0,240.0,180.0,5.0,0.0
5385,88.0,0.0,1530.0,0.0,0.0
5386,73.0,192.0,180.0,4.0,0.0
5387,73.0,0.0,180.0,5.0,0.0
5388,57.0,0.0,390.0,2.0,0.0
5389,45.0,0.0,390.0,8.0,0.0
5390,81.0,96.0,1530.0,1.0,0.0
5391,69.0,96.0,780.0,3.0,0.0
5392,69.0,0.0,390.0,6.0,0.0
5393,73.0,0.0,1530.0,1.0,0.0
5394,57.0,48.0,390.0,7.0,0.0
5395,76.0,240.0,180.0,5.0,0.0
5396,76.0,0.0,180.0,4.0,0.0
5397,81.0,0.0,180.0,4.0,0.0
5398,45.0,48.0,390.0,8.0,0.0
5399,57.0,0.0,390.0,7.0,0.0
5400,57.0,0.0,390.0,2.0,0.0
5401,69.0,0.0,390.0,6.0,0.0
5402,81.0,96.0,180.0,5.0,0.0
5403,85.0,240.0,180.0,4.0,0.0
5404,85.0,0.0,180.0,5.0,0.0
5405,45.0,48.0,390.0,8.0,0.0
5406,69.0,0.0,390.0,3.0,0.0
5407,88.0,192.0,180.0,5.0,0.0
5408,69.0,0.0,390.0,6.0,0.0
5409,57.0,0.0,390.0,7.0,0.0
5410,88.0,0.0,180.0,4.0,0.0
5411,57.0,0.0,390.0,2.0,0.0
5412,88.0,144.0,180.0,5.0,0.0
5413,88.0,0.0,180.0,4.0,0.0
5414,57.0,0.0,390.0,2.0,0.0
5415,45.0,48.0,390.0,8.0,0.0
5416,69.0,0.0,390.0,6.0,0.0
5417,88.0,192.0,180.0,4.0,0.0
5418,88.0,0.0,180.0,5.0,0.0
5419,57.0,0.0,390.0,7.0,0.0
5420,69.0,0.0,390.0,3.0,0.0
5421,88.0,240.0,180.0,5.0,0.0
5422,88.0,0.0,180.0,4.0,0.0
5423,71.0,0.0,180.0,4.0,0.0
5424,69.0,0.0,390.0,6.0,0.0
5425,69.0,96.0,780.0,3.0,0.0
5426,71.0,192.0,180.0,5.0,0.0
5427,57.0,0.0,390.0,7.0,0.0
5428,92.0,0.0,1530.0,0.0,0.0
5429,86.0,0.0,1530.0,1.0,0.0
5430,57.0,48.0,390.0,2.0,0.0
5431,83.0,96.0,1530.0,1.0,0.0
5432,45.0,0.0,390.0,8.0,0.0
5433,74.0,240.0,180.0,4.0,0.0
5434,74.0,0.0,180.0,5.0,0.0
5435,80.0,0.0,180.0,5.0,0.0
5436,80.0,96.0,180.0,4.0,0.0
5437,45.0,0.0,390.0,8.0,0.0
5438,69.0,0.0,390.0,6.0,0.0
5439,57.0,0.0,390.0,2.0,0.0
5440,57.0,48.0,390.0,7.0,0.0
5441,83.0,0.0,180.0,4.0,0.0
5442,83.0,240.0,180.0,5.0,0.0
5443,57.0,0.0,390.0,2.0,0.0
5444,69.0,48.0,390.0,3.0,0.0
5445,57.0,0.0,390.0,7.0,0.0
5446,86.0,0.0,180.0,4.0,0.0
5447,69.0,0.0,390.0,6.0,0.0
5448,86.0,192.0,180.0,5.0,0.0
5449,45.0,0.0,390.0,8.0,0.0
5450,86.0,144.0,180.0,4.0,0.0
5451,86.0,0.0,180.0,5.0,0.0
5452,45.0,0.0,390.0,8.0,0.0
5453,69.0,0.0,390.0,6.0,0.0
5454,86.0,192.0,180.0,4.0,0.0
5455,57.0,0.0,390.0,7.0,0.0
5456,69.0,0.0,390.0,3.0,0.0
5457,86.0,0.0,180.0,5.0,0.0
5458,57.0,48.0,390.0,2.0,0.0
5459,86.0,432.0,180.0,5.0,0.0
5460,86.0,0.0,180.0,4.0,0.0
5461,81.0,0.0,390.0,1.0,0.0
5462,85.0,0.0,390.0,1.0,0.0
5463,57.0,0.0,390.0,2.0,0.0
5464,45.0,0.0,390.0,8.0,0.0
5465,57.0,0.0,390.0,7.0,0.0
5466,69.0,0.0,390.0,6.0,0.0
5467,85.0,0.0,390.0,5.0,0.0
5468,85.0,0.0,390.0,4.0,0.0
5469,93.0,960.0,390.0,0.0,0.0
5470,69.0,0.0,390.0,3.0,0.0
5471,73.0,0.0,390.0,4.0,0.0
5472,81.0,0.0,390.0,4.0,0.0
5473,81.0,1344.0,390.0,5.0,0.0
5474,73.0,0.0,390.0,5.0,0.0
5475,57.0,0.0,390.0,2.0,0.0
5476,57.0,0.0,390.0,7.0,0.0
5477,69.0,0.0,390.0,6.0,0.0
5478,76.0,0.0,390.0,1.0,0.0
5479,85.0,0.0,390.0,1.0,0.0
5480,45.0,0.0,390.0,8.0,0.0
5481,69.0,0.0,390.0,3.0,0.0
5482,93.0,0.0,390.0,0.0,0.0
5483,69.0,1056.0,780.0,3.0,0.0
5484,73.0,0.0,780.0,1.0,0.0
5485,76.0,0.0,780.0,1.0,0.0
5486,61.0,0.0,780.0,5.0,0.0
5487,69.0,0.0,780.0,5.0,0.0
5488,45.0,0.0,780.0,7.0,0.0
5489,81.0,0.0,780.0,0.0,0.0
5490,61.0,0.0,780.0,4.0,0.0
5491,33.0,0.0,780.0,8.0,0.0
5492,45.0,0.0,780.0,2.0,0.0
5493,57.0,0.0,780.0,6.0,0.0
5494,69.0,0.0,780.0,4.0,0.0
5495,81.0,480.0,390.0,4.0,0.0
5496,74.0,0.0,390.0,6.0,0.0
5497,78.0,480.0,390.0,5.0,0.0
5498,81.0,96.0,1740.0,4.0,0.0
5499,74.0,480.0,390.0,6.0,0.0
5500,78.0,0.0,390.0,5.0,0.0
5501,74.0,0.0,390.0,6.0,0.0
5502,78.0,384.0,390.0,5.0,0.0
5503,78.0,0.0,390.0,5.0,0.0
5504,74.0,216.0,390.0,6.0,0.0
5505,80.0,264.0,120.0,4.0,0.0
5506,76.0,408.0,390.0,5.0,0.0
5507,73.0,0.0,390.0,6.0,0.0
5508,81.0,72.0,660.0,4.0,0.0
5509,73.0,216.0,390.0,6.0,0.0
5510,76.0,0.0,390.0,5.0,0.0
5511,73.0,408.0,390.0,6.0,0.0
5512,76.0,0.0,390.0,5.0,0.0
5513,80.0,264.0,120.0,4.0,0.0
5514,81.0,72.0,660.0,4.0,0.0
5515,76.0,0.0,390.0,5.0,0.0
5516,73.0,480.0,390.0,6.0,0.0
5517,74.0,288.0,1530.0,5.0,0.0
5518,86.0,144.0,720.0,4.0,0.0
5519,71.0,336.0,390.0,6.0,0.0
5520,71.0,48.0,390.0,6.0,0.0
5521,83.0,432.0,180.0,4.0,0.0
5522,79.0,384.0,1920.0,4.0,0.0
5523,71.0,192.0,390.0,6.0,0.0
5524,71.0,480.0,390.0,6.0,0.0
5525,74.0,288.0,1530.0,5.0,0.0
5526,69.0,480.0,390.0,6.0,0.0
5527,69.0,96.0,390.0,6.0,0.0
5528,69.0,192.0,390.0,6.0,0.0
5529,78.0,576.0,1350.0,4.0,0.0
5530,69.0,480.0,390.0,6.0,0.0
5531,67.0,576.0,2310.0,6.0,0.0
5532,71.0,0.0,2310.0,5.0,0.0
5533,75.0,384.0,240.0,4.0,0.0
5534,76.0,576.0,390.0,4.0,0.0
5535,78.0,384.0,240.0,4.0,0.0
5536,79.0,0.0,390.0,4.0,0.0
5537,81.0,384.0,240.0,4.0,0.0
5538,82.0,528.0,390.0,4.0,0.0
5539,83.0,432.0,180.0,4.0,0.0
5540,74.0,240.0,1440.0,4.0,0.0
5541,57.0,480.0,390.0,6.0,0.0
5542,66.0,0.0,1440.0,5.0,0.0
5543,57.0,480.0,390.0,6.0,0.0
5544,57.0,96.0,390.0,6.0,0.0
5545,57.0,48.0,390.0,6.0,0.0
5546,62.0,0.0,240.0,5.0,0.0
5547,78.0,144.0,240.0,4.0,0.0
5548,61.0,384.0,240.0,5.0,0.0
5549,76.0,48.0,180.0,4.0,0.0
5550,61.0,96.0,390.0,5.0,0.0
5551,57.0,0.0,390.0,6.0,0.0
5552,76.0,480.0,480.0,4.0,0.0
5553,78.0,480.0,480.0,4.0,0.0
5554,79.0,384.0,480.0,4.0,0.0
5555,80.0,480.0,390.0,4.0,0.0
5556,74.0,0.0,390.0,6.0,0.0
5557,81.0,0.0,2310.0,4.0,0.0
5558,78.0,480.0,390.0,5.0,0.0
5559,74.0,0.0,390.0,6.0,0.0
5560,78.0,480.0,390.0,5.0,0.0
5561,74.0,480.0,390.0,6.0,0.0
5562,78.0,0.0,390.0,5.0,0.0
5563,74.0,480.0,390.0,6.0,0.0
5564,78.0,0.0,390.0,5.0,0.0
5565,73.0,480.0,390.0,6.0,0.0
5566,76.0,0.0,390.0,5.0,0.0
5567,82.0,384.0,480.0,4.0,0.0
5568,73.0,0.0,390.0,6.0,0.0
5569,76.0,96.0,390.0,5.0,0.0
5570,73.0,0.0,390.0,6.0,0.0
5571,76.0,96.0,390.0,5.0,0.0
5572,83.0,384.0,480.0,4.0,0.0
5573,73.0,0.0,390.0,6.0,0.0
5574,76.0,96.0,390.0,5.0,0.0
5575,85.0,480.0,480.0,4.0,0.0
5576,86.0,480.0,480.0,4.0,0.0
5577,74.0,384.0,3840.0,5.0,0.0
5578,71.0,48.0,2820.0,6.0,0.0
5579,85.0,480.0,480.0,4.0,0.0
5580,83.0,480.0,480.0,4.0,0.0
5581,82.0,480.0,480.0,4.0,0.0
5582,81.0,432.0,480.0,4.0,0.0
5583,80.0,480.0,480.0,4.0,0.0
5584,79.0,384.0,480.0,4.0,0.0
5585,69.0,48.0,900.0,6.0,0.0
5586,78.0,48.0,390.0,4.0,0.0
5587,75.0,528.0,420.0,4.0,0.0
5588,71.0,0.0,390.0,5.0,0.0
5589,67.0,48.0,390.0,6.0,0.0
5590,76.0,480.0,480.0,4.0,0.0
5591,79.0,384.0,480.0,4.0,0.0
5592,83.0,1536.0,390.0,4.0,0.0
5593,66.0,240.0,1440.0,5.0,0.0
5594,57.0,0.0,1920.0,6.0,0.0
5595,74.0,0.0,1440.0,4.0,0.0
5596,78.0,0.0,240.0,4.0,0.0
5597,69.0,240.0,240.0,5.0,0.0
5598,76.0,0.0,240.0,4.0,0.0
5599,67.0,384.0,240.0,5.0,0.0
5600,74.0,0.0,390.0,4.0,0.0
5601,66.0,0.0,390.0,5.0,0.0
5602,62.0,576.0,390.0,6.0,0.0
5603,69.0,480.0,480.0,1.0,0.0
5604,74.0,480.0,480.0,1.0,0.0
5605,76.0,384.0,480.0,1.0,0.0
5606,78.0,576.0,390.0,1.0,0.0
5607,74.0,480.0,480.0,1.0,0.0
5608,57.0,0.0,480.0,2.0,0.0
5609,62.0,0.0,480.0,2.0,0.0
5610,78.0,384.0,480.0,1.0,0.0
5611,79.0,480.0,390.0,1.0,0.0
5612,64.0,0.0,390.0,2.0,0.0
5613,50.0,0.0,390.0,8.0,0.0
5614,66.0,288.0,1530.0,2.0,0.0
5615,81.0,0.0,1530.0,1.0,0.0
5616,62.0,480.0,390.0,7.0,0.0
5617,50.0,480.0,390.0,8.0,0.0
5618,62.0,0.0,390.0,7.0,0.0
5619,62.0,192.0,390.0,7.0,0.0
5620,50.0,0.0,390.0,8.0,0.0
5621,62.0,0.0,390.0,7.0,0.0
5622,50.0,216.0,390.0,8.0,0.0
5623,61.0,0.0,390.0,7.0,0.0
5624,64.0,216.0,1530.0,2.0,0.0
5625,80.0,264.0,120.0,1.0,0.0
5626,49.0,408.0,390.0,8.0,0.0
5627,81.0,72.0,660.0,1.0,0.0
5628,49.0,216.0,390.0,8.0,0.0
5629,61.0,0.0,390.0,7.0,0.0
5630,49.0,192.0,390.0,8.0,0.0
5631,61.0,0.0,390.0,7.0,0.0
5632,80.0,264.0,120.0,1.0,0.0
5633,81.0,72.0,660.0,1.0,0.0
5634,49.0,336.0,390.0,8.0,0.0
5635,61.0,0.0,390.0,7.0,0.0
5636,62.0,240.0,480.0,2.0,0.0
5637,86.0,240.0,240.0,1.0,0.0
5638,59.0,0.0,1530.0,7.0,0.0
5639,47.0,144.0,1530.0,8.0,0.0
5640,85.0,0.0,240.0,1.0,0.0
5641,83.0,192.0,240.0,1.0,0.0
5642,64.0,0.0,240.0,2.0,0.0
5643,66.0,288.0,180.0,2.0,0.0
5644,81.0,0.0,180.0,1.0,0.0
5645,67.0,48.0,1860.0,2.0,0.0
5646,79.0,0.0,1860.0,1.0,0.0
5647,79.0,0.0,240.0,4.0,0.0
5648,67.0,240.0,240.0,5.0,0.0
5649,66.0,0.0,240.0,5.0,0.0
5650,78.0,96.0,240.0,4.0,0.0
5651,64.0,192.0,240.0,5.0,0.0
5652,76.0,0.0,240.0,4.0,0.0
5653,74.0,0.0,180.0,4.0,0.0
5654,62.0,960.0,180.0,5.0,0.0
5655,73.0,0.0,960.0,4.0,0.0
5656,58.0,0.0,960.0,7.0,0.0
5657,61.0,0.0,960.0,5.0,0.0
5658,46.0,768.0,960.0,8.0,0.0
5659,59.0,0.0,780.0,7.0,0.0
5660,74.0,0.0,780.0,4.0,0.0
5661,66.0,0.0,780.0,2.0,0.0
5662,78.0,912.0,780.0,1.0,0.0
5663,47.0,0.0,780.0,8.0,0.0
5664,62.0,0.0,780.0,5.0,0.0
5665,59.0,384.0,1440.0,2.0,0.0
5666,55.0,0.0,780.0,7.0,0.0
5667,43.0,32.0,780.0,8.0,0.0
5668,76.0,48.0,720.0,1.0,0.0
5669,78.0,80.0,90.0,1.0,0.0
5670,76.0,80.0,90.0,1.0,0.0
5671,75.0,384.0,90.0,1.0,0.0
5672,76.0,96.0,390.0,1.0,0.0
5673,78.0,0.0,390.0,1.0,0.0
5674,63.0,480.0,390.0,2.0,0.0
5675,64.0,0.0,390.0,2.0,0.0
5676,79.0,576.0,390.0,1.0,0.0
5677,43.0,0.0,480.0,8.0,0.0
5678,55.0,480.0,480.0,7.0,0.0
5679,79.0,0.0,480.0,1.0,0.0
5680,64.0,0.0,480.0,2.0,0.0
5681,81.0,0.0,480.0,1.0,0.0
5682,66.0,0.0,480.0,2.0,0.0
5683,42.0,384.0,480.0,8.0,0.0
5684,54.0,0.0,480.0,7.0,0.0
5685,40.0,0.0,390.0,8.0,0.0
5686,52.0,576.0,390.0,7.0,0.0
5687,83.0,0.0,390.0,1.0,0.0
5688,67.0,0.0,390.0,2.0,0.0
5689,78.0,240.0,1440.0,1.0,0.0
5690,45.0,480.0,480.0,8.0,0.0
5691,57.0,0.0,480.0,7.0,0.0
5692,62.0,0.0,1440.0,2.0,0.0
5693,56.0,480.0,480.0,7.0,0.0
5694,44.0,0.0,480.0,8.0,0.0
5695,45.0,0.0,480.0,8.0,0.0
5696,57.0,0.0,480.0,7.0,0.0
5697,56.0,0.0,480.0,7.0,0.0
5698,64.0,0.0,240.0,2.0,0.0
5699,44.0,384.0,480.0,8.0,0.0
5700,79.0,192.0,240.0,1.0,0.0
5701,78.0,0.0,180.0,1.0,0.0
5702,62.0,48.0,180.0,2.0,0.0
5703,61.0,96.0,390.0,2.0,0.0
5704,57.0,0.0,480.0,7.0,0.0
5705,76.0,480.0,480.0,1.0,0.0
5706,45.0,0.0,480.0,8.0,0.0
5707,78.0,480.0,480.0,1.0,0.0
5708,79.0,384.0,480.0,1.0,0.0
5709,80.0,480.0,390.0,1.0,0.0
5710,62.0,288.0,1530.0,3.0,0.0
5711,50.0,0.0,390.0,7.0,0.0
5712,57.0,0.0,3840.0,6.0,0.0
5713,66.0,0.0,960.0,5.0,0.0
5714,38.0,480.0,390.0,8.0,0.0
5715,81.0,0.0,4800.0,1.0,0.0
5716,78.0,384.0,960.0,1.0,0.0
5717,69.0,0.0,4800.0,4.0,0.0
5718,38.0,96.0,390.0,8.0,0.0
5719,50.0,0.0,390.0,7.0,0.0
5720,50.0,0.0,390.0,8.0,0.0
5721,62.0,192.0,390.0,7.0,0.0
5722,77.0,0.0,960.0,1.0,0.0
5723,65.0,384.0,960.0,5.0,0.0
5724,62.0,0.0,390.0,7.0,0.0
5725,50.0,96.0,390.0,8.0,0.0
5726,61.0,480.0,390.0,7.0,0.0
5727,93.0,0.0,2880.0,0.0,0.0
5728,69.0,384.0,2880.0,2.0,0.0
5729,64.0,384.0,960.0,5.0,0.0
5730,49.0,0.0,390.0,8.0,0.0
5731,76.0,0.0,960.0,1.0,0.0
5732,57.0,288.0,1530.0,3.0,0.0
5733,49.0,0.0,390.0,8.0,0.0
5734,61.0,96.0,390.0,7.0,0.0
5735,63.0,0.0,960.0,5.0,0.0
5736,60.0,0.0,390.0,7.0,0.0
5737,75.0,384.0,960.0,1.0,0.0
5738,48.0,192.0,390.0,8.0,0.0
5739,60.0,96.0,390.0,7.0,0.0
5740,48.0,0.0,390.0,8.0,0.0
5741,50.0,96.0,2700.0,3.0,0.0
5742,47.0,0.0,390.0,8.0,0.0
5743,59.0,480.0,390.0,7.0,0.0
5744,62.0,384.0,2880.0,2.0,0.0
5745,59.0,96.0,870.0,6.0,0.0
5746,62.0,0.0,2880.0,5.0,0.0
5747,74.0,0.0,2880.0,1.0,0.0
5748,59.0,0.0,390.0,7.0,0.0
5749,47.0,0.0,390.0,8.0,0.0
5750,92.0,0.0,960.0,0.0,0.0
5751,47.0,0.0,390.0,8.0,0.0
5752,59.0,336.0,390.0,7.0,0.0
5753,68.0,384.0,960.0,4.0,0.0
5754,68.0,0.0,960.0,2.0,0.0
5755,59.0,144.0,720.0,6.0,0.0
5756,80.0,0.0,960.0,1.0,0.0
5757,59.0,0.0,390.0,7.0,0.0
5758,47.0,96.0,390.0,8.0,0.0
5759,61.0,0.0,240.0,6.0,0.0
5760,62.0,0.0,960.0,6.0,0.0
5761,46.0,384.0,390.0,8.0,0.0
5762,91.0,0.0,960.0,0.0,0.0
5763,67.0,0.0,960.0,2.0,0.0
5764,79.0,0.0,960.0,1.0,0.0
5765,67.0,0.0,960.0,4.0,0.0
5766,58.0,0.0,390.0,7.0,0.0
5767,58.0,0.0,390.0,7.0,0.0
5768,46.0,96.0,390.0,8.0,0.0
5769,66.0,0.0,780.0,2.0,0.0
5770,78.0,0.0,780.0,1.0,0.0
5771,63.0,0.0,780.0,5.0,0.0
5772,75.0,0.0,780.0,1.0,0.0
5773,63.0,0.0,780.0,2.0,0.0
5774,60.0,0.0,780.0,6.0,0.0
5775,66.0,0.0,780.0,4.0,0.0
5776,57.0,384.0,390.0,7.0,0.0
5777,90.0,96.0,780.0,0.0,0.0
5778,45.0,0.0,390.0,8.0,0.0
5779,45.0,0.0,390.0,8.0,0.0
5780,57.0,480.0,390.0,7.0,0.0
5781,43.0,0.0,390.0,8.0,0.0
5782,64.0,0.0,1920.0,2.0,0.0
5783,76.0,96.0,1440.0,1.0,0.0
5784,59.0,144.0,1530.0,6.0,0.0
5785,67.0,0.0,1920.0,2.0,0.0
5786,79.0,0.0,1440.0,1.0,0.0
5787,55.0,480.0,390.0,7.0,0.0
5788,64.0,0.0,1440.0,5.0,0.0
5789,91.0,384.0,1920.0,0.0,0.0
5790,67.0,0.0,1440.0,4.0,0.0
5791,43.0,480.0,390.0,8.0,0.0
5792,55.0,0.0,390.0,7.0,0.0
5793,43.0,96.0,390.0,8.0,0.0
5794,55.0,0.0,390.0,7.0,0.0
5795,66.0,0.0,240.0,5.0,0.0
5796,43.0,0.0,390.0,8.0,0.0
5797,55.0,48.0,390.0,7.0,0.0
5798,81.0,0.0,240.0,1.0,0.0
5799,78.0,0.0,240.0,1.0,0.0
5800,69.0,144.0,240.0,4.0,0.0
5801,83.0,0.0,180.0,1.0,0.0
5802,67.0,48.0,180.0,5.0,0.0
5803,79.0,0.0,180.0,1.0,0.0
5804,71.0,0.0,180.0,4.0,0.0
5805,62.0,0.0,720.0,2.0,0.0
5806,62.0,0.0,570.0,5.0,0.0
5807,57.0,96.0,630.0,6.0,0.0
5808,66.0,144.0,720.0,2.0,0.0
5809,66.0,48.0,570.0,4.0,0.0
5810,90.0,0.0,720.0,0.0,0.0
5811,45.0,0.0,390.0,8.0,0.0
5812,57.0,192.0,390.0,7.0,0.0
5813,78.0,0.0,720.0,1.0,0.0
5814,74.0,0.0,720.0,1.0,0.0
5815,57.0,0.0,390.0,7.0,0.0
5816,45.0,480.0,390.0,8.0,0.0
5817,88.0,144.0,720.0,0.0,0.0
5818,61.0,0.0,720.0,2.0,0.0
5819,64.0,0.0,720.0,2.0,0.0
5820,55.0,96.0,630.0,6.0,0.0
5821,64.0,48.0,570.0,4.0,0.0
5822,73.0,0.0,720.0,1.0,0.0
5823,76.0,0.0,720.0,1.0,0.0
5824,45.0,0.0,390.0,7.0,0.0
5825,33.0,192.0,390.0,8.0,0.0
5826,61.0,0.0,570.0,5.0,0.0
5827,45.0,0.0,390.0,7.0,0.0
5828,33.0,288.0,390.0,8.0,0.0
5829,74.0,0.0,780.0,1.0,0.0
5830,62.0,240.0,180.0,4.0,0.0
5831,38.0,0.0,780.0,8.0,0.0
5832,62.0,0.0,780.0,2.0,0.0
5833,62.0,0.0,180.0,5.0,0.0
5834,54.0,0.0,780.0,6.0,0.0
5835,86.0,0.0,780.0,0.0,0.0
5836,50.0,144.0,780.0,7.0,0.0
5837,81.0,240.0,180.0,5.0,0.0
5838,81.0,0.0,180.0,4.0,0.0
5839,81.0,96.0,180.0,4.0,0.0
5840,81.0,0.0,180.0,5.0,0.0
5841,81.0,240.0,180.0,5.0,0.0
5842,81.0,0.0,180.0,4.0,0.0
5843,81.0,0.0,180.0,5.0,0.0
5844,81.0,240.0,180.0,4.0,0.0
5845,81.0,0.0,180.0,5.0,0.0
5846,81.0,240.0,180.0,4.0,0.0
5847,81.0,0.0,180.0,4.0,0.0
5848,81.0,240.0,180.0,5.0,0.0
5849,81.0,0.0,180.0,4.0,0.0
5850,81.0,288.0,180.0,5.0,0.0
5851,86.0,0.0,240.0,5.0,0.0
5852,69.0,96.0,300.0,3.0,0.0
5853,86.0,48.0,240.0,4.0,0.0
5854,62.0,0.0,300.0,2.0,0.0
5855,90.0,0.0,300.0,0.0,0.0
5856,54.0,0.0,390.0,8.0,0.0
5857,86.0,0.0,300.0,1.0,0.0
5858,66.0,0.0,390.0,7.0,0.0
5859,78.0,0.0,300.0,1.0,0.0
5860,66.0,240.0,390.0,6.0,0.0
5861,66.0,0.0,300.0,2.0,0.0
5862,90.0,0.0,150.0,5.0,0.0
5863,90.0,0.0,150.0,4.0,0.0
5864,64.0,96.0,300.0,2.0,0.0
5865,61.0,0.0,300.0,2.0,0.0
5866,88.0,0.0,150.0,5.0,0.0
5867,67.0,0.0,390.0,7.0,0.0
5868,88.0,144.0,150.0,4.0,0.0
5869,88.0,0.0,300.0,0.0,0.0
5870,55.0,0.0,390.0,8.0,0.0
5871,69.0,0.0,300.0,3.0,0.0
5872,85.0,0.0,300.0,1.0,0.0
5873,76.0,0.0,300.0,1.0,0.0
5874,67.0,336.0,390.0,6.0,0.0
5875,85.0,0.0,150.0,5.0,0.0
5876,85.0,0.0,150.0,4.0,0.0
5877,86.0,0.0,300.0,1.0,0.0
5878,78.0,96.0,300.0,1.0,0.0
5879,54.0,0.0,390.0,8.0,0.0
5880,69.0,0.0,300.0,3.0,0.0
5881,62.0,0.0,300.0,2.0,0.0
5882,66.0,240.0,390.0,7.0,0.0
5883,86.0,0.0,240.0,4.0,0.0
5884,66.0,0.0,300.0,2.0,0.0
5885,90.0,0.0,300.0,0.0,0.0
5886,86.0,48.0,240.0,5.0,0.0
5887,66.0,0.0,390.0,6.0,0.0
5888,90.0,0.0,150.0,5.0,0.0
5889,90.0,0.0,150.0,4.0,0.0
5890,69.0,0.0,300.0,3.0,0.0
5891,61.0,0.0,300.0,2.0,0.0
5892,64.0,0.0,300.0,2.0,0.0
5893,55.0,0.0,390.0,8.0,0.0
5894,88.0,0.0,150.0,5.0,0.0
5895,85.0,0.0,300.0,1.0,0.0
5896,76.0,0.0,300.0,1.0,0.0
5897,88.0,96.0,300.0,0.0,0.0
5898,88.0,144.0,150.0,4.0,0.0
5899,67.0,0.0,390.0,6.0,0.0
5900,67.0,0.0,390.0,7.0,0.0
5901,85.0,288.0,150.0,5.0,0.0
5902,85.0,0.0,150.0,4.0,0.0
5903,69.0,0.0,780.0,3.0,0.0
5904,66.0,0.0,780.0,7.0,0.0
5905,54.0,0.0,780.0,8.0,0.0
5906,86.0,240.0,180.0,5.0,0.0
5907,78.0,0.0,780.0,1.0,0.0
5908,66.0,0.0,780.0,6.0,0.0
5909,86.0,0.0,780.0,1.0,0.0
5910,86.0,0.0,180.0,4.0,0.0
5911,90.0,0.0,780.0,0.0,0.0
5912,66.0,0.0,780.0,2.0,0.0
5913,62.0,144.0,780.0,2.0,0.0
5914,81.0,240.0,180.0,5.0,0.0
5915,81.0,0.0,180.0,4.0,0.0
5916,81.0,0.0,180.0,4.0,0.0
5917,81.0,96.0,180.0,5.0,0.0
5918,81.0,240.0,180.0,4.0,0.0
5919,81.0,0.0,180.0,5.0,0.0
5920,81.0,240.0,180.0,4.0,0.0
5921,81.0,0.0,180.0,5.0,0.0
5922,81.0,0.0,180.0,5.0,0.0
5923,81.0,240.0,180.0,4.0,0.0
5924,81.0,0.0,180.0,5.0,0.0
5925,81.0,240.0,180.0,4.0,0.0
5926,81.0,288.0,180.0,5.0,0.0
5927,81.0,0.0,180.0,4.0,0.0
5928,86.0,96.0,300.0,1.0,0.0
5929,62.0,0.0,300.0,2.0,0.0
5930,86.0,0.0,240.0,5.0,0.0
5931,66.0,240.0,390.0,7.0,0.0
5932,69.0,0.0,300.0,3.0,0.0
5933,54.0,0.0,390.0,8.0,0.0
5934,90.0,0.0,300.0,0.0,0.0
5935,66.0,0.0,300.0,2.0,0.0
5936,66.0,0.0,390.0,6.0,0.0
5937,78.0,0.0,300.0,1.0,0.0
5938,86.0,48.0,240.0,4.0,0.0
5939,90.0,0.0,150.0,5.0,0.0
5940,90.0,0.0,150.0,4.0,0.0
5941,55.0,336.0,390.0,8.0,0.0
5942,88.0,144.0,150.0,4.0,0.0
5943,76.0,0.0,300.0,1.0,0.0
5944,61.0,0.0,300.0,2.0,0.0
5945,64.0,0.0,300.0,2.0,0.0
5946,69.0,0.0,300.0,3.0,0.0
5947,67.0,0.0,390.0,6.0,0.0
5948,85.0,96.0,300.0,1.0,0.0
5949,88.0,0.0,300.0,0.0,0.0
5950,67.0,0.0,390.0,7.0,0.0
5951,88.0,0.0,150.0,5.0,0.0
5952,85.0,0.0,150.0,5.0,0.0
5953,85.0,0.0,150.0,4.0,0.0
5954,86.0,0.0,300.0,1.0,0.0
5955,86.0,48.0,240.0,4.0,0.0
5956,66.0,0.0,300.0,2.0,0.0
5957,62.0,0.0,300.0,2.0,0.0
5958,69.0,0.0,300.0,3.0,0.0
5959,78.0,0.0,300.0,1.0,0.0
5960,66.0,240.0,390.0,6.0,0.0
5961,86.0,0.0,240.0,5.0,0.0
5962,66.0,0.0,390.0,7.0,0.0
5963,54.0,0.0,390.0,8.0,0.0
5964,90.0,96.0,300.0,0.0,0.0
5965,90.0,0.0,150.0,5.0,0.0
5966,90.0,0.0,150.0,4.0,0.0
5967,69.0,0.0,300.0,3.0,0.0
5968,88.0,0.0,150.0,5.0,0.0
5969,64.0,96.0,300.0,2.0,0.0
5970,88.0,144.0,150.0,4.0,0.0
5971,55.0,0.0,390.0,8.0,0.0
5972,61.0,0.0,300.0,2.0,0.0
5973,67.0,288.0,390.0,7.0,0.0
5974,88.0,0.0,300.0,0.0,0.0
5975,85.0,0.0,300.0,1.0,0.0
5976,67.0,0.0,390.0,6.0,0.0
5977,76.0,0.0,300.0,1.0,0.0
5978,85.0,0.0,150.0,4.0,0.0
5979,85.0,0.0,150.0,5.0,0.0
5980,78.0,0.0,780.0,1.0,0.0
5981,86.0,0.0,780.0,1.0,0.0
5982,54.0,0.0,780.0,8.0,0.0
5983,66.0,0.0,780.0,7.0,0.0
5984,86.0,240.0,180.0,5.0,0.0
5985,69.0,0.0,780.0,3.0,0.0
5986,66.0,0.0,780.0,6.0,0.0
5987,86.0,0.0,180.0,4.0,0.0
5988,62.0,0.0,780.0,2.0,0.0
5989,66.0,0.0,780.0,2.0,0.0
5990,90.0,144.0,780.0,0.0,0.0
5991,81.0,240.0,180.0,5.0,0.0
5992,81.0,0.0,180.0,4.0,0.0
5993,81.0,0.0,180.0,4.0,0.0
5994,81.0,96.0,180.0,5.0,0.0
5995,81.0,240.0,180.0,4.0,0.0
5996,81.0,0.0,180.0,5.0,0.0
5997,81.0,0.0,180.0,5.0,0.0
5998,81.0,240.0,180.0,4.0,0.0
5999,81.0,240.0,180.0,4.0,0.0
6000,81.0,0.0,180.0,5.0,0.0
6001,81.0,240.0,180.0,4.0,0.0
6002,81.0,0.0,180.0,5.0,0.0
6003,81.0,288.0,180.0,4.0,0.0
6004,81.0,0.0,180.0,5.0,0.0
6005,69.0,0.0,300.0,3.0,0.0
6006,54.0,0.0,390.0,8.0,0.0
6007,66.0,0.0,390.0,6.0,0.0
6008,86.0,48.0,240.0,5.0,0.0
6009,62.0,0.0,300.0,2.0,0.0
6010,66.0,0.0,300.0,2.0,0.0
6011,86.0,0.0,300.0,1.0,0.0
6012,66.0,240.0,390.0,7.0,0.0
6013,90.0,96.0,300.0,0.0,0.0
6014,78.0,0.0,300.0,1.0,0.0
6015,86.0,0.0,240.0,4.0,0.0
6016,90.0,0.0,150.0,5.0,0.0
6017,90.0,0.0,150.0,4.0,0.0
6018,55.0,0.0,390.0,8.0,0.0
6019,67.0,0.0,390.0,7.0,0.0
6020,64.0,0.0,300.0,2.0,0.0
6021,85.0,96.0,300.0,1.0,0.0
6022,61.0,0.0,300.0,2.0,0.0
6023,69.0,0.0,300.0,3.0,0.0
6024,88.0,0.0,150.0,5.0,0.0
6025,88.0,144.0,150.0,4.0,0.0
6026,67.0,0.0,390.0,6.0,0.0
6027,76.0,0.0,300.0,1.0,0.0
6028,88.0,0.0,300.0,0.0,0.0
6029,85.0,0.0,150.0,5.0,0.0
6030,85.0,336.0,150.0,4.0,0.0
6031,78.0,0.0,300.0,1.0,0.0
6032,69.0,0.0,300.0,3.0,0.0
6033,54.0,0.0,390.0,8.0,0.0
6034,66.0,0.0,390.0,7.0,0.0
6035,62.0,0.0,300.0,2.0,0.0
6036,86.0,96.0,300.0,1.0,0.0
6037,66.0,0.0,300.0,2.0,0.0
6038,86.0,0.0,240.0,5.0,0.0
6039,90.0,0.0,300.0,0.0,0.0
6040,66.0,0.0,390.0,6.0,0.0
6041,86.0,48.0,240.0,4.0,0.0
6042,90.0,0.0,150.0,4.0,0.0
6043,90.0,240.0,150.0,5.0,0.0
6044,88.0,0.0,300.0,0.0,0.0
6045,67.0,0.0,390.0,7.0,0.0
6046,88.0,0.0,150.0,5.0,0.0
6047,67.0,288.0,390.0,6.0,0.0
6048,61.0,0.0,300.0,2.0,0.0
6049,85.0,0.0,300.0,1.0,0.0
6050,55.0,0.0,390.0,8.0,0.0
6051,88.0,144.0,150.0,4.0,0.0
6052,69.0,0.0,300.0,3.0,0.0
6053,76.0,96.0,300.0,1.0,0.0
6054,64.0,0.0,300.0,2.0,0.0
6055,85.0,0.0,150.0,4.0,0.0
6056,85.0,0.0,150.0,5.0,0.0
6057,62.0,0.0,780.0,2.0,0.0
6058,66.0,144.0,780.0,2.0,0.0
6059,54.0,0.0,390.0,8.0,0.0
6060,78.0,0.0,780.0,1.0,0.0
6061,86.0,0.0,780.0,1.0,0.0
6062,66.0,0.0,390.0,7.0,0.0
6063,66.0,0.0,390.0,6.0,0.0
6064,74.0,48.0,390.0,3.0,0.0
6065,86.0,0.0,180.0,5.0,0.0
6066,86.0,192.0,180.0,4.0,0.0
6067,93.0,0.0,780.0,0.0,0.0
6068,81.0,240.0,180.0,5.0,0.0
6069,81.0,0.0,180.0,4.0,0.0
6070,81.0,96.0,180.0,4.0,0.0
6071,81.0,0.0,180.0,5.0,0.0
6072,81.0,240.0,180.0,5.0,0.0
6073,81.0,0.0,180.0,4.0,0.0
6074,91.0,0.0,780.0,0.0,0.0
6075,83.0,192.0,180.0,5.0,0.0
6076,83.0,0.0,180.0,4.0,0.0
6077,62.0,0.0,390.0,3.0,0.0
6078,67.0,0.0,390.0,6.0,0.0
6079,67.0,48.0,390.0,7.0,0.0
6080,67.0,0.0,780.0,2.0,0.0
6081,55.0,0.0,390.0,8.0,0.0
6082,71.0,0.0,780.0,2.0,0.0
6083,83.0,144.0,780.0,1.0,0.0
6084,88.0,0.0,780.0,1.0,0.0
6085,79.0,0.0,180.0,5.0,0.0
6086,79.0,240.0,180.0,4.0,0.0
6087,79.0,96.0,180.0,4.0,0.0
6088,79.0,0.0,180.0,5.0,0.0
6089,79.0,0.0,180.0,5.0,0.0
6090,79.0,240.0,180.0,4.0,0.0
6091,86.0,0.0,780.0,1.0,0.0
6092,66.0,0.0,780.0,2.0,0.0
6093,69.0,0.0,780.0,2.0,0.0
6094,78.0,0.0,180.0,4.0,0.0
6095,90.0,144.0,780.0,0.0,0.0
6096,57.0,0.0,390.0,8.0,0.0
6097,69.0,0.0,390.0,3.0,0.0
6098,69.0,0.0,390.0,6.0,0.0
6099,78.0,192.0,180.0,5.0,0.0
6100,81.0,0.0,780.0,1.0,0.0
6101,69.0,48.0,390.0,7.0,0.0
6102,74.0,0.0,180.0,5.0,0.0
6103,74.0,240.0,180.0,4.0,0.0
6104,74.0,0.0,180.0,4.0,0.0
6105,74.0,96.0,180.0,5.0,0.0
6106,74.0,240.0,180.0,4.0,0.0
6107,74.0,0.0,180.0,5.0,0.0
6108,81.0,192.0,180.0,5.0,0.0
6109,81.0,0.0,180.0,4.0,0.0
6110,45.0,48.0,390.0,8.0,0.0
6111,69.0,0.0,390.0,3.0,0.0
6112,57.0,0.0,390.0,7.0,0.0
6113,88.0,0.0,780.0,0.0,0.0
6114,79.0,0.0,780.0,1.0,0.0
6115,64.0,144.0,780.0,2.0,0.0
6116,57.0,0.0,390.0,6.0,0.0
6117,85.0,0.0,780.0,1.0,0.0
6118,67.0,0.0,780.0,2.0,0.0
6119,73.0,0.0,180.0,4.0,0.0
6120,73.0,240.0,180.0,5.0,0.0
6121,73.0,0.0,180.0,5.0,0.0
6122,73.0,96.0,180.0,4.0,0.0
6123,73.0,192.0,180.0,4.0,0.0
6124,73.0,0.0,180.0,5.0,0.0
6125,62.0,0.0,390.0,7.0,0.0
6126,86.0,0.0,390.0,0.0,0.0
6127,74.0,240.0,150.0,4.0,0.0
6128,62.0,0.0,390.0,3.0,0.0
6129,66.0,0.0,390.0,2.0,0.0
6130,62.0,0.0,390.0,2.0,0.0
6131,50.0,96.0,390.0,8.0,0.0
6132,86.0,0.0,390.0,1.0,0.0
6133,74.0,0.0,390.0,5.0,0.0
6134,78.0,0.0,390.0,1.0,0.0
6135,62.0,0.0,390.0,6.0,0.0
6136,69.0,240.0,240.0,4.0,0.0
6137,68.0,240.0,240.0,4.0,0.0
6138,69.0,240.0,240.0,4.0,0.0
6139,68.0,240.0,240.0,4.0,0.0
6140,69.0,240.0,240.0,4.0,0.0
6141,71.0,192.0,240.0,4.0,0.0
6142,69.0,288.0,180.0,4.0,0.0
6143,57.0,0.0,390.0,6.0,0.0
6144,62.0,144.0,240.0,5.0,0.0
6145,54.0,0.0,390.0,7.0,0.0
6146,74.0,0.0,240.0,4.0,0.0
6147,42.0,0.0,390.0,8.0,0.0
6148,78.0,240.0,150.0,4.0,0.0
6149,66.0,0.0,150.0,5.0,0.0
6150,64.0,240.0,150.0,5.0,0.0
6151,43.0,0.0,390.0,8.0,0.0
6152,55.0,0.0,390.0,7.0,0.0
6153,76.0,0.0,150.0,4.0,0.0
6154,57.0,96.0,780.0,6.0,0.0
6155,73.0,0.0,150.0,4.0,0.0
6156,61.0,336.0,150.0,5.0,0.0
6157,74.0,48.0,240.0,4.0,0.0
6158,62.0,0.0,240.0,5.0,0.0
6159,54.0,240.0,390.0,7.0,0.0
6160,42.0,0.0,390.0,8.0,0.0
6161,78.0,0.0,150.0,4.0,0.0
6162,66.0,0.0,150.0,5.0,0.0
6163,43.0,240.0,390.0,8.0,0.0
6164,57.0,0.0,870.0,6.0,0.0
6165,76.0,240.0,150.0,4.0,0.0
6166,55.0,0.0,390.0,7.0,0.0
6167,64.0,0.0,150.0,5.0,0.0
6168,61.0,0.0,150.0,5.0,0.0
6169,73.0,0.0,150.0,4.0,0.0
6170,62.0,0.0,150.0,5.0,0.0
6171,42.0,96.0,390.0,8.0,0.0
6172,54.0,0.0,390.0,7.0,0.0
6173,74.0,240.0,150.0,4.0,0.0
6174,69.0,0.0,240.0,5.0,0.0
6175,81.0,240.0,240.0,4.0,0.0
6176,68.0,0.0,240.0,5.0,0.0
6177,80.0,240.0,240.0,4.0,0.0
6178,81.0,240.0,240.0,4.0,0.0
6179,69.0,0.0,240.0,5.0,0.0
6180,68.0,0.0,240.0,5.0,0.0
6181,80.0,240.0,240.0,4.0,0.0
6182,69.0,0.0,240.0,5.0,0.0
6183,81.0,240.0,240.0,4.0,0.0
6184,71.0,0.0,240.0,5.0,0.0
6185,83.0,192.0,240.0,4.0,0.0
6186,69.0,0.0,180.0,5.0,0.0
6187,81.0,288.0,180.0,4.0,0.0
6188,54.0,0.0,390.0,7.0,0.0
6189,74.0,0.0,240.0,4.0,0.0
6190,62.0,144.0,240.0,5.0,0.0
6191,42.0,0.0,390.0,8.0,0.0
6192,57.0,0.0,390.0,6.0,0.0
6193,78.0,240.0,150.0,4.0,0.0
6194,66.0,0.0,150.0,5.0,0.0
6195,76.0,240.0,150.0,4.0,0.0
6196,57.0,96.0,780.0,6.0,0.0
6197,55.0,0.0,390.0,7.0,0.0
6198,64.0,0.0,150.0,5.0,0.0
6199,43.0,0.0,390.0,8.0,0.0
6200,73.0,336.0,150.0,4.0,0.0
6201,61.0,0.0,150.0,5.0,0.0
6202,74.0,0.0,240.0,4.0,0.0
6203,62.0,48.0,240.0,5.0,0.0
6204,42.0,0.0,390.0,8.0,0.0
6205,54.0,0.0,390.0,7.0,0.0
6206,66.0,0.0,150.0,5.0,0.0
6207,78.0,240.0,150.0,4.0,0.0
6208,55.0,0.0,390.0,7.0,0.0
6209,43.0,240.0,390.0,8.0,0.0
6210,64.0,0.0,150.0,5.0,0.0
6211,76.0,240.0,150.0,4.0,0.0
6212,57.0,0.0,870.0,6.0,0.0
6213,61.0,0.0,150.0,5.0,0.0
6214,73.0,0.0,150.0,4.0,0.0
6215,42.0,0.0,390.0,8.0,0.0
6216,74.0,240.0,150.0,4.0,0.0
6217,62.0,96.0,390.0,5.0,0.0
6218,54.0,0.0,390.0,7.0,0.0
6219,69.0,240.0,240.0,4.0,0.0
6220,68.0,240.0,240.0,4.0,0.0
6221,69.0,240.0,240.0,4.0,0.0
6222,68.0,240.0,240.0,4.0,0.0
6223,69.0,240.0,240.0,4.0,0.0
6224,71.0,192.0,240.0,4.0,0.0
6225,69.0,240.0,180.0,4.0,0.0
6226,74.0,96.0,180.0,5.0,0.0
6227,62.0,96.0,300.0,2.0,0.0
6228,90.0,0.0,300.0,0.0,0.0
6229,86.0,0.0,300.0,1.0,0.0
6230,54.0,48.0,390.0,8.0,0.0
6231,69.0,0.0,300.0,3.0,0.0
6232,66.0,0.0,300.0,2.0,0.0
6233,78.0,0.0,300.0,1.0,0.0
6234,66.0,0.0,390.0,6.0,0.0
6235,66.0,0.0,390.0,7.0,0.0
6236,81.0,0.0,180.0,4.0,0.0
6237,81.0,240.0,180.0,4.0,0.0
6238,78.0,0.0,180.0,5.0,0.0
6239,64.0,0.0,300.0,2.0,0.0
6240,69.0,96.0,300.0,3.0,0.0
6241,61.0,0.0,300.0,2.0,0.0
6242,76.0,96.0,180.0,5.0,0.0
6243,67.0,0.0,390.0,6.0,0.0
6244,88.0,0.0,300.0,0.0,0.0
6245,55.0,48.0,390.0,8.0,0.0
6246,67.0,0.0,390.0,7.0,0.0
6247,76.0,0.0,300.0,1.0,0.0
6248,85.0,0.0,300.0,1.0,0.0
6249,81.0,0.0,180.0,4.0,0.0
6250,81.0,240.0,180.0,4.0,0.0
6251,73.0,0.0,180.0,5.0,0.0
6252,78.0,0.0,300.0,1.0,0.0
6253,86.0,0.0,300.0,1.0,0.0
6254,66.0,96.0,300.0,2.0,0.0
6255,62.0,0.0,300.0,2.0,0.0
6256,74.0,96.0,180.0,5.0,0.0
6257,66.0,48.0,390.0,6.0,0.0
6258,66.0,0.0,390.0,7.0,0.0
6259,69.0,0.0,300.0,3.0,0.0
6260,81.0,0.0,180.0,4.0,0.0
6261,54.0,0.0,390.0,8.0,0.0
6262,90.0,0.0,300.0,0.0,0.0
6263,78.0,240.0,180.0,5.0,0.0
6264,81.0,0.0,180.0,4.0,0.0
6265,55.0,48.0,390.0,8.0,0.0
6266,76.0,0.0,300.0,1.0,0.0
6267,69.0,0.0,300.0,3.0,0.0
6268,76.0,0.0,180.0,5.0,0.0
6269,67.0,0.0,390.0,7.0,0.0
6270,81.0,96.0,180.0,4.0,0.0
6271,85.0,0.0,300.0,1.0,0.0
6272,67.0,0.0,390.0,6.0,0.0
6273,61.0,96.0,300.0,2.0,0.0
6274,64.0,0.0,300.0,2.0,0.0
6275,88.0,0.0,300.0,0.0,0.0
6276,81.0,0.0,180.0,4.0,0.0
6277,73.0,240.0,180.0,5.0,0.0
6278,66.0,96.0,780.0,2.0,0.0
6279,66.0,0.0,390.0,7.0,0.0
6280,93.0,0.0,780.0,0.0,0.0
6281,62.0,0.0,780.0,2.0,0.0
6282,66.0,0.0,390.0,6.0,0.0
6283,81.0,0.0,180.0,4.0,0.0
6284,54.0,48.0,390.0,8.0,0.0
6285,81.0,192.0,180.0,5.0,0.0
6286,78.0,0.0,780.0,1.0,0.0
6287,86.0,0.0,780.0,1.0,0.0
6288,74.0,0.0,390.0,3.0,0.0
6289,86.0,0.0,180.0,4.0,0.0
6290,86.0,240.0,180.0,5.0,0.0
6291,54.0,0.0,390.0,8.0,0.0
6292,86.0,0.0,180.0,4.0,0.0
6293,66.0,48.0,390.0,6.0,0.0
6294,66.0,0.0,390.0,7.0,0.0
6295,86.0,96.0,180.0,5.0,0.0
6296,86.0,240.0,180.0,5.0,0.0
6297,86.0,0.0,180.0,4.0,0.0
6298,55.0,0.0,390.0,8.0,0.0
6299,91.0,96.0,780.0,0.0,0.0
6300,76.0,0.0,180.0,5.0,0.0
6301,67.0,0.0,780.0,2.0,0.0
6302,67.0,48.0,390.0,7.0,0.0
6303,88.0,0.0,780.0,1.0,0.0
6304,83.0,0.0,780.0,1.0,0.0
6305,71.0,0.0,780.0,2.0,0.0
6306,62.0,0.0,390.0,3.0,0.0
6307,67.0,0.0,390.0,6.0,0.0
6308,76.0,192.0,180.0,4.0,0.0
6309,83.0,240.0,180.0,5.0,0.0
6310,83.0,0.0,180.0,4.0,0.0
6311,83.0,96.0,180.0,5.0,0.0
6312,83.0,0.0,180.0,4.0,0.0
6313,67.0,0.0,390.0,6.0,0.0
6314,67.0,48.0,390.0,7.0,0.0
6315,55.0,0.0,390.0,8.0,0.0
6316,83.0,240.0,180.0,4.0,0.0
6317,83.0,0.0,180.0,5.0,0.0
6318,81.0,0.0,780.0,1.0,0.0
6319,57.0,0.0,390.0,8.0,0.0
6320,86.0,0.0,780.0,1.0,0.0
6321,69.0,0.0,390.0,6.0,0.0
6322,69.0,0.0,390.0,3.0,0.0
6323,81.0,192.0,180.0,4.0,0.0
6324,90.0,0.0,780.0,0.0,0.0
6325,66.0,96.0,780.0,2.0,0.0
6326,81.0,0.0,180.0,5.0,0.0
6327,69.0,0.0,780.0,2.0,0.0
6328,69.0,48.0,390.0,7.0,0.0
6329,78.0,0.0,180.0,5.0,0.0
6330,78.0,240.0,180.0,4.0,0.0
6331,78.0,96.0,180.0,5.0,0.0
6332,57.0,48.0,390.0,8.0,0.0
6333,69.0,0.0,390.0,6.0,0.0
6334,69.0,0.0,390.0,7.0,0.0
6335,78.0,0.0,180.0,4.0,0.0
6336,78.0,0.0,180.0,4.0,0.0
6337,78.0,240.0,180.0,5.0,0.0
6338,69.0,0.0,390.0,3.0,0.0
6339,64.0,0.0,780.0,2.0,0.0
6340,81.0,192.0,180.0,5.0,0.0
6341,79.0,0.0,780.0,1.0,0.0
6342,67.0,0.0,780.0,2.0,0.0
6343,57.0,0.0,390.0,7.0,0.0
6344,45.0,0.0,390.0,8.0,0.0
6345,81.0,0.0,180.0,4.0,0.0
6346,85.0,96.0,780.0,1.0,0.0
6347,57.0,48.0,390.0,6.0,0.0
6348,88.0,0.0,780.0,0.0,0.0
6349,73.0,240.0,180.0,5.0,0.0
6350,73.0,0.0,180.0,4.0,0.0
6351,73.0,96.0,180.0,5.0,0.0
6352,57.0,0.0,390.0,7.0,0.0
6353,57.0,0.0,390.0,6.0,0.0
6354,45.0,48.0,390.0,8.0,0.0
6355,73.0,0.0,180.0,4.0,0.0
6356,73.0,0.0,180.0,4.0,0.0
6357,73.0,228.0,180.0,5.0,0.0
6358,78.0,96.0,300.0,1.0,0.0
6359,66.0,0.0,780.0,2.0,0.0
6360,86.0,0.0,780.0,1.0,0.0
6361,62.0,0.0,780.0,2.0,0.0
6362,66.0,0.0,780.0,3.0,0.0
6363,74.0,36.0,390.0,5.0,0.0
6364,86.0,0.0,780.0,0.0,0.0
6365,38.0,0.0,180.0,8.0,0.0
6366,50.0,108.0,180.0,7.0,0.0
6367,62.0,0.0,390.0,6.0,0.0
6368,74.0,0.0,780.0,4.0,0.0
6369,40.0,0.0,180.0,8.0,0.0
6370,52.0,240.0,180.0,7.0,0.0
6371,74.0,0.0,780.0,6.0,0.0
6372,54.0,0.0,180.0,7.0,0.0
6373,78.0,0.0,780.0,5.0,0.0
6374,69.0,0.0,780.0,5.0,0.0
6375,62.0,132.0,300.0,3.0,0.0
6376,74.0,0.0,300.0,1.0,0.0
6377,42.0,108.0,180.0,8.0,0.0
6378,55.0,0.0,180.0,7.0,0.0
6379,43.0,240.0,180.0,8.0,0.0
6380,69.0,0.0,300.0,3.0,0.0
6381,57.0,108.0,180.0,7.0,0.0
6382,81.0,132.0,300.0,1.0,0.0
6383,45.0,0.0,180.0,8.0,0.0
6384,47.0,240.0,180.0,8.0,0.0
6385,59.0,0.0,180.0,7.0,0.0
6386,78.0,36.0,390.0,5.0,0.0
6387,66.0,0.0,300.0,2.0,0.0
6388,78.0,0.0,300.0,1.0,0.0
6389,81.0,96.0,300.0,1.0,0.0
6390,86.0,0.0,300.0,0.0,0.0
6391,62.0,0.0,300.0,2.0,0.0
6392,69.0,0.0,390.0,5.0,0.0
6393,69.0,0.0,300.0,3.0,0.0
6394,61.0,0.0,180.0,7.0,0.0
6395,49.0,12.0,180.0,8.0,0.0
6396,74.0,96.0,180.0,6.0,0.0
6397,86.0,240.0,180.0,4.0,0.0
6398,74.0,0.0,180.0,6.0,0.0
6399,62.0,12.0,180.0,7.0,0.0
6400,50.0,0.0,180.0,8.0,0.0
6401,85.0,0.0,180.0,4.0,0.0
6402,57.0,144.0,780.0,7.0,0.0
6403,59.0,144.0,300.0,2.0,0.0
6404,69.0,96.0,1140.0,3.0,0.0
6405,76.0,96.0,180.0,6.0,0.0
6406,64.0,0.0,300.0,2.0,0.0
6407,45.0,0.0,780.0,8.0,0.0
6408,79.0,0.0,180.0,5.0,0.0
6409,81.0,0.0,1260.0,1.0,0.0
6410,76.0,0.0,300.0,1.0,0.0
6411,69.0,0.0,180.0,5.0,0.0
6412,85.0,0.0,300.0,0.0,0.0
6413,88.0,240.0,180.0,4.0,0.0
6414,69.0,0.0,180.0,5.0,0.0
6415,79.0,0.0,180.0,5.0,0.0
6416,76.0,0.0,180.0,6.0,0.0
6417,81.0,0.0,300.0,0.0,0.0
6418,61.0,0.0,300.0,2.0,0.0
6419,57.0,0.0,300.0,2.0,0.0
6420,76.0,0.0,180.0,6.0,0.0
6421,73.0,0.0,300.0,1.0,0.0
6422,91.0,0.0,180.0,4.0,0.0
6423,79.0,96.0,180.0,5.0,0.0
6424,69.0,0.0,180.0,5.0,0.0
6425,69.0,0.0,180.0,5.0,0.0
6426,79.0,0.0,180.0,5.0,0.0
6427,88.0,240.0,180.0,4.0,0.0
6428,76.0,0.0,180.0,6.0,0.0
6429,76.0,0.0,180.0,6.0,0.0
6430,85.0,144.0,300.0,1.0,0.0
6431,69.0,0.0,180.0,5.0,0.0
6432,79.0,0.0,180.0,5.0,0.0
6433,69.0,0.0,300.0,2.0,0.0
6434,61.0,0.0,300.0,2.0,0.0
6435,93.0,0.0,300.0,0.0,0.0
6436,91.0,0.0,180.0,4.0,0.0
6437,76.0,0.0,180.0,6.0,0.0
6438,69.0,240.0,180.0,5.0,0.0
6439,79.0,0.0,180.0,5.0,0.0
6440,88.0,0.0,180.0,4.0,0.0
6441,81.0,132.0,300.0,1.0,0.0
6442,93.0,0.0,300.0,0.0,0.0
6443,85.0,96.0,180.0,4.0,0.0
6444,76.0,0.0,180.0,6.0,0.0
6445,85.0,0.0,300.0,1.0,0.0
6446,61.0,0.0,300.0,2.0,0.0
6447,69.0,0.0,300.0,2.0,0.0
6448,69.0,0.0,300.0,3.0,0.0
6449,79.0,0.0,180.0,5.0,0.0
6450,69.0,0.0,180.0,5.0,0.0
6451,33.0,12.0,180.0,8.0,0.0
6452,76.0,0.0,180.0,6.0,0.0
6453,79.0,0.0,180.0,5.0,0.0
6454,69.0,0.0,180.0,5.0,0.0
6455,45.0,0.0,180.0,7.0,0.0
6456,88.0,228.0,180.0,4.0,0.0
6457,50.0,12.0,180.0,7.0,0.0
6458,74.0,0.0,180.0,6.0,0.0
6459,86.0,0.0,780.0,4.0,0.0
6460,66.0,96.0,1140.0,2.0,0.0
6461,62.0,0.0,1140.0,2.0,0.0
6462,66.0,132.0,780.0,3.0,0.0
6463,78.0,0.0,180.0,5.0,0.0
6464,38.0,0.0,180.0,8.0,0.0
6465,86.0,0.0,1260.0,1.0,0.0
6466,90.0,0.0,1140.0,0.0,0.0
6467,78.0,132.0,300.0,1.0,0.0
6468,69.0,96.0,180.0,5.0,0.0
6469,69.0,228.0,180.0,5.0,0.0
6470,78.0,0.0,180.0,5.0,0.0
6471,74.0,0.0,180.0,6.0,0.0
6472,52.0,12.0,180.0,7.0,0.0
6473,40.0,0.0,180.0,8.0,0.0
6474,42.0,12.0,180.0,8.0,0.0
6475,62.0,0.0,300.0,3.0,0.0
6476,69.0,0.0,180.0,5.0,0.0
6477,74.0,96.0,180.0,6.0,0.0
6478,54.0,0.0,180.0,7.0,0.0
6479,74.0,0.0,300.0,1.0,0.0
6480,78.0,0.0,180.0,5.0,0.0
6481,74.0,228.0,180.0,6.0,0.0
6482,43.0,12.0,180.0,8.0,0.0
6483,69.0,0.0,180.0,5.0,0.0
6484,78.0,0.0,180.0,5.0,0.0
6485,55.0,0.0,180.0,7.0,0.0
6486,74.0,0.0,180.0,6.0,0.0
6487,57.0,12.0,180.0,7.0,0.0
6488,45.0,0.0,180.0,8.0,0.0
6489,69.0,0.0,180.0,5.0,0.0
6490,78.0,0.0,180.0,5.0,0.0
6491,69.0,0.0,300.0,3.0,0.0
6492,81.0,132.0,300.0,1.0,0.0
6493,59.0,12.0,180.0,7.0,0.0
6494,69.0,0.0,180.0,5.0,0.0
6495,47.0,0.0,180.0,8.0,0.0
6496,78.0,0.0,180.0,5.0,0.0
6497,74.0,228.0,180.0,6.0,0.0
6498,61.0,12.0,180.0,7.0,0.0
6499,49.0,0.0,180.0,8.0,0.0
6500,69.0,0.0,300.0,3.0,0.0
6501,78.0,96.0,180.0,5.0,0.0
6502,86.0,0.0,300.0,0.0,0.0
6503,69.0,0.0,180.0,5.0,0.0
6504,74.0,0.0,180.0,6.0,0.0
6505,62.0,132.0,300.0,2.0,0.0
6506,66.0,0.0,300.0,2.0,0.0
6507,86.0,0.0,180.0,4.0,0.0
6508,78.0,0.0,300.0,1.0,0.0
6509,81.0,0.0,300.0,1.0,0.0
6510,50.0,0.0,180.0,8.0,0.0
6511,69.0,0.0,180.0,5.0,0.0
6512,78.0,0.0,180.0,5.0,0.0
6513,62.0,12.0,180.0,7.0,0.0
6514,74.0,240.0,180.0,6.0,0.0
6515,69.0,96.0,180.0,5.0,0.0
6516,76.0,0.0,180.0,6.0,0.0
6517,69.0,96.0,1140.0,3.0,0.0
6518,79.0,0.0,180.0,5.0,0.0
6519,45.0,0.0,780.0,8.0,0.0
6520,64.0,144.0,300.0,2.0,0.0
6521,59.0,0.0,300.0,2.0,0.0
6522,81.0,0.0,1260.0,1.0,0.0
6523,76.0,0.0,300.0,1.0,0.0
6524,57.0,0.0,780.0,7.0,0.0
6525,85.0,0.0,300.0,0.0,0.0
6526,85.0,0.0,180.0,4.0,0.0
6527,88.0,0.0,180.0,4.0,0.0
6528,79.0,0.0,180.0,5.0,0.0
6529,76.0,0.0,180.0,6.0,0.0
6530,69.0,240.0,180.0,5.0,0.0
6531,73.0,144.0,300.0,1.0,0.0
6532,57.0,0.0,300.0,2.0,0.0
6533,91.0,0.0,180.0,4.0,0.0
6534,81.0,0.0,300.0,0.0,0.0
6535,69.0,0.0,180.0,5.0,0.0
6536,61.0,0.0,300.0,2.0,0.0
6537,76.0,96.0,180.0,6.0,0.0
6538,79.0,0.0,180.0,5.0,0.0
6539,88.0,240.0,180.0,4.0,0.0
6540,76.0,0.0,180.0,6.0,0.0
6541,69.0,0.0,180.0,5.0,0.0
6542,79.0,0.0,180.0,5.0,0.0
6543,76.0,0.0,180.0,6.0,0.0
6544,69.0,0.0,300.0,2.0,0.0
6545,61.0,144.0,300.0,2.0,0.0
6546,79.0,0.0,180.0,5.0,0.0
6547,69.0,0.0,180.0,5.0,0.0
6548,91.0,0.0,180.0,4.0,0.0
6549,85.0,0.0,300.0,1.0,0.0
6550,93.0,0.0,300.0,0.0,0.0
6551,88.0,240.0,180.0,4.0,0.0
6552,76.0,0.0,180.0,6.0,0.0
6553,79.0,0.0,180.0,5.0,0.0
6554,69.0,0.0,180.0,5.0,0.0
6555,85.0,0.0,180.0,4.0,0.0
6556,69.0,0.0,300.0,3.0,0.0
6557,61.0,0.0,300.0,2.0,0.0
6558,93.0,0.0,300.0,0.0,0.0
6559,85.0,0.0,300.0,1.0,0.0
6560,69.0,0.0,300.0,2.0,0.0
6561,79.0,96.0,180.0,5.0,0.0
6562,69.0,0.0,180.0,5.0,0.0
6563,81.0,132.0,300.0,1.0,0.0
6564,76.0,0.0,180.0,6.0,0.0
6565,79.0,228.0,180.0,5.0,0.0
6566,88.0,0.0,180.0,4.0,0.0
6567,33.0,0.0,180.0,8.0,0.0
6568,76.0,0.0,180.0,6.0,0.0
6569,45.0,12.0,180.0,7.0,0.0
6570,69.0,0.0,180.0,5.0,0.0
6571,90.0,0.0,1140.0,0.0,0.0
6572,78.0,132.0,300.0,1.0,0.0
6573,86.0,0.0,1260.0,1.0,0.0
6574,38.0,12.0,180.0,8.0,0.0
6575,86.0,0.0,780.0,4.0,0.0
6576,50.0,0.0,180.0,7.0,0.0
6577,74.0,96.0,180.0,6.0,0.0
6578,66.0,0.0,1140.0,2.0,0.0
6579,62.0,0.0,1140.0,2.0,0.0
6580,78.0,0.0,180.0,5.0,0.0
6581,69.0,0.0,180.0,5.0,0.0
6582,66.0,0.0,780.0,3.0,0.0
6583,69.0,228.0,180.0,5.0,0.0
6584,40.0,0.0,180.0,8.0,0.0
6585,52.0,12.0,180.0,7.0,0.0
6586,74.0,0.0,180.0,6.0,0.0
6587,78.0,0.0,180.0,5.0,0.0
6588,54.0,0.0,180.0,7.0,0.0
6589,42.0,12.0,180.0,8.0,0.0
6590,69.0,0.0,180.0,5.0,0.0
6591,62.0,0.0,300.0,3.0,0.0
6592,78.0,0.0,180.0,5.0,0.0
6593,74.0,132.0,300.0,1.0,0.0
6594,74.0,96.0,180.0,6.0,0.0
6595,74.0,228.0,180.0,6.0,0.0
6596,43.0,12.0,180.0,8.0,0.0
6597,69.0,0.0,180.0,5.0,0.0
6598,78.0,0.0,180.0,5.0,0.0
6599,55.0,0.0,180.0,7.0,0.0
6600,45.0,0.0,180.0,8.0,0.0
6601,74.0,0.0,180.0,6.0,0.0
6602,81.0,132.0,300.0,1.0,0.0
6603,57.0,12.0,180.0,7.0,0.0
6604,69.0,0.0,180.0,5.0,0.0
6605,78.0,96.0,180.0,5.0,0.0
6606,69.0,0.0,300.0,3.0,0.0
6607,47.0,12.0,180.0,8.0,0.0
6608,74.0,0.0,180.0,6.0,0.0
6609,78.0,228.0,180.0,5.0,0.0
6610,59.0,0.0,180.0,7.0,0.0
6611,69.0,0.0,180.0,5.0,0.0
6612,78.0,0.0,300.0,1.0,0.0
6613,62.0,0.0,300.0,2.0,0.0
6614,66.0,0.0,300.0,2.0,0.0
6615,81.0,0.0,300.0,1.0,0.0
6616,61.0,0.0,180.0,7.0,0.0
6617,69.0,0.0,300.0,3.0,0.0
6618,86.0,0.0,180.0,4.0,0.0
6619,74.0,0.0,180.0,6.0,0.0
6620,49.0,12.0,180.0,8.0,0.0
6621,69.0,96.0,180.0,5.0,0.0
6622,86.0,132.0,300.0,0.0,0.0
6623,78.0,0.0,180.0,5.0,0.0
6624,74.0,240.0,180.0,6.0,0.0
6625,50.0,12.0,180.0,8.0,0.0
6626,78.0,0.0,180.0,5.0,0.0
6627,69.0,0.0,180.0,5.0,0.0
6628,62.0,0.0,180.0,7.0,0.0
6629,85.0,0.0,180.0,4.0,0.0
6630,64.0,144.0,300.0,2.0,0.0
6631,45.0,0.0,780.0,8.0,0.0
6632,85.0,0.0,300.0,0.0,0.0
6633,69.0,96.0,180.0,5.0,0.0
6634,81.0,0.0,1260.0,1.0,0.0
6635,79.0,0.0,180.0,5.0,0.0
6636,76.0,0.0,300.0,1.0,0.0
6637,57.0,0.0,780.0,7.0,0.0
6638,76.0,0.0,180.0,6.0,0.0
6639,69.0,0.0,1140.0,3.0,0.0
6640,59.0,0.0,300.0,2.0,0.0
6641,88.0,0.0,180.0,4.0,0.0
6642,79.0,240.0,180.0,5.0,0.0
6643,69.0,0.0,180.0,5.0,0.0
6644,76.0,0.0,180.0,6.0,0.0
6645,61.0,0.0,300.0,2.0,0.0
6646,76.0,0.0,180.0,6.0,0.0
6647,57.0,144.0,300.0,2.0,0.0
6648,79.0,96.0,180.0,5.0,0.0
6649,69.0,0.0,180.0,5.0,0.0
6650,73.0,0.0,300.0,1.0,0.0
6651,91.0,0.0,180.0,4.0,0.0
6652,81.0,0.0,300.0,0.0,0.0
6653,69.0,0.0,180.0,5.0,0.0
6654,79.0,0.0,180.0,5.0,0.0
6655,88.0,0.0,180.0,4.0,0.0
6656,76.0,240.0,180.0,6.0,0.0
6657,93.0,0.0,300.0,0.0,0.0
6658,69.0,0.0,180.0,5.0,0.0
6659,85.0,0.0,300.0,1.0,0.0
6660,91.0,96.0,180.0,4.0,0.0
6661,61.0,144.0,300.0,2.0,0.0
6662,76.0,0.0,180.0,6.0,0.0
6663,79.0,0.0,180.0,5.0,0.0
6664,69.0,0.0,300.0,2.0,0.0
6665,88.0,0.0,180.0,4.0,0.0
6666,79.0,0.0,180.0,5.0,0.0
6667,76.0,0.0,180.0,6.0,0.0
6668,69.0,240.0,180.0,5.0,0.0
6669,93.0,0.0,300.0,0.0,0.0
6670,69.0,0.0,300.0,3.0,0.0
6671,76.0,96.0,180.0,6.0,0.0
6672,79.0,0.0,180.0,5.0,0.0
6673,69.0,0.0,180.0,5.0,0.0
6674,81.0,0.0,300.0,1.0,0.0
6675,61.0,144.0,300.0,2.0,0.0
6676,69.0,0.0,300.0,2.0,0.0
6677,85.0,0.0,300.0,1.0,0.0
6678,85.0,0.0,180.0,4.0,0.0
6679,33.0,0.0,180.0,8.0,0.0
6680,45.0,0.0,180.0,7.0,0.0
6681,88.0,0.0,180.0,4.0,0.0
6682,69.0,432.0,180.0,5.0,0.0
6683,79.0,0.0,180.0,5.0,0.0
6684,76.0,0.0,180.0,6.0,0.0
6685,86.0,0.0,390.0,1.0,0.0
6686,86.0,0.0,390.0,4.0,0.0
6687,78.0,0.0,390.0,5.0,0.0
6688,50.0,0.0,390.0,7.0,0.0
6689,86.0,0.0,390.0,0.0,0.0
6690,74.0,0.0,390.0,6.0,0.0
6691,66.0,0.0,390.0,3.0,0.0
6692,62.0,0.0,390.0,3.0,0.0
6693,69.0,0.0,390.0,5.0,0.0
6694,78.0,0.0,390.0,1.0,0.0
6695,38.0,960.0,390.0,8.0,0.0
6696,62.0,0.0,390.0,2.0,0.0
6697,66.0,0.0,390.0,2.0,0.0
6698,74.0,0.0,390.0,4.0,0.0
6699,90.0,0.0,390.0,0.0,0.0
6700,50.0,0.0,390.0,8.0,0.0
6701,66.0,0.0,390.0,4.0,0.0
6702,66.0,1344.0,390.0,3.0,0.0
6703,69.0,0.0,390.0,3.0,0.0
6704,74.0,0.0,390.0,6.0,0.0
6705,86.0,0.0,390.0,4.0,0.0
6706,74.0,0.0,390.0,5.0,0.0
6707,78.0,0.0,390.0,1.0,0.0
6708,62.0,0.0,390.0,7.0,0.0
6709,62.0,0.0,390.0,2.0,0.0
6710,86.0,0.0,390.0,5.0,0.0
6711,66.0,0.0,390.0,5.0,0.0
6712,81.0,0.0,390.0,1.0,0.0
6713,38.0,1152.0,780.0,8.0,0.0
6714,66.0,0.0,780.0,3.0,0.0
6715,62.0,0.0,780.0,3.0,0.0
6716,62.0,0.0,780.0,6.0,0.0
6717,50.0,0.0,780.0,7.0,0.0
6718,62.0,0.0,780.0,5.0,0.0
6719,78.0,0.0,780.0,1.0,0.0
6720,74.0,0.0,780.0,1.0,0.0
6721,86.0,0.0,780.0,0.0,0.0
6722,62.0,0.0,780.0,4.0,0.0
6723,50.0,0.0,780.0,2.0,0.0
6724,74.0,0.0,480.0,1.0,0.0
6725,38.0,0.0,480.0,8.0,0.0
6726,74.0,0.0,480.0,4.0,0.0
6727,74.0,0.0,480.0,5.0,0.0
6728,74.0,0.0,480.0,0.0,0.0
6729,50.0,288.0,480.0,7.0,0.0
6730,62.0,0.0,480.0,6.0,0.0
6731,50.0,0.0,480.0,2.0,0.0
6732,78.0,0.0,300.0,5.0,0.0
6733,42.0,0.0,300.0,8.0,0.0
6734,78.0,0.0,300.0,4.0,0.0
6735,66.0,0.0,300.0,6.0,0.0
6736,54.0,0.0,300.0,2.0,0.0
6737,54.0,0.0,300.0,7.0,0.0
6738,78.0,480.0,300.0,1.0,0.0
6739,78.0,0.0,300.0,0.0,0.0
6740,69.0,0.0,300.0,6.0,0.0
6741,57.0,0.0,300.0,7.0,0.0
6742,81.0,0.0,300.0,0.0,0.0
6743,81.0,0.0,300.0,1.0,0.0
6744,57.0,480.0,300.0,2.0,0.0
6745,45.0,0.0,300.0,8.0,0.0
6746,81.0,0.0,300.0,5.0,0.0
6747,81.0,0.0,300.0,4.0,0.0
6748,85.0,0.0,300.0,5.0,0.0
6749,49.0,0.0,300.0,8.0,0.0
6750,73.0,0.0,300.0,6.0,0.0
6751,85.0,0.0,300.0,4.0,0.0
6752,61.0,0.0,300.0,7.0,0.0
6753,85.0,0.0,300.0,0.0,0.0
6754,85.0,0.0,300.0,1.0,0.0
6755,61.0,480.0,300.0,2.0,0.0
6756,86.0,0.0,300.0,1.0,0.0
6757,86.0,0.0,300.0,4.0,0.0
6758,62.0,1152.0,300.0,2.0,0.0
6759,86.0,0.0,300.0,0.0,0.0
6760,62.0,0.0,300.0,7.0,0.0
6761,86.0,0.0,300.0,5.0,0.0
6762,50.0,0.0,300.0,8.0,0.0
6763,74.0,0.0,300.0,6.0,0.0
6764,89.0,0.0,960.0,5.0,0.0
6765,65.0,0.0,960.0,7.0,0.0
6766,53.0,0.0,960.0,8.0,0.0
6767,89.0,288.0,960.0,0.0,0.0
6768,77.0,0.0,960.0,6.0,0.0
6769,65.0,0.0,960.0,2.0,0.0
6770,89.0,0.0,960.0,4.0,0.0
6771,89.0,0.0,960.0,1.0,0.0
6772,88.0,0.0,300.0,5.0,0.0
6773,88.0,0.0,300.0,4.0,0.0
6774,76.0,480.0,300.0,6.0,0.0
6775,88.0,0.0,300.0,1.0,0.0
6776,64.0,0.0,300.0,2.0,0.0
6777,88.0,0.0,300.0,0.0,0.0
6778,64.0,0.0,300.0,7.0,0.0
6779,52.0,0.0,300.0,8.0,0.0
6780,80.0,0.0,300.0,4.0,0.0
6781,80.0,0.0,300.0,1.0,0.0
6782,68.0,0.0,300.0,6.0,0.0
6783,56.0,0.0,300.0,2.0,0.0
6784,80.0,0.0,300.0,0.0,0.0
6785,56.0,0.0,300.0,7.0,0.0
6786,80.0,0.0,300.0,5.0,0.0
6787,44.0,528.0,300.0,8.0,0.0
6788,48.0,960.0,330.0,8.0,0.0
6789,60.0,0.0,330.0,2.0,0.0
6790,84.0,0.0,330.0,4.0,0.0
6791,84.0,0.0,330.0,1.0,0.0
6792,72.0,0.0,330.0,6.0,0.0
6793,60.0,0.0,330.0,7.0,0.0
6794,84.0,0.0,330.0,0.0,0.0
6795,84.0,0.0,330.0,5.0,0.0
6796,75.0,0.0,330.0,1.0,0.0
6797,51.0,0.0,330.0,2.0,0.0
6798,75.0,0.0,330.0,4.0,0.0
6799,63.0,2384.0,330.0,6.0,0.0
6800,75.0,0.0,330.0,5.0,0.0
6801,39.0,0.0,330.0,8.0,0.0
6802,75.0,0.0,330.0,0.0,0.0
6803,51.0,0.0,330.0,7.0,0.0
6804,63.0,0.0,90.0,2.0,0.0
6805,75.0,80.0,90.0,1.0,0.0
6806,75.0,0.0,90.0,4.0,0.0
6807,75.0,0.0,90.0,6.0,0.0
6808,51.0,0.0,90.0,8.0,0.0
6809,75.0,0.0,90.0,5.0,0.0
6810,87.0,0.0,90.0,0.0,0.0
6811,63.0,0.0,90.0,7.0,0.0
6812,64.0,0.0,90.0,2.0,0.0
6813,64.0,0.0,90.0,7.0,0.0
6814,76.0,0.0,90.0,1.0,0.0
6815,52.0,0.0,90.0,8.0,0.0
6816,76.0,0.0,90.0,5.0,0.0
6817,88.0,80.0,90.0,0.0,0.0
6818,76.0,0.0,90.0,4.0,0.0
6819,76.0,0.0,90.0,6.0,0.0
6820,78.0,0.0,90.0,4.0,0.0
6821,78.0,0.0,90.0,5.0,0.0
6822,78.0,0.0,90.0,6.0,0.0
6823,54.0,0.0,90.0,8.0,0.0
6824,66.0,336.0,90.0,7.0,0.0
6825,78.0,0.0,90.0,1.0,0.0
6826,66.0,0.0,90.0,2.0,0.0
6827,90.0,0.0,90.0,0.0,0.0
6828,79.0,0.0,330.0,1.0,0.0
6829,79.0,960.0,330.0,5.0,0.0
6830,67.0,0.0,330.0,2.0,0.0
6831,79.0,0.0,330.0,4.0,0.0
6832,67.0,0.0,330.0,7.0,0.0
6833,55.0,0.0,330.0,8.0,0.0
6834,79.0,0.0,330.0,6.0,0.0
6835,91.0,0.0,330.0,0.0,0.0
6836,82.0,0.0,330.0,0.0,0.0
6837,58.0,0.0,330.0,7.0,0.0
6838,70.0,0.0,330.0,5.0,0.0
6839,58.0,0.0,330.0,2.0,0.0
6840,70.0,0.0,330.0,6.0,0.0
6841,70.0,0.0,330.0,1.0,0.0
6842,46.0,960.0,330.0,8.0,0.0
6843,70.0,0.0,330.0,4.0,0.0
6844,62.0,0.0,330.0,2.0,0.0
6845,74.0,0.0,330.0,1.0,0.0
6846,86.0,0.0,330.0,1.0,0.0
6847,74.0,0.0,330.0,4.0,0.0
6848,50.0,0.0,330.0,8.0,0.0
6849,62.0,0.0,330.0,7.0,0.0
6850,74.0,0.0,330.0,5.0,0.0
6851,74.0,0.0,330.0,6.0,0.0
6852,86.0,1920.0,330.0,0.0,0.0
6853,77.0,1920.0,330.0,0.0,0.0
6854,65.0,0.0,330.0,5.0,0.0
6855,53.0,0.0,330.0,7.0,0.0
6856,77.0,0.0,330.0,1.0,0.0
6857,53.0,0.0,330.0,2.0,0.0
6858,65.0,0.0,330.0,6.0,0.0
6859,41.0,0.0,330.0,8.0,0.0
6860,65.0,0.0,330.0,4.0,0.0
6861,57.0,960.0,330.0,7.0,0.0
6862,45.0,0.0,330.0,8.0,0.0
6863,69.0,0.0,330.0,5.0,0.0
6864,93.0,0.0,330.0,0.0,0.0
6865,69.0,0.0,330.0,4.0,0.0
6866,69.0,0.0,330.0,6.0,0.0
6867,81.0,0.0,330.0,1.0,0.0
6868,69.0,0.0,330.0,2.0,0.0
6869,48.0,0.0,330.0,7.0,0.0
6870,36.0,0.0,330.0,8.0,0.0
6871,72.0,0.0,330.0,1.0,0.0
6872,60.0,0.0,330.0,6.0,0.0
6873,60.0,0.0,330.0,5.0,0.0
6874,84.0,0.0,330.0,0.0,0.0
6875,60.0,0.0,330.0,4.0,0.0
6876,60.0,2544.0,330.0,2.0,0.0
6877,66.0,960.0,1920.0,2.0,0.0
6878,78.0,0.0,1920.0,1.0,0.0
6879,81.0,0.0,1920.0,1.0,0.0
6880,69.0,0.0,1920.0,2.0,0.0
6881,80.0,0.0,960.0,1.0,0.0
6882,77.0,0.0,960.0,1.0,0.0
6883,65.0,0.0,960.0,2.0,0.0
6884,68.0,960.0,960.0,2.0,0.0
6885,75.0,0.0,960.0,1.0,0.0
6886,78.0,288.0,960.0,1.0,0.0
6887,66.0,0.0,960.0,2.0,0.0
6888,63.0,0.0,960.0,2.0,0.0
6889,72.0,0.0,480.0,4.0,0.0
6890,65.0,0.0,390.0,2.0,0.0
6891,37.0,384.0,390.0,8.0,0.0
6892,77.0,0.0,390.0,1.0,0.0
6893,73.0,0.0,390.0,1.0,0.0
6894,73.0,96.0,300.0,4.0,0.0
6895,49.0,0.0,390.0,7.0,0.0
6896,61.0,0.0,390.0,2.0,0.0
6897,77.0,96.0,300.0,4.0,0.0
6898,65.0,0.0,390.0,5.0,0.0
6899,61.0,384.0,390.0,6.0,0.0
6900,68.0,0.0,390.0,5.0,0.0
6901,65.0,0.0,390.0,5.0,0.0
6902,68.0,384.0,390.0,5.0,0.0
6903,80.0,96.0,300.0,4.0,0.0
6904,61.0,0.0,390.0,6.0,0.0
6905,65.0,0.0,390.0,5.0,0.0
6906,61.0,480.0,390.0,6.0,0.0
6907,83.0,96.0,300.0,4.0,0.0
6908,68.0,0.0,390.0,5.0,0.0
6909,86.0,288.0,960.0,4.0,0.0
6910,49.0,480.0,390.0,8.0,0.0
6911,61.0,0.0,390.0,7.0,0.0
6912,68.0,0.0,390.0,5.0,0.0
6913,65.0,0.0,390.0,5.0,0.0
6914,61.0,96.0,390.0,6.0,0.0
6915,85.0,96.0,300.0,4.0,0.0
6916,61.0,384.0,390.0,6.0,0.0
6917,65.0,0.0,390.0,5.0,0.0
6918,68.0,0.0,390.0,5.0,0.0
6919,77.0,288.0,480.0,0.0,0.0
6920,68.0,0.0,390.0,5.0,0.0
6921,65.0,0.0,390.0,5.0,0.0
6922,83.0,96.0,300.0,4.0,0.0
6923,61.0,96.0,390.0,6.0,0.0
6924,81.0,0.0,300.0,4.0,0.0
6925,49.0,0.0,390.0,7.0,0.0
6926,78.0,96.0,300.0,0.0,0.0
6927,37.0,384.0,390.0,8.0,0.0
6928,81.0,96.0,300.0,0.0,0.0
6929,66.0,0.0,390.0,5.0,0.0
6930,69.0,384.0,390.0,5.0,0.0
6931,61.0,0.0,390.0,6.0,0.0
6932,85.0,96.0,300.0,0.0,0.0
6933,66.0,384.0,390.0,5.0,0.0
6934,69.0,0.0,390.0,5.0,0.0
6935,61.0,0.0,390.0,6.0,0.0
6936,90.0,96.0,300.0,0.0,0.0
6937,66.0,480.0,390.0,5.0,0.0
6938,69.0,0.0,390.0,5.0,0.0
6939,61.0,0.0,390.0,6.0,0.0
6940,61.0,0.0,390.0,7.0,0.0
6941,49.0,480.0,390.0,8.0,0.0
6942,93.0,288.0,960.0,0.0,0.0
6943,66.0,0.0,390.0,5.0,0.0
6944,69.0,0.0,390.0,5.0,0.0
6945,61.0,96.0,390.0,6.0,0.0
6946,61.0,0.0,390.0,6.0,0.0
6947,92.0,96.0,300.0,0.0,0.0
6948,69.0,0.0,390.0,5.0,0.0
6949,66.0,384.0,390.0,5.0,0.0
6950,61.0,0.0,390.0,6.0,0.0
6951,72.0,288.0,480.0,4.0,0.0
6952,69.0,0.0,390.0,5.0,0.0
6953,90.0,96.0,300.0,0.0,0.0
6954,66.0,96.0,390.0,5.0,0.0
6955,37.0,384.0,390.0,8.0,0.0
6956,49.0,0.0,390.0,7.0,0.0
6957,89.0,0.0,300.0,0.0,0.0
6958,73.0,96.0,300.0,4.0,0.0
6959,61.0,0.0,390.0,6.0,0.0
6960,68.0,0.0,390.0,5.0,0.0
6961,65.0,384.0,390.0,5.0,0.0
6962,77.0,96.0,300.0,4.0,0.0
6963,61.0,0.0,390.0,6.0,0.0
6964,80.0,96.0,300.0,4.0,0.0
6965,68.0,0.0,390.0,5.0,0.0
6966,65.0,384.0,390.0,5.0,0.0
6967,83.0,96.0,300.0,4.0,0.0
6968,61.0,0.0,390.0,6.0,0.0
6969,68.0,480.0,390.0,5.0,0.0
6970,65.0,0.0,390.0,5.0,0.0
6971,61.0,0.0,390.0,7.0,0.0
6972,49.0,480.0,390.0,8.0,0.0
6973,86.0,288.0,960.0,4.0,0.0
6974,65.0,0.0,390.0,5.0,0.0
6975,68.0,96.0,390.0,5.0,0.0
6976,61.0,0.0,390.0,6.0,0.0
6977,85.0,96.0,300.0,4.0,0.0
6978,68.0,0.0,390.0,5.0,0.0
6979,61.0,0.0,390.0,6.0,0.0
6980,65.0,384.0,390.0,5.0,0.0
6981,61.0,0.0,390.0,6.0,0.0
6982,83.0,96.0,300.0,4.0,0.0
6983,68.0,0.0,390.0,5.0,0.0
6984,65.0,96.0,390.0,5.0,0.0
6985,53.0,288.0,480.0,2.0,0.0
6986,54.0,0.0,300.0,2.0,0.0
6987,82.0,96.0,300.0,4.0,0.0
6988,42.0,0.0,390.0,8.0,0.0
6989,42.0,384.0,390.0,7.0,0.0
6990,58.0,96.0,300.0,2.0,0.0
6991,61.0,384.0,390.0,5.0,0.0
6992,70.0,0.0,390.0,5.0,0.0
6993,64.0,0.0,390.0,6.0,0.0
6994,64.0,384.0,390.0,6.0,0.0
6995,61.0,96.0,300.0,2.0,0.0
6996,70.0,0.0,390.0,5.0,0.0
6997,61.0,0.0,390.0,5.0,0.0
6998,64.0,96.0,300.0,2.0,0.0
6999,64.0,0.0,390.0,6.0,0.0
7000,70.0,0.0,390.0,5.0,0.0
7001,61.0,480.0,390.0,5.0,0.0
7002,67.0,288.0,960.0,2.0,0.0
7003,54.0,480.0,390.0,7.0,0.0
7004,42.0,0.0,390.0,8.0,0.0
7005,70.0,0.0,390.0,5.0,0.0
7006,64.0,96.0,390.0,6.0,0.0
7007,61.0,0.0,390.0,5.0,0.0
7008,64.0,384.0,390.0,6.0,0.0
7009,61.0,0.0,390.0,5.0,0.0
7010,66.0,96.0,300.0,2.0,0.0
7011,70.0,0.0,390.0,5.0,0.0
7012,70.0,288.0,480.0,4.0,0.0
7013,64.0,96.0,300.0,2.0,0.0
7014,61.0,0.0,390.0,5.0,0.0
7015,70.0,96.0,390.0,5.0,0.0
7016,64.0,0.0,390.0,6.0,0.0
7017,71.0,96.0,300.0,4.0,0.0
7018,35.0,0.0,390.0,8.0,0.0
7019,63.0,0.0,300.0,2.0,0.0
7020,47.0,384.0,390.0,7.0,0.0
7021,59.0,0.0,390.0,5.0,0.0
7022,69.0,384.0,390.0,5.0,0.0
7023,63.0,0.0,390.0,6.0,0.0
7024,75.0,96.0,300.0,4.0,0.0
7025,63.0,0.0,390.0,6.0,0.0
7026,69.0,384.0,390.0,5.0,0.0
7027,78.0,96.0,300.0,4.0,0.0
7028,59.0,0.0,390.0,5.0,0.0
7029,81.0,96.0,300.0,4.0,0.0
7030,63.0,0.0,390.0,6.0,0.0
7031,69.0,480.0,390.0,5.0,0.0
7032,59.0,0.0,390.0,5.0,0.0
7033,84.0,288.0,960.0,4.0,0.0
7034,59.0,0.0,390.0,7.0,0.0
7035,47.0,480.0,390.0,8.0,0.0
7036,59.0,0.0,390.0,5.0,0.0
7037,69.0,0.0,390.0,5.0,0.0
7038,63.0,96.0,390.0,6.0,0.0
7039,63.0,384.0,390.0,6.0,0.0
7040,83.0,96.0,300.0,4.0,0.0
7041,59.0,0.0,390.0,5.0,0.0
7042,69.0,0.0,390.0,5.0,0.0
7043,75.0,0.0,480.0,0.0,0.0
7044,51.0,288.0,480.0,2.0,0.0
7045,81.0,96.0,300.0,4.0,0.0
7046,59.0,0.0,390.0,5.0,0.0
7047,69.0,96.0,390.0,5.0,0.0
7048,63.0,0.0,390.0,6.0,0.0
7049,40.0,384.0,390.0,7.0,0.0
7050,76.0,0.0,300.0,0.0,0.0
7051,80.0,96.0,300.0,4.0,0.0
7052,40.0,0.0,390.0,8.0,0.0
7053,52.0,0.0,300.0,2.0,0.0
7054,80.0,0.0,300.0,0.0,0.0
7055,59.0,384.0,390.0,5.0,0.0
7056,56.0,96.0,300.0,2.0,0.0
7057,68.0,0.0,390.0,5.0,0.0
7058,62.0,0.0,390.0,6.0,0.0
7059,59.0,0.0,300.0,2.0,0.0
7060,68.0,0.0,390.0,5.0,0.0
7061,59.0,384.0,390.0,5.0,0.0
7062,83.0,96.0,300.0,0.0,0.0
7063,62.0,0.0,390.0,6.0,0.0
7064,86.0,0.0,300.0,0.0,0.0
7065,62.0,96.0,300.0,2.0,0.0
7066,59.0,480.0,390.0,5.0,0.0
7067,68.0,0.0,390.0,5.0,0.0
7068,62.0,0.0,390.0,6.0,0.0
7069,52.0,0.0,390.0,7.0,0.0
7070,65.0,0.0,960.0,2.0,0.0
7071,40.0,480.0,390.0,8.0,0.0
7072,89.0,288.0,960.0,0.0,0.0
7073,68.0,0.0,390.0,4.0,0.0
7074,62.0,96.0,390.0,5.0,0.0
7075,68.0,0.0,390.0,4.0,0.0
7076,88.0,96.0,300.0,0.0,0.0
7077,64.0,0.0,300.0,2.0,0.0
7078,62.0,384.0,390.0,5.0,0.0
7079,52.0,288.0,480.0,6.0,0.0
7080,59.0,96.0,390.0,5.0,0.0
7081,62.0,96.0,300.0,2.0,0.0
7082,68.0,0.0,390.0,4.0,0.0
7083,86.0,0.0,300.0,0.0,0.0
7084,84.0,0.0,300.0,0.0,0.0
7085,57.0,480.0,300.0,6.0,0.0
7086,60.0,0.0,780.0,5.0,0.0
7087,69.0,480.0,780.0,4.0,0.0
7088,69.0,192.0,3450.0,3.0,0.0
7089,60.0,0.0,300.0,2.0,0.0
7090,60.0,0.0,300.0,6.0,0.0
7091,64.0,480.0,300.0,6.0,0.0
7092,69.0,192.0,300.0,6.0,0.0
7093,72.0,288.0,480.0,4.0,0.0
7094,75.0,480.0,300.0,4.0,0.0
7095,72.0,288.0,960.0,6.0,0.0
7096,78.0,192.0,300.0,4.0,0.0
7097,81.0,288.0,300.0,4.0,0.0
7098,71.0,0.0,300.0,6.0,0.0
7099,69.0,480.0,300.0,6.0,0.0
7100,87.0,0.0,300.0,4.0,0.0
7101,88.0,480.0,300.0,4.0,0.0
7102,68.0,0.0,780.0,6.0,0.0
7103,76.0,0.0,780.0,3.0,0.0
7104,83.0,1056.0,300.0,4.0,0.0
7105,86.0,240.0,1110.0,4.0,0.0
7106,65.0,240.0,390.0,6.0,0.0
7107,64.0,96.0,780.0,6.0,0.0
7108,84.0,240.0,150.0,4.0,0.0
7109,83.0,144.0,150.0,4.0,0.0
7110,81.0,240.0,150.0,4.0,0.0
7111,80.0,240.0,150.0,4.0,0.0
7112,77.0,240.0,150.0,4.0,0.0
7113,76.0,144.0,150.0,4.0,0.0
7114,68.0,96.0,300.0,6.0,0.0
7115,74.0,240.0,150.0,4.0,0.0
7116,69.0,48.0,1530.0,3.0,0.0
7117,72.0,96.0,300.0,4.0,0.0
7118,69.0,144.0,150.0,6.0,0.0
7119,71.0,240.0,150.0,6.0,0.0
7120,72.0,144.0,150.0,6.0,0.0
7121,76.0,96.0,300.0,4.0,0.0
7122,71.0,240.0,150.0,6.0,0.0
7123,84.0,240.0,1140.0,4.0,0.0
7124,69.0,240.0,150.0,6.0,0.0
7125,71.0,192.0,150.0,6.0,0.0
7126,67.0,240.0,150.0,6.0,0.0
7127,69.0,288.0,150.0,6.0,0.0
7128,66.0,96.0,1530.0,6.0,0.0
7129,74.0,0.0,1530.0,3.0,0.0
7130,83.0,240.0,180.0,4.0,0.0
7131,81.0,240.0,180.0,4.0,0.0
7132,79.0,240.0,180.0,4.0,0.0
7133,78.0,240.0,180.0,4.0,0.0
7134,76.0,144.0,180.0,4.0,0.0
7135,74.0,240.0,180.0,4.0,0.0
7136,62.0,288.0,480.0,5.0,0.0
7137,72.0,48.0,180.0,4.0,0.0
7138,67.0,480.0,300.0,5.0,0.0
7139,67.0,96.0,1140.0,6.0,0.0
7140,71.0,192.0,1530.0,4.0,0.0
7141,71.0,384.0,300.0,5.0,0.0
7142,74.0,288.0,300.0,5.0,0.0
7143,35.0,0.0,480.0,8.0,0.0
7144,47.0,288.0,480.0,7.0,0.0
7145,79.0,0.0,300.0,5.0,0.0
7146,62.0,192.0,300.0,6.0,0.0
7147,59.0,0.0,300.0,6.0,0.0
7148,38.0,0.0,300.0,8.0,0.0
7149,83.0,0.0,960.0,5.0,0.0
7150,50.0,480.0,300.0,7.0,0.0
7151,55.0,192.0,300.0,6.0,0.0
7152,74.0,288.0,480.0,4.0,0.0
7153,55.0,0.0,300.0,7.0,0.0
7154,43.0,0.0,300.0,8.0,0.0
7155,86.0,0.0,300.0,4.0,0.0
7156,81.0,0.0,300.0,5.0,0.0
7157,59.0,480.0,300.0,7.0,0.0
7158,47.0,0.0,300.0,8.0,0.0
7159,88.0,0.0,300.0,4.0,0.0
7160,49.0,0.0,300.0,8.0,0.0
7161,79.0,480.0,300.0,5.0,0.0
7162,69.0,0.0,780.0,6.0,0.0
7163,61.0,0.0,300.0,7.0,0.0
7164,62.0,0.0,300.0,7.0,0.0
7165,81.0,0.0,780.0,4.0,0.0
7166,78.0,0.0,780.0,5.0,0.0
7167,50.0,336.0,300.0,8.0,0.0
7168,74.0,0.0,780.0,3.0,0.0
7169,57.0,96.0,300.0,7.0,0.0
7170,45.0,0.0,300.0,8.0,0.0
7171,72.0,144.0,150.0,6.0,0.0
7172,71.0,240.0,150.0,6.0,0.0
7173,69.0,144.0,150.0,6.0,0.0
7174,60.0,0.0,1140.0,7.0,0.0
7175,48.0,120.0,1140.0,8.0,0.0
7176,62.0,96.0,300.0,3.0,0.0
7177,67.0,240.0,150.0,6.0,0.0
7178,81.0,0.0,300.0,5.0,0.0
7179,84.0,0.0,300.0,4.0,0.0
7180,62.0,96.0,300.0,3.0,0.0
7181,66.0,144.0,150.0,6.0,0.0
7182,67.0,264.0,150.0,6.0,0.0
7183,78.0,120.0,780.0,4.0,0.0
7184,74.0,0.0,780.0,5.0,0.0
7185,62.0,72.0,1530.0,3.0,0.0
7186,69.0,120.0,300.0,6.0,0.0
7187,59.0,0.0,180.0,7.0,0.0
7188,47.0,240.0,180.0,8.0,0.0
7189,45.0,0.0,180.0,8.0,0.0
7190,57.0,120.0,180.0,7.0,0.0
7191,62.0,0.0,300.0,6.0,0.0
7192,43.0,0.0,180.0,8.0,0.0
7193,55.0,240.0,180.0,7.0,0.0
7194,74.0,144.0,1260.0,6.0,0.0
7195,54.0,240.0,180.0,7.0,0.0
7196,42.0,0.0,180.0,8.0,0.0
7197,52.0,168.0,180.0,7.0,0.0
7198,40.0,0.0,180.0,8.0,0.0
7199,50.0,0.0,180.0,7.0,0.0
7200,38.0,120.0,180.0,8.0,0.0
7201,78.0,0.0,300.0,5.0,0.0
7202,81.0,120.0,300.0,4.0,0.0
7203,48.0,0.0,180.0,7.0,0.0
7204,36.0,264.0,180.0,8.0,0.0
7205,47.0,144.0,780.0,7.0,0.0
7206,79.0,0.0,180.0,5.0,0.0
7207,79.0,96.0,180.0,4.0,0.0
7208,35.0,0.0,780.0,8.0,0.0
7209,71.0,96.0,1530.0,3.0,0.0
7210,83.0,240.0,180.0,4.0,0.0
7211,83.0,0.0,180.0,5.0,0.0
7212,86.0,0.0,180.0,5.0,0.0
7213,71.0,0.0,300.0,6.0,0.0
7214,86.0,96.0,180.0,4.0,0.0
7215,84.0,0.0,180.0,5.0,0.0
7216,84.0,240.0,180.0,4.0,0.0
7217,67.0,144.0,300.0,6.0,0.0
7218,83.0,96.0,180.0,4.0,0.0
7219,83.0,0.0,180.0,5.0,0.0
7220,81.0,0.0,180.0,5.0,0.0
7221,81.0,144.0,180.0,4.0,0.0
7222,79.0,0.0,180.0,4.0,0.0
7223,50.0,48.0,390.0,8.0,0.0
7224,62.0,0.0,390.0,7.0,0.0
7225,79.0,192.0,180.0,5.0,0.0
7226,71.0,48.0,870.0,6.0,0.0
7227,78.0,0.0,180.0,5.0,0.0
7228,78.0,240.0,180.0,4.0,0.0
7229,48.0,0.0,180.0,8.0,0.0
7230,76.0,0.0,780.0,5.0,0.0
7231,76.0,96.0,1530.0,3.0,0.0
7232,76.0,144.0,780.0,4.0,0.0
7233,60.0,192.0,180.0,7.0,0.0
7234,52.0,0.0,180.0,8.0,0.0
7235,64.0,240.0,180.0,7.0,0.0
7236,55.0,96.0,180.0,8.0,0.0
7237,67.0,0.0,180.0,7.0,0.0
7238,72.0,0.0,180.0,6.0,0.0
7239,66.0,240.0,180.0,7.0,0.0
7240,54.0,0.0,180.0,8.0,0.0
7241,74.0,0.0,180.0,6.0,0.0
7242,52.0,0.0,180.0,8.0,0.0
7243,72.0,48.0,1350.0,6.0,0.0
7244,64.0,240.0,180.0,7.0,0.0
7245,62.0,0.0,180.0,7.0,0.0
7246,50.0,144.0,180.0,8.0,0.0
7247,79.0,48.0,390.0,4.0,0.0
7248,60.0,192.0,180.0,7.0,0.0
7249,79.0,0.0,390.0,5.0,0.0
7250,48.0,0.0,180.0,8.0,0.0
7251,47.0,0.0,180.0,8.0,0.0
7252,59.0,240.0,180.0,7.0,0.0
7253,78.0,192.0,180.0,5.0,0.0
7254,78.0,0.0,180.0,4.0,0.0
7255,57.0,0.0,780.0,7.0,0.0
7256,45.0,96.0,780.0,8.0,0.0
7257,69.0,96.0,1530.0,3.0,0.0
7258,81.0,0.0,180.0,5.0,0.0
7259,81.0,240.0,180.0,4.0,0.0
7260,69.0,48.0,390.0,6.0,0.0
7261,84.0,0.0,180.0,5.0,0.0
7262,84.0,96.0,180.0,4.0,0.0
7263,83.0,0.0,180.0,5.0,0.0
7264,83.0,240.0,180.0,4.0,0.0
7265,66.0,48.0,390.0,6.0,0.0
7266,81.0,0.0,180.0,5.0,0.0
7267,81.0,192.0,180.0,4.0,0.0
7268,79.0,0.0,180.0,5.0,0.0
7269,79.0,144.0,180.0,4.0,0.0
7270,69.0,48.0,870.0,6.0,0.0
7271,60.0,48.0,390.0,7.0,0.0
7272,78.0,192.0,180.0,5.0,0.0
7273,78.0,0.0,180.0,4.0,0.0
7274,48.0,0.0,390.0,8.0,0.0
7275,76.0,240.0,180.0,5.0,0.0
7276,76.0,0.0,180.0,4.0,0.0
7277,59.0,0.0,180.0,7.0,0.0
7278,78.0,96.0,1530.0,3.0,0.0
7279,71.0,0.0,1530.0,3.0,0.0
7280,47.0,192.0,180.0,8.0,0.0
7281,75.0,144.0,780.0,4.0,0.0
7282,75.0,0.0,780.0,5.0,0.0
7283,63.0,240.0,180.0,7.0,0.0
7284,51.0,0.0,180.0,8.0,0.0
7285,54.0,96.0,180.0,8.0,0.0
7286,66.0,0.0,180.0,7.0,0.0
7287,71.0,0.0,180.0,6.0,0.0
7288,52.0,0.0,180.0,8.0,0.0
7289,72.0,240.0,180.0,6.0,0.0
7290,64.0,0.0,180.0,7.0,0.0
7291,71.0,0.0,180.0,6.0,0.0
7292,51.0,240.0,180.0,8.0,0.0
7293,63.0,0.0,180.0,7.0,0.0
7294,48.0,144.0,180.0,8.0,0.0
7295,69.0,0.0,180.0,6.0,0.0
7296,60.0,0.0,180.0,7.0,0.0
7297,67.0,0.0,180.0,6.0,0.0
7298,71.0,288.0,480.0,4.0,0.0
7299,47.0,240.0,180.0,8.0,0.0
7300,59.0,0.0,180.0,7.0,0.0
7301,66.0,0.0,180.0,6.0,0.0
7302,57.0,48.0,180.0,7.0,0.0
7303,45.0,0.0,180.0,8.0,0.0
7304,76.0,480.0,300.0,4.0,0.0
7305,71.0,0.0,780.0,3.0,0.0
7306,76.0,0.0,780.0,3.0,0.0
7307,88.0,0.0,1530.0,1.0,0.0
7308,76.0,0.0,1530.0,1.0,0.0
7309,88.0,192.0,1530.0,0.0,0.0
7310,43.0,0.0,780.0,8.0,0.0
7311,64.0,0.0,780.0,6.0,0.0
7312,55.0,480.0,780.0,7.0,0.0
7313,79.0,0.0,300.0,4.0,0.0
7314,83.0,288.0,300.0,4.0,0.0
7315,88.0,192.0,300.0,4.0,0.0
7316,67.0,288.0,480.0,5.0,0.0
7317,82.0,0.0,1530.0,0.0,0.0
7318,70.0,480.0,300.0,5.0,0.0
7319,82.0,192.0,1530.0,1.0,0.0
7320,76.0,192.0,780.0,3.0,0.0
7321,70.0,0.0,1530.0,1.0,0.0
7322,91.0,288.0,960.0,4.0,0.0
7323,73.0,0.0,780.0,3.0,0.0
7324,73.0,0.0,300.0,5.0,0.0
7325,78.0,0.0,300.0,5.0,0.0
7326,90.0,288.0,300.0,4.0,0.0
7327,54.0,288.0,480.0,6.0,0.0
7328,82.0,0.0,300.0,5.0,0.0
7329,88.0,192.0,300.0,4.0,0.0
7330,83.0,480.0,300.0,5.0,0.0
7331,59.0,0.0,1530.0,2.0,0.0
7332,59.0,0.0,300.0,6.0,0.0
7333,86.0,0.0,780.0,4.0,0.0
7334,83.0,0.0,780.0,1.0,0.0
7335,71.0,96.0,1740.0,1.0,0.0
7336,83.0,480.0,780.0,0.0,0.0
7337,71.0,192.0,1530.0,2.0,0.0
7338,62.0,0.0,300.0,6.0,0.0
7339,66.0,0.0,300.0,5.0,0.0
7340,66.0,288.0,300.0,6.0,0.0
7341,71.0,192.0,1140.0,5.0,0.0
7342,71.0,0.0,300.0,6.0,0.0
7343,50.0,0.0,390.0,7.0,0.0
7344,38.0,288.0,390.0,8.0,0.0
7345,53.0,192.0,1530.0,2.0,0.0
7346,65.0,0.0,1530.0,2.0,0.0
7347,41.0,48.0,390.0,8.0,0.0
7348,65.0,0.0,1530.0,1.0,0.0
7349,53.0,0.0,390.0,7.0,0.0
7350,74.0,288.0,960.0,6.0,0.0
7351,69.0,240.0,180.0,5.0,0.0
7352,56.0,0.0,390.0,7.0,0.0
7353,44.0,48.0,390.0,8.0,0.0
7354,68.0,192.0,180.0,5.0,0.0
7355,66.0,48.0,180.0,5.0,0.0
7356,61.0,0.0,390.0,7.0,0.0
7357,73.0,96.0,300.0,6.0,0.0
7358,49.0,0.0,390.0,8.0,0.0
7359,65.0,192.0,390.0,5.0,0.0
7360,68.0,0.0,390.0,5.0,0.0
7361,73.0,288.0,480.0,4.0,0.0
7362,53.0,96.0,390.0,8.0,0.0
7363,71.0,96.0,300.0,6.0,0.0
7364,65.0,0.0,390.0,7.0,0.0
7365,90.0,192.0,1530.0,0.0,0.0
7366,54.0,0.0,780.0,2.0,0.0
7367,66.0,0.0,780.0,2.0,0.0
7368,78.0,0.0,1530.0,1.0,0.0
7369,78.0,480.0,300.0,4.0,0.0
7370,66.0,0.0,780.0,5.0,0.0
7371,54.0,0.0,780.0,8.0,0.0
7372,66.0,0.0,1530.0,1.0,0.0
7373,66.0,0.0,780.0,7.0,0.0
7374,69.0,480.0,780.0,6.0,0.0
7375,81.0,0.0,300.0,4.0,0.0
7376,85.0,288.0,300.0,4.0,0.0
7377,69.0,288.0,480.0,5.0,0.0
7378,90.0,192.0,300.0,4.0,0.0
7379,72.0,480.0,300.0,5.0,0.0
7380,84.0,192.0,1530.0,1.0,0.0
7381,84.0,0.0,1530.0,0.0,0.0
7382,72.0,0.0,1530.0,1.0,0.0
7383,93.0,288.0,960.0,4.0,0.0
7384,75.0,192.0,300.0,5.0,0.0
7385,92.0,0.0,300.0,4.0,0.0
7386,80.0,288.0,300.0,5.0,0.0
7387,56.0,288.0,480.0,6.0,0.0
7388,90.0,0.0,300.0,4.0,0.0
7389,84.0,192.0,300.0,5.0,0.0
7390,61.0,0.0,300.0,6.0,0.0
7391,73.0,0.0,1740.0,1.0,0.0
7392,85.0,0.0,780.0,1.0,0.0
7393,61.0,192.0,1530.0,2.0,0.0
7394,88.0,0.0,780.0,4.0,0.0
7395,85.0,480.0,780.0,0.0,0.0
7396,85.0,480.0,300.0,5.0,0.0
7397,68.0,0.0,300.0,5.0,0.0
7398,64.0,0.0,300.0,6.0,0.0
7399,73.0,144.0,1110.0,5.0,0.0
7400,68.0,288.0,300.0,6.0,0.0
7401,73.0,192.0,300.0,6.0,0.0
7402,52.0,144.0,480.0,7.0,0.0
7403,40.0,0.0,480.0,8.0,0.0
7404,76.0,288.0,960.0,6.0,0.0
7405,55.0,192.0,1530.0,2.0,0.0
7406,67.0,0.0,1530.0,2.0,0.0
7407,67.0,0.0,1530.0,1.0,0.0
7408,43.0,96.0,300.0,8.0,0.0
7409,55.0,0.0,300.0,7.0,0.0
7410,71.0,240.0,150.0,5.0,0.0
7411,70.0,144.0,150.0,5.0,0.0
7412,46.0,96.0,300.0,8.0,0.0
7413,58.0,0.0,300.0,7.0,0.0
7414,68.0,96.0,150.0,5.0,0.0
7415,63.0,288.0,300.0,7.0,0.0
7416,75.0,0.0,300.0,6.0,0.0
7417,67.0,0.0,300.0,5.0,0.0
7418,51.0,0.0,300.0,8.0,0.0
7419,55.0,192.0,300.0,8.0,0.0
7420,63.0,288.0,480.0,4.0,0.0
7421,70.0,0.0,300.0,5.0,0.0
7422,73.0,0.0,300.0,6.0,0.0
7423,67.0,0.0,300.0,7.0,0.0
7424,68.0,0.0,780.0,7.0,0.0
7425,71.0,0.0,780.0,6.0,0.0
7426,68.0,96.0,300.0,4.0,0.0
7427,80.0,192.0,1530.0,1.0,0.0
7428,68.0,0.0,1530.0,1.0,0.0
7429,56.0,0.0,780.0,8.0,0.0
7430,68.0,0.0,780.0,2.0,0.0
7431,92.0,0.0,1530.0,0.0,0.0
7432,68.0,384.0,390.0,5.0,0.0
7433,56.0,96.0,780.0,2.0,0.0
7434,75.0,384.0,390.0,5.0,0.0
7435,71.0,0.0,300.0,4.0,0.0
7436,75.0,288.0,300.0,4.0,0.0
7437,80.0,96.0,1140.0,5.0,0.0
7438,59.0,192.0,480.0,6.0,0.0
7439,80.0,192.0,300.0,4.0,0.0
7440,74.0,192.0,1530.0,1.0,0.0
7441,62.0,144.0,300.0,6.0,0.0
7442,86.0,0.0,1530.0,0.0,0.0
7443,86.0,0.0,1530.0,1.0,0.0
7444,83.0,288.0,960.0,4.0,0.0
7445,78.0,240.0,180.0,5.0,0.0
7446,77.0,96.0,180.0,5.0,0.0
7447,65.0,144.0,300.0,6.0,0.0
7448,75.0,48.0,180.0,5.0,0.0
7449,70.0,96.0,300.0,6.0,0.0
7450,74.0,192.0,390.0,5.0,0.0
7451,82.0,0.0,390.0,4.0,0.0
7452,77.0,0.0,390.0,5.0,0.0
7453,80.0,96.0,390.0,4.0,0.0
7454,36.0,288.0,480.0,8.0,0.0
7455,74.0,96.0,300.0,6.0,0.0
7456,46.0,0.0,480.0,7.0,0.0
7457,75.0,0.0,1740.0,1.0,0.0
7458,63.0,192.0,1530.0,2.0,0.0
7459,51.0,0.0,300.0,7.0,0.0
7460,51.0,0.0,1530.0,2.0,0.0
7461,87.0,0.0,780.0,1.0,0.0
7462,39.0,432.0,330.0,8.0,0.0
7463,87.0,0.0,780.0,0.0,0.0
7464,75.0,0.0,780.0,5.0,0.0
7465,78.0,0.0,780.0,4.0,0.0
7466,75.0,48.0,300.0,6.0,0.0
7467,54.0,0.0,300.0,7.0,0.0
7468,42.0,432.0,330.0,8.0,0.0
7469,70.0,48.0,300.0,6.0,0.0
7470,58.0,48.0,300.0,7.0,0.0
7471,75.0,144.0,1110.0,6.0,0.0
7472,46.0,240.0,330.0,8.0,0.0
7473,51.0,144.0,330.0,8.0,0.0
7474,63.0,48.0,300.0,7.0,0.0
7475,66.0,144.0,480.0,5.0,0.0
7476,54.0,0.0,960.0,8.0,0.0
7477,69.0,96.0,300.0,5.0,0.0
7478,69.0,192.0,1530.0,1.0,0.0
7479,66.0,288.0,960.0,7.0,0.0
7480,57.0,0.0,1530.0,2.0,0.0
7481,45.0,0.0,1530.0,2.0,0.0
7482,73.0,240.0,150.0,6.0,0.0
7483,72.0,144.0,150.0,6.0,0.0
7484,72.0,96.0,300.0,5.0,0.0
7485,70.0,96.0,150.0,6.0,0.0
7486,69.0,48.0,300.0,6.0,0.0
7487,77.0,0.0,300.0,5.0,0.0
7488,65.0,0.0,300.0,7.0,0.0
7489,53.0,240.0,330.0,8.0,0.0
7490,63.0,0.0,300.0,7.0,0.0
7491,51.0,144.0,330.0,8.0,0.0
7492,81.0,0.0,480.0,5.0,0.0
7493,72.0,48.0,300.0,6.0,0.0
7494,72.0,336.0,480.0,4.0,0.0
7495,50.0,0.0,780.0,8.0,0.0
7496,70.0,48.0,780.0,6.0,0.0
7497,82.0,240.0,1530.0,1.0,0.0
7498,70.0,0.0,1530.0,1.0,0.0
7499,82.0,384.0,390.0,5.0,0.0
7500,77.0,48.0,330.0,4.0,0.0
7501,46.0,0.0,1530.0,2.0,0.0
7502,58.0,0.0,1530.0,2.0,0.0
7503,94.0,0.0,1530.0,0.0,0.0
7504,62.0,0.0,780.0,7.0,0.0
7505,65.0,432.0,390.0,5.0,0.0
7506,82.0,48.0,330.0,4.0,0.0
7507,86.0,48.0,330.0,4.0,0.0
7508,70.0,192.0,390.0,5.0,0.0
7509,38.0,192.0,480.0,8.0,0.0
7510,70.0,96.0,390.0,6.0,0.0
7511,74.0,0.0,390.0,5.0,0.0
7512,89.0,48.0,330.0,4.0,0.0
7513,50.0,0.0,480.0,7.0,0.0
7514,49.0,48.0,390.0,7.0,0.0
7515,95.0,0.0,1140.0,0.0,0.0
7516,71.0,96.0,780.0,6.0,0.0
7517,59.0,192.0,1140.0,2.0,0.0
7518,77.0,192.0,180.0,5.0,0.0
7519,37.0,0.0,390.0,8.0,0.0
7520,92.0,0.0,780.0,4.0,0.0
7521,83.0,0.0,1140.0,1.0,0.0
7522,71.0,0.0,1140.0,1.0,0.0
7523,47.0,0.0,1140.0,2.0,0.0
7524,76.0,240.0,180.0,5.0,0.0
7525,44.0,0.0,390.0,8.0,0.0
7526,56.0,48.0,390.0,7.0,0.0
7527,77.0,96.0,180.0,5.0,0.0
7528,79.0,240.0,180.0,5.0,0.0
7529,49.0,48.0,390.0,8.0,0.0
7530,80.0,0.0,180.0,5.0,0.0
7531,61.0,0.0,390.0,7.0,0.0
7532,83.0,0.0,780.0,4.0,0.0
7533,65.0,96.0,780.0,6.0,0.0
7534,79.0,240.0,180.0,5.0,0.0
7535,80.0,96.0,180.0,5.0,0.0
7536,71.0,0.0,480.0,1.0,0.0
7537,71.0,192.0,480.0,0.0,0.0
7538,37.0,0.0,390.0,8.0,0.0
7539,49.0,48.0,390.0,7.0,0.0
7540,59.0,0.0,480.0,2.0,0.0
7541,77.0,48.0,180.0,5.0,0.0
7542,76.0,96.0,180.0,5.0,0.0
7543,84.0,0.0,180.0,4.0,0.0
7544,48.0,144.0,780.0,7.0,0.0
7545,36.0,0.0,780.0,8.0,0.0
7546,60.0,0.0,300.0,2.0,0.0
7547,72.0,0.0,300.0,0.0,0.0
7548,67.0,0.0,780.0,6.0,0.0
7549,72.0,144.0,300.0,1.0,0.0
7550,72.0,240.0,180.0,5.0,0.0
7551,84.0,0.0,180.0,4.0,0.0
7552,72.0,96.0,180.0,5.0,0.0
7553,84.0,0.0,180.0,4.0,0.0
7554,72.0,0.0,300.0,0.0,0.0
7555,60.0,0.0,300.0,2.0,0.0
7556,72.0,0.0,300.0,1.0,0.0
7557,72.0,240.0,180.0,5.0,0.0
7558,84.0,0.0,180.0,4.0,0.0
7559,84.0,0.0,180.0,4.0,0.0
7560,60.0,0.0,300.0,2.0,0.0
7561,76.0,0.0,300.0,1.0,0.0
7562,76.0,0.0,300.0,0.0,0.0
7563,64.0,144.0,300.0,2.0,0.0
7564,72.0,0.0,300.0,1.0,0.0
7565,72.0,96.0,180.0,5.0,0.0
7566,84.0,0.0,180.0,4.0,0.0
7567,72.0,240.0,180.0,5.0,0.0
7568,72.0,96.0,180.0,5.0,0.0
7569,84.0,0.0,180.0,4.0,0.0
7570,67.0,0.0,300.0,2.0,0.0
7571,79.0,0.0,300.0,0.0,0.0
7572,64.0,0.0,300.0,2.0,0.0
7573,76.0,0.0,300.0,1.0,0.0
7574,79.0,144.0,300.0,1.0,0.0
7575,72.0,0.0,180.0,5.0,0.0
7576,84.0,240.0,180.0,4.0,0.0
7577,67.0,192.0,960.0,2.0,0.0
7578,72.0,0.0,180.0,5.0,0.0
7579,82.0,0.0,960.0,1.0,0.0
7580,82.0,0.0,960.0,0.0,0.0
7581,64.0,0.0,960.0,2.0,0.0
7582,79.0,0.0,960.0,1.0,0.0
7583,84.0,240.0,180.0,4.0,0.0
7584,72.0,0.0,180.0,5.0,0.0
7585,84.0,240.0,180.0,4.0,0.0
7586,84.0,0.0,180.0,4.0,0.0
7587,72.0,240.0,180.0,5.0,0.0
7588,72.0,48.0,180.0,5.0,0.0
7589,84.0,0.0,180.0,4.0,0.0
7590,84.0,96.0,180.0,4.0,0.0
7591,72.0,0.0,180.0,5.0,0.0
7592,80.0,0.0,300.0,0.0,0.0
7593,68.0,0.0,300.0,2.0,0.0
7594,65.0,0.0,300.0,2.0,0.0
7595,77.0,144.0,300.0,1.0,0.0
7596,80.0,0.0,300.0,1.0,0.0
7597,84.0,240.0,180.0,4.0,0.0
7598,72.0,0.0,180.0,5.0,0.0
7599,36.0,0.0,480.0,8.0,0.0
7600,60.0,0.0,480.0,6.0,0.0
7601,79.0,0.0,300.0,0.0,0.0
7602,72.0,96.0,180.0,5.0,0.0
7603,48.0,192.0,480.0,7.0,0.0
7604,84.0,0.0,180.0,4.0,0.0
7605,67.0,0.0,300.0,2.0,0.0
7606,64.0,0.0,300.0,2.0,0.0
7607,76.0,144.0,300.0,1.0,0.0
7608,79.0,0.0,300.0,1.0,0.0
7609,84.0,48.0,180.0,4.0,0.0
7610,72.0,0.0,180.0,5.0,0.0
7611,56.0,0.0,330.0,6.0,0.0
7612,41.0,96.0,330.0,8.0,0.0
7613,72.0,144.0,180.0,5.0,0.0
7614,80.0,0.0,780.0,0.0,0.0
7615,65.0,48.0,780.0,2.0,0.0
7616,53.0,0.0,330.0,7.0,0.0
7617,80.0,0.0,780.0,1.0,0.0
7618,77.0,0.0,780.0,1.0,0.0
7619,84.0,0.0,180.0,4.0,0.0
7620,68.0,0.0,780.0,2.0,0.0
7621,84.0,240.0,180.0,4.0,0.0
7622,72.0,0.0,180.0,5.0,0.0
7623,60.0,0.0,330.0,6.0,0.0
7624,56.0,0.0,330.0,7.0,0.0
7625,72.0,0.0,180.0,5.0,0.0
7626,44.0,96.0,330.0,8.0,0.0
7627,84.0,96.0,180.0,4.0,0.0
7628,72.0,0.0,180.0,5.0,0.0
7629,84.0,240.0,180.0,4.0,0.0
7630,48.0,0.0,330.0,8.0,0.0
7631,65.0,0.0,330.0,6.0,0.0
7632,72.0,0.0,180.0,5.0,0.0
7633,84.0,144.0,180.0,4.0,0.0
7634,60.0,96.0,330.0,7.0,0.0
7635,72.0,240.0,180.0,5.0,0.0
7636,84.0,0.0,180.0,4.0,0.0
7637,65.0,0.0,330.0,7.0,0.0
7638,84.0,0.0,180.0,4.0,0.0
7639,68.0,96.0,330.0,6.0,0.0
7640,53.0,0.0,330.0,8.0,0.0
7641,72.0,144.0,180.0,5.0,0.0
7642,84.0,0.0,180.0,4.0,0.0
7643,72.0,240.0,180.0,5.0,0.0
7644,84.0,0.0,180.0,4.0,0.0
7645,68.0,192.0,960.0,7.0,0.0
7646,72.0,0.0,960.0,6.0,0.0
7647,72.0,240.0,180.0,5.0,0.0
7648,56.0,0.0,960.0,8.0,0.0
7649,84.0,0.0,180.0,4.0,0.0
7650,72.0,240.0,180.0,5.0,0.0
7651,72.0,0.0,180.0,5.0,0.0
7652,84.0,240.0,180.0,4.0,0.0
7653,72.0,0.0,180.0,5.0,0.0
7654,84.0,48.0,180.0,4.0,0.0
7655,70.0,0.0,330.0,6.0,0.0
7656,72.0,0.0,180.0,5.0,0.0
7657,84.0,144.0,180.0,4.0,0.0
7658,67.0,96.0,330.0,7.0,0.0
7659,55.0,0.0,330.0,8.0,0.0
7660,72.0,240.0,180.0,5.0,0.0
7661,84.0,0.0,180.0,4.0,0.0
7662,48.0,0.0,780.0,2.0,0.0
7663,84.0,0.0,180.0,4.0,0.0
7664,65.0,0.0,330.0,7.0,0.0
7665,53.0,0.0,330.0,8.0,0.0
7666,72.0,144.0,780.0,0.0,0.0
7667,72.0,144.0,180.0,5.0,0.0
7668,60.0,0.0,780.0,2.0,0.0
7669,72.0,0.0,780.0,1.0,0.0
7670,68.0,96.0,330.0,6.0,0.0
7671,84.0,240.0,180.0,4.0,0.0
7672,72.0,0.0,180.0,5.0,0.0
7673,72.0,96.0,180.0,5.0,0.0
7674,52.0,0.0,780.0,8.0,0.0
7675,64.0,0.0,780.0,7.0,0.0
7676,67.0,0.0,780.0,6.0,0.0
7677,84.0,0.0,180.0,4.0,0.0
7678,72.0,240.0,180.0,5.0,0.0
7679,84.0,0.0,180.0,4.0,0.0
7680,52.0,0.0,300.0,2.0,0.0
7681,48.0,0.0,300.0,2.0,0.0
7682,76.0,0.0,300.0,1.0,0.0
7683,76.0,144.0,300.0,0.0,0.0
7684,84.0,0.0,180.0,4.0,0.0
7685,72.0,96.0,180.0,5.0,0.0
7686,72.0,0.0,300.0,1.0,0.0
7687,84.0,0.0,180.0,4.0,0.0
7688,72.0,240.0,180.0,5.0,0.0
7689,76.0,0.0,300.0,1.0,0.0
7690,79.0,0.0,300.0,1.0,0.0
7691,72.0,0.0,180.0,5.0,0.0
7692,79.0,144.0,300.0,0.0,0.0
7693,52.0,0.0,300.0,2.0,0.0
7694,84.0,96.0,180.0,4.0,0.0
7695,55.0,0.0,300.0,2.0,0.0
7696,72.0,0.0,180.0,5.0,0.0
7697,84.0,240.0,180.0,4.0,0.0
7698,82.0,0.0,300.0,0.0,0.0
7699,58.0,0.0,300.0,2.0,0.0
7700,55.0,144.0,300.0,2.0,0.0
7701,82.0,0.0,300.0,1.0,0.0
7702,79.0,0.0,300.0,1.0,0.0
7703,84.0,0.0,180.0,4.0,0.0
7704,72.0,96.0,180.0,5.0,0.0
7705,72.0,240.0,180.0,5.0,0.0
7706,84.0,0.0,180.0,4.0,0.0
7707,58.0,0.0,960.0,2.0,0.0
7708,85.0,0.0,960.0,1.0,0.0
7709,72.0,0.0,180.0,5.0,0.0
7710,61.0,0.0,960.0,2.0,0.0
7711,82.0,192.0,960.0,1.0,0.0
7712,84.0,240.0,180.0,4.0,0.0
7713,88.0,0.0,960.0,0.0,0.0
7714,84.0,0.0,180.0,4.0,0.0
7715,72.0,240.0,180.0,5.0,0.0
7716,84.0,0.0,180.0,4.0,0.0
7717,72.0,240.0,180.0,5.0,0.0
7718,72.0,48.0,180.0,5.0,0.0
7719,84.0,0.0,180.0,4.0,0.0
7720,56.0,0.0,300.0,2.0,0.0
7721,60.0,0.0,300.0,2.0,0.0
7722,84.0,96.0,180.0,4.0,0.0
7723,80.0,0.0,300.0,1.0,0.0
7724,84.0,144.0,300.0,1.0,0.0
7725,89.0,0.0,300.0,0.0,0.0
7726,72.0,0.0,180.0,5.0,0.0
7727,84.0,240.0,180.0,4.0,0.0
7728,72.0,0.0,180.0,5.0,0.0
7729,55.0,0.0,300.0,2.0,0.0
7730,58.0,0.0,300.0,2.0,0.0
7731,72.0,96.0,180.0,5.0,0.0
7732,60.0,48.0,390.0,6.0,0.0
7733,48.0,0.0,390.0,7.0,0.0
7734,84.0,0.0,180.0,4.0,0.0
7735,82.0,0.0,300.0,1.0,0.0
7736,79.0,0.0,300.0,1.0,0.0
7737,36.0,0.0,390.0,8.0,0.0
7738,91.0,96.0,300.0,0.0,0.0
7739,84.0,0.0,180.0,4.0,0.0
7740,72.0,240.0,180.0,5.0,0.0
7741,56.0,0.0,780.0,2.0,0.0
7742,53.0,0.0,330.0,7.0,0.0
7743,84.0,144.0,180.0,4.0,0.0
7744,80.0,0.0,780.0,1.0,0.0
7745,56.0,0.0,330.0,6.0,0.0
7746,53.0,0.0,780.0,2.0,0.0
7747,41.0,96.0,330.0,8.0,0.0
7748,92.0,0.0,780.0,0.0,0.0
7749,72.0,0.0,180.0,5.0,0.0
7750,77.0,48.0,780.0,1.0,0.0
7751,72.0,0.0,180.0,5.0,0.0
7752,84.0,240.0,180.0,4.0,0.0
7753,84.0,0.0,180.0,4.0,0.0
7754,56.0,0.0,330.0,7.0,0.0
7755,72.0,96.0,180.0,5.0,0.0
7756,44.0,96.0,330.0,8.0,0.0
7757,60.0,0.0,330.0,6.0,0.0
7758,84.0,0.0,180.0,4.0,0.0
7759,72.0,240.0,180.0,5.0,0.0
7760,48.0,0.0,330.0,8.0,0.0
7761,60.0,96.0,330.0,7.0,0.0
7762,65.0,0.0,330.0,6.0,0.0
7763,84.0,0.0,180.0,4.0,0.0
7764,72.0,144.0,180.0,5.0,0.0
7765,84.0,0.0,180.0,4.0,0.0
7766,72.0,240.0,180.0,5.0,0.0
7767,84.0,0.0,180.0,4.0,0.0
7768,72.0,144.0,180.0,5.0,0.0
7769,53.0,96.0,330.0,8.0,0.0
7770,65.0,0.0,330.0,7.0,0.0
7771,68.0,0.0,330.0,6.0,0.0
7772,84.0,240.0,180.0,4.0,0.0
7773,72.0,0.0,180.0,5.0,0.0
7774,85.0,240.0,180.0,4.0,0.0
7775,89.0,0.0,960.0,0.0,0.0
7776,73.0,0.0,180.0,5.0,0.0
7777,72.0,0.0,780.0,6.0,0.0
7778,56.0,0.0,780.0,8.0,0.0
7779,72.0,192.0,960.0,2.0,0.0
7780,68.0,0.0,960.0,2.0,0.0
7781,77.0,0.0,960.0,1.0,0.0
7782,68.0,144.0,780.0,7.0,0.0
7783,73.0,0.0,180.0,5.0,0.0
7784,85.0,240.0,180.0,4.0,0.0
7785,85.0,0.0,180.0,4.0,0.0
7786,73.0,96.0,180.0,5.0,0.0
7787,85.0,48.0,180.0,4.0,0.0
7788,73.0,0.0,180.0,5.0,0.0
7789,55.0,0.0,330.0,8.0,0.0
7790,88.0,0.0,300.0,0.0,0.0
7791,70.0,0.0,300.0,2.0,0.0
7792,70.0,96.0,330.0,6.0,0.0
7793,73.0,0.0,180.0,5.0,0.0
7794,76.0,48.0,300.0,1.0,0.0
7795,85.0,96.0,180.0,4.0,0.0
7796,67.0,0.0,330.0,7.0,0.0
7797,67.0,0.0,300.0,2.0,0.0
7798,73.0,0.0,180.0,5.0,0.0
7799,85.0,240.0,180.0,4.0,0.0
7800,65.0,0.0,300.0,2.0,0.0
7801,68.0,0.0,300.0,2.0,0.0
7802,53.0,96.0,330.0,8.0,0.0
7803,85.0,96.0,180.0,4.0,0.0
7804,73.0,0.0,180.0,5.0,0.0
7805,77.0,0.0,300.0,1.0,0.0
7806,65.0,0.0,330.0,7.0,0.0
7807,89.0,48.0,300.0,0.0,0.0
7808,68.0,0.0,330.0,6.0,0.0
7809,73.0,0.0,180.0,5.0,0.0
7810,85.0,240.0,180.0,4.0,0.0
7811,72.0,240.0,180.0,5.0,0.0
7812,64.0,0.0,570.0,7.0,0.0
7813,84.0,0.0,180.0,4.0,0.0
7814,64.0,0.0,570.0,2.0,0.0
7815,70.0,0.0,570.0,6.0,0.0
7816,91.0,0.0,570.0,0.0,0.0
7817,52.0,96.0,570.0,8.0,0.0
7818,67.0,0.0,570.0,2.0,0.0
7819,79.0,0.0,570.0,1.0,0.0
7820,84.0,144.0,180.0,4.0,0.0
7821,72.0,0.0,180.0,5.0,0.0
7822,84.0,0.0,180.0,4.0,0.0
7823,72.0,240.0,180.0,5.0,0.0
7824,84.0,0.0,180.0,4.0,0.0
7825,72.0,240.0,180.0,5.0,0.0
7826,53.0,96.0,570.0,8.0,0.0
7827,72.0,0.0,180.0,5.0,0.0
7828,65.0,0.0,570.0,2.0,0.0
7829,80.0,0.0,1920.0,1.0,0.0
7830,92.0,192.0,1920.0,0.0,0.0
7831,68.0,0.0,570.0,6.0,0.0
7832,84.0,240.0,180.0,4.0,0.0
7833,68.0,0.0,570.0,2.0,0.0
7834,65.0,0.0,570.0,7.0,0.0
7835,72.0,0.0,180.0,5.0,0.0
7836,84.0,144.0,180.0,4.0,0.0
7837,84.0,240.0,180.0,4.0,0.0
7838,72.0,0.0,180.0,5.0,0.0
7839,72.0,240.0,180.0,5.0,0.0
7840,84.0,0.0,180.0,4.0,0.0
7841,65.0,0.0,570.0,2.0,0.0
7842,70.0,0.0,180.0,5.0,0.0
7843,50.0,0.0,570.0,8.0,0.0
7844,82.0,240.0,180.0,4.0,0.0
7845,65.0,0.0,570.0,6.0,0.0
7846,62.0,96.0,570.0,7.0,0.0
7847,62.0,0.0,570.0,2.0,0.0
7848,70.0,0.0,180.0,5.0,0.0
7849,82.0,144.0,180.0,4.0,0.0
7850,70.0,0.0,180.0,5.0,0.0
7851,82.0,240.0,180.0,4.0,0.0
7852,70.0,0.0,180.0,5.0,0.0
7853,82.0,48.0,180.0,4.0,0.0
7854,70.0,0.0,180.0,5.0,0.0
7855,64.0,0.0,570.0,2.0,0.0
7856,67.0,0.0,570.0,2.0,0.0
7857,52.0,96.0,570.0,8.0,0.0
7858,64.0,0.0,570.0,7.0,0.0
7859,82.0,240.0,180.0,4.0,0.0
7860,91.0,240.0,660.0,0.0,0.0
7861,67.0,0.0,570.0,6.0,0.0
7862,79.0,0.0,660.0,1.0,0.0
7863,70.0,144.0,180.0,5.0,0.0
7864,82.0,0.0,180.0,4.0,0.0
7865,70.0,0.0,180.0,5.0,0.0
7866,82.0,0.0,180.0,4.0,0.0
7867,70.0,432.0,180.0,5.0,0.0
7868,82.0,0.0,180.0,4.0,0.0
7869,80.0,0.0,390.0,4.0,0.0
7870,67.0,0.0,390.0,2.0,0.0
7871,72.0,0.0,390.0,6.0,0.0
7872,80.0,960.0,390.0,1.0,0.0
7873,79.0,0.0,390.0,1.0,0.0
7874,92.0,0.0,390.0,0.0,0.0
7875,65.0,0.0,390.0,7.0,0.0
7876,53.0,0.0,390.0,8.0,0.0
7877,68.0,0.0,390.0,2.0,0.0
7878,68.0,0.0,390.0,5.0,0.0
7879,80.0,0.0,390.0,1.0,0.0
7880,89.0,0.0,390.0,4.0,0.0
7881,61.0,0.0,390.0,7.0,0.0
7882,49.0,0.0,390.0,8.0,0.0
7883,89.0,0.0,390.0,0.0,0.0
7884,68.0,0.0,390.0,2.0,0.0
7885,65.0,0.0,390.0,2.0,0.0
7886,77.0,0.0,390.0,5.0,0.0
7887,73.0,0.0,390.0,6.0,0.0
7888,77.0,960.0,390.0,1.0,0.0
7889,58.0,960.0,390.0,7.0,0.0
7890,89.0,0.0,390.0,0.0,0.0
7891,67.0,0.0,390.0,2.0,0.0
7892,79.0,0.0,390.0,1.0,0.0
7893,46.0,0.0,390.0,8.0,0.0
7894,79.0,0.0,390.0,4.0,0.0
7895,67.0,0.0,390.0,5.0,0.0
7896,77.0,0.0,390.0,1.0,0.0
7897,65.0,0.0,390.0,2.0,0.0
7898,73.0,0.0,390.0,6.0,0.0
7899,70.0,0.0,390.0,6.0,0.0
7900,88.0,0.0,390.0,0.0,0.0
7901,79.0,0.0,390.0,1.0,0.0
7902,76.0,0.0,390.0,1.0,0.0
7903,64.0,0.0,390.0,2.0,0.0
7904,48.0,0.0,390.0,8.0,0.0
7905,88.0,960.0,390.0,4.0,0.0
7906,60.0,0.0,390.0,7.0,0.0
7907,76.0,0.0,390.0,5.0,0.0
7908,67.0,0.0,390.0,2.0,0.0
7909,68.0,0.0,390.0,6.0,0.0
7910,65.0,0.0,390.0,2.0,0.0
7911,49.0,3456.0,390.0,8.0,0.0
7912,89.0,0.0,390.0,4.0,0.0
7913,89.0,0.0,390.0,0.0,0.0
7914,77.0,0.0,390.0,5.0,0.0
7915,61.0,0.0,390.0,7.0,0.0
7916,77.0,0.0,390.0,1.0,0.0
7917,61.0,0.0,1920.0,6.0,0.0
7918,70.0,0.0,1920.0,4.0,0.0
7919,58.0,0.0,1920.0,7.0,0.0
7920,67.0,312.0,1920.0,5.0,0.0
7921,46.0,0.0,480.0,2.0,0.0
7922,70.0,0.0,480.0,1.0,0.0
7923,48.0,0.0,300.0,2.0,0.0
7924,60.0,960.0,1920.0,7.0,0.0
7925,60.0,0.0,1920.0,6.0,0.0
7926,65.0,0.0,1920.0,5.0,0.0
7927,72.0,480.0,300.0,1.0,0.0
7928,53.0,0.0,300.0,2.0,0.0
7929,77.0,480.0,300.0,1.0,0.0
7930,80.0,480.0,300.0,1.0,0.0
7931,56.0,0.0,300.0,2.0,0.0
7932,60.0,0.0,300.0,2.0,0.0
7933,84.0,168.0,300.0,1.0,0.0
7934,58.0,0.0,1530.0,6.0,0.0
7935,67.0,0.0,15.0,4.0,0.0
7936,61.0,192.0,960.0,2.0,0.0
7937,85.0,0.0,960.0,1.0,0.0
7938,64.0,96.0,1140.0,5.0,0.0
7939,48.0,384.0,1530.0,7.0,0.0
7940,84.0,0.0,300.0,1.0,0.0
7941,60.0,288.0,300.0,2.0,0.0
7942,72.0,288.0,480.0,4.0,0.0
7943,60.0,0.0,480.0,5.0,0.0
7944,48.0,0.0,480.0,2.0,0.0
7945,77.0,0.0,390.0,1.0,0.0
7946,65.0,96.0,300.0,5.0,0.0
7947,81.0,0.0,390.0,1.0,0.0
7948,57.0,0.0,390.0,6.0,0.0
7949,77.0,0.0,300.0,4.0,0.0
7950,53.0,0.0,300.0,2.0,0.0
7951,65.0,0.0,390.0,7.0,0.0
7952,84.0,384.0,390.0,0.0,0.0
7953,53.0,0.0,390.0,8.0,0.0
7954,81.0,0.0,300.0,4.0,0.0
7955,69.0,0.0,300.0,5.0,0.0
7956,57.0,480.0,300.0,2.0,0.0
7957,58.0,0.0,300.0,2.0,0.0
7958,49.0,0.0,390.0,8.0,0.0
7959,82.0,0.0,390.0,1.0,0.0
7960,77.0,0.0,390.0,1.0,0.0
7961,70.0,96.0,300.0,5.0,0.0
7962,82.0,0.0,300.0,4.0,0.0
7963,85.0,0.0,390.0,0.0,0.0
7964,61.0,384.0,390.0,7.0,0.0
7965,65.0,0.0,390.0,6.0,0.0
7966,73.0,960.0,300.0,5.0,0.0
7967,61.0,0.0,300.0,2.0,0.0
7968,85.0,0.0,300.0,4.0,0.0
7969,87.0,0.0,780.0,0.0,0.0
7970,87.0,0.0,780.0,1.0,0.0
7971,84.0,0.0,780.0,1.0,0.0
7972,45.0,192.0,780.0,8.0,0.0
7973,66.0,0.0,960.0,2.0,0.0
7974,57.0,0.0,780.0,7.0,0.0
7975,90.0,0.0,960.0,4.0,0.0
7976,72.0,0.0,780.0,6.0,0.0
7977,78.0,288.0,960.0,5.0,0.0
7978,77.0,96.0,300.0,5.0,0.0
7979,89.0,0.0,300.0,4.0,0.0
7980,65.0,384.0,390.0,2.0,0.0
7981,77.0,0.0,480.0,1.0,0.0
7982,77.0,288.0,480.0,0.0,0.0
7983,53.0,0.0,480.0,6.0,0.0
7984,53.0,0.0,480.0,7.0,0.0
7985,75.0,192.0,300.0,5.0,0.0
7986,87.0,0.0,300.0,4.0,0.0
7987,41.0,0.0,480.0,8.0,0.0
7988,46.0,0.0,300.0,8.0,0.0
7989,58.0,96.0,300.0,7.0,0.0
7990,86.0,0.0,390.0,4.0,0.0
7991,74.0,384.0,390.0,5.0,0.0
7992,70.0,0.0,390.0,2.0,0.0
7993,65.0,0.0,390.0,2.0,0.0
7994,58.0,0.0,300.0,6.0,0.0
7995,70.0,0.0,300.0,1.0,0.0
7996,82.0,0.0,300.0,1.0,0.0
7997,82.0,0.0,300.0,0.0,0.0
7998,62.0,0.0,300.0,6.0,0.0
7999,86.0,0.0,300.0,0.0,0.0
8000,86.0,0.0,300.0,1.0,0.0
8001,74.0,480.0,300.0,1.0,0.0
8002,50.0,0.0,300.0,8.0,0.0
8003,62.0,0.0,300.0,7.0,0.0
8004,66.0,0.0,390.0,2.0,0.0
8005,70.0,384.0,390.0,2.0,0.0
8006,87.0,0.0,300.0,0.0,0.0
8007,70.0,0.0,390.0,5.0,0.0
8008,90.0,0.0,390.0,4.0,0.0
8009,82.0,0.0,390.0,4.0,0.0
8010,63.0,0.0,300.0,7.0,0.0
8011,63.0,0.0,300.0,6.0,0.0
8012,51.0,96.0,300.0,8.0,0.0
8013,78.0,0.0,390.0,5.0,0.0
8014,87.0,0.0,300.0,1.0,0.0
8015,75.0,0.0,300.0,1.0,0.0
8016,78.0,960.0,300.0,1.0,0.0
8017,66.0,0.0,300.0,7.0,0.0
8018,66.0,0.0,300.0,6.0,0.0
8019,54.0,0.0,300.0,8.0,0.0
8020,90.0,0.0,300.0,0.0,0.0
8021,71.0,0.0,960.0,6.0,0.0
8022,74.0,192.0,780.0,4.0,0.0
8023,65.0,0.0,780.0,4.0,0.0
8024,59.0,0.0,960.0,8.0,0.0
8025,95.0,288.0,960.0,0.0,0.0
8026,65.0,0.0,780.0,5.0,0.0
8027,62.0,0.0,780.0,2.0,0.0
8028,65.0,0.0,780.0,2.0,0.0
8029,74.0,0.0,780.0,5.0,0.0
8030,83.0,0.0,960.0,1.0,0.0
8031,71.0,0.0,960.0,7.0,0.0
8032,70.0,0.0,300.0,7.0,0.0
8033,70.0,96.0,300.0,6.0,0.0
8034,58.0,0.0,300.0,8.0,0.0
8035,82.0,0.0,390.0,1.0,0.0
8036,94.0,384.0,390.0,0.0,0.0
8037,46.0,0.0,480.0,2.0,0.0
8038,56.0,0.0,300.0,8.0,0.0
8039,68.0,192.0,300.0,6.0,0.0
8040,70.0,288.0,480.0,5.0,0.0
8041,68.0,0.0,300.0,7.0,0.0
8042,70.0,0.0,480.0,4.0,0.0
8043,51.0,0.0,300.0,2.0,0.0
8044,67.0,0.0,390.0,7.0,0.0
8045,75.0,96.0,300.0,4.0,0.0
8046,63.0,0.0,300.0,5.0,0.0
8047,82.0,0.0,390.0,0.0,0.0
8048,79.0,0.0,390.0,1.0,0.0
8049,75.0,0.0,390.0,1.0,0.0
8050,55.0,384.0,390.0,8.0,0.0
8051,67.0,0.0,390.0,6.0,0.0
8052,55.0,0.0,300.0,2.0,0.0
8053,79.0,480.0,300.0,4.0,0.0
8054,67.0,0.0,300.0,5.0,0.0
8055,63.0,0.0,390.0,6.0,0.0
8056,56.0,0.0,300.0,2.0,0.0
8057,80.0,0.0,300.0,4.0,0.0
8058,59.0,384.0,390.0,7.0,0.0
8059,80.0,0.0,390.0,1.0,0.0
8060,75.0,0.0,390.0,1.0,0.0
8061,83.0,0.0,390.0,0.0,0.0
8062,68.0,96.0,300.0,5.0,0.0
8063,47.0,0.0,390.0,8.0,0.0
8064,71.0,0.0,300.0,5.0,0.0
8065,83.0,0.0,300.0,4.0,0.0
8066,59.0,960.0,300.0,2.0,0.0
8067,85.0,0.0,780.0,0.0,0.0
8068,85.0,0.0,780.0,1.0,0.0
8069,76.0,0.0,960.0,5.0,0.0
8070,70.0,0.0,780.0,6.0,0.0
8071,55.0,192.0,780.0,7.0,0.0
8072,82.0,0.0,780.0,1.0,0.0
8073,88.0,288.0,960.0,4.0,0.0
8074,43.0,0.0,780.0,8.0,0.0
8075,64.0,0.0,960.0,2.0,0.0
8076,63.0,384.0,390.0,2.0,0.0
8077,87.0,0.0,300.0,4.0,0.0
8078,75.0,96.0,300.0,5.0,0.0
8079,85.0,192.0,300.0,4.0,0.0
8080,75.0,0.0,480.0,0.0,0.0
8081,73.0,0.0,300.0,5.0,0.0
8082,51.0,0.0,480.0,7.0,0.0
8083,39.0,0.0,480.0,8.0,0.0
8084,75.0,0.0,480.0,1.0,0.0
8085,63.0,288.0,480.0,6.0,0.0
8086,68.0,0.0,390.0,2.0,0.0
8087,63.0,384.0,390.0,2.0,0.0
8088,84.0,0.0,390.0,4.0,0.0
8089,44.0,0.0,300.0,8.0,0.0
8090,56.0,0.0,300.0,7.0,0.0
8091,80.0,0.0,300.0,0.0,0.0
8092,80.0,0.0,300.0,1.0,0.0
8093,68.0,0.0,300.0,1.0,0.0
8094,72.0,0.0,390.0,5.0,0.0
8095,56.0,96.0,300.0,6.0,0.0
8096,84.0,480.0,300.0,1.0,0.0
8097,72.0,0.0,300.0,1.0,0.0
8098,60.0,0.0,300.0,7.0,0.0
8099,84.0,0.0,300.0,0.0,0.0
8100,60.0,0.0,300.0,6.0,0.0
8101,48.0,0.0,300.0,8.0,0.0
8102,80.0,0.0,390.0,5.0,0.0
8103,88.0,0.0,390.0,5.0,0.0
8104,85.0,0.0,300.0,1.0,0.0
8105,88.0,384.0,390.0,4.0,0.0
8106,61.0,0.0,300.0,7.0,0.0
8107,80.0,0.0,390.0,4.0,0.0
8108,64.0,0.0,390.0,2.0,0.0
8109,68.0,0.0,390.0,2.0,0.0
8110,49.0,0.0,300.0,8.0,0.0
8111,85.0,0.0,300.0,0.0,0.0
8112,61.0,0.0,300.0,6.0,0.0
8113,73.0,96.0,300.0,1.0,0.0
8114,64.0,960.0,300.0,6.0,0.0
8115,52.0,0.0,300.0,8.0,0.0
8116,64.0,0.0,300.0,7.0,0.0
8117,76.0,0.0,300.0,1.0,0.0
8118,88.0,0.0,300.0,0.0,0.0
8119,63.0,0.0,780.0,4.0,0.0
8120,72.0,0.0,780.0,4.0,0.0
8121,69.0,0.0,960.0,7.0,0.0
8122,69.0,0.0,960.0,6.0,0.0
8123,81.0,288.0,960.0,1.0,0.0
8124,60.0,0.0,780.0,2.0,0.0
8125,63.0,192.0,780.0,2.0,0.0
8126,57.0,0.0,960.0,8.0,0.0
8127,63.0,0.0,780.0,5.0,0.0
8128,72.0,0.0,780.0,5.0,0.0
8129,93.0,0.0,960.0,0.0,0.0
8130,56.0,0.0,300.0,8.0,0.0
8131,68.0,96.0,300.0,6.0,0.0
8132,68.0,0.0,300.0,7.0,0.0
8133,92.0,0.0,390.0,0.0,0.0
8134,80.0,384.0,390.0,1.0,0.0
8135,66.0,192.0,300.0,6.0,0.0
8136,66.0,0.0,300.0,7.0,0.0
8137,68.0,0.0,480.0,4.0,0.0
8138,54.0,0.0,300.0,8.0,0.0
8139,68.0,0.0,480.0,5.0,0.0
8140,44.0,288.0,480.0,2.0,0.0
8141,61.0,0.0,300.0,5.0,0.0
8142,73.0,0.0,390.0,1.0,0.0
8143,77.0,0.0,390.0,1.0,0.0
8144,53.0,0.0,390.0,8.0,0.0
8145,49.0,0.0,300.0,2.0,0.0
8146,65.0,0.0,390.0,7.0,0.0
8147,73.0,96.0,300.0,4.0,0.0
8148,80.0,0.0,390.0,0.0,0.0
8149,65.0,384.0,390.0,6.0,0.0
8150,77.0,480.0,300.0,4.0,0.0
8151,65.0,0.0,300.0,5.0,0.0
8152,53.0,0.0,300.0,2.0,0.0
8153,61.0,0.0,390.0,6.0,0.0
8154,45.0,0.0,390.0,8.0,0.0
8155,66.0,0.0,300.0,5.0,0.0
8156,73.0,0.0,390.0,1.0,0.0
8157,57.0,0.0,390.0,7.0,0.0
8158,81.0,0.0,390.0,0.0,0.0
8159,78.0,384.0,390.0,1.0,0.0
8160,54.0,0.0,300.0,2.0,0.0
8161,78.0,96.0,300.0,4.0,0.0
8162,69.0,0.0,300.0,5.0,0.0
8163,57.0,0.0,300.0,2.0,0.0
8164,81.0,960.0,300.0,4.0,0.0
8165,80.0,0.0,780.0,1.0,0.0
8166,83.0,0.0,780.0,1.0,0.0
8167,68.0,0.0,780.0,6.0,0.0
8168,41.0,0.0,780.0,8.0,0.0
8169,53.0,0.0,780.0,7.0,0.0
8170,62.0,288.0,960.0,2.0,0.0
8171,74.0,0.0,960.0,5.0,0.0
8172,86.0,0.0,960.0,4.0,0.0
8173,83.0,192.0,780.0,0.0,0.0
8174,85.0,96.0,300.0,4.0,0.0
8175,61.0,384.0,390.0,2.0,0.0
8176,73.0,0.0,300.0,5.0,0.0
8177,71.0,192.0,300.0,5.0,0.0
8178,73.0,0.0,480.0,1.0,0.0
8179,73.0,288.0,480.0,0.0,0.0
8180,61.0,0.0,480.0,6.0,0.0
8181,49.0,0.0,480.0,7.0,0.0
8182,38.0,0.0,480.0,8.0,0.0
8183,83.0,0.0,300.0,4.0,0.0
8184,64.0,384.0,390.0,2.0,0.0
8185,54.0,0.0,300.0,6.0,0.0
8186,61.0,0.0,390.0,2.0,0.0
8187,42.0,96.0,300.0,8.0,0.0
8188,78.0,0.0,300.0,1.0,0.0
8189,82.0,0.0,390.0,4.0,0.0
8190,54.0,0.0,300.0,7.0,0.0
8191,78.0,0.0,300.0,0.0,0.0
8192,66.0,0.0,300.0,1.0,0.0
8193,70.0,0.0,390.0,5.0,0.0
8194,82.0,0.0,300.0,0.0,0.0
8195,46.0,0.0,300.0,8.0,0.0
8196,58.0,0.0,300.0,7.0,0.0
8197,70.0,0.0,300.0,1.0,0.0
8198,58.0,480.0,300.0,6.0,0.0
8199,82.0,0.0,300.0,1.0,0.0
8200,59.0,0.0,390.0,2.0,0.0
8201,78.0,0.0,390.0,4.0,0.0
8202,86.0,0.0,390.0,5.0,0.0
8203,78.0,0.0,390.0,5.0,0.0
8204,47.0,96.0,300.0,8.0,0.0
8205,59.0,0.0,300.0,7.0,0.0
8206,71.0,0.0,390.0,5.0,0.0
8207,62.0,0.0,390.0,2.0,0.0
8208,83.0,0.0,300.0,0.0,0.0
8209,71.0,0.0,300.0,1.0,0.0
8210,83.0,0.0,300.0,1.0,0.0
8211,86.0,0.0,390.0,4.0,0.0
8212,59.0,0.0,300.0,6.0,0.0
8213,71.0,384.0,390.0,4.0,0.0
8214,86.0,1632.0,300.0,1.0,0.0
8215,74.0,0.0,300.0,1.0,0.0
8216,62.0,0.0,300.0,6.0,0.0
8217,86.0,0.0,300.0,0.0,0.0
8218,50.0,0.0,300.0,8.0,0.0
8219,62.0,0.0,300.0,7.0,0.0
8220,70.0,0.0,1530.0,5.0,0.0
8221,64.0,0.0,1530.0,2.0,0.0
8222,61.0,0.0,1530.0,2.0,0.0
8223,61.0,0.0,1530.0,5.0,0.0
8224,79.0,0.0,1440.0,1.0,0.0
8225,64.0,0.0,1530.0,6.0,0.0
8226,55.0,0.0,1440.0,8.0,0.0
8227,67.0,0.0,1440.0,7.0,0.0
8228,70.0,0.0,1530.0,4.0,0.0
8229,61.0,0.0,1530.0,4.0,0.0
8230,73.0,288.0,1530.0,3.0,0.0
8231,76.0,0.0,1530.0,3.0,0.0
8232,91.0,96.0,1440.0,0.0,0.0
8233,66.0,0.0,390.0,7.0,0.0
8234,78.0,0.0,390.0,1.0,0.0
8235,54.0,0.0,390.0,8.0,0.0
8236,90.0,864.0,390.0,0.0,0.0
8237,70.0,288.0,1140.0,5.0,0.0
8238,61.0,0.0,1140.0,5.0,0.0
8239,64.0,0.0,1440.0,2.0,0.0
8240,67.0,0.0,1440.0,7.0,0.0
8241,70.0,0.0,1140.0,4.0,0.0
8242,61.0,0.0,1440.0,2.0,0.0
8243,61.0,0.0,1140.0,4.0,0.0
8244,73.0,384.0,780.0,3.0,0.0
8245,76.0,0.0,780.0,3.0,0.0
8246,91.0,192.0,1440.0,0.0,0.0
8247,79.0,0.0,1440.0,1.0,0.0
8248,64.0,0.0,1140.0,6.0,0.0
8249,55.0,0.0,1440.0,8.0,0.0
8250,66.0,0.0,390.0,7.0,0.0
8251,71.0,0.0,180.0,4.0,0.0
8252,71.0,192.0,180.0,5.0,0.0
8253,66.0,48.0,390.0,2.0,0.0
8254,62.0,0.0,390.0,2.0,0.0
8255,90.0,0.0,390.0,0.0,0.0
8256,62.0,0.0,180.0,6.0,0.0
8257,78.0,0.0,390.0,1.0,0.0
8258,54.0,0.0,390.0,8.0,0.0
8259,62.0,0.0,180.0,6.0,0.0
8260,71.0,0.0,180.0,5.0,0.0
8261,71.0,240.0,180.0,4.0,0.0
8262,52.0,0.0,300.0,8.0,0.0
8263,88.0,0.0,300.0,0.0,0.0
8264,64.0,144.0,300.0,7.0,0.0
8265,61.0,0.0,300.0,2.0,0.0
8266,58.0,0.0,300.0,2.0,0.0
8267,76.0,0.0,300.0,1.0,0.0
8268,70.0,0.0,180.0,5.0,0.0
8269,67.0,0.0,180.0,6.0,0.0
8270,73.0,96.0,180.0,4.0,0.0
8271,70.0,240.0,180.0,5.0,0.0
8272,67.0,0.0,180.0,6.0,0.0
8273,73.0,0.0,180.0,4.0,0.0
8274,62.0,0.0,300.0,7.0,0.0
8275,66.0,96.0,180.0,6.0,0.0
8276,59.0,0.0,300.0,2.0,0.0
8277,62.0,0.0,300.0,2.0,0.0
8278,71.0,0.0,180.0,5.0,0.0
8279,50.0,144.0,300.0,8.0,0.0
8280,74.0,0.0,180.0,4.0,0.0
8281,74.0,0.0,300.0,1.0,0.0
8282,86.0,0.0,300.0,0.0,0.0
8283,74.0,240.0,180.0,4.0,0.0
8284,71.0,0.0,180.0,5.0,0.0
8285,66.0,0.0,180.0,6.0,0.0
8286,64.0,144.0,300.0,2.0,0.0
8287,64.0,0.0,180.0,6.0,0.0
8288,49.0,0.0,300.0,8.0,0.0
8289,73.0,0.0,180.0,5.0,0.0
8290,76.0,96.0,180.0,4.0,0.0
8291,85.0,0.0,300.0,0.0,0.0
8292,61.0,0.0,300.0,2.0,0.0
8293,61.0,0.0,300.0,7.0,0.0
8294,73.0,0.0,300.0,1.0,0.0
8295,64.0,240.0,180.0,6.0,0.0
8296,73.0,0.0,180.0,5.0,0.0
8297,76.0,0.0,180.0,4.0,0.0
8298,47.0,0.0,300.0,8.0,0.0
8299,66.0,0.0,300.0,2.0,0.0
8300,71.0,0.0,300.0,1.0,0.0
8301,62.0,0.0,300.0,2.0,0.0
8302,59.0,0.0,300.0,7.0,0.0
8303,62.0,0.0,180.0,6.0,0.0
8304,83.0,144.0,300.0,0.0,0.0
8305,78.0,96.0,180.0,4.0,0.0
8306,74.0,0.0,180.0,5.0,0.0
8307,62.0,0.0,180.0,6.0,0.0
8308,78.0,432.0,180.0,4.0,0.0
8309,74.0,0.0,180.0,5.0,0.0
8310,67.0,0.0,390.0,2.0,0.0
8311,70.0,0.0,390.0,1.0,0.0
8312,61.0,0.0,390.0,6.0,0.0
8313,73.0,0.0,390.0,3.0,0.0
8314,76.0,0.0,390.0,3.0,0.0
8315,46.0,0.0,390.0,8.0,0.0
8316,64.0,0.0,390.0,2.0,0.0
8317,76.0,0.0,390.0,5.0,0.0
8318,82.0,0.0,390.0,0.0,0.0
8319,79.0,3456.0,390.0,4.0,0.0
8320,58.0,0.0,390.0,7.0,0.0
8321,66.0,288.0,480.0,4.0,0.0
8322,59.0,96.0,780.0,7.0,0.0
8323,71.0,480.0,300.0,4.0,0.0
8324,47.0,0.0,780.0,8.0,0.0
8325,59.0,0.0,780.0,2.0,0.0
8326,74.0,0.0,300.0,4.0,0.0
8327,62.0,384.0,390.0,6.0,0.0
8328,71.0,0.0,390.0,5.0,0.0
8329,62.0,384.0,390.0,6.0,0.0
8330,78.0,96.0,300.0,4.0,0.0
8331,71.0,0.0,390.0,5.0,0.0
8332,71.0,0.0,390.0,5.0,0.0
8333,62.0,864.0,390.0,6.0,0.0
8334,83.0,96.0,300.0,4.0,0.0
8335,59.0,96.0,780.0,2.0,0.0
8336,47.0,0.0,780.0,8.0,0.0
8337,59.0,0.0,780.0,7.0,0.0
8338,86.0,288.0,960.0,4.0,0.0
8339,68.0,96.0,390.0,5.0,0.0
8340,65.0,0.0,390.0,6.0,0.0
8341,85.0,96.0,300.0,4.0,0.0
8342,68.0,0.0,390.0,5.0,0.0
8343,65.0,240.0,390.0,6.0,0.0
8344,89.0,96.0,300.0,0.0,0.0
8345,85.0,0.0,300.0,1.0,0.0
8346,80.0,0.0,300.0,1.0,0.0
8347,73.0,0.0,300.0,3.0,0.0
8348,59.0,0.0,300.0,2.0,0.0
8349,77.0,96.0,180.0,5.0,0.0
8350,59.0,0.0,300.0,7.0,0.0
8351,77.0,48.0,150.0,4.0,0.0
8352,47.0,0.0,300.0,8.0,0.0
8353,73.0,0.0,870.0,6.0,0.0
8354,80.0,48.0,150.0,4.0,0.0
8355,80.0,288.0,180.0,5.0,0.0
8356,58.0,0.0,300.0,2.0,0.0
8357,78.0,48.0,240.0,5.0,0.0
8358,78.0,0.0,300.0,1.0,0.0
8359,85.0,0.0,300.0,1.0,0.0
8360,66.0,0.0,300.0,3.0,0.0
8361,73.0,0.0,300.0,3.0,0.0
8362,58.0,96.0,300.0,7.0,0.0
8363,78.0,0.0,240.0,4.0,0.0
8364,46.0,0.0,300.0,8.0,0.0
8365,90.0,0.0,300.0,0.0,0.0
8366,82.0,240.0,150.0,4.0,0.0
8367,82.0,0.0,150.0,5.0,0.0
8368,80.0,0.0,150.0,5.0,0.0
8369,59.0,0.0,300.0,2.0,0.0
8370,73.0,0.0,780.0,6.0,0.0
8371,80.0,0.0,300.0,1.0,0.0
8372,73.0,0.0,300.0,3.0,0.0
8373,85.0,0.0,300.0,1.0,0.0
8374,47.0,0.0,300.0,8.0,0.0
8375,80.0,144.0,150.0,4.0,0.0
8376,89.0,96.0,300.0,0.0,0.0
8377,59.0,0.0,300.0,7.0,0.0
8378,77.0,336.0,150.0,4.0,0.0
8379,77.0,0.0,150.0,5.0,0.0
8380,78.0,0.0,300.0,1.0,0.0
8381,78.0,0.0,240.0,4.0,0.0
8382,85.0,96.0,300.0,1.0,0.0
8383,58.0,0.0,300.0,2.0,0.0
8384,73.0,0.0,300.0,3.0,0.0
8385,66.0,0.0,300.0,3.0,0.0
8386,78.0,48.0,240.0,5.0,0.0
8387,58.0,0.0,300.0,7.0,0.0
8388,90.0,0.0,300.0,0.0,0.0
8389,46.0,0.0,300.0,8.0,0.0
8390,82.0,0.0,150.0,4.0,0.0
8391,82.0,240.0,150.0,5.0,0.0
8392,59.0,0.0,300.0,7.0,0.0
8393,80.0,0.0,150.0,4.0,0.0
8394,73.0,864.0,390.0,6.0,0.0
8395,59.0,0.0,300.0,2.0,0.0
8396,73.0,0.0,300.0,3.0,0.0
8397,47.0,96.0,300.0,8.0,0.0
8398,80.0,0.0,300.0,1.0,0.0
8399,85.0,0.0,300.0,1.0,0.0
8400,80.0,144.0,150.0,5.0,0.0
8401,89.0,0.0,300.0,0.0,0.0
8402,77.0,0.0,150.0,4.0,0.0
8403,77.0,0.0,150.0,5.0,0.0
8404,46.0,0.0,780.0,8.0,0.0
8405,90.0,0.0,780.0,0.0,0.0
8406,58.0,0.0,780.0,2.0,0.0
8407,73.0,0.0,780.0,3.0,0.0
8408,66.0,1152.0,780.0,3.0,0.0
8409,73.0,0.0,780.0,6.0,0.0
8410,78.0,0.0,780.0,1.0,0.0
8411,85.0,0.0,780.0,1.0,0.0
8412,58.0,0.0,780.0,7.0,0.0
8413,78.0,0.0,780.0,5.0,0.0
8414,78.0,0.0,780.0,4.0,0.0
8415,78.0,288.0,480.0,4.0,0.0
8416,79.0,480.0,300.0,4.0,0.0
8417,52.0,0.0,780.0,2.0,0.0
8418,40.0,0.0,780.0,8.0,0.0
8419,52.0,96.0,780.0,7.0,0.0
8420,67.0,384.0,390.0,5.0,0.0
8421,82.0,0.0,300.0,4.0,0.0
8422,64.0,0.0,390.0,6.0,0.0
8423,85.0,96.0,300.0,4.0,0.0
8424,67.0,0.0,390.0,5.0,0.0
8425,64.0,384.0,390.0,6.0,0.0
8426,88.0,96.0,300.0,4.0,0.0
8427,67.0,0.0,390.0,5.0,0.0
8428,64.0,864.0,390.0,6.0,0.0
8429,54.0,0.0,780.0,2.0,0.0
8430,54.0,96.0,780.0,7.0,0.0
8431,42.0,0.0,780.0,8.0,0.0
8432,91.0,288.0,960.0,4.0,0.0
8433,70.0,0.0,390.0,5.0,0.0
8434,64.0,96.0,390.0,6.0,0.0
8435,70.0,0.0,390.0,5.0,0.0
8436,90.0,96.0,300.0,4.0,0.0
8437,64.0,240.0,390.0,6.0,0.0
8438,90.0,96.0,300.0,0.0,0.0
8439,82.0,144.0,150.0,4.0,0.0
8440,82.0,0.0,300.0,1.0,0.0
8441,73.0,0.0,150.0,5.0,0.0
8442,54.0,0.0,300.0,7.0,0.0
8443,42.0,0.0,300.0,8.0,0.0
8444,76.0,0.0,300.0,3.0,0.0
8445,66.0,0.0,300.0,3.0,0.0
8446,54.0,0.0,300.0,2.0,0.0
8447,66.0,0.0,870.0,6.0,0.0
8448,88.0,0.0,300.0,1.0,0.0
8449,76.0,0.0,150.0,5.0,0.0
8450,85.0,336.0,150.0,4.0,0.0
8451,59.0,0.0,300.0,7.0,0.0
8452,74.0,48.0,240.0,5.0,0.0
8453,66.0,0.0,300.0,3.0,0.0
8454,83.0,0.0,240.0,4.0,0.0
8455,90.0,0.0,300.0,0.0,0.0
8456,83.0,0.0,300.0,1.0,0.0
8457,86.0,0.0,300.0,1.0,0.0
8458,47.0,96.0,300.0,8.0,0.0
8459,74.0,0.0,300.0,3.0,0.0
8460,59.0,0.0,300.0,2.0,0.0
8461,78.0,0.0,150.0,5.0,0.0
8462,86.0,240.0,150.0,4.0,0.0
8463,85.0,0.0,150.0,4.0,0.0
8464,90.0,0.0,300.0,0.0,0.0
8465,54.0,96.0,300.0,7.0,0.0
8466,76.0,144.0,150.0,5.0,0.0
8467,76.0,0.0,300.0,3.0,0.0
8468,66.0,0.0,300.0,3.0,0.0
8469,88.0,0.0,300.0,1.0,0.0
8470,82.0,0.0,300.0,1.0,0.0
8471,42.0,0.0,300.0,8.0,0.0
8472,66.0,0.0,780.0,6.0,0.0
8473,54.0,0.0,300.0,2.0,0.0
8474,73.0,336.0,150.0,5.0,0.0
8475,82.0,0.0,150.0,4.0,0.0
8476,83.0,48.0,240.0,4.0,0.0
8477,90.0,96.0,300.0,0.0,0.0
8478,59.0,0.0,300.0,2.0,0.0
8479,66.0,0.0,300.0,3.0,0.0
8480,74.0,0.0,300.0,3.0,0.0
8481,47.0,0.0,300.0,8.0,0.0
8482,59.0,0.0,300.0,7.0,0.0
8483,74.0,0.0,240.0,5.0,0.0
8484,83.0,0.0,300.0,1.0,0.0
8485,86.0,0.0,300.0,1.0,0.0
8486,86.0,0.0,150.0,4.0,0.0
8487,78.0,240.0,150.0,5.0,0.0
8488,90.0,0.0,300.0,0.0,0.0
8489,54.0,0.0,300.0,2.0,0.0
8490,42.0,0.0,300.0,8.0,0.0
8491,66.0,864.0,390.0,6.0,0.0
8492,76.0,144.0,150.0,5.0,0.0
8493,85.0,0.0,150.0,4.0,0.0
8494,54.0,0.0,300.0,7.0,0.0
8495,82.0,0.0,300.0,1.0,0.0
8496,88.0,0.0,300.0,1.0,0.0
8497,66.0,0.0,300.0,3.0,0.0
8498,76.0,96.0,300.0,3.0,0.0
8499,73.0,0.0,150.0,5.0,0.0
8500,82.0,0.0,150.0,4.0,0.0
8501,59.0,0.0,780.0,2.0,0.0
8502,83.0,0.0,780.0,4.0,0.0
8503,90.0,0.0,780.0,0.0,0.0
8504,66.0,0.0,780.0,6.0,0.0
8505,47.0,0.0,780.0,8.0,0.0
8506,83.0,0.0,780.0,1.0,0.0
8507,86.0,0.0,780.0,1.0,0.0
8508,74.0,0.0,780.0,3.0,0.0
8509,66.0,960.0,780.0,3.0,0.0
8510,74.0,0.0,780.0,5.0,0.0
8511,59.0,0.0,780.0,7.0,0.0
8512,42.0,0.0,300.0,8.0,0.0
8513,90.0,576.0,300.0,4.0,0.0
8514,54.0,0.0,300.0,2.0,0.0
8515,66.0,0.0,300.0,2.0,0.0
8516,54.0,0.0,300.0,7.0,0.0
8517,66.0,0.0,300.0,1.0,0.0
8518,78.0,0.0,300.0,1.0,0.0
8519,54.0,0.0,300.0,3.0,0.0
8520,78.0,0.0,300.0,5.0,0.0
8521,66.0,0.0,300.0,6.0,0.0
8522,90.0,0.0,300.0,0.0,0.0
8523,66.0,0.0,300.0,3.0,0.0
8524,66.0,0.0,780.0,2.0,0.0
8525,78.0,0.0,390.0,5.0,0.0
8526,42.0,0.0,780.0,8.0,0.0
8527,66.0,384.0,390.0,6.0,0.0
8528,54.0,0.0,780.0,3.0,0.0
8529,90.0,0.0,780.0,0.0,0.0
8530,90.0,192.0,1140.0,4.0,0.0
8531,54.0,0.0,390.0,7.0,0.0
8532,78.0,0.0,780.0,1.0,0.0
8533,66.0,0.0,780.0,1.0,0.0
8534,54.0,96.0,780.0,2.0,0.0
8535,66.0,0.0,780.0,3.0,0.0
8536,70.0,0.0,390.0,6.0,0.0
8537,66.0,0.0,390.0,7.0,0.0
8538,73.0,288.0,390.0,5.0,0.0
8539,70.0,0.0,390.0,6.0,0.0
8540,66.0,480.0,390.0,7.0,0.0
8541,73.0,0.0,390.0,5.0,0.0
8542,73.0,156.0,390.0,5.0,0.0
8543,66.0,0.0,390.0,7.0,0.0
8544,70.0,0.0,390.0,6.0,0.0
8545,78.0,0.0,390.0,4.0,0.0
8546,71.0,0.0,480.0,6.0,0.0
8547,81.0,60.0,60.0,4.0,0.0
8548,66.0,96.0,1140.0,7.0,0.0
8549,74.0,0.0,480.0,5.0,0.0
8550,79.0,60.0,60.0,4.0,0.0
8551,81.0,60.0,60.0,4.0,0.0
8552,79.0,60.0,60.0,4.0,0.0
8553,81.0,60.0,60.0,4.0,0.0
8554,79.0,60.0,60.0,4.0,0.0
8555,81.0,60.0,60.0,4.0,0.0
8556,79.0,288.0,60.0,4.0,0.0
8557,70.0,288.0,390.0,6.0,0.0
8558,78.0,96.0,300.0,4.0,0.0
8559,73.0,0.0,390.0,5.0,0.0
8560,78.0,96.0,300.0,4.0,0.0
8561,70.0,0.0,390.0,6.0,0.0
8562,73.0,384.0,390.0,5.0,0.0
8563,66.0,0.0,300.0,6.0,0.0
8564,78.0,0.0,300.0,1.0,0.0
8565,54.0,0.0,300.0,2.0,0.0
8566,54.0,0.0,300.0,3.0,0.0
8567,66.0,0.0,300.0,2.0,0.0
8568,90.0,0.0,300.0,0.0,0.0
8569,90.0,0.0,300.0,4.0,0.0
8570,78.0,0.0,300.0,5.0,0.0
8571,54.0,0.0,300.0,7.0,0.0
8572,42.0,0.0,300.0,8.0,0.0
8573,66.0,576.0,300.0,1.0,0.0
8574,66.0,0.0,300.0,3.0,0.0
8575,66.0,0.0,390.0,6.0,0.0
8576,78.0,0.0,390.0,5.0,0.0
8577,66.0,96.0,780.0,2.0,0.0
8578,54.0,0.0,780.0,2.0,0.0
8579,90.0,192.0,1140.0,4.0,0.0
8580,90.0,0.0,780.0,0.0,0.0
8581,66.0,0.0,780.0,3.0,0.0
8582,54.0,0.0,780.0,3.0,0.0
8583,66.0,0.0,780.0,1.0,0.0
8584,78.0,0.0,780.0,1.0,0.0
8585,54.0,384.0,390.0,7.0,0.0
8586,42.0,0.0,780.0,8.0,0.0
8587,73.0,0.0,390.0,5.0,0.0
8588,70.0,0.0,390.0,6.0,0.0
8589,66.0,288.0,390.0,7.0,0.0
8590,70.0,0.0,390.0,6.0,0.0
8591,73.0,0.0,390.0,5.0,0.0
8592,66.0,480.0,390.0,7.0,0.0
8593,70.0,0.0,390.0,6.0,0.0
8594,73.0,0.0,390.0,5.0,0.0
8595,66.0,156.0,390.0,7.0,0.0
8596,78.0,0.0,390.0,4.0,0.0
8597,81.0,60.0,60.0,4.0,0.0
8598,71.0,0.0,480.0,6.0,0.0
8599,74.0,0.0,480.0,5.0,0.0
8600,66.0,96.0,1140.0,7.0,0.0
8601,79.0,60.0,60.0,4.0,0.0
8602,81.0,60.0,60.0,4.0,0.0
8603,79.0,60.0,60.0,4.0,0.0
8604,81.0,60.0,60.0,4.0,0.0
8605,79.0,60.0,60.0,4.0,0.0
8606,81.0,60.0,60.0,4.0,0.0
8607,79.0,288.0,60.0,4.0,0.0
8608,70.0,288.0,390.0,6.0,0.0
8609,73.0,0.0,390.0,5.0,0.0
8610,78.0,96.0,300.0,4.0,0.0
8611,73.0,576.0,390.0,5.0,0.0
8612,78.0,96.0,300.0,4.0,0.0
8613,70.0,0.0,390.0,6.0,0.0
8614,78.0,288.0,480.0,4.0,0.0
8615,79.0,480.0,300.0,4.0,0.0
8616,40.0,0.0,780.0,8.0,0.0
8617,52.0,96.0,780.0,2.0,0.0
8618,52.0,0.0,780.0,7.0,0.0
8619,82.0,0.0,300.0,4.0,0.0
8620,64.0,384.0,390.0,6.0,0.0
8621,67.0,0.0,390.0,5.0,0.0
8622,64.0,0.0,390.0,6.0,0.0
8623,67.0,384.0,390.0,5.0,0.0
8624,85.0,96.0,300.0,4.0,0.0
8625,67.0,0.0,390.0,5.0,0.0
8626,88.0,96.0,300.0,4.0,0.0
8627,64.0,864.0,390.0,6.0,0.0
8628,42.0,96.0,780.0,8.0,0.0
8629,54.0,0.0,780.0,7.0,0.0
8630,91.0,384.0,960.0,4.0,0.0
8631,54.0,0.0,780.0,2.0,0.0
8632,70.0,0.0,390.0,5.0,0.0
8633,64.0,96.0,390.0,6.0,0.0
8634,64.0,0.0,390.0,6.0,0.0
8635,70.0,0.0,390.0,5.0,0.0
8636,90.0,240.0,390.0,4.0,0.0
8637,88.0,0.0,300.0,1.0,0.0
8638,73.0,144.0,150.0,5.0,0.0
8639,66.0,240.0,870.0,6.0,0.0
8640,42.0,0.0,300.0,8.0,0.0
8641,54.0,0.0,300.0,7.0,0.0
8642,90.0,0.0,300.0,0.0,0.0
8643,82.0,0.0,150.0,4.0,0.0
8644,54.0,0.0,300.0,2.0,0.0
8645,82.0,0.0,300.0,1.0,0.0
8646,76.0,0.0,300.0,3.0,0.0
8647,66.0,96.0,300.0,3.0,0.0
8648,76.0,0.0,150.0,5.0,0.0
8649,85.0,336.0,150.0,4.0,0.0
8650,86.0,0.0,300.0,1.0,0.0
8651,66.0,0.0,300.0,3.0,0.0
8652,59.0,0.0,300.0,2.0,0.0
8653,90.0,0.0,300.0,0.0,0.0
8654,74.0,0.0,300.0,3.0,0.0
8655,83.0,0.0,300.0,1.0,0.0
8656,47.0,96.0,300.0,8.0,0.0
8657,74.0,0.0,240.0,5.0,0.0
8658,59.0,0.0,300.0,7.0,0.0
8659,83.0,48.0,240.0,4.0,0.0
8660,78.0,0.0,150.0,5.0,0.0
8661,86.0,0.0,150.0,4.0,0.0
8662,54.0,0.0,300.0,7.0,0.0
8663,88.0,0.0,300.0,1.0,0.0
8664,82.0,0.0,300.0,1.0,0.0
8665,66.0,0.0,780.0,6.0,0.0
8666,42.0,0.0,300.0,8.0,0.0
8667,54.0,0.0,300.0,2.0,0.0
8668,76.0,0.0,150.0,5.0,0.0
8669,66.0,96.0,300.0,3.0,0.0
8670,76.0,0.0,300.0,3.0,0.0
8671,85.0,144.0,150.0,4.0,0.0
8672,90.0,0.0,300.0,0.0,0.0
8673,73.0,336.0,150.0,5.0,0.0
8674,82.0,0.0,150.0,4.0,0.0
8675,86.0,0.0,300.0,1.0,0.0
8676,83.0,48.0,240.0,4.0,0.0
8677,74.0,0.0,300.0,3.0,0.0
8678,90.0,0.0,300.0,0.0,0.0
8679,59.0,96.0,300.0,2.0,0.0
8680,74.0,0.0,240.0,5.0,0.0
8681,59.0,0.0,300.0,7.0,0.0
8682,83.0,0.0,300.0,1.0,0.0
8683,66.0,0.0,300.0,3.0,0.0
8684,47.0,0.0,300.0,8.0,0.0
8685,86.0,0.0,150.0,4.0,0.0
8686,78.0,240.0,150.0,5.0,0.0
8687,66.0,0.0,390.0,6.0,0.0
8688,76.0,0.0,150.0,5.0,0.0
8689,54.0,0.0,300.0,2.0,0.0
8690,66.0,0.0,300.0,3.0,0.0
8691,82.0,0.0,300.0,1.0,0.0
8692,88.0,0.0,300.0,1.0,0.0
8693,42.0,0.0,300.0,8.0,0.0
8694,76.0,0.0,300.0,3.0,0.0
8695,85.0,144.0,150.0,4.0,0.0
8696,90.0,96.0,300.0,0.0,0.0
8697,54.0,0.0,300.0,7.0,0.0
8698,82.0,288.0,150.0,4.0,0.0
8699,73.0,0.0,150.0,5.0,0.0
8700,66.0,0.0,780.0,3.0,0.0
8701,90.0,0.0,780.0,0.0,0.0
8702,59.0,0.0,780.0,2.0,0.0
8703,83.0,192.0,180.0,4.0,0.0
8704,74.0,144.0,780.0,3.0,0.0
8705,59.0,0.0,780.0,7.0,0.0
8706,47.0,0.0,780.0,8.0,0.0
8707,83.0,0.0,780.0,1.0,0.0
8708,74.0,48.0,390.0,5.0,0.0
8709,66.0,0.0,780.0,6.0,0.0
8710,86.0,0.0,780.0,1.0,0.0
8711,78.0,240.0,180.0,4.0,0.0
8712,86.0,0.0,180.0,4.0,0.0
8713,86.0,96.0,180.0,5.0,0.0
8714,85.0,0.0,180.0,5.0,0.0
8715,85.0,240.0,180.0,4.0,0.0
8716,83.0,0.0,180.0,5.0,0.0
8717,83.0,240.0,180.0,4.0,0.0
8718,81.0,240.0,180.0,5.0,0.0
8719,81.0,0.0,180.0,4.0,0.0
8720,79.0,0.0,180.0,4.0,0.0
8721,79.0,240.0,180.0,5.0,0.0
8722,78.0,288.0,180.0,4.0,0.0
8723,78.0,0.0,180.0,5.0,0.0
8724,88.0,0.0,300.0,0.0,0.0
8725,76.0,0.0,240.0,4.0,0.0
8726,43.0,96.0,300.0,8.0,0.0
8727,71.0,0.0,300.0,3.0,0.0
8728,55.0,0.0,300.0,2.0,0.0
8729,71.0,0.0,300.0,6.0,0.0
8730,76.0,0.0,300.0,3.0,0.0
8731,55.0,0.0,300.0,7.0,0.0
8732,76.0,48.0,240.0,5.0,0.0
8733,83.0,0.0,300.0,1.0,0.0
8734,79.0,0.0,300.0,1.0,0.0
8735,79.0,0.0,150.0,5.0,0.0
8736,79.0,240.0,150.0,4.0,0.0
8737,57.0,0.0,300.0,2.0,0.0
8738,45.0,0.0,300.0,8.0,0.0
8739,87.0,0.0,300.0,0.0,0.0
8740,78.0,0.0,300.0,3.0,0.0
8741,72.0,0.0,300.0,6.0,0.0
8742,78.0,144.0,150.0,5.0,0.0
8743,78.0,0.0,150.0,4.0,0.0
8744,78.0,96.0,300.0,1.0,0.0
8745,84.0,0.0,300.0,1.0,0.0
8746,69.0,0.0,300.0,3.0,0.0
8747,57.0,0.0,300.0,7.0,0.0
8748,75.0,0.0,150.0,5.0,0.0
8749,75.0,336.0,150.0,4.0,0.0
8750,83.0,0.0,300.0,1.0,0.0
8751,43.0,0.0,300.0,8.0,0.0
8752,55.0,0.0,300.0,2.0,0.0
8753,76.0,0.0,300.0,3.0,0.0
8754,76.0,48.0,240.0,5.0,0.0
8755,76.0,0.0,240.0,4.0,0.0
8756,88.0,0.0,300.0,0.0,0.0
8757,71.0,0.0,300.0,3.0,0.0
8758,79.0,0.0,300.0,1.0,0.0
8759,71.0,0.0,300.0,6.0,0.0
8760,55.0,96.0,300.0,7.0,0.0
8761,79.0,0.0,150.0,4.0,0.0
8762,79.0,240.0,150.0,5.0,0.0
8763,87.0,96.0,300.0,0.0,0.0
8764,69.0,0.0,300.0,3.0,0.0
8765,84.0,0.0,300.0,1.0,0.0
8766,45.0,0.0,300.0,8.0,0.0
8767,78.0,0.0,300.0,3.0,0.0
8768,57.0,0.0,300.0,2.0,0.0
8769,57.0,0.0,300.0,7.0,0.0
8770,78.0,0.0,150.0,5.0,0.0
8771,72.0,0.0,300.0,6.0,0.0
8772,78.0,0.0,300.0,1.0,0.0
8773,78.0,144.0,150.0,4.0,0.0
8774,75.0,0.0,150.0,5.0,0.0
8775,75.0,288.0,150.0,4.0,0.0
8776,88.0,0.0,780.0,0.0,0.0
8777,71.0,0.0,780.0,3.0,0.0
8778,76.0,240.0,180.0,5.0,0.0
8779,43.0,0.0,780.0,8.0,0.0
8780,71.0,0.0,780.0,6.0,0.0
8781,55.0,0.0,780.0,2.0,0.0
8782,79.0,0.0,780.0,1.0,0.0
8783,83.0,0.0,780.0,1.0,0.0
8784,55.0,0.0,780.0,7.0,0.0
8785,76.0,0.0,180.0,4.0,0.0
8786,76.0,144.0,780.0,3.0,0.0
8787,71.0,240.0,180.0,4.0,0.0
8788,71.0,0.0,180.0,5.0,0.0
8789,79.0,96.0,180.0,5.0,0.0
8790,79.0,0.0,180.0,4.0,0.0
8791,78.0,240.0,180.0,5.0,0.0
8792,78.0,0.0,180.0,4.0,0.0
8793,76.0,0.0,180.0,4.0,0.0
8794,76.0,240.0,180.0,5.0,0.0
8795,74.0,240.0,180.0,4.0,0.0
8796,74.0,0.0,180.0,5.0,0.0
8797,73.0,240.0,180.0,4.0,0.0
8798,73.0,0.0,180.0,5.0,0.0
8799,71.0,288.0,180.0,5.0,0.0
8800,71.0,0.0,180.0,4.0,0.0
8801,63.0,0.0,300.0,6.0,0.0
8802,69.0,0.0,240.0,4.0,0.0
8803,84.0,96.0,300.0,1.0,0.0
8804,69.0,0.0,300.0,3.0,0.0
8805,42.0,0.0,300.0,8.0,0.0
8806,66.0,0.0,300.0,3.0,0.0
8807,69.0,48.0,240.0,5.0,0.0
8808,54.0,0.0,300.0,7.0,0.0
8809,54.0,0.0,300.0,2.0,0.0
8810,87.0,0.0,300.0,1.0,0.0
8811,93.0,0.0,300.0,0.0,0.0
8812,72.0,0.0,150.0,4.0,0.0
8813,72.0,240.0,150.0,5.0,0.0
8814,64.0,0.0,300.0,6.0,0.0
8815,76.0,0.0,300.0,3.0,0.0
8816,83.0,0.0,300.0,1.0,0.0
8817,43.0,0.0,300.0,8.0,0.0
8818,91.0,0.0,300.0,0.0,0.0
8819,88.0,0.0,300.0,1.0,0.0
8820,71.0,144.0,150.0,4.0,0.0
8821,71.0,0.0,150.0,5.0,0.0
8822,55.0,0.0,300.0,2.0,0.0
8823,55.0,96.0,300.0,7.0,0.0
8824,67.0,0.0,150.0,5.0,0.0
8825,67.0,336.0,150.0,4.0,0.0
8826,69.0,0.0,300.0,3.0,0.0
8827,42.0,96.0,300.0,8.0,0.0
8828,87.0,0.0,300.0,1.0,0.0
8829,69.0,48.0,240.0,5.0,0.0
8830,84.0,0.0,300.0,1.0,0.0
8831,54.0,0.0,300.0,2.0,0.0
8832,93.0,0.0,300.0,0.0,0.0
8833,54.0,0.0,300.0,7.0,0.0
8834,63.0,0.0,300.0,6.0,0.0
8835,66.0,0.0,300.0,3.0,0.0
8836,69.0,0.0,240.0,4.0,0.0
8837,72.0,240.0,150.0,4.0,0.0
8838,72.0,0.0,150.0,5.0,0.0
8839,76.0,0.0,300.0,3.0,0.0
8840,91.0,0.0,300.0,0.0,0.0
8841,88.0,0.0,300.0,1.0,0.0
8842,83.0,0.0,300.0,1.0,0.0
8843,55.0,0.0,300.0,7.0,0.0
8844,43.0,0.0,300.0,8.0,0.0
8845,71.0,144.0,150.0,4.0,0.0
8846,55.0,0.0,300.0,2.0,0.0
8847,64.0,96.0,300.0,6.0,0.0
8848,71.0,0.0,150.0,5.0,0.0
8849,67.0,0.0,150.0,4.0,0.0
8850,67.0,288.0,150.0,5.0,0.0
8851,54.0,144.0,780.0,2.0,0.0
8852,54.0,0.0,780.0,7.0,0.0
8853,66.0,0.0,780.0,3.0,0.0
8854,69.0,0.0,780.0,3.0,0.0
8855,84.0,0.0,780.0,1.0,0.0
8856,69.0,0.0,180.0,4.0,0.0
8857,63.0,0.0,780.0,6.0,0.0
8858,93.0,0.0,780.0,0.0,0.0
8859,42.0,0.0,780.0,8.0,0.0
8860,87.0,0.0,780.0,1.0,0.0
8861,69.0,240.0,180.0,5.0,0.0
8862,66.0,240.0,180.0,5.0,0.0
8863,66.0,0.0,180.0,4.0,0.0
8864,72.0,0.0,180.0,5.0,0.0
8865,72.0,96.0,180.0,4.0,0.0
8866,71.0,0.0,180.0,5.0,0.0
8867,71.0,240.0,180.0,4.0,0.0
8868,69.0,240.0,180.0,5.0,0.0
8869,69.0,0.0,180.0,4.0,0.0
8870,67.0,0.0,180.0,4.0,0.0
8871,67.0,240.0,180.0,5.0,0.0
8872,66.0,240.0,180.0,5.0,0.0
8873,66.0,0.0,180.0,4.0,0.0
8874,64.0,288.0,180.0,4.0,0.0
8875,64.0,0.0,180.0,5.0,0.0
8876,35.0,0.0,300.0,8.0,0.0
8877,83.0,0.0,300.0,1.0,0.0
8878,87.0,0.0,300.0,1.0,0.0
8879,66.0,0.0,300.0,3.0,0.0
8880,54.0,0.0,300.0,6.0,0.0
8881,63.0,48.0,240.0,5.0,0.0
8882,71.0,96.0,300.0,3.0,0.0
8883,47.0,0.0,300.0,7.0,0.0
8884,47.0,0.0,300.0,2.0,0.0
8885,63.0,0.0,240.0,4.0,0.0
8886,90.0,0.0,300.0,0.0,0.0
8887,66.0,0.0,150.0,4.0,0.0
8888,66.0,240.0,150.0,5.0,0.0
8889,85.0,96.0,300.0,1.0,0.0
8890,64.0,0.0,150.0,5.0,0.0
8891,88.0,0.0,300.0,1.0,0.0
8892,73.0,0.0,300.0,3.0,0.0
8893,66.0,0.0,300.0,3.0,0.0
8894,46.0,0.0,300.0,7.0,0.0
8895,54.0,144.0,570.0,6.0,0.0
8896,90.0,0.0,300.0,0.0,0.0
8897,64.0,144.0,150.0,4.0,0.0
8898,34.0,0.0,300.0,8.0,0.0
8899,46.0,0.0,300.0,2.0,0.0
8900,61.0,192.0,150.0,5.0,0.0
8901,61.0,0.0,150.0,4.0,0.0
8902,35.0,96.0,300.0,8.0,0.0
8903,71.0,0.0,300.0,3.0,0.0
8904,66.0,0.0,300.0,3.0,0.0
8905,63.0,0.0,240.0,4.0,0.0
8906,47.0,0.0,300.0,7.0,0.0
8907,83.0,0.0,300.0,1.0,0.0
8908,87.0,0.0,300.0,1.0,0.0
8909,90.0,0.0,300.0,0.0,0.0
8910,47.0,0.0,300.0,2.0,0.0
8911,63.0,48.0,240.0,5.0,0.0
8912,66.0,0.0,150.0,4.0,0.0
8913,66.0,240.0,150.0,5.0,0.0
8914,64.0,144.0,150.0,5.0,0.0
8915,85.0,0.0,300.0,1.0,0.0
8916,64.0,0.0,150.0,4.0,0.0
8917,34.0,0.0,300.0,8.0,0.0
8918,88.0,0.0,300.0,1.0,0.0
8919,54.0,0.0,300.0,6.0,0.0
8920,46.0,0.0,300.0,7.0,0.0
8921,46.0,0.0,300.0,2.0,0.0
8922,73.0,0.0,300.0,3.0,0.0
8923,66.0,96.0,300.0,3.0,0.0
8924,90.0,0.0,300.0,0.0,0.0
8925,61.0,0.0,150.0,5.0,0.0
8926,61.0,288.0,150.0,4.0,0.0
8927,47.0,0.0,780.0,2.0,0.0
8928,63.0,240.0,180.0,5.0,0.0
8929,87.0,0.0,780.0,1.0,0.0
8930,83.0,0.0,780.0,1.0,0.0
8931,63.0,0.0,180.0,4.0,0.0
8932,47.0,0.0,780.0,7.0,0.0
8933,66.0,0.0,780.0,3.0,0.0
8934,90.0,0.0,780.0,0.0,0.0
8935,35.0,0.0,780.0,8.0,0.0
8936,54.0,144.0,780.0,6.0,0.0
8937,71.0,0.0,780.0,3.0,0.0
8938,66.0,240.0,180.0,4.0,0.0
8939,66.0,0.0,180.0,5.0,0.0
8940,71.0,96.0,180.0,4.0,0.0
8941,71.0,0.0,180.0,5.0,0.0
8942,75.0,0.0,180.0,4.0,0.0
8943,75.0,240.0,180.0,5.0,0.0
8944,78.0,0.0,180.0,5.0,0.0
8945,78.0,240.0,180.0,4.0,0.0
8946,75.0,0.0,180.0,5.0,0.0
8947,75.0,240.0,180.0,4.0,0.0
8948,71.0,0.0,180.0,4.0,0.0
8949,71.0,240.0,180.0,5.0,0.0
8950,69.0,0.0,180.0,4.0,0.0
8951,69.0,288.0,180.0,5.0,0.0
8952,64.0,96.0,300.0,2.0,0.0
8953,76.0,0.0,300.0,3.0,0.0
8954,67.0,0.0,300.0,4.0,0.0
8955,67.0,0.0,300.0,5.0,0.0
8956,79.0,0.0,300.0,1.0,0.0
8957,76.0,0.0,300.0,1.0,0.0
8958,67.0,0.0,300.0,2.0,0.0
8959,52.0,0.0,240.0,8.0,0.0
8960,71.0,0.0,300.0,3.0,0.0
8961,91.0,0.0,300.0,0.0,0.0
8962,64.0,0.0,240.0,7.0,0.0
8963,67.0,48.0,240.0,6.0,0.0
8964,71.0,240.0,150.0,6.0,0.0
8965,67.0,0.0,150.0,7.0,0.0
8966,55.0,0.0,150.0,8.0,0.0
8967,54.0,144.0,150.0,8.0,0.0
8968,83.0,0.0,300.0,4.0,0.0
8969,93.0,0.0,300.0,0.0,0.0
8970,71.0,0.0,300.0,5.0,0.0
8971,81.0,0.0,300.0,1.0,0.0
8972,78.0,0.0,300.0,1.0,0.0
8973,66.0,0.0,150.0,7.0,0.0
8974,69.0,96.0,300.0,2.0,0.0
8975,66.0,0.0,300.0,2.0,0.0
8976,71.0,0.0,300.0,3.0,0.0
8977,78.0,0.0,300.0,3.0,0.0
8978,69.0,0.0,150.0,6.0,0.0
8979,66.0,0.0,150.0,6.0,0.0
8980,51.0,0.0,150.0,8.0,0.0
8981,63.0,336.0,150.0,7.0,0.0
8982,76.0,96.0,300.0,1.0,0.0
8983,83.0,0.0,300.0,4.0,0.0
8984,79.0,0.0,300.0,1.0,0.0
8985,64.0,0.0,240.0,7.0,0.0
8986,71.0,0.0,300.0,3.0,0.0
8987,91.0,0.0,300.0,0.0,0.0
8988,52.0,0.0,240.0,8.0,0.0
8989,71.0,0.0,300.0,5.0,0.0
8990,67.0,48.0,240.0,6.0,0.0
8991,76.0,0.0,300.0,3.0,0.0
8992,67.0,0.0,300.0,2.0,0.0
8993,64.0,0.0,300.0,2.0,0.0
8994,55.0,0.0,150.0,8.0,0.0
8995,67.0,0.0,150.0,7.0,0.0
8996,71.0,240.0,150.0,6.0,0.0
8997,69.0,0.0,300.0,2.0,0.0
8998,54.0,0.0,150.0,8.0,0.0
8999,81.0,0.0,300.0,1.0,0.0
9000,71.0,0.0,300.0,5.0,0.0
9001,69.0,144.0,150.0,6.0,0.0
9002,71.0,96.0,300.0,3.0,0.0
9003,83.0,0.0,300.0,4.0,0.0
9004,78.0,0.0,300.0,1.0,0.0
9005,66.0,0.0,150.0,7.0,0.0
9006,66.0,0.0,300.0,2.0,0.0
9007,78.0,0.0,300.0,3.0,0.0
9008,93.0,0.0,300.0,0.0,0.0
9009,66.0,0.0,150.0,6.0,0.0
9010,51.0,288.0,150.0,8.0,0.0
9011,63.0,0.0,150.0,7.0,0.0
9012,71.0,0.0,780.0,5.0,0.0
9013,71.0,0.0,780.0,3.0,0.0
9014,67.0,0.0,180.0,6.0,0.0
9015,67.0,144.0,780.0,2.0,0.0
9016,64.0,0.0,780.0,2.0,0.0
9017,76.0,0.0,780.0,3.0,0.0
9018,83.0,0.0,780.0,4.0,0.0
9019,91.0,0.0,780.0,0.0,0.0
9020,52.0,240.0,180.0,8.0,0.0
9021,79.0,0.0,780.0,1.0,0.0
9022,76.0,0.0,780.0,1.0,0.0
9023,64.0,0.0,180.0,7.0,0.0
9024,64.0,0.0,180.0,6.0,0.0
9025,67.0,0.0,180.0,7.0,0.0
9026,55.0,240.0,180.0,8.0,0.0
9027,71.0,96.0,180.0,7.0,0.0
9028,59.0,0.0,180.0,8.0,0.0
9029,67.0,0.0,180.0,6.0,0.0
9030,69.0,0.0,180.0,6.0,0.0
9031,69.0,240.0,180.0,7.0,0.0
9032,57.0,0.0,180.0,8.0,0.0
9033,55.0,0.0,180.0,8.0,0.0
9034,71.0,0.0,180.0,6.0,0.0
9035,67.0,240.0,180.0,7.0,0.0
9036,69.0,240.0,180.0,6.0,0.0
9037,54.0,0.0,180.0,8.0,0.0
9038,66.0,0.0,180.0,7.0,0.0
9039,52.0,0.0,180.0,8.0,0.0
9040,64.0,240.0,180.0,7.0,0.0
9041,67.0,0.0,180.0,6.0,0.0
9042,66.0,0.0,180.0,6.0,0.0
9043,62.0,0.0,180.0,7.0,0.0
9044,50.0,288.0,180.0,8.0,0.0
9045,76.0,0.0,300.0,3.0,0.0
9046,67.0,0.0,300.0,1.0,0.0
9047,64.0,48.0,240.0,6.0,0.0
9048,79.0,96.0,300.0,1.0,0.0
9049,70.0,0.0,300.0,5.0,0.0
9050,64.0,0.0,300.0,2.0,0.0
9051,91.0,0.0,300.0,0.0,0.0
9052,61.0,0.0,240.0,7.0,0.0
9053,82.0,0.0,300.0,4.0,0.0
9054,73.0,0.0,300.0,3.0,0.0
9055,49.0,0.0,240.0,8.0,0.0
9056,64.0,0.0,150.0,7.0,0.0
9057,52.0,240.0,150.0,8.0,0.0
9058,67.0,0.0,150.0,6.0,0.0
9059,66.0,0.0,300.0,2.0,0.0
9060,50.0,0.0,150.0,8.0,0.0
9061,71.0,0.0,300.0,5.0,0.0
9062,67.0,0.0,300.0,1.0,0.0
9063,74.0,0.0,300.0,3.0,0.0
9064,83.0,96.0,300.0,4.0,0.0
9065,66.0,0.0,150.0,6.0,0.0
9066,91.0,0.0,300.0,0.0,0.0
9067,62.0,144.0,150.0,7.0,0.0
9068,79.0,0.0,300.0,1.0,0.0
9069,67.0,336.0,150.0,6.0,0.0
9070,52.0,0.0,150.0,8.0,0.0
9071,64.0,0.0,150.0,7.0,0.0
9072,91.0,0.0,300.0,0.0,0.0
9073,61.0,0.0,240.0,7.0,0.0
9074,73.0,96.0,300.0,3.0,0.0
9075,64.0,0.0,300.0,2.0,0.0
9076,76.0,0.0,300.0,3.0,0.0
9077,49.0,0.0,240.0,8.0,0.0
9078,82.0,0.0,300.0,4.0,0.0
9079,64.0,48.0,240.0,6.0,0.0
9080,79.0,0.0,300.0,1.0,0.0
9081,67.0,0.0,300.0,1.0,0.0
9082,70.0,0.0,300.0,5.0,0.0
9083,52.0,0.0,150.0,8.0,0.0
9084,67.0,240.0,150.0,6.0,0.0
9085,64.0,0.0,150.0,7.0,0.0
9086,74.0,96.0,300.0,3.0,0.0
9087,83.0,0.0,300.0,4.0,0.0
9088,50.0,0.0,150.0,8.0,0.0
9089,91.0,0.0,300.0,0.0,0.0
9090,71.0,0.0,300.0,5.0,0.0
9091,66.0,0.0,300.0,2.0,0.0
9092,79.0,0.0,300.0,1.0,0.0
9093,67.0,0.0,300.0,1.0,0.0
9094,62.0,0.0,150.0,7.0,0.0
9095,66.0,144.0,150.0,6.0,0.0
9096,64.0,0.0,150.0,7.0,0.0
9097,52.0,0.0,150.0,8.0,0.0
9098,67.0,288.0,150.0,6.0,0.0
9099,70.0,0.0,780.0,5.0,0.0
9100,67.0,0.0,780.0,1.0,0.0
9101,79.0,0.0,780.0,1.0,0.0
9102,61.0,0.0,180.0,7.0,0.0
9103,64.0,240.0,180.0,6.0,0.0
9104,91.0,0.0,780.0,0.0,0.0
9105,49.0,0.0,180.0,8.0,0.0
9106,73.0,0.0,780.0,3.0,0.0
9107,64.0,144.0,780.0,2.0,0.0
9108,76.0,0.0,780.0,3.0,0.0
9109,82.0,0.0,780.0,4.0,0.0
9110,52.0,0.0,180.0,8.0,0.0
9111,61.0,0.0,180.0,6.0,0.0
9112,64.0,240.0,180.0,7.0,0.0
9113,64.0,0.0,180.0,6.0,0.0
9114,55.0,96.0,180.0,8.0,0.0
9115,67.0,0.0,180.0,7.0,0.0
9116,66.0,240.0,180.0,6.0,0.0
9117,66.0,0.0,180.0,7.0,0.0
9118,54.0,0.0,180.0,8.0,0.0
9119,67.0,240.0,180.0,6.0,0.0
9120,52.0,0.0,180.0,8.0,0.0
9121,64.0,0.0,180.0,7.0,0.0
9122,50.0,0.0,180.0,8.0,0.0
9123,62.0,240.0,180.0,7.0,0.0
9124,66.0,0.0,180.0,6.0,0.0
9125,61.0,0.0,180.0,7.0,0.0
9126,49.0,0.0,180.0,8.0,0.0
9127,64.0,240.0,180.0,6.0,0.0
9128,59.0,0.0,180.0,7.0,0.0
9129,62.0,0.0,180.0,6.0,0.0
9130,47.0,288.0,180.0,8.0,0.0
9131,88.0,0.0,300.0,4.0,0.0
9132,90.0,0.0,300.0,0.0,0.0
9133,58.0,0.0,240.0,7.0,0.0
9134,61.0,0.0,240.0,6.0,0.0
9135,78.0,0.0,300.0,4.0,0.0
9136,46.0,48.0,240.0,8.0,0.0
9137,61.0,0.0,300.0,2.0,0.0
9138,66.0,0.0,300.0,3.0,0.0
9139,76.0,0.0,300.0,5.0,0.0
9140,76.0,0.0,300.0,3.0,0.0
9141,66.0,0.0,300.0,5.0,0.0
9142,88.0,96.0,300.0,1.0,0.0
9143,78.0,0.0,300.0,1.0,0.0
9144,49.0,240.0,150.0,8.0,0.0
9145,61.0,0.0,150.0,7.0,0.0
9146,64.0,0.0,150.0,6.0,0.0
9147,47.0,0.0,150.0,8.0,0.0
9148,91.0,96.0,300.0,0.0,0.0
9149,88.0,0.0,300.0,4.0,0.0
9150,79.0,0.0,300.0,4.0,0.0
9151,79.0,0.0,300.0,1.0,0.0
9152,88.0,0.0,300.0,1.0,0.0
9153,62.0,0.0,300.0,2.0,0.0
9154,59.0,0.0,150.0,7.0,0.0
9155,76.0,0.0,300.0,5.0,0.0
9156,67.0,0.0,300.0,5.0,0.0
9157,76.0,0.0,300.0,3.0,0.0
9158,62.0,144.0,150.0,6.0,0.0
9159,64.0,336.0,150.0,6.0,0.0
9160,49.0,0.0,150.0,8.0,0.0
9161,61.0,0.0,150.0,7.0,0.0
9162,76.0,0.0,300.0,5.0,0.0
9163,66.0,0.0,300.0,5.0,0.0
9164,61.0,96.0,300.0,2.0,0.0
9165,78.0,0.0,300.0,4.0,0.0
9166,88.0,0.0,300.0,4.0,0.0
9167,61.0,48.0,240.0,6.0,0.0
9168,66.0,0.0,300.0,3.0,0.0
9169,78.0,0.0,300.0,1.0,0.0
9170,88.0,0.0,300.0,1.0,0.0
9171,90.0,0.0,300.0,0.0,0.0
9172,76.0,0.0,300.0,3.0,0.0
9173,58.0,0.0,240.0,7.0,0.0
9174,46.0,0.0,240.0,8.0,0.0
9175,49.0,0.0,150.0,8.0,0.0
9176,64.0,240.0,150.0,6.0,0.0
9177,61.0,0.0,150.0,7.0,0.0
9178,79.0,0.0,300.0,4.0,0.0
9179,88.0,0.0,300.0,4.0,0.0
9180,67.0,0.0,300.0,5.0,0.0
9181,62.0,0.0,300.0,2.0,0.0
9182,47.0,0.0,150.0,8.0,0.0
9183,62.0,144.0,150.0,6.0,0.0
9184,79.0,0.0,300.0,1.0,0.0
9185,59.0,0.0,150.0,7.0,0.0
9186,76.0,96.0,300.0,3.0,0.0
9187,88.0,0.0,300.0,1.0,0.0
9188,91.0,0.0,300.0,0.0,0.0
9189,76.0,0.0,300.0,5.0,0.0
9190,61.0,0.0,150.0,7.0,0.0
9191,64.0,0.0,150.0,6.0,0.0
9192,49.0,288.0,150.0,8.0,0.0
9193,78.0,0.0,780.0,1.0,0.0
9194,66.0,144.0,780.0,5.0,0.0
9195,76.0,0.0,780.0,5.0,0.0
9196,90.0,0.0,780.0,0.0,0.0
9197,46.0,0.0,180.0,8.0,0.0
9198,78.0,0.0,780.0,4.0,0.0
9199,88.0,0.0,780.0,4.0,0.0
9200,61.0,0.0,780.0,2.0,0.0
9201,66.0,0.0,780.0,3.0,0.0
9202,58.0,0.0,180.0,7.0,0.0
9203,76.0,0.0,780.0,3.0,0.0
9204,88.0,0.0,780.0,1.0,0.0
9205,61.0,240.0,180.0,6.0,0.0
9206,47.0,0.0,180.0,8.0,0.0
9207,59.0,0.0,180.0,7.0,0.0
9208,62.0,240.0,180.0,6.0,0.0
9209,49.0,0.0,180.0,8.0,0.0
9210,61.0,0.0,180.0,7.0,0.0
9211,64.0,96.0,180.0,6.0,0.0
9212,47.0,0.0,180.0,8.0,0.0
9213,62.0,0.0,180.0,6.0,0.0
9214,59.0,240.0,180.0,7.0,0.0
9215,61.0,0.0,180.0,6.0,0.0
9216,58.0,240.0,180.0,7.0,0.0
9217,46.0,0.0,180.0,8.0,0.0
9218,54.0,0.0,180.0,7.0,0.0
9219,58.0,240.0,180.0,6.0,0.0
9220,42.0,0.0,180.0,8.0,0.0
9221,44.0,240.0,180.0,8.0,0.0
9222,59.0,0.0,180.0,6.0,0.0
9223,56.0,0.0,180.0,7.0,0.0
9224,58.0,0.0,180.0,7.0,0.0
9225,61.0,288.0,180.0,6.0,0.0
9226,46.0,0.0,180.0,8.0,0.0
9227,47.0,0.0,300.0,8.0,0.0
9228,54.0,0.0,390.0,6.0,0.0
9229,90.0,0.0,300.0,0.0,0.0
9230,59.0,96.0,300.0,7.0,0.0
9231,59.0,0.0,300.0,2.0,0.0
9232,86.0,0.0,240.0,4.0,0.0
9233,74.0,48.0,240.0,5.0,0.0
9234,78.0,0.0,300.0,3.0,0.0
9235,71.0,0.0,300.0,3.0,0.0
9236,78.0,0.0,300.0,1.0,0.0
9237,76.0,240.0,150.0,5.0,0.0
9238,88.0,0.0,150.0,4.0,0.0
9239,73.0,0.0,150.0,5.0,0.0
9240,85.0,144.0,150.0,4.0,0.0
9241,90.0,0.0,300.0,0.0,0.0
9242,66.0,0.0,300.0,3.0,0.0
9243,78.0,96.0,300.0,3.0,0.0
9244,46.0,0.0,300.0,8.0,0.0
9245,78.0,0.0,300.0,1.0,0.0
9246,66.0,0.0,780.0,6.0,0.0
9247,58.0,0.0,300.0,7.0,0.0
9248,58.0,0.0,300.0,2.0,0.0
9249,76.0,0.0,150.0,5.0,0.0
9250,88.0,336.0,150.0,4.0,0.0
9251,78.0,0.0,300.0,3.0,0.0
9252,71.0,0.0,300.0,3.0,0.0
9253,90.0,96.0,300.0,0.0,0.0
9254,59.0,0.0,300.0,7.0,0.0
9255,59.0,0.0,300.0,2.0,0.0
9256,86.0,48.0,240.0,4.0,0.0
9257,78.0,0.0,300.0,1.0,0.0
9258,74.0,0.0,240.0,5.0,0.0
9259,47.0,0.0,300.0,8.0,0.0
9260,88.0,240.0,150.0,4.0,0.0
9261,76.0,0.0,150.0,5.0,0.0
9262,66.0,0.0,300.0,3.0,0.0
9263,66.0,288.0,390.0,6.0,0.0
9264,46.0,0.0,300.0,8.0,0.0
9265,85.0,144.0,150.0,4.0,0.0
9266,90.0,0.0,300.0,0.0,0.0
9267,78.0,0.0,300.0,3.0,0.0
9268,58.0,0.0,300.0,7.0,0.0
9269,73.0,0.0,150.0,5.0,0.0
9270,58.0,96.0,300.0,2.0,0.0
9271,78.0,0.0,300.0,1.0,0.0
9272,76.0,0.0,150.0,5.0,0.0
9273,88.0,0.0,150.0,4.0,0.0
9274,66.0,0.0,780.0,6.0,0.0
9275,74.0,0.0,180.0,5.0,0.0
9276,47.0,0.0,780.0,8.0,0.0
9277,78.0,0.0,780.0,1.0,0.0
9278,78.0,0.0,780.0,3.0,0.0
9279,59.0,0.0,780.0,2.0,0.0
9280,90.0,0.0,780.0,0.0,0.0
9281,86.0,240.0,180.0,4.0,0.0
9282,71.0,0.0,780.0,3.0,0.0
9283,59.0,144.0,780.0,7.0,0.0
9284,88.0,240.0,180.0,4.0,0.0
9285,76.0,0.0,180.0,5.0,0.0
9286,78.0,0.0,180.0,5.0,0.0
9287,90.0,96.0,180.0,4.0,0.0
9288,76.0,0.0,180.0,5.0,0.0
9289,88.0,240.0,180.0,4.0,0.0
9290,86.0,0.0,180.0,4.0,0.0
9291,74.0,240.0,180.0,5.0,0.0
9292,85.0,240.0,180.0,4.0,0.0
9293,73.0,0.0,180.0,5.0,0.0
9294,66.0,144.0,300.0,2.0,0.0
9295,54.0,0.0,300.0,8.0,0.0
9296,71.0,0.0,180.0,5.0,0.0
9297,83.0,96.0,180.0,4.0,0.0
9298,66.0,0.0,300.0,7.0,0.0
9299,82.0,0.0,180.0,4.0,0.0
9300,70.0,288.0,180.0,5.0,0.0
9301,55.0,96.0,300.0,8.0,0.0
9302,74.0,0.0,300.0,3.0,0.0
9303,71.0,0.0,300.0,3.0,0.0
9304,67.0,0.0,300.0,7.0,0.0
9305,71.0,0.0,240.0,5.0,0.0
9306,67.0,0.0,300.0,2.0,0.0
9307,74.0,0.0,300.0,1.0,0.0
9308,62.0,0.0,390.0,6.0,0.0
9309,83.0,48.0,240.0,4.0,0.0
9310,86.0,0.0,300.0,0.0,0.0
9311,73.0,240.0,150.0,5.0,0.0
9312,85.0,0.0,150.0,4.0,0.0
9313,62.0,0.0,300.0,3.0,0.0
9314,62.0,0.0,780.0,6.0,0.0
9315,86.0,0.0,300.0,0.0,0.0
9316,74.0,0.0,300.0,1.0,0.0
9317,66.0,96.0,300.0,7.0,0.0
9318,70.0,0.0,150.0,5.0,0.0
9319,66.0,0.0,300.0,2.0,0.0
9320,54.0,0.0,300.0,8.0,0.0
9321,82.0,144.0,150.0,4.0,0.0
9322,73.0,0.0,150.0,5.0,0.0
9323,85.0,336.0,150.0,4.0,0.0
9324,55.0,0.0,300.0,8.0,0.0
9325,71.0,0.0,300.0,3.0,0.0
9326,74.0,96.0,300.0,3.0,0.0
9327,71.0,0.0,240.0,5.0,0.0
9328,83.0,48.0,240.0,4.0,0.0
9329,74.0,0.0,300.0,1.0,0.0
9330,86.0,0.0,300.0,0.0,0.0
9331,67.0,0.0,300.0,2.0,0.0
9332,67.0,0.0,300.0,7.0,0.0
9333,73.0,240.0,150.0,5.0,0.0
9334,85.0,0.0,150.0,4.0,0.0
9335,54.0,0.0,300.0,8.0,0.0
9336,70.0,0.0,150.0,5.0,0.0
9337,66.0,96.0,300.0,7.0,0.0
9338,74.0,0.0,300.0,1.0,0.0
9339,62.0,0.0,390.0,6.0,0.0
9340,86.0,0.0,300.0,0.0,0.0
9341,62.0,0.0,300.0,3.0,0.0
9342,66.0,0.0,300.0,2.0,0.0
9343,82.0,144.0,150.0,4.0,0.0
9344,73.0,288.0,150.0,5.0,0.0
9345,85.0,0.0,150.0,4.0,0.0
9346,83.0,0.0,180.0,4.0,0.0
9347,62.0,0.0,780.0,6.0,0.0
9348,67.0,0.0,780.0,2.0,0.0
9349,67.0,0.0,780.0,7.0,0.0
9350,71.0,240.0,180.0,5.0,0.0
9351,86.0,0.0,780.0,0.0,0.0
9352,74.0,144.0,780.0,3.0,0.0
9353,78.0,0.0,780.0,1.0,0.0
9354,55.0,0.0,780.0,8.0,0.0
9355,71.0,0.0,780.0,3.0,0.0
9356,85.0,240.0,180.0,4.0,0.0
9357,73.0,0.0,180.0,5.0,0.0
9358,74.0,0.0,180.0,5.0,0.0
9359,86.0,96.0,180.0,4.0,0.0
9360,73.0,240.0,180.0,5.0,0.0
9361,85.0,0.0,180.0,4.0,0.0
9362,83.0,0.0,180.0,4.0,0.0
9363,71.0,240.0,180.0,5.0,0.0
9364,81.0,0.0,180.0,4.0,0.0
9365,69.0,240.0,180.0,5.0,0.0
9366,59.0,0.0,300.0,6.0,0.0
9367,51.0,0.0,300.0,8.0,0.0
9368,63.0,144.0,300.0,2.0,0.0
9369,79.0,96.0,180.0,4.0,0.0
9370,67.0,0.0,180.0,5.0,0.0
9371,71.0,0.0,300.0,3.0,0.0
9372,63.0,0.0,300.0,7.0,0.0
9373,66.0,240.0,180.0,5.0,0.0
9374,78.0,0.0,180.0,4.0,0.0
9375,52.0,0.0,780.0,8.0,0.0
9376,64.0,144.0,780.0,7.0,0.0
9377,67.0,0.0,180.0,5.0,0.0
9378,64.0,0.0,780.0,2.0,0.0
9379,59.0,0.0,780.0,6.0,0.0
9380,79.0,240.0,180.0,4.0,0.0
9381,71.0,0.0,780.0,3.0,0.0
9382,81.0,240.0,180.0,4.0,0.0
9383,69.0,0.0,180.0,5.0,0.0
9384,71.0,96.0,180.0,5.0,0.0
9385,83.0,0.0,180.0,4.0,0.0
9386,81.0,0.0,180.0,4.0,0.0
9387,69.0,240.0,180.0,5.0,0.0
9388,79.0,240.0,180.0,4.0,0.0
9389,67.0,0.0,180.0,5.0,0.0
9390,78.0,240.0,180.0,4.0,0.0
9391,66.0,0.0,180.0,5.0,0.0
9392,59.0,0.0,300.0,7.0,0.0
9393,59.0,0.0,300.0,2.0,0.0
9394,59.0,0.0,300.0,3.0,0.0
9395,45.0,144.0,300.0,8.0,0.0
9396,66.0,0.0,300.0,6.0,0.0
9397,76.0,0.0,180.0,4.0,0.0
9398,64.0,96.0,180.0,5.0,0.0
9399,75.0,0.0,180.0,4.0,0.0
9400,63.0,240.0,180.0,5.0,0.0
9401,55.0,0.0,780.0,2.0,0.0
9402,59.0,0.0,780.0,3.0,0.0
9403,71.0,0.0,780.0,6.0,0.0
9404,76.0,240.0,180.0,4.0,0.0
9405,64.0,0.0,180.0,5.0,0.0
9406,55.0,0.0,780.0,7.0,0.0
9407,43.0,144.0,780.0,8.0,0.0
9408,66.0,0.0,180.0,5.0,0.0
9409,78.0,240.0,180.0,4.0,0.0
9410,67.0,96.0,180.0,5.0,0.0
9411,79.0,0.0,180.0,4.0,0.0
9412,66.0,0.0,180.0,5.0,0.0
9413,78.0,240.0,180.0,4.0,0.0
9414,76.0,0.0,180.0,4.0,0.0
9415,64.0,240.0,180.0,5.0,0.0
9416,74.0,240.0,180.0,4.0,0.0
9417,62.0,0.0,180.0,5.0,0.0
9418,73.0,0.0,180.0,4.0,0.0
9419,53.0,0.0,390.0,7.0,0.0
9420,53.0,0.0,390.0,2.0,0.0
9421,41.0,48.0,390.0,8.0,0.0
9422,73.0,96.0,300.0,3.0,0.0
9423,61.0,96.0,180.0,5.0,0.0
9424,68.0,0.0,390.0,6.0,0.0
9425,59.0,240.0,180.0,5.0,0.0
9426,71.0,0.0,180.0,4.0,0.0
9427,70.0,192.0,180.0,4.0,0.0
9428,82.0,0.0,1530.0,1.0,0.0
9429,78.0,96.0,1530.0,1.0,0.0
9430,42.0,0.0,390.0,8.0,0.0
9431,54.0,0.0,390.0,7.0,0.0
9432,61.0,48.0,390.0,6.0,0.0
9433,85.0,0.0,1530.0,0.0,0.0
9434,54.0,0.0,390.0,2.0,0.0
9435,66.0,96.0,1740.0,3.0,0.0
9436,73.0,96.0,780.0,3.0,0.0
9437,66.0,0.0,180.0,5.0,0.0
9438,70.0,0.0,180.0,5.0,0.0
9439,73.0,240.0,180.0,4.0,0.0
9440,78.0,96.0,180.0,4.0,0.0
9441,78.0,0.0,180.0,5.0,0.0
9442,66.0,0.0,390.0,7.0,0.0
9443,66.0,0.0,390.0,6.0,0.0
9444,54.0,0.0,390.0,8.0,0.0
9445,54.0,48.0,390.0,2.0,0.0
9446,66.0,0.0,390.0,2.0,0.0
9447,82.0,240.0,180.0,5.0,0.0
9448,82.0,0.0,180.0,4.0,0.0
9449,54.0,48.0,390.0,8.0,0.0
9450,66.0,0.0,390.0,6.0,0.0
9451,85.0,192.0,180.0,5.0,0.0
9452,54.0,0.0,390.0,2.0,0.0
9453,66.0,0.0,390.0,7.0,0.0
9454,66.0,0.0,390.0,2.0,0.0
9455,85.0,0.0,180.0,4.0,0.0
9456,85.0,0.0,180.0,4.0,0.0
9457,85.0,144.0,180.0,5.0,0.0
9458,54.0,48.0,390.0,8.0,0.0
9459,66.0,0.0,390.0,2.0,0.0
9460,54.0,0.0,390.0,2.0,0.0
9461,66.0,0.0,390.0,6.0,0.0
9462,85.0,96.0,180.0,5.0,0.0
9463,85.0,0.0,180.0,4.0,0.0
9464,66.0,0.0,390.0,7.0,0.0
9465,85.0,240.0,180.0,4.0,0.0
9466,85.0,0.0,180.0,5.0,0.0
9467,66.0,0.0,390.0,7.0,0.0
9468,68.0,0.0,180.0,5.0,0.0
9469,54.0,0.0,390.0,2.0,0.0
9470,66.0,0.0,390.0,2.0,0.0
9471,83.0,0.0,1530.0,1.0,0.0
9472,80.0,0.0,1530.0,1.0,0.0
9473,89.0,96.0,1530.0,0.0,0.0
9474,54.0,0.0,390.0,8.0,0.0
9475,66.0,96.0,780.0,3.0,0.0
9476,66.0,48.0,390.0,6.0,0.0
9477,68.0,192.0,180.0,4.0,0.0
9478,71.0,240.0,180.0,5.0,0.0
9479,71.0,0.0,180.0,4.0,0.0
9480,66.0,0.0,390.0,6.0,0.0
9481,77.0,96.0,180.0,4.0,0.0
9482,66.0,0.0,390.0,7.0,0.0
9483,77.0,0.0,180.0,5.0,0.0
9484,54.0,0.0,390.0,8.0,0.0
9485,54.0,48.0,390.0,2.0,0.0
9486,66.0,0.0,390.0,2.0,0.0
9487,80.0,0.0,180.0,4.0,0.0
9488,80.0,240.0,180.0,5.0,0.0
9489,54.0,48.0,390.0,8.0,0.0
9490,83.0,0.0,180.0,5.0,0.0
9491,66.0,0.0,390.0,6.0,0.0
9492,66.0,0.0,390.0,7.0,0.0
9493,83.0,192.0,180.0,4.0,0.0
9494,66.0,96.0,780.0,3.0,0.0
9495,54.0,0.0,390.0,2.0,0.0
9496,66.0,0.0,390.0,2.0,0.0
9497,83.0,144.0,180.0,5.0,0.0
9498,83.0,0.0,180.0,4.0,0.0
9499,54.0,0.0,390.0,8.0,0.0
9500,83.0,0.0,180.0,4.0,0.0
9501,66.0,48.0,390.0,7.0,0.0
9502,83.0,96.0,180.0,5.0,0.0
9503,66.0,0.0,390.0,6.0,0.0
9504,66.0,0.0,390.0,2.0,0.0
9505,54.0,0.0,390.0,2.0,0.0
9506,83.0,0.0,180.0,5.0,0.0
9507,83.0,240.0,180.0,4.0,0.0
9508,54.0,0.0,390.0,8.0,0.0
9509,85.0,96.0,1530.0,1.0,0.0
9510,70.0,192.0,180.0,4.0,0.0
9511,54.0,0.0,390.0,2.0,0.0
9512,90.0,0.0,1530.0,0.0,0.0
9513,70.0,0.0,180.0,5.0,0.0
9514,66.0,48.0,390.0,6.0,0.0
9515,82.0,0.0,1530.0,1.0,0.0
9516,66.0,0.0,390.0,2.0,0.0
9517,54.0,0.0,780.0,3.0,0.0
9518,66.0,0.0,390.0,7.0,0.0
9519,66.0,96.0,780.0,3.0,0.0
9520,73.0,0.0,180.0,5.0,0.0
9521,73.0,240.0,180.0,4.0,0.0
9522,42.0,0.0,390.0,2.0,0.0
9523,78.0,0.0,180.0,4.0,0.0
9524,66.0,0.0,390.0,6.0,0.0
9525,66.0,48.0,390.0,7.0,0.0
9526,78.0,96.0,180.0,5.0,0.0
9527,54.0,0.0,390.0,8.0,0.0
9528,54.0,0.0,390.0,2.0,0.0
9529,82.0,240.0,180.0,5.0,0.0
9530,82.0,0.0,180.0,4.0,0.0
9531,54.0,0.0,390.0,2.0,0.0
9532,42.0,0.0,390.0,2.0,0.0
9533,66.0,0.0,390.0,3.0,0.0
9534,85.0,0.0,180.0,4.0,0.0
9535,66.0,0.0,390.0,6.0,0.0
9536,66.0,0.0,390.0,7.0,0.0
9537,54.0,48.0,390.0,3.0,0.0
9538,85.0,192.0,180.0,5.0,0.0
9539,54.0,0.0,390.0,8.0,0.0
9540,85.0,144.0,180.0,4.0,0.0
9541,85.0,0.0,180.0,5.0,0.0
9542,85.0,0.0,180.0,5.0,0.0
9543,54.0,0.0,390.0,2.0,0.0
9544,85.0,192.0,180.0,4.0,0.0
9545,54.0,48.0,390.0,8.0,0.0
9546,66.0,0.0,390.0,3.0,0.0
9547,66.0,0.0,390.0,6.0,0.0
9548,66.0,0.0,390.0,7.0,0.0
9549,54.0,0.0,390.0,3.0,0.0
9550,42.0,0.0,390.0,2.0,0.0
9551,85.0,240.0,180.0,5.0,0.0
9552,85.0,0.0,180.0,4.0,0.0
9553,73.0,0.0,180.0,4.0,0.0
9554,89.0,96.0,1530.0,1.0,0.0
9555,54.0,0.0,390.0,8.0,0.0
9556,66.0,0.0,390.0,7.0,0.0
9557,80.0,0.0,1530.0,1.0,0.0
9558,95.0,0.0,1530.0,0.0,0.0
9559,54.0,0.0,390.0,2.0,0.0
9560,73.0,192.0,180.0,5.0,0.0
9561,66.0,0.0,390.0,6.0,0.0
9562,42.0,48.0,390.0,2.0,0.0
9563,66.0,0.0,390.0,3.0,0.0
9564,54.0,0.0,390.0,3.0,0.0
9565,77.0,0.0,180.0,5.0,0.0
9566,77.0,240.0,180.0,4.0,0.0
9567,80.0,0.0,180.0,4.0,0.0
9568,42.0,0.0,390.0,2.0,0.0
9569,54.0,0.0,390.0,2.0,0.0
9570,54.0,0.0,390.0,3.0,0.0
9571,66.0,0.0,390.0,6.0,0.0
9572,80.0,192.0,180.0,5.0,0.0
9573,66.0,0.0,390.0,3.0,0.0
9574,54.0,48.0,390.0,8.0,0.0
9575,66.0,0.0,390.0,7.0,0.0
9576,83.0,240.0,180.0,5.0,0.0
9577,83.0,0.0,180.0,4.0,0.0
9578,42.0,0.0,390.0,2.0,0.0
9579,54.0,0.0,390.0,2.0,0.0
9580,66.0,0.0,390.0,6.0,0.0
9581,89.0,0.0,180.0,5.0,0.0
9582,54.0,48.0,390.0,3.0,0.0
9583,66.0,0.0,390.0,7.0,0.0
9584,66.0,0.0,390.0,3.0,0.0
9585,89.0,192.0,180.0,4.0,0.0
9586,54.0,0.0,390.0,8.0,0.0
9587,89.0,0.0,180.0,5.0,0.0
9588,89.0,144.0,180.0,4.0,0.0
9589,89.0,0.0,180.0,4.0,0.0
9590,54.0,48.0,390.0,2.0,0.0
9591,66.0,0.0,390.0,7.0,0.0
9592,42.0,0.0,390.0,2.0,0.0
9593,66.0,0.0,390.0,6.0,0.0
9594,54.0,0.0,390.0,3.0,0.0
9595,66.0,0.0,390.0,3.0,0.0
9596,89.0,192.0,180.0,5.0,0.0
9597,54.0,0.0,390.0,8.0,0.0
9598,89.0,0.0,180.0,4.0,0.0
9599,89.0,432.0,180.0,5.0,0.0
9600,66.0,0.0,390.0,7.0,0.0
9601,66.0,0.0,390.0,6.0,0.0
9602,78.0,0.0,390.0,1.0,0.0
9603,90.0,0.0,390.0,1.0,0.0
9604,90.0,960.0,390.0,5.0,0.0
9605,94.0,0.0,390.0,0.0,0.0
9606,54.0,0.0,390.0,8.0,0.0
9607,66.0,0.0,390.0,3.0,0.0
9608,54.0,0.0,390.0,3.0,0.0
9609,54.0,0.0,390.0,2.0,0.0
9610,42.0,0.0,390.0,2.0,0.0
9611,90.0,0.0,390.0,4.0,0.0
9612,73.0,0.0,390.0,5.0,0.0
9613,66.0,1344.0,390.0,3.0,0.0
9614,66.0,0.0,390.0,2.0,0.0
9615,54.0,0.0,390.0,2.0,0.0
9616,66.0,0.0,390.0,7.0,0.0
9617,94.0,0.0,390.0,0.0,0.0
9618,85.0,0.0,390.0,1.0,0.0
9619,82.0,0.0,390.0,1.0,0.0
9620,90.0,0.0,390.0,5.0,0.0
9621,66.0,0.0,390.0,6.0,0.0
9622,54.0,0.0,390.0,3.0,0.0
9623,66.0,0.0,390.0,5.0,0.0
9624,73.0,0.0,390.0,4.0,0.0
9625,90.0,0.0,390.0,4.0,0.0
9626,66.0,0.0,390.0,4.0,0.0
9627,54.0,0.0,390.0,8.0,0.0
9628,66.0,0.0,780.0,5.0,0.0
9629,42.0,0.0,780.0,2.0,0.0
9630,54.0,0.0,780.0,2.0,0.0
9631,54.0,1032.0,780.0,6.0,0.0
9632,54.0,0.0,780.0,7.0,0.0
9633,66.0,0.0,780.0,3.0,0.0
9634,54.0,0.0,780.0,3.0,0.0
9635,42.0,0.0,780.0,8.0,0.0
9636,66.0,0.0,780.0,4.0,0.0
9637,73.0,0.0,780.0,1.0,0.0
9638,70.0,0.0,780.0,1.0,0.0
9639,78.0,0.0,780.0,0.0,0.0
9640,78.0,504.0,360.0,4.0,0.0
9641,71.0,480.0,390.0,6.0,0.0
9642,78.0,288.0,1530.0,4.0,0.0
9643,74.0,0.0,390.0,5.0,0.0
9644,74.0,0.0,390.0,5.0,0.0
9645,71.0,480.0,390.0,6.0,0.0
9646,71.0,192.0,390.0,6.0,0.0
9647,74.0,0.0,390.0,5.0,0.0
9648,74.0,216.0,390.0,5.0,0.0
9649,71.0,0.0,390.0,6.0,0.0
9650,77.0,264.0,120.0,4.0,0.0
9651,73.0,0.0,390.0,5.0,0.0
9652,69.0,408.0,390.0,6.0,0.0
9653,78.0,72.0,660.0,4.0,0.0
9654,73.0,216.0,390.0,5.0,0.0
9655,69.0,0.0,390.0,6.0,0.0
9656,77.0,264.0,120.0,4.0,0.0
9657,73.0,0.0,390.0,5.0,0.0
9658,69.0,408.0,390.0,6.0,0.0
9659,78.0,72.0,660.0,4.0,0.0
9660,69.0,0.0,390.0,6.0,0.0
9661,73.0,480.0,390.0,5.0,0.0
9662,71.0,816.0,3750.0,5.0,0.0
9663,83.0,144.0,720.0,4.0,0.0
9664,67.0,336.0,390.0,6.0,0.0
9665,67.0,48.0,390.0,6.0,0.0
9666,79.0,432.0,180.0,4.0,0.0
9667,67.0,480.0,390.0,6.0,0.0
9668,76.0,96.0,1740.0,4.0,0.0
9669,67.0,480.0,390.0,6.0,0.0
9670,66.0,384.0,390.0,6.0,0.0
9671,66.0,480.0,390.0,6.0,0.0
9672,66.0,480.0,390.0,6.0,0.0
9673,74.0,240.0,1680.0,4.0,0.0
9674,66.0,0.0,390.0,6.0,0.0
9675,64.0,336.0,2310.0,6.0,0.0
9676,67.0,0.0,2310.0,5.0,0.0
9677,73.0,720.0,240.0,4.0,0.0
9678,76.0,192.0,720.0,4.0,0.0
9679,74.0,432.0,180.0,4.0,0.0
9680,78.0,240.0,720.0,4.0,0.0
9681,76.0,720.0,240.0,4.0,0.0
9682,74.0,192.0,720.0,4.0,0.0
9683,73.0,432.0,180.0,4.0,0.0
9684,71.0,240.0,1440.0,4.0,0.0
9685,62.0,0.0,1440.0,5.0,0.0
9686,54.0,480.0,390.0,6.0,0.0
9687,54.0,480.0,390.0,6.0,0.0
9688,54.0,96.0,390.0,6.0,0.0
9689,64.0,0.0,240.0,5.0,0.0
9690,73.0,144.0,240.0,4.0,0.0
9691,54.0,48.0,390.0,6.0,0.0
9692,71.0,48.0,180.0,4.0,0.0
9693,62.0,240.0,240.0,5.0,0.0
9694,61.0,0.0,390.0,5.0,0.0
9695,54.0,96.0,390.0,6.0,0.0
9696,70.0,144.0,240.0,4.0,0.0
9697,71.0,240.0,240.0,4.0,0.0
9698,72.0,240.0,240.0,4.0,0.0
9699,73.0,240.0,240.0,4.0,0.0
9700,74.0,240.0,240.0,4.0,0.0
9701,75.0,240.0,240.0,4.0,0.0
9702,76.0,192.0,240.0,4.0,0.0
9703,77.0,432.0,180.0,4.0,0.0
9704,62.0,0.0,390.0,5.0,0.0
9705,78.0,0.0,2310.0,4.0,0.0
9706,59.0,480.0,390.0,6.0,0.0
9707,59.0,0.0,390.0,6.0,0.0
9708,62.0,480.0,390.0,5.0,0.0
9709,71.0,0.0,390.0,6.0,0.0
9710,74.0,480.0,390.0,5.0,0.0
9711,71.0,480.0,390.0,6.0,0.0
9712,74.0,0.0,390.0,5.0,0.0
9713,70.0,0.0,390.0,6.0,0.0
9714,73.0,480.0,390.0,5.0,0.0
9715,78.0,96.0,780.0,4.0,0.0
9716,73.0,384.0,390.0,5.0,0.0
9717,70.0,0.0,390.0,6.0,0.0
9718,72.0,0.0,390.0,5.0,0.0
9719,69.0,480.0,390.0,6.0,0.0
9720,78.0,576.0,870.0,4.0,0.0
9721,72.0,0.0,390.0,5.0,0.0
9722,69.0,480.0,390.0,6.0,0.0
9723,71.0,0.0,4230.0,5.0,0.0
9724,68.0,480.0,1920.0,6.0,0.0
9725,77.0,480.0,480.0,4.0,0.0
9726,83.0,480.0,480.0,4.0,0.0
9727,76.0,0.0,480.0,4.0,0.0
9728,67.0,0.0,960.0,6.0,0.0
9729,83.0,480.0,480.0,4.0,0.0
9730,75.0,480.0,480.0,4.0,0.0
9731,66.0,576.0,780.0,6.0,0.0
9732,83.0,288.0,480.0,4.0,0.0
9733,74.0,0.0,870.0,4.0,0.0
9734,64.0,576.0,390.0,6.0,0.0
9735,73.0,480.0,480.0,4.0,0.0
9736,76.0,384.0,480.0,4.0,0.0
9737,79.0,1536.0,390.0,4.0,0.0
9738,54.0,48.0,1830.0,6.0,0.0
9739,62.0,0.0,1440.0,5.0,0.0
9740,71.0,240.0,1440.0,4.0,0.0
9741,74.0,0.0,240.0,4.0,0.0
9742,66.0,144.0,240.0,5.0,0.0
9743,73.0,432.0,180.0,4.0,0.0
9744,64.0,0.0,180.0,5.0,0.0
9745,62.0,0.0,390.0,5.0,0.0
9746,59.0,0.0,390.0,6.0,0.0
9747,71.0,576.0,390.0,4.0,0.0
9748,70.0,480.0,480.0,1.0,0.0
9749,71.0,480.0,480.0,1.0,0.0
9750,73.0,480.0,480.0,1.0,0.0
9751,70.0,0.0,480.0,1.0,0.0
9752,74.0,480.0,480.0,1.0,0.0
9753,71.0,0.0,1920.0,1.0,0.0
9754,75.0,0.0,480.0,1.0,0.0
9755,69.0,480.0,480.0,2.0,0.0
9756,76.0,480.0,480.0,1.0,0.0
9757,68.0,0.0,480.0,2.0,0.0
9758,77.0,0.0,480.0,1.0,0.0
9759,61.0,384.0,480.0,2.0,0.0
9760,67.0,0.0,480.0,2.0,0.0
9761,90.0,0.0,2700.0,0.0,0.0
9762,59.0,384.0,390.0,3.0,0.0
9763,47.0,0.0,7590.0,7.0,0.0
9764,78.0,96.0,2700.0,1.0,0.0
9765,66.0,96.0,780.0,2.0,0.0
9766,62.0,0.0,780.0,2.0,0.0
9767,71.0,384.0,5760.0,1.0,0.0
9768,35.0,0.0,7590.0,8.0,0.0
9769,59.0,480.0,390.0,3.0,0.0
9770,59.0,480.0,390.0,3.0,0.0
9771,59.0,0.0,960.0,2.0,0.0
9772,71.0,384.0,960.0,2.0,0.0
9773,59.0,96.0,390.0,3.0,0.0
9774,61.0,384.0,960.0,2.0,0.0
9775,59.0,384.0,390.0,3.0,0.0
9776,70.0,0.0,960.0,2.0,0.0
9777,59.0,96.0,390.0,3.0,0.0
9778,90.0,0.0,1440.0,0.0,0.0
9779,63.0,0.0,960.0,2.0,0.0
9780,78.0,240.0,1440.0,1.0,0.0
9781,59.0,480.0,390.0,3.0,0.0
9782,69.0,384.0,960.0,2.0,0.0
9783,59.0,96.0,390.0,3.0,0.0
9784,64.0,0.0,960.0,2.0,0.0
9785,68.0,0.0,960.0,2.0,0.0
9786,59.0,96.0,390.0,3.0,0.0
9787,83.0,384.0,480.0,0.0,0.0
9788,47.0,96.0,390.0,3.0,0.0
9789,83.0,144.0,240.0,1.0,0.0
9790,80.0,0.0,240.0,1.0,0.0
9791,76.0,0.0,1920.0,1.0,0.0
9792,47.0,480.0,390.0,3.0,0.0
9793,59.0,0.0,960.0,2.0,0.0
9794,67.0,0.0,1920.0,2.0,0.0
9795,88.0,384.0,1920.0,0.0,0.0
9796,47.0,96.0,390.0,3.0,0.0
9797,61.0,0.0,960.0,2.0,0.0
9798,70.0,0.0,960.0,1.0,0.0
9799,47.0,480.0,390.0,3.0,0.0
9800,47.0,96.0,390.0,3.0,0.0
9801,74.0,0.0,960.0,1.0,0.0
9802,62.0,0.0,960.0,2.0,0.0
9803,71.0,0.0,960.0,1.0,0.0
9804,66.0,384.0,960.0,2.0,0.0
9805,86.0,0.0,960.0,0.0,0.0
9806,47.0,480.0,390.0,3.0,0.0
9807,47.0,96.0,390.0,3.0,0.0
9808,64.0,0.0,390.0,2.0,0.0
9809,67.0,0.0,390.0,2.0,0.0
9810,84.0,576.0,390.0,0.0,0.0
9811,40.0,0.0,390.0,8.0,0.0
9812,52.0,0.0,390.0,7.0,0.0
9813,72.0,0.0,390.0,1.0,0.0
9814,48.0,480.0,480.0,2.0,0.0
9815,72.0,0.0,480.0,0.0,0.0
9816,52.0,0.0,480.0,2.0,0.0
9817,76.0,480.0,480.0,0.0,0.0
9818,79.0,0.0,480.0,0.0,0.0
9819,55.0,480.0,480.0,2.0,0.0
9820,84.0,480.0,480.0,0.0,0.0
9821,60.0,0.0,480.0,2.0,0.0
9822,88.0,0.0,480.0,0.0,0.0
9823,64.0,312.0,480.0,2.0,0.0
9824,91.0,480.0,300.0,0.0,0.0
9825,67.0,0.0,300.0,2.0,0.0
9826,91.0,0.0,300.0,0.0,0.0
9827,67.0,648.0,300.0,2.0,0.0
9828,42.0,0.0,480.0,8.0,0.0
9829,54.0,480.0,480.0,7.0,0.0
9830,83.0,0.0,1920.0,0.0,0.0
9831,74.0,0.0,1920.0,1.0,0.0
9832,71.0,0.0,1920.0,1.0,0.0
9833,62.0,0.0,1920.0,2.0,0.0
9834,59.0,0.0,1920.0,2.0,0.0
9835,53.0,0.0,480.0,7.0,0.0
9836,41.0,480.0,480.0,8.0,0.0
9837,54.0,480.0,480.0,7.0,0.0
9838,42.0,0.0,480.0,8.0,0.0
9839,53.0,384.0,480.0,7.0,0.0
9840,41.0,0.0,480.0,8.0,0.0
9841,54.0,0.0,390.0,7.0,0.0
9842,70.0,0.0,390.0,1.0,0.0
9843,58.0,0.0,390.0,2.0,0.0
9844,61.0,0.0,390.0,2.0,0.0
9845,73.0,0.0,390.0,1.0,0.0
9846,42.0,0.0,390.0,8.0,0.0
9847,82.0,576.0,390.0,0.0,0.0
9848,77.0,0.0,480.0,1.0,0.0
9849,65.0,0.0,480.0,2.0,0.0
9850,89.0,480.0,480.0,0.0,0.0
9851,66.0,0.0,480.0,2.0,0.0
9852,78.0,384.0,480.0,1.0,0.0
9853,90.0,0.0,480.0,0.0,0.0
9854,65.0,0.0,390.0,2.0,0.0
9855,89.0,0.0,390.0,0.0,0.0
9856,77.0,1056.0,390.0,1.0,0.0
9857,90.0,96.0,1830.0,0.0,0.0
9858,78.0,0.0,1830.0,1.0,0.0
9859,66.0,0.0,1830.0,2.0,0.0
9860,66.0,0.0,1830.0,3.0,0.0
9861,59.0,0.0,480.0,7.0,0.0
9862,62.0,480.0,480.0,6.0,0.0
9863,47.0,0.0,480.0,8.0,0.0
9864,49.0,0.0,480.0,8.0,0.0
9865,61.0,384.0,480.0,7.0,0.0
9866,64.0,0.0,480.0,6.0,0.0
9867,62.0,120.0,480.0,6.0,0.0
9868,59.0,0.0,480.0,7.0,0.0
9869,47.0,0.0,480.0,8.0,0.0
9870,77.0,0.0,120.0,1.0,0.0
9871,46.0,312.0,480.0,8.0,0.0
9872,65.0,0.0,120.0,2.0,0.0
9873,89.0,360.0,120.0,0.0,0.0
9874,54.0,0.0,1830.0,3.0,0.0
9875,58.0,0.0,480.0,7.0,0.0
9876,61.0,0.0,480.0,6.0,0.0
9877,66.0,168.0,660.0,2.0,0.0
9878,90.0,0.0,660.0,0.0,0.0
9879,78.0,0.0,660.0,1.0,0.0
9880,60.0,0.0,480.0,6.0,0.0
9881,57.0,0.0,480.0,7.0,0.0
9882,45.0,120.0,480.0,8.0,0.0
9883,77.0,0.0,120.0,1.0,0.0
9884,59.0,0.0,480.0,7.0,0.0
9885,62.0,312.0,480.0,6.0,0.0
9886,89.0,360.0,120.0,0.0,0.0
9887,65.0,0.0,120.0,2.0,0.0
9888,47.0,0.0,480.0,8.0,0.0
9889,78.0,0.0,660.0,1.0,0.0
9890,90.0,0.0,660.0,0.0,0.0
9891,66.0,72.0,660.0,2.0,0.0
9892,57.0,0.0,390.0,7.0,0.0
9893,45.0,0.0,390.0,8.0,0.0
9894,60.0,576.0,390.0,6.0,0.0
9895,83.0,0.0,1530.0,4.0,0.0
9896,71.0,0.0,1530.0,5.0,0.0
9897,78.0,0.0,480.0,1.0,0.0
9898,59.0,96.0,1830.0,3.0,0.0
9899,66.0,480.0,480.0,2.0,0.0
9900,90.0,0.0,480.0,0.0,0.0
9901,59.0,288.0,1530.0,6.0,0.0
9902,56.0,0.0,1920.0,7.0,0.0
9903,44.0,0.0,1920.0,8.0,0.0
9904,65.0,0.0,480.0,2.0,0.0
9905,89.0,480.0,480.0,0.0,0.0
9906,77.0,0.0,480.0,1.0,0.0
9907,78.0,0.0,480.0,1.0,0.0
9908,90.0,0.0,480.0,0.0,0.0
9909,66.0,96.0,480.0,2.0,0.0
9910,65.0,0.0,480.0,2.0,0.0
9911,89.0,0.0,480.0,0.0,0.0
9912,77.0,120.0,480.0,1.0,0.0
9913,47.0,0.0,1830.0,3.0,0.0
9914,82.0,360.0,120.0,4.0,0.0
9915,64.0,312.0,480.0,2.0,0.0
9916,70.0,0.0,120.0,5.0,0.0
9917,76.0,0.0,480.0,1.0,0.0
9918,55.0,0.0,960.0,7.0,0.0
9919,58.0,0.0,120.0,6.0,0.0
9920,88.0,0.0,480.0,0.0,0.0
9921,43.0,0.0,960.0,8.0,0.0
9922,71.0,0.0,660.0,5.0,0.0
9923,59.0,0.0,660.0,6.0,0.0
9924,83.0,168.0,660.0,4.0,0.0
9925,75.0,0.0,480.0,1.0,0.0
9926,63.0,120.0,480.0,2.0,0.0
9927,87.0,0.0,480.0,0.0,0.0
9928,42.0,24.0,780.0,8.0,0.0
9929,58.0,0.0,120.0,6.0,0.0
9930,70.0,360.0,120.0,5.0,0.0
9931,88.0,0.0,480.0,0.0,0.0
9932,76.0,288.0,480.0,1.0,0.0
9933,54.0,0.0,780.0,7.0,0.0
9934,82.0,0.0,120.0,4.0,0.0
9935,64.0,0.0,480.0,2.0,0.0
9936,59.0,0.0,660.0,6.0,0.0
9937,71.0,72.0,660.0,5.0,0.0
9938,83.0,0.0,660.0,4.0,0.0
9939,62.0,0.0,390.0,2.0,0.0
9940,86.0,480.0,390.0,0.0,0.0
9941,74.0,0.0,390.0,1.0,0.0
9942,52.0,0.0,390.0,7.0,0.0
9943,79.0,0.0,390.0,4.0,0.0
9944,64.0,0.0,390.0,6.0,0.0
9945,67.0,480.0,390.0,6.0,0.0
9946,61.0,0.0,1440.0,2.0,0.0
9947,40.0,0.0,390.0,8.0,0.0
9948,73.0,0.0,1440.0,1.0,0.0
9949,85.0,240.0,1440.0,0.0,0.0
9950,76.0,0.0,390.0,5.0,0.0
9951,52.0,0.0,390.0,7.0,0.0
9952,40.0,480.0,390.0,8.0,0.0
9953,73.0,0.0,390.0,5.0,0.0
9954,76.0,0.0,390.0,4.0,0.0
9955,64.0,0.0,390.0,6.0,0.0
9956,40.0,0.0,390.0,8.0,0.0
9957,52.0,0.0,390.0,7.0,0.0
9958,61.0,96.0,390.0,6.0,0.0
9959,64.0,144.0,240.0,2.0,0.0
9960,76.0,0.0,240.0,1.0,0.0
9961,40.0,48.0,390.0,8.0,0.0
9962,52.0,0.0,390.0,7.0,0.0
9963,88.0,0.0,240.0,0.0,0.0
9964,79.0,0.0,180.0,1.0,0.0
9965,91.0,0.0,180.0,0.0,0.0
9966,67.0,432.0,180.0,2.0,0.0
9967,54.0,336.0,390.0,7.0,0.0
9968,62.0,0.0,390.0,6.0,0.0
9969,71.0,0.0,720.0,1.0,0.0
9970,74.0,144.0,720.0,1.0,0.0
9971,42.0,0.0,390.0,8.0,0.0
9972,50.0,0.0,720.0,2.0,0.0
9973,59.0,0.0,720.0,2.0,0.0
9974,74.0,0.0,390.0,4.0,0.0
9975,59.0,0.0,390.0,6.0,0.0
9976,83.0,0.0,720.0,0.0,0.0
9977,71.0,0.0,390.0,5.0,0.0
9978,42.0,0.0,390.0,8.0,0.0
9979,54.0,480.0,390.0,7.0,0.0
9980,54.0,0.0,390.0,7.0,0.0
9981,82.0,0.0,720.0,0.0,0.0
9982,49.0,0.0,720.0,2.0,0.0
9983,70.0,0.0,390.0,5.0,0.0
9984,58.0,0.0,720.0,2.0,0.0
9985,58.0,0.0,390.0,6.0,0.0
9986,61.0,0.0,390.0,6.0,0.0
9987,73.0,144.0,720.0,1.0,0.0
9988,73.0,0.0,390.0,4.0,0.0
9989,70.0,0.0,720.0,1.0,0.0
9990,42.0,336.0,390.0,8.0,0.0
9991,54.0,0.0,390.0,7.0,0.0
9992,42.0,288.0,390.0,8.0,0.0
9993,35.0,0.0,780.0,8.0,0.0
9994,47.0,0.0,780.0,2.0,0.0
9995,47.0,0.0,780.0,7.0,0.0
9996,59.0,144.0,780.0,2.0,0.0
9997,71.0,0.0,780.0,1.0,0.0
9998,71.0,0.0,180.0,4.0,0.0
9999,59.0,0.0,780.0,6.0,0.0
10000,83.0,0.0,780.0,0.0,0.0
10001,71.0,240.0,180.0,5.0,0.0
10002,78.0,0.0,180.0,4.0,0.0
10003,78.0,240.0,180.0,5.0,0.0
10004,78.0,96.0,180.0,5.0,0.0
10005,78.0,0.0,180.0,4.0,0.0
10006,78.0,0.0,180.0,5.0,0.0
10007,78.0,240.0,180.0,4.0,0.0
10008,78.0,0.0,180.0,4.0,0.0
10009,78.0,240.0,180.0,5.0,0.0
10010,78.0,240.0,180.0,4.0,0.0
10011,78.0,0.0,180.0,5.0,0.0
10012,78.0,240.0,180.0,4.0,0.0
10013,78.0,0.0,180.0,5.0,0.0
10014,78.0,288.0,180.0,4.0,0.0
10015,78.0,0.0,180.0,5.0,0.0
10016,83.0,0.0,300.0,1.0,0.0
10017,50.0,48.0,330.0,8.0,0.0
10018,86.0,0.0,300.0,0.0,0.0
10019,66.0,0.0,300.0,3.0,0.0
10020,78.0,0.0,300.0,3.0,0.0
10021,62.0,48.0,300.0,2.0,0.0
10022,62.0,0.0,330.0,7.0,0.0
10023,83.0,48.0,240.0,4.0,0.0
10024,83.0,0.0,240.0,5.0,0.0
10025,71.0,0.0,300.0,2.0,0.0
10026,62.0,0.0,330.0,6.0,0.0
10027,86.0,240.0,150.0,4.0,0.0
10028,86.0,0.0,150.0,5.0,0.0
10029,85.0,0.0,150.0,4.0,0.0
10030,66.0,0.0,300.0,3.0,0.0
10031,82.0,0.0,300.0,1.0,0.0
10032,64.0,48.0,330.0,6.0,0.0
10033,85.0,144.0,150.0,5.0,0.0
10034,52.0,0.0,330.0,8.0,0.0
10035,85.0,0.0,300.0,0.0,0.0
10036,70.0,48.0,300.0,2.0,0.0
10037,64.0,0.0,330.0,7.0,0.0
10038,78.0,0.0,300.0,3.0,0.0
10039,61.0,0.0,300.0,2.0,0.0
10040,82.0,336.0,150.0,5.0,0.0
10041,82.0,0.0,150.0,4.0,0.0
10042,62.0,48.0,330.0,6.0,0.0
10043,83.0,48.0,240.0,5.0,0.0
10044,50.0,0.0,330.0,8.0,0.0
10045,86.0,0.0,300.0,0.0,0.0
10046,62.0,0.0,330.0,7.0,0.0
10047,78.0,0.0,300.0,3.0,0.0
10048,66.0,0.0,300.0,3.0,0.0
10049,83.0,0.0,240.0,4.0,0.0
10050,71.0,0.0,300.0,2.0,0.0
10051,83.0,48.0,300.0,1.0,0.0
10052,62.0,0.0,300.0,2.0,0.0
10053,86.0,240.0,150.0,4.0,0.0
10054,86.0,0.0,150.0,5.0,0.0
10055,85.0,144.0,150.0,4.0,0.0
10056,82.0,0.0,300.0,1.0,0.0
10057,61.0,0.0,300.0,2.0,0.0
10058,85.0,0.0,300.0,0.0,0.0
10059,64.0,48.0,330.0,7.0,0.0
10060,52.0,0.0,330.0,8.0,0.0
10061,66.0,0.0,300.0,3.0,0.0
10062,78.0,48.0,300.0,3.0,0.0
10063,64.0,0.0,330.0,6.0,0.0
10064,70.0,0.0,300.0,2.0,0.0
10065,85.0,0.0,150.0,5.0,0.0
10066,82.0,288.0,150.0,5.0,0.0
10067,82.0,0.0,150.0,4.0,0.0
10068,71.0,0.0,780.0,2.0,0.0
10069,50.0,48.0,870.0,8.0,0.0
10070,66.0,96.0,780.0,3.0,0.0
10071,78.0,0.0,780.0,3.0,0.0
10072,62.0,0.0,870.0,7.0,0.0
10073,83.0,0.0,780.0,1.0,0.0
10074,86.0,0.0,780.0,0.0,0.0
10075,83.0,0.0,180.0,5.0,0.0
10076,83.0,240.0,180.0,4.0,0.0
10077,62.0,0.0,780.0,2.0,0.0
10078,62.0,0.0,870.0,6.0,0.0
10079,78.0,0.0,180.0,5.0,0.0
10080,78.0,240.0,180.0,4.0,0.0
10081,78.0,0.0,180.0,4.0,0.0
10082,78.0,96.0,180.0,5.0,0.0
10083,78.0,240.0,180.0,4.0,0.0
10084,78.0,0.0,180.0,5.0,0.0
10085,78.0,240.0,180.0,5.0,0.0
10086,78.0,0.0,180.0,4.0,0.0
10087,78.0,240.0,180.0,4.0,0.0
10088,78.0,0.0,180.0,5.0,0.0
10089,78.0,0.0,180.0,5.0,0.0
10090,78.0,240.0,180.0,4.0,0.0
10091,78.0,0.0,180.0,5.0,0.0
10092,78.0,288.0,180.0,4.0,0.0
10093,62.0,48.0,300.0,2.0,0.0
10094,83.0,0.0,240.0,5.0,0.0
10095,83.0,0.0,300.0,1.0,0.0
10096,78.0,0.0,300.0,3.0,0.0
10097,86.0,0.0,300.0,0.0,0.0
10098,71.0,0.0,300.0,2.0,0.0
10099,50.0,0.0,330.0,8.0,0.0
10100,62.0,0.0,330.0,7.0,0.0
10101,66.0,0.0,300.0,3.0,0.0
10102,62.0,48.0,330.0,6.0,0.0
10103,83.0,48.0,240.0,4.0,0.0
10104,86.0,0.0,150.0,4.0,0.0
10105,86.0,240.0,150.0,5.0,0.0
10106,85.0,144.0,150.0,4.0,0.0
10107,61.0,0.0,300.0,2.0,0.0
10108,66.0,0.0,300.0,3.0,0.0
10109,64.0,0.0,330.0,7.0,0.0
10110,85.0,0.0,150.0,5.0,0.0
10111,78.0,0.0,300.0,3.0,0.0
10112,70.0,0.0,300.0,2.0,0.0
10113,85.0,0.0,300.0,0.0,0.0
10114,64.0,48.0,330.0,6.0,0.0
10115,52.0,0.0,330.0,8.0,0.0
10116,82.0,48.0,300.0,1.0,0.0
10117,82.0,336.0,150.0,5.0,0.0
10118,82.0,0.0,150.0,4.0,0.0
10119,66.0,0.0,300.0,3.0,0.0
10120,83.0,48.0,240.0,4.0,0.0
10121,62.0,0.0,330.0,7.0,0.0
10122,71.0,0.0,300.0,2.0,0.0
10123,62.0,0.0,300.0,2.0,0.0
10124,78.0,0.0,300.0,3.0,0.0
10125,83.0,0.0,300.0,1.0,0.0
10126,50.0,0.0,330.0,8.0,0.0
10127,83.0,0.0,240.0,5.0,0.0
10128,62.0,48.0,330.0,6.0,0.0
10129,86.0,48.0,300.0,0.0,0.0
10130,86.0,0.0,150.0,5.0,0.0
10131,86.0,240.0,150.0,4.0,0.0
10132,52.0,0.0,330.0,8.0,0.0
10133,66.0,0.0,300.0,3.0,0.0
10134,61.0,0.0,300.0,2.0,0.0
10135,70.0,0.0,300.0,2.0,0.0
10136,85.0,0.0,150.0,4.0,0.0
10137,78.0,0.0,300.0,3.0,0.0
10138,64.0,48.0,330.0,6.0,0.0
10139,85.0,144.0,150.0,5.0,0.0
10140,64.0,0.0,330.0,7.0,0.0
10141,82.0,0.0,300.0,1.0,0.0
10142,85.0,48.0,300.0,0.0,0.0
10143,82.0,288.0,150.0,5.0,0.0
10144,82.0,0.0,150.0,4.0,0.0
10145,83.0,0.0,780.0,1.0,0.0
10146,71.0,0.0,780.0,2.0,0.0
10147,62.0,96.0,780.0,2.0,0.0
10148,50.0,48.0,870.0,8.0,0.0
10149,62.0,0.0,870.0,7.0,0.0
10150,83.0,240.0,180.0,4.0,0.0
10151,62.0,0.0,870.0,6.0,0.0
10152,86.0,0.0,780.0,0.0,0.0
10153,66.0,0.0,780.0,3.0,0.0
10154,83.0,0.0,180.0,5.0,0.0
10155,78.0,0.0,780.0,3.0,0.0
10156,90.0,0.0,180.0,5.0,0.0
10157,90.0,240.0,180.0,4.0,0.0
10158,90.0,0.0,180.0,5.0,0.0
10159,90.0,96.0,180.0,4.0,0.0
10160,90.0,240.0,180.0,4.0,0.0
10161,90.0,0.0,180.0,5.0,0.0
10162,90.0,0.0,180.0,5.0,0.0
10163,90.0,240.0,180.0,4.0,0.0
10164,90.0,240.0,180.0,4.0,0.0
10165,90.0,0.0,180.0,5.0,0.0
10166,90.0,240.0,180.0,4.0,0.0
10167,90.0,0.0,180.0,5.0,0.0
10168,90.0,288.0,180.0,5.0,0.0
10169,90.0,0.0,180.0,4.0,0.0
10170,83.0,48.0,240.0,4.0,0.0
10171,66.0,48.0,300.0,3.0,0.0
10172,71.0,0.0,300.0,2.0,0.0
10173,62.0,48.0,330.0,7.0,0.0
10174,50.0,0.0,330.0,8.0,0.0
10175,78.0,0.0,300.0,3.0,0.0
10176,83.0,0.0,300.0,1.0,0.0
10177,86.0,0.0,300.0,1.0,0.0
10178,83.0,0.0,240.0,5.0,0.0
10179,62.0,0.0,300.0,2.0,0.0
10180,95.0,0.0,300.0,0.0,0.0
10181,62.0,0.0,330.0,6.0,0.0
10182,86.0,0.0,150.0,5.0,0.0
10183,86.0,240.0,150.0,4.0,0.0
10184,52.0,0.0,330.0,8.0,0.0
10185,82.0,0.0,300.0,1.0,0.0
10186,94.0,0.0,300.0,0.0,0.0
10187,85.0,0.0,300.0,1.0,0.0
10188,85.0,0.0,150.0,5.0,0.0
10189,78.0,0.0,300.0,3.0,0.0
10190,66.0,0.0,300.0,3.0,0.0
10191,64.0,0.0,330.0,7.0,0.0
10192,70.0,0.0,300.0,2.0,0.0
10193,61.0,48.0,300.0,2.0,0.0
10194,85.0,144.0,150.0,4.0,0.0
10195,64.0,48.0,330.0,6.0,0.0
10196,82.0,0.0,150.0,5.0,0.0
10197,82.0,336.0,150.0,4.0,0.0
10198,83.0,0.0,240.0,4.0,0.0
10199,83.0,48.0,240.0,5.0,0.0
10200,50.0,48.0,330.0,8.0,0.0
10201,62.0,0.0,330.0,6.0,0.0
10202,83.0,48.0,300.0,1.0,0.0
10203,71.0,0.0,300.0,2.0,0.0
10204,62.0,0.0,300.0,2.0,0.0
10205,78.0,0.0,300.0,3.0,0.0
10206,66.0,0.0,300.0,3.0,0.0
10207,62.0,0.0,330.0,7.0,0.0
10208,95.0,0.0,300.0,0.0,0.0
10209,86.0,0.0,300.0,1.0,0.0
10210,86.0,240.0,150.0,5.0,0.0
10211,86.0,0.0,150.0,4.0,0.0
10212,85.0,144.0,150.0,5.0,0.0
10213,78.0,0.0,300.0,3.0,0.0
10214,82.0,0.0,300.0,1.0,0.0
10215,85.0,0.0,300.0,1.0,0.0
10216,66.0,48.0,300.0,3.0,0.0
10217,94.0,0.0,300.0,0.0,0.0
10218,64.0,48.0,330.0,6.0,0.0
10219,70.0,0.0,300.0,2.0,0.0
10220,61.0,0.0,300.0,2.0,0.0
10221,64.0,0.0,330.0,7.0,0.0
10222,85.0,0.0,150.0,4.0,0.0
10223,52.0,0.0,330.0,8.0,0.0
10224,82.0,288.0,150.0,5.0,0.0
10225,82.0,0.0,150.0,4.0,0.0
10226,78.0,0.0,780.0,3.0,0.0
10227,90.0,144.0,780.0,1.0,0.0
10228,83.0,0.0,1740.0,1.0,0.0
10229,95.0,0.0,780.0,0.0,0.0
10230,62.0,0.0,390.0,7.0,0.0
10231,50.0,48.0,390.0,8.0,0.0
10232,66.0,0.0,780.0,2.0,0.0
10233,83.0,192.0,180.0,5.0,0.0
10234,71.0,0.0,780.0,2.0,0.0
10235,83.0,0.0,180.0,4.0,0.0
10236,62.0,0.0,390.0,6.0,0.0
10237,78.0,240.0,180.0,5.0,0.0
10238,78.0,0.0,180.0,4.0,0.0
10239,78.0,96.0,180.0,5.0,0.0
10240,78.0,0.0,180.0,4.0,0.0
10241,78.0,0.0,180.0,5.0,0.0
10242,78.0,240.0,180.0,4.0,0.0
10243,76.0,0.0,780.0,3.0,0.0
10244,64.0,0.0,390.0,6.0,0.0
10245,79.0,0.0,180.0,5.0,0.0
10246,67.0,0.0,780.0,2.0,0.0
10247,64.0,0.0,780.0,2.0,0.0
10248,64.0,0.0,390.0,7.0,0.0
10249,79.0,192.0,180.0,4.0,0.0
10250,52.0,48.0,390.0,8.0,0.0
10251,88.0,144.0,780.0,1.0,0.0
10252,91.0,0.0,780.0,0.0,0.0
10253,76.0,0.0,180.0,4.0,0.0
10254,76.0,240.0,180.0,5.0,0.0
10255,76.0,96.0,180.0,5.0,0.0
10256,76.0,0.0,180.0,4.0,0.0
10257,76.0,240.0,180.0,4.0,0.0
10258,76.0,0.0,180.0,5.0,0.0
10259,78.0,0.0,180.0,4.0,0.0
10260,66.0,0.0,390.0,7.0,0.0
10261,54.0,48.0,390.0,8.0,0.0
10262,59.0,0.0,780.0,2.0,0.0
10263,86.0,0.0,780.0,1.0,0.0
10264,62.0,0.0,780.0,2.0,0.0
10265,78.0,192.0,180.0,5.0,0.0
10266,74.0,0.0,780.0,3.0,0.0
10267,83.0,0.0,780.0,1.0,0.0
10268,66.0,0.0,390.0,6.0,0.0
10269,90.0,144.0,780.0,0.0,0.0
10270,71.0,0.0,180.0,4.0,0.0
10271,71.0,240.0,180.0,5.0,0.0
10272,71.0,96.0,180.0,5.0,0.0
10273,71.0,0.0,180.0,4.0,0.0
10274,71.0,0.0,180.0,5.0,0.0
10275,71.0,240.0,180.0,4.0,0.0
10276,42.0,0.0,390.0,8.0,0.0
10277,78.0,0.0,180.0,5.0,0.0
10278,78.0,192.0,180.0,4.0,0.0
10279,54.0,48.0,390.0,6.0,0.0
10280,85.0,0.0,780.0,0.0,0.0
10281,61.0,0.0,780.0,2.0,0.0
10282,66.0,0.0,780.0,3.0,0.0
10283,76.0,0.0,780.0,1.0,0.0
10284,82.0,0.0,780.0,1.0,0.0
10285,54.0,0.0,390.0,7.0,0.0
10286,58.0,144.0,780.0,2.0,0.0
10287,70.0,0.0,180.0,5.0,0.0
10288,70.0,240.0,180.0,4.0,0.0
10289,70.0,0.0,180.0,5.0,0.0
10290,70.0,96.0,180.0,4.0,0.0
10291,70.0,0.0,180.0,4.0,0.0
10292,70.0,216.0,180.0,5.0,0.0
10293,59.0,0.0,390.0,6.0,0.0
10294,66.0,0.0,390.0,3.0,0.0
10295,83.0,0.0,390.0,1.0,0.0
10296,59.0,0.0,390.0,7.0,0.0
10297,74.0,96.0,390.0,1.0,0.0
10298,59.0,0.0,390.0,2.0,0.0
10299,47.0,0.0,390.0,8.0,0.0
10300,83.0,0.0,390.0,0.0,0.0
10301,71.0,0.0,390.0,5.0,0.0
10302,71.0,216.0,180.0,4.0,0.0
10303,66.0,240.0,240.0,4.0,0.0
10304,65.0,240.0,240.0,4.0,0.0
10305,66.0,240.0,240.0,4.0,0.0
10306,65.0,240.0,240.0,4.0,0.0
10307,66.0,240.0,240.0,4.0,0.0
10308,67.0,192.0,240.0,4.0,0.0
10309,66.0,288.0,180.0,4.0,0.0
10310,71.0,144.0,240.0,4.0,0.0
10311,66.0,0.0,390.0,5.0,0.0
10312,59.0,0.0,240.0,6.0,0.0
10313,50.0,0.0,390.0,7.0,0.0
10314,38.0,240.0,390.0,8.0,0.0
10315,62.0,0.0,150.0,6.0,0.0
10316,74.0,0.0,150.0,4.0,0.0
10317,66.0,96.0,780.0,5.0,0.0
10318,52.0,0.0,390.0,7.0,0.0
10319,61.0,240.0,150.0,6.0,0.0
10320,73.0,0.0,150.0,4.0,0.0
10321,40.0,336.0,390.0,8.0,0.0
10322,58.0,0.0,150.0,6.0,0.0
10323,70.0,0.0,150.0,4.0,0.0
10324,71.0,48.0,240.0,4.0,0.0
10325,59.0,0.0,240.0,6.0,0.0
10326,50.0,0.0,390.0,7.0,0.0
10327,38.0,0.0,390.0,8.0,0.0
10328,74.0,0.0,150.0,4.0,0.0
10329,62.0,240.0,150.0,6.0,0.0
10330,52.0,288.0,390.0,7.0,0.0
10331,73.0,240.0,150.0,4.0,0.0
10332,40.0,0.0,390.0,8.0,0.0
10333,61.0,0.0,150.0,6.0,0.0
10334,66.0,0.0,870.0,5.0,0.0
10335,58.0,0.0,150.0,6.0,0.0
10336,70.0,0.0,150.0,4.0,0.0
10337,71.0,192.0,180.0,4.0,0.0
10338,50.0,0.0,390.0,7.0,0.0
10339,59.0,0.0,180.0,6.0,0.0
10340,38.0,96.0,390.0,8.0,0.0
10341,66.0,0.0,240.0,6.0,0.0
10342,78.0,240.0,240.0,4.0,0.0
10343,77.0,0.0,240.0,4.0,0.0
10344,65.0,240.0,240.0,6.0,0.0
10345,78.0,240.0,240.0,4.0,0.0
10346,66.0,0.0,240.0,6.0,0.0
10347,65.0,0.0,240.0,6.0,0.0
10348,77.0,240.0,240.0,4.0,0.0
10349,66.0,0.0,240.0,6.0,0.0
10350,78.0,240.0,240.0,4.0,0.0
10351,67.0,0.0,240.0,6.0,0.0
10352,79.0,192.0,240.0,4.0,0.0
10353,78.0,0.0,180.0,4.0,0.0
10354,66.0,288.0,180.0,6.0,0.0
10355,38.0,0.0,390.0,8.0,0.0
10356,59.0,0.0,240.0,6.0,0.0
10357,50.0,0.0,390.0,7.0,0.0
10358,66.0,0.0,390.0,5.0,0.0
10359,71.0,144.0,240.0,4.0,0.0
10360,62.0,240.0,150.0,6.0,0.0
10361,74.0,0.0,150.0,4.0,0.0
10362,52.0,0.0,390.0,7.0,0.0
10363,61.0,0.0,150.0,6.0,0.0
10364,66.0,96.0,780.0,5.0,0.0
10365,73.0,240.0,150.0,4.0,0.0
10366,40.0,0.0,390.0,8.0,0.0
10367,58.0,0.0,150.0,6.0,0.0
10368,70.0,336.0,150.0,4.0,0.0
10369,38.0,0.0,390.0,8.0,0.0
10370,50.0,240.0,390.0,7.0,0.0
10371,59.0,0.0,240.0,6.0,0.0
10372,71.0,48.0,240.0,4.0,0.0
10373,62.0,0.0,150.0,6.0,0.0
10374,74.0,0.0,150.0,4.0,0.0
10375,73.0,0.0,150.0,4.0,0.0
10376,52.0,0.0,390.0,7.0,0.0
10377,66.0,0.0,870.0,5.0,0.0
10378,40.0,0.0,390.0,8.0,0.0
10379,61.0,240.0,150.0,6.0,0.0
10380,58.0,264.0,150.0,6.0,0.0
10381,70.0,0.0,150.0,4.0,0.0
10382,50.0,0.0,390.0,7.0,0.0
10383,71.0,216.0,180.0,4.0,0.0
10384,38.0,0.0,390.0,8.0,0.0
10385,59.0,96.0,390.0,6.0,0.0
10386,66.0,240.0,240.0,4.0,0.0
10387,65.0,240.0,240.0,4.0,0.0
10388,66.0,240.0,240.0,4.0,0.0
10389,65.0,240.0,240.0,4.0,0.0
10390,66.0,240.0,240.0,4.0,0.0
10391,67.0,192.0,240.0,4.0,0.0
10392,66.0,240.0,180.0,4.0,0.0
10393,50.0,0.0,330.0,7.0,0.0
10394,71.0,96.0,240.0,5.0,0.0
10395,86.0,0.0,330.0,0.0,0.0
10396,83.0,0.0,330.0,1.0,0.0
10397,62.0,0.0,330.0,6.0,0.0
10398,74.0,0.0,330.0,1.0,0.0
10399,54.0,0.0,330.0,3.0,0.0
10400,66.0,0.0,330.0,3.0,0.0
10401,62.0,48.0,330.0,2.0,0.0
10402,71.0,0.0,330.0,2.0,0.0
10403,78.0,48.0,180.0,4.0,0.0
10404,38.0,0.0,330.0,8.0,0.0
10405,74.0,48.0,150.0,5.0,0.0
10406,78.0,192.0,180.0,4.0,0.0
10407,61.0,0.0,330.0,2.0,0.0
10408,85.0,0.0,330.0,0.0,0.0
10409,82.0,0.0,330.0,1.0,0.0
10410,73.0,0.0,330.0,1.0,0.0
10411,54.0,48.0,330.0,3.0,0.0
10412,66.0,0.0,330.0,3.0,0.0
10413,78.0,144.0,180.0,4.0,0.0
10414,64.0,0.0,330.0,6.0,0.0
10415,40.0,0.0,330.0,8.0,0.0
10416,70.0,0.0,330.0,2.0,0.0
10417,52.0,0.0,330.0,7.0,0.0
10418,73.0,48.0,150.0,5.0,0.0
10419,78.0,240.0,180.0,4.0,0.0
10420,70.0,48.0,150.0,5.0,0.0
10421,66.0,0.0,330.0,3.0,0.0
10422,71.0,0.0,330.0,2.0,0.0
10423,62.0,0.0,330.0,2.0,0.0
10424,54.0,0.0,330.0,3.0,0.0
10425,83.0,0.0,330.0,1.0,0.0
10426,50.0,48.0,330.0,7.0,0.0
10427,74.0,0.0,330.0,1.0,0.0
10428,78.0,48.0,180.0,4.0,0.0
10429,86.0,0.0,330.0,0.0,0.0
10430,38.0,0.0,330.0,8.0,0.0
10431,71.0,96.0,240.0,5.0,0.0
10432,62.0,0.0,330.0,6.0,0.0
10433,78.0,192.0,180.0,4.0,0.0
10434,74.0,48.0,150.0,5.0,0.0
10435,64.0,0.0,330.0,6.0,0.0
10436,40.0,0.0,330.0,8.0,0.0
10437,85.0,0.0,330.0,0.0,0.0
10438,73.0,48.0,150.0,5.0,0.0
10439,52.0,48.0,330.0,7.0,0.0
10440,61.0,0.0,330.0,2.0,0.0
10441,82.0,0.0,330.0,1.0,0.0
10442,73.0,0.0,330.0,1.0,0.0
10443,70.0,0.0,330.0,2.0,0.0
10444,54.0,0.0,330.0,3.0,0.0
10445,66.0,0.0,330.0,3.0,0.0
10446,78.0,144.0,180.0,4.0,0.0
10447,78.0,240.0,180.0,4.0,0.0
10448,70.0,48.0,150.0,5.0,0.0
10449,50.0,0.0,330.0,7.0,0.0
10450,66.0,0.0,330.0,3.0,0.0
10451,54.0,0.0,330.0,3.0,0.0
10452,83.0,96.0,240.0,4.0,0.0
10453,71.0,0.0,330.0,2.0,0.0
10454,62.0,72.0,330.0,2.0,0.0
10455,86.0,0.0,330.0,0.0,0.0
10456,38.0,0.0,330.0,8.0,0.0
10457,74.0,0.0,330.0,1.0,0.0
10458,62.0,0.0,330.0,6.0,0.0
10459,83.0,0.0,330.0,1.0,0.0
10460,78.0,48.0,180.0,5.0,0.0
10461,86.0,24.0,180.0,4.0,0.0
10462,78.0,216.0,180.0,5.0,0.0
10463,85.0,24.0,180.0,4.0,0.0
10464,64.0,0.0,330.0,6.0,0.0
10465,66.0,0.0,330.0,3.0,0.0
10466,52.0,0.0,330.0,7.0,0.0
10467,54.0,0.0,330.0,3.0,0.0
10468,61.0,0.0,330.0,2.0,0.0
10469,70.0,72.0,330.0,2.0,0.0
10470,82.0,0.0,330.0,1.0,0.0
10471,78.0,144.0,180.0,5.0,0.0
10472,85.0,0.0,330.0,0.0,0.0
10473,40.0,0.0,330.0,8.0,0.0
10474,73.0,0.0,330.0,1.0,0.0
10475,82.0,24.0,180.0,4.0,0.0
10476,78.0,240.0,180.0,5.0,0.0
10477,78.0,48.0,180.0,5.0,0.0
10478,62.0,0.0,330.0,2.0,0.0
10479,71.0,0.0,330.0,2.0,0.0
10480,50.0,0.0,330.0,7.0,0.0
10481,83.0,96.0,240.0,4.0,0.0
10482,83.0,0.0,330.0,1.0,0.0
10483,74.0,0.0,330.0,1.0,0.0
10484,66.0,0.0,330.0,3.0,0.0
10485,86.0,0.0,330.0,0.0,0.0
10486,38.0,72.0,330.0,8.0,0.0
10487,54.0,0.0,330.0,3.0,0.0
10488,62.0,0.0,330.0,6.0,0.0
10489,78.0,216.0,180.0,5.0,0.0
10490,86.0,24.0,180.0,4.0,0.0
10491,73.0,0.0,330.0,1.0,0.0
10492,54.0,0.0,330.0,3.0,0.0
10493,66.0,0.0,330.0,3.0,0.0
10494,52.0,0.0,330.0,7.0,0.0
10495,78.0,144.0,180.0,5.0,0.0
10496,85.0,0.0,330.0,0.0,0.0
10497,82.0,0.0,330.0,1.0,0.0
10498,61.0,0.0,330.0,2.0,0.0
10499,70.0,0.0,330.0,2.0,0.0
10500,64.0,72.0,330.0,6.0,0.0
10501,40.0,0.0,330.0,8.0,0.0
10502,85.0,24.0,180.0,4.0,0.0
10503,82.0,24.0,180.0,4.0,0.0
10504,78.0,240.0,180.0,5.0,0.0
10505,71.0,0.0,330.0,2.0,0.0
10506,74.0,0.0,330.0,1.0,0.0
10507,83.0,0.0,330.0,1.0,0.0
10508,90.0,48.0,180.0,4.0,0.0
10509,86.0,0.0,330.0,0.0,0.0
10510,83.0,96.0,240.0,5.0,0.0
10511,50.0,72.0,330.0,7.0,0.0
10512,38.0,0.0,330.0,8.0,0.0
10513,62.0,0.0,330.0,6.0,0.0
10514,54.0,0.0,330.0,3.0,0.0
10515,66.0,0.0,330.0,3.0,0.0
10516,62.0,0.0,330.0,2.0,0.0
10517,90.0,216.0,180.0,4.0,0.0
10518,86.0,24.0,180.0,5.0,0.0
10519,40.0,0.0,330.0,8.0,0.0
10520,73.0,0.0,330.0,1.0,0.0
10521,82.0,0.0,330.0,1.0,0.0
10522,85.0,0.0,330.0,0.0,0.0
10523,54.0,0.0,330.0,3.0,0.0
10524,70.0,72.0,330.0,2.0,0.0
10525,61.0,0.0,330.0,2.0,0.0
10526,90.0,144.0,180.0,4.0,0.0
10527,66.0,0.0,330.0,3.0,0.0
10528,85.0,24.0,180.0,5.0,0.0
10529,64.0,0.0,330.0,6.0,0.0
10530,52.0,0.0,330.0,7.0,0.0
10531,90.0,240.0,180.0,4.0,0.0
10532,82.0,24.0,180.0,5.0,0.0
10533,38.0,0.0,330.0,8.0,0.0
10534,90.0,48.0,180.0,4.0,0.0
10535,83.0,96.0,240.0,5.0,0.0
10536,62.0,0.0,330.0,2.0,0.0
10537,71.0,72.0,330.0,2.0,0.0
10538,66.0,0.0,330.0,3.0,0.0
10539,86.0,0.0,330.0,0.0,0.0
10540,83.0,0.0,330.0,1.0,0.0
10541,54.0,0.0,330.0,3.0,0.0
10542,50.0,0.0,330.0,7.0,0.0
10543,74.0,0.0,330.0,1.0,0.0
10544,62.0,0.0,330.0,6.0,0.0
10545,90.0,216.0,180.0,4.0,0.0
10546,86.0,24.0,180.0,5.0,0.0
10547,52.0,0.0,330.0,7.0,0.0
10548,70.0,0.0,330.0,2.0,0.0
10549,40.0,0.0,330.0,8.0,0.0
10550,85.0,24.0,180.0,5.0,0.0
10551,61.0,0.0,330.0,2.0,0.0
10552,90.0,144.0,180.0,4.0,0.0
10553,82.0,0.0,330.0,1.0,0.0
10554,73.0,0.0,330.0,1.0,0.0
10555,64.0,0.0,330.0,6.0,0.0
10556,85.0,0.0,330.0,0.0,0.0
10557,54.0,72.0,330.0,3.0,0.0
10558,66.0,0.0,330.0,3.0,0.0
10559,82.0,24.0,180.0,5.0,0.0
10560,90.0,216.0,180.0,4.0,0.0
10561,81.0,0.0,180.0,5.0,0.0
10562,69.0,24.0,1830.0,3.0,0.0
10563,71.0,0.0,1830.0,2.0,0.0
10564,39.0,0.0,180.0,8.0,0.0
10565,83.0,0.0,1830.0,0.0,0.0
10566,51.0,0.0,180.0,7.0,0.0
10567,81.0,0.0,1830.0,1.0,0.0
10568,90.0,216.0,180.0,4.0,0.0
10569,63.0,24.0,180.0,6.0,0.0
10570,78.0,0.0,1830.0,1.0,0.0
10571,66.0,0.0,1830.0,2.0,0.0
10572,59.0,0.0,1830.0,3.0,0.0
10573,52.0,24.0,180.0,7.0,0.0
10574,40.0,0.0,180.0,8.0,0.0
10575,81.0,0.0,180.0,5.0,0.0
10576,64.0,0.0,180.0,6.0,0.0
10577,90.0,216.0,180.0,4.0,0.0
10578,42.0,24.0,180.0,8.0,0.0
10579,90.0,216.0,180.0,4.0,0.0
10580,54.0,0.0,180.0,7.0,0.0
10581,66.0,0.0,180.0,6.0,0.0
10582,81.0,0.0,180.0,5.0,0.0
10583,55.0,0.0,180.0,7.0,0.0
10584,90.0,216.0,180.0,4.0,0.0
10585,81.0,0.0,180.0,5.0,0.0
10586,43.0,0.0,180.0,8.0,0.0
10587,67.0,24.0,180.0,6.0,0.0
10588,45.0,24.0,180.0,8.0,0.0
10589,57.0,0.0,180.0,7.0,0.0
10590,90.0,216.0,180.0,4.0,0.0
10591,81.0,0.0,180.0,5.0,0.0
10592,69.0,0.0,180.0,6.0,0.0
10593,47.0,0.0,180.0,8.0,0.0
10594,90.0,216.0,180.0,4.0,0.0
10595,81.0,0.0,180.0,5.0,0.0
10596,71.0,24.0,180.0,6.0,0.0
10597,59.0,0.0,180.0,7.0,0.0
10598,73.0,0.0,180.0,6.0,0.0
10599,90.0,192.0,180.0,4.0,0.0
10600,61.0,24.0,180.0,7.0,0.0
10601,49.0,0.0,180.0,8.0,0.0
10602,81.0,0.0,180.0,5.0,0.0
10603,75.0,0.0,180.0,6.0,0.0
10604,63.0,24.0,180.0,7.0,0.0
10605,81.0,0.0,180.0,5.0,0.0
10606,51.0,0.0,180.0,8.0,0.0
10607,90.0,216.0,180.0,4.0,0.0
10608,76.0,0.0,1830.0,6.0,0.0
10609,52.0,0.0,180.0,2.0,0.0
10610,76.0,24.0,180.0,1.0,0.0
10611,64.0,24.0,1830.0,7.0,0.0
10612,79.0,0.0,180.0,0.0,0.0
10613,90.0,216.0,180.0,4.0,0.0
10614,55.0,0.0,180.0,2.0,0.0
10615,52.0,0.0,1830.0,8.0,0.0
10616,79.0,0.0,180.0,5.0,0.0
10617,81.0,0.0,180.0,0.0,0.0
10618,57.0,24.0,180.0,2.0,0.0
10619,79.0,216.0,180.0,5.0,0.0
10620,78.0,0.0,180.0,1.0,0.0
10621,54.0,0.0,180.0,2.0,0.0
10622,90.0,0.0,180.0,4.0,0.0
10623,59.0,0.0,180.0,2.0,0.0
10624,55.0,24.0,180.0,2.0,0.0
10625,79.0,0.0,180.0,5.0,0.0
10626,83.0,0.0,180.0,0.0,0.0
10627,79.0,0.0,180.0,1.0,0.0
10628,90.0,216.0,180.0,4.0,0.0
10629,81.0,0.0,180.0,1.0,0.0
10630,85.0,24.0,180.0,0.0,0.0
10631,61.0,0.0,180.0,2.0,0.0
10632,57.0,0.0,180.0,2.0,0.0
10633,79.0,216.0,180.0,5.0,0.0
10634,90.0,0.0,180.0,4.0,0.0
10635,83.0,0.0,180.0,1.0,0.0
10636,79.0,216.0,180.0,5.0,0.0
10637,59.0,0.0,180.0,2.0,0.0
10638,63.0,24.0,180.0,2.0,0.0
10639,88.0,0.0,180.0,4.0,0.0
10640,87.0,0.0,180.0,0.0,0.0
10641,61.0,0.0,180.0,2.0,0.0
10642,64.0,0.0,180.0,2.0,0.0
10643,85.0,0.0,180.0,1.0,0.0
10644,79.0,216.0,180.0,5.0,0.0
10645,88.0,24.0,180.0,0.0,0.0
10646,88.0,0.0,180.0,4.0,0.0
10647,66.0,0.0,180.0,2.0,0.0
10648,63.0,0.0,180.0,2.0,0.0
10649,87.0,24.0,180.0,1.0,0.0
10650,90.0,0.0,180.0,0.0,0.0
10651,88.0,0.0,180.0,4.0,0.0
10652,79.0,192.0,180.0,5.0,0.0
10653,88.0,0.0,180.0,1.0,0.0
10654,64.0,24.0,180.0,2.0,0.0
10655,67.0,0.0,180.0,2.0,0.0
10656,91.0,0.0,180.0,0.0,0.0
10657,79.0,240.0,180.0,5.0,0.0
10658,88.0,0.0,180.0,4.0,0.0
10659,54.0,0.0,660.0,7.0,0.0
10660,42.0,0.0,660.0,8.0,0.0
10661,82.0,0.0,780.0,1.0,0.0
10662,78.0,0.0,180.0,5.0,0.0
10663,66.0,0.0,780.0,3.0,0.0
10664,88.0,240.0,180.0,4.0,0.0
10665,58.0,144.0,780.0,2.0,0.0
10666,70.0,0.0,780.0,1.0,0.0
10667,73.0,0.0,780.0,3.0,0.0
10668,66.0,0.0,660.0,6.0,0.0
10669,82.0,0.0,780.0,0.0,0.0
10670,78.0,240.0,180.0,5.0,0.0
10671,88.0,0.0,180.0,4.0,0.0
10672,78.0,96.0,180.0,5.0,0.0
10673,88.0,0.0,180.0,4.0,0.0
10674,78.0,0.0,180.0,5.0,0.0
10675,88.0,240.0,180.0,4.0,0.0
10676,43.0,0.0,660.0,8.0,0.0
10677,59.0,0.0,780.0,2.0,0.0
10678,62.0,0.0,780.0,3.0,0.0
10679,71.0,0.0,780.0,1.0,0.0
10680,67.0,96.0,660.0,6.0,0.0
10681,86.0,240.0,180.0,4.0,0.0
10682,83.0,0.0,780.0,0.0,0.0
10683,71.0,144.0,780.0,3.0,0.0
10684,55.0,0.0,660.0,7.0,0.0
10685,83.0,0.0,780.0,1.0,0.0
10686,83.0,0.0,180.0,5.0,0.0
10687,86.0,0.0,180.0,4.0,0.0
10688,83.0,240.0,180.0,5.0,0.0
10689,86.0,0.0,180.0,4.0,0.0
10690,83.0,0.0,180.0,5.0,0.0
10691,83.0,240.0,180.0,5.0,0.0
10692,86.0,0.0,180.0,4.0,0.0
10693,88.0,0.0,780.0,0.0,0.0
10694,85.0,240.0,180.0,4.0,0.0
10695,52.0,0.0,660.0,7.0,0.0
10696,64.0,0.0,780.0,2.0,0.0
10697,40.0,0.0,660.0,8.0,0.0
10698,76.0,0.0,180.0,5.0,0.0
10699,76.0,0.0,780.0,1.0,0.0
10700,61.0,0.0,780.0,2.0,0.0
10701,64.0,0.0,660.0,6.0,0.0
10702,85.0,144.0,780.0,1.0,0.0
10703,85.0,0.0,180.0,4.0,0.0
10704,76.0,240.0,180.0,5.0,0.0
10705,85.0,0.0,180.0,4.0,0.0
10706,76.0,96.0,180.0,5.0,0.0
10707,85.0,240.0,180.0,4.0,0.0
10708,76.0,0.0,180.0,5.0,0.0
10709,58.0,0.0,780.0,2.0,0.0
10710,73.0,240.0,180.0,5.0,0.0
10711,61.0,0.0,780.0,2.0,0.0
10712,82.0,0.0,180.0,4.0,0.0
10713,66.0,96.0,660.0,6.0,0.0
10714,54.0,144.0,780.0,3.0,0.0
10715,54.0,0.0,660.0,7.0,0.0
10716,85.0,0.0,780.0,0.0,0.0
10717,73.0,0.0,780.0,1.0,0.0
10718,82.0,0.0,780.0,1.0,0.0
10719,66.0,0.0,780.0,3.0,0.0
10720,42.0,0.0,660.0,8.0,0.0
10721,73.0,240.0,180.0,5.0,0.0
10722,82.0,0.0,180.0,4.0,0.0
10723,82.0,0.0,180.0,4.0,0.0
10724,73.0,0.0,180.0,5.0,0.0
10725,82.0,0.0,180.0,4.0,0.0
10726,73.0,216.0,180.0,5.0,0.0
10727,51.0,0.0,180.0,7.0,0.0
10728,83.0,0.0,1830.0,0.0,0.0
10729,63.0,0.0,180.0,6.0,0.0
10730,59.0,0.0,1830.0,3.0,0.0
10731,78.0,0.0,1830.0,1.0,0.0
10732,69.0,0.0,1830.0,3.0,0.0
10733,71.0,24.0,1830.0,2.0,0.0
10734,81.0,0.0,1830.0,1.0,0.0
10735,81.0,216.0,180.0,5.0,0.0
10736,90.0,0.0,180.0,4.0,0.0
10737,66.0,0.0,1830.0,2.0,0.0
10738,39.0,24.0,180.0,8.0,0.0
10739,64.0,24.0,180.0,6.0,0.0
10740,81.0,0.0,180.0,5.0,0.0
10741,40.0,0.0,180.0,8.0,0.0
10742,52.0,0.0,180.0,7.0,0.0
10743,90.0,216.0,180.0,4.0,0.0
10744,81.0,0.0,180.0,5.0,0.0
10745,66.0,0.0,180.0,6.0,0.0
10746,42.0,0.0,180.0,8.0,0.0
10747,54.0,24.0,180.0,7.0,0.0
10748,90.0,216.0,180.0,4.0,0.0
10749,67.0,24.0,180.0,6.0,0.0
10750,81.0,216.0,180.0,5.0,0.0
10751,43.0,0.0,180.0,8.0,0.0
10752,90.0,0.0,180.0,4.0,0.0
10753,55.0,0.0,180.0,7.0,0.0
10754,57.0,0.0,180.0,7.0,0.0
10755,90.0,216.0,180.0,4.0,0.0
10756,45.0,24.0,180.0,8.0,0.0
10757,69.0,0.0,180.0,6.0,0.0
10758,81.0,0.0,180.0,5.0,0.0
10759,47.0,0.0,180.0,8.0,0.0
10760,71.0,0.0,180.0,6.0,0.0
10761,59.0,24.0,180.0,7.0,0.0
10762,90.0,216.0,180.0,4.0,0.0
10763,81.0,0.0,180.0,5.0,0.0
10764,61.0,0.0,180.0,7.0,0.0
10765,73.0,0.0,180.0,6.0,0.0
10766,49.0,24.0,180.0,8.0,0.0
10767,90.0,0.0,180.0,4.0,0.0
10768,81.0,192.0,180.0,5.0,0.0
10769,63.0,0.0,180.0,7.0,0.0
10770,51.0,0.0,180.0,8.0,0.0
10771,90.0,0.0,180.0,4.0,0.0
10772,75.0,24.0,180.0,6.0,0.0
10773,81.0,216.0,180.0,5.0,0.0
10774,55.0,24.0,180.0,2.0,0.0
10775,52.0,0.0,180.0,2.0,0.0
10776,76.0,0.0,180.0,1.0,0.0
10777,52.0,24.0,1830.0,8.0,0.0
10778,90.0,216.0,180.0,4.0,0.0
10779,76.0,0.0,1830.0,6.0,0.0
10780,64.0,0.0,1830.0,7.0,0.0
10781,79.0,0.0,180.0,0.0,0.0
10782,79.0,0.0,180.0,5.0,0.0
10783,78.0,0.0,180.0,1.0,0.0
10784,54.0,24.0,180.0,2.0,0.0
10785,81.0,0.0,180.0,0.0,0.0
10786,90.0,0.0,180.0,4.0,0.0
10787,79.0,216.0,180.0,5.0,0.0
10788,57.0,0.0,180.0,2.0,0.0
10789,55.0,0.0,180.0,2.0,0.0
10790,79.0,0.0,180.0,5.0,0.0
10791,83.0,24.0,180.0,0.0,0.0
10792,59.0,0.0,180.0,2.0,0.0
10793,79.0,0.0,180.0,1.0,0.0
10794,90.0,216.0,180.0,4.0,0.0
10795,90.0,216.0,180.0,4.0,0.0
10796,57.0,0.0,180.0,2.0,0.0
10797,61.0,0.0,180.0,2.0,0.0
10798,81.0,24.0,180.0,1.0,0.0
10799,85.0,0.0,180.0,0.0,0.0
10800,79.0,0.0,180.0,5.0,0.0
10801,87.0,0.0,180.0,0.0,0.0
10802,79.0,0.0,180.0,5.0,0.0
10803,83.0,0.0,180.0,1.0,0.0
10804,63.0,24.0,180.0,2.0,0.0
10805,59.0,0.0,180.0,2.0,0.0
10806,88.0,216.0,180.0,4.0,0.0
10807,88.0,0.0,180.0,0.0,0.0
10808,61.0,0.0,180.0,2.0,0.0
10809,88.0,216.0,180.0,4.0,0.0
10810,64.0,0.0,180.0,2.0,0.0
10811,85.0,24.0,180.0,1.0,0.0
10812,79.0,0.0,180.0,5.0,0.0
10813,79.0,0.0,180.0,5.0,0.0
10814,90.0,0.0,180.0,0.0,0.0
10815,88.0,192.0,180.0,4.0,0.0
10816,63.0,24.0,180.0,2.0,0.0
10817,87.0,0.0,180.0,1.0,0.0
10818,66.0,0.0,180.0,2.0,0.0
10819,67.0,24.0,180.0,2.0,0.0
10820,88.0,0.0,180.0,1.0,0.0
10821,91.0,0.0,180.0,0.0,0.0
10822,64.0,0.0,180.0,2.0,0.0
10823,79.0,240.0,180.0,5.0,0.0
10824,88.0,0.0,180.0,4.0,0.0
10825,78.0,0.0,180.0,5.0,0.0
10826,54.0,0.0,660.0,7.0,0.0
10827,66.0,0.0,660.0,6.0,0.0
10828,88.0,240.0,180.0,4.0,0.0
10829,66.0,0.0,780.0,3.0,0.0
10830,73.0,0.0,780.0,3.0,0.0
10831,42.0,0.0,660.0,8.0,0.0
10832,82.0,144.0,780.0,0.0,0.0
10833,70.0,0.0,780.0,1.0,0.0
10834,82.0,0.0,780.0,1.0,0.0
10835,58.0,0.0,780.0,2.0,0.0
10836,78.0,240.0,180.0,5.0,0.0
10837,88.0,0.0,180.0,4.0,0.0
10838,88.0,96.0,180.0,4.0,0.0
10839,78.0,0.0,180.0,5.0,0.0
10840,78.0,240.0,180.0,5.0,0.0
10841,88.0,0.0,180.0,4.0,0.0
10842,71.0,0.0,780.0,3.0,0.0
10843,62.0,0.0,780.0,3.0,0.0
10844,59.0,0.0,780.0,2.0,0.0
10845,83.0,144.0,780.0,1.0,0.0
10846,71.0,0.0,780.0,1.0,0.0
10847,67.0,0.0,660.0,6.0,0.0
10848,83.0,0.0,780.0,0.0,0.0
10849,83.0,240.0,180.0,5.0,0.0
10850,86.0,0.0,180.0,4.0,0.0
10851,55.0,0.0,660.0,7.0,0.0
10852,43.0,0.0,660.0,8.0,0.0
10853,86.0,0.0,180.0,4.0,0.0
10854,83.0,240.0,180.0,5.0,0.0
10855,86.0,96.0,180.0,4.0,0.0
10856,83.0,0.0,180.0,5.0,0.0
10857,83.0,240.0,180.0,5.0,0.0
10858,86.0,0.0,180.0,4.0,0.0
10859,61.0,0.0,780.0,2.0,0.0
10860,64.0,144.0,780.0,2.0,0.0
10861,88.0,240.0,180.0,4.0,0.0
10862,64.0,0.0,660.0,6.0,0.0
10863,85.0,0.0,780.0,0.0,0.0
10864,40.0,0.0,660.0,8.0,0.0
10865,76.0,0.0,780.0,1.0,0.0
10866,85.0,0.0,180.0,5.0,0.0
10867,52.0,0.0,660.0,7.0,0.0
10868,88.0,0.0,780.0,1.0,0.0
10869,85.0,0.0,180.0,5.0,0.0
10870,88.0,240.0,180.0,4.0,0.0
10871,85.0,0.0,180.0,5.0,0.0
10872,88.0,96.0,180.0,4.0,0.0
10873,85.0,0.0,180.0,5.0,0.0
10874,88.0,240.0,180.0,4.0,0.0
10875,94.0,0.0,780.0,0.0,0.0
10876,82.0,0.0,780.0,1.0,0.0
10877,85.0,240.0,180.0,4.0,0.0
10878,66.0,0.0,780.0,3.0,0.0
10879,82.0,0.0,180.0,5.0,0.0
10880,85.0,0.0,780.0,1.0,0.0
10881,58.0,144.0,780.0,2.0,0.0
10882,61.0,0.0,780.0,2.0,0.0
10883,54.0,96.0,660.0,7.0,0.0
10884,42.0,0.0,660.0,8.0,0.0
10885,66.0,0.0,660.0,6.0,0.0
10886,85.0,0.0,180.0,4.0,0.0
10887,82.0,240.0,180.0,5.0,0.0
10888,82.0,0.0,180.0,5.0,0.0
10889,85.0,0.0,180.0,4.0,0.0
10890,82.0,216.0,180.0,5.0,0.0
10891,85.0,0.0,180.0,4.0,0.0
10892,59.0,48.0,780.0,2.0,0.0
10893,59.0,0.0,390.0,6.0,0.0
10894,62.0,0.0,810.0,3.0,0.0
10895,83.0,24.0,390.0,5.0,0.0
10896,47.0,216.0,180.0,7.0,0.0
10897,83.0,0.0,780.0,4.0,0.0
10898,95.0,0.0,780.0,0.0,0.0
10899,83.0,0.0,810.0,1.0,0.0
10900,35.0,0.0,180.0,8.0,0.0
10901,37.0,240.0,180.0,8.0,0.0
10902,49.0,0.0,180.0,7.0,0.0
10903,50.0,0.0,180.0,7.0,0.0
10904,71.0,48.0,780.0,6.0,0.0
10905,74.0,0.0,780.0,5.0,0.0
10906,66.0,0.0,780.0,5.0,0.0
10907,38.0,120.0,180.0,8.0,0.0
10908,59.0,0.0,330.0,3.0,0.0
10909,71.0,72.0,330.0,1.0,0.0
10910,40.0,240.0,180.0,8.0,0.0
10911,52.0,0.0,180.0,7.0,0.0
10912,42.0,0.0,180.0,8.0,0.0
10913,66.0,72.0,330.0,3.0,0.0
10914,78.0,0.0,330.0,1.0,0.0
10915,54.0,120.0,180.0,7.0,0.0
10916,56.0,0.0,180.0,7.0,0.0
10917,44.0,240.0,180.0,8.0,0.0
10918,83.0,0.0,330.0,0.0,0.0
10919,62.0,0.0,330.0,2.0,0.0
10920,59.0,48.0,330.0,2.0,0.0
10921,66.0,0.0,330.0,3.0,0.0
10922,46.0,168.0,180.0,8.0,0.0
10923,58.0,0.0,180.0,7.0,0.0
10924,66.0,0.0,390.0,5.0,0.0
10925,78.0,0.0,330.0,1.0,0.0
10926,74.0,0.0,330.0,1.0,0.0
10927,74.0,24.0,390.0,5.0,0.0
10928,71.0,0.0,390.0,6.0,0.0
10929,47.0,0.0,180.0,8.0,0.0
10930,83.0,240.0,180.0,4.0,0.0
10931,59.0,24.0,180.0,7.0,0.0
10932,66.0,0.0,180.0,5.0,0.0
10933,82.0,96.0,240.0,4.0,0.0
10934,66.0,0.0,1140.0,3.0,0.0
10935,42.0,0.0,780.0,8.0,0.0
10936,54.0,48.0,780.0,7.0,0.0
10937,78.0,0.0,810.0,1.0,0.0
10938,73.0,0.0,330.0,1.0,0.0
10939,76.0,0.0,180.0,5.0,0.0
10940,58.0,0.0,330.0,2.0,0.0
10941,82.0,72.0,330.0,0.0,0.0
10942,73.0,48.0,180.0,6.0,0.0
10943,61.0,0.0,330.0,2.0,0.0
10944,85.0,24.0,180.0,4.0,0.0
10945,76.0,0.0,180.0,5.0,0.0
10946,66.0,0.0,180.0,5.0,0.0
10947,73.0,216.0,180.0,6.0,0.0
10948,88.0,24.0,180.0,4.0,0.0
10949,54.0,72.0,330.0,2.0,0.0
10950,73.0,0.0,180.0,6.0,0.0
10951,78.0,0.0,330.0,0.0,0.0
10952,58.0,0.0,330.0,2.0,0.0
10953,70.0,0.0,330.0,1.0,0.0
10954,76.0,0.0,180.0,5.0,0.0
10955,66.0,96.0,180.0,5.0,0.0
10956,76.0,240.0,180.0,5.0,0.0
10957,85.0,24.0,180.0,4.0,0.0
10958,73.0,0.0,180.0,6.0,0.0
10959,66.0,0.0,180.0,5.0,0.0
10960,66.0,0.0,180.0,5.0,0.0
10961,88.0,96.0,240.0,4.0,0.0
10962,90.0,0.0,330.0,0.0,0.0
10963,73.0,0.0,180.0,6.0,0.0
10964,76.0,48.0,180.0,5.0,0.0
10965,58.0,0.0,330.0,2.0,0.0
10966,82.0,72.0,330.0,1.0,0.0
10967,66.0,0.0,330.0,2.0,0.0
10968,73.0,0.0,180.0,6.0,0.0
10969,85.0,24.0,180.0,4.0,0.0
10970,76.0,0.0,180.0,5.0,0.0
10971,66.0,216.0,180.0,5.0,0.0
10972,78.0,0.0,330.0,1.0,0.0
10973,90.0,0.0,330.0,0.0,0.0
10974,73.0,0.0,180.0,6.0,0.0
10975,58.0,0.0,330.0,2.0,0.0
10976,66.0,0.0,330.0,2.0,0.0
10977,82.0,48.0,330.0,1.0,0.0
10978,76.0,0.0,180.0,5.0,0.0
10979,66.0,144.0,180.0,5.0,0.0
10980,82.0,24.0,180.0,4.0,0.0
10981,66.0,24.0,390.0,3.0,0.0
10982,42.0,216.0,180.0,7.0,0.0
10983,85.0,24.0,180.0,4.0,0.0
10984,30.0,0.0,180.0,8.0,0.0
10985,66.0,0.0,180.0,5.0,0.0
10986,76.0,0.0,180.0,5.0,0.0
10987,73.0,0.0,180.0,6.0,0.0
10988,74.0,144.0,180.0,5.0,0.0
10989,62.0,0.0,1140.0,2.0,0.0
10990,59.0,144.0,1140.0,2.0,0.0
10991,35.0,0.0,180.0,8.0,0.0
10992,83.0,48.0,780.0,4.0,0.0
10993,66.0,0.0,180.0,5.0,0.0
10994,83.0,0.0,1290.0,1.0,0.0
10995,62.0,0.0,810.0,3.0,0.0
10996,74.0,72.0,330.0,1.0,0.0
10997,86.0,0.0,1140.0,0.0,0.0
10998,71.0,0.0,180.0,6.0,0.0
10999,47.0,24.0,180.0,7.0,0.0
11000,71.0,216.0,180.0,6.0,0.0
11001,74.0,0.0,180.0,5.0,0.0
11002,66.0,0.0,180.0,5.0,0.0
11003,49.0,24.0,180.0,7.0,0.0
11004,37.0,0.0,180.0,8.0,0.0
11005,74.0,96.0,180.0,5.0,0.0
11006,66.0,0.0,180.0,5.0,0.0
11007,59.0,0.0,330.0,3.0,0.0
11008,71.0,72.0,330.0,1.0,0.0
11009,71.0,0.0,180.0,6.0,0.0
11010,38.0,0.0,180.0,8.0,0.0
11011,50.0,24.0,180.0,7.0,0.0
11012,66.0,0.0,180.0,5.0,0.0
11013,52.0,0.0,180.0,7.0,0.0
11014,74.0,216.0,180.0,5.0,0.0
11015,71.0,0.0,180.0,6.0,0.0
11016,40.0,24.0,180.0,8.0,0.0
11017,66.0,72.0,330.0,3.0,0.0
11018,71.0,0.0,180.0,6.0,0.0
11019,78.0,0.0,330.0,1.0,0.0
11020,54.0,0.0,180.0,7.0,0.0
11021,74.0,0.0,180.0,5.0,0.0
11022,66.0,0.0,180.0,5.0,0.0
11023,42.0,24.0,180.0,8.0,0.0
11024,56.0,0.0,180.0,7.0,0.0
11025,71.0,0.0,180.0,6.0,0.0
11026,74.0,216.0,180.0,5.0,0.0
11027,66.0,0.0,180.0,5.0,0.0
11028,44.0,24.0,180.0,8.0,0.0
11029,66.0,0.0,180.0,5.0,0.0
11030,74.0,144.0,180.0,5.0,0.0
11031,46.0,0.0,180.0,8.0,0.0
11032,78.0,0.0,330.0,1.0,0.0
11033,74.0,0.0,330.0,1.0,0.0
11034,71.0,0.0,180.0,6.0,0.0
11035,59.0,0.0,330.0,2.0,0.0
11036,62.0,0.0,330.0,2.0,0.0
11037,66.0,0.0,330.0,3.0,0.0
11038,58.0,24.0,180.0,7.0,0.0
11039,83.0,72.0,330.0,0.0,0.0
11040,83.0,0.0,180.0,4.0,0.0
11041,47.0,24.0,180.0,8.0,0.0
11042,66.0,0.0,180.0,5.0,0.0
11043,74.0,240.0,180.0,5.0,0.0
11044,71.0,0.0,180.0,6.0,0.0
11045,59.0,0.0,180.0,7.0,0.0
11046,61.0,0.0,330.0,2.0,0.0
11047,73.0,48.0,180.0,6.0,0.0
11048,66.0,0.0,1140.0,3.0,0.0
11049,54.0,0.0,780.0,7.0,0.0
11050,76.0,0.0,180.0,5.0,0.0
11051,82.0,0.0,330.0,0.0,0.0
11052,42.0,48.0,780.0,8.0,0.0
11053,58.0,72.0,330.0,2.0,0.0
11054,82.0,96.0,240.0,4.0,0.0
11055,73.0,0.0,330.0,1.0,0.0
11056,78.0,0.0,1290.0,1.0,0.0
11057,66.0,0.0,180.0,5.0,0.0
11058,73.0,216.0,180.0,6.0,0.0
11059,76.0,0.0,180.0,5.0,0.0
11060,85.0,24.0,180.0,4.0,0.0
11061,66.0,0.0,180.0,5.0,0.0
11062,73.0,96.0,180.0,6.0,0.0
11063,78.0,0.0,330.0,0.0,0.0
11064,88.0,24.0,180.0,4.0,0.0
11065,54.0,0.0,330.0,2.0,0.0
11066,58.0,0.0,330.0,2.0,0.0
11067,70.0,72.0,330.0,1.0,0.0
11068,76.0,0.0,180.0,5.0,0.0
11069,66.0,0.0,180.0,5.0,0.0
11070,85.0,24.0,180.0,4.0,0.0
11071,76.0,0.0,180.0,5.0,0.0
11072,73.0,240.0,180.0,6.0,0.0
11073,66.0,0.0,180.0,5.0,0.0
11074,88.0,96.0,240.0,4.0,0.0
11075,90.0,0.0,330.0,0.0,0.0
11076,73.0,0.0,180.0,6.0,0.0
11077,76.0,0.0,180.0,5.0,0.0
11078,66.0,48.0,180.0,5.0,0.0
11079,58.0,0.0,330.0,2.0,0.0
11080,66.0,72.0,330.0,2.0,0.0
11081,82.0,0.0,330.0,1.0,0.0
11082,73.0,216.0,180.0,6.0,0.0
11083,85.0,24.0,180.0,4.0,0.0
11084,76.0,0.0,180.0,5.0,0.0
11085,66.0,0.0,180.0,5.0,0.0
11086,66.0,144.0,180.0,5.0,0.0
11087,82.0,24.0,180.0,4.0,0.0
11088,90.0,0.0,330.0,0.0,0.0
11089,76.0,0.0,180.0,5.0,0.0
11090,73.0,0.0,180.0,6.0,0.0
11091,58.0,0.0,330.0,2.0,0.0
11092,66.0,24.0,390.0,3.0,0.0
11093,66.0,0.0,330.0,2.0,0.0
11094,82.0,48.0,330.0,1.0,0.0
11095,73.0,0.0,180.0,6.0,0.0
11096,66.0,0.0,180.0,5.0,0.0
11097,85.0,24.0,180.0,4.0,0.0
11098,42.0,216.0,180.0,7.0,0.0
11099,30.0,0.0,180.0,8.0,0.0
11100,76.0,0.0,180.0,5.0,0.0
11101,86.0,0.0,1140.0,0.0,0.0
11102,83.0,72.0,1290.0,1.0,0.0
11103,66.0,144.0,180.0,5.0,0.0
11104,74.0,0.0,180.0,5.0,0.0
11105,62.0,0.0,810.0,3.0,0.0
11106,62.0,0.0,1140.0,2.0,0.0
11107,59.0,0.0,1140.0,2.0,0.0
11108,74.0,72.0,330.0,1.0,0.0
11109,47.0,0.0,180.0,7.0,0.0
11110,35.0,24.0,180.0,8.0,0.0
11111,83.0,48.0,780.0,4.0,0.0
11112,71.0,0.0,180.0,6.0,0.0
11113,49.0,24.0,180.0,7.0,0.0
11114,37.0,0.0,180.0,8.0,0.0
11115,71.0,216.0,180.0,6.0,0.0
11116,74.0,0.0,180.0,5.0,0.0
11117,66.0,0.0,180.0,5.0,0.0
11118,59.0,0.0,330.0,3.0,0.0
11119,66.0,96.0,180.0,5.0,0.0
11120,74.0,0.0,180.0,5.0,0.0
11121,71.0,0.0,180.0,6.0,0.0
11122,50.0,0.0,180.0,7.0,0.0
11123,71.0,72.0,330.0,1.0,0.0
11124,38.0,24.0,180.0,8.0,0.0
11125,52.0,0.0,180.0,7.0,0.0
11126,71.0,0.0,180.0,6.0,0.0
11127,66.0,0.0,180.0,5.0,0.0
11128,74.0,216.0,180.0,5.0,0.0
11129,40.0,24.0,180.0,8.0,0.0
11130,66.0,0.0,330.0,3.0,0.0
11131,66.0,0.0,180.0,5.0,0.0
11132,78.0,0.0,330.0,1.0,0.0
11133,42.0,0.0,180.0,8.0,0.0
11134,74.0,0.0,180.0,5.0,0.0
11135,71.0,144.0,180.0,6.0,0.0
11136,54.0,24.0,180.0,7.0,0.0
11137,74.0,216.0,180.0,5.0,0.0
11138,66.0,0.0,180.0,5.0,0.0
11139,56.0,0.0,180.0,7.0,0.0
11140,71.0,0.0,180.0,6.0,0.0
11141,44.0,24.0,180.0,8.0,0.0
11142,71.0,144.0,180.0,6.0,0.0
11143,46.0,0.0,180.0,8.0,0.0
11144,62.0,0.0,330.0,2.0,0.0
11145,59.0,0.0,330.0,2.0,0.0
11146,66.0,0.0,330.0,3.0,0.0
11147,83.0,0.0,330.0,0.0,0.0
11148,66.0,0.0,180.0,5.0,0.0
11149,74.0,0.0,330.0,1.0,0.0
11150,58.0,24.0,180.0,7.0,0.0
11151,78.0,72.0,330.0,1.0,0.0
11152,74.0,0.0,180.0,5.0,0.0
11153,47.0,0.0,180.0,8.0,0.0
11154,66.0,0.0,180.0,5.0,0.0
11155,74.0,240.0,180.0,5.0,0.0
11156,83.0,0.0,180.0,4.0,0.0
11157,71.0,0.0,180.0,6.0,0.0
11158,59.0,24.0,180.0,7.0,0.0
11159,82.0,96.0,240.0,4.0,0.0
11160,54.0,0.0,780.0,7.0,0.0
11161,73.0,0.0,180.0,6.0,0.0
11162,66.0,0.0,1140.0,3.0,0.0
11163,73.0,0.0,330.0,1.0,0.0
11164,78.0,0.0,1290.0,1.0,0.0
11165,82.0,0.0,330.0,0.0,0.0
11166,42.0,48.0,780.0,8.0,0.0
11167,66.0,0.0,180.0,5.0,0.0
11168,76.0,48.0,180.0,5.0,0.0
11169,61.0,72.0,330.0,2.0,0.0
11170,58.0,0.0,330.0,2.0,0.0
11171,85.0,24.0,180.0,4.0,0.0
11172,76.0,0.0,180.0,5.0,0.0
11173,66.0,0.0,180.0,5.0,0.0
11174,73.0,216.0,180.0,6.0,0.0
11175,66.0,0.0,180.0,5.0,0.0
11176,73.0,96.0,180.0,6.0,0.0
11177,54.0,0.0,330.0,2.0,0.0
11178,58.0,72.0,330.0,2.0,0.0
11179,88.0,24.0,180.0,4.0,0.0
11180,70.0,0.0,330.0,1.0,0.0
11181,76.0,0.0,180.0,5.0,0.0
11182,78.0,0.0,330.0,0.0,0.0
11183,85.0,24.0,180.0,4.0,0.0
11184,66.0,240.0,180.0,5.0,0.0
11185,76.0,0.0,180.0,5.0,0.0
11186,73.0,0.0,180.0,6.0,0.0
11187,88.0,96.0,240.0,4.0,0.0
11188,58.0,0.0,330.0,2.0,0.0
11189,73.0,0.0,180.0,6.0,0.0
11190,90.0,0.0,330.0,0.0,0.0
11191,76.0,0.0,180.0,5.0,0.0
11192,66.0,48.0,180.0,5.0,0.0
11193,82.0,72.0,330.0,1.0,0.0
11194,66.0,0.0,330.0,2.0,0.0
11195,76.0,216.0,180.0,5.0,0.0
11196,66.0,0.0,180.0,5.0,0.0
11197,85.0,24.0,180.0,4.0,0.0
11198,73.0,0.0,180.0,6.0,0.0
11199,73.0,144.0,180.0,6.0,0.0
11200,66.0,0.0,180.0,5.0,0.0
11201,82.0,0.0,330.0,1.0,0.0
11202,76.0,0.0,180.0,5.0,0.0
11203,90.0,0.0,330.0,0.0,0.0
11204,66.0,24.0,390.0,3.0,0.0
11205,82.0,24.0,180.0,4.0,0.0
11206,66.0,48.0,330.0,2.0,0.0
11207,58.0,0.0,330.0,2.0,0.0
11208,85.0,24.0,180.0,4.0,0.0
11209,30.0,0.0,180.0,8.0,0.0
11210,66.0,0.0,180.0,5.0,0.0
11211,76.0,432.0,180.0,5.0,0.0
11212,73.0,0.0,180.0,6.0,0.0
11213,42.0,0.0,180.0,7.0,0.0
11214,74.0,0.0,390.0,5.0,0.0
11215,66.0,0.0,390.0,5.0,0.0
11216,71.0,0.0,390.0,6.0,0.0
11217,62.0,0.0,390.0,3.0,0.0
11218,59.0,0.0,390.0,3.0,0.0
11219,83.0,0.0,390.0,1.0,0.0
11220,83.0,0.0,390.0,4.0,0.0
11221,59.0,960.0,390.0,2.0,0.0
11222,35.0,0.0,390.0,8.0,0.0
11223,83.0,0.0,390.0,0.0,0.0
11224,47.0,0.0,390.0,7.0,0.0
11225,74.0,0.0,390.0,1.0,0.0
11226,66.0,0.0,390.0,3.0,0.0
11227,59.0,0.0,390.0,2.0,0.0
11228,71.0,0.0,390.0,6.0,0.0
11229,62.0,0.0,390.0,3.0,0.0
11230,47.0,0.0,390.0,8.0,0.0
11231,95.0,0.0,390.0,0.0,0.0
11232,59.0,0.0,390.0,7.0,0.0
11233,74.0,0.0,390.0,5.0,0.0
11234,83.0,0.0,390.0,5.0,0.0
11235,66.0,0.0,390.0,5.0,0.0
11236,86.0,0.0,390.0,4.0,0.0
11237,71.0,0.0,390.0,4.0,0.0
11238,86.0,0.0,390.0,1.0,0.0
11239,78.0,1536.0,390.0,1.0,0.0
11240,78.0,0.0,390.0,4.0,0.0
11241,59.0,3648.0,960.0,6.0,0.0
11242,83.0,0.0,960.0,0.0,0.0
11243,59.0,0.0,960.0,4.0,0.0
11244,71.0,0.0,960.0,4.0,0.0
11245,47.0,0.0,960.0,2.0,0.0
11246,83.0,0.0,960.0,1.0,0.0
11247,47.0,0.0,960.0,7.0,0.0
11248,59.0,0.0,960.0,3.0,0.0
11249,62.0,0.0,960.0,3.0,0.0
11250,71.0,0.0,960.0,5.0,0.0
11251,59.0,0.0,960.0,5.0,0.0
11252,74.0,0.0,960.0,1.0,0.0
11253,35.0,0.0,960.0,8.0,0.0
11254,21.0,0.0,780.0,8.0,0.0
