,note,step,duration,channel,velocity
0,73.0,30.0,30.0,0.0,0.0
1,70.0,60.0,30.0,0.0,0.0
2,65.0,60.0,60.0,0.0,0.0
3,59.0,0.0,60.0,1.0,0.0
4,56.0,0.0,60.0,1.0,0.0
5,58.0,0.0,60.0,1.0,0.0
6,54.0,0.0,60.0,1.0,0.0
7,66.0,30.0,60.0,0.0,0.0
8,73.0,30.0,30.0,0.0,0.0
9,70.0,60.0,30.0,0.0,0.0
10,59.0,0.0,60.0,1.0,0.0
11,56.0,60.0,60.0,1.0,0.0
12,65.0,0.0,60.0,0.0,0.0
13,54.0,30.0,60.0,1.0,0.0
14,66.0,0.0,60.0,0.0,0.0
15,58.0,0.0,60.0,1.0,0.0
16,70.0,30.0,30.0,0.0,0.0
17,61.0,30.0,30.0,0.0,0.0
18,53.0,30.0,60.0,1.0,0.0
19,68.0,30.0,30.0,0.0,0.0
20,61.0,0.0,30.0,0.0,0.0
21,54.0,30.0,60.0,1.0,0.0
22,70.0,30.0,30.0,0.0,0.0
23,61.0,0.0,30.0,0.0,0.0
24,71.0,30.0,30.0,0.0,0.0
25,56.0,30.0,60.0,1.0,0.0
26,61.0,0.0,30.0,0.0,0.0
27,70.0,0.0,30.0,0.0,0.0
28,54.0,30.0,30.0,1.0,0.0
29,56.0,0.0,30.0,1.0,0.0
30,71.0,60.0,30.0,0.0,0.0
31,58.0,0.0,60.0,1.0,0.0
32,73.0,30.0,60.0,0.0,0.0
33,73.0,30.0,30.0,0.0,0.0
34,70.0,60.0,30.0,0.0,0.0
35,65.0,0.0,60.0,0.0,0.0
36,59.0,60.0,60.0,1.0,0.0
37,56.0,0.0,60.0,1.0,0.0
38,54.0,30.0,60.0,1.0,0.0
39,58.0,0.0,60.0,1.0,0.0
40,66.0,0.0,60.0,0.0,0.0
41,73.0,30.0,30.0,0.0,0.0
42,70.0,60.0,30.0,0.0,0.0
43,56.0,0.0,60.0,1.0,0.0
44,65.0,60.0,60.0,0.0,0.0
45,59.0,0.0,60.0,1.0,0.0
46,66.0,30.0,60.0,0.0,0.0
47,54.0,0.0,60.0,1.0,0.0
48,58.0,0.0,60.0,1.0,0.0
49,70.0,30.0,30.0,0.0,0.0
50,71.0,60.0,30.0,0.0,0.0
51,46.0,0.0,60.0,1.0,0.0
52,73.0,60.0,60.0,0.0,0.0
53,47.0,0.0,60.0,1.0,0.0
54,71.0,60.0,60.0,0.0,0.0
55,48.0,0.0,60.0,1.0,0.0
56,70.0,60.0,60.0,0.0,0.0
57,70.0,60.0,60.0,0.0,0.0
58,49.0,60.0,120.0,1.0,0.0
59,68.0,0.0,60.0,0.0,0.0
60,68.0,30.0,60.0,0.0,0.0
61,61.0,30.0,60.0,0.0,0.0
62,53.0,30.0,30.0,1.0,0.0
63,56.0,0.0,30.0,1.0,0.0
64,60.0,0.0,60.0,0.0,0.0
65,51.0,30.0,30.0,1.0,0.0
66,56.0,26.0,30.0,1.0,0.0
67,54.0,30.0,30.0,1.0,0.0
68,63.0,4.0,30.0,0.0,0.0
69,56.0,30.0,30.0,1.0,0.0
70,54.0,30.0,30.0,1.0,0.0
71,63.0,30.0,60.0,0.0,0.0
72,56.0,0.0,30.0,1.0,0.0
73,61.0,26.0,60.0,0.0,0.0
74,53.0,30.0,30.0,1.0,0.0
75,56.0,0.0,30.0,1.0,0.0
76,49.0,30.0,30.0,1.0,0.0
77,65.0,4.0,30.0,0.0,0.0
78,56.0,30.0,30.0,1.0,0.0
79,49.0,30.0,30.0,1.0,0.0
80,65.0,30.0,60.0,0.0,0.0
81,56.0,0.0,30.0,1.0,0.0
82,48.0,30.0,30.0,1.0,0.0
83,63.0,0.0,60.0,0.0,0.0
84,56.0,26.0,30.0,1.0,0.0
85,51.0,30.0,30.0,1.0,0.0
86,66.0,4.0,30.0,0.0,0.0
87,56.0,30.0,30.0,1.0,0.0
88,66.0,0.0,60.0,0.0,0.0
89,49.0,30.0,30.0,1.0,0.0
90,56.0,30.0,30.0,1.0,0.0
91,49.0,30.0,30.0,1.0,0.0
92,65.0,30.0,60.0,0.0,0.0
93,56.0,0.0,30.0,1.0,0.0
94,61.0,30.0,30.0,0.0,0.0
95,58.0,30.0,60.0,1.0,0.0
96,73.0,0.0,30.0,0.0,0.0
97,60.0,30.0,30.0,0.0,0.0
98,56.0,30.0,60.0,1.0,0.0
99,72.0,0.0,30.0,0.0,0.0
100,58.0,30.0,30.0,0.0,0.0
101,54.0,30.0,60.0,1.0,0.0
102,70.0,0.0,30.0,0.0,0.0
103,53.0,0.0,60.0,1.0,0.0
104,56.0,30.0,30.0,0.0,0.0
105,68.0,30.0,30.0,0.0,0.0
106,54.0,30.0,30.0,0.0,0.0
107,51.0,0.0,60.0,1.0,0.0
108,66.0,30.0,30.0,0.0,0.0
109,49.0,30.0,60.0,1.0,0.0
110,53.0,30.0,30.0,0.0,0.0
111,65.0,0.0,30.0,0.0,0.0
112,58.0,30.0,30.0,0.0,0.0
113,54.0,30.0,60.0,1.0,0.0
114,70.0,0.0,30.0,0.0,0.0
115,56.0,30.0,30.0,0.0,0.0
116,53.0,30.0,60.0,1.0,0.0
117,68.0,0.0,30.0,0.0,0.0
118,49.0,30.0,60.0,1.0,0.0
119,53.0,30.0,30.0,0.0,0.0
120,65.0,0.0,30.0,0.0,0.0
121,51.0,30.0,60.0,1.0,0.0
122,54.0,30.0,30.0,0.0,0.0
123,66.0,0.0,30.0,0.0,0.0
124,55.0,30.0,30.0,0.0,0.0
125,52.0,30.0,60.0,1.0,0.0
126,67.0,0.0,30.0,0.0,0.0
127,53.0,60.0,60.0,1.0,0.0
128,56.0,30.0,30.0,0.0,0.0
129,68.0,0.0,30.0,0.0,0.0
130,48.0,0.0,60.0,1.0,0.0
131,56.0,30.0,60.0,0.0,0.0
132,66.0,0.0,60.0,0.0,0.0
133,49.0,30.0,30.0,1.0,0.0
134,65.0,0.0,30.0,0.0,0.0
135,68.0,0.0,30.0,0.0,0.0
136,53.0,30.0,30.0,1.0,0.0
137,61.0,30.0,30.0,0.0,0.0
138,56.0,0.0,60.0,1.0,0.0
139,61.0,30.0,30.0,0.0,0.0
140,63.0,30.0,30.0,0.0,0.0
141,44.0,0.0,60.0,1.0,0.0
142,60.0,60.0,30.0,0.0,0.0
143,49.0,60.0,60.0,1.0,0.0
144,61.0,0.0,120.0,0.0,0.0
145,37.0,30.0,60.0,1.0,0.0
146,73.0,30.0,30.0,0.0,0.0
147,70.0,60.0,30.0,0.0,0.0
148,59.0,60.0,60.0,1.0,0.0
149,56.0,0.0,60.0,1.0,0.0
150,65.0,0.0,60.0,0.0,0.0
151,58.0,30.0,60.0,1.0,0.0
152,54.0,0.0,60.0,1.0,0.0
153,66.0,0.0,60.0,0.0,0.0
154,73.0,30.0,30.0,0.0,0.0
155,70.0,60.0,30.0,0.0,0.0
156,56.0,0.0,60.0,1.0,0.0
157,59.0,0.0,60.0,1.0,0.0
158,65.0,60.0,60.0,0.0,0.0
159,58.0,0.0,60.0,1.0,0.0
160,54.0,30.0,60.0,1.0,0.0
161,66.0,0.0,60.0,0.0,0.0
162,70.0,30.0,30.0,0.0,0.0
163,61.0,30.0,30.0,0.0,0.0
164,53.0,0.0,60.0,1.0,0.0
165,68.0,30.0,30.0,0.0,0.0
166,61.0,30.0,30.0,0.0,0.0
167,54.0,0.0,60.0,1.0,0.0
168,70.0,30.0,30.0,0.0,0.0
169,61.0,30.0,30.0,0.0,0.0
170,56.0,0.0,60.0,1.0,0.0
171,71.0,30.0,30.0,0.0,0.0
172,61.0,30.0,30.0,0.0,0.0
173,54.0,30.0,30.0,1.0,0.0
174,70.0,0.0,30.0,0.0,0.0
175,71.0,0.0,30.0,0.0,0.0
176,56.0,60.0,30.0,1.0,0.0
177,73.0,30.0,60.0,0.0,0.0
178,58.0,0.0,60.0,1.0,0.0
179,73.0,30.0,30.0,0.0,0.0
180,70.0,60.0,30.0,0.0,0.0
181,59.0,0.0,60.0,1.0,0.0
182,65.0,60.0,60.0,0.0,0.0
183,56.0,0.0,60.0,1.0,0.0
184,66.0,0.0,60.0,0.0,0.0
185,54.0,30.0,60.0,1.0,0.0
186,58.0,0.0,60.0,1.0,0.0
187,73.0,30.0,30.0,0.0,0.0
188,70.0,60.0,30.0,0.0,0.0
189,65.0,60.0,60.0,0.0,0.0
190,59.0,0.0,60.0,1.0,0.0
191,56.0,0.0,60.0,1.0,0.0
192,66.0,0.0,60.0,0.0,0.0
193,58.0,30.0,60.0,1.0,0.0
194,54.0,0.0,60.0,1.0,0.0
195,70.0,30.0,30.0,0.0,0.0
196,71.0,60.0,30.0,0.0,0.0
197,73.0,0.0,60.0,0.0,0.0
198,46.0,60.0,60.0,1.0,0.0
199,71.0,0.0,60.0,0.0,0.0
200,47.0,60.0,60.0,1.0,0.0
201,70.0,60.0,60.0,0.0,0.0
202,48.0,0.0,60.0,1.0,0.0
203,70.0,60.0,60.0,0.0,0.0
204,49.0,60.0,120.0,1.0,0.0
205,68.0,0.0,60.0,0.0,0.0
206,68.0,30.0,60.0,0.0,0.0
207,61.0,0.0,60.0,0.0,0.0
208,53.0,30.0,30.0,1.0,0.0
209,56.0,30.0,30.0,1.0,0.0
210,51.0,30.0,30.0,1.0,0.0
211,60.0,26.0,60.0,0.0,0.0
212,56.0,0.0,30.0,1.0,0.0
213,54.0,30.0,30.0,1.0,0.0
214,63.0,4.0,30.0,0.0,0.0
215,56.0,30.0,30.0,1.0,0.0
216,54.0,30.0,30.0,1.0,0.0
217,63.0,30.0,60.0,0.0,0.0
218,56.0,0.0,30.0,1.0,0.0
219,53.0,30.0,30.0,1.0,0.0
220,61.0,0.0,60.0,0.0,0.0
221,56.0,26.0,30.0,1.0,0.0
222,65.0,4.0,30.0,0.0,0.0
223,49.0,30.0,30.0,1.0,0.0
224,56.0,30.0,30.0,1.0,0.0
225,65.0,30.0,60.0,0.0,0.0
226,49.0,30.0,30.0,1.0,0.0
227,56.0,0.0,30.0,1.0,0.0
228,63.0,26.0,60.0,0.0,0.0
229,48.0,30.0,30.0,1.0,0.0
230,56.0,0.0,30.0,1.0,0.0
231,51.0,30.0,30.0,1.0,0.0
232,66.0,4.0,30.0,0.0,0.0
233,56.0,30.0,30.0,1.0,0.0
234,49.0,30.0,30.0,1.0,0.0
235,66.0,0.0,60.0,0.0,0.0
236,56.0,30.0,30.0,1.0,0.0
237,65.0,0.0,60.0,0.0,0.0
238,49.0,30.0,30.0,1.0,0.0
239,56.0,30.0,30.0,1.0,0.0
240,61.0,30.0,30.0,0.0,0.0
241,58.0,0.0,60.0,1.0,0.0
242,73.0,30.0,30.0,0.0,0.0
243,56.0,0.0,60.0,1.0,0.0
244,60.0,30.0,30.0,0.0,0.0
245,72.0,30.0,30.0,0.0,0.0
246,58.0,30.0,30.0,0.0,0.0
247,54.0,30.0,60.0,1.0,0.0
248,70.0,0.0,30.0,0.0,0.0
249,56.0,30.0,30.0,0.0,0.0
250,53.0,30.0,60.0,1.0,0.0
251,68.0,0.0,30.0,0.0,0.0
252,51.0,0.0,60.0,1.0,0.0
253,54.0,30.0,30.0,0.0,0.0
254,66.0,30.0,30.0,0.0,0.0
255,49.0,30.0,60.0,1.0,0.0
256,53.0,30.0,30.0,0.0,0.0
257,65.0,0.0,30.0,0.0,0.0
258,54.0,0.0,60.0,1.0,0.0
259,58.0,30.0,30.0,0.0,0.0
260,70.0,30.0,30.0,0.0,0.0
261,56.0,30.0,30.0,0.0,0.0
262,53.0,30.0,60.0,1.0,0.0
263,68.0,0.0,30.0,0.0,0.0
264,53.0,30.0,30.0,0.0,0.0
265,49.0,30.0,60.0,1.0,0.0
266,65.0,0.0,30.0,0.0,0.0
267,51.0,30.0,60.0,1.0,0.0
268,54.0,30.0,30.0,0.0,0.0
269,66.0,0.0,30.0,0.0,0.0
270,55.0,30.0,30.0,0.0,0.0
271,52.0,30.0,60.0,1.0,0.0
272,67.0,0.0,30.0,0.0,0.0
273,53.0,60.0,60.0,1.0,0.0
274,56.0,30.0,30.0,0.0,0.0
275,68.0,0.0,30.0,0.0,0.0
276,56.0,0.0,60.0,0.0,0.0
277,48.0,0.0,60.0,1.0,0.0
278,66.0,30.0,60.0,0.0,0.0
279,49.0,30.0,30.0,1.0,0.0
280,65.0,0.0,30.0,0.0,0.0
281,68.0,0.0,30.0,0.0,0.0
282,53.0,30.0,30.0,1.0,0.0
283,56.0,0.0,60.0,1.0,0.0
284,61.0,30.0,30.0,0.0,0.0
285,61.0,30.0,30.0,0.0,0.0
286,44.0,0.0,60.0,1.0,0.0
287,63.0,30.0,30.0,0.0,0.0
288,60.0,60.0,30.0,0.0,0.0
289,61.0,60.0,120.0,0.0,0.0
290,49.0,60.0,60.0,1.0,0.0
291,37.0,0.0,60.0,1.0,0.0
292,73.0,30.0,60.0,0.0,0.0
293,70.0,30.0,30.0,0.0,0.0
294,58.0,0.0,180.0,1.0,0.0
295,55.0,0.0,180.0,1.0,0.0
296,52.0,0.0,180.0,1.0,0.0
297,49.0,0.0,180.0,1.0,0.0
298,67.0,30.0,30.0,0.0,0.0
299,75.0,30.0,30.0,0.0,0.0
300,73.0,30.0,30.0,0.0,0.0
301,71.0,30.0,30.0,0.0,0.0
302,70.0,16.0,30.0,0.0,0.0
303,51.0,0.0,180.0,1.0,0.0
304,70.0,45.0,15.0,0.0,0.0
305,47.0,0.0,180.0,1.0,0.0
306,56.0,0.0,180.0,1.0,0.0
307,71.0,59.0,40.0,0.0,0.0
308,68.0,60.0,60.0,0.0,0.0
309,71.0,30.0,60.0,0.0,0.0
310,53.0,0.0,180.0,1.0,0.0
311,47.0,0.0,180.0,1.0,0.0
312,56.0,0.0,180.0,1.0,0.0
313,49.0,0.0,180.0,1.0,0.0
314,65.0,30.0,30.0,0.0,0.0
315,68.0,30.0,30.0,0.0,0.0
316,71.0,30.0,30.0,0.0,0.0
317,75.0,30.0,30.0,0.0,0.0
318,73.0,30.0,30.0,0.0,0.0
319,71.0,16.0,30.0,0.0,0.0
320,69.0,45.0,15.0,0.0,0.0
321,54.0,0.0,120.0,1.0,0.0
322,49.0,0.0,120.0,1.0,0.0
323,46.0,30.0,120.0,1.0,0.0
324,70.0,59.0,40.0,0.0,0.0
325,66.0,0.0,60.0,0.0,0.0
326,63.0,0.0,60.0,1.0,0.0
327,66.0,30.0,30.0,0.0,0.0
328,78.0,30.0,30.0,0.0,0.0
329,61.0,0.0,60.0,1.0,0.0
330,65.0,30.0,30.0,0.0,0.0
331,77.0,30.0,30.0,0.0,0.0
332,63.0,30.0,30.0,0.0,0.0
333,59.0,0.0,60.0,1.0,0.0
334,75.0,30.0,30.0,0.0,0.0
335,58.0,0.0,60.0,1.0,0.0
336,61.0,30.0,30.0,0.0,0.0
337,73.0,30.0,30.0,0.0,0.0
338,59.0,30.0,30.0,0.0,0.0
339,56.0,0.0,60.0,1.0,0.0
340,71.0,30.0,30.0,0.0,0.0
341,54.0,30.0,60.0,1.0,0.0
342,58.0,30.0,30.0,0.0,0.0
343,70.0,0.0,30.0,0.0,0.0
344,59.0,0.0,60.0,1.0,0.0
345,63.0,30.0,30.0,0.0,0.0
346,75.0,30.0,30.0,0.0,0.0
347,58.0,0.0,60.0,1.0,0.0
348,61.0,30.0,30.0,0.0,0.0
349,73.0,30.0,30.0,0.0,0.0
350,54.0,0.0,60.0,1.0,0.0
351,58.0,30.0,30.0,0.0,0.0
352,70.0,30.0,30.0,0.0,0.0
353,56.0,30.0,60.0,1.0,0.0
354,59.0,30.0,30.0,0.0,0.0
355,71.0,0.0,30.0,0.0,0.0
356,57.0,0.0,60.0,1.0,0.0
357,60.0,30.0,30.0,0.0,0.0
358,72.0,30.0,30.0,0.0,0.0
359,58.0,60.0,60.0,1.0,0.0
360,61.0,30.0,30.0,0.0,0.0
361,73.0,0.0,30.0,0.0,0.0
362,71.0,30.0,60.0,0.0,0.0
363,61.0,0.0,60.0,0.0,0.0
364,53.0,0.0,60.0,1.0,0.0
365,70.0,0.0,30.0,0.0,0.0
366,54.0,30.0,30.0,1.0,0.0
367,73.0,0.0,30.0,0.0,0.0
368,58.0,30.0,30.0,1.0,0.0
369,70.0,30.0,30.0,0.0,0.0
370,61.0,30.0,60.0,1.0,0.0
371,66.0,0.0,30.0,0.0,0.0
372,49.0,60.0,60.0,1.0,0.0
373,68.0,30.0,30.0,0.0,0.0
374,65.0,0.0,30.0,0.0,0.0
375,54.0,60.0,60.0,1.0,0.0
376,66.0,0.0,120.0,0.0,0.0
377,42.0,60.0,60.0,1.0,0.0
378,73.0,30.0,60.0,0.0,0.0
379,58.0,16.0,180.0,1.0,0.0
380,55.0,0.0,180.0,1.0,0.0
381,52.0,0.0,180.0,1.0,0.0
382,49.0,0.0,180.0,1.0,0.0
383,70.0,30.0,30.0,0.0,0.0
384,67.0,30.0,30.0,0.0,0.0
385,75.0,30.0,30.0,0.0,0.0
386,73.0,30.0,30.0,0.0,0.0
387,71.0,30.0,30.0,0.0,0.0
388,70.0,0.0,30.0,0.0,0.0
389,56.0,0.0,180.0,1.0,0.0
390,51.0,0.0,180.0,1.0,0.0
391,47.0,0.0,180.0,1.0,0.0
392,70.0,45.0,15.0,0.0,0.0
393,71.0,59.0,40.0,0.0,0.0
394,68.0,60.0,60.0,0.0,0.0
395,71.0,30.0,60.0,0.0,0.0
396,49.0,0.0,180.0,1.0,0.0
397,56.0,0.0,180.0,1.0,0.0
398,53.0,0.0,180.0,1.0,0.0
399,65.0,30.0,30.0,0.0,0.0
400,47.0,0.0,180.0,1.0,0.0
401,68.0,30.0,30.0,0.0,0.0
402,71.0,30.0,30.0,0.0,0.0
403,75.0,30.0,30.0,0.0,0.0
404,73.0,30.0,30.0,0.0,0.0
405,71.0,16.0,30.0,0.0,0.0
406,49.0,0.0,120.0,1.0,0.0
407,46.0,0.0,120.0,1.0,0.0
408,54.0,0.0,120.0,1.0,0.0
409,69.0,45.0,15.0,0.0,0.0
410,70.0,59.0,40.0,0.0,0.0
411,66.0,30.0,60.0,0.0,0.0
412,66.0,30.0,30.0,0.0,0.0
413,63.0,0.0,60.0,1.0,0.0
414,78.0,30.0,30.0,0.0,0.0
415,65.0,30.0,30.0,0.0,0.0
416,61.0,30.0,60.0,1.0,0.0
417,77.0,0.0,30.0,0.0,0.0
418,63.0,30.0,30.0,0.0,0.0
419,59.0,0.0,60.0,1.0,0.0
420,75.0,30.0,30.0,0.0,0.0
421,61.0,30.0,30.0,0.0,0.0
422,58.0,0.0,60.0,1.0,0.0
423,73.0,30.0,30.0,0.0,0.0
424,56.0,0.0,60.0,1.0,0.0
425,59.0,30.0,30.0,0.0,0.0
426,71.0,30.0,30.0,0.0,0.0
427,54.0,0.0,60.0,1.0,0.0
428,58.0,30.0,30.0,0.0,0.0
429,70.0,30.0,30.0,0.0,0.0
430,59.0,0.0,60.0,1.0,0.0
431,63.0,30.0,30.0,0.0,0.0
432,75.0,30.0,30.0,0.0,0.0
433,61.0,30.0,30.0,0.0,0.0
434,58.0,30.0,60.0,1.0,0.0
435,73.0,0.0,30.0,0.0,0.0
436,58.0,30.0,30.0,0.0,0.0
437,54.0,0.0,60.0,1.0,0.0
438,70.0,30.0,30.0,0.0,0.0
439,59.0,30.0,30.0,0.0,0.0
440,56.0,0.0,60.0,1.0,0.0
441,71.0,30.0,30.0,0.0,0.0
442,57.0,30.0,60.0,1.0,0.0
443,60.0,30.0,30.0,0.0,0.0
444,72.0,0.0,30.0,0.0,0.0
445,61.0,30.0,30.0,0.0,0.0
446,58.0,60.0,60.0,1.0,0.0
447,73.0,0.0,30.0,0.0,0.0
448,61.0,0.0,60.0,0.0,0.0
449,71.0,30.0,60.0,0.0,0.0
450,53.0,0.0,60.0,1.0,0.0
451,54.0,0.0,30.0,1.0,0.0
452,70.0,30.0,30.0,0.0,0.0
453,73.0,0.0,30.0,0.0,0.0
454,58.0,30.0,30.0,1.0,0.0
455,70.0,30.0,30.0,0.0,0.0
456,61.0,30.0,60.0,1.0,0.0
457,66.0,0.0,30.0,0.0,0.0
458,68.0,30.0,30.0,0.0,0.0
459,49.0,60.0,60.0,1.0,0.0
460,65.0,0.0,30.0,0.0,0.0
461,54.0,60.0,60.0,1.0,0.0
462,66.0,0.0,120.0,0.0,0.0
463,42.0,0.0,60.0,1.0,0.0
