,note,step,duration,channel,velocity
0,76.0,446.0,240.0,1.0,0.0
1,74.0,240.0,210.0,1.0,0.0
2,73.0,240.0,210.0,1.0,0.0
3,71.0,240.0,210.0,1.0,0.0
4,69.0,240.0,210.0,1.0,0.0
5,73.0,240.0,210.0,1.0,0.0
6,71.0,240.0,210.0,1.0,0.0
7,74.0,226.0,210.0,1.0,0.0
8,68.0,288.0,180.0,1.0,0.0
9,69.0,480.0,240.0,1.0,0.0
10,64.0,960.0,240.0,1.0,0.0
11,76.0,480.0,720.0,1.0,0.0
12,74.0,240.0,240.0,1.0,0.0
13,73.0,240.0,240.0,1.0,0.0
14,71.0,240.0,240.0,1.0,0.0
15,69.0,240.0,240.0,1.0,0.0
16,73.0,240.0,240.0,1.0,0.0
17,71.0,240.0,240.0,1.0,0.0
18,74.0,192.0,240.0,1.0,0.0
19,68.0,288.0,180.0,1.0,0.0
20,69.0,0.0,1860.0,1.0,0.0
21,57.0,12.0,1860.0,5.0,0.0
22,61.0,240.0,240.0,3.0,0.0
23,64.0,240.0,240.0,3.0,0.0
24,61.0,240.0,240.0,3.0,0.0
25,64.0,240.0,240.0,3.0,0.0
26,61.0,240.0,240.0,3.0,0.0
27,64.0,240.0,240.0,3.0,0.0
28,61.0,180.0,240.0,3.0,0.0
29,64.0,288.0,180.0,3.0,0.0
30,70.0,240.0,240.0,1.0,0.0
31,57.0,12.0,1860.0,5.0,0.0
32,62.0,0.0,240.0,3.0,0.0
33,64.0,0.0,240.0,3.0,0.0
34,71.0,240.0,240.0,1.0,0.0
35,73.0,0.0,240.0,1.0,0.0
36,62.0,240.0,240.0,3.0,0.0
37,74.0,0.0,240.0,1.0,0.0
38,64.0,240.0,240.0,3.0,0.0
39,62.0,0.0,240.0,3.0,0.0
40,76.0,240.0,240.0,1.0,0.0
41,77.0,240.0,240.0,1.0,0.0
42,64.0,0.0,240.0,3.0,0.0
43,78.0,180.0,240.0,1.0,0.0
44,62.0,0.0,240.0,3.0,0.0
45,64.0,288.0,180.0,3.0,0.0
46,80.0,0.0,180.0,1.0,0.0
47,83.0,240.0,240.0,1.0,0.0
48,61.0,0.0,240.0,3.0,0.0
49,57.0,5.0,1860.0,5.0,0.0
50,81.0,0.0,240.0,1.0,0.0
51,64.0,240.0,240.0,3.0,0.0
52,80.0,192.0,240.0,1.0,0.0
53,61.0,0.0,240.0,3.0,0.0
54,64.0,240.0,240.0,3.0,0.0
55,78.0,48.0,180.0,1.0,0.0
56,61.0,0.0,240.0,3.0,0.0
57,78.0,240.0,240.0,1.0,0.0
58,64.0,0.0,240.0,3.0,0.0
59,76.0,240.0,240.0,1.0,0.0
60,61.0,187.0,240.0,3.0,0.0
61,74.0,0.0,240.0,1.0,0.0
62,64.0,288.0,180.0,3.0,0.0
63,73.0,0.0,180.0,1.0,0.0
64,71.0,150.0,330.0,1.0,0.0
65,57.0,765.0,1860.0,5.0,0.0
66,62.0,90.0,240.0,3.0,0.0
67,68.0,7.0,1860.0,2.0,0.0
68,64.0,0.0,240.0,3.0,0.0
69,73.0,240.0,120.0,1.0,0.0
70,62.0,0.0,240.0,3.0,0.0
71,71.0,240.0,240.0,1.0,0.0
72,64.0,240.0,240.0,3.0,0.0
73,70.0,0.0,240.0,1.0,0.0
74,62.0,240.0,240.0,3.0,0.0
75,71.0,240.0,480.0,1.0,0.0
76,64.0,0.0,240.0,3.0,0.0
77,76.0,5.0,420.0,1.0,0.0
78,62.0,180.0,240.0,3.0,0.0
79,64.0,3.0,180.0,3.0,0.0
80,61.0,0.0,720.0,3.0,0.0
81,69.0,0.0,720.0,1.0,0.0
82,57.0,960.0,720.0,5.0,0.0
83,64.0,480.0,240.0,5.0,0.0
84,62.0,240.0,240.0,5.0,0.0
85,61.0,240.0,240.0,5.0,0.0
86,59.0,240.0,240.0,5.0,0.0
87,57.0,240.0,240.0,5.0,0.0
88,61.0,240.0,240.0,5.0,0.0
89,59.0,240.0,240.0,5.0,0.0
90,62.0,192.0,240.0,5.0,0.0
91,56.0,288.0,180.0,5.0,0.0
92,57.0,480.0,240.0,5.0,0.0
93,52.0,960.0,240.0,5.0,0.0
94,64.0,480.0,720.0,5.0,0.0
95,62.0,240.0,240.0,5.0,0.0
96,61.0,240.0,240.0,5.0,0.0
97,59.0,240.0,240.0,5.0,0.0
98,57.0,240.0,240.0,5.0,0.0
99,61.0,240.0,240.0,5.0,0.0
100,59.0,240.0,240.0,5.0,0.0
101,62.0,192.0,240.0,5.0,0.0
102,56.0,288.0,180.0,5.0,0.0
103,57.0,12.0,1860.0,5.0,0.0
104,76.0,240.0,240.0,2.0,0.0
105,88.0,240.0,240.0,2.0,0.0
106,85.0,240.0,240.0,2.0,0.0
107,88.0,240.0,240.0,2.0,0.0
108,76.0,240.0,240.0,2.0,0.0
109,88.0,240.0,240.0,2.0,0.0
110,85.0,180.0,240.0,2.0,0.0
111,88.0,288.0,180.0,2.0,0.0
112,76.0,240.0,240.0,2.0,0.0
113,58.0,0.0,240.0,5.0,0.0
114,88.0,240.0,240.0,2.0,0.0
115,59.0,0.0,240.0,5.0,0.0
116,61.0,240.0,240.0,5.0,0.0
117,86.0,0.0,240.0,2.0,0.0
118,62.0,240.0,240.0,5.0,0.0
119,88.0,0.0,240.0,2.0,0.0
120,76.0,0.0,240.0,2.0,0.0
121,64.0,240.0,240.0,5.0,0.0
122,88.0,0.0,240.0,2.0,0.0
123,65.0,240.0,240.0,5.0,0.0
124,86.0,0.0,240.0,2.0,0.0
125,66.0,192.0,240.0,5.0,0.0
126,88.0,0.0,180.0,2.0,0.0
127,68.0,288.0,180.0,5.0,0.0
128,76.0,0.0,240.0,2.0,0.0
129,71.0,240.0,240.0,5.0,0.0
130,69.0,240.0,240.0,5.0,0.0
131,88.0,0.0,240.0,2.0,0.0
132,85.0,0.0,240.0,2.0,0.0
133,68.0,192.0,240.0,5.0,0.0
134,88.0,240.0,240.0,2.0,0.0
135,66.0,48.0,180.0,5.0,0.0
136,66.0,0.0,240.0,5.0,0.0
137,76.0,240.0,240.0,2.0,0.0
138,64.0,0.0,240.0,5.0,0.0
139,88.0,240.0,240.0,2.0,0.0
140,62.0,0.0,240.0,5.0,0.0
141,85.0,192.0,240.0,2.0,0.0
142,61.0,288.0,180.0,5.0,0.0
143,88.0,0.0,180.0,2.0,0.0
144,62.0,240.0,720.0,5.0,0.0
145,82.0,240.0,240.0,1.0,0.0
146,83.0,240.0,240.0,1.0,0.0
147,68.0,0.0,240.0,3.0,0.0
148,64.0,0.0,240.0,3.0,0.0
149,85.0,0.0,240.0,1.0,0.0
150,86.0,0.0,240.0,1.0,0.0
151,68.0,240.0,240.0,3.0,0.0
152,88.0,240.0,240.0,1.0,0.0
153,62.0,0.0,720.0,5.0,0.0
154,89.0,240.0,240.0,1.0,0.0
155,71.0,0.0,240.0,3.0,0.0
156,90.0,0.0,240.0,1.0,0.0
157,64.0,192.0,240.0,3.0,0.0
158,92.0,0.0,180.0,1.0,0.0
159,71.0,204.0,180.0,3.0,0.0
160,93.0,0.0,150.0,1.0,0.0
161,61.0,240.0,150.0,5.0,0.0
162,81.0,324.0,150.0,1.0,0.0
163,93.0,0.0,240.0,1.0,0.0
164,76.0,0.0,240.0,4.0,0.0
165,73.0,240.0,240.0,5.0,0.0
166,92.0,0.0,240.0,1.0,0.0
167,71.0,156.0,240.0,5.0,0.0
168,74.0,0.0,240.0,4.0,0.0
169,69.0,0.0,150.0,5.0,0.0
170,90.0,240.0,150.0,1.0,0.0
171,73.0,0.0,150.0,4.0,0.0
172,78.0,324.0,150.0,1.0,0.0
173,90.0,0.0,240.0,1.0,0.0
174,73.0,240.0,240.0,4.0,0.0
175,69.0,0.0,240.0,5.0,0.0
176,71.0,0.0,240.0,4.0,0.0
177,88.0,0.0,240.0,1.0,0.0
178,68.0,156.0,240.0,5.0,0.0
179,66.0,240.0,150.0,5.0,0.0
180,86.0,0.0,150.0,1.0,0.0
181,69.0,0.0,150.0,4.0,0.0
182,74.0,324.0,150.0,1.0,0.0
183,86.0,240.0,240.0,1.0,0.0
184,69.0,0.0,240.0,4.0,0.0
185,66.0,0.0,240.0,5.0,0.0
186,68.0,0.0,240.0,4.0,0.0
187,64.0,0.0,240.0,5.0,0.0
188,85.0,156.0,240.0,1.0,0.0
189,66.0,240.0,150.0,4.0,0.0
190,83.0,0.0,150.0,1.0,0.0
191,62.0,0.0,150.0,5.0,0.0
192,71.0,324.0,150.0,1.0,0.0
193,83.0,192.0,240.0,1.0,0.0
194,66.0,0.0,240.0,4.0,0.0
195,62.0,0.0,240.0,5.0,0.0
196,81.0,48.0,180.0,1.0,0.0
197,64.0,960.0,240.0,4.0,0.0
198,61.0,0.0,240.0,5.0,0.0
199,62.0,1320.0,1320.0,4.0,0.0
200,81.0,360.0,960.0,1.0,0.0
201,59.0,0.0,1320.0,5.0,0.0
202,80.0,0.0,360.0,1.0,0.0
203,56.0,7.0,1860.0,5.0,0.0
204,62.0,5.0,1860.0,4.0,0.0
205,85.0,240.0,240.0,1.0,0.0
206,83.0,240.0,240.0,1.0,0.0
207,81.0,240.0,240.0,1.0,0.0
208,80.0,240.0,240.0,1.0,0.0
209,78.0,180.0,240.0,1.0,0.0
210,76.0,288.0,180.0,1.0,0.0
211,57.0,53.0,900.0,5.0,0.0
212,76.0,240.0,240.0,1.0,0.0
213,61.0,7.0,900.0,4.0,0.0
214,81.0,240.0,240.0,1.0,0.0
215,80.0,180.0,240.0,1.0,0.0
216,79.0,240.0,240.0,1.0,0.0
217,59.0,5.0,900.0,4.0,0.0
218,77.0,240.0,240.0,1.0,0.0
219,50.0,7.0,900.0,5.0,0.0
220,78.0,240.0,240.0,1.0,0.0
221,74.0,180.0,240.0,1.0,0.0
222,71.0,1008.0,180.0,1.0,0.0
223,69.0,120.0,960.0,1.0,0.0
224,52.0,60.0,1380.0,5.0,0.0
225,62.0,0.0,900.0,4.0,0.0
226,71.0,120.0,120.0,1.0,0.0
227,69.0,120.0,120.0,1.0,0.0
228,68.0,120.0,120.0,1.0,0.0
229,69.0,240.0,120.0,1.0,0.0
230,73.0,180.0,240.0,1.0,0.0
231,68.0,0.0,480.0,2.0,0.0
232,71.0,240.0,240.0,1.0,0.0
233,69.0,240.0,240.0,1.0,0.0
234,63.0,0.0,1860.0,4.0,0.0
235,57.0,0.0,1860.0,4.0,0.0
236,54.0,12.0,1860.0,5.0,0.0
237,85.0,240.0,240.0,1.0,0.0
238,83.0,240.0,240.0,1.0,0.0
239,81.0,240.0,240.0,1.0,0.0
240,80.0,240.0,240.0,1.0,0.0
241,78.0,240.0,240.0,1.0,0.0
242,76.0,180.0,240.0,1.0,0.0
243,75.0,288.0,180.0,1.0,0.0
244,58.0,240.0,240.0,5.0,0.0
245,74.0,0.0,240.0,1.0,0.0
246,80.0,0.0,240.0,1.0,0.0
247,59.0,240.0,240.0,5.0,0.0
248,61.0,0.0,240.0,5.0,0.0
249,76.0,240.0,240.0,1.0,0.0
250,62.0,240.0,240.0,5.0,0.0
251,80.0,0.0,240.0,1.0,0.0
252,64.0,0.0,240.0,5.0,0.0
253,74.0,240.0,240.0,1.0,0.0
254,83.0,240.0,240.0,1.0,0.0
255,65.0,0.0,240.0,5.0,0.0
256,66.0,0.0,240.0,5.0,0.0
257,76.0,192.0,240.0,1.0,0.0
258,83.0,288.0,180.0,1.0,0.0
259,68.0,0.0,180.0,5.0,0.0
260,73.0,0.0,240.0,1.0,0.0
261,69.0,240.0,240.0,5.0,0.0
262,57.0,240.0,240.0,5.0,0.0
263,69.0,0.0,240.0,5.0,0.0
264,73.0,240.0,240.0,2.0,0.0
265,76.0,0.0,240.0,1.0,0.0
266,68.0,240.0,240.0,5.0,0.0
267,66.0,240.0,240.0,5.0,0.0
268,54.0,240.0,240.0,5.0,0.0
269,66.0,240.0,240.0,5.0,0.0
270,73.0,0.0,240.0,2.0,0.0
271,81.0,0.0,240.0,1.0,0.0
272,64.0,156.0,240.0,5.0,0.0
273,62.0,240.0,150.0,5.0,0.0
274,50.0,324.0,150.0,5.0,0.0
275,81.0,0.0,240.0,1.0,0.0
276,62.0,0.0,240.0,5.0,0.0
277,78.0,240.0,240.0,2.0,0.0
278,61.0,156.0,240.0,5.0,0.0
279,59.0,240.0,150.0,5.0,0.0
280,47.0,324.0,150.0,5.0,0.0
281,86.0,0.0,240.0,1.0,0.0
282,78.0,192.0,240.0,2.0,0.0
283,59.0,0.0,240.0,5.0,0.0
284,57.0,1008.0,180.0,5.0,0.0
285,86.0,1320.0,1320.0,1.0,0.0
286,57.0,0.0,960.0,5.0,0.0
287,77.0,360.0,960.0,2.0,0.0
288,56.0,0.0,360.0,5.0,0.0
289,76.0,0.0,360.0,2.0,0.0
290,74.0,360.0,1920.0,2.0,0.0
291,80.0,0.0,1920.0,1.0,0.0
292,73.0,240.0,240.0,5.0,0.0
293,71.0,240.0,240.0,5.0,0.0
294,69.0,240.0,240.0,5.0,0.0
295,68.0,240.0,240.0,5.0,0.0
296,66.0,192.0,240.0,5.0,0.0
297,64.0,48.0,180.0,5.0,0.0
298,64.0,240.0,1440.0,5.0,0.0
299,73.0,0.0,360.0,2.0,0.0
300,81.0,360.0,360.0,1.0,0.0
301,85.0,240.0,240.0,1.0,0.0
302,74.0,5.0,1380.0,2.0,0.0
303,83.0,240.0,240.0,1.0,0.0
304,81.0,240.0,240.0,1.0,0.0
305,80.0,0.0,240.0,1.0,0.0
306,78.0,0.0,240.0,1.0,0.0
307,66.0,187.0,240.0,5.0,0.0
308,68.0,288.0,180.0,5.0,0.0
309,76.0,0.0,180.0,1.0,0.0
310,73.0,113.0,360.0,2.0,0.0
311,76.0,240.0,1440.0,1.0,0.0
312,69.0,127.0,240.0,5.0,0.0
313,70.0,240.0,240.0,5.0,0.0
314,73.0,240.0,240.0,5.0,0.0
315,74.0,285.0,1380.0,2.0,0.0
316,71.0,240.0,240.0,5.0,0.0
317,69.0,240.0,240.0,5.0,0.0
318,68.0,0.0,240.0,5.0,0.0
319,66.0,180.0,240.0,5.0,0.0
320,78.0,0.0,240.0,1.0,0.0
321,64.0,12.0,180.0,5.0,0.0
322,80.0,3.0,180.0,1.0,0.0
323,81.0,120.0,240.0,1.0,0.0
324,73.0,120.0,360.0,2.0,0.0
325,64.0,0.0,1440.0,5.0,0.0
326,82.0,240.0,240.0,1.0,0.0
327,85.0,240.0,240.0,1.0,0.0
328,74.0,5.0,1380.0,2.0,0.0
329,83.0,240.0,240.0,1.0,0.0
330,81.0,240.0,240.0,1.0,0.0
331,80.0,240.0,240.0,1.0,0.0
332,66.0,0.0,240.0,5.0,0.0
333,78.0,187.0,240.0,1.0,0.0
334,68.0,240.0,240.0,5.0,0.0
335,76.0,48.0,180.0,1.0,0.0
336,69.0,0.0,360.0,5.0,0.0
337,73.0,72.0,360.0,2.0,0.0
338,76.0,120.0,240.0,1.0,0.0
339,81.0,288.0,180.0,1.0,0.0
340,73.0,192.0,240.0,1.0,0.0
341,76.0,288.0,180.0,1.0,0.0
342,69.0,192.0,240.0,1.0,0.0
343,73.0,288.0,180.0,1.0,0.0
344,64.0,192.0,240.0,1.0,0.0
345,68.0,288.0,180.0,1.0,0.0
346,57.0,120.0,240.0,5.0,0.0
347,69.0,72.0,360.0,1.0,0.0
348,61.0,288.0,180.0,5.0,0.0
349,54.0,192.0,240.0,5.0,0.0
350,57.0,288.0,180.0,5.0,0.0
351,53.0,192.0,240.0,5.0,0.0
352,56.0,288.0,180.0,5.0,0.0
353,85.0,0.0,240.0,1.0,0.0
354,49.0,192.0,240.0,5.0,0.0
355,53.0,288.0,180.0,5.0,0.0
356,54.0,120.0,360.0,5.0,0.0
357,83.0,120.0,240.0,1.0,0.0
358,81.0,240.0,240.0,1.0,0.0
359,80.0,240.0,240.0,1.0,0.0
360,78.0,240.0,240.0,1.0,0.0
361,81.0,240.0,240.0,1.0,0.0
362,80.0,240.0,240.0,1.0,0.0
363,73.0,192.0,240.0,5.0,0.0
364,83.0,0.0,240.0,1.0,0.0
365,77.0,288.0,180.0,1.0,0.0
366,78.0,240.0,240.0,1.0,0.0
367,71.0,0.0,240.0,5.0,0.0
368,69.0,240.0,240.0,5.0,0.0
369,73.0,240.0,240.0,1.0,0.0
370,68.0,0.0,240.0,5.0,0.0
371,66.0,240.0,240.0,5.0,0.0
372,68.0,240.0,240.0,5.0,0.0
373,83.0,0.0,720.0,1.0,0.0
374,66.0,240.0,240.0,5.0,0.0
375,69.0,192.0,240.0,5.0,0.0
376,63.0,288.0,180.0,5.0,0.0
377,64.0,0.0,240.0,5.0,0.0
378,81.0,240.0,240.0,1.0,0.0
379,80.0,240.0,240.0,1.0,0.0
380,78.0,0.0,240.0,1.0,0.0
381,59.0,240.0,240.0,5.0,0.0
382,76.0,240.0,240.0,1.0,0.0
383,80.0,240.0,240.0,1.0,0.0
384,71.0,192.0,720.0,5.0,0.0
385,78.0,240.0,240.0,1.0,0.0
386,81.0,0.0,240.0,1.0,0.0
387,75.0,288.0,180.0,1.0,0.0
388,76.0,240.0,240.0,1.0,0.0
389,69.0,0.0,240.0,5.0,0.0
390,67.0,240.0,240.0,5.0,0.0
391,71.0,240.0,240.0,1.0,0.0
392,66.0,0.0,240.0,5.0,0.0
393,64.0,240.0,240.0,5.0,0.0
394,83.0,0.0,720.0,1.0,0.0
395,67.0,240.0,240.0,5.0,0.0
396,66.0,240.0,240.0,5.0,0.0
397,69.0,192.0,240.0,5.0,0.0
398,63.0,288.0,180.0,5.0,0.0
399,81.0,240.0,240.0,1.0,0.0
400,64.0,65.0,840.0,5.0,0.0
401,79.0,240.0,240.0,1.0,0.0
402,67.0,0.0,360.0,3.0,0.0
403,78.0,120.0,240.0,1.0,0.0
404,71.0,7.0,360.0,3.0,0.0
405,76.0,288.0,180.0,1.0,0.0
406,62.0,65.0,840.0,5.0,0.0
407,81.0,240.0,240.0,1.0,0.0
408,79.0,240.0,240.0,1.0,0.0
409,78.0,120.0,240.0,1.0,0.0
410,67.0,0.0,360.0,3.0,0.0
411,64.0,7.0,360.0,3.0,0.0
412,76.0,288.0,180.0,1.0,0.0
413,60.0,65.0,840.0,5.0,0.0
414,81.0,240.0,240.0,1.0,0.0
415,79.0,240.0,240.0,1.0,0.0
416,64.0,7.0,360.0,3.0,0.0
417,67.0,0.0,360.0,3.0,0.0
418,78.0,120.0,240.0,1.0,0.0
419,76.0,288.0,180.0,1.0,0.0
420,59.0,65.0,840.0,5.0,0.0
421,81.0,240.0,240.0,1.0,0.0
422,79.0,240.0,240.0,1.0,0.0
423,78.0,120.0,240.0,1.0,0.0
424,64.0,7.0,360.0,3.0,0.0
425,67.0,0.0,360.0,3.0,0.0
426,76.0,336.0,180.0,1.0,0.0
427,88.0,0.0,300.0,1.0,0.0
428,58.0,0.0,300.0,5.0,0.0
429,64.0,0.0,300.0,3.0,0.0
430,67.0,912.0,300.0,3.0,0.0
431,81.0,240.0,240.0,1.0,0.0
432,79.0,240.0,240.0,1.0,0.0
433,67.0,0.0,300.0,3.0,0.0
434,78.0,48.0,240.0,1.0,0.0
435,64.0,144.0,300.0,3.0,0.0
436,58.0,0.0,300.0,5.0,0.0
437,76.0,336.0,180.0,1.0,0.0
438,64.0,960.0,300.0,3.0,0.0
439,67.0,0.0,300.0,3.0,0.0
440,91.0,0.0,300.0,1.0,0.0
441,60.0,0.0,300.0,5.0,0.0
442,48.0,0.0,300.0,5.0,0.0
443,60.0,0.0,300.0,5.0,0.0
444,76.0,960.0,300.0,2.0,0.0
445,82.0,0.0,300.0,1.0,0.0
446,47.0,0.0,300.0,5.0,0.0
447,75.0,0.0,300.0,2.0,0.0
448,59.0,1792.0,300.0,5.0,0.0
449,83.0,0.0,300.0,1.0,0.0
450,83.0,160.0,1110.0,1.0,0.0
451,85.0,160.0,150.0,1.0,0.0
452,83.0,160.0,150.0,1.0,0.0
453,81.0,160.0,150.0,1.0,0.0
454,83.0,160.0,150.0,1.0,0.0
455,81.0,160.0,150.0,1.0,0.0
456,80.0,160.0,150.0,1.0,0.0
457,81.0,160.0,150.0,1.0,0.0
458,80.0,160.0,150.0,1.0,0.0
459,78.0,160.0,150.0,1.0,0.0
460,80.0,160.0,150.0,1.0,0.0
461,78.0,240.0,150.0,1.0,0.0
462,76.0,120.0,240.0,1.0,0.0
463,68.0,120.0,360.0,5.0,0.0
464,71.0,80.0,240.0,3.0,0.0
465,75.0,80.0,90.0,1.0,0.0
466,69.0,0.0,360.0,5.0,0.0
467,76.0,80.0,90.0,1.0,0.0
468,75.0,120.0,90.0,1.0,0.0
469,71.0,240.0,240.0,3.0,0.0
470,73.0,120.0,120.0,1.0,0.0
471,75.0,0.0,120.0,1.0,0.0
472,68.0,120.0,360.0,5.0,0.0
473,76.0,120.0,240.0,1.0,0.0
474,71.0,80.0,240.0,3.0,0.0
475,78.0,80.0,90.0,1.0,0.0
476,63.0,120.0,360.0,5.0,0.0
477,80.0,80.0,90.0,1.0,0.0
478,78.0,120.0,90.0,1.0,0.0
479,76.0,0.0,120.0,1.0,0.0
480,71.0,240.0,240.0,3.0,0.0
481,78.0,0.0,120.0,1.0,0.0
482,80.0,120.0,240.0,1.0,0.0
483,64.0,120.0,360.0,5.0,0.0
484,71.0,80.0,240.0,3.0,0.0
485,81.0,80.0,90.0,1.0,0.0
486,61.0,0.0,360.0,5.0,0.0
487,83.0,80.0,90.0,1.0,0.0
488,81.0,120.0,90.0,1.0,0.0
489,80.0,120.0,120.0,1.0,0.0
490,64.0,0.0,240.0,3.0,0.0
491,81.0,240.0,120.0,1.0,0.0
492,83.0,120.0,240.0,1.0,0.0
493,56.0,120.0,360.0,5.0,0.0
494,64.0,240.0,240.0,3.0,0.0
495,85.0,120.0,240.0,1.0,0.0
496,57.0,72.0,360.0,5.0,0.0
497,69.0,528.0,180.0,3.0,0.0
498,59.0,0.0,840.0,5.0,0.0
499,76.0,0.0,480.0,1.0,0.0
500,68.0,240.0,480.0,3.0,0.0
501,66.0,1080.0,360.0,3.0,0.0
502,75.0,120.0,240.0,1.0,0.0
503,85.0,80.0,1110.0,1.0,0.0
504,61.0,0.0,480.0,5.0,0.0
505,65.0,160.0,480.0,4.0,0.0
506,66.0,80.0,240.0,4.0,0.0
507,63.0,0.0,240.0,5.0,0.0
508,86.0,160.0,150.0,1.0,0.0
509,85.0,160.0,150.0,1.0,0.0
510,83.0,80.0,150.0,1.0,0.0
511,65.0,0.0,240.0,5.0,0.0
512,68.0,80.0,240.0,4.0,0.0
513,85.0,160.0,150.0,1.0,0.0
514,83.0,160.0,150.0,1.0,0.0
515,81.0,80.0,150.0,1.0,0.0
516,66.0,0.0,240.0,5.0,0.0
517,69.0,80.0,240.0,4.0,0.0
518,83.0,160.0,150.0,1.0,0.0
519,81.0,160.0,150.0,1.0,0.0
520,68.0,80.0,240.0,5.0,0.0
521,71.0,0.0,240.0,4.0,0.0
522,80.0,80.0,150.0,1.0,0.0
523,81.0,160.0,150.0,1.0,0.0
524,80.0,240.0,150.0,1.0,0.0
525,73.0,480.0,240.0,4.0,0.0
526,78.0,0.0,240.0,1.0,0.0
527,69.0,0.0,240.0,5.0,0.0
528,90.0,480.0,240.0,1.0,0.0
529,85.0,320.0,240.0,1.0,0.0
530,57.0,240.0,480.0,5.0,0.0
531,87.0,80.0,90.0,1.0,0.0
532,59.0,0.0,720.0,4.0,0.0
533,88.0,80.0,90.0,1.0,0.0
534,87.0,120.0,90.0,1.0,0.0
535,85.0,120.0,120.0,1.0,0.0
536,87.0,0.0,120.0,1.0,0.0
537,88.0,0.0,240.0,1.0,0.0
538,56.0,320.0,240.0,5.0,0.0
539,61.0,0.0,480.0,4.0,0.0
540,76.0,80.0,90.0,1.0,0.0
541,58.0,0.0,480.0,5.0,0.0
542,78.0,80.0,90.0,1.0,0.0
543,76.0,120.0,90.0,1.0,0.0
544,75.0,120.0,120.0,1.0,0.0
545,76.0,480.0,120.0,1.0,0.0
546,59.0,0.0,960.0,5.0,0.0
547,64.0,480.0,480.0,4.0,0.0
548,80.0,0.0,480.0,1.0,0.0
549,78.0,240.0,480.0,1.0,0.0
550,76.0,360.0,360.0,1.0,0.0
551,64.0,120.0,240.0,5.0,0.0
552,52.0,960.0,240.0,5.0,0.0
553,59.0,160.0,1110.0,5.0,0.0
554,71.0,400.0,240.0,1.0,0.0
555,83.0,160.0,1110.0,1.0,0.0
556,61.0,160.0,150.0,5.0,0.0
557,59.0,160.0,150.0,5.0,0.0
558,57.0,160.0,150.0,5.0,0.0
559,59.0,160.0,150.0,5.0,0.0
560,57.0,160.0,150.0,5.0,0.0
561,56.0,0.0,150.0,5.0,0.0
562,85.0,160.0,150.0,1.0,0.0
563,57.0,0.0,150.0,5.0,0.0
564,56.0,0.0,150.0,5.0,0.0
565,83.0,160.0,150.0,1.0,0.0
566,81.0,0.0,150.0,1.0,0.0
567,54.0,160.0,150.0,5.0,0.0
568,83.0,160.0,150.0,1.0,0.0
569,56.0,0.0,150.0,5.0,0.0
570,81.0,0.0,150.0,1.0,0.0
571,54.0,160.0,150.0,5.0,0.0
572,80.0,80.0,150.0,1.0,0.0
573,52.0,80.0,240.0,5.0,0.0
574,81.0,160.0,150.0,1.0,0.0
575,80.0,80.0,150.0,1.0,0.0
576,54.0,80.0,90.0,5.0,0.0
577,78.0,80.0,150.0,1.0,0.0
578,56.0,0.0,90.0,5.0,0.0
579,54.0,80.0,90.0,5.0,0.0
580,76.0,40.0,150.0,1.0,0.0
581,52.0,120.0,120.0,5.0,0.0
582,75.0,160.0,150.0,1.0,0.0
583,54.0,0.0,120.0,5.0,0.0
584,56.0,80.0,240.0,5.0,0.0
585,76.0,80.0,150.0,1.0,0.0
586,78.0,160.0,150.0,1.0,0.0
587,76.0,160.0,150.0,1.0,0.0
588,74.0,80.0,150.0,1.0,0.0
589,44.0,80.0,240.0,5.0,0.0
590,73.0,128.0,150.0,1.0,0.0
591,72.0,192.0,120.0,1.0,0.0
592,45.0,120.0,360.0,5.0,0.0
593,73.0,160.0,150.0,1.0,0.0
594,78.0,40.0,150.0,1.0,0.0
595,77.0,160.0,150.0,1.0,0.0
596,78.0,160.0,150.0,1.0,0.0
597,81.0,160.0,150.0,1.0,0.0
598,80.0,160.0,150.0,1.0,0.0
599,81.0,160.0,150.0,1.0,0.0
600,85.0,160.0,150.0,1.0,0.0
601,84.0,160.0,150.0,1.0,0.0
602,57.0,240.0,480.0,5.0,0.0
603,85.0,160.0,150.0,1.0,0.0
604,81.0,128.0,150.0,1.0,0.0
605,78.0,32.0,120.0,1.0,0.0
606,59.0,240.0,240.0,5.0,0.0
607,76.0,240.0,480.0,1.0,0.0
608,47.0,120.0,240.0,5.0,0.0
609,75.0,840.0,360.0,1.0,0.0
610,61.0,160.0,1110.0,5.0,0.0
611,64.0,400.0,240.0,1.0,0.0
612,76.0,160.0,480.0,1.0,0.0
613,62.0,160.0,150.0,5.0,0.0
614,61.0,0.0,150.0,5.0,0.0
615,59.0,160.0,150.0,5.0,0.0
616,74.0,0.0,480.0,2.0,0.0
617,77.0,160.0,480.0,1.0,0.0
618,61.0,160.0,150.0,5.0,0.0
619,59.0,0.0,150.0,5.0,0.0
620,73.0,160.0,480.0,2.0,0.0
621,57.0,160.0,150.0,5.0,0.0
622,78.0,0.0,480.0,1.0,0.0
623,59.0,160.0,150.0,5.0,0.0
624,57.0,0.0,150.0,5.0,0.0
625,56.0,160.0,150.0,5.0,0.0
626,77.0,0.0,360.0,2.0,0.0
627,80.0,120.0,360.0,1.0,0.0
628,57.0,40.0,150.0,5.0,0.0
629,56.0,160.0,150.0,5.0,0.0
630,81.0,80.0,150.0,1.0,0.0
631,54.0,80.0,240.0,5.0,0.0
632,80.0,160.0,150.0,1.0,0.0
633,81.0,80.0,150.0,1.0,0.0
634,52.0,80.0,90.0,5.0,0.0
635,82.0,80.0,150.0,1.0,0.0
636,54.0,0.0,90.0,5.0,0.0
637,80.0,40.0,150.0,1.0,0.0
638,52.0,80.0,90.0,5.0,0.0
639,51.0,120.0,120.0,5.0,0.0
640,82.0,160.0,150.0,1.0,0.0
641,52.0,0.0,120.0,5.0,0.0
642,83.0,80.0,150.0,1.0,0.0
643,51.0,80.0,240.0,5.0,0.0
644,82.0,160.0,150.0,1.0,0.0
645,83.0,80.0,150.0,1.0,0.0
646,87.0,80.0,150.0,1.0,0.0
647,57.0,80.0,90.0,5.0,0.0
648,59.0,0.0,90.0,5.0,0.0
649,85.0,40.0,150.0,1.0,0.0
650,57.0,80.0,90.0,5.0,0.0
651,56.0,120.0,120.0,5.0,0.0
652,87.0,0.0,150.0,1.0,0.0
653,57.0,240.0,120.0,5.0,0.0
654,88.0,80.0,240.0,1.0,0.0
655,56.0,120.0,360.0,5.0,0.0
656,83.0,40.0,150.0,2.0,0.0
657,80.0,240.0,150.0,2.0,0.0
658,85.0,80.0,240.0,1.0,0.0
659,57.0,120.0,360.0,5.0,0.0
660,81.0,40.0,150.0,2.0,0.0
661,78.0,240.0,150.0,2.0,0.0
662,83.0,80.0,240.0,1.0,0.0
663,59.0,120.0,360.0,5.0,0.0
664,80.0,40.0,150.0,2.0,0.0
665,76.0,240.0,150.0,2.0,0.0
666,81.0,80.0,240.0,1.0,0.0
667,47.0,120.0,360.0,5.0,0.0
668,78.0,40.0,150.0,2.0,0.0
669,75.0,240.0,150.0,2.0,0.0
670,76.0,0.0,240.0,1.0,0.0
671,52.0,400.0,240.0,5.0,0.0
672,92.0,160.0,150.0,1.0,0.0
673,90.0,160.0,150.0,1.0,0.0
674,88.0,160.0,150.0,1.0,0.0
675,87.0,160.0,150.0,1.0,0.0
676,85.0,160.0,150.0,1.0,0.0
677,83.0,160.0,150.0,1.0,0.0
678,79.0,0.0,480.0,4.0,0.0
679,76.0,240.0,480.0,5.0,0.0
680,82.0,160.0,150.0,1.0,0.0
681,85.0,160.0,150.0,1.0,0.0
682,82.0,0.0,150.0,1.0,0.0
683,85.0,80.0,240.0,1.0,0.0
684,78.0,0.0,480.0,4.0,0.0
685,75.0,240.0,480.0,5.0,0.0
686,83.0,160.0,150.0,2.0,0.0
687,80.0,0.0,150.0,2.0,0.0
688,73.0,240.0,480.0,5.0,0.0
689,76.0,0.0,480.0,4.0,0.0
690,83.0,80.0,240.0,1.0,0.0
691,81.0,160.0,150.0,2.0,0.0
692,78.0,0.0,150.0,2.0,0.0
693,81.0,80.0,240.0,1.0,0.0
694,75.0,0.0,480.0,4.0,0.0
695,71.0,0.0,480.0,5.0,0.0
696,80.0,160.0,150.0,2.0,0.0
697,76.0,240.0,150.0,2.0,0.0
698,69.0,360.0,480.0,5.0,0.0
699,80.0,80.0,240.0,1.0,0.0
700,73.0,0.0,480.0,4.0,0.0
701,78.0,160.0,150.0,2.0,0.0
702,75.0,0.0,150.0,2.0,0.0
703,68.0,0.0,360.0,5.0,0.0
704,76.0,0.0,360.0,1.0,0.0
705,71.0,280.0,360.0,4.0,0.0
706,67.0,160.0,150.0,5.0,0.0
707,66.0,160.0,150.0,5.0,0.0
708,64.0,160.0,150.0,5.0,0.0
709,62.0,160.0,150.0,5.0,0.0
710,60.0,160.0,150.0,5.0,0.0
711,59.0,160.0,150.0,5.0,0.0
712,58.0,160.0,150.0,5.0,0.0
713,79.0,160.0,480.0,2.0,0.0
714,88.0,0.0,960.0,1.0,0.0
715,61.0,160.0,150.0,5.0,0.0
716,58.0,0.0,150.0,5.0,0.0
717,61.0,160.0,150.0,5.0,0.0
718,78.0,0.0,960.0,2.0,0.0
719,59.0,160.0,150.0,5.0,0.0
720,56.0,160.0,150.0,5.0,0.0
721,87.0,160.0,480.0,1.0,0.0
722,59.0,160.0,150.0,5.0,0.0
723,57.0,160.0,150.0,5.0,0.0
724,54.0,0.0,150.0,5.0,0.0
725,83.0,0.0,960.0,2.0,0.0
726,57.0,160.0,150.0,5.0,0.0
727,88.0,0.0,480.0,1.0,0.0
728,56.0,160.0,150.0,5.0,0.0
729,52.0,160.0,150.0,5.0,0.0
730,90.0,0.0,480.0,1.0,0.0
731,56.0,160.0,150.0,5.0,0.0
732,81.0,0.0,480.0,2.0,0.0
733,54.0,160.0,150.0,5.0,0.0
734,51.0,360.0,150.0,5.0,0.0
735,92.0,280.0,360.0,1.0,0.0
736,83.0,0.0,360.0,2.0,0.0
737,80.0,0.0,360.0,2.0,0.0
738,52.0,0.0,360.0,5.0,0.0
739,83.0,160.0,150.0,1.0,0.0
740,81.0,160.0,150.0,1.0,0.0
741,80.0,160.0,150.0,1.0,0.0
742,78.0,160.0,150.0,1.0,0.0
743,76.0,160.0,150.0,1.0,0.0
744,75.0,160.0,150.0,1.0,0.0
745,64.0,0.0,840.0,4.0,0.0
746,76.0,160.0,150.0,1.0,0.0
747,56.0,360.0,480.0,5.0,0.0
748,74.0,160.0,150.0,1.0,0.0
749,72.0,0.0,150.0,1.0,0.0
750,73.0,0.0,360.0,1.0,0.0
751,57.0,280.0,360.0,5.0,0.0
752,73.0,160.0,150.0,5.0,0.0
753,71.0,160.0,150.0,5.0,0.0
754,69.0,160.0,150.0,5.0,0.0
755,68.0,160.0,150.0,5.0,0.0
756,66.0,160.0,150.0,5.0,0.0
757,65.0,160.0,150.0,5.0,0.0
758,78.0,120.0,360.0,2.0,0.0
759,82.0,0.0,360.0,1.0,0.0
760,66.0,160.0,150.0,5.0,0.0
761,64.0,40.0,150.0,5.0,0.0
762,62.0,360.0,150.0,5.0,0.0
763,63.0,0.0,360.0,5.0,0.0
764,83.0,280.0,360.0,1.0,0.0
765,78.0,0.0,360.0,2.0,0.0
766,71.0,160.0,150.0,1.0,0.0
767,75.0,160.0,150.0,1.0,0.0
768,78.0,160.0,150.0,1.0,0.0
769,83.0,160.0,150.0,1.0,0.0
770,87.0,160.0,150.0,1.0,0.0
771,90.0,160.0,150.0,1.0,0.0
772,64.0,120.0,360.0,5.0,0.0
773,66.0,0.0,360.0,4.0,0.0
774,88.0,160.0,150.0,1.0,0.0
775,85.0,40.0,150.0,1.0,0.0
776,82.0,240.0,150.0,1.0,0.0
777,66.0,0.0,360.0,4.0,0.0
778,83.0,120.0,240.0,1.0,0.0
779,63.0,280.0,360.0,5.0,0.0
780,71.0,160.0,150.0,1.0,0.0
781,75.0,160.0,150.0,1.0,0.0
782,78.0,160.0,150.0,1.0,0.0
783,83.0,160.0,150.0,1.0,0.0
784,87.0,160.0,150.0,1.0,0.0
785,90.0,160.0,150.0,1.0,0.0
786,88.0,160.0,150.0,1.0,0.0
787,61.0,120.0,360.0,5.0,0.0
788,66.0,0.0,360.0,4.0,0.0
789,64.0,0.0,360.0,4.0,0.0
790,85.0,40.0,150.0,1.0,0.0
791,82.0,160.0,150.0,1.0,0.0
792,83.0,160.0,150.0,1.0,0.0
793,63.0,0.0,360.0,4.0,0.0
794,66.0,0.0,840.0,4.0,0.0
795,59.0,120.0,360.0,5.0,0.0
796,87.0,40.0,150.0,1.0,0.0
797,90.0,160.0,150.0,1.0,0.0
798,88.0,160.0,150.0,1.0,0.0
799,61.0,120.0,360.0,5.0,0.0
800,64.0,0.0,360.0,4.0,0.0
801,85.0,40.0,150.0,1.0,0.0
802,82.0,160.0,150.0,1.0,0.0
803,63.0,120.0,360.0,4.0,0.0
804,66.0,0.0,840.0,4.0,0.0
805,83.0,160.0,150.0,1.0,0.0
806,59.0,0.0,360.0,5.0,0.0
807,87.0,40.0,150.0,1.0,0.0
808,90.0,160.0,150.0,1.0,0.0
809,61.0,120.0,360.0,5.0,0.0
810,88.0,160.0,150.0,1.0,0.0
811,64.0,0.0,360.0,4.0,0.0
812,85.0,40.0,150.0,1.0,0.0
813,82.0,360.0,150.0,1.0,0.0
814,83.0,0.0,360.0,1.0,0.0
815,63.0,360.0,360.0,4.0,0.0
816,66.0,0.0,360.0,4.0,0.0
817,59.0,0.0,360.0,5.0,0.0
818,47.0,480.0,240.0,5.0,0.0
819,49.0,480.0,240.0,5.0,0.0
820,51.0,480.0,240.0,5.0,0.0
821,52.0,480.0,240.0,5.0,0.0
822,56.0,480.0,240.0,5.0,0.0
823,57.0,480.0,240.0,5.0,0.0
824,60.0,480.0,240.0,5.0,0.0
825,61.0,240.0,240.0,5.0,0.0
826,64.0,240.0,240.0,5.0,0.0
827,63.0,240.0,240.0,5.0,0.0
828,61.0,240.0,240.0,5.0,0.0
829,63.0,240.0,240.0,5.0,0.0
830,64.0,240.0,240.0,5.0,0.0
831,61.0,192.0,240.0,5.0,0.0
832,63.0,288.0,180.0,5.0,0.0
833,64.0,480.0,240.0,5.0,0.0
834,61.0,480.0,240.0,5.0,0.0
835,56.0,320.0,240.0,5.0,0.0
836,58.0,80.0,90.0,5.0,0.0
837,59.0,80.0,90.0,5.0,0.0
838,58.0,120.0,90.0,5.0,0.0
839,56.0,120.0,120.0,5.0,0.0
840,58.0,720.0,120.0,5.0,0.0
841,59.0,240.0,3840.0,5.0,0.0
842,68.0,240.0,480.0,4.0,0.0
843,71.0,240.0,240.0,1.0,0.0
844,69.0,240.0,480.0,4.0,0.0
845,73.0,240.0,240.0,1.0,0.0
846,66.0,240.0,480.0,4.0,0.0
847,75.0,240.0,240.0,1.0,0.0
848,76.0,240.0,240.0,1.0,0.0
849,68.0,240.0,480.0,4.0,0.0
850,65.0,240.0,480.0,4.0,0.0
851,80.0,240.0,240.0,1.0,0.0
852,81.0,240.0,240.0,1.0,0.0
853,66.0,240.0,480.0,4.0,0.0
854,68.0,0.0,480.0,4.0,0.0
855,84.0,240.0,240.0,1.0,0.0
856,85.0,240.0,240.0,1.0,0.0
857,69.0,240.0,2160.0,4.0,0.0
858,88.0,240.0,240.0,1.0,0.0
859,87.0,240.0,240.0,1.0,0.0
860,85.0,240.0,240.0,1.0,0.0
861,87.0,240.0,240.0,1.0,0.0
862,88.0,240.0,240.0,1.0,0.0
863,85.0,192.0,240.0,1.0,0.0
864,87.0,288.0,180.0,1.0,0.0
865,88.0,276.0,2040.0,1.0,0.0
866,66.0,240.0,240.0,4.0,0.0
867,68.0,240.0,240.0,4.0,0.0
868,69.0,240.0,240.0,4.0,0.0
869,68.0,240.0,240.0,4.0,0.0
870,64.0,240.0,240.0,4.0,0.0
871,70.0,192.0,240.0,4.0,0.0
872,66.0,48.0,180.0,4.0,0.0
873,59.0,120.0,15.0,5.0,0.0
874,71.0,276.0,600.0,4.0,0.0
875,85.0,204.0,150.0,1.0,0.0
876,87.0,276.0,600.0,1.0,0.0
877,68.0,204.0,150.0,4.0,0.0
878,69.0,269.0,600.0,4.0,0.0
879,84.0,211.0,150.0,1.0,0.0
880,85.0,396.0,480.0,1.0,0.0
881,67.0,84.0,150.0,4.0,0.0
882,68.0,276.0,600.0,4.0,0.0
883,82.0,204.0,150.0,1.0,0.0
884,83.0,276.0,600.0,1.0,0.0
885,65.0,204.0,150.0,4.0,0.0
886,66.0,480.0,3840.0,4.0,0.0
887,80.0,219.0,150.0,1.0,0.0
888,81.0,240.0,150.0,1.0,0.0
889,60.0,0.0,150.0,5.0,0.0
890,81.0,324.0,150.0,1.0,0.0
891,61.0,149.0,3840.0,5.0,0.0
892,81.0,80.0,240.0,1.0,0.0
893,83.0,80.0,90.0,1.0,0.0
894,81.0,80.0,90.0,1.0,0.0
895,80.0,240.0,90.0,1.0,0.0
896,81.0,240.0,240.0,1.0,0.0
897,83.0,480.0,240.0,1.0,0.0
898,85.0,240.0,480.0,1.0,0.0
899,83.0,240.0,240.0,1.0,0.0
900,81.0,156.0,240.0,1.0,0.0
901,80.0,804.0,150.0,1.0,0.0
902,86.0,240.0,960.0,1.0,0.0
903,65.0,7.0,960.0,4.0,0.0
904,85.0,240.0,240.0,1.0,0.0
905,83.0,0.0,240.0,1.0,0.0
906,81.0,204.0,150.0,1.0,0.0
907,66.0,120.0,360.0,4.0,0.0
908,86.0,240.0,240.0,1.0,0.0
909,85.0,240.0,240.0,1.0,0.0
910,84.0,240.0,240.0,1.0,0.0
911,85.0,240.0,240.0,1.0,0.0
912,80.0,240.0,240.0,1.0,0.0
913,85.0,240.0,240.0,1.0,0.0
914,73.0,120.0,840.0,4.0,0.0
915,65.0,0.0,480.0,5.0,0.0
916,83.0,240.0,240.0,1.0,0.0
917,66.0,0.0,360.0,5.0,0.0
918,81.0,120.0,240.0,1.0,0.0
919,85.0,240.0,240.0,1.0,0.0
920,83.0,240.0,240.0,1.0,0.0
921,82.0,240.0,240.0,1.0,0.0
922,83.0,240.0,240.0,1.0,0.0
923,78.0,240.0,240.0,1.0,0.0
924,83.0,240.0,240.0,1.0,0.0
925,71.0,300.0,1380.0,4.0,0.0
926,63.0,240.0,480.0,5.0,0.0
927,81.0,240.0,480.0,1.0,0.0
928,64.0,8.0,900.0,5.0,0.0
929,79.0,240.0,240.0,1.0,0.0
930,81.0,172.0,240.0,1.0,0.0
931,80.0,240.0,480.0,1.0,0.0
932,69.0,285.0,900.0,4.0,0.0
933,57.0,8.0,900.0,5.0,0.0
934,73.0,240.0,240.0,1.0,0.0
935,80.0,187.0,240.0,1.0,0.0
936,78.0,240.0,480.0,1.0,0.0
937,68.0,240.0,960.0,4.0,0.0
938,59.0,12.0,1860.0,5.0,0.0
939,71.0,240.0,240.0,1.0,0.0
940,78.0,240.0,240.0,1.0,0.0
941,76.0,240.0,480.0,1.0,0.0
942,66.0,309.0,900.0,4.0,0.0
943,69.0,240.0,240.0,1.0,0.0
944,76.0,180.0,240.0,1.0,0.0
945,75.0,3.0,180.0,1.0,0.0
946,70.0,0.0,1200.0,4.0,0.0
947,61.0,0.0,1200.0,5.0,0.0
948,64.0,24.0,1200.0,4.0,0.0
949,76.0,160.0,90.0,1.0,0.0
950,78.0,160.0,90.0,1.0,0.0
951,80.0,160.0,90.0,1.0,0.0
952,82.0,160.0,90.0,1.0,0.0
953,83.0,160.0,90.0,1.0,0.0
954,85.0,136.0,90.0,1.0,0.0
955,87.0,160.0,90.0,1.0,0.0
956,88.0,160.0,90.0,1.0,0.0
957,90.0,136.0,90.0,1.0,0.0
958,61.0,0.0,240.0,5.0,0.0
959,64.0,24.0,240.0,4.0,0.0
960,70.0,0.0,240.0,4.0,0.0
961,92.0,160.0,90.0,1.0,0.0
962,88.0,376.0,90.0,1.0,0.0
963,71.0,15.0,1200.0,4.0,0.0
964,68.0,0.0,1200.0,4.0,0.0
965,64.0,80.0,1200.0,4.0,0.0
966,59.0,0.0,1200.0,5.0,0.0
967,92.0,160.0,150.0,1.0,0.0
968,90.0,160.0,150.0,1.0,0.0
969,88.0,160.0,150.0,1.0,0.0
970,87.0,160.0,150.0,1.0,0.0
971,85.0,160.0,150.0,1.0,0.0
972,83.0,65.0,150.0,1.0,0.0
973,81.0,160.0,150.0,1.0,0.0
974,80.0,160.0,150.0,1.0,0.0
975,78.0,80.0,150.0,1.0,0.0
976,68.0,80.0,240.0,4.0,0.0
977,59.0,0.0,240.0,5.0,0.0
978,64.0,0.0,240.0,4.0,0.0
979,80.0,128.0,150.0,1.0,0.0
980,76.0,296.0,120.0,1.0,0.0
981,61.0,9.0,1200.0,4.0,0.0
982,64.0,15.0,1200.0,4.0,0.0
983,68.0,15.0,1200.0,4.0,0.0
984,58.0,0.0,1200.0,5.0,0.0
985,76.0,160.0,90.0,1.0,0.0
986,78.0,160.0,90.0,1.0,0.0
987,80.0,160.0,90.0,1.0,0.0
988,82.0,160.0,90.0,1.0,0.0
989,83.0,160.0,90.0,1.0,0.0
990,85.0,121.0,90.0,1.0,0.0
991,87.0,160.0,90.0,1.0,0.0
992,88.0,160.0,90.0,1.0,0.0
993,90.0,136.0,90.0,1.0,0.0
994,58.0,24.0,240.0,5.0,0.0
995,68.0,0.0,240.0,4.0,0.0
996,64.0,0.0,240.0,4.0,0.0
997,61.0,0.0,240.0,4.0,0.0
998,92.0,160.0,90.0,1.0,0.0
999,88.0,376.0,90.0,1.0,0.0
1000,64.0,15.0,1200.0,4.0,0.0
1001,59.0,80.0,1200.0,5.0,0.0
1002,68.0,0.0,1200.0,4.0,0.0
1003,92.0,160.0,150.0,1.0,0.0
1004,90.0,160.0,150.0,1.0,0.0
1005,88.0,160.0,150.0,1.0,0.0
1006,87.0,160.0,150.0,1.0,0.0
1007,85.0,160.0,150.0,1.0,0.0
1008,83.0,65.0,150.0,1.0,0.0
1009,81.0,160.0,150.0,1.0,0.0
1010,80.0,160.0,150.0,1.0,0.0
1011,68.0,80.0,240.0,4.0,0.0
1012,64.0,0.0,240.0,4.0,0.0
1013,59.0,0.0,240.0,5.0,0.0
1014,78.0,80.0,150.0,1.0,0.0
1015,80.0,128.0,150.0,1.0,0.0
1016,76.0,296.0,120.0,1.0,0.0
1017,64.0,15.0,1200.0,4.0,0.0
1018,60.0,0.0,1200.0,5.0,0.0
1019,67.0,9.0,1200.0,4.0,0.0
1020,70.0,15.0,1200.0,4.0,0.0
1021,76.0,160.0,90.0,1.0,0.0
1022,78.0,160.0,90.0,1.0,0.0
1023,79.0,160.0,90.0,1.0,0.0
1024,82.0,160.0,90.0,1.0,0.0
1025,83.0,160.0,90.0,1.0,0.0
1026,84.0,121.0,90.0,1.0,0.0
1027,87.0,160.0,90.0,1.0,0.0
1028,88.0,160.0,90.0,1.0,0.0
1029,64.0,0.0,240.0,4.0,0.0
1030,67.0,24.0,240.0,4.0,0.0
1031,60.0,0.0,240.0,5.0,0.0
1032,70.0,0.0,240.0,4.0,0.0
1033,90.0,136.0,90.0,1.0,0.0
1034,91.0,160.0,90.0,1.0,0.0
1035,88.0,176.0,90.0,1.0,0.0
1036,92.0,120.0,120.0,1.0,0.0
1037,59.0,120.0,240.0,5.0,0.0
1038,68.0,0.0,240.0,4.0,0.0
1039,64.0,0.0,240.0,4.0,0.0
1040,71.0,0.0,240.0,4.0,0.0
1041,90.0,0.0,120.0,1.0,0.0
1042,88.0,120.0,120.0,1.0,0.0
1043,87.0,120.0,120.0,1.0,0.0
1044,85.0,120.0,120.0,1.0,0.0
1045,83.0,120.0,120.0,1.0,0.0
1046,81.0,96.0,120.0,1.0,0.0
1047,80.0,144.0,90.0,1.0,0.0
1048,88.0,120.0,120.0,1.0,0.0
1049,87.0,120.0,120.0,1.0,0.0
1050,85.0,120.0,120.0,1.0,0.0
1051,83.0,120.0,120.0,1.0,0.0
1052,81.0,120.0,120.0,1.0,0.0
1053,80.0,120.0,120.0,1.0,0.0
1054,78.0,96.0,120.0,1.0,0.0
1055,76.0,104.0,90.0,1.0,0.0
1056,64.0,80.0,960.0,4.0,0.0
1057,78.0,80.0,90.0,1.0,0.0
1058,59.0,151.0,1890.0,5.0,0.0
1059,80.0,80.0,90.0,1.0,0.0
1060,78.0,80.0,90.0,1.0,0.0
1061,80.0,80.0,90.0,1.0,0.0
1062,78.0,80.0,90.0,1.0,0.0
1063,80.0,80.0,90.0,1.0,0.0
1064,78.0,80.0,90.0,1.0,0.0
1065,80.0,80.0,90.0,1.0,0.0
1066,78.0,80.0,90.0,1.0,0.0
1067,80.0,80.0,90.0,1.0,0.0
1068,78.0,80.0,90.0,1.0,0.0
1069,80.0,0.0,90.0,1.0,0.0
1070,63.0,0.0,930.0,4.0,0.0
1071,78.0,80.0,90.0,1.0,0.0
1072,80.0,80.0,90.0,1.0,0.0
1073,78.0,80.0,90.0,1.0,0.0
1074,80.0,80.0,90.0,1.0,0.0
1075,78.0,80.0,90.0,1.0,0.0
1076,80.0,80.0,90.0,1.0,0.0
1077,78.0,80.0,90.0,1.0,0.0
1078,80.0,80.0,90.0,1.0,0.0
1079,78.0,120.0,90.0,1.0,0.0
1080,76.0,96.0,120.0,1.0,0.0
1081,78.0,1.0,90.0,1.0,0.0
1082,64.0,160.0,120.0,1.0,0.0
1083,52.0,0.0,4290.0,5.0,0.0
1084,40.0,0.0,4290.0,5.0,0.0
1085,68.0,160.0,120.0,1.0,0.0
1086,71.0,160.0,120.0,1.0,0.0
1087,76.0,160.0,120.0,1.0,0.0
1088,80.0,160.0,120.0,1.0,0.0
1089,83.0,272.0,120.0,1.0,0.0
1090,88.0,48.0,240.0,1.0,0.0
1091,83.0,160.0,120.0,2.0,0.0
1092,80.0,272.0,120.0,2.0,0.0
1093,87.0,48.0,240.0,1.0,0.0
1094,81.0,160.0,120.0,2.0,0.0
1095,78.0,272.0,120.0,2.0,0.0
1096,85.0,48.0,240.0,1.0,0.0
1097,80.0,160.0,120.0,2.0,0.0
1098,76.0,272.0,120.0,2.0,0.0
1099,83.0,48.0,240.0,1.0,0.0
1100,78.0,160.0,120.0,2.0,0.0
1101,75.0,272.0,120.0,2.0,0.0
1102,81.0,48.0,240.0,1.0,0.0
1103,76.0,160.0,120.0,2.0,0.0
1104,73.0,272.0,120.0,2.0,0.0
1105,80.0,48.0,240.0,1.0,0.0
1106,75.0,160.0,120.0,2.0,0.0
1107,71.0,272.0,120.0,2.0,0.0
1108,68.0,48.0,240.0,1.0,0.0
1109,74.0,160.0,120.0,2.0,0.0
1110,77.0,272.0,120.0,2.0,0.0
1111,69.0,48.0,240.0,1.0,0.0
1112,57.0,88.0,360.0,5.0,0.0
1113,73.0,72.0,120.0,2.0,0.0
1114,78.0,272.0,120.0,2.0,0.0
1115,59.0,88.0,360.0,5.0,0.0
1116,68.0,48.0,240.0,1.0,0.0
1117,71.0,72.0,120.0,2.0,0.0
1118,76.0,272.0,120.0,2.0,0.0
1119,66.0,48.0,240.0,1.0,0.0
1120,47.0,88.0,360.0,5.0,0.0
1121,69.0,72.0,120.0,2.0,0.0
1122,75.0,160.0,120.0,2.0,0.0
1123,40.0,0.0,4290.0,5.0,0.0
1124,64.0,160.0,120.0,1.0,0.0
1125,52.0,272.0,4290.0,5.0,0.0
1126,68.0,160.0,120.0,1.0,0.0
1127,71.0,160.0,120.0,1.0,0.0
1128,76.0,160.0,120.0,1.0,0.0
1129,80.0,160.0,120.0,1.0,0.0
1130,83.0,272.0,120.0,1.0,0.0
1131,88.0,48.0,240.0,1.0,0.0
1132,83.0,160.0,120.0,2.0,0.0
1133,80.0,272.0,120.0,2.0,0.0
1134,87.0,48.0,240.0,1.0,0.0
1135,81.0,160.0,120.0,2.0,0.0
1136,78.0,272.0,120.0,2.0,0.0
1137,85.0,48.0,240.0,1.0,0.0
1138,80.0,160.0,120.0,2.0,0.0
1139,76.0,272.0,120.0,2.0,0.0
1140,83.0,48.0,240.0,1.0,0.0
1141,78.0,160.0,120.0,2.0,0.0
1142,75.0,272.0,120.0,2.0,0.0
1143,81.0,48.0,240.0,1.0,0.0
1144,76.0,160.0,120.0,2.0,0.0
1145,73.0,272.0,120.0,2.0,0.0
1146,80.0,48.0,240.0,1.0,0.0
1147,75.0,160.0,120.0,2.0,0.0
1148,71.0,272.0,120.0,2.0,0.0
1149,68.0,48.0,240.0,1.0,0.0
1150,74.0,160.0,120.0,2.0,0.0
1151,77.0,0.0,120.0,2.0,0.0
1152,69.0,48.0,240.0,1.0,0.0
1153,57.0,88.0,360.0,5.0,0.0
1154,73.0,72.0,120.0,2.0,0.0
1155,78.0,272.0,120.0,2.0,0.0
1156,59.0,88.0,360.0,5.0,0.0
1157,68.0,48.0,240.0,1.0,0.0
1158,71.0,72.0,120.0,2.0,0.0
1159,76.0,272.0,120.0,2.0,0.0
1160,47.0,88.0,360.0,5.0,0.0
1161,66.0,48.0,240.0,1.0,0.0
1162,69.0,72.0,120.0,2.0,0.0
1163,75.0,272.0,120.0,2.0,0.0
1164,52.0,21.0,2340.0,5.0,0.0
1165,68.0,48.0,240.0,1.0,0.0
1166,71.0,160.0,120.0,2.0,0.0
1167,76.0,272.0,120.0,2.0,0.0
1168,67.0,48.0,240.0,1.0,0.0
1169,70.0,160.0,120.0,2.0,0.0
1170,76.0,272.0,120.0,2.0,0.0
1171,68.0,48.0,240.0,1.0,0.0
1172,71.0,160.0,120.0,2.0,0.0
1173,76.0,272.0,120.0,2.0,0.0
1174,67.0,48.0,240.0,1.0,0.0
1175,70.0,160.0,120.0,2.0,0.0
1176,76.0,272.0,120.0,2.0,0.0
1177,68.0,48.0,240.0,1.0,0.0
1178,71.0,139.0,120.0,2.0,0.0
1179,76.0,272.0,120.0,2.0,0.0
1180,57.0,88.0,360.0,5.0,0.0
1181,73.0,48.0,240.0,1.0,0.0
1182,69.0,72.0,120.0,2.0,0.0
1183,66.0,272.0,120.0,2.0,0.0
1184,59.0,88.0,360.0,5.0,0.0
1185,71.0,48.0,240.0,1.0,0.0
1186,68.0,72.0,120.0,2.0,0.0
1187,64.0,272.0,120.0,2.0,0.0
1188,47.0,88.0,360.0,5.0,0.0
1189,69.0,48.0,240.0,1.0,0.0
1190,66.0,72.0,120.0,2.0,0.0
1191,63.0,272.0,120.0,2.0,0.0
1192,40.0,88.0,2280.0,5.0,0.0
1193,52.0,0.0,2280.0,5.0,0.0
1194,59.0,48.0,240.0,1.0,0.0
1195,64.0,160.0,120.0,2.0,0.0
1196,68.0,272.0,120.0,2.0,0.0
1197,58.0,48.0,240.0,1.0,0.0
1198,64.0,160.0,120.0,2.0,0.0
1199,67.0,272.0,120.0,2.0,0.0
1200,59.0,48.0,240.0,1.0,0.0
1201,64.0,160.0,120.0,2.0,0.0
1202,68.0,272.0,120.0,2.0,0.0
1203,58.0,48.0,240.0,1.0,0.0
1204,64.0,160.0,120.0,2.0,0.0
1205,67.0,272.0,120.0,2.0,0.0
1206,59.0,48.0,240.0,1.0,0.0
1207,64.0,72.0,120.0,2.0,0.0
1208,68.0,272.0,120.0,2.0,0.0
1209,66.0,48.0,240.0,1.0,0.0
1210,45.0,88.0,360.0,5.0,0.0
1211,61.0,72.0,120.0,2.0,0.0
1212,57.0,272.0,120.0,2.0,0.0
1213,47.0,88.0,360.0,5.0,0.0
1214,64.0,48.0,240.0,1.0,0.0
1215,59.0,72.0,120.0,2.0,0.0
1216,56.0,272.0,120.0,2.0,0.0
1217,35.0,88.0,360.0,5.0,0.0
1218,63.0,48.0,240.0,1.0,0.0
1219,57.0,72.0,120.0,2.0,0.0
1220,54.0,160.0,120.0,2.0,0.0
1221,52.0,0.0,120.0,1.0,0.0
1222,40.0,160.0,120.0,5.0,0.0
1223,56.0,0.0,120.0,1.0,0.0
1224,44.0,160.0,120.0,5.0,0.0
1225,59.0,160.0,120.0,1.0,0.0
1226,47.0,0.0,120.0,5.0,0.0
1227,64.0,0.0,120.0,1.0,0.0
1228,52.0,160.0,120.0,5.0,0.0
1229,59.0,0.0,120.0,1.0,0.0
1230,47.0,160.0,120.0,5.0,0.0
1231,56.0,0.0,120.0,1.0,0.0
1232,44.0,160.0,120.0,5.0,0.0
1233,52.0,0.0,120.0,1.0,0.0
1234,40.0,160.0,120.0,5.0,0.0
1235,44.0,160.0,120.0,5.0,0.0
1236,56.0,0.0,120.0,1.0,0.0
1237,59.0,160.0,120.0,1.0,0.0
1238,47.0,0.0,120.0,5.0,0.0
1239,64.0,160.0,120.0,1.0,0.0
1240,52.0,0.0,120.0,5.0,0.0
1241,59.0,0.0,120.0,1.0,0.0
1242,47.0,160.0,120.0,5.0,0.0
1243,56.0,0.0,120.0,1.0,0.0
1244,44.0,160.0,120.0,5.0,0.0
1245,52.0,160.0,120.0,1.0,0.0
1246,40.0,0.0,120.0,5.0,0.0
1247,56.0,0.0,120.0,1.0,0.0
1248,44.0,160.0,120.0,5.0,0.0
1249,47.0,0.0,120.0,5.0,0.0
1250,59.0,160.0,120.0,1.0,0.0
1251,52.0,160.0,120.0,5.0,0.0
1252,64.0,0.0,120.0,1.0,0.0
1253,68.0,0.0,120.0,1.0,0.0
1254,56.0,160.0,120.0,5.0,0.0
1255,71.0,0.0,120.0,1.0,0.0
1256,59.0,160.0,120.0,5.0,0.0
1257,76.0,0.0,120.0,1.0,0.0
1258,64.0,160.0,120.0,5.0,0.0
1259,59.0,0.0,120.0,5.0,0.0
1260,71.0,160.0,120.0,1.0,0.0
1261,56.0,0.0,120.0,5.0,0.0
1262,68.0,160.0,120.0,1.0,0.0
1263,52.0,0.0,120.0,5.0,0.0
1264,64.0,160.0,120.0,1.0,0.0
1265,68.0,160.0,120.0,1.0,0.0
1266,56.0,0.0,120.0,5.0,0.0
1267,59.0,0.0,120.0,5.0,0.0
1268,71.0,160.0,120.0,1.0,0.0
1269,64.0,0.0,120.0,1.0,0.0
1270,52.0,160.0,120.0,5.0,0.0
1271,56.0,0.0,120.0,5.0,0.0
1272,68.0,160.0,120.0,1.0,0.0
1273,59.0,0.0,120.0,5.0,0.0
1274,71.0,160.0,120.0,1.0,0.0
1275,64.0,0.0,120.0,5.0,0.0
1276,76.0,160.0,120.0,1.0,0.0
1277,80.0,160.0,120.0,1.0,0.0
1278,68.0,0.0,120.0,5.0,0.0
1279,71.0,0.0,120.0,5.0,0.0
1280,83.0,160.0,120.0,1.0,0.0
1281,76.0,0.0,120.0,5.0,0.0
1282,88.0,160.0,120.0,1.0,0.0
1283,71.0,160.0,120.0,5.0,0.0
1284,83.0,0.0,120.0,1.0,0.0
1285,80.0,160.0,120.0,1.0,0.0
1286,68.0,0.0,120.0,5.0,0.0
1287,64.0,0.0,120.0,5.0,0.0
1288,76.0,160.0,120.0,1.0,0.0
1289,68.0,0.0,120.0,5.0,0.0
1290,80.0,160.0,120.0,1.0,0.0
1291,83.0,392.0,120.0,1.0,0.0
1292,71.0,0.0,120.0,5.0,0.0
1293,88.0,480.0,360.0,1.0,0.0
1294,76.0,0.0,360.0,1.0,0.0
1295,52.0,0.0,360.0,5.0,0.0
1296,76.0,840.0,360.0,1.0,0.0
1297,64.0,0.0,360.0,1.0,0.0
1298,83.0,480.0,240.0,1.0,0.0
1299,81.0,240.0,240.0,1.0,0.0
1300,79.0,240.0,240.0,1.0,0.0
1301,78.0,240.0,240.0,1.0,0.0
1302,76.0,240.0,240.0,1.0,0.0
1303,79.0,240.0,240.0,1.0,0.0
1304,78.0,240.0,240.0,1.0,0.0
1305,81.0,192.0,240.0,1.0,0.0
1306,75.0,176.0,180.0,1.0,0.0
1307,40.0,160.0,120.0,5.0,0.0
1308,76.0,128.0,480.0,1.0,0.0
1309,43.0,160.0,120.0,5.0,0.0
1310,47.0,32.0,120.0,5.0,0.0
1311,52.0,160.0,120.0,5.0,0.0
1312,71.0,88.0,360.0,1.0,0.0
1313,47.0,72.0,120.0,5.0,0.0
1314,43.0,160.0,120.0,5.0,0.0
1315,40.0,160.0,120.0,5.0,0.0
1316,43.0,160.0,120.0,5.0,0.0
1317,47.0,160.0,120.0,5.0,0.0
1318,71.0,0.0,240.0,2.0,0.0
1319,79.0,48.0,240.0,1.0,0.0
1320,52.0,112.0,120.0,5.0,0.0
1321,47.0,160.0,120.0,5.0,0.0
1322,43.0,160.0,120.0,5.0,0.0
1323,78.0,0.0,480.0,1.0,0.0
1324,69.0,128.0,480.0,2.0,0.0
1325,40.0,160.0,120.0,5.0,0.0
1326,43.0,160.0,120.0,5.0,0.0
1327,47.0,32.0,120.0,5.0,0.0
1328,52.0,160.0,120.0,5.0,0.0
1329,67.0,88.0,360.0,2.0,0.0
1330,76.0,0.0,360.0,1.0,0.0
1331,55.0,72.0,120.0,5.0,0.0
1332,59.0,160.0,120.0,5.0,0.0
1333,64.0,160.0,120.0,5.0,0.0
1334,59.0,160.0,120.0,5.0,0.0
1335,55.0,160.0,120.0,5.0,0.0
1336,83.0,48.0,240.0,1.0,0.0
1337,52.0,112.0,120.0,5.0,0.0
1338,79.0,0.0,240.0,2.0,0.0
1339,55.0,160.0,120.0,5.0,0.0
1340,59.0,160.0,120.0,5.0,0.0
1341,81.0,0.0,480.0,1.0,0.0
1342,78.0,128.0,480.0,2.0,0.0
1343,52.0,160.0,120.0,5.0,0.0
1344,55.0,160.0,120.0,5.0,0.0
1345,59.0,32.0,120.0,5.0,0.0
1346,64.0,160.0,120.0,5.0,0.0
1347,76.0,0.0,360.0,2.0,0.0
1348,79.0,88.0,360.0,1.0,0.0
1349,67.0,72.0,120.0,5.0,0.0
1350,71.0,160.0,120.0,5.0,0.0
1351,76.0,160.0,120.0,5.0,0.0
1352,71.0,160.0,120.0,5.0,0.0
1353,67.0,160.0,120.0,5.0,0.0
1354,83.0,48.0,240.0,1.0,0.0
1355,64.0,112.0,120.0,5.0,0.0
1356,67.0,160.0,120.0,5.0,0.0
1357,71.0,192.0,120.0,5.0,0.0
1358,91.0,160.0,150.0,1.0,0.0
1359,76.0,80.0,720.0,5.0,0.0
1360,93.0,160.0,150.0,1.0,0.0
1361,91.0,160.0,150.0,1.0,0.0
1362,90.0,80.0,150.0,1.0,0.0
1363,88.0,160.0,150.0,1.0,0.0
1364,87.0,160.0,150.0,1.0,0.0
1365,88.0,160.0,150.0,1.0,0.0
1366,90.0,160.0,150.0,1.0,0.0
1367,88.0,160.0,150.0,1.0,0.0
1368,86.0,160.0,150.0,1.0,0.0
1369,64.0,120.0,360.0,5.0,0.0
1370,85.0,40.0,150.0,1.0,0.0
1371,83.0,160.0,150.0,1.0,0.0
1372,82.0,160.0,150.0,1.0,0.0
1373,66.0,80.0,720.0,5.0,0.0
1374,83.0,160.0,150.0,1.0,0.0
1375,85.0,160.0,150.0,1.0,0.0
1376,83.0,80.0,150.0,1.0,0.0
1377,82.0,160.0,150.0,1.0,0.0
1378,79.0,160.0,150.0,1.0,0.0
1379,78.0,160.0,150.0,1.0,0.0
1380,76.0,160.0,150.0,1.0,0.0
1381,74.0,160.0,150.0,1.0,0.0
1382,54.0,80.0,240.0,5.0,0.0
1383,73.0,80.0,150.0,1.0,0.0
1384,71.0,160.0,150.0,1.0,0.0
1385,70.0,240.0,150.0,1.0,0.0
1386,52.0,120.0,240.0,5.0,0.0
1387,71.0,120.0,360.0,1.0,0.0
1388,50.0,240.0,240.0,5.0,0.0
1389,49.0,240.0,240.0,5.0,0.0
1390,47.0,240.0,240.0,5.0,0.0
1391,50.0,240.0,240.0,5.0,0.0
1392,49.0,240.0,240.0,5.0,0.0
1393,52.0,192.0,240.0,5.0,0.0
1394,46.0,176.0,180.0,5.0,0.0
1395,47.0,128.0,480.0,5.0,0.0
1396,59.0,160.0,120.0,2.0,0.0
1397,62.0,160.0,120.0,2.0,0.0
1398,66.0,32.0,120.0,2.0,0.0
1399,71.0,160.0,120.0,2.0,0.0
1400,42.0,88.0,360.0,5.0,0.0
1401,66.0,72.0,120.0,2.0,0.0
1402,62.0,160.0,120.0,2.0,0.0
1403,59.0,160.0,120.0,2.0,0.0
1404,62.0,160.0,120.0,2.0,0.0
1405,66.0,160.0,120.0,2.0,0.0
1406,50.0,0.0,240.0,5.0,0.0
1407,71.0,112.0,120.0,2.0,0.0
1408,54.0,48.0,240.0,4.0,0.0
1409,66.0,160.0,120.0,2.0,0.0
1410,62.0,160.0,120.0,2.0,0.0
1411,49.0,128.0,480.0,5.0,0.0
1412,52.0,0.0,480.0,4.0,0.0
1413,59.0,160.0,120.0,2.0,0.0
1414,62.0,160.0,120.0,2.0,0.0
1415,66.0,32.0,120.0,2.0,0.0
1416,50.0,0.0,360.0,4.0,0.0
1417,47.0,88.0,360.0,5.0,0.0
1418,71.0,160.0,120.0,2.0,0.0
1419,74.0,72.0,120.0,2.0,0.0
1420,78.0,160.0,120.0,2.0,0.0
1421,83.0,160.0,120.0,2.0,0.0
1422,78.0,160.0,120.0,2.0,0.0
1423,74.0,160.0,120.0,2.0,0.0
1424,71.0,112.0,120.0,2.0,0.0
1425,62.0,48.0,240.0,4.0,0.0
1426,54.0,0.0,240.0,5.0,0.0
1427,74.0,160.0,120.0,2.0,0.0
1428,78.0,160.0,120.0,2.0,0.0
1429,71.0,160.0,120.0,2.0,0.0
1430,52.0,128.0,480.0,5.0,0.0
1431,61.0,0.0,480.0,4.0,0.0
1432,74.0,160.0,120.0,2.0,0.0
1433,78.0,32.0,120.0,2.0,0.0
1434,83.0,160.0,120.0,2.0,0.0
1435,59.0,88.0,360.0,4.0,0.0
1436,50.0,0.0,360.0,5.0,0.0
1437,86.0,72.0,120.0,2.0,0.0
1438,88.0,160.0,120.0,2.0,0.0
1439,90.0,160.0,120.0,2.0,0.0
1440,88.0,160.0,120.0,2.0,0.0
1441,86.0,160.0,120.0,2.0,0.0
1442,66.0,48.0,240.0,5.0,0.0
1443,85.0,112.0,120.0,2.0,0.0
1444,83.0,160.0,120.0,2.0,0.0
1445,82.0,192.0,120.0,2.0,0.0
1446,83.0,80.0,240.0,1.0,0.0
1447,74.0,80.0,150.0,5.0,0.0
1448,76.0,160.0,150.0,5.0,0.0
1449,74.0,80.0,150.0,5.0,0.0
1450,85.0,80.0,90.0,1.0,0.0
1451,73.0,0.0,150.0,5.0,0.0
1452,86.0,80.0,90.0,1.0,0.0
1453,71.0,40.0,150.0,5.0,0.0
1454,85.0,80.0,90.0,1.0,0.0
1455,83.0,120.0,120.0,1.0,0.0
1456,70.0,0.0,150.0,5.0,0.0
1457,85.0,160.0,120.0,1.0,0.0
1458,71.0,160.0,150.0,5.0,0.0
1459,86.0,113.0,1320.0,1.0,0.0
1460,73.0,160.0,150.0,5.0,0.0
1461,71.0,160.0,150.0,5.0,0.0
1462,78.0,120.0,360.0,2.0,0.0
1463,69.0,160.0,150.0,5.0,0.0
1464,68.0,40.0,150.0,5.0,0.0
1465,66.0,160.0,150.0,5.0,0.0
1466,65.0,160.0,150.0,5.0,0.0
1467,80.0,10.0,630.0,2.0,0.0
1468,66.0,47.0,150.0,5.0,0.0
1469,68.0,150.0,150.0,5.0,0.0
1470,84.0,67.0,360.0,1.0,0.0
1471,66.0,160.0,150.0,5.0,0.0
1472,65.0,40.0,150.0,5.0,0.0
1473,78.0,53.0,180.0,2.0,0.0
1474,62.0,160.0,150.0,5.0,0.0
1475,77.0,8.0,360.0,2.0,0.0
1476,85.0,120.0,360.0,1.0,0.0
1477,61.0,160.0,150.0,5.0,0.0
1478,59.0,32.0,150.0,5.0,0.0
1479,57.0,160.0,150.0,5.0,0.0
1480,56.0,160.0,150.0,5.0,0.0
1481,83.0,7.0,360.0,1.0,0.0
1482,80.0,113.0,360.0,2.0,0.0
1483,54.0,40.0,150.0,5.0,0.0
1484,53.0,288.0,150.0,5.0,0.0
1485,81.0,0.0,360.0,1.0,0.0
1486,54.0,88.0,360.0,5.0,0.0
1487,73.0,88.0,840.0,2.0,0.0
1488,57.0,72.0,120.0,4.0,0.0
1489,61.0,320.0,120.0,4.0,0.0
1490,80.0,0.0,360.0,1.0,0.0
1491,52.0,0.0,360.0,5.0,0.0
1492,56.0,72.0,120.0,4.0,0.0
1493,61.0,320.0,120.0,4.0,0.0
1494,51.0,88.0,360.0,5.0,0.0
1495,78.0,8.0,840.0,1.0,0.0
1496,69.0,8.0,360.0,2.0,0.0
1497,54.0,64.0,120.0,4.0,0.0
1498,61.0,320.0,120.0,4.0,0.0
1499,50.0,88.0,360.0,5.0,0.0
1500,66.0,0.0,360.0,2.0,0.0
1501,54.0,64.0,120.0,4.0,0.0
1502,60.0,192.0,120.0,4.0,0.0
1503,61.0,0.0,720.0,4.0,0.0
1504,49.0,80.0,720.0,5.0,0.0
1505,77.0,160.0,150.0,1.0,0.0
1506,73.0,160.0,150.0,1.0,0.0
1507,77.0,160.0,150.0,1.0,0.0
1508,80.0,80.0,150.0,1.0,0.0
1509,85.0,160.0,150.0,1.0,0.0
1510,89.0,160.0,150.0,1.0,0.0
1511,92.0,160.0,150.0,1.0,0.0
1512,90.0,160.0,150.0,1.0,0.0
1513,89.0,160.0,150.0,1.0,0.0
1514,86.0,160.0,150.0,1.0,0.0
1515,85.0,160.0,150.0,1.0,0.0
1516,83.0,320.0,150.0,1.0,0.0
1517,81.0,80.0,720.0,1.0,0.0
1518,54.0,160.0,150.0,5.0,0.0
1519,57.0,160.0,150.0,5.0,0.0
1520,61.0,80.0,150.0,5.0,0.0
1521,66.0,160.0,150.0,5.0,0.0
1522,69.0,160.0,150.0,5.0,0.0
1523,73.0,160.0,150.0,5.0,0.0
1524,71.0,160.0,150.0,5.0,0.0
1525,69.0,160.0,150.0,5.0,0.0
1526,81.0,120.0,360.0,2.0,0.0
1527,90.0,0.0,360.0,1.0,0.0
1528,68.0,160.0,150.0,5.0,0.0
1529,69.0,40.0,150.0,5.0,0.0
1530,66.0,128.0,150.0,5.0,0.0
1531,89.0,0.0,120.0,1.0,0.0
1532,61.0,80.0,720.0,5.0,0.0
1533,80.0,192.0,120.0,2.0,0.0
1534,73.0,160.0,150.0,1.0,0.0
1535,77.0,160.0,150.0,1.0,0.0
1536,80.0,80.0,150.0,1.0,0.0
1537,85.0,160.0,150.0,1.0,0.0
1538,89.0,160.0,150.0,1.0,0.0
1539,92.0,160.0,150.0,1.0,0.0
1540,90.0,160.0,150.0,1.0,0.0
1541,89.0,160.0,150.0,1.0,0.0
1542,86.0,160.0,150.0,1.0,0.0
1543,85.0,160.0,150.0,1.0,0.0
1544,83.0,320.0,150.0,1.0,0.0
1545,81.0,80.0,720.0,1.0,0.0
1546,54.0,160.0,150.0,5.0,0.0
1547,57.0,160.0,150.0,5.0,0.0
1548,61.0,80.0,150.0,5.0,0.0
1549,66.0,160.0,150.0,5.0,0.0
1550,69.0,160.0,150.0,5.0,0.0
1551,73.0,160.0,150.0,5.0,0.0
1552,71.0,160.0,150.0,5.0,0.0
1553,69.0,160.0,150.0,5.0,0.0
1554,81.0,0.0,360.0,2.0,0.0
1555,68.0,160.0,150.0,5.0,0.0
1556,90.0,120.0,360.0,1.0,0.0
1557,69.0,40.0,150.0,5.0,0.0
1558,66.0,128.0,150.0,5.0,0.0
1559,89.0,48.0,240.0,1.0,0.0
1560,61.0,48.0,720.0,5.0,0.0
1561,80.0,112.0,120.0,2.0,0.0
1562,85.0,160.0,120.0,2.0,0.0
1563,80.0,272.0,120.0,2.0,0.0
1564,77.0,0.0,240.0,1.0,0.0
1565,80.0,160.0,120.0,2.0,0.0
1566,77.0,272.0,120.0,2.0,0.0
1567,73.0,48.0,240.0,1.0,0.0
1568,77.0,160.0,120.0,2.0,0.0
1569,73.0,272.0,120.0,2.0,0.0
1570,68.0,48.0,240.0,1.0,0.0
1571,73.0,160.0,120.0,2.0,0.0
1572,68.0,272.0,120.0,2.0,0.0
1573,65.0,48.0,240.0,1.0,0.0
1574,68.0,160.0,120.0,2.0,0.0
1575,65.0,272.0,120.0,2.0,0.0
1576,61.0,48.0,240.0,1.0,0.0
1577,65.0,160.0,120.0,2.0,0.0
1578,61.0,272.0,120.0,2.0,0.0
1579,56.0,48.0,240.0,1.0,0.0
1580,61.0,160.0,120.0,2.0,0.0
1581,56.0,272.0,120.0,2.0,0.0
1582,53.0,48.0,240.0,1.0,0.0
1583,56.0,160.0,120.0,2.0,0.0
1584,53.0,160.0,120.0,2.0,0.0
1585,37.0,160.0,120.0,5.0,0.0
1586,49.0,0.0,120.0,1.0,0.0
1587,53.0,0.0,120.0,1.0,0.0
1588,41.0,160.0,120.0,5.0,0.0
1589,56.0,0.0,120.0,1.0,0.0
1590,44.0,160.0,120.0,5.0,0.0
1591,49.0,160.0,120.0,5.0,0.0
1592,61.0,0.0,120.0,1.0,0.0
1593,44.0,160.0,120.0,5.0,0.0
1594,56.0,0.0,120.0,1.0,0.0
1595,53.0,160.0,120.0,1.0,0.0
1596,41.0,0.0,120.0,5.0,0.0
1597,37.0,0.0,120.0,5.0,0.0
1598,49.0,160.0,120.0,1.0,0.0
1599,53.0,160.0,120.0,1.0,0.0
1600,41.0,0.0,120.0,5.0,0.0
1601,44.0,160.0,120.0,5.0,0.0
1602,56.0,0.0,120.0,1.0,0.0
1603,61.0,0.0,120.0,1.0,0.0
1604,49.0,160.0,120.0,5.0,0.0
1605,56.0,0.0,120.0,1.0,0.0
1606,44.0,160.0,120.0,5.0,0.0
1607,53.0,0.0,120.0,1.0,0.0
1608,41.0,160.0,120.0,5.0,0.0
1609,49.0,0.0,120.0,1.0,0.0
1610,37.0,160.0,120.0,5.0,0.0
1611,53.0,160.0,120.0,1.0,0.0
1612,41.0,0.0,120.0,5.0,0.0
1613,44.0,0.0,120.0,5.0,0.0
1614,56.0,160.0,120.0,1.0,0.0
1615,61.0,160.0,120.0,1.0,0.0
1616,49.0,0.0,120.0,5.0,0.0
1617,65.0,160.0,120.0,1.0,0.0
1618,53.0,0.0,120.0,5.0,0.0
1619,68.0,0.0,120.0,1.0,0.0
1620,56.0,160.0,120.0,5.0,0.0
1621,73.0,160.0,120.0,1.0,0.0
1622,61.0,0.0,120.0,5.0,0.0
1623,68.0,160.0,120.0,1.0,0.0
1624,56.0,0.0,120.0,5.0,0.0
1625,53.0,160.0,120.0,5.0,0.0
1626,65.0,0.0,120.0,1.0,0.0
1627,61.0,0.0,120.0,1.0,0.0
1628,49.0,160.0,120.0,5.0,0.0
1629,65.0,160.0,120.0,1.0,0.0
1630,53.0,0.0,120.0,5.0,0.0
1631,68.0,0.0,120.0,1.0,0.0
1632,56.0,160.0,120.0,5.0,0.0
1633,61.0,160.0,120.0,1.0,0.0
1634,49.0,0.0,120.0,5.0,0.0
1635,65.0,0.0,120.0,1.0,0.0
1636,53.0,160.0,120.0,5.0,0.0
1637,68.0,160.0,120.0,1.0,0.0
1638,56.0,0.0,120.0,5.0,0.0
1639,61.0,160.0,120.0,5.0,0.0
1640,73.0,0.0,120.0,1.0,0.0
1641,77.0,160.0,120.0,1.0,0.0
1642,65.0,0.0,120.0,5.0,0.0
1643,80.0,0.0,120.0,1.0,0.0
1644,68.0,160.0,120.0,5.0,0.0
1645,73.0,0.0,120.0,5.0,0.0
1646,85.0,160.0,120.0,1.0,0.0
1647,80.0,0.0,120.0,1.0,0.0
1648,68.0,160.0,120.0,5.0,0.0
1649,65.0,160.0,120.0,5.0,0.0
1650,77.0,0.0,120.0,1.0,0.0
1651,61.0,0.0,120.0,5.0,0.0
1652,73.0,160.0,120.0,1.0,0.0
1653,65.0,160.0,120.0,5.0,0.0
1654,77.0,0.0,120.0,1.0,0.0
1655,68.0,272.0,120.0,5.0,0.0
1656,80.0,0.0,120.0,1.0,0.0
1657,73.0,0.0,240.0,5.0,0.0
1658,85.0,480.0,240.0,1.0,0.0
1659,61.0,0.0,240.0,4.0,0.0
1660,49.0,0.0,240.0,5.0,0.0
1661,73.0,1200.0,240.0,1.0,0.0
1662,85.0,80.0,1110.0,1.0,0.0
1663,61.0,160.0,480.0,5.0,0.0
1664,65.0,0.0,480.0,4.0,0.0
1665,66.0,80.0,240.0,4.0,0.0
1666,63.0,0.0,240.0,5.0,0.0
1667,86.0,160.0,150.0,1.0,0.0
1668,85.0,160.0,150.0,1.0,0.0
1669,68.0,80.0,240.0,4.0,0.0
1670,83.0,80.0,150.0,1.0,0.0
1671,65.0,0.0,240.0,5.0,0.0
1672,85.0,160.0,150.0,1.0,0.0
1673,83.0,160.0,150.0,1.0,0.0
1674,81.0,80.0,150.0,1.0,0.0
1675,66.0,80.0,240.0,5.0,0.0
1676,69.0,0.0,240.0,4.0,0.0
1677,83.0,160.0,150.0,1.0,0.0
1678,81.0,160.0,150.0,1.0,0.0
1679,71.0,80.0,240.0,4.0,0.0
1680,68.0,0.0,240.0,5.0,0.0
1681,80.0,80.0,150.0,1.0,0.0
1682,81.0,160.0,150.0,1.0,0.0
1683,80.0,240.0,150.0,1.0,0.0
1684,73.0,0.0,240.0,4.0,0.0
1685,78.0,0.0,240.0,1.0,0.0
1686,69.0,480.0,240.0,5.0,0.0
1687,78.0,480.0,480.0,1.0,0.0
1688,54.0,240.0,240.0,5.0,0.0
1689,66.0,80.0,1110.0,5.0,0.0
1690,77.0,0.0,480.0,2.0,0.0
1691,80.0,480.0,480.0,1.0,0.0
1692,76.0,160.0,480.0,2.0,0.0
1693,82.0,0.0,480.0,1.0,0.0
1694,74.0,80.0,240.0,2.0,0.0
1695,83.0,0.0,240.0,1.0,0.0
1696,67.0,160.0,150.0,5.0,0.0
1697,66.0,160.0,150.0,5.0,0.0
1698,64.0,80.0,150.0,5.0,0.0
1699,82.0,80.0,240.0,2.0,0.0
1700,85.0,0.0,240.0,1.0,0.0
1701,66.0,160.0,150.0,5.0,0.0
1702,64.0,160.0,150.0,5.0,0.0
1703,83.0,0.0,240.0,2.0,0.0
1704,62.0,80.0,150.0,5.0,0.0
1705,86.0,80.0,240.0,1.0,0.0
1706,64.0,160.0,150.0,5.0,0.0
1707,62.0,160.0,150.0,5.0,0.0
1708,82.0,80.0,240.0,2.0,0.0
1709,88.0,0.0,240.0,1.0,0.0
1710,61.0,80.0,150.0,5.0,0.0
1711,62.0,160.0,150.0,5.0,0.0
1712,61.0,240.0,150.0,5.0,0.0
1713,59.0,0.0,240.0,5.0,0.0
1714,86.0,0.0,240.0,1.0,0.0
1715,83.0,480.0,240.0,2.0,0.0
1716,71.0,1200.0,240.0,5.0,0.0
1717,83.0,80.0,1110.0,1.0,0.0
1718,66.0,160.0,480.0,4.0,0.0
1719,63.0,0.0,480.0,5.0,0.0
1720,68.0,0.0,240.0,5.0,0.0
1721,64.0,80.0,240.0,5.0,0.0
1722,85.0,160.0,150.0,1.0,0.0
1723,83.0,160.0,150.0,1.0,0.0
1724,81.0,80.0,150.0,1.0,0.0
1725,69.0,80.0,240.0,4.0,0.0
1726,66.0,0.0,240.0,5.0,0.0
1727,83.0,160.0,150.0,1.0,0.0
1728,81.0,160.0,150.0,1.0,0.0
1729,68.0,80.0,240.0,5.0,0.0
1730,71.0,0.0,240.0,4.0,0.0
1731,80.0,80.0,150.0,1.0,0.0
1732,81.0,160.0,150.0,1.0,0.0
1733,80.0,160.0,150.0,1.0,0.0
1734,78.0,80.0,150.0,1.0,0.0
1735,69.0,0.0,240.0,5.0,0.0
1736,73.0,80.0,240.0,4.0,0.0
1737,80.0,160.0,150.0,1.0,0.0
1738,78.0,240.0,150.0,1.0,0.0
1739,76.0,480.0,240.0,1.0,0.0
1740,68.0,0.0,240.0,5.0,0.0
1741,71.0,0.0,240.0,4.0,0.0
1742,76.0,480.0,480.0,1.0,0.0
1743,52.0,0.0,240.0,5.0,0.0
1744,73.0,240.0,240.0,2.0,0.0
1745,64.0,80.0,1110.0,5.0,0.0
1746,75.0,0.0,480.0,2.0,0.0
1747,78.0,480.0,480.0,1.0,0.0
1748,80.0,0.0,480.0,1.0,0.0
1749,74.0,160.0,480.0,2.0,0.0
1750,81.0,80.0,240.0,1.0,0.0
1751,66.0,160.0,150.0,5.0,0.0
1752,64.0,160.0,150.0,5.0,0.0
1753,62.0,80.0,150.0,5.0,0.0
1754,80.0,80.0,240.0,2.0,0.0
1755,83.0,0.0,240.0,1.0,0.0
1756,64.0,160.0,150.0,5.0,0.0
1757,62.0,160.0,150.0,5.0,0.0
1758,61.0,80.0,150.0,5.0,0.0
1759,85.0,0.0,240.0,1.0,0.0
1760,81.0,80.0,240.0,2.0,0.0
1761,62.0,160.0,150.0,5.0,0.0
1762,61.0,160.0,150.0,5.0,0.0
1763,80.0,0.0,240.0,2.0,0.0
1764,86.0,80.0,240.0,1.0,0.0
1765,59.0,80.0,150.0,5.0,0.0
1766,61.0,160.0,150.0,5.0,0.0
1767,59.0,240.0,150.0,5.0,0.0
1768,57.0,0.0,240.0,5.0,0.0
1769,85.0,480.0,240.0,1.0,0.0
1770,81.0,0.0,240.0,2.0,0.0
1771,69.0,960.0,240.0,1.0,0.0
1772,81.0,160.0,1110.0,1.0,0.0
1773,50.0,400.0,240.0,5.0,0.0
1774,62.0,160.0,1110.0,5.0,0.0
1775,83.0,160.0,150.0,1.0,0.0
1776,81.0,160.0,150.0,1.0,0.0
1777,79.0,160.0,150.0,1.0,0.0
1778,81.0,160.0,150.0,1.0,0.0
1779,79.0,160.0,150.0,1.0,0.0
1780,78.0,0.0,150.0,1.0,0.0
1781,79.0,160.0,150.0,1.0,0.0
1782,64.0,0.0,150.0,5.0,0.0
1783,62.0,160.0,150.0,5.0,0.0
1784,78.0,0.0,150.0,1.0,0.0
1785,76.0,160.0,150.0,1.0,0.0
1786,61.0,0.0,150.0,5.0,0.0
1787,78.0,0.0,150.0,1.0,0.0
1788,62.0,160.0,150.0,5.0,0.0
1789,76.0,0.0,150.0,1.0,0.0
1790,61.0,160.0,150.0,5.0,0.0
1791,59.0,80.0,150.0,5.0,0.0
1792,74.0,80.0,240.0,1.0,0.0
1793,61.0,160.0,150.0,5.0,0.0
1794,59.0,160.0,150.0,5.0,0.0
1795,57.0,80.0,150.0,5.0,0.0
1796,74.0,80.0,240.0,1.0,0.0
1797,59.0,160.0,150.0,5.0,0.0
1798,57.0,240.0,150.0,5.0,0.0
1799,86.0,160.0,1110.0,1.0,0.0
1800,56.0,480.0,240.0,5.0,0.0
1801,52.0,400.0,240.0,5.0,0.0
1802,74.0,0.0,1110.0,5.0,0.0
1803,88.0,160.0,150.0,1.0,0.0
1804,86.0,160.0,150.0,1.0,0.0
1805,85.0,160.0,150.0,1.0,0.0
1806,86.0,160.0,150.0,1.0,0.0
1807,85.0,160.0,150.0,1.0,0.0
1808,83.0,160.0,150.0,1.0,0.0
1809,76.0,160.0,150.0,5.0,0.0
1810,85.0,0.0,150.0,1.0,0.0
1811,83.0,0.0,150.0,1.0,0.0
1812,74.0,160.0,150.0,5.0,0.0
1813,81.0,160.0,150.0,1.0,0.0
1814,73.0,0.0,150.0,5.0,0.0
1815,83.0,0.0,150.0,1.0,0.0
1816,74.0,160.0,150.0,5.0,0.0
1817,73.0,160.0,150.0,5.0,0.0
1818,81.0,0.0,150.0,1.0,0.0
1819,80.0,0.0,150.0,1.0,0.0
1820,71.0,160.0,150.0,5.0,0.0
1821,73.0,0.0,150.0,5.0,0.0
1822,78.0,160.0,150.0,1.0,0.0
1823,80.0,160.0,150.0,1.0,0.0
1824,71.0,0.0,150.0,5.0,0.0
1825,81.0,0.0,150.0,1.0,0.0
1826,69.0,160.0,150.0,5.0,0.0
1827,80.0,160.0,150.0,1.0,0.0
1828,71.0,0.0,150.0,5.0,0.0
1829,81.0,160.0,150.0,1.0,0.0
1830,69.0,0.0,150.0,5.0,0.0
1831,83.0,160.0,150.0,1.0,0.0
1832,68.0,0.0,150.0,5.0,0.0
1833,69.0,0.0,150.0,5.0,0.0
1834,81.0,160.0,150.0,1.0,0.0
1835,68.0,160.0,150.0,5.0,0.0
1836,83.0,0.0,150.0,1.0,0.0
1837,85.0,160.0,150.0,1.0,0.0
1838,66.0,0.0,150.0,5.0,0.0
1839,83.0,0.0,150.0,1.0,0.0
1840,68.0,160.0,150.0,5.0,0.0
1841,66.0,160.0,150.0,5.0,0.0
1842,85.0,0.0,150.0,1.0,0.0
1843,68.0,160.0,480.0,4.0,0.0
1844,86.0,160.0,150.0,1.0,0.0
1845,88.0,160.0,150.0,1.0,0.0
1846,86.0,0.0,150.0,1.0,0.0
1847,85.0,160.0,150.0,1.0,0.0
1848,69.0,160.0,480.0,4.0,0.0
1849,86.0,160.0,150.0,1.0,0.0
1850,85.0,0.0,150.0,1.0,0.0
1851,83.0,160.0,150.0,1.0,0.0
1852,71.0,160.0,480.0,4.0,0.0
1853,85.0,160.0,150.0,1.0,0.0
1854,83.0,0.0,150.0,1.0,0.0
1855,81.0,160.0,150.0,1.0,0.0
1856,73.0,0.0,480.0,4.0,0.0
1857,83.0,160.0,150.0,1.0,0.0
1858,81.0,160.0,150.0,1.0,0.0
1859,64.0,0.0,15.0,5.0,0.0
1860,74.0,0.0,480.0,4.0,0.0
1861,80.0,160.0,150.0,1.0,0.0
1862,78.0,160.0,150.0,1.0,0.0
1863,80.0,160.0,150.0,1.0,0.0
1864,73.0,160.0,480.0,4.0,0.0
1865,81.0,160.0,150.0,1.0,0.0
1866,80.0,160.0,150.0,1.0,0.0
1867,81.0,0.0,150.0,1.0,0.0
1868,83.0,160.0,150.0,1.0,0.0
1869,71.0,0.0,480.0,4.0,0.0
1870,81.0,160.0,150.0,1.0,0.0
1871,83.0,160.0,150.0,1.0,0.0
1872,69.0,0.0,480.0,4.0,0.0
1873,85.0,160.0,150.0,1.0,0.0
1874,83.0,160.0,150.0,1.0,0.0
1875,85.0,0.0,150.0,1.0,0.0
1876,86.0,80.0,240.0,1.0,0.0
1877,64.0,240.0,15.0,5.0,0.0
1878,68.0,0.0,720.0,4.0,0.0
1879,86.0,160.0,150.0,2.0,0.0
1880,83.0,240.0,150.0,2.0,0.0
1881,80.0,80.0,240.0,1.0,0.0
1882,83.0,160.0,150.0,2.0,0.0
1883,80.0,240.0,150.0,2.0,0.0
1884,74.0,80.0,240.0,1.0,0.0
1885,80.0,160.0,150.0,2.0,0.0
1886,74.0,240.0,150.0,2.0,0.0
1887,71.0,80.0,240.0,1.0,0.0
1888,74.0,160.0,150.0,2.0,0.0
1889,71.0,240.0,150.0,2.0,0.0
1890,68.0,80.0,240.0,1.0,0.0
1891,71.0,160.0,150.0,2.0,0.0
1892,68.0,240.0,150.0,2.0,0.0
1893,62.0,80.0,240.0,1.0,0.0
1894,68.0,160.0,150.0,2.0,0.0
1895,62.0,240.0,150.0,2.0,0.0
1896,59.0,80.0,240.0,1.0,0.0
1897,62.0,160.0,150.0,2.0,0.0
1898,59.0,240.0,150.0,2.0,0.0
1899,56.0,80.0,240.0,1.0,0.0
1900,59.0,160.0,150.0,2.0,0.0
1901,56.0,160.0,150.0,2.0,0.0
1902,52.0,160.0,150.0,1.0,0.0
1903,40.0,0.0,150.0,5.0,0.0
1904,56.0,0.0,150.0,1.0,0.0
1905,44.0,160.0,150.0,5.0,0.0
1906,59.0,0.0,150.0,1.0,0.0
1907,47.0,160.0,150.0,5.0,0.0
1908,62.0,0.0,150.0,1.0,0.0
1909,50.0,160.0,150.0,5.0,0.0
1910,59.0,160.0,150.0,1.0,0.0
1911,47.0,0.0,150.0,5.0,0.0
1912,56.0,160.0,150.0,1.0,0.0
1913,44.0,0.0,150.0,5.0,0.0
1914,40.0,0.0,150.0,5.0,0.0
1915,52.0,160.0,150.0,1.0,0.0
1916,44.0,160.0,150.0,5.0,0.0
1917,56.0,0.0,150.0,1.0,0.0
1918,47.0,0.0,150.0,5.0,0.0
1919,59.0,160.0,150.0,1.0,0.0
1920,62.0,160.0,150.0,1.0,0.0
1921,50.0,0.0,150.0,5.0,0.0
1922,59.0,160.0,150.0,1.0,0.0
1923,47.0,0.0,150.0,5.0,0.0
1924,44.0,160.0,150.0,5.0,0.0
1925,56.0,0.0,150.0,1.0,0.0
1926,40.0,0.0,150.0,5.0,0.0
1927,52.0,160.0,150.0,1.0,0.0
1928,44.0,160.0,150.0,5.0,0.0
1929,56.0,0.0,150.0,1.0,0.0
1930,47.0,0.0,150.0,5.0,0.0
1931,59.0,160.0,150.0,1.0,0.0
1932,64.0,160.0,150.0,1.0,0.0
1933,52.0,0.0,150.0,5.0,0.0
1934,56.0,0.0,150.0,5.0,0.0
1935,68.0,160.0,150.0,1.0,0.0
1936,59.0,160.0,150.0,5.0,0.0
1937,71.0,0.0,150.0,1.0,0.0
1938,62.0,160.0,150.0,5.0,0.0
1939,74.0,0.0,150.0,1.0,0.0
1940,71.0,160.0,150.0,1.0,0.0
1941,59.0,0.0,150.0,5.0,0.0
1942,56.0,0.0,150.0,5.0,0.0
1943,68.0,160.0,150.0,1.0,0.0
1944,64.0,160.0,150.0,1.0,0.0
1945,52.0,0.0,150.0,5.0,0.0
1946,68.0,0.0,150.0,1.0,0.0
1947,56.0,160.0,150.0,5.0,0.0
1948,59.0,0.0,150.0,5.0,0.0
1949,71.0,160.0,150.0,1.0,0.0
1950,64.0,0.0,150.0,1.0,0.0
1951,52.0,160.0,150.0,5.0,0.0
1952,56.0,0.0,150.0,5.0,0.0
1953,68.0,160.0,150.0,1.0,0.0
1954,71.0,0.0,150.0,1.0,0.0
1955,59.0,160.0,150.0,5.0,0.0
1956,76.0,160.0,150.0,1.0,0.0
1957,64.0,0.0,150.0,5.0,0.0
1958,68.0,0.0,150.0,5.0,0.0
1959,80.0,160.0,150.0,1.0,0.0
1960,71.0,160.0,150.0,5.0,0.0
1961,83.0,0.0,150.0,1.0,0.0
1962,86.0,160.0,150.0,1.0,0.0
1963,74.0,0.0,150.0,5.0,0.0
1964,71.0,160.0,150.0,5.0,0.0
1965,83.0,0.0,150.0,1.0,0.0
1966,80.0,160.0,150.0,1.0,0.0
1967,68.0,0.0,150.0,5.0,0.0
1968,64.0,0.0,150.0,5.0,0.0
1969,76.0,160.0,150.0,1.0,0.0
1970,68.0,160.0,150.0,5.0,0.0
1971,80.0,0.0,150.0,1.0,0.0
1972,83.0,0.0,150.0,1.0,0.0
1973,71.0,360.0,150.0,5.0,0.0
1974,86.0,0.0,360.0,1.0,0.0
1975,74.0,480.0,360.0,5.0,0.0
1976,71.0,0.0,360.0,2.0,0.0
1977,68.0,0.0,360.0,2.0,0.0
1978,74.0,840.0,360.0,1.0,0.0
1979,52.0,0.0,360.0,5.0,0.0
1980,76.0,446.0,240.0,1.0,0.0
1981,74.0,240.0,210.0,1.0,0.0
1982,73.0,240.0,210.0,1.0,0.0
1983,71.0,240.0,210.0,1.0,0.0
1984,69.0,240.0,210.0,1.0,0.0
1985,73.0,240.0,210.0,1.0,0.0
1986,71.0,240.0,210.0,1.0,0.0
1987,74.0,226.0,210.0,1.0,0.0
1988,68.0,288.0,180.0,1.0,0.0
1989,69.0,480.0,240.0,1.0,0.0
1990,64.0,960.0,240.0,1.0,0.0
1991,76.0,480.0,720.0,1.0,0.0
1992,74.0,240.0,240.0,1.0,0.0
1993,73.0,240.0,240.0,1.0,0.0
1994,71.0,240.0,240.0,1.0,0.0
1995,69.0,240.0,240.0,1.0,0.0
1996,73.0,240.0,240.0,1.0,0.0
1997,71.0,240.0,240.0,1.0,0.0
1998,74.0,192.0,240.0,1.0,0.0
1999,68.0,288.0,180.0,1.0,0.0
2000,61.0,240.0,240.0,3.0,0.0
2001,57.0,0.0,1860.0,5.0,0.0
2002,69.0,12.0,1860.0,1.0,0.0
2003,64.0,240.0,240.0,3.0,0.0
2004,61.0,240.0,240.0,3.0,0.0
2005,64.0,240.0,240.0,3.0,0.0
2006,61.0,240.0,240.0,3.0,0.0
2007,64.0,240.0,240.0,3.0,0.0
2008,61.0,180.0,240.0,3.0,0.0
2009,64.0,288.0,180.0,3.0,0.0
2010,57.0,12.0,1860.0,5.0,0.0
2011,62.0,240.0,240.0,3.0,0.0
2012,70.0,0.0,240.0,1.0,0.0
2013,71.0,0.0,240.0,1.0,0.0
2014,64.0,240.0,240.0,3.0,0.0
2015,73.0,0.0,240.0,1.0,0.0
2016,62.0,240.0,240.0,3.0,0.0
2017,74.0,0.0,240.0,1.0,0.0
2018,64.0,240.0,240.0,3.0,0.0
2019,76.0,0.0,240.0,1.0,0.0
2020,62.0,240.0,240.0,3.0,0.0
2021,64.0,0.0,240.0,3.0,0.0
2022,77.0,240.0,240.0,1.0,0.0
2023,62.0,0.0,240.0,3.0,0.0
2024,78.0,180.0,240.0,1.0,0.0
2025,64.0,0.0,180.0,3.0,0.0
2026,80.0,288.0,180.0,1.0,0.0
2027,61.0,240.0,240.0,3.0,0.0
2028,57.0,5.0,1860.0,5.0,0.0
2029,83.0,0.0,240.0,1.0,0.0
2030,81.0,0.0,240.0,1.0,0.0
2031,64.0,240.0,240.0,3.0,0.0
2032,61.0,192.0,240.0,3.0,0.0
2033,80.0,0.0,240.0,1.0,0.0
2034,78.0,48.0,180.0,1.0,0.0
2035,64.0,240.0,240.0,3.0,0.0
2036,61.0,0.0,240.0,3.0,0.0
2037,78.0,240.0,240.0,1.0,0.0
2038,64.0,240.0,240.0,3.0,0.0
2039,76.0,0.0,240.0,1.0,0.0
2040,74.0,0.0,240.0,1.0,0.0
2041,61.0,187.0,240.0,3.0,0.0
2042,64.0,288.0,180.0,3.0,0.0
2043,73.0,0.0,180.0,1.0,0.0
2044,68.0,765.0,1860.0,2.0,0.0
2045,57.0,0.0,1860.0,5.0,0.0
2046,71.0,150.0,330.0,1.0,0.0
2047,62.0,90.0,240.0,3.0,0.0
2048,64.0,0.0,240.0,3.0,0.0
2049,73.0,240.0,120.0,1.0,0.0
2050,62.0,0.0,240.0,3.0,0.0
2051,71.0,240.0,240.0,1.0,0.0
2052,64.0,0.0,240.0,3.0,0.0
2053,70.0,240.0,240.0,1.0,0.0
2054,71.0,240.0,480.0,1.0,0.0
2055,62.0,240.0,240.0,3.0,0.0
2056,64.0,0.0,240.0,3.0,0.0
2057,62.0,187.0,240.0,3.0,0.0
2058,76.0,5.0,420.0,1.0,0.0
2059,64.0,3.0,180.0,3.0,0.0
2060,69.0,0.0,720.0,1.0,0.0
2061,61.0,0.0,720.0,3.0,0.0
2062,57.0,960.0,720.0,5.0,0.0
2063,64.0,480.0,240.0,5.0,0.0
2064,62.0,240.0,240.0,5.0,0.0
2065,60.0,240.0,240.0,5.0,0.0
2066,59.0,240.0,240.0,5.0,0.0
2067,57.0,240.0,240.0,5.0,0.0
2068,60.0,240.0,240.0,5.0,0.0
2069,59.0,240.0,240.0,5.0,0.0
2070,62.0,192.0,240.0,5.0,0.0
2071,56.0,288.0,180.0,5.0,0.0
2072,57.0,480.0,240.0,5.0,0.0
2073,52.0,960.0,240.0,5.0,0.0
2074,84.0,0.0,720.0,1.0,0.0
2075,72.0,240.0,720.0,2.0,0.0
2076,64.0,240.0,480.0,5.0,0.0
2077,67.0,0.0,480.0,4.0,0.0
2078,82.0,120.0,240.0,1.0,0.0
2079,69.0,120.0,360.0,4.0,0.0
2080,65.0,0.0,360.0,5.0,0.0
2081,81.0,240.0,240.0,1.0,0.0
2082,79.0,240.0,240.0,1.0,0.0
2083,77.0,240.0,240.0,1.0,0.0
2084,81.0,240.0,240.0,1.0,0.0
2085,79.0,240.0,240.0,1.0,0.0
2086,72.0,360.0,840.0,4.0,0.0
2087,82.0,192.0,240.0,1.0,0.0
2088,70.0,240.0,480.0,5.0,0.0
2089,76.0,48.0,180.0,1.0,0.0
2090,77.0,120.0,240.0,1.0,0.0
2091,69.0,0.0,360.0,5.0,0.0
2092,72.0,960.0,240.0,1.0,0.0
2093,57.0,240.0,720.0,5.0,0.0
2094,85.0,0.0,480.0,1.0,0.0
2095,76.0,240.0,480.0,2.0,0.0
2096,55.0,120.0,240.0,5.0,0.0
2097,86.0,0.0,360.0,1.0,0.0
2098,77.0,120.0,360.0,2.0,0.0
2099,53.0,240.0,240.0,5.0,0.0
2100,52.0,240.0,240.0,5.0,0.0
2101,50.0,240.0,240.0,5.0,0.0
2102,53.0,240.0,240.0,5.0,0.0
2103,52.0,240.0,240.0,5.0,0.0
2104,88.0,240.0,480.0,1.0,0.0
2105,55.0,240.0,240.0,5.0,0.0
2106,81.0,240.0,960.0,2.0,0.0
2107,49.0,0.0,240.0,5.0,0.0
2108,52.0,240.0,240.0,5.0,0.0
2109,89.0,0.0,960.0,1.0,0.0
2110,50.0,0.0,240.0,5.0,0.0
2111,53.0,240.0,240.0,5.0,0.0
2112,86.0,233.0,960.0,2.0,0.0
2113,47.0,240.0,240.0,5.0,0.0
2114,50.0,240.0,240.0,5.0,0.0
2115,88.0,8.0,960.0,1.0,0.0
2116,48.0,7.0,240.0,5.0,0.0
2117,84.0,233.0,960.0,2.0,0.0
2118,52.0,232.0,240.0,5.0,0.0
2119,45.0,240.0,240.0,5.0,0.0
2120,86.0,218.0,1230.0,1.0,0.0
2121,48.0,240.0,240.0,5.0,0.0
2122,47.0,7.0,240.0,5.0,0.0
2123,50.0,240.0,240.0,5.0,0.0
2124,83.0,240.0,480.0,2.0,0.0
2125,44.0,0.0,240.0,5.0,0.0
2126,45.0,22.0,240.0,5.0,0.0
2127,84.0,240.0,240.0,1.0,0.0
2128,88.0,240.0,240.0,1.0,0.0
2129,60.0,240.0,480.0,5.0,0.0
2130,81.0,0.0,240.0,1.0,0.0
2131,84.0,240.0,240.0,1.0,0.0
2132,62.0,0.0,480.0,5.0,0.0
2133,82.0,240.0,240.0,1.0,0.0
2134,64.0,240.0,480.0,5.0,0.0
2135,86.0,240.0,240.0,1.0,0.0
2136,79.0,0.0,240.0,1.0,0.0
2137,82.0,120.0,240.0,1.0,0.0
2138,65.0,120.0,360.0,5.0,0.0
2139,81.0,240.0,240.0,1.0,0.0
2140,57.0,0.0,480.0,5.0,0.0
2141,84.0,240.0,240.0,1.0,0.0
2142,77.0,240.0,240.0,1.0,0.0
2143,59.0,240.0,480.0,5.0,0.0
2144,81.0,240.0,240.0,1.0,0.0
2145,79.0,0.0,240.0,1.0,0.0
2146,82.0,240.0,240.0,1.0,0.0
2147,61.0,0.0,480.0,5.0,0.0
2148,76.0,240.0,240.0,1.0,0.0
2149,79.0,120.0,240.0,1.0,0.0
2150,62.0,120.0,360.0,5.0,0.0
2151,77.0,240.0,240.0,1.0,0.0
2152,59.0,120.0,360.0,5.0,0.0
2153,67.0,0.0,840.0,4.0,0.0
2154,81.0,120.0,240.0,1.0,0.0
2155,74.0,240.0,240.0,1.0,0.0
2156,60.0,120.0,360.0,5.0,0.0
2157,77.0,120.0,240.0,1.0,0.0
2158,76.0,240.0,240.0,1.0,0.0
2159,65.0,120.0,840.0,4.0,0.0
2160,57.0,128.0,360.0,5.0,0.0
2161,79.0,112.0,240.0,1.0,0.0
2162,72.0,240.0,240.0,1.0,0.0
2163,59.0,0.0,360.0,5.0,0.0
2164,76.0,120.0,240.0,1.0,0.0
2165,74.0,240.0,240.0,1.0,0.0
2166,56.0,0.0,360.0,5.0,0.0
2167,77.0,120.0,240.0,1.0,0.0
2168,64.0,72.0,360.0,4.0,0.0
2169,71.0,288.0,180.0,1.0,0.0
2170,74.0,240.0,240.0,1.0,0.0
2171,57.0,240.0,960.0,5.0,0.0
2172,72.0,240.0,240.0,1.0,0.0
2173,71.0,120.0,240.0,1.0,0.0
2174,60.0,72.0,360.0,4.0,0.0
2175,64.0,0.0,360.0,4.0,0.0
2176,69.0,48.0,180.0,1.0,0.0
2177,74.0,240.0,240.0,1.0,0.0
2178,55.0,240.0,960.0,5.0,0.0
2179,72.0,240.0,240.0,1.0,0.0
2180,71.0,120.0,240.0,1.0,0.0
2181,57.0,0.0,360.0,4.0,0.0
2182,60.0,72.0,360.0,4.0,0.0
2183,69.0,48.0,180.0,1.0,0.0
2184,53.0,240.0,960.0,5.0,0.0
2185,74.0,240.0,240.0,1.0,0.0
2186,72.0,240.0,240.0,1.0,0.0
2187,71.0,120.0,240.0,1.0,0.0
2188,60.0,120.0,360.0,4.0,0.0
2189,57.0,0.0,360.0,4.0,0.0
2190,69.0,0.0,240.0,1.0,0.0
2191,74.0,240.0,240.0,1.0,0.0
2192,52.0,240.0,960.0,5.0,0.0
2193,72.0,240.0,240.0,1.0,0.0
2194,57.0,120.0,360.0,4.0,0.0
2195,60.0,0.0,360.0,4.0,0.0
2196,71.0,120.0,240.0,1.0,0.0
2197,69.0,0.0,240.0,1.0,0.0
2198,81.0,0.0,240.0,1.0,0.0
2199,57.0,0.0,240.0,4.0,0.0
2200,60.0,0.0,240.0,4.0,0.0
2201,51.0,960.0,240.0,5.0,0.0
2202,74.0,240.0,240.0,1.0,0.0
2203,72.0,240.0,240.0,1.0,0.0
2204,71.0,0.0,240.0,1.0,0.0
2205,52.0,0.0,240.0,5.0,0.0
2206,60.0,240.0,240.0,4.0,0.0
2207,57.0,0.0,240.0,4.0,0.0
2208,69.0,240.0,240.0,1.0,0.0
2209,57.0,0.0,240.0,4.0,0.0
2210,53.0,960.0,240.0,5.0,0.0
2211,63.0,0.0,240.0,4.0,0.0
2212,84.0,0.0,240.0,1.0,0.0
2213,75.0,0.0,240.0,1.0,0.0
2214,69.0,0.0,240.0,2.0,0.0
2215,53.0,960.0,240.0,5.0,0.0
2216,41.0,0.0,240.0,5.0,0.0
2217,52.0,0.0,240.0,5.0,0.0
2218,40.0,0.0,240.0,5.0,0.0
2219,68.0,0.0,240.0,2.0,0.0
2220,76.0,1848.0,240.0,1.0,0.0
2221,76.0,152.0,1140.0,1.0,0.0
2222,78.0,160.0,150.0,1.0,0.0
2223,76.0,160.0,150.0,1.0,0.0
2224,74.0,160.0,150.0,1.0,0.0
2225,76.0,160.0,150.0,1.0,0.0
2226,74.0,160.0,150.0,1.0,0.0
2227,73.0,160.0,150.0,1.0,0.0
2228,74.0,160.0,150.0,1.0,0.0
2229,73.0,160.0,150.0,1.0,0.0
2230,71.0,160.0,150.0,1.0,0.0
2231,73.0,160.0,150.0,1.0,0.0
2232,71.0,240.0,150.0,1.0,0.0
2233,61.0,120.0,360.0,5.0,0.0
2234,69.0,120.0,240.0,1.0,0.0
2235,64.0,80.0,240.0,3.0,0.0
2236,62.0,120.0,360.0,5.0,0.0
2237,68.0,80.0,90.0,1.0,0.0
2238,69.0,80.0,90.0,1.0,0.0
2239,68.0,120.0,90.0,1.0,0.0
2240,64.0,240.0,240.0,3.0,0.0
2241,66.0,0.0,120.0,1.0,0.0
2242,68.0,0.0,120.0,1.0,0.0
2243,69.0,120.0,240.0,1.0,0.0
2244,61.0,120.0,360.0,5.0,0.0
2245,64.0,80.0,240.0,3.0,0.0
2246,71.0,80.0,90.0,1.0,0.0
2247,56.0,0.0,360.0,5.0,0.0
2248,73.0,80.0,90.0,1.0,0.0
2249,71.0,120.0,90.0,1.0,0.0
2250,69.0,120.0,120.0,1.0,0.0
2251,64.0,240.0,240.0,3.0,0.0
2252,71.0,0.0,120.0,1.0,0.0
2253,57.0,120.0,360.0,5.0,0.0
2254,73.0,120.0,240.0,1.0,0.0
2255,64.0,80.0,240.0,3.0,0.0
2256,54.0,0.0,360.0,5.0,0.0
2257,74.0,80.0,90.0,1.0,0.0
2258,76.0,80.0,90.0,1.0,0.0
2259,74.0,120.0,90.0,1.0,0.0
2260,57.0,0.0,240.0,3.0,0.0
2261,73.0,120.0,120.0,1.0,0.0
2262,74.0,240.0,120.0,1.0,0.0
2263,49.0,120.0,360.0,5.0,0.0
2264,76.0,120.0,240.0,1.0,0.0
2265,57.0,240.0,240.0,3.0,0.0
2266,78.0,120.0,240.0,1.0,0.0
2267,50.0,120.0,360.0,5.0,0.0
2268,62.0,480.0,240.0,3.0,0.0
2269,61.0,0.0,480.0,3.0,0.0
2270,52.0,1080.0,840.0,5.0,0.0
2271,69.0,240.0,480.0,1.0,0.0
2272,68.0,120.0,240.0,1.0,0.0
2273,59.0,0.0,360.0,3.0,0.0
2274,78.0,95.0,1110.0,1.0,0.0
2275,58.0,145.0,480.0,4.0,0.0
2276,54.0,0.0,480.0,5.0,0.0
2277,56.0,0.0,240.0,5.0,0.0
2278,59.0,80.0,240.0,4.0,0.0
2279,79.0,160.0,150.0,1.0,0.0
2280,78.0,160.0,150.0,1.0,0.0
2281,58.0,0.0,240.0,5.0,0.0
2282,61.0,80.0,240.0,4.0,0.0
2283,76.0,80.0,150.0,1.0,0.0
2284,78.0,160.0,150.0,1.0,0.0
2285,76.0,160.0,150.0,1.0,0.0
2286,59.0,80.0,240.0,5.0,0.0
2287,62.0,0.0,240.0,4.0,0.0
2288,74.0,80.0,150.0,1.0,0.0
2289,76.0,160.0,150.0,1.0,0.0
2290,74.0,160.0,150.0,1.0,0.0
2291,61.0,80.0,240.0,5.0,0.0
2292,64.0,0.0,240.0,4.0,0.0
2293,73.0,80.0,150.0,1.0,0.0
2294,74.0,160.0,150.0,1.0,0.0
2295,73.0,240.0,150.0,1.0,0.0
2296,62.0,480.0,240.0,5.0,0.0
2297,66.0,0.0,240.0,4.0,0.0
2298,71.0,0.0,240.0,1.0,0.0
2299,83.0,480.0,240.0,1.0,0.0
2300,66.0,320.0,240.0,5.0,0.0
2301,50.0,0.0,480.0,5.0,0.0
2302,52.0,0.0,960.0,4.0,0.0
2303,80.0,80.0,90.0,1.0,0.0
2304,81.0,80.0,90.0,1.0,0.0
2305,80.0,120.0,90.0,1.0,0.0
2306,78.0,120.0,120.0,1.0,0.0
2307,80.0,240.0,120.0,1.0,0.0
2308,49.0,80.0,480.0,5.0,0.0
2309,81.0,240.0,240.0,1.0,0.0
2310,69.0,80.0,90.0,1.0,0.0
2311,51.0,480.0,480.0,5.0,0.0
2312,54.0,0.0,480.0,4.0,0.0
2313,71.0,80.0,90.0,1.0,0.0
2314,69.0,120.0,90.0,1.0,0.0
2315,68.0,120.0,120.0,1.0,0.0
2316,69.0,0.0,120.0,1.0,0.0
2317,73.0,480.0,480.0,1.0,0.0
2318,52.0,0.0,960.0,5.0,0.0
2319,57.0,0.0,480.0,4.0,0.0
2320,56.0,240.0,480.0,4.0,0.0
2321,71.0,0.0,480.0,1.0,0.0
2322,57.0,480.0,240.0,5.0,0.0
2323,69.0,0.0,240.0,1.0,0.0
2324,45.0,960.0,240.0,5.0,0.0
2325,64.0,160.0,1110.0,5.0,0.0
2326,76.0,400.0,240.0,1.0,0.0
2327,88.0,0.0,1110.0,1.0,0.0
2328,66.0,160.0,150.0,5.0,0.0
2329,64.0,160.0,150.0,5.0,0.0
2330,62.0,160.0,150.0,5.0,0.0
2331,64.0,160.0,150.0,5.0,0.0
2332,62.0,160.0,150.0,5.0,0.0
2333,61.0,160.0,150.0,5.0,0.0
2334,62.0,160.0,150.0,5.0,0.0
2335,90.0,0.0,150.0,1.0,0.0
2336,61.0,160.0,150.0,5.0,0.0
2337,88.0,0.0,150.0,1.0,0.0
2338,86.0,0.0,150.0,1.0,0.0
2339,59.0,160.0,150.0,5.0,0.0
2340,88.0,160.0,150.0,1.0,0.0
2341,61.0,0.0,150.0,5.0,0.0
2342,59.0,0.0,150.0,5.0,0.0
2343,86.0,160.0,150.0,1.0,0.0
2344,85.0,80.0,150.0,1.0,0.0
2345,57.0,80.0,240.0,5.0,0.0
2346,86.0,160.0,150.0,1.0,0.0
2347,85.0,80.0,150.0,1.0,0.0
2348,83.0,0.0,150.0,1.0,0.0
2349,59.0,80.0,90.0,5.0,0.0
2350,61.0,80.0,90.0,5.0,0.0
2351,81.0,40.0,150.0,1.0,0.0
2352,59.0,80.0,90.0,5.0,0.0
2353,57.0,120.0,120.0,5.0,0.0
2354,80.0,160.0,150.0,1.0,0.0
2355,59.0,0.0,120.0,5.0,0.0
2356,61.0,80.0,240.0,5.0,0.0
2357,81.0,80.0,150.0,1.0,0.0
2358,83.0,160.0,150.0,1.0,0.0
2359,81.0,160.0,150.0,1.0,0.0
2360,49.0,80.0,240.0,5.0,0.0
2361,79.0,80.0,150.0,1.0,0.0
2362,78.0,128.0,150.0,1.0,0.0
2363,77.0,192.0,120.0,1.0,0.0
2364,78.0,160.0,150.0,1.0,0.0
2365,50.0,120.0,360.0,5.0,0.0
2366,83.0,40.0,150.0,1.0,0.0
2367,82.0,160.0,150.0,1.0,0.0
2368,83.0,160.0,150.0,1.0,0.0
2369,86.0,160.0,150.0,1.0,0.0
2370,85.0,160.0,150.0,1.0,0.0
2371,86.0,160.0,150.0,1.0,0.0
2372,90.0,160.0,150.0,1.0,0.0
2373,89.0,160.0,150.0,1.0,0.0
2374,62.0,240.0,480.0,5.0,0.0
2375,90.0,160.0,150.0,1.0,0.0
2376,86.0,128.0,150.0,1.0,0.0
2377,83.0,32.0,120.0,1.0,0.0
2378,81.0,240.0,480.0,1.0,0.0
2379,64.0,240.0,240.0,5.0,0.0
2380,52.0,120.0,240.0,5.0,0.0
2381,80.0,840.0,360.0,1.0,0.0
2382,66.0,160.0,1110.0,5.0,0.0
2383,69.0,400.0,240.0,1.0,0.0
2384,81.0,0.0,480.0,1.0,0.0
2385,67.0,160.0,150.0,5.0,0.0
2386,66.0,160.0,150.0,5.0,0.0
2387,79.0,160.0,480.0,2.0,0.0
2388,82.0,0.0,480.0,1.0,0.0
2389,64.0,160.0,150.0,5.0,0.0
2390,66.0,160.0,150.0,5.0,0.0
2391,64.0,0.0,150.0,5.0,0.0
2392,62.0,160.0,150.0,5.0,0.0
2393,78.0,0.0,480.0,2.0,0.0
2394,83.0,0.0,480.0,1.0,0.0
2395,64.0,160.0,150.0,5.0,0.0
2396,62.0,160.0,150.0,5.0,0.0
2397,85.0,0.0,360.0,1.0,0.0
2398,82.0,120.0,360.0,2.0,0.0
2399,61.0,160.0,150.0,5.0,0.0
2400,62.0,40.0,150.0,5.0,0.0
2401,61.0,160.0,150.0,5.0,0.0
2402,59.0,80.0,240.0,5.0,0.0
2403,86.0,80.0,150.0,1.0,0.0
2404,85.0,160.0,150.0,1.0,0.0
2405,86.0,80.0,150.0,1.0,0.0
2406,57.0,80.0,90.0,5.0,0.0
2407,87.0,80.0,150.0,1.0,0.0
2408,59.0,0.0,90.0,5.0,0.0
2409,85.0,40.0,150.0,1.0,0.0
2410,57.0,80.0,90.0,5.0,0.0
2411,56.0,120.0,120.0,5.0,0.0
2412,87.0,0.0,150.0,1.0,0.0
2413,57.0,160.0,120.0,5.0,0.0
2414,88.0,80.0,150.0,1.0,0.0
2415,56.0,80.0,240.0,5.0,0.0
2416,87.0,160.0,150.0,1.0,0.0
2417,88.0,80.0,150.0,1.0,0.0
2418,92.0,80.0,150.0,1.0,0.0
2419,62.0,80.0,90.0,5.0,0.0
2420,64.0,0.0,90.0,5.0,0.0
2421,62.0,80.0,90.0,5.0,0.0
2422,90.0,40.0,150.0,1.0,0.0
2423,61.0,120.0,120.0,5.0,0.0
2424,92.0,240.0,150.0,1.0,0.0
2425,62.0,0.0,120.0,5.0,0.0
2426,61.0,120.0,360.0,5.0,0.0
2427,93.0,80.0,240.0,1.0,0.0
2428,88.0,40.0,150.0,2.0,0.0
2429,85.0,240.0,150.0,2.0,0.0
2430,90.0,80.0,240.0,1.0,0.0
2431,62.0,120.0,360.0,5.0,0.0
2432,86.0,40.0,150.0,2.0,0.0
2433,83.0,240.0,150.0,2.0,0.0
2434,88.0,80.0,240.0,1.0,0.0
2435,64.0,120.0,360.0,5.0,0.0
2436,85.0,40.0,150.0,2.0,0.0
2437,81.0,240.0,150.0,2.0,0.0
2438,52.0,120.0,360.0,5.0,0.0
2439,86.0,80.0,240.0,1.0,0.0
2440,83.0,40.0,150.0,2.0,0.0
2441,80.0,240.0,150.0,2.0,0.0
2442,57.0,400.0,240.0,5.0,0.0
2443,81.0,0.0,240.0,1.0,0.0
2444,85.0,160.0,150.0,1.0,0.0
2445,83.0,160.0,150.0,1.0,0.0
2446,81.0,160.0,150.0,1.0,0.0
2447,80.0,160.0,150.0,1.0,0.0
2448,78.0,160.0,150.0,1.0,0.0
2449,76.0,160.0,150.0,1.0,0.0
2450,75.0,160.0,150.0,1.0,0.0
2451,69.0,240.0,480.0,5.0,0.0
2452,72.0,0.0,480.0,4.0,0.0
2453,78.0,160.0,150.0,1.0,0.0
2454,75.0,0.0,150.0,1.0,0.0
2455,71.0,240.0,480.0,4.0,0.0
2456,68.0,0.0,480.0,5.0,0.0
2457,78.0,80.0,240.0,1.0,0.0
2458,76.0,160.0,150.0,2.0,0.0
2459,73.0,0.0,150.0,2.0,0.0
2460,66.0,0.0,480.0,5.0,0.0
2461,69.0,0.0,480.0,4.0,0.0
2462,76.0,80.0,240.0,1.0,0.0
2463,74.0,160.0,150.0,2.0,0.0
2464,71.0,240.0,150.0,2.0,0.0
2465,68.0,0.0,480.0,4.0,0.0
2466,64.0,240.0,480.0,5.0,0.0
2467,74.0,80.0,240.0,1.0,0.0
2468,73.0,160.0,150.0,2.0,0.0
2469,69.0,0.0,150.0,2.0,0.0
2470,62.0,360.0,480.0,5.0,0.0
2471,66.0,0.0,480.0,4.0,0.0
2472,73.0,80.0,240.0,1.0,0.0
2473,71.0,160.0,150.0,2.0,0.0
2474,68.0,0.0,150.0,2.0,0.0
2475,64.0,0.0,360.0,4.0,0.0
2476,69.0,0.0,360.0,1.0,0.0
2477,61.0,280.0,360.0,5.0,0.0
2478,72.0,160.0,150.0,5.0,0.0
2479,71.0,160.0,150.0,5.0,0.0
2480,69.0,160.0,150.0,5.0,0.0
2481,67.0,160.0,150.0,5.0,0.0
2482,65.0,160.0,150.0,5.0,0.0
2483,64.0,160.0,150.0,5.0,0.0
2484,63.0,160.0,150.0,5.0,0.0
2485,72.0,120.0,360.0,2.0,0.0
2486,81.0,160.0,960.0,1.0,0.0
2487,66.0,40.0,150.0,5.0,0.0
2488,63.0,160.0,150.0,5.0,0.0
2489,66.0,160.0,150.0,5.0,0.0
2490,71.0,113.0,840.0,2.0,0.0
2491,64.0,160.0,150.0,5.0,0.0
2492,61.0,0.0,150.0,5.0,0.0
2493,80.0,7.0,360.0,1.0,0.0
2494,64.0,160.0,150.0,5.0,0.0
2495,62.0,40.0,150.0,5.0,0.0
2496,59.0,160.0,150.0,5.0,0.0
2497,62.0,160.0,150.0,5.0,0.0
2498,76.0,8.0,840.0,2.0,0.0
2499,81.0,120.0,360.0,1.0,0.0
2500,61.0,40.0,150.0,5.0,0.0
2501,57.0,160.0,150.0,5.0,0.0
2502,74.0,0.0,360.0,2.0,0.0
2503,83.0,120.0,360.0,1.0,0.0
2504,61.0,160.0,150.0,5.0,0.0
2505,59.0,32.0,150.0,5.0,0.0
2506,56.0,360.0,150.0,5.0,0.0
2507,85.0,0.0,360.0,1.0,0.0
2508,57.0,0.0,360.0,5.0,0.0
2509,73.0,0.0,360.0,2.0,0.0
2510,76.0,280.0,360.0,2.0,0.0
2511,88.0,160.0,150.0,1.0,0.0
2512,86.0,160.0,150.0,1.0,0.0
2513,85.0,160.0,150.0,1.0,0.0
2514,83.0,160.0,150.0,1.0,0.0
2515,81.0,160.0,150.0,1.0,0.0
2516,80.0,160.0,150.0,1.0,0.0
2517,61.0,315.0,480.0,5.0,0.0
2518,69.0,45.0,780.0,4.0,0.0
2519,81.0,160.0,150.0,1.0,0.0
2520,79.0,160.0,150.0,1.0,0.0
2521,77.0,0.0,150.0,1.0,0.0
2522,78.0,0.0,360.0,1.0,0.0
2523,62.0,280.0,360.0,5.0,0.0
2524,78.0,160.0,150.0,5.0,0.0
2525,76.0,160.0,150.0,5.0,0.0
2526,74.0,160.0,150.0,5.0,0.0
2527,73.0,160.0,150.0,5.0,0.0
2528,71.0,160.0,150.0,5.0,0.0
2529,70.0,160.0,150.0,5.0,0.0
2530,71.0,160.0,150.0,5.0,0.0
2531,87.0,0.0,360.0,1.0,0.0
2532,83.0,120.0,360.0,2.0,0.0
2533,69.0,40.0,150.0,5.0,0.0
2534,67.0,360.0,150.0,5.0,0.0
2535,68.0,0.0,360.0,5.0,0.0
2536,88.0,0.0,360.0,1.0,0.0
2537,83.0,280.0,360.0,2.0,0.0
2538,64.0,160.0,150.0,1.0,0.0
2539,68.0,160.0,150.0,1.0,0.0
2540,71.0,160.0,150.0,1.0,0.0
2541,76.0,160.0,150.0,1.0,0.0
2542,80.0,160.0,150.0,1.0,0.0
2543,83.0,160.0,150.0,1.0,0.0
2544,59.0,0.0,360.0,4.0,0.0
2545,81.0,160.0,150.0,1.0,0.0
2546,57.0,88.0,360.0,5.0,0.0
2547,78.0,40.0,150.0,1.0,0.0
2548,75.0,272.0,120.0,1.0,0.0
2549,59.0,0.0,360.0,4.0,0.0
2550,76.0,120.0,240.0,1.0,0.0
2551,56.0,280.0,360.0,5.0,0.0
2552,64.0,160.0,150.0,1.0,0.0
2553,68.0,160.0,150.0,1.0,0.0
2554,71.0,160.0,150.0,1.0,0.0
2555,76.0,160.0,150.0,1.0,0.0
2556,80.0,160.0,150.0,1.0,0.0
2557,83.0,160.0,150.0,1.0,0.0
2558,57.0,88.0,360.0,4.0,0.0
2559,59.0,0.0,360.0,4.0,0.0
2560,81.0,160.0,150.0,1.0,0.0
2561,54.0,0.0,360.0,5.0,0.0
2562,78.0,40.0,150.0,1.0,0.0
2563,75.0,192.0,120.0,1.0,0.0
2564,59.0,0.0,840.0,4.0,0.0
2565,56.0,120.0,360.0,4.0,0.0
2566,76.0,160.0,150.0,1.0,0.0
2567,52.0,0.0,360.0,5.0,0.0
2568,80.0,40.0,150.0,1.0,0.0
2569,83.0,160.0,150.0,1.0,0.0
2570,57.0,88.0,360.0,4.0,0.0
2571,81.0,160.0,150.0,1.0,0.0
2572,54.0,0.0,360.0,5.0,0.0
2573,78.0,40.0,150.0,1.0,0.0
2574,75.0,154.0,120.0,1.0,0.0
2575,59.0,38.0,120.0,1.0,0.0
2576,76.0,160.0,150.0,1.0,0.0
2577,52.0,120.0,360.0,5.0,0.0
2578,56.0,0.0,360.0,4.0,0.0
2579,80.0,40.0,150.0,1.0,0.0
2580,83.0,160.0,150.0,1.0,0.0
2581,54.0,88.0,360.0,5.0,0.0
2582,57.0,0.0,360.0,4.0,0.0
2583,81.0,160.0,150.0,1.0,0.0
2584,78.0,40.0,150.0,1.0,0.0
2585,75.0,392.0,120.0,1.0,0.0
2586,76.0,0.0,360.0,1.0,0.0
2587,52.0,0.0,360.0,5.0,0.0
2588,56.0,360.0,360.0,4.0,0.0
2589,59.0,0.0,360.0,4.0,0.0
2590,40.0,480.0,240.0,5.0,0.0
2591,42.0,480.0,240.0,5.0,0.0
2592,44.0,480.0,240.0,5.0,0.0
2593,45.0,480.0,240.0,5.0,0.0
2594,49.0,480.0,240.0,5.0,0.0
2595,50.0,480.0,240.0,5.0,0.0
2596,53.0,480.0,240.0,5.0,0.0
2597,54.0,240.0,240.0,5.0,0.0
2598,57.0,240.0,240.0,5.0,0.0
2599,56.0,240.0,240.0,5.0,0.0
2600,54.0,240.0,240.0,5.0,0.0
2601,56.0,240.0,240.0,5.0,0.0
2602,57.0,240.0,240.0,5.0,0.0
2603,54.0,192.0,240.0,5.0,0.0
2604,56.0,288.0,180.0,5.0,0.0
2605,57.0,480.0,240.0,5.0,0.0
2606,54.0,480.0,240.0,5.0,0.0
2607,49.0,320.0,240.0,5.0,0.0
2608,51.0,80.0,90.0,5.0,0.0
2609,52.0,80.0,90.0,5.0,0.0
2610,51.0,120.0,90.0,5.0,0.0
2611,49.0,96.0,120.0,5.0,0.0
2612,51.0,744.0,90.0,5.0,0.0
2613,52.0,60.0,3780.0,5.0,0.0
2614,61.0,240.0,480.0,4.0,0.0
2615,64.0,240.0,240.0,1.0,0.0
2616,66.0,240.0,240.0,1.0,0.0
2617,62.0,240.0,480.0,4.0,0.0
2618,59.0,240.0,480.0,4.0,0.0
2619,68.0,240.0,240.0,1.0,0.0
2620,69.0,240.0,240.0,1.0,0.0
2621,61.0,240.0,480.0,4.0,0.0
2622,58.0,240.0,480.0,4.0,0.0
2623,73.0,240.0,240.0,1.0,0.0
2624,74.0,240.0,240.0,1.0,0.0
2625,59.0,240.0,480.0,4.0,0.0
2626,77.0,180.0,240.0,1.0,0.0
2627,61.0,240.0,480.0,4.0,0.0
2628,52.0,30.0,3810.0,5.0,0.0
2629,78.0,240.0,240.0,1.0,0.0
2630,62.0,278.0,1890.0,4.0,0.0
2631,81.0,240.0,240.0,1.0,0.0
2632,80.0,240.0,240.0,1.0,0.0
2633,78.0,240.0,240.0,1.0,0.0
2634,80.0,240.0,240.0,1.0,0.0
2635,81.0,240.0,240.0,1.0,0.0
2636,78.0,192.0,240.0,1.0,0.0
2637,80.0,10.0,180.0,1.0,0.0
2638,81.0,0.0,240.0,1.0,0.0
2639,61.0,240.0,240.0,4.0,0.0
2640,59.0,240.0,240.0,4.0,0.0
2641,78.0,240.0,240.0,1.0,0.0
2642,57.0,0.0,240.0,4.0,0.0
2643,56.0,240.0,240.0,4.0,0.0
2644,73.0,0.0,240.0,1.0,0.0
2645,57.0,240.0,240.0,4.0,0.0
2646,54.0,80.0,240.0,4.0,0.0
2647,59.0,120.0,240.0,4.0,0.0
2648,75.0,80.0,90.0,1.0,0.0
2649,76.0,80.0,90.0,1.0,0.0
2650,75.0,0.0,90.0,1.0,0.0
2651,57.0,18.0,180.0,4.0,0.0
2652,73.0,72.0,120.0,1.0,0.0
2653,75.0,360.0,120.0,1.0,0.0
2654,56.0,360.0,360.0,4.0,0.0
2655,76.0,0.0,360.0,1.0,0.0
2656,52.0,0.0,360.0,5.0,0.0
2657,40.0,480.0,240.0,5.0,0.0
2658,76.0,434.0,780.0,1.0,0.0
2659,42.0,480.0,240.0,5.0,0.0
2660,44.0,46.0,240.0,5.0,0.0
2661,45.0,0.0,240.0,5.0,0.0
2662,74.0,240.0,240.0,1.0,0.0
2663,73.0,240.0,240.0,1.0,0.0
2664,71.0,0.0,240.0,1.0,0.0
2665,49.0,240.0,240.0,5.0,0.0
2666,69.0,240.0,240.0,1.0,0.0
2667,73.0,0.0,240.0,1.0,0.0
2668,50.0,240.0,240.0,5.0,0.0
2669,71.0,240.0,240.0,1.0,0.0
2670,53.0,0.0,240.0,5.0,0.0
2671,74.0,192.0,240.0,1.0,0.0
2672,68.0,288.0,180.0,1.0,0.0
2673,69.0,240.0,240.0,1.0,0.0
2674,54.0,0.0,240.0,5.0,0.0
2675,57.0,240.0,240.0,5.0,0.0
2676,64.0,240.0,240.0,1.0,0.0
2677,56.0,0.0,240.0,5.0,0.0
2678,54.0,240.0,240.0,5.0,0.0
2679,88.0,192.0,720.0,1.0,0.0
2680,56.0,240.0,240.0,5.0,0.0
2681,57.0,240.0,240.0,5.0,0.0
2682,54.0,0.0,240.0,5.0,0.0
2683,56.0,288.0,180.0,5.0,0.0
2684,57.0,0.0,240.0,5.0,0.0
2685,86.0,240.0,240.0,1.0,0.0
2686,85.0,240.0,240.0,1.0,0.0
2687,83.0,0.0,240.0,1.0,0.0
2688,61.0,240.0,240.0,5.0,0.0
2689,81.0,240.0,240.0,1.0,0.0
2690,85.0,240.0,240.0,1.0,0.0
2691,62.0,0.0,240.0,5.0,0.0
2692,83.0,240.0,240.0,1.0,0.0
2693,86.0,0.0,240.0,1.0,0.0
2694,65.0,192.0,240.0,5.0,0.0
2695,80.0,288.0,180.0,1.0,0.0
2696,66.0,240.0,240.0,5.0,0.0
2697,81.0,0.0,240.0,1.0,0.0
2698,69.0,240.0,240.0,5.0,0.0
2699,76.0,0.0,240.0,1.0,0.0
2700,68.0,240.0,240.0,5.0,0.0
2701,66.0,240.0,240.0,5.0,0.0
2702,68.0,240.0,240.0,5.0,0.0
2703,88.0,192.0,720.0,1.0,0.0
2704,69.0,240.0,240.0,5.0,0.0
2705,66.0,0.0,240.0,5.0,0.0
2706,68.0,288.0,180.0,5.0,0.0
2707,69.0,240.0,240.0,5.0,0.0
2708,86.0,0.0,240.0,1.0,0.0
2709,85.0,240.0,240.0,1.0,0.0
2710,83.0,0.0,240.0,1.0,0.0
2711,66.0,192.0,240.0,5.0,0.0
2712,81.0,288.0,180.0,1.0,0.0
2713,61.0,480.0,240.0,5.0,0.0
2714,90.0,276.0,1080.0,1.0,0.0
2715,63.0,360.0,240.0,5.0,0.0
2716,64.0,23.0,3480.0,5.0,0.0
2717,91.0,480.0,150.0,1.0,0.0
2718,92.0,269.0,600.0,1.0,0.0
2719,73.0,211.0,150.0,4.0,0.0
2720,74.0,276.0,600.0,4.0,0.0
2721,89.0,204.0,150.0,1.0,0.0
2722,90.0,276.0,600.0,1.0,0.0
2723,72.0,204.0,150.0,4.0,0.0
2724,73.0,269.0,600.0,4.0,0.0
2725,87.0,211.0,150.0,1.0,0.0
2726,88.0,269.0,600.0,1.0,0.0
2727,70.0,211.0,150.0,4.0,0.0
2728,71.0,21.0,600.0,4.0,0.0
2729,85.0,196.0,150.0,1.0,0.0
2730,86.0,240.0,150.0,1.0,0.0
2731,86.0,0.0,150.0,1.0,0.0
2732,65.0,324.0,150.0,4.0,0.0
2733,71.0,480.0,2880.0,4.0,0.0
2734,66.0,149.0,3840.0,5.0,0.0
2735,86.0,80.0,240.0,1.0,0.0
2736,88.0,80.0,90.0,1.0,0.0
2737,86.0,80.0,90.0,1.0,0.0
2738,85.0,240.0,90.0,1.0,0.0
2739,86.0,240.0,240.0,1.0,0.0
2740,88.0,480.0,240.0,1.0,0.0
2741,90.0,240.0,480.0,1.0,0.0
2742,88.0,240.0,240.0,1.0,0.0
2743,86.0,156.0,240.0,1.0,0.0
2744,85.0,804.0,150.0,1.0,0.0
2745,91.0,240.0,960.0,1.0,0.0
2746,70.0,7.0,960.0,4.0,0.0
2747,90.0,240.0,240.0,1.0,0.0
2748,88.0,0.0,240.0,1.0,0.0
2749,86.0,204.0,150.0,1.0,0.0
2750,71.0,120.0,360.0,4.0,0.0
2751,91.0,240.0,240.0,1.0,0.0
2752,90.0,240.0,240.0,1.0,0.0
2753,89.0,240.0,240.0,1.0,0.0
2754,90.0,240.0,240.0,1.0,0.0
2755,85.0,240.0,240.0,1.0,0.0
2756,78.0,120.0,840.0,4.0,0.0
2757,70.0,240.0,480.0,5.0,0.0
2758,90.0,240.0,240.0,1.0,0.0
2759,88.0,0.0,240.0,1.0,0.0
2760,86.0,120.0,240.0,1.0,0.0
2761,71.0,0.0,360.0,5.0,0.0
2762,90.0,240.0,240.0,1.0,0.0
2763,88.0,240.0,240.0,1.0,0.0
2764,87.0,240.0,240.0,1.0,0.0
2765,88.0,240.0,240.0,1.0,0.0
2766,83.0,240.0,240.0,1.0,0.0
2767,88.0,240.0,240.0,1.0,0.0
2768,68.0,240.0,480.0,5.0,0.0
2769,76.0,300.0,1380.0,4.0,0.0
2770,86.0,240.0,480.0,1.0,0.0
2771,69.0,8.0,900.0,5.0,0.0
2772,84.0,240.0,240.0,1.0,0.0
2773,86.0,172.0,240.0,1.0,0.0
2774,85.0,240.0,480.0,1.0,0.0
2775,62.0,8.0,900.0,5.0,0.0
2776,74.0,285.0,900.0,4.0,0.0
2777,78.0,240.0,240.0,1.0,0.0
2778,85.0,187.0,240.0,1.0,0.0
2779,83.0,240.0,480.0,1.0,0.0
2780,73.0,240.0,960.0,4.0,0.0
2781,64.0,15.0,1860.0,5.0,0.0
2782,76.0,240.0,240.0,1.0,0.0
2783,83.0,240.0,240.0,1.0,0.0
2784,81.0,240.0,480.0,1.0,0.0
2785,71.0,285.0,900.0,4.0,0.0
2786,74.0,240.0,240.0,1.0,0.0
2787,81.0,180.0,240.0,1.0,0.0
2788,80.0,240.0,480.0,1.0,0.0
2789,70.0,300.0,900.0,4.0,0.0
2790,64.0,8.0,900.0,5.0,0.0
2791,73.0,240.0,240.0,1.0,0.0
2792,81.0,172.0,240.0,1.0,0.0
2793,79.0,240.0,480.0,1.0,0.0
2794,63.0,293.0,900.0,5.0,0.0
2795,69.0,0.0,900.0,4.0,0.0
2796,72.0,240.0,240.0,1.0,0.0
2797,79.0,187.0,240.0,1.0,0.0
2798,78.0,240.0,480.0,1.0,0.0
2799,68.0,300.0,900.0,4.0,0.0
2800,62.0,0.0,900.0,5.0,0.0
2801,71.0,240.0,240.0,1.0,0.0
2802,79.0,180.0,240.0,1.0,0.0
2803,77.0,240.0,480.0,1.0,0.0
2804,67.0,0.0,900.0,4.0,0.0
2805,61.0,300.0,900.0,5.0,0.0
2806,70.0,240.0,240.0,1.0,0.0
2807,77.0,180.0,240.0,1.0,0.0
2808,76.0,240.0,480.0,1.0,0.0
2809,62.0,293.0,900.0,5.0,0.0
2810,66.0,7.0,900.0,4.0,0.0
2811,71.0,240.0,240.0,1.0,0.0
2812,76.0,180.0,240.0,1.0,0.0
2813,74.0,240.0,480.0,1.0,0.0
2814,62.0,293.0,900.0,4.0,0.0
2815,50.0,7.0,900.0,5.0,0.0
2816,66.0,240.0,240.0,1.0,0.0
2817,73.0,180.0,240.0,1.0,0.0
2818,71.0,240.0,480.0,1.0,0.0
2819,61.0,240.0,960.0,4.0,0.0
2820,52.0,5.0,1860.0,5.0,0.0
2821,64.0,240.0,240.0,1.0,0.0
2822,71.0,240.0,240.0,1.0,0.0
2823,69.0,240.0,480.0,1.0,0.0
2824,59.0,0.0,900.0,4.0,0.0
2825,62.0,240.0,240.0,1.0,0.0
2826,69.0,187.0,240.0,1.0,0.0
2827,68.0,312.0,180.0,1.0,0.0
2828,54.0,15.0,1200.0,5.0,0.0
2829,63.0,15.0,1200.0,4.0,0.0
2830,57.0,9.0,1200.0,4.0,0.0
2831,69.0,160.0,90.0,1.0,0.0
2832,71.0,160.0,90.0,1.0,0.0
2833,73.0,160.0,90.0,1.0,0.0
2834,75.0,160.0,90.0,1.0,0.0
2835,76.0,160.0,90.0,1.0,0.0
2836,78.0,121.0,90.0,1.0,0.0
2837,80.0,160.0,90.0,1.0,0.0
2838,81.0,160.0,90.0,1.0,0.0
2839,54.0,0.0,240.0,5.0,0.0
2840,83.0,136.0,90.0,1.0,0.0
2841,63.0,24.0,240.0,4.0,0.0
2842,57.0,0.0,240.0,4.0,0.0
2843,85.0,160.0,90.0,1.0,0.0
2844,81.0,376.0,90.0,1.0,0.0
2845,64.0,0.0,1440.0,4.0,0.0
2846,57.0,15.0,1200.0,4.0,0.0
2847,61.0,80.0,1200.0,4.0,0.0
2848,52.0,0.0,1200.0,5.0,0.0
2849,85.0,160.0,150.0,1.0,0.0
2850,83.0,160.0,150.0,1.0,0.0
2851,81.0,160.0,150.0,1.0,0.0
2852,80.0,160.0,150.0,1.0,0.0
2853,78.0,160.0,150.0,1.0,0.0
2854,76.0,65.0,150.0,1.0,0.0
2855,74.0,160.0,150.0,1.0,0.0
2856,73.0,160.0,150.0,1.0,0.0
2857,61.0,0.0,240.0,4.0,0.0
2858,52.0,80.0,240.0,5.0,0.0
2859,71.0,80.0,150.0,1.0,0.0
2860,57.0,0.0,240.0,4.0,0.0
2861,73.0,128.0,150.0,1.0,0.0
2862,69.0,296.0,120.0,1.0,0.0
2863,61.0,30.0,1170.0,4.0,0.0
2864,57.0,15.0,1200.0,4.0,0.0
2865,54.0,9.0,1200.0,4.0,0.0
2866,51.0,0.0,1200.0,5.0,0.0
2867,69.0,160.0,90.0,1.0,0.0
2868,71.0,160.0,90.0,1.0,0.0
2869,73.0,160.0,90.0,1.0,0.0
2870,75.0,160.0,90.0,1.0,0.0
2871,76.0,160.0,90.0,1.0,0.0
2872,78.0,106.0,90.0,1.0,0.0
2873,80.0,160.0,90.0,1.0,0.0
2874,81.0,160.0,90.0,1.0,0.0
2875,83.0,136.0,90.0,1.0,0.0
2876,51.0,0.0,240.0,5.0,0.0
2877,57.0,24.0,240.0,4.0,0.0
2878,61.0,0.0,240.0,4.0,0.0
2879,54.0,0.0,240.0,4.0,0.0
2880,85.0,160.0,90.0,1.0,0.0
2881,81.0,376.0,90.0,1.0,0.0
2882,52.0,0.0,1200.0,5.0,0.0
2883,61.0,15.0,1200.0,4.0,0.0
2884,57.0,65.0,1200.0,4.0,0.0
2885,85.0,160.0,150.0,1.0,0.0
2886,83.0,160.0,150.0,1.0,0.0
2887,81.0,160.0,150.0,1.0,0.0
2888,80.0,160.0,150.0,1.0,0.0
2889,78.0,160.0,150.0,1.0,0.0
2890,76.0,80.0,150.0,1.0,0.0
2891,74.0,160.0,150.0,1.0,0.0
2892,73.0,160.0,150.0,1.0,0.0
2893,71.0,80.0,150.0,1.0,0.0
2894,57.0,0.0,240.0,4.0,0.0
2895,61.0,80.0,240.0,4.0,0.0
2896,52.0,0.0,240.0,5.0,0.0
2897,73.0,128.0,150.0,1.0,0.0
2898,69.0,296.0,120.0,1.0,0.0
2899,57.0,15.0,1200.0,4.0,0.0
2900,60.0,0.0,1200.0,4.0,0.0
2901,63.0,9.0,1200.0,4.0,0.0
2902,53.0,15.0,1200.0,5.0,0.0
2903,69.0,160.0,90.0,1.0,0.0
2904,71.0,160.0,90.0,1.0,0.0
2905,72.0,160.0,90.0,1.0,0.0
2906,75.0,160.0,90.0,1.0,0.0
2907,76.0,160.0,90.0,1.0,0.0
2908,77.0,121.0,90.0,1.0,0.0
2909,80.0,160.0,90.0,1.0,0.0
2910,81.0,160.0,90.0,1.0,0.0
2911,63.0,24.0,240.0,4.0,0.0
2912,60.0,0.0,240.0,4.0,0.0
2913,57.0,0.0,240.0,4.0,0.0
2914,83.0,136.0,90.0,1.0,0.0
2915,53.0,0.0,240.0,5.0,0.0
2916,84.0,160.0,90.0,1.0,0.0
2917,81.0,176.0,90.0,1.0,0.0
2918,52.0,0.0,240.0,5.0,0.0
2919,61.0,120.0,240.0,4.0,0.0
2920,57.0,0.0,240.0,4.0,0.0
2921,64.0,0.0,240.0,4.0,0.0
2922,85.0,120.0,120.0,1.0,0.0
2923,83.0,0.0,120.0,1.0,0.0
2924,81.0,120.0,120.0,1.0,0.0
2925,80.0,120.0,120.0,1.0,0.0
2926,78.0,120.0,120.0,1.0,0.0
2927,76.0,120.0,120.0,1.0,0.0
2928,74.0,96.0,120.0,1.0,0.0
2929,73.0,144.0,90.0,1.0,0.0
2930,81.0,120.0,120.0,1.0,0.0
2931,80.0,120.0,120.0,1.0,0.0
2932,78.0,120.0,120.0,1.0,0.0
2933,76.0,120.0,120.0,1.0,0.0
2934,74.0,120.0,120.0,1.0,0.0
2935,73.0,120.0,120.0,1.0,0.0
2936,71.0,96.0,120.0,1.0,0.0
2937,69.0,104.0,90.0,1.0,0.0
2938,71.0,80.0,90.0,1.0,0.0
2939,52.0,151.0,1890.0,5.0,0.0
2940,57.0,80.0,960.0,4.0,0.0
2941,73.0,80.0,90.0,1.0,0.0
2942,71.0,80.0,90.0,1.0,0.0
2943,73.0,80.0,90.0,1.0,0.0
2944,71.0,80.0,90.0,1.0,0.0
2945,73.0,80.0,90.0,1.0,0.0
2946,71.0,80.0,90.0,1.0,0.0
2947,73.0,80.0,90.0,1.0,0.0
2948,71.0,80.0,90.0,1.0,0.0
2949,73.0,80.0,90.0,1.0,0.0
2950,71.0,80.0,90.0,1.0,0.0
2951,73.0,0.0,90.0,1.0,0.0
2952,71.0,80.0,90.0,1.0,0.0
2953,56.0,0.0,930.0,4.0,0.0
2954,73.0,80.0,90.0,1.0,0.0
2955,71.0,80.0,90.0,1.0,0.0
2956,73.0,80.0,90.0,1.0,0.0
2957,71.0,80.0,90.0,1.0,0.0
2958,73.0,80.0,90.0,1.0,0.0
2959,71.0,80.0,90.0,1.0,0.0
2960,73.0,80.0,90.0,1.0,0.0
2961,71.0,120.0,90.0,1.0,0.0
2962,69.0,96.0,120.0,1.0,0.0
2963,71.0,1.0,90.0,1.0,0.0
2964,45.0,40.0,4260.0,5.0,0.0
2965,57.0,160.0,120.0,1.0,0.0
2966,61.0,160.0,120.0,1.0,0.0
2967,64.0,160.0,120.0,1.0,0.0
2968,69.0,160.0,120.0,1.0,0.0
2969,73.0,160.0,120.0,1.0,0.0
2970,76.0,272.0,120.0,1.0,0.0
2971,81.0,48.0,240.0,1.0,0.0
2972,76.0,160.0,120.0,2.0,0.0
2973,73.0,272.0,120.0,2.0,0.0
2974,80.0,48.0,240.0,1.0,0.0
2975,74.0,160.0,120.0,2.0,0.0
2976,71.0,272.0,120.0,2.0,0.0
2977,78.0,48.0,240.0,1.0,0.0
2978,73.0,160.0,120.0,2.0,0.0
2979,69.0,272.0,120.0,2.0,0.0
2980,76.0,48.0,240.0,1.0,0.0
2981,71.0,160.0,120.0,2.0,0.0
2982,68.0,272.0,120.0,2.0,0.0
2983,74.0,48.0,240.0,1.0,0.0
2984,69.0,160.0,120.0,2.0,0.0
2985,66.0,272.0,120.0,2.0,0.0
2986,73.0,48.0,240.0,1.0,0.0
2987,68.0,160.0,120.0,2.0,0.0
2988,64.0,272.0,120.0,2.0,0.0
2989,61.0,48.0,240.0,1.0,0.0
2990,67.0,120.0,120.0,2.0,0.0
2991,70.0,272.0,120.0,2.0,0.0
2992,50.0,88.0,360.0,5.0,0.0
2993,62.0,48.0,240.0,1.0,0.0
2994,66.0,72.0,120.0,2.0,0.0
2995,71.0,272.0,120.0,2.0,0.0
2996,61.0,48.0,240.0,1.0,0.0
2997,52.0,88.0,360.0,5.0,0.0
2998,64.0,72.0,120.0,2.0,0.0
2999,69.0,272.0,120.0,2.0,0.0
3000,59.0,48.0,240.0,1.0,0.0
3001,40.0,88.0,360.0,5.0,0.0
3002,62.0,72.0,120.0,2.0,0.0
3003,68.0,160.0,120.0,2.0,0.0
3004,45.0,15.0,4290.0,5.0,0.0
3005,57.0,248.0,4320.0,5.0,0.0
3006,69.0,160.0,120.0,1.0,0.0
3007,73.0,160.0,120.0,1.0,0.0
3008,76.0,160.0,120.0,1.0,0.0
3009,81.0,160.0,120.0,1.0,0.0
3010,85.0,160.0,120.0,1.0,0.0
3011,88.0,272.0,120.0,1.0,0.0
3012,93.0,48.0,240.0,1.0,0.0
3013,88.0,160.0,120.0,2.0,0.0
3014,85.0,272.0,120.0,2.0,0.0
3015,92.0,48.0,240.0,1.0,0.0
3016,86.0,160.0,120.0,2.0,0.0
3017,83.0,272.0,120.0,2.0,0.0
3018,90.0,48.0,240.0,1.0,0.0
3019,85.0,160.0,120.0,2.0,0.0
3020,81.0,272.0,120.0,2.0,0.0
3021,88.0,48.0,240.0,1.0,0.0
3022,83.0,160.0,120.0,2.0,0.0
3023,80.0,272.0,120.0,2.0,0.0
3024,86.0,48.0,240.0,1.0,0.0
3025,81.0,160.0,120.0,2.0,0.0
3026,78.0,272.0,120.0,2.0,0.0
3027,85.0,48.0,240.0,1.0,0.0
3028,80.0,160.0,120.0,2.0,0.0
3029,76.0,272.0,120.0,2.0,0.0
3030,73.0,48.0,240.0,1.0,0.0
3031,79.0,160.0,120.0,2.0,0.0
3032,82.0,9.0,120.0,2.0,0.0
3033,62.0,88.0,360.0,5.0,0.0
3034,74.0,48.0,240.0,1.0,0.0
3035,78.0,72.0,120.0,2.0,0.0
3036,83.0,272.0,120.0,2.0,0.0
3037,64.0,88.0,360.0,5.0,0.0
3038,73.0,48.0,240.0,1.0,0.0
3039,76.0,72.0,120.0,2.0,0.0
3040,81.0,272.0,120.0,2.0,0.0
3041,52.0,88.0,360.0,5.0,0.0
3042,71.0,48.0,240.0,1.0,0.0
3043,74.0,72.0,120.0,2.0,0.0
3044,80.0,272.0,120.0,2.0,0.0
3045,73.0,48.0,240.0,1.0,0.0
3046,57.0,88.0,2280.0,5.0,0.0
3047,76.0,160.0,120.0,2.0,0.0
3048,81.0,272.0,120.0,2.0,0.0
3049,72.0,48.0,240.0,1.0,0.0
3050,75.0,160.0,120.0,2.0,0.0
3051,81.0,272.0,120.0,2.0,0.0
3052,73.0,48.0,240.0,1.0,0.0
3053,76.0,160.0,120.0,2.0,0.0
3054,81.0,272.0,120.0,2.0,0.0
3055,72.0,48.0,240.0,1.0,0.0
3056,75.0,160.0,120.0,2.0,0.0
3057,81.0,272.0,120.0,2.0,0.0
3058,73.0,48.0,240.0,1.0,0.0
3059,76.0,72.0,120.0,2.0,0.0
3060,81.0,272.0,120.0,2.0,0.0
3061,62.0,88.0,360.0,5.0,0.0
3062,78.0,48.0,240.0,1.0,0.0
3063,74.0,72.0,120.0,2.0,0.0
3064,71.0,272.0,120.0,2.0,0.0
3065,76.0,48.0,240.0,1.0,0.0
3066,64.0,88.0,360.0,5.0,0.0
3067,73.0,72.0,120.0,2.0,0.0
3068,69.0,272.0,120.0,2.0,0.0
3069,52.0,88.0,360.0,5.0,0.0
3070,74.0,48.0,240.0,1.0,0.0
3071,71.0,72.0,120.0,2.0,0.0
3072,68.0,272.0,120.0,2.0,0.0
3073,64.0,48.0,240.0,1.0,0.0
3074,57.0,88.0,2280.0,5.0,0.0
3075,45.0,0.0,2280.0,5.0,0.0
3076,69.0,160.0,120.0,2.0,0.0
3077,73.0,272.0,120.0,2.0,0.0
3078,63.0,48.0,240.0,1.0,0.0
3079,69.0,160.0,120.0,2.0,0.0
3080,72.0,272.0,120.0,2.0,0.0
3081,64.0,48.0,240.0,1.0,0.0
3082,69.0,160.0,120.0,2.0,0.0
3083,73.0,272.0,120.0,2.0,0.0
3084,63.0,48.0,240.0,1.0,0.0
3085,69.0,160.0,120.0,2.0,0.0
3086,72.0,272.0,120.0,2.0,0.0
3087,64.0,48.0,240.0,1.0,0.0
3088,69.0,72.0,120.0,2.0,0.0
3089,73.0,272.0,120.0,2.0,0.0
3090,50.0,88.0,360.0,5.0,0.0
3091,71.0,48.0,240.0,1.0,0.0
3092,66.0,72.0,120.0,2.0,0.0
3093,62.0,272.0,120.0,2.0,0.0
3094,69.0,48.0,240.0,1.0,0.0
3095,52.0,88.0,360.0,5.0,0.0
3096,64.0,72.0,120.0,2.0,0.0
3097,61.0,272.0,120.0,2.0,0.0
3098,40.0,88.0,360.0,5.0,0.0
3099,68.0,48.0,240.0,1.0,0.0
3100,62.0,72.0,120.0,2.0,0.0
3101,59.0,160.0,120.0,2.0,0.0
3102,45.0,0.0,120.0,5.0,0.0
3103,57.0,160.0,120.0,1.0,0.0
3104,61.0,160.0,120.0,1.0,0.0
3105,49.0,0.0,120.0,5.0,0.0
3106,64.0,0.0,120.0,1.0,0.0
3107,52.0,160.0,120.0,5.0,0.0
3108,57.0,0.0,120.0,5.0,0.0
3109,69.0,160.0,120.0,1.0,0.0
3110,52.0,0.0,120.0,5.0,0.0
3111,64.0,160.0,120.0,1.0,0.0
3112,49.0,160.0,120.0,5.0,0.0
3113,61.0,0.0,120.0,1.0,0.0
3114,57.0,160.0,120.0,1.0,0.0
3115,45.0,0.0,120.0,5.0,0.0
3116,49.0,0.0,120.0,5.0,0.0
3117,61.0,160.0,120.0,1.0,0.0
3118,64.0,160.0,120.0,1.0,0.0
3119,52.0,0.0,120.0,5.0,0.0
3120,57.0,0.0,120.0,5.0,0.0
3121,69.0,160.0,120.0,1.0,0.0
3122,64.0,0.0,120.0,1.0,0.0
3123,52.0,160.0,120.0,5.0,0.0
3124,61.0,0.0,120.0,1.0,0.0
3125,49.0,160.0,120.0,5.0,0.0
3126,57.0,0.0,120.0,1.0,0.0
3127,45.0,160.0,120.0,5.0,0.0
3128,61.0,160.0,120.0,1.0,0.0
3129,49.0,0.0,120.0,5.0,0.0
3130,52.0,0.0,120.0,5.0,0.0
3131,64.0,160.0,120.0,1.0,0.0
3132,57.0,160.0,120.0,5.0,0.0
3133,69.0,0.0,120.0,1.0,0.0
3134,73.0,160.0,120.0,1.0,0.0
3135,61.0,0.0,120.0,5.0,0.0
3136,64.0,0.0,120.0,5.0,0.0
3137,76.0,160.0,120.0,1.0,0.0
3138,69.0,0.0,120.0,5.0,0.0
3139,81.0,160.0,120.0,1.0,0.0
3140,76.0,0.0,120.0,1.0,0.0
3141,64.0,160.0,120.0,5.0,0.0
3142,73.0,160.0,120.0,1.0,0.0
3143,61.0,0.0,120.0,5.0,0.0
3144,57.0,0.0,120.0,5.0,0.0
3145,69.0,160.0,120.0,1.0,0.0
3146,73.0,0.0,120.0,1.0,0.0
3147,61.0,160.0,120.0,5.0,0.0
3148,76.0,0.0,120.0,1.0,0.0
3149,64.0,160.0,120.0,5.0,0.0
3150,57.0,160.0,120.0,5.0,0.0
3151,69.0,0.0,120.0,1.0,0.0
3152,73.0,160.0,120.0,1.0,0.0
3153,61.0,0.0,120.0,5.0,0.0
3154,76.0,0.0,120.0,1.0,0.0
3155,64.0,160.0,120.0,5.0,0.0
3156,81.0,0.0,120.0,1.0,0.0
3157,69.0,160.0,120.0,5.0,0.0
3158,73.0,160.0,120.0,5.0,0.0
3159,85.0,0.0,120.0,1.0,0.0
3160,76.0,0.0,120.0,5.0,0.0
3161,88.0,160.0,120.0,1.0,0.0
3162,93.0,160.0,120.0,1.0,0.0
3163,81.0,0.0,120.0,5.0,0.0
3164,88.0,0.0,120.0,1.0,0.0
3165,76.0,160.0,120.0,5.0,0.0
3166,85.0,0.0,120.0,1.0,0.0
3167,73.0,160.0,120.0,5.0,0.0
3168,81.0,160.0,120.0,1.0,0.0
3169,69.0,0.0,120.0,5.0,0.0
3170,85.0,0.0,120.0,1.0,0.0
3171,73.0,160.0,120.0,5.0,0.0
3172,88.0,392.0,120.0,1.0,0.0
3173,76.0,0.0,120.0,5.0,0.0
3174,93.0,480.0,360.0,1.0,0.0
3175,81.0,0.0,360.0,5.0,0.0
3176,45.0,0.0,360.0,5.0,0.0
3177,57.0,0.0,360.0,5.0,0.0
3178,69.0,3000.0,360.0,1.0,0.0
3179,66.0,0.0,480.0,4.0,0.0
3180,74.0,0.0,480.0,1.0,0.0
3181,62.0,480.0,480.0,5.0,0.0
3182,73.0,410.0,480.0,1.0,0.0
3183,64.0,0.0,480.0,5.0,0.0
3184,67.0,0.0,480.0,4.0,0.0
3185,66.0,5.0,420.0,5.0,0.0
3186,69.0,10.0,420.0,4.0,0.0
3187,74.0,535.0,420.0,1.0,0.0
3188,65.0,480.0,480.0,4.0,0.0
3189,59.0,100.0,1380.0,5.0,0.0
3190,68.0,0.0,960.0,1.0,0.0
3191,64.0,420.0,480.0,4.0,0.0
3192,76.0,0.0,420.0,1.0,0.0
3193,62.0,240.0,960.0,4.0,0.0
3194,75.0,40.0,30.0,1.0,0.0
3195,57.0,0.0,1200.0,5.0,0.0
3196,76.0,40.0,30.0,1.0,0.0
3197,78.0,360.0,30.0,1.0,0.0
3198,76.0,120.0,600.0,1.0,0.0
3199,61.0,0.0,720.0,4.0,0.0
3200,74.0,120.0,120.0,1.0,0.0
3201,73.0,120.0,120.0,1.0,0.0
3202,71.0,120.0,120.0,1.0,0.0
3203,69.0,120.0,120.0,1.0,0.0
3204,59.0,5.0,210.0,5.0,0.0
3205,62.0,10.0,210.0,4.0,0.0
3206,67.0,80.0,120.0,1.0,0.0
3207,71.0,265.0,90.0,1.0,0.0
3208,69.0,40.0,240.0,1.0,0.0
3209,61.0,0.0,480.0,5.0,0.0
3210,64.0,0.0,480.0,4.0,0.0
3211,67.0,40.0,30.0,1.0,0.0
3212,69.0,40.0,30.0,1.0,0.0
3213,67.0,30.0,30.0,1.0,0.0
3214,69.0,30.0,30.0,1.0,0.0
3215,67.0,30.0,30.0,1.0,0.0
3216,66.0,30.0,30.0,1.0,0.0
3217,67.0,360.0,30.0,1.0,0.0
3218,62.0,0.0,360.0,4.0,0.0
3219,66.0,780.0,360.0,1.0,0.0
3220,69.0,295.0,660.0,2.0,0.0
3221,78.0,5.0,660.0,1.0,0.0
3222,40.0,0.0,1380.0,5.0,0.0
3223,52.0,295.0,1380.0,5.0,0.0
3224,66.0,0.0,240.0,2.0,0.0
3225,75.0,240.0,240.0,1.0,0.0
3226,76.0,240.0,240.0,1.0,0.0
3227,67.0,0.0,240.0,2.0,0.0
3228,78.0,0.0,240.0,1.0,0.0
3229,69.0,240.0,240.0,2.0,0.0
3230,79.0,180.0,240.0,1.0,0.0
3231,71.0,0.0,240.0,2.0,0.0
3232,76.0,5.0,180.0,1.0,0.0
3233,67.0,0.0,480.0,4.0,0.0
3234,64.0,240.0,480.0,5.0,0.0
3235,74.0,180.0,240.0,1.0,0.0
3236,73.0,60.0,180.0,1.0,0.0
3237,66.0,715.0,420.0,5.0,0.0
3238,69.0,5.0,420.0,4.0,0.0
3239,76.0,180.0,240.0,1.0,0.0
3240,74.0,0.0,180.0,1.0,0.0
3241,78.0,300.0,660.0,2.0,0.0
3242,81.0,0.0,660.0,1.0,0.0
3243,43.0,0.0,1380.0,5.0,0.0
3244,55.0,0.0,1380.0,5.0,0.0
3245,78.0,0.0,240.0,1.0,0.0
3246,75.0,240.0,240.0,2.0,0.0
3247,79.0,0.0,240.0,1.0,0.0
3248,76.0,240.0,240.0,2.0,0.0
3249,81.0,0.0,240.0,1.0,0.0
3250,78.0,240.0,240.0,2.0,0.0
3251,83.0,180.0,240.0,1.0,0.0
3252,79.0,0.0,240.0,2.0,0.0
3253,79.0,0.0,180.0,1.0,0.0
3254,76.0,300.0,180.0,2.0,0.0
3255,78.0,170.0,240.0,1.0,0.0
3256,57.0,240.0,480.0,5.0,0.0
3257,73.0,10.0,420.0,2.0,0.0
3258,67.0,0.0,480.0,4.0,0.0
3259,76.0,60.0,180.0,1.0,0.0
3260,79.0,170.0,240.0,1.0,0.0
3261,74.0,0.0,420.0,2.0,0.0
3262,66.0,10.0,420.0,4.0,0.0
3263,62.0,0.0,420.0,4.0,0.0
3264,78.0,300.0,180.0,1.0,0.0
3265,76.0,10.0,420.0,2.0,0.0
3266,49.0,295.0,420.0,5.0,0.0
3267,61.0,5.0,420.0,4.0,0.0
3268,83.0,170.0,240.0,1.0,0.0
3269,81.0,0.0,180.0,1.0,0.0
3270,88.0,180.0,240.0,1.0,0.0
3271,47.0,0.0,960.0,5.0,0.0
3272,59.0,0.0,960.0,4.0,0.0
3273,78.0,60.0,420.0,2.0,0.0
3274,86.0,240.0,240.0,1.0,0.0
3275,85.0,240.0,240.0,1.0,0.0
3276,74.0,0.0,900.0,2.0,0.0
3277,83.0,240.0,240.0,1.0,0.0
3278,81.0,180.0,240.0,1.0,0.0
3279,59.0,540.0,420.0,5.0,0.0
3280,64.0,0.0,420.0,4.0,0.0
3281,80.0,0.0,180.0,1.0,0.0
3282,74.0,410.0,480.0,2.0,0.0
3283,57.0,0.0,900.0,5.0,0.0
3284,68.0,0.0,480.0,4.0,0.0
3285,83.0,0.0,480.0,1.0,0.0
3286,69.0,0.0,420.0,4.0,0.0
3287,81.0,130.0,600.0,1.0,0.0
3288,73.0,180.0,420.0,2.0,0.0
3289,83.0,120.0,120.0,1.0,0.0
3290,79.0,95.0,120.0,1.0,0.0
3291,76.0,505.0,90.0,1.0,0.0
3292,74.0,0.0,480.0,1.0,0.0
3293,62.0,0.0,480.0,5.0,0.0
3294,66.0,480.0,480.0,4.0,0.0
3295,64.0,0.0,480.0,5.0,0.0
3296,67.0,410.0,480.0,4.0,0.0
3297,73.0,0.0,480.0,1.0,0.0
3298,66.0,5.0,420.0,5.0,0.0
3299,74.0,535.0,420.0,1.0,0.0
3300,69.0,10.0,420.0,4.0,0.0
3301,65.0,480.0,480.0,4.0,0.0
3302,59.0,0.0,1380.0,5.0,0.0
3303,68.0,420.0,960.0,1.0,0.0
3304,64.0,0.0,480.0,4.0,0.0
3305,62.0,240.0,960.0,4.0,0.0
3306,76.0,100.0,420.0,1.0,0.0
3307,75.0,40.0,30.0,1.0,0.0
3308,57.0,0.0,1200.0,5.0,0.0
3309,76.0,40.0,30.0,1.0,0.0
3310,78.0,360.0,30.0,1.0,0.0
3311,76.0,120.0,600.0,1.0,0.0
3312,61.0,0.0,720.0,4.0,0.0
3313,74.0,120.0,120.0,1.0,0.0
3314,73.0,120.0,120.0,1.0,0.0
3315,71.0,120.0,120.0,1.0,0.0
3316,69.0,120.0,120.0,1.0,0.0
3317,62.0,10.0,210.0,4.0,0.0
3318,67.0,80.0,120.0,1.0,0.0
3319,59.0,5.0,210.0,5.0,0.0
3320,71.0,265.0,90.0,1.0,0.0
3321,61.0,0.0,480.0,5.0,0.0
3322,64.0,0.0,480.0,4.0,0.0
3323,69.0,40.0,240.0,1.0,0.0
3324,67.0,40.0,30.0,1.0,0.0
3325,69.0,40.0,30.0,1.0,0.0
3326,67.0,30.0,30.0,1.0,0.0
3327,69.0,30.0,30.0,1.0,0.0
3328,67.0,30.0,30.0,1.0,0.0
3329,66.0,30.0,30.0,1.0,0.0
3330,67.0,410.0,30.0,1.0,0.0
3331,62.0,720.0,420.0,4.0,0.0
3332,66.0,10.0,420.0,1.0,0.0
3333,78.0,5.0,660.0,1.0,0.0
3334,69.0,295.0,660.0,2.0,0.0
3335,40.0,5.0,1380.0,5.0,0.0
3336,52.0,295.0,1380.0,5.0,0.0
3337,66.0,240.0,240.0,2.0,0.0
3338,75.0,0.0,240.0,1.0,0.0
3339,67.0,240.0,240.0,2.0,0.0
3340,76.0,0.0,240.0,1.0,0.0
3341,78.0,240.0,240.0,1.0,0.0
3342,69.0,0.0,240.0,2.0,0.0
3343,71.0,180.0,240.0,2.0,0.0
3344,79.0,0.0,240.0,1.0,0.0
3345,76.0,0.0,180.0,1.0,0.0
3346,67.0,240.0,480.0,4.0,0.0
3347,74.0,180.0,240.0,1.0,0.0
3348,64.0,0.0,480.0,5.0,0.0
3349,73.0,60.0,180.0,1.0,0.0
3350,76.0,180.0,240.0,1.0,0.0
3351,69.0,720.0,420.0,4.0,0.0
3352,66.0,0.0,420.0,5.0,0.0
3353,74.0,0.0,180.0,1.0,0.0
3354,78.0,300.0,660.0,2.0,0.0
3355,81.0,0.0,660.0,1.0,0.0
3356,55.0,0.0,1380.0,5.0,0.0
3357,43.0,0.0,1380.0,5.0,0.0
3358,75.0,0.0,240.0,2.0,0.0
3359,78.0,240.0,240.0,1.0,0.0
3360,76.0,0.0,240.0,2.0,0.0
3361,79.0,240.0,240.0,1.0,0.0
3362,78.0,240.0,240.0,2.0,0.0
3363,81.0,0.0,240.0,1.0,0.0
3364,83.0,0.0,240.0,1.0,0.0
3365,79.0,180.0,240.0,2.0,0.0
3366,76.0,300.0,180.0,2.0,0.0
3367,79.0,0.0,180.0,1.0,0.0
3368,67.0,240.0,480.0,4.0,0.0
3369,78.0,120.0,240.0,1.0,0.0
3370,73.0,60.0,360.0,2.0,0.0
3371,57.0,0.0,480.0,5.0,0.0
3372,76.0,60.0,180.0,1.0,0.0
3373,79.0,120.0,240.0,1.0,0.0
3374,62.0,295.0,420.0,5.0,0.0
3375,74.0,60.0,360.0,2.0,0.0
3376,66.0,5.0,420.0,4.0,0.0
3377,78.0,0.0,180.0,1.0,0.0
3378,76.0,0.0,420.0,2.0,0.0
3379,83.0,170.0,240.0,1.0,0.0
3380,61.0,0.0,420.0,4.0,0.0
3381,49.0,10.0,420.0,5.0,0.0
3382,81.0,300.0,180.0,1.0,0.0
3383,88.0,180.0,240.0,1.0,0.0
3384,59.0,0.0,1380.0,5.0,0.0
3385,68.0,5.0,1380.0,4.0,0.0
3386,64.0,295.0,1380.0,4.0,0.0
3387,62.0,0.0,1380.0,4.0,0.0
3388,86.0,180.0,180.0,1.0,0.0
3389,85.0,120.0,120.0,1.0,0.0
3390,83.0,120.0,120.0,1.0,0.0
3391,81.0,120.0,120.0,1.0,0.0
3392,80.0,240.0,120.0,1.0,0.0
3393,78.0,180.0,240.0,1.0,0.0
3394,76.0,0.0,180.0,1.0,0.0
3395,61.0,0.0,1380.0,5.0,0.0
3396,64.0,10.0,1380.0,4.0,0.0
3397,90.0,180.0,240.0,1.0,0.0
3398,66.0,0.0,1380.0,4.0,0.0
3399,70.0,300.0,1380.0,4.0,0.0
3400,88.0,180.0,180.0,1.0,0.0
3401,86.0,120.0,120.0,1.0,0.0
3402,85.0,120.0,120.0,1.0,0.0
3403,83.0,120.0,120.0,1.0,0.0
3404,82.0,240.0,120.0,1.0,0.0
3405,79.0,170.0,240.0,1.0,0.0
3406,78.0,0.0,180.0,1.0,0.0
3407,71.0,0.0,1380.0,4.0,0.0
3408,66.0,5.0,1380.0,4.0,0.0
3409,62.0,30.0,1380.0,5.0,0.0
3410,91.0,180.0,240.0,1.0,0.0
3411,90.0,180.0,180.0,1.0,0.0
3412,88.0,120.0,120.0,1.0,0.0
3413,86.0,120.0,120.0,1.0,0.0
3414,85.0,120.0,120.0,1.0,0.0
3415,83.0,120.0,120.0,1.0,0.0
3416,82.0,120.0,120.0,1.0,0.0
3417,83.0,120.0,120.0,1.0,0.0
3418,85.0,60.0,120.0,1.0,0.0
3419,86.0,385.0,90.0,1.0,0.0
3420,81.0,60.0,360.0,1.0,0.0
3421,73.0,410.0,480.0,2.0,0.0
3422,64.0,1015.0,900.0,5.0,0.0
3423,83.0,60.0,60.0,1.0,0.0
3424,81.0,0.0,60.0,1.0,0.0
3425,80.0,5.0,420.0,1.0,0.0
3426,71.0,10.0,420.0,2.0,0.0
3427,57.0,480.0,480.0,5.0,0.0
3428,56.0,420.0,480.0,5.0,0.0
3429,57.0,300.0,420.0,5.0,0.0
3430,52.0,300.0,1380.0,5.0,0.0
3431,87.0,120.0,120.0,1.0,0.0
3432,88.0,120.0,120.0,1.0,0.0
3433,84.0,120.0,120.0,1.0,0.0
3434,85.0,120.0,120.0,1.0,0.0
3435,80.0,120.0,120.0,1.0,0.0
3436,81.0,120.0,120.0,1.0,0.0
3437,75.0,120.0,120.0,1.0,0.0
3438,76.0,120.0,120.0,1.0,0.0
3439,72.0,120.0,120.0,1.0,0.0
3440,73.0,60.0,120.0,1.0,0.0
3441,69.0,240.0,360.0,1.0,0.0
3442,59.0,240.0,480.0,5.0,0.0
3443,68.0,240.0,480.0,1.0,0.0
3444,58.0,240.0,480.0,5.0,0.0
3445,67.0,170.0,480.0,1.0,0.0
3446,59.0,190.0,420.0,5.0,0.0
3447,68.0,120.0,360.0,1.0,0.0
3448,52.0,295.0,1380.0,5.0,0.0
3449,89.0,120.0,120.0,1.0,0.0
3450,90.0,120.0,120.0,1.0,0.0
3451,85.0,120.0,120.0,1.0,0.0
3452,86.0,120.0,120.0,1.0,0.0
3453,82.0,120.0,120.0,1.0,0.0
3454,83.0,120.0,120.0,1.0,0.0
3455,79.0,120.0,120.0,1.0,0.0
3456,80.0,120.0,120.0,1.0,0.0
3457,73.0,120.0,120.0,1.0,0.0
3458,74.0,65.0,120.0,1.0,0.0
3459,71.0,240.0,360.0,1.0,0.0
3460,61.0,240.0,480.0,5.0,0.0
3461,70.0,240.0,480.0,1.0,0.0
3462,60.0,240.0,480.0,5.0,0.0
3463,69.0,180.0,480.0,1.0,0.0
3464,61.0,5.0,420.0,5.0,0.0
3465,70.0,295.0,180.0,1.0,0.0
3466,55.0,0.0,1380.0,4.0,0.0
3467,52.0,10.0,1380.0,5.0,0.0
3468,61.0,30.0,1380.0,4.0,0.0
3469,58.0,5.0,1380.0,4.0,0.0
3470,88.0,120.0,120.0,1.0,0.0
3471,91.0,120.0,120.0,1.0,0.0
3472,85.0,120.0,120.0,1.0,0.0
3473,88.0,120.0,120.0,1.0,0.0
3474,82.0,120.0,120.0,1.0,0.0
3475,85.0,120.0,120.0,1.0,0.0
3476,79.0,120.0,120.0,1.0,0.0
3477,82.0,120.0,120.0,1.0,0.0
3478,76.0,120.0,120.0,1.0,0.0
3479,79.0,50.0,120.0,1.0,0.0
3480,73.0,265.0,90.0,1.0,0.0
3481,62.0,10.0,1380.0,4.0,0.0
3482,58.0,30.0,1380.0,4.0,0.0
3483,55.0,5.0,1380.0,4.0,0.0
3484,50.0,0.0,1380.0,5.0,0.0
3485,86.0,120.0,120.0,1.0,0.0
3486,91.0,120.0,120.0,1.0,0.0
3487,82.0,120.0,120.0,1.0,0.0
3488,86.0,120.0,120.0,1.0,0.0
3489,79.0,120.0,120.0,1.0,0.0
3490,82.0,120.0,120.0,1.0,0.0
3491,74.0,120.0,120.0,1.0,0.0
3492,79.0,120.0,120.0,1.0,0.0
3493,70.0,120.0,120.0,1.0,0.0
3494,74.0,50.0,120.0,1.0,0.0
3495,67.0,265.0,90.0,1.0,0.0
3496,51.0,0.0,1380.0,4.0,0.0
3497,57.0,0.0,1380.0,4.0,0.0
3498,54.0,35.0,1380.0,4.0,0.0
3499,48.0,0.0,1380.0,5.0,0.0
3500,90.0,120.0,120.0,1.0,0.0
3501,93.0,120.0,120.0,1.0,0.0
3502,87.0,120.0,120.0,1.0,0.0
3503,90.0,120.0,120.0,1.0,0.0
3504,81.0,120.0,120.0,1.0,0.0
3505,87.0,120.0,120.0,1.0,0.0
3506,78.0,120.0,120.0,1.0,0.0
3507,81.0,120.0,120.0,1.0,0.0
3508,75.0,120.0,120.0,1.0,0.0
3509,78.0,60.0,120.0,1.0,0.0
3510,69.0,145.0,90.0,1.0,0.0
3511,49.0,120.0,120.0,5.0,0.0
3512,52.0,120.0,120.0,4.0,0.0
3513,57.0,95.0,120.0,4.0,0.0
3514,61.0,145.0,90.0,4.0,0.0
3515,64.0,120.0,120.0,1.0,0.0
3516,69.0,120.0,120.0,1.0,0.0
3517,73.0,95.0,120.0,1.0,0.0
3518,76.0,265.0,90.0,1.0,0.0
3519,50.0,0.0,240.0,5.0,0.0
3520,66.0,120.0,120.0,1.0,0.0
3521,69.0,95.0,120.0,1.0,0.0
3522,78.0,145.0,90.0,1.0,0.0
3523,40.0,120.0,120.0,5.0,0.0
3524,45.0,120.0,120.0,4.0,0.0
3525,49.0,95.0,120.0,4.0,0.0
3526,52.0,145.0,90.0,4.0,0.0
3527,61.0,120.0,120.0,1.0,0.0
3528,64.0,120.0,120.0,1.0,0.0
3529,69.0,95.0,120.0,1.0,0.0
3530,73.0,255.0,90.0,1.0,0.0
3531,40.0,10.0,240.0,5.0,0.0
3532,59.0,120.0,120.0,1.0,0.0
3533,62.0,95.0,120.0,1.0,0.0
3534,68.0,265.0,90.0,1.0,0.0
3535,61.0,180.0,240.0,3.0,0.0
3536,57.0,14.0,1410.0,5.0,0.0
3537,69.0,60.0,420.0,1.0,0.0
3538,64.0,240.0,240.0,3.0,0.0
3539,61.0,240.0,240.0,3.0,0.0
3540,64.0,80.0,240.0,3.0,0.0
3541,81.0,80.0,90.0,1.0,0.0
3542,59.0,0.0,240.0,3.0,0.0
3543,62.0,0.0,240.0,3.0,0.0
3544,80.0,80.0,90.0,1.0,0.0
3545,83.0,80.0,90.0,1.0,0.0
3546,64.0,17.0,180.0,3.0,0.0
3547,81.0,80.0,90.0,1.0,0.0
3548,80.0,33.0,90.0,1.0,0.0
3549,78.0,256.0,60.0,1.0,0.0
3550,76.0,92.0,540.0,1.0,0.0
3551,57.0,14.0,1410.0,5.0,0.0
3552,61.0,240.0,240.0,3.0,0.0
3553,64.0,68.0,240.0,3.0,0.0
3554,61.0,0.0,240.0,3.0,0.0
3555,75.0,80.0,90.0,1.0,0.0
3556,78.0,80.0,90.0,1.0,0.0
3557,64.0,0.0,240.0,3.0,0.0
3558,76.0,80.0,90.0,1.0,0.0
3559,74.0,80.0,90.0,1.0,0.0
3560,73.0,80.0,90.0,1.0,0.0
3561,71.0,80.0,90.0,1.0,0.0
3562,62.0,0.0,240.0,3.0,0.0
3563,70.0,80.0,90.0,1.0,0.0
3564,73.0,80.0,90.0,1.0,0.0
3565,64.0,17.0,180.0,3.0,0.0
3566,71.0,80.0,90.0,1.0,0.0
3567,69.0,33.0,90.0,1.0,0.0
3568,68.0,256.0,60.0,1.0,0.0
3569,68.0,240.0,240.0,3.0,0.0
3570,57.0,21.0,1410.0,5.0,0.0
3571,74.0,0.0,480.0,1.0,0.0
3572,59.0,0.0,240.0,3.0,0.0
3573,64.0,193.0,240.0,3.0,0.0
3574,61.0,0.0,240.0,3.0,0.0
3575,73.0,47.0,180.0,1.0,0.0
3576,69.0,240.0,240.0,3.0,0.0
3577,64.0,80.0,240.0,3.0,0.0
3578,59.0,80.0,240.0,3.0,0.0
3579,62.0,0.0,240.0,3.0,0.0
3580,81.0,80.0,90.0,1.0,0.0
3581,80.0,80.0,90.0,1.0,0.0
3582,83.0,0.0,90.0,1.0,0.0
3583,81.0,80.0,90.0,1.0,0.0
3584,64.0,10.0,180.0,3.0,0.0
3585,80.0,33.0,90.0,1.0,0.0
3586,78.0,256.0,60.0,1.0,0.0
3587,57.0,14.0,1410.0,5.0,0.0
3588,76.0,92.0,540.0,1.0,0.0
3589,61.0,240.0,240.0,3.0,0.0
3590,64.0,68.0,240.0,3.0,0.0
3591,61.0,80.0,240.0,3.0,0.0
3592,75.0,80.0,90.0,1.0,0.0
3593,78.0,0.0,90.0,1.0,0.0
3594,76.0,80.0,90.0,1.0,0.0
3595,64.0,80.0,240.0,3.0,0.0
3596,74.0,80.0,90.0,1.0,0.0
3597,73.0,0.0,90.0,1.0,0.0
3598,62.0,80.0,240.0,3.0,0.0
3599,71.0,80.0,90.0,1.0,0.0
3600,70.0,80.0,90.0,1.0,0.0
3601,73.0,0.0,90.0,1.0,0.0
3602,71.0,80.0,90.0,1.0,0.0
3603,64.0,17.0,180.0,3.0,0.0
3604,69.0,33.0,90.0,1.0,0.0
3605,68.0,496.0,60.0,1.0,0.0
3606,62.0,0.0,480.0,4.0,0.0
3607,57.0,47.0,660.0,5.0,0.0
3608,68.0,0.0,480.0,4.0,0.0
3609,78.0,80.0,480.0,1.0,0.0
3610,69.0,0.0,180.0,4.0,0.0
3611,76.0,80.0,90.0,1.0,0.0
3612,61.0,0.0,180.0,4.0,0.0
3613,75.0,33.0,90.0,1.0,0.0
3614,78.0,80.0,90.0,1.0,0.0
3615,76.0,80.0,90.0,1.0,0.0
3616,74.0,80.0,90.0,1.0,0.0
3617,73.0,80.0,90.0,1.0,0.0
3618,71.0,80.0,90.0,1.0,0.0
3619,70.0,80.0,90.0,1.0,0.0
3620,73.0,80.0,90.0,1.0,0.0
3621,71.0,80.0,90.0,1.0,0.0
3622,69.0,64.0,90.0,1.0,0.0
3623,68.0,496.0,60.0,1.0,0.0
3624,68.0,0.0,480.0,4.0,0.0
3625,62.0,0.0,480.0,4.0,0.0
3626,77.0,80.0,480.0,1.0,0.0
3627,57.0,0.0,660.0,5.0,0.0
3628,69.0,47.0,180.0,4.0,0.0
3629,76.0,80.0,90.0,1.0,0.0
3630,60.0,0.0,180.0,4.0,0.0
3631,75.0,33.0,90.0,1.0,0.0
3632,78.0,80.0,90.0,1.0,0.0
3633,76.0,80.0,90.0,1.0,0.0
3634,74.0,80.0,90.0,1.0,0.0
3635,72.0,80.0,90.0,1.0,0.0
3636,71.0,80.0,90.0,1.0,0.0
3637,69.0,80.0,90.0,1.0,0.0
3638,72.0,80.0,90.0,1.0,0.0
3639,71.0,80.0,90.0,1.0,0.0
3640,69.0,64.0,90.0,1.0,0.0
3641,67.0,496.0,60.0,1.0,0.0
3642,65.0,0.0,1380.0,4.0,0.0
3643,62.0,13.0,1380.0,4.0,0.0
3644,81.0,193.0,480.0,1.0,0.0
3645,59.0,653.0,1380.0,5.0,0.0
3646,79.0,240.0,180.0,1.0,0.0
3647,79.0,240.0,180.0,1.0,0.0
3648,79.0,227.0,180.0,1.0,0.0
3649,79.0,2.0,180.0,1.0,0.0
3650,60.0,52.0,900.0,5.0,0.0
3651,64.0,0.0,900.0,4.0,0.0
3652,79.0,52.0,600.0,1.0,0.0
3653,81.0,60.0,60.0,1.0,0.0
3654,79.0,60.0,60.0,1.0,0.0
3655,77.0,60.0,60.0,1.0,0.0
3656,76.0,60.0,60.0,1.0,0.0
3657,74.0,8.0,60.0,1.0,0.0
3658,72.0,120.0,60.0,1.0,0.0
3659,65.0,262.0,450.0,4.0,0.0
3660,70.0,39.0,120.0,1.0,0.0
3661,62.0,0.0,450.0,5.0,0.0
3662,72.0,30.0,30.0,1.0,0.0
3663,70.0,30.0,30.0,1.0,0.0
3664,69.0,30.0,30.0,1.0,0.0
3665,70.0,111.0,30.0,1.0,0.0
3666,74.0,96.0,120.0,1.0,0.0
3667,77.0,2.0,90.0,1.0,0.0
3668,60.0,240.0,240.0,4.0,0.0
3669,69.0,0.0,720.0,1.0,0.0
3670,52.0,165.0,1380.0,5.0,0.0
3671,61.0,240.0,240.0,4.0,0.0
3672,62.0,60.0,240.0,4.0,0.0
3673,71.0,60.0,60.0,1.0,0.0
3674,63.0,0.0,240.0,4.0,0.0
3675,69.0,60.0,60.0,1.0,0.0
3676,68.0,60.0,60.0,1.0,0.0
3677,69.0,240.0,60.0,1.0,0.0
3678,64.0,193.0,240.0,4.0,0.0
3679,72.0,0.0,240.0,1.0,0.0
3680,62.0,2.0,180.0,4.0,0.0
3681,71.0,0.0,180.0,1.0,0.0
3682,61.0,240.0,240.0,3.0,0.0
3683,57.0,53.0,960.0,5.0,0.0
3684,69.0,120.0,120.0,1.0,0.0
3685,85.0,67.0,900.0,1.0,0.0
3686,64.0,240.0,240.0,3.0,0.0
3687,61.0,240.0,240.0,3.0,0.0
3688,64.0,0.0,240.0,3.0,0.0
3689,59.0,60.0,240.0,3.0,0.0
3690,50.0,33.0,420.0,5.0,0.0
3691,83.0,60.0,60.0,1.0,0.0
3692,86.0,60.0,60.0,1.0,0.0
3693,85.0,0.0,60.0,1.0,0.0
3694,62.0,2.0,180.0,3.0,0.0
3695,83.0,60.0,60.0,1.0,0.0
3696,81.0,60.0,60.0,1.0,0.0
3697,80.0,13.0,60.0,1.0,0.0
3698,78.0,252.0,60.0,1.0,0.0
3699,57.0,240.0,240.0,3.0,0.0
3700,76.0,120.0,600.0,1.0,0.0
3701,61.0,120.0,240.0,3.0,0.0
3702,57.0,120.0,240.0,3.0,0.0
3703,81.0,0.0,120.0,1.0,0.0
3704,61.0,120.0,240.0,3.0,0.0
3705,73.0,120.0,120.0,1.0,0.0
3706,78.0,0.0,120.0,1.0,0.0
3707,56.0,120.0,240.0,3.0,0.0
3708,52.0,0.0,15.0,5.0,0.0
3709,76.0,120.0,120.0,1.0,0.0
3710,74.0,0.0,120.0,1.0,0.0
3711,59.0,10.0,180.0,3.0,0.0
3712,71.0,73.0,120.0,1.0,0.0
3713,68.0,264.0,90.0,1.0,0.0
3714,85.0,67.0,1020.0,1.0,0.0
3715,57.0,0.0,480.0,5.0,0.0
3716,61.0,240.0,240.0,3.0,0.0
3717,64.0,240.0,240.0,3.0,0.0
3718,53.0,53.0,480.0,5.0,0.0
3719,59.0,240.0,240.0,3.0,0.0
3720,61.0,0.0,240.0,3.0,0.0
3721,57.0,60.0,240.0,3.0,0.0
3722,54.0,0.0,240.0,5.0,0.0
3723,83.0,60.0,60.0,1.0,0.0
3724,86.0,60.0,60.0,1.0,0.0
3725,85.0,0.0,60.0,1.0,0.0
3726,51.0,0.0,180.0,5.0,0.0
3727,60.0,35.0,180.0,3.0,0.0
3728,83.0,60.0,60.0,1.0,0.0
3729,81.0,60.0,60.0,1.0,0.0
3730,80.0,13.0,60.0,1.0,0.0
3731,78.0,252.0,60.0,1.0,0.0
3732,61.0,240.0,240.0,3.0,0.0
3733,52.0,0.0,960.0,5.0,0.0
3734,76.0,52.0,540.0,1.0,0.0
3735,64.0,68.0,240.0,3.0,0.0
3736,57.0,60.0,240.0,3.0,0.0
3737,77.0,60.0,60.0,1.0,0.0
3738,80.0,60.0,60.0,1.0,0.0
3739,78.0,0.0,60.0,1.0,0.0
3740,61.0,0.0,240.0,3.0,0.0
3741,76.0,60.0,60.0,1.0,0.0
3742,74.0,60.0,60.0,1.0,0.0
3743,73.0,60.0,60.0,1.0,0.0
3744,71.0,60.0,60.0,1.0,0.0
3745,59.0,60.0,240.0,3.0,0.0
3746,69.0,60.0,60.0,1.0,0.0
3747,52.0,33.0,420.0,5.0,0.0
3748,68.0,60.0,60.0,1.0,0.0
3749,74.0,60.0,60.0,1.0,0.0
3750,73.0,0.0,60.0,1.0,0.0
3751,76.0,60.0,60.0,1.0,0.0
3752,62.0,2.0,180.0,3.0,0.0
3753,74.0,60.0,60.0,1.0,0.0
3754,71.0,13.0,60.0,1.0,0.0
3755,68.0,492.0,60.0,1.0,0.0
3756,71.0,0.0,480.0,1.0,0.0
3757,57.0,8.0,900.0,5.0,0.0
3758,68.0,0.0,480.0,2.0,0.0
3759,62.0,420.0,480.0,3.0,0.0
3760,64.0,0.0,900.0,3.0,0.0
3761,69.0,0.0,420.0,1.0,0.0
3762,61.0,1012.0,420.0,3.0,0.0
3763,45.0,480.0,480.0,5.0,0.0
3764,57.0,0.0,480.0,5.0,0.0
3765,56.0,0.0,480.0,5.0,0.0
3766,44.0,420.0,480.0,5.0,0.0
3767,85.0,80.0,570.0,1.0,0.0
3768,45.0,140.0,420.0,5.0,0.0
3769,57.0,0.0,420.0,5.0,0.0
3770,53.0,480.0,1440.0,5.0,0.0
3771,41.0,0.0,1440.0,5.0,0.0
3772,83.0,80.0,90.0,1.0,0.0
3773,86.0,80.0,90.0,1.0,0.0
3774,85.0,80.0,90.0,1.0,0.0
3775,83.0,80.0,90.0,1.0,0.0
3776,81.0,80.0,90.0,1.0,0.0
3777,80.0,80.0,90.0,1.0,0.0
3778,78.0,80.0,90.0,1.0,0.0
3779,81.0,80.0,90.0,1.0,0.0
3780,80.0,80.0,90.0,1.0,0.0
3781,78.0,80.0,90.0,1.0,0.0
3782,77.0,80.0,90.0,1.0,0.0
3783,74.0,80.0,90.0,1.0,0.0
3784,73.0,80.0,90.0,1.0,0.0
3785,76.0,80.0,90.0,1.0,0.0
3786,74.0,80.0,90.0,1.0,0.0
3787,73.0,80.0,90.0,1.0,0.0
3788,71.0,0.0,90.0,1.0,0.0
3789,54.0,0.0,480.0,5.0,0.0
3790,42.0,0.0,480.0,5.0,0.0
3791,69.0,480.0,480.0,1.0,0.0
3792,53.0,413.0,480.0,5.0,0.0
3793,41.0,0.0,480.0,5.0,0.0
3794,81.0,80.0,570.0,1.0,0.0
3795,54.0,7.0,420.0,5.0,0.0
3796,42.0,140.0,420.0,5.0,0.0
3797,49.0,0.0,1440.0,5.0,0.0
3798,37.0,0.0,1440.0,5.0,0.0
3799,80.0,80.0,90.0,1.0,0.0
3800,83.0,80.0,90.0,1.0,0.0
3801,81.0,80.0,90.0,1.0,0.0
3802,79.0,80.0,90.0,1.0,0.0
3803,78.0,80.0,90.0,1.0,0.0
3804,76.0,80.0,90.0,1.0,0.0
3805,75.0,80.0,90.0,1.0,0.0
3806,78.0,80.0,90.0,1.0,0.0
3807,76.0,80.0,90.0,1.0,0.0
3808,74.0,80.0,90.0,1.0,0.0
3809,73.0,80.0,90.0,1.0,0.0
3810,71.0,80.0,90.0,1.0,0.0
3811,70.0,80.0,90.0,1.0,0.0
3812,73.0,80.0,90.0,1.0,0.0
3813,71.0,80.0,90.0,1.0,0.0
3814,69.0,80.0,90.0,1.0,0.0
3815,67.0,480.0,90.0,1.0,0.0
3816,50.0,480.0,480.0,5.0,0.0
3817,38.0,0.0,480.0,5.0,0.0
3818,66.0,0.0,480.0,1.0,0.0
3819,78.0,0.0,480.0,1.0,0.0
3820,65.0,428.0,480.0,1.0,0.0
3821,77.0,0.0,480.0,1.0,0.0
3822,57.0,80.0,570.0,5.0,0.0
3823,66.0,132.0,420.0,1.0,0.0
3824,78.0,0.0,420.0,1.0,0.0
3825,73.0,480.0,1440.0,1.0,0.0
3826,61.0,0.0,1440.0,1.0,0.0
3827,56.0,80.0,90.0,5.0,0.0
3828,59.0,80.0,90.0,5.0,0.0
3829,57.0,80.0,90.0,5.0,0.0
3830,55.0,80.0,90.0,5.0,0.0
3831,54.0,80.0,90.0,5.0,0.0
3832,52.0,80.0,90.0,5.0,0.0
3833,51.0,80.0,90.0,5.0,0.0
3834,54.0,80.0,90.0,5.0,0.0
3835,52.0,80.0,90.0,5.0,0.0
3836,50.0,80.0,90.0,5.0,0.0
3837,49.0,80.0,90.0,5.0,0.0
3838,47.0,80.0,90.0,5.0,0.0
3839,46.0,80.0,90.0,5.0,0.0
3840,49.0,80.0,90.0,5.0,0.0
3841,47.0,80.0,90.0,5.0,0.0
3842,45.0,80.0,90.0,5.0,0.0
3843,43.0,0.0,90.0,5.0,0.0
3844,74.0,480.0,480.0,1.0,0.0
3845,42.0,0.0,480.0,5.0,0.0
3846,86.0,0.0,480.0,1.0,0.0
3847,73.0,420.0,480.0,1.0,0.0
3848,85.0,0.0,480.0,1.0,0.0
3849,66.0,80.0,570.0,5.0,0.0
3850,86.0,132.0,420.0,1.0,0.0
3851,74.0,8.0,420.0,1.0,0.0
3852,82.0,0.0,1440.0,1.0,0.0
3853,70.0,80.0,1440.0,1.0,0.0
3854,65.0,80.0,90.0,5.0,0.0
3855,68.0,80.0,90.0,5.0,0.0
3856,66.0,80.0,90.0,5.0,0.0
3857,64.0,80.0,90.0,5.0,0.0
3858,62.0,80.0,90.0,5.0,0.0
3859,61.0,80.0,90.0,5.0,0.0
3860,60.0,80.0,90.0,5.0,0.0
3861,62.0,80.0,90.0,5.0,0.0
3862,61.0,80.0,90.0,5.0,0.0
3863,59.0,80.0,90.0,5.0,0.0
3864,58.0,80.0,90.0,5.0,0.0
3865,55.0,80.0,90.0,5.0,0.0
3866,54.0,80.0,90.0,5.0,0.0
3867,57.0,80.0,90.0,5.0,0.0
3868,55.0,80.0,90.0,5.0,0.0
3869,54.0,80.0,90.0,5.0,0.0
3870,52.0,0.0,90.0,5.0,0.0
3871,83.0,80.0,90.0,1.0,0.0
3872,50.0,52.0,900.0,5.0,0.0
3873,82.0,80.0,90.0,1.0,0.0
3874,85.0,80.0,90.0,1.0,0.0
3875,83.0,80.0,90.0,1.0,0.0
3876,81.0,80.0,90.0,1.0,0.0
3877,79.0,80.0,90.0,1.0,0.0
3878,78.0,80.0,90.0,1.0,0.0
3879,77.0,80.0,90.0,1.0,0.0
3880,79.0,80.0,90.0,1.0,0.0
3881,78.0,80.0,90.0,1.0,0.0
3882,76.0,28.0,90.0,1.0,0.0
3883,74.0,80.0,90.0,1.0,0.0
3884,72.0,80.0,90.0,1.0,0.0
3885,51.0,60.0,420.0,5.0,0.0
3886,71.0,80.0,90.0,1.0,0.0
3887,74.0,80.0,90.0,1.0,0.0
3888,72.0,80.0,90.0,1.0,0.0
3889,71.0,20.0,90.0,1.0,0.0
3890,69.0,80.0,90.0,1.0,0.0
3891,67.0,80.0,90.0,1.0,0.0
3892,52.0,44.0,420.0,5.0,0.0
3893,66.0,80.0,90.0,1.0,0.0
3894,69.0,80.0,90.0,1.0,0.0
3895,67.0,80.0,90.0,1.0,0.0
3896,66.0,20.0,90.0,1.0,0.0
3897,64.0,56.0,60.0,1.0,0.0
3898,62.0,40.0,30.0,1.0,0.0
3899,53.0,140.0,900.0,5.0,0.0
3900,64.0,40.0,30.0,1.0,0.0
3901,62.0,40.0,30.0,1.0,0.0
3902,64.0,40.0,30.0,1.0,0.0
3903,62.0,40.0,30.0,1.0,0.0
3904,64.0,40.0,30.0,1.0,0.0
3905,62.0,40.0,30.0,1.0,0.0
3906,64.0,40.0,30.0,1.0,0.0
3907,62.0,60.0,30.0,1.0,0.0
3908,64.0,60.0,60.0,1.0,0.0
3909,62.0,156.0,60.0,1.0,0.0
3910,61.0,240.0,150.0,1.0,0.0
3911,59.0,24.0,150.0,1.0,0.0
3912,66.0,80.0,90.0,5.0,0.0
3913,57.0,60.0,420.0,1.0,0.0
3914,65.0,80.0,90.0,5.0,0.0
3915,68.0,80.0,90.0,5.0,0.0
3916,66.0,80.0,90.0,5.0,0.0
3917,64.0,20.0,90.0,5.0,0.0
3918,62.0,80.0,90.0,5.0,0.0
3919,69.0,0.0,420.0,1.0,0.0
3920,81.0,60.0,420.0,1.0,0.0
3921,61.0,80.0,90.0,5.0,0.0
3922,60.0,80.0,90.0,5.0,0.0
3923,62.0,80.0,90.0,5.0,0.0
3924,61.0,80.0,90.0,5.0,0.0
3925,59.0,20.0,90.0,5.0,0.0
3926,57.0,80.0,90.0,5.0,0.0
3927,82.0,60.0,420.0,1.0,0.0
3928,55.0,80.0,90.0,5.0,0.0
3929,70.0,7.0,420.0,1.0,0.0
3930,54.0,80.0,90.0,5.0,0.0
3931,57.0,80.0,90.0,5.0,0.0
3932,55.0,80.0,90.0,5.0,0.0
3933,54.0,13.0,90.0,5.0,0.0
3934,52.0,80.0,90.0,5.0,0.0
3935,50.0,80.0,90.0,5.0,0.0
3936,83.0,44.0,420.0,1.0,0.0
3937,71.0,0.0,420.0,1.0,0.0
3938,49.0,80.0,90.0,5.0,0.0
3939,52.0,80.0,90.0,5.0,0.0
3940,50.0,80.0,90.0,5.0,0.0
3941,49.0,20.0,90.0,5.0,0.0
3942,47.0,56.0,60.0,5.0,0.0
3943,72.0,413.0,960.0,1.0,0.0
3944,84.0,0.0,960.0,1.0,0.0
3945,45.0,40.0,30.0,5.0,0.0
3946,47.0,40.0,30.0,5.0,0.0
3947,45.0,40.0,30.0,5.0,0.0
3948,47.0,40.0,30.0,5.0,0.0
3949,45.0,40.0,30.0,5.0,0.0
3950,47.0,40.0,30.0,5.0,0.0
3951,45.0,40.0,30.0,5.0,0.0
3952,47.0,40.0,30.0,5.0,0.0
3953,45.0,60.0,30.0,5.0,0.0
3954,47.0,60.0,60.0,5.0,0.0
3955,45.0,156.0,60.0,5.0,0.0
3956,44.0,240.0,150.0,5.0,0.0
3957,42.0,84.0,150.0,5.0,0.0
3958,41.0,7.0,420.0,5.0,0.0
3959,73.0,1213.0,420.0,1.0,0.0
3960,85.0,0.0,420.0,1.0,0.0
3961,45.0,287.0,660.0,5.0,0.0
3962,57.0,0.0,660.0,5.0,0.0
3963,83.0,0.0,1140.0,1.0,0.0
3964,74.0,300.0,1140.0,2.0,0.0
3965,42.0,240.0,240.0,5.0,0.0
3966,54.0,0.0,240.0,5.0,0.0
3967,44.0,193.0,240.0,5.0,0.0
3968,56.0,0.0,240.0,5.0,0.0
3969,57.0,227.0,180.0,5.0,0.0
3970,45.0,0.0,180.0,5.0,0.0
3971,59.0,287.0,660.0,5.0,0.0
3972,47.0,0.0,660.0,5.0,0.0
3973,80.0,0.0,240.0,1.0,0.0
3974,68.0,193.0,240.0,2.0,0.0
3975,85.0,307.0,1140.0,1.0,0.0
3976,76.0,0.0,1140.0,2.0,0.0
3977,56.0,0.0,240.0,5.0,0.0
3978,44.0,240.0,240.0,5.0,0.0
3979,46.0,193.0,240.0,5.0,0.0
3980,58.0,0.0,240.0,5.0,0.0
3981,47.0,0.0,180.0,5.0,0.0
3982,59.0,220.0,180.0,5.0,0.0
3983,49.0,287.0,660.0,5.0,0.0
3984,61.0,0.0,660.0,5.0,0.0
3985,82.0,0.0,240.0,1.0,0.0
3986,70.0,193.0,240.0,2.0,0.0
3987,78.0,0.0,900.0,2.0,0.0
3988,86.0,60.0,900.0,1.0,0.0
3989,58.0,240.0,240.0,5.0,0.0
3990,46.0,0.0,240.0,5.0,0.0
3991,59.0,180.0,240.0,5.0,0.0
3992,47.0,0.0,240.0,5.0,0.0
3993,49.0,193.0,240.0,5.0,0.0
3994,61.0,0.0,240.0,5.0,0.0
3995,78.0,300.0,660.0,1.0,0.0
3996,74.0,7.0,660.0,2.0,0.0
3997,62.0,287.0,180.0,5.0,0.0
3998,50.0,0.0,180.0,5.0,0.0
3999,56.0,0.0,240.0,5.0,0.0
4000,59.0,173.0,240.0,4.0,0.0
4001,57.0,292.0,1140.0,5.0,0.0
4002,67.0,0.0,1140.0,4.0,0.0
4003,72.0,240.0,240.0,2.0,0.0
4004,75.0,0.0,240.0,1.0,0.0
4005,76.0,0.0,240.0,1.0,0.0
4006,73.0,193.0,240.0,2.0,0.0
4007,78.0,235.0,180.0,1.0,0.0
4008,75.0,0.0,180.0,2.0,0.0
4009,76.0,292.0,660.0,2.0,0.0
4010,79.0,8.0,660.0,1.0,0.0
4011,61.0,0.0,240.0,4.0,0.0
4012,58.0,180.0,240.0,5.0,0.0
4013,59.0,60.0,900.0,5.0,0.0
4014,69.0,7.0,900.0,4.0,0.0
4015,77.0,0.0,240.0,1.0,0.0
4016,74.0,240.0,240.0,2.0,0.0
4017,75.0,0.0,240.0,2.0,0.0
4018,78.0,173.0,240.0,1.0,0.0
4019,77.0,0.0,240.0,2.0,0.0
4020,80.0,193.0,240.0,1.0,0.0
4021,57.0,300.0,660.0,4.0,0.0
4022,54.0,0.0,660.0,5.0,0.0
4023,81.0,287.0,180.0,1.0,0.0
4024,78.0,0.0,180.0,2.0,0.0
4025,75.0,0.0,240.0,1.0,0.0
4026,71.0,180.0,240.0,2.0,0.0
4027,83.0,300.0,1140.0,1.0,0.0
4028,79.0,0.0,1140.0,2.0,0.0
4029,51.0,0.0,240.0,4.0,0.0
4030,54.0,240.0,240.0,5.0,0.0
4031,55.0,0.0,240.0,4.0,0.0
4032,52.0,193.0,240.0,5.0,0.0
4033,57.0,227.0,180.0,4.0,0.0
4034,54.0,0.0,180.0,5.0,0.0
4035,55.0,285.0,660.0,5.0,0.0
4036,59.0,0.0,660.0,4.0,0.0
4037,72.0,0.0,240.0,2.0,0.0
4038,76.0,195.0,240.0,1.0,0.0
4039,84.0,0.0,1140.0,1.0,0.0
4040,81.0,292.0,1140.0,2.0,0.0
4041,56.0,0.0,240.0,4.0,0.0
4042,53.0,240.0,240.0,5.0,0.0
4043,57.0,193.0,240.0,4.0,0.0
4044,54.0,0.0,240.0,5.0,0.0
4045,59.0,0.0,180.0,4.0,0.0
4046,56.0,235.0,180.0,5.0,0.0
4047,57.0,15.0,660.0,5.0,0.0
4048,60.0,270.0,690.0,4.0,0.0
4049,74.0,195.0,240.0,2.0,0.0
4050,78.0,0.0,240.0,1.0,0.0
4051,86.0,37.0,930.0,1.0,0.0
4052,83.0,15.0,900.0,2.0,0.0
4053,58.0,0.0,240.0,4.0,0.0
4054,55.0,240.0,240.0,5.0,0.0
4055,59.0,0.0,240.0,4.0,0.0
4056,56.0,188.0,240.0,5.0,0.0
4057,58.0,0.0,240.0,5.0,0.0
4058,61.0,193.0,240.0,4.0,0.0
4059,62.0,0.0,180.0,4.0,0.0
4060,59.0,287.0,180.0,5.0,0.0
4061,83.0,277.0,690.0,2.0,0.0
4062,86.0,0.0,690.0,1.0,0.0
4063,52.0,203.0,240.0,5.0,0.0
4064,56.0,0.0,240.0,4.0,0.0
4065,64.0,0.0,1140.0,4.0,0.0
4066,61.0,300.0,1140.0,5.0,0.0
4067,80.0,240.0,240.0,2.0,0.0
4068,84.0,0.0,240.0,1.0,0.0
4069,85.0,0.0,240.0,1.0,0.0
4070,82.0,193.0,240.0,2.0,0.0
4071,87.0,0.0,180.0,1.0,0.0
4072,84.0,227.0,180.0,2.0,0.0
4073,88.0,270.0,690.0,1.0,0.0
4074,85.0,0.0,690.0,2.0,0.0
4075,58.0,210.0,240.0,4.0,0.0
4076,54.0,0.0,240.0,5.0,0.0
4077,66.0,0.0,1140.0,4.0,0.0
4078,62.0,300.0,1140.0,5.0,0.0
4079,85.0,240.0,240.0,1.0,0.0
4080,82.0,0.0,240.0,2.0,0.0
4081,83.0,0.0,240.0,2.0,0.0
4082,86.0,193.0,240.0,1.0,0.0
4083,85.0,0.0,180.0,2.0,0.0
4084,88.0,227.0,180.0,1.0,0.0
4085,86.0,7.0,660.0,2.0,0.0
4086,90.0,285.0,660.0,1.0,0.0
4087,55.0,0.0,240.0,5.0,0.0
4088,59.0,188.0,240.0,4.0,0.0
4089,67.0,0.0,720.0,4.0,0.0
4090,64.0,0.0,720.0,5.0,0.0
4091,84.0,0.0,240.0,2.0,0.0
4092,87.0,240.0,240.0,1.0,0.0
4093,85.0,0.0,240.0,2.0,0.0
4094,88.0,240.0,240.0,1.0,0.0
4095,90.0,0.0,240.0,1.0,0.0
4096,86.0,0.0,240.0,2.0,0.0
4097,66.0,193.0,240.0,4.0,0.0
4098,62.0,0.0,240.0,5.0,0.0
4099,91.0,0.0,180.0,1.0,0.0
4100,61.0,0.0,240.0,5.0,0.0
4101,88.0,47.0,180.0,2.0,0.0
4102,64.0,193.0,240.0,4.0,0.0
4103,62.0,0.0,180.0,4.0,0.0
4104,88.0,0.0,180.0,2.0,0.0
4105,91.0,607.0,180.0,1.0,0.0
4106,58.0,0.0,180.0,5.0,0.0
4107,64.0,0.0,960.0,4.0,0.0
4108,57.0,0.0,960.0,5.0,0.0
4109,91.0,0.0,570.0,1.0,0.0
4110,88.0,80.0,570.0,2.0,0.0
4111,67.0,0.0,960.0,4.0,0.0
4112,61.0,0.0,960.0,4.0,0.0
4113,88.0,80.0,90.0,1.0,0.0
4114,85.0,80.0,90.0,1.0,0.0
4115,81.0,80.0,90.0,1.0,0.0
4116,79.0,80.0,90.0,1.0,0.0
4117,76.0,80.0,90.0,1.0,0.0
4118,73.0,80.0,90.0,1.0,0.0
4119,69.0,80.0,90.0,1.0,0.0
4120,67.0,80.0,90.0,1.0,0.0
4121,64.0,80.0,90.0,1.0,0.0
4122,61.0,80.0,90.0,1.0,0.0
4123,57.0,480.0,90.0,1.0,0.0
4124,45.0,1440.0,480.0,1.0,0.0
4125,74.0,480.0,480.0,1.0,0.0
4126,66.0,0.0,480.0,4.0,0.0
4127,62.0,0.0,480.0,5.0,0.0
4128,67.0,0.0,480.0,4.0,0.0
4129,73.0,410.0,480.0,1.0,0.0
4130,64.0,0.0,480.0,5.0,0.0
4131,74.0,535.0,420.0,1.0,0.0
4132,66.0,5.0,420.0,5.0,0.0
4133,69.0,10.0,420.0,4.0,0.0
4134,59.0,0.0,1380.0,5.0,0.0
4135,68.0,420.0,960.0,1.0,0.0
4136,65.0,480.0,480.0,4.0,0.0
4137,64.0,0.0,480.0,4.0,0.0
4138,62.0,240.0,960.0,4.0,0.0
4139,76.0,100.0,420.0,1.0,0.0
4140,75.0,40.0,30.0,1.0,0.0
4141,57.0,0.0,1200.0,5.0,0.0
4142,76.0,40.0,30.0,1.0,0.0
4143,78.0,360.0,30.0,1.0,0.0
4144,76.0,120.0,600.0,1.0,0.0
4145,61.0,0.0,720.0,4.0,0.0
4146,74.0,120.0,120.0,1.0,0.0
4147,73.0,120.0,120.0,1.0,0.0
4148,71.0,120.0,120.0,1.0,0.0
4149,69.0,120.0,120.0,1.0,0.0
4150,59.0,5.0,210.0,5.0,0.0
4151,67.0,80.0,120.0,1.0,0.0
4152,62.0,10.0,210.0,4.0,0.0
4153,71.0,265.0,90.0,1.0,0.0
4154,61.0,360.0,480.0,5.0,0.0
4155,69.0,40.0,240.0,1.0,0.0
4156,64.0,0.0,480.0,4.0,0.0
4157,67.0,40.0,30.0,1.0,0.0
4158,69.0,40.0,30.0,1.0,0.0
4159,67.0,30.0,30.0,1.0,0.0
4160,69.0,30.0,30.0,1.0,0.0
4161,67.0,30.0,30.0,1.0,0.0
4162,66.0,30.0,30.0,1.0,0.0
4163,67.0,0.0,30.0,1.0,0.0
4164,62.0,0.0,360.0,4.0,0.0
4165,66.0,780.0,360.0,1.0,0.0
4166,69.0,295.0,660.0,2.0,0.0
4167,78.0,5.0,660.0,1.0,0.0
4168,40.0,0.0,1380.0,5.0,0.0
4169,52.0,295.0,1380.0,5.0,0.0
4170,75.0,0.0,240.0,1.0,0.0
4171,66.0,240.0,240.0,2.0,0.0
4172,67.0,0.0,240.0,2.0,0.0
4173,76.0,240.0,240.0,1.0,0.0
4174,69.0,240.0,240.0,2.0,0.0
4175,78.0,0.0,240.0,1.0,0.0
4176,79.0,180.0,240.0,1.0,0.0
4177,71.0,0.0,240.0,2.0,0.0
4178,76.0,5.0,180.0,1.0,0.0
4179,74.0,180.0,240.0,1.0,0.0
4180,64.0,0.0,480.0,5.0,0.0
4181,67.0,240.0,480.0,4.0,0.0
4182,73.0,60.0,180.0,1.0,0.0
4183,66.0,715.0,420.0,5.0,0.0
4184,69.0,0.0,420.0,4.0,0.0
4185,76.0,180.0,240.0,1.0,0.0
4186,74.0,5.0,180.0,1.0,0.0
4187,78.0,0.0,660.0,2.0,0.0
4188,81.0,300.0,660.0,1.0,0.0
4189,43.0,300.0,1380.0,5.0,0.0
4190,55.0,0.0,1380.0,5.0,0.0
4191,75.0,0.0,240.0,2.0,0.0
4192,78.0,240.0,240.0,1.0,0.0
4193,79.0,0.0,240.0,1.0,0.0
4194,76.0,240.0,240.0,2.0,0.0
4195,81.0,240.0,240.0,1.0,0.0
4196,78.0,0.0,240.0,2.0,0.0
4197,83.0,0.0,240.0,1.0,0.0
4198,79.0,180.0,240.0,2.0,0.0
4199,76.0,0.0,180.0,2.0,0.0
4200,79.0,0.0,180.0,1.0,0.0
4201,73.0,10.0,420.0,2.0,0.0
4202,57.0,240.0,480.0,5.0,0.0
4203,67.0,0.0,480.0,4.0,0.0
4204,78.0,170.0,240.0,1.0,0.0
4205,76.0,60.0,180.0,1.0,0.0
4206,74.0,300.0,420.0,2.0,0.0
4207,66.0,0.0,420.0,4.0,0.0
4208,79.0,170.0,240.0,1.0,0.0
4209,62.0,10.0,420.0,5.0,0.0
4210,78.0,0.0,180.0,1.0,0.0
4211,76.0,10.0,420.0,2.0,0.0
4212,49.0,295.0,420.0,5.0,0.0
4213,83.0,170.0,240.0,1.0,0.0
4214,61.0,0.0,420.0,4.0,0.0
4215,81.0,5.0,180.0,1.0,0.0
4216,59.0,0.0,960.0,4.0,0.0
4217,78.0,60.0,420.0,2.0,0.0
4218,88.0,180.0,240.0,1.0,0.0
4219,47.0,0.0,960.0,5.0,0.0
4220,86.0,240.0,240.0,1.0,0.0
4221,85.0,240.0,240.0,1.0,0.0
4222,74.0,540.0,900.0,2.0,0.0
4223,83.0,240.0,240.0,1.0,0.0
4224,64.0,0.0,420.0,4.0,0.0
4225,81.0,180.0,240.0,1.0,0.0
4226,59.0,0.0,420.0,5.0,0.0
4227,80.0,0.0,180.0,1.0,0.0
4228,74.0,0.0,480.0,2.0,0.0
4229,68.0,0.0,480.0,4.0,0.0
4230,57.0,198.0,900.0,5.0,0.0
4231,83.0,405.0,480.0,1.0,0.0
4232,69.0,112.0,600.0,4.0,0.0
4233,73.0,0.0,420.0,2.0,0.0
4234,81.0,5.0,420.0,1.0,0.0
4235,71.0,120.0,120.0,4.0,0.0
4236,67.0,95.0,120.0,4.0,0.0
4237,64.0,505.0,90.0,4.0,0.0
4238,62.0,480.0,480.0,5.0,0.0
4239,61.0,425.0,480.0,5.0,0.0
4240,89.0,92.0,540.0,1.0,0.0
4241,62.0,123.0,420.0,5.0,0.0
4242,56.0,80.0,960.0,5.0,0.0
4243,87.0,80.0,90.0,1.0,0.0
4244,89.0,80.0,90.0,1.0,0.0
4245,88.0,80.0,90.0,1.0,0.0
4246,86.0,80.0,90.0,1.0,0.0
4247,85.0,80.0,90.0,1.0,0.0
4248,83.0,80.0,90.0,1.0,0.0
4249,82.0,80.0,90.0,1.0,0.0
4250,85.0,80.0,90.0,1.0,0.0
4251,83.0,80.0,90.0,1.0,0.0
4252,81.0,80.0,90.0,1.0,0.0
4253,80.0,0.0,90.0,1.0,0.0
4254,68.0,44.0,420.0,4.0,0.0
4255,77.0,80.0,90.0,1.0,0.0
4256,64.0,0.0,420.0,5.0,0.0
4257,76.0,80.0,90.0,1.0,0.0
4258,79.0,80.0,90.0,1.0,0.0
4259,77.0,80.0,90.0,1.0,0.0
4260,76.0,20.0,90.0,1.0,0.0
4261,74.0,56.0,60.0,1.0,0.0
4262,67.0,37.0,690.0,2.0,0.0
4263,63.0,40.0,30.0,5.0,0.0
4264,74.0,60.0,240.0,1.0,0.0
4265,64.0,40.0,30.0,5.0,0.0
4266,66.0,120.0,30.0,5.0,0.0
4267,64.0,0.0,600.0,5.0,0.0
4268,74.0,30.0,60.0,1.0,0.0
4269,73.0,30.0,15.0,1.0,0.0
4270,71.0,30.0,60.0,1.0,0.0
4271,73.0,30.0,15.0,1.0,0.0
4272,74.0,120.0,60.0,1.0,0.0
4273,76.0,83.0,120.0,1.0,0.0
4274,74.0,120.0,120.0,1.0,0.0
4275,76.0,0.0,450.0,1.0,0.0
4276,62.0,120.0,120.0,5.0,0.0
4277,67.0,22.0,450.0,2.0,0.0
4278,61.0,120.0,120.0,5.0,0.0
4279,59.0,98.0,120.0,5.0,0.0
4280,57.0,120.0,120.0,5.0,0.0
4281,76.0,0.0,180.0,1.0,0.0
4282,73.0,22.0,180.0,2.0,0.0
4283,55.0,73.0,120.0,5.0,0.0
4284,59.0,205.0,90.0,5.0,0.0
4285,76.0,60.0,180.0,1.0,0.0
4286,73.0,192.0,480.0,2.0,0.0
4287,57.0,0.0,240.0,5.0,0.0
4288,78.0,30.0,60.0,1.0,0.0
4289,76.0,10.0,60.0,1.0,0.0
4290,55.0,20.0,30.0,5.0,0.0
4291,75.0,20.0,60.0,1.0,0.0
4292,81.0,17.0,180.0,1.0,0.0
4293,76.0,30.0,60.0,1.0,0.0
4294,57.0,10.0,30.0,5.0,0.0
4295,55.0,30.0,30.0,5.0,0.0
4296,57.0,30.0,30.0,5.0,0.0
4297,55.0,13.0,30.0,5.0,0.0
4298,54.0,30.0,30.0,5.0,0.0
4299,55.0,0.0,30.0,5.0,0.0
4300,54.0,60.0,420.0,5.0,0.0
4301,74.0,227.0,180.0,2.0,0.0
4302,81.0,1.0,180.0,1.0,0.0
4303,69.0,240.0,240.0,1.0,0.0
4304,74.0,193.0,240.0,1.0,0.0
4305,78.0,287.0,180.0,1.0,0.0
4306,52.0,0.0,1380.0,5.0,0.0
4307,61.0,5.0,1380.0,4.0,0.0
4308,57.0,295.0,1380.0,4.0,0.0
4309,81.0,180.0,240.0,1.0,0.0
4310,55.0,0.0,1380.0,4.0,0.0
4311,79.0,180.0,180.0,1.0,0.0
4312,78.0,120.0,120.0,1.0,0.0
4313,76.0,120.0,120.0,1.0,0.0
4314,74.0,120.0,120.0,1.0,0.0
4315,73.0,240.0,120.0,1.0,0.0
4316,71.0,180.0,240.0,1.0,0.0
4317,69.0,0.0,180.0,1.0,0.0
4318,57.0,10.0,1380.0,4.0,0.0
4319,59.0,300.0,1380.0,4.0,0.0
4320,63.0,0.0,1380.0,4.0,0.0
4321,54.0,0.0,1380.0,5.0,0.0
4322,83.0,180.0,240.0,1.0,0.0
4323,81.0,180.0,180.0,1.0,0.0
4324,79.0,120.0,120.0,1.0,0.0
4325,78.0,120.0,120.0,1.0,0.0
4326,76.0,120.0,120.0,1.0,0.0
4327,75.0,240.0,120.0,1.0,0.0
4328,72.0,170.0,240.0,1.0,0.0
4329,71.0,0.0,180.0,1.0,0.0
4330,59.0,5.0,1380.0,4.0,0.0
4331,64.0,30.0,1380.0,4.0,0.0
4332,84.0,180.0,240.0,1.0,0.0
4333,55.0,0.0,1380.0,5.0,0.0
4334,83.0,180.0,180.0,1.0,0.0
4335,81.0,120.0,120.0,1.0,0.0
4336,79.0,120.0,120.0,1.0,0.0
4337,78.0,120.0,120.0,1.0,0.0
4338,76.0,120.0,120.0,1.0,0.0
4339,75.0,120.0,120.0,1.0,0.0
4340,76.0,120.0,120.0,1.0,0.0
4341,78.0,60.0,120.0,1.0,0.0
4342,79.0,385.0,90.0,1.0,0.0
4343,57.0,655.0,900.0,5.0,0.0
4344,66.0,410.0,480.0,4.0,0.0
4345,74.0,60.0,360.0,1.0,0.0
4346,76.0,60.0,60.0,1.0,0.0
4347,74.0,0.0,60.0,1.0,0.0
4348,73.0,5.0,420.0,1.0,0.0
4349,64.0,10.0,420.0,4.0,0.0
4350,74.0,360.0,120.0,1.0,0.0
4351,86.0,480.0,360.0,1.0,0.0
4352,85.0,420.0,480.0,1.0,0.0
4353,86.0,300.0,420.0,1.0,0.0
4354,81.0,300.0,1380.0,1.0,0.0
4355,68.0,120.0,120.0,5.0,0.0
4356,69.0,120.0,120.0,5.0,0.0
4357,65.0,120.0,120.0,5.0,0.0
4358,66.0,120.0,120.0,5.0,0.0
4359,61.0,120.0,120.0,5.0,0.0
4360,62.0,120.0,120.0,5.0,0.0
4361,56.0,120.0,120.0,5.0,0.0
4362,57.0,120.0,120.0,5.0,0.0
4363,53.0,120.0,120.0,5.0,0.0
4364,54.0,60.0,120.0,5.0,0.0
4365,50.0,240.0,360.0,5.0,0.0
4366,88.0,240.0,480.0,1.0,0.0
4367,49.0,240.0,480.0,5.0,0.0
4368,87.0,240.0,480.0,1.0,0.0
4369,48.0,173.0,480.0,5.0,0.0
4370,88.0,20.0,420.0,1.0,0.0
4371,49.0,287.0,180.0,5.0,0.0
4372,81.0,90.0,1230.0,1.0,0.0
4373,75.0,120.0,120.0,5.0,0.0
4374,76.0,120.0,120.0,5.0,0.0
4375,72.0,120.0,120.0,5.0,0.0
4376,73.0,120.0,120.0,5.0,0.0
4377,66.0,120.0,120.0,5.0,0.0
4378,67.0,120.0,120.0,5.0,0.0
4379,63.0,120.0,120.0,5.0,0.0
4380,64.0,120.0,120.0,5.0,0.0
4381,60.0,30.0,120.0,5.0,0.0
4382,88.0,225.0,480.0,1.0,0.0
4383,61.0,96.0,120.0,5.0,0.0
4384,55.0,279.0,90.0,5.0,0.0
4385,54.0,240.0,480.0,5.0,0.0
4386,87.0,240.0,480.0,1.0,0.0
4387,53.0,240.0,480.0,5.0,0.0
4388,86.0,188.0,480.0,1.0,0.0
4389,54.0,5.0,420.0,5.0,0.0
4390,87.0,287.0,180.0,1.0,0.0
4391,48.0,0.0,1380.0,4.0,0.0
4392,45.0,10.0,1380.0,5.0,0.0
4393,54.0,30.0,1380.0,4.0,0.0
4394,51.0,5.0,1380.0,4.0,0.0
4395,81.0,120.0,120.0,1.0,0.0
4396,84.0,120.0,120.0,1.0,0.0
4397,78.0,120.0,120.0,1.0,0.0
4398,81.0,120.0,120.0,1.0,0.0
4399,75.0,120.0,120.0,1.0,0.0
4400,78.0,120.0,120.0,1.0,0.0
4401,72.0,120.0,120.0,1.0,0.0
4402,75.0,120.0,120.0,1.0,0.0
4403,69.0,120.0,120.0,1.0,0.0
4404,72.0,50.0,120.0,1.0,0.0
4405,66.0,265.0,90.0,1.0,0.0
4406,51.0,30.0,1380.0,4.0,0.0
4407,43.0,10.0,1380.0,5.0,0.0
4408,48.0,5.0,1380.0,4.0,0.0
4409,55.0,0.0,1380.0,4.0,0.0
4410,79.0,120.0,120.0,1.0,0.0
4411,84.0,120.0,120.0,1.0,0.0
4412,75.0,120.0,120.0,1.0,0.0
4413,79.0,120.0,120.0,1.0,0.0
4414,72.0,120.0,120.0,1.0,0.0
4415,75.0,120.0,120.0,1.0,0.0
4416,67.0,120.0,120.0,1.0,0.0
4417,72.0,120.0,120.0,1.0,0.0
4418,63.0,120.0,120.0,1.0,0.0
4419,67.0,50.0,120.0,1.0,0.0
4420,60.0,265.0,90.0,1.0,0.0
4421,41.0,0.0,1380.0,5.0,0.0
4422,47.0,0.0,1380.0,4.0,0.0
4423,50.0,0.0,1380.0,4.0,0.0
4424,44.0,35.0,1380.0,4.0,0.0
4425,83.0,120.0,120.0,1.0,0.0
4426,86.0,120.0,120.0,1.0,0.0
4427,80.0,120.0,120.0,1.0,0.0
4428,83.0,120.0,120.0,1.0,0.0
4429,74.0,120.0,120.0,1.0,0.0
4430,80.0,120.0,120.0,1.0,0.0
4431,71.0,120.0,120.0,1.0,0.0
4432,74.0,120.0,120.0,1.0,0.0
4433,68.0,120.0,120.0,1.0,0.0
4434,71.0,60.0,120.0,1.0,0.0
4435,62.0,145.0,90.0,1.0,0.0
4436,42.0,120.0,120.0,5.0,0.0
4437,45.0,120.0,120.0,4.0,0.0
4438,50.0,95.0,120.0,4.0,0.0
4439,54.0,145.0,90.0,4.0,0.0
4440,57.0,120.0,120.0,1.0,0.0
4441,62.0,120.0,120.0,1.0,0.0
4442,66.0,95.0,120.0,1.0,0.0
4443,69.0,265.0,90.0,1.0,0.0
4444,43.0,0.0,240.0,5.0,0.0
4445,59.0,120.0,120.0,1.0,0.0
4446,62.0,95.0,120.0,1.0,0.0
4447,71.0,145.0,90.0,1.0,0.0
4448,45.0,120.0,120.0,1.0,0.0
4449,50.0,120.0,120.0,1.0,0.0
4450,54.0,95.0,120.0,1.0,0.0
4451,57.0,145.0,90.0,1.0,0.0
4452,66.0,120.0,120.0,1.0,0.0
4453,69.0,120.0,120.0,1.0,0.0
4454,74.0,95.0,120.0,1.0,0.0
4455,78.0,255.0,90.0,1.0,0.0
4456,33.0,10.0,240.0,5.0,0.0
4457,64.0,120.0,120.0,1.0,0.0
4458,67.0,95.0,120.0,1.0,0.0
4459,73.0,265.0,90.0,1.0,0.0
4460,62.0,14.0,1410.0,5.0,0.0
4461,66.0,180.0,240.0,4.0,0.0
4462,74.0,60.0,420.0,1.0,0.0
4463,69.0,240.0,240.0,4.0,0.0
4464,66.0,240.0,240.0,4.0,0.0
4465,69.0,80.0,240.0,4.0,0.0
4466,64.0,0.0,240.0,4.0,0.0
4467,86.0,80.0,90.0,1.0,0.0
4468,67.0,80.0,240.0,4.0,0.0
4469,85.0,80.0,90.0,1.0,0.0
4470,88.0,0.0,90.0,1.0,0.0
4471,86.0,80.0,90.0,1.0,0.0
4472,69.0,17.0,180.0,4.0,0.0
4473,85.0,33.0,90.0,1.0,0.0
4474,83.0,256.0,60.0,1.0,0.0
4475,66.0,240.0,240.0,4.0,0.0
4476,62.0,14.0,1410.0,5.0,0.0
4477,81.0,92.0,540.0,1.0,0.0
4478,69.0,68.0,240.0,4.0,0.0
4479,66.0,80.0,240.0,4.0,0.0
4480,80.0,80.0,90.0,1.0,0.0
4481,83.0,0.0,90.0,1.0,0.0
4482,69.0,0.0,240.0,4.0,0.0
4483,81.0,80.0,90.0,1.0,0.0
4484,79.0,80.0,90.0,1.0,0.0
4485,78.0,80.0,90.0,1.0,0.0
4486,67.0,0.0,240.0,4.0,0.0
4487,76.0,80.0,90.0,1.0,0.0
4488,75.0,80.0,90.0,1.0,0.0
4489,78.0,80.0,90.0,1.0,0.0
4490,76.0,80.0,90.0,1.0,0.0
4491,69.0,17.0,180.0,4.0,0.0
4492,74.0,33.0,90.0,1.0,0.0
4493,73.0,256.0,60.0,1.0,0.0
4494,64.0,240.0,240.0,4.0,0.0
4495,62.0,21.0,1410.0,5.0,0.0
4496,73.0,0.0,240.0,4.0,0.0
4497,79.0,193.0,480.0,1.0,0.0
4498,69.0,0.0,240.0,4.0,0.0
4499,66.0,0.0,240.0,4.0,0.0
4500,78.0,47.0,180.0,1.0,0.0
4501,74.0,240.0,240.0,4.0,0.0
4502,69.0,80.0,240.0,4.0,0.0
4503,86.0,80.0,90.0,1.0,0.0
4504,64.0,0.0,240.0,4.0,0.0
4505,67.0,80.0,240.0,4.0,0.0
4506,85.0,80.0,90.0,1.0,0.0
4507,88.0,0.0,90.0,1.0,0.0
4508,69.0,10.0,180.0,4.0,0.0
4509,86.0,80.0,90.0,1.0,0.0
4510,85.0,33.0,90.0,1.0,0.0
4511,83.0,256.0,60.0,1.0,0.0
4512,81.0,92.0,540.0,1.0,0.0
4513,66.0,240.0,240.0,4.0,0.0
4514,62.0,14.0,1410.0,5.0,0.0
4515,69.0,68.0,240.0,4.0,0.0
4516,66.0,0.0,240.0,4.0,0.0
4517,80.0,80.0,90.0,1.0,0.0
4518,83.0,80.0,90.0,1.0,0.0
4519,69.0,80.0,240.0,4.0,0.0
4520,81.0,80.0,90.0,1.0,0.0
4521,79.0,80.0,90.0,1.0,0.0
4522,78.0,0.0,90.0,1.0,0.0
4523,76.0,80.0,90.0,1.0,0.0
4524,67.0,80.0,240.0,4.0,0.0
4525,75.0,80.0,90.0,1.0,0.0
4526,78.0,0.0,90.0,1.0,0.0
4527,76.0,80.0,90.0,1.0,0.0
4528,69.0,17.0,180.0,4.0,0.0
4529,74.0,33.0,90.0,1.0,0.0
4530,73.0,496.0,60.0,1.0,0.0
4531,62.0,47.0,660.0,5.0,0.0
4532,83.0,80.0,480.0,1.0,0.0
4533,73.0,0.0,480.0,4.0,0.0
4534,67.0,0.0,480.0,4.0,0.0
4535,66.0,0.0,180.0,4.0,0.0
4536,74.0,0.0,180.0,4.0,0.0
4537,81.0,80.0,90.0,1.0,0.0
4538,80.0,33.0,90.0,1.0,0.0
4539,83.0,80.0,90.0,1.0,0.0
4540,81.0,80.0,90.0,1.0,0.0
4541,79.0,80.0,90.0,1.0,0.0
4542,78.0,80.0,90.0,1.0,0.0
4543,76.0,80.0,90.0,1.0,0.0
4544,75.0,80.0,90.0,1.0,0.0
4545,78.0,80.0,90.0,1.0,0.0
4546,76.0,80.0,90.0,1.0,0.0
4547,74.0,64.0,90.0,1.0,0.0
4548,73.0,496.0,60.0,1.0,0.0
4549,62.0,0.0,660.0,5.0,0.0
4550,73.0,0.0,480.0,4.0,0.0
4551,67.0,0.0,480.0,4.0,0.0
4552,82.0,80.0,480.0,1.0,0.0
4553,81.0,80.0,90.0,1.0,0.0
4554,74.0,47.0,180.0,4.0,0.0
4555,65.0,0.0,180.0,4.0,0.0
4556,80.0,33.0,90.0,1.0,0.0
4557,83.0,80.0,90.0,1.0,0.0
4558,81.0,80.0,90.0,1.0,0.0
4559,79.0,80.0,90.0,1.0,0.0
4560,77.0,80.0,90.0,1.0,0.0
4561,76.0,80.0,90.0,1.0,0.0
4562,74.0,80.0,90.0,1.0,0.0
4563,77.0,80.0,90.0,1.0,0.0
4564,76.0,80.0,90.0,1.0,0.0
4565,74.0,64.0,90.0,1.0,0.0
4566,72.0,496.0,60.0,1.0,0.0
4567,86.0,193.0,480.0,1.0,0.0
4568,70.0,13.0,1380.0,4.0,0.0
4569,67.0,0.0,1380.0,4.0,0.0
4570,64.0,653.0,1380.0,5.0,0.0
4571,84.0,240.0,180.0,1.0,0.0
4572,84.0,240.0,180.0,1.0,0.0
4573,84.0,227.0,180.0,1.0,0.0
4574,84.0,2.0,180.0,1.0,0.0
4575,69.0,0.0,900.0,4.0,0.0
4576,84.0,52.0,600.0,1.0,0.0
4577,65.0,52.0,900.0,5.0,0.0
4578,86.0,60.0,60.0,1.0,0.0
4579,84.0,60.0,60.0,1.0,0.0
4580,82.0,60.0,60.0,1.0,0.0
4581,81.0,60.0,60.0,1.0,0.0
4582,79.0,8.0,60.0,1.0,0.0
4583,77.0,120.0,60.0,1.0,0.0
4584,70.0,262.0,450.0,4.0,0.0
4585,75.0,39.0,120.0,1.0,0.0
4586,67.0,0.0,450.0,5.0,0.0
4587,77.0,30.0,30.0,1.0,0.0
4588,75.0,30.0,30.0,1.0,0.0
4589,74.0,30.0,30.0,1.0,0.0
4590,75.0,111.0,30.0,1.0,0.0
4591,79.0,96.0,120.0,1.0,0.0
4592,82.0,2.0,90.0,1.0,0.0
4593,74.0,0.0,720.0,1.0,0.0
4594,65.0,240.0,240.0,3.0,0.0
4595,57.0,165.0,1380.0,5.0,0.0
4596,66.0,240.0,240.0,3.0,0.0
4597,67.0,60.0,240.0,3.0,0.0
4598,76.0,60.0,60.0,1.0,0.0
4599,68.0,240.0,240.0,3.0,0.0
4600,74.0,60.0,60.0,1.0,0.0
4601,73.0,60.0,60.0,1.0,0.0
4602,74.0,0.0,60.0,1.0,0.0
4603,77.0,0.0,240.0,1.0,0.0
4604,69.0,193.0,240.0,3.0,0.0
4605,76.0,0.0,180.0,1.0,0.0
4606,67.0,2.0,180.0,3.0,0.0
4607,62.0,53.0,960.0,5.0,0.0
4608,74.0,120.0,120.0,1.0,0.0
4609,66.0,240.0,240.0,3.0,0.0
4610,90.0,67.0,900.0,1.0,0.0
4611,69.0,240.0,240.0,3.0,0.0
4612,66.0,240.0,240.0,3.0,0.0
4613,69.0,0.0,240.0,3.0,0.0
4614,55.0,33.0,420.0,5.0,0.0
4615,64.0,60.0,240.0,3.0,0.0
4616,88.0,60.0,60.0,1.0,0.0
4617,91.0,60.0,60.0,1.0,0.0
4618,90.0,0.0,60.0,1.0,0.0
4619,88.0,60.0,60.0,1.0,0.0
4620,67.0,2.0,180.0,3.0,0.0
4621,86.0,60.0,60.0,1.0,0.0
4622,85.0,13.0,60.0,1.0,0.0
4623,83.0,252.0,60.0,1.0,0.0
4624,57.0,120.0,960.0,5.0,0.0
4625,62.0,240.0,240.0,3.0,0.0
4626,81.0,120.0,600.0,1.0,0.0
4627,66.0,120.0,240.0,3.0,0.0
4628,62.0,120.0,240.0,3.0,0.0
4629,86.0,0.0,120.0,1.0,0.0
4630,66.0,0.0,240.0,3.0,0.0
4631,78.0,120.0,120.0,1.0,0.0
4632,83.0,0.0,120.0,1.0,0.0
4633,81.0,120.0,120.0,1.0,0.0
4634,57.0,13.0,450.0,5.0,0.0
4635,61.0,0.0,240.0,3.0,0.0
4636,79.0,120.0,120.0,1.0,0.0
4637,76.0,73.0,120.0,1.0,0.0
4638,64.0,10.0,180.0,3.0,0.0
4639,73.0,264.0,90.0,1.0,0.0
4640,66.0,240.0,240.0,3.0,0.0
4641,90.0,67.0,1020.0,1.0,0.0
4642,62.0,240.0,480.0,5.0,0.0
4643,69.0,0.0,240.0,3.0,0.0
4644,64.0,240.0,240.0,3.0,0.0
4645,58.0,53.0,480.0,5.0,0.0
4646,66.0,0.0,240.0,3.0,0.0
4647,59.0,0.0,240.0,5.0,0.0
4648,62.0,60.0,240.0,3.0,0.0
4649,88.0,60.0,60.0,1.0,0.0
4650,91.0,60.0,60.0,1.0,0.0
4651,90.0,0.0,60.0,1.0,0.0
4652,88.0,60.0,60.0,1.0,0.0
4653,56.0,35.0,180.0,5.0,0.0
4654,65.0,0.0,180.0,3.0,0.0
4655,86.0,60.0,60.0,1.0,0.0
4656,85.0,13.0,60.0,1.0,0.0
4657,83.0,252.0,60.0,1.0,0.0
4658,81.0,52.0,540.0,1.0,0.0
4659,66.0,240.0,240.0,3.0,0.0
4660,69.0,68.0,240.0,3.0,0.0
4661,62.0,0.0,240.0,3.0,0.0
4662,82.0,60.0,60.0,1.0,0.0
4663,85.0,60.0,60.0,1.0,0.0
4664,83.0,60.0,60.0,1.0,0.0
4665,66.0,0.0,240.0,3.0,0.0
4666,81.0,60.0,60.0,1.0,0.0
4667,79.0,60.0,60.0,1.0,0.0
4668,78.0,60.0,60.0,1.0,0.0
4669,76.0,60.0,60.0,1.0,0.0
4670,74.0,60.0,60.0,1.0,0.0
4671,57.0,0.0,15.0,5.0,0.0
4672,64.0,0.0,240.0,3.0,0.0
4673,73.0,60.0,60.0,1.0,0.0
4674,79.0,60.0,60.0,1.0,0.0
4675,78.0,60.0,60.0,1.0,0.0
4676,67.0,2.0,180.0,3.0,0.0
4677,81.0,60.0,60.0,1.0,0.0
4678,79.0,60.0,60.0,1.0,0.0
4679,76.0,13.0,60.0,1.0,0.0
4680,73.0,92.0,60.0,1.0,0.0
4681,74.0,80.0,90.0,1.0,0.0
4682,66.0,8.0,450.0,3.0,0.0
4683,62.0,22.0,450.0,5.0,0.0
4684,73.0,80.0,90.0,1.0,0.0
4685,76.0,80.0,90.0,1.0,0.0
4686,74.0,80.0,90.0,1.0,0.0
4687,73.0,50.0,90.0,1.0,0.0
4688,71.0,80.0,90.0,1.0,0.0
4689,69.0,80.0,90.0,1.0,0.0
4690,68.0,80.0,90.0,1.0,0.0
4691,71.0,80.0,90.0,1.0,0.0
4692,69.0,80.0,90.0,1.0,0.0
4693,67.0,80.0,90.0,1.0,0.0
4694,66.0,80.0,90.0,1.0,0.0
4695,64.0,80.0,90.0,1.0,0.0
4696,63.0,80.0,90.0,1.0,0.0
4697,66.0,80.0,90.0,1.0,0.0
4698,64.0,80.0,90.0,1.0,0.0
4699,62.0,76.0,90.0,1.0,0.0
4700,61.0,495.0,90.0,1.0,0.0
4701,49.0,218.0,930.0,5.0,0.0
4702,59.0,182.0,480.0,1.0,0.0
4703,55.0,5.0,930.0,4.0,0.0
4704,57.0,240.0,180.0,1.0,0.0
4705,81.0,17.0,180.0,1.0,0.0
4706,81.0,232.0,180.0,1.0,0.0
4707,67.0,5.0,420.0,4.0,0.0
4708,61.0,3.0,420.0,5.0,0.0
4709,81.0,107.0,180.0,1.0,0.0
4710,81.0,33.0,60.0,1.0,0.0
4711,62.0,35.0,180.0,5.0,0.0
4712,66.0,0.0,180.0,4.0,0.0
4713,83.0,20.0,30.0,1.0,0.0
4714,81.0,20.0,30.0,1.0,0.0
4715,80.0,47.0,30.0,1.0,0.0
4716,81.0,13.0,60.0,1.0,0.0
4717,86.0,72.0,60.0,1.0,0.0
4718,67.0,35.0,180.0,4.0,0.0
4719,76.0,33.0,60.0,1.0,0.0
4720,55.0,0.0,180.0,5.0,0.0
4721,78.0,20.0,30.0,1.0,0.0
4722,76.0,20.0,30.0,1.0,0.0
4723,75.0,42.0,30.0,1.0,0.0
4724,76.0,18.0,60.0,1.0,0.0
4725,83.0,252.0,60.0,1.0,0.0
4726,74.0,60.0,240.0,1.0,0.0
4727,57.0,55.0,420.0,5.0,0.0
4728,66.0,5.0,420.0,4.0,0.0
4729,76.0,60.0,60.0,1.0,0.0
4730,74.0,55.0,60.0,1.0,0.0
4731,73.0,5.0,60.0,1.0,0.0
4732,74.0,240.0,60.0,1.0,0.0
4733,58.0,115.0,450.0,5.0,0.0
4734,73.0,5.0,450.0,1.0,0.0
4735,78.0,193.0,240.0,1.0,0.0
4736,67.0,5.0,420.0,4.0,0.0
4737,76.0,2.0,180.0,1.0,0.0
4738,66.0,5.0,420.0,4.0,0.0
4739,59.0,80.0,90.0,5.0,0.0
4740,74.0,55.0,420.0,1.0,0.0
4741,58.0,80.0,90.0,5.0,0.0
4742,61.0,80.0,90.0,5.0,0.0
4743,59.0,80.0,90.0,5.0,0.0
4744,57.0,20.0,90.0,5.0,0.0
4745,55.0,80.0,90.0,5.0,0.0
4746,54.0,80.0,90.0,5.0,0.0
4747,52.0,80.0,90.0,5.0,0.0
4748,55.0,80.0,90.0,5.0,0.0
4749,54.0,80.0,90.0,5.0,0.0
4750,52.0,80.0,90.0,5.0,0.0
4751,50.0,80.0,90.0,5.0,0.0
4752,48.0,80.0,90.0,5.0,0.0
4753,47.0,80.0,90.0,5.0,0.0
4754,50.0,80.0,90.0,5.0,0.0
4755,48.0,80.0,90.0,5.0,0.0
4756,47.0,80.0,90.0,5.0,0.0
4757,45.0,480.0,90.0,5.0,0.0
4758,43.0,193.0,480.0,5.0,0.0
4759,83.0,0.0,480.0,1.0,0.0
4760,74.0,0.0,480.0,2.0,0.0
4761,75.0,0.0,180.0,2.0,0.0
4762,84.0,0.0,180.0,1.0,0.0
4763,42.0,240.0,180.0,5.0,0.0
4764,42.0,240.0,180.0,5.0,0.0
4765,75.0,0.0,180.0,2.0,0.0
4766,84.0,0.0,180.0,1.0,0.0
4767,42.0,0.0,180.0,5.0,0.0
4768,75.0,240.0,180.0,2.0,0.0
4769,84.0,0.0,180.0,1.0,0.0
4770,42.0,107.0,180.0,5.0,0.0
4771,84.0,0.0,180.0,1.0,0.0
4772,75.0,0.0,180.0,2.0,0.0
4773,76.0,47.0,180.0,2.0,0.0
4774,43.0,0.0,180.0,5.0,0.0
4775,82.0,60.0,60.0,1.0,0.0
4776,83.0,60.0,60.0,1.0,0.0
4777,85.0,13.0,60.0,1.0,0.0
4778,83.0,60.0,60.0,1.0,0.0
4779,81.0,60.0,60.0,1.0,0.0
4780,79.0,60.0,60.0,1.0,0.0
4781,78.0,48.0,60.0,1.0,0.0
4782,76.0,252.0,60.0,1.0,0.0
4783,69.0,0.0,480.0,4.0,0.0
4784,66.0,240.0,480.0,4.0,0.0
4785,57.0,5.0,900.0,5.0,0.0
4786,74.0,60.0,240.0,1.0,0.0
4787,76.0,60.0,60.0,1.0,0.0
4788,74.0,60.0,60.0,1.0,0.0
4789,73.0,60.0,60.0,1.0,0.0
4790,74.0,0.0,60.0,1.0,0.0
4791,73.0,93.0,450.0,2.0,0.0
4792,78.0,190.0,240.0,1.0,0.0
4793,67.0,3.0,420.0,4.0,0.0
4794,76.0,2.0,180.0,1.0,0.0
4795,74.0,80.0,60.0,1.0,0.0
4796,66.0,0.0,180.0,4.0,0.0
4797,62.0,20.0,180.0,5.0,0.0
4798,93.0,60.0,60.0,1.0,0.0
4799,90.0,80.0,60.0,1.0,0.0
4800,86.0,80.0,60.0,1.0,0.0
4801,81.0,80.0,60.0,1.0,0.0
4802,78.0,160.0,60.0,1.0,0.0
4803,74.0,20.0,180.0,1.0,0.0
4804,50.0,60.0,60.0,5.0,0.0
4805,54.0,80.0,60.0,5.0,0.0
4806,57.0,80.0,60.0,5.0,0.0
4807,62.0,80.0,60.0,5.0,0.0
4808,66.0,80.0,60.0,5.0,0.0
4809,69.0,107.0,60.0,5.0,0.0
4810,73.0,80.0,90.0,1.0,0.0
4811,76.0,80.0,90.0,1.0,0.0
4812,79.0,80.0,90.0,1.0,0.0
4813,76.0,80.0,90.0,1.0,0.0
4814,73.0,53.0,90.0,1.0,0.0
4815,74.0,80.0,60.0,1.0,0.0
4816,62.0,20.0,180.0,1.0,0.0
4817,81.0,60.0,60.0,1.0,0.0
4818,78.0,80.0,60.0,1.0,0.0
4819,74.0,80.0,60.0,1.0,0.0
4820,69.0,80.0,60.0,1.0,0.0
4821,66.0,80.0,60.0,1.0,0.0
4822,62.0,80.0,60.0,1.0,0.0
4823,38.0,80.0,60.0,5.0,0.0
4824,42.0,80.0,60.0,5.0,0.0
4825,45.0,80.0,60.0,5.0,0.0
4826,50.0,80.0,60.0,5.0,0.0
4827,54.0,187.0,60.0,5.0,0.0
4828,57.0,47.0,180.0,5.0,0.0
4829,61.0,33.0,90.0,1.0,0.0
4830,64.0,80.0,90.0,1.0,0.0
4831,67.0,80.0,90.0,1.0,0.0
4832,64.0,64.0,90.0,1.0,0.0
4833,61.0,496.0,60.0,1.0,0.0
4834,61.0,240.0,480.0,3.0,0.0
4835,57.0,3360.0,720.0,3.0,0.0
4836,55.0,0.0,480.0,3.0,0.0
4837,38.0,0.0,720.0,5.0,0.0
4838,50.0,0.0,720.0,5.0,0.0
4839,64.0,0.0,480.0,1.0,0.0
4840,54.0,0.0,240.0,3.0,0.0
4841,62.0,0.0,240.0,1.0,0.0
4842,73.0,240.0,720.0,4.0,0.0
4843,81.0,720.0,960.0,1.0,0.0
4844,76.0,0.0,480.0,3.0,0.0
4845,85.0,306.0,900.0,1.0,0.0
4846,69.0,180.0,720.0,4.0,0.0
4847,76.0,0.0,420.0,3.0,0.0
4848,74.0,192.0,720.0,4.0,0.0
4849,85.0,186.0,240.0,1.0,0.0
4850,83.0,288.0,180.0,1.0,0.0
4851,76.0,720.0,480.0,3.0,0.0
4852,83.0,0.0,240.0,1.0,0.0
4853,80.0,48.0,180.0,1.0,0.0
4854,81.0,186.0,720.0,1.0,0.0
4855,73.0,0.0,720.0,4.0,0.0
4856,76.0,6.0,420.0,3.0,0.0
4857,85.0,288.0,180.0,1.0,0.0
4858,85.0,192.0,240.0,1.0,0.0
4859,74.0,192.0,720.0,4.0,0.0
4860,83.0,288.0,180.0,1.0,0.0
4861,83.0,0.0,240.0,1.0,0.0
4862,76.0,714.0,480.0,3.0,0.0
4863,80.0,54.0,180.0,1.0,0.0
4864,81.0,0.0,720.0,1.0,0.0
4865,73.0,120.0,720.0,4.0,0.0
4866,76.0,72.0,360.0,3.0,0.0
4867,85.0,288.0,180.0,1.0,0.0
4868,71.0,240.0,480.0,4.0,0.0
4869,76.0,12.0,1860.0,3.0,0.0
4870,88.0,192.0,240.0,1.0,0.0
4871,86.0,48.0,180.0,1.0,0.0
4872,68.0,240.0,480.0,4.0,0.0
4873,86.0,192.0,240.0,1.0,0.0
4874,83.0,48.0,180.0,1.0,0.0
4875,69.0,240.0,480.0,4.0,0.0
4876,86.0,192.0,240.0,1.0,0.0
4877,85.0,48.0,180.0,1.0,0.0
4878,85.0,180.0,240.0,1.0,0.0
4879,73.0,278.0,450.0,4.0,0.0
4880,81.0,10.0,180.0,1.0,0.0
4881,74.0,240.0,480.0,4.0,0.0
4882,78.0,74.0,240.0,1.0,0.0
4883,80.0,82.0,60.0,1.0,0.0
4884,78.0,84.0,90.0,1.0,0.0
4885,77.0,0.0,90.0,1.0,0.0
4886,62.0,0.0,480.0,5.0,0.0
4887,78.0,240.0,240.0,1.0,0.0
4888,80.0,480.0,240.0,1.0,0.0
4889,66.0,480.0,480.0,5.0,0.0
4890,81.0,0.0,480.0,1.0,0.0
4891,83.0,480.0,480.0,1.0,0.0
4892,63.0,0.0,480.0,5.0,0.0
4893,69.0,240.0,960.0,4.0,0.0
4894,64.0,230.0,1410.0,5.0,0.0
4895,76.0,224.0,1170.0,1.0,0.0
4896,68.0,240.0,240.0,4.0,0.0
4897,66.0,202.0,240.0,4.0,0.0
4898,68.0,6.0,420.0,4.0,0.0
4899,77.0,10.0,180.0,1.0,0.0
4900,78.0,240.0,180.0,1.0,0.0
4901,80.0,768.0,180.0,1.0,0.0
4902,81.0,720.0,960.0,1.0,0.0
4903,73.0,240.0,720.0,4.0,0.0
4904,76.0,0.0,480.0,3.0,0.0
4905,69.0,186.0,720.0,4.0,0.0
4906,85.0,294.0,900.0,1.0,0.0
4907,76.0,0.0,420.0,3.0,0.0
4908,85.0,192.0,240.0,1.0,0.0
4909,74.0,192.0,720.0,4.0,0.0
4910,83.0,288.0,180.0,1.0,0.0
4911,76.0,720.0,480.0,3.0,0.0
4912,83.0,0.0,240.0,1.0,0.0
4913,80.0,48.0,180.0,1.0,0.0
4914,81.0,186.0,720.0,1.0,0.0
4915,73.0,0.0,720.0,4.0,0.0
4916,76.0,6.0,420.0,3.0,0.0
4917,85.0,288.0,180.0,1.0,0.0
4918,74.0,192.0,720.0,4.0,0.0
4919,85.0,192.0,240.0,1.0,0.0
4920,83.0,288.0,180.0,1.0,0.0
4921,83.0,0.0,240.0,1.0,0.0
4922,76.0,720.0,480.0,3.0,0.0
4923,80.0,48.0,180.0,1.0,0.0
4924,73.0,0.0,720.0,4.0,0.0
4925,81.0,186.0,720.0,1.0,0.0
4926,76.0,6.0,420.0,3.0,0.0
4927,85.0,288.0,180.0,1.0,0.0
4928,71.0,240.0,480.0,4.0,0.0
4929,76.0,6.0,1860.0,3.0,0.0
4930,88.0,192.0,240.0,1.0,0.0
4931,86.0,48.0,180.0,1.0,0.0
4932,86.0,192.0,240.0,1.0,0.0
4933,68.0,240.0,480.0,4.0,0.0
4934,83.0,48.0,180.0,1.0,0.0
4935,69.0,240.0,480.0,4.0,0.0
4936,86.0,192.0,240.0,1.0,0.0
4937,85.0,48.0,180.0,1.0,0.0
4938,66.0,0.0,420.0,4.0,0.0
4939,85.0,186.0,240.0,1.0,0.0
4940,81.0,288.0,180.0,1.0,0.0
4941,78.0,74.0,240.0,1.0,0.0
4942,62.0,0.0,960.0,5.0,0.0
4943,80.0,82.0,60.0,1.0,0.0
4944,78.0,84.0,90.0,1.0,0.0
4945,77.0,240.0,90.0,1.0,0.0
4946,78.0,240.0,240.0,1.0,0.0
4947,74.0,246.0,480.0,4.0,0.0
4948,83.0,0.0,240.0,1.0,0.0
4949,81.0,234.0,240.0,1.0,0.0
4950,64.0,14.0,720.0,5.0,0.0
4951,73.0,232.0,480.0,4.0,0.0
4952,74.0,8.0,240.0,2.0,0.0
4953,71.0,600.0,360.0,4.0,0.0
4954,80.0,106.0,240.0,1.0,0.0
4955,69.0,480.0,480.0,5.0,0.0
4956,74.0,14.0,960.0,2.0,0.0
4957,80.0,406.0,960.0,1.0,0.0
4958,64.0,0.0,480.0,5.0,0.0
4959,81.0,0.0,420.0,1.0,0.0
4960,73.0,1246.0,420.0,2.0,0.0
4961,57.0,14.0,420.0,5.0,0.0
4962,83.0,720.0,960.0,1.0,0.0
4963,68.0,180.0,720.0,4.0,0.0
4964,76.0,60.0,420.0,3.0,0.0
4965,85.0,0.0,900.0,1.0,0.0
4966,69.0,180.0,720.0,4.0,0.0
4967,76.0,306.0,420.0,3.0,0.0
4968,83.0,186.0,240.0,1.0,0.0
4969,71.0,0.0,720.0,4.0,0.0
4970,81.0,288.0,180.0,1.0,0.0
4971,75.0,720.0,480.0,3.0,0.0
4972,81.0,192.0,240.0,1.0,0.0
4973,80.0,48.0,180.0,1.0,0.0
4974,73.0,186.0,720.0,4.0,0.0
4975,80.0,0.0,900.0,1.0,0.0
4976,76.0,774.0,420.0,3.0,0.0
4977,83.0,0.0,720.0,1.0,0.0
4978,68.0,192.0,720.0,4.0,0.0
4979,76.0,246.0,480.0,3.0,0.0
4980,88.0,48.0,180.0,1.0,0.0
4981,69.0,134.0,720.0,4.0,0.0
4982,87.0,174.0,240.0,1.0,0.0
4983,85.0,300.0,180.0,1.0,0.0
4984,76.0,300.0,420.0,3.0,0.0
4985,85.0,46.0,120.0,1.0,0.0
4986,71.0,126.0,720.0,4.0,0.0
4987,83.0,180.0,240.0,1.0,0.0
4988,81.0,300.0,180.0,1.0,0.0
4989,75.0,234.0,480.0,3.0,0.0
4990,81.0,120.0,120.0,1.0,0.0
4991,79.0,180.0,240.0,1.0,0.0
4992,73.0,134.0,720.0,4.0,0.0
4993,80.0,300.0,180.0,1.0,0.0
4994,76.0,300.0,420.0,3.0,0.0
4995,80.0,46.0,120.0,1.0,0.0
4996,69.0,126.0,960.0,4.0,0.0
4997,73.0,0.0,960.0,3.0,0.0
4998,78.0,82.0,240.0,1.0,0.0
4999,80.0,83.0,90.0,1.0,0.0
5000,78.0,75.0,90.0,1.0,0.0
5001,77.0,120.0,90.0,1.0,0.0
5002,78.0,246.0,120.0,1.0,0.0
5003,80.0,114.0,120.0,1.0,0.0
5004,81.0,240.0,120.0,1.0,0.0
5005,83.0,248.0,120.0,1.0,0.0
5006,84.0,232.0,120.0,1.0,0.0
5007,85.0,834.0,120.0,1.0,0.0
5008,59.0,0.0,1380.0,5.0,0.0
5009,68.0,0.0,960.0,4.0,0.0
5010,76.0,120.0,720.0,1.0,0.0
5011,78.0,120.0,120.0,1.0,0.0
5012,76.0,240.0,120.0,1.0,0.0
5013,66.0,174.0,420.0,4.0,0.0
5014,75.0,134.0,240.0,1.0,0.0
5015,76.0,52.0,120.0,1.0,0.0
5016,78.0,246.0,120.0,1.0,0.0
5017,80.0,834.0,120.0,1.0,0.0
5018,81.0,720.0,960.0,1.0,0.0
5019,61.0,240.0,720.0,4.0,0.0
5020,64.0,0.0,480.0,3.0,0.0
5021,59.0,180.0,720.0,4.0,0.0
5022,80.0,194.0,900.0,1.0,0.0
5023,64.0,0.0,420.0,3.0,0.0
5024,59.0,60.0,720.0,4.0,0.0
5025,57.0,426.0,960.0,5.0,0.0
5026,78.0,166.0,120.0,1.0,0.0
5027,80.0,134.0,120.0,1.0,0.0
5028,81.0,172.0,120.0,1.0,0.0
5029,83.0,114.0,120.0,1.0,0.0
5030,66.0,0.0,480.0,3.0,0.0
5031,85.0,120.0,120.0,1.0,0.0
5032,87.0,60.0,120.0,1.0,0.0
5033,56.0,294.0,900.0,5.0,0.0
5034,59.0,180.0,720.0,4.0,0.0
5035,88.0,294.0,420.0,1.0,0.0
5036,64.0,6.0,420.0,3.0,0.0
5037,83.0,240.0,240.0,1.0,0.0
5038,61.0,120.0,720.0,4.0,0.0
5039,81.0,240.0,240.0,1.0,0.0
5040,64.0,240.0,480.0,3.0,0.0
5041,81.0,120.0,120.0,1.0,0.0
5042,81.0,180.0,240.0,1.0,0.0
5043,59.0,240.0,720.0,4.0,0.0
5044,80.0,300.0,180.0,1.0,0.0
5045,64.0,120.0,480.0,3.0,0.0
5046,80.0,0.0,240.0,1.0,0.0
5047,57.0,480.0,960.0,5.0,0.0
5048,59.0,0.0,720.0,4.0,0.0
5049,78.0,120.0,120.0,1.0,0.0
5050,80.0,120.0,120.0,1.0,0.0
5051,81.0,120.0,120.0,1.0,0.0
5052,82.0,120.0,120.0,1.0,0.0
5053,66.0,0.0,480.0,3.0,0.0
5054,83.0,120.0,120.0,1.0,0.0
5055,84.0,120.0,120.0,1.0,0.0
5056,85.0,120.0,120.0,1.0,0.0
5057,87.0,0.0,120.0,1.0,0.0
5058,88.0,240.0,480.0,1.0,0.0
5059,56.0,6.0,900.0,5.0,0.0
5060,59.0,180.0,720.0,4.0,0.0
5061,64.0,414.0,420.0,3.0,0.0
5062,88.0,96.0,360.0,1.0,0.0
5063,85.0,444.0,90.0,1.0,0.0
5064,82.0,426.0,960.0,1.0,0.0
5065,73.0,0.0,420.0,5.0,0.0
5066,76.0,540.0,420.0,4.0,0.0
5067,73.0,0.0,480.0,5.0,0.0
5068,76.0,0.0,480.0,4.0,0.0
5069,71.0,0.0,420.0,5.0,0.0
5070,75.0,412.0,420.0,4.0,0.0
5071,83.0,8.0,420.0,1.0,0.0
5072,85.0,90.0,360.0,1.0,0.0
5073,81.0,444.0,90.0,1.0,0.0
5074,63.0,540.0,420.0,5.0,0.0
5075,69.0,0.0,420.0,4.0,0.0
5076,71.0,0.0,420.0,4.0,0.0
5077,78.0,0.0,960.0,1.0,0.0
5078,69.0,420.0,480.0,4.0,0.0
5079,71.0,0.0,480.0,4.0,0.0
5080,63.0,0.0,480.0,5.0,0.0
5081,80.0,8.0,420.0,1.0,0.0
5082,68.0,286.0,420.0,4.0,0.0
5083,71.0,6.0,420.0,4.0,0.0
5084,64.0,0.0,420.0,5.0,0.0
5085,64.0,6.0,1200.0,4.0,0.0
5086,69.0,0.0,960.0,4.0,0.0
5087,61.0,240.0,960.0,5.0,0.0
5088,81.0,120.0,240.0,1.0,0.0
5089,83.0,134.0,120.0,1.0,0.0
5090,85.0,120.0,120.0,1.0,0.0
5091,83.0,106.0,120.0,1.0,0.0
5092,81.0,120.0,120.0,1.0,0.0
5093,80.0,120.0,120.0,1.0,0.0
5094,78.0,0.0,120.0,1.0,0.0
5095,59.0,474.0,240.0,5.0,0.0
5096,68.0,0.0,240.0,4.0,0.0
5097,76.0,0.0,240.0,1.0,0.0
5098,78.0,6.0,240.0,1.0,0.0
5099,63.0,720.0,240.0,4.0,0.0
5100,59.0,0.0,240.0,5.0,0.0
5101,75.0,0.0,960.0,2.0,0.0
5102,78.0,240.0,720.0,1.0,0.0
5103,64.0,234.0,480.0,5.0,0.0
5104,59.0,6.0,480.0,5.0,0.0
5105,79.0,420.0,240.0,1.0,0.0
5106,56.0,360.0,480.0,5.0,0.0
5107,76.0,0.0,420.0,2.0,0.0
5108,80.0,54.0,420.0,1.0,0.0
5109,52.0,240.0,360.0,5.0,0.0
5110,88.0,120.0,120.0,1.0,0.0
5111,87.0,120.0,120.0,1.0,0.0
5112,88.0,96.0,120.0,1.0,0.0
5113,85.0,384.0,90.0,1.0,0.0
5114,76.0,0.0,360.0,4.0,0.0
5115,66.0,0.0,360.0,5.0,0.0
5116,82.0,0.0,960.0,1.0,0.0
5117,73.0,600.0,360.0,4.0,0.0
5118,66.0,234.0,480.0,5.0,0.0
5119,76.0,0.0,480.0,4.0,0.0
5120,73.0,6.0,480.0,4.0,0.0
5121,71.0,174.0,420.0,5.0,0.0
5122,75.0,0.0,420.0,4.0,0.0
5123,83.0,180.0,240.0,1.0,0.0
5124,84.0,6.0,180.0,1.0,0.0
5125,85.0,120.0,120.0,1.0,0.0
5126,84.0,120.0,120.0,1.0,0.0
5127,85.0,96.0,120.0,1.0,0.0
5128,81.0,444.0,90.0,1.0,0.0
5129,78.0,240.0,720.0,1.0,0.0
5130,63.0,0.0,420.0,4.0,0.0
5131,69.0,300.0,420.0,4.0,0.0
5132,59.0,0.0,420.0,5.0,0.0
5133,59.0,120.0,480.0,5.0,0.0
5134,63.0,0.0,480.0,4.0,0.0
5135,69.0,0.0,480.0,4.0,0.0
5136,79.0,0.0,240.0,1.0,0.0
5137,80.0,120.0,120.0,1.0,0.0
5138,68.0,30.0,420.0,4.0,0.0
5139,64.0,0.0,420.0,5.0,0.0
5140,81.0,120.0,120.0,1.0,0.0
5141,82.0,66.0,120.0,1.0,0.0
5142,83.0,264.0,90.0,1.0,0.0
5143,84.0,192.0,240.0,1.0,0.0
5144,85.0,168.0,180.0,1.0,0.0
5145,57.0,0.0,420.0,5.0,0.0
5146,66.0,36.0,420.0,4.0,0.0
5147,83.0,120.0,120.0,1.0,0.0
5148,61.0,0.0,420.0,4.0,0.0
5149,81.0,120.0,120.0,1.0,0.0
5150,80.0,60.0,120.0,1.0,0.0
5151,78.0,264.0,90.0,1.0,0.0
5152,76.0,60.0,240.0,1.0,0.0
5153,59.0,426.0,960.0,5.0,0.0
5154,64.0,0.0,420.0,4.0,0.0
5155,68.0,60.0,420.0,4.0,0.0
5156,80.0,60.0,60.0,1.0,0.0
5157,78.0,60.0,60.0,1.0,0.0
5158,76.0,0.0,60.0,1.0,0.0
5159,78.0,240.0,60.0,1.0,0.0
5160,80.0,240.0,240.0,1.0,0.0
5161,69.0,0.0,480.0,4.0,0.0
5162,63.0,0.0,480.0,4.0,0.0
5163,78.0,0.0,240.0,1.0,0.0
5164,68.0,14.0,1860.0,3.0,0.0
5165,64.0,120.0,720.0,4.0,0.0
5166,76.0,294.0,420.0,1.0,0.0
5167,59.0,0.0,480.0,3.0,0.0
5168,76.0,120.0,120.0,1.0,0.0
5169,75.0,120.0,120.0,1.0,0.0
5170,78.0,120.0,120.0,1.0,0.0
5171,64.0,0.0,720.0,4.0,0.0
5172,76.0,120.0,120.0,1.0,0.0
5173,80.0,120.0,120.0,1.0,0.0
5174,78.0,120.0,120.0,1.0,0.0
5175,59.0,30.0,420.0,3.0,0.0
5176,81.0,120.0,120.0,1.0,0.0
5177,80.0,120.0,120.0,1.0,0.0
5178,83.0,60.0,120.0,1.0,0.0
5179,81.0,256.0,90.0,1.0,0.0
5180,85.0,180.0,240.0,1.0,0.0
5181,63.0,240.0,720.0,4.0,0.0
5182,69.0,286.0,1860.0,3.0,0.0
5183,83.0,300.0,180.0,1.0,0.0
5184,59.0,180.0,480.0,3.0,0.0
5185,83.0,240.0,660.0,1.0,0.0
5186,63.0,186.0,720.0,4.0,0.0
5187,82.0,246.0,180.0,1.0,0.0
5188,59.0,8.0,420.0,3.0,0.0
5189,81.0,54.0,180.0,1.0,0.0
5190,78.0,0.0,180.0,1.0,0.0
5191,68.0,6.0,1860.0,3.0,0.0
5192,75.0,186.0,240.0,1.0,0.0
5193,64.0,120.0,720.0,4.0,0.0
5194,76.0,294.0,180.0,1.0,0.0
5195,59.0,0.0,360.0,3.0,0.0
5196,76.0,120.0,120.0,1.0,0.0
5197,75.0,120.0,120.0,1.0,0.0
5198,78.0,120.0,120.0,1.0,0.0
5199,64.0,0.0,720.0,4.0,0.0
5200,76.0,120.0,120.0,1.0,0.0
5201,80.0,120.0,120.0,1.0,0.0
5202,78.0,120.0,120.0,1.0,0.0
5203,81.0,120.0,120.0,1.0,0.0
5204,59.0,24.0,420.0,3.0,0.0
5205,80.0,120.0,120.0,1.0,0.0
5206,83.0,60.0,120.0,1.0,0.0
5207,81.0,270.0,90.0,1.0,0.0
5208,69.0,286.0,1860.0,3.0,0.0
5209,63.0,180.0,720.0,4.0,0.0
5210,85.0,180.0,240.0,1.0,0.0
5211,83.0,300.0,180.0,1.0,0.0
5212,83.0,218.0,750.0,1.0,0.0
5213,59.0,322.0,420.0,3.0,0.0
5214,63.0,0.0,720.0,4.0,0.0
5215,82.0,240.0,240.0,1.0,0.0
5216,59.0,0.0,420.0,3.0,0.0
5217,81.0,180.0,240.0,1.0,0.0
5218,78.0,14.0,180.0,1.0,0.0
5219,68.0,6.0,420.0,3.0,0.0
5220,75.0,180.0,240.0,1.0,0.0
5221,64.0,0.0,420.0,4.0,0.0
5222,76.0,414.0,180.0,1.0,0.0
5223,52.0,54.0,420.0,4.0,0.0
5224,76.0,66.0,120.0,1.0,0.0
5225,75.0,120.0,120.0,1.0,0.0
5226,78.0,120.0,120.0,1.0,0.0
5227,76.0,120.0,120.0,1.0,0.0
5228,80.0,120.0,120.0,1.0,0.0
5229,78.0,120.0,120.0,1.0,0.0
5230,81.0,120.0,120.0,1.0,0.0
5231,80.0,120.0,120.0,1.0,0.0
5232,83.0,96.0,120.0,1.0,0.0
5233,81.0,264.0,90.0,1.0,0.0
5234,85.0,180.0,240.0,1.0,0.0
5235,83.0,420.0,180.0,1.0,0.0
5236,64.0,54.0,420.0,5.0,0.0
5237,68.0,6.0,420.0,4.0,0.0
5238,80.0,60.0,120.0,1.0,0.0
5239,78.0,120.0,120.0,1.0,0.0
5240,81.0,120.0,120.0,1.0,0.0
5241,80.0,120.0,120.0,1.0,0.0
5242,83.0,120.0,120.0,1.0,0.0
5243,81.0,120.0,120.0,1.0,0.0
5244,85.0,120.0,120.0,1.0,0.0
5245,83.0,120.0,120.0,1.0,0.0
5246,86.0,104.0,120.0,1.0,0.0
5247,85.0,256.0,90.0,1.0,0.0
5248,88.0,180.0,240.0,1.0,0.0
5249,86.0,420.0,180.0,1.0,0.0
5250,64.0,8.0,420.0,5.0,0.0
5251,68.0,46.0,420.0,4.0,0.0
5252,71.0,6.0,420.0,4.0,0.0
5253,83.0,60.0,120.0,1.0,0.0
5254,82.0,120.0,120.0,1.0,0.0
5255,85.0,120.0,120.0,1.0,0.0
5256,83.0,120.0,120.0,1.0,0.0
5257,86.0,120.0,120.0,1.0,0.0
5258,85.0,120.0,120.0,1.0,0.0
5259,88.0,120.0,120.0,1.0,0.0
5260,86.0,120.0,120.0,1.0,0.0
5261,90.0,90.0,120.0,1.0,0.0
5262,88.0,270.0,90.0,1.0,0.0
5263,91.0,180.0,240.0,1.0,0.0
5264,90.0,240.0,180.0,1.0,0.0
5265,89.0,246.0,180.0,1.0,0.0
5266,88.0,248.0,180.0,1.0,0.0
5267,87.0,226.0,180.0,1.0,0.0
5268,86.0,246.0,180.0,1.0,0.0
5269,85.0,240.0,180.0,1.0,0.0
5270,84.0,354.0,180.0,1.0,0.0
5271,71.0,6.0,1860.0,4.0,0.0
5272,68.0,0.0,1860.0,4.0,0.0
5273,64.0,8.0,1860.0,5.0,0.0
5274,83.0,60.0,300.0,1.0,0.0
5275,74.0,0.0,1860.0,4.0,0.0
5276,85.0,60.0,60.0,1.0,0.0
5277,83.0,60.0,60.0,1.0,0.0
5278,82.0,120.0,60.0,1.0,0.0
5279,83.0,240.0,120.0,1.0,0.0
5280,85.0,360.0,120.0,1.0,0.0
5281,88.0,232.0,240.0,1.0,0.0
5282,86.0,262.0,240.0,1.0,0.0
5283,83.0,166.0,240.0,1.0,0.0
5284,80.0,766.0,180.0,1.0,0.0
5285,73.0,0.0,720.0,4.0,0.0
5286,81.0,82.0,720.0,1.0,0.0
5287,76.0,720.0,480.0,3.0,0.0
5288,83.0,52.0,90.0,1.0,0.0
5289,81.0,46.0,60.0,1.0,0.0
5290,80.0,60.0,60.0,1.0,0.0
5291,81.0,0.0,60.0,1.0,0.0
5292,85.0,306.0,900.0,1.0,0.0
5293,69.0,180.0,720.0,4.0,0.0
5294,76.0,0.0,420.0,3.0,0.0
5295,74.0,0.0,720.0,4.0,0.0
5296,85.0,174.0,240.0,1.0,0.0
5297,83.0,300.0,180.0,1.0,0.0
5298,76.0,720.0,480.0,3.0,0.0
5299,83.0,180.0,240.0,1.0,0.0
5300,80.0,60.0,180.0,1.0,0.0
5301,73.0,186.0,720.0,4.0,0.0
5302,81.0,0.0,720.0,1.0,0.0
5303,76.0,0.0,420.0,3.0,0.0
5304,85.0,294.0,180.0,1.0,0.0
5305,82.0,240.0,240.0,1.0,0.0
5306,74.0,186.0,720.0,4.0,0.0
5307,83.0,240.0,240.0,1.0,0.0
5308,86.0,0.0,240.0,1.0,0.0
5309,76.0,240.0,480.0,3.0,0.0
5310,80.0,54.0,180.0,1.0,0.0
5311,73.0,186.0,720.0,4.0,0.0
5312,83.0,434.0,240.0,1.0,0.0
5313,81.0,46.0,420.0,1.0,0.0
5314,76.0,286.0,420.0,3.0,0.0
5315,85.0,8.0,180.0,1.0,0.0
5316,76.0,14.0,1860.0,3.0,0.0
5317,88.0,195.0,240.0,1.0,0.0
5318,71.0,240.0,480.0,4.0,0.0
5319,87.0,45.0,180.0,1.0,0.0
5320,68.0,226.0,480.0,4.0,0.0
5321,86.0,192.0,240.0,1.0,0.0
5322,83.0,62.0,180.0,1.0,0.0
5323,69.0,240.0,480.0,4.0,0.0
5324,86.0,202.0,240.0,1.0,0.0
5325,84.0,38.0,210.0,1.0,0.0
5326,85.0,172.0,240.0,1.0,0.0
5327,73.0,6.0,420.0,4.0,0.0
5328,81.0,294.0,180.0,1.0,0.0
5329,74.0,8.0,480.0,4.0,0.0
5330,78.0,76.0,240.0,1.0,0.0
5331,80.0,82.0,90.0,1.0,0.0
5332,78.0,82.0,90.0,1.0,0.0
5333,77.0,226.0,90.0,1.0,0.0
5334,78.0,134.0,240.0,1.0,0.0
5335,62.0,240.0,480.0,5.0,0.0
5336,80.0,106.0,120.0,1.0,0.0
5337,66.0,0.0,480.0,5.0,0.0
5338,81.0,240.0,240.0,1.0,0.0
5339,82.0,240.0,240.0,1.0,0.0
5340,63.0,494.0,480.0,5.0,0.0
5341,85.0,194.0,240.0,1.0,0.0
5342,69.0,346.0,960.0,4.0,0.0
5343,83.0,46.0,180.0,1.0,0.0
5344,76.0,98.0,1230.0,1.0,0.0
5345,64.0,0.0,1380.0,5.0,0.0
5346,68.0,134.0,360.0,4.0,0.0
5347,66.0,248.0,120.0,4.0,0.0
5348,68.0,60.0,420.0,4.0,0.0
5349,78.0,60.0,120.0,1.0,0.0
5350,77.0,120.0,120.0,1.0,0.0
5351,80.0,120.0,120.0,1.0,0.0
5352,78.0,120.0,120.0,1.0,0.0
5353,81.0,96.0,120.0,1.0,0.0
5354,80.0,150.0,90.0,1.0,0.0
5355,83.0,594.0,120.0,1.0,0.0
5356,73.0,14.0,720.0,4.0,0.0
5357,81.0,60.0,600.0,1.0,0.0
5358,76.0,0.0,480.0,3.0,0.0
5359,83.0,46.0,60.0,1.0,0.0
5360,81.0,75.0,60.0,1.0,0.0
5361,80.0,45.0,60.0,1.0,0.0
5362,81.0,720.0,60.0,1.0,0.0
5363,85.0,0.0,900.0,1.0,0.0
5364,69.0,180.0,720.0,4.0,0.0
5365,76.0,300.0,420.0,3.0,0.0
5366,74.0,194.0,720.0,4.0,0.0
5367,83.0,240.0,240.0,1.0,0.0
5368,86.0,240.0,240.0,1.0,0.0
5369,80.0,0.0,240.0,1.0,0.0
5370,76.0,720.0,480.0,3.0,0.0
5371,83.0,46.0,180.0,1.0,0.0
5372,73.0,7.0,720.0,4.0,0.0
5373,81.0,173.0,720.0,1.0,0.0
5374,76.0,188.0,420.0,3.0,0.0
5375,85.0,6.0,180.0,1.0,0.0
5376,83.0,106.0,120.0,1.0,0.0
5377,74.0,6.0,720.0,4.0,0.0
5378,85.0,126.0,120.0,1.0,0.0
5379,86.0,114.0,120.0,1.0,0.0
5380,83.0,120.0,120.0,1.0,0.0
5381,80.0,120.0,120.0,1.0,0.0
5382,76.0,720.0,480.0,3.0,0.0
5383,81.0,114.0,120.0,1.0,0.0
5384,83.0,120.0,120.0,1.0,0.0
5385,80.0,0.0,120.0,1.0,0.0
5386,81.0,0.0,720.0,1.0,0.0
5387,73.0,180.0,720.0,4.0,0.0
5388,76.0,294.0,420.0,3.0,0.0
5389,85.0,6.0,180.0,1.0,0.0
5390,88.0,240.0,240.0,1.0,0.0
5391,76.0,180.0,1500.0,3.0,0.0
5392,71.0,226.0,480.0,4.0,0.0
5393,87.0,14.0,240.0,1.0,0.0
5394,86.0,186.0,240.0,1.0,0.0
5395,68.0,240.0,480.0,4.0,0.0
5396,83.0,54.0,180.0,1.0,0.0
5397,86.0,240.0,240.0,1.0,0.0
5398,69.0,60.0,480.0,4.0,0.0
5399,84.0,0.0,240.0,1.0,0.0
5400,85.0,180.0,240.0,1.0,0.0
5401,66.0,354.0,420.0,4.0,0.0
5402,81.0,6.0,180.0,1.0,0.0
5403,78.0,60.0,300.0,1.0,0.0
5404,62.0,0.0,960.0,5.0,0.0
5405,80.0,60.0,60.0,1.0,0.0
5406,78.0,60.0,60.0,1.0,0.0
5407,77.0,240.0,60.0,1.0,0.0
5408,74.0,246.0,480.0,4.0,0.0
5409,78.0,126.0,240.0,1.0,0.0
5410,83.0,114.0,120.0,1.0,0.0
5411,81.0,234.0,240.0,1.0,0.0
5412,64.0,6.0,900.0,5.0,0.0
5413,73.0,240.0,480.0,4.0,0.0
5414,71.0,534.0,420.0,4.0,0.0
5415,74.0,6.0,240.0,2.0,0.0
5416,80.0,174.0,240.0,1.0,0.0
5417,80.0,8.0,960.0,1.0,0.0
5418,74.0,412.0,960.0,2.0,0.0
5419,69.0,480.0,480.0,5.0,0.0
5420,64.0,6.0,480.0,5.0,0.0
5421,81.0,1006.0,420.0,1.0,0.0
5422,57.0,8.0,420.0,5.0,0.0
5423,73.0,0.0,420.0,2.0,0.0
5424,73.0,244.0,480.0,2.0,0.0
5425,57.0,0.0,930.0,4.0,0.0
5426,61.0,0.0,930.0,4.0,0.0
5427,66.0,0.0,930.0,4.0,0.0
5428,54.0,20.0,930.0,5.0,0.0
5429,78.0,0.0,450.0,2.0,0.0
5430,81.0,0.0,420.0,2.0,0.0
5431,85.0,80.0,630.0,1.0,0.0
5432,83.0,80.0,90.0,1.0,0.0
5433,81.0,50.0,90.0,1.0,0.0
5434,80.0,198.0,60.0,1.0,0.0
5435,78.0,240.0,180.0,1.0,0.0
5436,69.0,0.0,180.0,4.0,0.0
5437,78.0,0.0,180.0,1.0,0.0
5438,66.0,0.0,180.0,5.0,0.0
5439,73.0,240.0,180.0,4.0,0.0
5440,73.0,240.0,180.0,4.0,0.0
5441,66.0,0.0,180.0,5.0,0.0
5442,69.0,0.0,180.0,4.0,0.0
5443,78.0,0.0,180.0,1.0,0.0
5444,66.0,288.0,180.0,5.0,0.0
5445,69.0,0.0,180.0,4.0,0.0
5446,73.0,0.0,180.0,4.0,0.0
5447,78.0,0.0,180.0,1.0,0.0
5448,71.0,480.0,240.0,4.0,0.0
5449,77.0,0.0,240.0,1.0,0.0
5450,68.0,0.0,240.0,5.0,0.0
5451,73.0,0.0,240.0,4.0,0.0
5452,69.0,0.0,240.0,4.0,0.0
5453,66.0,0.0,240.0,5.0,0.0
5454,78.0,480.0,240.0,1.0,0.0
5455,73.0,0.0,240.0,4.0,0.0
5456,65.0,1185.0,240.0,5.0,0.0
5457,68.0,0.0,240.0,4.0,0.0
5458,80.0,0.0,240.0,1.0,0.0
5459,73.0,0.0,240.0,4.0,0.0
5460,59.0,4.0,930.0,5.0,0.0
5461,62.0,0.0,930.0,4.0,0.0
5462,68.0,10.0,930.0,4.0,0.0
5463,65.0,10.0,930.0,4.0,0.0
5464,77.0,230.0,480.0,2.0,0.0
5465,80.0,7.0,420.0,2.0,0.0
5466,83.0,8.0,420.0,2.0,0.0
5467,86.0,94.0,630.0,1.0,0.0
5468,85.0,76.0,90.0,1.0,0.0
5469,83.0,40.0,90.0,1.0,0.0
5470,81.0,196.0,60.0,1.0,0.0
5471,80.0,252.0,180.0,1.0,0.0
5472,74.0,0.0,180.0,4.0,0.0
5473,80.0,0.0,180.0,1.0,0.0
5474,77.0,0.0,180.0,2.0,0.0
5475,71.0,240.0,180.0,5.0,0.0
5476,74.0,240.0,180.0,4.0,0.0
5477,77.0,0.0,180.0,2.0,0.0
5478,80.0,0.0,180.0,1.0,0.0
5479,71.0,0.0,180.0,5.0,0.0
5480,71.0,0.0,180.0,5.0,0.0
5481,80.0,0.0,180.0,1.0,0.0
5482,77.0,0.0,180.0,2.0,0.0
5483,74.0,288.0,180.0,4.0,0.0
5484,73.0,0.0,240.0,4.0,0.0
5485,78.0,0.0,240.0,1.0,0.0
5486,69.0,480.0,240.0,5.0,0.0
5487,77.0,0.0,240.0,2.0,0.0
5488,71.0,480.0,240.0,4.0,0.0
5489,80.0,0.0,240.0,1.0,0.0
5490,68.0,0.0,240.0,5.0,0.0
5491,66.0,0.0,240.0,5.0,0.0
5492,81.0,0.0,240.0,1.0,0.0
5493,69.0,0.0,240.0,4.0,0.0
5494,78.0,960.0,240.0,2.0,0.0
5495,71.0,192.0,720.0,4.0,0.0
5496,81.0,192.0,240.0,1.0,0.0
5497,80.0,288.0,180.0,1.0,0.0
5498,80.0,0.0,240.0,1.0,0.0
5499,73.0,720.0,480.0,3.0,0.0
5500,77.0,48.0,180.0,1.0,0.0
5501,69.0,192.0,720.0,4.0,0.0
5502,78.0,0.0,720.0,1.0,0.0
5503,73.0,286.0,420.0,3.0,0.0
5504,81.0,2.0,180.0,1.0,0.0
5505,81.0,192.0,240.0,1.0,0.0
5506,71.0,0.0,720.0,4.0,0.0
5507,80.0,288.0,180.0,1.0,0.0
5508,83.0,192.0,240.0,1.0,0.0
5509,73.0,240.0,480.0,3.0,0.0
5510,77.0,48.0,180.0,1.0,0.0
5511,80.0,434.0,240.0,1.0,0.0
5512,69.0,192.0,720.0,4.0,0.0
5513,78.0,46.0,420.0,1.0,0.0
5514,81.0,48.0,180.0,1.0,0.0
5515,85.0,218.0,270.0,1.0,0.0
5516,68.0,0.0,480.0,4.0,0.0
5517,73.0,262.0,15.0,3.0,0.0
5518,84.0,240.0,240.0,1.0,0.0
5519,83.0,192.0,240.0,1.0,0.0
5520,65.0,240.0,480.0,4.0,0.0
5521,80.0,48.0,180.0,1.0,0.0
5522,66.0,0.0,480.0,4.0,0.0
5523,83.0,240.0,240.0,1.0,0.0
5524,82.0,6.0,240.0,1.0,0.0
5525,72.0,0.0,480.0,3.0,0.0
5526,81.0,192.0,240.0,1.0,0.0
5527,62.0,240.0,480.0,4.0,0.0
5528,78.0,48.0,180.0,1.0,0.0
5529,77.0,180.0,240.0,1.0,0.0
5530,73.0,8.0,420.0,3.0,0.0
5531,61.0,166.0,420.0,4.0,0.0
5532,80.0,6.0,180.0,1.0,0.0
5533,80.0,240.0,120.0,1.0,0.0
5534,80.0,360.0,120.0,1.0,0.0
5535,80.0,180.0,240.0,1.0,0.0
5536,85.0,180.0,180.0,1.0,0.0
5537,85.0,240.0,120.0,1.0,0.0
5538,85.0,600.0,120.0,1.0,0.0
5539,54.0,186.0,960.0,5.0,0.0
5540,57.0,6.0,930.0,4.0,0.0
5541,61.0,0.0,930.0,4.0,0.0
5542,66.0,4.0,930.0,4.0,0.0
5543,73.0,0.0,480.0,2.0,0.0
5544,78.0,165.0,450.0,2.0,0.0
5545,81.0,15.0,390.0,2.0,0.0
5546,85.0,140.0,540.0,1.0,0.0
5547,83.0,84.0,90.0,1.0,0.0
5548,81.0,56.0,90.0,1.0,0.0
5549,80.0,4.0,60.0,1.0,0.0
5550,78.0,252.0,180.0,1.0,0.0
5551,69.0,0.0,180.0,4.0,0.0
5552,73.0,0.0,180.0,4.0,0.0
5553,78.0,0.0,180.0,1.0,0.0
5554,66.0,240.0,180.0,5.0,0.0
5555,78.0,0.0,180.0,1.0,0.0
5556,73.0,240.0,180.0,4.0,0.0
5557,69.0,0.0,180.0,4.0,0.0
5558,66.0,0.0,180.0,5.0,0.0
5559,78.0,288.0,180.0,1.0,0.0
5560,66.0,0.0,180.0,5.0,0.0
5561,73.0,0.0,180.0,4.0,0.0
5562,69.0,0.0,180.0,4.0,0.0
5563,71.0,480.0,240.0,4.0,0.0
5564,73.0,0.0,240.0,4.0,0.0
5565,77.0,0.0,240.0,1.0,0.0
5566,68.0,0.0,240.0,5.0,0.0
5567,66.0,0.0,240.0,5.0,0.0
5568,69.0,0.0,240.0,4.0,0.0
5569,73.0,480.0,240.0,4.0,0.0
5570,78.0,0.0,240.0,1.0,0.0
5571,80.0,0.0,240.0,1.0,0.0
5572,73.0,1192.0,240.0,4.0,0.0
5573,65.0,0.0,240.0,5.0,0.0
5574,68.0,0.0,240.0,4.0,0.0
5575,77.0,15.0,480.0,2.0,0.0
5576,62.0,0.0,930.0,4.0,0.0
5577,65.0,0.0,930.0,4.0,0.0
5578,68.0,4.0,930.0,4.0,0.0
5579,59.0,6.0,930.0,5.0,0.0
5580,80.0,8.0,420.0,2.0,0.0
5581,83.0,239.0,420.0,2.0,0.0
5582,86.0,66.0,600.0,1.0,0.0
5583,85.0,84.0,90.0,1.0,0.0
5584,83.0,56.0,90.0,1.0,0.0
5585,81.0,202.0,60.0,1.0,0.0
5586,80.0,240.0,180.0,1.0,0.0
5587,71.0,0.0,180.0,5.0,0.0
5588,80.0,0.0,180.0,1.0,0.0
5589,77.0,240.0,180.0,2.0,0.0
5590,74.0,0.0,180.0,4.0,0.0
5591,80.0,0.0,180.0,1.0,0.0
5592,71.0,240.0,180.0,5.0,0.0
5593,74.0,0.0,180.0,4.0,0.0
5594,77.0,0.0,180.0,2.0,0.0
5595,71.0,0.0,180.0,5.0,0.0
5596,77.0,288.0,180.0,2.0,0.0
5597,74.0,0.0,180.0,4.0,0.0
5598,80.0,0.0,180.0,1.0,0.0
5599,73.0,0.0,240.0,4.0,0.0
5600,69.0,0.0,240.0,5.0,0.0
5601,78.0,480.0,240.0,1.0,0.0
5602,68.0,0.0,240.0,5.0,0.0
5603,71.0,0.0,240.0,4.0,0.0
5604,80.0,0.0,240.0,1.0,0.0
5605,77.0,480.0,240.0,2.0,0.0
5606,81.0,960.0,240.0,1.0,0.0
5607,78.0,0.0,240.0,2.0,0.0
5608,66.0,0.0,240.0,5.0,0.0
5609,69.0,0.0,240.0,4.0,0.0
5610,79.0,74.0,240.0,1.0,0.0
5611,59.0,126.0,720.0,4.0,0.0
5612,81.0,46.0,60.0,1.0,0.0
5613,79.0,60.0,60.0,1.0,0.0
5614,78.0,60.0,60.0,1.0,0.0
5615,79.0,134.0,60.0,1.0,0.0
5616,83.0,106.0,120.0,1.0,0.0
5617,62.0,240.0,480.0,3.0,0.0
5618,77.0,114.0,120.0,1.0,0.0
5619,80.0,426.0,240.0,1.0,0.0
5620,57.0,194.0,720.0,4.0,0.0
5621,78.0,54.0,420.0,1.0,0.0
5622,61.0,166.0,420.0,3.0,0.0
5623,81.0,0.0,180.0,1.0,0.0
5624,59.0,120.0,720.0,4.0,0.0
5625,79.0,120.0,120.0,1.0,0.0
5626,81.0,120.0,120.0,1.0,0.0
5627,83.0,120.0,120.0,1.0,0.0
5628,85.0,120.0,120.0,1.0,0.0
5629,86.0,120.0,120.0,1.0,0.0
5630,62.0,240.0,480.0,3.0,0.0
5631,83.0,0.0,120.0,1.0,0.0
5632,80.0,96.0,120.0,1.0,0.0
5633,77.0,24.0,90.0,1.0,0.0
5634,57.0,232.0,900.0,5.0,0.0
5635,61.0,194.0,480.0,3.0,0.0
5636,78.0,240.0,240.0,1.0,0.0
5637,90.0,218.0,420.0,1.0,0.0
5638,66.0,22.0,420.0,3.0,0.0
5639,81.0,294.0,420.0,1.0,0.0
5640,62.0,240.0,480.0,3.0,0.0
5641,59.0,0.0,960.0,5.0,0.0
5642,80.0,240.0,480.0,1.0,0.0
5643,71.0,254.0,480.0,3.0,0.0
5644,86.0,226.0,480.0,1.0,0.0
5645,61.0,1246.0,900.0,5.0,0.0
5646,69.0,240.0,480.0,3.0,0.0
5647,85.0,180.0,480.0,1.0,0.0
5648,68.0,0.0,420.0,3.0,0.0
5649,77.0,14.0,180.0,1.0,0.0
5650,71.0,240.0,1920.0,4.0,0.0
5651,77.0,60.0,1200.0,1.0,0.0
5652,42.0,0.0,2400.0,5.0,0.0
5653,54.0,0.0,2400.0,5.0,0.0
5654,78.0,60.0,60.0,1.0,0.0
5655,77.0,60.0,60.0,1.0,0.0
5656,75.0,60.0,60.0,1.0,0.0
5657,77.0,360.0,60.0,1.0,0.0
5658,80.0,96.0,360.0,1.0,0.0
5659,78.0,24.0,90.0,1.0,0.0
5660,69.0,0.0,480.0,4.0,0.0
5661,78.0,60.0,240.0,1.0,0.0
5662,80.0,60.0,60.0,1.0,0.0
5663,78.0,60.0,60.0,1.0,0.0
5664,77.0,60.0,60.0,1.0,0.0
5665,80.0,360.0,60.0,1.0,0.0
5666,81.0,104.0,360.0,1.0,0.0
5667,79.0,256.0,90.0,1.0,0.0
5668,79.0,60.0,240.0,1.0,0.0
5669,81.0,60.0,60.0,1.0,0.0
5670,79.0,60.0,60.0,1.0,0.0
5671,78.0,60.0,60.0,1.0,0.0
5672,79.0,360.0,60.0,1.0,0.0
5673,83.0,90.0,360.0,1.0,0.0
5674,81.0,510.0,90.0,1.0,0.0
5675,81.0,180.0,1200.0,1.0,0.0
5676,62.0,0.0,720.0,4.0,0.0
5677,69.0,240.0,240.0,3.0,0.0
5678,66.0,240.0,240.0,3.0,0.0
5679,69.0,240.0,240.0,3.0,0.0
5680,62.0,194.0,720.0,4.0,0.0
5681,86.0,240.0,240.0,1.0,0.0
5682,69.0,60.0,180.0,3.0,0.0
5683,66.0,0.0,240.0,3.0,0.0
5684,81.0,0.0,240.0,1.0,0.0
5685,69.0,0.0,180.0,3.0,0.0
5686,78.0,166.0,180.0,1.0,0.0
5687,79.0,120.0,120.0,1.0,0.0
5688,64.0,0.0,720.0,4.0,0.0
5689,81.0,120.0,120.0,1.0,0.0
5690,69.0,60.0,180.0,3.0,0.0
5691,83.0,60.0,120.0,1.0,0.0
5692,81.0,120.0,120.0,1.0,0.0
5693,79.0,60.0,120.0,1.0,0.0
5694,67.0,60.0,180.0,3.0,0.0
5695,78.0,120.0,120.0,1.0,0.0
5696,76.0,120.0,120.0,1.0,0.0
5697,69.0,0.0,240.0,3.0,0.0
5698,74.0,426.0,120.0,1.0,0.0
5699,57.0,0.0,720.0,4.0,0.0
5700,73.0,54.0,420.0,1.0,0.0
5701,69.0,240.0,240.0,3.0,0.0
5702,67.0,186.0,240.0,3.0,0.0
5703,69.0,294.0,180.0,3.0,0.0
5704,74.0,120.0,240.0,1.0,0.0
5705,62.0,0.0,720.0,4.0,0.0
5706,76.0,120.0,120.0,1.0,0.0
5707,69.0,0.0,240.0,3.0,0.0
5708,78.0,120.0,120.0,1.0,0.0
5709,66.0,120.0,240.0,3.0,0.0
5710,79.0,120.0,120.0,1.0,0.0
5711,81.0,0.0,120.0,1.0,0.0
5712,83.0,60.0,120.0,1.0,0.0
5713,69.0,60.0,180.0,3.0,0.0
5714,85.0,120.0,120.0,1.0,0.0
5715,62.0,0.0,720.0,4.0,0.0
5716,86.0,120.0,120.0,1.0,0.0
5717,88.0,120.0,120.0,1.0,0.0
5718,69.0,0.0,240.0,3.0,0.0
5719,90.0,120.0,120.0,1.0,0.0
5720,85.0,120.0,120.0,1.0,0.0
5721,86.0,120.0,120.0,1.0,0.0
5722,66.0,120.0,240.0,3.0,0.0
5723,81.0,0.0,120.0,1.0,0.0
5724,83.0,74.0,120.0,1.0,0.0
5725,69.0,22.0,180.0,3.0,0.0
5726,78.0,144.0,90.0,1.0,0.0
5727,64.0,0.0,720.0,4.0,0.0
5728,79.0,120.0,120.0,1.0,0.0
5729,81.0,120.0,120.0,1.0,0.0
5730,83.0,60.0,120.0,1.0,0.0
5731,69.0,60.0,180.0,3.0,0.0
5732,81.0,120.0,120.0,1.0,0.0
5733,67.0,0.0,240.0,3.0,0.0
5734,79.0,120.0,120.0,1.0,0.0
5735,78.0,120.0,120.0,1.0,0.0
5736,69.0,426.0,240.0,3.0,0.0
5737,76.0,120.0,120.0,1.0,0.0
5738,74.0,0.0,120.0,1.0,0.0
5739,73.0,54.0,420.0,1.0,0.0
5740,57.0,186.0,720.0,4.0,0.0
5741,69.0,240.0,240.0,3.0,0.0
5742,67.0,0.0,240.0,3.0,0.0
5743,69.0,294.0,180.0,3.0,0.0
5744,62.0,120.0,720.0,4.0,0.0
5745,74.0,120.0,240.0,1.0,0.0
5746,69.0,0.0,240.0,3.0,0.0
5747,76.0,120.0,120.0,1.0,0.0
5748,78.0,120.0,120.0,1.0,0.0
5749,79.0,120.0,120.0,1.0,0.0
5750,66.0,0.0,240.0,3.0,0.0
5751,81.0,0.0,120.0,1.0,0.0
5752,83.0,120.0,120.0,1.0,0.0
5753,69.0,0.0,240.0,3.0,0.0
5754,85.0,240.0,120.0,1.0,0.0
5755,62.0,0.0,720.0,4.0,0.0
5756,86.0,240.0,240.0,1.0,0.0
5757,88.0,0.0,240.0,1.0,0.0
5758,69.0,134.0,240.0,3.0,0.0
5759,90.0,106.0,120.0,1.0,0.0
5760,66.0,120.0,240.0,3.0,0.0
5761,69.0,466.0,180.0,3.0,0.0
5762,90.0,74.0,120.0,1.0,0.0
5763,61.0,240.0,720.0,4.0,0.0
5764,90.0,0.0,960.0,1.0,0.0
5765,66.0,300.0,180.0,3.0,0.0
5766,64.0,0.0,240.0,3.0,0.0
5767,66.0,420.0,240.0,3.0,0.0
5768,82.0,60.0,420.0,1.0,0.0
5769,61.0,0.0,720.0,4.0,0.0
5770,66.0,240.0,240.0,3.0,0.0
5771,64.0,172.0,240.0,3.0,0.0
5772,66.0,308.0,180.0,3.0,0.0
5773,59.0,0.0,720.0,4.0,0.0
5774,71.0,120.0,240.0,1.0,0.0
5775,66.0,60.0,180.0,3.0,0.0
5776,73.0,60.0,120.0,1.0,0.0
5777,74.0,120.0,120.0,1.0,0.0
5778,62.0,120.0,240.0,3.0,0.0
5779,76.0,120.0,120.0,1.0,0.0
5780,78.0,0.0,120.0,1.0,0.0
5781,80.0,120.0,120.0,1.0,0.0
5782,66.0,120.0,240.0,3.0,0.0
5783,82.0,0.0,120.0,1.0,0.0
5784,83.0,120.0,120.0,1.0,0.0
5785,57.0,0.0,720.0,4.0,0.0
5786,85.0,120.0,120.0,1.0,0.0
5787,66.0,126.0,240.0,3.0,0.0
5788,86.0,120.0,120.0,1.0,0.0
5789,88.0,0.0,120.0,1.0,0.0
5790,90.0,114.0,120.0,1.0,0.0
5791,62.0,126.0,240.0,3.0,0.0
5792,90.0,54.0,120.0,1.0,0.0
5793,66.0,540.0,180.0,3.0,0.0
5794,56.0,240.0,720.0,4.0,0.0
5795,88.0,0.0,960.0,1.0,0.0
5796,64.0,240.0,240.0,3.0,0.0
5797,62.0,0.0,240.0,3.0,0.0
5798,64.0,434.0,240.0,3.0,0.0
5799,59.0,0.0,720.0,4.0,0.0
5800,80.0,46.0,420.0,1.0,0.0
5801,64.0,240.0,240.0,3.0,0.0
5802,62.0,186.0,240.0,3.0,0.0
5803,64.0,294.0,180.0,3.0,0.0
5804,57.0,0.0,720.0,4.0,0.0
5805,69.0,120.0,240.0,1.0,0.0
5806,64.0,0.0,240.0,3.0,0.0
5807,71.0,120.0,120.0,1.0,0.0
5808,72.0,120.0,120.0,1.0,0.0
5809,74.0,120.0,120.0,1.0,0.0
5810,60.0,120.0,240.0,3.0,0.0
5811,76.0,0.0,120.0,1.0,0.0
5812,78.0,120.0,120.0,1.0,0.0
5813,64.0,0.0,240.0,3.0,0.0
5814,80.0,120.0,120.0,1.0,0.0
5815,81.0,120.0,120.0,1.0,0.0
5816,57.0,126.0,720.0,4.0,0.0
5817,83.0,120.0,120.0,1.0,0.0
5818,84.0,120.0,120.0,1.0,0.0
5819,64.0,0.0,240.0,3.0,0.0
5820,86.0,126.0,120.0,1.0,0.0
5821,60.0,0.0,240.0,3.0,0.0
5822,88.0,114.0,120.0,1.0,0.0
5823,88.0,60.0,120.0,1.0,0.0
5824,64.0,414.0,180.0,3.0,0.0
5825,88.0,96.0,360.0,1.0,0.0
5826,53.0,0.0,720.0,4.0,0.0
5827,60.0,240.0,240.0,3.0,0.0
5828,81.0,24.0,90.0,1.0,0.0
5829,93.0,240.0,960.0,1.0,0.0
5830,57.0,240.0,240.0,3.0,0.0
5831,60.0,480.0,240.0,3.0,0.0
5832,53.0,0.0,720.0,4.0,0.0
5833,60.0,0.0,240.0,3.0,0.0
5834,57.0,0.0,240.0,3.0,0.0
5835,91.0,186.0,240.0,1.0,0.0
5836,60.0,8.0,180.0,3.0,0.0
5837,89.0,286.0,180.0,1.0,0.0
5838,88.0,240.0,240.0,1.0,0.0
5839,53.0,240.0,1920.0,5.0,0.0
5840,57.0,36.0,1860.0,4.0,0.0
5841,60.0,240.0,960.0,4.0,0.0
5842,87.0,480.0,240.0,1.0,0.0
5843,84.0,120.0,720.0,1.0,0.0
5844,63.0,0.0,960.0,4.0,0.0
5845,83.0,120.0,120.0,1.0,0.0
5846,84.0,120.0,120.0,1.0,0.0
5847,86.0,120.0,120.0,1.0,0.0
5848,84.0,120.0,120.0,1.0,0.0
5849,83.0,60.0,120.0,1.0,0.0
5850,81.0,24.0,90.0,1.0,0.0
5851,59.0,174.0,420.0,4.0,0.0
5852,52.0,0.0,420.0,5.0,0.0
5853,80.0,120.0,240.0,1.0,0.0
5854,64.0,6.0,420.0,4.0,0.0
5855,88.0,60.0,120.0,1.0,0.0
5856,88.0,240.0,120.0,1.0,0.0
5857,88.0,240.0,120.0,1.0,0.0
5858,88.0,360.0,120.0,1.0,0.0
5859,93.0,240.0,240.0,1.0,0.0
5860,90.0,240.0,240.0,1.0,0.0
5861,87.0,134.0,240.0,1.0,0.0
5862,88.0,346.0,120.0,1.0,0.0
5863,81.0,240.0,240.0,1.0,0.0
5864,78.0,240.0,240.0,1.0,0.0
5865,75.0,180.0,240.0,1.0,0.0
5866,76.0,300.0,180.0,1.0,0.0
5867,93.0,240.0,240.0,1.0,0.0
5868,90.0,240.0,240.0,1.0,0.0
5869,87.0,126.0,240.0,1.0,0.0
5870,88.0,354.0,120.0,1.0,0.0
5871,92.0,240.0,240.0,1.0,0.0
5872,88.0,246.0,240.0,1.0,0.0
5873,85.0,120.0,240.0,1.0,0.0
5874,86.0,354.0,120.0,1.0,0.0
5875,90.0,240.0,240.0,1.0,0.0
5876,86.0,240.0,240.0,1.0,0.0
5877,84.0,126.0,240.0,1.0,0.0
5878,85.0,234.0,120.0,1.0,0.0
5879,90.0,120.0,120.0,1.0,0.0
5880,88.0,120.0,120.0,1.0,0.0
5881,86.0,120.0,120.0,1.0,0.0
5882,85.0,120.0,120.0,1.0,0.0
5883,83.0,120.0,120.0,1.0,0.0
5884,82.0,134.0,120.0,1.0,0.0
5885,83.0,232.0,120.0,1.0,0.0
5886,88.0,114.0,120.0,1.0,0.0
5887,86.0,120.0,120.0,1.0,0.0
5888,85.0,120.0,120.0,1.0,0.0
5889,83.0,120.0,120.0,1.0,0.0
5890,81.0,96.0,120.0,1.0,0.0
5891,80.0,744.0,90.0,1.0,0.0
5892,81.0,60.0,720.0,1.0,0.0
5893,73.0,0.0,720.0,4.0,0.0
5894,76.0,0.0,480.0,3.0,0.0
5895,83.0,60.0,60.0,1.0,0.0
5896,81.0,60.0,60.0,1.0,0.0
5897,80.0,60.0,60.0,1.0,0.0
5898,81.0,720.0,60.0,1.0,0.0
5899,69.0,186.0,720.0,4.0,0.0
5900,85.0,0.0,900.0,1.0,0.0
5901,76.0,294.0,420.0,3.0,0.0
5902,85.0,180.0,240.0,1.0,0.0
5903,74.0,0.0,720.0,4.0,0.0
5904,83.0,300.0,180.0,1.0,0.0
5905,83.0,186.0,240.0,1.0,0.0
5906,76.0,720.0,480.0,3.0,0.0
5907,80.0,54.0,180.0,1.0,0.0
5908,81.0,0.0,720.0,1.0,0.0
5909,73.0,194.0,720.0,4.0,0.0
5910,76.0,232.0,420.0,3.0,0.0
5911,85.0,534.0,420.0,1.0,0.0
5912,74.0,240.0,720.0,4.0,0.0
5913,83.0,0.0,480.0,1.0,0.0
5914,76.0,240.0,480.0,3.0,0.0
5915,80.0,480.0,480.0,1.0,0.0
5916,73.0,0.0,720.0,4.0,0.0
5917,81.0,180.0,480.0,1.0,0.0
5918,76.0,6.0,420.0,3.0,0.0
5919,85.0,294.0,180.0,1.0,0.0
5920,88.0,194.0,240.0,1.0,0.0
5921,71.0,366.0,480.0,4.0,0.0
5922,76.0,286.0,1860.0,3.0,0.0
5923,86.0,46.0,180.0,1.0,0.0
5924,68.0,240.0,480.0,4.0,0.0
5925,83.0,114.0,120.0,1.0,0.0
5926,69.0,374.0,480.0,4.0,0.0
5927,86.0,180.0,240.0,1.0,0.0
5928,85.0,60.0,180.0,1.0,0.0
5929,73.0,0.0,420.0,4.0,0.0
5930,81.0,60.0,120.0,1.0,0.0
5931,77.0,240.0,240.0,1.0,0.0
5932,74.0,0.0,480.0,4.0,0.0
5933,78.0,240.0,240.0,1.0,0.0
5934,62.0,0.0,480.0,5.0,0.0
5935,79.0,240.0,240.0,1.0,0.0
5936,80.0,240.0,240.0,1.0,0.0
5937,81.0,240.0,240.0,1.0,0.0
5938,66.0,0.0,480.0,5.0,0.0
5939,82.0,240.0,240.0,1.0,0.0
5940,85.0,194.0,240.0,1.0,0.0
5941,63.0,480.0,480.0,5.0,0.0
5942,69.0,0.0,960.0,4.0,0.0
5943,83.0,46.0,180.0,1.0,0.0
5944,64.0,54.0,1380.0,5.0,0.0
5945,83.0,374.0,480.0,1.0,0.0
5946,68.0,106.0,360.0,4.0,0.0
5947,76.0,166.0,540.0,1.0,0.0
5948,66.0,74.0,120.0,4.0,0.0
5949,68.0,6.0,420.0,4.0,0.0
5950,76.0,120.0,120.0,1.0,0.0
5951,75.0,60.0,120.0,1.0,0.0
5952,76.0,120.0,120.0,1.0,0.0
5953,77.0,120.0,120.0,1.0,0.0
5954,78.0,120.0,120.0,1.0,0.0
5955,79.0,96.0,120.0,1.0,0.0
5956,80.0,744.0,90.0,1.0,0.0
5957,81.0,76.0,720.0,1.0,0.0
5958,73.0,6.0,720.0,4.0,0.0
5959,76.0,0.0,480.0,3.0,0.0
5960,83.0,38.0,90.0,1.0,0.0
5961,81.0,60.0,60.0,1.0,0.0
5962,80.0,60.0,60.0,1.0,0.0
5963,81.0,720.0,60.0,1.0,0.0
5964,69.0,186.0,720.0,4.0,0.0
5965,85.0,0.0,900.0,1.0,0.0
5966,76.0,294.0,420.0,3.0,0.0
5967,83.0,240.0,240.0,1.0,0.0
5968,74.0,0.0,720.0,4.0,0.0
5969,85.0,240.0,240.0,1.0,0.0
5970,76.0,720.0,480.0,3.0,0.0
5971,86.0,194.0,240.0,1.0,0.0
5972,80.0,46.0,180.0,1.0,0.0
5973,73.0,0.0,720.0,4.0,0.0
5974,81.0,186.0,720.0,1.0,0.0
5975,76.0,166.0,420.0,3.0,0.0
5976,85.0,8.0,180.0,1.0,0.0
5977,74.0,126.0,720.0,4.0,0.0
5978,82.0,120.0,120.0,1.0,0.0
5979,83.0,120.0,120.0,1.0,0.0
5980,84.0,120.0,120.0,1.0,0.0
5981,85.0,134.0,120.0,1.0,0.0
5982,76.0,240.0,480.0,3.0,0.0
5983,86.0,106.0,120.0,1.0,0.0
5984,80.0,114.0,120.0,1.0,0.0
5985,81.0,480.0,240.0,1.0,0.0
5986,73.0,0.0,720.0,4.0,0.0
5987,85.0,180.0,480.0,1.0,0.0
5988,76.0,300.0,420.0,3.0,0.0
5989,88.0,240.0,480.0,1.0,0.0
5990,71.0,240.0,480.0,4.0,0.0
5991,76.0,54.0,1380.0,3.0,0.0
5992,86.0,240.0,480.0,1.0,0.0
5993,68.0,240.0,480.0,4.0,0.0
5994,83.0,186.0,480.0,1.0,0.0
5995,69.0,232.0,480.0,4.0,0.0
5996,85.0,194.0,480.0,1.0,0.0
5997,66.0,346.0,420.0,4.0,0.0
5998,81.0,8.0,180.0,1.0,0.0
5999,78.0,60.0,300.0,1.0,0.0
6000,62.0,60.0,900.0,5.0,0.0
6001,80.0,60.0,60.0,1.0,0.0
6002,78.0,60.0,60.0,1.0,0.0
6003,77.0,194.0,60.0,1.0,0.0
6004,78.0,226.0,180.0,1.0,0.0
6005,74.0,240.0,480.0,4.0,0.0
6006,83.0,240.0,480.0,1.0,0.0
6007,76.0,234.0,480.0,1.0,0.0
6008,64.0,6.0,480.0,5.0,0.0
6009,73.0,0.0,480.0,4.0,0.0
6010,81.0,180.0,480.0,1.0,0.0
6011,74.0,6.0,420.0,1.0,0.0
6012,71.0,8.0,420.0,4.0,0.0
6013,80.0,533.0,180.0,1.0,0.0
6014,80.0,420.0,960.0,1.0,0.0
6015,69.0,473.0,480.0,5.0,0.0
6016,74.0,0.0,960.0,2.0,0.0
6017,64.0,0.0,480.0,5.0,0.0
6018,81.0,6.0,420.0,1.0,0.0
6019,57.0,1398.0,420.0,5.0,0.0
6020,73.0,0.0,420.0,2.0,0.0
6021,76.0,384.0,960.0,1.0,0.0
6022,72.0,240.0,1920.0,2.0,0.0
6023,57.0,96.0,390.0,4.0,0.0
6024,50.0,480.0,390.0,4.0,0.0
6025,77.0,144.0,1200.0,1.0,0.0
6026,62.0,96.0,390.0,4.0,0.0
6027,55.0,110.0,390.0,4.0,0.0
6028,71.0,84.0,1260.0,2.0,0.0
6029,81.0,226.0,240.0,1.0,0.0
6030,79.0,144.0,240.0,1.0,0.0
6031,43.0,96.0,390.0,4.0,0.0
6032,77.0,300.0,240.0,1.0,0.0
6033,76.0,84.0,1260.0,1.0,0.0
6034,48.0,96.0,390.0,4.0,0.0
6035,74.0,240.0,240.0,2.0,0.0
6036,60.0,96.0,390.0,4.0,0.0
6037,72.0,144.0,240.0,2.0,0.0
6038,71.0,300.0,240.0,2.0,0.0
6039,53.0,110.0,390.0,4.0,0.0
6040,69.0,84.0,1260.0,2.0,0.0
6041,79.0,226.0,240.0,1.0,0.0
6042,41.0,96.0,390.0,4.0,0.0
6043,77.0,144.0,240.0,1.0,0.0
6044,76.0,300.0,240.0,1.0,0.0
6045,74.0,84.0,1260.0,1.0,0.0
6046,47.0,96.0,390.0,4.0,0.0
6047,72.0,240.0,240.0,2.0,0.0
6048,71.0,144.0,240.0,2.0,0.0
6049,59.0,96.0,390.0,4.0,0.0
6050,69.0,300.0,240.0,2.0,0.0
6051,68.0,6.0,960.0,2.0,0.0
6052,52.0,96.0,390.0,4.0,0.0
6053,77.0,240.0,240.0,1.0,0.0
6054,40.0,96.0,390.0,4.0,0.0
6055,76.0,144.0,240.0,1.0,0.0
6056,74.0,188.0,240.0,1.0,0.0
6057,45.0,0.0,180.0,4.0,0.0
6058,72.0,128.0,180.0,1.0,0.0
6059,69.0,0.0,600.0,2.0,0.0
6060,74.0,82.0,90.0,1.0,0.0
6061,53.0,6.0,240.0,4.0,0.0
6062,72.0,76.0,90.0,1.0,0.0
6063,71.0,128.0,90.0,1.0,0.0
6064,52.0,120.0,240.0,4.0,0.0
6065,72.0,106.0,120.0,1.0,0.0
6066,74.0,114.0,120.0,1.0,0.0
6067,71.0,6.0,120.0,2.0,0.0
6068,50.0,180.0,240.0,4.0,0.0
6069,76.0,136.0,180.0,1.0,0.0
6070,48.0,66.0,420.0,4.0,0.0
6071,72.0,6.0,180.0,2.0,0.0
6072,77.0,74.0,90.0,1.0,0.0
6073,76.0,24.0,90.0,1.0,0.0
6074,74.0,128.0,90.0,1.0,0.0
6075,76.0,232.0,120.0,1.0,0.0
6076,77.0,270.0,120.0,1.0,0.0
6077,79.0,240.0,150.0,1.0,0.0
6078,79.0,240.0,150.0,1.0,0.0
6079,79.0,240.0,150.0,1.0,0.0
6080,79.0,324.0,150.0,1.0,0.0
6081,79.0,186.0,240.0,1.0,0.0
6082,81.0,1014.0,180.0,1.0,0.0
6083,67.0,6.0,1380.0,4.0,0.0
6084,74.0,414.0,960.0,2.0,0.0
6085,77.0,0.0,960.0,1.0,0.0
6086,59.0,6.0,960.0,5.0,0.0
6087,76.0,0.0,420.0,1.0,0.0
6088,72.0,0.0,420.0,2.0,0.0
6089,60.0,294.0,420.0,5.0,0.0
6090,74.0,82.0,240.0,1.0,0.0
6091,65.0,246.0,960.0,4.0,0.0
6092,53.0,0.0,960.0,5.0,0.0
6093,69.0,0.0,960.0,2.0,0.0
6094,76.0,82.0,90.0,1.0,0.0
6095,74.0,82.0,90.0,1.0,0.0
6096,73.0,248.0,90.0,1.0,0.0
6097,74.0,106.0,240.0,1.0,0.0
6098,76.0,120.0,120.0,1.0,0.0
6099,77.0,0.0,120.0,1.0,0.0
6100,72.0,240.0,240.0,1.0,0.0
6101,55.0,240.0,480.0,5.0,0.0
6102,64.0,0.0,480.0,4.0,0.0
6103,67.0,0.0,240.0,2.0,0.0
6104,71.0,188.0,240.0,1.0,0.0
6105,65.0,0.0,240.0,2.0,0.0
6106,62.0,526.0,420.0,5.0,0.0
6107,60.0,480.0,480.0,5.0,0.0
6108,65.0,6.0,960.0,2.0,0.0
6109,74.0,414.0,960.0,1.0,0.0
6110,55.0,0.0,480.0,5.0,0.0
6111,48.0,6.0,420.0,5.0,0.0
6112,64.0,0.0,420.0,2.0,0.0
6113,72.0,1398.0,420.0,1.0,0.0
6114,76.0,384.0,960.0,1.0,0.0
6115,72.0,240.0,1920.0,2.0,0.0
6116,57.0,96.0,390.0,4.0,0.0
6117,50.0,480.0,390.0,4.0,0.0
6118,77.0,144.0,1200.0,1.0,0.0
6119,62.0,96.0,390.0,4.0,0.0
6120,55.0,110.0,390.0,4.0,0.0
6121,71.0,84.0,1260.0,2.0,0.0
6122,81.0,226.0,240.0,1.0,0.0
6123,43.0,96.0,390.0,4.0,0.0
6124,79.0,144.0,240.0,1.0,0.0
6125,77.0,300.0,240.0,1.0,0.0
6126,48.0,96.0,390.0,4.0,0.0
6127,76.0,84.0,1260.0,1.0,0.0
6128,74.0,240.0,240.0,2.0,0.0
6129,72.0,144.0,240.0,2.0,0.0
6130,60.0,96.0,390.0,4.0,0.0
6131,71.0,300.0,240.0,2.0,0.0
6132,53.0,110.0,390.0,4.0,0.0
6133,69.0,84.0,1260.0,2.0,0.0
6134,79.0,226.0,240.0,1.0,0.0
6135,77.0,144.0,240.0,1.0,0.0
6136,41.0,96.0,390.0,4.0,0.0
6137,76.0,300.0,240.0,1.0,0.0
6138,47.0,96.0,390.0,4.0,0.0
6139,74.0,84.0,1260.0,1.0,0.0
6140,72.0,240.0,240.0,2.0,0.0
6141,59.0,96.0,390.0,4.0,0.0
6142,71.0,144.0,240.0,2.0,0.0
6143,69.0,300.0,240.0,2.0,0.0
6144,52.0,96.0,390.0,4.0,0.0
6145,68.0,6.0,960.0,2.0,0.0
6146,77.0,240.0,240.0,1.0,0.0
6147,40.0,96.0,390.0,4.0,0.0
6148,76.0,144.0,240.0,1.0,0.0
6149,74.0,188.0,240.0,1.0,0.0
6150,69.0,0.0,600.0,2.0,0.0
6151,45.0,0.0,180.0,4.0,0.0
6152,72.0,128.0,180.0,1.0,0.0
6153,53.0,6.0,240.0,4.0,0.0
6154,74.0,82.0,90.0,1.0,0.0
6155,72.0,76.0,90.0,1.0,0.0
6156,71.0,128.0,90.0,1.0,0.0
6157,72.0,106.0,120.0,1.0,0.0
6158,52.0,120.0,240.0,4.0,0.0
6159,71.0,6.0,120.0,2.0,0.0
6160,50.0,180.0,240.0,4.0,0.0
6161,74.0,114.0,120.0,1.0,0.0
6162,48.0,66.0,420.0,4.0,0.0
6163,72.0,6.0,180.0,2.0,0.0
6164,76.0,136.0,180.0,1.0,0.0
6165,77.0,74.0,90.0,1.0,0.0
6166,76.0,24.0,90.0,1.0,0.0
6167,74.0,128.0,90.0,1.0,0.0
6168,76.0,232.0,120.0,1.0,0.0
6169,77.0,270.0,120.0,1.0,0.0
6170,79.0,240.0,150.0,1.0,0.0
6171,79.0,240.0,150.0,1.0,0.0
6172,79.0,240.0,150.0,1.0,0.0
6173,79.0,324.0,150.0,1.0,0.0
6174,79.0,186.0,240.0,1.0,0.0
6175,81.0,1014.0,180.0,1.0,0.0
6176,77.0,0.0,960.0,1.0,0.0
6177,74.0,414.0,960.0,2.0,0.0
6178,67.0,6.0,1380.0,4.0,0.0
6179,59.0,6.0,960.0,5.0,0.0
6180,76.0,0.0,420.0,1.0,0.0
6181,60.0,294.0,420.0,5.0,0.0
6182,72.0,0.0,420.0,2.0,0.0
6183,74.0,82.0,240.0,1.0,0.0
6184,53.0,0.0,960.0,5.0,0.0
6185,69.0,0.0,960.0,2.0,0.0
6186,65.0,0.0,960.0,4.0,0.0
6187,76.0,82.0,90.0,1.0,0.0
6188,74.0,82.0,90.0,1.0,0.0
6189,73.0,248.0,90.0,1.0,0.0
6190,74.0,106.0,240.0,1.0,0.0
6191,76.0,120.0,120.0,1.0,0.0
6192,77.0,246.0,120.0,1.0,0.0
6193,55.0,240.0,480.0,5.0,0.0
6194,64.0,0.0,480.0,4.0,0.0
6195,67.0,0.0,240.0,2.0,0.0
6196,72.0,240.0,240.0,1.0,0.0
6197,62.0,526.0,420.0,5.0,0.0
6198,71.0,0.0,240.0,1.0,0.0
6199,65.0,188.0,240.0,2.0,0.0
6200,74.0,414.0,960.0,1.0,0.0
6201,65.0,6.0,960.0,2.0,0.0
6202,60.0,480.0,480.0,5.0,0.0
6203,55.0,0.0,480.0,5.0,0.0
6204,48.0,0.0,420.0,5.0,0.0
6205,64.0,6.0,420.0,2.0,0.0
6206,72.0,1440.0,420.0,1.0,0.0
6207,76.0,6.0,960.0,1.0,0.0
6208,73.0,894.0,960.0,2.0,0.0
6209,69.0,54.0,420.0,4.0,0.0
6210,74.0,346.0,900.0,2.0,0.0
6211,77.0,8.0,900.0,1.0,0.0
6212,68.0,6.0,420.0,4.0,0.0
6213,76.0,180.0,300.0,1.0,0.0
6214,67.0,14.0,480.0,4.0,0.0
6215,73.0,226.0,960.0,2.0,0.0
6216,82.0,226.0,240.0,1.0,0.0
6217,81.0,0.0,240.0,1.0,0.0
6218,66.0,240.0,240.0,4.0,0.0
6219,79.0,8.0,240.0,1.0,0.0
6220,64.0,6.0,240.0,4.0,0.0
6221,74.0,46.0,420.0,2.0,0.0
6222,77.0,14.0,420.0,1.0,0.0
6223,62.0,180.0,240.0,4.0,0.0
6224,64.0,240.0,240.0,4.0,0.0
6225,65.0,240.0,240.0,4.0,0.0
6226,66.0,420.0,240.0,4.0,0.0
6227,74.0,6.0,960.0,1.0,0.0
6228,71.0,900.0,960.0,2.0,0.0
6229,67.0,480.0,420.0,4.0,0.0
6230,67.0,60.0,420.0,4.0,0.0
6231,75.0,0.0,900.0,1.0,0.0
6232,72.0,346.0,900.0,2.0,0.0
6233,66.0,8.0,420.0,4.0,0.0
6234,71.0,186.0,1200.0,2.0,0.0
6235,74.0,180.0,300.0,1.0,0.0
6236,65.0,240.0,480.0,4.0,0.0
6237,81.0,0.0,240.0,1.0,0.0
6238,79.0,234.0,240.0,1.0,0.0
6239,64.0,6.0,240.0,4.0,0.0
6240,77.0,0.0,240.0,1.0,0.0
6241,62.0,240.0,240.0,4.0,0.0
6242,76.0,54.0,420.0,1.0,0.0
6243,60.0,0.0,240.0,4.0,0.0
6244,59.0,240.0,240.0,4.0,0.0
6245,74.0,0.0,240.0,2.0,0.0
6246,72.0,0.0,240.0,2.0,0.0
6247,57.0,172.0,240.0,4.0,0.0
6248,76.0,68.0,180.0,1.0,0.0
6249,55.0,0.0,240.0,4.0,0.0
6250,71.0,240.0,240.0,2.0,0.0
6251,76.0,186.0,240.0,1.0,0.0
6252,54.0,0.0,420.0,4.0,0.0
6253,69.0,474.0,420.0,2.0,0.0
6254,75.0,0.0,180.0,1.0,0.0
6255,56.0,0.0,420.0,4.0,0.0
6256,71.0,0.0,180.0,2.0,0.0
6257,74.0,300.0,180.0,1.0,0.0
6258,57.0,8.0,420.0,4.0,0.0
6259,74.0,0.0,240.0,1.0,0.0
6260,71.0,186.0,240.0,2.0,0.0
6261,73.0,0.0,180.0,1.0,0.0
6262,69.0,466.0,180.0,2.0,0.0
6263,51.0,0.0,420.0,4.0,0.0
6264,69.0,306.0,180.0,2.0,0.0
6265,72.0,0.0,180.0,1.0,0.0
6266,69.0,234.0,960.0,2.0,0.0
6267,52.0,54.0,420.0,4.0,0.0
6268,72.0,180.0,240.0,1.0,0.0
6269,74.0,240.0,240.0,1.0,0.0
6270,64.0,180.0,720.0,4.0,0.0
6271,75.0,240.0,240.0,1.0,0.0
6272,76.0,6.0,240.0,1.0,0.0
6273,68.0,6.0,420.0,2.0,0.0
6274,71.0,54.0,420.0,1.0,0.0
6275,63.0,240.0,240.0,4.0,0.0
6276,64.0,180.0,240.0,4.0,0.0
6277,63.0,1020.0,180.0,4.0,0.0
6278,64.0,480.0,960.0,5.0,0.0
6279,80.0,480.0,960.0,1.0,0.0
6280,74.0,0.0,960.0,2.0,0.0
6281,65.0,240.0,1200.0,5.0,0.0
6282,81.0,234.0,480.0,1.0,0.0
6283,72.0,6.0,480.0,2.0,0.0
6284,71.0,240.0,1200.0,2.0,0.0
6285,74.0,0.0,480.0,1.0,0.0
6286,69.0,240.0,240.0,5.0,0.0
6287,76.0,240.0,240.0,1.0,0.0
6288,67.0,0.0,240.0,5.0,0.0
6289,65.0,6.0,240.0,5.0,0.0
6290,77.0,234.0,240.0,1.0,0.0
6291,79.0,234.0,960.0,1.0,0.0
6292,64.0,240.0,1200.0,5.0,0.0
6293,74.0,240.0,240.0,2.0,0.0
6294,72.0,240.0,240.0,2.0,0.0
6295,71.0,6.0,240.0,2.0,0.0
6296,69.0,240.0,1200.0,2.0,0.0
6297,72.0,234.0,480.0,1.0,0.0
6298,67.0,6.0,240.0,5.0,0.0
6299,74.0,240.0,240.0,1.0,0.0
6300,65.0,0.0,240.0,5.0,0.0
6301,76.0,14.0,240.0,1.0,0.0
6302,64.0,226.0,240.0,5.0,0.0
6303,77.0,0.0,960.0,1.0,0.0
6304,62.0,240.0,1200.0,5.0,0.0
6305,72.0,240.0,240.0,2.0,0.0
6306,71.0,240.0,240.0,2.0,0.0
6307,69.0,240.0,240.0,2.0,0.0
6308,68.0,0.0,480.0,2.0,0.0
6309,71.0,0.0,480.0,1.0,0.0
6310,65.0,240.0,240.0,5.0,0.0
6311,64.0,180.0,240.0,5.0,0.0
6312,72.0,0.0,240.0,1.0,0.0
6313,69.0,0.0,240.0,2.0,0.0
6314,74.0,54.0,180.0,1.0,0.0
6315,71.0,6.0,180.0,2.0,0.0
6316,62.0,240.0,240.0,5.0,0.0
6317,72.0,74.0,780.0,2.0,0.0
6318,60.0,6.0,240.0,5.0,0.0
6319,76.0,76.0,240.0,1.0,0.0
6320,59.0,6.0,240.0,5.0,0.0
6321,83.0,60.0,90.0,1.0,0.0
6322,81.0,98.0,90.0,1.0,0.0
6323,80.0,128.0,90.0,1.0,0.0
6324,57.0,60.0,240.0,5.0,0.0
6325,81.0,106.0,120.0,1.0,0.0
6326,55.0,234.0,240.0,5.0,0.0
6327,83.0,112.0,120.0,1.0,0.0
6328,53.0,126.0,480.0,5.0,0.0
6329,84.0,126.0,240.0,1.0,0.0
6330,75.0,114.0,120.0,1.0,0.0
6331,69.0,360.0,360.0,4.0,0.0
6332,65.0,0.0,360.0,4.0,0.0
6333,75.0,234.0,120.0,1.0,0.0
6334,75.0,0.0,120.0,1.0,0.0
6335,84.0,126.0,240.0,1.0,0.0
6336,54.0,126.0,480.0,5.0,0.0
6337,75.0,114.0,120.0,1.0,0.0
6338,69.0,346.0,360.0,4.0,0.0
6339,75.0,234.0,120.0,1.0,0.0
6340,66.0,8.0,360.0,4.0,0.0
6341,75.0,6.0,120.0,1.0,0.0
6342,76.0,186.0,240.0,1.0,0.0
6343,77.0,1014.0,180.0,1.0,0.0
6344,71.0,0.0,960.0,2.0,0.0
6345,56.0,0.0,960.0,5.0,0.0
6346,74.0,420.0,960.0,1.0,0.0
6347,65.0,0.0,960.0,4.0,0.0
6348,57.0,0.0,420.0,5.0,0.0
6349,69.0,6.0,420.0,2.0,0.0
6350,64.0,0.0,420.0,4.0,0.0
6351,72.0,294.0,420.0,1.0,0.0
6352,50.0,0.0,960.0,5.0,0.0
6353,71.0,194.0,240.0,1.0,0.0
6354,77.0,166.0,180.0,1.0,0.0
6355,76.0,120.0,120.0,1.0,0.0
6356,62.0,0.0,480.0,4.0,0.0
6357,74.0,120.0,120.0,1.0,0.0
6358,72.0,120.0,120.0,1.0,0.0
6359,71.0,254.0,120.0,1.0,0.0
6360,69.0,226.0,240.0,1.0,0.0
6361,52.0,540.0,900.0,5.0,0.0
6362,60.0,254.0,480.0,4.0,0.0
6363,59.0,6.0,420.0,4.0,0.0
6364,68.0,166.0,240.0,1.0,0.0
6365,71.0,0.0,960.0,1.0,0.0
6366,62.0,0.0,960.0,2.0,0.0
6367,57.0,474.0,480.0,5.0,0.0
6368,52.0,420.0,480.0,5.0,0.0
6369,69.0,0.0,420.0,1.0,0.0
6370,45.0,6.0,420.0,5.0,0.0
6371,60.0,1440.0,420.0,2.0,0.0
6372,73.0,894.0,960.0,2.0,0.0
6373,76.0,6.0,960.0,1.0,0.0
6374,69.0,54.0,420.0,4.0,0.0
6375,77.0,8.0,900.0,1.0,0.0
6376,74.0,346.0,900.0,2.0,0.0
6377,68.0,6.0,420.0,4.0,0.0
6378,67.0,14.0,480.0,4.0,0.0
6379,76.0,180.0,300.0,1.0,0.0
6380,73.0,226.0,960.0,2.0,0.0
6381,82.0,226.0,240.0,1.0,0.0
6382,66.0,240.0,240.0,4.0,0.0
6383,81.0,0.0,240.0,1.0,0.0
6384,79.0,8.0,240.0,1.0,0.0
6385,64.0,6.0,240.0,4.0,0.0
6386,62.0,180.0,240.0,4.0,0.0
6387,74.0,46.0,420.0,2.0,0.0
6388,77.0,14.0,420.0,1.0,0.0
6389,64.0,240.0,240.0,4.0,0.0
6390,65.0,240.0,240.0,4.0,0.0
6391,66.0,420.0,240.0,4.0,0.0
6392,71.0,900.0,960.0,2.0,0.0
6393,67.0,480.0,420.0,4.0,0.0
6394,74.0,6.0,960.0,1.0,0.0
6395,67.0,60.0,420.0,4.0,0.0
6396,75.0,8.0,900.0,1.0,0.0
6397,72.0,346.0,900.0,2.0,0.0
6398,66.0,0.0,420.0,4.0,0.0
6399,74.0,180.0,300.0,1.0,0.0
6400,71.0,186.0,1200.0,2.0,0.0
6401,65.0,0.0,480.0,4.0,0.0
6402,81.0,240.0,240.0,1.0,0.0
6403,64.0,6.0,240.0,4.0,0.0
6404,79.0,234.0,240.0,1.0,0.0
6405,77.0,0.0,240.0,1.0,0.0
6406,62.0,240.0,240.0,4.0,0.0
6407,76.0,54.0,420.0,1.0,0.0
6408,60.0,0.0,240.0,4.0,0.0
6409,74.0,0.0,240.0,2.0,0.0
6410,59.0,240.0,240.0,4.0,0.0
6411,57.0,0.0,240.0,4.0,0.0
6412,72.0,172.0,240.0,2.0,0.0
6413,71.0,0.0,240.0,2.0,0.0
6414,76.0,68.0,180.0,1.0,0.0
6415,55.0,240.0,240.0,4.0,0.0
6416,69.0,0.0,420.0,2.0,0.0
6417,54.0,0.0,420.0,4.0,0.0
6418,76.0,186.0,240.0,1.0,0.0
6419,75.0,474.0,180.0,1.0,0.0
6420,56.0,0.0,420.0,4.0,0.0
6421,71.0,0.0,180.0,2.0,0.0
6422,74.0,300.0,180.0,1.0,0.0
6423,74.0,0.0,240.0,1.0,0.0
6424,71.0,186.0,240.0,2.0,0.0
6425,57.0,8.0,420.0,4.0,0.0
6426,69.0,0.0,180.0,2.0,0.0
6427,73.0,466.0,180.0,1.0,0.0
6428,51.0,0.0,420.0,4.0,0.0
6429,72.0,0.0,180.0,1.0,0.0
6430,69.0,306.0,180.0,2.0,0.0
6431,69.0,234.0,960.0,2.0,0.0
6432,72.0,180.0,240.0,1.0,0.0
6433,52.0,54.0,420.0,4.0,0.0
6434,74.0,240.0,240.0,1.0,0.0
6435,64.0,180.0,720.0,4.0,0.0
6436,75.0,240.0,240.0,1.0,0.0
6437,76.0,6.0,240.0,1.0,0.0
6438,68.0,6.0,420.0,2.0,0.0
6439,71.0,54.0,420.0,1.0,0.0
6440,63.0,240.0,240.0,4.0,0.0
6441,64.0,180.0,240.0,4.0,0.0
6442,63.0,1020.0,180.0,4.0,0.0
6443,64.0,480.0,960.0,5.0,0.0
6444,80.0,0.0,960.0,1.0,0.0
6445,74.0,480.0,960.0,2.0,0.0
6446,65.0,240.0,1200.0,5.0,0.0
6447,81.0,234.0,480.0,1.0,0.0
6448,72.0,6.0,480.0,2.0,0.0
6449,71.0,240.0,1200.0,2.0,0.0
6450,74.0,240.0,480.0,1.0,0.0
6451,69.0,0.0,240.0,5.0,0.0
6452,67.0,0.0,240.0,5.0,0.0
6453,76.0,240.0,240.0,1.0,0.0
6454,65.0,6.0,240.0,5.0,0.0
6455,77.0,234.0,240.0,1.0,0.0
6456,79.0,234.0,960.0,1.0,0.0
6457,64.0,240.0,1200.0,5.0,0.0
6458,74.0,240.0,240.0,2.0,0.0
6459,72.0,240.0,240.0,2.0,0.0
6460,71.0,6.0,240.0,2.0,0.0
6461,69.0,240.0,1200.0,2.0,0.0
6462,72.0,234.0,480.0,1.0,0.0
6463,67.0,6.0,240.0,5.0,0.0
6464,74.0,0.0,240.0,1.0,0.0
6465,65.0,240.0,240.0,5.0,0.0
6466,64.0,226.0,240.0,5.0,0.0
6467,76.0,14.0,240.0,1.0,0.0
6468,62.0,240.0,1200.0,5.0,0.0
6469,77.0,240.0,960.0,1.0,0.0
6470,72.0,240.0,240.0,2.0,0.0
6471,71.0,240.0,240.0,2.0,0.0
6472,69.0,0.0,240.0,2.0,0.0
6473,71.0,0.0,480.0,1.0,0.0
6474,68.0,240.0,480.0,2.0,0.0
6475,65.0,0.0,240.0,5.0,0.0
6476,69.0,180.0,240.0,2.0,0.0
6477,72.0,0.0,240.0,1.0,0.0
6478,64.0,0.0,240.0,5.0,0.0
6479,62.0,240.0,240.0,5.0,0.0
6480,71.0,6.0,180.0,2.0,0.0
6481,74.0,54.0,180.0,1.0,0.0
6482,72.0,74.0,780.0,2.0,0.0
6483,76.0,76.0,240.0,1.0,0.0
6484,60.0,6.0,240.0,5.0,0.0
6485,83.0,60.0,90.0,1.0,0.0
6486,59.0,6.0,240.0,5.0,0.0
6487,81.0,98.0,90.0,1.0,0.0
6488,80.0,128.0,90.0,1.0,0.0
6489,81.0,106.0,120.0,1.0,0.0
6490,57.0,60.0,240.0,5.0,0.0
6491,83.0,112.0,120.0,1.0,0.0
6492,55.0,234.0,240.0,5.0,0.0
6493,84.0,126.0,240.0,1.0,0.0
6494,53.0,126.0,480.0,5.0,0.0
6495,75.0,114.0,120.0,1.0,0.0
6496,75.0,234.0,120.0,1.0,0.0
6497,65.0,0.0,360.0,4.0,0.0
6498,69.0,360.0,360.0,4.0,0.0
6499,75.0,0.0,120.0,1.0,0.0
6500,54.0,126.0,480.0,5.0,0.0
6501,84.0,126.0,240.0,1.0,0.0
6502,75.0,114.0,120.0,1.0,0.0
6503,69.0,346.0,360.0,4.0,0.0
6504,66.0,8.0,360.0,4.0,0.0
6505,75.0,234.0,120.0,1.0,0.0
6506,75.0,6.0,120.0,1.0,0.0
6507,76.0,186.0,240.0,1.0,0.0
6508,77.0,1014.0,180.0,1.0,0.0
6509,65.0,420.0,960.0,4.0,0.0
6510,71.0,0.0,960.0,2.0,0.0
6511,74.0,0.0,960.0,1.0,0.0
6512,56.0,0.0,960.0,5.0,0.0
6513,57.0,294.0,420.0,5.0,0.0
6514,64.0,0.0,420.0,4.0,0.0
6515,69.0,6.0,420.0,2.0,0.0
6516,72.0,0.0,420.0,1.0,0.0
6517,71.0,194.0,240.0,1.0,0.0
6518,50.0,0.0,960.0,5.0,0.0
6519,77.0,166.0,180.0,1.0,0.0
6520,62.0,0.0,480.0,4.0,0.0
6521,76.0,120.0,120.0,1.0,0.0
6522,74.0,120.0,120.0,1.0,0.0
6523,72.0,120.0,120.0,1.0,0.0
6524,71.0,254.0,120.0,1.0,0.0
6525,60.0,254.0,480.0,4.0,0.0
6526,69.0,226.0,240.0,1.0,0.0
6527,52.0,1268.0,900.0,5.0,0.0
6528,68.0,166.0,240.0,1.0,0.0
6529,59.0,6.0,420.0,4.0,0.0
6530,68.0,46.0,1200.0,1.0,0.0
6531,62.0,0.0,1800.0,2.0,0.0
6532,57.0,0.0,1800.0,5.0,0.0
6533,45.0,306.0,1800.0,5.0,0.0
6534,69.0,60.0,60.0,1.0,0.0
6535,68.0,60.0,60.0,1.0,0.0
6536,66.0,60.0,60.0,1.0,0.0
6537,68.0,240.0,60.0,1.0,0.0
6538,71.0,120.0,240.0,1.0,0.0
6539,69.0,6.0,120.0,1.0,0.0
6540,61.0,0.0,180.0,2.0,0.0
6541,45.0,0.0,180.0,5.0,0.0
6542,57.0,48.0,180.0,5.0,0.0
6543,69.0,60.0,240.0,1.0,0.0
6544,71.0,60.0,60.0,1.0,0.0
6545,69.0,60.0,60.0,1.0,0.0
6546,68.0,74.0,60.0,1.0,0.0
6547,69.0,232.0,60.0,1.0,0.0
6548,73.0,114.0,240.0,1.0,0.0
6549,71.0,312.0,120.0,1.0,0.0
6550,71.0,60.0,240.0,1.0,0.0
6551,45.0,0.0,180.0,5.0,0.0
6552,57.0,2.0,180.0,5.0,0.0
6553,68.0,46.0,180.0,2.0,0.0
6554,73.0,60.0,60.0,1.0,0.0
6555,71.0,60.0,60.0,1.0,0.0
6556,70.0,60.0,60.0,1.0,0.0
6557,71.0,240.0,60.0,1.0,0.0
6558,74.0,120.0,240.0,1.0,0.0
6559,73.0,240.0,120.0,1.0,0.0
6560,73.0,72.0,120.0,1.0,0.0
6561,57.0,174.0,420.0,5.0,0.0
6562,45.0,6.0,420.0,5.0,0.0
6563,69.0,84.0,180.0,2.0,0.0
6564,69.0,144.0,120.0,1.0,0.0
6565,71.0,0.0,120.0,1.0,0.0
6566,73.0,172.0,120.0,1.0,0.0
6567,74.0,170.0,120.0,1.0,0.0
6568,76.0,144.0,150.0,1.0,0.0
6569,74.0,154.0,120.0,1.0,0.0
6570,71.0,154.0,120.0,1.0,0.0
6571,73.0,166.0,120.0,1.0,0.0
6572,74.0,172.0,120.0,1.0,0.0
6573,76.0,164.0,120.0,1.0,0.0
6574,78.0,158.0,150.0,1.0,0.0
6575,76.0,166.0,120.0,1.0,0.0
6576,69.0,142.0,120.0,1.0,0.0
6577,71.0,180.0,120.0,1.0,0.0
6578,72.0,158.0,150.0,1.0,0.0
6579,73.0,150.0,120.0,1.0,0.0
6580,74.0,172.0,120.0,1.0,0.0
6581,75.0,138.0,150.0,1.0,0.0
6582,76.0,170.0,120.0,1.0,0.0
6583,77.0,172.0,120.0,1.0,0.0
6584,78.0,158.0,150.0,1.0,0.0
6585,79.0,134.0,120.0,1.0,0.0
6586,80.0,766.0,120.0,1.0,0.0
6587,81.0,60.0,720.0,1.0,0.0
6588,73.0,0.0,720.0,4.0,0.0
6589,76.0,720.0,480.0,3.0,0.0
6590,83.0,60.0,60.0,1.0,0.0
6591,81.0,60.0,60.0,1.0,0.0
6592,80.0,60.0,60.0,1.0,0.0
6593,81.0,0.0,60.0,1.0,0.0
6594,85.0,0.0,900.0,1.0,0.0
6595,69.0,180.0,720.0,4.0,0.0
6596,76.0,300.0,420.0,3.0,0.0
6597,74.0,6.0,720.0,4.0,0.0
6598,85.0,180.0,240.0,1.0,0.0
6599,83.0,300.0,180.0,1.0,0.0
6600,76.0,240.0,480.0,3.0,0.0
6601,83.0,174.0,240.0,1.0,0.0
6602,80.0,60.0,180.0,1.0,0.0
6603,73.0,126.0,720.0,4.0,0.0
6604,81.0,96.0,240.0,1.0,0.0
6605,83.0,68.0,90.0,1.0,0.0
6606,81.0,90.0,90.0,1.0,0.0
6607,80.0,172.0,90.0,1.0,0.0
6608,81.0,54.0,180.0,1.0,0.0
6609,76.0,286.0,420.0,3.0,0.0
6610,85.0,68.0,120.0,1.0,0.0
6611,74.0,134.0,720.0,4.0,0.0
6612,82.0,240.0,240.0,1.0,0.0
6613,83.0,186.0,240.0,1.0,0.0
6614,86.0,54.0,180.0,1.0,0.0
6615,76.0,240.0,480.0,3.0,0.0
6616,80.0,106.0,120.0,1.0,0.0
6617,73.0,180.0,720.0,4.0,0.0
6618,83.0,480.0,240.0,1.0,0.0
6619,81.0,0.0,480.0,1.0,0.0
6620,76.0,300.0,420.0,3.0,0.0
6621,85.0,0.0,180.0,1.0,0.0
6622,76.0,120.0,240.0,3.0,0.0
6623,71.0,0.0,240.0,4.0,0.0
6624,88.0,120.0,120.0,1.0,0.0
6625,86.0,240.0,120.0,1.0,0.0
6626,68.0,0.0,240.0,4.0,0.0
6627,76.0,120.0,240.0,3.0,0.0
6628,85.0,104.0,120.0,1.0,0.0
6629,83.0,256.0,90.0,1.0,0.0
6630,69.0,0.0,240.0,4.0,0.0
6631,76.0,126.0,240.0,3.0,0.0
6632,86.0,90.0,120.0,1.0,0.0
6633,85.0,264.0,90.0,1.0,0.0
6634,76.0,0.0,240.0,3.0,0.0
6635,73.0,120.0,240.0,4.0,0.0
6636,83.0,90.0,120.0,1.0,0.0
6637,81.0,276.0,90.0,1.0,0.0
6638,78.0,76.0,240.0,1.0,0.0
6639,74.0,134.0,480.0,4.0,0.0
6640,80.0,82.0,90.0,1.0,0.0
6641,78.0,76.0,90.0,1.0,0.0
6642,77.0,0.0,90.0,1.0,0.0
6643,78.0,248.0,120.0,1.0,0.0
6644,62.0,240.0,480.0,3.0,0.0
6645,80.0,98.0,150.0,1.0,0.0
6646,66.0,0.0,480.0,3.0,0.0
6647,81.0,240.0,240.0,1.0,0.0
6648,82.0,240.0,240.0,1.0,0.0
6649,69.0,360.0,960.0,4.0,0.0
6650,85.0,180.0,240.0,1.0,0.0
6651,63.0,474.0,480.0,3.0,0.0
6652,83.0,66.0,180.0,1.0,0.0
6653,64.0,46.0,1380.0,3.0,0.0
6654,83.0,0.0,480.0,1.0,0.0
6655,76.0,114.0,600.0,1.0,0.0
6656,68.0,120.0,360.0,4.0,0.0
6657,66.0,126.0,120.0,4.0,0.0
6658,68.0,14.0,420.0,4.0,0.0
6659,77.0,120.0,120.0,1.0,0.0
6660,78.0,60.0,120.0,1.0,0.0
6661,76.0,120.0,15.0,1.0,0.0
6662,74.0,120.0,120.0,1.0,0.0
6663,73.0,120.0,120.0,1.0,0.0
6664,71.0,240.0,120.0,1.0,0.0
6665,69.0,134.0,240.0,1.0,0.0
6666,61.0,14.0,720.0,4.0,0.0
6667,71.0,120.0,120.0,1.0,0.0
6668,73.0,112.0,120.0,1.0,0.0
6669,74.0,114.0,120.0,1.0,0.0
6670,64.0,120.0,480.0,3.0,0.0
6671,76.0,106.0,120.0,1.0,0.0
6672,78.0,120.0,120.0,1.0,0.0
6673,80.0,0.0,120.0,1.0,0.0
6674,57.0,126.0,720.0,4.0,0.0
6675,81.0,120.0,120.0,1.0,0.0
6676,83.0,120.0,120.0,1.0,0.0
6677,85.0,120.0,120.0,1.0,0.0
6678,86.0,134.0,120.0,1.0,0.0
6679,64.0,194.0,420.0,3.0,0.0
6680,88.0,106.0,120.0,1.0,0.0
6681,85.0,54.0,120.0,1.0,0.0
6682,83.0,106.0,120.0,1.0,0.0
6683,62.0,120.0,720.0,4.0,0.0
6684,85.0,126.0,120.0,1.0,0.0
6685,86.0,114.0,120.0,1.0,0.0
6686,83.0,120.0,120.0,1.0,0.0
6687,80.0,120.0,120.0,1.0,0.0
6688,64.0,0.0,480.0,3.0,0.0
6689,81.0,0.0,120.0,1.0,0.0
6690,83.0,120.0,120.0,1.0,0.0
6691,80.0,96.0,120.0,1.0,0.0
6692,61.0,0.0,720.0,4.0,0.0
6693,81.0,150.0,90.0,1.0,0.0
6694,88.0,114.0,120.0,1.0,0.0
6695,87.0,96.0,120.0,1.0,0.0
6696,88.0,144.0,90.0,1.0,0.0
6697,90.0,120.0,120.0,1.0,0.0
6698,64.0,22.0,420.0,3.0,0.0
6699,88.0,120.0,120.0,1.0,0.0
6700,86.0,74.0,120.0,1.0,0.0
6701,85.0,144.0,90.0,1.0,0.0
6702,83.0,120.0,120.0,1.0,0.0
6703,62.0,120.0,720.0,4.0,0.0
6704,85.0,120.0,120.0,1.0,0.0
6705,86.0,120.0,120.0,1.0,0.0
6706,83.0,120.0,120.0,1.0,0.0
6707,80.0,120.0,120.0,1.0,0.0
6708,64.0,240.0,480.0,3.0,0.0
6709,81.0,0.0,120.0,1.0,0.0
6710,83.0,96.0,120.0,1.0,0.0
6711,80.0,24.0,90.0,1.0,0.0
6712,81.0,186.0,240.0,1.0,0.0
6713,61.0,294.0,420.0,4.0,0.0
6714,85.0,180.0,480.0,1.0,0.0
6715,73.0,0.0,480.0,2.0,0.0
6716,57.0,300.0,420.0,4.0,0.0
6717,64.0,0.0,420.0,3.0,0.0
6718,88.0,240.0,480.0,1.0,0.0
6719,76.0,0.0,480.0,2.0,0.0
6720,64.0,300.0,1380.0,3.0,0.0
6721,59.0,240.0,480.0,4.0,0.0
6722,75.0,180.0,480.0,2.0,0.0
6723,87.0,0.0,480.0,1.0,0.0
6724,56.0,300.0,420.0,4.0,0.0
6725,86.0,0.0,480.0,1.0,0.0
6726,74.0,180.0,480.0,2.0,0.0
6727,57.0,0.0,420.0,4.0,0.0
6728,72.0,0.0,480.0,2.0,0.0
6729,84.0,180.0,480.0,1.0,0.0
6730,54.0,22.0,420.0,4.0,0.0
6731,57.0,0.0,420.0,3.0,0.0
6732,85.0,292.0,210.0,1.0,0.0
6733,73.0,0.0,210.0,2.0,0.0
6734,59.0,0.0,420.0,3.0,0.0
6735,54.0,6.0,420.0,3.0,0.0
6736,50.0,54.0,420.0,4.0,0.0
6737,71.0,106.0,120.0,1.0,0.0
6738,73.0,60.0,120.0,1.0,0.0
6739,74.0,120.0,120.0,1.0,0.0
6740,76.0,120.0,120.0,1.0,0.0
6741,78.0,120.0,120.0,1.0,0.0
6742,80.0,120.0,120.0,1.0,0.0
6743,82.0,120.0,120.0,1.0,0.0
6744,83.0,120.0,120.0,1.0,0.0
6745,85.0,120.0,120.0,1.0,0.0
6746,86.0,120.0,120.0,1.0,0.0
6747,88.0,126.0,120.0,1.0,0.0
6748,90.0,234.0,120.0,1.0,0.0
6749,64.0,6.0,120.0,4.0,0.0
6750,80.0,832.0,120.0,1.0,0.0
6751,74.0,8.0,120.0,3.0,0.0
6752,74.0,0.0,960.0,3.0,0.0
6753,69.0,16.0,1380.0,4.0,0.0
6754,83.0,114.0,720.0,1.0,0.0
6755,85.0,120.0,120.0,1.0,0.0
6756,83.0,134.0,120.0,1.0,0.0
6757,73.0,0.0,420.0,3.0,0.0
6758,81.0,138.0,120.0,1.0,0.0
6759,80.0,154.0,120.0,1.0,0.0
6760,79.0,158.0,150.0,1.0,0.0
6761,78.0,150.0,120.0,1.0,0.0
6762,77.0,172.0,120.0,1.0,0.0
6763,76.0,758.0,120.0,1.0,0.0
6764,54.0,240.0,720.0,4.0,0.0
6765,74.0,714.0,960.0,1.0,0.0
6766,57.0,6.0,480.0,3.0,0.0
6767,73.0,142.0,960.0,1.0,0.0
6768,52.0,180.0,720.0,4.0,0.0
6769,57.0,60.0,420.0,3.0,0.0
6770,71.0,158.0,150.0,1.0,0.0
6771,52.0,60.0,720.0,4.0,0.0
6772,50.0,6.0,960.0,5.0,0.0
6773,73.0,150.0,120.0,1.0,0.0
6774,74.0,164.0,120.0,1.0,0.0
6775,76.0,106.0,120.0,1.0,0.0
6776,59.0,420.0,480.0,3.0,0.0
6777,78.0,142.0,120.0,1.0,0.0
6778,80.0,38.0,120.0,1.0,0.0
6779,52.0,180.0,720.0,4.0,0.0
6780,81.0,294.0,420.0,1.0,0.0
6781,49.0,0.0,900.0,5.0,0.0
6782,57.0,6.0,420.0,3.0,0.0
6783,81.0,294.0,180.0,1.0,0.0
6784,66.0,126.0,720.0,4.0,0.0
6785,88.0,180.0,240.0,1.0,0.0
6786,87.0,300.0,180.0,1.0,0.0
6787,69.0,240.0,480.0,3.0,0.0
6788,86.0,114.0,120.0,1.0,0.0
6789,84.0,180.0,240.0,1.0,0.0
6790,64.0,126.0,720.0,4.0,0.0
6791,85.0,300.0,180.0,1.0,0.0
6792,69.0,180.0,420.0,3.0,0.0
6793,85.0,54.0,120.0,1.0,0.0
6794,82.0,120.0,120.0,1.0,0.0
6795,64.0,120.0,720.0,4.0,0.0
6796,62.0,0.0,960.0,5.0,0.0
6797,83.0,120.0,120.0,1.0,0.0
6798,85.0,120.0,120.0,1.0,0.0
6799,86.0,120.0,120.0,1.0,0.0
6800,71.0,420.0,480.0,3.0,0.0
6801,87.0,120.0,120.0,1.0,0.0
6802,88.0,0.0,120.0,1.0,0.0
6803,90.0,120.0,120.0,1.0,0.0
6804,92.0,0.0,120.0,1.0,0.0
6805,61.0,6.0,900.0,5.0,0.0
6806,64.0,180.0,720.0,4.0,0.0
6807,93.0,300.0,420.0,1.0,0.0
6808,69.0,414.0,420.0,3.0,0.0
6809,81.0,112.0,360.0,1.0,0.0
6810,78.0,428.0,120.0,1.0,0.0
6811,66.0,0.0,420.0,5.0,0.0
6812,69.0,540.0,420.0,4.0,0.0
6813,75.0,7.0,960.0,1.0,0.0
6814,69.0,413.0,480.0,4.0,0.0
6815,66.0,0.0,480.0,5.0,0.0
6816,68.0,0.0,420.0,4.0,0.0
6817,64.0,0.0,420.0,5.0,0.0
6818,76.0,426.0,420.0,1.0,0.0
6819,78.0,98.0,360.0,1.0,0.0
6820,74.0,436.0,90.0,1.0,0.0
6821,56.0,540.0,420.0,5.0,0.0
6822,71.0,406.0,960.0,1.0,0.0
6823,64.0,0.0,420.0,4.0,0.0
6824,62.0,0.0,420.0,4.0,0.0
6825,62.0,0.0,480.0,4.0,0.0
6826,56.0,14.0,480.0,5.0,0.0
6827,64.0,0.0,900.0,4.0,0.0
6828,73.0,0.0,420.0,1.0,0.0
6829,57.0,6.0,420.0,5.0,0.0
6830,61.0,136.0,420.0,4.0,0.0
6831,62.0,44.0,900.0,4.0,0.0
6832,57.0,0.0,900.0,4.0,0.0
6833,76.0,38.0,90.0,1.0,0.0
6834,54.0,8.0,900.0,5.0,0.0
6835,74.0,60.0,60.0,1.0,0.0
6836,73.0,60.0,60.0,1.0,0.0
6837,74.0,120.0,60.0,1.0,0.0
6838,76.0,120.0,120.0,1.0,0.0
6839,78.0,120.0,120.0,1.0,0.0
6840,76.0,120.0,120.0,1.0,0.0
6841,74.0,120.0,120.0,1.0,0.0
6842,73.0,52.0,120.0,1.0,0.0
6843,71.0,316.0,90.0,1.0,0.0
6844,61.0,14.0,420.0,4.0,0.0
6845,57.0,286.0,420.0,4.0,0.0
6846,69.0,112.0,300.0,1.0,0.0
6847,52.0,6.0,900.0,5.0,0.0
6848,76.0,8.0,180.0,1.0,0.0
6849,56.0,0.0,420.0,4.0,0.0
6850,71.0,180.0,240.0,1.0,0.0
6851,76.0,534.0,180.0,1.0,0.0
6852,71.0,0.0,960.0,2.0,0.0
6853,68.0,0.0,960.0,2.0,0.0
6854,57.0,480.0,480.0,5.0,0.0
6855,74.0,0.0,960.0,1.0,0.0
6856,52.0,120.0,480.0,5.0,0.0
6857,69.0,0.0,120.0,2.0,0.0
6858,73.0,78.0,120.0,1.0,0.0
6859,45.0,18.0,420.0,5.0,0.0
6860,81.0,120.0,90.0,1.0,0.0
6861,83.0,102.0,90.0,1.0,0.0
6862,85.0,120.0,90.0,1.0,0.0
6863,86.0,120.0,90.0,1.0,0.0
6864,88.0,120.0,90.0,1.0,0.0
6865,90.0,120.0,90.0,1.0,0.0
6866,92.0,162.0,90.0,1.0,0.0
6867,93.0,120.0,120.0,1.0,0.0
6868,92.0,120.0,120.0,1.0,0.0
6869,93.0,96.0,120.0,1.0,0.0
6870,90.0,450.0,90.0,1.0,0.0
6871,71.0,0.0,420.0,5.0,0.0
6872,78.0,534.0,420.0,4.0,0.0
6873,81.0,0.0,420.0,4.0,0.0
6874,87.0,234.0,960.0,1.0,0.0
6875,78.0,6.0,480.0,4.0,0.0
6876,81.0,0.0,480.0,4.0,0.0
6877,71.0,0.0,480.0,5.0,0.0
6878,76.0,8.0,420.0,5.0,0.0
6879,88.0,194.0,240.0,1.0,0.0
6880,80.0,164.0,450.0,4.0,0.0
6881,89.0,0.0,180.0,1.0,0.0
6882,90.0,120.0,120.0,1.0,0.0
6883,89.0,114.0,120.0,1.0,0.0
6884,90.0,96.0,120.0,1.0,0.0
6885,86.0,444.0,90.0,1.0,0.0
6886,68.0,0.0,420.0,4.0,0.0
6887,64.0,300.0,420.0,5.0,0.0
6888,74.0,0.0,420.0,4.0,0.0
6889,83.0,240.0,720.0,1.0,0.0
6890,64.0,0.0,480.0,5.0,0.0
6891,68.0,0.0,480.0,4.0,0.0
6892,74.0,0.0,480.0,4.0,0.0
6893,84.0,120.0,240.0,1.0,0.0
6894,73.0,0.0,420.0,4.0,0.0
6895,69.0,30.0,420.0,5.0,0.0
6896,85.0,120.0,120.0,1.0,0.0
6897,86.0,120.0,120.0,1.0,0.0
6898,87.0,66.0,120.0,1.0,0.0
6899,88.0,264.0,90.0,1.0,0.0
6900,89.0,180.0,240.0,1.0,0.0
6901,90.0,180.0,180.0,1.0,0.0
6902,88.0,120.0,120.0,1.0,0.0
6903,62.0,6.0,420.0,5.0,0.0
6904,71.0,38.0,420.0,4.0,0.0
6905,86.0,120.0,120.0,1.0,0.0
6906,85.0,60.0,120.0,1.0,0.0
6907,83.0,262.0,90.0,1.0,0.0
6908,81.0,54.0,240.0,1.0,0.0
6909,73.0,54.0,420.0,4.0,0.0
6910,64.0,6.0,900.0,5.0,0.0
6911,83.0,60.0,60.0,1.0,0.0
6912,81.0,60.0,60.0,1.0,0.0
6913,80.0,6.0,60.0,1.0,0.0
6914,81.0,240.0,60.0,1.0,0.0
6915,80.0,166.0,420.0,1.0,0.0
6916,85.0,180.0,240.0,1.0,0.0
6917,74.0,0.0,420.0,4.0,0.0
6918,83.0,8.0,180.0,1.0,0.0
6919,69.0,6.0,1860.0,4.0,0.0
6920,75.0,15.0,1860.0,4.0,0.0
6921,71.0,0.0,1860.0,4.0,0.0
6922,81.0,120.0,120.0,1.0,0.0
6923,66.0,30.0,1860.0,5.0,0.0
6924,80.0,120.0,120.0,1.0,0.0
6925,83.0,120.0,120.0,1.0,0.0
6926,81.0,120.0,120.0,1.0,0.0
6927,85.0,120.0,120.0,1.0,0.0
6928,83.0,120.0,120.0,1.0,0.0
6929,81.0,120.0,120.0,1.0,0.0
6930,80.0,180.0,120.0,1.0,0.0
6931,78.0,60.0,180.0,1.0,0.0
6932,76.0,120.0,120.0,1.0,0.0
6933,75.0,120.0,120.0,1.0,0.0
6934,78.0,120.0,120.0,1.0,0.0
6935,83.0,126.0,120.0,1.0,0.0
6936,81.0,114.0,120.0,1.0,0.0
6937,78.0,45.0,120.0,1.0,0.0
6938,75.0,144.0,90.0,1.0,0.0
6939,56.0,15.0,1860.0,5.0,0.0
6940,64.0,0.0,1860.0,4.0,0.0
6941,62.0,7.0,1860.0,4.0,0.0
6942,59.0,29.0,1860.0,4.0,0.0
6943,74.0,120.0,120.0,1.0,0.0
6944,73.0,120.0,120.0,1.0,0.0
6945,76.0,120.0,120.0,1.0,0.0
6946,74.0,120.0,120.0,1.0,0.0
6947,78.0,120.0,120.0,1.0,0.0
6948,76.0,120.0,120.0,1.0,0.0
6949,74.0,120.0,120.0,1.0,0.0
6950,73.0,120.0,120.0,1.0,0.0
6951,71.0,120.0,120.0,1.0,0.0
6952,69.0,120.0,120.0,1.0,0.0
6953,68.0,120.0,120.0,1.0,0.0
6954,71.0,120.0,120.0,1.0,0.0
6955,76.0,120.0,120.0,1.0,0.0
6956,74.0,120.0,120.0,1.0,0.0
6957,71.0,45.0,120.0,1.0,0.0
6958,68.0,324.0,90.0,1.0,0.0
6959,49.0,134.0,480.0,5.0,0.0
6960,71.0,60.0,60.0,1.0,0.0
6961,69.0,60.0,60.0,1.0,0.0
6962,68.0,60.0,60.0,1.0,0.0
6963,69.0,0.0,60.0,1.0,0.0
6964,88.0,226.0,120.0,1.0,0.0
6965,88.0,420.0,120.0,1.0,0.0
6966,50.0,0.0,480.0,5.0,0.0
6967,73.0,60.0,60.0,1.0,0.0
6968,71.0,60.0,60.0,1.0,0.0
6969,70.0,60.0,60.0,1.0,0.0
6970,71.0,126.0,60.0,1.0,0.0
6971,90.0,234.0,120.0,1.0,0.0
6972,90.0,540.0,120.0,1.0,0.0
6973,88.0,540.0,420.0,1.0,0.0
6974,64.0,0.0,1440.0,5.0,0.0
6975,76.0,82.0,720.0,1.0,0.0
6976,73.0,240.0,480.0,4.0,0.0
6977,74.0,0.0,900.0,4.0,0.0
6978,78.0,60.0,90.0,1.0,0.0
6979,76.0,38.0,90.0,1.0,0.0
6980,75.0,60.0,60.0,1.0,0.0
6981,76.0,240.0,60.0,1.0,0.0
6982,65.0,6.0,420.0,5.0,0.0
6983,78.0,180.0,240.0,1.0,0.0
6984,80.0,174.0,180.0,1.0,0.0
6985,71.0,29.0,1860.0,4.0,0.0
6986,69.0,0.0,1860.0,4.0,0.0
6987,66.0,0.0,1860.0,5.0,0.0
6988,75.0,15.0,1860.0,4.0,0.0
6989,81.0,120.0,120.0,1.0,0.0
6990,80.0,120.0,120.0,1.0,0.0
6991,83.0,120.0,120.0,1.0,0.0
6992,81.0,126.0,120.0,1.0,0.0
6993,85.0,120.0,120.0,1.0,0.0
6994,83.0,114.0,120.0,1.0,0.0
6995,81.0,120.0,120.0,1.0,0.0
6996,80.0,120.0,120.0,1.0,0.0
6997,78.0,120.0,120.0,1.0,0.0
6998,76.0,120.0,120.0,1.0,0.0
6999,75.0,120.0,120.0,1.0,0.0
7000,78.0,120.0,120.0,1.0,0.0
7001,83.0,120.0,120.0,1.0,0.0
7002,81.0,120.0,120.0,1.0,0.0
7003,78.0,52.0,120.0,1.0,0.0
7004,75.0,144.0,90.0,1.0,0.0
7005,64.0,0.0,1800.0,4.0,0.0
7006,59.0,0.0,1800.0,4.0,0.0
7007,56.0,96.0,1800.0,5.0,0.0
7008,74.0,120.0,120.0,1.0,0.0
7009,62.0,0.0,1800.0,4.0,0.0
7010,73.0,120.0,120.0,1.0,0.0
7011,76.0,120.0,120.0,1.0,0.0
7012,74.0,134.0,120.0,1.0,0.0
7013,78.0,120.0,120.0,1.0,0.0
7014,76.0,120.0,120.0,1.0,0.0
7015,74.0,120.0,120.0,1.0,0.0
7016,73.0,112.0,120.0,1.0,0.0
7017,71.0,114.0,120.0,1.0,0.0
7018,69.0,120.0,120.0,1.0,0.0
7019,68.0,120.0,120.0,1.0,0.0
7020,71.0,120.0,120.0,1.0,0.0
7021,76.0,120.0,120.0,1.0,0.0
7022,74.0,120.0,120.0,1.0,0.0
7023,71.0,0.0,120.0,1.0,0.0
7024,68.0,144.0,90.0,1.0,0.0
7025,55.0,120.0,120.0,5.0,0.0
7026,69.0,0.0,1860.0,1.0,0.0
7027,61.0,68.0,1860.0,2.0,0.0
7028,54.0,126.0,120.0,5.0,0.0
7029,57.0,114.0,120.0,5.0,0.0
7030,55.0,120.0,120.0,5.0,0.0
7031,59.0,126.0,120.0,5.0,0.0
7032,57.0,114.0,120.0,5.0,0.0
7033,55.0,120.0,120.0,5.0,0.0
7034,54.0,120.0,120.0,5.0,0.0
7035,52.0,120.0,120.0,5.0,0.0
7036,50.0,120.0,120.0,5.0,0.0
7037,49.0,134.0,120.0,5.0,0.0
7038,47.0,106.0,120.0,5.0,0.0
7039,45.0,120.0,120.0,5.0,0.0
7040,44.0,120.0,120.0,5.0,0.0
7041,45.0,66.0,120.0,5.0,0.0
7042,43.0,226.0,120.0,5.0,0.0
7043,42.0,54.0,420.0,5.0,0.0
7044,62.0,120.0,120.0,1.0,0.0
7045,64.0,66.0,120.0,1.0,0.0
7046,66.0,120.0,120.0,1.0,0.0
7047,67.0,120.0,120.0,1.0,0.0
7048,69.0,120.0,120.0,1.0,0.0
7049,71.0,120.0,120.0,1.0,0.0
7050,73.0,120.0,120.0,1.0,0.0
7051,74.0,120.0,120.0,1.0,0.0
7052,76.0,120.0,120.0,1.0,0.0
7053,78.0,120.0,120.0,1.0,0.0
7054,79.0,120.0,120.0,1.0,0.0
7055,81.0,120.0,120.0,1.0,0.0
7056,83.0,134.0,120.0,1.0,0.0
7057,85.0,82.0,120.0,1.0,0.0
7058,86.0,420.0,90.0,1.0,0.0
7059,57.0,0.0,420.0,4.0,0.0
7060,59.0,210.0,420.0,4.0,0.0
7061,63.0,0.0,420.0,4.0,0.0
7062,53.0,0.0,420.0,5.0,0.0
7063,69.0,30.0,150.0,1.0,0.0
7064,72.0,240.0,150.0,1.0,0.0
7065,75.0,240.0,150.0,1.0,0.0
7066,81.0,240.0,150.0,1.0,0.0
7067,84.0,240.0,150.0,1.0,0.0
7068,87.0,240.0,150.0,1.0,0.0
7069,93.0,984.0,150.0,1.0,0.0
7070,40.0,966.0,900.0,5.0,0.0
7071,45.0,180.0,1200.0,5.0,0.0
7072,52.0,294.0,900.0,1.0,0.0
7073,59.0,224.0,1170.0,1.0,0.0
7074,44.0,300.0,180.0,5.0,0.0
7075,44.0,186.0,240.0,5.0,0.0
7076,40.0,250.0,180.0,5.0,0.0
7077,49.0,186.0,1200.0,5.0,0.0
7078,57.0,300.0,180.0,2.0,0.0
7079,57.0,186.0,240.0,2.0,0.0
7080,52.0,294.0,180.0,2.0,0.0
7081,62.0,180.0,1200.0,1.0,0.0
7082,47.0,294.0,180.0,5.0,0.0
7083,47.0,186.0,240.0,5.0,0.0
7084,40.0,294.0,180.0,5.0,0.0
7085,64.0,229.0,900.0,1.0,0.0
7086,45.0,240.0,480.0,5.0,0.0
7087,61.0,60.0,180.0,2.0,0.0
7088,44.0,236.0,660.0,5.0,0.0
7089,61.0,180.0,240.0,2.0,0.0
7090,59.0,15.0,180.0,2.0,0.0
7091,69.0,180.0,1200.0,1.0,0.0
7092,61.0,218.0,510.0,2.0,0.0
7093,42.0,82.0,180.0,5.0,0.0
7094,63.0,16.0,420.0,2.0,0.0
7095,42.0,186.0,240.0,5.0,0.0
7096,47.0,278.0,210.0,5.0,0.0
7097,64.0,8.0,420.0,2.0,0.0
7098,74.0,180.0,1200.0,1.0,0.0
7099,40.0,285.0,420.0,5.0,0.0
7100,68.0,7.0,180.0,2.0,0.0
7101,52.0,14.0,420.0,5.0,0.0
7102,68.0,180.0,240.0,2.0,0.0
7103,64.0,286.0,180.0,2.0,0.0
7104,57.0,294.0,900.0,5.0,0.0
7105,64.0,6.0,900.0,4.0,0.0
7106,79.0,172.0,1200.0,1.0,0.0
7107,73.0,300.0,180.0,2.0,0.0
7108,73.0,180.0,240.0,2.0,0.0
7109,69.0,0.0,180.0,2.0,0.0
7110,50.0,294.0,420.0,5.0,0.0
7111,81.0,165.0,1200.0,1.0,0.0
7112,69.0,0.0,900.0,2.0,0.0
7113,62.0,14.0,420.0,4.0,0.0
7114,78.0,0.0,180.0,2.0,0.0
7115,61.0,293.0,420.0,4.0,0.0
7116,78.0,180.0,240.0,2.0,0.0
7117,57.0,6.0,420.0,5.0,0.0
7118,76.0,8.0,180.0,2.0,0.0
7119,76.0,15.0,720.0,2.0,0.0
7120,59.0,15.0,900.0,5.0,0.0
7121,62.0,0.0,900.0,4.0,0.0
7122,86.0,180.0,1200.0,1.0,0.0
7123,80.0,293.0,180.0,2.0,0.0
7124,80.0,180.0,240.0,2.0,0.0
7125,76.0,285.0,180.0,2.0,0.0
7126,88.0,194.0,1200.0,1.0,0.0
7127,57.0,0.0,420.0,5.0,0.0
7128,64.0,0.0,420.0,4.0,0.0
7129,81.0,14.0,420.0,2.0,0.0
7130,85.0,286.0,180.0,2.0,0.0
7131,80.0,6.0,420.0,2.0,0.0
7132,68.0,0.0,420.0,4.0,0.0
7133,85.0,180.0,240.0,2.0,0.0
7134,64.0,294.0,420.0,5.0,0.0
7135,83.0,0.0,180.0,2.0,0.0
7136,83.0,8.0,720.0,2.0,0.0
7137,59.0,0.0,900.0,5.0,0.0
7138,93.0,186.0,1200.0,1.0,0.0
7139,66.0,22.0,900.0,4.0,0.0
7140,87.0,278.0,180.0,2.0,0.0
7141,87.0,180.0,240.0,2.0,0.0
7142,83.0,278.0,210.0,2.0,0.0
7143,76.0,174.0,1200.0,4.0,0.0
7144,88.0,0.0,420.0,2.0,0.0
7145,64.0,294.0,1860.0,5.0,0.0
7146,83.0,292.0,420.0,2.0,0.0
7147,92.0,2.0,180.0,1.0,0.0
7148,92.0,186.0,240.0,1.0,0.0
7149,88.0,300.0,180.0,1.0,0.0
7150,90.0,195.0,1200.0,1.0,0.0
7151,74.0,300.0,180.0,4.0,0.0
7152,74.0,172.0,240.0,4.0,0.0
7153,72.0,14.0,180.0,4.0,0.0
7154,64.0,300.0,1860.0,5.0,0.0
7155,73.0,240.0,1140.0,4.0,0.0
7156,88.0,291.0,180.0,1.0,0.0
7157,88.0,188.0,240.0,1.0,0.0
7158,85.0,226.0,180.0,1.0,0.0
7159,86.0,180.0,1200.0,1.0,0.0
7160,71.0,300.0,180.0,4.0,0.0
7161,71.0,180.0,240.0,4.0,0.0
7162,68.0,0.0,180.0,4.0,0.0
7163,69.0,180.0,720.0,4.0,0.0
7164,64.0,6.0,900.0,5.0,0.0
7165,85.0,300.0,180.0,1.0,0.0
7166,85.0,0.0,240.0,1.0,0.0
7167,82.0,180.0,180.0,1.0,0.0
7168,73.0,0.0,180.0,4.0,0.0
7169,83.0,114.0,120.0,1.0,0.0
7170,74.0,126.0,240.0,4.0,0.0
7171,64.0,15.0,660.0,5.0,0.0
7172,73.0,134.0,240.0,4.0,0.0
7173,82.0,114.0,120.0,1.0,0.0
7174,74.0,186.0,180.0,4.0,0.0
7175,83.0,31.0,120.0,1.0,0.0
7176,80.0,240.0,120.0,1.0,0.0
7177,64.0,171.0,660.0,5.0,0.0
7178,81.0,114.0,120.0,1.0,0.0
7179,73.0,126.0,240.0,4.0,0.0
7180,72.0,134.0,240.0,4.0,0.0
7181,80.0,114.0,120.0,1.0,0.0
7182,81.0,60.0,120.0,1.0,0.0
7183,73.0,1.0,180.0,4.0,0.0
7184,82.0,234.0,120.0,1.0,0.0
7185,74.0,120.0,240.0,4.0,0.0
7186,64.0,14.0,660.0,5.0,0.0
7187,83.0,120.0,120.0,1.0,0.0
7188,85.0,0.0,120.0,1.0,0.0
7189,82.0,120.0,120.0,1.0,0.0
7190,73.0,0.0,240.0,4.0,0.0
7191,85.0,180.0,120.0,1.0,0.0
7192,83.0,126.0,240.0,1.0,0.0
7193,74.0,46.0,180.0,4.0,0.0
7194,80.0,234.0,120.0,1.0,0.0
7195,81.0,120.0,120.0,1.0,0.0
7196,73.0,0.0,240.0,4.0,0.0
7197,64.0,6.0,660.0,5.0,0.0
7198,83.0,120.0,120.0,1.0,0.0
7199,72.0,180.0,240.0,4.0,0.0
7200,80.0,120.0,120.0,1.0,0.0
7201,83.0,0.0,120.0,1.0,0.0
7202,81.0,134.0,240.0,1.0,0.0
7203,73.0,54.0,180.0,4.0,0.0
7204,82.0,226.0,120.0,1.0,0.0
7205,74.0,6.0,420.0,4.0,0.0
7206,64.0,54.0,420.0,5.0,0.0
7207,83.0,120.0,120.0,1.0,0.0
7208,85.0,120.0,120.0,1.0,0.0
7209,86.0,60.0,120.0,1.0,0.0
7210,88.0,240.0,120.0,1.0,0.0
7211,90.0,126.0,240.0,1.0,0.0
7212,80.0,234.0,120.0,1.0,0.0
7213,64.0,54.0,420.0,5.0,0.0
7214,81.0,120.0,120.0,1.0,0.0
7215,73.0,6.0,420.0,4.0,0.0
7216,83.0,120.0,120.0,1.0,0.0
7217,85.0,60.0,120.0,1.0,0.0
7218,86.0,240.0,120.0,1.0,0.0
7219,88.0,126.0,240.0,1.0,0.0
7220,76.0,234.0,120.0,1.0,0.0
7221,72.0,0.0,3720.0,4.0,0.0
7222,66.0,0.0,3720.0,4.0,0.0
7223,69.0,0.0,3720.0,4.0,0.0
7224,75.0,120.0,120.0,1.0,0.0
7225,64.0,120.0,3720.0,5.0,0.0
7226,76.0,120.0,120.0,1.0,0.0
7227,78.0,120.0,120.0,1.0,0.0
7228,80.0,120.0,120.0,1.0,0.0
7229,81.0,120.0,120.0,1.0,0.0
7230,83.0,120.0,120.0,1.0,0.0
7231,84.0,120.0,120.0,1.0,0.0
7232,83.0,120.0,120.0,1.0,0.0
7233,81.0,126.0,120.0,1.0,0.0
7234,80.0,114.0,120.0,1.0,0.0
7235,78.0,120.0,120.0,1.0,0.0
7236,76.0,126.0,120.0,1.0,0.0
7237,75.0,120.0,120.0,1.0,0.0
7238,76.0,136.0,120.0,1.0,0.0
7239,78.0,104.0,150.0,1.0,0.0
7240,80.0,114.0,120.0,1.0,0.0
7241,81.0,120.0,120.0,1.0,0.0
7242,83.0,120.0,120.0,1.0,0.0
7243,84.0,120.0,120.0,1.0,0.0
7244,83.0,120.0,120.0,1.0,0.0
7245,81.0,120.0,120.0,1.0,0.0
7246,80.0,120.0,120.0,1.0,0.0
7247,78.0,120.0,120.0,1.0,0.0
7248,76.0,120.0,120.0,1.0,0.0
7249,75.0,120.0,120.0,1.0,0.0
7250,76.0,120.0,120.0,1.0,0.0
7251,78.0,120.0,120.0,1.0,0.0
7252,80.0,120.0,120.0,1.0,0.0
7253,81.0,120.0,120.0,1.0,0.0
7254,83.0,120.0,120.0,1.0,0.0
7255,85.0,0.0,120.0,1.0,0.0
7256,75.0,120.0,120.0,1.0,0.0
7257,76.0,120.0,120.0,1.0,0.0
7258,69.0,7.0,3780.0,4.0,0.0
7259,64.0,38.0,3810.0,5.0,0.0
7260,73.0,0.0,3780.0,4.0,0.0
7261,78.0,120.0,120.0,1.0,0.0
7262,76.0,120.0,120.0,1.0,0.0
7263,75.0,120.0,120.0,1.0,0.0
7264,76.0,120.0,120.0,1.0,0.0
7265,77.0,120.0,120.0,1.0,0.0
7266,78.0,120.0,120.0,1.0,0.0
7267,79.0,120.0,120.0,1.0,0.0
7268,80.0,120.0,120.0,1.0,0.0
7269,81.0,120.0,120.0,1.0,0.0
7270,82.0,120.0,120.0,1.0,0.0
7271,83.0,120.0,120.0,1.0,0.0
7272,84.0,120.0,120.0,1.0,0.0
7273,85.0,120.0,120.0,1.0,0.0
7274,86.0,120.0,120.0,1.0,0.0
7275,87.0,120.0,120.0,1.0,0.0
7276,88.0,120.0,120.0,1.0,0.0
7277,89.0,120.0,120.0,1.0,0.0
7278,90.0,120.0,120.0,1.0,0.0
7279,91.0,120.0,120.0,1.0,0.0
7280,92.0,120.0,120.0,1.0,0.0
7281,93.0,120.0,120.0,1.0,0.0
7282,92.0,120.0,120.0,1.0,0.0
7283,90.0,120.0,120.0,1.0,0.0
7284,88.0,120.0,120.0,1.0,0.0
7285,86.0,120.0,120.0,1.0,0.0
7286,85.0,120.0,120.0,1.0,0.0
7287,83.0,120.0,120.0,1.0,0.0
7288,81.0,120.0,120.0,1.0,0.0
7289,80.0,120.0,120.0,1.0,0.0
7290,78.0,60.0,120.0,1.0,0.0
7291,76.0,15.0,60.0,1.0,0.0
7292,74.0,120.0,60.0,1.0,0.0
7293,73.0,120.0,120.0,1.0,0.0
7294,74.0,120.0,120.0,1.0,0.0
7295,76.0,120.0,120.0,1.0,0.0
7296,78.0,120.0,120.0,1.0,0.0
7297,80.0,120.0,120.0,1.0,0.0
7298,81.0,120.0,120.0,1.0,0.0
7299,83.0,120.0,120.0,1.0,0.0
7300,85.0,120.0,120.0,1.0,0.0
7301,86.0,120.0,120.0,1.0,0.0
7302,88.0,120.0,120.0,1.0,0.0
7303,90.0,120.0,120.0,1.0,0.0
7304,92.0,120.0,120.0,1.0,0.0
7305,93.0,328.0,120.0,1.0,0.0
7306,81.0,120.0,90.0,1.0,0.0
7307,83.0,80.0,90.0,1.0,0.0
7308,85.0,80.0,90.0,1.0,0.0
7309,83.0,80.0,90.0,1.0,0.0
7310,85.0,80.0,90.0,1.0,0.0
7311,83.0,80.0,90.0,1.0,0.0
7312,85.0,80.0,90.0,1.0,0.0
7313,83.0,80.0,90.0,1.0,0.0
7314,85.0,80.0,90.0,1.0,0.0
7315,83.0,80.0,90.0,1.0,0.0
7316,85.0,80.0,90.0,1.0,0.0
7317,83.0,80.0,90.0,1.0,0.0
7318,85.0,80.0,90.0,1.0,0.0
7319,64.0,0.0,900.0,5.0,0.0
7320,83.0,80.0,90.0,1.0,0.0
7321,68.0,0.0,900.0,4.0,0.0
7322,74.0,28.0,900.0,4.0,0.0
7323,85.0,80.0,90.0,1.0,0.0
7324,83.0,80.0,90.0,1.0,0.0
7325,85.0,80.0,90.0,1.0,0.0
7326,83.0,80.0,90.0,1.0,0.0
7327,85.0,80.0,90.0,1.0,0.0
7328,83.0,80.0,90.0,1.0,0.0
7329,85.0,80.0,90.0,1.0,0.0
7330,83.0,126.0,90.0,1.0,0.0
7331,81.0,46.0,120.0,1.0,0.0
7332,83.0,452.0,90.0,1.0,0.0
7333,69.0,120.0,720.0,4.0,0.0
7334,81.0,300.0,420.0,1.0,0.0
7335,73.0,46.0,1860.0,3.0,0.0
7336,64.0,105.0,480.0,3.0,0.0
7337,81.0,120.0,120.0,1.0,0.0
7338,80.0,15.0,120.0,1.0,0.0
7339,83.0,120.0,120.0,1.0,0.0
7340,69.0,0.0,720.0,4.0,0.0
7341,81.0,120.0,120.0,1.0,0.0
7342,85.0,120.0,120.0,1.0,0.0
7343,83.0,120.0,120.0,1.0,0.0
7344,64.0,14.0,420.0,3.0,0.0
7345,86.0,120.0,120.0,1.0,0.0
7346,85.0,120.0,120.0,1.0,0.0
7347,88.0,60.0,120.0,1.0,0.0
7348,86.0,240.0,120.0,1.0,0.0
7349,74.0,0.0,1860.0,3.0,0.0
7350,90.0,180.0,240.0,1.0,0.0
7351,68.0,247.0,720.0,4.0,0.0
7352,88.0,300.0,180.0,1.0,0.0
7353,88.0,240.0,720.0,1.0,0.0
7354,64.0,233.0,480.0,3.0,0.0
7355,68.0,0.0,720.0,4.0,0.0
7356,87.0,240.0,240.0,1.0,0.0
7357,64.0,6.0,420.0,3.0,0.0
7358,86.0,180.0,240.0,1.0,0.0
7359,83.0,294.0,180.0,1.0,0.0
7360,69.0,120.0,720.0,4.0,0.0
7361,73.0,30.0,1860.0,3.0,0.0
7362,80.0,180.0,240.0,1.0,0.0
7363,81.0,300.0,180.0,1.0,0.0
7364,64.0,0.0,480.0,3.0,0.0
7365,81.0,120.0,120.0,1.0,0.0
7366,80.0,120.0,120.0,1.0,0.0
7367,69.0,0.0,720.0,4.0,0.0
7368,83.0,120.0,120.0,1.0,0.0
7369,81.0,120.0,120.0,1.0,0.0
7370,85.0,120.0,120.0,1.0,0.0
7371,83.0,120.0,120.0,1.0,0.0
7372,64.0,0.0,420.0,3.0,0.0
7373,86.0,120.0,120.0,1.0,0.0
7374,85.0,120.0,120.0,1.0,0.0
7375,88.0,66.0,120.0,1.0,0.0
7376,86.0,264.0,90.0,1.0,0.0
7377,74.0,16.0,1860.0,3.0,0.0
7378,90.0,180.0,240.0,1.0,0.0
7379,68.0,240.0,720.0,4.0,0.0
7380,88.0,300.0,180.0,1.0,0.0
7381,64.0,120.0,480.0,3.0,0.0
7382,88.0,120.0,600.0,1.0,0.0
7383,68.0,0.0,720.0,4.0,0.0
7384,87.0,120.0,120.0,1.0,0.0
7385,86.0,120.0,120.0,1.0,0.0
7386,85.0,126.0,120.0,1.0,0.0
7387,64.0,14.0,450.0,3.0,0.0
7388,88.0,114.0,120.0,1.0,0.0
7389,86.0,120.0,120.0,1.0,0.0
7390,85.0,66.0,120.0,1.0,0.0
7391,83.0,264.0,90.0,1.0,0.0
7392,81.0,60.0,240.0,1.0,0.0
7393,73.0,14.0,420.0,4.0,0.0
7394,69.0,46.0,420.0,5.0,0.0
7395,83.0,60.0,60.0,1.0,0.0
7396,81.0,60.0,60.0,1.0,0.0
7397,80.0,0.0,60.0,1.0,0.0
7398,81.0,606.0,60.0,1.0,0.0
7399,85.0,174.0,600.0,1.0,0.0
7400,61.0,0.0,420.0,4.0,0.0
7401,57.0,54.0,420.0,5.0,0.0
7402,78.0,60.0,60.0,1.0,0.0
7403,76.0,60.0,60.0,1.0,0.0
7404,75.0,6.0,60.0,1.0,0.0
7405,76.0,600.0,60.0,1.0,0.0
7406,81.0,216.0,600.0,1.0,0.0
7407,45.0,30.0,420.0,5.0,0.0
7408,49.0,14.0,420.0,4.0,0.0
7409,73.0,76.0,150.0,1.0,0.0
7410,76.0,180.0,150.0,1.0,0.0
7411,69.0,180.0,150.0,1.0,0.0
7412,73.0,120.0,150.0,1.0,0.0
7413,64.0,180.0,150.0,1.0,0.0
7414,69.0,180.0,150.0,1.0,0.0
7415,61.0,180.0,150.0,1.0,0.0
7416,64.0,120.0,150.0,1.0,0.0
7417,57.0,180.0,150.0,1.0,0.0
7418,61.0,120.0,150.0,1.0,0.0
7419,52.0,264.0,150.0,1.0,0.0
7420,45.0,240.0,240.0,4.0,0.0
7421,57.0,8.0,960.0,1.0,0.0
7422,47.0,240.0,240.0,4.0,0.0
7423,49.0,232.0,240.0,4.0,0.0
7424,47.0,246.0,240.0,4.0,0.0
7425,45.0,240.0,240.0,4.0,0.0
7426,61.0,60.0,900.0,1.0,0.0
7427,44.0,234.0,240.0,4.0,0.0
7428,42.0,186.0,240.0,4.0,0.0
7429,40.0,234.0,240.0,4.0,0.0
7430,38.0,178.0,240.0,4.0,0.0
7431,61.0,14.0,240.0,1.0,0.0
7432,35.0,240.0,240.0,4.0,0.0
7433,59.0,48.0,180.0,1.0,0.0
7434,40.0,186.0,240.0,4.0,0.0
7435,59.0,6.0,240.0,1.0,0.0
7436,56.0,54.0,180.0,1.0,0.0
7437,38.0,234.0,240.0,4.0,0.0
7438,57.0,6.0,720.0,1.0,0.0
7439,37.0,240.0,240.0,4.0,0.0
7440,33.0,240.0,240.0,4.0,0.0
7441,42.0,174.0,240.0,4.0,0.0
7442,61.0,60.0,180.0,1.0,0.0
7443,40.0,240.0,240.0,4.0,0.0
7444,61.0,0.0,240.0,1.0,0.0
7445,38.0,180.0,240.0,4.0,0.0
7446,35.0,240.0,240.0,4.0,0.0
7447,59.0,60.0,180.0,1.0,0.0
7448,40.0,0.0,240.0,4.0,0.0
7449,59.0,202.0,240.0,1.0,0.0
7450,56.0,38.0,210.0,1.0,0.0
7451,38.0,240.0,240.0,4.0,0.0
7452,37.0,240.0,240.0,4.0,0.0
7453,64.0,240.0,1200.0,1.0,0.0
7454,40.0,240.0,240.0,4.0,0.0
7455,45.0,240.0,240.0,4.0,0.0
7456,44.0,240.0,240.0,4.0,0.0
7457,42.0,0.0,240.0,4.0,0.0
7458,66.0,0.0,240.0,1.0,0.0
7459,35.0,120.0,240.0,4.0,0.0
7460,64.0,120.0,120.0,1.0,0.0
7461,37.0,120.0,240.0,4.0,0.0
7462,62.0,0.0,120.0,1.0,0.0
7463,38.0,0.0,240.0,4.0,0.0
7464,61.0,120.0,120.0,1.0,0.0
7465,59.0,240.0,120.0,1.0,0.0
7466,40.0,240.0,240.0,4.0,0.0
7467,57.0,240.0,480.0,1.0,0.0
7468,39.0,0.0,240.0,4.0,0.0
7469,40.0,186.0,240.0,4.0,0.0
7470,56.0,0.0,420.0,1.0,0.0
7471,38.0,294.0,180.0,4.0,0.0
7472,57.0,54.0,720.0,1.0,0.0
7473,37.0,180.0,240.0,4.0,0.0
7474,45.0,240.0,180.0,4.0,0.0
7475,49.0,66.0,180.0,4.0,0.0
7476,59.0,60.0,60.0,1.0,0.0
7477,47.0,0.0,240.0,4.0,0.0
7478,57.0,60.0,60.0,1.0,0.0
7479,56.0,60.0,60.0,1.0,0.0
7480,57.0,240.0,60.0,1.0,0.0
7481,45.0,240.0,240.0,4.0,0.0
7482,61.0,46.0,900.0,1.0,0.0
7483,44.0,240.0,240.0,4.0,0.0
7484,42.0,194.0,240.0,4.0,0.0
7485,40.0,240.0,240.0,4.0,0.0
7486,38.0,180.0,240.0,4.0,0.0
7487,61.0,0.0,240.0,1.0,0.0
7488,35.0,240.0,240.0,4.0,0.0
7489,59.0,60.0,180.0,1.0,0.0
7490,59.0,194.0,240.0,1.0,0.0
7491,40.0,0.0,240.0,4.0,0.0
7492,56.0,46.0,180.0,1.0,0.0
7493,38.0,240.0,240.0,4.0,0.0
7494,57.0,0.0,240.0,1.0,0.0
7495,37.0,90.0,240.0,4.0,0.0
7496,59.0,82.0,90.0,1.0,0.0
7497,33.0,126.0,240.0,4.0,0.0
7498,57.0,68.0,90.0,1.0,0.0
7499,56.0,0.0,90.0,1.0,0.0
7500,57.0,114.0,120.0,1.0,0.0
7501,42.0,134.0,240.0,4.0,0.0
7502,40.0,240.0,240.0,4.0,0.0
7503,61.0,106.0,120.0,1.0,0.0
7504,38.0,0.0,240.0,4.0,0.0
7505,61.0,180.0,240.0,1.0,0.0
7506,35.0,240.0,240.0,4.0,0.0
7507,59.0,60.0,180.0,1.0,0.0
7508,40.0,186.0,240.0,4.0,0.0
7509,59.0,0.0,240.0,1.0,0.0
7510,56.0,54.0,180.0,1.0,0.0
7511,38.0,240.0,240.0,4.0,0.0
7512,64.0,0.0,1200.0,1.0,0.0
7513,37.0,240.0,240.0,4.0,0.0
7514,40.0,240.0,240.0,4.0,0.0
7515,45.0,240.0,240.0,4.0,0.0
7516,44.0,240.0,240.0,4.0,0.0
7517,42.0,240.0,240.0,4.0,0.0
7518,35.0,120.0,240.0,4.0,0.0
7519,66.0,0.0,240.0,1.0,0.0
7520,64.0,120.0,120.0,1.0,0.0
7521,37.0,0.0,240.0,4.0,0.0
7522,62.0,120.0,120.0,1.0,0.0
7523,38.0,240.0,240.0,4.0,0.0
7524,61.0,112.0,120.0,1.0,0.0
7525,59.0,8.0,120.0,1.0,0.0
7526,40.0,300.0,420.0,4.0,0.0
7527,59.0,180.0,240.0,1.0,0.0
7528,57.0,0.0,180.0,1.0,0.0
7529,40.0,472.0,420.0,4.0,0.0
7530,57.0,172.0,240.0,1.0,0.0
7531,56.0,8.0,180.0,1.0,0.0
7532,33.0,8.0,420.0,5.0,0.0
7533,57.0,0.0,420.0,1.0,0.0
7534,45.0,360.0,420.0,4.0,0.0
7535,54.0,60.0,60.0,1.0,0.0
7536,52.0,60.0,60.0,1.0,0.0
7537,51.0,60.0,60.0,1.0,0.0
7538,52.0,240.0,60.0,1.0,0.0
7539,62.0,126.0,240.0,1.0,0.0
7540,56.0,240.0,120.0,1.0,0.0
7541,56.0,234.0,120.0,1.0,0.0
7542,50.0,0.0,480.0,4.0,0.0
7543,40.0,420.0,480.0,5.0,0.0
7544,56.0,120.0,120.0,1.0,0.0
7545,57.0,0.0,420.0,1.0,0.0
7546,49.0,0.0,420.0,4.0,0.0
7547,45.0,336.0,420.0,5.0,0.0
7548,54.0,64.0,60.0,1.0,0.0
7549,52.0,72.0,60.0,1.0,0.0
7550,51.0,56.0,60.0,1.0,0.0
7551,52.0,252.0,60.0,1.0,0.0
7552,62.0,126.0,240.0,1.0,0.0
7553,56.0,248.0,120.0,1.0,0.0
7554,56.0,232.0,120.0,1.0,0.0
7555,50.0,8.0,420.0,4.0,0.0
7556,40.0,286.0,420.0,5.0,0.0
7557,56.0,60.0,120.0,1.0,0.0
7558,64.0,126.0,240.0,1.0,0.0
7559,57.0,234.0,120.0,1.0,0.0
7560,45.0,300.0,420.0,5.0,0.0
7561,57.0,246.0,120.0,1.0,0.0
7562,49.0,0.0,420.0,4.0,0.0
7563,57.0,54.0,120.0,1.0,0.0
7564,66.0,120.0,240.0,1.0,0.0
7565,56.0,254.0,120.0,1.0,0.0
7566,50.0,0.0,420.0,4.0,0.0
7567,40.0,1014.0,420.0,5.0,0.0
7568,56.0,232.0,120.0,1.0,0.0
7569,56.0,60.0,120.0,1.0,0.0
7570,50.0,0.0,960.0,4.0,0.0
7571,33.0,0.0,1410.0,5.0,0.0
7572,45.0,0.0,1380.0,4.0,0.0
7573,56.0,426.0,960.0,1.0,0.0
7574,49.0,8.0,420.0,4.0,0.0
7575,57.0,8.0,420.0,1.0,0.0
