,note,step,duration,channel,velocity
0,43.0,0.0,300.0,0.0,0.0
1,47.0,0.0,270.0,0.0,0.0
2,50.0,0.0,270.0,0.0,0.0
3,59.0,0.0,240.0,0.0,0.0
4,62.0,0.0,240.0,0.0,0.0
5,67.0,108.0,210.0,0.0,0.0
6,71.0,0.0,210.0,0.0,0.0
7,74.0,0.0,180.0,0.0,0.0
8,71.0,0.0,60.0,0.0,0.0
9,67.0,120.0,60.0,1.0,0.0
10,71.0,0.0,60.0,0.0,0.0
11,67.0,300.0,60.0,1.0,0.0
12,71.0,0.0,300.0,0.0,0.0
13,67.0,72.0,300.0,1.0,0.0
14,55.0,48.0,120.0,3.0,0.0
15,43.0,120.0,120.0,3.0,0.0
16,62.0,0.0,120.0,1.0,0.0
17,47.0,0.0,120.0,3.0,0.0
18,67.0,24.0,120.0,0.0,0.0
19,69.0,120.0,20.0,0.0,0.0
20,50.0,0.0,360.0,3.0,0.0
21,66.0,0.0,20.0,1.0,0.0
22,66.0,0.0,20.0,1.0,0.0
23,69.0,216.0,20.0,0.0,0.0
24,66.0,0.0,120.0,1.0,0.0
25,69.0,96.0,120.0,0.0,0.0
26,55.0,24.0,90.0,3.0,0.0
27,71.0,0.0,120.0,0.0,0.0
28,67.0,96.0,120.0,1.0,0.0
29,69.0,96.0,240.0,1.0,0.0
30,54.0,24.0,90.0,3.0,0.0
31,74.0,30.0,15.0,0.0,0.0
32,50.0,24.0,90.0,3.0,0.0
33,72.0,30.0,30.0,0.0,0.0
34,71.0,6.0,30.0,0.0,0.0
35,72.0,0.0,30.0,0.0,0.0
36,55.0,24.0,90.0,3.0,0.0
37,67.0,96.0,120.0,1.0,0.0
38,71.0,0.0,120.0,0.0,0.0
39,43.0,6.0,90.0,3.0,0.0
40,71.0,15.0,15.0,0.0,0.0
41,74.0,123.0,15.0,0.0,0.0
42,79.0,48.0,180.0,0.0,0.0
43,55.0,36.0,390.0,3.0,0.0
44,62.0,0.0,120.0,1.0,0.0
45,59.0,72.0,15.0,2.0,0.0
46,62.0,0.0,120.0,1.0,0.0
47,60.0,120.0,20.0,2.0,0.0
48,78.0,0.0,20.0,0.0,0.0
49,62.0,0.0,20.0,1.0,0.0
50,60.0,0.0,120.0,2.0,0.0
51,78.0,60.0,60.0,0.0,0.0
52,62.0,0.0,120.0,1.0,0.0
53,81.0,120.0,60.0,0.0,0.0
54,62.0,0.0,120.0,1.0,0.0
55,55.0,36.0,390.0,3.0,0.0
56,79.0,0.0,240.0,0.0,0.0
57,59.0,120.0,15.0,2.0,0.0
58,62.0,0.0,120.0,1.0,0.0
59,62.0,0.0,20.0,1.0,0.0
60,78.0,120.0,20.0,0.0,0.0
61,60.0,0.0,20.0,2.0,0.0
62,78.0,60.0,60.0,0.0,0.0
63,60.0,0.0,120.0,2.0,0.0
64,62.0,0.0,120.0,1.0,0.0
65,81.0,96.0,60.0,0.0,0.0
66,62.0,0.0,90.0,1.0,0.0
67,79.0,0.0,90.0,0.0,0.0
68,55.0,0.0,90.0,3.0,0.0
69,59.0,144.0,90.0,2.0,0.0
70,71.0,0.0,120.0,1.0,0.0
71,74.0,0.0,120.0,0.0,0.0
72,47.0,120.0,120.0,3.0,0.0
73,69.0,120.0,120.0,1.0,0.0
74,48.0,0.0,120.0,3.0,0.0
75,72.0,0.0,120.0,0.0,0.0
76,49.0,96.0,120.0,3.0,0.0
77,67.0,0.0,120.0,1.0,0.0
78,71.0,0.0,15.0,0.0,0.0
79,50.0,84.0,90.0,3.0,0.0
80,67.0,60.0,240.0,1.0,0.0
81,62.0,60.0,60.0,3.0,0.0
82,61.0,0.0,60.0,3.0,0.0
83,62.0,36.0,60.0,3.0,0.0
84,69.0,120.0,90.0,0.0,0.0
85,66.0,0.0,90.0,1.0,0.0
86,50.0,216.0,90.0,3.0,0.0
87,43.0,0.0,300.0,0.0,0.0
88,47.0,0.0,270.0,0.0,0.0
89,50.0,96.0,270.0,0.0,0.0
90,59.0,0.0,240.0,0.0,0.0
91,62.0,0.0,240.0,0.0,0.0
92,67.0,0.0,210.0,0.0,0.0
93,71.0,0.0,210.0,0.0,0.0
94,74.0,0.0,180.0,0.0,0.0
95,67.0,0.0,40.0,1.0,0.0
96,71.0,120.0,40.0,0.0,0.0
97,71.0,312.0,40.0,0.0,0.0
98,67.0,0.0,40.0,1.0,0.0
99,67.0,72.0,300.0,1.0,0.0
100,71.0,0.0,300.0,0.0,0.0
101,55.0,48.0,120.0,3.0,0.0
102,43.0,96.0,120.0,3.0,0.0
103,62.0,0.0,90.0,1.0,0.0
104,67.0,24.0,90.0,0.0,0.0
105,47.0,24.0,120.0,3.0,0.0
106,66.0,0.0,20.0,1.0,0.0
107,50.0,0.0,360.0,3.0,0.0
108,69.0,120.0,20.0,0.0,0.0
109,66.0,216.0,20.0,1.0,0.0
110,69.0,0.0,20.0,0.0,0.0
111,69.0,0.0,120.0,0.0,0.0
112,66.0,96.0,120.0,1.0,0.0
113,71.0,96.0,120.0,0.0,0.0
114,67.0,0.0,120.0,1.0,0.0
115,55.0,24.0,90.0,3.0,0.0
116,54.0,24.0,90.0,3.0,0.0
117,69.0,96.0,240.0,1.0,0.0
118,74.0,30.0,120.0,0.0,0.0
119,50.0,24.0,90.0,3.0,0.0
120,74.0,30.0,30.0,0.0,0.0
121,72.0,30.0,30.0,0.0,0.0
122,71.0,6.0,30.0,0.0,0.0
123,72.0,0.0,30.0,0.0,0.0
124,55.0,24.0,90.0,3.0,0.0
125,67.0,0.0,120.0,1.0,0.0
126,71.0,96.0,120.0,0.0,0.0
127,43.0,6.0,90.0,3.0,0.0
128,71.0,15.0,15.0,0.0,0.0
129,74.0,123.0,15.0,0.0,0.0
130,79.0,48.0,180.0,0.0,0.0
131,55.0,36.0,390.0,3.0,0.0
132,62.0,72.0,120.0,1.0,0.0
133,59.0,0.0,15.0,2.0,0.0
134,62.0,24.0,15.0,1.0,0.0
135,60.0,0.0,20.0,2.0,0.0
136,78.0,120.0,20.0,0.0,0.0
137,60.0,0.0,120.0,2.0,0.0
138,78.0,60.0,60.0,0.0,0.0
139,81.0,120.0,60.0,0.0,0.0
140,55.0,36.0,390.0,3.0,0.0
141,79.0,0.0,240.0,0.0,0.0
142,62.0,0.0,15.0,1.0,0.0
143,59.0,120.0,120.0,2.0,0.0
144,62.0,0.0,15.0,1.0,0.0
145,59.0,24.0,120.0,2.0,0.0
146,78.0,0.0,20.0,0.0,0.0
147,62.0,0.0,15.0,1.0,0.0
148,60.0,0.0,20.0,2.0,0.0
149,60.0,0.0,120.0,2.0,0.0
150,78.0,60.0,60.0,0.0,0.0
151,62.0,0.0,120.0,1.0,0.0
152,81.0,96.0,60.0,0.0,0.0
153,59.0,144.0,90.0,2.0,0.0
154,79.0,0.0,90.0,0.0,0.0
155,55.0,0.0,90.0,3.0,0.0
156,62.0,0.0,90.0,1.0,0.0
157,47.0,0.0,120.0,3.0,0.0
158,71.0,0.0,120.0,1.0,0.0
159,74.0,120.0,120.0,0.0,0.0
160,48.0,0.0,120.0,3.0,0.0
161,69.0,120.0,120.0,1.0,0.0
162,72.0,0.0,120.0,0.0,0.0
163,67.0,0.0,120.0,1.0,0.0
164,49.0,96.0,120.0,3.0,0.0
165,71.0,0.0,120.0,0.0,0.0
166,71.0,60.0,240.0,0.0,0.0
167,67.0,0.0,240.0,1.0,0.0
168,50.0,84.0,90.0,3.0,0.0
169,62.0,60.0,60.0,3.0,0.0
170,61.0,0.0,60.0,3.0,0.0
171,66.0,120.0,90.0,1.0,0.0
172,62.0,36.0,60.0,3.0,0.0
173,69.0,0.0,90.0,0.0,0.0
174,50.0,216.0,90.0,3.0,0.0
175,66.0,0.0,180.0,1.0,0.0
176,62.0,24.0,180.0,2.0,0.0
177,69.0,0.0,180.0,0.0,0.0
178,50.0,144.0,90.0,3.0,0.0
179,62.0,0.0,120.0,2.0,0.0
180,54.0,120.0,120.0,3.0,0.0
181,69.0,0.0,120.0,0.0,0.0
182,50.0,192.0,120.0,3.0,0.0
183,72.0,0.0,120.0,0.0,0.0
184,62.0,0.0,15.0,2.0,0.0
185,69.0,120.0,240.0,1.0,0.0
186,72.0,0.0,180.0,0.0,0.0
187,55.0,0.0,120.0,3.0,0.0
188,59.0,48.0,120.0,3.0,0.0
189,67.0,0.0,120.0,1.0,0.0
190,71.0,0.0,120.0,0.0,0.0
191,74.0,0.0,40.0,0.0,0.0
192,55.0,192.0,40.0,3.0,0.0
193,74.0,48.0,120.0,0.0,0.0
194,50.0,120.0,40.0,2.0,0.0
195,62.0,0.0,40.0,1.0,0.0
196,69.0,0.0,40.0,0.0,0.0
197,38.0,0.0,40.0,3.0,0.0
198,54.0,0.0,40.0,2.0,0.0
199,42.0,0.0,40.0,3.0,0.0
200,69.0,0.0,40.0,0.0,0.0
201,62.0,120.0,40.0,1.0,0.0
202,72.0,0.0,40.0,0.0,0.0
203,69.0,0.0,40.0,1.0,0.0
204,62.0,0.0,40.0,1.0,0.0
205,50.0,0.0,40.0,2.0,0.0
206,38.0,264.0,40.0,3.0,0.0
207,69.0,24.0,180.0,1.0,0.0
208,72.0,0.0,180.0,0.0,0.0
209,55.0,120.0,90.0,2.0,0.0
210,43.0,0.0,90.0,3.0,0.0
211,71.0,0.0,90.0,0.0,0.0
212,47.0,0.0,90.0,3.0,0.0
213,67.0,0.0,90.0,1.0,0.0
214,59.0,120.0,90.0,2.0,0.0
215,74.0,0.0,90.0,0.0,0.0
216,43.0,0.0,90.0,3.0,0.0
217,55.0,120.0,90.0,2.0,0.0
218,69.0,0.0,390.0,1.0,0.0
219,79.0,120.0,90.0,0.0,0.0
220,72.0,0.0,390.0,1.0,0.0
221,57.0,0.0,390.0,3.0,0.0
222,62.0,0.0,90.0,2.0,0.0
223,50.0,24.0,390.0,3.0,0.0
224,78.0,24.0,180.0,0.0,0.0
225,62.0,96.0,90.0,2.0,0.0
226,62.0,48.0,90.0,2.0,0.0
227,62.0,12.0,90.0,2.0,0.0
228,76.0,48.0,40.0,0.0,0.0
229,74.0,108.0,40.0,0.0,0.0
230,57.0,24.0,390.0,3.0,0.0
231,50.0,0.0,390.0,3.0,0.0
232,69.0,0.0,390.0,1.0,0.0
233,72.0,0.0,390.0,1.0,0.0
234,62.0,0.0,90.0,2.0,0.0
235,79.0,120.0,90.0,0.0,0.0
236,78.0,24.0,180.0,0.0,0.0
237,62.0,96.0,90.0,2.0,0.0
238,62.0,48.0,90.0,2.0,0.0
239,62.0,12.0,90.0,2.0,0.0
240,76.0,48.0,40.0,0.0,0.0
241,74.0,108.0,40.0,0.0,0.0
242,71.0,24.0,180.0,1.0,0.0
243,62.0,0.0,180.0,2.0,0.0
244,55.0,0.0,180.0,3.0,0.0
245,79.0,96.0,90.0,0.0,0.0
246,74.0,72.0,90.0,0.0,0.0
247,72.0,48.0,90.0,1.0,0.0
248,48.0,12.0,180.0,3.0,0.0
249,60.0,0.0,180.0,2.0,0.0
250,78.0,36.0,40.0,0.0,0.0
251,76.0,12.0,20.0,0.0,0.0
252,74.0,48.0,20.0,0.0,0.0
253,71.0,0.0,20.0,1.0,0.0
254,69.0,0.0,20.0,1.0,0.0
255,72.0,228.0,20.0,0.0,0.0
256,71.0,0.0,180.0,0.0,0.0
257,50.0,0.0,180.0,3.0,0.0
258,62.0,240.0,180.0,2.0,0.0
259,67.0,0.0,180.0,1.0,0.0
260,50.0,0.0,180.0,3.0,0.0
261,62.0,0.0,180.0,2.0,0.0
262,60.0,0.0,180.0,2.0,0.0
263,66.0,0.0,180.0,1.0,0.0
264,69.0,144.0,180.0,0.0,0.0
265,55.0,120.0,330.0,3.0,0.0
266,60.0,24.0,180.0,2.0,0.0
267,62.0,0.0,330.0,2.0,0.0
268,66.0,0.0,180.0,1.0,0.0
269,69.0,96.0,90.0,0.0,0.0
270,70.0,120.0,90.0,0.0,0.0
271,67.0,0.0,90.0,1.0,0.0
272,71.0,0.0,90.0,0.0,0.0
273,59.0,0.0,90.0,2.0,0.0
274,74.0,84.0,90.0,0.0,0.0
275,57.0,60.0,60.0,2.0,0.0
276,79.0,0.0,120.0,0.0,0.0
277,62.0,60.0,60.0,2.0,0.0
278,69.0,24.0,90.0,1.0,0.0
279,78.0,0.0,240.0,0.0,0.0
280,60.0,36.0,60.0,2.0,0.0
281,62.0,60.0,60.0,2.0,0.0
282,72.0,48.0,180.0,1.0,0.0
283,57.0,60.0,60.0,2.0,0.0
284,62.0,60.0,60.0,2.0,0.0
285,76.0,12.0,60.0,0.0,0.0
286,60.0,0.0,60.0,2.0,0.0
287,62.0,0.0,60.0,2.0,0.0
288,74.0,60.0,60.0,0.0,0.0
289,57.0,60.0,60.0,2.0,0.0
290,79.0,0.0,120.0,0.0,0.0
291,62.0,60.0,60.0,2.0,0.0
292,78.0,60.0,240.0,0.0,0.0
293,60.0,36.0,60.0,2.0,0.0
294,69.0,24.0,90.0,1.0,0.0
295,62.0,60.0,60.0,2.0,0.0
296,57.0,60.0,60.0,2.0,0.0
297,72.0,48.0,180.0,1.0,0.0
298,62.0,0.0,60.0,2.0,0.0
299,76.0,12.0,60.0,0.0,0.0
300,60.0,0.0,60.0,2.0,0.0
301,62.0,60.0,60.0,2.0,0.0
302,74.0,0.0,60.0,0.0,0.0
303,55.0,0.0,90.0,3.0,0.0
304,79.0,24.0,60.0,0.0,0.0
305,71.0,48.0,90.0,1.0,0.0
306,62.0,0.0,90.0,2.0,0.0
307,78.0,12.0,20.0,0.0,0.0
308,55.0,0.0,90.0,3.0,0.0
309,71.0,0.0,90.0,1.0,0.0
310,79.0,60.0,20.0,0.0,0.0
311,55.0,84.0,90.0,2.0,0.0
312,74.0,12.0,20.0,0.0,0.0
313,62.0,0.0,180.0,2.0,0.0
314,72.0,60.0,120.0,1.0,0.0
315,78.0,60.0,60.0,0.0,0.0
316,60.0,48.0,180.0,3.0,0.0
317,76.0,0.0,60.0,0.0,0.0
318,74.0,12.0,60.0,0.0,0.0
319,71.0,0.0,60.0,1.0,0.0
320,72.0,0.0,60.0,0.0,0.0
321,69.0,192.0,60.0,1.0,0.0
322,71.0,108.0,180.0,0.0,0.0
323,62.0,0.0,180.0,2.0,0.0
324,62.0,0.0,180.0,3.0,0.0
325,67.0,0.0,180.0,1.0,0.0
326,50.0,48.0,180.0,3.0,0.0
327,67.0,0.0,60.0,1.0,0.0
328,71.0,60.0,60.0,0.0,0.0
329,60.0,0.0,180.0,2.0,0.0
330,69.0,0.0,60.0,0.0,0.0
331,66.0,60.0,60.0,1.0,0.0
332,64.0,12.0,60.0,1.0,0.0
333,67.0,0.0,60.0,0.0,0.0
334,69.0,0.0,60.0,0.0,0.0
335,66.0,96.0,60.0,1.0,0.0
336,59.0,0.0,90.0,2.0,0.0
337,67.0,192.0,240.0,1.0,0.0
338,67.0,0.0,240.0,0.0,0.0
339,55.0,120.0,90.0,3.0,0.0
340,50.0,24.0,90.0,3.0,0.0
341,43.0,240.0,180.0,3.0,0.0
342,69.0,0.0,180.0,0.0,0.0
343,66.0,0.0,180.0,1.0,0.0
344,62.0,24.0,180.0,2.0,0.0
345,50.0,120.0,90.0,3.0,0.0
346,69.0,0.0,90.0,0.0,0.0
347,54.0,0.0,90.0,3.0,0.0
348,62.0,120.0,90.0,2.0,0.0
349,72.0,216.0,90.0,0.0,0.0
350,62.0,0.0,90.0,2.0,0.0
351,50.0,0.0,90.0,3.0,0.0
352,72.0,0.0,180.0,0.0,0.0
353,62.0,0.0,180.0,2.0,0.0
354,69.0,24.0,180.0,1.0,0.0
355,55.0,120.0,90.0,3.0,0.0
356,67.0,0.0,90.0,1.0,0.0
357,71.0,0.0,90.0,0.0,0.0
358,59.0,120.0,90.0,3.0,0.0
359,55.0,0.0,90.0,3.0,0.0
360,74.0,120.0,90.0,0.0,0.0
361,74.0,120.0,90.0,0.0,0.0
362,62.0,0.0,90.0,1.0,0.0
363,38.0,0.0,90.0,3.0,0.0
364,69.0,0.0,90.0,0.0,0.0
365,50.0,120.0,90.0,2.0,0.0
366,62.0,0.0,90.0,1.0,0.0
367,69.0,0.0,90.0,0.0,0.0
368,42.0,0.0,90.0,3.0,0.0
369,54.0,120.0,90.0,2.0,0.0
370,50.0,0.0,90.0,2.0,0.0
371,72.0,0.0,90.0,0.0,0.0
372,38.0,0.0,90.0,3.0,0.0
373,69.0,0.0,90.0,1.0,0.0
374,62.0,216.0,90.0,1.0,0.0
375,69.0,24.0,180.0,1.0,0.0
376,72.0,0.0,180.0,0.0,0.0
377,43.0,120.0,90.0,3.0,0.0
378,55.0,0.0,90.0,2.0,0.0
379,47.0,120.0,90.0,3.0,0.0
380,67.0,0.0,90.0,1.0,0.0
381,71.0,0.0,90.0,0.0,0.0
382,59.0,0.0,90.0,2.0,0.0
383,55.0,0.0,90.0,2.0,0.0
384,43.0,0.0,90.0,3.0,0.0
385,74.0,120.0,90.0,0.0,0.0
386,69.0,24.0,390.0,1.0,0.0
387,72.0,0.0,390.0,1.0,0.0
388,50.0,0.0,390.0,3.0,0.0
389,57.0,0.0,390.0,3.0,0.0
390,62.0,120.0,90.0,2.0,0.0
391,79.0,0.0,90.0,0.0,0.0
392,78.0,24.0,180.0,0.0,0.0
393,62.0,96.0,90.0,2.0,0.0
394,62.0,48.0,90.0,2.0,0.0
395,62.0,12.0,90.0,2.0,0.0
396,76.0,48.0,40.0,0.0,0.0
397,74.0,108.0,40.0,0.0,0.0
398,57.0,0.0,390.0,3.0,0.0
399,50.0,0.0,390.0,3.0,0.0
400,79.0,120.0,90.0,0.0,0.0
401,62.0,0.0,90.0,2.0,0.0
402,72.0,24.0,390.0,1.0,0.0
403,69.0,0.0,390.0,1.0,0.0
404,62.0,96.0,90.0,2.0,0.0
405,78.0,24.0,180.0,0.0,0.0
406,62.0,48.0,90.0,2.0,0.0
407,76.0,48.0,40.0,0.0,0.0
408,62.0,12.0,90.0,2.0,0.0
409,74.0,108.0,40.0,0.0,0.0
410,71.0,24.0,180.0,1.0,0.0
411,79.0,96.0,90.0,0.0,0.0
412,55.0,0.0,180.0,3.0,0.0
413,62.0,0.0,180.0,2.0,0.0
414,74.0,72.0,90.0,0.0,0.0
415,60.0,0.0,180.0,2.0,0.0
416,72.0,12.0,90.0,1.0,0.0
417,48.0,36.0,180.0,3.0,0.0
418,78.0,48.0,40.0,0.0,0.0
419,76.0,60.0,40.0,0.0,0.0
420,71.0,24.0,40.0,1.0,0.0
421,74.0,0.0,40.0,0.0,0.0
422,72.0,0.0,40.0,0.0,0.0
423,69.0,204.0,40.0,1.0,0.0
424,67.0,0.0,180.0,1.0,0.0
425,50.0,240.0,180.0,3.0,0.0
426,62.0,0.0,180.0,2.0,0.0
427,71.0,0.0,180.0,0.0,0.0
428,69.0,0.0,180.0,0.0,0.0
429,62.0,0.0,180.0,2.0,0.0
430,50.0,0.0,180.0,3.0,0.0
431,66.0,144.0,180.0,1.0,0.0
432,60.0,0.0,180.0,2.0,0.0
433,66.0,24.0,180.0,1.0,0.0
434,60.0,0.0,180.0,2.0,0.0
435,62.0,0.0,330.0,2.0,0.0
436,55.0,0.0,330.0,3.0,0.0
437,69.0,96.0,90.0,0.0,0.0
438,70.0,120.0,90.0,0.0,0.0
439,59.0,0.0,90.0,2.0,0.0
440,71.0,120.0,90.0,0.0,0.0
441,67.0,0.0,90.0,1.0,0.0
442,74.0,72.0,90.0,0.0,0.0
443,79.0,12.0,90.0,0.0,0.0
444,57.0,48.0,40.0,2.0,0.0
445,62.0,60.0,40.0,2.0,0.0
446,60.0,48.0,40.0,2.0,0.0
447,69.0,12.0,90.0,1.0,0.0
448,78.0,36.0,180.0,0.0,0.0
449,62.0,60.0,40.0,2.0,0.0
450,57.0,24.0,40.0,2.0,0.0
451,72.0,36.0,180.0,1.0,0.0
452,62.0,60.0,40.0,2.0,0.0
453,60.0,24.0,40.0,2.0,0.0
454,76.0,0.0,40.0,0.0,0.0
455,62.0,60.0,40.0,2.0,0.0
456,74.0,0.0,40.0,0.0,0.0
457,57.0,48.0,40.0,2.0,0.0
458,79.0,12.0,90.0,0.0,0.0
459,62.0,60.0,40.0,2.0,0.0
460,69.0,12.0,90.0,1.0,0.0
461,60.0,48.0,40.0,2.0,0.0
462,78.0,36.0,180.0,0.0,0.0
463,62.0,60.0,40.0,2.0,0.0
464,72.0,36.0,180.0,1.0,0.0
465,57.0,24.0,40.0,2.0,0.0
466,62.0,60.0,40.0,2.0,0.0
467,76.0,24.0,40.0,0.0,0.0
468,60.0,0.0,40.0,2.0,0.0
469,62.0,0.0,40.0,2.0,0.0
470,74.0,60.0,40.0,0.0,0.0
471,55.0,12.0,90.0,3.0,0.0
472,62.0,0.0,90.0,2.0,0.0
473,71.0,0.0,90.0,1.0,0.0
474,79.0,48.0,40.0,0.0,0.0
475,78.0,60.0,40.0,0.0,0.0
476,71.0,0.0,90.0,1.0,0.0
477,79.0,48.0,40.0,0.0,0.0
478,55.0,0.0,90.0,3.0,0.0
479,55.0,12.0,90.0,2.0,0.0
480,74.0,60.0,40.0,0.0,0.0
481,60.0,36.0,180.0,3.0,0.0
482,72.0,12.0,90.0,1.0,0.0
483,78.0,48.0,40.0,0.0,0.0
484,62.0,0.0,180.0,2.0,0.0
485,76.0,60.0,40.0,0.0,0.0
486,71.0,24.0,40.0,1.0,0.0
487,74.0,0.0,40.0,0.0,0.0
488,72.0,204.0,40.0,0.0,0.0
489,69.0,0.0,40.0,1.0,0.0
490,67.0,0.0,180.0,1.0,0.0
491,62.0,96.0,180.0,2.0,0.0
492,71.0,0.0,180.0,0.0,0.0
493,62.0,0.0,180.0,3.0,0.0
494,60.0,0.0,180.0,2.0,0.0
495,50.0,36.0,180.0,3.0,0.0
496,71.0,0.0,40.0,0.0,0.0
497,67.0,60.0,40.0,1.0,0.0
498,66.0,0.0,40.0,1.0,0.0
499,69.0,60.0,40.0,0.0,0.0
500,64.0,24.0,40.0,1.0,0.0
501,67.0,0.0,40.0,0.0,0.0
502,66.0,0.0,40.0,1.0,0.0
503,69.0,108.0,40.0,0.0,0.0
504,67.0,24.0,180.0,1.0,0.0
505,55.0,96.0,90.0,3.0,0.0
506,59.0,0.0,90.0,2.0,0.0
507,67.0,0.0,180.0,0.0,0.0
508,50.0,216.0,90.0,3.0,0.0
509,43.0,108.0,180.0,3.0,0.0
510,73.0,36.0,60.0,0.0,0.0
511,59.0,24.0,90.0,2.0,0.0
512,55.0,24.0,180.0,3.0,0.0
513,74.0,60.0,60.0,0.0,0.0
514,70.0,12.0,60.0,0.0,0.0
515,62.0,24.0,90.0,2.0,0.0
516,71.0,60.0,60.0,0.0,0.0
517,70.0,60.0,60.0,0.0,0.0
518,71.0,60.0,60.0,0.0,0.0
519,55.0,0.0,90.0,3.0,0.0
520,70.0,36.0,60.0,0.0,0.0
521,62.0,24.0,90.0,2.0,0.0
522,71.0,60.0,60.0,0.0,0.0
523,70.0,36.0,60.0,0.0,0.0
524,55.0,24.0,180.0,3.0,0.0
525,62.0,24.0,90.0,2.0,0.0
526,71.0,60.0,60.0,0.0,0.0
527,59.0,24.0,90.0,2.0,0.0
528,66.0,12.0,60.0,0.0,0.0
529,67.0,60.0,60.0,0.0,0.0
530,66.0,60.0,60.0,0.0,0.0
531,67.0,60.0,60.0,0.0,0.0
532,59.0,24.0,90.0,3.0,0.0
533,62.0,0.0,90.0,2.0,0.0
534,66.0,36.0,60.0,0.0,0.0
535,67.0,48.0,60.0,0.0,0.0
536,60.0,60.0,300.0,3.0,0.0
537,64.0,0.0,300.0,2.0,0.0
538,68.0,60.0,40.0,0.0,0.0
539,69.0,60.0,40.0,0.0,0.0
540,71.0,60.0,40.0,0.0,0.0
541,69.0,60.0,40.0,0.0,0.0
542,71.0,0.0,40.0,0.0,0.0
543,69.0,60.0,40.0,0.0,0.0
544,66.0,0.0,90.0,2.0,0.0
545,72.0,48.0,40.0,0.0,0.0
546,62.0,12.0,90.0,3.0,0.0
547,71.0,60.0,40.0,0.0,0.0
548,67.0,0.0,90.0,2.0,0.0
549,74.0,48.0,40.0,0.0,0.0
550,64.0,12.0,90.0,3.0,0.0
551,72.0,60.0,40.0,0.0,0.0
552,66.0,0.0,90.0,3.0,0.0
553,76.0,48.0,40.0,0.0,0.0
554,69.0,12.0,90.0,2.0,0.0
555,72.0,60.0,40.0,0.0,0.0
556,70.0,60.0,40.0,0.0,0.0
557,67.0,36.0,180.0,3.0,0.0
558,71.0,60.0,40.0,0.0,0.0
559,72.0,24.0,40.0,0.0,0.0
560,71.0,60.0,40.0,0.0,0.0
561,79.0,60.0,40.0,0.0,0.0
562,83.0,60.0,40.0,0.0,0.0
563,81.0,48.0,40.0,0.0,0.0
564,62.0,0.0,90.0,2.0,0.0
565,59.0,12.0,90.0,3.0,0.0
566,79.0,60.0,40.0,0.0,0.0
567,78.0,60.0,40.0,0.0,0.0
568,60.0,0.0,180.0,3.0,0.0
569,62.0,36.0,180.0,2.0,0.0
570,84.0,60.0,40.0,1.0,0.0
571,81.0,24.0,40.0,1.0,0.0
572,78.0,60.0,40.0,1.0,0.0
573,79.0,0.0,40.0,0.0,0.0
574,79.0,60.0,40.0,1.0,0.0
575,83.0,60.0,40.0,0.0,0.0
576,81.0,48.0,40.0,0.0,0.0
577,59.0,12.0,90.0,3.0,0.0
578,62.0,0.0,90.0,2.0,0.0
579,79.0,60.0,40.0,0.0,0.0
580,60.0,0.0,180.0,3.0,0.0
581,78.0,60.0,40.0,0.0,0.0
582,62.0,36.0,180.0,2.0,0.0
583,84.0,60.0,40.0,1.0,0.0
584,81.0,24.0,40.0,1.0,0.0
585,78.0,60.0,40.0,1.0,0.0
586,79.0,60.0,40.0,1.0,0.0
587,79.0,0.0,40.0,0.0,0.0
588,78.0,60.0,40.0,0.0,0.0
589,76.0,48.0,40.0,0.0,0.0
590,62.0,24.0,180.0,2.0,0.0
591,59.0,12.0,90.0,3.0,0.0
592,74.0,60.0,40.0,0.0,0.0
593,54.0,12.0,90.0,3.0,0.0
594,73.0,24.0,40.0,0.0,0.0
595,72.0,60.0,40.0,0.0,0.0
596,55.0,0.0,90.0,3.0,0.0
597,62.0,12.0,90.0,2.0,0.0
598,71.0,48.0,40.0,0.0,0.0
599,74.0,108.0,40.0,0.0,0.0
600,50.0,48.0,390.0,3.0,0.0
601,72.0,48.0,90.0,0.0,0.0
602,55.0,12.0,180.0,2.0,0.0
603,72.0,30.0,20.0,0.0,0.0
604,71.0,18.0,20.0,0.0,0.0
605,69.0,30.0,20.0,0.0,0.0
606,71.0,150.0,20.0,0.0,0.0
607,69.0,96.0,180.0,0.0,0.0
608,54.0,0.0,180.0,2.0,0.0
609,55.0,24.0,180.0,3.0,0.0
610,59.0,12.0,90.0,2.0,0.0
611,73.0,48.0,40.0,0.0,0.0
612,74.0,60.0,40.0,0.0,0.0
613,62.0,12.0,90.0,2.0,0.0
614,70.0,24.0,40.0,0.0,0.0
615,71.0,60.0,40.0,0.0,0.0
616,70.0,60.0,40.0,0.0,0.0
617,71.0,60.0,40.0,0.0,0.0
618,70.0,48.0,40.0,0.0,0.0
619,62.0,0.0,90.0,2.0,0.0
620,55.0,12.0,90.0,3.0,0.0
621,71.0,60.0,40.0,0.0,0.0
622,70.0,48.0,40.0,0.0,0.0
623,62.0,12.0,90.0,2.0,0.0
624,55.0,24.0,180.0,3.0,0.0
625,71.0,60.0,40.0,0.0,0.0
626,66.0,24.0,40.0,0.0,0.0
627,59.0,12.0,90.0,2.0,0.0
628,67.0,60.0,40.0,0.0,0.0
629,66.0,60.0,40.0,0.0,0.0
630,67.0,60.0,40.0,0.0,0.0
631,59.0,12.0,90.0,3.0,0.0
632,62.0,0.0,90.0,2.0,0.0
633,66.0,48.0,40.0,0.0,0.0
634,67.0,60.0,40.0,0.0,0.0
635,68.0,60.0,40.0,0.0,0.0
636,64.0,0.0,300.0,2.0,0.0
637,60.0,0.0,300.0,3.0,0.0
638,69.0,60.0,40.0,0.0,0.0
639,71.0,60.0,40.0,0.0,0.0
640,69.0,60.0,40.0,0.0,0.0
641,71.0,60.0,40.0,0.0,0.0
642,69.0,60.0,40.0,0.0,0.0
643,72.0,48.0,40.0,0.0,0.0
644,66.0,0.0,90.0,2.0,0.0
645,62.0,12.0,90.0,3.0,0.0
646,71.0,60.0,40.0,0.0,0.0
647,67.0,12.0,90.0,2.0,0.0
648,64.0,0.0,90.0,3.0,0.0
649,74.0,48.0,40.0,0.0,0.0
650,72.0,60.0,40.0,0.0,0.0
651,69.0,12.0,90.0,2.0,0.0
652,76.0,48.0,40.0,0.0,0.0
653,66.0,0.0,90.0,3.0,0.0
654,72.0,60.0,40.0,0.0,0.0
655,70.0,60.0,40.0,0.0,0.0
656,67.0,36.0,180.0,3.0,0.0
657,71.0,60.0,40.0,0.0,0.0
658,72.0,24.0,40.0,0.0,0.0
659,71.0,60.0,40.0,0.0,0.0
660,79.0,60.0,40.0,0.0,0.0
661,83.0,60.0,40.0,0.0,0.0
662,59.0,12.0,90.0,3.0,0.0
663,81.0,48.0,40.0,0.0,0.0
664,62.0,0.0,90.0,2.0,0.0
665,79.0,60.0,40.0,0.0,0.0
666,60.0,36.0,180.0,3.0,0.0
667,62.0,0.0,180.0,2.0,0.0
668,78.0,60.0,40.0,0.0,0.0
669,84.0,60.0,40.0,1.0,0.0
670,81.0,24.0,40.0,1.0,0.0
671,78.0,60.0,40.0,1.0,0.0
672,79.0,0.0,40.0,1.0,0.0
673,79.0,60.0,40.0,0.0,0.0
674,83.0,60.0,40.0,0.0,0.0
675,62.0,0.0,90.0,2.0,0.0
676,59.0,12.0,90.0,3.0,0.0
677,81.0,48.0,40.0,0.0,0.0
678,79.0,60.0,40.0,0.0,0.0
679,60.0,36.0,180.0,3.0,0.0
680,62.0,0.0,180.0,2.0,0.0
681,78.0,60.0,40.0,0.0,0.0
682,84.0,60.0,40.0,1.0,0.0
683,81.0,24.0,40.0,1.0,0.0
684,78.0,60.0,40.0,1.0,0.0
685,79.0,60.0,40.0,1.0,0.0
686,79.0,0.0,40.0,0.0,0.0
687,78.0,60.0,40.0,0.0,0.0
688,62.0,24.0,180.0,2.0,0.0
689,59.0,12.0,90.0,3.0,0.0
690,76.0,48.0,40.0,0.0,0.0
691,74.0,60.0,40.0,0.0,0.0
692,54.0,12.0,90.0,3.0,0.0
693,73.0,24.0,40.0,0.0,0.0
694,72.0,60.0,40.0,0.0,0.0
695,62.0,0.0,90.0,2.0,0.0
696,55.0,12.0,90.0,3.0,0.0
697,71.0,48.0,40.0,0.0,0.0
698,74.0,108.0,40.0,0.0,0.0
699,50.0,48.0,390.0,3.0,0.0
700,72.0,48.0,90.0,0.0,0.0
701,55.0,12.0,180.0,2.0,0.0
702,72.0,30.0,20.0,0.0,0.0
703,71.0,18.0,20.0,0.0,0.0
704,69.0,30.0,20.0,0.0,0.0
705,71.0,150.0,20.0,0.0,0.0
706,54.0,0.0,180.0,2.0,0.0
707,69.0,108.0,180.0,0.0,0.0
708,54.0,0.0,60.0,3.0,0.0
709,74.0,60.0,60.0,0.0,0.0
710,62.0,24.0,180.0,2.0,0.0
711,69.0,60.0,60.0,0.0,0.0
712,50.0,24.0,90.0,3.0,0.0
713,68.0,12.0,60.0,0.0,0.0
714,69.0,60.0,60.0,0.0,0.0
715,68.0,60.0,60.0,0.0,0.0
716,69.0,60.0,60.0,0.0,0.0
717,71.0,36.0,60.0,0.0,0.0
718,62.0,0.0,90.0,2.0,0.0
719,54.0,24.0,90.0,3.0,0.0
720,72.0,60.0,60.0,0.0,0.0
721,55.0,0.0,60.0,3.0,0.0
722,62.0,24.0,180.0,2.0,0.0
723,71.0,60.0,60.0,0.0,0.0
724,66.0,60.0,60.0,0.0,0.0
725,67.0,12.0,60.0,0.0,0.0
726,50.0,24.0,90.0,3.0,0.0
727,69.0,60.0,60.0,0.0,0.0
728,70.0,60.0,60.0,0.0,0.0
729,71.0,60.0,60.0,0.0,0.0
730,55.0,0.0,90.0,3.0,0.0
731,72.0,36.0,60.0,0.0,0.0
732,62.0,24.0,90.0,2.0,0.0
733,73.0,60.0,60.0,0.0,0.0
734,54.0,60.0,60.0,3.0,0.0
735,74.0,0.0,60.0,0.0,0.0
736,62.0,24.0,180.0,2.0,0.0
737,69.0,60.0,60.0,0.0,0.0
738,50.0,24.0,90.0,3.0,0.0
739,68.0,12.0,60.0,0.0,0.0
740,69.0,60.0,60.0,0.0,0.0
741,68.0,60.0,60.0,0.0,0.0
742,69.0,60.0,60.0,0.0,0.0
743,54.0,0.0,90.0,3.0,0.0
744,71.0,36.0,60.0,0.0,0.0
745,62.0,24.0,90.0,2.0,0.0
746,72.0,60.0,60.0,0.0,0.0
747,71.0,60.0,60.0,0.0,0.0
748,55.0,0.0,180.0,3.0,0.0
749,62.0,48.0,180.0,2.0,0.0
750,72.0,60.0,60.0,0.0,0.0
751,73.0,12.0,60.0,0.0,0.0
752,74.0,60.0,60.0,0.0,0.0
753,75.0,60.0,60.0,0.0,0.0
754,76.0,60.0,60.0,0.0,0.0
755,77.0,60.0,60.0,0.0,0.0
756,78.0,48.0,60.0,0.0,0.0
757,79.0,60.0,40.0,0.0,0.0
758,62.0,24.0,390.0,3.0,0.0
759,78.0,60.0,40.0,0.0,0.0
760,72.0,0.0,180.0,2.0,0.0
761,69.0,36.0,180.0,2.0,0.0
762,77.0,60.0,40.0,0.0,0.0
763,78.0,60.0,40.0,0.0,0.0
764,76.0,24.0,40.0,1.0,0.0
765,74.0,36.0,40.0,1.0,0.0
766,73.0,48.0,40.0,1.0,0.0
767,69.0,12.0,90.0,2.0,0.0
768,74.0,60.0,40.0,1.0,0.0
769,79.0,60.0,40.0,0.0,0.0
770,60.0,24.0,390.0,3.0,0.0
771,78.0,60.0,40.0,0.0,0.0
772,62.0,36.0,180.0,2.0,0.0
773,77.0,60.0,40.0,0.0,0.0
774,69.0,0.0,180.0,2.0,0.0
775,78.0,60.0,40.0,0.0,0.0
776,76.0,24.0,40.0,1.0,0.0
777,74.0,36.0,40.0,1.0,0.0
778,62.0,0.0,90.0,2.0,0.0
779,69.0,12.0,90.0,2.0,0.0
780,73.0,48.0,40.0,1.0,0.0
781,74.0,60.0,40.0,1.0,0.0
782,79.0,60.0,40.0,0.0,0.0
783,81.0,60.0,40.0,0.0,0.0
784,67.0,0.0,90.0,1.0,0.0
785,83.0,48.0,40.0,0.0,0.0
786,59.0,12.0,90.0,2.0,0.0
787,74.0,60.0,40.0,0.0,0.0
788,76.0,60.0,40.0,0.0,0.0
789,78.0,60.0,40.0,0.0,0.0
790,60.0,12.0,90.0,2.0,0.0
791,79.0,48.0,40.0,0.0,0.0
792,67.0,0.0,90.0,1.0,0.0
793,72.0,60.0,40.0,0.0,0.0
794,71.0,60.0,40.0,0.0,0.0
795,72.0,60.0,40.0,0.0,0.0
796,74.0,48.0,40.0,0.0,0.0
797,55.0,12.0,90.0,2.0,0.0
798,50.0,0.0,90.0,3.0,0.0
799,59.0,0.0,90.0,1.0,0.0
800,67.0,60.0,40.0,0.0,0.0
801,69.0,60.0,40.0,0.0,0.0
802,71.0,60.0,40.0,0.0,0.0
803,57.0,0.0,90.0,2.0,0.0
804,60.0,0.0,90.0,1.0,0.0
805,50.0,12.0,90.0,3.0,0.0
806,72.0,48.0,40.0,0.0,0.0
807,66.0,60.0,40.0,0.0,0.0
808,55.0,36.0,180.0,3.0,0.0
809,55.0,0.0,180.0,2.0,0.0
810,67.0,60.0,40.0,0.0,0.0
811,59.0,0.0,180.0,1.0,0.0
812,71.0,60.0,40.0,0.0,0.0
813,72.0,24.0,40.0,0.0,0.0
814,73.0,60.0,40.0,0.0,0.0
815,74.0,60.0,40.0,0.0,0.0
816,75.0,60.0,40.0,0.0,0.0
817,76.0,60.0,40.0,0.0,0.0
818,78.0,60.0,40.0,0.0,0.0
819,79.0,60.0,40.0,0.0,0.0
820,62.0,24.0,390.0,3.0,0.0
821,78.0,60.0,40.0,0.0,0.0
822,77.0,60.0,40.0,0.0,0.0
823,72.0,36.0,180.0,2.0,0.0
824,69.0,0.0,180.0,2.0,0.0
825,78.0,60.0,40.0,0.0,0.0
826,76.0,24.0,40.0,1.0,0.0
827,74.0,36.0,40.0,1.0,0.0
828,73.0,48.0,40.0,1.0,0.0
829,69.0,12.0,90.0,2.0,0.0
830,74.0,60.0,40.0,1.0,0.0
831,60.0,24.0,390.0,3.0,0.0
832,79.0,60.0,40.0,0.0,0.0
833,78.0,60.0,40.0,0.0,0.0
834,69.0,36.0,180.0,2.0,0.0
835,62.0,0.0,180.0,2.0,0.0
836,77.0,60.0,40.0,0.0,0.0
837,78.0,60.0,40.0,0.0,0.0
838,76.0,24.0,40.0,1.0,0.0
839,74.0,36.0,40.0,1.0,0.0
840,73.0,48.0,40.0,1.0,0.0
841,62.0,12.0,90.0,2.0,0.0
842,69.0,0.0,90.0,2.0,0.0
843,74.0,60.0,40.0,1.0,0.0
844,79.0,60.0,40.0,0.0,0.0
845,81.0,60.0,40.0,0.0,0.0
846,83.0,48.0,40.0,0.0,0.0
847,67.0,0.0,90.0,1.0,0.0
848,59.0,12.0,90.0,2.0,0.0
849,75.0,60.0,40.0,0.0,0.0
850,76.0,60.0,40.0,0.0,0.0
851,78.0,60.0,40.0,0.0,0.0
852,67.0,12.0,90.0,1.0,0.0
853,79.0,48.0,40.0,0.0,0.0
854,60.0,0.0,90.0,2.0,0.0
855,72.0,60.0,40.0,0.0,0.0
856,50.0,24.0,390.0,3.0,0.0
857,71.0,60.0,40.0,0.0,0.0
858,72.0,60.0,40.0,0.0,0.0
859,74.0,48.0,40.0,0.0,0.0
860,59.0,12.0,90.0,2.0,0.0
861,68.0,60.0,40.0,0.0,0.0
862,60.0,12.0,90.0,2.0,0.0
863,69.0,48.0,40.0,0.0,0.0
864,71.0,36.0,40.0,0.0,0.0
865,57.0,12.0,90.0,2.0,0.0
866,72.0,48.0,40.0,0.0,0.0
867,66.0,108.0,40.0,0.0,0.0
868,67.0,24.0,180.0,0.0,0.0
869,55.0,96.0,90.0,2.0,0.0
870,50.0,216.0,90.0,2.0,0.0
871,43.0,0.0,180.0,2.0,0.0
872,43.0,96.0,180.0,3.0,0.0
873,62.0,36.0,180.0,2.0,0.0
874,54.0,0.0,40.0,3.0,0.0
875,74.0,60.0,40.0,0.0,0.0
876,69.0,60.0,40.0,0.0,0.0
877,50.0,0.0,40.0,3.0,0.0
878,68.0,24.0,40.0,0.0,0.0
879,69.0,60.0,40.0,0.0,0.0
880,68.0,60.0,40.0,0.0,0.0
881,69.0,60.0,40.0,0.0,0.0
882,62.0,0.0,90.0,2.0,0.0
883,71.0,48.0,40.0,0.0,0.0
884,54.0,12.0,90.0,3.0,0.0
885,72.0,60.0,40.0,0.0,0.0
886,55.0,12.0,40.0,3.0,0.0
887,62.0,48.0,180.0,2.0,0.0
888,71.0,60.0,60.0,0.0,0.0
889,66.0,48.0,60.0,0.0,0.0
890,50.0,12.0,40.0,3.0,0.0
891,67.0,12.0,60.0,0.0,0.0
892,69.0,60.0,60.0,0.0,0.0
893,70.0,60.0,60.0,0.0,0.0
894,71.0,60.0,60.0,0.0,0.0
895,72.0,36.0,60.0,0.0,0.0
896,55.0,24.0,90.0,3.0,0.0
897,62.0,0.0,90.0,2.0,0.0
898,73.0,48.0,60.0,0.0,0.0
899,54.0,12.0,40.0,3.0,0.0
900,74.0,60.0,60.0,0.0,0.0
901,62.0,48.0,180.0,2.0,0.0
902,69.0,48.0,60.0,0.0,0.0
903,68.0,12.0,60.0,0.0,0.0
904,50.0,12.0,40.0,3.0,0.0
905,69.0,60.0,60.0,0.0,0.0
906,68.0,60.0,60.0,0.0,0.0
907,69.0,60.0,60.0,0.0,0.0
908,71.0,36.0,60.0,0.0,0.0
909,54.0,0.0,90.0,3.0,0.0
910,62.0,24.0,90.0,2.0,0.0
911,72.0,60.0,60.0,0.0,0.0
912,55.0,48.0,180.0,3.0,0.0
913,62.0,0.0,180.0,2.0,0.0
914,71.0,60.0,60.0,0.0,0.0
915,72.0,60.0,60.0,0.0,0.0
916,73.0,12.0,60.0,0.0,0.0
917,74.0,60.0,60.0,0.0,0.0
918,75.0,60.0,60.0,0.0,0.0
919,76.0,60.0,60.0,0.0,0.0
920,77.0,60.0,60.0,0.0,0.0
921,78.0,60.0,60.0,0.0,0.0
922,62.0,24.0,390.0,3.0,0.0
923,79.0,60.0,60.0,0.0,0.0
924,78.0,60.0,60.0,0.0,0.0
925,69.0,36.0,180.0,2.0,0.0
926,77.0,60.0,60.0,0.0,0.0
927,72.0,0.0,180.0,2.0,0.0
928,78.0,48.0,60.0,0.0,0.0
929,76.0,24.0,40.0,1.0,0.0
930,74.0,36.0,40.0,1.0,0.0
931,69.0,12.0,90.0,2.0,0.0
932,73.0,48.0,40.0,1.0,0.0
933,74.0,60.0,40.0,1.0,0.0
934,60.0,24.0,390.0,3.0,0.0
935,79.0,60.0,40.0,0.0,0.0
936,78.0,60.0,40.0,0.0,0.0
937,69.0,0.0,180.0,2.0,0.0
938,77.0,60.0,40.0,0.0,0.0
939,62.0,36.0,180.0,2.0,0.0
940,78.0,60.0,40.0,0.0,0.0
941,76.0,24.0,40.0,1.0,0.0
942,74.0,36.0,40.0,1.0,0.0
943,73.0,48.0,40.0,1.0,0.0
944,69.0,12.0,90.0,2.0,0.0
945,62.0,0.0,90.0,2.0,0.0
946,74.0,60.0,40.0,1.0,0.0
947,79.0,60.0,40.0,0.0,0.0
948,81.0,36.0,40.0,0.0,0.0
949,67.0,72.0,90.0,1.0,0.0
950,59.0,0.0,90.0,2.0,0.0
951,83.0,60.0,20.0,0.0,0.0
952,74.0,12.0,20.0,0.0,0.0
953,76.0,60.0,40.0,0.0,0.0
954,78.0,36.0,40.0,0.0,0.0
955,67.0,0.0,90.0,1.0,0.0
956,60.0,72.0,90.0,2.0,0.0
957,79.0,60.0,20.0,0.0,0.0
958,72.0,12.0,20.0,0.0,0.0
959,71.0,60.0,40.0,0.0,0.0
960,72.0,36.0,40.0,0.0,0.0
961,59.0,0.0,90.0,1.0,0.0
962,55.0,72.0,90.0,2.0,0.0
963,74.0,60.0,20.0,0.0,0.0
964,50.0,0.0,90.0,3.0,0.0
965,67.0,12.0,20.0,0.0,0.0
966,69.0,60.0,40.0,0.0,0.0
967,71.0,36.0,40.0,0.0,0.0
968,57.0,72.0,90.0,2.0,0.0
969,72.0,60.0,20.0,0.0,0.0
970,50.0,0.0,90.0,3.0,0.0
971,60.0,0.0,90.0,1.0,0.0
972,66.0,12.0,20.0,0.0,0.0
973,55.0,0.0,180.0,3.0,0.0
974,55.0,0.0,180.0,2.0,0.0
975,59.0,36.0,180.0,1.0,0.0
976,67.0,60.0,40.0,0.0,0.0
977,71.0,60.0,40.0,0.0,0.0
978,72.0,24.0,40.0,0.0,0.0
979,73.0,60.0,40.0,0.0,0.0
980,74.0,60.0,40.0,0.0,0.0
981,75.0,60.0,40.0,0.0,0.0
982,76.0,60.0,40.0,0.0,0.0
983,78.0,60.0,40.0,0.0,0.0
984,62.0,24.0,390.0,3.0,0.0
985,79.0,60.0,40.0,0.0,0.0
986,78.0,60.0,40.0,0.0,0.0
987,72.0,0.0,180.0,2.0,0.0
988,77.0,60.0,40.0,0.0,0.0
989,69.0,36.0,180.0,2.0,0.0
990,78.0,60.0,40.0,0.0,0.0
991,76.0,24.0,40.0,1.0,0.0
992,74.0,36.0,40.0,1.0,0.0
993,69.0,12.0,90.0,2.0,0.0
994,73.0,48.0,40.0,1.0,0.0
995,74.0,60.0,40.0,1.0,0.0
996,60.0,24.0,390.0,3.0,0.0
997,79.0,60.0,40.0,0.0,0.0
998,78.0,60.0,40.0,0.0,0.0
999,77.0,60.0,40.0,0.0,0.0
1000,62.0,0.0,180.0,2.0,0.0
1001,69.0,36.0,180.0,2.0,0.0
1002,78.0,60.0,40.0,0.0,0.0
1003,76.0,24.0,40.0,1.0,0.0
1004,74.0,36.0,40.0,1.0,0.0
1005,69.0,0.0,90.0,2.0,0.0
1006,62.0,12.0,90.0,2.0,0.0
1007,73.0,48.0,40.0,1.0,0.0
1008,74.0,60.0,40.0,1.0,0.0
1009,79.0,60.0,40.0,0.0,0.0
1010,81.0,36.0,40.0,0.0,0.0
1011,67.0,72.0,90.0,1.0,0.0
1012,59.0,0.0,90.0,2.0,0.0
1013,83.0,60.0,20.0,0.0,0.0
1014,75.0,12.0,20.0,0.0,0.0
1015,76.0,60.0,40.0,0.0,0.0
1016,78.0,36.0,40.0,0.0,0.0
1017,67.0,72.0,90.0,1.0,0.0
1018,79.0,60.0,20.0,0.0,0.0
1019,60.0,0.0,90.0,2.0,0.0
1020,72.0,12.0,20.0,0.0,0.0
1021,50.0,24.0,390.0,3.0,0.0
1022,71.0,60.0,40.0,0.0,0.0
1023,72.0,60.0,40.0,0.0,0.0
1024,59.0,12.0,90.0,2.0,0.0
1025,74.0,48.0,40.0,0.0,0.0
1026,68.0,60.0,40.0,0.0,0.0
1027,69.0,48.0,40.0,0.0,0.0
1028,60.0,12.0,90.0,2.0,0.0
1029,71.0,36.0,40.0,0.0,0.0
1030,72.0,48.0,40.0,0.0,0.0
1031,57.0,12.0,90.0,2.0,0.0
1032,66.0,108.0,40.0,0.0,0.0
1033,55.0,96.0,90.0,2.0,0.0
1034,67.0,24.0,180.0,0.0,0.0
1035,50.0,216.0,90.0,2.0,0.0
1036,43.0,0.0,180.0,2.0,0.0
1037,43.0,108.0,180.0,3.0,0.0
1038,71.0,24.0,90.0,1.0,0.0
1039,43.0,36.0,60.0,3.0,0.0
1040,74.0,0.0,90.0,0.0,0.0
1041,42.0,48.0,60.0,3.0,0.0
1042,71.0,0.0,40.0,0.0,0.0
1043,43.0,60.0,60.0,3.0,0.0
1044,67.0,12.0,40.0,1.0,0.0
1045,42.0,48.0,60.0,3.0,0.0
1046,71.0,12.0,40.0,0.0,0.0
1047,43.0,60.0,60.0,3.0,0.0
1048,67.0,0.0,40.0,1.0,0.0
1049,42.0,48.0,60.0,3.0,0.0
1050,67.0,0.0,40.0,1.0,0.0
1051,43.0,60.0,60.0,3.0,0.0
1052,71.0,12.0,40.0,0.0,0.0
1053,42.0,60.0,60.0,3.0,0.0
1054,43.0,60.0,60.0,3.0,0.0
1055,67.0,0.0,300.0,1.0,0.0
1056,71.0,12.0,300.0,0.0,0.0
1057,42.0,60.0,60.0,3.0,0.0
1058,43.0,60.0,60.0,3.0,0.0
1059,42.0,48.0,60.0,3.0,0.0
1060,43.0,60.0,60.0,3.0,0.0
1061,45.0,60.0,60.0,3.0,0.0
1062,47.0,36.0,60.0,3.0,0.0
1063,62.0,0.0,90.0,1.0,0.0
1064,67.0,24.0,90.0,0.0,0.0
1065,43.0,48.0,60.0,3.0,0.0
1066,64.0,0.0,40.0,2.0,0.0
1067,69.0,0.0,40.0,0.0,0.0
1068,67.0,12.0,40.0,1.0,0.0
1069,48.0,60.0,60.0,3.0,0.0
1070,52.0,48.0,60.0,3.0,0.0
1071,67.0,0.0,40.0,1.0,0.0
1072,64.0,0.0,40.0,2.0,0.0
1073,69.0,12.0,40.0,0.0,0.0
1074,55.0,60.0,60.0,3.0,0.0
1075,60.0,60.0,60.0,3.0,0.0
1076,64.0,24.0,90.0,2.0,0.0
1077,69.0,0.0,90.0,0.0,0.0
1078,48.0,36.0,60.0,3.0,0.0
1079,67.0,0.0,90.0,1.0,0.0
1080,60.0,60.0,60.0,3.0,0.0
1081,67.0,0.0,90.0,1.0,0.0
1082,50.0,36.0,60.0,3.0,0.0
1083,71.0,24.0,90.0,0.0,0.0
1084,67.0,0.0,90.0,2.0,0.0
1085,62.0,60.0,60.0,3.0,0.0
1086,74.0,24.0,90.0,0.0,0.0
1087,52.0,36.0,60.0,3.0,0.0
1088,67.0,0.0,90.0,1.0,0.0
1089,64.0,24.0,60.0,3.0,0.0
1090,54.0,24.0,60.0,3.0,0.0
1091,69.0,18.0,90.0,1.0,0.0
1092,74.0,30.0,20.0,0.0,0.0
1093,72.0,6.0,20.0,0.0,0.0
1094,71.0,12.0,20.0,0.0,0.0
1095,66.0,60.0,60.0,3.0,0.0
1096,72.0,6.0,20.0,0.0,0.0
1097,71.0,0.0,90.0,1.0,0.0
1098,71.0,24.0,90.0,0.0,0.0
1099,67.0,36.0,60.0,3.0,0.0
1100,62.0,60.0,60.0,3.0,0.0
1101,59.0,42.0,60.0,3.0,0.0
1102,62.0,60.0,60.0,3.0,0.0
1103,71.0,15.0,15.0,0.0,0.0
1104,74.0,3.0,15.0,0.0,0.0
1105,55.0,60.0,60.0,3.0,0.0
1106,79.0,48.0,180.0,0.0,0.0
1107,57.0,60.0,60.0,3.0,0.0
1108,59.0,12.0,60.0,3.0,0.0
1109,60.0,60.0,60.0,3.0,0.0
1110,62.0,36.0,60.0,3.0,0.0
1111,69.0,0.0,90.0,1.0,0.0
1112,78.0,24.0,90.0,0.0,0.0
1113,60.0,24.0,60.0,3.0,0.0
1114,59.0,18.0,60.0,3.0,0.0
1115,84.0,36.0,20.0,0.0,0.0
1116,78.0,24.0,40.0,0.0,0.0
1117,57.0,60.0,60.0,3.0,0.0
1118,71.0,15.0,15.0,0.0,0.0
1119,74.0,3.0,15.0,0.0,0.0
1120,79.0,48.0,180.0,0.0,0.0
1121,55.0,60.0,60.0,3.0,0.0
1122,57.0,60.0,60.0,3.0,0.0
1123,59.0,12.0,60.0,3.0,0.0
1124,60.0,60.0,60.0,3.0,0.0
1125,62.0,36.0,60.0,3.0,0.0
1126,69.0,24.0,90.0,1.0,0.0
1127,78.0,0.0,90.0,0.0,0.0
1128,60.0,24.0,60.0,3.0,0.0
1129,59.0,42.0,60.0,3.0,0.0
1130,84.0,36.0,20.0,0.0,0.0
1131,78.0,18.0,60.0,0.0,0.0
1132,57.0,60.0,60.0,3.0,0.0
1133,79.0,24.0,90.0,0.0,0.0
1134,55.0,36.0,60.0,3.0,0.0
1135,57.0,60.0,60.0,3.0,0.0
1136,74.0,24.0,90.0,0.0,0.0
1137,71.0,0.0,90.0,1.0,0.0
1138,59.0,36.0,60.0,3.0,0.0
1139,55.0,60.0,60.0,3.0,0.0
1140,69.0,0.0,90.0,1.0,0.0
1141,54.0,36.0,60.0,3.0,0.0
1142,72.0,24.0,90.0,0.0,0.0
1143,50.0,60.0,60.0,3.0,0.0
1144,71.0,0.0,90.0,0.0,0.0
1145,67.0,24.0,90.0,1.0,0.0
1146,55.0,36.0,60.0,3.0,0.0
1147,59.0,60.0,60.0,3.0,0.0
1148,67.0,0.0,180.0,1.0,0.0
1149,50.0,60.0,60.0,3.0,0.0
1150,71.0,48.0,180.0,0.0,0.0
1151,62.0,60.0,60.0,3.0,0.0
1152,61.0,12.0,60.0,3.0,0.0
1153,62.0,60.0,60.0,3.0,0.0
1154,50.0,36.0,60.0,3.0,0.0
1155,66.0,24.0,90.0,1.0,0.0
1156,69.0,0.0,90.0,0.0,0.0
1157,48.0,60.0,60.0,3.0,0.0
1158,47.0,60.0,60.0,3.0,0.0
1159,45.0,60.0,60.0,3.0,0.0
1160,71.0,0.0,90.0,1.0,0.0
1161,74.0,24.0,90.0,0.0,0.0
1162,43.0,36.0,60.0,3.0,0.0
1163,42.0,60.0,60.0,3.0,0.0
1164,71.0,24.0,90.0,0.0,0.0
1165,67.0,0.0,90.0,1.0,0.0
1166,43.0,36.0,60.0,3.0,0.0
1167,42.0,60.0,60.0,3.0,0.0
1168,43.0,36.0,60.0,3.0,0.0
1169,67.0,24.0,90.0,1.0,0.0
1170,71.0,0.0,90.0,0.0,0.0
1171,42.0,60.0,60.0,3.0,0.0
1172,67.0,24.0,90.0,1.0,0.0
1173,71.0,0.0,90.0,0.0,0.0
1174,43.0,36.0,60.0,3.0,0.0
1175,42.0,60.0,60.0,3.0,0.0
1176,71.0,0.0,300.0,0.0,0.0
1177,67.0,12.0,300.0,1.0,0.0
1178,43.0,60.0,60.0,3.0,0.0
1179,42.0,60.0,60.0,3.0,0.0
1180,43.0,60.0,60.0,3.0,0.0
1181,42.0,48.0,60.0,3.0,0.0
1182,43.0,60.0,60.0,3.0,0.0
1183,45.0,60.0,60.0,3.0,0.0
1184,47.0,36.0,60.0,3.0,0.0
1185,62.0,0.0,90.0,1.0,0.0
1186,67.0,24.0,90.0,0.0,0.0
1187,43.0,60.0,60.0,3.0,0.0
1188,48.0,36.0,60.0,3.0,0.0
1189,64.0,0.0,90.0,2.0,0.0
1190,69.0,0.0,90.0,0.0,0.0
1191,67.0,24.0,90.0,1.0,0.0
1192,52.0,60.0,60.0,3.0,0.0
1193,64.0,0.0,90.0,2.0,0.0
1194,55.0,36.0,60.0,3.0,0.0
1195,67.0,24.0,90.0,1.0,0.0
1196,69.0,0.0,90.0,0.0,0.0
1197,60.0,60.0,60.0,3.0,0.0
1198,48.0,36.0,60.0,3.0,0.0
1199,69.0,0.0,90.0,0.0,0.0
1200,64.0,0.0,90.0,2.0,0.0
1201,67.0,24.0,90.0,1.0,0.0
1202,60.0,60.0,60.0,3.0,0.0
1203,50.0,36.0,60.0,3.0,0.0
1204,67.0,24.0,90.0,1.0,0.0
1205,71.0,0.0,90.0,0.0,0.0
1206,67.0,0.0,90.0,2.0,0.0
1207,62.0,60.0,60.0,3.0,0.0
1208,74.0,24.0,90.0,0.0,0.0
1209,52.0,36.0,60.0,3.0,0.0
1210,67.0,0.0,90.0,1.0,0.0
1211,64.0,24.0,60.0,3.0,0.0
1212,54.0,24.0,60.0,3.0,0.0
1213,74.0,30.0,20.0,0.0,0.0
1214,69.0,18.0,90.0,1.0,0.0
1215,72.0,6.0,20.0,0.0,0.0
1216,66.0,60.0,60.0,3.0,0.0
1217,71.0,12.0,20.0,0.0,0.0
1218,72.0,6.0,20.0,0.0,0.0
1219,71.0,0.0,90.0,0.0,0.0
1220,67.0,36.0,60.0,3.0,0.0
1221,71.0,24.0,90.0,1.0,0.0
1222,62.0,60.0,60.0,3.0,0.0
1223,59.0,42.0,60.0,3.0,0.0
1224,62.0,60.0,60.0,3.0,0.0
1225,71.0,15.0,15.0,0.0,0.0
1226,74.0,3.0,15.0,0.0,0.0
1227,55.0,60.0,60.0,3.0,0.0
1228,79.0,48.0,180.0,0.0,0.0
1229,57.0,60.0,60.0,3.0,0.0
1230,59.0,12.0,60.0,3.0,0.0
1231,60.0,60.0,60.0,3.0,0.0
1232,78.0,0.0,90.0,0.0,0.0
1233,69.0,24.0,90.0,1.0,0.0
1234,62.0,36.0,60.0,3.0,0.0
1235,60.0,24.0,60.0,3.0,0.0
1236,59.0,18.0,60.0,3.0,0.0
1237,84.0,36.0,20.0,0.0,0.0
1238,78.0,24.0,40.0,0.0,0.0
1239,57.0,60.0,60.0,3.0,0.0
1240,71.0,15.0,15.0,0.0,0.0
1241,74.0,3.0,15.0,0.0,0.0
1242,55.0,60.0,60.0,3.0,0.0
1243,79.0,48.0,180.0,0.0,0.0
1244,57.0,60.0,60.0,3.0,0.0
1245,59.0,12.0,60.0,3.0,0.0
1246,60.0,60.0,60.0,3.0,0.0
1247,78.0,24.0,90.0,0.0,0.0
1248,62.0,36.0,60.0,3.0,0.0
1249,69.0,0.0,90.0,1.0,0.0
1250,60.0,24.0,60.0,3.0,0.0
1251,59.0,42.0,60.0,3.0,0.0
1252,84.0,36.0,20.0,0.0,0.0
1253,78.0,18.0,60.0,0.0,0.0
1254,57.0,60.0,60.0,3.0,0.0
1255,55.0,36.0,60.0,3.0,0.0
1256,79.0,24.0,90.0,0.0,0.0
1257,57.0,60.0,60.0,3.0,0.0
1258,59.0,36.0,60.0,3.0,0.0
1259,71.0,24.0,90.0,1.0,0.0
1260,74.0,0.0,90.0,0.0,0.0
1261,55.0,60.0,60.0,3.0,0.0
1262,54.0,36.0,60.0,3.0,0.0
1263,69.0,0.0,90.0,1.0,0.0
1264,72.0,24.0,90.0,0.0,0.0
1265,50.0,60.0,60.0,3.0,0.0
1266,71.0,0.0,90.0,0.0,0.0
1267,55.0,36.0,60.0,3.0,0.0
1268,67.0,24.0,90.0,1.0,0.0
1269,59.0,60.0,60.0,3.0,0.0
1270,71.0,48.0,180.0,0.0,0.0
1271,50.0,60.0,60.0,3.0,0.0
1272,67.0,0.0,180.0,1.0,0.0
1273,62.0,60.0,60.0,3.0,0.0
1274,61.0,12.0,60.0,3.0,0.0
1275,62.0,60.0,60.0,3.0,0.0
1276,57.0,36.0,60.0,3.0,0.0
1277,66.0,24.0,90.0,1.0,0.0
1278,69.0,0.0,90.0,0.0,0.0
1279,62.0,60.0,60.0,3.0,0.0
1280,54.0,60.0,60.0,3.0,0.0
1281,57.0,60.0,60.0,3.0,0.0
1282,66.0,24.0,90.0,2.0,0.0
1283,50.0,36.0,60.0,3.0,0.0
1284,74.0,0.0,90.0,1.0,0.0
1285,49.0,60.0,60.0,3.0,0.0
1286,69.0,24.0,90.0,1.0,0.0
1287,50.0,36.0,60.0,3.0,0.0
1288,52.0,60.0,60.0,3.0,0.0
1289,66.0,24.0,90.0,2.0,0.0
1290,69.0,0.0,90.0,1.0,0.0
1291,54.0,36.0,60.0,3.0,0.0
1292,52.0,60.0,60.0,3.0,0.0
1293,69.0,24.0,90.0,2.0,0.0
1294,54.0,36.0,60.0,3.0,0.0
1295,72.0,0.0,90.0,1.0,0.0
1296,50.0,60.0,60.0,3.0,0.0
1297,69.0,48.0,180.0,2.0,0.0
1298,55.0,60.0,60.0,3.0,0.0
1299,72.0,0.0,180.0,1.0,0.0
1300,54.0,60.0,60.0,3.0,0.0
1301,55.0,12.0,60.0,3.0,0.0
1302,57.0,60.0,60.0,3.0,0.0
1303,59.0,36.0,60.0,3.0,0.0
1304,67.0,24.0,90.0,2.0,0.0
1305,71.0,0.0,90.0,1.0,0.0
1306,57.0,60.0,60.0,3.0,0.0
1307,59.0,36.0,60.0,3.0,0.0
1308,86.0,24.0,90.0,0.0,0.0
1309,55.0,60.0,60.0,3.0,0.0
1310,62.0,36.0,60.0,3.0,0.0
1311,86.0,0.0,90.0,0.0,0.0
1312,78.0,24.0,90.0,1.0,0.0
1313,61.0,60.0,60.0,3.0,0.0
1314,81.0,24.0,90.0,0.0,0.0
1315,62.0,36.0,60.0,3.0,0.0
1316,64.0,60.0,60.0,3.0,0.0
1317,66.0,36.0,60.0,3.0,0.0
1318,78.0,24.0,90.0,1.0,0.0
1319,81.0,0.0,90.0,0.0,0.0
1320,64.0,60.0,60.0,3.0,0.0
1321,84.0,24.0,90.0,0.0,0.0
1322,66.0,36.0,60.0,3.0,0.0
1323,81.0,0.0,90.0,1.0,0.0
1324,62.0,60.0,60.0,3.0,0.0
1325,84.0,0.0,180.0,0.0,0.0
1326,67.0,60.0,60.0,3.0,0.0
1327,81.0,48.0,180.0,1.0,0.0
1328,66.0,60.0,60.0,3.0,0.0
1329,67.0,12.0,60.0,3.0,0.0
1330,62.0,60.0,60.0,3.0,0.0
1331,59.0,36.0,60.0,3.0,0.0
1332,83.0,0.0,90.0,0.0,0.0
1333,79.0,24.0,90.0,1.0,0.0
1334,57.0,60.0,60.0,3.0,0.0
1335,59.0,36.0,60.0,3.0,0.0
1336,74.0,24.0,90.0,0.0,0.0
1337,55.0,60.0,60.0,3.0,0.0
1338,69.0,12.0,300.0,2.0,0.0
1339,79.0,24.0,90.0,0.0,0.0
1340,50.0,36.0,60.0,3.0,0.0
1341,72.0,24.0,390.0,1.0,0.0
1342,52.0,60.0,60.0,3.0,0.0
1343,78.0,48.0,180.0,0.0,0.0
1344,54.0,60.0,60.0,3.0,0.0
1345,55.0,48.0,60.0,3.0,0.0
1346,57.0,12.0,60.0,3.0,0.0
1347,59.0,24.0,60.0,3.0,0.0
1348,67.0,60.0,40.0,2.0,0.0
1349,76.0,0.0,40.0,0.0,0.0
1350,60.0,60.0,120.0,3.0,0.0
1351,66.0,12.0,40.0,2.0,0.0
1352,74.0,0.0,40.0,0.0,0.0
1353,79.0,24.0,90.0,0.0,0.0
1354,50.0,36.0,60.0,3.0,0.0
1355,69.0,12.0,300.0,2.0,0.0
1356,72.0,24.0,390.0,1.0,0.0
1357,52.0,60.0,60.0,3.0,0.0
1358,54.0,60.0,60.0,3.0,0.0
1359,78.0,48.0,180.0,0.0,0.0
1360,55.0,48.0,60.0,3.0,0.0
1361,57.0,12.0,60.0,3.0,0.0
1362,59.0,24.0,60.0,3.0,0.0
1363,67.0,0.0,40.0,2.0,0.0
1364,76.0,12.0,40.0,0.0,0.0
1365,60.0,48.0,60.0,3.0,0.0
1366,62.0,60.0,60.0,3.0,0.0
1367,66.0,12.0,40.0,2.0,0.0
1368,74.0,0.0,40.0,0.0,0.0
1369,67.0,24.0,390.0,2.0,0.0
1370,79.0,24.0,90.0,0.0,0.0
1371,59.0,36.0,60.0,3.0,0.0
1372,57.0,60.0,60.0,3.0,0.0
1373,59.0,36.0,60.0,3.0,0.0
1374,74.0,24.0,90.0,0.0,0.0
1375,55.0,48.0,60.0,3.0,0.0
1376,60.0,48.0,60.0,3.0,0.0
1377,78.0,12.0,40.0,0.0,0.0
1378,59.0,24.0,60.0,3.0,0.0
1379,76.0,12.0,40.0,0.0,0.0
1380,74.0,12.0,40.0,0.0,0.0
1381,60.0,48.0,60.0,3.0,0.0
1382,72.0,12.0,40.0,0.0,0.0
1383,57.0,60.0,60.0,3.0,0.0
1384,62.0,60.0,60.0,3.0,0.0
1385,67.0,0.0,180.0,2.0,0.0
1386,71.0,48.0,180.0,0.0,0.0
1387,59.0,60.0,60.0,3.0,0.0
1388,55.0,12.0,60.0,3.0,0.0
1389,59.0,60.0,60.0,3.0,0.0
1390,62.0,36.0,60.0,3.0,0.0
1391,66.0,24.0,180.0,2.0,0.0
1392,69.0,24.0,90.0,0.0,0.0
1393,50.0,60.0,60.0,3.0,0.0
1394,52.0,12.0,60.0,3.0,0.0
1395,74.0,24.0,90.0,0.0,0.0
1396,54.0,60.0,60.0,3.0,0.0
1397,55.0,60.0,60.0,3.0,0.0
1398,72.0,48.0,180.0,0.0,0.0
1399,69.0,0.0,180.0,1.0,0.0
1400,54.0,60.0,60.0,3.0,0.0
1401,55.0,12.0,60.0,3.0,0.0
1402,54.0,60.0,60.0,3.0,0.0
1403,55.0,36.0,60.0,3.0,0.0
1404,67.0,0.0,90.0,1.0,0.0
1405,71.0,24.0,90.0,0.0,0.0
1406,50.0,60.0,60.0,3.0,0.0
1407,74.0,24.0,90.0,0.0,0.0
1408,47.0,36.0,60.0,3.0,0.0
1409,43.0,60.0,60.0,3.0,0.0
1410,72.0,24.0,390.0,1.0,0.0
1411,38.0,36.0,60.0,3.0,0.0
1412,69.0,12.0,300.0,2.0,0.0
1413,79.0,24.0,90.0,0.0,0.0
1414,40.0,60.0,60.0,3.0,0.0
1415,78.0,48.0,180.0,0.0,0.0
1416,42.0,60.0,60.0,3.0,0.0
1417,43.0,48.0,60.0,3.0,0.0
1418,45.0,12.0,60.0,3.0,0.0
1419,47.0,24.0,60.0,3.0,0.0
1420,67.0,0.0,40.0,2.0,0.0
1421,76.0,60.0,40.0,0.0,0.0
1422,48.0,60.0,120.0,3.0,0.0
1423,66.0,0.0,40.0,2.0,0.0
1424,74.0,12.0,40.0,0.0,0.0
1425,69.0,12.0,300.0,2.0,0.0
1426,79.0,24.0,90.0,0.0,0.0
1427,38.0,36.0,60.0,3.0,0.0
1428,72.0,24.0,390.0,1.0,0.0
1429,40.0,60.0,60.0,3.0,0.0
1430,42.0,60.0,60.0,3.0,0.0
1431,78.0,48.0,180.0,0.0,0.0
1432,43.0,48.0,60.0,3.0,0.0
1433,45.0,12.0,60.0,3.0,0.0
1434,47.0,24.0,60.0,3.0,0.0
1435,76.0,0.0,40.0,0.0,0.0
1436,48.0,48.0,60.0,3.0,0.0
1437,67.0,12.0,40.0,2.0,0.0
1438,74.0,12.0,40.0,0.0,0.0
1439,66.0,0.0,40.0,2.0,0.0
1440,50.0,48.0,60.0,3.0,0.0
1441,79.0,12.0,40.0,0.0,0.0
1442,67.0,24.0,390.0,1.0,0.0
1443,47.0,48.0,60.0,3.0,0.0
1444,45.0,48.0,60.0,3.0,0.0
1445,78.0,12.0,40.0,0.0,0.0
1446,79.0,12.0,40.0,0.0,0.0
1447,47.0,48.0,60.0,3.0,0.0
1448,74.0,12.0,40.0,0.0,0.0
1449,43.0,48.0,60.0,3.0,0.0
1450,48.0,48.0,60.0,3.0,0.0
1451,76.0,12.0,40.0,0.0,0.0
1452,47.0,24.0,60.0,3.0,0.0
1453,75.0,12.0,40.0,0.0,0.0
1454,76.0,12.0,40.0,0.0,0.0
1455,48.0,48.0,60.0,3.0,0.0
1456,72.0,12.0,40.0,0.0,0.0
1457,52.0,60.0,60.0,3.0,0.0
1458,71.0,0.0,180.0,0.0,0.0
1459,50.0,60.0,60.0,3.0,0.0
1460,67.0,48.0,180.0,1.0,0.0
1461,47.0,60.0,60.0,3.0,0.0
1462,43.0,12.0,60.0,3.0,0.0
1463,47.0,60.0,60.0,3.0,0.0
1464,66.0,48.0,180.0,1.0,0.0
1465,69.0,0.0,180.0,0.0,0.0
1466,50.0,60.0,60.0,3.0,0.0
1467,49.0,60.0,60.0,3.0,0.0
1468,50.0,12.0,60.0,3.0,0.0
1469,38.0,60.0,60.0,3.0,0.0
1470,67.0,36.0,390.0,0.0,0.0
1471,43.0,60.0,60.0,3.0,0.0
1472,42.0,60.0,60.0,3.0,0.0
1473,43.0,60.0,60.0,3.0,0.0
1474,42.0,60.0,60.0,3.0,0.0
1475,43.0,60.0,60.0,3.0,0.0
1476,45.0,24.0,60.0,3.0,0.0
1477,47.0,60.0,60.0,3.0,0.0
1478,49.0,60.0,60.0,3.0,0.0
1479,74.0,0.0,90.0,1.0,0.0
1480,50.0,36.0,60.0,3.0,0.0
1481,66.0,24.0,90.0,2.0,0.0
1482,49.0,60.0,60.0,3.0,0.0
1483,69.0,24.0,90.0,1.0,0.0
1484,50.0,36.0,60.0,3.0,0.0
1485,52.0,60.0,60.0,3.0,0.0
1486,66.0,24.0,90.0,2.0,0.0
1487,54.0,36.0,60.0,3.0,0.0
1488,69.0,0.0,90.0,1.0,0.0
1489,52.0,60.0,60.0,3.0,0.0
1490,72.0,0.0,90.0,1.0,0.0
1491,69.0,24.0,90.0,2.0,0.0
1492,54.0,36.0,60.0,3.0,0.0
1493,50.0,60.0,60.0,3.0,0.0
1494,72.0,48.0,180.0,1.0,0.0
1495,55.0,60.0,60.0,3.0,0.0
1496,69.0,0.0,180.0,2.0,0.0
1497,54.0,60.0,60.0,3.0,0.0
1498,55.0,12.0,60.0,3.0,0.0
1499,57.0,60.0,60.0,3.0,0.0
1500,59.0,36.0,60.0,3.0,0.0
1501,67.0,24.0,90.0,2.0,0.0
1502,71.0,0.0,90.0,1.0,0.0
1503,57.0,60.0,60.0,3.0,0.0
1504,59.0,36.0,60.0,3.0,0.0
1505,86.0,24.0,90.0,0.0,0.0
1506,55.0,60.0,60.0,3.0,0.0
1507,62.0,36.0,60.0,3.0,0.0
1508,78.0,0.0,90.0,1.0,0.0
1509,86.0,24.0,90.0,0.0,0.0
1510,61.0,60.0,60.0,3.0,0.0
1511,62.0,36.0,60.0,3.0,0.0
1512,81.0,24.0,90.0,0.0,0.0
1513,64.0,60.0,60.0,3.0,0.0
1514,66.0,36.0,60.0,3.0,0.0
1515,78.0,0.0,90.0,1.0,0.0
1516,81.0,24.0,90.0,0.0,0.0
1517,64.0,60.0,60.0,3.0,0.0
1518,66.0,36.0,60.0,3.0,0.0
1519,81.0,24.0,90.0,1.0,0.0
1520,84.0,0.0,90.0,0.0,0.0
1521,62.0,60.0,60.0,3.0,0.0
1522,84.0,0.0,180.0,0.0,0.0
1523,81.0,48.0,180.0,1.0,0.0
1524,67.0,60.0,60.0,3.0,0.0
1525,66.0,60.0,60.0,3.0,0.0
1526,67.0,12.0,60.0,3.0,0.0
1527,62.0,60.0,60.0,3.0,0.0
1528,83.0,24.0,90.0,0.0,0.0
1529,59.0,36.0,60.0,3.0,0.0
1530,79.0,0.0,90.0,1.0,0.0
1531,57.0,60.0,60.0,3.0,0.0
1532,59.0,36.0,60.0,3.0,0.0
1533,74.0,24.0,90.0,0.0,0.0
1534,55.0,60.0,60.0,3.0,0.0
1535,79.0,24.0,90.0,0.0,0.0
1536,72.0,24.0,390.0,1.0,0.0
1537,50.0,36.0,60.0,3.0,0.0
1538,69.0,12.0,300.0,2.0,0.0
1539,52.0,60.0,60.0,3.0,0.0
1540,78.0,48.0,180.0,0.0,0.0
1541,54.0,60.0,60.0,3.0,0.0
1542,55.0,48.0,60.0,3.0,0.0
1543,57.0,12.0,60.0,3.0,0.0
1544,59.0,24.0,60.0,3.0,0.0
1545,76.0,60.0,40.0,0.0,0.0
1546,60.0,60.0,120.0,3.0,0.0
1547,67.0,0.0,40.0,2.0,0.0
1548,66.0,12.0,40.0,2.0,0.0
1549,74.0,0.0,40.0,0.0,0.0
1550,50.0,36.0,60.0,3.0,0.0
1551,69.0,12.0,300.0,2.0,0.0
1552,79.0,24.0,90.0,0.0,0.0
1553,72.0,24.0,390.0,1.0,0.0
1554,52.0,60.0,60.0,3.0,0.0
1555,54.0,60.0,60.0,3.0,0.0
1556,78.0,48.0,180.0,0.0,0.0
1557,55.0,48.0,60.0,3.0,0.0
1558,57.0,12.0,60.0,3.0,0.0
1559,59.0,24.0,60.0,3.0,0.0
1560,76.0,0.0,40.0,0.0,0.0
1561,67.0,12.0,40.0,2.0,0.0
1562,60.0,48.0,60.0,3.0,0.0
1563,66.0,0.0,40.0,2.0,0.0
1564,62.0,60.0,60.0,3.0,0.0
1565,74.0,12.0,40.0,0.0,0.0
1566,59.0,36.0,60.0,3.0,0.0
1567,79.0,24.0,90.0,0.0,0.0
1568,67.0,24.0,390.0,2.0,0.0
1569,57.0,60.0,60.0,3.0,0.0
1570,74.0,24.0,90.0,0.0,0.0
1571,59.0,36.0,60.0,3.0,0.0
1572,55.0,48.0,60.0,3.0,0.0
1573,60.0,48.0,60.0,3.0,0.0
1574,78.0,12.0,40.0,0.0,0.0
1575,76.0,12.0,40.0,0.0,0.0
1576,59.0,24.0,60.0,3.0,0.0
1577,74.0,12.0,40.0,0.0,0.0
1578,60.0,48.0,60.0,3.0,0.0
1579,57.0,60.0,60.0,3.0,0.0
1580,72.0,12.0,40.0,0.0,0.0
1581,62.0,60.0,60.0,3.0,0.0
1582,67.0,48.0,180.0,2.0,0.0
1583,71.0,0.0,180.0,0.0,0.0
1584,59.0,60.0,60.0,3.0,0.0
1585,55.0,12.0,60.0,3.0,0.0
1586,59.0,60.0,60.0,3.0,0.0
1587,66.0,24.0,180.0,2.0,0.0
1588,69.0,24.0,90.0,0.0,0.0
1589,62.0,36.0,60.0,3.0,0.0
1590,50.0,60.0,60.0,3.0,0.0
1591,52.0,12.0,60.0,3.0,0.0
1592,74.0,24.0,90.0,0.0,0.0
1593,54.0,60.0,60.0,3.0,0.0
1594,69.0,48.0,180.0,1.0,0.0
1595,55.0,60.0,60.0,3.0,0.0
1596,72.0,0.0,180.0,0.0,0.0
1597,54.0,60.0,60.0,3.0,0.0
1598,55.0,12.0,60.0,3.0,0.0
1599,54.0,60.0,60.0,3.0,0.0
1600,67.0,0.0,90.0,1.0,0.0
1601,55.0,36.0,60.0,3.0,0.0
1602,71.0,24.0,90.0,0.0,0.0
1603,50.0,60.0,60.0,3.0,0.0
1604,47.0,36.0,60.0,3.0,0.0
1605,74.0,24.0,90.0,0.0,0.0
1606,43.0,60.0,60.0,3.0,0.0
1607,79.0,24.0,90.0,0.0,0.0
1608,38.0,36.0,60.0,3.0,0.0
1609,72.0,24.0,390.0,1.0,0.0
1610,69.0,12.0,300.0,2.0,0.0
1611,40.0,60.0,60.0,3.0,0.0
1612,78.0,48.0,180.0,0.0,0.0
1613,42.0,60.0,60.0,3.0,0.0
1614,43.0,48.0,60.0,3.0,0.0
1615,45.0,12.0,60.0,3.0,0.0
1616,47.0,24.0,60.0,3.0,0.0
1617,76.0,60.0,40.0,0.0,0.0
1618,67.0,0.0,40.0,2.0,0.0
1619,48.0,60.0,120.0,3.0,0.0
1620,66.0,0.0,40.0,2.0,0.0
1621,74.0,12.0,40.0,0.0,0.0
1622,69.0,12.0,300.0,2.0,0.0
1623,79.0,24.0,90.0,0.0,0.0
1624,38.0,36.0,60.0,3.0,0.0
1625,72.0,24.0,390.0,1.0,0.0
1626,40.0,60.0,60.0,3.0,0.0
1627,42.0,60.0,60.0,3.0,0.0
1628,78.0,48.0,180.0,0.0,0.0
1629,43.0,48.0,60.0,3.0,0.0
1630,45.0,12.0,60.0,3.0,0.0
1631,47.0,24.0,60.0,3.0,0.0
1632,76.0,0.0,40.0,0.0,0.0
1633,48.0,48.0,60.0,3.0,0.0
1634,67.0,12.0,40.0,2.0,0.0
1635,74.0,12.0,40.0,0.0,0.0
1636,50.0,48.0,60.0,3.0,0.0
1637,66.0,0.0,40.0,2.0,0.0
1638,67.0,24.0,390.0,1.0,0.0
1639,79.0,12.0,40.0,0.0,0.0
1640,47.0,48.0,60.0,3.0,0.0
1641,78.0,12.0,40.0,0.0,0.0
1642,45.0,48.0,60.0,3.0,0.0
1643,47.0,48.0,60.0,3.0,0.0
1644,79.0,12.0,40.0,0.0,0.0
1645,43.0,48.0,60.0,3.0,0.0
1646,74.0,12.0,40.0,0.0,0.0
1647,76.0,12.0,40.0,0.0,0.0
1648,48.0,48.0,60.0,3.0,0.0
1649,47.0,24.0,60.0,3.0,0.0
1650,75.0,12.0,40.0,0.0,0.0
1651,48.0,48.0,60.0,3.0,0.0
1652,76.0,12.0,40.0,0.0,0.0
1653,52.0,60.0,60.0,3.0,0.0
1654,72.0,12.0,40.0,0.0,0.0
1655,67.0,0.0,180.0,1.0,0.0
1656,50.0,60.0,60.0,3.0,0.0
1657,71.0,48.0,180.0,0.0,0.0
1658,47.0,60.0,60.0,3.0,0.0
1659,43.0,12.0,60.0,3.0,0.0
1660,47.0,60.0,60.0,3.0,0.0
1661,50.0,60.0,60.0,3.0,0.0
1662,66.0,48.0,180.0,1.0,0.0
1663,69.0,0.0,180.0,0.0,0.0
1664,49.0,60.0,60.0,3.0,0.0
1665,50.0,12.0,60.0,3.0,0.0
1666,38.0,60.0,60.0,3.0,0.0
1667,67.0,48.0,180.0,0.0,0.0
1668,43.0,60.0,60.0,3.0,0.0
1669,47.0,60.0,60.0,3.0,0.0
1670,50.0,12.0,60.0,3.0,0.0
1671,55.0,120.0,60.0,3.0,0.0
1672,43.0,240.0,120.0,3.0,0.0
1673,71.0,0.0,180.0,1.0,0.0
1674,67.0,8.0,180.0,2.0,0.0
1675,86.0,15.0,30.0,0.0,0.0
1676,86.0,15.0,15.0,0.0,0.0
1677,88.0,15.0,15.0,0.0,0.0
1678,86.0,15.0,15.0,0.0,0.0
1679,88.0,10.0,15.0,0.0,0.0
1680,86.0,2.0,15.0,0.0,0.0
1681,88.0,10.0,15.0,0.0,0.0
1682,86.0,15.0,15.0,0.0,0.0
1683,85.0,15.0,15.0,0.0,0.0
1684,86.0,120.0,15.0,0.0,0.0
1685,91.0,48.0,120.0,0.0,0.0
1686,71.0,0.0,90.0,1.0,0.0
1687,67.0,144.0,90.0,2.0,0.0
1688,86.0,48.0,40.0,0.0,0.0
1689,74.0,8.0,180.0,1.0,0.0
1690,67.0,0.0,180.0,2.0,0.0
1691,83.0,15.0,30.0,0.0,0.0
1692,83.0,15.0,15.0,0.0,0.0
1693,84.0,15.0,15.0,0.0,0.0
1694,83.0,15.0,15.0,0.0,0.0
1695,84.0,10.0,15.0,0.0,0.0
1696,83.0,2.0,15.0,0.0,0.0
1697,84.0,10.0,15.0,0.0,0.0
1698,83.0,15.0,15.0,0.0,0.0
1699,82.0,15.0,15.0,0.0,0.0
1700,83.0,120.0,15.0,0.0,0.0
1701,86.0,48.0,120.0,0.0,0.0
1702,74.0,144.0,90.0,1.0,0.0
1703,79.0,48.0,40.0,0.0,0.0
1704,71.0,0.0,90.0,2.0,0.0
1705,76.0,0.0,180.0,1.0,0.0
1706,72.0,8.0,180.0,2.0,0.0
1707,81.0,15.0,30.0,0.0,0.0
1708,81.0,15.0,15.0,0.0,0.0
1709,83.0,15.0,15.0,0.0,0.0
1710,81.0,15.0,15.0,0.0,0.0
1711,83.0,10.0,15.0,0.0,0.0
1712,81.0,2.0,15.0,0.0,0.0
1713,83.0,10.0,15.0,0.0,0.0
1714,81.0,15.0,15.0,0.0,0.0
1715,80.0,12.0,15.0,0.0,0.0
1716,81.0,117.0,15.0,0.0,0.0
1717,78.0,6.0,180.0,1.0,0.0
1718,74.0,0.0,180.0,2.0,0.0
1719,83.0,18.0,20.0,0.0,0.0
1720,83.0,15.0,15.0,0.0,0.0
1721,84.0,15.0,15.0,0.0,0.0
1722,83.0,15.0,15.0,0.0,0.0
1723,84.0,11.0,15.0,0.0,0.0
1724,83.0,4.0,15.0,0.0,0.0
1725,84.0,10.0,15.0,0.0,0.0
1726,83.0,14.0,15.0,0.0,0.0
1727,82.0,15.0,15.0,0.0,0.0
1728,83.0,75.0,15.0,0.0,0.0
1729,76.0,0.0,90.0,2.0,0.0
1730,79.0,6.0,90.0,1.0,0.0
1731,84.0,15.0,15.0,0.0,0.0
1732,86.0,9.0,15.0,0.0,0.0
1733,84.0,15.0,15.0,0.0,0.0
1734,83.0,27.0,15.0,0.0,0.0
1735,88.0,60.0,20.0,0.0,0.0
1736,81.0,72.0,90.0,1.0,0.0
1737,78.0,0.0,90.0,2.0,0.0
1738,84.0,12.0,20.0,0.0,0.0
1739,84.0,24.0,40.0,0.0,0.0
1740,79.0,6.0,90.0,1.0,0.0
1741,83.0,24.0,15.0,0.0,0.0
1742,81.0,15.0,15.0,0.0,0.0
1743,83.0,51.0,15.0,0.0,0.0
1744,81.0,60.0,40.0,0.0,0.0
1745,79.0,126.0,40.0,0.0,0.0
1746,74.0,0.0,180.0,1.0,0.0
1747,71.0,6.0,180.0,2.0,0.0
1748,91.0,18.0,20.0,0.0,0.0
1749,91.0,15.0,15.0,0.0,0.0
1750,93.0,15.0,15.0,0.0,0.0
1751,91.0,15.0,15.0,0.0,0.0
1752,93.0,11.0,15.0,0.0,0.0
1753,91.0,4.0,15.0,0.0,0.0
1754,93.0,10.0,15.0,0.0,0.0
1755,91.0,14.0,15.0,0.0,0.0
1756,90.0,15.0,15.0,0.0,0.0
1757,91.0,51.0,15.0,0.0,0.0
1758,74.0,0.0,180.0,1.0,0.0
1759,90.0,66.0,40.0,0.0,0.0
1760,72.0,6.0,180.0,2.0,0.0
1761,78.0,18.0,20.0,0.0,0.0
1762,78.0,15.0,15.0,0.0,0.0
1763,79.0,15.0,15.0,0.0,0.0
1764,78.0,15.0,15.0,0.0,0.0
1765,79.0,11.0,15.0,0.0,0.0
1766,78.0,4.0,15.0,0.0,0.0
1767,79.0,10.0,15.0,0.0,0.0
1768,78.0,14.0,15.0,0.0,0.0
1769,76.0,15.0,15.0,0.0,0.0
1770,78.0,51.0,15.0,0.0,0.0
1771,74.0,0.0,180.0,1.0,0.0
1772,71.0,6.0,180.0,2.0,0.0
1773,79.0,66.0,40.0,0.0,0.0
1774,91.0,18.0,20.0,0.0,0.0
1775,91.0,15.0,15.0,0.0,0.0
1776,93.0,15.0,15.0,0.0,0.0
1777,91.0,15.0,15.0,0.0,0.0
1778,93.0,11.0,15.0,0.0,0.0
1779,91.0,4.0,15.0,0.0,0.0
1780,93.0,10.0,15.0,0.0,0.0
1781,91.0,14.0,15.0,0.0,0.0
1782,90.0,15.0,15.0,0.0,0.0
1783,91.0,51.0,15.0,0.0,0.0
1784,90.0,66.0,40.0,0.0,0.0
1785,72.0,6.0,180.0,2.0,0.0
1786,74.0,0.0,180.0,1.0,0.0
1787,78.0,18.0,20.0,0.0,0.0
1788,78.0,15.0,15.0,0.0,0.0
1789,79.0,15.0,15.0,0.0,0.0
1790,78.0,15.0,15.0,0.0,0.0
1791,79.0,11.0,15.0,0.0,0.0
1792,78.0,4.0,15.0,0.0,0.0
1793,79.0,10.0,15.0,0.0,0.0
1794,78.0,14.0,15.0,0.0,0.0
1795,76.0,15.0,15.0,0.0,0.0
1796,78.0,51.0,15.0,0.0,0.0
1797,79.0,60.0,40.0,0.0,0.0
1798,71.0,24.0,120.0,2.0,0.0
1799,74.0,0.0,300.0,1.0,0.0
1800,83.0,12.0,40.0,0.0,0.0
1801,86.0,60.0,20.0,0.0,0.0
1802,67.0,48.0,120.0,2.0,0.0
1803,86.0,36.0,20.0,0.0,0.0
1804,86.0,60.0,40.0,0.0,0.0
1805,66.0,48.0,120.0,2.0,0.0
1806,85.0,12.0,40.0,0.0,0.0
1807,84.0,48.0,40.0,0.0,0.0
1808,74.0,12.0,90.0,1.0,0.0
1809,67.0,144.0,120.0,2.0,0.0
1810,83.0,12.0,40.0,0.0,0.0
1811,67.0,36.0,180.0,1.0,0.0
1812,86.0,48.0,150.0,0.0,0.0
1813,62.0,258.0,330.0,2.0,0.0
1814,83.0,108.0,40.0,0.0,0.0
1815,66.0,0.0,90.0,1.0,0.0
1816,81.0,0.0,90.0,0.0,0.0
1817,67.0,0.0,180.0,2.0,0.0
1818,71.0,6.0,180.0,1.0,0.0
1819,86.0,18.0,20.0,0.0,0.0
1820,86.0,15.0,15.0,0.0,0.0
1821,88.0,15.0,15.0,0.0,0.0
1822,86.0,15.0,15.0,0.0,0.0
1823,88.0,11.0,15.0,0.0,0.0
1824,86.0,4.0,15.0,0.0,0.0
1825,88.0,10.0,15.0,0.0,0.0
1826,86.0,14.0,15.0,0.0,0.0
1827,85.0,15.0,15.0,0.0,0.0
1828,86.0,123.0,15.0,0.0,0.0
1829,91.0,54.0,120.0,0.0,0.0
1830,71.0,0.0,90.0,1.0,0.0
1831,67.0,138.0,90.0,2.0,0.0
1832,86.0,42.0,60.0,0.0,0.0
1833,67.0,6.0,180.0,2.0,0.0
1834,74.0,0.0,180.0,1.0,0.0
1835,83.0,18.0,20.0,0.0,0.0
1836,83.0,15.0,15.0,0.0,0.0
1837,84.0,15.0,15.0,0.0,0.0
1838,83.0,15.0,15.0,0.0,0.0
1839,84.0,11.0,15.0,0.0,0.0
1840,83.0,4.0,15.0,0.0,0.0
1841,84.0,10.0,15.0,0.0,0.0
1842,83.0,14.0,15.0,0.0,0.0
1843,82.0,15.0,15.0,0.0,0.0
1844,83.0,123.0,15.0,0.0,0.0
1845,86.0,48.0,120.0,0.0,0.0
1846,74.0,0.0,90.0,1.0,0.0
1847,79.0,48.0,40.0,0.0,0.0
1848,71.0,138.0,90.0,2.0,0.0
1849,76.0,6.0,180.0,1.0,0.0
1850,72.0,0.0,180.0,2.0,0.0
1851,81.0,18.0,20.0,0.0,0.0
1852,81.0,15.0,15.0,0.0,0.0
1853,83.0,15.0,15.0,0.0,0.0
1854,81.0,15.0,15.0,0.0,0.0
1855,83.0,11.0,15.0,0.0,0.0
1856,81.0,4.0,15.0,0.0,0.0
1857,83.0,10.0,15.0,0.0,0.0
1858,81.0,14.0,15.0,0.0,0.0
1859,80.0,15.0,15.0,0.0,0.0
1860,81.0,117.0,15.0,0.0,0.0
1861,74.0,0.0,180.0,2.0,0.0
1862,78.0,6.0,180.0,1.0,0.0
1863,83.0,18.0,20.0,0.0,0.0
1864,83.0,15.0,15.0,0.0,0.0
1865,84.0,15.0,15.0,0.0,0.0
1866,83.0,15.0,15.0,0.0,0.0
1867,84.0,11.0,15.0,0.0,0.0
1868,83.0,4.0,15.0,0.0,0.0
1869,84.0,10.0,15.0,0.0,0.0
1870,83.0,14.0,15.0,0.0,0.0
1871,82.0,15.0,15.0,0.0,0.0
1872,83.0,75.0,15.0,0.0,0.0
1873,79.0,0.0,90.0,1.0,0.0
1874,76.0,6.0,90.0,2.0,0.0
1875,84.0,15.0,15.0,0.0,0.0
1876,86.0,9.0,15.0,0.0,0.0
1877,84.0,15.0,15.0,0.0,0.0
1878,83.0,27.0,15.0,0.0,0.0
1879,81.0,72.0,90.0,1.0,0.0
1880,88.0,60.0,20.0,0.0,0.0
1881,78.0,0.0,90.0,2.0,0.0
1882,84.0,12.0,20.0,0.0,0.0
1883,84.0,24.0,40.0,0.0,0.0
1884,79.0,6.0,90.0,1.0,0.0
1885,83.0,24.0,15.0,0.0,0.0
1886,81.0,15.0,15.0,0.0,0.0
1887,83.0,51.0,15.0,0.0,0.0
1888,81.0,60.0,40.0,0.0,0.0
1889,79.0,126.0,40.0,0.0,0.0
1890,71.0,6.0,180.0,2.0,0.0
1891,74.0,0.0,180.0,1.0,0.0
1892,91.0,18.0,20.0,0.0,0.0
1893,91.0,15.0,15.0,0.0,0.0
1894,93.0,15.0,15.0,0.0,0.0
1895,91.0,15.0,15.0,0.0,0.0
1896,93.0,11.0,15.0,0.0,0.0
1897,91.0,4.0,15.0,0.0,0.0
1898,93.0,10.0,15.0,0.0,0.0
1899,91.0,14.0,15.0,0.0,0.0
1900,90.0,15.0,15.0,0.0,0.0
1901,91.0,51.0,15.0,0.0,0.0
1902,72.0,0.0,180.0,2.0,0.0
1903,90.0,66.0,40.0,0.0,0.0
1904,74.0,6.0,180.0,1.0,0.0
1905,78.0,18.0,20.0,0.0,0.0
1906,78.0,15.0,15.0,0.0,0.0
1907,79.0,15.0,15.0,0.0,0.0
1908,78.0,15.0,15.0,0.0,0.0
1909,79.0,11.0,15.0,0.0,0.0
1910,78.0,4.0,15.0,0.0,0.0
1911,79.0,10.0,15.0,0.0,0.0
1912,78.0,14.0,15.0,0.0,0.0
1913,76.0,15.0,15.0,0.0,0.0
1914,78.0,51.0,15.0,0.0,0.0
1915,79.0,66.0,40.0,0.0,0.0
1916,71.0,0.0,180.0,2.0,0.0
1917,74.0,6.0,180.0,1.0,0.0
1918,91.0,18.0,20.0,0.0,0.0
1919,91.0,15.0,15.0,0.0,0.0
1920,93.0,15.0,15.0,0.0,0.0
1921,91.0,15.0,15.0,0.0,0.0
1922,93.0,11.0,15.0,0.0,0.0
1923,91.0,4.0,15.0,0.0,0.0
1924,93.0,10.0,15.0,0.0,0.0
1925,91.0,14.0,15.0,0.0,0.0
1926,90.0,15.0,15.0,0.0,0.0
1927,91.0,51.0,15.0,0.0,0.0
1928,72.0,6.0,180.0,2.0,0.0
1929,90.0,66.0,40.0,0.0,0.0
1930,74.0,0.0,180.0,1.0,0.0
1931,78.0,18.0,20.0,0.0,0.0
1932,78.0,15.0,15.0,0.0,0.0
1933,79.0,15.0,15.0,0.0,0.0
1934,78.0,15.0,15.0,0.0,0.0
1935,79.0,11.0,15.0,0.0,0.0
1936,78.0,4.0,15.0,0.0,0.0
1937,79.0,10.0,15.0,0.0,0.0
1938,78.0,14.0,15.0,0.0,0.0
1939,76.0,15.0,15.0,0.0,0.0
1940,78.0,51.0,15.0,0.0,0.0
1941,79.0,48.0,40.0,0.0,0.0
1942,74.0,48.0,300.0,1.0,0.0
1943,71.0,12.0,90.0,2.0,0.0
1944,83.0,60.0,40.0,0.0,0.0
1945,67.0,12.0,90.0,2.0,0.0
1946,86.0,48.0,40.0,0.0,0.0
1947,86.0,60.0,40.0,0.0,0.0
1948,66.0,12.0,90.0,2.0,0.0
1949,86.0,0.0,40.0,0.0,0.0
1950,85.0,60.0,40.0,0.0,0.0
1951,84.0,48.0,40.0,0.0,0.0
1952,67.0,0.0,90.0,2.0,0.0
1953,74.0,12.0,90.0,1.0,0.0
1954,83.0,156.0,40.0,0.0,0.0
1955,86.0,48.0,150.0,0.0,0.0
1956,67.0,36.0,180.0,1.0,0.0
1957,62.0,0.0,330.0,2.0,0.0
1958,83.0,108.0,40.0,0.0,0.0
1959,81.0,0.0,90.0,0.0,0.0
1960,66.0,216.0,90.0,1.0,0.0
1961,62.0,6.0,90.0,2.0,0.0
1962,62.0,12.0,390.0,3.0,0.0
1963,83.0,15.0,15.0,0.0,0.0
1964,81.0,9.0,15.0,0.0,0.0
1965,80.0,15.0,15.0,0.0,0.0
1966,81.0,51.0,15.0,0.0,0.0
1967,69.0,6.0,90.0,2.0,0.0
1968,84.0,24.0,40.0,0.0,0.0
1969,79.0,15.0,15.0,0.0,0.0
1970,78.0,9.0,15.0,0.0,0.0
1971,76.0,15.0,15.0,0.0,0.0
1972,78.0,51.0,15.0,0.0,0.0
1973,81.0,48.0,40.0,0.0,0.0
1974,66.0,48.0,90.0,2.0,0.0
1975,74.0,60.0,90.0,0.0,0.0
1976,62.0,12.0,90.0,2.0,0.0
1977,72.0,36.0,40.0,0.0,0.0
1978,55.0,24.0,390.0,3.0,0.0
1979,71.0,30.0,20.0,0.0,0.0
1980,55.0,18.0,90.0,2.0,0.0
1981,74.0,30.0,20.0,0.0,0.0
1982,76.0,12.0,20.0,0.0,0.0
1983,78.0,30.0,20.0,0.0,0.0
1984,79.0,30.0,20.0,0.0,0.0
1985,62.0,18.0,90.0,2.0,0.0
1986,81.0,30.0,20.0,0.0,0.0
1987,83.0,12.0,20.0,0.0,0.0
1988,84.0,30.0,20.0,0.0,0.0
1989,59.0,18.0,90.0,2.0,0.0
1990,86.0,30.0,20.0,0.0,0.0
1991,88.0,30.0,20.0,0.0,0.0
1992,90.0,12.0,20.0,0.0,0.0
1993,91.0,30.0,20.0,0.0,0.0
1994,55.0,96.0,90.0,2.0,0.0
1995,86.0,48.0,40.0,0.0,0.0
1996,50.0,6.0,90.0,2.0,0.0
1997,50.0,12.0,390.0,3.0,0.0
1998,83.0,15.0,15.0,0.0,0.0
1999,81.0,9.0,15.0,0.0,0.0
2000,80.0,15.0,15.0,0.0,0.0
2001,81.0,51.0,15.0,0.0,0.0
2002,84.0,24.0,40.0,0.0,0.0
2003,57.0,6.0,90.0,2.0,0.0
2004,79.0,15.0,15.0,0.0,0.0
2005,78.0,9.0,15.0,0.0,0.0
2006,76.0,15.0,15.0,0.0,0.0
2007,78.0,51.0,15.0,0.0,0.0
2008,81.0,48.0,40.0,0.0,0.0
2009,54.0,48.0,90.0,2.0,0.0
2010,74.0,60.0,90.0,0.0,0.0
2011,50.0,12.0,90.0,2.0,0.0
2012,72.0,36.0,40.0,0.0,0.0
2013,43.0,24.0,390.0,3.0,0.0
2014,43.0,18.0,90.0,2.0,0.0
2015,71.0,30.0,20.0,0.0,0.0
2016,74.0,30.0,20.0,0.0,0.0
2017,72.0,12.0,20.0,0.0,0.0
2018,71.0,30.0,20.0,0.0,0.0
2019,72.0,30.0,20.0,0.0,0.0
2020,50.0,18.0,90.0,2.0,0.0
2021,74.0,30.0,20.0,0.0,0.0
2022,76.0,12.0,20.0,0.0,0.0
2023,78.0,30.0,20.0,0.0,0.0
2024,79.0,30.0,20.0,0.0,0.0
2025,47.0,18.0,90.0,2.0,0.0
2026,81.0,30.0,20.0,0.0,0.0
2027,83.0,12.0,20.0,0.0,0.0
2028,84.0,30.0,20.0,0.0,0.0
2029,43.0,12.0,90.0,2.0,0.0
2030,86.0,48.0,40.0,0.0,0.0
2031,79.0,36.0,40.0,0.0,0.0
2032,78.0,30.0,20.0,0.0,0.0
2033,72.0,36.0,180.0,1.0,0.0
2034,69.0,0.0,180.0,2.0,0.0
2035,62.0,24.0,150.0,3.0,0.0
2036,79.0,30.0,20.0,0.0,0.0
2037,81.0,30.0,20.0,0.0,0.0
2038,83.0,30.0,20.0,0.0,0.0
2039,84.0,24.0,40.0,0.0,0.0
2040,63.0,0.0,40.0,3.0,0.0
2041,79.0,36.0,40.0,0.0,0.0
2042,78.0,30.0,20.0,0.0,0.0
2043,72.0,0.0,180.0,1.0,0.0
2044,69.0,36.0,180.0,2.0,0.0
2045,62.0,24.0,150.0,3.0,0.0
2046,79.0,30.0,20.0,0.0,0.0
2047,81.0,30.0,20.0,0.0,0.0
2048,83.0,30.0,20.0,0.0,0.0
2049,84.0,24.0,40.0,0.0,0.0
2050,79.0,0.0,40.0,0.0,0.0
2051,63.0,36.0,40.0,3.0,0.0
2052,78.0,30.0,20.0,0.0,0.0
2053,72.0,36.0,180.0,1.0,0.0
2054,69.0,0.0,180.0,2.0,0.0
2055,62.0,24.0,150.0,3.0,0.0
2056,79.0,30.0,20.0,0.0,0.0
2057,81.0,30.0,20.0,0.0,0.0
2058,83.0,30.0,20.0,0.0,0.0
2059,84.0,24.0,40.0,0.0,0.0
2060,63.0,36.0,40.0,3.0,0.0
2061,79.0,0.0,40.0,0.0,0.0
2062,69.0,24.0,150.0,2.0,0.0
2063,62.0,0.0,150.0,3.0,0.0
2064,72.0,0.0,150.0,1.0,0.0
2065,78.0,30.0,20.0,0.0,0.0
2066,79.0,30.0,20.0,0.0,0.0
2067,81.0,30.0,20.0,0.0,0.0
2068,83.0,30.0,20.0,0.0,0.0
2069,84.0,60.0,40.0,0.0,0.0
2070,60.0,0.0,40.0,3.0,0.0
2071,69.0,84.0,40.0,1.0,0.0
2072,78.0,0.0,40.0,0.0,0.0
2073,62.0,0.0,40.0,2.0,0.0
2074,62.0,6.0,90.0,2.0,0.0
2075,67.0,0.0,90.0,1.0,0.0
2076,59.0,0.0,90.0,3.0,0.0
2077,81.0,15.0,15.0,0.0,0.0
2078,79.0,9.0,15.0,0.0,0.0
2079,78.0,15.0,15.0,0.0,0.0
2080,79.0,27.0,15.0,0.0,0.0
2081,83.0,60.0,20.0,0.0,0.0
2082,74.0,108.0,20.0,0.0,0.0
2083,64.0,0.0,90.0,2.0,0.0
2084,60.0,0.0,90.0,3.0,0.0
2085,67.0,6.0,90.0,1.0,0.0
2086,78.0,15.0,15.0,0.0,0.0
2087,76.0,9.0,15.0,0.0,0.0
2088,75.0,15.0,15.0,0.0,0.0
2089,76.0,27.0,15.0,0.0,0.0
2090,79.0,60.0,20.0,0.0,0.0
2091,72.0,108.0,20.0,0.0,0.0
2092,50.0,24.0,390.0,3.0,0.0
2093,72.0,15.0,15.0,0.0,0.0
2094,71.0,15.0,15.0,0.0,0.0
2095,70.0,15.0,15.0,0.0,0.0
2096,71.0,51.0,15.0,0.0,0.0
2097,62.0,12.0,90.0,1.0,0.0
2098,59.0,0.0,90.0,2.0,0.0
2099,74.0,48.0,40.0,0.0,0.0
2100,67.0,84.0,40.0,0.0,0.0
2101,60.0,0.0,90.0,2.0,0.0
2102,62.0,6.0,90.0,1.0,0.0
2103,71.0,15.0,15.0,0.0,0.0
2104,69.0,9.0,15.0,0.0,0.0
2105,68.0,15.0,15.0,0.0,0.0
2106,69.0,27.0,15.0,0.0,0.0
2107,57.0,0.0,90.0,2.0,0.0
2108,72.0,48.0,40.0,0.0,0.0
2109,62.0,12.0,90.0,1.0,0.0
2110,66.0,66.0,40.0,0.0,0.0
2111,55.0,18.0,90.0,3.0,0.0
2112,62.0,0.0,90.0,1.0,0.0
2113,59.0,0.0,90.0,2.0,0.0
2114,67.0,30.0,20.0,0.0,0.0
2115,69.0,12.0,20.0,0.0,0.0
2116,71.0,30.0,20.0,0.0,0.0
2117,72.0,30.0,20.0,0.0,0.0
2118,74.0,30.0,20.0,0.0,0.0
2119,76.0,30.0,20.0,0.0,0.0
2120,78.0,30.0,20.0,0.0,0.0
2121,79.0,30.0,20.0,0.0,0.0
2122,81.0,30.0,20.0,0.0,0.0
2123,83.0,30.0,20.0,0.0,0.0
2124,84.0,30.0,20.0,0.0,0.0
2125,86.0,30.0,20.0,0.0,0.0
2126,83.0,30.0,20.0,0.0,0.0
2127,81.0,30.0,20.0,0.0,0.0
2128,79.0,30.0,20.0,0.0,0.0
2129,69.0,12.0,180.0,2.0,0.0
2130,78.0,30.0,20.0,0.0,0.0
2131,72.0,0.0,180.0,1.0,0.0
2132,62.0,0.0,150.0,3.0,0.0
2133,79.0,30.0,20.0,0.0,0.0
2134,81.0,30.0,20.0,0.0,0.0
2135,83.0,30.0,20.0,0.0,0.0
2136,84.0,30.0,20.0,0.0,0.0
2137,83.0,18.0,20.0,0.0,0.0
2138,81.0,24.0,20.0,0.0,0.0
2139,63.0,6.0,40.0,3.0,0.0
2140,79.0,30.0,20.0,0.0,0.0
2141,72.0,0.0,180.0,1.0,0.0
2142,78.0,30.0,20.0,0.0,0.0
2143,62.0,0.0,150.0,3.0,0.0
2144,69.0,12.0,180.0,2.0,0.0
2145,79.0,30.0,20.0,0.0,0.0
2146,81.0,30.0,20.0,0.0,0.0
2147,83.0,30.0,20.0,0.0,0.0
2148,84.0,30.0,20.0,0.0,0.0
2149,83.0,18.0,20.0,0.0,0.0
2150,81.0,24.0,20.0,0.0,0.0
2151,63.0,6.0,40.0,3.0,0.0
2152,79.0,30.0,20.0,0.0,0.0
2153,62.0,0.0,150.0,3.0,0.0
2154,69.0,0.0,180.0,2.0,0.0
2155,72.0,12.0,180.0,1.0,0.0
2156,78.0,30.0,20.0,0.0,0.0
2157,79.0,30.0,20.0,0.0,0.0
2158,81.0,30.0,20.0,0.0,0.0
2159,83.0,30.0,20.0,0.0,0.0
2160,84.0,30.0,20.0,0.0,0.0
2161,83.0,18.0,20.0,0.0,0.0
2162,81.0,24.0,20.0,0.0,0.0
2163,63.0,6.0,40.0,3.0,0.0
2164,79.0,30.0,20.0,0.0,0.0
2165,69.0,0.0,150.0,2.0,0.0
2166,72.0,0.0,150.0,1.0,0.0
2167,78.0,30.0,20.0,0.0,0.0
2168,62.0,0.0,150.0,3.0,0.0
2169,79.0,30.0,20.0,0.0,0.0
2170,81.0,30.0,20.0,0.0,0.0
2171,83.0,30.0,20.0,0.0,0.0
2172,84.0,30.0,20.0,0.0,0.0
2173,81.0,30.0,20.0,0.0,0.0
2174,60.0,6.0,40.0,3.0,0.0
2175,79.0,24.0,20.0,0.0,0.0
2176,69.0,0.0,40.0,1.0,0.0
2177,62.0,0.0,40.0,2.0,0.0
2178,78.0,78.0,20.0,0.0,0.0
2179,67.0,0.0,90.0,1.0,0.0
2180,62.0,6.0,90.0,2.0,0.0
2181,59.0,0.0,90.0,3.0,0.0
2182,81.0,15.0,15.0,0.0,0.0
2183,79.0,9.0,15.0,0.0,0.0
2184,78.0,15.0,15.0,0.0,0.0
2185,79.0,27.0,15.0,0.0,0.0
2186,83.0,60.0,20.0,0.0,0.0
2187,75.0,108.0,20.0,0.0,0.0
2188,60.0,0.0,90.0,3.0,0.0
2189,67.0,6.0,90.0,1.0,0.0
2190,64.0,0.0,90.0,2.0,0.0
2191,78.0,15.0,15.0,0.0,0.0
2192,76.0,9.0,15.0,0.0,0.0
2193,75.0,15.0,15.0,0.0,0.0
2194,76.0,27.0,15.0,0.0,0.0
2195,79.0,60.0,20.0,0.0,0.0
2196,72.0,108.0,20.0,0.0,0.0
2197,50.0,24.0,390.0,3.0,0.0
2198,72.0,15.0,15.0,0.0,0.0
2199,71.0,15.0,15.0,0.0,0.0
2200,70.0,15.0,15.0,0.0,0.0
2201,71.0,51.0,15.0,0.0,0.0
2202,74.0,48.0,40.0,0.0,0.0
2203,59.0,0.0,90.0,2.0,0.0
2204,62.0,12.0,90.0,1.0,0.0
2205,68.0,84.0,40.0,0.0,0.0
2206,62.0,0.0,90.0,1.0,0.0
2207,60.0,6.0,90.0,2.0,0.0
2208,71.0,15.0,15.0,0.0,0.0
2209,69.0,9.0,15.0,0.0,0.0
2210,68.0,15.0,15.0,0.0,0.0
2211,69.0,27.0,15.0,0.0,0.0
2212,72.0,48.0,40.0,0.0,0.0
2213,62.0,0.0,90.0,1.0,0.0
2214,57.0,12.0,90.0,2.0,0.0
2215,66.0,108.0,40.0,0.0,0.0
2216,55.0,96.0,90.0,3.0,0.0
2217,66.0,0.0,180.0,0.0,0.0
2218,60.0,24.0,180.0,2.0,0.0
2219,62.0,0.0,180.0,1.0,0.0
2220,57.0,0.0,180.0,2.0,0.0
2221,50.0,120.0,90.0,3.0,0.0
2222,67.0,0.0,90.0,0.0,0.0
2223,43.0,0.0,90.0,3.0,0.0
2224,59.0,0.0,90.0,2.0,0.0
2225,62.0,216.0,90.0,1.0,0.0
2226,62.0,6.0,90.0,2.0,0.0
2227,62.0,12.0,390.0,3.0,0.0
2228,83.0,15.0,15.0,0.0,0.0
2229,81.0,9.0,15.0,0.0,0.0
2230,80.0,15.0,15.0,0.0,0.0
2231,81.0,51.0,15.0,0.0,0.0
2232,69.0,6.0,90.0,2.0,0.0
2233,84.0,24.0,40.0,0.0,0.0
2234,79.0,15.0,15.0,0.0,0.0
2235,78.0,9.0,15.0,0.0,0.0
2236,76.0,15.0,15.0,0.0,0.0
2237,78.0,51.0,15.0,0.0,0.0
2238,81.0,48.0,40.0,0.0,0.0
2239,66.0,48.0,90.0,2.0,0.0
2240,74.0,60.0,90.0,0.0,0.0
2241,62.0,12.0,90.0,2.0,0.0
2242,72.0,36.0,40.0,0.0,0.0
2243,71.0,30.0,20.0,0.0,0.0
2244,55.0,24.0,390.0,3.0,0.0
2245,55.0,18.0,90.0,2.0,0.0
2246,74.0,30.0,20.0,0.0,0.0
2247,76.0,12.0,20.0,0.0,0.0
2248,78.0,30.0,20.0,0.0,0.0
2249,79.0,30.0,20.0,0.0,0.0
2250,62.0,18.0,90.0,2.0,0.0
2251,81.0,30.0,20.0,0.0,0.0
2252,83.0,12.0,20.0,0.0,0.0
2253,84.0,30.0,20.0,0.0,0.0
2254,86.0,30.0,20.0,0.0,0.0
2255,59.0,18.0,90.0,2.0,0.0
2256,88.0,30.0,20.0,0.0,0.0
2257,90.0,12.0,20.0,0.0,0.0
2258,91.0,30.0,20.0,0.0,0.0
2259,86.0,48.0,40.0,0.0,0.0
2260,55.0,96.0,90.0,2.0,0.0
2261,50.0,12.0,390.0,3.0,0.0
2262,50.0,6.0,90.0,2.0,0.0
2263,83.0,15.0,15.0,0.0,0.0
2264,81.0,9.0,15.0,0.0,0.0
2265,80.0,15.0,15.0,0.0,0.0
2266,81.0,51.0,15.0,0.0,0.0
2267,57.0,6.0,90.0,2.0,0.0
2268,84.0,24.0,40.0,0.0,0.0
2269,79.0,15.0,15.0,0.0,0.0
2270,78.0,9.0,15.0,0.0,0.0
2271,76.0,15.0,15.0,0.0,0.0
2272,78.0,51.0,15.0,0.0,0.0
2273,81.0,48.0,40.0,0.0,0.0
2274,54.0,48.0,90.0,2.0,0.0
2275,74.0,60.0,90.0,0.0,0.0
2276,50.0,12.0,90.0,2.0,0.0
2277,72.0,36.0,40.0,0.0,0.0
2278,71.0,30.0,20.0,0.0,0.0
2279,43.0,18.0,90.0,2.0,0.0
2280,43.0,24.0,390.0,3.0,0.0
2281,74.0,30.0,20.0,0.0,0.0
2282,72.0,12.0,20.0,0.0,0.0
2283,71.0,30.0,20.0,0.0,0.0
2284,50.0,18.0,90.0,2.0,0.0
2285,72.0,30.0,20.0,0.0,0.0
2286,74.0,30.0,20.0,0.0,0.0
2287,76.0,12.0,20.0,0.0,0.0
2288,78.0,30.0,20.0,0.0,0.0
2289,79.0,30.0,20.0,0.0,0.0
2290,47.0,18.0,90.0,2.0,0.0
2291,81.0,30.0,20.0,0.0,0.0
2292,83.0,12.0,20.0,0.0,0.0
2293,84.0,30.0,20.0,0.0,0.0
2294,43.0,12.0,90.0,2.0,0.0
2295,86.0,48.0,40.0,0.0,0.0
2296,79.0,36.0,40.0,0.0,0.0
2297,72.0,36.0,180.0,1.0,0.0
2298,78.0,30.0,20.0,0.0,0.0
2299,62.0,24.0,150.0,3.0,0.0
2300,69.0,0.0,180.0,2.0,0.0
2301,79.0,30.0,20.0,0.0,0.0
2302,81.0,30.0,20.0,0.0,0.0
2303,83.0,30.0,20.0,0.0,0.0
2304,84.0,24.0,40.0,0.0,0.0
2305,63.0,36.0,40.0,3.0,0.0
2306,79.0,0.0,40.0,0.0,0.0
2307,78.0,30.0,20.0,0.0,0.0
2308,69.0,0.0,180.0,2.0,0.0
2309,62.0,24.0,150.0,3.0,0.0
2310,72.0,36.0,180.0,1.0,0.0
2311,79.0,30.0,20.0,0.0,0.0
2312,81.0,30.0,20.0,0.0,0.0
2313,83.0,30.0,20.0,0.0,0.0
2314,84.0,24.0,40.0,0.0,0.0
2315,79.0,0.0,40.0,0.0,0.0
2316,63.0,36.0,40.0,3.0,0.0
2317,69.0,0.0,180.0,2.0,0.0
2318,72.0,36.0,180.0,1.0,0.0
2319,62.0,24.0,150.0,3.0,0.0
2320,78.0,30.0,20.0,0.0,0.0
2321,79.0,30.0,20.0,0.0,0.0
2322,81.0,30.0,20.0,0.0,0.0
2323,83.0,30.0,20.0,0.0,0.0
2324,84.0,24.0,40.0,0.0,0.0
2325,63.0,0.0,40.0,3.0,0.0
2326,79.0,36.0,40.0,0.0,0.0
2327,78.0,30.0,20.0,0.0,0.0
2328,69.0,0.0,150.0,2.0,0.0
2329,72.0,0.0,150.0,1.0,0.0
2330,62.0,24.0,150.0,3.0,0.0
2331,79.0,30.0,20.0,0.0,0.0
2332,81.0,30.0,20.0,0.0,0.0
2333,83.0,30.0,20.0,0.0,0.0
2334,84.0,60.0,40.0,0.0,0.0
2335,78.0,84.0,40.0,0.0,0.0
2336,62.0,0.0,40.0,2.0,0.0
2337,60.0,0.0,40.0,3.0,0.0
2338,69.0,0.0,40.0,1.0,0.0
2339,59.0,0.0,90.0,3.0,0.0
2340,67.0,6.0,90.0,1.0,0.0
2341,62.0,0.0,90.0,2.0,0.0
2342,81.0,15.0,15.0,0.0,0.0
2343,79.0,9.0,15.0,0.0,0.0
2344,78.0,15.0,15.0,0.0,0.0
2345,79.0,27.0,15.0,0.0,0.0
2346,83.0,60.0,20.0,0.0,0.0
2347,74.0,108.0,20.0,0.0,0.0
2348,67.0,6.0,90.0,1.0,0.0
2349,64.0,0.0,90.0,2.0,0.0
2350,60.0,0.0,90.0,3.0,0.0
2351,78.0,15.0,15.0,0.0,0.0
2352,76.0,9.0,15.0,0.0,0.0
2353,75.0,15.0,15.0,0.0,0.0
2354,76.0,27.0,15.0,0.0,0.0
2355,79.0,60.0,20.0,0.0,0.0
2356,72.0,108.0,20.0,0.0,0.0
2357,50.0,24.0,390.0,3.0,0.0
2358,72.0,15.0,15.0,0.0,0.0
2359,71.0,15.0,15.0,0.0,0.0
2360,70.0,15.0,15.0,0.0,0.0
2361,71.0,51.0,15.0,0.0,0.0
2362,62.0,12.0,90.0,1.0,0.0
2363,59.0,0.0,90.0,2.0,0.0
2364,74.0,48.0,40.0,0.0,0.0
2365,67.0,84.0,40.0,0.0,0.0
2366,62.0,6.0,90.0,1.0,0.0
2367,60.0,0.0,90.0,2.0,0.0
2368,71.0,15.0,15.0,0.0,0.0
2369,69.0,9.0,15.0,0.0,0.0
2370,68.0,15.0,15.0,0.0,0.0
2371,69.0,27.0,15.0,0.0,0.0
2372,57.0,0.0,90.0,2.0,0.0
2373,72.0,48.0,40.0,0.0,0.0
2374,62.0,12.0,90.0,1.0,0.0
2375,66.0,66.0,40.0,0.0,0.0
2376,59.0,18.0,90.0,2.0,0.0
2377,55.0,0.0,90.0,3.0,0.0
2378,62.0,0.0,90.0,1.0,0.0
2379,67.0,30.0,20.0,0.0,0.0
2380,69.0,12.0,20.0,0.0,0.0
2381,71.0,30.0,20.0,0.0,0.0
2382,72.0,30.0,20.0,0.0,0.0
2383,74.0,30.0,20.0,0.0,0.0
2384,76.0,30.0,20.0,0.0,0.0
2385,78.0,30.0,20.0,0.0,0.0
2386,79.0,30.0,20.0,0.0,0.0
2387,81.0,30.0,20.0,0.0,0.0
2388,83.0,30.0,20.0,0.0,0.0
2389,84.0,30.0,20.0,0.0,0.0
2390,86.0,30.0,20.0,0.0,0.0
2391,83.0,30.0,20.0,0.0,0.0
2392,81.0,30.0,20.0,0.0,0.0
2393,79.0,30.0,20.0,0.0,0.0
2394,72.0,0.0,180.0,1.0,0.0
2395,62.0,30.0,150.0,3.0,0.0
2396,78.0,30.0,20.0,0.0,0.0
2397,69.0,12.0,180.0,2.0,0.0
2398,79.0,30.0,20.0,0.0,0.0
2399,81.0,30.0,20.0,0.0,0.0
2400,83.0,30.0,20.0,0.0,0.0
2401,84.0,0.0,20.0,0.0,0.0
2402,83.0,18.0,20.0,0.0,0.0
2403,81.0,24.0,20.0,0.0,0.0
2404,63.0,6.0,40.0,3.0,0.0
2405,79.0,30.0,20.0,0.0,0.0
2406,78.0,30.0,20.0,0.0,0.0
2407,69.0,12.0,180.0,2.0,0.0
2408,62.0,30.0,150.0,3.0,0.0
2409,72.0,0.0,180.0,1.0,0.0
2410,79.0,30.0,20.0,0.0,0.0
2411,81.0,30.0,20.0,0.0,0.0
2412,83.0,30.0,20.0,0.0,0.0
2413,84.0,0.0,20.0,0.0,0.0
2414,83.0,18.0,20.0,0.0,0.0
2415,63.0,6.0,40.0,3.0,0.0
2416,81.0,24.0,20.0,0.0,0.0
2417,79.0,30.0,20.0,0.0,0.0
2418,78.0,30.0,20.0,0.0,0.0
2419,69.0,12.0,180.0,2.0,0.0
2420,72.0,0.0,180.0,1.0,0.0
2421,62.0,30.0,150.0,3.0,0.0
2422,79.0,30.0,20.0,0.0,0.0
2423,81.0,30.0,20.0,0.0,0.0
2424,83.0,30.0,20.0,0.0,0.0
2425,84.0,0.0,20.0,0.0,0.0
2426,83.0,18.0,20.0,0.0,0.0
2427,63.0,6.0,40.0,3.0,0.0
2428,81.0,24.0,20.0,0.0,0.0
2429,79.0,30.0,20.0,0.0,0.0
2430,62.0,30.0,150.0,3.0,0.0
2431,72.0,0.0,150.0,1.0,0.0
2432,69.0,0.0,150.0,2.0,0.0
2433,78.0,30.0,20.0,0.0,0.0
2434,79.0,30.0,20.0,0.0,0.0
2435,81.0,30.0,20.0,0.0,0.0
2436,83.0,30.0,20.0,0.0,0.0
2437,84.0,0.0,20.0,0.0,0.0
2438,81.0,30.0,20.0,0.0,0.0
2439,60.0,0.0,40.0,3.0,0.0
2440,62.0,0.0,40.0,2.0,0.0
2441,69.0,6.0,40.0,1.0,0.0
2442,79.0,24.0,20.0,0.0,0.0
2443,78.0,78.0,20.0,0.0,0.0
2444,59.0,0.0,90.0,3.0,0.0
2445,62.0,6.0,90.0,2.0,0.0
2446,67.0,0.0,90.0,1.0,0.0
2447,81.0,15.0,15.0,0.0,0.0
2448,79.0,9.0,15.0,0.0,0.0
2449,78.0,15.0,15.0,0.0,0.0
2450,79.0,27.0,15.0,0.0,0.0
2451,83.0,60.0,20.0,0.0,0.0
2452,75.0,108.0,20.0,0.0,0.0
2453,67.0,0.0,90.0,1.0,0.0
2454,64.0,6.0,90.0,2.0,0.0
2455,60.0,0.0,90.0,3.0,0.0
2456,78.0,15.0,15.0,0.0,0.0
2457,76.0,9.0,15.0,0.0,0.0
2458,75.0,15.0,15.0,0.0,0.0
2459,76.0,27.0,15.0,0.0,0.0
2460,79.0,60.0,20.0,0.0,0.0
2461,72.0,108.0,20.0,0.0,0.0
2462,50.0,24.0,390.0,3.0,0.0
2463,72.0,15.0,15.0,0.0,0.0
2464,71.0,15.0,15.0,0.0,0.0
2465,70.0,15.0,15.0,0.0,0.0
2466,71.0,51.0,15.0,0.0,0.0
2467,62.0,0.0,90.0,1.0,0.0
2468,59.0,12.0,90.0,2.0,0.0
2469,74.0,48.0,40.0,0.0,0.0
2470,68.0,84.0,40.0,0.0,0.0
2471,60.0,6.0,90.0,2.0,0.0
2472,62.0,0.0,90.0,1.0,0.0
2473,71.0,15.0,15.0,0.0,0.0
2474,69.0,9.0,15.0,0.0,0.0
2475,68.0,15.0,15.0,0.0,0.0
2476,69.0,27.0,15.0,0.0,0.0
2477,62.0,0.0,90.0,1.0,0.0
2478,57.0,12.0,90.0,2.0,0.0
2479,72.0,48.0,40.0,0.0,0.0
2480,66.0,108.0,40.0,0.0,0.0
2481,66.0,24.0,180.0,0.0,0.0
2482,62.0,0.0,180.0,1.0,0.0
2483,60.0,0.0,180.0,2.0,0.0
2484,57.0,0.0,180.0,2.0,0.0
2485,55.0,96.0,90.0,3.0,0.0
2486,50.0,120.0,90.0,3.0,0.0
2487,59.0,216.0,90.0,2.0,0.0
2488,67.0,0.0,90.0,0.0,0.0
2489,43.0,0.0,90.0,3.0,0.0
2490,62.0,0.0,90.0,1.0,0.0
2491,43.0,16.0,90.0,3.0,0.0
2492,71.0,24.0,30.0,1.0,0.0
2493,74.0,80.0,30.0,1.0,0.0
2494,55.0,16.0,90.0,3.0,0.0
2495,67.0,24.0,30.0,1.0,0.0
2496,71.0,80.0,30.0,1.0,0.0
2497,62.0,16.0,90.0,3.0,0.0
2498,67.0,24.0,30.0,1.0,0.0
2499,71.0,80.0,30.0,1.0,0.0
2500,59.0,16.0,90.0,3.0,0.0
2501,67.0,24.0,30.0,1.0,0.0
2502,71.0,80.0,30.0,1.0,0.0
2503,55.0,16.0,90.0,3.0,0.0
2504,67.0,24.0,30.0,1.0,0.0
2505,71.0,80.0,30.0,1.0,0.0
2506,50.0,16.0,90.0,3.0,0.0
2507,67.0,24.0,30.0,1.0,0.0
2508,71.0,80.0,30.0,1.0,0.0
2509,47.0,16.0,90.0,3.0,0.0
2510,67.0,24.0,30.0,1.0,0.0
2511,71.0,80.0,30.0,1.0,0.0
2512,43.0,16.0,90.0,3.0,0.0
2513,62.0,24.0,30.0,1.0,0.0
2514,67.0,80.0,30.0,1.0,0.0
2515,50.0,16.0,90.0,3.0,0.0
2516,67.0,24.0,30.0,1.0,0.0
2517,69.0,80.0,30.0,1.0,0.0
2518,86.0,16.0,90.0,0.0,0.0
2519,67.0,24.0,30.0,1.0,0.0
2520,69.0,80.0,30.0,1.0,0.0
2521,84.0,16.0,90.0,0.0,0.0
2522,66.0,24.0,30.0,1.0,0.0
2523,69.0,80.0,30.0,1.0,0.0
2524,83.0,16.0,90.0,0.0,0.0
2525,67.0,24.0,30.0,1.0,0.0
2526,71.0,80.0,30.0,1.0,0.0
2527,81.0,16.0,90.0,0.0,0.0
2528,64.0,24.0,30.0,1.0,0.0
2529,72.0,80.0,30.0,1.0,0.0
2530,74.0,16.0,90.0,0.0,0.0
2531,66.0,24.0,30.0,1.0,0.0
2532,72.0,80.0,30.0,1.0,0.0
2533,79.0,16.0,90.0,0.0,0.0
2534,67.0,24.0,30.0,1.0,0.0
2535,71.0,80.0,30.0,1.0,0.0
2536,66.0,16.0,90.0,2.0,0.0
2537,72.0,24.0,30.0,1.0,0.0
2538,74.0,80.0,30.0,1.0,0.0
2539,67.0,16.0,90.0,2.0,0.0
2540,71.0,24.0,30.0,1.0,0.0
2541,74.0,80.0,30.0,1.0,0.0
2542,91.0,16.0,90.0,0.0,0.0
2543,71.0,24.0,30.0,1.0,0.0
2544,74.0,80.0,30.0,1.0,0.0
2545,90.0,16.0,90.0,0.0,0.0
2546,72.0,24.0,30.0,1.0,0.0
2547,74.0,80.0,30.0,1.0,0.0
2548,66.0,16.0,90.0,2.0,0.0
2549,72.0,24.0,30.0,1.0,0.0
2550,74.0,80.0,30.0,1.0,0.0
2551,67.0,16.0,90.0,2.0,0.0
2552,71.0,24.0,30.0,1.0,0.0
2553,74.0,80.0,30.0,1.0,0.0
2554,91.0,16.0,90.0,0.0,0.0
2555,71.0,24.0,30.0,1.0,0.0
2556,74.0,80.0,30.0,1.0,0.0
2557,90.0,16.0,90.0,0.0,0.0
2558,72.0,24.0,30.0,1.0,0.0
2559,74.0,80.0,30.0,1.0,0.0
2560,66.0,16.0,90.0,2.0,0.0
2561,72.0,24.0,30.0,1.0,0.0
2562,74.0,80.0,30.0,1.0,0.0
2563,67.0,16.0,90.0,2.0,0.0
2564,71.0,24.0,30.0,1.0,0.0
2565,74.0,80.0,30.0,1.0,0.0
2566,59.0,16.0,90.0,2.0,0.0
2567,71.0,24.0,30.0,1.0,0.0
2568,74.0,80.0,30.0,1.0,0.0
2569,60.0,16.0,90.0,2.0,0.0
2570,69.0,24.0,30.0,1.0,0.0
2571,72.0,80.0,30.0,1.0,0.0
2572,61.0,16.0,90.0,2.0,0.0
2573,67.0,24.0,30.0,1.0,0.0
2574,71.0,80.0,30.0,1.0,0.0
2575,62.0,16.0,90.0,2.0,0.0
2576,67.0,24.0,30.0,1.0,0.0
2577,71.0,80.0,30.0,1.0,0.0
2578,62.0,16.0,90.0,2.0,0.0
2579,67.0,24.0,30.0,1.0,0.0
2580,74.0,80.0,30.0,1.0,0.0
2581,50.0,16.0,90.0,3.0,0.0
2582,66.0,24.0,30.0,1.0,0.0
2583,69.0,80.0,30.0,1.0,0.0
2584,50.0,16.0,90.0,3.0,0.0
2585,66.0,24.0,30.0,1.0,0.0
2586,69.0,80.0,30.0,1.0,0.0
2587,43.0,16.0,90.0,3.0,0.0
2588,71.0,24.0,30.0,1.0,0.0
2589,74.0,80.0,30.0,1.0,0.0
2590,55.0,16.0,90.0,3.0,0.0
2591,67.0,24.0,30.0,1.0,0.0
2592,71.0,80.0,30.0,1.0,0.0
2593,62.0,16.0,90.0,3.0,0.0
2594,67.0,24.0,30.0,1.0,0.0
2595,71.0,80.0,30.0,1.0,0.0
2596,59.0,16.0,90.0,3.0,0.0
2597,67.0,24.0,30.0,1.0,0.0
2598,71.0,80.0,30.0,1.0,0.0
2599,55.0,16.0,90.0,3.0,0.0
2600,67.0,24.0,30.0,1.0,0.0
2601,71.0,80.0,30.0,1.0,0.0
2602,50.0,16.0,90.0,3.0,0.0
2603,67.0,24.0,30.0,1.0,0.0
2604,71.0,80.0,30.0,1.0,0.0
2605,47.0,16.0,90.0,3.0,0.0
2606,67.0,24.0,30.0,1.0,0.0
2607,71.0,80.0,30.0,1.0,0.0
2608,43.0,16.0,90.0,3.0,0.0
2609,62.0,24.0,30.0,1.0,0.0
2610,67.0,80.0,30.0,1.0,0.0
2611,50.0,16.0,90.0,3.0,0.0
2612,67.0,24.0,30.0,1.0,0.0
2613,69.0,80.0,30.0,1.0,0.0
2614,86.0,16.0,90.0,0.0,0.0
2615,67.0,24.0,30.0,1.0,0.0
2616,69.0,80.0,30.0,1.0,0.0
2617,84.0,16.0,90.0,0.0,0.0
2618,66.0,24.0,30.0,1.0,0.0
2619,69.0,80.0,30.0,1.0,0.0
2620,83.0,16.0,90.0,0.0,0.0
2621,67.0,24.0,30.0,1.0,0.0
2622,71.0,80.0,30.0,1.0,0.0
2623,81.0,16.0,90.0,0.0,0.0
2624,64.0,24.0,30.0,1.0,0.0
2625,72.0,80.0,30.0,1.0,0.0
2626,74.0,16.0,90.0,0.0,0.0
2627,66.0,24.0,30.0,1.0,0.0
2628,72.0,80.0,30.0,1.0,0.0
2629,79.0,16.0,90.0,0.0,0.0
2630,67.0,24.0,30.0,1.0,0.0
2631,71.0,80.0,30.0,1.0,0.0
2632,66.0,16.0,90.0,2.0,0.0
2633,72.0,24.0,30.0,1.0,0.0
2634,74.0,80.0,30.0,1.0,0.0
2635,67.0,16.0,90.0,2.0,0.0
2636,71.0,24.0,30.0,1.0,0.0
2637,74.0,80.0,30.0,1.0,0.0
2638,91.0,16.0,90.0,0.0,0.0
2639,71.0,24.0,30.0,1.0,0.0
2640,74.0,80.0,30.0,1.0,0.0
2641,90.0,16.0,90.0,0.0,0.0
2642,72.0,24.0,30.0,1.0,0.0
2643,74.0,80.0,30.0,1.0,0.0
2644,66.0,16.0,90.0,2.0,0.0
2645,72.0,24.0,30.0,1.0,0.0
2646,74.0,80.0,30.0,1.0,0.0
2647,67.0,16.0,90.0,2.0,0.0
2648,71.0,24.0,30.0,1.0,0.0
2649,74.0,80.0,30.0,1.0,0.0
2650,91.0,16.0,90.0,0.0,0.0
2651,71.0,24.0,30.0,1.0,0.0
2652,74.0,80.0,30.0,1.0,0.0
2653,90.0,16.0,90.0,0.0,0.0
2654,72.0,24.0,30.0,1.0,0.0
2655,74.0,80.0,30.0,1.0,0.0
2656,66.0,16.0,90.0,2.0,0.0
2657,72.0,24.0,30.0,1.0,0.0
2658,74.0,80.0,30.0,1.0,0.0
2659,67.0,16.0,90.0,2.0,0.0
2660,71.0,24.0,30.0,1.0,0.0
2661,74.0,80.0,30.0,1.0,0.0
2662,59.0,16.0,90.0,2.0,0.0
2663,71.0,24.0,30.0,1.0,0.0
2664,74.0,80.0,30.0,1.0,0.0
2665,60.0,16.0,90.0,2.0,0.0
2666,69.0,24.0,30.0,1.0,0.0
2667,72.0,80.0,30.0,1.0,0.0
2668,61.0,16.0,90.0,2.0,0.0
2669,67.0,24.0,30.0,1.0,0.0
2670,71.0,80.0,30.0,1.0,0.0
2671,62.0,16.0,90.0,2.0,0.0
2672,67.0,24.0,30.0,1.0,0.0
2673,71.0,80.0,30.0,1.0,0.0
2674,62.0,16.0,90.0,2.0,0.0
2675,67.0,24.0,30.0,1.0,0.0
2676,74.0,80.0,30.0,1.0,0.0
2677,50.0,16.0,90.0,3.0,0.0
2678,66.0,24.0,30.0,1.0,0.0
2679,69.0,80.0,30.0,1.0,0.0
2680,50.0,16.0,90.0,3.0,0.0
2681,66.0,24.0,30.0,1.0,0.0
2682,69.0,80.0,30.0,1.0,0.0
2683,50.0,16.0,90.0,3.0,0.0
2684,66.0,24.0,30.0,1.0,0.0
2685,74.0,80.0,30.0,1.0,0.0
2686,86.0,16.0,90.0,0.0,0.0
2687,66.0,24.0,30.0,1.0,0.0
2688,74.0,80.0,30.0,1.0,0.0
2689,85.0,16.0,90.0,0.0,0.0
2690,67.0,24.0,30.0,1.0,0.0
2691,76.0,80.0,30.0,1.0,0.0
2692,84.0,16.0,90.0,0.0,0.0
2693,69.0,24.0,30.0,1.0,0.0
2694,78.0,80.0,30.0,1.0,0.0
2695,83.0,16.0,90.0,0.0,0.0
2696,71.0,24.0,30.0,1.0,0.0
2697,79.0,80.0,30.0,1.0,0.0
2698,67.0,0.0,90.0,2.0,0.0
2699,55.0,16.0,90.0,3.0,0.0
2700,70.0,24.0,30.0,1.0,0.0
2701,79.0,80.0,30.0,1.0,0.0
2702,63.0,16.0,90.0,2.0,0.0
2703,51.0,0.0,90.0,3.0,0.0
2704,70.0,24.0,30.0,1.0,0.0
2705,79.0,80.0,30.0,1.0,0.0
2706,49.0,16.0,90.0,3.0,0.0
2707,61.0,0.0,90.0,2.0,0.0
2708,70.0,24.0,30.0,1.0,0.0
2709,79.0,80.0,30.0,1.0,0.0
2710,50.0,16.0,90.0,3.0,0.0
2711,62.0,0.0,90.0,2.0,0.0
2712,69.0,24.0,30.0,1.0,0.0
2713,78.0,80.0,30.0,1.0,0.0
2714,86.0,16.0,90.0,0.0,0.0
2715,66.0,24.0,30.0,1.0,0.0
2716,74.0,80.0,30.0,1.0,0.0
2717,88.0,16.0,90.0,0.0,0.0
2718,67.0,24.0,30.0,1.0,0.0
2719,73.0,80.0,30.0,1.0,0.0
2720,90.0,16.0,90.0,0.0,0.0
2721,69.0,24.0,30.0,1.0,0.0
2722,72.0,80.0,30.0,1.0,0.0
2723,91.0,16.0,90.0,0.0,0.0
2724,67.0,24.0,30.0,1.0,0.0
2725,70.0,80.0,30.0,1.0,0.0
2726,43.0,0.0,90.0,3.0,0.0
2727,55.0,16.0,90.0,2.0,0.0
2728,67.0,24.0,30.0,1.0,0.0
2729,70.0,80.0,30.0,1.0,0.0
2730,39.0,16.0,90.0,3.0,0.0
2731,51.0,0.0,90.0,2.0,0.0
2732,70.0,24.0,30.0,1.0,0.0
2733,79.0,80.0,30.0,1.0,0.0
2734,37.0,0.0,90.0,3.0,0.0
2735,49.0,16.0,90.0,2.0,0.0
2736,70.0,24.0,30.0,1.0,0.0
2737,79.0,80.0,30.0,1.0,0.0
2738,38.0,16.0,90.0,3.0,0.0
2739,50.0,0.0,90.0,2.0,0.0
2740,69.0,24.0,30.0,1.0,0.0
2741,79.0,80.0,30.0,1.0,0.0
2742,84.0,16.0,90.0,0.0,0.0
2743,69.0,24.0,30.0,1.0,0.0
2744,78.0,80.0,30.0,1.0,0.0
2745,84.0,16.0,90.0,0.0,0.0
2746,67.0,24.0,30.0,1.0,0.0
2747,76.0,80.0,30.0,1.0,0.0
2748,84.0,16.0,90.0,0.0,0.0
2749,66.0,24.0,30.0,1.0,0.0
2750,74.0,80.0,30.0,1.0,0.0
2751,48.0,0.0,90.0,3.0,0.0
2752,60.0,16.0,90.0,2.0,0.0
2753,69.0,24.0,30.0,1.0,0.0
2754,79.0,80.0,30.0,1.0,0.0
2755,84.0,16.0,90.0,0.0,0.0
2756,69.0,24.0,30.0,1.0,0.0
2757,78.0,80.0,30.0,1.0,0.0
2758,84.0,16.0,90.0,0.0,0.0
2759,67.0,24.0,30.0,1.0,0.0
2760,76.0,80.0,30.0,1.0,0.0
2761,84.0,16.0,90.0,0.0,0.0
2762,66.0,24.0,30.0,1.0,0.0
2763,74.0,80.0,30.0,1.0,0.0
2764,83.0,16.0,90.0,0.0,0.0
2765,67.0,24.0,30.0,1.0,0.0
2766,74.0,80.0,30.0,1.0,0.0
2767,87.0,16.0,90.0,0.0,0.0
2768,67.0,24.0,30.0,1.0,0.0
2769,71.0,80.0,30.0,1.0,0.0
2770,88.0,16.0,90.0,0.0,0.0
2771,67.0,24.0,30.0,1.0,0.0
2772,72.0,80.0,30.0,1.0,0.0
2773,85.0,16.0,90.0,0.0,0.0
2774,67.0,24.0,30.0,1.0,0.0
2775,70.0,80.0,30.0,1.0,0.0
2776,86.0,16.0,90.0,0.0,0.0
2777,67.0,24.0,30.0,1.0,0.0
2778,71.0,80.0,30.0,1.0,0.0
2779,62.0,16.0,90.0,3.0,0.0
2780,68.0,0.0,90.0,2.0,0.0
2781,71.0,24.0,30.0,1.0,0.0
2782,74.0,80.0,30.0,1.0,0.0
2783,69.0,16.0,90.0,2.0,0.0
2784,62.0,0.0,90.0,3.0,0.0
2785,72.0,24.0,30.0,1.0,0.0
2786,74.0,80.0,30.0,1.0,0.0
2787,62.0,16.0,90.0,3.0,0.0
2788,66.0,0.0,90.0,2.0,0.0
2789,69.0,24.0,30.0,1.0,0.0
2790,74.0,80.0,30.0,1.0,0.0
2791,67.0,16.0,90.0,2.0,0.0
2792,71.0,24.0,30.0,1.0,0.0
2793,74.0,80.0,30.0,1.0,0.0
2794,62.0,0.0,90.0,2.0,0.0
2795,50.0,16.0,90.0,3.0,0.0
2796,74.0,24.0,30.0,1.0,0.0
2797,79.0,80.0,30.0,1.0,0.0
2798,59.0,0.0,90.0,2.0,0.0
2799,47.0,16.0,90.0,3.0,0.0
2800,79.0,24.0,30.0,1.0,0.0
2801,83.0,80.0,30.0,1.0,0.0
2802,55.0,16.0,90.0,2.0,0.0
2803,43.0,0.0,90.0,3.0,0.0
2804,83.0,24.0,30.0,1.0,0.0
2805,86.0,80.0,30.0,1.0,0.0
2806,50.0,16.0,90.0,3.0,0.0
2807,62.0,0.0,90.0,2.0,0.0
2808,69.0,24.0,30.0,1.0,0.0
2809,79.0,80.0,30.0,1.0,0.0
2810,84.0,16.0,90.0,0.0,0.0
2811,69.0,24.0,30.0,1.0,0.0
2812,78.0,80.0,30.0,1.0,0.0
2813,84.0,16.0,90.0,0.0,0.0
2814,67.0,24.0,30.0,1.0,0.0
2815,76.0,80.0,30.0,1.0,0.0
2816,84.0,16.0,90.0,0.0,0.0
2817,66.0,24.0,30.0,1.0,0.0
2818,74.0,80.0,30.0,1.0,0.0
2819,60.0,0.0,90.0,2.0,0.0
2820,48.0,16.0,90.0,3.0,0.0
2821,69.0,24.0,30.0,1.0,0.0
2822,79.0,80.0,30.0,1.0,0.0
2823,84.0,16.0,90.0,0.0,0.0
2824,69.0,24.0,30.0,1.0,0.0
2825,78.0,80.0,30.0,1.0,0.0
2826,84.0,16.0,90.0,0.0,0.0
2827,67.0,24.0,30.0,1.0,0.0
2828,76.0,80.0,30.0,1.0,0.0
2829,84.0,16.0,90.0,0.0,0.0
2830,66.0,24.0,30.0,1.0,0.0
2831,74.0,80.0,30.0,1.0,0.0
2832,83.0,16.0,90.0,0.0,0.0
2833,67.0,24.0,30.0,1.0,0.0
2834,74.0,80.0,30.0,1.0,0.0
2835,87.0,16.0,90.0,0.0,0.0
2836,67.0,24.0,30.0,1.0,0.0
2837,71.0,80.0,30.0,1.0,0.0
2838,88.0,16.0,90.0,0.0,0.0
2839,67.0,24.0,30.0,1.0,0.0
2840,72.0,80.0,30.0,1.0,0.0
2841,85.0,16.0,90.0,0.0,0.0
2842,67.0,24.0,30.0,1.0,0.0
2843,70.0,80.0,30.0,1.0,0.0
2844,86.0,16.0,90.0,0.0,0.0
2845,67.0,24.0,30.0,1.0,0.0
2846,71.0,80.0,30.0,1.0,0.0
2847,68.0,0.0,90.0,2.0,0.0
2848,62.0,16.0,90.0,3.0,0.0
2849,71.0,24.0,30.0,1.0,0.0
2850,74.0,80.0,30.0,1.0,0.0
2851,69.0,0.0,90.0,2.0,0.0
2852,62.0,16.0,90.0,3.0,0.0
2853,72.0,24.0,30.0,1.0,0.0
2854,74.0,80.0,30.0,1.0,0.0
2855,62.0,0.0,90.0,3.0,0.0
2856,66.0,16.0,90.0,2.0,0.0
2857,69.0,24.0,30.0,1.0,0.0
2858,74.0,0.0,30.0,1.0,0.0
2859,72.0,0.0,30.0,1.0,0.0
2860,78.0,104.0,30.0,0.0,0.0
2861,74.0,0.0,180.0,1.0,0.0
2862,72.0,0.0,180.0,1.0,0.0
2863,67.0,96.0,90.0,3.0,0.0
2864,78.0,0.0,180.0,0.0,0.0
2865,69.0,24.0,180.0,2.0,0.0
2866,62.0,120.0,90.0,3.0,0.0
2867,55.0,0.0,90.0,3.0,0.0
2868,74.0,0.0,90.0,1.0,0.0
2869,79.0,216.0,90.0,0.0,0.0
2870,71.0,0.0,90.0,2.0,0.0
2871,50.0,16.0,90.0,3.0,0.0
2872,66.0,24.0,30.0,1.0,0.0
2873,74.0,80.0,30.0,1.0,0.0
2874,86.0,16.0,90.0,0.0,0.0
2875,66.0,24.0,30.0,1.0,0.0
2876,74.0,80.0,30.0,1.0,0.0
2877,85.0,16.0,90.0,0.0,0.0
2878,67.0,24.0,30.0,1.0,0.0
2879,76.0,80.0,30.0,1.0,0.0
2880,84.0,16.0,90.0,0.0,0.0
2881,69.0,24.0,30.0,1.0,0.0
2882,78.0,80.0,30.0,1.0,0.0
2883,83.0,16.0,90.0,0.0,0.0
2884,71.0,24.0,30.0,1.0,0.0
2885,79.0,80.0,30.0,1.0,0.0
2886,55.0,0.0,90.0,3.0,0.0
2887,67.0,16.0,90.0,2.0,0.0
2888,70.0,24.0,30.0,1.0,0.0
2889,79.0,80.0,30.0,1.0,0.0
2890,51.0,16.0,90.0,3.0,0.0
2891,63.0,0.0,90.0,2.0,0.0
2892,70.0,24.0,30.0,1.0,0.0
2893,79.0,80.0,30.0,1.0,0.0
2894,61.0,16.0,90.0,2.0,0.0
2895,49.0,0.0,90.0,3.0,0.0
2896,70.0,24.0,30.0,1.0,0.0
2897,79.0,80.0,30.0,1.0,0.0
2898,50.0,16.0,90.0,3.0,0.0
2899,62.0,0.0,90.0,2.0,0.0
2900,69.0,24.0,30.0,1.0,0.0
2901,78.0,80.0,30.0,1.0,0.0
2902,86.0,16.0,90.0,0.0,0.0
2903,66.0,24.0,30.0,1.0,0.0
2904,74.0,80.0,30.0,1.0,0.0
2905,88.0,16.0,90.0,0.0,0.0
2906,67.0,24.0,30.0,1.0,0.0
2907,73.0,80.0,30.0,1.0,0.0
2908,90.0,16.0,90.0,0.0,0.0
2909,69.0,24.0,30.0,1.0,0.0
2910,72.0,80.0,30.0,1.0,0.0
2911,91.0,16.0,90.0,0.0,0.0
2912,67.0,24.0,30.0,1.0,0.0
2913,70.0,80.0,30.0,1.0,0.0
2914,43.0,16.0,90.0,3.0,0.0
2915,55.0,0.0,90.0,2.0,0.0
2916,67.0,24.0,30.0,1.0,0.0
2917,70.0,80.0,30.0,1.0,0.0
2918,51.0,0.0,90.0,2.0,0.0
2919,39.0,16.0,90.0,3.0,0.0
2920,70.0,24.0,30.0,1.0,0.0
2921,79.0,80.0,30.0,1.0,0.0
2922,49.0,16.0,90.0,2.0,0.0
2923,37.0,0.0,90.0,3.0,0.0
2924,70.0,24.0,30.0,1.0,0.0
2925,79.0,80.0,30.0,1.0,0.0
2926,38.0,0.0,90.0,3.0,0.0
2927,50.0,16.0,90.0,2.0,0.0
2928,69.0,24.0,30.0,1.0,0.0
2929,79.0,80.0,30.0,1.0,0.0
2930,84.0,16.0,90.0,0.0,0.0
2931,69.0,24.0,30.0,1.0,0.0
2932,78.0,80.0,30.0,1.0,0.0
2933,84.0,16.0,90.0,0.0,0.0
2934,67.0,24.0,30.0,1.0,0.0
2935,76.0,80.0,30.0,1.0,0.0
2936,84.0,16.0,90.0,0.0,0.0
2937,66.0,24.0,30.0,1.0,0.0
2938,74.0,80.0,30.0,1.0,0.0
2939,60.0,16.0,90.0,2.0,0.0
2940,48.0,0.0,90.0,3.0,0.0
2941,69.0,24.0,30.0,1.0,0.0
2942,79.0,80.0,30.0,1.0,0.0
2943,84.0,16.0,90.0,0.0,0.0
2944,69.0,24.0,30.0,1.0,0.0
2945,78.0,80.0,30.0,1.0,0.0
2946,84.0,16.0,90.0,0.0,0.0
2947,67.0,24.0,30.0,1.0,0.0
2948,76.0,80.0,30.0,1.0,0.0
2949,84.0,16.0,90.0,0.0,0.0
2950,66.0,24.0,30.0,1.0,0.0
2951,74.0,80.0,30.0,1.0,0.0
2952,83.0,16.0,90.0,0.0,0.0
2953,67.0,24.0,30.0,1.0,0.0
2954,74.0,80.0,30.0,1.0,0.0
2955,87.0,16.0,90.0,0.0,0.0
2956,67.0,24.0,30.0,1.0,0.0
2957,71.0,80.0,30.0,1.0,0.0
2958,88.0,16.0,90.0,0.0,0.0
2959,67.0,24.0,30.0,1.0,0.0
2960,72.0,80.0,30.0,1.0,0.0
2961,85.0,16.0,90.0,0.0,0.0
2962,67.0,24.0,30.0,1.0,0.0
2963,70.0,80.0,30.0,1.0,0.0
2964,86.0,16.0,90.0,0.0,0.0
2965,67.0,24.0,30.0,1.0,0.0
2966,71.0,80.0,30.0,1.0,0.0
2967,68.0,16.0,90.0,2.0,0.0
2968,62.0,0.0,90.0,3.0,0.0
2969,71.0,24.0,30.0,1.0,0.0
2970,74.0,80.0,30.0,1.0,0.0
2971,62.0,0.0,90.0,3.0,0.0
2972,69.0,16.0,90.0,2.0,0.0
2973,72.0,24.0,30.0,1.0,0.0
2974,74.0,80.0,30.0,1.0,0.0
2975,62.0,16.0,90.0,3.0,0.0
2976,66.0,0.0,90.0,2.0,0.0
2977,69.0,24.0,30.0,1.0,0.0
2978,74.0,80.0,30.0,1.0,0.0
2979,67.0,16.0,90.0,2.0,0.0
2980,71.0,24.0,30.0,1.0,0.0
2981,74.0,80.0,30.0,1.0,0.0
2982,62.0,0.0,90.0,2.0,0.0
2983,50.0,16.0,90.0,3.0,0.0
2984,74.0,24.0,30.0,1.0,0.0
2985,79.0,80.0,30.0,1.0,0.0
2986,47.0,16.0,90.0,3.0,0.0
2987,59.0,0.0,90.0,2.0,0.0
2988,79.0,24.0,30.0,1.0,0.0
2989,83.0,80.0,30.0,1.0,0.0
2990,43.0,0.0,90.0,3.0,0.0
2991,55.0,16.0,90.0,2.0,0.0
2992,83.0,24.0,30.0,1.0,0.0
2993,86.0,80.0,30.0,1.0,0.0
2994,50.0,0.0,90.0,3.0,0.0
2995,62.0,16.0,90.0,2.0,0.0
2996,69.0,24.0,30.0,1.0,0.0
2997,79.0,80.0,30.0,1.0,0.0
2998,84.0,16.0,90.0,0.0,0.0
2999,69.0,24.0,30.0,1.0,0.0
3000,78.0,80.0,30.0,1.0,0.0
3001,84.0,16.0,90.0,0.0,0.0
3002,67.0,24.0,30.0,1.0,0.0
3003,76.0,80.0,30.0,1.0,0.0
3004,84.0,16.0,90.0,0.0,0.0
3005,66.0,24.0,30.0,1.0,0.0
3006,74.0,80.0,30.0,1.0,0.0
3007,48.0,0.0,90.0,3.0,0.0
3008,60.0,16.0,90.0,2.0,0.0
3009,69.0,24.0,30.0,1.0,0.0
3010,79.0,80.0,30.0,1.0,0.0
3011,84.0,16.0,90.0,0.0,0.0
3012,69.0,24.0,30.0,1.0,0.0
3013,78.0,80.0,30.0,1.0,0.0
3014,84.0,16.0,90.0,0.0,0.0
3015,67.0,24.0,30.0,1.0,0.0
3016,76.0,80.0,30.0,1.0,0.0
3017,84.0,16.0,90.0,0.0,0.0
3018,66.0,24.0,30.0,1.0,0.0
3019,74.0,80.0,30.0,1.0,0.0
3020,83.0,16.0,90.0,0.0,0.0
3021,67.0,24.0,30.0,1.0,0.0
3022,74.0,80.0,30.0,1.0,0.0
3023,87.0,16.0,90.0,0.0,0.0
3024,67.0,24.0,30.0,1.0,0.0
3025,71.0,80.0,30.0,1.0,0.0
3026,88.0,16.0,90.0,0.0,0.0
3027,67.0,24.0,30.0,1.0,0.0
3028,72.0,80.0,30.0,1.0,0.0
3029,85.0,16.0,90.0,0.0,0.0
3030,67.0,24.0,30.0,1.0,0.0
3031,70.0,80.0,30.0,1.0,0.0
3032,86.0,16.0,90.0,0.0,0.0
3033,67.0,24.0,30.0,1.0,0.0
3034,71.0,80.0,30.0,1.0,0.0
3035,68.0,0.0,90.0,2.0,0.0
3036,62.0,16.0,90.0,3.0,0.0
3037,71.0,24.0,30.0,1.0,0.0
3038,74.0,80.0,30.0,1.0,0.0
3039,69.0,0.0,90.0,2.0,0.0
3040,62.0,16.0,90.0,3.0,0.0
3041,72.0,24.0,30.0,1.0,0.0
3042,74.0,80.0,30.0,1.0,0.0
3043,62.0,0.0,90.0,3.0,0.0
3044,66.0,16.0,90.0,2.0,0.0
3045,69.0,24.0,30.0,1.0,0.0
3046,72.0,0.0,30.0,1.0,0.0
3047,74.0,0.0,30.0,1.0,0.0
3048,78.0,104.0,30.0,0.0,0.0
3049,69.0,0.0,180.0,2.0,0.0
3050,72.0,0.0,180.0,1.0,0.0
3051,78.0,24.0,180.0,0.0,0.0
3052,74.0,0.0,180.0,1.0,0.0
3053,67.0,96.0,90.0,3.0,0.0
3054,62.0,120.0,90.0,3.0,0.0
3055,79.0,0.0,90.0,0.0,0.0
3056,74.0,0.0,90.0,1.0,0.0
3057,71.0,0.0,90.0,2.0,0.0
3058,55.0,204.0,90.0,3.0,0.0
3059,74.0,48.0,60.0,0.0,0.0
3060,55.0,0.0,390.0,2.0,0.0
3061,43.0,36.0,390.0,3.0,0.0
3062,86.0,72.0,40.0,0.0,0.0
3063,71.0,48.0,60.0,0.0,0.0
3064,83.0,72.0,40.0,0.0,0.0
3065,71.0,48.0,60.0,0.0,0.0
3066,83.0,36.0,40.0,0.0,0.0
3067,71.0,48.0,60.0,0.0,0.0
3068,83.0,72.0,40.0,0.0,0.0
3069,71.0,48.0,60.0,0.0,0.0
3070,43.0,12.0,300.0,3.0,0.0
3071,55.0,0.0,300.0,2.0,0.0
3072,83.0,72.0,40.0,0.0,0.0
3073,67.0,48.0,60.0,0.0,0.0
3074,79.0,60.0,40.0,0.0,0.0
3075,67.0,48.0,60.0,0.0,0.0
3076,79.0,72.0,40.0,0.0,0.0
3077,62.0,0.0,90.0,2.0,0.0
3078,59.0,12.0,90.0,3.0,0.0
3079,67.0,36.0,60.0,0.0,0.0
3080,79.0,72.0,40.0,0.0,0.0
3081,68.0,48.0,60.0,0.0,0.0
3082,60.0,0.0,180.0,3.0,0.0
3083,64.0,36.0,180.0,2.0,0.0
3084,80.0,72.0,40.0,0.0,0.0
3085,69.0,12.0,60.0,0.0,0.0
3086,81.0,72.0,40.0,0.0,0.0
3087,62.0,36.0,180.0,3.0,0.0
3088,66.0,0.0,180.0,2.0,0.0
3089,70.0,48.0,60.0,0.0,0.0
3090,82.0,72.0,40.0,0.0,0.0
3091,71.0,12.0,60.0,0.0,0.0
3092,83.0,72.0,40.0,0.0,0.0
3093,74.0,36.0,60.0,0.0,0.0
3094,67.0,0.0,90.0,2.0,0.0
3095,64.0,12.0,90.0,3.0,0.0
3096,86.0,72.0,40.0,0.0,0.0
3097,72.0,36.0,60.0,0.0,0.0
3098,69.0,12.0,90.0,2.0,0.0
3099,66.0,0.0,90.0,3.0,0.0
3100,84.0,72.0,40.0,0.0,0.0
3101,67.0,12.0,90.0,3.0,0.0
3102,71.0,36.0,60.0,0.0,0.0
3103,83.0,72.0,40.0,0.0,0.0
3104,74.0,48.0,60.0,0.0,0.0
3105,86.0,72.0,40.0,0.0,0.0
3106,67.0,48.0,60.0,0.0,0.0
3107,79.0,72.0,40.0,0.0,0.0
3108,59.0,12.0,90.0,3.0,0.0
3109,62.0,24.0,180.0,2.0,0.0
3110,79.0,36.0,60.0,0.0,0.0
3111,91.0,72.0,40.0,0.0,0.0
3112,78.0,12.0,60.0,0.0,0.0
3113,60.0,12.0,90.0,3.0,0.0
3114,90.0,72.0,40.0,0.0,0.0
3115,66.0,48.0,60.0,0.0,0.0
3116,78.0,72.0,40.0,0.0,0.0
3117,67.0,48.0,60.0,0.0,0.0
3118,79.0,72.0,40.0,0.0,0.0
3119,79.0,36.0,60.0,0.0,0.0
3120,62.0,24.0,180.0,2.0,0.0
3121,59.0,12.0,90.0,3.0,0.0
3122,91.0,72.0,40.0,0.0,0.0
3123,60.0,12.0,90.0,3.0,0.0
3124,78.0,12.0,60.0,0.0,0.0
3125,90.0,72.0,40.0,0.0,0.0
3126,66.0,48.0,60.0,0.0,0.0
3127,78.0,72.0,40.0,0.0,0.0
3128,67.0,48.0,60.0,0.0,0.0
3129,79.0,72.0,40.0,0.0,0.0
3130,62.0,24.0,180.0,2.0,0.0
3131,74.0,36.0,60.0,0.0,0.0
3132,59.0,12.0,90.0,3.0,0.0
3133,86.0,72.0,40.0,0.0,0.0
3134,72.0,12.0,60.0,0.0,0.0
3135,54.0,12.0,90.0,3.0,0.0
3136,84.0,72.0,40.0,0.0,0.0
3137,62.0,0.0,90.0,2.0,0.0
3138,71.0,36.0,60.0,0.0,0.0
3139,55.0,12.0,90.0,3.0,0.0
3140,83.0,72.0,40.0,0.0,0.0
3141,71.0,48.0,60.0,0.0,0.0
3142,55.0,36.0,180.0,2.0,0.0
3143,50.0,0.0,330.0,3.0,0.0
3144,59.0,0.0,180.0,1.0,0.0
3145,83.0,72.0,40.0,0.0,0.0
3146,74.0,12.0,60.0,0.0,0.0
3147,86.0,72.0,40.0,0.0,0.0
3148,57.0,12.0,90.0,1.0,0.0
3149,69.0,36.0,60.0,0.0,0.0
3150,54.0,0.0,90.0,2.0,0.0
3151,81.0,192.0,40.0,0.0,0.0
3152,55.0,0.0,390.0,2.0,0.0
3153,74.0,48.0,60.0,0.0,0.0
3154,43.0,36.0,390.0,3.0,0.0
3155,86.0,72.0,40.0,0.0,0.0
3156,71.0,48.0,60.0,0.0,0.0
3157,83.0,72.0,40.0,0.0,0.0
3158,71.0,48.0,60.0,0.0,0.0
3159,83.0,36.0,40.0,0.0,0.0
3160,71.0,48.0,60.0,0.0,0.0
3161,83.0,72.0,40.0,0.0,0.0
3162,71.0,48.0,60.0,0.0,0.0
3163,43.0,0.0,300.0,3.0,0.0
3164,55.0,12.0,300.0,2.0,0.0
3165,83.0,72.0,40.0,0.0,0.0
3166,67.0,48.0,60.0,0.0,0.0
3167,79.0,60.0,40.0,0.0,0.0
3168,67.0,48.0,60.0,0.0,0.0
3169,79.0,72.0,40.0,0.0,0.0
3170,59.0,0.0,90.0,3.0,0.0
3171,62.0,12.0,90.0,2.0,0.0
3172,67.0,36.0,60.0,0.0,0.0
3173,79.0,72.0,40.0,0.0,0.0
3174,68.0,48.0,60.0,0.0,0.0
3175,60.0,36.0,180.0,3.0,0.0
3176,64.0,0.0,180.0,2.0,0.0
3177,80.0,72.0,40.0,0.0,0.0
3178,69.0,12.0,60.0,0.0,0.0
3179,81.0,72.0,40.0,0.0,0.0
3180,62.0,0.0,180.0,3.0,0.0
3181,66.0,36.0,180.0,2.0,0.0
3182,70.0,48.0,60.0,0.0,0.0
3183,82.0,72.0,40.0,0.0,0.0
3184,71.0,12.0,60.0,0.0,0.0
3185,83.0,72.0,40.0,0.0,0.0
3186,64.0,0.0,90.0,3.0,0.0
3187,67.0,12.0,90.0,2.0,0.0
3188,74.0,36.0,60.0,0.0,0.0
3189,86.0,72.0,40.0,0.0,0.0
3190,69.0,12.0,90.0,2.0,0.0
3191,72.0,36.0,60.0,0.0,0.0
3192,66.0,0.0,90.0,3.0,0.0
3193,84.0,72.0,40.0,0.0,0.0
3194,67.0,12.0,90.0,3.0,0.0
3195,71.0,36.0,60.0,0.0,0.0
3196,83.0,72.0,40.0,0.0,0.0
3197,74.0,48.0,60.0,0.0,0.0
3198,86.0,72.0,40.0,0.0,0.0
3199,67.0,48.0,60.0,0.0,0.0
3200,79.0,72.0,40.0,0.0,0.0
3201,59.0,12.0,90.0,3.0,0.0
3202,79.0,36.0,60.0,0.0,0.0
3203,62.0,24.0,180.0,2.0,0.0
3204,91.0,72.0,40.0,0.0,0.0
3205,78.0,12.0,60.0,0.0,0.0
3206,60.0,12.0,90.0,3.0,0.0
3207,90.0,72.0,40.0,0.0,0.0
3208,66.0,48.0,60.0,0.0,0.0
3209,78.0,72.0,40.0,0.0,0.0
3210,67.0,48.0,60.0,0.0,0.0
3211,79.0,72.0,40.0,0.0,0.0
3212,59.0,12.0,90.0,3.0,0.0
3213,79.0,36.0,60.0,0.0,0.0
3214,62.0,24.0,180.0,2.0,0.0
3215,91.0,72.0,40.0,0.0,0.0
3216,60.0,12.0,90.0,3.0,0.0
3217,78.0,12.0,60.0,0.0,0.0
3218,90.0,72.0,40.0,0.0,0.0
3219,66.0,48.0,60.0,0.0,0.0
3220,78.0,72.0,40.0,0.0,0.0
3221,67.0,48.0,60.0,0.0,0.0
3222,79.0,72.0,40.0,0.0,0.0
3223,74.0,36.0,60.0,0.0,0.0
3224,59.0,12.0,90.0,3.0,0.0
3225,62.0,24.0,180.0,2.0,0.0
3226,86.0,72.0,40.0,0.0,0.0
3227,54.0,12.0,90.0,3.0,0.0
3228,72.0,12.0,60.0,0.0,0.0
3229,84.0,72.0,40.0,0.0,0.0
3230,55.0,0.0,90.0,3.0,0.0
3231,71.0,36.0,60.0,0.0,0.0
3232,62.0,12.0,90.0,2.0,0.0
3233,83.0,72.0,40.0,0.0,0.0
3234,55.0,0.0,180.0,2.0,0.0
3235,59.0,36.0,180.0,1.0,0.0
3236,50.0,0.0,330.0,3.0,0.0
3237,71.0,48.0,60.0,0.0,0.0
3238,83.0,72.0,40.0,0.0,0.0
3239,74.0,12.0,60.0,0.0,0.0
3240,86.0,72.0,40.0,0.0,0.0
3241,69.0,36.0,60.0,0.0,0.0
3242,57.0,0.0,90.0,1.0,0.0
3243,54.0,12.0,90.0,2.0,0.0
3244,81.0,192.0,40.0,0.0,0.0
3245,65.0,12.0,90.0,1.0,0.0
3246,68.0,36.0,60.0,0.0,0.0
3247,62.0,36.0,390.0,2.0,0.0
3248,80.0,72.0,40.0,0.0,0.0
3249,69.0,36.0,60.0,0.0,0.0
3250,66.0,12.0,90.0,1.0,0.0
3251,81.0,72.0,40.0,0.0,0.0
3252,71.0,36.0,60.0,0.0,0.0
3253,67.0,12.0,90.0,1.0,0.0
3254,83.0,36.0,40.0,0.0,0.0
3255,69.0,12.0,90.0,1.0,0.0
3256,72.0,36.0,60.0,0.0,0.0
3257,84.0,72.0,40.0,0.0,0.0
3258,66.0,12.0,90.0,1.0,0.0
3259,62.0,36.0,390.0,2.0,0.0
3260,70.0,36.0,60.0,0.0,0.0
3261,82.0,72.0,40.0,0.0,0.0
3262,67.0,12.0,90.0,1.0,0.0
3263,71.0,36.0,60.0,0.0,0.0
3264,83.0,72.0,40.0,0.0,0.0
3265,70.0,12.0,90.0,1.0,0.0
3266,73.0,36.0,60.0,0.0,0.0
3267,85.0,36.0,40.0,0.0,0.0
3268,71.0,12.0,90.0,1.0,0.0
3269,74.0,36.0,60.0,0.0,0.0
3270,86.0,72.0,40.0,0.0,0.0
3271,53.0,12.0,90.0,2.0,0.0
3272,50.0,36.0,390.0,3.0,0.0
3273,68.0,36.0,60.0,0.0,0.0
3274,80.0,72.0,40.0,0.0,0.0
3275,54.0,12.0,90.0,2.0,0.0
3276,69.0,36.0,60.0,0.0,0.0
3277,81.0,72.0,40.0,0.0,0.0
3278,55.0,12.0,90.0,2.0,0.0
3279,71.0,36.0,60.0,0.0,0.0
3280,83.0,36.0,40.0,0.0,0.0
3281,72.0,36.0,60.0,0.0,0.0
3282,57.0,12.0,90.0,2.0,0.0
3283,84.0,72.0,40.0,0.0,0.0
3284,50.0,36.0,390.0,3.0,0.0
3285,70.0,36.0,60.0,0.0,0.0
3286,54.0,12.0,90.0,2.0,0.0
3287,82.0,72.0,40.0,0.0,0.0
3288,55.0,12.0,90.0,2.0,0.0
3289,71.0,36.0,60.0,0.0,0.0
3290,83.0,72.0,40.0,0.0,0.0
3291,58.0,12.0,90.0,2.0,0.0
3292,73.0,36.0,60.0,0.0,0.0
3293,85.0,36.0,40.0,0.0,0.0
3294,74.0,36.0,60.0,0.0,0.0
3295,59.0,12.0,90.0,2.0,0.0
3296,86.0,72.0,40.0,0.0,0.0
3297,50.0,36.0,390.0,3.0,0.0
3298,79.0,48.0,60.0,0.0,0.0
3299,91.0,72.0,40.0,0.0,0.0
3300,57.0,36.0,180.0,2.0,0.0
3301,78.0,48.0,60.0,0.0,0.0
3302,60.0,0.0,180.0,1.0,0.0
3303,90.0,72.0,40.0,0.0,0.0
3304,76.0,12.0,60.0,0.0,0.0
3305,88.0,36.0,40.0,0.0,0.0
3306,60.0,0.0,90.0,1.0,0.0
3307,57.0,12.0,90.0,2.0,0.0
3308,74.0,36.0,60.0,0.0,0.0
3309,86.0,72.0,40.0,0.0,0.0
3310,79.0,48.0,60.0,0.0,0.0
3311,48.0,36.0,390.0,3.0,0.0
3312,91.0,72.0,40.0,0.0,0.0
3313,78.0,48.0,60.0,0.0,0.0
3314,57.0,36.0,180.0,1.0,0.0
3315,50.0,0.0,180.0,2.0,0.0
3316,90.0,72.0,40.0,0.0,0.0
3317,76.0,12.0,60.0,0.0,0.0
3318,88.0,36.0,40.0,0.0,0.0
3319,74.0,36.0,60.0,0.0,0.0
3320,50.0,0.0,90.0,2.0,0.0
3321,57.0,12.0,90.0,1.0,0.0
3322,86.0,72.0,40.0,0.0,0.0
3323,79.0,48.0,60.0,0.0,0.0
3324,91.0,72.0,40.0,0.0,0.0
3325,74.0,36.0,60.0,0.0,0.0
3326,50.0,12.0,90.0,2.0,0.0
3327,55.0,0.0,90.0,1.0,0.0
3328,47.0,0.0,90.0,3.0,0.0
3329,86.0,72.0,40.0,0.0,0.0
3330,76.0,48.0,60.0,0.0,0.0
3331,88.0,72.0,40.0,0.0,0.0
3332,69.0,36.0,60.0,0.0,0.0
3333,48.0,0.0,90.0,3.0,0.0
3334,55.0,0.0,90.0,1.0,0.0
3335,52.0,12.0,90.0,2.0,0.0
3336,81.0,72.0,40.0,0.0,0.0
3337,74.0,48.0,60.0,0.0,0.0
3338,86.0,72.0,40.0,0.0,0.0
3339,55.0,0.0,90.0,2.0,0.0
3340,50.0,12.0,90.0,3.0,0.0
3341,59.0,0.0,90.0,1.0,0.0
3342,67.0,36.0,60.0,0.0,0.0
3343,79.0,72.0,40.0,0.0,0.0
3344,72.0,48.0,60.0,0.0,0.0
3345,84.0,72.0,40.0,0.0,0.0
3346,57.0,12.0,90.0,2.0,0.0
3347,66.0,36.0,60.0,0.0,0.0
3348,51.0,0.0,90.0,3.0,0.0
3349,60.0,0.0,90.0,1.0,0.0
3350,78.0,72.0,40.0,0.0,0.0
3351,55.0,0.0,390.0,2.0,0.0
3352,58.0,0.0,390.0,2.0,0.0
3353,67.0,48.0,60.0,0.0,0.0
3354,61.0,0.0,390.0,1.0,0.0
3355,52.0,36.0,390.0,3.0,0.0
3356,79.0,72.0,40.0,0.0,0.0
3357,70.0,48.0,60.0,0.0,0.0
3358,82.0,72.0,40.0,0.0,0.0
3359,73.0,48.0,60.0,0.0,0.0
3360,85.0,36.0,40.0,0.0,0.0
3361,76.0,48.0,60.0,0.0,0.0
3362,88.0,72.0,40.0,0.0,0.0
3363,79.0,36.0,60.0,0.0,0.0
3364,51.0,0.0,90.0,3.0,0.0
3365,57.0,0.0,90.0,2.0,0.0
3366,60.0,12.0,90.0,1.0,0.0
3367,91.0,72.0,40.0,0.0,0.0
3368,60.0,0.0,300.0,1.0,0.0
3369,50.0,0.0,300.0,3.0,0.0
3370,54.0,0.0,300.0,2.0,0.0
3371,57.0,12.0,300.0,2.0,0.0
3372,78.0,48.0,60.0,0.0,0.0
3373,90.0,72.0,40.0,0.0,0.0
3374,76.0,48.0,60.0,0.0,0.0
3375,88.0,60.0,40.0,0.0,0.0
3376,74.0,48.0,60.0,0.0,0.0
3377,86.0,72.0,40.0,0.0,0.0
3378,49.0,12.0,90.0,3.0,0.0
3379,52.0,0.0,90.0,2.0,0.0
3380,79.0,36.0,60.0,0.0,0.0
3381,58.0,0.0,90.0,1.0,0.0
3382,91.0,72.0,40.0,0.0,0.0
3383,48.0,0.0,300.0,3.0,0.0
3384,50.0,0.0,300.0,2.0,0.0
3385,54.0,0.0,300.0,2.0,0.0
3386,57.0,12.0,300.0,1.0,0.0
3387,78.0,48.0,60.0,0.0,0.0
3388,90.0,72.0,40.0,0.0,0.0
3389,76.0,48.0,60.0,0.0,0.0
3390,88.0,60.0,40.0,0.0,0.0
3391,74.0,48.0,60.0,0.0,0.0
3392,86.0,72.0,40.0,0.0,0.0
3393,79.0,48.0,60.0,0.0,0.0
3394,47.0,36.0,180.0,3.0,0.0
3395,91.0,72.0,40.0,0.0,0.0
3396,75.0,12.0,60.0,0.0,0.0
3397,55.0,24.0,180.0,2.0,0.0
3398,87.0,72.0,40.0,0.0,0.0
3399,48.0,12.0,90.0,3.0,0.0
3400,76.0,12.0,60.0,0.0,0.0
3401,88.0,72.0,40.0,0.0,0.0
3402,55.0,12.0,210.0,2.0,0.0
3403,49.0,12.0,90.0,3.0,0.0
3404,69.0,36.0,60.0,0.0,0.0
3405,81.0,72.0,40.0,0.0,0.0
3406,74.0,36.0,60.0,0.0,0.0
3407,86.0,72.0,40.0,0.0,0.0
3408,59.0,12.0,90.0,2.0,0.0
3409,67.0,36.0,60.0,0.0,0.0
3410,79.0,72.0,40.0,0.0,0.0
3411,72.0,36.0,60.0,0.0,0.0
3412,57.0,12.0,90.0,2.0,0.0
3413,84.0,72.0,40.0,0.0,0.0
3414,60.0,12.0,90.0,2.0,0.0
3415,66.0,36.0,60.0,0.0,0.0
3416,78.0,60.0,40.0,0.0,0.0
3417,55.0,12.0,90.0,3.0,0.0
3418,67.0,48.0,40.0,0.0,0.0
3419,59.0,0.0,90.0,2.0,0.0
3420,79.0,108.0,40.0,0.0,0.0
3421,50.0,120.0,90.0,3.0,0.0
3422,43.0,204.0,90.0,3.0,0.0
3423,65.0,12.0,90.0,1.0,0.0
3424,68.0,36.0,60.0,0.0,0.0
3425,62.0,36.0,390.0,2.0,0.0
3426,80.0,72.0,40.0,0.0,0.0
3427,66.0,12.0,90.0,1.0,0.0
3428,69.0,36.0,60.0,0.0,0.0
3429,81.0,72.0,40.0,0.0,0.0
3430,67.0,12.0,90.0,1.0,0.0
3431,71.0,36.0,60.0,0.0,0.0
3432,83.0,36.0,40.0,0.0,0.0
3433,72.0,36.0,60.0,0.0,0.0
3434,69.0,12.0,90.0,1.0,0.0
3435,84.0,72.0,40.0,0.0,0.0
3436,66.0,12.0,90.0,1.0,0.0
3437,62.0,36.0,390.0,2.0,0.0
3438,70.0,36.0,60.0,0.0,0.0
3439,82.0,72.0,40.0,0.0,0.0
3440,67.0,12.0,90.0,1.0,0.0
3441,71.0,36.0,60.0,0.0,0.0
3442,83.0,72.0,40.0,0.0,0.0
3443,70.0,12.0,90.0,1.0,0.0
3444,73.0,36.0,60.0,0.0,0.0
3445,85.0,36.0,40.0,0.0,0.0
3446,71.0,12.0,90.0,1.0,0.0
3447,74.0,36.0,60.0,0.0,0.0
3448,86.0,72.0,40.0,0.0,0.0
3449,50.0,36.0,390.0,3.0,0.0
3450,53.0,12.0,90.0,2.0,0.0
3451,68.0,36.0,60.0,0.0,0.0
3452,80.0,72.0,40.0,0.0,0.0
3453,69.0,36.0,60.0,0.0,0.0
3454,54.0,12.0,90.0,2.0,0.0
3455,81.0,72.0,40.0,0.0,0.0
3456,71.0,36.0,60.0,0.0,0.0
3457,55.0,12.0,90.0,2.0,0.0
3458,83.0,36.0,40.0,0.0,0.0
3459,57.0,12.0,90.0,2.0,0.0
3460,72.0,36.0,60.0,0.0,0.0
3461,84.0,72.0,40.0,0.0,0.0
3462,54.0,12.0,90.0,2.0,0.0
3463,70.0,36.0,60.0,0.0,0.0
3464,50.0,36.0,390.0,3.0,0.0
3465,82.0,72.0,40.0,0.0,0.0
3466,71.0,36.0,60.0,0.0,0.0
3467,55.0,12.0,90.0,2.0,0.0
3468,83.0,72.0,40.0,0.0,0.0
3469,58.0,12.0,90.0,2.0,0.0
3470,73.0,36.0,60.0,0.0,0.0
3471,85.0,36.0,40.0,0.0,0.0
3472,59.0,12.0,90.0,2.0,0.0
3473,74.0,36.0,60.0,0.0,0.0
3474,86.0,72.0,40.0,0.0,0.0
3475,50.0,36.0,390.0,3.0,0.0
3476,79.0,48.0,60.0,0.0,0.0
3477,91.0,72.0,40.0,0.0,0.0
3478,78.0,48.0,60.0,0.0,0.0
3479,60.0,0.0,180.0,1.0,0.0
3480,57.0,36.0,180.0,2.0,0.0
3481,90.0,72.0,40.0,0.0,0.0
3482,76.0,12.0,60.0,0.0,0.0
3483,88.0,36.0,40.0,0.0,0.0
3484,60.0,12.0,90.0,1.0,0.0
3485,57.0,0.0,90.0,2.0,0.0
3486,74.0,36.0,60.0,0.0,0.0
3487,86.0,72.0,40.0,0.0,0.0
3488,79.0,48.0,60.0,0.0,0.0
3489,48.0,36.0,390.0,3.0,0.0
3490,91.0,72.0,40.0,0.0,0.0
3491,57.0,36.0,180.0,1.0,0.0
3492,78.0,48.0,60.0,0.0,0.0
3493,50.0,0.0,180.0,2.0,0.0
3494,90.0,72.0,40.0,0.0,0.0
3495,76.0,12.0,60.0,0.0,0.0
3496,88.0,36.0,40.0,0.0,0.0
3497,57.0,0.0,90.0,1.0,0.0
3498,50.0,12.0,90.0,2.0,0.0
3499,74.0,36.0,60.0,0.0,0.0
3500,86.0,72.0,40.0,0.0,0.0
3501,79.0,48.0,60.0,0.0,0.0
3502,91.0,72.0,40.0,0.0,0.0
3503,74.0,36.0,60.0,0.0,0.0
3504,47.0,12.0,90.0,3.0,0.0
3505,55.0,0.0,90.0,1.0,0.0
3506,50.0,0.0,90.0,2.0,0.0
3507,86.0,72.0,40.0,0.0,0.0
3508,76.0,48.0,60.0,0.0,0.0
3509,88.0,72.0,40.0,0.0,0.0
3510,48.0,0.0,90.0,3.0,0.0
3511,52.0,0.0,90.0,2.0,0.0
3512,69.0,36.0,60.0,0.0,0.0
3513,55.0,12.0,90.0,1.0,0.0
3514,81.0,72.0,40.0,0.0,0.0
3515,74.0,48.0,60.0,0.0,0.0
3516,86.0,72.0,40.0,0.0,0.0
3517,55.0,12.0,90.0,2.0,0.0
3518,50.0,0.0,90.0,3.0,0.0
3519,67.0,36.0,60.0,0.0,0.0
3520,59.0,0.0,90.0,1.0,0.0
3521,79.0,72.0,40.0,0.0,0.0
3522,72.0,48.0,60.0,0.0,0.0
3523,84.0,72.0,40.0,0.0,0.0
3524,66.0,36.0,60.0,0.0,0.0
3525,51.0,12.0,90.0,3.0,0.0
3526,57.0,0.0,90.0,2.0,0.0
3527,60.0,0.0,90.0,1.0,0.0
3528,78.0,72.0,40.0,0.0,0.0
3529,67.0,48.0,60.0,0.0,0.0
3530,55.0,0.0,390.0,2.0,0.0
3531,58.0,36.0,390.0,2.0,0.0
3532,52.0,0.0,390.0,3.0,0.0
3533,61.0,0.0,390.0,1.0,0.0
3534,79.0,72.0,40.0,0.0,0.0
3535,70.0,48.0,60.0,0.0,0.0
3536,82.0,72.0,40.0,0.0,0.0
3537,73.0,48.0,60.0,0.0,0.0
3538,85.0,36.0,40.0,0.0,0.0
3539,76.0,48.0,60.0,0.0,0.0
3540,88.0,72.0,40.0,0.0,0.0
3541,51.0,0.0,90.0,3.0,0.0
3542,57.0,0.0,90.0,2.0,0.0
3543,79.0,36.0,60.0,0.0,0.0
3544,60.0,12.0,90.0,1.0,0.0
3545,91.0,72.0,40.0,0.0,0.0
3546,78.0,48.0,60.0,0.0,0.0
3547,54.0,0.0,300.0,2.0,0.0
3548,50.0,0.0,300.0,3.0,0.0
3549,60.0,12.0,300.0,1.0,0.0
3550,57.0,0.0,300.0,2.0,0.0
3551,90.0,72.0,40.0,0.0,0.0
3552,76.0,48.0,60.0,0.0,0.0
3553,88.0,60.0,40.0,0.0,0.0
3554,74.0,48.0,60.0,0.0,0.0
3555,86.0,72.0,40.0,0.0,0.0
3556,49.0,12.0,90.0,3.0,0.0
3557,52.0,0.0,90.0,2.0,0.0
3558,79.0,36.0,60.0,0.0,0.0
3559,58.0,0.0,90.0,1.0,0.0
3560,91.0,72.0,40.0,0.0,0.0
3561,78.0,48.0,60.0,0.0,0.0
3562,57.0,0.0,300.0,1.0,0.0
3563,50.0,0.0,300.0,2.0,0.0
3564,54.0,0.0,300.0,2.0,0.0
3565,48.0,12.0,300.0,3.0,0.0
3566,90.0,72.0,40.0,0.0,0.0
3567,76.0,48.0,60.0,0.0,0.0
3568,88.0,60.0,40.0,0.0,0.0
3569,74.0,48.0,60.0,0.0,0.0
3570,86.0,72.0,40.0,0.0,0.0
3571,79.0,48.0,60.0,0.0,0.0
3572,47.0,36.0,180.0,3.0,0.0
3573,91.0,72.0,40.0,0.0,0.0
3574,55.0,24.0,180.0,2.0,0.0
3575,75.0,12.0,60.0,0.0,0.0
3576,87.0,72.0,40.0,0.0,0.0
3577,48.0,12.0,90.0,3.0,0.0
3578,76.0,12.0,60.0,0.0,0.0
3579,88.0,72.0,40.0,0.0,0.0
3580,49.0,12.0,90.0,3.0,0.0
3581,69.0,36.0,60.0,0.0,0.0
3582,55.0,12.0,210.0,2.0,0.0
3583,81.0,72.0,40.0,0.0,0.0
3584,74.0,36.0,60.0,0.0,0.0
3585,86.0,72.0,40.0,0.0,0.0
3586,59.0,12.0,90.0,2.0,0.0
3587,67.0,36.0,60.0,0.0,0.0
3588,79.0,72.0,40.0,0.0,0.0
3589,72.0,36.0,60.0,0.0,0.0
3590,57.0,12.0,90.0,2.0,0.0
3591,84.0,72.0,40.0,0.0,0.0
3592,60.0,12.0,90.0,2.0,0.0
3593,66.0,36.0,60.0,0.0,0.0
3594,78.0,60.0,40.0,0.0,0.0
3595,67.0,48.0,40.0,0.0,0.0
3596,59.0,0.0,90.0,2.0,0.0
3597,55.0,12.0,90.0,3.0,0.0
3598,79.0,108.0,40.0,0.0,0.0
3599,50.0,120.0,90.0,3.0,0.0
3600,43.0,204.0,90.0,3.0,0.0
3601,71.0,48.0,180.0,1.0,0.0
3602,43.0,60.0,60.0,3.0,0.0
3603,74.0,0.0,180.0,0.0,0.0
3604,55.0,60.0,60.0,3.0,0.0
3605,42.0,12.0,60.0,3.0,0.0
3606,54.0,60.0,60.0,3.0,0.0
3607,71.0,24.0,90.0,0.0,0.0
3608,43.0,36.0,60.0,3.0,0.0
3609,67.0,0.0,90.0,1.0,0.0
3610,55.0,60.0,60.0,3.0,0.0
3611,71.0,0.0,90.0,0.0,0.0
3612,67.0,24.0,90.0,1.0,0.0
3613,42.0,36.0,60.0,3.0,0.0
3614,54.0,60.0,60.0,3.0,0.0
3615,43.0,60.0,60.0,3.0,0.0
3616,71.0,0.0,300.0,0.0,0.0
3617,67.0,12.0,300.0,1.0,0.0
3618,55.0,60.0,60.0,3.0,0.0
3619,42.0,60.0,60.0,3.0,0.0
3620,54.0,48.0,60.0,3.0,0.0
3621,40.0,60.0,60.0,3.0,0.0
3622,52.0,60.0,60.0,3.0,0.0
3623,38.0,36.0,60.0,3.0,0.0
3624,67.0,24.0,90.0,0.0,0.0
3625,50.0,60.0,60.0,3.0,0.0
3626,36.0,36.0,60.0,3.0,0.0
3627,67.0,0.0,90.0,1.0,0.0
3628,69.0,24.0,90.0,0.0,0.0
3629,48.0,60.0,60.0,3.0,0.0
3630,67.0,24.0,90.0,1.0,0.0
3631,69.0,0.0,90.0,0.0,0.0
3632,37.0,36.0,60.0,3.0,0.0
3633,49.0,60.0,60.0,3.0,0.0
3634,69.0,24.0,90.0,0.0,0.0
3635,67.0,24.0,180.0,1.0,0.0
3636,38.0,36.0,60.0,3.0,0.0
3637,50.0,60.0,60.0,3.0,0.0
3638,39.0,12.0,60.0,3.0,0.0
3639,71.0,24.0,90.0,0.0,0.0
3640,51.0,60.0,60.0,3.0,0.0
3641,74.0,24.0,90.0,0.0,0.0
3642,40.0,36.0,60.0,3.0,0.0
3643,67.0,0.0,90.0,1.0,0.0
3644,52.0,24.0,60.0,3.0,0.0
3645,69.0,18.0,90.0,1.0,0.0
3646,74.0,30.0,20.0,0.0,0.0
3647,42.0,24.0,60.0,3.0,0.0
3648,72.0,6.0,20.0,0.0,0.0
3649,54.0,60.0,60.0,3.0,0.0
3650,71.0,12.0,20.0,0.0,0.0
3651,72.0,6.0,20.0,0.0,0.0
3652,71.0,0.0,90.0,0.0,0.0
3653,67.0,24.0,90.0,1.0,0.0
3654,43.0,36.0,60.0,3.0,0.0
3655,55.0,60.0,60.0,3.0,0.0
3656,50.0,60.0,60.0,3.0,0.0
3657,62.0,60.0,60.0,3.0,0.0
3658,43.0,60.0,60.0,3.0,0.0
3659,74.0,12.0,300.0,0.0,0.0
3660,71.0,48.0,180.0,1.0,0.0
3661,55.0,60.0,15.0,3.0,0.0
3662,67.0,48.0,60.0,3.0,0.0
3663,72.0,24.0,90.0,1.0,0.0
3664,54.0,36.0,60.0,3.0,0.0
3665,66.0,48.0,60.0,3.0,0.0
3666,78.0,12.0,40.0,0.0,0.0
3667,69.0,12.0,90.0,1.0,0.0
3668,48.0,36.0,60.0,3.0,0.0
3669,60.0,48.0,60.0,3.0,0.0
3670,74.0,12.0,40.0,0.0,0.0
3671,79.0,12.0,40.0,0.0,0.0
3672,67.0,12.0,90.0,1.0,0.0
3673,47.0,36.0,60.0,3.0,0.0
3674,74.0,12.0,40.0,0.0,0.0
3675,59.0,60.0,60.0,3.0,0.0
3676,55.0,36.0,60.0,3.0,0.0
3677,74.0,24.0,180.0,0.0,0.0
3678,71.0,24.0,90.0,1.0,0.0
3679,67.0,60.0,60.0,3.0,0.0
3680,72.0,24.0,90.0,1.0,0.0
3681,54.0,12.0,60.0,3.0,0.0
3682,66.0,48.0,60.0,3.0,0.0
3683,78.0,12.0,40.0,0.0,0.0
3684,69.0,12.0,90.0,1.0,0.0
3685,48.0,36.0,60.0,3.0,0.0
3686,60.0,60.0,60.0,3.0,0.0
3687,74.0,12.0,40.0,0.0,0.0
3688,47.0,36.0,60.0,3.0,0.0
3689,79.0,24.0,90.0,0.0,0.0
3690,67.0,0.0,90.0,1.0,0.0
3691,59.0,60.0,60.0,3.0,0.0
3692,71.0,24.0,90.0,1.0,0.0
3693,43.0,36.0,60.0,3.0,0.0
3694,74.0,0.0,90.0,0.0,0.0
3695,55.0,60.0,60.0,3.0,0.0
3696,48.0,36.0,60.0,3.0,0.0
3697,69.0,24.0,90.0,1.0,0.0
3698,72.0,0.0,90.0,0.0,0.0
3699,60.0,60.0,60.0,3.0,0.0
3700,49.0,36.0,60.0,3.0,0.0
3701,67.0,0.0,90.0,1.0,0.0
3702,71.0,24.0,90.0,0.0,0.0
3703,61.0,60.0,60.0,3.0,0.0
3704,71.0,0.0,180.0,0.0,0.0
3705,50.0,60.0,60.0,3.0,0.0
3706,67.0,48.0,180.0,1.0,0.0
3707,62.0,60.0,60.0,3.0,0.0
3708,49.0,12.0,60.0,3.0,0.0
3709,61.0,60.0,60.0,3.0,0.0
3710,69.0,24.0,90.0,0.0,0.0
3711,66.0,0.0,90.0,1.0,0.0
3712,50.0,36.0,60.0,3.0,0.0
3713,54.0,60.0,60.0,3.0,0.0
3714,57.0,60.0,60.0,3.0,0.0
3715,62.0,60.0,60.0,3.0,0.0
3716,43.0,60.0,60.0,3.0,0.0
3717,71.0,0.0,180.0,1.0,0.0
3718,74.0,48.0,180.0,0.0,0.0
3719,55.0,60.0,60.0,3.0,0.0
3720,42.0,12.0,60.0,3.0,0.0
3721,54.0,60.0,60.0,3.0,0.0
3722,71.0,0.0,90.0,0.0,0.0
3723,67.0,24.0,90.0,1.0,0.0
3724,43.0,36.0,60.0,3.0,0.0
3725,55.0,60.0,60.0,3.0,0.0
3726,42.0,36.0,60.0,3.0,0.0
3727,67.0,24.0,90.0,1.0,0.0
3728,71.0,0.0,90.0,0.0,0.0
3729,54.0,60.0,60.0,3.0,0.0
3730,43.0,60.0,60.0,3.0,0.0
3731,67.0,0.0,300.0,1.0,0.0
3732,71.0,12.0,300.0,0.0,0.0
3733,55.0,60.0,60.0,3.0,0.0
3734,42.0,60.0,60.0,3.0,0.0
3735,54.0,48.0,60.0,3.0,0.0
3736,40.0,60.0,60.0,3.0,0.0
3737,52.0,60.0,60.0,3.0,0.0
3738,67.0,24.0,90.0,0.0,0.0
3739,38.0,36.0,60.0,3.0,0.0
3740,50.0,60.0,60.0,3.0,0.0
3741,69.0,0.0,90.0,0.0,0.0
3742,67.0,24.0,90.0,1.0,0.0
3743,36.0,36.0,60.0,3.0,0.0
3744,48.0,60.0,60.0,3.0,0.0
3745,37.0,36.0,60.0,3.0,0.0
3746,69.0,24.0,90.0,0.0,0.0
3747,67.0,0.0,90.0,1.0,0.0
3748,49.0,60.0,60.0,3.0,0.0
3749,67.0,24.0,180.0,1.0,0.0
3750,38.0,36.0,60.0,3.0,0.0
3751,69.0,24.0,90.0,0.0,0.0
3752,50.0,60.0,60.0,3.0,0.0
3753,39.0,12.0,60.0,3.0,0.0
3754,71.0,24.0,90.0,0.0,0.0
3755,51.0,60.0,60.0,3.0,0.0
3756,40.0,36.0,60.0,3.0,0.0
3757,67.0,0.0,90.0,1.0,0.0
3758,74.0,24.0,90.0,0.0,0.0
3759,52.0,24.0,60.0,3.0,0.0
3760,42.0,24.0,60.0,3.0,0.0
3761,74.0,30.0,20.0,0.0,0.0
3762,69.0,18.0,90.0,1.0,0.0
3763,72.0,6.0,20.0,0.0,0.0
3764,71.0,12.0,20.0,0.0,0.0
3765,54.0,60.0,60.0,3.0,0.0
3766,72.0,6.0,20.0,0.0,0.0
3767,71.0,24.0,90.0,0.0,0.0
3768,67.0,0.0,90.0,1.0,0.0
3769,43.0,36.0,60.0,3.0,0.0
3770,55.0,60.0,60.0,3.0,0.0
3771,50.0,60.0,60.0,3.0,0.0
3772,62.0,60.0,60.0,3.0,0.0
3773,71.0,48.0,180.0,1.0,0.0
3774,43.0,60.0,60.0,3.0,0.0
3775,74.0,12.0,300.0,0.0,0.0
3776,55.0,60.0,60.0,3.0,0.0
3777,55.0,12.0,60.0,3.0,0.0
3778,67.0,48.0,60.0,3.0,0.0
3779,54.0,36.0,60.0,3.0,0.0
3780,72.0,24.0,90.0,1.0,0.0
3781,66.0,48.0,60.0,3.0,0.0
3782,78.0,12.0,40.0,0.0,0.0
3783,69.0,12.0,90.0,1.0,0.0
3784,48.0,36.0,60.0,3.0,0.0
3785,74.0,12.0,40.0,0.0,0.0
3786,60.0,48.0,60.0,3.0,0.0
3787,47.0,36.0,60.0,3.0,0.0
3788,67.0,12.0,90.0,1.0,0.0
3789,79.0,12.0,40.0,0.0,0.0
3790,59.0,60.0,60.0,3.0,0.0
3791,74.0,12.0,40.0,0.0,0.0
3792,71.0,24.0,90.0,1.0,0.0
3793,55.0,36.0,60.0,3.0,0.0
3794,74.0,24.0,180.0,0.0,0.0
3795,67.0,60.0,60.0,3.0,0.0
3796,72.0,24.0,90.0,1.0,0.0
3797,54.0,12.0,60.0,3.0,0.0
3798,66.0,48.0,60.0,3.0,0.0
3799,48.0,36.0,60.0,3.0,0.0
3800,69.0,12.0,90.0,1.0,0.0
3801,78.0,12.0,40.0,0.0,0.0
3802,74.0,12.0,40.0,0.0,0.0
3803,60.0,60.0,60.0,3.0,0.0
3804,67.0,0.0,90.0,1.0,0.0
3805,47.0,36.0,60.0,3.0,0.0
3806,79.0,24.0,90.0,0.0,0.0
3807,59.0,60.0,60.0,3.0,0.0
3808,71.0,0.0,90.0,1.0,0.0
3809,74.0,24.0,90.0,0.0,0.0
3810,43.0,36.0,60.0,3.0,0.0
3811,55.0,60.0,60.0,3.0,0.0
3812,72.0,24.0,90.0,0.0,0.0
3813,69.0,0.0,90.0,1.0,0.0
3814,48.0,36.0,60.0,3.0,0.0
3815,60.0,60.0,60.0,3.0,0.0
3816,49.0,36.0,60.0,3.0,0.0
3817,67.0,24.0,90.0,1.0,0.0
3818,71.0,0.0,90.0,0.0,0.0
3819,61.0,60.0,60.0,3.0,0.0
3820,50.0,60.0,60.0,3.0,0.0
3821,71.0,48.0,180.0,0.0,0.0
3822,67.0,0.0,180.0,1.0,0.0
3823,62.0,60.0,60.0,3.0,0.0
3824,49.0,12.0,60.0,3.0,0.0
3825,61.0,60.0,60.0,3.0,0.0
3826,66.0,0.0,90.0,1.0,0.0
3827,69.0,24.0,90.0,0.0,0.0
3828,50.0,36.0,60.0,3.0,0.0
3829,54.0,60.0,60.0,3.0,0.0
3830,57.0,60.0,60.0,3.0,0.0
3831,62.0,60.0,60.0,3.0,0.0
3832,66.0,24.0,90.0,1.0,0.0
3833,38.0,36.0,60.0,3.0,0.0
3834,62.0,0.0,90.0,2.0,0.0
3835,69.0,0.0,90.0,0.0,0.0
3836,50.0,60.0,60.0,3.0,0.0
3837,40.0,36.0,60.0,3.0,0.0
3838,61.0,0.0,90.0,2.0,0.0
3839,67.0,24.0,90.0,1.0,0.0
3840,69.0,0.0,90.0,0.0,0.0
3841,52.0,60.0,60.0,3.0,0.0
3842,42.0,36.0,60.0,3.0,0.0
3843,69.0,24.0,90.0,0.0,0.0
3844,62.0,0.0,90.0,2.0,0.0
3845,66.0,0.0,90.0,1.0,0.0
3846,54.0,60.0,60.0,3.0,0.0
3847,69.0,24.0,90.0,1.0,0.0
3848,74.0,0.0,90.0,0.0,0.0
3849,38.0,36.0,60.0,3.0,0.0
3850,66.0,0.0,90.0,1.0,0.0
3851,62.0,0.0,90.0,2.0,0.0
3852,50.0,60.0,60.0,3.0,0.0
3853,43.0,60.0,60.0,3.0,0.0
3854,72.0,48.0,180.0,0.0,0.0
3855,69.0,0.0,180.0,1.0,0.0
3856,62.0,0.0,180.0,2.0,0.0
3857,55.0,60.0,60.0,3.0,0.0
3858,45.0,12.0,60.0,3.0,0.0
3859,57.0,60.0,60.0,3.0,0.0
3860,67.0,0.0,90.0,1.0,0.0
3861,47.0,36.0,60.0,3.0,0.0
3862,71.0,24.0,90.0,0.0,0.0
3863,59.0,60.0,60.0,3.0,0.0
3864,49.0,36.0,60.0,3.0,0.0
3865,79.0,0.0,210.0,0.0,0.0
3866,71.0,24.0,90.0,1.0,0.0
3867,61.0,60.0,60.0,3.0,0.0
3868,69.0,24.0,90.0,1.0,0.0
3869,50.0,36.0,60.0,3.0,0.0
3870,62.0,48.0,60.0,3.0,0.0
3871,78.0,12.0,40.0,0.0,0.0
3872,67.0,12.0,90.0,1.0,0.0
3873,73.0,0.0,90.0,1.0,0.0
3874,52.0,36.0,60.0,3.0,0.0
3875,76.0,12.0,40.0,0.0,0.0
3876,64.0,60.0,60.0,3.0,0.0
3877,54.0,36.0,60.0,3.0,0.0
3878,74.0,0.0,90.0,0.0,0.0
3879,69.0,24.0,90.0,1.0,0.0
3880,66.0,60.0,60.0,3.0,0.0
3881,50.0,36.0,60.0,3.0,0.0
3882,86.0,24.0,90.0,0.0,0.0
3883,78.0,0.0,90.0,1.0,0.0
3884,62.0,60.0,60.0,3.0,0.0
3885,84.0,48.0,180.0,0.0,0.0
3886,55.0,60.0,60.0,3.0,0.0
3887,74.0,0.0,180.0,1.0,0.0
3888,81.0,0.0,180.0,1.0,0.0
3889,67.0,60.0,60.0,3.0,0.0
3890,50.0,12.0,60.0,3.0,0.0
3891,62.0,60.0,60.0,3.0,0.0
3892,79.0,0.0,90.0,1.0,0.0
3893,74.0,24.0,90.0,1.0,0.0
3894,83.0,0.0,90.0,0.0,0.0
3895,47.0,36.0,60.0,3.0,0.0
3896,59.0,60.0,60.0,3.0,0.0
3897,74.0,24.0,90.0,0.0,0.0
3898,43.0,36.0,60.0,3.0,0.0
3899,55.0,60.0,60.0,3.0,0.0
3900,38.0,36.0,60.0,3.0,0.0
3901,79.0,24.0,90.0,0.0,0.0
3902,69.0,36.0,390.0,2.0,0.0
3903,72.0,0.0,390.0,1.0,0.0
3904,78.0,48.0,180.0,0.0,0.0
3905,50.0,60.0,15.0,3.0,0.0
3906,62.0,60.0,60.0,3.0,0.0
3907,51.0,12.0,60.0,3.0,0.0
3908,63.0,24.0,60.0,3.0,0.0
3909,39.0,36.0,60.0,3.0,0.0
3910,81.0,24.0,90.0,0.0,0.0
3911,51.0,60.0,60.0,3.0,0.0
3912,72.0,0.0,300.0,1.0,0.0
3913,79.0,24.0,90.0,0.0,0.0
3914,69.0,12.0,300.0,2.0,0.0
3915,38.0,36.0,60.0,3.0,0.0
3916,78.0,48.0,180.0,0.0,0.0
3917,50.0,60.0,15.0,3.0,0.0
3918,62.0,48.0,60.0,3.0,0.0
3919,48.0,12.0,60.0,3.0,0.0
3920,60.0,48.0,60.0,3.0,0.0
3921,36.0,36.0,60.0,3.0,0.0
3922,76.0,12.0,40.0,0.0,0.0
3923,66.0,0.0,90.0,2.0,0.0
3924,69.0,12.0,90.0,1.0,0.0
3925,48.0,60.0,60.0,3.0,0.0
3926,74.0,12.0,40.0,0.0,0.0
3927,35.0,36.0,60.0,3.0,0.0
3928,79.0,24.0,90.0,0.0,0.0
3929,67.0,12.0,300.0,1.0,0.0
3930,47.0,60.0,15.0,3.0,0.0
3931,74.0,24.0,90.0,0.0,0.0
3932,59.0,48.0,60.0,3.0,0.0
3933,36.0,36.0,60.0,3.0,0.0
3934,76.0,24.0,90.0,0.0,0.0
3935,48.0,48.0,60.0,3.0,0.0
3936,74.0,12.0,40.0,0.0,0.0
3937,69.0,12.0,90.0,1.0,0.0
3938,48.0,36.0,60.0,3.0,0.0
3939,60.0,60.0,60.0,3.0,0.0
3940,72.0,12.0,40.0,0.0,0.0
3941,71.0,48.0,180.0,0.0,0.0
3942,67.0,12.0,300.0,1.0,0.0
3943,50.0,60.0,60.0,3.0,0.0
3944,62.0,60.0,60.0,3.0,0.0
3945,49.0,12.0,60.0,3.0,0.0
3946,61.0,48.0,60.0,3.0,0.0
3947,69.0,24.0,90.0,0.0,0.0
3948,50.0,36.0,60.0,3.0,0.0
3949,62.0,60.0,60.0,3.0,0.0
3950,74.0,0.0,90.0,0.0,0.0
3951,38.0,36.0,60.0,3.0,0.0
3952,66.0,24.0,90.0,1.0,0.0
3953,50.0,60.0,60.0,3.0,0.0
3954,72.0,24.0,90.0,0.0,0.0
3955,66.0,0.0,180.0,1.0,0.0
3956,69.0,48.0,180.0,1.0,0.0
3957,39.0,36.0,60.0,3.0,0.0
3958,51.0,60.0,60.0,3.0,0.0
3959,51.0,12.0,60.0,3.0,0.0
3960,71.0,24.0,180.0,0.0,0.0
3961,63.0,60.0,60.0,3.0,0.0
3962,67.0,24.0,90.0,1.0,0.0
3963,52.0,12.0,60.0,3.0,0.0
3964,64.0,60.0,60.0,3.0,0.0
3965,79.0,24.0,210.0,0.0,0.0
3966,70.0,24.0,90.0,1.0,0.0
3967,73.0,0.0,90.0,1.0,0.0
3968,40.0,36.0,60.0,3.0,0.0
3969,52.0,60.0,60.0,3.0,0.0
3970,38.0,36.0,60.0,3.0,0.0
3971,72.0,0.0,390.0,1.0,0.0
3972,69.0,36.0,390.0,2.0,0.0
3973,78.0,48.0,180.0,0.0,0.0
3974,50.0,60.0,15.0,3.0,0.0
3975,62.0,60.0,60.0,3.0,0.0
3976,51.0,12.0,60.0,3.0,0.0
3977,63.0,24.0,60.0,3.0,0.0
3978,81.0,24.0,90.0,0.0,0.0
3979,39.0,36.0,60.0,3.0,0.0
3980,51.0,60.0,60.0,3.0,0.0
3981,69.0,12.0,300.0,2.0,0.0
3982,72.0,0.0,300.0,1.0,0.0
3983,79.0,24.0,90.0,0.0,0.0
3984,38.0,36.0,60.0,3.0,0.0
3985,50.0,60.0,60.0,3.0,0.0
3986,78.0,48.0,180.0,0.0,0.0
3987,50.0,60.0,60.0,3.0,0.0
3988,62.0,48.0,60.0,3.0,0.0
3989,48.0,12.0,60.0,3.0,0.0
3990,60.0,48.0,60.0,3.0,0.0
3991,84.0,12.0,40.0,0.0,0.0
3992,36.0,36.0,60.0,3.0,0.0
3993,74.0,12.0,90.0,1.0,0.0
3994,48.0,48.0,60.0,3.0,0.0
3995,78.0,12.0,40.0,0.0,0.0
3996,35.0,48.0,60.0,3.0,0.0
3997,74.0,36.0,180.0,1.0,0.0
3998,79.0,12.0,40.0,0.0,0.0
3999,47.0,48.0,60.0,3.0,0.0
4000,78.0,12.0,40.0,0.0,0.0
4001,79.0,12.0,40.0,0.0,0.0
4002,47.0,12.0,60.0,3.0,0.0
4003,74.0,12.0,40.0,0.0,0.0
4004,59.0,48.0,60.0,3.0,0.0
4005,78.0,12.0,40.0,0.0,0.0
4006,36.0,36.0,60.0,3.0,0.0
4007,72.0,12.0,90.0,1.0,0.0
4008,48.0,48.0,60.0,3.0,0.0
4009,76.0,12.0,40.0,0.0,0.0
4010,71.0,0.0,40.0,1.0,0.0
4011,74.0,12.0,40.0,0.0,0.0
4012,48.0,48.0,60.0,3.0,0.0
4013,69.0,12.0,40.0,1.0,0.0
4014,72.0,0.0,40.0,0.0,0.0
4015,60.0,60.0,60.0,3.0,0.0
4016,50.0,60.0,60.0,3.0,0.0
4017,67.0,12.0,300.0,1.0,0.0
4018,71.0,48.0,180.0,0.0,0.0
4019,62.0,60.0,60.0,3.0,0.0
4020,49.0,12.0,60.0,3.0,0.0
4021,61.0,48.0,60.0,3.0,0.0
4022,50.0,36.0,60.0,3.0,0.0
4023,69.0,24.0,90.0,0.0,0.0
4024,62.0,60.0,60.0,3.0,0.0
4025,66.0,0.0,90.0,1.0,0.0
4026,38.0,36.0,60.0,3.0,0.0
4027,74.0,24.0,90.0,0.0,0.0
4028,50.0,60.0,60.0,3.0,0.0
4029,67.0,60.0,300.0,0.0,0.0
4030,43.0,60.0,60.0,3.0,0.0
4031,47.0,60.0,60.0,3.0,0.0
4032,50.0,60.0,60.0,3.0,0.0
4033,55.0,48.0,60.0,3.0,0.0
4034,43.0,48.0,120.0,3.0,0.0
4035,66.0,12.0,40.0,0.0,0.0
4036,67.0,60.0,40.0,0.0,0.0
4037,68.0,72.0,40.0,0.0,0.0
4038,66.0,0.0,90.0,1.0,0.0
4039,62.0,24.0,90.0,2.0,0.0
4040,38.0,36.0,60.0,3.0,0.0
4041,69.0,0.0,90.0,0.0,0.0
4042,50.0,60.0,60.0,3.0,0.0
4043,67.0,0.0,90.0,1.0,0.0
4044,61.0,0.0,90.0,2.0,0.0
4045,69.0,24.0,90.0,0.0,0.0
4046,40.0,36.0,60.0,3.0,0.0
4047,52.0,60.0,60.0,3.0,0.0
4048,62.0,0.0,90.0,2.0,0.0
4049,66.0,24.0,90.0,1.0,0.0
4050,69.0,0.0,90.0,0.0,0.0
4051,42.0,36.0,60.0,3.0,0.0
4052,54.0,60.0,60.0,3.0,0.0
4053,74.0,0.0,90.0,0.0,0.0
4054,62.0,24.0,90.0,2.0,0.0
4055,38.0,36.0,60.0,3.0,0.0
4056,66.0,0.0,90.0,1.0,0.0
4057,69.0,0.0,90.0,1.0,0.0
4058,50.0,60.0,60.0,3.0,0.0
4059,43.0,60.0,60.0,3.0,0.0
4060,72.0,0.0,180.0,0.0,0.0
4061,69.0,0.0,180.0,1.0,0.0
4062,62.0,48.0,180.0,2.0,0.0
4063,55.0,60.0,60.0,3.0,0.0
4064,45.0,12.0,60.0,3.0,0.0
4065,57.0,60.0,60.0,3.0,0.0
4066,47.0,36.0,60.0,3.0,0.0
4067,67.0,24.0,90.0,1.0,0.0
4068,71.0,0.0,90.0,0.0,0.0
4069,59.0,60.0,60.0,3.0,0.0
4070,49.0,36.0,60.0,3.0,0.0
4071,79.0,0.0,210.0,0.0,0.0
4072,71.0,24.0,90.0,1.0,0.0
4073,61.0,60.0,60.0,3.0,0.0
4074,50.0,36.0,60.0,3.0,0.0
4075,69.0,24.0,90.0,1.0,0.0
4076,62.0,48.0,60.0,3.0,0.0
4077,67.0,0.0,90.0,1.0,0.0
4078,78.0,12.0,40.0,0.0,0.0
4079,52.0,36.0,60.0,3.0,0.0
4080,73.0,12.0,90.0,1.0,0.0
4081,64.0,60.0,60.0,3.0,0.0
4082,76.0,12.0,40.0,0.0,0.0
4083,54.0,36.0,60.0,3.0,0.0
4084,74.0,0.0,90.0,0.0,0.0
4085,69.0,24.0,90.0,1.0,0.0
4086,66.0,60.0,60.0,3.0,0.0
4087,50.0,36.0,60.0,3.0,0.0
4088,78.0,0.0,90.0,1.0,0.0
4089,86.0,24.0,90.0,0.0,0.0
4090,62.0,60.0,60.0,3.0,0.0
4091,74.0,0.0,180.0,1.0,0.0
4092,84.0,48.0,180.0,0.0,0.0
4093,81.0,0.0,180.0,1.0,0.0
4094,55.0,60.0,60.0,3.0,0.0
4095,67.0,60.0,60.0,3.0,0.0
4096,50.0,12.0,60.0,3.0,0.0
4097,62.0,60.0,60.0,3.0,0.0
4098,47.0,36.0,60.0,3.0,0.0
4099,83.0,24.0,90.0,0.0,0.0
4100,74.0,0.0,90.0,1.0,0.0
4101,79.0,0.0,90.0,1.0,0.0
4102,59.0,60.0,60.0,3.0,0.0
4103,43.0,36.0,60.0,3.0,0.0
4104,74.0,24.0,90.0,0.0,0.0
4105,55.0,60.0,60.0,3.0,0.0
4106,69.0,36.0,390.0,2.0,0.0
4107,38.0,36.0,60.0,3.0,0.0
4108,72.0,0.0,390.0,1.0,0.0
4109,79.0,24.0,90.0,0.0,0.0
4110,78.0,48.0,180.0,0.0,0.0
4111,50.0,60.0,15.0,3.0,0.0
4112,62.0,60.0,60.0,3.0,0.0
4113,51.0,12.0,60.0,3.0,0.0
4114,63.0,24.0,60.0,3.0,0.0
4115,81.0,24.0,90.0,0.0,0.0
4116,39.0,36.0,60.0,3.0,0.0
4117,51.0,60.0,60.0,3.0,0.0
4118,38.0,36.0,60.0,3.0,0.0
4119,79.0,24.0,90.0,0.0,0.0
4120,72.0,0.0,300.0,1.0,0.0
4121,69.0,12.0,300.0,2.0,0.0
4122,78.0,48.0,180.0,0.0,0.0
4123,50.0,60.0,15.0,3.0,0.0
4124,62.0,48.0,60.0,3.0,0.0
4125,48.0,12.0,60.0,3.0,0.0
4126,60.0,48.0,60.0,3.0,0.0
4127,69.0,12.0,90.0,1.0,0.0
4128,76.0,12.0,40.0,0.0,0.0
4129,36.0,36.0,60.0,3.0,0.0
4130,66.0,0.0,90.0,2.0,0.0
4131,48.0,60.0,60.0,3.0,0.0
4132,74.0,12.0,40.0,0.0,0.0
4133,35.0,36.0,60.0,3.0,0.0
4134,67.0,12.0,300.0,1.0,0.0
4135,79.0,24.0,90.0,0.0,0.0
4136,47.0,60.0,60.0,3.0,0.0
4137,74.0,24.0,90.0,0.0,0.0
4138,47.0,36.0,60.0,3.0,0.0
4139,59.0,48.0,60.0,3.0,0.0
4140,36.0,36.0,60.0,3.0,0.0
4141,76.0,24.0,90.0,0.0,0.0
4142,48.0,48.0,15.0,3.0,0.0
4143,74.0,12.0,40.0,0.0,0.0
4144,69.0,12.0,90.0,1.0,0.0
4145,60.0,60.0,60.0,3.0,0.0
4146,72.0,12.0,40.0,0.0,0.0
4147,67.0,12.0,300.0,1.0,0.0
4148,71.0,48.0,180.0,0.0,0.0
4149,50.0,60.0,60.0,3.0,0.0
4150,62.0,60.0,60.0,3.0,0.0
4151,49.0,12.0,60.0,3.0,0.0
4152,61.0,48.0,60.0,3.0,0.0
4153,50.0,36.0,60.0,3.0,0.0
4154,69.0,24.0,90.0,0.0,0.0
4155,62.0,60.0,60.0,3.0,0.0
4156,74.0,0.0,90.0,0.0,0.0
4157,38.0,36.0,60.0,3.0,0.0
4158,66.0,24.0,90.0,1.0,0.0
4159,50.0,60.0,60.0,3.0,0.0
4160,39.0,36.0,60.0,3.0,0.0
4161,72.0,24.0,90.0,0.0,0.0
4162,69.0,48.0,180.0,1.0,0.0
4163,66.0,0.0,180.0,1.0,0.0
4164,71.0,24.0,180.0,0.0,0.0
4165,51.0,60.0,15.0,3.0,0.0
4166,63.0,60.0,60.0,3.0,0.0
4167,67.0,24.0,90.0,1.0,0.0
4168,52.0,12.0,60.0,3.0,0.0
4169,64.0,60.0,60.0,3.0,0.0
4170,79.0,24.0,210.0,0.0,0.0
4171,73.0,24.0,90.0,1.0,0.0
4172,70.0,0.0,90.0,1.0,0.0
4173,40.0,36.0,60.0,3.0,0.0
4174,52.0,60.0,60.0,3.0,0.0
4175,72.0,36.0,390.0,1.0,0.0
4176,38.0,36.0,60.0,3.0,0.0
4177,69.0,0.0,390.0,2.0,0.0
4178,50.0,60.0,15.0,3.0,0.0
4179,78.0,48.0,180.0,0.0,0.0
4180,62.0,60.0,60.0,3.0,0.0
4181,51.0,12.0,60.0,3.0,0.0
4182,63.0,24.0,60.0,3.0,0.0
4183,81.0,24.0,90.0,0.0,0.0
4184,39.0,36.0,60.0,3.0,0.0
4185,51.0,60.0,60.0,3.0,0.0
4186,38.0,36.0,60.0,3.0,0.0
4187,72.0,12.0,300.0,1.0,0.0
4188,69.0,0.0,300.0,2.0,0.0
4189,79.0,24.0,90.0,0.0,0.0
4190,78.0,48.0,180.0,0.0,0.0
4191,50.0,60.0,15.0,3.0,0.0
4192,62.0,48.0,60.0,3.0,0.0
4193,48.0,12.0,60.0,3.0,0.0
4194,60.0,48.0,60.0,3.0,0.0
4195,84.0,12.0,40.0,0.0,0.0
4196,36.0,36.0,60.0,3.0,0.0
4197,74.0,12.0,90.0,1.0,0.0
4198,78.0,12.0,40.0,0.0,0.0
4199,48.0,48.0,60.0,3.0,0.0
4200,35.0,48.0,60.0,3.0,0.0
4201,79.0,12.0,40.0,0.0,0.0
4202,74.0,36.0,180.0,1.0,0.0
4203,47.0,48.0,60.0,3.0,0.0
4204,78.0,12.0,40.0,0.0,0.0
4205,79.0,12.0,40.0,0.0,0.0
4206,47.0,12.0,60.0,3.0,0.0
4207,59.0,48.0,60.0,3.0,0.0
4208,74.0,12.0,40.0,0.0,0.0
4209,78.0,12.0,40.0,0.0,0.0
4210,72.0,12.0,90.0,1.0,0.0
4211,36.0,36.0,60.0,3.0,0.0
4212,76.0,12.0,40.0,0.0,0.0
4213,71.0,12.0,40.0,1.0,0.0
4214,48.0,48.0,15.0,3.0,0.0
4215,74.0,0.0,40.0,0.0,0.0
4216,72.0,0.0,40.0,0.0,0.0
4217,69.0,12.0,40.0,1.0,0.0
4218,60.0,60.0,60.0,3.0,0.0
4219,67.0,12.0,300.0,1.0,0.0
4220,71.0,48.0,180.0,0.0,0.0
4221,50.0,60.0,60.0,3.0,0.0
4222,62.0,60.0,60.0,3.0,0.0
4223,49.0,12.0,60.0,3.0,0.0
4224,61.0,48.0,60.0,3.0,0.0
4225,69.0,24.0,90.0,0.0,0.0
4226,50.0,36.0,60.0,3.0,0.0
4227,62.0,60.0,60.0,3.0,0.0
4228,74.0,24.0,90.0,0.0,0.0
4229,66.0,0.0,90.0,1.0,0.0
4230,38.0,36.0,60.0,3.0,0.0
4231,50.0,60.0,60.0,3.0,0.0
4232,59.0,0.0,300.0,2.0,0.0
4233,67.0,0.0,300.0,0.0,0.0
4234,43.0,60.0,60.0,3.0,0.0
4235,62.0,72.0,300.0,1.0,0.0
4236,47.0,60.0,60.0,3.0,0.0
4237,50.0,60.0,60.0,3.0,0.0
4238,55.0,48.0,60.0,3.0,0.0
4239,43.0,180.0,120.0,3.0,0.0
4240,43.0,0.0,120.0,3.0,0.0
4241,74.0,0.0,120.0,0.0,0.0
4242,79.0,0.0,90.0,0.0,0.0
4243,47.0,0.0,90.0,3.0,0.0
4244,83.0,240.0,60.0,0.0,0.0
4245,50.0,0.0,60.0,3.0,0.0
4246,86.0,0.0,60.0,0.0,0.0
4247,55.0,0.0,60.0,3.0,0.0
4248,71.0,0.0,120.0,0.0,0.0
4249,43.0,0.0,120.0,3.0,0.0
4250,74.0,0.0,90.0,0.0,0.0
4251,47.0,240.0,90.0,3.0,0.0
4252,50.0,0.0,60.0,3.0,0.0
4253,79.0,0.0,60.0,0.0,0.0
4254,55.0,0.0,60.0,3.0,0.0
4255,83.0,0.0,60.0,0.0,0.0
4256,67.0,0.0,120.0,0.0,0.0
4257,43.0,0.0,120.0,3.0,0.0
4258,47.0,0.0,90.0,3.0,0.0
4259,71.0,0.0,90.0,0.0,0.0
4260,74.0,240.0,60.0,0.0,0.0
4261,50.0,0.0,60.0,3.0,0.0
4262,55.0,0.0,60.0,3.0,0.0
4263,79.0,0.0,60.0,0.0,0.0
4264,47.0,0.0,90.0,3.0,0.0
4265,50.0,0.0,60.0,3.0,0.0
4266,55.0,24.0,60.0,3.0,0.0
4267,79.0,30.0,20.0,0.0,0.0
4268,78.0,30.0,20.0,0.0,0.0
4269,76.0,30.0,20.0,0.0,0.0
4270,74.0,30.0,20.0,0.0,0.0
4271,72.0,30.0,20.0,0.0,0.0
4272,48.0,0.0,90.0,3.0,0.0
4273,71.0,54.0,20.0,0.0,0.0
4274,52.0,24.0,60.0,3.0,0.0
4275,69.0,12.0,40.0,0.0,0.0
4276,55.0,0.0,60.0,3.0,0.0
4277,81.0,30.0,20.0,0.0,0.0
4278,79.0,30.0,20.0,0.0,0.0
4279,78.0,30.0,20.0,0.0,0.0
4280,76.0,30.0,20.0,0.0,0.0
4281,74.0,30.0,20.0,0.0,0.0
4282,50.0,0.0,90.0,3.0,0.0
4283,72.0,54.0,20.0,0.0,0.0
4284,55.0,0.0,60.0,3.0,0.0
4285,59.0,24.0,60.0,3.0,0.0
4286,71.0,12.0,40.0,0.0,0.0
4287,83.0,30.0,20.0,0.0,0.0
4288,81.0,30.0,20.0,0.0,0.0
4289,79.0,30.0,20.0,0.0,0.0
4290,78.0,30.0,20.0,0.0,0.0
4291,76.0,30.0,20.0,0.0,0.0
4292,74.0,54.0,20.0,0.0,0.0
4293,52.0,0.0,90.0,3.0,0.0
4294,55.0,102.0,60.0,3.0,0.0
4295,60.0,0.0,40.0,3.0,0.0
4296,72.0,0.0,40.0,0.0,0.0
4297,54.0,0.0,60.0,3.0,0.0
4298,74.0,138.0,60.0,0.0,0.0
4299,57.0,0.0,40.0,3.0,0.0
4300,81.0,0.0,40.0,0.0,0.0
4301,84.0,0.0,30.0,0.0,0.0
4302,62.0,0.0,30.0,3.0,0.0
4303,55.0,0.0,90.0,3.0,0.0
4304,74.0,36.0,90.0,0.0,0.0
4305,79.0,0.0,60.0,0.0,0.0
4306,59.0,0.0,60.0,3.0,0.0
4307,83.0,0.0,40.0,0.0,0.0
4308,62.0,0.0,40.0,3.0,0.0
4309,59.0,30.0,20.0,3.0,0.0
4310,60.0,30.0,20.0,3.0,0.0
4311,62.0,30.0,20.0,3.0,0.0
4312,64.0,30.0,20.0,3.0,0.0
4313,66.0,30.0,20.0,3.0,0.0
4314,62.0,90.0,20.0,3.0,0.0
4315,67.0,0.0,300.0,3.0,0.0
4316,79.0,30.0,20.0,0.0,0.0
4317,78.0,30.0,20.0,0.0,0.0
4318,76.0,30.0,20.0,0.0,0.0
4319,74.0,30.0,20.0,0.0,0.0
4320,72.0,30.0,20.0,0.0,0.0
4321,71.0,54.0,20.0,0.0,0.0
4322,69.0,36.0,40.0,0.0,0.0
4323,71.0,30.0,20.0,0.0,0.0
4324,72.0,30.0,20.0,0.0,0.0
4325,74.0,30.0,20.0,0.0,0.0
4326,66.0,18.0,90.0,3.0,0.0
4327,72.0,30.0,20.0,0.0,0.0
4328,71.0,12.0,20.0,0.0,0.0
4329,69.0,96.0,20.0,0.0,0.0
4330,71.0,24.0,90.0,0.0,0.0
4331,67.0,6.0,30.0,3.0,0.0
4332,66.0,30.0,30.0,3.0,0.0
4333,64.0,30.0,30.0,3.0,0.0
4334,79.0,18.0,180.0,0.0,0.0
4335,62.0,30.0,30.0,3.0,0.0
4336,60.0,30.0,30.0,3.0,0.0
4337,59.0,60.0,30.0,3.0,0.0
4338,57.0,12.0,60.0,3.0,0.0
4339,59.0,30.0,30.0,3.0,0.0
4340,60.0,30.0,30.0,3.0,0.0
4341,78.0,24.0,90.0,0.0,0.0
4342,62.0,30.0,30.0,3.0,0.0
4343,60.0,30.0,30.0,3.0,0.0
4344,59.0,6.0,30.0,3.0,0.0
4345,57.0,48.0,30.0,3.0,0.0
4346,62.0,18.0,90.0,3.0,0.0
4347,79.0,36.0,40.0,0.0,0.0
4348,86.0,12.0,20.0,0.0,0.0
4349,84.0,30.0,20.0,0.0,0.0
4350,55.0,18.0,90.0,3.0,0.0
4351,83.0,30.0,20.0,0.0,0.0
4352,81.0,30.0,20.0,0.0,0.0
4353,79.0,12.0,20.0,0.0,0.0
4354,78.0,30.0,20.0,0.0,0.0
4355,48.0,18.0,90.0,3.0,0.0
4356,76.0,30.0,20.0,0.0,0.0
4357,74.0,30.0,20.0,0.0,0.0
4358,72.0,12.0,20.0,0.0,0.0
4359,71.0,30.0,20.0,0.0,0.0
4360,49.0,18.0,90.0,3.0,0.0
4361,69.0,30.0,20.0,0.0,0.0
4362,67.0,30.0,20.0,0.0,0.0
4363,66.0,12.0,20.0,0.0,0.0
4364,64.0,54.0,20.0,0.0,0.0
4365,62.0,36.0,40.0,0.0,0.0
4366,50.0,12.0,180.0,3.0,0.0
4367,64.0,30.0,20.0,0.0,0.0
4368,66.0,30.0,20.0,0.0,0.0
4369,67.0,30.0,20.0,0.0,0.0
4370,69.0,18.0,20.0,0.0,0.0
4371,71.0,30.0,20.0,0.0,0.0
4372,73.0,30.0,20.0,0.0,0.0
4373,50.0,30.0,20.0,3.0,0.0
4374,74.0,18.0,90.0,0.0,0.0
4375,49.0,30.0,20.0,3.0,0.0
4376,50.0,12.0,20.0,3.0,0.0
4377,52.0,30.0,20.0,3.0,0.0
4378,50.0,30.0,20.0,3.0,0.0
4379,48.0,33.0,20.0,3.0,0.0
4380,47.0,30.0,30.0,3.0,0.0
4381,43.0,0.0,15.0,3.0,0.0
4382,74.0,0.0,120.0,0.0,0.0
4383,47.0,0.0,90.0,3.0,0.0
4384,79.0,0.0,90.0,0.0,0.0
4385,45.0,63.0,30.0,3.0,0.0
4386,43.0,0.0,90.0,3.0,0.0
4387,83.0,240.0,60.0,0.0,0.0
4388,50.0,0.0,60.0,3.0,0.0
4389,55.0,0.0,60.0,3.0,0.0
4390,86.0,0.0,60.0,0.0,0.0
4391,43.0,0.0,120.0,3.0,0.0
4392,71.0,0.0,120.0,0.0,0.0
4393,47.0,0.0,90.0,3.0,0.0
4394,74.0,276.0,90.0,0.0,0.0
4395,50.0,0.0,60.0,3.0,0.0
4396,79.0,0.0,60.0,0.0,0.0
4397,55.0,0.0,60.0,3.0,0.0
4398,83.0,0.0,60.0,0.0,0.0
4399,67.0,0.0,150.0,0.0,0.0
4400,43.0,204.0,150.0,3.0,0.0
4401,47.0,0.0,120.0,3.0,0.0
4402,71.0,0.0,120.0,0.0,0.0
4403,50.0,0.0,120.0,3.0,0.0
4404,74.0,0.0,120.0,0.0,0.0
4405,55.0,0.0,90.0,3.0,0.0
4406,79.0,0.0,90.0,0.0,0.0
4407,47.0,24.0,90.0,3.0,0.0
4408,50.0,0.0,60.0,3.0,0.0
4409,55.0,0.0,60.0,3.0,0.0
4410,79.0,30.0,20.0,0.0,0.0
4411,78.0,30.0,20.0,0.0,0.0
4412,76.0,30.0,20.0,0.0,0.0
4413,74.0,30.0,20.0,0.0,0.0
4414,72.0,30.0,20.0,0.0,0.0
4415,48.0,24.0,90.0,3.0,0.0
4416,71.0,54.0,20.0,0.0,0.0
4417,52.0,0.0,60.0,3.0,0.0
4418,55.0,0.0,60.0,3.0,0.0
4419,69.0,12.0,40.0,0.0,0.0
4420,81.0,30.0,20.0,0.0,0.0
4421,79.0,30.0,20.0,0.0,0.0
4422,78.0,30.0,20.0,0.0,0.0
4423,76.0,30.0,20.0,0.0,0.0
4424,74.0,30.0,20.0,0.0,0.0
4425,50.0,24.0,90.0,3.0,0.0
4426,72.0,54.0,20.0,0.0,0.0
4427,55.0,0.0,60.0,3.0,0.0
4428,59.0,0.0,60.0,3.0,0.0
4429,71.0,12.0,40.0,0.0,0.0
4430,83.0,30.0,20.0,0.0,0.0
4431,81.0,30.0,20.0,0.0,0.0
4432,79.0,30.0,20.0,0.0,0.0
4433,78.0,30.0,20.0,0.0,0.0
4434,76.0,30.0,20.0,0.0,0.0
4435,52.0,0.0,90.0,3.0,0.0
4436,74.0,54.0,20.0,0.0,0.0
4437,55.0,0.0,60.0,3.0,0.0
4438,60.0,102.0,40.0,3.0,0.0
4439,72.0,0.0,40.0,0.0,0.0
4440,74.0,0.0,60.0,0.0,0.0
4441,54.0,0.0,60.0,3.0,0.0
4442,81.0,0.0,40.0,0.0,0.0
4443,57.0,0.0,40.0,3.0,0.0
4444,84.0,0.0,30.0,0.0,0.0
4445,62.0,138.0,30.0,3.0,0.0
4446,55.0,0.0,90.0,3.0,0.0
4447,74.0,0.0,90.0,0.0,0.0
4448,79.0,0.0,60.0,0.0,0.0
4449,59.0,0.0,60.0,3.0,0.0
4450,83.0,0.0,40.0,0.0,0.0
4451,62.0,42.0,40.0,3.0,0.0
4452,59.0,30.0,30.0,3.0,0.0
4453,60.0,30.0,30.0,3.0,0.0
4454,62.0,30.0,30.0,3.0,0.0
4455,64.0,30.0,30.0,3.0,0.0
4456,66.0,30.0,30.0,3.0,0.0
4457,62.0,84.0,30.0,3.0,0.0
4458,67.0,24.0,360.0,3.0,0.0
4459,79.0,30.0,20.0,0.0,0.0
4460,78.0,30.0,20.0,0.0,0.0
4461,76.0,30.0,20.0,0.0,0.0
4462,74.0,30.0,20.0,0.0,0.0
4463,72.0,30.0,20.0,0.0,0.0
4464,71.0,54.0,20.0,0.0,0.0
4465,69.0,36.0,40.0,0.0,0.0
4466,71.0,30.0,20.0,0.0,0.0
4467,72.0,6.0,20.0,0.0,0.0
4468,74.0,30.0,20.0,0.0,0.0
4469,66.0,18.0,90.0,3.0,0.0
4470,72.0,30.0,20.0,0.0,0.0
4471,71.0,12.0,20.0,0.0,0.0
4472,69.0,96.0,20.0,0.0,0.0
4473,71.0,24.0,90.0,0.0,0.0
4474,67.0,6.0,30.0,3.0,0.0
4475,66.0,30.0,30.0,3.0,0.0
4476,64.0,30.0,30.0,3.0,0.0
4477,79.0,18.0,180.0,0.0,0.0
4478,62.0,30.0,30.0,3.0,0.0
4479,60.0,30.0,30.0,3.0,0.0
4480,59.0,60.0,30.0,3.0,0.0
4481,57.0,12.0,60.0,3.0,0.0
4482,59.0,30.0,30.0,3.0,0.0
4483,60.0,30.0,30.0,3.0,0.0
4484,62.0,30.0,30.0,3.0,0.0
4485,78.0,24.0,90.0,0.0,0.0
4486,60.0,30.0,30.0,3.0,0.0
4487,59.0,6.0,30.0,3.0,0.0
4488,57.0,48.0,30.0,3.0,0.0
4489,62.0,18.0,90.0,3.0,0.0
4490,79.0,36.0,40.0,0.0,0.0
4491,86.0,12.0,20.0,0.0,0.0
4492,84.0,30.0,20.0,0.0,0.0
4493,55.0,18.0,90.0,3.0,0.0
4494,83.0,30.0,20.0,0.0,0.0
4495,81.0,30.0,20.0,0.0,0.0
4496,79.0,12.0,20.0,0.0,0.0
4497,78.0,30.0,20.0,0.0,0.0
4498,48.0,18.0,90.0,3.0,0.0
4499,76.0,30.0,20.0,0.0,0.0
4500,74.0,30.0,20.0,0.0,0.0
4501,72.0,12.0,20.0,0.0,0.0
4502,71.0,30.0,20.0,0.0,0.0
4503,49.0,18.0,90.0,3.0,0.0
4504,69.0,30.0,20.0,0.0,0.0
4505,67.0,30.0,20.0,0.0,0.0
4506,66.0,12.0,20.0,0.0,0.0
4507,64.0,54.0,20.0,0.0,0.0
4508,50.0,30.0,300.0,3.0,0.0
4509,62.0,36.0,40.0,0.0,0.0
4510,64.0,30.0,20.0,0.0,0.0
4511,66.0,30.0,20.0,0.0,0.0
4512,67.0,30.0,20.0,0.0,0.0
4513,69.0,30.0,20.0,0.0,0.0
4514,71.0,30.0,20.0,0.0,0.0
4515,73.0,66.0,20.0,0.0,0.0
4516,74.0,6.0,150.0,0.0,0.0
4517,48.0,30.0,30.0,3.0,0.0
4518,47.0,24.0,30.0,3.0,0.0
4519,45.0,30.0,30.0,3.0,0.0
4520,43.0,30.0,30.0,3.0,0.0
4521,42.0,12.0,30.0,3.0,0.0
4522,40.0,30.0,30.0,3.0,0.0
4523,81.0,15.0,15.0,0.0,0.0
4524,83.0,3.0,15.0,0.0,0.0
4525,38.0,18.0,180.0,3.0,0.0
4526,84.0,60.0,30.0,0.0,0.0
4527,81.0,60.0,30.0,0.0,0.0
4528,78.0,42.0,30.0,0.0,0.0
4529,74.0,42.0,30.0,0.0,0.0
4530,72.0,15.0,15.0,0.0,0.0
4531,74.0,15.0,15.0,0.0,0.0
4532,72.0,15.0,15.0,0.0,0.0
4533,74.0,15.0,15.0,0.0,0.0
4534,57.0,9.0,40.0,3.0,0.0
4535,72.0,15.0,15.0,0.0,0.0
4536,74.0,15.0,15.0,0.0,0.0
4537,72.0,6.0,15.0,0.0,0.0
4538,74.0,51.0,15.0,0.0,0.0
4539,54.0,36.0,40.0,3.0,0.0
4540,72.0,0.0,40.0,0.0,0.0
4541,71.0,24.0,20.0,0.0,0.0
4542,50.0,6.0,40.0,3.0,0.0
4543,72.0,30.0,20.0,0.0,0.0
4544,71.0,30.0,20.0,0.0,0.0
4545,55.0,12.0,180.0,3.0,0.0
4546,74.0,30.0,20.0,0.0,0.0
4547,76.0,30.0,20.0,0.0,0.0
4548,78.0,30.0,20.0,0.0,0.0
4549,79.0,30.0,20.0,0.0,0.0
4550,81.0,18.0,20.0,0.0,0.0
4551,83.0,30.0,20.0,0.0,0.0
4552,84.0,30.0,20.0,0.0,0.0
4553,86.0,30.0,20.0,0.0,0.0
4554,88.0,30.0,20.0,0.0,0.0
4555,62.0,6.0,40.0,3.0,0.0
4556,90.0,24.0,20.0,0.0,0.0
4557,91.0,54.0,20.0,0.0,0.0
4558,59.0,60.0,40.0,3.0,0.0
4559,86.0,0.0,40.0,0.0,0.0
4560,55.0,42.0,40.0,3.0,0.0
4561,66.0,0.0,210.0,0.0,0.0
4562,69.0,0.0,210.0,0.0,0.0
4563,74.0,18.0,180.0,0.0,0.0
4564,60.0,60.0,30.0,3.0,0.0
4565,57.0,60.0,30.0,3.0,0.0
4566,54.0,42.0,30.0,3.0,0.0
4567,50.0,42.0,30.0,3.0,0.0
4568,48.0,15.0,15.0,3.0,0.0
4569,50.0,15.0,15.0,3.0,0.0
4570,48.0,15.0,15.0,3.0,0.0
4571,50.0,15.0,15.0,3.0,0.0
4572,48.0,15.0,15.0,3.0,0.0
4573,81.0,9.0,40.0,0.0,0.0
4574,50.0,15.0,15.0,3.0,0.0
4575,48.0,6.0,15.0,3.0,0.0
4576,50.0,51.0,15.0,3.0,0.0
4577,78.0,0.0,40.0,0.0,0.0
4578,48.0,36.0,40.0,3.0,0.0
4579,74.0,0.0,20.0,0.0,0.0
4580,47.0,30.0,20.0,3.0,0.0
4581,48.0,30.0,20.0,3.0,0.0
4582,71.0,0.0,210.0,0.0,0.0
4583,74.0,0.0,210.0,0.0,0.0
4584,47.0,30.0,20.0,3.0,0.0
4585,79.0,12.0,180.0,0.0,0.0
4586,50.0,30.0,20.0,3.0,0.0
4587,52.0,30.0,20.0,3.0,0.0
4588,54.0,30.0,20.0,3.0,0.0
4589,55.0,30.0,20.0,3.0,0.0
4590,57.0,18.0,20.0,3.0,0.0
4591,59.0,30.0,20.0,3.0,0.0
4592,60.0,30.0,20.0,3.0,0.0
4593,62.0,30.0,20.0,3.0,0.0
4594,64.0,30.0,20.0,3.0,0.0
4595,66.0,24.0,20.0,3.0,0.0
4596,86.0,6.0,40.0,0.0,0.0
4597,67.0,54.0,20.0,3.0,0.0
4598,83.0,60.0,40.0,0.0,0.0
4599,62.0,0.0,40.0,3.0,0.0
4600,79.0,36.0,40.0,0.0,0.0
4601,62.0,0.0,180.0,2.0,0.0
4602,66.0,12.0,180.0,2.0,0.0
4603,72.0,0.0,180.0,1.0,0.0
4604,69.0,0.0,180.0,1.0,0.0
4605,84.0,30.0,20.0,0.0,0.0
4606,86.0,30.0,20.0,0.0,0.0
4607,88.0,30.0,20.0,0.0,0.0
4608,86.0,30.0,20.0,0.0,0.0
4609,84.0,30.0,20.0,0.0,0.0
4610,83.0,18.0,20.0,0.0,0.0
4611,81.0,30.0,20.0,0.0,0.0
4612,80.0,30.0,20.0,0.0,0.0
4613,72.0,0.0,180.0,1.0,0.0
4614,69.0,0.0,180.0,1.0,0.0
4615,62.0,12.0,180.0,2.0,0.0
4616,66.0,0.0,180.0,2.0,0.0
4617,81.0,30.0,20.0,0.0,0.0
4618,83.0,30.0,20.0,0.0,0.0
4619,84.0,30.0,20.0,0.0,0.0
4620,83.0,30.0,20.0,0.0,0.0
4621,81.0,30.0,20.0,0.0,0.0
4622,79.0,18.0,20.0,0.0,0.0
4623,78.0,30.0,20.0,0.0,0.0
4624,76.0,30.0,20.0,0.0,0.0
4625,66.0,0.0,180.0,2.0,0.0
4626,69.0,12.0,180.0,1.0,0.0
4627,72.0,0.0,180.0,1.0,0.0
4628,62.0,0.0,180.0,2.0,0.0
4629,78.0,30.0,20.0,0.0,0.0
4630,79.0,30.0,20.0,0.0,0.0
4631,81.0,30.0,20.0,0.0,0.0
4632,79.0,30.0,20.0,0.0,0.0
4633,78.0,30.0,20.0,0.0,0.0
4634,76.0,18.0,20.0,0.0,0.0
4635,74.0,30.0,20.0,0.0,0.0
4636,73.0,30.0,20.0,0.0,0.0
4637,62.0,12.0,180.0,2.0,0.0
4638,74.0,30.0,20.0,0.0,0.0
4639,66.0,0.0,180.0,1.0,0.0
4640,73.0,30.0,20.0,0.0,0.0
4641,74.0,30.0,20.0,0.0,0.0
4642,76.0,30.0,20.0,0.0,0.0
4643,74.0,30.0,20.0,0.0,0.0
4644,72.0,18.0,20.0,0.0,0.0
4645,71.0,30.0,20.0,0.0,0.0
4646,70.0,30.0,20.0,0.0,0.0
4647,71.0,30.0,20.0,0.0,0.0
4648,67.0,6.0,300.0,1.0,0.0
4649,72.0,30.0,20.0,0.0,0.0
4650,74.0,30.0,20.0,0.0,0.0
4651,76.0,30.0,20.0,0.0,0.0
4652,78.0,30.0,20.0,0.0,0.0
4653,79.0,30.0,20.0,0.0,0.0
4654,81.0,30.0,20.0,0.0,0.0
4655,83.0,30.0,20.0,0.0,0.0
4656,60.0,12.0,180.0,2.0,0.0
4657,76.0,24.0,20.0,0.0,0.0
4658,78.0,30.0,20.0,0.0,0.0
4659,79.0,30.0,20.0,0.0,0.0
4660,81.0,30.0,20.0,0.0,0.0
4661,83.0,30.0,20.0,0.0,0.0
4662,69.0,18.0,90.0,1.0,0.0
4663,84.0,18.0,20.0,0.0,0.0
4664,86.0,12.0,20.0,0.0,0.0
4665,88.0,30.0,20.0,0.0,0.0
4666,88.0,30.0,20.0,0.0,0.0
4667,71.0,18.0,90.0,1.0,0.0
4668,62.0,0.0,90.0,2.0,0.0
4669,86.0,30.0,20.0,0.0,0.0
4670,85.0,12.0,20.0,0.0,0.0
4671,86.0,30.0,20.0,0.0,0.0
4672,84.0,30.0,20.0,0.0,0.0
4673,83.0,30.0,20.0,0.0,0.0
4674,81.0,30.0,20.0,0.0,0.0
4675,79.0,30.0,20.0,0.0,0.0
4676,86.0,30.0,20.0,0.0,0.0
4677,69.0,0.0,90.0,1.0,0.0
4678,72.0,18.0,90.0,1.0,0.0
4679,62.0,0.0,90.0,2.0,0.0
4680,66.0,0.0,90.0,2.0,0.0
4681,84.0,30.0,20.0,0.0,0.0
4682,83.0,12.0,20.0,0.0,0.0
4683,84.0,30.0,20.0,0.0,0.0
4684,83.0,30.0,20.0,0.0,0.0
4685,81.0,30.0,20.0,0.0,0.0
4686,79.0,30.0,20.0,0.0,0.0
4687,78.0,30.0,20.0,0.0,0.0
4688,71.0,0.0,90.0,1.0,0.0
4689,67.0,18.0,90.0,2.0,0.0
4690,79.0,30.0,20.0,0.0,0.0
4691,81.0,30.0,20.0,0.0,0.0
4692,83.0,12.0,20.0,0.0,0.0
4693,84.0,30.0,20.0,0.0,0.0
4694,86.0,30.0,20.0,0.0,0.0
4695,84.0,30.0,20.0,0.0,0.0
4696,83.0,30.0,20.0,0.0,0.0
4697,81.0,30.0,20.0,0.0,0.0
4698,79.0,30.0,20.0,0.0,0.0
4699,78.0,30.0,20.0,0.0,0.0
4700,76.0,30.0,20.0,0.0,0.0
4701,74.0,30.0,20.0,0.0,0.0
4702,72.0,30.0,20.0,0.0,0.0
4703,71.0,30.0,20.0,0.0,0.0
4704,69.0,30.0,20.0,0.0,0.0
4705,67.0,30.0,20.0,0.0,0.0
4706,72.0,30.0,20.0,2.0,0.0
4707,74.0,30.0,20.0,2.0,0.0
4708,76.0,30.0,20.0,2.0,0.0
4709,74.0,30.0,20.0,2.0,0.0
4710,72.0,30.0,20.0,2.0,0.0
4711,71.0,30.0,20.0,2.0,0.0
4712,69.0,30.0,20.0,2.0,0.0
4713,68.0,18.0,20.0,2.0,0.0
4714,69.0,3.0,20.0,2.0,0.0
4715,84.0,12.0,15.0,0.0,0.0
4716,81.0,12.0,90.0,1.0,0.0
4717,86.0,15.0,15.0,0.0,0.0
4718,84.0,12.0,15.0,0.0,0.0
4719,71.0,3.0,20.0,2.0,0.0
4720,86.0,27.0,15.0,0.0,0.0
4721,84.0,6.0,40.0,0.0,0.0
4722,72.0,12.0,20.0,2.0,0.0
4723,71.0,30.0,20.0,2.0,0.0
4724,69.0,30.0,20.0,2.0,0.0
4725,67.0,30.0,20.0,2.0,0.0
4726,66.0,30.0,20.0,2.0,0.0
4727,64.0,18.0,20.0,2.0,0.0
4728,81.0,12.0,90.0,1.0,0.0
4729,84.0,12.0,15.0,0.0,0.0
4730,66.0,3.0,20.0,2.0,0.0
4731,86.0,15.0,15.0,0.0,0.0
4732,84.0,12.0,15.0,0.0,0.0
4733,67.0,3.0,20.0,2.0,0.0
4734,86.0,27.0,15.0,0.0,0.0
4735,84.0,6.0,40.0,0.0,0.0
4736,69.0,12.0,20.0,2.0,0.0
4737,67.0,30.0,20.0,2.0,0.0
4738,66.0,30.0,20.0,2.0,0.0
4739,64.0,30.0,20.0,2.0,0.0
4740,62.0,30.0,20.0,2.0,0.0
4741,61.0,30.0,20.0,2.0,0.0
4742,62.0,30.0,20.0,2.0,0.0
4743,81.0,18.0,90.0,1.0,0.0
4744,84.0,0.0,90.0,0.0,0.0
4745,61.0,30.0,20.0,2.0,0.0
4746,62.0,12.0,20.0,2.0,0.0
4747,64.0,30.0,20.0,2.0,0.0
4748,62.0,30.0,20.0,2.0,0.0
4749,74.0,0.0,90.0,1.0,0.0
4750,78.0,18.0,90.0,0.0,0.0
4751,60.0,30.0,20.0,2.0,0.0
4752,59.0,12.0,20.0,2.0,0.0
4753,57.0,30.0,20.0,2.0,0.0
4754,79.0,0.0,90.0,1.0,0.0
4755,79.0,18.0,90.0,0.0,0.0
4756,59.0,30.0,20.0,2.0,0.0
4757,57.0,30.0,20.0,2.0,0.0
4758,55.0,12.0,20.0,2.0,0.0
4759,54.0,30.0,20.0,2.0,0.0
4760,52.0,30.0,20.0,2.0,0.0
4761,79.0,0.0,90.0,1.0,0.0
4762,86.0,18.0,90.0,0.0,0.0
4763,50.0,30.0,20.0,2.0,0.0
4764,48.0,12.0,20.0,2.0,0.0
4765,47.0,30.0,20.0,2.0,0.0
4766,48.0,30.0,20.0,2.0,0.0
4767,88.0,18.0,90.0,0.0,0.0
4768,79.0,0.0,90.0,1.0,0.0
4769,50.0,30.0,20.0,2.0,0.0
4770,52.0,12.0,20.0,2.0,0.0
4771,54.0,30.0,20.0,2.0,0.0
4772,55.0,30.0,20.0,2.0,0.0
4773,79.0,18.0,90.0,1.0,0.0
4774,91.0,0.0,90.0,0.0,0.0
4775,57.0,30.0,20.0,2.0,0.0
4776,59.0,12.0,20.0,2.0,0.0
4777,60.0,30.0,20.0,2.0,0.0
4778,86.0,30.0,20.0,0.0,0.0
4779,62.0,12.0,180.0,2.0,0.0
4780,84.0,30.0,20.0,0.0,0.0
4781,83.0,30.0,20.0,0.0,0.0
4782,81.0,30.0,20.0,0.0,0.0
4783,79.0,30.0,20.0,0.0,0.0
4784,78.0,18.0,20.0,0.0,0.0
4785,76.0,30.0,20.0,0.0,0.0
4786,74.0,30.0,20.0,0.0,0.0
4787,72.0,30.0,20.0,1.0,0.0
4788,71.0,30.0,20.0,1.0,0.0
4789,69.0,30.0,20.0,1.0,0.0
4790,67.0,30.0,20.0,1.0,0.0
4791,66.0,30.0,20.0,1.0,0.0
4792,64.0,30.0,20.0,1.0,0.0
4793,62.0,30.0,20.0,1.0,0.0
4794,50.0,0.0,20.0,3.0,0.0
4795,60.0,126.0,20.0,1.0,0.0
4796,55.0,120.0,120.0,3.0,0.0
4797,66.0,0.0,240.0,0.0,0.0
4798,60.0,0.0,240.0,1.0,0.0
4799,57.0,96.0,240.0,2.0,0.0
4800,50.0,0.0,120.0,3.0,0.0
4801,62.0,0.0,15.0,2.0,0.0
4802,67.0,126.0,90.0,0.0,0.0
4803,59.0,0.0,90.0,1.0,0.0
4804,43.0,0.0,90.0,3.0,0.0
4805,81.0,15.0,15.0,0.0,0.0
4806,83.0,21.0,15.0,0.0,0.0
4807,84.0,60.0,20.0,0.0,0.0
4808,38.0,6.0,180.0,3.0,0.0
4809,81.0,60.0,20.0,0.0,0.0
4810,78.0,54.0,20.0,0.0,0.0
4811,74.0,54.0,20.0,0.0,0.0
4812,72.0,15.0,15.0,0.0,0.0
4813,74.0,15.0,15.0,0.0,0.0
4814,72.0,15.0,15.0,0.0,0.0
4815,74.0,15.0,15.0,0.0,0.0
4816,57.0,9.0,40.0,3.0,0.0
4817,72.0,15.0,15.0,0.0,0.0
4818,74.0,15.0,15.0,0.0,0.0
4819,72.0,6.0,15.0,0.0,0.0
4820,74.0,51.0,15.0,0.0,0.0
4821,54.0,0.0,40.0,3.0,0.0
4822,72.0,36.0,40.0,0.0,0.0
4823,50.0,6.0,40.0,3.0,0.0
4824,71.0,24.0,20.0,0.0,0.0
4825,72.0,30.0,20.0,0.0,0.0
4826,55.0,12.0,180.0,3.0,0.0
4827,71.0,30.0,20.0,0.0,0.0
4828,74.0,30.0,20.0,0.0,0.0
4829,76.0,30.0,20.0,0.0,0.0
4830,78.0,30.0,20.0,0.0,0.0
4831,79.0,30.0,20.0,0.0,0.0
4832,81.0,18.0,20.0,0.0,0.0
4833,83.0,30.0,20.0,0.0,0.0
4834,84.0,30.0,20.0,0.0,0.0
4835,86.0,30.0,20.0,0.0,0.0
4836,88.0,30.0,20.0,0.0,0.0
4837,62.0,6.0,40.0,3.0,0.0
4838,90.0,24.0,20.0,0.0,0.0
4839,91.0,54.0,20.0,0.0,0.0
4840,86.0,0.0,40.0,0.0,0.0
4841,59.0,60.0,40.0,3.0,0.0
4842,55.0,30.0,40.0,3.0,0.0
4843,66.0,0.0,210.0,0.0,0.0
4844,69.0,0.0,210.0,0.0,0.0
4845,60.0,60.0,20.0,3.0,0.0
4846,74.0,6.0,180.0,0.0,0.0
4847,57.0,60.0,20.0,3.0,0.0
4848,54.0,54.0,20.0,3.0,0.0
4849,50.0,54.0,20.0,3.0,0.0
4850,48.0,15.0,15.0,3.0,0.0
4851,50.0,15.0,15.0,3.0,0.0
4852,48.0,15.0,15.0,3.0,0.0
4853,50.0,15.0,15.0,3.0,0.0
4854,48.0,15.0,15.0,3.0,0.0
4855,81.0,9.0,40.0,0.0,0.0
4856,50.0,15.0,15.0,3.0,0.0
4857,48.0,6.0,15.0,3.0,0.0
4858,50.0,51.0,15.0,3.0,0.0
4859,78.0,0.0,40.0,0.0,0.0
4860,48.0,36.0,40.0,3.0,0.0
4861,74.0,30.0,20.0,0.0,0.0
4862,47.0,0.0,20.0,3.0,0.0
4863,71.0,0.0,210.0,0.0,0.0
4864,48.0,36.0,20.0,3.0,0.0
4865,74.0,18.0,210.0,0.0,0.0
4866,47.0,30.0,30.0,3.0,0.0
4867,79.0,0.0,180.0,0.0,0.0
4868,50.0,30.0,30.0,3.0,0.0
4869,52.0,30.0,30.0,3.0,0.0
4870,54.0,30.0,30.0,3.0,0.0
4871,55.0,30.0,30.0,3.0,0.0
4872,57.0,12.0,30.0,3.0,0.0
4873,59.0,30.0,30.0,3.0,0.0
4874,60.0,30.0,30.0,3.0,0.0
4875,62.0,30.0,30.0,3.0,0.0
4876,64.0,30.0,30.0,3.0,0.0
4877,66.0,18.0,30.0,3.0,0.0
4878,86.0,12.0,40.0,0.0,0.0
4879,67.0,48.0,30.0,3.0,0.0
4880,83.0,12.0,40.0,0.0,0.0
4881,62.0,48.0,60.0,3.0,0.0
4882,79.0,36.0,40.0,0.0,0.0
4883,84.0,30.0,20.0,0.0,0.0
4884,72.0,0.0,180.0,1.0,0.0
4885,69.0,0.0,180.0,1.0,0.0
4886,62.0,0.0,180.0,2.0,0.0
4887,66.0,12.0,180.0,2.0,0.0
4888,86.0,30.0,20.0,0.0,0.0
4889,88.0,30.0,20.0,0.0,0.0
4890,86.0,30.0,20.0,0.0,0.0
4891,84.0,30.0,20.0,0.0,0.0
4892,83.0,18.0,20.0,0.0,0.0
4893,81.0,30.0,20.0,0.0,0.0
4894,80.0,30.0,20.0,0.0,0.0
4895,81.0,30.0,20.0,0.0,0.0
4896,72.0,12.0,180.0,1.0,0.0
4897,62.0,0.0,180.0,2.0,0.0
4898,66.0,0.0,180.0,2.0,0.0
4899,69.0,0.0,180.0,1.0,0.0
4900,83.0,30.0,20.0,0.0,0.0
4901,84.0,30.0,20.0,0.0,0.0
4902,83.0,30.0,20.0,0.0,0.0
4903,81.0,30.0,20.0,0.0,0.0
4904,79.0,18.0,20.0,0.0,0.0
4905,78.0,30.0,20.0,0.0,0.0
4906,76.0,30.0,20.0,0.0,0.0
4907,69.0,0.0,180.0,1.0,0.0
4908,72.0,0.0,180.0,1.0,0.0
4909,66.0,12.0,180.0,2.0,0.0
4910,62.0,0.0,180.0,2.0,0.0
4911,78.0,30.0,20.0,0.0,0.0
4912,79.0,30.0,20.0,0.0,0.0
4913,81.0,30.0,20.0,0.0,0.0
4914,79.0,30.0,20.0,0.0,0.0
4915,78.0,30.0,20.0,0.0,0.0
4916,76.0,18.0,20.0,0.0,0.0
4917,74.0,30.0,20.0,0.0,0.0
4918,73.0,30.0,20.0,0.0,0.0
4919,66.0,0.0,180.0,1.0,0.0
4920,74.0,30.0,20.0,0.0,0.0
4921,62.0,12.0,180.0,2.0,0.0
4922,73.0,30.0,20.0,0.0,0.0
4923,74.0,30.0,20.0,0.0,0.0
4924,76.0,30.0,20.0,0.0,0.0
4925,74.0,30.0,20.0,0.0,0.0
4926,72.0,18.0,20.0,0.0,0.0
4927,71.0,30.0,20.0,0.0,0.0
4928,70.0,30.0,20.0,0.0,0.0
4929,71.0,30.0,20.0,0.0,0.0
4930,67.0,6.0,300.0,1.0,0.0
4931,72.0,30.0,20.0,0.0,0.0
4932,74.0,30.0,20.0,0.0,0.0
4933,76.0,30.0,20.0,0.0,0.0
4934,78.0,30.0,20.0,0.0,0.0
4935,79.0,30.0,20.0,0.0,0.0
4936,81.0,30.0,20.0,0.0,0.0
4937,83.0,30.0,20.0,0.0,0.0
4938,76.0,24.0,20.0,0.0,0.0
4939,60.0,12.0,180.0,2.0,0.0
4940,78.0,30.0,20.0,0.0,0.0
4941,79.0,30.0,20.0,0.0,0.0
4942,81.0,30.0,20.0,0.0,0.0
4943,69.0,18.0,90.0,1.0,0.0
4944,83.0,30.0,20.0,0.0,0.0
4945,84.0,18.0,20.0,0.0,0.0
4946,86.0,12.0,20.0,0.0,0.0
4947,88.0,30.0,20.0,0.0,0.0
4948,62.0,0.0,90.0,2.0,0.0
4949,71.0,18.0,90.0,1.0,0.0
4950,88.0,30.0,20.0,0.0,0.0
4951,86.0,30.0,20.0,0.0,0.0
4952,85.0,12.0,20.0,0.0,0.0
4953,86.0,30.0,20.0,0.0,0.0
4954,84.0,30.0,20.0,0.0,0.0
4955,83.0,30.0,20.0,0.0,0.0
4956,81.0,30.0,20.0,0.0,0.0
4957,79.0,30.0,20.0,0.0,0.0
4958,66.0,18.0,90.0,2.0,0.0
4959,62.0,0.0,90.0,2.0,0.0
4960,86.0,30.0,20.0,0.0,0.0
4961,72.0,0.0,90.0,1.0,0.0
4962,69.0,0.0,90.0,1.0,0.0
4963,84.0,30.0,20.0,0.0,0.0
4964,83.0,12.0,20.0,0.0,0.0
4965,84.0,30.0,20.0,0.0,0.0
4966,83.0,30.0,20.0,0.0,0.0
4967,81.0,30.0,20.0,0.0,0.0
4968,79.0,30.0,20.0,0.0,0.0
4969,78.0,30.0,20.0,0.0,0.0
4970,79.0,30.0,20.0,0.0,0.0
4971,71.0,0.0,90.0,1.0,0.0
4972,67.0,18.0,90.0,2.0,0.0
4973,81.0,30.0,20.0,0.0,0.0
4974,83.0,12.0,20.0,0.0,0.0
4975,84.0,30.0,20.0,0.0,0.0
4976,86.0,30.0,20.0,0.0,0.0
4977,84.0,30.0,20.0,0.0,0.0
4978,83.0,30.0,20.0,0.0,0.0
4979,81.0,30.0,20.0,0.0,0.0
4980,79.0,30.0,20.0,0.0,0.0
4981,78.0,30.0,20.0,0.0,0.0
4982,76.0,30.0,20.0,0.0,0.0
4983,74.0,30.0,20.0,0.0,0.0
4984,72.0,30.0,20.0,0.0,0.0
4985,71.0,30.0,20.0,0.0,0.0
4986,69.0,30.0,20.0,0.0,0.0
4987,67.0,30.0,20.0,0.0,0.0
4988,72.0,30.0,20.0,2.0,0.0
4989,74.0,30.0,20.0,2.0,0.0
4990,76.0,30.0,20.0,2.0,0.0
4991,74.0,30.0,20.0,2.0,0.0
4992,72.0,30.0,20.0,2.0,0.0
4993,71.0,30.0,20.0,2.0,0.0
4994,69.0,30.0,20.0,2.0,0.0
4995,68.0,18.0,20.0,2.0,0.0
4996,69.0,3.0,20.0,2.0,0.0
4997,84.0,12.0,15.0,0.0,0.0
4998,81.0,12.0,90.0,1.0,0.0
4999,86.0,15.0,15.0,0.0,0.0
5000,84.0,12.0,15.0,0.0,0.0
5001,71.0,3.0,20.0,2.0,0.0
5002,86.0,27.0,15.0,0.0,0.0
5003,84.0,6.0,40.0,0.0,0.0
5004,72.0,12.0,20.0,2.0,0.0
5005,71.0,30.0,20.0,2.0,0.0
5006,69.0,30.0,20.0,2.0,0.0
5007,67.0,30.0,20.0,2.0,0.0
5008,66.0,30.0,20.0,2.0,0.0
5009,64.0,18.0,20.0,2.0,0.0
5010,66.0,3.0,20.0,2.0,0.0
5011,84.0,12.0,15.0,0.0,0.0
5012,81.0,12.0,90.0,1.0,0.0
5013,86.0,15.0,15.0,0.0,0.0
5014,67.0,3.0,20.0,2.0,0.0
5015,84.0,12.0,15.0,0.0,0.0
5016,86.0,27.0,15.0,0.0,0.0
5017,69.0,12.0,20.0,2.0,0.0
5018,84.0,6.0,40.0,0.0,0.0
5019,67.0,30.0,20.0,2.0,0.0
5020,66.0,30.0,20.0,2.0,0.0
5021,64.0,30.0,20.0,2.0,0.0
5022,62.0,30.0,20.0,2.0,0.0
5023,61.0,30.0,20.0,2.0,0.0
5024,81.0,18.0,90.0,1.0,0.0
5025,84.0,0.0,90.0,0.0,0.0
5026,62.0,30.0,20.0,2.0,0.0
5027,61.0,30.0,20.0,2.0,0.0
5028,62.0,12.0,20.0,2.0,0.0
5029,64.0,30.0,20.0,2.0,0.0
5030,74.0,0.0,90.0,1.0,0.0
5031,78.0,18.0,90.0,0.0,0.0
5032,62.0,30.0,20.0,2.0,0.0
5033,60.0,30.0,20.0,2.0,0.0
5034,59.0,12.0,20.0,2.0,0.0
5035,57.0,30.0,20.0,2.0,0.0
5036,59.0,30.0,20.0,2.0,0.0
5037,79.0,0.0,90.0,1.0,0.0
5038,79.0,18.0,90.0,0.0,0.0
5039,57.0,30.0,20.0,2.0,0.0
5040,55.0,12.0,20.0,2.0,0.0
5041,54.0,30.0,20.0,2.0,0.0
5042,86.0,0.0,90.0,0.0,0.0
5043,79.0,18.0,90.0,1.0,0.0
5044,52.0,30.0,20.0,2.0,0.0
5045,50.0,30.0,20.0,2.0,0.0
5046,48.0,12.0,20.0,2.0,0.0
5047,47.0,30.0,20.0,2.0,0.0
5048,88.0,0.0,90.0,0.0,0.0
5049,79.0,18.0,90.0,1.0,0.0
5050,48.0,30.0,20.0,2.0,0.0
5051,50.0,30.0,20.0,2.0,0.0
5052,52.0,12.0,20.0,2.0,0.0
5053,54.0,30.0,20.0,2.0,0.0
5054,91.0,18.0,90.0,0.0,0.0
5055,55.0,30.0,20.0,2.0,0.0
5056,79.0,0.0,90.0,1.0,0.0
5057,57.0,30.0,20.0,2.0,0.0
5058,59.0,12.0,20.0,2.0,0.0
5059,60.0,30.0,20.0,2.0,0.0
5060,86.0,30.0,20.0,0.0,0.0
5061,62.0,12.0,180.0,2.0,0.0
5062,84.0,30.0,20.0,0.0,0.0
5063,83.0,30.0,20.0,0.0,0.0
5064,81.0,30.0,20.0,0.0,0.0
5065,79.0,30.0,20.0,0.0,0.0
5066,78.0,18.0,20.0,0.0,0.0
5067,76.0,30.0,20.0,0.0,0.0
5068,74.0,30.0,20.0,0.0,0.0
5069,72.0,30.0,20.0,1.0,0.0
5070,71.0,30.0,20.0,1.0,0.0
5071,69.0,30.0,20.0,1.0,0.0
5072,67.0,30.0,20.0,1.0,0.0
5073,66.0,30.0,20.0,1.0,0.0
5074,64.0,30.0,20.0,1.0,0.0
5075,62.0,30.0,20.0,1.0,0.0
5076,60.0,0.0,20.0,1.0,0.0
5077,50.0,126.0,20.0,3.0,0.0
5078,66.0,0.0,240.0,0.0,0.0
5079,60.0,0.0,240.0,1.0,0.0
5080,55.0,120.0,120.0,3.0,0.0
5081,57.0,0.0,240.0,2.0,0.0
5082,62.0,96.0,240.0,2.0,0.0
5083,50.0,0.0,120.0,3.0,0.0
5084,43.0,0.0,90.0,3.0,0.0
5085,67.0,120.0,90.0,0.0,0.0
5086,59.0,0.0,90.0,1.0,0.0
5087,62.0,0.0,90.0,2.0,0.0
5088,74.0,84.0,90.0,0.0,0.0
5089,70.0,20.0,60.0,0.0,0.0
5090,72.0,20.0,20.0,0.0,0.0
5091,70.0,20.0,20.0,0.0,0.0
5092,69.0,60.0,20.0,0.0,0.0
5093,70.0,60.0,60.0,0.0,0.0
5094,72.0,120.0,60.0,0.0,0.0
5095,74.0,120.0,120.0,0.0,0.0
5096,62.0,60.0,120.0,2.0,0.0
5097,66.0,0.0,120.0,0.0,0.0
5098,58.0,20.0,60.0,2.0,0.0
5099,67.0,0.0,360.0,0.0,0.0
5100,60.0,20.0,20.0,2.0,0.0
5101,58.0,20.0,20.0,2.0,0.0
5102,57.0,60.0,20.0,2.0,0.0
5103,58.0,60.0,60.0,2.0,0.0
5104,60.0,120.0,60.0,2.0,0.0
5105,62.0,120.0,120.0,2.0,0.0
5106,70.0,60.0,180.0,0.0,0.0
5107,55.0,60.0,120.0,2.0,0.0
5108,63.0,0.0,240.0,1.0,0.0
5109,60.0,0.0,240.0,2.0,0.0
5110,69.0,60.0,60.0,0.0,0.0
5111,72.0,60.0,60.0,0.0,0.0
5112,66.0,120.0,60.0,0.0,0.0
5113,62.0,0.0,240.0,1.0,0.0
5114,58.0,0.0,120.0,2.0,0.0
5115,67.0,120.0,120.0,0.0,0.0
5116,74.0,60.0,180.0,0.0,0.0
5117,55.0,60.0,120.0,2.0,0.0
5118,54.0,120.0,240.0,2.0,0.0
5119,62.0,120.0,360.0,1.0,0.0
5120,72.0,60.0,60.0,0.0,0.0
5121,75.0,60.0,60.0,0.0,0.0
5122,69.0,0.0,60.0,0.0,0.0
5123,70.0,0.0,120.0,0.0,0.0
5124,55.0,0.0,120.0,2.0,0.0
5125,74.0,24.0,120.0,0.0,0.0
5126,79.0,96.0,20.0,0.0,0.0
5127,74.0,60.0,60.0,0.0,0.0
5128,70.0,0.0,120.0,1.0,0.0
5129,67.0,0.0,120.0,2.0,0.0
5130,75.0,60.0,60.0,0.0,0.0
5131,74.0,120.0,60.0,0.0,0.0
5132,69.0,60.0,120.0,1.0,0.0
5133,66.0,0.0,120.0,2.0,0.0
5134,84.0,0.0,60.0,0.0,0.0
5135,81.0,60.0,60.0,0.0,0.0
5136,69.0,0.0,120.0,2.0,0.0
5137,72.0,24.0,120.0,1.0,0.0
5138,78.0,0.0,60.0,0.0,0.0
5139,79.0,96.0,20.0,0.0,0.0
5140,74.0,60.0,60.0,0.0,0.0
5141,67.0,120.0,120.0,2.0,0.0
5142,75.0,60.0,60.0,0.0,0.0
5143,70.0,0.0,120.0,1.0,0.0
5144,74.0,0.0,60.0,0.0,0.0
5145,66.0,0.0,120.0,2.0,0.0
5146,69.0,0.0,120.0,1.0,0.0
5147,84.0,60.0,60.0,0.0,0.0
5148,81.0,60.0,60.0,0.0,0.0
5149,69.0,60.0,120.0,2.0,0.0
5150,72.0,0.0,120.0,1.0,0.0
5151,78.0,0.0,60.0,0.0,0.0
5152,79.0,60.0,60.0,0.0,0.0
5153,70.0,0.0,120.0,1.0,0.0
5154,67.0,0.0,120.0,2.0,0.0
5155,82.0,84.0,60.0,0.0,0.0
5156,58.0,84.0,120.0,2.0,0.0
5157,70.0,0.0,20.0,1.0,0.0
5158,74.0,36.0,20.0,0.0,0.0
5159,60.0,84.0,120.0,2.0,0.0
5160,72.0,0.0,20.0,0.0,0.0
5161,69.0,36.0,20.0,1.0,0.0
5162,61.0,60.0,120.0,2.0,0.0
5163,70.0,36.0,20.0,0.0,0.0
5164,67.0,0.0,20.0,1.0,0.0
5165,62.0,120.0,360.0,2.0,0.0
5166,70.0,60.0,60.0,0.0,0.0
5167,67.0,120.0,240.0,1.0,0.0
5168,74.0,60.0,60.0,0.0,0.0
5169,73.0,60.0,60.0,0.0,0.0
5170,74.0,0.0,60.0,0.0,0.0
5171,69.0,0.0,120.0,0.0,0.0
5172,66.0,0.0,120.0,1.0,0.0
5173,74.0,60.0,120.0,0.0,0.0
5174,70.0,20.0,60.0,0.0,0.0
5175,72.0,20.0,20.0,0.0,0.0
5176,70.0,20.0,20.0,0.0,0.0
5177,69.0,60.0,20.0,0.0,0.0
5178,70.0,60.0,60.0,0.0,0.0
5179,72.0,120.0,60.0,0.0,0.0
5180,74.0,120.0,120.0,0.0,0.0
5181,62.0,60.0,120.0,2.0,0.0
5182,66.0,0.0,120.0,0.0,0.0
5183,58.0,20.0,60.0,2.0,0.0
5184,67.0,120.0,360.0,0.0,0.0
5185,60.0,20.0,20.0,2.0,0.0
5186,58.0,20.0,20.0,2.0,0.0
5187,57.0,60.0,20.0,2.0,0.0
5188,58.0,60.0,60.0,2.0,0.0
5189,60.0,120.0,60.0,2.0,0.0
5190,62.0,0.0,120.0,2.0,0.0
5191,70.0,60.0,180.0,0.0,0.0
5192,55.0,60.0,120.0,2.0,0.0
5193,60.0,0.0,240.0,2.0,0.0
5194,63.0,0.0,240.0,1.0,0.0
5195,69.0,60.0,60.0,0.0,0.0
5196,72.0,60.0,60.0,0.0,0.0
5197,66.0,120.0,60.0,0.0,0.0
5198,67.0,0.0,120.0,0.0,0.0
5199,62.0,0.0,240.0,1.0,0.0
5200,58.0,120.0,120.0,2.0,0.0
5201,74.0,60.0,180.0,0.0,0.0
5202,55.0,60.0,120.0,2.0,0.0
5203,62.0,0.0,360.0,1.0,0.0
5204,54.0,120.0,240.0,2.0,0.0
5205,72.0,60.0,60.0,0.0,0.0
5206,75.0,60.0,60.0,0.0,0.0
5207,69.0,0.0,60.0,0.0,0.0
5208,70.0,120.0,120.0,0.0,0.0
5209,55.0,0.0,120.0,2.0,0.0
5210,74.0,24.0,120.0,0.0,0.0
5211,79.0,96.0,20.0,0.0,0.0
5212,74.0,60.0,60.0,0.0,0.0
5213,75.0,60.0,60.0,0.0,0.0
5214,67.0,0.0,120.0,2.0,0.0
5215,70.0,0.0,120.0,1.0,0.0
5216,74.0,120.0,60.0,0.0,0.0
5217,66.0,60.0,120.0,2.0,0.0
5218,69.0,0.0,120.0,1.0,0.0
5219,84.0,0.0,60.0,0.0,0.0
5220,69.0,0.0,120.0,2.0,0.0
5221,72.0,24.0,120.0,1.0,0.0
5222,81.0,60.0,60.0,0.0,0.0
5223,78.0,0.0,60.0,0.0,0.0
5224,79.0,96.0,20.0,0.0,0.0
5225,74.0,60.0,60.0,0.0,0.0
5226,75.0,60.0,60.0,0.0,0.0
5227,67.0,0.0,120.0,2.0,0.0
5228,70.0,0.0,120.0,1.0,0.0
5229,74.0,120.0,60.0,0.0,0.0
5230,69.0,0.0,120.0,1.0,0.0
5231,66.0,60.0,120.0,2.0,0.0
5232,84.0,0.0,60.0,0.0,0.0
5233,81.0,60.0,60.0,0.0,0.0
5234,72.0,0.0,120.0,1.0,0.0
5235,69.0,60.0,120.0,2.0,0.0
5236,78.0,0.0,60.0,0.0,0.0
5237,79.0,60.0,60.0,0.0,0.0
5238,70.0,0.0,120.0,1.0,0.0
5239,67.0,84.0,120.0,2.0,0.0
5240,82.0,0.0,60.0,0.0,0.0
5241,58.0,84.0,120.0,2.0,0.0
5242,70.0,36.0,20.0,1.0,0.0
5243,74.0,0.0,20.0,0.0,0.0
5244,60.0,84.0,120.0,2.0,0.0
5245,69.0,0.0,20.0,1.0,0.0
5246,72.0,36.0,20.0,0.0,0.0
5247,61.0,60.0,120.0,2.0,0.0
5248,67.0,0.0,20.0,1.0,0.0
5249,70.0,36.0,20.0,0.0,0.0
5250,67.0,0.0,240.0,1.0,0.0
5251,62.0,0.0,360.0,2.0,0.0
5252,70.0,60.0,60.0,0.0,0.0
5253,74.0,60.0,60.0,0.0,0.0
5254,73.0,60.0,60.0,0.0,0.0
5255,74.0,120.0,60.0,0.0,0.0
5256,66.0,0.0,120.0,1.0,0.0
5257,69.0,120.0,120.0,0.0,0.0
5258,74.0,72.0,30.0,0.0,0.0
5259,57.0,0.0,90.0,2.0,0.0
5260,84.0,24.0,60.0,0.0,0.0
5261,60.0,0.0,90.0,1.0,0.0
5262,50.0,18.0,90.0,3.0,0.0
5263,81.0,78.0,20.0,0.0,0.0
5264,60.0,0.0,180.0,1.0,0.0
5265,51.0,18.0,90.0,3.0,0.0
5266,57.0,0.0,180.0,2.0,0.0
5267,78.0,24.0,60.0,0.0,0.0
5268,78.0,78.0,20.0,0.0,0.0
5269,84.0,24.0,60.0,0.0,0.0
5270,50.0,18.0,90.0,3.0,0.0
5271,81.0,78.0,20.0,0.0,0.0
5272,78.0,24.0,60.0,0.0,0.0
5273,48.0,18.0,90.0,3.0,0.0
5274,50.0,0.0,90.0,2.0,0.0
5275,57.0,0.0,90.0,1.0,0.0
5276,78.0,18.0,20.0,0.0,0.0
5277,79.0,15.0,15.0,0.0,0.0
5278,46.0,0.0,90.0,3.0,0.0
5279,50.0,0.0,90.0,2.0,0.0
5280,55.0,18.0,90.0,1.0,0.0
5281,81.0,15.0,15.0,0.0,0.0
5282,79.0,15.0,15.0,0.0,0.0
5283,78.0,27.0,15.0,0.0,0.0
5284,79.0,12.0,20.0,0.0,0.0
5285,81.0,18.0,20.0,0.0,0.0
5286,82.0,15.0,15.0,0.0,0.0
5287,84.0,15.0,15.0,0.0,0.0
5288,82.0,15.0,15.0,0.0,0.0
5289,81.0,27.0,15.0,0.0,0.0
5290,82.0,30.0,20.0,0.0,0.0
5291,84.0,102.0,20.0,0.0,0.0
5292,86.0,138.0,90.0,0.0,0.0
5293,62.0,78.0,20.0,0.0,0.0
5294,57.0,0.0,90.0,2.0,0.0
5295,50.0,18.0,90.0,3.0,0.0
5296,72.0,24.0,60.0,0.0,0.0
5297,60.0,0.0,90.0,1.0,0.0
5298,69.0,78.0,20.0,0.0,0.0
5299,60.0,24.0,180.0,1.0,0.0
5300,51.0,18.0,90.0,3.0,0.0
5301,57.0,0.0,180.0,2.0,0.0
5302,66.0,24.0,60.0,0.0,0.0
5303,66.0,78.0,20.0,0.0,0.0
5304,72.0,0.0,60.0,0.0,0.0
5305,50.0,18.0,90.0,3.0,0.0
5306,69.0,78.0,20.0,0.0,0.0
5307,66.0,24.0,60.0,0.0,0.0
5308,48.0,0.0,90.0,3.0,0.0
5309,50.0,0.0,90.0,2.0,0.0
5310,57.0,18.0,90.0,1.0,0.0
5311,66.0,18.0,20.0,0.0,0.0
5312,50.0,18.0,90.0,2.0,0.0
5313,46.0,0.0,90.0,3.0,0.0
5314,55.0,0.0,90.0,1.0,0.0
5315,67.0,15.0,15.0,0.0,0.0
5316,69.0,15.0,15.0,0.0,0.0
5317,67.0,15.0,15.0,0.0,0.0
5318,66.0,27.0,15.0,0.0,0.0
5319,67.0,12.0,20.0,0.0,0.0
5320,69.0,18.0,20.0,0.0,0.0
5321,70.0,15.0,15.0,0.0,0.0
5322,72.0,15.0,15.0,0.0,0.0
5323,70.0,15.0,15.0,0.0,0.0
5324,69.0,27.0,15.0,0.0,0.0
5325,70.0,30.0,20.0,0.0,0.0
5326,72.0,102.0,20.0,0.0,0.0
5327,74.0,192.0,90.0,0.0,0.0
5328,86.0,60.0,180.0,0.0,0.0
5329,63.0,0.0,150.0,3.0,0.0
5330,67.0,24.0,150.0,2.0,0.0
5331,84.0,36.0,40.0,0.0,0.0
5332,86.0,60.0,40.0,0.0,0.0
5333,62.0,0.0,40.0,3.0,0.0
5334,87.0,44.0,40.0,0.0,0.0
5335,65.0,0.0,40.0,2.0,0.0
5336,87.0,40.0,30.0,0.0,0.0
5337,60.0,0.0,180.0,3.0,0.0
5338,63.0,16.0,90.0,2.0,0.0
5339,86.0,24.0,30.0,0.0,0.0
5340,84.0,40.0,30.0,0.0,0.0
5341,82.0,40.0,30.0,0.0,0.0
5342,69.0,0.0,510.0,2.0,0.0
5343,81.0,40.0,30.0,0.0,0.0
5344,79.0,128.0,30.0,0.0,0.0
5345,62.0,36.0,390.0,3.0,0.0
5346,79.0,48.0,180.0,0.0,0.0
5347,72.0,60.0,60.0,1.0,0.0
5348,74.0,12.0,60.0,1.0,0.0
5349,75.0,60.0,60.0,1.0,0.0
5350,78.0,48.0,180.0,0.0,0.0
5351,74.0,60.0,60.0,1.0,0.0
5352,72.0,24.0,60.0,1.0,0.0
5353,71.0,12.0,60.0,1.0,0.0
5354,72.0,96.0,60.0,1.0,0.0
5355,63.0,0.0,90.0,3.0,0.0
5356,67.0,12.0,90.0,2.0,0.0
5357,79.0,0.0,40.0,0.0,0.0
5358,70.0,60.0,40.0,1.0,0.0
5359,69.0,0.0,40.0,1.0,0.0
5360,78.0,60.0,40.0,0.0,0.0
5361,70.0,0.0,40.0,1.0,0.0
5362,79.0,108.0,40.0,0.0,0.0
5363,60.0,12.0,90.0,3.0,0.0
5364,67.0,0.0,90.0,2.0,0.0
5365,72.0,60.0,40.0,1.0,0.0
5366,75.0,0.0,40.0,0.0,0.0
5367,74.0,0.0,40.0,0.0,0.0
5368,71.0,60.0,40.0,1.0,0.0
5369,75.0,0.0,40.0,0.0,0.0
5370,72.0,108.0,40.0,1.0,0.0
5371,67.0,0.0,90.0,2.0,0.0
5372,62.0,12.0,90.0,3.0,0.0
5373,74.0,0.0,40.0,0.0,0.0
5374,70.0,60.0,40.0,1.0,0.0
5375,69.0,0.0,40.0,1.0,0.0
5376,73.0,60.0,40.0,0.0,0.0
5377,70.0,108.0,40.0,1.0,0.0
5378,74.0,0.0,40.0,0.0,0.0
5379,62.0,12.0,90.0,2.0,0.0
5380,50.0,0.0,90.0,3.0,0.0
5381,66.0,60.0,40.0,1.0,0.0
5382,69.0,0.0,40.0,0.0,0.0
5383,72.0,0.0,40.0,0.0,0.0
5384,69.0,60.0,40.0,1.0,0.0
5385,60.0,0.0,40.0,1.0,0.0
5386,66.0,156.0,40.0,0.0,0.0
5387,51.0,48.0,150.0,2.0,0.0
5388,66.0,0.0,180.0,0.0,0.0
5389,60.0,0.0,180.0,1.0,0.0
5390,39.0,12.0,180.0,3.0,0.0
5391,50.0,30.0,20.0,2.0,0.0
5392,48.0,102.0,20.0,2.0,0.0
5393,67.0,0.0,90.0,0.0,0.0
5394,34.0,12.0,180.0,3.0,0.0
5395,58.0,48.0,90.0,1.0,0.0
5396,62.0,0.0,90.0,1.0,0.0
5397,46.0,48.0,150.0,2.0,0.0
5398,86.0,60.0,180.0,0.0,0.0
5399,45.0,30.0,20.0,2.0,0.0
5400,43.0,54.0,20.0,2.0,0.0
5401,42.0,36.0,180.0,2.0,0.0
5402,83.0,60.0,40.0,0.0,0.0
5403,84.0,24.0,40.0,0.0,0.0
5404,86.0,44.0,40.0,0.0,0.0
5405,87.0,40.0,30.0,0.0,0.0
5406,86.0,40.0,30.0,0.0,0.0
5407,84.0,40.0,30.0,0.0,0.0
5408,72.0,60.0,180.0,1.0,0.0
5409,82.0,40.0,30.0,0.0,0.0
5410,81.0,40.0,30.0,0.0,0.0
5411,79.0,68.0,30.0,0.0,0.0
5412,79.0,48.0,180.0,0.0,0.0
5413,71.0,60.0,60.0,1.0,0.0
5414,72.0,12.0,60.0,1.0,0.0
5415,74.0,40.0,60.0,1.0,0.0
5416,75.0,40.0,40.0,1.0,0.0
5417,78.0,24.0,90.0,0.0,0.0
5418,74.0,16.0,40.0,1.0,0.0
5419,72.0,40.0,40.0,1.0,0.0
5420,72.0,40.0,40.0,1.0,0.0
5421,74.0,24.0,90.0,0.0,0.0
5422,70.0,16.0,40.0,1.0,0.0
5423,69.0,72.0,40.0,1.0,0.0
5424,70.0,6.0,90.0,1.0,0.0
5425,81.0,15.0,15.0,0.0,0.0
5426,79.0,9.0,15.0,0.0,0.0
5427,78.0,15.0,15.0,0.0,0.0
5428,79.0,51.0,15.0,0.0,0.0
5429,82.0,60.0,40.0,0.0,0.0
5430,74.0,84.0,40.0,0.0,0.0
5431,72.0,6.0,90.0,1.0,0.0
5432,77.0,15.0,15.0,0.0,0.0
5433,75.0,9.0,15.0,0.0,0.0
5434,74.0,15.0,15.0,0.0,0.0
5435,75.0,51.0,15.0,0.0,0.0
5436,79.0,60.0,40.0,0.0,0.0
5437,72.0,60.0,40.0,0.0,0.0
5438,70.0,28.0,40.0,0.0,0.0
5439,72.0,20.0,15.0,0.0,0.0
5440,70.0,20.0,15.0,0.0,0.0
5441,69.0,52.0,15.0,0.0,0.0
5442,70.0,60.0,40.0,0.0,0.0
5443,72.0,108.0,40.0,0.0,0.0
5444,74.0,144.0,90.0,0.0,0.0
5445,57.0,0.0,120.0,2.0,0.0
5446,60.0,0.0,120.0,1.0,0.0
5447,50.0,0.0,120.0,3.0,0.0
5448,62.0,0.0,15.0,1.0,0.0
5449,60.0,0.0,240.0,1.0,0.0
5450,66.0,120.0,15.0,0.0,0.0
5451,57.0,0.0,240.0,2.0,0.0
5452,55.0,120.0,120.0,3.0,0.0
5453,50.0,0.0,120.0,3.0,0.0
5454,58.0,0.0,120.0,2.0,0.0
5455,62.0,121.0,120.0,1.0,0.0
5456,43.0,0.0,90.0,3.0,0.0
5457,67.0,17.0,90.0,0.0,0.0
5458,74.0,78.0,20.0,0.0,0.0
5459,50.0,0.0,90.0,3.0,0.0
5460,60.0,0.0,90.0,1.0,0.0
5461,57.0,18.0,90.0,2.0,0.0
5462,84.0,24.0,60.0,0.0,0.0
5463,81.0,78.0,20.0,0.0,0.0
5464,60.0,0.0,180.0,1.0,0.0
5465,51.0,18.0,90.0,3.0,0.0
5466,78.0,24.0,60.0,0.0,0.0
5467,57.0,0.0,180.0,2.0,0.0
5468,78.0,78.0,20.0,0.0,0.0
5469,84.0,24.0,60.0,0.0,0.0
5470,50.0,18.0,90.0,3.0,0.0
5471,81.0,78.0,20.0,0.0,0.0
5472,57.0,18.0,90.0,1.0,0.0
5473,78.0,24.0,60.0,0.0,0.0
5474,48.0,0.0,90.0,3.0,0.0
5475,50.0,0.0,90.0,2.0,0.0
5476,78.0,18.0,20.0,0.0,0.0
5477,79.0,15.0,15.0,0.0,0.0
5478,50.0,0.0,90.0,2.0,0.0
5479,46.0,0.0,90.0,3.0,0.0
5480,55.0,18.0,90.0,1.0,0.0
5481,81.0,15.0,15.0,0.0,0.0
5482,79.0,15.0,15.0,0.0,0.0
5483,78.0,27.0,15.0,0.0,0.0
5484,79.0,12.0,20.0,0.0,0.0
5485,81.0,18.0,20.0,0.0,0.0
5486,82.0,15.0,15.0,0.0,0.0
5487,84.0,15.0,15.0,0.0,0.0
5488,82.0,15.0,15.0,0.0,0.0
5489,81.0,27.0,15.0,0.0,0.0
5490,82.0,30.0,20.0,0.0,0.0
5491,84.0,102.0,20.0,0.0,0.0
5492,86.0,138.0,90.0,0.0,0.0
5493,62.0,78.0,20.0,0.0,0.0
5494,72.0,24.0,60.0,0.0,0.0
5495,50.0,0.0,90.0,3.0,0.0
5496,60.0,0.0,90.0,1.0,0.0
5497,57.0,18.0,90.0,2.0,0.0
5498,69.0,78.0,20.0,0.0,0.0
5499,57.0,0.0,180.0,2.0,0.0
5500,66.0,24.0,60.0,0.0,0.0
5501,51.0,18.0,90.0,3.0,0.0
5502,60.0,0.0,180.0,1.0,0.0
5503,66.0,78.0,20.0,0.0,0.0
5504,50.0,18.0,90.0,3.0,0.0
5505,72.0,24.0,60.0,0.0,0.0
5506,69.0,78.0,20.0,0.0,0.0
5507,57.0,18.0,90.0,1.0,0.0
5508,48.0,0.0,90.0,3.0,0.0
5509,50.0,0.0,90.0,2.0,0.0
5510,66.0,24.0,60.0,0.0,0.0
5511,66.0,18.0,20.0,0.0,0.0
5512,67.0,15.0,15.0,0.0,0.0
5513,50.0,0.0,90.0,2.0,0.0
5514,55.0,18.0,90.0,1.0,0.0
5515,46.0,0.0,90.0,3.0,0.0
5516,69.0,15.0,15.0,0.0,0.0
5517,67.0,15.0,15.0,0.0,0.0
5518,66.0,27.0,15.0,0.0,0.0
5519,67.0,12.0,20.0,0.0,0.0
5520,69.0,18.0,20.0,0.0,0.0
5521,70.0,15.0,15.0,0.0,0.0
5522,72.0,15.0,15.0,0.0,0.0
5523,70.0,15.0,15.0,0.0,0.0
5524,69.0,27.0,15.0,0.0,0.0
5525,70.0,30.0,20.0,0.0,0.0
5526,72.0,102.0,20.0,0.0,0.0
5527,74.0,192.0,90.0,0.0,0.0
5528,86.0,60.0,180.0,0.0,0.0
5529,67.0,24.0,150.0,2.0,0.0
5530,63.0,0.0,150.0,3.0,0.0
5531,84.0,36.0,40.0,0.0,0.0
5532,86.0,60.0,40.0,0.0,0.0
5533,62.0,0.0,40.0,3.0,0.0
5534,65.0,44.0,40.0,2.0,0.0
5535,87.0,0.0,40.0,0.0,0.0
5536,60.0,40.0,180.0,3.0,0.0
5537,87.0,40.0,30.0,0.0,0.0
5538,63.0,16.0,90.0,2.0,0.0
5539,86.0,24.0,30.0,0.0,0.0
5540,84.0,40.0,30.0,0.0,0.0
5541,69.0,0.0,510.0,2.0,0.0
5542,82.0,40.0,30.0,0.0,0.0
5543,81.0,0.0,30.0,0.0,0.0
5544,79.0,116.0,30.0,0.0,0.0
5545,62.0,24.0,390.0,3.0,0.0
5546,79.0,36.0,180.0,0.0,0.0
5547,72.0,60.0,40.0,1.0,0.0
5548,74.0,24.0,40.0,1.0,0.0
5549,75.0,60.0,40.0,1.0,0.0
5550,78.0,36.0,180.0,0.0,0.0
5551,74.0,60.0,40.0,1.0,0.0
5552,72.0,36.0,40.0,1.0,0.0
5553,71.0,24.0,40.0,1.0,0.0
5554,72.0,108.0,40.0,1.0,0.0
5555,67.0,0.0,90.0,2.0,0.0
5556,63.0,12.0,90.0,3.0,0.0
5557,79.0,60.0,40.0,0.0,0.0
5558,70.0,0.0,40.0,1.0,0.0
5559,69.0,0.0,40.0,1.0,0.0
5560,78.0,60.0,40.0,0.0,0.0
5561,70.0,0.0,40.0,1.0,0.0
5562,79.0,108.0,40.0,0.0,0.0
5563,60.0,0.0,90.0,3.0,0.0
5564,67.0,12.0,90.0,2.0,0.0
5565,75.0,0.0,40.0,0.0,0.0
5566,72.0,60.0,40.0,1.0,0.0
5567,74.0,0.0,40.0,0.0,0.0
5568,71.0,60.0,40.0,1.0,0.0
5569,72.0,0.0,40.0,1.0,0.0
5570,75.0,108.0,40.0,0.0,0.0
5571,67.0,0.0,90.0,2.0,0.0
5572,62.0,12.0,90.0,3.0,0.0
5573,70.0,60.0,40.0,1.0,0.0
5574,74.0,0.0,40.0,0.0,0.0
5575,69.0,60.0,40.0,1.0,0.0
5576,73.0,0.0,40.0,0.0,0.0
5577,74.0,0.0,40.0,0.0,0.0
5578,70.0,108.0,40.0,1.0,0.0
5579,50.0,0.0,90.0,3.0,0.0
5580,62.0,12.0,90.0,2.0,0.0
5581,69.0,60.0,40.0,0.0,0.0
5582,66.0,0.0,40.0,1.0,0.0
5583,69.0,0.0,40.0,1.0,0.0
5584,72.0,60.0,40.0,0.0,0.0
5585,60.0,0.0,40.0,1.0,0.0
5586,66.0,156.0,40.0,0.0,0.0
5587,51.0,48.0,150.0,2.0,0.0
5588,60.0,0.0,180.0,1.0,0.0
5589,66.0,0.0,180.0,0.0,0.0
5590,39.0,12.0,180.0,3.0,0.0
5591,50.0,30.0,20.0,2.0,0.0
5592,48.0,102.0,20.0,2.0,0.0
5593,62.0,0.0,90.0,1.0,0.0
5594,58.0,0.0,90.0,1.0,0.0
5595,34.0,12.0,180.0,3.0,0.0
5596,46.0,48.0,150.0,2.0,0.0
5597,67.0,48.0,90.0,0.0,0.0
5598,86.0,60.0,180.0,0.0,0.0
5599,45.0,30.0,20.0,2.0,0.0
5600,43.0,54.0,20.0,2.0,0.0
5601,42.0,36.0,180.0,2.0,0.0
5602,83.0,60.0,40.0,0.0,0.0
5603,84.0,24.0,40.0,0.0,0.0
5604,86.0,44.0,40.0,0.0,0.0
5605,87.0,40.0,30.0,0.0,0.0
5606,86.0,40.0,30.0,0.0,0.0
5607,84.0,40.0,30.0,0.0,0.0
5608,72.0,60.0,180.0,1.0,0.0
5609,82.0,40.0,30.0,0.0,0.0
5610,81.0,40.0,30.0,0.0,0.0
5611,79.0,56.0,30.0,0.0,0.0
5612,79.0,36.0,180.0,0.0,0.0
5613,71.0,60.0,40.0,1.0,0.0
5614,72.0,24.0,40.0,1.0,0.0
5615,74.0,44.0,40.0,1.0,0.0
5616,75.0,40.0,30.0,1.0,0.0
5617,78.0,16.0,90.0,0.0,0.0
5618,74.0,24.0,30.0,1.0,0.0
5619,72.0,40.0,30.0,1.0,0.0
5620,72.0,40.0,30.0,1.0,0.0
5621,74.0,16.0,90.0,0.0,0.0
5622,70.0,24.0,30.0,1.0,0.0
5623,69.0,80.0,30.0,1.0,0.0
5624,70.0,6.0,90.0,1.0,0.0
5625,81.0,15.0,15.0,0.0,0.0
5626,79.0,9.0,15.0,0.0,0.0
5627,78.0,15.0,15.0,0.0,0.0
5628,79.0,51.0,15.0,0.0,0.0
5629,82.0,60.0,40.0,0.0,0.0
5630,74.0,84.0,40.0,0.0,0.0
5631,72.0,6.0,90.0,1.0,0.0
5632,77.0,15.0,15.0,0.0,0.0
5633,75.0,9.0,15.0,0.0,0.0
5634,74.0,15.0,15.0,0.0,0.0
5635,75.0,51.0,15.0,0.0,0.0
5636,79.0,60.0,40.0,0.0,0.0
5637,72.0,60.0,40.0,0.0,0.0
5638,70.0,28.0,40.0,0.0,0.0
5639,72.0,20.0,15.0,0.0,0.0
5640,70.0,20.0,15.0,0.0,0.0
5641,69.0,52.0,15.0,0.0,0.0
5642,70.0,60.0,40.0,0.0,0.0
5643,72.0,108.0,40.0,0.0,0.0
5644,74.0,144.0,90.0,0.0,0.0
5645,50.0,0.0,120.0,3.0,0.0
5646,66.0,0.0,120.0,0.0,0.0
5647,66.0,0.0,240.0,0.0,0.0
5648,62.0,0.0,15.0,1.0,0.0
5649,60.0,0.0,15.0,1.0,0.0
5650,57.0,120.0,15.0,2.0,0.0
5651,55.0,120.0,120.0,3.0,0.0
5652,50.0,0.0,120.0,3.0,0.0
5653,67.0,17.0,90.0,0.0,0.0
5654,43.0,0.0,90.0,3.0,0.0
5655,62.0,187.0,120.0,1.0,0.0
5656,58.0,0.0,120.0,2.0,0.0
5657,74.0,0.0,90.0,1.0,0.0
5658,71.0,24.0,90.0,2.0,0.0
5659,86.0,30.0,30.0,0.0,0.0
5660,74.0,6.0,30.0,0.0,0.0
5661,86.0,30.0,30.0,0.0,0.0
5662,67.0,24.0,90.0,2.0,0.0
5663,71.0,0.0,90.0,1.0,0.0
5664,74.0,30.0,30.0,0.0,0.0
5665,86.0,30.0,30.0,0.0,0.0
5666,74.0,6.0,30.0,0.0,0.0
5667,86.0,30.0,30.0,0.0,0.0
5668,74.0,30.0,30.0,0.0,0.0
5669,71.0,24.0,90.0,1.0,0.0
5670,67.0,0.0,90.0,2.0,0.0
5671,86.0,30.0,30.0,0.0,0.0
5672,74.0,6.0,30.0,0.0,0.0
5673,86.0,30.0,30.0,0.0,0.0
5674,71.0,24.0,90.0,1.0,0.0
5675,67.0,0.0,90.0,2.0,0.0
5676,74.0,30.0,30.0,0.0,0.0
5677,86.0,30.0,30.0,0.0,0.0
5678,74.0,6.0,30.0,0.0,0.0
5679,86.0,30.0,30.0,0.0,0.0
5680,74.0,30.0,30.0,0.0,0.0
5681,71.0,12.0,300.0,1.0,0.0
5682,67.0,0.0,300.0,2.0,0.0
5683,86.0,30.0,30.0,0.0,0.0
5684,74.0,30.0,30.0,0.0,0.0
5685,86.0,30.0,30.0,0.0,0.0
5686,74.0,30.0,30.0,0.0,0.0
5687,86.0,30.0,30.0,0.0,0.0
5688,74.0,30.0,30.0,0.0,0.0
5689,86.0,30.0,30.0,0.0,0.0
5690,74.0,18.0,30.0,0.0,0.0
5691,86.0,30.0,30.0,0.0,0.0
5692,74.0,30.0,30.0,0.0,0.0
5693,86.0,30.0,30.0,0.0,0.0
5694,74.0,30.0,30.0,0.0,0.0
5695,59.0,0.0,90.0,2.0,0.0
5696,67.0,24.0,90.0,1.0,0.0
5697,86.0,30.0,30.0,0.0,0.0
5698,74.0,6.0,30.0,0.0,0.0
5699,86.0,30.0,30.0,0.0,0.0
5700,74.0,30.0,30.0,0.0,0.0
5701,62.0,0.0,90.0,2.0,0.0
5702,69.0,24.0,90.0,1.0,0.0
5703,86.0,30.0,30.0,0.0,0.0
5704,74.0,6.0,30.0,0.0,0.0
5705,86.0,30.0,30.0,0.0,0.0
5706,74.0,30.0,30.0,0.0,0.0
5707,69.0,0.0,90.0,1.0,0.0
5708,62.0,24.0,90.0,2.0,0.0
5709,86.0,30.0,30.0,0.0,0.0
5710,74.0,6.0,30.0,0.0,0.0
5711,86.0,30.0,30.0,0.0,0.0
5712,62.0,0.0,90.0,2.0,0.0
5713,74.0,30.0,30.0,0.0,0.0
5714,69.0,24.0,90.0,1.0,0.0
5715,86.0,30.0,30.0,0.0,0.0
5716,74.0,6.0,30.0,0.0,0.0
5717,86.0,30.0,30.0,0.0,0.0
5718,71.0,24.0,90.0,1.0,0.0
5719,74.0,30.0,30.0,0.0,0.0
5720,67.0,0.0,90.0,2.0,0.0
5721,86.0,30.0,30.0,0.0,0.0
5722,74.0,6.0,30.0,0.0,0.0
5723,86.0,30.0,30.0,0.0,0.0
5724,72.0,24.0,90.0,1.0,0.0
5725,66.0,0.0,90.0,2.0,0.0
5726,74.0,30.0,30.0,0.0,0.0
5727,86.0,30.0,30.0,0.0,0.0
5728,74.0,6.0,30.0,0.0,0.0
5729,86.0,30.0,30.0,0.0,0.0
5730,69.0,12.0,40.0,1.0,0.0
5731,74.0,18.0,30.0,0.0,0.0
5732,86.0,30.0,30.0,0.0,0.0
5733,72.0,12.0,40.0,1.0,0.0
5734,74.0,18.0,30.0,0.0,0.0
5735,86.0,30.0,30.0,0.0,0.0
5736,74.0,30.0,30.0,0.0,0.0
5737,67.0,0.0,90.0,2.0,0.0
5738,71.0,24.0,90.0,1.0,0.0
5739,86.0,30.0,30.0,0.0,0.0
5740,74.0,6.0,30.0,0.0,0.0
5741,86.0,30.0,30.0,0.0,0.0
5742,74.0,30.0,30.0,0.0,0.0
5743,86.0,30.0,30.0,0.0,0.0
5744,74.0,30.0,30.0,0.0,0.0
5745,86.0,30.0,30.0,0.0,0.0
5746,74.0,30.0,30.0,0.0,0.0
5747,67.0,18.0,180.0,1.0,0.0
5748,59.0,0.0,180.0,3.0,0.0
5749,86.0,30.0,30.0,0.0,0.0
5750,74.0,30.0,30.0,0.0,0.0
5751,86.0,30.0,30.0,0.0,0.0
5752,74.0,30.0,30.0,0.0,0.0
5753,86.0,12.0,30.0,0.0,0.0
5754,74.0,30.0,30.0,0.0,0.0
5755,86.0,30.0,30.0,0.0,0.0
5756,66.0,12.0,40.0,1.0,0.0
5757,60.0,18.0,180.0,3.0,0.0
5758,74.0,18.0,30.0,0.0,0.0
5759,86.0,30.0,30.0,0.0,0.0
5760,74.0,18.0,30.0,0.0,0.0
5761,67.0,12.0,40.0,1.0,0.0
5762,86.0,30.0,30.0,0.0,0.0
5763,74.0,18.0,30.0,0.0,0.0
5764,69.0,12.0,40.0,1.0,0.0
5765,86.0,12.0,30.0,0.0,0.0
5766,66.0,12.0,40.0,1.0,0.0
5767,74.0,18.0,30.0,0.0,0.0
5768,86.0,30.0,30.0,0.0,0.0
5769,59.0,18.0,180.0,3.0,0.0
5770,67.0,0.0,180.0,1.0,0.0
5771,74.0,30.0,30.0,0.0,0.0
5772,86.0,30.0,30.0,0.0,0.0
5773,74.0,30.0,30.0,0.0,0.0
5774,86.0,30.0,30.0,0.0,0.0
5775,74.0,30.0,30.0,0.0,0.0
5776,86.0,12.0,30.0,0.0,0.0
5777,74.0,30.0,30.0,0.0,0.0
5778,86.0,30.0,30.0,0.0,0.0
5779,66.0,12.0,40.0,1.0,0.0
5780,60.0,18.0,180.0,3.0,0.0
5781,74.0,18.0,30.0,0.0,0.0
5782,86.0,30.0,30.0,0.0,0.0
5783,67.0,12.0,40.0,1.0,0.0
5784,74.0,18.0,30.0,0.0,0.0
5785,86.0,30.0,30.0,0.0,0.0
5786,69.0,12.0,40.0,1.0,0.0
5787,74.0,18.0,30.0,0.0,0.0
5788,86.0,12.0,30.0,0.0,0.0
5789,74.0,18.0,30.0,0.0,0.0
5790,66.0,12.0,40.0,1.0,0.0
5791,86.0,30.0,30.0,0.0,0.0
5792,59.0,0.0,120.0,3.0,0.0
5793,67.0,0.0,120.0,1.0,0.0
5794,74.0,30.0,30.0,0.0,0.0
5795,86.0,30.0,30.0,0.0,0.0
5796,74.0,30.0,30.0,0.0,0.0
5797,86.0,30.0,30.0,0.0,0.0
5798,62.0,0.0,120.0,1.0,0.0
5799,59.0,30.0,120.0,3.0,0.0
5800,74.0,30.0,30.0,0.0,0.0
5801,86.0,30.0,30.0,0.0,0.0
5802,74.0,30.0,30.0,0.0,0.0
5803,86.0,0.0,30.0,0.0,0.0
5804,74.0,30.0,30.0,0.0,0.0
5805,57.0,0.0,120.0,3.0,0.0
5806,60.0,30.0,120.0,1.0,0.0
5807,86.0,30.0,30.0,0.0,0.0
5808,74.0,30.0,30.0,0.0,0.0
5809,86.0,0.0,30.0,0.0,0.0
5810,55.0,0.0,120.0,3.0,0.0
5811,74.0,30.0,30.0,0.0,0.0
5812,86.0,30.0,30.0,0.0,0.0
5813,74.0,30.0,30.0,0.0,0.0
5814,86.0,0.0,30.0,0.0,0.0
5815,74.0,30.0,30.0,0.0,0.0
5816,55.0,18.0,180.0,2.0,0.0
5817,50.0,6.0,390.0,3.0,0.0
5818,59.0,30.0,15.0,1.0,0.0
5819,86.0,30.0,30.0,0.0,0.0
5820,74.0,30.0,30.0,0.0,0.0
5821,86.0,30.0,30.0,0.0,0.0
5822,74.0,30.0,30.0,0.0,0.0
5823,86.0,12.0,30.0,0.0,0.0
5824,74.0,30.0,30.0,0.0,0.0
5825,86.0,30.0,30.0,0.0,0.0
5826,54.0,18.0,180.0,2.0,0.0
5827,57.0,0.0,180.0,1.0,0.0
5828,74.0,30.0,30.0,0.0,0.0
5829,86.0,30.0,30.0,0.0,0.0
5830,74.0,30.0,30.0,0.0,0.0
5831,86.0,24.0,30.0,0.0,0.0
5832,74.0,30.0,30.0,0.0,0.0
5833,86.0,12.0,30.0,0.0,0.0
5834,74.0,30.0,30.0,0.0,0.0
5835,86.0,30.0,30.0,0.0,0.0
5836,54.0,24.0,90.0,2.0,0.0
5837,74.0,30.0,30.0,0.0,0.0
5838,57.0,0.0,90.0,1.0,0.0
5839,86.0,30.0,30.0,0.0,0.0
5840,74.0,6.0,30.0,0.0,0.0
5841,86.0,30.0,30.0,0.0,0.0
5842,57.0,24.0,90.0,1.0,0.0
5843,54.0,0.0,90.0,2.0,0.0
5844,74.0,30.0,30.0,0.0,0.0
5845,86.0,30.0,30.0,0.0,0.0
5846,74.0,6.0,30.0,0.0,0.0
5847,86.0,30.0,30.0,0.0,0.0
5848,54.0,24.0,90.0,2.0,0.0
5849,57.0,0.0,90.0,1.0,0.0
5850,74.0,30.0,30.0,0.0,0.0
5851,86.0,30.0,30.0,0.0,0.0
5852,74.0,6.0,30.0,0.0,0.0
5853,86.0,30.0,30.0,0.0,0.0
5854,74.0,30.0,30.0,0.0,0.0
5855,60.0,24.0,90.0,1.0,0.0
5856,57.0,0.0,90.0,2.0,0.0
5857,86.0,30.0,30.0,0.0,0.0
5858,74.0,6.0,30.0,0.0,0.0
5859,86.0,30.0,30.0,0.0,0.0
5860,57.0,0.0,180.0,2.0,0.0
5861,60.0,18.0,180.0,1.0,0.0
5862,74.0,30.0,30.0,0.0,0.0
5863,50.0,6.0,390.0,3.0,0.0
5864,86.0,30.0,30.0,0.0,0.0
5865,74.0,30.0,30.0,0.0,0.0
5866,86.0,30.0,30.0,0.0,0.0
5867,74.0,30.0,30.0,0.0,0.0
5868,86.0,12.0,30.0,0.0,0.0
5869,74.0,30.0,30.0,0.0,0.0
5870,86.0,30.0,30.0,0.0,0.0
5871,55.0,24.0,90.0,2.0,0.0
5872,74.0,30.0,30.0,0.0,0.0
5873,59.0,0.0,90.0,1.0,0.0
5874,86.0,30.0,30.0,0.0,0.0
5875,74.0,6.0,30.0,0.0,0.0
5876,86.0,24.0,30.0,0.0,0.0
5877,74.0,30.0,30.0,0.0,0.0
5878,62.0,24.0,90.0,1.0,0.0
5879,86.0,30.0,30.0,0.0,0.0
5880,74.0,6.0,30.0,0.0,0.0
5881,86.0,30.0,30.0,0.0,0.0
5882,62.0,24.0,90.0,1.0,0.0
5883,74.0,30.0,30.0,0.0,0.0
5884,86.0,30.0,30.0,0.0,0.0
5885,74.0,6.0,30.0,0.0,0.0
5886,86.0,30.0,30.0,0.0,0.0
5887,57.0,24.0,90.0,1.0,0.0
5888,74.0,30.0,30.0,0.0,0.0
5889,54.0,0.0,90.0,2.0,0.0
5890,86.0,30.0,30.0,0.0,0.0
5891,74.0,6.0,30.0,0.0,0.0
5892,86.0,30.0,30.0,0.0,0.0
5893,74.0,30.0,30.0,0.0,0.0
5894,57.0,24.0,90.0,1.0,0.0
5895,54.0,0.0,90.0,2.0,0.0
5896,86.0,30.0,30.0,0.0,0.0
5897,74.0,6.0,30.0,0.0,0.0
5898,86.0,30.0,30.0,0.0,0.0
5899,60.0,0.0,90.0,1.0,0.0
5900,57.0,24.0,90.0,2.0,0.0
5901,74.0,30.0,30.0,0.0,0.0
5902,86.0,30.0,30.0,0.0,0.0
5903,74.0,6.0,30.0,0.0,0.0
5904,86.0,30.0,30.0,0.0,0.0
5905,60.0,18.0,180.0,1.0,0.0
5906,57.0,0.0,180.0,2.0,0.0
5907,50.0,6.0,390.0,3.0,0.0
5908,74.0,30.0,30.0,0.0,0.0
5909,86.0,30.0,30.0,0.0,0.0
5910,74.0,30.0,30.0,0.0,0.0
5911,86.0,30.0,30.0,0.0,0.0
5912,74.0,30.0,30.0,0.0,0.0
5913,86.0,12.0,30.0,0.0,0.0
5914,74.0,30.0,30.0,0.0,0.0
5915,86.0,30.0,30.0,0.0,0.0
5916,74.0,30.0,30.0,0.0,0.0
5917,59.0,24.0,90.0,1.0,0.0
5918,55.0,0.0,90.0,2.0,0.0
5919,86.0,30.0,30.0,0.0,0.0
5920,74.0,6.0,30.0,0.0,0.0
5921,86.0,24.0,30.0,0.0,0.0
5922,62.0,24.0,90.0,1.0,0.0
5923,74.0,30.0,30.0,0.0,0.0
5924,86.0,30.0,30.0,0.0,0.0
5925,74.0,6.0,30.0,0.0,0.0
5926,86.0,30.0,30.0,0.0,0.0
5927,57.0,6.0,390.0,3.0,0.0
5928,67.0,24.0,90.0,1.0,0.0
5929,74.0,30.0,30.0,0.0,0.0
5930,60.0,0.0,390.0,2.0,0.0
5931,86.0,30.0,30.0,0.0,0.0
5932,74.0,6.0,30.0,0.0,0.0
5933,86.0,30.0,30.0,0.0,0.0
5934,74.0,30.0,30.0,0.0,0.0
5935,66.0,18.0,180.0,1.0,0.0
5936,86.0,30.0,30.0,0.0,0.0
5937,74.0,30.0,30.0,0.0,0.0
5938,86.0,30.0,30.0,0.0,0.0
5939,74.0,30.0,30.0,0.0,0.0
5940,86.0,12.0,30.0,0.0,0.0
5941,74.0,30.0,30.0,0.0,0.0
5942,86.0,24.0,30.0,0.0,0.0
5943,64.0,12.0,40.0,1.0,0.0
5944,74.0,18.0,30.0,0.0,0.0
5945,86.0,30.0,30.0,0.0,0.0
5946,74.0,18.0,30.0,0.0,0.0
5947,62.0,12.0,40.0,1.0,0.0
5948,86.0,30.0,30.0,0.0,0.0
5949,67.0,24.0,90.0,1.0,0.0
5950,60.0,6.0,390.0,2.0,0.0
5951,57.0,0.0,390.0,3.0,0.0
5952,74.0,30.0,30.0,0.0,0.0
5953,86.0,30.0,30.0,0.0,0.0
5954,74.0,6.0,30.0,0.0,0.0
5955,86.0,30.0,30.0,0.0,0.0
5956,74.0,30.0,30.0,0.0,0.0
5957,66.0,18.0,180.0,1.0,0.0
5958,86.0,30.0,30.0,0.0,0.0
5959,74.0,30.0,30.0,0.0,0.0
5960,86.0,30.0,30.0,0.0,0.0
5961,74.0,30.0,30.0,0.0,0.0
5962,86.0,12.0,30.0,0.0,0.0
5963,74.0,30.0,30.0,0.0,0.0
5964,86.0,24.0,30.0,0.0,0.0
5965,64.0,12.0,40.0,1.0,0.0
5966,74.0,18.0,30.0,0.0,0.0
5967,86.0,30.0,30.0,0.0,0.0
5968,74.0,18.0,30.0,0.0,0.0
5969,62.0,12.0,40.0,1.0,0.0
5970,86.0,60.0,30.0,0.0,0.0
5971,67.0,0.0,60.0,2.0,0.0
5972,59.0,120.0,60.0,3.0,0.0
5973,74.0,0.0,60.0,1.0,0.0
5974,86.0,0.0,60.0,0.0,0.0
5975,87.0,120.0,60.0,0.0,0.0
5976,75.0,0.0,60.0,1.0,0.0
5977,76.0,0.0,60.0,1.0,0.0
5978,67.0,0.0,60.0,2.0,0.0
5979,88.0,180.0,60.0,0.0,0.0
5980,60.0,0.0,60.0,3.0,0.0
5981,84.0,48.0,60.0,0.0,0.0
5982,50.0,72.0,390.0,3.0,0.0
5983,83.0,60.0,40.0,0.0,0.0
5984,86.0,108.0,40.0,0.0,0.0
5985,59.0,12.0,90.0,2.0,0.0
5986,79.0,60.0,40.0,0.0,0.0
5987,81.0,48.0,40.0,0.0,0.0
5988,60.0,12.0,90.0,2.0,0.0
5989,84.0,36.0,40.0,0.0,0.0
5990,57.0,12.0,90.0,2.0,0.0
5991,78.0,36.0,40.0,0.0,0.0
5992,59.0,18.0,90.0,2.0,0.0
5993,55.0,0.0,90.0,3.0,0.0
5994,79.0,30.0,20.0,0.0,0.0
5995,81.0,30.0,20.0,0.0,0.0
5996,83.0,12.0,20.0,0.0,0.0
5997,84.0,30.0,20.0,0.0,0.0
5998,86.0,30.0,20.0,0.0,0.0
5999,84.0,30.0,20.0,0.0,0.0
6000,83.0,30.0,20.0,0.0,0.0
6001,81.0,30.0,20.0,0.0,0.0
6002,79.0,30.0,20.0,0.0,0.0
6003,78.0,30.0,20.0,0.0,0.0
6004,76.0,30.0,20.0,0.0,0.0
6005,74.0,30.0,20.0,0.0,0.0
6006,72.0,30.0,20.0,0.0,0.0
6007,71.0,30.0,20.0,0.0,0.0
6008,69.0,30.0,20.0,0.0,0.0
6009,67.0,36.0,20.0,0.0,0.0
6010,74.0,30.0,30.0,0.0,0.0
6011,60.0,0.0,390.0,2.0,0.0
6012,67.0,24.0,90.0,1.0,0.0
6013,57.0,6.0,390.0,3.0,0.0
6014,86.0,30.0,30.0,0.0,0.0
6015,74.0,6.0,30.0,0.0,0.0
6016,86.0,30.0,30.0,0.0,0.0
6017,74.0,30.0,30.0,0.0,0.0
6018,66.0,18.0,180.0,1.0,0.0
6019,86.0,30.0,30.0,0.0,0.0
6020,74.0,30.0,30.0,0.0,0.0
6021,86.0,30.0,30.0,0.0,0.0
6022,74.0,30.0,30.0,0.0,0.0
6023,86.0,12.0,30.0,0.0,0.0
6024,74.0,30.0,30.0,0.0,0.0
6025,86.0,24.0,30.0,0.0,0.0
6026,74.0,18.0,30.0,0.0,0.0
6027,64.0,12.0,40.0,1.0,0.0
6028,86.0,30.0,30.0,0.0,0.0
6029,62.0,12.0,40.0,1.0,0.0
6030,74.0,18.0,30.0,0.0,0.0
6031,86.0,30.0,30.0,0.0,0.0
6032,57.0,0.0,390.0,3.0,0.0
6033,60.0,6.0,390.0,2.0,0.0
6034,67.0,24.0,90.0,1.0,0.0
6035,74.0,30.0,30.0,0.0,0.0
6036,86.0,30.0,30.0,0.0,0.0
6037,74.0,6.0,30.0,0.0,0.0
6038,86.0,30.0,30.0,0.0,0.0
6039,74.0,30.0,30.0,0.0,0.0
6040,66.0,18.0,180.0,1.0,0.0
6041,86.0,30.0,30.0,0.0,0.0
6042,74.0,30.0,30.0,0.0,0.0
6043,86.0,30.0,30.0,0.0,0.0
6044,74.0,30.0,30.0,0.0,0.0
6045,86.0,12.0,30.0,0.0,0.0
6046,74.0,30.0,30.0,0.0,0.0
6047,86.0,24.0,30.0,0.0,0.0
6048,74.0,18.0,30.0,0.0,0.0
6049,64.0,12.0,40.0,1.0,0.0
6050,86.0,30.0,30.0,0.0,0.0
6051,74.0,18.0,30.0,0.0,0.0
6052,62.0,12.0,40.0,1.0,0.0
6053,86.0,48.0,15.0,0.0,0.0
6054,67.0,0.0,40.0,2.0,0.0
6055,74.0,120.0,40.0,1.0,0.0
6056,59.0,0.0,40.0,3.0,0.0
6057,75.0,168.0,40.0,1.0,0.0
6058,87.0,0.0,40.0,0.0,0.0
6059,88.0,0.0,90.0,0.0,0.0
6060,67.0,132.0,90.0,2.0,0.0
6061,60.0,0.0,90.0,3.0,0.0
6062,76.0,0.0,90.0,1.0,0.0
6063,84.0,60.0,40.0,0.0,0.0
6064,83.0,60.0,40.0,0.0,0.0
6065,50.0,72.0,390.0,3.0,0.0
6066,86.0,108.0,40.0,0.0,0.0
6067,59.0,12.0,90.0,2.0,0.0
6068,79.0,60.0,40.0,0.0,0.0
6069,81.0,48.0,40.0,0.0,0.0
6070,60.0,12.0,90.0,2.0,0.0
6071,84.0,36.0,40.0,0.0,0.0
6072,57.0,12.0,90.0,2.0,0.0
6073,78.0,108.0,40.0,0.0,0.0
6074,69.0,0.0,180.0,2.0,0.0
6075,55.0,96.0,90.0,3.0,0.0
6076,72.0,24.0,180.0,1.0,0.0
6077,74.0,0.0,180.0,1.0,0.0
6078,78.0,0.0,180.0,0.0,0.0
6079,50.0,120.0,90.0,3.0,0.0
6080,71.0,0.0,90.0,1.0,0.0
6081,74.0,0.0,90.0,1.0,0.0
6082,79.0,0.0,90.0,0.0,0.0
6083,67.0,204.0,90.0,2.0,0.0
6084,43.0,0.0,90.0,3.0,0.0
6085,74.0,18.0,180.0,1.0,0.0
6086,71.0,0.0,180.0,2.0,0.0
6087,55.0,30.0,30.0,3.0,0.0
6088,43.0,30.0,30.0,3.0,0.0
6089,55.0,30.0,30.0,3.0,0.0
6090,43.0,30.0,30.0,3.0,0.0
6091,55.0,12.0,30.0,3.0,0.0
6092,43.0,30.0,30.0,3.0,0.0
6093,55.0,30.0,30.0,3.0,0.0
6094,43.0,30.0,30.0,3.0,0.0
6095,67.0,24.0,90.0,2.0,0.0
6096,71.0,0.0,90.0,1.0,0.0
6097,55.0,30.0,30.0,3.0,0.0
6098,43.0,6.0,30.0,3.0,0.0
6099,55.0,30.0,30.0,3.0,0.0
6100,43.0,30.0,30.0,3.0,0.0
6101,71.0,0.0,90.0,1.0,0.0
6102,67.0,24.0,90.0,2.0,0.0
6103,55.0,30.0,30.0,3.0,0.0
6104,43.0,6.0,30.0,3.0,0.0
6105,55.0,30.0,30.0,3.0,0.0
6106,67.0,0.0,300.0,2.0,0.0
6107,71.0,12.0,300.0,1.0,0.0
6108,43.0,30.0,30.0,3.0,0.0
6109,55.0,30.0,30.0,3.0,0.0
6110,43.0,30.0,30.0,3.0,0.0
6111,55.0,30.0,30.0,3.0,0.0
6112,43.0,30.0,30.0,3.0,0.0
6113,55.0,30.0,30.0,3.0,0.0
6114,43.0,30.0,30.0,3.0,0.0
6115,55.0,30.0,30.0,3.0,0.0
6116,43.0,18.0,30.0,3.0,0.0
6117,55.0,30.0,30.0,3.0,0.0
6118,43.0,30.0,30.0,3.0,0.0
6119,55.0,30.0,30.0,3.0,0.0
6120,43.0,30.0,30.0,3.0,0.0
6121,59.0,24.0,90.0,2.0,0.0
6122,67.0,24.0,210.0,1.0,0.0
6123,55.0,30.0,30.0,3.0,0.0
6124,43.0,6.0,30.0,3.0,0.0
6125,55.0,30.0,30.0,3.0,0.0
6126,43.0,30.0,30.0,3.0,0.0
6127,69.0,12.0,300.0,0.0,0.0
6128,55.0,30.0,30.0,3.0,0.0
6129,43.0,6.0,30.0,3.0,0.0
6130,55.0,30.0,30.0,3.0,0.0
6131,43.0,30.0,30.0,3.0,0.0
6132,66.0,24.0,90.0,1.0,0.0
6133,55.0,30.0,30.0,3.0,0.0
6134,43.0,6.0,30.0,3.0,0.0
6135,55.0,30.0,30.0,3.0,0.0
6136,43.0,18.0,30.0,3.0,0.0
6137,65.0,18.0,180.0,1.0,0.0
6138,55.0,30.0,30.0,3.0,0.0
6139,43.0,30.0,30.0,3.0,0.0
6140,55.0,30.0,30.0,3.0,0.0
6141,71.0,24.0,90.0,0.0,0.0
6142,43.0,30.0,30.0,3.0,0.0
6143,55.0,12.0,30.0,3.0,0.0
6144,43.0,6.0,30.0,3.0,0.0
6145,55.0,30.0,30.0,3.0,0.0
6146,43.0,30.0,30.0,3.0,0.0
6147,67.0,30.0,120.0,1.0,0.0
6148,74.0,0.0,120.0,0.0,0.0
6149,64.0,0.0,120.0,2.0,0.0
6150,55.0,30.0,30.0,3.0,0.0
6151,43.0,30.0,30.0,3.0,0.0
6152,55.0,0.0,30.0,3.0,0.0
6153,66.0,30.0,120.0,2.0,0.0
6154,43.0,30.0,30.0,3.0,0.0
6155,72.0,0.0,120.0,0.0,0.0
6156,69.0,0.0,120.0,1.0,0.0
6157,55.0,30.0,30.0,3.0,0.0
6158,43.0,30.0,30.0,3.0,0.0
6159,55.0,0.0,30.0,3.0,0.0
6160,71.0,30.0,120.0,0.0,0.0
6161,43.0,30.0,30.0,3.0,0.0
6162,67.0,0.0,120.0,1.0,0.0
6163,55.0,30.0,30.0,3.0,0.0
6164,43.0,30.0,30.0,3.0,0.0
6165,55.0,0.0,30.0,3.0,0.0
6166,43.0,30.0,30.0,3.0,0.0
6167,55.0,30.0,30.0,3.0,0.0
6168,43.0,30.0,30.0,3.0,0.0
6169,55.0,30.0,30.0,3.0,0.0
6170,79.0,18.0,180.0,0.0,0.0
6171,43.0,30.0,30.0,3.0,0.0
6172,71.0,0.0,180.0,1.0,0.0
6173,55.0,30.0,30.0,3.0,0.0
6174,43.0,30.0,30.0,3.0,0.0
6175,55.0,30.0,30.0,3.0,0.0
6176,43.0,30.0,30.0,3.0,0.0
6177,55.0,12.0,30.0,3.0,0.0
6178,43.0,30.0,30.0,3.0,0.0
6179,55.0,30.0,30.0,3.0,0.0
6180,43.0,30.0,30.0,3.0,0.0
6181,78.0,24.0,90.0,0.0,0.0
6182,72.0,0.0,90.0,1.0,0.0
6183,55.0,30.0,30.0,3.0,0.0
6184,43.0,6.0,30.0,3.0,0.0
6185,55.0,30.0,30.0,3.0,0.0
6186,72.0,0.0,40.0,1.0,0.0
6187,43.0,18.0,30.0,3.0,0.0
6188,78.0,12.0,40.0,0.0,0.0
6189,55.0,30.0,30.0,3.0,0.0
6190,43.0,18.0,30.0,3.0,0.0
6191,81.0,12.0,40.0,0.0,0.0
6192,55.0,30.0,30.0,3.0,0.0
6193,43.0,30.0,30.0,3.0,0.0
6194,79.0,0.0,180.0,0.0,0.0
6195,71.0,18.0,180.0,1.0,0.0
6196,55.0,30.0,30.0,3.0,0.0
6197,43.0,30.0,30.0,3.0,0.0
6198,55.0,30.0,30.0,3.0,0.0
6199,43.0,30.0,30.0,3.0,0.0
6200,55.0,12.0,30.0,3.0,0.0
6201,43.0,30.0,30.0,3.0,0.0
6202,55.0,30.0,30.0,3.0,0.0
6203,72.0,24.0,90.0,1.0,0.0
6204,43.0,30.0,30.0,3.0,0.0
6205,78.0,0.0,90.0,0.0,0.0
6206,55.0,30.0,30.0,3.0,0.0
6207,43.0,6.0,30.0,3.0,0.0
6208,55.0,30.0,30.0,3.0,0.0
6209,78.0,0.0,40.0,0.0,0.0
6210,72.0,12.0,40.0,1.0,0.0
6211,43.0,18.0,30.0,3.0,0.0
6212,55.0,30.0,30.0,3.0,0.0
6213,43.0,18.0,30.0,3.0,0.0
6214,81.0,12.0,40.0,0.0,0.0
6215,55.0,30.0,30.0,3.0,0.0
6216,71.0,0.0,90.0,1.0,0.0
6217,79.0,24.0,90.0,0.0,0.0
6218,43.0,30.0,30.0,3.0,0.0
6219,55.0,30.0,30.0,3.0,0.0
6220,43.0,6.0,30.0,3.0,0.0
6221,55.0,30.0,30.0,3.0,0.0
6222,43.0,30.0,30.0,3.0,0.0
6223,71.0,0.0,120.0,1.0,0.0
6224,74.0,30.0,120.0,0.0,0.0
6225,55.0,30.0,30.0,3.0,0.0
6226,43.0,30.0,30.0,3.0,0.0
6227,55.0,0.0,30.0,3.0,0.0
6228,42.0,30.0,30.0,3.0,0.0
6229,72.0,30.0,120.0,0.0,0.0
6230,69.0,0.0,120.0,1.0,0.0
6231,54.0,30.0,30.0,3.0,0.0
6232,42.0,30.0,30.0,3.0,0.0
6233,54.0,0.0,30.0,3.0,0.0
6234,43.0,30.0,30.0,3.0,0.0
6235,55.0,30.0,30.0,3.0,0.0
6236,43.0,30.0,30.0,3.0,0.0
6237,55.0,0.0,30.0,3.0,0.0
6238,67.0,0.0,15.0,1.0,0.0
6239,38.0,30.0,30.0,3.0,0.0
6240,71.0,30.0,15.0,0.0,0.0
6241,50.0,30.0,30.0,3.0,0.0
6242,38.0,30.0,30.0,3.0,0.0
6243,50.0,30.0,30.0,3.0,0.0
6244,38.0,30.0,30.0,3.0,0.0
6245,50.0,12.0,30.0,3.0,0.0
6246,38.0,30.0,30.0,3.0,0.0
6247,50.0,30.0,30.0,3.0,0.0
6248,66.0,18.0,180.0,1.0,0.0
6249,38.0,30.0,30.0,3.0,0.0
6250,69.0,0.0,180.0,0.0,0.0
6251,50.0,30.0,30.0,3.0,0.0
6252,38.0,30.0,30.0,3.0,0.0
6253,50.0,30.0,30.0,3.0,0.0
6254,38.0,30.0,30.0,3.0,0.0
6255,50.0,12.0,30.0,3.0,0.0
6256,38.0,30.0,30.0,3.0,0.0
6257,50.0,30.0,30.0,3.0,0.0
6258,66.0,0.0,180.0,1.0,0.0
6259,38.0,30.0,30.0,3.0,0.0
6260,69.0,18.0,180.0,0.0,0.0
6261,50.0,30.0,30.0,3.0,0.0
6262,38.0,30.0,30.0,3.0,0.0
6263,50.0,30.0,30.0,3.0,0.0
6264,38.0,30.0,30.0,3.0,0.0
6265,50.0,12.0,30.0,3.0,0.0
6266,38.0,30.0,30.0,3.0,0.0
6267,50.0,30.0,30.0,3.0,0.0
6268,69.0,0.0,90.0,0.0,0.0
6269,38.0,30.0,30.0,3.0,0.0
6270,66.0,24.0,90.0,1.0,0.0
6271,50.0,30.0,30.0,3.0,0.0
6272,38.0,6.0,30.0,3.0,0.0
6273,50.0,30.0,30.0,3.0,0.0
6274,38.0,30.0,30.0,3.0,0.0
6275,69.0,24.0,90.0,1.0,0.0
6276,72.0,0.0,90.0,0.0,0.0
6277,50.0,30.0,30.0,3.0,0.0
6278,38.0,6.0,30.0,3.0,0.0
6279,50.0,30.0,30.0,3.0,0.0
6280,37.0,30.0,30.0,3.0,0.0
6281,67.0,0.0,300.0,1.0,0.0
6282,72.0,24.0,90.0,0.0,0.0
6283,64.0,12.0,300.0,2.0,0.0
6284,49.0,30.0,30.0,3.0,0.0
6285,37.0,6.0,30.0,3.0,0.0
6286,49.0,30.0,30.0,3.0,0.0
6287,37.0,30.0,30.0,3.0,0.0
6288,70.0,18.0,180.0,0.0,0.0
6289,49.0,30.0,30.0,3.0,0.0
6290,37.0,30.0,30.0,3.0,0.0
6291,49.0,30.0,30.0,3.0,0.0
6292,37.0,18.0,30.0,3.0,0.0
6293,49.0,12.0,30.0,3.0,0.0
6294,37.0,30.0,30.0,3.0,0.0
6295,49.0,30.0,30.0,3.0,0.0
6296,37.0,18.0,30.0,3.0,0.0
6297,69.0,12.0,40.0,0.0,0.0
6298,49.0,30.0,30.0,3.0,0.0
6299,67.0,12.0,40.0,0.0,0.0
6300,37.0,18.0,30.0,3.0,0.0
6301,49.0,30.0,30.0,3.0,0.0
6302,66.0,0.0,90.0,1.0,0.0
6303,38.0,30.0,30.0,3.0,0.0
6304,74.0,24.0,90.0,0.0,0.0
6305,50.0,30.0,30.0,3.0,0.0
6306,38.0,6.0,30.0,3.0,0.0
6307,50.0,30.0,30.0,3.0,0.0
6308,69.0,24.0,90.0,0.0,0.0
6309,38.0,30.0,30.0,3.0,0.0
6310,50.0,30.0,30.0,3.0,0.0
6311,38.0,6.0,30.0,3.0,0.0
6312,50.0,30.0,30.0,3.0,0.0
6313,39.0,30.0,30.0,3.0,0.0
6314,69.0,24.0,90.0,0.0,0.0
6315,66.0,0.0,90.0,1.0,0.0
6316,51.0,30.0,30.0,3.0,0.0
6317,39.0,6.0,30.0,3.0,0.0
6318,51.0,30.0,30.0,3.0,0.0
6319,39.0,30.0,30.0,3.0,0.0
6320,72.0,24.0,90.0,0.0,0.0
6321,69.0,0.0,90.0,1.0,0.0
6322,51.0,30.0,30.0,3.0,0.0
6323,39.0,6.0,30.0,3.0,0.0
6324,51.0,30.0,30.0,3.0,0.0
6325,72.0,24.0,90.0,0.0,0.0
6326,66.0,0.0,90.0,2.0,0.0
6327,69.0,0.0,90.0,1.0,0.0
6328,40.0,30.0,30.0,3.0,0.0
6329,52.0,30.0,30.0,3.0,0.0
6330,40.0,6.0,30.0,3.0,0.0
6331,52.0,30.0,30.0,3.0,0.0
6332,40.0,30.0,30.0,3.0,0.0
6333,67.0,0.0,180.0,1.0,0.0
6334,71.0,18.0,180.0,0.0,0.0
6335,52.0,30.0,30.0,3.0,0.0
6336,40.0,30.0,30.0,3.0,0.0
6337,52.0,30.0,30.0,3.0,0.0
6338,40.0,30.0,30.0,3.0,0.0
6339,52.0,12.0,30.0,3.0,0.0
6340,40.0,30.0,30.0,3.0,0.0
6341,52.0,30.0,30.0,3.0,0.0
6342,79.0,24.0,90.0,0.0,0.0
6343,73.0,0.0,90.0,1.0,0.0
6344,70.0,0.0,90.0,2.0,0.0
6345,40.0,30.0,30.0,3.0,0.0
6346,52.0,30.0,30.0,3.0,0.0
6347,40.0,6.0,30.0,3.0,0.0
6348,52.0,30.0,30.0,3.0,0.0
6349,38.0,30.0,30.0,3.0,0.0
6350,72.0,6.0,390.0,1.0,0.0
6351,69.0,0.0,390.0,2.0,0.0
6352,79.0,24.0,90.0,0.0,0.0
6353,50.0,30.0,30.0,3.0,0.0
6354,38.0,6.0,30.0,3.0,0.0
6355,50.0,30.0,30.0,3.0,0.0
6356,38.0,30.0,30.0,3.0,0.0
6357,78.0,18.0,180.0,0.0,0.0
6358,50.0,30.0,30.0,3.0,0.0
6359,38.0,30.0,30.0,3.0,0.0
6360,50.0,30.0,30.0,3.0,0.0
6361,38.0,30.0,30.0,3.0,0.0
6362,50.0,12.0,30.0,3.0,0.0
6363,38.0,30.0,30.0,3.0,0.0
6364,50.0,24.0,30.0,3.0,0.0
6365,76.0,12.0,40.0,0.0,0.0
6366,38.0,18.0,30.0,3.0,0.0
6367,50.0,30.0,30.0,3.0,0.0
6368,38.0,18.0,30.0,3.0,0.0
6369,74.0,12.0,40.0,0.0,0.0
6370,50.0,30.0,30.0,3.0,0.0
6371,36.0,30.0,30.0,3.0,0.0
6372,74.0,0.0,390.0,1.0,0.0
6373,69.0,6.0,390.0,2.0,0.0
6374,79.0,24.0,90.0,0.0,0.0
6375,48.0,30.0,30.0,3.0,0.0
6376,36.0,6.0,30.0,3.0,0.0
6377,48.0,30.0,30.0,3.0,0.0
6378,36.0,30.0,30.0,3.0,0.0
6379,78.0,18.0,180.0,0.0,0.0
6380,48.0,30.0,30.0,3.0,0.0
6381,36.0,30.0,30.0,3.0,0.0
6382,48.0,30.0,30.0,3.0,0.0
6383,36.0,30.0,30.0,3.0,0.0
6384,48.0,12.0,30.0,3.0,0.0
6385,36.0,30.0,30.0,3.0,0.0
6386,48.0,24.0,30.0,3.0,0.0
6387,36.0,18.0,30.0,3.0,0.0
6388,76.0,12.0,40.0,0.0,0.0
6389,48.0,30.0,30.0,3.0,0.0
6390,36.0,18.0,30.0,3.0,0.0
6391,74.0,12.0,40.0,0.0,0.0
6392,48.0,57.0,30.0,3.0,0.0
6393,79.0,21.0,90.0,0.0,0.0
6394,35.0,39.0,60.0,3.0,0.0
6395,67.0,0.0,300.0,1.0,0.0
6396,38.0,60.0,60.0,3.0,0.0
6397,74.0,21.0,90.0,0.0,0.0
6398,43.0,39.0,60.0,3.0,0.0
6399,47.0,51.0,60.0,3.0,0.0
6400,36.0,51.0,60.0,3.0,0.0
6401,78.0,9.0,40.0,0.0,0.0
6402,40.0,51.0,60.0,3.0,0.0
6403,76.0,9.0,40.0,0.0,0.0
6404,45.0,39.0,60.0,3.0,0.0
6405,74.0,9.0,40.0,0.0,0.0
6406,69.0,12.0,90.0,1.0,0.0
6407,48.0,51.0,60.0,3.0,0.0
6408,72.0,9.0,40.0,0.0,0.0
6409,71.0,0.0,180.0,0.0,0.0
6410,38.0,60.0,40.0,3.0,0.0
6411,67.0,36.0,180.0,1.0,0.0
6412,43.0,60.0,40.0,3.0,0.0
6413,47.0,24.0,40.0,3.0,0.0
6414,50.0,60.0,40.0,3.0,0.0
6415,69.0,12.0,90.0,0.0,0.0
6416,66.0,0.0,90.0,1.0,0.0
6417,38.0,48.0,40.0,3.0,0.0
6418,42.0,60.0,40.0,3.0,0.0
6419,45.0,48.0,40.0,3.0,0.0
6420,74.0,12.0,90.0,0.0,0.0
6421,50.0,60.0,40.0,3.0,0.0
6422,55.0,60.0,40.0,3.0,0.0
6423,72.0,0.0,180.0,0.0,0.0
6424,66.0,36.0,180.0,2.0,0.0
6425,69.0,0.0,180.0,1.0,0.0
6426,54.0,60.0,40.0,3.0,0.0
6427,55.0,24.0,40.0,3.0,0.0
6428,54.0,60.0,40.0,3.0,0.0
6429,71.0,0.0,90.0,0.0,0.0
6430,67.0,12.0,90.0,1.0,0.0
6431,55.0,48.0,40.0,3.0,0.0
6432,50.0,60.0,40.0,3.0,0.0
6433,47.0,48.0,40.0,3.0,0.0
6434,74.0,12.0,90.0,0.0,0.0
6435,43.0,42.0,40.0,3.0,0.0
6436,38.0,30.0,30.0,3.0,0.0
6437,69.0,0.0,390.0,2.0,0.0
6438,79.0,24.0,90.0,0.0,0.0
6439,72.0,6.0,390.0,1.0,0.0
6440,50.0,30.0,30.0,3.0,0.0
6441,38.0,6.0,30.0,3.0,0.0
6442,50.0,30.0,30.0,3.0,0.0
6443,38.0,30.0,30.0,3.0,0.0
6444,78.0,18.0,180.0,0.0,0.0
6445,50.0,30.0,30.0,3.0,0.0
6446,38.0,30.0,30.0,3.0,0.0
6447,50.0,30.0,30.0,3.0,0.0
6448,39.0,30.0,30.0,3.0,0.0
6449,51.0,12.0,30.0,3.0,0.0
6450,39.0,30.0,30.0,3.0,0.0
6451,51.0,24.0,30.0,3.0,0.0
6452,81.0,24.0,90.0,0.0,0.0
6453,39.0,30.0,30.0,3.0,0.0
6454,51.0,30.0,30.0,3.0,0.0
6455,39.0,6.0,30.0,3.0,0.0
6456,51.0,30.0,30.0,3.0,0.0
6457,69.0,0.0,300.0,2.0,0.0
6458,72.0,12.0,300.0,1.0,0.0
6459,79.0,24.0,90.0,0.0,0.0
6460,38.0,30.0,30.0,3.0,0.0
6461,50.0,30.0,30.0,3.0,0.0
6462,38.0,6.0,30.0,3.0,0.0
6463,50.0,30.0,30.0,3.0,0.0
6464,38.0,30.0,30.0,3.0,0.0
6465,78.0,18.0,180.0,0.0,0.0
6466,50.0,30.0,30.0,3.0,0.0
6467,38.0,30.0,30.0,3.0,0.0
6468,50.0,30.0,30.0,3.0,0.0
6469,36.0,18.0,30.0,3.0,0.0
6470,48.0,12.0,30.0,3.0,0.0
6471,36.0,30.0,30.0,3.0,0.0
6472,48.0,30.0,30.0,3.0,0.0
6473,36.0,18.0,30.0,3.0,0.0
6474,84.0,12.0,40.0,0.0,0.0
6475,48.0,30.0,30.0,3.0,0.0
6476,78.0,12.0,40.0,0.0,0.0
6477,36.0,18.0,30.0,3.0,0.0
6478,48.0,48.0,30.0,3.0,0.0
6479,35.0,48.0,40.0,3.0,0.0
6480,79.0,12.0,90.0,0.0,0.0
6481,67.0,0.0,300.0,1.0,0.0
6482,38.0,60.0,40.0,3.0,0.0
6483,43.0,48.0,40.0,3.0,0.0
6484,74.0,12.0,90.0,0.0,0.0
6485,47.0,60.0,40.0,3.0,0.0
6486,36.0,60.0,40.0,3.0,0.0
6487,78.0,0.0,40.0,0.0,0.0
6488,76.0,60.0,40.0,0.0,0.0
6489,40.0,0.0,40.0,3.0,0.0
6490,69.0,12.0,90.0,1.0,0.0
6491,74.0,0.0,40.0,0.0,0.0
6492,45.0,48.0,40.0,3.0,0.0
6493,72.0,0.0,40.0,0.0,0.0
6494,48.0,60.0,40.0,3.0,0.0
6495,67.0,0.0,180.0,1.0,0.0
6496,38.0,60.0,40.0,3.0,0.0
6497,71.0,36.0,180.0,0.0,0.0
6498,43.0,60.0,40.0,3.0,0.0
6499,47.0,24.0,40.0,3.0,0.0
6500,50.0,60.0,40.0,3.0,0.0
6501,38.0,48.0,40.0,3.0,0.0
6502,66.0,12.0,90.0,1.0,0.0
6503,69.0,0.0,90.0,0.0,0.0
6504,42.0,60.0,40.0,3.0,0.0
6505,45.0,48.0,40.0,3.0,0.0
6506,74.0,12.0,90.0,0.0,0.0
6507,50.0,60.0,40.0,3.0,0.0
6508,62.0,0.0,180.0,1.0,0.0
6509,67.0,0.0,180.0,0.0,0.0
6510,43.0,60.0,40.0,3.0,0.0
6511,59.0,36.0,180.0,2.0,0.0
6512,47.0,60.0,40.0,3.0,0.0
6513,50.0,24.0,40.0,3.0,0.0
6514,55.0,108.0,40.0,3.0,0.0
6515,43.0,120.0,90.0,3.0,0.0
6516,74.0,384.0,90.0,0.0,0.0
6517,74.0,60.0,360.0,0.0,0.0
6518,59.0,0.0,480.0,1.0,0.0
6519,73.0,60.0,60.0,0.0,0.0
6520,74.0,120.0,60.0,0.0,0.0
6521,62.0,0.0,120.0,1.0,0.0
6522,55.0,0.0,15.0,3.0,0.0
6523,62.0,0.0,120.0,1.0,0.0
6524,71.0,120.0,15.0,0.0,0.0
6525,71.0,0.0,15.0,0.0,0.0
6526,62.0,120.0,15.0,1.0,0.0
6527,71.0,0.0,120.0,0.0,0.0
6528,71.0,30.0,180.0,0.0,0.0
6529,62.0,0.0,360.0,1.0,0.0
6530,72.0,30.0,30.0,0.0,0.0
6531,71.0,60.0,30.0,0.0,0.0
6532,74.0,60.0,60.0,0.0,0.0
6533,72.0,60.0,60.0,0.0,0.0
6534,60.0,0.0,120.0,1.0,0.0
6535,71.0,60.0,60.0,0.0,0.0
6536,69.0,120.0,60.0,0.0,0.0
6537,59.0,0.0,240.0,1.0,0.0
6538,55.0,0.0,15.0,3.0,0.0
6539,67.0,120.0,120.0,0.0,0.0
6540,67.0,120.0,240.0,0.0,0.0
6541,62.0,60.0,240.0,1.0,0.0
6542,59.0,0.0,240.0,2.0,0.0
6543,67.0,0.0,120.0,0.0,0.0
6544,68.0,24.0,60.0,0.0,0.0
6545,60.0,0.0,240.0,2.0,0.0
6546,69.0,60.0,20.0,0.0,0.0
6547,69.0,60.0,20.0,0.0,0.0
6548,69.0,36.0,20.0,0.0,0.0
6549,64.0,60.0,15.0,1.0,0.0
6550,68.0,24.0,60.0,0.0,0.0
6551,60.0,60.0,240.0,2.0,0.0
6552,69.0,60.0,20.0,0.0,0.0
6553,69.0,60.0,20.0,0.0,0.0
6554,69.0,36.0,20.0,0.0,0.0
6555,70.0,24.0,60.0,0.0,0.0
6556,71.0,60.0,20.0,0.0,0.0
6557,71.0,60.0,20.0,0.0,0.0
6558,71.0,36.0,20.0,0.0,0.0
6559,66.0,0.0,15.0,1.0,0.0
6560,62.0,60.0,15.0,2.0,0.0
6561,70.0,24.0,60.0,0.0,0.0
6562,71.0,60.0,20.0,0.0,0.0
6563,71.0,60.0,20.0,0.0,0.0
6564,71.0,36.0,20.0,0.0,0.0
6565,74.0,60.0,120.0,0.0,0.0
6566,67.0,0.0,240.0,1.0,0.0
6567,64.0,60.0,240.0,2.0,0.0
6568,73.0,60.0,60.0,0.0,0.0
6569,72.0,30.0,120.0,0.0,0.0
6570,66.0,30.0,240.0,2.0,0.0
6571,69.0,0.0,240.0,1.0,0.0
6572,74.0,30.0,30.0,0.0,0.0
6573,76.0,60.0,30.0,0.0,0.0
6574,74.0,60.0,60.0,0.0,0.0
6575,72.0,0.0,60.0,0.0,0.0
6576,71.0,30.0,30.0,0.0,0.0
6577,67.0,0.0,240.0,1.0,0.0
6578,74.0,30.0,30.0,0.0,0.0
6579,72.0,30.0,30.0,0.0,0.0
6580,71.0,30.0,30.0,0.0,0.0
6581,72.0,30.0,30.0,0.0,0.0
6582,74.0,30.0,30.0,0.0,0.0
6583,76.0,30.0,30.0,0.0,0.0
6584,78.0,30.0,30.0,0.0,0.0
6585,79.0,30.0,30.0,0.0,0.0
6586,81.0,30.0,30.0,0.0,0.0
6587,83.0,30.0,30.0,0.0,0.0
6588,84.0,30.0,30.0,0.0,0.0
6589,86.0,30.0,30.0,0.0,0.0
6590,83.0,30.0,30.0,0.0,0.0
6591,84.0,30.0,30.0,0.0,0.0
6592,81.0,60.0,30.0,0.0,0.0
6593,55.0,0.0,480.0,3.0,0.0
6594,81.0,30.0,60.0,0.0,0.0
6595,79.0,150.0,30.0,0.0,0.0
6596,59.0,0.0,120.0,2.0,0.0
6597,79.0,30.0,180.0,0.0,0.0
6598,62.0,60.0,120.0,1.0,0.0
6599,59.0,0.0,120.0,2.0,0.0
6600,62.0,0.0,120.0,1.0,0.0
6601,81.0,30.0,30.0,0.0,0.0
6602,83.0,30.0,30.0,0.0,0.0
6603,59.0,0.0,120.0,2.0,0.0
6604,81.0,90.0,30.0,0.0,0.0
6605,62.0,90.0,120.0,1.0,0.0
6606,79.0,0.0,60.0,0.0,0.0
6607,79.0,30.0,90.0,0.0,0.0
6608,57.0,0.0,240.0,3.0,0.0
6609,78.0,120.0,30.0,0.0,0.0
6610,84.0,120.0,120.0,0.0,0.0
6611,60.0,0.0,240.0,2.0,0.0
6612,62.0,60.0,240.0,1.0,0.0
6613,50.0,0.0,240.0,3.0,0.0
6614,84.0,0.0,60.0,0.0,0.0
6615,60.0,0.0,120.0,2.0,0.0
6616,62.0,60.0,120.0,1.0,0.0
6617,81.0,60.0,60.0,0.0,0.0
6618,78.0,0.0,60.0,0.0,0.0
6619,81.0,30.0,60.0,0.0,0.0
6620,55.0,30.0,480.0,3.0,0.0
6621,79.0,150.0,30.0,0.0,0.0
6622,62.0,60.0,120.0,1.0,0.0
6623,79.0,30.0,180.0,0.0,0.0
6624,59.0,0.0,120.0,2.0,0.0
6625,62.0,0.0,120.0,1.0,0.0
6626,81.0,30.0,30.0,0.0,0.0
6627,83.0,0.0,30.0,0.0,0.0
6628,62.0,0.0,120.0,1.0,0.0
6629,81.0,90.0,30.0,0.0,0.0
6630,59.0,30.0,15.0,2.0,0.0
6631,79.0,0.0,60.0,0.0,0.0
6632,57.0,0.0,240.0,3.0,0.0
6633,79.0,30.0,30.0,0.0,0.0
6634,78.0,30.0,30.0,0.0,0.0
6635,81.0,30.0,30.0,0.0,0.0
6636,79.0,30.0,30.0,0.0,0.0
6637,83.0,30.0,30.0,0.0,0.0
6638,81.0,30.0,30.0,0.0,0.0
6639,84.0,30.0,30.0,0.0,0.0
6640,83.0,30.0,30.0,0.0,0.0
6641,50.0,30.0,240.0,3.0,0.0
6642,86.0,30.0,30.0,0.0,0.0
6643,84.0,30.0,30.0,0.0,0.0
6644,88.0,30.0,30.0,0.0,0.0
6645,84.0,30.0,30.0,0.0,0.0
6646,60.0,0.0,15.0,2.0,0.0
6647,62.0,0.0,15.0,1.0,0.0
6648,83.0,30.0,30.0,0.0,0.0
6649,81.0,30.0,30.0,0.0,0.0
6650,79.0,30.0,30.0,0.0,0.0
6651,78.0,0.0,30.0,0.0,0.0
6652,79.0,10.0,30.0,0.0,0.0
6653,59.0,0.0,240.0,2.0,0.0
6654,62.0,0.0,240.0,1.0,0.0
6655,81.0,10.0,15.0,0.0,0.0
6656,79.0,10.0,15.0,0.0,0.0
6657,78.0,30.0,15.0,0.0,0.0
6658,79.0,30.0,30.0,0.0,0.0
6659,81.0,30.0,30.0,0.0,0.0
6660,83.0,90.0,30.0,0.0,0.0
6661,81.0,60.0,60.0,0.0,0.0
6662,79.0,60.0,60.0,0.0,0.0
6663,78.0,60.0,60.0,0.0,0.0
6664,76.0,60.0,60.0,0.0,0.0
6665,62.0,0.0,60.0,1.0,0.0
6666,74.0,60.0,15.0,0.0,0.0
6667,54.0,0.0,240.0,2.0,0.0
6668,62.0,60.0,60.0,1.0,0.0
6669,73.0,0.0,60.0,0.0,0.0
6670,61.0,30.0,60.0,1.0,0.0
6671,81.0,90.0,30.0,0.0,0.0
6672,60.0,0.0,60.0,1.0,0.0
6673,55.0,0.0,240.0,2.0,0.0
6674,60.0,60.0,60.0,1.0,0.0
6675,72.0,60.0,15.0,0.0,0.0
6676,71.0,0.0,60.0,0.0,0.0
6677,59.0,30.0,60.0,1.0,0.0
6678,79.0,90.0,30.0,0.0,0.0
6679,71.0,30.0,60.0,0.0,0.0
6680,74.0,90.0,30.0,0.0,0.0
6681,74.0,60.0,60.0,0.0,0.0
6682,59.0,0.0,120.0,1.0,0.0
6683,73.0,60.0,60.0,0.0,0.0
6684,50.0,0.0,120.0,3.0,0.0
6685,74.0,0.0,60.0,0.0,0.0
6686,76.0,60.0,60.0,0.0,0.0
6687,50.0,0.0,120.0,3.0,0.0
6688,55.0,60.0,15.0,2.0,0.0
6689,74.0,0.0,60.0,0.0,0.0
6690,59.0,60.0,15.0,1.0,0.0
6691,72.0,60.0,60.0,0.0,0.0
6692,55.0,0.0,120.0,2.0,0.0
6693,71.0,0.0,60.0,0.0,0.0
6694,54.0,120.0,120.0,2.0,0.0
6695,50.0,0.0,15.0,3.0,0.0
6696,57.0,0.0,120.0,1.0,0.0
6697,69.0,0.0,240.0,0.0,0.0
6698,50.0,0.0,120.0,3.0,0.0
6699,62.0,120.0,120.0,2.0,0.0
6700,57.0,120.0,120.0,2.0,0.0
6701,45.0,0.0,120.0,3.0,0.0
6702,42.0,60.0,120.0,3.0,0.0
6703,54.0,0.0,120.0,2.0,0.0
6704,38.0,60.0,60.0,3.0,0.0
6705,74.0,48.0,180.0,0.0,0.0
6706,69.0,60.0,240.0,1.0,0.0
6707,66.0,0.0,240.0,1.0,0.0
6708,50.0,60.0,15.0,3.0,0.0
6709,50.0,12.0,15.0,3.0,0.0
6710,62.0,0.0,15.0,2.0,0.0
6711,42.0,60.0,60.0,3.0,0.0
6712,69.0,48.0,180.0,0.0,0.0
6713,66.0,60.0,240.0,1.0,0.0
6714,50.0,60.0,15.0,3.0,0.0
6715,50.0,0.0,60.0,3.0,0.0
6716,45.0,60.0,60.0,3.0,0.0
6717,69.0,48.0,180.0,0.0,0.0
6718,62.0,0.0,240.0,2.0,0.0
6719,50.0,60.0,60.0,3.0,0.0
6720,50.0,12.0,60.0,3.0,0.0
6721,50.0,0.0,60.0,3.0,0.0
6722,72.0,48.0,180.0,0.0,0.0
6723,38.0,60.0,60.0,3.0,0.0
6724,66.0,60.0,15.0,1.0,0.0
6725,69.0,0.0,240.0,1.0,0.0
6726,50.0,60.0,60.0,3.0,0.0
6727,50.0,12.0,60.0,3.0,0.0
6728,50.0,0.0,60.0,3.0,0.0
6729,43.0,60.0,40.0,3.0,0.0
6730,66.0,0.0,15.0,1.0,0.0
6731,62.0,48.0,15.0,2.0,0.0
6732,69.0,0.0,960.0,1.0,0.0
6733,72.0,18.0,150.0,0.0,0.0
6734,50.0,42.0,40.0,3.0,0.0
6735,50.0,12.0,40.0,3.0,0.0
6736,71.0,20.0,30.0,0.0,0.0
6737,50.0,12.0,40.0,3.0,0.0
6738,69.0,20.0,20.0,0.0,0.0
6739,67.0,8.0,20.0,0.0,0.0
6740,66.0,40.0,20.0,0.0,0.0
6741,67.0,8.0,40.0,0.0,0.0
6742,47.0,32.0,40.0,3.0,0.0
6743,69.0,28.0,40.0,0.0,0.0
6744,50.0,12.0,40.0,3.0,0.0
6745,71.0,30.0,40.0,0.0,0.0
6746,72.0,18.0,30.0,0.0,0.0
6747,50.0,12.0,40.0,3.0,0.0
6748,74.0,30.0,30.0,0.0,0.0
6749,50.0,12.0,40.0,3.0,0.0
6750,76.0,18.0,30.0,0.0,0.0
6751,78.0,20.0,30.0,0.0,0.0
6752,43.0,12.0,40.0,3.0,0.0
6753,79.0,20.0,20.0,0.0,0.0
6754,81.0,8.0,20.0,0.0,0.0
6755,83.0,20.0,20.0,0.0,0.0
6756,84.0,20.0,20.0,0.0,0.0
6757,50.0,12.0,40.0,3.0,0.0
6758,86.0,8.0,20.0,0.0,0.0
6759,88.0,15.0,20.0,0.0,0.0
6760,50.0,12.0,40.0,3.0,0.0
6761,90.0,15.0,15.0,0.0,0.0
6762,91.0,15.0,15.0,0.0,0.0
6763,90.0,3.0,15.0,0.0,0.0
6764,88.0,15.0,15.0,0.0,0.0
6765,50.0,12.0,40.0,3.0,0.0
6766,86.0,15.0,15.0,0.0,0.0
6767,84.0,15.0,15.0,0.0,0.0
6768,83.0,3.0,15.0,0.0,0.0
6769,81.0,15.0,15.0,0.0,0.0
6770,79.0,15.0,15.0,0.0,0.0
6771,47.0,12.0,40.0,3.0,0.0
6772,78.0,15.0,15.0,0.0,0.0
6773,76.0,3.0,15.0,0.0,0.0
6774,74.0,15.0,15.0,0.0,0.0
6775,72.0,15.0,15.0,0.0,0.0
6776,50.0,12.0,40.0,3.0,0.0
6777,71.0,15.0,15.0,0.0,0.0
6778,69.0,3.0,15.0,0.0,0.0
6779,67.0,20.0,15.0,0.0,0.0
6780,66.0,20.0,20.0,0.0,0.0
6781,50.0,12.0,40.0,3.0,0.0
6782,67.0,8.0,20.0,0.0,0.0
6783,69.0,20.0,20.0,0.0,0.0
6784,50.0,12.0,40.0,3.0,0.0
6785,67.0,20.0,20.0,0.0,0.0
6786,71.0,8.0,20.0,0.0,0.0
6787,67.0,0.0,20.0,0.0,0.0
6788,38.0,40.0,40.0,3.0,0.0
6789,74.0,0.0,240.0,0.0,0.0
6790,69.0,40.0,240.0,1.0,0.0
6791,66.0,0.0,240.0,2.0,0.0
6792,50.0,40.0,15.0,3.0,0.0
6793,50.0,40.0,15.0,3.0,0.0
6794,50.0,40.0,15.0,3.0,0.0
6795,62.0,0.0,240.0,2.0,0.0
6796,69.0,0.0,240.0,0.0,0.0
6797,42.0,40.0,40.0,3.0,0.0
6798,50.0,40.0,15.0,3.0,0.0
6799,50.0,40.0,15.0,3.0,0.0
6800,50.0,40.0,15.0,3.0,0.0
6801,50.0,0.0,40.0,3.0,0.0
6802,66.0,40.0,15.0,1.0,0.0
6803,69.0,0.0,240.0,0.0,0.0
6804,45.0,40.0,40.0,3.0,0.0
6805,50.0,40.0,15.0,3.0,0.0
6806,50.0,40.0,15.0,3.0,0.0
6807,50.0,40.0,40.0,3.0,0.0
6808,50.0,40.0,40.0,3.0,0.0
6809,72.0,40.0,240.0,0.0,0.0
6810,62.0,0.0,15.0,2.0,0.0
6811,66.0,0.0,240.0,1.0,0.0
6812,38.0,40.0,40.0,3.0,0.0
6813,50.0,40.0,40.0,3.0,0.0
6814,50.0,40.0,15.0,3.0,0.0
6815,50.0,40.0,15.0,3.0,0.0
6816,66.0,0.0,960.0,1.0,0.0
6817,69.0,0.0,15.0,1.0,0.0
6818,43.0,40.0,40.0,3.0,0.0
6819,62.0,0.0,960.0,2.0,0.0
6820,72.0,10.0,150.0,0.0,0.0
6821,50.0,40.0,15.0,3.0,0.0
6822,50.0,30.0,15.0,3.0,0.0
6823,71.0,20.0,30.0,0.0,0.0
6824,50.0,0.0,40.0,3.0,0.0
6825,69.0,20.0,20.0,0.0,0.0
6826,67.0,20.0,20.0,0.0,0.0
6827,50.0,20.0,40.0,3.0,0.0
6828,66.0,0.0,20.0,0.0,0.0
6829,47.0,0.0,40.0,3.0,0.0
6830,67.0,20.0,20.0,0.0,0.0
6831,68.0,20.0,20.0,0.0,0.0
6832,50.0,20.0,40.0,3.0,0.0
6833,69.0,20.0,20.0,0.0,0.0
6834,70.0,0.0,20.0,0.0,0.0
6835,71.0,20.0,20.0,0.0,0.0
6836,72.0,0.0,20.0,0.0,0.0
6837,73.0,20.0,20.0,0.0,0.0
6838,50.0,20.0,15.0,3.0,0.0
6839,74.0,20.0,20.0,0.0,0.0
6840,75.0,20.0,20.0,0.0,0.0
6841,50.0,20.0,40.0,3.0,0.0
6842,76.0,0.0,20.0,0.0,0.0
6843,77.0,20.0,20.0,0.0,0.0
6844,50.0,0.0,40.0,3.0,0.0
6845,78.0,30.0,20.0,0.0,0.0
6846,43.0,24.0,330.0,3.0,0.0
6847,79.0,30.0,30.0,0.0,0.0
6848,80.0,30.0,30.0,0.0,0.0
6849,81.0,30.0,30.0,0.0,0.0
6850,82.0,30.0,30.0,0.0,0.0
6851,83.0,30.0,30.0,0.0,0.0
6852,84.0,30.0,30.0,0.0,0.0
6853,85.0,30.0,30.0,0.0,0.0
6854,86.0,30.0,30.0,0.0,0.0
6855,87.0,30.0,30.0,0.0,0.0
6856,88.0,30.0,30.0,0.0,0.0
6857,89.0,6.0,30.0,0.0,0.0
6858,90.0,30.0,30.0,0.0,0.0
6859,91.0,10.0,30.0,0.0,0.0
6860,93.0,10.0,15.0,0.0,0.0
6861,91.0,10.0,15.0,0.0,0.0
6862,90.0,30.0,15.0,0.0,0.0
6863,91.0,30.0,30.0,0.0,0.0
6864,93.0,240.0,30.0,0.0,0.0
6865,91.0,0.0,240.0,0.0,0.0
6866,69.0,0.0,120.0,1.0,0.0
6867,66.0,0.0,15.0,2.0,0.0
6868,90.0,0.0,120.0,0.0,0.0
6869,62.0,120.0,15.0,3.0,0.0
6870,66.0,0.0,15.0,2.0,0.0
6871,69.0,120.0,15.0,1.0,0.0
6872,62.0,0.0,15.0,3.0,0.0
6873,69.0,0.0,15.0,1.0,0.0
6874,66.0,0.0,480.0,2.0,0.0
6875,91.0,15.0,15.0,0.0,0.0
6876,90.0,15.0,15.0,0.0,0.0
6877,88.0,15.0,15.0,0.0,0.0
6878,90.0,60.0,15.0,0.0,0.0
6879,91.0,60.0,60.0,0.0,0.0
6880,93.0,60.0,60.0,0.0,0.0
6881,91.0,60.0,60.0,0.0,0.0
6882,90.0,60.0,60.0,0.0,0.0
6883,88.0,45.0,60.0,0.0,0.0
6884,86.0,15.0,40.0,0.0,0.0
6885,81.0,0.0,15.0,0.0,0.0
6886,91.0,0.0,240.0,0.0,0.0
6887,60.0,0.0,120.0,3.0,0.0
6888,90.0,0.0,120.0,0.0,0.0
6889,60.0,0.0,120.0,3.0,0.0
6890,62.0,0.0,15.0,2.0,0.0
6891,69.0,120.0,15.0,1.0,0.0
6892,62.0,120.0,15.0,2.0,0.0
6893,69.0,0.0,120.0,1.0,0.0
6894,62.0,75.0,15.0,2.0,0.0
6895,60.0,0.0,15.0,3.0,0.0
6896,69.0,0.0,480.0,1.0,0.0
6897,91.0,15.0,15.0,0.0,0.0
6898,90.0,15.0,15.0,0.0,0.0
6899,88.0,15.0,15.0,0.0,0.0
6900,90.0,60.0,15.0,0.0,0.0
6901,91.0,60.0,60.0,0.0,0.0
6902,93.0,60.0,60.0,0.0,0.0
6903,91.0,60.0,60.0,0.0,0.0
6904,90.0,60.0,60.0,0.0,0.0
6905,88.0,60.0,60.0,0.0,0.0
6906,86.0,60.0,60.0,0.0,0.0
6907,59.0,0.0,240.0,3.0,0.0
6908,67.0,60.0,240.0,1.0,0.0
6909,62.0,0.0,15.0,2.0,0.0
6910,91.0,15.0,60.0,0.0,0.0
6911,90.0,105.0,15.0,0.0,0.0
6912,91.0,15.0,60.0,0.0,0.0
6913,90.0,45.0,15.0,0.0,0.0
6914,91.0,15.0,60.0,0.0,0.0
6915,90.0,105.0,15.0,0.0,0.0
6916,88.0,15.0,60.0,0.0,0.0
6917,87.0,75.0,15.0,0.0,0.0
6918,60.0,0.0,480.0,3.0,0.0
6919,67.0,0.0,240.0,1.0,0.0
6920,64.0,120.0,480.0,2.0,0.0
6921,90.0,30.0,30.0,0.0,0.0
6922,88.0,30.0,30.0,0.0,0.0
6923,87.0,30.0,30.0,0.0,0.0
6924,88.0,30.0,30.0,0.0,0.0
6925,86.0,30.0,30.0,0.0,0.0
6926,84.0,30.0,30.0,0.0,0.0
6927,83.0,30.0,30.0,0.0,0.0
6928,84.0,30.0,30.0,0.0,0.0
6929,69.0,0.0,240.0,1.0,0.0
6930,83.0,30.0,30.0,0.0,0.0
6931,81.0,30.0,30.0,0.0,0.0
6932,80.0,30.0,30.0,0.0,0.0
6933,81.0,30.0,30.0,0.0,0.0
6934,83.0,30.0,30.0,0.0,0.0
6935,84.0,30.0,30.0,0.0,0.0
6936,86.0,30.0,30.0,0.0,0.0
6937,88.0,0.0,30.0,0.0,0.0
6938,88.0,24.0,120.0,0.0,0.0
6939,62.0,0.0,120.0,3.0,0.0
6940,71.0,120.0,120.0,1.0,0.0
6941,67.0,0.0,120.0,2.0,0.0
6942,79.0,96.0,20.0,0.0,0.0
6943,79.0,0.0,120.0,0.0,0.0
6944,62.0,0.0,120.0,3.0,0.0
6945,67.0,40.0,120.0,2.0,0.0
6946,71.0,0.0,15.0,1.0,0.0
6947,86.0,40.0,40.0,0.0,0.0
6948,62.0,60.0,120.0,3.0,0.0
6949,67.0,0.0,120.0,2.0,0.0
6950,83.0,40.0,40.0,0.0,0.0
6951,79.0,0.0,15.0,0.0,0.0
6952,78.0,120.0,60.0,0.0,0.0
6953,69.0,0.0,120.0,1.0,0.0
6954,72.0,60.0,120.0,1.0,0.0
6955,63.0,0.0,120.0,3.0,0.0
6956,84.0,30.0,180.0,0.0,0.0
6957,66.0,0.0,15.0,2.0,0.0
6958,72.0,0.0,120.0,1.0,0.0
6959,86.0,30.0,30.0,0.0,0.0
6960,84.0,0.0,30.0,0.0,0.0
6961,63.0,0.0,15.0,3.0,0.0
6962,66.0,60.0,120.0,2.0,0.0
6963,83.0,30.0,30.0,0.0,0.0
6964,72.0,0.0,120.0,1.0,0.0
6965,69.0,30.0,15.0,1.0,0.0
6966,81.0,30.0,30.0,0.0,0.0
6967,79.0,30.0,30.0,0.0,0.0
6968,78.0,0.0,30.0,0.0,0.0
6969,72.0,0.0,240.0,1.0,0.0
6970,69.0,120.0,240.0,2.0,0.0
6971,78.0,15.0,60.0,0.0,0.0
6972,79.0,15.0,15.0,0.0,0.0
6973,78.0,15.0,15.0,0.0,0.0
6974,76.0,15.0,15.0,0.0,0.0
6975,78.0,90.0,15.0,0.0,0.0
6976,81.0,30.0,90.0,0.0,0.0
6977,79.0,0.0,30.0,0.0,0.0
6978,79.0,0.0,120.0,0.0,0.0
6979,64.0,0.0,15.0,3.0,0.0
6980,71.0,135.0,120.0,1.0,0.0
6981,67.0,15.0,120.0,0.0,0.0
6982,58.0,0.0,480.0,1.0,0.0
6983,55.0,180.0,480.0,2.0,0.0
6984,52.0,0.0,480.0,3.0,0.0
6985,61.0,0.0,480.0,1.0,0.0
6986,69.0,15.0,15.0,0.0,0.0
6987,67.0,15.0,15.0,0.0,0.0
6988,66.0,15.0,15.0,0.0,0.0
6989,67.0,15.0,15.0,0.0,0.0
6990,68.0,15.0,15.0,0.0,0.0
6991,69.0,15.0,15.0,0.0,0.0
6992,70.0,15.0,15.0,0.0,0.0
6993,71.0,15.0,15.0,0.0,0.0
6994,72.0,15.0,15.0,0.0,0.0
6995,73.0,15.0,15.0,0.0,0.0
6996,74.0,15.0,15.0,0.0,0.0
6997,75.0,15.0,15.0,0.0,0.0
6998,76.0,15.0,15.0,0.0,0.0
6999,77.0,15.0,15.0,0.0,0.0
7000,78.0,30.0,15.0,0.0,0.0
7001,79.0,30.0,30.0,0.0,0.0
7002,80.0,30.0,30.0,0.0,0.0
7003,81.0,30.0,30.0,0.0,0.0
7004,82.0,30.0,30.0,0.0,0.0
7005,81.0,30.0,30.0,0.0,0.0
7006,84.0,20.0,30.0,0.0,0.0
7007,82.0,20.0,20.0,0.0,0.0
7008,81.0,20.0,20.0,0.0,0.0
7009,79.0,0.0,20.0,0.0,0.0
7010,79.0,15.0,180.0,0.0,0.0
7011,60.0,0.0,120.0,1.0,0.0
7012,54.0,0.0,120.0,2.0,0.0
7013,57.0,0.0,120.0,1.0,0.0
7014,78.0,15.0,15.0,0.0,0.0
7015,79.0,15.0,15.0,0.0,0.0
7016,81.0,15.0,15.0,0.0,0.0
7017,79.0,120.0,15.0,0.0,0.0
7018,50.0,0.0,15.0,3.0,0.0
7019,78.0,0.0,120.0,0.0,0.0
7020,54.0,0.0,15.0,2.0,0.0
7021,57.0,0.0,15.0,1.0,0.0
7022,50.0,120.0,15.0,3.0,0.0
7023,60.0,0.0,15.0,1.0,0.0
7024,50.0,0.0,15.0,3.0,0.0
7025,54.0,216.0,480.0,2.0,0.0
7026,60.0,0.0,15.0,1.0,0.0
7027,57.0,0.0,480.0,1.0,0.0
7028,78.0,36.0,40.0,0.0,0.0
7029,79.0,30.0,20.0,0.0,0.0
7030,81.0,54.0,20.0,0.0,0.0
7031,79.0,36.0,40.0,0.0,0.0
7032,81.0,30.0,20.0,0.0,0.0
7033,78.0,54.0,20.0,0.0,0.0
7034,76.0,36.0,40.0,0.0,0.0
7035,78.0,30.0,20.0,0.0,0.0
7036,74.0,6.0,20.0,0.0,0.0
7037,79.0,96.0,240.0,0.0,0.0
7038,91.0,0.0,240.0,0.0,0.0
7039,48.0,24.0,90.0,3.0,0.0
7040,50.0,0.0,90.0,2.0,0.0
7041,54.0,0.0,90.0,1.0,0.0
7042,57.0,0.0,90.0,1.0,0.0
7043,54.0,0.0,90.0,1.0,0.0
7044,78.0,96.0,120.0,0.0,0.0
7045,50.0,0.0,90.0,2.0,0.0
7046,57.0,0.0,90.0,1.0,0.0
7047,90.0,0.0,120.0,0.0,0.0
7048,48.0,24.0,90.0,3.0,0.0
7049,57.0,0.0,90.0,1.0,0.0
7050,48.0,0.0,90.0,3.0,0.0
7051,50.0,107.0,90.0,2.0,0.0
7052,54.0,0.0,90.0,1.0,0.0
7053,48.0,0.0,390.0,3.0,0.0
7054,57.0,17.0,390.0,1.0,0.0
7055,50.0,0.0,390.0,2.0,0.0
7056,54.0,0.0,390.0,1.0,0.0
7057,78.0,0.0,40.0,0.0,0.0
7058,90.0,60.0,20.0,0.0,0.0
7059,79.0,60.0,40.0,0.0,0.0
7060,91.0,0.0,20.0,0.0,0.0
7061,81.0,60.0,40.0,0.0,0.0
7062,93.0,0.0,20.0,0.0,0.0
7063,79.0,0.0,40.0,0.0,0.0
7064,91.0,60.0,20.0,0.0,0.0
7065,78.0,0.0,40.0,0.0,0.0
7066,90.0,55.0,20.0,0.0,0.0
7067,76.0,6.0,30.0,0.0,0.0
7068,88.0,43.0,40.0,0.0,0.0
7069,74.0,30.0,40.0,0.0,0.0
7070,86.0,54.0,60.0,0.0,0.0
7071,55.0,60.0,240.0,1.0,0.0
7072,50.0,0.0,480.0,2.0,0.0
7073,47.0,45.0,480.0,3.0,0.0
7074,79.0,27.0,40.0,0.0,0.0
7075,91.0,0.0,40.0,0.0,0.0
7076,90.0,0.0,15.0,0.0,0.0
7077,78.0,93.0,15.0,0.0,0.0
7078,91.0,27.0,40.0,0.0,0.0
7079,79.0,0.0,40.0,0.0,0.0
7080,78.0,45.0,15.0,0.0,0.0
7081,90.0,0.0,15.0,0.0,0.0
7082,79.0,60.0,60.0,0.0,0.0
7083,91.0,0.0,60.0,0.0,0.0
7084,55.0,45.0,480.0,1.0,0.0
7085,77.0,0.0,60.0,0.0,0.0
7086,89.0,60.0,60.0,0.0,0.0
7087,88.0,0.0,60.0,0.0,0.0
7088,76.0,60.0,60.0,0.0,0.0
7089,75.0,0.0,60.0,0.0,0.0
7090,87.0,0.0,60.0,0.0,0.0
7091,76.0,15.0,40.0,0.0,0.0
7092,48.0,0.0,480.0,3.0,0.0
7093,88.0,45.0,15.0,0.0,0.0
7094,74.0,15.0,40.0,0.0,0.0
7095,86.0,45.0,15.0,0.0,0.0
7096,72.0,15.0,40.0,0.0,0.0
7097,84.0,45.0,15.0,0.0,0.0
7098,71.0,15.0,40.0,0.0,0.0
7099,83.0,0.0,15.0,0.0,0.0
7100,69.0,15.0,40.0,0.0,0.0
7101,57.0,0.0,240.0,1.0,0.0
7102,81.0,45.0,15.0,0.0,0.0
7103,67.0,15.0,40.0,0.0,0.0
7104,79.0,45.0,15.0,0.0,0.0
7105,66.0,15.0,40.0,0.0,0.0
7106,78.0,45.0,15.0,0.0,0.0
7107,64.0,15.0,40.0,0.0,0.0
7108,76.0,150.0,15.0,0.0,0.0
7109,71.0,20.0,240.0,1.0,0.0
7110,62.0,0.0,240.0,3.0,0.0
7111,74.0,30.0,150.0,0.0,0.0
7112,76.0,30.0,30.0,0.0,0.0
7113,74.0,30.0,30.0,0.0,0.0
7114,73.0,0.0,30.0,0.0,0.0
7115,67.0,0.0,15.0,2.0,0.0
7116,74.0,20.0,20.0,0.0,0.0
7117,75.0,20.0,20.0,0.0,0.0
7118,76.0,20.0,20.0,0.0,0.0
7119,77.0,20.0,20.0,0.0,0.0
7120,78.0,20.0,20.0,0.0,0.0
7121,79.0,20.0,20.0,0.0,0.0
7122,80.0,20.0,20.0,0.0,0.0
7123,81.0,20.0,20.0,0.0,0.0
7124,82.0,20.0,20.0,0.0,0.0
7125,83.0,20.0,20.0,0.0,0.0
7126,84.0,20.0,20.0,0.0,0.0
7127,85.0,0.0,20.0,0.0,0.0
7128,86.0,30.0,30.0,0.0,0.0
7129,67.0,120.0,240.0,2.0,0.0
7130,62.0,30.0,15.0,3.0,0.0
7131,71.0,0.0,15.0,1.0,0.0
7132,83.0,30.0,30.0,0.0,0.0
7133,84.0,30.0,30.0,0.0,0.0
7134,81.0,30.0,30.0,0.0,0.0
7135,81.0,10.0,30.0,0.0,0.0
7136,83.0,10.0,15.0,0.0,0.0
7137,81.0,10.0,15.0,0.0,0.0
7138,80.0,30.0,15.0,0.0,0.0
7139,81.0,30.0,30.0,0.0,0.0
7140,83.0,0.0,30.0,0.0,0.0
7141,84.0,0.0,120.0,0.0,0.0
7142,62.0,120.0,120.0,3.0,0.0
7143,69.0,0.0,120.0,1.0,0.0
7144,66.0,0.0,120.0,2.0,0.0
7145,72.0,0.0,60.0,1.0,0.0
7146,78.0,240.0,60.0,0.0,0.0
7147,74.0,0.0,15.0,1.0,0.0
7148,69.0,0.0,15.0,2.0,0.0
7149,72.0,0.0,480.0,1.0,0.0
7150,67.0,240.0,240.0,3.0,0.0
7151,78.0,0.0,480.0,0.0,0.0
7152,62.0,0.0,240.0,3.0,0.0
7153,74.0,120.0,15.0,1.0,0.0
7154,79.0,0.0,120.0,0.0,0.0
7155,55.0,0.0,240.0,3.0,0.0
7156,71.0,60.0,120.0,2.0,0.0
7157,78.0,60.0,60.0,0.0,0.0
7158,79.0,60.0,60.0,0.0,0.0
7159,81.0,60.0,60.0,0.0,0.0
7160,79.0,60.0,60.0,0.0,0.0
7161,78.0,60.0,60.0,0.0,0.0
7162,76.0,96.0,60.0,0.0,0.0
7163,74.0,96.0,180.0,0.0,0.0
7164,62.0,0.0,180.0,1.0,0.0
7165,43.0,0.0,570.0,3.0,0.0
7166,71.0,0.0,180.0,1.0,0.0
7167,67.0,0.0,180.0,1.0,0.0
7168,43.0,72.0,90.0,2.0,0.0
7169,47.0,24.0,40.0,2.0,0.0
7170,67.0,0.0,90.0,1.0,0.0
7171,62.0,72.0,90.0,1.0,0.0
7172,71.0,0.0,90.0,0.0,0.0
7173,50.0,48.0,40.0,2.0,0.0
7174,55.0,120.0,40.0,2.0,0.0
7175,67.0,72.0,90.0,1.0,0.0
7176,50.0,48.0,40.0,2.0,0.0
7177,71.0,0.0,90.0,0.0,0.0
7178,62.0,0.0,90.0,1.0,0.0
7179,47.0,168.0,40.0,2.0,0.0
7180,62.0,24.0,390.0,1.0,0.0
7181,67.0,0.0,390.0,1.0,0.0
7182,43.0,72.0,90.0,2.0,0.0
7183,43.0,72.0,570.0,3.0,0.0
7184,71.0,0.0,390.0,0.0,0.0
7185,47.0,120.0,40.0,2.0,0.0
7186,50.0,96.0,40.0,2.0,0.0
7187,55.0,120.0,40.0,2.0,0.0
7188,67.0,0.0,240.0,0.0,0.0
7189,62.0,120.0,240.0,1.0,0.0
7190,50.0,48.0,40.0,2.0,0.0
7191,47.0,72.0,40.0,2.0,0.0
7192,69.0,0.0,180.0,0.0,0.0
7193,38.0,48.0,120.0,3.0,0.0
7194,62.0,96.0,180.0,1.0,0.0
7195,66.0,0.0,180.0,1.0,0.0
7196,50.0,24.0,40.0,3.0,0.0
7197,62.0,0.0,90.0,1.0,0.0
7198,69.0,72.0,90.0,0.0,0.0
7199,42.0,48.0,40.0,3.0,0.0
7200,50.0,120.0,40.0,3.0,0.0
7201,62.0,72.0,90.0,1.0,0.0
7202,67.0,0.0,90.0,1.0,0.0
7203,43.0,48.0,40.0,3.0,0.0
7204,71.0,0.0,90.0,0.0,0.0
7205,50.0,168.0,40.0,3.0,0.0
7206,42.0,72.0,90.0,3.0,0.0
7207,74.0,0.0,180.0,0.0,0.0
7208,69.0,96.0,180.0,1.0,0.0
7209,50.0,24.0,40.0,3.0,0.0
7210,38.0,48.0,40.0,3.0,0.0
7211,66.0,72.0,90.0,1.0,0.0
7212,72.0,0.0,90.0,0.0,0.0
7213,50.0,120.0,40.0,3.0,0.0
7214,43.0,48.0,40.0,3.0,0.0
7215,71.0,72.0,90.0,0.0,0.0
7216,67.0,0.0,90.0,1.0,0.0
7217,62.0,0.0,90.0,1.0,0.0
7218,50.0,168.0,40.0,3.0,0.0
7219,43.0,72.0,90.0,3.0,0.0
7220,79.0,0.0,390.0,0.0,0.0
7221,71.0,0.0,390.0,1.0,0.0
7222,74.0,24.0,390.0,1.0,0.0
7223,55.0,120.0,40.0,3.0,0.0
7224,47.0,96.0,40.0,3.0,0.0
7225,59.0,120.0,40.0,3.0,0.0
7226,72.0,72.0,90.0,1.0,0.0
7227,50.0,48.0,40.0,3.0,0.0
7228,74.0,0.0,90.0,1.0,0.0
7229,81.0,0.0,40.0,0.0,0.0
7230,62.0,168.0,40.0,3.0,0.0
7231,78.0,0.0,40.0,0.0,0.0
7232,71.0,0.0,390.0,1.0,0.0
7233,74.0,0.0,390.0,1.0,0.0
7234,43.0,72.0,90.0,3.0,0.0
7235,79.0,24.0,390.0,0.0,0.0
7236,55.0,120.0,40.0,3.0,0.0
7237,47.0,96.0,40.0,3.0,0.0
7238,59.0,120.0,40.0,3.0,0.0
7239,72.0,72.0,90.0,1.0,0.0
7240,74.0,0.0,90.0,1.0,0.0
7241,81.0,48.0,40.0,0.0,0.0
7242,50.0,0.0,40.0,3.0,0.0
7243,62.0,192.0,40.0,3.0,0.0
7244,78.0,0.0,40.0,0.0,0.0
7245,79.0,48.0,120.0,0.0,0.0
7246,71.0,48.0,240.0,1.0,0.0
7247,43.0,0.0,120.0,3.0,0.0
7248,74.0,0.0,40.0,0.0,0.0
7249,55.0,72.0,40.0,3.0,0.0
7250,72.0,72.0,90.0,0.0,0.0
7251,69.0,0.0,90.0,1.0,0.0
7252,42.0,48.0,40.0,3.0,0.0
7253,54.0,120.0,40.0,3.0,0.0
7254,67.0,72.0,90.0,1.0,0.0
7255,71.0,0.0,90.0,0.0,0.0
7256,43.0,48.0,40.0,3.0,0.0
7257,55.0,168.0,40.0,3.0,0.0
7258,62.0,0.0,390.0,1.0,0.0
7259,71.0,0.0,390.0,0.0,0.0
7260,38.0,120.0,90.0,3.0,0.0
7261,67.0,72.0,390.0,1.0,0.0
7262,49.0,120.0,90.0,3.0,0.0
7263,50.0,48.0,90.0,3.0,0.0
7264,49.0,216.0,90.0,3.0,0.0
7265,62.0,0.0,180.0,1.0,0.0
7266,69.0,144.0,180.0,0.0,0.0
7267,66.0,0.0,180.0,1.0,0.0
7268,50.0,0.0,180.0,3.0,0.0
7269,43.0,0.0,570.0,3.0,0.0
7270,43.0,72.0,90.0,2.0,0.0
7271,71.0,0.0,180.0,1.0,0.0
7272,74.0,96.0,180.0,0.0,0.0
7273,67.0,0.0,180.0,1.0,0.0
7274,62.0,0.0,180.0,1.0,0.0
7275,47.0,24.0,40.0,2.0,0.0
7276,62.0,0.0,90.0,1.0,0.0
7277,50.0,48.0,40.0,2.0,0.0
7278,71.0,72.0,90.0,0.0,0.0
7279,67.0,0.0,90.0,1.0,0.0
7280,55.0,120.0,40.0,2.0,0.0
7281,62.0,72.0,90.0,1.0,0.0
7282,71.0,0.0,90.0,0.0,0.0
7283,67.0,0.0,90.0,1.0,0.0
7284,50.0,48.0,40.0,2.0,0.0
7285,47.0,168.0,40.0,2.0,0.0
7286,71.0,0.0,390.0,0.0,0.0
7287,43.0,72.0,570.0,3.0,0.0
7288,67.0,0.0,390.0,1.0,0.0
7289,62.0,24.0,390.0,1.0,0.0
7290,43.0,72.0,90.0,2.0,0.0
7291,47.0,120.0,40.0,2.0,0.0
7292,50.0,96.0,40.0,2.0,0.0
7293,55.0,120.0,40.0,2.0,0.0
7294,50.0,48.0,40.0,2.0,0.0
7295,67.0,0.0,240.0,0.0,0.0
7296,47.0,72.0,40.0,2.0,0.0
7297,38.0,48.0,120.0,3.0,0.0
7298,66.0,96.0,180.0,1.0,0.0
7299,69.0,0.0,180.0,0.0,0.0
7300,62.0,120.0,15.0,1.0,0.0
7301,50.0,24.0,40.0,3.0,0.0
7302,62.0,0.0,90.0,1.0,0.0
7303,42.0,48.0,40.0,3.0,0.0
7304,69.0,72.0,90.0,0.0,0.0
7305,50.0,120.0,40.0,3.0,0.0
7306,67.0,0.0,90.0,1.0,0.0
7307,71.0,0.0,90.0,0.0,0.0
7308,43.0,48.0,40.0,3.0,0.0
7309,62.0,72.0,90.0,1.0,0.0
7310,50.0,168.0,40.0,3.0,0.0
7311,74.0,0.0,180.0,0.0,0.0
7312,42.0,72.0,90.0,3.0,0.0
7313,69.0,96.0,180.0,1.0,0.0
7314,50.0,24.0,40.0,3.0,0.0
7315,72.0,72.0,90.0,0.0,0.0
7316,38.0,48.0,40.0,3.0,0.0
7317,66.0,0.0,90.0,1.0,0.0
7318,50.0,120.0,40.0,3.0,0.0
7319,71.0,72.0,90.0,0.0,0.0
7320,43.0,48.0,40.0,3.0,0.0
7321,62.0,0.0,90.0,1.0,0.0
7322,67.0,0.0,90.0,1.0,0.0
7323,50.0,168.0,40.0,3.0,0.0
7324,79.0,0.0,390.0,0.0,0.0
7325,43.0,72.0,90.0,3.0,0.0
7326,74.0,0.0,390.0,1.0,0.0
7327,71.0,24.0,390.0,1.0,0.0
7328,55.0,120.0,40.0,3.0,0.0
7329,47.0,96.0,40.0,3.0,0.0
7330,59.0,120.0,40.0,3.0,0.0
7331,50.0,48.0,40.0,3.0,0.0
7332,74.0,72.0,90.0,1.0,0.0
7333,72.0,0.0,90.0,1.0,0.0
7334,81.0,0.0,40.0,0.0,0.0
7335,78.0,0.0,40.0,0.0,0.0
7336,62.0,168.0,40.0,3.0,0.0
7337,71.0,0.0,390.0,1.0,0.0
7338,74.0,24.0,390.0,1.0,0.0
7339,79.0,0.0,390.0,0.0,0.0
7340,43.0,72.0,90.0,3.0,0.0
7341,55.0,120.0,40.0,3.0,0.0
7342,47.0,96.0,40.0,3.0,0.0
7343,59.0,120.0,40.0,3.0,0.0
7344,50.0,48.0,40.0,3.0,0.0
7345,81.0,0.0,40.0,0.0,0.0
7346,74.0,72.0,90.0,1.0,0.0
7347,72.0,0.0,90.0,1.0,0.0
7348,62.0,0.0,40.0,3.0,0.0
7349,78.0,192.0,40.0,0.0,0.0
7350,79.0,0.0,120.0,0.0,0.0
7351,43.0,48.0,120.0,3.0,0.0
7352,71.0,48.0,240.0,1.0,0.0
7353,74.0,0.0,40.0,0.0,0.0
7354,55.0,72.0,40.0,3.0,0.0
7355,42.0,48.0,40.0,3.0,0.0
7356,69.0,72.0,90.0,1.0,0.0
7357,72.0,0.0,90.0,0.0,0.0
7358,54.0,120.0,40.0,3.0,0.0
7359,71.0,72.0,90.0,0.0,0.0
7360,67.0,0.0,90.0,1.0,0.0
7361,43.0,48.0,40.0,3.0,0.0
7362,55.0,168.0,40.0,3.0,0.0
7363,62.0,72.0,390.0,1.0,0.0
7364,67.0,0.0,390.0,1.0,0.0
7365,38.0,120.0,90.0,3.0,0.0
7366,71.0,0.0,390.0,0.0,0.0
7367,49.0,120.0,90.0,3.0,0.0
7368,50.0,48.0,90.0,3.0,0.0
7369,49.0,216.0,90.0,3.0,0.0
7370,69.0,0.0,180.0,0.0,0.0
7371,66.0,0.0,180.0,1.0,0.0
7372,50.0,96.0,180.0,3.0,0.0
7373,62.0,0.0,180.0,1.0,0.0
7374,66.0,0.0,90.0,1.0,0.0
7375,38.0,48.0,40.0,3.0,0.0
7376,69.0,72.0,90.0,0.0,0.0
7377,50.0,168.0,40.0,3.0,0.0
7378,66.0,0.0,300.0,1.0,0.0
7379,42.0,72.0,90.0,3.0,0.0
7380,69.0,0.0,300.0,0.0,0.0
7381,62.0,24.0,390.0,2.0,0.0
7382,50.0,120.0,40.0,3.0,0.0
7383,38.0,96.0,40.0,3.0,0.0
7384,69.0,192.0,40.0,1.0,0.0
7385,72.0,0.0,40.0,0.0,0.0
7386,50.0,0.0,40.0,3.0,0.0
7387,72.0,0.0,120.0,0.0,0.0
7388,69.0,0.0,120.0,1.0,0.0
7389,43.0,48.0,120.0,3.0,0.0
7390,71.0,0.0,40.0,0.0,0.0
7391,50.0,72.0,40.0,3.0,0.0
7392,67.0,0.0,40.0,1.0,0.0
7393,67.0,0.0,90.0,1.0,0.0
7394,71.0,0.0,90.0,0.0,0.0
7395,62.0,48.0,15.0,2.0,0.0
7396,47.0,48.0,40.0,3.0,0.0
7397,50.0,120.0,40.0,3.0,0.0
7398,43.0,120.0,40.0,3.0,0.0
7399,50.0,192.0,40.0,3.0,0.0
7400,74.0,0.0,40.0,0.0,0.0
7401,38.0,0.0,120.0,3.0,0.0
7402,74.0,48.0,120.0,0.0,0.0
7403,50.0,0.0,40.0,3.0,0.0
7404,66.0,72.0,40.0,1.0,0.0
7405,69.0,0.0,40.0,0.0,0.0
7406,66.0,0.0,300.0,1.0,0.0
7407,62.0,48.0,15.0,2.0,0.0
7408,69.0,0.0,300.0,0.0,0.0
7409,42.0,120.0,40.0,3.0,0.0
7410,50.0,120.0,40.0,3.0,0.0
7411,38.0,96.0,40.0,3.0,0.0
7412,69.0,0.0,40.0,1.0,0.0
7413,72.0,0.0,40.0,0.0,0.0
7414,50.0,192.0,40.0,3.0,0.0
7415,72.0,0.0,120.0,0.0,0.0
7416,43.0,0.0,120.0,3.0,0.0
7417,69.0,48.0,120.0,1.0,0.0
7418,50.0,0.0,40.0,3.0,0.0
7419,71.0,72.0,40.0,0.0,0.0
7420,67.0,0.0,40.0,1.0,0.0
7421,71.0,0.0,90.0,0.0,0.0
7422,67.0,0.0,90.0,1.0,0.0
7423,62.0,48.0,15.0,2.0,0.0
7424,47.0,48.0,40.0,3.0,0.0
7425,50.0,120.0,40.0,3.0,0.0
7426,43.0,120.0,40.0,3.0,0.0
7427,74.0,0.0,40.0,0.0,0.0
7428,50.0,192.0,40.0,3.0,0.0
7429,79.0,48.0,120.0,0.0,0.0
7430,38.0,0.0,240.0,3.0,0.0
7431,50.0,0.0,240.0,3.0,0.0
7432,72.0,0.0,240.0,1.0,0.0
7433,69.0,96.0,240.0,2.0,0.0
7434,78.0,72.0,40.0,0.0,0.0
7435,69.0,0.0,90.0,2.0,0.0
7436,72.0,0.0,90.0,1.0,0.0
7437,50.0,0.0,90.0,3.0,0.0
7438,78.0,192.0,90.0,0.0,0.0
7439,76.0,120.0,40.0,0.0,0.0
7440,74.0,192.0,40.0,0.0,0.0
7441,36.0,0.0,240.0,3.0,0.0
7442,48.0,0.0,240.0,3.0,0.0
7443,79.0,48.0,120.0,0.0,0.0
7444,78.0,72.0,40.0,0.0,0.0
7445,48.0,0.0,90.0,3.0,0.0
7446,69.0,96.0,15.0,2.0,0.0
7447,78.0,0.0,90.0,0.0,0.0
7448,74.0,0.0,15.0,1.0,0.0
7449,79.0,96.0,90.0,0.0,0.0
7450,67.0,0.0,180.0,1.0,0.0
7451,59.0,24.0,180.0,2.0,0.0
7452,78.0,72.0,90.0,0.0,0.0
7453,79.0,120.0,40.0,0.0,0.0
7454,74.0,168.0,40.0,0.0,0.0
7455,67.0,0.0,180.0,1.0,0.0
7456,76.0,96.0,90.0,0.0,0.0
7457,60.0,24.0,180.0,2.0,0.0
7458,72.0,120.0,90.0,0.0,0.0
7459,71.0,96.0,90.0,0.0,0.0
7460,62.0,0.0,180.0,2.0,0.0
7461,67.0,24.0,180.0,1.0,0.0
7462,74.0,72.0,90.0,0.0,0.0
7463,67.0,120.0,40.0,0.0,0.0
7464,71.0,168.0,40.0,0.0,0.0
7465,69.0,96.0,90.0,0.0,0.0
7466,50.0,0.0,180.0,3.0,0.0
7467,60.0,0.0,180.0,1.0,0.0
7468,57.0,24.0,180.0,2.0,0.0
7469,66.0,120.0,90.0,0.0,0.0
7470,67.0,72.0,90.0,0.0,0.0
7471,55.0,96.0,180.0,3.0,0.0
7472,59.0,0.0,180.0,1.0,0.0
7473,71.0,24.0,40.0,0.0,0.0
7474,74.0,120.0,40.0,0.0,0.0
7475,71.0,120.0,40.0,0.0,0.0
7476,74.0,120.0,40.0,0.0,0.0
7477,79.0,192.0,40.0,0.0,0.0
7478,79.0,48.0,120.0,0.0,0.0
7479,72.0,0.0,240.0,1.0,0.0
7480,38.0,0.0,240.0,3.0,0.0
7481,78.0,72.0,40.0,0.0,0.0
7482,72.0,192.0,90.0,1.0,0.0
7483,69.0,0.0,15.0,2.0,0.0
7484,50.0,96.0,15.0,3.0,0.0
7485,78.0,0.0,90.0,0.0,0.0
7486,76.0,120.0,40.0,0.0,0.0
7487,74.0,192.0,40.0,0.0,0.0
7488,79.0,48.0,120.0,0.0,0.0
7489,36.0,0.0,240.0,3.0,0.0
7490,69.0,0.0,240.0,2.0,0.0
7491,78.0,72.0,40.0,0.0,0.0
7492,48.0,96.0,15.0,3.0,0.0
7493,78.0,0.0,90.0,0.0,0.0
7494,74.0,0.0,15.0,1.0,0.0
7495,69.0,480.0,90.0,2.0,0.0
7496,79.0,96.0,90.0,0.0,0.0
7497,59.0,24.0,180.0,2.0,0.0
7498,67.0,0.0,180.0,1.0,0.0
7499,78.0,72.0,90.0,0.0,0.0
7500,79.0,120.0,40.0,0.0,0.0
7501,74.0,168.0,40.0,0.0,0.0
7502,67.0,0.0,180.0,1.0,0.0
7503,60.0,24.0,180.0,2.0,0.0
7504,76.0,96.0,90.0,0.0,0.0
7505,72.0,120.0,90.0,0.0,0.0
7506,67.0,24.0,180.0,1.0,0.0
7507,62.0,0.0,180.0,2.0,0.0
7508,71.0,96.0,90.0,0.0,0.0
7509,74.0,72.0,90.0,0.0,0.0
7510,67.0,120.0,40.0,0.0,0.0
7511,71.0,168.0,40.0,0.0,0.0
7512,57.0,24.0,180.0,2.0,0.0
7513,50.0,0.0,180.0,3.0,0.0
7514,69.0,96.0,90.0,0.0,0.0
7515,60.0,0.0,180.0,1.0,0.0
7516,66.0,120.0,90.0,0.0,0.0
7517,55.0,0.0,180.0,3.0,0.0
7518,67.0,72.0,90.0,0.0,0.0
7519,59.0,96.0,180.0,1.0,0.0
7520,66.0,24.0,40.0,0.0,0.0
7521,67.0,120.0,40.0,0.0,0.0
7522,69.0,120.0,40.0,0.0,0.0
7523,71.0,120.0,40.0,0.0,0.0
7524,72.0,120.0,40.0,0.0,0.0
7525,74.0,144.0,180.0,0.0,0.0
7526,38.0,120.0,40.0,3.0,0.0
7527,50.0,24.0,40.0,3.0,0.0
7528,42.0,72.0,90.0,3.0,0.0
7529,62.0,24.0,390.0,2.0,0.0
7530,69.0,96.0,300.0,0.0,0.0
7531,66.0,0.0,300.0,1.0,0.0
7532,50.0,120.0,40.0,3.0,0.0
7533,38.0,0.0,40.0,3.0,0.0
7534,69.0,0.0,40.0,1.0,0.0
7535,72.0,192.0,40.0,0.0,0.0
7536,50.0,0.0,40.0,3.0,0.0
7537,69.0,0.0,120.0,1.0,0.0
7538,43.0,0.0,120.0,3.0,0.0
7539,62.0,48.0,240.0,2.0,0.0
7540,72.0,48.0,120.0,0.0,0.0
7541,67.0,0.0,40.0,1.0,0.0
7542,71.0,72.0,40.0,0.0,0.0
7543,50.0,0.0,40.0,3.0,0.0
7544,71.0,72.0,90.0,0.0,0.0
7545,67.0,0.0,90.0,1.0,0.0
7546,62.0,0.0,90.0,2.0,0.0
7547,47.0,48.0,40.0,3.0,0.0
7548,50.0,120.0,40.0,3.0,0.0
7549,43.0,120.0,40.0,3.0,0.0
7550,50.0,0.0,40.0,3.0,0.0
7551,86.0,192.0,40.0,0.0,0.0
7552,38.0,48.0,120.0,3.0,0.0
7553,86.0,0.0,120.0,0.0,0.0
7554,50.0,0.0,40.0,3.0,0.0
7555,78.0,0.0,40.0,1.0,0.0
7556,81.0,72.0,40.0,0.0,0.0
7557,81.0,96.0,300.0,0.0,0.0
7558,74.0,48.0,15.0,2.0,0.0
7559,42.0,120.0,40.0,3.0,0.0
7560,78.0,0.0,300.0,1.0,0.0
7561,50.0,120.0,40.0,3.0,0.0
7562,38.0,0.0,40.0,3.0,0.0
7563,81.0,0.0,40.0,1.0,0.0
7564,84.0,192.0,40.0,0.0,0.0
7565,50.0,0.0,40.0,3.0,0.0
7566,84.0,0.0,120.0,0.0,0.0
7567,81.0,0.0,120.0,1.0,0.0
7568,43.0,48.0,120.0,3.0,0.0
7569,74.0,48.0,240.0,2.0,0.0
7570,79.0,0.0,40.0,1.0,0.0
7571,83.0,0.0,40.0,0.0,0.0
7572,50.0,72.0,40.0,3.0,0.0
7573,74.0,0.0,90.0,2.0,0.0
7574,47.0,48.0,40.0,3.0,0.0
7575,83.0,0.0,90.0,0.0,0.0
7576,79.0,72.0,90.0,1.0,0.0
7577,50.0,120.0,40.0,3.0,0.0
7578,43.0,120.0,40.0,3.0,0.0
7579,50.0,0.0,40.0,3.0,0.0
7580,74.0,192.0,40.0,0.0,0.0
7581,79.0,48.0,120.0,0.0,0.0
7582,38.0,0.0,240.0,3.0,0.0
7583,78.0,72.0,40.0,0.0,0.0
7584,69.0,96.0,15.0,2.0,0.0
7585,50.0,0.0,15.0,3.0,0.0
7586,72.0,0.0,15.0,1.0,0.0
7587,78.0,0.0,90.0,0.0,0.0
7588,76.0,120.0,40.0,0.0,0.0
7589,74.0,192.0,40.0,0.0,0.0
7590,69.0,0.0,240.0,2.0,0.0
7591,48.0,0.0,240.0,3.0,0.0
7592,79.0,48.0,120.0,0.0,0.0
7593,36.0,0.0,240.0,3.0,0.0
7594,78.0,72.0,40.0,0.0,0.0
7595,74.0,96.0,15.0,1.0,0.0
7596,69.0,0.0,90.0,2.0,0.0
7597,48.0,480.0,90.0,3.0,0.0
7598,78.0,0.0,90.0,0.0,0.0
7599,59.0,24.0,180.0,2.0,0.0
7600,67.0,0.0,180.0,1.0,0.0
7601,79.0,96.0,90.0,0.0,0.0
7602,78.0,72.0,90.0,0.0,0.0
7603,79.0,120.0,40.0,0.0,0.0
7604,74.0,168.0,40.0,0.0,0.0
7605,76.0,96.0,90.0,0.0,0.0
7606,67.0,0.0,180.0,1.0,0.0
7607,60.0,24.0,180.0,2.0,0.0
7608,72.0,120.0,90.0,0.0,0.0
7609,67.0,24.0,180.0,1.0,0.0
7610,71.0,96.0,90.0,0.0,0.0
7611,62.0,0.0,180.0,2.0,0.0
7612,74.0,72.0,90.0,0.0,0.0
7613,67.0,120.0,40.0,0.0,0.0
7614,71.0,168.0,40.0,0.0,0.0
7615,69.0,96.0,90.0,0.0,0.0
7616,60.0,24.0,180.0,1.0,0.0
7617,50.0,0.0,180.0,3.0,0.0
7618,57.0,0.0,180.0,2.0,0.0
7619,66.0,120.0,90.0,0.0,0.0
7620,67.0,72.0,90.0,0.0,0.0
7621,55.0,96.0,180.0,3.0,0.0
7622,59.0,0.0,180.0,1.0,0.0
7623,71.0,24.0,40.0,0.0,0.0
7624,74.0,120.0,40.0,0.0,0.0
7625,79.0,120.0,40.0,0.0,0.0
7626,83.0,120.0,40.0,0.0,0.0
7627,86.0,192.0,40.0,0.0,0.0
7628,79.0,48.0,120.0,0.0,0.0
7629,91.0,0.0,120.0,0.0,0.0
7630,54.0,96.0,240.0,2.0,0.0
7631,60.0,0.0,240.0,1.0,0.0
7632,57.0,0.0,240.0,1.0,0.0
7633,78.0,72.0,40.0,0.0,0.0
7634,90.0,0.0,40.0,0.0,0.0
7635,90.0,0.0,90.0,0.0,0.0
7636,50.0,0.0,15.0,3.0,0.0
7637,78.0,0.0,90.0,0.0,0.0
7638,60.0,0.0,90.0,1.0,0.0
7639,57.0,192.0,90.0,1.0,0.0
7640,54.0,0.0,90.0,2.0,0.0
7641,76.0,120.0,40.0,0.0,0.0
7642,88.0,0.0,40.0,0.0,0.0
7643,74.0,192.0,40.0,0.0,0.0
7644,86.0,0.0,40.0,0.0,0.0
7645,79.0,0.0,120.0,0.0,0.0
7646,50.0,0.0,240.0,2.0,0.0
7647,91.0,48.0,120.0,0.0,0.0
7648,90.0,72.0,40.0,0.0,0.0
7649,78.0,0.0,40.0,0.0,0.0
7650,50.0,0.0,90.0,2.0,0.0
7651,48.0,96.0,15.0,3.0,0.0
7652,57.0,0.0,15.0,1.0,0.0
7653,54.0,0.0,15.0,1.0,0.0
7654,90.0,480.0,90.0,0.0,0.0
7655,78.0,0.0,90.0,0.0,0.0
7656,91.0,96.0,90.0,0.0,0.0
7657,79.0,0.0,90.0,0.0,0.0
7658,62.0,0.0,180.0,1.0,0.0
7659,67.0,24.0,180.0,1.0,0.0
7660,59.0,0.0,180.0,2.0,0.0
7661,89.0,216.0,90.0,0.0,0.0
7662,77.0,0.0,90.0,0.0,0.0
7663,67.0,144.0,180.0,1.0,0.0
7664,59.0,0.0,180.0,2.0,0.0
7665,77.0,0.0,180.0,0.0,0.0
7666,89.0,0.0,180.0,0.0,0.0
7667,62.0,0.0,180.0,1.0,0.0
7668,76.0,120.0,90.0,0.0,0.0
7669,88.0,0.0,90.0,0.0,0.0
7670,74.0,120.0,90.0,0.0,0.0
7671,86.0,0.0,90.0,0.0,0.0
7672,59.0,0.0,180.0,2.0,0.0
7673,79.0,0.0,90.0,0.0,0.0
7674,91.0,96.0,90.0,0.0,0.0
7675,67.0,0.0,180.0,1.0,0.0
7676,62.0,24.0,180.0,1.0,0.0
7677,89.0,216.0,90.0,0.0,0.0
7678,77.0,0.0,90.0,0.0,0.0
7679,89.0,384.0,180.0,0.0,0.0
7680,59.0,0.0,180.0,2.0,0.0
7681,77.0,0.0,180.0,0.0,0.0
7682,68.0,0.0,180.0,1.0,0.0
7683,62.0,0.0,180.0,1.0,0.0
7684,69.0,0.0,180.0,1.0,0.0
7685,64.0,0.0,180.0,1.0,0.0
7686,60.0,24.0,180.0,2.0,0.0
7687,88.0,96.0,90.0,0.0,0.0
7688,90.0,120.0,90.0,0.0,0.0
7689,91.0,72.0,90.0,0.0,0.0
7690,83.0,36.0,40.0,0.0,0.0
7691,84.0,30.0,20.0,0.0,0.0
7692,86.0,102.0,20.0,0.0,0.0
7693,84.0,120.0,90.0,0.0,0.0
7694,86.0,120.0,90.0,0.0,0.0
7695,88.0,81.0,90.0,0.0,0.0
7696,80.0,27.0,60.0,0.0,0.0
7697,81.0,30.0,20.0,0.0,0.0
7698,83.0,102.0,20.0,0.0,0.0
7699,81.0,120.0,90.0,0.0,0.0
7700,83.0,120.0,90.0,0.0,0.0
7701,84.0,72.0,90.0,0.0,0.0
7702,63.0,18.0,90.0,2.0,0.0
7703,75.0,36.0,40.0,0.0,0.0
7704,76.0,12.0,20.0,0.0,0.0
7705,78.0,102.0,20.0,0.0,0.0
7706,76.0,120.0,90.0,0.0,0.0
7707,64.0,0.0,90.0,2.0,0.0
7708,66.0,120.0,90.0,2.0,0.0
7709,78.0,0.0,90.0,0.0,0.0
7710,67.0,72.0,90.0,2.0,0.0
7711,79.0,0.0,90.0,0.0,0.0
7712,59.0,18.0,90.0,2.0,0.0
7713,71.0,36.0,40.0,0.0,0.0
7714,72.0,12.0,20.0,0.0,0.0
7715,74.0,102.0,20.0,0.0,0.0
7716,60.0,120.0,90.0,2.0,0.0
7717,72.0,0.0,90.0,0.0,0.0
7718,74.0,120.0,90.0,0.0,0.0
7719,62.0,0.0,90.0,2.0,0.0
7720,76.0,72.0,90.0,0.0,0.0
7721,64.0,0.0,90.0,2.0,0.0
7722,56.0,18.0,90.0,2.0,0.0
7723,68.0,36.0,40.0,0.0,0.0
7724,69.0,12.0,20.0,0.0,0.0
7725,71.0,102.0,20.0,0.0,0.0
7726,69.0,0.0,90.0,0.0,0.0
7727,57.0,120.0,90.0,2.0,0.0
7728,71.0,0.0,90.0,0.0,0.0
7729,59.0,120.0,90.0,2.0,0.0
7730,72.0,72.0,90.0,0.0,0.0
7731,60.0,0.0,90.0,2.0,0.0
7732,51.0,168.0,40.0,2.0,0.0
7733,39.0,0.0,40.0,3.0,0.0
7734,63.0,0.0,40.0,0.0,0.0
7735,62.0,0.0,90.0,0.0,0.0
7736,50.0,528.0,90.0,2.0,0.0
7737,38.0,0.0,90.0,3.0,0.0
7738,61.0,144.0,390.0,0.0,0.0
7739,49.0,0.0,1620.0,2.0,0.0
7740,37.0,36.0,1620.0,3.0,0.0
7741,61.0,60.0,40.0,0.0,0.0
7742,64.0,60.0,40.0,0.0,0.0
7743,67.0,60.0,40.0,0.0,0.0
7744,70.0,60.0,40.0,0.0,0.0
7745,73.0,60.0,40.0,0.0,0.0
7746,76.0,60.0,40.0,0.0,0.0
7747,79.0,60.0,40.0,0.0,0.0
7748,82.0,60.0,40.0,0.0,0.0
7749,85.0,60.0,40.0,0.0,0.0
7750,88.0,60.0,40.0,0.0,0.0
7751,91.0,60.0,40.0,0.0,0.0
7752,88.0,60.0,40.0,0.0,0.0
7753,85.0,60.0,40.0,0.0,0.0
7754,82.0,60.0,40.0,0.0,0.0
7755,79.0,60.0,40.0,0.0,0.0
7756,76.0,60.0,40.0,0.0,0.0
7757,73.0,60.0,40.0,0.0,0.0
7758,70.0,60.0,40.0,0.0,0.0
7759,67.0,24.0,40.0,0.0,0.0
7760,64.0,60.0,40.0,0.0,0.0
7761,61.0,60.0,40.0,2.0,0.0
7762,58.0,60.0,40.0,2.0,0.0
7763,55.0,60.0,40.0,2.0,0.0
7764,52.0,60.0,40.0,2.0,0.0
7765,49.0,60.0,40.0,3.0,0.0
7766,46.0,60.0,40.0,3.0,0.0
7767,43.0,60.0,40.0,3.0,0.0
7768,40.0,204.0,40.0,3.0,0.0
7769,37.0,352.0,180.0,3.0,0.0
7770,38.0,80.0,300.0,3.0,0.0
7771,43.0,80.0,60.0,3.0,0.0
7772,47.0,80.0,60.0,3.0,0.0
7773,50.0,80.0,60.0,2.0,0.0
7774,55.0,80.0,60.0,2.0,0.0
7775,59.0,80.0,60.0,2.0,0.0
7776,62.0,80.0,60.0,1.0,0.0
7777,67.0,80.0,60.0,1.0,0.0
7778,71.0,208.0,60.0,1.0,0.0
7779,74.0,336.0,180.0,1.0,0.0
7780,74.0,60.0,180.0,0.0,0.0
7781,76.0,60.0,40.0,0.0,0.0
7782,74.0,60.0,40.0,0.0,0.0
7783,73.0,36.0,40.0,0.0,0.0
7784,74.0,30.0,20.0,0.0,0.0
7785,76.0,30.0,20.0,0.0,0.0
7786,78.0,30.0,20.0,0.0,0.0
7787,79.0,30.0,20.0,0.0,0.0
7788,81.0,30.0,20.0,0.0,0.0
7789,83.0,30.0,20.0,0.0,0.0
7790,84.0,30.0,20.0,0.0,0.0
7791,86.0,30.0,20.0,0.0,0.0
7792,88.0,30.0,20.0,0.0,0.0
7793,90.0,30.0,20.0,0.0,0.0
7794,91.0,30.0,20.0,0.0,0.0
7795,90.0,30.0,20.0,0.0,0.0
7796,88.0,30.0,20.0,0.0,0.0
7797,86.0,30.0,20.0,0.0,0.0
7798,84.0,30.0,20.0,0.0,0.0
7799,83.0,30.0,20.0,0.0,0.0
7800,81.0,30.0,20.0,0.0,0.0
7801,79.0,30.0,20.0,0.0,0.0
7802,78.0,30.0,20.0,0.0,0.0
7803,76.0,30.0,20.0,0.0,0.0
7804,74.0,30.0,20.0,0.0,0.0
7805,72.0,30.0,20.0,0.0,0.0
7806,71.0,30.0,20.0,0.0,0.0
7807,69.0,30.0,20.0,0.0,0.0
7808,67.0,30.0,20.0,1.0,0.0
7809,66.0,30.0,20.0,1.0,0.0
7810,64.0,30.0,20.0,1.0,0.0
7811,62.0,30.0,20.0,1.0,0.0
7812,60.0,30.0,20.0,1.0,0.0
7813,59.0,30.0,20.0,1.0,0.0
7814,57.0,30.0,20.0,1.0,0.0
7815,55.0,54.0,20.0,1.0,0.0
7816,54.0,60.0,40.0,1.0,0.0
7817,52.0,108.0,40.0,1.0,0.0
7818,50.0,216.0,90.0,1.0,0.0
7819,49.0,240.0,180.0,2.0,0.0
7820,50.0,240.0,180.0,2.0,0.0
7821,37.0,240.0,180.0,3.0,0.0
7822,38.0,996.0,180.0,3.0,0.0
7823,66.0,0.0,40.0,0.0,0.0
7824,57.0,0.0,40.0,2.0,0.0
7825,60.0,0.0,40.0,1.0,0.0
7826,62.0,0.0,40.0,1.0,0.0
7827,50.0,780.0,40.0,3.0,0.0
7828,66.0,0.0,960.0,0.0,0.0
7829,50.0,0.0,1410.0,3.0,0.0
7830,43.0,0.0,1410.0,3.0,0.0
7831,57.0,450.0,960.0,2.0,0.0
7832,60.0,192.0,780.0,1.0,0.0
7833,62.0,0.0,1410.0,1.0,0.0
7834,67.0,0.0,450.0,0.0,0.0
7835,55.0,0.0,450.0,2.0,0.0
7836,59.0,0.0,450.0,1.0,0.0
