,note,step,duration,channel,velocity
0,42.0,0.0,90.0,10.0,64.0
1,70.0,85.0,240.0,6.0,64.0
2,66.0,0.0,240.0,7.0,64.0
3,54.0,0.0,90.0,3.0,64.0
4,66.0,0.0,240.0,2.0,64.0
5,42.0,0.0,90.0,4.0,64.0
6,85.0,115.0,1800.0,5.0,64.0
7,70.0,0.0,240.0,1.0,64.0
8,54.0,155.0,90.0,8.0,64.0
9,85.0,0.0,1800.0,0.0,64.0
10,66.0,0.0,240.0,2.0,64.0
11,54.0,155.0,90.0,8.0,64.0
12,54.0,0.0,90.0,3.0,64.0
13,66.0,0.0,240.0,7.0,64.0
14,42.0,0.0,90.0,4.0,64.0
15,70.0,0.0,240.0,1.0,64.0
16,42.0,0.0,90.0,10.0,64.0
17,70.0,85.0,240.0,6.0,64.0
18,42.0,155.0,90.0,4.0,64.0
19,42.0,0.0,90.0,10.0,64.0
20,54.0,0.0,90.0,3.0,64.0
21,70.0,0.0,240.0,6.0,64.0
22,70.0,0.0,240.0,1.0,64.0
23,66.0,0.0,240.0,2.0,64.0
24,66.0,85.0,240.0,7.0,64.0
25,54.0,0.0,90.0,8.0,64.0
26,66.0,85.0,240.0,7.0,64.0
27,42.0,155.0,90.0,10.0,64.0
28,70.0,0.0,240.0,6.0,64.0
29,54.0,0.0,90.0,3.0,64.0
30,66.0,0.0,240.0,2.0,64.0
31,54.0,0.0,90.0,8.0,64.0
32,42.0,0.0,90.0,4.0,64.0
33,70.0,0.0,240.0,1.0,64.0
34,70.0,85.0,240.0,6.0,64.0
35,42.0,155.0,90.0,10.0,64.0
36,54.0,0.0,90.0,3.0,64.0
37,66.0,0.0,240.0,7.0,64.0
38,70.0,0.0,240.0,1.0,64.0
39,42.0,0.0,90.0,4.0,64.0
40,66.0,0.0,240.0,2.0,64.0
41,54.0,0.0,90.0,8.0,64.0
42,42.0,0.0,90.0,10.0,64.0
43,42.0,0.0,90.0,4.0,64.0
44,54.0,0.0,90.0,3.0,64.0
45,70.0,85.0,240.0,6.0,64.0
46,70.0,0.0,240.0,1.0,64.0
47,66.0,0.0,240.0,2.0,64.0
48,66.0,0.0,240.0,7.0,64.0
49,54.0,155.0,90.0,8.0,64.0
50,42.0,0.0,90.0,10.0,64.0
51,54.0,0.0,90.0,3.0,64.0
52,42.0,0.0,90.0,4.0,64.0
53,66.0,0.0,240.0,2.0,64.0
54,70.0,0.0,240.0,6.0,64.0
55,66.0,0.0,240.0,7.0,64.0
56,54.0,155.0,90.0,8.0,64.0
57,70.0,85.0,240.0,1.0,64.0
58,70.0,0.0,240.0,1.0,64.0
59,66.0,0.0,240.0,2.0,64.0
60,54.0,0.0,90.0,3.0,64.0
61,42.0,0.0,90.0,4.0,64.0
62,42.0,40.0,90.0,10.0,64.0
63,70.0,0.0,240.0,6.0,64.0
64,66.0,85.0,240.0,7.0,64.0
65,54.0,0.0,90.0,8.0,64.0
66,54.0,0.0,90.0,3.0,64.0
67,73.0,0.0,240.0,1.0,64.0
68,42.0,0.0,90.0,4.0,64.0
69,83.0,80.0,240.0,5.0,64.0
70,66.0,0.0,240.0,7.0,64.0
71,73.0,5.0,240.0,6.0,64.0
72,66.0,0.0,240.0,2.0,64.0
73,83.0,0.0,240.0,0.0,64.0
74,42.0,0.0,90.0,10.0,64.0
75,54.0,155.0,90.0,8.0,64.0
76,73.0,0.0,240.0,6.0,64.0
77,42.0,0.0,90.0,10.0,64.0
78,54.0,0.0,90.0,3.0,64.0
79,66.0,0.0,240.0,2.0,64.0
80,82.0,0.0,630.0,0.0,64.0
81,82.0,75.0,630.0,5.0,64.0
82,42.0,0.0,90.0,4.0,64.0
83,66.0,85.0,240.0,7.0,64.0
84,54.0,155.0,90.0,8.0,64.0
85,73.0,0.0,240.0,1.0,64.0
86,73.0,0.0,240.0,6.0,64.0
87,66.0,0.0,240.0,7.0,64.0
88,66.0,0.0,240.0,2.0,64.0
89,42.0,0.0,90.0,10.0,64.0
90,73.0,85.0,240.0,1.0,64.0
91,54.0,155.0,90.0,8.0,64.0
92,54.0,0.0,90.0,3.0,64.0
93,42.0,0.0,90.0,4.0,64.0
94,66.0,85.0,240.0,7.0,64.0
95,42.0,0.0,90.0,4.0,64.0
96,73.0,0.0,240.0,1.0,64.0
97,54.0,0.0,90.0,3.0,64.0
98,54.0,80.0,90.0,8.0,64.0
99,73.0,0.0,240.0,6.0,64.0
100,66.0,0.0,240.0,2.0,64.0
101,42.0,0.0,90.0,10.0,64.0
102,61.0,5.0,240.0,7.0,64.0
103,80.0,0.0,240.0,5.0,64.0
104,80.0,80.0,240.0,0.0,64.0
105,54.0,0.0,90.0,8.0,64.0
106,70.0,0.0,240.0,1.0,64.0
107,61.0,0.0,240.0,2.0,64.0
108,42.0,0.0,90.0,4.0,64.0
109,54.0,0.0,90.0,3.0,64.0
110,70.0,0.0,240.0,6.0,64.0
111,42.0,155.0,90.0,10.0,64.0
112,61.0,0.0,240.0,2.0,64.0
113,70.0,85.0,240.0,6.0,64.0
114,70.0,0.0,240.0,1.0,64.0
115,78.0,75.0,630.0,5.0,64.0
116,54.0,0.0,90.0,3.0,64.0
117,42.0,155.0,90.0,10.0,64.0
118,54.0,0.0,90.0,8.0,64.0
119,78.0,0.0,630.0,0.0,64.0
120,42.0,0.0,90.0,4.0,64.0
121,61.0,0.0,240.0,7.0,64.0
122,42.0,0.0,90.0,4.0,64.0
123,70.0,0.0,240.0,6.0,64.0
124,54.0,0.0,90.0,3.0,64.0
125,54.0,155.0,90.0,8.0,64.0
126,61.0,0.0,240.0,2.0,64.0
127,61.0,0.0,240.0,7.0,64.0
128,42.0,0.0,90.0,10.0,64.0
129,70.0,85.0,240.0,1.0,64.0
130,54.0,80.0,90.0,8.0,64.0
131,42.0,0.0,90.0,4.0,64.0
132,61.0,0.0,240.0,7.0,64.0
133,54.0,0.0,90.0,3.0,64.0
134,61.0,0.0,240.0,2.0,64.0
135,70.0,0.0,240.0,1.0,64.0
136,70.0,85.0,240.0,6.0,64.0
137,42.0,0.0,90.0,10.0,64.0
138,42.0,0.0,90.0,10.0,64.0
139,68.0,0.0,120.0,6.0,64.0
140,77.0,120.0,120.0,0.0,64.0
141,42.0,0.0,90.0,4.0,64.0
142,61.0,0.0,2160.0,2.0,64.0
143,61.0,85.0,2160.0,7.0,64.0
144,54.0,40.0,90.0,3.0,64.0
145,68.0,0.0,120.0,1.0,64.0
146,54.0,0.0,90.0,8.0,64.0
147,77.0,0.0,120.0,5.0,64.0
148,78.0,80.0,120.0,5.0,64.0
149,70.0,0.0,120.0,1.0,64.0
150,70.0,0.0,120.0,6.0,64.0
151,78.0,0.0,120.0,0.0,64.0
152,54.0,0.0,90.0,3.0,64.0
153,42.0,0.0,90.0,10.0,64.0
154,71.0,0.0,120.0,1.0,64.0
155,54.0,40.0,90.0,8.0,64.0
156,80.0,120.0,120.0,0.0,64.0
157,80.0,0.0,120.0,5.0,64.0
158,42.0,0.0,90.0,4.0,64.0
159,71.0,0.0,120.0,6.0,64.0
160,70.0,0.0,120.0,1.0,64.0
161,78.0,0.0,120.0,5.0,64.0
162,70.0,80.0,120.0,6.0,64.0
163,78.0,0.0,120.0,0.0,64.0
164,54.0,0.0,90.0,3.0,64.0
165,68.0,0.0,120.0,1.0,64.0
166,42.0,0.0,90.0,4.0,64.0
167,77.0,120.0,120.0,5.0,64.0
168,68.0,0.0,120.0,6.0,64.0
169,42.0,40.0,90.0,10.0,64.0
170,54.0,0.0,90.0,8.0,64.0
171,77.0,0.0,120.0,0.0,64.0
172,70.0,0.0,120.0,1.0,64.0
173,70.0,80.0,120.0,6.0,64.0
174,78.0,0.0,120.0,5.0,64.0
175,78.0,0.0,120.0,0.0,64.0
176,80.0,0.0,120.0,0.0,64.0
177,54.0,40.0,90.0,3.0,64.0
178,54.0,0.0,90.0,8.0,64.0
179,71.0,120.0,120.0,6.0,64.0
180,80.0,0.0,120.0,5.0,64.0
181,42.0,0.0,90.0,4.0,64.0
182,42.0,0.0,90.0,10.0,64.0
183,71.0,0.0,120.0,1.0,64.0
184,70.0,0.0,120.0,1.0,64.0
185,78.0,0.0,120.0,0.0,64.0
186,78.0,80.0,120.0,5.0,64.0
187,70.0,0.0,120.0,6.0,64.0
188,68.0,0.0,120.0,6.0,64.0
189,42.0,0.0,90.0,4.0,64.0
190,54.0,40.0,90.0,8.0,64.0
191,77.0,0.0,120.0,0.0,64.0
192,77.0,120.0,120.0,5.0,64.0
193,42.0,0.0,90.0,10.0,64.0
194,54.0,0.0,90.0,3.0,64.0
195,68.0,0.0,120.0,1.0,64.0
196,70.0,0.0,120.0,1.0,64.0
197,70.0,80.0,120.0,6.0,64.0
198,78.0,0.0,120.0,0.0,64.0
199,78.0,0.0,120.0,5.0,64.0
200,80.0,0.0,120.0,0.0,64.0
201,54.0,0.0,90.0,8.0,64.0
202,54.0,0.0,90.0,3.0,64.0
203,42.0,40.0,90.0,10.0,64.0
204,71.0,120.0,120.0,1.0,64.0
205,80.0,0.0,120.0,5.0,64.0
206,71.0,0.0,120.0,6.0,64.0
207,42.0,0.0,90.0,4.0,64.0
208,78.0,0.0,120.0,5.0,64.0
209,78.0,0.0,120.0,0.0,64.0
210,70.0,0.0,120.0,1.0,64.0
211,70.0,80.0,120.0,6.0,64.0
212,77.0,120.0,120.0,5.0,64.0
213,77.0,0.0,120.0,0.0,64.0
214,42.0,40.0,90.0,10.0,64.0
215,42.0,0.0,90.0,4.0,64.0
216,68.0,0.0,120.0,6.0,64.0
217,68.0,0.0,120.0,1.0,64.0
218,54.0,0.0,90.0,8.0,64.0
219,54.0,0.0,90.0,3.0,64.0
220,70.0,0.0,120.0,6.0,64.0
221,70.0,0.0,120.0,1.0,64.0
222,78.0,0.0,120.0,0.0,64.0
223,78.0,80.0,120.0,5.0,64.0
224,54.0,0.0,90.0,3.0,64.0
225,80.0,0.0,120.0,0.0,64.0
226,71.0,0.0,120.0,6.0,64.0
227,71.0,0.0,120.0,1.0,64.0
228,42.0,0.0,90.0,4.0,64.0
229,54.0,40.0,90.0,8.0,64.0
230,42.0,0.0,90.0,10.0,64.0
231,80.0,120.0,120.0,5.0,64.0
232,77.0,0.0,120.0,0.0,64.0
233,68.0,0.0,120.0,6.0,64.0
234,68.0,0.0,120.0,1.0,64.0
235,77.0,80.0,120.0,5.0,64.0
236,42.0,155.0,90.0,4.0,64.0
237,70.0,0.0,600.0,1.0,64.0
238,54.0,0.0,90.0,3.0,64.0
239,78.0,125.0,600.0,0.0,64.0
240,42.0,0.0,90.0,10.0,64.0
241,78.0,0.0,600.0,5.0,64.0
242,70.0,0.0,600.0,6.0,64.0
243,54.0,0.0,90.0,8.0,64.0
244,54.0,160.0,90.0,8.0,64.0
245,70.0,80.0,240.0,7.0,64.0
246,70.0,0.0,240.0,2.0,64.0
247,54.0,0.0,90.0,3.0,64.0
248,42.0,0.0,90.0,4.0,64.0
249,42.0,0.0,90.0,10.0,64.0
250,42.0,0.0,90.0,10.0,64.0
251,73.0,80.0,240.0,2.0,64.0
252,73.0,0.0,240.0,7.0,64.0
253,54.0,0.0,90.0,8.0,64.0
254,54.0,0.0,90.0,3.0,64.0
255,42.0,35.0,90.0,4.0,64.0
256,70.0,80.0,240.0,7.0,64.0
257,42.0,0.0,90.0,10.0,64.0
258,70.0,0.0,240.0,2.0,64.0
259,54.0,0.0,90.0,3.0,64.0
260,54.0,0.0,90.0,8.0,64.0
261,42.0,160.0,90.0,4.0,64.0
262,66.0,0.0,90.0,2.0,64.0
263,54.0,0.0,90.0,3.0,64.0
264,66.0,0.0,90.0,7.0,64.0
265,42.0,240.0,90.0,10.0,64.0
266,42.0,0.0,90.0,4.0,64.0
267,54.0,0.0,90.0,8.0,64.0
268,54.0,0.0,90.0,3.0,64.0
269,85.0,0.0,240.0,0.0,64.0
270,61.0,0.0,240.0,2.0,64.0
271,42.0,0.0,90.0,4.0,64.0
272,42.0,160.0,90.0,10.0,64.0
273,61.0,0.0,240.0,7.0,64.0
274,54.0,0.0,90.0,8.0,64.0
275,66.0,0.0,240.0,6.0,64.0
276,66.0,0.0,240.0,1.0,64.0
277,85.0,80.0,240.0,5.0,64.0
278,66.0,80.0,240.0,7.0,64.0
279,70.0,0.0,240.0,1.0,64.0
280,42.0,0.0,90.0,4.0,64.0
281,70.0,0.0,240.0,6.0,64.0
282,54.0,0.0,90.0,8.0,64.0
283,82.0,0.0,240.0,0.0,64.0
284,54.0,0.0,90.0,3.0,64.0
285,66.0,0.0,240.0,2.0,64.0
286,82.0,0.0,240.0,5.0,64.0
287,42.0,160.0,90.0,10.0,64.0
288,54.0,0.0,90.0,3.0,64.0
289,42.0,0.0,90.0,10.0,64.0
290,73.0,85.0,240.0,1.0,64.0
291,78.0,0.0,240.0,5.0,64.0
292,42.0,0.0,90.0,4.0,64.0
293,78.0,0.0,240.0,0.0,64.0
294,70.0,0.0,240.0,2.0,64.0
295,73.0,0.0,240.0,6.0,64.0
296,54.0,155.0,90.0,8.0,64.0
297,70.0,0.0,240.0,7.0,64.0
298,61.0,0.0,2010.0,2.0,64.0
299,49.0,0.0,90.0,8.0,64.0
300,49.0,0.0,90.0,3.0,64.0
301,61.0,155.0,2010.0,7.0,64.0
302,37.0,40.0,90.0,4.0,64.0
303,80.0,0.0,120.0,5.0,64.0
304,65.0,0.0,120.0,6.0,64.0
305,80.0,120.0,120.0,0.0,64.0
306,37.0,0.0,90.0,10.0,64.0
307,65.0,0.0,120.0,1.0,64.0
308,66.0,0.0,120.0,1.0,64.0
309,66.0,80.0,120.0,6.0,64.0
310,82.0,0.0,120.0,0.0,64.0
311,82.0,0.0,120.0,5.0,64.0
312,49.0,0.0,90.0,3.0,64.0
313,68.0,0.0,120.0,6.0,64.0
314,83.0,0.0,120.0,0.0,64.0
315,37.0,0.0,90.0,10.0,64.0
316,83.0,0.0,120.0,5.0,64.0
317,68.0,120.0,120.0,1.0,64.0
318,37.0,0.0,90.0,4.0,64.0
319,49.0,40.0,90.0,8.0,64.0
320,66.0,80.0,120.0,6.0,64.0
321,66.0,0.0,120.0,1.0,64.0
322,82.0,0.0,120.0,0.0,64.0
323,82.0,0.0,120.0,5.0,64.0
324,80.0,0.0,120.0,5.0,64.0
325,80.0,0.0,120.0,0.0,64.0
326,49.0,0.0,90.0,8.0,64.0
327,37.0,40.0,90.0,10.0,64.0
328,37.0,0.0,90.0,4.0,64.0
329,65.0,0.0,120.0,6.0,64.0
330,49.0,0.0,90.0,3.0,64.0
331,65.0,120.0,120.0,1.0,64.0
332,82.0,0.0,120.0,5.0,64.0
333,82.0,80.0,120.0,0.0,64.0
334,66.0,0.0,120.0,6.0,64.0
335,66.0,0.0,120.0,1.0,64.0
336,68.0,0.0,120.0,1.0,64.0
337,83.0,0.0,120.0,5.0,64.0
338,83.0,0.0,120.0,0.0,64.0
339,37.0,40.0,90.0,4.0,64.0
340,37.0,0.0,90.0,10.0,64.0
341,49.0,0.0,90.0,3.0,64.0
342,68.0,120.0,120.0,6.0,64.0
343,49.0,0.0,90.0,8.0,64.0
344,82.0,0.0,120.0,0.0,64.0
345,66.0,0.0,120.0,6.0,64.0
346,82.0,0.0,120.0,5.0,64.0
347,66.0,80.0,120.0,1.0,64.0
348,80.0,0.0,120.0,0.0,64.0
349,80.0,0.0,120.0,5.0,64.0
350,37.0,0.0,90.0,4.0,64.0
351,49.0,0.0,90.0,8.0,64.0
352,65.0,120.0,120.0,1.0,64.0
353,37.0,0.0,90.0,10.0,64.0
354,65.0,0.0,120.0,6.0,64.0
355,49.0,40.0,90.0,3.0,64.0
356,82.0,80.0,120.0,5.0,64.0
357,66.0,0.0,120.0,6.0,64.0
358,82.0,0.0,120.0,0.0,64.0
359,66.0,0.0,120.0,1.0,64.0
360,37.0,40.0,90.0,10.0,64.0
361,49.0,0.0,90.0,8.0,64.0
362,83.0,0.0,120.0,0.0,64.0
363,68.0,0.0,120.0,1.0,64.0
364,83.0,0.0,120.0,5.0,64.0
365,49.0,0.0,90.0,3.0,64.0
366,68.0,120.0,120.0,6.0,64.0
367,37.0,0.0,90.0,4.0,64.0
368,82.0,0.0,120.0,0.0,64.0
369,66.0,0.0,120.0,6.0,64.0
370,66.0,0.0,120.0,1.0,64.0
371,82.0,80.0,120.0,5.0,64.0
372,37.0,0.0,90.0,10.0,64.0
373,65.0,0.0,120.0,6.0,64.0
374,49.0,0.0,90.0,8.0,64.0
375,65.0,0.0,120.0,1.0,64.0
376,37.0,0.0,90.0,4.0,64.0
377,80.0,0.0,120.0,0.0,64.0
378,49.0,40.0,90.0,3.0,64.0
379,80.0,120.0,120.0,5.0,64.0
380,66.0,0.0,120.0,6.0,64.0
381,82.0,80.0,120.0,5.0,64.0
382,66.0,0.0,120.0,1.0,64.0
383,82.0,0.0,120.0,0.0,64.0
384,37.0,40.0,90.0,10.0,64.0
385,83.0,120.0,120.0,0.0,64.0
386,49.0,0.0,90.0,3.0,64.0
387,83.0,0.0,120.0,5.0,64.0
388,37.0,0.0,90.0,4.0,64.0
389,68.0,0.0,120.0,6.0,64.0
390,68.0,0.0,120.0,1.0,64.0
391,49.0,0.0,90.0,8.0,64.0
392,65.0,0.0,120.0,1.0,64.0
393,80.0,80.0,120.0,5.0,64.0
394,80.0,0.0,120.0,0.0,64.0
395,65.0,0.0,120.0,6.0,64.0
396,66.0,0.0,240.0,6.0,64.0
397,54.0,0.0,90.0,3.0,64.0
398,66.0,0.0,240.0,1.0,64.0
399,42.0,0.0,90.0,4.0,64.0
400,82.0,85.0,240.0,0.0,64.0
401,82.0,0.0,240.0,5.0,64.0
402,54.0,0.0,90.0,8.0,64.0
403,42.0,0.0,90.0,10.0,64.0
404,54.0,0.0,90.0,8.0,64.0
405,42.0,0.0,90.0,4.0,64.0
406,42.0,0.0,90.0,10.0,64.0
407,66.0,0.0,390.0,7.0,64.0
408,54.0,240.0,90.0,3.0,64.0
409,66.0,0.0,390.0,2.0,64.0
410,73.0,0.0,390.0,1.0,64.0
411,73.0,160.0,390.0,6.0,64.0
412,42.0,0.0,90.0,4.0,64.0
413,54.0,80.0,90.0,8.0,64.0
414,78.0,85.0,720.0,0.0,64.0
415,78.0,0.0,720.0,5.0,64.0
416,54.0,0.0,90.0,3.0,64.0
417,42.0,0.0,90.0,10.0,64.0
418,54.0,0.0,90.0,8.0,64.0
419,70.0,0.0,390.0,2.0,64.0
420,73.0,0.0,390.0,6.0,64.0
421,54.0,0.0,90.0,3.0,64.0
422,42.0,0.0,90.0,10.0,64.0
423,73.0,75.0,390.0,1.0,64.0
424,70.0,0.0,390.0,7.0,64.0
425,42.0,240.0,90.0,4.0,64.0
426,54.0,80.0,90.0,3.0,64.0
427,42.0,0.0,90.0,4.0,64.0
428,54.0,0.0,90.0,8.0,64.0
429,42.0,0.0,90.0,10.0,64.0
430,54.0,0.0,90.0,3.0,64.0
431,54.0,0.0,90.0,8.0,64.0
432,73.0,40.0,390.0,1.0,64.0
433,73.0,0.0,390.0,6.0,64.0
434,42.0,0.0,90.0,10.0,64.0
435,70.0,0.0,240.0,2.0,64.0
436,80.0,0.0,90.0,0.0,64.0
437,80.0,0.0,90.0,5.0,64.0
438,70.0,80.0,240.0,7.0,64.0
439,42.0,120.0,90.0,4.0,64.0
440,82.0,40.0,90.0,5.0,64.0
441,82.0,0.0,90.0,0.0,64.0
442,83.0,0.0,90.0,0.0,64.0
443,56.0,0.0,90.0,3.0,64.0
444,56.0,0.0,90.0,8.0,64.0
445,44.0,80.0,90.0,4.0,64.0
446,83.0,0.0,90.0,5.0,64.0
447,68.0,80.0,240.0,7.0,64.0
448,68.0,0.0,240.0,2.0,64.0
449,44.0,0.0,90.0,10.0,64.0
450,85.0,0.0,90.0,5.0,64.0
451,85.0,40.0,90.0,0.0,64.0
452,56.0,120.0,90.0,8.0,64.0
453,87.0,0.0,90.0,5.0,64.0
454,71.0,0.0,240.0,7.0,64.0
455,71.0,0.0,240.0,2.0,64.0
456,73.0,85.0,240.0,1.0,64.0
457,73.0,0.0,240.0,6.0,64.0
458,44.0,0.0,90.0,10.0,64.0
459,56.0,0.0,90.0,3.0,64.0
460,44.0,0.0,90.0,4.0,64.0
461,87.0,0.0,90.0,0.0,64.0
462,89.0,35.0,90.0,5.0,64.0
463,89.0,0.0,90.0,0.0,64.0
464,46.0,0.0,90.0,4.0,64.0
465,46.0,0.0,90.0,10.0,64.0
466,90.0,115.0,840.0,0.0,64.0
467,58.0,155.0,90.0,8.0,64.0
468,73.0,0.0,240.0,1.0,64.0
469,58.0,0.0,90.0,3.0,64.0
470,90.0,0.0,840.0,5.0,64.0
471,70.0,0.0,240.0,2.0,64.0
472,70.0,0.0,240.0,7.0,64.0
473,73.0,85.0,240.0,6.0,64.0
474,70.0,0.0,240.0,2.0,64.0
475,46.0,0.0,90.0,10.0,64.0
476,73.0,85.0,240.0,6.0,64.0
477,58.0,0.0,90.0,3.0,64.0
478,46.0,0.0,90.0,4.0,64.0
479,58.0,155.0,90.0,8.0,64.0
480,73.0,0.0,240.0,1.0,64.0
481,70.0,0.0,240.0,7.0,64.0
482,46.0,155.0,90.0,10.0,64.0
483,73.0,0.0,240.0,1.0,64.0
484,70.0,0.0,240.0,7.0,64.0
485,58.0,0.0,90.0,8.0,64.0
486,70.0,0.0,240.0,2.0,64.0
487,46.0,0.0,90.0,4.0,64.0
488,58.0,0.0,90.0,3.0,64.0
489,73.0,85.0,240.0,6.0,64.0
490,46.0,0.0,90.0,10.0,64.0
491,73.0,0.0,240.0,1.0,64.0
492,73.0,0.0,240.0,6.0,64.0
493,58.0,0.0,90.0,8.0,64.0
494,70.0,85.0,240.0,2.0,64.0
495,70.0,0.0,240.0,7.0,64.0
496,46.0,0.0,90.0,4.0,64.0
497,58.0,40.0,90.0,3.0,64.0
498,46.0,0.0,90.0,10.0,64.0
499,58.0,0.0,90.0,3.0,64.0
500,78.0,0.0,240.0,6.0,64.0
501,73.0,85.0,240.0,7.0,64.0
502,73.0,0.0,240.0,2.0,64.0
503,85.0,75.0,390.0,5.0,64.0
504,58.0,0.0,90.0,8.0,64.0
505,85.0,0.0,390.0,0.0,64.0
506,46.0,155.0,90.0,4.0,64.0
507,78.0,0.0,240.0,1.0,64.0
508,46.0,0.0,90.0,4.0,64.0
509,78.0,0.0,240.0,6.0,64.0
510,58.0,80.0,90.0,3.0,64.0
511,73.0,0.0,240.0,2.0,64.0
512,46.0,0.0,90.0,10.0,64.0
513,78.0,0.0,240.0,1.0,64.0
514,73.0,85.0,240.0,7.0,64.0
515,58.0,0.0,90.0,8.0,64.0
516,73.0,85.0,240.0,7.0,64.0
517,82.0,0.0,390.0,5.0,64.0
518,82.0,75.0,390.0,0.0,64.0
519,78.0,0.0,240.0,6.0,64.0
520,58.0,155.0,90.0,3.0,64.0
521,46.0,0.0,90.0,10.0,64.0
522,78.0,0.0,240.0,1.0,64.0
523,46.0,0.0,90.0,4.0,64.0
524,73.0,0.0,240.0,2.0,64.0
525,58.0,0.0,90.0,8.0,64.0
526,73.0,0.0,240.0,2.0,64.0
527,46.0,0.0,90.0,10.0,64.0
528,73.0,0.0,240.0,7.0,64.0
529,58.0,80.0,90.0,3.0,64.0
530,46.0,0.0,90.0,4.0,64.0
531,78.0,85.0,240.0,6.0,64.0
532,78.0,0.0,240.0,1.0,64.0
533,58.0,0.0,90.0,8.0,64.0
534,71.0,0.0,240.0,7.0,64.0
535,82.0,115.0,120.0,0.0,64.0
536,47.0,0.0,90.0,4.0,64.0
537,78.0,0.0,240.0,6.0,64.0
538,78.0,0.0,240.0,1.0,64.0
539,59.0,40.0,90.0,3.0,64.0
540,59.0,0.0,90.0,8.0,64.0
541,82.0,0.0,120.0,5.0,64.0
542,71.0,5.0,240.0,2.0,64.0
543,47.0,0.0,90.0,10.0,64.0
544,83.0,0.0,120.0,5.0,64.0
545,83.0,80.0,120.0,0.0,64.0
546,79.0,115.0,120.0,5.0,64.0
547,75.0,0.0,390.0,6.0,64.0
548,59.0,40.0,90.0,3.0,64.0
549,79.0,0.0,120.0,0.0,64.0
550,47.0,0.0,90.0,4.0,64.0
551,75.0,75.0,390.0,1.0,64.0
552,59.0,0.0,90.0,8.0,64.0
553,47.0,0.0,90.0,10.0,64.0
554,71.0,85.0,240.0,7.0,64.0
555,71.0,0.0,240.0,2.0,64.0
556,80.0,0.0,120.0,0.0,64.0
557,80.0,0.0,120.0,5.0,64.0
558,59.0,0.0,90.0,8.0,64.0
559,71.0,85.0,240.0,2.0,64.0
560,71.0,0.0,240.0,7.0,64.0
561,59.0,80.0,90.0,3.0,64.0
562,47.0,0.0,90.0,10.0,64.0
563,80.0,75.0,390.0,0.0,64.0
564,47.0,0.0,90.0,4.0,64.0
565,80.0,0.0,390.0,5.0,64.0
566,47.0,0.0,90.0,10.0,64.0
567,75.0,75.0,390.0,6.0,64.0
568,75.0,0.0,390.0,1.0,64.0
569,59.0,0.0,90.0,8.0,64.0
570,59.0,80.0,90.0,3.0,64.0
571,71.0,0.0,240.0,2.0,64.0
572,47.0,0.0,90.0,4.0,64.0
573,71.0,85.0,240.0,7.0,64.0
574,71.0,0.0,240.0,2.0,64.0
575,47.0,0.0,90.0,10.0,64.0
576,59.0,0.0,90.0,8.0,64.0
577,47.0,80.0,90.0,4.0,64.0
578,59.0,0.0,90.0,3.0,64.0
579,71.0,85.0,240.0,7.0,64.0
580,75.0,0.0,240.0,6.0,64.0
581,80.0,0.0,240.0,0.0,64.0
582,80.0,80.0,240.0,5.0,64.0
583,47.0,0.0,90.0,4.0,64.0
584,71.0,0.0,240.0,7.0,64.0
585,59.0,0.0,90.0,3.0,64.0
586,47.0,160.0,90.0,10.0,64.0
587,71.0,0.0,240.0,2.0,64.0
588,59.0,0.0,90.0,8.0,64.0
589,75.0,0.0,240.0,1.0,64.0
590,83.0,0.0,240.0,0.0,64.0
591,47.0,160.0,90.0,10.0,64.0
592,59.0,0.0,90.0,3.0,64.0
593,59.0,0.0,90.0,8.0,64.0
594,75.0,0.0,240.0,7.0,64.0
595,80.0,0.0,240.0,6.0,64.0
596,75.0,0.0,240.0,2.0,64.0
597,80.0,0.0,240.0,1.0,64.0
598,83.0,80.0,240.0,5.0,64.0
599,47.0,0.0,90.0,4.0,64.0
600,83.0,0.0,240.0,1.0,64.0
601,87.0,0.0,240.0,5.0,64.0
602,59.0,155.0,90.0,8.0,64.0
603,47.0,0.0,90.0,10.0,64.0
604,87.0,0.0,240.0,0.0,64.0
605,83.0,0.0,240.0,6.0,64.0
606,59.0,0.0,90.0,3.0,64.0
607,47.0,0.0,90.0,4.0,64.0
608,68.0,85.0,240.0,2.0,64.0
609,68.0,0.0,240.0,7.0,64.0
610,73.0,0.0,240.0,7.0,64.0
611,61.0,0.0,90.0,8.0,64.0
612,84.0,0.0,120.0,5.0,64.0
613,81.0,0.0,120.0,1.0,64.0
614,81.0,115.0,120.0,6.0,64.0
615,49.0,40.0,90.0,10.0,64.0
616,61.0,0.0,90.0,3.0,64.0
617,49.0,0.0,90.0,4.0,64.0
618,84.0,0.0,120.0,0.0,64.0
619,73.0,85.0,240.0,2.0,64.0
620,85.0,0.0,750.0,0.0,64.0
621,82.0,0.0,750.0,1.0,64.0
622,85.0,75.0,750.0,5.0,64.0
623,82.0,0.0,750.0,6.0,64.0
624,61.0,0.0,90.0,8.0,64.0
625,49.0,0.0,90.0,10.0,64.0
626,61.0,0.0,240.0,7.0,64.0
627,49.0,0.0,90.0,4.0,64.0
628,61.0,155.0,90.0,3.0,64.0
629,61.0,85.0,240.0,2.0,64.0
630,49.0,155.0,90.0,4.0,64.0
631,61.0,0.0,90.0,8.0,64.0
632,61.0,0.0,90.0,3.0,64.0
633,49.0,0.0,90.0,10.0,64.0
634,61.0,85.0,240.0,2.0,64.0
635,61.0,0.0,240.0,7.0,64.0
636,61.0,85.0,240.0,2.0,64.0
637,61.0,80.0,90.0,8.0,64.0
638,49.0,0.0,90.0,10.0,64.0
639,61.0,0.0,240.0,7.0,64.0
640,61.0,0.0,90.0,3.0,64.0
641,49.0,0.0,90.0,4.0,64.0
642,49.0,0.0,90.0,4.0,64.0
643,81.0,0.0,120.0,1.0,64.0
644,49.0,40.0,90.0,10.0,64.0
645,61.0,0.0,90.0,3.0,64.0
646,84.0,115.0,120.0,5.0,64.0
647,61.0,85.0,240.0,2.0,64.0
648,81.0,0.0,120.0,6.0,64.0
649,61.0,0.0,240.0,7.0,64.0
650,84.0,0.0,120.0,0.0,64.0
651,61.0,0.0,90.0,8.0,64.0
652,82.0,0.0,360.0,1.0,64.0
653,85.0,85.0,360.0,5.0,64.0
654,82.0,0.0,360.0,6.0,64.0
655,85.0,0.0,360.0,0.0,64.0
656,49.0,0.0,90.0,4.0,64.0
657,61.0,0.0,90.0,3.0,64.0
658,49.0,0.0,90.0,10.0,64.0
659,61.0,0.0,240.0,2.0,64.0
660,61.0,155.0,90.0,8.0,64.0
661,61.0,0.0,240.0,7.0,64.0
662,81.0,0.0,120.0,1.0,64.0
663,61.0,40.0,90.0,3.0,64.0
664,81.0,0.0,120.0,6.0,64.0
665,61.0,0.0,240.0,2.0,64.0
666,61.0,85.0,240.0,7.0,64.0
667,84.0,0.0,120.0,5.0,64.0
668,49.0,0.0,90.0,4.0,64.0
669,61.0,0.0,90.0,8.0,64.0
670,84.0,115.0,120.0,0.0,64.0
671,49.0,0.0,90.0,10.0,64.0
672,82.0,0.0,360.0,1.0,64.0
673,82.0,85.0,360.0,6.0,64.0
674,85.0,0.0,360.0,0.0,64.0
675,85.0,0.0,360.0,5.0,64.0
676,61.0,0.0,240.0,7.0,64.0
677,61.0,0.0,90.0,3.0,64.0
678,49.0,155.0,90.0,4.0,64.0
679,61.0,0.0,240.0,2.0,64.0
680,61.0,0.0,90.0,8.0,64.0
681,49.0,0.0,90.0,10.0,64.0
682,85.0,115.0,120.0,0.0,64.0
683,49.0,0.0,90.0,8.0,64.0
684,61.0,0.0,240.0,7.0,64.0
685,79.0,0.0,120.0,1.0,64.0
686,37.0,40.0,90.0,10.0,64.0
687,49.0,0.0,90.0,3.0,64.0
688,37.0,0.0,90.0,4.0,64.0
689,61.0,0.0,240.0,2.0,64.0
690,79.0,0.0,120.0,6.0,64.0
691,85.0,0.0,120.0,5.0,64.0
692,83.0,85.0,120.0,5.0,64.0
693,83.0,0.0,120.0,0.0,64.0
694,80.0,0.0,120.0,1.0,64.0
695,80.0,0.0,120.0,6.0,64.0
696,37.0,155.0,90.0,4.0,64.0
697,61.0,65.0,240.0,2.0,64.0
698,49.0,0.0,90.0,3.0,64.0
699,61.0,0.0,240.0,7.0,64.0
700,49.0,0.0,90.0,8.0,64.0
701,37.0,0.0,90.0,10.0,64.0
702,82.0,20.0,120.0,5.0,64.0
703,79.0,0.0,120.0,6.0,64.0
704,82.0,0.0,120.0,0.0,64.0
705,79.0,0.0,120.0,1.0,64.0
706,37.0,0.0,90.0,4.0,64.0
707,49.0,155.0,90.0,3.0,64.0
708,61.0,0.0,240.0,2.0,64.0
709,61.0,85.0,240.0,7.0,64.0
710,37.0,0.0,90.0,10.0,64.0
711,49.0,0.0,90.0,8.0,64.0
712,83.0,0.0,540.0,0.0,64.0
713,80.0,0.0,540.0,6.0,64.0
714,80.0,0.0,540.0,1.0,64.0
715,83.0,120.0,540.0,5.0,64.0
716,37.0,0.0,90.0,4.0,64.0
717,49.0,155.0,90.0,8.0,64.0
718,49.0,0.0,90.0,3.0,64.0
719,61.0,0.0,240.0,7.0,64.0
720,37.0,0.0,90.0,10.0,64.0
721,61.0,85.0,240.0,2.0,64.0
722,49.0,0.0,90.0,8.0,64.0
723,37.0,0.0,90.0,10.0,64.0
724,49.0,0.0,90.0,3.0,64.0
725,37.0,35.0,90.0,4.0,64.0
726,61.0,0.0,240.0,2.0,64.0
727,61.0,85.0,240.0,7.0,64.0
728,37.0,0.0,90.0,10.0,64.0
729,82.0,115.0,120.0,0.0,64.0
730,61.0,0.0,240.0,2.0,64.0
731,49.0,0.0,90.0,3.0,64.0
732,37.0,0.0,90.0,4.0,64.0
733,82.0,0.0,120.0,5.0,64.0
734,49.0,40.0,90.0,8.0,64.0
735,79.0,0.0,120.0,1.0,64.0
736,61.0,0.0,240.0,7.0,64.0
737,79.0,0.0,120.0,6.0,64.0
738,83.0,0.0,120.0,5.0,64.0
739,80.0,0.0,120.0,1.0,64.0
740,80.0,0.0,120.0,6.0,64.0
741,83.0,85.0,120.0,0.0,64.0
742,49.0,0.0,90.0,8.0,64.0
743,85.0,0.0,90.0,0.0,64.0
744,82.0,120.0,90.0,1.0,64.0
745,85.0,0.0,90.0,5.0,64.0
746,37.0,0.0,90.0,4.0,64.0
747,61.0,0.0,240.0,7.0,64.0
748,82.0,0.0,90.0,6.0,64.0
749,49.0,0.0,90.0,3.0,64.0
750,61.0,85.0,240.0,2.0,64.0
751,37.0,0.0,90.0,10.0,64.0
752,83.0,35.0,90.0,5.0,64.0
753,83.0,0.0,90.0,0.0,64.0
754,80.0,0.0,90.0,6.0,64.0
755,80.0,0.0,90.0,1.0,64.0
756,82.0,0.0,90.0,0.0,64.0
757,61.0,0.0,240.0,7.0,64.0
758,61.0,125.0,240.0,2.0,64.0
759,49.0,0.0,90.0,3.0,64.0
760,79.0,0.0,90.0,6.0,64.0
761,37.0,0.0,90.0,4.0,64.0
762,37.0,0.0,90.0,10.0,64.0
763,82.0,120.0,90.0,5.0,64.0
764,49.0,0.0,90.0,8.0,64.0
765,79.0,0.0,90.0,1.0,64.0
766,80.0,0.0,90.0,5.0,64.0
767,80.0,0.0,90.0,0.0,64.0
768,77.0,0.0,90.0,6.0,64.0
769,77.0,35.0,90.0,1.0,64.0
770,78.0,0.0,390.0,1.0,64.0
771,61.0,0.0,390.0,7.0,64.0
772,78.0,40.0,390.0,6.0,64.0
773,42.0,0.0,390.0,10.0,64.0
774,54.0,0.0,390.0,8.0,64.0
775,78.0,0.0,120.0,5.0,64.0
776,78.0,120.0,120.0,0.0,64.0
777,61.0,0.0,390.0,2.0,64.0
778,54.0,0.0,390.0,3.0,64.0
779,42.0,0.0,390.0,4.0,64.0
780,73.0,0.0,120.0,5.0,64.0
781,73.0,80.0,120.0,0.0,64.0
782,70.0,0.0,90.0,5.0,64.0
783,70.0,80.0,90.0,0.0,64.0
784,73.0,120.0,90.0,5.0,64.0
785,73.0,0.0,90.0,0.0,64.0
786,78.0,0.0,90.0,0.0,64.0
787,78.0,120.0,90.0,5.0,64.0
788,73.0,120.0,90.0,0.0,64.0
789,73.0,0.0,90.0,5.0,64.0
790,77.0,85.0,240.0,6.0,64.0
791,49.0,0.0,240.0,3.0,64.0
792,37.0,0.0,240.0,4.0,64.0
793,80.0,0.0,90.0,5.0,64.0
794,73.0,0.0,240.0,2.0,64.0
795,77.0,0.0,240.0,1.0,64.0
796,49.0,0.0,240.0,8.0,64.0
797,80.0,120.0,90.0,0.0,64.0
798,37.0,0.0,240.0,10.0,64.0
799,73.0,0.0,240.0,7.0,64.0
800,73.0,0.0,90.0,5.0,64.0
801,73.0,35.0,90.0,0.0,64.0
802,73.0,0.0,390.0,2.0,64.0
803,78.0,40.0,390.0,1.0,64.0
804,54.0,0.0,390.0,8.0,64.0
805,42.0,0.0,390.0,4.0,64.0
806,54.0,0.0,390.0,3.0,64.0
807,78.0,0.0,390.0,6.0,64.0
808,42.0,0.0,390.0,10.0,64.0
809,82.0,0.0,90.0,0.0,64.0
810,82.0,120.0,90.0,5.0,64.0
811,73.0,0.0,390.0,7.0,64.0
812,78.0,0.0,90.0,5.0,64.0
813,78.0,120.0,90.0,0.0,64.0
814,85.0,80.0,90.0,5.0,64.0
815,85.0,0.0,90.0,0.0,64.0
816,82.0,0.0,90.0,5.0,64.0
817,82.0,120.0,90.0,0.0,64.0
818,83.0,0.0,90.0,5.0,64.0
819,83.0,120.0,90.0,0.0,64.0
820,80.0,120.0,90.0,5.0,64.0
821,80.0,0.0,90.0,0.0,64.0
822,71.0,0.0,240.0,1.0,64.0
823,78.0,0.0,90.0,5.0,64.0
824,68.0,0.0,240.0,7.0,64.0
825,49.0,0.0,240.0,4.0,64.0
826,71.0,0.0,240.0,6.0,64.0
827,68.0,0.0,240.0,2.0,64.0
828,49.0,0.0,240.0,10.0,64.0
829,61.0,125.0,240.0,8.0,64.0
830,61.0,0.0,240.0,3.0,64.0
831,78.0,120.0,90.0,0.0,64.0
832,77.0,0.0,90.0,5.0,64.0
833,77.0,35.0,90.0,0.0,64.0
834,54.0,0.0,390.0,8.0,64.0
835,78.0,0.0,120.0,5.0,64.0
836,70.0,0.0,390.0,1.0,64.0
837,66.0,0.0,390.0,7.0,64.0
838,42.0,0.0,390.0,4.0,64.0
839,42.0,0.0,390.0,10.0,64.0
840,70.0,0.0,390.0,6.0,64.0
841,54.0,40.0,390.0,3.0,64.0
842,66.0,0.0,390.0,2.0,64.0
843,78.0,120.0,120.0,0.0,64.0
844,73.0,0.0,120.0,5.0,64.0
845,73.0,80.0,120.0,0.0,64.0
846,70.0,80.0,90.0,5.0,64.0
847,70.0,0.0,90.0,0.0,64.0
848,73.0,120.0,90.0,0.0,64.0
849,73.0,0.0,90.0,5.0,64.0
850,78.0,0.0,90.0,5.0,64.0
851,78.0,120.0,90.0,0.0,64.0
852,73.0,120.0,90.0,0.0,64.0
853,73.0,0.0,90.0,5.0,64.0
854,37.0,0.0,240.0,10.0,64.0
855,80.0,120.0,90.0,5.0,64.0
856,73.0,0.0,240.0,2.0,64.0
857,77.0,0.0,240.0,1.0,64.0
858,37.0,0.0,240.0,4.0,64.0
859,73.0,0.0,240.0,7.0,64.0
860,80.0,0.0,90.0,0.0,64.0
861,49.0,85.0,240.0,8.0,64.0
862,77.0,0.0,240.0,6.0,64.0
863,49.0,0.0,240.0,3.0,64.0
864,73.0,0.0,90.0,0.0,64.0
865,73.0,35.0,90.0,5.0,64.0
866,78.0,0.0,390.0,1.0,64.0
867,78.0,0.0,390.0,6.0,64.0
868,54.0,0.0,390.0,3.0,64.0
869,73.0,0.0,390.0,2.0,64.0
870,54.0,0.0,390.0,8.0,64.0
871,42.0,0.0,390.0,4.0,64.0
872,82.0,0.0,90.0,0.0,64.0
873,82.0,120.0,90.0,5.0,64.0
874,73.0,40.0,390.0,7.0,64.0
875,42.0,0.0,390.0,10.0,64.0
876,73.0,0.0,90.0,0.0,64.0
877,73.0,120.0,90.0,5.0,64.0
878,82.0,80.0,90.0,5.0,64.0
879,82.0,0.0,90.0,0.0,64.0
880,85.0,120.0,90.0,0.0,64.0
881,85.0,0.0,90.0,5.0,64.0
882,83.0,0.0,90.0,5.0,64.0
883,83.0,120.0,90.0,0.0,64.0
884,80.0,120.0,90.0,5.0,64.0
885,80.0,0.0,90.0,0.0,64.0
886,71.0,0.0,240.0,2.0,64.0
887,71.0,85.0,240.0,7.0,64.0
888,49.0,0.0,240.0,4.0,64.0
889,78.0,0.0,90.0,0.0,64.0
890,61.0,0.0,240.0,8.0,64.0
891,78.0,120.0,90.0,5.0,64.0
892,61.0,0.0,240.0,3.0,64.0
893,49.0,0.0,240.0,10.0,64.0
894,77.0,0.0,90.0,5.0,64.0
895,77.0,35.0,90.0,0.0,64.0
896,78.0,160.0,390.0,5.0,64.0
897,70.0,0.0,90.0,2.0,64.0
898,78.0,0.0,390.0,0.0,64.0
899,90.0,0.0,1320.0,6.0,64.0
900,54.0,0.0,90.0,8.0,64.0
901,70.0,0.0,90.0,7.0,64.0
902,90.0,200.0,1320.0,1.0,64.0
903,42.0,240.0,90.0,4.0,64.0
904,54.0,0.0,90.0,3.0,64.0
905,42.0,0.0,90.0,10.0,64.0
906,54.0,80.0,90.0,8.0,64.0
907,42.0,0.0,90.0,4.0,64.0
908,42.0,0.0,90.0,10.0,64.0
909,70.0,0.0,90.0,7.0,64.0
910,70.0,0.0,90.0,2.0,64.0
911,54.0,0.0,90.0,3.0,64.0
912,70.0,0.0,90.0,2.0,64.0
913,42.0,0.0,90.0,10.0,64.0
914,54.0,0.0,90.0,8.0,64.0
915,42.0,240.0,90.0,4.0,64.0
916,70.0,0.0,90.0,7.0,64.0
917,54.0,0.0,90.0,3.0,64.0
918,54.0,0.0,90.0,8.0,64.0
919,70.0,240.0,90.0,2.0,64.0
920,54.0,0.0,90.0,3.0,64.0
921,42.0,0.0,90.0,4.0,64.0
922,70.0,0.0,90.0,7.0,64.0
923,42.0,0.0,90.0,10.0,64.0
924,54.0,0.0,90.0,3.0,64.0
925,54.0,0.0,90.0,8.0,64.0
926,42.0,240.0,90.0,10.0,64.0
927,70.0,0.0,90.0,2.0,64.0
928,42.0,0.0,90.0,4.0,64.0
929,70.0,0.0,90.0,7.0,64.0
930,54.0,0.0,90.0,3.0,64.0
931,70.0,0.0,90.0,7.0,64.0
932,42.0,0.0,90.0,4.0,64.0
933,70.0,40.0,90.0,2.0,64.0
934,54.0,0.0,90.0,8.0,64.0
935,42.0,0.0,90.0,10.0,64.0
936,85.0,120.0,360.0,6.0,64.0
937,54.0,0.0,90.0,3.0,64.0
938,85.0,0.0,360.0,1.0,64.0
939,70.0,240.0,90.0,7.0,64.0
940,42.0,0.0,90.0,4.0,64.0
941,42.0,0.0,90.0,10.0,64.0
942,70.0,0.0,90.0,2.0,64.0
943,54.0,0.0,90.0,8.0,64.0
944,42.0,35.0,90.0,10.0,64.0
945,54.0,0.0,90.0,3.0,64.0
946,54.0,0.0,90.0,8.0,64.0
947,70.0,0.0,90.0,7.0,64.0
948,42.0,0.0,90.0,4.0,64.0
949,70.0,0.0,90.0,2.0,64.0
950,82.0,0.0,120.0,6.0,64.0
951,82.0,85.0,120.0,1.0,64.0
952,42.0,0.0,90.0,4.0,64.0
953,78.0,160.0,390.0,1.0,64.0
954,54.0,0.0,90.0,3.0,64.0
955,78.0,0.0,390.0,6.0,64.0
956,70.0,240.0,90.0,7.0,64.0
957,61.0,0.0,90.0,2.0,64.0
958,54.0,0.0,90.0,8.0,64.0
959,42.0,0.0,90.0,10.0,64.0
960,61.0,0.0,90.0,7.0,64.0
961,70.0,0.0,90.0,2.0,64.0
962,61.0,0.0,90.0,7.0,64.0
963,70.0,0.0,90.0,7.0,64.0
964,70.0,0.0,90.0,2.0,64.0
965,54.0,80.0,90.0,3.0,64.0
966,61.0,0.0,90.0,2.0,64.0
967,42.0,0.0,90.0,4.0,64.0
968,42.0,0.0,90.0,10.0,64.0
969,54.0,0.0,90.0,8.0,64.0
970,54.0,0.0,90.0,8.0,64.0
971,61.0,0.0,90.0,2.0,64.0
972,70.0,0.0,90.0,2.0,64.0
973,42.0,240.0,90.0,10.0,64.0
974,42.0,0.0,90.0,4.0,64.0
975,61.0,0.0,90.0,7.0,64.0
976,70.0,0.0,90.0,7.0,64.0
977,54.0,0.0,90.0,3.0,64.0
978,73.0,120.0,360.0,6.0,64.0
979,73.0,0.0,360.0,1.0,64.0
980,54.0,0.0,90.0,3.0,64.0
981,61.0,35.0,90.0,7.0,64.0
982,54.0,0.0,90.0,8.0,64.0
983,42.0,0.0,90.0,10.0,64.0
984,61.0,0.0,90.0,2.0,64.0
985,42.0,0.0,90.0,4.0,64.0
986,70.0,0.0,90.0,2.0,64.0
987,70.0,0.0,90.0,7.0,64.0
988,70.0,0.0,120.0,6.0,64.0
989,70.0,85.0,120.0,1.0,64.0
990,70.0,0.0,90.0,7.0,64.0
991,61.0,280.0,90.0,7.0,64.0
992,54.0,0.0,90.0,8.0,64.0
993,54.0,0.0,90.0,3.0,64.0
994,66.0,0.0,90.0,6.0,64.0
995,70.0,0.0,90.0,2.0,64.0
996,42.0,0.0,90.0,10.0,64.0
997,61.0,0.0,90.0,2.0,64.0
998,66.0,0.0,90.0,1.0,64.0
999,42.0,0.0,90.0,4.0,64.0
1000,82.0,0.0,120.0,1.0,64.0
1001,54.0,0.0,240.0,8.0,64.0
1002,42.0,0.0,240.0,4.0,64.0
1003,66.0,0.0,120.0,2.0,64.0
1004,54.0,80.0,240.0,3.0,64.0
1005,82.0,0.0,120.0,6.0,64.0
1006,66.0,120.0,120.0,7.0,64.0
1007,84.0,0.0,120.0,6.0,64.0
1008,68.0,0.0,120.0,7.0,64.0
1009,68.0,0.0,120.0,2.0,64.0
1010,84.0,0.0,120.0,1.0,64.0
1011,85.0,240.0,90.0,6.0,64.0
1012,70.0,0.0,90.0,7.0,64.0
1013,85.0,0.0,90.0,1.0,64.0
1014,42.0,0.0,15.0,10.0,64.0
1015,70.0,0.0,90.0,2.0,64.0
1016,42.0,0.0,90.0,4.0,64.0
1017,54.0,0.0,90.0,8.0,64.0
1018,54.0,0.0,90.0,3.0,64.0
1019,85.0,190.0,90.0,6.0,64.0
1020,70.0,0.0,90.0,7.0,64.0
1021,85.0,0.0,90.0,1.0,64.0
1022,70.0,0.0,90.0,2.0,64.0
1023,42.0,0.0,90.0,10.0,64.0
1024,54.0,0.0,90.0,3.0,64.0
1025,42.0,0.0,90.0,4.0,64.0
1026,54.0,0.0,90.0,8.0,64.0
1027,56.0,0.0,90.0,8.0,64.0
1028,85.0,30.0,30.0,1.0,64.0
1029,44.0,0.0,90.0,10.0,64.0
1030,85.0,0.0,30.0,6.0,64.0
1031,90.0,200.0,1320.0,0.0,64.0
1032,90.0,0.0,1320.0,5.0,64.0
1033,44.0,0.0,90.0,4.0,64.0
1034,63.0,0.0,90.0,2.0,64.0
1035,63.0,0.0,90.0,7.0,64.0
1036,56.0,10.0,90.0,3.0,64.0
1037,87.0,0.0,30.0,6.0,64.0
1038,87.0,20.0,30.0,1.0,64.0
1039,85.0,30.0,30.0,6.0,64.0
1040,85.0,0.0,30.0,1.0,64.0
1041,87.0,0.0,30.0,1.0,64.0
1042,87.0,120.0,30.0,6.0,64.0
1043,85.0,0.0,120.0,6.0,64.0
1044,85.0,80.0,120.0,1.0,64.0
1045,44.0,0.0,90.0,4.0,64.0
1046,63.0,0.0,90.0,7.0,64.0
1047,84.0,85.0,240.0,6.0,64.0
1048,63.0,155.0,90.0,2.0,64.0
1049,56.0,0.0,90.0,8.0,64.0
1050,56.0,0.0,90.0,3.0,64.0
1051,44.0,0.0,90.0,10.0,64.0
1052,84.0,0.0,240.0,1.0,64.0
1053,56.0,0.0,90.0,3.0,64.0
1054,84.0,160.0,390.0,6.0,64.0
1055,44.0,0.0,90.0,4.0,64.0
1056,63.0,240.0,90.0,7.0,64.0
1057,84.0,0.0,390.0,1.0,64.0
1058,44.0,0.0,90.0,10.0,64.0
1059,56.0,0.0,90.0,8.0,64.0
1060,63.0,0.0,90.0,2.0,64.0
1061,63.0,0.0,90.0,7.0,64.0
1062,44.0,0.0,90.0,4.0,64.0
1063,44.0,0.0,90.0,10.0,64.0
1064,63.0,80.0,90.0,2.0,64.0
1065,56.0,0.0,90.0,3.0,64.0
1066,56.0,0.0,90.0,8.0,64.0
1067,56.0,0.0,90.0,3.0,64.0
1068,56.0,0.0,90.0,8.0,64.0
1069,63.0,0.0,90.0,2.0,64.0
1070,44.0,0.0,90.0,10.0,64.0
1071,63.0,240.0,90.0,7.0,64.0
1072,44.0,0.0,90.0,4.0,64.0
1073,56.0,0.0,90.0,8.0,64.0
1074,44.0,0.0,90.0,4.0,64.0
1075,63.0,40.0,90.0,2.0,64.0
1076,44.0,0.0,90.0,10.0,64.0
1077,63.0,0.0,90.0,7.0,64.0
1078,56.0,0.0,90.0,3.0,64.0
1079,44.0,0.0,90.0,4.0,64.0
1080,44.0,0.0,90.0,10.0,64.0
1081,56.0,0.0,90.0,3.0,64.0
1082,63.0,0.0,90.0,2.0,64.0
1083,87.0,120.0,360.0,0.0,64.0
1084,56.0,240.0,90.0,8.0,64.0
1085,87.0,0.0,360.0,5.0,64.0
1086,63.0,0.0,90.0,7.0,64.0
1087,63.0,0.0,90.0,2.0,64.0
1088,44.0,0.0,90.0,10.0,64.0
1089,56.0,35.0,90.0,8.0,64.0
1090,63.0,0.0,90.0,7.0,64.0
1091,56.0,0.0,90.0,3.0,64.0
1092,44.0,0.0,90.0,4.0,64.0
1093,84.0,0.0,120.0,0.0,64.0
1094,84.0,85.0,120.0,5.0,64.0
1095,44.0,0.0,90.0,4.0,64.0
1096,72.0,0.0,90.0,7.0,64.0
1097,63.0,0.0,90.0,2.0,64.0
1098,72.0,0.0,90.0,2.0,64.0
1099,56.0,0.0,90.0,3.0,64.0
1100,78.0,160.0,390.0,5.0,64.0
1101,63.0,240.0,90.0,7.0,64.0
1102,56.0,0.0,90.0,8.0,64.0
1103,78.0,0.0,390.0,0.0,64.0
1104,44.0,0.0,90.0,10.0,64.0
1105,56.0,80.0,90.0,8.0,64.0
1106,44.0,0.0,90.0,10.0,64.0
1107,63.0,0.0,90.0,2.0,64.0
1108,63.0,0.0,90.0,7.0,64.0
1109,72.0,0.0,90.0,7.0,64.0
1110,56.0,0.0,90.0,3.0,64.0
1111,44.0,0.0,90.0,4.0,64.0
1112,72.0,0.0,90.0,2.0,64.0
1113,63.0,240.0,90.0,7.0,64.0
1114,56.0,0.0,90.0,3.0,64.0
1115,72.0,0.0,90.0,7.0,64.0
1116,44.0,0.0,90.0,4.0,64.0
1117,44.0,0.0,90.0,10.0,64.0
1118,75.0,0.0,360.0,0.0,64.0
1119,56.0,0.0,90.0,8.0,64.0
1120,75.0,120.0,360.0,5.0,64.0
1121,63.0,0.0,90.0,2.0,64.0
1122,72.0,0.0,90.0,2.0,64.0
1123,56.0,35.0,90.0,3.0,64.0
1124,63.0,0.0,90.0,7.0,64.0
1125,72.0,0.0,90.0,7.0,64.0
1126,63.0,0.0,90.0,2.0,64.0
1127,44.0,0.0,90.0,10.0,64.0
1128,44.0,0.0,90.0,4.0,64.0
1129,56.0,0.0,90.0,8.0,64.0
1130,72.0,0.0,90.0,2.0,64.0
1131,72.0,0.0,120.0,0.0,64.0
1132,72.0,85.0,120.0,5.0,64.0
1133,68.0,0.0,240.0,0.0,64.0
1134,56.0,0.0,90.0,8.0,64.0
1135,56.0,0.0,90.0,3.0,64.0
1136,72.0,0.0,90.0,2.0,64.0
1137,63.0,0.0,90.0,2.0,64.0
1138,44.0,0.0,90.0,4.0,64.0
1139,68.0,125.0,240.0,5.0,64.0
1140,63.0,155.0,90.0,7.0,64.0
1141,72.0,0.0,90.0,7.0,64.0
1142,44.0,0.0,90.0,10.0,64.0
1143,56.0,0.0,240.0,8.0,64.0
1144,72.0,0.0,120.0,6.0,64.0
1145,75.0,0.0,120.0,0.0,64.0
1146,72.0,120.0,120.0,1.0,64.0
1147,68.0,0.0,390.0,2.0,64.0
1148,44.0,0.0,240.0,10.0,64.0
1149,75.0,0.0,120.0,5.0,64.0
1150,68.0,160.0,390.0,7.0,64.0
1151,73.0,0.0,120.0,1.0,64.0
1152,77.0,0.0,120.0,5.0,64.0
1153,73.0,80.0,120.0,6.0,64.0
1154,77.0,0.0,120.0,0.0,64.0
1155,78.0,0.0,90.0,0.0,64.0
1156,75.0,0.0,90.0,1.0,64.0
1157,78.0,0.0,90.0,5.0,64.0
1158,75.0,0.0,90.0,6.0,64.0
1159,56.0,0.0,90.0,8.0,64.0
1160,44.0,0.0,15.0,4.0,64.0
1161,56.0,0.0,15.0,3.0,64.0
1162,44.0,0.0,90.0,10.0,64.0
1163,78.0,0.0,90.0,5.0,64.0
1164,48.0,0.0,90.0,10.0,64.0
1165,60.0,0.0,90.0,3.0,64.0
1166,68.0,0.0,480.0,2.0,64.0
1167,75.0,0.0,90.0,1.0,64.0
1168,68.0,85.0,480.0,7.0,64.0
1169,48.0,0.0,90.0,4.0,64.0
1170,60.0,240.0,90.0,8.0,64.0
1171,75.0,0.0,90.0,6.0,64.0
1172,78.0,0.0,90.0,0.0,64.0
1173,77.0,80.0,120.0,5.0,64.0
1174,73.0,40.0,390.0,6.0,64.0
1175,61.0,0.0,90.0,8.0,64.0
1176,61.0,0.0,90.0,3.0,64.0
1177,77.0,0.0,120.0,0.0,64.0
1178,49.0,40.0,90.0,4.0,64.0
1179,49.0,0.0,90.0,10.0,64.0
1180,73.0,0.0,390.0,1.0,64.0
1181,73.0,35.0,90.0,0.0,64.0
1182,73.0,0.0,90.0,5.0,64.0
1183,61.0,0.0,90.0,8.0,64.0
1184,75.0,0.0,90.0,0.0,64.0
1185,49.0,0.0,90.0,4.0,64.0
1186,68.0,0.0,390.0,2.0,64.0
1187,68.0,40.0,390.0,7.0,64.0
1188,61.0,80.0,90.0,3.0,64.0
1189,75.0,0.0,90.0,5.0,64.0
1190,49.0,0.0,90.0,10.0,64.0
1191,77.0,120.0,90.0,5.0,64.0
1192,77.0,0.0,90.0,0.0,64.0
1193,49.0,0.0,90.0,10.0,64.0
1194,78.0,0.0,90.0,0.0,64.0
1195,61.0,0.0,90.0,3.0,64.0
1196,49.0,80.0,90.0,4.0,64.0
1197,61.0,0.0,90.0,8.0,64.0
1198,78.0,0.0,90.0,5.0,64.0
1199,80.0,0.0,90.0,0.0,64.0
1200,80.0,120.0,90.0,5.0,64.0
1201,49.0,0.0,90.0,10.0,64.0
1202,68.0,0.0,390.0,2.0,64.0
1203,82.0,0.0,90.0,0.0,64.0
1204,49.0,120.0,90.0,4.0,64.0
1205,61.0,0.0,90.0,3.0,64.0
1206,82.0,0.0,90.0,5.0,64.0
1207,68.0,40.0,390.0,7.0,64.0
1208,61.0,0.0,90.0,8.0,64.0
1209,84.0,0.0,90.0,5.0,64.0
1210,84.0,120.0,90.0,0.0,64.0
1211,53.0,0.0,90.0,4.0,64.0
1212,85.0,80.0,90.0,5.0,64.0
1213,65.0,0.0,90.0,8.0,64.0
1214,85.0,0.0,90.0,0.0,64.0
1215,65.0,0.0,90.0,3.0,64.0
1216,53.0,0.0,90.0,10.0,64.0
1217,87.0,120.0,90.0,0.0,64.0
1218,87.0,0.0,90.0,5.0,64.0
1219,68.0,0.0,390.0,2.0,64.0
1220,65.0,0.0,90.0,8.0,64.0
1221,89.0,0.0,90.0,5.0,64.0
1222,89.0,120.0,90.0,0.0,64.0
1223,53.0,0.0,90.0,10.0,64.0
1224,53.0,0.0,90.0,4.0,64.0
1225,65.0,0.0,90.0,3.0,64.0
1226,68.0,40.0,390.0,7.0,64.0
1227,87.0,0.0,90.0,0.0,64.0
1228,87.0,120.0,90.0,5.0,64.0
1229,53.0,80.0,90.0,10.0,64.0
1230,53.0,0.0,90.0,4.0,64.0
1231,65.0,0.0,90.0,3.0,64.0
1232,65.0,0.0,90.0,8.0,64.0
1233,85.0,0.0,90.0,0.0,64.0
1234,85.0,0.0,90.0,5.0,64.0
1235,84.0,0.0,90.0,0.0,64.0
1236,84.0,120.0,90.0,5.0,64.0
1237,53.0,0.0,90.0,4.0,64.0
1238,65.0,0.0,90.0,3.0,64.0
1239,82.0,120.0,90.0,5.0,64.0
1240,65.0,0.0,90.0,8.0,64.0
1241,68.0,85.0,480.0,7.0,64.0
1242,82.0,0.0,90.0,0.0,64.0
1243,53.0,0.0,90.0,10.0,64.0
1244,68.0,0.0,480.0,2.0,64.0
1245,80.0,0.0,90.0,0.0,64.0
1246,80.0,120.0,90.0,5.0,64.0
1247,51.0,0.0,90.0,4.0,64.0
1248,63.0,0.0,90.0,3.0,64.0
1249,63.0,0.0,90.0,8.0,64.0
1250,51.0,40.0,90.0,10.0,64.0
1251,78.0,0.0,120.0,0.0,64.0
1252,78.0,80.0,120.0,5.0,64.0
1253,75.0,0.0,90.0,0.0,64.0
1254,75.0,35.0,90.0,5.0,64.0
1255,63.0,0.0,90.0,8.0,64.0
1256,68.0,0.0,390.0,2.0,64.0
1257,68.0,40.0,390.0,7.0,64.0
1258,51.0,0.0,90.0,10.0,64.0
1259,63.0,0.0,90.0,3.0,64.0
1260,77.0,0.0,90.0,0.0,64.0
1261,77.0,120.0,90.0,5.0,64.0
1262,51.0,0.0,90.0,4.0,64.0
1263,78.0,120.0,90.0,5.0,64.0
1264,78.0,0.0,90.0,0.0,64.0
1265,51.0,0.0,90.0,4.0,64.0
1266,80.0,0.0,90.0,5.0,64.0
1267,51.0,0.0,90.0,10.0,64.0
1268,80.0,0.0,90.0,0.0,64.0
1269,63.0,0.0,90.0,3.0,64.0
1270,63.0,80.0,90.0,8.0,64.0
1271,82.0,120.0,90.0,5.0,64.0
1272,82.0,0.0,90.0,0.0,64.0
1273,63.0,0.0,90.0,3.0,64.0
1274,51.0,120.0,90.0,4.0,64.0
1275,68.0,40.0,390.0,7.0,64.0
1276,68.0,0.0,390.0,2.0,64.0
1277,84.0,0.0,90.0,5.0,64.0
1278,51.0,0.0,90.0,10.0,64.0
1279,84.0,0.0,90.0,0.0,64.0
1280,63.0,0.0,90.0,8.0,64.0
1281,85.0,120.0,90.0,0.0,64.0
1282,85.0,0.0,90.0,5.0,64.0
1283,87.0,80.0,90.0,5.0,64.0
1284,60.0,0.0,90.0,3.0,64.0
1285,48.0,0.0,90.0,4.0,64.0
1286,87.0,0.0,90.0,0.0,64.0
1287,60.0,0.0,90.0,8.0,64.0
1288,48.0,0.0,90.0,10.0,64.0
1289,85.0,0.0,90.0,0.0,64.0
1290,85.0,120.0,90.0,5.0,64.0
1291,68.0,0.0,390.0,2.0,64.0
1292,48.0,0.0,90.0,4.0,64.0
1293,84.0,0.0,90.0,0.0,64.0
1294,48.0,120.0,90.0,10.0,64.0
1295,60.0,0.0,90.0,3.0,64.0
1296,68.0,40.0,390.0,7.0,64.0
1297,60.0,0.0,90.0,8.0,64.0
1298,84.0,0.0,90.0,5.0,64.0
1299,85.0,0.0,90.0,0.0,64.0
1300,85.0,120.0,90.0,5.0,64.0
1301,84.0,0.0,90.0,0.0,64.0
1302,60.0,0.0,90.0,3.0,64.0
1303,48.0,0.0,90.0,4.0,64.0
1304,84.0,0.0,90.0,5.0,64.0
1305,60.0,0.0,90.0,8.0,64.0
1306,48.0,80.0,90.0,10.0,64.0
1307,82.0,0.0,90.0,5.0,64.0
1308,82.0,120.0,90.0,0.0,64.0
1309,68.0,0.0,90.0,2.0,64.0
1310,80.0,0.0,90.0,5.0,64.0
1311,48.0,0.0,90.0,10.0,64.0
1312,60.0,0.0,90.0,3.0,64.0
1313,68.0,0.0,90.0,7.0,64.0
1314,80.0,0.0,90.0,0.0,64.0
1315,48.0,120.0,90.0,4.0,64.0
1316,60.0,0.0,90.0,8.0,64.0
1317,78.0,120.0,90.0,0.0,64.0
1318,78.0,0.0,90.0,5.0,64.0
1319,77.0,0.0,120.0,5.0,64.0
1320,68.0,40.0,390.0,7.0,64.0
1321,77.0,85.0,120.0,0.0,64.0
1322,49.0,35.0,90.0,4.0,64.0
1323,49.0,0.0,90.0,10.0,64.0
1324,68.0,0.0,390.0,2.0,64.0
1325,61.0,0.0,90.0,3.0,64.0
1326,61.0,0.0,90.0,8.0,64.0
1327,73.0,0.0,90.0,1.0,64.0
1328,73.0,120.0,90.0,6.0,64.0
1329,49.0,0.0,90.0,10.0,64.0
1330,61.0,0.0,90.0,3.0,64.0
1331,49.0,0.0,90.0,4.0,64.0
1332,75.0,0.0,90.0,6.0,64.0
1333,75.0,0.0,90.0,1.0,64.0
1334,61.0,80.0,90.0,8.0,64.0
1335,77.0,120.0,90.0,1.0,64.0
1336,77.0,0.0,90.0,6.0,64.0
1337,49.0,0.0,90.0,10.0,64.0
1338,78.0,120.0,90.0,6.0,64.0
1339,80.0,0.0,3450.0,5.0,64.0
1340,61.0,0.0,90.0,8.0,64.0
1341,80.0,240.0,3450.0,0.0,64.0
1342,78.0,0.0,90.0,1.0,64.0
1343,61.0,0.0,90.0,3.0,64.0
1344,49.0,0.0,90.0,4.0,64.0
1345,80.0,120.0,90.0,6.0,64.0
1346,80.0,0.0,90.0,1.0,64.0
1347,61.0,120.0,90.0,3.0,64.0
1348,82.0,0.0,90.0,1.0,64.0
1349,49.0,0.0,90.0,10.0,64.0
1350,49.0,0.0,90.0,4.0,64.0
1351,61.0,0.0,90.0,8.0,64.0
1352,82.0,0.0,90.0,6.0,64.0
1353,84.0,0.0,90.0,1.0,64.0
1354,84.0,120.0,90.0,6.0,64.0
1355,85.0,0.0,90.0,1.0,64.0
1356,65.0,0.0,90.0,3.0,64.0
1357,85.0,0.0,90.0,6.0,64.0
1358,53.0,0.0,90.0,4.0,64.0
1359,53.0,0.0,90.0,10.0,64.0
1360,65.0,120.0,90.0,8.0,64.0
1361,87.0,0.0,90.0,6.0,64.0
1362,87.0,120.0,90.0,1.0,64.0
1363,65.0,0.0,90.0,8.0,64.0
1364,53.0,0.0,90.0,4.0,64.0
1365,53.0,0.0,90.0,10.0,64.0
1366,89.0,0.0,90.0,6.0,64.0
1367,65.0,120.0,90.0,3.0,64.0
1368,89.0,0.0,90.0,1.0,64.0
1369,87.0,120.0,90.0,1.0,64.0
1370,87.0,0.0,90.0,6.0,64.0
1371,85.0,0.0,90.0,6.0,64.0
1372,65.0,0.0,90.0,8.0,64.0
1373,53.0,0.0,90.0,4.0,64.0
1374,65.0,120.0,90.0,3.0,64.0
1375,85.0,0.0,90.0,1.0,64.0
1376,53.0,0.0,90.0,10.0,64.0
1377,84.0,0.0,90.0,6.0,64.0
1378,84.0,120.0,90.0,1.0,64.0
1379,65.0,0.0,90.0,3.0,64.0
1380,65.0,0.0,90.0,8.0,64.0
1381,53.0,0.0,90.0,4.0,64.0
1382,53.0,0.0,90.0,10.0,64.0
1383,82.0,120.0,90.0,6.0,64.0
1384,82.0,0.0,90.0,1.0,64.0
1385,80.0,0.0,90.0,1.0,64.0
1386,80.0,120.0,90.0,6.0,64.0
1387,78.0,0.0,90.0,6.0,64.0
1388,51.0,0.0,90.0,4.0,64.0
1389,63.0,0.0,90.0,8.0,64.0
1390,63.0,0.0,90.0,3.0,64.0
1391,72.0,80.0,1920.0,2.0,64.0
1392,51.0,120.0,90.0,10.0,64.0
1393,78.0,0.0,90.0,1.0,64.0
1394,72.0,0.0,1920.0,7.0,64.0
1395,75.0,120.0,90.0,1.0,64.0
1396,75.0,0.0,90.0,6.0,64.0
1397,51.0,0.0,90.0,10.0,64.0
1398,51.0,120.0,90.0,4.0,64.0
1399,63.0,0.0,90.0,8.0,64.0
1400,77.0,0.0,90.0,1.0,64.0
1401,63.0,0.0,90.0,3.0,64.0
1402,77.0,0.0,90.0,6.0,64.0
1403,78.0,0.0,90.0,6.0,64.0
1404,78.0,120.0,90.0,1.0,64.0
1405,63.0,0.0,90.0,3.0,64.0
1406,63.0,0.0,90.0,8.0,64.0
1407,51.0,0.0,90.0,10.0,64.0
1408,51.0,0.0,90.0,4.0,64.0
1409,80.0,0.0,90.0,6.0,64.0
1410,80.0,120.0,90.0,1.0,64.0
1411,82.0,120.0,90.0,1.0,64.0
1412,82.0,0.0,90.0,6.0,64.0
1413,63.0,0.0,90.0,3.0,64.0
1414,84.0,120.0,90.0,6.0,64.0
1415,51.0,0.0,90.0,10.0,64.0
1416,63.0,0.0,90.0,8.0,64.0
1417,51.0,0.0,90.0,4.0,64.0
1418,84.0,0.0,90.0,1.0,64.0
1419,85.0,0.0,90.0,1.0,64.0
1420,85.0,120.0,90.0,6.0,64.0
1421,87.0,0.0,90.0,6.0,64.0
1422,56.0,0.0,90.0,8.0,64.0
1423,87.0,0.0,90.0,1.0,64.0
1424,44.0,0.0,90.0,4.0,64.0
1425,56.0,0.0,90.0,3.0,64.0
1426,44.0,120.0,90.0,10.0,64.0
1427,85.0,0.0,90.0,1.0,64.0
1428,85.0,120.0,90.0,6.0,64.0
1429,84.0,0.0,90.0,6.0,64.0
1430,56.0,0.0,90.0,3.0,64.0
1431,44.0,120.0,90.0,4.0,64.0
1432,44.0,0.0,90.0,10.0,64.0
1433,84.0,0.0,90.0,1.0,64.0
1434,56.0,0.0,90.0,8.0,64.0
1435,85.0,120.0,90.0,6.0,64.0
1436,85.0,0.0,90.0,1.0,64.0
1437,84.0,120.0,90.0,6.0,64.0
1438,44.0,0.0,90.0,4.0,64.0
1439,44.0,0.0,90.0,10.0,64.0
1440,84.0,0.0,90.0,1.0,64.0
1441,56.0,0.0,90.0,8.0,64.0
1442,56.0,0.0,90.0,3.0,64.0
1443,82.0,120.0,90.0,1.0,64.0
1444,82.0,0.0,90.0,6.0,64.0
1445,56.0,0.0,90.0,3.0,64.0
1446,44.0,0.0,90.0,4.0,64.0
1447,44.0,0.0,90.0,10.0,64.0
1448,80.0,120.0,90.0,6.0,64.0
1449,56.0,0.0,90.0,8.0,64.0
1450,80.0,0.0,90.0,1.0,64.0
1451,78.0,0.0,90.0,6.0,64.0
1452,78.0,40.0,90.0,1.0,64.0
1453,49.0,0.0,390.0,3.0,64.0
1454,37.0,160.0,390.0,4.0,64.0
1455,49.0,0.0,390.0,8.0,64.0
1456,37.0,0.0,390.0,10.0,64.0
1457,77.0,0.0,90.0,6.0,64.0
1458,73.0,0.0,390.0,7.0,64.0
1459,73.0,0.0,390.0,2.0,64.0
1460,77.0,0.0,90.0,1.0,64.0
1461,85.0,0.0,90.0,6.0,64.0
1462,85.0,80.0,90.0,1.0,64.0
1463,73.0,220.0,90.0,6.0,64.0
1464,73.0,0.0,90.0,1.0,64.0
1465,75.0,60.0,60.0,1.0,64.0
1466,75.0,0.0,60.0,6.0,64.0
1467,77.0,60.0,60.0,1.0,64.0
1468,77.0,0.0,60.0,6.0,64.0
1469,75.0,0.0,60.0,6.0,64.0
1470,75.0,60.0,60.0,1.0,64.0
1471,77.0,0.0,15.0,6.0,64.0
1472,77.0,80.0,15.0,1.0,64.0
1473,85.0,0.0,90.0,0.0,64.0
1474,85.0,0.0,90.0,5.0,64.0
1475,85.0,240.0,90.0,1.0,64.0
1476,85.0,0.0,90.0,6.0,64.0
1477,73.0,0.0,90.0,0.0,64.0
1478,73.0,220.0,90.0,5.0,64.0
1479,77.0,0.0,90.0,6.0,64.0
1480,77.0,0.0,90.0,1.0,64.0
1481,78.0,0.0,60.0,1.0,64.0
1482,75.0,0.0,60.0,0.0,64.0
1483,78.0,60.0,60.0,6.0,64.0
1484,75.0,0.0,60.0,5.0,64.0
1485,77.0,60.0,60.0,0.0,64.0
1486,77.0,0.0,60.0,5.0,64.0
1487,80.0,0.0,60.0,1.0,64.0
1488,80.0,0.0,60.0,6.0,64.0
1489,78.0,0.0,60.0,6.0,64.0
1490,75.0,0.0,60.0,5.0,64.0
1491,78.0,55.0,60.0,1.0,64.0
1492,75.0,0.0,60.0,0.0,64.0
1493,80.0,80.0,60.0,1.0,64.0
1494,80.0,0.0,60.0,6.0,64.0
1495,77.0,5.0,60.0,5.0,64.0
1496,77.0,0.0,60.0,0.0,64.0
1497,77.0,0.0,90.0,1.0,64.0
1498,77.0,0.0,90.0,5.0,64.0
1499,77.0,0.0,90.0,0.0,64.0
1500,77.0,240.0,90.0,6.0,64.0
1501,73.0,240.0,90.0,7.0,64.0
1502,85.0,55.0,480.0,6.0,64.0
1503,77.0,0.0,90.0,0.0,64.0
1504,77.0,0.0,90.0,5.0,64.0
1505,73.0,0.0,90.0,2.0,64.0
1506,85.0,0.0,480.0,1.0,64.0
1507,61.0,160.0,90.0,2.0,64.0
1508,80.0,0.0,90.0,5.0,64.0
1509,80.0,0.0,90.0,0.0,64.0
1510,61.0,0.0,90.0,7.0,64.0
1511,78.0,40.0,90.0,5.0,64.0
1512,63.0,0.0,60.0,2.0,64.0
1513,63.0,25.0,60.0,7.0,64.0
1514,78.0,0.0,90.0,0.0,64.0
1515,84.0,0.0,240.0,6.0,64.0
1516,84.0,5.0,240.0,1.0,64.0
1517,65.0,0.0,60.0,7.0,64.0
1518,65.0,60.0,60.0,2.0,64.0
1519,63.0,0.0,60.0,7.0,64.0
1520,63.0,55.0,60.0,2.0,64.0
1521,65.0,0.0,60.0,2.0,64.0
1522,65.0,80.0,60.0,7.0,64.0
1523,80.0,0.0,90.0,5.0,64.0
1524,85.0,240.0,90.0,1.0,64.0
1525,85.0,0.0,90.0,6.0,64.0
1526,80.0,0.0,90.0,0.0,64.0
1527,65.0,0.0,90.0,7.0,64.0
1528,65.0,0.0,90.0,2.0,64.0
1529,61.0,0.0,90.0,3.0,64.0
1530,89.0,120.0,90.0,0.0,64.0
1531,49.0,0.0,90.0,4.0,64.0
1532,49.0,0.0,90.0,10.0,64.0
1533,68.0,0.0,480.0,7.0,64.0
1534,89.0,0.0,90.0,5.0,64.0
1535,80.0,80.0,240.0,6.0,64.0
1536,80.0,0.0,240.0,1.0,64.0
1537,68.0,60.0,480.0,2.0,64.0
1538,61.0,0.0,90.0,8.0,64.0
1539,85.0,0.0,90.0,0.0,64.0
1540,85.0,40.0,90.0,5.0,64.0
1541,80.0,0.0,90.0,5.0,64.0
1542,49.0,0.0,90.0,8.0,64.0
1543,37.0,0.0,90.0,4.0,64.0
1544,49.0,0.0,90.0,3.0,64.0
1545,77.0,0.0,240.0,6.0,64.0
1546,37.0,0.0,90.0,10.0,64.0
1547,80.0,160.0,90.0,0.0,64.0
1548,77.0,0.0,240.0,1.0,64.0
1549,75.0,0.0,240.0,1.0,64.0
1550,39.0,0.0,60.0,4.0,64.0
1551,72.0,5.0,240.0,7.0,64.0
1552,39.0,0.0,60.0,10.0,64.0
1553,51.0,20.0,60.0,8.0,64.0
1554,51.0,0.0,60.0,3.0,64.0
1555,72.0,0.0,240.0,2.0,64.0
1556,75.0,0.0,240.0,6.0,64.0
1557,78.0,40.0,90.0,5.0,64.0
1558,78.0,0.0,90.0,0.0,64.0
1559,41.0,60.0,60.0,4.0,64.0
1560,41.0,0.0,60.0,10.0,64.0
1561,53.0,0.0,60.0,3.0,64.0
1562,53.0,0.0,60.0,8.0,64.0
1563,51.0,55.0,60.0,8.0,64.0
1564,51.0,0.0,60.0,3.0,64.0
1565,39.0,0.0,60.0,10.0,64.0
1566,39.0,0.0,60.0,4.0,64.0
1567,53.0,0.0,60.0,3.0,64.0
1568,73.0,160.0,390.0,7.0,64.0
1569,73.0,240.0,90.0,6.0,64.0
1570,53.0,80.0,15.0,8.0,64.0
1571,77.0,0.0,90.0,5.0,64.0
1572,41.0,0.0,15.0,10.0,64.0
1573,77.0,0.0,90.0,0.0,64.0
1574,41.0,0.0,15.0,4.0,64.0
1575,73.0,0.0,90.0,1.0,64.0
1576,53.0,0.0,90.0,3.0,64.0
1577,73.0,0.0,390.0,2.0,64.0
1578,80.0,0.0,90.0,5.0,64.0
1579,41.0,0.0,90.0,10.0,64.0
1580,80.0,0.0,90.0,0.0,64.0
1581,77.0,160.0,390.0,6.0,64.0
1582,41.0,0.0,90.0,4.0,64.0
1583,53.0,0.0,90.0,8.0,64.0
1584,77.0,0.0,390.0,1.0,64.0
1585,53.0,80.0,90.0,3.0,64.0
1586,41.0,0.0,90.0,4.0,64.0
1587,53.0,0.0,90.0,8.0,64.0
1588,85.0,0.0,630.0,0.0,64.0
1589,53.0,0.0,90.0,3.0,64.0
1590,85.0,160.0,630.0,5.0,64.0
1591,41.0,80.0,90.0,10.0,64.0
1592,53.0,0.0,90.0,8.0,64.0
1593,53.0,0.0,90.0,3.0,64.0
1594,73.0,0.0,390.0,2.0,64.0
1595,73.0,0.0,390.0,7.0,64.0
1596,80.0,0.0,390.0,6.0,64.0
1597,41.0,240.0,90.0,4.0,64.0
1598,80.0,0.0,390.0,1.0,64.0
1599,41.0,0.0,90.0,10.0,64.0
1600,53.0,0.0,90.0,3.0,64.0
1601,41.0,0.0,90.0,4.0,64.0
1602,53.0,0.0,90.0,8.0,64.0
1603,41.0,80.0,90.0,10.0,64.0
1604,73.0,0.0,390.0,1.0,64.0
1605,53.0,160.0,90.0,3.0,64.0
1606,53.0,0.0,90.0,8.0,64.0
1607,41.0,0.0,90.0,10.0,64.0
1608,83.0,0.0,240.0,0.0,64.0
1609,73.0,80.0,390.0,6.0,64.0
1610,41.0,0.0,90.0,4.0,64.0
1611,83.0,0.0,240.0,5.0,64.0
1612,68.0,80.0,240.0,7.0,64.0
1613,68.0,0.0,240.0,2.0,64.0
1614,82.0,80.0,240.0,5.0,64.0
1615,53.0,0.0,90.0,3.0,64.0
1616,41.0,0.0,90.0,10.0,64.0
1617,66.0,0.0,240.0,2.0,64.0
1618,82.0,0.0,240.0,0.0,64.0
1619,66.0,0.0,240.0,7.0,64.0
1620,41.0,0.0,90.0,4.0,64.0
1621,53.0,80.0,90.0,8.0,64.0
1622,53.0,0.0,90.0,8.0,64.0
1623,53.0,0.0,90.0,3.0,64.0
1624,73.0,0.0,240.0,6.0,64.0
1625,65.0,0.0,240.0,2.0,64.0
1626,41.0,155.0,90.0,10.0,64.0
1627,41.0,0.0,90.0,4.0,64.0
1628,65.0,0.0,240.0,7.0,64.0
1629,81.0,0.0,240.0,5.0,64.0
1630,73.0,5.0,240.0,1.0,64.0
1631,54.0,40.0,90.0,3.0,64.0
1632,73.0,0.0,240.0,6.0,64.0
1633,66.0,85.0,240.0,7.0,64.0
1634,73.0,0.0,240.0,1.0,64.0
1635,81.0,0.0,120.0,5.0,64.0
1636,54.0,0.0,90.0,8.0,64.0
1637,66.0,0.0,240.0,2.0,64.0
1638,42.0,0.0,90.0,4.0,64.0
1639,42.0,0.0,90.0,10.0,64.0
1640,81.0,80.0,15.0,0.0,64.0
1641,82.0,0.0,750.0,5.0,64.0
1642,82.0,75.0,750.0,0.0,64.0
1643,54.0,0.0,90.0,3.0,64.0
1644,66.0,0.0,240.0,2.0,64.0
1645,42.0,155.0,90.0,10.0,64.0
1646,54.0,0.0,90.0,8.0,64.0
1647,73.0,0.0,240.0,6.0,64.0
1648,73.0,85.0,240.0,1.0,64.0
1649,42.0,0.0,90.0,4.0,64.0
1650,66.0,0.0,240.0,7.0,64.0
1651,42.0,0.0,90.0,4.0,64.0
1652,54.0,0.0,90.0,8.0,64.0
1653,66.0,0.0,240.0,7.0,64.0
1654,42.0,0.0,90.0,10.0,64.0
1655,73.0,0.0,240.0,6.0,64.0
1656,54.0,155.0,90.0,3.0,64.0
1657,66.0,0.0,240.0,2.0,64.0
1658,73.0,85.0,240.0,1.0,64.0
1659,54.0,0.0,90.0,8.0,64.0
1660,66.0,0.0,240.0,7.0,64.0
1661,66.0,0.0,240.0,2.0,64.0
1662,73.0,85.0,240.0,1.0,64.0
1663,42.0,0.0,90.0,10.0,64.0
1664,54.0,80.0,90.0,3.0,64.0
1665,73.0,0.0,240.0,6.0,64.0
1666,42.0,0.0,90.0,4.0,64.0
1667,81.0,115.0,120.0,0.0,64.0
1668,81.0,0.0,120.0,5.0,64.0
1669,73.0,85.0,240.0,1.0,64.0
1670,73.0,0.0,240.0,6.0,64.0
1671,54.0,40.0,90.0,3.0,64.0
1672,66.0,0.0,240.0,2.0,64.0
1673,42.0,0.0,90.0,10.0,64.0
1674,54.0,0.0,90.0,8.0,64.0
1675,66.0,0.0,240.0,7.0,64.0
1676,42.0,0.0,90.0,4.0,64.0
1677,82.0,0.0,360.0,5.0,64.0
1678,82.0,0.0,360.0,0.0,64.0
1679,42.0,0.0,90.0,4.0,64.0
1680,73.0,85.0,240.0,1.0,64.0
1681,54.0,0.0,90.0,8.0,64.0
1682,54.0,0.0,90.0,3.0,64.0
1683,42.0,155.0,90.0,10.0,64.0
1684,66.0,0.0,240.0,2.0,64.0
1685,73.0,0.0,240.0,6.0,64.0
1686,66.0,0.0,240.0,7.0,64.0
1687,81.0,115.0,120.0,0.0,64.0
1688,54.0,40.0,90.0,8.0,64.0
1689,54.0,0.0,90.0,3.0,64.0
1690,73.0,0.0,240.0,6.0,64.0
1691,73.0,0.0,240.0,1.0,64.0
1692,42.0,0.0,90.0,4.0,64.0
1693,42.0,0.0,90.0,10.0,64.0
1694,81.0,0.0,120.0,5.0,64.0
1695,66.0,0.0,240.0,2.0,64.0
1696,66.0,85.0,240.0,7.0,64.0
1697,82.0,0.0,360.0,5.0,64.0
1698,82.0,0.0,360.0,0.0,64.0
1699,54.0,0.0,90.0,3.0,64.0
1700,66.0,0.0,240.0,2.0,64.0
1701,42.0,0.0,90.0,10.0,64.0
1702,54.0,155.0,90.0,8.0,64.0
1703,66.0,85.0,240.0,7.0,64.0
1704,73.0,0.0,240.0,6.0,64.0
1705,73.0,0.0,240.0,1.0,64.0
1706,42.0,0.0,90.0,4.0,64.0
1707,62.0,80.0,1920.0,5.0,64.0
1708,71.0,0.0,240.0,6.0,64.0
1709,56.0,0.0,90.0,8.0,64.0
1710,71.0,0.0,240.0,1.0,64.0
1711,44.0,0.0,90.0,10.0,64.0
1712,44.0,0.0,90.0,4.0,64.0
1713,56.0,155.0,90.0,3.0,64.0
1714,68.0,0.0,240.0,7.0,64.0
1715,68.0,85.0,240.0,2.0,64.0
1716,62.0,0.0,1920.0,0.0,64.0
1717,71.0,0.0,240.0,1.0,64.0
1718,65.0,0.0,240.0,7.0,64.0
1719,56.0,155.0,90.0,8.0,64.0
1720,56.0,0.0,90.0,3.0,64.0
1721,44.0,0.0,90.0,10.0,64.0
1722,65.0,0.0,240.0,2.0,64.0
1723,71.0,85.0,240.0,6.0,64.0
1724,44.0,0.0,90.0,4.0,64.0
1725,44.0,0.0,90.0,4.0,64.0
1726,65.0,85.0,240.0,2.0,64.0
1727,56.0,155.0,90.0,3.0,64.0
1728,65.0,0.0,240.0,7.0,64.0
1729,44.0,0.0,90.0,10.0,64.0
1730,56.0,0.0,90.0,8.0,64.0
1731,71.0,0.0,240.0,6.0,64.0
1732,71.0,0.0,240.0,1.0,64.0
1733,65.0,0.0,240.0,2.0,64.0
1734,65.0,0.0,240.0,7.0,64.0
1735,56.0,0.0,90.0,3.0,64.0
1736,56.0,0.0,90.0,8.0,64.0
1737,71.0,85.0,240.0,1.0,64.0
1738,44.0,0.0,90.0,4.0,64.0
1739,71.0,0.0,240.0,6.0,64.0
1740,44.0,155.0,90.0,10.0,64.0
1741,65.0,0.0,240.0,7.0,64.0
1742,44.0,155.0,90.0,4.0,64.0
1743,56.0,0.0,90.0,8.0,64.0
1744,71.0,0.0,240.0,1.0,64.0
1745,44.0,0.0,90.0,10.0,64.0
1746,71.0,85.0,240.0,6.0,64.0
1747,65.0,0.0,240.0,2.0,64.0
1748,56.0,0.0,90.0,3.0,64.0
1749,71.0,0.0,240.0,1.0,64.0
1750,65.0,85.0,240.0,7.0,64.0
1751,71.0,0.0,240.0,6.0,64.0
1752,56.0,155.0,90.0,3.0,64.0
1753,44.0,0.0,90.0,10.0,64.0
1754,56.0,0.0,90.0,8.0,64.0
1755,44.0,0.0,90.0,4.0,64.0
1756,65.0,0.0,240.0,2.0,64.0
1757,71.0,85.0,240.0,6.0,64.0
1758,65.0,0.0,240.0,7.0,64.0
1759,56.0,0.0,90.0,3.0,64.0
1760,56.0,0.0,90.0,8.0,64.0
1761,65.0,0.0,240.0,2.0,64.0
1762,44.0,155.0,90.0,4.0,64.0
1763,71.0,0.0,240.0,1.0,64.0
1764,44.0,0.0,90.0,10.0,64.0
1765,65.0,0.0,240.0,2.0,64.0
1766,71.0,0.0,240.0,6.0,64.0
1767,65.0,5.0,240.0,7.0,64.0
1768,44.0,0.0,90.0,10.0,64.0
1769,44.0,0.0,90.0,4.0,64.0
1770,56.0,155.0,90.0,8.0,64.0
1771,71.0,0.0,240.0,1.0,64.0
1772,56.0,0.0,90.0,3.0,64.0
1773,70.0,0.0,240.0,1.0,64.0
1774,66.0,0.0,240.0,7.0,64.0
1775,42.0,0.0,90.0,10.0,64.0
1776,54.0,0.0,90.0,8.0,64.0
1777,63.0,0.0,840.0,5.0,64.0
1778,54.0,155.0,90.0,3.0,64.0
1779,70.0,0.0,240.0,6.0,64.0
1780,66.0,85.0,240.0,2.0,64.0
1781,63.0,115.0,840.0,0.0,64.0
1782,42.0,0.0,90.0,4.0,64.0
1783,54.0,155.0,90.0,3.0,64.0
1784,42.0,0.0,90.0,10.0,64.0
1785,70.0,0.0,240.0,1.0,64.0
1786,42.0,0.0,90.0,4.0,64.0
1787,54.0,0.0,90.0,8.0,64.0
1788,70.0,0.0,240.0,6.0,64.0
1789,66.0,85.0,240.0,2.0,64.0
1790,66.0,0.0,240.0,7.0,64.0
1791,42.0,0.0,90.0,10.0,64.0
1792,66.0,0.0,240.0,2.0,64.0
1793,70.0,85.0,240.0,6.0,64.0
1794,54.0,0.0,90.0,8.0,64.0
1795,70.0,0.0,240.0,1.0,64.0
1796,66.0,0.0,240.0,7.0,64.0
1797,54.0,155.0,90.0,3.0,64.0
1798,42.0,0.0,90.0,4.0,64.0
1799,66.0,0.0,240.0,2.0,64.0
1800,70.0,0.0,240.0,6.0,64.0
1801,42.0,0.0,90.0,4.0,64.0
1802,66.0,85.0,240.0,7.0,64.0
1803,42.0,0.0,90.0,10.0,64.0
1804,70.0,0.0,240.0,1.0,64.0
1805,54.0,0.0,90.0,8.0,64.0
1806,54.0,40.0,90.0,3.0,64.0
1807,42.0,0.0,90.0,4.0,64.0
1808,66.0,0.0,240.0,2.0,64.0
1809,82.0,0.0,420.0,0.0,64.0
1810,63.0,0.0,240.0,6.0,64.0
1811,63.0,85.0,240.0,1.0,64.0
1812,54.0,0.0,90.0,3.0,64.0
1813,54.0,0.0,90.0,8.0,64.0
1814,42.0,155.0,90.0,10.0,64.0
1815,66.0,0.0,240.0,7.0,64.0
1816,82.0,55.0,420.0,5.0,64.0
1817,63.0,0.0,240.0,6.0,64.0
1818,54.0,0.0,90.0,8.0,64.0
1819,42.0,0.0,90.0,10.0,64.0
1820,66.0,85.0,240.0,2.0,64.0
1821,42.0,100.0,90.0,4.0,64.0
1822,66.0,0.0,240.0,7.0,64.0
1823,63.0,0.0,240.0,1.0,64.0
1824,54.0,0.0,90.0,3.0,64.0
1825,54.0,0.0,90.0,8.0,64.0
1826,84.0,0.0,420.0,0.0,64.0
1827,68.0,0.0,240.0,1.0,64.0
1828,63.0,0.0,240.0,2.0,64.0
1829,42.0,155.0,90.0,10.0,64.0
1830,42.0,0.0,90.0,4.0,64.0
1831,84.0,55.0,420.0,5.0,64.0
1832,63.0,85.0,240.0,7.0,64.0
1833,68.0,0.0,240.0,6.0,64.0
1834,54.0,0.0,90.0,3.0,64.0
1835,54.0,0.0,90.0,8.0,64.0
1836,63.0,0.0,240.0,7.0,64.0
1837,68.0,245.0,240.0,6.0,64.0
1838,63.0,0.0,240.0,2.0,64.0
1839,42.0,0.0,90.0,4.0,64.0
1840,42.0,0.0,90.0,10.0,64.0
1841,68.0,0.0,240.0,1.0,64.0
1842,54.0,100.0,90.0,3.0,64.0
1843,68.0,0.0,240.0,6.0,64.0
1844,53.0,0.0,240.0,8.0,64.0
1845,65.0,80.0,240.0,7.0,64.0
1846,85.0,85.0,1080.0,5.0,64.0
1847,65.0,0.0,240.0,2.0,64.0
1848,85.0,0.0,1080.0,0.0,64.0
1849,41.0,0.0,240.0,10.0,64.0
1850,41.0,0.0,240.0,4.0,64.0
1851,68.0,0.0,240.0,1.0,64.0
1852,53.0,0.0,90.0,8.0,64.0
1853,41.0,240.0,90.0,4.0,64.0
1854,73.0,0.0,90.0,6.0,64.0
1855,68.0,0.0,90.0,2.0,64.0
1856,53.0,0.0,15.0,3.0,64.0
1857,41.0,0.0,90.0,10.0,64.0
1858,73.0,0.0,90.0,1.0,64.0
1859,68.0,0.0,90.0,7.0,64.0
1860,53.0,0.0,90.0,8.0,64.0
1861,68.0,0.0,90.0,2.0,64.0
1862,73.0,0.0,90.0,1.0,64.0
1863,41.0,0.0,90.0,10.0,64.0
1864,41.0,0.0,90.0,4.0,64.0
1865,73.0,0.0,90.0,6.0,64.0
1866,68.0,0.0,90.0,7.0,64.0
1867,53.0,240.0,90.0,3.0,64.0
1868,41.0,0.0,90.0,10.0,64.0
1869,73.0,0.0,90.0,1.0,64.0
1870,68.0,0.0,90.0,2.0,64.0
1871,68.0,0.0,90.0,7.0,64.0
1872,53.0,275.0,90.0,8.0,64.0
1873,53.0,0.0,90.0,3.0,64.0
1874,41.0,0.0,90.0,4.0,64.0
1875,73.0,0.0,90.0,6.0,64.0
1876,73.0,40.0,390.0,6.0,64.0
1877,53.0,0.0,390.0,8.0,64.0
1878,53.0,0.0,390.0,3.0,64.0
1879,68.0,0.0,390.0,7.0,64.0
1880,41.0,0.0,390.0,10.0,64.0
1881,68.0,0.0,390.0,2.0,64.0
1882,73.0,0.0,390.0,1.0,64.0
1883,41.0,0.0,390.0,4.0,64.0
1884,84.0,120.0,90.0,0.0,64.0
1885,84.0,0.0,90.0,5.0,64.0
1886,82.0,0.0,90.0,5.0,64.0
1887,82.0,80.0,90.0,0.0,64.0
1888,80.0,0.0,90.0,0.0,64.0
1889,80.0,120.0,90.0,5.0,64.0
1890,78.0,120.0,90.0,0.0,64.0
1891,78.0,0.0,90.0,5.0,64.0
1892,77.0,0.0,90.0,5.0,64.0
1893,77.0,120.0,90.0,0.0,64.0
1894,75.0,0.0,90.0,5.0,64.0
1895,75.0,120.0,90.0,0.0,64.0
1896,73.0,0.0,90.0,5.0,64.0
1897,73.0,280.0,90.0,0.0,64.0
1898,85.0,0.0,1080.0,5.0,64.0
1899,54.0,0.0,240.0,3.0,64.0
1900,85.0,85.0,1080.0,0.0,64.0
1901,54.0,0.0,240.0,8.0,64.0
1902,70.0,0.0,240.0,1.0,64.0
1903,70.0,0.0,240.0,6.0,64.0
1904,61.0,80.0,240.0,2.0,64.0
1905,61.0,0.0,240.0,7.0,64.0
1906,73.0,0.0,90.0,6.0,64.0
1907,73.0,0.0,90.0,1.0,64.0
1908,42.0,0.0,15.0,10.0,64.0
1909,42.0,0.0,15.0,4.0,64.0
1910,70.0,0.0,90.0,2.0,64.0
1911,54.0,0.0,90.0,3.0,64.0
1912,54.0,240.0,90.0,8.0,64.0
1913,70.0,0.0,90.0,7.0,64.0
1914,42.0,0.0,90.0,4.0,64.0
1915,54.0,0.0,90.0,8.0,64.0
1916,73.0,240.0,90.0,6.0,64.0
1917,70.0,0.0,90.0,7.0,64.0
1918,70.0,0.0,90.0,2.0,64.0
1919,42.0,0.0,90.0,10.0,64.0
1920,73.0,0.0,90.0,1.0,64.0
1921,54.0,0.0,90.0,3.0,64.0
1922,42.0,0.0,90.0,10.0,64.0
1923,73.0,0.0,90.0,1.0,64.0
1924,54.0,0.0,90.0,8.0,64.0
1925,70.0,0.0,90.0,7.0,64.0
1926,73.0,275.0,90.0,6.0,64.0
1927,54.0,0.0,90.0,3.0,64.0
1928,70.0,0.0,90.0,2.0,64.0
1929,42.0,0.0,90.0,4.0,64.0
1930,70.0,40.0,390.0,7.0,64.0
1931,73.0,0.0,390.0,1.0,64.0
1932,54.0,0.0,390.0,3.0,64.0
1933,42.0,0.0,390.0,10.0,64.0
1934,54.0,0.0,390.0,8.0,64.0
1935,70.0,0.0,390.0,2.0,64.0
1936,42.0,0.0,390.0,4.0,64.0
1937,73.0,0.0,390.0,6.0,64.0
1938,84.0,0.0,90.0,0.0,64.0
1939,84.0,120.0,90.0,5.0,64.0
1940,82.0,80.0,90.0,5.0,64.0
1941,82.0,0.0,90.0,0.0,64.0
1942,80.0,0.0,90.0,5.0,64.0
1943,80.0,120.0,90.0,0.0,64.0
1944,78.0,0.0,90.0,5.0,64.0
1945,78.0,120.0,90.0,0.0,64.0
1946,77.0,0.0,90.0,5.0,64.0
1947,77.0,120.0,90.0,0.0,64.0
1948,75.0,120.0,90.0,0.0,64.0
1949,75.0,0.0,90.0,5.0,64.0
1950,73.0,0.0,90.0,0.0,64.0
1951,73.0,280.0,90.0,5.0,64.0
1952,85.0,0.0,1080.0,0.0,64.0
1953,56.0,0.0,240.0,8.0,64.0
1954,44.0,0.0,240.0,10.0,64.0
1955,61.0,0.0,240.0,2.0,64.0
1956,65.0,0.0,240.0,6.0,64.0
1957,61.0,0.0,240.0,7.0,64.0
1958,85.0,85.0,1080.0,5.0,64.0
1959,65.0,0.0,240.0,1.0,64.0
1960,56.0,0.0,240.0,3.0,64.0
1961,73.0,0.0,90.0,1.0,64.0
1962,56.0,0.0,90.0,3.0,64.0
1963,65.0,0.0,90.0,7.0,64.0
1964,56.0,240.0,90.0,8.0,64.0
1965,73.0,0.0,90.0,6.0,64.0
1966,44.0,0.0,90.0,10.0,64.0
1967,44.0,80.0,15.0,4.0,64.0
1968,65.0,0.0,90.0,2.0,64.0
1969,44.0,0.0,90.0,4.0,64.0
1970,65.0,0.0,90.0,7.0,64.0
1971,73.0,0.0,90.0,6.0,64.0
1972,56.0,240.0,90.0,3.0,64.0
1973,65.0,0.0,90.0,2.0,64.0
1974,73.0,0.0,90.0,1.0,64.0
1975,44.0,0.0,90.0,10.0,64.0
1976,56.0,0.0,90.0,8.0,64.0
1977,65.0,0.0,90.0,7.0,64.0
1978,73.0,0.0,90.0,6.0,64.0
1979,56.0,0.0,90.0,8.0,64.0
1980,65.0,0.0,90.0,2.0,64.0
1981,73.0,0.0,90.0,1.0,64.0
1982,44.0,275.0,90.0,4.0,64.0
1983,56.0,0.0,90.0,3.0,64.0
1984,44.0,0.0,90.0,10.0,64.0
1985,44.0,0.0,390.0,10.0,64.0
1986,65.0,0.0,390.0,7.0,64.0
1987,73.0,0.0,390.0,1.0,64.0
1988,56.0,40.0,390.0,8.0,64.0
1989,73.0,0.0,390.0,6.0,64.0
1990,65.0,0.0,390.0,2.0,64.0
1991,44.0,0.0,390.0,4.0,64.0
1992,56.0,0.0,390.0,3.0,64.0
1993,84.0,120.0,90.0,0.0,64.0
1994,84.0,0.0,90.0,5.0,64.0
1995,82.0,0.0,90.0,0.0,64.0
1996,82.0,80.0,90.0,5.0,64.0
1997,80.0,0.0,90.0,5.0,64.0
1998,80.0,120.0,90.0,0.0,64.0
1999,78.0,0.0,90.0,0.0,64.0
2000,78.0,120.0,90.0,5.0,64.0
2001,77.0,0.0,90.0,0.0,64.0
2002,77.0,120.0,90.0,5.0,64.0
2003,75.0,120.0,90.0,0.0,64.0
2004,75.0,0.0,90.0,5.0,64.0
2005,73.0,120.0,90.0,0.0,64.0
2006,73.0,0.0,90.0,5.0,64.0
2007,66.0,40.0,390.0,7.0,64.0
2008,85.0,0.0,90.0,0.0,64.0
2009,58.0,0.0,390.0,8.0,64.0
2010,46.0,0.0,390.0,10.0,64.0
2011,73.0,0.0,390.0,6.0,64.0
2012,66.0,0.0,390.0,2.0,64.0
2013,73.0,0.0,390.0,1.0,64.0
2014,58.0,0.0,390.0,3.0,64.0
2015,46.0,0.0,390.0,4.0,64.0
2016,85.0,240.0,90.0,5.0,64.0
2017,84.0,80.0,90.0,0.0,64.0
2018,84.0,0.0,90.0,5.0,64.0
2019,82.0,120.0,90.0,5.0,64.0
2020,82.0,0.0,90.0,0.0,64.0
2021,80.0,0.0,90.0,5.0,64.0
2022,80.0,120.0,90.0,0.0,64.0
2023,78.0,0.0,90.0,5.0,64.0
2024,78.0,120.0,90.0,0.0,64.0
2025,77.0,120.0,90.0,0.0,64.0
2026,77.0,0.0,90.0,5.0,64.0
2027,75.0,0.0,90.0,0.0,64.0
2028,75.0,120.0,90.0,5.0,64.0
2029,73.0,0.0,90.0,5.0,64.0
2030,73.0,120.0,90.0,0.0,64.0
2031,72.0,120.0,90.0,5.0,64.0
2032,72.0,0.0,90.0,0.0,64.0
2033,70.0,120.0,90.0,0.0,64.0
2034,70.0,0.0,90.0,5.0,64.0
2035,68.0,0.0,90.0,0.0,64.0
2036,68.0,120.0,90.0,5.0,64.0
2037,66.0,0.0,90.0,0.0,64.0
2038,66.0,120.0,90.0,5.0,64.0
2039,65.0,0.0,90.0,0.0,64.0
2040,65.0,120.0,90.0,5.0,64.0
2041,63.0,0.0,90.0,0.0,64.0
2042,63.0,120.0,90.0,5.0,64.0
2043,61.0,520.0,90.0,0.0,64.0
2044,61.0,0.0,90.0,5.0,64.0
2045,59.0,160.0,480.0,5.0,64.0
2046,59.0,0.0,480.0,0.0,64.0
2047,61.0,320.0,390.0,1.0,64.0
2048,61.0,0.0,390.0,6.0,64.0
2049,44.0,0.0,480.0,4.0,64.0
2050,71.0,0.0,480.0,0.0,64.0
2051,56.0,0.0,480.0,8.0,64.0
2052,65.0,0.0,480.0,2.0,64.0
2053,44.0,0.0,480.0,10.0,64.0
2054,56.0,160.0,480.0,3.0,64.0
2055,65.0,0.0,480.0,7.0,64.0
2056,71.0,0.0,480.0,5.0,64.0
2057,61.0,0.0,390.0,6.0,64.0
2058,61.0,320.0,390.0,1.0,64.0
2059,66.0,0.0,480.0,2.0,64.0
2060,66.0,0.0,480.0,7.0,64.0
2061,54.0,0.0,480.0,8.0,64.0
2062,70.0,160.0,480.0,0.0,64.0
2063,42.0,0.0,480.0,4.0,64.0
2064,70.0,0.0,480.0,5.0,64.0
2065,42.0,0.0,480.0,10.0,64.0
2066,54.0,0.0,480.0,3.0,64.0
2067,61.0,0.0,390.0,6.0,64.0
2068,61.0,240.0,390.0,1.0,64.0
2069,53.0,0.0,480.0,3.0,64.0
2070,65.0,0.0,480.0,2.0,64.0
2071,53.0,0.0,480.0,8.0,64.0
2072,69.0,0.0,390.0,5.0,64.0
2073,65.0,0.0,480.0,7.0,64.0
2074,69.0,80.0,390.0,0.0,64.0
2075,41.0,80.0,480.0,10.0,64.0
2076,41.0,0.0,480.0,4.0,64.0
2077,61.0,0.0,480.0,6.0,64.0
2078,61.0,0.0,480.0,1.0,64.0
2079,54.0,155.0,90.0,3.0,64.0
2080,66.0,85.0,240.0,2.0,64.0
2081,70.0,0.0,390.0,5.0,64.0
2082,42.0,0.0,90.0,4.0,64.0
2083,42.0,0.0,90.0,10.0,64.0
2084,54.0,0.0,90.0,8.0,64.0
2085,66.0,0.0,240.0,7.0,64.0
2086,70.0,160.0,390.0,0.0,64.0
2087,42.0,0.0,90.0,10.0,64.0
2088,54.0,0.0,90.0,8.0,64.0
2089,42.0,0.0,90.0,4.0,64.0
2090,70.0,0.0,90.0,1.0,64.0
2091,70.0,80.0,90.0,6.0,64.0
2092,54.0,0.0,90.0,3.0,64.0
2093,66.0,160.0,390.0,7.0,64.0
2094,66.0,0.0,390.0,2.0,64.0
2095,85.0,115.0,840.0,5.0,64.0
2096,42.0,0.0,90.0,4.0,64.0
2097,42.0,0.0,90.0,10.0,64.0
2098,70.0,0.0,90.0,1.0,64.0
2099,54.0,0.0,90.0,3.0,64.0
2100,70.0,0.0,90.0,6.0,64.0
2101,85.0,0.0,840.0,0.0,64.0
2102,54.0,80.0,90.0,8.0,64.0
2103,70.0,0.0,90.0,1.0,64.0
2104,42.0,0.0,90.0,4.0,64.0
2105,54.0,0.0,90.0,8.0,64.0
2106,42.0,240.0,90.0,10.0,64.0
2107,66.0,0.0,390.0,7.0,64.0
2108,66.0,160.0,390.0,2.0,64.0
2109,70.0,0.0,90.0,6.0,64.0
2110,54.0,0.0,90.0,3.0,64.0
2111,54.0,80.0,90.0,3.0,64.0
2112,42.0,0.0,90.0,4.0,64.0
2113,70.0,0.0,90.0,6.0,64.0
2114,70.0,0.0,90.0,1.0,64.0
2115,54.0,0.0,90.0,8.0,64.0
2116,42.0,0.0,90.0,10.0,64.0
2117,42.0,0.0,90.0,10.0,64.0
2118,54.0,40.0,90.0,8.0,64.0
2119,66.0,75.0,390.0,2.0,64.0
2120,42.0,0.0,90.0,4.0,64.0
2121,66.0,0.0,390.0,7.0,64.0
2122,82.0,0.0,240.0,1.0,64.0
2123,54.0,0.0,90.0,3.0,64.0
2124,82.0,85.0,240.0,6.0,64.0
2125,54.0,0.0,90.0,8.0,64.0
2126,42.0,40.0,90.0,10.0,64.0
2127,84.0,0.0,120.0,0.0,64.0
2128,80.0,40.0,120.0,6.0,64.0
2129,80.0,0.0,120.0,1.0,64.0
2130,84.0,0.0,120.0,5.0,64.0
2131,54.0,0.0,90.0,3.0,64.0
2132,42.0,0.0,90.0,4.0,64.0
2133,82.0,0.0,120.0,5.0,64.0
2134,78.0,0.0,120.0,6.0,64.0
2135,82.0,85.0,120.0,0.0,64.0
2136,78.0,0.0,120.0,1.0,64.0
2137,70.0,0.0,90.0,2.0,64.0
2138,80.0,0.0,90.0,0.0,64.0
2139,54.0,0.0,90.0,8.0,64.0
2140,77.0,120.0,90.0,6.0,64.0
2141,42.0,0.0,90.0,4.0,64.0
2142,77.0,0.0,90.0,1.0,64.0
2143,70.0,0.0,90.0,7.0,64.0
2144,42.0,0.0,90.0,10.0,64.0
2145,54.0,0.0,90.0,3.0,64.0
2146,80.0,0.0,90.0,5.0,64.0
2147,75.0,0.0,90.0,6.0,64.0
2148,78.0,0.0,90.0,5.0,64.0
2149,75.0,0.0,90.0,1.0,64.0
2150,78.0,120.0,90.0,0.0,64.0
2151,56.0,240.0,90.0,8.0,64.0
2152,44.0,0.0,90.0,4.0,64.0
2153,44.0,0.0,90.0,10.0,64.0
2154,77.0,0.0,90.0,0.0,64.0
2155,68.0,0.0,90.0,7.0,64.0
2156,56.0,0.0,90.0,3.0,64.0
2157,68.0,0.0,90.0,2.0,64.0
2158,77.0,0.0,90.0,5.0,64.0
2159,73.0,160.0,390.0,6.0,64.0
2160,73.0,0.0,390.0,1.0,64.0
2161,44.0,0.0,90.0,10.0,64.0
2162,68.0,0.0,90.0,7.0,64.0
2163,68.0,80.0,90.0,2.0,64.0
2164,80.0,0.0,90.0,5.0,64.0
2165,44.0,0.0,90.0,4.0,64.0
2166,56.0,0.0,90.0,8.0,64.0
2167,56.0,0.0,90.0,3.0,64.0
2168,80.0,0.0,90.0,0.0,64.0
2169,73.0,0.0,840.0,1.0,64.0
2170,78.0,115.0,120.0,5.0,64.0
2171,68.0,0.0,90.0,7.0,64.0
2172,68.0,0.0,90.0,2.0,64.0
2173,44.0,40.0,90.0,4.0,64.0
2174,78.0,0.0,120.0,0.0,64.0
2175,44.0,0.0,90.0,10.0,64.0
2176,56.0,0.0,90.0,3.0,64.0
2177,56.0,0.0,90.0,8.0,64.0
2178,73.0,60.0,840.0,6.0,64.0
2179,77.0,0.0,120.0,0.0,64.0
2180,77.0,85.0,120.0,5.0,64.0
2181,75.0,0.0,90.0,5.0,64.0
2182,68.0,0.0,90.0,7.0,64.0
2183,44.0,0.0,90.0,10.0,64.0
2184,68.0,0.0,90.0,2.0,64.0
2185,44.0,0.0,90.0,4.0,64.0
2186,56.0,120.0,90.0,8.0,64.0
2187,75.0,0.0,90.0,0.0,64.0
2188,56.0,0.0,90.0,3.0,64.0
2189,73.0,100.0,90.0,0.0,64.0
2190,73.0,0.0,90.0,5.0,64.0
2191,75.0,0.0,60.0,5.0,64.0
2192,75.0,20.0,60.0,0.0,64.0
2193,56.0,0.0,90.0,8.0,64.0
2194,68.0,0.0,90.0,2.0,64.0
2195,68.0,40.0,90.0,7.0,64.0
2196,44.0,0.0,90.0,4.0,64.0
2197,56.0,0.0,90.0,3.0,64.0
2198,44.0,0.0,90.0,10.0,64.0
2199,77.0,60.0,60.0,0.0,64.0
2200,77.0,0.0,60.0,5.0,64.0
2201,75.0,60.0,60.0,0.0,64.0
2202,75.0,0.0,60.0,5.0,64.0
2203,77.0,0.0,60.0,5.0,64.0
2204,77.0,60.0,60.0,0.0,64.0
2205,56.0,0.0,90.0,3.0,64.0
2206,68.0,40.0,90.0,2.0,64.0
2207,44.0,0.0,90.0,10.0,64.0
2208,75.0,0.0,60.0,0.0,64.0
2209,68.0,0.0,90.0,7.0,64.0
2210,44.0,0.0,90.0,4.0,64.0
2211,75.0,20.0,60.0,5.0,64.0
2212,56.0,0.0,90.0,8.0,64.0
2213,77.0,0.0,60.0,0.0,64.0
2214,77.0,0.0,60.0,5.0,64.0
2215,75.0,0.0,60.0,5.0,64.0
2216,75.0,60.0,60.0,0.0,64.0
2217,77.0,60.0,60.0,5.0,64.0
2218,77.0,0.0,60.0,0.0,64.0
2219,72.0,0.0,60.0,6.0,64.0
2220,56.0,0.0,90.0,3.0,64.0
2221,72.0,0.0,60.0,1.0,64.0
2222,44.0,40.0,90.0,4.0,64.0
2223,66.0,0.0,90.0,7.0,64.0
2224,56.0,0.0,90.0,8.0,64.0
2225,75.0,0.0,60.0,5.0,64.0
2226,44.0,0.0,90.0,10.0,64.0
2227,66.0,0.0,90.0,2.0,64.0
2228,75.0,20.0,60.0,0.0,64.0
2229,77.0,0.0,60.0,5.0,64.0
2230,73.0,60.0,60.0,6.0,64.0
2231,73.0,0.0,60.0,1.0,64.0
2232,77.0,0.0,60.0,0.0,64.0
2233,72.0,60.0,60.0,1.0,64.0
2234,75.0,0.0,60.0,5.0,64.0
2235,72.0,0.0,60.0,6.0,64.0
2236,75.0,0.0,60.0,0.0,64.0
2237,77.0,0.0,60.0,5.0,64.0
2238,73.0,60.0,60.0,1.0,64.0
2239,73.0,0.0,60.0,6.0,64.0
2240,77.0,0.0,60.0,0.0,64.0
2241,66.0,0.0,90.0,7.0,64.0
2242,44.0,0.0,90.0,10.0,64.0
2243,75.0,0.0,60.0,0.0,64.0
2244,75.0,0.0,60.0,5.0,64.0
2245,66.0,40.0,90.0,2.0,64.0
2246,44.0,0.0,90.0,4.0,64.0
2247,56.0,0.0,90.0,8.0,64.0
2248,72.0,20.0,60.0,6.0,64.0
2249,56.0,0.0,90.0,3.0,64.0
2250,72.0,0.0,60.0,1.0,64.0
2251,73.0,0.0,60.0,1.0,64.0
2252,73.0,0.0,60.0,6.0,64.0
2253,77.0,60.0,60.0,0.0,64.0
2254,77.0,0.0,60.0,5.0,64.0
2255,72.0,0.0,60.0,6.0,64.0
2256,72.0,0.0,60.0,1.0,64.0
2257,75.0,0.0,60.0,5.0,64.0
2258,75.0,60.0,60.0,0.0,64.0
2259,77.0,0.0,60.0,5.0,64.0
2260,77.0,0.0,60.0,0.0,64.0
2261,49.0,0.0,90.0,3.0,64.0
2262,73.0,0.0,15.0,1.0,64.0
2263,73.0,0.0,90.0,5.0,64.0
2264,65.0,0.0,90.0,2.0,64.0
2265,49.0,240.0,90.0,8.0,64.0
2266,65.0,0.0,90.0,7.0,64.0
2267,73.0,0.0,90.0,0.0,64.0
2268,73.0,80.0,15.0,6.0,64.0
2269,37.0,0.0,90.0,10.0,64.0
2270,37.0,0.0,90.0,4.0,64.0
2271,80.0,0.0,120.0,0.0,64.0
2272,65.0,0.0,240.0,7.0,64.0
2273,49.0,0.0,90.0,8.0,64.0
2274,49.0,0.0,90.0,3.0,64.0
2275,65.0,80.0,240.0,2.0,64.0
2276,37.0,40.0,90.0,4.0,64.0
2277,37.0,0.0,90.0,10.0,64.0
2278,80.0,40.0,120.0,5.0,64.0
2279,83.0,0.0,120.0,5.0,64.0
2280,83.0,0.0,120.0,0.0,64.0
2281,37.0,0.0,90.0,10.0,64.0
2282,82.0,120.0,120.0,0.0,64.0
2283,66.0,80.0,240.0,7.0,64.0
2284,49.0,0.0,90.0,3.0,64.0
2285,66.0,0.0,240.0,2.0,64.0
2286,82.0,0.0,120.0,5.0,64.0
2287,37.0,0.0,90.0,4.0,64.0
2288,49.0,40.0,90.0,8.0,64.0
2289,85.0,0.0,120.0,5.0,64.0
2290,85.0,0.0,120.0,0.0,64.0
2291,84.0,120.0,120.0,5.0,64.0
2292,84.0,0.0,120.0,0.0,64.0
2293,49.0,40.0,90.0,8.0,64.0
2294,63.0,0.0,240.0,2.0,64.0
2295,37.0,0.0,90.0,10.0,64.0
2296,49.0,0.0,90.0,3.0,64.0
2297,37.0,0.0,90.0,4.0,64.0
2298,63.0,0.0,240.0,7.0,64.0
2299,87.0,80.0,120.0,0.0,64.0
2300,87.0,0.0,120.0,5.0,64.0
2301,65.0,0.0,90.0,7.0,64.0
2302,37.0,0.0,90.0,4.0,64.0
2303,49.0,0.0,90.0,8.0,64.0
2304,65.0,240.0,90.0,2.0,64.0
2305,85.0,80.0,390.0,5.0,64.0
2306,37.0,0.0,90.0,10.0,64.0
2307,49.0,0.0,90.0,3.0,64.0
2308,85.0,0.0,390.0,0.0,64.0
2309,49.0,40.0,90.0,8.0,64.0
2310,77.0,0.0,120.0,1.0,64.0
2311,37.0,0.0,90.0,10.0,64.0
2312,49.0,0.0,90.0,3.0,64.0
2313,37.0,0.0,90.0,4.0,64.0
2314,68.0,0.0,240.0,2.0,64.0
2315,68.0,0.0,240.0,7.0,64.0
2316,77.0,40.0,120.0,6.0,64.0
2317,80.0,0.0,120.0,6.0,64.0
2318,80.0,80.0,120.0,1.0,64.0
2319,37.0,0.0,90.0,4.0,64.0
2320,78.0,120.0,120.0,6.0,64.0
2321,78.0,0.0,120.0,1.0,64.0
2322,37.0,0.0,90.0,10.0,64.0
2323,70.0,0.0,240.0,2.0,64.0
2324,49.0,40.0,90.0,3.0,64.0
2325,70.0,0.0,240.0,7.0,64.0
2326,49.0,0.0,90.0,8.0,64.0
2327,75.0,0.0,120.0,6.0,64.0
2328,75.0,80.0,120.0,1.0,64.0
2329,66.0,80.0,240.0,2.0,64.0
2330,37.0,0.0,90.0,4.0,64.0
2331,66.0,0.0,240.0,7.0,64.0
2332,49.0,40.0,90.0,8.0,64.0
2333,37.0,0.0,90.0,10.0,64.0
2334,49.0,0.0,90.0,3.0,64.0
2335,73.0,120.0,120.0,6.0,64.0
2336,73.0,0.0,120.0,1.0,64.0
2337,72.0,0.0,120.0,1.0,64.0
2338,72.0,0.0,120.0,6.0,64.0
2339,73.0,0.0,90.0,0.0,64.0
2340,73.0,0.0,90.0,5.0,64.0
2341,49.0,0.0,90.0,3.0,64.0
2342,65.0,0.0,90.0,7.0,64.0
2343,49.0,0.0,90.0,8.0,64.0
2344,73.0,0.0,390.0,1.0,64.0
2345,65.0,0.0,90.0,2.0,64.0
2346,73.0,80.0,390.0,6.0,64.0
2347,37.0,0.0,90.0,4.0,64.0
2348,37.0,240.0,90.0,10.0,64.0
2349,80.0,0.0,120.0,0.0,64.0
2350,65.0,0.0,240.0,2.0,64.0
2351,49.0,0.0,90.0,8.0,64.0
2352,37.0,0.0,90.0,4.0,64.0
2353,65.0,80.0,240.0,7.0,64.0
2354,37.0,40.0,90.0,10.0,64.0
2355,80.0,40.0,120.0,5.0,64.0
2356,49.0,0.0,90.0,3.0,64.0
2357,83.0,0.0,120.0,5.0,64.0
2358,83.0,0.0,120.0,0.0,64.0
2359,82.0,120.0,120.0,0.0,64.0
2360,37.0,0.0,90.0,4.0,64.0
2361,66.0,0.0,240.0,7.0,64.0
2362,49.0,0.0,90.0,8.0,64.0
2363,66.0,80.0,240.0,2.0,64.0
2364,49.0,40.0,90.0,3.0,64.0
2365,82.0,0.0,120.0,5.0,64.0
2366,37.0,0.0,90.0,10.0,64.0
2367,85.0,0.0,120.0,5.0,64.0
2368,85.0,0.0,120.0,0.0,64.0
2369,37.0,40.0,90.0,10.0,64.0
2370,84.0,0.0,120.0,5.0,64.0
2371,37.0,0.0,90.0,4.0,64.0
2372,49.0,0.0,90.0,3.0,64.0
2373,49.0,0.0,90.0,8.0,64.0
2374,63.0,0.0,240.0,7.0,64.0
2375,63.0,0.0,240.0,2.0,64.0
2376,84.0,120.0,120.0,0.0,64.0
2377,87.0,80.0,120.0,0.0,64.0
2378,87.0,0.0,120.0,5.0,64.0
2379,85.0,0.0,390.0,5.0,64.0
2380,49.0,0.0,90.0,8.0,64.0
2381,65.0,0.0,90.0,7.0,64.0
2382,37.0,240.0,90.0,10.0,64.0
2383,49.0,0.0,90.0,3.0,64.0
2384,65.0,0.0,90.0,2.0,64.0
2385,85.0,80.0,390.0,0.0,64.0
2386,37.0,0.0,90.0,4.0,64.0
2387,68.0,80.0,240.0,2.0,64.0
2388,49.0,0.0,90.0,3.0,64.0
2389,49.0,0.0,90.0,8.0,64.0
2390,68.0,0.0,240.0,7.0,64.0
2391,37.0,0.0,90.0,10.0,64.0
2392,77.0,40.0,120.0,6.0,64.0
2393,77.0,0.0,120.0,1.0,64.0
2394,37.0,40.0,90.0,4.0,64.0
2395,80.0,0.0,120.0,1.0,64.0
2396,80.0,0.0,120.0,6.0,64.0
2397,37.0,0.0,90.0,4.0,64.0
2398,49.0,40.0,90.0,8.0,64.0
2399,49.0,0.0,90.0,3.0,64.0
2400,70.0,80.0,240.0,7.0,64.0
2401,37.0,0.0,90.0,10.0,64.0
2402,78.0,0.0,120.0,1.0,64.0
2403,70.0,0.0,240.0,2.0,64.0
2404,78.0,120.0,120.0,6.0,64.0
2405,75.0,0.0,120.0,1.0,64.0
2406,75.0,0.0,120.0,6.0,64.0
2407,37.0,0.0,90.0,10.0,64.0
2408,49.0,0.0,90.0,8.0,64.0
2409,73.0,0.0,120.0,6.0,64.0
2410,66.0,80.0,240.0,7.0,64.0
2411,37.0,0.0,90.0,4.0,64.0
2412,49.0,40.0,90.0,3.0,64.0
2413,73.0,120.0,120.0,1.0,64.0
2414,66.0,0.0,240.0,2.0,64.0
2415,72.0,0.0,120.0,6.0,64.0
2416,72.0,0.0,120.0,1.0,64.0
2417,73.0,0.0,90.0,5.0,64.0
2418,73.0,0.0,90.0,6.0,64.0
2419,73.0,240.0,90.0,1.0,64.0
2420,37.0,0.0,90.0,4.0,64.0
2421,49.0,0.0,90.0,3.0,64.0
2422,49.0,0.0,90.0,8.0,64.0
2423,65.0,0.0,90.0,2.0,64.0
2424,73.0,0.0,90.0,0.0,64.0
2425,65.0,0.0,90.0,7.0,64.0
2426,37.0,0.0,90.0,10.0,64.0
2427,61.0,0.0,120.0,2.0,64.0
2428,49.0,40.0,90.0,3.0,64.0
2429,61.0,0.0,120.0,7.0,64.0
2430,49.0,0.0,90.0,8.0,64.0
2431,85.0,0.0,120.0,0.0,64.0
2432,77.0,0.0,120.0,6.0,64.0
2433,37.0,0.0,90.0,10.0,64.0
2434,85.0,120.0,120.0,5.0,64.0
2435,37.0,0.0,90.0,4.0,64.0
2436,77.0,0.0,120.0,1.0,64.0
2437,78.0,0.0,120.0,1.0,64.0
2438,60.0,0.0,120.0,2.0,64.0
2439,78.0,0.0,120.0,6.0,64.0
2440,87.0,0.0,120.0,5.0,64.0
2441,60.0,0.0,120.0,7.0,64.0
2442,87.0,80.0,120.0,0.0,64.0
2443,85.0,0.0,120.0,5.0,64.0
2444,49.0,0.0,90.0,3.0,64.0
2445,37.0,0.0,90.0,4.0,64.0
2446,37.0,40.0,90.0,10.0,64.0
2447,85.0,0.0,120.0,0.0,64.0
2448,61.0,0.0,120.0,2.0,64.0
2449,77.0,0.0,120.0,1.0,64.0
2450,49.0,0.0,90.0,8.0,64.0
2451,61.0,120.0,120.0,7.0,64.0
2452,77.0,0.0,120.0,6.0,64.0
2453,78.0,0.0,120.0,1.0,64.0
2454,87.0,0.0,120.0,5.0,64.0
2455,87.0,0.0,120.0,0.0,64.0
2456,60.0,80.0,120.0,7.0,64.0
2457,60.0,0.0,120.0,2.0,64.0
2458,78.0,0.0,120.0,6.0,64.0
2459,85.0,120.0,120.0,5.0,64.0
2460,77.0,0.0,120.0,1.0,64.0
2461,49.0,0.0,90.0,8.0,64.0
2462,49.0,0.0,90.0,3.0,64.0
2463,61.0,0.0,120.0,7.0,64.0
2464,77.0,0.0,120.0,6.0,64.0
2465,85.0,0.0,120.0,0.0,64.0
2466,61.0,0.0,120.0,2.0,64.0
2467,37.0,40.0,90.0,4.0,64.0
2468,37.0,0.0,90.0,10.0,64.0
2469,78.0,0.0,120.0,6.0,64.0
2470,60.0,400.0,120.0,7.0,64.0
2471,78.0,0.0,120.0,1.0,64.0
2472,60.0,0.0,120.0,2.0,64.0
2473,87.0,0.0,120.0,0.0,64.0
2474,87.0,0.0,120.0,5.0,64.0
2475,49.0,0.0,390.0,8.0,64.0
2476,85.0,0.0,390.0,0.0,64.0
2477,77.0,0.0,390.0,1.0,64.0
2478,37.0,640.0,390.0,10.0,64.0
2479,85.0,0.0,390.0,5.0,64.0
2480,61.0,0.0,390.0,2.0,64.0
2481,77.0,0.0,390.0,6.0,64.0
2482,37.0,0.0,390.0,4.0,64.0
2483,49.0,0.0,390.0,3.0,64.0
2484,61.0,0.0,390.0,7.0,64.0
2485,54.0,0.0,90.0,3.0,64.0
2486,85.0,0.0,1800.0,0.0,64.0
2487,66.0,0.0,240.0,2.0,64.0
2488,54.0,0.0,90.0,8.0,64.0
2489,70.0,0.0,240.0,1.0,64.0
2490,42.0,155.0,90.0,10.0,64.0
2491,42.0,0.0,90.0,4.0,64.0
2492,66.0,0.0,240.0,7.0,64.0
2493,70.0,85.0,240.0,6.0,64.0
2494,85.0,115.0,1800.0,5.0,64.0
2495,66.0,0.0,240.0,2.0,64.0
2496,54.0,0.0,90.0,3.0,64.0
2497,54.0,0.0,90.0,8.0,64.0
2498,66.0,85.0,240.0,7.0,64.0
2499,70.0,0.0,240.0,1.0,64.0
2500,70.0,0.0,240.0,6.0,64.0
2501,42.0,0.0,90.0,10.0,64.0
2502,42.0,155.0,90.0,4.0,64.0
2503,66.0,85.0,240.0,2.0,64.0
2504,42.0,155.0,90.0,10.0,64.0
2505,70.0,0.0,240.0,6.0,64.0
2506,66.0,0.0,240.0,7.0,64.0
2507,70.0,0.0,240.0,1.0,64.0
2508,42.0,0.0,90.0,4.0,64.0
2509,54.0,0.0,90.0,3.0,64.0
2510,54.0,0.0,90.0,8.0,64.0
2511,70.0,0.0,240.0,6.0,64.0
2512,66.0,0.0,240.0,7.0,64.0
2513,70.0,0.0,240.0,1.0,64.0
2514,54.0,155.0,90.0,8.0,64.0
2515,42.0,0.0,90.0,4.0,64.0
2516,54.0,0.0,90.0,3.0,64.0
2517,42.0,0.0,90.0,10.0,64.0
2518,66.0,85.0,240.0,2.0,64.0
2519,70.0,0.0,240.0,6.0,64.0
2520,54.0,0.0,90.0,3.0,64.0
2521,66.0,0.0,240.0,2.0,64.0
2522,54.0,0.0,90.0,8.0,64.0
2523,42.0,0.0,90.0,4.0,64.0
2524,42.0,155.0,90.0,10.0,64.0
2525,66.0,85.0,240.0,7.0,64.0
2526,70.0,0.0,240.0,1.0,64.0
2527,66.0,0.0,240.0,2.0,64.0
2528,42.0,0.0,90.0,4.0,64.0
2529,70.0,0.0,240.0,6.0,64.0
2530,66.0,0.0,240.0,7.0,64.0
2531,42.0,0.0,90.0,10.0,64.0
2532,54.0,0.0,90.0,8.0,64.0
2533,54.0,155.0,90.0,3.0,64.0
2534,70.0,85.0,240.0,1.0,64.0
2535,70.0,85.0,240.0,6.0,64.0
2536,42.0,0.0,90.0,4.0,64.0
2537,66.0,0.0,240.0,2.0,64.0
2538,54.0,155.0,90.0,8.0,64.0
2539,42.0,0.0,90.0,10.0,64.0
2540,54.0,0.0,90.0,3.0,64.0
2541,70.0,0.0,240.0,1.0,64.0
2542,66.0,0.0,240.0,7.0,64.0
2543,54.0,40.0,90.0,8.0,64.0
2544,42.0,0.0,90.0,4.0,64.0
2545,70.0,85.0,240.0,1.0,64.0
2546,66.0,0.0,240.0,2.0,64.0
2547,54.0,0.0,90.0,3.0,64.0
2548,70.0,0.0,240.0,6.0,64.0
2549,66.0,0.0,240.0,7.0,64.0
2550,42.0,0.0,90.0,10.0,64.0
2551,42.0,0.0,90.0,10.0,64.0
2552,42.0,0.0,90.0,4.0,64.0
2553,83.0,80.0,240.0,5.0,64.0
2554,73.0,0.0,240.0,1.0,64.0
2555,73.0,5.0,240.0,6.0,64.0
2556,66.0,0.0,240.0,7.0,64.0
2557,66.0,0.0,240.0,2.0,64.0
2558,83.0,0.0,240.0,0.0,64.0
2559,54.0,0.0,90.0,3.0,64.0
2560,54.0,155.0,90.0,8.0,64.0
2561,54.0,0.0,90.0,8.0,64.0
2562,82.0,0.0,630.0,0.0,64.0
2563,82.0,75.0,630.0,5.0,64.0
2564,73.0,85.0,240.0,1.0,64.0
2565,73.0,0.0,240.0,6.0,64.0
2566,54.0,0.0,90.0,3.0,64.0
2567,66.0,0.0,240.0,2.0,64.0
2568,42.0,155.0,90.0,10.0,64.0
2569,66.0,0.0,240.0,7.0,64.0
2570,42.0,0.0,90.0,4.0,64.0
2571,42.0,155.0,90.0,10.0,64.0
2572,66.0,0.0,240.0,2.0,64.0
2573,42.0,0.0,90.0,4.0,64.0
2574,73.0,0.0,240.0,1.0,64.0
2575,54.0,0.0,90.0,8.0,64.0
2576,73.0,85.0,240.0,6.0,64.0
2577,54.0,0.0,90.0,3.0,64.0
2578,66.0,0.0,240.0,7.0,64.0
2579,73.0,0.0,240.0,1.0,64.0
2580,66.0,0.0,240.0,2.0,64.0
2581,42.0,0.0,90.0,4.0,64.0
2582,66.0,85.0,240.0,7.0,64.0
2583,54.0,0.0,90.0,3.0,64.0
2584,54.0,80.0,90.0,8.0,64.0
2585,73.0,0.0,240.0,6.0,64.0
2586,42.0,0.0,90.0,10.0,64.0
2587,42.0,155.0,90.0,4.0,64.0
2588,61.0,0.0,240.0,2.0,64.0
2589,54.0,0.0,90.0,3.0,64.0
2590,70.0,0.0,240.0,6.0,64.0
2591,61.0,5.0,240.0,7.0,64.0
2592,42.0,0.0,90.0,10.0,64.0
2593,80.0,80.0,240.0,5.0,64.0
2594,70.0,0.0,240.0,1.0,64.0
2595,80.0,0.0,240.0,0.0,64.0
2596,54.0,0.0,90.0,8.0,64.0
2597,70.0,0.0,240.0,1.0,64.0
2598,61.0,0.0,240.0,2.0,64.0
2599,42.0,155.0,90.0,10.0,64.0
2600,78.0,75.0,630.0,0.0,64.0
2601,78.0,0.0,630.0,5.0,64.0
2602,70.0,85.0,240.0,6.0,64.0
2603,42.0,0.0,90.0,4.0,64.0
2604,54.0,0.0,90.0,8.0,64.0
2605,54.0,0.0,90.0,3.0,64.0
2606,61.0,0.0,240.0,7.0,64.0
2607,61.0,85.0,240.0,2.0,64.0
2608,61.0,0.0,240.0,7.0,64.0
2609,70.0,0.0,240.0,6.0,64.0
2610,42.0,0.0,90.0,10.0,64.0
2611,42.0,0.0,90.0,4.0,64.0
2612,70.0,0.0,240.0,1.0,64.0
2613,54.0,0.0,90.0,3.0,64.0
2614,54.0,155.0,90.0,8.0,64.0
2615,42.0,0.0,90.0,10.0,64.0
2616,70.0,0.0,240.0,6.0,64.0
2617,61.0,85.0,240.0,7.0,64.0
2618,61.0,0.0,240.0,2.0,64.0
2619,42.0,80.0,90.0,4.0,64.0
2620,70.0,0.0,240.0,1.0,64.0
2621,54.0,0.0,90.0,3.0,64.0
2622,54.0,0.0,90.0,8.0,64.0
2623,42.0,0.0,90.0,4.0,64.0
2624,68.0,0.0,120.0,6.0,64.0
2625,61.0,0.0,2160.0,7.0,64.0
2626,68.0,120.0,120.0,1.0,64.0
2627,54.0,0.0,90.0,3.0,64.0
2628,54.0,40.0,90.0,8.0,64.0
2629,77.0,0.0,120.0,0.0,64.0
2630,77.0,0.0,120.0,5.0,64.0
2631,61.0,85.0,2160.0,2.0,64.0
2632,42.0,0.0,90.0,10.0,64.0
2633,70.0,0.0,120.0,1.0,64.0
2634,78.0,80.0,120.0,0.0,64.0
2635,78.0,0.0,120.0,5.0,64.0
2636,70.0,0.0,120.0,6.0,64.0
2637,80.0,120.0,120.0,5.0,64.0
2638,54.0,0.0,90.0,3.0,64.0
2639,71.0,0.0,120.0,1.0,64.0
2640,54.0,0.0,90.0,8.0,64.0
2641,71.0,0.0,120.0,6.0,64.0
2642,42.0,0.0,90.0,4.0,64.0
2643,80.0,0.0,120.0,0.0,64.0
2644,42.0,40.0,90.0,10.0,64.0
2645,78.0,0.0,120.0,0.0,64.0
2646,78.0,0.0,120.0,5.0,64.0
2647,70.0,0.0,120.0,1.0,64.0
2648,70.0,80.0,120.0,6.0,64.0
2649,68.0,120.0,120.0,1.0,64.0
2650,42.0,40.0,90.0,10.0,64.0
2651,42.0,0.0,90.0,4.0,64.0
2652,77.0,0.0,120.0,0.0,64.0
2653,68.0,0.0,120.0,6.0,64.0
2654,77.0,0.0,120.0,5.0,64.0
2655,54.0,0.0,90.0,8.0,64.0
2656,54.0,0.0,90.0,3.0,64.0
2657,70.0,80.0,120.0,1.0,64.0
2658,78.0,0.0,120.0,5.0,64.0
2659,78.0,0.0,120.0,0.0,64.0
2660,70.0,0.0,120.0,6.0,64.0
2661,80.0,120.0,120.0,0.0,64.0
2662,54.0,0.0,90.0,3.0,64.0
2663,42.0,40.0,90.0,4.0,64.0
2664,71.0,0.0,120.0,1.0,64.0
2665,42.0,0.0,90.0,10.0,64.0
2666,71.0,0.0,120.0,6.0,64.0
2667,54.0,0.0,90.0,8.0,64.0
2668,80.0,0.0,120.0,5.0,64.0
2669,78.0,80.0,120.0,5.0,64.0
2670,70.0,0.0,120.0,6.0,64.0
2671,70.0,0.0,120.0,1.0,64.0
2672,78.0,0.0,120.0,0.0,64.0
2673,68.0,0.0,120.0,6.0,64.0
2674,54.0,40.0,90.0,3.0,64.0
2675,77.0,120.0,120.0,0.0,64.0
2676,54.0,0.0,90.0,8.0,64.0
2677,42.0,0.0,90.0,10.0,64.0
2678,77.0,0.0,120.0,5.0,64.0
2679,42.0,0.0,90.0,4.0,64.0
2680,68.0,0.0,120.0,1.0,64.0
2681,70.0,0.0,120.0,6.0,64.0
2682,78.0,80.0,120.0,0.0,64.0
2683,78.0,0.0,120.0,5.0,64.0
2684,70.0,0.0,120.0,1.0,64.0
2685,80.0,0.0,120.0,5.0,64.0
2686,71.0,0.0,120.0,1.0,64.0
2687,42.0,0.0,90.0,10.0,64.0
2688,42.0,0.0,90.0,4.0,64.0
2689,54.0,40.0,90.0,8.0,64.0
2690,71.0,120.0,120.0,6.0,64.0
2691,80.0,0.0,120.0,0.0,64.0
2692,54.0,0.0,90.0,3.0,64.0
2693,78.0,80.0,120.0,5.0,64.0
2694,78.0,0.0,120.0,0.0,64.0
2695,70.0,0.0,120.0,1.0,64.0
2696,70.0,0.0,120.0,6.0,64.0
2697,54.0,40.0,90.0,3.0,64.0
2698,68.0,0.0,120.0,1.0,64.0
2699,77.0,120.0,120.0,0.0,64.0
2700,68.0,0.0,120.0,6.0,64.0
2701,77.0,0.0,120.0,5.0,64.0
2702,54.0,0.0,90.0,8.0,64.0
2703,42.0,0.0,90.0,4.0,64.0
2704,42.0,0.0,90.0,10.0,64.0
2705,78.0,0.0,120.0,5.0,64.0
2706,70.0,80.0,120.0,1.0,64.0
2707,78.0,0.0,120.0,0.0,64.0
2708,70.0,0.0,120.0,6.0,64.0
2709,42.0,40.0,90.0,10.0,64.0
2710,54.0,0.0,90.0,3.0,64.0
2711,54.0,0.0,90.0,8.0,64.0
2712,80.0,0.0,120.0,0.0,64.0
2713,42.0,0.0,90.0,4.0,64.0
2714,71.0,120.0,120.0,1.0,64.0
2715,71.0,0.0,120.0,6.0,64.0
2716,80.0,0.0,120.0,5.0,64.0
2717,77.0,0.0,120.0,5.0,64.0
2718,77.0,0.0,120.0,0.0,64.0
2719,68.0,80.0,120.0,6.0,64.0
2720,68.0,0.0,120.0,1.0,64.0
2721,54.0,0.0,90.0,3.0,64.0
2722,42.0,0.0,90.0,4.0,64.0
2723,78.0,0.0,600.0,0.0,64.0
2724,42.0,0.0,90.0,10.0,64.0
2725,54.0,155.0,90.0,8.0,64.0
2726,78.0,125.0,600.0,5.0,64.0
2727,70.0,0.0,600.0,6.0,64.0
2728,70.0,0.0,600.0,1.0,64.0
2729,42.0,0.0,90.0,4.0,64.0
2730,70.0,0.0,240.0,7.0,64.0
2731,54.0,0.0,90.0,8.0,64.0
2732,42.0,0.0,90.0,10.0,64.0
2733,70.0,80.0,240.0,2.0,64.0
2734,54.0,160.0,90.0,3.0,64.0
2735,54.0,35.0,90.0,8.0,64.0
2736,42.0,0.0,90.0,10.0,64.0
2737,42.0,0.0,90.0,4.0,64.0
2738,73.0,0.0,240.0,7.0,64.0
2739,54.0,0.0,90.0,3.0,64.0
2740,73.0,80.0,240.0,2.0,64.0
2741,42.0,0.0,90.0,4.0,64.0
2742,70.0,80.0,240.0,7.0,64.0
2743,70.0,0.0,240.0,2.0,64.0
2744,54.0,160.0,90.0,3.0,64.0
2745,54.0,0.0,90.0,8.0,64.0
2746,42.0,0.0,90.0,10.0,64.0
2747,42.0,0.0,90.0,10.0,64.0
2748,54.0,0.0,90.0,8.0,64.0
2749,42.0,0.0,90.0,4.0,64.0
2750,66.0,0.0,90.0,2.0,64.0
2751,54.0,240.0,90.0,3.0,64.0
2752,66.0,0.0,90.0,7.0,64.0
2753,54.0,0.0,90.0,8.0,64.0
2754,54.0,0.0,90.0,3.0,64.0
2755,61.0,0.0,240.0,7.0,64.0
2756,85.0,0.0,240.0,5.0,64.0
2757,42.0,0.0,90.0,10.0,64.0
2758,66.0,0.0,240.0,6.0,64.0
2759,61.0,80.0,240.0,2.0,64.0
2760,66.0,0.0,240.0,1.0,64.0
2761,85.0,0.0,240.0,0.0,64.0
2762,42.0,160.0,90.0,4.0,64.0
2763,70.0,0.0,240.0,6.0,64.0
2764,42.0,0.0,90.0,10.0,64.0
2765,54.0,160.0,90.0,8.0,64.0
2766,66.0,0.0,240.0,7.0,64.0
2767,42.0,0.0,90.0,4.0,64.0
2768,54.0,0.0,90.0,3.0,64.0
2769,70.0,0.0,240.0,1.0,64.0
2770,66.0,0.0,240.0,2.0,64.0
2771,82.0,0.0,240.0,5.0,64.0
2772,82.0,80.0,240.0,0.0,64.0
2773,54.0,0.0,90.0,3.0,64.0
2774,78.0,0.0,240.0,5.0,64.0
2775,70.0,0.0,240.0,7.0,64.0
2776,42.0,155.0,90.0,4.0,64.0
2777,54.0,0.0,90.0,8.0,64.0
2778,73.0,0.0,240.0,6.0,64.0
2779,70.0,85.0,240.0,2.0,64.0
2780,73.0,0.0,240.0,1.0,64.0
2781,78.0,0.0,240.0,0.0,64.0
2782,42.0,0.0,90.0,10.0,64.0
2783,65.0,0.0,120.0,1.0,64.0
2784,80.0,0.0,120.0,0.0,64.0
2785,61.0,0.0,2010.0,7.0,64.0
2786,49.0,0.0,90.0,3.0,64.0
2787,49.0,0.0,90.0,8.0,64.0
2788,65.0,120.0,120.0,6.0,64.0
2789,80.0,0.0,120.0,5.0,64.0
2790,37.0,40.0,90.0,10.0,64.0
2791,37.0,0.0,90.0,4.0,64.0
2792,61.0,0.0,2010.0,2.0,64.0
2793,82.0,80.0,120.0,0.0,64.0
2794,82.0,0.0,120.0,5.0,64.0
2795,66.0,0.0,120.0,6.0,64.0
2796,66.0,0.0,120.0,1.0,64.0
2797,83.0,0.0,120.0,5.0,64.0
2798,37.0,40.0,90.0,4.0,64.0
2799,68.0,0.0,120.0,1.0,64.0
2800,83.0,120.0,120.0,0.0,64.0
2801,49.0,0.0,90.0,8.0,64.0
2802,49.0,0.0,90.0,3.0,64.0
2803,68.0,0.0,120.0,6.0,64.0
2804,37.0,0.0,90.0,10.0,64.0
2805,82.0,0.0,120.0,0.0,64.0
2806,82.0,80.0,120.0,5.0,64.0
2807,66.0,0.0,120.0,1.0,64.0
2808,66.0,0.0,120.0,6.0,64.0
2809,49.0,0.0,90.0,8.0,64.0
2810,65.0,120.0,120.0,6.0,64.0
2811,37.0,0.0,90.0,10.0,64.0
2812,80.0,0.0,120.0,5.0,64.0
2813,37.0,0.0,90.0,4.0,64.0
2814,49.0,40.0,90.0,3.0,64.0
2815,80.0,0.0,120.0,0.0,64.0
2816,65.0,0.0,120.0,1.0,64.0
2817,82.0,0.0,120.0,0.0,64.0
2818,66.0,0.0,120.0,6.0,64.0
2819,82.0,0.0,120.0,5.0,64.0
2820,66.0,80.0,120.0,1.0,64.0
2821,49.0,0.0,90.0,3.0,64.0
2822,37.0,40.0,90.0,10.0,64.0
2823,83.0,0.0,120.0,0.0,64.0
2824,37.0,0.0,90.0,4.0,64.0
2825,83.0,120.0,120.0,5.0,64.0
2826,68.0,0.0,120.0,1.0,64.0
2827,68.0,0.0,120.0,6.0,64.0
2828,49.0,0.0,90.0,8.0,64.0
2829,82.0,0.0,120.0,5.0,64.0
2830,66.0,80.0,120.0,1.0,64.0
2831,66.0,0.0,120.0,6.0,64.0
2832,82.0,0.0,120.0,0.0,64.0
2833,49.0,0.0,90.0,8.0,64.0
2834,37.0,0.0,90.0,4.0,64.0
2835,49.0,0.0,90.0,3.0,64.0
2836,37.0,40.0,90.0,10.0,64.0
2837,80.0,0.0,120.0,0.0,64.0
2838,65.0,120.0,120.0,1.0,64.0
2839,65.0,0.0,120.0,6.0,64.0
2840,80.0,0.0,120.0,5.0,64.0
2841,66.0,0.0,120.0,6.0,64.0
2842,82.0,80.0,120.0,5.0,64.0
2843,66.0,0.0,120.0,1.0,64.0
2844,82.0,0.0,120.0,0.0,64.0
2845,83.0,120.0,120.0,5.0,64.0
2846,68.0,0.0,120.0,1.0,64.0
2847,37.0,0.0,90.0,4.0,64.0
2848,49.0,40.0,90.0,8.0,64.0
2849,83.0,0.0,120.0,0.0,64.0
2850,49.0,0.0,90.0,3.0,64.0
2851,68.0,0.0,120.0,6.0,64.0
2852,37.0,0.0,90.0,10.0,64.0
2853,82.0,80.0,120.0,0.0,64.0
2854,82.0,0.0,120.0,5.0,64.0
2855,66.0,0.0,120.0,1.0,64.0
2856,66.0,0.0,120.0,6.0,64.0
2857,37.0,0.0,90.0,4.0,64.0
2858,80.0,120.0,120.0,5.0,64.0
2859,49.0,40.0,90.0,3.0,64.0
2860,65.0,0.0,120.0,1.0,64.0
2861,65.0,0.0,120.0,6.0,64.0
2862,49.0,0.0,90.0,8.0,64.0
2863,37.0,0.0,90.0,10.0,64.0
2864,80.0,0.0,120.0,0.0,64.0
2865,82.0,0.0,120.0,5.0,64.0
2866,66.0,0.0,120.0,6.0,64.0
2867,82.0,80.0,120.0,0.0,64.0
2868,66.0,0.0,120.0,1.0,64.0
2869,37.0,0.0,90.0,4.0,64.0
2870,83.0,0.0,120.0,5.0,64.0
2871,49.0,0.0,90.0,3.0,64.0
2872,68.0,120.0,120.0,6.0,64.0
2873,49.0,0.0,90.0,8.0,64.0
2874,83.0,0.0,120.0,0.0,64.0
2875,68.0,0.0,120.0,1.0,64.0
2876,37.0,40.0,90.0,10.0,64.0
2877,80.0,0.0,120.0,5.0,64.0
2878,80.0,80.0,120.0,0.0,64.0
2879,65.0,0.0,120.0,1.0,64.0
2880,65.0,0.0,120.0,6.0,64.0
2881,66.0,0.0,240.0,1.0,64.0
2882,42.0,0.0,90.0,10.0,64.0
2883,66.0,85.0,240.0,6.0,64.0
2884,82.0,0.0,240.0,5.0,64.0
2885,54.0,0.0,90.0,3.0,64.0
2886,42.0,0.0,90.0,4.0,64.0
2887,82.0,0.0,240.0,0.0,64.0
2888,54.0,155.0,90.0,8.0,64.0
2889,73.0,160.0,390.0,1.0,64.0
2890,66.0,0.0,390.0,7.0,64.0
2891,54.0,0.0,90.0,3.0,64.0
2892,66.0,0.0,390.0,2.0,64.0
2893,42.0,0.0,90.0,10.0,64.0
2894,42.0,240.0,90.0,4.0,64.0
2895,73.0,0.0,390.0,6.0,64.0
2896,54.0,0.0,90.0,8.0,64.0
2897,54.0,80.0,90.0,8.0,64.0
2898,78.0,0.0,720.0,0.0,64.0
2899,42.0,0.0,90.0,4.0,64.0
2900,42.0,0.0,90.0,10.0,64.0
2901,78.0,85.0,720.0,5.0,64.0
2902,54.0,0.0,90.0,3.0,64.0
2903,42.0,0.0,90.0,10.0,64.0
2904,54.0,0.0,90.0,8.0,64.0
2905,73.0,0.0,390.0,6.0,64.0
2906,70.0,0.0,390.0,2.0,64.0
2907,70.0,75.0,390.0,7.0,64.0
2908,42.0,0.0,90.0,4.0,64.0
2909,73.0,0.0,390.0,1.0,64.0
2910,54.0,240.0,90.0,3.0,64.0
2911,42.0,80.0,90.0,4.0,64.0
2912,54.0,0.0,90.0,8.0,64.0
2913,54.0,0.0,90.0,3.0,64.0
2914,42.0,0.0,90.0,10.0,64.0
2915,42.0,120.0,90.0,4.0,64.0
2916,70.0,0.0,240.0,7.0,64.0
2917,42.0,0.0,90.0,10.0,64.0
2918,80.0,0.0,90.0,0.0,64.0
2919,70.0,80.0,240.0,2.0,64.0
2920,54.0,0.0,90.0,8.0,64.0
2921,73.0,0.0,390.0,1.0,64.0
2922,73.0,40.0,390.0,6.0,64.0
2923,80.0,0.0,90.0,5.0,64.0
2924,54.0,0.0,90.0,3.0,64.0
2925,82.0,40.0,90.0,0.0,64.0
2926,82.0,0.0,90.0,5.0,64.0
2927,68.0,80.0,240.0,2.0,64.0
2928,44.0,0.0,90.0,10.0,64.0
2929,83.0,0.0,90.0,0.0,64.0
2930,56.0,80.0,90.0,3.0,64.0
2931,44.0,0.0,90.0,4.0,64.0
2932,83.0,0.0,90.0,5.0,64.0
2933,56.0,0.0,90.0,8.0,64.0
2934,68.0,0.0,240.0,7.0,64.0
2935,85.0,40.0,90.0,0.0,64.0
2936,85.0,0.0,90.0,5.0,64.0
2937,71.0,85.0,240.0,2.0,64.0
2938,73.0,0.0,240.0,1.0,64.0
2939,44.0,0.0,90.0,4.0,64.0
2940,44.0,0.0,90.0,10.0,64.0
2941,87.0,120.0,90.0,5.0,64.0
2942,87.0,0.0,90.0,0.0,64.0
2943,56.0,0.0,90.0,8.0,64.0
2944,73.0,0.0,240.0,6.0,64.0
2945,71.0,0.0,240.0,7.0,64.0
2946,56.0,0.0,90.0,3.0,64.0
2947,89.0,0.0,90.0,0.0,64.0
2948,89.0,35.0,90.0,5.0,64.0
2949,58.0,0.0,90.0,8.0,64.0
2950,58.0,155.0,90.0,3.0,64.0
2951,73.0,0.0,240.0,1.0,64.0
2952,46.0,0.0,90.0,4.0,64.0
2953,90.0,115.0,840.0,0.0,64.0
2954,73.0,0.0,240.0,6.0,64.0
2955,70.0,0.0,240.0,2.0,64.0
2956,46.0,0.0,90.0,10.0,64.0
2957,70.0,85.0,240.0,7.0,64.0
2958,90.0,0.0,840.0,5.0,64.0
2959,70.0,0.0,240.0,7.0,64.0
2960,58.0,155.0,90.0,3.0,64.0
2961,46.0,0.0,90.0,4.0,64.0
2962,70.0,0.0,240.0,2.0,64.0
2963,58.0,0.0,90.0,8.0,64.0
2964,73.0,0.0,240.0,6.0,64.0
2965,46.0,0.0,90.0,10.0,64.0
2966,73.0,85.0,240.0,1.0,64.0
2967,46.0,0.0,90.0,4.0,64.0
2968,58.0,155.0,90.0,8.0,64.0
2969,73.0,0.0,240.0,1.0,64.0
2970,58.0,0.0,90.0,3.0,64.0
2971,73.0,0.0,240.0,6.0,64.0
2972,70.0,0.0,240.0,2.0,64.0
2973,46.0,0.0,90.0,10.0,64.0
2974,70.0,85.0,240.0,7.0,64.0
2975,70.0,0.0,240.0,7.0,64.0
2976,58.0,0.0,90.0,8.0,64.0
2977,46.0,0.0,90.0,10.0,64.0
2978,70.0,0.0,240.0,2.0,64.0
2979,73.0,85.0,240.0,1.0,64.0
2980,46.0,0.0,90.0,4.0,64.0
2981,58.0,40.0,90.0,3.0,64.0
2982,73.0,0.0,240.0,6.0,64.0
2983,78.0,0.0,240.0,6.0,64.0
2984,73.0,85.0,240.0,7.0,64.0
2985,46.0,0.0,90.0,4.0,64.0
2986,85.0,0.0,390.0,0.0,64.0
2987,78.0,0.0,240.0,1.0,64.0
2988,58.0,0.0,90.0,8.0,64.0
2989,46.0,0.0,90.0,10.0,64.0
2990,58.0,155.0,90.0,3.0,64.0
2991,73.0,0.0,240.0,2.0,64.0
2992,85.0,75.0,390.0,5.0,64.0
2993,73.0,0.0,240.0,2.0,64.0
2994,58.0,0.0,90.0,8.0,64.0
2995,46.0,0.0,90.0,4.0,64.0
2996,46.0,80.0,90.0,10.0,64.0
2997,78.0,0.0,240.0,6.0,64.0
2998,73.0,85.0,240.0,7.0,64.0
2999,78.0,0.0,240.0,1.0,64.0
3000,58.0,0.0,90.0,3.0,64.0
3001,46.0,0.0,90.0,10.0,64.0
3002,82.0,0.0,390.0,5.0,64.0
3003,73.0,0.0,240.0,7.0,64.0
3004,78.0,0.0,240.0,1.0,64.0
3005,82.0,75.0,390.0,0.0,64.0
3006,46.0,0.0,90.0,4.0,64.0
3007,58.0,0.0,90.0,8.0,64.0
3008,58.0,155.0,90.0,3.0,64.0
3009,78.0,85.0,240.0,6.0,64.0
3010,73.0,0.0,240.0,2.0,64.0
3011,46.0,0.0,90.0,10.0,64.0
3012,46.0,80.0,90.0,4.0,64.0
3013,58.0,0.0,90.0,8.0,64.0
3014,78.0,0.0,240.0,6.0,64.0
3015,78.0,0.0,240.0,1.0,64.0
3016,73.0,85.0,240.0,7.0,64.0
3017,73.0,0.0,240.0,2.0,64.0
3018,58.0,0.0,90.0,3.0,64.0
3019,78.0,0.0,240.0,1.0,64.0
3020,82.0,0.0,120.0,5.0,64.0
3021,71.0,0.0,240.0,2.0,64.0
3022,59.0,0.0,90.0,3.0,64.0
3023,47.0,0.0,90.0,10.0,64.0
3024,71.0,0.0,240.0,7.0,64.0
3025,59.0,0.0,90.0,8.0,64.0
3026,78.0,5.0,240.0,6.0,64.0
3027,82.0,115.0,120.0,0.0,64.0
3028,47.0,40.0,90.0,4.0,64.0
3029,83.0,80.0,120.0,5.0,64.0
3030,83.0,0.0,120.0,0.0,64.0
3031,47.0,0.0,90.0,4.0,64.0
3032,59.0,40.0,90.0,3.0,64.0
3033,75.0,0.0,390.0,1.0,64.0
3034,79.0,0.0,120.0,5.0,64.0
3035,47.0,0.0,90.0,10.0,64.0
3036,71.0,85.0,240.0,2.0,64.0
3037,59.0,0.0,90.0,8.0,64.0
3038,71.0,0.0,240.0,7.0,64.0
3039,75.0,75.0,390.0,6.0,64.0
3040,79.0,115.0,120.0,0.0,64.0
3041,80.0,0.0,120.0,0.0,64.0
3042,80.0,0.0,120.0,5.0,64.0
3043,80.0,75.0,390.0,5.0,64.0
3044,71.0,85.0,240.0,7.0,64.0
3045,59.0,80.0,90.0,8.0,64.0
3046,80.0,0.0,390.0,0.0,64.0
3047,47.0,0.0,90.0,4.0,64.0
3048,71.0,0.0,240.0,2.0,64.0
3049,47.0,0.0,90.0,10.0,64.0
3050,59.0,0.0,90.0,3.0,64.0
3051,47.0,80.0,90.0,4.0,64.0
3052,59.0,0.0,90.0,3.0,64.0
3053,75.0,0.0,390.0,1.0,64.0
3054,71.0,85.0,240.0,7.0,64.0
3055,71.0,0.0,240.0,2.0,64.0
3056,59.0,0.0,90.0,8.0,64.0
3057,75.0,75.0,390.0,6.0,64.0
3058,47.0,0.0,90.0,10.0,64.0
3059,59.0,0.0,90.0,3.0,64.0
3060,59.0,80.0,90.0,8.0,64.0
3061,47.0,0.0,90.0,4.0,64.0
3062,71.0,85.0,240.0,7.0,64.0
3063,71.0,0.0,240.0,2.0,64.0
3064,47.0,0.0,90.0,10.0,64.0
3065,71.0,0.0,240.0,7.0,64.0
3066,71.0,0.0,240.0,2.0,64.0
3067,59.0,0.0,90.0,8.0,64.0
3068,80.0,80.0,240.0,5.0,64.0
3069,59.0,0.0,90.0,3.0,64.0
3070,75.0,0.0,240.0,1.0,64.0
3071,47.0,0.0,90.0,10.0,64.0
3072,47.0,160.0,90.0,4.0,64.0
3073,80.0,0.0,240.0,0.0,64.0
3074,75.0,0.0,240.0,6.0,64.0
3075,59.0,160.0,90.0,8.0,64.0
3076,83.0,0.0,240.0,0.0,64.0
3077,59.0,0.0,90.0,3.0,64.0
3078,80.0,0.0,240.0,6.0,64.0
3079,75.0,0.0,240.0,2.0,64.0
3080,47.0,0.0,90.0,4.0,64.0
3081,80.0,0.0,240.0,1.0,64.0
3082,75.0,0.0,240.0,7.0,64.0
3083,47.0,0.0,90.0,10.0,64.0
3084,83.0,80.0,240.0,5.0,64.0
3085,47.0,0.0,90.0,10.0,64.0
3086,68.0,0.0,240.0,2.0,64.0
3087,87.0,0.0,240.0,0.0,64.0
3088,68.0,0.0,240.0,7.0,64.0
3089,83.0,0.0,240.0,6.0,64.0
3090,47.0,155.0,90.0,4.0,64.0
3091,83.0,0.0,240.0,1.0,64.0
3092,59.0,0.0,90.0,3.0,64.0
3093,87.0,85.0,240.0,5.0,64.0
3094,59.0,0.0,90.0,8.0,64.0
3095,49.0,0.0,90.0,10.0,64.0
3096,81.0,0.0,120.0,1.0,64.0
3097,84.0,0.0,120.0,5.0,64.0
3098,61.0,0.0,90.0,8.0,64.0
3099,73.0,0.0,240.0,7.0,64.0
3100,49.0,40.0,90.0,4.0,64.0
3101,61.0,0.0,90.0,3.0,64.0
3102,81.0,0.0,120.0,6.0,64.0
3103,84.0,115.0,120.0,0.0,64.0
3104,73.0,85.0,240.0,2.0,64.0
3105,82.0,0.0,750.0,1.0,64.0
3106,82.0,0.0,750.0,6.0,64.0
3107,85.0,0.0,750.0,0.0,64.0
3108,85.0,75.0,750.0,5.0,64.0
3109,61.0,0.0,240.0,7.0,64.0
3110,61.0,155.0,90.0,3.0,64.0
3111,49.0,0.0,90.0,10.0,64.0
3112,61.0,85.0,240.0,2.0,64.0
3113,49.0,0.0,90.0,4.0,64.0
3114,61.0,0.0,90.0,8.0,64.0
3115,49.0,0.0,90.0,4.0,64.0
3116,61.0,85.0,240.0,7.0,64.0
3117,49.0,0.0,90.0,10.0,64.0
3118,61.0,0.0,240.0,2.0,64.0
3119,61.0,0.0,90.0,3.0,64.0
3120,61.0,155.0,90.0,8.0,64.0
3121,61.0,0.0,240.0,2.0,64.0
3122,61.0,0.0,90.0,8.0,64.0
3123,61.0,85.0,240.0,7.0,64.0
3124,49.0,0.0,90.0,10.0,64.0
3125,49.0,0.0,90.0,4.0,64.0
3126,61.0,80.0,90.0,3.0,64.0
3127,61.0,0.0,90.0,8.0,64.0
3128,49.0,0.0,90.0,4.0,64.0
3129,81.0,0.0,120.0,6.0,64.0
3130,61.0,85.0,240.0,2.0,64.0
3131,81.0,0.0,120.0,1.0,64.0
3132,61.0,40.0,90.0,3.0,64.0
3133,84.0,0.0,120.0,5.0,64.0
3134,49.0,0.0,90.0,10.0,64.0
3135,61.0,0.0,240.0,7.0,64.0
3136,84.0,115.0,120.0,0.0,64.0
3137,82.0,0.0,360.0,6.0,64.0
3138,85.0,85.0,360.0,0.0,64.0
3139,85.0,0.0,360.0,5.0,64.0
3140,82.0,0.0,360.0,1.0,64.0
3141,61.0,0.0,240.0,7.0,64.0
3142,61.0,0.0,240.0,2.0,64.0
3143,61.0,0.0,90.0,3.0,64.0
3144,49.0,155.0,90.0,10.0,64.0
3145,49.0,0.0,90.0,4.0,64.0
3146,61.0,0.0,90.0,8.0,64.0
3147,81.0,0.0,120.0,6.0,64.0
3148,61.0,85.0,240.0,7.0,64.0
3149,49.0,0.0,90.0,4.0,64.0
3150,84.0,0.0,120.0,5.0,64.0
3151,61.0,0.0,90.0,8.0,64.0
3152,81.0,0.0,120.0,1.0,64.0
3153,49.0,0.0,90.0,10.0,64.0
3154,61.0,0.0,240.0,2.0,64.0
3155,61.0,40.0,90.0,3.0,64.0
3156,84.0,115.0,120.0,0.0,64.0
3157,82.0,0.0,360.0,1.0,64.0
3158,85.0,0.0,360.0,5.0,64.0
3159,85.0,0.0,360.0,0.0,64.0
3160,82.0,0.0,360.0,6.0,64.0
3161,61.0,0.0,90.0,3.0,64.0
3162,61.0,85.0,240.0,2.0,64.0
3163,61.0,0.0,90.0,8.0,64.0
3164,61.0,0.0,240.0,7.0,64.0
3165,49.0,155.0,90.0,4.0,64.0
3166,49.0,0.0,90.0,10.0,64.0
3167,61.0,0.0,240.0,2.0,64.0
3168,79.0,0.0,120.0,1.0,64.0
3169,37.0,0.0,90.0,4.0,64.0
3170,61.0,0.0,240.0,7.0,64.0
3171,85.0,115.0,120.0,0.0,64.0
3172,37.0,0.0,90.0,10.0,64.0
3173,85.0,0.0,120.0,5.0,64.0
3174,49.0,0.0,90.0,8.0,64.0
3175,49.0,40.0,90.0,3.0,64.0
3176,79.0,0.0,120.0,6.0,64.0
3177,80.0,85.0,120.0,6.0,64.0
3178,80.0,0.0,120.0,1.0,64.0
3179,83.0,0.0,120.0,0.0,64.0
3180,83.0,0.0,120.0,5.0,64.0
3181,49.0,0.0,90.0,3.0,64.0
3182,61.0,65.0,240.0,2.0,64.0
3183,37.0,155.0,90.0,10.0,64.0
3184,49.0,0.0,90.0,8.0,64.0
3185,37.0,0.0,90.0,4.0,64.0
3186,61.0,0.0,240.0,7.0,64.0
3187,79.0,0.0,120.0,1.0,64.0
3188,82.0,20.0,120.0,0.0,64.0
3189,79.0,0.0,120.0,6.0,64.0
3190,82.0,0.0,120.0,5.0,64.0
3191,37.0,155.0,90.0,4.0,64.0
3192,49.0,0.0,90.0,8.0,64.0
3193,61.0,0.0,240.0,7.0,64.0
3194,61.0,85.0,240.0,2.0,64.0
3195,49.0,0.0,90.0,3.0,64.0
3196,37.0,0.0,90.0,10.0,64.0
3197,80.0,120.0,540.0,1.0,64.0
3198,83.0,0.0,540.0,5.0,64.0
3199,83.0,0.0,540.0,0.0,64.0
3200,80.0,0.0,540.0,6.0,64.0
3201,61.0,85.0,240.0,2.0,64.0
3202,61.0,0.0,240.0,7.0,64.0
3203,49.0,0.0,90.0,3.0,64.0
3204,37.0,0.0,90.0,10.0,64.0
3205,37.0,0.0,90.0,4.0,64.0
3206,49.0,155.0,90.0,8.0,64.0
3207,61.0,85.0,240.0,7.0,64.0
3208,37.0,35.0,90.0,4.0,64.0
3209,37.0,0.0,90.0,10.0,64.0
3210,49.0,0.0,90.0,3.0,64.0
3211,49.0,0.0,90.0,8.0,64.0
3212,61.0,0.0,240.0,2.0,64.0
3213,79.0,0.0,120.0,6.0,64.0
3214,61.0,0.0,240.0,7.0,64.0
3215,49.0,0.0,90.0,3.0,64.0
3216,49.0,0.0,90.0,8.0,64.0
3217,61.0,85.0,240.0,2.0,64.0
3218,82.0,0.0,120.0,0.0,64.0
3219,82.0,0.0,120.0,5.0,64.0
3220,37.0,0.0,90.0,4.0,64.0
3221,37.0,40.0,90.0,10.0,64.0
3222,79.0,115.0,120.0,1.0,64.0
3223,83.0,0.0,120.0,5.0,64.0
3224,80.0,0.0,120.0,6.0,64.0
3225,80.0,0.0,120.0,1.0,64.0
3226,83.0,0.0,120.0,0.0,64.0
3227,82.0,120.0,90.0,6.0,64.0
3228,85.0,0.0,90.0,5.0,64.0
3229,85.0,0.0,90.0,0.0,64.0
3230,61.0,0.0,240.0,2.0,64.0
3231,61.0,85.0,240.0,7.0,64.0
3232,37.0,0.0,90.0,4.0,64.0
3233,49.0,0.0,90.0,3.0,64.0
3234,37.0,0.0,90.0,10.0,64.0
3235,82.0,0.0,90.0,1.0,64.0
3236,49.0,0.0,90.0,8.0,64.0
3237,80.0,0.0,90.0,6.0,64.0
3238,83.0,0.0,90.0,0.0,64.0
3239,83.0,35.0,90.0,5.0,64.0
3240,80.0,0.0,90.0,1.0,64.0
3241,82.0,0.0,90.0,0.0,64.0
3242,82.0,0.0,90.0,5.0,64.0
3243,49.0,0.0,90.0,8.0,64.0
3244,79.0,0.0,90.0,6.0,64.0
3245,79.0,120.0,90.0,1.0,64.0
3246,61.0,0.0,240.0,2.0,64.0
3247,37.0,0.0,90.0,10.0,64.0
3248,49.0,0.0,90.0,3.0,64.0
3249,37.0,0.0,90.0,4.0,64.0
3250,61.0,125.0,240.0,7.0,64.0
3251,77.0,0.0,90.0,1.0,64.0
3252,80.0,35.0,90.0,5.0,64.0
3253,80.0,0.0,90.0,0.0,64.0
3254,77.0,0.0,90.0,6.0,64.0
3255,42.0,0.0,390.0,10.0,64.0
3256,78.0,0.0,120.0,0.0,64.0
3257,61.0,40.0,390.0,7.0,64.0
3258,54.0,0.0,390.0,3.0,64.0
3259,78.0,120.0,120.0,5.0,64.0
3260,78.0,0.0,390.0,1.0,64.0
3261,42.0,0.0,390.0,4.0,64.0
3262,78.0,0.0,390.0,6.0,64.0
3263,54.0,0.0,390.0,8.0,64.0
3264,61.0,0.0,390.0,2.0,64.0
3265,73.0,0.0,120.0,0.0,64.0
3266,73.0,80.0,120.0,5.0,64.0
3267,70.0,80.0,90.0,5.0,64.0
3268,70.0,0.0,90.0,0.0,64.0
3269,73.0,120.0,90.0,0.0,64.0
3270,73.0,0.0,90.0,5.0,64.0
3271,78.0,0.0,90.0,0.0,64.0
3272,78.0,120.0,90.0,5.0,64.0
3273,73.0,120.0,90.0,5.0,64.0
3274,73.0,0.0,90.0,0.0,64.0
3275,80.0,120.0,90.0,0.0,64.0
3276,73.0,0.0,240.0,2.0,64.0
3277,80.0,0.0,90.0,5.0,64.0
3278,77.0,0.0,240.0,6.0,64.0
3279,77.0,0.0,240.0,1.0,64.0
3280,73.0,0.0,240.0,7.0,64.0
3281,37.0,85.0,240.0,10.0,64.0
3282,49.0,0.0,240.0,3.0,64.0
3283,49.0,0.0,240.0,8.0,64.0
3284,37.0,0.0,240.0,4.0,64.0
3285,73.0,35.0,90.0,5.0,64.0
3286,73.0,0.0,90.0,0.0,64.0
3287,78.0,0.0,390.0,1.0,64.0
3288,73.0,0.0,390.0,7.0,64.0
3289,54.0,0.0,390.0,8.0,64.0
3290,54.0,40.0,390.0,3.0,64.0
3291,82.0,0.0,90.0,0.0,64.0
3292,73.0,0.0,390.0,2.0,64.0
3293,78.0,0.0,390.0,6.0,64.0
3294,42.0,0.0,390.0,4.0,64.0
3295,42.0,0.0,390.0,10.0,64.0
3296,82.0,120.0,90.0,5.0,64.0
3297,78.0,0.0,90.0,5.0,64.0
3298,78.0,120.0,90.0,0.0,64.0
3299,85.0,0.0,90.0,5.0,64.0
3300,85.0,80.0,90.0,0.0,64.0
3301,82.0,120.0,90.0,0.0,64.0
3302,82.0,0.0,90.0,5.0,64.0
3303,83.0,0.0,90.0,5.0,64.0
3304,83.0,120.0,90.0,0.0,64.0
3305,80.0,0.0,90.0,5.0,64.0
3306,80.0,120.0,90.0,0.0,64.0
3307,78.0,0.0,90.0,0.0,64.0
3308,68.0,0.0,240.0,2.0,64.0
3309,49.0,0.0,240.0,4.0,64.0
3310,61.0,125.0,240.0,8.0,64.0
3311,78.0,120.0,90.0,5.0,64.0
3312,71.0,0.0,240.0,6.0,64.0
3313,71.0,0.0,240.0,1.0,64.0
3314,49.0,0.0,240.0,10.0,64.0
3315,61.0,0.0,240.0,3.0,64.0
3316,68.0,0.0,240.0,7.0,64.0
3317,77.0,0.0,90.0,5.0,64.0
3318,77.0,35.0,90.0,0.0,64.0
3319,66.0,0.0,390.0,7.0,64.0
3320,78.0,0.0,120.0,0.0,64.0
3321,54.0,0.0,390.0,3.0,64.0
3322,78.0,120.0,120.0,5.0,64.0
3323,54.0,0.0,390.0,8.0,64.0
3324,70.0,0.0,390.0,6.0,64.0
3325,70.0,40.0,390.0,1.0,64.0
3326,42.0,0.0,390.0,4.0,64.0
3327,42.0,0.0,390.0,10.0,64.0
3328,66.0,0.0,390.0,2.0,64.0
3329,73.0,0.0,120.0,0.0,64.0
3330,73.0,80.0,120.0,5.0,64.0
3331,70.0,80.0,90.0,0.0,64.0
3332,70.0,0.0,90.0,5.0,64.0
3333,73.0,0.0,90.0,0.0,64.0
3334,73.0,120.0,90.0,5.0,64.0
3335,78.0,0.0,90.0,0.0,64.0
3336,78.0,120.0,90.0,5.0,64.0
3337,73.0,120.0,90.0,5.0,64.0
3338,73.0,0.0,90.0,0.0,64.0
3339,37.0,0.0,240.0,10.0,64.0
3340,37.0,0.0,240.0,4.0,64.0
3341,77.0,85.0,240.0,1.0,64.0
3342,77.0,0.0,240.0,6.0,64.0
3343,73.0,0.0,240.0,2.0,64.0
3344,73.0,0.0,240.0,7.0,64.0
3345,49.0,0.0,240.0,8.0,64.0
3346,49.0,0.0,240.0,3.0,64.0
3347,80.0,0.0,90.0,5.0,64.0
3348,80.0,120.0,90.0,0.0,64.0
3349,73.0,35.0,90.0,0.0,64.0
3350,73.0,0.0,90.0,5.0,64.0
3351,78.0,0.0,390.0,1.0,64.0
3352,54.0,0.0,390.0,3.0,64.0
3353,82.0,120.0,90.0,0.0,64.0
3354,42.0,0.0,390.0,4.0,64.0
3355,73.0,0.0,390.0,7.0,64.0
3356,73.0,0.0,390.0,2.0,64.0
3357,82.0,0.0,90.0,5.0,64.0
3358,42.0,0.0,390.0,10.0,64.0
3359,54.0,0.0,390.0,8.0,64.0
3360,78.0,40.0,390.0,6.0,64.0
3361,73.0,0.0,90.0,5.0,64.0
3362,73.0,120.0,90.0,0.0,64.0
3363,82.0,80.0,90.0,0.0,64.0
3364,82.0,0.0,90.0,5.0,64.0
3365,85.0,0.0,90.0,0.0,64.0
3366,85.0,120.0,90.0,5.0,64.0
3367,83.0,0.0,90.0,5.0,64.0
3368,83.0,120.0,90.0,0.0,64.0
3369,80.0,120.0,90.0,0.0,64.0
3370,80.0,0.0,90.0,5.0,64.0
3371,78.0,120.0,90.0,5.0,64.0
3372,61.0,0.0,240.0,8.0,64.0
3373,71.0,0.0,240.0,7.0,64.0
3374,49.0,0.0,240.0,4.0,64.0
3375,61.0,85.0,240.0,3.0,64.0
3376,71.0,0.0,240.0,2.0,64.0
3377,49.0,0.0,240.0,10.0,64.0
3378,78.0,0.0,90.0,0.0,64.0
3379,77.0,0.0,90.0,0.0,64.0
3380,77.0,35.0,90.0,5.0,64.0
3381,54.0,0.0,90.0,8.0,64.0
3382,78.0,160.0,390.0,5.0,64.0
3383,70.0,240.0,90.0,7.0,64.0
3384,90.0,0.0,1320.0,1.0,64.0
3385,78.0,0.0,390.0,0.0,64.0
3386,42.0,0.0,90.0,4.0,64.0
3387,70.0,0.0,90.0,2.0,64.0
3388,90.0,200.0,1320.0,6.0,64.0
3389,42.0,0.0,90.0,10.0,64.0
3390,54.0,0.0,90.0,3.0,64.0
3391,42.0,0.0,90.0,4.0,64.0
3392,42.0,0.0,90.0,10.0,64.0
3393,54.0,80.0,90.0,3.0,64.0
3394,54.0,0.0,90.0,8.0,64.0
3395,70.0,0.0,90.0,2.0,64.0
3396,70.0,0.0,90.0,7.0,64.0
3397,42.0,240.0,90.0,10.0,64.0
3398,54.0,0.0,90.0,3.0,64.0
3399,54.0,0.0,90.0,8.0,64.0
3400,70.0,0.0,90.0,7.0,64.0
3401,70.0,0.0,90.0,2.0,64.0
3402,42.0,0.0,90.0,4.0,64.0
3403,70.0,0.0,90.0,7.0,64.0
3404,42.0,0.0,90.0,10.0,64.0
3405,70.0,240.0,90.0,2.0,64.0
3406,54.0,0.0,90.0,8.0,64.0
3407,42.0,0.0,90.0,4.0,64.0
3408,54.0,0.0,90.0,3.0,64.0
3409,70.0,0.0,90.0,2.0,64.0
3410,70.0,0.0,90.0,7.0,64.0
3411,54.0,0.0,90.0,8.0,64.0
3412,54.0,240.0,90.0,3.0,64.0
3413,42.0,0.0,90.0,10.0,64.0
3414,42.0,0.0,90.0,4.0,64.0
3415,42.0,0.0,90.0,10.0,64.0
3416,54.0,0.0,90.0,8.0,64.0
3417,54.0,0.0,90.0,3.0,64.0
3418,70.0,0.0,90.0,2.0,64.0
3419,42.0,0.0,90.0,4.0,64.0
3420,70.0,40.0,90.0,7.0,64.0
3421,70.0,0.0,90.0,7.0,64.0
3422,70.0,0.0,90.0,2.0,64.0
3423,42.0,0.0,90.0,4.0,64.0
3424,54.0,0.0,90.0,8.0,64.0
3425,85.0,0.0,360.0,6.0,64.0
3426,85.0,120.0,360.0,1.0,64.0
3427,42.0,240.0,90.0,10.0,64.0
3428,54.0,0.0,90.0,3.0,64.0
3429,54.0,0.0,90.0,3.0,64.0
3430,54.0,0.0,90.0,8.0,64.0
3431,70.0,0.0,90.0,2.0,64.0
3432,42.0,35.0,90.0,10.0,64.0
3433,70.0,0.0,90.0,7.0,64.0
3434,42.0,0.0,90.0,4.0,64.0
3435,82.0,0.0,120.0,6.0,64.0
3436,82.0,85.0,120.0,1.0,64.0
3437,42.0,0.0,90.0,10.0,64.0
3438,78.0,0.0,390.0,1.0,64.0
3439,54.0,0.0,90.0,8.0,64.0
3440,70.0,0.0,90.0,2.0,64.0
3441,42.0,0.0,90.0,4.0,64.0
3442,54.0,0.0,90.0,3.0,64.0
3443,70.0,0.0,90.0,7.0,64.0
3444,61.0,0.0,90.0,7.0,64.0
3445,78.0,160.0,390.0,6.0,64.0
3446,61.0,240.0,90.0,2.0,64.0
3447,42.0,0.0,90.0,10.0,64.0
3448,54.0,0.0,90.0,3.0,64.0
3449,70.0,0.0,90.0,2.0,64.0
3450,61.0,0.0,90.0,2.0,64.0
3451,54.0,0.0,90.0,8.0,64.0
3452,61.0,0.0,90.0,7.0,64.0
3453,70.0,0.0,90.0,7.0,64.0
3454,42.0,80.0,90.0,4.0,64.0
3455,73.0,0.0,360.0,1.0,64.0
3456,54.0,0.0,90.0,8.0,64.0
3457,61.0,0.0,90.0,7.0,64.0
3458,70.0,240.0,90.0,7.0,64.0
3459,70.0,0.0,90.0,2.0,64.0
3460,54.0,0.0,90.0,3.0,64.0
3461,61.0,0.0,90.0,2.0,64.0
3462,42.0,0.0,90.0,10.0,64.0
3463,42.0,0.0,90.0,4.0,64.0
3464,73.0,120.0,360.0,6.0,64.0
3465,70.0,0.0,90.0,2.0,64.0
3466,54.0,35.0,90.0,8.0,64.0
3467,42.0,0.0,90.0,10.0,64.0
3468,61.0,0.0,90.0,2.0,64.0
3469,42.0,0.0,90.0,4.0,64.0
3470,61.0,0.0,90.0,7.0,64.0
3471,70.0,0.0,90.0,7.0,64.0
3472,54.0,0.0,90.0,3.0,64.0
3473,70.0,85.0,120.0,6.0,64.0
3474,70.0,0.0,120.0,1.0,64.0
3475,61.0,0.0,90.0,7.0,64.0
3476,54.0,0.0,90.0,8.0,64.0
3477,54.0,0.0,90.0,3.0,64.0
3478,42.0,0.0,90.0,10.0,64.0
3479,66.0,0.0,90.0,6.0,64.0
3480,70.0,0.0,90.0,7.0,64.0
3481,42.0,0.0,90.0,4.0,64.0
3482,61.0,280.0,90.0,2.0,64.0
3483,66.0,0.0,90.0,1.0,64.0
3484,70.0,0.0,90.0,2.0,64.0
3485,54.0,0.0,240.0,8.0,64.0
3486,82.0,0.0,120.0,1.0,64.0
3487,54.0,0.0,240.0,3.0,64.0
3488,82.0,0.0,120.0,6.0,64.0
3489,42.0,80.0,240.0,4.0,64.0
3490,66.0,0.0,120.0,7.0,64.0
3491,66.0,120.0,120.0,2.0,64.0
3492,84.0,0.0,120.0,6.0,64.0
3493,68.0,0.0,120.0,2.0,64.0
3494,84.0,0.0,120.0,1.0,64.0
3495,68.0,0.0,120.0,7.0,64.0
3496,85.0,0.0,90.0,6.0,64.0
3497,42.0,0.0,15.0,10.0,64.0
3498,70.0,0.0,90.0,7.0,64.0
3499,85.0,0.0,90.0,1.0,64.0
3500,54.0,0.0,90.0,3.0,64.0
3501,54.0,0.0,90.0,8.0,64.0
3502,42.0,0.0,90.0,4.0,64.0
3503,70.0,240.0,90.0,2.0,64.0
3504,85.0,0.0,90.0,1.0,64.0
3505,54.0,0.0,90.0,8.0,64.0
3506,54.0,0.0,90.0,3.0,64.0
3507,42.0,190.0,90.0,10.0,64.0
3508,70.0,0.0,90.0,7.0,64.0
3509,42.0,0.0,90.0,4.0,64.0
3510,85.0,0.0,90.0,6.0,64.0
3511,70.0,0.0,90.0,2.0,64.0
3512,63.0,0.0,90.0,7.0,64.0
3513,44.0,0.0,90.0,4.0,64.0
3514,56.0,0.0,90.0,3.0,64.0
3515,85.0,0.0,30.0,1.0,64.0
3516,56.0,0.0,90.0,8.0,64.0
3517,85.0,30.0,30.0,6.0,64.0
3518,63.0,0.0,90.0,2.0,64.0
3519,44.0,10.0,90.0,10.0,64.0
3520,90.0,200.0,1320.0,5.0,64.0
3521,90.0,0.0,1320.0,0.0,64.0
3522,87.0,0.0,30.0,1.0,64.0
3523,87.0,20.0,30.0,6.0,64.0
3524,85.0,0.0,30.0,6.0,64.0
3525,85.0,30.0,30.0,1.0,64.0
3526,87.0,0.0,30.0,6.0,64.0
3527,87.0,120.0,30.0,1.0,64.0
3528,85.0,80.0,120.0,6.0,64.0
3529,85.0,0.0,120.0,1.0,64.0
3530,63.0,0.0,90.0,7.0,64.0
3531,84.0,0.0,240.0,1.0,64.0
3532,44.0,0.0,90.0,4.0,64.0
3533,56.0,0.0,90.0,3.0,64.0
3534,44.0,155.0,90.0,10.0,64.0
3535,84.0,85.0,240.0,6.0,64.0
3536,56.0,0.0,90.0,8.0,64.0
3537,63.0,0.0,90.0,2.0,64.0
3538,44.0,240.0,90.0,4.0,64.0
3539,56.0,0.0,90.0,3.0,64.0
3540,84.0,0.0,390.0,1.0,64.0
3541,63.0,0.0,90.0,7.0,64.0
3542,84.0,160.0,390.0,6.0,64.0
3543,63.0,0.0,90.0,2.0,64.0
3544,56.0,0.0,90.0,8.0,64.0
3545,44.0,0.0,90.0,10.0,64.0
3546,56.0,0.0,90.0,8.0,64.0
3547,63.0,0.0,90.0,7.0,64.0
3548,56.0,0.0,90.0,3.0,64.0
3549,44.0,0.0,90.0,4.0,64.0
3550,63.0,0.0,90.0,2.0,64.0
3551,44.0,80.0,90.0,10.0,64.0
3552,56.0,240.0,90.0,8.0,64.0
3553,63.0,0.0,90.0,7.0,64.0
3554,63.0,0.0,90.0,2.0,64.0
3555,44.0,0.0,90.0,4.0,64.0
3556,44.0,0.0,90.0,10.0,64.0
3557,56.0,0.0,90.0,3.0,64.0
3558,63.0,0.0,90.0,7.0,64.0
3559,56.0,0.0,90.0,3.0,64.0
3560,63.0,0.0,90.0,2.0,64.0
3561,44.0,0.0,90.0,10.0,64.0
3562,56.0,0.0,90.0,8.0,64.0
3563,44.0,40.0,90.0,4.0,64.0
3564,56.0,0.0,90.0,8.0,64.0
3565,44.0,0.0,90.0,10.0,64.0
3566,87.0,0.0,360.0,5.0,64.0
3567,56.0,0.0,90.0,3.0,64.0
3568,63.0,0.0,90.0,2.0,64.0
3569,63.0,0.0,90.0,7.0,64.0
3570,44.0,240.0,90.0,4.0,64.0
3571,87.0,120.0,360.0,0.0,64.0
3572,56.0,0.0,90.0,3.0,64.0
3573,56.0,0.0,90.0,8.0,64.0
3574,44.0,0.0,90.0,4.0,64.0
3575,63.0,35.0,90.0,2.0,64.0
3576,63.0,0.0,90.0,7.0,64.0
3577,44.0,0.0,90.0,10.0,64.0
3578,84.0,0.0,120.0,5.0,64.0
3579,84.0,85.0,120.0,0.0,64.0
3580,72.0,0.0,90.0,2.0,64.0
3581,56.0,0.0,90.0,8.0,64.0
3582,63.0,0.0,90.0,7.0,64.0
3583,78.0,0.0,390.0,0.0,64.0
3584,56.0,0.0,90.0,3.0,64.0
3585,72.0,0.0,90.0,7.0,64.0
3586,44.0,240.0,90.0,10.0,64.0
3587,78.0,160.0,390.0,5.0,64.0
3588,44.0,0.0,90.0,4.0,64.0
3589,63.0,0.0,90.0,2.0,64.0
3590,44.0,0.0,90.0,4.0,64.0
3591,72.0,0.0,90.0,2.0,64.0
3592,44.0,0.0,90.0,10.0,64.0
3593,63.0,0.0,90.0,2.0,64.0
3594,56.0,80.0,90.0,3.0,64.0
3595,63.0,0.0,90.0,7.0,64.0
3596,72.0,0.0,90.0,7.0,64.0
3597,56.0,0.0,90.0,8.0,64.0
3598,56.0,0.0,90.0,3.0,64.0
3599,75.0,120.0,360.0,0.0,64.0
3600,56.0,0.0,90.0,8.0,64.0
3601,72.0,0.0,90.0,2.0,64.0
3602,72.0,0.0,90.0,7.0,64.0
3603,63.0,0.0,90.0,7.0,64.0
3604,44.0,0.0,90.0,10.0,64.0
3605,63.0,0.0,90.0,2.0,64.0
3606,44.0,240.0,90.0,4.0,64.0
3607,75.0,0.0,360.0,5.0,64.0
3608,72.0,0.0,90.0,2.0,64.0
3609,63.0,0.0,90.0,7.0,64.0
3610,63.0,0.0,90.0,2.0,64.0
3611,56.0,0.0,90.0,8.0,64.0
3612,44.0,0.0,90.0,4.0,64.0
3613,72.0,0.0,90.0,7.0,64.0
3614,56.0,0.0,90.0,3.0,64.0
3615,44.0,35.0,90.0,10.0,64.0
3616,72.0,85.0,120.0,5.0,64.0
3617,72.0,0.0,120.0,0.0,64.0
3618,72.0,0.0,90.0,7.0,64.0
3619,63.0,0.0,90.0,7.0,64.0
3620,56.0,155.0,90.0,3.0,64.0
3621,63.0,0.0,90.0,2.0,64.0
3622,72.0,0.0,90.0,2.0,64.0
3623,44.0,0.0,90.0,10.0,64.0
3624,68.0,125.0,240.0,5.0,64.0
3625,68.0,0.0,240.0,0.0,64.0
3626,44.0,0.0,90.0,4.0,64.0
3627,56.0,0.0,90.0,8.0,64.0
3628,75.0,0.0,120.0,5.0,64.0
3629,56.0,0.0,240.0,8.0,64.0
3630,68.0,0.0,390.0,7.0,64.0
3631,72.0,0.0,120.0,6.0,64.0
3632,68.0,160.0,390.0,2.0,64.0
3633,72.0,0.0,120.0,1.0,64.0
3634,75.0,120.0,120.0,0.0,64.0
3635,77.0,0.0,120.0,5.0,64.0
3636,73.0,0.0,120.0,6.0,64.0
3637,77.0,0.0,120.0,0.0,64.0
3638,73.0,0.0,120.0,1.0,64.0
3639,78.0,0.0,90.0,0.0,64.0
3640,75.0,0.0,90.0,1.0,64.0
3641,44.0,0.0,15.0,4.0,64.0
3642,44.0,0.0,15.0,10.0,64.0
3643,75.0,80.0,90.0,6.0,64.0
3644,78.0,0.0,90.0,5.0,64.0
3645,56.0,0.0,90.0,8.0,64.0
3646,56.0,80.0,15.0,3.0,64.0
3647,48.0,0.0,90.0,10.0,64.0
3648,68.0,85.0,480.0,7.0,64.0
3649,60.0,0.0,90.0,8.0,64.0
3650,48.0,0.0,90.0,4.0,64.0
3651,68.0,0.0,480.0,2.0,64.0
3652,60.0,240.0,90.0,3.0,64.0
3653,75.0,0.0,90.0,1.0,64.0
3654,75.0,0.0,90.0,6.0,64.0
3655,78.0,0.0,90.0,5.0,64.0
3656,78.0,0.0,90.0,0.0,64.0
3657,61.0,40.0,90.0,8.0,64.0
3658,49.0,0.0,90.0,10.0,64.0
3659,73.0,40.0,390.0,6.0,64.0
3660,77.0,80.0,120.0,0.0,64.0
3661,73.0,0.0,390.0,1.0,64.0
3662,77.0,0.0,120.0,5.0,64.0
3663,49.0,0.0,90.0,4.0,64.0
3664,61.0,0.0,90.0,3.0,64.0
3665,73.0,0.0,90.0,0.0,64.0
3666,73.0,35.0,90.0,5.0,64.0
3667,75.0,80.0,90.0,0.0,64.0
3668,68.0,0.0,390.0,7.0,64.0
3669,61.0,0.0,90.0,8.0,64.0
3670,49.0,0.0,90.0,10.0,64.0
3671,49.0,0.0,90.0,4.0,64.0
3672,68.0,40.0,390.0,2.0,64.0
3673,61.0,0.0,90.0,3.0,64.0
3674,75.0,0.0,90.0,5.0,64.0
3675,77.0,0.0,90.0,5.0,64.0
3676,77.0,120.0,90.0,0.0,64.0
3677,61.0,0.0,90.0,8.0,64.0
3678,78.0,0.0,90.0,5.0,64.0
3679,49.0,0.0,90.0,10.0,64.0
3680,49.0,80.0,90.0,4.0,64.0
3681,61.0,0.0,90.0,3.0,64.0
3682,78.0,0.0,90.0,0.0,64.0
3683,80.0,0.0,90.0,0.0,64.0
3684,80.0,120.0,90.0,5.0,64.0
3685,82.0,0.0,90.0,0.0,64.0
3686,68.0,40.0,390.0,7.0,64.0
3687,61.0,0.0,90.0,3.0,64.0
3688,82.0,0.0,90.0,5.0,64.0
3689,49.0,0.0,90.0,10.0,64.0
3690,68.0,0.0,390.0,2.0,64.0
3691,61.0,120.0,90.0,8.0,64.0
3692,49.0,0.0,90.0,4.0,64.0
3693,84.0,0.0,90.0,5.0,64.0
3694,84.0,120.0,90.0,0.0,64.0
3695,85.0,0.0,90.0,5.0,64.0
3696,53.0,0.0,90.0,10.0,64.0
3697,65.0,0.0,90.0,8.0,64.0
3698,53.0,80.0,90.0,4.0,64.0
3699,65.0,0.0,90.0,3.0,64.0
3700,85.0,0.0,90.0,0.0,64.0
3701,87.0,0.0,90.0,0.0,64.0
3702,87.0,120.0,90.0,5.0,64.0
3703,89.0,120.0,90.0,5.0,64.0
3704,68.0,0.0,390.0,2.0,64.0
3705,68.0,40.0,390.0,7.0,64.0
3706,53.0,0.0,90.0,10.0,64.0
3707,65.0,0.0,90.0,8.0,64.0
3708,89.0,0.0,90.0,0.0,64.0
3709,65.0,0.0,90.0,3.0,64.0
3710,53.0,0.0,90.0,4.0,64.0
3711,87.0,0.0,90.0,0.0,64.0
3712,87.0,120.0,90.0,5.0,64.0
3713,85.0,0.0,90.0,5.0,64.0
3714,53.0,0.0,90.0,4.0,64.0
3715,65.0,0.0,90.0,3.0,64.0
3716,53.0,80.0,90.0,10.0,64.0
3717,65.0,0.0,90.0,8.0,64.0
3718,85.0,0.0,90.0,0.0,64.0
3719,84.0,0.0,90.0,0.0,64.0
3720,84.0,120.0,90.0,5.0,64.0
3721,53.0,0.0,90.0,10.0,64.0
3722,82.0,0.0,90.0,5.0,64.0
3723,53.0,0.0,90.0,4.0,64.0
3724,65.0,0.0,90.0,3.0,64.0
3725,68.0,0.0,480.0,2.0,64.0
3726,82.0,0.0,90.0,0.0,64.0
3727,68.0,85.0,480.0,7.0,64.0
3728,65.0,120.0,90.0,8.0,64.0
3729,80.0,0.0,90.0,0.0,64.0
3730,80.0,120.0,90.0,5.0,64.0
3731,63.0,0.0,90.0,8.0,64.0
3732,78.0,0.0,120.0,0.0,64.0
3733,51.0,0.0,90.0,4.0,64.0
3734,63.0,40.0,90.0,3.0,64.0
3735,51.0,0.0,90.0,10.0,64.0
3736,78.0,80.0,120.0,5.0,64.0
3737,75.0,35.0,90.0,5.0,64.0
3738,75.0,0.0,90.0,0.0,64.0
3739,51.0,120.0,90.0,10.0,64.0
3740,68.0,0.0,390.0,7.0,64.0
3741,63.0,0.0,90.0,3.0,64.0
3742,51.0,0.0,90.0,4.0,64.0
3743,77.0,0.0,90.0,5.0,64.0
3744,68.0,40.0,390.0,2.0,64.0
3745,63.0,0.0,90.0,8.0,64.0
3746,77.0,0.0,90.0,0.0,64.0
3747,78.0,0.0,90.0,5.0,64.0
3748,78.0,120.0,90.0,0.0,64.0
3749,51.0,0.0,90.0,4.0,64.0
3750,80.0,0.0,90.0,5.0,64.0
3751,63.0,80.0,90.0,8.0,64.0
3752,51.0,0.0,90.0,10.0,64.0
3753,63.0,0.0,90.0,3.0,64.0
3754,80.0,0.0,90.0,0.0,64.0
3755,82.0,120.0,90.0,0.0,64.0
3756,82.0,0.0,90.0,5.0,64.0
3757,51.0,0.0,90.0,10.0,64.0
3758,84.0,0.0,90.0,5.0,64.0
3759,63.0,120.0,90.0,3.0,64.0
3760,63.0,0.0,90.0,8.0,64.0
3761,84.0,0.0,90.0,0.0,64.0
3762,68.0,40.0,390.0,2.0,64.0
3763,68.0,0.0,390.0,7.0,64.0
3764,51.0,0.0,90.0,4.0,64.0
3765,85.0,0.0,90.0,0.0,64.0
3766,85.0,120.0,90.0,5.0,64.0
3767,87.0,0.0,90.0,0.0,64.0
3768,60.0,80.0,90.0,3.0,64.0
3769,60.0,0.0,90.0,8.0,64.0
3770,87.0,0.0,90.0,5.0,64.0
3771,48.0,0.0,90.0,10.0,64.0
3772,48.0,0.0,90.0,4.0,64.0
3773,85.0,120.0,90.0,0.0,64.0
3774,85.0,0.0,90.0,5.0,64.0
3775,84.0,0.0,90.0,0.0,64.0
3776,84.0,0.0,90.0,5.0,64.0
3777,48.0,0.0,90.0,4.0,64.0
3778,48.0,0.0,90.0,10.0,64.0
3779,68.0,40.0,390.0,7.0,64.0
3780,60.0,120.0,90.0,3.0,64.0
3781,60.0,0.0,90.0,8.0,64.0
3782,68.0,0.0,390.0,2.0,64.0
3783,85.0,0.0,90.0,5.0,64.0
3784,85.0,120.0,90.0,0.0,64.0
3785,48.0,0.0,90.0,10.0,64.0
3786,60.0,0.0,90.0,3.0,64.0
3787,60.0,80.0,90.0,8.0,64.0
3788,48.0,0.0,90.0,4.0,64.0
3789,84.0,0.0,90.0,5.0,64.0
3790,84.0,0.0,90.0,0.0,64.0
3791,82.0,120.0,90.0,0.0,64.0
3792,82.0,0.0,90.0,5.0,64.0
3793,80.0,0.0,90.0,0.0,64.0
3794,60.0,0.0,90.0,8.0,64.0
3795,60.0,120.0,90.0,3.0,64.0
3796,80.0,0.0,90.0,5.0,64.0
3797,48.0,0.0,90.0,4.0,64.0
3798,68.0,0.0,90.0,2.0,64.0
3799,48.0,0.0,90.0,10.0,64.0
3800,68.0,0.0,90.0,7.0,64.0
3801,78.0,0.0,90.0,5.0,64.0
3802,78.0,120.0,90.0,0.0,64.0
3803,49.0,0.0,90.0,10.0,64.0
3804,77.0,0.0,120.0,5.0,64.0
3805,68.0,0.0,390.0,2.0,64.0
3806,61.0,0.0,90.0,3.0,64.0
3807,77.0,85.0,120.0,0.0,64.0
3808,68.0,40.0,390.0,7.0,64.0
3809,49.0,0.0,90.0,4.0,64.0
3810,61.0,35.0,90.0,8.0,64.0
3811,73.0,120.0,90.0,1.0,64.0
3812,73.0,0.0,90.0,6.0,64.0
3813,49.0,0.0,90.0,10.0,64.0
3814,49.0,0.0,90.0,4.0,64.0
3815,61.0,0.0,90.0,3.0,64.0
3816,61.0,0.0,90.0,8.0,64.0
3817,75.0,0.0,90.0,6.0,64.0
3818,75.0,80.0,90.0,1.0,64.0
3819,77.0,0.0,90.0,6.0,64.0
3820,77.0,120.0,90.0,1.0,64.0
3821,49.0,0.0,90.0,10.0,64.0
3822,61.0,0.0,90.0,3.0,64.0
3823,80.0,240.0,3450.0,5.0,64.0
3824,49.0,120.0,90.0,4.0,64.0
3825,61.0,0.0,90.0,8.0,64.0
3826,78.0,0.0,90.0,6.0,64.0
3827,80.0,0.0,3450.0,0.0,64.0
3828,78.0,0.0,90.0,1.0,64.0
3829,80.0,0.0,90.0,6.0,64.0
3830,80.0,120.0,90.0,1.0,64.0
3831,61.0,120.0,90.0,8.0,64.0
3832,61.0,0.0,90.0,3.0,64.0
3833,49.0,0.0,90.0,4.0,64.0
3834,82.0,0.0,90.0,1.0,64.0
3835,82.0,0.0,90.0,6.0,64.0
3836,49.0,0.0,90.0,10.0,64.0
3837,84.0,120.0,90.0,1.0,64.0
3838,84.0,0.0,90.0,6.0,64.0
3839,85.0,0.0,90.0,1.0,64.0
3840,85.0,0.0,90.0,6.0,64.0
3841,65.0,120.0,90.0,3.0,64.0
3842,65.0,0.0,90.0,8.0,64.0
3843,53.0,0.0,90.0,10.0,64.0
3844,53.0,0.0,90.0,4.0,64.0
3845,87.0,0.0,90.0,1.0,64.0
3846,87.0,120.0,90.0,6.0,64.0
3847,53.0,120.0,90.0,10.0,64.0
3848,65.0,0.0,90.0,3.0,64.0
3849,89.0,0.0,90.0,1.0,64.0
3850,65.0,0.0,90.0,8.0,64.0
3851,53.0,0.0,90.0,4.0,64.0
3852,89.0,0.0,90.0,6.0,64.0
3853,87.0,120.0,90.0,6.0,64.0
3854,87.0,0.0,90.0,1.0,64.0
3855,65.0,0.0,90.0,8.0,64.0
3856,53.0,120.0,90.0,4.0,64.0
3857,65.0,0.0,90.0,3.0,64.0
3858,85.0,0.0,90.0,1.0,64.0
3859,53.0,0.0,90.0,10.0,64.0
3860,85.0,0.0,90.0,6.0,64.0
3861,84.0,120.0,90.0,1.0,64.0
3862,84.0,0.0,90.0,6.0,64.0
3863,82.0,0.0,90.0,6.0,64.0
3864,65.0,120.0,90.0,3.0,64.0
3865,53.0,0.0,90.0,10.0,64.0
3866,82.0,0.0,90.0,1.0,64.0
3867,53.0,0.0,90.0,4.0,64.0
3868,65.0,0.0,90.0,8.0,64.0
3869,80.0,0.0,90.0,1.0,64.0
3870,80.0,120.0,90.0,6.0,64.0
3871,78.0,0.0,90.0,6.0,64.0
3872,51.0,0.0,90.0,4.0,64.0
3873,63.0,0.0,90.0,8.0,64.0
3874,78.0,0.0,90.0,1.0,64.0
3875,72.0,80.0,1920.0,7.0,64.0
3876,72.0,0.0,1920.0,2.0,64.0
3877,63.0,120.0,90.0,3.0,64.0
3878,51.0,0.0,90.0,10.0,64.0
3879,75.0,120.0,90.0,1.0,64.0
3880,75.0,0.0,90.0,6.0,64.0
3881,63.0,0.0,90.0,3.0,64.0
3882,51.0,0.0,90.0,4.0,64.0
3883,51.0,0.0,90.0,10.0,64.0
3884,77.0,0.0,90.0,6.0,64.0
3885,77.0,120.0,90.0,1.0,64.0
3886,63.0,0.0,90.0,8.0,64.0
3887,78.0,0.0,90.0,1.0,64.0
3888,78.0,120.0,90.0,6.0,64.0
3889,80.0,120.0,90.0,1.0,64.0
3890,80.0,0.0,90.0,6.0,64.0
3891,51.0,0.0,90.0,10.0,64.0
3892,51.0,0.0,90.0,4.0,64.0
3893,63.0,0.0,90.0,8.0,64.0
3894,63.0,0.0,90.0,3.0,64.0
3895,82.0,0.0,90.0,1.0,64.0
3896,82.0,120.0,90.0,6.0,64.0
3897,51.0,0.0,90.0,4.0,64.0
3898,84.0,120.0,90.0,1.0,64.0
3899,84.0,0.0,90.0,6.0,64.0
3900,63.0,0.0,90.0,8.0,64.0
3901,51.0,0.0,90.0,10.0,64.0
3902,63.0,0.0,90.0,3.0,64.0
3903,85.0,0.0,90.0,6.0,64.0
3904,85.0,120.0,90.0,1.0,64.0
3905,44.0,0.0,90.0,4.0,64.0
3906,56.0,0.0,90.0,8.0,64.0
3907,44.0,120.0,90.0,10.0,64.0
3908,87.0,0.0,90.0,1.0,64.0
3909,87.0,0.0,90.0,6.0,64.0
3910,56.0,0.0,90.0,3.0,64.0
3911,85.0,0.0,90.0,6.0,64.0
3912,85.0,120.0,90.0,1.0,64.0
3913,84.0,0.0,90.0,6.0,64.0
3914,56.0,120.0,90.0,8.0,64.0
3915,44.0,0.0,90.0,10.0,64.0
3916,84.0,0.0,90.0,1.0,64.0
3917,44.0,0.0,90.0,4.0,64.0
3918,56.0,0.0,90.0,3.0,64.0
3919,85.0,120.0,90.0,6.0,64.0
3920,85.0,0.0,90.0,1.0,64.0
3921,84.0,0.0,90.0,6.0,64.0
3922,56.0,0.0,90.0,3.0,64.0
3923,44.0,0.0,90.0,10.0,64.0
3924,44.0,0.0,90.0,4.0,64.0
3925,84.0,120.0,90.0,1.0,64.0
3926,56.0,0.0,90.0,8.0,64.0
3927,82.0,0.0,90.0,1.0,64.0
3928,82.0,120.0,90.0,6.0,64.0
3929,44.0,0.0,90.0,4.0,64.0
3930,44.0,0.0,90.0,10.0,64.0
3931,80.0,0.0,90.0,6.0,64.0
3932,56.0,0.0,90.0,3.0,64.0
3933,56.0,0.0,90.0,8.0,64.0
3934,80.0,120.0,90.0,1.0,64.0
3935,78.0,0.0,90.0,1.0,64.0
3936,78.0,40.0,90.0,6.0,64.0
3937,77.0,0.0,90.0,1.0,64.0
3938,49.0,0.0,390.0,8.0,64.0
3939,37.0,0.0,390.0,10.0,64.0
3940,49.0,0.0,390.0,3.0,64.0
3941,37.0,0.0,390.0,4.0,64.0
3942,73.0,0.0,390.0,7.0,64.0
3943,73.0,160.0,390.0,2.0,64.0
3944,77.0,0.0,90.0,6.0,64.0
3945,85.0,80.0,90.0,6.0,64.0
3946,85.0,0.0,90.0,1.0,64.0
3947,73.0,0.0,90.0,1.0,64.0
3948,73.0,220.0,90.0,6.0,64.0
3949,75.0,0.0,60.0,1.0,64.0
3950,75.0,60.0,60.0,6.0,64.0
3951,77.0,60.0,60.0,1.0,64.0
3952,77.0,0.0,60.0,6.0,64.0
3953,75.0,60.0,60.0,1.0,64.0
3954,75.0,0.0,60.0,6.0,64.0
3955,77.0,0.0,15.0,1.0,64.0
3956,77.0,80.0,15.0,6.0,64.0
3957,85.0,0.0,90.0,1.0,64.0
3958,85.0,0.0,90.0,5.0,64.0
3959,85.0,0.0,90.0,6.0,64.0
3960,85.0,240.0,90.0,0.0,64.0
3961,77.0,0.0,90.0,6.0,64.0
3962,73.0,220.0,90.0,5.0,64.0
3963,77.0,0.0,90.0,1.0,64.0
3964,73.0,0.0,90.0,0.0,64.0
3965,78.0,0.0,60.0,6.0,64.0
3966,78.0,0.0,60.0,1.0,64.0
3967,75.0,0.0,60.0,5.0,64.0
3968,75.0,60.0,60.0,0.0,64.0
3969,80.0,0.0,60.0,6.0,64.0
3970,77.0,0.0,60.0,5.0,64.0
3971,77.0,0.0,60.0,0.0,64.0
3972,80.0,60.0,60.0,1.0,64.0
3973,78.0,0.0,60.0,6.0,64.0
3974,75.0,55.0,60.0,0.0,64.0
3975,78.0,0.0,60.0,1.0,64.0
3976,75.0,0.0,60.0,5.0,64.0
3977,77.0,5.0,60.0,5.0,64.0
3978,80.0,0.0,60.0,6.0,64.0
3979,80.0,80.0,60.0,1.0,64.0
3980,77.0,0.0,60.0,0.0,64.0
3981,77.0,0.0,90.0,0.0,64.0
3982,77.0,240.0,90.0,5.0,64.0
3983,77.0,0.0,90.0,1.0,64.0
3984,77.0,0.0,90.0,6.0,64.0
3985,77.0,0.0,90.0,0.0,64.0
3986,73.0,0.0,90.0,7.0,64.0
3987,85.0,55.0,480.0,1.0,64.0
3988,73.0,240.0,90.0,2.0,64.0
3989,77.0,0.0,90.0,5.0,64.0
3990,85.0,0.0,480.0,6.0,64.0
3991,80.0,0.0,90.0,0.0,64.0
3992,61.0,160.0,90.0,7.0,64.0
3993,80.0,0.0,90.0,5.0,64.0
3994,61.0,0.0,90.0,2.0,64.0
3995,84.0,0.0,240.0,6.0,64.0
3996,63.0,0.0,60.0,7.0,64.0
3997,84.0,5.0,240.0,1.0,64.0
3998,78.0,0.0,90.0,0.0,64.0
3999,78.0,40.0,90.0,5.0,64.0
4000,63.0,25.0,60.0,2.0,64.0
4001,65.0,60.0,60.0,7.0,64.0
4002,65.0,0.0,60.0,2.0,64.0
4003,63.0,0.0,60.0,2.0,64.0
4004,63.0,55.0,60.0,7.0,64.0
4005,80.0,0.0,90.0,0.0,64.0
4006,80.0,0.0,90.0,5.0,64.0
4007,65.0,0.0,15.0,2.0,64.0
4008,85.0,0.0,90.0,6.0,64.0
4009,65.0,80.0,15.0,7.0,64.0
4010,85.0,240.0,90.0,1.0,64.0
4011,89.0,0.0,90.0,0.0,64.0
4012,61.0,0.0,90.0,8.0,64.0
4013,49.0,0.0,90.0,4.0,64.0
4014,68.0,0.0,480.0,2.0,64.0
4015,80.0,0.0,240.0,6.0,64.0
4016,49.0,0.0,90.0,10.0,64.0
4017,68.0,0.0,480.0,7.0,64.0
4018,61.0,120.0,90.0,3.0,64.0
4019,80.0,80.0,240.0,1.0,64.0
4020,89.0,0.0,90.0,5.0,64.0
4021,85.0,0.0,90.0,5.0,64.0
4022,85.0,40.0,90.0,0.0,64.0
4023,49.0,0.0,90.0,3.0,64.0
4024,80.0,0.0,90.0,5.0,64.0
4025,77.0,60.0,240.0,6.0,64.0
4026,37.0,0.0,90.0,10.0,64.0
4027,37.0,0.0,90.0,4.0,64.0
4028,80.0,0.0,90.0,0.0,64.0
4029,49.0,160.0,90.0,8.0,64.0
4030,77.0,0.0,240.0,1.0,64.0
4031,75.0,0.0,240.0,6.0,64.0
4032,39.0,0.0,60.0,10.0,64.0
4033,78.0,40.0,90.0,5.0,64.0
4034,51.0,0.0,60.0,8.0,64.0
4035,72.0,0.0,240.0,2.0,64.0
4036,72.0,5.0,240.0,7.0,64.0
4037,78.0,0.0,90.0,0.0,64.0
4038,39.0,20.0,60.0,4.0,64.0
4039,75.0,0.0,240.0,1.0,64.0
4040,51.0,0.0,60.0,3.0,64.0
4041,53.0,0.0,60.0,8.0,64.0
4042,53.0,60.0,60.0,3.0,64.0
4043,41.0,0.0,60.0,10.0,64.0
4044,41.0,0.0,60.0,4.0,64.0
4045,39.0,55.0,60.0,10.0,64.0
4046,51.0,0.0,60.0,8.0,64.0
4047,39.0,0.0,60.0,4.0,64.0
4048,51.0,0.0,60.0,3.0,64.0
4049,53.0,0.0,60.0,8.0,64.0
4050,53.0,0.0,60.0,3.0,64.0
4051,41.0,0.0,60.0,10.0,64.0
4052,53.0,0.0,90.0,3.0,64.0
4053,73.0,0.0,90.0,6.0,64.0
4054,53.0,0.0,90.0,8.0,64.0
4055,73.0,0.0,390.0,7.0,64.0
4056,73.0,240.0,90.0,1.0,64.0
4057,41.0,80.0,15.0,4.0,64.0
4058,73.0,160.0,390.0,2.0,64.0
4059,77.0,0.0,90.0,5.0,64.0
4060,41.0,0.0,90.0,10.0,64.0
4061,77.0,0.0,90.0,0.0,64.0
4062,41.0,80.0,90.0,4.0,64.0
4063,53.0,0.0,90.0,3.0,64.0
4064,77.0,0.0,390.0,1.0,64.0
4065,53.0,0.0,90.0,8.0,64.0
4066,41.0,0.0,90.0,10.0,64.0
4067,77.0,160.0,390.0,6.0,64.0
4068,80.0,0.0,90.0,0.0,64.0
4069,80.0,0.0,90.0,5.0,64.0
4070,41.0,0.0,90.0,10.0,64.0
4071,85.0,0.0,630.0,0.0,64.0
4072,41.0,80.0,90.0,4.0,64.0
4073,53.0,0.0,90.0,8.0,64.0
4074,85.0,0.0,630.0,5.0,64.0
4075,53.0,0.0,90.0,3.0,64.0
4076,80.0,160.0,390.0,1.0,64.0
4077,41.0,0.0,90.0,4.0,64.0
4078,53.0,240.0,90.0,8.0,64.0
4079,53.0,0.0,90.0,3.0,64.0
4080,80.0,0.0,390.0,6.0,64.0
4081,73.0,0.0,390.0,2.0,64.0
4082,73.0,0.0,390.0,7.0,64.0
4083,41.0,0.0,90.0,10.0,64.0
4084,41.0,0.0,90.0,10.0,64.0
4085,53.0,80.0,90.0,3.0,64.0
4086,41.0,0.0,90.0,4.0,64.0
4087,53.0,0.0,90.0,8.0,64.0
4088,41.0,0.0,90.0,4.0,64.0
4089,53.0,0.0,90.0,3.0,64.0
4090,41.0,0.0,90.0,10.0,64.0
4091,53.0,160.0,90.0,8.0,64.0
4092,73.0,0.0,390.0,1.0,64.0
4093,73.0,80.0,390.0,6.0,64.0
4094,83.0,80.0,240.0,5.0,64.0
4095,68.0,0.0,240.0,7.0,64.0
4096,83.0,0.0,240.0,0.0,64.0
4097,68.0,0.0,240.0,2.0,64.0
4098,82.0,0.0,240.0,5.0,64.0
4099,41.0,80.0,90.0,10.0,64.0
4100,41.0,0.0,90.0,4.0,64.0
4101,66.0,0.0,240.0,2.0,64.0
4102,53.0,0.0,90.0,8.0,64.0
4103,66.0,80.0,240.0,7.0,64.0
4104,82.0,0.0,240.0,0.0,64.0
4105,53.0,0.0,90.0,3.0,64.0
4106,53.0,0.0,90.0,3.0,64.0
4107,81.0,0.0,240.0,5.0,64.0
4108,73.0,5.0,240.0,1.0,64.0
4109,73.0,0.0,240.0,6.0,64.0
4110,41.0,0.0,90.0,10.0,64.0
4111,65.0,0.0,240.0,7.0,64.0
4112,53.0,0.0,90.0,8.0,64.0
4113,65.0,0.0,240.0,2.0,64.0
4114,41.0,155.0,90.0,4.0,64.0
4115,73.0,0.0,240.0,1.0,64.0
4116,66.0,85.0,240.0,7.0,64.0
4117,54.0,0.0,90.0,3.0,64.0
4118,42.0,40.0,90.0,4.0,64.0
4119,66.0,0.0,240.0,2.0,64.0
4120,81.0,80.0,15.0,0.0,64.0
4121,42.0,0.0,90.0,10.0,64.0
4122,54.0,0.0,90.0,8.0,64.0
4123,73.0,0.0,240.0,6.0,64.0
4124,81.0,0.0,120.0,5.0,64.0
4125,82.0,75.0,750.0,0.0,64.0
4126,82.0,0.0,750.0,5.0,64.0
4127,73.0,85.0,240.0,1.0,64.0
4128,54.0,155.0,90.0,3.0,64.0
4129,66.0,0.0,240.0,7.0,64.0
4130,42.0,0.0,90.0,10.0,64.0
4131,73.0,0.0,240.0,6.0,64.0
4132,66.0,0.0,240.0,2.0,64.0
4133,42.0,0.0,90.0,4.0,64.0
4134,54.0,0.0,90.0,8.0,64.0
4135,66.0,0.0,240.0,7.0,64.0
4136,66.0,0.0,240.0,2.0,64.0
4137,54.0,155.0,90.0,3.0,64.0
4138,73.0,0.0,240.0,6.0,64.0
4139,42.0,0.0,90.0,4.0,64.0
4140,42.0,0.0,90.0,10.0,64.0
4141,73.0,85.0,240.0,1.0,64.0
4142,54.0,0.0,90.0,8.0,64.0
4143,42.0,80.0,90.0,4.0,64.0
4144,66.0,85.0,240.0,2.0,64.0
4145,66.0,0.0,240.0,7.0,64.0
4146,73.0,0.0,240.0,6.0,64.0
4147,54.0,0.0,90.0,8.0,64.0
4148,73.0,0.0,240.0,1.0,64.0
4149,42.0,0.0,90.0,10.0,64.0
4150,54.0,0.0,90.0,3.0,64.0
4151,73.0,0.0,240.0,1.0,64.0
4152,66.0,0.0,240.0,2.0,64.0
4153,73.0,85.0,240.0,6.0,64.0
4154,66.0,0.0,240.0,7.0,64.0
4155,54.0,0.0,90.0,3.0,64.0
4156,42.0,40.0,90.0,4.0,64.0
4157,81.0,0.0,120.0,0.0,64.0
4158,42.0,0.0,90.0,10.0,64.0
4159,54.0,0.0,90.0,8.0,64.0
4160,81.0,115.0,120.0,5.0,64.0
4161,82.0,85.0,360.0,5.0,64.0
4162,82.0,0.0,360.0,0.0,64.0
4163,66.0,0.0,240.0,7.0,64.0
4164,73.0,0.0,240.0,6.0,64.0
4165,42.0,0.0,90.0,10.0,64.0
4166,73.0,0.0,240.0,1.0,64.0
4167,54.0,0.0,90.0,8.0,64.0
4168,54.0,0.0,90.0,3.0,64.0
4169,66.0,0.0,240.0,2.0,64.0
4170,42.0,155.0,90.0,4.0,64.0
4171,42.0,0.0,90.0,4.0,64.0
4172,42.0,0.0,90.0,10.0,64.0
4173,54.0,0.0,90.0,8.0,64.0
4174,66.0,85.0,240.0,7.0,64.0
4175,54.0,40.0,90.0,3.0,64.0
4176,73.0,0.0,240.0,1.0,64.0
4177,66.0,0.0,240.0,2.0,64.0
4178,73.0,0.0,240.0,6.0,64.0
4179,81.0,0.0,120.0,5.0,64.0
4180,81.0,115.0,120.0,0.0,64.0
4181,82.0,0.0,360.0,0.0,64.0
4182,82.0,0.0,360.0,5.0,64.0
4183,73.0,0.0,240.0,6.0,64.0
4184,54.0,0.0,90.0,8.0,64.0
4185,42.0,155.0,90.0,10.0,64.0
4186,42.0,0.0,90.0,4.0,64.0
4187,54.0,0.0,90.0,3.0,64.0
4188,66.0,0.0,240.0,2.0,64.0
4189,73.0,85.0,240.0,1.0,64.0
4190,66.0,0.0,240.0,7.0,64.0
4191,44.0,0.0,90.0,4.0,64.0
4192,56.0,0.0,90.0,3.0,64.0
4193,62.0,80.0,1920.0,0.0,64.0
4194,71.0,0.0,240.0,6.0,64.0
4195,44.0,0.0,90.0,10.0,64.0
4196,62.0,0.0,1920.0,5.0,64.0
4197,56.0,155.0,90.0,8.0,64.0
4198,68.0,0.0,240.0,7.0,64.0
4199,68.0,85.0,240.0,2.0,64.0
4200,71.0,0.0,240.0,1.0,64.0
4201,44.0,0.0,90.0,10.0,64.0
4202,71.0,0.0,240.0,6.0,64.0
4203,56.0,0.0,90.0,3.0,64.0
4204,71.0,0.0,240.0,1.0,64.0
4205,56.0,155.0,90.0,8.0,64.0
4206,65.0,85.0,240.0,7.0,64.0
4207,65.0,0.0,240.0,2.0,64.0
4208,44.0,0.0,90.0,4.0,64.0
4209,44.0,155.0,90.0,4.0,64.0
4210,71.0,85.0,240.0,6.0,64.0
4211,56.0,0.0,90.0,3.0,64.0
4212,71.0,0.0,240.0,1.0,64.0
4213,65.0,0.0,240.0,7.0,64.0
4214,44.0,0.0,90.0,10.0,64.0
4215,65.0,0.0,240.0,2.0,64.0
4216,56.0,0.0,90.0,8.0,64.0
4217,44.0,0.0,90.0,4.0,64.0
4218,44.0,0.0,90.0,10.0,64.0
4219,71.0,85.0,240.0,1.0,64.0
4220,71.0,0.0,240.0,6.0,64.0
4221,65.0,0.0,240.0,2.0,64.0
4222,65.0,0.0,240.0,7.0,64.0
4223,56.0,0.0,90.0,3.0,64.0
4224,56.0,155.0,90.0,8.0,64.0
4225,44.0,0.0,90.0,4.0,64.0
4226,65.0,0.0,240.0,2.0,64.0
4227,44.0,155.0,90.0,10.0,64.0
4228,56.0,0.0,90.0,8.0,64.0
4229,56.0,0.0,90.0,3.0,64.0
4230,71.0,0.0,240.0,1.0,64.0
4231,71.0,85.0,240.0,6.0,64.0
4232,65.0,0.0,240.0,7.0,64.0
4233,65.0,0.0,240.0,7.0,64.0
4234,71.0,0.0,240.0,1.0,64.0
4235,65.0,0.0,240.0,2.0,64.0
4236,44.0,0.0,90.0,10.0,64.0
4237,56.0,0.0,90.0,8.0,64.0
4238,44.0,0.0,90.0,4.0,64.0
4239,71.0,85.0,240.0,6.0,64.0
4240,56.0,155.0,90.0,3.0,64.0
4241,71.0,0.0,240.0,6.0,64.0
4242,65.0,85.0,240.0,7.0,64.0
4243,56.0,0.0,90.0,3.0,64.0
4244,65.0,0.0,240.0,2.0,64.0
4245,44.0,0.0,90.0,10.0,64.0
4246,71.0,0.0,240.0,1.0,64.0
4247,56.0,155.0,90.0,8.0,64.0
4248,44.0,0.0,90.0,4.0,64.0
4249,71.0,0.0,240.0,1.0,64.0
4250,71.0,0.0,240.0,6.0,64.0
4251,44.0,0.0,90.0,4.0,64.0
4252,56.0,155.0,90.0,3.0,64.0
4253,65.0,0.0,240.0,7.0,64.0
4254,56.0,0.0,90.0,8.0,64.0
4255,44.0,0.0,90.0,10.0,64.0
4256,65.0,5.0,240.0,2.0,64.0
4257,63.0,0.0,840.0,5.0,64.0
4258,63.0,115.0,840.0,0.0,64.0
4259,42.0,155.0,90.0,4.0,64.0
4260,70.0,0.0,240.0,6.0,64.0
4261,54.0,0.0,90.0,3.0,64.0
4262,42.0,0.0,90.0,10.0,64.0
4263,70.0,0.0,240.0,1.0,64.0
4264,66.0,0.0,240.0,2.0,64.0
4265,54.0,0.0,90.0,8.0,64.0
4266,66.0,85.0,240.0,7.0,64.0
4267,70.0,85.0,240.0,1.0,64.0
4268,42.0,155.0,90.0,10.0,64.0
4269,42.0,0.0,90.0,4.0,64.0
4270,54.0,0.0,90.0,8.0,64.0
4271,54.0,0.0,90.0,3.0,64.0
4272,70.0,0.0,240.0,6.0,64.0
4273,66.0,0.0,240.0,2.0,64.0
4274,66.0,0.0,240.0,7.0,64.0
4275,54.0,0.0,90.0,3.0,64.0
4276,42.0,155.0,90.0,10.0,64.0
4277,66.0,85.0,240.0,7.0,64.0
4278,66.0,0.0,240.0,2.0,64.0
4279,70.0,0.0,240.0,6.0,64.0
4280,54.0,0.0,90.0,8.0,64.0
4281,42.0,0.0,90.0,4.0,64.0
4282,70.0,0.0,240.0,1.0,64.0
4283,66.0,0.0,240.0,2.0,64.0
4284,70.0,85.0,240.0,6.0,64.0
4285,42.0,40.0,90.0,10.0,64.0
4286,70.0,0.0,240.0,1.0,64.0
4287,54.0,0.0,90.0,8.0,64.0
4288,66.0,0.0,240.0,7.0,64.0
4289,54.0,0.0,90.0,3.0,64.0
4290,42.0,0.0,90.0,4.0,64.0
4291,42.0,0.0,90.0,4.0,64.0
4292,42.0,0.0,90.0,10.0,64.0
4293,82.0,0.0,420.0,0.0,64.0
4294,63.0,0.0,240.0,6.0,64.0
4295,66.0,0.0,240.0,2.0,64.0
4296,54.0,0.0,90.0,3.0,64.0
4297,66.0,85.0,240.0,7.0,64.0
4298,63.0,0.0,240.0,1.0,64.0
4299,82.0,55.0,420.0,5.0,64.0
4300,54.0,155.0,90.0,8.0,64.0
4301,42.0,0.0,90.0,4.0,64.0
4302,66.0,0.0,240.0,7.0,64.0
4303,63.0,0.0,240.0,1.0,64.0
4304,66.0,0.0,240.0,2.0,64.0
4305,63.0,85.0,240.0,6.0,64.0
4306,54.0,100.0,90.0,3.0,64.0
4307,42.0,0.0,90.0,10.0,64.0
4308,54.0,0.0,90.0,8.0,64.0
4309,54.0,155.0,90.0,8.0,64.0
4310,63.0,0.0,240.0,7.0,64.0
4311,68.0,0.0,240.0,1.0,64.0
4312,84.0,0.0,420.0,5.0,64.0
4313,54.0,0.0,90.0,3.0,64.0
4314,63.0,85.0,240.0,2.0,64.0
4315,84.0,55.0,420.0,0.0,64.0
4316,42.0,0.0,90.0,10.0,64.0
4317,42.0,0.0,90.0,4.0,64.0
4318,68.0,0.0,240.0,6.0,64.0
4319,68.0,0.0,240.0,6.0,64.0
4320,63.0,0.0,240.0,7.0,64.0
4321,68.0,245.0,240.0,1.0,64.0
4322,54.0,0.0,90.0,3.0,64.0
4323,42.0,0.0,90.0,4.0,64.0
4324,54.0,100.0,90.0,8.0,64.0
4325,63.0,0.0,240.0,2.0,64.0
4326,42.0,0.0,90.0,10.0,64.0
4327,65.0,80.0,240.0,7.0,64.0
4328,68.0,0.0,240.0,6.0,64.0
4329,68.0,0.0,240.0,1.0,64.0
4330,85.0,85.0,1080.0,0.0,64.0
4331,53.0,0.0,240.0,3.0,64.0
4332,41.0,0.0,240.0,10.0,64.0
4333,53.0,0.0,240.0,8.0,64.0
4334,85.0,0.0,1080.0,5.0,64.0
4335,65.0,0.0,240.0,2.0,64.0
4336,68.0,0.0,90.0,2.0,64.0
4337,53.0,0.0,90.0,8.0,64.0
4338,73.0,240.0,90.0,6.0,64.0
4339,73.0,0.0,90.0,1.0,64.0
4340,41.0,0.0,90.0,10.0,64.0
4341,53.0,0.0,90.0,3.0,64.0
4342,41.0,0.0,15.0,4.0,64.0
4343,68.0,0.0,90.0,7.0,64.0
4344,68.0,0.0,90.0,7.0,64.0
4345,53.0,0.0,90.0,3.0,64.0
4346,41.0,0.0,90.0,10.0,64.0
4347,41.0,0.0,90.0,4.0,64.0
4348,53.0,0.0,90.0,8.0,64.0
4349,73.0,0.0,90.0,1.0,64.0
4350,73.0,240.0,90.0,6.0,64.0
4351,68.0,0.0,90.0,2.0,64.0
4352,68.0,0.0,90.0,2.0,64.0
4353,41.0,275.0,90.0,10.0,64.0
4354,68.0,0.0,90.0,7.0,64.0
4355,53.0,0.0,90.0,3.0,64.0
4356,73.0,0.0,90.0,1.0,64.0
4357,53.0,0.0,90.0,8.0,64.0
4358,73.0,0.0,90.0,6.0,64.0
4359,41.0,0.0,90.0,4.0,64.0
4360,73.0,0.0,390.0,1.0,64.0
4361,53.0,0.0,390.0,3.0,64.0
4362,68.0,0.0,390.0,7.0,64.0
4363,73.0,0.0,390.0,6.0,64.0
4364,68.0,0.0,390.0,2.0,64.0
4365,41.0,40.0,390.0,4.0,64.0
4366,53.0,0.0,390.0,8.0,64.0
4367,41.0,0.0,390.0,10.0,64.0
4368,84.0,0.0,90.0,5.0,64.0
4369,84.0,120.0,90.0,0.0,64.0
4370,82.0,0.0,90.0,5.0,64.0
4371,82.0,80.0,90.0,0.0,64.0
4372,80.0,120.0,90.0,5.0,64.0
4373,80.0,0.0,90.0,0.0,64.0
4374,78.0,0.0,90.0,5.0,64.0
4375,78.0,120.0,90.0,0.0,64.0
4376,77.0,0.0,90.0,5.0,64.0
4377,77.0,120.0,90.0,0.0,64.0
4378,75.0,120.0,90.0,0.0,64.0
4379,75.0,0.0,90.0,5.0,64.0
4380,73.0,0.0,90.0,0.0,64.0
4381,73.0,280.0,90.0,5.0,64.0
4382,70.0,0.0,240.0,6.0,64.0
4383,85.0,0.0,1080.0,5.0,64.0
4384,42.0,0.0,240.0,10.0,64.0
4385,70.0,0.0,240.0,1.0,64.0
4386,61.0,0.0,240.0,2.0,64.0
4387,85.0,85.0,1080.0,0.0,64.0
4388,61.0,80.0,240.0,7.0,64.0
4389,54.0,0.0,15.0,3.0,64.0
4390,73.0,0.0,90.0,6.0,64.0
4391,42.0,0.0,15.0,4.0,64.0
4392,73.0,0.0,90.0,1.0,64.0
4393,70.0,0.0,90.0,7.0,64.0
4394,42.0,0.0,90.0,10.0,64.0
4395,70.0,0.0,90.0,2.0,64.0
4396,54.0,0.0,15.0,8.0,64.0
4397,73.0,0.0,90.0,6.0,64.0
4398,42.0,0.0,90.0,4.0,64.0
4399,70.0,240.0,90.0,7.0,64.0
4400,73.0,0.0,90.0,1.0,64.0
4401,70.0,0.0,90.0,2.0,64.0
4402,54.0,0.0,90.0,3.0,64.0
4403,42.0,0.0,90.0,10.0,64.0
4404,54.0,0.0,90.0,8.0,64.0
4405,42.0,0.0,90.0,10.0,64.0
4406,73.0,275.0,90.0,1.0,64.0
4407,54.0,0.0,90.0,3.0,64.0
4408,73.0,0.0,90.0,6.0,64.0
4409,42.0,0.0,90.0,4.0,64.0
4410,70.0,0.0,90.0,7.0,64.0
4411,54.0,0.0,90.0,8.0,64.0
4412,70.0,0.0,90.0,2.0,64.0
4413,73.0,0.0,390.0,1.0,64.0
4414,54.0,40.0,390.0,8.0,64.0
4415,73.0,0.0,390.0,6.0,64.0
4416,42.0,0.0,390.0,10.0,64.0
4417,42.0,0.0,390.0,4.0,64.0
4418,70.0,0.0,390.0,2.0,64.0
4419,54.0,0.0,390.0,3.0,64.0
4420,70.0,0.0,390.0,7.0,64.0
4421,84.0,0.0,90.0,5.0,64.0
4422,84.0,120.0,90.0,0.0,64.0
4423,82.0,0.0,90.0,5.0,64.0
4424,82.0,80.0,90.0,0.0,64.0
4425,80.0,0.0,90.0,0.0,64.0
4426,80.0,120.0,90.0,5.0,64.0
4427,78.0,120.0,90.0,5.0,64.0
4428,78.0,0.0,90.0,0.0,64.0
4429,77.0,0.0,90.0,0.0,64.0
4430,77.0,120.0,90.0,5.0,64.0
4431,75.0,120.0,90.0,0.0,64.0
4432,75.0,0.0,90.0,5.0,64.0
4433,73.0,280.0,90.0,0.0,64.0
4434,73.0,0.0,90.0,5.0,64.0
4435,61.0,0.0,240.0,7.0,64.0
4436,65.0,0.0,240.0,6.0,64.0
4437,85.0,0.0,1080.0,5.0,64.0
4438,85.0,85.0,1080.0,0.0,64.0
4439,65.0,0.0,240.0,1.0,64.0
4440,44.0,0.0,240.0,10.0,64.0
4441,61.0,0.0,240.0,2.0,64.0
4442,56.0,0.0,15.0,3.0,64.0
4443,65.0,0.0,90.0,7.0,64.0
4444,44.0,80.0,15.0,4.0,64.0
4445,56.0,0.0,15.0,8.0,64.0
4446,44.0,0.0,90.0,10.0,64.0
4447,73.0,0.0,90.0,1.0,64.0
4448,73.0,0.0,90.0,6.0,64.0
4449,65.0,0.0,90.0,2.0,64.0
4450,44.0,0.0,90.0,10.0,64.0
4451,65.0,240.0,90.0,7.0,64.0
4452,65.0,0.0,90.0,2.0,64.0
4453,44.0,0.0,90.0,4.0,64.0
4454,73.0,0.0,90.0,6.0,64.0
4455,73.0,0.0,90.0,1.0,64.0
4456,56.0,0.0,90.0,3.0,64.0
4457,56.0,0.0,90.0,8.0,64.0
4458,73.0,0.0,90.0,1.0,64.0
4459,56.0,0.0,90.0,8.0,64.0
4460,44.0,0.0,90.0,10.0,64.0
4461,44.0,275.0,90.0,4.0,64.0
4462,65.0,0.0,90.0,2.0,64.0
4463,65.0,0.0,90.0,7.0,64.0
4464,73.0,0.0,90.0,6.0,64.0
4465,56.0,0.0,90.0,3.0,64.0
4466,44.0,0.0,390.0,4.0,64.0
4467,56.0,40.0,390.0,8.0,64.0
4468,73.0,0.0,390.0,1.0,64.0
4469,44.0,0.0,390.0,10.0,64.0
4470,65.0,0.0,390.0,2.0,64.0
4471,65.0,0.0,390.0,7.0,64.0
4472,56.0,0.0,390.0,3.0,64.0
4473,73.0,0.0,390.0,6.0,64.0
4474,84.0,120.0,90.0,0.0,64.0
4475,84.0,0.0,90.0,5.0,64.0
4476,82.0,0.0,90.0,0.0,64.0
4477,82.0,80.0,90.0,5.0,64.0
4478,80.0,120.0,90.0,0.0,64.0
4479,80.0,0.0,90.0,5.0,64.0
4480,78.0,0.0,90.0,5.0,64.0
4481,78.0,120.0,90.0,0.0,64.0
4482,77.0,120.0,90.0,5.0,64.0
4483,77.0,0.0,90.0,0.0,64.0
4484,75.0,0.0,90.0,0.0,64.0
4485,75.0,120.0,90.0,5.0,64.0
4486,73.0,0.0,90.0,5.0,64.0
4487,73.0,120.0,90.0,0.0,64.0
4488,58.0,0.0,390.0,8.0,64.0
4489,85.0,0.0,90.0,5.0,64.0
4490,73.0,0.0,390.0,1.0,64.0
4491,46.0,40.0,390.0,10.0,64.0
4492,85.0,240.0,90.0,0.0,64.0
4493,66.0,0.0,390.0,2.0,64.0
4494,58.0,0.0,390.0,3.0,64.0
4495,73.0,0.0,390.0,6.0,64.0
4496,46.0,0.0,390.0,4.0,64.0
4497,66.0,0.0,390.0,7.0,64.0
4498,84.0,0.0,90.0,5.0,64.0
4499,84.0,80.0,90.0,0.0,64.0
4500,82.0,120.0,90.0,5.0,64.0
4501,82.0,0.0,90.0,0.0,64.0
4502,80.0,0.0,90.0,5.0,64.0
4503,80.0,120.0,90.0,0.0,64.0
4504,78.0,0.0,90.0,5.0,64.0
4505,78.0,120.0,90.0,0.0,64.0
4506,77.0,120.0,90.0,0.0,64.0
4507,77.0,0.0,90.0,5.0,64.0
4508,75.0,0.0,90.0,0.0,64.0
4509,75.0,120.0,90.0,5.0,64.0
4510,73.0,120.0,90.0,0.0,64.0
4511,73.0,0.0,90.0,5.0,64.0
4512,72.0,0.0,90.0,0.0,64.0
4513,72.0,120.0,90.0,5.0,64.0
4514,70.0,120.0,90.0,5.0,64.0
4515,70.0,0.0,90.0,0.0,64.0
4516,68.0,0.0,90.0,0.0,64.0
4517,68.0,120.0,90.0,5.0,64.0
4518,66.0,0.0,90.0,0.0,64.0
4519,66.0,120.0,90.0,5.0,64.0
4520,65.0,0.0,90.0,0.0,64.0
4521,65.0,120.0,90.0,5.0,64.0
4522,63.0,0.0,90.0,0.0,64.0
4523,63.0,120.0,90.0,5.0,64.0
4524,61.0,0.0,90.0,0.0,64.0
4525,61.0,520.0,90.0,5.0,64.0
4526,59.0,160.0,480.0,0.0,64.0
4527,59.0,0.0,480.0,5.0,64.0
4528,61.0,0.0,390.0,1.0,64.0
4529,61.0,320.0,390.0,6.0,64.0
4530,71.0,0.0,480.0,0.0,64.0
4531,71.0,0.0,480.0,5.0,64.0
4532,65.0,0.0,480.0,7.0,64.0
4533,44.0,0.0,480.0,10.0,64.0
4534,44.0,160.0,480.0,4.0,64.0
4535,56.0,0.0,480.0,8.0,64.0
4536,65.0,0.0,480.0,2.0,64.0
4537,56.0,0.0,480.0,3.0,64.0
4538,61.0,320.0,390.0,6.0,64.0
4539,61.0,0.0,390.0,1.0,64.0
4540,66.0,0.0,480.0,2.0,64.0
4541,54.0,0.0,480.0,3.0,64.0
4542,42.0,160.0,480.0,10.0,64.0
4543,70.0,0.0,480.0,5.0,64.0
4544,66.0,0.0,480.0,7.0,64.0
4545,54.0,0.0,480.0,8.0,64.0
4546,70.0,0.0,480.0,0.0,64.0
4547,42.0,0.0,480.0,4.0,64.0
4548,61.0,0.0,390.0,1.0,64.0
4549,61.0,240.0,390.0,6.0,64.0
4550,53.0,80.0,480.0,8.0,64.0
4551,53.0,0.0,480.0,3.0,64.0
4552,41.0,0.0,480.0,4.0,64.0
4553,69.0,0.0,390.0,5.0,64.0
4554,65.0,0.0,480.0,2.0,64.0
4555,41.0,0.0,480.0,10.0,64.0
4556,65.0,0.0,480.0,7.0,64.0
4557,69.0,80.0,390.0,0.0,64.0
4558,61.0,0.0,480.0,1.0,64.0
4559,61.0,0.0,480.0,6.0,64.0
4560,66.0,0.0,240.0,7.0,64.0
4561,70.0,160.0,390.0,5.0,64.0
4562,42.0,155.0,90.0,4.0,64.0
4563,54.0,0.0,90.0,3.0,64.0
4564,42.0,0.0,90.0,10.0,64.0
4565,70.0,0.0,390.0,0.0,64.0
4566,54.0,0.0,90.0,8.0,64.0
4567,66.0,85.0,240.0,2.0,64.0
4568,54.0,80.0,90.0,8.0,64.0
4569,42.0,0.0,90.0,4.0,64.0
4570,66.0,160.0,390.0,2.0,64.0
4571,70.0,0.0,90.0,1.0,64.0
4572,54.0,0.0,90.0,3.0,64.0
4573,66.0,0.0,390.0,7.0,64.0
4574,70.0,0.0,90.0,6.0,64.0
4575,42.0,0.0,90.0,10.0,64.0
4576,85.0,115.0,840.0,5.0,64.0
4577,70.0,0.0,90.0,6.0,64.0
4578,70.0,0.0,90.0,1.0,64.0
4579,42.0,80.0,90.0,4.0,64.0
4580,54.0,0.0,90.0,8.0,64.0
4581,42.0,0.0,90.0,10.0,64.0
4582,54.0,0.0,90.0,3.0,64.0
4583,85.0,0.0,840.0,0.0,64.0
4584,42.0,0.0,90.0,4.0,64.0
4585,54.0,0.0,90.0,8.0,64.0
4586,42.0,240.0,90.0,10.0,64.0
4587,66.0,0.0,390.0,2.0,64.0
4588,70.0,0.0,90.0,1.0,64.0
4589,70.0,0.0,90.0,6.0,64.0
4590,66.0,160.0,390.0,7.0,64.0
4591,54.0,0.0,90.0,3.0,64.0
4592,54.0,80.0,90.0,3.0,64.0
4593,70.0,0.0,90.0,6.0,64.0
4594,54.0,0.0,90.0,8.0,64.0
4595,42.0,0.0,90.0,4.0,64.0
4596,70.0,0.0,90.0,1.0,64.0
4597,42.0,0.0,90.0,10.0,64.0
4598,54.0,40.0,90.0,8.0,64.0
4599,82.0,0.0,240.0,6.0,64.0
4600,54.0,0.0,90.0,3.0,64.0
4601,66.0,0.0,390.0,2.0,64.0
4602,42.0,0.0,90.0,4.0,64.0
4603,42.0,0.0,90.0,10.0,64.0
4604,82.0,85.0,240.0,1.0,64.0
4605,66.0,75.0,390.0,7.0,64.0
4606,84.0,0.0,120.0,0.0,64.0
4607,42.0,0.0,90.0,4.0,64.0
4608,42.0,0.0,90.0,10.0,64.0
4609,80.0,40.0,120.0,6.0,64.0
4610,80.0,0.0,120.0,1.0,64.0
4611,54.0,40.0,90.0,3.0,64.0
4612,54.0,0.0,90.0,8.0,64.0
4613,84.0,0.0,120.0,5.0,64.0
4614,78.0,0.0,120.0,1.0,64.0
4615,82.0,0.0,120.0,0.0,64.0
4616,78.0,0.0,120.0,6.0,64.0
4617,82.0,85.0,120.0,5.0,64.0
4618,42.0,0.0,90.0,10.0,64.0
4619,77.0,0.0,90.0,1.0,64.0
4620,54.0,0.0,90.0,8.0,64.0
4621,80.0,0.0,90.0,5.0,64.0
4622,80.0,0.0,90.0,0.0,64.0
4623,70.0,0.0,90.0,2.0,64.0
4624,70.0,0.0,90.0,7.0,64.0
4625,54.0,0.0,90.0,3.0,64.0
4626,42.0,0.0,90.0,4.0,64.0
4627,77.0,120.0,90.0,6.0,64.0
4628,75.0,0.0,90.0,6.0,64.0
4629,75.0,0.0,90.0,1.0,64.0
4630,78.0,120.0,90.0,0.0,64.0
4631,78.0,0.0,90.0,5.0,64.0
4632,77.0,0.0,90.0,5.0,64.0
4633,68.0,240.0,90.0,7.0,64.0
4634,73.0,160.0,390.0,1.0,64.0
4635,77.0,0.0,90.0,0.0,64.0
4636,68.0,0.0,90.0,2.0,64.0
4637,56.0,0.0,90.0,3.0,64.0
4638,56.0,0.0,90.0,8.0,64.0
4639,44.0,0.0,90.0,4.0,64.0
4640,44.0,0.0,90.0,10.0,64.0
4641,73.0,0.0,390.0,6.0,64.0
4642,68.0,0.0,90.0,2.0,64.0
4643,80.0,0.0,90.0,5.0,64.0
4644,44.0,0.0,90.0,4.0,64.0
4645,80.0,0.0,90.0,0.0,64.0
4646,68.0,0.0,90.0,7.0,64.0
4647,56.0,0.0,90.0,8.0,64.0
4648,56.0,80.0,90.0,3.0,64.0
4649,44.0,0.0,90.0,10.0,64.0
4650,73.0,0.0,840.0,6.0,64.0
4651,56.0,40.0,90.0,8.0,64.0
4652,78.0,0.0,120.0,0.0,64.0
4653,44.0,0.0,90.0,10.0,64.0
4654,78.0,115.0,120.0,5.0,64.0
4655,68.0,0.0,90.0,7.0,64.0
4656,56.0,0.0,90.0,3.0,64.0
4657,44.0,0.0,90.0,4.0,64.0
4658,73.0,0.0,840.0,1.0,64.0
4659,68.0,0.0,90.0,2.0,64.0
4660,77.0,85.0,120.0,0.0,64.0
4661,77.0,0.0,120.0,5.0,64.0
4662,68.0,0.0,90.0,2.0,64.0
4663,44.0,0.0,90.0,10.0,64.0
4664,75.0,0.0,90.0,0.0,64.0
4665,68.0,0.0,90.0,7.0,64.0
4666,56.0,0.0,90.0,3.0,64.0
4667,75.0,0.0,90.0,5.0,64.0
4668,44.0,0.0,90.0,4.0,64.0
4669,56.0,120.0,90.0,8.0,64.0
4670,73.0,0.0,90.0,5.0,64.0
4671,73.0,100.0,90.0,0.0,64.0
4672,68.0,0.0,90.0,2.0,64.0
4673,56.0,0.0,90.0,8.0,64.0
4674,44.0,0.0,90.0,10.0,64.0
4675,75.0,0.0,60.0,0.0,64.0
4676,75.0,20.0,60.0,5.0,64.0
4677,44.0,0.0,90.0,4.0,64.0
4678,68.0,40.0,90.0,7.0,64.0
4679,56.0,0.0,90.0,3.0,64.0
4680,77.0,0.0,60.0,5.0,64.0
4681,77.0,60.0,60.0,0.0,64.0
4682,75.0,0.0,60.0,0.0,64.0
4683,75.0,60.0,60.0,5.0,64.0
4684,77.0,0.0,60.0,5.0,64.0
4685,77.0,60.0,60.0,0.0,64.0
4686,75.0,20.0,60.0,0.0,64.0
4687,56.0,0.0,90.0,3.0,64.0
4688,56.0,40.0,90.0,8.0,64.0
4689,44.0,0.0,90.0,4.0,64.0
4690,44.0,0.0,90.0,10.0,64.0
4691,68.0,0.0,90.0,2.0,64.0
4692,68.0,0.0,90.0,7.0,64.0
4693,75.0,0.0,60.0,5.0,64.0
4694,77.0,60.0,60.0,5.0,64.0
4695,77.0,0.0,60.0,0.0,64.0
4696,75.0,60.0,60.0,0.0,64.0
4697,75.0,0.0,60.0,5.0,64.0
4698,77.0,60.0,60.0,5.0,64.0
4699,77.0,0.0,60.0,0.0,64.0
4700,44.0,0.0,90.0,10.0,64.0
4701,72.0,0.0,60.0,6.0,64.0
4702,66.0,0.0,90.0,2.0,64.0
4703,56.0,40.0,90.0,8.0,64.0
4704,72.0,0.0,60.0,1.0,64.0
4705,44.0,0.0,90.0,4.0,64.0
4706,56.0,0.0,90.0,3.0,64.0
4707,75.0,0.0,60.0,5.0,64.0
4708,66.0,0.0,90.0,7.0,64.0
4709,75.0,20.0,60.0,0.0,64.0
4710,77.0,60.0,60.0,5.0,64.0
4711,77.0,0.0,60.0,0.0,64.0
4712,73.0,0.0,60.0,1.0,64.0
4713,73.0,0.0,60.0,6.0,64.0
4714,72.0,0.0,60.0,6.0,64.0
4715,72.0,60.0,60.0,1.0,64.0
4716,75.0,0.0,60.0,5.0,64.0
4717,75.0,0.0,60.0,0.0,64.0
4718,73.0,0.0,60.0,6.0,64.0
4719,77.0,0.0,60.0,0.0,64.0
4720,77.0,0.0,60.0,5.0,64.0
4721,73.0,60.0,60.0,1.0,64.0
4722,56.0,40.0,90.0,8.0,64.0
4723,44.0,0.0,90.0,4.0,64.0
4724,66.0,0.0,90.0,7.0,64.0
4725,44.0,0.0,90.0,10.0,64.0
4726,72.0,0.0,60.0,1.0,64.0
4727,56.0,0.0,90.0,3.0,64.0
4728,75.0,20.0,60.0,0.0,64.0
4729,75.0,0.0,60.0,5.0,64.0
4730,66.0,0.0,90.0,2.0,64.0
4731,72.0,0.0,60.0,6.0,64.0
4732,77.0,0.0,60.0,0.0,64.0
4733,77.0,0.0,60.0,5.0,64.0
4734,73.0,60.0,60.0,1.0,64.0
4735,73.0,0.0,60.0,6.0,64.0
4736,72.0,60.0,60.0,6.0,64.0
4737,75.0,0.0,60.0,0.0,64.0
4738,75.0,0.0,60.0,5.0,64.0
4739,72.0,0.0,60.0,1.0,64.0
4740,77.0,80.0,60.0,5.0,64.0
4741,73.0,0.0,60.0,6.0,64.0
4742,77.0,0.0,60.0,0.0,64.0
4743,73.0,0.0,90.0,0.0,64.0
4744,65.0,240.0,90.0,2.0,64.0
4745,65.0,0.0,90.0,7.0,64.0
4746,49.0,0.0,90.0,3.0,64.0
4747,73.0,0.0,90.0,5.0,64.0
4748,73.0,0.0,15.0,1.0,64.0
4749,49.0,0.0,90.0,8.0,64.0
4750,37.0,0.0,90.0,10.0,64.0
4751,37.0,0.0,90.0,4.0,64.0
4752,73.0,80.0,390.0,6.0,64.0
4753,80.0,0.0,120.0,0.0,64.0
4754,37.0,0.0,90.0,10.0,64.0
4755,65.0,0.0,240.0,2.0,64.0
4756,49.0,40.0,90.0,3.0,64.0
4757,37.0,0.0,90.0,4.0,64.0
4758,49.0,0.0,90.0,8.0,64.0
4759,65.0,0.0,240.0,7.0,64.0
4760,80.0,40.0,120.0,5.0,64.0
4761,83.0,0.0,120.0,5.0,64.0
4762,83.0,80.0,120.0,0.0,64.0
4763,37.0,0.0,90.0,4.0,64.0
4764,66.0,0.0,240.0,7.0,64.0
4765,82.0,0.0,120.0,5.0,64.0
4766,82.0,120.0,120.0,0.0,64.0
4767,37.0,0.0,90.0,10.0,64.0
4768,49.0,40.0,90.0,8.0,64.0
4769,49.0,0.0,90.0,3.0,64.0
4770,66.0,0.0,240.0,2.0,64.0
4771,85.0,0.0,120.0,5.0,64.0
4772,85.0,80.0,120.0,0.0,64.0
4773,84.0,0.0,120.0,5.0,64.0
4774,37.0,0.0,90.0,4.0,64.0
4775,49.0,0.0,90.0,3.0,64.0
4776,63.0,0.0,240.0,7.0,64.0
4777,49.0,40.0,90.0,8.0,64.0
4778,84.0,120.0,120.0,0.0,64.0
4779,37.0,0.0,90.0,10.0,64.0
4780,63.0,0.0,240.0,2.0,64.0
4781,87.0,80.0,120.0,5.0,64.0
4782,87.0,0.0,120.0,0.0,64.0
4783,49.0,240.0,90.0,8.0,64.0
4784,85.0,80.0,390.0,0.0,64.0
4785,37.0,0.0,90.0,10.0,64.0
4786,49.0,0.0,90.0,3.0,64.0
4787,37.0,0.0,90.0,4.0,64.0
4788,85.0,0.0,390.0,5.0,64.0
4789,65.0,0.0,90.0,2.0,64.0
4790,65.0,0.0,90.0,7.0,64.0
4791,77.0,40.0,120.0,6.0,64.0
4792,49.0,0.0,90.0,3.0,64.0
4793,68.0,80.0,240.0,2.0,64.0
4794,37.0,0.0,90.0,4.0,64.0
4795,77.0,0.0,120.0,1.0,64.0
4796,68.0,0.0,240.0,7.0,64.0
4797,37.0,0.0,90.0,10.0,64.0
4798,49.0,40.0,90.0,8.0,64.0
4799,80.0,0.0,120.0,1.0,64.0
4800,80.0,0.0,120.0,6.0,64.0
4801,70.0,0.0,240.0,7.0,64.0
4802,78.0,0.0,120.0,1.0,64.0
4803,49.0,0.0,90.0,3.0,64.0
4804,49.0,0.0,90.0,8.0,64.0
4805,78.0,120.0,120.0,6.0,64.0
4806,37.0,0.0,90.0,10.0,64.0
4807,70.0,0.0,240.0,2.0,64.0
4808,37.0,40.0,90.0,4.0,64.0
4809,75.0,80.0,120.0,6.0,64.0
4810,75.0,0.0,120.0,1.0,64.0
4811,73.0,0.0,120.0,1.0,64.0
4812,37.0,40.0,90.0,10.0,64.0
4813,66.0,0.0,240.0,7.0,64.0
4814,49.0,0.0,90.0,3.0,64.0
4815,37.0,0.0,90.0,4.0,64.0
4816,66.0,0.0,240.0,2.0,64.0
4817,73.0,120.0,120.0,6.0,64.0
4818,49.0,0.0,90.0,8.0,64.0
4819,72.0,0.0,120.0,6.0,64.0
4820,72.0,80.0,120.0,1.0,64.0
4821,73.0,80.0,390.0,1.0,64.0
4822,73.0,0.0,390.0,6.0,64.0
4823,49.0,0.0,90.0,3.0,64.0
4824,37.0,0.0,90.0,10.0,64.0
4825,73.0,0.0,90.0,5.0,64.0
4826,37.0,0.0,90.0,4.0,64.0
4827,65.0,0.0,90.0,7.0,64.0
4828,65.0,0.0,90.0,2.0,64.0
4829,49.0,240.0,90.0,8.0,64.0
4830,73.0,0.0,90.0,0.0,64.0
4831,37.0,0.0,90.0,10.0,64.0
4832,80.0,40.0,120.0,5.0,64.0
4833,65.0,80.0,240.0,2.0,64.0
4834,80.0,0.0,120.0,0.0,64.0
4835,65.0,0.0,240.0,7.0,64.0
4836,49.0,0.0,90.0,8.0,64.0
4837,37.0,40.0,90.0,4.0,64.0
4838,49.0,0.0,90.0,3.0,64.0
4839,83.0,0.0,120.0,0.0,64.0
4840,83.0,0.0,120.0,5.0,64.0
4841,66.0,0.0,240.0,7.0,64.0
4842,37.0,40.0,90.0,10.0,64.0
4843,66.0,80.0,240.0,2.0,64.0
4844,82.0,0.0,120.0,5.0,64.0
4845,49.0,0.0,90.0,3.0,64.0
4846,82.0,120.0,120.0,0.0,64.0
4847,37.0,0.0,90.0,4.0,64.0
4848,49.0,0.0,90.0,8.0,64.0
4849,85.0,0.0,120.0,0.0,64.0
4850,85.0,0.0,120.0,5.0,64.0
4851,49.0,0.0,90.0,3.0,64.0
4852,84.0,0.0,120.0,5.0,64.0
4853,63.0,80.0,240.0,7.0,64.0
4854,37.0,40.0,90.0,10.0,64.0
4855,37.0,0.0,90.0,4.0,64.0
4856,63.0,0.0,240.0,2.0,64.0
4857,84.0,120.0,120.0,0.0,64.0
4858,49.0,0.0,90.0,8.0,64.0
4859,87.0,0.0,120.0,0.0,64.0
4860,87.0,0.0,120.0,5.0,64.0
4861,85.0,0.0,390.0,5.0,64.0
4862,37.0,0.0,90.0,4.0,64.0
4863,49.0,0.0,90.0,8.0,64.0
4864,65.0,0.0,90.0,2.0,64.0
4865,85.0,80.0,390.0,0.0,64.0
4866,49.0,0.0,90.0,3.0,64.0
4867,37.0,0.0,90.0,10.0,64.0
4868,65.0,240.0,90.0,7.0,64.0
4869,68.0,0.0,240.0,7.0,64.0
4870,68.0,0.0,240.0,2.0,64.0
4871,49.0,40.0,90.0,8.0,64.0
4872,77.0,40.0,120.0,1.0,64.0
4873,77.0,0.0,120.0,6.0,64.0
4874,37.0,0.0,90.0,10.0,64.0
4875,49.0,0.0,90.0,3.0,64.0
4876,37.0,0.0,90.0,4.0,64.0
4877,80.0,80.0,120.0,6.0,64.0
4878,80.0,0.0,120.0,1.0,64.0
4879,78.0,120.0,120.0,1.0,64.0
4880,49.0,0.0,90.0,3.0,64.0
4881,70.0,0.0,240.0,7.0,64.0
4882,78.0,0.0,120.0,6.0,64.0
4883,70.0,0.0,240.0,2.0,64.0
4884,49.0,0.0,90.0,8.0,64.0
4885,37.0,0.0,90.0,10.0,64.0
4886,37.0,40.0,90.0,4.0,64.0
4887,75.0,80.0,120.0,6.0,64.0
4888,75.0,0.0,120.0,1.0,64.0
4889,37.0,0.0,90.0,4.0,64.0
4890,66.0,0.0,240.0,2.0,64.0
4891,49.0,0.0,90.0,3.0,64.0
4892,66.0,0.0,240.0,7.0,64.0
4893,73.0,0.0,120.0,1.0,64.0
4894,49.0,0.0,90.0,8.0,64.0
4895,37.0,40.0,90.0,10.0,64.0
4896,73.0,120.0,120.0,6.0,64.0
4897,72.0,0.0,120.0,1.0,64.0
4898,72.0,80.0,120.0,6.0,64.0
4899,65.0,0.0,90.0,2.0,64.0
4900,37.0,0.0,90.0,10.0,64.0
4901,65.0,0.0,90.0,7.0,64.0
4902,73.0,0.0,90.0,0.0,64.0
4903,49.0,0.0,90.0,3.0,64.0
4904,73.0,0.0,90.0,1.0,64.0
4905,73.0,0.0,90.0,6.0,64.0
4906,37.0,0.0,90.0,4.0,64.0
4907,49.0,0.0,90.0,8.0,64.0
4908,73.0,240.0,90.0,5.0,64.0
4909,61.0,0.0,120.0,2.0,64.0
4910,49.0,0.0,90.0,3.0,64.0
4911,37.0,0.0,90.0,4.0,64.0
4912,61.0,0.0,120.0,7.0,64.0
4913,37.0,40.0,90.0,10.0,64.0
4914,77.0,0.0,120.0,1.0,64.0
4915,85.0,0.0,120.0,0.0,64.0
4916,49.0,0.0,90.0,8.0,64.0
4917,85.0,0.0,120.0,5.0,64.0
4918,77.0,120.0,120.0,6.0,64.0
4919,60.0,80.0,120.0,2.0,64.0
4920,78.0,0.0,120.0,1.0,64.0
4921,87.0,0.0,120.0,5.0,64.0
4922,78.0,0.0,120.0,6.0,64.0
4923,60.0,0.0,120.0,7.0,64.0
4924,87.0,0.0,120.0,0.0,64.0
4925,77.0,0.0,120.0,1.0,64.0
4926,85.0,0.0,120.0,0.0,64.0
4927,85.0,120.0,120.0,5.0,64.0
4928,37.0,40.0,90.0,4.0,64.0
4929,49.0,0.0,90.0,8.0,64.0
4930,37.0,0.0,90.0,10.0,64.0
4931,61.0,0.0,120.0,2.0,64.0
4932,61.0,0.0,120.0,7.0,64.0
4933,49.0,0.0,90.0,3.0,64.0
4934,77.0,0.0,120.0,6.0,64.0
4935,87.0,0.0,120.0,5.0,64.0
4936,87.0,0.0,120.0,0.0,64.0
4937,78.0,0.0,120.0,6.0,64.0
4938,60.0,80.0,120.0,2.0,64.0
4939,78.0,0.0,120.0,1.0,64.0
4940,60.0,0.0,120.0,7.0,64.0
4941,61.0,0.0,120.0,7.0,64.0
4942,37.0,0.0,90.0,10.0,64.0
4943,37.0,0.0,90.0,4.0,64.0
4944,49.0,0.0,90.0,8.0,64.0
4945,77.0,0.0,120.0,1.0,64.0
4946,77.0,120.0,120.0,6.0,64.0
4947,85.0,0.0,120.0,5.0,64.0
4948,85.0,0.0,120.0,0.0,64.0
4949,61.0,0.0,120.0,2.0,64.0
4950,49.0,40.0,90.0,3.0,64.0
4951,87.0,0.0,120.0,0.0,64.0
4952,60.0,0.0,120.0,7.0,64.0
4953,78.0,0.0,120.0,1.0,64.0
4954,60.0,0.0,120.0,2.0,64.0
4955,87.0,0.0,120.0,5.0,64.0
4956,78.0,400.0,120.0,6.0,64.0
4957,49.0,0.0,390.0,3.0,64.0
4958,49.0,0.0,390.0,8.0,64.0
4959,61.0,0.0,390.0,7.0,64.0
4960,37.0,0.0,390.0,4.0,64.0
4961,85.0,0.0,390.0,0.0,64.0
4962,61.0,0.0,390.0,2.0,64.0
4963,77.0,0.0,390.0,6.0,64.0
4964,77.0,0.0,390.0,1.0,64.0
4965,37.0,0.0,390.0,10.0,64.0
4966,85.0,640.0,390.0,5.0,64.0
4967,40.0,155.0,90.0,10.0,64.0
4968,64.0,0.0,240.0,2.0,64.0
4969,40.0,0.0,90.0,4.0,64.0
4970,52.0,0.0,90.0,3.0,64.0
4971,85.0,115.0,1800.0,0.0,64.0
4972,64.0,0.0,240.0,7.0,64.0
4973,52.0,0.0,90.0,8.0,64.0
4974,85.0,0.0,1800.0,5.0,64.0
4975,68.0,0.0,240.0,1.0,64.0
4976,68.0,85.0,240.0,6.0,64.0
4977,52.0,0.0,90.0,3.0,64.0
4978,64.0,0.0,240.0,7.0,64.0
4979,64.0,0.0,240.0,2.0,64.0
4980,68.0,85.0,240.0,6.0,64.0
4981,40.0,0.0,90.0,4.0,64.0
4982,40.0,0.0,90.0,10.0,64.0
4983,52.0,155.0,90.0,8.0,64.0
4984,68.0,0.0,240.0,1.0,64.0
4985,40.0,0.0,90.0,10.0,64.0
4986,40.0,0.0,90.0,4.0,64.0
4987,64.0,0.0,240.0,7.0,64.0
4988,52.0,0.0,90.0,8.0,64.0
4989,68.0,0.0,240.0,6.0,64.0
4990,64.0,85.0,240.0,2.0,64.0
4991,52.0,155.0,90.0,3.0,64.0
4992,68.0,0.0,240.0,1.0,64.0
4993,68.0,0.0,240.0,1.0,64.0
4994,68.0,0.0,240.0,6.0,64.0
4995,40.0,0.0,90.0,10.0,64.0
4996,64.0,85.0,240.0,2.0,64.0
4997,64.0,0.0,240.0,7.0,64.0
4998,40.0,0.0,90.0,4.0,64.0
4999,52.0,0.0,90.0,3.0,64.0
5000,52.0,155.0,90.0,8.0,64.0
5001,40.0,155.0,90.0,10.0,64.0
5002,52.0,0.0,90.0,8.0,64.0
5003,52.0,0.0,90.0,3.0,64.0
5004,40.0,0.0,90.0,4.0,64.0
5005,64.0,0.0,240.0,2.0,64.0
5006,64.0,0.0,240.0,7.0,64.0
5007,68.0,85.0,240.0,1.0,64.0
5008,68.0,0.0,240.0,6.0,64.0
5009,68.0,0.0,240.0,1.0,64.0
5010,40.0,0.0,90.0,10.0,64.0
5011,40.0,0.0,90.0,4.0,64.0
5012,68.0,0.0,240.0,6.0,64.0
5013,64.0,85.0,240.0,2.0,64.0
5014,52.0,155.0,90.0,3.0,64.0
5015,64.0,0.0,240.0,7.0,64.0
5016,52.0,0.0,90.0,8.0,64.0
5017,40.0,0.0,90.0,10.0,64.0
5018,52.0,0.0,90.0,3.0,64.0
5019,40.0,155.0,90.0,4.0,64.0
5020,64.0,85.0,240.0,7.0,64.0
5021,68.0,0.0,240.0,6.0,64.0
5022,52.0,0.0,90.0,8.0,64.0
5023,68.0,0.0,240.0,1.0,64.0
5024,64.0,0.0,240.0,2.0,64.0
5025,68.0,0.0,240.0,6.0,64.0
5026,40.0,0.0,90.0,4.0,64.0
5027,52.0,0.0,90.0,3.0,64.0
5028,64.0,0.0,240.0,2.0,64.0
5029,68.0,0.0,240.0,1.0,64.0
5030,40.0,40.0,90.0,10.0,64.0
5031,64.0,85.0,240.0,7.0,64.0
5032,52.0,0.0,90.0,8.0,64.0
5033,67.0,0.0,240.0,1.0,64.0
5034,39.0,0.0,90.0,10.0,64.0
5035,58.0,5.0,240.0,2.0,64.0
5036,39.0,155.0,90.0,4.0,64.0
5037,51.0,0.0,90.0,3.0,64.0
5038,67.0,0.0,240.0,6.0,64.0
5039,58.0,0.0,240.0,7.0,64.0
5040,87.0,0.0,240.0,5.0,64.0
5041,87.0,80.0,240.0,0.0,64.0
5042,51.0,0.0,90.0,8.0,64.0
5043,67.0,0.0,240.0,6.0,64.0
5044,39.0,155.0,90.0,4.0,64.0
5045,51.0,0.0,90.0,3.0,64.0
5046,85.0,75.0,630.0,0.0,64.0
5047,85.0,0.0,630.0,5.0,64.0
5048,67.0,0.0,240.0,1.0,64.0
5049,58.0,0.0,240.0,7.0,64.0
5050,51.0,0.0,90.0,8.0,64.0
5051,39.0,0.0,90.0,10.0,64.0
5052,58.0,85.0,240.0,2.0,64.0
5053,67.0,85.0,240.0,1.0,64.0
5054,51.0,0.0,90.0,8.0,64.0
5055,51.0,0.0,90.0,3.0,64.0
5056,58.0,0.0,240.0,2.0,64.0
5057,58.0,0.0,240.0,7.0,64.0
5058,39.0,0.0,90.0,4.0,64.0
5059,67.0,0.0,240.0,6.0,64.0
5060,39.0,155.0,90.0,10.0,64.0
5061,39.0,80.0,90.0,4.0,64.0
5062,58.0,0.0,240.0,7.0,64.0
5063,51.0,0.0,90.0,8.0,64.0
5064,58.0,85.0,240.0,2.0,64.0
5065,67.0,0.0,240.0,1.0,64.0
5066,51.0,0.0,90.0,3.0,64.0
5067,39.0,0.0,90.0,10.0,64.0
5068,67.0,0.0,240.0,6.0,64.0
5069,61.0,0.0,240.0,2.0,64.0
5070,67.0,0.0,240.0,6.0,64.0
5071,39.0,155.0,90.0,10.0,64.0
5072,83.0,80.0,240.0,5.0,64.0
5073,61.0,5.0,240.0,7.0,64.0
5074,83.0,0.0,240.0,0.0,64.0
5075,67.0,0.0,240.0,1.0,64.0
5076,51.0,0.0,90.0,8.0,64.0
5077,51.0,0.0,90.0,3.0,64.0
5078,39.0,0.0,90.0,4.0,64.0
5079,51.0,0.0,90.0,3.0,64.0
5080,61.0,0.0,240.0,2.0,64.0
5081,61.0,0.0,240.0,7.0,64.0
5082,82.0,75.0,390.0,5.0,64.0
5083,39.0,0.0,90.0,10.0,64.0
5084,51.0,0.0,90.0,8.0,64.0
5085,39.0,155.0,90.0,4.0,64.0
5086,82.0,0.0,390.0,0.0,64.0
5087,67.0,85.0,240.0,6.0,64.0
5088,67.0,0.0,240.0,1.0,64.0
5089,67.0,85.0,240.0,6.0,64.0
5090,61.0,0.0,240.0,7.0,64.0
5091,61.0,0.0,240.0,2.0,64.0
5092,67.0,0.0,240.0,1.0,64.0
5093,51.0,0.0,90.0,3.0,64.0
5094,39.0,80.0,90.0,4.0,64.0
5095,39.0,0.0,90.0,10.0,64.0
5096,51.0,0.0,90.0,8.0,64.0
5097,51.0,0.0,90.0,8.0,64.0
5098,80.0,155.0,90.0,0.0,64.0
5099,68.0,0.0,240.0,1.0,64.0
5100,51.0,0.0,90.0,3.0,64.0
5101,39.0,0.0,90.0,10.0,64.0
5102,80.0,0.0,90.0,5.0,64.0
5103,59.0,0.0,240.0,7.0,64.0
5104,39.0,0.0,90.0,4.0,64.0
5105,59.0,85.0,240.0,2.0,64.0
5106,68.0,0.0,240.0,6.0,64.0
5107,63.0,85.0,2160.0,7.0,64.0
5108,63.0,0.0,2160.0,2.0,64.0
5109,70.0,0.0,120.0,6.0,64.0
5110,79.0,120.0,120.0,5.0,64.0
5111,70.0,0.0,120.0,1.0,64.0
5112,51.0,0.0,90.0,3.0,64.0
5113,39.0,0.0,90.0,4.0,64.0
5114,79.0,0.0,120.0,0.0,64.0
5115,51.0,0.0,90.0,8.0,64.0
5116,39.0,40.0,90.0,10.0,64.0
5117,80.0,0.0,120.0,0.0,64.0
5118,80.0,0.0,120.0,5.0,64.0
5119,71.0,0.0,120.0,6.0,64.0
5120,71.0,80.0,120.0,1.0,64.0
5121,51.0,40.0,90.0,3.0,64.0
5122,82.0,0.0,120.0,5.0,64.0
5123,82.0,0.0,120.0,0.0,64.0
5124,73.0,0.0,120.0,6.0,64.0
5125,73.0,120.0,120.0,1.0,64.0
5126,39.0,0.0,90.0,10.0,64.0
5127,39.0,0.0,90.0,4.0,64.0
5128,51.0,0.0,90.0,8.0,64.0
5129,71.0,80.0,120.0,1.0,64.0
5130,80.0,0.0,120.0,5.0,64.0
5131,80.0,0.0,120.0,0.0,64.0
5132,71.0,0.0,120.0,6.0,64.0
5133,79.0,0.0,120.0,0.0,64.0
5134,79.0,0.0,120.0,5.0,64.0
5135,70.0,0.0,120.0,6.0,64.0
5136,51.0,0.0,90.0,8.0,64.0
5137,70.0,120.0,120.0,1.0,64.0
5138,39.0,0.0,90.0,4.0,64.0
5139,51.0,0.0,90.0,3.0,64.0
5140,39.0,40.0,90.0,10.0,64.0
5141,71.0,0.0,120.0,6.0,64.0
5142,80.0,0.0,120.0,0.0,64.0
5143,80.0,80.0,120.0,5.0,64.0
5144,71.0,0.0,120.0,1.0,64.0
5145,39.0,0.0,90.0,10.0,64.0
5146,39.0,0.0,90.0,4.0,64.0
5147,82.0,0.0,120.0,0.0,64.0
5148,73.0,120.0,120.0,1.0,64.0
5149,51.0,40.0,90.0,3.0,64.0
5150,73.0,0.0,120.0,6.0,64.0
5151,82.0,0.0,120.0,5.0,64.0
5152,51.0,0.0,90.0,8.0,64.0
5153,71.0,80.0,120.0,6.0,64.0
5154,80.0,0.0,120.0,0.0,64.0
5155,71.0,0.0,120.0,1.0,64.0
5156,80.0,0.0,120.0,5.0,64.0
5157,79.0,0.0,120.0,0.0,64.0
5158,70.0,120.0,120.0,1.0,64.0
5159,51.0,0.0,90.0,3.0,64.0
5160,51.0,0.0,90.0,8.0,64.0
5161,39.0,0.0,90.0,10.0,64.0
5162,79.0,0.0,120.0,5.0,64.0
5163,70.0,0.0,120.0,6.0,64.0
5164,39.0,40.0,90.0,4.0,64.0
5165,71.0,0.0,120.0,6.0,64.0
5166,80.0,0.0,120.0,5.0,64.0
5167,71.0,0.0,120.0,1.0,64.0
5168,80.0,80.0,120.0,0.0,64.0
5169,82.0,0.0,120.0,5.0,64.0
5170,73.0,0.0,120.0,6.0,64.0
5171,51.0,0.0,90.0,3.0,64.0
5172,73.0,120.0,120.0,1.0,64.0
5173,39.0,40.0,90.0,10.0,64.0
5174,51.0,0.0,90.0,8.0,64.0
5175,39.0,0.0,90.0,4.0,64.0
5176,82.0,0.0,120.0,0.0,64.0
5177,71.0,0.0,120.0,6.0,64.0
5178,80.0,0.0,120.0,0.0,64.0
5179,80.0,0.0,120.0,5.0,64.0
5180,71.0,80.0,120.0,1.0,64.0
5181,39.0,40.0,90.0,4.0,64.0
5182,51.0,0.0,90.0,8.0,64.0
5183,79.0,0.0,120.0,0.0,64.0
5184,79.0,0.0,120.0,5.0,64.0
5185,70.0,120.0,120.0,6.0,64.0
5186,70.0,0.0,120.0,1.0,64.0
5187,51.0,0.0,90.0,3.0,64.0
5188,39.0,0.0,90.0,10.0,64.0
5189,80.0,80.0,120.0,5.0,64.0
5190,80.0,0.0,120.0,0.0,64.0
5191,71.0,0.0,120.0,6.0,64.0
5192,71.0,0.0,120.0,1.0,64.0
5193,39.0,0.0,90.0,4.0,64.0
5194,51.0,40.0,90.0,3.0,64.0
5195,51.0,0.0,90.0,8.0,64.0
5196,73.0,0.0,120.0,1.0,64.0
5197,73.0,0.0,120.0,6.0,64.0
5198,39.0,0.0,90.0,10.0,64.0
5199,82.0,0.0,120.0,5.0,64.0
5200,82.0,120.0,120.0,0.0,64.0
5201,70.0,0.0,120.0,6.0,64.0
5202,70.0,80.0,120.0,1.0,64.0
5203,79.0,0.0,120.0,5.0,64.0
5204,79.0,0.0,120.0,0.0,64.0
5205,80.0,0.0,600.0,5.0,64.0
5206,71.0,0.0,600.0,1.0,64.0
5207,51.0,0.0,90.0,8.0,64.0
5208,39.0,155.0,90.0,4.0,64.0
5209,71.0,0.0,600.0,6.0,64.0
5210,51.0,0.0,90.0,3.0,64.0
5211,39.0,0.0,90.0,10.0,64.0
5212,80.0,125.0,600.0,0.0,64.0
5213,39.0,0.0,90.0,10.0,64.0
5214,39.0,160.0,90.0,4.0,64.0
5215,71.0,0.0,240.0,2.0,64.0
5216,71.0,80.0,240.0,7.0,64.0
5217,51.0,0.0,90.0,8.0,64.0
5218,51.0,0.0,90.0,3.0,64.0
5219,51.0,35.0,90.0,8.0,64.0
5220,75.0,80.0,240.0,7.0,64.0
5221,75.0,0.0,240.0,2.0,64.0
5222,39.0,0.0,90.0,10.0,64.0
5223,51.0,0.0,90.0,3.0,64.0
5224,39.0,0.0,90.0,4.0,64.0
5225,39.0,0.0,90.0,4.0,64.0
5226,51.0,160.0,90.0,3.0,64.0
5227,71.0,80.0,240.0,2.0,64.0
5228,51.0,0.0,90.0,8.0,64.0
5229,39.0,0.0,90.0,10.0,64.0
5230,71.0,0.0,240.0,7.0,64.0
5231,39.0,0.0,90.0,4.0,64.0
5232,51.0,0.0,90.0,8.0,64.0
5233,39.0,240.0,90.0,10.0,64.0
5234,51.0,0.0,90.0,3.0,64.0
5235,68.0,0.0,390.0,7.0,64.0
5236,68.0,80.0,390.0,2.0,64.0
5237,51.0,80.0,90.0,8.0,64.0
5238,39.0,0.0,90.0,4.0,64.0
5239,39.0,0.0,90.0,10.0,64.0
5240,83.0,80.0,240.0,6.0,64.0
5241,51.0,0.0,90.0,3.0,64.0
5242,87.0,0.0,240.0,5.0,64.0
5243,87.0,0.0,240.0,0.0,64.0
5244,83.0,0.0,240.0,1.0,64.0
5245,39.0,0.0,90.0,10.0,64.0
5246,51.0,0.0,90.0,8.0,64.0
5247,83.0,0.0,240.0,5.0,64.0
5248,39.0,0.0,90.0,4.0,64.0
5249,80.0,0.0,240.0,1.0,64.0
5250,83.0,0.0,240.0,0.0,64.0
5251,51.0,160.0,90.0,3.0,64.0
5252,80.0,80.0,240.0,6.0,64.0
5253,80.0,0.0,240.0,0.0,64.0
5254,39.0,0.0,90.0,4.0,64.0
5255,80.0,0.0,240.0,5.0,64.0
5256,51.0,0.0,90.0,8.0,64.0
5257,39.0,155.0,90.0,10.0,64.0
5258,75.0,0.0,240.0,6.0,64.0
5259,75.0,85.0,240.0,1.0,64.0
5260,51.0,0.0,90.0,3.0,64.0
5261,39.0,0.0,90.0,4.0,64.0
5262,82.0,120.0,120.0,5.0,64.0
5263,79.0,0.0,120.0,1.0,64.0
5264,82.0,0.0,120.0,0.0,64.0
5265,51.0,0.0,90.0,3.0,64.0
5266,63.0,0.0,2160.0,2.0,64.0
5267,63.0,0.0,2160.0,7.0,64.0
5268,79.0,0.0,120.0,6.0,64.0
5269,51.0,0.0,90.0,8.0,64.0
5270,39.0,40.0,90.0,10.0,64.0
5271,83.0,0.0,120.0,5.0,64.0
5272,83.0,0.0,120.0,0.0,64.0
5273,80.0,80.0,120.0,1.0,64.0
5274,80.0,0.0,120.0,6.0,64.0
5275,51.0,0.0,90.0,3.0,64.0
5276,85.0,0.0,120.0,5.0,64.0
5277,51.0,0.0,90.0,8.0,64.0
5278,39.0,40.0,90.0,10.0,64.0
5279,85.0,0.0,120.0,0.0,64.0
5280,39.0,0.0,90.0,4.0,64.0
5281,82.0,0.0,120.0,6.0,64.0
5282,82.0,120.0,120.0,1.0,64.0
5283,83.0,0.0,120.0,0.0,64.0
5284,80.0,80.0,120.0,1.0,64.0
5285,80.0,0.0,120.0,6.0,64.0
5286,83.0,0.0,120.0,5.0,64.0
5287,39.0,0.0,90.0,10.0,64.0
5288,82.0,0.0,120.0,5.0,64.0
5289,82.0,0.0,120.0,0.0,64.0
5290,79.0,0.0,120.0,6.0,64.0
5291,51.0,0.0,90.0,3.0,64.0
5292,51.0,0.0,90.0,8.0,64.0
5293,79.0,120.0,120.0,1.0,64.0
5294,39.0,40.0,90.0,4.0,64.0
5295,80.0,0.0,120.0,6.0,64.0
5296,83.0,0.0,120.0,0.0,64.0
5297,83.0,0.0,120.0,5.0,64.0
5298,80.0,80.0,120.0,1.0,64.0
5299,39.0,40.0,90.0,4.0,64.0
5300,51.0,0.0,90.0,3.0,64.0
5301,85.0,120.0,120.0,5.0,64.0
5302,85.0,0.0,120.0,0.0,64.0
5303,82.0,0.0,120.0,1.0,64.0
5304,82.0,0.0,120.0,6.0,64.0
5305,51.0,0.0,90.0,8.0,64.0
5306,39.0,0.0,90.0,10.0,64.0
5307,80.0,0.0,120.0,1.0,64.0
5308,80.0,0.0,120.0,6.0,64.0
5309,83.0,0.0,120.0,0.0,64.0
5310,83.0,80.0,120.0,5.0,64.0
5311,51.0,0.0,90.0,8.0,64.0
5312,82.0,0.0,120.0,0.0,64.0
5313,79.0,120.0,120.0,1.0,64.0
5314,51.0,0.0,90.0,3.0,64.0
5315,39.0,0.0,90.0,4.0,64.0
5316,39.0,40.0,90.0,10.0,64.0
5317,82.0,0.0,120.0,5.0,64.0
5318,79.0,0.0,120.0,6.0,64.0
5319,83.0,0.0,120.0,5.0,64.0
5320,83.0,0.0,120.0,0.0,64.0
5321,80.0,0.0,120.0,1.0,64.0
5322,80.0,80.0,120.0,6.0,64.0
5323,51.0,40.0,90.0,8.0,64.0
5324,51.0,0.0,90.0,3.0,64.0
5325,85.0,120.0,120.0,0.0,64.0
5326,39.0,0.0,90.0,10.0,64.0
5327,82.0,0.0,120.0,1.0,64.0
5328,82.0,0.0,120.0,6.0,64.0
5329,85.0,0.0,120.0,5.0,64.0
5330,39.0,0.0,90.0,4.0,64.0
5331,83.0,0.0,120.0,0.0,64.0
5332,80.0,0.0,120.0,1.0,64.0
5333,80.0,0.0,120.0,6.0,64.0
5334,83.0,80.0,120.0,5.0,64.0
5335,82.0,120.0,120.0,0.0,64.0
5336,82.0,0.0,120.0,5.0,64.0
5337,51.0,0.0,90.0,3.0,64.0
5338,39.0,0.0,90.0,4.0,64.0
5339,79.0,0.0,120.0,1.0,64.0
5340,79.0,0.0,120.0,6.0,64.0
5341,39.0,0.0,90.0,10.0,64.0
5342,51.0,40.0,90.0,8.0,64.0
5343,83.0,0.0,120.0,0.0,64.0
5344,83.0,80.0,120.0,5.0,64.0
5345,80.0,0.0,120.0,6.0,64.0
5346,80.0,0.0,120.0,1.0,64.0
5347,39.0,0.0,90.0,4.0,64.0
5348,82.0,0.0,120.0,1.0,64.0
5349,51.0,0.0,90.0,8.0,64.0
5350,39.0,40.0,90.0,10.0,64.0
5351,85.0,0.0,120.0,0.0,64.0
5352,51.0,0.0,90.0,3.0,64.0
5353,82.0,120.0,120.0,6.0,64.0
5354,85.0,0.0,120.0,5.0,64.0
5355,79.0,0.0,120.0,1.0,64.0
5356,82.0,0.0,120.0,5.0,64.0
5357,79.0,0.0,120.0,6.0,64.0
5358,82.0,80.0,120.0,0.0,64.0
5359,80.0,0.0,240.0,6.0,64.0
5360,80.0,85.0,240.0,1.0,64.0
5361,44.0,0.0,90.0,4.0,64.0
5362,83.0,0.0,390.0,5.0,64.0
5363,44.0,0.0,90.0,10.0,64.0
5364,56.0,155.0,90.0,3.0,64.0
5365,83.0,160.0,390.0,0.0,64.0
5366,56.0,0.0,90.0,8.0,64.0
5367,56.0,0.0,90.0,3.0,64.0
5368,71.0,0.0,390.0,1.0,64.0
5369,63.0,0.0,390.0,2.0,64.0
5370,71.0,160.0,390.0,6.0,64.0
5371,56.0,80.0,90.0,8.0,64.0
5372,63.0,0.0,390.0,7.0,64.0
5373,44.0,0.0,90.0,10.0,64.0
5374,44.0,0.0,90.0,4.0,64.0
5375,58.0,0.0,90.0,8.0,64.0
5376,58.0,0.0,90.0,3.0,64.0
5377,46.0,0.0,90.0,4.0,64.0
5378,46.0,80.0,90.0,10.0,64.0
5379,46.0,0.0,90.0,4.0,64.0
5380,58.0,0.0,90.0,3.0,64.0
5381,58.0,240.0,90.0,8.0,64.0
5382,70.0,160.0,390.0,1.0,64.0
5383,70.0,0.0,390.0,6.0,64.0
5384,61.0,0.0,390.0,7.0,64.0
5385,46.0,0.0,90.0,10.0,64.0
5386,61.0,0.0,390.0,2.0,64.0
5387,47.0,0.0,90.0,10.0,64.0
5388,59.0,0.0,90.0,3.0,64.0
5389,59.0,0.0,90.0,8.0,64.0
5390,47.0,80.0,90.0,4.0,64.0
5391,47.0,240.0,90.0,8.0,64.0
5392,35.0,0.0,90.0,10.0,64.0
5393,47.0,0.0,90.0,3.0,64.0
5394,35.0,0.0,90.0,4.0,64.0
5395,59.0,0.0,390.0,7.0,64.0
5396,59.0,160.0,390.0,2.0,64.0
5397,68.0,0.0,390.0,6.0,64.0
5398,68.0,0.0,390.0,1.0,64.0
5399,35.0,80.0,90.0,10.0,64.0
5400,47.0,0.0,90.0,8.0,64.0
5401,35.0,0.0,90.0,4.0,64.0
5402,47.0,0.0,90.0,3.0,64.0
5403,36.0,0.0,90.0,4.0,64.0
5404,58.0,0.0,240.0,7.0,64.0
5405,58.0,0.0,240.0,2.0,64.0
5406,48.0,0.0,90.0,3.0,64.0
5407,36.0,0.0,90.0,10.0,64.0
5408,66.0,0.0,240.0,6.0,64.0
5409,66.0,85.0,240.0,1.0,64.0
5410,48.0,155.0,90.0,8.0,64.0
5411,56.0,0.0,240.0,7.0,64.0
5412,56.0,85.0,240.0,2.0,64.0
5413,49.0,0.0,90.0,8.0,64.0
5414,83.0,115.0,1800.0,5.0,64.0
5415,83.0,0.0,1800.0,0.0,64.0
5416,49.0,155.0,90.0,3.0,64.0
5417,65.0,0.0,240.0,6.0,64.0
5418,65.0,0.0,240.0,1.0,64.0
5419,37.0,0.0,90.0,4.0,64.0
5420,37.0,0.0,90.0,10.0,64.0
5421,37.0,155.0,90.0,10.0,64.0
5422,49.0,0.0,90.0,3.0,64.0
5423,56.0,0.0,240.0,2.0,64.0
5424,65.0,0.0,240.0,1.0,64.0
5425,49.0,0.0,90.0,8.0,64.0
5426,56.0,0.0,240.0,7.0,64.0
5427,37.0,0.0,90.0,4.0,64.0
5428,65.0,85.0,240.0,6.0,64.0
5429,56.0,0.0,240.0,2.0,64.0
5430,37.0,0.0,90.0,10.0,64.0
5431,56.0,0.0,240.0,7.0,64.0
5432,65.0,0.0,240.0,6.0,64.0
5433,37.0,155.0,90.0,4.0,64.0
5434,49.0,0.0,90.0,8.0,64.0
5435,65.0,85.0,240.0,1.0,64.0
5436,49.0,0.0,90.0,3.0,64.0
5437,49.0,155.0,90.0,3.0,64.0
5438,56.0,85.0,240.0,7.0,64.0
5439,56.0,0.0,240.0,2.0,64.0
5440,65.0,0.0,240.0,6.0,64.0
5441,65.0,0.0,240.0,1.0,64.0
5442,37.0,0.0,90.0,4.0,64.0
5443,37.0,0.0,90.0,10.0,64.0
5444,49.0,0.0,90.0,8.0,64.0
5445,65.0,0.0,240.0,6.0,64.0
5446,65.0,0.0,240.0,1.0,64.0
5447,49.0,155.0,90.0,3.0,64.0
5448,49.0,0.0,90.0,8.0,64.0
5449,37.0,0.0,90.0,10.0,64.0
5450,37.0,0.0,90.0,4.0,64.0
5451,56.0,85.0,240.0,2.0,64.0
5452,56.0,0.0,240.0,7.0,64.0
5453,65.0,0.0,240.0,6.0,64.0
5454,37.0,0.0,90.0,4.0,64.0
5455,65.0,0.0,240.0,1.0,64.0
5456,56.0,85.0,240.0,7.0,64.0
5457,49.0,0.0,90.0,8.0,64.0
5458,49.0,0.0,90.0,3.0,64.0
5459,37.0,155.0,90.0,10.0,64.0
5460,56.0,0.0,240.0,2.0,64.0
5461,56.0,0.0,240.0,2.0,64.0
5462,65.0,85.0,240.0,6.0,64.0
5463,56.0,0.0,240.0,7.0,64.0
5464,49.0,155.0,90.0,3.0,64.0
5465,37.0,0.0,90.0,10.0,64.0
5466,49.0,0.0,90.0,8.0,64.0
5467,65.0,0.0,240.0,1.0,64.0
5468,37.0,0.0,90.0,4.0,64.0
5469,65.0,0.0,240.0,1.0,64.0
5470,37.0,0.0,90.0,10.0,64.0
5471,49.0,0.0,90.0,8.0,64.0
5472,49.0,40.0,90.0,3.0,64.0
5473,37.0,0.0,90.0,4.0,64.0
5474,65.0,0.0,240.0,6.0,64.0
5475,56.0,85.0,240.0,2.0,64.0
5476,56.0,0.0,240.0,7.0,64.0
5477,65.0,0.0,240.0,6.0,64.0
5478,82.0,80.0,240.0,5.0,64.0
5479,68.0,0.0,240.0,2.0,64.0
5480,37.0,0.0,90.0,10.0,64.0
5481,65.0,5.0,240.0,1.0,64.0
5482,68.0,0.0,240.0,7.0,64.0
5483,49.0,0.0,90.0,3.0,64.0
5484,37.0,155.0,90.0,4.0,64.0
5485,82.0,0.0,240.0,0.0,64.0
5486,49.0,0.0,90.0,8.0,64.0
5487,49.0,155.0,90.0,3.0,64.0
5488,68.0,85.0,240.0,7.0,64.0
5489,65.0,0.0,240.0,1.0,64.0
5490,37.0,0.0,90.0,4.0,64.0
5491,80.0,75.0,630.0,5.0,64.0
5492,37.0,0.0,90.0,10.0,64.0
5493,49.0,0.0,90.0,8.0,64.0
5494,65.0,0.0,240.0,6.0,64.0
5495,80.0,0.0,630.0,0.0,64.0
5496,68.0,0.0,240.0,2.0,64.0
5497,68.0,0.0,240.0,2.0,64.0
5498,68.0,85.0,240.0,7.0,64.0
5499,65.0,0.0,240.0,1.0,64.0
5500,65.0,0.0,240.0,6.0,64.0
5501,37.0,0.0,90.0,4.0,64.0
5502,49.0,0.0,90.0,3.0,64.0
5503,49.0,155.0,90.0,8.0,64.0
5504,37.0,0.0,90.0,10.0,64.0
5505,65.0,85.0,240.0,6.0,64.0
5506,68.0,0.0,240.0,2.0,64.0
5507,49.0,0.0,90.0,8.0,64.0
5508,68.0,0.0,240.0,7.0,64.0
5509,37.0,0.0,90.0,10.0,64.0
5510,37.0,80.0,90.0,4.0,64.0
5511,49.0,0.0,90.0,3.0,64.0
5512,65.0,0.0,240.0,1.0,64.0
5513,59.0,0.0,90.0,8.0,64.0
5514,68.0,0.0,240.0,7.0,64.0
5515,68.0,0.0,240.0,2.0,64.0
5516,62.0,5.0,240.0,6.0,64.0
5517,47.0,0.0,90.0,10.0,64.0
5518,78.0,0.0,240.0,5.0,64.0
5519,62.0,0.0,240.0,1.0,64.0
5520,59.0,155.0,90.0,3.0,64.0
5521,47.0,0.0,90.0,4.0,64.0
5522,78.0,80.0,240.0,0.0,64.0
5523,77.0,0.0,390.0,0.0,64.0
5524,59.0,155.0,90.0,8.0,64.0
5525,62.0,0.0,240.0,6.0,64.0
5526,77.0,75.0,390.0,5.0,64.0
5527,59.0,0.0,90.0,3.0,64.0
5528,62.0,0.0,240.0,1.0,64.0
5529,47.0,0.0,90.0,4.0,64.0
5530,47.0,0.0,90.0,10.0,64.0
5531,68.0,85.0,240.0,7.0,64.0
5532,68.0,0.0,240.0,2.0,64.0
5533,62.0,0.0,240.0,1.0,64.0
5534,47.0,0.0,90.0,10.0,64.0
5535,59.0,80.0,90.0,3.0,64.0
5536,68.0,0.0,240.0,2.0,64.0
5537,68.0,85.0,240.0,7.0,64.0
5538,59.0,0.0,90.0,8.0,64.0
5539,47.0,0.0,90.0,4.0,64.0
5540,62.0,0.0,240.0,6.0,64.0
5541,59.0,155.0,90.0,8.0,64.0
5542,59.0,0.0,90.0,3.0,64.0
5543,68.0,0.0,240.0,2.0,64.0
5544,47.0,0.0,90.0,4.0,64.0
5545,68.0,0.0,240.0,7.0,64.0
5546,62.0,0.0,240.0,1.0,64.0
5547,75.0,0.0,90.0,5.0,64.0
5548,75.0,0.0,90.0,0.0,64.0
5549,62.0,85.0,240.0,6.0,64.0
5550,47.0,0.0,90.0,10.0,64.0
5551,65.0,0.0,120.0,1.0,64.0
5552,46.0,40.0,90.0,10.0,64.0
5553,46.0,0.0,90.0,4.0,64.0
5554,58.0,0.0,90.0,8.0,64.0
5555,58.0,85.0,2160.0,7.0,64.0
5556,74.0,0.0,120.0,5.0,64.0
5557,74.0,0.0,120.0,0.0,64.0
5558,58.0,0.0,2160.0,2.0,64.0
5559,58.0,0.0,90.0,3.0,64.0
5560,65.0,120.0,120.0,6.0,64.0
5561,75.0,0.0,120.0,0.0,64.0
5562,66.0,80.0,120.0,1.0,64.0
5563,75.0,0.0,120.0,5.0,64.0
5564,66.0,0.0,120.0,6.0,64.0
5565,58.0,40.0,90.0,8.0,64.0
5566,68.0,120.0,120.0,6.0,64.0
5567,77.0,0.0,120.0,5.0,64.0
5568,68.0,0.0,120.0,1.0,64.0
5569,46.0,0.0,90.0,10.0,64.0
5570,46.0,0.0,90.0,4.0,64.0
5571,77.0,0.0,120.0,0.0,64.0
5572,58.0,0.0,90.0,3.0,64.0
5573,66.0,0.0,120.0,1.0,64.0
5574,75.0,0.0,120.0,0.0,64.0
5575,75.0,0.0,120.0,5.0,64.0
5576,66.0,80.0,120.0,6.0,64.0
5577,74.0,120.0,120.0,0.0,64.0
5578,58.0,40.0,90.0,8.0,64.0
5579,46.0,0.0,90.0,4.0,64.0
5580,74.0,0.0,120.0,5.0,64.0
5581,58.0,0.0,90.0,3.0,64.0
5582,46.0,0.0,90.0,10.0,64.0
5583,65.0,0.0,120.0,1.0,64.0
5584,65.0,0.0,120.0,6.0,64.0
5585,75.0,0.0,120.0,5.0,64.0
5586,66.0,0.0,120.0,6.0,64.0
5587,66.0,0.0,120.0,1.0,64.0
5588,75.0,80.0,120.0,0.0,64.0
5589,68.0,0.0,120.0,1.0,64.0
5590,68.0,0.0,120.0,6.0,64.0
5591,46.0,40.0,90.0,10.0,64.0
5592,77.0,0.0,120.0,0.0,64.0
5593,58.0,0.0,90.0,8.0,64.0
5594,77.0,120.0,120.0,5.0,64.0
5595,46.0,0.0,90.0,4.0,64.0
5596,58.0,0.0,90.0,3.0,64.0
5597,75.0,80.0,120.0,5.0,64.0
5598,66.0,0.0,120.0,1.0,64.0
5599,75.0,0.0,120.0,0.0,64.0
5600,66.0,0.0,120.0,6.0,64.0
5601,46.0,0.0,90.0,4.0,64.0
5602,74.0,0.0,120.0,0.0,64.0
5603,74.0,120.0,120.0,5.0,64.0
5604,65.0,0.0,120.0,6.0,64.0
5605,65.0,0.0,120.0,1.0,64.0
5606,58.0,0.0,90.0,8.0,64.0
5607,58.0,0.0,90.0,3.0,64.0
5608,46.0,40.0,90.0,10.0,64.0
5609,66.0,0.0,120.0,1.0,64.0
5610,75.0,0.0,120.0,0.0,64.0
5611,66.0,0.0,120.0,6.0,64.0
5612,75.0,80.0,120.0,5.0,64.0
5613,58.0,0.0,90.0,8.0,64.0
5614,68.0,0.0,120.0,1.0,64.0
5615,58.0,0.0,90.0,3.0,64.0
5616,46.0,40.0,90.0,10.0,64.0
5617,77.0,0.0,120.0,0.0,64.0
5618,46.0,0.0,90.0,4.0,64.0
5619,77.0,120.0,120.0,5.0,64.0
5620,68.0,0.0,120.0,6.0,64.0
5621,75.0,0.0,120.0,5.0,64.0
5622,66.0,0.0,120.0,1.0,64.0
5623,75.0,80.0,120.0,0.0,64.0
5624,66.0,0.0,120.0,6.0,64.0
5625,65.0,0.0,120.0,6.0,64.0
5626,58.0,40.0,90.0,3.0,64.0
5627,46.0,0.0,90.0,4.0,64.0
5628,46.0,0.0,90.0,10.0,64.0
5629,58.0,0.0,90.0,8.0,64.0
5630,65.0,0.0,120.0,1.0,64.0
5631,74.0,120.0,120.0,0.0,64.0
5632,74.0,0.0,120.0,5.0,64.0
5633,66.0,0.0,120.0,6.0,64.0
5634,75.0,0.0,120.0,5.0,64.0
5635,75.0,0.0,120.0,0.0,64.0
5636,66.0,80.0,120.0,1.0,64.0
5637,77.0,0.0,120.0,0.0,64.0
5638,68.0,0.0,120.0,6.0,64.0
5639,46.0,0.0,90.0,10.0,64.0
5640,77.0,120.0,120.0,5.0,64.0
5641,46.0,40.0,90.0,4.0,64.0
5642,68.0,0.0,120.0,1.0,64.0
5643,58.0,0.0,90.0,3.0,64.0
5644,58.0,0.0,90.0,8.0,64.0
5645,65.0,0.0,120.0,1.0,64.0
5646,74.0,0.0,120.0,0.0,64.0
5647,74.0,80.0,120.0,5.0,64.0
5648,65.0,0.0,120.0,6.0,64.0
5649,51.0,155.0,90.0,8.0,64.0
5650,66.0,0.0,600.0,6.0,64.0
5651,51.0,0.0,90.0,3.0,64.0
5652,66.0,125.0,600.0,1.0,64.0
5653,75.0,0.0,600.0,5.0,64.0
5654,39.0,0.0,90.0,4.0,64.0
5655,75.0,0.0,600.0,0.0,64.0
5656,39.0,0.0,90.0,10.0,64.0
5657,39.0,0.0,90.0,10.0,64.0
5658,51.0,0.0,90.0,8.0,64.0
5659,51.0,0.0,90.0,3.0,64.0
5660,66.0,0.0,240.0,2.0,64.0
5661,66.0,80.0,240.0,7.0,64.0
5662,39.0,160.0,90.0,4.0,64.0
5663,51.0,0.0,90.0,8.0,64.0
5664,51.0,0.0,90.0,3.0,64.0
5665,70.0,80.0,240.0,7.0,64.0
5666,70.0,0.0,240.0,2.0,64.0
5667,39.0,0.0,90.0,10.0,64.0
5668,39.0,35.0,90.0,4.0,64.0
5669,66.0,0.0,240.0,7.0,64.0
5670,66.0,80.0,240.0,2.0,64.0
5671,51.0,0.0,90.0,8.0,64.0
5672,39.0,0.0,90.0,4.0,64.0
5673,51.0,160.0,90.0,3.0,64.0
5674,39.0,0.0,90.0,10.0,64.0
5675,39.0,0.0,90.0,10.0,64.0
5676,39.0,240.0,90.0,4.0,64.0
5677,51.0,0.0,90.0,8.0,64.0
5678,63.0,80.0,390.0,2.0,64.0
5679,63.0,0.0,390.0,7.0,64.0
5680,51.0,0.0,90.0,3.0,64.0
5681,78.0,0.0,240.0,6.0,64.0
5682,39.0,0.0,90.0,4.0,64.0
5683,82.0,0.0,240.0,0.0,64.0
5684,51.0,0.0,90.0,8.0,64.0
5685,78.0,80.0,240.0,1.0,64.0
5686,51.0,80.0,90.0,3.0,64.0
5687,39.0,0.0,90.0,10.0,64.0
5688,82.0,0.0,240.0,5.0,64.0
5689,39.0,0.0,90.0,4.0,64.0
5690,51.0,160.0,90.0,8.0,64.0
5691,75.0,0.0,240.0,1.0,64.0
5692,78.0,0.0,240.0,5.0,64.0
5693,75.0,0.0,240.0,6.0,64.0
5694,78.0,80.0,240.0,0.0,64.0
5695,51.0,0.0,90.0,3.0,64.0
5696,39.0,0.0,90.0,10.0,64.0
5697,51.0,0.0,90.0,3.0,64.0
5698,70.0,85.0,240.0,1.0,64.0
5699,51.0,155.0,90.0,8.0,64.0
5700,70.0,0.0,240.0,6.0,64.0
5701,39.0,0.0,90.0,4.0,64.0
5702,75.0,0.0,240.0,0.0,64.0
5703,39.0,0.0,90.0,10.0,64.0
5704,75.0,0.0,240.0,5.0,64.0
5705,58.0,0.0,2160.0,7.0,64.0
5706,65.0,120.0,120.0,6.0,64.0
5707,65.0,0.0,120.0,1.0,64.0
5708,58.0,0.0,90.0,3.0,64.0
5709,77.0,0.0,120.0,0.0,64.0
5710,46.0,0.0,90.0,10.0,64.0
5711,58.0,40.0,90.0,8.0,64.0
5712,58.0,85.0,2160.0,2.0,64.0
5713,46.0,0.0,90.0,4.0,64.0
5714,77.0,0.0,120.0,5.0,64.0
5715,66.0,0.0,120.0,1.0,64.0
5716,78.0,0.0,120.0,0.0,64.0
5717,66.0,80.0,120.0,6.0,64.0
5718,78.0,0.0,120.0,5.0,64.0
5719,46.0,40.0,90.0,4.0,64.0
5720,80.0,0.0,120.0,0.0,64.0
5721,58.0,0.0,90.0,8.0,64.0
5722,68.0,0.0,120.0,6.0,64.0
5723,58.0,0.0,90.0,3.0,64.0
5724,80.0,0.0,120.0,5.0,64.0
5725,46.0,0.0,90.0,10.0,64.0
5726,68.0,120.0,120.0,1.0,64.0
5727,78.0,0.0,120.0,5.0,64.0
5728,66.0,0.0,120.0,6.0,64.0
5729,66.0,80.0,120.0,1.0,64.0
5730,78.0,0.0,120.0,0.0,64.0
5731,58.0,40.0,90.0,8.0,64.0
5732,65.0,120.0,120.0,6.0,64.0
5733,77.0,0.0,120.0,0.0,64.0
5734,65.0,0.0,120.0,1.0,64.0
5735,58.0,0.0,90.0,3.0,64.0
5736,46.0,0.0,90.0,10.0,64.0
5737,77.0,0.0,120.0,5.0,64.0
5738,46.0,0.0,90.0,4.0,64.0
5739,78.0,0.0,120.0,5.0,64.0
5740,78.0,0.0,120.0,0.0,64.0
5741,66.0,80.0,120.0,1.0,64.0
5742,66.0,0.0,120.0,6.0,64.0
5743,68.0,0.0,120.0,6.0,64.0
5744,58.0,0.0,90.0,8.0,64.0
5745,80.0,0.0,120.0,0.0,64.0
5746,46.0,0.0,90.0,10.0,64.0
5747,46.0,0.0,90.0,4.0,64.0
5748,80.0,0.0,120.0,5.0,64.0
5749,68.0,120.0,120.0,1.0,64.0
5750,58.0,40.0,90.0,3.0,64.0
5751,78.0,0.0,120.0,5.0,64.0
5752,66.0,80.0,120.0,6.0,64.0
5753,66.0,0.0,120.0,1.0,64.0
5754,78.0,0.0,120.0,0.0,64.0
5755,46.0,0.0,90.0,4.0,64.0
5756,65.0,0.0,120.0,6.0,64.0
5757,77.0,0.0,120.0,5.0,64.0
5758,58.0,40.0,90.0,8.0,64.0
5759,65.0,120.0,120.0,1.0,64.0
5760,58.0,0.0,90.0,3.0,64.0
5761,46.0,0.0,90.0,10.0,64.0
5762,77.0,0.0,120.0,0.0,64.0
5763,66.0,0.0,120.0,1.0,64.0
5764,78.0,0.0,120.0,5.0,64.0
5765,78.0,0.0,120.0,0.0,64.0
5766,66.0,80.0,120.0,6.0,64.0
5767,80.0,120.0,120.0,0.0,64.0
5768,80.0,0.0,120.0,5.0,64.0
5769,58.0,0.0,90.0,8.0,64.0
5770,46.0,0.0,90.0,4.0,64.0
5771,68.0,0.0,120.0,1.0,64.0
5772,58.0,0.0,90.0,3.0,64.0
5773,68.0,0.0,120.0,6.0,64.0
5774,46.0,40.0,90.0,10.0,64.0
5775,66.0,0.0,120.0,6.0,64.0
5776,66.0,0.0,120.0,1.0,64.0
5777,78.0,80.0,120.0,5.0,64.0
5778,78.0,0.0,120.0,0.0,64.0
5779,77.0,0.0,120.0,0.0,64.0
5780,46.0,0.0,90.0,4.0,64.0
5781,46.0,0.0,90.0,10.0,64.0
5782,65.0,0.0,120.0,6.0,64.0
5783,58.0,40.0,90.0,3.0,64.0
5784,58.0,0.0,90.0,8.0,64.0
5785,65.0,0.0,120.0,1.0,64.0
5786,77.0,120.0,120.0,5.0,64.0
5787,66.0,0.0,120.0,1.0,64.0
5788,66.0,0.0,120.0,6.0,64.0
5789,78.0,0.0,120.0,0.0,64.0
5790,78.0,80.0,120.0,5.0,64.0
5791,58.0,0.0,90.0,3.0,64.0
5792,46.0,0.0,90.0,10.0,64.0
5793,68.0,120.0,120.0,6.0,64.0
5794,68.0,0.0,120.0,1.0,64.0
5795,46.0,0.0,90.0,4.0,64.0
5796,80.0,0.0,120.0,5.0,64.0
5797,58.0,40.0,90.0,8.0,64.0
5798,80.0,0.0,120.0,0.0,64.0
5799,65.0,80.0,120.0,1.0,64.0
5800,77.0,0.0,120.0,5.0,64.0
5801,77.0,0.0,120.0,0.0,64.0
5802,65.0,0.0,120.0,6.0,64.0
5803,63.0,155.0,90.0,8.0,64.0
5804,78.0,0.0,390.0,0.0,64.0
5805,63.0,0.0,90.0,3.0,64.0
5806,51.0,0.0,90.0,4.0,64.0
5807,63.0,0.0,390.0,6.0,64.0
5808,51.0,0.0,90.0,10.0,64.0
5809,63.0,140.0,390.0,1.0,64.0
5810,78.0,0.0,390.0,5.0,64.0
5811,70.0,20.0,390.0,2.0,64.0
5812,63.0,80.0,90.0,3.0,64.0
5813,51.0,0.0,90.0,4.0,64.0
5814,51.0,0.0,90.0,10.0,64.0
5815,63.0,0.0,90.0,8.0,64.0
5816,70.0,0.0,390.0,7.0,64.0
5817,63.0,40.0,90.0,8.0,64.0
5818,51.0,0.0,90.0,10.0,64.0
5819,51.0,0.0,90.0,4.0,64.0
5820,78.0,0.0,60.0,1.0,64.0
5821,63.0,0.0,90.0,3.0,64.0
5822,78.0,20.0,60.0,6.0,64.0
5823,80.0,40.0,60.0,1.0,64.0
5824,80.0,0.0,60.0,6.0,64.0
5825,78.0,60.0,60.0,1.0,64.0
5826,78.0,0.0,60.0,6.0,64.0
5827,80.0,0.0,60.0,6.0,64.0
5828,80.0,60.0,60.0,1.0,64.0
5829,70.0,5.0,240.0,2.0,64.0
5830,51.0,0.0,90.0,10.0,64.0
5831,51.0,40.0,90.0,4.0,64.0
5832,78.0,20.0,60.0,6.0,64.0
5833,78.0,0.0,60.0,1.0,64.0
5834,70.0,0.0,240.0,7.0,64.0
5835,63.0,0.0,90.0,8.0,64.0
5836,63.0,0.0,90.0,3.0,64.0
5837,80.0,60.0,60.0,6.0,64.0
5838,80.0,0.0,60.0,1.0,64.0
5839,77.0,0.0,60.0,1.0,64.0
5840,77.0,55.0,60.0,6.0,64.0
5841,78.0,0.0,60.0,1.0,64.0
5842,78.0,80.0,60.0,6.0,64.0
5843,68.0,0.0,240.0,7.0,64.0
5844,60.0,0.0,90.0,3.0,64.0
5845,68.0,85.0,240.0,2.0,64.0
5846,48.0,0.0,90.0,10.0,64.0
5847,87.0,40.0,390.0,6.0,64.0
5848,68.0,0.0,90.0,0.0,64.0
5849,68.0,0.0,90.0,5.0,64.0
5850,87.0,0.0,390.0,1.0,64.0
5851,48.0,0.0,90.0,4.0,64.0
5852,60.0,120.0,90.0,8.0,64.0
5853,70.0,35.0,90.0,5.0,64.0
5854,70.0,0.0,90.0,0.0,64.0
5855,48.0,0.0,90.0,4.0,64.0
5856,72.0,0.0,90.0,0.0,64.0
5857,60.0,80.0,90.0,3.0,64.0
5858,68.0,0.0,240.0,2.0,64.0
5859,72.0,0.0,90.0,5.0,64.0
5860,48.0,0.0,90.0,10.0,64.0
5861,68.0,85.0,240.0,7.0,64.0
5862,60.0,0.0,90.0,8.0,64.0
5863,73.0,0.0,90.0,0.0,64.0
5864,73.0,35.0,90.0,5.0,64.0
5865,68.0,0.0,240.0,7.0,64.0
5866,75.0,0.0,90.0,0.0,64.0
5867,48.0,0.0,90.0,10.0,64.0
5868,68.0,85.0,240.0,2.0,64.0
5869,48.0,0.0,90.0,4.0,64.0
5870,60.0,0.0,90.0,8.0,64.0
5871,75.0,120.0,90.0,5.0,64.0
5872,60.0,0.0,90.0,3.0,64.0
5873,76.0,0.0,90.0,0.0,64.0
5874,76.0,35.0,90.0,5.0,64.0
5875,68.0,0.0,240.0,7.0,64.0
5876,60.0,120.0,90.0,3.0,64.0
5877,68.0,85.0,240.0,2.0,64.0
5878,48.0,0.0,90.0,10.0,64.0
5879,78.0,0.0,90.0,5.0,64.0
5880,48.0,0.0,90.0,4.0,64.0
5881,78.0,0.0,90.0,0.0,64.0
5882,60.0,0.0,90.0,8.0,64.0
5883,75.0,35.0,90.0,5.0,64.0
5884,75.0,0.0,90.0,0.0,64.0
5885,61.0,155.0,90.0,8.0,64.0
5886,49.0,0.0,90.0,10.0,64.0
5887,76.0,0.0,390.0,0.0,64.0
5888,68.0,0.0,240.0,2.0,64.0
5889,61.0,0.0,90.0,3.0,64.0
5890,68.0,85.0,240.0,7.0,64.0
5891,76.0,140.0,390.0,5.0,64.0
5892,49.0,0.0,90.0,4.0,64.0
5893,49.0,0.0,90.0,4.0,64.0
5894,61.0,0.0,90.0,3.0,64.0
5895,68.0,0.0,390.0,2.0,64.0
5896,49.0,0.0,90.0,10.0,64.0
5897,68.0,20.0,390.0,7.0,64.0
5898,61.0,80.0,90.0,8.0,64.0
5899,61.0,0.0,90.0,3.0,64.0
5900,61.0,40.0,90.0,8.0,64.0
5901,49.0,0.0,90.0,10.0,64.0
5902,76.0,0.0,60.0,6.0,64.0
5903,76.0,20.0,60.0,1.0,64.0
5904,49.0,0.0,90.0,4.0,64.0
5905,78.0,0.0,60.0,1.0,64.0
5906,78.0,40.0,60.0,6.0,64.0
5907,76.0,0.0,60.0,6.0,64.0
5908,76.0,60.0,60.0,1.0,64.0
5909,78.0,60.0,60.0,6.0,64.0
5910,78.0,0.0,60.0,1.0,64.0
5911,68.0,0.0,240.0,7.0,64.0
5912,68.0,5.0,240.0,2.0,64.0
5913,61.0,0.0,90.0,3.0,64.0
5914,49.0,40.0,90.0,10.0,64.0
5915,76.0,20.0,60.0,6.0,64.0
5916,61.0,0.0,90.0,8.0,64.0
5917,49.0,0.0,90.0,4.0,64.0
5918,76.0,0.0,60.0,1.0,64.0
5919,78.0,0.0,60.0,6.0,64.0
5920,78.0,60.0,60.0,1.0,64.0
5921,75.0,55.0,60.0,6.0,64.0
5922,75.0,0.0,60.0,1.0,64.0
5923,76.0,80.0,60.0,1.0,64.0
5924,76.0,0.0,60.0,6.0,64.0
5925,58.0,0.0,90.0,8.0,64.0
5926,46.0,0.0,90.0,10.0,64.0
5927,85.0,40.0,390.0,1.0,64.0
5928,66.0,120.0,90.0,5.0,64.0
5929,66.0,85.0,240.0,7.0,64.0
5930,85.0,0.0,390.0,6.0,64.0
5931,66.0,0.0,90.0,0.0,64.0
5932,46.0,0.0,90.0,4.0,64.0
5933,58.0,0.0,90.0,3.0,64.0
5934,66.0,0.0,240.0,2.0,64.0
5935,68.0,0.0,90.0,0.0,64.0
5936,68.0,35.0,90.0,5.0,64.0
5937,58.0,0.0,90.0,8.0,64.0
5938,70.0,0.0,90.0,5.0,64.0
5939,58.0,80.0,90.0,3.0,64.0
5940,70.0,0.0,90.0,0.0,64.0
5941,46.0,0.0,90.0,10.0,64.0
5942,46.0,0.0,90.0,4.0,64.0
5943,66.0,85.0,240.0,7.0,64.0
5944,66.0,0.0,240.0,2.0,64.0
5945,71.0,0.0,90.0,0.0,64.0
5946,71.0,35.0,90.0,5.0,64.0
5947,73.0,0.0,90.0,5.0,64.0
5948,58.0,120.0,90.0,8.0,64.0
5949,66.0,0.0,240.0,7.0,64.0
5950,58.0,0.0,90.0,3.0,64.0
5951,46.0,0.0,90.0,10.0,64.0
5952,66.0,85.0,240.0,2.0,64.0
5953,46.0,0.0,90.0,4.0,64.0
5954,73.0,0.0,90.0,0.0,64.0
5955,75.0,35.0,90.0,0.0,64.0
5956,75.0,0.0,90.0,5.0,64.0
5957,58.0,0.0,90.0,3.0,64.0
5958,46.0,0.0,90.0,10.0,64.0
5959,76.0,120.0,90.0,5.0,64.0
5960,66.0,85.0,240.0,7.0,64.0
5961,76.0,0.0,90.0,0.0,64.0
5962,66.0,0.0,240.0,2.0,64.0
5963,58.0,0.0,90.0,8.0,64.0
5964,46.0,0.0,90.0,4.0,64.0
5965,73.0,0.0,90.0,0.0,64.0
5966,73.0,35.0,90.0,5.0,64.0
5967,66.0,0.0,390.0,7.0,64.0
5968,59.0,0.0,90.0,3.0,64.0
5969,47.0,240.0,90.0,4.0,64.0
5970,59.0,0.0,90.0,8.0,64.0
5971,75.0,160.0,390.0,5.0,64.0
5972,66.0,0.0,390.0,2.0,64.0
5973,75.0,0.0,390.0,0.0,64.0
5974,47.0,0.0,90.0,10.0,64.0
5975,47.0,80.0,90.0,4.0,64.0
5976,78.0,80.0,480.0,6.0,64.0
5977,59.0,0.0,90.0,8.0,64.0
5978,78.0,0.0,480.0,1.0,64.0
5979,59.0,0.0,90.0,3.0,64.0
5980,47.0,0.0,90.0,10.0,64.0
5981,47.0,0.0,90.0,4.0,64.0
5982,47.0,0.0,90.0,10.0,64.0
5983,59.0,0.0,90.0,3.0,64.0
5984,59.0,115.0,840.0,2.0,64.0
5985,87.0,75.0,630.0,0.0,64.0
5986,59.0,0.0,840.0,7.0,64.0
5987,59.0,160.0,90.0,8.0,64.0
5988,87.0,0.0,630.0,5.0,64.0
5989,59.0,0.0,90.0,8.0,64.0
5990,59.0,0.0,90.0,3.0,64.0
5991,79.0,85.0,240.0,6.0,64.0
5992,47.0,0.0,90.0,10.0,64.0
5993,47.0,155.0,90.0,4.0,64.0
5994,79.0,0.0,240.0,1.0,64.0
5995,59.0,0.0,90.0,8.0,64.0
5996,80.0,85.0,240.0,6.0,64.0
5997,47.0,0.0,90.0,4.0,64.0
5998,47.0,0.0,90.0,10.0,64.0
5999,80.0,0.0,240.0,1.0,64.0
6000,59.0,80.0,90.0,3.0,64.0
6001,59.0,0.0,90.0,8.0,64.0
6002,75.0,0.0,390.0,6.0,64.0
6003,75.0,75.0,390.0,1.0,64.0
6004,47.0,0.0,90.0,10.0,64.0
6005,85.0,0.0,120.0,0.0,64.0
6006,47.0,0.0,90.0,4.0,64.0
6007,85.0,0.0,120.0,5.0,64.0
6008,59.0,40.0,90.0,3.0,64.0
6009,83.0,85.0,120.0,5.0,64.0
6010,83.0,0.0,120.0,0.0,64.0
6011,63.0,0.0,240.0,7.0,64.0
6012,63.0,80.0,240.0,2.0,64.0
6013,48.0,0.0,90.0,10.0,64.0
6014,60.0,0.0,90.0,8.0,64.0
6015,82.0,0.0,120.0,0.0,64.0
6016,82.0,40.0,120.0,5.0,64.0
6017,60.0,40.0,90.0,3.0,64.0
6018,48.0,0.0,90.0,4.0,64.0
6019,80.0,0.0,120.0,0.0,64.0
6020,80.0,5.0,120.0,5.0,64.0
6021,48.0,0.0,90.0,4.0,64.0
6022,75.0,405.0,240.0,1.0,64.0
6023,80.0,115.0,120.0,0.0,64.0
6024,80.0,0.0,120.0,5.0,64.0
6025,75.0,0.0,240.0,6.0,64.0
6026,60.0,40.0,90.0,3.0,64.0
6027,68.0,0.0,240.0,7.0,64.0
6028,48.0,0.0,90.0,10.0,64.0
6029,60.0,0.0,90.0,8.0,64.0
6030,68.0,0.0,240.0,2.0,64.0
6031,78.0,0.0,120.0,5.0,64.0
6032,78.0,0.0,120.0,0.0,64.0
6033,77.0,0.0,390.0,5.0,64.0
6034,77.0,0.0,390.0,0.0,64.0
6035,68.0,0.0,390.0,7.0,64.0
6036,68.0,0.0,390.0,1.0,64.0
6037,49.0,375.0,390.0,4.0,64.0
6038,68.0,0.0,390.0,2.0,64.0
6039,73.0,0.0,390.0,1.0,64.0
6040,73.0,0.0,390.0,6.0,64.0
6041,61.0,0.0,390.0,3.0,64.0
6042,49.0,0.0,390.0,10.0,64.0
6043,68.0,0.0,390.0,6.0,64.0
6044,61.0,0.0,390.0,8.0,64.0
6045,80.0,0.0,240.0,1.0,64.0
6046,77.0,0.0,240.0,1.0,64.0
6047,85.0,0.0,240.0,0.0,64.0
6048,37.0,0.0,240.0,10.0,64.0
6049,49.0,240.0,240.0,8.0,64.0
6050,73.0,0.0,240.0,7.0,64.0
6051,37.0,0.0,240.0,4.0,64.0
6052,85.0,0.0,240.0,5.0,64.0
6053,80.0,0.0,240.0,6.0,64.0
6054,73.0,0.0,240.0,2.0,64.0
6055,77.0,0.0,240.0,6.0,64.0
6056,49.0,0.0,240.0,3.0,64.0
6057,77.0,0.0,120.0,1.0,64.0
6058,80.0,405.0,120.0,1.0,64.0
6059,85.0,0.0,120.0,0.0,64.0
6060,73.0,0.0,120.0,2.0,64.0
6061,73.0,0.0,120.0,7.0,64.0
6062,77.0,0.0,120.0,6.0,64.0
6063,37.0,0.0,120.0,10.0,64.0
6064,49.0,0.0,120.0,3.0,64.0
6065,85.0,0.0,120.0,5.0,64.0
6066,80.0,0.0,120.0,6.0,64.0
6067,37.0,0.0,120.0,4.0,64.0
6068,49.0,0.0,120.0,8.0,64.0
6069,77.0,0.0,390.0,1.0,64.0
6070,80.0,0.0,390.0,1.0,64.0
6071,85.0,0.0,390.0,5.0,64.0
6072,49.0,920.0,390.0,8.0,64.0
6073,37.0,0.0,390.0,10.0,64.0
6074,37.0,0.0,390.0,4.0,64.0
6075,85.0,0.0,390.0,0.0,64.0
6076,61.0,0.0,390.0,7.0,64.0
6077,61.0,0.0,390.0,2.0,64.0
6078,80.0,0.0,390.0,6.0,64.0
6079,77.0,0.0,390.0,6.0,64.0
6080,49.0,0.0,390.0,3.0,64.0
6081,85.0,0.0,1920.0,5.0,64.0
6082,54.0,0.0,390.0,3.0,64.0
6083,42.0,0.0,390.0,10.0,64.0
6084,66.0,0.0,120.0,6.0,64.0
6085,54.0,0.0,390.0,8.0,64.0
6086,66.0,120.0,120.0,1.0,64.0
6087,85.0,0.0,1920.0,0.0,64.0
6088,42.0,80.0,390.0,4.0,64.0
6089,65.0,0.0,120.0,6.0,64.0
6090,65.0,120.0,120.0,1.0,64.0
6091,66.0,40.0,120.0,6.0,64.0
6092,66.0,0.0,120.0,1.0,64.0
6093,68.0,0.0,120.0,6.0,64.0
6094,68.0,120.0,120.0,1.0,64.0
6095,54.0,0.0,390.0,7.0,64.0
6096,54.0,80.0,390.0,2.0,64.0
6097,69.0,120.0,120.0,6.0,64.0
6098,69.0,0.0,120.0,1.0,64.0
6099,71.0,0.0,120.0,6.0,64.0
6100,71.0,120.0,120.0,1.0,64.0
6101,69.0,0.0,120.0,1.0,64.0
6102,69.0,40.0,120.0,6.0,64.0
6103,68.0,120.0,120.0,6.0,64.0
6104,68.0,0.0,120.0,1.0,64.0
6105,42.0,0.0,390.0,10.0,64.0
6106,54.0,0.0,390.0,8.0,64.0
6107,42.0,80.0,390.0,4.0,64.0
6108,54.0,0.0,390.0,3.0,64.0
6109,66.0,120.0,120.0,6.0,64.0
6110,66.0,0.0,120.0,1.0,64.0
6111,65.0,120.0,120.0,1.0,64.0
6112,65.0,0.0,120.0,6.0,64.0
6113,66.0,40.0,120.0,6.0,64.0
6114,66.0,0.0,120.0,1.0,64.0
6115,68.0,0.0,120.0,1.0,64.0
6116,68.0,120.0,120.0,6.0,64.0
6117,69.0,120.0,120.0,1.0,64.0
6118,54.0,0.0,390.0,2.0,64.0
6119,69.0,0.0,120.0,6.0,64.0
6120,54.0,80.0,390.0,7.0,64.0
6121,68.0,0.0,120.0,6.0,64.0
6122,68.0,120.0,120.0,1.0,64.0
6123,69.0,40.0,120.0,6.0,64.0
6124,69.0,0.0,120.0,1.0,64.0
6125,66.0,0.0,15.0,6.0,64.0
6126,59.0,0.0,390.0,3.0,64.0
6127,47.0,80.0,390.0,10.0,64.0
6128,86.0,0.0,1920.0,0.0,64.0
6129,86.0,120.0,1920.0,5.0,64.0
6130,66.0,115.0,15.0,1.0,64.0
6131,47.0,0.0,390.0,4.0,64.0
6132,59.0,0.0,390.0,8.0,64.0
6133,74.0,120.0,120.0,1.0,64.0
6134,74.0,0.0,120.0,6.0,64.0
6135,78.0,0.0,120.0,6.0,64.0
6136,78.0,40.0,120.0,1.0,64.0
6137,76.0,0.0,120.0,6.0,64.0
6138,76.0,120.0,120.0,1.0,64.0
6139,59.0,0.0,390.0,7.0,64.0
6140,59.0,80.0,390.0,2.0,64.0
6141,74.0,0.0,120.0,6.0,64.0
6142,74.0,120.0,120.0,1.0,64.0
6143,76.0,120.0,120.0,6.0,64.0
6144,76.0,0.0,120.0,1.0,64.0
6145,74.0,0.0,120.0,1.0,64.0
6146,74.0,40.0,120.0,6.0,64.0
6147,73.0,120.0,120.0,1.0,64.0
6148,73.0,0.0,120.0,6.0,64.0
6149,47.0,0.0,390.0,4.0,64.0
6150,74.0,0.0,120.0,1.0,64.0
6151,59.0,0.0,390.0,8.0,64.0
6152,74.0,120.0,120.0,6.0,64.0
6153,47.0,0.0,390.0,10.0,64.0
6154,59.0,80.0,390.0,3.0,64.0
6155,73.0,0.0,120.0,1.0,64.0
6156,73.0,120.0,120.0,6.0,64.0
6157,71.0,0.0,120.0,1.0,64.0
6158,71.0,40.0,120.0,6.0,64.0
6159,73.0,0.0,120.0,1.0,64.0
6160,73.0,120.0,120.0,6.0,64.0
6161,59.0,0.0,390.0,7.0,64.0
6162,59.0,75.0,390.0,2.0,64.0
6163,71.0,120.0,120.0,1.0,64.0
6164,71.0,0.0,120.0,6.0,64.0
6165,69.0,0.0,120.0,6.0,64.0
6166,69.0,120.0,120.0,1.0,64.0
6167,68.0,40.0,120.0,1.0,64.0
6168,68.0,0.0,120.0,6.0,64.0
6169,69.0,5.0,120.0,6.0,64.0
6170,69.0,0.0,120.0,1.0,64.0
6171,77.0,0.0,1920.0,5.0,64.0
6172,49.0,0.0,390.0,4.0,64.0
6173,68.0,0.0,120.0,1.0,64.0
6174,61.0,0.0,390.0,3.0,64.0
6175,77.0,120.0,1920.0,0.0,64.0
6176,68.0,120.0,120.0,6.0,64.0
6177,61.0,80.0,390.0,8.0,64.0
6178,49.0,0.0,390.0,10.0,64.0
6179,66.0,0.0,120.0,1.0,64.0
6180,66.0,120.0,120.0,6.0,64.0
6181,65.0,40.0,120.0,1.0,64.0
6182,65.0,0.0,120.0,6.0,64.0
6183,66.0,0.0,120.0,1.0,64.0
6184,66.0,120.0,120.0,6.0,64.0
6185,61.0,0.0,390.0,2.0,64.0
6186,68.0,120.0,120.0,6.0,64.0
6187,61.0,80.0,390.0,7.0,64.0
6188,68.0,0.0,120.0,1.0,64.0
6189,69.0,0.0,120.0,1.0,64.0
6190,69.0,120.0,120.0,6.0,64.0
6191,71.0,0.0,120.0,6.0,64.0
6192,71.0,40.0,120.0,1.0,64.0
6193,69.0,0.0,120.0,1.0,64.0
6194,69.0,120.0,120.0,6.0,64.0
6195,71.0,0.0,120.0,6.0,64.0
6196,71.0,120.0,120.0,1.0,64.0
6197,49.0,0.0,390.0,10.0,64.0
6198,49.0,0.0,390.0,4.0,64.0
6199,61.0,80.0,390.0,8.0,64.0
6200,61.0,0.0,390.0,3.0,64.0
6201,73.0,0.0,120.0,6.0,64.0
6202,73.0,120.0,120.0,1.0,64.0
6203,74.0,0.0,120.0,6.0,64.0
6204,74.0,40.0,120.0,1.0,64.0
6205,73.0,120.0,120.0,1.0,64.0
6206,73.0,0.0,120.0,6.0,64.0
6207,76.0,0.0,120.0,6.0,64.0
6208,61.0,75.0,390.0,7.0,64.0
6209,61.0,0.0,390.0,2.0,64.0
6210,76.0,120.0,120.0,1.0,64.0
6211,74.0,0.0,120.0,6.0,64.0
6212,74.0,120.0,120.0,1.0,64.0
6213,73.0,40.0,120.0,1.0,64.0
6214,73.0,0.0,120.0,6.0,64.0
6215,71.0,0.0,120.0,6.0,64.0
6216,71.0,5.0,120.0,1.0,64.0
6217,78.0,0.0,390.0,5.0,64.0
6218,50.0,0.0,390.0,4.0,64.0
6219,50.0,0.0,390.0,10.0,64.0
6220,69.0,0.0,120.0,6.0,64.0
6221,62.0,80.0,390.0,3.0,64.0
6222,78.0,0.0,390.0,0.0,64.0
6223,69.0,120.0,120.0,1.0,64.0
6224,62.0,0.0,390.0,8.0,64.0
6225,68.0,0.0,120.0,6.0,64.0
6226,68.0,120.0,120.0,1.0,64.0
6227,66.0,40.0,120.0,6.0,64.0
6228,66.0,0.0,120.0,1.0,64.0
6229,65.0,0.0,120.0,6.0,64.0
6230,65.0,120.0,120.0,1.0,64.0
6231,62.0,80.0,390.0,7.0,64.0
6232,66.0,0.0,120.0,6.0,64.0
6233,62.0,0.0,390.0,2.0,64.0
6234,66.0,120.0,120.0,1.0,64.0
6235,68.0,0.0,120.0,6.0,64.0
6236,68.0,120.0,120.0,1.0,64.0
6237,66.0,40.0,120.0,6.0,64.0
6238,66.0,0.0,120.0,1.0,64.0
6239,68.0,0.0,120.0,1.0,64.0
6240,68.0,120.0,120.0,6.0,64.0
6241,69.0,0.0,120.0,1.0,64.0
6242,50.0,0.0,390.0,10.0,64.0
6243,69.0,120.0,120.0,6.0,64.0
6244,50.0,80.0,390.0,4.0,64.0
6245,62.0,0.0,390.0,3.0,64.0
6246,62.0,0.0,390.0,8.0,64.0
6247,68.0,0.0,120.0,6.0,64.0
6248,68.0,120.0,120.0,1.0,64.0
6249,66.0,0.0,120.0,6.0,64.0
6250,66.0,40.0,120.0,1.0,64.0
6251,65.0,120.0,120.0,6.0,64.0
6252,65.0,0.0,120.0,1.0,64.0
6253,62.0,0.0,390.0,2.0,64.0
6254,66.0,120.0,120.0,6.0,64.0
6255,66.0,0.0,120.0,1.0,64.0
6256,62.0,75.0,390.0,7.0,64.0
6257,68.0,120.0,120.0,1.0,64.0
6258,68.0,0.0,120.0,6.0,64.0
6259,69.0,0.0,120.0,1.0,64.0
6260,69.0,40.0,120.0,6.0,64.0
6261,71.0,0.0,120.0,1.0,64.0
6262,71.0,125.0,120.0,6.0,64.0
6263,57.0,0.0,390.0,8.0,64.0
6264,57.0,80.0,390.0,3.0,64.0
6265,78.0,0.0,1320.0,5.0,64.0
6266,73.0,120.0,120.0,1.0,64.0
6267,45.0,0.0,390.0,10.0,64.0
6268,78.0,0.0,1320.0,0.0,64.0
6269,45.0,0.0,390.0,4.0,64.0
6270,73.0,0.0,120.0,6.0,64.0
6271,71.0,120.0,120.0,1.0,64.0
6272,71.0,0.0,120.0,6.0,64.0
6273,69.0,40.0,120.0,6.0,64.0
6274,69.0,0.0,120.0,1.0,64.0
6275,68.0,0.0,120.0,1.0,64.0
6276,68.0,120.0,120.0,6.0,64.0
6277,57.0,0.0,390.0,2.0,64.0
6278,66.0,0.0,120.0,6.0,64.0
6279,66.0,120.0,120.0,1.0,64.0
6280,57.0,80.0,390.0,7.0,64.0
6281,68.0,0.0,120.0,1.0,64.0
6282,68.0,120.0,120.0,6.0,64.0
6283,69.0,0.0,120.0,1.0,64.0
6284,69.0,40.0,120.0,6.0,64.0
6285,71.0,0.0,120.0,1.0,64.0
6286,71.0,120.0,120.0,6.0,64.0
6287,45.0,0.0,390.0,4.0,64.0
6288,57.0,80.0,390.0,8.0,64.0
6289,73.0,0.0,120.0,6.0,64.0
6290,73.0,120.0,120.0,1.0,64.0
6291,45.0,0.0,390.0,10.0,64.0
6292,57.0,0.0,390.0,3.0,64.0
6293,71.0,0.0,120.0,6.0,64.0
6294,71.0,120.0,120.0,1.0,64.0
6295,69.0,40.0,120.0,6.0,64.0
6296,69.0,0.0,120.0,1.0,64.0
6297,68.0,120.0,120.0,6.0,64.0
6298,68.0,0.0,120.0,1.0,64.0
6299,85.0,0.0,240.0,0.0,64.0
6300,85.0,120.0,240.0,5.0,64.0
6301,57.0,0.0,390.0,2.0,64.0
6302,66.0,0.0,120.0,1.0,64.0
6303,66.0,120.0,120.0,6.0,64.0
6304,57.0,75.0,390.0,7.0,64.0
6305,69.0,0.0,120.0,1.0,64.0
6306,69.0,0.0,120.0,6.0,64.0
6307,81.0,120.0,240.0,0.0,64.0
6308,71.0,0.0,120.0,1.0,64.0
6309,71.0,40.0,120.0,6.0,64.0
6310,81.0,0.0,240.0,5.0,64.0
6311,73.0,5.0,120.0,1.0,64.0
6312,73.0,0.0,120.0,6.0,64.0
6313,59.0,0.0,390.0,3.0,64.0
6314,74.0,0.0,120.0,1.0,64.0
6315,74.0,120.0,120.0,6.0,64.0
6316,80.0,0.0,390.0,5.0,64.0
6317,47.0,0.0,390.0,4.0,64.0
6318,80.0,80.0,390.0,0.0,64.0
6319,59.0,0.0,390.0,8.0,64.0
6320,47.0,0.0,390.0,10.0,64.0
6321,73.0,0.0,120.0,6.0,64.0
6322,73.0,120.0,120.0,1.0,64.0
6323,71.0,0.0,120.0,6.0,64.0
6324,71.0,40.0,120.0,1.0,64.0
6325,69.0,120.0,120.0,6.0,64.0
6326,69.0,0.0,120.0,1.0,64.0
6327,59.0,80.0,390.0,2.0,64.0
6328,59.0,0.0,390.0,7.0,64.0
6329,68.0,0.0,120.0,1.0,64.0
6330,80.0,0.0,390.0,5.0,64.0
6331,80.0,0.0,390.0,0.0,64.0
6332,68.0,120.0,120.0,6.0,64.0
6333,69.0,120.0,120.0,6.0,64.0
6334,69.0,0.0,120.0,1.0,64.0
6335,71.0,0.0,120.0,6.0,64.0
6336,71.0,40.0,120.0,1.0,64.0
6337,73.0,0.0,120.0,1.0,64.0
6338,73.0,120.0,120.0,6.0,64.0
6339,47.0,0.0,390.0,4.0,64.0
6340,47.0,0.0,390.0,10.0,64.0
6341,74.0,0.0,120.0,6.0,64.0
6342,74.0,120.0,120.0,1.0,64.0
6343,59.0,0.0,390.0,3.0,64.0
6344,59.0,80.0,390.0,8.0,64.0
6345,76.0,0.0,120.0,1.0,64.0
6346,76.0,120.0,120.0,6.0,64.0
6347,74.0,0.0,120.0,1.0,64.0
6348,74.0,40.0,120.0,6.0,64.0
6349,73.0,120.0,120.0,6.0,64.0
6350,73.0,0.0,120.0,1.0,64.0
6351,59.0,75.0,390.0,7.0,64.0
6352,71.0,120.0,120.0,6.0,64.0
6353,59.0,0.0,390.0,2.0,64.0
6354,71.0,0.0,120.0,1.0,64.0
6355,73.0,120.0,120.0,1.0,64.0
6356,73.0,0.0,120.0,6.0,64.0
6357,74.0,40.0,120.0,6.0,64.0
6358,86.0,125.0,240.0,5.0,64.0
6359,74.0,0.0,120.0,1.0,64.0
6360,86.0,0.0,240.0,0.0,64.0
6361,71.0,0.0,120.0,1.0,64.0
6362,71.0,0.0,120.0,6.0,64.0
6363,86.0,0.0,1440.0,5.0,64.0
6364,86.0,120.0,1440.0,0.0,64.0
6365,68.0,0.0,120.0,6.0,64.0
6366,68.0,120.0,120.0,1.0,64.0
6367,59.0,80.0,390.0,8.0,64.0
6368,47.0,0.0,390.0,4.0,64.0
6369,47.0,0.0,390.0,10.0,64.0
6370,59.0,0.0,390.0,3.0,64.0
6371,69.0,120.0,120.0,6.0,64.0
6372,69.0,0.0,120.0,1.0,64.0
6373,71.0,40.0,120.0,6.0,64.0
6374,71.0,0.0,120.0,1.0,64.0
6375,69.0,120.0,120.0,1.0,64.0
6376,69.0,0.0,120.0,6.0,64.0
6377,59.0,80.0,390.0,7.0,64.0
6378,71.0,120.0,120.0,6.0,64.0
6379,71.0,0.0,120.0,1.0,64.0
6380,59.0,0.0,390.0,2.0,64.0
6381,73.0,0.0,120.0,1.0,64.0
6382,73.0,120.0,120.0,6.0,64.0
6383,74.0,40.0,120.0,1.0,64.0
6384,74.0,0.0,120.0,6.0,64.0
6385,73.0,120.0,120.0,6.0,64.0
6386,73.0,0.0,120.0,1.0,64.0
6387,59.0,0.0,390.0,2.0,64.0
6388,71.0,0.0,120.0,1.0,64.0
6389,59.0,80.0,390.0,7.0,64.0
6390,71.0,120.0,120.0,6.0,64.0
6391,47.0,0.0,390.0,4.0,64.0
6392,59.0,0.0,390.0,8.0,64.0
6393,47.0,0.0,390.0,10.0,64.0
6394,59.0,0.0,390.0,3.0,64.0
6395,69.0,0.0,120.0,1.0,64.0
6396,69.0,120.0,120.0,6.0,64.0
6397,68.0,40.0,120.0,1.0,64.0
6398,68.0,0.0,120.0,6.0,64.0
6399,71.0,0.0,120.0,1.0,64.0
6400,71.0,0.0,120.0,6.0,64.0
6401,69.0,0.0,120.0,6.0,64.0
6402,48.0,0.0,390.0,4.0,64.0
6403,78.0,120.0,480.0,5.0,64.0
6404,60.0,0.0,390.0,2.0,64.0
6405,60.0,0.0,390.0,3.0,64.0
6406,78.0,0.0,480.0,0.0,64.0
6407,60.0,0.0,390.0,7.0,64.0
6408,69.0,120.0,120.0,1.0,64.0
6409,48.0,75.0,390.0,10.0,64.0
6410,60.0,0.0,390.0,8.0,64.0
6411,75.0,0.0,120.0,6.0,64.0
6412,75.0,120.0,120.0,1.0,64.0
6413,78.0,0.0,120.0,6.0,64.0
6414,78.0,40.0,120.0,1.0,64.0
6415,69.0,5.0,120.0,6.0,64.0
6416,69.0,0.0,120.0,1.0,64.0
6417,68.0,120.0,120.0,6.0,64.0
6418,49.0,0.0,390.0,10.0,64.0
6419,49.0,0.0,390.0,4.0,64.0
6420,61.0,0.0,390.0,7.0,64.0
6421,61.0,0.0,390.0,3.0,64.0
6422,77.0,0.0,390.0,0.0,64.0
6423,61.0,80.0,390.0,2.0,64.0
6424,61.0,0.0,390.0,8.0,64.0
6425,68.0,0.0,120.0,1.0,64.0
6426,77.0,0.0,390.0,5.0,64.0
6427,66.0,120.0,120.0,1.0,64.0
6428,66.0,0.0,120.0,6.0,64.0
6429,65.0,0.0,120.0,6.0,64.0
6430,65.0,40.0,120.0,1.0,64.0
6431,66.0,120.0,120.0,1.0,64.0
6432,66.0,0.0,120.0,6.0,64.0
6433,68.0,0.0,120.0,1.0,64.0
6434,61.0,0.0,390.0,2.0,64.0
6435,68.0,120.0,120.0,6.0,64.0
6436,61.0,80.0,390.0,7.0,64.0
6437,66.0,80.0,120.0,1.0,64.0
6438,66.0,0.0,120.0,6.0,64.0
6439,85.0,0.0,90.0,5.0,64.0
6440,68.0,40.0,120.0,6.0,64.0
6441,85.0,40.0,90.0,0.0,64.0
6442,68.0,0.0,120.0,1.0,64.0
6443,65.0,120.0,120.0,1.0,64.0
6444,65.0,0.0,120.0,6.0,64.0
6445,83.0,0.0,120.0,5.0,64.0
6446,61.0,0.0,390.0,3.0,64.0
6447,61.0,0.0,390.0,8.0,64.0
6448,66.0,60.0,120.0,1.0,64.0
6449,49.0,0.0,390.0,4.0,64.0
6450,49.0,20.0,390.0,10.0,64.0
6451,66.0,0.0,120.0,6.0,64.0
6452,83.0,0.0,120.0,0.0,64.0
6453,68.0,0.0,120.0,6.0,64.0
6454,81.0,0.0,60.0,0.0,64.0
6455,68.0,60.0,120.0,1.0,64.0
6456,81.0,60.0,60.0,5.0,64.0
6457,83.0,0.0,60.0,5.0,64.0
6458,83.0,0.0,60.0,0.0,64.0
6459,69.0,0.0,120.0,6.0,64.0
6460,81.0,0.0,60.0,5.0,64.0
6461,81.0,60.0,60.0,0.0,64.0
6462,69.0,0.0,120.0,1.0,64.0
6463,83.0,40.0,60.0,0.0,64.0
6464,83.0,0.0,60.0,5.0,64.0
6465,81.0,0.0,60.0,5.0,64.0
6466,71.0,0.0,120.0,6.0,64.0
6467,81.0,60.0,60.0,0.0,64.0
6468,71.0,0.0,120.0,1.0,64.0
6469,83.0,60.0,60.0,5.0,64.0
6470,83.0,0.0,60.0,0.0,64.0
6471,73.0,0.0,120.0,1.0,64.0
6472,73.0,0.0,120.0,6.0,64.0
6473,81.0,0.0,60.0,0.0,64.0
6474,61.0,20.0,390.0,7.0,64.0
6475,81.0,60.0,60.0,5.0,64.0
6476,61.0,0.0,390.0,2.0,64.0
6477,83.0,60.0,60.0,0.0,64.0
6478,83.0,0.0,60.0,5.0,64.0
6479,69.0,0.0,120.0,6.0,64.0
6480,81.0,0.0,60.0,5.0,64.0
6481,69.0,60.0,120.0,1.0,64.0
6482,81.0,60.0,60.0,0.0,64.0
6483,83.0,0.0,60.0,5.0,64.0
6484,83.0,0.0,60.0,0.0,64.0
6485,81.0,60.0,60.0,0.0,64.0
6486,81.0,0.0,60.0,5.0,64.0
6487,68.0,0.0,120.0,6.0,64.0
6488,68.0,0.0,120.0,1.0,64.0
6489,83.0,40.0,60.0,5.0,64.0
6490,83.0,0.0,60.0,0.0,64.0
6491,66.0,0.0,120.0,1.0,64.0
6492,66.0,5.0,120.0,6.0,64.0
6493,80.0,0.0,60.0,0.0,64.0
6494,80.0,55.0,60.0,5.0,64.0
6495,81.0,0.0,60.0,0.0,64.0
6496,81.0,120.0,60.0,5.0,64.0
6497,80.0,0.0,390.0,0.0,64.0
6498,80.0,80.0,390.0,5.0,64.0
6499,49.0,0.0,390.0,3.0,64.0
6500,65.0,0.0,120.0,6.0,64.0
6501,65.0,120.0,120.0,1.0,64.0
6502,37.0,0.0,390.0,10.0,64.0
6503,49.0,0.0,390.0,8.0,64.0
6504,37.0,0.0,390.0,4.0,64.0
6505,66.0,0.0,120.0,6.0,64.0
6506,66.0,120.0,120.0,1.0,64.0
6507,68.0,0.0,120.0,6.0,64.0
6508,68.0,40.0,120.0,1.0,64.0
6509,66.0,120.0,120.0,6.0,64.0
6510,66.0,0.0,120.0,1.0,64.0
6511,65.0,0.0,120.0,1.0,64.0
6512,65.0,120.0,120.0,6.0,64.0
6513,61.0,0.0,390.0,2.0,64.0
6514,61.0,80.0,390.0,7.0,64.0
6515,63.0,80.0,120.0,6.0,64.0
6516,63.0,0.0,120.0,1.0,64.0
6517,65.0,40.0,120.0,1.0,64.0
6518,85.0,40.0,90.0,5.0,64.0
6519,65.0,0.0,120.0,6.0,64.0
6520,85.0,0.0,90.0,0.0,64.0
6521,61.0,0.0,120.0,1.0,64.0
6522,61.0,120.0,120.0,6.0,64.0
6523,49.0,0.0,390.0,8.0,64.0
6524,37.0,0.0,390.0,4.0,64.0
6525,83.0,0.0,120.0,5.0,64.0
6526,37.0,0.0,390.0,10.0,64.0
6527,49.0,20.0,390.0,3.0,64.0
6528,66.0,0.0,120.0,6.0,64.0
6529,83.0,60.0,120.0,0.0,64.0
6530,66.0,0.0,120.0,1.0,64.0
6531,68.0,60.0,120.0,1.0,64.0
6532,81.0,0.0,60.0,5.0,64.0
6533,68.0,0.0,120.0,6.0,64.0
6534,81.0,60.0,60.0,0.0,64.0
6535,83.0,0.0,60.0,5.0,64.0
6536,83.0,0.0,60.0,0.0,64.0
6537,81.0,0.0,60.0,5.0,64.0
6538,69.0,40.0,120.0,6.0,64.0
6539,81.0,60.0,60.0,0.0,64.0
6540,69.0,0.0,120.0,1.0,64.0
6541,83.0,0.0,60.0,5.0,64.0
6542,83.0,0.0,60.0,0.0,64.0
6543,81.0,0.0,60.0,5.0,64.0
6544,71.0,0.0,120.0,6.0,64.0
6545,71.0,0.0,120.0,1.0,64.0
6546,81.0,60.0,60.0,0.0,64.0
6547,83.0,60.0,60.0,0.0,64.0
6548,83.0,0.0,60.0,5.0,64.0
6549,61.0,20.0,390.0,2.0,64.0
6550,73.0,0.0,120.0,1.0,64.0
6551,81.0,0.0,60.0,5.0,64.0
6552,81.0,60.0,60.0,0.0,64.0
6553,73.0,0.0,120.0,6.0,64.0
6554,61.0,0.0,390.0,7.0,64.0
6555,83.0,60.0,60.0,5.0,64.0
6556,83.0,0.0,60.0,0.0,64.0
6557,81.0,60.0,60.0,0.0,64.0
6558,69.0,60.0,120.0,1.0,64.0
6559,69.0,0.0,120.0,6.0,64.0
6560,81.0,0.0,60.0,5.0,64.0
6561,83.0,0.0,60.0,0.0,64.0
6562,83.0,0.0,60.0,5.0,64.0
6563,68.0,0.0,120.0,6.0,64.0
6564,68.0,0.0,120.0,1.0,64.0
6565,81.0,60.0,60.0,5.0,64.0
6566,81.0,0.0,60.0,0.0,64.0
6567,83.0,40.0,60.0,5.0,64.0
6568,83.0,0.0,60.0,0.0,64.0
6569,80.0,0.0,60.0,0.0,64.0
6570,66.0,0.0,120.0,1.0,64.0
6571,66.0,5.0,120.0,6.0,64.0
6572,80.0,55.0,60.0,5.0,64.0
6573,81.0,0.0,60.0,5.0,64.0
6574,81.0,120.0,60.0,0.0,64.0
6575,80.0,80.0,390.0,0.0,64.0
6576,49.0,0.0,390.0,4.0,64.0
6577,80.0,0.0,390.0,5.0,64.0
6578,49.0,0.0,390.0,10.0,64.0
6579,61.0,0.0,390.0,8.0,64.0
6580,61.0,0.0,390.0,3.0,64.0
6581,65.0,120.0,120.0,6.0,64.0
6582,65.0,0.0,120.0,1.0,64.0
6583,66.0,0.0,120.0,6.0,64.0
6584,66.0,120.0,120.0,1.0,64.0
6585,68.0,40.0,120.0,1.0,64.0
6586,68.0,0.0,120.0,6.0,64.0
6587,66.0,0.0,120.0,6.0,64.0
6588,66.0,120.0,120.0,1.0,64.0
6589,61.0,80.0,390.0,7.0,64.0
6590,65.0,120.0,120.0,1.0,64.0
6591,61.0,0.0,390.0,2.0,64.0
6592,65.0,0.0,120.0,6.0,64.0
6593,66.0,80.0,120.0,6.0,64.0
6594,66.0,0.0,120.0,1.0,64.0
6595,85.0,40.0,90.0,5.0,64.0
6596,68.0,0.0,120.0,1.0,64.0
6597,85.0,0.0,90.0,0.0,64.0
6598,68.0,40.0,120.0,6.0,64.0
6599,66.0,80.0,120.0,1.0,64.0
6600,66.0,0.0,120.0,6.0,64.0
6601,49.0,0.0,390.0,4.0,64.0
6602,85.0,0.0,90.0,5.0,64.0
6603,65.0,0.0,120.0,1.0,64.0
6604,65.0,120.0,120.0,6.0,64.0
6605,61.0,80.0,390.0,8.0,64.0
6606,61.0,0.0,390.0,3.0,64.0
6607,49.0,0.0,390.0,10.0,64.0
6608,85.0,40.0,90.0,0.0,64.0
6609,66.0,80.0,120.0,6.0,64.0
6610,66.0,0.0,120.0,1.0,64.0
6611,85.0,0.0,90.0,0.0,64.0
6612,68.0,0.0,120.0,6.0,64.0
6613,85.0,40.0,90.0,5.0,64.0
6614,68.0,40.0,120.0,1.0,64.0
6615,66.0,80.0,120.0,6.0,64.0
6616,66.0,0.0,120.0,1.0,64.0
6617,65.0,0.0,120.0,1.0,64.0
6618,61.0,80.0,390.0,2.0,64.0
6619,85.0,40.0,90.0,5.0,64.0
6620,65.0,120.0,120.0,6.0,64.0
6621,61.0,0.0,390.0,7.0,64.0
6622,85.0,0.0,90.0,0.0,64.0
6623,66.0,0.0,120.0,1.0,64.0
6624,66.0,80.0,120.0,6.0,64.0
6625,85.0,0.0,90.0,0.0,64.0
6626,68.0,0.0,120.0,6.0,64.0
6627,85.0,40.0,90.0,5.0,64.0
6628,68.0,40.0,120.0,1.0,64.0
6629,65.0,400.0,120.0,1.0,64.0
6630,65.0,0.0,120.0,6.0,64.0
6631,84.0,0.0,480.0,5.0,64.0
6632,62.0,0.0,390.0,8.0,64.0
6633,66.0,0.0,960.0,1.0,64.0
6634,62.0,0.0,390.0,2.0,64.0
6635,50.0,80.0,390.0,4.0,64.0
6636,62.0,0.0,390.0,3.0,64.0
6637,84.0,480.0,480.0,0.0,64.0
6638,62.0,0.0,390.0,7.0,64.0
6639,50.0,0.0,390.0,10.0,64.0
6640,66.0,0.0,960.0,6.0,64.0
6641,81.0,400.0,480.0,5.0,64.0
6642,81.0,0.0,480.0,0.0,64.0
6643,38.0,0.0,390.0,4.0,64.0
6644,72.0,80.0,960.0,1.0,64.0
6645,80.0,0.0,480.0,5.0,64.0
6646,80.0,480.0,480.0,0.0,64.0
6647,72.0,0.0,960.0,6.0,64.0
6648,66.0,0.0,390.0,2.0,64.0
6649,38.0,0.0,390.0,10.0,64.0
6650,66.0,80.0,390.0,7.0,64.0
6651,50.0,0.0,390.0,8.0,64.0
6652,50.0,0.0,390.0,3.0,64.0
6653,78.0,0.0,480.0,0.0,64.0
6654,78.0,0.0,480.0,5.0,64.0
6655,77.0,0.0,390.0,5.0,64.0
6656,77.0,0.0,390.0,0.0,64.0
6657,68.0,0.0,390.0,7.0,64.0
6658,73.0,0.0,90.0,6.0,64.0
6659,49.0,80.0,390.0,8.0,64.0
6660,37.0,0.0,390.0,10.0,64.0
6661,68.0,0.0,390.0,2.0,64.0
6662,73.0,320.0,90.0,1.0,64.0
6663,37.0,0.0,390.0,4.0,64.0
6664,49.0,0.0,390.0,3.0,64.0
6665,73.0,0.0,240.0,1.0,64.0
6666,73.0,240.0,240.0,6.0,64.0
6667,75.0,240.0,240.0,1.0,64.0
6668,75.0,0.0,240.0,6.0,64.0
6669,73.0,240.0,240.0,1.0,64.0
6670,73.0,0.0,240.0,6.0,64.0
6671,71.0,240.0,240.0,6.0,64.0
6672,71.0,0.0,240.0,1.0,64.0
6673,70.0,0.0,240.0,6.0,64.0
6674,70.0,240.0,240.0,1.0,64.0
6675,71.0,0.0,240.0,6.0,64.0
6676,71.0,240.0,240.0,1.0,64.0
6677,68.0,0.0,240.0,6.0,64.0
6678,68.0,80.0,240.0,1.0,64.0
6679,70.0,0.0,90.0,1.0,64.0
6680,70.0,400.0,90.0,6.0,64.0
6681,49.0,0.0,240.0,4.0,64.0
6682,61.0,240.0,240.0,3.0,64.0
6683,70.0,0.0,240.0,1.0,64.0
6684,49.0,0.0,240.0,10.0,64.0
6685,70.0,0.0,240.0,6.0,64.0
6686,61.0,0.0,240.0,8.0,64.0
6687,71.0,0.0,240.0,1.0,64.0
6688,51.0,0.0,240.0,4.0,64.0
6689,51.0,0.0,240.0,10.0,64.0
6690,71.0,0.0,240.0,6.0,64.0
6691,63.0,0.0,240.0,8.0,64.0
6692,63.0,240.0,240.0,3.0,64.0
6693,70.0,0.0,240.0,6.0,64.0
6694,61.0,0.0,240.0,3.0,64.0
6695,49.0,0.0,240.0,4.0,64.0
6696,61.0,0.0,240.0,8.0,64.0
6697,70.0,0.0,240.0,1.0,64.0
6698,49.0,240.0,240.0,10.0,64.0
6699,59.0,0.0,240.0,8.0,64.0
6700,68.0,0.0,240.0,1.0,64.0
6701,47.0,0.0,240.0,4.0,64.0
6702,47.0,0.0,240.0,10.0,64.0
6703,68.0,240.0,240.0,6.0,64.0
6704,59.0,0.0,240.0,3.0,64.0
6705,46.0,0.0,240.0,10.0,64.0
6706,66.0,0.0,240.0,1.0,64.0
6707,58.0,0.0,240.0,3.0,64.0
6708,46.0,0.0,240.0,4.0,64.0
6709,66.0,240.0,240.0,6.0,64.0
6710,58.0,0.0,240.0,8.0,64.0
6711,59.0,0.0,240.0,3.0,64.0
6712,47.0,235.0,240.0,4.0,64.0
6713,68.0,0.0,240.0,6.0,64.0
6714,47.0,0.0,240.0,10.0,64.0
6715,68.0,0.0,240.0,1.0,64.0
6716,59.0,0.0,240.0,8.0,64.0
6717,44.0,0.0,240.0,10.0,64.0
6718,56.0,0.0,240.0,3.0,64.0
6719,44.0,0.0,240.0,4.0,64.0
6720,56.0,0.0,240.0,8.0,64.0
6721,65.0,0.0,240.0,6.0,64.0
6722,65.0,85.0,240.0,1.0,64.0
6723,54.0,0.0,90.0,3.0,64.0
6724,42.0,155.0,90.0,10.0,64.0
6725,42.0,0.0,90.0,4.0,64.0
6726,54.0,0.0,90.0,8.0,64.0
6727,70.0,0.0,240.0,6.0,64.0
6728,85.0,115.0,1800.0,0.0,64.0
6729,66.0,0.0,240.0,7.0,64.0
6730,66.0,0.0,240.0,2.0,64.0
6731,70.0,85.0,240.0,1.0,64.0
6732,85.0,0.0,1800.0,5.0,64.0
6733,66.0,0.0,240.0,7.0,64.0
6734,54.0,0.0,90.0,3.0,64.0
6735,70.0,0.0,240.0,6.0,64.0
6736,54.0,0.0,90.0,8.0,64.0
6737,66.0,85.0,240.0,2.0,64.0
6738,42.0,0.0,90.0,4.0,64.0
6739,70.0,0.0,240.0,1.0,64.0
6740,42.0,155.0,90.0,10.0,64.0
6741,42.0,155.0,90.0,10.0,64.0
6742,66.0,0.0,240.0,7.0,64.0
6743,54.0,0.0,90.0,8.0,64.0
6744,70.0,0.0,240.0,1.0,64.0
6745,66.0,85.0,240.0,2.0,64.0
6746,54.0,0.0,90.0,3.0,64.0
6747,42.0,0.0,90.0,4.0,64.0
6748,70.0,0.0,240.0,6.0,64.0
6749,42.0,0.0,90.0,4.0,64.0
6750,54.0,0.0,90.0,8.0,64.0
6751,66.0,0.0,240.0,7.0,64.0
6752,54.0,0.0,90.0,3.0,64.0
6753,66.0,0.0,240.0,2.0,64.0
6754,70.0,85.0,240.0,6.0,64.0
6755,42.0,155.0,90.0,10.0,64.0
6756,70.0,0.0,240.0,1.0,64.0
6757,42.0,0.0,90.0,10.0,64.0
6758,54.0,0.0,90.0,8.0,64.0
6759,70.0,0.0,240.0,6.0,64.0
6760,70.0,0.0,240.0,1.0,64.0
6761,54.0,0.0,90.0,3.0,64.0
6762,66.0,0.0,240.0,7.0,64.0
6763,42.0,155.0,90.0,4.0,64.0
6764,66.0,85.0,240.0,2.0,64.0
6765,54.0,0.0,90.0,8.0,64.0
6766,54.0,0.0,90.0,3.0,64.0
6767,70.0,85.0,240.0,6.0,64.0
6768,42.0,0.0,90.0,4.0,64.0
6769,70.0,0.0,240.0,1.0,64.0
6770,66.0,0.0,240.0,2.0,64.0
6771,66.0,0.0,240.0,7.0,64.0
6772,42.0,155.0,90.0,10.0,64.0
6773,66.0,85.0,240.0,7.0,64.0
6774,54.0,0.0,90.0,3.0,64.0
6775,42.0,0.0,90.0,10.0,64.0
6776,42.0,155.0,90.0,4.0,64.0
6777,70.0,0.0,240.0,1.0,64.0
6778,54.0,0.0,90.0,8.0,64.0
6779,66.0,0.0,240.0,2.0,64.0
6780,70.0,0.0,240.0,6.0,64.0
6781,42.0,0.0,90.0,4.0,64.0
6782,70.0,0.0,240.0,1.0,64.0
6783,70.0,0.0,240.0,6.0,64.0
6784,54.0,40.0,90.0,8.0,64.0
6785,54.0,0.0,90.0,3.0,64.0
6786,66.0,0.0,240.0,7.0,64.0
6787,66.0,85.0,240.0,2.0,64.0
6788,42.0,0.0,90.0,10.0,64.0
6789,42.0,155.0,90.0,4.0,64.0
6790,54.0,0.0,90.0,8.0,64.0
6791,66.0,0.0,240.0,7.0,64.0
6792,83.0,80.0,240.0,0.0,64.0
6793,83.0,0.0,240.0,5.0,64.0
6794,42.0,0.0,90.0,10.0,64.0
6795,73.0,0.0,240.0,6.0,64.0
6796,66.0,5.0,240.0,2.0,64.0
6797,54.0,0.0,90.0,3.0,64.0
6798,73.0,0.0,240.0,1.0,64.0
6799,82.0,0.0,630.0,5.0,64.0
6800,66.0,0.0,240.0,7.0,64.0
6801,42.0,0.0,90.0,10.0,64.0
6802,73.0,0.0,240.0,6.0,64.0
6803,82.0,75.0,630.0,0.0,64.0
6804,42.0,0.0,90.0,4.0,64.0
6805,54.0,0.0,90.0,8.0,64.0
6806,73.0,85.0,240.0,1.0,64.0
6807,66.0,0.0,240.0,2.0,64.0
6808,54.0,155.0,90.0,3.0,64.0
6809,66.0,0.0,240.0,7.0,64.0
6810,42.0,155.0,90.0,4.0,64.0
6811,73.0,0.0,240.0,1.0,64.0
6812,54.0,0.0,90.0,8.0,64.0
6813,73.0,85.0,240.0,6.0,64.0
6814,42.0,0.0,90.0,10.0,64.0
6815,54.0,0.0,90.0,3.0,64.0
6816,66.0,0.0,240.0,2.0,64.0
6817,54.0,80.0,90.0,8.0,64.0
6818,42.0,0.0,90.0,4.0,64.0
6819,66.0,0.0,240.0,7.0,64.0
6820,73.0,85.0,240.0,6.0,64.0
6821,73.0,0.0,240.0,1.0,64.0
6822,42.0,0.0,90.0,10.0,64.0
6823,54.0,0.0,90.0,3.0,64.0
6824,66.0,0.0,240.0,2.0,64.0
6825,80.0,0.0,240.0,5.0,64.0
6826,80.0,80.0,240.0,0.0,64.0
6827,61.0,0.0,240.0,2.0,64.0
6828,54.0,0.0,90.0,3.0,64.0
6829,54.0,0.0,90.0,8.0,64.0
6830,42.0,155.0,90.0,10.0,64.0
6831,42.0,0.0,90.0,4.0,64.0
6832,61.0,5.0,240.0,7.0,64.0
6833,70.0,0.0,240.0,1.0,64.0
6834,70.0,0.0,240.0,6.0,64.0
6835,42.0,0.0,90.0,4.0,64.0
6836,42.0,0.0,90.0,10.0,64.0
6837,70.0,0.0,240.0,1.0,64.0
6838,54.0,0.0,90.0,3.0,64.0
6839,61.0,85.0,240.0,2.0,64.0
6840,78.0,0.0,630.0,5.0,64.0
6841,54.0,155.0,90.0,8.0,64.0
6842,70.0,0.0,240.0,6.0,64.0
6843,61.0,0.0,240.0,7.0,64.0
6844,78.0,75.0,630.0,0.0,64.0
6845,54.0,155.0,90.0,3.0,64.0
6846,70.0,0.0,240.0,1.0,64.0
6847,42.0,0.0,90.0,10.0,64.0
6848,54.0,0.0,90.0,8.0,64.0
6849,70.0,0.0,240.0,6.0,64.0
6850,42.0,0.0,90.0,4.0,64.0
6851,61.0,0.0,240.0,2.0,64.0
6852,61.0,85.0,240.0,7.0,64.0
6853,61.0,0.0,240.0,2.0,64.0
6854,70.0,85.0,240.0,1.0,64.0
6855,61.0,0.0,240.0,7.0,64.0
6856,70.0,0.0,240.0,6.0,64.0
6857,54.0,0.0,90.0,8.0,64.0
6858,42.0,80.0,90.0,10.0,64.0
6859,54.0,0.0,90.0,3.0,64.0
6860,42.0,0.0,90.0,4.0,64.0
6861,54.0,40.0,90.0,3.0,64.0
6862,54.0,0.0,90.0,8.0,64.0
6863,42.0,0.0,90.0,4.0,64.0
6864,42.0,0.0,90.0,10.0,64.0
6865,77.0,120.0,120.0,0.0,64.0
6866,68.0,0.0,120.0,6.0,64.0
6867,61.0,85.0,2160.0,7.0,64.0
6868,68.0,0.0,120.0,1.0,64.0
6869,77.0,0.0,120.0,5.0,64.0
6870,61.0,0.0,2160.0,2.0,64.0
6871,70.0,0.0,120.0,6.0,64.0
6872,78.0,0.0,120.0,5.0,64.0
6873,70.0,80.0,120.0,1.0,64.0
6874,78.0,0.0,120.0,0.0,64.0
6875,71.0,0.0,120.0,1.0,64.0
6876,54.0,40.0,90.0,8.0,64.0
6877,80.0,0.0,120.0,5.0,64.0
6878,42.0,0.0,90.0,4.0,64.0
6879,42.0,0.0,90.0,10.0,64.0
6880,80.0,120.0,120.0,0.0,64.0
6881,54.0,0.0,90.0,3.0,64.0
6882,71.0,0.0,120.0,6.0,64.0
6883,70.0,80.0,120.0,1.0,64.0
6884,70.0,0.0,120.0,6.0,64.0
6885,78.0,0.0,120.0,0.0,64.0
6886,78.0,0.0,120.0,5.0,64.0
6887,42.0,0.0,90.0,10.0,64.0
6888,68.0,0.0,120.0,6.0,64.0
6889,54.0,0.0,90.0,3.0,64.0
6890,68.0,0.0,120.0,1.0,64.0
6891,77.0,120.0,120.0,5.0,64.0
6892,77.0,0.0,120.0,0.0,64.0
6893,54.0,40.0,90.0,8.0,64.0
6894,42.0,0.0,90.0,4.0,64.0
6895,78.0,80.0,120.0,0.0,64.0
6896,78.0,0.0,120.0,5.0,64.0
6897,70.0,0.0,120.0,1.0,64.0
6898,70.0,0.0,120.0,6.0,64.0
6899,80.0,0.0,120.0,5.0,64.0
6900,71.0,0.0,120.0,6.0,64.0
6901,42.0,0.0,90.0,4.0,64.0
6902,42.0,0.0,90.0,10.0,64.0
6903,71.0,120.0,120.0,1.0,64.0
6904,54.0,0.0,90.0,8.0,64.0
6905,80.0,0.0,120.0,0.0,64.0
6906,54.0,40.0,90.0,3.0,64.0
6907,78.0,0.0,120.0,0.0,64.0
6908,78.0,0.0,120.0,5.0,64.0
6909,70.0,0.0,120.0,6.0,64.0
6910,70.0,80.0,120.0,1.0,64.0
6911,77.0,0.0,120.0,5.0,64.0
6912,42.0,40.0,90.0,4.0,64.0
6913,54.0,0.0,90.0,3.0,64.0
6914,42.0,0.0,90.0,10.0,64.0
6915,68.0,0.0,120.0,6.0,64.0
6916,77.0,0.0,120.0,0.0,64.0
6917,54.0,0.0,90.0,8.0,64.0
6918,68.0,120.0,120.0,1.0,64.0
6919,70.0,80.0,120.0,1.0,64.0
6920,70.0,0.0,120.0,6.0,64.0
6921,78.0,0.0,120.0,5.0,64.0
6922,78.0,0.0,120.0,0.0,64.0
6923,42.0,0.0,90.0,10.0,64.0
6924,54.0,0.0,90.0,8.0,64.0
6925,42.0,40.0,90.0,4.0,64.0
6926,71.0,0.0,120.0,6.0,64.0
6927,71.0,0.0,120.0,1.0,64.0
6928,80.0,0.0,120.0,5.0,64.0
6929,80.0,120.0,120.0,0.0,64.0
6930,54.0,0.0,90.0,3.0,64.0
6931,70.0,0.0,120.0,6.0,64.0
6932,70.0,80.0,120.0,1.0,64.0
6933,78.0,0.0,120.0,0.0,64.0
6934,78.0,0.0,120.0,5.0,64.0
6935,54.0,0.0,90.0,8.0,64.0
6936,77.0,0.0,120.0,0.0,64.0
6937,77.0,0.0,120.0,5.0,64.0
6938,42.0,0.0,90.0,10.0,64.0
6939,68.0,120.0,120.0,6.0,64.0
6940,54.0,0.0,90.0,3.0,64.0
6941,68.0,0.0,120.0,1.0,64.0
6942,42.0,40.0,90.0,4.0,64.0
6943,78.0,0.0,120.0,0.0,64.0
6944,70.0,0.0,120.0,6.0,64.0
6945,78.0,0.0,120.0,5.0,64.0
6946,70.0,80.0,120.0,1.0,64.0
6947,80.0,0.0,120.0,5.0,64.0
6948,54.0,0.0,90.0,3.0,64.0
6949,54.0,0.0,90.0,8.0,64.0
6950,71.0,0.0,120.0,1.0,64.0
6951,80.0,120.0,120.0,0.0,64.0
6952,71.0,0.0,120.0,6.0,64.0
6953,42.0,0.0,90.0,10.0,64.0
6954,42.0,40.0,90.0,4.0,64.0
6955,77.0,0.0,120.0,5.0,64.0
6956,68.0,0.0,120.0,1.0,64.0
6957,77.0,0.0,120.0,0.0,64.0
6958,68.0,80.0,120.0,6.0,64.0
6959,70.0,0.0,600.0,6.0,64.0
6960,78.0,0.0,600.0,0.0,64.0
6961,54.0,0.0,90.0,8.0,64.0
6962,70.0,125.0,600.0,1.0,64.0
6963,42.0,0.0,90.0,4.0,64.0
6964,78.0,0.0,600.0,5.0,64.0
6965,42.0,155.0,90.0,10.0,64.0
6966,54.0,0.0,90.0,3.0,64.0
6967,70.0,0.0,240.0,2.0,64.0
6968,54.0,0.0,90.0,3.0,64.0
6969,70.0,80.0,240.0,7.0,64.0
6970,42.0,160.0,90.0,4.0,64.0
6971,42.0,0.0,90.0,10.0,64.0
6972,54.0,0.0,90.0,8.0,64.0
6973,42.0,0.0,90.0,10.0,64.0
6974,73.0,0.0,240.0,2.0,64.0
6975,54.0,35.0,90.0,3.0,64.0
6976,73.0,80.0,240.0,7.0,64.0
6977,54.0,0.0,90.0,8.0,64.0
6978,42.0,0.0,90.0,4.0,64.0
6979,70.0,80.0,240.0,2.0,64.0
6980,42.0,160.0,90.0,10.0,64.0
6981,42.0,0.0,90.0,4.0,64.0
6982,54.0,0.0,90.0,3.0,64.0
6983,54.0,0.0,90.0,8.0,64.0
6984,70.0,0.0,240.0,7.0,64.0
6985,42.0,0.0,90.0,10.0,64.0
6986,54.0,240.0,90.0,8.0,64.0
6987,66.0,0.0,90.0,2.0,64.0
6988,66.0,0.0,90.0,7.0,64.0
6989,42.0,0.0,90.0,4.0,64.0
6990,54.0,0.0,90.0,3.0,64.0
6991,61.0,0.0,240.0,2.0,64.0
6992,61.0,0.0,240.0,7.0,64.0
6993,66.0,80.0,240.0,1.0,64.0
6994,54.0,0.0,90.0,3.0,64.0
6995,66.0,0.0,240.0,6.0,64.0
6996,42.0,0.0,90.0,10.0,64.0
6997,54.0,160.0,90.0,8.0,64.0
6998,85.0,0.0,240.0,0.0,64.0
6999,85.0,0.0,240.0,5.0,64.0
7000,42.0,0.0,90.0,4.0,64.0
7001,82.0,0.0,240.0,0.0,64.0
7002,66.0,80.0,240.0,7.0,64.0
7003,82.0,0.0,240.0,5.0,64.0
7004,66.0,0.0,240.0,2.0,64.0
7005,70.0,0.0,240.0,1.0,64.0
7006,42.0,0.0,90.0,4.0,64.0
7007,70.0,0.0,240.0,6.0,64.0
7008,54.0,0.0,90.0,3.0,64.0
7009,54.0,160.0,90.0,8.0,64.0
7010,42.0,0.0,90.0,10.0,64.0
7011,78.0,0.0,240.0,5.0,64.0
7012,73.0,0.0,240.0,6.0,64.0
7013,70.0,0.0,240.0,7.0,64.0
7014,70.0,0.0,240.0,2.0,64.0
7015,42.0,0.0,90.0,10.0,64.0
7016,73.0,85.0,240.0,1.0,64.0
7017,42.0,0.0,90.0,4.0,64.0
7018,78.0,0.0,240.0,0.0,64.0
7019,54.0,0.0,90.0,8.0,64.0
7020,54.0,155.0,90.0,3.0,64.0
7021,61.0,0.0,2010.0,7.0,64.0
7022,80.0,0.0,120.0,5.0,64.0
7023,65.0,0.0,120.0,1.0,64.0
7024,37.0,0.0,90.0,10.0,64.0
7025,49.0,0.0,90.0,8.0,64.0
7026,80.0,0.0,120.0,0.0,64.0
7027,61.0,0.0,2010.0,2.0,64.0
7028,37.0,0.0,90.0,4.0,64.0
7029,49.0,40.0,90.0,3.0,64.0
7030,65.0,120.0,120.0,6.0,64.0
7031,66.0,0.0,120.0,1.0,64.0
7032,82.0,0.0,120.0,5.0,64.0
7033,82.0,80.0,120.0,0.0,64.0
7034,66.0,0.0,120.0,6.0,64.0
7035,68.0,0.0,120.0,6.0,64.0
7036,68.0,0.0,120.0,1.0,64.0
7037,83.0,120.0,120.0,0.0,64.0
7038,37.0,0.0,90.0,4.0,64.0
7039,49.0,0.0,90.0,3.0,64.0
7040,83.0,0.0,120.0,5.0,64.0
7041,37.0,40.0,90.0,10.0,64.0
7042,49.0,0.0,90.0,8.0,64.0
7043,82.0,0.0,120.0,0.0,64.0
7044,82.0,80.0,120.0,5.0,64.0
7045,66.0,0.0,120.0,6.0,64.0
7046,66.0,0.0,120.0,1.0,64.0
7047,80.0,0.0,120.0,0.0,64.0
7048,49.0,40.0,90.0,3.0,64.0
7049,37.0,0.0,90.0,10.0,64.0
7050,49.0,0.0,90.0,8.0,64.0
7051,65.0,120.0,120.0,1.0,64.0
7052,65.0,0.0,120.0,6.0,64.0
7053,37.0,0.0,90.0,4.0,64.0
7054,80.0,0.0,120.0,5.0,64.0
7055,82.0,0.0,120.0,5.0,64.0
7056,66.0,0.0,120.0,6.0,64.0
7057,82.0,80.0,120.0,0.0,64.0
7058,66.0,0.0,120.0,1.0,64.0
7059,83.0,0.0,120.0,0.0,64.0
7060,68.0,0.0,120.0,6.0,64.0
7061,37.0,40.0,90.0,4.0,64.0
7062,37.0,0.0,90.0,10.0,64.0
7063,83.0,0.0,120.0,5.0,64.0
7064,49.0,0.0,90.0,3.0,64.0
7065,49.0,0.0,90.0,8.0,64.0
7066,68.0,120.0,120.0,1.0,64.0
7067,82.0,80.0,120.0,5.0,64.0
7068,66.0,0.0,120.0,6.0,64.0
7069,82.0,0.0,120.0,0.0,64.0
7070,66.0,0.0,120.0,1.0,64.0
7071,49.0,40.0,90.0,3.0,64.0
7072,37.0,0.0,90.0,4.0,64.0
7073,65.0,120.0,120.0,1.0,64.0
7074,65.0,0.0,120.0,6.0,64.0
7075,37.0,0.0,90.0,10.0,64.0
7076,80.0,0.0,120.0,0.0,64.0
7077,80.0,0.0,120.0,5.0,64.0
7078,49.0,0.0,90.0,8.0,64.0
7079,66.0,80.0,120.0,6.0,64.0
7080,82.0,0.0,120.0,0.0,64.0
7081,82.0,0.0,120.0,5.0,64.0
7082,66.0,0.0,120.0,1.0,64.0
7083,68.0,120.0,120.0,6.0,64.0
7084,83.0,0.0,120.0,0.0,64.0
7085,83.0,0.0,120.0,5.0,64.0
7086,68.0,0.0,120.0,1.0,64.0
7087,49.0,0.0,90.0,3.0,64.0
7088,37.0,0.0,90.0,4.0,64.0
7089,49.0,0.0,90.0,8.0,64.0
7090,37.0,40.0,90.0,10.0,64.0
7091,82.0,0.0,120.0,0.0,64.0
7092,66.0,0.0,120.0,6.0,64.0
7093,82.0,0.0,120.0,5.0,64.0
7094,66.0,80.0,120.0,1.0,64.0
7095,37.0,0.0,90.0,10.0,64.0
7096,37.0,0.0,90.0,4.0,64.0
7097,49.0,40.0,90.0,3.0,64.0
7098,80.0,120.0,120.0,0.0,64.0
7099,65.0,0.0,120.0,1.0,64.0
7100,49.0,0.0,90.0,8.0,64.0
7101,65.0,0.0,120.0,6.0,64.0
7102,80.0,0.0,120.0,5.0,64.0
7103,66.0,0.0,120.0,1.0,64.0
7104,82.0,0.0,120.0,0.0,64.0
7105,66.0,0.0,120.0,6.0,64.0
7106,82.0,80.0,120.0,5.0,64.0
7107,37.0,0.0,90.0,10.0,64.0
7108,68.0,0.0,120.0,6.0,64.0
7109,49.0,0.0,90.0,3.0,64.0
7110,49.0,0.0,90.0,8.0,64.0
7111,83.0,0.0,120.0,0.0,64.0
7112,37.0,40.0,90.0,4.0,64.0
7113,68.0,120.0,120.0,1.0,64.0
7114,83.0,0.0,120.0,5.0,64.0
7115,65.0,0.0,120.0,1.0,64.0
7116,80.0,0.0,120.0,0.0,64.0
7117,65.0,80.0,120.0,6.0,64.0
7118,80.0,0.0,120.0,5.0,64.0
7119,42.0,0.0,90.0,4.0,64.0
7120,82.0,0.0,240.0,0.0,64.0
7121,66.0,0.0,240.0,1.0,64.0
7122,42.0,0.0,90.0,10.0,64.0
7123,54.0,0.0,90.0,8.0,64.0
7124,54.0,155.0,90.0,3.0,64.0
7125,66.0,0.0,240.0,6.0,64.0
7126,82.0,85.0,240.0,5.0,64.0
7127,73.0,0.0,390.0,1.0,64.0
7128,42.0,0.0,90.0,4.0,64.0
7129,73.0,160.0,390.0,6.0,64.0
7130,66.0,0.0,390.0,2.0,64.0
7131,54.0,0.0,90.0,8.0,64.0
7132,42.0,0.0,90.0,10.0,64.0
7133,66.0,0.0,390.0,7.0,64.0
7134,54.0,240.0,90.0,3.0,64.0
7135,42.0,0.0,90.0,10.0,64.0
7136,78.0,0.0,720.0,5.0,64.0
7137,42.0,0.0,90.0,4.0,64.0
7138,54.0,0.0,90.0,8.0,64.0
7139,54.0,80.0,90.0,3.0,64.0
7140,78.0,85.0,720.0,0.0,64.0
7141,54.0,0.0,90.0,3.0,64.0
7142,42.0,0.0,90.0,4.0,64.0
7143,42.0,0.0,90.0,10.0,64.0
7144,54.0,240.0,90.0,8.0,64.0
7145,70.0,0.0,390.0,7.0,64.0
7146,70.0,0.0,390.0,2.0,64.0
7147,73.0,0.0,390.0,1.0,64.0
7148,73.0,75.0,390.0,6.0,64.0
7149,42.0,0.0,90.0,10.0,64.0
7150,54.0,0.0,90.0,3.0,64.0
7151,54.0,0.0,90.0,8.0,64.0
7152,42.0,80.0,90.0,4.0,64.0
7153,73.0,0.0,390.0,6.0,64.0
7154,70.0,0.0,240.0,2.0,64.0
7155,42.0,0.0,90.0,10.0,64.0
7156,80.0,120.0,90.0,5.0,64.0
7157,54.0,0.0,90.0,3.0,64.0
7158,73.0,40.0,390.0,1.0,64.0
7159,70.0,80.0,240.0,7.0,64.0
7160,80.0,0.0,90.0,0.0,64.0
7161,42.0,0.0,90.0,4.0,64.0
7162,54.0,0.0,90.0,8.0,64.0
7163,82.0,0.0,90.0,5.0,64.0
7164,82.0,40.0,90.0,0.0,64.0
7165,56.0,80.0,90.0,8.0,64.0
7166,44.0,0.0,90.0,10.0,64.0
7167,44.0,0.0,90.0,4.0,64.0
7168,56.0,0.0,90.0,3.0,64.0
7169,68.0,0.0,240.0,2.0,64.0
7170,83.0,0.0,90.0,0.0,64.0
7171,83.0,0.0,90.0,5.0,64.0
7172,68.0,80.0,240.0,7.0,64.0
7173,85.0,40.0,90.0,5.0,64.0
7174,85.0,0.0,90.0,0.0,64.0
7175,87.0,0.0,90.0,5.0,64.0
7176,71.0,0.0,240.0,2.0,64.0
7177,73.0,0.0,240.0,6.0,64.0
7178,73.0,85.0,240.0,1.0,64.0
7179,44.0,120.0,90.0,10.0,64.0
7180,87.0,0.0,90.0,0.0,64.0
7181,56.0,0.0,90.0,8.0,64.0
7182,56.0,0.0,90.0,3.0,64.0
7183,44.0,0.0,90.0,4.0,64.0
7184,71.0,0.0,240.0,7.0,64.0
7185,89.0,35.0,90.0,0.0,64.0
7186,89.0,0.0,90.0,5.0,64.0
7187,58.0,0.0,90.0,3.0,64.0
7188,46.0,155.0,90.0,4.0,64.0
7189,70.0,0.0,240.0,2.0,64.0
7190,58.0,0.0,90.0,8.0,64.0
7191,46.0,0.0,90.0,10.0,64.0
7192,73.0,0.0,240.0,1.0,64.0
7193,73.0,0.0,240.0,6.0,64.0
7194,90.0,0.0,840.0,5.0,64.0
7195,90.0,115.0,840.0,0.0,64.0
7196,70.0,85.0,240.0,7.0,64.0
7197,70.0,0.0,240.0,2.0,64.0
7198,46.0,0.0,90.0,4.0,64.0
7199,58.0,0.0,90.0,3.0,64.0
7200,58.0,0.0,90.0,8.0,64.0
7201,46.0,155.0,90.0,10.0,64.0
7202,70.0,0.0,240.0,7.0,64.0
7203,73.0,0.0,240.0,1.0,64.0
7204,73.0,85.0,240.0,6.0,64.0
7205,73.0,0.0,240.0,1.0,64.0
7206,70.0,0.0,240.0,2.0,64.0
7207,58.0,0.0,90.0,8.0,64.0
7208,58.0,0.0,90.0,3.0,64.0
7209,46.0,0.0,90.0,4.0,64.0
7210,70.0,85.0,240.0,7.0,64.0
7211,46.0,155.0,90.0,10.0,64.0
7212,73.0,0.0,240.0,6.0,64.0
7213,73.0,0.0,240.0,6.0,64.0
7214,46.0,0.0,90.0,4.0,64.0
7215,58.0,40.0,90.0,8.0,64.0
7216,70.0,0.0,240.0,7.0,64.0
7217,58.0,0.0,90.0,3.0,64.0
7218,73.0,85.0,240.0,1.0,64.0
7219,70.0,0.0,240.0,2.0,64.0
7220,46.0,0.0,90.0,10.0,64.0
7221,78.0,0.0,240.0,1.0,64.0
7222,73.0,0.0,240.0,2.0,64.0
7223,58.0,155.0,90.0,3.0,64.0
7224,85.0,0.0,390.0,5.0,64.0
7225,46.0,0.0,90.0,4.0,64.0
7226,78.0,85.0,240.0,6.0,64.0
7227,85.0,75.0,390.0,0.0,64.0
7228,46.0,0.0,90.0,10.0,64.0
7229,73.0,0.0,240.0,7.0,64.0
7230,58.0,0.0,90.0,8.0,64.0
7231,46.0,0.0,90.0,10.0,64.0
7232,58.0,0.0,90.0,3.0,64.0
7233,78.0,0.0,240.0,6.0,64.0
7234,78.0,0.0,240.0,1.0,64.0
7235,58.0,80.0,90.0,8.0,64.0
7236,46.0,0.0,90.0,4.0,64.0
7237,73.0,0.0,240.0,7.0,64.0
7238,73.0,85.0,240.0,2.0,64.0
7239,46.0,155.0,90.0,4.0,64.0
7240,58.0,0.0,90.0,3.0,64.0
7241,78.0,0.0,240.0,6.0,64.0
7242,78.0,85.0,240.0,1.0,64.0
7243,73.0,0.0,240.0,7.0,64.0
7244,82.0,0.0,390.0,0.0,64.0
7245,58.0,0.0,90.0,8.0,64.0
7246,82.0,75.0,390.0,5.0,64.0
7247,46.0,0.0,90.0,10.0,64.0
7248,73.0,0.0,240.0,2.0,64.0
7249,73.0,0.0,240.0,7.0,64.0
7250,46.0,0.0,90.0,10.0,64.0
7251,58.0,80.0,90.0,8.0,64.0
7252,46.0,0.0,90.0,4.0,64.0
7253,73.0,0.0,240.0,2.0,64.0
7254,58.0,0.0,90.0,3.0,64.0
7255,78.0,85.0,240.0,1.0,64.0
7256,78.0,0.0,240.0,6.0,64.0
7257,71.0,5.0,240.0,7.0,64.0
7258,47.0,40.0,90.0,4.0,64.0
7259,82.0,115.0,120.0,0.0,64.0
7260,59.0,0.0,90.0,3.0,64.0
7261,71.0,0.0,240.0,2.0,64.0
7262,78.0,0.0,240.0,6.0,64.0
7263,82.0,0.0,120.0,5.0,64.0
7264,47.0,0.0,90.0,10.0,64.0
7265,59.0,0.0,90.0,8.0,64.0
7266,78.0,0.0,240.0,1.0,64.0
7267,83.0,80.0,120.0,5.0,64.0
7268,83.0,0.0,120.0,0.0,64.0
7269,71.0,0.0,240.0,2.0,64.0
7270,47.0,0.0,90.0,10.0,64.0
7271,79.0,0.0,120.0,5.0,64.0
7272,79.0,115.0,120.0,0.0,64.0
7273,75.0,0.0,390.0,6.0,64.0
7274,59.0,40.0,90.0,3.0,64.0
7275,71.0,85.0,240.0,7.0,64.0
7276,47.0,0.0,90.0,4.0,64.0
7277,59.0,0.0,90.0,8.0,64.0
7278,75.0,75.0,390.0,1.0,64.0
7279,80.0,0.0,120.0,0.0,64.0
7280,80.0,0.0,120.0,5.0,64.0
7281,71.0,0.0,240.0,2.0,64.0
7282,47.0,0.0,90.0,10.0,64.0
7283,71.0,85.0,240.0,7.0,64.0
7284,80.0,75.0,390.0,5.0,64.0
7285,80.0,0.0,390.0,0.0,64.0
7286,47.0,0.0,90.0,4.0,64.0
7287,59.0,80.0,90.0,3.0,64.0
7288,59.0,0.0,90.0,8.0,64.0
7289,47.0,0.0,90.0,4.0,64.0
7290,75.0,0.0,390.0,1.0,64.0
7291,75.0,75.0,390.0,6.0,64.0
7292,71.0,0.0,240.0,2.0,64.0
7293,71.0,85.0,240.0,7.0,64.0
7294,47.0,0.0,90.0,10.0,64.0
7295,59.0,80.0,90.0,3.0,64.0
7296,59.0,0.0,90.0,8.0,64.0
7297,71.0,85.0,240.0,2.0,64.0
7298,47.0,0.0,90.0,10.0,64.0
7299,59.0,80.0,90.0,8.0,64.0
7300,59.0,0.0,90.0,3.0,64.0
7301,47.0,0.0,90.0,4.0,64.0
7302,71.0,0.0,240.0,7.0,64.0
7303,80.0,0.0,240.0,0.0,64.0
7304,59.0,0.0,90.0,3.0,64.0
7305,71.0,0.0,240.0,7.0,64.0
7306,71.0,0.0,240.0,2.0,64.0
7307,75.0,0.0,240.0,1.0,64.0
7308,47.0,160.0,90.0,4.0,64.0
7309,59.0,0.0,90.0,8.0,64.0
7310,47.0,0.0,90.0,10.0,64.0
7311,80.0,80.0,240.0,5.0,64.0
7312,75.0,0.0,240.0,6.0,64.0
7313,75.0,80.0,240.0,2.0,64.0
7314,80.0,0.0,240.0,6.0,64.0
7315,47.0,0.0,90.0,10.0,64.0
7316,80.0,0.0,240.0,1.0,64.0
7317,83.0,0.0,240.0,0.0,64.0
7318,59.0,0.0,90.0,8.0,64.0
7319,59.0,160.0,90.0,3.0,64.0
7320,75.0,0.0,240.0,7.0,64.0
7321,83.0,0.0,240.0,5.0,64.0
7322,47.0,0.0,90.0,4.0,64.0
7323,87.0,0.0,240.0,5.0,64.0
7324,47.0,155.0,90.0,4.0,64.0
7325,68.0,0.0,240.0,7.0,64.0
7326,83.0,0.0,240.0,6.0,64.0
7327,83.0,85.0,240.0,1.0,64.0
7328,59.0,0.0,90.0,3.0,64.0
7329,47.0,0.0,90.0,10.0,64.0
7330,87.0,0.0,240.0,0.0,64.0
7331,59.0,0.0,90.0,8.0,64.0
7332,68.0,0.0,240.0,2.0,64.0
7333,61.0,40.0,90.0,3.0,64.0
7334,73.0,85.0,240.0,2.0,64.0
7335,81.0,0.0,120.0,1.0,64.0
7336,61.0,0.0,90.0,8.0,64.0
7337,73.0,0.0,240.0,7.0,64.0
7338,84.0,0.0,120.0,0.0,64.0
7339,84.0,115.0,120.0,5.0,64.0
7340,81.0,0.0,120.0,6.0,64.0
7341,49.0,0.0,90.0,10.0,64.0
7342,49.0,0.0,90.0,4.0,64.0
7343,85.0,0.0,750.0,5.0,64.0
7344,82.0,0.0,750.0,6.0,64.0
7345,85.0,75.0,750.0,0.0,64.0
7346,82.0,0.0,750.0,1.0,64.0
7347,61.0,0.0,90.0,8.0,64.0
7348,61.0,0.0,240.0,2.0,64.0
7349,49.0,155.0,90.0,4.0,64.0
7350,61.0,85.0,240.0,7.0,64.0
7351,61.0,0.0,90.0,3.0,64.0
7352,49.0,0.0,90.0,10.0,64.0
7353,49.0,155.0,90.0,4.0,64.0
7354,61.0,0.0,90.0,8.0,64.0
7355,49.0,0.0,90.0,10.0,64.0
7356,61.0,85.0,240.0,7.0,64.0
7357,61.0,0.0,240.0,2.0,64.0
7358,61.0,0.0,90.0,3.0,64.0
7359,61.0,0.0,240.0,7.0,64.0
7360,49.0,0.0,90.0,4.0,64.0
7361,49.0,0.0,90.0,10.0,64.0
7362,61.0,85.0,240.0,2.0,64.0
7363,61.0,0.0,90.0,8.0,64.0
7364,61.0,80.0,90.0,3.0,64.0
7365,84.0,0.0,120.0,0.0,64.0
7366,61.0,85.0,240.0,7.0,64.0
7367,49.0,0.0,90.0,4.0,64.0
7368,81.0,0.0,120.0,6.0,64.0
7369,61.0,40.0,90.0,8.0,64.0
7370,61.0,0.0,90.0,3.0,64.0
7371,61.0,0.0,240.0,2.0,64.0
7372,49.0,0.0,90.0,10.0,64.0
7373,81.0,115.0,120.0,1.0,64.0
7374,84.0,0.0,120.0,5.0,64.0
7375,85.0,0.0,360.0,0.0,64.0
7376,85.0,85.0,360.0,5.0,64.0
7377,82.0,0.0,360.0,1.0,64.0
7378,82.0,0.0,360.0,6.0,64.0
7379,61.0,0.0,240.0,2.0,64.0
7380,61.0,0.0,90.0,8.0,64.0
7381,49.0,0.0,90.0,4.0,64.0
7382,61.0,0.0,240.0,7.0,64.0
7383,61.0,0.0,90.0,3.0,64.0
7384,49.0,155.0,90.0,10.0,64.0
7385,84.0,115.0,120.0,5.0,64.0
7386,84.0,0.0,120.0,0.0,64.0
7387,81.0,0.0,120.0,6.0,64.0
7388,61.0,0.0,240.0,2.0,64.0
7389,61.0,40.0,90.0,3.0,64.0
7390,81.0,0.0,120.0,1.0,64.0
7391,61.0,85.0,240.0,7.0,64.0
7392,49.0,0.0,90.0,4.0,64.0
7393,49.0,0.0,90.0,10.0,64.0
7394,61.0,0.0,90.0,8.0,64.0
7395,82.0,0.0,360.0,1.0,64.0
7396,85.0,0.0,360.0,0.0,64.0
7397,82.0,0.0,360.0,6.0,64.0
7398,85.0,85.0,360.0,5.0,64.0
7399,49.0,155.0,90.0,4.0,64.0
7400,61.0,0.0,240.0,2.0,64.0
7401,61.0,0.0,90.0,3.0,64.0
7402,61.0,0.0,90.0,8.0,64.0
7403,49.0,0.0,90.0,10.0,64.0
7404,61.0,0.0,240.0,7.0,64.0
7405,37.0,0.0,90.0,10.0,64.0
7406,49.0,0.0,90.0,3.0,64.0
7407,85.0,0.0,120.0,5.0,64.0
7408,61.0,0.0,240.0,7.0,64.0
7409,37.0,40.0,90.0,4.0,64.0
7410,49.0,0.0,90.0,8.0,64.0
7411,79.0,0.0,120.0,1.0,64.0
7412,61.0,85.0,240.0,2.0,64.0
7413,85.0,0.0,120.0,0.0,64.0
7414,79.0,115.0,120.0,6.0,64.0
7415,83.0,0.0,120.0,0.0,64.0
7416,80.0,0.0,120.0,6.0,64.0
7417,80.0,0.0,120.0,1.0,64.0
7418,83.0,0.0,120.0,5.0,64.0
7419,49.0,155.0,90.0,8.0,64.0
7420,37.0,0.0,90.0,10.0,64.0
7421,37.0,0.0,90.0,4.0,64.0
7422,49.0,0.0,90.0,3.0,64.0
7423,61.0,65.0,240.0,7.0,64.0
7424,61.0,0.0,240.0,2.0,64.0
7425,82.0,0.0,120.0,0.0,64.0
7426,79.0,20.0,120.0,1.0,64.0
7427,79.0,0.0,120.0,6.0,64.0
7428,82.0,0.0,120.0,5.0,64.0
7429,37.0,0.0,90.0,4.0,64.0
7430,49.0,0.0,90.0,8.0,64.0
7431,37.0,0.0,90.0,10.0,64.0
7432,61.0,0.0,240.0,2.0,64.0
7433,61.0,85.0,240.0,7.0,64.0
7434,49.0,155.0,90.0,3.0,64.0
7435,80.0,0.0,540.0,6.0,64.0
7436,83.0,0.0,540.0,0.0,64.0
7437,83.0,120.0,540.0,5.0,64.0
7438,80.0,0.0,540.0,1.0,64.0
7439,37.0,0.0,90.0,4.0,64.0
7440,61.0,85.0,240.0,2.0,64.0
7441,37.0,0.0,90.0,10.0,64.0
7442,61.0,0.0,240.0,7.0,64.0
7443,49.0,155.0,90.0,8.0,64.0
7444,49.0,0.0,90.0,3.0,64.0
7445,61.0,0.0,240.0,7.0,64.0
7446,49.0,35.0,90.0,3.0,64.0
7447,37.0,0.0,90.0,4.0,64.0
7448,37.0,0.0,90.0,10.0,64.0
7449,49.0,0.0,90.0,8.0,64.0
7450,61.0,85.0,240.0,2.0,64.0
7451,61.0,0.0,240.0,7.0,64.0
7452,79.0,115.0,120.0,6.0,64.0
7453,49.0,0.0,90.0,3.0,64.0
7454,82.0,0.0,120.0,0.0,64.0
7455,49.0,0.0,90.0,8.0,64.0
7456,37.0,40.0,90.0,10.0,64.0
7457,82.0,0.0,120.0,5.0,64.0
7458,61.0,0.0,240.0,2.0,64.0
7459,37.0,0.0,90.0,4.0,64.0
7460,79.0,0.0,120.0,1.0,64.0
7461,80.0,0.0,120.0,1.0,64.0
7462,83.0,85.0,120.0,0.0,64.0
7463,80.0,0.0,120.0,6.0,64.0
7464,83.0,0.0,120.0,5.0,64.0
7465,37.0,0.0,90.0,4.0,64.0
7466,61.0,85.0,240.0,2.0,64.0
7467,82.0,0.0,90.0,6.0,64.0
7468,49.0,0.0,90.0,8.0,64.0
7469,85.0,0.0,90.0,5.0,64.0
7470,82.0,0.0,90.0,1.0,64.0
7471,37.0,0.0,90.0,10.0,64.0
7472,49.0,120.0,90.0,3.0,64.0
7473,61.0,0.0,240.0,7.0,64.0
7474,85.0,0.0,90.0,0.0,64.0
7475,83.0,35.0,90.0,0.0,64.0
7476,83.0,0.0,90.0,5.0,64.0
7477,80.0,0.0,90.0,1.0,64.0
7478,80.0,0.0,90.0,6.0,64.0
7479,82.0,0.0,90.0,5.0,64.0
7480,61.0,125.0,240.0,7.0,64.0
7481,61.0,0.0,240.0,2.0,64.0
7482,37.0,0.0,90.0,10.0,64.0
7483,49.0,120.0,90.0,3.0,64.0
7484,79.0,0.0,90.0,1.0,64.0
7485,37.0,0.0,90.0,4.0,64.0
7486,79.0,0.0,90.0,6.0,64.0
7487,49.0,0.0,90.0,8.0,64.0
7488,82.0,0.0,90.0,0.0,64.0
7489,80.0,35.0,90.0,0.0,64.0
7490,77.0,0.0,90.0,1.0,64.0
7491,80.0,0.0,90.0,5.0,64.0
7492,77.0,0.0,90.0,6.0,64.0
7493,78.0,0.0,390.0,6.0,64.0
7494,78.0,0.0,390.0,1.0,64.0
7495,42.0,0.0,390.0,10.0,64.0
7496,78.0,0.0,120.0,5.0,64.0
7497,61.0,0.0,390.0,7.0,64.0
7498,61.0,0.0,390.0,2.0,64.0
7499,78.0,120.0,120.0,0.0,64.0
7500,54.0,0.0,390.0,3.0,64.0
7501,54.0,40.0,390.0,8.0,64.0
7502,42.0,0.0,390.0,4.0,64.0
7503,73.0,80.0,120.0,0.0,64.0
7504,73.0,0.0,120.0,5.0,64.0
7505,70.0,0.0,90.0,5.0,64.0
7506,70.0,80.0,90.0,0.0,64.0
7507,73.0,0.0,90.0,0.0,64.0
7508,73.0,120.0,90.0,5.0,64.0
7509,78.0,0.0,90.0,5.0,64.0
7510,78.0,120.0,90.0,0.0,64.0
7511,73.0,0.0,90.0,5.0,64.0
7512,73.0,120.0,90.0,0.0,64.0
7513,77.0,0.0,240.0,6.0,64.0
7514,77.0,85.0,240.0,1.0,64.0
7515,73.0,0.0,240.0,7.0,64.0
7516,37.0,0.0,240.0,4.0,64.0
7517,49.0,0.0,240.0,3.0,64.0
7518,73.0,0.0,240.0,2.0,64.0
7519,80.0,120.0,90.0,0.0,64.0
7520,80.0,0.0,90.0,5.0,64.0
7521,49.0,0.0,240.0,8.0,64.0
7522,37.0,0.0,240.0,10.0,64.0
7523,73.0,35.0,90.0,5.0,64.0
7524,73.0,0.0,90.0,0.0,64.0
7525,82.0,120.0,90.0,5.0,64.0
7526,42.0,0.0,390.0,10.0,64.0
7527,73.0,40.0,390.0,2.0,64.0
7528,82.0,0.0,90.0,0.0,64.0
7529,42.0,0.0,390.0,4.0,64.0
7530,54.0,0.0,390.0,3.0,64.0
7531,78.0,0.0,390.0,1.0,64.0
7532,54.0,0.0,390.0,8.0,64.0
7533,73.0,0.0,390.0,7.0,64.0
7534,78.0,0.0,390.0,6.0,64.0
7535,78.0,0.0,90.0,5.0,64.0
7536,78.0,120.0,90.0,0.0,64.0
7537,85.0,80.0,90.0,0.0,64.0
7538,85.0,0.0,90.0,5.0,64.0
7539,82.0,0.0,90.0,5.0,64.0
7540,82.0,120.0,90.0,0.0,64.0
7541,83.0,0.0,90.0,5.0,64.0
7542,83.0,120.0,90.0,0.0,64.0
7543,80.0,0.0,90.0,5.0,64.0
7544,80.0,120.0,90.0,0.0,64.0
7545,49.0,0.0,240.0,4.0,64.0
7546,49.0,0.0,240.0,10.0,64.0
7547,68.0,0.0,240.0,7.0,64.0
7548,61.0,0.0,240.0,3.0,64.0
7549,71.0,0.0,240.0,6.0,64.0
7550,61.0,0.0,240.0,8.0,64.0
7551,78.0,120.0,90.0,5.0,64.0
7552,78.0,0.0,90.0,0.0,64.0
7553,71.0,0.0,240.0,1.0,64.0
7554,68.0,125.0,240.0,2.0,64.0
7555,77.0,0.0,90.0,5.0,64.0
7556,77.0,35.0,90.0,0.0,64.0
7557,42.0,0.0,390.0,10.0,64.0
7558,54.0,0.0,390.0,8.0,64.0
7559,70.0,40.0,390.0,1.0,64.0
7560,70.0,0.0,390.0,6.0,64.0
7561,78.0,0.0,120.0,0.0,64.0
7562,66.0,0.0,390.0,7.0,64.0
7563,42.0,0.0,390.0,4.0,64.0
7564,54.0,0.0,390.0,3.0,64.0
7565,78.0,120.0,120.0,5.0,64.0
7566,66.0,0.0,390.0,2.0,64.0
7567,73.0,80.0,120.0,0.0,64.0
7568,73.0,0.0,120.0,5.0,64.0
7569,70.0,0.0,90.0,5.0,64.0
7570,70.0,80.0,90.0,0.0,64.0
7571,73.0,0.0,90.0,0.0,64.0
7572,73.0,120.0,90.0,5.0,64.0
7573,78.0,120.0,90.0,5.0,64.0
7574,78.0,0.0,90.0,0.0,64.0
7575,73.0,120.0,90.0,0.0,64.0
7576,73.0,0.0,90.0,5.0,64.0
7577,80.0,120.0,90.0,0.0,64.0
7578,80.0,0.0,90.0,5.0,64.0
7579,77.0,85.0,240.0,6.0,64.0
7580,77.0,0.0,240.0,1.0,64.0
7581,73.0,0.0,240.0,7.0,64.0
7582,73.0,0.0,240.0,2.0,64.0
7583,37.0,0.0,240.0,10.0,64.0
7584,37.0,0.0,240.0,4.0,64.0
7585,49.0,0.0,240.0,3.0,64.0
7586,49.0,0.0,240.0,8.0,64.0
7587,73.0,0.0,90.0,0.0,64.0
7588,73.0,35.0,90.0,5.0,64.0
7589,82.0,120.0,90.0,5.0,64.0
7590,54.0,0.0,390.0,8.0,64.0
7591,78.0,0.0,390.0,6.0,64.0
7592,78.0,0.0,390.0,1.0,64.0
7593,54.0,0.0,390.0,3.0,64.0
7594,73.0,0.0,390.0,7.0,64.0
7595,42.0,40.0,390.0,10.0,64.0
7596,82.0,0.0,90.0,0.0,64.0
7597,73.0,0.0,390.0,2.0,64.0
7598,42.0,0.0,390.0,4.0,64.0
7599,73.0,120.0,90.0,5.0,64.0
7600,73.0,0.0,90.0,0.0,64.0
7601,82.0,0.0,90.0,0.0,64.0
7602,82.0,80.0,90.0,5.0,64.0
7603,85.0,120.0,90.0,5.0,64.0
7604,85.0,0.0,90.0,0.0,64.0
7605,83.0,0.0,90.0,0.0,64.0
7606,83.0,120.0,90.0,5.0,64.0
7607,80.0,0.0,90.0,0.0,64.0
7608,80.0,120.0,90.0,5.0,64.0
7609,49.0,0.0,240.0,10.0,64.0
7610,61.0,0.0,240.0,8.0,64.0
7611,61.0,0.0,240.0,3.0,64.0
7612,78.0,0.0,90.0,5.0,64.0
7613,49.0,0.0,240.0,4.0,64.0
7614,78.0,120.0,90.0,0.0,64.0
7615,71.0,85.0,240.0,2.0,64.0
7616,71.0,0.0,240.0,7.0,64.0
7617,77.0,35.0,90.0,0.0,64.0
7618,77.0,0.0,90.0,5.0,64.0
7619,90.0,0.0,1320.0,6.0,64.0
7620,42.0,0.0,90.0,10.0,64.0
7621,78.0,160.0,390.0,0.0,64.0
7622,70.0,0.0,90.0,2.0,64.0
7623,54.0,0.0,90.0,8.0,64.0
7624,78.0,0.0,390.0,5.0,64.0
7625,54.0,0.0,90.0,3.0,64.0
7626,42.0,0.0,90.0,4.0,64.0
7627,70.0,240.0,90.0,7.0,64.0
7628,90.0,200.0,1320.0,1.0,64.0
7629,54.0,0.0,90.0,3.0,64.0
7630,54.0,0.0,90.0,8.0,64.0
7631,70.0,0.0,90.0,7.0,64.0
7632,42.0,80.0,90.0,4.0,64.0
7633,70.0,0.0,90.0,2.0,64.0
7634,42.0,0.0,90.0,10.0,64.0
7635,42.0,0.0,90.0,4.0,64.0
7636,70.0,240.0,90.0,7.0,64.0
7637,54.0,0.0,90.0,8.0,64.0
7638,54.0,0.0,90.0,3.0,64.0
7639,70.0,0.0,90.0,2.0,64.0
7640,42.0,0.0,90.0,10.0,64.0
7641,70.0,0.0,90.0,2.0,64.0
7642,54.0,0.0,90.0,8.0,64.0
7643,42.0,0.0,90.0,4.0,64.0
7644,54.0,0.0,90.0,3.0,64.0
7645,42.0,240.0,90.0,10.0,64.0
7646,70.0,0.0,90.0,7.0,64.0
7647,70.0,0.0,90.0,2.0,64.0
7648,54.0,0.0,90.0,3.0,64.0
7649,70.0,0.0,90.0,7.0,64.0
7650,42.0,240.0,90.0,10.0,64.0
7651,42.0,0.0,90.0,4.0,64.0
7652,54.0,0.0,90.0,8.0,64.0
7653,70.0,0.0,90.0,7.0,64.0
7654,54.0,0.0,90.0,3.0,64.0
7655,42.0,0.0,90.0,4.0,64.0
7656,70.0,40.0,90.0,2.0,64.0
7657,42.0,0.0,90.0,10.0,64.0
7658,54.0,0.0,90.0,8.0,64.0
7659,70.0,0.0,90.0,7.0,64.0
7660,42.0,0.0,90.0,10.0,64.0
7661,70.0,240.0,90.0,2.0,64.0
7662,42.0,0.0,90.0,4.0,64.0
7663,54.0,0.0,90.0,8.0,64.0
7664,85.0,120.0,360.0,1.0,64.0
7665,85.0,0.0,360.0,6.0,64.0
7666,54.0,0.0,90.0,3.0,64.0
7667,42.0,0.0,90.0,10.0,64.0
7668,70.0,0.0,90.0,2.0,64.0
7669,42.0,0.0,90.0,4.0,64.0
7670,54.0,0.0,90.0,8.0,64.0
7671,70.0,35.0,90.0,7.0,64.0
7672,54.0,0.0,90.0,3.0,64.0
7673,82.0,85.0,120.0,1.0,64.0
7674,82.0,0.0,120.0,6.0,64.0
7675,70.0,0.0,90.0,2.0,64.0
7676,54.0,0.0,90.0,8.0,64.0
7677,78.0,0.0,390.0,6.0,64.0
7678,78.0,160.0,390.0,1.0,64.0
7679,42.0,240.0,90.0,10.0,64.0
7680,54.0,0.0,90.0,3.0,64.0
7681,42.0,0.0,90.0,4.0,64.0
7682,70.0,0.0,90.0,7.0,64.0
7683,42.0,80.0,90.0,10.0,64.0
7684,70.0,0.0,90.0,2.0,64.0
7685,42.0,0.0,90.0,4.0,64.0
7686,54.0,0.0,90.0,3.0,64.0
7687,70.0,0.0,90.0,7.0,64.0
7688,54.0,0.0,90.0,8.0,64.0
7689,73.0,0.0,360.0,1.0,64.0
7690,42.0,0.0,90.0,4.0,64.0
7691,73.0,120.0,360.0,6.0,64.0
7692,70.0,0.0,90.0,2.0,64.0
7693,42.0,0.0,90.0,10.0,64.0
7694,54.0,0.0,90.0,3.0,64.0
7695,54.0,0.0,90.0,8.0,64.0
7696,70.0,240.0,90.0,7.0,64.0
7697,54.0,0.0,90.0,8.0,64.0
7698,54.0,35.0,90.0,3.0,64.0
7699,42.0,0.0,90.0,10.0,64.0
7700,42.0,0.0,90.0,4.0,64.0
7701,70.0,0.0,90.0,2.0,64.0
7702,70.0,0.0,90.0,7.0,64.0
7703,70.0,85.0,120.0,1.0,64.0
7704,70.0,0.0,120.0,6.0,64.0
7705,66.0,85.0,240.0,1.0,64.0
7706,70.0,0.0,90.0,7.0,64.0
7707,42.0,0.0,90.0,4.0,64.0
7708,61.0,0.0,90.0,7.0,64.0
7709,42.0,0.0,90.0,10.0,64.0
7710,70.0,0.0,90.0,2.0,64.0
7711,61.0,155.0,90.0,2.0,64.0
7712,66.0,0.0,240.0,6.0,64.0
7713,54.0,0.0,90.0,3.0,64.0
7714,54.0,0.0,90.0,8.0,64.0
7715,61.0,0.0,90.0,2.0,64.0
7716,90.0,0.0,90.0,6.0,64.0
7717,42.0,240.0,90.0,4.0,64.0
7718,42.0,0.0,90.0,10.0,64.0
7719,70.0,0.0,90.0,2.0,64.0
7720,90.0,0.0,90.0,1.0,64.0
7721,70.0,0.0,90.0,7.0,64.0
7722,54.0,0.0,90.0,8.0,64.0
7723,61.0,0.0,90.0,7.0,64.0
7724,54.0,0.0,90.0,3.0,64.0
7725,42.0,0.0,90.0,10.0,64.0
7726,42.0,0.0,90.0,4.0,64.0
7727,61.0,0.0,90.0,7.0,64.0
7728,90.0,0.0,90.0,1.0,64.0
7729,70.0,0.0,90.0,2.0,64.0
7730,61.0,0.0,90.0,2.0,64.0
7731,54.0,0.0,90.0,3.0,64.0
7732,70.0,0.0,90.0,7.0,64.0
7733,54.0,240.0,90.0,8.0,64.0
7734,90.0,0.0,90.0,6.0,64.0
7735,70.0,0.0,90.0,7.0,64.0
7736,90.0,0.0,90.0,6.0,64.0
7737,90.0,0.0,90.0,1.0,64.0
7738,42.0,0.0,90.0,4.0,64.0
7739,42.0,0.0,90.0,10.0,64.0
7740,61.0,190.0,90.0,2.0,64.0
7741,70.0,0.0,90.0,2.0,64.0
7742,61.0,0.0,90.0,7.0,64.0
7743,54.0,0.0,90.0,8.0,64.0
7744,54.0,0.0,90.0,3.0,64.0
7745,66.0,0.0,90.0,7.0,64.0
7746,42.0,0.0,90.0,10.0,64.0
7747,92.0,0.0,30.0,1.0,64.0
7748,82.0,0.0,1320.0,0.0,64.0
7749,66.0,0.0,1320.0,0.0,64.0
7750,85.0,0.0,1320.0,5.0,64.0
7751,82.0,200.0,1320.0,5.0,64.0
7752,54.0,0.0,90.0,8.0,64.0
7753,92.0,30.0,30.0,6.0,64.0
7754,42.0,0.0,90.0,4.0,64.0
7755,66.0,0.0,1320.0,5.0,64.0
7756,66.0,0.0,90.0,2.0,64.0
7757,85.0,0.0,1320.0,0.0,64.0
7758,54.0,10.0,90.0,3.0,64.0
7759,90.0,0.0,30.0,6.0,64.0
7760,90.0,20.0,30.0,1.0,64.0
7761,92.0,30.0,30.0,1.0,64.0
7762,92.0,0.0,30.0,6.0,64.0
7763,90.0,30.0,30.0,1.0,64.0
7764,90.0,0.0,30.0,6.0,64.0
7765,92.0,0.0,30.0,1.0,64.0
7766,92.0,30.0,30.0,6.0,64.0
7767,90.0,0.0,30.0,6.0,64.0
7768,90.0,30.0,30.0,1.0,64.0
7769,92.0,30.0,30.0,6.0,64.0
7770,92.0,0.0,30.0,1.0,64.0
7771,90.0,0.0,30.0,1.0,64.0
7772,90.0,80.0,30.0,6.0,64.0
7773,42.0,0.0,90.0,10.0,64.0
7774,54.0,0.0,90.0,3.0,64.0
7775,66.0,0.0,90.0,7.0,64.0
7776,88.0,0.0,240.0,6.0,64.0
7777,88.0,85.0,240.0,1.0,64.0
7778,66.0,0.0,90.0,2.0,64.0
7779,42.0,0.0,90.0,4.0,64.0
7780,54.0,155.0,90.0,8.0,64.0
7781,88.0,0.0,390.0,1.0,64.0
7782,42.0,0.0,90.0,4.0,64.0
7783,54.0,0.0,90.0,3.0,64.0
7784,88.0,160.0,390.0,6.0,64.0
7785,42.0,0.0,90.0,10.0,64.0
7786,54.0,240.0,90.0,8.0,64.0
7787,66.0,0.0,90.0,7.0,64.0
7788,66.0,0.0,90.0,2.0,64.0
7789,54.0,0.0,90.0,3.0,64.0
7790,66.0,80.0,90.0,2.0,64.0
7791,66.0,0.0,90.0,7.0,64.0
7792,54.0,0.0,90.0,8.0,64.0
7793,42.0,0.0,90.0,10.0,64.0
7794,42.0,0.0,90.0,4.0,64.0
7795,42.0,240.0,90.0,10.0,64.0
7796,66.0,0.0,90.0,2.0,64.0
7797,54.0,0.0,90.0,8.0,64.0
7798,42.0,0.0,90.0,4.0,64.0
7799,66.0,0.0,90.0,7.0,64.0
7800,54.0,0.0,90.0,3.0,64.0
7801,66.0,0.0,90.0,2.0,64.0
7802,66.0,40.0,90.0,7.0,64.0
7803,42.0,0.0,90.0,10.0,64.0
7804,42.0,0.0,90.0,4.0,64.0
7805,54.0,0.0,90.0,3.0,64.0
7806,54.0,0.0,90.0,8.0,64.0
7807,85.0,0.0,360.0,5.0,64.0
7808,66.0,240.0,90.0,7.0,64.0
7809,66.0,0.0,90.0,2.0,64.0
7810,42.0,0.0,90.0,4.0,64.0
7811,54.0,0.0,90.0,8.0,64.0
7812,42.0,0.0,90.0,10.0,64.0
7813,54.0,0.0,90.0,3.0,64.0
7814,85.0,120.0,360.0,0.0,64.0
7815,66.0,0.0,90.0,7.0,64.0
7816,42.0,0.0,90.0,4.0,64.0
7817,66.0,35.0,90.0,2.0,64.0
7818,54.0,0.0,90.0,8.0,64.0
7819,54.0,0.0,90.0,3.0,64.0
7820,42.0,0.0,90.0,10.0,64.0
7821,82.0,85.0,120.0,5.0,64.0
7822,82.0,0.0,120.0,0.0,64.0
7823,73.0,0.0,90.0,2.0,64.0
7824,70.0,0.0,90.0,2.0,64.0
7825,42.0,0.0,90.0,10.0,64.0
7826,76.0,160.0,390.0,0.0,64.0
7827,76.0,0.0,390.0,5.0,64.0
7828,73.0,0.0,90.0,7.0,64.0
7829,54.0,240.0,90.0,3.0,64.0
7830,54.0,0.0,90.0,8.0,64.0
7831,70.0,0.0,90.0,7.0,64.0
7832,42.0,0.0,90.0,4.0,64.0
7833,42.0,0.0,90.0,4.0,64.0
7834,54.0,0.0,90.0,8.0,64.0
7835,70.0,0.0,90.0,2.0,64.0
7836,54.0,0.0,90.0,3.0,64.0
7837,42.0,0.0,90.0,10.0,64.0
7838,70.0,80.0,90.0,7.0,64.0
7839,73.0,0.0,90.0,7.0,64.0
7840,73.0,0.0,90.0,2.0,64.0
7841,42.0,240.0,90.0,10.0,64.0
7842,73.0,0.0,360.0,5.0,64.0
7843,73.0,120.0,360.0,0.0,64.0
7844,54.0,0.0,90.0,8.0,64.0
7845,73.0,0.0,90.0,2.0,64.0
7846,70.0,0.0,90.0,2.0,64.0
7847,73.0,0.0,90.0,7.0,64.0
7848,70.0,0.0,90.0,7.0,64.0
7849,54.0,0.0,90.0,3.0,64.0
7850,42.0,0.0,90.0,4.0,64.0
7851,42.0,0.0,90.0,4.0,64.0
7852,73.0,0.0,90.0,7.0,64.0
7853,70.0,0.0,90.0,2.0,64.0
7854,73.0,0.0,90.0,2.0,64.0
7855,54.0,35.0,90.0,8.0,64.0
7856,70.0,0.0,90.0,7.0,64.0
7857,42.0,0.0,90.0,10.0,64.0
7858,54.0,0.0,90.0,3.0,64.0
7859,70.0,85.0,120.0,5.0,64.0
7860,70.0,0.0,120.0,0.0,64.0
7861,54.0,0.0,90.0,3.0,64.0
7862,73.0,0.0,90.0,2.0,64.0
7863,70.0,0.0,90.0,2.0,64.0
7864,66.0,125.0,240.0,5.0,64.0
7865,54.0,155.0,90.0,8.0,64.0
7866,66.0,0.0,240.0,0.0,64.0
7867,42.0,0.0,90.0,4.0,64.0
7868,70.0,0.0,90.0,7.0,64.0
7869,73.0,0.0,90.0,7.0,64.0
7870,42.0,0.0,90.0,10.0,64.0
7871,85.0,0.0,120.0,5.0,64.0
7872,66.0,0.0,390.0,2.0,64.0
7873,42.0,0.0,240.0,4.0,64.0
7874,82.0,120.0,120.0,6.0,64.0
7875,85.0,0.0,120.0,0.0,64.0
7876,66.0,160.0,390.0,7.0,64.0
7877,54.0,80.0,240.0,8.0,64.0
7878,82.0,0.0,120.0,1.0,64.0
7879,87.0,0.0,120.0,5.0,64.0
7880,83.0,0.0,120.0,6.0,64.0
7881,87.0,0.0,120.0,0.0,64.0
7882,83.0,0.0,120.0,1.0,64.0
7883,85.0,0.0,90.0,1.0,64.0
7884,54.0,0.0,15.0,3.0,64.0
7885,88.0,0.0,90.0,0.0,64.0
7886,85.0,0.0,90.0,6.0,64.0
7887,42.0,0.0,90.0,4.0,64.0
7888,42.0,0.0,15.0,10.0,64.0
7889,54.0,0.0,90.0,8.0,64.0
7890,88.0,80.0,90.0,5.0,64.0
7891,54.0,0.0,90.0,8.0,64.0
7892,88.0,240.0,90.0,0.0,64.0
7893,42.0,0.0,90.0,10.0,64.0
7894,66.0,0.0,480.0,7.0,64.0
7895,54.0,0.0,90.0,3.0,64.0
7896,42.0,0.0,90.0,4.0,64.0
7897,85.0,0.0,90.0,6.0,64.0
7898,88.0,0.0,90.0,5.0,64.0
7899,66.0,0.0,480.0,2.0,64.0
7900,85.0,0.0,90.0,1.0,64.0
7901,87.0,0.0,90.0,0.0,64.0
7902,47.0,0.0,240.0,4.0,64.0
7903,47.0,0.0,240.0,10.0,64.0
7904,59.0,85.0,240.0,8.0,64.0
7905,87.0,120.0,90.0,5.0,64.0
7906,83.0,40.0,390.0,1.0,64.0
7907,83.0,0.0,390.0,6.0,64.0
7908,59.0,0.0,240.0,3.0,64.0
7909,85.0,0.0,90.0,0.0,64.0
7910,85.0,35.0,90.0,5.0,64.0
7911,47.0,85.0,240.0,4.0,64.0
7912,47.0,0.0,240.0,10.0,64.0
7913,59.0,0.0,240.0,8.0,64.0
7914,66.0,0.0,390.0,7.0,64.0
7915,66.0,40.0,390.0,2.0,64.0
7916,59.0,0.0,240.0,3.0,64.0
7917,83.0,80.0,90.0,5.0,64.0
7918,83.0,0.0,90.0,0.0,64.0
7919,82.0,35.0,90.0,5.0,64.0
7920,82.0,0.0,90.0,0.0,64.0
7921,71.0,80.0,480.0,1.0,64.0
7922,83.0,80.0,90.0,5.0,64.0
7923,63.0,0.0,240.0,3.0,64.0
7924,51.0,85.0,240.0,4.0,64.0
7925,63.0,0.0,240.0,8.0,64.0
7926,71.0,0.0,480.0,6.0,64.0
7927,51.0,0.0,240.0,10.0,64.0
7928,83.0,0.0,90.0,0.0,64.0
7929,82.0,35.0,90.0,5.0,64.0
7930,82.0,0.0,90.0,0.0,64.0
7931,51.0,0.0,240.0,10.0,64.0
7932,63.0,5.0,240.0,8.0,64.0
7933,80.0,120.0,90.0,0.0,64.0
7934,51.0,0.0,240.0,4.0,64.0
7935,66.0,0.0,390.0,2.0,64.0
7936,80.0,0.0,90.0,5.0,64.0
7937,63.0,0.0,240.0,3.0,64.0
7938,66.0,40.0,390.0,7.0,64.0
7939,78.0,35.0,90.0,0.0,64.0
7940,78.0,0.0,90.0,5.0,64.0
7941,49.0,85.0,240.0,10.0,64.0
7942,76.0,80.0,90.0,0.0,64.0
7943,70.0,40.0,390.0,6.0,64.0
7944,76.0,0.0,90.0,5.0,64.0
7945,49.0,0.0,240.0,4.0,64.0
7946,61.0,0.0,240.0,3.0,64.0
7947,70.0,0.0,390.0,1.0,64.0
7948,61.0,0.0,240.0,8.0,64.0
7949,82.0,0.0,90.0,5.0,64.0
7950,82.0,35.0,90.0,0.0,64.0
7951,61.0,85.0,240.0,8.0,64.0
7952,85.0,0.0,90.0,0.0,64.0
7953,85.0,80.0,90.0,5.0,64.0
7954,49.0,0.0,240.0,10.0,64.0
7955,61.0,0.0,240.0,3.0,64.0
7956,49.0,0.0,240.0,4.0,64.0
7957,66.0,40.0,390.0,2.0,64.0
7958,66.0,0.0,390.0,7.0,64.0
7959,83.0,0.0,90.0,0.0,64.0
7960,83.0,35.0,90.0,5.0,64.0
7961,42.0,0.0,240.0,10.0,64.0
7962,54.0,85.0,240.0,8.0,64.0
7963,82.0,0.0,480.0,6.0,64.0
7964,54.0,0.0,240.0,3.0,64.0
7965,82.0,0.0,90.0,0.0,64.0
7966,42.0,0.0,240.0,4.0,64.0
7967,82.0,80.0,480.0,1.0,64.0
7968,82.0,80.0,90.0,5.0,64.0
7969,80.0,35.0,90.0,5.0,64.0
7970,80.0,0.0,90.0,0.0,64.0
7971,54.0,0.0,240.0,3.0,64.0
7972,42.0,0.0,240.0,4.0,64.0
7973,78.0,120.0,90.0,5.0,64.0
7974,66.0,0.0,630.0,7.0,64.0
7975,54.0,5.0,240.0,8.0,64.0
7976,42.0,0.0,240.0,10.0,64.0
7977,78.0,0.0,90.0,0.0,64.0
7978,66.0,0.0,630.0,2.0,64.0
7979,76.0,0.0,90.0,0.0,64.0
7980,76.0,35.0,90.0,5.0,64.0
7981,75.0,0.0,90.0,0.0,64.0
7982,59.0,0.0,240.0,8.0,64.0
7983,47.0,0.0,240.0,10.0,64.0
7984,83.0,0.0,390.0,1.0,64.0
7985,47.0,0.0,240.0,4.0,64.0
7986,75.0,120.0,90.0,5.0,64.0
7987,59.0,85.0,240.0,3.0,64.0
7988,83.0,40.0,390.0,6.0,64.0
7989,78.0,35.0,90.0,5.0,64.0
7990,78.0,0.0,90.0,0.0,64.0
7991,83.0,80.0,90.0,0.0,64.0
7992,83.0,0.0,90.0,5.0,64.0
7993,59.0,0.0,240.0,3.0,64.0
7994,47.0,0.0,240.0,10.0,64.0
7995,59.0,85.0,240.0,8.0,64.0
7996,47.0,0.0,240.0,4.0,64.0
7997,82.0,35.0,90.0,0.0,64.0
7998,82.0,0.0,90.0,5.0,64.0
7999,83.0,120.0,90.0,0.0,64.0
8000,76.0,0.0,480.0,6.0,64.0
8001,83.0,0.0,90.0,5.0,64.0
8002,73.0,80.0,480.0,7.0,64.0
8003,61.0,0.0,240.0,8.0,64.0
8004,76.0,0.0,480.0,1.0,64.0
8005,49.0,0.0,240.0,10.0,64.0
8006,61.0,0.0,240.0,3.0,64.0
8007,49.0,85.0,240.0,4.0,64.0
8008,73.0,0.0,480.0,2.0,64.0
8009,82.0,0.0,90.0,0.0,64.0
8010,82.0,35.0,90.0,5.0,64.0
8011,61.0,0.0,240.0,8.0,64.0
8012,49.0,5.0,240.0,10.0,64.0
8013,80.0,120.0,90.0,0.0,64.0
8014,61.0,0.0,240.0,3.0,64.0
8015,80.0,0.0,90.0,5.0,64.0
8016,49.0,0.0,240.0,4.0,64.0
8017,79.0,35.0,90.0,5.0,64.0
8018,79.0,0.0,90.0,0.0,64.0
8019,47.0,0.0,240.0,10.0,64.0
8020,80.0,120.0,90.0,5.0,64.0
8021,47.0,0.0,240.0,4.0,64.0
8022,75.0,0.0,390.0,1.0,64.0
8023,59.0,0.0,240.0,3.0,64.0
8024,71.0,0.0,390.0,7.0,64.0
8025,75.0,40.0,390.0,6.0,64.0
8026,71.0,0.0,390.0,2.0,64.0
8027,80.0,0.0,90.0,0.0,64.0
8028,59.0,85.0,240.0,8.0,64.0
8029,83.0,0.0,90.0,0.0,64.0
8030,83.0,35.0,90.0,5.0,64.0
8031,87.0,0.0,90.0,5.0,64.0
8032,47.0,85.0,240.0,10.0,64.0
8033,87.0,80.0,90.0,0.0,64.0
8034,59.0,0.0,240.0,8.0,64.0
8035,59.0,0.0,240.0,3.0,64.0
8036,47.0,0.0,240.0,4.0,64.0
8037,85.0,35.0,90.0,5.0,64.0
8038,85.0,0.0,90.0,0.0,64.0
8039,59.0,85.0,240.0,8.0,64.0
8040,83.0,0.0,90.0,5.0,64.0
8041,59.0,0.0,240.0,3.0,64.0
8042,63.0,0.0,480.0,6.0,64.0
8043,47.0,0.0,240.0,10.0,64.0
8044,68.0,0.0,390.0,2.0,64.0
8045,63.0,115.0,480.0,1.0,64.0
8046,68.0,40.0,390.0,7.0,64.0
8047,83.0,120.0,90.0,0.0,64.0
8048,47.0,0.0,240.0,4.0,64.0
8049,82.0,35.0,90.0,0.0,64.0
8050,82.0,0.0,90.0,5.0,64.0
8051,48.0,0.0,240.0,10.0,64.0
8052,48.0,0.0,240.0,4.0,64.0
8053,60.0,0.0,240.0,8.0,64.0
8054,60.0,5.0,240.0,3.0,64.0
8055,80.0,80.0,90.0,5.0,64.0
8056,80.0,0.0,90.0,0.0,64.0
8057,78.0,35.0,90.0,0.0,64.0
8058,78.0,0.0,90.0,5.0,64.0
8059,77.0,45.0,360.0,5.0,64.0
8060,61.0,85.0,120.0,6.0,64.0
8061,68.0,40.0,390.0,2.0,64.0
8062,61.0,0.0,240.0,8.0,64.0
8063,77.0,0.0,360.0,0.0,64.0
8064,49.0,0.0,240.0,4.0,64.0
8065,49.0,0.0,240.0,10.0,64.0
8066,68.0,0.0,390.0,7.0,64.0
8067,61.0,0.0,240.0,3.0,64.0
8068,61.0,0.0,120.0,1.0,64.0
8069,73.0,85.0,120.0,6.0,64.0
8070,73.0,35.0,90.0,1.0,64.0
8071,77.0,0.0,120.0,6.0,64.0
8072,61.0,0.0,240.0,3.0,64.0
8073,61.0,0.0,240.0,8.0,64.0
8074,49.0,85.0,240.0,10.0,64.0
8075,49.0,0.0,240.0,4.0,64.0
8076,77.0,35.0,90.0,1.0,64.0
8077,80.0,0.0,120.0,6.0,64.0
8078,80.0,35.0,90.0,1.0,64.0
8079,85.0,85.0,120.0,6.0,64.0
8080,65.0,85.0,240.0,3.0,64.0
8081,73.0,0.0,480.0,7.0,64.0
8082,73.0,80.0,480.0,2.0,64.0
8083,65.0,0.0,240.0,8.0,64.0
8084,85.0,35.0,90.0,1.0,64.0
8085,53.0,0.0,240.0,10.0,64.0
8086,80.0,0.0,1830.0,0.0,64.0
8087,53.0,0.0,240.0,4.0,64.0
8088,80.0,0.0,1830.0,5.0,64.0
8089,84.0,0.0,120.0,6.0,64.0
8090,84.0,35.0,90.0,1.0,64.0
8091,82.0,85.0,120.0,6.0,64.0
8092,82.0,35.0,90.0,1.0,64.0
8093,53.0,0.0,240.0,10.0,64.0
8094,65.0,5.0,240.0,3.0,64.0
8095,65.0,0.0,240.0,8.0,64.0
8096,53.0,0.0,240.0,4.0,64.0
8097,80.0,0.0,120.0,6.0,64.0
8098,80.0,35.0,90.0,1.0,64.0
8099,63.0,0.0,240.0,8.0,64.0
8100,51.0,0.0,240.0,4.0,64.0
8101,78.0,35.0,90.0,1.0,64.0
8102,51.0,85.0,240.0,10.0,64.0
8103,72.0,40.0,390.0,7.0,64.0
8104,72.0,0.0,390.0,2.0,64.0
8105,78.0,85.0,120.0,6.0,64.0
8106,63.0,0.0,240.0,3.0,64.0
8107,77.0,35.0,90.0,1.0,64.0
8108,77.0,0.0,120.0,6.0,64.0
8109,63.0,0.0,240.0,3.0,64.0
8110,51.0,0.0,240.0,4.0,64.0
8111,75.0,35.0,90.0,1.0,64.0
8112,51.0,0.0,240.0,10.0,64.0
8113,63.0,0.0,240.0,8.0,64.0
8114,75.0,45.0,120.0,6.0,64.0
8115,73.0,85.0,120.0,6.0,64.0
8116,73.0,35.0,90.0,1.0,64.0
8117,63.0,80.0,240.0,7.0,64.0
8118,63.0,0.0,240.0,2.0,64.0
8119,72.0,85.0,120.0,6.0,64.0
8120,56.0,0.0,240.0,8.0,64.0
8121,72.0,35.0,90.0,1.0,64.0
8122,44.0,5.0,240.0,4.0,64.0
8123,56.0,0.0,240.0,3.0,64.0
8124,44.0,0.0,240.0,10.0,64.0
8125,75.0,0.0,120.0,6.0,64.0
8126,75.0,35.0,90.0,1.0,64.0
8127,80.0,35.0,90.0,1.0,64.0
8128,60.0,0.0,240.0,2.0,64.0
8129,44.0,0.0,240.0,10.0,64.0
8130,60.0,0.0,240.0,7.0,64.0
8131,44.0,0.0,240.0,4.0,64.0
8132,56.0,0.0,240.0,3.0,64.0
8133,80.0,85.0,120.0,6.0,64.0
8134,56.0,85.0,240.0,8.0,64.0
8135,78.0,0.0,120.0,6.0,64.0
8136,78.0,35.0,90.0,1.0,64.0
8137,49.0,85.0,240.0,3.0,64.0
8138,61.0,40.0,390.0,7.0,64.0
8139,77.0,35.0,90.0,1.0,64.0
8140,37.0,0.0,240.0,10.0,64.0
8141,77.0,85.0,120.0,6.0,64.0
8142,37.0,0.0,240.0,4.0,64.0
8143,61.0,0.0,390.0,2.0,64.0
8144,49.0,0.0,240.0,8.0,64.0
8145,75.0,35.0,90.0,1.0,64.0
8146,75.0,0.0,120.0,6.0,64.0
8147,37.0,0.0,240.0,4.0,64.0
8148,73.0,35.0,90.0,1.0,64.0
8149,49.0,0.0,240.0,8.0,64.0
8150,49.0,0.0,240.0,3.0,64.0
8151,73.0,45.0,120.0,6.0,64.0
8152,37.0,0.0,240.0,10.0,64.0
8153,75.0,85.0,120.0,6.0,64.0
8154,75.0,35.0,90.0,1.0,64.0
8155,85.0,0.0,1560.0,5.0,64.0
8156,71.0,0.0,480.0,7.0,64.0
8157,44.0,0.0,240.0,4.0,64.0
8158,77.0,35.0,90.0,1.0,64.0
8159,71.0,80.0,480.0,2.0,64.0
8160,56.0,0.0,240.0,3.0,64.0
8161,85.0,85.0,1560.0,0.0,64.0
8162,56.0,0.0,240.0,8.0,64.0
8163,77.0,85.0,120.0,6.0,64.0
8164,44.0,85.0,240.0,10.0,64.0
8165,78.0,35.0,90.0,1.0,64.0
8166,78.0,0.0,120.0,6.0,64.0
8167,80.0,85.0,120.0,6.0,64.0
8168,56.0,0.0,240.0,3.0,64.0
8169,44.0,0.0,240.0,4.0,64.0
8170,56.0,5.0,240.0,8.0,64.0
8171,80.0,35.0,90.0,1.0,64.0
8172,44.0,0.0,240.0,10.0,64.0
8173,82.0,0.0,120.0,6.0,64.0
8174,82.0,35.0,90.0,1.0,64.0
8175,53.0,0.0,240.0,8.0,64.0
8176,83.0,85.0,120.0,6.0,64.0
8177,83.0,35.0,90.0,1.0,64.0
8178,53.0,85.0,240.0,3.0,64.0
8179,68.0,40.0,390.0,7.0,64.0
8180,68.0,0.0,390.0,2.0,64.0
8181,41.0,0.0,240.0,4.0,64.0
8182,41.0,0.0,240.0,10.0,64.0
8183,82.0,35.0,90.0,1.0,64.0
8184,82.0,0.0,120.0,6.0,64.0
8185,80.0,45.0,120.0,6.0,64.0
8186,41.0,0.0,240.0,4.0,64.0
8187,41.0,0.0,240.0,10.0,64.0
8188,53.0,0.0,240.0,3.0,64.0
8189,53.0,0.0,240.0,8.0,64.0
8190,80.0,35.0,90.0,1.0,64.0
8191,78.0,85.0,120.0,6.0,64.0
8192,78.0,35.0,90.0,1.0,64.0
8193,49.0,0.0,240.0,8.0,64.0
8194,68.0,0.0,390.0,7.0,64.0
8195,49.0,0.0,240.0,3.0,64.0
8196,65.0,0.0,390.0,2.0,64.0
8197,68.0,40.0,390.0,2.0,64.0
8198,65.0,0.0,390.0,7.0,64.0
8199,77.0,85.0,120.0,6.0,64.0
8200,37.0,0.0,240.0,10.0,64.0
8201,37.0,0.0,240.0,4.0,64.0
8202,77.0,35.0,90.0,1.0,64.0
8203,75.0,85.0,120.0,6.0,64.0
8204,75.0,35.0,90.0,1.0,64.0
8205,73.0,35.0,90.0,1.0,64.0
8206,37.0,0.0,240.0,10.0,64.0
8207,49.0,0.0,240.0,3.0,64.0
8208,49.0,0.0,240.0,8.0,64.0
8209,37.0,120.0,240.0,4.0,64.0
8210,73.0,45.0,120.0,6.0,64.0
8211,71.0,35.0,90.0,1.0,64.0
8212,71.0,0.0,120.0,6.0,64.0
8213,54.0,85.0,240.0,8.0,64.0
8214,70.0,40.0,390.0,1.0,64.0
8215,42.0,0.0,240.0,4.0,64.0
8216,42.0,0.0,240.0,10.0,64.0
8217,54.0,0.0,240.0,3.0,64.0
8218,70.0,0.0,390.0,6.0,64.0
8219,66.0,0.0,840.0,7.0,64.0
8220,66.0,80.0,840.0,2.0,64.0
8221,78.0,35.0,90.0,5.0,64.0
8222,78.0,0.0,90.0,0.0,64.0
8223,54.0,0.0,240.0,8.0,64.0
8224,42.0,0.0,240.0,4.0,64.0
8225,42.0,85.0,240.0,10.0,64.0
8226,54.0,0.0,240.0,3.0,64.0
8227,82.0,0.0,90.0,0.0,64.0
8228,82.0,80.0,90.0,5.0,64.0
8229,85.0,0.0,90.0,5.0,64.0
8230,85.0,35.0,90.0,0.0,64.0
8231,85.0,85.0,3600.0,1.0,64.0
8232,85.0,0.0,3600.0,6.0,64.0
8233,46.0,0.0,240.0,10.0,64.0
8234,58.0,85.0,240.0,8.0,64.0
8235,58.0,0.0,240.0,3.0,64.0
8236,90.0,120.0,90.0,0.0,64.0
8237,90.0,0.0,90.0,5.0,64.0
8238,46.0,0.0,240.0,4.0,64.0
8239,89.0,35.0,90.0,0.0,64.0
8240,89.0,0.0,90.0,5.0,64.0
8241,58.0,0.0,240.0,8.0,64.0
8242,46.0,85.0,240.0,4.0,64.0
8243,58.0,0.0,240.0,3.0,64.0
8244,87.0,0.0,90.0,5.0,64.0
8245,46.0,0.0,240.0,10.0,64.0
8246,87.0,40.0,90.0,0.0,64.0
8247,85.0,35.0,90.0,5.0,64.0
8248,85.0,0.0,90.0,0.0,64.0
8249,44.0,0.0,240.0,4.0,64.0
8250,83.0,0.0,90.0,0.0,64.0
8251,83.0,120.0,90.0,5.0,64.0
8252,44.0,0.0,240.0,10.0,64.0
8253,65.0,40.0,390.0,2.0,64.0
8254,56.0,0.0,240.0,8.0,64.0
8255,56.0,85.0,240.0,3.0,64.0
8256,65.0,0.0,390.0,7.0,64.0
8257,82.0,35.0,90.0,0.0,64.0
8258,82.0,0.0,90.0,5.0,64.0
8259,80.0,0.0,90.0,5.0,64.0
8260,80.0,80.0,90.0,0.0,64.0
8261,56.0,85.0,240.0,3.0,64.0
8262,44.0,0.0,240.0,10.0,64.0
8263,44.0,0.0,240.0,4.0,64.0
8264,56.0,0.0,240.0,8.0,64.0
8265,78.0,35.0,90.0,5.0,64.0
8266,78.0,0.0,90.0,0.0,64.0
8267,37.0,5.0,240.0,10.0,64.0
8268,49.0,0.0,240.0,3.0,64.0
8269,49.0,0.0,240.0,8.0,64.0
8270,77.0,0.0,90.0,0.0,64.0
8271,37.0,0.0,240.0,4.0,64.0
8272,77.0,120.0,90.0,5.0,64.0
8273,68.0,0.0,240.0,2.0,64.0
8274,68.0,80.0,240.0,7.0,64.0
8275,80.0,0.0,90.0,0.0,64.0
8276,80.0,35.0,90.0,5.0,64.0
8277,65.0,0.0,240.0,7.0,64.0
8278,49.0,0.0,240.0,8.0,64.0
8279,65.0,0.0,240.0,2.0,64.0
8280,85.0,120.0,90.0,5.0,64.0
8281,49.0,0.0,240.0,3.0,64.0
8282,85.0,0.0,90.0,0.0,64.0
8283,37.0,0.0,240.0,4.0,64.0
8284,37.0,85.0,240.0,10.0,64.0
8285,83.0,0.0,90.0,0.0,64.0
8286,83.0,35.0,90.0,5.0,64.0
8287,66.0,0.0,240.0,2.0,64.0
8288,66.0,80.0,240.0,7.0,64.0
8289,54.0,5.0,240.0,3.0,64.0
8290,54.0,0.0,240.0,8.0,64.0
8291,82.0,120.0,90.0,5.0,64.0
8292,42.0,0.0,240.0,10.0,64.0
8293,82.0,0.0,90.0,0.0,64.0
8294,42.0,0.0,240.0,4.0,64.0
8295,80.0,35.0,90.0,0.0,64.0
8296,80.0,0.0,90.0,5.0,64.0
8297,70.0,80.0,240.0,7.0,64.0
8298,70.0,0.0,240.0,2.0,64.0
8299,78.0,0.0,90.0,0.0,64.0
8300,42.0,0.0,240.0,10.0,64.0
8301,54.0,0.0,240.0,3.0,64.0
8302,78.0,120.0,90.0,5.0,64.0
8303,54.0,5.0,240.0,8.0,64.0
8304,42.0,0.0,240.0,4.0,64.0
8305,77.0,35.0,90.0,5.0,64.0
8306,77.0,0.0,90.0,0.0,64.0
8307,46.0,0.0,240.0,4.0,64.0
8308,78.0,120.0,90.0,0.0,64.0
8309,73.0,80.0,240.0,7.0,64.0
8310,58.0,0.0,240.0,8.0,64.0
8311,78.0,0.0,90.0,5.0,64.0
8312,73.0,0.0,240.0,2.0,64.0
8313,58.0,5.0,240.0,3.0,64.0
8314,46.0,0.0,240.0,10.0,64.0
8315,73.0,35.0,90.0,5.0,64.0
8316,73.0,0.0,90.0,0.0,64.0
8317,66.0,0.0,240.0,2.0,64.0
8318,46.0,0.0,240.0,10.0,64.0
8319,58.0,5.0,240.0,3.0,64.0
8320,58.0,0.0,240.0,8.0,64.0
8321,66.0,80.0,240.0,7.0,64.0
8322,75.0,0.0,90.0,0.0,64.0
8323,46.0,0.0,240.0,4.0,64.0
8324,75.0,120.0,90.0,5.0,64.0
8325,70.0,35.0,90.0,0.0,64.0
8326,70.0,0.0,90.0,5.0,64.0
8327,65.0,40.0,390.0,2.0,64.0
8328,56.0,85.0,240.0,3.0,64.0
8329,56.0,0.0,240.0,8.0,64.0
8330,44.0,0.0,240.0,10.0,64.0
8331,71.0,120.0,90.0,0.0,64.0
8332,71.0,0.0,90.0,5.0,64.0
8333,44.0,0.0,240.0,4.0,64.0
8334,65.0,0.0,390.0,7.0,64.0
8335,70.0,0.0,90.0,5.0,64.0
8336,70.0,35.0,90.0,0.0,64.0
8337,44.0,0.0,240.0,4.0,64.0
8338,56.0,0.0,240.0,8.0,64.0
8339,56.0,85.0,240.0,3.0,64.0
8340,68.0,80.0,90.0,0.0,64.0
8341,44.0,0.0,240.0,10.0,64.0
8342,68.0,0.0,90.0,5.0,64.0
8343,66.0,0.0,90.0,5.0,64.0
8344,66.0,35.0,90.0,0.0,64.0
8345,65.0,120.0,90.0,5.0,64.0
8346,68.0,80.0,240.0,7.0,64.0
8347,65.0,0.0,90.0,0.0,64.0
8348,68.0,0.0,240.0,2.0,64.0
8349,49.0,0.0,240.0,3.0,64.0
8350,37.0,5.0,240.0,4.0,64.0
8351,49.0,0.0,240.0,8.0,64.0
8352,37.0,0.0,240.0,10.0,64.0
8353,68.0,0.0,90.0,0.0,64.0
8354,68.0,35.0,90.0,5.0,64.0
8355,49.0,0.0,240.0,8.0,64.0
8356,37.0,0.0,240.0,10.0,64.0
8357,65.0,235.0,240.0,7.0,64.0
8358,65.0,0.0,240.0,2.0,64.0
8359,73.0,120.0,90.0,0.0,64.0
8360,37.0,5.0,240.0,4.0,64.0
8361,49.0,0.0,240.0,3.0,64.0
8362,73.0,0.0,90.0,5.0,64.0
8363,71.0,0.0,90.0,5.0,64.0
8364,71.0,35.0,90.0,0.0,64.0
8365,42.0,0.0,390.0,4.0,64.0
8366,70.0,160.0,390.0,5.0,64.0
8367,54.0,0.0,390.0,8.0,64.0
8368,70.0,0.0,390.0,0.0,64.0
8369,54.0,0.0,390.0,3.0,64.0
8370,42.0,0.0,390.0,10.0,64.0
8371,66.0,0.0,390.0,2.0,64.0
8372,66.0,0.0,390.0,7.0,64.0
8373,78.0,0.0,90.0,6.0,64.0
8374,78.0,80.0,90.0,1.0,64.0
8375,66.0,0.0,90.0,1.0,64.0
8376,66.0,185.0,90.0,6.0,64.0
8377,68.0,30.0,30.0,6.0,64.0
8378,68.0,0.0,30.0,1.0,64.0
8379,70.0,0.0,30.0,6.0,64.0
8380,70.0,35.0,30.0,1.0,64.0
8381,68.0,0.0,30.0,1.0,64.0
8382,68.0,30.0,30.0,6.0,64.0
8383,70.0,30.0,30.0,1.0,64.0
8384,70.0,0.0,30.0,6.0,64.0
8385,68.0,0.0,30.0,1.0,64.0
8386,68.0,30.0,30.0,6.0,64.0
8387,70.0,0.0,30.0,1.0,64.0
8388,70.0,25.0,30.0,6.0,64.0
8389,68.0,30.0,30.0,1.0,64.0
8390,68.0,0.0,30.0,6.0,64.0
8391,70.0,85.0,30.0,1.0,64.0
8392,70.0,0.0,30.0,6.0,64.0
8393,70.0,240.0,90.0,1.0,64.0
8394,70.0,0.0,90.0,6.0,64.0
8395,78.0,0.0,90.0,1.0,64.0
8396,78.0,0.0,90.0,6.0,64.0
8397,78.0,0.0,90.0,0.0,64.0
8398,78.0,240.0,90.0,5.0,64.0
8399,66.0,190.0,90.0,5.0,64.0
8400,70.0,0.0,90.0,1.0,64.0
8401,70.0,0.0,90.0,6.0,64.0
8402,66.0,0.0,90.0,0.0,64.0
8403,71.0,0.0,30.0,1.0,64.0
8404,71.0,30.0,30.0,6.0,64.0
8405,68.0,0.0,30.0,0.0,64.0
8406,68.0,0.0,30.0,5.0,64.0
8407,70.0,0.0,30.0,5.0,64.0
8408,73.0,0.0,30.0,1.0,64.0
8409,70.0,30.0,30.0,0.0,64.0
8410,73.0,0.0,30.0,6.0,64.0
8411,71.0,0.0,30.0,6.0,64.0
8412,68.0,30.0,30.0,5.0,64.0
8413,68.0,0.0,30.0,0.0,64.0
8414,71.0,0.0,30.0,1.0,64.0
8415,73.0,0.0,30.0,6.0,64.0
8416,70.0,30.0,30.0,0.0,64.0
8417,70.0,0.0,30.0,5.0,64.0
8418,73.0,0.0,30.0,1.0,64.0
8419,68.0,0.0,30.0,5.0,64.0
8420,71.0,30.0,30.0,1.0,64.0
8421,71.0,0.0,30.0,6.0,64.0
8422,68.0,0.0,30.0,0.0,64.0
8423,70.0,0.0,30.0,5.0,64.0
8424,73.0,0.0,30.0,6.0,64.0
8425,70.0,30.0,30.0,0.0,64.0
8426,73.0,0.0,30.0,1.0,64.0
8427,71.0,0.0,30.0,1.0,64.0
8428,68.0,0.0,30.0,0.0,64.0
8429,68.0,30.0,30.0,5.0,64.0
8430,71.0,0.0,30.0,6.0,64.0
8431,70.0,0.0,30.0,0.0,64.0
8432,73.0,0.0,30.0,6.0,64.0
8433,73.0,0.0,30.0,1.0,64.0
8434,70.0,0.0,90.0,0.0,64.0
8435,70.0,80.0,15.0,5.0,64.0
8436,73.0,240.0,90.0,6.0,64.0
8437,73.0,0.0,90.0,1.0,64.0
8438,66.0,240.0,90.0,7.0,64.0
8439,78.0,0.0,480.0,5.0,64.0
8440,66.0,0.0,90.0,2.0,64.0
8441,70.0,30.0,480.0,1.0,64.0
8442,78.0,0.0,480.0,0.0,64.0
8443,70.0,0.0,480.0,6.0,64.0
8444,54.0,0.0,90.0,2.0,64.0
8445,54.0,160.0,90.0,7.0,64.0
8446,56.0,0.0,30.0,2.0,64.0
8447,56.0,30.0,30.0,7.0,64.0
8448,77.0,0.0,240.0,0.0,64.0
8449,71.0,0.0,240.0,6.0,64.0
8450,77.0,0.0,240.0,5.0,64.0
8451,71.0,5.0,240.0,1.0,64.0
8452,58.0,30.0,30.0,2.0,64.0
8453,58.0,0.0,30.0,7.0,64.0
8454,56.0,0.0,30.0,2.0,64.0
8455,56.0,30.0,30.0,7.0,64.0
8456,58.0,0.0,30.0,7.0,64.0
8457,58.0,30.0,30.0,2.0,64.0
8458,56.0,0.0,30.0,2.0,64.0
8459,56.0,30.0,30.0,7.0,64.0
8460,58.0,0.0,30.0,2.0,64.0
8461,58.0,30.0,30.0,7.0,64.0
8462,56.0,25.0,30.0,2.0,64.0
8463,56.0,0.0,30.0,7.0,64.0
8464,58.0,0.0,30.0,7.0,64.0
8465,58.0,80.0,30.0,2.0,64.0
8466,78.0,240.0,90.0,0.0,64.0
8467,78.0,0.0,90.0,5.0,64.0
8468,58.0,0.0,90.0,7.0,64.0
8469,73.0,0.0,90.0,1.0,64.0
8470,73.0,0.0,90.0,6.0,64.0
8471,58.0,0.0,90.0,2.0,64.0
8472,61.0,0.0,480.0,2.0,64.0
8473,54.0,0.0,90.0,3.0,64.0
8474,42.0,40.0,90.0,4.0,64.0
8475,61.0,30.0,480.0,7.0,64.0
8476,73.0,0.0,240.0,6.0,64.0
8477,73.0,80.0,240.0,1.0,64.0
8478,82.0,120.0,120.0,5.0,64.0
8479,54.0,0.0,90.0,8.0,64.0
8480,42.0,0.0,90.0,10.0,64.0
8481,82.0,0.0,120.0,0.0,64.0
8482,78.0,0.0,120.0,0.0,64.0
8483,78.0,0.0,120.0,5.0,64.0
8484,42.0,0.0,90.0,3.0,64.0
8485,30.0,0.0,90.0,4.0,64.0
8486,42.0,0.0,90.0,8.0,64.0
8487,73.0,0.0,240.0,0.0,64.0
8488,70.0,0.0,240.0,6.0,64.0
8489,70.0,0.0,240.0,1.0,64.0
8490,73.0,0.0,240.0,5.0,64.0
8491,30.0,160.0,90.0,10.0,64.0
8492,32.0,0.0,30.0,10.0,64.0
8493,68.0,0.0,240.0,6.0,64.0
8494,44.0,0.0,30.0,8.0,64.0
8495,32.0,0.0,30.0,4.0,64.0
8496,65.0,5.0,240.0,2.0,64.0
8497,68.0,80.0,240.0,1.0,64.0
8498,44.0,30.0,30.0,3.0,64.0
8499,71.0,0.0,240.0,5.0,64.0
8500,71.0,0.0,240.0,0.0,64.0
8501,65.0,0.0,240.0,7.0,64.0
8502,34.0,0.0,30.0,4.0,64.0
8503,46.0,0.0,30.0,8.0,64.0
8504,46.0,0.0,30.0,3.0,64.0
8505,34.0,30.0,30.0,10.0,64.0
8506,32.0,0.0,30.0,10.0,64.0
8507,44.0,30.0,30.0,8.0,64.0
8508,32.0,0.0,30.0,4.0,64.0
8509,44.0,0.0,30.0,3.0,64.0
8510,34.0,0.0,30.0,10.0,64.0
8511,34.0,30.0,30.0,4.0,64.0
8512,46.0,0.0,30.0,3.0,64.0
8513,46.0,0.0,30.0,8.0,64.0
8514,44.0,0.0,30.0,3.0,64.0
8515,44.0,0.0,30.0,8.0,64.0
8516,32.0,0.0,30.0,4.0,64.0
8517,32.0,30.0,30.0,10.0,64.0
8518,46.0,0.0,30.0,3.0,64.0
8519,34.0,30.0,30.0,4.0,64.0
8520,34.0,0.0,30.0,10.0,64.0
8521,46.0,0.0,30.0,8.0,64.0
8522,44.0,0.0,30.0,3.0,64.0
8523,44.0,0.0,30.0,8.0,64.0
8524,32.0,0.0,30.0,4.0,64.0
8525,32.0,25.0,30.0,10.0,64.0
8526,34.0,0.0,30.0,10.0,64.0
8527,46.0,0.0,30.0,8.0,64.0
8528,34.0,0.0,30.0,4.0,64.0
8529,34.0,0.0,90.0,10.0,64.0
8530,70.0,160.0,390.0,0.0,64.0
8531,34.0,0.0,90.0,4.0,64.0
8532,66.0,0.0,240.0,7.0,64.0
8533,66.0,0.0,240.0,1.0,64.0
8534,46.0,0.0,15.0,3.0,64.0
8535,46.0,0.0,90.0,8.0,64.0
8536,70.0,0.0,390.0,5.0,64.0
8537,66.0,85.0,240.0,2.0,64.0
8538,66.0,0.0,240.0,6.0,64.0
8539,46.0,0.0,90.0,10.0,64.0
8540,58.0,80.0,90.0,3.0,64.0
8541,46.0,0.0,90.0,4.0,64.0
8542,73.0,0.0,390.0,1.0,64.0
8543,66.0,160.0,390.0,2.0,64.0
8544,66.0,0.0,390.0,7.0,64.0
8545,58.0,0.0,90.0,8.0,64.0
8546,73.0,0.0,390.0,6.0,64.0
8547,58.0,0.0,90.0,3.0,64.0
8548,58.0,80.0,90.0,8.0,64.0
8549,46.0,0.0,90.0,10.0,64.0
8550,90.0,0.0,630.0,0.0,64.0
8551,90.0,160.0,630.0,5.0,64.0
8552,46.0,0.0,90.0,4.0,64.0
8553,46.0,240.0,90.0,10.0,64.0
8554,66.0,0.0,390.0,2.0,64.0
8555,73.0,0.0,390.0,1.0,64.0
8556,66.0,0.0,390.0,7.0,64.0
8557,46.0,0.0,90.0,4.0,64.0
8558,58.0,0.0,90.0,3.0,64.0
8559,58.0,0.0,90.0,8.0,64.0
8560,73.0,0.0,390.0,6.0,64.0
8561,46.0,80.0,90.0,10.0,64.0
8562,46.0,0.0,90.0,4.0,64.0
8563,58.0,0.0,90.0,3.0,64.0
8564,58.0,0.0,90.0,8.0,64.0
8565,78.0,80.0,390.0,6.0,64.0
8566,46.0,0.0,90.0,10.0,64.0
8567,73.0,0.0,240.0,2.0,64.0
8568,88.0,0.0,240.0,0.0,64.0
8569,46.0,0.0,90.0,4.0,64.0
8570,73.0,80.0,240.0,7.0,64.0
8571,78.0,0.0,390.0,1.0,64.0
8572,88.0,0.0,240.0,5.0,64.0
8573,58.0,0.0,90.0,8.0,64.0
8574,58.0,160.0,90.0,3.0,64.0
8575,71.0,0.0,240.0,2.0,64.0
8576,87.0,0.0,240.0,0.0,64.0
8577,58.0,0.0,90.0,3.0,64.0
8578,87.0,80.0,240.0,5.0,64.0
8579,46.0,0.0,90.0,10.0,64.0
8580,46.0,80.0,90.0,4.0,64.0
8581,71.0,0.0,240.0,7.0,64.0
8582,58.0,0.0,90.0,8.0,64.0
8583,86.0,0.0,240.0,0.0,64.0
8584,70.0,80.0,240.0,7.0,64.0
8585,46.0,155.0,90.0,10.0,64.0
8586,78.0,0.0,330.0,1.0,64.0
8587,70.0,0.0,240.0,2.0,64.0
8588,46.0,0.0,90.0,4.0,64.0
8589,58.0,0.0,90.0,8.0,64.0
8590,86.0,5.0,240.0,5.0,64.0
8591,58.0,0.0,90.0,3.0,64.0
8592,78.0,0.0,330.0,6.0,64.0
8593,86.0,200.0,120.0,5.0,64.0
8594,59.0,0.0,90.0,3.0,64.0
8595,71.0,40.0,90.0,2.0,64.0
8596,59.0,0.0,90.0,8.0,64.0
8597,86.0,0.0,120.0,0.0,64.0
8598,47.0,0.0,90.0,4.0,64.0
8599,71.0,0.0,90.0,7.0,64.0
8600,47.0,0.0,90.0,10.0,64.0
8601,87.0,160.0,750.0,5.0,64.0
8602,87.0,0.0,750.0,0.0,64.0
8603,71.0,0.0,90.0,7.0,64.0
8604,78.0,0.0,90.0,1.0,64.0
8605,47.0,0.0,90.0,10.0,64.0
8606,59.0,0.0,90.0,3.0,64.0
8607,59.0,0.0,90.0,8.0,64.0
8608,78.0,0.0,90.0,6.0,64.0
8609,71.0,240.0,90.0,2.0,64.0
8610,47.0,0.0,90.0,4.0,64.0
8611,78.0,240.0,90.0,1.0,64.0
8612,47.0,0.0,90.0,4.0,64.0
8613,47.0,0.0,90.0,10.0,64.0
8614,59.0,0.0,90.0,3.0,64.0
8615,71.0,0.0,90.0,2.0,64.0
8616,71.0,0.0,90.0,7.0,64.0
8617,78.0,0.0,90.0,6.0,64.0
8618,59.0,0.0,90.0,8.0,64.0
8619,71.0,0.0,90.0,2.0,64.0
8620,78.0,0.0,90.0,6.0,64.0
8621,47.0,0.0,90.0,4.0,64.0
8622,47.0,0.0,90.0,10.0,64.0
8623,59.0,0.0,90.0,3.0,64.0
8624,71.0,0.0,90.0,7.0,64.0
8625,59.0,80.0,90.0,8.0,64.0
8626,78.0,0.0,90.0,1.0,64.0
8627,59.0,0.0,90.0,7.0,64.0
8628,59.0,0.0,90.0,2.0,64.0
8629,47.0,40.0,90.0,3.0,64.0
8630,47.0,0.0,90.0,8.0,64.0
8631,35.0,0.0,90.0,4.0,64.0
8632,35.0,0.0,90.0,10.0,64.0
8633,66.0,0.0,90.0,6.0,64.0
8634,66.0,0.0,90.0,1.0,64.0
8635,86.0,200.0,120.0,5.0,64.0
8636,86.0,0.0,120.0,0.0,64.0
8637,87.0,0.0,360.0,0.0,64.0
8638,87.0,85.0,360.0,5.0,64.0
8639,66.0,0.0,90.0,6.0,64.0
8640,66.0,0.0,90.0,1.0,64.0
8641,47.0,0.0,90.0,8.0,64.0
8642,59.0,0.0,90.0,7.0,64.0
8643,47.0,0.0,90.0,3.0,64.0
8644,35.0,155.0,90.0,10.0,64.0
8645,59.0,0.0,90.0,2.0,64.0
8646,35.0,0.0,90.0,4.0,64.0
8647,86.0,0.0,120.0,0.0,64.0
8648,35.0,0.0,90.0,10.0,64.0
8649,59.0,0.0,90.0,7.0,64.0
8650,47.0,0.0,90.0,3.0,64.0
8651,66.0,0.0,90.0,6.0,64.0
8652,47.0,40.0,90.0,8.0,64.0
8653,35.0,0.0,90.0,4.0,64.0
8654,86.0,200.0,120.0,5.0,64.0
8655,66.0,0.0,90.0,1.0,64.0
8656,59.0,0.0,90.0,2.0,64.0
8657,87.0,85.0,360.0,5.0,64.0
8658,87.0,0.0,360.0,0.0,64.0
8659,35.0,0.0,90.0,4.0,64.0
8660,35.0,0.0,90.0,10.0,64.0
8661,66.0,0.0,90.0,6.0,64.0
8662,47.0,155.0,90.0,8.0,64.0
8663,66.0,0.0,90.0,1.0,64.0
8664,59.0,0.0,90.0,2.0,64.0
8665,59.0,0.0,90.0,7.0,64.0
8666,47.0,0.0,90.0,3.0,64.0
8667,64.0,0.0,90.0,6.0,64.0
8668,67.0,80.0,1920.0,0.0,64.0
8669,64.0,0.0,90.0,1.0,64.0
8670,67.0,0.0,1920.0,5.0,64.0
8671,37.0,0.0,90.0,10.0,64.0
8672,37.0,0.0,90.0,4.0,64.0
8673,61.0,0.0,90.0,2.0,64.0
8674,49.0,0.0,90.0,3.0,64.0
8675,49.0,0.0,90.0,8.0,64.0
8676,61.0,240.0,90.0,7.0,64.0
8677,58.0,0.0,90.0,2.0,64.0
8678,49.0,0.0,90.0,8.0,64.0
8679,64.0,0.0,90.0,1.0,64.0
8680,58.0,0.0,90.0,7.0,64.0
8681,64.0,0.0,90.0,6.0,64.0
8682,49.0,0.0,90.0,3.0,64.0
8683,37.0,0.0,90.0,4.0,64.0
8684,37.0,240.0,90.0,10.0,64.0
8685,64.0,0.0,90.0,1.0,64.0
8686,58.0,0.0,90.0,2.0,64.0
8687,64.0,0.0,90.0,6.0,64.0
8688,49.0,0.0,90.0,3.0,64.0
8689,37.0,0.0,90.0,10.0,64.0
8690,37.0,240.0,90.0,4.0,64.0
8691,58.0,0.0,90.0,7.0,64.0
8692,49.0,0.0,90.0,8.0,64.0
8693,37.0,0.0,90.0,10.0,64.0
8694,58.0,0.0,90.0,2.0,64.0
8695,49.0,0.0,90.0,3.0,64.0
8696,58.0,0.0,90.0,7.0,64.0
8697,49.0,0.0,90.0,8.0,64.0
8698,37.0,0.0,90.0,4.0,64.0
8699,64.0,0.0,90.0,1.0,64.0
8700,64.0,240.0,90.0,6.0,64.0
8701,49.0,0.0,90.0,8.0,64.0
8702,49.0,0.0,90.0,3.0,64.0
8703,64.0,0.0,90.0,6.0,64.0
8704,58.0,0.0,90.0,2.0,64.0
8705,37.0,0.0,90.0,4.0,64.0
8706,64.0,0.0,90.0,1.0,64.0
8707,37.0,0.0,90.0,10.0,64.0
8708,58.0,240.0,90.0,7.0,64.0
8709,64.0,240.0,90.0,1.0,64.0
8710,37.0,0.0,90.0,10.0,64.0
8711,49.0,0.0,90.0,3.0,64.0
8712,58.0,0.0,90.0,2.0,64.0
8713,37.0,0.0,90.0,4.0,64.0
8714,49.0,0.0,90.0,8.0,64.0
8715,64.0,0.0,90.0,6.0,64.0
8716,58.0,0.0,90.0,7.0,64.0
8717,37.0,0.0,90.0,10.0,64.0
8718,49.0,0.0,90.0,8.0,64.0
8719,64.0,0.0,90.0,6.0,64.0
8720,58.0,240.0,90.0,2.0,64.0
8721,37.0,0.0,90.0,4.0,64.0
8722,49.0,0.0,90.0,3.0,64.0
8723,64.0,0.0,90.0,1.0,64.0
8724,58.0,0.0,90.0,7.0,64.0
8725,49.0,160.0,90.0,8.0,64.0
8726,37.0,0.0,90.0,4.0,64.0
8727,58.0,0.0,90.0,7.0,64.0
8728,64.0,0.0,90.0,6.0,64.0
8729,58.0,0.0,90.0,2.0,64.0
8730,49.0,0.0,90.0,3.0,64.0
8731,37.0,0.0,90.0,10.0,64.0
8732,64.0,0.0,90.0,1.0,64.0
8733,35.0,0.0,90.0,4.0,64.0
8734,35.0,0.0,90.0,10.0,64.0
8735,59.0,0.0,90.0,2.0,64.0
8736,59.0,240.0,90.0,7.0,64.0
8737,63.0,0.0,90.0,6.0,64.0
8738,47.0,0.0,90.0,3.0,64.0
8739,68.0,0.0,840.0,0.0,64.0
8740,63.0,0.0,90.0,1.0,64.0
8741,47.0,0.0,90.0,8.0,64.0
8742,68.0,200.0,840.0,5.0,64.0
8743,35.0,0.0,90.0,4.0,64.0
8744,35.0,0.0,90.0,10.0,64.0
8745,63.0,0.0,90.0,1.0,64.0
8746,47.0,0.0,90.0,8.0,64.0
8747,59.0,0.0,90.0,2.0,64.0
8748,47.0,0.0,90.0,3.0,64.0
8749,59.0,0.0,90.0,7.0,64.0
8750,63.0,240.0,90.0,6.0,64.0
8751,59.0,0.0,90.0,7.0,64.0
8752,35.0,240.0,90.0,10.0,64.0
8753,35.0,0.0,90.0,4.0,64.0
8754,63.0,0.0,90.0,1.0,64.0
8755,63.0,0.0,90.0,6.0,64.0
8756,59.0,0.0,90.0,2.0,64.0
8757,47.0,0.0,90.0,8.0,64.0
8758,47.0,0.0,90.0,3.0,64.0
8759,59.0,0.0,90.0,2.0,64.0
8760,63.0,40.0,90.0,1.0,64.0
8761,59.0,0.0,90.0,7.0,64.0
8762,47.0,0.0,90.0,3.0,64.0
8763,35.0,0.0,90.0,10.0,64.0
8764,47.0,0.0,90.0,8.0,64.0
8765,35.0,0.0,90.0,4.0,64.0
8766,63.0,0.0,90.0,6.0,64.0
8767,68.0,240.0,90.0,1.0,64.0
8768,87.0,0.0,360.0,0.0,64.0
8769,68.0,0.0,90.0,6.0,64.0
8770,47.0,0.0,90.0,4.0,64.0
8771,59.0,0.0,90.0,3.0,64.0
8772,87.0,205.0,360.0,5.0,64.0
8773,59.0,0.0,90.0,8.0,64.0
8774,63.0,0.0,90.0,7.0,64.0
8775,63.0,0.0,90.0,2.0,64.0
8776,47.0,0.0,90.0,10.0,64.0
8777,63.0,0.0,90.0,7.0,64.0
8778,47.0,0.0,90.0,10.0,64.0
8779,59.0,0.0,90.0,3.0,64.0
8780,68.0,0.0,90.0,6.0,64.0
8781,63.0,0.0,90.0,2.0,64.0
8782,59.0,0.0,90.0,8.0,64.0
8783,47.0,35.0,90.0,4.0,64.0
8784,68.0,0.0,90.0,1.0,64.0
8785,47.0,0.0,90.0,4.0,64.0
8786,47.0,0.0,90.0,10.0,64.0
8787,61.0,0.0,90.0,7.0,64.0
8788,59.0,0.0,90.0,3.0,64.0
8789,89.0,0.0,360.0,0.0,64.0
8790,68.0,0.0,90.0,6.0,64.0
8791,59.0,0.0,90.0,8.0,64.0
8792,68.0,240.0,90.0,1.0,64.0
8793,61.0,0.0,90.0,2.0,64.0
8794,89.0,365.0,360.0,5.0,64.0
8795,61.0,0.0,90.0,7.0,64.0
8796,68.0,0.0,90.0,1.0,64.0
8797,59.0,0.0,90.0,8.0,64.0
8798,68.0,0.0,90.0,6.0,64.0
8799,61.0,0.0,90.0,2.0,64.0
8800,47.0,35.0,90.0,4.0,64.0
8801,59.0,0.0,90.0,3.0,64.0
8802,47.0,0.0,90.0,10.0,64.0
8803,66.0,0.0,240.0,1.0,64.0
8804,58.0,0.0,240.0,3.0,64.0
8805,61.0,0.0,240.0,2.0,64.0
8806,66.0,0.0,240.0,6.0,64.0
8807,90.0,85.0,1080.0,0.0,64.0
8808,90.0,0.0,1080.0,5.0,64.0
8809,61.0,0.0,240.0,7.0,64.0
8810,46.0,0.0,240.0,10.0,64.0
8811,73.0,0.0,90.0,6.0,64.0
8812,73.0,0.0,90.0,1.0,64.0
8813,46.0,0.0,15.0,4.0,64.0
8814,70.0,0.0,90.0,2.0,64.0
8815,46.0,240.0,90.0,10.0,64.0
8816,70.0,0.0,90.0,7.0,64.0
8817,58.0,80.0,15.0,8.0,64.0
8818,58.0,0.0,90.0,3.0,64.0
8819,70.0,0.0,90.0,2.0,64.0
8820,46.0,0.0,90.0,10.0,64.0
8821,58.0,0.0,90.0,3.0,64.0
8822,46.0,0.0,90.0,4.0,64.0
8823,73.0,0.0,90.0,6.0,64.0
8824,73.0,240.0,90.0,1.0,64.0
8825,58.0,0.0,90.0,8.0,64.0
8826,70.0,0.0,90.0,7.0,64.0
8827,58.0,0.0,90.0,8.0,64.0
8828,46.0,0.0,90.0,10.0,64.0
8829,73.0,275.0,90.0,6.0,64.0
8830,70.0,0.0,90.0,7.0,64.0
8831,58.0,0.0,90.0,3.0,64.0
8832,46.0,0.0,90.0,4.0,64.0
8833,73.0,0.0,90.0,1.0,64.0
8834,70.0,0.0,90.0,2.0,64.0
8835,73.0,0.0,390.0,6.0,64.0
8836,73.0,0.0,390.0,1.0,64.0
8837,70.0,0.0,390.0,7.0,64.0
8838,70.0,40.0,390.0,2.0,64.0
8839,58.0,0.0,390.0,3.0,64.0
8840,46.0,0.0,390.0,10.0,64.0
8841,46.0,0.0,390.0,4.0,64.0
8842,58.0,0.0,390.0,8.0,64.0
8843,89.0,120.0,90.0,5.0,64.0
8844,89.0,0.0,90.0,0.0,64.0
8845,87.0,80.0,90.0,0.0,64.0
8846,87.0,0.0,90.0,5.0,64.0
8847,85.0,120.0,90.0,5.0,64.0
8848,85.0,0.0,90.0,0.0,64.0
8849,83.0,0.0,90.0,0.0,64.0
8850,83.0,120.0,90.0,5.0,64.0
8851,82.0,120.0,90.0,5.0,64.0
8852,82.0,0.0,90.0,0.0,64.0
8853,80.0,0.0,90.0,0.0,64.0
8854,80.0,120.0,90.0,5.0,64.0
8855,78.0,0.0,90.0,0.0,64.0
8856,78.0,280.0,90.0,5.0,64.0
8857,66.0,0.0,240.0,1.0,64.0
8858,66.0,0.0,240.0,6.0,64.0
8859,63.0,80.0,240.0,2.0,64.0
8860,59.0,0.0,240.0,3.0,64.0
8861,63.0,0.0,240.0,7.0,64.0
8862,90.0,0.0,1080.0,5.0,64.0
8863,47.0,0.0,240.0,4.0,64.0
8864,90.0,85.0,1080.0,0.0,64.0
8865,47.0,0.0,15.0,10.0,64.0
8866,75.0,240.0,90.0,6.0,64.0
8867,75.0,0.0,90.0,1.0,64.0
8868,47.0,0.0,90.0,4.0,64.0
8869,66.0,0.0,90.0,7.0,64.0
8870,59.0,0.0,15.0,8.0,64.0
8871,59.0,0.0,90.0,3.0,64.0
8872,66.0,0.0,90.0,2.0,64.0
8873,47.0,0.0,90.0,10.0,64.0
8874,47.0,0.0,90.0,4.0,64.0
8875,59.0,240.0,90.0,3.0,64.0
8876,66.0,0.0,90.0,7.0,64.0
8877,59.0,0.0,90.0,8.0,64.0
8878,66.0,0.0,90.0,2.0,64.0
8879,75.0,0.0,90.0,6.0,64.0
8880,75.0,0.0,90.0,1.0,64.0
8881,59.0,0.0,90.0,3.0,64.0
8882,66.0,0.0,90.0,2.0,64.0
8883,66.0,0.0,90.0,7.0,64.0
8884,47.0,0.0,90.0,10.0,64.0
8885,75.0,0.0,90.0,6.0,64.0
8886,75.0,0.0,90.0,1.0,64.0
8887,47.0,0.0,90.0,4.0,64.0
8888,59.0,275.0,90.0,8.0,64.0
8889,47.0,0.0,390.0,4.0,64.0
8890,66.0,0.0,390.0,7.0,64.0
8891,59.0,0.0,390.0,3.0,64.0
8892,75.0,0.0,390.0,1.0,64.0
8893,59.0,0.0,390.0,8.0,64.0
8894,66.0,0.0,390.0,2.0,64.0
8895,47.0,0.0,390.0,10.0,64.0
8896,75.0,40.0,390.0,6.0,64.0
8897,89.0,120.0,90.0,5.0,64.0
8898,89.0,0.0,90.0,0.0,64.0
8899,87.0,0.0,90.0,5.0,64.0
8900,87.0,80.0,90.0,0.0,64.0
8901,85.0,120.0,90.0,0.0,64.0
8902,85.0,0.0,90.0,5.0,64.0
8903,83.0,0.0,90.0,5.0,64.0
8904,83.0,120.0,90.0,0.0,64.0
8905,82.0,120.0,90.0,5.0,64.0
8906,82.0,0.0,90.0,0.0,64.0
8907,80.0,120.0,90.0,5.0,64.0
8908,80.0,0.0,90.0,0.0,64.0
8909,78.0,0.0,90.0,5.0,64.0
8910,78.0,280.0,90.0,0.0,64.0
8911,66.0,0.0,240.0,2.0,64.0
8912,90.0,85.0,1080.0,5.0,64.0
8913,66.0,0.0,240.0,7.0,64.0
8914,70.0,0.0,240.0,6.0,64.0
8915,90.0,0.0,1080.0,0.0,64.0
8916,70.0,0.0,240.0,1.0,64.0
8917,61.0,0.0,15.0,8.0,64.0
8918,78.0,240.0,90.0,6.0,64.0
8919,49.0,80.0,15.0,4.0,64.0
8920,49.0,0.0,15.0,10.0,64.0
8921,61.0,0.0,15.0,3.0,64.0
8922,70.0,0.0,90.0,7.0,64.0
8923,70.0,0.0,90.0,2.0,64.0
8924,78.0,0.0,90.0,1.0,64.0
8925,61.0,0.0,90.0,3.0,64.0
8926,70.0,0.0,90.0,7.0,64.0
8927,78.0,0.0,90.0,1.0,64.0
8928,49.0,0.0,90.0,4.0,64.0
8929,49.0,240.0,90.0,10.0,64.0
8930,61.0,0.0,90.0,8.0,64.0
8931,78.0,0.0,90.0,6.0,64.0
8932,70.0,0.0,90.0,2.0,64.0
8933,61.0,0.0,90.0,3.0,64.0
8934,78.0,0.0,90.0,6.0,64.0
8935,49.0,0.0,90.0,10.0,64.0
8936,61.0,275.0,90.0,8.0,64.0
8937,78.0,0.0,90.0,1.0,64.0
8938,49.0,0.0,90.0,4.0,64.0
8939,70.0,0.0,90.0,7.0,64.0
8940,70.0,0.0,90.0,2.0,64.0
8941,49.0,40.0,390.0,4.0,64.0
8942,78.0,0.0,390.0,1.0,64.0
8943,70.0,0.0,390.0,2.0,64.0
8944,49.0,0.0,390.0,10.0,64.0
8945,78.0,0.0,390.0,6.0,64.0
8946,61.0,0.0,390.0,8.0,64.0
8947,70.0,0.0,390.0,7.0,64.0
8948,61.0,0.0,390.0,3.0,64.0
8949,89.0,0.0,90.0,0.0,64.0
8950,89.0,120.0,90.0,5.0,64.0
8951,87.0,0.0,90.0,5.0,64.0
8952,87.0,80.0,90.0,0.0,64.0
8953,85.0,0.0,90.0,5.0,64.0
8954,85.0,120.0,90.0,0.0,64.0
8955,83.0,0.0,90.0,0.0,64.0
8956,83.0,120.0,90.0,5.0,64.0
8957,82.0,0.0,90.0,0.0,64.0
8958,82.0,120.0,90.0,5.0,64.0
8959,80.0,0.0,90.0,0.0,64.0
8960,80.0,120.0,90.0,5.0,64.0
8961,78.0,155.0,90.0,5.0,64.0
8962,78.0,0.0,90.0,0.0,64.0
8963,71.0,40.0,390.0,2.0,64.0
8964,51.0,0.0,390.0,10.0,64.0
8965,75.0,0.0,390.0,6.0,64.0
8966,90.0,205.0,120.0,0.0,64.0
8967,75.0,0.0,390.0,1.0,64.0
8968,51.0,0.0,390.0,4.0,64.0
8969,71.0,0.0,390.0,7.0,64.0
8970,90.0,0.0,120.0,5.0,64.0
8971,63.0,0.0,390.0,8.0,64.0
8972,63.0,0.0,390.0,3.0,64.0
8973,89.0,0.0,90.0,0.0,64.0
8974,89.0,80.0,90.0,5.0,64.0
8975,87.0,120.0,90.0,0.0,64.0
8976,87.0,0.0,90.0,5.0,64.0
8977,85.0,120.0,90.0,5.0,64.0
8978,85.0,0.0,90.0,0.0,64.0
8979,83.0,0.0,90.0,0.0,64.0
8980,83.0,120.0,90.0,5.0,64.0
8981,82.0,0.0,90.0,0.0,64.0
8982,82.0,120.0,90.0,5.0,64.0
8983,80.0,120.0,90.0,5.0,64.0
8984,80.0,0.0,90.0,0.0,64.0
8985,78.0,120.0,90.0,5.0,64.0
8986,78.0,0.0,90.0,0.0,64.0
8987,77.0,0.0,90.0,5.0,64.0
8988,77.0,120.0,90.0,0.0,64.0
8989,75.0,0.0,90.0,5.0,64.0
8990,75.0,120.0,90.0,0.0,64.0
8991,73.0,0.0,90.0,5.0,64.0
8992,73.0,120.0,90.0,0.0,64.0
8993,71.0,0.0,90.0,0.0,64.0
8994,71.0,120.0,90.0,5.0,64.0
8995,70.0,0.0,90.0,0.0,64.0
8996,70.0,120.0,90.0,5.0,64.0
8997,68.0,120.0,90.0,5.0,64.0
8998,68.0,0.0,90.0,0.0,64.0
8999,66.0,0.0,90.0,5.0,64.0
9000,66.0,680.0,90.0,0.0,64.0
9001,64.0,0.0,960.0,0.0,64.0
9002,64.0,0.0,960.0,5.0,64.0
9003,66.0,320.0,390.0,1.0,64.0
9004,66.0,0.0,390.0,6.0,64.0
9005,37.0,0.0,480.0,4.0,64.0
9006,58.0,0.0,480.0,7.0,64.0
9007,58.0,160.0,480.0,2.0,64.0
9008,49.0,0.0,480.0,8.0,64.0
9009,49.0,0.0,480.0,3.0,64.0
9010,37.0,0.0,480.0,10.0,64.0
9011,66.0,0.0,390.0,1.0,64.0
9012,66.0,320.0,390.0,6.0,64.0
9013,59.0,0.0,480.0,7.0,64.0
9014,63.0,0.0,480.0,0.0,64.0
9015,35.0,0.0,480.0,10.0,64.0
9016,35.0,0.0,480.0,4.0,64.0
9017,47.0,0.0,480.0,3.0,64.0
9018,47.0,0.0,480.0,8.0,64.0
9019,59.0,0.0,480.0,2.0,64.0
9020,63.0,160.0,480.0,5.0,64.0
9021,66.0,320.0,390.0,1.0,64.0
9022,66.0,0.0,390.0,6.0,64.0
9023,46.0,0.0,480.0,3.0,64.0
9024,58.0,0.0,480.0,7.0,64.0
9025,46.0,0.0,480.0,8.0,64.0
9026,58.0,0.0,480.0,2.0,64.0
9027,62.0,0.0,480.0,5.0,64.0
9028,34.0,0.0,480.0,10.0,64.0
9029,34.0,235.0,480.0,4.0,64.0
9030,62.0,0.0,480.0,0.0,64.0
9031,66.0,0.0,480.0,1.0,64.0
9032,66.0,0.0,480.0,6.0,64.0
9033,47.0,0.0,240.0,3.0,64.0
9034,63.0,0.0,360.0,5.0,64.0
9035,47.0,120.0,240.0,8.0,64.0
9036,35.0,0.0,240.0,4.0,64.0
9037,59.0,0.0,240.0,2.0,64.0
9038,35.0,0.0,240.0,10.0,64.0
9039,59.0,0.0,240.0,7.0,64.0
9040,63.0,120.0,360.0,0.0,64.0
9041,71.0,0.0,390.0,7.0,64.0
9042,75.0,0.0,240.0,1.0,64.0
9043,71.0,75.0,390.0,2.0,64.0
9044,35.0,165.0,240.0,4.0,64.0
9045,47.0,0.0,240.0,8.0,64.0
9046,35.0,0.0,240.0,10.0,64.0
9047,47.0,0.0,240.0,3.0,64.0
9048,75.0,0.0,240.0,6.0,64.0
9049,90.0,115.0,840.0,5.0,64.0
9050,35.0,0.0,240.0,10.0,64.0
9051,47.0,0.0,240.0,3.0,64.0
9052,75.0,240.0,240.0,1.0,64.0
9053,75.0,0.0,240.0,6.0,64.0
9054,47.0,0.0,240.0,8.0,64.0
9055,90.0,0.0,840.0,0.0,64.0
9056,35.0,0.0,240.0,4.0,64.0
9057,71.0,0.0,390.0,2.0,64.0
9058,35.0,0.0,240.0,10.0,64.0
9059,71.0,75.0,390.0,7.0,64.0
9060,47.0,0.0,240.0,3.0,64.0
9061,75.0,0.0,240.0,1.0,64.0
9062,75.0,0.0,240.0,6.0,64.0
9063,47.0,165.0,240.0,8.0,64.0
9064,35.0,0.0,240.0,4.0,64.0
9065,47.0,0.0,240.0,4.0,64.0
9066,47.0,0.0,240.0,10.0,64.0
9067,59.0,5.0,240.0,3.0,64.0
9068,59.0,0.0,240.0,8.0,64.0
9069,75.0,120.0,240.0,6.0,64.0
9070,75.0,0.0,240.0,1.0,64.0
9071,47.0,125.0,240.0,10.0,64.0
9072,78.0,0.0,240.0,1.0,64.0
9073,47.0,0.0,240.0,4.0,64.0
9074,71.0,75.0,390.0,2.0,64.0
9075,71.0,0.0,390.0,7.0,64.0
9076,78.0,0.0,240.0,6.0,64.0
9077,59.0,0.0,240.0,8.0,64.0
9078,59.0,0.0,240.0,3.0,64.0
9079,85.0,0.0,120.0,1.0,64.0
9080,89.0,0.0,120.0,5.0,64.0
9081,85.0,0.0,120.0,6.0,64.0
9082,47.0,0.0,240.0,4.0,64.0
9083,47.0,0.0,240.0,10.0,64.0
9084,59.0,0.0,240.0,3.0,64.0
9085,89.0,40.0,120.0,0.0,64.0
9086,59.0,0.0,240.0,8.0,64.0
9087,83.0,0.0,120.0,6.0,64.0
9088,87.0,0.0,120.0,5.0,64.0
9089,87.0,0.0,120.0,0.0,64.0
9090,83.0,85.0,120.0,1.0,64.0
9091,47.0,85.0,240.0,10.0,64.0
9092,47.0,0.0,240.0,4.0,64.0
9093,82.0,0.0,90.0,1.0,64.0
9094,85.0,0.0,90.0,0.0,64.0
9095,82.0,120.0,90.0,6.0,64.0
9096,59.0,0.0,240.0,8.0,64.0
9097,85.0,0.0,90.0,5.0,64.0
9098,71.0,0.0,240.0,2.0,64.0
9099,59.0,0.0,240.0,3.0,64.0
9100,71.0,0.0,240.0,7.0,64.0
9101,80.0,0.0,90.0,1.0,64.0
9102,83.0,35.0,90.0,5.0,64.0
9103,83.0,0.0,90.0,0.0,64.0
9104,80.0,0.0,90.0,6.0,64.0
9105,73.0,0.0,240.0,2.0,64.0
9106,82.0,0.0,90.0,0.0,64.0
9107,78.0,0.0,390.0,6.0,64.0
9108,49.0,0.0,240.0,10.0,64.0
9109,78.0,75.0,390.0,1.0,64.0
9110,73.0,0.0,240.0,7.0,64.0
9111,82.0,155.0,90.0,5.0,64.0
9112,61.0,0.0,240.0,3.0,64.0
9113,49.0,0.0,240.0,4.0,64.0
9114,61.0,85.0,240.0,8.0,64.0
9115,85.0,80.0,90.0,5.0,64.0
9116,73.0,0.0,240.0,7.0,64.0
9117,49.0,0.0,240.0,4.0,64.0
9118,61.0,0.0,240.0,3.0,64.0
9119,73.0,125.0,240.0,2.0,64.0
9120,61.0,0.0,240.0,8.0,64.0
9121,49.0,0.0,240.0,10.0,64.0
9122,85.0,0.0,90.0,0.0,64.0
9123,49.0,0.0,240.0,4.0,64.0
9124,73.0,0.0,240.0,7.0,64.0
9125,61.0,5.0,240.0,3.0,64.0
9126,78.0,30.0,840.0,1.0,64.0
9127,83.0,0.0,120.0,5.0,64.0
9128,73.0,0.0,240.0,2.0,64.0
9129,49.0,0.0,240.0,10.0,64.0
9130,83.0,115.0,120.0,0.0,64.0
9131,78.0,0.0,840.0,6.0,64.0
9132,61.0,0.0,240.0,8.0,64.0
9133,82.0,0.0,120.0,0.0,64.0
9134,82.0,80.0,120.0,5.0,64.0
9135,49.0,35.0,240.0,10.0,64.0
9136,61.0,0.0,240.0,3.0,64.0
9137,61.0,0.0,240.0,8.0,64.0
9138,73.0,0.0,240.0,7.0,64.0
9139,80.0,120.0,90.0,0.0,64.0
9140,49.0,0.0,240.0,4.0,64.0
9141,80.0,0.0,90.0,5.0,64.0
9142,73.0,0.0,240.0,2.0,64.0
9143,78.0,0.0,90.0,0.0,64.0
9144,78.0,35.0,90.0,5.0,64.0
9145,49.0,5.0,240.0,3.0,64.0
9146,49.0,0.0,240.0,8.0,64.0
9147,61.0,0.0,240.0,2.0,64.0
9148,80.0,30.0,30.0,5.0,64.0
9149,37.0,0.0,240.0,4.0,64.0
9150,37.0,0.0,240.0,10.0,64.0
9151,80.0,0.0,30.0,0.0,64.0
9152,61.0,0.0,240.0,7.0,64.0
9153,82.0,0.0,30.0,0.0,64.0
9154,82.0,30.0,30.0,5.0,64.0
9155,80.0,30.0,30.0,0.0,64.0
9156,80.0,0.0,30.0,5.0,64.0
9157,82.0,30.0,30.0,5.0,64.0
9158,82.0,0.0,30.0,0.0,64.0
9159,80.0,30.0,30.0,5.0,64.0
9160,80.0,0.0,30.0,0.0,64.0
9161,82.0,30.0,30.0,0.0,64.0
9162,82.0,0.0,30.0,5.0,64.0
9163,80.0,25.0,30.0,0.0,64.0
9164,80.0,0.0,30.0,5.0,64.0
9165,82.0,0.0,30.0,0.0,64.0
9166,82.0,30.0,30.0,5.0,64.0
9167,37.0,0.0,240.0,4.0,64.0
9168,61.0,0.0,240.0,2.0,64.0
9169,61.0,0.0,240.0,7.0,64.0
9170,49.0,0.0,240.0,8.0,64.0
9171,37.0,5.0,240.0,10.0,64.0
9172,49.0,0.0,240.0,3.0,64.0
9173,80.0,30.0,30.0,5.0,64.0
9174,80.0,0.0,30.0,0.0,64.0
9175,82.0,0.0,30.0,5.0,64.0
9176,82.0,30.0,30.0,0.0,64.0
9177,80.0,30.0,30.0,5.0,64.0
9178,80.0,0.0,30.0,0.0,64.0
9179,82.0,0.0,30.0,0.0,64.0
9180,82.0,0.0,30.0,5.0,64.0
9181,80.0,0.0,30.0,0.0,64.0
9182,80.0,30.0,30.0,5.0,64.0
9183,82.0,30.0,30.0,0.0,64.0
9184,82.0,0.0,30.0,5.0,64.0
9185,80.0,25.0,30.0,5.0,64.0
9186,80.0,0.0,30.0,0.0,64.0
9187,82.0,30.0,30.0,0.0,64.0
9188,82.0,0.0,30.0,5.0,64.0
9189,49.0,0.0,240.0,8.0,64.0
9190,59.0,0.0,240.0,2.0,64.0
9191,80.0,0.0,30.0,5.0,64.0
9192,49.0,5.0,240.0,3.0,64.0
9193,80.0,0.0,30.0,0.0,64.0
9194,37.0,0.0,240.0,10.0,64.0
9195,77.0,0.0,30.0,1.0,64.0
9196,59.0,0.0,240.0,7.0,64.0
9197,37.0,0.0,240.0,4.0,64.0
9198,77.0,30.0,30.0,6.0,64.0
9199,78.0,30.0,30.0,1.0,64.0
9200,78.0,0.0,30.0,6.0,64.0
9201,82.0,0.0,30.0,0.0,64.0
9202,82.0,0.0,30.0,5.0,64.0
9203,77.0,0.0,30.0,1.0,64.0
9204,80.0,0.0,30.0,0.0,64.0
9205,77.0,0.0,30.0,6.0,64.0
9206,80.0,30.0,30.0,5.0,64.0
9207,78.0,0.0,30.0,1.0,64.0
9208,82.0,0.0,30.0,5.0,64.0
9209,78.0,30.0,30.0,6.0,64.0
9210,82.0,0.0,30.0,0.0,64.0
9211,80.0,30.0,30.0,5.0,64.0
9212,77.0,0.0,30.0,1.0,64.0
9213,77.0,0.0,30.0,6.0,64.0
9214,80.0,0.0,30.0,0.0,64.0
9215,78.0,30.0,30.0,1.0,64.0
9216,78.0,0.0,30.0,6.0,64.0
9217,82.0,0.0,30.0,5.0,64.0
9218,82.0,0.0,30.0,0.0,64.0
9219,77.0,25.0,30.0,6.0,64.0
9220,80.0,0.0,30.0,5.0,64.0
9221,80.0,0.0,30.0,0.0,64.0
9222,77.0,0.0,30.0,1.0,64.0
9223,82.0,0.0,30.0,0.0,64.0
9224,78.0,0.0,30.0,1.0,64.0
9225,78.0,0.0,30.0,6.0,64.0
9226,82.0,30.0,30.0,5.0,64.0
9227,77.0,0.0,30.0,1.0,64.0
9228,37.0,5.0,240.0,10.0,64.0
9229,80.0,0.0,30.0,0.0,64.0
9230,49.0,0.0,240.0,3.0,64.0
9231,59.0,0.0,240.0,2.0,64.0
9232,37.0,0.0,240.0,4.0,64.0
9233,49.0,0.0,240.0,8.0,64.0
9234,59.0,0.0,240.0,7.0,64.0
9235,77.0,0.0,30.0,6.0,64.0
9236,80.0,30.0,30.0,5.0,64.0
9237,82.0,0.0,30.0,5.0,64.0
9238,82.0,0.0,30.0,0.0,64.0
9239,78.0,0.0,30.0,1.0,64.0
9240,78.0,30.0,30.0,6.0,64.0
9241,77.0,30.0,30.0,1.0,64.0
9242,80.0,0.0,30.0,0.0,64.0
9243,77.0,0.0,30.0,6.0,64.0
9244,80.0,0.0,30.0,5.0,64.0
9245,82.0,30.0,30.0,5.0,64.0
9246,82.0,0.0,30.0,0.0,64.0
9247,78.0,0.0,30.0,6.0,64.0
9248,78.0,0.0,30.0,1.0,64.0
9249,77.0,0.0,30.0,1.0,64.0
9250,80.0,0.0,30.0,5.0,64.0
9251,80.0,30.0,30.0,0.0,64.0
9252,77.0,0.0,30.0,6.0,64.0
9253,78.0,0.0,30.0,1.0,64.0
9254,78.0,0.0,30.0,6.0,64.0
9255,82.0,30.0,30.0,5.0,64.0
9256,82.0,0.0,30.0,0.0,64.0
9257,77.0,0.0,30.0,1.0,64.0
9258,80.0,0.0,30.0,0.0,64.0
9259,77.0,25.0,30.0,6.0,64.0
9260,80.0,0.0,30.0,5.0,64.0
9261,82.0,0.0,30.0,0.0,64.0
9262,82.0,0.0,30.0,5.0,64.0
9263,78.0,0.0,30.0,6.0,64.0
9264,78.0,75.0,390.0,0.0,64.0
9265,78.0,0.0,390.0,5.0,64.0
9266,42.0,0.0,240.0,10.0,64.0
9267,78.0,0.0,90.0,6.0,64.0
9268,42.0,0.0,240.0,4.0,64.0
9269,78.0,80.0,15.0,1.0,64.0
9270,58.0,155.0,90.0,2.0,64.0
9271,54.0,0.0,240.0,3.0,64.0
9272,54.0,125.0,240.0,8.0,64.0
9273,58.0,0.0,90.0,7.0,64.0
9274,73.0,0.0,120.0,6.0,64.0
9275,42.0,5.0,240.0,4.0,64.0
9276,42.0,0.0,240.0,10.0,64.0
9277,70.0,0.0,240.0,7.0,64.0
9278,73.0,40.0,120.0,1.0,64.0
9279,54.0,0.0,240.0,3.0,64.0
9280,54.0,0.0,240.0,8.0,64.0
9281,70.0,0.0,240.0,2.0,64.0
9282,76.0,120.0,120.0,6.0,64.0
9283,76.0,0.0,120.0,1.0,64.0
9284,42.0,0.0,240.0,10.0,64.0
9285,71.0,0.0,240.0,7.0,64.0
9286,75.0,0.0,120.0,1.0,64.0
9287,42.0,5.0,240.0,4.0,64.0
9288,54.0,0.0,240.0,8.0,64.0
9289,54.0,0.0,240.0,3.0,64.0
9290,71.0,0.0,240.0,2.0,64.0
9291,75.0,115.0,120.0,6.0,64.0
9292,78.0,0.0,120.0,6.0,64.0
9293,78.0,120.0,120.0,1.0,64.0
9294,54.0,0.0,240.0,8.0,64.0
9295,68.0,0.0,240.0,7.0,64.0
9296,54.0,0.0,240.0,3.0,64.0
9297,77.0,115.0,120.0,1.0,64.0
9298,77.0,0.0,120.0,6.0,64.0
9299,42.0,5.0,240.0,10.0,64.0
9300,42.0,0.0,240.0,4.0,64.0
9301,68.0,80.0,240.0,2.0,64.0
9302,80.0,0.0,120.0,6.0,64.0
9303,80.0,0.0,120.0,1.0,64.0
9304,54.0,0.0,240.0,8.0,64.0
9305,42.0,0.0,240.0,10.0,64.0
9306,78.0,0.0,390.0,1.0,64.0
9307,42.0,0.0,240.0,4.0,64.0
9308,78.0,75.0,390.0,6.0,64.0
9309,70.0,155.0,90.0,2.0,64.0
9310,54.0,125.0,240.0,3.0,64.0
9311,70.0,0.0,90.0,7.0,64.0
9312,54.0,0.0,240.0,8.0,64.0
9313,66.0,120.0,240.0,2.0,64.0
9314,42.0,5.0,240.0,10.0,64.0
9315,82.0,40.0,120.0,0.0,64.0
9316,54.0,0.0,240.0,3.0,64.0
9317,82.0,0.0,120.0,5.0,64.0
9318,42.0,0.0,240.0,4.0,64.0
9319,66.0,0.0,240.0,7.0,64.0
9320,85.0,0.0,120.0,0.0,64.0
9321,85.0,0.0,120.0,5.0,64.0
9322,42.0,0.0,240.0,4.0,64.0
9323,54.0,0.0,240.0,3.0,64.0
9324,63.0,120.0,240.0,7.0,64.0
9325,54.0,5.0,240.0,8.0,64.0
9326,42.0,0.0,240.0,10.0,64.0
9327,63.0,0.0,240.0,2.0,64.0
9328,83.0,0.0,120.0,0.0,64.0
9329,83.0,115.0,120.0,5.0,64.0
9330,80.0,0.0,120.0,5.0,64.0
9331,80.0,0.0,120.0,0.0,64.0
9332,59.0,0.0,240.0,2.0,64.0
9333,54.0,0.0,240.0,3.0,64.0
9334,42.0,0.0,240.0,10.0,64.0
9335,78.0,115.0,120.0,5.0,64.0
9336,78.0,0.0,120.0,0.0,64.0
9337,54.0,5.0,240.0,8.0,64.0
9338,59.0,0.0,240.0,7.0,64.0
9339,42.0,0.0,240.0,4.0,64.0
9340,77.0,80.0,120.0,5.0,64.0
9341,77.0,0.0,120.0,0.0,64.0
9342,78.0,75.0,390.0,0.0,64.0
9343,42.0,125.0,240.0,4.0,64.0
9344,78.0,0.0,90.0,1.0,64.0
9345,42.0,0.0,240.0,10.0,64.0
9346,54.0,0.0,240.0,8.0,64.0
9347,54.0,0.0,240.0,3.0,64.0
9348,58.0,0.0,90.0,7.0,64.0
9349,78.0,0.0,390.0,5.0,64.0
9350,58.0,0.0,90.0,2.0,64.0
9351,78.0,155.0,90.0,6.0,64.0
9352,70.0,0.0,240.0,7.0,64.0
9353,42.0,0.0,240.0,10.0,64.0
9354,73.0,40.0,120.0,1.0,64.0
9355,73.0,0.0,120.0,6.0,64.0
9356,70.0,120.0,240.0,2.0,64.0
9357,54.0,0.0,240.0,3.0,64.0
9358,42.0,0.0,240.0,4.0,64.0
9359,54.0,5.0,240.0,8.0,64.0
9360,76.0,0.0,120.0,6.0,64.0
9361,76.0,0.0,120.0,1.0,64.0
9362,71.0,0.0,240.0,7.0,64.0
9363,42.0,0.0,240.0,10.0,64.0
9364,54.0,0.0,240.0,8.0,64.0
9365,75.0,0.0,120.0,6.0,64.0
9366,75.0,115.0,120.0,1.0,64.0
9367,42.0,5.0,240.0,4.0,64.0
9368,54.0,0.0,240.0,3.0,64.0
9369,71.0,120.0,240.0,2.0,64.0
9370,78.0,0.0,120.0,1.0,64.0
9371,78.0,0.0,120.0,6.0,64.0
9372,68.0,0.0,240.0,2.0,64.0
9373,54.0,5.0,240.0,8.0,64.0
9374,77.0,115.0,120.0,6.0,64.0
9375,42.0,0.0,240.0,4.0,64.0
9376,54.0,0.0,240.0,3.0,64.0
9377,68.0,0.0,240.0,7.0,64.0
9378,42.0,0.0,240.0,10.0,64.0
9379,77.0,0.0,120.0,1.0,64.0
9380,80.0,0.0,120.0,6.0,64.0
9381,80.0,80.0,120.0,1.0,64.0
9382,42.0,0.0,240.0,10.0,64.0
9383,42.0,0.0,240.0,4.0,64.0
9384,78.0,0.0,390.0,1.0,64.0
9385,54.0,0.0,240.0,8.0,64.0
9386,54.0,125.0,240.0,3.0,64.0
9387,78.0,75.0,390.0,6.0,64.0
9388,70.0,0.0,90.0,2.0,64.0
9389,70.0,155.0,90.0,7.0,64.0
9390,42.0,5.0,240.0,4.0,64.0
9391,82.0,0.0,120.0,5.0,64.0
9392,54.0,0.0,240.0,3.0,64.0
9393,66.0,0.0,240.0,2.0,64.0
9394,66.0,0.0,240.0,7.0,64.0
9395,42.0,0.0,240.0,10.0,64.0
9396,54.0,0.0,240.0,8.0,64.0
9397,82.0,40.0,120.0,0.0,64.0
9398,85.0,0.0,120.0,5.0,64.0
9399,85.0,120.0,120.0,0.0,64.0
9400,42.0,5.0,240.0,10.0,64.0
9401,63.0,0.0,240.0,2.0,64.0
9402,42.0,0.0,240.0,4.0,64.0
9403,83.0,115.0,120.0,0.0,64.0
9404,54.0,0.0,240.0,3.0,64.0
9405,54.0,0.0,240.0,8.0,64.0
9406,83.0,0.0,120.0,5.0,64.0
9407,63.0,120.0,240.0,7.0,64.0
9408,80.0,0.0,120.0,5.0,64.0
9409,80.0,0.0,120.0,0.0,64.0
9410,78.0,0.0,120.0,5.0,64.0
9411,42.0,0.0,240.0,10.0,64.0
9412,42.0,5.0,240.0,4.0,64.0
9413,54.0,0.0,240.0,3.0,64.0
9414,78.0,115.0,120.0,0.0,64.0
9415,54.0,0.0,240.0,8.0,64.0
9416,59.0,0.0,240.0,2.0,64.0
9417,59.0,80.0,240.0,7.0,64.0
9418,77.0,0.0,120.0,5.0,64.0
9419,77.0,0.0,120.0,0.0,64.0
9420,78.0,0.0,90.0,0.0,64.0
9421,42.0,0.0,240.0,4.0,64.0
9422,54.0,0.0,240.0,3.0,64.0
9423,42.0,125.0,240.0,10.0,64.0
9424,58.0,0.0,90.0,2.0,64.0
9425,78.0,0.0,90.0,1.0,64.0
9426,78.0,0.0,90.0,5.0,64.0
9427,54.0,0.0,240.0,8.0,64.0
9428,58.0,155.0,90.0,7.0,64.0
9429,78.0,0.0,90.0,6.0,64.0
9430,66.0,0.0,120.0,7.0,64.0
9431,78.0,0.0,120.0,1.0,64.0
9432,66.0,115.0,120.0,2.0,64.0
9433,78.0,0.0,120.0,6.0,64.0
9434,54.0,0.0,240.0,3.0,64.0
9435,54.0,0.0,240.0,8.0,64.0
9436,82.0,0.0,120.0,0.0,64.0
9437,42.0,0.0,240.0,10.0,64.0
9438,42.0,5.0,240.0,4.0,64.0
9439,82.0,0.0,120.0,5.0,64.0
9440,65.0,0.0,120.0,7.0,64.0
9441,80.0,0.0,120.0,6.0,64.0
9442,80.0,0.0,120.0,1.0,64.0
9443,65.0,0.0,120.0,2.0,64.0
9444,83.0,120.0,120.0,0.0,64.0
9445,83.0,0.0,120.0,5.0,64.0
9446,66.0,0.0,120.0,2.0,64.0
9447,54.0,0.0,240.0,8.0,64.0
9448,42.0,0.0,240.0,4.0,64.0
9449,78.0,0.0,120.0,6.0,64.0
9450,66.0,115.0,120.0,7.0,64.0
9451,82.0,0.0,120.0,5.0,64.0
9452,54.0,0.0,240.0,3.0,64.0
9453,78.0,0.0,120.0,1.0,64.0
9454,82.0,0.0,120.0,0.0,64.0
9455,42.0,5.0,240.0,10.0,64.0
9456,65.0,0.0,120.0,7.0,64.0
9457,80.0,120.0,120.0,1.0,64.0
9458,83.0,0.0,120.0,0.0,64.0
9459,83.0,0.0,120.0,5.0,64.0
9460,80.0,0.0,120.0,6.0,64.0
9461,65.0,0.0,120.0,2.0,64.0
9462,82.0,0.0,120.0,0.0,64.0
9463,66.0,0.0,120.0,7.0,64.0
9464,78.0,0.0,120.0,1.0,64.0
9465,54.0,0.0,240.0,8.0,64.0
9466,82.0,0.0,120.0,5.0,64.0
9467,42.0,0.0,240.0,10.0,64.0
9468,54.0,0.0,240.0,3.0,64.0
9469,42.0,5.0,240.0,4.0,64.0
9470,66.0,0.0,120.0,2.0,64.0
9471,78.0,115.0,120.0,6.0,64.0
9472,83.0,0.0,120.0,0.0,64.0
9473,65.0,0.0,120.0,7.0,64.0
9474,80.0,0.0,120.0,6.0,64.0
9475,65.0,0.0,120.0,2.0,64.0
9476,80.0,400.0,120.0,1.0,64.0
9477,83.0,0.0,120.0,5.0,64.0
9478,30.0,0.0,390.0,4.0,64.0
9479,42.0,0.0,390.0,8.0,64.0
9480,82.0,0.0,390.0,5.0,64.0
9481,42.0,0.0,390.0,3.0,64.0
9482,78.0,0.0,390.0,1.0,64.0
9483,30.0,0.0,390.0,10.0,64.0
9484,82.0,0.0,390.0,0.0,64.0
9485,66.0,0.0,390.0,7.0,64.0
9486,66.0,0.0,390.0,2.0,64.0
9487,78.0,0.0,390.0,6.0,64.0
