,note,step,duration,channel,velocity
0,57.0,168.0,150.0,6.0,0.0
1,65.0,72.0,300.0,5.0,0.0
2,41.0,240.0,390.0,10.0,0.0
3,53.0,0.0,390.0,8.0,0.0
4,60.0,0.0,150.0,6.0,0.0
5,65.0,144.0,480.0,5.0,0.0
6,57.0,240.0,150.0,6.0,0.0
7,41.0,96.0,390.0,10.0,0.0
8,53.0,0.0,390.0,8.0,0.0
9,60.0,0.0,150.0,6.0,0.0
10,57.0,240.0,150.0,6.0,0.0
11,41.0,96.0,390.0,10.0,0.0
12,69.0,144.0,480.0,5.0,0.0
13,53.0,0.0,390.0,8.0,0.0
14,60.0,0.0,150.0,6.0,0.0
15,57.0,240.0,150.0,6.0,0.0
16,72.0,168.0,420.0,5.0,0.0
17,53.0,0.0,390.0,8.0,0.0
18,41.0,48.0,390.0,10.0,0.0
19,60.0,0.0,150.0,6.0,0.0
20,41.0,0.0,390.0,10.0,0.0
21,58.0,240.0,150.0,6.0,0.0
22,64.0,72.0,3750.0,7.0,0.0
23,53.0,0.0,390.0,8.0,0.0
24,72.0,24.0,120.0,5.0,0.0
25,55.0,0.0,3750.0,7.0,0.0
26,70.0,192.0,300.0,5.0,0.0
27,60.0,24.0,150.0,6.0,0.0
28,58.0,240.0,150.0,6.0,0.0
29,53.0,0.0,390.0,8.0,0.0
30,69.0,24.0,120.0,5.0,0.0
31,41.0,24.0,390.0,10.0,0.0
32,67.0,192.0,300.0,5.0,0.0
33,60.0,0.0,150.0,6.0,0.0
34,58.0,240.0,150.0,6.0,0.0
35,53.0,24.0,390.0,8.0,0.0
36,41.0,0.0,390.0,10.0,0.0
37,65.0,24.0,120.0,5.0,0.0
38,64.0,192.0,300.0,5.0,0.0
39,60.0,0.0,150.0,6.0,0.0
40,62.0,24.0,120.0,5.0,0.0
41,53.0,0.0,390.0,8.0,0.0
42,41.0,0.0,390.0,10.0,0.0
43,58.0,240.0,150.0,6.0,0.0
44,60.0,216.0,300.0,5.0,0.0
45,60.0,24.0,150.0,6.0,0.0
46,41.0,0.0,390.0,10.0,0.0
47,67.0,72.0,300.0,5.0,0.0
48,58.0,168.0,150.0,6.0,0.0
49,53.0,240.0,390.0,8.0,0.0
50,60.0,0.0,150.0,6.0,0.0
51,67.0,144.0,480.0,5.0,0.0
52,53.0,96.0,390.0,8.0,0.0
53,41.0,0.0,390.0,10.0,0.0
54,58.0,240.0,150.0,6.0,0.0
55,60.0,0.0,150.0,6.0,0.0
56,58.0,240.0,150.0,6.0,0.0
57,53.0,0.0,390.0,8.0,0.0
58,41.0,96.0,390.0,10.0,0.0
59,70.0,144.0,480.0,5.0,0.0
60,60.0,0.0,150.0,6.0,0.0
61,74.0,168.0,450.0,5.0,0.0
62,58.0,240.0,150.0,6.0,0.0
63,53.0,0.0,390.0,8.0,0.0
64,41.0,0.0,390.0,10.0,0.0
65,60.0,0.0,150.0,6.0,0.0
66,57.0,240.0,150.0,6.0,0.0
67,53.0,0.0,390.0,8.0,0.0
68,65.0,192.0,1140.0,7.0,0.0
69,57.0,0.0,1140.0,7.0,0.0
70,41.0,0.0,390.0,10.0,0.0
71,72.0,144.0,720.0,5.0,0.0
72,60.0,240.0,150.0,6.0,0.0
73,53.0,0.0,390.0,8.0,0.0
74,41.0,84.0,390.0,10.0,0.0
75,57.0,96.0,150.0,6.0,0.0
76,60.0,0.0,150.0,6.0,0.0
77,69.0,156.0,240.0,5.0,0.0
78,72.0,0.0,390.0,5.0,0.0
79,41.0,0.0,390.0,10.0,0.0
80,57.0,48.0,150.0,6.0,0.0
81,53.0,240.0,390.0,8.0,0.0
82,60.0,0.0,150.0,6.0,0.0
83,57.0,240.0,150.0,6.0,0.0
84,41.0,0.0,390.0,10.0,0.0
85,53.0,0.0,390.0,8.0,0.0
86,60.0,480.0,150.0,6.0,0.0
87,53.0,0.0,390.0,6.0,0.0
88,65.0,1056.0,390.0,5.0,0.0
89,65.0,480.0,960.0,6.0,0.0
90,77.0,0.0,960.0,5.0,0.0
91,45.0,480.0,960.0,10.0,0.0
92,57.0,0.0,960.0,8.0,0.0
93,64.0,0.0,960.0,6.0,0.0
94,76.0,0.0,960.0,5.0,0.0
95,60.0,480.0,960.0,7.0,0.0
96,58.0,480.0,960.0,8.0,0.0
97,46.0,0.0,960.0,10.0,0.0
98,74.0,0.0,960.0,5.0,0.0
99,58.0,0.0,960.0,7.0,0.0
100,62.0,480.0,960.0,6.0,0.0
101,41.0,480.0,960.0,10.0,0.0
102,53.0,0.0,960.0,8.0,0.0
103,57.0,480.0,960.0,7.0,0.0
104,72.0,0.0,960.0,5.0,0.0
105,60.0,0.0,960.0,6.0,0.0
106,40.0,0.0,960.0,10.0,0.0
107,52.0,480.0,960.0,8.0,0.0
108,70.0,0.0,960.0,5.0,0.0
109,55.0,480.0,960.0,7.0,0.0
110,58.0,0.0,960.0,6.0,0.0
111,41.0,240.0,960.0,10.0,0.0
112,53.0,0.0,960.0,8.0,0.0
113,69.0,0.0,720.0,5.0,0.0
114,57.0,0.0,720.0,6.0,0.0
115,53.0,240.0,720.0,7.0,0.0
116,48.0,0.0,780.0,8.0,0.0
117,36.0,144.0,780.0,10.0,0.0
118,67.0,0.0,240.0,5.0,0.0
119,55.0,240.0,240.0,6.0,0.0
120,52.0,0.0,240.0,7.0,0.0
121,54.0,0.0,240.0,6.0,0.0
122,50.0,0.0,240.0,7.0,0.0
123,66.0,48.0,240.0,5.0,0.0
124,67.0,48.0,180.0,5.0,0.0
125,55.0,0.0,180.0,6.0,0.0
126,52.0,240.0,240.0,7.0,0.0
127,52.0,96.0,390.0,7.0,0.0
128,65.0,144.0,240.0,5.0,0.0
129,55.0,0.0,390.0,6.0,0.0
130,64.0,240.0,240.0,5.0,0.0
131,62.0,240.0,240.0,5.0,0.0
132,60.0,144.0,240.0,5.0,0.0
133,57.0,168.0,150.0,6.0,0.0
134,41.0,0.0,390.0,10.0,0.0
135,65.0,72.0,300.0,5.0,0.0
136,53.0,240.0,390.0,8.0,0.0
137,60.0,0.0,150.0,6.0,0.0
138,65.0,144.0,480.0,5.0,0.0
139,57.0,240.0,150.0,6.0,0.0
140,53.0,96.0,390.0,8.0,0.0
141,41.0,0.0,390.0,10.0,0.0
142,60.0,0.0,150.0,6.0,0.0
143,41.0,0.0,390.0,10.0,0.0
144,57.0,240.0,150.0,6.0,0.0
145,53.0,96.0,390.0,8.0,0.0
146,69.0,144.0,480.0,5.0,0.0
147,60.0,0.0,150.0,6.0,0.0
148,57.0,240.0,150.0,6.0,0.0
149,41.0,0.0,390.0,10.0,0.0
150,72.0,144.0,450.0,5.0,0.0
151,53.0,72.0,390.0,8.0,0.0
152,60.0,0.0,150.0,6.0,0.0
153,41.0,24.0,390.0,10.0,0.0
154,67.0,0.0,3750.0,1.0,0.0
155,60.0,0.0,3750.0,1.0,0.0
156,70.0,0.0,3750.0,0.0,0.0
157,76.0,72.0,3750.0,0.0,0.0
158,58.0,240.0,150.0,6.0,0.0
159,72.0,24.0,120.0,5.0,0.0
160,53.0,0.0,390.0,8.0,0.0
161,55.0,0.0,3750.0,7.0,0.0
162,64.0,0.0,3750.0,7.0,0.0
163,70.0,192.0,300.0,5.0,0.0
164,60.0,0.0,150.0,6.0,0.0
165,58.0,240.0,150.0,6.0,0.0
166,41.0,0.0,390.0,10.0,0.0
167,69.0,24.0,120.0,5.0,0.0
168,53.0,0.0,390.0,8.0,0.0
169,67.0,192.0,300.0,5.0,0.0
170,60.0,24.0,150.0,6.0,0.0
171,58.0,240.0,150.0,6.0,0.0
172,65.0,24.0,120.0,5.0,0.0
173,53.0,0.0,390.0,8.0,0.0
174,41.0,0.0,390.0,10.0,0.0
175,64.0,192.0,300.0,5.0,0.0
176,60.0,24.0,150.0,6.0,0.0
177,53.0,0.0,390.0,8.0,0.0
178,58.0,240.0,150.0,6.0,0.0
179,62.0,24.0,120.0,5.0,0.0
180,41.0,24.0,390.0,10.0,0.0
181,60.0,216.0,300.0,5.0,0.0
182,60.0,0.0,150.0,6.0,0.0
183,41.0,240.0,390.0,10.0,0.0
184,58.0,168.0,150.0,6.0,0.0
185,53.0,0.0,390.0,8.0,0.0
186,67.0,72.0,300.0,5.0,0.0
187,60.0,0.0,150.0,6.0,0.0
188,41.0,0.0,390.0,10.0,0.0
189,67.0,144.0,480.0,5.0,0.0
190,58.0,240.0,150.0,6.0,0.0
191,53.0,0.0,390.0,8.0,0.0
192,60.0,96.0,150.0,6.0,0.0
193,58.0,240.0,150.0,6.0,0.0
194,70.0,144.0,480.0,5.0,0.0
195,41.0,0.0,390.0,10.0,0.0
196,53.0,96.0,390.0,8.0,0.0
197,60.0,0.0,150.0,6.0,0.0
198,53.0,0.0,390.0,8.0,0.0
199,41.0,0.0,390.0,10.0,0.0
200,58.0,240.0,150.0,6.0,0.0
201,74.0,168.0,450.0,5.0,0.0
202,60.0,0.0,150.0,6.0,0.0
203,77.0,0.0,1140.0,0.0,0.0
204,53.0,0.0,1140.0,1.0,0.0
205,65.0,0.0,1140.0,1.0,0.0
206,41.0,0.0,390.0,10.0,0.0
207,69.0,0.0,1140.0,0.0,0.0
208,53.0,0.0,390.0,8.0,0.0
209,57.0,240.0,150.0,6.0,0.0
210,72.0,144.0,720.0,5.0,0.0
211,57.0,0.0,1140.0,7.0,0.0
212,65.0,192.0,1140.0,7.0,0.0
213,60.0,240.0,150.0,6.0,0.0
214,41.0,84.0,390.0,10.0,0.0
215,57.0,96.0,150.0,6.0,0.0
216,53.0,0.0,390.0,8.0,0.0
217,60.0,0.0,150.0,6.0,0.0
218,69.0,156.0,240.0,5.0,0.0
219,53.0,240.0,390.0,8.0,0.0
220,72.0,0.0,390.0,5.0,0.0
221,41.0,0.0,390.0,10.0,0.0
222,57.0,48.0,150.0,6.0,0.0
223,60.0,0.0,150.0,6.0,0.0
224,57.0,240.0,150.0,6.0,0.0
225,53.0,0.0,390.0,8.0,0.0
226,41.0,0.0,390.0,10.0,0.0
227,60.0,336.0,150.0,6.0,0.0
228,77.0,240.0,240.0,5.0,0.0
229,65.0,0.0,240.0,6.0,0.0
230,64.0,240.0,240.0,6.0,0.0
231,76.0,0.0,240.0,5.0,0.0
232,79.0,0.0,240.0,5.0,0.0
233,67.0,240.0,240.0,6.0,0.0
234,77.0,0.0,240.0,5.0,0.0
235,65.0,240.0,240.0,6.0,0.0
236,81.0,240.0,240.0,5.0,0.0
237,69.0,0.0,240.0,6.0,0.0
238,79.0,240.0,240.0,5.0,0.0
239,67.0,0.0,240.0,6.0,0.0
240,77.0,0.0,240.0,5.0,0.0
241,65.0,192.0,240.0,6.0,0.0
242,64.0,288.0,180.0,6.0,0.0
243,76.0,0.0,180.0,5.0,0.0
244,62.0,0.0,240.0,6.0,0.0
245,74.0,0.0,240.0,5.0,0.0
246,58.0,240.0,240.0,7.0,0.0
247,61.0,0.0,240.0,6.0,0.0
248,57.0,240.0,240.0,7.0,0.0
249,73.0,0.0,240.0,5.0,0.0
250,64.0,240.0,240.0,6.0,0.0
251,76.0,0.0,240.0,5.0,0.0
252,60.0,0.0,240.0,7.0,0.0
253,62.0,0.0,240.0,6.0,0.0
254,74.0,240.0,240.0,5.0,0.0
255,58.0,0.0,240.0,7.0,0.0
256,62.0,240.0,240.0,7.0,0.0
257,65.0,0.0,240.0,6.0,0.0
258,77.0,0.0,240.0,5.0,0.0
259,64.0,0.0,240.0,6.0,0.0
260,76.0,240.0,240.0,5.0,0.0
261,60.0,0.0,240.0,7.0,0.0
262,58.0,0.0,240.0,7.0,0.0
263,74.0,228.0,240.0,5.0,0.0
264,62.0,0.0,240.0,6.0,0.0
265,60.0,0.0,240.0,6.0,0.0
266,72.0,252.0,240.0,5.0,0.0
267,57.0,0.0,240.0,7.0,0.0
268,53.0,0.0,1830.0,7.0,0.0
269,65.0,84.0,1830.0,7.0,0.0
270,58.0,0.0,240.0,6.0,0.0
271,38.0,0.0,240.0,10.0,0.0
272,50.0,240.0,240.0,8.0,0.0
273,70.0,0.0,240.0,5.0,0.0
274,37.0,0.0,240.0,10.0,0.0
275,49.0,0.0,240.0,8.0,0.0
276,57.0,0.0,240.0,6.0,0.0
277,69.0,240.0,240.0,5.0,0.0
278,72.0,0.0,240.0,5.0,0.0
279,40.0,240.0,240.0,10.0,0.0
280,52.0,0.0,240.0,8.0,0.0
281,60.0,0.0,240.0,6.0,0.0
282,50.0,240.0,240.0,8.0,0.0
283,58.0,0.0,240.0,6.0,0.0
284,38.0,0.0,240.0,10.0,0.0
285,70.0,0.0,240.0,5.0,0.0
286,41.0,0.0,240.0,10.0,0.0
287,62.0,0.0,240.0,6.0,0.0
288,74.0,240.0,240.0,5.0,0.0
289,53.0,0.0,240.0,8.0,0.0
290,52.0,0.0,240.0,8.0,0.0
291,72.0,0.0,240.0,5.0,0.0
292,40.0,0.0,240.0,10.0,0.0
293,60.0,240.0,240.0,6.0,0.0
294,38.0,0.0,240.0,10.0,0.0
295,50.0,144.0,240.0,8.0,0.0
296,58.0,0.0,240.0,6.0,0.0
297,70.0,0.0,240.0,5.0,0.0
298,36.0,0.0,240.0,10.0,0.0
299,69.0,0.0,240.0,5.0,0.0
300,48.0,0.0,240.0,8.0,0.0
301,57.0,252.0,240.0,6.0,0.0
302,58.0,0.0,300.0,7.0,0.0
303,38.0,0.0,300.0,10.0,0.0
304,46.0,84.0,300.0,8.0,0.0
305,62.0,72.0,720.0,6.0,0.0
306,69.0,72.0,240.0,5.0,0.0
307,67.0,240.0,150.0,5.0,0.0
308,43.0,0.0,300.0,8.0,0.0
309,31.0,0.0,300.0,10.0,0.0
310,70.0,84.0,150.0,5.0,0.0
311,55.0,84.0,300.0,7.0,0.0
312,58.0,168.0,180.0,6.0,0.0
313,67.0,36.0,150.0,5.0,0.0
314,60.0,0.0,120.0,6.0,0.0
315,48.0,0.0,300.0,8.0,0.0
316,60.0,0.0,300.0,7.0,0.0
317,69.0,120.0,120.0,5.0,0.0
318,36.0,120.0,300.0,10.0,0.0
319,67.0,0.0,120.0,5.0,0.0
320,58.0,72.0,120.0,6.0,0.0
321,65.0,168.0,180.0,5.0,0.0
322,57.0,0.0,180.0,6.0,0.0
323,58.0,0.0,120.0,6.0,0.0
324,48.0,0.0,300.0,7.0,0.0
325,67.0,120.0,120.0,5.0,0.0
326,36.0,0.0,300.0,10.0,0.0
327,48.0,120.0,300.0,8.0,0.0
328,57.0,0.0,120.0,6.0,0.0
329,65.0,72.0,120.0,5.0,0.0
330,64.0,0.0,180.0,5.0,0.0
331,55.0,144.0,180.0,6.0,0.0
332,65.0,0.0,930.0,5.0,0.0
333,53.0,48.0,780.0,7.0,0.0
334,57.0,60.0,90.0,6.0,0.0
335,53.0,0.0,390.0,1.0,0.0
336,53.0,60.0,150.0,8.0,0.0
337,65.0,0.0,390.0,0.0,0.0
338,53.0,12.0,390.0,5.0,0.0
339,60.0,0.0,390.0,5.0,0.0
340,41.0,0.0,150.0,10.0,0.0
341,60.0,120.0,90.0,6.0,0.0
342,57.0,48.0,90.0,6.0,0.0
343,36.0,60.0,150.0,10.0,0.0
344,48.0,0.0,150.0,8.0,0.0
345,60.0,120.0,90.0,6.0,0.0
346,65.0,54.0,240.0,0.0,0.0
347,53.0,0.0,240.0,1.0,0.0
348,41.0,60.0,150.0,10.0,0.0
349,57.0,60.0,90.0,6.0,0.0
350,53.0,0.0,150.0,8.0,0.0
351,60.0,18.0,90.0,6.0,0.0
352,57.0,60.0,90.0,6.0,0.0
353,36.0,42.0,150.0,10.0,0.0
354,48.0,0.0,150.0,8.0,0.0
355,60.0,120.0,90.0,6.0,0.0
356,53.0,0.0,90.0,1.0,0.0
357,65.0,18.0,90.0,0.0,0.0
358,65.0,0.0,390.0,0.0,0.0
359,57.0,60.0,90.0,6.0,0.0
360,53.0,0.0,150.0,8.0,0.0
361,41.0,60.0,150.0,10.0,0.0
362,53.0,12.0,390.0,1.0,0.0
363,60.0,120.0,90.0,6.0,0.0
364,67.0,0.0,150.0,5.0,0.0
365,48.0,0.0,150.0,8.0,0.0
366,57.0,48.0,90.0,6.0,0.0
367,36.0,60.0,150.0,10.0,0.0
368,60.0,120.0,90.0,6.0,0.0
369,69.0,12.0,150.0,5.0,0.0
370,53.0,0.0,150.0,8.0,0.0
371,41.0,60.0,150.0,10.0,0.0
372,57.0,48.0,90.0,6.0,0.0
373,60.0,120.0,90.0,6.0,0.0
374,48.0,0.0,150.0,8.0,0.0
375,36.0,60.0,150.0,10.0,0.0
376,70.0,12.0,150.0,5.0,0.0
377,57.0,48.0,90.0,6.0,0.0
378,60.0,120.0,90.0,6.0,0.0
379,53.0,0.0,150.0,8.0,0.0
380,69.0,0.0,390.0,0.0,0.0
381,57.0,0.0,390.0,1.0,0.0
382,65.0,0.0,390.0,1.0,0.0
383,72.0,6.0,900.0,5.0,0.0
384,57.0,60.0,90.0,6.0,0.0
385,41.0,60.0,150.0,10.0,0.0
386,72.0,0.0,390.0,0.0,0.0
387,60.0,120.0,90.0,6.0,0.0
388,55.0,12.0,150.0,7.0,0.0
389,48.0,0.0,150.0,8.0,0.0
390,57.0,48.0,90.0,6.0,0.0
391,36.0,60.0,150.0,10.0,0.0
392,60.0,120.0,90.0,6.0,0.0
393,69.0,0.0,240.0,0.0,0.0
394,72.0,0.0,240.0,0.0,0.0
395,57.0,12.0,150.0,7.0,0.0
396,65.0,0.0,240.0,1.0,0.0
397,57.0,48.0,90.0,6.0,0.0
398,57.0,102.0,240.0,1.0,0.0
399,53.0,60.0,150.0,8.0,0.0
400,41.0,0.0,150.0,10.0,0.0
401,60.0,18.0,90.0,6.0,0.0
402,36.0,36.0,150.0,10.0,0.0
403,57.0,48.0,90.0,6.0,0.0
404,58.0,12.0,150.0,7.0,0.0
405,48.0,0.0,150.0,8.0,0.0
406,60.0,120.0,90.0,6.0,0.0
407,69.0,0.0,90.0,0.0,0.0
408,57.0,0.0,90.0,1.0,0.0
409,65.0,18.0,90.0,1.0,0.0
410,72.0,0.0,90.0,0.0,0.0
411,65.0,0.0,390.0,1.0,0.0
412,57.0,60.0,90.0,6.0,0.0
413,60.0,24.0,900.0,7.0,0.0
414,69.0,0.0,390.0,0.0,0.0
415,72.0,0.0,390.0,0.0,0.0
416,41.0,0.0,150.0,10.0,0.0
417,53.0,60.0,150.0,8.0,0.0
418,57.0,0.0,390.0,1.0,0.0
419,60.0,120.0,90.0,6.0,0.0
420,48.0,60.0,150.0,8.0,0.0
421,57.0,48.0,90.0,6.0,0.0
422,74.0,12.0,150.0,5.0,0.0
423,36.0,0.0,150.0,10.0,0.0
424,60.0,120.0,90.0,6.0,0.0
425,76.0,12.0,150.0,5.0,0.0
426,53.0,60.0,150.0,8.0,0.0
427,57.0,48.0,90.0,6.0,0.0
428,41.0,0.0,150.0,10.0,0.0
429,60.0,120.0,90.0,6.0,0.0
430,57.0,48.0,90.0,6.0,0.0
431,36.0,0.0,150.0,10.0,0.0
432,77.0,12.0,150.0,5.0,0.0
433,48.0,36.0,150.0,8.0,0.0
434,60.0,120.0,90.0,6.0,0.0
435,70.0,0.0,390.0,0.0,0.0
436,52.0,0.0,150.0,8.0,0.0
437,67.0,0.0,390.0,1.0,0.0
438,60.0,0.0,390.0,1.0,0.0
439,40.0,60.0,150.0,10.0,0.0
440,58.0,60.0,90.0,6.0,0.0
441,79.0,6.0,900.0,5.0,0.0
442,72.0,12.0,390.0,0.0,0.0
443,60.0,120.0,90.0,6.0,0.0
444,36.0,0.0,150.0,10.0,0.0
445,48.0,60.0,150.0,8.0,0.0
446,62.0,0.0,150.0,7.0,0.0
447,58.0,48.0,90.0,6.0,0.0
448,60.0,120.0,90.0,6.0,0.0
449,72.0,102.0,240.0,0.0,0.0
450,67.0,0.0,240.0,1.0,0.0
451,60.0,0.0,240.0,1.0,0.0
452,70.0,0.0,240.0,0.0,0.0
453,52.0,60.0,150.0,8.0,0.0
454,40.0,0.0,150.0,10.0,0.0
455,64.0,12.0,150.0,7.0,0.0
456,58.0,48.0,90.0,6.0,0.0
457,60.0,18.0,90.0,6.0,0.0
458,65.0,12.0,150.0,7.0,0.0
459,36.0,0.0,150.0,10.0,0.0
460,58.0,48.0,90.0,6.0,0.0
461,48.0,36.0,150.0,8.0,0.0
462,72.0,18.0,90.0,0.0,0.0
463,70.0,0.0,90.0,0.0,0.0
464,60.0,120.0,90.0,6.0,0.0
465,60.0,0.0,90.0,1.0,0.0
466,67.0,0.0,90.0,1.0,0.0
467,67.0,24.0,900.0,7.0,0.0
468,70.0,0.0,390.0,0.0,0.0
469,52.0,0.0,150.0,8.0,0.0
470,40.0,60.0,150.0,10.0,0.0
471,60.0,12.0,390.0,1.0,0.0
472,67.0,0.0,390.0,1.0,0.0
473,72.0,0.0,390.0,0.0,0.0
474,58.0,60.0,90.0,6.0,0.0
475,60.0,120.0,90.0,6.0,0.0
476,36.0,0.0,150.0,10.0,0.0
477,81.0,96.0,240.0,5.0,0.0
478,58.0,48.0,90.0,6.0,0.0
479,48.0,60.0,150.0,8.0,0.0
480,60.0,24.0,90.0,6.0,0.0
481,52.0,0.0,150.0,8.0,0.0
482,40.0,60.0,150.0,10.0,0.0
483,58.0,60.0,90.0,6.0,0.0
484,82.0,96.0,240.0,5.0,0.0
485,60.0,24.0,90.0,6.0,0.0
486,48.0,0.0,150.0,8.0,0.0
487,79.0,96.0,240.0,5.0,0.0
488,36.0,36.0,150.0,10.0,0.0
489,58.0,60.0,90.0,6.0,0.0
490,60.0,24.0,90.0,6.0,0.0
491,77.0,96.0,240.0,5.0,0.0
492,55.0,0.0,150.0,8.0,0.0
493,43.0,60.0,150.0,10.0,0.0
494,58.0,60.0,90.0,6.0,0.0
495,60.0,24.0,90.0,6.0,0.0
496,48.0,60.0,150.0,8.0,0.0
497,76.0,12.0,150.0,5.0,0.0
498,36.0,0.0,150.0,10.0,0.0
499,58.0,48.0,90.0,6.0,0.0
500,60.0,120.0,90.0,6.0,0.0
501,55.0,60.0,150.0,8.0,0.0
502,52.0,96.0,480.0,7.0,0.0
503,74.0,12.0,150.0,5.0,0.0
504,58.0,48.0,90.0,6.0,0.0
505,43.0,0.0,150.0,10.0,0.0
506,60.0,120.0,90.0,6.0,0.0
507,48.0,0.0,150.0,8.0,0.0
508,72.0,12.0,150.0,5.0,0.0
509,58.0,48.0,90.0,6.0,0.0
510,36.0,60.0,150.0,10.0,0.0
511,60.0,24.0,90.0,6.0,0.0
512,40.0,60.0,150.0,10.0,0.0
513,52.0,0.0,150.0,8.0,0.0
514,58.0,60.0,90.0,6.0,0.0
515,55.0,96.0,480.0,7.0,0.0
516,72.0,96.0,240.0,5.0,0.0
517,60.0,24.0,90.0,6.0,0.0
518,36.0,0.0,150.0,10.0,0.0
519,48.0,60.0,150.0,8.0,0.0
520,70.0,12.0,150.0,5.0,0.0
521,58.0,48.0,90.0,6.0,0.0
522,60.0,24.0,90.0,6.0,0.0
523,40.0,0.0,150.0,10.0,0.0
524,52.0,96.0,480.0,7.0,0.0
525,69.0,12.0,150.0,5.0,0.0
526,58.0,48.0,90.0,6.0,0.0
527,52.0,60.0,150.0,8.0,0.0
528,60.0,120.0,90.0,6.0,0.0
529,58.0,48.0,90.0,6.0,0.0
530,67.0,12.0,150.0,5.0,0.0
531,48.0,60.0,150.0,8.0,0.0
532,36.0,0.0,150.0,10.0,0.0
533,60.0,24.0,90.0,6.0,0.0
534,65.0,0.0,390.0,0.0,0.0
535,60.0,0.0,390.0,5.0,0.0
536,53.0,48.0,780.0,7.0,0.0
537,53.0,60.0,150.0,8.0,0.0
538,53.0,0.0,390.0,1.0,0.0
539,53.0,12.0,390.0,5.0,0.0
540,65.0,0.0,930.0,5.0,0.0
541,41.0,0.0,150.0,10.0,0.0
542,57.0,60.0,90.0,6.0,0.0
543,60.0,120.0,90.0,6.0,0.0
544,48.0,0.0,150.0,8.0,0.0
545,36.0,60.0,150.0,10.0,0.0
546,57.0,48.0,90.0,6.0,0.0
547,60.0,120.0,90.0,6.0,0.0
548,53.0,0.0,150.0,8.0,0.0
549,53.0,0.0,240.0,1.0,0.0
550,57.0,60.0,90.0,6.0,0.0
551,65.0,54.0,240.0,0.0,0.0
552,41.0,60.0,150.0,10.0,0.0
553,60.0,18.0,90.0,6.0,0.0
554,57.0,60.0,90.0,6.0,0.0
555,48.0,0.0,150.0,8.0,0.0
556,36.0,42.0,150.0,10.0,0.0
557,53.0,0.0,90.0,1.0,0.0
558,60.0,120.0,90.0,6.0,0.0
559,65.0,18.0,90.0,0.0,0.0
560,57.0,60.0,90.0,6.0,0.0
561,53.0,60.0,150.0,8.0,0.0
562,53.0,0.0,390.0,1.0,0.0
563,41.0,0.0,150.0,10.0,0.0
564,65.0,12.0,390.0,0.0,0.0
565,60.0,120.0,90.0,6.0,0.0
566,67.0,0.0,150.0,5.0,0.0
567,57.0,48.0,90.0,6.0,0.0
568,36.0,60.0,150.0,10.0,0.0
569,48.0,0.0,150.0,8.0,0.0
570,60.0,120.0,90.0,6.0,0.0
571,69.0,12.0,150.0,5.0,0.0
572,53.0,0.0,150.0,8.0,0.0
573,57.0,48.0,90.0,6.0,0.0
574,41.0,60.0,150.0,10.0,0.0
575,60.0,120.0,90.0,6.0,0.0
576,36.0,60.0,150.0,10.0,0.0
577,70.0,12.0,150.0,5.0,0.0
578,48.0,0.0,150.0,8.0,0.0
579,57.0,48.0,90.0,6.0,0.0
580,60.0,120.0,90.0,6.0,0.0
581,53.0,0.0,150.0,8.0,0.0
582,57.0,60.0,90.0,6.0,0.0
583,72.0,6.0,900.0,5.0,0.0
584,65.0,0.0,390.0,1.0,0.0
585,57.0,0.0,390.0,1.0,0.0
586,69.0,12.0,390.0,0.0,0.0
587,72.0,0.0,390.0,0.0,0.0
588,41.0,60.0,150.0,10.0,0.0
589,60.0,120.0,90.0,6.0,0.0
590,57.0,48.0,90.0,6.0,0.0
591,55.0,0.0,150.0,7.0,0.0
592,36.0,60.0,150.0,10.0,0.0
593,48.0,0.0,150.0,8.0,0.0
594,60.0,120.0,90.0,6.0,0.0
595,57.0,0.0,240.0,1.0,0.0
596,65.0,0.0,240.0,1.0,0.0
597,72.0,102.0,240.0,0.0,0.0
598,57.0,48.0,90.0,6.0,0.0
599,69.0,0.0,240.0,0.0,0.0
600,57.0,12.0,150.0,7.0,0.0
601,41.0,60.0,150.0,10.0,0.0
602,53.0,0.0,150.0,8.0,0.0
603,60.0,18.0,90.0,6.0,0.0
604,48.0,0.0,150.0,8.0,0.0
605,36.0,36.0,150.0,10.0,0.0
606,58.0,12.0,150.0,7.0,0.0
607,57.0,48.0,90.0,6.0,0.0
608,57.0,0.0,90.0,1.0,0.0
609,72.0,0.0,90.0,0.0,0.0
610,69.0,18.0,90.0,0.0,0.0
611,60.0,120.0,90.0,6.0,0.0
612,65.0,0.0,90.0,1.0,0.0
613,53.0,0.0,150.0,8.0,0.0
614,57.0,60.0,90.0,6.0,0.0
615,69.0,0.0,390.0,0.0,0.0
616,60.0,24.0,900.0,7.0,0.0
617,41.0,60.0,150.0,10.0,0.0
618,65.0,12.0,390.0,1.0,0.0
619,72.0,0.0,390.0,0.0,0.0
620,57.0,0.0,390.0,1.0,0.0
621,60.0,120.0,90.0,6.0,0.0
622,48.0,0.0,150.0,8.0,0.0
623,57.0,48.0,90.0,6.0,0.0
624,36.0,60.0,150.0,10.0,0.0
625,74.0,0.0,150.0,5.0,0.0
626,60.0,120.0,90.0,6.0,0.0
627,57.0,48.0,90.0,6.0,0.0
628,41.0,0.0,150.0,10.0,0.0
629,76.0,12.0,150.0,5.0,0.0
630,53.0,60.0,150.0,8.0,0.0
631,60.0,120.0,90.0,6.0,0.0
632,77.0,12.0,150.0,5.0,0.0
633,48.0,0.0,150.0,8.0,0.0
634,57.0,48.0,90.0,6.0,0.0
635,36.0,36.0,150.0,10.0,0.0
636,60.0,120.0,90.0,6.0,0.0
637,40.0,60.0,150.0,10.0,0.0
638,52.0,0.0,150.0,8.0,0.0
639,79.0,6.0,900.0,5.0,0.0
640,67.0,0.0,390.0,1.0,0.0
641,60.0,0.0,390.0,1.0,0.0
642,58.0,60.0,90.0,6.0,0.0
643,70.0,0.0,390.0,0.0,0.0
644,72.0,0.0,390.0,0.0,0.0
645,60.0,120.0,90.0,6.0,0.0
646,48.0,0.0,150.0,8.0,0.0
647,58.0,48.0,90.0,6.0,0.0
648,36.0,60.0,150.0,10.0,0.0
649,62.0,12.0,150.0,7.0,0.0
650,60.0,120.0,90.0,6.0,0.0
651,40.0,0.0,150.0,10.0,0.0
652,58.0,48.0,90.0,6.0,0.0
653,67.0,102.0,240.0,1.0,0.0
654,64.0,12.0,150.0,7.0,0.0
655,60.0,0.0,240.0,1.0,0.0
656,52.0,60.0,150.0,8.0,0.0
657,70.0,0.0,240.0,0.0,0.0
658,72.0,0.0,240.0,0.0,0.0
659,60.0,18.0,90.0,6.0,0.0
660,48.0,36.0,150.0,8.0,0.0
661,65.0,12.0,150.0,7.0,0.0
662,58.0,48.0,90.0,6.0,0.0
663,36.0,0.0,150.0,10.0,0.0
664,60.0,120.0,90.0,6.0,0.0
665,72.0,0.0,90.0,0.0,0.0
666,70.0,0.0,90.0,0.0,0.0
667,60.0,18.0,90.0,1.0,0.0
668,67.0,0.0,90.0,1.0,0.0
669,52.0,0.0,150.0,8.0,0.0
670,67.0,24.0,900.0,7.0,0.0
671,40.0,60.0,150.0,10.0,0.0
672,60.0,12.0,390.0,1.0,0.0
673,67.0,0.0,390.0,1.0,0.0
674,70.0,0.0,390.0,0.0,0.0
675,72.0,0.0,390.0,0.0,0.0
676,58.0,60.0,90.0,6.0,0.0
677,60.0,120.0,90.0,6.0,0.0
678,48.0,0.0,150.0,8.0,0.0
679,58.0,48.0,90.0,6.0,0.0
680,36.0,60.0,150.0,10.0,0.0
681,81.0,96.0,240.0,5.0,0.0
682,60.0,24.0,90.0,6.0,0.0
683,82.0,96.0,240.0,5.0,0.0
684,52.0,60.0,150.0,8.0,0.0
685,40.0,0.0,150.0,10.0,0.0
686,58.0,60.0,90.0,6.0,0.0
687,60.0,24.0,90.0,6.0,0.0
688,58.0,60.0,90.0,6.0,0.0
689,36.0,0.0,150.0,10.0,0.0
690,48.0,36.0,150.0,8.0,0.0
691,79.0,96.0,240.0,5.0,0.0
692,60.0,24.0,90.0,6.0,0.0
693,58.0,60.0,90.0,6.0,0.0
694,43.0,60.0,150.0,10.0,0.0
695,55.0,0.0,150.0,8.0,0.0
696,77.0,96.0,240.0,5.0,0.0
697,60.0,24.0,90.0,6.0,0.0
698,36.0,0.0,150.0,10.0,0.0
699,58.0,48.0,90.0,6.0,0.0
700,76.0,12.0,150.0,5.0,0.0
701,48.0,60.0,150.0,8.0,0.0
702,60.0,120.0,90.0,6.0,0.0
703,74.0,12.0,150.0,5.0,0.0
704,43.0,0.0,150.0,10.0,0.0
705,58.0,48.0,90.0,6.0,0.0
706,55.0,60.0,150.0,8.0,0.0
707,52.0,96.0,480.0,7.0,0.0
708,60.0,120.0,90.0,6.0,0.0
709,58.0,48.0,90.0,6.0,0.0
710,72.0,12.0,150.0,5.0,0.0
711,48.0,0.0,150.0,8.0,0.0
712,36.0,60.0,150.0,10.0,0.0
713,60.0,24.0,90.0,6.0,0.0
714,40.0,0.0,150.0,10.0,0.0
715,52.0,60.0,150.0,8.0,0.0
716,72.0,96.0,240.0,5.0,0.0
717,55.0,96.0,480.0,7.0,0.0
718,58.0,60.0,90.0,6.0,0.0
719,60.0,24.0,90.0,6.0,0.0
720,48.0,0.0,150.0,8.0,0.0
721,58.0,48.0,90.0,6.0,0.0
722,36.0,60.0,150.0,10.0,0.0
723,70.0,12.0,150.0,5.0,0.0
724,60.0,24.0,90.0,6.0,0.0
725,52.0,60.0,150.0,8.0,0.0
726,40.0,0.0,150.0,10.0,0.0
727,52.0,156.0,480.0,7.0,0.0
728,58.0,48.0,90.0,6.0,0.0
729,69.0,12.0,150.0,5.0,0.0
730,60.0,120.0,90.0,6.0,0.0
731,58.0,48.0,90.0,6.0,0.0
732,36.0,60.0,150.0,10.0,0.0
733,48.0,0.0,150.0,8.0,0.0
734,67.0,12.0,150.0,5.0,0.0
735,60.0,24.0,90.0,6.0,0.0
736,57.0,120.0,180.0,6.0,0.0
737,53.0,0.0,3750.0,1.0,0.0
738,53.0,312.0,300.0,7.0,0.0
739,69.0,0.0,3750.0,0.0,0.0
740,65.0,36.0,150.0,5.0,0.0
741,53.0,0.0,300.0,8.0,0.0
742,41.0,0.0,300.0,10.0,0.0
743,77.0,0.0,3750.0,0.0,0.0
744,65.0,24.0,3750.0,1.0,0.0
745,81.0,0.0,390.0,5.0,0.0
746,72.0,336.0,390.0,6.0,0.0
747,65.0,0.0,390.0,5.0,0.0
748,41.0,144.0,480.0,10.0,0.0
749,69.0,0.0,480.0,7.0,0.0
750,53.0,0.0,480.0,8.0,0.0
751,69.0,0.0,390.0,6.0,0.0
752,65.0,168.0,390.0,5.0,0.0
753,77.0,0.0,390.0,5.0,0.0
754,40.0,312.0,300.0,10.0,0.0
755,52.0,0.0,300.0,8.0,0.0
756,67.0,0.0,300.0,7.0,0.0
757,65.0,0.0,390.0,5.0,0.0
758,81.0,336.0,390.0,5.0,0.0
759,72.0,0.0,390.0,6.0,0.0
760,40.0,192.0,480.0,10.0,0.0
761,55.0,0.0,480.0,7.0,0.0
762,52.0,0.0,480.0,8.0,0.0
763,69.0,0.0,420.0,6.0,0.0
764,65.0,120.0,420.0,5.0,0.0
765,77.0,0.0,420.0,5.0,0.0
766,53.0,0.0,300.0,7.0,0.0
767,38.0,0.0,300.0,10.0,0.0
768,50.0,312.0,300.0,8.0,0.0
769,77.0,336.0,390.0,6.0,0.0
770,65.0,0.0,390.0,5.0,0.0
771,81.0,0.0,390.0,5.0,0.0
772,50.0,144.0,480.0,8.0,0.0
773,38.0,0.0,480.0,10.0,0.0
774,65.0,0.0,480.0,7.0,0.0
775,65.0,168.0,390.0,5.0,0.0
776,77.0,0.0,390.0,5.0,0.0
777,69.0,0.0,390.0,6.0,0.0
778,36.0,312.0,300.0,10.0,0.0
779,64.0,0.0,300.0,7.0,0.0
780,48.0,0.0,300.0,8.0,0.0
781,65.0,0.0,390.0,5.0,0.0
782,77.0,0.0,390.0,6.0,0.0
783,81.0,240.0,390.0,5.0,0.0
784,52.0,72.0,420.0,7.0,0.0
785,48.0,156.0,480.0,8.0,0.0
786,36.0,0.0,480.0,10.0,0.0
787,69.0,0.0,240.0,6.0,0.0
788,77.0,0.0,390.0,5.0,0.0
789,65.0,0.0,390.0,5.0,0.0
790,34.0,240.0,960.0,10.0,0.0
791,50.0,0.0,960.0,7.0,0.0
792,67.0,240.0,150.0,6.0,0.0
793,46.0,0.0,960.0,8.0,0.0
794,74.0,324.0,150.0,6.0,0.0
795,77.0,0.0,150.0,5.0,0.0
796,77.0,156.0,240.0,5.0,0.0
797,74.0,0.0,240.0,6.0,0.0
798,76.0,0.0,150.0,5.0,0.0
799,72.0,84.0,150.0,6.0,0.0
800,76.0,156.0,240.0,5.0,0.0
801,52.0,0.0,900.0,7.0,0.0
802,48.0,288.0,900.0,8.0,0.0
803,72.0,0.0,240.0,6.0,0.0
804,36.0,0.0,900.0,10.0,0.0
805,70.0,0.0,150.0,6.0,0.0
806,74.0,324.0,150.0,5.0,0.0
807,70.0,156.0,240.0,6.0,0.0
808,74.0,0.0,240.0,5.0,0.0
809,72.0,36.0,150.0,5.0,0.0
810,69.0,0.0,150.0,6.0,0.0
811,38.0,0.0,480.0,10.0,0.0
812,69.0,0.0,240.0,6.0,0.0
813,53.0,84.0,300.0,7.0,0.0
814,50.0,156.0,480.0,8.0,0.0
815,72.0,72.0,240.0,5.0,0.0
816,67.0,0.0,150.0,6.0,0.0
817,70.0,84.0,150.0,5.0,0.0
818,40.0,0.0,480.0,10.0,0.0
819,67.0,240.0,150.0,6.0,0.0
820,60.0,156.0,960.0,7.0,0.0
821,52.0,240.0,480.0,8.0,0.0
822,70.0,0.0,150.0,5.0,0.0
823,70.0,0.0,150.0,5.0,0.0
824,67.0,84.0,150.0,6.0,0.0
825,70.0,156.0,240.0,5.0,0.0
826,53.0,0.0,480.0,8.0,0.0
827,67.0,0.0,240.0,6.0,0.0
828,41.0,0.0,480.0,10.0,0.0
829,69.0,0.0,150.0,5.0,0.0
830,65.0,84.0,150.0,6.0,0.0
831,65.0,240.0,150.0,6.0,0.0
832,34.0,384.0,480.0,10.0,0.0
833,62.0,0.0,480.0,7.0,0.0
834,46.0,0.0,480.0,8.0,0.0
835,69.0,0.0,150.0,5.0,0.0
836,69.0,84.0,150.0,5.0,0.0
837,65.0,0.0,150.0,6.0,0.0
838,48.0,0.0,390.0,8.0,0.0
839,36.0,0.0,390.0,10.0,0.0
840,64.0,0.0,390.0,6.0,0.0
841,67.0,0.0,390.0,5.0,0.0
842,55.0,216.0,390.0,7.0,0.0
843,77.0,78.0,120.0,6.0,0.0
844,77.0,0.0,120.0,5.0,0.0
845,76.0,120.0,90.0,5.0,0.0
846,76.0,0.0,90.0,6.0,0.0
847,74.0,120.0,90.0,5.0,0.0
848,74.0,0.0,90.0,6.0,0.0
849,72.0,426.0,90.0,6.0,0.0
850,72.0,0.0,90.0,5.0,0.0
851,77.0,216.0,390.0,6.0,0.0
852,77.0,0.0,390.0,5.0,0.0
853,70.0,78.0,120.0,5.0,0.0
854,70.0,0.0,120.0,6.0,0.0
855,69.0,120.0,90.0,6.0,0.0
856,69.0,0.0,90.0,5.0,0.0
857,67.0,0.0,90.0,6.0,0.0
858,67.0,120.0,90.0,5.0,0.0
859,65.0,426.0,90.0,6.0,0.0
860,65.0,0.0,90.0,5.0,0.0
861,72.0,0.0,390.0,5.0,0.0
862,72.0,216.0,390.0,6.0,0.0
863,65.0,0.0,120.0,6.0,0.0
864,77.0,0.0,120.0,0.0,0.0
865,53.0,0.0,120.0,8.0,0.0
866,65.0,0.0,120.0,5.0,0.0
867,65.0,78.0,120.0,7.0,0.0
868,60.0,30.0,300.0,1.0,0.0
869,41.0,0.0,120.0,10.0,0.0
870,52.0,0.0,90.0,8.0,0.0
871,64.0,0.0,90.0,5.0,0.0
872,64.0,0.0,90.0,6.0,0.0
873,40.0,72.0,90.0,10.0,0.0
874,64.0,18.0,90.0,7.0,0.0
875,76.0,0.0,90.0,0.0,0.0
876,62.0,18.0,90.0,5.0,0.0
877,74.0,0.0,90.0,0.0,0.0
878,38.0,0.0,90.0,10.0,0.0
879,50.0,102.0,90.0,8.0,0.0
880,62.0,0.0,90.0,7.0,0.0
881,62.0,0.0,90.0,6.0,0.0
882,60.0,0.0,90.0,7.0,0.0
883,60.0,0.0,90.0,6.0,0.0
884,36.0,0.0,90.0,10.0,0.0
885,60.0,0.0,90.0,1.0,0.0
886,72.0,0.0,90.0,0.0,0.0
887,60.0,18.0,90.0,5.0,0.0
888,48.0,408.0,90.0,8.0,0.0
889,60.0,0.0,390.0,1.0,0.0
890,53.0,0.0,390.0,8.0,0.0
891,65.0,0.0,390.0,6.0,0.0
892,41.0,0.0,390.0,10.0,0.0
893,65.0,216.0,390.0,5.0,0.0
894,77.0,0.0,390.0,0.0,0.0
895,65.0,0.0,390.0,7.0,0.0
896,58.0,0.0,120.0,7.0,0.0
897,70.0,0.0,120.0,0.0,0.0
898,34.0,0.0,120.0,10.0,0.0
899,58.0,78.0,120.0,5.0,0.0
900,58.0,0.0,120.0,6.0,0.0
901,46.0,0.0,120.0,8.0,0.0
902,60.0,54.0,390.0,1.0,0.0
903,33.0,0.0,90.0,10.0,0.0
904,69.0,102.0,90.0,0.0,0.0
905,57.0,18.0,90.0,7.0,0.0
906,57.0,0.0,90.0,5.0,0.0
907,45.0,0.0,90.0,8.0,0.0
908,57.0,0.0,90.0,6.0,0.0
909,55.0,0.0,90.0,6.0,0.0
910,31.0,0.0,90.0,10.0,0.0
911,43.0,48.0,90.0,8.0,0.0
912,55.0,0.0,90.0,7.0,0.0
913,55.0,18.0,90.0,5.0,0.0
914,67.0,0.0,90.0,0.0,0.0
915,53.0,18.0,90.0,6.0,0.0
916,41.0,0.0,90.0,8.0,0.0
917,53.0,0.0,90.0,7.0,0.0
918,65.0,0.0,90.0,0.0,0.0
919,53.0,0.0,90.0,5.0,0.0
920,29.0,708.0,90.0,10.0,0.0
921,48.0,0.0,690.0,8.0,0.0
922,60.0,0.0,690.0,5.0,0.0
923,60.0,0.0,780.0,1.0,0.0
924,72.0,48.0,780.0,0.0,0.0
925,60.0,0.0,690.0,6.0,0.0
926,36.0,0.0,690.0,10.0,0.0
927,60.0,84.0,690.0,7.0,0.0
928,64.0,0.0,90.0,5.0,0.0
929,64.0,0.0,90.0,6.0,0.0
930,52.0,120.0,90.0,8.0,0.0
931,40.0,0.0,90.0,10.0,0.0
932,64.0,0.0,90.0,7.0,0.0
933,43.0,0.0,90.0,10.0,0.0
934,67.0,336.0,90.0,6.0,0.0
935,67.0,0.0,90.0,7.0,0.0
936,67.0,0.0,90.0,5.0,0.0
937,55.0,0.0,90.0,8.0,0.0
938,76.0,408.0,390.0,0.0,0.0
939,60.0,0.0,390.0,1.0,0.0
940,60.0,0.0,300.0,8.0,0.0
941,48.0,0.0,300.0,10.0,0.0
942,72.0,0.0,300.0,7.0,0.0
943,72.0,0.0,300.0,5.0,0.0
944,72.0,72.0,300.0,6.0,0.0
945,79.0,480.0,390.0,0.0,0.0
946,67.0,0.0,300.0,5.0,0.0
947,76.0,0.0,300.0,5.0,0.0
948,60.0,0.0,300.0,5.0,0.0
949,60.0,0.0,390.0,1.0,0.0
950,60.0,0.0,300.0,6.0,0.0
951,72.0,0.0,300.0,7.0,0.0
952,67.0,0.0,300.0,6.0,0.0
953,48.0,0.0,300.0,10.0,0.0
954,60.0,72.0,300.0,8.0,0.0
955,76.0,0.0,300.0,6.0,0.0
956,60.0,0.0,390.0,1.0,0.0
957,60.0,0.0,390.0,5.0,0.0
958,67.0,0.0,390.0,5.0,0.0
959,72.0,0.0,390.0,5.0,0.0
960,60.0,0.0,390.0,7.0,0.0
961,72.0,0.0,390.0,0.0,0.0
962,48.0,1536.0,390.0,8.0,0.0
963,60.0,0.0,390.0,6.0,0.0
964,67.0,0.0,390.0,6.0,0.0
965,72.0,0.0,390.0,6.0,0.0
966,36.0,0.0,390.0,10.0,0.0
967,60.0,192.0,480.0,6.0,0.0
968,72.0,0.0,480.0,5.0,0.0
969,41.0,72.0,180.0,12.0,0.0
970,53.0,0.0,180.0,11.0,0.0
971,57.0,408.0,270.0,6.0,0.0
972,69.0,0.0,270.0,5.0,0.0
973,48.0,288.0,180.0,11.0,0.0
974,36.0,0.0,180.0,12.0,0.0
975,69.0,192.0,480.0,5.0,0.0
976,57.0,0.0,480.0,6.0,0.0
977,58.0,0.0,270.0,6.0,0.0
978,43.0,72.0,180.0,12.0,0.0
979,55.0,0.0,180.0,11.0,0.0
980,70.0,408.0,270.0,5.0,0.0
981,36.0,288.0,180.0,12.0,0.0
982,58.0,0.0,480.0,6.0,0.0
983,48.0,0.0,180.0,11.0,0.0
984,70.0,192.0,480.0,5.0,0.0
985,60.0,0.0,390.0,6.0,0.0
986,65.0,240.0,720.0,7.0,0.0
987,72.0,288.0,390.0,5.0,0.0
988,45.0,192.0,180.0,12.0,0.0
989,57.0,0.0,180.0,11.0,0.0
990,36.0,0.0,180.0,12.0,0.0
991,48.0,48.0,180.0,11.0,0.0
992,69.0,192.0,240.0,7.0,0.0
993,57.0,192.0,180.0,11.0,0.0
994,45.0,0.0,180.0,12.0,0.0
995,60.0,288.0,390.0,7.0,0.0
996,56.0,288.0,180.0,11.0,0.0
997,59.0,0.0,480.0,6.0,0.0
998,44.0,0.0,180.0,12.0,0.0
999,71.0,192.0,480.0,5.0,0.0
1000,60.0,288.0,390.0,6.0,0.0
1001,57.0,0.0,180.0,11.0,0.0
1002,65.0,240.0,720.0,7.0,0.0
1003,72.0,0.0,390.0,5.0,0.0
1004,45.0,192.0,180.0,12.0,0.0
1005,36.0,0.0,180.0,12.0,0.0
1006,48.0,48.0,180.0,11.0,0.0
1007,69.0,192.0,240.0,7.0,0.0
1008,60.0,288.0,390.0,7.0,0.0
1009,57.0,0.0,180.0,11.0,0.0
1010,45.0,192.0,180.0,12.0,0.0
1011,71.0,192.0,480.0,5.0,0.0
1012,56.0,0.0,180.0,11.0,0.0
1013,44.0,288.0,180.0,12.0,0.0
1014,59.0,0.0,480.0,6.0,0.0
1015,72.0,288.0,390.0,5.0,0.0
1016,60.0,0.0,390.0,6.0,0.0
1017,48.0,0.0,8820.0,1.0,0.0
1018,45.0,0.0,180.0,12.0,0.0
1019,57.0,192.0,180.0,11.0,0.0
1020,65.0,240.0,720.0,7.0,0.0
1021,60.0,0.0,8820.0,1.0,0.0
1022,36.0,0.0,180.0,12.0,0.0
1023,48.0,48.0,180.0,11.0,0.0
1024,69.0,192.0,240.0,7.0,0.0
1025,60.0,216.0,390.0,7.0,0.0
1026,45.0,0.0,180.0,12.0,0.0
1027,57.0,192.0,180.0,11.0,0.0
1028,74.0,72.0,120.0,5.0,0.0
1029,62.0,0.0,120.0,6.0,0.0
1030,53.0,0.0,180.0,11.0,0.0
1031,41.0,48.0,180.0,12.0,0.0
1032,60.0,0.0,120.0,6.0,0.0
1033,72.0,120.0,120.0,5.0,0.0
1034,58.0,0.0,120.0,6.0,0.0
1035,70.0,120.0,120.0,5.0,0.0
1036,57.0,0.0,120.0,6.0,0.0
1037,69.0,192.0,120.0,5.0,0.0
1038,52.0,72.0,180.0,11.0,0.0
1039,55.0,408.0,270.0,6.0,0.0
1040,40.0,0.0,180.0,12.0,0.0
1041,67.0,0.0,270.0,5.0,0.0
1042,67.0,192.0,480.0,5.0,0.0
1043,48.0,288.0,180.0,11.0,0.0
1044,36.0,0.0,180.0,12.0,0.0
1045,55.0,0.0,480.0,6.0,0.0
1046,53.0,0.0,180.0,11.0,0.0
1047,69.0,408.0,270.0,5.0,0.0
1048,57.0,0.0,270.0,6.0,0.0
1049,41.0,72.0,180.0,12.0,0.0
1050,57.0,192.0,480.0,6.0,0.0
1051,69.0,0.0,480.0,5.0,0.0
1052,48.0,0.0,180.0,11.0,0.0
1053,36.0,288.0,180.0,12.0,0.0
1054,70.0,0.0,390.0,5.0,0.0
1055,64.0,240.0,720.0,7.0,0.0
1056,58.0,288.0,390.0,6.0,0.0
1057,43.0,192.0,180.0,12.0,0.0
1058,55.0,0.0,180.0,11.0,0.0
1059,48.0,0.0,180.0,11.0,0.0
1060,36.0,48.0,180.0,12.0,0.0
1061,67.0,192.0,240.0,7.0,0.0
1062,55.0,0.0,180.0,11.0,0.0
1063,58.0,288.0,390.0,7.0,0.0
1064,43.0,192.0,180.0,12.0,0.0
1065,54.0,0.0,180.0,11.0,0.0
1066,69.0,0.0,480.0,5.0,0.0
1067,42.0,288.0,180.0,12.0,0.0
1068,57.0,192.0,480.0,6.0,0.0
1069,64.0,240.0,720.0,7.0,0.0
1070,43.0,0.0,180.0,12.0,0.0
1071,70.0,288.0,390.0,5.0,0.0
1072,55.0,192.0,180.0,11.0,0.0
1073,58.0,0.0,390.0,6.0,0.0
1074,48.0,48.0,180.0,11.0,0.0
1075,36.0,0.0,180.0,12.0,0.0
1076,67.0,192.0,240.0,7.0,0.0
1077,58.0,288.0,390.0,7.0,0.0
1078,55.0,0.0,180.0,11.0,0.0
1079,43.0,192.0,180.0,12.0,0.0
1080,42.0,0.0,180.0,12.0,0.0
1081,54.0,288.0,180.0,11.0,0.0
1082,81.0,0.0,480.0,5.0,0.0
1083,69.0,192.0,480.0,6.0,0.0
1084,82.0,0.0,390.0,5.0,0.0
1085,70.0,288.0,390.0,6.0,0.0
1086,43.0,0.0,180.0,12.0,0.0
1087,64.0,240.0,720.0,7.0,0.0
1088,55.0,192.0,180.0,11.0,0.0
1089,36.0,0.0,180.0,12.0,0.0
1090,48.0,48.0,180.0,11.0,0.0
1091,67.0,192.0,240.0,7.0,0.0
1092,48.0,192.0,180.0,11.0,0.0
1093,36.0,0.0,180.0,12.0,0.0
1094,58.0,216.0,390.0,7.0,0.0
1095,72.0,120.0,120.0,5.0,0.0
1096,58.0,0.0,480.0,6.0,0.0
1097,52.0,0.0,480.0,7.0,0.0
1098,70.0,120.0,120.0,5.0,0.0
1099,69.0,120.0,120.0,5.0,0.0
1100,67.0,192.0,120.0,5.0,0.0
1101,53.0,24.0,9210.0,1.0,0.0
1102,57.0,240.0,390.0,6.0,0.0
1103,53.0,164.0,930.0,7.0,0.0
1104,65.0,0.0,9210.0,1.0,0.0
1105,29.0,192.0,180.0,10.0,0.0
1106,65.0,20.0,2850.0,0.0,0.0
1107,41.0,0.0,180.0,8.0,0.0
1108,65.0,0.0,180.0,5.0,0.0
1109,65.0,48.0,390.0,5.0,0.0
1110,41.0,0.0,180.0,10.0,0.0
1111,53.0,268.0,180.0,8.0,0.0
1112,65.0,48.0,390.0,5.0,0.0
1113,29.0,0.0,180.0,10.0,0.0
1114,57.0,20.0,930.0,7.0,0.0
1115,41.0,408.0,180.0,8.0,0.0
1116,65.0,48.0,390.0,5.0,0.0
1117,53.0,0.0,180.0,8.0,0.0
1118,74.0,24.0,120.0,6.0,0.0
1119,41.0,48.0,180.0,10.0,0.0
1120,72.0,120.0,120.0,6.0,0.0
1121,65.0,28.0,180.0,5.0,0.0
1122,70.0,72.0,120.0,6.0,0.0
1123,69.0,192.0,120.0,6.0,0.0
1124,29.0,432.0,180.0,10.0,0.0
1125,58.0,18.0,1890.0,7.0,0.0
1126,65.0,144.0,960.0,5.0,0.0
1127,67.0,20.0,2850.0,0.0,0.0
1128,67.0,0.0,180.0,6.0,0.0
1129,41.0,0.0,180.0,8.0,0.0
1130,67.0,48.0,390.0,6.0,0.0
1131,53.0,0.0,180.0,8.0,0.0
1132,41.0,268.0,180.0,10.0,0.0
1133,67.0,48.0,390.0,6.0,0.0
1134,63.0,20.0,930.0,0.0,0.0
1135,63.0,216.0,390.0,5.0,0.0
1136,41.0,192.0,180.0,8.0,0.0
1137,29.0,0.0,180.0,10.0,0.0
1138,67.0,48.0,390.0,6.0,0.0
1139,41.0,0.0,180.0,10.0,0.0
1140,75.0,24.0,120.0,5.0,0.0
1141,53.0,48.0,180.0,8.0,0.0
1142,74.0,120.0,120.0,5.0,0.0
1143,72.0,72.0,120.0,5.0,0.0
1144,67.0,10.0,180.0,6.0,0.0
1145,70.0,192.0,120.0,5.0,0.0
1146,69.0,20.0,2850.0,0.0,0.0
1147,69.0,432.0,180.0,5.0,0.0
1148,29.0,0.0,180.0,10.0,0.0
1149,60.0,18.0,1890.0,7.0,0.0
1150,67.0,144.0,960.0,6.0,0.0
1151,41.0,0.0,180.0,8.0,0.0
1152,69.0,48.0,390.0,5.0,0.0
1153,53.0,0.0,180.0,8.0,0.0
1154,41.0,268.0,180.0,10.0,0.0
1155,69.0,48.0,390.0,5.0,0.0
1156,65.0,20.0,930.0,0.0,0.0
1157,29.0,0.0,180.0,10.0,0.0
1158,41.0,192.0,180.0,8.0,0.0
1159,65.0,216.0,390.0,6.0,0.0
1160,69.0,48.0,390.0,5.0,0.0
1161,53.0,48.0,180.0,8.0,0.0
1162,41.0,0.0,180.0,10.0,0.0
1163,77.0,24.0,120.0,6.0,0.0
1164,75.0,120.0,120.0,6.0,0.0
1165,74.0,72.0,120.0,6.0,0.0
1166,69.0,10.0,180.0,5.0,0.0
1167,72.0,192.0,120.0,6.0,0.0
1168,62.0,18.0,1890.0,7.0,0.0
1169,69.0,144.0,960.0,5.0,0.0
1170,70.0,20.0,2850.0,0.0,0.0
1171,29.0,0.0,180.0,10.0,0.0
1172,70.0,432.0,180.0,6.0,0.0
1173,41.0,0.0,180.0,8.0,0.0
1174,70.0,48.0,390.0,6.0,0.0
1175,41.0,0.0,180.0,10.0,0.0
1176,53.0,268.0,180.0,8.0,0.0
1177,70.0,48.0,390.0,6.0,0.0
1178,29.0,192.0,180.0,10.0,0.0
1179,41.0,0.0,180.0,8.0,0.0
1180,67.0,20.0,930.0,0.0,0.0
1181,67.0,216.0,390.0,5.0,0.0
1182,70.0,48.0,390.0,6.0,0.0
1183,53.0,48.0,180.0,8.0,0.0
1184,41.0,0.0,180.0,10.0,0.0
1185,79.0,24.0,120.0,5.0,0.0
1186,77.0,120.0,120.0,5.0,0.0
1187,70.0,10.0,180.0,6.0,0.0
1188,75.0,72.0,120.0,5.0,0.0
1189,74.0,192.0,120.0,5.0,0.0
1190,72.0,164.0,2850.0,0.0,0.0
1191,63.0,18.0,1890.0,7.0,0.0
1192,70.0,144.0,960.0,6.0,0.0
1193,72.0,432.0,180.0,5.0,0.0
1194,41.0,0.0,180.0,8.0,0.0
1195,29.0,0.0,180.0,10.0,0.0
1196,72.0,48.0,390.0,5.0,0.0
1197,53.0,0.0,180.0,8.0,0.0
1198,41.0,268.0,180.0,10.0,0.0
1199,72.0,48.0,390.0,5.0,0.0
1200,69.0,192.0,390.0,6.0,0.0
1201,29.0,192.0,180.0,10.0,0.0
1202,69.0,20.0,930.0,0.0,0.0
1203,41.0,0.0,180.0,8.0,0.0
1204,72.0,48.0,390.0,5.0,0.0
1205,53.0,48.0,180.0,8.0,0.0
1206,41.0,0.0,180.0,10.0,0.0
1207,81.0,24.0,120.0,6.0,0.0
1208,79.0,120.0,120.0,6.0,0.0
1209,72.0,10.0,180.0,5.0,0.0
1210,77.0,72.0,120.0,6.0,0.0
1211,75.0,192.0,120.0,6.0,0.0
1212,41.0,0.0,180.0,8.0,0.0
1213,29.0,0.0,180.0,10.0,0.0
1214,74.0,0.0,1890.0,0.0,0.0
1215,65.0,0.0,4230.0,1.0,0.0
1216,53.0,12.0,4230.0,1.0,0.0
1217,65.0,18.0,1890.0,7.0,0.0
1218,74.0,432.0,180.0,6.0,0.0
1219,72.0,172.0,780.0,5.0,0.0
1220,74.0,48.0,390.0,6.0,0.0
1221,53.0,96.0,180.0,8.0,0.0
1222,41.0,0.0,180.0,10.0,0.0
1223,74.0,48.0,390.0,6.0,0.0
1224,70.0,216.0,390.0,5.0,0.0
1225,29.0,192.0,180.0,10.0,0.0
1226,70.0,20.0,930.0,0.0,0.0
1227,41.0,0.0,180.0,8.0,0.0
1228,74.0,48.0,390.0,6.0,0.0
1229,53.0,0.0,180.0,8.0,0.0
1230,41.0,48.0,180.0,10.0,0.0
1231,82.0,24.0,120.0,5.0,0.0
1232,81.0,120.0,120.0,5.0,0.0
1233,74.0,10.0,180.0,6.0,0.0
1234,79.0,72.0,120.0,5.0,0.0
1235,77.0,156.0,120.0,5.0,0.0
1236,41.0,0.0,150.0,8.0,0.0
1237,82.0,194.0,1890.0,0.0,0.0
1238,76.0,0.0,1890.0,0.0,0.0
1239,76.0,0.0,180.0,5.0,0.0
1240,70.0,204.0,180.0,6.0,0.0
1241,67.0,0.0,180.0,7.0,0.0
1242,29.0,36.0,150.0,10.0,0.0
1243,41.0,228.0,150.0,8.0,0.0
1244,76.0,12.0,390.0,5.0,0.0
1245,70.0,0.0,390.0,6.0,0.0
1246,67.0,0.0,390.0,7.0,0.0
1247,29.0,0.0,150.0,10.0,0.0
1248,29.0,240.0,150.0,10.0,0.0
1249,41.0,0.0,150.0,8.0,0.0
1250,29.0,0.0,150.0,10.0,0.0
1251,67.0,12.0,390.0,7.0,0.0
1252,41.0,228.0,150.0,8.0,0.0
1253,76.0,0.0,390.0,5.0,0.0
1254,70.0,0.0,390.0,6.0,0.0
1255,29.0,240.0,150.0,10.0,0.0
1256,41.0,0.0,150.0,8.0,0.0
1257,67.0,0.0,390.0,7.0,0.0
1258,29.0,0.0,150.0,10.0,0.0
1259,70.0,12.0,390.0,6.0,0.0
1260,76.0,0.0,390.0,5.0,0.0
1261,41.0,228.0,150.0,8.0,0.0
1262,41.0,240.0,150.0,8.0,0.0
1263,29.0,0.0,150.0,10.0,0.0
1264,67.0,0.0,180.0,7.0,0.0
1265,29.0,0.0,150.0,10.0,0.0
1266,70.0,10.0,180.0,6.0,0.0
1267,41.0,36.0,150.0,8.0,0.0
1268,76.0,0.0,180.0,5.0,0.0
1269,69.0,6.0,300.0,6.0,0.0
1270,81.0,0.0,390.0,0.0,0.0
1271,77.0,36.0,150.0,5.0,0.0
1272,77.0,0.0,390.0,0.0,0.0
1273,41.0,0.0,150.0,8.0,0.0
1274,29.0,0.0,150.0,10.0,0.0
1275,65.0,120.0,180.0,7.0,0.0
1276,65.0,12.0,390.0,7.0,0.0
1277,81.0,66.0,90.0,5.0,0.0
1278,41.0,42.0,150.0,8.0,0.0
1279,29.0,0.0,150.0,10.0,0.0
1280,77.0,186.0,90.0,5.0,0.0
1281,45.0,0.0,150.0,8.0,0.0
1282,33.0,0.0,150.0,10.0,0.0
1283,72.0,132.0,150.0,5.0,0.0
1284,72.0,0.0,390.0,0.0,0.0
1285,77.0,12.0,390.0,0.0,0.0
1286,72.0,0.0,150.0,6.0,0.0
1287,53.0,96.0,300.0,1.0,0.0
1288,65.0,0.0,300.0,1.0,0.0
1289,72.0,0.0,150.0,5.0,0.0
1290,45.0,0.0,150.0,8.0,0.0
1291,33.0,60.0,150.0,10.0,0.0
1292,72.0,0.0,150.0,6.0,0.0
1293,65.0,12.0,390.0,7.0,0.0
1294,53.0,168.0,90.0,1.0,0.0
1295,65.0,0.0,90.0,1.0,0.0
1296,74.0,0.0,150.0,5.0,0.0
1297,65.0,0.0,390.0,1.0,0.0
1298,74.0,0.0,390.0,0.0,0.0
1299,34.0,0.0,150.0,10.0,0.0
1300,46.0,0.0,150.0,8.0,0.0
1301,53.0,12.0,390.0,1.0,0.0
1302,70.0,0.0,390.0,0.0,0.0
1303,74.0,162.0,150.0,6.0,0.0
1304,65.0,12.0,390.0,7.0,0.0
1305,34.0,42.0,150.0,10.0,0.0
1306,46.0,0.0,150.0,8.0,0.0
1307,77.0,66.0,90.0,5.0,0.0
1308,77.0,0.0,90.0,6.0,0.0
1309,74.0,186.0,90.0,6.0,0.0
1310,74.0,0.0,90.0,5.0,0.0
1311,53.0,12.0,390.0,1.0,0.0
1312,38.0,0.0,150.0,10.0,0.0
1313,70.0,0.0,390.0,0.0,0.0
1314,65.0,0.0,390.0,0.0,0.0
1315,65.0,0.0,390.0,1.0,0.0
1316,50.0,228.0,150.0,8.0,0.0
1317,70.0,0.0,150.0,6.0,0.0
1318,70.0,0.0,150.0,5.0,0.0
1319,50.0,0.0,150.0,8.0,0.0
1320,70.0,0.0,150.0,6.0,0.0
1321,70.0,240.0,150.0,5.0,0.0
1322,65.0,126.0,420.0,7.0,0.0
1323,38.0,0.0,150.0,10.0,0.0
1324,65.0,0.0,390.0,0.0,0.0
1325,36.0,36.0,150.0,10.0,0.0
1326,69.0,0.0,150.0,6.0,0.0
1327,69.0,0.0,390.0,0.0,0.0
1328,48.0,0.0,150.0,8.0,0.0
1329,69.0,0.0,150.0,5.0,0.0
1330,60.0,12.0,390.0,1.0,0.0
1331,60.0,42.0,150.0,8.0,0.0
1332,72.0,66.0,90.0,6.0,0.0
1333,48.0,0.0,150.0,10.0,0.0
1334,57.0,12.0,390.0,7.0,0.0
1335,72.0,0.0,90.0,5.0,0.0
1336,69.0,186.0,90.0,6.0,0.0
1337,69.0,0.0,90.0,5.0,0.0
1338,57.0,0.0,150.0,8.0,0.0
1339,65.0,0.0,300.0,0.0,0.0
1340,69.0,108.0,300.0,0.0,0.0
1341,45.0,0.0,150.0,10.0,0.0
1342,60.0,0.0,300.0,1.0,0.0
1343,65.0,0.0,150.0,5.0,0.0
1344,65.0,132.0,150.0,6.0,0.0
1345,60.0,168.0,390.0,7.0,0.0
1346,69.0,0.0,150.0,5.0,0.0
1347,41.0,60.0,150.0,10.0,0.0
1348,69.0,0.0,150.0,6.0,0.0
1349,53.0,0.0,150.0,8.0,0.0
1350,65.0,0.0,90.0,0.0,0.0
1351,60.0,0.0,90.0,1.0,0.0
1352,69.0,168.0,90.0,0.0,0.0
1353,36.0,72.0,300.0,10.0,0.0
1354,48.0,0.0,300.0,8.0,0.0
1355,72.0,0.0,300.0,6.0,0.0
1356,67.0,0.0,390.0,0.0,0.0
1357,64.0,240.0,390.0,0.0,0.0
1358,60.0,0.0,390.0,1.0,0.0
1359,72.0,0.0,300.0,5.0,0.0
1360,58.0,144.0,390.0,7.0,0.0
1361,60.0,0.0,300.0,1.0,0.0
1362,48.0,0.0,300.0,8.0,0.0
1363,55.0,0.0,300.0,6.0,0.0
1364,64.0,0.0,300.0,6.0,0.0
1365,36.0,0.0,300.0,10.0,0.0
1366,64.0,120.0,300.0,5.0,0.0
1367,55.0,0.0,300.0,5.0,0.0
1368,64.0,0.0,300.0,0.0,0.0
1369,67.0,24.0,300.0,0.0,0.0
1370,55.0,24.0,180.0,7.0,0.0
1371,67.0,408.0,90.0,0.0,0.0
1372,64.0,0.0,90.0,0.0,0.0
1373,60.0,0.0,90.0,1.0,0.0
1374,60.0,0.0,390.0,6.0,0.0
1375,65.0,0.0,390.0,0.0,0.0
1376,65.0,0.0,390.0,6.0,0.0
1377,53.0,0.0,390.0,6.0,0.0
1378,57.0,0.0,390.0,1.0,0.0
1379,60.0,0.0,390.0,1.0,0.0
1380,41.0,0.0,390.0,8.0,0.0
1381,29.0,0.0,390.0,10.0,0.0
1382,57.0,576.0,390.0,7.0,0.0
1383,53.0,0.0,390.0,5.0,0.0
1384,65.0,0.0,390.0,5.0,0.0
1385,60.0,0.0,390.0,5.0,0.0
1386,72.0,240.0,240.0,5.0,0.0
1387,71.0,240.0,240.0,5.0,0.0
1388,74.0,240.0,240.0,5.0,0.0
1389,72.0,240.0,240.0,5.0,0.0
1390,69.0,144.0,240.0,5.0,0.0
1391,60.0,120.0,150.0,6.0,0.0
1392,65.0,120.0,270.0,5.0,0.0
1393,57.0,48.0,900.0,7.0,0.0
1394,60.0,240.0,150.0,6.0,0.0
1395,65.0,0.0,480.0,5.0,0.0
1396,53.0,144.0,480.0,8.0,0.0
1397,41.0,0.0,480.0,10.0,0.0
1398,60.0,240.0,150.0,6.0,0.0
1399,60.0,48.0,150.0,6.0,0.0
1400,60.0,120.0,150.0,6.0,0.0
1401,67.0,24.0,270.0,5.0,0.0
1402,40.0,96.0,300.0,10.0,0.0
1403,52.0,0.0,300.0,8.0,0.0
1404,58.0,48.0,720.0,7.0,0.0
1405,60.0,240.0,150.0,6.0,0.0
1406,36.0,96.0,300.0,10.0,0.0
1407,60.0,96.0,150.0,6.0,0.0
1408,48.0,0.0,300.0,8.0,0.0
1409,67.0,144.0,480.0,5.0,0.0
1410,60.0,84.0,150.0,6.0,0.0
1411,55.0,12.0,240.0,7.0,0.0
1412,69.0,24.0,270.0,5.0,0.0
1413,53.0,24.0,300.0,8.0,0.0
1414,53.0,72.0,300.0,7.0,0.0
1415,41.0,0.0,300.0,10.0,0.0
1416,60.0,120.0,150.0,6.0,0.0
1417,65.0,240.0,150.0,6.0,0.0
1418,60.0,0.0,480.0,7.0,0.0
1419,39.0,0.0,480.0,10.0,0.0
1420,51.0,144.0,480.0,8.0,0.0
1421,69.0,0.0,480.0,5.0,0.0
1422,65.0,240.0,150.0,6.0,0.0
1423,65.0,96.0,150.0,6.0,0.0
1424,65.0,120.0,150.0,6.0,0.0
1425,58.0,144.0,480.0,7.0,0.0
1426,38.0,0.0,300.0,10.0,0.0
1427,50.0,96.0,300.0,8.0,0.0
1428,70.0,24.0,270.0,5.0,0.0
1429,65.0,96.0,150.0,6.0,0.0
1430,65.0,144.0,150.0,6.0,0.0
1431,46.0,96.0,300.0,8.0,0.0
1432,62.0,240.0,480.0,7.0,0.0
1433,34.0,0.0,300.0,10.0,0.0
1434,70.0,0.0,390.0,5.0,0.0
1435,65.0,96.0,150.0,6.0,0.0
1436,45.0,168.0,300.0,8.0,0.0
1437,60.0,192.0,960.0,7.0,0.0
1438,74.0,72.0,240.0,5.0,0.0
1439,33.0,0.0,300.0,10.0,0.0
1440,65.0,48.0,1140.0,6.0,0.0
1441,72.0,240.0,240.0,5.0,0.0
1442,70.0,72.0,240.0,5.0,0.0
1443,29.0,164.0,300.0,10.0,0.0
1444,41.0,0.0,300.0,8.0,0.0
1445,69.0,4.0,240.0,5.0,0.0
1446,46.0,168.0,300.0,8.0,0.0
1447,62.0,20.0,930.0,7.0,0.0
1448,34.0,0.0,300.0,10.0,0.0
1449,69.0,72.0,240.0,5.0,0.0
1450,67.0,192.0,240.0,5.0,0.0
1451,50.0,0.0,300.0,8.0,0.0
1452,59.0,48.0,180.0,6.0,0.0
1453,69.0,72.0,240.0,5.0,0.0
1454,38.0,120.0,300.0,10.0,0.0
1455,62.0,28.0,180.0,6.0,0.0
1456,65.0,480.0,240.0,5.0,0.0
1457,69.0,0.0,480.0,5.0,0.0
1458,60.0,0.0,780.0,7.0,0.0
1459,48.0,0.0,780.0,8.0,0.0
1460,36.0,192.0,780.0,10.0,0.0
1461,65.0,156.0,480.0,6.0,0.0
1462,67.0,0.0,150.0,5.0,0.0
1463,64.0,132.0,150.0,6.0,0.0
1464,72.0,0.0,240.0,5.0,0.0
1465,60.0,240.0,240.0,6.0,0.0
1466,71.0,240.0,240.0,5.0,0.0
1467,59.0,0.0,240.0,6.0,0.0
1468,74.0,240.0,240.0,5.0,0.0
1469,62.0,0.0,240.0,6.0,0.0
1470,60.0,240.0,240.0,6.0,0.0
1471,72.0,0.0,240.0,5.0,0.0
1472,69.0,0.0,240.0,5.0,0.0
1473,57.0,144.0,240.0,6.0,0.0
1474,53.0,0.0,270.0,6.0,0.0
1475,57.0,120.0,150.0,7.0,0.0
1476,65.0,120.0,270.0,5.0,0.0
1477,60.0,240.0,150.0,7.0,0.0
1478,41.0,0.0,480.0,10.0,0.0
1479,57.0,240.0,150.0,7.0,0.0
1480,65.0,0.0,480.0,5.0,0.0
1481,53.0,144.0,480.0,6.0,0.0
1482,53.0,0.0,480.0,8.0,0.0
1483,60.0,96.0,150.0,7.0,0.0
1484,52.0,72.0,300.0,8.0,0.0
1485,40.0,0.0,300.0,10.0,0.0
1486,67.0,48.0,270.0,5.0,0.0
1487,58.0,120.0,150.0,7.0,0.0
1488,55.0,0.0,270.0,6.0,0.0
1489,60.0,240.0,150.0,7.0,0.0
1490,36.0,0.0,300.0,10.0,0.0
1491,58.0,168.0,150.0,7.0,0.0
1492,67.0,144.0,480.0,5.0,0.0
1493,55.0,0.0,480.0,6.0,0.0
1494,48.0,72.0,300.0,8.0,0.0
1495,60.0,96.0,150.0,7.0,0.0
1496,41.0,72.0,300.0,10.0,0.0
1497,69.0,0.0,270.0,5.0,0.0
1498,57.0,120.0,150.0,7.0,0.0
1499,53.0,0.0,300.0,8.0,0.0
1500,57.0,48.0,270.0,6.0,0.0
1501,65.0,240.0,150.0,7.0,0.0
1502,51.0,144.0,480.0,8.0,0.0
1503,57.0,0.0,480.0,6.0,0.0
1504,39.0,0.0,480.0,10.0,0.0
1505,57.0,240.0,150.0,7.0,0.0
1506,69.0,0.0,480.0,5.0,0.0
1507,65.0,96.0,150.0,7.0,0.0
1508,38.0,72.0,300.0,10.0,0.0
1509,58.0,0.0,270.0,6.0,0.0
1510,70.0,48.0,270.0,5.0,0.0
1511,50.0,0.0,300.0,8.0,0.0
1512,62.0,120.0,150.0,7.0,0.0
1513,65.0,240.0,150.0,7.0,0.0
1514,46.0,72.0,300.0,8.0,0.0
1515,70.0,240.0,480.0,5.0,0.0
1516,62.0,168.0,150.0,7.0,0.0
1517,34.0,0.0,300.0,10.0,0.0
1518,58.0,0.0,480.0,6.0,0.0
1519,65.0,96.0,150.0,7.0,0.0
1520,36.0,0.0,300.0,10.0,0.0
1521,58.0,0.0,240.0,7.0,0.0
1522,62.0,72.0,240.0,6.0,0.0
1523,48.0,72.0,300.0,8.0,0.0
1524,74.0,0.0,240.0,5.0,0.0
1525,60.0,0.0,150.0,6.0,0.0
1526,72.0,240.0,150.0,5.0,0.0
1527,57.0,0.0,150.0,7.0,0.0
1528,48.0,0.0,300.0,8.0,0.0
1529,70.0,168.0,150.0,5.0,0.0
1530,58.0,0.0,150.0,6.0,0.0
1531,55.0,0.0,150.0,7.0,0.0
1532,36.0,72.0,300.0,10.0,0.0
1533,69.0,0.0,150.0,5.0,0.0
1534,53.0,336.0,150.0,7.0,0.0
1535,57.0,0.0,150.0,6.0,0.0
1536,69.0,0.0,240.0,5.0,0.0
1537,60.0,0.0,240.0,6.0,0.0
1538,48.0,0.0,300.0,8.0,0.0
1539,36.0,72.0,300.0,10.0,0.0
1540,57.0,72.0,240.0,7.0,0.0
1541,67.0,240.0,150.0,5.0,0.0
1542,58.0,0.0,150.0,6.0,0.0
1543,55.0,0.0,150.0,7.0,0.0
1544,65.0,168.0,150.0,5.0,0.0
1545,53.0,0.0,150.0,7.0,0.0
1546,36.0,72.0,300.0,10.0,0.0
1547,57.0,0.0,150.0,6.0,0.0
1548,48.0,0.0,300.0,8.0,0.0
1549,55.0,192.0,150.0,6.0,0.0
1550,64.0,0.0,150.0,5.0,0.0
1551,52.0,0.0,150.0,7.0,0.0
1552,53.0,0.0,390.0,7.0,0.0
1553,41.0,72.0,390.0,8.0,0.0
1554,65.0,120.0,90.0,5.0,0.0
1555,29.0,0.0,390.0,10.0,0.0
1556,57.0,0.0,390.0,6.0,0.0
1557,60.0,120.0,90.0,5.0,0.0
1558,62.0,48.0,90.0,5.0,0.0
1559,64.0,120.0,90.0,5.0,0.0
1560,65.0,120.0,90.0,5.0,0.0
1561,67.0,120.0,90.0,5.0,0.0
1562,69.0,120.0,90.0,5.0,0.0
1563,70.0,120.0,90.0,5.0,0.0
1564,72.0,120.0,90.0,5.0,0.0
1565,74.0,120.0,90.0,5.0,0.0
1566,76.0,120.0,90.0,5.0,0.0
1567,77.0,120.0,90.0,5.0,0.0
1568,36.0,0.0,150.0,10.0,0.0
1569,60.0,0.0,150.0,1.0,0.0
1570,76.0,0.0,150.0,0.0,0.0
1571,70.0,60.0,150.0,0.0,0.0
1572,67.0,0.0,150.0,1.0,0.0
1573,58.0,12.0,150.0,7.0,0.0
1574,67.0,0.0,150.0,6.0,0.0
1575,76.0,48.0,90.0,5.0,0.0
1576,48.0,0.0,150.0,8.0,0.0
1577,74.0,120.0,90.0,5.0,0.0
1578,48.0,12.0,150.0,8.0,0.0
1579,72.0,48.0,90.0,5.0,0.0
1580,55.0,0.0,150.0,7.0,0.0
1581,64.0,0.0,150.0,6.0,0.0
1582,67.0,0.0,150.0,1.0,0.0
1583,36.0,0.0,150.0,10.0,0.0
1584,60.0,0.0,150.0,1.0,0.0
1585,76.0,0.0,150.0,0.0,0.0
1586,70.0,60.0,150.0,0.0,0.0
1587,70.0,168.0,90.0,5.0,0.0
1588,77.0,0.0,150.0,0.0,0.0
1589,38.0,0.0,150.0,10.0,0.0
1590,50.0,0.0,150.0,8.0,0.0
1591,53.0,0.0,150.0,7.0,0.0
1592,69.0,228.0,150.0,0.0,0.0
1593,53.0,0.0,150.0,1.0,0.0
1594,65.0,0.0,150.0,6.0,0.0
1595,65.0,0.0,150.0,1.0,0.0
1596,69.0,12.0,150.0,5.0,0.0
1597,38.0,0.0,150.0,10.0,0.0
1598,65.0,0.0,150.0,1.0,0.0
1599,53.0,0.0,150.0,1.0,0.0
1600,69.0,12.0,150.0,5.0,0.0
1601,53.0,0.0,150.0,7.0,0.0
1602,69.0,228.0,150.0,0.0,0.0
1603,77.0,0.0,150.0,0.0,0.0
1604,50.0,0.0,150.0,8.0,0.0
1605,65.0,0.0,150.0,6.0,0.0
1606,70.0,228.0,150.0,0.0,0.0
1607,74.0,0.0,150.0,0.0,0.0
1608,74.0,12.0,150.0,5.0,0.0
1609,65.0,0.0,150.0,6.0,0.0
1610,65.0,0.0,150.0,1.0,0.0
1611,46.0,0.0,150.0,8.0,0.0
1612,34.0,0.0,150.0,10.0,0.0
1613,58.0,0.0,150.0,7.0,0.0
1614,53.0,0.0,150.0,1.0,0.0
1615,34.0,0.0,150.0,10.0,0.0
1616,65.0,0.0,150.0,6.0,0.0
1617,74.0,12.0,150.0,5.0,0.0
1618,53.0,228.0,150.0,1.0,0.0
1619,58.0,0.0,150.0,7.0,0.0
1620,65.0,0.0,150.0,1.0,0.0
1621,70.0,0.0,150.0,0.0,0.0
1622,46.0,0.0,150.0,8.0,0.0
1623,74.0,0.0,150.0,0.0,0.0
1624,57.0,0.0,150.0,7.0,0.0
1625,72.0,0.0,150.0,0.0,0.0
1626,53.0,228.0,150.0,1.0,0.0
1627,36.0,0.0,150.0,10.0,0.0
1628,65.0,12.0,150.0,6.0,0.0
1629,65.0,0.0,150.0,1.0,0.0
1630,72.0,0.0,150.0,5.0,0.0
1631,69.0,0.0,150.0,0.0,0.0
1632,48.0,0.0,150.0,8.0,0.0
1633,65.0,0.0,150.0,6.0,0.0
1634,72.0,0.0,150.0,0.0,0.0
1635,69.0,0.0,150.0,0.0,0.0
1636,48.0,0.0,150.0,8.0,0.0
1637,36.0,0.0,150.0,10.0,0.0
1638,72.0,12.0,150.0,5.0,0.0
1639,65.0,0.0,150.0,1.0,0.0
1640,53.0,228.0,150.0,1.0,0.0
1641,57.0,0.0,150.0,7.0,0.0
1642,48.0,0.0,150.0,8.0,0.0
1643,55.0,12.0,150.0,7.0,0.0
1644,36.0,0.0,150.0,10.0,0.0
1645,67.0,0.0,150.0,1.0,0.0
1646,70.0,0.0,150.0,0.0,0.0
1647,76.0,0.0,150.0,0.0,0.0
1648,58.0,0.0,150.0,6.0,0.0
1649,64.0,0.0,150.0,5.0,0.0
1650,60.0,228.0,150.0,1.0,0.0
1651,55.0,0.0,150.0,7.0,0.0
1652,64.0,0.0,150.0,5.0,0.0
1653,58.0,0.0,150.0,6.0,0.0
1654,48.0,0.0,150.0,8.0,0.0
1655,70.0,180.0,150.0,0.0,0.0
1656,67.0,0.0,150.0,1.0,0.0
1657,76.0,0.0,150.0,0.0,0.0
1658,60.0,0.0,150.0,1.0,0.0
1659,36.0,12.0,150.0,10.0,0.0
1660,65.0,120.0,90.0,5.0,0.0
1661,41.0,0.0,390.0,8.0,0.0
1662,57.0,0.0,390.0,6.0,0.0
1663,77.0,0.0,390.0,0.0,0.0
1664,53.0,0.0,390.0,7.0,0.0
1665,60.0,72.0,390.0,1.0,0.0
1666,65.0,0.0,390.0,1.0,0.0
1667,29.0,0.0,390.0,10.0,0.0
1668,69.0,0.0,390.0,0.0,0.0
1669,60.0,120.0,90.0,5.0,0.0
1670,62.0,48.0,90.0,5.0,0.0
1671,64.0,120.0,90.0,5.0,0.0
1672,65.0,120.0,90.0,5.0,0.0
1673,67.0,120.0,90.0,5.0,0.0
1674,69.0,120.0,90.0,5.0,0.0
1675,70.0,120.0,90.0,5.0,0.0
1676,72.0,120.0,90.0,5.0,0.0
1677,74.0,120.0,90.0,5.0,0.0
1678,76.0,120.0,90.0,5.0,0.0
1679,77.0,120.0,90.0,5.0,0.0
1680,58.0,12.0,150.0,7.0,0.0
1681,36.0,0.0,150.0,10.0,0.0
1682,76.0,0.0,150.0,0.0,0.0
1683,70.0,0.0,150.0,0.0,0.0
1684,67.0,0.0,150.0,6.0,0.0
1685,48.0,0.0,150.0,8.0,0.0
1686,67.0,60.0,150.0,1.0,0.0
1687,60.0,0.0,150.0,1.0,0.0
1688,76.0,48.0,90.0,5.0,0.0
1689,74.0,120.0,90.0,5.0,0.0
1690,36.0,0.0,150.0,10.0,0.0
1691,72.0,48.0,90.0,5.0,0.0
1692,67.0,0.0,150.0,1.0,0.0
1693,60.0,0.0,150.0,1.0,0.0
1694,64.0,12.0,150.0,6.0,0.0
1695,48.0,0.0,150.0,8.0,0.0
1696,76.0,60.0,150.0,0.0,0.0
1697,70.0,0.0,150.0,0.0,0.0
1698,55.0,0.0,150.0,7.0,0.0
1699,70.0,168.0,90.0,5.0,0.0
1700,69.0,0.0,150.0,5.0,0.0
1701,65.0,0.0,150.0,6.0,0.0
1702,65.0,0.0,150.0,1.0,0.0
1703,38.0,0.0,150.0,10.0,0.0
1704,53.0,228.0,150.0,1.0,0.0
1705,50.0,0.0,150.0,8.0,0.0
1706,53.0,12.0,150.0,7.0,0.0
1707,77.0,0.0,150.0,0.0,0.0
1708,69.0,0.0,150.0,0.0,0.0
1709,69.0,0.0,150.0,5.0,0.0
1710,50.0,0.0,150.0,8.0,0.0
1711,53.0,0.0,150.0,1.0,0.0
1712,65.0,0.0,150.0,1.0,0.0
1713,53.0,0.0,150.0,7.0,0.0
1714,77.0,228.0,150.0,0.0,0.0
1715,38.0,12.0,150.0,10.0,0.0
1716,69.0,0.0,150.0,0.0,0.0
1717,65.0,0.0,150.0,6.0,0.0
1718,34.0,0.0,150.0,10.0,0.0
1719,70.0,228.0,150.0,0.0,0.0
1720,74.0,0.0,150.0,0.0,0.0
1721,65.0,0.0,150.0,1.0,0.0
1722,46.0,0.0,150.0,8.0,0.0
1723,74.0,0.0,150.0,5.0,0.0
1724,65.0,12.0,150.0,6.0,0.0
1725,58.0,0.0,150.0,7.0,0.0
1726,53.0,0.0,150.0,1.0,0.0
1727,74.0,0.0,150.0,5.0,0.0
1728,65.0,12.0,150.0,6.0,0.0
1729,70.0,228.0,150.0,0.0,0.0
1730,74.0,0.0,150.0,0.0,0.0
1731,53.0,0.0,150.0,1.0,0.0
1732,65.0,0.0,150.0,1.0,0.0
1733,58.0,0.0,150.0,7.0,0.0
1734,34.0,0.0,150.0,10.0,0.0
1735,46.0,0.0,150.0,8.0,0.0
1736,72.0,0.0,150.0,5.0,0.0
1737,69.0,0.0,150.0,0.0,0.0
1738,72.0,228.0,150.0,0.0,0.0
1739,65.0,12.0,150.0,6.0,0.0
1740,36.0,0.0,150.0,10.0,0.0
1741,57.0,0.0,150.0,7.0,0.0
1742,48.0,0.0,150.0,8.0,0.0
1743,53.0,0.0,150.0,1.0,0.0
1744,65.0,0.0,150.0,1.0,0.0
1745,48.0,0.0,150.0,8.0,0.0
1746,36.0,0.0,150.0,10.0,0.0
1747,65.0,12.0,150.0,6.0,0.0
1748,72.0,0.0,150.0,0.0,0.0
1749,69.0,0.0,150.0,0.0,0.0
1750,53.0,228.0,150.0,1.0,0.0
1751,65.0,0.0,150.0,1.0,0.0
1752,72.0,0.0,150.0,5.0,0.0
1753,57.0,0.0,150.0,7.0,0.0
1754,60.0,0.0,150.0,1.0,0.0
1755,64.0,0.0,150.0,5.0,0.0
1756,70.0,228.0,150.0,0.0,0.0
1757,76.0,0.0,150.0,0.0,0.0
1758,67.0,0.0,150.0,1.0,0.0
1759,55.0,0.0,150.0,7.0,0.0
1760,36.0,0.0,150.0,10.0,0.0
1761,58.0,12.0,150.0,6.0,0.0
1762,48.0,0.0,150.0,8.0,0.0
1763,55.0,12.0,150.0,7.0,0.0
1764,64.0,0.0,150.0,5.0,0.0
1765,58.0,0.0,150.0,6.0,0.0
1766,70.0,468.0,150.0,0.0,0.0
1767,76.0,0.0,150.0,0.0,0.0
1768,60.0,0.0,150.0,1.0,0.0
1769,36.0,0.0,150.0,10.0,0.0
1770,48.0,0.0,150.0,8.0,0.0
1771,67.0,0.0,150.0,1.0,0.0
1772,41.0,0.0,390.0,8.0,0.0
1773,53.0,0.0,390.0,7.0,0.0
1774,65.0,0.0,390.0,5.0,0.0
1775,77.0,216.0,390.0,0.0,0.0
1776,69.0,0.0,390.0,0.0,0.0
1777,29.0,0.0,390.0,10.0,0.0
1778,57.0,0.0,390.0,6.0,0.0
1779,60.0,0.0,390.0,1.0,0.0
1780,65.0,0.0,390.0,1.0,0.0
1781,72.0,78.0,120.0,5.0,0.0
1782,72.0,0.0,120.0,6.0,0.0
1783,69.0,0.0,90.0,6.0,0.0
1784,69.0,120.0,90.0,5.0,0.0
1785,72.0,120.0,90.0,5.0,0.0
1786,72.0,0.0,90.0,6.0,0.0
1787,69.0,426.0,90.0,5.0,0.0
1788,69.0,0.0,90.0,6.0,0.0
1789,77.0,216.0,390.0,6.0,0.0
1790,77.0,0.0,390.0,5.0,0.0
1791,60.0,0.0,120.0,7.0,0.0
1792,72.0,0.0,120.0,0.0,0.0
1793,60.0,30.0,300.0,1.0,0.0
1794,60.0,0.0,120.0,8.0,0.0
1795,72.0,78.0,120.0,6.0,0.0
1796,72.0,0.0,120.0,5.0,0.0
1797,48.0,0.0,120.0,10.0,0.0
1798,69.0,0.0,90.0,0.0,0.0
1799,57.0,0.0,90.0,7.0,0.0
1800,69.0,0.0,90.0,5.0,0.0
1801,45.0,0.0,90.0,10.0,0.0
1802,69.0,0.0,90.0,6.0,0.0
1803,57.0,90.0,90.0,8.0,0.0
1804,72.0,0.0,90.0,5.0,0.0
1805,48.0,0.0,90.0,10.0,0.0
1806,72.0,0.0,90.0,0.0,0.0
1807,60.0,120.0,90.0,8.0,0.0
1808,60.0,0.0,90.0,7.0,0.0
1809,72.0,0.0,90.0,6.0,0.0
1810,69.0,0.0,90.0,6.0,0.0
1811,45.0,0.0,90.0,10.0,0.0
1812,57.0,0.0,90.0,7.0,0.0
1813,57.0,0.0,90.0,8.0,0.0
1814,57.0,408.0,90.0,1.0,0.0
1815,69.0,18.0,90.0,0.0,0.0
1816,69.0,0.0,90.0,5.0,0.0
1817,65.0,0.0,390.0,5.0,0.0
1818,53.0,0.0,390.0,8.0,0.0
1819,53.0,0.0,390.0,1.0,0.0
1820,65.0,0.0,390.0,6.0,0.0
1821,53.0,384.0,390.0,7.0,0.0
1822,65.0,0.0,390.0,0.0,0.0
1823,41.0,0.0,390.0,10.0,0.0
1824,53.0,0.0,300.0,5.0,0.0
1825,53.0,0.0,300.0,6.0,0.0
1826,65.0,0.0,300.0,0.0,0.0
1827,53.0,168.0,300.0,1.0,0.0
1828,29.0,0.0,300.0,10.0,0.0
1829,41.0,0.0,300.0,8.0,0.0
1830,53.0,0.0,300.0,7.0,0.0
1831,53.0,0.0,90.0,1.0,0.0
1832,53.0,0.0,90.0,7.0,0.0
1833,41.0,0.0,90.0,8.0,0.0
1834,65.0,0.0,90.0,0.0,0.0
1835,29.0,0.0,90.0,10.0,0.0
1836,53.0,408.0,90.0,5.0,0.0
1837,53.0,0.0,90.0,6.0,0.0
1838,65.0,0.0,390.0,0.0,0.0
1839,53.0,0.0,390.0,6.0,0.0
1840,41.0,0.0,390.0,8.0,0.0
1841,53.0,0.0,390.0,1.0,0.0
1842,53.0,816.0,390.0,5.0,0.0
1843,29.0,0.0,390.0,10.0,0.0
1844,53.0,0.0,390.0,7.0,0.0
1845,53.0,72.0,240.0,3.0,0.0
1846,65.0,168.0,300.0,2.0,0.0
1847,60.0,240.0,240.0,3.0,0.0
1848,65.0,240.0,480.0,2.0,0.0
1849,57.0,192.0,240.0,3.0,0.0
1850,60.0,48.0,180.0,3.0,0.0
1851,69.0,240.0,480.0,2.0,0.0
1852,53.0,240.0,240.0,3.0,0.0
1853,60.0,0.0,240.0,3.0,0.0
1854,57.0,192.0,240.0,3.0,0.0
1855,72.0,120.0,480.0,2.0,0.0
1856,60.0,48.0,180.0,3.0,0.0
1857,72.0,120.0,120.0,2.0,0.0
1858,53.0,168.0,240.0,3.0,0.0
1859,70.0,72.0,300.0,2.0,0.0
1860,58.0,120.0,240.0,3.0,0.0
1861,69.0,120.0,120.0,2.0,0.0
1862,55.0,168.0,240.0,3.0,0.0
1863,67.0,24.0,300.0,2.0,0.0
1864,58.0,168.0,180.0,3.0,0.0
1865,53.0,168.0,240.0,3.0,0.0
1866,65.0,120.0,120.0,2.0,0.0
1867,64.0,72.0,300.0,2.0,0.0
1868,58.0,120.0,240.0,3.0,0.0
1869,62.0,120.0,120.0,2.0,0.0
1870,55.0,168.0,240.0,3.0,0.0
1871,60.0,24.0,300.0,2.0,0.0
1872,58.0,288.0,180.0,3.0,0.0
1873,53.0,144.0,240.0,3.0,0.0
1874,67.0,96.0,390.0,2.0,0.0
1875,64.0,240.0,240.0,3.0,0.0
1876,58.0,192.0,240.0,3.0,0.0
1877,67.0,192.0,480.0,2.0,0.0
1878,64.0,48.0,180.0,3.0,0.0
1879,70.0,192.0,480.0,2.0,0.0
1880,53.0,240.0,180.0,3.0,0.0
1881,64.0,48.0,180.0,3.0,0.0
1882,74.0,240.0,480.0,2.0,0.0
1883,58.0,240.0,180.0,3.0,0.0
1884,64.0,48.0,180.0,3.0,0.0
1885,72.0,0.0,720.0,2.0,0.0
1886,53.0,240.0,240.0,3.0,0.0
1887,65.0,240.0,240.0,3.0,0.0
1888,57.0,192.0,240.0,3.0,0.0
1889,69.0,240.0,240.0,2.0,0.0
1890,65.0,48.0,180.0,3.0,0.0
1891,72.0,96.0,390.0,2.0,0.0
1892,53.0,144.0,240.0,3.0,0.0
1893,65.0,240.0,240.0,3.0,0.0
1894,57.0,192.0,240.0,3.0,0.0
1895,65.0,360.0,180.0,3.0,0.0
1896,65.0,936.0,300.0,2.0,0.0
1897,77.0,624.0,780.0,2.0,0.0
1898,65.0,0.0,780.0,2.0,0.0
1899,45.0,0.0,900.0,3.0,0.0
1900,33.0,432.0,900.0,3.0,0.0
1901,64.0,528.0,870.0,2.0,0.0
1902,76.0,0.0,870.0,2.0,0.0
1903,34.0,0.0,900.0,3.0,0.0
1904,46.0,336.0,900.0,3.0,0.0
1905,62.0,0.0,780.0,2.0,0.0
1906,74.0,624.0,780.0,2.0,0.0
1907,48.0,240.0,900.0,3.0,0.0
1908,36.0,0.0,900.0,3.0,0.0
1909,72.0,0.0,660.0,2.0,0.0
1910,60.0,120.0,660.0,2.0,0.0
1911,50.0,312.0,300.0,3.0,0.0
1912,38.0,0.0,300.0,3.0,0.0
1913,71.0,0.0,390.0,2.0,0.0
1914,59.0,168.0,390.0,2.0,0.0
1915,40.0,312.0,300.0,3.0,0.0
1916,52.0,0.0,300.0,3.0,0.0
1917,58.0,168.0,390.0,2.0,0.0
1918,70.0,0.0,390.0,2.0,0.0
1919,41.0,0.0,300.0,3.0,0.0
1920,53.0,168.0,300.0,3.0,0.0
1921,69.0,240.0,240.0,2.0,0.0
1922,70.0,240.0,240.0,2.0,0.0
1923,71.0,240.0,240.0,2.0,0.0
1924,74.0,144.0,240.0,2.0,0.0
1925,53.0,384.0,960.0,3.0,0.0
1926,48.0,0.0,1350.0,3.0,0.0
1927,72.0,240.0,150.0,2.0,0.0
1928,70.0,240.0,150.0,2.0,0.0
1929,69.0,96.0,150.0,2.0,0.0
1930,67.0,0.0,390.0,2.0,0.0
1931,52.0,96.0,390.0,3.0,0.0
1932,67.0,0.0,240.0,6.0,0.0
1933,70.0,240.0,240.0,5.0,0.0
1934,69.0,0.0,240.0,5.0,0.0
1935,65.0,240.0,240.0,6.0,0.0
1936,64.0,0.0,240.0,6.0,0.0
1937,67.0,240.0,240.0,5.0,0.0
1938,60.0,0.0,3840.0,7.0,0.0
1939,41.0,0.0,7680.0,10.0,0.0
1940,53.0,0.0,7680.0,8.0,0.0
1941,65.0,96.0,390.0,2.0,0.0
1942,65.0,0.0,1920.0,5.0,0.0
1943,53.0,144.0,240.0,3.0,0.0
1944,65.0,0.0,1920.0,6.0,0.0
1945,57.0,120.0,1920.0,7.0,0.0
1946,60.0,60.0,240.0,3.0,0.0
1947,57.0,60.0,240.0,3.0,0.0
1948,67.0,60.0,60.0,2.0,0.0
1949,65.0,60.0,60.0,2.0,0.0
1950,67.0,60.0,60.0,2.0,0.0
1951,65.0,0.0,60.0,2.0,0.0
1952,60.0,48.0,180.0,3.0,0.0
1953,67.0,60.0,60.0,2.0,0.0
1954,65.0,60.0,60.0,2.0,0.0
1955,67.0,12.0,60.0,2.0,0.0
1956,65.0,240.0,60.0,2.0,0.0
1957,53.0,240.0,240.0,3.0,0.0
1958,69.0,240.0,480.0,2.0,0.0
1959,60.0,0.0,240.0,3.0,0.0
1960,57.0,144.0,240.0,3.0,0.0
1961,72.0,48.0,390.0,2.0,0.0
1962,60.0,48.0,180.0,3.0,0.0
1963,53.0,168.0,240.0,3.0,0.0
1964,72.0,120.0,120.0,2.0,0.0
1965,55.0,0.0,1920.0,6.0,0.0
1966,67.0,240.0,1920.0,5.0,0.0
1967,55.0,0.0,1920.0,7.0,0.0
1968,70.0,72.0,300.0,2.0,0.0
1969,58.0,120.0,240.0,3.0,0.0
1970,55.0,168.0,240.0,3.0,0.0
1971,69.0,120.0,120.0,2.0,0.0
1972,67.0,24.0,300.0,2.0,0.0
1973,58.0,168.0,180.0,3.0,0.0
1974,53.0,168.0,240.0,3.0,0.0
1975,65.0,120.0,120.0,2.0,0.0
1976,64.0,72.0,300.0,2.0,0.0
1977,58.0,120.0,240.0,3.0,0.0
1978,55.0,168.0,240.0,3.0,0.0
1979,62.0,120.0,120.0,2.0,0.0
1980,60.0,24.0,300.0,2.0,0.0
1981,58.0,48.0,180.0,3.0,0.0
1982,70.0,0.0,1920.0,5.0,0.0
1983,64.0,0.0,15.0,6.0,0.0
1984,67.0,0.0,1920.0,6.0,0.0
1985,67.0,96.0,390.0,2.0,0.0
1986,55.0,0.0,1920.0,7.0,0.0
1987,58.0,0.0,1920.0,7.0,0.0
1988,53.0,144.0,240.0,3.0,0.0
1989,64.0,60.0,240.0,3.0,0.0
1990,69.0,60.0,60.0,2.0,0.0
1991,58.0,0.0,240.0,3.0,0.0
1992,67.0,60.0,60.0,2.0,0.0
1993,69.0,60.0,60.0,2.0,0.0
1994,67.0,60.0,60.0,2.0,0.0
1995,69.0,60.0,60.0,2.0,0.0
1996,64.0,48.0,180.0,3.0,0.0
1997,67.0,60.0,60.0,2.0,0.0
1998,69.0,12.0,60.0,2.0,0.0
1999,67.0,240.0,60.0,2.0,0.0
2000,70.0,240.0,480.0,2.0,0.0
2001,53.0,240.0,240.0,3.0,0.0
2002,64.0,0.0,240.0,3.0,0.0
2003,58.0,192.0,240.0,3.0,0.0
2004,74.0,0.0,480.0,2.0,0.0
2005,64.0,48.0,180.0,3.0,0.0
2006,72.0,0.0,720.0,2.0,0.0
2007,65.0,192.0,1920.0,6.0,0.0
2008,57.0,0.0,1920.0,7.0,0.0
2009,69.0,0.0,1920.0,5.0,0.0
2010,60.0,240.0,15.0,5.0,0.0
2011,53.0,240.0,240.0,3.0,0.0
2012,65.0,240.0,240.0,3.0,0.0
2013,57.0,192.0,240.0,3.0,0.0
2014,65.0,48.0,180.0,3.0,0.0
2015,69.0,240.0,240.0,2.0,0.0
2016,72.0,96.0,390.0,2.0,0.0
2017,53.0,144.0,240.0,3.0,0.0
2018,65.0,240.0,240.0,3.0,0.0
2019,57.0,192.0,240.0,3.0,0.0
2020,65.0,48.0,180.0,3.0,0.0
2021,65.0,144.0,180.0,2.0,0.0
2022,67.0,120.0,90.0,2.0,0.0
2023,69.0,120.0,90.0,2.0,0.0
2024,70.0,120.0,90.0,2.0,0.0
2025,72.0,120.0,90.0,2.0,0.0
2026,74.0,120.0,90.0,2.0,0.0
2027,76.0,144.0,90.0,2.0,0.0
2028,77.0,120.0,120.0,2.0,0.0
2029,79.0,120.0,120.0,2.0,0.0
2030,81.0,120.0,120.0,2.0,0.0
2031,79.0,144.0,120.0,2.0,0.0
2032,77.0,240.0,150.0,2.0,0.0
2033,76.0,288.0,150.0,2.0,0.0
2034,46.0,48.0,180.0,4.0,0.0
2035,65.0,48.0,390.0,3.0,0.0
2036,76.0,96.0,240.0,2.0,0.0
2037,74.0,24.0,180.0,2.0,0.0
2038,48.0,48.0,90.0,4.0,0.0
2039,50.0,120.0,90.0,4.0,0.0
2040,52.0,120.0,90.0,4.0,0.0
2041,74.0,240.0,1110.0,2.0,0.0
2042,65.0,72.0,780.0,3.0,0.0
2043,53.0,120.0,90.0,4.0,0.0
2044,55.0,120.0,90.0,4.0,0.0
2045,57.0,144.0,90.0,4.0,0.0
2046,58.0,120.0,120.0,4.0,0.0
2047,57.0,48.0,120.0,4.0,0.0
2048,58.0,120.0,120.0,4.0,0.0
2049,57.0,144.0,120.0,4.0,0.0
2050,58.0,0.0,150.0,4.0,0.0
2051,57.0,288.0,150.0,4.0,0.0
2052,72.0,0.0,150.0,2.0,0.0
2053,72.0,96.0,240.0,2.0,0.0
2054,65.0,48.0,390.0,3.0,0.0
2055,50.0,48.0,180.0,4.0,0.0
2056,70.0,24.0,180.0,2.0,0.0
2057,52.0,48.0,90.0,4.0,0.0
2058,53.0,120.0,90.0,4.0,0.0
2059,70.0,0.0,1110.0,2.0,0.0
2060,55.0,120.0,90.0,4.0,0.0
2061,65.0,72.0,780.0,3.0,0.0
2062,57.0,120.0,90.0,4.0,0.0
2063,58.0,120.0,90.0,4.0,0.0
2064,60.0,144.0,90.0,4.0,0.0
2065,62.0,120.0,120.0,4.0,0.0
2066,60.0,48.0,120.0,4.0,0.0
2067,62.0,120.0,120.0,4.0,0.0
2068,60.0,144.0,120.0,4.0,0.0
2069,62.0,240.0,150.0,4.0,0.0
2070,69.0,336.0,150.0,2.0,0.0
2071,60.0,0.0,150.0,4.0,0.0
2072,69.0,144.0,240.0,2.0,0.0
2073,58.0,240.0,390.0,4.0,0.0
2074,67.0,0.0,150.0,2.0,0.0
2075,70.0,240.0,150.0,2.0,0.0
2076,55.0,0.0,390.0,4.0,0.0
2077,67.0,156.0,150.0,2.0,0.0
2078,69.0,60.0,60.0,2.0,0.0
2079,60.0,48.0,390.0,4.0,0.0
2080,67.0,60.0,60.0,2.0,0.0
2081,69.0,60.0,60.0,2.0,0.0
2082,67.0,144.0,60.0,2.0,0.0
2083,65.0,108.0,180.0,2.0,0.0
2084,67.0,60.0,60.0,2.0,0.0
2085,48.0,48.0,390.0,4.0,0.0
2086,65.0,60.0,60.0,2.0,0.0
2087,67.0,60.0,60.0,2.0,0.0
2088,65.0,144.0,60.0,2.0,0.0
2089,64.0,144.0,180.0,2.0,0.0
2090,53.0,72.0,390.0,4.0,0.0
2091,65.0,120.0,90.0,2.0,0.0
2092,60.0,120.0,90.0,2.0,0.0
2093,62.0,48.0,90.0,2.0,0.0
2094,64.0,120.0,90.0,2.0,0.0
2095,65.0,120.0,90.0,2.0,0.0
2096,67.0,120.0,90.0,2.0,0.0
2097,69.0,120.0,90.0,2.0,0.0
2098,70.0,120.0,90.0,2.0,0.0
2099,72.0,120.0,90.0,2.0,0.0
2100,74.0,120.0,90.0,2.0,0.0
2101,76.0,120.0,90.0,2.0,0.0
2102,77.0,120.0,90.0,2.0,0.0
2103,55.0,72.0,150.0,4.0,0.0
2104,48.0,0.0,150.0,4.0,0.0
2105,76.0,48.0,90.0,2.0,0.0
2106,74.0,120.0,90.0,2.0,0.0
2107,72.0,48.0,90.0,2.0,0.0
2108,48.0,72.0,150.0,4.0,0.0
2109,52.0,0.0,150.0,4.0,0.0
2110,70.0,168.0,90.0,2.0,0.0
2111,69.0,240.0,150.0,2.0,0.0
2112,53.0,0.0,150.0,4.0,0.0
2113,50.0,0.0,150.0,4.0,0.0
2114,69.0,240.0,150.0,2.0,0.0
2115,50.0,0.0,150.0,4.0,0.0
2116,53.0,0.0,150.0,4.0,0.0
2117,74.0,0.0,150.0,2.0,0.0
2118,46.0,240.0,150.0,4.0,0.0
2119,58.0,0.0,150.0,4.0,0.0
2120,58.0,0.0,150.0,4.0,0.0
2121,46.0,240.0,150.0,4.0,0.0
2122,74.0,0.0,150.0,2.0,0.0
2123,57.0,240.0,150.0,4.0,0.0
2124,48.0,0.0,150.0,4.0,0.0
2125,72.0,0.0,150.0,2.0,0.0
2126,57.0,0.0,150.0,4.0,0.0
2127,72.0,240.0,150.0,2.0,0.0
2128,48.0,0.0,150.0,4.0,0.0
2129,64.0,0.0,150.0,2.0,0.0
2130,55.0,0.0,150.0,4.0,0.0
2131,48.0,240.0,150.0,4.0,0.0
2132,64.0,192.0,150.0,2.0,0.0
2133,48.0,0.0,150.0,4.0,0.0
2134,55.0,0.0,150.0,4.0,0.0
2135,65.0,0.0,390.0,2.0,0.0
2136,53.0,72.0,390.0,4.0,0.0
2137,65.0,120.0,90.0,5.0,0.0
2138,60.0,120.0,90.0,5.0,0.0
2139,62.0,48.0,90.0,5.0,0.0
2140,64.0,120.0,90.0,5.0,0.0
2141,65.0,120.0,90.0,5.0,0.0
2142,67.0,120.0,90.0,5.0,0.0
2143,69.0,120.0,90.0,5.0,0.0
2144,70.0,120.0,90.0,5.0,0.0
2145,72.0,120.0,90.0,5.0,0.0
2146,74.0,120.0,90.0,5.0,0.0
2147,76.0,120.0,90.0,5.0,0.0
2148,77.0,120.0,90.0,5.0,0.0
2149,67.0,12.0,150.0,1.0,0.0
2150,60.0,0.0,150.0,1.0,0.0
2151,58.0,0.0,150.0,7.0,0.0
2152,36.0,60.0,150.0,10.0,0.0
2153,48.0,0.0,150.0,8.0,0.0
2154,76.0,0.0,150.0,0.0,0.0
2155,76.0,48.0,90.0,5.0,0.0
2156,67.0,0.0,150.0,6.0,0.0
2157,70.0,0.0,150.0,0.0,0.0
2158,74.0,120.0,90.0,5.0,0.0
2159,70.0,0.0,150.0,0.0,0.0
2160,64.0,60.0,150.0,6.0,0.0
2161,36.0,0.0,150.0,10.0,0.0
2162,72.0,48.0,90.0,5.0,0.0
2163,55.0,0.0,150.0,7.0,0.0
2164,76.0,12.0,150.0,0.0,0.0
2165,60.0,0.0,150.0,1.0,0.0
2166,48.0,0.0,150.0,8.0,0.0
2167,67.0,0.0,150.0,1.0,0.0
2168,70.0,168.0,90.0,5.0,0.0
2169,53.0,0.0,150.0,7.0,0.0
2170,53.0,0.0,150.0,1.0,0.0
2171,50.0,0.0,150.0,8.0,0.0
2172,65.0,12.0,150.0,1.0,0.0
2173,77.0,0.0,150.0,0.0,0.0
2174,69.0,0.0,150.0,0.0,0.0
2175,38.0,0.0,150.0,10.0,0.0
2176,69.0,0.0,150.0,5.0,0.0
2177,65.0,228.0,150.0,6.0,0.0
2178,53.0,0.0,150.0,7.0,0.0
2179,69.0,0.0,150.0,0.0,0.0
2180,65.0,0.0,150.0,1.0,0.0
2181,77.0,0.0,150.0,0.0,0.0
2182,38.0,0.0,150.0,10.0,0.0
2183,53.0,12.0,150.0,1.0,0.0
2184,50.0,228.0,150.0,8.0,0.0
2185,69.0,0.0,150.0,5.0,0.0
2186,65.0,0.0,150.0,6.0,0.0
2187,74.0,0.0,150.0,0.0,0.0
2188,70.0,0.0,150.0,0.0,0.0
2189,53.0,12.0,150.0,1.0,0.0
2190,65.0,0.0,150.0,1.0,0.0
2191,65.0,0.0,150.0,6.0,0.0
2192,46.0,0.0,150.0,8.0,0.0
2193,58.0,0.0,150.0,7.0,0.0
2194,74.0,0.0,150.0,5.0,0.0
2195,34.0,228.0,150.0,10.0,0.0
2196,74.0,228.0,150.0,5.0,0.0
2197,53.0,12.0,150.0,1.0,0.0
2198,65.0,0.0,150.0,1.0,0.0
2199,65.0,0.0,150.0,6.0,0.0
2200,46.0,0.0,150.0,8.0,0.0
2201,70.0,0.0,150.0,0.0,0.0
2202,34.0,0.0,150.0,10.0,0.0
2203,74.0,0.0,150.0,0.0,0.0
2204,58.0,0.0,150.0,7.0,0.0
2205,72.0,0.0,150.0,0.0,0.0
2206,53.0,0.0,150.0,1.0,0.0
2207,65.0,0.0,150.0,1.0,0.0
2208,36.0,0.0,150.0,10.0,0.0
2209,72.0,0.0,150.0,5.0,0.0
2210,65.0,0.0,150.0,6.0,0.0
2211,69.0,12.0,150.0,0.0,0.0
2212,57.0,228.0,150.0,7.0,0.0
2213,48.0,0.0,150.0,8.0,0.0
2214,72.0,0.0,150.0,0.0,0.0
2215,48.0,0.0,150.0,8.0,0.0
2216,65.0,12.0,150.0,1.0,0.0
2217,69.0,0.0,150.0,0.0,0.0
2218,36.0,0.0,150.0,10.0,0.0
2219,53.0,0.0,150.0,1.0,0.0
2220,65.0,228.0,150.0,6.0,0.0
2221,57.0,0.0,150.0,7.0,0.0
2222,72.0,0.0,150.0,5.0,0.0
2223,48.0,0.0,150.0,8.0,0.0
2224,36.0,0.0,150.0,10.0,0.0
2225,76.0,0.0,150.0,0.0,0.0
2226,70.0,0.0,150.0,0.0,0.0
2227,55.0,228.0,150.0,7.0,0.0
2228,64.0,0.0,150.0,5.0,0.0
2229,58.0,0.0,150.0,6.0,0.0
2230,67.0,12.0,150.0,1.0,0.0
2231,60.0,0.0,150.0,1.0,0.0
2232,55.0,468.0,150.0,7.0,0.0
2233,36.0,0.0,150.0,10.0,0.0
2234,67.0,0.0,150.0,1.0,0.0
2235,60.0,0.0,150.0,1.0,0.0
2236,76.0,12.0,150.0,0.0,0.0
2237,64.0,0.0,150.0,5.0,0.0
2238,70.0,0.0,150.0,0.0,0.0
2239,58.0,0.0,150.0,6.0,0.0
2240,48.0,0.0,150.0,8.0,0.0
2241,65.0,0.0,390.0,1.0,0.0
2242,60.0,0.0,390.0,1.0,0.0
2243,77.0,0.0,390.0,0.0,0.0
2244,69.0,0.0,390.0,0.0,0.0
2245,29.0,0.0,390.0,10.0,0.0
2246,41.0,0.0,390.0,8.0,0.0
2247,65.0,0.0,390.0,5.0,0.0
2248,53.0,0.0,390.0,7.0,0.0
2249,57.0,216.0,390.0,6.0,0.0
2250,72.0,78.0,120.0,6.0,0.0
2251,72.0,0.0,120.0,5.0,0.0
2252,69.0,120.0,90.0,5.0,0.0
2253,69.0,0.0,90.0,6.0,0.0
2254,72.0,0.0,90.0,6.0,0.0
2255,72.0,120.0,90.0,5.0,0.0
2256,69.0,0.0,90.0,6.0,0.0
2257,69.0,426.0,90.0,5.0,0.0
2258,77.0,216.0,390.0,6.0,0.0
2259,77.0,0.0,390.0,5.0,0.0
2260,72.0,78.0,120.0,6.0,0.0
2261,60.0,30.0,300.0,1.0,0.0
2262,72.0,0.0,120.0,0.0,0.0
2263,48.0,0.0,120.0,10.0,0.0
2264,60.0,0.0,120.0,8.0,0.0
2265,60.0,0.0,120.0,7.0,0.0
2266,72.0,0.0,120.0,5.0,0.0
2267,69.0,18.0,90.0,5.0,0.0
2268,45.0,0.0,90.0,10.0,0.0
2269,57.0,0.0,90.0,7.0,0.0
2270,57.0,72.0,90.0,8.0,0.0
2271,69.0,0.0,90.0,0.0,0.0
2272,69.0,0.0,90.0,6.0,0.0
2273,48.0,0.0,90.0,10.0,0.0
2274,72.0,18.0,90.0,6.0,0.0
2275,60.0,102.0,90.0,8.0,0.0
2276,72.0,0.0,90.0,0.0,0.0
2277,72.0,0.0,90.0,5.0,0.0
2278,60.0,0.0,90.0,7.0,0.0
2279,57.0,0.0,90.0,7.0,0.0
2280,69.0,0.0,90.0,0.0,0.0
2281,69.0,18.0,90.0,6.0,0.0
2282,57.0,0.0,90.0,1.0,0.0
2283,69.0,0.0,90.0,5.0,0.0
2284,57.0,0.0,90.0,8.0,0.0
2285,45.0,408.0,90.0,10.0,0.0
2286,53.0,384.0,390.0,1.0,0.0
2287,65.0,0.0,390.0,6.0,0.0
2288,65.0,0.0,390.0,0.0,0.0
2289,53.0,0.0,390.0,7.0,0.0
2290,41.0,0.0,390.0,10.0,0.0
2291,65.0,0.0,390.0,5.0,0.0
2292,53.0,0.0,390.0,8.0,0.0
2293,53.0,0.0,300.0,1.0,0.0
2294,53.0,0.0,300.0,5.0,0.0
2295,65.0,0.0,300.0,0.0,0.0
2296,29.0,168.0,300.0,10.0,0.0
2297,53.0,0.0,300.0,6.0,0.0
2298,41.0,0.0,300.0,8.0,0.0
2299,53.0,0.0,300.0,7.0,0.0
2300,65.0,408.0,90.0,0.0,0.0
2301,53.0,0.0,90.0,1.0,0.0
2302,41.0,0.0,90.0,8.0,0.0
2303,29.0,0.0,90.0,10.0,0.0
2304,53.0,0.0,90.0,6.0,0.0
2305,53.0,0.0,90.0,7.0,0.0
2306,53.0,0.0,90.0,5.0,0.0
2307,53.0,0.0,390.0,5.0,0.0
2308,65.0,0.0,390.0,0.0,0.0
2309,53.0,0.0,390.0,1.0,0.0
2310,53.0,0.0,390.0,6.0,0.0
2311,53.0,0.0,390.0,7.0,0.0
2312,29.0,0.0,390.0,10.0,0.0
2313,41.0,216.0,390.0,8.0,0.0
2314,72.0,120.0,120.0,2.0,0.0
2315,69.0,120.0,120.0,2.0,0.0
2316,72.0,120.0,120.0,2.0,0.0
2317,69.0,384.0,120.0,2.0,0.0
2318,77.0,216.0,390.0,2.0,0.0
2319,72.0,120.0,120.0,2.0,0.0
2320,69.0,120.0,120.0,2.0,0.0
2321,72.0,120.0,120.0,2.0,0.0
2322,69.0,384.0,120.0,2.0,0.0
2323,65.0,480.0,390.0,2.0,0.0
2324,77.0,0.0,390.0,2.0,0.0
2325,57.0,1056.0,390.0,3.0,0.0
2326,60.0,0.0,390.0,3.0,0.0
2327,65.0,0.0,390.0,3.0,0.0
2328,57.0,0.0,960.0,3.0,0.0
2329,66.0,384.0,960.0,3.0,0.0
2330,78.0,0.0,960.0,2.0,0.0
2331,79.0,0.0,390.0,2.0,0.0
2332,58.0,0.0,390.0,3.0,0.0
2333,67.0,0.0,390.0,3.0,0.0
2334,60.0,0.0,15.0,3.0,0.0
2335,67.0,120.0,120.0,2.0,0.0
2336,64.0,120.0,120.0,2.0,0.0
2337,67.0,120.0,120.0,2.0,0.0
2338,64.0,384.0,120.0,2.0,0.0
2339,70.0,192.0,390.0,2.0,0.0
2340,67.0,120.0,90.0,2.0,0.0
2341,64.0,120.0,90.0,2.0,0.0
2342,67.0,120.0,90.0,2.0,0.0
2343,64.0,408.0,90.0,2.0,0.0
2344,60.0,480.0,390.0,2.0,0.0
2345,52.0,0.0,390.0,3.0,0.0
2346,67.0,0.0,390.0,3.0,0.0
2347,58.0,0.0,390.0,3.0,0.0
2348,60.0,0.0,390.0,3.0,0.0
2349,79.0,1056.0,390.0,2.0,0.0
2350,68.0,384.0,960.0,3.0,0.0
2351,52.0,0.0,960.0,3.0,0.0
2352,58.0,0.0,960.0,3.0,0.0
2353,80.0,0.0,960.0,2.0,0.0
2354,69.0,0.0,390.0,3.0,0.0
2355,60.0,0.0,15.0,3.0,0.0
2356,53.0,0.0,390.0,3.0,0.0
2357,81.0,0.0,390.0,2.0,0.0
2358,57.0,192.0,390.0,3.0,0.0
2359,72.0,120.0,90.0,2.0,0.0
2360,69.0,120.0,90.0,2.0,0.0
2361,72.0,120.0,90.0,2.0,0.0
2362,69.0,264.0,90.0,2.0,0.0
2363,77.0,96.0,390.0,2.0,0.0
2364,53.0,144.0,240.0,3.0,0.0
2365,57.0,120.0,240.0,3.0,0.0
2366,62.0,0.0,240.0,3.0,0.0
2367,77.0,120.0,120.0,2.0,0.0
2368,74.0,120.0,120.0,2.0,0.0
2369,57.0,0.0,240.0,3.0,0.0
2370,77.0,120.0,120.0,2.0,0.0
2371,74.0,240.0,120.0,2.0,0.0
2372,53.0,144.0,240.0,3.0,0.0
2373,81.0,96.0,390.0,2.0,0.0
2374,57.0,120.0,240.0,3.0,0.0
2375,79.0,120.0,120.0,2.0,0.0
2376,62.0,0.0,240.0,3.0,0.0
2377,77.0,120.0,120.0,2.0,0.0
2378,57.0,240.0,240.0,3.0,0.0
2379,76.0,120.0,120.0,2.0,0.0
2380,74.0,0.0,120.0,2.0,0.0
2381,72.0,0.0,960.0,2.0,0.0
2382,55.0,240.0,240.0,3.0,0.0
2383,65.0,0.0,1920.0,5.0,0.0
2384,43.0,0.0,4800.0,10.0,0.0
2385,55.0,240.0,4800.0,7.0,0.0
2386,62.0,240.0,1920.0,6.0,0.0
2387,55.0,0.0,4800.0,8.0,0.0
2388,62.0,240.0,240.0,3.0,0.0
2389,65.0,240.0,240.0,3.0,0.0
2390,62.0,240.0,240.0,3.0,0.0
2391,55.0,144.0,240.0,3.0,0.0
2392,71.0,96.0,390.0,2.0,0.0
2393,62.0,240.0,240.0,3.0,0.0
2394,65.0,192.0,240.0,3.0,0.0
2395,62.0,0.0,240.0,3.0,0.0
2396,79.0,48.0,180.0,2.0,0.0
2397,64.0,0.0,1920.0,5.0,0.0
2398,60.0,240.0,1920.0,6.0,0.0
2399,84.0,0.0,480.0,2.0,0.0
2400,55.0,240.0,240.0,3.0,0.0
2401,60.0,240.0,240.0,3.0,0.0
2402,83.0,240.0,480.0,2.0,0.0
2403,64.0,240.0,240.0,3.0,0.0
2404,60.0,0.0,240.0,3.0,0.0
2405,55.0,240.0,240.0,3.0,0.0
2406,81.0,0.0,480.0,2.0,0.0
2407,60.0,240.0,240.0,3.0,0.0
2408,79.0,96.0,390.0,2.0,0.0
2409,64.0,144.0,240.0,3.0,0.0
2410,60.0,0.0,240.0,3.0,0.0
2411,62.0,0.0,1920.0,5.0,0.0
2412,59.0,0.0,1920.0,6.0,0.0
2413,79.0,240.0,720.0,2.0,0.0
2414,55.0,240.0,240.0,3.0,0.0
2415,59.0,240.0,240.0,3.0,0.0
2416,62.0,0.0,240.0,3.0,0.0
2417,59.0,0.0,240.0,3.0,0.0
2418,78.0,0.0,240.0,2.0,0.0
2419,77.0,96.0,390.0,2.0,0.0
2420,56.0,144.0,240.0,3.0,0.0
2421,56.0,0.0,960.0,8.0,0.0
2422,44.0,0.0,960.0,10.0,0.0
2423,56.0,0.0,960.0,7.0,0.0
2424,59.0,240.0,240.0,3.0,0.0
2425,62.0,240.0,240.0,3.0,0.0
2426,59.0,240.0,240.0,3.0,0.0
2427,57.0,80.0,240.0,3.0,0.0
2428,64.0,0.0,390.0,6.0,0.0
2429,57.0,0.0,390.0,8.0,0.0
2430,45.0,0.0,390.0,10.0,0.0
2431,60.0,16.0,390.0,5.0,0.0
2432,76.0,0.0,240.0,2.0,0.0
2433,57.0,0.0,390.0,7.0,0.0
2434,77.0,64.0,90.0,2.0,0.0
2435,60.0,240.0,240.0,3.0,0.0
2436,76.0,80.0,90.0,2.0,0.0
2437,74.0,0.0,90.0,2.0,0.0
2438,76.0,240.0,240.0,2.0,0.0
2439,64.0,0.0,240.0,3.0,0.0
2440,60.0,0.0,240.0,3.0,0.0
2441,77.0,144.0,240.0,2.0,0.0
2442,67.0,0.0,390.0,5.0,0.0
2443,55.0,144.0,240.0,3.0,0.0
2444,60.0,0.0,390.0,7.0,0.0
2445,43.0,0.0,390.0,10.0,0.0
2446,79.0,96.0,150.0,2.0,0.0
2447,64.0,0.0,390.0,6.0,0.0
2448,55.0,96.0,390.0,8.0,0.0
2449,79.0,0.0,150.0,2.0,0.0
2450,60.0,144.0,240.0,3.0,0.0
2451,79.0,96.0,150.0,2.0,0.0
2452,64.0,144.0,240.0,3.0,0.0
2453,60.0,240.0,240.0,3.0,0.0
2454,79.0,96.0,150.0,2.0,0.0
2455,65.0,0.0,390.0,6.0,0.0
2456,53.0,0.0,240.0,3.0,0.0
2457,60.0,0.0,390.0,7.0,0.0
2458,41.0,0.0,390.0,10.0,0.0
2459,69.0,0.0,390.0,5.0,0.0
2460,53.0,16.0,390.0,8.0,0.0
2461,81.0,80.0,240.0,2.0,0.0
2462,57.0,240.0,240.0,3.0,0.0
2463,83.0,64.0,90.0,2.0,0.0
2464,81.0,80.0,90.0,2.0,0.0
2465,80.0,0.0,90.0,2.0,0.0
2466,81.0,0.0,240.0,2.0,0.0
2467,60.0,192.0,240.0,3.0,0.0
2468,57.0,240.0,240.0,3.0,0.0
2469,83.0,48.0,180.0,2.0,0.0
2470,52.0,0.0,240.0,3.0,0.0
2471,64.0,0.0,390.0,7.0,0.0
2472,40.0,0.0,390.0,10.0,0.0
2473,52.0,0.0,390.0,8.0,0.0
2474,72.0,0.0,390.0,5.0,0.0
2475,67.0,96.0,390.0,6.0,0.0
2476,84.0,144.0,240.0,2.0,0.0
2477,83.0,0.0,150.0,2.0,0.0
2478,55.0,144.0,240.0,3.0,0.0
2479,81.0,96.0,150.0,2.0,0.0
2480,60.0,144.0,240.0,3.0,0.0
2481,55.0,60.0,240.0,3.0,0.0
2482,79.0,96.0,150.0,2.0,0.0
2483,60.0,12.0,390.0,3.0,0.0
2484,57.0,0.0,390.0,3.0,0.0
2485,81.0,60.0,60.0,2.0,0.0
2486,79.0,60.0,60.0,2.0,0.0
2487,81.0,60.0,60.0,2.0,0.0
2488,79.0,144.0,60.0,2.0,0.0
2489,77.0,144.0,150.0,2.0,0.0
2490,79.0,60.0,60.0,2.0,0.0
2491,59.0,0.0,390.0,3.0,0.0
2492,55.0,12.0,390.0,3.0,0.0
2493,77.0,60.0,60.0,2.0,0.0
2494,79.0,60.0,60.0,2.0,0.0
2495,77.0,144.0,60.0,2.0,0.0
2496,76.0,144.0,150.0,2.0,0.0
2497,77.0,60.0,60.0,2.0,0.0
2498,53.0,0.0,390.0,3.0,0.0
2499,57.0,12.0,390.0,3.0,0.0
2500,76.0,60.0,60.0,2.0,0.0
2501,77.0,60.0,60.0,2.0,0.0
2502,76.0,144.0,60.0,2.0,0.0
2503,74.0,144.0,150.0,2.0,0.0
2504,76.0,60.0,60.0,2.0,0.0
2505,57.0,0.0,390.0,3.0,0.0
2506,54.0,12.0,390.0,3.0,0.0
2507,74.0,60.0,60.0,2.0,0.0
2508,76.0,60.0,60.0,2.0,0.0
2509,74.0,144.0,60.0,2.0,0.0
2510,72.0,468.0,150.0,2.0,0.0
2511,71.0,384.0,480.0,2.0,0.0
2512,55.0,96.0,390.0,3.0,0.0
2513,74.0,12.0,390.0,2.0,0.0
2514,67.0,0.0,150.0,5.0,0.0
2515,55.0,0.0,150.0,8.0,0.0
2516,67.0,240.0,150.0,6.0,0.0
2517,67.0,0.0,150.0,7.0,0.0
2518,43.0,0.0,150.0,10.0,0.0
2519,50.0,0.0,150.0,8.0,0.0
2520,62.0,0.0,150.0,7.0,0.0
2521,62.0,240.0,150.0,6.0,0.0
2522,38.0,0.0,150.0,10.0,0.0
2523,62.0,0.0,150.0,5.0,0.0
2524,55.0,0.0,150.0,8.0,0.0
2525,67.0,240.0,150.0,5.0,0.0
2526,67.0,0.0,150.0,7.0,0.0
2527,43.0,0.0,150.0,10.0,0.0
2528,67.0,0.0,150.0,6.0,0.0
2529,59.0,0.0,150.0,5.0,0.0
2530,47.0,0.0,150.0,8.0,0.0
2531,35.0,0.0,150.0,10.0,0.0
2532,59.0,240.0,150.0,7.0,0.0
2533,59.0,0.0,150.0,6.0,0.0
2534,62.0,0.0,150.0,7.0,0.0
2535,50.0,0.0,150.0,8.0,0.0
2536,62.0,0.0,150.0,6.0,0.0
2537,38.0,204.0,150.0,10.0,0.0
2538,62.0,0.0,150.0,5.0,0.0
2539,62.0,48.0,180.0,3.0,0.0
2540,55.0,48.0,390.0,6.0,0.0
2541,77.0,72.0,120.0,2.0,0.0
2542,55.0,0.0,390.0,3.0,0.0
2543,31.0,0.0,390.0,10.0,0.0
2544,55.0,0.0,390.0,5.0,0.0
2545,43.0,0.0,390.0,8.0,0.0
2546,55.0,0.0,390.0,7.0,0.0
2547,79.0,120.0,120.0,2.0,0.0
2548,60.0,48.0,180.0,3.0,0.0
2549,77.0,24.0,120.0,2.0,0.0
2550,76.0,192.0,120.0,2.0,0.0
2551,74.0,360.0,240.0,2.0,0.0
2552,59.0,48.0,180.0,3.0,0.0
2553,55.0,48.0,390.0,3.0,0.0
2554,65.0,48.0,180.0,3.0,0.0
2555,74.0,72.0,120.0,2.0,0.0
2556,76.0,120.0,120.0,2.0,0.0
2557,74.0,24.0,120.0,2.0,0.0
2558,64.0,48.0,180.0,3.0,0.0
2559,72.0,192.0,120.0,2.0,0.0
2560,71.0,336.0,240.0,2.0,0.0
2561,62.0,48.0,180.0,3.0,0.0
2562,55.0,96.0,1530.0,3.0,0.0
2563,62.0,24.0,180.0,3.0,0.0
2564,71.0,96.0,90.0,2.0,0.0
2565,67.0,120.0,90.0,2.0,0.0
2566,72.0,96.0,90.0,2.0,0.0
2567,64.0,24.0,180.0,3.0,0.0
2568,67.0,120.0,90.0,2.0,0.0
2569,74.0,96.0,90.0,2.0,0.0
2570,59.0,24.0,180.0,3.0,0.0
2571,67.0,120.0,90.0,2.0,0.0
2572,76.0,96.0,90.0,2.0,0.0
2573,60.0,24.0,180.0,3.0,0.0
2574,67.0,120.0,90.0,2.0,0.0
2575,77.0,96.0,90.0,2.0,0.0
2576,62.0,24.0,180.0,3.0,0.0
2577,67.0,120.0,90.0,2.0,0.0
2578,60.0,24.0,180.0,3.0,0.0
2579,76.0,96.0,90.0,2.0,0.0
2580,67.0,120.0,90.0,2.0,0.0
2581,59.0,486.0,180.0,3.0,0.0
2582,74.0,0.0,180.0,2.0,0.0
2583,64.0,0.0,2820.0,6.0,0.0
2584,48.0,120.0,3840.0,8.0,0.0
2585,60.0,48.0,2820.0,7.0,0.0
2586,36.0,0.0,3840.0,10.0,0.0
2587,36.0,0.0,390.0,3.0,0.0
2588,48.0,54.0,390.0,3.0,0.0
2589,67.0,0.0,2820.0,5.0,0.0
2590,60.0,120.0,90.0,2.0,0.0
2591,62.0,66.0,90.0,2.0,0.0
2592,64.0,120.0,90.0,2.0,0.0
2593,65.0,120.0,90.0,2.0,0.0
2594,67.0,120.0,90.0,2.0,0.0
2595,69.0,120.0,90.0,2.0,0.0
2596,71.0,120.0,90.0,2.0,0.0
2597,36.0,54.0,390.0,3.0,0.0
2598,72.0,120.0,90.0,2.0,0.0
2599,48.0,0.0,390.0,3.0,0.0
2600,67.0,120.0,90.0,2.0,0.0
2601,69.0,66.0,90.0,2.0,0.0
2602,71.0,120.0,90.0,2.0,0.0
2603,72.0,120.0,90.0,2.0,0.0
2604,74.0,120.0,90.0,2.0,0.0
2605,76.0,120.0,90.0,2.0,0.0
2606,77.0,162.0,90.0,2.0,0.0
2607,78.0,120.0,120.0,2.0,0.0
2608,36.0,0.0,390.0,3.0,0.0
2609,48.0,96.0,390.0,3.0,0.0
2610,79.0,120.0,120.0,2.0,0.0
2611,78.0,24.0,120.0,2.0,0.0
2612,79.0,120.0,120.0,2.0,0.0
2613,78.0,120.0,120.0,2.0,0.0
2614,79.0,120.0,120.0,2.0,0.0
2615,78.0,72.0,120.0,2.0,0.0
2616,79.0,120.0,120.0,2.0,0.0
2617,78.0,120.0,120.0,2.0,0.0
2618,60.0,48.0,300.0,6.0,0.0
2619,64.0,0.0,300.0,5.0,0.0
2620,55.0,0.0,300.0,7.0,0.0
2621,79.0,72.0,120.0,2.0,0.0
2622,81.0,120.0,120.0,2.0,0.0
2623,79.0,120.0,120.0,2.0,0.0
2624,55.0,48.0,300.0,6.0,0.0
2625,77.0,120.0,120.0,2.0,0.0
2626,52.0,0.0,300.0,7.0,0.0
2627,60.0,0.0,300.0,5.0,0.0
2628,76.0,72.0,120.0,2.0,0.0
2629,74.0,120.0,120.0,2.0,0.0
2630,72.0,0.0,120.0,2.0,0.0
2631,77.0,72.0,120.0,2.0,0.0
2632,62.0,48.0,180.0,3.0,0.0
2633,31.0,0.0,390.0,10.0,0.0
2634,55.0,0.0,390.0,3.0,0.0
2635,55.0,0.0,390.0,6.0,0.0
2636,55.0,0.0,390.0,5.0,0.0
2637,55.0,0.0,390.0,7.0,0.0
2638,43.0,48.0,390.0,8.0,0.0
2639,79.0,120.0,120.0,2.0,0.0
2640,77.0,24.0,120.0,2.0,0.0
2641,60.0,48.0,180.0,3.0,0.0
2642,76.0,192.0,120.0,2.0,0.0
2643,74.0,360.0,240.0,2.0,0.0
2644,59.0,48.0,180.0,3.0,0.0
2645,74.0,72.0,120.0,2.0,0.0
2646,65.0,48.0,180.0,3.0,0.0
2647,55.0,48.0,390.0,3.0,0.0
2648,76.0,120.0,120.0,2.0,0.0
2649,64.0,48.0,180.0,3.0,0.0
2650,74.0,24.0,120.0,2.0,0.0
2651,72.0,192.0,120.0,2.0,0.0
2652,71.0,336.0,240.0,2.0,0.0
2653,62.0,48.0,180.0,3.0,0.0
2654,71.0,96.0,90.0,2.0,0.0
2655,62.0,24.0,180.0,3.0,0.0
2656,55.0,96.0,1530.0,3.0,0.0
2657,67.0,120.0,90.0,2.0,0.0
2658,72.0,96.0,90.0,2.0,0.0
2659,64.0,24.0,180.0,3.0,0.0
2660,67.0,120.0,90.0,2.0,0.0
2661,74.0,96.0,90.0,2.0,0.0
2662,59.0,24.0,180.0,3.0,0.0
2663,67.0,120.0,90.0,2.0,0.0
2664,60.0,24.0,180.0,3.0,0.0
2665,76.0,96.0,90.0,2.0,0.0
2666,67.0,120.0,90.0,2.0,0.0
2667,62.0,24.0,180.0,3.0,0.0
2668,77.0,96.0,90.0,2.0,0.0
2669,67.0,120.0,90.0,2.0,0.0
2670,60.0,24.0,180.0,3.0,0.0
2671,76.0,96.0,90.0,2.0,0.0
2672,67.0,120.0,90.0,2.0,0.0
2673,59.0,0.0,180.0,3.0,0.0
2674,74.0,486.0,180.0,2.0,0.0
2675,64.0,0.0,2820.0,6.0,0.0
2676,36.0,0.0,3840.0,10.0,0.0
2677,48.0,0.0,3840.0,8.0,0.0
2678,36.0,54.0,390.0,3.0,0.0
2679,60.0,48.0,2820.0,7.0,0.0
2680,48.0,0.0,390.0,3.0,0.0
2681,67.0,0.0,2820.0,5.0,0.0
2682,60.0,120.0,90.0,2.0,0.0
2683,62.0,66.0,90.0,2.0,0.0
2684,64.0,120.0,90.0,2.0,0.0
2685,65.0,120.0,90.0,2.0,0.0
2686,67.0,120.0,90.0,2.0,0.0
2687,69.0,120.0,90.0,2.0,0.0
2688,71.0,120.0,90.0,2.0,0.0
2689,36.0,0.0,390.0,3.0,0.0
2690,48.0,54.0,390.0,3.0,0.0
2691,72.0,120.0,90.0,2.0,0.0
2692,67.0,120.0,90.0,2.0,0.0
2693,69.0,66.0,90.0,2.0,0.0
2694,71.0,120.0,90.0,2.0,0.0
2695,72.0,120.0,90.0,2.0,0.0
2696,74.0,120.0,90.0,2.0,0.0
2697,76.0,120.0,90.0,2.0,0.0
2698,77.0,162.0,90.0,2.0,0.0
2699,36.0,96.0,390.0,3.0,0.0
2700,48.0,0.0,390.0,3.0,0.0
2701,78.0,120.0,120.0,2.0,0.0
2702,79.0,120.0,120.0,2.0,0.0
2703,78.0,24.0,120.0,2.0,0.0
2704,79.0,120.0,120.0,2.0,0.0
2705,78.0,120.0,120.0,2.0,0.0
2706,79.0,120.0,120.0,2.0,0.0
2707,78.0,72.0,120.0,2.0,0.0
2708,79.0,120.0,120.0,2.0,0.0
2709,78.0,120.0,120.0,2.0,0.0
2710,64.0,48.0,300.0,5.0,0.0
2711,55.0,0.0,300.0,7.0,0.0
2712,60.0,0.0,300.0,6.0,0.0
2713,79.0,72.0,120.0,2.0,0.0
2714,81.0,120.0,120.0,2.0,0.0
2715,79.0,120.0,120.0,2.0,0.0
2716,60.0,48.0,300.0,5.0,0.0
2717,52.0,0.0,300.0,7.0,0.0
2718,55.0,0.0,300.0,6.0,0.0
2719,77.0,120.0,120.0,2.0,0.0
2720,76.0,72.0,120.0,2.0,0.0
2721,74.0,120.0,120.0,2.0,0.0
2722,72.0,240.0,120.0,2.0,0.0
2723,41.0,0.0,390.0,10.0,0.0
2724,53.0,96.0,390.0,8.0,0.0
2725,81.0,0.0,390.0,2.0,0.0
2726,53.0,144.0,240.0,3.0,0.0
2727,57.0,240.0,240.0,3.0,0.0
2728,53.0,24.0,900.0,7.0,0.0
2729,60.0,0.0,900.0,6.0,0.0
2730,60.0,192.0,240.0,3.0,0.0
2731,65.0,144.0,570.0,2.0,0.0
2732,69.0,0.0,900.0,5.0,0.0
2733,57.0,144.0,180.0,3.0,0.0
2734,53.0,96.0,240.0,3.0,0.0
2735,67.0,96.0,90.0,2.0,0.0
2736,57.0,96.0,240.0,3.0,0.0
2737,69.0,24.0,90.0,2.0,0.0
2738,70.0,120.0,90.0,2.0,0.0
2739,69.0,0.0,450.0,5.0,0.0
2740,60.0,120.0,450.0,6.0,0.0
2741,60.0,96.0,240.0,3.0,0.0
2742,53.0,0.0,450.0,7.0,0.0
2743,72.0,24.0,90.0,2.0,0.0
2744,74.0,96.0,90.0,2.0,0.0
2745,57.0,24.0,180.0,3.0,0.0
2746,76.0,0.0,90.0,2.0,0.0
2747,53.0,0.0,390.0,8.0,0.0
2748,77.0,120.0,90.0,2.0,0.0
2749,41.0,72.0,390.0,10.0,0.0
2750,53.0,96.0,240.0,3.0,0.0
2751,72.0,24.0,90.0,2.0,0.0
2752,69.0,48.0,90.0,2.0,0.0
2753,57.0,240.0,240.0,3.0,0.0
2754,65.0,24.0,90.0,2.0,0.0
2755,60.0,144.0,240.0,3.0,0.0
2756,53.0,60.0,960.0,7.0,0.0
2757,81.0,48.0,390.0,2.0,0.0
2758,60.0,24.0,900.0,6.0,0.0
2759,69.0,0.0,900.0,5.0,0.0
2760,57.0,288.0,180.0,3.0,0.0
2761,53.0,192.0,240.0,3.0,0.0
2762,57.0,0.0,240.0,3.0,0.0
2763,77.0,24.0,90.0,2.0,0.0
2764,60.0,60.0,240.0,3.0,0.0
2765,60.0,24.0,450.0,6.0,0.0
2766,69.0,0.0,450.0,5.0,0.0
2767,57.0,0.0,450.0,7.0,0.0
2768,79.0,60.0,60.0,2.0,0.0
2769,77.0,60.0,60.0,2.0,0.0
2770,79.0,60.0,60.0,2.0,0.0
2771,77.0,0.0,60.0,2.0,0.0
2772,57.0,24.0,180.0,3.0,0.0
2773,79.0,60.0,60.0,2.0,0.0
2774,77.0,60.0,60.0,2.0,0.0
2775,76.0,12.0,60.0,2.0,0.0
2776,77.0,240.0,60.0,2.0,0.0
2777,53.0,0.0,390.0,8.0,0.0
2778,53.0,144.0,240.0,3.0,0.0
2779,83.0,0.0,390.0,2.0,0.0
2780,41.0,96.0,390.0,10.0,0.0
2781,59.0,240.0,240.0,3.0,0.0
2782,71.0,24.0,900.0,5.0,0.0
2783,62.0,0.0,900.0,6.0,0.0
2784,67.0,144.0,570.0,2.0,0.0
2785,62.0,192.0,240.0,3.0,0.0
2786,59.0,144.0,180.0,3.0,0.0
2787,53.0,96.0,240.0,3.0,0.0
2788,59.0,0.0,240.0,3.0,0.0
2789,69.0,96.0,90.0,2.0,0.0
2790,71.0,24.0,90.0,2.0,0.0
2791,62.0,96.0,240.0,3.0,0.0
2792,62.0,0.0,450.0,6.0,0.0
2793,72.0,120.0,90.0,2.0,0.0
2794,55.0,96.0,15.0,7.0,0.0
2795,71.0,0.0,450.0,5.0,0.0
2796,74.0,24.0,90.0,2.0,0.0
2797,59.0,24.0,180.0,3.0,0.0
2798,76.0,96.0,90.0,2.0,0.0
2799,78.0,0.0,90.0,2.0,0.0
2800,53.0,96.0,240.0,3.0,0.0
2801,41.0,72.0,390.0,10.0,0.0
2802,53.0,0.0,390.0,8.0,0.0
2803,79.0,120.0,90.0,2.0,0.0
2804,74.0,24.0,90.0,2.0,0.0
2805,71.0,48.0,90.0,2.0,0.0
2806,59.0,240.0,240.0,3.0,0.0
2807,67.0,24.0,90.0,2.0,0.0
2808,55.0,60.0,960.0,7.0,0.0
2809,83.0,48.0,390.0,2.0,0.0
2810,62.0,144.0,240.0,3.0,0.0
2811,62.0,0.0,900.0,6.0,0.0
2812,71.0,24.0,900.0,5.0,0.0
2813,59.0,288.0,180.0,3.0,0.0
2814,53.0,192.0,240.0,3.0,0.0
2815,59.0,0.0,240.0,3.0,0.0
2816,79.0,24.0,90.0,2.0,0.0
2817,62.0,60.0,240.0,3.0,0.0
2818,62.0,24.0,450.0,6.0,0.0
2819,55.0,0.0,450.0,7.0,0.0
2820,81.0,60.0,60.0,2.0,0.0
2821,71.0,0.0,450.0,5.0,0.0
2822,79.0,60.0,60.0,2.0,0.0
2823,81.0,60.0,60.0,2.0,0.0
2824,79.0,0.0,60.0,2.0,0.0
2825,81.0,60.0,60.0,2.0,0.0
2826,59.0,24.0,180.0,3.0,0.0
2827,79.0,60.0,60.0,2.0,0.0
2828,78.0,12.0,60.0,2.0,0.0
2829,79.0,384.0,60.0,2.0,0.0
2830,72.0,480.0,390.0,5.0,0.0
2831,40.0,0.0,390.0,10.0,0.0
2832,60.0,0.0,390.0,6.0,0.0
2833,84.0,0.0,390.0,2.0,0.0
2834,55.0,0.0,390.0,7.0,0.0
2835,60.0,0.0,390.0,3.0,0.0
2836,52.0,0.0,390.0,3.0,0.0
2837,52.0,0.0,390.0,8.0,0.0
2838,82.0,480.0,390.0,2.0,0.0
2839,81.0,480.0,390.0,2.0,0.0
2840,80.0,0.0,390.0,2.0,0.0
2841,60.0,240.0,390.0,3.0,0.0
2842,52.0,0.0,390.0,3.0,0.0
2843,81.0,12.0,150.0,2.0,0.0
2844,53.0,228.0,150.0,3.0,0.0
2845,60.0,192.0,1140.0,3.0,0.0
2846,55.0,228.0,150.0,3.0,0.0
2847,79.0,12.0,150.0,2.0,0.0
2848,77.0,12.0,150.0,2.0,0.0
2849,57.0,228.0,150.0,3.0,0.0
2850,58.0,228.0,150.0,3.0,0.0
2851,76.0,12.0,150.0,2.0,0.0
2852,57.0,36.0,150.0,3.0,0.0
2853,77.0,12.0,150.0,2.0,0.0
2854,76.0,12.0,150.0,2.0,0.0
2855,55.0,228.0,150.0,3.0,0.0
2856,53.0,228.0,150.0,3.0,0.0
2857,74.0,12.0,150.0,2.0,0.0
2858,52.0,240.0,150.0,3.0,0.0
2859,73.0,12.0,150.0,2.0,0.0
2860,74.0,228.0,150.0,2.0,0.0
2861,53.0,96.0,390.0,3.0,0.0
2862,81.0,240.0,240.0,2.0,0.0
2863,79.0,240.0,240.0,2.0,0.0
2864,77.0,240.0,240.0,2.0,0.0
2865,76.0,240.0,240.0,2.0,0.0
2866,74.0,240.0,240.0,2.0,0.0
2867,76.0,192.0,240.0,2.0,0.0
2868,77.0,288.0,180.0,2.0,0.0
2869,55.0,0.0,1920.0,3.0,0.0
2870,64.0,0.0,960.0,3.0,0.0
2871,79.0,80.0,240.0,2.0,0.0
2872,60.0,480.0,960.0,3.0,0.0
2873,81.0,80.0,90.0,2.0,0.0
2874,79.0,80.0,90.0,2.0,0.0
2875,77.0,240.0,90.0,2.0,0.0
2876,79.0,192.0,240.0,2.0,0.0
2877,81.0,48.0,180.0,2.0,0.0
2878,65.0,0.0,960.0,3.0,0.0
2879,62.0,192.0,960.0,3.0,0.0
2880,72.0,120.0,480.0,2.0,0.0
2881,55.0,0.0,480.0,8.0,0.0
2882,43.0,0.0,480.0,10.0,0.0
2883,71.0,0.0,480.0,2.0,0.0
2884,76.0,360.0,120.0,2.0,0.0
2885,74.0,0.0,360.0,2.0,0.0
2886,60.0,0.0,180.0,8.0,0.0
2887,72.0,0.0,390.0,2.0,0.0
2888,48.0,192.0,180.0,10.0,0.0
2889,60.0,0.0,390.0,3.0,0.0
2890,64.0,288.0,390.0,3.0,0.0
2891,43.0,672.0,180.0,10.0,0.0
2892,55.0,0.0,180.0,8.0,0.0
2893,48.0,0.0,390.0,8.0,0.0
2894,36.0,576.0,390.0,10.0,0.0
2895,67.0,0.0,480.0,5.0,0.0
2896,55.0,192.0,480.0,6.0,0.0
2897,36.0,0.0,180.0,12.0,0.0
2898,64.0,0.0,270.0,5.0,0.0
2899,52.0,408.0,270.0,6.0,0.0
2900,48.0,72.0,180.0,11.0,0.0
2901,52.0,192.0,480.0,6.0,0.0
2902,31.0,0.0,180.0,12.0,0.0
2903,64.0,0.0,480.0,5.0,0.0
2904,43.0,288.0,180.0,11.0,0.0
2905,38.0,0.0,180.0,12.0,0.0
2906,65.0,408.0,270.0,5.0,0.0
2907,53.0,0.0,270.0,6.0,0.0
2908,50.0,72.0,180.0,11.0,0.0
2909,65.0,0.0,480.0,5.0,0.0
2910,31.0,0.0,180.0,12.0,0.0
2911,53.0,192.0,480.0,6.0,0.0
2912,43.0,288.0,180.0,11.0,0.0
2913,55.0,0.0,390.0,6.0,0.0
2914,67.0,288.0,390.0,5.0,0.0
2915,60.0,240.0,720.0,7.0,0.0
2916,40.0,0.0,180.0,12.0,0.0
2917,52.0,192.0,180.0,11.0,0.0
2918,43.0,48.0,180.0,11.0,0.0
2919,31.0,0.0,180.0,12.0,0.0
2920,64.0,192.0,240.0,7.0,0.0
2921,55.0,288.0,390.0,7.0,0.0
2922,52.0,0.0,180.0,11.0,0.0
2923,40.0,192.0,180.0,12.0,0.0
2924,51.0,288.0,180.0,11.0,0.0
2925,54.0,192.0,480.0,6.0,0.0
2926,66.0,0.0,480.0,5.0,0.0
2927,39.0,0.0,180.0,12.0,0.0
2928,60.0,240.0,720.0,7.0,0.0
2929,55.0,0.0,390.0,6.0,0.0
2930,67.0,288.0,390.0,5.0,0.0
2931,52.0,0.0,180.0,11.0,0.0
2932,40.0,192.0,180.0,12.0,0.0
2933,31.0,48.0,180.0,12.0,0.0
2934,43.0,0.0,180.0,11.0,0.0
2935,64.0,192.0,240.0,7.0,0.0
2936,55.0,288.0,390.0,7.0,0.0
2937,40.0,192.0,180.0,12.0,0.0
2938,52.0,0.0,180.0,11.0,0.0
2939,66.0,0.0,480.0,5.0,0.0
2940,51.0,0.0,180.0,11.0,0.0
2941,39.0,288.0,180.0,12.0,0.0
2942,54.0,192.0,480.0,6.0,0.0
2943,40.0,192.0,180.0,12.0,0.0
2944,55.0,288.0,390.0,6.0,0.0
2945,67.0,0.0,390.0,5.0,0.0
2946,52.0,0.0,180.0,11.0,0.0
2947,60.0,240.0,720.0,7.0,0.0
2948,48.0,48.0,180.0,11.0,0.0
2949,36.0,0.0,180.0,12.0,0.0
2950,64.0,192.0,240.0,7.0,0.0
2951,31.0,192.0,180.0,12.0,0.0
2952,55.0,216.0,390.0,7.0,0.0
2953,43.0,0.0,180.0,11.0,0.0
2954,81.0,120.0,120.0,2.0,0.0
2955,79.0,120.0,120.0,2.0,0.0
2956,77.0,120.0,120.0,2.0,0.0
2957,76.0,96.0,120.0,2.0,0.0
2958,59.0,120.0,90.0,3.0,0.0
2959,79.0,216.0,7110.0,5.0,0.0
2960,74.0,72.0,270.0,2.0,0.0
2961,67.0,0.0,7110.0,6.0,0.0
2962,67.0,48.0,90.0,3.0,0.0
2963,59.0,120.0,90.0,3.0,0.0
2964,67.0,120.0,90.0,3.0,0.0
2965,74.0,96.0,480.0,2.0,0.0
2966,59.0,120.0,90.0,3.0,0.0
2967,67.0,120.0,90.0,3.0,0.0
2968,59.0,120.0,90.0,3.0,0.0
2969,67.0,24.0,90.0,3.0,0.0
2970,76.0,72.0,270.0,2.0,0.0
2971,60.0,120.0,90.0,3.0,0.0
2972,67.0,48.0,90.0,3.0,0.0
2973,60.0,120.0,90.0,3.0,0.0
2974,67.0,120.0,90.0,3.0,0.0
2975,76.0,96.0,480.0,2.0,0.0
2976,60.0,120.0,90.0,3.0,0.0
2977,67.0,120.0,90.0,3.0,0.0
2978,60.0,120.0,90.0,3.0,0.0
2979,67.0,24.0,90.0,3.0,0.0
2980,77.0,72.0,270.0,2.0,0.0
2981,62.0,120.0,90.0,3.0,0.0
2982,67.0,48.0,90.0,3.0,0.0
2983,62.0,120.0,90.0,3.0,0.0
2984,67.0,120.0,90.0,3.0,0.0
2985,64.0,120.0,90.0,3.0,0.0
2986,49.0,96.0,480.0,4.0,0.0
2987,67.0,120.0,90.0,3.0,0.0
2988,64.0,120.0,90.0,3.0,0.0
2989,67.0,24.0,90.0,3.0,0.0
2990,50.0,72.0,270.0,4.0,0.0
2991,65.0,120.0,90.0,3.0,0.0
2992,67.0,48.0,90.0,3.0,0.0
2993,65.0,120.0,90.0,3.0,0.0
2994,67.0,120.0,90.0,3.0,0.0
2995,76.0,96.0,480.0,2.0,0.0
2996,61.0,120.0,90.0,3.0,0.0
2997,67.0,120.0,90.0,3.0,0.0
2998,61.0,120.0,90.0,3.0,0.0
2999,67.0,24.0,90.0,3.0,0.0
3000,77.0,72.0,270.0,2.0,0.0
3001,62.0,120.0,90.0,3.0,0.0
3002,67.0,48.0,90.0,3.0,0.0
3003,62.0,120.0,90.0,3.0,0.0
3004,67.0,120.0,90.0,3.0,0.0
3005,64.0,120.0,90.0,3.0,0.0
3006,49.0,96.0,480.0,4.0,0.0
3007,67.0,120.0,90.0,3.0,0.0
3008,64.0,120.0,90.0,3.0,0.0
3009,67.0,24.0,90.0,3.0,0.0
3010,65.0,120.0,90.0,3.0,0.0
3011,50.0,72.0,270.0,4.0,0.0
3012,67.0,48.0,90.0,3.0,0.0
3013,65.0,120.0,90.0,3.0,0.0
3014,67.0,120.0,90.0,3.0,0.0
3015,61.0,120.0,90.0,3.0,0.0
3016,76.0,96.0,480.0,2.0,0.0
3017,67.0,120.0,90.0,3.0,0.0
3018,61.0,120.0,90.0,3.0,0.0
3019,67.0,24.0,90.0,3.0,0.0
3020,77.0,72.0,270.0,2.0,0.0
3021,62.0,120.0,90.0,3.0,0.0
3022,67.0,48.0,90.0,3.0,0.0
3023,62.0,120.0,90.0,3.0,0.0
3024,67.0,120.0,90.0,3.0,0.0
3025,64.0,120.0,90.0,3.0,0.0
3026,49.0,192.0,480.0,4.0,0.0
3027,67.0,120.0,90.0,3.0,0.0
3028,64.0,120.0,90.0,3.0,0.0
3029,67.0,24.0,90.0,3.0,0.0
3030,50.0,120.0,270.0,4.0,0.0
3031,65.0,72.0,180.0,3.0,0.0
3032,79.0,120.0,120.0,2.0,0.0
3033,77.0,120.0,120.0,2.0,0.0
3034,76.0,120.0,120.0,2.0,0.0
3035,74.0,240.0,120.0,2.0,0.0
3036,36.0,0.0,8070.0,10.0,0.0
3037,48.0,0.0,8070.0,8.0,0.0
3038,48.0,24.0,240.0,3.0,0.0
3039,72.0,216.0,270.0,2.0,0.0
3040,60.0,0.0,2880.0,7.0,0.0
3041,52.0,240.0,240.0,3.0,0.0
3042,55.0,192.0,240.0,3.0,0.0
3043,72.0,0.0,720.0,2.0,0.0
3044,60.0,288.0,180.0,3.0,0.0
3045,48.0,240.0,240.0,3.0,0.0
3046,64.0,0.0,960.0,6.0,0.0
3047,70.0,240.0,960.0,5.0,0.0
3048,52.0,0.0,240.0,3.0,0.0
3049,70.0,240.0,240.0,2.0,0.0
3050,55.0,0.0,240.0,3.0,0.0
3051,69.0,192.0,240.0,2.0,0.0
3052,60.0,48.0,180.0,3.0,0.0
3053,68.0,0.0,180.0,2.0,0.0
3054,68.0,192.0,240.0,2.0,0.0
3055,65.0,0.0,1920.0,6.0,0.0
3056,69.0,96.0,960.0,5.0,0.0
3057,48.0,0.0,240.0,3.0,0.0
3058,53.0,240.0,240.0,3.0,0.0
3059,69.0,48.0,180.0,2.0,0.0
3060,57.0,192.0,240.0,3.0,0.0
3061,69.0,144.0,570.0,2.0,0.0
3062,60.0,48.0,180.0,3.0,0.0
3063,71.0,0.0,960.0,5.0,0.0
3064,62.0,240.0,960.0,7.0,0.0
3065,48.0,240.0,240.0,3.0,0.0
3066,77.0,240.0,240.0,2.0,0.0
3067,50.0,0.0,240.0,3.0,0.0
3068,74.0,0.0,240.0,2.0,0.0
3069,53.0,192.0,240.0,3.0,0.0
3070,71.0,0.0,240.0,2.0,0.0
3071,59.0,48.0,180.0,3.0,0.0
3072,72.0,240.0,960.0,5.0,0.0
3073,79.0,120.0,360.0,2.0,0.0
3074,60.0,0.0,2880.0,7.0,0.0
3075,64.0,0.0,1920.0,6.0,0.0
3076,48.0,120.0,240.0,3.0,0.0
3077,52.0,156.0,240.0,3.0,0.0
3078,76.0,0.0,120.0,2.0,0.0
3079,72.0,84.0,150.0,2.0,0.0
3080,55.0,156.0,240.0,3.0,0.0
3081,72.0,36.0,150.0,2.0,0.0
3082,60.0,48.0,180.0,3.0,0.0
3083,48.0,240.0,240.0,3.0,0.0
3084,72.0,0.0,240.0,2.0,0.0
3085,70.0,240.0,960.0,5.0,0.0
3086,70.0,0.0,240.0,2.0,0.0
3087,52.0,240.0,240.0,3.0,0.0
3088,69.0,192.0,240.0,2.0,0.0
3089,55.0,0.0,240.0,3.0,0.0
3090,60.0,0.0,180.0,3.0,0.0
3091,68.0,48.0,180.0,2.0,0.0
3092,48.0,192.0,240.0,3.0,0.0
3093,65.0,0.0,1920.0,6.0,0.0
3094,68.0,0.0,240.0,2.0,0.0
3095,69.0,96.0,960.0,5.0,0.0
3096,53.0,240.0,240.0,3.0,0.0
3097,69.0,48.0,180.0,2.0,0.0
3098,57.0,192.0,240.0,3.0,0.0
3099,69.0,144.0,570.0,2.0,0.0
3100,60.0,48.0,180.0,3.0,0.0
3101,48.0,240.0,240.0,3.0,0.0
3102,71.0,0.0,960.0,5.0,0.0
3103,62.0,240.0,960.0,7.0,0.0
3104,50.0,240.0,240.0,3.0,0.0
3105,77.0,0.0,240.0,2.0,0.0
3106,74.0,0.0,240.0,2.0,0.0
3107,53.0,192.0,240.0,3.0,0.0
3108,71.0,0.0,240.0,2.0,0.0
3109,59.0,48.0,180.0,3.0,0.0
3110,72.0,0.0,390.0,5.0,0.0
3111,79.0,24.0,360.0,2.0,0.0
3112,48.0,120.0,240.0,3.0,0.0
3113,60.0,96.0,390.0,7.0,0.0
3114,64.0,0.0,390.0,6.0,0.0
3115,52.0,0.0,240.0,3.0,0.0
3116,76.0,156.0,120.0,2.0,0.0
3117,72.0,84.0,150.0,2.0,0.0
3118,55.0,156.0,240.0,3.0,0.0
3119,72.0,36.0,150.0,2.0,0.0
3120,60.0,288.0,180.0,3.0,0.0
3121,48.0,96.0,390.0,3.0,0.0
3122,72.0,144.0,240.0,2.0,0.0
3123,70.0,240.0,240.0,2.0,0.0
3124,69.0,192.0,240.0,2.0,0.0
3125,68.0,288.0,180.0,2.0,0.0
3126,68.0,192.0,240.0,2.0,0.0
3127,61.0,0.0,930.0,3.0,0.0
3128,64.0,0.0,930.0,3.0,0.0
3129,67.0,116.0,930.0,3.0,0.0
3130,69.0,508.0,180.0,2.0,0.0
3131,81.0,120.0,570.0,2.0,0.0
3132,65.0,0.0,930.0,3.0,0.0
3133,62.0,80.0,930.0,3.0,0.0
3134,79.0,120.0,90.0,2.0,0.0
3135,77.0,120.0,90.0,2.0,0.0
3136,76.0,120.0,90.0,2.0,0.0
3137,74.0,120.0,90.0,2.0,0.0
3138,72.0,120.0,90.0,2.0,0.0
3139,71.0,120.0,90.0,2.0,0.0
3140,69.0,4.0,90.0,2.0,0.0
3141,59.0,116.0,930.0,3.0,0.0
3142,71.0,60.0,60.0,2.0,0.0
3143,62.0,0.0,930.0,3.0,0.0
3144,65.0,0.0,930.0,3.0,0.0
3145,69.0,60.0,60.0,2.0,0.0
3146,71.0,60.0,60.0,2.0,0.0
3147,69.0,192.0,60.0,2.0,0.0
3148,67.0,508.0,180.0,2.0,0.0
3149,79.0,120.0,570.0,2.0,0.0
3150,60.0,80.0,930.0,3.0,0.0
3151,64.0,0.0,930.0,3.0,0.0
3152,77.0,120.0,90.0,2.0,0.0
3153,76.0,120.0,90.0,2.0,0.0
3154,74.0,120.0,90.0,2.0,0.0
3155,72.0,120.0,90.0,2.0,0.0
3156,71.0,120.0,90.0,2.0,0.0
3157,69.0,120.0,90.0,2.0,0.0
3158,67.0,4.0,90.0,2.0,0.0
3159,69.0,60.0,60.0,2.0,0.0
3160,60.0,0.0,900.0,3.0,0.0
3161,64.0,144.0,900.0,3.0,0.0
3162,57.0,0.0,900.0,3.0,0.0
3163,67.0,60.0,60.0,2.0,0.0
3164,69.0,60.0,60.0,2.0,0.0
3165,67.0,192.0,60.0,2.0,0.0
3166,65.0,480.0,180.0,2.0,0.0
3167,77.0,120.0,570.0,2.0,0.0
3168,59.0,24.0,900.0,3.0,0.0
3169,62.0,0.0,900.0,3.0,0.0
3170,76.0,120.0,90.0,2.0,0.0
3171,74.0,120.0,90.0,2.0,0.0
3172,72.0,120.0,90.0,2.0,0.0
3173,71.0,120.0,90.0,2.0,0.0
3174,69.0,120.0,90.0,2.0,0.0
3175,67.0,96.0,90.0,2.0,0.0
3176,65.0,152.0,90.0,2.0,0.0
3177,64.0,160.0,120.0,2.0,0.0
3178,60.0,64.0,390.0,3.0,0.0
3179,67.0,96.0,120.0,2.0,0.0
3180,72.0,160.0,120.0,2.0,0.0
3181,76.0,160.0,120.0,2.0,0.0
3182,72.0,160.0,120.0,2.0,0.0
3183,79.0,8.0,120.0,2.0,0.0
3184,52.0,152.0,90.0,4.0,0.0
3185,48.0,64.0,390.0,4.0,0.0
3186,64.0,160.0,120.0,2.0,0.0
3187,67.0,96.0,120.0,2.0,0.0
3188,72.0,160.0,120.0,2.0,0.0
3189,76.0,160.0,120.0,2.0,0.0
3190,72.0,160.0,120.0,2.0,0.0
3191,79.0,8.0,120.0,2.0,0.0
3192,52.0,152.0,90.0,4.0,0.0
3193,48.0,64.0,390.0,4.0,0.0
3194,64.0,160.0,120.0,2.0,0.0
3195,67.0,96.0,120.0,2.0,0.0
3196,72.0,160.0,120.0,2.0,0.0
3197,76.0,160.0,120.0,2.0,0.0
3198,72.0,160.0,120.0,2.0,0.0
3199,79.0,8.0,120.0,2.0,0.0
3200,52.0,152.0,90.0,4.0,0.0
3201,79.0,160.0,120.0,2.0,0.0
3202,48.0,64.0,390.0,4.0,0.0
3203,76.0,96.0,120.0,2.0,0.0
3204,72.0,160.0,120.0,2.0,0.0
3205,76.0,160.0,120.0,2.0,0.0
3206,72.0,160.0,120.0,2.0,0.0
3207,67.0,160.0,120.0,2.0,0.0
3208,53.0,64.0,390.0,4.0,0.0
3209,69.0,160.0,120.0,2.0,0.0
3210,72.0,96.0,120.0,2.0,0.0
3211,77.0,160.0,120.0,2.0,0.0
3212,81.0,160.0,120.0,2.0,0.0
3213,77.0,160.0,120.0,2.0,0.0
3214,84.0,8.0,120.0,2.0,0.0
3215,57.0,152.0,90.0,4.0,0.0
3216,69.0,160.0,120.0,2.0,0.0
3217,53.0,64.0,390.0,4.0,0.0
3218,72.0,96.0,120.0,2.0,0.0
3219,77.0,160.0,120.0,2.0,0.0
3220,81.0,160.0,120.0,2.0,0.0
3221,77.0,160.0,120.0,2.0,0.0
3222,84.0,8.0,120.0,2.0,0.0
3223,57.0,152.0,90.0,4.0,0.0
3224,69.0,160.0,120.0,2.0,0.0
3225,53.0,64.0,390.0,4.0,0.0
3226,72.0,96.0,120.0,2.0,0.0
3227,77.0,160.0,120.0,2.0,0.0
3228,81.0,160.0,120.0,2.0,0.0
3229,77.0,160.0,120.0,2.0,0.0
3230,84.0,8.0,120.0,2.0,0.0
3231,57.0,152.0,90.0,4.0,0.0
3232,84.0,160.0,120.0,2.0,0.0
3233,53.0,64.0,390.0,4.0,0.0
3234,81.0,96.0,120.0,2.0,0.0
3235,77.0,160.0,120.0,2.0,0.0
3236,81.0,160.0,120.0,2.0,0.0
3237,77.0,160.0,120.0,2.0,0.0
3238,72.0,160.0,120.0,2.0,0.0
3239,67.0,64.0,390.0,2.0,0.0
3240,55.0,160.0,120.0,3.0,0.0
3241,60.0,96.0,120.0,3.0,0.0
3242,64.0,160.0,120.0,3.0,0.0
3243,79.0,160.0,780.0,2.0,0.0
3244,55.0,160.0,120.0,3.0,0.0
3245,60.0,160.0,120.0,3.0,0.0
3246,64.0,160.0,120.0,3.0,0.0
3247,55.0,160.0,120.0,3.0,0.0
3248,60.0,0.0,120.0,3.0,0.0
3249,64.0,152.0,120.0,3.0,0.0
3250,77.0,8.0,120.0,2.0,0.0
3251,55.0,112.0,120.0,3.0,0.0
3252,76.0,48.0,120.0,2.0,0.0
3253,60.0,72.0,120.0,3.0,0.0
3254,74.0,88.0,120.0,2.0,0.0
3255,64.0,32.0,120.0,3.0,0.0
3256,72.0,60.0,120.0,2.0,0.0
3257,55.0,52.0,120.0,3.0,0.0
3258,76.0,60.0,60.0,2.0,0.0
3259,74.0,8.0,60.0,2.0,0.0
3260,76.0,60.0,60.0,2.0,0.0
3261,59.0,12.0,120.0,3.0,0.0
3262,74.0,48.0,60.0,2.0,0.0
3263,76.0,60.0,60.0,2.0,0.0
3264,74.0,60.0,60.0,2.0,0.0
3265,65.0,32.0,120.0,3.0,0.0
3266,76.0,28.0,60.0,2.0,0.0
3267,74.0,60.0,60.0,2.0,0.0
3268,76.0,60.0,60.0,2.0,0.0
3269,55.0,52.0,120.0,3.0,0.0
3270,74.0,8.0,60.0,2.0,0.0
3271,76.0,60.0,60.0,2.0,0.0
3272,59.0,12.0,120.0,3.0,0.0
3273,74.0,48.0,60.0,2.0,0.0
3274,76.0,60.0,60.0,2.0,0.0
3275,74.0,60.0,60.0,2.0,0.0
3276,65.0,32.0,120.0,3.0,0.0
3277,76.0,28.0,60.0,2.0,0.0
3278,74.0,60.0,60.0,2.0,0.0
3279,76.0,60.0,60.0,2.0,0.0
3280,55.0,52.0,120.0,3.0,0.0
3281,74.0,8.0,60.0,2.0,0.0
3282,76.0,60.0,60.0,2.0,0.0
3283,59.0,12.0,120.0,3.0,0.0
3284,74.0,48.0,60.0,2.0,0.0
3285,76.0,60.0,60.0,2.0,0.0
3286,74.0,60.0,60.0,2.0,0.0
3287,65.0,32.0,120.0,3.0,0.0
3288,76.0,28.0,60.0,2.0,0.0
3289,74.0,60.0,60.0,2.0,0.0
3290,76.0,60.0,60.0,2.0,0.0
3291,55.0,52.0,120.0,3.0,0.0
3292,74.0,8.0,60.0,2.0,0.0
3293,76.0,60.0,60.0,2.0,0.0
3294,59.0,12.0,120.0,3.0,0.0
3295,74.0,48.0,60.0,2.0,0.0
3296,76.0,60.0,60.0,2.0,0.0
3297,74.0,60.0,60.0,2.0,0.0
3298,65.0,32.0,120.0,3.0,0.0
3299,72.0,28.0,60.0,2.0,0.0
3300,74.0,96.0,60.0,2.0,0.0
3301,36.0,96.0,3840.0,10.0,0.0
3302,48.0,0.0,3840.0,8.0,0.0
3303,72.0,120.0,90.0,2.0,0.0
3304,67.0,0.0,3840.0,6.0,0.0
3305,72.0,96.0,7680.0,5.0,0.0
3306,64.0,0.0,3840.0,7.0,0.0
3307,60.0,72.0,390.0,3.0,0.0
3308,64.0,120.0,90.0,2.0,0.0
3309,72.0,48.0,90.0,2.0,0.0
3310,76.0,120.0,90.0,2.0,0.0
3311,79.0,120.0,90.0,2.0,0.0
3312,76.0,120.0,90.0,2.0,0.0
3313,72.0,120.0,90.0,2.0,0.0
3314,67.0,120.0,90.0,2.0,0.0
3315,52.0,0.0,90.0,4.0,0.0
3316,48.0,72.0,390.0,4.0,0.0
3317,72.0,120.0,90.0,2.0,0.0
3318,64.0,120.0,90.0,2.0,0.0
3319,72.0,48.0,90.0,2.0,0.0
3320,76.0,120.0,90.0,2.0,0.0
3321,79.0,120.0,90.0,2.0,0.0
3322,76.0,120.0,90.0,2.0,0.0
3323,72.0,120.0,90.0,2.0,0.0
3324,67.0,0.0,90.0,2.0,0.0
3325,52.0,120.0,90.0,4.0,0.0
3326,72.0,120.0,90.0,2.0,0.0
3327,48.0,72.0,390.0,4.0,0.0
3328,64.0,120.0,90.0,2.0,0.0
3329,72.0,48.0,90.0,2.0,0.0
3330,76.0,120.0,90.0,2.0,0.0
3331,79.0,120.0,90.0,2.0,0.0
3332,76.0,120.0,90.0,2.0,0.0
3333,72.0,120.0,90.0,2.0,0.0
3334,67.0,120.0,90.0,2.0,0.0
3335,60.0,0.0,90.0,3.0,0.0
3336,64.0,72.0,390.0,3.0,0.0
3337,79.0,120.0,90.0,2.0,0.0
3338,77.0,120.0,90.0,2.0,0.0
3339,76.0,48.0,90.0,2.0,0.0
3340,74.0,120.0,90.0,2.0,0.0
3341,72.0,120.0,90.0,2.0,0.0
3342,71.0,120.0,90.0,2.0,0.0
3343,69.0,120.0,90.0,2.0,0.0
3344,67.0,24.0,90.0,2.0,0.0
3345,53.0,72.0,390.0,4.0,0.0
3346,41.0,0.0,3840.0,10.0,0.0
3347,65.0,0.0,3840.0,7.0,0.0
3348,77.0,120.0,90.0,2.0,0.0
3349,69.0,0.0,3840.0,6.0,0.0
3350,53.0,0.0,3840.0,8.0,0.0
3351,72.0,120.0,90.0,2.0,0.0
3352,77.0,48.0,90.0,2.0,0.0
3353,81.0,120.0,90.0,2.0,0.0
3354,84.0,120.0,90.0,2.0,0.0
3355,81.0,120.0,90.0,2.0,0.0
3356,77.0,120.0,90.0,2.0,0.0
3357,72.0,0.0,90.0,2.0,0.0
3358,57.0,120.0,90.0,4.0,0.0
3359,77.0,120.0,90.0,2.0,0.0
3360,53.0,72.0,390.0,4.0,0.0
3361,72.0,120.0,90.0,2.0,0.0
3362,77.0,48.0,90.0,2.0,0.0
3363,81.0,120.0,90.0,2.0,0.0
3364,84.0,120.0,90.0,2.0,0.0
3365,81.0,120.0,90.0,2.0,0.0
3366,77.0,120.0,90.0,2.0,0.0
3367,72.0,0.0,90.0,2.0,0.0
3368,57.0,120.0,90.0,4.0,0.0
3369,77.0,120.0,90.0,2.0,0.0
3370,53.0,72.0,390.0,4.0,0.0
3371,72.0,120.0,90.0,2.0,0.0
3372,77.0,48.0,90.0,2.0,0.0
3373,81.0,120.0,90.0,2.0,0.0
3374,84.0,120.0,90.0,2.0,0.0
3375,81.0,120.0,90.0,2.0,0.0
3376,77.0,120.0,90.0,2.0,0.0
3377,65.0,120.0,90.0,3.0,0.0
3378,72.0,0.0,90.0,2.0,0.0
3379,84.0,120.0,90.0,2.0,0.0
3380,69.0,72.0,390.0,3.0,0.0
3381,83.0,120.0,90.0,2.0,0.0
3382,81.0,48.0,90.0,2.0,0.0
3383,79.0,120.0,90.0,2.0,0.0
3384,77.0,120.0,90.0,2.0,0.0
3385,76.0,120.0,90.0,2.0,0.0
3386,74.0,120.0,90.0,2.0,0.0
3387,72.0,24.0,90.0,2.0,0.0
3388,55.0,0.0,780.0,6.0,0.0
3389,43.0,0.0,780.0,8.0,0.0
3390,31.0,0.0,780.0,10.0,0.0
3391,55.0,24.0,1140.0,2.0,0.0
3392,55.0,48.0,780.0,7.0,0.0
3393,43.0,120.0,90.0,3.0,0.0
3394,55.0,0.0,780.0,5.0,0.0
3395,52.0,120.0,90.0,3.0,0.0
3396,48.0,120.0,90.0,3.0,0.0
3397,52.0,120.0,90.0,3.0,0.0
3398,43.0,120.0,90.0,3.0,0.0
3399,52.0,72.0,90.0,3.0,0.0
3400,48.0,120.0,90.0,3.0,0.0
3401,52.0,120.0,90.0,3.0,0.0
3402,43.0,96.0,90.0,3.0,0.0
3403,52.0,120.0,90.0,3.0,0.0
3404,57.0,0.0,90.0,2.0,0.0
3405,48.0,120.0,90.0,3.0,0.0
3406,59.0,0.0,90.0,2.0,0.0
3407,52.0,120.0,90.0,3.0,0.0
3408,60.0,0.0,90.0,2.0,0.0
3409,43.0,120.0,90.0,3.0,0.0
3410,52.0,0.0,90.0,3.0,0.0
3411,62.0,120.0,90.0,2.0,0.0
3412,64.0,0.0,90.0,2.0,0.0
3413,48.0,120.0,90.0,3.0,0.0
3414,65.0,0.0,90.0,2.0,0.0
3415,52.0,216.0,90.0,3.0,0.0
3416,67.0,144.0,180.0,2.0,0.0
3417,43.0,72.0,390.0,3.0,0.0
3418,69.0,48.0,90.0,2.0,0.0
3419,71.0,120.0,90.0,2.0,0.0
3420,72.0,120.0,90.0,2.0,0.0
3421,74.0,120.0,90.0,2.0,0.0
3422,76.0,120.0,90.0,2.0,0.0
3423,77.0,120.0,90.0,2.0,0.0
3424,79.0,120.0,90.0,2.0,0.0
3425,78.0,120.0,90.0,2.0,0.0
3426,79.0,120.0,90.0,2.0,0.0
3427,78.0,120.0,90.0,2.0,0.0
3428,79.0,120.0,90.0,2.0,0.0
3429,78.0,120.0,90.0,2.0,0.0
3430,79.0,120.0,90.0,2.0,0.0
3431,78.0,152.0,90.0,2.0,0.0
3432,64.0,0.0,390.0,3.0,0.0
3433,60.0,0.0,390.0,3.0,0.0
3434,79.0,160.0,120.0,2.0,0.0
3435,55.0,12.0,390.0,7.0,0.0
3436,55.0,0.0,390.0,3.0,0.0
3437,76.0,96.0,120.0,2.0,0.0
3438,72.0,52.0,150.0,5.0,0.0
3439,64.0,0.0,150.0,6.0,0.0
3440,84.0,160.0,120.0,2.0,0.0
3441,79.0,28.0,120.0,2.0,0.0
3442,64.0,132.0,150.0,6.0,0.0
3443,72.0,0.0,150.0,5.0,0.0
3444,76.0,108.0,120.0,2.0,0.0
3445,72.0,0.0,150.0,5.0,0.0
3446,64.0,52.0,150.0,6.0,0.0
3447,72.0,160.0,120.0,2.0,0.0
3448,60.0,0.0,390.0,3.0,0.0
3449,55.0,0.0,390.0,3.0,0.0
3450,79.0,160.0,120.0,2.0,0.0
3451,55.0,12.0,390.0,7.0,0.0
3452,64.0,0.0,390.0,3.0,0.0
3453,76.0,96.0,120.0,2.0,0.0
3454,72.0,0.0,150.0,5.0,0.0
3455,64.0,52.0,150.0,6.0,0.0
3456,84.0,160.0,120.0,2.0,0.0
3457,64.0,132.0,150.0,6.0,0.0
3458,79.0,28.0,120.0,2.0,0.0
3459,72.0,0.0,150.0,5.0,0.0
3460,76.0,108.0,120.0,2.0,0.0
3461,72.0,0.0,150.0,5.0,0.0
3462,64.0,52.0,150.0,6.0,0.0
3463,72.0,92.0,120.0,2.0,0.0
3464,76.0,36.0,60.0,2.0,0.0
3465,43.0,0.0,180.0,10.0,0.0
3466,55.0,24.0,90.0,3.0,0.0
3467,55.0,24.0,180.0,8.0,0.0
3468,55.0,0.0,180.0,7.0,0.0
3469,74.0,60.0,60.0,2.0,0.0
3470,76.0,12.0,60.0,2.0,0.0
3471,65.0,24.0,90.0,3.0,0.0
3472,74.0,60.0,60.0,2.0,0.0
3473,65.0,36.0,390.0,6.0,0.0
3474,71.0,0.0,390.0,5.0,0.0
3475,43.0,0.0,180.0,10.0,0.0
3476,59.0,24.0,90.0,3.0,0.0
3477,76.0,36.0,60.0,2.0,0.0
3478,55.0,0.0,180.0,7.0,0.0
3479,55.0,24.0,180.0,8.0,0.0
3480,74.0,60.0,60.0,2.0,0.0
3481,65.0,24.0,90.0,3.0,0.0
3482,76.0,12.0,60.0,2.0,0.0
3483,74.0,60.0,60.0,2.0,0.0
3484,43.0,0.0,180.0,10.0,0.0
3485,55.0,24.0,180.0,8.0,0.0
3486,76.0,36.0,60.0,2.0,0.0
3487,55.0,0.0,180.0,7.0,0.0
3488,55.0,24.0,90.0,3.0,0.0
3489,74.0,24.0,60.0,2.0,0.0
3490,65.0,24.0,90.0,3.0,0.0
3491,76.0,12.0,60.0,2.0,0.0
3492,74.0,60.0,60.0,2.0,0.0
3493,55.0,0.0,180.0,8.0,0.0
3494,76.0,36.0,60.0,2.0,0.0
3495,71.0,0.0,180.0,5.0,0.0
3496,55.0,0.0,180.0,7.0,0.0
3497,59.0,24.0,90.0,3.0,0.0
3498,43.0,0.0,180.0,10.0,0.0
3499,65.0,24.0,180.0,6.0,0.0
3500,74.0,60.0,60.0,2.0,0.0
3501,76.0,12.0,60.0,2.0,0.0
3502,65.0,24.0,90.0,3.0,0.0
3503,74.0,60.0,60.0,2.0,0.0
3504,43.0,24.0,180.0,8.0,0.0
3505,31.0,0.0,180.0,10.0,0.0
3506,55.0,24.0,90.0,3.0,0.0
3507,55.0,0.0,180.0,7.0,0.0
3508,76.0,36.0,60.0,2.0,0.0
3509,74.0,60.0,60.0,2.0,0.0
3510,65.0,24.0,90.0,3.0,0.0
3511,76.0,12.0,60.0,2.0,0.0
3512,74.0,60.0,60.0,2.0,0.0
3513,76.0,36.0,60.0,2.0,0.0
3514,53.0,0.0,390.0,6.0,0.0
3515,55.0,24.0,180.0,7.0,0.0
3516,31.0,0.0,180.0,10.0,0.0
3517,59.0,36.0,390.0,5.0,0.0
3518,43.0,0.0,180.0,8.0,0.0
3519,59.0,24.0,90.0,3.0,0.0
3520,74.0,60.0,60.0,2.0,0.0
3521,65.0,24.0,90.0,3.0,0.0
3522,76.0,12.0,60.0,2.0,0.0
3523,74.0,60.0,60.0,2.0,0.0
3524,55.0,24.0,90.0,3.0,0.0
3525,43.0,0.0,180.0,8.0,0.0
3526,55.0,0.0,180.0,7.0,0.0
3527,31.0,24.0,180.0,10.0,0.0
3528,76.0,36.0,60.0,2.0,0.0
3529,74.0,24.0,60.0,2.0,0.0
3530,76.0,12.0,60.0,2.0,0.0
3531,65.0,24.0,90.0,3.0,0.0
3532,74.0,60.0,60.0,2.0,0.0
3533,76.0,36.0,60.0,2.0,0.0
3534,43.0,0.0,180.0,8.0,0.0
3535,59.0,0.0,180.0,5.0,0.0
3536,59.0,24.0,90.0,3.0,0.0
3537,31.0,0.0,180.0,10.0,0.0
3538,55.0,0.0,180.0,7.0,0.0
3539,53.0,24.0,180.0,6.0,0.0
3540,74.0,60.0,60.0,2.0,0.0
3541,72.0,12.0,60.0,2.0,0.0
3542,65.0,24.0,90.0,3.0,0.0
3543,74.0,192.0,60.0,2.0,0.0
3544,72.0,0.0,390.0,2.0,0.0
3545,60.0,144.0,180.0,5.0,0.0
3546,48.0,0.0,390.0,8.0,0.0
3547,60.0,0.0,390.0,3.0,0.0
3548,64.0,0.0,390.0,3.0,0.0
3549,52.0,0.0,390.0,6.0,0.0
3550,36.0,0.0,390.0,10.0,0.0
3551,55.0,72.0,390.0,7.0,0.0
3552,62.0,48.0,90.0,5.0,0.0
3553,64.0,120.0,90.0,5.0,0.0
3554,65.0,120.0,90.0,5.0,0.0
3555,67.0,120.0,90.0,5.0,0.0
3556,69.0,120.0,90.0,5.0,0.0
3557,71.0,120.0,90.0,5.0,0.0
3558,72.0,120.0,90.0,5.0,0.0
3559,74.0,120.0,90.0,5.0,0.0
3560,76.0,120.0,90.0,5.0,0.0
3561,77.0,120.0,90.0,5.0,0.0
3562,55.0,0.0,150.0,8.0,0.0
3563,79.0,48.0,90.0,5.0,0.0
3564,67.0,72.0,150.0,1.0,0.0
3565,71.0,0.0,150.0,0.0,0.0
3566,62.0,0.0,150.0,6.0,0.0
3567,59.0,0.0,150.0,7.0,0.0
3568,74.0,0.0,150.0,0.0,0.0
3569,43.0,0.0,150.0,10.0,0.0
3570,77.0,120.0,90.0,5.0,0.0
3571,67.0,0.0,150.0,1.0,0.0
3572,65.0,0.0,150.0,7.0,0.0
3573,76.0,48.0,90.0,5.0,0.0
3574,71.0,0.0,150.0,6.0,0.0
3575,55.0,0.0,150.0,8.0,0.0
3576,43.0,72.0,150.0,10.0,0.0
3577,77.0,0.0,150.0,0.0,0.0
3578,74.0,0.0,150.0,0.0,0.0
3579,74.0,168.0,90.0,5.0,0.0
3580,72.0,0.0,150.0,0.0,0.0
3581,76.0,0.0,150.0,0.0,0.0
3582,57.0,0.0,150.0,8.0,0.0
3583,60.0,0.0,150.0,1.0,0.0
3584,64.0,0.0,150.0,7.0,0.0
3585,72.0,0.0,150.0,6.0,0.0
3586,72.0,240.0,150.0,5.0,0.0
3587,45.0,0.0,150.0,10.0,0.0
3588,45.0,0.0,150.0,10.0,0.0
3589,64.0,0.0,150.0,7.0,0.0
3590,60.0,0.0,150.0,1.0,0.0
3591,72.0,240.0,150.0,6.0,0.0
3592,57.0,0.0,150.0,8.0,0.0
3593,72.0,0.0,150.0,5.0,0.0
3594,72.0,0.0,150.0,0.0,0.0
3595,76.0,0.0,150.0,0.0,0.0
3596,77.0,0.0,150.0,0.0,0.0
3597,81.0,0.0,150.0,0.0,0.0
3598,41.0,240.0,150.0,10.0,0.0
3599,72.0,0.0,150.0,6.0,0.0
3600,65.0,0.0,150.0,7.0,0.0
3601,53.0,0.0,150.0,8.0,0.0
3602,69.0,0.0,150.0,1.0,0.0
3603,65.0,0.0,150.0,1.0,0.0
3604,81.0,0.0,150.0,5.0,0.0
3605,81.0,0.0,150.0,5.0,0.0
3606,53.0,0.0,150.0,8.0,0.0
3607,77.0,0.0,150.0,0.0,0.0
3608,69.0,0.0,150.0,1.0,0.0
3609,65.0,0.0,150.0,1.0,0.0
3610,41.0,240.0,150.0,10.0,0.0
3611,81.0,0.0,150.0,0.0,0.0
3612,65.0,0.0,150.0,7.0,0.0
3613,72.0,0.0,150.0,6.0,0.0
3614,76.0,0.0,150.0,0.0,0.0
3615,79.0,240.0,150.0,0.0,0.0
3616,64.0,0.0,150.0,7.0,0.0
3617,67.0,0.0,150.0,1.0,0.0
3618,43.0,0.0,150.0,10.0,0.0
3619,55.0,0.0,150.0,8.0,0.0
3620,72.0,0.0,150.0,6.0,0.0
3621,79.0,0.0,150.0,5.0,0.0
3622,67.0,0.0,150.0,1.0,0.0
3623,76.0,0.0,150.0,0.0,0.0
3624,79.0,0.0,150.0,0.0,0.0
3625,55.0,0.0,150.0,8.0,0.0
3626,43.0,0.0,150.0,10.0,0.0
3627,72.0,240.0,150.0,6.0,0.0
3628,79.0,0.0,150.0,5.0,0.0
3629,64.0,0.0,150.0,7.0,0.0
3630,31.0,0.0,150.0,10.0,0.0
3631,62.0,0.0,150.0,7.0,0.0
3632,43.0,0.0,150.0,8.0,0.0
3633,74.0,240.0,150.0,0.0,0.0
3634,67.0,0.0,150.0,1.0,0.0
3635,65.0,0.0,150.0,6.0,0.0
3636,71.0,0.0,150.0,5.0,0.0
3637,71.0,0.0,150.0,0.0,0.0
3638,62.0,0.0,150.0,7.0,0.0
3639,65.0,0.0,150.0,6.0,0.0
3640,71.0,0.0,150.0,5.0,0.0
3641,67.0,0.0,150.0,1.0,0.0
3642,31.0,0.0,150.0,10.0,0.0
3643,71.0,0.0,150.0,0.0,0.0
3644,43.0,0.0,150.0,8.0,0.0
3645,74.0,192.0,150.0,0.0,0.0
3646,64.0,72.0,390.0,6.0,0.0
3647,36.0,0.0,390.0,10.0,0.0
3648,67.0,0.0,390.0,1.0,0.0
3649,72.0,0.0,390.0,0.0,0.0
3650,55.0,0.0,390.0,7.0,0.0
3651,60.0,0.0,390.0,1.0,0.0
3652,48.0,0.0,390.0,8.0,0.0
3653,72.0,120.0,90.0,5.0,0.0
3654,60.0,120.0,90.0,5.0,0.0
3655,62.0,48.0,90.0,5.0,0.0
3656,64.0,120.0,90.0,5.0,0.0
3657,65.0,120.0,90.0,5.0,0.0
3658,67.0,120.0,90.0,5.0,0.0
3659,69.0,120.0,90.0,5.0,0.0
3660,71.0,120.0,90.0,5.0,0.0
3661,72.0,120.0,90.0,5.0,0.0
3662,74.0,120.0,90.0,5.0,0.0
3663,76.0,120.0,90.0,5.0,0.0
3664,77.0,120.0,90.0,5.0,0.0
3665,62.0,0.0,150.0,6.0,0.0
3666,79.0,48.0,90.0,5.0,0.0
3667,55.0,72.0,150.0,8.0,0.0
3668,71.0,0.0,150.0,0.0,0.0
3669,67.0,0.0,150.0,1.0,0.0
3670,43.0,0.0,150.0,10.0,0.0
3671,59.0,0.0,150.0,7.0,0.0
3672,74.0,0.0,150.0,0.0,0.0
3673,77.0,120.0,90.0,5.0,0.0
3674,43.0,0.0,150.0,10.0,0.0
3675,77.0,0.0,150.0,0.0,0.0
3676,74.0,0.0,150.0,0.0,0.0
3677,76.0,48.0,90.0,5.0,0.0
3678,71.0,0.0,150.0,6.0,0.0
3679,65.0,0.0,150.0,7.0,0.0
3680,55.0,0.0,150.0,8.0,0.0
3681,67.0,72.0,150.0,1.0,0.0
3682,74.0,168.0,90.0,5.0,0.0
3683,72.0,0.0,150.0,6.0,0.0
3684,45.0,0.0,150.0,10.0,0.0
3685,76.0,240.0,150.0,0.0,0.0
3686,72.0,0.0,150.0,0.0,0.0
3687,72.0,0.0,150.0,5.0,0.0
3688,57.0,0.0,150.0,8.0,0.0
3689,60.0,0.0,150.0,1.0,0.0
3690,64.0,0.0,150.0,7.0,0.0
3691,72.0,0.0,150.0,6.0,0.0
3692,72.0,0.0,150.0,0.0,0.0
3693,60.0,0.0,150.0,1.0,0.0
3694,45.0,0.0,150.0,10.0,0.0
3695,72.0,0.0,150.0,5.0,0.0
3696,64.0,0.0,150.0,7.0,0.0
3697,57.0,0.0,150.0,8.0,0.0
3698,76.0,240.0,150.0,0.0,0.0
3699,77.0,0.0,150.0,0.0,0.0
3700,81.0,0.0,150.0,5.0,0.0
3701,81.0,0.0,150.0,0.0,0.0
3702,72.0,0.0,150.0,6.0,0.0
3703,69.0,0.0,150.0,1.0,0.0
3704,53.0,0.0,150.0,8.0,0.0
3705,65.0,240.0,150.0,7.0,0.0
3706,41.0,0.0,150.0,10.0,0.0
3707,65.0,0.0,150.0,1.0,0.0
3708,65.0,0.0,150.0,1.0,0.0
3709,72.0,0.0,150.0,6.0,0.0
3710,69.0,0.0,150.0,1.0,0.0
3711,53.0,0.0,150.0,8.0,0.0
3712,65.0,0.0,150.0,7.0,0.0
3713,81.0,0.0,150.0,5.0,0.0
3714,81.0,0.0,150.0,0.0,0.0
3715,77.0,240.0,150.0,0.0,0.0
3716,41.0,0.0,150.0,10.0,0.0
3717,55.0,240.0,150.0,8.0,0.0
3718,67.0,0.0,150.0,1.0,0.0
3719,79.0,0.0,150.0,5.0,0.0
3720,76.0,0.0,150.0,0.0,0.0
3721,72.0,0.0,150.0,6.0,0.0
3722,43.0,0.0,150.0,10.0,0.0
3723,64.0,0.0,150.0,7.0,0.0
3724,79.0,0.0,150.0,0.0,0.0
3725,79.0,0.0,150.0,0.0,0.0
3726,64.0,0.0,150.0,7.0,0.0
3727,79.0,0.0,150.0,5.0,0.0
3728,67.0,0.0,150.0,1.0,0.0
3729,55.0,240.0,150.0,8.0,0.0
3730,72.0,0.0,150.0,6.0,0.0
3731,43.0,0.0,150.0,10.0,0.0
3732,76.0,0.0,150.0,0.0,0.0
3733,65.0,0.0,150.0,6.0,0.0
3734,67.0,0.0,150.0,1.0,0.0
3735,62.0,0.0,150.0,7.0,0.0
3736,71.0,0.0,150.0,0.0,0.0
3737,43.0,0.0,150.0,8.0,0.0
3738,71.0,240.0,150.0,5.0,0.0
3739,74.0,0.0,150.0,0.0,0.0
3740,31.0,0.0,150.0,10.0,0.0
3741,43.0,0.0,150.0,8.0,0.0
3742,71.0,0.0,150.0,5.0,0.0
3743,31.0,480.0,150.0,10.0,0.0
3744,67.0,0.0,150.0,1.0,0.0
3745,65.0,0.0,150.0,6.0,0.0
3746,62.0,0.0,150.0,7.0,0.0
3747,74.0,0.0,150.0,0.0,0.0
3748,71.0,0.0,150.0,0.0,0.0
3749,72.0,0.0,390.0,5.0,0.0
3750,48.0,0.0,390.0,8.0,0.0
3751,67.0,0.0,390.0,1.0,0.0
3752,60.0,0.0,390.0,1.0,0.0
3753,60.0,0.0,390.0,7.0,0.0
3754,36.0,216.0,390.0,10.0,0.0
3755,72.0,0.0,390.0,0.0,0.0
3756,64.0,0.0,390.0,6.0,0.0
3757,79.0,72.0,120.0,6.0,0.0
3758,79.0,0.0,120.0,5.0,0.0
3759,76.0,120.0,60.0,5.0,0.0
3760,76.0,0.0,60.0,6.0,0.0
3761,79.0,0.0,60.0,5.0,0.0
3762,79.0,120.0,60.0,6.0,0.0
3763,76.0,0.0,60.0,5.0,0.0
3764,76.0,432.0,60.0,6.0,0.0
3765,72.0,216.0,390.0,5.0,0.0
3766,72.0,0.0,390.0,6.0,0.0
3767,76.0,0.0,120.0,5.0,0.0
3768,76.0,72.0,120.0,6.0,0.0
3769,72.0,0.0,60.0,6.0,0.0
3770,72.0,120.0,60.0,5.0,0.0
3771,76.0,120.0,60.0,5.0,0.0
3772,76.0,0.0,60.0,6.0,0.0
3773,72.0,432.0,60.0,6.0,0.0
3774,72.0,0.0,60.0,5.0,0.0
3775,67.0,0.0,390.0,5.0,0.0
3776,67.0,216.0,390.0,6.0,0.0
3777,60.0,78.0,240.0,1.0,0.0
3778,72.0,72.0,120.0,7.0,0.0
3779,64.0,0.0,240.0,0.0,0.0
3780,72.0,0.0,240.0,0.0,0.0
3781,72.0,0.0,120.0,5.0,0.0
3782,48.0,0.0,120.0,10.0,0.0
3783,72.0,0.0,120.0,6.0,0.0
3784,60.0,0.0,120.0,8.0,0.0
3785,67.0,0.0,240.0,1.0,0.0
3786,67.0,0.0,60.0,5.0,0.0
3787,67.0,0.0,60.0,6.0,0.0
3788,43.0,0.0,60.0,10.0,0.0
3789,55.0,0.0,60.0,8.0,0.0
3790,67.0,42.0,60.0,7.0,0.0
3791,48.0,0.0,60.0,10.0,0.0
3792,72.0,0.0,60.0,7.0,0.0
3793,72.0,0.0,60.0,6.0,0.0
3794,60.0,0.0,60.0,8.0,0.0
3795,72.0,120.0,60.0,5.0,0.0
3796,67.0,0.0,90.0,1.0,0.0
3797,60.0,354.0,90.0,1.0,0.0
3798,67.0,6.0,60.0,5.0,0.0
3799,43.0,0.0,60.0,10.0,0.0
3800,67.0,0.0,60.0,7.0,0.0
3801,72.0,0.0,90.0,0.0,0.0
3802,64.0,0.0,90.0,0.0,0.0
3803,67.0,0.0,60.0,6.0,0.0
3804,55.0,0.0,60.0,8.0,0.0
3805,52.0,0.0,390.0,8.0,0.0
3806,64.0,0.0,300.0,0.0,0.0
3807,64.0,216.0,390.0,7.0,0.0
3808,40.0,0.0,390.0,10.0,0.0
3809,67.0,0.0,300.0,1.0,0.0
3810,60.0,72.0,300.0,1.0,0.0
3811,72.0,0.0,300.0,0.0,0.0
3812,64.0,0.0,390.0,6.0,0.0
3813,64.0,0.0,390.0,5.0,0.0
3814,55.0,0.0,120.0,8.0,0.0
3815,60.0,0.0,300.0,1.0,0.0
3816,67.0,0.0,120.0,7.0,0.0
3817,67.0,0.0,300.0,1.0,0.0
3818,43.0,72.0,120.0,10.0,0.0
3819,64.0,0.0,300.0,0.0,0.0
3820,67.0,0.0,120.0,6.0,0.0
3821,72.0,0.0,300.0,0.0,0.0
3822,67.0,0.0,120.0,5.0,0.0
3823,52.0,0.0,60.0,8.0,0.0
3824,64.0,120.0,60.0,7.0,0.0
3825,40.0,0.0,60.0,10.0,0.0
3826,64.0,0.0,60.0,5.0,0.0
3827,64.0,0.0,60.0,6.0,0.0
3828,67.0,0.0,60.0,6.0,0.0
3829,67.0,0.0,60.0,5.0,0.0
3830,55.0,120.0,60.0,8.0,0.0
3831,67.0,0.0,60.0,7.0,0.0
3832,43.0,0.0,60.0,10.0,0.0
3833,64.0,624.0,60.0,7.0,0.0
3834,64.0,0.0,60.0,5.0,0.0
3835,40.0,0.0,60.0,10.0,0.0
3836,64.0,0.0,60.0,6.0,0.0
3837,52.0,0.0,60.0,8.0,0.0
3838,60.0,0.0,570.0,5.0,0.0
3839,67.0,48.0,780.0,1.0,0.0
3840,36.0,192.0,570.0,10.0,0.0
3841,48.0,0.0,570.0,8.0,0.0
3842,60.0,0.0,780.0,1.0,0.0
3843,60.0,0.0,570.0,6.0,0.0
3844,72.0,0.0,780.0,0.0,0.0
3845,64.0,0.0,780.0,0.0,0.0
3846,60.0,0.0,570.0,7.0,0.0
3847,64.0,0.0,90.0,7.0,0.0
3848,64.0,0.0,90.0,5.0,0.0
3849,40.0,0.0,90.0,10.0,0.0
3850,64.0,120.0,90.0,6.0,0.0
3851,52.0,0.0,90.0,8.0,0.0
3852,55.0,312.0,90.0,8.0,0.0
3853,67.0,0.0,90.0,5.0,0.0
3854,43.0,0.0,90.0,10.0,0.0
3855,67.0,0.0,90.0,6.0,0.0
3856,67.0,0.0,90.0,7.0,0.0
3857,67.0,24.0,300.0,1.0,0.0
3858,76.0,0.0,300.0,0.0,0.0
3859,72.0,0.0,300.0,0.0,0.0
3860,48.0,408.0,360.0,10.0,0.0
3861,60.0,0.0,300.0,1.0,0.0
3862,72.0,48.0,300.0,5.0,0.0
3863,72.0,0.0,300.0,6.0,0.0
3864,60.0,0.0,360.0,8.0,0.0
3865,72.0,0.0,360.0,7.0,0.0
3866,67.0,0.0,300.0,5.0,0.0
3867,48.0,0.0,360.0,10.0,0.0
3868,76.0,0.0,300.0,0.0,0.0
3869,79.0,0.0,300.0,0.0,0.0
3870,60.0,504.0,360.0,7.0,0.0
3871,60.0,0.0,360.0,8.0,0.0
3872,76.0,48.0,300.0,6.0,0.0
3873,76.0,0.0,300.0,5.0,0.0
3874,60.0,0.0,300.0,5.0,0.0
3875,67.0,0.0,300.0,1.0,0.0
3876,60.0,24.0,300.0,1.0,0.0
3877,60.0,0.0,300.0,6.0,0.0
3878,67.0,0.0,300.0,6.0,0.0
3879,36.0,0.0,390.0,10.0,0.0
3880,67.0,0.0,390.0,1.0,0.0
3881,60.0,0.0,390.0,6.0,0.0
3882,67.0,0.0,390.0,6.0,0.0
3883,72.0,0.0,390.0,6.0,0.0
3884,48.0,0.0,390.0,7.0,0.0
3885,60.0,576.0,390.0,1.0,0.0
3886,48.0,0.0,390.0,8.0,0.0
3887,60.0,0.0,390.0,5.0,0.0
3888,72.0,0.0,390.0,5.0,0.0
3889,67.0,0.0,390.0,5.0,0.0
3890,72.0,0.0,390.0,0.0,0.0
3891,67.0,312.0,120.0,2.0,0.0
3892,79.0,480.0,300.0,2.0,0.0
3893,79.0,888.0,300.0,2.0,0.0
3894,79.0,60.0,720.0,2.0,0.0
3895,67.0,408.0,870.0,3.0,0.0
3896,64.0,36.0,390.0,3.0,0.0
3897,77.0,60.0,60.0,2.0,0.0
3898,76.0,24.0,60.0,2.0,0.0
3899,74.0,60.0,60.0,2.0,0.0
3900,72.0,312.0,60.0,2.0,0.0
3901,62.0,0.0,390.0,3.0,0.0
3902,65.0,0.0,390.0,3.0,0.0
3903,71.0,72.0,300.0,2.0,0.0
3904,60.0,0.0,390.0,3.0,0.0
3905,72.0,72.0,300.0,2.0,0.0
3906,64.0,0.0,390.0,3.0,0.0
3907,67.0,480.0,390.0,3.0,0.0
3908,59.0,576.0,390.0,3.0,0.0
3909,62.0,0.0,390.0,3.0,0.0
3910,74.0,0.0,390.0,2.0,0.0
3911,67.0,0.0,390.0,3.0,0.0
3912,67.0,312.0,120.0,2.0,0.0
3913,79.0,480.0,300.0,2.0,0.0
3914,79.0,888.0,300.0,2.0,0.0
3915,79.0,80.0,720.0,2.0,0.0
3916,67.0,408.0,870.0,3.0,0.0
3917,65.0,16.0,390.0,3.0,0.0
3918,77.0,64.0,90.0,2.0,0.0
3919,76.0,80.0,90.0,2.0,0.0
3920,74.0,312.0,90.0,2.0,0.0
3921,64.0,0.0,390.0,3.0,0.0
3922,72.0,72.0,300.0,2.0,0.0
3923,74.0,0.0,300.0,2.0,0.0
3924,62.0,0.0,390.0,3.0,0.0
3925,71.0,72.0,300.0,2.0,0.0
3926,65.0,0.0,390.0,3.0,0.0
3927,67.0,480.0,390.0,3.0,0.0
3928,76.0,0.0,390.0,2.0,0.0
3929,67.0,0.0,390.0,3.0,0.0
3930,64.0,0.0,390.0,3.0,0.0
3931,60.0,576.0,390.0,3.0,0.0
3932,72.0,0.0,390.0,2.0,0.0
3933,67.0,312.0,120.0,2.0,0.0
3934,79.0,480.0,300.0,2.0,0.0
3935,79.0,408.0,300.0,2.0,0.0
3936,48.0,240.0,240.0,3.0,0.0
3937,79.0,120.0,480.0,2.0,0.0
3938,52.0,0.0,240.0,3.0,0.0
3939,55.0,0.0,240.0,3.0,0.0
3940,77.0,120.0,120.0,2.0,0.0
3941,76.0,120.0,120.0,2.0,0.0
3942,60.0,24.0,180.0,3.0,0.0
3943,74.0,72.0,120.0,2.0,0.0
3944,72.0,264.0,90.0,2.0,0.0
3945,48.0,240.0,240.0,3.0,0.0
3946,84.0,120.0,480.0,2.0,0.0
3947,52.0,0.0,240.0,3.0,0.0
3948,83.0,120.0,120.0,2.0,0.0
3949,55.0,120.0,240.0,3.0,0.0
3950,81.0,0.0,120.0,2.0,0.0
3951,60.0,24.0,180.0,3.0,0.0
3952,79.0,72.0,120.0,2.0,0.0
3953,77.0,264.0,90.0,2.0,0.0
3954,48.0,240.0,240.0,3.0,0.0
3955,79.0,0.0,480.0,2.0,0.0
3956,52.0,120.0,240.0,3.0,0.0
3957,77.0,120.0,120.0,2.0,0.0
3958,55.0,120.0,240.0,3.0,0.0
3959,76.0,0.0,120.0,2.0,0.0
3960,74.0,72.0,120.0,2.0,0.0
3961,60.0,24.0,180.0,3.0,0.0
3962,72.0,264.0,90.0,2.0,0.0
3963,84.0,0.0,480.0,2.0,0.0
3964,48.0,240.0,240.0,3.0,0.0
3965,52.0,120.0,240.0,3.0,0.0
3966,83.0,120.0,120.0,2.0,0.0
3967,55.0,120.0,240.0,3.0,0.0
3968,81.0,0.0,120.0,2.0,0.0
3969,79.0,72.0,120.0,2.0,0.0
3970,60.0,24.0,180.0,3.0,0.0
3971,77.0,408.0,90.0,2.0,0.0
3972,79.0,120.0,480.0,2.0,0.0
3973,48.0,96.0,390.0,3.0,0.0
3974,77.0,120.0,120.0,2.0,0.0
3975,76.0,120.0,120.0,2.0,0.0
3976,74.0,96.0,120.0,2.0,0.0
3977,72.0,336.0,90.0,2.0,0.0
3978,71.0,480.0,300.0,2.0,0.0
3979,72.0,72.0,300.0,2.0,0.0
3980,66.0,480.0,390.0,3.0,0.0
3981,57.0,0.0,390.0,3.0,0.0
3982,76.0,0.0,480.0,2.0,0.0
3983,60.0,192.0,480.0,3.0,0.0
3984,55.0,96.0,390.0,3.0,0.0
3985,74.0,192.0,180.0,2.0,0.0
3986,59.0,96.0,390.0,3.0,0.0
3987,55.0,312.0,120.0,2.0,0.0
3988,67.0,480.0,300.0,2.0,0.0
3989,67.0,888.0,300.0,2.0,0.0
3990,67.0,60.0,720.0,2.0,0.0
3991,52.0,0.0,480.0,4.0,0.0
3992,55.0,0.0,480.0,7.0,0.0
3993,52.0,0.0,480.0,8.0,0.0
3994,55.0,432.0,780.0,3.0,0.0
3995,79.0,240.0,480.0,5.0,0.0
3996,67.0,0.0,480.0,6.0,0.0
3997,40.0,0.0,480.0,10.0,0.0
3998,65.0,60.0,60.0,2.0,0.0
3999,64.0,60.0,60.0,2.0,0.0
4000,62.0,60.0,60.0,2.0,0.0
4001,60.0,0.0,60.0,2.0,0.0
4002,38.0,0.0,240.0,10.0,0.0
4003,50.0,0.0,240.0,4.0,0.0
4004,53.0,0.0,240.0,4.0,0.0
4005,53.0,48.0,240.0,7.0,0.0
4006,50.0,0.0,240.0,8.0,0.0
4007,59.0,0.0,300.0,2.0,0.0
4008,59.0,0.0,240.0,6.0,0.0
4009,71.0,0.0,240.0,5.0,0.0
4010,55.0,480.0,390.0,3.0,0.0
4011,72.0,48.0,240.0,5.0,0.0
4012,60.0,0.0,240.0,6.0,0.0
4013,52.0,0.0,240.0,4.0,0.0
4014,48.0,0.0,240.0,4.0,0.0
4015,36.0,0.0,240.0,10.0,0.0
4016,48.0,0.0,240.0,8.0,0.0
4017,52.0,0.0,240.0,7.0,0.0
4018,60.0,96.0,300.0,2.0,0.0
4019,47.0,576.0,390.0,4.0,0.0
4020,53.0,0.0,390.0,7.0,0.0
4021,62.0,0.0,390.0,6.0,0.0
4022,62.0,0.0,390.0,2.0,0.0
4023,74.0,0.0,390.0,5.0,0.0
4024,47.0,0.0,390.0,8.0,0.0
4025,50.0,0.0,390.0,4.0,0.0
4026,35.0,0.0,390.0,10.0,0.0
4027,55.0,0.0,390.0,3.0,0.0
4028,55.0,144.0,120.0,2.0,0.0
4029,67.0,240.0,150.0,2.0,0.0
4030,67.0,240.0,150.0,2.0,0.0
4031,67.0,240.0,150.0,2.0,0.0
4032,67.0,816.0,150.0,2.0,0.0
4033,67.0,80.0,720.0,2.0,0.0
4034,59.0,240.0,480.0,7.0,0.0
4035,79.0,0.0,480.0,5.0,0.0
4036,53.0,0.0,480.0,4.0,0.0
4037,41.0,0.0,480.0,10.0,0.0
4038,67.0,0.0,480.0,6.0,0.0
4039,53.0,0.0,480.0,8.0,0.0
4040,55.0,0.0,780.0,3.0,0.0
4041,65.0,80.0,90.0,2.0,0.0
4042,64.0,80.0,90.0,2.0,0.0
4043,62.0,0.0,90.0,2.0,0.0
4044,52.0,0.0,240.0,8.0,0.0
4045,60.0,0.0,240.0,7.0,0.0
4046,60.0,432.0,300.0,2.0,0.0
4047,72.0,48.0,240.0,5.0,0.0
4048,40.0,0.0,240.0,10.0,0.0
4049,60.0,0.0,240.0,6.0,0.0
4050,52.0,0.0,240.0,4.0,0.0
4051,55.0,480.0,390.0,3.0,0.0
4052,62.0,0.0,240.0,6.0,0.0
4053,59.0,0.0,390.0,3.0,0.0
4054,53.0,0.0,240.0,7.0,0.0
4055,50.0,0.0,240.0,4.0,0.0
4056,50.0,0.0,240.0,8.0,0.0
4057,38.0,48.0,240.0,10.0,0.0
4058,74.0,0.0,240.0,5.0,0.0
4059,53.0,0.0,240.0,4.0,0.0
4060,62.0,96.0,300.0,2.0,0.0
4061,48.0,0.0,390.0,4.0,0.0
4062,52.0,0.0,390.0,4.0,0.0
4063,76.0,0.0,390.0,5.0,0.0
4064,64.0,0.0,390.0,2.0,0.0
4065,36.0,0.0,390.0,10.0,0.0
4066,55.0,0.0,390.0,3.0,0.0
4067,64.0,0.0,390.0,6.0,0.0
4068,60.0,0.0,390.0,3.0,0.0
4069,55.0,576.0,390.0,7.0,0.0
4070,48.0,0.0,390.0,8.0,0.0
4071,55.0,144.0,120.0,2.0,0.0
4072,67.0,240.0,150.0,2.0,0.0
4073,67.0,240.0,150.0,2.0,0.0
4074,67.0,240.0,150.0,2.0,0.0
4075,67.0,336.0,150.0,2.0,0.0
4076,48.0,14.0,3810.0,1.0,0.0
4077,76.0,240.0,960.0,0.0,0.0
4078,36.0,240.0,240.0,3.0,0.0
4079,79.0,0.0,960.0,0.0,0.0
4080,60.0,0.0,3810.0,1.0,0.0
4081,67.0,120.0,480.0,2.0,0.0
4082,40.0,0.0,240.0,3.0,0.0
4083,65.0,120.0,120.0,2.0,0.0
4084,43.0,120.0,240.0,3.0,0.0
4085,64.0,0.0,120.0,2.0,0.0
4086,48.0,24.0,180.0,3.0,0.0
4087,62.0,72.0,120.0,2.0,0.0
4088,60.0,24.0,90.0,2.0,0.0
4089,36.0,240.0,240.0,3.0,0.0
4090,77.0,140.0,930.0,0.0,0.0
4091,81.0,0.0,930.0,0.0,0.0
4092,72.0,0.0,480.0,2.0,0.0
4093,41.0,120.0,240.0,3.0,0.0
4094,71.0,120.0,120.0,2.0,0.0
4095,45.0,120.0,240.0,3.0,0.0
4096,69.0,0.0,120.0,2.0,0.0
4097,67.0,72.0,120.0,2.0,0.0
4098,48.0,24.0,180.0,3.0,0.0
4099,65.0,4.0,90.0,2.0,0.0
4100,36.0,120.0,240.0,3.0,0.0
4101,66.0,120.0,120.0,2.0,0.0
4102,79.0,120.0,960.0,0.0,0.0
4103,76.0,0.0,960.0,0.0,0.0
4104,67.0,0.0,120.0,2.0,0.0
4105,69.0,120.0,120.0,2.0,0.0
4106,40.0,0.0,240.0,3.0,0.0
4107,67.0,120.0,120.0,2.0,0.0
4108,43.0,0.0,240.0,3.0,0.0
4109,65.0,120.0,120.0,2.0,0.0
4110,64.0,120.0,120.0,2.0,0.0
4111,48.0,24.0,180.0,3.0,0.0
4112,62.0,72.0,120.0,2.0,0.0
4113,60.0,24.0,90.0,2.0,0.0
4114,71.0,120.0,120.0,2.0,0.0
4115,36.0,0.0,240.0,3.0,0.0
4116,81.0,0.0,930.0,0.0,0.0
4117,77.0,380.0,930.0,0.0,0.0
4118,72.0,120.0,120.0,2.0,0.0
4119,41.0,0.0,240.0,3.0,0.0
4120,74.0,120.0,120.0,2.0,0.0
4121,72.0,120.0,120.0,2.0,0.0
4122,45.0,0.0,240.0,3.0,0.0
4123,71.0,120.0,120.0,2.0,0.0
4124,69.0,120.0,120.0,2.0,0.0
4125,48.0,10.0,180.0,3.0,0.0
4126,67.0,72.0,120.0,2.0,0.0
4127,65.0,4.0,90.0,2.0,0.0
4128,36.0,72.0,390.0,3.0,0.0
4129,67.0,24.0,360.0,2.0,0.0
4130,79.0,0.0,480.0,0.0,0.0
4131,76.0,360.0,480.0,0.0,0.0
4132,64.0,24.0,90.0,2.0,0.0
4133,77.0,0.0,480.0,0.0,0.0
4134,41.0,72.0,390.0,3.0,0.0
4135,50.0,0.0,390.0,3.0,0.0
4136,62.0,24.0,360.0,2.0,0.0
4137,74.0,480.0,480.0,0.0,0.0
4138,65.0,24.0,90.0,2.0,0.0
4139,43.0,24.0,870.0,3.0,0.0
4140,76.0,120.0,480.0,0.0,0.0
4141,52.0,0.0,480.0,3.0,0.0
4142,60.0,0.0,480.0,2.0,0.0
4143,72.0,0.0,480.0,0.0,0.0
4144,53.0,0.0,390.0,3.0,0.0
4145,64.0,264.0,120.0,2.0,0.0
4146,74.0,0.0,480.0,0.0,0.0
4147,71.0,216.0,480.0,0.0,0.0
4148,59.0,0.0,300.0,2.0,0.0
4149,62.0,72.0,300.0,2.0,0.0
4150,36.0,0.0,3060.0,10.0,0.0
4151,36.0,0.0,2850.0,3.0,0.0
4152,52.0,0.0,3060.0,7.0,0.0
4153,48.0,0.0,3060.0,8.0,0.0
4154,55.0,48.0,3060.0,6.0,0.0
4155,72.0,72.0,390.0,0.0,0.0
4156,48.0,140.0,2850.0,3.0,0.0
4157,60.0,0.0,3060.0,5.0,0.0
4158,67.0,120.0,90.0,2.0,0.0
4159,72.0,48.0,90.0,2.0,0.0
4160,76.0,120.0,90.0,2.0,0.0
4161,79.0,120.0,90.0,2.0,0.0
4162,76.0,120.0,90.0,2.0,0.0
4163,72.0,120.0,90.0,2.0,0.0
4164,67.0,120.0,90.0,2.0,0.0
4165,76.0,120.0,90.0,2.0,0.0
4166,72.0,120.0,90.0,2.0,0.0
4167,67.0,120.0,90.0,2.0,0.0
4168,64.0,120.0,90.0,2.0,0.0
4169,72.0,120.0,90.0,2.0,0.0
4170,67.0,120.0,90.0,2.0,0.0
4171,64.0,120.0,90.0,2.0,0.0
4172,60.0,120.0,90.0,2.0,0.0
4173,67.0,120.0,90.0,2.0,0.0
4174,64.0,120.0,90.0,2.0,0.0
4175,60.0,120.0,90.0,2.0,0.0
4176,55.0,120.0,90.0,2.0,0.0
4177,64.0,120.0,90.0,2.0,0.0
4178,60.0,120.0,90.0,2.0,0.0
4179,55.0,120.0,90.0,2.0,0.0
4180,52.0,4.0,90.0,2.0,0.0
4181,47.0,72.0,120.0,3.0,0.0
4182,48.0,120.0,120.0,3.0,0.0
4183,60.0,0.0,390.0,5.0,0.0
4184,55.0,0.0,390.0,6.0,0.0
4185,48.0,0.0,390.0,8.0,0.0
4186,36.0,96.0,390.0,10.0,0.0
4187,52.0,0.0,390.0,7.0,0.0
4188,47.0,120.0,120.0,3.0,0.0
4189,48.0,120.0,120.0,3.0,0.0
4190,47.0,24.0,120.0,3.0,0.0
4191,48.0,120.0,120.0,3.0,0.0
4192,60.0,0.0,150.0,5.0,0.0
4193,52.0,0.0,150.0,7.0,0.0
4194,47.0,36.0,120.0,3.0,0.0
4195,55.0,0.0,150.0,6.0,0.0
4196,48.0,84.0,150.0,8.0,0.0
4197,36.0,0.0,150.0,10.0,0.0
4198,48.0,216.0,120.0,3.0,0.0
4199,34.0,48.0,3060.0,10.0,0.0
4200,60.0,0.0,3060.0,5.0,0.0
4201,34.0,140.0,2850.0,3.0,0.0
4202,46.0,0.0,2850.0,3.0,0.0
4203,55.0,0.0,3060.0,6.0,0.0
4204,46.0,0.0,3060.0,8.0,0.0
4205,52.0,0.0,3060.0,7.0,0.0
4206,67.0,120.0,90.0,2.0,0.0
4207,72.0,120.0,90.0,2.0,0.0
4208,76.0,120.0,90.0,2.0,0.0
4209,79.0,120.0,90.0,2.0,0.0
4210,76.0,120.0,90.0,2.0,0.0
4211,72.0,120.0,90.0,2.0,0.0
4212,67.0,120.0,90.0,2.0,0.0
4213,76.0,120.0,90.0,2.0,0.0
4214,72.0,120.0,90.0,2.0,0.0
4215,67.0,120.0,90.0,2.0,0.0
4216,64.0,120.0,90.0,2.0,0.0
4217,72.0,120.0,90.0,2.0,0.0
4218,67.0,120.0,90.0,2.0,0.0
4219,64.0,120.0,90.0,2.0,0.0
4220,60.0,120.0,90.0,2.0,0.0
4221,67.0,120.0,90.0,2.0,0.0
4222,64.0,120.0,90.0,2.0,0.0
4223,60.0,120.0,90.0,2.0,0.0
4224,55.0,120.0,90.0,2.0,0.0
4225,64.0,120.0,90.0,2.0,0.0
4226,60.0,120.0,90.0,2.0,0.0
4227,55.0,120.0,90.0,2.0,0.0
4228,52.0,4.0,90.0,2.0,0.0
4229,45.0,72.0,120.0,3.0,0.0
4230,46.0,120.0,120.0,3.0,0.0
4231,46.0,0.0,390.0,8.0,0.0
4232,34.0,0.0,390.0,10.0,0.0
4233,55.0,96.0,390.0,6.0,0.0
4234,60.0,0.0,390.0,5.0,0.0
4235,52.0,0.0,390.0,7.0,0.0
4236,45.0,120.0,120.0,3.0,0.0
4237,46.0,120.0,120.0,3.0,0.0
4238,45.0,24.0,120.0,3.0,0.0
4239,46.0,120.0,120.0,3.0,0.0
4240,60.0,0.0,150.0,5.0,0.0
4241,34.0,0.0,150.0,10.0,0.0
4242,46.0,0.0,150.0,8.0,0.0
4243,55.0,0.0,150.0,6.0,0.0
4244,52.0,60.0,150.0,7.0,0.0
4245,45.0,36.0,120.0,3.0,0.0
4246,46.0,264.0,90.0,3.0,0.0
4247,55.0,240.0,1920.0,6.0,0.0
4248,52.0,0.0,1920.0,7.0,0.0
4249,45.0,0.0,390.0,8.0,0.0
4250,33.0,96.0,390.0,10.0,0.0
4251,57.0,0.0,720.0,2.0,0.0
4252,61.0,0.0,390.0,5.0,0.0
4253,45.0,144.0,240.0,3.0,0.0
4254,49.0,240.0,240.0,3.0,0.0
4255,52.0,144.0,240.0,3.0,0.0
4256,81.0,48.0,150.0,2.0,0.0
4257,49.0,192.0,180.0,3.0,0.0
4258,81.0,96.0,150.0,2.0,0.0
4259,45.0,144.0,240.0,3.0,0.0
4260,81.0,96.0,150.0,2.0,0.0
4261,49.0,144.0,240.0,3.0,0.0
4262,81.0,96.0,150.0,2.0,0.0
4263,52.0,144.0,240.0,3.0,0.0
4264,49.0,48.0,180.0,3.0,0.0
4265,81.0,48.0,150.0,2.0,0.0
4266,33.0,96.0,390.0,10.0,0.0
4267,50.0,240.0,1920.0,7.0,0.0
4268,81.0,0.0,720.0,2.0,0.0
4269,45.0,0.0,390.0,8.0,0.0
4270,45.0,144.0,240.0,3.0,0.0
4271,53.0,0.0,1920.0,6.0,0.0
4272,50.0,240.0,240.0,3.0,0.0
4273,53.0,80.0,240.0,3.0,0.0
4274,79.0,80.0,90.0,2.0,0.0
4275,50.0,48.0,180.0,3.0,0.0
4276,77.0,32.0,90.0,2.0,0.0
4277,76.0,240.0,90.0,2.0,0.0
4278,74.0,168.0,300.0,2.0,0.0
4279,45.0,72.0,240.0,3.0,0.0
4280,50.0,240.0,240.0,3.0,0.0
4281,74.0,120.0,300.0,2.0,0.0
4282,53.0,72.0,240.0,3.0,0.0
4283,50.0,48.0,180.0,3.0,0.0
4284,73.0,240.0,480.0,2.0,0.0
4285,33.0,0.0,390.0,10.0,0.0
4286,45.0,96.0,390.0,8.0,0.0
4287,55.0,0.0,1920.0,7.0,0.0
4288,45.0,144.0,240.0,3.0,0.0
4289,61.0,240.0,1920.0,6.0,0.0
4290,52.0,0.0,240.0,3.0,0.0
4291,55.0,144.0,240.0,3.0,0.0
4292,76.0,48.0,390.0,2.0,0.0
4293,52.0,192.0,180.0,3.0,0.0
4294,81.0,0.0,150.0,5.0,0.0
4295,45.0,144.0,240.0,3.0,0.0
4296,81.0,96.0,150.0,5.0,0.0
4297,52.0,144.0,240.0,3.0,0.0
4298,81.0,96.0,150.0,5.0,0.0
4299,55.0,144.0,240.0,3.0,0.0
4300,81.0,96.0,150.0,5.0,0.0
4301,81.0,48.0,150.0,5.0,0.0
4302,52.0,48.0,180.0,3.0,0.0
4303,81.0,0.0,720.0,5.0,0.0
4304,45.0,144.0,240.0,3.0,0.0
4305,33.0,96.0,390.0,10.0,0.0
4306,62.0,0.0,1920.0,6.0,0.0
4307,45.0,0.0,390.0,8.0,0.0
4308,53.0,240.0,1920.0,7.0,0.0
4309,50.0,240.0,240.0,3.0,0.0
4310,69.0,240.0,480.0,2.0,0.0
4311,53.0,80.0,240.0,3.0,0.0
4312,79.0,80.0,90.0,5.0,0.0
4313,50.0,48.0,180.0,3.0,0.0
4314,77.0,32.0,90.0,5.0,0.0
4315,76.0,0.0,90.0,5.0,0.0
4316,74.0,168.0,300.0,5.0,0.0
4317,45.0,72.0,240.0,3.0,0.0
4318,74.0,240.0,480.0,2.0,0.0
4319,50.0,0.0,240.0,3.0,0.0
4320,53.0,72.0,240.0,3.0,0.0
4321,77.0,48.0,390.0,2.0,0.0
4322,74.0,72.0,300.0,5.0,0.0
4323,50.0,48.0,180.0,3.0,0.0
4324,67.0,0.0,1920.0,6.0,0.0
4325,73.0,144.0,480.0,5.0,0.0
4326,76.0,24.0,360.0,2.0,0.0
4327,45.0,0.0,390.0,8.0,0.0
4328,64.0,240.0,1920.0,7.0,0.0
4329,45.0,120.0,240.0,3.0,0.0
4330,33.0,96.0,390.0,10.0,0.0
4331,49.0,0.0,240.0,3.0,0.0
4332,73.0,0.0,120.0,2.0,0.0
4333,52.0,144.0,240.0,3.0,0.0
4334,76.0,48.0,390.0,5.0,0.0
4335,69.0,96.0,150.0,2.0,0.0
4336,49.0,192.0,180.0,3.0,0.0
4337,81.0,0.0,150.0,2.0,0.0
4338,81.0,96.0,150.0,2.0,0.0
4339,45.0,144.0,240.0,3.0,0.0
4340,81.0,96.0,150.0,2.0,0.0
4341,49.0,144.0,240.0,3.0,0.0
4342,81.0,96.0,150.0,2.0,0.0
4343,52.0,144.0,240.0,3.0,0.0
4344,81.0,48.0,150.0,2.0,0.0
4345,49.0,48.0,180.0,3.0,0.0
4346,45.0,144.0,240.0,3.0,0.0
4347,65.0,240.0,1920.0,6.0,0.0
4348,33.0,96.0,390.0,10.0,0.0
4349,62.0,0.0,1920.0,7.0,0.0
4350,45.0,0.0,390.0,8.0,0.0
4351,81.0,0.0,720.0,2.0,0.0
4352,50.0,240.0,240.0,3.0,0.0
4353,53.0,80.0,240.0,3.0,0.0
4354,79.0,80.0,90.0,2.0,0.0
4355,50.0,48.0,180.0,3.0,0.0
4356,77.0,32.0,90.0,2.0,0.0
4357,76.0,144.0,90.0,2.0,0.0
4358,74.0,96.0,150.0,2.0,0.0
4359,45.0,144.0,240.0,3.0,0.0
4360,74.0,96.0,150.0,2.0,0.0
4361,50.0,144.0,240.0,3.0,0.0
4362,53.0,144.0,240.0,3.0,0.0
4363,74.0,96.0,150.0,2.0,0.0
4364,50.0,48.0,180.0,3.0,0.0
4365,74.0,48.0,150.0,2.0,0.0
4366,45.0,96.0,390.0,8.0,0.0
4367,61.0,240.0,1920.0,7.0,0.0
4368,64.0,0.0,1920.0,6.0,0.0
4369,33.0,0.0,390.0,10.0,0.0
4370,73.0,240.0,480.0,2.0,0.0
4371,45.0,144.0,240.0,3.0,0.0
4372,52.0,0.0,240.0,3.0,0.0
4373,76.0,48.0,390.0,2.0,0.0
4374,55.0,144.0,240.0,3.0,0.0
4375,52.0,192.0,180.0,3.0,0.0
4376,81.0,0.0,150.0,5.0,0.0
4377,81.0,96.0,150.0,5.0,0.0
4378,45.0,144.0,240.0,3.0,0.0
4379,81.0,96.0,150.0,5.0,0.0
4380,52.0,144.0,240.0,3.0,0.0
4381,55.0,144.0,240.0,3.0,0.0
4382,81.0,96.0,150.0,5.0,0.0
4383,81.0,48.0,150.0,5.0,0.0
4384,52.0,48.0,180.0,3.0,0.0
4385,62.0,0.0,1920.0,7.0,0.0
4386,65.0,96.0,1920.0,6.0,0.0
4387,45.0,144.0,240.0,3.0,0.0
4388,45.0,96.0,390.0,8.0,0.0
4389,81.0,80.0,720.0,5.0,0.0
4390,33.0,0.0,390.0,10.0,0.0
4391,50.0,240.0,240.0,3.0,0.0
4392,53.0,0.0,240.0,3.0,0.0
4393,69.0,144.0,480.0,2.0,0.0
4394,79.0,80.0,90.0,5.0,0.0
4395,50.0,48.0,180.0,3.0,0.0
4396,77.0,32.0,90.0,5.0,0.0
4397,76.0,0.0,90.0,5.0,0.0
4398,74.0,144.0,480.0,2.0,0.0
4399,74.0,96.0,150.0,5.0,0.0
4400,45.0,144.0,240.0,3.0,0.0
4401,50.0,0.0,240.0,3.0,0.0
4402,74.0,96.0,150.0,5.0,0.0
4403,53.0,144.0,240.0,3.0,0.0
4404,77.0,0.0,480.0,2.0,0.0
4405,74.0,96.0,150.0,5.0,0.0
4406,50.0,48.0,180.0,3.0,0.0
4407,74.0,48.0,150.0,5.0,0.0
4408,45.0,0.0,1440.0,4.0,0.0
4409,76.0,120.0,90.0,2.0,0.0
4410,57.0,24.0,300.0,7.0,0.0
4411,45.0,0.0,1440.0,10.0,0.0
4412,64.0,0.0,300.0,6.0,0.0
4413,73.0,0.0,300.0,5.0,0.0
4414,57.0,0.0,1440.0,8.0,0.0
4415,57.0,96.0,1440.0,3.0,0.0
4416,81.0,96.0,90.0,2.0,0.0
4417,76.0,120.0,90.0,2.0,0.0
4418,73.0,120.0,90.0,2.0,0.0
4419,69.0,120.0,90.0,2.0,0.0
4420,57.0,24.0,900.0,6.0,0.0
4421,57.0,0.0,900.0,7.0,0.0
4422,57.0,0.0,900.0,5.0,0.0
4423,81.0,120.0,90.0,2.0,0.0
4424,69.0,120.0,90.0,2.0,0.0
4425,81.0,120.0,90.0,2.0,0.0
4426,69.0,120.0,90.0,2.0,0.0
4427,81.0,120.0,90.0,2.0,0.0
4428,69.0,96.0,90.0,2.0,0.0
4429,81.0,24.0,90.0,2.0,0.0
4430,55.0,0.0,480.0,8.0,0.0
4431,43.0,0.0,480.0,10.0,0.0
4432,43.0,96.0,480.0,4.0,0.0
4433,61.0,0.0,480.0,6.0,0.0
4434,55.0,0.0,480.0,3.0,0.0
4435,73.0,120.0,90.0,2.0,0.0
4436,57.0,96.0,960.0,7.0,0.0
4437,64.0,0.0,480.0,5.0,0.0
4438,81.0,120.0,90.0,2.0,0.0
4439,73.0,120.0,90.0,2.0,0.0
4440,81.0,24.0,90.0,2.0,0.0
4441,74.0,120.0,90.0,2.0,0.0
4442,53.0,0.0,480.0,8.0,0.0
4443,65.0,10.0,480.0,5.0,0.0
4444,62.0,0.0,480.0,6.0,0.0
4445,53.0,0.0,480.0,3.0,0.0
4446,41.0,0.0,480.0,4.0,0.0
4447,41.0,0.0,480.0,10.0,0.0
4448,81.0,120.0,90.0,2.0,0.0
4449,74.0,120.0,90.0,2.0,0.0
4450,81.0,14.0,90.0,2.0,0.0
4451,55.0,0.0,480.0,7.0,0.0
4452,52.0,0.0,480.0,3.0,0.0
4453,40.0,96.0,480.0,10.0,0.0
4454,67.0,10.0,480.0,5.0,0.0
4455,40.0,0.0,480.0,4.0,0.0
4456,52.0,0.0,480.0,8.0,0.0
4457,76.0,120.0,90.0,2.0,0.0
4458,64.0,0.0,480.0,6.0,0.0
4459,81.0,120.0,90.0,2.0,0.0
4460,76.0,120.0,90.0,2.0,0.0
4461,81.0,14.0,90.0,2.0,0.0
4462,69.0,0.0,1890.0,5.0,0.0
4463,50.0,0.0,480.0,3.0,0.0
4464,50.0,0.0,480.0,8.0,0.0
4465,38.0,0.0,480.0,10.0,0.0
4466,65.0,0.0,480.0,6.0,0.0
4467,53.0,96.0,480.0,7.0,0.0
4468,38.0,0.0,480.0,4.0,0.0
4469,77.0,120.0,90.0,2.0,0.0
4470,81.0,120.0,90.0,2.0,0.0
4471,77.0,120.0,90.0,2.0,0.0
4472,81.0,24.0,90.0,2.0,0.0
4473,53.0,0.0,480.0,3.0,0.0
4474,62.0,0.0,480.0,6.0,0.0
4475,57.0,106.0,480.0,7.0,0.0
4476,41.0,0.0,480.0,4.0,0.0
4477,41.0,0.0,480.0,10.0,0.0
4478,74.0,120.0,90.0,2.0,0.0
4479,53.0,0.0,480.0,8.0,0.0
4480,81.0,120.0,90.0,2.0,0.0
4481,74.0,120.0,90.0,2.0,0.0
4482,81.0,14.0,90.0,2.0,0.0
4483,62.0,116.0,930.0,7.0,0.0
4484,70.0,72.0,390.0,6.0,0.0
4485,43.0,0.0,1440.0,4.0,0.0
4486,55.0,0.0,1440.0,8.0,0.0
4487,43.0,96.0,1440.0,10.0,0.0
4488,70.0,120.0,90.0,2.0,0.0
4489,55.0,0.0,1440.0,3.0,0.0
4490,74.0,120.0,90.0,2.0,0.0
4491,81.0,48.0,90.0,2.0,0.0
4492,74.0,120.0,90.0,2.0,0.0
4493,55.0,20.0,930.0,6.0,0.0
4494,81.0,120.0,90.0,2.0,0.0
4495,74.0,120.0,90.0,2.0,0.0
4496,81.0,120.0,90.0,2.0,0.0
4497,74.0,4.0,90.0,2.0,0.0
4498,70.0,120.0,90.0,2.0,0.0
4499,50.0,20.0,930.0,7.0,0.0
4500,70.0,14.0,2850.0,5.0,0.0
4501,74.0,120.0,90.0,2.0,0.0
4502,82.0,120.0,90.0,2.0,0.0
4503,74.0,4.0,90.0,2.0,0.0
4504,53.0,0.0,480.0,8.0,0.0
4505,41.0,0.0,480.0,10.0,0.0
4506,41.0,0.0,480.0,4.0,0.0
4507,69.0,96.0,480.0,6.0,0.0
4508,53.0,0.0,480.0,3.0,0.0
4509,70.0,120.0,90.0,2.0,0.0
4510,74.0,120.0,90.0,2.0,0.0
4511,81.0,120.0,90.0,2.0,0.0
4512,74.0,4.0,90.0,2.0,0.0
4513,67.0,96.0,480.0,6.0,0.0
4514,70.0,120.0,90.0,2.0,0.0
4515,40.0,0.0,480.0,10.0,0.0
4516,52.0,0.0,480.0,8.0,0.0
4517,52.0,0.0,480.0,7.0,0.0
4518,40.0,0.0,480.0,4.0,0.0
4519,52.0,0.0,480.0,3.0,0.0
4520,72.0,120.0,90.0,2.0,0.0
4521,79.0,120.0,90.0,2.0,0.0
4522,72.0,24.0,90.0,2.0,0.0
4523,65.0,0.0,480.0,6.0,0.0
4524,38.0,0.0,480.0,4.0,0.0
4525,38.0,0.0,480.0,10.0,0.0
4526,53.0,0.0,480.0,7.0,0.0
4527,70.0,120.0,90.0,2.0,0.0
4528,50.0,0.0,480.0,8.0,0.0
4529,50.0,96.0,480.0,3.0,0.0
4530,72.0,120.0,90.0,2.0,0.0
4531,77.0,120.0,90.0,2.0,0.0
4532,72.0,24.0,90.0,2.0,0.0
4533,48.0,0.0,480.0,8.0,0.0
4534,48.0,0.0,480.0,3.0,0.0
4535,36.0,0.0,480.0,4.0,0.0
4536,55.0,96.0,480.0,7.0,0.0
4537,70.0,120.0,90.0,2.0,0.0
4538,36.0,0.0,480.0,10.0,0.0
4539,64.0,0.0,480.0,6.0,0.0
4540,72.0,120.0,90.0,2.0,0.0
4541,76.0,120.0,90.0,2.0,0.0
4542,72.0,24.0,90.0,2.0,0.0
4543,67.0,0.0,480.0,6.0,0.0
4544,52.0,0.0,480.0,3.0,0.0
4545,70.0,120.0,90.0,2.0,0.0
4546,60.0,0.0,480.0,7.0,0.0
4547,52.0,0.0,480.0,8.0,0.0
4548,40.0,106.0,480.0,4.0,0.0
4549,40.0,0.0,480.0,10.0,0.0
4550,72.0,120.0,90.0,2.0,0.0
4551,79.0,106.0,90.0,2.0,0.0
4552,72.0,14.0,90.0,2.0,0.0
4553,69.0,24.0,300.0,5.0,0.0
4554,60.0,0.0,930.0,7.0,0.0
4555,69.0,120.0,90.0,2.0,0.0
4556,53.0,96.0,1440.0,8.0,0.0
4557,67.0,116.0,930.0,6.0,0.0
4558,41.0,0.0,1440.0,4.0,0.0
4559,41.0,0.0,1440.0,10.0,0.0
4560,53.0,0.0,1440.0,3.0,0.0
4561,72.0,96.0,90.0,2.0,0.0
4562,79.0,120.0,90.0,2.0,0.0
4563,72.0,120.0,90.0,2.0,0.0
4564,79.0,120.0,90.0,2.0,0.0
4565,53.0,20.0,930.0,5.0,0.0
4566,72.0,120.0,90.0,2.0,0.0
4567,79.0,120.0,90.0,2.0,0.0
4568,72.0,4.0,90.0,2.0,0.0
4569,48.0,20.0,930.0,7.0,0.0
4570,69.0,120.0,90.0,2.0,0.0
4571,69.0,14.0,2850.0,6.0,0.0
4572,72.0,120.0,90.0,2.0,0.0
4573,81.0,120.0,90.0,2.0,0.0
4574,72.0,4.0,90.0,2.0,0.0
4575,40.0,0.0,480.0,4.0,0.0
4576,67.0,96.0,480.0,5.0,0.0
4577,52.0,0.0,480.0,8.0,0.0
4578,40.0,0.0,480.0,10.0,0.0
4579,52.0,0.0,480.0,3.0,0.0
4580,69.0,120.0,90.0,2.0,0.0
4581,72.0,120.0,90.0,2.0,0.0
4582,79.0,120.0,90.0,2.0,0.0
4583,72.0,4.0,90.0,2.0,0.0
4584,69.0,120.0,90.0,2.0,0.0
4585,50.0,0.0,480.0,8.0,0.0
4586,50.0,96.0,480.0,7.0,0.0
4587,50.0,0.0,480.0,3.0,0.0
4588,38.0,0.0,480.0,4.0,0.0
4589,65.0,0.0,480.0,5.0,0.0
4590,38.0,0.0,480.0,10.0,0.0
4591,70.0,120.0,90.0,2.0,0.0
4592,77.0,120.0,90.0,2.0,0.0
4593,70.0,24.0,90.0,2.0,0.0
4594,36.0,0.0,480.0,10.0,0.0
4595,48.0,0.0,480.0,3.0,0.0
4596,64.0,96.0,480.0,5.0,0.0
4597,48.0,0.0,480.0,8.0,0.0
4598,36.0,0.0,480.0,4.0,0.0
4599,52.0,0.0,480.0,7.0,0.0
4600,69.0,120.0,90.0,2.0,0.0
4601,70.0,120.0,90.0,2.0,0.0
4602,76.0,120.0,90.0,2.0,0.0
4603,70.0,24.0,90.0,2.0,0.0
4604,69.0,120.0,90.0,2.0,0.0
4605,53.0,0.0,480.0,7.0,0.0
4606,62.0,0.0,480.0,5.0,0.0
4607,34.0,0.0,480.0,10.0,0.0
4608,46.0,0.0,480.0,8.0,0.0
4609,46.0,96.0,480.0,3.0,0.0
4610,34.0,0.0,480.0,4.0,0.0
4611,70.0,120.0,90.0,2.0,0.0
4612,74.0,120.0,90.0,2.0,0.0
4613,70.0,24.0,90.0,2.0,0.0
4614,38.0,14.0,450.0,4.0,0.0
4615,50.0,0.0,450.0,8.0,0.0
4616,65.0,106.0,480.0,5.0,0.0
4617,38.0,0.0,450.0,10.0,0.0
4618,58.0,0.0,480.0,7.0,0.0
4619,50.0,0.0,450.0,3.0,0.0
4620,69.0,120.0,90.0,2.0,0.0
4621,70.0,120.0,90.0,2.0,0.0
4622,77.0,106.0,90.0,2.0,0.0
4623,70.0,0.0,90.0,2.0,0.0
4624,67.0,24.0,300.0,6.0,0.0
4625,40.0,0.0,1440.0,10.0,0.0
4626,67.0,120.0,90.0,2.0,0.0
4627,52.0,0.0,1440.0,8.0,0.0
4628,58.0,116.0,930.0,7.0,0.0
4629,52.0,0.0,1440.0,3.0,0.0
4630,65.0,0.0,930.0,5.0,0.0
4631,40.0,96.0,1440.0,4.0,0.0
4632,70.0,96.0,90.0,2.0,0.0
4633,77.0,120.0,90.0,2.0,0.0
4634,70.0,120.0,90.0,2.0,0.0
4635,52.0,20.0,930.0,6.0,0.0
4636,77.0,120.0,90.0,2.0,0.0
4637,70.0,120.0,90.0,2.0,0.0
4638,77.0,120.0,90.0,2.0,0.0
4639,70.0,4.0,90.0,2.0,0.0
4640,67.0,14.0,2850.0,5.0,0.0
4641,67.0,120.0,90.0,2.0,0.0
4642,46.0,20.0,930.0,7.0,0.0
4643,70.0,120.0,90.0,2.0,0.0
4644,79.0,120.0,90.0,2.0,0.0
4645,70.0,4.0,90.0,2.0,0.0
4646,65.0,0.0,480.0,6.0,0.0
4647,50.0,0.0,480.0,3.0,0.0
4648,50.0,96.0,480.0,8.0,0.0
4649,38.0,0.0,480.0,10.0,0.0
4650,38.0,0.0,480.0,4.0,0.0
4651,67.0,120.0,90.0,2.0,0.0
4652,70.0,120.0,90.0,2.0,0.0
4653,77.0,120.0,90.0,2.0,0.0
4654,70.0,4.0,90.0,2.0,0.0
4655,49.0,0.0,480.0,8.0,0.0
4656,64.0,0.0,480.0,6.0,0.0
4657,37.0,96.0,480.0,4.0,0.0
4658,37.0,0.0,480.0,10.0,0.0
4659,48.0,0.0,480.0,7.0,0.0
4660,49.0,0.0,480.0,3.0,0.0
4661,67.0,120.0,90.0,2.0,0.0
4662,69.0,120.0,90.0,2.0,0.0
4663,76.0,120.0,90.0,2.0,0.0
4664,69.0,24.0,90.0,2.0,0.0
4665,47.0,0.0,480.0,3.0,0.0
4666,67.0,120.0,90.0,2.0,0.0
4667,35.0,0.0,480.0,10.0,0.0
4668,50.0,0.0,480.0,7.0,0.0
4669,62.0,96.0,480.0,6.0,0.0
4670,47.0,0.0,480.0,8.0,0.0
4671,35.0,0.0,480.0,4.0,0.0
4672,69.0,120.0,90.0,2.0,0.0
4673,74.0,120.0,90.0,2.0,0.0
4674,69.0,24.0,90.0,2.0,0.0
4675,45.0,0.0,480.0,8.0,0.0
4676,33.0,0.0,480.0,10.0,0.0
4677,45.0,0.0,480.0,3.0,0.0
4678,52.0,96.0,480.0,7.0,0.0
4679,61.0,0.0,480.0,6.0,0.0
4680,33.0,0.0,480.0,4.0,0.0
4681,67.0,120.0,90.0,2.0,0.0
4682,69.0,120.0,90.0,2.0,0.0
4683,73.0,120.0,90.0,2.0,0.0
4684,69.0,24.0,90.0,2.0,0.0
4685,67.0,120.0,90.0,2.0,0.0
4686,49.0,0.0,450.0,3.0,0.0
4687,37.0,0.0,450.0,10.0,0.0
4688,49.0,0.0,450.0,8.0,0.0
4689,37.0,0.0,450.0,4.0,0.0
4690,64.0,0.0,480.0,6.0,0.0
4691,57.0,226.0,480.0,7.0,0.0
4692,69.0,120.0,90.0,2.0,0.0
4693,76.0,106.0,90.0,2.0,0.0
4694,69.0,14.0,90.0,2.0,0.0
4695,38.0,0.0,960.0,4.0,0.0
4696,50.0,0.0,960.0,3.0,0.0
4697,65.0,0.0,960.0,5.0,0.0
4698,38.0,0.0,960.0,10.0,0.0
4699,50.0,216.0,960.0,8.0,0.0
4700,57.0,14.0,1890.0,7.0,0.0
4701,62.0,0.0,960.0,6.0,0.0
4702,65.0,120.0,90.0,2.0,0.0
4703,69.0,120.0,90.0,2.0,0.0
4704,74.0,120.0,90.0,2.0,0.0
4705,77.0,120.0,90.0,2.0,0.0
4706,74.0,120.0,90.0,2.0,0.0
4707,69.0,120.0,90.0,2.0,0.0
4708,65.0,24.0,90.0,2.0,0.0
4709,48.0,0.0,960.0,3.0,0.0
4710,36.0,0.0,960.0,4.0,0.0
4711,66.0,0.0,960.0,5.0,0.0
4712,63.0,0.0,960.0,6.0,0.0
4713,36.0,0.0,960.0,10.0,0.0
4714,48.0,216.0,960.0,8.0,0.0
4715,66.0,120.0,90.0,2.0,0.0
4716,69.0,120.0,90.0,2.0,0.0
4717,75.0,120.0,90.0,2.0,0.0
4718,78.0,120.0,90.0,2.0,0.0
4719,75.0,120.0,90.0,2.0,0.0
4720,69.0,106.0,90.0,2.0,0.0
4721,66.0,24.0,90.0,2.0,0.0
4722,47.0,0.0,960.0,8.0,0.0
4723,35.0,0.0,960.0,4.0,0.0
4724,62.0,14.0,1890.0,6.0,0.0
4725,47.0,0.0,960.0,3.0,0.0
4726,59.0,20.0,930.0,7.0,0.0
4727,67.0,0.0,960.0,5.0,0.0
4728,35.0,216.0,960.0,10.0,0.0
4729,67.0,120.0,90.0,2.0,0.0
4730,71.0,120.0,90.0,2.0,0.0
4731,74.0,120.0,90.0,2.0,0.0
4732,79.0,120.0,90.0,2.0,0.0
4733,74.0,120.0,90.0,2.0,0.0
4734,71.0,120.0,90.0,2.0,0.0
4735,67.0,4.0,90.0,2.0,0.0
4736,34.0,236.0,930.0,4.0,0.0
4737,46.0,0.0,930.0,8.0,0.0
4738,46.0,0.0,930.0,3.0,0.0
4739,65.0,0.0,930.0,7.0,0.0
4740,34.0,0.0,930.0,10.0,0.0
4741,68.0,0.0,930.0,5.0,0.0
4742,68.0,120.0,90.0,2.0,0.0
4743,74.0,120.0,90.0,2.0,0.0
4744,77.0,120.0,90.0,2.0,0.0
4745,80.0,120.0,90.0,2.0,0.0
4746,77.0,120.0,90.0,2.0,0.0
4747,74.0,106.0,90.0,2.0,0.0
4748,68.0,4.0,90.0,2.0,0.0
4749,33.0,0.0,960.0,4.0,0.0
4750,61.0,0.0,1890.0,7.0,0.0
4751,64.0,14.0,1890.0,6.0,0.0
4752,45.0,0.0,960.0,8.0,0.0
4753,69.0,216.0,960.0,5.0,0.0
4754,33.0,0.0,960.0,10.0,0.0
4755,45.0,0.0,960.0,3.0,0.0
4756,69.0,120.0,90.0,2.0,0.0
4757,73.0,120.0,90.0,2.0,0.0
4758,76.0,120.0,90.0,2.0,0.0
4759,81.0,120.0,90.0,2.0,0.0
4760,76.0,120.0,90.0,2.0,0.0
4761,73.0,120.0,90.0,2.0,0.0
4762,69.0,24.0,90.0,2.0,0.0
4763,43.0,0.0,930.0,3.0,0.0
4764,31.0,0.0,930.0,10.0,0.0
4765,43.0,0.0,930.0,8.0,0.0
4766,70.0,236.0,930.0,5.0,0.0
4767,31.0,0.0,930.0,4.0,0.0
4768,70.0,120.0,90.0,2.0,0.0
4769,73.0,120.0,90.0,2.0,0.0
4770,76.0,120.0,90.0,2.0,0.0
4771,82.0,120.0,90.0,2.0,0.0
4772,76.0,120.0,90.0,2.0,0.0
4773,73.0,106.0,90.0,2.0,0.0
4774,70.0,4.0,90.0,2.0,0.0
4775,41.0,0.0,480.0,3.0,0.0
4776,65.0,0.0,480.0,6.0,0.0
4777,29.0,0.0,480.0,4.0,0.0
4778,29.0,0.0,480.0,10.0,0.0
4779,62.0,0.0,480.0,7.0,0.0
4780,69.0,0.0,480.0,5.0,0.0
4781,41.0,216.0,480.0,8.0,0.0
4782,74.0,120.0,90.0,2.0,0.0
4783,77.0,120.0,90.0,2.0,0.0
4784,81.0,24.0,90.0,2.0,0.0
4785,67.0,0.0,480.0,5.0,0.0
4786,31.0,0.0,480.0,4.0,0.0
4787,43.0,0.0,480.0,8.0,0.0
4788,58.0,0.0,480.0,7.0,0.0
4789,31.0,0.0,480.0,10.0,0.0
4790,64.0,0.0,480.0,6.0,0.0
4791,43.0,216.0,480.0,3.0,0.0
4792,70.0,120.0,90.0,2.0,0.0
4793,76.0,120.0,90.0,2.0,0.0
4794,79.0,24.0,90.0,2.0,0.0
4795,45.0,0.0,900.0,8.0,0.0
4796,33.0,0.0,480.0,4.0,0.0
4797,57.0,0.0,900.0,7.0,0.0
4798,62.0,216.0,480.0,6.0,0.0
4799,33.0,24.0,900.0,10.0,0.0
4800,45.0,0.0,480.0,3.0,0.0
4801,65.0,0.0,480.0,5.0,0.0
4802,69.0,120.0,90.0,2.0,0.0
4803,74.0,120.0,90.0,2.0,0.0
4804,77.0,24.0,90.0,2.0,0.0
4805,61.0,0.0,480.0,6.0,0.0
4806,64.0,0.0,480.0,5.0,0.0
4807,33.0,58.0,480.0,4.0,0.0
4808,45.0,0.0,480.0,3.0,0.0
4809,69.0,120.0,90.0,2.0,0.0
4810,73.0,96.0,90.0,2.0,0.0
4811,76.0,14.0,90.0,2.0,0.0
4812,38.0,0.0,390.0,10.0,0.0
4813,38.0,0.0,390.0,4.0,0.0
4814,50.0,24.0,390.0,3.0,0.0
4815,50.0,0.0,390.0,8.0,0.0
4816,79.0,60.0,60.0,2.0,0.0
4817,77.0,60.0,60.0,2.0,0.0
4818,79.0,60.0,60.0,2.0,0.0
4819,77.0,60.0,60.0,2.0,0.0
4820,79.0,60.0,60.0,2.0,0.0
4821,62.0,0.0,180.0,6.0,0.0
4822,57.0,0.0,180.0,7.0,0.0
4823,65.0,36.0,180.0,5.0,0.0
4824,77.0,36.0,60.0,2.0,0.0
4825,79.0,24.0,60.0,2.0,0.0
4826,77.0,60.0,60.0,2.0,0.0
4827,79.0,60.0,60.0,2.0,0.0
4828,57.0,0.0,180.0,7.0,0.0
4829,62.0,0.0,180.0,6.0,0.0
4830,65.0,36.0,180.0,5.0,0.0
4831,77.0,60.0,60.0,2.0,0.0
4832,79.0,24.0,60.0,2.0,0.0
4833,77.0,60.0,60.0,2.0,0.0
4834,57.0,0.0,180.0,7.0,0.0
4835,65.0,0.0,180.0,5.0,0.0
4836,79.0,60.0,60.0,2.0,0.0
4837,62.0,36.0,180.0,6.0,0.0
4838,77.0,60.0,60.0,2.0,0.0
4839,79.0,24.0,60.0,2.0,0.0
4840,77.0,60.0,60.0,2.0,0.0
4841,79.0,60.0,60.0,2.0,0.0
4842,36.0,24.0,390.0,10.0,0.0
4843,48.0,0.0,390.0,3.0,0.0
4844,36.0,0.0,390.0,4.0,0.0
4845,48.0,0.0,390.0,8.0,0.0
4846,78.0,60.0,60.0,2.0,0.0
4847,79.0,60.0,60.0,2.0,0.0
4848,78.0,60.0,60.0,2.0,0.0
4849,79.0,60.0,60.0,2.0,0.0
4850,63.0,0.0,180.0,6.0,0.0
4851,57.0,36.0,180.0,7.0,0.0
4852,66.0,0.0,180.0,5.0,0.0
4853,78.0,36.0,60.0,2.0,0.0
4854,79.0,24.0,60.0,2.0,0.0
4855,78.0,60.0,60.0,2.0,0.0
4856,63.0,0.0,180.0,6.0,0.0
4857,79.0,60.0,60.0,2.0,0.0
4858,57.0,0.0,180.0,7.0,0.0
4859,66.0,36.0,180.0,5.0,0.0
4860,78.0,60.0,60.0,2.0,0.0
4861,79.0,24.0,60.0,2.0,0.0
4862,78.0,60.0,60.0,2.0,0.0
4863,79.0,60.0,60.0,2.0,0.0
4864,66.0,36.0,180.0,5.0,0.0
4865,57.0,0.0,180.0,7.0,0.0
4866,63.0,0.0,180.0,6.0,0.0
4867,78.0,60.0,60.0,2.0,0.0
4868,79.0,24.0,60.0,2.0,0.0
4869,78.0,60.0,60.0,2.0,0.0
4870,81.0,60.0,60.0,2.0,0.0
4871,35.0,0.0,390.0,10.0,0.0
4872,35.0,0.0,390.0,4.0,0.0
4873,47.0,24.0,390.0,8.0,0.0
4874,47.0,0.0,390.0,3.0,0.0
4875,79.0,60.0,60.0,2.0,0.0
4876,81.0,60.0,60.0,2.0,0.0
4877,79.0,60.0,60.0,2.0,0.0
4878,62.0,36.0,180.0,6.0,0.0
4879,67.0,0.0,180.0,5.0,0.0
4880,81.0,60.0,60.0,2.0,0.0
4881,59.0,0.0,180.0,7.0,0.0
4882,79.0,36.0,60.0,2.0,0.0
4883,81.0,24.0,60.0,2.0,0.0
4884,79.0,60.0,60.0,2.0,0.0
4885,81.0,60.0,60.0,2.0,0.0
4886,59.0,0.0,180.0,7.0,0.0
4887,62.0,0.0,180.0,6.0,0.0
4888,67.0,36.0,180.0,5.0,0.0
4889,79.0,60.0,60.0,2.0,0.0
4890,81.0,24.0,60.0,2.0,0.0
4891,79.0,60.0,60.0,2.0,0.0
4892,81.0,60.0,60.0,2.0,0.0
4893,62.0,0.0,180.0,6.0,0.0
4894,59.0,36.0,180.0,7.0,0.0
4895,67.0,0.0,180.0,5.0,0.0
4896,79.0,60.0,60.0,2.0,0.0
4897,81.0,24.0,60.0,2.0,0.0
4898,79.0,60.0,60.0,2.0,0.0
4899,81.0,60.0,60.0,2.0,0.0
4900,34.0,0.0,390.0,10.0,0.0
4901,46.0,0.0,390.0,8.0,0.0
4902,34.0,0.0,390.0,4.0,0.0
4903,46.0,24.0,390.0,3.0,0.0
4904,80.0,60.0,60.0,2.0,0.0
4905,81.0,60.0,60.0,2.0,0.0
4906,80.0,60.0,60.0,2.0,0.0
4907,65.0,0.0,180.0,6.0,0.0
4908,81.0,60.0,60.0,2.0,0.0
4909,68.0,0.0,180.0,5.0,0.0
4910,62.0,36.0,180.0,7.0,0.0
4911,80.0,36.0,60.0,2.0,0.0
4912,81.0,24.0,60.0,2.0,0.0
4913,80.0,60.0,60.0,2.0,0.0
4914,68.0,0.0,180.0,5.0,0.0
4915,62.0,36.0,180.0,7.0,0.0
4916,65.0,0.0,180.0,6.0,0.0
4917,81.0,60.0,60.0,2.0,0.0
4918,80.0,60.0,60.0,2.0,0.0
4919,81.0,24.0,60.0,2.0,0.0
4920,80.0,60.0,60.0,2.0,0.0
4921,81.0,60.0,60.0,2.0,0.0
4922,65.0,36.0,180.0,6.0,0.0
4923,62.0,0.0,180.0,7.0,0.0
4924,68.0,0.0,180.0,5.0,0.0
4925,80.0,60.0,60.0,2.0,0.0
4926,81.0,24.0,60.0,2.0,0.0
4927,80.0,60.0,60.0,2.0,0.0
4928,45.0,24.0,390.0,3.0,0.0
4929,82.0,60.0,60.0,2.0,0.0
4930,33.0,0.0,390.0,10.0,0.0
4931,33.0,0.0,390.0,4.0,0.0
4932,45.0,0.0,390.0,8.0,0.0
4933,81.0,60.0,60.0,2.0,0.0
4934,82.0,60.0,60.0,2.0,0.0
4935,81.0,60.0,60.0,2.0,0.0
4936,69.0,0.0,180.0,5.0,0.0
4937,65.0,0.0,180.0,6.0,0.0
4938,62.0,36.0,180.0,7.0,0.0
4939,82.0,60.0,60.0,2.0,0.0
4940,81.0,36.0,60.0,2.0,0.0
4941,82.0,24.0,60.0,2.0,0.0
4942,81.0,60.0,60.0,2.0,0.0
4943,62.0,36.0,180.0,7.0,0.0
4944,82.0,60.0,60.0,2.0,0.0
4945,69.0,0.0,180.0,5.0,0.0
4946,65.0,0.0,180.0,6.0,0.0
4947,81.0,60.0,60.0,2.0,0.0
4948,82.0,24.0,60.0,2.0,0.0
4949,81.0,60.0,60.0,2.0,0.0
4950,65.0,0.0,180.0,6.0,0.0
4951,69.0,36.0,180.0,5.0,0.0
4952,62.0,0.0,180.0,7.0,0.0
4953,82.0,60.0,60.0,2.0,0.0
4954,81.0,60.0,60.0,2.0,0.0
4955,80.0,24.0,60.0,2.0,0.0
4956,81.0,2412.0,60.0,2.0,0.0
4957,43.0,0.0,2880.0,4.0,0.0
4958,82.0,96.0,2790.0,2.0,0.0
4959,70.0,0.0,2400.0,5.0,0.0
4960,64.0,0.0,2400.0,6.0,0.0
4961,55.0,0.0,2880.0,3.0,0.0
4962,52.0,60.0,2880.0,3.0,0.0
4963,55.0,0.0,2400.0,7.0,0.0
4964,43.0,384.0,2400.0,8.0,0.0
4965,48.0,0.0,2880.0,4.0,0.0
4966,60.0,0.0,2400.0,5.0,0.0
4967,31.0,0.0,2400.0,10.0,0.0
4968,81.0,60.0,60.0,3.0,0.0
4969,79.0,60.0,60.0,3.0,0.0
4970,77.0,60.0,60.0,3.0,0.0
4971,76.0,60.0,60.0,3.0,0.0
4972,74.0,60.0,60.0,3.0,0.0
4973,72.0,60.0,60.0,3.0,0.0
4974,70.0,60.0,60.0,3.0,0.0
4975,69.0,60.0,60.0,3.0,0.0
4976,67.0,60.0,60.0,3.0,0.0
4977,65.0,60.0,60.0,3.0,0.0
4978,64.0,60.0,60.0,3.0,0.0
4979,62.0,60.0,60.0,3.0,0.0
4980,60.0,60.0,60.0,3.0,0.0
4981,58.0,60.0,60.0,3.0,0.0
4982,57.0,60.0,60.0,3.0,0.0
4983,55.0,60.0,60.0,3.0,0.0
4984,53.0,60.0,60.0,3.0,0.0
4985,52.0,60.0,60.0,3.0,0.0
4986,50.0,60.0,60.0,3.0,0.0
4987,48.0,720.0,60.0,3.0,0.0
4988,43.0,0.0,720.0,3.0,0.0
4989,40.0,0.0,720.0,3.0,0.0
4990,36.0,0.0,720.0,3.0,0.0
4991,46.0,2064.0,720.0,3.0,0.0
4992,53.0,0.0,300.0,8.0,0.0
4993,57.0,168.0,150.0,6.0,0.0
4994,41.0,0.0,300.0,10.0,0.0
4995,65.0,72.0,300.0,5.0,0.0
4996,60.0,240.0,150.0,6.0,0.0
4997,65.0,144.0,480.0,5.0,0.0
4998,57.0,168.0,150.0,6.0,0.0
4999,41.0,0.0,300.0,10.0,0.0
5000,53.0,72.0,300.0,8.0,0.0
5001,60.0,96.0,150.0,6.0,0.0
5002,53.0,72.0,300.0,8.0,0.0
5003,57.0,168.0,150.0,6.0,0.0
5004,41.0,0.0,300.0,10.0,0.0
5005,69.0,144.0,480.0,5.0,0.0
5006,60.0,96.0,150.0,6.0,0.0
5007,57.0,168.0,150.0,6.0,0.0
5008,41.0,0.0,300.0,10.0,0.0
5009,72.0,216.0,390.0,5.0,0.0
5010,53.0,72.0,300.0,8.0,0.0
5011,60.0,0.0,150.0,6.0,0.0
5012,60.0,0.0,3810.0,1.0,0.0
5013,76.0,0.0,3810.0,0.0,0.0
5014,64.0,14.0,3810.0,7.0,0.0
5015,67.0,0.0,3810.0,1.0,0.0
5016,58.0,168.0,150.0,6.0,0.0
5017,53.0,0.0,300.0,8.0,0.0
5018,55.0,0.0,3810.0,7.0,0.0
5019,70.0,0.0,3810.0,0.0,0.0
5020,41.0,72.0,300.0,10.0,0.0
5021,72.0,24.0,120.0,5.0,0.0
5022,70.0,192.0,300.0,5.0,0.0
5023,60.0,24.0,150.0,6.0,0.0
5024,41.0,0.0,300.0,10.0,0.0
5025,58.0,168.0,150.0,6.0,0.0
5026,53.0,72.0,300.0,8.0,0.0
5027,69.0,24.0,120.0,5.0,0.0
5028,67.0,192.0,300.0,5.0,0.0
5029,60.0,24.0,150.0,6.0,0.0
5030,58.0,168.0,150.0,6.0,0.0
5031,41.0,72.0,300.0,10.0,0.0
5032,53.0,0.0,300.0,8.0,0.0
5033,65.0,24.0,120.0,5.0,0.0
5034,64.0,192.0,300.0,5.0,0.0
5035,60.0,24.0,150.0,6.0,0.0
5036,53.0,72.0,300.0,8.0,0.0
5037,62.0,24.0,120.0,5.0,0.0
5038,41.0,0.0,300.0,10.0,0.0
5039,58.0,168.0,150.0,6.0,0.0
5040,60.0,216.0,300.0,5.0,0.0
5041,60.0,24.0,150.0,6.0,0.0
5042,58.0,168.0,150.0,6.0,0.0
5043,41.0,72.0,300.0,10.0,0.0
5044,53.0,0.0,300.0,8.0,0.0
5045,67.0,0.0,300.0,5.0,0.0
5046,60.0,240.0,150.0,6.0,0.0
5047,67.0,144.0,480.0,5.0,0.0
5048,41.0,0.0,300.0,10.0,0.0
5049,58.0,168.0,150.0,6.0,0.0
5050,53.0,72.0,300.0,8.0,0.0
5051,60.0,96.0,150.0,6.0,0.0
5052,70.0,144.0,480.0,5.0,0.0
5053,41.0,72.0,300.0,10.0,0.0
5054,58.0,168.0,150.0,6.0,0.0
5055,53.0,0.0,300.0,8.0,0.0
5056,60.0,96.0,150.0,6.0,0.0
5057,53.0,0.0,300.0,8.0,0.0
5058,41.0,72.0,300.0,10.0,0.0
5059,74.0,168.0,450.0,5.0,0.0
5060,58.0,168.0,150.0,6.0,0.0
5061,60.0,58.0,150.0,6.0,0.0
5062,53.0,0.0,1140.0,1.0,0.0
5063,65.0,0.0,1140.0,1.0,0.0
5064,72.0,72.0,720.0,5.0,0.0
5065,65.0,0.0,1140.0,7.0,0.0
5066,53.0,72.0,300.0,8.0,0.0
5067,57.0,0.0,1140.0,7.0,0.0
5068,77.0,0.0,1140.0,0.0,0.0
5069,69.0,120.0,1140.0,0.0,0.0
5070,41.0,0.0,300.0,10.0,0.0
5071,57.0,168.0,150.0,6.0,0.0
5072,60.0,240.0,150.0,6.0,0.0
5073,53.0,0.0,300.0,8.0,0.0
5074,41.0,72.0,300.0,10.0,0.0
5075,57.0,96.0,150.0,6.0,0.0
5076,60.0,96.0,150.0,6.0,0.0
5077,69.0,144.0,240.0,5.0,0.0
5078,53.0,0.0,300.0,8.0,0.0
5079,57.0,48.0,150.0,6.0,0.0
5080,41.0,72.0,300.0,10.0,0.0
5081,72.0,240.0,390.0,5.0,0.0
5082,60.0,0.0,150.0,6.0,0.0
5083,53.0,72.0,300.0,8.0,0.0
5084,57.0,168.0,150.0,6.0,0.0
5085,41.0,0.0,300.0,10.0,0.0
5086,60.0,480.0,150.0,6.0,0.0
5087,65.0,0.0,390.0,5.0,0.0
5088,53.0,1056.0,390.0,6.0,0.0
5089,77.0,480.0,960.0,5.0,0.0
5090,65.0,0.0,960.0,6.0,0.0
5091,57.0,0.0,960.0,8.0,0.0
5092,45.0,480.0,960.0,10.0,0.0
5093,60.0,0.0,960.0,7.0,0.0
5094,64.0,480.0,960.0,6.0,0.0
5095,76.0,0.0,960.0,5.0,0.0
5096,58.0,0.0,960.0,8.0,0.0
5097,46.0,480.0,960.0,10.0,0.0
5098,58.0,480.0,960.0,7.0,0.0
5099,62.0,0.0,960.0,6.0,0.0
5100,74.0,0.0,960.0,5.0,0.0
5101,41.0,0.0,960.0,10.0,0.0
5102,53.0,480.0,960.0,8.0,0.0
5103,72.0,0.0,960.0,5.0,0.0
5104,60.0,0.0,960.0,6.0,0.0
5105,57.0,480.0,960.0,7.0,0.0
5106,52.0,0.0,960.0,8.0,0.0
5107,40.0,480.0,960.0,10.0,0.0
5108,70.0,0.0,960.0,5.0,0.0
5109,55.0,480.0,960.0,7.0,0.0
5110,58.0,0.0,960.0,6.0,0.0
5111,53.0,0.0,960.0,8.0,0.0
5112,41.0,240.0,960.0,10.0,0.0
5113,69.0,240.0,720.0,5.0,0.0
5114,57.0,0.0,720.0,6.0,0.0
5115,53.0,0.0,720.0,7.0,0.0
5116,48.0,0.0,780.0,8.0,0.0
5117,36.0,144.0,780.0,10.0,0.0
5118,55.0,0.0,240.0,6.0,0.0
5119,52.0,0.0,240.0,7.0,0.0
5120,67.0,240.0,240.0,5.0,0.0
5121,54.0,48.0,240.0,6.0,0.0
5122,50.0,0.0,240.0,7.0,0.0
5123,66.0,0.0,240.0,5.0,0.0
5124,67.0,240.0,240.0,5.0,0.0
5125,52.0,48.0,180.0,7.0,0.0
5126,55.0,0.0,240.0,6.0,0.0
5127,65.0,144.0,240.0,5.0,0.0
5128,52.0,96.0,390.0,7.0,0.0
5129,55.0,0.0,390.0,6.0,0.0
5130,64.0,240.0,240.0,5.0,0.0
5131,62.0,192.0,240.0,5.0,0.0
5132,60.0,288.0,180.0,5.0,0.0
5133,65.0,0.0,1920.0,5.0,0.0
5134,53.0,144.0,240.0,3.0,0.0
5135,65.0,96.0,390.0,2.0,0.0
5136,57.0,120.0,1920.0,7.0,0.0
5137,41.0,0.0,7650.0,10.0,0.0
5138,60.0,0.0,3840.0,7.0,0.0
5139,65.0,0.0,1920.0,6.0,0.0
5140,53.0,26.0,7650.0,8.0,0.0
5141,60.0,60.0,240.0,3.0,0.0
5142,67.0,60.0,60.0,2.0,0.0
5143,57.0,0.0,240.0,3.0,0.0
5144,65.0,60.0,60.0,2.0,0.0
5145,67.0,60.0,60.0,2.0,0.0
5146,65.0,60.0,60.0,2.0,0.0
5147,67.0,60.0,60.0,2.0,0.0
5148,60.0,240.0,240.0,3.0,0.0
5149,65.0,60.0,60.0,2.0,0.0
5150,67.0,60.0,60.0,2.0,0.0
5151,65.0,0.0,60.0,2.0,0.0
5152,69.0,0.0,480.0,2.0,0.0
5153,53.0,240.0,240.0,3.0,0.0
5154,60.0,240.0,240.0,3.0,0.0
5155,57.0,144.0,240.0,3.0,0.0
5156,72.0,84.0,390.0,2.0,0.0
5157,60.0,12.0,240.0,3.0,0.0
5158,67.0,240.0,1920.0,5.0,0.0
5159,67.0,0.0,3840.0,6.0,0.0
5160,55.0,0.0,1920.0,6.0,0.0
5161,53.0,168.0,240.0,3.0,0.0
5162,58.0,0.0,3840.0,7.0,0.0
5163,72.0,120.0,120.0,2.0,0.0
5164,70.0,72.0,300.0,2.0,0.0
5165,58.0,120.0,240.0,3.0,0.0
5166,69.0,120.0,120.0,2.0,0.0
5167,55.0,168.0,240.0,3.0,0.0
5168,67.0,72.0,300.0,2.0,0.0
5169,58.0,120.0,240.0,3.0,0.0
5170,53.0,168.0,240.0,3.0,0.0
5171,65.0,120.0,120.0,2.0,0.0
5172,64.0,72.0,300.0,2.0,0.0
5173,58.0,120.0,240.0,3.0,0.0
5174,62.0,120.0,120.0,2.0,0.0
5175,55.0,168.0,240.0,3.0,0.0
5176,60.0,60.0,300.0,2.0,0.0
5177,58.0,12.0,240.0,3.0,0.0
5178,64.0,240.0,1920.0,6.0,0.0
5179,60.0,0.0,3840.0,5.0,0.0
5180,55.0,0.0,1920.0,7.0,0.0
5181,53.0,144.0,240.0,3.0,0.0
5182,70.0,0.0,1920.0,5.0,0.0
5183,67.0,96.0,390.0,2.0,0.0
5184,64.0,60.0,240.0,3.0,0.0
5185,58.0,0.0,240.0,3.0,0.0
5186,69.0,60.0,60.0,2.0,0.0
5187,67.0,60.0,60.0,2.0,0.0
5188,69.0,60.0,60.0,2.0,0.0
5189,67.0,60.0,60.0,2.0,0.0
5190,69.0,60.0,60.0,2.0,0.0
5191,64.0,0.0,240.0,3.0,0.0
5192,67.0,60.0,60.0,2.0,0.0
5193,69.0,60.0,60.0,2.0,0.0
5194,67.0,240.0,60.0,2.0,0.0
5195,70.0,240.0,480.0,2.0,0.0
5196,53.0,240.0,240.0,3.0,0.0
5197,64.0,0.0,240.0,3.0,0.0
5198,58.0,144.0,240.0,3.0,0.0
5199,74.0,84.0,390.0,2.0,0.0
5200,64.0,12.0,240.0,3.0,0.0
5201,53.0,240.0,240.0,3.0,0.0
5202,65.0,192.0,1920.0,6.0,0.0
5203,57.0,0.0,1920.0,7.0,0.0
5204,72.0,0.0,720.0,2.0,0.0
5205,69.0,0.0,1920.0,5.0,0.0
5206,65.0,240.0,240.0,3.0,0.0
5207,57.0,240.0,240.0,3.0,0.0
5208,65.0,0.0,240.0,3.0,0.0
5209,69.0,240.0,240.0,2.0,0.0
5210,53.0,144.0,240.0,3.0,0.0
5211,72.0,96.0,390.0,2.0,0.0
5212,65.0,240.0,240.0,3.0,0.0
5213,57.0,202.0,240.0,3.0,0.0
5214,65.0,12.0,240.0,3.0,0.0
5215,65.0,144.0,180.0,2.0,0.0
5216,67.0,120.0,90.0,2.0,0.0
5217,69.0,120.0,90.0,2.0,0.0
5218,70.0,120.0,90.0,2.0,0.0
5219,72.0,120.0,90.0,2.0,0.0
5220,74.0,120.0,90.0,2.0,0.0
5221,76.0,144.0,90.0,2.0,0.0
5222,77.0,120.0,120.0,2.0,0.0
5223,79.0,120.0,120.0,2.0,0.0
5224,81.0,120.0,120.0,2.0,0.0
5225,79.0,156.0,120.0,2.0,0.0
5226,77.0,240.0,150.0,2.0,0.0
5227,76.0,276.0,150.0,2.0,0.0
5228,65.0,48.0,390.0,3.0,0.0
5229,46.0,48.0,180.0,4.0,0.0
5230,76.0,96.0,240.0,2.0,0.0
5231,74.0,24.0,180.0,2.0,0.0
5232,48.0,48.0,90.0,4.0,0.0
5233,50.0,120.0,90.0,4.0,0.0
5234,74.0,36.0,1110.0,2.0,0.0
5235,65.0,72.0,780.0,3.0,0.0
5236,52.0,120.0,90.0,4.0,0.0
5237,53.0,120.0,90.0,4.0,0.0
5238,55.0,120.0,90.0,4.0,0.0
5239,57.0,144.0,90.0,4.0,0.0
5240,58.0,120.0,120.0,4.0,0.0
5241,57.0,48.0,120.0,4.0,0.0
5242,58.0,120.0,120.0,4.0,0.0
5243,57.0,156.0,120.0,4.0,0.0
5244,58.0,204.0,180.0,4.0,0.0
5245,57.0,240.0,180.0,4.0,0.0
5246,72.0,36.0,150.0,2.0,0.0
5247,50.0,48.0,180.0,4.0,0.0
5248,65.0,48.0,390.0,3.0,0.0
5249,72.0,96.0,240.0,2.0,0.0
5250,70.0,24.0,180.0,2.0,0.0
5251,52.0,48.0,90.0,4.0,0.0
5252,53.0,120.0,90.0,4.0,0.0
5253,65.0,72.0,780.0,3.0,0.0
5254,55.0,120.0,90.0,4.0,0.0
5255,70.0,36.0,1110.0,2.0,0.0
5256,57.0,120.0,90.0,4.0,0.0
5257,58.0,120.0,90.0,4.0,0.0
5258,60.0,144.0,90.0,4.0,0.0
5259,62.0,120.0,120.0,4.0,0.0
5260,60.0,48.0,120.0,4.0,0.0
5261,62.0,120.0,120.0,4.0,0.0
5262,60.0,156.0,120.0,4.0,0.0
5263,62.0,204.0,180.0,4.0,0.0
5264,60.0,108.0,180.0,4.0,0.0
5265,69.0,36.0,150.0,2.0,0.0
5266,58.0,84.0,300.0,4.0,0.0
5267,70.0,60.0,60.0,2.0,0.0
5268,69.0,60.0,60.0,2.0,0.0
5269,70.0,60.0,60.0,2.0,0.0
5270,69.0,72.0,60.0,2.0,0.0
5271,67.0,240.0,150.0,2.0,0.0
5272,70.0,156.0,150.0,2.0,0.0
5273,55.0,84.0,300.0,4.0,0.0
5274,67.0,144.0,150.0,2.0,0.0
5275,60.0,84.0,300.0,4.0,0.0
5276,69.0,60.0,60.0,2.0,0.0
5277,67.0,60.0,60.0,2.0,0.0
5278,69.0,60.0,60.0,2.0,0.0
5279,67.0,72.0,60.0,2.0,0.0
5280,65.0,144.0,150.0,2.0,0.0
5281,48.0,84.0,300.0,4.0,0.0
5282,67.0,60.0,60.0,2.0,0.0
5283,65.0,60.0,60.0,2.0,0.0
5284,67.0,60.0,60.0,2.0,0.0
5285,65.0,72.0,60.0,2.0,0.0
5286,64.0,180.0,150.0,2.0,0.0
5287,65.0,120.0,90.0,2.0,0.0
5288,60.0,120.0,90.0,2.0,0.0
5289,62.0,120.0,90.0,2.0,0.0
5290,64.0,120.0,90.0,2.0,0.0
5291,65.0,120.0,90.0,2.0,0.0
5292,67.0,120.0,90.0,2.0,0.0
5293,69.0,120.0,90.0,2.0,0.0
5294,70.0,120.0,90.0,2.0,0.0
5295,72.0,120.0,90.0,2.0,0.0
5296,74.0,120.0,90.0,2.0,0.0
5297,76.0,120.0,90.0,2.0,0.0
5298,77.0,120.0,90.0,2.0,0.0
5299,76.0,48.0,90.0,2.0,0.0
5300,48.0,72.0,150.0,3.0,0.0
5301,55.0,0.0,150.0,3.0,0.0
5302,74.0,120.0,90.0,2.0,0.0
5303,72.0,48.0,90.0,2.0,0.0
5304,48.0,72.0,150.0,3.0,0.0
5305,52.0,0.0,150.0,3.0,0.0
5306,70.0,168.0,90.0,2.0,0.0
5307,53.0,240.0,150.0,3.0,0.0
5308,50.0,0.0,150.0,3.0,0.0
5309,69.0,0.0,150.0,2.0,0.0
5310,69.0,0.0,150.0,2.0,0.0
5311,53.0,0.0,150.0,3.0,0.0
5312,50.0,240.0,150.0,3.0,0.0
5313,58.0,0.0,150.0,3.0,0.0
5314,46.0,240.0,150.0,3.0,0.0
5315,74.0,0.0,150.0,2.0,0.0
5316,74.0,0.0,150.0,2.0,0.0
5317,58.0,240.0,150.0,3.0,0.0
5318,46.0,0.0,150.0,3.0,0.0
5319,57.0,0.0,150.0,3.0,0.0
5320,48.0,0.0,150.0,3.0,0.0
5321,72.0,240.0,150.0,2.0,0.0
5322,48.0,0.0,150.0,3.0,0.0
5323,57.0,0.0,150.0,3.0,0.0
5324,72.0,240.0,150.0,2.0,0.0
5325,64.0,0.0,150.0,2.0,0.0
5326,48.0,240.0,150.0,3.0,0.0
5327,55.0,0.0,150.0,3.0,0.0
5328,64.0,192.0,150.0,2.0,0.0
5329,48.0,0.0,150.0,3.0,0.0
5330,55.0,0.0,150.0,3.0,0.0
5331,65.0,120.0,90.0,5.0,0.0
5332,53.0,72.0,390.0,3.0,0.0
5333,65.0,0.0,390.0,2.0,0.0
5334,60.0,120.0,90.0,5.0,0.0
5335,62.0,48.0,90.0,5.0,0.0
5336,64.0,120.0,90.0,5.0,0.0
5337,65.0,120.0,90.0,5.0,0.0
5338,67.0,120.0,90.0,5.0,0.0
5339,69.0,120.0,90.0,5.0,0.0
5340,70.0,120.0,90.0,5.0,0.0
5341,72.0,120.0,90.0,5.0,0.0
5342,74.0,120.0,90.0,5.0,0.0
5343,76.0,120.0,90.0,5.0,0.0
5344,77.0,120.0,90.0,5.0,0.0
5345,58.0,0.0,150.0,7.0,0.0
5346,48.0,72.0,150.0,8.0,0.0
5347,76.0,48.0,90.0,5.0,0.0
5348,60.0,0.0,150.0,1.0,0.0
5349,76.0,0.0,150.0,0.0,0.0
5350,70.0,0.0,150.0,0.0,0.0
5351,67.0,0.0,150.0,1.0,0.0
5352,67.0,0.0,150.0,6.0,0.0
5353,36.0,0.0,150.0,10.0,0.0
5354,74.0,120.0,90.0,5.0,0.0
5355,36.0,0.0,150.0,10.0,0.0
5356,64.0,0.0,150.0,6.0,0.0
5357,76.0,0.0,150.0,0.0,0.0
5358,60.0,0.0,150.0,1.0,0.0
5359,67.0,0.0,150.0,1.0,0.0
5360,48.0,72.0,150.0,8.0,0.0
5361,55.0,0.0,150.0,7.0,0.0
5362,70.0,0.0,150.0,0.0,0.0
5363,72.0,48.0,90.0,5.0,0.0
5364,70.0,168.0,90.0,5.0,0.0
5365,65.0,0.0,150.0,6.0,0.0
5366,77.0,0.0,150.0,0.0,0.0
5367,38.0,0.0,150.0,10.0,0.0
5368,69.0,0.0,150.0,0.0,0.0
5369,65.0,240.0,150.0,1.0,0.0
5370,53.0,0.0,150.0,1.0,0.0
5371,50.0,0.0,150.0,8.0,0.0
5372,53.0,0.0,150.0,7.0,0.0
5373,69.0,0.0,150.0,5.0,0.0
5374,50.0,0.0,150.0,8.0,0.0
5375,69.0,0.0,150.0,5.0,0.0
5376,38.0,0.0,150.0,10.0,0.0
5377,53.0,240.0,150.0,1.0,0.0
5378,65.0,0.0,150.0,1.0,0.0
5379,69.0,0.0,150.0,0.0,0.0
5380,77.0,0.0,150.0,0.0,0.0
5381,65.0,0.0,150.0,6.0,0.0
5382,53.0,0.0,150.0,7.0,0.0
5383,74.0,0.0,150.0,5.0,0.0
5384,58.0,0.0,150.0,7.0,0.0
5385,74.0,0.0,150.0,0.0,0.0
5386,70.0,0.0,150.0,0.0,0.0
5387,46.0,240.0,150.0,8.0,0.0
5388,53.0,0.0,150.0,1.0,0.0
5389,34.0,0.0,150.0,10.0,0.0
5390,65.0,0.0,150.0,1.0,0.0
5391,65.0,0.0,150.0,6.0,0.0
5392,53.0,0.0,150.0,1.0,0.0
5393,65.0,0.0,150.0,6.0,0.0
5394,58.0,240.0,150.0,7.0,0.0
5395,74.0,0.0,150.0,0.0,0.0
5396,34.0,0.0,150.0,10.0,0.0
5397,65.0,0.0,150.0,1.0,0.0
5398,74.0,0.0,150.0,5.0,0.0
5399,46.0,0.0,150.0,8.0,0.0
5400,70.0,0.0,150.0,0.0,0.0
5401,53.0,240.0,150.0,1.0,0.0
5402,48.0,0.0,150.0,8.0,0.0
5403,57.0,0.0,150.0,7.0,0.0
5404,72.0,0.0,150.0,5.0,0.0
5405,65.0,0.0,150.0,1.0,0.0
5406,72.0,0.0,150.0,0.0,0.0
5407,36.0,0.0,150.0,10.0,0.0
5408,69.0,0.0,150.0,0.0,0.0
5409,65.0,0.0,150.0,6.0,0.0
5410,53.0,0.0,150.0,1.0,0.0
5411,69.0,0.0,150.0,0.0,0.0
5412,72.0,0.0,150.0,0.0,0.0
5413,72.0,0.0,150.0,5.0,0.0
5414,65.0,0.0,150.0,1.0,0.0
5415,65.0,0.0,150.0,6.0,0.0
5416,36.0,0.0,150.0,10.0,0.0
5417,57.0,240.0,150.0,7.0,0.0
5418,48.0,0.0,150.0,8.0,0.0
5419,67.0,0.0,150.0,1.0,0.0
5420,60.0,0.0,150.0,1.0,0.0
5421,55.0,0.0,150.0,7.0,0.0
5422,70.0,0.0,150.0,0.0,0.0
5423,64.0,0.0,150.0,5.0,0.0
5424,58.0,0.0,150.0,6.0,0.0
5425,48.0,0.0,150.0,8.0,0.0
5426,36.0,0.0,150.0,10.0,0.0
5427,76.0,240.0,150.0,0.0,0.0
5428,60.0,0.0,150.0,1.0,0.0
5429,67.0,0.0,150.0,1.0,0.0
5430,36.0,0.0,150.0,10.0,0.0
5431,70.0,0.0,150.0,0.0,0.0
5432,64.0,0.0,150.0,5.0,0.0
5433,76.0,0.0,150.0,0.0,0.0
5434,55.0,480.0,150.0,7.0,0.0
5435,48.0,0.0,150.0,8.0,0.0
5436,58.0,0.0,150.0,6.0,0.0
5437,77.0,0.0,390.0,0.0,0.0
5438,65.0,216.0,390.0,1.0,0.0
5439,60.0,0.0,390.0,1.0,0.0
5440,41.0,0.0,390.0,8.0,0.0
5441,69.0,0.0,390.0,0.0,0.0
5442,57.0,0.0,390.0,6.0,0.0
5443,29.0,0.0,390.0,10.0,0.0
5444,53.0,0.0,390.0,7.0,0.0
5445,65.0,0.0,390.0,5.0,0.0
5446,72.0,78.0,120.0,5.0,0.0
5447,72.0,0.0,120.0,6.0,0.0
5448,69.0,120.0,90.0,6.0,0.0
5449,69.0,0.0,90.0,5.0,0.0
5450,72.0,120.0,90.0,6.0,0.0
5451,72.0,0.0,90.0,5.0,0.0
5452,69.0,0.0,90.0,5.0,0.0
5453,69.0,426.0,90.0,6.0,0.0
5454,77.0,216.0,390.0,5.0,0.0
5455,77.0,0.0,390.0,6.0,0.0
5456,72.0,0.0,120.0,6.0,0.0
5457,48.0,0.0,120.0,10.0,0.0
5458,72.0,78.0,120.0,0.0,0.0
5459,60.0,0.0,120.0,7.0,0.0
5460,60.0,84.0,240.0,1.0,0.0
5461,60.0,0.0,120.0,8.0,0.0
5462,72.0,0.0,120.0,5.0,0.0
5463,45.0,0.0,90.0,10.0,0.0
5464,57.0,0.0,90.0,7.0,0.0
5465,57.0,36.0,90.0,8.0,0.0
5466,69.0,0.0,90.0,5.0,0.0
5467,69.0,0.0,90.0,0.0,0.0
5468,69.0,0.0,90.0,6.0,0.0
5469,72.0,120.0,90.0,0.0,0.0
5470,72.0,0.0,90.0,5.0,0.0
5471,72.0,0.0,90.0,6.0,0.0
5472,48.0,0.0,90.0,10.0,0.0
5473,60.0,0.0,90.0,8.0,0.0
5474,60.0,0.0,90.0,7.0,0.0
5475,57.0,0.0,90.0,1.0,0.0
5476,57.0,0.0,90.0,8.0,0.0
5477,69.0,354.0,90.0,6.0,0.0
5478,69.0,0.0,90.0,5.0,0.0
5479,69.0,0.0,90.0,0.0,0.0
5480,45.0,0.0,90.0,10.0,0.0
5481,57.0,0.0,90.0,7.0,0.0
5482,65.0,0.0,300.0,5.0,0.0
5483,53.0,0.0,390.0,8.0,0.0
5484,65.0,0.0,300.0,6.0,0.0
5485,65.0,0.0,300.0,0.0,0.0
5486,53.0,72.0,300.0,1.0,0.0
5487,53.0,0.0,390.0,7.0,0.0
5488,41.0,330.0,390.0,10.0,0.0
5489,53.0,0.0,240.0,6.0,0.0
5490,29.0,0.0,240.0,10.0,0.0
5491,53.0,0.0,240.0,5.0,0.0
5492,41.0,0.0,240.0,8.0,0.0
5493,65.0,204.0,240.0,0.0,0.0
5494,53.0,0.0,240.0,7.0,0.0
5495,53.0,0.0,240.0,1.0,0.0
5496,53.0,0.0,90.0,5.0,0.0
5497,29.0,426.0,90.0,10.0,0.0
5498,53.0,0.0,90.0,6.0,0.0
5499,53.0,0.0,90.0,1.0,0.0
5500,65.0,0.0,90.0,0.0,0.0
5501,41.0,0.0,90.0,8.0,0.0
5502,53.0,0.0,90.0,7.0,0.0
5503,53.0,0.0,390.0,6.0,0.0
5504,53.0,0.0,390.0,1.0,0.0
5505,65.0,0.0,390.0,0.0,0.0
5506,41.0,0.0,390.0,8.0,0.0
5507,29.0,0.0,390.0,10.0,0.0
5508,53.0,216.0,390.0,7.0,0.0
5509,53.0,0.0,390.0,5.0,0.0
5510,72.0,120.0,120.0,2.0,0.0
5511,69.0,120.0,120.0,2.0,0.0
5512,72.0,120.0,120.0,2.0,0.0
5513,69.0,384.0,120.0,2.0,0.0
5514,77.0,216.0,390.0,2.0,0.0
5515,72.0,120.0,120.0,2.0,0.0
5516,69.0,120.0,120.0,2.0,0.0
5517,72.0,120.0,120.0,2.0,0.0
5518,69.0,384.0,120.0,2.0,0.0
5519,65.0,408.0,390.0,2.0,0.0
5520,65.0,0.0,300.0,2.0,0.0
5521,60.0,0.0,300.0,3.0,0.0
5522,57.0,0.0,300.0,3.0,0.0
5523,53.0,1128.0,300.0,3.0,0.0
5524,77.0,0.0,300.0,2.0,0.0
5525,52.0,192.0,1140.0,3.0,0.0
5526,78.0,192.0,960.0,2.0,0.0
5527,66.0,0.0,960.0,2.0,0.0
5528,58.0,0.0,1140.0,3.0,0.0
5529,60.0,0.0,1140.0,3.0,0.0
5530,79.0,0.0,390.0,2.0,0.0
5531,67.0,216.0,390.0,2.0,0.0
5532,67.0,120.0,120.0,2.0,0.0
5533,64.0,120.0,120.0,2.0,0.0
5534,67.0,120.0,120.0,2.0,0.0
5535,64.0,384.0,120.0,2.0,0.0
5536,70.0,216.0,390.0,2.0,0.0
5537,67.0,120.0,120.0,2.0,0.0
5538,64.0,120.0,120.0,2.0,0.0
5539,67.0,120.0,120.0,2.0,0.0
5540,64.0,384.0,120.0,2.0,0.0
5541,60.0,408.0,390.0,2.0,0.0
5542,48.0,0.0,300.0,3.0,0.0
5543,52.0,0.0,300.0,3.0,0.0
5544,58.0,0.0,300.0,3.0,0.0
5545,60.0,0.0,300.0,3.0,0.0
5546,79.0,1128.0,300.0,2.0,0.0
5547,67.0,0.0,300.0,2.0,0.0
5548,80.0,192.0,960.0,2.0,0.0
5549,51.0,120.0,1140.0,3.0,0.0
5550,53.0,0.0,1140.0,3.0,0.0
5551,60.0,0.0,1140.0,3.0,0.0
5552,68.0,0.0,960.0,2.0,0.0
5553,57.0,0.0,1140.0,3.0,0.0
5554,69.0,480.0,300.0,2.0,0.0
5555,81.0,0.0,300.0,2.0,0.0
5556,51.0,1056.0,390.0,3.0,0.0
5557,53.0,0.0,390.0,3.0,0.0
5558,57.0,0.0,390.0,3.0,0.0
5559,60.0,0.0,390.0,3.0,0.0
5560,69.0,72.0,300.0,2.0,0.0
5561,81.0,0.0,300.0,2.0,0.0
5562,50.0,120.0,1140.0,3.0,0.0
5563,81.0,0.0,960.0,2.0,0.0
5564,53.0,0.0,1140.0,3.0,0.0
5565,58.0,0.0,1140.0,3.0,0.0
5566,62.0,0.0,1140.0,3.0,0.0
5567,69.0,192.0,960.0,2.0,0.0
5568,82.0,480.0,300.0,2.0,0.0
5569,70.0,0.0,300.0,2.0,0.0
5570,53.0,0.0,390.0,3.0,0.0
5571,50.0,1056.0,390.0,3.0,0.0
5572,70.0,72.0,300.0,2.0,0.0
5573,58.0,0.0,390.0,3.0,0.0
5574,82.0,0.0,300.0,2.0,0.0
5575,45.0,0.0,1140.0,3.0,0.0
5576,53.0,0.0,1140.0,3.0,0.0
5577,48.0,0.0,1140.0,3.0,0.0
5578,83.0,192.0,960.0,2.0,0.0
5579,71.0,0.0,960.0,2.0,0.0
5580,52.0,120.0,1140.0,3.0,0.0
5581,84.0,480.0,300.0,2.0,0.0
5582,72.0,0.0,300.0,2.0,0.0
5583,65.0,216.0,390.0,3.0,0.0
5584,75.0,72.0,300.0,2.0,0.0
5585,57.0,0.0,390.0,3.0,0.0
5586,58.0,12.0,240.0,3.0,0.0
5587,65.0,84.0,390.0,3.0,0.0
5588,46.0,0.0,240.0,10.0,0.0
5589,65.0,0.0,240.0,6.0,0.0
5590,74.0,0.0,240.0,5.0,0.0
5591,62.0,120.0,240.0,7.0,0.0
5592,74.0,108.0,120.0,2.0,0.0
5593,58.0,0.0,240.0,8.0,0.0
5594,75.0,0.0,120.0,2.0,0.0
5595,57.0,12.0,240.0,3.0,0.0
5596,74.0,24.0,120.0,2.0,0.0
5597,73.0,228.0,120.0,2.0,0.0
5598,74.0,360.0,240.0,2.0,0.0
5599,58.0,12.0,240.0,3.0,0.0
5600,65.0,84.0,390.0,3.0,0.0
5601,65.0,0.0,240.0,6.0,0.0
5602,74.0,108.0,120.0,2.0,0.0
5603,58.0,0.0,240.0,8.0,0.0
5604,46.0,0.0,240.0,10.0,0.0
5605,62.0,0.0,240.0,7.0,0.0
5606,58.0,12.0,240.0,3.0,0.0
5607,74.0,0.0,240.0,5.0,0.0
5608,75.0,120.0,120.0,2.0,0.0
5609,57.0,12.0,240.0,3.0,0.0
5610,74.0,24.0,120.0,2.0,0.0
5611,73.0,228.0,120.0,2.0,0.0
5612,74.0,336.0,240.0,2.0,0.0
5613,58.0,12.0,240.0,3.0,0.0
5614,58.0,0.0,1920.0,7.0,0.0
5615,55.0,120.0,1920.0,8.0,0.0
5616,74.0,60.0,90.0,2.0,0.0
5617,64.0,0.0,2160.0,6.0,0.0
5618,55.0,60.0,150.0,3.0,0.0
5619,43.0,0.0,1920.0,10.0,0.0
5620,74.0,0.0,1920.0,5.0,0.0
5621,70.0,120.0,90.0,2.0,0.0
5622,72.0,60.0,90.0,2.0,0.0
5623,58.0,60.0,150.0,3.0,0.0
5624,74.0,120.0,90.0,2.0,0.0
5625,76.0,60.0,90.0,2.0,0.0
5626,64.0,60.0,150.0,3.0,0.0
5627,77.0,120.0,90.0,2.0,0.0
5628,79.0,60.0,90.0,2.0,0.0
5629,58.0,60.0,150.0,3.0,0.0
5630,81.0,120.0,90.0,2.0,0.0
5631,55.0,60.0,150.0,3.0,0.0
5632,82.0,60.0,90.0,2.0,0.0
5633,84.0,120.0,90.0,2.0,0.0
5634,58.0,60.0,150.0,3.0,0.0
5635,82.0,60.0,90.0,2.0,0.0
5636,81.0,120.0,90.0,2.0,0.0
5637,64.0,60.0,150.0,3.0,0.0
5638,79.0,60.0,90.0,2.0,0.0
5639,77.0,120.0,90.0,2.0,0.0
5640,76.0,60.0,90.0,2.0,0.0
5641,58.0,60.0,150.0,3.0,0.0
5642,74.0,24.0,90.0,2.0,0.0
5643,45.0,0.0,240.0,10.0,0.0
5644,60.0,0.0,240.0,7.0,0.0
5645,64.0,84.0,390.0,3.0,0.0
5646,72.0,0.0,240.0,5.0,0.0
5647,57.0,12.0,240.0,3.0,0.0
5648,72.0,108.0,120.0,2.0,0.0
5649,57.0,120.0,240.0,8.0,0.0
5650,74.0,0.0,120.0,2.0,0.0
5651,56.0,12.0,240.0,3.0,0.0
5652,72.0,24.0,120.0,2.0,0.0
5653,71.0,192.0,120.0,2.0,0.0
5654,72.0,36.0,180.0,2.0,0.0
5655,57.0,372.0,240.0,3.0,0.0
5656,57.0,0.0,240.0,8.0,0.0
5657,60.0,0.0,240.0,7.0,0.0
5658,45.0,0.0,240.0,10.0,0.0
5659,57.0,12.0,240.0,3.0,0.0
5660,64.0,84.0,390.0,3.0,0.0
5661,72.0,108.0,120.0,2.0,0.0
5662,72.0,0.0,240.0,5.0,0.0
5663,64.0,0.0,240.0,6.0,0.0
5664,74.0,120.0,120.0,2.0,0.0
5665,72.0,24.0,120.0,2.0,0.0
5666,56.0,12.0,240.0,3.0,0.0
5667,71.0,192.0,120.0,2.0,0.0
5668,72.0,36.0,180.0,2.0,0.0
5669,57.0,348.0,240.0,3.0,0.0
5670,72.0,96.0,90.0,2.0,0.0
5671,53.0,24.0,180.0,3.0,0.0
5672,72.0,120.0,1920.0,5.0,0.0
5673,57.0,0.0,1920.0,7.0,0.0
5674,62.0,0.0,2160.0,6.0,0.0
5675,41.0,0.0,1920.0,10.0,0.0
5676,53.0,0.0,1920.0,8.0,0.0
5677,69.0,120.0,90.0,2.0,0.0
5678,57.0,24.0,180.0,3.0,0.0
5679,70.0,96.0,90.0,2.0,0.0
5680,72.0,120.0,90.0,2.0,0.0
5681,62.0,24.0,180.0,3.0,0.0
5682,74.0,96.0,90.0,2.0,0.0
5683,76.0,120.0,90.0,2.0,0.0
5684,57.0,24.0,180.0,3.0,0.0
5685,77.0,96.0,90.0,2.0,0.0
5686,79.0,120.0,90.0,2.0,0.0
5687,81.0,96.0,90.0,2.0,0.0
5688,53.0,24.0,180.0,3.0,0.0
5689,82.0,120.0,90.0,2.0,0.0
5690,81.0,96.0,90.0,2.0,0.0
5691,57.0,24.0,180.0,3.0,0.0
5692,79.0,120.0,90.0,2.0,0.0
5693,77.0,96.0,90.0,2.0,0.0
5694,62.0,24.0,180.0,3.0,0.0
5695,76.0,120.0,90.0,2.0,0.0
5696,57.0,24.0,180.0,3.0,0.0
5697,74.0,96.0,90.0,2.0,0.0
5698,72.0,24.0,90.0,2.0,0.0
5699,70.0,0.0,240.0,5.0,0.0
5700,62.0,84.0,390.0,3.0,0.0
5701,55.0,0.0,240.0,8.0,0.0
5702,55.0,12.0,240.0,3.0,0.0
5703,58.0,0.0,240.0,7.0,0.0
5704,70.0,108.0,120.0,2.0,0.0
5705,43.0,120.0,240.0,10.0,0.0
5706,72.0,0.0,120.0,2.0,0.0
5707,54.0,12.0,240.0,3.0,0.0
5708,70.0,24.0,120.0,2.0,0.0
5709,69.0,192.0,120.0,2.0,0.0
5710,70.0,36.0,180.0,2.0,0.0
5711,55.0,372.0,240.0,3.0,0.0
5712,55.0,12.0,240.0,3.0,0.0
5713,70.0,108.0,120.0,2.0,0.0
5714,62.0,84.0,390.0,3.0,0.0
5715,70.0,0.0,240.0,5.0,0.0
5716,62.0,0.0,240.0,6.0,0.0
5717,43.0,120.0,240.0,10.0,0.0
5718,55.0,0.0,240.0,8.0,0.0
5719,58.0,0.0,240.0,7.0,0.0
5720,72.0,0.0,120.0,2.0,0.0
5721,70.0,24.0,120.0,2.0,0.0
5722,54.0,12.0,240.0,3.0,0.0
5723,69.0,192.0,120.0,2.0,0.0
5724,70.0,36.0,180.0,2.0,0.0
5725,55.0,348.0,240.0,3.0,0.0
5726,52.0,96.0,240.0,3.0,0.0
5727,60.0,0.0,2160.0,6.0,0.0
5728,70.0,0.0,1920.0,5.0,0.0
5729,70.0,120.0,90.0,2.0,0.0
5730,55.0,96.0,1920.0,7.0,0.0
5731,52.0,0.0,1920.0,8.0,0.0
5732,40.0,0.0,1920.0,10.0,0.0
5733,67.0,24.0,90.0,2.0,0.0
5734,69.0,120.0,90.0,2.0,0.0
5735,55.0,96.0,240.0,3.0,0.0
5736,70.0,24.0,90.0,2.0,0.0
5737,60.0,96.0,240.0,3.0,0.0
5738,72.0,120.0,90.0,2.0,0.0
5739,74.0,24.0,90.0,2.0,0.0
5740,76.0,96.0,90.0,2.0,0.0
5741,55.0,24.0,180.0,3.0,0.0
5742,77.0,120.0,90.0,2.0,0.0
5743,79.0,120.0,90.0,2.0,0.0
5744,52.0,96.0,240.0,3.0,0.0
5745,81.0,24.0,90.0,2.0,0.0
5746,55.0,96.0,240.0,3.0,0.0
5747,79.0,120.0,90.0,2.0,0.0
5748,77.0,24.0,90.0,2.0,0.0
5749,60.0,96.0,240.0,3.0,0.0
5750,76.0,120.0,90.0,2.0,0.0
5751,74.0,24.0,90.0,2.0,0.0
5752,72.0,96.0,90.0,2.0,0.0
5753,55.0,24.0,180.0,3.0,0.0
5754,70.0,24.0,90.0,2.0,0.0
5755,57.0,0.0,240.0,7.0,0.0
5756,53.0,0.0,240.0,8.0,0.0
5757,69.0,96.0,240.0,5.0,0.0
5758,41.0,0.0,240.0,10.0,0.0
5759,69.0,120.0,90.0,2.0,0.0
5760,53.0,0.0,240.0,3.0,0.0
5761,65.0,24.0,90.0,2.0,0.0
5762,57.0,96.0,240.0,3.0,0.0
5763,67.0,120.0,90.0,2.0,0.0
5764,69.0,24.0,90.0,2.0,0.0
5765,60.0,96.0,240.0,3.0,0.0
5766,70.0,120.0,90.0,2.0,0.0
5767,72.0,24.0,90.0,2.0,0.0
5768,74.0,96.0,90.0,2.0,0.0
5769,57.0,24.0,180.0,3.0,0.0
5770,76.0,120.0,90.0,2.0,0.0
5771,65.0,0.0,240.0,6.0,0.0
5772,50.0,0.0,240.0,3.0,0.0
5773,38.0,0.0,240.0,10.0,0.0
5774,50.0,96.0,240.0,8.0,0.0
5775,62.0,0.0,240.0,7.0,0.0
5776,69.0,0.0,240.0,5.0,0.0
5777,77.0,120.0,90.0,2.0,0.0
5778,79.0,24.0,90.0,2.0,0.0
5779,77.0,120.0,90.0,2.0,0.0
5780,53.0,96.0,240.0,3.0,0.0
5781,76.0,24.0,90.0,2.0,0.0
5782,57.0,96.0,240.0,3.0,0.0
5783,74.0,120.0,90.0,2.0,0.0
5784,72.0,24.0,90.0,2.0,0.0
5785,53.0,24.0,180.0,3.0,0.0
5786,70.0,96.0,90.0,2.0,0.0
5787,69.0,120.0,90.0,2.0,0.0
5788,62.0,312.0,1920.0,7.0,0.0
5789,65.0,0.0,1920.0,6.0,0.0
5790,46.0,96.0,1440.0,8.0,0.0
5791,67.0,0.0,2220.0,5.0,0.0
5792,67.0,120.0,90.0,2.0,0.0
5793,34.0,0.0,1440.0,10.0,0.0
5794,46.0,96.0,240.0,3.0,0.0
5795,69.0,24.0,90.0,2.0,0.0
5796,50.0,96.0,240.0,3.0,0.0
5797,67.0,120.0,90.0,2.0,0.0
5798,66.0,24.0,90.0,2.0,0.0
5799,53.0,96.0,240.0,3.0,0.0
5800,67.0,120.0,90.0,2.0,0.0
5801,69.0,24.0,90.0,2.0,0.0
5802,70.0,96.0,90.0,2.0,0.0
5803,50.0,24.0,180.0,3.0,0.0
5804,72.0,120.0,90.0,2.0,0.0
5805,46.0,96.0,240.0,3.0,0.0
5806,74.0,120.0,90.0,2.0,0.0
5807,72.0,24.0,90.0,2.0,0.0
5808,70.0,120.0,90.0,2.0,0.0
5809,50.0,0.0,240.0,3.0,0.0
5810,69.0,24.0,90.0,2.0,0.0
5811,67.0,120.0,90.0,2.0,0.0
5812,47.0,96.0,240.0,3.0,0.0
5813,35.0,0.0,480.0,10.0,0.0
5814,47.0,0.0,480.0,8.0,0.0
5815,65.0,24.0,90.0,2.0,0.0
5816,50.0,24.0,180.0,3.0,0.0
5817,64.0,96.0,90.0,2.0,0.0
5818,65.0,24.0,90.0,2.0,0.0
5819,48.0,456.0,300.0,3.0,0.0
5820,67.0,0.0,300.0,2.0,0.0
5821,72.0,0.0,300.0,2.0,0.0
5822,64.0,0.0,300.0,2.0,0.0
5823,64.0,24.0,780.0,6.0,0.0
5824,48.0,0.0,780.0,8.0,0.0
5825,36.0,0.0,780.0,10.0,0.0
5826,60.0,0.0,780.0,7.0,0.0
5827,60.0,1128.0,300.0,2.0,0.0
5828,72.0,0.0,300.0,5.0,0.0
5829,36.0,0.0,300.0,3.0,0.0
5830,60.0,0.0,480.0,6.0,0.0
5831,72.0,192.0,480.0,5.0,0.0
5832,69.0,408.0,270.0,5.0,0.0
5833,57.0,0.0,270.0,6.0,0.0
5834,53.0,0.0,180.0,11.0,0.0
5835,41.0,72.0,180.0,12.0,0.0
5836,57.0,0.0,480.0,6.0,0.0
5837,36.0,288.0,180.0,12.0,0.0
5838,48.0,0.0,180.0,11.0,0.0
5839,69.0,192.0,480.0,5.0,0.0
5840,43.0,72.0,180.0,12.0,0.0
5841,70.0,408.0,270.0,5.0,0.0
5842,58.0,0.0,270.0,6.0,0.0
5843,55.0,0.0,180.0,11.0,0.0
5844,48.0,288.0,180.0,11.0,0.0
5845,70.0,0.0,480.0,5.0,0.0
5846,36.0,0.0,180.0,12.0,0.0
5847,58.0,192.0,480.0,6.0,0.0
5848,60.0,0.0,390.0,6.0,0.0
5849,65.0,240.0,720.0,7.0,0.0
5850,72.0,288.0,390.0,5.0,0.0
5851,57.0,192.0,180.0,11.0,0.0
5852,45.0,0.0,180.0,12.0,0.0
5853,36.0,48.0,180.0,12.0,0.0
5854,48.0,0.0,180.0,11.0,0.0
5855,69.0,192.0,240.0,7.0,0.0
5856,60.0,288.0,390.0,7.0,0.0
5857,45.0,0.0,180.0,12.0,0.0
5858,57.0,192.0,180.0,11.0,0.0
5859,56.0,288.0,180.0,11.0,0.0
5860,71.0,0.0,480.0,5.0,0.0
5861,59.0,192.0,480.0,6.0,0.0
5862,44.0,0.0,180.0,12.0,0.0
5863,72.0,0.0,390.0,5.0,0.0
5864,60.0,288.0,390.0,6.0,0.0
5865,45.0,0.0,180.0,12.0,0.0
5866,57.0,192.0,180.0,11.0,0.0
5867,65.0,240.0,720.0,7.0,0.0
5868,48.0,0.0,180.0,11.0,0.0
5869,36.0,48.0,180.0,12.0,0.0
5870,69.0,192.0,240.0,7.0,0.0
5871,57.0,0.0,180.0,11.0,0.0
5872,45.0,192.0,180.0,12.0,0.0
5873,60.0,288.0,390.0,7.0,0.0
5874,56.0,288.0,180.0,11.0,0.0
5875,59.0,0.0,480.0,6.0,0.0
5876,71.0,192.0,480.0,5.0,0.0
5877,44.0,0.0,180.0,12.0,0.0
5878,45.0,192.0,180.0,12.0,0.0
5879,57.0,0.0,180.0,11.0,0.0
5880,60.0,288.0,390.0,6.0,0.0
5881,65.0,240.0,720.0,7.0,0.0
5882,72.0,0.0,390.0,5.0,0.0
5883,41.0,0.0,180.0,12.0,0.0
5884,53.0,48.0,180.0,11.0,0.0
5885,69.0,192.0,240.0,7.0,0.0
5886,48.0,0.0,180.0,11.0,0.0
5887,60.0,216.0,390.0,7.0,0.0
5888,36.0,192.0,180.0,12.0,0.0
5889,74.0,120.0,120.0,2.0,0.0
5890,72.0,120.0,120.0,2.0,0.0
5891,70.0,120.0,120.0,2.0,0.0
5892,69.0,96.0,120.0,2.0,0.0
5893,48.0,72.0,6900.0,7.0,0.0
5894,60.0,0.0,6900.0,6.0,0.0
5895,52.0,120.0,90.0,3.0,0.0
5896,67.0,72.0,270.0,2.0,0.0
5897,60.0,48.0,90.0,3.0,0.0
5898,52.0,120.0,90.0,3.0,0.0
5899,60.0,120.0,90.0,3.0,0.0
5900,52.0,120.0,90.0,3.0,0.0
5901,67.0,96.0,480.0,2.0,0.0
5902,60.0,120.0,90.0,3.0,0.0
5903,52.0,120.0,90.0,3.0,0.0
5904,60.0,24.0,90.0,3.0,0.0
5905,53.0,120.0,90.0,3.0,0.0
5906,69.0,72.0,270.0,2.0,0.0
5907,60.0,48.0,90.0,3.0,0.0
5908,53.0,120.0,90.0,3.0,0.0
5909,60.0,120.0,90.0,3.0,0.0
5910,69.0,96.0,480.0,2.0,0.0
5911,53.0,120.0,90.0,3.0,0.0
5912,60.0,120.0,90.0,3.0,0.0
5913,53.0,120.0,90.0,3.0,0.0
5914,60.0,24.0,90.0,3.0,0.0
5915,70.0,72.0,270.0,2.0,0.0
5916,55.0,120.0,90.0,3.0,0.0
5917,60.0,48.0,90.0,3.0,0.0
5918,55.0,120.0,90.0,3.0,0.0
5919,60.0,120.0,90.0,3.0,0.0
5920,57.0,120.0,90.0,3.0,0.0
5921,42.0,96.0,480.0,4.0,0.0
5922,60.0,120.0,90.0,3.0,0.0
5923,57.0,120.0,90.0,3.0,0.0
5924,60.0,24.0,90.0,3.0,0.0
5925,58.0,120.0,90.0,3.0,0.0
5926,43.0,72.0,270.0,4.0,0.0
5927,60.0,48.0,90.0,3.0,0.0
5928,58.0,120.0,90.0,3.0,0.0
5929,60.0,120.0,90.0,3.0,0.0
5930,69.0,96.0,480.0,2.0,0.0
5931,54.0,120.0,90.0,3.0,0.0
5932,60.0,120.0,90.0,3.0,0.0
5933,54.0,120.0,90.0,3.0,0.0
5934,60.0,24.0,90.0,3.0,0.0
5935,70.0,72.0,270.0,2.0,0.0
5936,55.0,120.0,90.0,3.0,0.0
5937,60.0,48.0,90.0,3.0,0.0
5938,55.0,120.0,90.0,3.0,0.0
5939,60.0,120.0,90.0,3.0,0.0
5940,57.0,120.0,90.0,3.0,0.0
5941,42.0,96.0,480.0,4.0,0.0
5942,60.0,120.0,90.0,3.0,0.0
5943,57.0,120.0,90.0,3.0,0.0
5944,60.0,24.0,90.0,3.0,0.0
5945,43.0,72.0,270.0,4.0,0.0
5946,58.0,120.0,90.0,3.0,0.0
5947,60.0,48.0,90.0,3.0,0.0
5948,58.0,120.0,90.0,3.0,0.0
5949,60.0,120.0,90.0,3.0,0.0
5950,54.0,120.0,90.0,3.0,0.0
5951,81.0,0.0,480.0,2.0,0.0
5952,69.0,96.0,480.0,2.0,0.0
5953,60.0,120.0,90.0,3.0,0.0
5954,54.0,120.0,90.0,3.0,0.0
5955,60.0,24.0,90.0,3.0,0.0
5956,55.0,120.0,90.0,3.0,0.0
5957,70.0,0.0,270.0,2.0,0.0
5958,82.0,72.0,270.0,2.0,0.0
5959,60.0,48.0,90.0,3.0,0.0
5960,55.0,120.0,90.0,3.0,0.0
5961,60.0,120.0,90.0,3.0,0.0
5962,57.0,120.0,90.0,3.0,0.0
5963,42.0,192.0,480.0,4.0,0.0
5964,60.0,120.0,90.0,3.0,0.0
5965,57.0,120.0,90.0,3.0,0.0
5966,60.0,24.0,90.0,3.0,0.0
5967,58.0,216.0,390.0,3.0,0.0
5968,43.0,120.0,270.0,4.0,0.0
5969,72.0,120.0,120.0,2.0,0.0
5970,70.0,120.0,120.0,2.0,0.0
5971,69.0,120.0,120.0,2.0,0.0
5972,67.0,240.0,120.0,2.0,0.0
5973,41.0,24.0,240.0,3.0,0.0
5974,29.0,0.0,3840.0,10.0,0.0
5975,65.0,216.0,270.0,2.0,0.0
5976,53.0,240.0,2880.0,7.0,0.0
5977,41.0,0.0,3840.0,8.0,0.0
5978,45.0,240.0,240.0,3.0,0.0
5979,65.0,240.0,720.0,2.0,0.0
5980,48.0,240.0,240.0,3.0,0.0
5981,53.0,240.0,240.0,3.0,0.0
5982,63.0,0.0,960.0,5.0,0.0
5983,57.0,0.0,960.0,6.0,0.0
5984,41.0,0.0,240.0,3.0,0.0
5985,63.0,240.0,240.0,2.0,0.0
5986,45.0,0.0,240.0,3.0,0.0
5987,48.0,0.0,240.0,3.0,0.0
5988,62.0,240.0,240.0,2.0,0.0
5989,53.0,240.0,240.0,3.0,0.0
5990,61.0,0.0,240.0,2.0,0.0
5991,62.0,0.0,960.0,5.0,0.0
5992,61.0,240.0,240.0,2.0,0.0
5993,58.0,0.0,1920.0,6.0,0.0
5994,41.0,0.0,240.0,3.0,0.0
5995,46.0,240.0,240.0,3.0,0.0
5996,62.0,0.0,240.0,2.0,0.0
5997,62.0,0.0,720.0,2.0,0.0
5998,50.0,240.0,240.0,3.0,0.0
5999,53.0,0.0,240.0,3.0,0.0
6000,41.0,240.0,240.0,3.0,0.0
6001,64.0,0.0,960.0,5.0,0.0
6002,55.0,0.0,960.0,7.0,0.0
6003,43.0,0.0,240.0,3.0,0.0
6004,70.0,240.0,240.0,2.0,0.0
6005,46.0,240.0,240.0,3.0,0.0
6006,67.0,0.0,240.0,2.0,0.0
6007,64.0,0.0,240.0,2.0,0.0
6008,52.0,240.0,240.0,3.0,0.0
6009,41.0,0.0,4320.0,10.0,0.0
6010,53.0,144.0,4320.0,8.0,0.0
6011,72.0,120.0,360.0,2.0,0.0
6012,57.0,0.0,960.0,6.0,0.0
6013,41.0,120.0,240.0,3.0,0.0
6014,65.0,144.0,960.0,5.0,0.0
6015,53.0,0.0,960.0,7.0,0.0
6016,45.0,0.0,240.0,3.0,0.0
6017,69.0,144.0,120.0,2.0,0.0
6018,48.0,144.0,240.0,3.0,0.0
6019,65.0,96.0,150.0,2.0,0.0
6020,65.0,96.0,150.0,2.0,0.0
6021,53.0,0.0,240.0,3.0,0.0
6022,65.0,96.0,150.0,2.0,0.0
6023,65.0,240.0,1920.0,7.0,0.0
6024,75.0,0.0,960.0,5.0,0.0
6025,69.0,0.0,960.0,6.0,0.0
6026,53.0,240.0,240.0,3.0,0.0
6027,77.0,0.0,240.0,2.0,0.0
6028,57.0,240.0,240.0,3.0,0.0
6029,76.0,240.0,240.0,2.0,0.0
6030,60.0,0.0,240.0,3.0,0.0
6031,65.0,240.0,240.0,3.0,0.0
6032,75.0,0.0,240.0,2.0,0.0
6033,74.0,0.0,960.0,5.0,0.0
6034,70.0,0.0,1920.0,6.0,0.0
6035,73.0,240.0,240.0,2.0,0.0
6036,53.0,0.0,240.0,3.0,0.0
6037,58.0,0.0,240.0,3.0,0.0
6038,74.0,240.0,240.0,2.0,0.0
6039,62.0,240.0,240.0,3.0,0.0
6040,74.0,240.0,720.0,2.0,0.0
6041,65.0,0.0,240.0,3.0,0.0
6042,53.0,0.0,240.0,3.0,0.0
6043,67.0,0.0,960.0,7.0,0.0
6044,76.0,240.0,960.0,5.0,0.0
6045,55.0,0.0,240.0,3.0,0.0
6046,82.0,240.0,240.0,2.0,0.0
6047,79.0,0.0,240.0,2.0,0.0
6048,58.0,192.0,240.0,3.0,0.0
6049,76.0,0.0,240.0,2.0,0.0
6050,64.0,48.0,180.0,3.0,0.0
6051,69.0,0.0,480.0,6.0,0.0
6052,84.0,120.0,360.0,2.0,0.0
6053,65.0,0.0,480.0,7.0,0.0
6054,77.0,0.0,480.0,5.0,0.0
6055,53.0,120.0,240.0,3.0,0.0
6056,57.0,0.0,240.0,3.0,0.0
6057,81.0,0.0,120.0,2.0,0.0
6058,77.0,96.0,150.0,2.0,0.0
6059,60.0,144.0,240.0,3.0,0.0
6060,65.0,240.0,240.0,3.0,0.0
6061,77.0,96.0,150.0,2.0,0.0
6062,53.0,96.0,390.0,3.0,0.0
6063,77.0,144.0,240.0,2.0,0.0
6064,75.0,240.0,240.0,2.0,0.0
6065,74.0,240.0,240.0,2.0,0.0
6066,75.0,60.0,240.0,2.0,0.0
6067,60.0,0.0,930.0,3.0,0.0
6068,77.0,60.0,60.0,2.0,0.0
6069,54.0,140.0,930.0,3.0,0.0
6070,57.0,0.0,930.0,3.0,0.0
6071,75.0,60.0,60.0,2.0,0.0
6072,77.0,60.0,60.0,2.0,0.0
6073,75.0,156.0,60.0,2.0,0.0
6074,74.0,544.0,150.0,2.0,0.0
6075,74.0,120.0,600.0,2.0,0.0
6076,55.0,0.0,930.0,3.0,0.0
6077,58.0,20.0,930.0,3.0,0.0
6078,74.0,120.0,120.0,2.0,0.0
6079,76.0,120.0,120.0,2.0,0.0
6080,78.0,120.0,120.0,2.0,0.0
6081,79.0,120.0,120.0,2.0,0.0
6082,81.0,120.0,120.0,2.0,0.0
6083,82.0,100.0,120.0,2.0,0.0
6084,74.0,60.0,120.0,2.0,0.0
6085,76.0,60.0,60.0,2.0,0.0
6086,52.0,140.0,930.0,3.0,0.0
6087,58.0,0.0,930.0,3.0,0.0
6088,55.0,0.0,930.0,3.0,0.0
6089,74.0,60.0,60.0,2.0,0.0
6090,76.0,60.0,60.0,2.0,0.0
6091,74.0,156.0,60.0,2.0,0.0
6092,72.0,544.0,150.0,2.0,0.0
6093,53.0,0.0,930.0,3.0,0.0
6094,57.0,20.0,930.0,3.0,0.0
6095,72.0,120.0,15.0,2.0,0.0
6096,74.0,120.0,120.0,2.0,0.0
6097,76.0,120.0,120.0,2.0,0.0
6098,77.0,120.0,120.0,2.0,0.0
6099,79.0,120.0,120.0,2.0,0.0
6100,81.0,100.0,120.0,2.0,0.0
6101,72.0,60.0,120.0,2.0,0.0
6102,74.0,60.0,60.0,2.0,0.0
6103,50.0,140.0,930.0,3.0,0.0
6104,57.0,0.0,930.0,3.0,0.0
6105,53.0,0.0,930.0,3.0,0.0
6106,72.0,60.0,60.0,2.0,0.0
6107,74.0,60.0,60.0,2.0,0.0
6108,72.0,156.0,60.0,2.0,0.0
6109,70.0,544.0,150.0,2.0,0.0
6110,70.0,120.0,600.0,2.0,0.0
6111,52.0,0.0,930.0,3.0,0.0
6112,55.0,20.0,930.0,3.0,0.0
6113,70.0,120.0,120.0,2.0,0.0
6114,72.0,120.0,120.0,2.0,0.0
6115,74.0,120.0,120.0,2.0,0.0
6116,76.0,120.0,120.0,2.0,0.0
6117,77.0,120.0,120.0,2.0,0.0
6118,79.0,100.0,120.0,2.0,0.0
6119,70.0,156.0,120.0,2.0,0.0
6120,53.0,96.0,390.0,3.0,0.0
6121,69.0,228.0,150.0,2.0,0.0
6122,77.0,156.0,240.0,2.0,0.0
6123,76.0,324.0,150.0,2.0,0.0
6124,75.0,156.0,240.0,2.0,0.0
6125,74.0,324.0,150.0,2.0,0.0
6126,73.0,156.0,240.0,2.0,0.0
6127,72.0,324.0,150.0,2.0,0.0
6128,71.0,156.0,240.0,2.0,0.0
6129,72.0,324.0,150.0,2.0,0.0
6130,73.0,240.0,240.0,2.0,0.0
6131,76.0,240.0,240.0,2.0,0.0
6132,74.0,240.0,240.0,2.0,0.0
6133,72.0,240.0,240.0,2.0,0.0
6134,70.0,240.0,240.0,2.0,0.0
6135,69.0,240.0,240.0,2.0,0.0
6136,67.0,240.0,240.0,2.0,0.0
6137,57.0,0.0,780.0,3.0,0.0
6138,53.0,144.0,780.0,3.0,0.0
6139,48.0,24.0,1530.0,3.0,0.0
6140,72.0,80.0,240.0,2.0,0.0
6141,74.0,80.0,90.0,2.0,0.0
6142,72.0,80.0,90.0,2.0,0.0
6143,71.0,240.0,90.0,2.0,0.0
6144,72.0,48.0,240.0,2.0,0.0
6145,74.0,528.0,180.0,2.0,0.0
6146,55.0,192.0,780.0,3.0,0.0
6147,65.0,96.0,480.0,2.0,0.0
6148,58.0,0.0,780.0,3.0,0.0
6149,69.0,168.0,120.0,2.0,0.0
6150,67.0,480.0,360.0,2.0,0.0
6151,64.0,0.0,360.0,2.0,0.0
6152,65.0,480.0,480.0,2.0,0.0
6153,57.0,0.0,480.0,3.0,0.0
6154,53.0,0.0,480.0,3.0,0.0
6155,72.0,240.0,240.0,5.0,0.0
6156,71.0,240.0,240.0,5.0,0.0
6157,74.0,240.0,240.0,5.0,0.0
6158,72.0,240.0,240.0,5.0,0.0
6159,69.0,144.0,240.0,5.0,0.0
6160,65.0,144.0,240.0,5.0,0.0
6161,57.0,48.0,900.0,7.0,0.0
6162,60.0,96.0,150.0,6.0,0.0
6163,60.0,240.0,150.0,6.0,0.0
6164,53.0,0.0,480.0,8.0,0.0
6165,60.0,240.0,150.0,6.0,0.0
6166,41.0,0.0,480.0,10.0,0.0
6167,65.0,144.0,480.0,5.0,0.0
6168,60.0,48.0,150.0,6.0,0.0
6169,60.0,96.0,150.0,6.0,0.0
6170,67.0,72.0,240.0,5.0,0.0
6171,58.0,72.0,720.0,7.0,0.0
6172,40.0,72.0,300.0,10.0,0.0
6173,52.0,0.0,300.0,8.0,0.0
6174,60.0,240.0,150.0,6.0,0.0
6175,36.0,72.0,300.0,10.0,0.0
6176,60.0,96.0,150.0,6.0,0.0
6177,48.0,0.0,300.0,8.0,0.0
6178,67.0,144.0,480.0,5.0,0.0
6179,60.0,84.0,150.0,6.0,0.0
6180,55.0,12.0,240.0,7.0,0.0
6181,60.0,96.0,150.0,6.0,0.0
6182,41.0,0.0,300.0,10.0,0.0
6183,53.0,0.0,300.0,8.0,0.0
6184,53.0,72.0,300.0,7.0,0.0
6185,69.0,72.0,240.0,5.0,0.0
6186,65.0,240.0,150.0,6.0,0.0
6187,39.0,72.0,300.0,10.0,0.0
6188,51.0,0.0,300.0,8.0,0.0
6189,69.0,144.0,480.0,5.0,0.0
6190,65.0,168.0,150.0,6.0,0.0
6191,60.0,0.0,480.0,7.0,0.0
6192,65.0,96.0,150.0,6.0,0.0
6193,38.0,72.0,300.0,10.0,0.0
6194,50.0,0.0,300.0,8.0,0.0
6195,65.0,96.0,150.0,6.0,0.0
6196,58.0,144.0,480.0,7.0,0.0
6197,70.0,72.0,240.0,5.0,0.0
6198,65.0,96.0,150.0,6.0,0.0
6199,46.0,72.0,300.0,8.0,0.0
6200,70.0,264.0,450.0,5.0,0.0
6201,62.0,0.0,450.0,7.0,0.0
6202,34.0,0.0,300.0,10.0,0.0
6203,65.0,168.0,150.0,6.0,0.0
6204,65.0,72.0,150.0,6.0,0.0
6205,45.0,168.0,300.0,8.0,0.0
6206,60.0,288.0,900.0,7.0,0.0
6207,74.0,72.0,240.0,5.0,0.0
6208,33.0,0.0,300.0,10.0,0.0
6209,65.0,28.0,1410.0,6.0,0.0
6210,72.0,240.0,240.0,5.0,0.0
6211,29.0,120.0,300.0,10.0,0.0
6212,41.0,0.0,300.0,8.0,0.0
6213,70.0,72.0,240.0,5.0,0.0
6214,69.0,0.0,180.0,5.0,0.0
6215,46.0,0.0,300.0,8.0,0.0
6216,34.0,140.0,300.0,10.0,0.0
6217,62.0,0.0,900.0,7.0,0.0
6218,69.0,72.0,240.0,5.0,0.0
6219,67.0,240.0,240.0,5.0,0.0
6220,59.0,0.0,240.0,6.0,0.0
6221,69.0,72.0,240.0,5.0,0.0
6222,38.0,120.0,300.0,10.0,0.0
6223,50.0,0.0,300.0,8.0,0.0
6224,62.0,528.0,180.0,6.0,0.0
6225,65.0,0.0,180.0,5.0,0.0
6226,48.0,192.0,780.0,8.0,0.0
6227,69.0,0.0,480.0,5.0,0.0
6228,60.0,0.0,780.0,7.0,0.0
6229,65.0,192.0,480.0,6.0,0.0
6230,36.0,0.0,780.0,10.0,0.0
6231,67.0,0.0,180.0,5.0,0.0
6232,64.0,96.0,180.0,6.0,0.0
6233,72.0,240.0,240.0,2.0,0.0
6234,60.0,0.0,240.0,2.0,0.0
6235,59.0,240.0,240.0,2.0,0.0
6236,71.0,0.0,240.0,2.0,0.0
6237,62.0,0.0,240.0,2.0,0.0
6238,74.0,240.0,240.0,2.0,0.0
6239,72.0,0.0,240.0,2.0,0.0
6240,60.0,240.0,240.0,2.0,0.0
6241,57.0,192.0,240.0,2.0,0.0
6242,69.0,0.0,240.0,2.0,0.0
6243,53.0,168.0,270.0,2.0,0.0
6244,65.0,0.0,270.0,2.0,0.0
6245,41.0,72.0,180.0,3.0,0.0
6246,48.0,240.0,180.0,3.0,0.0
6247,65.0,192.0,480.0,2.0,0.0
6248,45.0,240.0,180.0,3.0,0.0
6249,53.0,0.0,480.0,2.0,0.0
6250,48.0,48.0,180.0,3.0,0.0
6251,41.0,72.0,180.0,3.0,0.0
6252,55.0,168.0,270.0,2.0,0.0
6253,67.0,0.0,270.0,2.0,0.0
6254,48.0,240.0,180.0,3.0,0.0
6255,67.0,0.0,480.0,2.0,0.0
6256,46.0,240.0,180.0,3.0,0.0
6257,55.0,192.0,480.0,2.0,0.0
6258,48.0,48.0,180.0,3.0,0.0
6259,39.0,72.0,180.0,3.0,0.0
6260,69.0,0.0,270.0,2.0,0.0
6261,57.0,168.0,270.0,2.0,0.0
6262,48.0,240.0,180.0,3.0,0.0
6263,69.0,192.0,480.0,2.0,0.0
6264,57.0,0.0,480.0,2.0,0.0
6265,41.0,240.0,180.0,3.0,0.0
6266,48.0,48.0,180.0,3.0,0.0
6267,70.0,0.0,270.0,2.0,0.0
6268,58.0,168.0,270.0,2.0,0.0
6269,38.0,72.0,180.0,3.0,0.0
6270,46.0,240.0,180.0,3.0,0.0
6271,70.0,192.0,480.0,2.0,0.0
6272,41.0,240.0,180.0,3.0,0.0
6273,58.0,0.0,480.0,2.0,0.0
6274,46.0,48.0,180.0,3.0,0.0
6275,60.0,0.0,270.0,2.0,0.0
6276,72.0,168.0,270.0,2.0,0.0
6277,45.0,72.0,180.0,3.0,0.0
6278,53.0,240.0,180.0,3.0,0.0
6279,48.0,240.0,180.0,3.0,0.0
6280,72.0,0.0,480.0,2.0,0.0
6281,60.0,192.0,480.0,2.0,0.0
6282,53.0,48.0,180.0,3.0,0.0
6283,50.0,72.0,180.0,3.0,0.0
6284,62.0,120.0,270.0,2.0,0.0
6285,74.0,0.0,270.0,2.0,0.0
6286,46.0,48.0,390.0,3.0,0.0
6287,53.0,240.0,180.0,3.0,0.0
6288,46.0,48.0,390.0,3.0,0.0
6289,48.0,192.0,180.0,3.0,0.0
6290,64.0,0.0,480.0,2.0,0.0
6291,76.0,264.0,480.0,2.0,0.0
6292,53.0,48.0,180.0,3.0,0.0
6293,65.0,120.0,270.0,2.0,0.0
6294,77.0,0.0,270.0,2.0,0.0
6295,45.0,0.0,390.0,3.0,0.0
6296,48.0,0.0,390.0,3.0,0.0
6297,53.0,480.0,390.0,3.0,0.0
6298,60.0,480.0,390.0,2.0,0.0
6299,72.0,0.0,390.0,2.0,0.0
6300,62.0,0.0,390.0,2.0,0.0
6301,74.0,480.0,390.0,2.0,0.0
6302,64.0,96.0,390.0,2.0,0.0
6303,55.0,0.0,480.0,3.0,0.0
6304,49.0,0.0,480.0,3.0,0.0
6305,76.0,0.0,390.0,2.0,0.0
6306,46.0,384.0,480.0,3.0,0.0
6307,53.0,0.0,390.0,3.0,0.0
6308,45.0,336.0,390.0,3.0,0.0
6309,48.0,0.0,390.0,3.0,0.0
6310,65.0,0.0,390.0,2.0,0.0
6311,77.0,0.0,390.0,2.0,0.0
6312,60.0,240.0,240.0,2.0,0.0
6313,72.0,240.0,240.0,2.0,0.0
6314,62.0,240.0,240.0,2.0,0.0
6315,74.0,240.0,240.0,2.0,0.0
6316,55.0,0.0,480.0,3.0,0.0
6317,46.0,0.0,480.0,3.0,0.0
6318,49.0,120.0,480.0,3.0,0.0
6319,64.0,192.0,240.0,2.0,0.0
6320,76.0,48.0,180.0,2.0,0.0
6321,53.0,0.0,390.0,3.0,0.0
6322,45.0,0.0,390.0,3.0,0.0
6323,65.0,120.0,120.0,2.0,0.0
6324,48.0,456.0,390.0,3.0,0.0
6325,77.0,144.0,120.0,2.0,0.0
6326,61.0,120.0,240.0,3.0,0.0
6327,58.0,0.0,240.0,3.0,0.0
6328,64.0,120.0,120.0,2.0,0.0
6329,76.0,0.0,120.0,2.0,0.0
6330,65.0,120.0,120.0,2.0,0.0
6331,57.0,360.0,480.0,3.0,0.0
6332,60.0,0.0,480.0,3.0,0.0
6333,77.0,240.0,120.0,2.0,0.0
6334,61.0,120.0,240.0,3.0,0.0
6335,58.0,0.0,240.0,3.0,0.0
6336,64.0,120.0,120.0,2.0,0.0
6337,76.0,0.0,120.0,2.0,0.0
6338,57.0,360.0,480.0,3.0,0.0
6339,60.0,0.0,480.0,3.0,0.0
6340,65.0,120.0,120.0,2.0,0.0
6341,77.0,240.0,120.0,2.0,0.0
6342,61.0,120.0,240.0,3.0,0.0
6343,64.0,120.0,120.0,2.0,0.0
6344,58.0,0.0,240.0,3.0,0.0
6345,76.0,0.0,120.0,2.0,0.0
6346,65.0,120.0,120.0,2.0,0.0
6347,60.0,0.0,240.0,3.0,0.0
6348,57.0,0.0,240.0,3.0,0.0
6349,77.0,120.0,120.0,2.0,0.0
6350,61.0,0.0,240.0,3.0,0.0
6351,64.0,120.0,120.0,2.0,0.0
6352,58.0,120.0,240.0,3.0,0.0
6353,76.0,0.0,120.0,2.0,0.0
6354,65.0,120.0,120.0,2.0,0.0
6355,57.0,0.0,240.0,3.0,0.0
6356,60.0,0.0,240.0,3.0,0.0
6357,77.0,120.0,120.0,2.0,0.0
6358,58.0,0.0,240.0,3.0,0.0
6359,64.0,120.0,120.0,2.0,0.0
6360,61.0,0.0,240.0,3.0,0.0
6361,76.0,156.0,120.0,2.0,0.0
6362,77.0,228.0,150.0,2.0,0.0
6363,72.0,0.0,2310.0,5.0,0.0
6364,57.0,96.0,390.0,3.0,0.0
6365,60.0,0.0,390.0,3.0,0.0
6366,81.0,240.0,240.0,2.0,0.0
6367,58.0,96.0,390.0,3.0,0.0
6368,60.0,96.0,780.0,3.0,0.0
6369,67.0,240.0,480.0,6.0,0.0
6370,58.0,0.0,480.0,8.0,0.0
6371,46.0,0.0,480.0,10.0,0.0
6372,79.0,144.0,240.0,2.0,0.0
6373,64.0,0.0,480.0,7.0,0.0
6374,76.0,0.0,240.0,2.0,0.0
6375,57.0,96.0,390.0,3.0,0.0
6376,65.0,0.0,480.0,7.0,0.0
6377,45.0,240.0,480.0,10.0,0.0
6378,77.0,48.0,240.0,2.0,0.0
6379,57.0,0.0,480.0,8.0,0.0
6380,69.0,0.0,480.0,6.0,0.0
6381,81.0,0.0,240.0,2.0,0.0
6382,58.0,96.0,390.0,3.0,0.0
6383,60.0,0.0,870.0,3.0,0.0
6384,58.0,0.0,480.0,8.0,0.0
6385,79.0,144.0,240.0,2.0,0.0
6386,64.0,0.0,480.0,7.0,0.0
6387,67.0,0.0,480.0,6.0,0.0
6388,46.0,0.0,480.0,10.0,0.0
6389,76.0,96.0,240.0,2.0,0.0
6390,57.0,72.0,390.0,3.0,0.0
6391,45.0,0.0,480.0,10.0,0.0
6392,69.0,96.0,480.0,6.0,0.0
6393,65.0,0.0,480.0,7.0,0.0
6394,77.0,120.0,90.0,2.0,0.0
6395,57.0,0.0,480.0,8.0,0.0
6396,81.0,120.0,90.0,2.0,0.0
6397,79.0,48.0,90.0,2.0,0.0
6398,77.0,24.0,90.0,2.0,0.0
6399,67.0,0.0,480.0,6.0,0.0
6400,58.0,0.0,480.0,8.0,0.0
6401,46.0,0.0,480.0,10.0,0.0
6402,58.0,72.0,390.0,3.0,0.0
6403,76.0,120.0,90.0,2.0,0.0
6404,72.0,48.0,780.0,5.0,0.0
6405,60.0,0.0,780.0,3.0,0.0
6406,64.0,96.0,480.0,7.0,0.0
6407,79.0,120.0,90.0,2.0,0.0
6408,77.0,48.0,90.0,2.0,0.0
6409,76.0,24.0,90.0,2.0,0.0
6410,77.0,120.0,90.0,2.0,0.0
6411,69.0,0.0,480.0,6.0,0.0
6412,57.0,0.0,480.0,8.0,0.0
6413,65.0,96.0,480.0,7.0,0.0
6414,57.0,72.0,390.0,3.0,0.0
6415,45.0,0.0,480.0,10.0,0.0
6416,81.0,72.0,90.0,2.0,0.0
6417,79.0,48.0,90.0,2.0,0.0
6418,77.0,24.0,90.0,2.0,0.0
6419,46.0,0.0,390.0,10.0,0.0
6420,72.0,0.0,660.0,5.0,0.0
6421,58.0,0.0,390.0,8.0,0.0
6422,67.0,72.0,390.0,6.0,0.0
6423,60.0,0.0,660.0,3.0,0.0
6424,58.0,0.0,390.0,3.0,0.0
6425,76.0,120.0,90.0,2.0,0.0
6426,64.0,0.0,390.0,7.0,0.0
6427,79.0,120.0,90.0,2.0,0.0
6428,77.0,48.0,90.0,2.0,0.0
6429,76.0,120.0,90.0,2.0,0.0
6430,65.0,0.0,150.0,7.0,0.0
6431,57.0,36.0,150.0,8.0,0.0
6432,45.0,0.0,150.0,10.0,0.0
6433,69.0,0.0,150.0,6.0,0.0
6434,57.0,24.0,180.0,3.0,0.0
6435,77.0,60.0,90.0,2.0,0.0
6436,84.0,120.0,90.0,2.0,0.0
6437,57.0,0.0,150.0,8.0,0.0
6438,72.0,12.0,390.0,5.0,0.0
6439,60.0,0.0,180.0,3.0,0.0
6440,69.0,0.0,150.0,6.0,0.0
6441,45.0,0.0,150.0,10.0,0.0
6442,57.0,24.0,180.0,3.0,0.0
6443,81.0,60.0,90.0,2.0,0.0
6444,65.0,36.0,150.0,7.0,0.0
6445,77.0,120.0,90.0,2.0,0.0
6446,58.0,0.0,180.0,3.0,0.0
6447,67.0,0.0,150.0,6.0,0.0
6448,58.0,0.0,150.0,8.0,0.0
6449,76.0,48.0,90.0,2.0,0.0
6450,64.0,36.0,150.0,7.0,0.0
6451,60.0,24.0,180.0,3.0,0.0
6452,46.0,0.0,150.0,10.0,0.0
6453,84.0,120.0,90.0,2.0,0.0
6454,64.0,0.0,150.0,7.0,0.0
6455,72.0,12.0,390.0,5.0,0.0
6456,79.0,60.0,90.0,2.0,0.0
6457,67.0,0.0,150.0,6.0,0.0
6458,58.0,0.0,150.0,8.0,0.0
6459,60.0,24.0,180.0,3.0,0.0
6460,46.0,36.0,150.0,10.0,0.0
6461,58.0,0.0,180.0,3.0,0.0
6462,76.0,120.0,90.0,2.0,0.0
6463,60.0,24.0,180.0,3.0,0.0
6464,57.0,0.0,180.0,3.0,0.0
6465,69.0,0.0,150.0,6.0,0.0
6466,65.0,0.0,150.0,7.0,0.0
6467,45.0,36.0,150.0,10.0,0.0
6468,77.0,48.0,90.0,2.0,0.0
6469,57.0,0.0,150.0,8.0,0.0
6470,84.0,120.0,90.0,2.0,0.0
6471,45.0,0.0,150.0,10.0,0.0
6472,60.0,0.0,180.0,3.0,0.0
6473,57.0,0.0,150.0,8.0,0.0
6474,57.0,24.0,180.0,3.0,0.0
6475,69.0,0.0,150.0,6.0,0.0
6476,72.0,12.0,390.0,5.0,0.0
6477,65.0,36.0,150.0,7.0,0.0
6478,81.0,60.0,90.0,2.0,0.0
6479,77.0,120.0,90.0,2.0,0.0
6480,58.0,0.0,180.0,3.0,0.0
6481,46.0,0.0,150.0,10.0,0.0
6482,64.0,36.0,150.0,7.0,0.0
6483,60.0,24.0,180.0,3.0,0.0
6484,76.0,48.0,90.0,2.0,0.0
6485,67.0,0.0,150.0,6.0,0.0
6486,58.0,0.0,150.0,8.0,0.0
6487,84.0,120.0,90.0,2.0,0.0
6488,64.0,0.0,150.0,7.0,0.0
6489,60.0,0.0,180.0,3.0,0.0
6490,58.0,0.0,150.0,8.0,0.0
6491,67.0,0.0,150.0,6.0,0.0
6492,46.0,36.0,150.0,10.0,0.0
6493,79.0,60.0,90.0,2.0,0.0
6494,72.0,24.0,180.0,5.0,0.0
6495,58.0,0.0,180.0,3.0,0.0
6496,76.0,120.0,90.0,2.0,0.0
6497,72.0,72.0,390.0,5.0,0.0
6498,57.0,0.0,390.0,8.0,0.0
6499,65.0,0.0,390.0,7.0,0.0
6500,69.0,0.0,390.0,6.0,0.0
6501,77.0,120.0,90.0,2.0,0.0
6502,45.0,0.0,390.0,10.0,0.0
6503,57.0,0.0,390.0,3.0,0.0
6504,60.0,0.0,390.0,3.0,0.0
6505,79.0,120.0,90.0,2.0,0.0
6506,81.0,48.0,90.0,2.0,0.0
6507,82.0,120.0,90.0,2.0,0.0
6508,84.0,120.0,90.0,2.0,0.0
6509,82.0,120.0,90.0,2.0,0.0
6510,81.0,120.0,90.0,2.0,0.0
6511,79.0,120.0,90.0,2.0,0.0
6512,77.0,120.0,90.0,2.0,0.0
6513,76.0,120.0,90.0,2.0,0.0
6514,74.0,120.0,90.0,2.0,0.0
6515,72.0,120.0,90.0,2.0,0.0
6516,70.0,120.0,90.0,2.0,0.0
6517,69.0,120.0,90.0,2.0,0.0
6518,67.0,120.0,90.0,2.0,0.0
6519,65.0,120.0,90.0,2.0,0.0
6520,77.0,0.0,390.0,5.0,0.0
6521,38.0,0.0,390.0,10.0,0.0
6522,53.0,0.0,390.0,3.0,0.0
6523,65.0,0.0,390.0,7.0,0.0
6524,58.0,0.0,390.0,3.0,0.0
6525,50.0,0.0,390.0,3.0,0.0
6526,70.0,120.0,90.0,2.0,0.0
6527,50.0,0.0,390.0,8.0,0.0
6528,70.0,72.0,390.0,6.0,0.0
6529,72.0,120.0,90.0,2.0,0.0
6530,74.0,48.0,90.0,2.0,0.0
6531,76.0,120.0,90.0,2.0,0.0
6532,77.0,120.0,90.0,2.0,0.0
6533,76.0,120.0,90.0,2.0,0.0
6534,74.0,120.0,90.0,2.0,0.0
6535,72.0,120.0,90.0,2.0,0.0
6536,70.0,120.0,90.0,2.0,0.0
6537,69.0,120.0,90.0,2.0,0.0
6538,67.0,120.0,90.0,2.0,0.0
6539,65.0,120.0,90.0,2.0,0.0
6540,64.0,120.0,90.0,2.0,0.0
6541,62.0,120.0,90.0,2.0,0.0
6542,60.0,120.0,90.0,2.0,0.0
6543,59.0,120.0,90.0,2.0,0.0
6544,48.0,12.0,390.0,8.0,0.0
6545,36.0,0.0,390.0,10.0,0.0
6546,48.0,24.0,90.0,3.0,0.0
6547,60.0,96.0,120.0,2.0,0.0
6548,72.0,96.0,360.0,2.0,0.0
6549,57.0,120.0,90.0,3.0,0.0
6550,65.0,60.0,150.0,6.0,0.0
6551,53.0,48.0,90.0,3.0,0.0
6552,69.0,0.0,150.0,5.0,0.0
6553,60.0,0.0,150.0,7.0,0.0
6554,57.0,24.0,90.0,3.0,0.0
6555,48.0,24.0,90.0,3.0,0.0
6556,65.0,60.0,150.0,6.0,0.0
6557,70.0,36.0,120.0,2.0,0.0
6558,69.0,0.0,150.0,5.0,0.0
6559,60.0,0.0,150.0,7.0,0.0
6560,57.0,24.0,90.0,3.0,0.0
6561,69.0,96.0,120.0,2.0,0.0
6562,67.0,36.0,120.0,2.0,0.0
6563,69.0,60.0,150.0,5.0,0.0
6564,60.0,0.0,150.0,7.0,0.0
6565,65.0,0.0,150.0,6.0,0.0
6566,53.0,24.0,90.0,3.0,0.0
6567,65.0,60.0,120.0,2.0,0.0
6568,57.0,24.0,90.0,3.0,0.0
6569,48.0,24.0,90.0,3.0,0.0
6570,48.0,12.0,390.0,8.0,0.0
6571,36.0,0.0,390.0,10.0,0.0
6572,69.0,36.0,60.0,2.0,0.0
6573,67.0,60.0,60.0,2.0,0.0
6574,58.0,24.0,90.0,3.0,0.0
6575,69.0,36.0,60.0,2.0,0.0
6576,67.0,60.0,60.0,2.0,0.0
6577,52.0,24.0,90.0,3.0,0.0
6578,69.0,36.0,60.0,2.0,0.0
6579,67.0,0.0,150.0,5.0,0.0
6580,60.0,24.0,150.0,7.0,0.0
6581,64.0,0.0,150.0,6.0,0.0
6582,67.0,24.0,60.0,2.0,0.0
6583,58.0,24.0,90.0,3.0,0.0
6584,69.0,36.0,60.0,2.0,0.0
6585,67.0,60.0,60.0,2.0,0.0
6586,69.0,36.0,60.0,2.0,0.0
6587,64.0,0.0,150.0,6.0,0.0
6588,67.0,24.0,150.0,5.0,0.0
6589,48.0,24.0,90.0,3.0,0.0
6590,60.0,0.0,150.0,7.0,0.0
6591,67.0,36.0,60.0,2.0,0.0
6592,58.0,24.0,90.0,3.0,0.0
6593,69.0,36.0,60.0,2.0,0.0
6594,67.0,96.0,60.0,2.0,0.0
6595,65.0,36.0,120.0,2.0,0.0
6596,67.0,60.0,150.0,5.0,0.0
6597,64.0,0.0,150.0,6.0,0.0
6598,60.0,0.0,150.0,7.0,0.0
6599,52.0,24.0,90.0,3.0,0.0
6600,67.0,156.0,120.0,2.0,0.0
6601,58.0,24.0,90.0,3.0,0.0
6602,65.0,0.0,180.0,5.0,0.0
6603,53.0,0.0,180.0,8.0,0.0
6604,53.0,0.0,180.0,3.0,0.0
6605,41.0,0.0,180.0,10.0,0.0
6606,65.0,0.0,180.0,6.0,0.0
6607,65.0,36.0,150.0,2.0,0.0
6608,60.0,288.0,180.0,7.0,0.0
6609,69.0,240.0,240.0,2.0,0.0
6610,60.0,96.0,780.0,3.0,0.0
6611,46.0,0.0,480.0,10.0,0.0
6612,58.0,96.0,390.0,3.0,0.0
6613,72.0,0.0,780.0,6.0,0.0
6614,58.0,0.0,480.0,8.0,0.0
6615,67.0,0.0,480.0,7.0,0.0
6616,67.0,144.0,240.0,2.0,0.0
6617,76.0,240.0,480.0,5.0,0.0
6618,64.0,0.0,240.0,2.0,0.0
6619,69.0,0.0,480.0,7.0,0.0
6620,57.0,0.0,480.0,8.0,0.0
6621,77.0,240.0,480.0,5.0,0.0
6622,45.0,0.0,480.0,10.0,0.0
6623,65.0,48.0,240.0,2.0,0.0
6624,57.0,96.0,390.0,3.0,0.0
6625,69.0,0.0,240.0,2.0,0.0
6626,67.0,0.0,480.0,7.0,0.0
6627,58.0,0.0,480.0,8.0,0.0
6628,60.0,72.0,870.0,3.0,0.0
6629,67.0,144.0,240.0,2.0,0.0
6630,58.0,96.0,390.0,3.0,0.0
6631,72.0,0.0,870.0,6.0,0.0
6632,76.0,96.0,480.0,5.0,0.0
6633,46.0,0.0,480.0,10.0,0.0
6634,64.0,0.0,240.0,2.0,0.0
6635,65.0,120.0,90.0,2.0,0.0
6636,69.0,0.0,480.0,7.0,0.0
6637,57.0,0.0,390.0,3.0,0.0
6638,45.0,0.0,480.0,10.0,0.0
6639,57.0,96.0,480.0,8.0,0.0
6640,77.0,0.0,480.0,5.0,0.0
6641,69.0,120.0,90.0,2.0,0.0
6642,67.0,48.0,90.0,2.0,0.0
6643,65.0,24.0,90.0,2.0,0.0
6644,60.0,0.0,780.0,3.0,0.0
6645,58.0,72.0,390.0,3.0,0.0
6646,46.0,0.0,480.0,10.0,0.0
6647,76.0,0.0,480.0,5.0,0.0
6648,64.0,120.0,90.0,2.0,0.0
6649,67.0,0.0,480.0,7.0,0.0
6650,72.0,48.0,780.0,6.0,0.0
6651,58.0,96.0,480.0,8.0,0.0
6652,67.0,120.0,90.0,2.0,0.0
6653,65.0,48.0,90.0,2.0,0.0
6654,64.0,24.0,90.0,2.0,0.0
6655,69.0,0.0,480.0,7.0,0.0
6656,57.0,0.0,480.0,8.0,0.0
6657,65.0,120.0,90.0,2.0,0.0
6658,45.0,96.0,480.0,10.0,0.0
6659,77.0,0.0,480.0,5.0,0.0
6660,57.0,72.0,390.0,3.0,0.0
6661,69.0,72.0,90.0,2.0,0.0
6662,67.0,48.0,90.0,2.0,0.0
6663,65.0,24.0,90.0,2.0,0.0
6664,58.0,48.0,390.0,3.0,0.0
6665,67.0,0.0,420.0,7.0,0.0
6666,76.0,0.0,420.0,5.0,0.0
6667,58.0,24.0,420.0,8.0,0.0
6668,60.0,0.0,660.0,3.0,0.0
6669,46.0,0.0,420.0,10.0,0.0
6670,64.0,120.0,90.0,2.0,0.0
6671,72.0,0.0,660.0,6.0,0.0
6672,67.0,120.0,90.0,2.0,0.0
6673,65.0,48.0,90.0,2.0,0.0
6674,64.0,120.0,90.0,2.0,0.0
6675,69.0,24.0,180.0,7.0,0.0
6676,65.0,96.0,90.0,2.0,0.0
6677,57.0,0.0,180.0,3.0,0.0
6678,45.0,0.0,180.0,10.0,0.0
6679,57.0,0.0,180.0,8.0,0.0
6680,77.0,0.0,180.0,5.0,0.0
6681,72.0,120.0,90.0,2.0,0.0
6682,57.0,24.0,180.0,3.0,0.0
6683,60.0,0.0,180.0,3.0,0.0
6684,45.0,0.0,180.0,10.0,0.0
6685,57.0,0.0,180.0,8.0,0.0
6686,72.0,48.0,390.0,6.0,0.0
6687,77.0,0.0,180.0,5.0,0.0
6688,69.0,96.0,90.0,2.0,0.0
6689,69.0,0.0,180.0,7.0,0.0
6690,65.0,120.0,90.0,2.0,0.0
6691,67.0,0.0,180.0,7.0,0.0
6692,76.0,0.0,180.0,5.0,0.0
6693,58.0,0.0,180.0,8.0,0.0
6694,60.0,24.0,180.0,3.0,0.0
6695,64.0,48.0,90.0,2.0,0.0
6696,58.0,0.0,180.0,3.0,0.0
6697,46.0,0.0,180.0,10.0,0.0
6698,72.0,120.0,90.0,2.0,0.0
6699,76.0,0.0,180.0,5.0,0.0
6700,58.0,0.0,180.0,8.0,0.0
6701,58.0,24.0,180.0,3.0,0.0
6702,67.0,0.0,180.0,7.0,0.0
6703,46.0,0.0,180.0,10.0,0.0
6704,67.0,96.0,90.0,2.0,0.0
6705,60.0,0.0,180.0,3.0,0.0
6706,72.0,48.0,390.0,6.0,0.0
6707,64.0,120.0,90.0,2.0,0.0
6708,57.0,0.0,180.0,3.0,0.0
6709,60.0,0.0,180.0,3.0,0.0
6710,57.0,0.0,180.0,8.0,0.0
6711,45.0,0.0,180.0,10.0,0.0
6712,69.0,0.0,180.0,7.0,0.0
6713,65.0,48.0,90.0,2.0,0.0
6714,77.0,24.0,180.0,5.0,0.0
6715,72.0,120.0,90.0,2.0,0.0
6716,57.0,0.0,180.0,8.0,0.0
6717,77.0,0.0,180.0,5.0,0.0
6718,69.0,0.0,180.0,7.0,0.0
6719,72.0,48.0,390.0,6.0,0.0
6720,69.0,96.0,90.0,2.0,0.0
6721,57.0,0.0,180.0,3.0,0.0
6722,60.0,0.0,180.0,3.0,0.0
6723,45.0,24.0,180.0,10.0,0.0
6724,65.0,120.0,90.0,2.0,0.0
6725,46.0,0.0,180.0,10.0,0.0
6726,64.0,48.0,90.0,2.0,0.0
6727,60.0,0.0,180.0,3.0,0.0
6728,58.0,24.0,180.0,3.0,0.0
6729,58.0,0.0,180.0,8.0,0.0
6730,67.0,0.0,180.0,7.0,0.0
6731,76.0,0.0,180.0,5.0,0.0
6732,72.0,120.0,90.0,2.0,0.0
6733,67.0,0.0,180.0,7.0,0.0
6734,72.0,0.0,630.0,6.0,0.0
6735,60.0,0.0,180.0,3.0,0.0
6736,67.0,96.0,90.0,2.0,0.0
6737,76.0,0.0,180.0,5.0,0.0
6738,58.0,0.0,180.0,3.0,0.0
6739,46.0,24.0,180.0,10.0,0.0
6740,58.0,0.0,180.0,8.0,0.0
6741,64.0,120.0,90.0,2.0,0.0
6742,57.0,72.0,390.0,8.0,0.0
6743,65.0,120.0,90.0,2.0,0.0
6744,69.0,0.0,390.0,7.0,0.0
6745,60.0,0.0,390.0,3.0,0.0
6746,57.0,0.0,390.0,3.0,0.0
6747,77.0,0.0,390.0,5.0,0.0
6748,45.0,0.0,390.0,10.0,0.0
6749,67.0,120.0,90.0,2.0,0.0
6750,69.0,48.0,90.0,2.0,0.0
6751,70.0,120.0,90.0,2.0,0.0
6752,72.0,120.0,90.0,2.0,0.0
6753,70.0,120.0,90.0,2.0,0.0
6754,69.0,120.0,90.0,2.0,0.0
6755,67.0,120.0,90.0,2.0,0.0
6756,65.0,120.0,90.0,2.0,0.0
6757,64.0,120.0,90.0,2.0,0.0
6758,62.0,120.0,90.0,2.0,0.0
6759,60.0,120.0,90.0,2.0,0.0
6760,58.0,120.0,90.0,2.0,0.0
6761,57.0,120.0,90.0,2.0,0.0
6762,55.0,120.0,90.0,2.0,0.0
6763,53.0,120.0,90.0,2.0,0.0
6764,33.0,48.0,780.0,10.0,0.0
6765,45.0,120.0,90.0,3.0,0.0
6766,75.0,24.0,900.0,2.0,0.0
6767,45.0,0.0,780.0,8.0,0.0
6768,53.0,120.0,90.0,3.0,0.0
6769,63.0,0.0,360.0,5.0,0.0
6770,60.0,0.0,360.0,6.0,0.0
6771,48.0,120.0,90.0,3.0,0.0
6772,53.0,96.0,360.0,7.0,0.0
6773,53.0,120.0,90.0,3.0,0.0
6774,45.0,24.0,90.0,3.0,0.0
6775,53.0,72.0,90.0,3.0,0.0
6776,53.0,0.0,180.0,7.0,0.0
6777,60.0,12.0,180.0,6.0,0.0
6778,48.0,84.0,90.0,3.0,0.0
6779,63.0,0.0,180.0,5.0,0.0
6780,53.0,84.0,90.0,3.0,0.0
6781,48.0,48.0,780.0,8.0,0.0
6782,48.0,24.0,90.0,3.0,0.0
6783,36.0,0.0,780.0,10.0,0.0
6784,70.0,36.0,60.0,2.0,0.0
6785,69.0,60.0,60.0,2.0,0.0
6786,53.0,24.0,90.0,3.0,0.0
6787,70.0,36.0,60.0,2.0,0.0
6788,69.0,60.0,60.0,2.0,0.0
6789,57.0,60.0,360.0,6.0,0.0
6790,53.0,0.0,360.0,7.0,0.0
6791,51.0,24.0,90.0,3.0,0.0
6792,70.0,36.0,60.0,2.0,0.0
6793,63.0,0.0,360.0,5.0,0.0
6794,69.0,60.0,60.0,2.0,0.0
6795,53.0,24.0,90.0,3.0,0.0
6796,70.0,36.0,60.0,2.0,0.0
6797,69.0,60.0,60.0,2.0,0.0
6798,48.0,24.0,90.0,3.0,0.0
6799,70.0,36.0,60.0,2.0,0.0
6800,69.0,0.0,60.0,2.0,0.0
6801,53.0,24.0,90.0,3.0,0.0
6802,70.0,36.0,60.0,2.0,0.0
6803,69.0,48.0,60.0,2.0,0.0
6804,67.0,60.0,120.0,2.0,0.0
6805,53.0,0.0,180.0,7.0,0.0
6806,63.0,36.0,180.0,5.0,0.0
6807,57.0,0.0,180.0,6.0,0.0
6808,51.0,24.0,90.0,3.0,0.0
6809,53.0,24.0,90.0,3.0,0.0
6810,69.0,96.0,120.0,2.0,0.0
6811,46.0,0.0,390.0,8.0,0.0
6812,58.0,0.0,390.0,6.0,0.0
6813,34.0,72.0,390.0,10.0,0.0
6814,70.0,120.0,90.0,2.0,0.0
6815,62.0,0.0,390.0,5.0,0.0
6816,53.0,0.0,390.0,7.0,0.0
6817,50.0,0.0,390.0,3.0,0.0
6818,46.0,0.0,390.0,3.0,0.0
6819,53.0,0.0,390.0,3.0,0.0
6820,72.0,120.0,90.0,2.0,0.0
6821,74.0,48.0,90.0,2.0,0.0
6822,75.0,120.0,90.0,2.0,0.0
6823,77.0,120.0,90.0,2.0,0.0
6824,75.0,120.0,90.0,2.0,0.0
6825,74.0,120.0,90.0,2.0,0.0
6826,72.0,120.0,90.0,2.0,0.0
6827,70.0,120.0,90.0,2.0,0.0
6828,69.0,120.0,90.0,2.0,0.0
6829,67.0,120.0,90.0,2.0,0.0
6830,65.0,120.0,90.0,2.0,0.0
6831,63.0,120.0,90.0,2.0,0.0
6832,62.0,120.0,90.0,2.0,0.0
6833,60.0,120.0,90.0,2.0,0.0
6834,58.0,120.0,90.0,2.0,0.0
6835,80.0,24.0,900.0,2.0,0.0
6836,49.0,120.0,90.0,3.0,0.0
6837,37.0,96.0,720.0,8.0,0.0
6838,25.0,0.0,720.0,10.0,0.0
6839,59.0,120.0,90.0,3.0,0.0
6840,65.0,0.0,360.0,6.0,0.0
6841,68.0,96.0,360.0,5.0,0.0
6842,59.0,0.0,360.0,7.0,0.0
6843,53.0,120.0,90.0,3.0,0.0
6844,59.0,120.0,90.0,3.0,0.0
6845,49.0,24.0,90.0,3.0,0.0
6846,59.0,24.0,90.0,3.0,0.0
6847,59.0,0.0,180.0,7.0,0.0
6848,68.0,12.0,180.0,5.0,0.0
6849,53.0,84.0,90.0,3.0,0.0
6850,65.0,0.0,180.0,6.0,0.0
6851,59.0,120.0,90.0,3.0,0.0
6852,49.0,0.0,720.0,8.0,0.0
6853,59.0,24.0,900.0,2.0,0.0
6854,37.0,96.0,720.0,10.0,0.0
6855,49.0,120.0,90.0,3.0,0.0
6856,56.0,120.0,90.0,3.0,0.0
6857,65.0,96.0,360.0,7.0,0.0
6858,68.0,0.0,360.0,6.0,0.0
6859,71.0,0.0,360.0,5.0,0.0
6860,53.0,120.0,90.0,3.0,0.0
6861,56.0,120.0,90.0,3.0,0.0
6862,49.0,24.0,90.0,3.0,0.0
6863,56.0,24.0,90.0,3.0,0.0
6864,71.0,12.0,180.0,5.0,0.0
6865,65.0,0.0,180.0,7.0,0.0
6866,53.0,84.0,90.0,3.0,0.0
6867,68.0,0.0,180.0,6.0,0.0
6868,56.0,120.0,90.0,3.0,0.0
6869,36.0,0.0,300.0,10.0,0.0
6870,48.0,120.0,90.0,3.0,0.0
6871,65.0,24.0,300.0,7.0,0.0
6872,48.0,0.0,300.0,8.0,0.0
6873,60.0,120.0,1140.0,2.0,0.0
6874,69.0,72.0,240.0,6.0,0.0
6875,72.0,0.0,240.0,5.0,0.0
6876,57.0,24.0,90.0,3.0,0.0
6877,69.0,0.0,150.0,5.0,0.0
6878,53.0,60.0,90.0,3.0,0.0
6879,65.0,60.0,150.0,6.0,0.0
6880,57.0,120.0,90.0,3.0,0.0
6881,65.0,0.0,300.0,7.0,0.0
6882,48.0,0.0,300.0,8.0,0.0
6883,72.0,0.0,150.0,5.0,0.0
6884,69.0,72.0,150.0,6.0,0.0
6885,48.0,48.0,90.0,3.0,0.0
6886,36.0,24.0,300.0,10.0,0.0
6887,57.0,96.0,90.0,3.0,0.0
6888,53.0,48.0,90.0,3.0,0.0
6889,69.0,0.0,150.0,6.0,0.0
6890,72.0,72.0,150.0,5.0,0.0
6891,57.0,216.0,90.0,3.0,0.0
6892,48.0,72.0,390.0,3.0,0.0
6893,69.0,0.0,300.0,6.0,0.0
6894,36.0,0.0,300.0,10.0,0.0
6895,72.0,0.0,300.0,5.0,0.0
6896,65.0,24.0,300.0,7.0,0.0
6897,48.0,0.0,300.0,8.0,0.0
6898,62.0,48.0,90.0,2.0,0.0
6899,64.0,120.0,90.0,2.0,0.0
6900,65.0,120.0,90.0,2.0,0.0
6901,67.0,120.0,90.0,2.0,0.0
6902,69.0,120.0,90.0,2.0,0.0
6903,70.0,120.0,90.0,2.0,0.0
6904,53.0,0.0,390.0,3.0,0.0
6905,72.0,120.0,90.0,2.0,0.0
6906,48.0,72.0,390.0,3.0,0.0
6907,57.0,0.0,390.0,3.0,0.0
6908,65.0,120.0,90.0,2.0,0.0
6909,67.0,48.0,90.0,2.0,0.0
6910,69.0,120.0,90.0,2.0,0.0
6911,70.0,120.0,90.0,2.0,0.0
6912,72.0,120.0,90.0,2.0,0.0
6913,74.0,120.0,90.0,2.0,0.0
6914,76.0,120.0,90.0,2.0,0.0
6915,77.0,120.0,90.0,2.0,0.0
6916,48.0,0.0,390.0,3.0,0.0
6917,57.0,72.0,390.0,3.0,0.0
6918,53.0,0.0,390.0,3.0,0.0
6919,72.0,120.0,90.0,2.0,0.0
6920,74.0,48.0,90.0,2.0,0.0
6921,76.0,120.0,90.0,2.0,0.0
6922,77.0,120.0,90.0,2.0,0.0
6923,79.0,120.0,90.0,2.0,0.0
6924,81.0,120.0,90.0,2.0,0.0
6925,82.0,216.0,90.0,2.0,0.0
6926,84.0,144.0,180.0,2.0,0.0
6927,53.0,0.0,390.0,3.0,0.0
6928,48.0,0.0,390.0,3.0,0.0
6929,57.0,72.0,390.0,3.0,0.0
6930,84.0,48.0,90.0,2.0,0.0
6931,81.0,216.0,90.0,2.0,0.0
6932,77.0,144.0,180.0,2.0,0.0
6933,81.0,120.0,90.0,2.0,0.0
6934,77.0,216.0,90.0,2.0,0.0
6935,72.0,144.0,180.0,2.0,0.0
6936,81.0,120.0,90.0,2.0,0.0
6937,77.0,216.0,90.0,2.0,0.0
6938,72.0,144.0,180.0,2.0,0.0
6939,77.0,120.0,90.0,2.0,0.0
6940,72.0,216.0,90.0,2.0,0.0
6941,69.0,144.0,180.0,2.0,0.0
6942,77.0,0.0,90.0,2.0,0.0
6943,65.0,120.0,90.0,3.0,0.0
6944,72.0,216.0,90.0,2.0,0.0
6945,60.0,0.0,90.0,3.0,0.0
6946,57.0,0.0,180.0,3.0,0.0
6947,69.0,144.0,180.0,2.0,0.0
6948,72.0,0.0,90.0,2.0,0.0
6949,60.0,120.0,90.0,3.0,0.0
6950,69.0,0.0,90.0,2.0,0.0
6951,57.0,216.0,90.0,3.0,0.0
6952,53.0,0.0,180.0,3.0,0.0
6953,65.0,144.0,180.0,2.0,0.0
6954,72.0,120.0,90.0,2.0,0.0
6955,60.0,0.0,90.0,3.0,0.0
6956,69.0,216.0,90.0,2.0,0.0
6957,57.0,0.0,90.0,3.0,0.0
6958,65.0,0.0,180.0,2.0,0.0
6959,53.0,144.0,180.0,3.0,0.0
6960,69.0,0.0,90.0,2.0,0.0
6961,57.0,120.0,90.0,3.0,0.0
6962,65.0,120.0,90.0,2.0,0.0
6963,53.0,0.0,90.0,3.0,0.0
6964,48.0,0.0,150.0,8.0,0.0
6965,60.0,60.0,150.0,7.0,0.0
6966,60.0,12.0,390.0,2.0,0.0
6967,48.0,60.0,90.0,3.0,0.0
6968,36.0,0.0,150.0,10.0,0.0
6969,57.0,120.0,90.0,3.0,0.0
6970,53.0,48.0,90.0,3.0,0.0
6971,57.0,60.0,150.0,6.0,0.0
6972,60.0,0.0,150.0,7.0,0.0
6973,65.0,0.0,150.0,5.0,0.0
6974,36.0,0.0,150.0,10.0,0.0
6975,48.0,0.0,150.0,8.0,0.0
6976,57.0,120.0,90.0,3.0,0.0
6977,72.0,0.0,570.0,2.0,0.0
6978,65.0,0.0,150.0,5.0,0.0
6979,36.0,0.0,150.0,10.0,0.0
6980,48.0,60.0,90.0,3.0,0.0
6981,57.0,0.0,150.0,6.0,0.0
6982,48.0,60.0,150.0,8.0,0.0
6983,60.0,0.0,150.0,7.0,0.0
6984,57.0,120.0,90.0,3.0,0.0
6985,53.0,60.0,90.0,3.0,0.0
6986,36.0,0.0,150.0,10.0,0.0
6987,60.0,60.0,150.0,7.0,0.0
6988,65.0,0.0,150.0,5.0,0.0
6989,57.0,0.0,150.0,6.0,0.0
6990,48.0,0.0,150.0,8.0,0.0
6991,57.0,120.0,90.0,3.0,0.0
6992,48.0,0.0,150.0,8.0,0.0
6993,36.0,0.0,150.0,10.0,0.0
6994,48.0,60.0,90.0,3.0,0.0
6995,60.0,60.0,150.0,7.0,0.0
6996,57.0,120.0,90.0,3.0,0.0
6997,60.0,0.0,150.0,7.0,0.0
6998,48.0,0.0,150.0,8.0,0.0
6999,77.0,60.0,150.0,5.0,0.0
7000,36.0,0.0,150.0,10.0,0.0
7001,53.0,0.0,90.0,3.0,0.0
7002,74.0,60.0,90.0,2.0,0.0
7003,69.0,0.0,150.0,6.0,0.0
7004,57.0,0.0,90.0,3.0,0.0
7005,72.0,120.0,90.0,2.0,0.0
7006,48.0,0.0,150.0,8.0,0.0
7007,48.0,60.0,90.0,3.0,0.0
7008,36.0,0.0,150.0,10.0,0.0
7009,69.0,60.0,150.0,6.0,0.0
7010,77.0,0.0,150.0,5.0,0.0
7011,60.0,0.0,150.0,7.0,0.0
7012,70.0,0.0,90.0,2.0,0.0
7013,69.0,0.0,90.0,2.0,0.0
7014,57.0,120.0,90.0,3.0,0.0
7015,36.0,0.0,150.0,10.0,0.0
7016,48.0,0.0,150.0,8.0,0.0
7017,53.0,60.0,90.0,3.0,0.0
7018,60.0,0.0,150.0,7.0,0.0
7019,77.0,0.0,150.0,5.0,0.0
7020,67.0,0.0,90.0,2.0,0.0
7021,69.0,60.0,150.0,6.0,0.0
7022,57.0,0.0,90.0,3.0,0.0
7023,65.0,84.0,90.0,2.0,0.0
7024,36.0,0.0,150.0,10.0,0.0
7025,48.0,24.0,150.0,8.0,0.0
7026,48.0,24.0,90.0,3.0,0.0
7027,69.0,36.0,60.0,2.0,0.0
7028,60.0,0.0,150.0,7.0,0.0
7029,67.0,36.0,60.0,2.0,0.0
7030,58.0,24.0,90.0,3.0,0.0
7031,69.0,36.0,60.0,2.0,0.0
7032,67.0,60.0,60.0,2.0,0.0
7033,52.0,24.0,90.0,3.0,0.0
7034,60.0,0.0,150.0,7.0,0.0
7035,76.0,0.0,150.0,5.0,0.0
7036,48.0,0.0,150.0,8.0,0.0
7037,69.0,36.0,60.0,2.0,0.0
7038,70.0,0.0,150.0,6.0,0.0
7039,36.0,24.0,150.0,10.0,0.0
7040,67.0,36.0,60.0,2.0,0.0
7041,69.0,36.0,60.0,2.0,0.0
7042,58.0,24.0,90.0,3.0,0.0
7043,67.0,60.0,60.0,2.0,0.0
7044,70.0,0.0,150.0,6.0,0.0
7045,48.0,0.0,150.0,8.0,0.0
7046,76.0,24.0,150.0,5.0,0.0
7047,36.0,0.0,150.0,10.0,0.0
7048,60.0,0.0,150.0,7.0,0.0
7049,48.0,24.0,90.0,3.0,0.0
7050,69.0,36.0,60.0,2.0,0.0
7051,67.0,36.0,60.0,2.0,0.0
7052,69.0,36.0,60.0,2.0,0.0
7053,58.0,24.0,90.0,3.0,0.0
7054,67.0,60.0,60.0,2.0,0.0
7055,76.0,0.0,150.0,5.0,0.0
7056,36.0,0.0,150.0,10.0,0.0
7057,69.0,36.0,60.0,2.0,0.0
7058,48.0,0.0,150.0,8.0,0.0
7059,70.0,24.0,150.0,6.0,0.0
7060,60.0,0.0,150.0,7.0,0.0
7061,52.0,24.0,90.0,3.0,0.0
7062,67.0,36.0,60.0,2.0,0.0
7063,69.0,36.0,60.0,2.0,0.0
7064,58.0,24.0,90.0,3.0,0.0
7065,67.0,60.0,60.0,2.0,0.0
7066,48.0,24.0,90.0,3.0,0.0
7067,48.0,24.0,150.0,8.0,0.0
7068,36.0,0.0,150.0,10.0,0.0
7069,60.0,0.0,150.0,7.0,0.0
7070,69.0,36.0,60.0,2.0,0.0
7071,67.0,36.0,60.0,2.0,0.0
7072,69.0,36.0,60.0,2.0,0.0
7073,58.0,24.0,90.0,3.0,0.0
7074,67.0,60.0,60.0,2.0,0.0
7075,58.0,0.0,150.0,6.0,0.0
7076,69.0,36.0,60.0,2.0,0.0
7077,64.0,0.0,150.0,5.0,0.0
7078,48.0,24.0,150.0,8.0,0.0
7079,36.0,0.0,150.0,10.0,0.0
7080,52.0,24.0,90.0,3.0,0.0
7081,60.0,0.0,150.0,7.0,0.0
7082,67.0,36.0,60.0,2.0,0.0
7083,58.0,24.0,90.0,3.0,0.0
7084,69.0,36.0,60.0,2.0,0.0
7085,67.0,60.0,60.0,2.0,0.0
7086,64.0,24.0,150.0,5.0,0.0
7087,69.0,36.0,60.0,2.0,0.0
7088,58.0,0.0,150.0,6.0,0.0
7089,36.0,0.0,150.0,10.0,0.0
7090,60.0,0.0,150.0,7.0,0.0
7091,48.0,24.0,90.0,3.0,0.0
7092,48.0,0.0,150.0,8.0,0.0
7093,67.0,36.0,60.0,2.0,0.0
7094,58.0,24.0,90.0,3.0,0.0
7095,69.0,36.0,60.0,2.0,0.0
7096,67.0,96.0,60.0,2.0,0.0
7097,48.0,0.0,150.0,8.0,0.0
7098,65.0,0.0,90.0,2.0,0.0
7099,60.0,0.0,150.0,7.0,0.0
7100,64.0,60.0,150.0,5.0,0.0
7101,58.0,0.0,150.0,6.0,0.0
7102,36.0,0.0,150.0,10.0,0.0
7103,52.0,60.0,90.0,3.0,0.0
7104,58.0,180.0,90.0,3.0,0.0
7105,67.0,0.0,90.0,2.0,0.0
7106,65.0,144.0,2880.0,0.0,0.0
7107,53.0,0.0,9900.0,1.0,0.0
7108,65.0,6.0,9900.0,1.0,0.0
7109,29.0,0.0,180.0,10.0,0.0
7110,53.0,0.0,180.0,3.0,0.0
7111,57.0,0.0,180.0,3.0,0.0
7112,57.0,240.0,390.0,6.0,0.0
7113,41.0,192.0,180.0,8.0,0.0
7114,65.0,36.0,150.0,5.0,0.0
7115,65.0,0.0,390.0,2.0,0.0
7116,60.0,164.0,930.0,7.0,0.0
7117,65.0,48.0,390.0,5.0,0.0
7118,53.0,268.0,180.0,8.0,0.0
7119,41.0,0.0,180.0,10.0,0.0
7120,65.0,48.0,390.0,5.0,0.0
7121,41.0,384.0,180.0,8.0,0.0
7122,57.0,212.0,930.0,7.0,0.0
7123,29.0,0.0,180.0,10.0,0.0
7124,65.0,48.0,390.0,5.0,0.0
7125,41.0,24.0,180.0,10.0,0.0
7126,74.0,48.0,90.0,6.0,0.0
7127,53.0,0.0,180.0,8.0,0.0
7128,72.0,120.0,90.0,6.0,0.0
7129,65.0,24.0,180.0,5.0,0.0
7130,70.0,96.0,90.0,6.0,0.0
7131,69.0,4.0,90.0,6.0,0.0
7132,67.0,144.0,2880.0,0.0,0.0
7133,29.0,0.0,180.0,10.0,0.0
7134,58.0,38.0,1890.0,7.0,0.0
7135,67.0,432.0,180.0,6.0,0.0
7136,41.0,0.0,180.0,8.0,0.0
7137,65.0,0.0,960.0,5.0,0.0
7138,67.0,48.0,390.0,6.0,0.0
7139,41.0,0.0,180.0,10.0,0.0
7140,53.0,288.0,180.0,8.0,0.0
7141,67.0,48.0,390.0,6.0,0.0
7142,29.0,192.0,180.0,10.0,0.0
7143,63.0,0.0,960.0,0.0,0.0
7144,41.0,0.0,180.0,8.0,0.0
7145,63.0,216.0,390.0,5.0,0.0
7146,67.0,48.0,390.0,6.0,0.0
7147,75.0,24.0,120.0,5.0,0.0
7148,53.0,48.0,180.0,8.0,0.0
7149,41.0,0.0,180.0,10.0,0.0
7150,74.0,120.0,120.0,5.0,0.0
7151,72.0,72.0,120.0,5.0,0.0
7152,67.0,10.0,180.0,6.0,0.0
7153,70.0,192.0,120.0,5.0,0.0
7154,41.0,432.0,180.0,8.0,0.0
7155,67.0,0.0,960.0,6.0,0.0
7156,29.0,0.0,180.0,10.0,0.0
7157,60.0,38.0,1890.0,7.0,0.0
7158,69.0,120.0,2400.0,0.0,0.0
7159,69.0,0.0,180.0,5.0,0.0
7160,69.0,48.0,390.0,5.0,0.0
7161,53.0,0.0,180.0,8.0,0.0
7162,41.0,288.0,180.0,10.0,0.0
7163,69.0,48.0,390.0,5.0,0.0
7164,65.0,216.0,390.0,6.0,0.0
7165,41.0,192.0,180.0,8.0,0.0
7166,29.0,0.0,180.0,10.0,0.0
7167,65.0,0.0,960.0,0.0,0.0
7168,69.0,48.0,390.0,5.0,0.0
7169,77.0,24.0,120.0,6.0,0.0
7170,53.0,0.0,180.0,8.0,0.0
7171,41.0,48.0,180.0,10.0,0.0
7172,75.0,120.0,120.0,6.0,0.0
7173,74.0,82.0,120.0,6.0,0.0
7174,69.0,192.0,480.0,5.0,0.0
7175,72.0,192.0,120.0,6.0,0.0
7176,41.0,0.0,180.0,8.0,0.0
7177,62.0,20.0,930.0,7.0,0.0
7178,70.0,120.0,1440.0,0.0,0.0
7179,29.0,0.0,180.0,10.0,0.0
7180,70.0,48.0,180.0,6.0,0.0
7181,70.0,48.0,390.0,6.0,0.0
7182,67.0,48.0,180.0,5.0,0.0
7183,79.0,24.0,120.0,5.0,0.0
7184,53.0,0.0,180.0,8.0,0.0
7185,41.0,48.0,180.0,10.0,0.0
7186,67.0,0.0,480.0,0.0,0.0
7187,77.0,120.0,120.0,5.0,0.0
7188,70.0,192.0,480.0,6.0,0.0
7189,75.0,100.0,120.0,5.0,0.0
7190,74.0,192.0,120.0,5.0,0.0
7191,72.0,120.0,1440.0,0.0,0.0
7192,64.0,20.0,930.0,7.0,0.0
7193,72.0,48.0,180.0,5.0,0.0
7194,41.0,0.0,180.0,8.0,0.0
7195,29.0,0.0,180.0,10.0,0.0
7196,72.0,48.0,390.0,5.0,0.0
7197,69.0,48.0,180.0,6.0,0.0
7198,53.0,48.0,180.0,8.0,0.0
7199,81.0,24.0,120.0,6.0,0.0
7200,69.0,0.0,480.0,0.0,0.0
7201,41.0,0.0,180.0,10.0,0.0
7202,79.0,120.0,120.0,6.0,0.0
7203,77.0,100.0,120.0,6.0,0.0
7204,72.0,192.0,480.0,5.0,0.0
7205,75.0,192.0,120.0,6.0,0.0
7206,65.0,20.0,930.0,7.0,0.0
7207,41.0,0.0,180.0,8.0,0.0
7208,74.0,0.0,960.0,0.0,0.0
7209,29.0,48.0,180.0,10.0,0.0
7210,74.0,0.0,180.0,6.0,0.0
7211,74.0,48.0,390.0,6.0,0.0
7212,70.0,48.0,180.0,5.0,0.0
7213,41.0,0.0,180.0,8.0,0.0
7214,29.0,0.0,180.0,10.0,0.0
7215,29.0,48.0,180.0,10.0,0.0
7216,70.0,0.0,480.0,0.0,0.0
7217,41.0,0.0,180.0,8.0,0.0
7218,82.0,24.0,120.0,5.0,0.0
7219,81.0,120.0,120.0,5.0,0.0
7220,41.0,0.0,180.0,8.0,0.0
7221,29.0,28.0,180.0,10.0,0.0
7222,79.0,72.0,120.0,5.0,0.0
7223,74.0,0.0,180.0,6.0,0.0
7224,77.0,192.0,120.0,5.0,0.0
7225,82.0,0.0,960.0,0.0,0.0
7226,76.0,156.0,960.0,0.0,0.0
7227,70.0,0.0,180.0,6.0,0.0
7228,29.0,240.0,180.0,10.0,0.0
7229,41.0,0.0,180.0,8.0,0.0
7230,67.0,0.0,180.0,7.0,0.0
7231,76.0,0.0,180.0,5.0,0.0
7232,41.0,192.0,180.0,8.0,0.0
7233,76.0,0.0,390.0,5.0,0.0
7234,67.0,48.0,390.0,7.0,0.0
7235,70.0,0.0,390.0,6.0,0.0
7236,29.0,0.0,180.0,10.0,0.0
7237,29.0,0.0,180.0,10.0,0.0
7238,41.0,240.0,180.0,8.0,0.0
7239,29.0,0.0,180.0,10.0,0.0
7240,41.0,0.0,180.0,8.0,0.0
7241,70.0,0.0,180.0,6.0,0.0
7242,76.0,0.0,180.0,5.0,0.0
7243,67.0,48.0,180.0,7.0,0.0
7244,69.0,36.0,150.0,6.0,0.0
7245,41.0,0.0,150.0,8.0,0.0
7246,77.0,0.0,150.0,5.0,0.0
7247,29.0,0.0,150.0,10.0,0.0
7248,65.0,120.0,180.0,7.0,0.0
7249,81.0,0.0,390.0,0.0,0.0
7250,77.0,12.0,390.0,0.0,0.0
7251,41.0,0.0,150.0,8.0,0.0
7252,29.0,42.0,150.0,10.0,0.0
7253,65.0,12.0,390.0,7.0,0.0
7254,81.0,66.0,90.0,5.0,0.0
7255,81.0,0.0,90.0,6.0,0.0
7256,77.0,186.0,90.0,5.0,0.0
7257,77.0,0.0,90.0,6.0,0.0
7258,53.0,150.0,240.0,1.0,0.0
7259,65.0,0.0,240.0,1.0,0.0
7260,77.0,12.0,390.0,0.0,0.0
7261,72.0,0.0,390.0,0.0,0.0
7262,33.0,0.0,150.0,10.0,0.0
7263,45.0,0.0,150.0,8.0,0.0
7264,72.0,0.0,150.0,6.0,0.0
7265,72.0,78.0,150.0,5.0,0.0
7266,33.0,0.0,150.0,10.0,0.0
7267,72.0,0.0,150.0,5.0,0.0
7268,65.0,12.0,390.0,7.0,0.0
7269,45.0,0.0,150.0,8.0,0.0
7270,72.0,42.0,150.0,6.0,0.0
7271,65.0,186.0,90.0,1.0,0.0
7272,53.0,0.0,90.0,1.0,0.0
7273,46.0,0.0,150.0,8.0,0.0
7274,34.0,0.0,150.0,10.0,0.0
7275,74.0,0.0,150.0,5.0,0.0
7276,65.0,0.0,300.0,1.0,0.0
7277,53.0,6.0,300.0,1.0,0.0
7278,70.0,0.0,390.0,0.0,0.0
7279,74.0,156.0,150.0,6.0,0.0
7280,74.0,12.0,390.0,0.0,0.0
7281,38.0,42.0,150.0,10.0,0.0
7282,77.0,66.0,90.0,5.0,0.0
7283,65.0,0.0,150.0,7.0,0.0
7284,50.0,0.0,150.0,8.0,0.0
7285,77.0,0.0,90.0,6.0,0.0
7286,74.0,198.0,90.0,5.0,0.0
7287,74.0,0.0,90.0,6.0,0.0
7288,60.0,72.0,300.0,1.0,0.0
7289,67.0,0.0,390.0,0.0,0.0
7290,70.0,0.0,150.0,6.0,0.0
7291,67.0,0.0,300.0,1.0,0.0
7292,40.0,156.0,150.0,10.0,0.0
7293,70.0,12.0,390.0,0.0,0.0
7294,67.0,0.0,150.0,7.0,0.0
7295,70.0,0.0,150.0,5.0,0.0
7296,52.0,0.0,150.0,8.0,0.0
7297,36.0,0.0,150.0,10.0,0.0
7298,70.0,0.0,150.0,6.0,0.0
7299,48.0,0.0,150.0,8.0,0.0
7300,70.0,0.0,150.0,5.0,0.0
7301,64.0,240.0,150.0,7.0,0.0
7302,69.0,0.0,180.0,6.0,0.0
7303,65.0,126.0,180.0,0.0,0.0
7304,69.0,0.0,180.0,0.0,0.0
7305,41.0,0.0,150.0,10.0,0.0
7306,69.0,0.0,150.0,1.0,0.0
7307,65.0,36.0,150.0,1.0,0.0
7308,53.0,0.0,150.0,8.0,0.0
7309,60.0,0.0,150.0,7.0,0.0
7310,69.0,0.0,150.0,5.0,0.0
7311,69.0,0.0,390.0,0.0,0.0
7312,69.0,0.0,390.0,6.0,0.0
7313,72.0,120.0,90.0,5.0,0.0
7314,60.0,0.0,90.0,8.0,0.0
7315,65.0,0.0,300.0,1.0,0.0
7316,77.0,0.0,390.0,6.0,0.0
7317,57.0,72.0,300.0,1.0,0.0
7318,72.0,0.0,90.0,7.0,0.0
7319,77.0,12.0,390.0,0.0,0.0
7320,48.0,0.0,90.0,10.0,0.0
7321,69.0,114.0,90.0,7.0,0.0
7322,45.0,0.0,90.0,10.0,0.0
7323,69.0,0.0,90.0,5.0,0.0
7324,57.0,0.0,90.0,8.0,0.0
7325,41.0,0.0,150.0,10.0,0.0
7326,53.0,162.0,150.0,8.0,0.0
7327,65.0,0.0,150.0,5.0,0.0
7328,65.0,0.0,150.0,7.0,0.0
7329,57.0,120.0,90.0,8.0,0.0
7330,69.0,0.0,90.0,7.0,0.0
7331,69.0,0.0,90.0,5.0,0.0
7332,77.0,0.0,390.0,0.0,0.0
7333,69.0,0.0,390.0,0.0,0.0
7334,57.0,0.0,300.0,1.0,0.0
7335,65.0,72.0,300.0,1.0,0.0
7336,77.0,12.0,390.0,6.0,0.0
7337,69.0,0.0,390.0,6.0,0.0
7338,45.0,0.0,90.0,10.0,0.0
7339,65.0,0.0,90.0,7.0,0.0
7340,53.0,114.0,90.0,8.0,0.0
7341,41.0,0.0,90.0,10.0,0.0
7342,65.0,0.0,90.0,5.0,0.0
7343,62.0,0.0,150.0,7.0,0.0
7344,62.0,0.0,150.0,5.0,0.0
7345,38.0,162.0,150.0,10.0,0.0
7346,50.0,0.0,150.0,8.0,0.0
7347,41.0,0.0,90.0,10.0,0.0
7348,65.0,0.0,90.0,7.0,0.0
7349,81.0,0.0,390.0,0.0,0.0
7350,77.0,0.0,390.0,0.0,0.0
7351,65.0,0.0,90.0,6.0,0.0
7352,65.0,0.0,150.0,1.0,0.0
7353,77.0,12.0,390.0,5.0,0.0
7354,69.0,0.0,390.0,5.0,0.0
7355,53.0,78.0,90.0,8.0,0.0
7356,53.0,42.0,150.0,1.0,0.0
7357,62.0,0.0,90.0,7.0,0.0
7358,50.0,0.0,90.0,8.0,0.0
7359,62.0,0.0,90.0,6.0,0.0
7360,38.0,186.0,90.0,10.0,0.0
7361,59.0,0.0,150.0,7.0,0.0
7362,47.0,0.0,150.0,8.0,0.0
7363,59.0,162.0,150.0,6.0,0.0
7364,57.0,0.0,150.0,1.0,0.0
7365,69.0,0.0,150.0,1.0,0.0
7366,35.0,0.0,150.0,10.0,0.0
7367,81.0,0.0,180.0,0.0,0.0
7368,77.0,6.0,180.0,0.0,0.0
7369,77.0,0.0,180.0,5.0,0.0
7370,62.0,0.0,90.0,7.0,0.0
7371,69.0,0.0,180.0,5.0,0.0
7372,53.0,0.0,150.0,1.0,0.0
7373,62.0,0.0,90.0,6.0,0.0
7374,65.0,36.0,150.0,1.0,0.0
7375,38.0,0.0,90.0,10.0,0.0
7376,50.0,78.0,90.0,8.0,0.0
7377,59.0,1194.0,90.0,6.0,0.0
7378,47.0,0.0,90.0,8.0,0.0
7379,35.0,0.0,90.0,10.0,0.0
7380,59.0,0.0,90.0,7.0,0.0
7381,60.0,0.0,1140.0,1.0,0.0
7382,48.0,0.0,1140.0,1.0,0.0
7383,36.0,0.0,1140.0,3.0,0.0
7384,69.0,0.0,1140.0,5.0,0.0
7385,77.0,288.0,1140.0,5.0,0.0
7386,48.0,0.0,1140.0,3.0,0.0
7387,60.0,0.0,1140.0,7.0,0.0
7388,48.0,0.0,1140.0,8.0,0.0
7389,36.0,0.0,1140.0,10.0,0.0
7390,81.0,0.0,1140.0,0.0,0.0
7391,77.0,0.0,1140.0,0.0,0.0
7392,60.0,0.0,1140.0,6.0,0.0
7393,60.0,60.0,1440.0,2.0,0.0
7394,64.0,60.0,60.0,2.0,0.0
7395,62.0,60.0,60.0,2.0,0.0
7396,60.0,60.0,60.0,2.0,0.0
7397,62.0,60.0,60.0,2.0,0.0
7398,64.0,60.0,60.0,2.0,0.0
7399,65.0,60.0,60.0,2.0,0.0
7400,67.0,60.0,60.0,2.0,0.0
7401,69.0,60.0,60.0,2.0,0.0
7402,70.0,60.0,60.0,2.0,0.0
7403,72.0,60.0,60.0,2.0,0.0
7404,74.0,60.0,60.0,2.0,0.0
7405,76.0,60.0,60.0,2.0,0.0
7406,77.0,60.0,60.0,2.0,0.0
7407,79.0,60.0,60.0,2.0,0.0
7408,81.0,60.0,60.0,2.0,0.0
7409,82.0,96.0,60.0,2.0,0.0
7410,84.0,120.0,90.0,2.0,0.0
7411,81.0,120.0,90.0,2.0,0.0
7412,77.0,120.0,90.0,2.0,0.0
7413,72.0,120.0,90.0,2.0,0.0
7414,81.0,120.0,90.0,2.0,0.0
7415,77.0,120.0,90.0,2.0,0.0
7416,72.0,120.0,90.0,2.0,0.0
7417,69.0,120.0,90.0,2.0,0.0
7418,77.0,120.0,90.0,2.0,0.0
7419,72.0,120.0,90.0,2.0,0.0
7420,69.0,120.0,90.0,2.0,0.0
7421,65.0,120.0,90.0,2.0,0.0
7422,72.0,120.0,90.0,2.0,0.0
7423,69.0,120.0,90.0,2.0,0.0
7424,65.0,120.0,90.0,2.0,0.0
7425,60.0,240.0,90.0,2.0,0.0
7426,58.0,72.0,390.0,2.0,0.0
7427,36.0,120.0,90.0,3.0,0.0
7428,40.0,48.0,90.0,3.0,0.0
7429,43.0,240.0,90.0,3.0,0.0
7430,48.0,72.0,390.0,3.0,0.0
7431,58.0,120.0,90.0,2.0,0.0
7432,64.0,48.0,90.0,2.0,0.0
7433,67.0,120.0,90.0,2.0,0.0
7434,70.0,120.0,90.0,2.0,0.0
7435,67.0,120.0,90.0,2.0,0.0
7436,76.0,120.0,90.0,2.0,0.0
7437,72.0,120.0,90.0,2.0,0.0
7438,79.0,120.0,90.0,2.0,0.0
7439,76.0,120.0,90.0,2.0,0.0
7440,81.0,120.0,90.0,2.0,0.0
7441,77.0,120.0,90.0,2.0,0.0
7442,82.0,120.0,90.0,2.0,0.0
7443,79.0,120.0,90.0,2.0,0.0
7444,76.0,120.0,90.0,2.0,0.0
7445,70.0,120.0,90.0,2.0,0.0
7446,79.0,120.0,90.0,2.0,0.0
7447,76.0,120.0,90.0,2.0,0.0
7448,70.0,120.0,90.0,2.0,0.0
7449,67.0,120.0,90.0,2.0,0.0
7450,76.0,120.0,90.0,2.0,0.0
7451,70.0,120.0,90.0,2.0,0.0
7452,67.0,120.0,90.0,2.0,0.0
7453,64.0,120.0,90.0,2.0,0.0
7454,70.0,120.0,90.0,2.0,0.0
7455,67.0,120.0,90.0,2.0,0.0
7456,64.0,120.0,90.0,2.0,0.0
7457,58.0,240.0,90.0,2.0,0.0
7458,56.0,72.0,390.0,2.0,0.0
7459,35.0,120.0,90.0,3.0,0.0
7460,38.0,48.0,90.0,3.0,0.0
7461,41.0,240.0,90.0,3.0,0.0
7462,47.0,72.0,390.0,3.0,0.0
7463,53.0,120.0,90.0,2.0,0.0
7464,56.0,48.0,90.0,2.0,0.0
7465,62.0,120.0,90.0,2.0,0.0
7466,65.0,120.0,90.0,2.0,0.0
7467,62.0,120.0,90.0,2.0,0.0
7468,68.0,120.0,90.0,2.0,0.0
7469,65.0,120.0,90.0,2.0,0.0
7470,74.0,120.0,90.0,2.0,0.0
7471,68.0,120.0,90.0,2.0,0.0
7472,77.0,120.0,90.0,2.0,0.0
7473,74.0,120.0,90.0,2.0,0.0
7474,80.0,120.0,90.0,2.0,0.0
7475,77.0,120.0,90.0,2.0,0.0
7476,74.0,120.0,90.0,2.0,0.0
7477,68.0,120.0,90.0,2.0,0.0
7478,77.0,120.0,90.0,2.0,0.0
7479,74.0,120.0,90.0,2.0,0.0
7480,68.0,120.0,90.0,2.0,0.0
7481,65.0,120.0,90.0,2.0,0.0
7482,74.0,120.0,90.0,2.0,0.0
7483,68.0,120.0,90.0,2.0,0.0
7484,65.0,120.0,90.0,2.0,0.0
7485,62.0,120.0,90.0,2.0,0.0
7486,68.0,120.0,90.0,2.0,0.0
7487,65.0,120.0,90.0,2.0,0.0
7488,62.0,120.0,90.0,2.0,0.0
7489,56.0,240.0,90.0,2.0,0.0
7490,55.0,72.0,390.0,2.0,0.0
7491,46.0,120.0,90.0,3.0,0.0
7492,48.0,48.0,90.0,3.0,0.0
7493,52.0,120.0,90.0,3.0,0.0
7494,55.0,120.0,90.0,3.0,0.0
7495,58.0,120.0,90.0,2.0,0.0
7496,60.0,120.0,90.0,2.0,0.0
7497,64.0,120.0,90.0,2.0,0.0
7498,65.0,120.0,90.0,2.0,0.0
7499,45.0,120.0,90.0,3.0,0.0
7500,48.0,120.0,90.0,3.0,0.0
7501,52.0,120.0,90.0,3.0,0.0
7502,53.0,120.0,90.0,3.0,0.0
7503,57.0,120.0,90.0,2.0,0.0
7504,60.0,120.0,90.0,2.0,0.0
7505,65.0,120.0,90.0,2.0,0.0
7506,67.0,120.0,90.0,2.0,0.0
7507,43.0,120.0,90.0,3.0,0.0
7508,48.0,120.0,90.0,3.0,0.0
7509,52.0,120.0,90.0,3.0,0.0
7510,55.0,120.0,90.0,3.0,0.0
7511,60.0,120.0,90.0,2.0,0.0
7512,64.0,120.0,90.0,2.0,0.0
7513,67.0,120.0,90.0,2.0,0.0
7514,69.0,120.0,90.0,2.0,0.0
7515,41.0,120.0,90.0,3.0,0.0
7516,45.0,120.0,90.0,3.0,0.0
7517,48.0,120.0,90.0,3.0,0.0
7518,53.0,120.0,90.0,3.0,0.0
7519,60.0,120.0,90.0,2.0,0.0
7520,65.0,120.0,90.0,2.0,0.0
7521,69.0,120.0,90.0,2.0,0.0
7522,52.0,0.0,570.0,3.0,0.0
7523,55.0,0.0,570.0,3.0,0.0
7524,70.0,120.0,90.0,2.0,0.0
7525,60.0,120.0,90.0,2.0,0.0
7526,64.0,120.0,90.0,2.0,0.0
7527,67.0,120.0,90.0,2.0,0.0
7528,70.0,120.0,90.0,2.0,0.0
7529,67.0,120.0,90.0,2.0,0.0
7530,50.0,24.0,180.0,3.0,0.0
7531,53.0,0.0,180.0,3.0,0.0
7532,70.0,96.0,90.0,2.0,0.0
7533,67.0,120.0,90.0,2.0,0.0
7534,70.0,120.0,90.0,2.0,0.0
7535,48.0,0.0,390.0,3.0,0.0
7536,52.0,72.0,390.0,3.0,0.0
7537,64.0,120.0,90.0,2.0,0.0
7538,67.0,48.0,90.0,2.0,0.0
7539,70.0,120.0,90.0,2.0,0.0
7540,76.0,120.0,90.0,2.0,0.0
7541,70.0,120.0,90.0,2.0,0.0
7542,76.0,120.0,90.0,2.0,0.0
7543,70.0,120.0,90.0,2.0,0.0
7544,52.0,0.0,390.0,3.0,0.0
7545,55.0,0.0,390.0,3.0,0.0
7546,48.0,72.0,390.0,3.0,0.0
7547,76.0,120.0,90.0,2.0,0.0
7548,67.0,120.0,90.0,2.0,0.0
7549,70.0,48.0,90.0,2.0,0.0
7550,76.0,120.0,90.0,2.0,0.0
7551,79.0,120.0,90.0,2.0,0.0
7552,76.0,120.0,90.0,2.0,0.0
7553,79.0,120.0,90.0,2.0,0.0
7554,76.0,120.0,90.0,2.0,0.0
7555,52.0,0.0,390.0,3.0,0.0
7556,48.0,0.0,390.0,3.0,0.0
7557,55.0,0.0,390.0,3.0,0.0
7558,58.0,72.0,390.0,3.0,0.0
7559,79.0,120.0,90.0,2.0,0.0
7560,72.0,120.0,90.0,2.0,0.0
7561,76.0,48.0,90.0,2.0,0.0
7562,79.0,120.0,90.0,2.0,0.0
7563,82.0,120.0,90.0,2.0,0.0
7564,79.0,120.0,90.0,2.0,0.0
7565,82.0,120.0,90.0,2.0,0.0
7566,79.0,184.0,90.0,2.0,0.0
7567,60.0,24.0,2310.0,3.0,0.0
7568,82.0,160.0,150.0,2.0,0.0
7569,64.0,0.0,2310.0,3.0,0.0
7570,78.0,160.0,150.0,2.0,0.0
7571,79.0,160.0,150.0,2.0,0.0
7572,82.0,160.0,150.0,2.0,0.0
7573,78.0,160.0,150.0,2.0,0.0
7574,79.0,160.0,150.0,2.0,0.0
7575,82.0,160.0,150.0,2.0,0.0
7576,78.0,160.0,150.0,2.0,0.0
7577,79.0,160.0,150.0,2.0,0.0
7578,82.0,160.0,150.0,2.0,0.0
7579,78.0,160.0,150.0,2.0,0.0
7580,79.0,88.0,150.0,2.0,0.0
7581,82.0,160.0,90.0,2.0,0.0
7582,81.0,136.0,90.0,2.0,0.0
7583,79.0,160.0,90.0,2.0,0.0
7584,77.0,160.0,90.0,2.0,0.0
7585,76.0,160.0,90.0,2.0,0.0
7586,74.0,232.0,90.0,2.0,0.0
7587,72.0,160.0,150.0,2.0,0.0
7588,71.0,160.0,150.0,2.0,0.0
7589,70.0,160.0,150.0,2.0,0.0
7590,69.0,160.0,150.0,2.0,0.0
7591,70.0,160.0,150.0,2.0,0.0
7592,67.0,240.0,150.0,2.0,0.0
7593,65.0,96.0,390.0,2.0,0.0
7594,53.0,144.0,240.0,3.0,0.0
7595,60.0,60.0,240.0,3.0,0.0
7596,67.0,60.0,60.0,2.0,0.0
7597,57.0,60.0,240.0,3.0,0.0
7598,65.0,60.0,60.0,2.0,0.0
7599,67.0,60.0,60.0,2.0,0.0
7600,65.0,0.0,60.0,2.0,0.0
7601,67.0,60.0,60.0,2.0,0.0
7602,60.0,240.0,240.0,3.0,0.0
7603,65.0,60.0,60.0,2.0,0.0
7604,64.0,60.0,60.0,2.0,0.0
7605,65.0,0.0,60.0,2.0,0.0
7606,53.0,240.0,240.0,3.0,0.0
7607,69.0,0.0,480.0,2.0,0.0
7608,60.0,240.0,240.0,3.0,0.0
7609,57.0,144.0,240.0,3.0,0.0
7610,72.0,48.0,390.0,2.0,0.0
7611,60.0,208.0,180.0,3.0,0.0
7612,53.0,80.0,240.0,3.0,0.0
7613,72.0,80.0,150.0,2.0,0.0
7614,71.0,160.0,150.0,2.0,0.0
7615,58.0,160.0,240.0,3.0,0.0
7616,70.0,0.0,150.0,2.0,0.0
7617,69.0,80.0,150.0,2.0,0.0
7618,55.0,80.0,240.0,3.0,0.0
7619,70.0,160.0,150.0,2.0,0.0
7620,58.0,0.0,240.0,3.0,0.0
7621,67.0,160.0,150.0,2.0,0.0
7622,65.0,80.0,150.0,2.0,0.0
7623,53.0,80.0,240.0,3.0,0.0
7624,67.0,160.0,150.0,2.0,0.0
7625,58.0,160.0,240.0,3.0,0.0
7626,64.0,0.0,150.0,2.0,0.0
7627,62.0,80.0,150.0,2.0,0.0
7628,55.0,80.0,240.0,3.0,0.0
7629,64.0,112.0,150.0,2.0,0.0
7630,58.0,48.0,180.0,3.0,0.0
7631,60.0,240.0,150.0,2.0,0.0
7632,67.0,96.0,390.0,2.0,0.0
7633,53.0,144.0,240.0,3.0,0.0
7634,64.0,60.0,240.0,3.0,0.0
7635,58.0,0.0,240.0,3.0,0.0
7636,69.0,60.0,60.0,2.0,0.0
7637,67.0,60.0,60.0,2.0,0.0
7638,69.0,60.0,60.0,2.0,0.0
7639,67.0,60.0,60.0,2.0,0.0
7640,64.0,0.0,240.0,3.0,0.0
7641,69.0,60.0,60.0,2.0,0.0
7642,67.0,60.0,60.0,2.0,0.0
7643,65.0,60.0,60.0,2.0,0.0
7644,67.0,240.0,60.0,2.0,0.0
7645,53.0,240.0,240.0,3.0,0.0
7646,70.0,0.0,480.0,2.0,0.0
7647,64.0,240.0,240.0,3.0,0.0
7648,58.0,144.0,240.0,3.0,0.0
7649,74.0,48.0,390.0,2.0,0.0
7650,64.0,288.0,180.0,3.0,0.0
7651,53.0,240.0,240.0,3.0,0.0
7652,72.0,120.0,600.0,2.0,0.0
7653,65.0,120.0,240.0,3.0,0.0
7654,57.0,120.0,240.0,3.0,0.0
7655,69.0,0.0,120.0,2.0,0.0
7656,72.0,120.0,120.0,2.0,0.0
7657,65.0,0.0,240.0,3.0,0.0
7658,69.0,240.0,120.0,2.0,0.0
7659,72.0,96.0,390.0,2.0,0.0
7660,53.0,144.0,240.0,3.0,0.0
7661,65.0,240.0,240.0,3.0,0.0
7662,57.0,192.0,240.0,3.0,0.0
7663,65.0,240.0,180.0,3.0,0.0
7664,65.0,144.0,180.0,2.0,0.0
7665,67.0,120.0,90.0,2.0,0.0
7666,69.0,120.0,90.0,2.0,0.0
7667,70.0,120.0,90.0,2.0,0.0
7668,72.0,120.0,90.0,2.0,0.0
7669,74.0,120.0,90.0,2.0,0.0
7670,76.0,144.0,90.0,2.0,0.0
7671,77.0,120.0,120.0,2.0,0.0
7672,79.0,120.0,120.0,2.0,0.0
7673,81.0,120.0,120.0,2.0,0.0
7674,79.0,132.0,120.0,2.0,0.0
7675,77.0,240.0,120.0,2.0,0.0
7676,76.0,300.0,120.0,2.0,0.0
7677,46.0,48.0,180.0,3.0,0.0
7678,76.0,96.0,240.0,2.0,0.0
7679,74.0,24.0,180.0,2.0,0.0
7680,48.0,96.0,90.0,3.0,0.0
7681,50.0,120.0,90.0,3.0,0.0
7682,74.0,0.0,1080.0,2.0,0.0
7683,65.0,48.0,780.0,3.0,0.0
7684,52.0,120.0,90.0,3.0,0.0
7685,53.0,120.0,90.0,3.0,0.0
7686,55.0,120.0,90.0,3.0,0.0
7687,57.0,120.0,90.0,3.0,0.0
7688,58.0,120.0,90.0,3.0,0.0
7689,57.0,72.0,90.0,3.0,0.0
7690,58.0,120.0,90.0,3.0,0.0
7691,57.0,156.0,90.0,3.0,0.0
7692,58.0,240.0,120.0,3.0,0.0
7693,72.0,0.0,120.0,2.0,0.0
7694,57.0,300.0,120.0,3.0,0.0
7695,72.0,96.0,240.0,2.0,0.0
7696,50.0,48.0,180.0,3.0,0.0
7697,70.0,24.0,180.0,2.0,0.0
7698,52.0,96.0,90.0,3.0,0.0
7699,53.0,120.0,90.0,3.0,0.0
7700,65.0,48.0,780.0,3.0,0.0
7701,55.0,120.0,90.0,3.0,0.0
7702,70.0,240.0,1080.0,2.0,0.0
7703,57.0,120.0,90.0,3.0,0.0
7704,58.0,120.0,90.0,3.0,0.0
7705,60.0,120.0,90.0,3.0,0.0
7706,62.0,120.0,90.0,3.0,0.0
7707,60.0,72.0,90.0,3.0,0.0
7708,62.0,120.0,90.0,3.0,0.0
7709,60.0,156.0,90.0,3.0,0.0
7710,62.0,0.0,120.0,3.0,0.0
7711,69.0,324.0,120.0,2.0,0.0
7712,60.0,0.0,120.0,3.0,0.0
7713,58.0,72.0,390.0,3.0,0.0
7714,67.0,120.0,90.0,2.0,0.0
7715,69.0,48.0,90.0,2.0,0.0
7716,70.0,120.0,90.0,2.0,0.0
7717,72.0,120.0,90.0,2.0,0.0
7718,74.0,120.0,90.0,2.0,0.0
7719,76.0,120.0,90.0,2.0,0.0
7720,78.0,120.0,90.0,2.0,0.0
7721,79.0,120.0,90.0,2.0,0.0
7722,74.0,120.0,90.0,2.0,0.0
7723,70.0,120.0,90.0,2.0,0.0
7724,67.0,120.0,90.0,2.0,0.0
7725,46.0,96.0,90.0,3.0,0.0
7726,79.0,24.0,180.0,2.0,0.0
7727,50.0,120.0,90.0,3.0,0.0
7728,55.0,120.0,90.0,3.0,0.0
7729,58.0,240.0,90.0,3.0,0.0
7730,51.0,72.0,390.0,3.0,0.0
7731,48.0,0.0,390.0,3.0,0.0
7732,53.0,0.0,390.0,3.0,0.0
7733,69.0,120.0,90.0,2.0,0.0
7734,70.0,48.0,90.0,2.0,0.0
7735,72.0,120.0,90.0,2.0,0.0
7736,74.0,120.0,90.0,2.0,0.0
7737,75.0,120.0,90.0,2.0,0.0
7738,77.0,120.0,90.0,2.0,0.0
7739,79.0,120.0,90.0,2.0,0.0
7740,81.0,120.0,90.0,2.0,0.0
7741,75.0,120.0,90.0,2.0,0.0
7742,72.0,120.0,90.0,2.0,0.0
7743,69.0,120.0,90.0,2.0,0.0
7744,81.0,24.0,180.0,2.0,0.0
7745,48.0,96.0,90.0,3.0,0.0
7746,51.0,120.0,90.0,3.0,0.0
7747,57.0,120.0,90.0,3.0,0.0
7748,60.0,240.0,90.0,3.0,0.0
7749,50.0,0.0,390.0,3.0,0.0
7750,53.0,72.0,390.0,3.0,0.0
7751,70.0,120.0,90.0,2.0,0.0
7752,72.0,48.0,90.0,2.0,0.0
7753,74.0,120.0,90.0,2.0,0.0
7754,76.0,120.0,90.0,2.0,0.0
7755,77.0,120.0,90.0,2.0,0.0
7756,79.0,120.0,90.0,2.0,0.0
7757,81.0,120.0,90.0,2.0,0.0
7758,82.0,120.0,90.0,2.0,0.0
7759,77.0,120.0,90.0,2.0,0.0
7760,74.0,120.0,90.0,2.0,0.0
7761,70.0,120.0,90.0,2.0,0.0
7762,82.0,24.0,180.0,2.0,0.0
7763,50.0,96.0,90.0,3.0,0.0
7764,53.0,120.0,90.0,3.0,0.0
7765,58.0,120.0,90.0,3.0,0.0
7766,62.0,264.0,90.0,3.0,0.0
7767,49.0,72.0,780.0,3.0,0.0
7768,76.0,120.0,120.0,2.0,0.0
7769,77.0,120.0,120.0,2.0,0.0
7770,76.0,120.0,120.0,2.0,0.0
7771,77.0,120.0,120.0,2.0,0.0
7772,79.0,48.0,120.0,2.0,0.0
7773,80.0,120.0,120.0,2.0,0.0
7774,79.0,120.0,120.0,2.0,0.0
7775,61.0,72.0,780.0,3.0,0.0
7776,80.0,120.0,120.0,2.0,0.0
7777,81.0,120.0,120.0,2.0,0.0
7778,82.0,120.0,120.0,2.0,0.0
7779,81.0,120.0,120.0,2.0,0.0
7780,82.0,120.0,120.0,2.0,0.0
7781,83.0,48.0,120.0,2.0,0.0
7782,84.0,120.0,120.0,2.0,0.0
7783,83.0,96.0,120.0,2.0,0.0
7784,84.0,120.0,90.0,2.0,0.0
7785,69.0,36.0,540.0,3.0,0.0
7786,60.0,48.0,780.0,3.0,0.0
7787,81.0,120.0,90.0,2.0,0.0
7788,77.0,120.0,90.0,2.0,0.0
7789,72.0,84.0,90.0,2.0,0.0
7790,84.0,120.0,90.0,2.0,0.0
7791,72.0,72.0,90.0,2.0,0.0
7792,83.0,84.0,90.0,2.0,0.0
7793,68.0,36.0,180.0,3.0,0.0
7794,72.0,120.0,90.0,2.0,0.0
7795,69.0,36.0,540.0,3.0,0.0
7796,60.0,48.0,780.0,3.0,0.0
7797,84.0,120.0,90.0,2.0,0.0
7798,81.0,120.0,90.0,2.0,0.0
7799,77.0,120.0,90.0,2.0,0.0
7800,72.0,84.0,90.0,2.0,0.0
7801,84.0,120.0,90.0,2.0,0.0
7802,72.0,72.0,90.0,2.0,0.0
7803,68.0,36.0,180.0,3.0,0.0
7804,83.0,84.0,90.0,2.0,0.0
7805,72.0,120.0,90.0,2.0,0.0
7806,84.0,120.0,90.0,2.0,0.0
7807,69.0,110.0,720.0,3.0,0.0
7808,60.0,0.0,3270.0,3.0,0.0
7809,81.0,120.0,90.0,2.0,0.0
7810,77.0,120.0,90.0,2.0,0.0
7811,72.0,120.0,90.0,2.0,0.0
7812,84.0,120.0,90.0,2.0,0.0
7813,72.0,10.0,90.0,2.0,0.0
7814,83.0,120.0,90.0,2.0,0.0
7815,68.0,100.0,240.0,3.0,0.0
7816,72.0,20.0,90.0,2.0,0.0
7817,84.0,120.0,90.0,2.0,0.0
7818,69.0,100.0,240.0,3.0,0.0
7819,72.0,20.0,90.0,2.0,0.0
7820,68.0,100.0,240.0,3.0,0.0
7821,83.0,120.0,90.0,2.0,0.0
7822,72.0,20.0,90.0,2.0,0.0
7823,84.0,120.0,90.0,2.0,0.0
7824,69.0,100.0,240.0,3.0,0.0
7825,72.0,20.0,90.0,2.0,0.0
7826,81.0,96.0,90.0,2.0,0.0
7827,66.0,24.0,180.0,3.0,0.0
7828,72.0,120.0,90.0,2.0,0.0
7829,82.0,120.0,90.0,2.0,0.0
7830,67.0,96.0,240.0,3.0,0.0
7831,72.0,24.0,90.0,2.0,0.0
7832,66.0,96.0,240.0,3.0,0.0
7833,81.0,120.0,90.0,2.0,0.0
7834,72.0,24.0,90.0,2.0,0.0
7835,67.0,96.0,240.0,3.0,0.0
7836,82.0,120.0,90.0,2.0,0.0
7837,72.0,24.0,90.0,2.0,0.0
7838,66.0,384.0,240.0,3.0,0.0
7839,81.0,120.0,90.0,2.0,0.0
7840,72.0,24.0,90.0,2.0,0.0
7841,67.0,1392.0,390.0,3.0,0.0
7842,82.0,0.0,390.0,2.0,0.0
7843,66.0,96.0,240.0,3.0,0.0
7844,60.0,96.0,960.0,3.0,0.0
7845,81.0,120.0,90.0,2.0,0.0
7846,72.0,24.0,90.0,2.0,0.0
7847,67.0,96.0,240.0,3.0,0.0
7848,82.0,120.0,90.0,2.0,0.0
7849,72.0,24.0,90.0,2.0,0.0
7850,66.0,96.0,240.0,3.0,0.0
7851,81.0,120.0,90.0,2.0,0.0
7852,72.0,24.0,90.0,2.0,0.0
7853,82.0,120.0,90.0,2.0,0.0
7854,67.0,0.0,240.0,3.0,0.0
7855,72.0,24.0,90.0,2.0,0.0
7856,79.0,120.0,90.0,2.0,0.0
7857,64.0,96.0,240.0,3.0,0.0
7858,72.0,24.0,90.0,2.0,0.0
7859,59.0,0.0,1350.0,3.0,0.0
7860,65.0,96.0,240.0,3.0,0.0
7861,80.0,120.0,90.0,2.0,0.0
7862,74.0,24.0,90.0,2.0,0.0
7863,64.0,96.0,240.0,3.0,0.0
7864,79.0,120.0,90.0,2.0,0.0
7865,74.0,24.0,90.0,2.0,0.0
7866,80.0,120.0,90.0,2.0,0.0
7867,65.0,96.0,240.0,3.0,0.0
7868,74.0,24.0,90.0,2.0,0.0
7869,64.0,384.0,240.0,3.0,0.0
7870,79.0,120.0,90.0,2.0,0.0
7871,74.0,24.0,90.0,2.0,0.0
7872,65.0,1752.0,390.0,3.0,0.0
7873,80.0,0.0,390.0,2.0,0.0
7874,77.0,120.0,90.0,2.0,0.0
7875,80.0,120.0,90.0,2.0,0.0
7876,77.0,120.0,90.0,2.0,0.0
7877,74.0,120.0,90.0,2.0,0.0
7878,77.0,120.0,90.0,2.0,0.0
7879,71.0,120.0,90.0,2.0,0.0
7880,74.0,120.0,90.0,2.0,0.0
7881,68.0,120.0,90.0,2.0,0.0
7882,71.0,120.0,90.0,2.0,0.0
7883,65.0,120.0,90.0,2.0,0.0
7884,68.0,120.0,90.0,2.0,0.0
7885,62.0,120.0,90.0,2.0,0.0
7886,65.0,120.0,90.0,2.0,0.0
7887,59.0,120.0,90.0,2.0,0.0
7888,62.0,120.0,90.0,2.0,0.0
7889,56.0,120.0,90.0,2.0,0.0
7890,59.0,120.0,90.0,2.0,0.0
7891,53.0,120.0,90.0,2.0,0.0
7892,56.0,120.0,90.0,2.0,0.0
7893,50.0,120.0,90.0,4.0,0.0
7894,53.0,120.0,90.0,4.0,0.0
7895,47.0,120.0,90.0,4.0,0.0
7896,50.0,120.0,90.0,4.0,0.0
7897,44.0,120.0,90.0,4.0,0.0
7898,47.0,120.0,90.0,4.0,0.0
7899,41.0,120.0,90.0,4.0,0.0
7900,44.0,120.0,90.0,4.0,0.0
7901,38.0,120.0,90.0,4.0,0.0
7902,41.0,120.0,90.0,4.0,0.0
7903,35.0,120.0,90.0,4.0,0.0
7904,38.0,360.0,90.0,4.0,0.0
7905,36.0,0.0,1530.0,4.0,0.0
7906,45.0,120.0,90.0,3.0,0.0
7907,53.0,120.0,90.0,3.0,0.0
7908,43.0,120.0,90.0,3.0,0.0
7909,52.0,120.0,90.0,3.0,0.0
7910,46.0,120.0,90.0,3.0,0.0
7911,55.0,120.0,90.0,3.0,0.0
7912,45.0,120.0,90.0,3.0,0.0
7913,53.0,120.0,90.0,3.0,0.0
7914,48.0,120.0,90.0,3.0,0.0
7915,57.0,120.0,90.0,3.0,0.0
7916,50.0,120.0,90.0,3.0,0.0
7917,58.0,120.0,90.0,3.0,0.0
7918,52.0,120.0,90.0,3.0,0.0
7919,55.0,120.0,90.0,3.0,0.0
7920,53.0,120.0,90.0,3.0,0.0
7921,48.0,120.0,1530.0,4.0,0.0
7922,57.0,120.0,90.0,3.0,0.0
7923,57.0,120.0,90.0,3.0,0.0
7924,65.0,120.0,90.0,3.0,0.0
7925,55.0,120.0,90.0,3.0,0.0
7926,64.0,120.0,90.0,3.0,0.0
7927,58.0,120.0,90.0,3.0,0.0
7928,67.0,120.0,90.0,3.0,0.0
7929,57.0,120.0,90.0,3.0,0.0
7930,65.0,120.0,90.0,3.0,0.0
7931,60.0,120.0,90.0,3.0,0.0
7932,69.0,120.0,90.0,3.0,0.0
7933,62.0,0.0,90.0,3.0,0.0
7934,70.0,120.0,90.0,3.0,0.0
7935,64.0,120.0,90.0,3.0,0.0
7936,67.0,120.0,90.0,3.0,0.0
7937,65.0,120.0,90.0,2.0,0.0
7938,60.0,0.0,1530.0,4.0,0.0
7939,69.0,120.0,90.0,2.0,0.0
7940,69.0,120.0,90.0,2.0,0.0
7941,77.0,120.0,90.0,2.0,0.0
7942,67.0,120.0,90.0,2.0,0.0
7943,76.0,120.0,90.0,2.0,0.0
7944,70.0,120.0,90.0,2.0,0.0
7945,79.0,120.0,90.0,2.0,0.0
7946,69.0,120.0,90.0,2.0,0.0
7947,77.0,120.0,90.0,2.0,0.0
7948,72.0,120.0,90.0,2.0,0.0
7949,81.0,120.0,90.0,2.0,0.0
7950,74.0,120.0,90.0,2.0,0.0
7951,82.0,120.0,90.0,2.0,0.0
7952,76.0,120.0,90.0,2.0,0.0
7953,79.0,120.0,90.0,2.0,0.0
7954,81.0,120.0,90.0,2.0,0.0
7955,84.0,120.0,90.0,2.0,0.0
7956,76.0,120.0,90.0,2.0,0.0
7957,79.0,120.0,90.0,2.0,0.0
7958,77.0,120.0,90.0,2.0,0.0
7959,81.0,120.0,90.0,2.0,0.0
7960,73.0,120.0,90.0,2.0,0.0
7961,76.0,120.0,90.0,2.0,0.0
7962,74.0,120.0,90.0,2.0,0.0
7963,77.0,120.0,90.0,2.0,0.0
7964,69.0,120.0,90.0,2.0,0.0
7965,72.0,120.0,90.0,2.0,0.0
7966,70.0,120.0,90.0,2.0,0.0
7967,74.0,120.0,90.0,2.0,0.0
7968,72.0,120.0,90.0,2.0,0.0
7969,70.0,120.0,90.0,2.0,0.0
7970,69.0,120.0,90.0,2.0,0.0
7971,57.0,0.0,90.0,3.0,0.0
7972,60.0,120.0,90.0,3.0,0.0
7973,72.0,0.0,90.0,2.0,0.0
7974,64.0,0.0,90.0,2.0,0.0
7975,52.0,120.0,90.0,3.0,0.0
7976,55.0,120.0,90.0,3.0,0.0
7977,67.0,0.0,90.0,2.0,0.0
7978,65.0,120.0,90.0,2.0,0.0
7979,53.0,0.0,90.0,3.0,0.0
7980,69.0,0.0,90.0,2.0,0.0
7981,57.0,120.0,90.0,3.0,0.0
7982,61.0,0.0,90.0,2.0,0.0
7983,49.0,120.0,90.0,3.0,0.0
7984,64.0,0.0,90.0,2.0,0.0
7985,52.0,120.0,90.0,3.0,0.0
7986,50.0,0.0,90.0,3.0,0.0
7987,62.0,120.0,90.0,2.0,0.0
7988,53.0,120.0,90.0,3.0,0.0
7989,65.0,0.0,90.0,2.0,0.0
7990,45.0,0.0,90.0,3.0,0.0
7991,57.0,120.0,90.0,2.0,0.0
7992,48.0,120.0,90.0,3.0,0.0
7993,60.0,0.0,90.0,2.0,0.0
7994,46.0,0.0,90.0,3.0,0.0
7995,58.0,120.0,90.0,2.0,0.0
7996,50.0,0.0,90.0,3.0,0.0
7997,62.0,120.0,90.0,2.0,0.0
7998,60.0,0.0,90.0,2.0,0.0
7999,48.0,120.0,90.0,3.0,0.0
8000,46.0,168.0,90.0,3.0,0.0
8001,58.0,0.0,90.0,2.0,0.0
8002,45.0,16.0,390.0,3.0,0.0
8003,57.0,84.0,150.0,2.0,0.0
8004,60.0,76.0,60.0,2.0,0.0
8005,65.0,80.0,60.0,2.0,0.0
8006,69.0,80.0,90.0,2.0,0.0
8007,72.0,192.0,90.0,2.0,0.0
8008,77.0,204.0,180.0,2.0,0.0
8009,33.0,36.0,150.0,3.0,0.0
8010,45.0,0.0,150.0,3.0,0.0
8011,57.0,192.0,180.0,2.0,0.0
8012,34.0,88.0,300.0,3.0,0.0
8013,58.0,84.0,150.0,2.0,0.0
8014,46.0,0.0,300.0,3.0,0.0
8015,62.0,76.0,60.0,2.0,0.0
8016,65.0,8.0,60.0,2.0,0.0
8017,70.0,80.0,90.0,2.0,0.0
8018,74.0,192.0,90.0,2.0,0.0
8019,77.0,204.0,180.0,2.0,0.0
8020,35.0,0.0,150.0,3.0,0.0
8021,59.0,168.0,180.0,2.0,0.0
8022,47.0,36.0,150.0,3.0,0.0
8023,48.0,48.0,780.0,3.0,0.0
8024,36.0,0.0,780.0,3.0,0.0
8025,60.0,96.0,120.0,2.0,0.0
8026,65.0,120.0,90.0,2.0,0.0
8027,69.0,120.0,90.0,2.0,0.0
8028,65.0,120.0,90.0,2.0,0.0
8029,72.0,120.0,90.0,2.0,0.0
8030,69.0,72.0,90.0,2.0,0.0
8031,77.0,120.0,90.0,2.0,0.0
8032,72.0,120.0,90.0,2.0,0.0
8033,81.0,120.0,90.0,2.0,0.0
8034,77.0,120.0,90.0,2.0,0.0
8035,84.0,120.0,90.0,2.0,0.0
8036,81.0,120.0,90.0,2.0,0.0
8037,76.0,120.0,90.0,2.0,0.0
8038,77.0,120.0,90.0,2.0,0.0
8039,81.0,120.0,90.0,2.0,0.0
8040,77.0,120.0,90.0,2.0,0.0
8041,71.0,120.0,90.0,2.0,0.0
8042,72.0,120.0,90.0,2.0,0.0
8043,77.0,120.0,90.0,2.0,0.0
8044,72.0,120.0,90.0,2.0,0.0
8045,68.0,120.0,90.0,2.0,0.0
8046,69.0,120.0,90.0,2.0,0.0
8047,72.0,120.0,90.0,2.0,0.0
8048,69.0,72.0,90.0,2.0,0.0
8049,66.0,60.0,60.0,2.0,0.0
8050,67.0,60.0,60.0,2.0,0.0
8051,69.0,60.0,60.0,2.0,0.0
8052,67.0,60.0,60.0,2.0,0.0
8053,69.0,60.0,60.0,2.0,0.0
8054,67.0,60.0,60.0,2.0,0.0
8055,69.0,60.0,60.0,2.0,0.0
8056,67.0,60.0,60.0,2.0,0.0
8057,69.0,60.0,60.0,2.0,0.0
8058,67.0,60.0,60.0,2.0,0.0
8059,69.0,60.0,60.0,2.0,0.0
8060,67.0,60.0,60.0,2.0,0.0
8061,69.0,60.0,60.0,2.0,0.0
8062,53.0,36.0,180.0,4.0,0.0
8063,47.0,0.0,180.0,4.0,0.0
8064,67.0,60.0,60.0,2.0,0.0
8065,69.0,24.0,60.0,2.0,0.0
8066,67.0,72.0,60.0,2.0,0.0
8067,69.0,60.0,60.0,2.0,0.0
8068,48.0,48.0,180.0,4.0,0.0
8069,52.0,0.0,180.0,4.0,0.0
8070,67.0,60.0,60.0,2.0,0.0
8071,69.0,12.0,60.0,2.0,0.0
8072,67.0,60.0,60.0,2.0,0.0
8073,53.0,0.0,180.0,4.0,0.0
8074,47.0,48.0,180.0,4.0,0.0
8075,69.0,60.0,60.0,2.0,0.0
8076,67.0,60.0,60.0,2.0,0.0
8077,69.0,12.0,60.0,2.0,0.0
8078,67.0,60.0,60.0,2.0,0.0
8079,69.0,60.0,60.0,2.0,0.0
8080,48.0,48.0,180.0,4.0,0.0
8081,52.0,0.0,180.0,4.0,0.0
8082,67.0,60.0,60.0,2.0,0.0
8083,69.0,12.0,60.0,2.0,0.0
8084,67.0,60.0,60.0,2.0,0.0
8085,53.0,48.0,180.0,4.0,0.0
8086,47.0,0.0,180.0,4.0,0.0
8087,69.0,60.0,60.0,2.0,0.0
8088,67.0,60.0,60.0,2.0,0.0
8089,69.0,12.0,60.0,2.0,0.0
8090,67.0,60.0,60.0,2.0,0.0
8091,52.0,12.0,780.0,4.0,0.0
8092,48.0,0.0,780.0,4.0,0.0
8093,69.0,60.0,60.0,2.0,0.0
8094,67.0,60.0,60.0,2.0,0.0
8095,66.0,60.0,60.0,2.0,0.0
8096,67.0,60.0,60.0,2.0,0.0
8097,68.0,60.0,60.0,2.0,0.0
8098,69.0,60.0,60.0,2.0,0.0
8099,70.0,60.0,60.0,2.0,0.0
8100,71.0,60.0,60.0,2.0,0.0
8101,72.0,60.0,60.0,2.0,0.0
8102,73.0,60.0,60.0,2.0,0.0
8103,74.0,60.0,60.0,2.0,0.0
8104,75.0,48.0,60.0,2.0,0.0
8105,76.0,60.0,60.0,2.0,0.0
8106,77.0,120.0,60.0,2.0,0.0
8107,78.0,60.0,120.0,2.0,0.0
8108,81.0,60.0,60.0,2.0,0.0
8109,79.0,60.0,60.0,2.0,0.0
8110,81.0,60.0,60.0,2.0,0.0
8111,79.0,60.0,60.0,2.0,0.0
8112,81.0,60.0,60.0,2.0,0.0
8113,79.0,60.0,60.0,2.0,0.0
8114,81.0,60.0,60.0,2.0,0.0
8115,79.0,60.0,60.0,2.0,0.0
8116,81.0,60.0,60.0,2.0,0.0
8117,79.0,60.0,60.0,2.0,0.0
8118,81.0,60.0,60.0,2.0,0.0
8119,79.0,60.0,60.0,2.0,0.0
8120,81.0,60.0,60.0,2.0,0.0
8121,79.0,60.0,60.0,2.0,0.0
8122,81.0,60.0,60.0,2.0,0.0
8123,79.0,60.0,60.0,2.0,0.0
8124,64.0,0.0,960.0,3.0,0.0
8125,70.0,0.0,960.0,3.0,0.0
8126,60.0,0.0,960.0,3.0,0.0
8127,81.0,60.0,60.0,2.0,0.0
8128,79.0,60.0,60.0,2.0,0.0
8129,81.0,60.0,60.0,2.0,0.0
8130,79.0,60.0,60.0,2.0,0.0
8131,81.0,60.0,60.0,2.0,0.0
8132,79.0,60.0,60.0,2.0,0.0
8133,81.0,60.0,60.0,2.0,0.0
8134,79.0,60.0,60.0,2.0,0.0
8135,81.0,60.0,60.0,2.0,0.0
8136,79.0,60.0,60.0,2.0,0.0
8137,81.0,60.0,60.0,2.0,0.0
8138,79.0,120.0,60.0,2.0,0.0
8139,77.0,120.0,120.0,2.0,0.0
8140,79.0,96.0,120.0,2.0,0.0
8141,57.0,0.0,390.0,6.0,0.0
8142,65.0,0.0,390.0,6.0,0.0
8143,60.0,72.0,390.0,6.0,0.0
8144,53.0,0.0,390.0,1.0,0.0
8145,65.0,0.0,390.0,3.0,0.0
8146,69.0,0.0,390.0,3.0,0.0
8147,29.0,0.0,390.0,10.0,0.0
8148,41.0,0.0,390.0,8.0,0.0
8149,65.0,120.0,90.0,5.0,0.0
8150,77.0,0.0,390.0,2.0,0.0
8151,65.0,0.0,390.0,1.0,0.0
8152,53.0,0.0,390.0,7.0,0.0
8153,65.0,0.0,390.0,0.0,0.0
8154,60.0,120.0,90.0,5.0,0.0
8155,62.0,48.0,90.0,5.0,0.0
8156,64.0,120.0,90.0,5.0,0.0
8157,65.0,120.0,90.0,5.0,0.0
8158,67.0,120.0,90.0,5.0,0.0
8159,69.0,120.0,90.0,5.0,0.0
8160,70.0,120.0,90.0,5.0,0.0
8161,72.0,120.0,90.0,5.0,0.0
8162,74.0,120.0,90.0,5.0,0.0
8163,76.0,120.0,90.0,5.0,0.0
8164,77.0,120.0,90.0,5.0,0.0
8165,76.0,48.0,90.0,5.0,0.0
8166,36.0,0.0,150.0,10.0,0.0
8167,67.0,0.0,150.0,6.0,0.0
8168,76.0,0.0,150.0,0.0,0.0
8169,70.0,0.0,150.0,0.0,0.0
8170,58.0,0.0,150.0,7.0,0.0
8171,60.0,0.0,150.0,1.0,0.0
8172,67.0,72.0,150.0,1.0,0.0
8173,48.0,0.0,150.0,8.0,0.0
8174,74.0,120.0,90.0,5.0,0.0
8175,64.0,0.0,150.0,6.0,0.0
8176,76.0,0.0,150.0,0.0,0.0
8177,70.0,0.0,150.0,0.0,0.0
8178,48.0,0.0,150.0,8.0,0.0
8179,36.0,0.0,150.0,10.0,0.0
8180,72.0,48.0,90.0,5.0,0.0
8181,60.0,0.0,150.0,1.0,0.0
8182,55.0,0.0,150.0,7.0,0.0
8183,67.0,72.0,150.0,1.0,0.0
8184,70.0,168.0,90.0,5.0,0.0
8185,53.0,0.0,150.0,1.0,0.0
8186,65.0,0.0,150.0,6.0,0.0
8187,69.0,240.0,150.0,0.0,0.0
8188,65.0,0.0,150.0,1.0,0.0
8189,69.0,0.0,150.0,5.0,0.0
8190,77.0,0.0,150.0,0.0,0.0
8191,53.0,0.0,150.0,7.0,0.0
8192,38.0,0.0,150.0,10.0,0.0
8193,50.0,0.0,150.0,8.0,0.0
8194,53.0,0.0,150.0,1.0,0.0
8195,38.0,0.0,150.0,10.0,0.0
8196,53.0,0.0,150.0,7.0,0.0
8197,69.0,0.0,150.0,5.0,0.0
8198,77.0,0.0,150.0,0.0,0.0
8199,69.0,0.0,150.0,0.0,0.0
8200,65.0,0.0,150.0,6.0,0.0
8201,65.0,240.0,150.0,1.0,0.0
8202,50.0,0.0,150.0,8.0,0.0
8203,65.0,0.0,150.0,1.0,0.0
8204,74.0,0.0,150.0,0.0,0.0
8205,70.0,0.0,150.0,0.0,0.0
8206,58.0,0.0,150.0,7.0,0.0
8207,74.0,0.0,150.0,5.0,0.0
8208,46.0,0.0,150.0,8.0,0.0
8209,34.0,0.0,150.0,10.0,0.0
8210,65.0,0.0,150.0,6.0,0.0
8211,53.0,240.0,150.0,1.0,0.0
8212,58.0,0.0,150.0,7.0,0.0
8213,46.0,0.0,150.0,8.0,0.0
8214,70.0,240.0,150.0,0.0,0.0
8215,74.0,0.0,150.0,0.0,0.0
8216,74.0,0.0,150.0,5.0,0.0
8217,65.0,0.0,150.0,6.0,0.0
8218,34.0,0.0,150.0,10.0,0.0
8219,53.0,0.0,150.0,1.0,0.0
8220,65.0,0.0,150.0,1.0,0.0
8221,72.0,0.0,150.0,0.0,0.0
8222,69.0,0.0,150.0,0.0,0.0
8223,48.0,240.0,150.0,8.0,0.0
8224,53.0,0.0,150.0,1.0,0.0
8225,57.0,0.0,150.0,7.0,0.0
8226,36.0,0.0,150.0,10.0,0.0
8227,72.0,0.0,150.0,5.0,0.0
8228,65.0,0.0,150.0,6.0,0.0
8229,65.0,0.0,150.0,1.0,0.0
8230,57.0,0.0,150.0,7.0,0.0
8231,65.0,0.0,150.0,6.0,0.0
8232,36.0,0.0,150.0,10.0,0.0
8233,72.0,0.0,150.0,5.0,0.0
8234,53.0,0.0,150.0,1.0,0.0
8235,65.0,0.0,150.0,1.0,0.0
8236,69.0,0.0,150.0,0.0,0.0
8237,48.0,0.0,150.0,8.0,0.0
8238,72.0,240.0,150.0,0.0,0.0
8239,55.0,240.0,150.0,7.0,0.0
8240,64.0,0.0,150.0,5.0,0.0
8241,58.0,0.0,150.0,6.0,0.0
8242,67.0,0.0,150.0,1.0,0.0
8243,70.0,0.0,150.0,0.0,0.0
8244,60.0,0.0,150.0,1.0,0.0
8245,36.0,0.0,150.0,10.0,0.0
8246,48.0,0.0,150.0,8.0,0.0
8247,76.0,0.0,150.0,0.0,0.0
8248,58.0,0.0,150.0,6.0,0.0
8249,70.0,192.0,150.0,0.0,0.0
8250,36.0,0.0,150.0,10.0,0.0
8251,48.0,0.0,150.0,8.0,0.0
8252,64.0,0.0,150.0,5.0,0.0
8253,60.0,0.0,150.0,1.0,0.0
8254,67.0,0.0,150.0,1.0,0.0
8255,55.0,0.0,150.0,7.0,0.0
8256,76.0,0.0,150.0,0.0,0.0
8257,69.0,0.0,390.0,0.0,0.0
8258,65.0,0.0,390.0,1.0,0.0
8259,29.0,0.0,390.0,10.0,0.0
8260,77.0,0.0,390.0,0.0,0.0
8261,53.0,72.0,390.0,7.0,0.0
8262,60.0,0.0,390.0,1.0,0.0
8263,65.0,120.0,90.0,5.0,0.0
8264,41.0,0.0,390.0,8.0,0.0
8265,57.0,0.0,390.0,6.0,0.0
8266,60.0,120.0,90.0,5.0,0.0
8267,62.0,48.0,90.0,5.0,0.0
8268,64.0,120.0,90.0,5.0,0.0
8269,65.0,120.0,90.0,5.0,0.0
8270,67.0,120.0,90.0,5.0,0.0
8271,69.0,120.0,90.0,5.0,0.0
8272,70.0,120.0,90.0,5.0,0.0
8273,72.0,120.0,90.0,5.0,0.0
8274,74.0,120.0,90.0,5.0,0.0
8275,76.0,120.0,90.0,5.0,0.0
8276,77.0,120.0,90.0,5.0,0.0
8277,76.0,0.0,150.0,0.0,0.0
8278,36.0,0.0,150.0,10.0,0.0
8279,70.0,0.0,150.0,0.0,0.0
8280,58.0,0.0,150.0,7.0,0.0
8281,76.0,48.0,90.0,5.0,0.0
8282,48.0,0.0,150.0,8.0,0.0
8283,67.0,72.0,150.0,1.0,0.0
8284,67.0,0.0,150.0,6.0,0.0
8285,60.0,0.0,150.0,1.0,0.0
8286,74.0,120.0,90.0,5.0,0.0
8287,72.0,48.0,90.0,5.0,0.0
8288,67.0,0.0,150.0,1.0,0.0
8289,55.0,0.0,150.0,7.0,0.0
8290,70.0,0.0,150.0,0.0,0.0
8291,76.0,0.0,150.0,0.0,0.0
8292,36.0,72.0,150.0,10.0,0.0
8293,64.0,0.0,150.0,6.0,0.0
8294,60.0,0.0,150.0,1.0,0.0
8295,48.0,0.0,150.0,8.0,0.0
8296,70.0,168.0,90.0,5.0,0.0
8297,53.0,0.0,150.0,7.0,0.0
8298,65.0,0.0,150.0,6.0,0.0
8299,69.0,0.0,150.0,0.0,0.0
8300,65.0,0.0,150.0,1.0,0.0
8301,53.0,0.0,150.0,1.0,0.0
8302,69.0,240.0,150.0,5.0,0.0
8303,38.0,0.0,150.0,10.0,0.0
8304,77.0,0.0,150.0,0.0,0.0
8305,50.0,0.0,150.0,8.0,0.0
8306,50.0,0.0,150.0,8.0,0.0
8307,69.0,0.0,150.0,0.0,0.0
8308,53.0,240.0,150.0,7.0,0.0
8309,69.0,0.0,150.0,5.0,0.0
8310,38.0,0.0,150.0,10.0,0.0
8311,65.0,0.0,150.0,6.0,0.0
8312,77.0,0.0,150.0,0.0,0.0
8313,65.0,0.0,150.0,1.0,0.0
8314,53.0,0.0,150.0,1.0,0.0
8315,34.0,0.0,150.0,10.0,0.0
8316,58.0,0.0,150.0,7.0,0.0
8317,70.0,0.0,150.0,0.0,0.0
8318,74.0,240.0,150.0,5.0,0.0
8319,53.0,0.0,150.0,1.0,0.0
8320,65.0,0.0,150.0,6.0,0.0
8321,74.0,0.0,150.0,0.0,0.0
8322,46.0,0.0,150.0,8.0,0.0
8323,65.0,0.0,150.0,1.0,0.0
8324,65.0,0.0,150.0,1.0,0.0
8325,53.0,0.0,150.0,1.0,0.0
8326,58.0,0.0,150.0,7.0,0.0
8327,70.0,0.0,150.0,0.0,0.0
8328,74.0,0.0,150.0,0.0,0.0
8329,65.0,0.0,150.0,6.0,0.0
8330,34.0,0.0,150.0,10.0,0.0
8331,46.0,240.0,150.0,8.0,0.0
8332,74.0,0.0,150.0,5.0,0.0
8333,36.0,0.0,150.0,10.0,0.0
8334,65.0,240.0,150.0,1.0,0.0
8335,72.0,0.0,150.0,0.0,0.0
8336,69.0,0.0,150.0,0.0,0.0
8337,57.0,0.0,150.0,7.0,0.0
8338,65.0,0.0,150.0,6.0,0.0
8339,48.0,0.0,150.0,8.0,0.0
8340,72.0,0.0,150.0,5.0,0.0
8341,53.0,0.0,150.0,1.0,0.0
8342,72.0,0.0,150.0,0.0,0.0
8343,36.0,0.0,150.0,10.0,0.0
8344,65.0,240.0,150.0,6.0,0.0
8345,69.0,0.0,150.0,0.0,0.0
8346,48.0,0.0,150.0,8.0,0.0
8347,72.0,0.0,150.0,5.0,0.0
8348,57.0,0.0,150.0,7.0,0.0
8349,65.0,0.0,150.0,1.0,0.0
8350,53.0,0.0,150.0,1.0,0.0
8351,58.0,0.0,150.0,6.0,0.0
8352,67.0,0.0,150.0,1.0,0.0
8353,48.0,0.0,150.0,8.0,0.0
8354,70.0,0.0,150.0,0.0,0.0
8355,60.0,0.0,150.0,1.0,0.0
8356,64.0,0.0,150.0,5.0,0.0
8357,76.0,0.0,150.0,0.0,0.0
8358,36.0,240.0,150.0,10.0,0.0
8359,55.0,0.0,150.0,7.0,0.0
8360,67.0,0.0,150.0,1.0,0.0
8361,48.0,0.0,150.0,8.0,0.0
8362,58.0,0.0,150.0,6.0,0.0
8363,36.0,0.0,150.0,10.0,0.0
8364,64.0,480.0,150.0,5.0,0.0
8365,76.0,0.0,150.0,0.0,0.0
8366,55.0,0.0,150.0,7.0,0.0
8367,70.0,0.0,150.0,0.0,0.0
8368,60.0,0.0,150.0,1.0,0.0
8369,41.0,0.0,390.0,8.0,0.0
8370,60.0,0.0,390.0,1.0,0.0
8371,65.0,0.0,390.0,1.0,0.0
8372,69.0,0.0,390.0,0.0,0.0
8373,29.0,0.0,390.0,10.0,0.0
8374,53.0,0.0,390.0,7.0,0.0
8375,65.0,0.0,390.0,5.0,0.0
8376,57.0,216.0,390.0,6.0,0.0
8377,77.0,0.0,390.0,0.0,0.0
8378,72.0,78.0,120.0,5.0,0.0
8379,72.0,0.0,120.0,6.0,0.0
8380,69.0,0.0,90.0,5.0,0.0
8381,69.0,120.0,90.0,6.0,0.0
8382,72.0,120.0,90.0,6.0,0.0
8383,72.0,0.0,90.0,5.0,0.0
8384,69.0,426.0,90.0,5.0,0.0
8385,69.0,0.0,90.0,6.0,0.0
8386,65.0,0.0,390.0,6.0,0.0
8387,65.0,216.0,390.0,5.0,0.0
8388,45.0,0.0,120.0,10.0,0.0
8389,69.0,30.0,300.0,1.0,0.0
8390,81.0,78.0,120.0,0.0,0.0
8391,69.0,0.0,120.0,7.0,0.0
8392,69.0,0.0,120.0,6.0,0.0
8393,57.0,0.0,120.0,8.0,0.0
8394,69.0,0.0,120.0,5.0,0.0
8395,53.0,0.0,90.0,8.0,0.0
8396,41.0,90.0,90.0,10.0,0.0
8397,65.0,0.0,90.0,6.0,0.0
8398,65.0,0.0,90.0,5.0,0.0
8399,77.0,0.0,90.0,0.0,0.0
8400,65.0,0.0,90.0,7.0,0.0
8401,69.0,0.0,90.0,5.0,0.0
8402,69.0,0.0,90.0,7.0,0.0
8403,45.0,0.0,90.0,10.0,0.0
8404,57.0,0.0,90.0,8.0,0.0
8405,81.0,120.0,90.0,0.0,0.0
8406,69.0,0.0,90.0,6.0,0.0
8407,65.0,408.0,90.0,1.0,0.0
8408,65.0,0.0,90.0,7.0,0.0
8409,65.0,0.0,90.0,6.0,0.0
8410,53.0,0.0,90.0,8.0,0.0
8411,41.0,18.0,90.0,10.0,0.0
8412,77.0,0.0,90.0,0.0,0.0
8413,65.0,0.0,90.0,5.0,0.0
8414,60.0,0.0,390.0,1.0,0.0
8415,48.0,0.0,390.0,8.0,0.0
8416,60.0,216.0,390.0,5.0,0.0
8417,60.0,0.0,390.0,7.0,0.0
8418,60.0,0.0,390.0,6.0,0.0
8419,36.0,0.0,390.0,10.0,0.0
8420,72.0,0.0,390.0,0.0,0.0
8421,65.0,0.0,120.0,5.0,0.0
8422,65.0,0.0,120.0,7.0,0.0
8423,65.0,30.0,300.0,1.0,0.0
8424,77.0,78.0,120.0,0.0,0.0
8425,65.0,0.0,120.0,6.0,0.0
8426,41.0,0.0,120.0,10.0,0.0
8427,53.0,0.0,120.0,8.0,0.0
8428,60.0,0.0,90.0,5.0,0.0
8429,48.0,0.0,90.0,8.0,0.0
8430,36.0,0.0,90.0,10.0,0.0
8431,60.0,0.0,90.0,6.0,0.0
8432,60.0,0.0,90.0,7.0,0.0
8433,72.0,90.0,90.0,0.0,0.0
8434,65.0,0.0,90.0,6.0,0.0
8435,53.0,0.0,90.0,8.0,0.0
8436,65.0,0.0,90.0,7.0,0.0
8437,65.0,0.0,90.0,5.0,0.0
8438,77.0,120.0,90.0,0.0,0.0
8439,41.0,0.0,90.0,10.0,0.0
8440,48.0,0.0,90.0,8.0,0.0
8441,60.0,408.0,90.0,1.0,0.0
8442,60.0,18.0,90.0,5.0,0.0
8443,60.0,0.0,90.0,7.0,0.0
8444,72.0,0.0,90.0,0.0,0.0
8445,60.0,0.0,90.0,6.0,0.0
8446,36.0,0.0,90.0,10.0,0.0
8447,57.0,0.0,390.0,5.0,0.0
8448,57.0,0.0,390.0,6.0,0.0
8449,57.0,216.0,390.0,7.0,0.0
8450,33.0,0.0,390.0,10.0,0.0
8451,45.0,0.0,390.0,8.0,0.0
8452,69.0,0.0,390.0,0.0,0.0
8453,57.0,0.0,390.0,1.0,0.0
8454,36.0,0.0,120.0,10.0,0.0
8455,48.0,78.0,120.0,8.0,0.0
8456,60.0,0.0,120.0,5.0,0.0
8457,60.0,30.0,300.0,1.0,0.0
8458,60.0,0.0,120.0,6.0,0.0
8459,72.0,0.0,120.0,0.0,0.0
8460,60.0,0.0,120.0,7.0,0.0
8461,57.0,0.0,90.0,5.0,0.0
8462,69.0,0.0,90.0,0.0,0.0
8463,33.0,0.0,90.0,10.0,0.0
8464,57.0,90.0,90.0,6.0,0.0
8465,45.0,0.0,90.0,8.0,0.0
8466,57.0,0.0,90.0,7.0,0.0
8467,60.0,120.0,90.0,5.0,0.0
8468,72.0,0.0,90.0,0.0,0.0
8469,60.0,0.0,90.0,7.0,0.0
8470,48.0,0.0,90.0,8.0,0.0
8471,36.0,0.0,90.0,10.0,0.0
8472,60.0,0.0,90.0,6.0,0.0
8473,45.0,0.0,90.0,8.0,0.0
8474,57.0,708.0,90.0,1.0,0.0
8475,57.0,0.0,90.0,7.0,0.0
8476,57.0,0.0,90.0,6.0,0.0
8477,33.0,0.0,90.0,10.0,0.0
8478,69.0,18.0,90.0,0.0,0.0
8479,57.0,0.0,90.0,5.0,0.0
8480,53.0,0.0,690.0,6.0,0.0
8481,53.0,0.0,690.0,1.0,0.0
8482,53.0,0.0,690.0,7.0,0.0
8483,65.0,114.0,690.0,0.0,0.0
8484,29.0,0.0,690.0,10.0,0.0
8485,41.0,0.0,690.0,8.0,0.0
8486,53.0,0.0,690.0,5.0,0.0
8487,45.0,0.0,90.0,8.0,0.0
8488,69.0,0.0,90.0,0.0,0.0
8489,57.0,0.0,90.0,5.0,0.0
8490,33.0,0.0,90.0,10.0,0.0
8491,57.0,0.0,90.0,1.0,0.0
8492,57.0,120.0,90.0,6.0,0.0
8493,57.0,0.0,90.0,7.0,0.0
8494,36.0,354.0,90.0,10.0,0.0
8495,60.0,0.0,90.0,5.0,0.0
8496,60.0,0.0,90.0,7.0,0.0
8497,60.0,0.0,90.0,1.0,0.0
8498,48.0,0.0,90.0,8.0,0.0
8499,72.0,0.0,90.0,0.0,0.0
8500,60.0,0.0,90.0,6.0,0.0
8501,65.0,0.0,300.0,6.0,0.0
8502,65.0,0.0,300.0,7.0,0.0
8503,65.0,480.0,300.0,5.0,0.0
8504,65.0,0.0,300.0,1.0,0.0
8505,53.0,0.0,300.0,8.0,0.0
8506,77.0,0.0,300.0,0.0,0.0
8507,41.0,0.0,300.0,10.0,0.0
8508,53.0,0.0,300.0,8.0,0.0
8509,81.0,0.0,300.0,0.0,0.0
8510,41.0,0.0,300.0,10.0,0.0
8511,72.0,0.0,300.0,0.0,0.0
8512,65.0,0.0,300.0,7.0,0.0
8513,65.0,0.0,300.0,5.0,0.0
8514,53.0,0.0,300.0,1.0,0.0
8515,72.0,0.0,300.0,5.0,0.0
8516,69.0,0.0,300.0,5.0,0.0
8517,65.0,0.0,300.0,1.0,0.0
8518,72.0,0.0,300.0,6.0,0.0
8519,69.0,552.0,300.0,6.0,0.0
8520,65.0,0.0,300.0,6.0,0.0
8521,29.0,0.0,390.0,10.0,0.0
8522,53.0,1920.0,390.0,1.0,0.0
8523,65.0,0.0,390.0,1.0,0.0
8524,60.0,0.0,390.0,5.0,0.0
8525,77.0,0.0,390.0,5.0,0.0
8526,69.0,0.0,390.0,5.0,0.0
8527,69.0,0.0,390.0,0.0,0.0
8528,60.0,0.0,390.0,6.0,0.0
8529,69.0,0.0,390.0,6.0,0.0
8530,53.0,0.0,390.0,7.0,0.0
8531,77.0,0.0,390.0,6.0,0.0
8532,41.0,0.0,390.0,8.0,0.0
8533,77.0,0.0,390.0,0.0,0.0
8534,29.0,0.0,390.0,10.0,0.0
