,note,step,duration,channel,velocity
0,49.0,20.0,330.0,1.0,0.0
1,37.0,117.0,120.0,1.0,0.0
2,52.0,1.0,330.0,0.0,0.0
3,56.0,47.0,1020.0,0.0,0.0
4,40.0,110.0,120.0,1.0,0.0
5,44.0,110.0,120.0,1.0,0.0
6,54.0,15.0,360.0,0.0,0.0
7,36.0,125.0,120.0,1.0,0.0
8,51.0,4.0,330.0,1.0,0.0
9,39.0,106.0,120.0,1.0,0.0
10,44.0,115.0,120.0,1.0,0.0
11,35.0,120.0,120.0,1.0,0.0
12,50.0,9.0,360.0,1.0,0.0
13,53.0,4.0,480.0,0.0,0.0
14,38.0,68.0,120.0,1.0,0.0
15,44.0,105.0,120.0,1.0,0.0
16,34.0,119.0,120.0,1.0,0.0
17,61.0,4.0,240.0,0.0,0.0
18,49.0,11.0,240.0,1.0,0.0
19,37.0,106.0,120.0,1.0,0.0
20,54.0,3.0,240.0,0.0,0.0
21,42.0,2.0,120.0,1.0,0.0
22,63.0,1.0,120.0,0.0,0.0
23,48.0,115.0,120.0,1.0,0.0
24,49.0,7.0,240.0,1.0,0.0
25,33.0,66.0,120.0,1.0,0.0
26,64.0,32.0,180.0,0.0,0.0
27,55.0,10.0,450.0,0.0,0.0
28,37.0,3.0,120.0,1.0,0.0
29,66.0,23.0,30.0,0.0,0.0
30,64.0,52.0,30.0,0.0,0.0
31,51.0,8.0,60.0,1.0,0.0
32,43.0,11.0,90.0,1.0,0.0
33,63.0,19.0,60.0,0.0,0.0
34,52.0,107.0,60.0,1.0,0.0
35,61.0,23.0,20.0,0.0,0.0
36,52.0,106.0,120.0,1.0,0.0
37,68.0,43.0,540.0,0.0,0.0
38,61.0,8.0,120.0,0.0,0.0
39,44.0,0.0,480.0,1.0,0.0
40,32.0,9.0,480.0,1.0,0.0
41,60.0,108.0,120.0,0.0,0.0
42,56.0,8.0,120.0,0.0,0.0
43,51.0,0.0,120.0,1.0,0.0
44,55.0,9.0,120.0,0.0,0.0
45,61.0,1.0,120.0,0.0,0.0
46,46.0,7.0,90.0,1.0,0.0
47,49.0,113.0,120.0,1.0,0.0
48,64.0,0.0,120.0,0.0,0.0
49,60.0,0.0,120.0,0.0,0.0
50,63.0,3.0,120.0,0.0,0.0
51,56.0,8.0,120.0,0.0,0.0
52,51.0,51.0,120.0,1.0,0.0
53,48.0,3.0,120.0,1.0,0.0
54,64.0,5.0,15.0,0.0,0.0
55,66.0,13.0,15.0,0.0,0.0
56,68.0,45.0,15.0,0.0,0.0
57,66.0,58.0,60.0,0.0,0.0
58,64.0,243.0,60.0,0.0,0.0
59,64.0,29.0,420.0,0.0,0.0
60,56.0,116.0,120.0,1.0,0.0
61,59.0,5.0,120.0,0.0,0.0
62,57.0,71.0,120.0,1.0,0.0
63,61.0,11.0,120.0,0.0,0.0
64,54.0,7.0,240.0,1.0,0.0
65,57.0,6.0,240.0,0.0,0.0
66,66.0,12.0,15.0,0.0,0.0
67,64.0,112.0,15.0,0.0,0.0
68,63.0,107.0,120.0,0.0,0.0
69,56.0,98.0,120.0,0.0,0.0
70,61.0,15.0,210.0,0.0,0.0
71,52.0,6.0,120.0,1.0,0.0
72,51.0,120.0,240.0,1.0,0.0
73,54.0,4.0,240.0,0.0,0.0
74,63.0,14.0,15.0,0.0,0.0
75,61.0,104.0,15.0,0.0,0.0
76,59.0,9.0,120.0,0.0,0.0
77,57.0,12.0,240.0,0.0,0.0
78,52.0,106.0,120.0,0.0,0.0
79,49.0,3.0,120.0,1.0,0.0
80,51.0,4.0,120.0,0.0,0.0
81,48.0,122.0,120.0,1.0,0.0
82,49.0,2.0,120.0,1.0,0.0
83,52.0,336.0,120.0,0.0,0.0
84,56.0,2.0,120.0,0.0,0.0
85,61.0,35.0,420.0,0.0,0.0
86,45.0,2.0,360.0,1.0,0.0
87,49.0,6.0,120.0,0.0,0.0
88,52.0,114.0,120.0,0.0,0.0
89,51.0,78.0,120.0,0.0,0.0
90,54.0,5.0,120.0,0.0,0.0
91,52.0,60.0,1380.0,0.0,0.0
92,56.0,1.0,120.0,0.0,0.0
93,44.0,6.0,240.0,1.0,0.0
94,63.0,12.0,15.0,0.0,0.0
95,61.0,115.0,15.0,0.0,0.0
96,59.0,115.0,120.0,0.0,0.0
97,57.0,26.0,210.0,0.0,0.0
98,49.0,88.0,120.0,1.0,0.0
99,47.0,121.0,240.0,1.0,0.0
100,59.0,14.0,20.0,0.0,0.0
101,57.0,112.0,15.0,0.0,0.0
102,56.0,0.0,120.0,0.0,0.0
103,46.0,125.0,120.0,1.0,0.0
104,54.0,45.0,1260.0,0.0,0.0
105,47.0,118.0,120.0,1.0,0.0
106,48.0,116.0,120.0,1.0,0.0
107,46.0,94.0,120.0,1.0,0.0
108,47.0,22.0,90.0,1.0,0.0
109,46.0,11.0,20.0,1.0,0.0
110,47.0,105.0,15.0,1.0,0.0
111,49.0,67.0,120.0,1.0,0.0
112,44.0,121.0,120.0,1.0,0.0
113,51.0,6.0,120.0,0.0,0.0
114,45.0,120.0,480.0,1.0,0.0
115,36.0,115.0,120.0,1.0,0.0
116,49.0,118.0,120.0,0.0,0.0
117,37.0,2.0,120.0,1.0,0.0
118,39.0,1.0,120.0,1.0,0.0
119,48.0,67.0,120.0,0.0,0.0
120,47.0,2.0,240.0,0.0,0.0
121,40.0,7.0,360.0,1.0,0.0
122,44.0,118.0,120.0,1.0,0.0
123,52.0,76.0,330.0,0.0,0.0
124,46.0,2.0,120.0,0.0,0.0
125,43.0,104.0,120.0,1.0,0.0
126,35.0,4.0,300.0,1.0,0.0
127,42.0,34.0,300.0,1.0,0.0
128,45.0,11.0,360.0,0.0,0.0
129,51.0,60.0,60.0,0.0,0.0
130,61.0,67.0,60.0,0.0,0.0
131,59.0,6.0,60.0,0.0,0.0
132,51.0,62.0,60.0,0.0,0.0
133,44.0,59.0,60.0,0.0,0.0
134,40.0,22.0,120.0,1.0,0.0
135,52.0,95.0,150.0,0.0,0.0
136,47.0,225.0,120.0,0.0,0.0
137,44.0,6.0,120.0,1.0,0.0
138,45.0,10.0,240.0,0.0,0.0
139,42.0,113.0,240.0,1.0,0.0
140,62.0,14.0,570.0,0.0,0.0
141,44.0,119.0,120.0,0.0,0.0
142,41.0,5.0,120.0,1.0,0.0
143,53.0,3.0,120.0,0.0,0.0
144,44.0,115.0,120.0,1.0,0.0
145,33.0,3.0,330.0,1.0,0.0
146,45.0,94.0,120.0,1.0,0.0
147,54.0,6.0,120.0,0.0,0.0
148,53.0,9.0,120.0,1.0,0.0
149,56.0,105.0,120.0,0.0,0.0
150,61.0,11.0,120.0,0.0,0.0
151,57.0,2.0,90.0,0.0,0.0
152,54.0,65.0,120.0,1.0,0.0
153,50.0,29.0,60.0,1.0,0.0
154,57.0,0.0,60.0,0.0,0.0
155,61.0,6.0,60.0,0.0,0.0
156,35.0,0.0,60.0,1.0,0.0
157,59.0,72.0,30.0,0.0,0.0
158,56.0,1.0,30.0,0.0,0.0
159,49.0,3.0,60.0,1.0,0.0
160,59.0,11.0,60.0,0.0,0.0
161,56.0,3.0,60.0,0.0,0.0
162,37.0,19.0,60.0,1.0,0.0
163,54.0,88.0,30.0,0.0,0.0
164,57.0,1.0,30.0,0.0,0.0
165,47.0,26.0,60.0,1.0,0.0
166,57.0,17.0,60.0,0.0,0.0
167,54.0,1.0,60.0,0.0,0.0
168,37.0,0.0,60.0,1.0,0.0
169,56.0,80.0,30.0,0.0,0.0
170,53.0,4.0,30.0,0.0,0.0
171,45.0,52.0,60.0,1.0,0.0
172,42.0,53.0,120.0,1.0,0.0
173,54.0,65.0,180.0,0.0,0.0
174,49.0,227.0,120.0,0.0,0.0
175,45.0,14.0,120.0,1.0,0.0
176,47.0,4.0,240.0,0.0,0.0
177,44.0,112.0,240.0,1.0,0.0
178,64.0,6.0,570.0,0.0,0.0
179,43.0,121.0,120.0,1.0,0.0
180,46.0,0.0,120.0,0.0,0.0
181,55.0,3.0,120.0,0.0,0.0
182,46.0,117.0,120.0,1.0,0.0
183,56.0,13.0,120.0,0.0,0.0
184,47.0,81.0,120.0,1.0,0.0
185,35.0,6.0,360.0,1.0,0.0
186,55.0,13.0,120.0,1.0,0.0
187,58.0,18.0,90.0,0.0,0.0
188,56.0,2.0,20.0,0.0,0.0
189,58.0,86.0,20.0,0.0,0.0
190,56.0,60.0,120.0,1.0,0.0
191,59.0,7.0,90.0,0.0,0.0
192,63.0,12.0,90.0,0.0,0.0
193,63.0,10.0,60.0,0.0,0.0
194,37.0,1.0,60.0,1.0,0.0
195,59.0,2.0,60.0,0.0,0.0
196,52.0,16.0,60.0,1.0,0.0
197,58.0,1.0,20.0,0.0,0.0
198,61.0,99.0,30.0,0.0,0.0
199,61.0,0.0,60.0,0.0,0.0
200,51.0,0.0,60.0,1.0,0.0
201,39.0,10.0,60.0,1.0,0.0
202,58.0,2.0,60.0,0.0,0.0
203,56.0,2.0,15.0,0.0,0.0
204,59.0,96.0,20.0,0.0,0.0
205,39.0,4.0,90.0,1.0,0.0
206,59.0,18.0,60.0,0.0,0.0
207,56.0,6.0,60.0,0.0,0.0
208,49.0,3.0,90.0,1.0,0.0
209,55.0,151.0,30.0,0.0,0.0
210,58.0,4.0,30.0,0.0,0.0
211,48.0,127.0,240.0,1.0,0.0
212,56.0,80.0,390.0,0.0,0.0
213,32.0,106.0,120.0,1.0,0.0
214,51.0,3.0,120.0,0.0,0.0
215,51.0,39.0,120.0,1.0,0.0
216,54.0,5.0,120.0,0.0,0.0
217,49.0,25.0,450.0,1.0,0.0
218,53.0,12.0,240.0,0.0,0.0
219,61.0,59.0,60.0,0.0,0.0
220,60.0,48.0,60.0,0.0,0.0
221,59.0,60.0,60.0,0.0,0.0
222,52.0,3.0,120.0,0.0,0.0
223,58.0,58.0,60.0,0.0,0.0
224,57.0,99.0,60.0,0.0,0.0
225,51.0,118.0,240.0,0.0,0.0
226,44.0,4.0,360.0,1.0,0.0
227,56.0,107.0,120.0,0.0,0.0
228,48.0,5.0,240.0,1.0,0.0
229,36.0,2.0,120.0,1.0,0.0
230,42.0,124.0,120.0,1.0,0.0
231,41.0,31.0,210.0,1.0,0.0
232,37.0,21.0,450.0,1.0,0.0
233,49.0,55.0,60.0,1.0,0.0
234,48.0,31.0,60.0,1.0,0.0
235,47.0,60.0,60.0,1.0,0.0
236,46.0,54.0,60.0,1.0,0.0
237,40.0,1.0,120.0,1.0,0.0
238,45.0,101.0,60.0,1.0,0.0
239,44.0,110.0,240.0,1.0,0.0
240,32.0,21.0,390.0,1.0,0.0
241,39.0,118.0,120.0,1.0,0.0
242,36.0,5.0,240.0,1.0,0.0
243,51.0,4.0,120.0,1.0,0.0
244,48.0,2.0,120.0,1.0,0.0
245,54.0,38.0,120.0,0.0,0.0
246,53.0,60.0,60.0,0.0,0.0
247,49.0,2.0,120.0,1.0,0.0
248,37.0,0.0,60.0,1.0,0.0
249,52.0,58.0,60.0,0.0,0.0
250,51.0,2.0,60.0,0.0,0.0
251,36.0,62.0,60.0,1.0,0.0
252,56.0,53.0,120.0,0.0,0.0
253,35.0,1.0,60.0,1.0,0.0
254,50.0,3.0,60.0,0.0,0.0
255,49.0,2.0,120.0,0.0,0.0
256,34.0,48.0,60.0,1.0,0.0
257,55.0,6.0,60.0,0.0,0.0
258,61.0,4.0,60.0,0.0,0.0
259,33.0,47.0,60.0,1.0,0.0
260,60.0,4.0,60.0,0.0,0.0
261,56.0,1.0,30.0,0.0,0.0
262,51.0,62.0,60.0,0.0,0.0
263,32.0,7.0,300.0,1.0,0.0
264,59.0,4.0,60.0,0.0,0.0
265,50.0,52.0,60.0,0.0,0.0
266,41.0,6.0,60.0,1.0,0.0
267,42.0,38.0,60.0,1.0,0.0
268,49.0,0.0,60.0,0.0,0.0
269,54.0,2.0,60.0,0.0,0.0
270,58.0,4.0,60.0,0.0,0.0
271,57.0,16.0,30.0,0.0,0.0
272,48.0,42.0,60.0,0.0,0.0
273,39.0,5.0,60.0,1.0,0.0
274,52.0,6.0,30.0,0.0,0.0
275,56.0,3.0,30.0,0.0,0.0
276,49.0,4.0,60.0,0.0,0.0
277,40.0,47.0,60.0,1.0,0.0
278,66.0,7.0,60.0,0.0,0.0
279,63.0,1.0,60.0,0.0,0.0
280,57.0,3.0,60.0,1.0,0.0
281,36.0,47.0,60.0,1.0,0.0
282,37.0,8.0,60.0,1.0,0.0
283,64.0,6.0,60.0,0.0,0.0
284,61.0,4.0,60.0,0.0,0.0
285,56.0,37.0,60.0,1.0,0.0
286,54.0,1.0,60.0,1.0,0.0
287,60.0,5.0,60.0,0.0,0.0
288,58.0,11.0,30.0,0.0,0.0
289,39.0,13.0,60.0,1.0,0.0
290,52.0,15.0,60.0,1.0,0.0
291,42.0,15.0,15.0,1.0,0.0
292,56.0,13.0,60.0,0.0,0.0
293,61.0,5.0,30.0,0.0,0.0
294,40.0,10.0,15.0,1.0,0.0
295,42.0,2.0,15.0,1.0,0.0
296,40.0,0.0,15.0,1.0,0.0
297,42.0,15.0,15.0,1.0,0.0
298,44.0,0.0,60.0,1.0,0.0
299,56.0,8.0,60.0,0.0,0.0
300,52.0,1.0,60.0,0.0,0.0
301,40.0,15.0,15.0,1.0,0.0
302,39.0,6.0,15.0,1.0,0.0
303,40.0,49.0,15.0,1.0,0.0
304,42.0,0.0,60.0,1.0,0.0
305,45.0,2.0,60.0,1.0,0.0
306,51.0,5.0,60.0,0.0,0.0
307,54.0,55.0,60.0,0.0,0.0
308,49.0,2.0,60.0,0.0,0.0
309,43.0,61.0,60.0,1.0,0.0
310,46.0,2.0,60.0,1.0,0.0
311,52.0,6.0,60.0,0.0,0.0
312,48.0,1.0,60.0,0.0,0.0
313,44.0,9.0,120.0,1.0,0.0
314,32.0,0.0,60.0,1.0,0.0
315,51.0,46.0,60.0,0.0,0.0
316,36.0,63.0,60.0,1.0,0.0
317,39.0,65.0,60.0,1.0,0.0
318,44.0,52.0,60.0,1.0,0.0
319,52.0,1.0,120.0,1.0,0.0
320,55.0,2.0,120.0,0.0,0.0
321,61.0,59.0,120.0,0.0,0.0
322,40.0,57.0,60.0,1.0,0.0
323,37.0,2.0,60.0,1.0,0.0
324,60.0,56.0,60.0,0.0,0.0
325,56.0,3.0,60.0,0.0,0.0
326,32.0,3.0,60.0,1.0,0.0
327,51.0,3.0,60.0,1.0,0.0
328,36.0,54.0,60.0,1.0,0.0
329,39.0,69.0,60.0,1.0,0.0
330,44.0,49.0,60.0,1.0,0.0
331,64.0,4.0,120.0,0.0,0.0
332,61.0,1.0,120.0,0.0,0.0
333,40.0,60.0,60.0,1.0,0.0
334,55.0,1.0,120.0,1.0,0.0
335,37.0,58.0,60.0,1.0,0.0
336,56.0,55.0,60.0,1.0,0.0
337,32.0,3.0,60.0,1.0,0.0
338,63.0,4.0,60.0,0.0,0.0
339,60.0,0.0,60.0,0.0,0.0
340,36.0,53.0,60.0,1.0,0.0
341,39.0,67.0,60.0,1.0,0.0
342,44.0,54.0,60.0,1.0,0.0
343,64.0,1.0,120.0,0.0,0.0
344,55.0,2.0,120.0,1.0,0.0
345,46.0,1.0,120.0,1.0,0.0
346,49.0,4.0,120.0,1.0,0.0
347,40.0,53.0,60.0,1.0,0.0
348,61.0,1.0,120.0,0.0,0.0
349,58.0,0.0,120.0,0.0,0.0
350,67.0,3.0,120.0,0.0,0.0
351,52.0,1.0,120.0,1.0,0.0
352,37.0,55.0,60.0,1.0,0.0
353,63.0,0.0,60.0,0.0,0.0
354,60.0,1.0,60.0,0.0,0.0
355,68.0,1.0,60.0,0.0,0.0
356,51.0,1.0,60.0,1.0,0.0
357,48.0,0.0,60.0,1.0,0.0
358,32.0,0.0,60.0,1.0,0.0
359,56.0,426.0,60.0,1.0,0.0
360,61.0,5.0,120.0,0.0,0.0
361,56.0,63.0,120.0,0.0,0.0
362,49.0,1.0,120.0,1.0,0.0
363,37.0,1.0,120.0,1.0,0.0
364,53.0,0.0,120.0,1.0,0.0
365,37.0,0.0,20.0,1.0,0.0
366,49.0,1.0,20.0,1.0,0.0
367,56.0,5.0,15.0,0.0,0.0
368,61.0,20.0,20.0,0.0,0.0
369,53.0,2.0,20.0,1.0,0.0
370,53.0,1.0,20.0,1.0,0.0
371,49.0,2.0,15.0,1.0,0.0
372,37.0,2.0,20.0,1.0,0.0
373,56.0,4.0,15.0,0.0,0.0
374,61.0,136.0,20.0,0.0,0.0
375,63.0,54.0,150.0,0.0,0.0
376,51.0,6.0,120.0,1.0,0.0
377,36.0,3.0,120.0,1.0,0.0
378,48.0,1.0,120.0,1.0,0.0
379,56.0,5.0,150.0,0.0,0.0
380,56.0,26.0,20.0,0.0,0.0
381,63.0,1.0,20.0,0.0,0.0
382,48.0,0.0,20.0,1.0,0.0
383,51.0,2.0,15.0,1.0,0.0
384,36.0,0.0,20.0,1.0,0.0
385,63.0,141.0,20.0,0.0,0.0
386,56.0,2.0,20.0,0.0,0.0
387,48.0,1.0,15.0,1.0,0.0
388,36.0,1.0,20.0,1.0,0.0
389,51.0,2.0,15.0,1.0,0.0
390,46.0,1.0,120.0,1.0,0.0
391,34.0,1.0,120.0,1.0,0.0
392,53.0,8.0,150.0,1.0,0.0
393,61.0,46.0,150.0,0.0,0.0
394,65.0,1.0,150.0,0.0,0.0
395,49.0,4.0,120.0,1.0,0.0
396,34.0,25.0,20.0,1.0,0.0
397,61.0,2.0,15.0,0.0,0.0
398,65.0,0.0,15.0,0.0,0.0
399,46.0,1.0,15.0,1.0,0.0
400,53.0,1.0,15.0,1.0,0.0
401,49.0,1.0,15.0,1.0,0.0
402,34.0,5.0,15.0,1.0,0.0
403,49.0,0.0,15.0,1.0,0.0
404,65.0,140.0,20.0,0.0,0.0
405,46.0,1.0,15.0,1.0,0.0
406,61.0,1.0,15.0,0.0,0.0
407,53.0,1.0,15.0,1.0,0.0
408,32.0,1.0,120.0,1.0,0.0
409,56.0,1.0,150.0,1.0,0.0
410,51.0,1.0,150.0,1.0,0.0
411,63.0,3.0,120.0,0.0,0.0
412,60.0,1.0,120.0,0.0,0.0
413,68.0,5.0,150.0,0.0,0.0
414,48.0,0.0,150.0,1.0,0.0
415,44.0,55.0,150.0,1.0,0.0
416,42.0,0.0,20.0,1.0,0.0
417,56.0,0.0,20.0,0.0,0.0
418,51.0,26.0,20.0,0.0,0.0
419,48.0,1.0,20.0,1.0,0.0
420,56.0,68.0,20.0,0.0,0.0
421,42.0,2.0,15.0,1.0,0.0
422,48.0,0.0,15.0,1.0,0.0
423,51.0,2.0,15.0,0.0,0.0
424,41.0,22.0,120.0,1.0,0.0
425,61.0,60.0,60.0,0.0,0.0
426,53.0,20.0,150.0,0.0,0.0
427,56.0,1.0,150.0,0.0,0.0
428,49.0,5.0,120.0,1.0,0.0
429,63.0,9.0,60.0,0.0,0.0
430,65.0,50.0,60.0,0.0,0.0
431,49.0,8.0,30.0,0.0,0.0
432,56.0,103.0,60.0,0.0,0.0
433,41.0,12.0,60.0,1.0,0.0
434,49.0,9.0,120.0,0.0,0.0
435,58.0,3.0,120.0,0.0,0.0
436,42.0,102.0,120.0,1.0,0.0
437,61.0,7.0,240.0,0.0,0.0
438,56.0,10.0,90.0,0.0,0.0
439,49.0,24.0,120.0,1.0,0.0
440,41.0,1.0,120.0,1.0,0.0
441,39.0,0.0,120.0,1.0,0.0
442,51.0,5.0,240.0,1.0,0.0
443,56.0,11.0,15.0,0.0,0.0
444,54.0,19.0,15.0,0.0,0.0
445,56.0,13.0,15.0,0.0,0.0
446,54.0,17.0,15.0,0.0,0.0
447,56.0,14.0,15.0,0.0,0.0
448,54.0,12.0,15.0,0.0,0.0
449,53.0,9.0,15.0,0.0,0.0
450,54.0,57.0,15.0,0.0,0.0
451,56.0,55.0,60.0,0.0,0.0
452,32.0,3.0,120.0,1.0,0.0
453,60.0,122.0,120.0,0.0,0.0
454,54.0,1.0,60.0,0.0,0.0
455,49.0,1.0,120.0,1.0,0.0
456,37.0,0.0,120.0,1.0,0.0
457,53.0,1.0,120.0,0.0,0.0
458,61.0,55.0,120.0,0.0,0.0
459,56.0,26.0,30.0,0.0,0.0
460,53.0,3.0,30.0,0.0,0.0
461,58.0,31.0,30.0,0.0,0.0
462,54.0,1.0,30.0,0.0,0.0
463,60.0,26.0,30.0,0.0,0.0
464,56.0,0.0,30.0,0.0,0.0
465,58.0,27.0,30.0,0.0,0.0
466,61.0,4.0,30.0,0.0,0.0
467,60.0,3.0,30.0,0.0,0.0
468,63.0,27.0,30.0,0.0,0.0
469,65.0,31.0,30.0,0.0,0.0
470,61.0,2.0,30.0,0.0,0.0
471,66.0,53.0,30.0,0.0,0.0
472,63.0,0.0,30.0,0.0,0.0
473,68.0,17.0,180.0,0.0,0.0
474,65.0,1.0,180.0,0.0,0.0
475,49.0,6.0,20.0,1.0,0.0
476,53.0,25.0,30.0,1.0,0.0
477,51.0,1.0,20.0,1.0,0.0
478,54.0,32.0,20.0,1.0,0.0
479,56.0,27.0,30.0,1.0,0.0
480,53.0,1.0,30.0,1.0,0.0
481,58.0,0.0,20.0,1.0,0.0
482,54.0,31.0,20.0,1.0,0.0
483,56.0,2.0,30.0,1.0,0.0
484,53.0,0.0,30.0,1.0,0.0
485,54.0,2.0,15.0,1.0,0.0
486,63.0,57.0,60.0,0.0,0.0
487,66.0,0.0,60.0,0.0,0.0
488,58.0,31.0,15.0,1.0,0.0
489,56.0,0.0,20.0,1.0,0.0
490,60.0,15.0,20.0,1.0,0.0
491,61.0,5.0,240.0,0.0,0.0
492,65.0,20.0,90.0,0.0,0.0
493,58.0,3.0,240.0,1.0,0.0
494,46.0,25.0,30.0,1.0,0.0
495,44.0,14.0,30.0,1.0,0.0
496,46.0,16.0,30.0,1.0,0.0
497,42.0,16.0,30.0,1.0,0.0
498,65.0,13.0,15.0,0.0,0.0
499,63.0,3.0,15.0,0.0,0.0
500,65.0,11.0,15.0,0.0,0.0
501,39.0,17.0,30.0,1.0,0.0
502,63.0,1.0,15.0,0.0,0.0
503,65.0,14.0,15.0,0.0,0.0
504,41.0,12.0,30.0,1.0,0.0
505,63.0,3.0,15.0,0.0,0.0
506,42.0,0.0,30.0,1.0,0.0
507,65.0,6.0,15.0,0.0,0.0
508,63.0,16.0,15.0,0.0,0.0
509,65.0,14.0,15.0,0.0,0.0
510,44.0,17.0,30.0,1.0,0.0
511,56.0,30.0,60.0,1.0,0.0
512,60.0,52.0,120.0,0.0,0.0
513,63.0,0.0,15.0,0.0,0.0
514,42.0,0.0,30.0,1.0,0.0
515,65.0,12.0,15.0,0.0,0.0
516,63.0,1.0,15.0,0.0,0.0
517,44.0,1.0,30.0,1.0,0.0
518,54.0,4.0,60.0,1.0,0.0
519,61.0,27.0,30.0,0.0,0.0
520,32.0,0.0,30.0,1.0,0.0
521,63.0,3.0,30.0,0.0,0.0
522,53.0,2.0,120.0,1.0,0.0
523,37.0,4.0,120.0,1.0,0.0
524,61.0,32.0,60.0,0.0,0.0
525,65.0,25.0,30.0,0.0,0.0
526,63.0,31.0,30.0,0.0,0.0
527,61.0,32.0,30.0,0.0,0.0
528,60.0,28.0,30.0,0.0,0.0
529,58.0,26.0,30.0,0.0,0.0
530,49.0,3.0,120.0,0.0,0.0
531,37.0,2.0,60.0,1.0,0.0
532,41.0,3.0,60.0,1.0,0.0
533,56.0,57.0,30.0,0.0,0.0
534,39.0,8.0,120.0,1.0,0.0
535,42.0,2.0,120.0,1.0,0.0
536,54.0,21.0,60.0,0.0,0.0
537,48.0,18.0,60.0,0.0,0.0
538,66.0,39.0,20.0,0.0,0.0
539,65.0,1.0,30.0,0.0,0.0
540,63.0,30.0,30.0,0.0,0.0
541,61.0,25.0,30.0,0.0,0.0
542,60.0,34.0,30.0,0.0,0.0
543,51.0,2.0,120.0,0.0,0.0
544,39.0,1.0,60.0,1.0,0.0
545,42.0,0.0,60.0,1.0,0.0
546,58.0,56.0,30.0,0.0,0.0
547,56.0,32.0,60.0,0.0,0.0
548,44.0,20.0,120.0,1.0,0.0
549,41.0,0.0,120.0,1.0,0.0
550,68.0,29.0,30.0,0.0,0.0
551,49.0,1.0,60.0,0.0,0.0
552,66.0,10.0,30.0,0.0,0.0
553,65.0,27.0,30.0,0.0,0.0
554,63.0,31.0,30.0,0.0,0.0
555,61.0,27.0,30.0,0.0,0.0
556,53.0,1.0,120.0,0.0,0.0
557,41.0,1.0,60.0,1.0,0.0
558,44.0,3.0,60.0,1.0,0.0
559,60.0,58.0,30.0,0.0,0.0
560,46.0,18.0,120.0,1.0,0.0
561,42.0,4.0,120.0,1.0,0.0
562,58.0,34.0,60.0,0.0,0.0
563,70.0,29.0,30.0,0.0,0.0
564,51.0,8.0,60.0,0.0,0.0
565,68.0,1.0,30.0,0.0,0.0
566,66.0,27.0,30.0,0.0,0.0
567,61.0,26.0,30.0,0.0,0.0
568,65.0,4.0,30.0,0.0,0.0
569,43.0,2.0,60.0,1.0,0.0
570,51.0,10.0,60.0,1.0,0.0
571,63.0,1.0,30.0,0.0,0.0
572,60.0,17.0,30.0,0.0,0.0
573,58.0,3.0,30.0,0.0,0.0
574,61.0,29.0,30.0,0.0,0.0
575,51.0,11.0,120.0,1.0,0.0
576,56.0,2.0,150.0,0.0,0.0
577,44.0,55.0,30.0,1.0,0.0
578,60.0,13.0,120.0,0.0,0.0
579,44.0,32.0,30.0,1.0,0.0
580,43.0,3.0,30.0,1.0,0.0
581,41.0,33.0,30.0,1.0,0.0
582,39.0,29.0,30.0,1.0,0.0
583,37.0,25.0,30.0,1.0,0.0
584,51.0,3.0,60.0,1.0,0.0
585,60.0,54.0,60.0,0.0,0.0
586,56.0,26.0,120.0,0.0,0.0
587,36.0,6.0,30.0,1.0,0.0
588,61.0,1.0,60.0,0.0,0.0
589,49.0,1.0,120.0,1.0,0.0
590,46.0,29.0,30.0,1.0,0.0
591,55.0,15.0,60.0,0.0,0.0
592,58.0,2.0,90.0,0.0,0.0
593,44.0,9.0,30.0,1.0,0.0
594,43.0,33.0,20.0,1.0,0.0
595,41.0,25.0,30.0,1.0,0.0
596,39.0,26.0,30.0,1.0,0.0
597,55.0,5.0,20.0,1.0,0.0
598,58.0,3.0,120.0,0.0,0.0
599,61.0,49.0,60.0,0.0,0.0
600,53.0,10.0,30.0,1.0,0.0
601,37.0,2.0,30.0,1.0,0.0
602,36.0,9.0,60.0,1.0,0.0
603,51.0,22.0,120.0,1.0,0.0
604,63.0,21.0,60.0,0.0,0.0
605,48.0,30.0,30.0,1.0,0.0
606,56.0,5.0,90.0,0.0,0.0
607,60.0,27.0,90.0,0.0,0.0
608,46.0,2.0,30.0,1.0,0.0
609,44.0,4.0,30.0,1.0,0.0
610,43.0,29.0,30.0,1.0,0.0
611,41.0,29.0,30.0,1.0,0.0
612,56.0,1.0,30.0,1.0,0.0
613,63.0,4.0,60.0,0.0,0.0
614,60.0,36.0,120.0,0.0,0.0
615,39.0,4.0,30.0,1.0,0.0
616,55.0,55.0,30.0,1.0,0.0
617,65.0,5.0,180.0,0.0,0.0
618,37.0,2.0,60.0,1.0,0.0
619,53.0,5.0,120.0,1.0,0.0
620,58.0,25.0,60.0,0.0,0.0
621,49.0,21.0,30.0,1.0,0.0
622,48.0,9.0,30.0,1.0,0.0
623,46.0,24.0,30.0,1.0,0.0
624,44.0,25.0,30.0,1.0,0.0
625,56.0,7.0,60.0,0.0,0.0
626,50.0,3.0,60.0,0.0,0.0
627,46.0,3.0,20.0,1.0,0.0
628,43.0,15.0,30.0,1.0,0.0
629,41.0,40.0,30.0,1.0,0.0
630,46.0,7.0,15.0,1.0,0.0
631,51.0,18.0,30.0,0.0,0.0
632,55.0,3.0,60.0,0.0,0.0
633,39.0,24.0,60.0,1.0,0.0
634,46.0,1.0,60.0,1.0,0.0
635,70.0,2.0,30.0,0.0,0.0
636,67.0,30.0,30.0,0.0,0.0
637,68.0,7.0,30.0,0.0,0.0
638,65.0,23.0,30.0,0.0,0.0
639,67.0,1.0,30.0,0.0,0.0
640,63.0,26.0,30.0,0.0,0.0
641,65.0,2.0,30.0,0.0,0.0
642,61.0,27.0,30.0,0.0,0.0
643,63.0,25.0,30.0,0.0,0.0
644,60.0,4.0,30.0,0.0,0.0
645,58.0,1.0,90.0,0.0,0.0
646,61.0,22.0,30.0,0.0,0.0
647,61.0,11.0,15.0,0.0,0.0
648,44.0,18.0,30.0,1.0,0.0
649,60.0,0.0,15.0,0.0,0.0
650,43.0,3.0,30.0,1.0,0.0
651,61.0,11.0,15.0,0.0,0.0
652,60.0,16.0,15.0,0.0,0.0
653,51.0,3.0,60.0,0.0,0.0
654,61.0,13.0,15.0,0.0,0.0
655,39.0,1.0,60.0,1.0,0.0
656,44.0,15.0,30.0,1.0,0.0
657,60.0,2.0,15.0,0.0,0.0
658,61.0,8.0,15.0,0.0,0.0
659,46.0,3.0,30.0,1.0,0.0
660,60.0,14.0,15.0,0.0,0.0
661,48.0,3.0,30.0,1.0,0.0
662,36.0,2.0,60.0,1.0,0.0
663,61.0,12.0,15.0,0.0,0.0
664,56.0,36.0,150.0,0.0,0.0
665,60.0,16.0,15.0,0.0,0.0
666,61.0,9.0,15.0,0.0,0.0
667,46.0,1.0,30.0,1.0,0.0
668,60.0,29.0,15.0,0.0,0.0
669,32.0,2.0,60.0,1.0,0.0
670,48.0,26.0,30.0,1.0,0.0
671,58.0,3.0,30.0,0.0,0.0
672,50.0,0.0,30.0,1.0,0.0
673,60.0,18.0,30.0,0.0,0.0
674,51.0,3.0,120.0,1.0,0.0
675,58.0,10.0,60.0,0.0,0.0
676,39.0,4.0,120.0,1.0,0.0
677,55.0,24.0,30.0,0.0,0.0
678,70.0,25.0,30.0,0.0,0.0
679,67.0,1.0,30.0,0.0,0.0
680,68.0,5.0,30.0,0.0,0.0
681,65.0,24.0,30.0,0.0,0.0
682,63.0,27.0,30.0,0.0,0.0
683,67.0,1.0,30.0,0.0,0.0
684,61.0,1.0,30.0,0.0,0.0
685,65.0,30.0,30.0,0.0,0.0
686,39.0,0.0,30.0,1.0,0.0
687,41.0,0.0,30.0,1.0,0.0
688,60.0,3.0,30.0,0.0,0.0
689,63.0,19.0,30.0,0.0,0.0
690,43.0,21.0,30.0,1.0,0.0
691,61.0,8.0,20.0,0.0,0.0
692,58.0,0.0,90.0,0.0,0.0
693,44.0,3.0,30.0,1.0,0.0
694,61.0,8.0,20.0,0.0,0.0
695,60.0,15.0,15.0,0.0,0.0
696,61.0,12.0,15.0,0.0,0.0
697,43.0,2.0,30.0,1.0,0.0
698,60.0,17.0,15.0,0.0,0.0
699,39.0,1.0,60.0,1.0,0.0
700,61.0,12.0,15.0,0.0,0.0
701,44.0,12.0,30.0,1.0,0.0
702,51.0,2.0,60.0,0.0,0.0
703,60.0,4.0,15.0,0.0,0.0
704,46.0,0.0,30.0,1.0,0.0
705,61.0,12.0,15.0,0.0,0.0
706,60.0,15.0,15.0,0.0,0.0
707,61.0,13.0,15.0,0.0,0.0
708,48.0,18.0,30.0,1.0,0.0
709,36.0,29.0,60.0,1.0,0.0
710,56.0,3.0,120.0,0.0,0.0
711,60.0,1.0,15.0,0.0,0.0
712,46.0,2.0,30.0,1.0,0.0
713,61.0,8.0,15.0,0.0,0.0
714,60.0,3.0,15.0,0.0,0.0
715,48.0,1.0,30.0,1.0,0.0
716,32.0,1.0,60.0,1.0,0.0
717,58.0,24.0,30.0,0.0,0.0
718,50.0,2.0,30.0,1.0,0.0
719,60.0,29.0,30.0,0.0,0.0
720,55.0,28.0,120.0,0.0,0.0
721,39.0,27.0,30.0,1.0,0.0
722,51.0,0.0,120.0,1.0,0.0
723,58.0,5.0,120.0,0.0,0.0
724,38.0,32.0,30.0,1.0,0.0
725,39.0,24.0,30.0,1.0,0.0
726,41.0,6.0,30.0,1.0,0.0
727,39.0,28.0,30.0,1.0,0.0
728,36.0,28.0,30.0,1.0,0.0
729,37.0,33.0,30.0,1.0,0.0
730,34.0,27.0,30.0,1.0,0.0
731,44.0,2.0,30.0,1.0,0.0
732,32.0,21.0,120.0,1.0,0.0
733,48.0,27.0,30.0,0.0,0.0
734,46.0,3.0,30.0,1.0,0.0
735,49.0,28.0,30.0,0.0,0.0
736,44.0,2.0,30.0,1.0,0.0
737,48.0,31.0,30.0,0.0,0.0
738,46.0,1.0,30.0,1.0,0.0
739,49.0,7.0,30.0,0.0,0.0
740,51.0,33.0,30.0,0.0,0.0
741,48.0,0.0,30.0,1.0,0.0
742,49.0,13.0,30.0,0.0,0.0
743,46.0,1.0,30.0,1.0,0.0
744,51.0,28.0,30.0,0.0,0.0
745,55.0,0.0,60.0,0.0,0.0
746,39.0,8.0,15.0,1.0,0.0
747,48.0,4.0,20.0,1.0,0.0
748,46.0,1.0,30.0,1.0,0.0
749,49.0,31.0,30.0,0.0,0.0
750,39.0,1.0,30.0,1.0,0.0
751,56.0,1.0,60.0,0.0,0.0
752,32.0,0.0,120.0,1.0,0.0
753,44.0,27.0,30.0,1.0,0.0
754,48.0,2.0,30.0,0.0,0.0
755,49.0,4.0,30.0,0.0,0.0
756,46.0,28.0,30.0,1.0,0.0
757,44.0,0.0,30.0,1.0,0.0
758,48.0,28.0,30.0,0.0,0.0
759,49.0,3.0,30.0,0.0,0.0
760,46.0,1.0,30.0,1.0,0.0
761,48.0,1.0,30.0,1.0,0.0
762,51.0,25.0,15.0,0.0,0.0
763,49.0,17.0,30.0,0.0,0.0
764,46.0,3.0,30.0,1.0,0.0
765,51.0,18.0,30.0,0.0,0.0
766,55.0,3.0,60.0,0.0,0.0
767,39.0,8.0,15.0,1.0,0.0
768,48.0,8.0,30.0,1.0,0.0
769,39.0,4.0,20.0,1.0,0.0
770,46.0,3.0,30.0,1.0,0.0
771,49.0,52.0,30.0,0.0,0.0
772,56.0,2.0,60.0,0.0,0.0
773,44.0,1.0,120.0,1.0,0.0
774,32.0,27.0,60.0,1.0,0.0
775,48.0,71.0,120.0,0.0,0.0
776,60.0,24.0,20.0,0.0,0.0
777,63.0,12.0,210.0,0.0,0.0
778,36.0,27.0,60.0,1.0,0.0
779,60.0,1.0,30.0,0.0,0.0
780,56.0,5.0,30.0,1.0,0.0
781,55.0,0.0,30.0,1.0,0.0
782,58.0,28.0,30.0,0.0,0.0
783,53.0,30.0,30.0,1.0,0.0
784,56.0,0.0,30.0,0.0,0.0
785,51.0,30.0,30.0,1.0,0.0
786,55.0,0.0,30.0,0.0,0.0
787,39.0,2.0,120.0,1.0,0.0
788,56.0,28.0,30.0,0.0,0.0
789,53.0,2.0,30.0,1.0,0.0
790,55.0,4.0,30.0,0.0,0.0
791,51.0,11.0,30.0,1.0,0.0
792,49.0,1.0,30.0,1.0,0.0
793,53.0,16.0,30.0,0.0,0.0
794,48.0,11.0,30.0,1.0,0.0
795,56.0,11.0,15.0,0.0,0.0
796,51.0,4.0,30.0,0.0,0.0
797,55.0,2.0,15.0,0.0,0.0
798,49.0,2.0,30.0,1.0,0.0
799,53.0,16.0,30.0,0.0,0.0
800,56.0,16.0,15.0,0.0,0.0
801,55.0,1.0,15.0,0.0,0.0
802,56.0,10.0,20.0,0.0,0.0
803,51.0,16.0,30.0,0.0,0.0
804,48.0,2.0,30.0,1.0,0.0
805,55.0,0.0,15.0,0.0,0.0
806,53.0,9.0,15.0,0.0,0.0
807,49.0,2.0,30.0,0.0,0.0
808,46.0,2.0,30.0,1.0,0.0
809,55.0,46.0,15.0,0.0,0.0
810,56.0,7.0,120.0,0.0,0.0
811,44.0,28.0,60.0,1.0,0.0
812,48.0,14.0,60.0,0.0,0.0
813,60.0,22.0,30.0,0.0,0.0
814,56.0,2.0,30.0,1.0,0.0
815,58.0,30.0,30.0,1.0,0.0
816,61.0,1.0,30.0,0.0,0.0
817,63.0,1.0,30.0,0.0,0.0
818,60.0,26.0,30.0,1.0,0.0
819,61.0,17.0,30.0,0.0,0.0
820,58.0,2.0,30.0,1.0,0.0
821,51.0,9.0,15.0,1.0,0.0
822,63.0,23.0,30.0,0.0,0.0
823,60.0,4.0,20.0,1.0,0.0
824,39.0,0.0,15.0,1.0,0.0
825,67.0,1.0,60.0,0.0,0.0
826,39.0,3.0,20.0,1.0,0.0
827,51.0,3.0,20.0,1.0,0.0
828,58.0,4.0,30.0,1.0,0.0
829,61.0,29.0,30.0,0.0,0.0
830,56.0,20.0,30.0,1.0,0.0
831,44.0,4.0,60.0,1.0,0.0
832,68.0,3.0,60.0,0.0,0.0
833,60.0,0.0,30.0,0.0,0.0
834,58.0,2.0,30.0,1.0,0.0
835,61.0,28.0,30.0,0.0,0.0
836,56.0,21.0,30.0,1.0,0.0
837,63.0,10.0,60.0,0.0,0.0
838,60.0,1.0,30.0,0.0,0.0
839,58.0,27.0,30.0,1.0,0.0
840,61.0,1.0,30.0,0.0,0.0
841,60.0,28.0,30.0,1.0,0.0
842,63.0,1.0,30.0,0.0,0.0
843,58.0,3.0,30.0,1.0,0.0
844,61.0,13.0,30.0,0.0,0.0
845,51.0,8.0,15.0,1.0,0.0
846,39.0,1.0,15.0,1.0,0.0
847,63.0,21.0,30.0,0.0,0.0
848,67.0,7.0,60.0,0.0,0.0
849,60.0,3.0,20.0,1.0,0.0
850,61.0,47.0,30.0,0.0,0.0
851,58.0,2.0,30.0,1.0,0.0
852,39.0,0.0,30.0,1.0,0.0
853,51.0,10.0,15.0,1.0,0.0
854,44.0,3.0,60.0,1.0,0.0
855,68.0,20.0,60.0,0.0,0.0
856,56.0,1.0,60.0,1.0,0.0
857,60.0,48.0,15.0,0.0,0.0
858,36.0,21.0,60.0,1.0,0.0
859,63.0,11.0,210.0,0.0,0.0
860,56.0,3.0,30.0,1.0,0.0
861,60.0,10.0,30.0,0.0,0.0
862,58.0,29.0,30.0,0.0,0.0
863,55.0,1.0,30.0,1.0,0.0
864,53.0,1.0,30.0,1.0,0.0
865,56.0,28.0,30.0,0.0,0.0
866,51.0,29.0,30.0,1.0,0.0
867,39.0,4.0,120.0,1.0,0.0
868,55.0,0.0,30.0,0.0,0.0
869,56.0,27.0,30.0,0.0,0.0
870,53.0,4.0,30.0,1.0,0.0
871,55.0,1.0,30.0,0.0,0.0
872,51.0,9.0,30.0,1.0,0.0
873,53.0,15.0,30.0,0.0,0.0
874,49.0,5.0,20.0,1.0,0.0
875,51.0,1.0,30.0,0.0,0.0
876,56.0,15.0,15.0,0.0,0.0
877,48.0,16.0,30.0,1.0,0.0
878,55.0,0.0,15.0,0.0,0.0
879,49.0,15.0,30.0,1.0,0.0
880,53.0,1.0,30.0,0.0,0.0
881,56.0,15.0,15.0,0.0,0.0
882,55.0,0.0,15.0,0.0,0.0
883,51.0,1.0,30.0,0.0,0.0
884,56.0,12.0,15.0,0.0,0.0
885,48.0,15.0,30.0,1.0,0.0
886,55.0,0.0,15.0,0.0,0.0
887,46.0,2.0,30.0,1.0,0.0
888,53.0,10.0,15.0,0.0,0.0
889,49.0,31.0,30.0,0.0,0.0
890,55.0,1.0,15.0,0.0,0.0
891,56.0,9.0,240.0,0.0,0.0
892,44.0,6.0,810.0,1.0,0.0
893,32.0,0.0,30.0,1.0,0.0
894,48.0,27.0,30.0,0.0,0.0
895,34.0,1.0,30.0,1.0,0.0
896,49.0,34.0,30.0,0.0,0.0
897,32.0,27.0,30.0,1.0,0.0
898,48.0,1.0,30.0,0.0,0.0
899,34.0,3.0,30.0,1.0,0.0
900,49.0,24.0,30.0,0.0,0.0
901,51.0,29.0,30.0,0.0,0.0
902,36.0,4.0,30.0,1.0,0.0
903,49.0,28.0,30.0,0.0,0.0
904,34.0,2.0,30.0,1.0,0.0
905,51.0,1.0,30.0,0.0,0.0
906,36.0,20.0,30.0,1.0,0.0
907,48.0,28.0,30.0,0.0,0.0
908,32.0,2.0,30.0,1.0,0.0
909,55.0,21.0,210.0,0.0,0.0
910,34.0,30.0,30.0,1.0,0.0
911,49.0,0.0,30.0,0.0,0.0
912,51.0,0.0,30.0,0.0,0.0
913,36.0,30.0,30.0,1.0,0.0
914,34.0,29.0,30.0,1.0,0.0
915,49.0,1.0,30.0,0.0,0.0
916,51.0,25.0,30.0,0.0,0.0
917,36.0,5.0,30.0,1.0,0.0
918,52.0,0.0,30.0,0.0,0.0
919,37.0,31.0,30.0,1.0,0.0
920,36.0,29.0,30.0,1.0,0.0
921,51.0,0.0,30.0,0.0,0.0
922,52.0,0.0,30.0,0.0,0.0
923,37.0,10.0,30.0,1.0,0.0
924,49.0,15.0,30.0,0.0,0.0
925,34.0,1.0,30.0,1.0,0.0
926,36.0,17.0,30.0,1.0,0.0
927,51.0,1.0,30.0,0.0,0.0
928,56.0,12.0,15.0,0.0,0.0
929,54.0,1.0,15.0,0.0,0.0
930,49.0,17.0,30.0,0.0,0.0
931,56.0,11.0,15.0,0.0,0.0
932,37.0,2.0,30.0,1.0,0.0
933,54.0,0.0,15.0,0.0,0.0
934,36.0,1.0,30.0,1.0,0.0
935,56.0,10.0,15.0,0.0,0.0
936,51.0,15.0,30.0,0.0,0.0
937,54.0,2.0,15.0,0.0,0.0
938,37.0,0.0,30.0,1.0,0.0
939,56.0,13.0,15.0,0.0,0.0
940,49.0,1.0,30.0,0.0,0.0
941,54.0,16.0,15.0,0.0,0.0
942,39.0,1.0,30.0,1.0,0.0
943,48.0,3.0,30.0,0.0,0.0
944,56.0,13.0,15.0,0.0,0.0
945,54.0,11.0,15.0,0.0,0.0
946,56.0,16.0,15.0,0.0,0.0
947,49.0,1.0,30.0,0.0,0.0
948,37.0,27.0,30.0,1.0,0.0
949,54.0,0.0,15.0,0.0,0.0
950,39.0,26.0,30.0,1.0,0.0
951,53.0,2.0,30.0,0.0,0.0
952,48.0,2.0,30.0,0.0,0.0
953,51.0,27.0,30.0,0.0,0.0
954,36.0,1.0,30.0,1.0,0.0
955,54.0,3.0,30.0,0.0,0.0
956,53.0,2.0,30.0,0.0,0.0
957,49.0,29.0,30.0,0.0,0.0
958,37.0,0.0,120.0,1.0,0.0
959,51.0,24.0,30.0,0.0,0.0
960,54.0,0.0,30.0,0.0,0.0
961,53.0,30.0,30.0,0.0,0.0
962,49.0,0.0,30.0,0.0,0.0
963,54.0,1.0,30.0,0.0,0.0
964,51.0,28.0,30.0,0.0,0.0
965,56.0,31.0,30.0,0.0,0.0
966,53.0,0.0,30.0,0.0,0.0
967,54.0,28.0,30.0,0.0,0.0
968,51.0,0.0,30.0,0.0,0.0
969,56.0,3.0,30.0,0.0,0.0
970,53.0,31.0,30.0,0.0,0.0
971,53.0,3.0,30.0,0.0,0.0
972,49.0,25.0,30.0,0.0,0.0
973,63.0,3.0,900.0,0.0,0.0
974,51.0,1.0,30.0,0.0,0.0
975,43.0,30.0,30.0,1.0,0.0
976,39.0,17.0,900.0,1.0,0.0
977,44.0,28.0,30.0,1.0,0.0
978,53.0,2.0,30.0,0.0,0.0
979,51.0,0.0,30.0,0.0,0.0
980,43.0,28.0,30.0,1.0,0.0
981,53.0,29.0,30.0,0.0,0.0
982,44.0,1.0,30.0,1.0,0.0
983,46.0,31.0,30.0,1.0,0.0
984,55.0,1.0,30.0,0.0,0.0
985,44.0,3.0,30.0,1.0,0.0
986,53.0,27.0,30.0,0.0,0.0
987,46.0,28.0,30.0,1.0,0.0
988,55.0,1.0,30.0,0.0,0.0
989,43.0,3.0,30.0,1.0,0.0
990,51.0,27.0,30.0,0.0,0.0
991,44.0,29.0,30.0,1.0,0.0
992,53.0,1.0,30.0,0.0,0.0
993,62.0,12.0,240.0,0.0,0.0
994,55.0,30.0,30.0,0.0,0.0
995,46.0,0.0,30.0,1.0,0.0
996,44.0,0.0,30.0,1.0,0.0
997,53.0,30.0,30.0,0.0,0.0
998,55.0,28.0,30.0,0.0,0.0
999,46.0,2.0,30.0,1.0,0.0
1000,47.0,0.0,30.0,1.0,0.0
1001,56.0,30.0,30.0,0.0,0.0
1002,46.0,1.0,30.0,1.0,0.0
1003,55.0,30.0,30.0,0.0,0.0
1004,56.0,3.0,30.0,0.0,0.0
1005,47.0,15.0,30.0,1.0,0.0
1006,53.0,28.0,30.0,0.0,0.0
1007,44.0,1.0,30.0,1.0,0.0
1008,46.0,0.0,30.0,1.0,0.0
1009,61.0,11.0,180.0,0.0,0.0
1010,55.0,30.0,30.0,0.0,0.0
1011,48.0,2.0,30.0,1.0,0.0
1012,56.0,28.0,30.0,0.0,0.0
1013,46.0,27.0,30.0,1.0,0.0
1014,55.0,3.0,30.0,0.0,0.0
1015,48.0,2.0,30.0,1.0,0.0
1016,56.0,28.0,30.0,0.0,0.0
1017,49.0,19.0,30.0,1.0,0.0
1018,58.0,0.0,30.0,0.0,0.0
1019,56.0,28.0,30.0,0.0,0.0
1020,48.0,2.0,30.0,1.0,0.0
1021,60.0,3.0,30.0,0.0,0.0
1022,49.0,1.0,30.0,1.0,0.0
1023,58.0,27.0,30.0,0.0,0.0
1024,55.0,26.0,30.0,0.0,0.0
1025,46.0,1.0,30.0,1.0,0.0
1026,61.0,1.0,30.0,0.0,0.0
1027,47.0,2.0,30.0,1.0,0.0
1028,56.0,28.0,30.0,0.0,0.0
1029,59.0,3.0,120.0,0.0,0.0
1030,49.0,2.0,30.0,1.0,0.0
1031,58.0,28.0,30.0,0.0,0.0
1032,56.0,26.0,30.0,0.0,0.0
1033,47.0,1.0,30.0,1.0,0.0
1034,58.0,27.0,30.0,0.0,0.0
1035,49.0,3.0,30.0,1.0,0.0
1036,51.0,2.0,30.0,1.0,0.0
1037,59.0,29.0,30.0,0.0,0.0
1038,49.0,0.0,30.0,1.0,0.0
1039,58.0,11.0,30.0,0.0,0.0
1040,59.0,0.0,30.0,0.0,0.0
1041,51.0,24.0,30.0,1.0,0.0
1042,47.0,2.0,20.0,1.0,0.0
1043,56.0,34.0,30.0,0.0,0.0
1044,51.0,28.0,30.0,0.0,0.0
1045,57.0,4.0,210.0,0.0,0.0
1046,59.0,4.0,450.0,0.0,0.0
1047,66.0,8.0,240.0,0.0,0.0
1048,47.0,1.0,30.0,1.0,0.0
1049,52.0,0.0,30.0,0.0,0.0
1050,49.0,29.0,30.0,1.0,0.0
1051,51.0,30.0,30.0,0.0,0.0
1052,47.0,1.0,30.0,1.0,0.0
1053,49.0,0.0,30.0,1.0,0.0
1054,52.0,28.0,30.0,0.0,0.0
1055,54.0,1.0,30.0,0.0,0.0
1056,51.0,29.0,30.0,1.0,0.0
1057,52.0,16.0,30.0,0.0,0.0
1058,49.0,2.0,30.0,1.0,0.0
1059,35.0,12.0,15.0,1.0,0.0
1060,54.0,14.0,30.0,0.0,0.0
1061,51.0,3.0,30.0,1.0,0.0
1062,51.0,30.0,30.0,0.0,0.0
1063,47.0,2.0,30.0,1.0,0.0
1064,35.0,1.0,30.0,1.0,0.0
1065,64.0,30.0,30.0,0.0,0.0
1066,56.0,0.0,60.0,0.0,0.0
1067,40.0,4.0,120.0,1.0,0.0
1068,52.0,0.0,120.0,1.0,0.0
1069,68.0,30.0,30.0,0.0,0.0
1070,57.0,30.0,30.0,0.0,0.0
1071,66.0,0.0,30.0,0.0,0.0
1072,64.0,4.0,30.0,0.0,0.0
1073,56.0,23.0,30.0,0.0,0.0
1074,54.0,2.0,30.0,0.0,0.0
1075,63.0,24.0,30.0,0.0,0.0
1076,57.0,6.0,30.0,0.0,0.0
1077,66.0,14.0,30.0,0.0,0.0
1078,47.0,3.0,20.0,1.0,0.0
1079,64.0,2.0,30.0,0.0,0.0
1080,35.0,4.0,15.0,1.0,0.0
1081,56.0,25.0,30.0,0.0,0.0
1082,47.0,4.0,20.0,1.0,0.0
1083,35.0,1.0,30.0,1.0,0.0
1084,54.0,3.0,30.0,0.0,0.0
1085,63.0,26.0,30.0,0.0,0.0
1086,52.0,3.0,120.0,1.0,0.0
1087,40.0,19.0,120.0,1.0,0.0
1088,64.0,31.0,30.0,0.0,0.0
1089,59.0,0.0,450.0,0.0,0.0
1090,56.0,29.0,60.0,0.0,0.0
1091,68.0,1.0,30.0,0.0,0.0
1092,57.0,30.0,30.0,0.0,0.0
1093,66.0,0.0,30.0,0.0,0.0
1094,56.0,4.0,30.0,0.0,0.0
1095,64.0,5.0,30.0,0.0,0.0
1096,63.0,25.0,30.0,0.0,0.0
1097,54.0,1.0,30.0,0.0,0.0
1098,66.0,20.0,30.0,0.0,0.0
1099,57.0,4.0,30.0,0.0,0.0
1100,56.0,23.0,30.0,0.0,0.0
1101,47.0,8.0,20.0,1.0,0.0
1102,35.0,1.0,20.0,1.0,0.0
1103,64.0,1.0,30.0,0.0,0.0
1104,35.0,2.0,30.0,1.0,0.0
1105,47.0,4.0,20.0,1.0,0.0
1106,54.0,4.0,30.0,0.0,0.0
1107,63.0,28.0,30.0,0.0,0.0
1108,40.0,2.0,240.0,1.0,0.0
1109,52.0,10.0,240.0,1.0,0.0
1110,64.0,1.0,60.0,0.0,0.0
1111,56.0,28.0,30.0,0.0,0.0
1112,55.0,30.0,30.0,0.0,0.0
1113,63.0,5.0,120.0,0.0,0.0
1114,56.0,29.0,30.0,0.0,0.0
1115,55.0,31.0,30.0,0.0,0.0
1116,56.0,24.0,30.0,0.0,0.0
1117,55.0,34.0,30.0,0.0,0.0
1118,56.0,13.0,30.0,0.0,0.0
1119,62.0,4.0,60.0,0.0,0.0
1120,55.0,26.0,30.0,0.0,0.0
1121,56.0,4.0,120.0,0.0,0.0
1122,63.0,0.0,120.0,0.0,0.0
1123,60.0,51.0,120.0,0.0,0.0
1124,51.0,1.0,30.0,1.0,0.0
1125,39.0,25.0,30.0,1.0,0.0
1126,38.0,31.0,30.0,1.0,0.0
1127,50.0,4.0,20.0,1.0,0.0
1128,51.0,28.0,30.0,1.0,0.0
1129,39.0,2.0,30.0,1.0,0.0
1130,38.0,2.0,30.0,1.0,0.0
1131,50.0,3.0,30.0,1.0,0.0
1132,39.0,1.0,120.0,1.0,0.0
1133,51.0,0.0,120.0,1.0,0.0
1134,56.0,26.0,30.0,0.0,0.0
1135,60.0,2.0,30.0,0.0,0.0
1136,61.0,4.0,30.0,0.0,0.0
1137,58.0,26.0,30.0,0.0,0.0
1138,63.0,3.0,30.0,0.0,0.0
1139,60.0,11.0,30.0,0.0,0.0
1140,66.0,1.0,15.0,0.0,0.0
1141,63.0,19.0,15.0,0.0,0.0
1142,65.0,3.0,15.0,0.0,0.0
1143,61.0,24.0,20.0,0.0,0.0
1144,63.0,27.0,30.0,0.0,0.0
1145,60.0,4.0,30.0,0.0,0.0
1146,61.0,0.0,30.0,0.0,0.0
1147,65.0,28.0,30.0,0.0,0.0
1148,67.0,30.0,30.0,0.0,0.0
1149,63.0,1.0,30.0,0.0,0.0
1150,68.0,4.0,30.0,0.0,0.0
1151,65.0,26.0,30.0,0.0,0.0
1152,60.0,28.0,30.0,0.0,0.0
1153,64.0,1.0,30.0,0.0,0.0
1154,65.0,27.0,30.0,0.0,0.0
1155,61.0,1.0,30.0,0.0,0.0
1156,61.0,3.0,30.0,0.0,0.0
1157,58.0,16.0,30.0,0.0,0.0
1158,39.0,1.0,450.0,1.0,0.0
1159,60.0,12.0,15.0,0.0,0.0
1160,56.0,0.0,15.0,0.0,0.0
1161,58.0,2.0,15.0,0.0,0.0
1162,55.0,15.0,15.0,0.0,0.0
1163,60.0,14.0,15.0,0.0,0.0
1164,41.0,12.0,30.0,1.0,0.0
1165,56.0,0.0,15.0,0.0,0.0
1166,55.0,1.0,15.0,0.0,0.0
1167,58.0,1.0,15.0,0.0,0.0
1168,43.0,0.0,30.0,1.0,0.0
1169,60.0,12.0,15.0,0.0,0.0
1170,56.0,3.0,15.0,0.0,0.0
1171,55.0,2.0,15.0,0.0,0.0
1172,58.0,14.0,15.0,0.0,0.0
1173,44.0,2.0,30.0,1.0,0.0
1174,60.0,12.0,15.0,0.0,0.0
1175,56.0,2.0,15.0,0.0,0.0
1176,58.0,12.0,15.0,0.0,0.0
1177,55.0,1.0,15.0,0.0,0.0
1178,56.0,3.0,15.0,0.0,0.0
1179,60.0,12.0,15.0,0.0,0.0
1180,46.0,1.0,30.0,1.0,0.0
1181,55.0,16.0,15.0,0.0,0.0
1182,58.0,0.0,15.0,0.0,0.0
1183,56.0,1.0,15.0,0.0,0.0
1184,48.0,14.0,30.0,1.0,0.0
1185,60.0,13.0,15.0,0.0,0.0
1186,58.0,1.0,15.0,0.0,0.0
1187,55.0,0.0,15.0,0.0,0.0
1188,60.0,14.0,15.0,0.0,0.0
1189,56.0,1.0,15.0,0.0,0.0
1190,49.0,12.0,30.0,1.0,0.0
1191,58.0,5.0,15.0,0.0,0.0
1192,55.0,0.0,15.0,0.0,0.0
1193,50.0,2.0,30.0,1.0,0.0
1194,60.0,12.0,15.0,0.0,0.0
1195,56.0,1.0,15.0,0.0,0.0
1196,55.0,13.0,15.0,0.0,0.0
1197,58.0,0.0,15.0,0.0,0.0
1198,60.0,13.0,15.0,0.0,0.0
1199,56.0,2.0,15.0,0.0,0.0
1200,51.0,11.0,30.0,1.0,0.0
1201,58.0,3.0,15.0,0.0,0.0
1202,55.0,1.0,15.0,0.0,0.0
1203,56.0,14.0,15.0,0.0,0.0
1204,60.0,1.0,15.0,0.0,0.0
1205,50.0,1.0,30.0,1.0,0.0
1206,58.0,13.0,15.0,0.0,0.0
1207,55.0,1.0,15.0,0.0,0.0
1208,51.0,15.0,30.0,1.0,0.0
1209,60.0,12.0,15.0,0.0,0.0
1210,56.0,3.0,15.0,0.0,0.0
1211,58.0,1.0,15.0,0.0,0.0
1212,55.0,0.0,15.0,0.0,0.0
1213,53.0,14.0,30.0,1.0,0.0
1214,56.0,2.0,15.0,0.0,0.0
1215,60.0,11.0,15.0,0.0,0.0
1216,58.0,0.0,15.0,0.0,0.0
1217,55.0,2.0,15.0,0.0,0.0
1218,51.0,0.0,30.0,1.0,0.0
1219,60.0,12.0,15.0,0.0,0.0
1220,56.0,4.0,15.0,0.0,0.0
1221,58.0,13.0,15.0,0.0,0.0
1222,55.0,1.0,15.0,0.0,0.0
1223,53.0,12.0,30.0,1.0,0.0
1224,60.0,2.0,15.0,0.0,0.0
1225,56.0,13.0,15.0,0.0,0.0
1226,58.0,2.0,15.0,0.0,0.0
1227,55.0,1.0,15.0,0.0,0.0
1228,60.0,11.0,15.0,0.0,0.0
1229,56.0,2.0,15.0,0.0,0.0
1230,49.0,0.0,30.0,1.0,0.0
1231,55.0,1.0,15.0,0.0,0.0
1232,58.0,17.0,15.0,0.0,0.0
1233,56.0,2.0,15.0,0.0,0.0
1234,51.0,1.0,30.0,1.0,0.0
1235,58.0,2.0,15.0,0.0,0.0
1236,55.0,28.0,15.0,0.0,0.0
1237,48.0,1.0,60.0,1.0,0.0
1238,44.0,19.0,60.0,1.0,0.0
1239,56.0,31.0,30.0,0.0,0.0
1240,60.0,10.0,30.0,0.0,0.0
1241,63.0,22.0,30.0,0.0,0.0
1242,68.0,17.0,20.0,0.0,0.0
1243,55.0,20.0,15.0,0.0,0.0
1244,41.0,3.0,90.0,1.0,0.0
1245,44.0,0.0,90.0,1.0,0.0
1246,48.0,1.0,90.0,1.0,0.0
1247,53.0,33.0,30.0,0.0,0.0
1248,56.0,23.0,30.0,0.0,0.0
1249,60.0,20.0,30.0,0.0,0.0
1250,65.0,39.0,20.0,0.0,0.0
1251,49.0,37.0,30.0,0.0,0.0
1252,37.0,1.0,90.0,1.0,0.0
1253,44.0,1.0,90.0,1.0,0.0
1254,46.0,12.0,90.0,1.0,0.0
1255,53.0,11.0,30.0,0.0,0.0
1256,58.0,27.0,30.0,0.0,0.0
1257,61.0,33.0,30.0,0.0,0.0
1258,51.0,30.0,30.0,0.0,0.0
1259,46.0,1.0,60.0,1.0,0.0
1260,43.0,0.0,60.0,1.0,0.0
1261,39.0,17.0,60.0,1.0,0.0
1262,55.0,11.0,30.0,0.0,0.0
1263,58.0,29.0,30.0,0.0,0.0
1264,63.0,31.0,30.0,0.0,0.0
1265,44.0,28.0,30.0,1.0,0.0
1266,56.0,2.0,60.0,0.0,0.0
1267,60.0,23.0,60.0,0.0,0.0
1268,48.0,4.0,30.0,1.0,0.0
1269,51.0,29.0,30.0,1.0,0.0
1270,56.0,36.0,30.0,1.0,0.0
1271,60.0,1.0,60.0,0.0,0.0
1272,68.0,25.0,60.0,0.0,0.0
1273,41.0,28.0,30.0,1.0,0.0
1274,44.0,5.0,30.0,1.0,0.0
1275,48.0,25.0,30.0,1.0,0.0
1276,53.0,33.0,30.0,1.0,0.0
1277,58.0,15.0,60.0,0.0,0.0
1278,37.0,32.0,30.0,1.0,0.0
1279,65.0,2.0,60.0,0.0,0.0
1280,68.0,0.0,60.0,0.0,0.0
1281,41.0,10.0,30.0,1.0,0.0
1282,46.0,29.0,30.0,1.0,0.0
1283,49.0,33.0,30.0,1.0,0.0
1284,39.0,33.0,30.0,1.0,0.0
1285,63.0,1.0,90.0,0.0,0.0
1286,67.0,4.0,90.0,0.0,0.0
1287,58.0,2.0,90.0,0.0,0.0
1288,61.0,1.0,90.0,0.0,0.0
1289,43.0,17.0,30.0,1.0,0.0
1290,46.0,32.0,30.0,1.0,0.0
1291,51.0,46.0,30.0,1.0,0.0
1292,60.0,3.0,60.0,0.0,0.0
1293,44.0,5.0,60.0,1.0,0.0
1294,68.0,49.0,60.0,0.0,0.0
1295,63.0,1.0,60.0,0.0,0.0
1296,32.0,2.0,60.0,1.0,0.0
1297,48.0,0.0,60.0,0.0,0.0
1298,51.0,52.0,60.0,0.0,0.0
1299,32.0,4.0,60.0,1.0,0.0
1300,44.0,0.0,60.0,1.0,0.0
1301,56.0,1.0,60.0,0.0,0.0
1302,51.0,58.0,60.0,0.0,0.0
1303,32.0,2.0,30.0,1.0,0.0
1304,48.0,1.0,60.0,0.0,0.0
1305,44.0,1.0,30.0,1.0,0.0
1306,56.0,0.0,60.0,0.0,0.0
1307,32.0,1.0,30.0,1.0,0.0
1308,44.0,0.0,60.0,1.0,0.0
1309,56.0,128.0,60.0,0.0,0.0
1310,51.0,0.0,60.0,0.0,0.0
1311,48.0,1.0,60.0,0.0,0.0
1312,32.0,3.0,120.0,1.0,0.0
1313,56.0,2.0,120.0,0.0,0.0
1314,48.0,0.0,120.0,0.0,0.0
1315,44.0,245.0,120.0,1.0,0.0
1316,51.0,0.0,120.0,0.0,0.0
1317,53.0,0.0,120.0,1.0,0.0
1318,37.0,1.0,120.0,1.0,0.0
1319,49.0,1.0,120.0,1.0,0.0
1320,56.0,63.0,120.0,0.0,0.0
1321,61.0,5.0,120.0,0.0,0.0
1322,61.0,20.0,20.0,0.0,0.0
1323,49.0,1.0,20.0,1.0,0.0
1324,56.0,5.0,15.0,0.0,0.0
1325,53.0,2.0,20.0,1.0,0.0
1326,37.0,0.0,20.0,1.0,0.0
1327,49.0,2.0,15.0,1.0,0.0
1328,56.0,4.0,15.0,0.0,0.0
1329,61.0,136.0,20.0,0.0,0.0
1330,37.0,2.0,20.0,1.0,0.0
1331,53.0,1.0,20.0,1.0,0.0
1332,51.0,6.0,120.0,1.0,0.0
1333,48.0,1.0,120.0,1.0,0.0
1334,36.0,3.0,120.0,1.0,0.0
1335,63.0,54.0,150.0,0.0,0.0
1336,56.0,5.0,150.0,0.0,0.0
1337,56.0,26.0,20.0,0.0,0.0
1338,63.0,1.0,20.0,0.0,0.0
1339,48.0,0.0,20.0,1.0,0.0
1340,51.0,2.0,15.0,1.0,0.0
1341,36.0,0.0,20.0,1.0,0.0
1342,56.0,2.0,20.0,0.0,0.0
1343,36.0,1.0,20.0,1.0,0.0
1344,48.0,1.0,15.0,1.0,0.0
1345,63.0,141.0,20.0,0.0,0.0
1346,51.0,2.0,15.0,1.0,0.0
1347,65.0,1.0,150.0,0.0,0.0
1348,61.0,46.0,150.0,0.0,0.0
1349,34.0,1.0,120.0,1.0,0.0
1350,46.0,1.0,120.0,1.0,0.0
1351,53.0,8.0,150.0,1.0,0.0
1352,49.0,4.0,120.0,1.0,0.0
1353,61.0,2.0,15.0,0.0,0.0
1354,34.0,25.0,20.0,1.0,0.0
1355,49.0,0.0,15.0,1.0,0.0
1356,53.0,1.0,15.0,1.0,0.0
1357,46.0,1.0,15.0,1.0,0.0
1358,65.0,1.0,15.0,0.0,0.0
1359,61.0,1.0,15.0,0.0,0.0
1360,49.0,1.0,15.0,1.0,0.0
1361,53.0,1.0,15.0,1.0,0.0
1362,46.0,0.0,15.0,1.0,0.0
1363,34.0,5.0,15.0,1.0,0.0
1364,65.0,140.0,20.0,0.0,0.0
1365,56.0,1.0,150.0,1.0,0.0
1366,32.0,1.0,120.0,1.0,0.0
1367,63.0,3.0,120.0,0.0,0.0
1368,48.0,55.0,150.0,1.0,0.0
1369,60.0,1.0,120.0,0.0,0.0
1370,68.0,5.0,150.0,0.0,0.0
1371,51.0,1.0,150.0,1.0,0.0
1372,44.0,0.0,150.0,1.0,0.0
1373,42.0,0.0,20.0,1.0,0.0
1374,56.0,0.0,20.0,0.0,0.0
1375,48.0,1.0,20.0,1.0,0.0
1376,51.0,26.0,20.0,0.0,0.0
1377,42.0,2.0,15.0,1.0,0.0
1378,48.0,0.0,15.0,1.0,0.0
1379,56.0,68.0,20.0,0.0,0.0
1380,51.0,2.0,15.0,0.0,0.0
1381,53.0,20.0,150.0,0.0,0.0
1382,49.0,5.0,120.0,1.0,0.0
1383,61.0,60.0,60.0,0.0,0.0
1384,41.0,22.0,120.0,1.0,0.0
1385,56.0,1.0,150.0,0.0,0.0
1386,63.0,9.0,60.0,0.0,0.0
1387,65.0,50.0,60.0,0.0,0.0
1388,56.0,103.0,60.0,0.0,0.0
1389,49.0,8.0,30.0,0.0,0.0
1390,41.0,12.0,60.0,1.0,0.0
1391,49.0,9.0,120.0,0.0,0.0
1392,58.0,3.0,120.0,0.0,0.0
1393,42.0,102.0,120.0,1.0,0.0
1394,61.0,0.0,240.0,0.0,0.0
1395,56.0,10.0,90.0,0.0,0.0
1396,41.0,1.0,120.0,1.0,0.0
1397,49.0,24.0,120.0,1.0,0.0
1398,39.0,7.0,120.0,1.0,0.0
1399,51.0,5.0,240.0,1.0,0.0
1400,56.0,11.0,15.0,0.0,0.0
1401,54.0,19.0,15.0,0.0,0.0
1402,56.0,13.0,15.0,0.0,0.0
1403,54.0,17.0,15.0,0.0,0.0
1404,56.0,14.0,15.0,0.0,0.0
1405,54.0,12.0,15.0,0.0,0.0
1406,53.0,9.0,15.0,0.0,0.0
1407,54.0,57.0,15.0,0.0,0.0
1408,32.0,3.0,120.0,1.0,0.0
1409,60.0,122.0,120.0,0.0,0.0
1410,56.0,55.0,60.0,0.0,0.0
1411,54.0,1.0,60.0,0.0,0.0
1412,53.0,1.0,120.0,0.0,0.0
1413,61.0,0.0,120.0,0.0,0.0
1414,37.0,55.0,120.0,1.0,0.0
1415,49.0,1.0,120.0,1.0,0.0
1416,53.0,3.0,30.0,0.0,0.0
1417,56.0,26.0,30.0,0.0,0.0
1418,58.0,31.0,30.0,0.0,0.0
1419,54.0,1.0,30.0,0.0,0.0
1420,60.0,26.0,30.0,0.0,0.0
1421,56.0,0.0,30.0,0.0,0.0
1422,61.0,4.0,30.0,0.0,0.0
1423,58.0,27.0,30.0,0.0,0.0
1424,63.0,27.0,30.0,0.0,0.0
1425,60.0,3.0,30.0,0.0,0.0
1426,61.0,2.0,30.0,0.0,0.0
1427,65.0,31.0,30.0,0.0,0.0
1428,63.0,53.0,30.0,0.0,0.0
1429,66.0,0.0,30.0,0.0,0.0
1430,65.0,1.0,180.0,0.0,0.0
1431,68.0,17.0,180.0,0.0,0.0
1432,49.0,6.0,20.0,1.0,0.0
1433,53.0,25.0,30.0,1.0,0.0
1434,51.0,1.0,20.0,1.0,0.0
1435,54.0,32.0,20.0,1.0,0.0
1436,53.0,1.0,30.0,1.0,0.0
1437,56.0,27.0,30.0,1.0,0.0
1438,58.0,31.0,20.0,1.0,0.0
1439,54.0,0.0,20.0,1.0,0.0
1440,53.0,0.0,30.0,1.0,0.0
1441,56.0,2.0,30.0,1.0,0.0
1442,63.0,0.0,60.0,0.0,0.0
1443,66.0,57.0,60.0,0.0,0.0
1444,54.0,2.0,15.0,1.0,0.0
1445,58.0,31.0,15.0,1.0,0.0
1446,60.0,15.0,20.0,1.0,0.0
1447,56.0,0.0,20.0,1.0,0.0
1448,65.0,20.0,90.0,0.0,0.0
1449,61.0,5.0,240.0,0.0,0.0
1450,58.0,3.0,240.0,1.0,0.0
1451,46.0,25.0,30.0,1.0,0.0
1452,44.0,14.0,30.0,1.0,0.0
1453,46.0,16.0,30.0,1.0,0.0
1454,42.0,16.0,30.0,1.0,0.0
1455,65.0,13.0,15.0,0.0,0.0
1456,63.0,3.0,15.0,0.0,0.0
1457,39.0,17.0,30.0,1.0,0.0
1458,65.0,11.0,15.0,0.0,0.0
1459,63.0,1.0,15.0,0.0,0.0
1460,65.0,14.0,15.0,0.0,0.0
1461,41.0,12.0,30.0,1.0,0.0
1462,63.0,3.0,15.0,0.0,0.0
1463,42.0,16.0,30.0,1.0,0.0
1464,65.0,6.0,15.0,0.0,0.0
1465,63.0,0.0,15.0,0.0,0.0
1466,60.0,52.0,120.0,0.0,0.0
1467,65.0,14.0,15.0,0.0,0.0
1468,56.0,30.0,60.0,1.0,0.0
1469,44.0,17.0,30.0,1.0,0.0
1470,63.0,0.0,15.0,0.0,0.0
1471,42.0,0.0,30.0,1.0,0.0
1472,65.0,12.0,15.0,0.0,0.0
1473,63.0,1.0,15.0,0.0,0.0
1474,44.0,1.0,30.0,1.0,0.0
1475,54.0,4.0,60.0,1.0,0.0
1476,61.0,27.0,30.0,0.0,0.0
1477,63.0,0.0,30.0,0.0,0.0
1478,32.0,3.0,30.0,1.0,0.0
1479,61.0,32.0,60.0,0.0,0.0
1480,53.0,2.0,120.0,1.0,0.0
1481,37.0,4.0,120.0,1.0,0.0
1482,65.0,25.0,30.0,0.0,0.0
1483,63.0,31.0,30.0,0.0,0.0
1484,61.0,32.0,30.0,0.0,0.0
1485,60.0,28.0,30.0,0.0,0.0
1486,41.0,3.0,60.0,1.0,0.0
1487,37.0,2.0,60.0,1.0,0.0
1488,49.0,3.0,120.0,0.0,0.0
1489,58.0,26.0,30.0,0.0,0.0
1490,56.0,57.0,30.0,0.0,0.0
1491,39.0,8.0,120.0,1.0,0.0
1492,42.0,2.0,120.0,1.0,0.0
1493,54.0,21.0,60.0,0.0,0.0
1494,48.0,18.0,60.0,0.0,0.0
1495,66.0,39.0,20.0,0.0,0.0
1496,65.0,1.0,30.0,0.0,0.0
1497,63.0,30.0,30.0,0.0,0.0
1498,61.0,25.0,30.0,0.0,0.0
1499,42.0,0.0,60.0,1.0,0.0
1500,51.0,2.0,120.0,0.0,0.0
1501,60.0,34.0,30.0,0.0,0.0
1502,39.0,1.0,60.0,1.0,0.0
1503,58.0,56.0,30.0,0.0,0.0
1504,56.0,32.0,60.0,0.0,0.0
1505,41.0,0.0,120.0,1.0,0.0
1506,44.0,20.0,120.0,1.0,0.0
1507,68.0,29.0,30.0,0.0,0.0
1508,49.0,1.0,60.0,0.0,0.0
1509,66.0,10.0,30.0,0.0,0.0
1510,65.0,27.0,30.0,0.0,0.0
1511,63.0,31.0,30.0,0.0,0.0
1512,53.0,1.0,120.0,0.0,0.0
1513,61.0,27.0,30.0,0.0,0.0
1514,44.0,3.0,60.0,1.0,0.0
1515,41.0,1.0,60.0,1.0,0.0
1516,60.0,58.0,30.0,0.0,0.0
1517,42.0,4.0,120.0,1.0,0.0
1518,46.0,18.0,120.0,1.0,0.0
1519,58.0,34.0,60.0,0.0,0.0
1520,51.0,8.0,60.0,0.0,0.0
1521,70.0,29.0,30.0,0.0,0.0
1522,68.0,1.0,30.0,0.0,0.0
1523,66.0,27.0,30.0,0.0,0.0
1524,65.0,4.0,30.0,0.0,0.0
1525,61.0,26.0,30.0,0.0,0.0
1526,63.0,1.0,30.0,0.0,0.0
1527,60.0,17.0,30.0,0.0,0.0
1528,43.0,2.0,60.0,1.0,0.0
1529,51.0,10.0,60.0,1.0,0.0
1530,61.0,29.0,30.0,0.0,0.0
1531,58.0,3.0,30.0,0.0,0.0
1532,60.0,13.0,120.0,0.0,0.0
1533,56.0,2.0,150.0,0.0,0.0
1534,51.0,11.0,120.0,1.0,0.0
1535,44.0,55.0,30.0,1.0,0.0
1536,44.0,32.0,30.0,1.0,0.0
1537,43.0,3.0,30.0,1.0,0.0
1538,41.0,33.0,30.0,1.0,0.0
1539,39.0,29.0,30.0,1.0,0.0
1540,37.0,25.0,30.0,1.0,0.0
1541,56.0,26.0,120.0,0.0,0.0
1542,51.0,3.0,60.0,1.0,0.0
1543,60.0,54.0,60.0,0.0,0.0
1544,36.0,6.0,30.0,1.0,0.0
1545,61.0,1.0,60.0,0.0,0.0
1546,49.0,1.0,120.0,1.0,0.0
1547,46.0,29.0,30.0,1.0,0.0
1548,58.0,2.0,90.0,0.0,0.0
1549,55.0,15.0,60.0,0.0,0.0
1550,44.0,9.0,30.0,1.0,0.0
1551,43.0,33.0,20.0,1.0,0.0
1552,41.0,25.0,30.0,1.0,0.0
1553,39.0,26.0,30.0,1.0,0.0
1554,55.0,5.0,20.0,1.0,0.0
1555,61.0,49.0,60.0,0.0,0.0
1556,58.0,3.0,120.0,0.0,0.0
1557,37.0,2.0,30.0,1.0,0.0
1558,53.0,10.0,30.0,1.0,0.0
1559,36.0,9.0,60.0,1.0,0.0
1560,51.0,22.0,120.0,1.0,0.0
1561,63.0,21.0,60.0,0.0,0.0
1562,48.0,30.0,30.0,1.0,0.0
1563,60.0,27.0,90.0,0.0,0.0
1564,56.0,5.0,90.0,0.0,0.0
1565,46.0,2.0,30.0,1.0,0.0
1566,44.0,4.0,30.0,1.0,0.0
1567,43.0,29.0,30.0,1.0,0.0
1568,41.0,29.0,30.0,1.0,0.0
1569,56.0,1.0,30.0,1.0,0.0
1570,63.0,4.0,60.0,0.0,0.0
1571,60.0,36.0,120.0,0.0,0.0
1572,39.0,4.0,30.0,1.0,0.0
1573,55.0,55.0,30.0,1.0,0.0
1574,65.0,5.0,180.0,0.0,0.0
1575,37.0,2.0,60.0,1.0,0.0
1576,53.0,5.0,120.0,1.0,0.0
1577,58.0,25.0,60.0,0.0,0.0
1578,49.0,21.0,30.0,1.0,0.0
1579,48.0,9.0,30.0,1.0,0.0
1580,46.0,24.0,30.0,1.0,0.0
1581,44.0,25.0,30.0,1.0,0.0
1582,50.0,3.0,60.0,0.0,0.0
1583,56.0,7.0,60.0,0.0,0.0
1584,46.0,3.0,20.0,1.0,0.0
1585,43.0,15.0,30.0,1.0,0.0
1586,41.0,40.0,30.0,1.0,0.0
1587,46.0,7.0,15.0,1.0,0.0
1588,55.0,3.0,60.0,0.0,0.0
1589,51.0,18.0,30.0,0.0,0.0
1590,39.0,24.0,60.0,1.0,0.0
1591,46.0,1.0,60.0,1.0,0.0
1592,70.0,2.0,30.0,0.0,0.0
1593,67.0,30.0,30.0,0.0,0.0
1594,65.0,23.0,30.0,0.0,0.0
1595,68.0,7.0,30.0,0.0,0.0
1596,67.0,1.0,30.0,0.0,0.0
1597,63.0,26.0,30.0,0.0,0.0
1598,65.0,2.0,30.0,0.0,0.0
1599,61.0,27.0,30.0,0.0,0.0
1600,63.0,25.0,30.0,0.0,0.0
1601,60.0,4.0,30.0,0.0,0.0
1602,61.0,22.0,30.0,0.0,0.0
1603,58.0,1.0,90.0,0.0,0.0
1604,61.0,11.0,15.0,0.0,0.0
1605,44.0,18.0,30.0,1.0,0.0
1606,60.0,0.0,15.0,0.0,0.0
1607,43.0,3.0,30.0,1.0,0.0
1608,61.0,11.0,15.0,0.0,0.0
1609,60.0,16.0,15.0,0.0,0.0
1610,39.0,1.0,60.0,1.0,0.0
1611,44.0,15.0,30.0,1.0,0.0
1612,61.0,13.0,15.0,0.0,0.0
1613,51.0,3.0,60.0,0.0,0.0
1614,60.0,2.0,15.0,0.0,0.0
1615,61.0,8.0,15.0,0.0,0.0
1616,46.0,3.0,30.0,1.0,0.0
1617,60.0,14.0,15.0,0.0,0.0
1618,61.0,12.0,15.0,0.0,0.0
1619,48.0,3.0,30.0,1.0,0.0
1620,36.0,2.0,60.0,1.0,0.0
1621,56.0,36.0,150.0,0.0,0.0
1622,60.0,16.0,15.0,0.0,0.0
1623,46.0,1.0,30.0,1.0,0.0
1624,61.0,9.0,15.0,0.0,0.0
1625,60.0,29.0,15.0,0.0,0.0
1626,58.0,3.0,30.0,0.0,0.0
1627,48.0,26.0,30.0,1.0,0.0
1628,32.0,2.0,60.0,1.0,0.0
1629,60.0,18.0,30.0,0.0,0.0
1630,50.0,0.0,30.0,1.0,0.0
1631,58.0,10.0,60.0,0.0,0.0
1632,39.0,4.0,120.0,1.0,0.0
1633,51.0,3.0,120.0,1.0,0.0
1634,55.0,24.0,30.0,0.0,0.0
1635,67.0,1.0,30.0,0.0,0.0
1636,70.0,25.0,30.0,0.0,0.0
1637,68.0,5.0,30.0,0.0,0.0
1638,65.0,24.0,30.0,0.0,0.0
1639,67.0,1.0,30.0,0.0,0.0
1640,63.0,27.0,30.0,0.0,0.0
1641,61.0,1.0,30.0,0.0,0.0
1642,65.0,30.0,30.0,0.0,0.0
1643,39.0,0.0,30.0,1.0,0.0
1644,60.0,3.0,30.0,0.0,0.0
1645,63.0,0.0,30.0,0.0,0.0
1646,41.0,19.0,30.0,1.0,0.0
1647,61.0,8.0,20.0,0.0,0.0
1648,58.0,17.0,90.0,0.0,0.0
1649,43.0,21.0,30.0,1.0,0.0
1650,61.0,8.0,20.0,0.0,0.0
1651,44.0,3.0,30.0,1.0,0.0
1652,60.0,15.0,15.0,0.0,0.0
1653,43.0,2.0,30.0,1.0,0.0
1654,61.0,12.0,15.0,0.0,0.0
1655,60.0,0.0,15.0,0.0,0.0
1656,44.0,12.0,30.0,1.0,0.0
1657,39.0,0.0,60.0,1.0,0.0
1658,61.0,12.0,15.0,0.0,0.0
1659,51.0,2.0,60.0,0.0,0.0
1660,60.0,4.0,15.0,0.0,0.0
1661,61.0,12.0,15.0,0.0,0.0
1662,46.0,1.0,30.0,1.0,0.0
1663,60.0,15.0,15.0,0.0,0.0
1664,48.0,18.0,30.0,1.0,0.0
1665,61.0,13.0,15.0,0.0,0.0
1666,56.0,3.0,120.0,0.0,0.0
1667,36.0,29.0,60.0,1.0,0.0
1668,60.0,1.0,15.0,0.0,0.0
1669,46.0,2.0,30.0,1.0,0.0
1670,61.0,8.0,15.0,0.0,0.0
1671,60.0,3.0,15.0,0.0,0.0
1672,48.0,1.0,30.0,1.0,0.0
1673,32.0,1.0,60.0,1.0,0.0
1674,58.0,24.0,30.0,0.0,0.0
1675,50.0,2.0,30.0,1.0,0.0
1676,60.0,29.0,30.0,0.0,0.0
1677,58.0,5.0,120.0,0.0,0.0
1678,55.0,28.0,120.0,0.0,0.0
1679,39.0,27.0,30.0,1.0,0.0
1680,51.0,6.0,120.0,1.0,0.0
1681,38.0,32.0,30.0,1.0,0.0
1682,39.0,24.0,30.0,1.0,0.0
1683,41.0,0.0,30.0,1.0,0.0
1684,39.0,28.0,30.0,1.0,0.0
1685,36.0,28.0,30.0,1.0,0.0
1686,37.0,33.0,30.0,1.0,0.0
1687,34.0,27.0,30.0,1.0,0.0
1688,44.0,2.0,30.0,1.0,0.0
1689,32.0,21.0,120.0,1.0,0.0
1690,48.0,27.0,30.0,0.0,0.0
1691,49.0,28.0,30.0,0.0,0.0
1692,46.0,3.0,30.0,1.0,0.0
1693,48.0,31.0,30.0,0.0,0.0
1694,44.0,2.0,30.0,1.0,0.0
1695,49.0,7.0,30.0,0.0,0.0
1696,46.0,1.0,30.0,1.0,0.0
1697,51.0,0.0,30.0,0.0,0.0
1698,48.0,33.0,30.0,1.0,0.0
1699,49.0,13.0,30.0,0.0,0.0
1700,46.0,1.0,30.0,1.0,0.0
1701,48.0,4.0,20.0,1.0,0.0
1702,39.0,8.0,15.0,1.0,0.0
1703,55.0,0.0,60.0,0.0,0.0
1704,51.0,28.0,30.0,0.0,0.0
1705,49.0,31.0,30.0,0.0,0.0
1706,46.0,1.0,30.0,1.0,0.0
1707,39.0,1.0,30.0,1.0,0.0
1708,56.0,1.0,60.0,0.0,0.0
1709,48.0,2.0,30.0,0.0,0.0
1710,44.0,27.0,30.0,1.0,0.0
1711,32.0,1.0,120.0,1.0,0.0
1712,49.0,4.0,30.0,0.0,0.0
1713,46.0,28.0,30.0,1.0,0.0
1714,48.0,0.0,30.0,0.0,0.0
1715,44.0,28.0,30.0,1.0,0.0
1716,49.0,3.0,30.0,0.0,0.0
1717,46.0,0.0,30.0,1.0,0.0
1718,48.0,1.0,30.0,1.0,0.0
1719,51.0,25.0,15.0,0.0,0.0
1720,46.0,3.0,30.0,1.0,0.0
1721,49.0,17.0,30.0,0.0,0.0
1722,39.0,8.0,15.0,1.0,0.0
1723,48.0,8.0,30.0,1.0,0.0
1724,51.0,18.0,30.0,0.0,0.0
1725,55.0,3.0,60.0,0.0,0.0
1726,39.0,4.0,20.0,1.0,0.0
1727,46.0,3.0,30.0,1.0,0.0
1728,49.0,52.0,30.0,0.0,0.0
1729,32.0,27.0,60.0,1.0,0.0
1730,44.0,1.0,120.0,1.0,0.0
1731,48.0,71.0,120.0,0.0,0.0
1732,56.0,2.0,60.0,0.0,0.0
1733,60.0,24.0,20.0,0.0,0.0
1734,63.0,12.0,210.0,0.0,0.0
1735,36.0,27.0,60.0,1.0,0.0
1736,60.0,1.0,30.0,0.0,0.0
1737,56.0,5.0,30.0,1.0,0.0
1738,55.0,0.0,30.0,1.0,0.0
1739,58.0,28.0,30.0,0.0,0.0
1740,53.0,0.0,30.0,1.0,0.0
1741,56.0,30.0,30.0,0.0,0.0
1742,51.0,0.0,30.0,1.0,0.0
1743,39.0,2.0,120.0,1.0,0.0
1744,55.0,30.0,30.0,0.0,0.0
1745,56.0,28.0,30.0,0.0,0.0
1746,53.0,2.0,30.0,1.0,0.0
1747,51.0,11.0,30.0,1.0,0.0
1748,55.0,4.0,30.0,0.0,0.0
1749,53.0,16.0,30.0,0.0,0.0
1750,49.0,1.0,30.0,1.0,0.0
1751,48.0,11.0,30.0,1.0,0.0
1752,56.0,11.0,15.0,0.0,0.0
1753,51.0,4.0,30.0,0.0,0.0
1754,55.0,2.0,15.0,0.0,0.0
1755,49.0,2.0,30.0,1.0,0.0
1756,56.0,16.0,15.0,0.0,0.0
1757,53.0,16.0,30.0,0.0,0.0
1758,55.0,1.0,15.0,0.0,0.0
1759,51.0,0.0,30.0,0.0,0.0
1760,56.0,10.0,20.0,0.0,0.0
1761,48.0,2.0,30.0,1.0,0.0
1762,55.0,16.0,15.0,0.0,0.0
1763,46.0,2.0,30.0,1.0,0.0
1764,53.0,9.0,15.0,0.0,0.0
1765,49.0,2.0,30.0,0.0,0.0
1766,55.0,46.0,15.0,0.0,0.0
1767,44.0,28.0,60.0,1.0,0.0
1768,56.0,7.0,120.0,0.0,0.0
1769,48.0,14.0,60.0,0.0,0.0
1770,60.0,22.0,30.0,0.0,0.0
1771,56.0,2.0,30.0,1.0,0.0
1772,58.0,30.0,30.0,1.0,0.0
1773,61.0,1.0,30.0,0.0,0.0
1774,63.0,1.0,30.0,0.0,0.0
1775,60.0,26.0,30.0,1.0,0.0
1776,58.0,2.0,30.0,1.0,0.0
1777,61.0,17.0,30.0,0.0,0.0
1778,63.0,23.0,30.0,0.0,0.0
1779,60.0,4.0,20.0,1.0,0.0
1780,39.0,9.0,15.0,1.0,0.0
1781,51.0,0.0,15.0,1.0,0.0
1782,67.0,1.0,60.0,0.0,0.0
1783,58.0,4.0,30.0,1.0,0.0
1784,61.0,29.0,30.0,0.0,0.0
1785,39.0,3.0,20.0,1.0,0.0
1786,51.0,3.0,20.0,1.0,0.0
1787,68.0,3.0,60.0,0.0,0.0
1788,60.0,0.0,30.0,0.0,0.0
1789,56.0,20.0,30.0,1.0,0.0
1790,44.0,4.0,60.0,1.0,0.0
1791,58.0,2.0,30.0,1.0,0.0
1792,61.0,28.0,30.0,0.0,0.0
1793,60.0,1.0,30.0,0.0,0.0
1794,63.0,10.0,60.0,0.0,0.0
1795,56.0,21.0,30.0,1.0,0.0
1796,61.0,1.0,30.0,0.0,0.0
1797,58.0,27.0,30.0,1.0,0.0
1798,60.0,28.0,30.0,1.0,0.0
1799,63.0,1.0,30.0,0.0,0.0
1800,58.0,3.0,30.0,1.0,0.0
1801,61.0,13.0,30.0,0.0,0.0
1802,63.0,21.0,30.0,0.0,0.0
1803,67.0,7.0,60.0,0.0,0.0
1804,60.0,3.0,20.0,1.0,0.0
1805,39.0,1.0,15.0,1.0,0.0
1806,51.0,8.0,15.0,1.0,0.0
1807,58.0,2.0,30.0,1.0,0.0
1808,51.0,10.0,15.0,1.0,0.0
1809,61.0,47.0,30.0,0.0,0.0
1810,39.0,0.0,30.0,1.0,0.0
1811,56.0,1.0,60.0,1.0,0.0
1812,44.0,3.0,60.0,1.0,0.0
1813,68.0,20.0,60.0,0.0,0.0
1814,60.0,48.0,15.0,0.0,0.0
1815,63.0,11.0,210.0,0.0,0.0
1816,36.0,21.0,60.0,1.0,0.0
1817,60.0,10.0,30.0,0.0,0.0
1818,56.0,3.0,30.0,1.0,0.0
1819,55.0,1.0,30.0,1.0,0.0
1820,58.0,29.0,30.0,0.0,0.0
1821,53.0,1.0,30.0,1.0,0.0
1822,56.0,28.0,30.0,0.0,0.0
1823,55.0,0.0,30.0,0.0,0.0
1824,51.0,29.0,30.0,1.0,0.0
1825,39.0,4.0,120.0,1.0,0.0
1826,56.0,27.0,30.0,0.0,0.0
1827,53.0,4.0,30.0,1.0,0.0
1828,55.0,1.0,30.0,0.0,0.0
1829,51.0,9.0,30.0,1.0,0.0
1830,53.0,15.0,30.0,0.0,0.0
1831,49.0,5.0,20.0,1.0,0.0
1832,48.0,16.0,30.0,1.0,0.0
1833,51.0,1.0,30.0,0.0,0.0
1834,56.0,15.0,15.0,0.0,0.0
1835,55.0,0.0,15.0,0.0,0.0
1836,49.0,15.0,30.0,1.0,0.0
1837,56.0,15.0,15.0,0.0,0.0
1838,53.0,1.0,30.0,0.0,0.0
1839,55.0,0.0,15.0,0.0,0.0
1840,48.0,15.0,30.0,1.0,0.0
1841,51.0,1.0,30.0,0.0,0.0
1842,56.0,12.0,15.0,0.0,0.0
1843,55.0,0.0,15.0,0.0,0.0
1844,53.0,10.0,15.0,0.0,0.0
1845,49.0,31.0,30.0,0.0,0.0
1846,46.0,2.0,30.0,1.0,0.0
1847,55.0,1.0,15.0,0.0,0.0
1848,44.0,6.0,810.0,1.0,0.0
1849,56.0,9.0,240.0,0.0,0.0
1850,48.0,27.0,30.0,0.0,0.0
1851,32.0,0.0,30.0,1.0,0.0
1852,34.0,1.0,30.0,1.0,0.0
1853,49.0,34.0,30.0,0.0,0.0
1854,32.0,27.0,30.0,1.0,0.0
1855,48.0,1.0,30.0,0.0,0.0
1856,34.0,3.0,30.0,1.0,0.0
1857,49.0,24.0,30.0,0.0,0.0
1858,51.0,29.0,30.0,0.0,0.0
1859,36.0,4.0,30.0,1.0,0.0
1860,34.0,2.0,30.0,1.0,0.0
1861,49.0,28.0,30.0,0.0,0.0
1862,36.0,20.0,30.0,1.0,0.0
1863,51.0,1.0,30.0,0.0,0.0
1864,48.0,28.0,30.0,0.0,0.0
1865,32.0,2.0,30.0,1.0,0.0
1866,55.0,21.0,210.0,0.0,0.0
1867,49.0,0.0,30.0,0.0,0.0
1868,34.0,30.0,30.0,1.0,0.0
1869,51.0,30.0,30.0,0.0,0.0
1870,36.0,0.0,30.0,1.0,0.0
1871,49.0,1.0,30.0,0.0,0.0
1872,34.0,29.0,30.0,1.0,0.0
1873,36.0,5.0,30.0,1.0,0.0
1874,51.0,25.0,30.0,0.0,0.0
1875,37.0,31.0,30.0,1.0,0.0
1876,52.0,0.0,30.0,0.0,0.0
1877,51.0,29.0,30.0,0.0,0.0
1878,36.0,0.0,30.0,1.0,0.0
1879,37.0,10.0,30.0,1.0,0.0
1880,52.0,0.0,30.0,0.0,0.0
1881,49.0,15.0,30.0,0.0,0.0
1882,34.0,1.0,30.0,1.0,0.0
1883,56.0,12.0,15.0,0.0,0.0
1884,36.0,17.0,30.0,1.0,0.0
1885,51.0,1.0,30.0,0.0,0.0
1886,54.0,1.0,15.0,0.0,0.0
1887,37.0,0.0,30.0,1.0,0.0
1888,56.0,11.0,15.0,0.0,0.0
1889,49.0,17.0,30.0,0.0,0.0
1890,54.0,2.0,15.0,0.0,0.0
1891,56.0,10.0,15.0,0.0,0.0
1892,51.0,15.0,30.0,0.0,0.0
1893,36.0,1.0,30.0,1.0,0.0
1894,54.0,2.0,15.0,0.0,0.0
1895,37.0,16.0,30.0,1.0,0.0
1896,56.0,13.0,15.0,0.0,0.0
1897,49.0,1.0,30.0,0.0,0.0
1898,54.0,0.0,15.0,0.0,0.0
1899,39.0,1.0,30.0,1.0,0.0
1900,56.0,13.0,15.0,0.0,0.0
1901,48.0,3.0,30.0,0.0,0.0
1902,54.0,11.0,15.0,0.0,0.0
1903,56.0,16.0,15.0,0.0,0.0
1904,49.0,1.0,30.0,0.0,0.0
1905,37.0,27.0,30.0,1.0,0.0
1906,54.0,0.0,15.0,0.0,0.0
1907,48.0,2.0,30.0,0.0,0.0
1908,39.0,26.0,30.0,1.0,0.0
1909,53.0,2.0,30.0,0.0,0.0
1910,36.0,1.0,30.0,1.0,0.0
1911,54.0,3.0,30.0,0.0,0.0
1912,51.0,27.0,30.0,0.0,0.0
1913,53.0,2.0,30.0,0.0,0.0
1914,49.0,29.0,30.0,0.0,0.0
1915,37.0,0.0,120.0,1.0,0.0
1916,51.0,0.0,30.0,0.0,0.0
1917,54.0,24.0,30.0,0.0,0.0
1918,49.0,0.0,30.0,0.0,0.0
1919,53.0,30.0,30.0,0.0,0.0
1920,51.0,28.0,30.0,0.0,0.0
1921,54.0,1.0,30.0,0.0,0.0
1922,56.0,31.0,30.0,0.0,0.0
1923,53.0,0.0,30.0,0.0,0.0
1924,51.0,0.0,30.0,0.0,0.0
1925,54.0,28.0,30.0,0.0,0.0
1926,56.0,3.0,30.0,0.0,0.0
1927,53.0,31.0,30.0,0.0,0.0
1928,53.0,3.0,30.0,0.0,0.0
1929,49.0,25.0,30.0,0.0,0.0
1930,39.0,17.0,900.0,1.0,0.0
1931,43.0,30.0,30.0,1.0,0.0
1932,51.0,1.0,30.0,0.0,0.0
1933,63.0,3.0,900.0,0.0,0.0
1934,53.0,2.0,30.0,0.0,0.0
1935,44.0,28.0,30.0,1.0,0.0
1936,43.0,28.0,30.0,1.0,0.0
1937,51.0,0.0,30.0,0.0,0.0
1938,44.0,1.0,30.0,1.0,0.0
1939,53.0,29.0,30.0,0.0,0.0
1940,46.0,31.0,30.0,1.0,0.0
1941,55.0,1.0,30.0,0.0,0.0
1942,44.0,3.0,30.0,1.0,0.0
1943,53.0,27.0,30.0,0.0,0.0
1944,46.0,28.0,30.0,1.0,0.0
1945,55.0,1.0,30.0,0.0,0.0
1946,43.0,3.0,30.0,1.0,0.0
1947,51.0,27.0,30.0,0.0,0.0
1948,62.0,12.0,240.0,0.0,0.0
1949,44.0,29.0,30.0,1.0,0.0
1950,53.0,1.0,30.0,0.0,0.0
1951,46.0,30.0,30.0,1.0,0.0
1952,55.0,0.0,30.0,0.0,0.0
1953,53.0,0.0,30.0,0.0,0.0
1954,44.0,30.0,30.0,1.0,0.0
1955,55.0,28.0,30.0,0.0,0.0
1956,46.0,2.0,30.0,1.0,0.0
1957,56.0,0.0,30.0,0.0,0.0
1958,47.0,30.0,30.0,1.0,0.0
1959,46.0,1.0,30.0,1.0,0.0
1960,55.0,30.0,30.0,0.0,0.0
1961,56.0,3.0,30.0,0.0,0.0
1962,47.0,15.0,30.0,1.0,0.0
1963,44.0,1.0,30.0,1.0,0.0
1964,53.0,28.0,30.0,0.0,0.0
1965,61.0,11.0,180.0,0.0,0.0
1966,46.0,30.0,30.0,1.0,0.0
1967,55.0,0.0,30.0,0.0,0.0
1968,48.0,2.0,30.0,1.0,0.0
1969,56.0,28.0,30.0,0.0,0.0
1970,55.0,3.0,30.0,0.0,0.0
1971,46.0,27.0,30.0,1.0,0.0
1972,48.0,2.0,30.0,1.0,0.0
1973,56.0,28.0,30.0,0.0,0.0
1974,58.0,19.0,30.0,0.0,0.0
1975,49.0,0.0,30.0,1.0,0.0
1976,48.0,2.0,30.0,1.0,0.0
1977,56.0,28.0,30.0,0.0,0.0
1978,49.0,1.0,30.0,1.0,0.0
1979,60.0,3.0,30.0,0.0,0.0
1980,58.0,27.0,30.0,0.0,0.0
1981,46.0,1.0,30.0,1.0,0.0
1982,61.0,1.0,30.0,0.0,0.0
1983,55.0,26.0,30.0,0.0,0.0
1984,59.0,3.0,120.0,0.0,0.0
1985,56.0,28.0,30.0,0.0,0.0
1986,47.0,2.0,30.0,1.0,0.0
1987,58.0,28.0,30.0,0.0,0.0
1988,49.0,2.0,30.0,1.0,0.0
1989,56.0,26.0,30.0,0.0,0.0
1990,47.0,1.0,30.0,1.0,0.0
1991,49.0,3.0,30.0,1.0,0.0
1992,58.0,27.0,30.0,0.0,0.0
1993,51.0,2.0,30.0,1.0,0.0
1994,59.0,29.0,30.0,0.0,0.0
1995,49.0,0.0,30.0,1.0,0.0
1996,58.0,11.0,30.0,0.0,0.0
1997,51.0,24.0,30.0,1.0,0.0
1998,59.0,0.0,30.0,0.0,0.0
1999,56.0,34.0,30.0,0.0,0.0
2000,47.0,2.0,20.0,1.0,0.0
2001,51.0,28.0,30.0,0.0,0.0
2002,57.0,4.0,210.0,0.0,0.0
2003,59.0,4.0,450.0,0.0,0.0
2004,66.0,8.0,240.0,0.0,0.0
2005,47.0,1.0,30.0,1.0,0.0
2006,49.0,0.0,30.0,1.0,0.0
2007,52.0,29.0,30.0,0.0,0.0
2008,51.0,30.0,30.0,0.0,0.0
2009,47.0,1.0,30.0,1.0,0.0
2010,52.0,0.0,30.0,0.0,0.0
2011,49.0,28.0,30.0,1.0,0.0
2012,54.0,1.0,30.0,0.0,0.0
2013,51.0,29.0,30.0,1.0,0.0
2014,49.0,2.0,30.0,1.0,0.0
2015,52.0,16.0,30.0,0.0,0.0
2016,51.0,3.0,30.0,1.0,0.0
2017,35.0,12.0,15.0,1.0,0.0
2018,54.0,14.0,30.0,0.0,0.0
2019,51.0,30.0,30.0,0.0,0.0
2020,47.0,2.0,30.0,1.0,0.0
2021,35.0,1.0,30.0,1.0,0.0
2022,64.0,30.0,30.0,0.0,0.0
2023,52.0,4.0,120.0,1.0,0.0
2024,56.0,30.0,60.0,0.0,0.0
2025,40.0,0.0,120.0,1.0,0.0
2026,68.0,0.0,30.0,0.0,0.0
2027,66.0,30.0,30.0,0.0,0.0
2028,57.0,0.0,30.0,0.0,0.0
2029,56.0,23.0,30.0,0.0,0.0
2030,64.0,4.0,30.0,0.0,0.0
2031,63.0,24.0,30.0,0.0,0.0
2032,54.0,2.0,30.0,0.0,0.0
2033,66.0,14.0,30.0,0.0,0.0
2034,57.0,6.0,30.0,0.0,0.0
2035,35.0,4.0,15.0,1.0,0.0
2036,64.0,2.0,30.0,0.0,0.0
2037,56.0,25.0,30.0,0.0,0.0
2038,47.0,3.0,20.0,1.0,0.0
2039,47.0,4.0,20.0,1.0,0.0
2040,35.0,1.0,30.0,1.0,0.0
2041,54.0,3.0,30.0,0.0,0.0
2042,63.0,26.0,30.0,0.0,0.0
2043,64.0,31.0,30.0,0.0,0.0
2044,40.0,19.0,120.0,1.0,0.0
2045,52.0,3.0,120.0,1.0,0.0
2046,56.0,29.0,60.0,0.0,0.0
2047,59.0,0.0,450.0,0.0,0.0
2048,68.0,1.0,30.0,0.0,0.0
2049,57.0,30.0,30.0,0.0,0.0
2050,66.0,0.0,30.0,0.0,0.0
2051,64.0,5.0,30.0,0.0,0.0
2052,56.0,4.0,30.0,0.0,0.0
2053,63.0,25.0,30.0,0.0,0.0
2054,54.0,1.0,30.0,0.0,0.0
2055,66.0,20.0,30.0,0.0,0.0
2056,57.0,4.0,30.0,0.0,0.0
2057,35.0,1.0,20.0,1.0,0.0
2058,47.0,8.0,20.0,1.0,0.0
2059,56.0,23.0,30.0,0.0,0.0
2060,64.0,1.0,30.0,0.0,0.0
2061,63.0,28.0,30.0,0.0,0.0
2062,54.0,4.0,30.0,0.0,0.0
2063,35.0,2.0,30.0,1.0,0.0
2064,47.0,4.0,20.0,1.0,0.0
2065,56.0,28.0,30.0,0.0,0.0
2066,64.0,1.0,60.0,0.0,0.0
2067,52.0,10.0,240.0,1.0,0.0
2068,40.0,2.0,240.0,1.0,0.0
2069,55.0,30.0,30.0,0.0,0.0
2070,63.0,5.0,120.0,0.0,0.0
2071,56.0,29.0,30.0,0.0,0.0
2072,55.0,31.0,30.0,0.0,0.0
2073,56.0,24.0,30.0,0.0,0.0
2074,55.0,34.0,30.0,0.0,0.0
2075,62.0,4.0,60.0,0.0,0.0
2076,56.0,13.0,30.0,0.0,0.0
2077,55.0,26.0,30.0,0.0,0.0
2078,60.0,51.0,120.0,0.0,0.0
2079,63.0,4.0,120.0,0.0,0.0
2080,56.0,0.0,120.0,0.0,0.0
2081,51.0,1.0,30.0,1.0,0.0
2082,39.0,25.0,30.0,1.0,0.0
2083,50.0,4.0,20.0,1.0,0.0
2084,38.0,31.0,30.0,1.0,0.0
2085,51.0,28.0,30.0,1.0,0.0
2086,39.0,2.0,30.0,1.0,0.0
2087,38.0,2.0,30.0,1.0,0.0
2088,50.0,3.0,30.0,1.0,0.0
2089,51.0,3.0,120.0,1.0,0.0
2090,39.0,1.0,120.0,1.0,0.0
2091,60.0,2.0,30.0,0.0,0.0
2092,56.0,26.0,30.0,0.0,0.0
2093,61.0,4.0,30.0,0.0,0.0
2094,58.0,26.0,30.0,0.0,0.0
2095,60.0,11.0,30.0,0.0,0.0
2096,63.0,0.0,30.0,0.0,0.0
2097,63.0,19.0,15.0,0.0,0.0
2098,66.0,1.0,15.0,0.0,0.0
2099,65.0,3.0,15.0,0.0,0.0
2100,61.0,24.0,20.0,0.0,0.0
2101,63.0,27.0,30.0,0.0,0.0
2102,60.0,4.0,30.0,0.0,0.0
2103,61.0,0.0,30.0,0.0,0.0
2104,65.0,28.0,30.0,0.0,0.0
2105,67.0,30.0,30.0,0.0,0.0
2106,63.0,1.0,30.0,0.0,0.0
2107,68.0,4.0,30.0,0.0,0.0
2108,65.0,26.0,30.0,0.0,0.0
2109,60.0,28.0,30.0,0.0,0.0
2110,64.0,1.0,30.0,0.0,0.0
2111,65.0,27.0,30.0,0.0,0.0
2112,61.0,1.0,30.0,0.0,0.0
2113,61.0,3.0,30.0,0.0,0.0
2114,58.0,16.0,30.0,0.0,0.0
2115,60.0,0.0,15.0,0.0,0.0
2116,56.0,12.0,15.0,0.0,0.0
2117,39.0,1.0,450.0,1.0,0.0
2118,55.0,15.0,15.0,0.0,0.0
2119,58.0,2.0,15.0,0.0,0.0
2120,60.0,14.0,15.0,0.0,0.0
2121,41.0,12.0,30.0,1.0,0.0
2122,56.0,0.0,15.0,0.0,0.0
2123,55.0,1.0,15.0,0.0,0.0
2124,58.0,1.0,15.0,0.0,0.0
2125,60.0,12.0,15.0,0.0,0.0
2126,56.0,3.0,15.0,0.0,0.0
2127,43.0,0.0,30.0,1.0,0.0
2128,58.0,14.0,15.0,0.0,0.0
2129,55.0,2.0,15.0,0.0,0.0
2130,60.0,12.0,15.0,0.0,0.0
2131,56.0,2.0,15.0,0.0,0.0
2132,44.0,2.0,30.0,1.0,0.0
2133,55.0,1.0,15.0,0.0,0.0
2134,58.0,12.0,15.0,0.0,0.0
2135,60.0,12.0,15.0,0.0,0.0
2136,56.0,3.0,15.0,0.0,0.0
2137,46.0,0.0,30.0,1.0,0.0
2138,55.0,16.0,15.0,0.0,0.0
2139,58.0,1.0,15.0,0.0,0.0
2140,48.0,14.0,30.0,1.0,0.0
2141,56.0,1.0,15.0,0.0,0.0
2142,60.0,13.0,15.0,0.0,0.0
2143,58.0,0.0,15.0,0.0,0.0
2144,55.0,1.0,15.0,0.0,0.0
2145,60.0,14.0,15.0,0.0,0.0
2146,49.0,12.0,30.0,1.0,0.0
2147,56.0,1.0,15.0,0.0,0.0
2148,58.0,5.0,15.0,0.0,0.0
2149,55.0,0.0,15.0,0.0,0.0
2150,56.0,1.0,15.0,0.0,0.0
2151,60.0,12.0,15.0,0.0,0.0
2152,50.0,2.0,30.0,1.0,0.0
2153,58.0,0.0,15.0,0.0,0.0
2154,55.0,13.0,15.0,0.0,0.0
2155,56.0,2.0,15.0,0.0,0.0
2156,51.0,11.0,30.0,1.0,0.0
2157,60.0,13.0,15.0,0.0,0.0
2158,55.0,1.0,15.0,0.0,0.0
2159,58.0,3.0,15.0,0.0,0.0
2160,56.0,14.0,15.0,0.0,0.0
2161,50.0,1.0,30.0,1.0,0.0
2162,60.0,1.0,15.0,0.0,0.0
2163,55.0,1.0,15.0,0.0,0.0
2164,58.0,13.0,15.0,0.0,0.0
2165,51.0,0.0,30.0,1.0,0.0
2166,60.0,12.0,15.0,0.0,0.0
2167,56.0,3.0,15.0,0.0,0.0
2168,58.0,1.0,15.0,0.0,0.0
2169,55.0,15.0,15.0,0.0,0.0
2170,53.0,0.0,30.0,1.0,0.0
2171,56.0,2.0,15.0,0.0,0.0
2172,60.0,11.0,15.0,0.0,0.0
2173,58.0,14.0,15.0,0.0,0.0
2174,55.0,2.0,15.0,0.0,0.0
2175,56.0,4.0,15.0,0.0,0.0
2176,51.0,0.0,30.0,1.0,0.0
2177,60.0,12.0,15.0,0.0,0.0
2178,58.0,13.0,15.0,0.0,0.0
2179,55.0,1.0,15.0,0.0,0.0
2180,53.0,12.0,30.0,1.0,0.0
2181,60.0,2.0,15.0,0.0,0.0
2182,56.0,13.0,15.0,0.0,0.0
2183,58.0,2.0,15.0,0.0,0.0
2184,55.0,1.0,15.0,0.0,0.0
2185,60.0,11.0,15.0,0.0,0.0
2186,56.0,2.0,15.0,0.0,0.0
2187,49.0,0.0,30.0,1.0,0.0
2188,58.0,17.0,15.0,0.0,0.0
2189,55.0,1.0,15.0,0.0,0.0
2190,51.0,1.0,30.0,1.0,0.0
2191,56.0,2.0,15.0,0.0,0.0
2192,55.0,28.0,15.0,0.0,0.0
2193,58.0,2.0,15.0,0.0,0.0
2194,56.0,31.0,30.0,0.0,0.0
2195,48.0,1.0,60.0,1.0,0.0
2196,44.0,19.0,60.0,1.0,0.0
2197,60.0,10.0,30.0,0.0,0.0
2198,63.0,22.0,30.0,0.0,0.0
2199,68.0,17.0,20.0,0.0,0.0
2200,44.0,1.0,90.0,1.0,0.0
2201,41.0,3.0,90.0,1.0,0.0
2202,48.0,0.0,90.0,1.0,0.0
2203,55.0,20.0,15.0,0.0,0.0
2204,53.0,33.0,30.0,0.0,0.0
2205,56.0,23.0,30.0,0.0,0.0
2206,60.0,20.0,30.0,0.0,0.0
2207,65.0,39.0,20.0,0.0,0.0
2208,37.0,1.0,90.0,1.0,0.0
2209,44.0,1.0,90.0,1.0,0.0
2210,46.0,12.0,90.0,1.0,0.0
2211,49.0,37.0,30.0,0.0,0.0
2212,53.0,11.0,30.0,0.0,0.0
2213,58.0,27.0,30.0,0.0,0.0
2214,61.0,33.0,30.0,0.0,0.0
2215,46.0,1.0,60.0,1.0,0.0
2216,51.0,30.0,30.0,0.0,0.0
2217,43.0,17.0,60.0,1.0,0.0
2218,39.0,0.0,60.0,1.0,0.0
2219,55.0,11.0,30.0,0.0,0.0
2220,58.0,29.0,30.0,0.0,0.0
2221,63.0,31.0,30.0,0.0,0.0
2222,56.0,2.0,60.0,0.0,0.0
2223,60.0,23.0,60.0,0.0,0.0
2224,44.0,28.0,30.0,1.0,0.0
2225,48.0,4.0,30.0,1.0,0.0
2226,51.0,29.0,30.0,1.0,0.0
2227,56.0,36.0,30.0,1.0,0.0
2228,41.0,28.0,30.0,1.0,0.0
2229,60.0,1.0,60.0,0.0,0.0
2230,68.0,25.0,60.0,0.0,0.0
2231,44.0,5.0,30.0,1.0,0.0
2232,48.0,25.0,30.0,1.0,0.0
2233,53.0,33.0,30.0,1.0,0.0
2234,37.0,32.0,30.0,1.0,0.0
2235,65.0,2.0,60.0,0.0,0.0
2236,68.0,0.0,60.0,0.0,0.0
2237,58.0,15.0,60.0,0.0,0.0
2238,41.0,10.0,30.0,1.0,0.0
2239,46.0,29.0,30.0,1.0,0.0
2240,49.0,33.0,30.0,1.0,0.0
2241,39.0,33.0,30.0,1.0,0.0
2242,63.0,1.0,90.0,0.0,0.0
2243,67.0,4.0,90.0,0.0,0.0
2244,58.0,2.0,90.0,0.0,0.0
2245,61.0,1.0,90.0,0.0,0.0
2246,43.0,17.0,30.0,1.0,0.0
2247,46.0,32.0,30.0,1.0,0.0
2248,51.0,125.0,30.0,1.0,0.0
2249,44.0,69.0,120.0,1.0,0.0
2250,32.0,0.0,120.0,1.0,0.0
2251,56.0,0.0,120.0,0.0,0.0
2252,51.0,1.0,120.0,0.0,0.0
2253,47.0,3.0,120.0,1.0,0.0
2254,51.0,1.0,15.0,0.0,0.0
2255,47.0,2.0,20.0,1.0,0.0
2256,44.0,0.0,15.0,1.0,0.0
2257,56.0,28.0,20.0,0.0,0.0
2258,56.0,130.0,20.0,0.0,0.0
2259,47.0,5.0,20.0,1.0,0.0
2260,51.0,0.0,20.0,0.0,0.0
2261,44.0,1.0,20.0,1.0,0.0
2262,58.0,3.0,120.0,0.0,0.0
2263,51.0,64.0,120.0,1.0,0.0
2264,42.0,4.0,120.0,1.0,0.0
2265,63.0,0.0,120.0,0.0,0.0
2266,42.0,4.0,15.0,1.0,0.0
2267,51.0,0.0,20.0,1.0,0.0
2268,63.0,1.0,20.0,0.0,0.0
2269,58.0,29.0,20.0,0.0,0.0
2270,58.0,2.0,20.0,0.0,0.0
2271,42.0,131.0,20.0,1.0,0.0
2272,51.0,0.0,20.0,1.0,0.0
2273,63.0,3.0,20.0,0.0,0.0
2274,59.0,5.0,120.0,0.0,0.0
2275,68.0,8.0,120.0,0.0,0.0
2276,41.0,1.0,150.0,1.0,0.0
2277,50.0,55.0,150.0,1.0,0.0
2278,65.0,1.0,20.0,0.0,0.0
2279,58.0,26.0,20.0,0.0,0.0
2280,38.0,1.0,15.0,1.0,0.0
2281,56.0,2.0,15.0,1.0,0.0
2282,53.0,0.0,15.0,1.0,0.0
2283,50.0,2.0,15.0,1.0,0.0
2284,53.0,2.0,15.0,1.0,0.0
2285,56.0,132.0,20.0,1.0,0.0
2286,50.0,0.0,15.0,1.0,0.0
2287,38.0,1.0,15.0,1.0,0.0
2288,58.0,0.0,15.0,0.0,0.0
2289,65.0,1.0,20.0,0.0,0.0
2290,54.0,0.0,120.0,1.0,0.0
2291,66.0,1.0,120.0,0.0,0.0
2292,58.0,3.0,120.0,0.0,0.0
2293,51.0,3.0,120.0,1.0,0.0
2294,39.0,67.0,120.0,1.0,0.0
2295,62.0,0.0,20.0,0.0,0.0
2296,56.0,8.0,20.0,0.0,0.0
2297,34.0,3.0,15.0,1.0,0.0
2298,53.0,0.0,15.0,1.0,0.0
2299,46.0,2.0,15.0,1.0,0.0
2300,56.0,4.0,20.0,0.0,0.0
2301,62.0,63.0,20.0,0.0,0.0
2302,47.0,12.0,120.0,1.0,0.0
2303,51.0,2.0,120.0,1.0,0.0
2304,35.0,0.0,120.0,1.0,0.0
2305,54.0,36.0,150.0,0.0,0.0
2306,63.0,65.0,60.0,0.0,0.0
2307,65.0,7.0,60.0,0.0,0.0
2308,66.0,47.0,60.0,0.0,0.0
2309,42.0,0.0,60.0,1.0,0.0
2310,58.0,119.0,60.0,0.0,0.0
2311,51.0,10.0,60.0,0.0,0.0
2312,59.0,4.0,120.0,0.0,0.0
2313,51.0,1.0,120.0,0.0,0.0
2314,44.0,95.0,120.0,1.0,0.0
2315,63.0,4.0,240.0,0.0,0.0
2316,58.0,13.0,90.0,0.0,0.0
2317,42.0,3.0,120.0,1.0,0.0
2318,51.0,25.0,120.0,1.0,0.0
2319,58.0,12.0,15.0,0.0,0.0
2320,41.0,3.0,120.0,1.0,0.0
2321,53.0,3.0,240.0,1.0,0.0
2322,56.0,16.0,15.0,0.0,0.0
2323,58.0,17.0,15.0,0.0,0.0
2324,56.0,16.0,15.0,0.0,0.0
2325,58.0,14.0,15.0,0.0,0.0
2326,56.0,11.0,15.0,0.0,0.0
2327,54.0,8.0,15.0,0.0,0.0
2328,56.0,56.0,15.0,0.0,0.0
2329,62.0,3.0,120.0,0.0,0.0
2330,58.0,58.0,60.0,0.0,0.0
2331,34.0,2.0,120.0,1.0,0.0
2332,56.0,119.0,60.0,0.0,0.0
2333,39.0,1.0,120.0,1.0,0.0
2334,51.0,4.0,120.0,1.0,0.0
2335,54.0,2.0,120.0,0.0,0.0
2336,63.0,51.0,120.0,0.0,0.0
2337,54.0,3.0,30.0,0.0,0.0
2338,58.0,30.0,30.0,0.0,0.0
2339,56.0,24.0,30.0,0.0,0.0
2340,60.0,3.0,30.0,0.0,0.0
2341,58.0,31.0,30.0,0.0,0.0
2342,62.0,3.0,30.0,0.0,0.0
2343,60.0,0.0,30.0,0.0,0.0
2344,63.0,29.0,30.0,0.0,0.0
2345,65.0,28.0,30.0,0.0,0.0
2346,62.0,0.0,30.0,0.0,0.0
2347,66.0,4.0,30.0,0.0,0.0
2348,63.0,29.0,30.0,0.0,0.0
2349,68.0,1.0,30.0,0.0,0.0
2350,65.0,51.0,30.0,0.0,0.0
2351,66.0,21.0,180.0,0.0,0.0
2352,70.0,2.0,180.0,0.0,0.0
2353,51.0,6.0,20.0,1.0,0.0
2354,54.0,28.0,30.0,1.0,0.0
2355,56.0,26.0,30.0,1.0,0.0
2356,53.0,1.0,30.0,1.0,0.0
2357,54.0,28.0,30.0,1.0,0.0
2358,58.0,5.0,20.0,1.0,0.0
2359,60.0,6.0,30.0,1.0,0.0
2360,56.0,21.0,30.0,1.0,0.0
2361,58.0,2.0,30.0,1.0,0.0
2362,54.0,0.0,30.0,1.0,0.0
2363,65.0,0.0,60.0,0.0,0.0
2364,68.0,3.0,60.0,0.0,0.0
2365,56.0,1.0,20.0,1.0,0.0
2366,60.0,38.0,20.0,1.0,0.0
2367,62.0,58.0,30.0,1.0,0.0
2368,58.0,1.0,30.0,1.0,0.0
2369,63.0,4.0,240.0,0.0,0.0
2370,66.0,22.0,90.0,0.0,0.0
2371,47.0,31.0,30.0,1.0,0.0
2372,46.0,8.0,30.0,1.0,0.0
2373,47.0,14.0,30.0,1.0,0.0
2374,44.0,17.0,30.0,1.0,0.0
2375,66.0,14.0,15.0,0.0,0.0
2376,65.0,1.0,15.0,0.0,0.0
2377,42.0,1.0,30.0,1.0,0.0
2378,66.0,13.0,15.0,0.0,0.0
2379,65.0,15.0,15.0,0.0,0.0
2380,44.0,14.0,30.0,1.0,0.0
2381,66.0,14.0,15.0,0.0,0.0
2382,65.0,3.0,15.0,0.0,0.0
2383,66.0,4.0,15.0,0.0,0.0
2384,41.0,6.0,20.0,1.0,0.0
2385,65.0,15.0,15.0,0.0,0.0
2386,66.0,15.0,15.0,0.0,0.0
2387,61.0,8.0,240.0,0.0,0.0
2388,65.0,18.0,15.0,0.0,0.0
2389,66.0,10.0,20.0,0.0,0.0
2390,46.0,1.0,30.0,1.0,0.0
2391,65.0,17.0,15.0,0.0,0.0
2392,44.0,15.0,30.0,1.0,0.0
2393,66.0,13.0,15.0,0.0,0.0
2394,65.0,0.0,15.0,0.0,0.0
2395,63.0,8.0,15.0,0.0,0.0
2396,46.0,29.0,30.0,1.0,0.0
2397,65.0,6.0,15.0,0.0,0.0
2398,63.0,62.0,120.0,0.0,0.0
2399,43.0,33.0,30.0,1.0,0.0
2400,41.0,31.0,30.0,1.0,0.0
2401,43.0,17.0,30.0,1.0,0.0
2402,39.0,2.0,30.0,1.0,0.0
2403,59.0,17.0,90.0,0.0,0.0
2404,68.0,4.0,240.0,0.0,0.0
2405,52.0,30.0,30.0,1.0,0.0
2406,51.0,12.0,30.0,1.0,0.0
2407,52.0,16.0,30.0,1.0,0.0
2408,59.0,14.0,15.0,0.0,0.0
2409,49.0,0.0,30.0,1.0,0.0
2410,58.0,17.0,15.0,0.0,0.0
2411,47.0,19.0,30.0,1.0,0.0
2412,59.0,12.0,15.0,0.0,0.0
2413,58.0,0.0,15.0,0.0,0.0
2414,49.0,10.0,30.0,1.0,0.0
2415,59.0,11.0,15.0,0.0,0.0
2416,58.0,6.0,15.0,0.0,0.0
2417,59.0,8.0,15.0,0.0,0.0
2418,46.0,2.0,30.0,1.0,0.0
2419,58.0,16.0,15.0,0.0,0.0
2420,66.0,2.0,240.0,0.0,0.0
2421,59.0,15.0,15.0,0.0,0.0
2422,58.0,13.0,15.0,0.0,0.0
2423,59.0,17.0,15.0,0.0,0.0
2424,51.0,1.0,30.0,1.0,0.0
2425,58.0,17.0,15.0,0.0,0.0
2426,59.0,10.0,15.0,0.0,0.0
2427,49.0,2.0,30.0,1.0,0.0
2428,58.0,17.0,15.0,0.0,0.0
2429,51.0,30.0,30.0,1.0,0.0
2430,56.0,11.0,15.0,0.0,0.0
2431,58.0,2.0,15.0,0.0,0.0
2432,48.0,31.0,30.0,1.0,0.0
2433,56.0,16.0,90.0,0.0,0.0
2434,46.0,32.0,30.0,1.0,0.0
2435,48.0,5.0,30.0,1.0,0.0
2436,44.0,63.0,30.0,1.0,0.0
2437,61.0,3.0,240.0,0.0,0.0
2438,65.0,15.0,90.0,0.0,0.0
2439,46.0,28.0,30.0,1.0,0.0
2440,44.0,18.0,30.0,1.0,0.0
2441,46.0,14.0,30.0,1.0,0.0
2442,42.0,2.0,30.0,1.0,0.0
2443,65.0,16.0,15.0,0.0,0.0
2444,63.0,18.0,15.0,0.0,0.0
2445,41.0,1.0,30.0,1.0,0.0
2446,65.0,9.0,20.0,0.0,0.0
2447,63.0,18.0,15.0,0.0,0.0
2448,42.0,15.0,30.0,1.0,0.0
2449,65.0,12.0,15.0,0.0,0.0
2450,63.0,2.0,15.0,0.0,0.0
2451,65.0,10.0,15.0,0.0,0.0
2452,39.0,1.0,30.0,1.0,0.0
2453,63.0,17.0,15.0,0.0,0.0
2454,65.0,12.0,15.0,0.0,0.0
2455,59.0,7.0,240.0,0.0,0.0
2456,63.0,17.0,15.0,0.0,0.0
2457,44.0,2.0,30.0,1.0,0.0
2458,65.0,13.0,15.0,0.0,0.0
2459,63.0,17.0,15.0,0.0,0.0
2460,42.0,1.0,30.0,1.0,0.0
2461,65.0,10.0,20.0,0.0,0.0
2462,63.0,16.0,15.0,0.0,0.0
2463,44.0,28.0,30.0,1.0,0.0
2464,61.0,12.0,15.0,0.0,0.0
2465,63.0,2.0,15.0,0.0,0.0
2466,41.0,31.0,30.0,1.0,0.0
2467,61.0,52.0,120.0,0.0,0.0
2468,39.0,36.0,30.0,1.0,0.0
2469,41.0,18.0,30.0,1.0,0.0
2470,37.0,5.0,20.0,1.0,0.0
2471,58.0,18.0,90.0,0.0,0.0
2472,66.0,12.0,210.0,0.0,0.0
2473,51.0,30.0,30.0,1.0,0.0
2474,49.0,17.0,30.0,1.0,0.0
2475,51.0,27.0,30.0,1.0,0.0
2476,47.0,31.0,30.0,1.0,0.0
2477,56.0,22.0,210.0,0.0,0.0
2478,46.0,30.0,30.0,1.0,0.0
2479,47.0,13.0,30.0,1.0,0.0
2480,44.0,66.0,20.0,1.0,0.0
2481,65.0,3.0,210.0,0.0,0.0
2482,49.0,27.0,30.0,1.0,0.0
2483,47.0,10.0,30.0,1.0,0.0
2484,49.0,28.0,30.0,1.0,0.0
2485,46.0,30.0,30.0,1.0,0.0
2486,54.0,1.0,180.0,0.0,0.0
2487,44.0,1.0,30.0,1.0,0.0
2488,70.0,31.0,30.0,0.0,0.0
2489,68.0,1.0,30.0,0.0,0.0
2490,46.0,14.0,30.0,1.0,0.0
2491,70.0,25.0,30.0,0.0,0.0
2492,42.0,18.0,15.0,1.0,0.0
2493,63.0,17.0,60.0,0.0,0.0
2494,66.0,28.0,30.0,0.0,0.0
2495,47.0,0.0,30.0,1.0,0.0
2496,65.0,6.0,30.0,0.0,0.0
2497,51.0,3.0,30.0,1.0,0.0
2498,46.0,2.0,30.0,1.0,0.0
2499,66.0,27.0,30.0,0.0,0.0
2500,49.0,2.0,30.0,1.0,0.0
2501,63.0,1.0,30.0,0.0,0.0
2502,47.0,2.0,30.0,1.0,0.0
2503,51.0,28.0,30.0,1.0,0.0
2504,47.0,28.0,30.0,1.0,0.0
2505,44.0,1.0,30.0,1.0,0.0
2506,65.0,1.0,30.0,0.0,0.0
2507,42.0,24.0,30.0,1.0,0.0
2508,68.0,0.0,30.0,0.0,0.0
2509,46.0,1.0,30.0,1.0,0.0
2510,63.0,25.0,30.0,0.0,0.0
2511,47.0,0.0,30.0,1.0,0.0
2512,44.0,7.0,20.0,1.0,0.0
2513,66.0,0.0,30.0,0.0,0.0
2514,65.0,2.0,30.0,0.0,0.0
2515,68.0,28.0,30.0,0.0,0.0
2516,41.0,3.0,20.0,1.0,0.0
2517,44.0,2.0,30.0,1.0,0.0
2518,65.0,2.0,30.0,0.0,0.0
2519,62.0,26.0,30.0,0.0,0.0
2520,46.0,1.0,30.0,1.0,0.0
2521,63.0,1.0,30.0,0.0,0.0
2522,60.0,24.0,30.0,0.0,0.0
2523,50.0,3.0,30.0,1.0,0.0
2524,44.0,3.0,30.0,1.0,0.0
2525,48.0,1.0,30.0,1.0,0.0
2526,65.0,1.0,30.0,0.0,0.0
2527,58.0,1.0,20.0,0.0,0.0
2528,46.0,2.0,30.0,1.0,0.0
2529,50.0,30.0,30.0,1.0,0.0
2530,62.0,22.0,15.0,0.0,0.0
2531,42.0,1.0,30.0,1.0,0.0
2532,46.0,20.0,30.0,1.0,0.0
2533,41.0,0.0,30.0,1.0,0.0
2534,44.0,9.0,20.0,1.0,0.0
2535,66.0,24.0,30.0,0.0,0.0
2536,63.0,1.0,30.0,0.0,0.0
2537,42.0,5.0,20.0,1.0,0.0
2538,65.0,1.0,30.0,0.0,0.0
2539,61.0,0.0,30.0,0.0,0.0
2540,46.0,26.0,30.0,1.0,0.0
2541,42.0,3.0,30.0,1.0,0.0
2542,39.0,1.0,30.0,1.0,0.0
2543,66.0,24.0,30.0,0.0,0.0
2544,63.0,3.0,15.0,0.0,0.0
2545,60.0,26.0,30.0,0.0,0.0
2546,58.0,1.0,30.0,0.0,0.0
2547,61.0,29.0,30.0,0.0,0.0
2548,44.0,2.0,30.0,1.0,0.0
2549,48.0,0.0,30.0,1.0,0.0
2550,46.0,1.0,30.0,1.0,0.0
2551,42.0,0.0,30.0,1.0,0.0
2552,63.0,3.0,30.0,0.0,0.0
2553,48.0,30.0,30.0,1.0,0.0
2554,44.0,27.0,60.0,1.0,0.0
2555,56.0,3.0,20.0,0.0,0.0
2556,60.0,16.0,15.0,0.0,0.0
2557,41.0,3.0,30.0,1.0,0.0
2558,39.0,0.0,30.0,1.0,0.0
2559,61.0,30.0,30.0,0.0,0.0
2560,65.0,1.0,30.0,0.0,0.0
2561,42.0,2.0,30.0,1.0,0.0
2562,63.0,1.0,30.0,0.0,0.0
2563,60.0,2.0,30.0,0.0,0.0
2564,44.0,20.0,30.0,1.0,0.0
2565,41.0,1.0,30.0,1.0,0.0
2566,41.0,6.0,30.0,1.0,0.0
2567,65.0,27.0,30.0,0.0,0.0
2568,37.0,3.0,20.0,1.0,0.0
2569,58.0,1.0,30.0,0.0,0.0
2570,61.0,1.0,15.0,0.0,0.0
2571,56.0,24.0,30.0,0.0,0.0
2572,42.0,2.0,30.0,1.0,0.0
2573,60.0,5.0,30.0,0.0,0.0
2574,46.0,2.0,30.0,1.0,0.0
2575,58.0,20.0,30.0,0.0,0.0
2576,61.0,1.0,30.0,0.0,0.0
2577,44.0,0.0,30.0,1.0,0.0
2578,41.0,0.0,30.0,1.0,0.0
2579,42.0,1.0,30.0,1.0,0.0
2580,46.0,10.0,20.0,1.0,0.0
2581,54.0,2.0,30.0,0.0,0.0
2582,58.0,27.0,30.0,0.0,0.0
2583,46.0,0.0,60.0,1.0,0.0
2584,63.0,30.0,30.0,0.0,0.0
2585,60.0,0.0,30.0,0.0,0.0
2586,51.0,1.0,60.0,1.0,0.0
2587,54.0,22.0,60.0,1.0,0.0
2588,39.0,0.0,60.0,1.0,0.0
2589,61.0,5.0,30.0,0.0,0.0
2590,58.0,2.0,30.0,0.0,0.0
2591,63.0,3.0,30.0,0.0,0.0
2592,57.0,29.0,30.0,0.0,0.0
2593,60.0,27.0,15.0,0.0,0.0
2594,55.0,3.0,90.0,1.0,0.0
2595,46.0,0.0,90.0,1.0,0.0
2596,40.0,1.0,90.0,1.0,0.0
2597,49.0,1.0,90.0,1.0,0.0
2598,58.0,23.0,30.0,0.0,0.0
2599,61.0,4.0,30.0,0.0,0.0
2600,57.0,5.0,30.0,0.0,0.0
2601,60.0,24.0,30.0,0.0,0.0
2602,61.0,0.0,30.0,0.0,0.0
2603,58.0,26.0,30.0,0.0,0.0
2604,58.0,61.0,30.0,0.0,0.0
2605,55.0,3.0,30.0,0.0,0.0
2606,53.0,4.0,120.0,0.0,0.0
2607,57.0,24.0,120.0,0.0,0.0
2608,41.0,30.0,30.0,1.0,0.0
2609,45.0,30.0,30.0,1.0,0.0
2610,48.0,1.0,30.0,1.0,0.0
2611,53.0,33.0,30.0,1.0,0.0
2612,49.0,2.0,30.0,1.0,0.0
2613,53.0,26.0,30.0,0.0,0.0
2614,57.0,7.0,60.0,0.0,0.0
2615,51.0,23.0,30.0,1.0,0.0
2616,48.0,31.0,30.0,1.0,0.0
2617,60.0,0.0,30.0,0.0,0.0
2618,49.0,2.0,60.0,1.0,0.0
2619,65.0,28.0,15.0,0.0,0.0
2620,61.0,28.0,30.0,0.0,0.0
2621,63.0,5.0,30.0,0.0,0.0
2622,67.0,23.0,30.0,0.0,0.0
2623,48.0,3.0,60.0,1.0,0.0
2624,60.0,25.0,30.0,0.0,0.0
2625,69.0,4.0,30.0,0.0,0.0
2626,46.0,3.0,90.0,1.0,0.0
2627,62.0,26.0,30.0,0.0,0.0
2628,70.0,2.0,30.0,0.0,0.0
2629,63.0,26.0,30.0,0.0,0.0
2630,54.0,1.0,30.0,1.0,0.0
2631,66.0,2.0,30.0,0.0,0.0
2632,60.0,1.0,30.0,0.0,0.0
2633,68.0,19.0,30.0,0.0,0.0
2634,53.0,0.0,30.0,1.0,0.0
2635,65.0,2.0,30.0,0.0,0.0
2636,62.0,59.0,30.0,0.0,0.0
2637,58.0,1.0,30.0,1.0,0.0
2638,50.0,9.0,15.0,1.0,0.0
2639,63.0,3.0,120.0,0.0,0.0
2640,66.0,2.0,120.0,0.0,0.0
2641,51.0,9.0,120.0,1.0,0.0
2642,39.0,32.0,30.0,1.0,0.0
2643,42.0,14.0,30.0,1.0,0.0
2644,46.0,29.0,30.0,1.0,0.0
2645,51.0,30.0,30.0,1.0,0.0
2646,48.0,5.0,30.0,1.0,0.0
2647,51.0,26.0,30.0,0.0,0.0
2648,49.0,8.0,30.0,1.0,0.0
2649,54.0,20.0,30.0,0.0,0.0
2650,46.0,1.0,30.0,1.0,0.0
2651,58.0,31.0,30.0,0.0,0.0
2652,48.0,3.0,60.0,1.0,0.0
2653,63.0,26.0,30.0,0.0,0.0
2654,63.0,0.0,30.0,0.0,0.0
2655,60.0,31.0,30.0,0.0,0.0
2656,65.0,24.0,30.0,0.0,0.0
2657,61.0,2.0,30.0,0.0,0.0
2658,46.0,5.0,60.0,1.0,0.0
2659,67.0,28.0,30.0,0.0,0.0
2660,58.0,1.0,30.0,0.0,0.0
2661,60.0,2.0,30.0,0.0,0.0
2662,44.0,22.0,60.0,1.0,0.0
2663,68.0,27.0,30.0,0.0,0.0
2664,53.0,2.0,30.0,1.0,0.0
2665,65.0,5.0,30.0,0.0,0.0
2666,61.0,2.0,30.0,0.0,0.0
2667,66.0,26.0,30.0,0.0,0.0
2668,58.0,0.0,30.0,0.0,0.0
2669,51.0,1.0,30.0,1.0,0.0
2670,60.0,3.0,30.0,0.0,0.0
2671,63.0,119.0,30.0,0.0,0.0
2672,56.0,3.0,30.0,1.0,0.0
2673,37.0,73.0,120.0,1.0,0.0
2674,53.0,1.0,120.0,1.0,0.0
2675,61.0,0.0,120.0,0.0,0.0
2676,56.0,0.0,120.0,0.0,0.0
2677,49.0,2.0,120.0,1.0,0.0
2678,61.0,24.0,20.0,0.0,0.0
2679,37.0,1.0,20.0,1.0,0.0
2680,53.0,0.0,20.0,1.0,0.0
2681,49.0,1.0,20.0,1.0,0.0
2682,56.0,1.0,20.0,0.0,0.0
2683,61.0,138.0,20.0,0.0,0.0
2684,56.0,2.0,20.0,0.0,0.0
2685,49.0,2.0,15.0,1.0,0.0
2686,37.0,2.0,15.0,1.0,0.0
2687,53.0,1.0,20.0,1.0,0.0
2688,56.0,16.0,120.0,0.0,0.0
2689,36.0,2.0,150.0,1.0,0.0
2690,63.0,5.0,150.0,0.0,0.0
2691,48.0,0.0,150.0,1.0,0.0
2692,51.0,43.0,150.0,1.0,0.0
2693,48.0,1.0,15.0,1.0,0.0
2694,63.0,3.0,20.0,0.0,0.0
2695,56.0,22.0,20.0,0.0,0.0
2696,51.0,1.0,15.0,1.0,0.0
2697,36.0,0.0,15.0,1.0,0.0
2698,56.0,138.0,20.0,0.0,0.0
2699,63.0,5.0,20.0,0.0,0.0
2700,36.0,3.0,15.0,1.0,0.0
2701,51.0,0.0,20.0,1.0,0.0
2702,48.0,2.0,15.0,1.0,0.0
2703,46.0,2.0,150.0,1.0,0.0
2704,49.0,2.0,150.0,1.0,0.0
2705,34.0,0.0,150.0,1.0,0.0
2706,61.0,17.0,120.0,0.0,0.0
2707,53.0,38.0,150.0,1.0,0.0
2708,65.0,6.0,150.0,0.0,0.0
2709,61.0,0.0,20.0,0.0,0.0
2710,65.0,0.0,15.0,0.0,0.0
2711,49.0,1.0,20.0,1.0,0.0
2712,53.0,26.0,20.0,1.0,0.0
2713,34.0,1.0,20.0,1.0,0.0
2714,46.0,2.0,15.0,1.0,0.0
2715,34.0,1.0,20.0,1.0,0.0
2716,46.0,1.0,15.0,1.0,0.0
2717,53.0,2.0,20.0,1.0,0.0
2718,49.0,0.0,15.0,1.0,0.0
2719,65.0,2.0,15.0,0.0,0.0
2720,61.0,136.0,20.0,0.0,0.0
2721,44.0,2.0,150.0,1.0,0.0
2722,32.0,2.0,120.0,1.0,0.0
2723,56.0,6.0,120.0,1.0,0.0
2724,63.0,2.0,150.0,0.0,0.0
2725,60.0,1.0,150.0,0.0,0.0
2726,68.0,42.0,150.0,0.0,0.0
2727,51.0,0.0,120.0,1.0,0.0
2728,48.0,1.0,150.0,1.0,0.0
2729,53.0,15.0,15.0,0.0,0.0
2730,42.0,2.0,20.0,1.0,0.0
2731,56.0,1.0,20.0,0.0,0.0
2732,51.0,1.0,20.0,0.0,0.0
2733,48.0,23.0,20.0,1.0,0.0
2734,56.0,3.0,20.0,0.0,0.0
2735,51.0,63.0,30.0,0.0,0.0
2736,48.0,5.0,15.0,1.0,0.0
2737,42.0,1.0,15.0,1.0,0.0
2738,41.0,39.0,150.0,1.0,0.0
2739,49.0,3.0,120.0,1.0,0.0
2740,61.0,58.0,60.0,0.0,0.0
2741,53.0,2.0,120.0,0.0,0.0
2742,56.0,9.0,120.0,0.0,0.0
2743,63.0,8.0,60.0,0.0,0.0
2744,65.0,50.0,60.0,0.0,0.0
2745,41.0,3.0,60.0,1.0,0.0
2746,56.0,121.0,60.0,0.0,0.0
2747,49.0,8.0,60.0,0.0,0.0
2748,58.0,1.0,120.0,0.0,0.0
2749,49.0,94.0,120.0,0.0,0.0
2750,42.0,2.0,120.0,1.0,0.0
2751,61.0,6.0,240.0,0.0,0.0
2752,56.0,15.0,90.0,0.0,0.0
2753,49.0,25.0,120.0,1.0,0.0
2754,41.0,1.0,120.0,1.0,0.0
2755,51.0,5.0,240.0,1.0,0.0
2756,39.0,1.0,120.0,1.0,0.0
2757,56.0,12.0,15.0,0.0,0.0
2758,54.0,14.0,15.0,0.0,0.0
2759,56.0,14.0,15.0,0.0,0.0
2760,54.0,22.0,15.0,0.0,0.0
2761,56.0,9.0,20.0,0.0,0.0
2762,54.0,17.0,15.0,0.0,0.0
2763,53.0,5.0,15.0,0.0,0.0
2764,54.0,58.0,15.0,0.0,0.0
2765,56.0,56.0,60.0,0.0,0.0
2766,60.0,121.0,120.0,0.0,0.0
2767,32.0,3.0,120.0,1.0,0.0
2768,54.0,2.0,60.0,0.0,0.0
2769,49.0,52.0,120.0,1.0,0.0
2770,53.0,0.0,120.0,0.0,0.0
2771,61.0,2.0,120.0,0.0,0.0
2772,37.0,0.0,120.0,1.0,0.0
2773,53.0,4.0,30.0,0.0,0.0
2774,56.0,26.0,30.0,0.0,0.0
2775,54.0,2.0,30.0,0.0,0.0
2776,58.0,31.0,30.0,0.0,0.0
2777,60.0,0.0,30.0,0.0,0.0
2778,56.0,30.0,30.0,0.0,0.0
2779,61.0,29.0,30.0,0.0,0.0
2780,58.0,0.0,30.0,0.0,0.0
2781,63.0,28.0,30.0,0.0,0.0
2782,60.0,1.0,30.0,0.0,0.0
2783,61.0,2.0,30.0,0.0,0.0
2784,65.0,30.0,30.0,0.0,0.0
2785,63.0,1.0,30.0,0.0,0.0
2786,66.0,50.0,30.0,0.0,0.0
2787,65.0,16.0,180.0,0.0,0.0
2788,68.0,8.0,180.0,0.0,0.0
2789,49.0,7.0,20.0,1.0,0.0
2790,53.0,27.0,30.0,1.0,0.0
2791,51.0,5.0,20.0,1.0,0.0
2792,54.0,27.0,30.0,1.0,0.0
2793,56.0,2.0,30.0,1.0,0.0
2794,53.0,27.0,30.0,1.0,0.0
2795,54.0,1.0,30.0,1.0,0.0
2796,58.0,24.0,30.0,1.0,0.0
2797,53.0,2.0,30.0,1.0,0.0
2798,56.0,1.0,30.0,1.0,0.0
2799,63.0,58.0,60.0,0.0,0.0
2800,66.0,1.0,60.0,0.0,0.0
2801,54.0,32.0,20.0,1.0,0.0
2802,58.0,2.0,15.0,1.0,0.0
2803,56.0,0.0,20.0,1.0,0.0
2804,60.0,9.0,20.0,1.0,0.0
2805,65.0,22.0,90.0,0.0,0.0
2806,61.0,4.0,240.0,0.0,0.0
2807,58.0,6.0,240.0,1.0,0.0
2808,46.0,32.0,30.0,1.0,0.0
2809,44.0,10.0,30.0,1.0,0.0
2810,46.0,14.0,30.0,1.0,0.0
2811,42.0,16.0,30.0,1.0,0.0
2812,65.0,12.0,15.0,0.0,0.0
2813,63.0,2.0,15.0,0.0,0.0
2814,65.0,10.0,15.0,0.0,0.0
2815,39.0,16.0,30.0,1.0,0.0
2816,63.0,4.0,15.0,0.0,0.0
2817,65.0,10.0,15.0,0.0,0.0
2818,41.0,9.0,30.0,1.0,0.0
2819,63.0,10.0,15.0,0.0,0.0
2820,42.0,14.0,30.0,1.0,0.0
2821,65.0,4.0,15.0,0.0,0.0
2822,63.0,1.0,15.0,0.0,0.0
2823,44.0,16.0,30.0,1.0,0.0
2824,56.0,28.0,60.0,1.0,0.0
2825,60.0,53.0,120.0,0.0,0.0
2826,65.0,12.0,15.0,0.0,0.0
2827,63.0,1.0,15.0,0.0,0.0
2828,65.0,12.0,15.0,0.0,0.0
2829,42.0,3.0,30.0,1.0,0.0
2830,63.0,1.0,15.0,0.0,0.0
2831,54.0,1.0,60.0,1.0,0.0
2832,44.0,2.0,30.0,1.0,0.0
2833,61.0,28.0,30.0,0.0,0.0
2834,32.0,2.0,30.0,1.0,0.0
2835,63.0,3.0,30.0,0.0,0.0
2836,61.0,33.0,60.0,0.0,0.0
2837,37.0,2.0,120.0,1.0,0.0
2838,53.0,3.0,120.0,1.0,0.0
2839,65.0,24.0,30.0,0.0,0.0
2840,63.0,31.0,30.0,0.0,0.0
2841,61.0,31.0,30.0,0.0,0.0
2842,60.0,26.0,30.0,0.0,0.0
2843,49.0,3.0,120.0,0.0,0.0
2844,41.0,1.0,60.0,1.0,0.0
2845,58.0,29.0,30.0,0.0,0.0
2846,37.0,1.0,60.0,1.0,0.0
2847,56.0,60.0,30.0,0.0,0.0
2848,54.0,26.0,60.0,0.0,0.0
2849,42.0,5.0,120.0,1.0,0.0
2850,39.0,2.0,120.0,1.0,0.0
2851,48.0,23.0,60.0,0.0,0.0
2852,66.0,32.0,30.0,0.0,0.0
2853,65.0,1.0,30.0,0.0,0.0
2854,63.0,29.0,30.0,0.0,0.0
2855,61.0,28.0,30.0,0.0,0.0
2856,60.0,29.0,30.0,0.0,0.0
2857,42.0,3.0,60.0,1.0,0.0
2858,39.0,0.0,60.0,1.0,0.0
2859,51.0,24.0,120.0,0.0,0.0
2860,58.0,58.0,30.0,0.0,0.0
2861,44.0,27.0,120.0,1.0,0.0
2862,56.0,8.0,60.0,0.0,0.0
2863,41.0,0.0,120.0,1.0,0.0
2864,68.0,32.0,30.0,0.0,0.0
2865,49.0,0.0,60.0,0.0,0.0
2866,66.0,6.0,30.0,0.0,0.0
2867,65.0,25.0,30.0,0.0,0.0
2868,63.0,29.0,30.0,0.0,0.0
2869,41.0,4.0,60.0,1.0,0.0
2870,53.0,1.0,120.0,0.0,0.0
2871,61.0,27.0,30.0,0.0,0.0
2872,44.0,0.0,60.0,1.0,0.0
2873,60.0,56.0,30.0,0.0,0.0
2874,46.0,3.0,120.0,1.0,0.0
2875,42.0,4.0,120.0,1.0,0.0
2876,58.0,35.0,60.0,0.0,0.0
2877,51.0,24.0,60.0,0.0,0.0
2878,70.0,30.0,30.0,0.0,0.0
2879,68.0,0.0,30.0,0.0,0.0
2880,66.0,27.0,30.0,0.0,0.0
2881,65.0,1.0,30.0,0.0,0.0
2882,61.0,30.0,30.0,0.0,0.0
2883,60.0,0.0,30.0,0.0,0.0
2884,63.0,18.0,30.0,0.0,0.0
2885,43.0,2.0,60.0,1.0,0.0
2886,51.0,9.0,60.0,1.0,0.0
2887,58.0,1.0,30.0,0.0,0.0
2888,61.0,46.0,30.0,0.0,0.0
2889,44.0,43.0,60.0,1.0,0.0
2890,51.0,7.0,150.0,1.0,0.0
2891,56.0,8.0,120.0,0.0,0.0
2892,60.0,5.0,120.0,0.0,0.0
2893,44.0,27.0,30.0,1.0,0.0
2894,43.0,10.0,30.0,1.0,0.0
2895,41.0,36.0,30.0,1.0,0.0
2896,39.0,29.0,30.0,1.0,0.0
2897,60.0,48.0,60.0,0.0,0.0
2898,51.0,5.0,60.0,1.0,0.0
2899,37.0,24.0,30.0,1.0,0.0
2900,56.0,31.0,120.0,0.0,0.0
2901,36.0,2.0,30.0,1.0,0.0
2902,61.0,4.0,60.0,0.0,0.0
2903,49.0,7.0,180.0,1.0,0.0
2904,34.0,6.0,60.0,1.0,0.0
2905,58.0,18.0,60.0,0.0,0.0
2906,46.0,29.0,30.0,1.0,0.0
2907,55.0,8.0,90.0,0.0,0.0
2908,44.0,4.0,30.0,1.0,0.0
2909,43.0,23.0,30.0,1.0,0.0
2910,41.0,27.0,30.0,1.0,0.0
2911,55.0,2.0,30.0,1.0,0.0
2912,58.0,5.0,120.0,0.0,0.0
2913,61.0,2.0,60.0,0.0,0.0
2914,39.0,28.0,30.0,1.0,0.0
2915,53.0,58.0,30.0,1.0,0.0
2916,37.0,0.0,30.0,1.0,0.0
2917,36.0,1.0,60.0,1.0,0.0
2918,51.0,1.0,120.0,1.0,0.0
2919,63.0,25.0,60.0,0.0,0.0
2920,56.0,8.0,90.0,0.0,0.0
2921,48.0,30.0,30.0,1.0,0.0
2922,60.0,7.0,90.0,0.0,0.0
2923,46.0,19.0,30.0,1.0,0.0
2924,44.0,22.0,30.0,1.0,0.0
2925,42.0,38.0,30.0,1.0,0.0
2926,41.0,17.0,30.0,1.0,0.0
2927,54.0,1.0,60.0,1.0,0.0
2928,56.0,1.0,60.0,1.0,0.0
2929,63.0,61.0,60.0,0.0,0.0
2930,60.0,5.0,60.0,0.0,0.0
2931,39.0,1.0,30.0,1.0,0.0
2932,65.0,19.0,120.0,0.0,0.0
2933,56.0,2.0,120.0,1.0,0.0
2934,53.0,3.0,120.0,1.0,0.0
2935,37.0,1.0,120.0,1.0,0.0
2936,61.0,30.0,60.0,0.0,0.0
2937,53.0,25.0,30.0,0.0,0.0
2938,54.0,10.0,30.0,0.0,0.0
2939,56.0,33.0,30.0,0.0,0.0
2940,58.0,24.0,30.0,0.0,0.0
2941,49.0,29.0,120.0,1.0,0.0
2942,60.0,27.0,30.0,0.0,0.0
2943,65.0,56.0,60.0,0.0,0.0
2944,41.0,6.0,60.0,1.0,0.0
2945,61.0,5.0,30.0,0.0,0.0
2946,39.0,3.0,150.0,1.0,0.0
2947,63.0,0.0,60.0,0.0,0.0
2948,66.0,19.0,120.0,0.0,0.0
2949,54.0,31.0,30.0,0.0,0.0
2950,48.0,2.0,90.0,1.0,0.0
2951,56.0,7.0,30.0,0.0,0.0
2952,58.0,27.0,30.0,0.0,0.0
2953,60.0,33.0,30.0,0.0,0.0
2954,51.0,2.0,120.0,1.0,0.0
2955,66.0,57.0,60.0,0.0,0.0
2956,61.0,25.0,30.0,0.0,0.0
2957,42.0,3.0,60.0,1.0,0.0
2958,63.0,1.0,30.0,0.0,0.0
2959,68.0,4.0,120.0,0.0,0.0
2960,41.0,11.0,150.0,1.0,0.0
2961,65.0,30.0,60.0,0.0,0.0
2962,49.0,31.0,90.0,1.0,0.0
2963,56.0,31.0,30.0,0.0,0.0
2964,58.0,13.0,30.0,0.0,0.0
2965,60.0,3.0,30.0,0.0,0.0
2966,61.0,26.0,30.0,0.0,0.0
2967,44.0,4.0,60.0,1.0,0.0
2968,53.0,5.0,120.0,1.0,0.0
2969,63.0,27.0,30.0,0.0,0.0
2970,68.0,4.0,60.0,0.0,0.0
2971,65.0,26.0,30.0,0.0,0.0
2972,66.0,27.0,30.0,0.0,0.0
2973,70.0,2.0,180.0,0.0,0.0
2974,42.0,9.0,180.0,1.0,0.0
2975,68.0,28.0,30.0,0.0,0.0
2976,66.0,27.0,30.0,0.0,0.0
2977,51.0,3.0,30.0,1.0,0.0
2978,53.0,27.0,30.0,1.0,0.0
2979,65.0,3.0,30.0,0.0,0.0
2980,54.0,12.0,60.0,1.0,0.0
2981,63.0,18.0,30.0,0.0,0.0
2982,61.0,19.0,15.0,0.0,0.0
2983,60.0,19.0,30.0,0.0,0.0
2984,43.0,4.0,60.0,1.0,0.0
2985,51.0,6.0,60.0,1.0,0.0
2986,58.0,55.0,30.0,0.0,0.0
2987,51.0,4.0,120.0,1.0,0.0
2988,44.0,0.0,120.0,1.0,0.0
2989,60.0,2.0,60.0,0.0,0.0
2990,56.0,29.0,60.0,0.0,0.0
2991,63.0,5.0,30.0,0.0,0.0
2992,60.0,21.0,30.0,0.0,0.0
2993,61.0,29.0,30.0,0.0,0.0
2994,58.0,2.0,30.0,0.0,0.0
2995,56.0,26.0,30.0,0.0,0.0
2996,60.0,1.0,30.0,0.0,0.0
2997,58.0,3.0,30.0,0.0,0.0
2998,54.0,30.0,30.0,0.0,0.0
2999,32.0,0.0,30.0,1.0,0.0
3000,34.0,0.0,30.0,1.0,0.0
3001,53.0,26.0,30.0,0.0,0.0
3002,56.0,1.0,30.0,0.0,0.0
3003,36.0,17.0,30.0,1.0,0.0
3004,54.0,3.0,30.0,0.0,0.0
3005,51.0,11.0,90.0,0.0,0.0
3006,54.0,12.0,15.0,0.0,0.0
3007,37.0,17.0,30.0,1.0,0.0
3008,53.0,1.0,15.0,0.0,0.0
3009,54.0,14.0,15.0,0.0,0.0
3010,36.0,1.0,30.0,1.0,0.0
3011,53.0,3.0,15.0,0.0,0.0
3012,44.0,3.0,60.0,0.0,0.0
3013,54.0,12.0,15.0,0.0,0.0
3014,37.0,16.0,30.0,1.0,0.0
3015,53.0,2.0,15.0,0.0,0.0
3016,39.0,13.0,30.0,1.0,0.0
3017,54.0,12.0,15.0,0.0,0.0
3018,53.0,1.0,15.0,0.0,0.0
3019,49.0,0.0,120.0,0.0,0.0
3020,54.0,12.0,15.0,0.0,0.0
3021,41.0,1.0,30.0,1.0,0.0
3022,53.0,15.0,15.0,0.0,0.0
3023,54.0,17.0,15.0,0.0,0.0
3024,39.0,1.0,30.0,1.0,0.0
3025,53.0,29.0,15.0,0.0,0.0
3026,41.0,26.0,30.0,1.0,0.0
3027,51.0,1.0,30.0,0.0,0.0
3028,53.0,4.0,30.0,0.0,0.0
3029,43.0,60.0,30.0,1.0,0.0
3030,48.0,28.0,60.0,0.0,0.0
3031,51.0,0.0,120.0,0.0,0.0
3032,44.0,3.0,120.0,1.0,0.0
3033,63.0,30.0,30.0,0.0,0.0
3034,60.0,0.0,30.0,1.0,0.0
3035,61.0,26.0,30.0,0.0,0.0
3036,58.0,1.0,30.0,1.0,0.0
3037,56.0,2.0,30.0,1.0,0.0
3038,60.0,28.0,30.0,0.0,0.0
3039,58.0,1.0,30.0,0.0,0.0
3040,32.0,29.0,30.0,1.0,0.0
3041,54.0,0.0,30.0,1.0,0.0
3042,56.0,22.0,30.0,0.0,0.0
3043,53.0,1.0,30.0,1.0,0.0
3044,34.0,3.0,30.0,1.0,0.0
3045,51.0,2.0,30.0,1.0,0.0
3046,36.0,13.0,30.0,1.0,0.0
3047,54.0,4.0,20.0,0.0,0.0
3048,54.0,12.0,15.0,0.0,0.0
3049,51.0,3.0,15.0,1.0,0.0
3050,37.0,2.0,60.0,1.0,0.0
3051,49.0,0.0,15.0,1.0,0.0
3052,53.0,15.0,15.0,0.0,0.0
3053,54.0,10.0,15.0,0.0,0.0
3054,51.0,3.0,15.0,1.0,0.0
3055,56.0,14.0,30.0,0.0,0.0
3056,53.0,0.0,15.0,0.0,0.0
3057,49.0,1.0,15.0,1.0,0.0
3058,58.0,14.0,30.0,0.0,0.0
3059,54.0,11.0,15.0,0.0,0.0
3060,44.0,2.0,60.0,1.0,0.0
3061,51.0,3.0,15.0,1.0,0.0
3062,49.0,1.0,15.0,1.0,0.0
3063,53.0,1.0,15.0,0.0,0.0
3064,51.0,3.0,15.0,1.0,0.0
3065,54.0,10.0,15.0,0.0,0.0
3066,60.0,0.0,30.0,0.0,0.0
3067,49.0,2.0,15.0,1.0,0.0
3068,53.0,13.0,15.0,0.0,0.0
3069,61.0,2.0,30.0,0.0,0.0
3070,41.0,1.0,60.0,1.0,0.0
3071,54.0,14.0,15.0,0.0,0.0
3072,51.0,1.0,15.0,1.0,0.0
3073,49.0,1.0,15.0,1.0,0.0
3074,53.0,12.0,15.0,0.0,0.0
3075,63.0,28.0,30.0,0.0,0.0
3076,54.0,11.0,15.0,0.0,0.0
3077,51.0,2.0,15.0,1.0,0.0
3078,49.0,2.0,15.0,1.0,0.0
3079,53.0,1.0,15.0,0.0,0.0
3080,51.0,25.0,30.0,0.0,0.0
3081,65.0,2.0,30.0,0.0,0.0
3082,37.0,2.0,60.0,1.0,0.0
3083,48.0,1.0,30.0,1.0,0.0
3084,49.0,1.0,30.0,1.0,0.0
3085,67.0,61.0,30.0,0.0,0.0
3086,53.0,2.0,30.0,0.0,0.0
3087,32.0,27.0,60.0,1.0,0.0
3088,48.0,8.0,120.0,1.0,0.0
3089,68.0,5.0,120.0,0.0,0.0
3090,51.0,2.0,120.0,0.0,0.0
3091,34.0,23.0,30.0,1.0,0.0
3092,36.0,22.0,30.0,1.0,0.0
3093,37.0,31.0,30.0,1.0,0.0
3094,39.0,30.0,30.0,1.0,0.0
3095,41.0,29.0,30.0,1.0,0.0
3096,43.0,30.0,30.0,1.0,0.0
3097,44.0,28.0,30.0,1.0,0.0
3098,46.0,31.0,30.0,1.0,0.0
3099,44.0,32.0,30.0,1.0,0.0
3100,43.0,31.0,30.0,1.0,0.0
3101,44.0,28.0,30.0,1.0,0.0
3102,41.0,31.0,30.0,1.0,0.0
3103,42.0,25.0,30.0,1.0,0.0
3104,39.0,32.0,30.0,1.0,0.0
3105,37.0,27.0,120.0,1.0,0.0
3106,49.0,33.0,30.0,1.0,0.0
3107,53.0,2.0,30.0,0.0,0.0
3108,54.0,1.0,30.0,0.0,0.0
3109,51.0,26.0,30.0,1.0,0.0
3110,53.0,30.0,30.0,0.0,0.0
3111,49.0,0.0,30.0,1.0,0.0
3112,54.0,1.0,30.0,0.0,0.0
3113,51.0,1.0,30.0,1.0,0.0
3114,56.0,1.0,30.0,0.0,0.0
3115,53.0,27.0,30.0,1.0,0.0
3116,54.0,13.0,30.0,0.0,0.0
3117,51.0,4.0,30.0,1.0,0.0
3118,56.0,16.0,30.0,0.0,0.0
3119,44.0,11.0,15.0,1.0,0.0
3120,53.0,5.0,30.0,1.0,0.0
3121,32.0,1.0,15.0,1.0,0.0
3122,60.0,2.0,60.0,0.0,0.0
3123,54.0,30.0,30.0,0.0,0.0
3124,51.0,0.0,30.0,1.0,0.0
3125,32.0,2.0,15.0,1.0,0.0
3126,44.0,10.0,20.0,1.0,0.0
3127,49.0,5.0,30.0,1.0,0.0
3128,37.0,4.0,120.0,1.0,0.0
3129,53.0,17.0,30.0,0.0,0.0
3130,61.0,7.0,60.0,0.0,0.0
3131,54.0,4.0,30.0,0.0,0.0
3132,51.0,27.0,30.0,1.0,0.0
3133,49.0,2.0,30.0,1.0,0.0
3134,53.0,22.0,30.0,0.0,0.0
3135,51.0,3.0,30.0,1.0,0.0
3136,54.0,1.0,30.0,0.0,0.0
3137,56.0,26.0,15.0,0.0,0.0
3138,53.0,2.0,30.0,1.0,0.0
3139,54.0,15.0,30.0,0.0,0.0
3140,51.0,1.0,30.0,1.0,0.0
3141,44.0,11.0,15.0,1.0,0.0
3142,32.0,2.0,15.0,1.0,0.0
3143,53.0,4.0,30.0,1.0,0.0
3144,56.0,15.0,30.0,0.0,0.0
3145,60.0,3.0,60.0,0.0,0.0
3146,44.0,2.0,15.0,1.0,0.0
3147,32.0,7.0,15.0,1.0,0.0
3148,51.0,9.0,30.0,1.0,0.0
3149,54.0,46.0,30.0,0.0,0.0
3150,53.0,62.0,120.0,0.0,0.0
3151,61.0,20.0,60.0,0.0,0.0
3152,37.0,5.0,60.0,1.0,0.0
3153,49.0,2.0,120.0,1.0,0.0
3154,65.0,36.0,15.0,0.0,0.0
3155,68.0,18.0,210.0,0.0,0.0
3156,41.0,8.0,90.0,1.0,0.0
3157,65.0,3.0,30.0,0.0,0.0
3158,61.0,22.0,30.0,1.0,0.0
3159,60.0,0.0,30.0,1.0,0.0
3160,63.0,30.0,30.0,0.0,0.0
3161,61.0,0.0,30.0,0.0,0.0
3162,58.0,30.0,30.0,1.0,0.0
3163,56.0,2.0,30.0,1.0,0.0
3164,44.0,1.0,120.0,1.0,0.0
3165,60.0,28.0,30.0,0.0,0.0
3166,58.0,1.0,30.0,1.0,0.0
3167,61.0,32.0,30.0,0.0,0.0
3168,56.0,6.0,30.0,1.0,0.0
3169,60.0,2.0,30.0,0.0,0.0
3170,58.0,0.0,30.0,0.0,0.0
3171,54.0,16.0,30.0,1.0,0.0
3172,56.0,2.0,30.0,0.0,0.0
3173,61.0,13.0,15.0,0.0,0.0
3174,53.0,11.0,30.0,1.0,0.0
3175,60.0,2.0,15.0,0.0,0.0
3176,54.0,13.0,30.0,1.0,0.0
3177,61.0,14.0,15.0,0.0,0.0
3178,58.0,1.0,30.0,0.0,0.0
3179,60.0,4.0,15.0,0.0,0.0
3180,61.0,14.0,15.0,0.0,0.0
3181,56.0,12.0,30.0,0.0,0.0
3182,53.0,3.0,30.0,1.0,0.0
3183,60.0,1.0,15.0,0.0,0.0
3184,51.0,30.0,30.0,1.0,0.0
3185,58.0,11.0,15.0,0.0,0.0
3186,54.0,1.0,30.0,0.0,0.0
3187,60.0,3.0,15.0,0.0,0.0
3188,53.0,24.0,30.0,0.0,0.0
3189,61.0,7.0,60.0,0.0,0.0
3190,37.0,11.0,90.0,1.0,0.0
3191,49.0,1.0,30.0,1.0,0.0
3192,51.0,0.0,30.0,1.0,0.0
3193,54.0,27.0,30.0,0.0,0.0
3194,56.0,6.0,60.0,0.0,0.0
3195,49.0,12.0,30.0,1.0,0.0
3196,53.0,1.0,30.0,0.0,0.0
3197,54.0,1.0,30.0,0.0,0.0
3198,51.0,28.0,30.0,1.0,0.0
3199,53.0,1.0,30.0,1.0,0.0
3200,56.0,29.0,30.0,0.0,0.0
3201,51.0,1.0,30.0,1.0,0.0
3202,54.0,14.0,30.0,0.0,0.0
3203,53.0,1.0,30.0,1.0,0.0
3204,60.0,1.0,60.0,0.0,0.0
3205,44.0,15.0,15.0,1.0,0.0
3206,56.0,13.0,30.0,0.0,0.0
3207,32.0,1.0,15.0,1.0,0.0
3208,51.0,3.0,30.0,1.0,0.0
3209,54.0,32.0,30.0,0.0,0.0
3210,44.0,3.0,15.0,1.0,0.0
3211,32.0,10.0,15.0,1.0,0.0
3212,37.0,7.0,120.0,1.0,0.0
3213,49.0,23.0,30.0,1.0,0.0
3214,61.0,2.0,60.0,0.0,0.0
3215,53.0,3.0,30.0,0.0,0.0
3216,54.0,2.0,30.0,0.0,0.0
3217,51.0,26.0,30.0,1.0,0.0
3218,53.0,1.0,30.0,0.0,0.0
3219,49.0,23.0,30.0,1.0,0.0
3220,51.0,8.0,30.0,1.0,0.0
3221,54.0,1.0,30.0,0.0,0.0
3222,53.0,1.0,30.0,1.0,0.0
3223,56.0,21.0,15.0,0.0,0.0
3224,54.0,13.0,30.0,0.0,0.0
3225,51.0,1.0,30.0,1.0,0.0
3226,56.0,14.0,30.0,0.0,0.0
3227,60.0,2.0,60.0,0.0,0.0
3228,53.0,3.0,30.0,1.0,0.0
3229,32.0,1.0,15.0,1.0,0.0
3230,44.0,14.0,15.0,1.0,0.0
3231,51.0,1.0,30.0,1.0,0.0
3232,32.0,11.0,15.0,1.0,0.0
3233,44.0,0.0,15.0,1.0,0.0
3234,54.0,56.0,30.0,0.0,0.0
3235,61.0,14.0,60.0,0.0,0.0
3236,53.0,54.0,120.0,0.0,0.0
3237,49.0,14.0,120.0,1.0,0.0
3238,37.0,5.0,60.0,1.0,0.0
3239,65.0,37.0,15.0,0.0,0.0
3240,68.0,20.0,210.0,0.0,0.0
3241,41.0,1.0,90.0,1.0,0.0
3242,65.0,29.0,30.0,0.0,0.0
3243,61.0,1.0,30.0,1.0,0.0
3244,60.0,1.0,30.0,1.0,0.0
3245,63.0,30.0,30.0,0.0,0.0
3246,58.0,1.0,30.0,1.0,0.0
3247,61.0,27.0,30.0,0.0,0.0
3248,56.0,31.0,30.0,1.0,0.0
3249,44.0,21.0,60.0,1.0,0.0
3250,60.0,1.0,30.0,0.0,0.0
3251,58.0,8.0,30.0,1.0,0.0
3252,61.0,1.0,30.0,0.0,0.0
3253,56.0,3.0,30.0,1.0,0.0
3254,60.0,4.0,30.0,0.0,0.0
3255,58.0,15.0,30.0,0.0,0.0
3256,54.0,2.0,30.0,1.0,0.0
3257,56.0,9.0,30.0,0.0,0.0
3258,53.0,2.0,30.0,1.0,0.0
3259,61.0,14.0,15.0,0.0,0.0
3260,60.0,3.0,15.0,0.0,0.0
3261,54.0,15.0,30.0,1.0,0.0
3262,58.0,0.0,30.0,0.0,0.0
3263,61.0,17.0,15.0,0.0,0.0
3264,60.0,0.0,15.0,0.0,0.0
3265,56.0,0.0,30.0,0.0,0.0
3266,61.0,15.0,15.0,0.0,0.0
3267,53.0,1.0,30.0,1.0,0.0
3268,60.0,16.0,15.0,0.0,0.0
3269,54.0,29.0,30.0,0.0,0.0
3270,58.0,11.0,15.0,0.0,0.0
3271,51.0,1.0,30.0,1.0,0.0
3272,60.0,2.0,15.0,0.0,0.0
3273,61.0,5.0,240.0,0.0,0.0
3274,53.0,29.0,30.0,0.0,0.0
3275,49.0,8.0,690.0,1.0,0.0
3276,37.0,1.0,30.0,1.0,0.0
3277,54.0,29.0,30.0,0.0,0.0
3278,39.0,0.0,30.0,1.0,0.0
3279,37.0,1.0,30.0,1.0,0.0
3280,53.0,31.0,30.0,0.0,0.0
3281,54.0,0.0,30.0,0.0,0.0
3282,39.0,28.0,30.0,1.0,0.0
3283,56.0,1.0,30.0,0.0,0.0
3284,41.0,29.0,30.0,1.0,0.0
3285,54.0,31.0,30.0,0.0,0.0
3286,39.0,1.0,30.0,1.0,0.0
3287,56.0,3.0,30.0,0.0,0.0
3288,41.0,21.0,30.0,1.0,0.0
3289,37.0,2.0,30.0,1.0,0.0
3290,53.0,27.0,30.0,0.0,0.0
3291,39.0,30.0,30.0,1.0,0.0
3292,60.0,16.0,210.0,0.0,0.0
3293,54.0,1.0,30.0,0.0,0.0
3294,56.0,25.0,30.0,0.0,0.0
3295,41.0,5.0,30.0,1.0,0.0
3296,54.0,30.0,30.0,0.0,0.0
3297,39.0,0.0,30.0,1.0,0.0
3298,56.0,27.0,30.0,0.0,0.0
3299,41.0,2.0,30.0,1.0,0.0
3300,57.0,33.0,30.0,0.0,0.0
3301,42.0,1.0,30.0,1.0,0.0
3302,56.0,1.0,30.0,0.0,0.0
3303,41.0,26.0,30.0,1.0,0.0
3304,57.0,8.0,30.0,0.0,0.0
3305,42.0,4.0,30.0,1.0,0.0
3306,54.0,3.0,30.0,0.0,0.0
3307,39.0,15.0,30.0,1.0,0.0
3308,61.0,13.0,15.0,0.0,0.0
3309,56.0,0.0,30.0,0.0,0.0
3310,41.0,13.0,30.0,1.0,0.0
3311,59.0,3.0,15.0,0.0,0.0
3312,54.0,16.0,30.0,0.0,0.0
3313,61.0,14.0,15.0,0.0,0.0
3314,42.0,1.0,30.0,1.0,0.0
3315,59.0,0.0,15.0,0.0,0.0
3316,56.0,1.0,30.0,0.0,0.0
3317,61.0,14.0,15.0,0.0,0.0
3318,41.0,12.0,30.0,1.0,0.0
3319,59.0,1.0,15.0,0.0,0.0
3320,42.0,14.0,30.0,1.0,0.0
3321,61.0,15.0,15.0,0.0,0.0
3322,54.0,1.0,30.0,0.0,0.0
3323,59.0,2.0,15.0,0.0,0.0
3324,44.0,14.0,30.0,1.0,0.0
3325,61.0,14.0,15.0,0.0,0.0
3326,53.0,1.0,30.0,0.0,0.0
3327,59.0,0.0,15.0,0.0,0.0
3328,61.0,15.0,15.0,0.0,0.0
3329,54.0,18.0,30.0,0.0,0.0
3330,42.0,1.0,30.0,1.0,0.0
3331,59.0,2.0,15.0,0.0,0.0
3332,53.0,22.0,30.0,0.0,0.0
3333,58.0,2.0,30.0,0.0,0.0
3334,44.0,1.0,30.0,1.0,0.0
3335,59.0,3.0,30.0,0.0,0.0
3336,56.0,28.0,30.0,0.0,0.0
3337,41.0,5.0,20.0,1.0,0.0
3338,54.0,0.0,30.0,0.0,0.0
3339,58.0,31.0,30.0,0.0,0.0
3340,49.0,3.0,120.0,1.0,0.0
3341,42.0,6.0,120.0,1.0,0.0
3342,59.0,2.0,30.0,0.0,0.0
3343,56.0,27.0,30.0,0.0,0.0
3344,58.0,2.0,30.0,0.0,0.0
3345,54.0,18.0,30.0,0.0,0.0
3346,56.0,26.0,30.0,0.0,0.0
3347,59.0,3.0,30.0,0.0,0.0
3348,58.0,26.0,30.0,0.0,0.0
3349,61.0,4.0,30.0,0.0,0.0
3350,59.0,4.0,30.0,0.0,0.0
3351,56.0,26.0,30.0,0.0,0.0
3352,61.0,6.0,30.0,0.0,0.0
3353,54.0,28.0,30.0,0.0,0.0
3354,58.0,26.0,15.0,0.0,0.0
3355,56.0,0.0,30.0,0.0,0.0
3356,68.0,12.0,930.0,0.0,0.0
3357,32.0,4.0,900.0,1.0,0.0
3358,48.0,29.0,30.0,1.0,0.0
3359,49.0,28.0,30.0,1.0,0.0
3360,58.0,3.0,30.0,0.0,0.0
3361,56.0,29.0,30.0,0.0,0.0
3362,48.0,1.0,30.0,1.0,0.0
3363,49.0,29.0,30.0,1.0,0.0
3364,58.0,0.0,30.0,0.0,0.0
3365,51.0,2.0,30.0,1.0,0.0
3366,60.0,29.0,30.0,0.0,0.0
3367,58.0,2.0,30.0,0.0,0.0
3368,49.0,29.0,30.0,1.0,0.0
3369,60.0,1.0,30.0,0.0,0.0
3370,51.0,29.0,30.0,1.0,0.0
3371,48.0,1.0,30.0,1.0,0.0
3372,56.0,28.0,30.0,0.0,0.0
3373,49.0,31.0,30.0,1.0,0.0
3374,67.0,13.0,240.0,0.0,0.0
3375,58.0,1.0,30.0,0.0,0.0
3376,51.0,0.0,30.0,1.0,0.0
3377,60.0,26.0,30.0,0.0,0.0
3378,49.0,2.0,30.0,1.0,0.0
3379,58.0,30.0,30.0,0.0,0.0
3380,51.0,2.0,30.0,1.0,0.0
3381,60.0,28.0,30.0,0.0,0.0
3382,52.0,0.0,30.0,1.0,0.0
3383,61.0,30.0,30.0,0.0,0.0
3384,51.0,1.0,30.0,1.0,0.0
3385,60.0,32.0,30.0,0.0,0.0
3386,61.0,13.0,30.0,0.0,0.0
3387,52.0,2.0,30.0,1.0,0.0
3388,49.0,0.0,30.0,1.0,0.0
3389,58.0,29.0,30.0,0.0,0.0
3390,66.0,8.0,180.0,0.0,0.0
3391,51.0,29.0,30.0,1.0,0.0
3392,60.0,1.0,30.0,0.0,0.0
3393,53.0,2.0,30.0,1.0,0.0
3394,61.0,27.0,30.0,0.0,0.0
3395,51.0,30.0,30.0,1.0,0.0
3396,60.0,2.0,30.0,0.0,0.0
3397,53.0,0.0,30.0,1.0,0.0
3398,61.0,29.0,30.0,0.0,0.0
3399,54.0,22.0,30.0,1.0,0.0
3400,63.0,0.0,30.0,0.0,0.0
3401,53.0,27.0,30.0,1.0,0.0
3402,61.0,3.0,30.0,0.0,0.0
3403,54.0,1.0,30.0,1.0,0.0
3404,63.0,29.0,30.0,0.0,0.0
3405,65.0,1.0,30.0,0.0,0.0
3406,60.0,1.0,30.0,0.0,0.0
3407,66.0,27.0,30.0,0.0,0.0
3408,51.0,1.0,30.0,1.0,0.0
3409,52.0,31.0,30.0,1.0,0.0
3410,64.0,3.0,120.0,0.0,0.0
3411,61.0,0.0,30.0,0.0,0.0
3412,63.0,1.0,30.0,0.0,0.0
3413,54.0,27.0,30.0,1.0,0.0
3414,52.0,19.0,30.0,1.0,0.0
3415,61.0,7.0,30.0,0.0,0.0
3416,63.0,28.0,30.0,0.0,0.0
3417,54.0,4.0,30.0,1.0,0.0
3418,56.0,31.0,30.0,1.0,0.0
3419,64.0,2.0,30.0,0.0,0.0
3420,54.0,0.0,30.0,1.0,0.0
3421,63.0,13.0,30.0,0.0,0.0
3422,56.0,21.0,30.0,1.0,0.0
3423,64.0,0.0,30.0,0.0,0.0
3424,52.0,5.0,20.0,1.0,0.0
3425,61.0,31.0,30.0,0.0,0.0
3426,62.0,6.0,240.0,0.0,0.0
3427,56.0,4.0,30.0,0.0,0.0
3428,52.0,27.0,30.0,1.0,0.0
3429,64.0,23.0,510.0,0.0,0.0
3430,57.0,29.0,30.0,0.0,0.0
3431,54.0,1.0,30.0,1.0,0.0
3432,52.0,23.0,30.0,1.0,0.0
3433,56.0,4.0,30.0,0.0,0.0
3434,57.0,30.0,30.0,0.0,0.0
3435,54.0,3.0,30.0,1.0,0.0
3436,59.0,2.0,30.0,0.0,0.0
3437,56.0,21.0,30.0,1.0,0.0
3438,54.0,7.0,20.0,1.0,0.0
3439,57.0,17.0,30.0,0.0,0.0
3440,59.0,12.0,30.0,0.0,0.0
3441,40.0,15.0,15.0,1.0,0.0
3442,56.0,3.0,30.0,1.0,0.0
3443,40.0,6.0,20.0,1.0,0.0
3444,52.0,1.0,30.0,1.0,0.0
3445,56.0,30.0,30.0,0.0,0.0
3446,57.0,26.0,30.0,0.0,0.0
3447,45.0,5.0,120.0,1.0,0.0
3448,33.0,24.0,120.0,1.0,0.0
3449,49.0,1.0,30.0,1.0,0.0
3450,52.0,7.0,30.0,1.0,0.0
3451,61.0,4.0,30.0,0.0,0.0
3452,59.0,0.0,30.0,0.0,0.0
3453,51.0,27.0,30.0,1.0,0.0
3454,57.0,1.0,30.0,0.0,0.0
3455,49.0,2.0,30.0,1.0,0.0
3456,56.0,0.0,30.0,0.0,0.0
3457,47.0,26.0,30.0,1.0,0.0
3458,50.0,8.0,30.0,1.0,0.0
3459,59.0,14.0,30.0,0.0,0.0
3460,49.0,22.0,30.0,1.0,0.0
3461,40.0,11.0,15.0,1.0,0.0
3462,57.0,1.0,30.0,0.0,0.0
3463,56.0,27.0,30.0,0.0,0.0
3464,40.0,10.0,20.0,1.0,0.0
3465,47.0,1.0,20.0,1.0,0.0
3466,45.0,0.0,120.0,1.0,0.0
3467,33.0,26.0,120.0,1.0,0.0
3468,57.0,4.0,30.0,0.0,0.0
3469,49.0,3.0,30.0,1.0,0.0
3470,61.0,2.0,30.0,0.0,0.0
3471,52.0,26.0,30.0,1.0,0.0
3472,65.0,4.0,60.0,0.0,0.0
3473,50.0,5.0,30.0,1.0,0.0
3474,59.0,27.0,30.0,0.0,0.0
3475,61.0,0.0,30.0,0.0,0.0
3476,52.0,1.0,30.0,1.0,0.0
3477,49.0,29.0,30.0,1.0,0.0
3478,66.0,19.0,390.0,0.0,0.0
3479,58.0,0.0,30.0,0.0,0.0
3480,61.0,11.0,30.0,0.0,0.0
3481,52.0,5.0,30.0,1.0,0.0
3482,59.0,25.0,30.0,0.0,0.0
3483,51.0,5.0,30.0,1.0,0.0
3484,42.0,10.0,15.0,1.0,0.0
3485,49.0,1.0,30.0,1.0,0.0
3486,42.0,7.0,30.0,1.0,0.0
3487,58.0,28.0,30.0,0.0,0.0
3488,51.0,1.0,30.0,1.0,0.0
3489,47.0,21.0,120.0,1.0,0.0
3490,35.0,2.0,120.0,1.0,0.0
3491,59.0,23.0,30.0,0.0,0.0
3492,63.0,5.0,30.0,0.0,0.0
3493,54.0,30.0,30.0,1.0,0.0
3494,61.0,1.0,30.0,0.0,0.0
3495,52.0,29.0,30.0,1.0,0.0
3496,59.0,4.0,30.0,0.0,0.0
3497,51.0,2.0,30.0,1.0,0.0
3498,49.0,27.0,30.0,1.0,0.0
3499,58.0,1.0,30.0,0.0,0.0
3500,61.0,13.0,30.0,0.0,0.0
3501,52.0,4.0,30.0,1.0,0.0
3502,59.0,19.0,30.0,0.0,0.0
3503,42.0,8.0,15.0,1.0,0.0
3504,51.0,9.0,20.0,1.0,0.0
3505,42.0,0.0,20.0,1.0,0.0
3506,49.0,9.0,20.0,1.0,0.0
3507,58.0,30.0,30.0,0.0,0.0
3508,59.0,5.0,30.0,0.0,0.0
3509,51.0,4.0,30.0,1.0,0.0
3510,35.0,0.0,120.0,1.0,0.0
3511,47.0,28.0,120.0,1.0,0.0
3512,63.0,0.0,30.0,0.0,0.0
3513,54.0,35.0,30.0,1.0,0.0
3514,52.0,1.0,30.0,1.0,0.0
3515,61.0,25.0,30.0,0.0,0.0
3516,67.0,1.0,60.0,0.0,0.0
3517,54.0,1.0,30.0,1.0,0.0
3518,63.0,3.0,30.0,0.0,0.0
3519,68.0,47.0,360.0,0.0,0.0
3520,51.0,20.0,30.0,1.0,0.0
3521,60.0,2.0,30.0,0.0,0.0
3522,54.0,9.0,20.0,1.0,0.0
3523,63.0,12.0,30.0,0.0,0.0
3524,44.0,0.0,15.0,1.0,0.0
3525,32.0,11.0,15.0,1.0,0.0
3526,52.0,5.0,30.0,1.0,0.0
3527,61.0,11.0,30.0,0.0,0.0
3528,60.0,29.0,30.0,0.0,0.0
3529,32.0,3.0,15.0,1.0,0.0
3530,44.0,7.0,15.0,1.0,0.0
3531,51.0,11.0,20.0,1.0,0.0
3532,52.0,28.0,30.0,1.0,0.0
3533,37.0,0.0,120.0,1.0,0.0
3534,49.0,11.0,120.0,1.0,0.0
3535,61.0,0.0,30.0,0.0,0.0
3536,56.0,5.0,30.0,1.0,0.0
3537,64.0,26.0,30.0,0.0,0.0
3538,54.0,1.0,30.0,1.0,0.0
3539,63.0,16.0,30.0,0.0,0.0
3540,52.0,3.0,30.0,1.0,0.0
3541,61.0,30.0,30.0,0.0,0.0
3542,51.0,1.0,30.0,1.0,0.0
3543,60.0,24.0,30.0,0.0,0.0
3544,63.0,13.0,30.0,0.0,0.0
3545,54.0,5.0,30.0,1.0,0.0
3546,32.0,0.0,15.0,1.0,0.0
3547,52.0,6.0,30.0,1.0,0.0
3548,61.0,9.0,30.0,0.0,0.0
3549,44.0,11.0,15.0,1.0,0.0
3550,32.0,2.0,15.0,1.0,0.0
3551,51.0,5.0,20.0,1.0,0.0
3552,60.0,15.0,30.0,0.0,0.0
3553,44.0,11.0,15.0,1.0,0.0
3554,52.0,1.0,60.0,1.0,0.0
3555,37.0,25.0,60.0,1.0,0.0
3556,49.0,0.0,60.0,1.0,0.0
3557,61.0,2.0,30.0,0.0,0.0
3558,63.0,30.0,30.0,0.0,0.0
3559,61.0,34.0,30.0,0.0,0.0
3560,65.0,23.0,30.0,0.0,0.0
3561,49.0,4.0,60.0,1.0,0.0
3562,47.0,2.0,60.0,1.0,0.0
3563,35.0,14.0,90.0,1.0,0.0
3564,56.0,10.0,60.0,0.0,0.0
3565,53.0,1.0,60.0,0.0,0.0
3566,61.0,4.0,30.0,0.0,0.0
3567,63.0,29.0,30.0,0.0,0.0
3568,61.0,37.0,30.0,0.0,0.0
3569,46.0,0.0,60.0,1.0,0.0
3570,34.0,27.0,60.0,1.0,0.0
3571,66.0,20.0,30.0,0.0,0.0
3572,58.0,4.0,60.0,0.0,0.0
3573,49.0,1.0,60.0,1.0,0.0
3574,54.0,0.0,60.0,0.0,0.0
3575,61.0,2.0,30.0,0.0,0.0
3576,63.0,28.0,30.0,0.0,0.0
3577,61.0,34.0,30.0,0.0,0.0
3578,33.0,10.0,90.0,1.0,0.0
3579,45.0,0.0,90.0,1.0,0.0
3580,52.0,2.0,90.0,1.0,0.0
3581,55.0,13.0,60.0,0.0,0.0
3582,67.0,26.0,30.0,0.0,0.0
3583,49.0,3.0,90.0,1.0,0.0
3584,61.0,4.0,30.0,0.0,0.0
3585,63.0,25.0,30.0,0.0,0.0
3586,61.0,30.0,30.0,0.0,0.0
3587,61.0,1.0,120.0,0.0,0.0
3588,56.0,1.0,120.0,0.0,0.0
3589,49.0,55.0,120.0,0.0,0.0
3590,44.0,2.0,30.0,1.0,0.0
3591,32.0,2.0,30.0,1.0,0.0
3592,53.0,2.0,120.0,0.0,0.0
3593,68.0,4.0,120.0,0.0,0.0
3594,37.0,1.0,30.0,1.0,0.0
3595,49.0,29.0,30.0,1.0,0.0
3596,41.0,2.0,30.0,1.0,0.0
3597,53.0,24.0,30.0,1.0,0.0
3598,49.0,1.0,30.0,1.0,0.0
3599,37.0,1.0,30.0,1.0,0.0
3600,32.0,4.0,120.0,1.0,0.0
3601,44.0,1.0,120.0,1.0,0.0
3602,49.0,2.0,30.0,0.0,0.0
3603,53.0,27.0,30.0,0.0,0.0
3604,54.0,2.0,30.0,0.0,0.0
3605,51.0,27.0,30.0,0.0,0.0
3606,53.0,7.0,30.0,0.0,0.0
3607,56.0,17.0,30.0,0.0,0.0
3608,58.0,27.0,30.0,0.0,0.0
3609,54.0,3.0,30.0,0.0,0.0
3610,60.0,2.0,30.0,0.0,0.0
3611,56.0,31.0,30.0,0.0,0.0
3612,61.0,7.0,30.0,0.0,0.0
3613,58.0,23.0,30.0,0.0,0.0
3614,63.0,12.0,30.0,0.0,0.0
3615,60.0,0.0,30.0,0.0,0.0
3616,66.0,5.0,15.0,0.0,0.0
3617,63.0,14.0,15.0,0.0,0.0
3618,65.0,4.0,15.0,0.0,0.0
3619,61.0,24.0,20.0,0.0,0.0
3620,63.0,31.0,30.0,0.0,0.0
3621,60.0,2.0,30.0,0.0,0.0
3622,65.0,25.0,30.0,0.0,0.0
3623,61.0,1.0,30.0,0.0,0.0
3624,66.0,29.0,30.0,0.0,0.0
3625,63.0,2.0,30.0,0.0,0.0
3626,32.0,26.0,30.0,1.0,0.0
3627,65.0,5.0,120.0,0.0,0.0
3628,44.0,4.0,30.0,1.0,0.0
3629,68.0,0.0,120.0,0.0,0.0
3630,37.0,28.0,30.0,1.0,0.0
3631,49.0,1.0,30.0,1.0,0.0
3632,53.0,24.0,30.0,1.0,0.0
3633,41.0,2.0,30.0,1.0,0.0
3634,37.0,59.0,30.0,1.0,0.0
3635,49.0,2.0,30.0,1.0,0.0
3636,44.0,6.0,120.0,1.0,0.0
3637,32.0,1.0,120.0,1.0,0.0
3638,49.0,27.0,30.0,0.0,0.0
3639,53.0,0.0,30.0,0.0,0.0
3640,51.0,21.0,30.0,0.0,0.0
3641,54.0,5.0,30.0,0.0,0.0
3642,56.0,2.0,30.0,0.0,0.0
3643,53.0,25.0,30.0,0.0,0.0
3644,54.0,3.0,30.0,0.0,0.0
3645,58.0,28.0,30.0,0.0,0.0
3646,60.0,2.0,30.0,0.0,0.0
3647,56.0,28.0,30.0,0.0,0.0
3648,58.0,28.0,30.0,0.0,0.0
3649,61.0,2.0,30.0,0.0,0.0
3650,63.0,33.0,30.0,0.0,0.0
3651,60.0,2.0,30.0,0.0,0.0
3652,61.0,1.0,30.0,0.0,0.0
3653,65.0,25.0,30.0,0.0,0.0
3654,66.0,3.0,30.0,0.0,0.0
3655,63.0,29.0,30.0,0.0,0.0
3656,64.0,28.0,30.0,0.0,0.0
3657,67.0,1.0,30.0,0.0,0.0
3658,68.0,230.0,30.0,0.0,0.0
3659,65.0,0.0,30.0,0.0,0.0
3660,43.0,1.0,240.0,1.0,0.0
3661,55.0,2.0,240.0,1.0,0.0
3662,70.0,117.0,240.0,0.0,0.0
3663,64.0,16.0,450.0,0.0,0.0
3664,61.0,43.0,840.0,0.0,0.0
3665,68.0,6.0,120.0,0.0,0.0
3666,56.0,98.0,120.0,1.0,0.0
3667,44.0,0.0,120.0,1.0,0.0
3668,57.0,2.0,120.0,1.0,0.0
3669,45.0,3.0,120.0,1.0,0.0
3670,67.0,80.0,120.0,0.0,0.0
3671,32.0,17.0,480.0,1.0,0.0
3672,68.0,4.0,300.0,0.0,0.0
3673,65.0,50.0,240.0,0.0,0.0
3674,44.0,13.0,30.0,1.0,0.0
3675,46.0,28.0,30.0,1.0,0.0
3676,48.0,32.0,30.0,1.0,0.0
3677,49.0,35.0,30.0,1.0,0.0
3678,51.0,26.0,30.0,1.0,0.0
3679,53.0,28.0,30.0,1.0,0.0
3680,54.0,2.0,30.0,1.0,0.0
3681,56.0,56.0,60.0,1.0,0.0
3682,58.0,1.0,60.0,1.0,0.0
3683,64.0,9.0,60.0,0.0,0.0
3684,67.0,11.0,60.0,0.0,0.0
3685,63.0,5.0,60.0,0.0,0.0
3686,66.0,42.0,60.0,0.0,0.0
3687,60.0,5.0,90.0,1.0,0.0
3688,61.0,8.0,60.0,0.0,0.0
3689,65.0,0.0,60.0,0.0,0.0
3690,61.0,3.0,15.0,0.0,0.0
3691,56.0,4.0,15.0,1.0,0.0
3692,65.0,8.0,20.0,0.0,0.0
3693,54.0,0.0,15.0,1.0,0.0
3694,60.0,14.0,15.0,0.0,0.0
3695,63.0,1.0,15.0,0.0,0.0
3696,32.0,0.0,30.0,1.0,0.0
3697,65.0,10.0,15.0,0.0,0.0
3698,61.0,2.0,15.0,0.0,0.0
3699,56.0,2.0,15.0,1.0,0.0
3700,63.0,1.0,15.0,0.0,0.0
3701,54.0,0.0,15.0,1.0,0.0
3702,60.0,15.0,15.0,0.0,0.0
3703,34.0,0.0,30.0,1.0,0.0
3704,56.0,1.0,15.0,1.0,0.0
3705,65.0,0.0,15.0,0.0,0.0
3706,61.0,14.0,15.0,0.0,0.0
3707,54.0,15.0,15.0,1.0,0.0
3708,63.0,0.0,15.0,0.0,0.0
3709,60.0,0.0,15.0,0.0,0.0
3710,61.0,1.0,15.0,0.0,0.0
3711,65.0,13.0,15.0,0.0,0.0
3712,36.0,2.0,30.0,1.0,0.0
3713,56.0,1.0,15.0,1.0,0.0
3714,63.0,0.0,15.0,0.0,0.0
3715,60.0,13.0,15.0,0.0,0.0
3716,54.0,0.0,15.0,1.0,0.0
3717,56.0,1.0,15.0,1.0,0.0
3718,37.0,0.0,30.0,1.0,0.0
3719,65.0,14.0,15.0,0.0,0.0
3720,61.0,0.0,15.0,0.0,0.0
3721,63.0,1.0,15.0,0.0,0.0
3722,60.0,12.0,15.0,0.0,0.0
3723,54.0,2.0,15.0,1.0,0.0
3724,61.0,13.0,15.0,0.0,0.0
3725,65.0,1.0,15.0,0.0,0.0
3726,39.0,1.0,30.0,1.0,0.0
3727,56.0,1.0,15.0,1.0,0.0
3728,54.0,0.0,15.0,1.0,0.0
3729,63.0,0.0,15.0,0.0,0.0
3730,60.0,14.0,15.0,0.0,0.0
3731,65.0,1.0,15.0,0.0,0.0
3732,41.0,2.0,30.0,1.0,0.0
3733,61.0,13.0,15.0,0.0,0.0
3734,56.0,1.0,15.0,1.0,0.0
3735,54.0,0.0,15.0,1.0,0.0
3736,63.0,13.0,15.0,0.0,0.0
3737,60.0,0.0,15.0,0.0,0.0
3738,56.0,2.0,15.0,1.0,0.0
3739,65.0,1.0,15.0,0.0,0.0
3740,61.0,12.0,15.0,0.0,0.0
3741,42.0,0.0,30.0,1.0,0.0
3742,63.0,0.0,15.0,0.0,0.0
3743,60.0,13.0,15.0,0.0,0.0
3744,54.0,2.0,15.0,1.0,0.0
3745,44.0,0.0,30.0,1.0,0.0
3746,56.0,1.0,15.0,1.0,0.0
3747,61.0,11.0,15.0,0.0,0.0
3748,65.0,3.0,15.0,0.0,0.0
3749,54.0,1.0,15.0,1.0,0.0
3750,60.0,1.0,15.0,0.0,0.0
3751,63.0,13.0,15.0,0.0,0.0
3752,65.0,0.0,15.0,0.0,0.0
3753,46.0,3.0,30.0,1.0,0.0
3754,61.0,12.0,15.0,0.0,0.0
3755,56.0,3.0,15.0,1.0,0.0
3756,60.0,11.0,15.0,0.0,0.0
3757,54.0,0.0,15.0,1.0,0.0
3758,63.0,1.0,15.0,0.0,0.0
3759,56.0,3.0,15.0,1.0,0.0
3760,61.0,11.0,15.0,0.0,0.0
3761,65.0,1.0,15.0,0.0,0.0
3762,44.0,0.0,30.0,1.0,0.0
3763,63.0,12.0,15.0,0.0,0.0
3764,54.0,1.0,15.0,1.0,0.0
3765,60.0,2.0,15.0,0.0,0.0
3766,61.0,2.0,15.0,0.0,0.0
3767,65.0,11.0,15.0,0.0,0.0
3768,43.0,0.0,30.0,1.0,0.0
3769,56.0,2.0,15.0,1.0,0.0
3770,60.0,12.0,15.0,0.0,0.0
3771,63.0,0.0,15.0,0.0,0.0
3772,54.0,3.0,15.0,1.0,0.0
3773,44.0,0.0,30.0,1.0,0.0
3774,56.0,3.0,15.0,1.0,0.0
3775,65.0,9.0,20.0,0.0,0.0
3776,61.0,2.0,15.0,0.0,0.0
3777,60.0,1.0,15.0,0.0,0.0
3778,63.0,11.0,15.0,0.0,0.0
3779,54.0,4.0,15.0,1.0,0.0
3780,65.0,14.0,15.0,0.0,0.0
3781,61.0,1.0,15.0,0.0,0.0
3782,56.0,0.0,15.0,1.0,0.0
3783,39.0,0.0,30.0,1.0,0.0
3784,63.0,1.0,15.0,0.0,0.0
3785,60.0,13.0,15.0,0.0,0.0
3786,54.0,1.0,15.0,1.0,0.0
3787,61.0,13.0,15.0,0.0,0.0
3788,65.0,0.0,15.0,0.0,0.0
3789,36.0,1.0,30.0,1.0,0.0
3790,56.0,2.0,15.0,1.0,0.0
3791,54.0,0.0,15.0,1.0,0.0
3792,60.0,12.0,15.0,0.0,0.0
3793,63.0,2.0,15.0,0.0,0.0
3794,32.0,31.0,30.0,1.0,0.0
3795,53.0,2.0,15.0,1.0,0.0
3796,58.0,11.0,15.0,0.0,0.0
3797,61.0,0.0,15.0,0.0,0.0
3798,60.0,2.0,15.0,0.0,0.0
3799,54.0,0.0,15.0,1.0,0.0
3800,63.0,0.0,15.0,0.0,0.0
3801,60.0,34.0,30.0,0.0,0.0
3802,53.0,3.0,60.0,1.0,0.0
3803,37.0,22.0,60.0,1.0,0.0
3804,61.0,1.0,30.0,0.0,0.0
3805,65.0,28.0,30.0,0.0,0.0
3806,61.0,30.0,30.0,0.0,0.0
3807,49.0,2.0,60.0,1.0,0.0
3808,53.0,0.0,60.0,1.0,0.0
3809,46.0,15.0,60.0,1.0,0.0
3810,57.0,30.0,30.0,0.0,0.0
3811,58.0,15.0,30.0,0.0,0.0
3812,61.0,29.0,30.0,0.0,0.0
3813,58.0,31.0,30.0,0.0,0.0
3814,49.0,1.0,60.0,1.0,0.0
3815,42.0,17.0,60.0,1.0,0.0
3816,53.0,29.0,30.0,0.0,0.0
3817,51.0,1.0,60.0,1.0,0.0
3818,54.0,14.0,30.0,0.0,0.0
3819,58.0,28.0,30.0,0.0,0.0
3820,54.0,32.0,30.0,0.0,0.0
3821,51.0,4.0,90.0,1.0,0.0
3822,48.0,25.0,90.0,1.0,0.0
3823,55.0,28.0,30.0,0.0,0.0
3824,44.0,1.0,90.0,1.0,0.0
3825,56.0,27.0,30.0,0.0,0.0
3826,60.0,1.0,30.0,0.0,0.0
3827,56.0,32.0,30.0,0.0,0.0
3828,49.0,22.0,30.0,1.0,0.0
3829,61.0,31.0,60.0,0.0,0.0
3830,56.0,3.0,60.0,0.0,0.0
3831,53.0,4.0,60.0,0.0,0.0
3832,53.0,2.0,30.0,1.0,0.0
3833,49.0,28.0,30.0,1.0,0.0
3834,45.0,28.0,30.0,1.0,0.0
3835,58.0,1.0,60.0,0.0,0.0
3836,53.0,6.0,60.0,0.0,0.0
3837,61.0,1.0,60.0,0.0,0.0
3838,65.0,24.0,60.0,0.0,0.0
3839,46.0,28.0,30.0,1.0,0.0
3840,49.0,1.0,30.0,1.0,0.0
3841,46.0,33.0,30.0,1.0,0.0
3842,41.0,27.0,30.0,1.0,0.0
3843,58.0,2.0,60.0,0.0,0.0
3844,51.0,1.0,60.0,0.0,0.0
3845,61.0,1.0,60.0,0.0,0.0
3846,42.0,28.0,30.0,1.0,0.0
3847,63.0,28.0,60.0,0.0,0.0
3848,46.0,2.0,30.0,1.0,0.0
3849,42.0,29.0,30.0,1.0,0.0
3850,39.0,30.0,30.0,1.0,0.0
3851,68.0,1.0,60.0,0.0,0.0
3852,60.0,3.0,60.0,0.0,0.0
3853,51.0,20.0,60.0,0.0,0.0
3854,44.0,28.0,30.0,1.0,0.0
3855,54.0,0.0,60.0,0.0,0.0
3856,39.0,9.0,30.0,1.0,0.0
3857,36.0,29.0,30.0,1.0,0.0
3858,32.0,65.0,30.0,1.0,0.0
3859,49.0,164.0,60.0,1.0,0.0
3860,37.0,0.0,60.0,1.0,0.0
3861,61.0,2.0,60.0,0.0,0.0
3862,56.0,1.0,60.0,0.0,0.0
3863,53.0,0.0,60.0,0.0,0.0
3864,49.0,5.0,120.0,1.0,0.0
3865,56.0,7.0,240.0,0.0,0.0
3866,52.0,111.0,120.0,0.0,0.0
3867,51.0,106.0,120.0,0.0,0.0
3868,47.0,5.0,120.0,1.0,0.0
3869,55.0,134.0,120.0,0.0,0.0
3870,46.0,5.0,120.0,1.0,0.0
3871,49.0,0.0,120.0,0.0,0.0
3872,51.0,1.0,120.0,0.0,0.0
3873,44.0,69.0,120.0,1.0,0.0
3874,56.0,0.0,120.0,0.0,0.0
3875,32.0,0.0,120.0,1.0,0.0
3876,47.0,3.0,120.0,1.0,0.0
3877,44.0,1.0,15.0,1.0,0.0
3878,47.0,2.0,20.0,1.0,0.0
3879,51.0,0.0,15.0,0.0,0.0
3880,56.0,28.0,20.0,0.0,0.0
3881,56.0,130.0,20.0,0.0,0.0
3882,44.0,1.0,20.0,1.0,0.0
3883,47.0,5.0,20.0,1.0,0.0
3884,51.0,0.0,20.0,0.0,0.0
3885,63.0,3.0,120.0,0.0,0.0
3886,58.0,0.0,120.0,0.0,0.0
3887,51.0,64.0,120.0,1.0,0.0
3888,42.0,4.0,120.0,1.0,0.0
3889,63.0,0.0,20.0,0.0,0.0
3890,42.0,4.0,15.0,1.0,0.0
3891,51.0,1.0,20.0,1.0,0.0
3892,58.0,29.0,20.0,0.0,0.0
3893,58.0,2.0,20.0,0.0,0.0
3894,42.0,131.0,20.0,1.0,0.0
3895,51.0,0.0,20.0,1.0,0.0
3896,63.0,3.0,20.0,0.0,0.0
3897,50.0,55.0,150.0,1.0,0.0
3898,41.0,1.0,150.0,1.0,0.0
3899,59.0,5.0,120.0,0.0,0.0
3900,68.0,8.0,120.0,0.0,0.0
3901,50.0,2.0,15.0,1.0,0.0
3902,38.0,0.0,15.0,1.0,0.0
3903,56.0,2.0,15.0,1.0,0.0
3904,53.0,1.0,15.0,1.0,0.0
3905,58.0,26.0,20.0,0.0,0.0
3906,65.0,1.0,20.0,0.0,0.0
3907,65.0,1.0,20.0,0.0,0.0
3908,58.0,2.0,15.0,0.0,0.0
3909,38.0,1.0,15.0,1.0,0.0
3910,53.0,0.0,15.0,1.0,0.0
3911,50.0,0.0,15.0,1.0,0.0
3912,56.0,132.0,20.0,1.0,0.0
3913,66.0,1.0,120.0,0.0,0.0
3914,39.0,67.0,120.0,1.0,0.0
3915,51.0,3.0,120.0,1.0,0.0
3916,54.0,0.0,120.0,1.0,0.0
3917,58.0,3.0,120.0,0.0,0.0
3918,62.0,3.0,20.0,0.0,0.0
3919,56.0,8.0,20.0,0.0,0.0
3920,34.0,0.0,15.0,1.0,0.0
3921,53.0,0.0,15.0,1.0,0.0
3922,46.0,2.0,15.0,1.0,0.0
3923,56.0,4.0,20.0,0.0,0.0
3924,62.0,63.0,20.0,0.0,0.0
3925,35.0,12.0,120.0,1.0,0.0
3926,54.0,36.0,150.0,0.0,0.0
3927,47.0,0.0,120.0,1.0,0.0
3928,51.0,2.0,120.0,1.0,0.0
3929,63.0,65.0,60.0,0.0,0.0
3930,65.0,7.0,60.0,0.0,0.0
3931,66.0,47.0,60.0,0.0,0.0
3932,42.0,0.0,60.0,1.0,0.0
3933,51.0,10.0,60.0,0.0,0.0
3934,58.0,119.0,60.0,0.0,0.0
3935,51.0,1.0,120.0,0.0,0.0
3936,59.0,4.0,120.0,0.0,0.0
3937,44.0,95.0,120.0,1.0,0.0
3938,58.0,13.0,90.0,0.0,0.0
3939,63.0,4.0,240.0,0.0,0.0
3940,42.0,3.0,120.0,1.0,0.0
3941,51.0,25.0,120.0,1.0,0.0
3942,41.0,3.0,120.0,1.0,0.0
3943,53.0,3.0,240.0,1.0,0.0
3944,58.0,12.0,15.0,0.0,0.0
3945,56.0,16.0,15.0,0.0,0.0
3946,58.0,17.0,15.0,0.0,0.0
3947,56.0,16.0,15.0,0.0,0.0
3948,58.0,14.0,15.0,0.0,0.0
3949,56.0,11.0,15.0,0.0,0.0
3950,54.0,8.0,15.0,0.0,0.0
3951,56.0,56.0,15.0,0.0,0.0
3952,34.0,2.0,120.0,1.0,0.0
3953,62.0,3.0,120.0,0.0,0.0
3954,58.0,58.0,60.0,0.0,0.0
3955,56.0,119.0,60.0,0.0,0.0
3956,63.0,51.0,120.0,0.0,0.0
3957,54.0,2.0,120.0,0.0,0.0
3958,39.0,1.0,120.0,1.0,0.0
3959,51.0,4.0,120.0,1.0,0.0
3960,58.0,30.0,30.0,0.0,0.0
3961,54.0,3.0,30.0,0.0,0.0
3962,60.0,3.0,30.0,0.0,0.0
3963,56.0,24.0,30.0,0.0,0.0
3964,62.0,3.0,30.0,0.0,0.0
3965,58.0,31.0,30.0,0.0,0.0
3966,60.0,0.0,30.0,0.0,0.0
3967,63.0,29.0,30.0,0.0,0.0
3968,65.0,28.0,30.0,0.0,0.0
3969,62.0,0.0,30.0,0.0,0.0
3970,66.0,4.0,30.0,0.0,0.0
3971,63.0,29.0,30.0,0.0,0.0
3972,68.0,1.0,30.0,0.0,0.0
3973,65.0,51.0,30.0,0.0,0.0
3974,70.0,2.0,180.0,0.0,0.0
3975,66.0,21.0,180.0,0.0,0.0
3976,54.0,28.0,30.0,1.0,0.0
3977,51.0,6.0,20.0,1.0,0.0
3978,56.0,26.0,30.0,1.0,0.0
3979,53.0,1.0,30.0,1.0,0.0
3980,58.0,5.0,20.0,1.0,0.0
3981,54.0,28.0,30.0,1.0,0.0
3982,60.0,6.0,30.0,1.0,0.0
3983,56.0,21.0,30.0,1.0,0.0
3984,54.0,0.0,30.0,1.0,0.0
3985,58.0,2.0,30.0,1.0,0.0
3986,60.0,38.0,20.0,1.0,0.0
3987,65.0,0.0,60.0,0.0,0.0
3988,68.0,3.0,60.0,0.0,0.0
3989,56.0,1.0,20.0,1.0,0.0
3990,58.0,1.0,30.0,1.0,0.0
3991,62.0,58.0,30.0,1.0,0.0
3992,63.0,4.0,240.0,0.0,0.0
3993,66.0,22.0,90.0,0.0,0.0
3994,47.0,31.0,30.0,1.0,0.0
3995,46.0,8.0,30.0,1.0,0.0
3996,47.0,14.0,30.0,1.0,0.0
3997,66.0,14.0,15.0,0.0,0.0
3998,44.0,17.0,30.0,1.0,0.0
3999,65.0,1.0,15.0,0.0,0.0
4000,42.0,1.0,30.0,1.0,0.0
4001,66.0,13.0,15.0,0.0,0.0
4002,65.0,15.0,15.0,0.0,0.0
4003,66.0,14.0,15.0,0.0,0.0
4004,44.0,14.0,30.0,1.0,0.0
4005,65.0,3.0,15.0,0.0,0.0
4006,66.0,4.0,15.0,0.0,0.0
4007,41.0,6.0,20.0,1.0,0.0
4008,65.0,15.0,15.0,0.0,0.0
4009,66.0,15.0,15.0,0.0,0.0
4010,61.0,8.0,240.0,0.0,0.0
4011,65.0,18.0,15.0,0.0,0.0
4012,66.0,10.0,20.0,0.0,0.0
4013,46.0,1.0,30.0,1.0,0.0
4014,65.0,17.0,15.0,0.0,0.0
4015,44.0,0.0,30.0,1.0,0.0
4016,66.0,13.0,15.0,0.0,0.0
4017,65.0,15.0,15.0,0.0,0.0
4018,46.0,29.0,30.0,1.0,0.0
4019,63.0,8.0,15.0,0.0,0.0
4020,65.0,6.0,15.0,0.0,0.0
4021,43.0,33.0,30.0,1.0,0.0
4022,63.0,62.0,120.0,0.0,0.0
4023,41.0,31.0,30.0,1.0,0.0
4024,43.0,17.0,30.0,1.0,0.0
4025,39.0,2.0,30.0,1.0,0.0
4026,59.0,17.0,90.0,0.0,0.0
4027,68.0,4.0,240.0,0.0,0.0
4028,52.0,30.0,30.0,1.0,0.0
4029,51.0,12.0,30.0,1.0,0.0
4030,52.0,16.0,30.0,1.0,0.0
4031,59.0,14.0,15.0,0.0,0.0
4032,49.0,0.0,30.0,1.0,0.0
4033,58.0,17.0,15.0,0.0,0.0
4034,59.0,12.0,15.0,0.0,0.0
4035,47.0,19.0,30.0,1.0,0.0
4036,58.0,0.0,15.0,0.0,0.0
4037,59.0,11.0,15.0,0.0,0.0
4038,49.0,10.0,30.0,1.0,0.0
4039,58.0,6.0,15.0,0.0,0.0
4040,46.0,2.0,30.0,1.0,0.0
4041,59.0,8.0,15.0,0.0,0.0
4042,58.0,16.0,15.0,0.0,0.0
4043,66.0,2.0,240.0,0.0,0.0
4044,59.0,15.0,15.0,0.0,0.0
4045,58.0,13.0,15.0,0.0,0.0
4046,59.0,17.0,15.0,0.0,0.0
4047,51.0,1.0,30.0,1.0,0.0
4048,58.0,17.0,15.0,0.0,0.0
4049,59.0,10.0,15.0,0.0,0.0
4050,49.0,2.0,30.0,1.0,0.0
4051,58.0,17.0,15.0,0.0,0.0
4052,56.0,11.0,15.0,0.0,0.0
4053,51.0,30.0,30.0,1.0,0.0
4054,58.0,2.0,15.0,0.0,0.0
4055,48.0,31.0,30.0,1.0,0.0
4056,56.0,16.0,90.0,0.0,0.0
4057,46.0,32.0,30.0,1.0,0.0
4058,48.0,5.0,30.0,1.0,0.0
4059,44.0,63.0,30.0,1.0,0.0
4060,65.0,15.0,90.0,0.0,0.0
4061,61.0,3.0,240.0,0.0,0.0
4062,46.0,28.0,30.0,1.0,0.0
4063,44.0,18.0,30.0,1.0,0.0
4064,46.0,14.0,30.0,1.0,0.0
4065,42.0,2.0,30.0,1.0,0.0
4066,65.0,16.0,15.0,0.0,0.0
4067,63.0,18.0,15.0,0.0,0.0
4068,41.0,1.0,30.0,1.0,0.0
4069,65.0,9.0,20.0,0.0,0.0
4070,63.0,18.0,15.0,0.0,0.0
4071,65.0,12.0,15.0,0.0,0.0
4072,42.0,15.0,30.0,1.0,0.0
4073,63.0,2.0,15.0,0.0,0.0
4074,39.0,1.0,30.0,1.0,0.0
4075,65.0,10.0,15.0,0.0,0.0
4076,63.0,17.0,15.0,0.0,0.0
4077,65.0,12.0,15.0,0.0,0.0
4078,59.0,7.0,240.0,0.0,0.0
4079,63.0,17.0,15.0,0.0,0.0
4080,44.0,2.0,30.0,1.0,0.0
4081,65.0,13.0,15.0,0.0,0.0
4082,63.0,17.0,15.0,0.0,0.0
4083,65.0,10.0,20.0,0.0,0.0
4084,42.0,1.0,30.0,1.0,0.0
4085,63.0,16.0,15.0,0.0,0.0
4086,44.0,28.0,30.0,1.0,0.0
4087,61.0,12.0,15.0,0.0,0.0
4088,63.0,2.0,15.0,0.0,0.0
4089,61.0,52.0,120.0,0.0,0.0
4090,41.0,31.0,30.0,1.0,0.0
4091,39.0,36.0,30.0,1.0,0.0
4092,41.0,18.0,30.0,1.0,0.0
4093,37.0,5.0,20.0,1.0,0.0
4094,66.0,12.0,210.0,0.0,0.0
4095,58.0,18.0,90.0,0.0,0.0
4096,51.0,30.0,30.0,1.0,0.0
4097,49.0,17.0,30.0,1.0,0.0
4098,51.0,27.0,30.0,1.0,0.0
4099,56.0,22.0,210.0,0.0,0.0
4100,47.0,31.0,30.0,1.0,0.0
4101,46.0,30.0,30.0,1.0,0.0
4102,47.0,13.0,30.0,1.0,0.0
4103,44.0,66.0,20.0,1.0,0.0
4104,65.0,3.0,210.0,0.0,0.0
4105,49.0,27.0,30.0,1.0,0.0
4106,47.0,10.0,30.0,1.0,0.0
4107,49.0,28.0,30.0,1.0,0.0
4108,54.0,0.0,180.0,0.0,0.0
4109,46.0,30.0,30.0,1.0,0.0
4110,44.0,1.0,30.0,1.0,0.0
4111,70.0,31.0,30.0,0.0,0.0
4112,46.0,14.0,30.0,1.0,0.0
4113,68.0,1.0,30.0,0.0,0.0
4114,42.0,18.0,15.0,1.0,0.0
4115,70.0,25.0,30.0,0.0,0.0
4116,63.0,17.0,60.0,0.0,0.0
4117,66.0,28.0,30.0,0.0,0.0
4118,65.0,6.0,30.0,0.0,0.0
4119,51.0,3.0,30.0,1.0,0.0
4120,47.0,1.0,30.0,1.0,0.0
4121,66.0,27.0,30.0,0.0,0.0
4122,49.0,2.0,30.0,1.0,0.0
4123,46.0,2.0,30.0,1.0,0.0
4124,47.0,2.0,30.0,1.0,0.0
4125,51.0,28.0,30.0,1.0,0.0
4126,63.0,1.0,30.0,0.0,0.0
4127,44.0,1.0,30.0,1.0,0.0
4128,47.0,28.0,30.0,1.0,0.0
4129,46.0,1.0,30.0,1.0,0.0
4130,42.0,0.0,30.0,1.0,0.0
4131,65.0,1.0,30.0,0.0,0.0
4132,68.0,24.0,30.0,0.0,0.0
4133,44.0,7.0,20.0,1.0,0.0
4134,66.0,25.0,30.0,0.0,0.0
4135,63.0,0.0,30.0,0.0,0.0
4136,47.0,0.0,30.0,1.0,0.0
4137,44.0,2.0,30.0,1.0,0.0
4138,41.0,3.0,20.0,1.0,0.0
4139,65.0,2.0,30.0,0.0,0.0
4140,68.0,28.0,30.0,0.0,0.0
4141,65.0,2.0,30.0,0.0,0.0
4142,62.0,26.0,30.0,0.0,0.0
4143,60.0,24.0,30.0,0.0,0.0
4144,63.0,1.0,30.0,0.0,0.0
4145,46.0,1.0,30.0,1.0,0.0
4146,50.0,3.0,30.0,1.0,0.0
4147,44.0,3.0,30.0,1.0,0.0
4148,48.0,1.0,30.0,1.0,0.0
4149,65.0,1.0,30.0,0.0,0.0
4150,50.0,30.0,30.0,1.0,0.0
4151,46.0,2.0,30.0,1.0,0.0
4152,58.0,1.0,20.0,0.0,0.0
4153,62.0,22.0,15.0,0.0,0.0
4154,42.0,1.0,30.0,1.0,0.0
4155,46.0,20.0,30.0,1.0,0.0
4156,63.0,0.0,30.0,0.0,0.0
4157,66.0,24.0,30.0,0.0,0.0
4158,44.0,9.0,20.0,1.0,0.0
4159,41.0,1.0,30.0,1.0,0.0
4160,46.0,26.0,30.0,1.0,0.0
4161,65.0,1.0,30.0,0.0,0.0
4162,61.0,0.0,30.0,0.0,0.0
4163,42.0,5.0,20.0,1.0,0.0
4164,39.0,1.0,30.0,1.0,0.0
4165,42.0,3.0,30.0,1.0,0.0
4166,66.0,24.0,30.0,0.0,0.0
4167,63.0,3.0,30.0,0.0,0.0
4168,63.0,4.0,30.0,0.0,0.0
4169,60.0,26.0,30.0,0.0,0.0
4170,48.0,0.0,30.0,1.0,0.0
4171,44.0,2.0,30.0,1.0,0.0
4172,61.0,29.0,30.0,0.0,0.0
4173,58.0,1.0,30.0,0.0,0.0
4174,46.0,1.0,30.0,1.0,0.0
4175,42.0,0.0,30.0,1.0,0.0
4176,63.0,3.0,30.0,0.0,0.0
4177,44.0,27.0,60.0,1.0,0.0
4178,48.0,30.0,30.0,1.0,0.0
4179,56.0,3.0,20.0,0.0,0.0
4180,60.0,16.0,15.0,0.0,0.0
4181,41.0,3.0,30.0,1.0,0.0
4182,39.0,0.0,30.0,1.0,0.0
4183,42.0,2.0,30.0,1.0,0.0
4184,65.0,1.0,30.0,0.0,0.0
4185,61.0,30.0,30.0,0.0,0.0
4186,41.0,1.0,30.0,1.0,0.0
4187,44.0,20.0,30.0,1.0,0.0
4188,60.0,2.0,30.0,0.0,0.0
4189,63.0,1.0,30.0,0.0,0.0
4190,37.0,3.0,20.0,1.0,0.0
4191,65.0,27.0,30.0,0.0,0.0
4192,41.0,6.0,30.0,1.0,0.0
4193,58.0,1.0,30.0,0.0,0.0
4194,61.0,1.0,15.0,0.0,0.0
4195,60.0,5.0,30.0,0.0,0.0
4196,42.0,2.0,30.0,1.0,0.0
4197,46.0,2.0,30.0,1.0,0.0
4198,56.0,24.0,30.0,0.0,0.0
4199,41.0,20.0,30.0,1.0,0.0
4200,44.0,0.0,30.0,1.0,0.0
4201,58.0,0.0,30.0,0.0,0.0
4202,61.0,1.0,30.0,0.0,0.0
4203,54.0,2.0,30.0,0.0,0.0
4204,58.0,27.0,30.0,0.0,0.0
4205,42.0,1.0,30.0,1.0,0.0
4206,46.0,10.0,20.0,1.0,0.0
4207,60.0,30.0,30.0,0.0,0.0
4208,39.0,0.0,60.0,1.0,0.0
4209,46.0,22.0,60.0,1.0,0.0
4210,63.0,0.0,30.0,0.0,0.0
4211,51.0,1.0,60.0,1.0,0.0
4212,54.0,0.0,60.0,1.0,0.0
4213,61.0,5.0,30.0,0.0,0.0
4214,58.0,2.0,30.0,0.0,0.0
4215,63.0,3.0,30.0,0.0,0.0
4216,60.0,27.0,15.0,0.0,0.0
4217,57.0,0.0,30.0,0.0,0.0
4218,40.0,1.0,90.0,1.0,0.0
4219,58.0,23.0,30.0,0.0,0.0
4220,49.0,0.0,90.0,1.0,0.0
4221,55.0,3.0,90.0,1.0,0.0
4222,46.0,1.0,90.0,1.0,0.0
4223,61.0,4.0,30.0,0.0,0.0
4224,60.0,24.0,30.0,0.0,0.0
4225,57.0,5.0,30.0,0.0,0.0
4226,58.0,0.0,30.0,0.0,0.0
4227,61.0,26.0,30.0,0.0,0.0
4228,58.0,61.0,30.0,0.0,0.0
4229,55.0,3.0,30.0,0.0,0.0
4230,53.0,4.0,120.0,0.0,0.0
4231,57.0,24.0,120.0,0.0,0.0
4232,41.0,30.0,30.0,1.0,0.0
4233,45.0,30.0,30.0,1.0,0.0
4234,48.0,1.0,30.0,1.0,0.0
4235,53.0,33.0,30.0,1.0,0.0
4236,49.0,2.0,30.0,1.0,0.0
4237,53.0,26.0,30.0,0.0,0.0
4238,51.0,23.0,30.0,1.0,0.0
4239,57.0,7.0,60.0,0.0,0.0
4240,48.0,31.0,30.0,1.0,0.0
4241,60.0,0.0,30.0,0.0,0.0
4242,49.0,2.0,60.0,1.0,0.0
4243,61.0,28.0,30.0,0.0,0.0
4244,65.0,28.0,15.0,0.0,0.0
4245,48.0,3.0,60.0,1.0,0.0
4246,67.0,23.0,30.0,0.0,0.0
4247,63.0,5.0,30.0,0.0,0.0
4248,69.0,4.0,30.0,0.0,0.0
4249,60.0,25.0,30.0,0.0,0.0
4250,62.0,26.0,30.0,0.0,0.0
4251,46.0,3.0,90.0,1.0,0.0
4252,70.0,2.0,30.0,0.0,0.0
4253,54.0,1.0,30.0,1.0,0.0
4254,66.0,2.0,30.0,0.0,0.0
4255,63.0,26.0,30.0,0.0,0.0
4256,68.0,19.0,30.0,0.0,0.0
4257,60.0,1.0,30.0,0.0,0.0
4258,53.0,0.0,30.0,1.0,0.0
4259,58.0,1.0,30.0,1.0,0.0
4260,62.0,59.0,30.0,0.0,0.0
4261,65.0,2.0,30.0,0.0,0.0
4262,50.0,9.0,15.0,1.0,0.0
4263,51.0,9.0,120.0,1.0,0.0
4264,63.0,3.0,120.0,0.0,0.0
4265,66.0,2.0,120.0,0.0,0.0
4266,39.0,32.0,30.0,1.0,0.0
4267,42.0,14.0,30.0,1.0,0.0
4268,46.0,29.0,30.0,1.0,0.0
4269,51.0,30.0,30.0,1.0,0.0
4270,48.0,5.0,30.0,1.0,0.0
4271,51.0,26.0,30.0,0.0,0.0
4272,49.0,8.0,30.0,1.0,0.0
4273,54.0,20.0,30.0,0.0,0.0
4274,58.0,31.0,30.0,0.0,0.0
4275,46.0,1.0,30.0,1.0,0.0
4276,48.0,3.0,60.0,1.0,0.0
4277,60.0,31.0,30.0,0.0,0.0
4278,63.0,26.0,15.0,0.0,0.0
4279,65.0,24.0,30.0,0.0,0.0
4280,61.0,2.0,30.0,0.0,0.0
4281,46.0,5.0,60.0,1.0,0.0
4282,67.0,28.0,30.0,0.0,0.0
4283,58.0,1.0,30.0,0.0,0.0
4284,44.0,22.0,60.0,1.0,0.0
4285,68.0,27.0,30.0,0.0,0.0
4286,60.0,2.0,30.0,0.0,0.0
4287,53.0,2.0,30.0,1.0,0.0
4288,65.0,5.0,30.0,0.0,0.0
4289,61.0,2.0,30.0,0.0,0.0
4290,66.0,26.0,30.0,0.0,0.0
4291,58.0,0.0,30.0,0.0,0.0
4292,51.0,1.0,30.0,1.0,0.0
4293,63.0,119.0,30.0,0.0,0.0
4294,60.0,3.0,30.0,0.0,0.0
4295,56.0,3.0,30.0,1.0,0.0
4296,49.0,2.0,120.0,1.0,0.0
4297,56.0,0.0,120.0,0.0,0.0
4298,61.0,0.0,120.0,0.0,0.0
4299,53.0,1.0,120.0,1.0,0.0
4300,37.0,73.0,120.0,1.0,0.0
4301,61.0,24.0,20.0,0.0,0.0
4302,56.0,1.0,20.0,0.0,0.0
4303,53.0,0.0,20.0,1.0,0.0
4304,49.0,1.0,20.0,1.0,0.0
4305,37.0,1.0,20.0,1.0,0.0
4306,53.0,1.0,20.0,1.0,0.0
4307,37.0,2.0,15.0,1.0,0.0
4308,49.0,2.0,15.0,1.0,0.0
4309,61.0,138.0,20.0,0.0,0.0
4310,56.0,2.0,20.0,0.0,0.0
4311,51.0,43.0,150.0,1.0,0.0
4312,36.0,2.0,150.0,1.0,0.0
4313,56.0,16.0,120.0,0.0,0.0
4314,48.0,0.0,150.0,1.0,0.0
4315,63.0,5.0,150.0,0.0,0.0
4316,56.0,22.0,20.0,0.0,0.0
4317,63.0,3.0,20.0,0.0,0.0
4318,36.0,1.0,15.0,1.0,0.0
4319,51.0,0.0,15.0,1.0,0.0
4320,48.0,1.0,15.0,1.0,0.0
4321,56.0,138.0,20.0,0.0,0.0
4322,63.0,5.0,20.0,0.0,0.0
4323,36.0,3.0,15.0,1.0,0.0
4324,51.0,0.0,20.0,1.0,0.0
4325,48.0,2.0,15.0,1.0,0.0
4326,53.0,38.0,150.0,1.0,0.0
4327,49.0,2.0,150.0,1.0,0.0
4328,46.0,2.0,150.0,1.0,0.0
4329,34.0,0.0,150.0,1.0,0.0
4330,65.0,6.0,150.0,0.0,0.0
4331,61.0,17.0,120.0,0.0,0.0
4332,46.0,0.0,15.0,1.0,0.0
4333,34.0,1.0,20.0,1.0,0.0
4334,53.0,0.0,20.0,1.0,0.0
4335,49.0,1.0,20.0,1.0,0.0
4336,65.0,2.0,15.0,0.0,0.0
4337,61.0,26.0,20.0,0.0,0.0
4338,46.0,0.0,15.0,1.0,0.0
4339,61.0,136.0,20.0,0.0,0.0
4340,34.0,1.0,20.0,1.0,0.0
4341,49.0,1.0,15.0,1.0,0.0
4342,65.0,2.0,15.0,0.0,0.0
4343,53.0,2.0,20.0,1.0,0.0
4344,63.0,2.0,150.0,0.0,0.0
4345,60.0,1.0,150.0,0.0,0.0
4346,68.0,42.0,150.0,0.0,0.0
4347,56.0,6.0,120.0,1.0,0.0
4348,32.0,2.0,120.0,1.0,0.0
4349,51.0,0.0,120.0,1.0,0.0
4350,44.0,2.0,150.0,1.0,0.0
4351,48.0,1.0,150.0,1.0,0.0
4352,53.0,15.0,15.0,0.0,0.0
4353,51.0,1.0,20.0,0.0,0.0
4354,56.0,1.0,20.0,0.0,0.0
4355,48.0,23.0,20.0,1.0,0.0
4356,42.0,2.0,20.0,1.0,0.0
4357,42.0,1.0,15.0,1.0,0.0
4358,48.0,5.0,15.0,1.0,0.0
4359,51.0,63.0,30.0,0.0,0.0
4360,56.0,3.0,20.0,0.0,0.0
4361,49.0,3.0,120.0,1.0,0.0
4362,41.0,39.0,150.0,1.0,0.0
4363,56.0,9.0,120.0,0.0,0.0
4364,53.0,2.0,120.0,0.0,0.0
4365,61.0,58.0,60.0,0.0,0.0
4366,63.0,8.0,60.0,0.0,0.0
4367,65.0,50.0,60.0,0.0,0.0
4368,41.0,3.0,60.0,1.0,0.0
4369,49.0,8.0,60.0,0.0,0.0
4370,56.0,121.0,60.0,0.0,0.0
4371,42.0,2.0,120.0,1.0,0.0
4372,58.0,1.0,120.0,0.0,0.0
4373,49.0,94.0,120.0,0.0,0.0
4374,49.0,25.0,120.0,1.0,0.0
4375,61.0,6.0,240.0,0.0,0.0
4376,56.0,15.0,90.0,0.0,0.0
4377,41.0,1.0,120.0,1.0,0.0
4378,56.0,12.0,15.0,0.0,0.0
4379,39.0,1.0,120.0,1.0,0.0
4380,51.0,5.0,240.0,1.0,0.0
4381,54.0,14.0,15.0,0.0,0.0
4382,56.0,14.0,15.0,0.0,0.0
4383,54.0,22.0,15.0,0.0,0.0
4384,56.0,9.0,20.0,0.0,0.0
4385,54.0,17.0,15.0,0.0,0.0
4386,53.0,5.0,15.0,0.0,0.0
4387,54.0,58.0,15.0,0.0,0.0
4388,32.0,3.0,120.0,1.0,0.0
4389,56.0,56.0,60.0,0.0,0.0
4390,60.0,121.0,120.0,0.0,0.0
4391,54.0,2.0,60.0,0.0,0.0
4392,37.0,2.0,120.0,1.0,0.0
4393,61.0,0.0,120.0,0.0,0.0
4394,53.0,52.0,120.0,0.0,0.0
4395,49.0,0.0,120.0,1.0,0.0
4396,53.0,4.0,30.0,0.0,0.0
4397,56.0,26.0,30.0,0.0,0.0
4398,58.0,31.0,30.0,0.0,0.0
4399,54.0,2.0,30.0,0.0,0.0
4400,60.0,30.0,30.0,0.0,0.0
4401,56.0,0.0,30.0,0.0,0.0
4402,61.0,0.0,30.0,0.0,0.0
4403,58.0,29.0,30.0,0.0,0.0
4404,63.0,28.0,30.0,0.0,0.0
4405,60.0,1.0,30.0,0.0,0.0
4406,61.0,2.0,30.0,0.0,0.0
4407,65.0,30.0,30.0,0.0,0.0
4408,63.0,1.0,30.0,0.0,0.0
4409,66.0,50.0,30.0,0.0,0.0
4410,68.0,8.0,180.0,0.0,0.0
4411,65.0,16.0,180.0,0.0,0.0
4412,49.0,7.0,20.0,1.0,0.0
4413,53.0,27.0,30.0,1.0,0.0
4414,51.0,5.0,20.0,1.0,0.0
4415,54.0,27.0,30.0,1.0,0.0
4416,56.0,2.0,30.0,1.0,0.0
4417,53.0,27.0,30.0,1.0,0.0
4418,58.0,24.0,30.0,1.0,0.0
4419,54.0,1.0,30.0,1.0,0.0
4420,53.0,2.0,30.0,1.0,0.0
4421,56.0,1.0,30.0,1.0,0.0
4422,54.0,32.0,20.0,1.0,0.0
4423,66.0,1.0,60.0,0.0,0.0
4424,63.0,58.0,60.0,0.0,0.0
4425,58.0,2.0,15.0,1.0,0.0
4426,56.0,0.0,20.0,1.0,0.0
4427,60.0,9.0,20.0,1.0,0.0
4428,58.0,6.0,240.0,1.0,0.0
4429,61.0,4.0,240.0,0.0,0.0
4430,65.0,22.0,90.0,0.0,0.0
4431,46.0,32.0,30.0,1.0,0.0
4432,44.0,10.0,30.0,1.0,0.0
4433,46.0,14.0,30.0,1.0,0.0
4434,42.0,16.0,30.0,1.0,0.0
4435,65.0,12.0,15.0,0.0,0.0
4436,63.0,2.0,15.0,0.0,0.0
4437,39.0,16.0,30.0,1.0,0.0
4438,65.0,10.0,15.0,0.0,0.0
4439,63.0,4.0,15.0,0.0,0.0
4440,65.0,10.0,15.0,0.0,0.0
4441,41.0,9.0,30.0,1.0,0.0
4442,63.0,10.0,15.0,0.0,0.0
4443,42.0,14.0,30.0,1.0,0.0
4444,65.0,4.0,15.0,0.0,0.0
4445,63.0,1.0,15.0,0.0,0.0
4446,56.0,28.0,60.0,1.0,0.0
4447,65.0,12.0,15.0,0.0,0.0
4448,44.0,16.0,30.0,1.0,0.0
4449,60.0,53.0,120.0,0.0,0.0
4450,63.0,1.0,15.0,0.0,0.0
4451,42.0,3.0,30.0,1.0,0.0
4452,65.0,12.0,15.0,0.0,0.0
4453,63.0,1.0,15.0,0.0,0.0
4454,44.0,2.0,30.0,1.0,0.0
4455,61.0,28.0,30.0,0.0,0.0
4456,54.0,1.0,60.0,1.0,0.0
4457,63.0,3.0,30.0,0.0,0.0
4458,32.0,2.0,30.0,1.0,0.0
4459,53.0,3.0,120.0,1.0,0.0
4460,37.0,2.0,120.0,1.0,0.0
4461,61.0,33.0,60.0,0.0,0.0
4462,65.0,24.0,30.0,0.0,0.0
4463,63.0,31.0,30.0,0.0,0.0
4464,61.0,31.0,30.0,0.0,0.0
4465,60.0,26.0,30.0,0.0,0.0
4466,41.0,1.0,60.0,1.0,0.0
4467,58.0,29.0,30.0,0.0,0.0
4468,37.0,1.0,60.0,1.0,0.0
4469,49.0,3.0,120.0,0.0,0.0
4470,56.0,60.0,30.0,0.0,0.0
4471,39.0,2.0,120.0,1.0,0.0
4472,42.0,5.0,120.0,1.0,0.0
4473,54.0,26.0,60.0,0.0,0.0
4474,48.0,23.0,60.0,0.0,0.0
4475,66.0,32.0,30.0,0.0,0.0
4476,65.0,1.0,30.0,0.0,0.0
4477,63.0,29.0,30.0,0.0,0.0
4478,61.0,28.0,30.0,0.0,0.0
4479,60.0,29.0,30.0,0.0,0.0
4480,51.0,24.0,120.0,0.0,0.0
4481,42.0,0.0,60.0,1.0,0.0
4482,39.0,3.0,60.0,1.0,0.0
4483,58.0,58.0,30.0,0.0,0.0
4484,56.0,8.0,60.0,0.0,0.0
4485,41.0,27.0,120.0,1.0,0.0
4486,44.0,0.0,120.0,1.0,0.0
4487,68.0,32.0,30.0,0.0,0.0
4488,49.0,0.0,60.0,0.0,0.0
4489,66.0,6.0,30.0,0.0,0.0
4490,65.0,25.0,30.0,0.0,0.0
4491,63.0,29.0,30.0,0.0,0.0
4492,61.0,27.0,30.0,0.0,0.0
4493,53.0,1.0,120.0,0.0,0.0
4494,41.0,0.0,60.0,1.0,0.0
4495,44.0,4.0,60.0,1.0,0.0
4496,60.0,56.0,30.0,0.0,0.0
4497,42.0,4.0,120.0,1.0,0.0
4498,46.0,3.0,120.0,1.0,0.0
4499,58.0,35.0,60.0,0.0,0.0
4500,51.0,24.0,60.0,0.0,0.0
4501,70.0,30.0,30.0,0.0,0.0
4502,68.0,0.0,30.0,0.0,0.0
4503,66.0,27.0,30.0,0.0,0.0
4504,65.0,1.0,30.0,0.0,0.0
4505,61.0,30.0,30.0,0.0,0.0
4506,43.0,2.0,60.0,1.0,0.0
4507,51.0,9.0,60.0,1.0,0.0
4508,63.0,18.0,30.0,0.0,0.0
4509,60.0,0.0,30.0,0.0,0.0
4510,61.0,46.0,30.0,0.0,0.0
4511,58.0,1.0,30.0,0.0,0.0
4512,44.0,43.0,60.0,1.0,0.0
4513,60.0,5.0,120.0,0.0,0.0
4514,56.0,8.0,120.0,0.0,0.0
4515,51.0,7.0,150.0,1.0,0.0
4516,44.0,27.0,30.0,1.0,0.0
4517,43.0,10.0,30.0,1.0,0.0
4518,41.0,36.0,30.0,1.0,0.0
4519,39.0,29.0,30.0,1.0,0.0
4520,37.0,24.0,30.0,1.0,0.0
4521,56.0,31.0,120.0,0.0,0.0
4522,60.0,48.0,60.0,0.0,0.0
4523,51.0,5.0,60.0,1.0,0.0
4524,36.0,2.0,30.0,1.0,0.0
4525,34.0,6.0,60.0,1.0,0.0
4526,49.0,7.0,180.0,1.0,0.0
4527,61.0,4.0,60.0,0.0,0.0
4528,46.0,29.0,30.0,1.0,0.0
4529,55.0,8.0,90.0,0.0,0.0
4530,58.0,18.0,60.0,0.0,0.0
4531,44.0,4.0,30.0,1.0,0.0
4532,43.0,23.0,30.0,1.0,0.0
4533,41.0,27.0,30.0,1.0,0.0
4534,61.0,2.0,60.0,0.0,0.0
4535,58.0,5.0,120.0,0.0,0.0
4536,55.0,2.0,30.0,1.0,0.0
4537,39.0,28.0,30.0,1.0,0.0
4538,37.0,58.0,30.0,1.0,0.0
4539,53.0,0.0,30.0,1.0,0.0
4540,51.0,1.0,120.0,1.0,0.0
4541,36.0,1.0,60.0,1.0,0.0
4542,63.0,25.0,60.0,0.0,0.0
4543,60.0,7.0,90.0,0.0,0.0
4544,56.0,8.0,90.0,0.0,0.0
4545,48.0,30.0,30.0,1.0,0.0
4546,46.0,19.0,30.0,1.0,0.0
4547,44.0,22.0,30.0,1.0,0.0
4548,42.0,38.0,30.0,1.0,0.0
4549,41.0,17.0,30.0,1.0,0.0
4550,63.0,61.0,60.0,0.0,0.0
4551,54.0,1.0,60.0,1.0,0.0
4552,56.0,1.0,60.0,1.0,0.0
4553,60.0,5.0,60.0,0.0,0.0
4554,39.0,1.0,30.0,1.0,0.0
4555,61.0,30.0,60.0,0.0,0.0
4556,53.0,3.0,120.0,1.0,0.0
4557,37.0,1.0,120.0,1.0,0.0
4558,56.0,2.0,120.0,1.0,0.0
4559,65.0,19.0,120.0,0.0,0.0
4560,53.0,25.0,30.0,0.0,0.0
4561,54.0,10.0,30.0,0.0,0.0
4562,56.0,33.0,30.0,0.0,0.0
4563,58.0,24.0,30.0,0.0,0.0
4564,41.0,6.0,60.0,1.0,0.0
4565,49.0,29.0,120.0,1.0,0.0
4566,60.0,27.0,30.0,0.0,0.0
4567,65.0,56.0,60.0,0.0,0.0
4568,61.0,5.0,30.0,0.0,0.0
4569,66.0,19.0,120.0,0.0,0.0
4570,39.0,3.0,150.0,1.0,0.0
4571,63.0,0.0,60.0,0.0,0.0
4572,54.0,31.0,30.0,0.0,0.0
4573,48.0,2.0,90.0,1.0,0.0
4574,56.0,7.0,30.0,0.0,0.0
4575,58.0,27.0,30.0,0.0,0.0
4576,60.0,33.0,30.0,0.0,0.0
4577,42.0,3.0,60.0,1.0,0.0
4578,61.0,25.0,30.0,0.0,0.0
4579,51.0,2.0,120.0,1.0,0.0
4580,66.0,57.0,60.0,0.0,0.0
4581,63.0,1.0,30.0,0.0,0.0
4582,68.0,4.0,120.0,0.0,0.0
4583,41.0,11.0,150.0,1.0,0.0
4584,65.0,30.0,60.0,0.0,0.0
4585,56.0,31.0,30.0,0.0,0.0
4586,49.0,31.0,90.0,1.0,0.0
4587,58.0,13.0,30.0,0.0,0.0
4588,60.0,3.0,30.0,0.0,0.0
4589,61.0,26.0,30.0,0.0,0.0
4590,68.0,4.0,60.0,0.0,0.0
4591,63.0,27.0,30.0,0.0,0.0
4592,44.0,4.0,60.0,1.0,0.0
4593,53.0,5.0,120.0,1.0,0.0
4594,65.0,26.0,30.0,0.0,0.0
4595,70.0,2.0,180.0,0.0,0.0
4596,66.0,27.0,30.0,0.0,0.0
4597,42.0,9.0,180.0,1.0,0.0
4598,68.0,28.0,30.0,0.0,0.0
4599,66.0,27.0,30.0,0.0,0.0
4600,51.0,3.0,30.0,1.0,0.0
4601,53.0,27.0,30.0,1.0,0.0
4602,65.0,3.0,30.0,0.0,0.0
4603,63.0,18.0,30.0,0.0,0.0
4604,54.0,12.0,60.0,1.0,0.0
4605,61.0,19.0,15.0,0.0,0.0
4606,43.0,4.0,60.0,1.0,0.0
4607,51.0,6.0,60.0,1.0,0.0
4608,60.0,19.0,30.0,0.0,0.0
4609,58.0,55.0,30.0,0.0,0.0
4610,56.0,29.0,60.0,0.0,0.0
4611,60.0,2.0,60.0,0.0,0.0
4612,51.0,0.0,120.0,1.0,0.0
4613,44.0,4.0,120.0,1.0,0.0
4614,60.0,21.0,30.0,0.0,0.0
4615,63.0,5.0,30.0,0.0,0.0
4616,61.0,29.0,30.0,0.0,0.0
4617,58.0,2.0,30.0,0.0,0.0
4618,60.0,1.0,30.0,0.0,0.0
4619,56.0,26.0,30.0,0.0,0.0
4620,32.0,0.0,30.0,1.0,0.0
4621,58.0,3.0,30.0,0.0,0.0
4622,54.0,30.0,30.0,0.0,0.0
4623,56.0,0.0,30.0,0.0,0.0
4624,53.0,26.0,30.0,0.0,0.0
4625,34.0,1.0,30.0,1.0,0.0
4626,54.0,3.0,30.0,0.0,0.0
4627,51.0,11.0,90.0,0.0,0.0
4628,36.0,17.0,30.0,1.0,0.0
4629,37.0,17.0,30.0,1.0,0.0
4630,54.0,12.0,15.0,0.0,0.0
4631,53.0,1.0,15.0,0.0,0.0
4632,36.0,1.0,30.0,1.0,0.0
4633,54.0,14.0,15.0,0.0,0.0
4634,53.0,3.0,15.0,0.0,0.0
4635,37.0,16.0,30.0,1.0,0.0
4636,54.0,12.0,15.0,0.0,0.0
4637,44.0,3.0,60.0,0.0,0.0
4638,53.0,2.0,15.0,0.0,0.0
4639,54.0,12.0,15.0,0.0,0.0
4640,39.0,13.0,30.0,1.0,0.0
4641,53.0,1.0,15.0,0.0,0.0
4642,54.0,12.0,15.0,0.0,0.0
4643,49.0,4.0,120.0,0.0,0.0
4644,41.0,1.0,30.0,1.0,0.0
4645,53.0,15.0,15.0,0.0,0.0
4646,54.0,17.0,15.0,0.0,0.0
4647,39.0,1.0,30.0,1.0,0.0
4648,53.0,29.0,15.0,0.0,0.0
4649,51.0,1.0,30.0,0.0,0.0
4650,41.0,26.0,30.0,1.0,0.0
4651,43.0,60.0,30.0,1.0,0.0
4652,53.0,0.0,30.0,0.0,0.0
4653,44.0,3.0,120.0,1.0,0.0
4654,51.0,0.0,120.0,0.0,0.0
4655,48.0,28.0,60.0,0.0,0.0
4656,60.0,0.0,30.0,1.0,0.0
4657,63.0,30.0,30.0,0.0,0.0
4658,58.0,1.0,30.0,1.0,0.0
4659,61.0,26.0,30.0,0.0,0.0
4660,56.0,2.0,30.0,1.0,0.0
4661,60.0,28.0,30.0,0.0,0.0
4662,54.0,1.0,30.0,1.0,0.0
4663,58.0,0.0,30.0,0.0,0.0
4664,32.0,29.0,30.0,1.0,0.0
4665,53.0,1.0,30.0,1.0,0.0
4666,34.0,3.0,30.0,1.0,0.0
4667,56.0,22.0,30.0,0.0,0.0
4668,36.0,13.0,30.0,1.0,0.0
4669,54.0,4.0,20.0,0.0,0.0
4670,51.0,2.0,30.0,1.0,0.0
4671,54.0,12.0,15.0,0.0,0.0
4672,37.0,2.0,60.0,1.0,0.0
4673,51.0,3.0,15.0,1.0,0.0
4674,53.0,15.0,15.0,0.0,0.0
4675,49.0,0.0,15.0,1.0,0.0
4676,56.0,14.0,30.0,0.0,0.0
4677,51.0,3.0,15.0,1.0,0.0
4678,54.0,10.0,15.0,0.0,0.0
4679,49.0,0.0,15.0,1.0,0.0
4680,53.0,1.0,15.0,0.0,0.0
4681,58.0,14.0,30.0,0.0,0.0
4682,51.0,3.0,15.0,1.0,0.0
4683,44.0,2.0,60.0,1.0,0.0
4684,54.0,11.0,15.0,0.0,0.0
4685,53.0,1.0,15.0,0.0,0.0
4686,49.0,1.0,15.0,1.0,0.0
4687,51.0,3.0,15.0,1.0,0.0
4688,60.0,0.0,30.0,0.0,0.0
4689,54.0,10.0,15.0,0.0,0.0
4690,53.0,13.0,15.0,0.0,0.0
4691,49.0,2.0,15.0,1.0,0.0
4692,41.0,1.0,60.0,1.0,0.0
4693,51.0,1.0,15.0,1.0,0.0
4694,54.0,14.0,15.0,0.0,0.0
4695,61.0,2.0,30.0,0.0,0.0
4696,53.0,12.0,15.0,0.0,0.0
4697,49.0,1.0,15.0,1.0,0.0
4698,63.0,28.0,30.0,0.0,0.0
4699,51.0,2.0,15.0,1.0,0.0
4700,54.0,11.0,15.0,0.0,0.0
4701,53.0,1.0,15.0,0.0,0.0
4702,49.0,2.0,15.0,1.0,0.0
4703,65.0,2.0,30.0,0.0,0.0
4704,51.0,25.0,30.0,0.0,0.0
4705,37.0,2.0,60.0,1.0,0.0
4706,48.0,1.0,30.0,1.0,0.0
4707,49.0,1.0,30.0,1.0,0.0
4708,53.0,2.0,30.0,0.0,0.0
4709,67.0,61.0,30.0,0.0,0.0
4710,48.0,8.0,120.0,1.0,0.0
4711,51.0,2.0,120.0,0.0,0.0
4712,68.0,5.0,120.0,0.0,0.0
4713,32.0,27.0,60.0,1.0,0.0
4714,34.0,23.0,30.0,1.0,0.0
4715,36.0,22.0,30.0,1.0,0.0
4716,37.0,31.0,30.0,1.0,0.0
4717,39.0,30.0,30.0,1.0,0.0
4718,41.0,29.0,30.0,1.0,0.0
4719,43.0,30.0,30.0,1.0,0.0
4720,44.0,28.0,30.0,1.0,0.0
4721,46.0,31.0,30.0,1.0,0.0
4722,44.0,32.0,30.0,1.0,0.0
4723,43.0,31.0,30.0,1.0,0.0
4724,44.0,28.0,30.0,1.0,0.0
4725,41.0,31.0,30.0,1.0,0.0
4726,42.0,25.0,30.0,1.0,0.0
4727,39.0,32.0,30.0,1.0,0.0
4728,37.0,27.0,120.0,1.0,0.0
4729,49.0,33.0,30.0,1.0,0.0
4730,53.0,2.0,30.0,0.0,0.0
4731,51.0,26.0,30.0,1.0,0.0
4732,54.0,1.0,30.0,0.0,0.0
4733,53.0,30.0,30.0,0.0,0.0
4734,49.0,0.0,30.0,1.0,0.0
4735,51.0,1.0,30.0,1.0,0.0
4736,54.0,1.0,30.0,0.0,0.0
4737,53.0,27.0,30.0,1.0,0.0
4738,56.0,1.0,30.0,0.0,0.0
4739,51.0,4.0,30.0,1.0,0.0
4740,54.0,13.0,30.0,0.0,0.0
4741,60.0,0.0,60.0,0.0,0.0
4742,53.0,5.0,30.0,1.0,0.0
4743,32.0,1.0,15.0,1.0,0.0
4744,44.0,11.0,15.0,1.0,0.0
4745,56.0,16.0,30.0,0.0,0.0
4746,51.0,2.0,30.0,1.0,0.0
4747,32.0,2.0,15.0,1.0,0.0
4748,44.0,10.0,20.0,1.0,0.0
4749,54.0,30.0,30.0,0.0,0.0
4750,61.0,7.0,60.0,0.0,0.0
4751,49.0,5.0,30.0,1.0,0.0
4752,53.0,17.0,30.0,0.0,0.0
4753,37.0,4.0,120.0,1.0,0.0
4754,54.0,4.0,30.0,0.0,0.0
4755,51.0,27.0,30.0,1.0,0.0
4756,53.0,22.0,30.0,0.0,0.0
4757,49.0,2.0,30.0,1.0,0.0
4758,51.0,3.0,30.0,1.0,0.0
4759,54.0,1.0,30.0,0.0,0.0
4760,53.0,2.0,30.0,1.0,0.0
4761,56.0,26.0,15.0,0.0,0.0
4762,54.0,15.0,30.0,0.0,0.0
4763,51.0,1.0,30.0,1.0,0.0
4764,56.0,15.0,30.0,0.0,0.0
4765,60.0,3.0,60.0,0.0,0.0
4766,44.0,11.0,15.0,1.0,0.0
4767,32.0,2.0,15.0,1.0,0.0
4768,53.0,4.0,30.0,1.0,0.0
4769,51.0,9.0,30.0,1.0,0.0
4770,32.0,7.0,15.0,1.0,0.0
4771,54.0,46.0,30.0,0.0,0.0
4772,44.0,2.0,15.0,1.0,0.0
4773,37.0,5.0,60.0,1.0,0.0
4774,53.0,62.0,120.0,0.0,0.0
4775,49.0,2.0,120.0,1.0,0.0
4776,61.0,20.0,60.0,0.0,0.0
4777,65.0,36.0,15.0,0.0,0.0
4778,68.0,18.0,210.0,0.0,0.0
4779,41.0,8.0,90.0,1.0,0.0
4780,61.0,22.0,30.0,1.0,0.0
4781,65.0,3.0,30.0,0.0,0.0
4782,63.0,30.0,30.0,0.0,0.0
4783,60.0,0.0,30.0,1.0,0.0
4784,61.0,30.0,30.0,0.0,0.0
4785,58.0,0.0,30.0,1.0,0.0
4786,44.0,1.0,120.0,1.0,0.0
4787,56.0,2.0,30.0,1.0,0.0
4788,60.0,28.0,30.0,0.0,0.0
4789,58.0,1.0,30.0,1.0,0.0
4790,61.0,32.0,30.0,0.0,0.0
4791,60.0,2.0,30.0,0.0,0.0
4792,56.0,6.0,30.0,1.0,0.0
4793,58.0,0.0,30.0,0.0,0.0
4794,54.0,16.0,30.0,1.0,0.0
4795,56.0,2.0,30.0,0.0,0.0
4796,61.0,13.0,15.0,0.0,0.0
4797,53.0,11.0,30.0,1.0,0.0
4798,60.0,2.0,15.0,0.0,0.0
4799,54.0,13.0,30.0,1.0,0.0
4800,58.0,1.0,30.0,0.0,0.0
4801,61.0,14.0,15.0,0.0,0.0
4802,60.0,4.0,15.0,0.0,0.0
4803,61.0,14.0,15.0,0.0,0.0
4804,53.0,3.0,30.0,1.0,0.0
4805,56.0,12.0,30.0,0.0,0.0
4806,60.0,1.0,15.0,0.0,0.0
4807,51.0,30.0,30.0,1.0,0.0
4808,58.0,11.0,15.0,0.0,0.0
4809,54.0,1.0,30.0,0.0,0.0
4810,60.0,3.0,15.0,0.0,0.0
4811,37.0,11.0,90.0,1.0,0.0
4812,49.0,1.0,30.0,1.0,0.0
4813,53.0,24.0,30.0,0.0,0.0
4814,61.0,7.0,60.0,0.0,0.0
4815,51.0,0.0,30.0,1.0,0.0
4816,54.0,27.0,30.0,0.0,0.0
4817,49.0,12.0,30.0,1.0,0.0
4818,56.0,6.0,60.0,0.0,0.0
4819,53.0,1.0,30.0,0.0,0.0
4820,51.0,28.0,30.0,1.0,0.0
4821,54.0,1.0,30.0,0.0,0.0
4822,56.0,29.0,30.0,0.0,0.0
4823,53.0,1.0,30.0,1.0,0.0
4824,54.0,14.0,30.0,0.0,0.0
4825,51.0,1.0,30.0,1.0,0.0
4826,56.0,13.0,30.0,0.0,0.0
4827,53.0,1.0,30.0,1.0,0.0
4828,32.0,1.0,15.0,1.0,0.0
4829,44.0,15.0,15.0,1.0,0.0
4830,60.0,1.0,60.0,0.0,0.0
4831,54.0,32.0,30.0,0.0,0.0
4832,51.0,3.0,30.0,1.0,0.0
4833,32.0,10.0,15.0,1.0,0.0
4834,44.0,3.0,15.0,1.0,0.0
4835,49.0,23.0,30.0,1.0,0.0
4836,37.0,7.0,120.0,1.0,0.0
4837,61.0,2.0,60.0,0.0,0.0
4838,53.0,3.0,30.0,0.0,0.0
4839,51.0,26.0,30.0,1.0,0.0
4840,54.0,2.0,30.0,0.0,0.0
4841,53.0,1.0,30.0,0.0,0.0
4842,49.0,23.0,30.0,1.0,0.0
4843,54.0,1.0,30.0,0.0,0.0
4844,51.0,8.0,30.0,1.0,0.0
4845,53.0,1.0,30.0,1.0,0.0
4846,56.0,21.0,15.0,0.0,0.0
4847,54.0,13.0,30.0,0.0,0.0
4848,51.0,1.0,30.0,1.0,0.0
4849,60.0,2.0,60.0,0.0,0.0
4850,56.0,14.0,30.0,0.0,0.0
4851,44.0,14.0,15.0,1.0,0.0
4852,32.0,1.0,15.0,1.0,0.0
4853,53.0,3.0,30.0,1.0,0.0
4854,44.0,11.0,15.0,1.0,0.0
4855,32.0,0.0,15.0,1.0,0.0
4856,54.0,56.0,30.0,0.0,0.0
4857,51.0,1.0,30.0,1.0,0.0
4858,53.0,54.0,120.0,0.0,0.0
4859,61.0,14.0,60.0,0.0,0.0
4860,37.0,5.0,60.0,1.0,0.0
4861,49.0,14.0,120.0,1.0,0.0
4862,65.0,37.0,15.0,0.0,0.0
4863,41.0,1.0,90.0,1.0,0.0
4864,68.0,20.0,210.0,0.0,0.0
4865,61.0,1.0,30.0,1.0,0.0
4866,65.0,29.0,30.0,0.0,0.0
4867,60.0,1.0,30.0,1.0,0.0
4868,63.0,30.0,30.0,0.0,0.0
4869,61.0,27.0,30.0,0.0,0.0
4870,58.0,1.0,30.0,1.0,0.0
4871,44.0,21.0,60.0,1.0,0.0
4872,60.0,1.0,30.0,0.0,0.0
4873,56.0,31.0,30.0,1.0,0.0
4874,61.0,1.0,30.0,0.0,0.0
4875,58.0,8.0,30.0,1.0,0.0
4876,56.0,3.0,30.0,1.0,0.0
4877,60.0,4.0,30.0,0.0,0.0
4878,58.0,15.0,30.0,0.0,0.0
4879,54.0,2.0,30.0,1.0,0.0
4880,61.0,14.0,15.0,0.0,0.0
4881,56.0,9.0,30.0,0.0,0.0
4882,53.0,2.0,30.0,1.0,0.0
4883,60.0,3.0,15.0,0.0,0.0
4884,58.0,0.0,30.0,0.0,0.0
4885,61.0,17.0,15.0,0.0,0.0
4886,54.0,0.0,30.0,1.0,0.0
4887,60.0,15.0,15.0,0.0,0.0
4888,61.0,15.0,15.0,0.0,0.0
4889,56.0,1.0,30.0,0.0,0.0
4890,53.0,0.0,30.0,1.0,0.0
4891,60.0,16.0,15.0,0.0,0.0
4892,51.0,1.0,30.0,1.0,0.0
4893,58.0,11.0,15.0,0.0,0.0
4894,54.0,29.0,30.0,0.0,0.0
4895,60.0,2.0,15.0,0.0,0.0
4896,37.0,1.0,30.0,1.0,0.0
4897,49.0,8.0,690.0,1.0,0.0
4898,61.0,5.0,240.0,0.0,0.0
4899,53.0,29.0,30.0,0.0,0.0
4900,54.0,29.0,30.0,0.0,0.0
4901,39.0,0.0,30.0,1.0,0.0
4902,53.0,31.0,30.0,0.0,0.0
4903,37.0,1.0,30.0,1.0,0.0
4904,54.0,0.0,30.0,0.0,0.0
4905,39.0,28.0,30.0,1.0,0.0
4906,41.0,29.0,30.0,1.0,0.0
4907,56.0,1.0,30.0,0.0,0.0
4908,39.0,1.0,30.0,1.0,0.0
4909,54.0,31.0,30.0,0.0,0.0
4910,41.0,21.0,30.0,1.0,0.0
4911,56.0,3.0,30.0,0.0,0.0
4912,53.0,27.0,30.0,0.0,0.0
4913,37.0,2.0,30.0,1.0,0.0
4914,54.0,1.0,30.0,0.0,0.0
4915,39.0,30.0,30.0,1.0,0.0
4916,60.0,16.0,210.0,0.0,0.0
4917,41.0,5.0,30.0,1.0,0.0
4918,56.0,25.0,30.0,0.0,0.0
4919,39.0,0.0,30.0,1.0,0.0
4920,54.0,30.0,30.0,0.0,0.0
4921,41.0,2.0,30.0,1.0,0.0
4922,56.0,27.0,30.0,0.0,0.0
4923,57.0,33.0,30.0,0.0,0.0
4924,42.0,1.0,30.0,1.0,0.0
4925,56.0,1.0,30.0,0.0,0.0
4926,41.0,26.0,30.0,1.0,0.0
4927,57.0,8.0,30.0,0.0,0.0
4928,42.0,4.0,30.0,1.0,0.0
4929,54.0,3.0,30.0,0.0,0.0
4930,39.0,15.0,30.0,1.0,0.0
4931,61.0,13.0,15.0,0.0,0.0
4932,41.0,0.0,30.0,1.0,0.0
4933,56.0,13.0,30.0,0.0,0.0
4934,59.0,3.0,15.0,0.0,0.0
4935,61.0,14.0,15.0,0.0,0.0
4936,42.0,0.0,30.0,1.0,0.0
4937,54.0,16.0,30.0,0.0,0.0
4938,59.0,1.0,15.0,0.0,0.0
4939,56.0,1.0,30.0,0.0,0.0
4940,61.0,14.0,15.0,0.0,0.0
4941,41.0,12.0,30.0,1.0,0.0
4942,59.0,1.0,15.0,0.0,0.0
4943,42.0,14.0,30.0,1.0,0.0
4944,54.0,1.0,30.0,0.0,0.0
4945,61.0,15.0,15.0,0.0,0.0
4946,59.0,2.0,15.0,0.0,0.0
4947,44.0,14.0,30.0,1.0,0.0
4948,53.0,0.0,30.0,0.0,0.0
4949,61.0,14.0,15.0,0.0,0.0
4950,59.0,1.0,15.0,0.0,0.0
4951,42.0,1.0,30.0,1.0,0.0
4952,54.0,18.0,30.0,0.0,0.0
4953,61.0,15.0,15.0,0.0,0.0
4954,59.0,2.0,15.0,0.0,0.0
4955,58.0,2.0,30.0,0.0,0.0
4956,53.0,22.0,30.0,0.0,0.0
4957,44.0,1.0,30.0,1.0,0.0
4958,59.0,3.0,30.0,0.0,0.0
4959,41.0,5.0,20.0,1.0,0.0
4960,56.0,28.0,30.0,0.0,0.0
4961,42.0,6.0,120.0,1.0,0.0
4962,54.0,31.0,30.0,0.0,0.0
4963,58.0,0.0,30.0,0.0,0.0
4964,49.0,3.0,120.0,1.0,0.0
4965,59.0,2.0,30.0,0.0,0.0
4966,56.0,27.0,30.0,0.0,0.0
4967,54.0,18.0,30.0,0.0,0.0
4968,58.0,2.0,30.0,0.0,0.0
4969,59.0,3.0,30.0,0.0,0.0
4970,56.0,26.0,30.0,0.0,0.0
4971,61.0,4.0,30.0,0.0,0.0
4972,58.0,26.0,30.0,0.0,0.0
4973,59.0,4.0,30.0,0.0,0.0
4974,56.0,26.0,30.0,0.0,0.0
4975,61.0,6.0,30.0,0.0,0.0
4976,58.0,26.0,15.0,0.0,0.0
4977,54.0,28.0,30.0,0.0,0.0
4978,56.0,29.0,30.0,0.0,0.0
4979,48.0,0.0,30.0,1.0,0.0
4980,32.0,4.0,900.0,1.0,0.0
4981,68.0,12.0,930.0,0.0,0.0
4982,58.0,3.0,30.0,0.0,0.0
4983,49.0,28.0,30.0,1.0,0.0
4984,56.0,29.0,30.0,0.0,0.0
4985,48.0,1.0,30.0,1.0,0.0
4986,58.0,29.0,30.0,0.0,0.0
4987,49.0,0.0,30.0,1.0,0.0
4988,60.0,29.0,30.0,0.0,0.0
4989,51.0,2.0,30.0,1.0,0.0
4990,49.0,29.0,30.0,1.0,0.0
4991,58.0,2.0,30.0,0.0,0.0
4992,51.0,29.0,30.0,1.0,0.0
4993,60.0,1.0,30.0,0.0,0.0
4994,56.0,28.0,30.0,0.0,0.0
4995,48.0,1.0,30.0,1.0,0.0
4996,67.0,13.0,240.0,0.0,0.0
4997,49.0,31.0,30.0,1.0,0.0
4998,58.0,1.0,30.0,0.0,0.0
4999,51.0,0.0,30.0,1.0,0.0
5000,60.0,26.0,30.0,0.0,0.0
5001,49.0,2.0,30.0,1.0,0.0
5002,58.0,30.0,30.0,0.0,0.0
5003,60.0,28.0,30.0,0.0,0.0
5004,51.0,2.0,30.0,1.0,0.0
5005,61.0,30.0,30.0,0.0,0.0
5006,52.0,0.0,30.0,1.0,0.0
5007,51.0,1.0,30.0,1.0,0.0
5008,60.0,32.0,30.0,0.0,0.0
5009,61.0,13.0,30.0,0.0,0.0
5010,52.0,2.0,30.0,1.0,0.0
5011,49.0,29.0,30.0,1.0,0.0
5012,58.0,0.0,30.0,0.0,0.0
5013,51.0,29.0,30.0,1.0,0.0
5014,66.0,8.0,180.0,0.0,0.0
5015,60.0,1.0,30.0,0.0,0.0
5016,53.0,2.0,30.0,1.0,0.0
5017,61.0,27.0,30.0,0.0,0.0
5018,51.0,30.0,30.0,1.0,0.0
5019,60.0,2.0,30.0,0.0,0.0
5020,61.0,29.0,30.0,0.0,0.0
5021,53.0,0.0,30.0,1.0,0.0
5022,54.0,0.0,30.0,1.0,0.0
5023,63.0,22.0,30.0,0.0,0.0
5024,61.0,3.0,30.0,0.0,0.0
5025,53.0,27.0,30.0,1.0,0.0
5026,65.0,1.0,30.0,0.0,0.0
5027,54.0,1.0,30.0,1.0,0.0
5028,63.0,29.0,30.0,0.0,0.0
5029,51.0,1.0,30.0,1.0,0.0
5030,60.0,1.0,30.0,0.0,0.0
5031,66.0,27.0,30.0,0.0,0.0
5032,52.0,0.0,30.0,1.0,0.0
5033,61.0,31.0,30.0,0.0,0.0
5034,64.0,3.0,120.0,0.0,0.0
5035,63.0,1.0,30.0,0.0,0.0
5036,54.0,27.0,30.0,1.0,0.0
5037,61.0,7.0,30.0,0.0,0.0
5038,52.0,19.0,30.0,1.0,0.0
5039,63.0,28.0,30.0,0.0,0.0
5040,54.0,4.0,30.0,1.0,0.0
5041,56.0,31.0,30.0,1.0,0.0
5042,64.0,2.0,30.0,0.0,0.0
5043,63.0,0.0,30.0,0.0,0.0
5044,54.0,13.0,30.0,1.0,0.0
5045,56.0,0.0,30.0,1.0,0.0
5046,64.0,21.0,30.0,0.0,0.0
5047,61.0,31.0,30.0,0.0,0.0
5048,52.0,5.0,20.0,1.0,0.0
5049,62.0,6.0,240.0,0.0,0.0
5050,64.0,23.0,510.0,0.0,0.0
5051,56.0,4.0,30.0,0.0,0.0
5052,52.0,27.0,30.0,1.0,0.0
5053,54.0,1.0,30.0,1.0,0.0
5054,57.0,29.0,30.0,0.0,0.0
5055,52.0,23.0,30.0,1.0,0.0
5056,56.0,4.0,30.0,0.0,0.0
5057,57.0,30.0,30.0,0.0,0.0
5058,54.0,3.0,30.0,1.0,0.0
5059,56.0,21.0,30.0,1.0,0.0
5060,59.0,2.0,30.0,0.0,0.0
5061,57.0,17.0,30.0,0.0,0.0
5062,54.0,7.0,20.0,1.0,0.0
5063,56.0,3.0,30.0,1.0,0.0
5064,40.0,15.0,15.0,1.0,0.0
5065,59.0,12.0,30.0,0.0,0.0
5066,56.0,30.0,30.0,0.0,0.0
5067,40.0,6.0,20.0,1.0,0.0
5068,52.0,1.0,30.0,1.0,0.0
5069,45.0,5.0,120.0,1.0,0.0
5070,49.0,1.0,30.0,1.0,0.0
5071,33.0,24.0,120.0,1.0,0.0
5072,57.0,26.0,30.0,0.0,0.0
5073,61.0,4.0,30.0,0.0,0.0
5074,52.0,7.0,30.0,1.0,0.0
5075,51.0,27.0,30.0,1.0,0.0
5076,59.0,0.0,30.0,0.0,0.0
5077,57.0,1.0,30.0,0.0,0.0
5078,49.0,2.0,30.0,1.0,0.0
5079,56.0,0.0,30.0,0.0,0.0
5080,47.0,26.0,30.0,1.0,0.0
5081,59.0,14.0,30.0,0.0,0.0
5082,50.0,8.0,30.0,1.0,0.0
5083,57.0,1.0,30.0,0.0,0.0
5084,49.0,22.0,30.0,1.0,0.0
5085,40.0,11.0,15.0,1.0,0.0
5086,56.0,27.0,30.0,0.0,0.0
5087,47.0,1.0,20.0,1.0,0.0
5088,40.0,10.0,20.0,1.0,0.0
5089,49.0,3.0,30.0,1.0,0.0
5090,33.0,0.0,120.0,1.0,0.0
5091,45.0,26.0,120.0,1.0,0.0
5092,57.0,4.0,30.0,0.0,0.0
5093,61.0,2.0,30.0,0.0,0.0
5094,52.0,26.0,30.0,1.0,0.0
5095,50.0,5.0,30.0,1.0,0.0
5096,65.0,4.0,60.0,0.0,0.0
5097,59.0,27.0,30.0,0.0,0.0
5098,52.0,0.0,30.0,1.0,0.0
5099,61.0,1.0,30.0,0.0,0.0
5100,66.0,19.0,390.0,0.0,0.0
5101,58.0,29.0,30.0,0.0,0.0
5102,49.0,0.0,30.0,1.0,0.0
5103,61.0,11.0,30.0,0.0,0.0
5104,52.0,5.0,30.0,1.0,0.0
5105,59.0,25.0,30.0,0.0,0.0
5106,51.0,5.0,30.0,1.0,0.0
5107,42.0,10.0,15.0,1.0,0.0
5108,49.0,1.0,30.0,1.0,0.0
5109,58.0,28.0,30.0,0.0,0.0
5110,42.0,7.0,30.0,1.0,0.0
5111,59.0,23.0,30.0,0.0,0.0
5112,51.0,1.0,30.0,1.0,0.0
5113,35.0,2.0,120.0,1.0,0.0
5114,47.0,21.0,120.0,1.0,0.0
5115,63.0,5.0,30.0,0.0,0.0
5116,54.0,30.0,30.0,1.0,0.0
5117,61.0,1.0,30.0,0.0,0.0
5118,52.0,29.0,30.0,1.0,0.0
5119,51.0,2.0,30.0,1.0,0.0
5120,59.0,4.0,30.0,0.0,0.0
5121,58.0,1.0,30.0,0.0,0.0
5122,49.0,27.0,30.0,1.0,0.0
5123,61.0,13.0,30.0,0.0,0.0
5124,52.0,4.0,30.0,1.0,0.0
5125,42.0,8.0,15.0,1.0,0.0
5126,59.0,19.0,30.0,0.0,0.0
5127,51.0,9.0,20.0,1.0,0.0
5128,58.0,30.0,30.0,0.0,0.0
5129,42.0,9.0,20.0,1.0,0.0
5130,49.0,0.0,20.0,1.0,0.0
5131,51.0,4.0,30.0,1.0,0.0
5132,35.0,0.0,120.0,1.0,0.0
5133,47.0,28.0,120.0,1.0,0.0
5134,59.0,5.0,30.0,0.0,0.0
5135,54.0,35.0,30.0,1.0,0.0
5136,63.0,0.0,30.0,0.0,0.0
5137,61.0,25.0,30.0,0.0,0.0
5138,67.0,1.0,60.0,0.0,0.0
5139,52.0,1.0,30.0,1.0,0.0
5140,54.0,1.0,30.0,1.0,0.0
5141,63.0,3.0,30.0,0.0,0.0
5142,60.0,2.0,30.0,0.0,0.0
5143,51.0,20.0,30.0,1.0,0.0
5144,68.0,47.0,360.0,0.0,0.0
5145,54.0,9.0,20.0,1.0,0.0
5146,63.0,12.0,30.0,0.0,0.0
5147,52.0,5.0,30.0,1.0,0.0
5148,32.0,0.0,15.0,1.0,0.0
5149,44.0,11.0,15.0,1.0,0.0
5150,61.0,11.0,30.0,0.0,0.0
5151,60.0,29.0,30.0,0.0,0.0
5152,51.0,11.0,20.0,1.0,0.0
5153,32.0,3.0,15.0,1.0,0.0
5154,44.0,7.0,15.0,1.0,0.0
5155,37.0,0.0,120.0,1.0,0.0
5156,52.0,0.0,30.0,1.0,0.0
5157,49.0,11.0,120.0,1.0,0.0
5158,61.0,28.0,30.0,0.0,0.0
5159,56.0,5.0,30.0,1.0,0.0
5160,64.0,26.0,30.0,0.0,0.0
5161,54.0,1.0,30.0,1.0,0.0
5162,63.0,16.0,30.0,0.0,0.0
5163,52.0,3.0,30.0,1.0,0.0
5164,61.0,30.0,30.0,0.0,0.0
5165,60.0,24.0,30.0,0.0,0.0
5166,51.0,1.0,30.0,1.0,0.0
5167,54.0,5.0,30.0,1.0,0.0
5168,63.0,13.0,30.0,0.0,0.0
5169,61.0,9.0,30.0,0.0,0.0
5170,52.0,6.0,30.0,1.0,0.0
5171,32.0,11.0,15.0,1.0,0.0
5172,44.0,0.0,15.0,1.0,0.0
5173,60.0,15.0,30.0,0.0,0.0
5174,51.0,5.0,20.0,1.0,0.0
5175,32.0,2.0,15.0,1.0,0.0
5176,44.0,11.0,15.0,1.0,0.0
5177,52.0,1.0,60.0,1.0,0.0
5178,37.0,25.0,60.0,1.0,0.0
5179,49.0,0.0,60.0,1.0,0.0
5180,61.0,2.0,30.0,0.0,0.0
5181,63.0,30.0,30.0,0.0,0.0
5182,61.0,34.0,30.0,0.0,0.0
5183,53.0,1.0,60.0,0.0,0.0
5184,56.0,10.0,60.0,0.0,0.0
5185,49.0,4.0,60.0,1.0,0.0
5186,47.0,2.0,60.0,1.0,0.0
5187,35.0,14.0,90.0,1.0,0.0
5188,65.0,23.0,30.0,0.0,0.0
5189,61.0,4.0,30.0,0.0,0.0
5190,63.0,29.0,30.0,0.0,0.0
5191,61.0,37.0,30.0,0.0,0.0
5192,46.0,0.0,60.0,1.0,0.0
5193,49.0,0.0,60.0,1.0,0.0
5194,66.0,20.0,30.0,0.0,0.0
5195,34.0,27.0,60.0,1.0,0.0
5196,54.0,1.0,60.0,0.0,0.0
5197,58.0,4.0,60.0,0.0,0.0
5198,61.0,2.0,30.0,0.0,0.0
5199,63.0,28.0,30.0,0.0,0.0
5200,61.0,34.0,30.0,0.0,0.0
5201,49.0,3.0,90.0,1.0,0.0
5202,33.0,10.0,90.0,1.0,0.0
5203,67.0,26.0,30.0,0.0,0.0
5204,45.0,0.0,90.0,1.0,0.0
5205,55.0,13.0,60.0,0.0,0.0
5206,52.0,2.0,90.0,1.0,0.0
5207,61.0,4.0,30.0,0.0,0.0
5208,63.0,25.0,30.0,0.0,0.0
5209,61.0,30.0,30.0,0.0,0.0
5210,32.0,2.0,30.0,1.0,0.0
5211,61.0,1.0,120.0,0.0,0.0
5212,56.0,1.0,120.0,0.0,0.0
5213,49.0,55.0,120.0,0.0,0.0
5214,53.0,2.0,120.0,0.0,0.0
5215,68.0,4.0,120.0,0.0,0.0
5216,44.0,2.0,30.0,1.0,0.0
5217,49.0,29.0,30.0,1.0,0.0
5218,37.0,1.0,30.0,1.0,0.0
5219,41.0,2.0,30.0,1.0,0.0
5220,53.0,24.0,30.0,1.0,0.0
5221,49.0,1.0,30.0,1.0,0.0
5222,37.0,1.0,30.0,1.0,0.0
5223,32.0,4.0,120.0,1.0,0.0
5224,44.0,1.0,120.0,1.0,0.0
5225,49.0,2.0,30.0,0.0,0.0
5226,53.0,27.0,30.0,0.0,0.0
5227,51.0,27.0,30.0,0.0,0.0
5228,54.0,2.0,30.0,0.0,0.0
5229,56.0,17.0,30.0,0.0,0.0
5230,53.0,7.0,30.0,0.0,0.0
5231,54.0,3.0,30.0,0.0,0.0
5232,58.0,27.0,30.0,0.0,0.0
5233,56.0,31.0,30.0,0.0,0.0
5234,60.0,2.0,30.0,0.0,0.0
5235,58.0,23.0,30.0,0.0,0.0
5236,61.0,7.0,30.0,0.0,0.0
5237,63.0,0.0,30.0,0.0,0.0
5238,60.0,12.0,30.0,0.0,0.0
5239,66.0,5.0,15.0,0.0,0.0
5240,63.0,14.0,15.0,0.0,0.0
5241,61.0,24.0,20.0,0.0,0.0
5242,65.0,4.0,15.0,0.0,0.0
5243,60.0,2.0,30.0,0.0,0.0
5244,63.0,31.0,30.0,0.0,0.0
5245,61.0,1.0,30.0,0.0,0.0
5246,65.0,25.0,30.0,0.0,0.0
5247,66.0,29.0,30.0,0.0,0.0
5248,63.0,2.0,30.0,0.0,0.0
5249,44.0,4.0,30.0,1.0,0.0
5250,68.0,0.0,120.0,0.0,0.0
5251,65.0,5.0,120.0,0.0,0.0
5252,32.0,26.0,30.0,1.0,0.0
5253,37.0,28.0,30.0,1.0,0.0
5254,49.0,1.0,30.0,1.0,0.0
5255,53.0,24.0,30.0,1.0,0.0
5256,41.0,2.0,30.0,1.0,0.0
5257,49.0,2.0,30.0,1.0,0.0
5258,37.0,59.0,30.0,1.0,0.0
5259,44.0,6.0,120.0,1.0,0.0
5260,32.0,1.0,120.0,1.0,0.0
5261,53.0,27.0,30.0,0.0,0.0
5262,49.0,0.0,30.0,0.0,0.0
5263,54.0,5.0,30.0,0.0,0.0
5264,51.0,21.0,30.0,0.0,0.0
5265,56.0,2.0,30.0,0.0,0.0
5266,53.0,25.0,30.0,0.0,0.0
5267,58.0,28.0,30.0,0.0,0.0
5268,54.0,3.0,30.0,0.0,0.0
5269,60.0,2.0,30.0,0.0,0.0
5270,56.0,28.0,30.0,0.0,0.0
5271,61.0,2.0,30.0,0.0,0.0
5272,58.0,28.0,30.0,0.0,0.0
5273,63.0,33.0,30.0,0.0,0.0
5274,60.0,2.0,30.0,0.0,0.0
5275,65.0,25.0,30.0,0.0,0.0
5276,61.0,1.0,30.0,0.0,0.0
5277,63.0,29.0,30.0,0.0,0.0
5278,66.0,3.0,30.0,0.0,0.0
5279,64.0,28.0,30.0,0.0,0.0
5280,67.0,1.0,30.0,0.0,0.0
5281,68.0,0.0,30.0,0.0,0.0
5282,65.0,230.0,30.0,0.0,0.0
5283,43.0,1.0,240.0,1.0,0.0
5284,55.0,2.0,240.0,1.0,0.0
5285,61.0,43.0,840.0,0.0,0.0
5286,70.0,117.0,240.0,0.0,0.0
5287,64.0,16.0,450.0,0.0,0.0
5288,68.0,6.0,120.0,0.0,0.0
5289,56.0,98.0,120.0,1.0,0.0
5290,44.0,0.0,120.0,1.0,0.0
5291,67.0,80.0,120.0,0.0,0.0
5292,57.0,2.0,120.0,1.0,0.0
5293,45.0,3.0,120.0,1.0,0.0
5294,32.0,17.0,480.0,1.0,0.0
5295,65.0,50.0,240.0,0.0,0.0
5296,68.0,4.0,300.0,0.0,0.0
5297,44.0,13.0,30.0,1.0,0.0
5298,46.0,28.0,30.0,1.0,0.0
5299,48.0,32.0,30.0,1.0,0.0
5300,49.0,35.0,30.0,1.0,0.0
5301,51.0,26.0,30.0,1.0,0.0
5302,53.0,28.0,30.0,1.0,0.0
5303,54.0,2.0,30.0,1.0,0.0
5304,56.0,56.0,60.0,1.0,0.0
5305,67.0,11.0,60.0,0.0,0.0
5306,64.0,9.0,60.0,0.0,0.0
5307,58.0,1.0,60.0,1.0,0.0
5308,66.0,42.0,60.0,0.0,0.0
5309,63.0,5.0,60.0,0.0,0.0
5310,60.0,5.0,90.0,1.0,0.0
5311,61.0,8.0,60.0,0.0,0.0
5312,65.0,0.0,60.0,0.0,0.0
5313,65.0,8.0,20.0,0.0,0.0
5314,61.0,3.0,15.0,0.0,0.0
5315,56.0,4.0,15.0,1.0,0.0
5316,54.0,0.0,15.0,1.0,0.0
5317,63.0,1.0,15.0,0.0,0.0
5318,60.0,14.0,15.0,0.0,0.0
5319,56.0,2.0,15.0,1.0,0.0
5320,32.0,0.0,30.0,1.0,0.0
5321,65.0,10.0,15.0,0.0,0.0
5322,61.0,2.0,15.0,0.0,0.0
5323,54.0,0.0,15.0,1.0,0.0
5324,63.0,1.0,15.0,0.0,0.0
5325,60.0,15.0,15.0,0.0,0.0
5326,65.0,14.0,15.0,0.0,0.0
5327,34.0,0.0,30.0,1.0,0.0
5328,56.0,1.0,15.0,1.0,0.0
5329,61.0,0.0,15.0,0.0,0.0
5330,54.0,0.0,15.0,1.0,0.0
5331,60.0,15.0,15.0,0.0,0.0
5332,63.0,0.0,15.0,0.0,0.0
5333,65.0,13.0,15.0,0.0,0.0
5334,61.0,1.0,15.0,0.0,0.0
5335,56.0,1.0,15.0,1.0,0.0
5336,36.0,2.0,30.0,1.0,0.0
5337,54.0,0.0,15.0,1.0,0.0
5338,60.0,13.0,15.0,0.0,0.0
5339,63.0,0.0,15.0,0.0,0.0
5340,65.0,14.0,15.0,0.0,0.0
5341,61.0,0.0,15.0,0.0,0.0
5342,37.0,2.0,30.0,1.0,0.0
5343,56.0,1.0,15.0,1.0,0.0
5344,60.0,12.0,15.0,0.0,0.0
5345,54.0,0.0,15.0,1.0,0.0
5346,63.0,1.0,15.0,0.0,0.0
5347,39.0,0.0,30.0,1.0,0.0
5348,61.0,13.0,15.0,0.0,0.0
5349,65.0,1.0,15.0,0.0,0.0
5350,56.0,1.0,15.0,1.0,0.0
5351,54.0,1.0,15.0,1.0,0.0
5352,63.0,14.0,15.0,0.0,0.0
5353,60.0,0.0,15.0,0.0,0.0
5354,41.0,2.0,30.0,1.0,0.0
5355,65.0,1.0,15.0,0.0,0.0
5356,61.0,13.0,15.0,0.0,0.0
5357,56.0,1.0,15.0,1.0,0.0
5358,60.0,0.0,15.0,0.0,0.0
5359,63.0,13.0,15.0,0.0,0.0
5360,54.0,0.0,15.0,1.0,0.0
5361,61.0,12.0,15.0,0.0,0.0
5362,65.0,1.0,15.0,0.0,0.0
5363,56.0,2.0,15.0,1.0,0.0
5364,42.0,2.0,30.0,1.0,0.0
5365,60.0,13.0,15.0,0.0,0.0
5366,54.0,0.0,15.0,1.0,0.0
5367,63.0,0.0,15.0,0.0,0.0
5368,61.0,11.0,15.0,0.0,0.0
5369,65.0,3.0,15.0,0.0,0.0
5370,56.0,1.0,15.0,1.0,0.0
5371,44.0,0.0,30.0,1.0,0.0
5372,54.0,1.0,15.0,1.0,0.0
5373,63.0,13.0,15.0,0.0,0.0
5374,60.0,1.0,15.0,0.0,0.0
5375,65.0,12.0,15.0,0.0,0.0
5376,61.0,0.0,15.0,0.0,0.0
5377,56.0,3.0,15.0,1.0,0.0
5378,46.0,0.0,30.0,1.0,0.0
5379,54.0,3.0,15.0,1.0,0.0
5380,60.0,11.0,15.0,0.0,0.0
5381,63.0,1.0,15.0,0.0,0.0
5382,44.0,0.0,30.0,1.0,0.0
5383,56.0,3.0,15.0,1.0,0.0
5384,65.0,1.0,15.0,0.0,0.0
5385,61.0,11.0,15.0,0.0,0.0
5386,63.0,12.0,15.0,0.0,0.0
5387,60.0,2.0,15.0,0.0,0.0
5388,54.0,1.0,15.0,1.0,0.0
5389,61.0,2.0,15.0,0.0,0.0
5390,43.0,0.0,30.0,1.0,0.0
5391,56.0,2.0,15.0,1.0,0.0
5392,65.0,11.0,15.0,0.0,0.0
5393,54.0,3.0,15.0,1.0,0.0
5394,60.0,12.0,15.0,0.0,0.0
5395,63.0,0.0,15.0,0.0,0.0
5396,56.0,3.0,15.0,1.0,0.0
5397,44.0,4.0,30.0,1.0,0.0
5398,61.0,2.0,15.0,0.0,0.0
5399,65.0,9.0,20.0,0.0,0.0
5400,63.0,11.0,15.0,0.0,0.0
5401,60.0,1.0,15.0,0.0,0.0
5402,54.0,0.0,15.0,1.0,0.0
5403,56.0,1.0,15.0,1.0,0.0
5404,65.0,14.0,15.0,0.0,0.0
5405,61.0,0.0,15.0,0.0,0.0
5406,39.0,0.0,30.0,1.0,0.0
5407,54.0,1.0,15.0,1.0,0.0
5408,60.0,13.0,15.0,0.0,0.0
5409,63.0,1.0,15.0,0.0,0.0
5410,61.0,13.0,15.0,0.0,0.0
5411,65.0,0.0,15.0,0.0,0.0
5412,56.0,2.0,15.0,1.0,0.0
5413,36.0,1.0,30.0,1.0,0.0
5414,60.0,12.0,15.0,0.0,0.0
5415,63.0,2.0,15.0,0.0,0.0
5416,54.0,0.0,15.0,1.0,0.0
5417,58.0,0.0,15.0,0.0,0.0
5418,61.0,11.0,15.0,0.0,0.0
5419,32.0,0.0,30.0,1.0,0.0
5420,53.0,2.0,15.0,1.0,0.0
5421,54.0,0.0,15.0,1.0,0.0
5422,60.0,2.0,15.0,0.0,0.0
5423,63.0,31.0,15.0,0.0,0.0
5424,53.0,3.0,60.0,1.0,0.0
5425,37.0,22.0,60.0,1.0,0.0
5426,60.0,34.0,30.0,0.0,0.0
5427,61.0,1.0,30.0,0.0,0.0
5428,65.0,28.0,30.0,0.0,0.0
5429,61.0,30.0,30.0,0.0,0.0
5430,46.0,15.0,60.0,1.0,0.0
5431,49.0,2.0,60.0,1.0,0.0
5432,53.0,0.0,60.0,1.0,0.0
5433,57.0,30.0,30.0,0.0,0.0
5434,58.0,15.0,30.0,0.0,0.0
5435,61.0,29.0,30.0,0.0,0.0
5436,58.0,31.0,30.0,0.0,0.0
5437,51.0,1.0,60.0,1.0,0.0
5438,49.0,1.0,60.0,1.0,0.0
5439,42.0,17.0,60.0,1.0,0.0
5440,53.0,29.0,30.0,0.0,0.0
5441,54.0,14.0,30.0,0.0,0.0
5442,58.0,28.0,30.0,0.0,0.0
5443,54.0,32.0,30.0,0.0,0.0
5444,44.0,1.0,90.0,1.0,0.0
5445,48.0,25.0,90.0,1.0,0.0
5446,51.0,4.0,90.0,1.0,0.0
5447,55.0,28.0,30.0,0.0,0.0
5448,56.0,27.0,30.0,0.0,0.0
5449,60.0,1.0,30.0,0.0,0.0
5450,56.0,32.0,30.0,0.0,0.0
5451,56.0,3.0,60.0,0.0,0.0
5452,53.0,4.0,60.0,0.0,0.0
5453,61.0,31.0,60.0,0.0,0.0
5454,49.0,22.0,30.0,1.0,0.0
5455,53.0,2.0,30.0,1.0,0.0
5456,49.0,28.0,30.0,1.0,0.0
5457,45.0,28.0,30.0,1.0,0.0
5458,65.0,24.0,60.0,0.0,0.0
5459,58.0,1.0,60.0,0.0,0.0
5460,53.0,6.0,60.0,0.0,0.0
5461,61.0,1.0,60.0,0.0,0.0
5462,46.0,28.0,30.0,1.0,0.0
5463,49.0,1.0,30.0,1.0,0.0
5464,46.0,33.0,30.0,1.0,0.0
5465,41.0,27.0,30.0,1.0,0.0
5466,51.0,1.0,60.0,0.0,0.0
5467,58.0,2.0,60.0,0.0,0.0
5468,63.0,28.0,60.0,0.0,0.0
5469,61.0,1.0,60.0,0.0,0.0
5470,42.0,28.0,30.0,1.0,0.0
5471,46.0,2.0,30.0,1.0,0.0
5472,42.0,29.0,30.0,1.0,0.0
5473,39.0,30.0,30.0,1.0,0.0
5474,60.0,3.0,60.0,0.0,0.0
5475,51.0,20.0,60.0,0.0,0.0
5476,68.0,1.0,60.0,0.0,0.0
5477,44.0,28.0,30.0,1.0,0.0
5478,54.0,0.0,60.0,0.0,0.0
5479,39.0,9.0,30.0,1.0,0.0
5480,36.0,29.0,30.0,1.0,0.0
5481,32.0,119.0,30.0,1.0,0.0
5482,56.0,3.0,120.0,0.0,0.0
5483,61.0,3.0,120.0,0.0,0.0
5484,37.0,67.0,120.0,1.0,0.0
5485,49.0,2.0,120.0,1.0,0.0
5486,53.0,1.0,120.0,1.0,0.0
5487,56.0,2.0,15.0,0.0,0.0
5488,37.0,0.0,15.0,1.0,0.0
5489,49.0,2.0,15.0,1.0,0.0
5490,61.0,1.0,15.0,0.0,0.0
5491,53.0,21.0,20.0,1.0,0.0
5492,49.0,1.0,15.0,1.0,0.0
5493,37.0,3.0,15.0,1.0,0.0
5494,53.0,138.0,15.0,1.0,0.0
5495,61.0,1.0,15.0,0.0,0.0
5496,56.0,1.0,15.0,0.0,0.0
5497,56.0,2.0,120.0,1.0,0.0
5498,35.0,60.0,120.0,1.0,0.0
5499,47.0,1.0,120.0,1.0,0.0
5500,65.0,6.0,120.0,0.0,0.0
5501,61.0,1.0,120.0,0.0,0.0
5502,56.0,0.0,15.0,0.0,0.0
5503,35.0,1.0,15.0,1.0,0.0
5504,53.0,2.0,15.0,1.0,0.0
5505,61.0,25.0,20.0,0.0,0.0
5506,47.0,1.0,15.0,1.0,0.0
5507,35.0,0.0,15.0,1.0,0.0
5508,47.0,1.0,15.0,1.0,0.0
5509,53.0,0.0,15.0,1.0,0.0
5510,61.0,137.0,15.0,0.0,0.0
5511,56.0,3.0,15.0,0.0,0.0
5512,34.0,0.0,150.0,1.0,0.0
5513,58.0,2.0,150.0,1.0,0.0
5514,46.0,55.0,150.0,1.0,0.0
5515,61.0,9.0,120.0,0.0,0.0
5516,66.0,4.0,120.0,0.0,0.0
5517,46.0,0.0,15.0,1.0,0.0
5518,34.0,0.0,15.0,1.0,0.0
5519,61.0,0.0,20.0,0.0,0.0
5520,58.0,4.0,15.0,0.0,0.0
5521,54.0,22.0,20.0,1.0,0.0
5522,54.0,3.0,15.0,1.0,0.0
5523,61.0,130.0,20.0,0.0,0.0
5524,58.0,3.0,15.0,0.0,0.0
5525,34.0,0.0,15.0,1.0,0.0
5526,46.0,2.0,15.0,1.0,0.0
5527,61.0,0.0,120.0,0.0,0.0
5528,67.0,337.0,120.0,0.0,0.0
5529,33.0,1.0,120.0,1.0,0.0
5530,45.0,1.0,120.0,1.0,0.0
5531,55.0,3.0,120.0,1.0,0.0
5532,61.0,0.0,15.0,0.0,0.0
5533,67.0,123.0,20.0,0.0,0.0
5534,49.0,4.0,15.0,1.0,0.0
5535,45.0,1.0,15.0,1.0,0.0
5536,33.0,5.0,15.0,1.0,0.0
5537,33.0,0.0,120.0,1.0,0.0
5538,49.0,1.0,120.0,1.0,0.0
5539,45.0,0.0,120.0,1.0,0.0
5540,67.0,103.0,120.0,0.0,0.0
5541,61.0,3.0,120.0,0.0,0.0
5542,51.0,1.0,15.0,1.0,0.0
5543,44.0,0.0,15.0,1.0,0.0
5544,32.0,2.0,15.0,1.0,0.0
5545,61.0,244.0,15.0,0.0,0.0
5546,68.0,2.0,15.0,0.0,0.0
5547,51.0,3.0,570.0,0.0,0.0
5548,56.0,2.0,570.0,0.0,0.0
5549,32.0,13.0,570.0,1.0,0.0
5550,49.0,124.0,240.0,1.0,0.0
5551,44.0,11.0,570.0,1.0,0.0
5552,48.0,123.0,120.0,1.0,0.0
5553,46.0,89.0,120.0,1.0,0.0
5554,48.0,479.0,120.0,1.0,0.0
5555,52.0,6.0,330.0,0.0,0.0
5556,49.0,19.0,330.0,1.0,0.0
5557,37.0,121.0,120.0,1.0,0.0
5558,56.0,37.0,1020.0,0.0,0.0
5559,40.0,96.0,120.0,1.0,0.0
5560,44.0,125.0,120.0,1.0,0.0
5561,51.0,7.0,360.0,1.0,0.0
5562,36.0,116.0,120.0,1.0,0.0
5563,54.0,12.0,330.0,0.0,0.0
5564,39.0,104.0,120.0,1.0,0.0
5565,44.0,117.0,120.0,1.0,0.0
5566,50.0,8.0,360.0,1.0,0.0
5567,35.0,122.0,120.0,1.0,0.0
5568,53.0,38.0,450.0,0.0,0.0
5569,38.0,70.0,120.0,1.0,0.0
5570,44.0,85.0,120.0,1.0,0.0
5571,34.0,110.0,120.0,1.0,0.0
5572,61.0,1.0,240.0,0.0,0.0
5573,49.0,9.0,240.0,1.0,0.0
5574,54.0,7.0,240.0,0.0,0.0
5575,37.0,106.0,120.0,1.0,0.0
5576,63.0,5.0,120.0,0.0,0.0
5577,42.0,117.0,120.0,1.0,0.0
5578,48.0,2.0,120.0,1.0,0.0
5579,64.0,43.0,180.0,0.0,0.0
5580,55.0,8.0,450.0,0.0,0.0
5581,49.0,3.0,240.0,1.0,0.0
5582,33.0,52.0,120.0,1.0,0.0
5583,37.0,65.0,120.0,1.0,0.0
5584,66.0,23.0,30.0,0.0,0.0
5585,64.0,0.0,30.0,0.0,0.0
5586,63.0,39.0,60.0,0.0,0.0
5587,51.0,1.0,60.0,1.0,0.0
5588,43.0,7.0,90.0,1.0,0.0
5589,61.0,5.0,60.0,0.0,0.0
5590,52.0,107.0,60.0,1.0,0.0
5591,32.0,14.0,480.0,1.0,0.0
5592,44.0,2.0,480.0,1.0,0.0
5593,52.0,105.0,120.0,1.0,0.0
5594,61.0,13.0,120.0,0.0,0.0
5595,68.0,82.0,570.0,0.0,0.0
5596,56.0,9.0,120.0,0.0,0.0
5597,51.0,98.0,120.0,1.0,0.0
5598,60.0,4.0,90.0,0.0,0.0
5599,64.0,116.0,120.0,0.0,0.0
5600,55.0,0.0,120.0,0.0,0.0
5601,61.0,2.0,120.0,0.0,0.0
5602,46.0,17.0,90.0,1.0,0.0
5603,49.0,2.0,120.0,1.0,0.0
5604,48.0,6.0,120.0,1.0,0.0
5605,51.0,75.0,150.0,1.0,0.0
5606,63.0,3.0,120.0,0.0,0.0
5607,56.0,1.0,120.0,0.0,0.0
5608,60.0,0.0,120.0,0.0,0.0
5609,66.0,51.0,60.0,0.0,0.0
5610,64.0,247.0,60.0,0.0,0.0
5611,64.0,53.0,240.0,0.0,0.0
5612,52.0,7.0,240.0,1.0,0.0
5613,44.0,5.0,120.0,1.0,0.0
5614,59.0,8.0,180.0,0.0,0.0
5615,45.0,1.0,120.0,1.0,0.0
5616,63.0,50.0,60.0,0.0,0.0
5617,57.0,5.0,60.0,0.0,0.0
5618,61.0,49.0,60.0,0.0,0.0
5619,56.0,5.0,60.0,0.0,0.0
5620,47.0,1.0,120.0,1.0,0.0
5621,51.0,121.0,120.0,1.0,0.0
5622,59.0,59.0,60.0,0.0,0.0
5623,54.0,1.0,60.0,0.0,0.0
5624,57.0,2.0,60.0,0.0,0.0
5625,56.0,2.0,120.0,0.0,0.0
5626,52.0,4.0,120.0,0.0,0.0
5627,44.0,278.0,120.0,1.0,0.0
5628,40.0,4.0,120.0,1.0,0.0
5629,61.0,37.0,180.0,0.0,0.0
5630,49.0,4.0,300.0,1.0,0.0
5631,40.0,1.0,120.0,1.0,0.0
5632,56.0,8.0,180.0,0.0,0.0
5633,63.0,26.0,30.0,0.0,0.0
5634,61.0,54.0,30.0,0.0,0.0
5635,59.0,56.0,60.0,0.0,0.0
5636,42.0,0.0,120.0,1.0,0.0
5637,57.0,52.0,60.0,0.0,0.0
5638,54.0,3.0,60.0,0.0,0.0
5639,56.0,58.0,60.0,0.0,0.0
5640,52.0,2.0,60.0,0.0,0.0
5641,44.0,3.0,120.0,1.0,0.0
5642,54.0,0.0,60.0,0.0,0.0
5643,51.0,4.0,60.0,0.0,0.0
5644,48.0,117.0,60.0,1.0,0.0
5645,52.0,16.0,120.0,0.0,0.0
5646,49.0,1.0,120.0,0.0,0.0
5647,37.0,337.0,120.0,1.0,0.0
5648,50.0,2.0,240.0,0.0,0.0
5649,45.0,1.0,120.0,1.0,0.0
5650,42.0,124.0,120.0,1.0,0.0
5651,51.0,3.0,120.0,0.0,0.0
5652,46.0,120.0,120.0,1.0,0.0
5653,43.0,1.0,120.0,1.0,0.0
5654,54.0,2.0,120.0,0.0,0.0
5655,45.0,0.0,120.0,1.0,0.0
5656,49.0,120.0,120.0,1.0,0.0
5657,47.0,44.0,120.0,1.0,0.0
5658,44.0,1.0,120.0,1.0,0.0
5659,62.0,55.0,150.0,0.0,0.0
5660,53.0,2.0,120.0,0.0,0.0
5661,61.0,131.0,60.0,0.0,0.0
5662,52.0,1.0,240.0,0.0,0.0
5663,61.0,118.0,120.0,0.0,0.0
5664,47.0,3.0,120.0,1.0,0.0
5665,44.0,115.0,120.0,1.0,0.0
5666,45.0,1.0,120.0,1.0,0.0
5667,48.0,122.0,120.0,1.0,0.0
5668,53.0,2.0,120.0,0.0,0.0
5669,47.0,2.0,120.0,1.0,0.0
5670,51.0,113.0,120.0,1.0,0.0
5671,56.0,5.0,120.0,0.0,0.0
5672,49.0,5.0,120.0,1.0,0.0
5673,64.0,55.0,180.0,0.0,0.0
5674,46.0,48.0,120.0,1.0,0.0
5675,55.0,2.0,120.0,0.0,0.0
5676,63.0,133.0,60.0,0.0,0.0
5677,63.0,230.0,120.0,0.0,0.0
5678,32.0,14.0,1500.0,1.0,0.0
5679,68.0,8.0,240.0,0.0,0.0
5680,48.0,1.0,120.0,1.0,0.0
5681,51.0,46.0,120.0,1.0,0.0
5682,57.0,5.0,240.0,0.0,0.0
5683,49.0,11.0,120.0,1.0,0.0
5684,52.0,2.0,120.0,1.0,0.0
5685,69.0,15.0,15.0,0.0,0.0
5686,68.0,15.0,15.0,0.0,0.0
5687,67.0,15.0,15.0,0.0,0.0
5688,68.0,17.0,15.0,0.0,0.0
5689,69.0,109.0,30.0,0.0,0.0
5690,54.0,8.0,120.0,1.0,0.0
5691,51.0,43.0,120.0,1.0,0.0
5692,66.0,6.0,240.0,0.0,0.0
5693,49.0,3.0,120.0,1.0,0.0
5694,52.0,2.0,120.0,1.0,0.0
5695,59.0,15.0,15.0,0.0,0.0
5696,57.0,15.0,15.0,0.0,0.0
5697,56.0,15.0,15.0,0.0,0.0
5698,57.0,19.0,15.0,0.0,0.0
5699,59.0,45.0,30.0,0.0,0.0
5700,56.0,6.0,240.0,0.0,0.0
5701,51.0,3.0,120.0,1.0,0.0
5702,48.0,9.0,120.0,1.0,0.0
5703,68.0,15.0,15.0,0.0,0.0
5704,66.0,15.0,15.0,0.0,0.0
5705,65.0,15.0,15.0,0.0,0.0
5706,66.0,18.0,15.0,0.0,0.0
5707,68.0,109.0,30.0,0.0,0.0
5708,49.0,48.0,120.0,1.0,0.0
5709,52.0,2.0,120.0,1.0,0.0
5710,64.0,6.0,240.0,0.0,0.0
5711,51.0,1.0,120.0,1.0,0.0
5712,47.0,4.0,120.0,1.0,0.0
5713,57.0,15.0,15.0,0.0,0.0
5714,56.0,15.0,15.0,0.0,0.0
5715,55.0,15.0,15.0,0.0,0.0
5716,56.0,19.0,15.0,0.0,0.0
5717,57.0,45.0,30.0,0.0,0.0
5718,54.0,56.0,240.0,0.0,0.0
5719,46.0,0.0,120.0,1.0,0.0
5720,49.0,4.0,120.0,1.0,0.0
5721,66.0,15.0,15.0,0.0,0.0
5722,64.0,15.0,15.0,0.0,0.0
5723,63.0,15.0,15.0,0.0,0.0
5724,64.0,26.0,15.0,0.0,0.0
5725,66.0,107.0,30.0,0.0,0.0
5726,63.0,2.0,240.0,0.0,0.0
5727,51.0,2.0,120.0,1.0,0.0
5728,48.0,0.0,120.0,1.0,0.0
5729,44.0,5.0,120.0,1.0,0.0
5730,48.0,4.0,120.0,1.0,0.0
5731,56.0,15.0,15.0,0.0,0.0
5732,54.0,15.0,15.0,0.0,0.0
5733,53.0,15.0,15.0,0.0,0.0
5734,54.0,19.0,15.0,0.0,0.0
5735,56.0,45.0,30.0,0.0,0.0
5736,52.0,6.0,330.0,0.0,0.0
5737,44.0,1.0,420.0,1.0,0.0
5738,49.0,18.0,420.0,1.0,0.0
5739,64.0,15.0,15.0,0.0,0.0
5740,63.0,1.0,15.0,0.0,0.0
5741,61.0,15.0,15.0,0.0,0.0
5742,63.0,30.0,15.0,0.0,0.0
5743,64.0,111.0,30.0,0.0,0.0
5744,43.0,5.0,240.0,1.0,0.0
5745,33.0,112.0,120.0,1.0,0.0
5746,61.0,5.0,240.0,0.0,0.0
5747,34.0,66.0,120.0,1.0,0.0
5748,32.0,36.0,90.0,1.0,0.0
5749,49.0,15.0,30.0,0.0,0.0
5750,52.0,15.0,15.0,0.0,0.0
5751,51.0,15.0,15.0,0.0,0.0
5752,52.0,15.0,15.0,0.0,0.0
5753,51.0,15.0,15.0,0.0,0.0
5754,52.0,15.0,15.0,0.0,0.0
5755,51.0,15.0,15.0,0.0,0.0
5756,52.0,15.0,15.0,0.0,0.0
5757,51.0,15.0,15.0,0.0,0.0
5758,32.0,2.0,120.0,1.0,0.0
5759,44.0,68.0,180.0,1.0,0.0
5760,52.0,15.0,15.0,0.0,0.0
5761,51.0,15.0,15.0,0.0,0.0
5762,52.0,15.0,15.0,0.0,0.0
5763,51.0,15.0,15.0,0.0,0.0
5764,52.0,15.0,15.0,0.0,0.0
5765,51.0,15.0,15.0,0.0,0.0
5766,49.0,13.0,15.0,0.0,0.0
5767,51.0,54.0,15.0,0.0,0.0
5768,61.0,48.0,120.0,0.0,0.0
5769,33.0,13.0,240.0,1.0,0.0
5770,49.0,3.0,120.0,0.0,0.0
5771,47.0,5.0,60.0,1.0,0.0
5772,45.0,53.0,60.0,1.0,0.0
5773,44.0,54.0,60.0,1.0,0.0
5774,49.0,62.0,180.0,0.0,0.0
5775,34.0,6.0,120.0,1.0,0.0
5776,42.0,62.0,60.0,1.0,0.0
5777,40.0,50.0,60.0,1.0,0.0
5778,39.0,8.0,570.0,1.0,0.0
5779,35.0,9.0,330.0,1.0,0.0
5780,52.0,51.0,60.0,0.0,0.0
5781,51.0,63.0,60.0,0.0,0.0
5782,49.0,58.0,60.0,0.0,0.0
5783,47.0,54.0,60.0,0.0,0.0
5784,54.0,57.0,180.0,0.0,0.0
5785,45.0,61.0,60.0,0.0,0.0
5786,44.0,32.0,750.0,0.0,0.0
5787,36.0,3.0,360.0,1.0,0.0
5788,57.0,63.0,60.0,0.0,0.0
5789,56.0,51.0,60.0,0.0,0.0
5790,54.0,65.0,60.0,0.0,0.0
5791,63.0,67.0,180.0,0.0,0.0
5792,52.0,57.0,60.0,0.0,0.0
5793,42.0,50.0,120.0,1.0,0.0
5794,51.0,5.0,60.0,0.0,0.0
5795,52.0,0.0,210.0,0.0,0.0
5796,37.0,12.0,210.0,1.0,0.0
5797,40.0,0.0,210.0,1.0,0.0
5798,66.0,53.0,60.0,0.0,0.0
5799,64.0,48.0,60.0,0.0,0.0
5800,63.0,53.0,60.0,0.0,0.0
5801,51.0,3.0,120.0,0.0,0.0
5802,61.0,65.0,60.0,0.0,0.0
5803,39.0,16.0,120.0,1.0,0.0
5804,42.0,3.0,120.0,1.0,0.0
5805,60.0,10.0,60.0,0.0,0.0
5806,49.0,45.0,90.0,0.0,0.0
5807,61.0,3.0,60.0,0.0,0.0
5808,40.0,13.0,60.0,1.0,0.0
5809,62.0,2.0,60.0,0.0,0.0
5810,59.0,2.0,60.0,0.0,0.0
5811,44.0,2.0,60.0,1.0,0.0
5812,41.0,47.0,60.0,1.0,0.0
5813,61.0,3.0,60.0,0.0,0.0
5814,57.0,5.0,60.0,0.0,0.0
5815,42.0,53.0,60.0,1.0,0.0
5816,45.0,4.0,60.0,1.0,0.0
5817,56.0,6.0,60.0,0.0,0.0
5818,59.0,2.0,60.0,0.0,0.0
5819,44.0,47.0,60.0,1.0,0.0
5820,47.0,4.0,60.0,1.0,0.0
5821,54.0,2.0,60.0,0.0,0.0
5822,57.0,3.0,60.0,0.0,0.0
5823,49.0,44.0,60.0,1.0,0.0
5824,45.0,0.0,60.0,1.0,0.0
5825,56.0,13.0,60.0,0.0,0.0
5826,53.0,9.0,30.0,0.0,0.0
5827,50.0,46.0,60.0,1.0,0.0
5828,47.0,5.0,60.0,1.0,0.0
5829,57.0,55.0,60.0,0.0,0.0
5830,54.0,2.0,60.0,0.0,0.0
5831,49.0,1.0,60.0,1.0,0.0
5832,45.0,5.0,60.0,1.0,0.0
5833,66.0,1.0,60.0,0.0,0.0
5834,69.0,0.0,60.0,0.0,0.0
5835,51.0,2.0,60.0,1.0,0.0
5836,48.0,53.0,60.0,1.0,0.0
5837,68.0,59.0,60.0,0.0,0.0
5838,64.0,0.0,60.0,0.0,0.0
5839,52.0,4.0,60.0,1.0,0.0
5840,49.0,1.0,60.0,1.0,0.0
5841,66.0,0.0,60.0,0.0,0.0
5842,63.0,3.0,60.0,0.0,0.0
5843,54.0,1.0,60.0,1.0,0.0
5844,51.0,54.0,60.0,1.0,0.0
5845,64.0,48.0,60.0,0.0,0.0
5846,61.0,2.0,60.0,0.0,0.0
5847,52.0,1.0,60.0,1.0,0.0
5848,56.0,1.0,60.0,1.0,0.0
5849,60.0,8.0,60.0,0.0,0.0
5850,63.0,2.0,60.0,0.0,0.0
5851,54.0,50.0,60.0,1.0,0.0
5852,57.0,6.0,60.0,1.0,0.0
5853,61.0,4.0,60.0,0.0,0.0
5854,64.0,2.0,60.0,0.0,0.0
5855,55.0,4.0,60.0,1.0,0.0
5856,58.0,52.0,60.0,1.0,0.0
5857,52.0,2.0,120.0,0.0,0.0
5858,55.0,59.0,60.0,0.0,0.0
5859,49.0,57.0,120.0,1.0,0.0
5860,46.0,2.0,60.0,1.0,0.0
5861,56.0,8.0,300.0,0.0,0.0
5862,44.0,2.0,180.0,1.0,0.0
5863,53.0,58.0,60.0,0.0,0.0
5864,50.0,1.0,60.0,1.0,0.0
5865,54.0,2.0,60.0,0.0,0.0
5866,51.0,51.0,60.0,1.0,0.0
5867,48.0,55.0,60.0,0.0,0.0
5868,42.0,6.0,60.0,1.0,0.0
5869,49.0,32.0,60.0,0.0,0.0
5870,41.0,8.0,60.0,1.0,0.0
5871,37.0,18.0,90.0,1.0,0.0
5872,41.0,58.0,60.0,1.0,0.0
5873,44.0,67.0,60.0,1.0,0.0
5874,49.0,50.0,60.0,1.0,0.0
5875,44.0,59.0,60.0,1.0,0.0
5876,53.0,3.0,120.0,1.0,0.0
5877,56.0,3.0,120.0,0.0,0.0
5878,59.0,2.0,120.0,0.0,0.0
5879,41.0,65.0,60.0,1.0,0.0
5880,54.0,1.0,60.0,0.0,0.0
5881,57.0,39.0,90.0,0.0,0.0
5882,49.0,2.0,90.0,1.0,0.0
5883,37.0,15.0,60.0,1.0,0.0
5884,42.0,57.0,60.0,1.0,0.0
5885,46.0,62.0,60.0,1.0,0.0
5886,49.0,55.0,60.0,1.0,0.0
5887,51.0,59.0,60.0,1.0,0.0
5888,60.0,6.0,120.0,0.0,0.0
5889,46.0,1.0,60.0,1.0,0.0
5890,56.0,3.0,180.0,0.0,0.0
5891,42.0,58.0,60.0,1.0,0.0
5892,54.0,2.0,60.0,1.0,0.0
5893,61.0,16.0,60.0,0.0,0.0
5894,37.0,2.0,60.0,1.0,0.0
5895,53.0,38.0,90.0,1.0,0.0
5896,41.0,61.0,60.0,1.0,0.0
5897,44.0,59.0,60.0,1.0,0.0
5898,49.0,68.0,60.0,1.0,0.0
5899,62.0,5.0,90.0,0.0,0.0
5900,65.0,8.0,90.0,0.0,0.0
5901,44.0,22.0,60.0,1.0,0.0
5902,59.0,3.0,90.0,1.0,0.0
5903,41.0,12.0,30.0,1.0,0.0
5904,61.0,1.0,20.0,0.0,0.0
5905,66.0,25.0,20.0,0.0,0.0
5906,58.0,19.0,30.0,1.0,0.0
5907,37.0,66.0,60.0,1.0,0.0
5908,56.0,10.0,20.0,1.0,0.0
5909,66.0,4.0,30.0,0.0,0.0
5910,61.0,2.0,30.0,0.0,0.0
5911,42.0,58.0,60.0,1.0,0.0
5912,46.0,59.0,60.0,1.0,0.0
5913,49.0,54.0,60.0,1.0,0.0
5914,51.0,1.0,60.0,1.0,0.0
5915,57.0,13.0,90.0,0.0,0.0
5916,42.0,35.0,60.0,1.0,0.0
5917,60.0,6.0,90.0,0.0,0.0
5918,39.0,3.0,60.0,1.0,0.0
5919,54.0,53.0,60.0,1.0,0.0
5920,61.0,2.0,20.0,0.0,0.0
5921,56.0,8.0,20.0,0.0,0.0
5922,61.0,5.0,180.0,0.0,0.0
5923,52.0,8.0,60.0,1.0,0.0
5924,37.0,32.0,750.0,1.0,0.0
5925,56.0,50.0,60.0,0.0,0.0
5926,54.0,51.0,60.0,1.0,0.0
5927,57.0,8.0,60.0,0.0,0.0
5928,56.0,3.0,60.0,0.0,0.0
5929,52.0,56.0,60.0,1.0,0.0
5930,57.0,5.0,60.0,0.0,0.0
5931,60.0,1.0,60.0,0.0,0.0
5932,54.0,53.0,60.0,1.0,0.0
5933,61.0,1.0,60.0,0.0,0.0
5934,56.0,3.0,60.0,0.0,0.0
5935,52.0,54.0,60.0,1.0,0.0
5936,57.0,8.0,60.0,0.0,0.0
5937,60.0,52.0,60.0,0.0,0.0
5938,54.0,1.0,60.0,1.0,0.0
5939,56.0,58.0,60.0,0.0,0.0
5940,61.0,0.0,180.0,0.0,0.0
5941,52.0,7.0,60.0,1.0,0.0
5942,54.0,55.0,60.0,0.0,0.0
5943,51.0,1.0,60.0,1.0,0.0
5944,49.0,1.0,60.0,1.0,0.0
5945,52.0,60.0,60.0,0.0,0.0
5946,51.0,1.0,60.0,0.0,0.0
5947,48.0,51.0,60.0,1.0,0.0
5948,57.0,3.0,60.0,0.0,0.0
5949,52.0,4.0,60.0,0.0,0.0
5950,56.0,4.0,60.0,0.0,0.0
5951,49.0,58.0,60.0,1.0,0.0
5952,51.0,4.0,60.0,0.0,0.0
5953,57.0,2.0,60.0,0.0,0.0
5954,48.0,18.0,60.0,1.0,0.0
5955,52.0,1.0,60.0,0.0,0.0
5956,56.0,2.0,180.0,0.0,0.0
5957,49.0,64.0,60.0,1.0,0.0
5958,54.0,50.0,60.0,0.0,0.0
5959,36.0,1.0,60.0,1.0,0.0
5960,51.0,2.0,60.0,1.0,0.0
5961,52.0,2.0,60.0,0.0,0.0
5962,37.0,54.0,60.0,1.0,0.0
5963,49.0,2.0,60.0,1.0,0.0
5964,51.0,4.0,60.0,0.0,0.0
5965,54.0,3.0,60.0,0.0,0.0
5966,48.0,55.0,60.0,1.0,0.0
5967,32.0,1.0,60.0,1.0,0.0
5968,49.0,2.0,60.0,0.0,0.0
5969,52.0,1.0,60.0,0.0,0.0
5970,37.0,35.0,60.0,1.0,0.0
5971,51.0,62.0,60.0,0.0,0.0
5972,48.0,9.0,60.0,0.0,0.0
5973,32.0,12.0,30.0,1.0,0.0
5974,42.0,6.0,15.0,1.0,0.0
5975,37.0,7.0,60.0,1.0,0.0
5976,40.0,1.0,60.0,1.0,0.0
5977,49.0,46.0,60.0,0.0,0.0
5978,45.0,58.0,60.0,0.0,0.0
5979,42.0,0.0,60.0,1.0,0.0
5980,44.0,1.0,60.0,0.0,0.0
5981,40.0,8.0,60.0,1.0,0.0
5982,37.0,7.0,60.0,1.0,0.0
5983,49.0,45.0,60.0,0.0,0.0
5984,42.0,9.0,60.0,1.0,0.0
5985,45.0,52.0,60.0,0.0,0.0
5986,37.0,10.0,60.0,1.0,0.0
5987,40.0,2.0,60.0,1.0,0.0
5988,49.0,47.0,60.0,0.0,0.0
5989,44.0,2.0,60.0,0.0,0.0
5990,45.0,4.0,60.0,0.0,0.0
5991,42.0,236.0,60.0,1.0,0.0
5992,44.0,120.0,240.0,0.0,0.0
5993,37.0,3.0,240.0,1.0,0.0
5994,40.0,0.0,240.0,1.0,0.0
5995,49.0,1.0,240.0,0.0,0.0
