,note,step,duration,channel,velocity
0,32.0,6.0,60.0,0.0,0.0
1,44.0,29.0,60.0,0.0,0.0
2,44.0,40.0,150.0,1.0,0.0
3,72.0,1.0,330.0,0.0,0.0
4,68.0,2.0,330.0,0.0,0.0
5,80.0,52.0,330.0,0.0,0.0
6,75.0,0.0,330.0,0.0,0.0
7,51.0,2.0,150.0,1.0,0.0
8,68.0,7.0,150.0,1.0,0.0
9,60.0,2.0,150.0,1.0,0.0
10,48.0,16.0,30.0,0.0,0.0
11,51.0,26.0,20.0,0.0,0.0
12,56.0,4.0,20.0,0.0,0.0
13,44.0,3.0,15.0,0.0,0.0
14,60.0,0.0,30.0,1.0,0.0
15,68.0,3.0,30.0,1.0,0.0
16,44.0,1.0,30.0,1.0,0.0
17,51.0,47.0,30.0,1.0,0.0
18,56.0,7.0,15.0,0.0,0.0
19,44.0,2.0,15.0,0.0,0.0
20,60.0,0.0,90.0,1.0,0.0
21,44.0,0.0,90.0,1.0,0.0
22,68.0,1.0,90.0,1.0,0.0
23,51.0,2.0,90.0,1.0,0.0
24,56.0,57.0,15.0,0.0,0.0
25,44.0,3.0,15.0,0.0,0.0
26,56.0,8.0,15.0,0.0,0.0
27,56.0,58.0,20.0,0.0,0.0
28,56.0,60.0,20.0,0.0,0.0
29,56.0,60.0,20.0,0.0,0.0
30,60.0,31.0,90.0,0.0,0.0
31,56.0,22.0,20.0,0.0,0.0
32,63.0,8.0,30.0,0.0,0.0
33,56.0,49.0,20.0,0.0,0.0
34,61.0,6.0,60.0,0.0,0.0
35,60.0,32.0,30.0,0.0,0.0
36,56.0,16.0,15.0,0.0,0.0
37,61.0,17.0,30.0,0.0,0.0
38,56.0,6.0,20.0,0.0,0.0
39,63.0,55.0,30.0,0.0,0.0
40,56.0,63.0,20.0,0.0,0.0
41,56.0,53.0,20.0,0.0,0.0
42,60.0,15.0,120.0,0.0,0.0
43,56.0,40.0,15.0,0.0,0.0
44,56.0,54.0,20.0,0.0,0.0
45,61.0,5.0,15.0,0.0,0.0
46,65.0,5.0,15.0,0.0,0.0
47,56.0,60.0,15.0,0.0,0.0
48,56.0,58.0,20.0,0.0,0.0
49,73.0,3.0,15.0,0.0,0.0
50,65.0,1.0,15.0,0.0,0.0
51,56.0,55.0,15.0,0.0,0.0
52,70.0,3.0,15.0,0.0,0.0
53,56.0,60.0,20.0,0.0,0.0
54,61.0,3.0,15.0,0.0,0.0
55,56.0,53.0,20.0,0.0,0.0
56,67.0,7.0,15.0,0.0,0.0
57,58.0,4.0,15.0,0.0,0.0
58,56.0,59.0,20.0,0.0,0.0
59,56.0,99.0,20.0,0.0,0.0
60,51.0,5.0,150.0,1.0,0.0
61,68.0,32.0,180.0,1.0,0.0
62,44.0,3.0,150.0,1.0,0.0
63,44.0,22.0,60.0,0.0,0.0
64,72.0,3.0,330.0,0.0,0.0
65,32.0,6.0,60.0,0.0,0.0
66,68.0,1.0,330.0,0.0,0.0
67,80.0,7.0,330.0,0.0,0.0
68,75.0,2.0,330.0,0.0,0.0
69,60.0,4.0,150.0,1.0,0.0
70,48.0,18.0,30.0,0.0,0.0
71,51.0,30.0,15.0,0.0,0.0
72,44.0,4.0,15.0,0.0,0.0
73,56.0,9.0,20.0,0.0,0.0
74,60.0,9.0,30.0,1.0,0.0
75,44.0,6.0,30.0,1.0,0.0
76,68.0,37.0,30.0,1.0,0.0
77,51.0,1.0,30.0,1.0,0.0
78,56.0,6.0,15.0,0.0,0.0
79,44.0,1.0,15.0,0.0,0.0
80,60.0,23.0,120.0,1.0,0.0
81,51.0,7.0,120.0,1.0,0.0
82,44.0,6.0,90.0,1.0,0.0
83,68.0,0.0,120.0,1.0,0.0
84,44.0,4.0,15.0,0.0,0.0
85,56.0,60.0,15.0,0.0,0.0
86,56.0,11.0,15.0,0.0,0.0
87,56.0,60.0,15.0,0.0,0.0
88,56.0,60.0,15.0,0.0,0.0
89,56.0,59.0,15.0,0.0,0.0
90,60.0,23.0,90.0,0.0,0.0
91,56.0,24.0,15.0,0.0,0.0
92,63.0,16.0,20.0,0.0,0.0
93,56.0,44.0,20.0,0.0,0.0
94,61.0,15.0,60.0,0.0,0.0
95,56.0,14.0,20.0,0.0,0.0
96,60.0,30.0,30.0,0.0,0.0
97,61.0,16.0,30.0,0.0,0.0
98,56.0,61.0,20.0,0.0,0.0
99,63.0,22.0,120.0,0.0,0.0
100,56.0,37.0,20.0,0.0,0.0
101,60.0,14.0,120.0,0.0,0.0
102,56.0,60.0,20.0,0.0,0.0
103,56.0,41.0,20.0,0.0,0.0
104,61.0,6.0,15.0,0.0,0.0
105,65.0,60.0,20.0,0.0,0.0
106,56.0,0.0,20.0,0.0,0.0
107,56.0,58.0,20.0,0.0,0.0
108,56.0,4.0,15.0,0.0,0.0
109,73.0,0.0,15.0,0.0,0.0
110,77.0,58.0,20.0,0.0,0.0
111,56.0,53.0,20.0,0.0,0.0
112,70.0,5.0,15.0,0.0,0.0
113,73.0,2.0,15.0,0.0,0.0
114,56.0,56.0,20.0,0.0,0.0
115,56.0,58.0,15.0,0.0,0.0
116,56.0,72.0,20.0,0.0,0.0
117,67.0,1.0,15.0,0.0,0.0
118,70.0,4.0,15.0,0.0,0.0
119,56.0,92.0,30.0,0.0,0.0
120,63.0,5.0,150.0,1.0,0.0
121,44.0,7.0,150.0,1.0,0.0
122,56.0,7.0,150.0,1.0,0.0
123,72.0,29.0,150.0,1.0,0.0
124,44.0,0.0,60.0,0.0,0.0
125,32.0,6.0,60.0,0.0,0.0
126,68.0,19.0,90.0,0.0,0.0
127,75.0,7.0,60.0,0.0,0.0
128,72.0,1.0,60.0,0.0,0.0
129,80.0,1.0,60.0,0.0,0.0
130,48.0,13.0,30.0,0.0,0.0
131,51.0,31.0,20.0,0.0,0.0
132,44.0,0.0,20.0,0.0,0.0
133,56.0,2.0,20.0,0.0,0.0
134,60.0,8.0,60.0,0.0,0.0
135,56.0,1.0,30.0,1.0,0.0
136,44.0,7.0,30.0,1.0,0.0
137,63.0,3.0,30.0,1.0,0.0
138,56.0,4.0,20.0,0.0,0.0
139,44.0,2.0,20.0,0.0,0.0
140,72.0,26.0,30.0,1.0,0.0
141,44.0,22.0,90.0,1.0,0.0
142,63.0,5.0,90.0,1.0,0.0
143,56.0,1.0,120.0,1.0,0.0
144,60.0,5.0,60.0,0.0,0.0
145,56.0,19.0,15.0,0.0,0.0
146,44.0,52.0,20.0,0.0,0.0
147,72.0,29.0,120.0,1.0,0.0
148,56.0,4.0,20.0,0.0,0.0
149,63.0,4.0,20.0,0.0,0.0
150,44.0,2.0,90.0,0.0,0.0
151,32.0,4.0,90.0,0.0,0.0
152,68.0,38.0,20.0,0.0,0.0
153,63.0,1.0,20.0,0.0,0.0
154,63.0,3.0,60.0,1.0,0.0
155,60.0,1.0,60.0,1.0,0.0
156,56.0,7.0,60.0,1.0,0.0
157,68.0,6.0,60.0,1.0,0.0
158,60.0,3.0,30.0,0.0,0.0
159,63.0,8.0,30.0,0.0,0.0
160,68.0,4.0,20.0,0.0,0.0
161,60.0,10.0,15.0,1.0,0.0
162,60.0,21.0,30.0,0.0,0.0
163,56.0,1.0,15.0,1.0,0.0
164,68.0,11.0,20.0,1.0,0.0
165,63.0,4.0,15.0,1.0,0.0
166,60.0,7.0,120.0,1.0,0.0
167,56.0,6.0,120.0,1.0,0.0
168,56.0,5.0,90.0,0.0,0.0
169,44.0,1.0,90.0,0.0,0.0
170,68.0,32.0,30.0,0.0,0.0
171,63.0,4.0,30.0,0.0,0.0
172,63.0,4.0,90.0,1.0,0.0
173,68.0,6.0,90.0,1.0,0.0
174,60.0,16.0,30.0,0.0,0.0
175,63.0,9.0,30.0,0.0,0.0
176,68.0,3.0,30.0,0.0,0.0
177,60.0,29.0,30.0,0.0,0.0
178,72.0,21.0,30.0,0.0,0.0
179,63.0,11.0,30.0,0.0,0.0
180,72.0,13.0,60.0,1.0,0.0
181,60.0,0.0,30.0,0.0,0.0
182,63.0,1.0,30.0,0.0,0.0
183,68.0,0.0,30.0,0.0,0.0
184,44.0,0.0,15.0,0.0,0.0
185,32.0,13.0,15.0,0.0,0.0
186,68.0,11.0,30.0,1.0,0.0
187,60.0,51.0,15.0,0.0,0.0
188,55.0,3.0,60.0,1.0,0.0
189,58.0,5.0,60.0,1.0,0.0
190,70.0,0.0,120.0,1.0,0.0
191,31.0,0.0,60.0,0.0,0.0
192,43.0,0.0,60.0,0.0,0.0
193,70.0,8.0,30.0,0.0,0.0
194,75.0,23.0,30.0,0.0,0.0
195,63.0,1.0,60.0,1.0,0.0
196,63.0,18.0,30.0,0.0,0.0
197,70.0,4.0,30.0,0.0,0.0
198,46.0,7.0,30.0,0.0,0.0
199,75.0,1.0,30.0,0.0,0.0
200,55.0,0.0,20.0,1.0,0.0
201,58.0,9.0,15.0,1.0,0.0
202,51.0,8.0,30.0,0.0,0.0
203,63.0,9.0,30.0,0.0,0.0
204,63.0,7.0,15.0,1.0,0.0
205,55.0,0.0,90.0,1.0,0.0
206,58.0,6.0,90.0,1.0,0.0
207,55.0,14.0,15.0,0.0,0.0
208,43.0,2.0,15.0,0.0,0.0
209,70.0,5.0,30.0,0.0,0.0
210,75.0,30.0,30.0,0.0,0.0
211,63.0,2.0,90.0,1.0,0.0
212,63.0,9.0,30.0,0.0,0.0
213,55.0,5.0,15.0,0.0,0.0
214,75.0,17.0,30.0,0.0,0.0
215,43.0,3.0,15.0,0.0,0.0
216,70.0,1.0,30.0,0.0,0.0
217,63.0,15.0,30.0,0.0,0.0
218,55.0,5.0,30.0,1.0,0.0
219,58.0,0.0,30.0,1.0,0.0
220,67.0,20.0,60.0,1.0,0.0
221,75.0,6.0,30.0,1.0,0.0
222,70.0,3.0,30.0,0.0,0.0
223,75.0,10.0,30.0,0.0,0.0
224,55.0,1.0,20.0,0.0,0.0
225,43.0,3.0,15.0,0.0,0.0
226,63.0,9.0,30.0,0.0,0.0
227,63.0,1.0,60.0,1.0,0.0
228,58.0,41.0,60.0,1.0,0.0
229,75.0,6.0,30.0,1.0,0.0
230,55.0,2.0,30.0,1.0,0.0
231,75.0,3.0,30.0,0.0,0.0
232,70.0,4.0,30.0,0.0,0.0
233,31.0,8.0,15.0,0.0,0.0
234,43.0,1.0,15.0,0.0,0.0
235,63.0,10.0,15.0,0.0,0.0
236,53.0,10.0,210.0,1.0,0.0
237,68.0,1.0,330.0,1.0,0.0
238,75.0,16.0,150.0,1.0,0.0
239,56.0,5.0,330.0,1.0,0.0
240,80.0,33.0,30.0,0.0,0.0
241,75.0,3.0,30.0,0.0,0.0
242,41.0,12.0,120.0,0.0,0.0
243,29.0,7.0,90.0,0.0,0.0
244,68.0,21.0,30.0,0.0,0.0
245,75.0,6.0,30.0,0.0,0.0
246,80.0,9.0,30.0,0.0,0.0
247,68.0,14.0,30.0,0.0,0.0
248,80.0,0.0,30.0,0.0,0.0
249,53.0,3.0,120.0,0.0,0.0
250,41.0,18.0,120.0,0.0,0.0
251,72.0,29.0,30.0,0.0,0.0
252,72.0,0.0,120.0,1.0,0.0
253,68.0,21.0,30.0,0.0,0.0
254,72.0,27.0,30.0,0.0,0.0
255,80.0,1.0,30.0,0.0,0.0
256,68.0,11.0,30.0,0.0,0.0
257,53.0,18.0,120.0,1.0,0.0
258,80.0,33.0,30.0,0.0,0.0
259,73.0,1.0,30.0,0.0,0.0
260,73.0,2.0,90.0,1.0,0.0
261,68.0,6.0,30.0,0.0,0.0
262,41.0,2.0,15.0,0.0,0.0
263,29.0,10.0,15.0,0.0,0.0
264,73.0,14.0,30.0,0.0,0.0
265,80.0,0.0,30.0,0.0,0.0
266,68.0,29.0,30.0,0.0,0.0
267,51.0,29.0,240.0,1.0,0.0
268,68.0,11.0,360.0,1.0,0.0
269,56.0,1.0,330.0,1.0,0.0
270,80.0,25.0,30.0,0.0,0.0
271,39.0,2.0,60.0,0.0,0.0
272,27.0,5.0,60.0,0.0,0.0
273,73.0,10.0,120.0,1.0,0.0
274,73.0,1.0,30.0,0.0,0.0
275,68.0,25.0,30.0,0.0,0.0
276,44.0,5.0,30.0,0.0,0.0
277,80.0,12.0,30.0,0.0,0.0
278,73.0,1.0,30.0,0.0,0.0
279,48.0,15.0,20.0,0.0,0.0
280,68.0,2.0,30.0,0.0,0.0
281,71.0,29.0,30.0,0.0,0.0
282,80.0,5.0,30.0,0.0,0.0
283,71.0,11.0,120.0,1.0,0.0
284,39.0,6.0,15.0,0.0,0.0
285,51.0,11.0,20.0,0.0,0.0
286,68.0,6.0,30.0,0.0,0.0
287,51.0,13.0,15.0,0.0,0.0
288,71.0,3.0,30.0,0.0,0.0
289,80.0,5.0,30.0,0.0,0.0
290,39.0,3.0,15.0,0.0,0.0
291,68.0,1.0,30.0,0.0,0.0
292,51.0,5.0,120.0,1.0,0.0
293,72.0,16.0,120.0,1.0,0.0
294,51.0,12.0,20.0,0.0,0.0
295,39.0,2.0,15.0,0.0,0.0
296,72.0,30.0,30.0,0.0,0.0
297,80.0,1.0,30.0,0.0,0.0
298,68.0,12.0,30.0,0.0,0.0
299,39.0,2.0,15.0,0.0,0.0
300,72.0,16.0,30.0,0.0,0.0
301,80.0,0.0,30.0,0.0,0.0
302,27.0,11.0,15.0,0.0,0.0
303,68.0,9.0,30.0,0.0,0.0
304,49.0,5.0,30.0,1.0,0.0
305,65.0,2.0,30.0,1.0,0.0
306,56.0,0.0,30.0,1.0,0.0
307,77.0,1.0,30.0,0.0,0.0
308,70.0,3.0,30.0,0.0,0.0
309,25.0,7.0,60.0,0.0,0.0
310,37.0,5.0,90.0,0.0,0.0
311,70.0,30.0,30.0,1.0,0.0
312,68.0,7.0,30.0,0.0,0.0
313,65.0,3.0,30.0,1.0,0.0
314,49.0,1.0,30.0,1.0,0.0
315,56.0,2.0,30.0,1.0,0.0
316,70.0,33.0,30.0,1.0,0.0
317,70.0,1.0,30.0,0.0,0.0
318,77.0,1.0,30.0,0.0,0.0
319,68.0,25.0,30.0,0.0,0.0
320,49.0,1.0,150.0,1.0,0.0
321,65.0,5.0,120.0,1.0,0.0
322,56.0,1.0,90.0,1.0,0.0
323,70.0,20.0,90.0,1.0,0.0
324,37.0,5.0,120.0,0.0,0.0
325,70.0,1.0,30.0,0.0,0.0
326,49.0,0.0,120.0,0.0,0.0
327,77.0,31.0,30.0,0.0,0.0
328,68.0,26.0,30.0,0.0,0.0
329,70.0,2.0,30.0,0.0,0.0
330,77.0,4.0,30.0,0.0,0.0
331,68.0,23.0,30.0,0.0,0.0
332,56.0,6.0,90.0,1.0,0.0
333,51.0,103.0,120.0,1.0,0.0
334,63.0,0.0,120.0,1.0,0.0
335,70.0,31.0,30.0,0.0,0.0
336,51.0,2.0,120.0,0.0,0.0
337,75.0,2.0,30.0,0.0,0.0
338,39.0,2.0,120.0,0.0,0.0
339,70.0,10.0,90.0,1.0,0.0
340,68.0,25.0,30.0,0.0,0.0
341,70.0,3.0,30.0,0.0,0.0
342,75.0,4.0,30.0,0.0,0.0
343,68.0,9.0,20.0,0.0,0.0
344,53.0,1.0,120.0,1.0,0.0
345,41.0,23.0,120.0,0.0,0.0
346,74.0,147.0,150.0,0.0,0.0
347,62.0,0.0,120.0,1.0,0.0
348,53.0,0.0,120.0,0.0,0.0
349,70.0,4.0,150.0,0.0,0.0
350,68.0,8.0,150.0,0.0,0.0
351,56.0,11.0,120.0,1.0,0.0
352,70.0,2.0,120.0,1.0,0.0
353,68.0,14.0,15.0,0.0,0.0
354,70.0,18.0,15.0,0.0,0.0
355,72.0,10.0,15.0,0.0,0.0
356,74.0,15.0,15.0,0.0,0.0
357,75.0,112.0,15.0,0.0,0.0
358,53.0,4.0,120.0,1.0,0.0
359,56.0,4.0,120.0,1.0,0.0
360,62.0,0.0,120.0,1.0,0.0
361,41.0,10.0,150.0,0.0,0.0
362,53.0,127.0,180.0,0.0,0.0
363,68.0,10.0,120.0,0.0,0.0
364,70.0,0.0,120.0,0.0,0.0
365,74.0,0.0,120.0,0.0,0.0
366,70.0,28.0,120.0,1.0,0.0
367,68.0,10.0,15.0,0.0,0.0
368,70.0,10.0,15.0,0.0,0.0
369,72.0,10.0,15.0,0.0,0.0
370,73.0,10.0,15.0,0.0,0.0
371,75.0,10.0,15.0,0.0,0.0
372,77.0,10.0,15.0,0.0,0.0
373,79.0,26.0,15.0,0.0,0.0
374,53.0,2.0,240.0,1.0,0.0
375,58.0,2.0,210.0,1.0,0.0
376,68.0,8.0,210.0,1.0,0.0
377,74.0,4.0,300.0,0.0,0.0
378,80.0,15.0,300.0,0.0,0.0
379,41.0,1.0,20.0,0.0,0.0
380,53.0,56.0,20.0,0.0,0.0
381,74.0,42.0,210.0,1.0,0.0
382,41.0,58.0,20.0,0.0,0.0
383,53.0,1.0,20.0,0.0,0.0
384,53.0,57.0,20.0,0.0,0.0
385,41.0,2.0,15.0,0.0,0.0
386,53.0,6.0,20.0,0.0,0.0
387,41.0,3.0,15.0,0.0,0.0
388,53.0,4.0,120.0,1.0,0.0
389,68.0,5.0,120.0,1.0,0.0
390,41.0,41.0,20.0,0.0,0.0
391,53.0,0.0,20.0,0.0,0.0
392,58.0,20.0,90.0,1.0,0.0
393,74.0,17.0,120.0,1.0,0.0
394,53.0,12.0,20.0,0.0,0.0
395,41.0,2.0,20.0,0.0,0.0
396,51.0,8.0,300.0,1.0,0.0
397,67.0,1.0,330.0,1.0,0.0
398,51.0,1.0,20.0,0.0,0.0
399,58.0,2.0,300.0,1.0,0.0
400,39.0,10.0,20.0,0.0,0.0
401,75.0,33.0,30.0,0.0,0.0
402,79.0,0.0,30.0,0.0,0.0
403,75.0,0.0,330.0,1.0,0.0
404,70.0,16.0,30.0,0.0,0.0
405,51.0,8.0,20.0,0.0,0.0
406,75.0,17.0,30.0,0.0,0.0
407,79.0,1.0,30.0,0.0,0.0
408,39.0,2.0,20.0,0.0,0.0
409,70.0,33.0,15.0,0.0,0.0
410,70.0,2.0,30.0,0.0,0.0
411,51.0,8.0,20.0,0.0,0.0
412,75.0,30.0,30.0,0.0,0.0
413,39.0,1.0,20.0,0.0,0.0
414,67.0,19.0,30.0,0.0,0.0
415,75.0,16.0,30.0,0.0,0.0
416,51.0,7.0,20.0,0.0,0.0
417,70.0,1.0,30.0,0.0,0.0
418,39.0,1.0,20.0,0.0,0.0
419,67.0,34.0,15.0,0.0,0.0
420,51.0,8.0,20.0,0.0,0.0
421,67.0,27.0,30.0,0.0,0.0
422,70.0,2.0,30.0,0.0,0.0
423,39.0,0.0,20.0,0.0,0.0
424,63.0,9.0,30.0,0.0,0.0
425,51.0,1.0,15.0,0.0,0.0
426,39.0,6.0,15.0,0.0,0.0
427,67.0,12.0,20.0,0.0,0.0
428,70.0,1.0,20.0,0.0,0.0
429,55.0,1.0,20.0,1.0,0.0
430,63.0,0.0,20.0,1.0,0.0
431,70.0,4.0,20.0,1.0,0.0
432,51.0,3.0,15.0,1.0,0.0
433,63.0,118.0,15.0,0.0,0.0
434,55.0,10.0,120.0,1.0,0.0
435,63.0,18.0,120.0,1.0,0.0
436,70.0,2.0,150.0,1.0,0.0
437,51.0,3.0,120.0,1.0,0.0
438,51.0,1.0,120.0,0.0,0.0
439,70.0,2.0,150.0,0.0,0.0
440,39.0,5.0,120.0,0.0,0.0
441,75.0,569.0,150.0,0.0,0.0
442,63.0,5.0,150.0,0.0,0.0
443,67.0,0.0,150.0,0.0,0.0
444,63.0,366.0,360.0,0.0,0.0
445,75.0,0.0,360.0,0.0,0.0
446,72.0,343.0,360.0,0.0,0.0
447,60.0,0.0,360.0,0.0,0.0
448,41.0,2.0,360.0,1.0,0.0
449,68.0,2.0,360.0,0.0,0.0
450,56.0,10.0,360.0,0.0,0.0
451,53.0,1.0,360.0,1.0,0.0
452,61.0,8.0,360.0,1.0,0.0
453,73.0,326.0,360.0,1.0,0.0
454,37.0,17.0,360.0,1.0,0.0
455,49.0,92.0,390.0,1.0,0.0
456,77.0,7.0,330.0,0.0,0.0
457,65.0,12.0,330.0,0.0,0.0
458,58.0,3.0,360.0,1.0,0.0
459,70.0,2.0,360.0,1.0,0.0
460,39.0,3.0,360.0,1.0,0.0
461,55.0,8.0,360.0,1.0,0.0
462,67.0,114.0,360.0,1.0,0.0
463,39.0,10.0,120.0,0.0,0.0
464,51.0,0.0,360.0,1.0,0.0
465,73.0,54.0,60.0,0.0,0.0
466,70.0,0.0,60.0,0.0,0.0
467,69.0,48.0,60.0,0.0,0.0
468,72.0,7.0,60.0,0.0,0.0
469,70.0,46.0,60.0,0.0,0.0
470,73.0,9.0,60.0,0.0,0.0
471,72.0,21.0,60.0,0.0,0.0
472,75.0,19.0,30.0,0.0,0.0
473,73.0,39.0,20.0,0.0,0.0
474,70.0,1.0,20.0,0.0,0.0
475,41.0,47.0,120.0,0.0,0.0
476,41.0,2.0,240.0,1.0,0.0
477,56.0,12.0,240.0,1.0,0.0
478,53.0,1.0,180.0,1.0,0.0
479,68.0,25.0,240.0,1.0,0.0
480,68.0,6.0,60.0,0.0,0.0
481,72.0,1.0,60.0,0.0,0.0
482,67.0,12.0,60.0,0.0,0.0
483,71.0,2.0,60.0,0.0,0.0
484,68.0,34.0,20.0,0.0,0.0
485,72.0,5.0,15.0,0.0,0.0
486,37.0,1.0,120.0,1.0,0.0
487,58.0,3.0,120.0,1.0,0.0
488,53.0,72.0,120.0,1.0,0.0
489,73.0,22.0,30.0,0.0,0.0
490,77.0,21.0,60.0,0.0,0.0
491,37.0,0.0,120.0,0.0,0.0
492,65.0,6.0,60.0,1.0,0.0
493,70.0,32.0,20.0,0.0,0.0
494,73.0,1.0,20.0,0.0,0.0
495,61.0,8.0,60.0,1.0,0.0
496,56.0,8.0,360.0,1.0,0.0
497,39.0,0.0,720.0,1.0,0.0
498,51.0,21.0,510.0,0.0,0.0
499,39.0,37.0,90.0,0.0,0.0
500,51.0,92.0,360.0,1.0,0.0
501,60.0,6.0,330.0,1.0,0.0
502,72.0,3.0,60.0,0.0,0.0
503,68.0,54.0,60.0,0.0,0.0
504,71.0,9.0,60.0,0.0,0.0
505,67.0,35.0,60.0,0.0,0.0
506,68.0,0.0,30.0,0.0,0.0
507,72.0,48.0,30.0,0.0,0.0
508,75.0,23.0,60.0,0.0,0.0
509,72.0,35.0,30.0,0.0,0.0
510,72.0,6.0,20.0,0.0,0.0
511,68.0,22.0,30.0,0.0,0.0
512,58.0,5.0,360.0,1.0,0.0
513,55.0,104.0,360.0,1.0,0.0
514,39.0,10.0,90.0,0.0,0.0
515,49.0,0.0,360.0,1.0,0.0
516,70.0,37.0,60.0,0.0,0.0
517,67.0,5.0,60.0,0.0,0.0
518,66.0,4.0,60.0,0.0,0.0
519,69.0,39.0,60.0,0.0,0.0
520,67.0,1.0,30.0,0.0,0.0
521,70.0,60.0,30.0,0.0,0.0
522,73.0,29.0,60.0,0.0,0.0
523,70.0,20.0,30.0,0.0,0.0
524,67.0,32.0,30.0,0.0,0.0
525,70.0,4.0,20.0,0.0,0.0
526,56.0,4.0,120.0,1.0,0.0
527,68.0,2.0,120.0,0.0,0.0
528,44.0,7.0,120.0,1.0,0.0
529,48.0,1.0,120.0,1.0,0.0
530,56.0,1.0,120.0,0.0,0.0
531,32.0,2.0,120.0,0.0,0.0
532,44.0,100.0,120.0,0.0,0.0
533,56.0,5.0,30.0,0.0,0.0
534,44.0,8.0,20.0,0.0,0.0
535,58.0,6.0,20.0,0.0,0.0
536,46.0,5.0,20.0,0.0,0.0
537,60.0,64.0,30.0,0.0,0.0
538,48.0,13.0,15.0,0.0,0.0
539,48.0,17.0,15.0,0.0,0.0
540,49.0,16.0,20.0,0.0,0.0
541,60.0,0.0,20.0,0.0,0.0
542,51.0,98.0,150.0,0.0,0.0
543,61.0,131.0,20.0,0.0,0.0
544,63.0,2.0,150.0,0.0,0.0
545,48.0,11.0,20.0,0.0,0.0
546,61.0,1.0,20.0,0.0,0.0
547,60.0,1.0,20.0,0.0,0.0
548,49.0,13.0,20.0,0.0,0.0
549,51.0,82.0,20.0,0.0,0.0
550,63.0,0.0,20.0,0.0,0.0
551,51.0,1.0,20.0,0.0,0.0
552,65.0,8.0,15.0,0.0,0.0
553,63.0,2.0,15.0,0.0,0.0
554,53.0,48.0,30.0,0.0,0.0
555,55.0,2.0,15.0,0.0,0.0
556,67.0,7.0,15.0,0.0,0.0
557,56.0,3.0,60.0,0.0,0.0
558,68.0,11.0,60.0,0.0,0.0
559,44.0,6.0,330.0,1.0,0.0
560,51.0,0.0,330.0,1.0,0.0
561,60.0,0.0,330.0,1.0,0.0
562,68.0,28.0,330.0,1.0,0.0
563,56.0,31.0,20.0,0.0,0.0
564,44.0,4.0,15.0,0.0,0.0
565,32.0,7.0,15.0,0.0,0.0
566,31.0,5.0,15.0,0.0,0.0
567,51.0,26.0,20.0,0.0,0.0
568,32.0,3.0,20.0,0.0,0.0
569,60.0,30.0,20.0,0.0,0.0
570,44.0,1.0,20.0,0.0,0.0
571,56.0,20.0,20.0,0.0,0.0
572,63.0,30.0,20.0,0.0,0.0
573,32.0,6.0,15.0,0.0,0.0
574,44.0,1.0,20.0,0.0,0.0
575,60.0,25.0,20.0,0.0,0.0
576,32.0,3.0,15.0,0.0,0.0
577,44.0,9.0,15.0,0.0,0.0
578,68.0,39.0,30.0,0.0,0.0
579,63.0,9.0,30.0,0.0,0.0
580,44.0,4.0,20.0,0.0,0.0
581,72.0,19.0,30.0,0.0,0.0
582,32.0,4.0,15.0,0.0,0.0
583,68.0,1.0,15.0,0.0,0.0
584,73.0,12.0,240.0,1.0,0.0
585,44.0,2.0,210.0,1.0,0.0
586,53.0,2.0,240.0,1.0,0.0
587,61.0,4.0,240.0,1.0,0.0
588,32.0,5.0,15.0,0.0,0.0
589,44.0,9.0,20.0,0.0,0.0
590,61.0,34.0,30.0,0.0,0.0
591,73.0,11.0,30.0,0.0,0.0
592,44.0,9.0,20.0,0.0,0.0
593,32.0,4.0,15.0,0.0,0.0
594,61.0,22.0,30.0,0.0,0.0
595,56.0,26.0,20.0,0.0,0.0
596,44.0,32.0,20.0,0.0,0.0
597,32.0,4.0,15.0,0.0,0.0
598,65.0,0.0,20.0,0.0,0.0
599,61.0,23.0,20.0,0.0,0.0
600,32.0,2.0,15.0,0.0,0.0
601,68.0,13.0,20.0,0.0,0.0
602,44.0,2.0,20.0,0.0,0.0
603,65.0,24.0,20.0,0.0,0.0
604,55.0,7.0,120.0,1.0,0.0
605,73.0,2.0,120.0,1.0,0.0
606,44.0,4.0,90.0,1.0,0.0
607,63.0,8.0,90.0,1.0,0.0
608,73.0,36.0,20.0,0.0,0.0
609,72.0,1.0,15.0,0.0,0.0
610,44.0,4.0,20.0,0.0,0.0
611,32.0,2.0,15.0,0.0,0.0
612,68.0,16.0,30.0,0.0,0.0
613,73.0,5.0,20.0,0.0,0.0
614,79.0,2.0,15.0,0.0,0.0
615,44.0,3.0,15.0,0.0,0.0
616,32.0,0.0,15.0,0.0,0.0
617,68.0,45.0,15.0,0.0,0.0
618,44.0,23.0,120.0,1.0,0.0
619,56.0,2.0,120.0,1.0,0.0
620,72.0,4.0,90.0,1.0,0.0
621,63.0,18.0,120.0,1.0,0.0
622,44.0,0.0,30.0,0.0,0.0
623,80.0,1.0,30.0,0.0,0.0
624,72.0,1.0,30.0,0.0,0.0
625,68.0,3.0,30.0,0.0,0.0
626,32.0,46.0,30.0,0.0,0.0
627,72.0,2.0,30.0,0.0,0.0
628,75.0,9.0,30.0,0.0,0.0
629,70.0,52.0,30.0,0.0,0.0
630,73.0,5.0,20.0,0.0,0.0
631,68.0,48.0,30.0,0.0,0.0
632,72.0,8.0,15.0,0.0,0.0
633,70.0,5.0,15.0,0.0,0.0
634,67.0,59.0,20.0,0.0,0.0
635,68.0,50.0,20.0,0.0,0.0
636,65.0,2.0,15.0,0.0,0.0
637,67.0,60.0,15.0,0.0,0.0
638,39.0,4.0,60.0,0.0,0.0
639,51.0,4.0,60.0,0.0,0.0
640,63.0,1.0,15.0,0.0,0.0
641,68.0,46.0,30.0,0.0,0.0
642,80.0,5.0,20.0,0.0,0.0
643,77.0,6.0,20.0,0.0,0.0
644,79.0,6.0,15.0,0.0,0.0
645,67.0,48.0,20.0,0.0,0.0
646,75.0,1.0,15.0,0.0,0.0
647,77.0,2.0,15.0,0.0,0.0
648,65.0,56.0,15.0,0.0,0.0
649,73.0,4.0,15.0,0.0,0.0
650,63.0,0.0,15.0,0.0,0.0
651,72.0,3.0,15.0,0.0,0.0
652,75.0,55.0,15.0,0.0,0.0
653,61.0,1.0,15.0,0.0,0.0
654,73.0,93.0,15.0,0.0,0.0
655,70.0,3.0,15.0,0.0,0.0
656,72.0,94.0,120.0,0.0,0.0
657,60.0,2.0,120.0,0.0,0.0
658,68.0,1.0,120.0,0.0,0.0
659,56.0,125.0,360.0,0.0,0.0
660,44.0,68.0,60.0,0.0,0.0
661,56.0,0.0,90.0,2.0,0.0
662,63.0,3.0,90.0,2.0,0.0
663,60.0,1.0,90.0,2.0,0.0
664,68.0,115.0,90.0,2.0,0.0
665,60.0,6.0,120.0,2.0,0.0
666,63.0,2.0,120.0,2.0,0.0
667,68.0,28.0,90.0,2.0,0.0
668,56.0,3.0,120.0,2.0,0.0
669,51.0,6.0,360.0,0.0,0.0
670,58.0,7.0,150.0,2.0,0.0
671,63.0,21.0,420.0,0.0,0.0
672,61.0,3.0,150.0,2.0,0.0
673,68.0,20.0,120.0,2.0,0.0
674,51.0,21.0,150.0,2.0,0.0
675,67.0,28.0,60.0,2.0,0.0
676,58.0,9.0,30.0,2.0,0.0
677,61.0,3.0,30.0,2.0,0.0
678,65.0,102.0,60.0,2.0,0.0
679,51.0,18.0,30.0,2.0,0.0
680,58.0,5.0,120.0,2.0,0.0
681,51.0,3.0,120.0,2.0,0.0
682,61.0,62.0,120.0,2.0,0.0
683,67.0,8.0,90.0,2.0,0.0
684,68.0,0.0,120.0,2.0,0.0
685,44.0,5.0,90.0,0.0,0.0
686,32.0,1.0,120.0,0.0,0.0
687,44.0,8.0,120.0,2.0,0.0
688,56.0,2.0,90.0,2.0,0.0
689,60.0,3.0,120.0,2.0,0.0
690,68.0,10.0,30.0,0.0,0.0
691,72.0,30.0,60.0,0.0,0.0
692,68.0,30.0,60.0,0.0,0.0
693,65.0,22.0,30.0,0.0,0.0
694,67.0,46.0,30.0,0.0,0.0
695,63.0,11.0,20.0,0.0,0.0
696,62.0,53.0,30.0,0.0,0.0
697,65.0,10.0,20.0,0.0,0.0
698,60.0,40.0,30.0,0.0,0.0
699,63.0,8.0,20.0,0.0,0.0
700,62.0,67.0,15.0,0.0,0.0
701,58.0,1.0,15.0,0.0,0.0
702,46.0,1.0,120.0,0.0,0.0
703,34.0,25.0,120.0,0.0,0.0
704,72.0,1.0,20.0,0.0,0.0
705,75.0,30.0,20.0,0.0,0.0
706,63.0,1.0,20.0,0.0,0.0
707,62.0,51.0,30.0,0.0,0.0
708,74.0,8.0,20.0,0.0,0.0
709,70.0,5.0,15.0,0.0,0.0
710,60.0,48.0,30.0,0.0,0.0
711,68.0,2.0,20.0,0.0,0.0
712,72.0,7.0,20.0,0.0,0.0
713,67.0,3.0,15.0,0.0,0.0
714,58.0,52.0,20.0,0.0,0.0
715,70.0,2.0,20.0,0.0,0.0
716,56.0,92.0,20.0,0.0,0.0
717,65.0,8.0,15.0,0.0,0.0
718,68.0,0.0,15.0,0.0,0.0
719,67.0,13.0,90.0,0.0,0.0
720,55.0,105.0,90.0,0.0,0.0
721,63.0,1.0,360.0,0.0,0.0
722,39.0,29.0,60.0,0.0,0.0
723,51.0,119.0,360.0,0.0,0.0
724,63.0,121.0,90.0,2.0,0.0
725,70.0,1.0,90.0,2.0,0.0
726,55.0,4.0,90.0,2.0,0.0
727,51.0,5.0,90.0,2.0,0.0
728,55.0,3.0,120.0,2.0,0.0
729,51.0,8.0,120.0,2.0,0.0
730,70.0,5.0,120.0,2.0,0.0
731,63.0,19.0,90.0,2.0,0.0
732,68.0,23.0,210.0,2.0,0.0
733,53.0,1.0,210.0,2.0,0.0
734,46.0,6.0,210.0,2.0,0.0
735,63.0,47.0,120.0,2.0,0.0
736,58.0,3.0,360.0,0.0,0.0
737,70.0,36.0,420.0,0.0,0.0
738,62.0,34.0,60.0,2.0,0.0
739,60.0,115.0,60.0,2.0,0.0
740,53.0,0.0,120.0,2.0,0.0
741,62.0,1.0,120.0,2.0,0.0
742,46.0,65.0,120.0,2.0,0.0
743,68.0,1.0,120.0,2.0,0.0
744,51.0,3.0,90.0,2.0,0.0
745,63.0,5.0,120.0,2.0,0.0
746,67.0,3.0,120.0,2.0,0.0
747,51.0,0.0,120.0,0.0,0.0
748,39.0,0.0,120.0,0.0,0.0
749,39.0,2.0,120.0,2.0,0.0
750,68.0,23.0,60.0,0.0,0.0
751,72.0,11.0,60.0,0.0,0.0
752,67.0,32.0,30.0,0.0,0.0
753,70.0,29.0,60.0,0.0,0.0
754,65.0,13.0,30.0,0.0,0.0
755,68.0,45.0,30.0,0.0,0.0
756,63.0,29.0,30.0,0.0,0.0
757,67.0,20.0,60.0,0.0,0.0
758,65.0,8.0,15.0,0.0,0.0
759,61.0,47.0,20.0,0.0,0.0
760,39.0,13.0,120.0,0.0,0.0
761,63.0,70.0,15.0,0.0,0.0
762,60.0,2.0,15.0,0.0,0.0
763,27.0,1.0,120.0,0.0,0.0
764,68.0,33.0,30.0,0.0,0.0
765,77.0,11.0,20.0,0.0,0.0
766,80.0,2.0,20.0,0.0,0.0
767,75.0,4.0,20.0,0.0,0.0
768,67.0,48.0,30.0,0.0,0.0
769,79.0,6.0,30.0,0.0,0.0
770,77.0,7.0,20.0,0.0,0.0
771,73.0,3.0,20.0,0.0,0.0
772,65.0,47.0,30.0,0.0,0.0
773,63.0,52.0,20.0,0.0,0.0
774,72.0,1.0,15.0,0.0,0.0
775,75.0,5.0,15.0,0.0,0.0
776,73.0,62.0,15.0,0.0,0.0
777,61.0,0.0,15.0,0.0,0.0
778,70.0,3.0,15.0,0.0,0.0
779,68.0,5.0,90.0,1.0,0.0
780,60.0,11.0,90.0,1.0,0.0
781,72.0,6.0,20.0,0.0,0.0
782,60.0,47.0,30.0,0.0,0.0
783,68.0,0.0,20.0,0.0,0.0
784,44.0,1.0,90.0,1.0,0.0
785,51.0,6.0,90.0,1.0,0.0
786,32.0,2.0,20.0,0.0,0.0
787,44.0,2.0,20.0,0.0,0.0
788,44.0,1.0,20.0,0.0,0.0
789,56.0,6.0,30.0,0.0,0.0
790,32.0,3.0,15.0,0.0,0.0
791,51.0,28.0,20.0,0.0,0.0
792,68.0,4.0,90.0,1.0,0.0
793,51.0,5.0,90.0,1.0,0.0
794,60.0,18.0,90.0,1.0,0.0
795,60.0,26.0,20.0,0.0,0.0
796,44.0,2.0,15.0,0.0,0.0
797,32.0,4.0,20.0,0.0,0.0
798,44.0,5.0,90.0,1.0,0.0
799,56.0,26.0,20.0,0.0,0.0
800,63.0,0.0,20.0,0.0,0.0
801,44.0,1.0,15.0,0.0,0.0
802,32.0,1.0,15.0,0.0,0.0
803,60.0,27.0,20.0,0.0,0.0
804,51.0,2.0,120.0,1.0,0.0
805,44.0,16.0,90.0,1.0,0.0
806,68.0,8.0,90.0,1.0,0.0
807,60.0,0.0,120.0,1.0,0.0
808,68.0,42.0,30.0,0.0,0.0
809,44.0,10.0,15.0,0.0,0.0
810,32.0,1.0,15.0,0.0,0.0
811,63.0,5.0,30.0,0.0,0.0
812,32.0,3.0,15.0,0.0,0.0
813,44.0,6.0,15.0,0.0,0.0
814,72.0,1.0,20.0,0.0,0.0
815,68.0,27.0,20.0,0.0,0.0
816,73.0,26.0,210.0,1.0,0.0
817,44.0,3.0,210.0,1.0,0.0
818,61.0,4.0,240.0,1.0,0.0
819,53.0,14.0,240.0,1.0,0.0
820,44.0,10.0,15.0,0.0,0.0
821,32.0,0.0,15.0,0.0,0.0
822,73.0,10.0,30.0,0.0,0.0
823,61.0,41.0,30.0,0.0,0.0
824,61.0,16.0,30.0,0.0,0.0
825,44.0,14.0,20.0,0.0,0.0
826,32.0,2.0,20.0,0.0,0.0
827,56.0,29.0,20.0,0.0,0.0
828,44.0,3.0,20.0,0.0,0.0
829,65.0,29.0,20.0,0.0,0.0
830,32.0,1.0,20.0,0.0,0.0
831,61.0,26.0,20.0,0.0,0.0
832,68.0,0.0,20.0,0.0,0.0
833,32.0,2.0,20.0,0.0,0.0
834,44.0,2.0,20.0,0.0,0.0
835,65.0,10.0,30.0,0.0,0.0
836,44.0,2.0,90.0,1.0,0.0
837,73.0,0.0,120.0,1.0,0.0
838,63.0,16.0,90.0,1.0,0.0
839,55.0,44.0,120.0,1.0,0.0
840,32.0,6.0,20.0,0.0,0.0
841,70.0,33.0,30.0,0.0,0.0
842,73.0,1.0,30.0,0.0,0.0
843,44.0,1.0,20.0,0.0,0.0
844,68.0,18.0,30.0,0.0,0.0
845,44.0,4.0,20.0,0.0,0.0
846,79.0,2.0,20.0,0.0,0.0
847,73.0,4.0,30.0,0.0,0.0
848,32.0,2.0,20.0,0.0,0.0
849,68.0,12.0,20.0,0.0,0.0
850,63.0,2.0,120.0,1.0,0.0
851,44.0,121.0,120.0,1.0,0.0
852,72.0,22.0,90.0,1.0,0.0
853,56.0,7.0,90.0,1.0,0.0
854,80.0,2.0,60.0,0.0,0.0
855,72.0,5.0,60.0,0.0,0.0
856,68.0,25.0,60.0,0.0,0.0
857,32.0,2.0,30.0,0.0,0.0
858,44.0,1.0,60.0,0.0,0.0
859,56.0,8.0,20.0,0.0,0.0
860,44.0,7.0,30.0,0.0,0.0
861,58.0,13.0,20.0,0.0,0.0
862,46.0,1.0,20.0,0.0,0.0
863,48.0,11.0,20.0,0.0,0.0
864,60.0,81.0,30.0,0.0,0.0
865,48.0,10.0,20.0,0.0,0.0
866,60.0,5.0,20.0,0.0,0.0
867,61.0,1.0,15.0,0.0,0.0
868,49.0,62.0,20.0,0.0,0.0
869,63.0,160.0,90.0,0.0,0.0
870,51.0,6.0,60.0,0.0,0.0
871,60.0,6.0,30.0,0.0,0.0
872,48.0,6.0,30.0,0.0,0.0
873,61.0,11.0,20.0,0.0,0.0
874,49.0,0.0,20.0,0.0,0.0
875,51.0,63.0,20.0,0.0,0.0
876,63.0,1.0,20.0,0.0,0.0
877,63.0,11.0,20.0,0.0,0.0
878,51.0,5.0,20.0,0.0,0.0
879,65.0,11.0,20.0,0.0,0.0
880,53.0,7.0,20.0,0.0,0.0
881,67.0,5.0,15.0,0.0,0.0
882,55.0,45.0,15.0,0.0,0.0
883,68.0,1.0,60.0,1.0,0.0
884,63.0,24.0,60.0,1.0,0.0
885,44.0,5.0,90.0,0.0,0.0
886,56.0,1.0,60.0,1.0,0.0
887,68.0,3.0,60.0,0.0,0.0
888,63.0,6.0,60.0,0.0,0.0
889,56.0,2.0,90.0,0.0,0.0
890,60.0,1.0,60.0,1.0,0.0
891,60.0,9.0,30.0,0.0,0.0
892,68.0,0.0,15.0,0.0,0.0
893,63.0,0.0,15.0,0.0,0.0
894,56.0,4.0,15.0,1.0,0.0
895,60.0,1.0,15.0,0.0,0.0
896,60.0,5.0,15.0,1.0,0.0
897,68.0,36.0,20.0,1.0,0.0
898,63.0,1.0,15.0,1.0,0.0
899,56.0,4.0,240.0,1.0,0.0
900,60.0,19.0,240.0,1.0,0.0
901,68.0,27.0,90.0,1.0,0.0
902,68.0,34.0,30.0,0.0,0.0
903,63.0,3.0,90.0,1.0,0.0
904,63.0,4.0,30.0,0.0,0.0
905,44.0,4.0,120.0,0.0,0.0
906,32.0,24.0,120.0,0.0,0.0
907,60.0,17.0,30.0,0.0,0.0
908,63.0,8.0,20.0,0.0,0.0
909,68.0,1.0,20.0,0.0,0.0
910,60.0,2.0,30.0,0.0,0.0
911,63.0,30.0,30.0,0.0,0.0
912,68.0,0.0,30.0,0.0,0.0
913,60.0,21.0,30.0,0.0,0.0
914,63.0,2.0,20.0,0.0,0.0
915,68.0,21.0,20.0,0.0,0.0
916,44.0,0.0,30.0,0.0,0.0
917,32.0,8.0,15.0,0.0,0.0
918,60.0,5.0,30.0,0.0,0.0
919,52.0,1.0,150.0,1.0,0.0
920,67.0,33.0,150.0,1.0,0.0
921,72.0,0.0,150.0,1.0,0.0
922,28.0,18.0,60.0,0.0,0.0
923,58.0,5.0,150.0,1.0,0.0
924,40.0,7.0,30.0,0.0,0.0
925,72.0,2.0,30.0,0.0,0.0
926,67.0,6.0,20.0,0.0,0.0
927,70.0,12.0,30.0,0.0,0.0
928,60.0,7.0,30.0,0.0,0.0
929,70.0,0.0,30.0,0.0,0.0
930,72.0,15.0,30.0,0.0,0.0
931,67.0,3.0,20.0,0.0,0.0
932,43.0,12.0,15.0,0.0,0.0
933,48.0,24.0,15.0,0.0,0.0
934,60.0,7.0,30.0,0.0,0.0
935,67.0,0.0,30.0,0.0,0.0
936,72.0,0.0,30.0,0.0,0.0
937,70.0,1.0,30.0,0.0,0.0
938,52.0,9.0,15.0,0.0,0.0
939,40.0,1.0,15.0,0.0,0.0
940,60.0,6.0,30.0,0.0,0.0
941,58.0,0.0,60.0,1.0,0.0
942,52.0,1.0,30.0,1.0,0.0
943,72.0,2.0,30.0,1.0,0.0
944,67.0,26.0,60.0,1.0,0.0
945,40.0,14.0,15.0,0.0,0.0
946,70.0,6.0,30.0,0.0,0.0
947,67.0,1.0,30.0,0.0,0.0
948,72.0,2.0,30.0,0.0,0.0
949,52.0,1.0,15.0,0.0,0.0
950,60.0,11.0,30.0,0.0,0.0
951,52.0,7.0,120.0,1.0,0.0
952,67.0,6.0,120.0,1.0,0.0
953,58.0,34.0,120.0,1.0,0.0
954,72.0,4.0,90.0,1.0,0.0
955,40.0,13.0,15.0,0.0,0.0
956,70.0,34.0,30.0,0.0,0.0
957,67.0,2.0,30.0,0.0,0.0
958,72.0,0.0,30.0,0.0,0.0
959,52.0,3.0,30.0,0.0,0.0
960,60.0,9.0,30.0,0.0,0.0
961,70.0,1.0,30.0,0.0,0.0
962,72.0,0.0,30.0,0.0,0.0
963,67.0,9.0,30.0,0.0,0.0
964,28.0,3.0,20.0,0.0,0.0
965,40.0,8.0,15.0,0.0,0.0
966,60.0,3.0,15.0,0.0,0.0
967,53.0,4.0,60.0,1.0,0.0
968,56.0,6.0,60.0,1.0,0.0
969,29.0,1.0,90.0,0.0,0.0
970,41.0,5.0,90.0,0.0,0.0
971,72.0,4.0,30.0,0.0,0.0
972,77.0,31.0,30.0,0.0,0.0
973,72.0,10.0,60.0,1.0,0.0
974,68.0,0.0,30.0,0.0,0.0
975,72.0,4.0,30.0,0.0,0.0
976,77.0,1.0,30.0,0.0,0.0
977,65.0,1.0,15.0,1.0,0.0
978,53.0,4.0,15.0,1.0,0.0
979,56.0,7.0,15.0,1.0,0.0
980,68.0,20.0,30.0,0.0,0.0
981,60.0,19.0,15.0,1.0,0.0
982,65.0,5.0,120.0,1.0,0.0
983,53.0,8.0,120.0,1.0,0.0
984,56.0,3.0,120.0,1.0,0.0
985,60.0,1.0,120.0,1.0,0.0
986,41.0,12.0,150.0,0.0,0.0
987,77.0,2.0,30.0,0.0,0.0
988,53.0,10.0,120.0,0.0,0.0
989,72.0,32.0,30.0,0.0,0.0
990,68.0,27.0,30.0,0.0,0.0
991,77.0,5.0,30.0,0.0,0.0
992,72.0,13.0,30.0,0.0,0.0
993,68.0,7.0,30.0,0.0,0.0
994,77.0,0.0,30.0,0.0,0.0
995,72.0,26.0,30.0,0.0,0.0
996,68.0,26.0,30.0,0.0,0.0
997,72.0,2.0,30.0,0.0,0.0
998,77.0,0.0,30.0,0.0,0.0
999,29.0,4.0,15.0,0.0,0.0
1000,41.0,10.0,15.0,0.0,0.0
1001,68.0,43.0,15.0,0.0,0.0
1002,65.0,32.0,150.0,1.0,0.0
1003,70.0,2.0,150.0,1.0,0.0
1004,50.0,2.0,150.0,1.0,0.0
1005,56.0,2.0,150.0,1.0,0.0
1006,38.0,9.0,60.0,0.0,0.0
1007,77.0,1.0,30.0,0.0,0.0
1008,80.0,6.0,30.0,0.0,0.0
1009,82.0,31.0,30.0,0.0,0.0
1010,26.0,9.0,60.0,0.0,0.0
1011,70.0,2.0,30.0,0.0,0.0
1012,82.0,1.0,30.0,0.0,0.0
1013,77.0,4.0,20.0,0.0,0.0
1014,80.0,9.0,30.0,0.0,0.0
1015,41.0,7.0,30.0,0.0,0.0
1016,46.0,23.0,20.0,0.0,0.0
1017,70.0,4.0,30.0,0.0,0.0
1018,38.0,1.0,15.0,0.0,0.0
1019,50.0,14.0,15.0,0.0,0.0
1020,82.0,0.0,30.0,0.0,0.0
1021,77.0,1.0,30.0,0.0,0.0
1022,80.0,2.0,30.0,0.0,0.0
1023,70.0,7.0,30.0,0.0,0.0
1024,70.0,0.0,30.0,1.0,0.0
1025,56.0,4.0,30.0,1.0,0.0
1026,50.0,2.0,30.0,1.0,0.0
1027,65.0,1.0,30.0,1.0,0.0
1028,80.0,1.0,30.0,0.0,0.0
1029,82.0,27.0,30.0,0.0,0.0
1030,77.0,2.0,30.0,0.0,0.0
1031,50.0,1.0,15.0,0.0,0.0
1032,38.0,11.0,15.0,0.0,0.0
1033,70.0,13.0,30.0,0.0,0.0
1034,56.0,23.0,120.0,1.0,0.0
1035,50.0,7.0,120.0,1.0,0.0
1036,70.0,8.0,90.0,1.0,0.0
1037,65.0,4.0,120.0,1.0,0.0
1038,80.0,1.0,30.0,0.0,0.0
1039,82.0,30.0,30.0,0.0,0.0
1040,38.0,3.0,15.0,0.0,0.0
1041,50.0,13.0,20.0,0.0,0.0
1042,77.0,2.0,30.0,0.0,0.0
1043,70.0,4.0,30.0,0.0,0.0
1044,77.0,2.0,30.0,0.0,0.0
1045,38.0,6.0,20.0,0.0,0.0
1046,80.0,0.0,30.0,0.0,0.0
1047,26.0,3.0,15.0,0.0,0.0
1048,82.0,14.0,30.0,0.0,0.0
1049,70.0,11.0,20.0,0.0,0.0
1050,51.0,2.0,120.0,1.0,0.0
1051,55.0,13.0,90.0,1.0,0.0
1052,63.0,8.0,120.0,1.0,0.0
1053,75.0,34.0,30.0,0.0,0.0
1054,79.0,3.0,30.0,0.0,0.0
1055,39.0,1.0,90.0,0.0,0.0
1056,27.0,5.0,90.0,0.0,0.0
1057,70.0,30.0,120.0,1.0,0.0
1058,70.0,20.0,30.0,0.0,0.0
1059,79.0,0.0,30.0,0.0,0.0
1060,75.0,6.0,30.0,0.0,0.0
1061,70.0,3.0,20.0,0.0,0.0
1062,58.0,5.0,90.0,1.0,0.0
1063,51.0,4.0,120.0,1.0,0.0
1064,51.0,1.0,90.0,0.0,0.0
1065,39.0,3.0,90.0,0.0,0.0
1066,63.0,4.0,90.0,1.0,0.0
1067,55.0,21.0,120.0,1.0,0.0
1068,79.0,1.0,30.0,0.0,0.0
1069,75.0,16.0,30.0,0.0,0.0
1070,70.0,34.0,20.0,0.0,0.0
1071,70.0,2.0,30.0,0.0,0.0
1072,75.0,9.0,30.0,0.0,0.0
1073,67.0,13.0,15.0,0.0,0.0
1074,70.0,40.0,30.0,0.0,0.0
1075,67.0,1.0,30.0,0.0,0.0
1076,63.0,17.0,30.0,0.0,0.0
1077,67.0,28.0,20.0,0.0,0.0
1078,70.0,0.0,20.0,0.0,0.0
1079,63.0,31.0,20.0,0.0,0.0
1080,60.0,10.0,120.0,1.0,0.0
1081,44.0,24.0,240.0,1.0,0.0
1082,65.0,1.0,120.0,1.0,0.0
1083,44.0,3.0,60.0,0.0,0.0
1084,75.0,3.0,20.0,0.0,0.0
1085,72.0,34.0,30.0,0.0,0.0
1086,32.0,5.0,60.0,0.0,0.0
1087,65.0,21.0,30.0,0.0,0.0
1088,72.0,24.0,30.0,0.0,0.0
1089,75.0,2.0,30.0,0.0,0.0
1090,65.0,24.0,30.0,0.0,0.0
1091,63.0,3.0,90.0,1.0,0.0
1092,53.0,6.0,90.0,1.0,0.0
1093,32.0,3.0,90.0,0.0,0.0
1094,44.0,6.0,60.0,0.0,0.0
1095,72.0,34.0,30.0,0.0,0.0
1096,75.0,3.0,30.0,0.0,0.0
1097,72.0,8.0,120.0,1.0,0.0
1098,65.0,9.0,30.0,0.0,0.0
1099,75.0,0.0,30.0,0.0,0.0
1100,72.0,23.0,30.0,0.0,0.0
1101,65.0,2.0,30.0,0.0,0.0
1102,53.0,1.0,90.0,1.0,0.0
1103,63.0,2.0,90.0,1.0,0.0
1104,46.0,4.0,120.0,1.0,0.0
1105,70.0,33.0,30.0,0.0,0.0
1106,46.0,13.0,60.0,0.0,0.0
1107,34.0,7.0,90.0,0.0,0.0
1108,75.0,2.0,30.0,0.0,0.0
1109,70.0,39.0,120.0,1.0,0.0
1110,65.0,4.0,30.0,0.0,0.0
1111,70.0,1.0,30.0,0.0,0.0
1112,75.0,15.0,30.0,0.0,0.0
1113,65.0,8.0,20.0,0.0,0.0
1114,48.0,97.0,90.0,1.0,0.0
1115,53.0,5.0,90.0,1.0,0.0
1116,63.0,1.0,90.0,1.0,0.0
1117,69.0,3.0,90.0,1.0,0.0
1118,69.0,3.0,30.0,0.0,0.0
1119,75.0,39.0,30.0,0.0,0.0
1120,48.0,3.0,90.0,0.0,0.0
1121,36.0,0.0,90.0,0.0,0.0
1122,65.0,1.0,30.0,0.0,0.0
1123,53.0,67.0,120.0,1.0,0.0
1124,48.0,7.0,90.0,1.0,0.0
1125,69.0,25.0,90.0,1.0,0.0
1126,63.0,0.0,120.0,1.0,0.0
1127,65.0,20.0,15.0,0.0,0.0
1128,67.0,20.0,15.0,0.0,0.0
1129,69.0,10.0,15.0,0.0,0.0
1130,70.0,10.0,15.0,0.0,0.0
1131,72.0,10.0,15.0,0.0,0.0
1132,74.0,46.0,15.0,0.0,0.0
1133,48.0,1.0,60.0,1.0,0.0
1134,53.0,3.0,60.0,1.0,0.0
1135,69.0,4.0,60.0,1.0,0.0
1136,75.0,1.0,60.0,0.0,0.0
1137,36.0,21.0,90.0,0.0,0.0
1138,48.0,2.0,60.0,0.0,0.0
1139,63.0,1.0,60.0,1.0,0.0
1140,69.0,17.0,60.0,0.0,0.0
1141,65.0,2.0,30.0,0.0,0.0
1142,48.0,5.0,15.0,1.0,0.0
1143,69.0,4.0,15.0,1.0,0.0
1144,53.0,68.0,15.0,1.0,0.0
1145,63.0,2.0,15.0,1.0,0.0
1146,48.0,6.0,120.0,1.0,0.0
1147,69.0,56.0,60.0,1.0,0.0
1148,63.0,6.0,120.0,1.0,0.0
1149,53.0,24.0,120.0,1.0,0.0
1150,69.0,12.0,15.0,0.0,0.0
1151,70.0,16.0,15.0,0.0,0.0
1152,72.0,13.0,15.0,0.0,0.0
1153,74.0,15.0,15.0,0.0,0.0
1154,75.0,19.0,15.0,0.0,0.0
1155,77.0,11.0,15.0,0.0,0.0
1156,79.0,23.0,15.0,0.0,0.0
1157,65.0,2.0,150.0,1.0,0.0
1158,48.0,0.0,20.0,0.0,0.0
1159,75.0,2.0,60.0,1.0,0.0
1160,36.0,11.0,20.0,0.0,0.0
1161,77.0,0.0,30.0,0.0,0.0
1162,81.0,30.0,30.0,0.0,0.0
1163,57.0,1.0,60.0,1.0,0.0
1164,48.0,2.0,60.0,1.0,0.0
1165,72.0,13.0,30.0,0.0,0.0
1166,77.0,0.0,30.0,0.0,0.0
1167,81.0,30.0,30.0,0.0,0.0
1168,77.0,0.0,30.0,0.0,0.0
1169,48.0,8.0,20.0,0.0,0.0
1170,36.0,4.0,15.0,0.0,0.0
1171,72.0,20.0,30.0,0.0,0.0
1172,36.0,3.0,20.0,0.0,0.0
1173,77.0,13.0,30.0,0.0,0.0
1174,81.0,0.0,30.0,0.0,0.0
1175,48.0,7.0,20.0,0.0,0.0
1176,72.0,18.0,30.0,0.0,0.0
1177,77.0,0.0,30.0,0.0,0.0
1178,36.0,2.0,15.0,0.0,0.0
1179,81.0,1.0,30.0,0.0,0.0
1180,48.0,10.0,20.0,0.0,0.0
1181,57.0,4.0,30.0,1.0,0.0
1182,48.0,8.0,30.0,1.0,0.0
1183,65.0,2.0,30.0,1.0,0.0
1184,75.0,15.0,30.0,1.0,0.0
1185,72.0,19.0,30.0,0.0,0.0
1186,48.0,2.0,120.0,1.0,0.0
1187,81.0,30.0,30.0,0.0,0.0
1188,48.0,8.0,20.0,0.0,0.0
1189,36.0,3.0,20.0,0.0,0.0
1190,77.0,0.0,30.0,0.0,0.0
1191,57.0,8.0,120.0,1.0,0.0
1192,65.0,17.0,90.0,1.0,0.0
1193,75.0,20.0,120.0,1.0,0.0
1194,72.0,22.0,30.0,0.0,0.0
1195,77.0,3.0,30.0,0.0,0.0
1196,81.0,0.0,30.0,0.0,0.0
1197,36.0,0.0,20.0,0.0,0.0
1198,48.0,8.0,20.0,0.0,0.0
1199,72.0,2.0,30.0,0.0,0.0
1200,46.0,16.0,330.0,1.0,0.0
1201,58.0,4.0,360.0,1.0,0.0
1202,65.0,4.0,360.0,1.0,0.0
1203,46.0,9.0,20.0,0.0,0.0
1204,34.0,1.0,20.0,0.0,0.0
1205,77.0,1.0,30.0,0.0,0.0
1206,82.0,26.0,30.0,0.0,0.0
1207,74.0,74.0,360.0,1.0,0.0
1208,74.0,21.0,30.0,0.0,0.0
1209,82.0,1.0,30.0,0.0,0.0
1210,34.0,2.0,20.0,0.0,0.0
1211,46.0,4.0,20.0,0.0,0.0
1212,77.0,15.0,30.0,0.0,0.0
1213,74.0,38.0,15.0,0.0,0.0
1214,74.0,32.0,30.0,0.0,0.0
1215,77.0,0.0,30.0,0.0,0.0
1216,46.0,10.0,20.0,0.0,0.0
1217,34.0,1.0,20.0,0.0,0.0
1218,70.0,17.0,30.0,0.0,0.0
1219,46.0,7.0,20.0,0.0,0.0
1220,34.0,2.0,20.0,0.0,0.0
1221,74.0,16.0,30.0,0.0,0.0
1222,77.0,1.0,30.0,0.0,0.0
1223,70.0,36.0,15.0,0.0,0.0
1224,46.0,0.0,20.0,0.0,0.0
1225,74.0,29.0,30.0,0.0,0.0
1226,34.0,12.0,20.0,0.0,0.0
1227,70.0,0.0,20.0,0.0,0.0
1228,65.0,16.0,30.0,0.0,0.0
1229,74.0,2.0,30.0,0.0,0.0
1230,70.0,4.0,20.0,0.0,0.0
1231,34.0,3.0,20.0,0.0,0.0
1232,46.0,0.0,20.0,0.0,0.0
1233,65.0,9.0,15.0,0.0,0.0
1234,62.0,310.0,120.0,1.0,0.0
1235,46.0,4.0,90.0,1.0,0.0
1236,70.0,21.0,90.0,1.0,0.0
1237,53.0,3.0,120.0,1.0,0.0
1238,46.0,0.0,60.0,0.0,0.0
1239,34.0,1.0,60.0,0.0,0.0
1240,65.0,4.0,60.0,0.0,0.0
1241,62.0,0.0,60.0,0.0,0.0
1242,70.0,14.0,90.0,0.0,0.0
1243,39.0,5.0,150.0,0.0,0.0
1244,51.0,3.0,150.0,0.0,0.0
1245,70.0,43.0,270.0,2.0,0.0
1246,70.0,75.0,15.0,0.0,0.0
1247,67.0,1.0,15.0,0.0,0.0
1248,72.0,4.0,30.0,0.0,0.0
1249,80.0,35.0,30.0,0.0,0.0
1250,70.0,57.0,20.0,0.0,0.0
1251,79.0,5.0,15.0,0.0,0.0
1252,77.0,16.0,15.0,0.0,0.0
1253,68.0,0.0,15.0,0.0,0.0
1254,70.0,6.0,20.0,2.0,0.0
1255,75.0,53.0,20.0,0.0,0.0
1256,67.0,1.0,15.0,0.0,0.0
1257,70.0,80.0,360.0,2.0,0.0
1258,65.0,57.0,15.0,0.0,0.0
1259,74.0,2.0,15.0,0.0,0.0
1260,46.0,30.0,90.0,0.0,0.0
1261,63.0,3.0,15.0,0.0,0.0
1262,72.0,27.0,15.0,0.0,0.0
1263,62.0,55.0,20.0,0.0,0.0
1264,70.0,6.0,15.0,0.0,0.0
1265,68.0,2.0,15.0,0.0,0.0
1266,60.0,60.0,15.0,0.0,0.0
1267,67.0,55.0,20.0,0.0,0.0
1268,58.0,5.0,15.0,0.0,0.0
1269,65.0,29.0,30.0,0.0,0.0
1270,56.0,13.0,15.0,0.0,0.0
1271,67.0,24.0,90.0,2.0,0.0
1272,58.0,20.0,330.0,2.0,0.0
1273,63.0,19.0,300.0,0.0,0.0
1274,55.0,11.0,180.0,0.0,0.0
1275,51.0,17.0,180.0,0.0,0.0
1276,70.0,18.0,20.0,0.0,0.0
1277,68.0,21.0,30.0,2.0,0.0
1278,80.0,26.0,20.0,0.0,0.0
1279,72.0,0.0,20.0,0.0,0.0
1280,70.0,22.0,120.0,2.0,0.0
1281,70.0,38.0,20.0,0.0,0.0
1282,79.0,2.0,15.0,0.0,0.0
1283,68.0,43.0,20.0,0.0,0.0
1284,77.0,1.0,20.0,0.0,0.0
1285,65.0,12.0,30.0,0.0,0.0
1286,75.0,7.0,20.0,0.0,0.0
1287,67.0,22.0,30.0,0.0,0.0
1288,65.0,3.0,20.0,0.0,0.0
1289,58.0,67.0,360.0,2.0,0.0
1290,74.0,52.0,30.0,0.0,0.0
1291,58.0,2.0,360.0,0.0,0.0
1292,72.0,4.0,15.0,0.0,0.0
1293,68.0,55.0,20.0,0.0,0.0
1294,67.0,54.0,20.0,0.0,0.0
1295,70.0,2.0,15.0,0.0,0.0
1296,68.0,4.0,15.0,0.0,0.0
1297,65.0,58.0,15.0,0.0,0.0
1298,67.0,57.0,15.0,0.0,0.0
1299,63.0,3.0,15.0,0.0,0.0
1300,65.0,44.0,15.0,0.0,0.0
1301,62.0,0.0,15.0,0.0,0.0
1302,63.0,7.0,300.0,0.0,0.0
1303,55.0,24.0,90.0,2.0,0.0
1304,51.0,14.0,120.0,0.0,0.0
1305,70.0,36.0,330.0,2.0,0.0
1306,67.0,3.0,15.0,0.0,0.0
1307,70.0,19.0,15.0,0.0,0.0
1308,56.0,12.0,30.0,2.0,0.0
1309,58.0,22.0,120.0,2.0,0.0
1310,80.0,1.0,20.0,0.0,0.0
1311,72.0,54.0,20.0,0.0,0.0
1312,79.0,3.0,15.0,0.0,0.0
1313,70.0,43.0,15.0,0.0,0.0
1314,77.0,43.0,30.0,0.0,0.0
1315,68.0,4.0,20.0,0.0,0.0
1316,75.0,16.0,15.0,0.0,0.0
1317,65.0,4.0,30.0,0.0,0.0
1318,67.0,9.0,30.0,0.0,0.0
1319,70.0,95.0,360.0,2.0,0.0
1320,65.0,52.0,30.0,0.0,0.0
1321,74.0,6.0,20.0,0.0,0.0
1322,72.0,53.0,20.0,0.0,0.0
1323,63.0,2.0,20.0,0.0,0.0
1324,70.0,5.0,15.0,0.0,0.0
1325,62.0,58.0,20.0,0.0,0.0
1326,60.0,58.0,20.0,0.0,0.0
1327,68.0,2.0,15.0,0.0,0.0
1328,67.0,55.0,20.0,0.0,0.0
1329,58.0,1.0,15.0,0.0,0.0
1330,56.0,4.0,15.0,0.0,0.0
1331,65.0,36.0,15.0,0.0,0.0
1332,67.0,20.0,90.0,2.0,0.0
1333,58.0,32.0,330.0,2.0,0.0
1334,63.0,31.0,300.0,0.0,0.0
1335,55.0,9.0,150.0,0.0,0.0
1336,51.0,26.0,180.0,0.0,0.0
1337,70.0,7.0,30.0,0.0,0.0
1338,68.0,24.0,30.0,2.0,0.0
1339,70.0,19.0,120.0,2.0,0.0
1340,80.0,22.0,20.0,0.0,0.0
1341,72.0,0.0,20.0,0.0,0.0
1342,79.0,3.0,15.0,0.0,0.0
1343,70.0,40.0,20.0,0.0,0.0
1344,77.0,5.0,20.0,0.0,0.0
1345,68.0,29.0,20.0,0.0,0.0
1346,75.0,1.0,20.0,0.0,0.0
1347,65.0,0.0,20.0,0.0,0.0
1348,67.0,23.0,30.0,0.0,0.0
1349,58.0,47.0,210.0,2.0,0.0
1350,58.0,1.0,360.0,0.0,0.0
1351,74.0,47.0,30.0,0.0,0.0
1352,65.0,10.0,20.0,0.0,0.0
1353,72.0,5.0,15.0,0.0,0.0
1354,68.0,55.0,20.0,0.0,0.0
1355,70.0,52.0,20.0,0.0,0.0
1356,67.0,2.0,15.0,0.0,0.0
1357,65.0,10.0,20.0,0.0,0.0
1358,68.0,9.0,15.0,0.0,0.0
1359,67.0,1.0,15.0,0.0,0.0
1360,63.0,58.0,15.0,0.0,0.0
1361,58.0,82.0,120.0,2.0,0.0
1362,65.0,4.0,15.0,0.0,0.0
1363,62.0,36.0,20.0,0.0,0.0
1364,55.0,20.0,90.0,2.0,0.0
1365,39.0,30.0,120.0,0.0,0.0
1366,51.0,0.0,120.0,0.0,0.0
1367,70.0,3.0,20.0,0.0,0.0
1368,67.0,3.0,20.0,0.0,0.0
1369,56.0,7.0,20.0,2.0,0.0
1370,58.0,52.0,150.0,2.0,0.0
1371,67.0,0.0,20.0,0.0,0.0
1372,70.0,62.0,20.0,0.0,0.0
1373,70.0,58.0,20.0,0.0,0.0
1374,67.0,0.0,20.0,0.0,0.0
1375,70.0,2.0,20.0,0.0,0.0
1376,67.0,1.0,20.0,0.0,0.0
1377,67.0,97.0,20.0,0.0,0.0
1378,70.0,3.0,15.0,0.0,0.0
1379,67.0,9.0,60.0,0.0,0.0
1380,70.0,2.0,90.0,0.0,0.0
1381,27.0,3.0,60.0,0.0,0.0
1382,39.0,4.0,60.0,0.0,0.0
1383,70.0,27.0,90.0,2.0,0.0
1384,67.0,6.0,60.0,2.0,0.0
1385,63.0,6.0,20.0,0.0,0.0
1386,63.0,4.0,60.0,2.0,0.0
1387,67.0,2.0,30.0,2.0,0.0
1388,67.0,16.0,30.0,0.0,0.0
1389,72.0,13.0,180.0,2.0,0.0
1390,68.0,2.0,180.0,2.0,0.0
1391,72.0,4.0,180.0,0.0,0.0
1392,68.0,9.0,180.0,0.0,0.0
1393,63.0,78.0,15.0,0.0,0.0
1394,63.0,42.0,30.0,0.0,0.0
1395,63.0,34.0,15.0,0.0,0.0
1396,70.0,4.0,30.0,2.0,0.0
1397,63.0,63.0,60.0,0.0,0.0
1398,70.0,8.0,15.0,0.0,0.0
1399,67.0,7.0,30.0,0.0,0.0
1400,67.0,17.0,30.0,2.0,0.0
1401,70.0,18.0,60.0,2.0,0.0
1402,67.0,5.0,60.0,2.0,0.0
1403,46.0,47.0,90.0,0.0,0.0
1404,58.0,1.0,90.0,0.0,0.0
1405,65.0,2.0,30.0,2.0,0.0
1406,68.0,3.0,30.0,2.0,0.0
1407,65.0,8.0,20.0,0.0,0.0
1408,68.0,2.0,20.0,0.0,0.0
1409,68.0,15.0,120.0,2.0,0.0
1410,65.0,6.0,120.0,2.0,0.0
1411,68.0,57.0,20.0,0.0,0.0
1412,65.0,1.0,20.0,0.0,0.0
1413,68.0,3.0,20.0,0.0,0.0
1414,65.0,38.0,20.0,0.0,0.0
1415,65.0,5.0,20.0,0.0,0.0
1416,68.0,52.0,30.0,0.0,0.0
1417,68.0,92.0,20.0,0.0,0.0
1418,65.0,4.0,20.0,0.0,0.0
1419,62.0,10.0,120.0,2.0,0.0
1420,46.0,5.0,60.0,0.0,0.0
1421,34.0,4.0,60.0,0.0,0.0
1422,65.0,9.0,60.0,0.0,0.0
1423,68.0,18.0,90.0,0.0,0.0
1424,65.0,11.0,120.0,2.0,0.0
1425,58.0,9.0,15.0,0.0,0.0
1426,65.0,6.0,15.0,0.0,0.0
1427,62.0,5.0,15.0,0.0,0.0
1428,67.0,1.0,180.0,2.0,0.0
1429,70.0,6.0,180.0,2.0,0.0
1430,58.0,61.0,15.0,0.0,0.0
1431,67.0,19.0,180.0,0.0,0.0
1432,70.0,3.0,180.0,0.0,0.0
1433,58.0,58.0,15.0,0.0,0.0
1434,58.0,38.0,15.0,0.0,0.0
1435,65.0,1.0,30.0,2.0,0.0
1436,68.0,10.0,30.0,0.0,0.0
1437,58.0,3.0,20.0,0.0,0.0
1438,65.0,3.0,20.0,0.0,0.0
1439,68.0,111.0,30.0,2.0,0.0
1440,51.0,34.0,330.0,2.0,0.0
1441,65.0,17.0,90.0,2.0,0.0
1442,68.0,6.0,90.0,2.0,0.0
1443,51.0,52.0,120.0,0.0,0.0
1444,39.0,11.0,120.0,0.0,0.0
1445,67.0,2.0,15.0,2.0,0.0
1446,63.0,0.0,15.0,2.0,0.0
1447,67.0,3.0,120.0,2.0,0.0
1448,63.0,3.0,60.0,0.0,0.0
1449,63.0,28.0,120.0,2.0,0.0
1450,55.0,50.0,60.0,0.0,0.0
1451,62.0,2.0,60.0,0.0,0.0
1452,54.0,3.0,60.0,0.0,0.0
1453,63.0,7.0,20.0,0.0,0.0
1454,55.0,39.0,30.0,0.0,0.0
1455,63.0,6.0,15.0,0.0,0.0
1456,51.0,12.0,15.0,2.0,0.0
1457,58.0,8.0,240.0,2.0,0.0
1458,67.0,2.0,240.0,2.0,0.0
1459,51.0,51.0,120.0,2.0,0.0
1460,55.0,50.0,15.0,0.0,0.0
1461,63.0,11.0,60.0,0.0,0.0
1462,39.0,13.0,120.0,0.0,0.0
1463,51.0,19.0,90.0,0.0,0.0
1464,58.0,18.0,20.0,0.0,0.0
1465,67.0,50.0,60.0,0.0,0.0
1466,63.0,3.0,60.0,0.0,0.0
1467,62.0,11.0,60.0,0.0,0.0
1468,66.0,4.0,60.0,0.0,0.0
1469,63.0,32.0,60.0,2.0,0.0
1470,55.0,21.0,90.0,2.0,0.0
1471,63.0,4.0,15.0,0.0,0.0
1472,67.0,28.0,20.0,0.0,0.0
1473,67.0,10.0,20.0,0.0,0.0
1474,63.0,52.0,60.0,0.0,0.0
1475,63.0,10.0,15.0,2.0,0.0
1476,70.0,3.0,60.0,2.0,0.0
1477,58.0,18.0,60.0,0.0,0.0
1478,67.0,2.0,60.0,0.0,0.0
1479,63.0,2.0,15.0,2.0,0.0
1480,55.0,6.0,60.0,2.0,0.0
1481,39.0,50.0,120.0,0.0,0.0
1482,51.0,31.0,90.0,0.0,0.0
1483,67.0,1.0,30.0,2.0,0.0
1484,51.0,3.0,30.0,2.0,0.0
1485,63.0,6.0,30.0,0.0,0.0
1486,67.0,3.0,120.0,2.0,0.0
1487,51.0,15.0,90.0,2.0,0.0
1488,70.0,30.0,60.0,0.0,0.0
1489,63.0,7.0,60.0,0.0,0.0
1490,69.0,12.0,60.0,0.0,0.0
1491,66.0,12.0,60.0,0.0,0.0
1492,51.0,4.0,20.0,2.0,0.0
1493,70.0,1.0,20.0,0.0,0.0
1494,67.0,4.0,15.0,0.0,0.0
1495,51.0,32.0,60.0,2.0,0.0
1496,67.0,15.0,15.0,0.0,0.0
1497,70.0,22.0,30.0,0.0,0.0
1498,44.0,6.0,120.0,2.0,0.0
1499,60.0,2.0,120.0,2.0,0.0
1500,72.0,17.0,30.0,0.0,0.0
1501,68.0,19.0,20.0,0.0,0.0
1502,44.0,10.0,90.0,0.0,0.0
1503,32.0,7.0,90.0,0.0,0.0
1504,72.0,21.0,60.0,2.0,0.0
1505,53.0,1.0,30.0,2.0,0.0
1506,68.0,23.0,60.0,2.0,0.0
1507,65.0,5.0,20.0,0.0,0.0
1508,68.0,2.0,20.0,0.0,0.0
1509,53.0,8.0,60.0,2.0,0.0
1510,46.0,6.0,240.0,2.0,0.0
1511,63.0,6.0,120.0,2.0,0.0
1512,58.0,2.0,120.0,2.0,0.0
1513,67.0,1.0,20.0,0.0,0.0
1514,67.0,9.0,120.0,2.0,0.0
1515,34.0,2.0,90.0,0.0,0.0
1516,63.0,54.0,30.0,0.0,0.0
1517,46.0,3.0,90.0,0.0,0.0
1518,70.0,31.0,30.0,0.0,0.0
1519,67.0,2.0,20.0,0.0,0.0
1520,62.0,5.0,120.0,2.0,0.0
1521,56.0,2.0,120.0,2.0,0.0
1522,34.0,38.0,60.0,0.0,0.0
1523,46.0,6.0,60.0,0.0,0.0
1524,68.0,1.0,15.0,0.0,0.0
1525,65.0,47.0,15.0,0.0,0.0
1526,65.0,72.0,120.0,2.0,0.0
1527,62.0,2.0,15.0,0.0,0.0
1528,65.0,1.0,15.0,0.0,0.0
1529,39.0,1.0,120.0,2.0,0.0
1530,55.0,0.0,120.0,2.0,0.0
1531,27.0,7.0,90.0,0.0,0.0
1532,39.0,8.0,120.0,0.0,0.0
1533,63.0,19.0,90.0,0.0,0.0
1534,55.0,11.0,60.0,0.0,0.0
1535,63.0,4.0,120.0,2.0,0.0
1536,63.0,40.0,60.0,0.0,0.0
1537,55.0,2.0,60.0,0.0,0.0
1538,51.0,15.0,90.0,2.0,0.0
1539,54.0,3.0,60.0,0.0,0.0
1540,62.0,23.0,60.0,0.0,0.0
1541,55.0,14.0,20.0,0.0,0.0
1542,63.0,1.0,15.0,0.0,0.0
1543,51.0,40.0,30.0,2.0,0.0
1544,51.0,22.0,30.0,2.0,0.0
1545,55.0,83.0,60.0,0.0,0.0
1546,63.0,12.0,15.0,0.0,0.0
1547,51.0,6.0,360.0,2.0,0.0
1548,58.0,6.0,240.0,2.0,0.0
1549,67.0,1.0,240.0,2.0,0.0
1550,51.0,24.0,180.0,0.0,0.0
1551,39.0,1.0,180.0,0.0,0.0
1552,55.0,12.0,60.0,0.0,0.0
1553,63.0,6.0,60.0,0.0,0.0
1554,58.0,39.0,30.0,0.0,0.0
1555,63.0,26.0,90.0,2.0,0.0
1556,63.0,51.0,15.0,0.0,0.0
1557,67.0,4.0,60.0,0.0,0.0
1558,66.0,3.0,60.0,0.0,0.0
1559,62.0,12.0,60.0,0.0,0.0
1560,55.0,20.0,90.0,2.0,0.0
1561,67.0,2.0,15.0,0.0,0.0
1562,63.0,8.0,15.0,0.0,0.0
1563,63.0,57.0,20.0,2.0,0.0
1564,63.0,4.0,30.0,2.0,0.0
1565,67.0,7.0,20.0,0.0,0.0
1566,63.0,57.0,60.0,0.0,0.0
1567,63.0,3.0,15.0,2.0,0.0
1568,39.0,21.0,120.0,2.0,0.0
1569,70.0,16.0,60.0,2.0,0.0
1570,55.0,2.0,60.0,2.0,0.0
1571,39.0,1.0,120.0,0.0,0.0
1572,67.0,1.0,60.0,0.0,0.0
1573,51.0,51.0,120.0,0.0,0.0
1574,58.0,3.0,60.0,0.0,0.0
1575,51.0,4.0,30.0,2.0,0.0
1576,67.0,15.0,30.0,2.0,0.0
1577,63.0,5.0,20.0,0.0,0.0
1578,51.0,5.0,120.0,2.0,0.0
1579,67.0,1.0,120.0,2.0,0.0
1580,67.0,6.0,60.0,0.0,0.0
1581,70.0,52.0,60.0,0.0,0.0
1582,69.0,16.0,60.0,0.0,0.0
1583,66.0,1.0,60.0,0.0,0.0
1584,55.0,22.0,120.0,2.0,0.0
1585,58.0,1.0,90.0,2.0,0.0
1586,75.0,1.0,120.0,2.0,0.0
1587,67.0,5.0,20.0,0.0,0.0
1588,70.0,50.0,30.0,0.0,0.0
1589,67.0,10.0,30.0,0.0,0.0
1590,70.0,26.0,15.0,0.0,0.0
1591,72.0,17.0,60.0,2.0,0.0
1592,53.0,3.0,60.0,2.0,0.0
1593,44.0,20.0,90.0,0.0,0.0
1594,32.0,1.0,60.0,0.0,0.0
1595,68.0,10.0,15.0,0.0,0.0
1596,72.0,10.0,30.0,0.0,0.0
1597,60.0,0.0,60.0,2.0,0.0
1598,44.0,18.0,30.0,2.0,0.0
1599,68.0,7.0,30.0,2.0,0.0
1600,44.0,7.0,60.0,2.0,0.0
1601,65.0,2.0,60.0,2.0,0.0
1602,60.0,18.0,60.0,2.0,0.0
1603,65.0,5.0,15.0,0.0,0.0
1604,68.0,2.0,15.0,0.0,0.0
1605,67.0,6.0,120.0,2.0,0.0
1606,63.0,15.0,120.0,2.0,0.0
1607,58.0,6.0,240.0,2.0,0.0
1608,46.0,3.0,240.0,2.0,0.0
1609,34.0,2.0,90.0,0.0,0.0
1610,46.0,31.0,90.0,0.0,0.0
1611,67.0,1.0,15.0,0.0,0.0
1612,63.0,63.0,15.0,0.0,0.0
1613,67.0,1.0,20.0,0.0,0.0
1614,70.0,2.0,20.0,0.0,0.0
1615,65.0,18.0,120.0,2.0,0.0
1616,68.0,0.0,15.0,0.0,0.0
1617,62.0,3.0,120.0,2.0,0.0
1618,65.0,49.0,15.0,0.0,0.0
1619,34.0,3.0,60.0,0.0,0.0
1620,46.0,8.0,60.0,0.0,0.0
1621,65.0,31.0,15.0,0.0,0.0
1622,62.0,0.0,15.0,0.0,0.0
1623,39.0,12.0,120.0,2.0,0.0
1624,63.0,2.0,120.0,2.0,0.0
1625,27.0,4.0,90.0,0.0,0.0
1626,58.0,2.0,120.0,2.0,0.0
1627,63.0,72.0,15.0,0.0,0.0
1628,39.0,0.0,120.0,0.0,0.0
1629,51.0,12.0,30.0,0.0,0.0
1630,46.0,11.0,15.0,0.0,0.0
1631,54.0,43.0,15.0,0.0,0.0
1632,39.0,5.0,15.0,0.0,0.0
1633,51.0,24.0,30.0,0.0,0.0
1634,39.0,2.0,20.0,0.0,0.0
1635,58.0,9.0,30.0,0.0,0.0
1636,54.0,44.0,15.0,0.0,0.0
1637,39.0,7.0,20.0,0.0,0.0
1638,63.0,27.0,30.0,0.0,0.0
1639,58.0,30.0,20.0,0.0,0.0
1640,39.0,6.0,20.0,0.0,0.0
1641,66.0,6.0,30.0,0.0,0.0
1642,63.0,44.0,15.0,0.0,0.0
1643,39.0,21.0,30.0,0.0,0.0
1644,51.0,5.0,30.0,0.0,0.0
1645,66.0,5.0,60.0,0.0,0.0
1646,70.0,70.0,60.0,0.0,0.0
1647,63.0,6.0,20.0,0.0,0.0
1648,58.0,12.0,60.0,0.0,0.0
1649,41.0,2.0,20.0,0.0,0.0
1650,53.0,37.0,20.0,0.0,0.0
1651,68.0,54.0,60.0,0.0,0.0
1652,65.0,6.0,60.0,0.0,0.0
1653,63.0,3.0,60.0,0.0,0.0
1654,58.0,23.0,60.0,0.0,0.0
1655,42.0,4.0,20.0,0.0,0.0
1656,66.0,16.0,60.0,0.0,0.0
1657,63.0,6.0,60.0,0.0,0.0
1658,54.0,29.0,30.0,0.0,0.0
1659,51.0,18.0,30.0,1.0,0.0
1660,58.0,1.0,60.0,1.0,0.0
1661,42.0,0.0,60.0,1.0,0.0
1662,66.0,28.0,60.0,1.0,0.0
1663,58.0,8.0,20.0,0.0,0.0
1664,59.0,1.0,210.0,1.0,0.0
1665,51.0,9.0,210.0,1.0,0.0
1666,44.0,2.0,210.0,1.0,0.0
1667,65.0,18.0,210.0,1.0,0.0
1668,59.0,54.0,20.0,0.0,0.0
1669,65.0,1.0,20.0,0.0,0.0
1670,63.0,5.0,15.0,0.0,0.0
1671,44.0,15.0,60.0,0.0,0.0
1672,56.0,22.0,90.0,0.0,0.0
1673,53.0,0.0,30.0,0.0,0.0
1674,51.0,28.0,20.0,0.0,0.0
1675,56.0,4.0,20.0,0.0,0.0
1676,51.0,30.0,20.0,0.0,0.0
1677,53.0,27.0,20.0,0.0,0.0
1678,51.0,2.0,20.0,0.0,0.0
1679,59.0,1.0,20.0,0.0,0.0
1680,56.0,28.0,20.0,0.0,0.0
1681,51.0,3.0,90.0,1.0,0.0
1682,44.0,5.0,90.0,1.0,0.0
1683,65.0,26.0,30.0,0.0,0.0
1684,51.0,9.0,20.0,0.0,0.0
1685,59.0,75.0,90.0,1.0,0.0
1686,65.0,0.0,90.0,1.0,0.0
1687,63.0,28.0,30.0,0.0,0.0
1688,68.0,2.0,30.0,0.0,0.0
1689,51.0,10.0,20.0,0.0,0.0
1690,65.0,0.0,15.0,0.0,0.0
1691,41.0,12.0,90.0,0.0,0.0
1692,68.0,8.0,60.0,0.0,0.0
1693,53.0,2.0,90.0,0.0,0.0
1694,71.0,35.0,60.0,0.0,0.0
1695,63.0,63.0,60.0,0.0,0.0
1696,66.0,42.0,60.0,0.0,0.0
1697,70.0,4.0,60.0,0.0,0.0
1698,54.0,10.0,60.0,0.0,0.0
1699,42.0,0.0,60.0,0.0,0.0
1700,63.0,67.0,60.0,0.0,0.0
1701,68.0,6.0,60.0,0.0,0.0
1702,65.0,6.0,60.0,0.0,0.0
1703,44.0,15.0,60.0,0.0,0.0
1704,56.0,0.0,60.0,0.0,0.0
1705,44.0,12.0,60.0,1.0,0.0
1706,51.0,17.0,30.0,1.0,0.0
1707,59.0,10.0,60.0,1.0,0.0
1708,68.0,6.0,60.0,1.0,0.0
1709,63.0,0.0,15.0,0.0,0.0
1710,67.0,10.0,240.0,1.0,0.0
1711,51.0,1.0,210.0,1.0,0.0
1712,46.0,5.0,210.0,1.0,0.0
1713,61.0,4.0,210.0,1.0,0.0
1714,63.0,1.0,15.0,0.0,0.0
1715,61.0,2.0,15.0,0.0,0.0
1716,46.0,6.0,60.0,0.0,0.0
1717,58.0,32.0,60.0,0.0,0.0
1718,67.0,35.0,15.0,0.0,0.0
1719,55.0,31.0,30.0,0.0,0.0
1720,51.0,16.0,30.0,0.0,0.0
1721,58.0,32.0,20.0,0.0,0.0
1722,51.0,5.0,15.0,0.0,0.0
1723,55.0,30.0,20.0,0.0,0.0
1724,61.0,1.0,20.0,0.0,0.0
1725,51.0,6.0,20.0,0.0,0.0
1726,58.0,32.0,20.0,0.0,0.0
1727,51.0,2.0,120.0,1.0,0.0
1728,46.0,6.0,90.0,1.0,0.0
1729,61.0,4.0,120.0,1.0,0.0
1730,67.0,36.0,30.0,0.0,0.0
1731,51.0,5.0,20.0,0.0,0.0
1732,67.0,56.0,120.0,1.0,0.0
1733,61.0,19.0,30.0,0.0,0.0
1734,51.0,6.0,20.0,0.0,0.0
1735,70.0,9.0,30.0,0.0,0.0
1736,67.0,3.0,15.0,0.0,0.0
1737,73.0,2.0,60.0,0.0,0.0
1738,70.0,0.0,60.0,0.0,0.0
1739,43.0,67.0,60.0,0.0,0.0
1740,55.0,8.0,60.0,0.0,0.0
1741,63.0,54.0,60.0,0.0,0.0
1742,68.0,2.0,60.0,0.0,0.0
1743,71.0,59.0,60.0,0.0,0.0
1744,56.0,2.0,60.0,0.0,0.0
1745,44.0,3.0,60.0,0.0,0.0
1746,63.0,51.0,60.0,0.0,0.0
1747,67.0,5.0,60.0,0.0,0.0
1748,70.0,7.0,60.0,0.0,0.0
1749,58.0,14.0,60.0,0.0,0.0
1750,46.0,1.0,60.0,0.0,0.0
1751,70.0,2.0,60.0,1.0,0.0
1752,61.0,5.0,60.0,1.0,0.0
1753,46.0,21.0,60.0,1.0,0.0
1754,51.0,0.0,30.0,1.0,0.0
1755,63.0,28.0,20.0,0.0,0.0
1756,51.0,0.0,360.0,1.0,0.0
1757,63.0,25.0,330.0,1.0,0.0
1758,47.0,6.0,330.0,1.0,0.0
1759,68.0,20.0,360.0,1.0,0.0
1760,63.0,4.0,20.0,0.0,0.0
1761,68.0,51.0,30.0,0.0,0.0
1762,47.0,2.0,20.0,0.0,0.0
1763,59.0,2.0,20.0,0.0,0.0
1764,35.0,1.0,20.0,0.0,0.0
1765,68.0,1.0,90.0,0.0,0.0
1766,63.0,2.0,90.0,0.0,0.0
1767,75.0,48.0,90.0,0.0,0.0
1768,47.0,57.0,20.0,0.0,0.0
1769,47.0,6.0,15.0,0.0,0.0
1770,35.0,1.0,15.0,0.0,0.0
1771,47.0,1.0,15.0,0.0,0.0
1772,35.0,61.0,15.0,0.0,0.0
1773,68.0,3.0,90.0,0.0,0.0
1774,75.0,46.0,90.0,0.0,0.0
1775,63.0,3.0,90.0,0.0,0.0
1776,35.0,1.0,15.0,0.0,0.0
1777,47.0,1.0,15.0,0.0,0.0
1778,68.0,4.0,15.0,0.0,0.0
1779,35.0,1.0,15.0,0.0,0.0
1780,47.0,2.0,15.0,0.0,0.0
1781,75.0,10.0,20.0,0.0,0.0
1782,63.0,1.0,15.0,0.0,0.0
1783,47.0,1.0,360.0,1.0,0.0
1784,51.0,1.0,360.0,1.0,0.0
1785,69.0,1.0,360.0,1.0,0.0
1786,35.0,7.0,20.0,0.0,0.0
1787,63.0,20.0,360.0,1.0,0.0
1788,69.0,6.0,330.0,0.0,0.0
1789,77.0,33.0,30.0,0.0,0.0
1790,47.0,0.0,20.0,0.0,0.0
1791,75.0,15.0,30.0,0.0,0.0
1792,35.0,13.0,15.0,0.0,0.0
1793,74.0,29.0,30.0,0.0,0.0
1794,47.0,3.0,15.0,0.0,0.0
1795,75.0,17.0,30.0,0.0,0.0
1796,47.0,2.0,15.0,0.0,0.0
1797,35.0,12.0,20.0,0.0,0.0
1798,77.0,33.0,30.0,0.0,0.0
1799,75.0,11.0,30.0,0.0,0.0
1800,74.0,25.0,30.0,0.0,0.0
1801,35.0,16.0,20.0,0.0,0.0
1802,47.0,4.0,15.0,0.0,0.0
1803,75.0,15.0,30.0,0.0,0.0
1804,77.0,35.0,30.0,0.0,0.0
1805,35.0,14.0,20.0,0.0,0.0
1806,47.0,4.0,15.0,0.0,0.0
1807,75.0,6.0,30.0,0.0,0.0
1808,35.0,9.0,20.0,0.0,0.0
1809,47.0,6.0,15.0,0.0,0.0
1810,74.0,7.0,30.0,0.0,0.0
1811,75.0,10.0,15.0,0.0,0.0
1812,53.0,0.0,150.0,1.0,0.0
1813,62.0,15.0,120.0,1.0,0.0
1814,46.0,15.0,330.0,1.0,0.0
1815,70.0,0.0,330.0,1.0,0.0
1816,74.0,42.0,30.0,0.0,0.0
1817,70.0,0.0,30.0,0.0,0.0
1818,46.0,5.0,15.0,0.0,0.0
1819,34.0,11.0,20.0,0.0,0.0
1820,65.0,5.0,30.0,0.0,0.0
1821,74.0,5.0,60.0,0.0,0.0
1822,46.0,8.0,15.0,0.0,0.0
1823,34.0,0.0,15.0,0.0,0.0
1824,70.0,25.0,30.0,0.0,0.0
1825,65.0,5.0,30.0,0.0,0.0
1826,54.0,4.0,120.0,1.0,0.0
1827,63.0,12.0,120.0,1.0,0.0
1828,46.0,1.0,15.0,0.0,0.0
1829,70.0,6.0,30.0,0.0,0.0
1830,34.0,12.0,15.0,0.0,0.0
1831,75.0,31.0,30.0,0.0,0.0
1832,66.0,10.0,30.0,0.0,0.0
1833,34.0,4.0,20.0,0.0,0.0
1834,75.0,4.0,20.0,0.0,0.0
1835,70.0,19.0,30.0,0.0,0.0
1836,46.0,4.0,15.0,0.0,0.0
1837,66.0,13.0,15.0,0.0,0.0
1838,51.0,59.0,120.0,1.0,0.0
1839,66.0,5.0,120.0,1.0,0.0
1840,78.0,2.0,30.0,0.0,0.0
1841,75.0,36.0,30.0,0.0,0.0
1842,34.0,13.0,15.0,0.0,0.0
1843,46.0,1.0,15.0,0.0,0.0
1844,70.0,8.0,30.0,0.0,0.0
1845,46.0,1.0,15.0,0.0,0.0
1846,34.0,11.0,15.0,0.0,0.0
1847,78.0,1.0,30.0,0.0,0.0
1848,75.0,3.0,30.0,0.0,0.0
1849,70.0,8.0,20.0,0.0,0.0
1850,50.0,25.0,120.0,1.0,0.0
1851,65.0,62.0,150.0,1.0,0.0
1852,70.0,8.0,90.0,1.0,0.0
1853,46.0,13.0,90.0,1.0,0.0
1854,46.0,3.0,120.0,0.0,0.0
1855,34.0,3.0,120.0,0.0,0.0
1856,82.0,2.0,60.0,0.0,0.0
1857,74.0,3.0,60.0,0.0,0.0
1858,70.0,26.0,60.0,0.0,0.0
1859,77.0,3.0,60.0,0.0,0.0
1860,70.0,95.0,90.0,0.0,0.0
1861,58.0,1.0,90.0,0.0,0.0
1862,58.0,88.0,90.0,0.0,0.0
1863,70.0,21.0,60.0,0.0,0.0
1864,70.0,3.0,60.0,0.0,0.0
1865,66.0,61.0,60.0,0.0,0.0
1866,51.0,18.0,120.0,0.0,0.0
1867,58.0,16.0,330.0,2.0,0.0
1868,58.0,41.0,60.0,0.0,0.0
1869,53.0,6.0,120.0,0.0,0.0
1870,65.0,0.0,60.0,0.0,0.0
1871,68.0,66.0,60.0,0.0,0.0
1872,58.0,51.0,60.0,0.0,0.0
1873,66.0,39.0,60.0,0.0,0.0
1874,54.0,7.0,120.0,0.0,0.0
1875,63.0,1.0,60.0,0.0,0.0
1876,58.0,58.0,60.0,0.0,0.0
1877,62.0,2.0,120.0,2.0,0.0
1878,56.0,0.0,120.0,2.0,0.0
1879,62.0,4.0,60.0,0.0,0.0
1880,65.0,1.0,120.0,2.0,0.0
1881,56.0,1.0,120.0,0.0,0.0
1882,65.0,61.0,60.0,0.0,0.0
1883,58.0,16.0,330.0,2.0,0.0
1884,58.0,52.0,60.0,0.0,0.0
1885,63.0,0.0,120.0,2.0,0.0
1886,66.0,58.0,60.0,0.0,0.0
1887,63.0,3.0,60.0,0.0,0.0
1888,54.0,5.0,120.0,2.0,0.0
1889,54.0,1.0,120.0,0.0,0.0
1890,66.0,40.0,120.0,2.0,0.0
1891,58.0,3.0,60.0,0.0,0.0
1892,65.0,41.0,60.0,0.0,0.0
1893,53.0,2.0,120.0,0.0,0.0
1894,68.0,7.0,60.0,0.0,0.0
1895,53.0,40.0,120.0,2.0,0.0
1896,65.0,5.0,120.0,2.0,0.0
1897,68.0,6.0,120.0,2.0,0.0
1898,58.0,1.0,60.0,0.0,0.0
1899,66.0,22.0,60.0,0.0,0.0
1900,70.0,15.0,60.0,0.0,0.0
1901,51.0,10.0,120.0,0.0,0.0
1902,66.0,2.0,120.0,2.0,0.0
1903,70.0,6.0,180.0,2.0,0.0
1904,58.0,1.0,120.0,2.0,0.0
1905,51.0,48.0,120.0,2.0,0.0
1906,68.0,30.0,30.0,0.0,0.0
1907,65.0,4.0,20.0,0.0,0.0
1908,56.0,1.0,120.0,2.0,0.0
1909,53.0,0.0,120.0,0.0,0.0
1910,68.0,5.0,60.0,0.0,0.0
1911,65.0,4.0,60.0,0.0,0.0
1912,53.0,49.0,120.0,2.0,0.0
1913,62.0,8.0,120.0,2.0,0.0
1914,66.0,6.0,15.0,0.0,0.0
1915,63.0,34.0,20.0,0.0,0.0
1916,71.0,2.0,60.0,2.0,0.0
1917,63.0,2.0,120.0,2.0,0.0
1918,54.0,9.0,120.0,0.0,0.0
1919,63.0,20.0,60.0,0.0,0.0
1920,66.0,1.0,60.0,0.0,0.0
1921,54.0,5.0,120.0,2.0,0.0
1922,70.0,57.0,120.0,2.0,0.0
1923,65.0,5.0,15.0,0.0,0.0
1924,62.0,29.0,20.0,0.0,0.0
1925,62.0,10.0,120.0,2.0,0.0
1926,58.0,18.0,210.0,2.0,0.0
1927,56.0,1.0,120.0,2.0,0.0
1928,56.0,45.0,120.0,0.0,0.0
1929,62.0,51.0,60.0,0.0,0.0
1930,65.0,0.0,60.0,0.0,0.0
1931,65.0,2.0,120.0,2.0,0.0
1932,58.0,0.0,60.0,0.0,0.0
1933,54.0,4.0,120.0,2.0,0.0
1934,63.0,49.0,120.0,2.0,0.0
1935,66.0,36.0,60.0,0.0,0.0
1936,63.0,6.0,60.0,0.0,0.0
1937,54.0,1.0,120.0,0.0,0.0
1938,66.0,6.0,120.0,2.0,0.0
1939,58.0,6.0,60.0,0.0,0.0
1940,53.0,2.0,120.0,2.0,0.0
1941,68.0,2.0,120.0,2.0,0.0
1942,68.0,30.0,60.0,0.0,0.0
1943,58.0,23.0,90.0,2.0,0.0
1944,53.0,4.0,120.0,0.0,0.0
1945,65.0,0.0,60.0,0.0,0.0
1946,65.0,44.0,120.0,2.0,0.0
1947,58.0,4.0,60.0,0.0,0.0
1948,51.0,6.0,120.0,2.0,0.0
1949,66.0,2.0,120.0,2.0,0.0
1950,58.0,4.0,120.0,2.0,0.0
1951,51.0,47.0,120.0,0.0,0.0
1952,70.0,21.0,60.0,0.0,0.0
1953,66.0,14.0,60.0,0.0,0.0
1954,70.0,13.0,180.0,2.0,0.0
1955,65.0,7.0,20.0,0.0,0.0
1956,68.0,27.0,30.0,0.0,0.0
1957,53.0,3.0,120.0,2.0,0.0
1958,62.0,7.0,120.0,2.0,0.0
1959,56.0,1.0,120.0,2.0,0.0
1960,53.0,3.0,120.0,0.0,0.0
1961,68.0,3.0,60.0,0.0,0.0
1962,65.0,5.0,60.0,0.0,0.0
1963,71.0,22.0,60.0,2.0,0.0
1964,66.0,5.0,15.0,0.0,0.0
1965,63.0,27.0,20.0,0.0,0.0
1966,63.0,1.0,120.0,2.0,0.0
1967,54.0,17.0,90.0,2.0,0.0
1968,66.0,32.0,60.0,0.0,0.0
1969,54.0,2.0,120.0,0.0,0.0
1970,63.0,25.0,30.0,0.0,0.0
1971,70.0,29.0,120.0,2.0,0.0
1972,62.0,7.0,30.0,0.0,0.0
1973,65.0,3.0,20.0,0.0,0.0
1974,53.0,1.0,210.0,2.0,0.0
1975,71.0,22.0,210.0,2.0,0.0
1976,56.0,31.0,240.0,2.0,0.0
1977,62.0,1.0,210.0,2.0,0.0
1978,56.0,11.0,120.0,0.0,0.0
1979,62.0,56.0,30.0,0.0,0.0
1980,65.0,6.0,30.0,0.0,0.0
1981,65.0,35.0,30.0,0.0,0.0
1982,59.0,2.0,120.0,0.0,0.0
1983,68.0,57.0,15.0,0.0,0.0
1984,71.0,20.0,15.0,0.0,0.0
1985,44.0,3.0,120.0,2.0,0.0
1986,71.0,10.0,120.0,2.0,0.0
1987,53.0,4.0,120.0,2.0,0.0
1988,56.0,80.0,120.0,0.0,0.0
1989,74.0,47.0,30.0,0.0,0.0
1990,62.0,3.0,120.0,2.0,0.0
1991,77.0,33.0,15.0,0.0,0.0
1992,63.0,15.0,210.0,2.0,0.0
1993,70.0,13.0,210.0,2.0,0.0
1994,42.0,2.0,210.0,2.0,0.0
1995,42.0,11.0,120.0,0.0,0.0
1996,54.0,15.0,240.0,2.0,0.0
1997,66.0,32.0,30.0,0.0,0.0
1998,54.0,23.0,120.0,0.0,0.0
1999,70.0,59.0,15.0,0.0,0.0
2000,75.0,7.0,15.0,0.0,0.0
2001,58.0,4.0,120.0,2.0,0.0
2002,70.0,5.0,120.0,2.0,0.0
2003,42.0,65.0,120.0,2.0,0.0
2004,78.0,45.0,30.0,0.0,0.0
2005,51.0,6.0,120.0,0.0,0.0
2006,63.0,1.0,120.0,2.0,0.0
2007,82.0,41.0,15.0,0.0,0.0
2008,65.0,5.0,120.0,2.0,0.0
2009,68.0,2.0,120.0,2.0,0.0
2010,59.0,67.0,120.0,2.0,0.0
2011,44.0,1.0,120.0,0.0,0.0
2012,56.0,1.0,120.0,0.0,0.0
2013,44.0,5.0,120.0,2.0,0.0
2014,65.0,5.0,15.0,0.0,0.0
2015,68.0,32.0,20.0,0.0,0.0
2016,46.0,5.0,240.0,2.0,0.0
2017,63.0,0.0,120.0,2.0,0.0
2018,58.0,60.0,120.0,2.0,0.0
2019,66.0,11.0,120.0,2.0,0.0
2020,46.0,2.0,60.0,0.0,0.0
2021,58.0,33.0,90.0,0.0,0.0
2022,63.0,6.0,15.0,0.0,0.0
2023,66.0,7.0,20.0,0.0,0.0
2024,62.0,0.0,120.0,2.0,0.0
2025,65.0,7.0,120.0,2.0,0.0
2026,46.0,36.0,90.0,0.0,0.0
2027,56.0,63.0,120.0,2.0,0.0
2028,62.0,3.0,15.0,0.0,0.0
2029,65.0,6.0,15.0,0.0,0.0
2030,39.0,1.0,120.0,2.0,0.0
2031,39.0,7.0,90.0,0.0,0.0
2032,63.0,9.0,15.0,0.0,0.0
2033,63.0,0.0,120.0,2.0,0.0
2034,46.0,3.0,90.0,0.0,0.0
2035,54.0,22.0,90.0,2.0,0.0
2036,51.0,2.0,20.0,0.0,0.0
2037,46.0,0.0,30.0,0.0,0.0
2038,39.0,62.0,20.0,0.0,0.0
2039,54.0,0.0,20.0,0.0,0.0
2040,58.0,0.0,30.0,0.0,0.0
2041,39.0,13.0,30.0,0.0,0.0
2042,54.0,43.0,15.0,0.0,0.0
2043,63.0,2.0,20.0,0.0,0.0
2044,39.0,35.0,20.0,0.0,0.0
2045,58.0,29.0,30.0,0.0,0.0
2046,66.0,6.0,30.0,0.0,0.0
2047,39.0,5.0,30.0,0.0,0.0
2048,63.0,47.0,15.0,0.0,0.0
2049,51.0,12.0,90.0,0.0,0.0
2050,63.0,4.0,30.0,0.0,0.0
2051,39.0,46.0,90.0,0.0,0.0
2052,70.0,3.0,30.0,0.0,0.0
2053,66.0,46.0,30.0,0.0,0.0
2054,58.0,6.0,30.0,0.0,0.0
2055,68.0,54.0,30.0,0.0,0.0
2056,63.0,3.0,20.0,0.0,0.0
2057,41.0,4.0,90.0,0.0,0.0
2058,65.0,1.0,30.0,0.0,0.0
2059,53.0,60.0,90.0,0.0,0.0
2060,58.0,2.0,30.0,0.0,0.0
2061,63.0,31.0,30.0,0.0,0.0
2062,42.0,15.0,60.0,0.0,0.0
2063,54.0,4.0,60.0,0.0,0.0
2064,66.0,1.0,30.0,0.0,0.0
2065,66.0,2.0,60.0,1.0,0.0
2066,42.0,1.0,60.0,1.0,0.0
2067,58.0,33.0,60.0,1.0,0.0
2068,51.0,12.0,30.0,1.0,0.0
2069,58.0,7.0,20.0,0.0,0.0
2070,59.0,2.0,210.0,1.0,0.0
2071,44.0,1.0,210.0,1.0,0.0
2072,65.0,3.0,210.0,1.0,0.0
2073,51.0,17.0,210.0,1.0,0.0
2074,56.0,6.0,90.0,0.0,0.0
2075,59.0,62.0,15.0,0.0,0.0
2076,65.0,2.0,15.0,0.0,0.0
2077,63.0,0.0,15.0,0.0,0.0
2078,44.0,1.0,90.0,0.0,0.0
2079,53.0,27.0,20.0,0.0,0.0
2080,51.0,30.0,20.0,0.0,0.0
2081,51.0,6.0,20.0,0.0,0.0
2082,56.0,24.0,30.0,0.0,0.0
2083,53.0,28.0,20.0,0.0,0.0
2084,51.0,4.0,20.0,0.0,0.0
2085,59.0,2.0,20.0,0.0,0.0
2086,56.0,33.0,20.0,0.0,0.0
2087,65.0,8.0,90.0,1.0,0.0
2088,59.0,1.0,120.0,1.0,0.0
2089,51.0,1.0,90.0,1.0,0.0
2090,44.0,4.0,90.0,1.0,0.0
2091,65.0,25.0,30.0,0.0,0.0
2092,51.0,4.0,20.0,0.0,0.0
2093,63.0,30.0,20.0,0.0,0.0
2094,68.0,2.0,30.0,0.0,0.0
2095,51.0,5.0,20.0,0.0,0.0
2096,65.0,51.0,15.0,0.0,0.0
2097,71.0,53.0,30.0,0.0,0.0
2098,68.0,2.0,30.0,0.0,0.0
2099,41.0,3.0,90.0,0.0,0.0
2100,53.0,62.0,90.0,0.0,0.0
2101,63.0,2.0,30.0,0.0,0.0
2102,54.0,6.0,90.0,0.0,0.0
2103,42.0,1.0,90.0,0.0,0.0
2104,70.0,8.0,30.0,0.0,0.0
2105,66.0,40.0,30.0,0.0,0.0
2106,63.0,83.0,30.0,0.0,0.0
2107,68.0,4.0,60.0,0.0,0.0
2108,44.0,6.0,90.0,0.0,0.0
2109,56.0,6.0,90.0,0.0,0.0
2110,65.0,15.0,60.0,0.0,0.0
2111,68.0,0.0,60.0,1.0,0.0
2112,59.0,9.0,60.0,1.0,0.0
2113,44.0,36.0,60.0,1.0,0.0
2114,51.0,17.0,30.0,1.0,0.0
2115,63.0,5.0,15.0,0.0,0.0
2116,67.0,2.0,240.0,1.0,0.0
2117,46.0,26.0,240.0,1.0,0.0
2118,61.0,3.0,210.0,1.0,0.0
2119,51.0,7.0,210.0,1.0,0.0
2120,61.0,60.0,30.0,0.0,0.0
2121,67.0,0.0,30.0,0.0,0.0
2122,46.0,0.0,90.0,0.0,0.0
2123,63.0,0.0,30.0,0.0,0.0
2124,58.0,0.0,90.0,0.0,0.0
2125,55.0,30.0,30.0,0.0,0.0
2126,51.0,30.0,15.0,0.0,0.0
2127,58.0,30.0,30.0,0.0,0.0
2128,55.0,20.0,30.0,0.0,0.0
2129,51.0,2.0,30.0,0.0,0.0
2130,61.0,0.0,30.0,0.0,0.0
2131,58.0,30.0,30.0,0.0,0.0
2132,51.0,2.0,90.0,1.0,0.0
2133,61.0,7.0,120.0,1.0,0.0
2134,67.0,59.0,120.0,1.0,0.0
2135,46.0,18.0,120.0,1.0,0.0
2136,67.0,30.0,30.0,0.0,0.0
2137,51.0,0.0,30.0,0.0,0.0
2138,61.0,28.0,30.0,0.0,0.0
2139,70.0,5.0,30.0,0.0,0.0
2140,51.0,0.0,30.0,0.0,0.0
2141,67.0,1.0,30.0,0.0,0.0
2142,43.0,54.0,120.0,0.0,0.0
2143,55.0,0.0,120.0,0.0,0.0
2144,70.0,0.0,60.0,0.0,0.0
2145,73.0,36.0,60.0,0.0,0.0
2146,63.0,24.0,30.0,0.0,0.0
2147,68.0,5.0,60.0,0.0,0.0
2148,71.0,36.0,60.0,0.0,0.0
2149,44.0,10.0,120.0,0.0,0.0
2150,56.0,56.0,120.0,0.0,0.0
2151,63.0,12.0,30.0,0.0,0.0
2152,46.0,8.0,60.0,0.0,0.0
2153,58.0,18.0,90.0,0.0,0.0
2154,70.0,1.0,60.0,0.0,0.0
2155,67.0,17.0,60.0,0.0,0.0
2156,46.0,4.0,60.0,1.0,0.0
2157,61.0,5.0,60.0,1.0,0.0
2158,70.0,25.0,60.0,1.0,0.0
2159,51.0,4.0,30.0,1.0,0.0
2160,63.0,8.0,20.0,0.0,0.0
2161,47.0,0.0,330.0,1.0,0.0
2162,63.0,11.0,330.0,1.0,0.0
2163,68.0,55.0,330.0,1.0,0.0
2164,47.0,7.0,30.0,0.0,0.0
2165,59.0,43.0,30.0,0.0,0.0
2166,68.0,1.0,20.0,0.0,0.0
2167,51.0,1.0,330.0,1.0,0.0
2168,63.0,13.0,20.0,0.0,0.0
2169,75.0,53.0,30.0,0.0,0.0
2170,68.0,1.0,30.0,0.0,0.0
2171,47.0,3.0,30.0,0.0,0.0
2172,63.0,0.0,30.0,0.0,0.0
2173,35.0,0.0,30.0,0.0,0.0
2174,47.0,55.0,30.0,0.0,0.0
2175,35.0,2.0,20.0,0.0,0.0
2176,68.0,1.0,30.0,0.0,0.0
2177,63.0,1.0,20.0,0.0,0.0
2178,75.0,54.0,30.0,0.0,0.0
2179,47.0,1.0,20.0,0.0,0.0
2180,35.0,2.0,20.0,0.0,0.0
2181,35.0,47.0,20.0,0.0,0.0
2182,47.0,2.0,20.0,0.0,0.0
2183,47.0,1.0,15.0,0.0,0.0
2184,75.0,2.0,15.0,0.0,0.0
2185,68.0,4.0,15.0,0.0,0.0
2186,63.0,3.0,15.0,0.0,0.0
2187,35.0,4.0,20.0,0.0,0.0
2188,63.0,9.0,330.0,1.0,0.0
2189,51.0,4.0,360.0,1.0,0.0
2190,47.0,18.0,330.0,1.0,0.0
2191,68.0,3.0,360.0,1.0,0.0
2192,68.0,0.0,330.0,0.0,0.0
2193,77.0,0.0,30.0,0.0,0.0
2194,35.0,0.0,30.0,0.0,0.0
2195,47.0,30.0,30.0,0.0,0.0
2196,75.0,30.0,30.0,0.0,0.0
2197,47.0,0.0,30.0,0.0,0.0
2198,35.0,0.0,30.0,0.0,0.0
2199,74.0,30.0,30.0,0.0,0.0
2200,75.0,30.0,30.0,0.0,0.0
2201,35.0,0.0,30.0,0.0,0.0
2202,47.0,0.0,30.0,0.0,0.0
2203,77.0,30.0,30.0,0.0,0.0
2204,75.0,30.0,30.0,0.0,0.0
2205,35.0,0.0,30.0,0.0,0.0
2206,47.0,30.0,30.0,0.0,0.0
2207,74.0,0.0,30.0,0.0,0.0
2208,75.0,30.0,30.0,0.0,0.0
2209,77.0,0.0,30.0,0.0,0.0
2210,47.0,30.0,30.0,0.0,0.0
2211,35.0,0.0,30.0,0.0,0.0
2212,75.0,21.0,30.0,0.0,0.0
2213,74.0,0.0,30.0,0.0,0.0
2214,35.0,0.0,30.0,0.0,0.0
2215,47.0,5.0,30.0,0.0,0.0
2216,48.0,1.0,360.0,1.0,0.0
2217,63.0,0.0,330.0,1.0,0.0
2218,54.0,2.0,330.0,1.0,0.0
2219,69.0,42.0,360.0,1.0,0.0
2220,75.0,20.0,15.0,0.0,0.0
2221,48.0,7.0,30.0,0.0,0.0
2222,36.0,1.0,30.0,0.0,0.0
2223,69.0,5.0,20.0,0.0,0.0
2224,66.0,26.0,30.0,0.0,0.0
2225,36.0,1.0,20.0,0.0,0.0
2226,48.0,3.0,20.0,0.0,0.0
2227,69.0,3.0,30.0,0.0,0.0
2228,75.0,21.0,30.0,0.0,0.0
2229,66.0,33.0,20.0,0.0,0.0
2230,75.0,6.0,30.0,0.0,0.0
2231,48.0,0.0,30.0,0.0,0.0
2232,78.0,19.0,30.0,0.0,0.0
2233,36.0,2.0,20.0,0.0,0.0
2234,69.0,31.0,20.0,0.0,0.0
2235,36.0,10.0,20.0,0.0,0.0
2236,75.0,2.0,30.0,0.0,0.0
2237,48.0,0.0,20.0,0.0,0.0
2238,78.0,29.0,30.0,0.0,0.0
2239,69.0,17.0,30.0,0.0,0.0
2240,75.0,5.0,30.0,0.0,0.0
2241,48.0,2.0,20.0,0.0,0.0
2242,36.0,4.0,20.0,0.0,0.0
2243,78.0,18.0,30.0,0.0,0.0
2244,81.0,5.0,30.0,0.0,0.0
2245,69.0,24.0,20.0,0.0,0.0
2246,36.0,2.0,15.0,0.0,0.0
2247,81.0,3.0,30.0,0.0,0.0
2248,78.0,7.0,30.0,0.0,0.0
2249,75.0,8.0,30.0,0.0,0.0
2250,48.0,5.0,20.0,0.0,0.0
2251,69.0,5.0,15.0,0.0,0.0
2252,63.0,75.0,150.0,1.0,0.0
2253,48.0,3.0,90.0,1.0,0.0
2254,54.0,9.0,120.0,1.0,0.0
2255,68.0,22.0,90.0,1.0,0.0
2256,80.0,6.0,30.0,0.0,0.0
2257,48.0,1.0,90.0,0.0,0.0
2258,36.0,7.0,90.0,0.0,0.0
2259,78.0,2.0,30.0,0.0,0.0
2260,68.0,36.0,30.0,0.0,0.0
2261,75.0,0.0,30.0,0.0,0.0
2262,68.0,6.0,60.0,0.0,0.0
2263,56.0,116.0,90.0,0.0,0.0
2264,68.0,78.0,90.0,0.0,0.0
2265,56.0,6.0,60.0,0.0,0.0
2266,64.0,23.0,60.0,0.0,0.0
2267,68.0,15.0,30.0,0.0,0.0
2268,56.0,4.0,360.0,0.0,0.0
2269,49.0,58.0,120.0,0.0,0.0
2270,56.0,5.0,180.0,2.0,0.0
2271,63.0,4.0,15.0,0.0,0.0
2272,66.0,33.0,20.0,0.0,0.0
2273,66.0,5.0,60.0,0.0,0.0
2274,63.0,11.0,60.0,0.0,0.0
2275,51.0,38.0,120.0,0.0,0.0
2276,64.0,6.0,15.0,0.0,0.0
2277,61.0,41.0,20.0,0.0,0.0
2278,57.0,11.0,60.0,2.0,0.0
2279,52.0,56.0,120.0,0.0,0.0
2280,61.0,27.0,60.0,0.0,0.0
2281,64.0,3.0,60.0,0.0,0.0
2282,56.0,3.0,120.0,2.0,0.0
2283,63.0,33.0,20.0,0.0,0.0
2284,60.0,3.0,20.0,0.0,0.0
2285,60.0,1.0,60.0,0.0,0.0
2286,54.0,58.0,120.0,0.0,0.0
2287,63.0,55.0,60.0,0.0,0.0
2288,68.0,4.0,180.0,2.0,0.0
2289,56.0,1.0,60.0,0.0,0.0
2290,52.0,53.0,120.0,0.0,0.0
2291,64.0,61.0,60.0,0.0,0.0
2292,61.0,0.0,60.0,0.0,0.0
2293,69.0,1.0,60.0,2.0,0.0
2294,56.0,3.0,60.0,0.0,0.0
2295,68.0,26.0,90.0,2.0,0.0
2296,51.0,63.0,120.0,0.0,0.0
2297,63.0,3.0,60.0,0.0,0.0
2298,66.0,31.0,60.0,0.0,0.0
2299,56.0,1.0,60.0,0.0,0.0
2300,44.0,4.0,180.0,2.0,0.0
2301,52.0,8.0,120.0,2.0,0.0
2302,68.0,5.0,120.0,2.0,0.0
2303,68.0,45.0,60.0,0.0,0.0
2304,64.0,2.0,60.0,0.0,0.0
2305,49.0,5.0,120.0,0.0,0.0
2306,56.0,51.0,60.0,0.0,0.0
2307,51.0,3.0,120.0,2.0,0.0
2308,66.0,7.0,120.0,2.0,0.0
2309,51.0,55.0,120.0,0.0,0.0
2310,66.0,49.0,60.0,0.0,0.0
2311,63.0,2.0,60.0,0.0,0.0
2312,45.0,0.0,60.0,2.0,0.0
2313,56.0,3.0,60.0,0.0,0.0
2314,49.0,4.0,120.0,2.0,0.0
2315,44.0,3.0,120.0,2.0,0.0
2316,64.0,8.0,120.0,2.0,0.0
2317,64.0,43.0,60.0,0.0,0.0
2318,61.0,5.0,60.0,0.0,0.0
2319,52.0,55.0,120.0,0.0,0.0
2320,56.0,0.0,60.0,0.0,0.0
2321,63.0,3.0,120.0,2.0,0.0
2322,48.0,50.0,120.0,2.0,0.0
2323,54.0,8.0,120.0,0.0,0.0
2324,63.0,54.0,60.0,0.0,0.0
2325,56.0,57.0,180.0,2.0,0.0
2326,60.0,3.0,60.0,0.0,0.0
2327,56.0,2.0,60.0,0.0,0.0
2328,64.0,0.0,120.0,2.0,0.0
2329,52.0,51.0,120.0,0.0,0.0
2330,64.0,2.0,60.0,0.0,0.0
2331,61.0,4.0,60.0,0.0,0.0
2332,49.0,1.0,120.0,2.0,0.0
2333,57.0,6.0,60.0,2.0,0.0
2334,56.0,1.0,60.0,0.0,0.0
2335,66.0,3.0,120.0,2.0,0.0
2336,51.0,1.0,120.0,0.0,0.0
2337,63.0,3.0,60.0,0.0,0.0
2338,66.0,34.0,60.0,0.0,0.0
2339,56.0,16.0,90.0,2.0,0.0
2340,51.0,43.0,120.0,2.0,0.0
2341,56.0,10.0,360.0,0.0,0.0
2342,68.0,37.0,180.0,2.0,0.0
2343,49.0,1.0,120.0,2.0,0.0
2344,52.0,4.0,120.0,2.0,0.0
2345,56.0,9.0,120.0,2.0,0.0
2346,64.0,26.0,60.0,0.0,0.0
2347,68.0,15.0,30.0,0.0,0.0
2348,49.0,15.0,120.0,0.0,0.0
2349,66.0,31.0,20.0,0.0,0.0
2350,63.0,3.0,20.0,0.0,0.0
2351,51.0,5.0,120.0,2.0,0.0
2352,54.0,2.0,120.0,2.0,0.0
2353,60.0,1.0,120.0,2.0,0.0
2354,51.0,22.0,120.0,0.0,0.0
2355,66.0,20.0,30.0,0.0,0.0
2356,63.0,4.0,20.0,0.0,0.0
2357,69.0,4.0,60.0,2.0,0.0
2358,61.0,1.0,20.0,0.0,0.0
2359,64.0,23.0,20.0,0.0,0.0
2360,68.0,14.0,90.0,2.0,0.0
2361,61.0,13.0,120.0,2.0,0.0
2362,56.0,8.0,120.0,2.0,0.0
2363,52.0,1.0,120.0,2.0,0.0
2364,52.0,8.0,120.0,0.0,0.0
2365,64.0,38.0,30.0,0.0,0.0
2366,61.0,6.0,20.0,0.0,0.0
2367,60.0,8.0,15.0,0.0,0.0
2368,63.0,6.0,20.0,0.0,0.0
2369,51.0,3.0,210.0,2.0,0.0
2370,69.0,34.0,240.0,2.0,0.0
2371,54.0,47.0,150.0,2.0,0.0
2372,60.0,3.0,210.0,2.0,0.0
2373,60.0,2.0,15.0,0.0,0.0
2374,63.0,68.0,15.0,0.0,0.0
2375,54.0,10.0,120.0,0.0,0.0
2376,63.0,40.0,20.0,0.0,0.0
2377,57.0,11.0,120.0,0.0,0.0
2378,66.0,20.0,15.0,0.0,0.0
2379,69.0,6.0,20.0,0.0,0.0
2380,42.0,0.0,120.0,2.0,0.0
2381,60.0,1.0,120.0,2.0,0.0
2382,51.0,8.0,120.0,2.0,0.0
2383,69.0,59.0,150.0,2.0,0.0
2384,72.0,51.0,15.0,0.0,0.0
2385,54.0,20.0,120.0,0.0,0.0
2386,75.0,45.0,15.0,0.0,0.0
2387,52.0,13.0,180.0,2.0,0.0
2388,68.0,25.0,150.0,2.0,0.0
2389,40.0,10.0,210.0,2.0,0.0
2390,52.0,9.0,120.0,0.0,0.0
2391,64.0,45.0,20.0,0.0,0.0
2392,61.0,7.0,120.0,0.0,0.0
2393,68.0,21.0,15.0,0.0,0.0
2394,68.0,26.0,30.0,2.0,0.0
2395,73.0,4.0,20.0,0.0,0.0
2396,68.0,7.0,120.0,2.0,0.0
2397,40.0,4.0,120.0,2.0,0.0
2398,56.0,2.0,15.0,2.0,0.0
2399,56.0,2.0,120.0,0.0,0.0
2400,76.0,50.0,20.0,0.0,0.0
2401,61.0,16.0,15.0,2.0,0.0
2402,80.0,43.0,15.0,0.0,0.0
2403,63.0,8.0,120.0,2.0,0.0
2404,54.0,10.0,120.0,0.0,0.0
2405,57.0,59.0,150.0,2.0,0.0
2406,42.0,6.0,90.0,2.0,0.0
2407,63.0,1.0,15.0,0.0,0.0
2408,66.0,29.0,15.0,0.0,0.0
2409,44.0,4.0,240.0,2.0,0.0
2410,61.0,3.0,120.0,2.0,0.0
2411,56.0,3.0,120.0,2.0,0.0
2412,56.0,4.0,120.0,0.0,0.0
2413,61.0,34.0,15.0,0.0,0.0
2414,64.0,1.0,15.0,0.0,0.0
2415,54.0,4.0,120.0,2.0,0.0
2416,60.0,7.0,120.0,2.0,0.0
2417,44.0,1.0,120.0,0.0,0.0
2418,60.0,31.0,15.0,0.0,0.0
2419,63.0,5.0,15.0,0.0,0.0
2420,52.0,4.0,120.0,2.0,0.0
2421,49.0,33.0,120.0,2.0,0.0
2422,61.0,0.0,90.0,2.0,0.0
2423,37.0,8.0,60.0,0.0,0.0
2424,61.0,48.0,15.0,0.0,0.0
2425,49.0,16.0,60.0,0.0,0.0
2426,61.0,9.0,30.0,0.0,0.0
2427,56.0,4.0,15.0,0.0,0.0
2428,64.0,25.0,20.0,0.0,0.0
2429,25.0,6.0,90.0,0.0,0.0
2430,37.0,7.0,90.0,0.0,0.0
2431,61.0,28.0,20.0,0.0,0.0
2432,68.0,19.0,15.0,0.0,0.0
2433,64.0,40.0,20.0,0.0,0.0
2434,73.0,18.0,30.0,0.0,0.0
2435,68.0,29.0,15.0,0.0,0.0
2436,52.0,3.0,30.0,1.0,0.0
2437,76.0,28.0,20.0,0.0,0.0
2438,37.0,15.0,20.0,0.0,0.0
2439,49.0,2.0,20.0,0.0,0.0
2440,73.0,5.0,15.0,0.0,0.0
2441,52.0,5.0,120.0,1.0,0.0
2442,66.0,20.0,15.0,0.0,0.0
2443,73.0,0.0,60.0,0.0,0.0
2444,46.0,3.0,30.0,0.0,0.0
2445,36.0,26.0,30.0,0.0,0.0
2446,76.0,21.0,60.0,0.0,0.0
2447,66.0,23.0,60.0,0.0,0.0
2448,49.0,25.0,20.0,0.0,0.0
2449,54.0,5.0,20.0,0.0,0.0
2450,51.0,21.0,120.0,1.0,0.0
2451,46.0,5.0,15.0,0.0,0.0
2452,75.0,4.0,60.0,0.0,0.0
2453,58.0,43.0,20.0,0.0,0.0
2454,46.0,11.0,15.0,0.0,0.0
2455,58.0,12.0,20.0,0.0,0.0
2456,66.0,16.0,30.0,0.0,0.0
2457,50.0,32.0,120.0,1.0,0.0
2458,74.0,10.0,60.0,0.0,0.0
2459,64.0,24.0,30.0,0.0,0.0
2460,46.0,27.0,15.0,0.0,0.0
2461,58.0,1.0,30.0,0.0,0.0
2462,66.0,5.0,20.0,1.0,0.0
2463,34.0,19.0,20.0,0.0,0.0
2464,46.0,7.0,15.0,0.0,0.0
2465,66.0,0.0,60.0,0.0,0.0
2466,66.0,32.0,120.0,1.0,0.0
2467,51.0,14.0,60.0,1.0,0.0
2468,75.0,2.0,15.0,0.0,0.0
2469,71.0,50.0,15.0,0.0,0.0
2470,35.0,10.0,90.0,0.0,0.0
2471,47.0,4.0,90.0,0.0,0.0
2472,59.0,7.0,30.0,0.0,0.0
2473,51.0,12.0,15.0,1.0,0.0
2474,54.0,3.0,20.0,0.0,0.0
2475,51.0,6.0,120.0,1.0,0.0
2476,71.0,0.0,90.0,1.0,0.0
2477,47.0,6.0,150.0,0.0,0.0
2478,63.0,22.0,30.0,0.0,0.0
2479,59.0,35.0,20.0,0.0,0.0
2480,66.0,23.0,20.0,0.0,0.0
2481,63.0,24.0,20.0,0.0,0.0
2482,71.0,0.0,90.0,1.0,0.0
2483,71.0,40.0,20.0,0.0,0.0
2484,66.0,11.0,30.0,0.0,0.0
2485,63.0,4.0,30.0,1.0,0.0
2486,47.0,12.0,30.0,1.0,0.0
2487,75.0,12.0,30.0,0.0,0.0
2488,35.0,2.0,20.0,0.0,0.0
2489,47.0,58.0,20.0,0.0,0.0
2490,71.0,4.0,15.0,0.0,0.0
2491,63.0,4.0,120.0,1.0,0.0
2492,47.0,8.0,120.0,1.0,0.0
2493,71.0,4.0,90.0,1.0,0.0
2494,32.0,4.0,60.0,0.0,0.0
2495,75.0,1.0,60.0,0.0,0.0
2496,71.0,24.0,60.0,0.0,0.0
2497,44.0,15.0,60.0,0.0,0.0
2498,64.0,17.0,60.0,0.0,0.0
2499,47.0,6.0,30.0,0.0,0.0
2500,52.0,0.0,15.0,0.0,0.0
2501,64.0,5.0,15.0,1.0,0.0
2502,52.0,18.0,120.0,1.0,0.0
2503,61.0,3.0,120.0,1.0,0.0
2504,64.0,16.0,120.0,1.0,0.0
2505,73.0,11.0,60.0,0.0,0.0
2506,44.0,1.0,15.0,0.0,0.0
2507,56.0,45.0,15.0,0.0,0.0
2508,44.0,16.0,15.0,0.0,0.0
2509,64.0,7.0,60.0,0.0,0.0
2510,56.0,1.0,15.0,0.0,0.0
2511,60.0,10.0,120.0,1.0,0.0
2512,44.0,47.0,20.0,0.0,0.0
2513,56.0,6.0,15.0,0.0,0.0
2514,63.0,7.0,60.0,0.0,0.0
2515,72.0,4.0,60.0,0.0,0.0
2516,52.0,3.0,30.0,1.0,0.0
2517,44.0,3.0,15.0,0.0,0.0
2518,32.0,18.0,20.0,0.0,0.0
2519,64.0,27.0,60.0,0.0,0.0
2520,61.0,8.0,60.0,1.0,0.0
2521,52.0,2.0,90.0,1.0,0.0
2522,46.0,16.0,60.0,0.0,0.0
2523,34.0,7.0,60.0,0.0,0.0
2524,70.0,39.0,20.0,0.0,0.0
2525,73.0,1.0,20.0,0.0,0.0
2526,58.0,4.0,30.0,0.0,0.0
2527,46.0,13.0,20.0,1.0,0.0
2528,61.0,0.0,15.0,1.0,0.0
2529,52.0,5.0,20.0,0.0,0.0
2530,46.0,0.0,120.0,1.0,0.0
2531,61.0,13.0,120.0,1.0,0.0
2532,58.0,14.0,90.0,1.0,0.0
2533,61.0,31.0,20.0,0.0,0.0
2534,46.0,5.0,90.0,0.0,0.0
2535,58.0,13.0,30.0,0.0,0.0
2536,64.0,15.0,15.0,0.0,0.0
2537,61.0,30.0,30.0,0.0,0.0
2538,58.0,1.0,90.0,1.0,0.0
2539,70.0,27.0,30.0,0.0,0.0
2540,64.0,26.0,20.0,0.0,0.0
2541,73.0,5.0,30.0,1.0,0.0
2542,46.0,7.0,60.0,1.0,0.0
2543,64.0,9.0,60.0,1.0,0.0
2544,73.0,14.0,20.0,0.0,0.0
2545,46.0,0.0,20.0,0.0,0.0
2546,70.0,0.0,15.0,0.0,0.0
2547,34.0,50.0,20.0,0.0,0.0
2548,73.0,8.0,120.0,1.0,0.0
2549,58.0,6.0,90.0,1.0,0.0
2550,43.0,4.0,90.0,1.0,0.0
2551,63.0,5.0,90.0,1.0,0.0
2552,31.0,5.0,30.0,0.0,0.0
2553,43.0,9.0,60.0,0.0,0.0
2554,70.0,3.0,60.0,0.0,0.0
2555,73.0,12.0,60.0,0.0,0.0
2556,46.0,4.0,20.0,0.0,0.0
2557,63.0,21.0,60.0,0.0,0.0
2558,51.0,6.0,15.0,1.0,0.0
2559,51.0,7.0,15.0,0.0,0.0
2560,51.0,5.0,120.0,1.0,0.0
2561,71.0,30.0,120.0,1.0,0.0
2562,43.0,13.0,120.0,1.0,0.0
2563,63.0,2.0,90.0,1.0,0.0
2564,71.0,8.0,60.0,0.0,0.0
2565,43.0,51.0,15.0,0.0,0.0
2566,55.0,0.0,15.0,0.0,0.0
2567,63.0,2.0,30.0,0.0,0.0
2568,43.0,1.0,15.0,0.0,0.0
2569,55.0,17.0,15.0,0.0,0.0
2570,63.0,15.0,90.0,1.0,0.0
2571,61.0,3.0,120.0,1.0,0.0
2572,55.0,12.0,120.0,1.0,0.0
2573,70.0,31.0,120.0,1.0,0.0
2574,70.0,6.0,60.0,0.0,0.0
2575,43.0,3.0,20.0,0.0,0.0
2576,55.0,10.0,30.0,0.0,0.0
2577,61.0,31.0,30.0,0.0,0.0
2578,63.0,5.0,30.0,0.0,0.0
2579,43.0,1.0,20.0,0.0,0.0
2580,31.0,7.0,15.0,0.0,0.0
2581,63.0,0.0,90.0,1.0,0.0
2582,59.0,52.0,90.0,1.0,0.0
2583,71.0,0.0,150.0,1.0,0.0
2584,56.0,5.0,150.0,1.0,0.0
2585,44.0,0.0,30.0,0.0,0.0
2586,32.0,45.0,30.0,0.0,0.0
2587,71.0,4.0,30.0,0.0,0.0
2588,63.0,2.0,30.0,0.0,0.0
2589,71.0,2.0,90.0,0.0,0.0
2590,63.0,43.0,90.0,0.0,0.0
2591,75.0,2.0,90.0,0.0,0.0
2592,56.0,5.0,20.0,0.0,0.0
2593,44.0,4.0,20.0,0.0,0.0
2594,63.0,9.0,90.0,1.0,0.0
2595,59.0,2.0,120.0,1.0,0.0
2596,44.0,1.0,20.0,0.0,0.0
2597,56.0,0.0,20.0,0.0,0.0
2598,56.0,6.0,60.0,1.0,0.0
2599,71.0,1.0,60.0,1.0,0.0
2600,44.0,7.0,20.0,0.0,0.0
2601,75.0,21.0,60.0,0.0,0.0
2602,56.0,21.0,30.0,0.0,0.0
2603,63.0,1.0,60.0,0.0,0.0
2604,71.0,1.0,60.0,0.0,0.0
2605,54.0,2.0,120.0,1.0,0.0
2606,58.0,7.0,120.0,1.0,0.0
2607,75.0,11.0,120.0,1.0,0.0
2608,63.0,2.0,120.0,1.0,0.0
2609,42.0,1.0,20.0,0.0,0.0
2610,70.0,38.0,30.0,0.0,0.0
2611,54.0,14.0,20.0,0.0,0.0
2612,42.0,5.0,20.0,0.0,0.0
2613,70.0,3.0,15.0,0.0,0.0
2614,54.0,19.0,20.0,0.0,0.0
2615,75.0,2.0,15.0,0.0,0.0
2616,52.0,0.0,150.0,1.0,0.0
2617,68.0,2.0,150.0,1.0,0.0
2618,56.0,3.0,150.0,1.0,0.0
2619,74.0,20.0,150.0,1.0,0.0
2620,52.0,1.0,20.0,0.0,0.0
2621,82.0,14.0,15.0,0.0,0.0
2622,71.0,5.0,30.0,0.0,0.0
2623,40.0,23.0,20.0,0.0,0.0
2624,80.0,24.0,20.0,0.0,0.0
2625,71.0,2.0,60.0,0.0,0.0
2626,79.0,7.0,15.0,0.0,0.0
2627,52.0,16.0,20.0,0.0,0.0
2628,40.0,1.0,20.0,0.0,0.0
2629,80.0,21.0,20.0,0.0,0.0
2630,71.0,0.0,60.0,0.0,0.0
2631,40.0,4.0,20.0,0.0,0.0
2632,52.0,7.0,15.0,0.0,0.0
2633,82.0,2.0,20.0,0.0,0.0
2634,80.0,25.0,20.0,0.0,0.0
2635,68.0,6.0,30.0,1.0,0.0
2636,52.0,0.0,30.0,1.0,0.0
2637,74.0,9.0,30.0,1.0,0.0
2638,56.0,2.0,30.0,1.0,0.0
2639,79.0,13.0,30.0,0.0,0.0
2640,71.0,2.0,60.0,0.0,0.0
2641,40.0,1.0,15.0,0.0,0.0
2642,52.0,2.0,15.0,0.0,0.0
2643,80.0,26.0,20.0,0.0,0.0
2644,52.0,3.0,120.0,1.0,0.0
2645,68.0,1.0,120.0,1.0,0.0
2646,56.0,8.0,120.0,1.0,0.0
2647,74.0,9.0,120.0,1.0,0.0
2648,82.0,31.0,30.0,0.0,0.0
2649,52.0,2.0,15.0,0.0,0.0
2650,40.0,7.0,20.0,0.0,0.0
2651,80.0,10.0,30.0,0.0,0.0
2652,79.0,10.0,30.0,0.0,0.0
2653,52.0,2.0,15.0,0.0,0.0
2654,71.0,8.0,15.0,0.0,0.0
2655,40.0,10.0,15.0,0.0,0.0
2656,80.0,9.0,15.0,0.0,0.0
2657,67.0,11.0,120.0,1.0,0.0
2658,51.0,7.0,330.0,1.0,0.0
2659,75.0,3.0,330.0,1.0,0.0
2660,58.0,7.0,120.0,1.0,0.0
2661,79.0,1.0,30.0,0.0,0.0
2662,51.0,10.0,20.0,0.0,0.0
2663,39.0,4.0,20.0,0.0,0.0
2664,75.0,27.0,30.0,0.0,0.0
2665,70.0,15.0,30.0,0.0,0.0
2666,51.0,10.0,15.0,0.0,0.0
2667,39.0,2.0,15.0,0.0,0.0
2668,79.0,3.0,30.0,0.0,0.0
2669,75.0,14.0,30.0,0.0,0.0
2670,70.0,14.0,30.0,0.0,0.0
2671,59.0,12.0,90.0,1.0,0.0
2672,68.0,2.0,90.0,1.0,0.0
2673,80.0,31.0,30.0,0.0,0.0
2674,51.0,15.0,15.0,0.0,0.0
2675,39.0,0.0,15.0,0.0,0.0
2676,75.0,0.0,30.0,0.0,0.0
2677,71.0,13.0,30.0,0.0,0.0
2678,80.0,4.0,30.0,0.0,0.0
2679,39.0,0.0,15.0,0.0,0.0
2680,75.0,8.0,30.0,0.0,0.0
2681,51.0,1.0,15.0,0.0,0.0
2682,67.0,14.0,20.0,1.0,0.0
2683,58.0,19.0,30.0,1.0,0.0
2684,71.0,1.0,30.0,0.0,0.0
2685,68.0,6.0,120.0,1.0,0.0
2686,59.0,0.0,120.0,1.0,0.0
2687,83.0,28.0,30.0,0.0,0.0
2688,80.0,2.0,30.0,0.0,0.0
2689,39.0,14.0,15.0,0.0,0.0
2690,51.0,0.0,15.0,0.0,0.0
2691,75.0,1.0,30.0,0.0,0.0
2692,71.0,13.0,30.0,0.0,0.0
2693,39.0,1.0,15.0,0.0,0.0
2694,51.0,5.0,15.0,0.0,0.0
2695,83.0,5.0,30.0,0.0,0.0
2696,75.0,4.0,30.0,0.0,0.0
2697,80.0,3.0,30.0,0.0,0.0
2698,71.0,44.0,20.0,0.0,0.0
2699,51.0,16.0,150.0,1.0,0.0
2700,67.0,8.0,120.0,1.0,0.0
2701,75.0,17.0,120.0,1.0,0.0
2702,58.0,1.0,120.0,1.0,0.0
2703,51.0,3.0,30.0,0.0,0.0
2704,82.0,1.0,30.0,0.0,0.0
2705,39.0,0.0,30.0,0.0,0.0
2706,79.0,0.0,30.0,0.0,0.0
2707,75.0,56.0,30.0,0.0,0.0
2708,63.0,3.0,15.0,0.0,0.0
2709,75.0,115.0,15.0,0.0,0.0
2710,75.0,159.0,15.0,0.0,0.0
2711,63.0,4.0,15.0,0.0,0.0
2712,44.0,50.0,120.0,0.0,0.0
2713,75.0,58.0,60.0,0.0,0.0
2714,71.0,1.0,60.0,0.0,0.0
2715,63.0,51.0,180.0,2.0,0.0
2716,63.0,12.0,60.0,0.0,0.0
2717,73.0,1.0,60.0,0.0,0.0
2718,70.0,7.0,60.0,0.0,0.0
2719,46.0,4.0,120.0,0.0,0.0
2720,64.0,57.0,60.0,2.0,0.0
2721,63.0,1.0,60.0,0.0,0.0
2722,63.0,26.0,90.0,2.0,0.0
2723,71.0,28.0,60.0,0.0,0.0
2724,68.0,4.0,60.0,0.0,0.0
2725,47.0,59.0,120.0,0.0,0.0
2726,63.0,2.0,60.0,0.0,0.0
2727,49.0,5.0,120.0,2.0,0.0
2728,55.0,3.0,120.0,2.0,0.0
2729,70.0,1.0,60.0,0.0,0.0
2730,67.0,53.0,60.0,0.0,0.0
2731,63.0,18.0,330.0,2.0,0.0
2732,49.0,52.0,120.0,0.0,0.0
2733,63.0,11.0,60.0,0.0,0.0
2734,47.0,6.0,120.0,2.0,0.0
2735,56.0,63.0,150.0,2.0,0.0
2736,71.0,54.0,60.0,0.0,0.0
2737,47.0,7.0,120.0,0.0,0.0
2738,68.0,0.0,60.0,0.0,0.0
2739,63.0,0.0,60.0,0.0,0.0
2740,58.0,50.0,120.0,2.0,0.0
2741,46.0,2.0,120.0,2.0,0.0
2742,70.0,2.0,60.0,0.0,0.0
2743,46.0,2.0,120.0,0.0,0.0
2744,73.0,0.0,60.0,0.0,0.0
2745,63.0,24.0,15.0,0.0,0.0
2746,59.0,2.0,120.0,2.0,0.0
2747,44.0,58.0,120.0,2.0,0.0
2748,63.0,47.0,180.0,2.0,0.0
2749,44.0,2.0,120.0,0.0,0.0
2750,75.0,0.0,480.0,0.0,0.0
2751,71.0,66.0,60.0,0.0,0.0
2752,63.0,1.0,60.0,0.0,0.0
2753,58.0,5.0,120.0,2.0,0.0
2754,46.0,1.0,120.0,2.0,0.0
2755,67.0,4.0,60.0,0.0,0.0
2756,46.0,56.0,120.0,0.0,0.0
2757,73.0,2.0,60.0,0.0,0.0
2758,64.0,2.0,60.0,2.0,0.0
2759,63.0,2.0,60.0,0.0,0.0
2760,63.0,35.0,90.0,2.0,0.0
2761,56.0,2.0,120.0,2.0,0.0
2762,47.0,11.0,120.0,2.0,0.0
2763,71.0,1.0,60.0,0.0,0.0
2764,47.0,7.0,120.0,0.0,0.0
2765,68.0,12.0,60.0,0.0,0.0
2766,63.0,50.0,60.0,0.0,0.0
2767,49.0,11.0,120.0,2.0,0.0
2768,63.0,4.0,540.0,2.0,0.0
2769,55.0,2.0,120.0,2.0,0.0
2770,70.0,4.0,60.0,0.0,0.0
2771,49.0,2.0,120.0,0.0,0.0
2772,67.0,49.0,60.0,0.0,0.0
2773,63.0,48.0,60.0,0.0,0.0
2774,47.0,9.0,120.0,2.0,0.0
2775,56.0,5.0,120.0,2.0,0.0
2776,68.0,4.0,60.0,0.0,0.0
2777,47.0,57.0,120.0,0.0,0.0
2778,71.0,36.0,60.0,0.0,0.0
2779,63.0,2.0,60.0,0.0,0.0
2780,76.0,14.0,30.0,0.0,0.0
2781,46.0,3.0,120.0,2.0,0.0
2782,58.0,4.0,120.0,2.0,0.0
2783,75.0,10.0,420.0,0.0,0.0
2784,73.0,4.0,60.0,0.0,0.0
2785,70.0,48.0,60.0,0.0,0.0
2786,46.0,8.0,120.0,0.0,0.0
2787,63.0,57.0,60.0,0.0,0.0
2788,44.0,1.0,120.0,2.0,0.0
2789,59.0,51.0,120.0,2.0,0.0
2790,44.0,2.0,120.0,0.0,0.0
2791,71.0,56.0,60.0,0.0,0.0
2792,63.0,2.0,60.0,0.0,0.0
2793,46.0,7.0,120.0,2.0,0.0
2794,58.0,2.0,120.0,2.0,0.0
2795,67.0,12.0,60.0,0.0,0.0
2796,73.0,38.0,60.0,0.0,0.0
2797,46.0,2.0,120.0,0.0,0.0
2798,64.0,6.0,60.0,2.0,0.0
2799,63.0,61.0,60.0,0.0,0.0
2800,47.0,8.0,120.0,2.0,0.0
2801,63.0,87.0,120.0,2.0,0.0
2802,56.0,0.0,120.0,2.0,0.0
2803,68.0,4.0,60.0,0.0,0.0
2804,71.0,3.0,60.0,0.0,0.0
2805,47.0,6.0,120.0,0.0,0.0
2806,63.0,16.0,20.0,0.0,0.0
2807,48.0,5.0,240.0,2.0,0.0
2808,51.0,5.0,210.0,2.0,0.0
2809,66.0,1.0,210.0,2.0,0.0
2810,48.0,16.0,180.0,0.0,0.0
2811,54.0,61.0,90.0,0.0,0.0
2812,63.0,2.0,20.0,0.0,0.0
2813,68.0,47.0,20.0,0.0,0.0
2814,63.0,35.0,90.0,0.0,0.0
2815,72.0,3.0,15.0,0.0,0.0
2816,48.0,1.0,120.0,2.0,0.0
2817,51.0,83.0,120.0,2.0,0.0
2818,66.0,4.0,120.0,2.0,0.0
2819,48.0,3.0,120.0,0.0,0.0
2820,75.0,54.0,15.0,0.0,0.0
2821,56.0,33.0,90.0,0.0,0.0
2822,80.0,14.0,15.0,0.0,0.0
2823,49.0,20.0,240.0,2.0,0.0
2824,64.0,3.0,240.0,2.0,0.0
2825,52.0,0.0,240.0,2.0,0.0
2826,52.0,36.0,210.0,0.0,0.0
2827,49.0,46.0,150.0,0.0,0.0
2828,64.0,46.0,30.0,0.0,0.0
2829,68.0,13.0,15.0,0.0,0.0
2830,63.0,4.0,120.0,0.0,0.0
2831,73.0,7.0,15.0,0.0,0.0
2832,54.0,0.0,120.0,2.0,0.0
2833,51.0,9.0,120.0,2.0,0.0
2834,63.0,2.0,90.0,2.0,0.0
2835,72.0,49.0,20.0,0.0,0.0
2836,56.0,87.0,120.0,0.0,0.0
2837,49.0,17.0,90.0,0.0,0.0
2838,80.0,25.0,15.0,0.0,0.0
2839,52.0,3.0,360.0,2.0,0.0
2840,56.0,4.0,360.0,2.0,0.0
2841,63.0,6.0,120.0,2.0,0.0
2842,52.0,8.0,120.0,0.0,0.0
2843,60.0,29.0,30.0,0.0,0.0
2844,61.0,13.0,120.0,2.0,0.0
2845,61.0,71.0,15.0,0.0,0.0
2846,56.0,4.0,120.0,0.0,0.0
2847,68.0,37.0,30.0,0.0,0.0
2848,74.0,54.0,20.0,0.0,0.0
2849,62.0,37.0,90.0,0.0,0.0
2850,62.0,44.0,120.0,2.0,0.0
2851,80.0,4.0,15.0,0.0,0.0
2852,51.0,85.0,120.0,2.0,0.0
2853,58.0,6.0,120.0,2.0,0.0
2854,79.0,36.0,90.0,0.0,0.0
2855,70.0,1.0,90.0,0.0,0.0
2856,75.0,2.0,90.0,0.0,0.0
2857,51.0,17.0,60.0,0.0,0.0
2858,63.0,0.0,120.0,2.0,0.0
2859,63.0,14.0,60.0,0.0,0.0
2860,51.0,30.0,90.0,0.0,0.0
2861,39.0,4.0,90.0,0.0,0.0
2862,63.0,2.0,20.0,0.0,0.0
2863,65.0,14.0,20.0,0.0,0.0
2864,67.0,86.0,15.0,0.0,0.0
2865,67.0,23.0,15.0,0.0,0.0
2866,68.0,78.0,20.0,0.0,0.0
2867,39.0,16.0,90.0,0.0,0.0
2868,51.0,4.0,90.0,0.0,0.0
2869,70.0,0.0,90.0,0.0,0.0
2870,58.0,1.0,90.0,0.0,0.0
2871,63.0,90.0,90.0,0.0,0.0
2872,27.0,9.0,60.0,0.0,0.0
2873,39.0,21.0,90.0,0.0,0.0
2874,63.0,10.0,20.0,0.0,0.0
2875,67.0,8.0,15.0,0.0,0.0
2876,65.0,9.0,20.0,0.0,0.0
2877,68.0,7.0,15.0,0.0,0.0
2878,70.0,66.0,20.0,0.0,0.0
2879,67.0,2.0,20.0,0.0,0.0
2880,70.0,11.0,15.0,0.0,0.0
2881,67.0,9.0,20.0,0.0,0.0
2882,72.0,2.0,15.0,0.0,0.0
2883,68.0,77.0,20.0,0.0,0.0
2884,70.0,1.0,90.0,0.0,0.0
2885,73.0,19.0,120.0,0.0,0.0
2886,51.0,14.0,60.0,0.0,0.0
2887,39.0,2.0,60.0,0.0,0.0
2888,69.0,8.0,30.0,0.0,0.0
2889,72.0,5.0,20.0,0.0,0.0
2890,63.0,30.0,20.0,0.0,0.0
2891,73.0,29.0,30.0,0.0,0.0
2892,39.0,1.0,90.0,0.0,0.0
2893,51.0,6.0,90.0,0.0,0.0
2894,70.0,2.0,20.0,0.0,0.0
2895,63.0,21.0,30.0,0.0,0.0
2896,72.0,2.0,20.0,0.0,0.0
2897,69.0,33.0,30.0,0.0,0.0
2898,63.0,25.0,30.0,0.0,0.0
2899,51.0,10.0,60.0,0.0,0.0
2900,39.0,1.0,60.0,0.0,0.0
2901,73.0,34.0,30.0,0.0,0.0
2902,70.0,4.0,20.0,0.0,0.0
2903,63.0,10.0,30.0,0.0,0.0
2904,72.0,3.0,20.0,0.0,0.0
2905,69.0,34.0,30.0,0.0,0.0
2906,63.0,23.0,30.0,0.0,0.0
2907,39.0,2.0,20.0,0.0,0.0
2908,70.0,2.0,20.0,0.0,0.0
2909,51.0,39.0,30.0,0.0,0.0
2910,73.0,0.0,30.0,0.0,0.0
2911,63.0,17.0,30.0,0.0,0.0
2912,51.0,4.0,30.0,0.0,0.0
2913,39.0,3.0,20.0,0.0,0.0
2914,72.0,1.0,30.0,0.0,0.0
2915,69.0,26.0,30.0,0.0,0.0
2916,63.0,27.0,30.0,0.0,0.0
2917,73.0,2.0,30.0,0.0,0.0
2918,39.0,1.0,20.0,0.0,0.0
2919,51.0,32.0,30.0,0.0,0.0
2920,70.0,1.0,20.0,0.0,0.0
2921,63.0,21.0,30.0,0.0,0.0
2922,72.0,2.0,30.0,0.0,0.0
2923,39.0,4.0,20.0,0.0,0.0
2924,51.0,4.0,20.0,0.0,0.0
2925,75.0,17.0,30.0,0.0,0.0
2926,63.0,33.0,15.0,0.0,0.0
2927,39.0,3.0,20.0,0.0,0.0
2928,77.0,2.0,20.0,0.0,0.0
2929,51.0,0.0,20.0,0.0,0.0
2930,73.0,32.0,30.0,0.0,0.0
2931,70.0,28.0,30.0,0.0,0.0
2932,51.0,0.0,30.0,0.0,0.0
2933,79.0,1.0,30.0,0.0,0.0
2934,73.0,16.0,30.0,0.0,0.0
2935,39.0,3.0,30.0,0.0,0.0
2936,70.0,58.0,15.0,0.0,0.0
2937,68.0,2.0,150.0,1.0,0.0
2938,32.0,8.0,30.0,0.0,0.0
2939,44.0,44.0,60.0,0.0,0.0
2940,80.0,1.0,330.0,0.0,0.0
2941,68.0,33.0,330.0,0.0,0.0
2942,75.0,0.0,330.0,0.0,0.0
2943,72.0,1.0,330.0,0.0,0.0
2944,60.0,2.0,150.0,1.0,0.0
2945,51.0,4.0,150.0,1.0,0.0
2946,44.0,32.0,150.0,1.0,0.0
2947,48.0,19.0,30.0,0.0,0.0
2948,51.0,21.0,20.0,0.0,0.0
2949,44.0,3.0,15.0,0.0,0.0
2950,56.0,15.0,20.0,0.0,0.0
2951,68.0,5.0,30.0,1.0,0.0
2952,60.0,1.0,30.0,1.0,0.0
2953,51.0,43.0,30.0,1.0,0.0
2954,44.0,4.0,30.0,1.0,0.0
2955,56.0,12.0,15.0,0.0,0.0
2956,44.0,1.0,15.0,0.0,0.0
2957,68.0,8.0,60.0,1.0,0.0
2958,60.0,1.0,120.0,1.0,0.0
2959,51.0,12.0,90.0,1.0,0.0
2960,44.0,0.0,90.0,1.0,0.0
2961,44.0,1.0,20.0,0.0,0.0
2962,56.0,48.0,20.0,0.0,0.0
2963,56.0,12.0,15.0,0.0,0.0
2964,56.0,62.0,15.0,0.0,0.0
2965,56.0,58.0,20.0,0.0,0.0
2966,60.0,23.0,90.0,0.0,0.0
2967,56.0,60.0,15.0,0.0,0.0
2968,60.0,4.0,120.0,1.0,0.0
2969,56.0,21.0,15.0,0.0,0.0
2970,63.0,2.0,20.0,0.0,0.0
2971,61.0,23.0,60.0,0.0,0.0
2972,56.0,36.0,20.0,0.0,0.0
2973,61.0,6.0,120.0,1.0,0.0
2974,60.0,27.0,30.0,0.0,0.0
2975,56.0,8.0,20.0,0.0,0.0
2976,61.0,19.0,30.0,0.0,0.0
2977,63.0,4.0,120.0,1.0,0.0
2978,63.0,5.0,120.0,0.0,0.0
2979,56.0,61.0,20.0,0.0,0.0
2980,56.0,31.0,20.0,0.0,0.0
2981,60.0,22.0,15.0,1.0,0.0
2982,56.0,14.0,120.0,1.0,0.0
2983,60.0,9.0,120.0,0.0,0.0
2984,56.0,61.0,20.0,0.0,0.0
2985,56.0,28.0,20.0,0.0,0.0
2986,65.0,10.0,120.0,1.0,0.0
2987,61.0,18.0,120.0,1.0,0.0
2988,61.0,6.0,15.0,0.0,0.0
2989,56.0,57.0,20.0,0.0,0.0
2990,65.0,1.0,15.0,0.0,0.0
2991,56.0,28.0,20.0,0.0,0.0
2992,73.0,14.0,120.0,1.0,0.0
2993,65.0,5.0,120.0,1.0,0.0
2994,65.0,6.0,15.0,0.0,0.0
2995,56.0,58.0,20.0,0.0,0.0
2996,73.0,0.0,15.0,0.0,0.0
2997,56.0,38.0,20.0,0.0,0.0
2998,70.0,14.0,120.0,1.0,0.0
2999,61.0,6.0,120.0,1.0,0.0
3000,56.0,56.0,30.0,0.0,0.0
3001,70.0,9.0,15.0,0.0,0.0
3002,61.0,1.0,15.0,0.0,0.0
3003,56.0,36.0,20.0,0.0,0.0
3004,58.0,2.0,120.0,1.0,0.0
3005,58.0,6.0,15.0,0.0,0.0
3006,67.0,70.0,20.0,0.0,0.0
3007,56.0,0.0,15.0,0.0,0.0
3008,67.0,65.0,120.0,1.0,0.0
3009,56.0,13.0,30.0,0.0,0.0
3010,44.0,37.0,210.0,1.0,0.0
3011,51.0,3.0,210.0,1.0,0.0
3012,60.0,1.0,210.0,1.0,0.0
3013,32.0,5.0,60.0,0.0,0.0
3014,68.0,2.0,180.0,1.0,0.0
3015,44.0,28.0,60.0,0.0,0.0
3016,75.0,1.0,360.0,0.0,0.0
3017,80.0,20.0,360.0,0.0,0.0
3018,68.0,0.0,360.0,0.0,0.0
3019,72.0,2.0,360.0,0.0,0.0
3020,48.0,22.0,30.0,0.0,0.0
3021,51.0,31.0,20.0,0.0,0.0
3022,56.0,54.0,20.0,0.0,0.0
3023,44.0,2.0,20.0,0.0,0.0
3024,56.0,12.0,20.0,0.0,0.0
3025,44.0,3.0,15.0,0.0,0.0
3026,60.0,14.0,120.0,1.0,0.0
3027,51.0,12.0,90.0,1.0,0.0
3028,44.0,3.0,90.0,1.0,0.0
3029,68.0,1.0,120.0,1.0,0.0
3030,44.0,9.0,15.0,0.0,0.0
3031,56.0,56.0,20.0,0.0,0.0
3032,56.0,7.0,20.0,0.0,0.0
3033,56.0,66.0,20.0,0.0,0.0
3034,56.0,55.0,20.0,0.0,0.0
3035,56.0,4.0,120.0,1.0,0.0
3036,60.0,18.0,120.0,1.0,0.0
3037,56.0,61.0,20.0,0.0,0.0
3038,60.0,20.0,90.0,0.0,0.0
3039,56.0,5.0,20.0,0.0,0.0
3040,63.0,13.0,15.0,0.0,0.0
3041,61.0,30.0,60.0,0.0,0.0
3042,61.0,8.0,120.0,1.0,0.0
3043,58.0,18.0,120.0,1.0,0.0
3044,56.0,25.0,20.0,0.0,0.0
3045,60.0,5.0,30.0,0.0,0.0
3046,56.0,22.0,20.0,0.0,0.0
3047,61.0,13.0,30.0,0.0,0.0
3048,63.0,8.0,120.0,0.0,0.0
3049,63.0,30.0,120.0,1.0,0.0
3050,60.0,1.0,120.0,1.0,0.0
3051,56.0,58.0,20.0,0.0,0.0
3052,56.0,23.0,20.0,0.0,0.0
3053,56.0,17.0,120.0,1.0,0.0
3054,60.0,5.0,120.0,1.0,0.0
3055,60.0,3.0,120.0,0.0,0.0
3056,56.0,60.0,20.0,0.0,0.0
3057,56.0,31.0,20.0,0.0,0.0
3058,65.0,18.0,120.0,1.0,0.0
3059,61.0,0.0,120.0,1.0,0.0
3060,61.0,4.0,15.0,0.0,0.0
3061,65.0,1.0,20.0,0.0,0.0
3062,56.0,61.0,20.0,0.0,0.0
3063,56.0,26.0,20.0,0.0,0.0
3064,73.0,10.0,240.0,1.0,0.0
3065,65.0,5.0,240.0,1.0,0.0
3066,77.0,13.0,15.0,0.0,0.0
3067,56.0,55.0,20.0,0.0,0.0
3068,73.0,4.0,15.0,0.0,0.0
3069,56.0,48.0,20.0,0.0,0.0
3070,65.0,0.0,15.0,0.0,0.0
3071,56.0,57.0,20.0,0.0,0.0
3072,73.0,12.0,15.0,0.0,0.0
3073,68.0,3.0,15.0,0.0,0.0
3074,56.0,34.0,20.0,0.0,0.0
3075,70.0,67.0,120.0,1.0,0.0
3076,63.0,2.0,90.0,1.0,0.0
3077,70.0,8.0,15.0,0.0,0.0
3078,61.0,3.0,15.0,0.0,0.0
3079,56.0,60.0,20.0,0.0,0.0
3080,67.0,3.0,15.0,0.0,0.0
3081,56.0,19.0,20.0,0.0,0.0
3082,44.0,1.0,180.0,1.0,0.0
3083,63.0,1.0,150.0,1.0,0.0
3084,56.0,8.0,150.0,1.0,0.0
3085,44.0,5.0,60.0,0.0,0.0
3086,72.0,1.0,60.0,0.0,0.0
3087,63.0,27.0,60.0,0.0,0.0
3088,68.0,3.0,60.0,0.0,0.0
3089,32.0,7.0,60.0,0.0,0.0
3090,72.0,23.0,150.0,1.0,0.0
3091,48.0,19.0,30.0,0.0,0.0
3092,51.0,26.0,20.0,0.0,0.0
3093,56.0,5.0,20.0,0.0,0.0
3094,44.0,3.0,20.0,0.0,0.0
3095,60.0,18.0,60.0,0.0,0.0
3096,72.0,0.0,30.0,1.0,0.0
3097,56.0,1.0,30.0,1.0,0.0
3098,44.0,2.0,30.0,1.0,0.0
3099,63.0,35.0,30.0,1.0,0.0
3100,56.0,3.0,20.0,0.0,0.0
3101,44.0,3.0,15.0,0.0,0.0
3102,63.0,12.0,90.0,1.0,0.0
3103,44.0,38.0,120.0,1.0,0.0
3104,72.0,5.0,120.0,1.0,0.0
3105,56.0,2.0,120.0,1.0,0.0
3106,60.0,11.0,60.0,0.0,0.0
3107,56.0,20.0,15.0,0.0,0.0
3108,44.0,39.0,20.0,0.0,0.0
3109,56.0,8.0,20.0,0.0,0.0
3110,63.0,7.0,15.0,0.0,0.0
3111,56.0,4.0,60.0,1.0,0.0
3112,60.0,7.0,60.0,1.0,0.0
3113,68.0,12.0,60.0,1.0,0.0
3114,63.0,12.0,60.0,1.0,0.0
3115,63.0,1.0,20.0,0.0,0.0
3116,44.0,6.0,90.0,0.0,0.0
3117,32.0,2.0,90.0,0.0,0.0
3118,68.0,20.0,30.0,0.0,0.0
3119,60.0,4.0,30.0,0.0,0.0
3120,63.0,4.0,30.0,0.0,0.0
3121,68.0,0.0,20.0,0.0,0.0
3122,56.0,3.0,15.0,1.0,0.0
3123,68.0,1.0,20.0,1.0,0.0
3124,60.0,4.0,15.0,1.0,0.0
3125,60.0,23.0,30.0,0.0,0.0
3126,63.0,19.0,15.0,1.0,0.0
3127,56.0,1.0,120.0,1.0,0.0
3128,68.0,2.0,120.0,1.0,0.0
3129,60.0,0.0,90.0,1.0,0.0
3130,63.0,5.0,120.0,1.0,0.0
3131,56.0,7.0,120.0,0.0,0.0
3132,63.0,37.0,30.0,0.0,0.0
3133,68.0,2.0,30.0,0.0,0.0
3134,44.0,19.0,120.0,0.0,0.0
3135,60.0,25.0,30.0,0.0,0.0
3136,63.0,9.0,30.0,0.0,0.0
3137,68.0,2.0,30.0,0.0,0.0
3138,60.0,13.0,30.0,0.0,0.0
3139,63.0,8.0,30.0,0.0,0.0
3140,72.0,25.0,30.0,0.0,0.0
3141,72.0,21.0,60.0,1.0,0.0
3142,60.0,5.0,30.0,0.0,0.0
3143,68.0,0.0,30.0,1.0,0.0
3144,63.0,7.0,30.0,0.0,0.0
3145,68.0,4.0,30.0,0.0,0.0
3146,60.0,7.0,15.0,0.0,0.0
3147,32.0,41.0,15.0,0.0,0.0
3148,44.0,2.0,15.0,0.0,0.0
3149,55.0,3.0,60.0,1.0,0.0
3150,70.0,2.0,120.0,1.0,0.0
3151,63.0,1.0,60.0,1.0,0.0
3152,58.0,5.0,60.0,1.0,0.0
3153,75.0,11.0,30.0,0.0,0.0
3154,43.0,5.0,60.0,0.0,0.0
3155,31.0,10.0,60.0,0.0,0.0
3156,70.0,7.0,30.0,0.0,0.0
3157,63.0,16.0,30.0,0.0,0.0
3158,46.0,5.0,30.0,0.0,0.0
3159,70.0,3.0,30.0,0.0,0.0
3160,75.0,9.0,30.0,0.0,0.0
3161,55.0,2.0,15.0,1.0,0.0
3162,58.0,2.0,15.0,1.0,0.0
3163,63.0,15.0,30.0,0.0,0.0
3164,63.0,15.0,20.0,1.0,0.0
3165,51.0,0.0,15.0,0.0,0.0
3166,55.0,4.0,90.0,1.0,0.0
3167,63.0,13.0,90.0,1.0,0.0
3168,70.0,4.0,20.0,0.0,0.0
3169,55.0,2.0,20.0,0.0,0.0
3170,43.0,2.0,20.0,0.0,0.0
3171,58.0,6.0,90.0,1.0,0.0
3172,75.0,37.0,30.0,0.0,0.0
3173,63.0,12.0,30.0,0.0,0.0
3174,70.0,1.0,30.0,0.0,0.0
3175,75.0,4.0,30.0,0.0,0.0
3176,55.0,1.0,15.0,0.0,0.0
3177,43.0,3.0,15.0,0.0,0.0
3178,63.0,9.0,30.0,0.0,0.0
3179,67.0,17.0,60.0,1.0,0.0
3180,58.0,40.0,120.0,1.0,0.0
3181,75.0,7.0,90.0,1.0,0.0
3182,55.0,3.0,120.0,1.0,0.0
3183,43.0,10.0,20.0,0.0,0.0
3184,55.0,0.0,20.0,0.0,0.0
3185,70.0,1.0,30.0,0.0,0.0
3186,75.0,15.0,30.0,0.0,0.0
3187,63.0,15.0,30.0,0.0,0.0
3188,63.0,10.0,60.0,1.0,0.0
3189,70.0,2.0,30.0,0.0,0.0
3190,75.0,7.0,30.0,0.0,0.0
3191,31.0,4.0,15.0,0.0,0.0
3192,43.0,1.0,15.0,0.0,0.0
3193,63.0,0.0,15.0,0.0,0.0
3194,56.0,3.0,330.0,1.0,0.0
3195,68.0,4.0,330.0,1.0,0.0
3196,53.0,7.0,210.0,1.0,0.0
3197,75.0,35.0,120.0,1.0,0.0
3198,75.0,2.0,30.0,0.0,0.0
3199,29.0,3.0,90.0,0.0,0.0
3200,80.0,33.0,30.0,0.0,0.0
3201,41.0,1.0,90.0,0.0,0.0
3202,68.0,23.0,30.0,0.0,0.0
3203,75.0,4.0,30.0,0.0,0.0
3204,80.0,18.0,30.0,0.0,0.0
3205,68.0,1.0,20.0,0.0,0.0
3206,72.0,6.0,120.0,1.0,0.0
3207,72.0,3.0,30.0,0.0,0.0
3208,53.0,13.0,120.0,0.0,0.0
3209,41.0,10.0,150.0,0.0,0.0
3210,80.0,32.0,30.0,0.0,0.0
3211,68.0,22.0,30.0,0.0,0.0
3212,80.0,24.0,30.0,0.0,0.0
3213,72.0,0.0,30.0,0.0,0.0
3214,68.0,5.0,30.0,0.0,0.0
3215,73.0,2.0,90.0,1.0,0.0
3216,53.0,22.0,120.0,1.0,0.0
3217,80.0,3.0,30.0,0.0,0.0
3218,73.0,29.0,30.0,0.0,0.0
3219,68.0,15.0,30.0,0.0,0.0
3220,80.0,13.0,30.0,0.0,0.0
3221,73.0,1.0,30.0,0.0,0.0
3222,29.0,2.0,15.0,0.0,0.0
3223,41.0,2.0,15.0,0.0,0.0
3224,68.0,23.0,30.0,0.0,0.0
3225,73.0,24.0,120.0,1.0,0.0
3226,68.0,3.0,360.0,1.0,0.0
3227,51.0,27.0,210.0,1.0,0.0
3228,56.0,8.0,330.0,1.0,0.0
3229,73.0,18.0,30.0,0.0,0.0
3230,39.0,3.0,60.0,0.0,0.0
3231,27.0,8.0,60.0,0.0,0.0
3232,80.0,2.0,30.0,0.0,0.0
3233,68.0,23.0,30.0,0.0,0.0
3234,80.0,14.0,30.0,0.0,0.0
3235,44.0,6.0,30.0,0.0,0.0
3236,73.0,3.0,30.0,0.0,0.0
3237,68.0,9.0,20.0,0.0,0.0
3238,48.0,0.0,20.0,0.0,0.0
3239,71.0,1.0,120.0,1.0,0.0
3240,39.0,0.0,20.0,0.0,0.0
3241,71.0,1.0,30.0,0.0,0.0
3242,80.0,34.0,30.0,0.0,0.0
3243,51.0,8.0,20.0,0.0,0.0
3244,68.0,13.0,30.0,0.0,0.0
3245,39.0,13.0,15.0,0.0,0.0
3246,71.0,1.0,30.0,0.0,0.0
3247,80.0,3.0,30.0,0.0,0.0
3248,51.0,0.0,15.0,0.0,0.0
3249,68.0,18.0,30.0,0.0,0.0
3250,72.0,0.0,120.0,1.0,0.0
3251,51.0,4.0,120.0,1.0,0.0
3252,72.0,29.0,30.0,0.0,0.0
3253,51.0,1.0,20.0,0.0,0.0
3254,39.0,12.0,20.0,0.0,0.0
3255,80.0,0.0,30.0,0.0,0.0
3256,68.0,12.0,30.0,0.0,0.0
3257,72.0,21.0,30.0,0.0,0.0
3258,39.0,4.0,15.0,0.0,0.0
3259,27.0,2.0,20.0,0.0,0.0
3260,80.0,1.0,30.0,0.0,0.0
3261,68.0,33.0,30.0,0.0,0.0
3262,65.0,1.0,120.0,1.0,0.0
3263,56.0,0.0,90.0,1.0,0.0
3264,49.0,9.0,90.0,1.0,0.0
3265,70.0,28.0,90.0,1.0,0.0
3266,25.0,2.0,90.0,0.0,0.0
3267,77.0,2.0,30.0,0.0,0.0
3268,70.0,26.0,30.0,0.0,0.0
3269,37.0,0.0,90.0,0.0,0.0
3270,68.0,21.0,30.0,0.0,0.0
3271,77.0,0.0,30.0,0.0,0.0
3272,70.0,1.0,30.0,0.0,0.0
3273,68.0,30.0,30.0,0.0,0.0
3274,49.0,7.0,120.0,1.0,0.0
3275,70.0,0.0,90.0,1.0,0.0
3276,65.0,8.0,120.0,1.0,0.0
3277,56.0,4.0,90.0,1.0,0.0
3278,70.0,1.0,30.0,0.0,0.0
3279,77.0,33.0,30.0,0.0,0.0
3280,49.0,7.0,90.0,0.0,0.0
3281,37.0,2.0,90.0,0.0,0.0
3282,68.0,22.0,30.0,0.0,0.0
3283,70.0,9.0,30.0,0.0,0.0
3284,77.0,1.0,30.0,0.0,0.0
3285,68.0,26.0,30.0,0.0,0.0
3286,70.0,5.0,90.0,1.0,0.0
3287,63.0,11.0,90.0,1.0,0.0
3288,51.0,3.0,90.0,1.0,0.0
3289,56.0,5.0,90.0,1.0,0.0
3290,39.0,0.0,90.0,0.0,0.0
3291,51.0,2.0,90.0,0.0,0.0
3292,75.0,29.0,30.0,0.0,0.0
3293,70.0,3.0,30.0,0.0,0.0
3294,68.0,21.0,30.0,0.0,0.0
3295,70.0,0.0,30.0,0.0,0.0
3296,75.0,2.0,30.0,0.0,0.0
3297,68.0,88.0,20.0,0.0,0.0
3298,53.0,6.0,90.0,1.0,0.0
3299,62.0,1.0,90.0,1.0,0.0
3300,70.0,108.0,90.0,1.0,0.0
3301,56.0,3.0,90.0,1.0,0.0
3302,74.0,0.0,90.0,0.0,0.0
3303,53.0,4.0,90.0,0.0,0.0
3304,41.0,3.0,90.0,0.0,0.0
3305,68.0,0.0,90.0,0.0,0.0
3306,70.0,0.0,90.0,0.0,0.0
3307,53.0,99.0,120.0,1.0,0.0
3308,56.0,1.0,90.0,1.0,0.0
3309,62.0,9.0,90.0,1.0,0.0
3310,70.0,12.0,90.0,1.0,0.0
3311,68.0,10.0,15.0,0.0,0.0
3312,70.0,10.0,15.0,0.0,0.0
3313,72.0,10.0,15.0,0.0,0.0
3314,73.0,10.0,15.0,0.0,0.0
3315,75.0,57.0,15.0,0.0,0.0
3316,53.0,29.0,60.0,1.0,0.0
3317,70.0,1.0,60.0,1.0,0.0
3318,56.0,3.0,60.0,1.0,0.0
3319,41.0,107.0,120.0,0.0,0.0
3320,53.0,1.0,90.0,0.0,0.0
3321,68.0,0.0,90.0,0.0,0.0
3322,70.0,1.0,90.0,0.0,0.0
3323,74.0,0.0,90.0,0.0,0.0
3324,62.0,2.0,60.0,1.0,0.0
3325,62.0,1.0,15.0,1.0,0.0
3326,56.0,1.0,15.0,1.0,0.0
3327,70.0,2.0,15.0,1.0,0.0
3328,53.0,2.0,15.0,1.0,0.0
3329,62.0,16.0,120.0,1.0,0.0
3330,56.0,11.0,120.0,1.0,0.0
3331,53.0,54.0,120.0,1.0,0.0
3332,70.0,2.0,90.0,1.0,0.0
3333,68.0,10.0,15.0,0.0,0.0
3334,70.0,10.0,15.0,0.0,0.0
3335,65.0,0.0,30.0,1.0,0.0
3336,70.0,9.0,30.0,1.0,0.0
3337,53.0,0.0,20.0,1.0,0.0
3338,72.0,10.0,15.0,0.0,0.0
3339,56.0,22.0,60.0,1.0,0.0
3340,73.0,10.0,15.0,0.0,0.0
3341,75.0,1.0,15.0,0.0,0.0
3342,77.0,10.0,15.0,0.0,0.0
3343,79.0,2.0,15.0,0.0,0.0
3344,53.0,1.0,90.0,1.0,0.0
3345,68.0,2.0,90.0,1.0,0.0
3346,58.0,29.0,120.0,1.0,0.0
3347,74.0,2.0,90.0,1.0,0.0
3348,80.0,27.0,30.0,0.0,0.0
3349,74.0,5.0,30.0,0.0,0.0
3350,41.0,11.0,20.0,0.0,0.0
3351,53.0,2.0,20.0,0.0,0.0
3352,70.0,11.0,30.0,0.0,0.0
3353,80.0,0.0,30.0,0.0,0.0
3354,74.0,0.0,30.0,0.0,0.0
3355,41.0,2.0,15.0,0.0,0.0
3356,53.0,11.0,15.0,0.0,0.0
3357,70.0,17.0,30.0,0.0,0.0
3358,53.0,1.0,90.0,1.0,0.0
3359,74.0,1.0,90.0,1.0,0.0
3360,58.0,3.0,90.0,1.0,0.0
3361,68.0,1.0,90.0,1.0,0.0
3362,80.0,4.0,30.0,0.0,0.0
3363,74.0,35.0,30.0,0.0,0.0
3364,41.0,2.0,20.0,0.0,0.0
3365,53.0,4.0,20.0,0.0,0.0
3366,70.0,13.0,30.0,0.0,0.0
3367,74.0,31.0,30.0,0.0,0.0
3368,80.0,1.0,30.0,0.0,0.0
3369,41.0,3.0,15.0,0.0,0.0
3370,53.0,4.0,20.0,0.0,0.0
3371,70.0,21.0,30.0,0.0,0.0
3372,53.0,3.0,120.0,1.0,0.0
3373,58.0,5.0,90.0,1.0,0.0
3374,68.0,8.0,120.0,1.0,0.0
3375,74.0,7.0,120.0,1.0,0.0
3376,74.0,2.0,30.0,0.0,0.0
3377,80.0,36.0,30.0,0.0,0.0
3378,41.0,2.0,20.0,0.0,0.0
3379,53.0,1.0,20.0,0.0,0.0
3380,70.0,13.0,30.0,0.0,0.0
3381,41.0,4.0,20.0,0.0,0.0
3382,53.0,2.0,20.0,0.0,0.0
3383,74.0,12.0,30.0,0.0,0.0
3384,80.0,1.0,30.0,0.0,0.0
3385,70.0,24.0,30.0,0.0,0.0
3386,67.0,4.0,330.0,1.0,0.0
3387,51.0,1.0,300.0,1.0,0.0
3388,58.0,1.0,330.0,1.0,0.0
3389,75.0,5.0,330.0,1.0,0.0
3390,39.0,0.0,20.0,0.0,0.0
3391,75.0,32.0,30.0,0.0,0.0
3392,79.0,1.0,30.0,0.0,0.0
3393,51.0,5.0,20.0,0.0,0.0
3394,70.0,19.0,30.0,0.0,0.0
3395,39.0,8.0,20.0,0.0,0.0
3396,51.0,3.0,20.0,0.0,0.0
3397,75.0,1.0,30.0,0.0,0.0
3398,79.0,21.0,30.0,0.0,0.0
3399,70.0,30.0,20.0,0.0,0.0
3400,70.0,5.0,30.0,0.0,0.0
3401,75.0,26.0,30.0,0.0,0.0
3402,51.0,3.0,20.0,0.0,0.0
3403,39.0,0.0,20.0,0.0,0.0
3404,67.0,25.0,30.0,0.0,0.0
3405,51.0,0.0,20.0,0.0,0.0
3406,70.0,2.0,30.0,0.0,0.0
3407,39.0,7.0,20.0,0.0,0.0
3408,75.0,15.0,30.0,0.0,0.0
3409,67.0,35.0,15.0,0.0,0.0
3410,51.0,8.0,20.0,0.0,0.0
3411,67.0,31.0,30.0,0.0,0.0
3412,70.0,1.0,30.0,0.0,0.0
3413,39.0,0.0,20.0,0.0,0.0
3414,63.0,18.0,30.0,0.0,0.0
3415,70.0,1.0,20.0,0.0,0.0
3416,67.0,1.0,20.0,0.0,0.0
3417,51.0,0.0,20.0,0.0,0.0
3418,39.0,3.0,20.0,0.0,0.0
3419,51.0,4.0,15.0,1.0,0.0
3420,55.0,2.0,15.0,1.0,0.0
3421,63.0,4.0,15.0,1.0,0.0
3422,70.0,108.0,20.0,1.0,0.0
3423,63.0,1.0,15.0,0.0,0.0
3424,51.0,8.0,120.0,1.0,0.0
3425,55.0,15.0,150.0,1.0,0.0
3426,63.0,15.0,120.0,1.0,0.0
3427,70.0,4.0,120.0,1.0,0.0
3428,75.0,1.0,90.0,0.0,0.0
3429,67.0,3.0,90.0,0.0,0.0
3430,70.0,1.0,90.0,0.0,0.0
3431,39.0,580.0,150.0,0.0,0.0
3432,51.0,1.0,150.0,0.0,0.0
3433,75.0,346.0,360.0,0.0,0.0
3434,63.0,4.0,360.0,0.0,0.0
3435,72.0,296.0,360.0,0.0,0.0
3436,60.0,2.0,360.0,0.0,0.0
3437,68.0,0.0,360.0,0.0,0.0
3438,56.0,63.0,300.0,0.0,0.0
3439,73.0,340.0,360.0,1.0,0.0
3440,41.0,3.0,360.0,1.0,0.0
3441,61.0,0.0,360.0,1.0,0.0
3442,53.0,5.0,360.0,1.0,0.0
3443,49.0,105.0,360.0,1.0,0.0
3444,70.0,5.0,360.0,1.0,0.0
3445,37.0,0.0,360.0,1.0,0.0
3446,77.0,14.0,360.0,0.0,0.0
3447,65.0,5.0,330.0,0.0,0.0
3448,58.0,1.0,360.0,1.0,0.0
3449,39.0,0.0,360.0,1.0,0.0
3450,55.0,108.0,360.0,1.0,0.0
3451,39.0,48.0,120.0,0.0,0.0
3452,51.0,1.0,360.0,1.0,0.0
3453,67.0,1.0,360.0,1.0,0.0
3454,73.0,6.0,60.0,0.0,0.0
3455,70.0,5.0,60.0,0.0,0.0
3456,72.0,8.0,60.0,0.0,0.0
3457,69.0,49.0,60.0,0.0,0.0
3458,70.0,49.0,60.0,0.0,0.0
3459,73.0,19.0,60.0,0.0,0.0
3460,75.0,2.0,60.0,0.0,0.0
3461,72.0,22.0,60.0,0.0,0.0
3462,73.0,41.0,20.0,0.0,0.0
3463,70.0,0.0,20.0,0.0,0.0
3464,41.0,0.0,240.0,1.0,0.0
3465,68.0,27.0,240.0,1.0,0.0
3466,41.0,8.0,120.0,0.0,0.0
3467,53.0,32.0,210.0,1.0,0.0
3468,56.0,5.0,240.0,1.0,0.0
3469,72.0,4.0,60.0,0.0,0.0
3470,68.0,49.0,60.0,0.0,0.0
3471,67.0,24.0,60.0,0.0,0.0
3472,71.0,7.0,60.0,0.0,0.0
3473,72.0,2.0,20.0,0.0,0.0
3474,68.0,2.0,20.0,0.0,0.0
3475,65.0,10.0,60.0,1.0,0.0
3476,53.0,103.0,120.0,1.0,0.0
3477,58.0,7.0,120.0,1.0,0.0
3478,37.0,2.0,120.0,1.0,0.0
3479,73.0,30.0,30.0,0.0,0.0
3480,77.0,12.0,60.0,0.0,0.0
3481,37.0,4.0,90.0,0.0,0.0
3482,73.0,2.0,20.0,0.0,0.0
3483,70.0,30.0,30.0,0.0,0.0
3484,61.0,0.0,60.0,1.0,0.0
3485,51.0,5.0,360.0,1.0,0.0
3486,39.0,102.0,720.0,1.0,0.0
3487,51.0,1.0,720.0,0.0,0.0
3488,39.0,6.0,120.0,0.0,0.0
3489,56.0,96.0,360.0,1.0,0.0
3490,60.0,2.0,360.0,1.0,0.0
3491,72.0,3.0,60.0,0.0,0.0
3492,68.0,53.0,60.0,0.0,0.0
3493,67.0,12.0,60.0,0.0,0.0
3494,71.0,14.0,60.0,0.0,0.0
3495,72.0,7.0,20.0,0.0,0.0
3496,68.0,64.0,30.0,0.0,0.0
3497,75.0,13.0,60.0,0.0,0.0
3498,72.0,39.0,30.0,0.0,0.0
3499,68.0,17.0,30.0,0.0,0.0
3500,72.0,11.0,20.0,0.0,0.0
3501,58.0,3.0,360.0,1.0,0.0
3502,49.0,4.0,360.0,1.0,0.0
3503,55.0,0.0,360.0,1.0,0.0
3504,39.0,23.0,90.0,0.0,0.0
3505,70.0,34.0,60.0,0.0,0.0
3506,67.0,2.0,60.0,0.0,0.0
3507,66.0,53.0,30.0,0.0,0.0
3508,69.0,10.0,30.0,0.0,0.0
3509,70.0,25.0,30.0,0.0,0.0
3510,67.0,38.0,60.0,0.0,0.0
3511,70.0,15.0,30.0,0.0,0.0
3512,73.0,22.0,60.0,0.0,0.0
3513,67.0,15.0,15.0,0.0,0.0
3514,70.0,21.0,30.0,0.0,0.0
3515,48.0,4.0,120.0,1.0,0.0
3516,44.0,2.0,90.0,1.0,0.0
3517,56.0,0.0,90.0,1.0,0.0
3518,68.0,0.0,120.0,0.0,0.0
3519,44.0,2.0,120.0,0.0,0.0
3520,32.0,21.0,120.0,0.0,0.0
3521,56.0,98.0,120.0,0.0,0.0
3522,56.0,9.0,20.0,0.0,0.0
3523,44.0,1.0,20.0,0.0,0.0
3524,46.0,6.0,20.0,0.0,0.0
3525,58.0,5.0,15.0,0.0,0.0
3526,48.0,72.0,30.0,0.0,0.0
3527,60.0,10.0,15.0,0.0,0.0
3528,60.0,10.0,15.0,0.0,0.0
3529,48.0,2.0,15.0,0.0,0.0
3530,61.0,9.0,15.0,0.0,0.0
3531,49.0,118.0,20.0,0.0,0.0
3532,63.0,15.0,120.0,0.0,0.0
3533,51.0,93.0,150.0,0.0,0.0
3534,60.0,12.0,30.0,0.0,0.0
3535,61.0,8.0,20.0,0.0,0.0
3536,48.0,4.0,30.0,0.0,0.0
3537,63.0,2.0,20.0,0.0,0.0
3538,49.0,16.0,20.0,0.0,0.0
3539,51.0,59.0,30.0,0.0,0.0
3540,51.0,12.0,20.0,0.0,0.0
3541,63.0,10.0,20.0,0.0,0.0
3542,53.0,9.0,20.0,0.0,0.0
3543,65.0,9.0,30.0,0.0,0.0
3544,55.0,1.0,20.0,0.0,0.0
3545,67.0,20.0,20.0,0.0,0.0
3546,60.0,1.0,90.0,1.0,0.0
3547,51.0,7.0,90.0,1.0,0.0
3548,68.0,2.0,90.0,1.0,0.0
3549,44.0,0.0,90.0,1.0,0.0
3550,68.0,10.0,90.0,0.0,0.0
3551,60.0,13.0,60.0,0.0,0.0
3552,56.0,33.0,30.0,0.0,0.0
3553,44.0,9.0,20.0,0.0,0.0
3554,56.0,25.0,60.0,0.0,0.0
3555,32.0,5.0,20.0,0.0,0.0
3556,44.0,3.0,20.0,0.0,0.0
3557,53.0,6.0,15.0,0.0,0.0
3558,60.0,0.0,90.0,1.0,0.0
3559,51.0,25.0,90.0,1.0,0.0
3560,68.0,7.0,90.0,1.0,0.0
3561,44.0,1.0,90.0,1.0,0.0
3562,44.0,39.0,20.0,0.0,0.0
3563,60.0,9.0,60.0,0.0,0.0
3564,32.0,5.0,15.0,0.0,0.0
3565,63.0,7.0,20.0,0.0,0.0
3566,32.0,4.0,15.0,0.0,0.0
3567,44.0,0.0,20.0,0.0,0.0
3568,60.0,27.0,20.0,0.0,0.0
3569,60.0,2.0,120.0,1.0,0.0
3570,44.0,4.0,90.0,1.0,0.0
3571,51.0,8.0,120.0,1.0,0.0
3572,68.0,0.0,120.0,1.0,0.0
3573,32.0,2.0,20.0,0.0,0.0
3574,44.0,6.0,20.0,0.0,0.0
3575,68.0,47.0,30.0,0.0,0.0
3576,63.0,0.0,60.0,0.0,0.0
3577,32.0,3.0,20.0,0.0,0.0
3578,44.0,6.0,20.0,0.0,0.0
3579,72.0,17.0,30.0,0.0,0.0
3580,68.0,25.0,30.0,0.0,0.0
3581,53.0,11.0,270.0,1.0,0.0
3582,73.0,8.0,300.0,1.0,0.0
3583,61.0,2.0,240.0,1.0,0.0
3584,44.0,8.0,300.0,1.0,0.0
3585,32.0,2.0,20.0,0.0,0.0
3586,44.0,1.0,20.0,0.0,0.0
3587,73.0,11.0,20.0,0.0,0.0
3588,61.0,43.0,30.0,0.0,0.0
3589,61.0,15.0,30.0,0.0,0.0
3590,32.0,2.0,15.0,0.0,0.0
3591,44.0,14.0,20.0,0.0,0.0
3592,56.0,32.0,20.0,0.0,0.0
3593,65.0,32.0,20.0,0.0,0.0
3594,32.0,1.0,20.0,0.0,0.0
3595,44.0,0.0,20.0,0.0,0.0
3596,61.0,24.0,20.0,0.0,0.0
3597,44.0,44.0,20.0,0.0,0.0
3598,32.0,1.0,15.0,0.0,0.0
3599,68.0,1.0,20.0,0.0,0.0
3600,65.0,4.0,30.0,0.0,0.0
3601,63.0,4.0,90.0,1.0,0.0
3602,55.0,6.0,60.0,1.0,0.0
3603,32.0,2.0,20.0,0.0,0.0
3604,44.0,3.0,20.0,0.0,0.0
3605,73.0,1.0,30.0,0.0,0.0
3606,70.0,7.0,30.0,0.0,0.0
3607,65.0,19.0,15.0,0.0,0.0
3608,73.0,0.0,60.0,1.0,0.0
3609,79.0,13.0,30.0,0.0,0.0
3610,73.0,0.0,30.0,0.0,0.0
3611,44.0,6.0,20.0,0.0,0.0
3612,32.0,2.0,20.0,0.0,0.0
3613,44.0,5.0,15.0,1.0,0.0
3614,55.0,18.0,30.0,1.0,0.0
3615,68.0,14.0,20.0,0.0,0.0
3616,63.0,4.0,15.0,1.0,0.0
3617,72.0,9.0,120.0,1.0,0.0
3618,44.0,4.0,120.0,1.0,0.0
3619,56.0,2.0,120.0,1.0,0.0
3620,63.0,118.0,120.0,1.0,0.0
3621,72.0,73.0,20.0,0.0,0.0
3622,80.0,1.0,20.0,0.0,0.0
3623,32.0,2.0,120.0,0.0,0.0
3624,44.0,2.0,90.0,0.0,0.0
3625,44.0,3.0,20.0,0.0,0.0
3626,56.0,6.0,20.0,0.0,0.0
3627,46.0,4.0,30.0,0.0,0.0
3628,58.0,10.0,15.0,0.0,0.0
3629,60.0,5.0,15.0,0.0,0.0
3630,48.0,82.0,20.0,0.0,0.0
3631,60.0,9.0,20.0,0.0,0.0
3632,48.0,2.0,20.0,0.0,0.0
3633,61.0,15.0,15.0,0.0,0.0
3634,63.0,10.0,120.0,0.0,0.0
3635,49.0,101.0,20.0,0.0,0.0
3636,51.0,105.0,120.0,0.0,0.0
3637,48.0,6.0,30.0,0.0,0.0
3638,60.0,4.0,20.0,0.0,0.0
3639,49.0,8.0,20.0,0.0,0.0
3640,61.0,2.0,15.0,0.0,0.0
3641,51.0,7.0,20.0,0.0,0.0
3642,63.0,55.0,15.0,0.0,0.0
3643,63.0,20.0,20.0,0.0,0.0
3644,51.0,0.0,20.0,0.0,0.0
3645,65.0,5.0,20.0,0.0,0.0
3646,51.0,12.0,15.0,1.0,0.0
3647,53.0,5.0,20.0,0.0,0.0
3648,67.0,1.0,20.0,0.0,0.0
3649,63.0,7.0,15.0,1.0,0.0
3650,51.0,1.0,20.0,1.0,0.0
3651,55.0,15.0,20.0,0.0,0.0
3652,68.0,0.0,15.0,0.0,0.0
3653,60.0,1.0,90.0,1.0,0.0
3654,44.0,0.0,90.0,1.0,0.0
3655,56.0,40.0,30.0,0.0,0.0
3656,44.0,2.0,30.0,0.0,0.0
3657,68.0,3.0,30.0,0.0,0.0
3658,60.0,13.0,15.0,0.0,0.0
3659,63.0,2.0,15.0,1.0,0.0
3660,68.0,0.0,60.0,1.0,0.0
3661,44.0,11.0,20.0,0.0,0.0
3662,32.0,2.0,20.0,0.0,0.0
3663,56.0,10.0,30.0,0.0,0.0
3664,51.0,25.0,15.0,0.0,0.0
3665,51.0,1.0,30.0,1.0,0.0
3666,60.0,3.0,20.0,1.0,0.0
3667,68.0,16.0,60.0,1.0,0.0
3668,44.0,8.0,30.0,1.0,0.0
3669,60.0,0.0,20.0,0.0,0.0
3670,44.0,18.0,20.0,0.0,0.0
3671,32.0,1.0,20.0,0.0,0.0
3672,56.0,11.0,20.0,0.0,0.0
3673,60.0,3.0,30.0,1.0,0.0
3674,51.0,7.0,30.0,1.0,0.0
3675,44.0,2.0,30.0,1.0,0.0
3676,68.0,1.0,30.0,1.0,0.0
3677,44.0,10.0,20.0,0.0,0.0
3678,32.0,0.0,20.0,0.0,0.0
3679,63.0,18.0,30.0,0.0,0.0
3680,60.0,18.0,15.0,0.0,0.0
3681,60.0,5.0,30.0,1.0,0.0
3682,68.0,5.0,30.0,1.0,0.0
3683,51.0,3.0,30.0,1.0,0.0
3684,44.0,2.0,30.0,1.0,0.0
3685,44.0,2.0,20.0,0.0,0.0
3686,32.0,8.0,20.0,0.0,0.0
3687,68.0,32.0,30.0,0.0,0.0
3688,63.0,2.0,30.0,0.0,0.0
3689,51.0,1.0,60.0,1.0,0.0
3690,68.0,12.0,30.0,1.0,0.0
3691,60.0,26.0,60.0,1.0,0.0
3692,44.0,2.0,30.0,1.0,0.0
3693,72.0,3.0,30.0,0.0,0.0
3694,44.0,6.0,20.0,0.0,0.0
3695,32.0,4.0,15.0,0.0,0.0
3696,68.0,0.0,15.0,1.0,0.0
3697,68.0,23.0,30.0,0.0,0.0
3698,53.0,10.0,240.0,1.0,0.0
3699,61.0,10.0,240.0,1.0,0.0
3700,44.0,1.0,330.0,1.0,0.0
3701,73.0,16.0,360.0,1.0,0.0
3702,44.0,1.0,20.0,0.0,0.0
3703,32.0,1.0,20.0,0.0,0.0
3704,73.0,11.0,20.0,0.0,0.0
3705,61.0,43.0,30.0,0.0,0.0
3706,61.0,7.0,30.0,0.0,0.0
3707,32.0,4.0,15.0,0.0,0.0
3708,44.0,19.0,20.0,0.0,0.0
3709,56.0,35.0,15.0,0.0,0.0
3710,65.0,0.0,20.0,0.0,0.0
3711,44.0,27.0,20.0,0.0,0.0
3712,32.0,1.0,20.0,0.0,0.0
3713,61.0,27.0,20.0,0.0,0.0
3714,68.0,5.0,15.0,0.0,0.0
3715,32.0,17.0,20.0,0.0,0.0
3716,44.0,0.0,20.0,0.0,0.0
3717,65.0,18.0,30.0,0.0,0.0
3718,63.0,18.0,90.0,1.0,0.0
3719,55.0,4.0,120.0,1.0,0.0
3720,73.0,1.0,30.0,0.0,0.0
3721,32.0,0.0,15.0,0.0,0.0
3722,44.0,9.0,15.0,0.0,0.0
3723,70.0,30.0,30.0,0.0,0.0
3724,68.0,13.0,30.0,0.0,0.0
3725,73.0,4.0,30.0,0.0,0.0
3726,44.0,0.0,20.0,0.0,0.0
3727,32.0,1.0,20.0,0.0,0.0
3728,79.0,8.0,15.0,0.0,0.0
3729,70.0,10.0,15.0,0.0,0.0
3730,63.0,0.0,120.0,1.0,0.0
3731,44.0,0.0,120.0,1.0,0.0
3732,56.0,27.0,120.0,1.0,0.0
3733,72.0,9.0,90.0,1.0,0.0
3734,80.0,2.0,15.0,0.0,0.0
3735,72.0,5.0,15.0,0.0,0.0
3736,68.0,57.0,20.0,0.0,0.0
3737,44.0,12.0,90.0,0.0,0.0
3738,32.0,8.0,60.0,0.0,0.0
3739,56.0,1.0,30.0,0.0,0.0
3740,51.0,8.0,15.0,0.0,0.0
3741,60.0,38.0,20.0,0.0,0.0
3742,56.0,26.0,30.0,0.0,0.0
3743,63.0,21.0,20.0,0.0,0.0
3744,60.0,44.0,15.0,0.0,0.0
3745,68.0,33.0,30.0,0.0,0.0
3746,63.0,31.0,30.0,0.0,0.0
3747,72.0,5.0,30.0,0.0,0.0
3748,68.0,38.0,15.0,0.0,0.0
3749,56.0,6.0,120.0,1.0,0.0
3750,63.0,25.0,210.0,1.0,0.0
3751,72.0,15.0,120.0,1.0,0.0
3752,51.0,2.0,60.0,0.0,0.0
3753,70.0,4.0,15.0,0.0,0.0
3754,44.0,5.0,60.0,0.0,0.0
3755,73.0,46.0,20.0,0.0,0.0
3756,70.0,5.0,15.0,0.0,0.0
3757,73.0,31.0,20.0,0.0,0.0
3758,61.0,0.0,120.0,1.0,0.0
3759,55.0,9.0,120.0,1.0,0.0
3760,70.0,47.0,120.0,1.0,0.0
3761,43.0,1.0,60.0,0.0,0.0
3762,68.0,28.0,15.0,0.0,0.0
3763,51.0,10.0,60.0,0.0,0.0
3764,73.0,24.0,30.0,0.0,0.0
3765,82.0,14.0,15.0,0.0,0.0
3766,56.0,75.0,120.0,1.0,0.0
3767,60.0,17.0,90.0,1.0,0.0
3768,63.0,1.0,90.0,1.0,0.0
3769,68.0,2.0,90.0,1.0,0.0
3770,68.0,5.0,60.0,0.0,0.0
3771,51.0,13.0,60.0,0.0,0.0
3772,72.0,6.0,60.0,0.0,0.0
3773,44.0,1.0,60.0,0.0,0.0
3774,80.0,12.0,15.0,0.0,0.0
3775,51.0,2.0,90.0,1.0,0.0
3776,63.0,6.0,90.0,1.0,0.0
3777,60.0,2.0,120.0,1.0,0.0
3778,68.0,52.0,120.0,1.0,0.0
3779,72.0,5.0,60.0,0.0,0.0
3780,51.0,27.0,90.0,0.0,0.0
3781,68.0,4.0,60.0,0.0,0.0
3782,80.0,1.0,60.0,0.0,0.0
3783,39.0,8.0,60.0,0.0,0.0
3784,75.0,1.0,60.0,0.0,0.0
3785,63.0,0.0,120.0,1.0,0.0
3786,51.0,8.0,90.0,1.0,0.0
3787,67.0,3.0,90.0,1.0,0.0
3788,58.0,187.0,120.0,1.0,0.0
3789,79.0,17.0,90.0,0.0,0.0
3790,70.0,1.0,90.0,0.0,0.0
3791,27.0,0.0,60.0,0.0,0.0
3792,39.0,36.0,60.0,0.0,0.0
3793,75.0,1.0,90.0,0.0,0.0
3794,67.0,1.0,90.0,0.0,0.0
3795,75.0,23.0,540.0,2.0,0.0
3796,56.0,51.0,90.0,0.0,0.0
3797,63.0,25.0,15.0,0.0,0.0
3798,60.0,2.0,15.0,0.0,0.0
3799,73.0,49.0,30.0,0.0,0.0
3800,65.0,1.0,20.0,0.0,0.0
3801,63.0,56.0,20.0,0.0,0.0
3802,72.0,5.0,15.0,0.0,0.0
3803,70.0,3.0,15.0,0.0,0.0
3804,61.0,58.0,20.0,0.0,0.0
3805,60.0,60.0,15.0,0.0,0.0
3806,68.0,0.0,15.0,0.0,0.0
3807,58.0,56.0,20.0,0.0,0.0
3808,51.0,43.0,90.0,0.0,0.0
3809,67.0,2.0,15.0,0.0,0.0
3810,56.0,19.0,15.0,0.0,0.0
3811,65.0,3.0,15.0,0.0,0.0
3812,55.0,5.0,20.0,0.0,0.0
3813,63.0,33.0,20.0,0.0,0.0
3814,73.0,13.0,60.0,2.0,0.0
3815,58.0,40.0,20.0,0.0,0.0
3816,61.0,1.0,20.0,0.0,0.0
3817,72.0,14.0,60.0,2.0,0.0
3818,56.0,35.0,15.0,0.0,0.0
3819,60.0,3.0,15.0,0.0,0.0
3820,70.0,111.0,60.0,2.0,0.0
3821,58.0,48.0,15.0,0.0,0.0
3822,55.0,5.0,15.0,0.0,0.0
3823,68.0,2.0,300.0,2.0,0.0
3824,56.0,15.0,300.0,0.0,0.0
3825,44.0,2.0,120.0,0.0,0.0
3826,75.0,23.0,60.0,0.0,0.0
3827,72.0,7.0,15.0,0.0,0.0
3828,80.0,61.0,20.0,0.0,0.0
3829,79.0,47.0,30.0,0.0,0.0
3830,75.0,13.0,20.0,0.0,0.0
3831,77.0,24.0,30.0,0.0,0.0
3832,73.0,15.0,20.0,0.0,0.0
3833,70.0,30.0,30.0,2.0,0.0
3834,75.0,2.0,20.0,0.0,0.0
3835,72.0,3.0,20.0,0.0,0.0
3836,58.0,3.0,20.0,0.0,0.0
3837,72.0,10.0,30.0,2.0,0.0
3838,60.0,4.0,30.0,0.0,0.0
3839,63.0,38.0,150.0,2.0,0.0
3840,58.0,33.0,90.0,0.0,0.0
3841,51.0,19.0,360.0,0.0,0.0
3842,70.0,56.0,15.0,0.0,0.0
3843,73.0,3.0,15.0,0.0,0.0
3844,72.0,3.0,15.0,0.0,0.0
3845,68.0,26.0,15.0,0.0,0.0
3846,67.0,3.0,15.0,0.0,0.0
3847,70.0,8.0,15.0,0.0,0.0
3848,60.0,13.0,60.0,2.0,0.0
3849,72.0,46.0,15.0,0.0,0.0
3850,68.0,1.0,15.0,0.0,0.0
3851,61.0,26.0,60.0,2.0,0.0
3852,73.0,28.0,20.0,0.0,0.0
3853,70.0,11.0,15.0,0.0,0.0
3854,58.0,7.0,60.0,2.0,0.0
3855,75.0,33.0,15.0,0.0,0.0
3856,67.0,0.0,15.0,0.0,0.0
3857,56.0,15.0,330.0,2.0,0.0
3858,63.0,60.0,570.0,2.0,0.0
3859,44.0,1.0,120.0,0.0,0.0
3860,56.0,30.0,120.0,0.0,0.0
3861,72.0,57.0,20.0,0.0,0.0
3862,68.0,3.0,15.0,0.0,0.0
3863,63.0,29.0,15.0,0.0,0.0
3864,73.0,0.0,15.0,0.0,0.0
3865,65.0,59.0,15.0,0.0,0.0
3866,72.0,1.0,15.0,0.0,0.0
3867,63.0,57.0,15.0,0.0,0.0
3868,70.0,3.0,15.0,0.0,0.0
3869,61.0,59.0,15.0,0.0,0.0
3870,68.0,0.0,15.0,0.0,0.0
3871,60.0,18.0,15.0,0.0,0.0
3872,58.0,17.0,20.0,2.0,0.0
3873,60.0,8.0,30.0,2.0,0.0
3874,58.0,6.0,120.0,2.0,0.0
3875,51.0,9.0,120.0,0.0,0.0
3876,58.0,58.0,15.0,0.0,0.0
3877,67.0,2.0,15.0,0.0,0.0
3878,65.0,1.0,15.0,0.0,0.0
3879,56.0,46.0,15.0,0.0,0.0
3880,63.0,49.0,20.0,0.0,0.0
3881,55.0,6.0,15.0,0.0,0.0
3882,58.0,1.0,15.0,0.0,0.0
3883,61.0,1.0,15.0,0.0,0.0
3884,61.0,1.0,60.0,2.0,0.0
3885,56.0,46.0,15.0,0.0,0.0
3886,60.0,1.0,15.0,0.0,0.0
3887,60.0,7.0,60.0,2.0,0.0
3888,58.0,76.0,60.0,2.0,0.0
3889,55.0,6.0,15.0,0.0,0.0
3890,58.0,49.0,15.0,0.0,0.0
3891,51.0,29.0,540.0,2.0,0.0
3892,56.0,16.0,240.0,0.0,0.0
3893,56.0,2.0,300.0,2.0,0.0
3894,44.0,35.0,270.0,0.0,0.0
3895,75.0,58.0,20.0,0.0,0.0
3896,80.0,50.0,20.0,0.0,0.0
3897,72.0,7.0,15.0,0.0,0.0
3898,79.0,41.0,15.0,0.0,0.0
3899,75.0,2.0,15.0,0.0,0.0
3900,77.0,4.0,15.0,0.0,0.0
3901,73.0,18.0,15.0,0.0,0.0
3902,75.0,1.0,15.0,0.0,0.0
3903,58.0,4.0,20.0,0.0,0.0
3904,72.0,6.0,15.0,0.0,0.0
3905,58.0,32.0,20.0,2.0,0.0
3906,60.0,14.0,30.0,2.0,0.0
3907,60.0,3.0,20.0,0.0,0.0
3908,58.0,11.0,120.0,2.0,0.0
3909,70.0,61.0,15.0,0.0,0.0
3910,73.0,2.0,15.0,0.0,0.0
3911,58.0,18.0,120.0,0.0,0.0
3912,51.0,2.0,270.0,0.0,0.0
3913,72.0,2.0,15.0,0.0,0.0
3914,68.0,27.0,15.0,0.0,0.0
3915,70.0,1.0,15.0,0.0,0.0
3916,67.0,35.0,15.0,0.0,0.0
3917,48.0,31.0,60.0,2.0,0.0
3918,68.0,2.0,15.0,0.0,0.0
3919,72.0,28.0,20.0,0.0,0.0
3920,49.0,26.0,60.0,2.0,0.0
3921,70.0,12.0,20.0,0.0,0.0
3922,73.0,15.0,30.0,0.0,0.0
3923,46.0,33.0,60.0,2.0,0.0
3924,75.0,1.0,15.0,0.0,0.0
3925,67.0,38.0,15.0,0.0,0.0
3926,44.0,31.0,120.0,1.0,0.0
3927,68.0,4.0,240.0,1.0,0.0
3928,44.0,13.0,60.0,2.0,0.0
3929,32.0,24.0,60.0,0.0,0.0
3930,80.0,18.0,30.0,0.0,0.0
3931,72.0,4.0,30.0,0.0,0.0
3932,44.0,3.0,60.0,0.0,0.0
3933,68.0,3.0,30.0,0.0,0.0
3934,80.0,27.0,30.0,0.0,0.0
3935,68.0,4.0,30.0,0.0,0.0
3936,80.0,36.0,30.0,0.0,0.0
3937,56.0,19.0,90.0,0.0,0.0
3938,44.0,13.0,60.0,0.0,0.0
3939,56.0,0.0,120.0,1.0,0.0
3940,68.0,2.0,30.0,0.0,0.0
3941,70.0,30.0,15.0,0.0,0.0
3942,72.0,4.0,15.0,0.0,0.0
3943,68.0,49.0,20.0,0.0,0.0
3944,43.0,2.0,60.0,0.0,0.0
3945,55.0,9.0,90.0,0.0,0.0
3946,68.0,25.0,90.0,1.0,0.0
3947,55.0,21.0,120.0,1.0,0.0
3948,56.0,1.0,15.0,1.0,0.0
3949,72.0,3.0,15.0,0.0,0.0
3950,68.0,3.0,15.0,0.0,0.0
3951,60.0,3.0,120.0,1.0,0.0
3952,54.0,53.0,120.0,1.0,0.0
3953,72.0,38.0,30.0,0.0,0.0
3954,68.0,11.0,20.0,0.0,0.0
3955,54.0,8.0,90.0,0.0,0.0
3956,63.0,6.0,30.0,0.0,0.0
3957,42.0,1.0,90.0,0.0,0.0
3958,70.0,19.0,30.0,0.0,0.0
3959,72.0,5.0,15.0,0.0,0.0
3960,61.0,4.0,120.0,1.0,0.0
3961,53.0,65.0,120.0,1.0,0.0
3962,73.0,4.0,60.0,0.0,0.0
3963,68.0,34.0,60.0,0.0,0.0
3964,53.0,3.0,90.0,0.0,0.0
3965,41.0,17.0,90.0,0.0,0.0
3966,72.0,1.0,30.0,0.0,0.0
3967,73.0,2.0,20.0,0.0,0.0
3968,49.0,42.0,120.0,1.0,0.0
3969,65.0,1.0,120.0,1.0,0.0
3970,37.0,21.0,60.0,0.0,0.0
3971,49.0,3.0,60.0,0.0,0.0
3972,77.0,9.0,60.0,0.0,0.0
3973,68.0,5.0,60.0,0.0,0.0
3974,75.0,3.0,30.0,0.0,0.0
3975,77.0,11.0,15.0,0.0,0.0
3976,68.0,1.0,240.0,1.0,0.0
3977,63.0,5.0,120.0,1.0,0.0
3978,48.0,50.0,120.0,1.0,0.0
3979,75.0,33.0,30.0,0.0,0.0
3980,36.0,11.0,60.0,0.0,0.0
3981,80.0,1.0,30.0,0.0,0.0
3982,48.0,13.0,90.0,0.0,0.0
3983,68.0,3.0,30.0,0.0,0.0
3984,80.0,14.0,30.0,0.0,0.0
3985,68.0,4.0,20.0,0.0,0.0
3986,56.0,16.0,90.0,1.0,0.0
3987,44.0,4.0,90.0,0.0,0.0
3988,56.0,2.0,90.0,0.0,0.0
3989,80.0,40.0,30.0,0.0,0.0
3990,72.0,0.0,30.0,0.0,0.0
3991,68.0,1.0,30.0,0.0,0.0
3992,70.0,1.0,20.0,0.0,0.0
3993,56.0,36.0,15.0,1.0,0.0
3994,55.0,29.0,120.0,1.0,0.0
3995,68.0,2.0,60.0,1.0,0.0
3996,55.0,0.0,90.0,0.0,0.0
3997,72.0,3.0,30.0,0.0,0.0
3998,68.0,40.0,30.0,0.0,0.0
3999,43.0,27.0,90.0,0.0,0.0
4000,72.0,4.0,15.0,0.0,0.0
4001,68.0,2.0,15.0,0.0,0.0
4002,54.0,14.0,120.0,1.0,0.0
4003,60.0,51.0,120.0,1.0,0.0
4004,68.0,10.0,30.0,0.0,0.0
4005,63.0,7.0,30.0,0.0,0.0
4006,42.0,10.0,60.0,0.0,0.0
4007,72.0,25.0,30.0,0.0,0.0
4008,54.0,10.0,90.0,0.0,0.0
4009,70.0,7.0,30.0,0.0,0.0
4010,72.0,10.0,15.0,0.0,0.0
4011,53.0,49.0,120.0,1.0,0.0
4012,61.0,7.0,120.0,1.0,0.0
4013,73.0,11.0,60.0,0.0,0.0
4014,41.0,7.0,90.0,0.0,0.0
4015,53.0,15.0,60.0,0.0,0.0
4016,68.0,5.0,60.0,0.0,0.0
4017,72.0,15.0,30.0,0.0,0.0
4018,73.0,8.0,20.0,0.0,0.0
4019,65.0,35.0,120.0,1.0,0.0
4020,49.0,3.0,120.0,1.0,0.0
4021,37.0,14.0,60.0,0.0,0.0
4022,49.0,4.0,60.0,0.0,0.0
4023,68.0,10.0,60.0,0.0,0.0
4024,77.0,11.0,60.0,0.0,0.0
4025,75.0,22.0,30.0,0.0,0.0
4026,77.0,2.0,20.0,0.0,0.0
4027,68.0,9.0,210.0,1.0,0.0
4028,48.0,6.0,120.0,1.0,0.0
4029,63.0,32.0,120.0,1.0,0.0
4030,48.0,7.0,30.0,0.0,0.0
4031,80.0,7.0,30.0,0.0,0.0
4032,36.0,18.0,30.0,0.0,0.0
4033,75.0,0.0,30.0,0.0,0.0
4034,68.0,18.0,30.0,0.0,0.0
4035,80.0,17.0,30.0,0.0,0.0
4036,48.0,10.0,20.0,0.0,0.0
4037,68.0,1.0,20.0,0.0,0.0
4038,56.0,0.0,90.0,1.0,0.0
4039,72.0,34.0,30.0,0.0,0.0
4040,80.0,4.0,30.0,0.0,0.0
4041,44.0,7.0,30.0,0.0,0.0
4042,56.0,4.0,30.0,0.0,0.0
4043,56.0,3.0,20.0,0.0,0.0
4044,44.0,20.0,30.0,0.0,0.0
4045,68.0,3.0,30.0,0.0,0.0
4046,70.0,10.0,20.0,0.0,0.0
4047,56.0,26.0,15.0,1.0,0.0
4048,68.0,4.0,60.0,1.0,0.0
4049,55.0,25.0,120.0,1.0,0.0
4050,68.0,1.0,30.0,0.0,0.0
4051,72.0,3.0,30.0,0.0,0.0
4052,43.0,33.0,30.0,0.0,0.0
4053,55.0,1.0,30.0,0.0,0.0
4054,68.0,15.0,15.0,0.0,0.0
4055,72.0,5.0,15.0,0.0,0.0
4056,43.0,12.0,30.0,0.0,0.0
4057,55.0,14.0,30.0,0.0,0.0
4058,63.0,30.0,120.0,1.0,0.0
4059,54.0,2.0,120.0,1.0,0.0
4060,56.0,5.0,210.0,1.0,0.0
4061,68.0,23.0,240.0,1.0,0.0
4062,63.0,9.0,30.0,0.0,0.0
4063,72.0,38.0,30.0,0.0,0.0
4064,42.0,5.0,30.0,0.0,0.0
4065,54.0,2.0,30.0,0.0,0.0
4066,68.0,7.0,20.0,0.0,0.0
4067,42.0,8.0,30.0,0.0,0.0
4068,54.0,1.0,30.0,0.0,0.0
4069,70.0,10.0,20.0,0.0,0.0
4070,72.0,15.0,15.0,0.0,0.0
4071,61.0,2.0,120.0,1.0,0.0
4072,53.0,4.0,120.0,1.0,0.0
4073,65.0,1.0,30.0,0.0,0.0
4074,73.0,40.0,30.0,0.0,0.0
4075,68.0,9.0,30.0,0.0,0.0
4076,41.0,1.0,30.0,0.0,0.0
4077,53.0,5.0,30.0,0.0,0.0
4078,53.0,11.0,30.0,0.0,0.0
4079,41.0,5.0,30.0,0.0,0.0
4080,72.0,5.0,20.0,0.0,0.0
4081,73.0,8.0,20.0,0.0,0.0
4082,56.0,3.0,90.0,1.0,0.0
4083,66.0,3.0,120.0,1.0,0.0
4084,51.0,3.0,120.0,1.0,0.0
4085,60.0,71.0,120.0,1.0,0.0
4086,75.0,38.0,30.0,0.0,0.0
4087,39.0,2.0,30.0,0.0,0.0
4088,68.0,1.0,30.0,0.0,0.0
4089,66.0,8.0,30.0,0.0,0.0
4090,51.0,7.0,30.0,0.0,0.0
4091,73.0,1.0,20.0,0.0,0.0
4092,39.0,15.0,30.0,0.0,0.0
4093,51.0,6.0,30.0,0.0,0.0
4094,75.0,2.0,20.0,0.0,0.0
4095,56.0,2.0,90.0,1.0,0.0
4096,65.0,13.0,90.0,1.0,0.0
4097,49.0,1.0,90.0,1.0,0.0
4098,65.0,3.0,60.0,0.0,0.0
4099,77.0,6.0,60.0,0.0,0.0
4100,61.0,3.0,90.0,1.0,0.0
4101,37.0,2.0,90.0,0.0,0.0
4102,49.0,100.0,90.0,0.0,0.0
4103,68.0,1.0,60.0,0.0,0.0
4104,49.0,59.0,120.0,1.0,0.0
4105,65.0,3.0,90.0,1.0,0.0
4106,61.0,13.0,90.0,1.0,0.0
4107,56.0,11.0,90.0,1.0,0.0
4108,68.0,8.0,15.0,0.0,0.0
4109,70.0,24.0,15.0,0.0,0.0
4110,72.0,10.0,15.0,0.0,0.0
4111,73.0,10.0,15.0,0.0,0.0
4112,75.0,10.0,15.0,0.0,0.0
4113,77.0,68.0,15.0,0.0,0.0
4114,49.0,25.0,90.0,1.0,0.0
4115,58.0,0.0,90.0,1.0,0.0
4116,75.0,1.0,60.0,0.0,0.0
4117,37.0,91.0,120.0,0.0,0.0
4118,49.0,4.0,120.0,0.0,0.0
4119,67.0,2.0,90.0,1.0,0.0
4120,79.0,32.0,60.0,0.0,0.0
4121,70.0,2.0,60.0,0.0,0.0
4122,63.0,0.0,90.0,1.0,0.0
4123,63.0,5.0,120.0,1.0,0.0
4124,49.0,18.0,120.0,1.0,0.0
4125,58.0,18.0,90.0,1.0,0.0
4126,67.0,46.0,120.0,1.0,0.0
4127,70.0,11.0,20.0,0.0,0.0
4128,72.0,14.0,20.0,0.0,0.0
4129,73.0,18.0,20.0,0.0,0.0
4130,75.0,10.0,20.0,0.0,0.0
4131,77.0,10.0,20.0,0.0,0.0
4132,79.0,53.0,20.0,0.0,0.0
4133,75.0,1.0,60.0,0.0,0.0
4134,80.0,99.0,60.0,0.0,0.0
4135,48.0,7.0,60.0,0.0,0.0
4136,36.0,3.0,60.0,0.0,0.0
4137,68.0,9.0,60.0,0.0,0.0
4138,34.0,1.0,60.0,0.0,0.0
4139,79.0,0.0,60.0,0.0,0.0
4140,75.0,0.0,60.0,0.0,0.0
4141,82.0,1.0,60.0,0.0,0.0
4142,73.0,114.0,60.0,0.0,0.0
4143,46.0,4.0,60.0,0.0,0.0
4144,80.0,4.0,60.0,0.0,0.0
4145,44.0,0.0,60.0,0.0,0.0
4146,32.0,1.0,60.0,0.0,0.0
4147,75.0,11.0,60.0,0.0,0.0
4148,84.0,0.0,60.0,0.0,0.0
4149,72.0,77.0,60.0,0.0,0.0
4150,65.0,8.0,120.0,1.0,0.0
4151,56.0,3.0,120.0,1.0,0.0
4152,49.0,0.0,240.0,1.0,0.0
4153,73.0,2.0,30.0,0.0,0.0
4154,77.0,3.0,20.0,0.0,0.0
4155,37.0,32.0,30.0,0.0,0.0
4156,49.0,4.0,30.0,0.0,0.0
4157,68.0,18.0,120.0,1.0,0.0
4158,68.0,21.0,30.0,0.0,0.0
4159,73.0,1.0,30.0,0.0,0.0
4160,77.0,19.0,30.0,0.0,0.0
4161,49.0,1.0,30.0,0.0,0.0
4162,37.0,1.0,30.0,0.0,0.0
4163,68.0,4.0,20.0,0.0,0.0
4164,70.0,7.0,120.0,1.0,0.0
4165,67.0,7.0,120.0,1.0,0.0
4166,55.0,2.0,120.0,1.0,0.0
4167,49.0,1.0,30.0,0.0,0.0
4168,76.0,5.0,30.0,0.0,0.0
4169,73.0,36.0,30.0,0.0,0.0
4170,79.0,6.0,20.0,0.0,0.0
4171,37.0,0.0,30.0,0.0,0.0
4172,70.0,20.0,30.0,0.0,0.0
4173,37.0,3.0,30.0,0.0,0.0
4174,49.0,2.0,30.0,0.0,0.0
4175,73.0,1.0,30.0,0.0,0.0
4176,79.0,6.0,30.0,0.0,0.0
4177,76.0,2.0,30.0,0.0,0.0
4178,70.0,15.0,15.0,0.0,0.0
4179,68.0,3.0,120.0,1.0,0.0
4180,50.0,2.0,120.0,1.0,0.0
4181,50.0,2.0,30.0,0.0,0.0
4182,71.0,27.0,120.0,1.0,0.0
4183,71.0,13.0,15.0,0.0,0.0
4184,77.0,2.0,30.0,0.0,0.0
4185,38.0,11.0,30.0,0.0,0.0
4186,80.0,0.0,30.0,0.0,0.0
4187,53.0,3.0,120.0,1.0,0.0
4188,68.0,30.0,15.0,0.0,0.0
4189,50.0,3.0,30.0,0.0,0.0
4190,77.0,16.0,15.0,0.0,0.0
4191,80.0,0.0,15.0,0.0,0.0
4192,71.0,1.0,15.0,0.0,0.0
4193,38.0,10.0,30.0,0.0,0.0
4194,68.0,10.0,15.0,0.0,0.0
4195,72.0,1.0,360.0,1.0,0.0
4196,51.0,2.0,720.0,1.0,0.0
4197,63.0,3.0,690.0,1.0,0.0
4198,51.0,4.0,30.0,0.0,0.0
4199,80.0,28.0,30.0,0.0,0.0
4200,75.0,3.0,30.0,0.0,0.0
4201,39.0,1.0,30.0,0.0,0.0
4202,56.0,4.0,360.0,1.0,0.0
4203,72.0,1.0,30.0,0.0,0.0
4204,68.0,22.0,30.0,0.0,0.0
4205,72.0,0.0,30.0,0.0,0.0
4206,51.0,3.0,30.0,0.0,0.0
4207,80.0,32.0,30.0,0.0,0.0
4208,75.0,1.0,30.0,0.0,0.0
4209,39.0,1.0,30.0,0.0,0.0
4210,68.0,26.0,30.0,0.0,0.0
4211,80.0,28.0,30.0,0.0,0.0
4212,39.0,5.0,30.0,0.0,0.0
4213,75.0,1.0,30.0,0.0,0.0
4214,51.0,2.0,30.0,0.0,0.0
4215,72.0,0.0,30.0,0.0,0.0
4216,68.0,22.0,30.0,0.0,0.0
4217,51.0,0.0,30.0,0.0,0.0
4218,39.0,0.0,30.0,0.0,0.0
4219,75.0,2.0,30.0,0.0,0.0
4220,80.0,36.0,30.0,0.0,0.0
4221,72.0,0.0,30.0,0.0,0.0
4222,68.0,21.0,30.0,0.0,0.0
4223,51.0,3.0,30.0,0.0,0.0
4224,80.0,3.0,30.0,0.0,0.0
4225,72.0,26.0,30.0,0.0,0.0
4226,75.0,4.0,30.0,0.0,0.0
4227,39.0,0.0,30.0,0.0,0.0
4228,68.0,26.0,30.0,0.0,0.0
4229,80.0,1.0,30.0,0.0,0.0
4230,39.0,2.0,30.0,0.0,0.0
4231,51.0,0.0,30.0,0.0,0.0
4232,75.0,8.0,30.0,0.0,0.0
4233,72.0,13.0,30.0,0.0,0.0
4234,68.0,34.0,30.0,0.0,0.0
4235,55.0,7.0,360.0,1.0,0.0
4236,70.0,82.0,360.0,1.0,0.0
4237,27.0,0.0,30.0,0.0,0.0
4238,39.0,32.0,30.0,0.0,0.0
4239,75.0,1.0,30.0,0.0,0.0
4240,79.0,1.0,30.0,0.0,0.0
4241,70.0,21.0,30.0,0.0,0.0
4242,79.0,1.0,30.0,0.0,0.0
4243,75.0,0.0,30.0,0.0,0.0
4244,27.0,40.0,30.0,0.0,0.0
4245,39.0,1.0,30.0,0.0,0.0
4246,70.0,20.0,30.0,0.0,0.0
4247,39.0,1.0,30.0,0.0,0.0
4248,27.0,1.0,30.0,0.0,0.0
4249,75.0,30.0,30.0,0.0,0.0
4250,79.0,1.0,30.0,0.0,0.0
4251,70.0,22.0,30.0,0.0,0.0
4252,79.0,2.0,30.0,0.0,0.0
4253,27.0,2.0,20.0,0.0,0.0
4254,39.0,1.0,20.0,0.0,0.0
4255,75.0,37.0,30.0,0.0,0.0
4256,70.0,17.0,30.0,0.0,0.0
4257,27.0,2.0,30.0,0.0,0.0
4258,39.0,4.0,20.0,0.0,0.0
4259,75.0,2.0,30.0,0.0,0.0
4260,79.0,36.0,30.0,0.0,0.0
4261,70.0,13.0,30.0,0.0,0.0
4262,27.0,1.0,30.0,0.0,0.0
4263,79.0,3.0,30.0,0.0,0.0
4264,75.0,7.0,30.0,0.0,0.0
4265,39.0,7.0,20.0,0.0,0.0
4266,70.0,6.0,15.0,0.0,0.0
4267,56.0,15.0,90.0,1.0,0.0
4268,63.0,121.0,120.0,1.0,0.0
4269,44.0,3.0,90.0,1.0,0.0
4270,68.0,4.0,120.0,1.0,0.0
4271,32.0,4.0,90.0,0.0,0.0
4272,75.0,1.0,90.0,0.0,0.0
4273,72.0,3.0,90.0,0.0,0.0
4274,44.0,3.0,120.0,0.0,0.0
4275,80.0,2.0,90.0,0.0,0.0
4276,44.0,5.0,120.0,1.0,0.0
4277,56.0,2.0,20.0,0.0,0.0
4278,44.0,2.0,30.0,0.0,0.0
4279,46.0,4.0,20.0,0.0,0.0
4280,58.0,3.0,15.0,0.0,0.0
4281,48.0,79.0,20.0,0.0,0.0
4282,60.0,12.0,15.0,0.0,0.0
4283,48.0,4.0,90.0,1.0,0.0
4284,60.0,2.0,15.0,0.0,0.0
4285,48.0,6.0,20.0,0.0,0.0
4286,49.0,87.0,20.0,0.0,0.0
4287,61.0,1.0,20.0,0.0,0.0
4288,51.0,2.0,120.0,1.0,0.0
4289,51.0,15.0,90.0,0.0,0.0
4290,63.0,106.0,120.0,0.0,0.0
4291,48.0,1.0,120.0,1.0,0.0
4292,60.0,3.0,20.0,0.0,0.0
4293,48.0,3.0,30.0,0.0,0.0
4294,49.0,11.0,20.0,0.0,0.0
4295,61.0,3.0,20.0,0.0,0.0
4296,51.0,0.0,90.0,1.0,0.0
4297,51.0,73.0,20.0,0.0,0.0
4298,63.0,1.0,20.0,0.0,0.0
4299,51.0,1.0,20.0,0.0,0.0
4300,63.0,7.0,20.0,0.0,0.0
4301,53.0,4.0,20.0,0.0,0.0
4302,65.0,2.0,30.0,0.0,0.0
4303,55.0,74.0,20.0,0.0,0.0
4304,67.0,8.0,15.0,0.0,0.0
4305,68.0,87.0,120.0,0.0,0.0
4306,56.0,14.0,90.0,0.0,0.0
4307,60.0,14.0,90.0,0.0,0.0
4308,56.0,2.0,120.0,1.0,0.0
4309,56.0,7.0,60.0,0.0,0.0
4310,44.0,9.0,90.0,0.0,0.0
4311,68.0,14.0,15.0,0.0,0.0
4312,70.0,14.0,15.0,0.0,0.0
4313,72.0,33.0,30.0,0.0,0.0
4314,60.0,7.0,120.0,1.0,0.0
4315,60.0,6.0,20.0,0.0,0.0
4316,51.0,16.0,60.0,0.0,0.0
4317,39.0,12.0,60.0,0.0,0.0
4318,72.0,1.0,15.0,0.0,0.0
4319,73.0,4.0,15.0,0.0,0.0
4320,63.0,20.0,90.0,0.0,0.0
4321,75.0,28.0,90.0,0.0,0.0
4322,56.0,4.0,360.0,1.0,0.0
4323,63.0,1.0,120.0,1.0,0.0
4324,48.0,1.0,60.0,0.0,0.0
4325,36.0,18.0,60.0,0.0,0.0
4326,60.0,2.0,120.0,1.0,0.0
4327,39.0,61.0,60.0,0.0,0.0
4328,51.0,4.0,60.0,0.0,0.0
4329,72.0,11.0,30.0,0.0,0.0
4330,73.0,15.0,30.0,0.0,0.0
4331,63.0,3.0,90.0,1.0,0.0
4332,63.0,1.0,15.0,0.0,0.0
4333,48.0,1.0,60.0,0.0,0.0
4334,75.0,23.0,30.0,0.0,0.0
4335,36.0,39.0,60.0,0.0,0.0
4336,75.0,17.0,20.0,0.0,0.0
4337,77.0,2.0,20.0,0.0,0.0
4338,79.0,43.0,20.0,0.0,0.0
4339,60.0,1.0,360.0,1.0,0.0
4340,63.0,6.0,15.0,1.0,0.0
4341,68.0,117.0,330.0,1.0,0.0
4342,80.0,4.0,60.0,0.0,0.0
4343,68.0,70.0,90.0,0.0,0.0
4344,44.0,8.0,60.0,0.0,0.0
4345,32.0,18.0,60.0,0.0,0.0
4346,32.0,107.0,60.0,0.0,0.0
4347,44.0,2.0,60.0,0.0,0.0
4348,80.0,11.0,30.0,0.0,0.0
4349,75.0,4.0,30.0,0.0,0.0
4350,72.0,0.0,30.0,0.0,0.0
4351,68.0,4.0,30.0,0.0,0.0
4352,72.0,2.0,30.0,0.0,0.0
4353,32.0,49.0,60.0,0.0,0.0
4354,44.0,4.0,30.0,0.0,0.0
4355,75.0,3.0,30.0,0.0,0.0
4356,68.0,2.0,30.0,0.0,0.0
4357,80.0,1.0,30.0,0.0,0.0
4358,63.0,12.0,120.0,1.0,0.0
4359,44.0,3.0,90.0,0.0,0.0
4360,32.0,7.0,120.0,0.0,0.0
4361,75.0,1.0,120.0,0.0,0.0
4362,80.0,0.0,120.0,0.0,0.0
4363,68.0,5.0,120.0,0.0,0.0
4364,72.0,2.0,120.0,0.0,0.0
4365,60.0,0.0,120.0,1.0,0.0
4366,68.0,3.0,90.0,1.0,0.0
4367,56.0,1.0,90.0,1.0,0.0
