,note,step,duration,channel,velocity
0,58.0,120.0,90.0,11.0,64.0
1,57.0,120.0,90.0,11.0,64.0
2,58.0,120.0,90.0,11.0,64.0
3,60.0,120.0,90.0,11.0,64.0
4,62.0,120.0,90.0,11.0,64.0
5,60.0,120.0,90.0,11.0,64.0
6,62.0,120.0,90.0,11.0,64.0
7,77.0,96.0,480.0,10.0,64.0
8,60.0,120.0,90.0,11.0,64.0
9,58.0,120.0,90.0,11.0,64.0
10,57.0,24.0,90.0,11.0,64.0
11,58.0,96.0,90.0,11.0,64.0
12,74.0,24.0,180.0,10.0,64.0
13,60.0,120.0,90.0,11.0,64.0
14,62.0,120.0,90.0,11.0,64.0
15,60.0,120.0,90.0,11.0,64.0
16,70.0,96.0,480.0,10.0,64.0
17,62.0,120.0,90.0,11.0,64.0
18,58.0,120.0,90.0,11.0,64.0
19,60.0,120.0,90.0,11.0,64.0
20,59.0,24.0,90.0,11.0,64.0
21,60.0,96.0,90.0,11.0,64.0
22,69.0,24.0,180.0,10.0,64.0
23,62.0,120.0,90.0,11.0,64.0
24,63.0,120.0,90.0,11.0,64.0
25,62.0,120.0,90.0,11.0,64.0
26,77.0,96.0,480.0,10.0,64.0
27,63.0,120.0,90.0,11.0,64.0
28,62.0,120.0,90.0,11.0,64.0
29,60.0,120.0,90.0,11.0,64.0
30,59.0,24.0,90.0,11.0,64.0
31,75.0,24.0,180.0,10.0,64.0
32,60.0,96.0,90.0,11.0,64.0
33,62.0,120.0,90.0,11.0,64.0
34,63.0,120.0,90.0,11.0,64.0
35,62.0,120.0,90.0,11.0,64.0
36,72.0,96.0,480.0,10.0,64.0
37,63.0,120.0,90.0,11.0,64.0
38,60.0,120.0,90.0,11.0,64.0
39,62.0,120.0,90.0,11.0,64.0
40,60.0,24.0,90.0,11.0,64.0
41,70.0,24.0,180.0,10.0,64.0
42,62.0,96.0,90.0,11.0,64.0
43,63.0,120.0,90.0,11.0,64.0
44,65.0,120.0,90.0,11.0,64.0
45,63.0,120.0,90.0,11.0,64.0
46,82.0,96.0,480.0,10.0,64.0
47,65.0,120.0,90.0,11.0,64.0
48,63.0,120.0,90.0,11.0,64.0
49,62.0,120.0,90.0,11.0,64.0
50,63.0,24.0,90.0,11.0,64.0
51,77.0,24.0,180.0,10.0,64.0
52,65.0,96.0,90.0,11.0,64.0
53,67.0,120.0,90.0,11.0,64.0
54,68.0,120.0,90.0,11.0,64.0
55,67.0,120.0,90.0,11.0,64.0
56,68.0,120.0,90.0,11.0,64.0
57,74.0,96.0,240.0,10.0,64.0
58,65.0,24.0,90.0,11.0,64.0
59,67.0,60.0,90.0,11.0,64.0
60,75.0,60.0,150.0,10.0,64.0
61,65.0,84.0,90.0,11.0,64.0
62,79.0,36.0,60.0,10.0,64.0
63,63.0,24.0,90.0,11.0,64.0
64,77.0,60.0,60.0,10.0,64.0
65,62.0,12.0,90.0,11.0,64.0
66,79.0,36.0,60.0,10.0,64.0
67,77.0,108.0,40.0,10.0,64.0
68,63.0,96.0,90.0,11.0,64.0
69,79.0,24.0,180.0,10.0,64.0
70,65.0,120.0,90.0,11.0,64.0
71,67.0,120.0,90.0,11.0,64.0
72,69.0,84.0,90.0,11.0,64.0
73,79.0,84.0,60.0,10.0,64.0
74,70.0,60.0,150.0,11.0,64.0
75,77.0,132.0,150.0,10.0,64.0
76,75.0,48.0,90.0,10.0,64.0
77,67.0,72.0,150.0,11.0,64.0
78,74.0,84.0,90.0,10.0,64.0
79,74.0,84.0,60.0,10.0,64.0
80,63.0,60.0,150.0,11.0,64.0
81,72.0,132.0,150.0,10.0,64.0
82,65.0,72.0,150.0,11.0,64.0
83,70.0,48.0,90.0,10.0,64.0
84,69.0,120.0,90.0,10.0,64.0
85,70.0,0.0,390.0,1.0,64.0
86,58.0,72.0,390.0,2.0,64.0
87,58.0,0.0,90.0,12.0,64.0
88,58.0,0.0,90.0,13.0,64.0
89,58.0,0.0,90.0,3.0,64.0
90,70.0,0.0,390.0,0.0,64.0
91,58.0,0.0,390.0,5.0,64.0
92,70.0,0.0,90.0,10.0,64.0
93,46.0,0.0,90.0,14.0,64.0
94,46.0,0.0,390.0,4.0,64.0
95,70.0,120.0,90.0,11.0,64.0
96,46.0,0.0,390.0,6.0,64.0
97,62.0,0.0,90.0,13.0,64.0
98,62.0,0.0,90.0,3.0,64.0
99,50.0,120.0,90.0,14.0,64.0
100,62.0,0.0,90.0,12.0,64.0
101,74.0,0.0,90.0,10.0,64.0
102,74.0,0.0,90.0,11.0,64.0
103,72.0,48.0,90.0,11.0,64.0
104,60.0,0.0,90.0,3.0,64.0
105,60.0,0.0,90.0,13.0,64.0
106,72.0,0.0,90.0,10.0,64.0
107,60.0,0.0,90.0,12.0,64.0
108,48.0,0.0,90.0,14.0,64.0
109,70.0,0.0,90.0,11.0,64.0
110,46.0,0.0,90.0,14.0,64.0
111,58.0,0.0,90.0,3.0,64.0
112,58.0,120.0,90.0,13.0,64.0
113,70.0,0.0,90.0,10.0,64.0
114,58.0,0.0,90.0,12.0,64.0
115,45.0,0.0,90.0,14.0,64.0
116,57.0,0.0,90.0,13.0,64.0
117,70.0,72.0,150.0,0.0,64.0
118,57.0,0.0,90.0,3.0,64.0
119,58.0,0.0,150.0,2.0,64.0
120,46.0,0.0,150.0,4.0,64.0
121,69.0,0.0,90.0,10.0,64.0
122,57.0,48.0,90.0,12.0,64.0
123,70.0,0.0,150.0,1.0,64.0
124,69.0,0.0,90.0,11.0,64.0
125,58.0,0.0,150.0,5.0,64.0
126,70.0,0.0,90.0,10.0,64.0
127,58.0,0.0,90.0,13.0,64.0
128,58.0,0.0,90.0,12.0,64.0
129,70.0,0.0,90.0,11.0,64.0
130,58.0,0.0,90.0,3.0,64.0
131,46.0,120.0,90.0,14.0,64.0
132,46.0,72.0,150.0,4.0,64.0
133,67.0,0.0,90.0,11.0,64.0
134,70.0,0.0,150.0,1.0,64.0
135,67.0,0.0,90.0,10.0,64.0
136,46.0,48.0,90.0,6.0,64.0
137,70.0,0.0,150.0,0.0,64.0
138,58.0,0.0,150.0,5.0,64.0
139,58.0,0.0,150.0,2.0,64.0
140,55.0,0.0,90.0,13.0,64.0
141,43.0,0.0,90.0,14.0,64.0
142,55.0,0.0,90.0,12.0,64.0
143,55.0,0.0,90.0,3.0,64.0
144,69.0,0.0,90.0,11.0,64.0
145,45.0,0.0,90.0,14.0,64.0
146,57.0,120.0,90.0,3.0,64.0
147,69.0,0.0,90.0,10.0,64.0
148,57.0,0.0,90.0,12.0,64.0
149,57.0,0.0,90.0,13.0,64.0
150,46.0,0.0,90.0,6.0,64.0
151,53.0,0.0,90.0,12.0,64.0
152,41.0,0.0,90.0,14.0,64.0
153,53.0,0.0,90.0,13.0,64.0
154,53.0,0.0,90.0,3.0,64.0
155,46.0,72.0,390.0,6.0,64.0
156,62.0,0.0,390.0,2.0,64.0
157,62.0,0.0,390.0,5.0,64.0
158,74.0,0.0,390.0,1.0,64.0
159,74.0,0.0,390.0,0.0,64.0
160,65.0,120.0,90.0,10.0,64.0
161,65.0,0.0,90.0,11.0,64.0
162,50.0,0.0,390.0,4.0,64.0
163,58.0,0.0,90.0,12.0,64.0
164,46.0,0.0,90.0,14.0,64.0
165,70.0,120.0,90.0,10.0,64.0
166,58.0,0.0,90.0,13.0,64.0
167,70.0,0.0,90.0,11.0,64.0
168,58.0,0.0,90.0,3.0,64.0
169,57.0,0.0,90.0,12.0,64.0
170,69.0,0.0,90.0,11.0,64.0
171,45.0,0.0,90.0,14.0,64.0
172,57.0,48.0,90.0,13.0,64.0
173,57.0,0.0,90.0,3.0,64.0
174,69.0,0.0,90.0,10.0,64.0
175,67.0,0.0,90.0,11.0,64.0
176,67.0,120.0,90.0,10.0,64.0
177,43.0,0.0,90.0,14.0,64.0
178,55.0,0.0,90.0,13.0,64.0
179,55.0,0.0,90.0,3.0,64.0
180,55.0,0.0,90.0,12.0,64.0
181,74.0,0.0,150.0,0.0,64.0
182,53.0,48.0,90.0,12.0,64.0
183,53.0,0.0,90.0,13.0,64.0
184,62.0,0.0,150.0,5.0,64.0
185,41.0,0.0,90.0,14.0,64.0
186,62.0,0.0,150.0,2.0,64.0
187,65.0,0.0,90.0,10.0,64.0
188,53.0,0.0,90.0,3.0,64.0
189,65.0,0.0,90.0,11.0,64.0
190,50.0,0.0,150.0,4.0,64.0
191,74.0,72.0,150.0,1.0,64.0
192,67.0,120.0,90.0,11.0,64.0
193,67.0,0.0,90.0,10.0,64.0
194,55.0,0.0,90.0,12.0,64.0
195,55.0,0.0,90.0,13.0,64.0
196,55.0,0.0,90.0,3.0,64.0
197,43.0,0.0,90.0,14.0,64.0
198,74.0,0.0,150.0,0.0,64.0
199,46.0,0.0,90.0,6.0,64.0
200,62.0,0.0,150.0,5.0,64.0
201,50.0,0.0,150.0,4.0,64.0
202,51.0,0.0,90.0,12.0,64.0
203,51.0,0.0,90.0,3.0,64.0
204,51.0,48.0,90.0,13.0,64.0
205,63.0,0.0,90.0,11.0,64.0
206,39.0,0.0,90.0,14.0,64.0
207,62.0,72.0,150.0,2.0,64.0
208,63.0,0.0,90.0,10.0,64.0
209,74.0,0.0,150.0,1.0,64.0
210,41.0,0.0,90.0,14.0,64.0
211,46.0,0.0,90.0,6.0,64.0
212,53.0,0.0,90.0,13.0,64.0
213,65.0,120.0,90.0,11.0,64.0
214,65.0,0.0,90.0,10.0,64.0
215,53.0,0.0,90.0,12.0,64.0
216,53.0,0.0,90.0,3.0,64.0
217,50.0,0.0,90.0,3.0,64.0
218,62.0,120.0,90.0,11.0,64.0
219,38.0,0.0,90.0,14.0,64.0
220,65.0,0.0,390.0,5.0,64.0
221,77.0,0.0,390.0,0.0,64.0
222,62.0,0.0,90.0,10.0,64.0
223,77.0,0.0,390.0,1.0,64.0
224,46.0,72.0,390.0,6.0,64.0
225,50.0,0.0,90.0,12.0,64.0
226,65.0,0.0,390.0,2.0,64.0
227,53.0,0.0,390.0,4.0,64.0
228,50.0,0.0,90.0,13.0,64.0
229,55.0,0.0,90.0,12.0,64.0
230,55.0,0.0,90.0,13.0,64.0
231,55.0,0.0,90.0,3.0,64.0
232,67.0,0.0,90.0,11.0,64.0
233,67.0,0.0,90.0,10.0,64.0
234,43.0,120.0,90.0,14.0,64.0
235,41.0,0.0,90.0,14.0,64.0
236,53.0,0.0,90.0,13.0,64.0
237,53.0,0.0,90.0,3.0,64.0
238,65.0,0.0,90.0,11.0,64.0
239,65.0,48.0,90.0,10.0,64.0
240,53.0,0.0,90.0,12.0,64.0
241,63.0,0.0,90.0,10.0,64.0
242,51.0,0.0,90.0,3.0,64.0
243,39.0,0.0,90.0,14.0,64.0
244,63.0,0.0,90.0,11.0,64.0
245,51.0,0.0,90.0,13.0,64.0
246,51.0,120.0,90.0,12.0,64.0
247,53.0,0.0,150.0,4.0,64.0
248,50.0,0.0,90.0,13.0,64.0
249,50.0,48.0,90.0,3.0,64.0
250,77.0,0.0,150.0,0.0,64.0
251,62.0,0.0,90.0,10.0,64.0
252,77.0,0.0,150.0,1.0,64.0
253,38.0,0.0,90.0,14.0,64.0
254,50.0,0.0,90.0,12.0,64.0
255,65.0,0.0,150.0,2.0,64.0
256,65.0,72.0,150.0,5.0,64.0
257,62.0,0.0,90.0,11.0,64.0
258,63.0,0.0,90.0,11.0,64.0
259,51.0,0.0,90.0,13.0,64.0
260,63.0,120.0,90.0,10.0,64.0
261,51.0,0.0,90.0,3.0,64.0
262,39.0,0.0,90.0,14.0,64.0
263,51.0,0.0,90.0,12.0,64.0
264,48.0,48.0,90.0,12.0,64.0
265,77.0,72.0,150.0,1.0,64.0
266,77.0,0.0,150.0,0.0,64.0
267,65.0,0.0,150.0,2.0,64.0
268,53.0,0.0,150.0,4.0,64.0
269,48.0,0.0,90.0,3.0,64.0
270,36.0,0.0,90.0,14.0,64.0
271,46.0,0.0,90.0,6.0,64.0
272,65.0,0.0,150.0,5.0,64.0
273,60.0,0.0,90.0,11.0,64.0
274,60.0,0.0,90.0,10.0,64.0
275,48.0,0.0,90.0,13.0,64.0
276,62.0,0.0,90.0,11.0,64.0
277,50.0,120.0,90.0,3.0,64.0
278,62.0,0.0,90.0,10.0,64.0
279,50.0,0.0,90.0,13.0,64.0
280,46.0,0.0,90.0,6.0,64.0
281,50.0,0.0,90.0,12.0,64.0
282,38.0,0.0,90.0,14.0,64.0
283,70.0,0.0,180.0,2.0,64.0
284,46.0,0.0,180.0,6.0,64.0
285,46.0,0.0,180.0,4.0,64.0
286,82.0,0.0,180.0,1.0,64.0
287,77.0,0.0,180.0,1.0,64.0
288,58.0,0.0,180.0,10.0,64.0
289,34.0,0.0,180.0,14.0,64.0
290,58.0,96.0,90.0,11.0,64.0
291,58.0,0.0,180.0,5.0,64.0
292,65.0,0.0,180.0,2.0,64.0
293,70.0,0.0,180.0,5.0,64.0
294,77.0,0.0,180.0,0.0,64.0
295,46.0,24.0,180.0,13.0,64.0
296,82.0,0.0,180.0,0.0,64.0
297,46.0,0.0,180.0,3.0,64.0
298,46.0,0.0,180.0,12.0,64.0
299,58.0,0.0,180.0,4.0,64.0
300,57.0,120.0,90.0,11.0,64.0
301,58.0,120.0,90.0,11.0,64.0
302,60.0,120.0,90.0,11.0,64.0
303,62.0,120.0,90.0,11.0,64.0
304,60.0,120.0,90.0,11.0,64.0
305,77.0,96.0,480.0,10.0,64.0
306,62.0,120.0,90.0,11.0,64.0
307,60.0,120.0,90.0,11.0,64.0
308,58.0,120.0,90.0,11.0,64.0
309,57.0,24.0,90.0,11.0,64.0
310,74.0,24.0,180.0,10.0,64.0
311,58.0,96.0,90.0,11.0,64.0
312,60.0,120.0,90.0,11.0,64.0
313,62.0,120.0,90.0,11.0,64.0
314,60.0,120.0,90.0,11.0,64.0
315,62.0,120.0,90.0,11.0,64.0
316,70.0,96.0,480.0,10.0,64.0
317,58.0,120.0,90.0,11.0,64.0
318,60.0,120.0,90.0,11.0,64.0
319,59.0,24.0,90.0,11.0,64.0
320,60.0,96.0,90.0,11.0,64.0
321,69.0,24.0,180.0,10.0,64.0
322,62.0,120.0,90.0,11.0,64.0
323,63.0,120.0,90.0,11.0,64.0
324,62.0,120.0,90.0,11.0,64.0
325,77.0,96.0,480.0,10.0,64.0
326,63.0,120.0,90.0,11.0,64.0
327,62.0,120.0,90.0,11.0,64.0
328,60.0,120.0,90.0,11.0,64.0
329,59.0,24.0,90.0,11.0,64.0
330,75.0,24.0,180.0,10.0,64.0
331,60.0,96.0,90.0,11.0,64.0
332,62.0,120.0,90.0,11.0,64.0
333,63.0,120.0,90.0,11.0,64.0
334,62.0,120.0,90.0,11.0,64.0
335,72.0,96.0,480.0,10.0,64.0
336,63.0,120.0,90.0,11.0,64.0
337,60.0,120.0,90.0,11.0,64.0
338,62.0,120.0,90.0,11.0,64.0
339,60.0,24.0,90.0,11.0,64.0
340,62.0,96.0,90.0,11.0,64.0
341,70.0,24.0,180.0,10.0,64.0
342,63.0,120.0,90.0,11.0,64.0
343,65.0,120.0,90.0,11.0,64.0
344,63.0,120.0,90.0,11.0,64.0
345,82.0,96.0,480.0,10.0,64.0
346,65.0,120.0,90.0,11.0,64.0
347,63.0,120.0,90.0,11.0,64.0
348,62.0,120.0,90.0,11.0,64.0
349,63.0,24.0,90.0,11.0,64.0
350,65.0,96.0,90.0,11.0,64.0
351,77.0,24.0,180.0,10.0,64.0
352,67.0,120.0,90.0,11.0,64.0
353,68.0,120.0,90.0,11.0,64.0
354,67.0,120.0,90.0,11.0,64.0
355,68.0,120.0,90.0,11.0,64.0
356,74.0,96.0,240.0,10.0,64.0
357,65.0,24.0,90.0,11.0,64.0
358,67.0,60.0,90.0,11.0,64.0
359,75.0,60.0,150.0,10.0,64.0
360,65.0,84.0,90.0,11.0,64.0
361,63.0,24.0,90.0,11.0,64.0
362,79.0,36.0,60.0,10.0,64.0
363,77.0,60.0,60.0,10.0,64.0
364,79.0,36.0,60.0,10.0,64.0
365,62.0,12.0,90.0,11.0,64.0
366,77.0,108.0,40.0,10.0,64.0
367,79.0,24.0,180.0,10.0,64.0
368,63.0,96.0,90.0,11.0,64.0
369,65.0,120.0,90.0,11.0,64.0
370,67.0,120.0,90.0,11.0,64.0
371,69.0,84.0,90.0,11.0,64.0
372,79.0,96.0,60.0,10.0,64.0
373,70.0,73.0,150.0,11.0,64.0
374,77.0,107.0,180.0,10.0,64.0
375,75.0,60.0,90.0,10.0,64.0
376,67.0,60.0,150.0,11.0,64.0
377,74.0,84.0,90.0,10.0,64.0
378,74.0,96.0,60.0,10.0,64.0
379,63.0,73.0,150.0,11.0,64.0
380,72.0,107.0,180.0,10.0,64.0
381,70.0,60.0,90.0,10.0,64.0
382,65.0,60.0,150.0,11.0,64.0
383,69.0,144.0,90.0,10.0,64.0
384,62.0,60.0,150.0,11.0,64.0
385,72.0,36.0,120.0,10.0,64.0
386,70.0,144.0,90.0,10.0,64.0
387,57.0,60.0,150.0,11.0,64.0
388,74.0,36.0,120.0,10.0,64.0
389,72.0,144.0,90.0,10.0,64.0
390,58.0,84.0,150.0,11.0,64.0
391,75.0,36.0,120.0,10.0,64.0
392,74.0,120.0,120.0,10.0,64.0
393,77.0,36.0,120.0,10.0,64.0
394,60.0,60.0,150.0,11.0,64.0
395,75.0,84.0,90.0,10.0,64.0
396,62.0,73.0,150.0,11.0,64.0
397,79.0,96.0,60.0,10.0,64.0
398,77.0,107.0,180.0,10.0,64.0
399,75.0,60.0,90.0,10.0,64.0
400,67.0,60.0,150.0,11.0,64.0
401,74.0,84.0,90.0,10.0,64.0
402,74.0,96.0,60.0,10.0,64.0
403,63.0,73.0,150.0,11.0,64.0
404,72.0,107.0,180.0,10.0,64.0
405,70.0,60.0,90.0,10.0,64.0
406,65.0,60.0,150.0,11.0,64.0
407,69.0,120.0,90.0,10.0,64.0
408,70.0,120.0,90.0,10.0,64.0
409,46.0,0.0,390.0,6.0,64.0
410,70.0,0.0,90.0,11.0,64.0
411,58.0,0.0,90.0,3.0,64.0
412,58.0,0.0,90.0,12.0,64.0
413,46.0,0.0,90.0,14.0,64.0
414,46.0,72.0,390.0,4.0,64.0
415,58.0,0.0,390.0,5.0,64.0
416,70.0,0.0,390.0,1.0,64.0
417,70.0,0.0,390.0,0.0,64.0
418,58.0,0.0,390.0,2.0,64.0
419,58.0,0.0,90.0,13.0,64.0
420,62.0,120.0,90.0,12.0,64.0
421,74.0,0.0,90.0,11.0,64.0
422,50.0,0.0,90.0,14.0,64.0
423,62.0,0.0,90.0,3.0,64.0
424,74.0,0.0,90.0,10.0,64.0
425,62.0,0.0,90.0,13.0,64.0
426,60.0,0.0,90.0,12.0,64.0
427,72.0,48.0,90.0,11.0,64.0
428,48.0,0.0,90.0,14.0,64.0
429,72.0,0.0,90.0,10.0,64.0
430,60.0,0.0,90.0,13.0,64.0
431,60.0,0.0,90.0,3.0,64.0
432,58.0,0.0,90.0,13.0,64.0
433,70.0,0.0,90.0,10.0,64.0
434,46.0,0.0,90.0,14.0,64.0
435,70.0,0.0,90.0,11.0,64.0
436,58.0,120.0,90.0,3.0,64.0
437,58.0,0.0,90.0,12.0,64.0
438,57.0,0.0,90.0,13.0,64.0
439,70.0,0.0,150.0,1.0,64.0
440,57.0,0.0,90.0,3.0,64.0
441,58.0,0.0,150.0,2.0,64.0
442,57.0,0.0,90.0,12.0,64.0
443,69.0,0.0,90.0,11.0,64.0
444,69.0,0.0,90.0,10.0,64.0
445,70.0,0.0,150.0,0.0,64.0
446,45.0,48.0,90.0,14.0,64.0
447,58.0,72.0,150.0,5.0,64.0
448,46.0,0.0,150.0,4.0,64.0
449,46.0,0.0,90.0,14.0,64.0
450,58.0,0.0,90.0,13.0,64.0
451,58.0,0.0,90.0,3.0,64.0
452,58.0,0.0,90.0,12.0,64.0
453,70.0,120.0,90.0,11.0,64.0
454,70.0,0.0,90.0,10.0,64.0
455,55.0,0.0,90.0,3.0,64.0
456,70.0,0.0,150.0,0.0,64.0
457,67.0,0.0,90.0,10.0,64.0
458,43.0,0.0,90.0,14.0,64.0
459,46.0,48.0,90.0,6.0,64.0
460,58.0,0.0,150.0,5.0,64.0
461,46.0,72.0,150.0,4.0,64.0
462,55.0,0.0,90.0,12.0,64.0
463,70.0,0.0,150.0,1.0,64.0
464,67.0,0.0,90.0,11.0,64.0
465,55.0,0.0,90.0,13.0,64.0
466,58.0,0.0,150.0,2.0,64.0
467,69.0,120.0,90.0,10.0,64.0
468,45.0,0.0,90.0,14.0,64.0
469,57.0,0.0,90.0,13.0,64.0
470,69.0,0.0,90.0,11.0,64.0
471,57.0,0.0,90.0,3.0,64.0
472,46.0,0.0,90.0,6.0,64.0
473,57.0,0.0,90.0,12.0,64.0
474,74.0,0.0,390.0,1.0,64.0
475,62.0,0.0,390.0,2.0,64.0
476,65.0,0.0,90.0,11.0,64.0
477,53.0,0.0,90.0,3.0,64.0
478,62.0,0.0,390.0,5.0,64.0
479,74.0,0.0,390.0,0.0,64.0
480,53.0,0.0,90.0,13.0,64.0
481,65.0,120.0,90.0,10.0,64.0
482,53.0,0.0,90.0,12.0,64.0
483,41.0,0.0,90.0,14.0,64.0
484,50.0,0.0,390.0,4.0,64.0
485,46.0,72.0,390.0,6.0,64.0
486,70.0,120.0,90.0,10.0,64.0
487,58.0,0.0,90.0,3.0,64.0
488,46.0,0.0,90.0,14.0,64.0
489,58.0,0.0,90.0,12.0,64.0
490,58.0,0.0,90.0,13.0,64.0
491,70.0,0.0,90.0,11.0,64.0
492,69.0,0.0,90.0,10.0,64.0
493,45.0,48.0,90.0,14.0,64.0
494,57.0,0.0,90.0,3.0,64.0
495,57.0,0.0,90.0,12.0,64.0
496,69.0,0.0,90.0,11.0,64.0
497,57.0,0.0,90.0,13.0,64.0
498,55.0,0.0,90.0,12.0,64.0
499,67.0,120.0,90.0,11.0,64.0
500,55.0,0.0,90.0,3.0,64.0
501,43.0,0.0,90.0,14.0,64.0
502,55.0,0.0,90.0,13.0,64.0
503,67.0,0.0,90.0,10.0,64.0
504,53.0,0.0,90.0,3.0,64.0
505,41.0,0.0,90.0,14.0,64.0
506,53.0,0.0,90.0,13.0,64.0
507,50.0,0.0,150.0,4.0,64.0
508,62.0,0.0,150.0,5.0,64.0
509,65.0,0.0,90.0,10.0,64.0
510,74.0,0.0,150.0,0.0,64.0
511,53.0,48.0,90.0,12.0,64.0
512,74.0,0.0,150.0,1.0,64.0
513,65.0,0.0,90.0,11.0,64.0
514,62.0,72.0,150.0,2.0,64.0
515,67.0,0.0,90.0,11.0,64.0
516,55.0,0.0,90.0,3.0,64.0
517,55.0,0.0,90.0,12.0,64.0
518,55.0,120.0,90.0,13.0,64.0
519,67.0,0.0,90.0,10.0,64.0
520,43.0,0.0,90.0,14.0,64.0
521,51.0,0.0,90.0,3.0,64.0
522,46.0,0.0,90.0,6.0,64.0
523,50.0,0.0,150.0,4.0,64.0
524,62.0,0.0,150.0,5.0,64.0
525,74.0,72.0,150.0,1.0,64.0
526,39.0,0.0,90.0,14.0,64.0
527,63.0,0.0,90.0,11.0,64.0
528,63.0,0.0,90.0,10.0,64.0
529,51.0,0.0,90.0,12.0,64.0
530,62.0,0.0,150.0,2.0,64.0
531,51.0,48.0,90.0,13.0,64.0
532,74.0,0.0,150.0,0.0,64.0
533,65.0,0.0,90.0,10.0,64.0
534,46.0,120.0,90.0,6.0,64.0
535,53.0,0.0,90.0,3.0,64.0
536,53.0,0.0,90.0,12.0,64.0
537,53.0,0.0,90.0,13.0,64.0
538,65.0,0.0,90.0,11.0,64.0
539,41.0,0.0,90.0,14.0,64.0
540,65.0,0.0,390.0,5.0,64.0
541,62.0,0.0,90.0,11.0,64.0
542,62.0,0.0,90.0,10.0,64.0
543,50.0,0.0,90.0,12.0,64.0
544,46.0,0.0,390.0,6.0,64.0
545,50.0,120.0,90.0,13.0,64.0
546,53.0,72.0,390.0,4.0,64.0
547,50.0,0.0,90.0,3.0,64.0
548,65.0,0.0,390.0,2.0,64.0
549,77.0,0.0,390.0,1.0,64.0
550,77.0,0.0,390.0,0.0,64.0
551,38.0,0.0,90.0,14.0,64.0
552,67.0,0.0,90.0,10.0,64.0
553,55.0,0.0,90.0,13.0,64.0
554,55.0,120.0,90.0,12.0,64.0
555,67.0,0.0,90.0,11.0,64.0
556,43.0,0.0,90.0,14.0,64.0
557,55.0,0.0,90.0,3.0,64.0
558,53.0,0.0,90.0,3.0,64.0
559,41.0,48.0,90.0,14.0,64.0
560,53.0,0.0,90.0,13.0,64.0
561,53.0,0.0,90.0,12.0,64.0
562,65.0,0.0,90.0,11.0,64.0
563,65.0,0.0,90.0,10.0,64.0
564,51.0,0.0,90.0,12.0,64.0
565,51.0,120.0,90.0,13.0,64.0
566,63.0,0.0,90.0,10.0,64.0
567,63.0,0.0,90.0,11.0,64.0
568,51.0,0.0,90.0,3.0,64.0
569,39.0,0.0,90.0,14.0,64.0
570,65.0,0.0,150.0,2.0,64.0
571,50.0,0.0,90.0,3.0,64.0
572,62.0,0.0,90.0,10.0,64.0
573,50.0,0.0,90.0,13.0,64.0
574,53.0,72.0,150.0,4.0,64.0
575,38.0,0.0,90.0,14.0,64.0
576,77.0,0.0,150.0,1.0,64.0
577,77.0,0.0,150.0,0.0,64.0
578,65.0,0.0,150.0,5.0,64.0
579,50.0,48.0,90.0,12.0,64.0
580,62.0,0.0,90.0,11.0,64.0
581,51.0,0.0,90.0,13.0,64.0
582,63.0,120.0,90.0,11.0,64.0
583,51.0,0.0,90.0,3.0,64.0
584,39.0,0.0,90.0,14.0,64.0
585,51.0,0.0,90.0,12.0,64.0
586,63.0,0.0,90.0,10.0,64.0
587,36.0,0.0,90.0,14.0,64.0
588,65.0,0.0,150.0,5.0,64.0
589,77.0,0.0,150.0,1.0,64.0
590,53.0,0.0,150.0,4.0,64.0
591,46.0,0.0,90.0,6.0,64.0
592,48.0,0.0,90.0,3.0,64.0
593,65.0,0.0,150.0,2.0,64.0
594,60.0,0.0,90.0,11.0,64.0
595,60.0,0.0,90.0,10.0,64.0
596,48.0,48.0,90.0,13.0,64.0
597,77.0,72.0,150.0,0.0,64.0
598,48.0,0.0,90.0,12.0,64.0
599,50.0,0.0,90.0,3.0,64.0
600,62.0,0.0,90.0,11.0,64.0
601,38.0,0.0,90.0,14.0,64.0
602,62.0,0.0,90.0,10.0,64.0
603,46.0,0.0,90.0,6.0,64.0
604,50.0,0.0,90.0,13.0,64.0
605,50.0,120.0,90.0,12.0,64.0
606,34.0,48.0,180.0,14.0,64.0
607,77.0,0.0,1860.0,0.0,64.0
608,82.0,0.0,1860.0,0.0,64.0
609,46.0,0.0,180.0,3.0,64.0
610,46.0,12.0,390.0,6.0,64.0
611,58.0,12.0,150.0,10.0,64.0
612,65.0,60.0,90.0,11.0,64.0
613,58.0,0.0,330.0,4.0,64.0
614,82.0,0.0,1860.0,1.0,64.0
615,74.0,6.0,1860.0,1.0,64.0
616,65.0,30.0,1740.0,2.0,64.0
617,70.0,0.0,1740.0,2.0,64.0
618,46.0,0.0,90.0,12.0,64.0
619,58.0,0.0,360.0,5.0,64.0
620,70.0,24.0,360.0,5.0,64.0
621,46.0,0.0,180.0,13.0,64.0
622,58.0,0.0,90.0,11.0,64.0
623,46.0,0.0,330.0,4.0,64.0
624,62.0,0.0,90.0,12.0,64.0
625,65.0,120.0,90.0,11.0,64.0
626,58.0,0.0,90.0,11.0,64.0
627,58.0,0.0,90.0,11.0,64.0
628,82.0,12.0,150.0,10.0,64.0
629,58.0,48.0,180.0,13.0,64.0
630,46.0,0.0,180.0,14.0,64.0
631,65.0,0.0,90.0,11.0,64.0
632,62.0,24.0,90.0,12.0,64.0
633,58.0,0.0,180.0,3.0,64.0
634,62.0,120.0,90.0,12.0,64.0
635,65.0,0.0,90.0,11.0,64.0
636,58.0,0.0,90.0,11.0,64.0
637,58.0,0.0,90.0,11.0,64.0
638,62.0,0.0,180.0,4.0,64.0
639,62.0,72.0,90.0,12.0,64.0
640,65.0,0.0,90.0,11.0,64.0
641,46.0,0.0,180.0,14.0,64.0
642,58.0,48.0,180.0,3.0,64.0
643,58.0,0.0,180.0,13.0,64.0
644,58.0,0.0,180.0,4.0,64.0
645,58.0,102.0,90.0,11.0,64.0
646,62.0,0.0,90.0,12.0,64.0
647,65.0,0.0,90.0,11.0,64.0
648,62.0,0.0,90.0,12.0,64.0
649,46.0,0.0,180.0,14.0,64.0
650,65.0,0.0,90.0,11.0,64.0
651,58.0,72.0,90.0,11.0,64.0
652,77.0,18.0,90.0,10.0,64.0
653,62.0,0.0,180.0,4.0,64.0
654,58.0,30.0,180.0,4.0,64.0
655,58.0,0.0,180.0,3.0,64.0
656,58.0,0.0,180.0,13.0,64.0
657,62.0,0.0,90.0,12.0,64.0
658,65.0,120.0,90.0,11.0,64.0
659,74.0,18.0,90.0,10.0,64.0
660,58.0,0.0,90.0,11.0,64.0
661,58.0,0.0,330.0,4.0,64.0
662,62.0,0.0,330.0,4.0,64.0
663,65.0,60.0,90.0,11.0,64.0
664,46.0,48.0,180.0,13.0,64.0
665,58.0,0.0,90.0,11.0,64.0
666,46.0,0.0,180.0,3.0,64.0
667,70.0,12.0,150.0,10.0,64.0
668,62.0,0.0,90.0,12.0,64.0
669,34.0,0.0,180.0,14.0,64.0
670,58.0,0.0,90.0,11.0,64.0
671,65.0,102.0,90.0,11.0,64.0
672,62.0,0.0,90.0,12.0,64.0
673,74.0,18.0,90.0,10.0,64.0
674,46.0,30.0,180.0,14.0,64.0
675,58.0,0.0,90.0,11.0,64.0
676,58.0,0.0,180.0,13.0,64.0
677,58.0,0.0,180.0,3.0,64.0
678,62.0,72.0,90.0,12.0,64.0
679,65.0,0.0,90.0,11.0,64.0
680,58.0,0.0,90.0,11.0,64.0
681,65.0,120.0,90.0,11.0,64.0
682,62.0,0.0,90.0,12.0,64.0
683,70.0,18.0,90.0,10.0,64.0
684,58.0,0.0,90.0,11.0,64.0
685,58.0,0.0,180.0,3.0,64.0
686,46.0,0.0,180.0,14.0,64.0
687,65.0,12.0,150.0,10.0,64.0
688,62.0,0.0,90.0,12.0,64.0
689,65.0,60.0,90.0,11.0,64.0
690,58.0,48.0,180.0,13.0,64.0
691,62.0,0.0,90.0,12.0,64.0
692,58.0,0.0,90.0,11.0,64.0
693,65.0,72.0,90.0,11.0,64.0
694,58.0,0.0,180.0,13.0,64.0
695,58.0,0.0,180.0,4.0,64.0
696,62.0,0.0,180.0,4.0,64.0
697,58.0,72.0,90.0,11.0,64.0
698,58.0,6.0,90.0,5.0,64.0
699,46.0,0.0,90.0,6.0,64.0
700,70.0,0.0,90.0,5.0,64.0
701,65.0,0.0,90.0,11.0,64.0
702,58.0,24.0,180.0,3.0,64.0
703,62.0,0.0,90.0,12.0,64.0
704,46.0,0.0,180.0,14.0,64.0
705,62.0,12.0,90.0,10.0,64.0
706,62.0,0.0,90.0,12.0,64.0
707,58.0,0.0,90.0,11.0,64.0
708,46.0,120.0,90.0,6.0,64.0
709,70.0,6.0,90.0,5.0,64.0
710,58.0,0.0,90.0,5.0,64.0
711,65.0,0.0,90.0,11.0,64.0
712,58.0,12.0,90.0,10.0,64.0
713,79.0,96.0,960.0,0.0,64.0
714,46.0,48.0,180.0,3.0,64.0
715,72.0,0.0,3780.0,1.0,64.0
716,79.0,0.0,960.0,1.0,64.0
717,60.0,0.0,90.0,12.0,64.0
718,58.0,0.0,330.0,4.0,64.0
719,58.0,36.0,540.0,5.0,64.0
720,51.0,12.0,150.0,10.0,64.0
721,70.0,0.0,540.0,5.0,64.0
722,46.0,0.0,570.0,6.0,64.0
723,63.0,30.0,3660.0,2.0,64.0
724,60.0,0.0,330.0,4.0,64.0
725,75.0,6.0,3780.0,0.0,64.0
726,46.0,0.0,180.0,13.0,64.0
727,34.0,0.0,180.0,14.0,64.0
728,63.0,60.0,90.0,11.0,64.0
729,67.0,0.0,90.0,11.0,64.0
730,67.0,0.0,960.0,2.0,64.0
731,60.0,120.0,90.0,12.0,64.0
732,63.0,0.0,90.0,11.0,64.0
733,67.0,0.0,90.0,11.0,64.0
734,60.0,0.0,90.0,12.0,64.0
735,79.0,12.0,150.0,10.0,64.0
736,58.0,48.0,180.0,13.0,64.0
737,63.0,60.0,90.0,11.0,64.0
738,58.0,0.0,180.0,3.0,64.0
739,67.0,0.0,90.0,11.0,64.0
740,46.0,0.0,180.0,14.0,64.0
741,60.0,84.0,90.0,12.0,64.0
742,63.0,0.0,90.0,11.0,64.0
743,67.0,0.0,90.0,11.0,64.0
744,58.0,0.0,180.0,4.0,64.0
745,60.0,0.0,180.0,4.0,64.0
746,67.0,0.0,90.0,11.0,64.0
747,58.0,48.0,180.0,13.0,64.0
748,60.0,72.0,90.0,12.0,64.0
749,58.0,0.0,180.0,3.0,64.0
750,63.0,0.0,90.0,11.0,64.0
751,46.0,0.0,180.0,14.0,64.0
752,60.0,0.0,90.0,12.0,64.0
753,63.0,0.0,90.0,11.0,64.0
754,67.0,114.0,90.0,11.0,64.0
755,60.0,0.0,180.0,4.0,64.0
756,46.0,0.0,180.0,14.0,64.0
757,58.0,42.0,180.0,13.0,64.0
758,67.0,0.0,90.0,11.0,64.0
759,58.0,0.0,180.0,4.0,64.0
760,63.0,0.0,90.0,11.0,64.0
761,46.0,0.0,90.0,6.0,64.0
762,67.0,12.0,150.0,10.0,64.0
763,70.0,6.0,90.0,5.0,64.0
764,58.0,0.0,90.0,5.0,64.0
765,58.0,0.0,180.0,3.0,64.0
766,60.0,60.0,90.0,12.0,64.0
767,58.0,0.0,90.0,5.0,64.0
768,70.0,6.0,90.0,5.0,64.0
769,67.0,0.0,90.0,11.0,64.0
770,63.0,24.0,90.0,11.0,64.0
771,60.0,0.0,90.0,12.0,64.0
772,46.0,0.0,90.0,6.0,64.0
773,63.0,0.0,90.0,11.0,64.0
774,46.0,0.0,180.0,3.0,64.0
775,46.0,48.0,180.0,13.0,64.0
776,66.0,60.0,90.0,11.0,64.0
777,58.0,0.0,360.0,5.0,64.0
778,34.0,0.0,180.0,14.0,64.0
779,66.0,48.0,780.0,2.0,64.0
780,46.0,12.0,390.0,6.0,64.0
781,60.0,0.0,90.0,12.0,64.0
782,70.0,24.0,360.0,5.0,64.0
783,58.0,0.0,330.0,4.0,64.0
784,60.0,0.0,330.0,4.0,64.0
785,60.0,12.0,150.0,10.0,64.0
786,78.0,24.0,900.0,1.0,64.0
787,78.0,0.0,900.0,0.0,64.0
788,66.0,0.0,90.0,11.0,64.0
789,63.0,120.0,90.0,11.0,64.0
790,60.0,0.0,90.0,12.0,64.0
791,46.0,0.0,180.0,14.0,64.0
792,58.0,0.0,180.0,13.0,64.0
793,58.0,48.0,180.0,3.0,64.0
794,75.0,12.0,150.0,10.0,64.0
795,60.0,0.0,90.0,12.0,64.0
796,63.0,0.0,90.0,11.0,64.0
797,66.0,24.0,90.0,11.0,64.0
798,60.0,0.0,90.0,12.0,64.0
799,66.0,120.0,90.0,11.0,64.0
800,63.0,0.0,90.0,11.0,64.0
801,58.0,48.0,180.0,3.0,64.0
802,70.0,24.0,360.0,5.0,64.0
803,58.0,0.0,180.0,13.0,64.0
804,66.0,0.0,90.0,11.0,64.0
805,46.0,0.0,180.0,14.0,64.0
806,46.0,12.0,390.0,6.0,64.0
807,63.0,0.0,90.0,11.0,64.0
808,58.0,0.0,360.0,5.0,64.0
809,60.0,0.0,180.0,4.0,64.0
810,60.0,72.0,90.0,12.0,64.0
811,58.0,0.0,180.0,4.0,64.0
812,60.0,0.0,90.0,12.0,64.0
813,63.0,0.0,90.0,11.0,64.0
814,66.0,72.0,90.0,11.0,64.0
815,54.0,12.0,150.0,10.0,64.0
816,58.0,0.0,180.0,4.0,64.0
817,58.0,0.0,180.0,3.0,64.0
818,66.0,0.0,90.0,11.0,64.0
819,58.0,24.0,180.0,13.0,64.0
820,60.0,0.0,90.0,12.0,64.0
821,63.0,24.0,90.0,11.0,64.0
822,46.0,0.0,180.0,14.0,64.0
823,60.0,0.0,180.0,4.0,64.0
824,66.0,0.0,90.0,11.0,64.0
825,63.0,120.0,90.0,11.0,64.0
826,60.0,0.0,90.0,12.0,64.0
827,53.0,0.0,360.0,5.0,64.0
828,45.0,0.0,180.0,13.0,64.0
829,45.0,48.0,180.0,3.0,64.0
830,33.0,0.0,180.0,14.0,64.0
831,63.0,60.0,90.0,11.0,64.0
832,65.0,0.0,90.0,11.0,64.0
833,84.0,0.0,1860.0,0.0,64.0
834,65.0,24.0,360.0,5.0,64.0
835,60.0,0.0,330.0,4.0,64.0
836,77.0,0.0,3450.0,1.0,64.0
837,53.0,0.0,330.0,4.0,64.0
838,60.0,0.0,90.0,12.0,64.0
839,53.0,0.0,90.0,12.0,64.0
840,41.0,12.0,390.0,6.0,64.0
841,65.0,0.0,3450.0,2.0,64.0
842,53.0,12.0,150.0,10.0,64.0
843,60.0,0.0,90.0,12.0,64.0
844,63.0,0.0,90.0,11.0,64.0
845,65.0,0.0,90.0,11.0,64.0
846,53.0,120.0,90.0,12.0,64.0
847,57.0,48.0,180.0,3.0,64.0
848,60.0,0.0,90.0,12.0,64.0
849,53.0,24.0,90.0,12.0,64.0
850,45.0,0.0,180.0,14.0,64.0
851,84.0,12.0,150.0,10.0,64.0
852,57.0,0.0,180.0,13.0,64.0
853,65.0,0.0,90.0,11.0,64.0
854,63.0,0.0,90.0,11.0,64.0
855,60.0,0.0,90.0,12.0,64.0
856,53.0,0.0,90.0,12.0,64.0
857,65.0,0.0,90.0,11.0,64.0
858,63.0,120.0,90.0,11.0,64.0
859,65.0,0.0,90.0,11.0,64.0
860,63.0,0.0,90.0,11.0,64.0
861,57.0,0.0,180.0,13.0,64.0
862,53.0,72.0,90.0,12.0,64.0
863,57.0,0.0,180.0,3.0,64.0
864,60.0,0.0,90.0,12.0,64.0
865,60.0,0.0,180.0,4.0,64.0
866,53.0,0.0,180.0,4.0,64.0
867,45.0,48.0,180.0,14.0,64.0
868,60.0,102.0,90.0,12.0,64.0
869,63.0,0.0,90.0,11.0,64.0
870,65.0,0.0,90.0,11.0,64.0
871,53.0,0.0,90.0,12.0,64.0
872,57.0,0.0,180.0,13.0,64.0
873,65.0,0.0,90.0,11.0,64.0
874,63.0,0.0,90.0,11.0,64.0
875,57.0,30.0,180.0,3.0,64.0
876,60.0,0.0,180.0,4.0,64.0
877,53.0,0.0,180.0,4.0,64.0
878,75.0,18.0,90.0,10.0,64.0
879,60.0,72.0,90.0,12.0,64.0
880,53.0,0.0,90.0,12.0,64.0
881,45.0,0.0,180.0,14.0,64.0
882,65.0,0.0,90.0,11.0,64.0
883,53.0,0.0,90.0,12.0,64.0
884,60.0,120.0,90.0,12.0,64.0
885,63.0,0.0,90.0,11.0,64.0
886,72.0,18.0,90.0,10.0,64.0
887,45.0,0.0,180.0,3.0,64.0
888,53.0,0.0,330.0,4.0,64.0
889,60.0,0.0,90.0,12.0,64.0
890,60.0,0.0,330.0,4.0,64.0
891,33.0,0.0,180.0,14.0,64.0
892,65.0,0.0,90.0,11.0,64.0
893,63.0,60.0,90.0,11.0,64.0
894,69.0,12.0,150.0,10.0,64.0
895,53.0,0.0,90.0,12.0,64.0
896,45.0,48.0,180.0,13.0,64.0
897,65.0,102.0,90.0,11.0,64.0
898,63.0,0.0,90.0,11.0,64.0
899,60.0,0.0,90.0,12.0,64.0
900,53.0,0.0,90.0,12.0,64.0
901,45.0,0.0,180.0,14.0,64.0
902,63.0,72.0,90.0,11.0,64.0
903,65.0,0.0,90.0,11.0,64.0
904,53.0,0.0,90.0,12.0,64.0
905,60.0,0.0,90.0,12.0,64.0
906,72.0,18.0,90.0,10.0,64.0
907,57.0,0.0,180.0,13.0,64.0
908,57.0,30.0,180.0,3.0,64.0
909,63.0,0.0,90.0,11.0,64.0
910,53.0,120.0,90.0,12.0,64.0
911,60.0,0.0,90.0,12.0,64.0
912,69.0,18.0,90.0,10.0,64.0
913,65.0,0.0,90.0,11.0,64.0
914,57.0,48.0,180.0,13.0,64.0
915,65.0,12.0,150.0,10.0,64.0
916,57.0,0.0,180.0,3.0,64.0
917,45.0,0.0,180.0,14.0,64.0
918,65.0,0.0,90.0,11.0,64.0
919,63.0,60.0,90.0,11.0,64.0
920,60.0,0.0,90.0,12.0,64.0
921,53.0,0.0,90.0,12.0,64.0
922,53.0,0.0,90.0,12.0,64.0
923,60.0,0.0,90.0,12.0,64.0
924,65.0,72.0,90.0,11.0,64.0
925,63.0,0.0,90.0,11.0,64.0
926,63.0,72.0,90.0,11.0,64.0
927,63.0,12.0,90.0,10.0,64.0
928,57.0,24.0,180.0,13.0,64.0
929,53.0,6.0,90.0,5.0,64.0
930,65.0,0.0,90.0,5.0,64.0
931,41.0,0.0,90.0,6.0,64.0
932,57.0,0.0,180.0,3.0,64.0
933,45.0,0.0,180.0,14.0,64.0
934,53.0,0.0,180.0,4.0,64.0
935,60.0,0.0,180.0,4.0,64.0
936,60.0,0.0,90.0,12.0,64.0
937,53.0,0.0,90.0,12.0,64.0
938,65.0,0.0,90.0,11.0,64.0
939,63.0,0.0,90.0,11.0,64.0
940,53.0,0.0,90.0,5.0,64.0
941,60.0,0.0,90.0,12.0,64.0
942,65.0,0.0,90.0,11.0,64.0
943,53.0,0.0,90.0,12.0,64.0
944,65.0,6.0,90.0,5.0,64.0
945,60.0,12.0,90.0,10.0,64.0
946,41.0,120.0,90.0,6.0,64.0
947,46.0,0.0,330.0,4.0,64.0
948,62.0,60.0,90.0,11.0,64.0
949,65.0,0.0,90.0,11.0,64.0
950,58.0,60.0,330.0,4.0,64.0
951,65.0,36.0,540.0,5.0,64.0
952,34.0,0.0,180.0,14.0,64.0
953,62.0,12.0,150.0,10.0,64.0
954,58.0,0.0,90.0,12.0,64.0
955,62.0,0.0,1530.0,2.0,64.0
956,77.0,0.0,1350.0,0.0,64.0
957,74.0,0.0,1350.0,0.0,64.0
958,74.0,0.0,1530.0,1.0,64.0
959,53.0,0.0,90.0,12.0,64.0
960,58.0,0.0,540.0,5.0,64.0
961,46.0,24.0,180.0,13.0,64.0
962,46.0,24.0,180.0,3.0,64.0
963,46.0,0.0,570.0,6.0,64.0
964,62.0,120.0,90.0,11.0,64.0
965,53.0,0.0,90.0,12.0,64.0
966,65.0,0.0,90.0,11.0,64.0
967,58.0,0.0,90.0,12.0,64.0
968,58.0,0.0,180.0,13.0,64.0
969,58.0,0.0,90.0,12.0,64.0
970,53.0,0.0,90.0,12.0,64.0
971,77.0,12.0,150.0,10.0,64.0
972,65.0,0.0,90.0,11.0,64.0
973,62.0,0.0,90.0,11.0,64.0
974,46.0,24.0,180.0,14.0,64.0
975,58.0,24.0,180.0,3.0,64.0
976,58.0,84.0,90.0,12.0,64.0
977,65.0,0.0,90.0,11.0,64.0
978,62.0,0.0,90.0,11.0,64.0
979,53.0,0.0,90.0,12.0,64.0
980,58.0,72.0,90.0,12.0,64.0
981,46.0,0.0,180.0,14.0,64.0
982,53.0,0.0,90.0,12.0,64.0
983,58.0,24.0,180.0,3.0,64.0
984,58.0,0.0,180.0,13.0,64.0
985,46.0,24.0,180.0,4.0,64.0
986,58.0,0.0,180.0,4.0,64.0
987,65.0,0.0,90.0,11.0,64.0
988,62.0,0.0,90.0,11.0,64.0
989,65.0,0.0,90.0,11.0,64.0
990,58.0,0.0,90.0,12.0,64.0
991,53.0,0.0,90.0,12.0,64.0
992,62.0,114.0,90.0,11.0,64.0
993,62.0,12.0,150.0,10.0,64.0
994,58.0,0.0,180.0,13.0,64.0
995,58.0,18.0,180.0,3.0,64.0
996,58.0,0.0,180.0,4.0,64.0
997,46.0,24.0,180.0,4.0,64.0
998,53.0,0.0,90.0,12.0,64.0
999,46.0,0.0,180.0,14.0,64.0
1000,58.0,6.0,90.0,5.0,64.0
1001,70.0,0.0,90.0,5.0,64.0
1002,65.0,60.0,90.0,11.0,64.0
1003,62.0,0.0,90.0,11.0,64.0
1004,46.0,0.0,90.0,6.0,64.0
1005,58.0,0.0,90.0,12.0,64.0
1006,65.0,0.0,90.0,11.0,64.0
1007,46.0,120.0,90.0,6.0,64.0
1008,58.0,0.0,90.0,12.0,64.0
1009,53.0,0.0,90.0,12.0,64.0
1010,70.0,6.0,90.0,5.0,64.0
1011,58.0,0.0,90.0,5.0,64.0
1012,62.0,0.0,90.0,11.0,64.0
1013,58.0,0.0,390.0,5.0,64.0
1014,46.0,0.0,150.0,3.0,64.0
1015,46.0,0.0,390.0,6.0,64.0
1016,46.0,12.0,390.0,4.0,64.0
1017,58.0,0.0,390.0,4.0,64.0
1018,46.0,0.0,150.0,13.0,64.0
1019,65.0,60.0,90.0,11.0,64.0
1020,70.0,0.0,390.0,5.0,64.0
1021,53.0,0.0,90.0,12.0,64.0
1022,58.0,0.0,90.0,12.0,64.0
1023,34.0,0.0,150.0,14.0,64.0
1024,58.0,60.0,150.0,10.0,64.0
1025,62.0,0.0,90.0,11.0,64.0
1026,53.0,0.0,90.0,12.0,64.0
1027,58.0,0.0,90.0,12.0,64.0
1028,62.0,120.0,90.0,11.0,64.0
1029,65.0,0.0,90.0,11.0,64.0
1030,58.0,0.0,90.0,12.0,64.0
1031,53.0,48.0,90.0,12.0,64.0
1032,62.0,0.0,90.0,11.0,64.0
1033,58.0,60.0,150.0,13.0,64.0
1034,82.0,0.0,150.0,10.0,64.0
1035,46.0,0.0,150.0,14.0,64.0
1036,65.0,0.0,90.0,11.0,64.0
1037,58.0,0.0,150.0,3.0,64.0
1038,53.0,120.0,90.0,12.0,64.0
1039,58.0,0.0,90.0,12.0,64.0
1040,65.0,0.0,90.0,11.0,64.0
1041,62.0,0.0,90.0,11.0,64.0
1042,58.0,0.0,150.0,4.0,64.0
1043,70.0,0.0,390.0,5.0,64.0
1044,58.0,12.0,390.0,5.0,64.0
1045,46.0,0.0,150.0,4.0,64.0
1046,46.0,0.0,150.0,14.0,64.0
1047,58.0,0.0,150.0,13.0,64.0
1048,58.0,60.0,150.0,3.0,64.0
1049,77.0,0.0,390.0,0.0,64.0
1050,62.0,60.0,90.0,11.0,64.0
1051,65.0,0.0,90.0,11.0,64.0
1052,53.0,0.0,90.0,12.0,64.0
1053,58.0,0.0,90.0,12.0,64.0
1054,53.0,102.0,90.0,12.0,64.0
1055,58.0,0.0,90.0,12.0,64.0
1056,62.0,0.0,90.0,11.0,64.0
1057,65.0,0.0,90.0,11.0,64.0
1058,65.0,42.0,150.0,2.0,64.0
1059,82.0,18.0,90.0,10.0,64.0
1060,61.0,0.0,90.0,12.0,64.0
1061,58.0,0.0,150.0,4.0,64.0
1062,49.0,0.0,150.0,13.0,64.0
1063,70.0,0.0,150.0,1.0,64.0
1064,37.0,0.0,150.0,14.0,64.0
1065,53.0,0.0,150.0,4.0,64.0
1066,77.0,48.0,90.0,11.0,64.0
1067,49.0,0.0,150.0,3.0,64.0
1068,82.0,18.0,90.0,10.0,64.0
1069,77.0,0.0,90.0,11.0,64.0
1070,61.0,120.0,90.0,12.0,64.0
1071,64.0,0.0,1140.0,2.0,64.0
1072,48.0,0.0,150.0,13.0,64.0
1073,82.0,0.0,1140.0,0.0,64.0
1074,76.0,0.0,1140.0,0.0,64.0
1075,60.0,0.0,90.0,12.0,64.0
1076,67.0,0.0,1140.0,2.0,64.0
1077,72.0,0.0,3780.0,5.0,64.0
1078,60.0,48.0,570.0,4.0,64.0
1079,48.0,0.0,150.0,3.0,64.0
1080,82.0,60.0,150.0,10.0,64.0
1081,36.0,0.0,150.0,14.0,64.0
1082,76.0,0.0,90.0,11.0,64.0
1083,79.0,0.0,1140.0,1.0,64.0
1084,70.0,24.0,1140.0,1.0,64.0
1085,67.0,60.0,90.0,11.0,64.0
1086,76.0,0.0,90.0,11.0,64.0
1087,60.0,120.0,90.0,12.0,64.0
1088,67.0,0.0,90.0,11.0,64.0
1089,60.0,60.0,90.0,12.0,64.0
1090,40.0,0.0,150.0,14.0,64.0
1091,52.0,60.0,150.0,3.0,64.0
1092,67.0,12.0,390.0,10.0,64.0
1093,67.0,0.0,90.0,11.0,64.0
1094,76.0,0.0,90.0,11.0,64.0
1095,52.0,0.0,150.0,13.0,64.0
1096,67.0,0.0,90.0,11.0,64.0
1097,60.0,120.0,90.0,12.0,64.0
1098,76.0,0.0,90.0,11.0,64.0
1099,43.0,60.0,150.0,14.0,64.0
1100,55.0,0.0,150.0,3.0,64.0
1101,60.0,0.0,90.0,12.0,64.0
1102,55.0,0.0,150.0,13.0,64.0
1103,67.0,0.0,90.0,11.0,64.0
1104,76.0,0.0,90.0,11.0,64.0
1105,76.0,0.0,90.0,11.0,64.0
1106,67.0,102.0,90.0,11.0,64.0
1107,60.0,0.0,90.0,12.0,64.0
1108,76.0,0.0,90.0,11.0,64.0
1109,67.0,60.0,90.0,11.0,64.0
1110,60.0,18.0,90.0,4.0,64.0
1111,82.0,0.0,420.0,10.0,64.0
1112,52.0,0.0,150.0,3.0,64.0
1113,52.0,42.0,150.0,13.0,64.0
1114,40.0,0.0,150.0,14.0,64.0
1115,60.0,0.0,90.0,12.0,64.0
1116,67.0,0.0,90.0,11.0,64.0
1117,76.0,0.0,90.0,11.0,64.0
1118,60.0,120.0,90.0,12.0,64.0
1119,60.0,18.0,90.0,4.0,64.0
1120,36.0,0.0,150.0,14.0,64.0
1121,48.0,0.0,150.0,3.0,64.0
1122,48.0,0.0,150.0,13.0,64.0
1123,60.0,60.0,90.0,12.0,64.0
1124,76.0,0.0,90.0,11.0,64.0
1125,67.0,0.0,90.0,11.0,64.0
1126,60.0,36.0,150.0,4.0,64.0
1127,60.0,0.0,90.0,12.0,64.0
1128,76.0,120.0,90.0,11.0,64.0
1129,67.0,0.0,90.0,11.0,64.0
1130,52.0,0.0,150.0,13.0,64.0
1131,67.0,0.0,90.0,11.0,64.0
1132,76.0,60.0,90.0,11.0,64.0
1133,40.0,60.0,150.0,14.0,64.0
1134,64.0,0.0,390.0,2.0,64.0
1135,67.0,0.0,390.0,2.0,64.0
1136,70.0,12.0,390.0,1.0,64.0
1137,79.0,0.0,390.0,1.0,64.0
1138,60.0,0.0,90.0,12.0,64.0
1139,76.0,0.0,390.0,0.0,64.0
1140,52.0,0.0,150.0,3.0,64.0
1141,82.0,0.0,390.0,0.0,64.0
1142,70.0,0.0,390.0,10.0,64.0
1143,60.0,0.0,150.0,4.0,64.0
1144,67.0,0.0,90.0,11.0,64.0
1145,76.0,120.0,90.0,11.0,64.0
1146,60.0,0.0,90.0,12.0,64.0
1147,76.0,48.0,90.0,11.0,64.0
1148,55.0,60.0,150.0,13.0,64.0
1149,60.0,0.0,90.0,12.0,64.0
1150,55.0,0.0,150.0,3.0,64.0
1151,67.0,0.0,90.0,11.0,64.0
1152,43.0,0.0,150.0,14.0,64.0
1153,60.0,0.0,150.0,4.0,64.0
1154,76.0,0.0,90.0,11.0,64.0
1155,60.0,0.0,90.0,12.0,64.0
1156,67.0,102.0,90.0,11.0,64.0
1157,40.0,0.0,150.0,14.0,64.0
1158,52.0,0.0,150.0,3.0,64.0
1159,64.0,0.0,180.0,2.0,64.0
1160,52.0,36.0,150.0,13.0,64.0
1161,70.0,0.0,180.0,1.0,64.0
1162,82.0,18.0,90.0,10.0,64.0
1163,60.0,0.0,90.0,12.0,64.0
1164,79.0,6.0,180.0,1.0,64.0
1165,67.0,60.0,90.0,11.0,64.0
1166,76.0,0.0,180.0,0.0,64.0
1167,82.0,0.0,180.0,0.0,64.0
1168,76.0,0.0,90.0,11.0,64.0
1169,67.0,0.0,180.0,2.0,64.0
1170,60.0,0.0,150.0,4.0,64.0
1171,82.0,18.0,90.0,10.0,64.0
1172,76.0,0.0,90.0,11.0,64.0
1173,67.0,0.0,90.0,11.0,64.0
1174,60.0,120.0,90.0,12.0,64.0
1175,72.0,0.0,1140.0,2.0,64.0
1176,65.0,0.0,1140.0,2.0,64.0
1177,48.0,0.0,150.0,3.0,64.0
1178,36.0,36.0,150.0,14.0,64.0
1179,81.0,24.0,180.0,10.0,64.0
1180,48.0,0.0,150.0,13.0,64.0
1181,81.0,24.0,1140.0,0.0,64.0
1182,77.0,0.0,1140.0,0.0,64.0
1183,65.0,0.0,90.0,11.0,64.0
1184,77.0,0.0,90.0,11.0,64.0
1185,60.0,60.0,90.0,12.0,64.0
1186,77.0,0.0,1140.0,1.0,64.0
1187,69.0,0.0,1140.0,1.0,64.0
1188,60.0,0.0,570.0,4.0,64.0
1189,60.0,0.0,90.0,12.0,64.0
1190,77.0,120.0,90.0,11.0,64.0
1191,65.0,0.0,90.0,11.0,64.0
1192,41.0,0.0,150.0,14.0,64.0
1193,69.0,12.0,390.0,10.0,64.0
1194,53.0,0.0,150.0,13.0,64.0
1195,65.0,60.0,90.0,11.0,64.0
1196,77.0,0.0,90.0,11.0,64.0
1197,60.0,0.0,90.0,12.0,64.0
1198,53.0,60.0,150.0,3.0,64.0
1199,77.0,0.0,90.0,11.0,64.0
1200,65.0,0.0,90.0,11.0,64.0
1201,60.0,120.0,90.0,12.0,64.0
1202,77.0,0.0,90.0,11.0,64.0
1203,65.0,0.0,90.0,11.0,64.0
1204,57.0,0.0,150.0,13.0,64.0
1205,60.0,48.0,90.0,12.0,64.0
1206,57.0,60.0,150.0,3.0,64.0
1207,45.0,0.0,150.0,14.0,64.0
1208,65.0,0.0,90.0,11.0,64.0
1209,77.0,0.0,90.0,11.0,64.0
1210,60.0,102.0,90.0,12.0,64.0
1211,53.0,36.0,150.0,13.0,64.0
1212,60.0,0.0,90.0,12.0,64.0
1213,60.0,18.0,90.0,4.0,64.0
1214,81.0,6.0,180.0,10.0,64.0
1215,53.0,0.0,150.0,3.0,64.0
1216,65.0,60.0,90.0,11.0,64.0
1217,77.0,0.0,90.0,11.0,64.0
1218,41.0,0.0,150.0,14.0,64.0
1219,65.0,0.0,90.0,11.0,64.0
1220,77.0,0.0,90.0,11.0,64.0
1221,60.0,18.0,90.0,4.0,64.0
1222,60.0,120.0,90.0,12.0,64.0
1223,60.0,0.0,150.0,4.0,64.0
1224,81.0,0.0,180.0,10.0,64.0
1225,48.0,36.0,150.0,3.0,64.0
1226,60.0,60.0,90.0,12.0,64.0
1227,48.0,0.0,150.0,13.0,64.0
1228,77.0,0.0,90.0,11.0,64.0
1229,65.0,0.0,90.0,11.0,64.0
1230,36.0,0.0,150.0,14.0,64.0
1231,60.0,120.0,90.0,12.0,64.0
1232,77.0,0.0,90.0,11.0,64.0
1233,65.0,0.0,90.0,11.0,64.0
1234,69.0,0.0,390.0,10.0,64.0
1235,41.0,0.0,150.0,14.0,64.0
1236,65.0,60.0,90.0,11.0,64.0
1237,77.0,0.0,90.0,11.0,64.0
1238,72.0,12.0,390.0,2.0,64.0
1239,65.0,0.0,390.0,2.0,64.0
1240,77.0,0.0,390.0,0.0,64.0
1241,60.0,0.0,150.0,4.0,64.0
1242,81.0,0.0,390.0,0.0,64.0
1243,60.0,0.0,90.0,12.0,64.0
1244,53.0,60.0,150.0,13.0,64.0
1245,53.0,0.0,150.0,3.0,64.0
1246,69.0,0.0,390.0,1.0,64.0
1247,77.0,0.0,390.0,1.0,64.0
1248,77.0,0.0,90.0,11.0,64.0
1249,60.0,0.0,90.0,12.0,64.0
1250,65.0,120.0,90.0,11.0,64.0
1251,60.0,0.0,150.0,4.0,64.0
1252,45.0,60.0,150.0,14.0,64.0
1253,60.0,0.0,90.0,12.0,64.0
1254,57.0,0.0,150.0,13.0,64.0
1255,77.0,0.0,90.0,11.0,64.0
1256,57.0,0.0,150.0,3.0,64.0
1257,65.0,48.0,90.0,11.0,64.0
1258,60.0,0.0,90.0,12.0,64.0
1259,77.0,0.0,90.0,11.0,64.0
1260,65.0,120.0,90.0,11.0,64.0
1261,60.0,0.0,90.0,12.0,64.0
1262,77.0,60.0,90.0,11.0,64.0
1263,72.0,0.0,180.0,2.0,64.0
1264,65.0,0.0,90.0,11.0,64.0
1265,60.0,0.0,150.0,4.0,64.0
1266,77.0,0.0,180.0,1.0,64.0
1267,81.0,0.0,90.0,10.0,64.0
1268,69.0,24.0,180.0,1.0,64.0
1269,65.0,0.0,180.0,2.0,64.0
1270,41.0,0.0,150.0,14.0,64.0
1271,81.0,0.0,180.0,0.0,64.0
1272,53.0,36.0,150.0,3.0,64.0
1273,53.0,0.0,150.0,13.0,64.0
1274,77.0,0.0,180.0,0.0,64.0
1275,65.0,120.0,90.0,11.0,64.0
1276,81.0,0.0,90.0,10.0,64.0
1277,60.0,0.0,90.0,12.0,64.0
1278,77.0,0.0,90.0,11.0,64.0
1279,47.0,0.0,180.0,13.0,64.0
1280,65.0,12.0,1350.0,5.0,64.0
1281,59.0,0.0,90.0,12.0,64.0
1282,35.0,0.0,180.0,14.0,64.0
1283,47.0,24.0,180.0,3.0,64.0
1284,65.0,96.0,90.0,11.0,64.0
1285,74.0,0.0,90.0,11.0,64.0
1286,68.0,24.0,1140.0,2.0,64.0
1287,77.0,0.0,1140.0,1.0,64.0
1288,74.0,0.0,1140.0,1.0,64.0
1289,80.0,0.0,180.0,10.0,64.0
1290,53.0,0.0,570.0,4.0,64.0
1291,65.0,0.0,1140.0,2.0,64.0
1292,62.0,0.0,570.0,4.0,64.0
1293,77.0,0.0,1140.0,0.0,64.0
1294,80.0,0.0,1140.0,0.0,64.0
1295,59.0,120.0,90.0,12.0,64.0
1296,65.0,0.0,90.0,11.0,64.0
1297,74.0,0.0,90.0,11.0,64.0
1298,65.0,0.0,90.0,11.0,64.0
1299,38.0,0.0,180.0,14.0,64.0
1300,59.0,96.0,90.0,12.0,64.0
1301,50.0,24.0,180.0,13.0,64.0
1302,68.0,48.0,390.0,10.0,64.0
1303,50.0,0.0,180.0,3.0,64.0
1304,74.0,0.0,90.0,11.0,64.0
1305,74.0,120.0,90.0,11.0,64.0
1306,65.0,0.0,90.0,11.0,64.0
1307,59.0,0.0,90.0,12.0,64.0
1308,53.0,0.0,180.0,13.0,64.0
1309,59.0,0.0,90.0,12.0,64.0
1310,53.0,0.0,180.0,3.0,64.0
1311,41.0,24.0,180.0,14.0,64.0
1312,74.0,0.0,90.0,11.0,64.0
1313,65.0,48.0,90.0,11.0,64.0
1314,65.0,0.0,90.0,11.0,64.0
1315,74.0,0.0,90.0,11.0,64.0
1316,59.0,102.0,90.0,12.0,64.0
1317,74.0,96.0,90.0,11.0,64.0
1318,65.0,0.0,90.0,11.0,64.0
1319,53.0,18.0,90.0,4.0,64.0
1320,62.0,0.0,90.0,4.0,64.0
1321,80.0,0.0,90.0,10.0,64.0
1322,50.0,0.0,180.0,3.0,64.0
1323,50.0,6.0,180.0,13.0,64.0
1324,38.0,0.0,180.0,14.0,64.0
1325,59.0,0.0,90.0,12.0,64.0
1326,65.0,120.0,90.0,11.0,64.0
1327,74.0,0.0,90.0,11.0,64.0
1328,59.0,0.0,90.0,12.0,64.0
1329,62.0,0.0,90.0,4.0,64.0
1330,80.0,0.0,90.0,10.0,64.0
1331,53.0,18.0,90.0,4.0,64.0
1332,74.0,0.0,90.0,11.0,64.0
1333,47.0,0.0,180.0,13.0,64.0
1334,65.0,0.0,90.0,11.0,64.0
1335,59.0,60.0,90.0,12.0,64.0
1336,47.0,0.0,180.0,3.0,64.0
1337,53.0,36.0,150.0,4.0,64.0
1338,80.0,0.0,180.0,10.0,64.0
1339,62.0,0.0,150.0,4.0,64.0
1340,35.0,0.0,180.0,14.0,64.0
1341,59.0,0.0,90.0,12.0,64.0
1342,65.0,120.0,90.0,11.0,64.0
1343,74.0,0.0,90.0,11.0,64.0
1344,62.0,36.0,150.0,4.0,64.0
1345,59.0,0.0,90.0,12.0,64.0
1346,65.0,0.0,390.0,10.0,64.0
1347,50.0,0.0,180.0,3.0,64.0
1348,74.0,48.0,90.0,11.0,64.0
1349,77.0,0.0,390.0,1.0,64.0
1350,65.0,0.0,90.0,11.0,64.0
1351,38.0,24.0,180.0,14.0,64.0
1352,50.0,0.0,180.0,13.0,64.0
1353,77.0,0.0,390.0,0.0,64.0
1354,80.0,0.0,390.0,0.0,64.0
1355,68.0,12.0,390.0,2.0,64.0
1356,65.0,0.0,390.0,2.0,64.0
1357,53.0,0.0,150.0,4.0,64.0
1358,74.0,0.0,390.0,1.0,64.0
1359,65.0,120.0,90.0,11.0,64.0
1360,74.0,0.0,90.0,11.0,64.0
1361,59.0,0.0,90.0,12.0,64.0
1362,74.0,0.0,90.0,11.0,64.0
1363,41.0,24.0,180.0,14.0,64.0
1364,65.0,12.0,390.0,5.0,64.0
1365,53.0,0.0,180.0,13.0,64.0
1366,65.0,48.0,90.0,11.0,64.0
1367,53.0,36.0,150.0,4.0,64.0
1368,59.0,0.0,90.0,12.0,64.0
1369,53.0,0.0,180.0,3.0,64.0
1370,62.0,0.0,150.0,4.0,64.0
1371,65.0,120.0,90.0,11.0,64.0
1372,74.0,0.0,90.0,11.0,64.0
1373,59.0,0.0,90.0,12.0,64.0
1374,68.0,0.0,180.0,2.0,64.0
1375,59.0,48.0,90.0,12.0,64.0
1376,77.0,0.0,90.0,10.0,64.0
1377,65.0,0.0,180.0,2.0,64.0
1378,65.0,0.0,90.0,11.0,64.0
1379,74.0,0.0,180.0,1.0,64.0
1380,77.0,0.0,180.0,1.0,64.0
1381,74.0,0.0,90.0,11.0,64.0
1382,50.0,0.0,180.0,3.0,64.0
1383,77.0,24.0,180.0,0.0,64.0
1384,62.0,36.0,150.0,4.0,64.0
1385,53.0,0.0,150.0,4.0,64.0
1386,47.0,0.0,180.0,13.0,64.0
1387,35.0,0.0,180.0,14.0,64.0
1388,74.0,120.0,90.0,11.0,64.0
1389,65.0,0.0,90.0,11.0,64.0
1390,77.0,0.0,90.0,10.0,64.0
1391,59.0,0.0,90.0,12.0,64.0
1392,72.0,0.0,2310.0,0.0,64.0
1393,84.0,0.0,2310.0,0.0,64.0
1394,48.0,0.0,300.0,3.0,64.0
1395,64.0,36.0,150.0,2.0,64.0
1396,72.0,0.0,390.0,5.0,64.0
1397,60.0,60.0,90.0,12.0,64.0
1398,76.0,24.0,180.0,10.0,64.0
1399,72.0,0.0,390.0,1.0,64.0
1400,76.0,12.0,390.0,1.0,64.0
1401,36.0,0.0,300.0,14.0,64.0
1402,67.0,0.0,150.0,2.0,64.0
1403,76.0,0.0,90.0,11.0,64.0
1404,48.0,24.0,300.0,13.0,64.0
1405,67.0,0.0,90.0,12.0,64.0
1406,79.0,96.0,90.0,11.0,64.0
1407,76.0,48.0,90.0,11.0,64.0
1408,64.0,0.0,90.0,12.0,64.0
1409,60.0,60.0,150.0,4.0,64.0
1410,60.0,0.0,90.0,12.0,64.0
1411,72.0,120.0,90.0,11.0,64.0
1412,68.0,0.0,90.0,11.0,64.0
1413,68.0,0.0,390.0,1.0,64.0
1414,77.0,12.0,390.0,1.0,64.0
1415,56.0,60.0,90.0,12.0,64.0
1416,53.0,60.0,150.0,3.0,64.0
1417,60.0,60.0,630.0,4.0,64.0
1418,41.0,0.0,150.0,14.0,64.0
1419,53.0,0.0,150.0,13.0,64.0
1420,60.0,0.0,90.0,12.0,64.0
1421,72.0,120.0,90.0,11.0,64.0
1422,44.0,0.0,150.0,14.0,64.0
1423,68.0,0.0,90.0,11.0,64.0
1424,56.0,0.0,150.0,13.0,64.0
1425,56.0,60.0,150.0,3.0,64.0
1426,56.0,48.0,90.0,12.0,64.0
1427,68.0,0.0,150.0,2.0,64.0
1428,65.0,0.0,150.0,2.0,64.0
1429,60.0,0.0,150.0,10.0,64.0
1430,68.0,0.0,150.0,10.0,64.0
1431,77.0,0.0,150.0,10.0,64.0
1432,65.0,0.0,90.0,11.0,64.0
1433,53.0,120.0,90.0,12.0,64.0
1434,76.0,60.0,90.0,11.0,64.0
1435,60.0,0.0,390.0,10.0,64.0
1436,67.0,0.0,390.0,10.0,64.0
1437,76.0,12.0,390.0,10.0,64.0
1438,64.0,0.0,90.0,12.0,64.0
1439,60.0,0.0,300.0,3.0,64.0
1440,67.0,0.0,390.0,1.0,64.0
1441,76.0,0.0,390.0,1.0,64.0
1442,60.0,0.0,300.0,13.0,64.0
1443,67.0,0.0,300.0,2.0,64.0
1444,64.0,24.0,300.0,2.0,64.0
1445,48.0,0.0,300.0,14.0,64.0
1446,79.0,0.0,90.0,11.0,64.0
1447,67.0,96.0,90.0,12.0,64.0
1448,76.0,48.0,90.0,11.0,64.0
1449,64.0,0.0,90.0,12.0,64.0
1450,60.0,60.0,150.0,4.0,64.0
1451,60.0,120.0,90.0,12.0,64.0
1452,72.0,0.0,90.0,11.0,64.0
1453,56.0,60.0,90.0,12.0,64.0
1454,68.0,0.0,390.0,1.0,64.0
1455,53.0,0.0,150.0,13.0,64.0
1456,41.0,60.0,150.0,14.0,64.0
1457,68.0,0.0,90.0,11.0,64.0
1458,77.0,0.0,390.0,1.0,64.0
1459,60.0,0.0,630.0,4.0,64.0
1460,53.0,0.0,150.0,3.0,64.0
1461,72.0,0.0,90.0,11.0,64.0
1462,60.0,120.0,90.0,12.0,64.0
1463,68.0,0.0,90.0,11.0,64.0
1464,56.0,0.0,150.0,13.0,64.0
1465,65.0,60.0,150.0,2.0,64.0
1466,68.0,0.0,150.0,2.0,64.0
1467,68.0,0.0,150.0,10.0,64.0
1468,56.0,0.0,150.0,3.0,64.0
1469,56.0,48.0,90.0,12.0,64.0
1470,60.0,0.0,150.0,10.0,64.0
1471,77.0,12.0,150.0,10.0,64.0
1472,44.0,0.0,150.0,14.0,64.0
1473,65.0,120.0,90.0,11.0,64.0
1474,53.0,0.0,90.0,12.0,64.0
1475,64.0,60.0,150.0,2.0,64.0
1476,67.0,12.0,390.0,10.0,64.0
1477,48.0,0.0,300.0,3.0,64.0
1478,36.0,0.0,300.0,14.0,64.0
1479,48.0,24.0,300.0,13.0,64.0
1480,60.0,60.0,90.0,12.0,64.0
1481,67.0,0.0,390.0,1.0,64.0
1482,64.0,0.0,90.0,11.0,64.0
1483,76.0,0.0,390.0,1.0,64.0
1484,60.0,0.0,390.0,10.0,64.0
1485,67.0,0.0,150.0,2.0,64.0
1486,76.0,0.0,390.0,10.0,64.0
1487,67.0,0.0,90.0,11.0,64.0
1488,60.0,96.0,90.0,12.0,64.0
1489,72.0,0.0,150.0,2.0,64.0
1490,60.0,60.0,150.0,2.0,64.0
1491,60.0,48.0,90.0,12.0,64.0
1492,72.0,0.0,90.0,11.0,64.0
1493,72.0,0.0,90.0,11.0,64.0
1494,60.0,120.0,90.0,12.0,64.0
1495,72.0,60.0,150.0,2.0,64.0
1496,72.0,0.0,90.0,11.0,64.0
1497,60.0,0.0,150.0,2.0,64.0
1498,60.0,60.0,90.0,12.0,64.0
1499,72.0,120.0,90.0,11.0,64.0
1500,60.0,0.0,90.0,12.0,64.0
1501,60.0,48.0,90.0,12.0,64.0
1502,77.0,0.0,150.0,1.0,64.0
1503,69.0,0.0,150.0,1.0,64.0
1504,77.0,0.0,150.0,0.0,64.0
1505,81.0,0.0,150.0,0.0,64.0
1506,72.0,0.0,150.0,2.0,64.0
1507,72.0,24.0,180.0,5.0,64.0
1508,72.0,12.0,150.0,10.0,64.0
1509,81.0,0.0,150.0,10.0,64.0
1510,65.0,0.0,180.0,5.0,64.0
1511,41.0,0.0,150.0,14.0,64.0
1512,60.0,0.0,150.0,2.0,64.0
1513,53.0,0.0,150.0,13.0,64.0
1514,60.0,0.0,150.0,4.0,64.0
1515,53.0,0.0,150.0,4.0,64.0
1516,77.0,0.0,90.0,11.0,64.0
1517,53.0,36.0,150.0,3.0,64.0
1518,72.0,120.0,90.0,11.0,64.0
1519,60.0,0.0,90.0,12.0,64.0
1520,76.0,36.0,150.0,0.0,64.0
1521,72.0,24.0,180.0,5.0,64.0
1522,60.0,0.0,150.0,4.0,64.0
1523,76.0,0.0,150.0,1.0,64.0
1524,36.0,0.0,150.0,14.0,64.0
1525,48.0,0.0,150.0,13.0,64.0
1526,60.0,48.0,90.0,12.0,64.0
1527,48.0,0.0,150.0,3.0,64.0
1528,67.0,0.0,150.0,1.0,64.0
1529,79.0,12.0,150.0,10.0,64.0
1530,72.0,0.0,150.0,10.0,64.0
1531,76.0,0.0,90.0,11.0,64.0
1532,72.0,0.0,150.0,2.0,64.0
1533,79.0,0.0,150.0,0.0,64.0
1534,60.0,0.0,150.0,2.0,64.0
1535,72.0,0.0,90.0,11.0,64.0
1536,60.0,120.0,90.0,12.0,64.0
1537,53.0,0.0,150.0,4.0,64.0
1538,53.0,36.0,150.0,3.0,64.0
1539,77.0,0.0,90.0,11.0,64.0
1540,77.0,0.0,150.0,0.0,64.0
1541,65.0,24.0,180.0,5.0,64.0
1542,60.0,48.0,90.0,12.0,64.0
1543,72.0,0.0,150.0,2.0,64.0
1544,60.0,0.0,150.0,4.0,64.0
1545,77.0,0.0,150.0,1.0,64.0
1546,53.0,0.0,150.0,13.0,64.0
1547,72.0,12.0,150.0,10.0,64.0
1548,81.0,0.0,150.0,10.0,64.0
1549,41.0,0.0,150.0,14.0,64.0
1550,81.0,0.0,150.0,0.0,64.0
1551,72.0,0.0,180.0,5.0,64.0
1552,69.0,0.0,150.0,1.0,64.0
1553,60.0,0.0,150.0,2.0,64.0
1554,60.0,120.0,90.0,12.0,64.0
1555,72.0,0.0,90.0,11.0,64.0
1556,76.0,0.0,150.0,1.0,64.0
1557,76.0,0.0,150.0,0.0,64.0
1558,79.0,12.0,150.0,10.0,64.0
1559,72.0,0.0,150.0,10.0,64.0
1560,60.0,36.0,150.0,2.0,64.0
1561,72.0,0.0,150.0,2.0,64.0
1562,79.0,0.0,150.0,0.0,64.0
1563,48.0,0.0,150.0,3.0,64.0
1564,60.0,0.0,150.0,4.0,64.0
1565,60.0,0.0,90.0,12.0,64.0
1566,76.0,48.0,90.0,11.0,64.0
1567,72.0,24.0,180.0,5.0,64.0
1568,67.0,0.0,150.0,1.0,64.0
1569,48.0,0.0,150.0,13.0,64.0
1570,36.0,0.0,150.0,14.0,64.0
1571,60.0,0.0,90.0,12.0,64.0
1572,72.0,120.0,90.0,11.0,64.0
1573,60.0,0.0,150.0,2.0,64.0
1574,72.0,12.0,150.0,10.0,64.0
1575,53.0,0.0,150.0,13.0,64.0
1576,81.0,0.0,150.0,10.0,64.0
1577,41.0,0.0,150.0,14.0,64.0
1578,72.0,0.0,150.0,2.0,64.0
1579,77.0,0.0,150.0,0.0,64.0
1580,53.0,0.0,150.0,4.0,64.0
1581,60.0,0.0,90.0,12.0,64.0
1582,77.0,48.0,90.0,11.0,64.0
1583,65.0,0.0,180.0,5.0,64.0
1584,72.0,24.0,180.0,5.0,64.0
1585,77.0,0.0,150.0,1.0,64.0
1586,69.0,36.0,150.0,1.0,64.0
1587,81.0,0.0,150.0,0.0,64.0
1588,53.0,0.0,150.0,3.0,64.0
1589,60.0,0.0,150.0,4.0,64.0
1590,60.0,312.0,90.0,12.0,64.0
1591,72.0,0.0,90.0,11.0,64.0
1592,76.0,0.0,300.0,11.0,64.0
1593,60.0,0.0,300.0,4.0,64.0
1594,36.0,0.0,300.0,14.0,64.0
1595,72.0,0.0,300.0,5.0,64.0
1596,48.0,0.0,300.0,3.0,64.0
1597,79.0,0.0,300.0,10.0,64.0
1598,72.0,0.0,300.0,10.0,64.0
1599,79.0,0.0,300.0,0.0,64.0
1600,76.0,0.0,300.0,0.0,64.0
1601,67.0,0.0,300.0,1.0,64.0
1602,60.0,0.0,300.0,2.0,64.0
1603,72.0,0.0,300.0,2.0,64.0
1604,60.0,0.0,300.0,12.0,64.0
1605,48.0,0.0,300.0,13.0,64.0
1606,76.0,480.0,300.0,1.0,64.0
1607,60.0,0.0,300.0,3.0,64.0
1608,60.0,0.0,300.0,11.0,64.0
1609,67.0,0.0,300.0,11.0,64.0
1610,84.0,0.0,300.0,10.0,64.0
1611,76.0,0.0,300.0,11.0,64.0
1612,60.0,0.0,300.0,12.0,64.0
1613,72.0,0.0,300.0,5.0,64.0
1614,60.0,504.0,300.0,4.0,64.0
1615,84.0,0.0,300.0,0.0,64.0
1616,72.0,0.0,300.0,2.0,64.0
1617,60.0,0.0,300.0,2.0,64.0
1618,60.0,0.0,300.0,13.0,64.0
1619,72.0,0.0,300.0,1.0,64.0
1620,48.0,0.0,300.0,14.0,64.0
1621,60.0,0.0,390.0,11.0,64.0
1622,36.0,0.0,390.0,14.0,64.0
1623,60.0,0.0,390.0,10.0,64.0
1624,48.0,0.0,390.0,3.0,64.0
1625,48.0,0.0,390.0,13.0,64.0
1626,60.0,0.0,390.0,1.0,64.0
1627,72.0,0.0,390.0,5.0,64.0
1628,72.0,0.0,390.0,0.0,64.0
1629,60.0,1344.0,390.0,2.0,64.0
1630,48.0,0.0,390.0,12.0,64.0
1631,60.0,72.0,300.0,4.0,64.0
1632,72.0,960.0,780.0,10.0,64.0
1633,77.0,312.0,780.0,10.0,64.0
1634,76.0,120.0,120.0,10.0,64.0
1635,60.0,72.0,780.0,11.0,64.0
1636,77.0,120.0,120.0,10.0,64.0
1637,74.0,120.0,120.0,10.0,64.0
1638,76.0,120.0,120.0,10.0,64.0
1639,72.0,120.0,120.0,10.0,64.0
1640,74.0,48.0,120.0,10.0,64.0
1641,70.0,96.0,120.0,10.0,64.0
1642,72.0,144.0,90.0,10.0,64.0
1643,69.0,120.0,120.0,10.0,64.0
1644,53.0,72.0,780.0,4.0,64.0
1645,65.0,0.0,780.0,11.0,64.0
1646,70.0,120.0,120.0,10.0,64.0
1647,72.0,96.0,120.0,10.0,64.0
1648,69.0,144.0,90.0,10.0,64.0
1649,74.0,168.0,120.0,10.0,64.0
1650,74.0,240.0,120.0,10.0,64.0
1651,60.0,0.0,780.0,4.0,64.0
1652,72.0,0.0,120.0,10.0,64.0
1653,64.0,120.0,120.0,11.0,64.0
1654,72.0,72.0,780.0,1.0,64.0
1655,74.0,0.0,120.0,10.0,64.0
1656,65.0,120.0,120.0,11.0,64.0
1657,62.0,0.0,120.0,11.0,64.0
1658,70.0,120.0,120.0,10.0,64.0
1659,72.0,120.0,120.0,10.0,64.0
1660,64.0,0.0,120.0,11.0,64.0
1661,69.0,120.0,120.0,10.0,64.0
1662,60.0,0.0,120.0,11.0,64.0
1663,62.0,48.0,120.0,11.0,64.0
1664,70.0,0.0,120.0,10.0,64.0
1665,67.0,0.0,120.0,10.0,64.0
1666,58.0,96.0,120.0,11.0,64.0
1667,69.0,0.0,90.0,10.0,64.0
1668,60.0,144.0,90.0,11.0,64.0
1669,77.0,72.0,780.0,1.0,64.0
1670,65.0,72.0,390.0,4.0,64.0
1671,57.0,120.0,120.0,11.0,64.0
1672,65.0,0.0,120.0,10.0,64.0
1673,58.0,0.0,120.0,11.0,64.0
1674,67.0,120.0,120.0,10.0,64.0
1675,60.0,0.0,120.0,11.0,64.0
1676,69.0,24.0,120.0,10.0,64.0
1677,57.0,144.0,90.0,11.0,64.0
1678,65.0,0.0,90.0,10.0,64.0
1679,70.0,0.0,120.0,10.0,64.0
1680,62.0,168.0,120.0,11.0,64.0
1681,70.0,216.0,120.0,10.0,64.0
1682,62.0,0.0,120.0,11.0,64.0
1683,69.0,96.0,120.0,10.0,64.0
1684,41.0,0.0,780.0,13.0,64.0
1685,60.0,24.0,90.0,11.0,64.0
1686,41.0,48.0,780.0,3.0,64.0
1687,70.0,96.0,120.0,10.0,64.0
1688,62.0,24.0,90.0,11.0,64.0
1689,58.0,24.0,90.0,11.0,64.0
1690,67.0,96.0,120.0,10.0,64.0
1691,69.0,96.0,120.0,10.0,64.0
1692,60.0,24.0,90.0,11.0,64.0
1693,53.0,96.0,960.0,12.0,64.0
1694,65.0,96.0,120.0,10.0,64.0
1695,57.0,24.0,90.0,11.0,64.0
1696,67.0,48.0,120.0,10.0,64.0
1697,58.0,24.0,90.0,11.0,64.0
1698,64.0,96.0,120.0,10.0,64.0
1699,55.0,24.0,90.0,11.0,64.0
1700,57.0,144.0,90.0,11.0,64.0
1701,65.0,0.0,90.0,10.0,64.0
1702,46.0,0.0,390.0,3.0,64.0
1703,46.0,120.0,120.0,13.0,64.0
1704,58.0,24.0,900.0,11.0,64.0
1705,62.0,72.0,390.0,10.0,64.0
1706,45.0,120.0,120.0,13.0,64.0
1707,43.0,24.0,120.0,13.0,64.0
1708,41.0,24.0,90.0,13.0,64.0
1709,67.0,96.0,120.0,10.0,64.0
1710,55.0,96.0,960.0,12.0,64.0
1711,52.0,24.0,90.0,3.0,64.0
1712,40.0,48.0,390.0,13.0,64.0
1713,65.0,96.0,120.0,10.0,64.0
1714,50.0,24.0,90.0,3.0,64.0
1715,48.0,24.0,90.0,3.0,64.0
1716,64.0,24.0,120.0,10.0,64.0
1717,62.0,0.0,90.0,10.0,64.0
1718,46.0,144.0,90.0,3.0,64.0
1719,45.0,120.0,120.0,13.0,64.0
1720,45.0,0.0,390.0,3.0,64.0
1721,57.0,24.0,900.0,11.0,64.0
1722,60.0,72.0,390.0,10.0,64.0
1723,43.0,120.0,120.0,13.0,64.0
1724,41.0,24.0,120.0,13.0,64.0
1725,40.0,24.0,90.0,13.0,64.0
1726,50.0,24.0,90.0,3.0,64.0
1727,38.0,48.0,390.0,13.0,64.0
1728,53.0,96.0,960.0,12.0,64.0
1729,65.0,96.0,120.0,10.0,64.0
1730,48.0,24.0,90.0,3.0,64.0
1731,64.0,96.0,120.0,10.0,64.0
1732,46.0,24.0,90.0,3.0,64.0
1733,62.0,24.0,120.0,10.0,64.0
1734,45.0,0.0,90.0,3.0,64.0
1735,60.0,144.0,90.0,10.0,64.0
1736,43.0,72.0,390.0,3.0,64.0
1737,43.0,120.0,120.0,13.0,64.0
1738,55.0,0.0,1350.0,11.0,64.0
1739,58.0,0.0,390.0,10.0,64.0
1740,41.0,120.0,120.0,13.0,64.0
1741,40.0,24.0,120.0,13.0,64.0
1742,38.0,24.0,90.0,13.0,64.0
1743,70.0,96.0,120.0,10.0,64.0
1744,55.0,24.0,90.0,3.0,64.0
1745,52.0,0.0,390.0,12.0,64.0
1746,36.0,72.0,390.0,13.0,64.0
1747,69.0,96.0,120.0,10.0,64.0
1748,53.0,24.0,90.0,3.0,64.0
1749,52.0,24.0,90.0,3.0,64.0
1750,67.0,24.0,120.0,10.0,64.0
1751,50.0,0.0,90.0,3.0,64.0
1752,65.0,144.0,90.0,10.0,64.0
1753,48.0,0.0,3780.0,3.0,64.0
1754,48.0,120.0,120.0,13.0,64.0
1755,58.0,120.0,960.0,12.0,64.0
1756,64.0,72.0,390.0,10.0,64.0
1757,50.0,120.0,120.0,13.0,64.0
1758,52.0,24.0,120.0,13.0,64.0
1759,53.0,144.0,90.0,13.0,64.0
1760,64.0,0.0,120.0,11.0,64.0
1761,55.0,72.0,390.0,13.0,64.0
1762,76.0,120.0,120.0,10.0,64.0
1763,65.0,0.0,120.0,11.0,64.0
1764,77.0,120.0,120.0,10.0,64.0
1765,79.0,0.0,120.0,10.0,64.0
1766,67.0,24.0,120.0,11.0,64.0
1767,81.0,0.0,90.0,10.0,64.0
1768,69.0,24.0,90.0,11.0,64.0
1769,82.0,120.0,120.0,10.0,64.0
1770,60.0,288.0,2820.0,4.0,64.0
1771,64.0,0.0,2820.0,2.0,64.0
1772,70.0,0.0,2820.0,2.0,64.0
1773,70.0,0.0,120.0,11.0,64.0
1774,69.0,0.0,120.0,11.0,64.0
1775,81.0,120.0,120.0,10.0,64.0
1776,82.0,120.0,120.0,10.0,64.0
1777,70.0,0.0,120.0,11.0,64.0
1778,81.0,0.0,120.0,10.0,64.0
1779,69.0,120.0,120.0,11.0,64.0
1780,82.0,120.0,120.0,10.0,64.0
1781,70.0,0.0,120.0,11.0,64.0
1782,69.0,0.0,120.0,11.0,64.0
1783,81.0,120.0,120.0,10.0,64.0
1784,70.0,0.0,120.0,11.0,64.0
1785,82.0,96.0,120.0,10.0,64.0
1786,69.0,0.0,90.0,11.0,64.0
1787,81.0,264.0,90.0,10.0,64.0
1788,82.0,0.0,240.0,10.0,64.0
1789,70.0,96.0,240.0,11.0,64.0
1790,69.0,204.0,90.0,11.0,64.0
1791,81.0,0.0,90.0,10.0,64.0
1792,69.0,0.0,60.0,11.0,64.0
1793,81.0,60.0,60.0,10.0,64.0
1794,79.0,0.0,60.0,10.0,64.0
1795,67.0,60.0,60.0,11.0,64.0
1796,69.0,0.0,60.0,11.0,64.0
1797,81.0,60.0,60.0,10.0,64.0
1798,67.0,96.0,60.0,11.0,64.0
1799,79.0,0.0,60.0,10.0,64.0
1800,65.0,384.0,90.0,11.0,64.0
1801,77.0,0.0,90.0,10.0,64.0
1802,64.0,96.0,240.0,11.0,64.0
1803,76.0,0.0,240.0,10.0,64.0
1804,74.0,0.0,90.0,10.0,64.0
1805,62.0,204.0,90.0,11.0,64.0
1806,62.0,0.0,60.0,11.0,64.0
1807,74.0,60.0,60.0,10.0,64.0
1808,60.0,0.0,60.0,11.0,64.0
1809,72.0,60.0,60.0,10.0,64.0
1810,62.0,0.0,60.0,11.0,64.0
1811,74.0,60.0,60.0,10.0,64.0
1812,60.0,0.0,60.0,11.0,64.0
1813,72.0,96.0,60.0,10.0,64.0
1814,71.0,0.0,90.0,10.0,64.0
1815,59.0,96.0,90.0,11.0,64.0
1816,70.0,96.0,240.0,10.0,64.0
1817,64.0,30.0,1740.0,2.0,64.0
1818,58.0,0.0,240.0,11.0,64.0
1819,67.0,0.0,1740.0,1.0,64.0
1820,76.0,0.0,1740.0,1.0,64.0
1821,70.0,0.0,1740.0,2.0,64.0
1822,48.0,0.0,1740.0,3.0,64.0
1823,60.0,0.0,1740.0,4.0,64.0
1824,69.0,204.0,90.0,10.0,64.0
1825,57.0,0.0,90.0,11.0,64.0
1826,57.0,60.0,60.0,11.0,64.0
1827,69.0,0.0,60.0,10.0,64.0
1828,55.0,0.0,60.0,11.0,64.0
1829,67.0,60.0,60.0,10.0,64.0
1830,57.0,0.0,60.0,11.0,64.0
1831,69.0,60.0,60.0,10.0,64.0
1832,55.0,96.0,60.0,11.0,64.0
1833,67.0,0.0,60.0,10.0,64.0
1834,53.0,0.0,90.0,11.0,64.0
1835,65.0,222.0,90.0,10.0,64.0
1836,52.0,0.0,90.0,11.0,64.0
1837,64.0,240.0,90.0,10.0,64.0
1838,55.0,0.0,90.0,11.0,64.0
1839,67.0,240.0,90.0,10.0,64.0
1840,58.0,210.0,90.0,11.0,64.0
1841,70.0,0.0,90.0,10.0,64.0
1842,67.0,0.0,90.0,10.0,64.0
1843,55.0,354.0,90.0,11.0,64.0
1844,60.0,0.0,180.0,11.0,64.0
1845,65.0,0.0,180.0,11.0,64.0
1846,65.0,0.0,180.0,2.0,64.0
1847,41.0,0.0,180.0,14.0,64.0
1848,53.0,0.0,180.0,13.0,64.0
1849,53.0,0.0,180.0,3.0,64.0
1850,72.0,0.0,180.0,0.0,64.0
1851,77.0,0.0,180.0,0.0,64.0
1852,69.0,0.0,180.0,2.0,64.0
1853,53.0,0.0,180.0,11.0,64.0
1854,60.0,480.0,180.0,4.0,64.0
1855,53.0,0.0,180.0,10.0,64.0
1856,65.0,0.0,180.0,10.0,64.0
1857,77.0,0.0,180.0,1.0,64.0
1858,69.0,0.0,180.0,1.0,64.0
1859,60.0,0.0,180.0,10.0,64.0
1860,53.0,0.0,180.0,4.0,64.0
1861,57.0,0.0,180.0,12.0,64.0
1862,60.0,0.0,180.0,4.0,64.0
1863,79.0,0.0,180.0,0.0,64.0
1864,52.0,0.0,180.0,3.0,64.0
1865,58.0,0.0,180.0,12.0,64.0
1866,52.0,0.0,180.0,13.0,64.0
1867,72.0,0.0,180.0,0.0,64.0
1868,58.0,0.0,180.0,2.0,64.0
1869,79.0,408.0,180.0,1.0,64.0
1870,60.0,0.0,180.0,10.0,64.0
1871,40.0,0.0,180.0,14.0,64.0
1872,60.0,0.0,180.0,11.0,64.0
1873,67.0,0.0,180.0,11.0,64.0
1874,70.0,0.0,180.0,1.0,64.0
1875,67.0,0.0,180.0,10.0,64.0
1876,67.0,0.0,180.0,2.0,64.0
1877,72.0,120.0,120.0,10.0,64.0
1878,74.0,120.0,120.0,10.0,64.0
1879,72.0,120.0,120.0,10.0,64.0
1880,74.0,120.0,120.0,10.0,64.0
1881,72.0,120.0,120.0,10.0,64.0
1882,70.0,120.0,120.0,10.0,64.0
1883,69.0,96.0,120.0,10.0,64.0
1884,67.0,216.0,90.0,10.0,64.0
1885,60.0,0.0,180.0,10.0,64.0
1886,72.0,0.0,180.0,0.0,64.0
1887,65.0,0.0,180.0,10.0,64.0
1888,60.0,0.0,180.0,4.0,64.0
1889,53.0,480.0,180.0,4.0,64.0
1890,53.0,0.0,180.0,13.0,64.0
1891,57.0,0.0,180.0,12.0,64.0
1892,53.0,0.0,180.0,10.0,64.0
1893,53.0,0.0,180.0,3.0,64.0
1894,77.0,0.0,180.0,0.0,64.0
1895,41.0,0.0,180.0,14.0,64.0
1896,53.0,0.0,180.0,11.0,64.0
1897,65.0,0.0,180.0,2.0,64.0
1898,69.0,0.0,180.0,2.0,64.0
1899,60.0,0.0,180.0,11.0,64.0
1900,65.0,0.0,180.0,11.0,64.0
1901,77.0,0.0,180.0,1.0,64.0
1902,69.0,0.0,180.0,1.0,64.0
1903,67.0,0.0,180.0,10.0,64.0
1904,72.0,0.0,180.0,0.0,64.0
1905,79.0,0.0,180.0,0.0,64.0
1906,58.0,408.0,180.0,2.0,64.0
1907,40.0,0.0,180.0,14.0,64.0
1908,67.0,0.0,180.0,2.0,64.0
1909,60.0,0.0,180.0,4.0,64.0
1910,70.0,0.0,180.0,1.0,64.0
1911,60.0,0.0,180.0,11.0,64.0
1912,58.0,0.0,180.0,12.0,64.0
1913,60.0,0.0,180.0,10.0,64.0
1914,52.0,0.0,180.0,3.0,64.0
1915,67.0,0.0,180.0,11.0,64.0
1916,52.0,0.0,180.0,13.0,64.0
1917,79.0,0.0,180.0,1.0,64.0
1918,72.0,120.0,120.0,10.0,64.0
1919,74.0,120.0,120.0,10.0,64.0
1920,72.0,120.0,120.0,10.0,64.0
1921,74.0,120.0,120.0,10.0,64.0
1922,72.0,120.0,120.0,10.0,64.0
1923,70.0,120.0,120.0,10.0,64.0
1924,69.0,96.0,120.0,10.0,64.0
1925,67.0,120.0,90.0,10.0,64.0
1926,60.0,0.0,90.0,11.0,64.0
1927,41.0,60.0,150.0,13.0,64.0
1928,29.0,0.0,150.0,14.0,64.0
1929,41.0,12.0,390.0,6.0,64.0
1930,65.0,0.0,780.0,5.0,64.0
1931,53.0,0.0,780.0,5.0,64.0
1932,53.0,0.0,780.0,4.0,64.0
1933,41.0,0.0,780.0,4.0,64.0
1934,56.0,0.0,2400.0,2.0,64.0
1935,41.0,0.0,150.0,3.0,64.0
1936,60.0,0.0,780.0,2.0,64.0
1937,65.0,0.0,780.0,1.0,64.0
1938,65.0,0.0,570.0,10.0,64.0
1939,65.0,48.0,780.0,0.0,64.0
1940,56.0,0.0,90.0,11.0,64.0
1941,53.0,60.0,90.0,12.0,64.0
1942,60.0,0.0,90.0,11.0,64.0
1943,56.0,120.0,90.0,11.0,64.0
1944,53.0,0.0,90.0,12.0,64.0
1945,53.0,0.0,90.0,12.0,64.0
1946,60.0,48.0,90.0,11.0,64.0
1947,56.0,0.0,90.0,11.0,64.0
1948,53.0,60.0,150.0,3.0,64.0
1949,41.0,0.0,150.0,14.0,64.0
1950,53.0,0.0,150.0,13.0,64.0
1951,53.0,120.0,90.0,12.0,64.0
1952,56.0,0.0,90.0,11.0,64.0
1953,60.0,0.0,90.0,11.0,64.0
1954,53.0,0.0,150.0,13.0,64.0
1955,53.0,0.0,150.0,3.0,64.0
1956,56.0,0.0,90.0,11.0,64.0
1957,60.0,60.0,90.0,11.0,64.0
1958,53.0,0.0,90.0,12.0,64.0
1959,41.0,60.0,150.0,14.0,64.0
1960,53.0,0.0,90.0,12.0,64.0
1961,56.0,0.0,90.0,11.0,64.0
1962,60.0,72.0,90.0,11.0,64.0
1963,68.0,0.0,90.0,10.0,64.0
1964,53.0,0.0,150.0,3.0,64.0
1965,41.0,60.0,150.0,14.0,64.0
1966,56.0,60.0,90.0,11.0,64.0
1967,53.0,0.0,150.0,13.0,64.0
1968,53.0,0.0,90.0,12.0,64.0
1969,41.0,0.0,90.0,6.0,64.0
1970,60.0,0.0,90.0,11.0,64.0
1971,65.0,120.0,90.0,10.0,64.0
1972,60.0,0.0,90.0,11.0,64.0
1973,53.0,0.0,90.0,12.0,64.0
1974,41.0,0.0,90.0,6.0,64.0
1975,56.0,0.0,90.0,11.0,64.0
1976,61.0,0.0,1440.0,2.0,64.0
1977,29.0,0.0,150.0,14.0,64.0
1978,41.0,60.0,150.0,13.0,64.0
1979,73.0,60.0,570.0,10.0,64.0
1980,53.0,48.0,780.0,4.0,64.0
1981,41.0,12.0,390.0,6.0,64.0
1982,41.0,0.0,780.0,4.0,64.0
1983,53.0,0.0,780.0,5.0,64.0
1984,65.0,0.0,780.0,5.0,64.0
1985,68.0,0.0,1440.0,1.0,64.0
1986,73.0,0.0,1440.0,1.0,64.0
1987,73.0,0.0,1440.0,0.0,64.0
1988,80.0,96.0,1440.0,0.0,64.0
1989,41.0,0.0,150.0,3.0,64.0
1990,56.0,0.0,90.0,11.0,64.0
1991,61.0,60.0,90.0,11.0,64.0
1992,65.0,0.0,90.0,12.0,64.0
1993,56.0,0.0,90.0,11.0,64.0
1994,61.0,0.0,90.0,11.0,64.0
1995,65.0,120.0,90.0,12.0,64.0
1996,53.0,0.0,150.0,13.0,64.0
1997,41.0,0.0,150.0,14.0,64.0
1998,56.0,0.0,90.0,11.0,64.0
1999,53.0,60.0,150.0,3.0,64.0
2000,61.0,48.0,90.0,11.0,64.0
2001,65.0,0.0,90.0,12.0,64.0
2002,65.0,120.0,90.0,12.0,64.0
2003,56.0,0.0,90.0,11.0,64.0
2004,61.0,0.0,90.0,11.0,64.0
2005,53.0,0.0,150.0,13.0,64.0
2006,53.0,60.0,150.0,3.0,64.0
2007,56.0,0.0,90.0,11.0,64.0
2008,61.0,0.0,90.0,11.0,64.0
2009,65.0,0.0,90.0,12.0,64.0
2010,41.0,0.0,150.0,14.0,64.0
2011,65.0,0.0,90.0,12.0,64.0
2012,61.0,0.0,90.0,11.0,64.0
2013,56.0,72.0,90.0,11.0,64.0
2014,41.0,0.0,90.0,6.0,64.0
2015,61.0,0.0,90.0,11.0,64.0
2016,53.0,60.0,150.0,3.0,64.0
2017,53.0,0.0,150.0,13.0,64.0
2018,41.0,0.0,150.0,14.0,64.0
2019,77.0,60.0,90.0,10.0,64.0
2020,65.0,0.0,90.0,12.0,64.0
2021,56.0,0.0,90.0,11.0,64.0
2022,73.0,0.0,90.0,10.0,64.0
2023,61.0,0.0,90.0,11.0,64.0
2024,56.0,120.0,90.0,11.0,64.0
2025,41.0,0.0,90.0,6.0,64.0
2026,65.0,0.0,90.0,12.0,64.0
2027,56.0,24.0,90.0,11.0,64.0
2028,41.0,60.0,150.0,3.0,64.0
2029,61.0,0.0,90.0,11.0,64.0
2030,53.0,0.0,390.0,4.0,64.0
2031,41.0,0.0,150.0,13.0,64.0
2032,65.0,0.0,390.0,5.0,64.0
2033,29.0,12.0,150.0,14.0,64.0
2034,53.0,0.0,390.0,5.0,64.0
2035,41.0,0.0,390.0,4.0,64.0
2036,41.0,0.0,390.0,6.0,64.0
2037,65.0,0.0,90.0,12.0,64.0
2038,80.0,24.0,120.0,10.0,64.0
2039,65.0,0.0,90.0,12.0,64.0
2040,56.0,0.0,90.0,11.0,64.0
2041,61.0,120.0,90.0,11.0,64.0
2042,41.0,12.0,150.0,14.0,64.0
2043,73.0,24.0,120.0,10.0,64.0
2044,56.0,24.0,90.0,11.0,64.0
2045,61.0,0.0,90.0,11.0,64.0
2046,53.0,60.0,150.0,3.0,64.0
2047,65.0,0.0,90.0,12.0,64.0
2048,53.0,0.0,150.0,13.0,64.0
2049,65.0,24.0,90.0,12.0,64.0
2050,56.0,0.0,90.0,11.0,64.0
2051,61.0,0.0,90.0,11.0,64.0
2052,65.0,0.0,90.0,12.0,64.0
2053,41.0,0.0,390.0,4.0,64.0
2054,53.0,0.0,390.0,4.0,64.0
2055,80.0,24.0,120.0,10.0,64.0
2056,60.0,0.0,390.0,2.0,64.0
2057,72.0,0.0,390.0,0.0,64.0
2058,41.0,60.0,150.0,3.0,64.0
2059,41.0,12.0,150.0,13.0,64.0
2060,29.0,0.0,150.0,14.0,64.0
2061,72.0,0.0,390.0,1.0,64.0
2062,61.0,0.0,90.0,11.0,64.0
2063,56.0,24.0,90.0,11.0,64.0
2064,65.0,120.0,90.0,12.0,64.0
2065,56.0,0.0,90.0,11.0,64.0
2066,61.0,0.0,90.0,11.0,64.0
2067,73.0,24.0,120.0,10.0,64.0
2068,41.0,12.0,150.0,14.0,64.0
2069,53.0,0.0,150.0,13.0,64.0
2070,61.0,0.0,90.0,11.0,64.0
2071,56.0,24.0,90.0,11.0,64.0
2072,53.0,60.0,150.0,3.0,64.0
2073,65.0,0.0,90.0,12.0,64.0
2074,61.0,144.0,90.0,11.0,64.0
2075,56.0,0.0,90.0,11.0,64.0
2076,65.0,0.0,90.0,12.0,64.0
2077,71.0,240.0,120.0,10.0,64.0
2078,79.0,0.0,480.0,0.0,64.0
2079,53.0,384.0,480.0,3.0,64.0
2080,55.0,0.0,870.0,2.0,64.0
2081,41.0,0.0,390.0,14.0,64.0
2082,62.0,0.0,390.0,12.0,64.0
2083,71.0,0.0,480.0,0.0,64.0
2084,59.0,0.0,390.0,11.0,64.0
2085,59.0,0.0,480.0,2.0,64.0
2086,67.0,0.0,870.0,1.0,64.0
2087,55.0,96.0,390.0,12.0,64.0
2088,71.0,0.0,480.0,1.0,64.0
2089,53.0,0.0,390.0,13.0,64.0
2090,79.0,24.0,120.0,10.0,64.0
2091,60.0,0.0,960.0,10.0,64.0
2092,70.0,0.0,960.0,10.0,64.0
2093,67.0,0.0,480.0,12.0,64.0
2094,70.0,0.0,390.0,1.0,64.0
2095,58.0,96.0,390.0,2.0,64.0
2096,40.0,0.0,15.0,14.0,64.0
2097,52.0,0.0,15.0,13.0,64.0
2098,60.0,0.0,15.0,11.0,64.0
2099,67.0,0.0,480.0,12.0,64.0
2100,52.0,480.0,15.0,3.0,64.0
2101,69.0,240.0,660.0,10.0,64.0
2102,65.0,0.0,390.0,12.0,64.0
2103,53.0,96.0,390.0,13.0,64.0
2104,53.0,0.0,390.0,3.0,64.0
2105,41.0,0.0,390.0,14.0,64.0
2106,61.0,192.0,240.0,11.0,64.0
2107,58.0,0.0,900.0,12.0,64.0
2108,62.0,0.0,900.0,11.0,64.0
2109,46.0,144.0,780.0,3.0,64.0
2110,46.0,0.0,900.0,13.0,64.0
2111,34.0,0.0,900.0,14.0,64.0
2112,67.0,240.0,180.0,10.0,64.0
2113,70.0,96.0,180.0,10.0,64.0
2114,74.0,528.0,180.0,10.0,64.0
2115,57.0,60.0,480.0,11.0,64.0
2116,60.0,0.0,870.0,11.0,64.0
2117,48.0,0.0,780.0,13.0,64.0
2118,48.0,96.0,780.0,3.0,64.0
2119,57.0,0.0,480.0,12.0,64.0
2120,36.0,0.0,780.0,14.0,64.0
2121,65.0,0.0,480.0,10.0,64.0
2122,58.0,0.0,390.0,11.0,64.0
2123,64.0,12.0,390.0,12.0,64.0
2124,69.0,228.0,60.0,10.0,64.0
2125,67.0,180.0,330.0,10.0,64.0
2126,65.0,48.0,780.0,0.0,64.0
2127,60.0,60.0,90.0,11.0,64.0
2128,41.0,12.0,390.0,6.0,64.0
2129,65.0,0.0,570.0,10.0,64.0
2130,41.0,0.0,780.0,4.0,64.0
2131,53.0,0.0,780.0,4.0,64.0
2132,56.0,0.0,90.0,11.0,64.0
2133,29.0,0.0,150.0,14.0,64.0
2134,53.0,0.0,90.0,12.0,64.0
2135,41.0,60.0,150.0,3.0,64.0
2136,56.0,96.0,2400.0,2.0,64.0
2137,60.0,0.0,780.0,2.0,64.0
2138,65.0,0.0,780.0,5.0,64.0
2139,41.0,0.0,150.0,13.0,64.0
2140,53.0,0.0,780.0,5.0,64.0
2141,65.0,0.0,780.0,1.0,64.0
2142,53.0,0.0,90.0,12.0,64.0
2143,56.0,120.0,90.0,11.0,64.0
2144,60.0,0.0,90.0,11.0,64.0
2145,53.0,60.0,150.0,13.0,64.0
2146,56.0,0.0,90.0,11.0,64.0
2147,53.0,48.0,90.0,12.0,64.0
2148,60.0,0.0,90.0,11.0,64.0
2149,53.0,0.0,150.0,3.0,64.0
2150,41.0,0.0,150.0,14.0,64.0
2151,56.0,0.0,90.0,11.0,64.0
2152,60.0,0.0,90.0,11.0,64.0
2153,53.0,120.0,90.0,12.0,64.0
2154,41.0,0.0,150.0,14.0,64.0
2155,56.0,0.0,90.0,11.0,64.0
2156,60.0,0.0,90.0,11.0,64.0
2157,53.0,60.0,150.0,3.0,64.0
2158,53.0,0.0,150.0,13.0,64.0
2159,53.0,60.0,90.0,12.0,64.0
2160,60.0,0.0,90.0,11.0,64.0
2161,56.0,0.0,90.0,11.0,64.0
2162,53.0,72.0,90.0,12.0,64.0
2163,41.0,60.0,90.0,6.0,64.0
2164,41.0,0.0,150.0,14.0,64.0
2165,53.0,0.0,150.0,3.0,64.0
2166,53.0,0.0,90.0,12.0,64.0
2167,68.0,0.0,90.0,10.0,64.0
2168,60.0,0.0,90.0,11.0,64.0
2169,53.0,60.0,150.0,13.0,64.0
2170,56.0,0.0,90.0,11.0,64.0
2171,60.0,0.0,90.0,11.0,64.0
2172,53.0,0.0,90.0,12.0,64.0
2173,65.0,0.0,90.0,10.0,64.0
2174,56.0,120.0,90.0,11.0,64.0
2175,41.0,0.0,90.0,6.0,64.0
2176,80.0,0.0,1440.0,0.0,64.0
2177,56.0,0.0,90.0,11.0,64.0
2178,73.0,0.0,570.0,10.0,64.0
2179,41.0,48.0,780.0,4.0,64.0
2180,53.0,0.0,780.0,4.0,64.0
2181,41.0,12.0,390.0,6.0,64.0
2182,41.0,60.0,150.0,3.0,64.0
2183,68.0,0.0,1440.0,1.0,64.0
2184,53.0,0.0,780.0,5.0,64.0
2185,61.0,60.0,90.0,11.0,64.0
2186,65.0,0.0,90.0,12.0,64.0
2187,41.0,0.0,150.0,13.0,64.0
2188,61.0,0.0,1440.0,2.0,64.0
2189,73.0,0.0,1440.0,0.0,64.0
2190,73.0,0.0,1440.0,1.0,64.0
2191,65.0,0.0,780.0,5.0,64.0
2192,29.0,0.0,150.0,14.0,64.0
2193,61.0,0.0,90.0,11.0,64.0
2194,65.0,120.0,90.0,12.0,64.0
2195,56.0,0.0,90.0,11.0,64.0
2196,56.0,0.0,90.0,11.0,64.0
2197,65.0,0.0,90.0,12.0,64.0
2198,53.0,0.0,150.0,13.0,64.0
2199,61.0,48.0,90.0,11.0,64.0
2200,41.0,60.0,150.0,14.0,64.0
2201,53.0,0.0,150.0,3.0,64.0
2202,65.0,120.0,90.0,12.0,64.0
2203,61.0,0.0,90.0,11.0,64.0
2204,56.0,0.0,90.0,11.0,64.0
2205,41.0,0.0,150.0,14.0,64.0
2206,61.0,60.0,90.0,11.0,64.0
2207,53.0,0.0,150.0,3.0,64.0
2208,65.0,0.0,90.0,12.0,64.0
2209,53.0,60.0,150.0,13.0,64.0
2210,56.0,0.0,90.0,11.0,64.0
2211,65.0,72.0,90.0,12.0,64.0
2212,61.0,0.0,90.0,11.0,64.0
2213,56.0,0.0,90.0,11.0,64.0
2214,65.0,0.0,90.0,12.0,64.0
2215,77.0,0.0,90.0,10.0,64.0
2216,41.0,0.0,150.0,14.0,64.0
2217,56.0,0.0,90.0,11.0,64.0
2218,61.0,60.0,90.0,11.0,64.0
2219,41.0,0.0,90.0,6.0,64.0
2220,53.0,0.0,150.0,3.0,64.0
2221,53.0,60.0,150.0,13.0,64.0
2222,61.0,0.0,90.0,11.0,64.0
2223,56.0,0.0,90.0,11.0,64.0
2224,41.0,0.0,90.0,6.0,64.0
2225,65.0,120.0,90.0,12.0,64.0
2226,73.0,0.0,90.0,10.0,64.0
2227,80.0,24.0,120.0,10.0,64.0
2228,41.0,12.0,150.0,13.0,64.0
2229,65.0,0.0,390.0,5.0,64.0
2230,53.0,0.0,390.0,5.0,64.0
2231,41.0,0.0,390.0,6.0,64.0
2232,41.0,0.0,390.0,4.0,64.0
2233,53.0,0.0,390.0,4.0,64.0
2234,41.0,60.0,150.0,3.0,64.0
2235,65.0,0.0,90.0,12.0,64.0
2236,29.0,0.0,150.0,14.0,64.0
2237,56.0,0.0,90.0,11.0,64.0
2238,61.0,24.0,90.0,11.0,64.0
2239,56.0,0.0,90.0,11.0,64.0
2240,61.0,120.0,90.0,11.0,64.0
2241,65.0,0.0,90.0,12.0,64.0
2242,61.0,0.0,90.0,11.0,64.0
2243,41.0,0.0,150.0,14.0,64.0
2244,53.0,12.0,150.0,13.0,64.0
2245,65.0,0.0,90.0,12.0,64.0
2246,53.0,60.0,150.0,3.0,64.0
2247,73.0,24.0,120.0,10.0,64.0
2248,56.0,24.0,90.0,11.0,64.0
2249,61.0,24.0,90.0,11.0,64.0
2250,56.0,0.0,90.0,11.0,64.0
2251,65.0,0.0,90.0,12.0,64.0
2252,61.0,0.0,90.0,11.0,64.0
2253,29.0,0.0,150.0,14.0,64.0
2254,72.0,12.0,390.0,1.0,64.0
2255,41.0,12.0,150.0,13.0,64.0
2256,56.0,0.0,90.0,11.0,64.0
2257,41.0,0.0,390.0,4.0,64.0
2258,41.0,60.0,150.0,3.0,64.0
2259,53.0,0.0,390.0,4.0,64.0
2260,72.0,0.0,390.0,0.0,64.0
2261,80.0,24.0,120.0,10.0,64.0
2262,65.0,24.0,90.0,12.0,64.0
2263,60.0,0.0,390.0,2.0,64.0
2264,56.0,0.0,90.0,11.0,64.0
2265,61.0,0.0,90.0,11.0,64.0
2266,65.0,120.0,90.0,12.0,64.0
2267,41.0,0.0,150.0,14.0,64.0
2268,61.0,24.0,90.0,11.0,64.0
2269,65.0,0.0,90.0,12.0,64.0
2270,53.0,0.0,150.0,13.0,64.0
2271,53.0,60.0,150.0,3.0,64.0
2272,56.0,0.0,90.0,11.0,64.0
2273,73.0,24.0,120.0,10.0,64.0
2274,61.0,0.0,90.0,11.0,64.0
2275,65.0,0.0,90.0,12.0,64.0
2276,56.0,144.0,90.0,11.0,64.0
2277,53.0,0.0,390.0,3.0,64.0
2278,55.0,0.0,390.0,12.0,64.0
2279,53.0,0.0,390.0,13.0,64.0
2280,59.0,0.0,390.0,11.0,64.0
2281,71.0,240.0,120.0,10.0,64.0
2282,41.0,0.0,390.0,14.0,64.0
2283,62.0,576.0,390.0,12.0,64.0
2284,79.0,24.0,120.0,10.0,64.0
2285,67.0,0.0,480.0,12.0,64.0
2286,60.0,0.0,960.0,10.0,64.0
2287,70.0,0.0,960.0,10.0,64.0
2288,52.0,0.0,480.0,3.0,64.0
2289,52.0,0.0,480.0,13.0,64.0
2290,52.0,0.0,480.0,13.0,64.0
2291,40.0,0.0,15.0,14.0,64.0
2292,67.0,0.0,480.0,12.0,64.0
2293,60.0,480.0,15.0,11.0,64.0
2294,52.0,384.0,480.0,3.0,64.0
2295,65.0,96.0,390.0,12.0,64.0
2296,41.0,0.0,390.0,14.0,64.0
2297,53.0,0.0,390.0,13.0,64.0
2298,53.0,0.0,390.0,3.0,64.0
2299,69.0,192.0,480.0,10.0,64.0
2300,66.0,0.0,180.0,10.0,64.0
2301,45.0,0.0,180.0,13.0,64.0
2302,63.0,0.0,180.0,12.0,64.0
2303,33.0,480.0,180.0,14.0,64.0
2304,58.0,0.0,180.0,11.0,64.0
2305,55.0,0.0,480.0,3.0,64.0
2306,46.0,0.0,180.0,13.0,64.0
2307,34.0,288.0,180.0,14.0,64.0
2308,67.0,0.0,180.0,10.0,64.0
2309,62.0,0.0,180.0,12.0,64.0
2310,79.0,0.0,480.0,0.0,64.0
2311,67.0,480.0,480.0,1.0,64.0
2312,78.0,0.0,480.0,0.0,64.0
2313,66.0,0.0,480.0,1.0,64.0
2314,54.0,384.0,480.0,3.0,64.0
2315,55.0,0.0,390.0,3.0,64.0
2316,79.0,288.0,390.0,0.0,64.0
2317,67.0,0.0,390.0,1.0,64.0
2318,36.0,480.0,180.0,14.0,64.0
2319,63.0,0.0,180.0,12.0,64.0
2320,48.0,0.0,180.0,13.0,64.0
2321,65.0,0.0,180.0,11.0,64.0
2322,69.0,0.0,180.0,10.0,64.0
2323,65.0,0.0,180.0,11.0,64.0
2324,38.0,288.0,180.0,14.0,64.0
2325,62.0,0.0,180.0,12.0,64.0
2326,58.0,0.0,480.0,3.0,64.0
2327,70.0,0.0,180.0,10.0,64.0
2328,70.0,0.0,480.0,1.0,64.0
2329,50.0,0.0,180.0,13.0,64.0
2330,82.0,480.0,480.0,0.0,64.0
2331,57.0,384.0,480.0,3.0,64.0
2332,81.0,0.0,480.0,0.0,64.0
2333,69.0,0.0,480.0,1.0,64.0
2334,70.0,0.0,390.0,1.0,64.0
2335,82.0,1008.0,390.0,0.0,64.0
2336,58.0,0.0,390.0,3.0,64.0
2337,74.0,168.0,900.0,10.0,64.0
2338,73.0,120.0,120.0,10.0,64.0
2339,74.0,120.0,120.0,10.0,64.0
2340,76.0,120.0,120.0,10.0,64.0
2341,74.0,120.0,120.0,10.0,64.0
2342,72.0,120.0,120.0,10.0,64.0
2343,70.0,120.0,120.0,10.0,64.0
2344,69.0,120.0,120.0,10.0,64.0
2345,67.0,192.0,120.0,10.0,64.0
2346,65.0,768.0,180.0,10.0,64.0
2347,56.0,0.0,480.0,11.0,64.0
2348,35.0,384.0,480.0,14.0,64.0
2349,47.0,0.0,480.0,13.0,64.0
2350,62.0,0.0,480.0,12.0,64.0
2351,65.0,0.0,870.0,10.0,64.0
2352,60.0,0.0,780.0,12.0,64.0
2353,36.0,72.0,780.0,14.0,64.0
2354,48.0,0.0,780.0,13.0,64.0
2355,57.0,384.0,390.0,11.0,64.0
2356,67.0,0.0,360.0,10.0,64.0
2357,58.0,96.0,360.0,11.0,64.0
2358,55.0,0.0,90.0,11.0,64.0
2359,64.0,120.0,90.0,10.0,64.0
2360,65.0,0.0,390.0,5.0,64.0
2361,65.0,0.0,390.0,11.0,64.0
2362,57.0,72.0,390.0,11.0,64.0
2363,53.0,0.0,390.0,4.0,64.0
2364,41.0,0.0,390.0,6.0,64.0
2365,60.0,0.0,390.0,4.0,64.0
2366,53.0,0.0,390.0,13.0,64.0
2367,60.0,0.0,390.0,11.0,64.0
2368,65.0,0.0,390.0,2.0,64.0
2369,72.0,0.0,390.0,1.0,64.0
2370,69.0,0.0,390.0,1.0,64.0
2371,65.0,0.0,390.0,12.0,64.0
2372,77.0,0.0,390.0,0.0,64.0
2373,53.0,0.0,390.0,3.0,64.0
2374,77.0,120.0,90.0,10.0,64.0
2375,60.0,0.0,390.0,2.0,64.0
2376,41.0,0.0,390.0,14.0,64.0
2377,77.0,120.0,90.0,10.0,64.0
2378,72.0,48.0,90.0,10.0,64.0
2379,72.0,120.0,90.0,10.0,64.0
2380,69.0,120.0,90.0,10.0,64.0
2381,69.0,120.0,90.0,10.0,64.0
2382,65.0,120.0,90.0,10.0,64.0
2383,65.0,120.0,90.0,10.0,64.0
2384,60.0,0.0,390.0,2.0,64.0
2385,52.0,0.0,390.0,13.0,64.0
2386,40.0,0.0,390.0,14.0,64.0
2387,52.0,72.0,390.0,3.0,64.0
2388,72.0,0.0,390.0,1.0,64.0
2389,79.0,0.0,390.0,0.0,64.0
2390,70.0,0.0,390.0,1.0,64.0
2391,64.0,0.0,390.0,12.0,64.0
2392,67.0,0.0,390.0,2.0,64.0
2393,79.0,120.0,90.0,10.0,64.0
2394,60.0,0.0,390.0,11.0,64.0
2395,70.0,0.0,390.0,11.0,64.0
2396,60.0,0.0,390.0,4.0,64.0
2397,79.0,120.0,90.0,10.0,64.0
2398,76.0,48.0,90.0,10.0,64.0
2399,76.0,120.0,90.0,10.0,64.0
2400,72.0,120.0,90.0,10.0,64.0
2401,72.0,120.0,90.0,10.0,64.0
2402,67.0,120.0,90.0,10.0,64.0
2403,67.0,120.0,90.0,10.0,64.0
2404,65.0,0.0,390.0,2.0,64.0
2405,41.0,0.0,390.0,14.0,64.0
2406,65.0,0.0,390.0,12.0,64.0
2407,41.0,0.0,390.0,6.0,64.0
2408,53.0,0.0,390.0,13.0,64.0
2409,60.0,0.0,390.0,11.0,64.0
2410,69.0,0.0,390.0,11.0,64.0
2411,72.0,0.0,390.0,11.0,64.0
2412,60.0,0.0,390.0,4.0,64.0
2413,72.0,0.0,390.0,1.0,64.0
2414,53.0,0.0,390.0,3.0,64.0
2415,81.0,120.0,90.0,10.0,64.0
2416,69.0,0.0,390.0,1.0,64.0
2417,53.0,0.0,390.0,4.0,64.0
2418,81.0,72.0,390.0,0.0,64.0
2419,60.0,0.0,390.0,2.0,64.0
2420,65.0,0.0,390.0,5.0,64.0
2421,81.0,120.0,90.0,10.0,64.0
2422,77.0,48.0,90.0,10.0,64.0
2423,77.0,120.0,90.0,10.0,64.0
2424,72.0,120.0,90.0,10.0,64.0
2425,72.0,120.0,90.0,10.0,64.0
2426,69.0,120.0,90.0,10.0,64.0
2427,69.0,120.0,90.0,10.0,64.0
2428,43.0,0.0,390.0,14.0,64.0
2429,70.0,72.0,390.0,2.0,64.0
2430,64.0,0.0,390.0,2.0,64.0
2431,60.0,0.0,390.0,4.0,64.0
2432,58.0,0.0,390.0,4.0,64.0
2433,82.0,120.0,90.0,10.0,64.0
2434,72.0,0.0,390.0,1.0,64.0
2435,76.0,0.0,390.0,1.0,64.0
2436,67.0,0.0,390.0,11.0,64.0
2437,76.0,0.0,390.0,11.0,64.0
2438,55.0,0.0,390.0,13.0,64.0
2439,55.0,0.0,390.0,3.0,64.0
2440,60.0,0.0,390.0,11.0,64.0
2441,82.0,0.0,390.0,0.0,64.0
2442,67.0,0.0,390.0,12.0,64.0
2443,82.0,120.0,90.0,10.0,64.0
2444,79.0,48.0,90.0,10.0,64.0
2445,79.0,120.0,90.0,10.0,64.0
2446,76.0,120.0,90.0,10.0,64.0
2447,76.0,120.0,90.0,10.0,64.0
2448,70.0,120.0,90.0,10.0,64.0
2449,70.0,120.0,90.0,10.0,64.0
2450,84.0,120.0,90.0,10.0,64.0
2451,53.0,0.0,390.0,4.0,64.0
2452,65.0,0.0,390.0,2.0,64.0
2453,57.0,0.0,390.0,3.0,64.0
2454,69.0,0.0,390.0,2.0,64.0
2455,60.0,0.0,390.0,4.0,64.0
2456,69.0,0.0,390.0,12.0,64.0
2457,72.0,48.0,1740.0,0.0,64.0
2458,41.0,0.0,390.0,6.0,64.0
2459,65.0,72.0,390.0,11.0,64.0
2460,77.0,0.0,390.0,11.0,64.0
2461,60.0,0.0,390.0,11.0,64.0
2462,72.0,0.0,390.0,1.0,64.0
2463,84.0,0.0,1740.0,0.0,64.0
2464,77.0,0.0,390.0,1.0,64.0
2465,57.0,0.0,390.0,13.0,64.0
2466,65.0,0.0,390.0,5.0,64.0
2467,45.0,0.0,390.0,14.0,64.0
2468,84.0,120.0,90.0,10.0,64.0
2469,81.0,48.0,90.0,10.0,64.0
2470,81.0,120.0,90.0,10.0,64.0
2471,77.0,120.0,90.0,10.0,64.0
2472,77.0,120.0,90.0,10.0,64.0
2473,69.0,0.0,180.0,12.0,64.0
2474,60.0,0.0,180.0,4.0,64.0
2475,72.0,72.0,90.0,10.0,64.0
2476,57.0,48.0,180.0,3.0,64.0
2477,57.0,0.0,180.0,13.0,64.0
2478,72.0,0.0,90.0,11.0,64.0
2479,45.0,0.0,180.0,14.0,64.0
2480,72.0,0.0,90.0,11.0,64.0
2481,72.0,120.0,90.0,10.0,64.0
2482,70.0,72.0,90.0,10.0,64.0
2483,55.0,0.0,180.0,3.0,64.0
2484,43.0,0.0,180.0,14.0,64.0
2485,55.0,0.0,180.0,13.0,64.0
2486,60.0,0.0,180.0,4.0,64.0
2487,70.0,0.0,90.0,11.0,64.0
2488,67.0,48.0,180.0,12.0,64.0
2489,70.0,0.0,90.0,11.0,64.0
2490,70.0,120.0,90.0,10.0,64.0
2491,52.0,0.0,180.0,3.0,64.0
2492,40.0,0.0,180.0,14.0,64.0
2493,64.0,0.0,180.0,12.0,64.0
2494,60.0,0.0,180.0,4.0,64.0
2495,67.0,72.0,90.0,10.0,64.0
2496,52.0,48.0,180.0,13.0,64.0
2497,67.0,0.0,90.0,11.0,64.0
2498,67.0,0.0,90.0,11.0,64.0
2499,67.0,120.0,90.0,10.0,64.0
2500,36.0,0.0,180.0,14.0,64.0
2501,48.0,0.0,180.0,3.0,64.0
2502,60.0,0.0,180.0,12.0,64.0
2503,64.0,0.0,90.0,10.0,64.0
2504,60.0,0.0,180.0,4.0,64.0
2505,64.0,72.0,90.0,11.0,64.0
2506,48.0,48.0,180.0,13.0,64.0
2507,64.0,0.0,90.0,10.0,64.0
2508,64.0,72.0,90.0,11.0,64.0
2509,52.0,0.0,180.0,13.0,64.0
2510,58.0,72.0,90.0,10.0,64.0
2511,52.0,0.0,180.0,3.0,64.0
2512,55.0,48.0,180.0,12.0,64.0
2513,60.0,0.0,180.0,4.0,64.0
2514,58.0,0.0,90.0,11.0,64.0
2515,40.0,0.0,180.0,14.0,64.0
2516,58.0,0.0,90.0,11.0,64.0
2517,58.0,264.0,90.0,10.0,64.0
2518,57.0,0.0,240.0,10.0,64.0
2519,53.0,0.0,480.0,12.0,64.0
2520,57.0,0.0,240.0,11.0,64.0
2521,72.0,0.0,570.0,5.0,64.0
2522,72.0,0.0,570.0,0.0,64.0
2523,84.0,0.0,570.0,0.0,64.0
2524,53.0,0.0,240.0,3.0,64.0
2525,65.0,0.0,480.0,2.0,64.0
2526,41.0,0.0,240.0,14.0,64.0
2527,69.0,0.0,240.0,1.0,64.0
2528,53.0,240.0,240.0,13.0,64.0
2529,60.0,60.0,570.0,4.0,64.0
2530,60.0,0.0,240.0,11.0,64.0
2531,72.0,0.0,240.0,1.0,64.0
2532,57.0,0.0,240.0,3.0,64.0
2533,45.0,0.0,240.0,14.0,64.0
2534,60.0,0.0,240.0,10.0,64.0
2535,57.0,0.0,240.0,13.0,64.0
2536,58.0,0.0,180.0,11.0,64.0
2537,52.0,0.0,180.0,12.0,64.0
2538,55.0,0.0,180.0,3.0,64.0
2539,58.0,36.0,150.0,10.0,64.0
2540,70.0,0.0,180.0,1.0,64.0
2541,64.0,0.0,180.0,2.0,64.0
2542,43.0,0.0,180.0,14.0,64.0
2543,60.0,96.0,15.0,2.0,64.0
2544,55.0,168.0,180.0,13.0,64.0
2545,67.0,120.0,120.0,10.0,64.0
2546,69.0,78.0,120.0,10.0,64.0
2547,70.0,120.0,90.0,10.0,64.0
2548,69.0,120.0,90.0,10.0,64.0
2549,67.0,120.0,90.0,10.0,64.0
2550,65.0,120.0,90.0,10.0,64.0
2551,64.0,120.0,90.0,10.0,64.0
2552,62.0,120.0,90.0,10.0,64.0
2553,60.0,120.0,90.0,10.0,64.0
2554,58.0,282.0,90.0,10.0,64.0
2555,41.0,0.0,240.0,14.0,64.0
2556,53.0,0.0,480.0,12.0,64.0
2557,53.0,240.0,240.0,13.0,64.0
2558,53.0,0.0,240.0,3.0,64.0
2559,72.0,0.0,570.0,5.0,64.0
2560,57.0,0.0,240.0,11.0,64.0
2561,84.0,0.0,570.0,0.0,64.0
2562,65.0,0.0,480.0,2.0,64.0
2563,72.0,60.0,570.0,0.0,64.0
2564,69.0,0.0,240.0,1.0,64.0
2565,60.0,0.0,570.0,4.0,64.0
2566,57.0,0.0,240.0,10.0,64.0
2567,60.0,0.0,240.0,11.0,64.0
2568,57.0,96.0,240.0,13.0,64.0
2569,72.0,0.0,240.0,1.0,64.0
2570,57.0,0.0,240.0,3.0,64.0
2571,60.0,0.0,240.0,10.0,64.0
2572,45.0,0.0,240.0,14.0,64.0
2573,70.0,0.0,180.0,1.0,64.0
2574,58.0,36.0,150.0,10.0,64.0
2575,55.0,168.0,180.0,3.0,64.0
2576,43.0,0.0,180.0,14.0,64.0
2577,58.0,0.0,180.0,11.0,64.0
2578,60.0,0.0,15.0,2.0,64.0
2579,52.0,0.0,180.0,12.0,64.0
2580,64.0,0.0,180.0,2.0,64.0
2581,55.0,0.0,180.0,13.0,64.0
2582,67.0,120.0,120.0,10.0,64.0
2583,69.0,78.0,120.0,10.0,64.0
2584,70.0,120.0,90.0,10.0,64.0
2585,69.0,120.0,90.0,10.0,64.0
2586,67.0,120.0,90.0,10.0,64.0
2587,65.0,120.0,90.0,10.0,64.0
2588,64.0,120.0,90.0,10.0,64.0
2589,62.0,120.0,90.0,10.0,64.0
2590,60.0,120.0,90.0,10.0,64.0
2591,58.0,138.0,90.0,10.0,64.0
2592,57.0,120.0,90.0,10.0,64.0
2593,60.0,120.0,90.0,10.0,64.0
2594,45.0,0.0,240.0,13.0,64.0
2595,65.0,0.0,90.0,11.0,64.0
2596,33.0,0.0,240.0,14.0,64.0
2597,45.0,96.0,240.0,3.0,64.0
2598,53.0,0.0,480.0,12.0,64.0
2599,65.0,120.0,90.0,10.0,64.0
2600,63.0,0.0,90.0,10.0,64.0
2601,63.0,24.0,90.0,11.0,64.0
2602,34.0,0.0,240.0,14.0,64.0
2603,46.0,0.0,240.0,13.0,64.0
2604,62.0,0.0,90.0,11.0,64.0
2605,62.0,120.0,90.0,10.0,64.0
2606,46.0,96.0,240.0,3.0,64.0
2607,58.0,24.0,90.0,10.0,64.0
2608,58.0,0.0,90.0,11.0,64.0
2609,67.0,120.0,90.0,10.0,64.0
2610,47.0,0.0,240.0,13.0,64.0
2611,67.0,0.0,90.0,11.0,64.0
2612,35.0,96.0,240.0,14.0,64.0
2613,55.0,0.0,480.0,12.0,64.0
2614,47.0,0.0,240.0,3.0,64.0
2615,65.0,24.0,90.0,10.0,64.0
2616,65.0,0.0,90.0,11.0,64.0
2617,64.0,0.0,90.0,10.0,64.0
2618,48.0,0.0,240.0,13.0,64.0
2619,36.0,0.0,240.0,14.0,64.0
2620,64.0,120.0,90.0,11.0,64.0
2621,48.0,96.0,240.0,3.0,64.0
2622,60.0,24.0,90.0,10.0,64.0
2623,60.0,0.0,90.0,11.0,64.0
2624,37.0,0.0,180.0,14.0,64.0
2625,49.0,24.0,180.0,13.0,64.0
2626,57.0,72.0,480.0,12.0,64.0
2627,49.0,0.0,180.0,3.0,64.0
2628,69.0,96.0,90.0,10.0,64.0
2629,69.0,0.0,90.0,11.0,64.0
2630,67.0,0.0,90.0,10.0,64.0
2631,67.0,120.0,90.0,11.0,64.0
2632,65.0,120.0,90.0,10.0,64.0
2633,50.0,6.0,300.0,3.0,64.0
2634,50.0,0.0,300.0,13.0,64.0
2635,65.0,0.0,90.0,11.0,64.0
2636,38.0,0.0,300.0,14.0,64.0
2637,62.0,0.0,90.0,11.0,64.0
2638,62.0,24.0,90.0,10.0,64.0
2639,58.0,72.0,480.0,12.0,64.0
2640,70.0,102.0,90.0,11.0,64.0
2641,70.0,18.0,90.0,1.0,64.0
2642,70.0,0.0,90.0,10.0,64.0
2643,69.0,18.0,90.0,1.0,64.0
2644,69.0,0.0,90.0,10.0,64.0
2645,69.0,120.0,90.0,11.0,64.0
2646,52.0,0.0,300.0,3.0,64.0
2647,52.0,0.0,300.0,13.0,64.0
2648,40.0,6.0,300.0,14.0,64.0
2649,67.0,0.0,90.0,10.0,64.0
2650,67.0,60.0,150.0,1.0,64.0
2651,67.0,60.0,90.0,11.0,64.0
2652,64.0,0.0,90.0,11.0,64.0
2653,64.0,24.0,90.0,10.0,64.0
2654,60.0,72.0,480.0,12.0,64.0
2655,72.0,18.0,90.0,1.0,64.0
2656,72.0,0.0,90.0,11.0,64.0
2657,72.0,102.0,90.0,10.0,64.0
2658,70.0,120.0,90.0,11.0,64.0
2659,70.0,18.0,90.0,1.0,64.0
2660,70.0,0.0,90.0,10.0,64.0
2661,41.0,0.0,300.0,14.0,64.0
2662,69.0,0.0,90.0,11.0,64.0
2663,69.0,60.0,90.0,10.0,64.0
2664,53.0,0.0,300.0,13.0,64.0
2665,69.0,60.0,150.0,1.0,64.0
2666,53.0,6.0,300.0,3.0,64.0
2667,65.0,0.0,90.0,11.0,64.0
2668,65.0,24.0,90.0,10.0,64.0
2669,74.0,18.0,90.0,1.0,64.0
2670,74.0,0.0,90.0,11.0,64.0
2671,62.0,42.0,150.0,12.0,64.0
2672,74.0,60.0,90.0,10.0,64.0
2673,72.0,0.0,90.0,11.0,64.0
2674,72.0,18.0,90.0,1.0,64.0
2675,72.0,120.0,90.0,10.0,64.0
2676,43.0,0.0,390.0,14.0,64.0
2677,82.0,72.0,870.0,0.0,64.0
2678,70.0,120.0,90.0,11.0,64.0
2679,55.0,0.0,390.0,13.0,64.0
2680,58.0,72.0,390.0,4.0,64.0
2681,74.0,0.0,390.0,0.0,64.0
2682,62.0,0.0,390.0,4.0,64.0
2683,62.0,0.0,390.0,12.0,64.0
2684,55.0,0.0,390.0,3.0,64.0
2685,70.0,0.0,390.0,1.0,64.0
2686,70.0,0.0,90.0,10.0,64.0
2687,69.0,120.0,90.0,10.0,64.0
2688,69.0,0.0,90.0,11.0,64.0
2689,67.0,0.0,90.0,11.0,64.0
2690,67.0,48.0,90.0,10.0,64.0
2691,69.0,120.0,90.0,10.0,64.0
2692,69.0,0.0,90.0,11.0,64.0
2693,67.0,0.0,390.0,1.0,64.0
2694,48.0,0.0,390.0,13.0,64.0
2695,64.0,0.0,390.0,1.0,64.0
2696,70.0,0.0,90.0,11.0,64.0
2697,76.0,0.0,390.0,0.0,64.0
2698,70.0,120.0,90.0,10.0,64.0
2699,36.0,0.0,390.0,14.0,64.0
2700,60.0,0.0,390.0,4.0,64.0
2701,60.0,0.0,390.0,12.0,64.0
2702,48.0,0.0,390.0,3.0,64.0
2703,72.0,0.0,90.0,11.0,64.0
2704,72.0,120.0,90.0,10.0,64.0
2705,74.0,48.0,90.0,11.0,64.0
2706,74.0,0.0,90.0,10.0,64.0
2707,76.0,0.0,90.0,10.0,64.0
2708,76.0,144.0,90.0,11.0,64.0
2709,53.0,0.0,390.0,13.0,64.0
2710,53.0,96.0,390.0,3.0,64.0
2711,53.0,0.0,780.0,4.0,64.0
2712,53.0,72.0,780.0,2.0,64.0
2713,77.0,0.0,120.0,11.0,64.0
2714,65.0,0.0,390.0,5.0,64.0
2715,81.0,0.0,180.0,0.0,64.0
2716,41.0,0.0,390.0,14.0,64.0
2717,65.0,0.0,780.0,1.0,64.0
2718,41.0,0.0,390.0,6.0,64.0
2719,65.0,0.0,120.0,12.0,64.0
2720,77.0,72.0,120.0,10.0,64.0
2721,77.0,48.0,180.0,0.0,64.0
2722,64.0,0.0,120.0,12.0,64.0
2723,76.0,120.0,120.0,11.0,64.0
2724,76.0,0.0,120.0,10.0,64.0
2725,62.0,24.0,120.0,12.0,64.0
2726,74.0,0.0,120.0,10.0,64.0
2727,74.0,0.0,120.0,11.0,64.0
2728,73.0,120.0,120.0,11.0,64.0
2729,61.0,0.0,120.0,12.0,64.0
2730,73.0,0.0,120.0,10.0,64.0
2731,74.0,120.0,120.0,10.0,64.0
2732,62.0,0.0,120.0,12.0,64.0
2733,74.0,0.0,120.0,11.0,64.0
2734,60.0,48.0,120.0,12.0,64.0
2735,72.0,0.0,120.0,11.0,64.0
2736,72.0,0.0,120.0,10.0,64.0
2737,70.0,96.0,120.0,11.0,64.0
2738,70.0,0.0,120.0,10.0,64.0
2739,58.0,0.0,120.0,12.0,64.0
2740,69.0,0.0,90.0,10.0,64.0
2741,57.0,120.0,90.0,12.0,64.0
2742,69.0,0.0,90.0,11.0,64.0
2743,82.0,0.0,120.0,0.0,64.0
2744,70.0,96.0,120.0,11.0,64.0
2745,58.0,24.0,90.0,13.0,64.0
2746,58.0,0.0,120.0,12.0,64.0
2747,58.0,0.0,390.0,5.0,64.0
2748,62.0,48.0,780.0,4.0,64.0
2749,46.0,0.0,90.0,14.0,64.0
2750,58.0,0.0,90.0,3.0,64.0
2751,74.0,0.0,780.0,1.0,64.0
2752,62.0,0.0,780.0,2.0,64.0
2753,70.0,0.0,120.0,10.0,64.0
2754,70.0,0.0,390.0,5.0,64.0
2755,46.0,72.0,390.0,6.0,64.0
2756,69.0,0.0,120.0,10.0,64.0
2757,57.0,0.0,90.0,3.0,64.0
2758,45.0,0.0,90.0,14.0,64.0
2759,81.0,0.0,120.0,0.0,64.0
2760,57.0,24.0,90.0,13.0,64.0
2761,57.0,0.0,120.0,12.0,64.0
2762,69.0,96.0,120.0,11.0,64.0
2763,55.0,0.0,90.0,13.0,64.0
2764,55.0,24.0,90.0,3.0,64.0
2765,55.0,0.0,120.0,12.0,64.0
2766,67.0,0.0,120.0,10.0,64.0
2767,79.0,24.0,120.0,0.0,64.0
2768,67.0,0.0,120.0,11.0,64.0
2769,43.0,0.0,90.0,14.0,64.0
2770,65.0,96.0,120.0,11.0,64.0
2771,53.0,0.0,90.0,13.0,64.0
2772,41.0,0.0,90.0,14.0,64.0
2773,65.0,0.0,120.0,10.0,64.0
2774,77.0,0.0,120.0,0.0,64.0
2775,53.0,0.0,120.0,12.0,64.0
2776,53.0,24.0,90.0,3.0,64.0
2777,43.0,24.0,90.0,14.0,64.0
2778,79.0,0.0,120.0,0.0,64.0
2779,55.0,0.0,90.0,3.0,64.0
2780,67.0,0.0,120.0,10.0,64.0
2781,67.0,0.0,120.0,11.0,64.0
2782,55.0,96.0,120.0,12.0,64.0
2783,55.0,0.0,90.0,13.0,64.0
2784,53.0,0.0,120.0,12.0,64.0
2785,65.0,0.0,120.0,11.0,64.0
2786,41.0,0.0,90.0,14.0,64.0
2787,77.0,0.0,120.0,0.0,64.0
2788,53.0,24.0,90.0,13.0,64.0
2789,65.0,48.0,120.0,10.0,64.0
2790,53.0,0.0,90.0,3.0,64.0
2791,51.0,24.0,90.0,13.0,64.0
2792,51.0,0.0,90.0,3.0,64.0
2793,76.0,96.0,120.0,0.0,64.0
2794,39.0,0.0,90.0,14.0,64.0
2795,64.0,0.0,120.0,10.0,64.0
2796,64.0,0.0,120.0,11.0,64.0
2797,52.0,0.0,120.0,12.0,64.0
2798,50.0,0.0,90.0,12.0,64.0
2799,50.0,0.0,90.0,3.0,64.0
2800,62.0,0.0,90.0,10.0,64.0
2801,62.0,180.0,90.0,11.0,64.0
2802,38.0,0.0,90.0,14.0,64.0
2803,74.0,0.0,90.0,0.0,64.0
2804,50.0,0.0,90.0,13.0,64.0
2805,36.0,0.0,150.0,14.0,64.0
2806,48.0,0.0,150.0,12.0,64.0
2807,60.0,0.0,150.0,11.0,64.0
2808,48.0,0.0,150.0,3.0,64.0
2809,72.0,162.0,150.0,0.0,64.0
2810,60.0,12.0,390.0,2.0,64.0
2811,48.0,0.0,150.0,13.0,64.0
2812,60.0,0.0,390.0,4.0,64.0
2813,60.0,0.0,150.0,10.0,64.0
2814,72.0,0.0,390.0,1.0,64.0
2815,52.0,0.0,90.0,12.0,64.0
2816,58.0,0.0,150.0,3.0,64.0
2817,64.0,0.0,90.0,11.0,64.0
2818,76.0,0.0,90.0,0.0,64.0
2819,58.0,42.0,150.0,13.0,64.0
2820,46.0,0.0,150.0,14.0,64.0
2821,64.0,66.0,90.0,10.0,64.0
2822,79.0,198.0,90.0,0.0,64.0
2823,67.0,0.0,90.0,11.0,64.0
2824,67.0,0.0,90.0,10.0,64.0
2825,55.0,0.0,90.0,12.0,64.0
2826,57.0,0.0,150.0,3.0,64.0
2827,45.0,0.0,150.0,14.0,64.0
2828,72.0,0.0,150.0,10.0,64.0
2829,72.0,0.0,150.0,11.0,64.0
2830,84.0,0.0,150.0,0.0,64.0
2831,57.0,240.0,150.0,13.0,64.0
2832,60.0,0.0,150.0,12.0,64.0
2833,41.0,0.0,150.0,14.0,64.0
2834,77.0,0.0,150.0,10.0,64.0
2835,57.0,0.0,150.0,12.0,64.0
2836,53.0,0.0,180.0,4.0,64.0
2837,65.0,0.0,150.0,10.0,64.0
2838,77.0,0.0,150.0,11.0,64.0
2839,60.0,0.0,180.0,4.0,64.0
2840,77.0,0.0,150.0,0.0,64.0
2841,65.0,0.0,150.0,11.0,64.0
2842,65.0,204.0,180.0,1.0,64.0
2843,72.0,0.0,180.0,1.0,64.0
2844,53.0,0.0,150.0,3.0,64.0
2845,53.0,36.0,150.0,13.0,64.0
2846,84.0,0.0,150.0,0.0,64.0
2847,74.0,0.0,180.0,11.0,64.0
2848,58.0,36.0,150.0,12.0,64.0
2849,65.0,0.0,180.0,11.0,64.0
2850,58.0,0.0,150.0,13.0,64.0
2851,58.0,0.0,180.0,11.0,64.0
2852,65.0,204.0,180.0,10.0,64.0
2853,74.0,0.0,180.0,0.0,64.0
2854,74.0,0.0,180.0,10.0,64.0
2855,46.0,0.0,150.0,14.0,64.0
2856,58.0,0.0,150.0,3.0,64.0
2857,58.0,0.0,180.0,10.0,64.0
2858,62.0,0.0,180.0,4.0,64.0
2859,58.0,0.0,180.0,4.0,64.0
2860,74.0,0.0,180.0,1.0,64.0
2861,65.0,0.0,180.0,1.0,64.0
2862,84.0,0.0,180.0,0.0,64.0
2863,55.0,0.0,150.0,12.0,64.0
2864,55.0,240.0,150.0,3.0,64.0
2865,55.0,0.0,150.0,13.0,64.0
2866,43.0,0.0,150.0,14.0,64.0
2867,48.0,0.0,150.0,14.0,64.0
2868,67.0,0.0,180.0,10.0,64.0
2869,72.0,0.0,180.0,10.0,64.0
2870,64.0,0.0,180.0,1.0,64.0
2871,67.0,0.0,180.0,11.0,64.0
2872,60.0,36.0,150.0,3.0,64.0
2873,60.0,0.0,150.0,12.0,64.0
2874,64.0,0.0,180.0,11.0,64.0
2875,72.0,0.0,180.0,11.0,64.0
2876,76.0,204.0,180.0,0.0,64.0
2877,79.0,0.0,180.0,0.0,64.0
2878,64.0,0.0,180.0,10.0,64.0
2879,72.0,0.0,180.0,1.0,64.0
2880,60.0,0.0,180.0,4.0,64.0
2881,60.0,0.0,150.0,13.0,64.0
2882,48.0,0.0,150.0,12.0,64.0
2883,48.0,204.0,150.0,3.0,64.0
2884,36.0,0.0,150.0,14.0,64.0
2885,48.0,0.0,150.0,13.0,64.0
2886,77.0,0.0,120.0,11.0,64.0
2887,41.0,0.0,390.0,6.0,64.0
2888,65.0,96.0,390.0,5.0,64.0
2889,65.0,0.0,120.0,12.0,64.0
2890,53.0,0.0,780.0,2.0,64.0
2891,53.0,0.0,390.0,3.0,64.0
2892,53.0,0.0,780.0,4.0,64.0
2893,53.0,0.0,390.0,13.0,64.0
2894,41.0,0.0,390.0,14.0,64.0
2895,77.0,120.0,120.0,10.0,64.0
2896,65.0,72.0,780.0,1.0,64.0
2897,64.0,120.0,120.0,12.0,64.0
2898,76.0,0.0,120.0,11.0,64.0
2899,76.0,0.0,120.0,10.0,64.0
2900,74.0,0.0,120.0,10.0,64.0
2901,74.0,0.0,120.0,11.0,64.0
2902,62.0,24.0,120.0,12.0,64.0
2903,73.0,0.0,120.0,11.0,64.0
2904,61.0,0.0,120.0,12.0,64.0
2905,73.0,120.0,120.0,10.0,64.0
2906,62.0,0.0,120.0,12.0,64.0
2907,74.0,0.0,120.0,11.0,64.0
2908,74.0,120.0,120.0,10.0,64.0
2909,60.0,0.0,120.0,12.0,64.0
2910,72.0,0.0,120.0,10.0,64.0
2911,72.0,48.0,120.0,11.0,64.0
2912,58.0,96.0,120.0,12.0,64.0
2913,70.0,0.0,120.0,10.0,64.0
2914,70.0,0.0,120.0,11.0,64.0
2915,69.0,120.0,90.0,10.0,64.0
2916,57.0,0.0,90.0,12.0,64.0
2917,69.0,0.0,90.0,11.0,64.0
2918,82.0,0.0,120.0,0.0,64.0
2919,58.0,0.0,90.0,13.0,64.0
2920,74.0,0.0,780.0,1.0,64.0
2921,46.0,0.0,90.0,14.0,64.0
2922,70.0,0.0,390.0,5.0,64.0
2923,62.0,48.0,780.0,2.0,64.0
2924,70.0,0.0,120.0,11.0,64.0
2925,58.0,24.0,90.0,3.0,64.0
2926,58.0,72.0,390.0,5.0,64.0
2927,58.0,0.0,120.0,12.0,64.0
2928,70.0,96.0,120.0,10.0,64.0
2929,62.0,0.0,780.0,4.0,64.0
2930,46.0,0.0,390.0,6.0,64.0
2931,45.0,24.0,90.0,14.0,64.0
2932,69.0,0.0,120.0,11.0,64.0
2933,81.0,0.0,120.0,0.0,64.0
2934,69.0,0.0,120.0,10.0,64.0
2935,57.0,0.0,90.0,3.0,64.0
2936,57.0,0.0,90.0,13.0,64.0
2937,57.0,96.0,120.0,12.0,64.0
2938,55.0,24.0,120.0,12.0,64.0
2939,67.0,0.0,120.0,11.0,64.0
2940,79.0,0.0,120.0,0.0,64.0
2941,67.0,0.0,120.0,10.0,64.0
2942,55.0,0.0,90.0,13.0,64.0
2943,43.0,0.0,90.0,14.0,64.0
2944,55.0,24.0,90.0,3.0,64.0
2945,65.0,0.0,120.0,10.0,64.0
2946,53.0,24.0,90.0,13.0,64.0
2947,65.0,0.0,120.0,11.0,64.0
2948,53.0,0.0,90.0,3.0,64.0
2949,77.0,96.0,120.0,0.0,64.0
2950,53.0,0.0,120.0,12.0,64.0
2951,41.0,0.0,90.0,14.0,64.0
2952,55.0,24.0,90.0,13.0,64.0
2953,67.0,96.0,120.0,11.0,64.0
2954,79.0,0.0,120.0,0.0,64.0
2955,55.0,0.0,120.0,12.0,64.0
2956,43.0,0.0,90.0,14.0,64.0
2957,67.0,0.0,120.0,10.0,64.0
2958,55.0,0.0,90.0,3.0,64.0
2959,53.0,0.0,90.0,3.0,64.0
2960,41.0,0.0,90.0,14.0,64.0
2961,65.0,0.0,120.0,11.0,64.0
2962,53.0,48.0,120.0,12.0,64.0
2963,77.0,0.0,120.0,0.0,64.0
2964,65.0,0.0,120.0,10.0,64.0
2965,53.0,24.0,90.0,13.0,64.0
2966,64.0,96.0,120.0,10.0,64.0
2967,64.0,0.0,120.0,11.0,64.0
2968,76.0,0.0,120.0,0.0,64.0
2969,52.0,0.0,120.0,12.0,64.0
2970,51.0,0.0,90.0,3.0,64.0
2971,39.0,0.0,90.0,14.0,64.0
2972,51.0,24.0,90.0,13.0,64.0
2973,38.0,0.0,90.0,14.0,64.0
2974,62.0,180.0,90.0,10.0,64.0
2975,50.0,0.0,90.0,3.0,64.0
2976,74.0,0.0,90.0,0.0,64.0
2977,50.0,0.0,90.0,13.0,64.0
2978,62.0,0.0,90.0,11.0,64.0
2979,50.0,0.0,90.0,12.0,64.0
2980,60.0,0.0,390.0,4.0,64.0
2981,72.0,12.0,390.0,1.0,64.0
2982,48.0,0.0,150.0,12.0,64.0
2983,48.0,0.0,150.0,3.0,64.0
2984,72.0,0.0,150.0,0.0,64.0
2985,48.0,162.0,150.0,13.0,64.0
2986,60.0,0.0,390.0,2.0,64.0
2987,36.0,0.0,150.0,14.0,64.0
2988,60.0,0.0,150.0,11.0,64.0
2989,60.0,0.0,150.0,10.0,64.0
2990,64.0,0.0,90.0,10.0,64.0
2991,46.0,42.0,150.0,14.0,64.0
2992,58.0,0.0,150.0,3.0,64.0
2993,52.0,0.0,90.0,12.0,64.0
2994,58.0,0.0,150.0,13.0,64.0
2995,64.0,0.0,90.0,11.0,64.0
2996,76.0,66.0,90.0,0.0,64.0
2997,79.0,0.0,90.0,0.0,64.0
2998,67.0,0.0,90.0,10.0,64.0
2999,55.0,198.0,90.0,12.0,64.0
3000,67.0,0.0,90.0,11.0,64.0
3001,84.0,0.0,150.0,0.0,64.0
3002,60.0,0.0,150.0,12.0,64.0
3003,57.0,240.0,150.0,3.0,64.0
3004,57.0,0.0,150.0,13.0,64.0
3005,72.0,0.0,150.0,11.0,64.0
3006,72.0,0.0,150.0,10.0,64.0
3007,45.0,0.0,150.0,14.0,64.0
3008,41.0,0.0,150.0,14.0,64.0
3009,72.0,0.0,180.0,1.0,64.0
3010,53.0,0.0,150.0,13.0,64.0
3011,57.0,0.0,150.0,12.0,64.0
3012,65.0,0.0,150.0,10.0,64.0
3013,77.0,0.0,150.0,10.0,64.0
3014,65.0,0.0,150.0,11.0,64.0
3015,77.0,36.0,150.0,11.0,64.0
3016,84.0,0.0,150.0,0.0,64.0
3017,53.0,0.0,150.0,3.0,64.0
3018,77.0,0.0,150.0,0.0,64.0
3019,65.0,0.0,180.0,1.0,64.0
3020,60.0,0.0,180.0,4.0,64.0
3021,53.0,204.0,180.0,4.0,64.0
3022,74.0,0.0,180.0,10.0,64.0
3023,65.0,0.0,180.0,10.0,64.0
3024,46.0,36.0,150.0,14.0,64.0
3025,58.0,0.0,180.0,10.0,64.0
3026,65.0,0.0,180.0,1.0,64.0
3027,58.0,0.0,180.0,11.0,64.0
3028,58.0,0.0,150.0,12.0,64.0
3029,58.0,0.0,150.0,3.0,64.0
3030,74.0,0.0,180.0,11.0,64.0
3031,65.0,204.0,180.0,11.0,64.0
3032,74.0,0.0,180.0,0.0,64.0
3033,58.0,0.0,180.0,4.0,64.0
3034,62.0,0.0,180.0,4.0,64.0
3035,58.0,0.0,150.0,13.0,64.0
3036,74.0,0.0,180.0,1.0,64.0
3037,84.0,0.0,180.0,0.0,64.0
3038,55.0,0.0,150.0,3.0,64.0
3039,55.0,240.0,150.0,12.0,64.0
3040,43.0,0.0,150.0,14.0,64.0
3041,55.0,0.0,150.0,13.0,64.0
3042,64.0,204.0,180.0,1.0,64.0
3043,60.0,0.0,150.0,13.0,64.0
3044,72.0,0.0,180.0,10.0,64.0
3045,48.0,0.0,150.0,14.0,64.0
3046,72.0,0.0,180.0,11.0,64.0
3047,67.0,0.0,180.0,11.0,64.0
3048,64.0,0.0,180.0,10.0,64.0
3049,72.0,0.0,180.0,1.0,64.0
3050,67.0,0.0,180.0,10.0,64.0
3051,64.0,0.0,180.0,11.0,64.0
3052,60.0,0.0,150.0,12.0,64.0
3053,60.0,0.0,180.0,4.0,64.0
3054,79.0,0.0,180.0,0.0,64.0
3055,60.0,36.0,150.0,3.0,64.0
3056,76.0,0.0,180.0,0.0,64.0
3057,48.0,0.0,150.0,13.0,64.0
3058,36.0,0.0,150.0,14.0,64.0
3059,48.0,0.0,150.0,12.0,64.0
3060,48.0,180.0,150.0,3.0,64.0
3061,77.0,0.0,90.0,0.0,64.0
3062,41.0,0.0,180.0,6.0,64.0
3063,53.0,0.0,390.0,12.0,64.0
3064,60.0,0.0,390.0,4.0,64.0
3065,72.0,0.0,1920.0,1.0,64.0
3066,41.0,0.0,390.0,14.0,64.0
3067,53.0,0.0,390.0,3.0,64.0
3068,53.0,0.0,480.0,2.0,64.0
3069,69.0,96.0,480.0,1.0,64.0
3070,65.0,0.0,480.0,2.0,64.0
3071,65.0,0.0,180.0,5.0,64.0
3072,72.0,24.0,180.0,5.0,64.0
3073,65.0,96.0,90.0,10.0,64.0
3074,65.0,0.0,390.0,11.0,64.0
3075,53.0,72.0,390.0,4.0,64.0
3076,53.0,0.0,390.0,13.0,64.0
3077,72.0,0.0,90.0,10.0,64.0
3078,72.0,120.0,90.0,0.0,64.0
3079,69.0,48.0,90.0,10.0,64.0
3080,69.0,0.0,90.0,0.0,64.0
3081,65.0,24.0,90.0,10.0,64.0
3082,65.0,0.0,90.0,0.0,64.0
3083,60.0,0.0,480.0,2.0,64.0
3084,70.0,0.0,90.0,0.0,64.0
3085,70.0,120.0,90.0,10.0,64.0
3086,64.0,96.0,240.0,2.0,64.0
3087,67.0,0.0,240.0,1.0,64.0
3088,67.0,0.0,90.0,0.0,64.0
3089,67.0,24.0,90.0,10.0,64.0
3090,76.0,0.0,90.0,10.0,64.0
3091,72.0,0.0,180.0,11.0,64.0
3092,70.0,0.0,180.0,11.0,64.0
3093,67.0,0.0,180.0,12.0,64.0
3094,60.0,0.0,180.0,12.0,64.0
3095,67.0,96.0,240.0,2.0,64.0
3096,48.0,0.0,180.0,3.0,64.0
3097,70.0,0.0,240.0,1.0,64.0
3098,76.0,96.0,90.0,0.0,64.0
3099,60.0,0.0,180.0,4.0,64.0
3100,48.0,0.0,180.0,13.0,64.0
3101,36.0,24.0,180.0,14.0,64.0
3102,72.0,0.0,90.0,10.0,64.0
3103,72.0,24.0,90.0,0.0,64.0
3104,69.0,0.0,390.0,11.0,64.0
3105,60.0,0.0,390.0,4.0,64.0
3106,77.0,96.0,90.0,10.0,64.0
3107,72.0,72.0,390.0,11.0,64.0
3108,53.0,0.0,390.0,4.0,64.0
3109,72.0,24.0,180.0,5.0,64.0
3110,53.0,0.0,390.0,3.0,64.0
3111,53.0,0.0,390.0,13.0,64.0
3112,41.0,0.0,180.0,6.0,64.0
3113,41.0,0.0,390.0,14.0,64.0
3114,65.0,0.0,390.0,12.0,64.0
3115,65.0,0.0,180.0,5.0,64.0
3116,60.0,0.0,390.0,12.0,64.0
3117,65.0,96.0,480.0,2.0,64.0
3118,53.0,0.0,480.0,2.0,64.0
3119,69.0,0.0,480.0,1.0,64.0
3120,77.0,0.0,90.0,0.0,64.0
3121,72.0,120.0,90.0,10.0,64.0
3122,72.0,0.0,90.0,0.0,64.0
3123,69.0,0.0,90.0,0.0,64.0
3124,69.0,48.0,90.0,10.0,64.0
3125,65.0,0.0,90.0,10.0,64.0
3126,65.0,24.0,90.0,0.0,64.0
3127,70.0,120.0,90.0,10.0,64.0
3128,60.0,0.0,480.0,2.0,64.0
3129,64.0,0.0,240.0,2.0,64.0
3130,67.0,96.0,240.0,1.0,64.0
3131,70.0,0.0,90.0,0.0,64.0
3132,67.0,24.0,90.0,10.0,64.0
3133,67.0,0.0,90.0,0.0,64.0
3134,48.0,0.0,180.0,3.0,64.0
3135,60.0,0.0,180.0,12.0,64.0
3136,72.0,0.0,180.0,11.0,64.0
3137,70.0,96.0,240.0,1.0,64.0
3138,60.0,0.0,180.0,4.0,64.0
3139,76.0,96.0,90.0,10.0,64.0
3140,48.0,0.0,180.0,13.0,64.0
3141,67.0,0.0,180.0,12.0,64.0
3142,67.0,0.0,240.0,2.0,64.0
3143,36.0,24.0,180.0,14.0,64.0
3144,70.0,0.0,180.0,11.0,64.0
3145,76.0,0.0,90.0,0.0,64.0
3146,72.0,24.0,90.0,0.0,64.0
3147,72.0,0.0,90.0,10.0,64.0
3148,65.0,0.0,180.0,2.0,64.0
3149,60.0,0.0,390.0,4.0,64.0
3150,53.0,0.0,390.0,4.0,64.0
3151,77.0,96.0,90.0,10.0,64.0
3152,53.0,0.0,390.0,3.0,64.0
3153,53.0,0.0,180.0,2.0,64.0
3154,69.0,0.0,90.0,11.0,64.0
3155,72.0,0.0,90.0,11.0,64.0
3156,65.0,0.0,390.0,12.0,64.0
3157,41.0,0.0,390.0,14.0,64.0
3158,53.0,72.0,390.0,12.0,64.0
3159,65.0,0.0,180.0,5.0,64.0
3160,41.0,0.0,180.0,6.0,64.0
3161,72.0,0.0,180.0,1.0,64.0
3162,69.0,0.0,180.0,1.0,64.0
3163,77.0,24.0,180.0,0.0,64.0
3164,72.0,0.0,180.0,5.0,64.0
3165,53.0,0.0,390.0,13.0,64.0
3166,60.0,0.0,390.0,12.0,64.0
3167,77.0,0.0,90.0,11.0,64.0
3168,77.0,120.0,90.0,10.0,64.0
3169,76.0,48.0,90.0,10.0,64.0
3170,76.0,0.0,90.0,11.0,64.0
3171,74.0,0.0,90.0,11.0,64.0
3172,74.0,120.0,90.0,10.0,64.0
3173,72.0,120.0,90.0,10.0,64.0
3174,72.0,0.0,90.0,11.0,64.0
3175,74.0,120.0,90.0,11.0,64.0
3176,74.0,0.0,90.0,10.0,64.0
3177,70.0,120.0,90.0,10.0,64.0
3178,70.0,0.0,90.0,11.0,64.0
3179,72.0,0.0,90.0,10.0,64.0
3180,72.0,120.0,90.0,11.0,64.0
3181,69.0,120.0,90.0,11.0,64.0
3182,69.0,0.0,90.0,10.0,64.0
3183,74.0,0.0,90.0,10.0,64.0
3184,74.0,120.0,90.0,11.0,64.0
3185,72.0,0.0,90.0,10.0,64.0
3186,72.0,120.0,90.0,11.0,64.0
3187,70.0,0.0,90.0,11.0,64.0
3188,70.0,120.0,90.0,10.0,64.0
3189,69.0,120.0,90.0,10.0,64.0
3190,69.0,0.0,90.0,11.0,64.0
3191,70.0,120.0,90.0,10.0,64.0
3192,70.0,0.0,90.0,11.0,64.0
3193,67.0,120.0,90.0,11.0,64.0
3194,67.0,0.0,90.0,10.0,64.0
3195,69.0,0.0,90.0,11.0,64.0
3196,69.0,102.0,90.0,10.0,64.0
3197,41.0,0.0,390.0,6.0,64.0
3198,53.0,0.0,90.0,13.0,64.0
3199,65.0,0.0,390.0,1.0,64.0
3200,65.0,54.0,390.0,5.0,64.0
3201,65.0,120.0,90.0,10.0,64.0
3202,77.0,0.0,390.0,0.0,64.0
3203,53.0,0.0,390.0,2.0,64.0
3204,53.0,0.0,390.0,4.0,64.0
3205,41.0,0.0,90.0,14.0,64.0
3206,53.0,0.0,90.0,3.0,64.0
3207,65.0,0.0,90.0,12.0,64.0
3208,65.0,0.0,90.0,11.0,64.0
3209,69.0,120.0,90.0,10.0,64.0
3210,57.0,0.0,90.0,13.0,64.0
3211,45.0,0.0,90.0,14.0,64.0
3212,69.0,0.0,90.0,11.0,64.0
3213,57.0,0.0,90.0,3.0,64.0
3214,69.0,0.0,90.0,12.0,64.0
3215,43.0,0.0,90.0,14.0,64.0
3216,55.0,0.0,90.0,13.0,64.0
3217,67.0,0.0,90.0,10.0,64.0
3218,67.0,0.0,90.0,12.0,64.0
3219,55.0,66.0,90.0,3.0,64.0
3220,67.0,0.0,90.0,11.0,64.0
3221,65.0,0.0,90.0,11.0,64.0
3222,41.0,0.0,90.0,14.0,64.0
3223,65.0,0.0,90.0,12.0,64.0
3224,65.0,0.0,90.0,10.0,64.0
3225,53.0,120.0,90.0,13.0,64.0
3226,53.0,0.0,90.0,3.0,64.0
3227,53.0,0.0,150.0,4.0,64.0
3228,64.0,0.0,90.0,11.0,64.0
3229,64.0,0.0,90.0,10.0,64.0
3230,65.0,0.0,150.0,1.0,64.0
3231,52.0,0.0,90.0,13.0,64.0
3232,52.0,0.0,90.0,3.0,64.0
3233,64.0,0.0,90.0,12.0,64.0
3234,77.0,0.0,150.0,0.0,64.0
3235,65.0,0.0,150.0,5.0,64.0
3236,53.0,42.0,150.0,2.0,64.0
3237,40.0,78.0,90.0,14.0,64.0
3238,41.0,0.0,90.0,14.0,64.0
3239,65.0,0.0,90.0,11.0,64.0
3240,53.0,0.0,90.0,13.0,64.0
3241,65.0,120.0,90.0,12.0,64.0
3242,65.0,0.0,90.0,10.0,64.0
3243,53.0,0.0,90.0,3.0,64.0
3244,62.0,0.0,90.0,11.0,64.0
3245,50.0,0.0,90.0,13.0,64.0
3246,65.0,0.0,150.0,1.0,64.0
3247,38.0,0.0,90.0,14.0,64.0
3248,62.0,0.0,90.0,10.0,64.0
3249,77.0,42.0,150.0,0.0,64.0
3250,62.0,18.0,90.0,12.0,64.0
3251,53.0,0.0,150.0,2.0,64.0
3252,41.0,60.0,90.0,6.0,64.0
3253,53.0,0.0,150.0,4.0,64.0
3254,65.0,0.0,150.0,5.0,64.0
3255,50.0,0.0,90.0,3.0,64.0
3256,40.0,0.0,90.0,14.0,64.0
3257,52.0,0.0,90.0,13.0,64.0
3258,64.0,0.0,90.0,12.0,64.0
3259,41.0,102.0,90.0,6.0,64.0
3260,64.0,18.0,90.0,10.0,64.0
3261,64.0,0.0,90.0,11.0,64.0
3262,52.0,0.0,90.0,3.0,64.0
3263,69.0,0.0,390.0,1.0,64.0
3264,41.0,0.0,390.0,6.0,64.0
3265,48.0,0.0,90.0,13.0,64.0
3266,36.0,120.0,90.0,14.0,64.0
3267,65.0,0.0,390.0,5.0,64.0
3268,60.0,0.0,90.0,12.0,64.0
3269,53.0,54.0,390.0,4.0,64.0
3270,57.0,0.0,390.0,2.0,64.0
3271,48.0,0.0,90.0,3.0,64.0
3272,81.0,0.0,390.0,0.0,64.0
3273,60.0,0.0,90.0,11.0,64.0
3274,60.0,0.0,90.0,10.0,64.0
3275,65.0,0.0,90.0,10.0,64.0
3276,65.0,0.0,90.0,12.0,64.0
3277,53.0,0.0,90.0,13.0,64.0
3278,65.0,0.0,90.0,11.0,64.0
3279,53.0,120.0,90.0,3.0,64.0
3280,41.0,0.0,90.0,14.0,64.0
3281,52.0,66.0,90.0,13.0,64.0
3282,40.0,0.0,90.0,14.0,64.0
3283,64.0,0.0,90.0,11.0,64.0
3284,64.0,0.0,90.0,12.0,64.0
3285,64.0,0.0,90.0,10.0,64.0
3286,52.0,0.0,90.0,3.0,64.0
3287,50.0,0.0,90.0,3.0,64.0
3288,62.0,0.0,90.0,10.0,64.0
3289,38.0,120.0,90.0,14.0,64.0
3290,62.0,0.0,90.0,12.0,64.0
3291,62.0,0.0,90.0,11.0,64.0
3292,50.0,0.0,90.0,13.0,64.0
3293,57.0,0.0,150.0,2.0,64.0
3294,60.0,0.0,90.0,11.0,64.0
3295,60.0,0.0,90.0,10.0,64.0
3296,53.0,0.0,150.0,4.0,64.0
3297,48.0,0.0,90.0,3.0,64.0
3298,65.0,42.0,150.0,5.0,64.0
3299,36.0,78.0,90.0,14.0,64.0
3300,69.0,0.0,150.0,1.0,64.0
3301,48.0,0.0,90.0,13.0,64.0
3302,60.0,0.0,90.0,12.0,64.0
3303,81.0,0.0,150.0,0.0,64.0
3304,38.0,0.0,90.0,14.0,64.0
3305,50.0,0.0,90.0,13.0,64.0
3306,62.0,0.0,90.0,11.0,64.0
3307,62.0,120.0,90.0,10.0,64.0
3308,62.0,0.0,90.0,12.0,64.0
3309,50.0,0.0,90.0,3.0,64.0
3310,65.0,0.0,150.0,5.0,64.0
3311,58.0,0.0,90.0,12.0,64.0
3312,69.0,42.0,150.0,1.0,64.0
3313,57.0,0.0,150.0,2.0,64.0
3314,46.0,0.0,90.0,13.0,64.0
3315,58.0,18.0,90.0,11.0,64.0
3316,53.0,0.0,150.0,4.0,64.0
3317,41.0,60.0,90.0,6.0,64.0
3318,81.0,0.0,150.0,0.0,64.0
3319,46.0,0.0,90.0,3.0,64.0
3320,34.0,0.0,90.0,14.0,64.0
3321,58.0,0.0,90.0,10.0,64.0
3322,60.0,0.0,90.0,10.0,64.0
3323,48.0,0.0,90.0,3.0,64.0
3324,36.0,18.0,90.0,14.0,64.0
3325,60.0,0.0,90.0,12.0,64.0
3326,60.0,0.0,90.0,11.0,64.0
3327,41.0,102.0,90.0,6.0,64.0
3328,48.0,0.0,90.0,13.0,64.0
3329,72.0,0.0,390.0,1.0,64.0
3330,84.0,0.0,390.0,0.0,64.0
3331,33.0,0.0,90.0,14.0,64.0
3332,57.0,0.0,90.0,12.0,64.0
3333,57.0,0.0,90.0,10.0,64.0
3334,45.0,0.0,90.0,13.0,64.0
3335,65.0,0.0,390.0,5.0,64.0
3336,41.0,54.0,390.0,6.0,64.0
3337,57.0,0.0,90.0,11.0,64.0
3338,60.0,0.0,390.0,2.0,64.0
3339,45.0,120.0,90.0,3.0,64.0
3340,53.0,0.0,390.0,4.0,64.0
3341,50.0,0.0,90.0,13.0,64.0
3342,38.0,0.0,90.0,14.0,64.0
3343,50.0,0.0,90.0,3.0,64.0
3344,62.0,0.0,90.0,10.0,64.0
3345,62.0,120.0,90.0,12.0,64.0
3346,62.0,0.0,90.0,11.0,64.0
3347,48.0,0.0,90.0,13.0,64.0
3348,60.0,0.0,90.0,10.0,64.0
3349,48.0,0.0,90.0,3.0,64.0
3350,36.0,0.0,90.0,14.0,64.0
3351,60.0,66.0,90.0,11.0,64.0
3352,60.0,0.0,90.0,12.0,64.0
3353,58.0,0.0,90.0,11.0,64.0
3354,34.0,0.0,90.0,14.0,64.0
3355,46.0,0.0,90.0,3.0,64.0
3356,58.0,0.0,90.0,12.0,64.0
3357,58.0,0.0,90.0,10.0,64.0
3358,46.0,120.0,90.0,13.0,64.0
3359,57.0,0.0,90.0,10.0,64.0
3360,57.0,0.0,90.0,12.0,64.0
3361,53.0,0.0,150.0,4.0,64.0
3362,57.0,0.0,90.0,11.0,64.0
3363,33.0,0.0,90.0,14.0,64.0
3364,45.0,78.0,90.0,13.0,64.0
3365,72.0,0.0,150.0,1.0,64.0
3366,45.0,0.0,90.0,3.0,64.0
3367,60.0,0.0,150.0,2.0,64.0
3368,84.0,42.0,150.0,0.0,64.0
3369,65.0,0.0,150.0,5.0,64.0
3370,34.0,120.0,90.0,14.0,64.0
3371,58.0,0.0,90.0,11.0,64.0
3372,46.0,0.0,90.0,3.0,64.0
3373,58.0,0.0,90.0,10.0,64.0
3374,58.0,0.0,90.0,12.0,64.0
3375,46.0,0.0,90.0,13.0,64.0
3376,84.0,42.0,150.0,0.0,64.0
3377,65.0,0.0,150.0,5.0,64.0
3378,43.0,0.0,90.0,13.0,64.0
3379,31.0,0.0,90.0,14.0,64.0
3380,72.0,0.0,150.0,1.0,64.0
3381,41.0,60.0,90.0,6.0,64.0
3382,60.0,0.0,150.0,2.0,64.0
3383,55.0,18.0,90.0,12.0,64.0
3384,53.0,0.0,150.0,4.0,64.0
3385,55.0,0.0,90.0,11.0,64.0
3386,55.0,0.0,90.0,10.0,64.0
3387,43.0,0.0,90.0,3.0,64.0
3388,45.0,0.0,90.0,13.0,64.0
3389,57.0,18.0,90.0,11.0,64.0
3390,57.0,0.0,90.0,10.0,64.0
3391,45.0,0.0,90.0,3.0,64.0
3392,41.0,72.0,90.0,6.0,64.0
3393,57.0,0.0,90.0,12.0,64.0
3394,33.0,0.0,90.0,14.0,64.0
3395,41.0,0.0,90.0,13.0,64.0
3396,29.0,30.0,90.0,14.0,64.0
3397,77.0,0.0,150.0,0.0,64.0
3398,65.0,0.0,150.0,5.0,64.0
3399,53.0,12.0,150.0,4.0,64.0
3400,77.0,0.0,150.0,1.0,64.0
3401,41.0,0.0,90.0,3.0,64.0
3402,53.0,0.0,90.0,11.0,64.0
3403,53.0,0.0,90.0,10.0,64.0
3404,65.0,0.0,150.0,2.0,64.0
3405,53.0,0.0,90.0,12.0,64.0
3406,41.0,30.0,40.0,6.0,64.0
3407,41.0,48.0,40.0,6.0,64.0
3408,41.0,30.0,40.0,6.0,64.0
3409,55.0,30.0,90.0,11.0,64.0
3410,43.0,0.0,90.0,3.0,64.0
3411,55.0,0.0,90.0,10.0,64.0
3412,31.0,0.0,90.0,14.0,64.0
3413,43.0,0.0,90.0,13.0,64.0
3414,55.0,0.0,90.0,12.0,64.0
3415,41.0,60.0,40.0,6.0,64.0
3416,33.0,0.0,90.0,14.0,64.0
3417,84.0,0.0,150.0,0.0,64.0
3418,45.0,0.0,90.0,13.0,64.0
3419,72.0,12.0,150.0,1.0,64.0
3420,45.0,0.0,90.0,3.0,64.0
3421,60.0,0.0,150.0,2.0,64.0
3422,41.0,30.0,40.0,6.0,64.0
3423,57.0,30.0,90.0,11.0,64.0
3424,57.0,0.0,90.0,12.0,64.0
3425,57.0,0.0,90.0,10.0,64.0
3426,60.0,0.0,150.0,4.0,64.0
3427,41.0,48.0,40.0,6.0,64.0
3428,55.0,0.0,90.0,10.0,64.0
3429,41.0,30.0,40.0,6.0,64.0
3430,31.0,0.0,90.0,14.0,64.0
3431,43.0,0.0,90.0,13.0,64.0
3432,55.0,0.0,90.0,11.0,64.0
3433,55.0,30.0,90.0,12.0,64.0
3434,43.0,0.0,90.0,3.0,64.0
3435,41.0,60.0,40.0,6.0,64.0
3436,77.0,0.0,150.0,0.0,64.0
3437,41.0,30.0,40.0,6.0,64.0
3438,53.0,0.0,150.0,4.0,64.0
3439,53.0,30.0,90.0,12.0,64.0
3440,41.0,0.0,90.0,13.0,64.0
3441,53.0,0.0,90.0,10.0,64.0
3442,53.0,0.0,90.0,11.0,64.0
3443,41.0,0.0,90.0,3.0,64.0
3444,77.0,0.0,150.0,1.0,64.0
3445,65.0,12.0,150.0,2.0,64.0
3446,65.0,0.0,150.0,5.0,64.0
3447,29.0,0.0,90.0,14.0,64.0
3448,41.0,48.0,40.0,6.0,64.0
3449,55.0,0.0,90.0,10.0,64.0
3450,43.0,0.0,90.0,3.0,64.0
3451,31.0,0.0,90.0,14.0,64.0
3452,43.0,30.0,90.0,13.0,64.0
3453,55.0,0.0,90.0,12.0,64.0
3454,41.0,30.0,40.0,6.0,64.0
3455,55.0,0.0,90.0,11.0,64.0
3456,41.0,60.0,40.0,6.0,64.0
3457,45.0,0.0,90.0,13.0,64.0
3458,60.0,0.0,150.0,2.0,64.0
3459,57.0,0.0,90.0,12.0,64.0
3460,45.0,0.0,90.0,3.0,64.0
3461,41.0,30.0,40.0,6.0,64.0
3462,57.0,0.0,90.0,11.0,64.0
3463,84.0,12.0,150.0,0.0,64.0
3464,72.0,0.0,150.0,1.0,64.0
3465,57.0,30.0,90.0,10.0,64.0
3466,33.0,0.0,90.0,14.0,64.0
3467,60.0,0.0,150.0,4.0,64.0
3468,41.0,48.0,40.0,6.0,64.0
3469,43.0,0.0,90.0,3.0,64.0
3470,55.0,0.0,90.0,10.0,64.0
3471,41.0,30.0,40.0,6.0,64.0
3472,55.0,0.0,90.0,12.0,64.0
3473,31.0,0.0,90.0,14.0,64.0
3474,55.0,0.0,90.0,11.0,64.0
3475,43.0,30.0,90.0,13.0,64.0
3476,41.0,204.0,40.0,6.0,64.0
3477,53.0,0.0,300.0,4.0,64.0
3478,65.0,0.0,300.0,2.0,64.0
3479,53.0,0.0,300.0,10.0,64.0
3480,77.0,0.0,300.0,1.0,64.0
3481,65.0,0.0,300.0,5.0,64.0
3482,77.0,0.0,300.0,0.0,64.0
3483,53.0,360.0,300.0,11.0,64.0
3484,41.0,120.0,180.0,6.0,64.0
3485,53.0,0.0,300.0,12.0,64.0
3486,41.0,0.0,300.0,3.0,64.0
3487,29.0,0.0,300.0,14.0,64.0
3488,41.0,0.0,300.0,13.0,64.0
3489,53.0,0.0,300.0,13.0,64.0
3490,77.0,0.0,300.0,1.0,64.0
3491,41.0,0.0,300.0,14.0,64.0
3492,60.0,0.0,300.0,11.0,64.0
3493,65.0,0.0,300.0,5.0,64.0
3494,69.0,0.0,300.0,11.0,64.0
3495,69.0,552.0,300.0,10.0,64.0
3496,77.0,0.0,300.0,0.0,64.0
3497,53.0,0.0,300.0,4.0,64.0
3498,77.0,0.0,300.0,11.0,64.0
3499,53.0,0.0,300.0,3.0,64.0
3500,72.0,0.0,300.0,1.0,64.0
3501,41.0,120.0,180.0,6.0,64.0
3502,65.0,0.0,300.0,12.0,64.0
3503,69.0,0.0,300.0,2.0,64.0
3504,77.0,0.0,300.0,10.0,64.0
3505,65.0,0.0,300.0,2.0,64.0
3506,60.0,0.0,300.0,10.0,64.0
3507,53.0,0.0,390.0,10.0,64.0
3508,41.0,0.0,390.0,3.0,64.0
3509,53.0,0.0,390.0,12.0,64.0
3510,41.0,0.0,390.0,6.0,64.0
3511,69.0,0.0,390.0,2.0,64.0
3512,65.0,0.0,390.0,2.0,64.0
3513,53.0,0.0,390.0,4.0,64.0
3514,29.0,0.0,390.0,14.0,64.0
3515,53.0,0.0,390.0,11.0,64.0
3516,41.0,0.0,390.0,13.0,64.0
3517,72.0,0.0,390.0,1.0,64.0
3518,65.0,0.0,390.0,5.0,64.0
3519,77.0,1344.0,390.0,0.0,64.0
3520,77.0,0.0,390.0,1.0,64.0
3521,72.0,960.0,780.0,10.0,64.0
3522,77.0,312.0,780.0,10.0,64.0
3523,76.0,120.0,120.0,10.0,64.0
3524,60.0,72.0,780.0,11.0,64.0
3525,77.0,120.0,120.0,10.0,64.0
3526,74.0,120.0,120.0,10.0,64.0
3527,76.0,120.0,120.0,10.0,64.0
3528,72.0,120.0,120.0,10.0,64.0
3529,74.0,48.0,120.0,10.0,64.0
3530,70.0,96.0,120.0,10.0,64.0
3531,72.0,144.0,90.0,10.0,64.0
3532,69.0,120.0,120.0,10.0,64.0
3533,53.0,0.0,780.0,4.0,64.0
3534,65.0,72.0,780.0,11.0,64.0
3535,70.0,120.0,120.0,10.0,64.0
3536,72.0,96.0,120.0,10.0,64.0
3537,69.0,144.0,90.0,10.0,64.0
3538,74.0,168.0,120.0,10.0,64.0
3539,74.0,240.0,120.0,10.0,64.0
3540,60.0,0.0,780.0,4.0,64.0
3541,64.0,120.0,120.0,11.0,64.0
3542,72.0,0.0,120.0,10.0,64.0
3543,72.0,72.0,780.0,1.0,64.0
3544,74.0,0.0,120.0,10.0,64.0
3545,65.0,120.0,120.0,11.0,64.0
3546,62.0,0.0,120.0,11.0,64.0
3547,70.0,120.0,120.0,10.0,64.0
3548,64.0,0.0,120.0,11.0,64.0
3549,72.0,120.0,120.0,10.0,64.0
3550,69.0,120.0,120.0,10.0,64.0
3551,60.0,0.0,120.0,11.0,64.0
3552,62.0,0.0,120.0,11.0,64.0
3553,70.0,48.0,120.0,10.0,64.0
3554,58.0,0.0,120.0,11.0,64.0
3555,67.0,96.0,120.0,10.0,64.0
3556,60.0,0.0,90.0,11.0,64.0
3557,69.0,144.0,90.0,10.0,64.0
3558,65.0,72.0,390.0,4.0,64.0
3559,65.0,0.0,120.0,10.0,64.0
3560,57.0,120.0,120.0,11.0,64.0
3561,77.0,72.0,780.0,1.0,64.0
3562,67.0,0.0,120.0,10.0,64.0
3563,58.0,120.0,120.0,11.0,64.0
3564,60.0,24.0,120.0,11.0,64.0
3565,69.0,0.0,120.0,10.0,64.0
3566,65.0,0.0,90.0,10.0,64.0
3567,57.0,144.0,90.0,11.0,64.0
3568,62.0,168.0,120.0,11.0,64.0
3569,70.0,0.0,120.0,10.0,64.0
3570,70.0,240.0,120.0,10.0,64.0
3571,62.0,0.0,120.0,11.0,64.0
3572,77.0,72.0,780.0,0.0,64.0
3573,60.0,0.0,120.0,11.0,64.0
3574,69.0,120.0,120.0,10.0,64.0
3575,62.0,120.0,120.0,11.0,64.0
3576,70.0,0.0,120.0,10.0,64.0
3577,67.0,96.0,120.0,10.0,64.0
3578,58.0,0.0,120.0,11.0,64.0
3579,60.0,24.0,90.0,11.0,64.0
3580,69.0,120.0,120.0,10.0,64.0
3581,57.0,72.0,390.0,11.0,64.0
3582,65.0,120.0,120.0,10.0,64.0
3583,67.0,48.0,120.0,10.0,64.0
3584,63.0,24.0,120.0,10.0,64.0
3585,65.0,144.0,90.0,10.0,64.0
3586,82.0,0.0,780.0,0.0,64.0
3587,62.0,120.0,120.0,10.0,64.0
3588,58.0,48.0,720.0,11.0,64.0
3589,46.0,48.0,780.0,3.0,64.0
3590,63.0,120.0,120.0,10.0,64.0
3591,65.0,96.0,120.0,10.0,64.0
3592,62.0,120.0,90.0,10.0,64.0
3593,67.0,144.0,90.0,10.0,64.0
3594,51.0,168.0,180.0,11.0,64.0
3595,67.0,96.0,90.0,10.0,64.0
3596,81.0,120.0,120.0,0.0,64.0
3597,53.0,0.0,780.0,3.0,64.0
3598,65.0,0.0,780.0,2.0,64.0
3599,53.0,72.0,780.0,2.0,64.0
3600,65.0,0.0,120.0,10.0,64.0
3601,53.0,48.0,720.0,11.0,64.0
3602,67.0,120.0,120.0,10.0,64.0
3603,82.0,0.0,120.0,0.0,64.0
3604,63.0,0.0,120.0,10.0,64.0
3605,79.0,120.0,120.0,0.0,64.0
3606,65.0,0.0,120.0,10.0,64.0
3607,81.0,120.0,120.0,0.0,64.0
3608,77.0,0.0,120.0,0.0,64.0
3609,62.0,120.0,120.0,10.0,64.0
3610,79.0,0.0,120.0,0.0,64.0
3611,63.0,0.0,120.0,10.0,64.0
3612,75.0,0.0,120.0,0.0,64.0
3613,60.0,72.0,120.0,10.0,64.0
3614,57.0,24.0,180.0,11.0,64.0
3615,77.0,120.0,90.0,0.0,64.0
3616,62.0,0.0,90.0,10.0,64.0
3617,74.0,96.0,120.0,0.0,64.0
3618,58.0,72.0,390.0,10.0,64.0
3619,70.0,48.0,780.0,2.0,64.0
3620,58.0,24.0,90.0,11.0,64.0
3621,58.0,0.0,780.0,2.0,64.0
3622,60.0,24.0,90.0,11.0,64.0
3623,75.0,96.0,120.0,0.0,64.0
3624,77.0,24.0,120.0,0.0,64.0
3625,62.0,24.0,90.0,11.0,64.0
3626,58.0,0.0,90.0,11.0,64.0
3627,74.0,120.0,90.0,0.0,64.0
3628,79.0,0.0,90.0,0.0,64.0
3629,74.0,0.0,90.0,10.0,64.0
3630,70.0,192.0,90.0,11.0,64.0
3631,74.0,264.0,90.0,10.0,64.0
3632,79.0,0.0,90.0,0.0,64.0
3633,70.0,0.0,90.0,11.0,64.0
3634,69.0,0.0,240.0,11.0,64.0
3635,78.0,120.0,120.0,0.0,64.0
3636,62.0,72.0,780.0,12.0,64.0
3637,72.0,120.0,240.0,10.0,64.0
3638,79.0,0.0,120.0,0.0,64.0
3639,76.0,120.0,120.0,0.0,64.0
3640,70.0,120.0,240.0,10.0,64.0
3641,67.0,0.0,240.0,11.0,64.0
3642,78.0,0.0,120.0,0.0,64.0
3643,74.0,120.0,120.0,0.0,64.0
3644,66.0,0.0,390.0,11.0,64.0
3645,69.0,72.0,390.0,10.0,64.0
3646,75.0,48.0,120.0,0.0,64.0
3647,72.0,24.0,120.0,0.0,64.0
3648,74.0,144.0,90.0,0.0,64.0
3649,67.0,72.0,390.0,11.0,64.0
3650,67.0,48.0,780.0,12.0,64.0
3651,70.0,120.0,120.0,0.0,64.0
3652,43.0,0.0,780.0,3.0,64.0
3653,67.0,0.0,120.0,10.0,64.0
3654,72.0,0.0,120.0,0.0,64.0
3655,69.0,120.0,120.0,10.0,64.0
3656,74.0,24.0,120.0,0.0,64.0
3657,70.0,0.0,120.0,10.0,64.0
3658,67.0,0.0,90.0,10.0,64.0
3659,70.0,120.0,90.0,0.0,64.0
3660,58.0,144.0,150.0,10.0,64.0
3661,75.0,48.0,90.0,0.0,64.0
3662,75.0,48.0,90.0,0.0,64.0
3663,70.0,216.0,150.0,10.0,64.0
3664,50.0,0.0,780.0,3.0,64.0
3665,66.0,120.0,120.0,12.0,64.0
3666,74.0,72.0,780.0,0.0,64.0
3667,69.0,0.0,240.0,10.0,64.0
3668,67.0,120.0,120.0,12.0,64.0
3669,67.0,0.0,240.0,10.0,64.0
3670,64.0,120.0,120.0,12.0,64.0
3671,66.0,120.0,120.0,12.0,64.0
3672,66.0,48.0,240.0,10.0,64.0
3673,62.0,120.0,120.0,12.0,64.0
3674,63.0,0.0,120.0,12.0,64.0
3675,63.0,120.0,240.0,10.0,64.0
3676,60.0,96.0,120.0,12.0,64.0
3677,62.0,24.0,90.0,12.0,64.0
3678,58.0,120.0,120.0,12.0,64.0
3679,55.0,72.0,390.0,3.0,64.0
3680,62.0,96.0,480.0,10.0,64.0
3681,79.0,48.0,780.0,0.0,64.0
3682,60.0,120.0,120.0,12.0,64.0
3683,62.0,24.0,120.0,12.0,64.0
3684,58.0,24.0,90.0,12.0,64.0
3685,58.0,132.0,150.0,10.0,64.0
3686,63.0,60.0,90.0,12.0,64.0
3687,63.0,60.0,90.0,12.0,64.0
3688,67.0,204.0,150.0,10.0,64.0
3689,62.0,0.0,120.0,12.0,64.0
3690,70.0,72.0,780.0,1.0,64.0
3691,65.0,120.0,120.0,10.0,64.0
3692,63.0,120.0,120.0,12.0,64.0
3693,67.0,0.0,120.0,10.0,64.0
3694,60.0,0.0,120.0,12.0,64.0
3695,63.0,120.0,120.0,10.0,64.0
3696,62.0,0.0,120.0,12.0,64.0
3697,65.0,120.0,120.0,10.0,64.0
3698,58.0,0.0,120.0,12.0,64.0
3699,62.0,120.0,120.0,10.0,64.0
3700,60.0,0.0,120.0,12.0,64.0
3701,63.0,48.0,120.0,10.0,64.0
3702,56.0,0.0,120.0,12.0,64.0
3703,60.0,96.0,120.0,10.0,64.0
3704,58.0,0.0,90.0,12.0,64.0
3705,62.0,144.0,90.0,10.0,64.0
3706,55.0,120.0,120.0,12.0,64.0
3707,58.0,72.0,390.0,10.0,64.0
3708,75.0,48.0,780.0,1.0,64.0
3709,39.0,0.0,780.0,3.0,64.0
3710,63.0,120.0,600.0,11.0,64.0
3711,56.0,120.0,120.0,12.0,64.0
3712,58.0,24.0,120.0,12.0,64.0
3713,55.0,120.0,90.0,12.0,64.0
3714,60.0,24.0,90.0,12.0,64.0
3715,65.0,48.0,120.0,11.0,64.0
3716,67.0,96.0,120.0,11.0,64.0
3717,60.0,24.0,90.0,12.0,64.0
3718,69.0,144.0,90.0,11.0,64.0
3719,46.0,0.0,780.0,3.0,64.0
3720,58.0,72.0,780.0,12.0,64.0
3721,74.0,120.0,120.0,1.0,64.0
3722,70.0,0.0,120.0,11.0,64.0
3723,58.0,0.0,930.0,1.0,64.0
3724,75.0,0.0,120.0,1.0,64.0
3725,72.0,120.0,120.0,11.0,64.0
3726,72.0,0.0,120.0,1.0,64.0
3727,68.0,120.0,120.0,11.0,64.0
3728,70.0,0.0,120.0,11.0,64.0
3729,74.0,120.0,120.0,1.0,64.0
3730,67.0,0.0,120.0,11.0,64.0
3731,70.0,120.0,120.0,1.0,64.0
3732,68.0,0.0,120.0,11.0,64.0
3733,72.0,48.0,120.0,1.0,64.0
3734,65.0,0.0,120.0,11.0,64.0
3735,68.0,96.0,120.0,1.0,64.0
3736,67.0,144.0,90.0,11.0,64.0
3737,70.0,0.0,90.0,1.0,64.0
3738,63.0,48.0,780.0,11.0,64.0
3739,51.0,120.0,120.0,10.0,64.0
3740,51.0,72.0,390.0,3.0,64.0
3741,67.0,0.0,120.0,1.0,64.0
3742,63.0,144.0,930.0,1.0,64.0
3743,53.0,0.0,120.0,10.0,64.0
3744,68.0,120.0,120.0,1.0,64.0
3745,55.0,24.0,120.0,10.0,64.0
3746,70.0,0.0,120.0,1.0,64.0
3747,67.0,0.0,90.0,1.0,64.0
3748,51.0,120.0,90.0,10.0,64.0
3749,72.0,0.0,90.0,1.0,64.0
3750,67.0,192.0,90.0,10.0,64.0
3751,67.0,0.0,90.0,10.0,64.0
3752,72.0,120.0,90.0,1.0,64.0
3753,55.0,72.0,780.0,12.0,64.0
3754,67.0,0.0,240.0,10.0,64.0
3755,55.0,0.0,780.0,13.0,64.0
3756,62.0,120.0,240.0,11.0,64.0
3757,70.0,120.0,120.0,1.0,64.0
3758,72.0,0.0,120.0,1.0,64.0
3759,62.0,48.0,180.0,10.0,64.0
3760,68.0,72.0,120.0,1.0,64.0
3761,60.0,0.0,240.0,11.0,64.0
3762,70.0,120.0,120.0,1.0,64.0
3763,58.0,72.0,390.0,11.0,64.0
3764,67.0,120.0,120.0,1.0,64.0
3765,62.0,48.0,660.0,10.0,64.0
3766,68.0,48.0,120.0,1.0,64.0
3767,65.0,24.0,120.0,1.0,64.0
3768,67.0,144.0,90.0,1.0,64.0
3769,48.0,48.0,780.0,3.0,64.0
3770,60.0,0.0,780.0,13.0,64.0
3771,63.0,72.0,120.0,1.0,64.0
3772,72.0,0.0,780.0,0.0,64.0
3773,60.0,0.0,780.0,12.0,64.0
3774,65.0,96.0,120.0,1.0,64.0
3775,67.0,96.0,120.0,1.0,64.0
3776,60.0,24.0,90.0,10.0,64.0
3777,63.0,120.0,90.0,1.0,64.0
3778,59.0,0.0,90.0,10.0,64.0
3779,68.0,96.0,90.0,1.0,64.0
3780,60.0,96.0,180.0,10.0,64.0
3781,63.0,168.0,180.0,10.0,64.0
3782,68.0,96.0,90.0,1.0,64.0
3783,62.0,120.0,120.0,12.0,64.0
3784,59.0,0.0,120.0,13.0,64.0
3785,67.0,0.0,390.0,1.0,64.0
3786,79.0,48.0,780.0,0.0,64.0
3787,62.0,72.0,390.0,10.0,64.0
3788,55.0,0.0,780.0,3.0,64.0
3789,67.0,0.0,780.0,11.0,64.0
3790,60.0,120.0,120.0,13.0,64.0
3791,63.0,0.0,120.0,12.0,64.0
3792,60.0,0.0,120.0,12.0,64.0
3793,57.0,24.0,120.0,13.0,64.0
3794,59.0,96.0,120.0,13.0,64.0
3795,62.0,24.0,90.0,12.0,64.0
3796,55.0,120.0,120.0,13.0,64.0
3797,59.0,24.0,90.0,12.0,64.0
3798,56.0,48.0,120.0,13.0,64.0
3799,62.0,24.0,90.0,12.0,64.0
3800,53.0,96.0,120.0,13.0,64.0
3801,55.0,144.0,90.0,13.0,64.0
3802,51.0,120.0,120.0,13.0,64.0
3803,72.0,0.0,780.0,10.0,64.0
3804,60.0,0.0,780.0,2.0,64.0
3805,72.0,48.0,780.0,11.0,64.0
3806,60.0,0.0,390.0,3.0,64.0
3807,60.0,72.0,390.0,12.0,64.0
3808,53.0,120.0,120.0,13.0,64.0
3809,55.0,24.0,120.0,13.0,64.0
3810,51.0,120.0,90.0,13.0,64.0
3811,56.0,192.0,90.0,13.0,64.0
3812,56.0,264.0,90.0,13.0,64.0
3813,67.0,0.0,780.0,2.0,64.0
3814,55.0,72.0,780.0,12.0,64.0
3815,55.0,0.0,120.0,13.0,64.0
3816,79.0,0.0,780.0,0.0,64.0
3817,67.0,0.0,780.0,0.0,64.0
3818,79.0,48.0,720.0,10.0,64.0
3819,71.0,120.0,120.0,11.0,64.0
3820,56.0,120.0,120.0,13.0,64.0
3821,72.0,0.0,120.0,11.0,64.0
3822,68.0,0.0,120.0,11.0,64.0
3823,53.0,120.0,120.0,13.0,64.0
3824,70.0,120.0,120.0,11.0,64.0
3825,55.0,0.0,120.0,13.0,64.0
3826,51.0,120.0,120.0,13.0,64.0
3827,67.0,0.0,120.0,11.0,64.0
3828,68.0,0.0,120.0,11.0,64.0
3829,53.0,0.0,120.0,13.0,64.0
3830,71.0,24.0,180.0,10.0,64.0
3831,50.0,72.0,120.0,13.0,64.0
3832,65.0,0.0,120.0,11.0,64.0
3833,53.0,264.0,90.0,13.0,64.0
3834,68.0,0.0,90.0,11.0,64.0
3835,72.0,48.0,780.0,1.0,64.0
3836,60.0,0.0,780.0,1.0,64.0
3837,51.0,192.0,240.0,13.0,64.0
3838,51.0,0.0,240.0,3.0,64.0
3839,67.0,0.0,240.0,11.0,64.0
3840,72.0,0.0,240.0,10.0,64.0
3841,72.0,0.0,780.0,0.0,64.0
3842,84.0,0.0,780.0,0.0,64.0
3843,60.0,144.0,570.0,12.0,64.0
3844,65.0,96.0,240.0,11.0,64.0
3845,74.0,48.0,180.0,10.0,64.0
3846,50.0,0.0,240.0,13.0,64.0
3847,50.0,0.0,240.0,3.0,64.0
3848,48.0,0.0,240.0,3.0,64.0
3849,75.0,0.0,960.0,10.0,64.0
3850,63.0,0.0,240.0,11.0,64.0
3851,48.0,48.0,240.0,13.0,64.0
3852,46.0,24.0,180.0,13.0,64.0
3853,46.0,0.0,180.0,3.0,64.0
3854,62.0,96.0,90.0,12.0,64.0
3855,62.0,0.0,180.0,11.0,64.0
3856,63.0,504.0,90.0,12.0,64.0
3857,63.0,0.0,480.0,11.0,64.0
3858,45.0,0.0,480.0,3.0,64.0
3859,65.0,96.0,780.0,1.0,64.0
3860,45.0,288.0,480.0,13.0,64.0
3861,77.0,0.0,780.0,1.0,64.0
3862,46.0,0.0,450.0,13.0,64.0
3863,65.0,0.0,15.0,12.0,64.0
3864,74.0,0.0,450.0,10.0,64.0
3865,46.0,72.0,390.0,3.0,64.0
3866,58.0,0.0,450.0,11.0,64.0
3867,72.0,0.0,480.0,10.0,64.0
3868,51.0,0.0,480.0,3.0,64.0
3869,72.0,0.0,480.0,1.0,64.0
3870,75.0,0.0,480.0,1.0,64.0
3871,67.0,96.0,780.0,11.0,64.0
3872,63.0,288.0,480.0,12.0,64.0
3873,51.0,0.0,480.0,13.0,64.0
3874,52.0,288.0,390.0,3.0,64.0
3875,70.0,0.0,390.0,10.0,64.0
3876,62.0,0.0,390.0,12.0,64.0
3877,70.0,0.0,390.0,1.0,64.0
3878,52.0,0.0,390.0,13.0,64.0
3879,74.0,0.0,390.0,1.0,64.0
3880,41.0,0.0,390.0,6.0,64.0
3881,53.0,0.0,390.0,5.0,64.0
3882,41.0,0.0,390.0,4.0,64.0
3883,77.0,96.0,780.0,10.0,64.0
3884,53.0,192.0,180.0,13.0,64.0
3885,65.0,0.0,390.0,5.0,64.0
3886,53.0,0.0,390.0,4.0,64.0
3887,65.0,0.0,390.0,11.0,64.0
3888,60.0,0.0,390.0,2.0,64.0
3889,69.0,0.0,390.0,1.0,64.0
3890,41.0,0.0,180.0,14.0,64.0
3891,57.0,0.0,390.0,2.0,64.0
3892,53.0,0.0,180.0,3.0,64.0
3893,60.0,0.0,390.0,12.0,64.0
3894,77.0,0.0,390.0,0.0,64.0
3895,72.0,240.0,390.0,1.0,64.0
3896,53.0,0.0,150.0,4.0,64.0
3897,41.0,0.0,150.0,4.0,64.0
3898,65.0,0.0,150.0,5.0,64.0
3899,53.0,0.0,150.0,5.0,64.0
3900,77.0,144.0,150.0,0.0,64.0
3901,57.0,0.0,150.0,2.0,64.0
3902,72.0,0.0,150.0,1.0,64.0
3903,69.0,0.0,150.0,1.0,64.0
3904,60.0,0.0,150.0,2.0,64.0
3905,53.0,0.0,150.0,4.0,64.0
3906,41.0,0.0,150.0,4.0,64.0
3907,65.0,0.0,150.0,5.0,64.0
3908,53.0,0.0,150.0,5.0,64.0
3909,72.0,0.0,150.0,1.0,64.0
3910,69.0,0.0,150.0,1.0,64.0
3911,60.0,0.0,150.0,2.0,64.0
3912,57.0,0.0,150.0,2.0,64.0
3913,77.0,480.0,150.0,0.0,64.0
3914,53.0,0.0,390.0,5.0,64.0
3915,53.0,240.0,390.0,4.0,64.0
3916,65.0,0.0,390.0,5.0,64.0
3917,73.0,0.0,390.0,1.0,64.0
3918,77.0,0.0,390.0,0.0,64.0
3919,70.0,0.0,390.0,1.0,64.0
3920,58.0,0.0,390.0,2.0,64.0
3921,82.0,96.0,780.0,10.0,64.0
3922,41.0,0.0,390.0,4.0,64.0
3923,61.0,0.0,390.0,2.0,64.0
3924,70.0,0.0,150.0,1.0,64.0
3925,77.0,144.0,150.0,0.0,64.0
3926,73.0,0.0,150.0,1.0,64.0
3927,41.0,0.0,150.0,4.0,64.0
3928,53.0,0.0,150.0,4.0,64.0
3929,58.0,0.0,150.0,2.0,64.0
3930,53.0,0.0,150.0,5.0,64.0
3931,65.0,0.0,150.0,5.0,64.0
3932,61.0,0.0,150.0,2.0,64.0
3933,70.0,0.0,150.0,1.0,64.0
3934,73.0,0.0,150.0,1.0,64.0
3935,61.0,0.0,150.0,2.0,64.0
3936,41.0,0.0,150.0,4.0,64.0
3937,77.0,0.0,150.0,0.0,64.0
3938,65.0,216.0,150.0,5.0,64.0
3939,58.0,0.0,150.0,2.0,64.0
3940,53.0,0.0,150.0,5.0,64.0
3941,53.0,0.0,150.0,4.0,64.0
3942,53.0,48.0,180.0,3.0,64.0
3943,53.0,0.0,180.0,13.0,64.0
3944,77.0,0.0,390.0,0.0,64.0
3945,60.0,96.0,390.0,2.0,64.0
3946,57.0,0.0,390.0,2.0,64.0
3947,41.0,0.0,390.0,6.0,64.0
3948,65.0,0.0,780.0,11.0,64.0
3949,41.0,0.0,180.0,14.0,64.0
3950,41.0,0.0,390.0,4.0,64.0
3951,69.0,0.0,390.0,1.0,64.0
3952,65.0,0.0,390.0,5.0,64.0
3953,53.0,72.0,780.0,12.0,64.0
3954,53.0,0.0,390.0,4.0,64.0
3955,53.0,0.0,390.0,5.0,64.0
3956,72.0,0.0,390.0,1.0,64.0
3957,81.0,72.0,120.0,10.0,64.0
3958,82.0,120.0,120.0,10.0,64.0
3959,79.0,24.0,120.0,10.0,64.0
3960,81.0,120.0,120.0,10.0,64.0
3961,53.0,0.0,150.0,5.0,64.0
3962,65.0,96.0,150.0,5.0,64.0
3963,57.0,0.0,150.0,2.0,64.0
3964,53.0,0.0,150.0,4.0,64.0
3965,60.0,0.0,150.0,2.0,64.0
3966,77.0,0.0,150.0,0.0,64.0
3967,69.0,0.0,150.0,1.0,64.0
3968,77.0,24.0,120.0,10.0,64.0
3969,41.0,0.0,150.0,4.0,64.0
3970,72.0,0.0,150.0,1.0,64.0
3971,78.0,48.0,120.0,10.0,64.0
3972,53.0,0.0,150.0,5.0,64.0
3973,65.0,0.0,150.0,5.0,64.0
3974,57.0,0.0,150.0,2.0,64.0
3975,60.0,0.0,150.0,2.0,64.0
3976,77.0,0.0,150.0,0.0,64.0
3977,72.0,0.0,150.0,1.0,64.0
3978,75.0,24.0,120.0,10.0,64.0
3979,41.0,72.0,150.0,4.0,64.0
3980,69.0,0.0,150.0,1.0,64.0
3981,53.0,0.0,150.0,4.0,64.0
3982,77.0,144.0,90.0,10.0,64.0
3983,61.0,0.0,390.0,2.0,64.0
3984,58.0,72.0,780.0,12.0,64.0
3985,65.0,0.0,390.0,5.0,64.0
3986,70.0,0.0,390.0,1.0,64.0
3987,53.0,0.0,390.0,5.0,64.0
3988,53.0,96.0,390.0,4.0,64.0
3989,73.0,120.0,120.0,10.0,64.0
3990,41.0,0.0,390.0,4.0,64.0
3991,73.0,0.0,390.0,1.0,64.0
3992,58.0,0.0,390.0,2.0,64.0
3993,70.0,0.0,780.0,11.0,64.0
3994,77.0,0.0,390.0,0.0,64.0
3995,75.0,120.0,120.0,10.0,64.0
3996,72.0,24.0,120.0,10.0,64.0
3997,73.0,120.0,120.0,10.0,64.0
3998,77.0,0.0,150.0,0.0,64.0
3999,73.0,0.0,150.0,1.0,64.0
4000,70.0,0.0,150.0,1.0,64.0
4001,41.0,0.0,150.0,4.0,64.0
4002,70.0,24.0,120.0,10.0,64.0
4003,58.0,0.0,150.0,2.0,64.0
4004,53.0,96.0,150.0,5.0,64.0
4005,65.0,0.0,150.0,5.0,64.0
4006,53.0,0.0,150.0,4.0,64.0
4007,61.0,0.0,150.0,2.0,64.0
4008,73.0,48.0,120.0,10.0,64.0
4009,65.0,0.0,150.0,5.0,64.0
4010,73.0,72.0,150.0,1.0,64.0
4011,53.0,0.0,150.0,4.0,64.0
4012,41.0,0.0,150.0,4.0,64.0
4013,53.0,0.0,150.0,5.0,64.0
4014,72.0,24.0,120.0,10.0,64.0
4015,70.0,0.0,150.0,1.0,64.0
4016,61.0,0.0,150.0,2.0,64.0
4017,58.0,0.0,150.0,2.0,64.0
4018,77.0,0.0,150.0,0.0,64.0
4019,70.0,120.0,90.0,10.0,64.0
4020,41.0,0.0,780.0,14.0,64.0
4021,57.0,0.0,90.0,12.0,64.0
4022,57.0,0.0,390.0,2.0,64.0
4023,77.0,0.0,390.0,0.0,64.0
4024,69.0,144.0,90.0,11.0,64.0
4025,77.0,0.0,780.0,10.0,64.0
4026,53.0,0.0,780.0,3.0,64.0
4027,69.0,0.0,390.0,1.0,64.0
4028,41.0,0.0,390.0,4.0,64.0
4029,53.0,0.0,390.0,4.0,64.0
4030,65.0,0.0,390.0,5.0,64.0
4031,53.0,0.0,390.0,5.0,64.0
4032,60.0,96.0,390.0,2.0,64.0
4033,53.0,72.0,780.0,13.0,64.0
4034,72.0,0.0,390.0,1.0,64.0
4035,41.0,0.0,390.0,6.0,64.0
4036,58.0,0.0,120.0,12.0,64.0
4037,70.0,120.0,120.0,11.0,64.0
4038,55.0,24.0,120.0,12.0,64.0
4039,67.0,0.0,120.0,11.0,64.0
4040,69.0,0.0,120.0,11.0,64.0
4041,57.0,120.0,120.0,12.0,64.0
4042,72.0,0.0,150.0,1.0,64.0
4043,60.0,0.0,150.0,2.0,64.0
4044,53.0,0.0,150.0,5.0,64.0
4045,65.0,0.0,150.0,5.0,64.0
4046,65.0,24.0,120.0,11.0,64.0
4047,69.0,0.0,150.0,1.0,64.0
4048,57.0,0.0,150.0,2.0,64.0
4049,41.0,0.0,150.0,4.0,64.0
4050,53.0,0.0,120.0,12.0,64.0
4051,77.0,0.0,150.0,0.0,64.0
4052,53.0,96.0,150.0,4.0,64.0
4053,66.0,48.0,120.0,11.0,64.0
4054,54.0,0.0,120.0,12.0,64.0
4055,51.0,0.0,120.0,12.0,64.0
4056,72.0,0.0,150.0,1.0,64.0
4057,53.0,72.0,150.0,4.0,64.0
4058,41.0,0.0,150.0,4.0,64.0
4059,57.0,0.0,150.0,2.0,64.0
4060,63.0,24.0,120.0,11.0,64.0
4061,53.0,0.0,150.0,5.0,64.0
4062,77.0,0.0,150.0,0.0,64.0
4063,65.0,0.0,150.0,5.0,64.0
4064,60.0,0.0,150.0,2.0,64.0
4065,69.0,0.0,150.0,1.0,64.0
4066,53.0,0.0,90.0,12.0,64.0
4067,65.0,144.0,90.0,11.0,64.0
4068,65.0,0.0,390.0,5.0,64.0
4069,49.0,120.0,120.0,12.0,64.0
4070,61.0,0.0,390.0,2.0,64.0
4071,58.0,0.0,390.0,2.0,64.0
4072,53.0,0.0,390.0,5.0,64.0
4073,58.0,0.0,780.0,3.0,64.0
4074,82.0,0.0,780.0,10.0,64.0
4075,70.0,0.0,390.0,1.0,64.0
4076,58.0,24.0,780.0,13.0,64.0
4077,53.0,0.0,390.0,4.0,64.0
4078,46.0,0.0,390.0,6.0,64.0
4079,77.0,96.0,390.0,0.0,64.0
4080,61.0,0.0,120.0,11.0,64.0
4081,46.0,0.0,780.0,14.0,64.0
4082,41.0,0.0,390.0,4.0,64.0
4083,73.0,0.0,390.0,1.0,64.0
4084,63.0,120.0,120.0,11.0,64.0
4085,51.0,0.0,120.0,12.0,64.0
4086,60.0,0.0,120.0,11.0,64.0
4087,48.0,24.0,120.0,12.0,64.0
4088,49.0,0.0,120.0,12.0,64.0
4089,61.0,72.0,120.0,11.0,64.0
4090,41.0,0.0,150.0,4.0,64.0
4091,53.0,0.0,150.0,4.0,64.0
4092,46.0,0.0,60.0,12.0,64.0
4093,77.0,0.0,150.0,0.0,64.0
4094,70.0,0.0,150.0,1.0,64.0
4095,65.0,0.0,150.0,5.0,64.0
4096,73.0,0.0,150.0,1.0,64.0
4097,61.0,0.0,150.0,2.0,64.0
4098,58.0,48.0,150.0,2.0,64.0
4099,58.0,72.0,60.0,11.0,64.0
4100,53.0,0.0,150.0,5.0,64.0
4101,61.0,96.0,60.0,12.0,64.0
4102,73.0,0.0,60.0,11.0,64.0
4103,77.0,0.0,150.0,0.0,64.0
4104,70.0,0.0,150.0,1.0,64.0
4105,73.0,0.0,150.0,1.0,64.0
4106,72.0,72.0,60.0,11.0,64.0
4107,60.0,0.0,60.0,12.0,64.0
4108,41.0,48.0,150.0,4.0,64.0
4109,53.0,0.0,150.0,4.0,64.0
4110,58.0,0.0,150.0,2.0,64.0
4111,61.0,0.0,150.0,2.0,64.0
4112,65.0,0.0,150.0,5.0,64.0
4113,53.0,0.0,150.0,5.0,64.0
4114,70.0,0.0,60.0,11.0,64.0
4115,58.0,168.0,60.0,12.0,64.0
4116,53.0,0.0,390.0,4.0,64.0
4117,41.0,0.0,390.0,4.0,64.0
4118,41.0,0.0,390.0,6.0,64.0
4119,45.0,120.0,120.0,14.0,64.0
4120,69.0,0.0,120.0,11.0,64.0
4121,57.0,0.0,120.0,12.0,64.0
4122,60.0,96.0,390.0,2.0,64.0
4123,57.0,0.0,390.0,2.0,64.0
4124,65.0,0.0,390.0,5.0,64.0
4125,77.0,0.0,390.0,0.0,64.0
4126,57.0,0.0,120.0,13.0,64.0
4127,53.0,0.0,390.0,5.0,64.0
4128,81.0,0.0,120.0,10.0,64.0
4129,57.0,0.0,120.0,3.0,64.0
4130,72.0,0.0,390.0,1.0,64.0
4131,69.0,0.0,390.0,1.0,64.0
4132,82.0,0.0,120.0,10.0,64.0
4133,58.0,0.0,120.0,3.0,64.0
4134,70.0,120.0,120.0,11.0,64.0
4135,58.0,0.0,120.0,13.0,64.0
4136,58.0,0.0,120.0,12.0,64.0
4137,46.0,0.0,120.0,14.0,64.0
4138,55.0,0.0,120.0,12.0,64.0
4139,55.0,0.0,120.0,3.0,64.0
4140,79.0,24.0,120.0,10.0,64.0
4141,67.0,0.0,120.0,11.0,64.0
4142,43.0,0.0,120.0,14.0,64.0
4143,55.0,0.0,120.0,13.0,64.0
4144,57.0,120.0,120.0,13.0,64.0
4145,69.0,0.0,120.0,11.0,64.0
4146,81.0,0.0,120.0,10.0,64.0
4147,45.0,0.0,120.0,14.0,64.0
4148,57.0,0.0,120.0,12.0,64.0
4149,57.0,0.0,120.0,3.0,64.0
4150,53.0,0.0,120.0,3.0,64.0
4151,65.0,0.0,120.0,11.0,64.0
4152,57.0,96.0,150.0,2.0,64.0
4153,60.0,0.0,150.0,2.0,64.0
4154,53.0,0.0,120.0,12.0,64.0
4155,77.0,24.0,120.0,10.0,64.0
4156,53.0,0.0,150.0,4.0,64.0
4157,41.0,0.0,150.0,4.0,64.0
4158,53.0,0.0,150.0,5.0,64.0
4159,65.0,0.0,150.0,5.0,64.0
4160,72.0,0.0,150.0,1.0,64.0
4161,69.0,0.0,150.0,1.0,64.0
4162,41.0,0.0,120.0,14.0,64.0
4163,53.0,0.0,120.0,13.0,64.0
4164,77.0,0.0,150.0,0.0,64.0
4165,42.0,0.0,120.0,14.0,64.0
4166,54.0,0.0,120.0,12.0,64.0
4167,66.0,0.0,120.0,11.0,64.0
4168,54.0,0.0,120.0,13.0,64.0
4169,78.0,96.0,120.0,10.0,64.0
4170,54.0,0.0,120.0,3.0,64.0
4171,69.0,0.0,150.0,1.0,64.0
4172,41.0,24.0,90.0,6.0,64.0
4173,53.0,0.0,150.0,5.0,64.0
4174,39.0,24.0,120.0,14.0,64.0
4175,72.0,0.0,150.0,1.0,64.0
4176,65.0,0.0,150.0,5.0,64.0
4177,41.0,0.0,150.0,4.0,64.0
4178,77.0,72.0,150.0,0.0,64.0
4179,60.0,0.0,150.0,2.0,64.0
4180,57.0,0.0,150.0,2.0,64.0
4181,51.0,0.0,120.0,13.0,64.0
4182,51.0,0.0,120.0,12.0,64.0
4183,63.0,0.0,120.0,11.0,64.0
4184,75.0,0.0,120.0,10.0,64.0
4185,53.0,0.0,150.0,4.0,64.0
4186,51.0,0.0,120.0,3.0,64.0
4187,53.0,0.0,90.0,13.0,64.0
4188,53.0,0.0,90.0,12.0,64.0
4189,53.0,0.0,90.0,3.0,64.0
4190,65.0,144.0,90.0,11.0,64.0
4191,77.0,0.0,90.0,10.0,64.0
4192,41.0,0.0,90.0,14.0,64.0
4193,41.0,0.0,90.0,6.0,64.0
4194,73.0,0.0,390.0,1.0,64.0
4195,58.0,0.0,390.0,2.0,64.0
4196,61.0,0.0,390.0,2.0,64.0
4197,41.0,0.0,390.0,4.0,64.0
4198,53.0,0.0,390.0,4.0,64.0
4199,73.0,0.0,120.0,10.0,64.0
4200,61.0,0.0,120.0,11.0,64.0
4201,70.0,0.0,390.0,1.0,64.0
4202,49.0,120.0,120.0,13.0,64.0
4203,65.0,0.0,390.0,5.0,64.0
4204,77.0,0.0,390.0,0.0,64.0
4205,49.0,0.0,120.0,3.0,64.0
4206,49.0,0.0,120.0,12.0,64.0
4207,53.0,96.0,390.0,5.0,64.0
4208,46.0,0.0,390.0,6.0,64.0
4209,37.0,0.0,120.0,14.0,64.0
4210,39.0,0.0,120.0,14.0,64.0
4211,51.0,0.0,120.0,13.0,64.0
4212,51.0,120.0,120.0,3.0,64.0
4213,63.0,0.0,120.0,11.0,64.0
4214,75.0,0.0,120.0,10.0,64.0
4215,51.0,0.0,120.0,12.0,64.0
4216,72.0,0.0,120.0,10.0,64.0
4217,48.0,0.0,120.0,12.0,64.0
4218,36.0,0.0,120.0,14.0,64.0
4219,48.0,0.0,120.0,3.0,64.0
4220,60.0,24.0,120.0,11.0,64.0
4221,48.0,0.0,120.0,13.0,64.0
4222,49.0,0.0,120.0,13.0,64.0
4223,49.0,0.0,120.0,12.0,64.0
4224,49.0,0.0,120.0,3.0,64.0
4225,61.0,120.0,120.0,11.0,64.0
4226,37.0,0.0,120.0,14.0,64.0
4227,73.0,0.0,120.0,10.0,64.0
4228,53.0,0.0,150.0,4.0,64.0
4229,70.0,0.0,120.0,10.0,64.0
4230,77.0,0.0,150.0,0.0,64.0
4231,46.0,24.0,120.0,3.0,64.0
4232,65.0,96.0,150.0,5.0,64.0
4233,53.0,0.0,150.0,5.0,64.0
4234,46.0,0.0,120.0,12.0,64.0
4235,34.0,0.0,120.0,14.0,64.0
4236,41.0,0.0,150.0,4.0,64.0
4237,58.0,0.0,150.0,2.0,64.0
4238,61.0,0.0,150.0,2.0,64.0
4239,46.0,0.0,120.0,13.0,64.0
4240,73.0,0.0,150.0,1.0,64.0
4241,70.0,0.0,150.0,1.0,64.0
4242,58.0,0.0,120.0,11.0,64.0
4243,61.0,0.0,120.0,11.0,64.0
4244,73.0,0.0,120.0,10.0,64.0
4245,37.0,0.0,120.0,14.0,64.0
4246,49.0,0.0,120.0,13.0,64.0
4247,49.0,96.0,120.0,12.0,64.0
4248,49.0,0.0,120.0,3.0,64.0
4249,53.0,72.0,150.0,5.0,64.0
4250,65.0,0.0,150.0,5.0,64.0
4251,48.0,24.0,120.0,13.0,64.0
4252,72.0,0.0,120.0,10.0,64.0
4253,53.0,0.0,150.0,4.0,64.0
4254,70.0,0.0,150.0,1.0,64.0
4255,73.0,0.0,150.0,1.0,64.0
4256,46.0,24.0,90.0,6.0,64.0
4257,48.0,0.0,120.0,3.0,64.0
4258,60.0,0.0,120.0,11.0,64.0
4259,36.0,0.0,120.0,14.0,64.0
4260,77.0,0.0,150.0,0.0,64.0
4261,58.0,0.0,150.0,2.0,64.0
4262,61.0,0.0,150.0,2.0,64.0
4263,41.0,0.0,150.0,4.0,64.0
4264,48.0,0.0,120.0,12.0,64.0
4265,46.0,0.0,90.0,6.0,64.0
4266,34.0,0.0,90.0,14.0,64.0
4267,46.0,0.0,90.0,13.0,64.0
4268,46.0,180.0,90.0,12.0,64.0
4269,58.0,0.0,90.0,11.0,64.0
4270,70.0,0.0,90.0,10.0,64.0
4271,46.0,0.0,90.0,3.0,64.0
4272,41.0,204.0,180.0,6.0,64.0
4273,41.0,0.0,150.0,4.0,64.0
4274,77.0,0.0,150.0,10.0,64.0
4275,53.0,0.0,150.0,4.0,64.0
4276,53.0,0.0,150.0,12.0,64.0
4277,65.0,0.0,150.0,11.0,64.0
4278,60.0,0.0,150.0,2.0,64.0
4279,57.0,0.0,150.0,2.0,64.0
4280,69.0,0.0,150.0,1.0,64.0
4281,72.0,36.0,150.0,1.0,64.0
4282,53.0,0.0,150.0,5.0,64.0
4283,41.0,0.0,150.0,14.0,64.0
4284,65.0,0.0,150.0,5.0,64.0
4285,53.0,0.0,150.0,3.0,64.0
4286,53.0,0.0,150.0,13.0,64.0
4287,77.0,108.0,3660.0,0.0,64.0
4288,69.0,240.0,150.0,11.0,64.0
4289,77.0,0.0,150.0,10.0,64.0
4290,72.0,0.0,150.0,11.0,64.0
4291,65.0,0.0,150.0,12.0,64.0
4292,65.0,0.0,150.0,10.0,64.0
4293,46.0,0.0,150.0,14.0,64.0
4294,58.0,0.0,150.0,2.0,64.0
4295,58.0,0.0,150.0,3.0,64.0
4296,73.0,0.0,150.0,1.0,64.0
4297,58.0,0.0,150.0,13.0,64.0
4298,53.0,0.0,150.0,5.0,64.0
4299,61.0,0.0,150.0,2.0,64.0
4300,65.0,240.0,150.0,5.0,64.0
4301,53.0,0.0,150.0,4.0,64.0
4302,41.0,0.0,150.0,4.0,64.0
4303,70.0,0.0,150.0,1.0,64.0
4304,77.0,0.0,150.0,10.0,64.0
4305,65.0,240.0,150.0,10.0,64.0
4306,73.0,0.0,150.0,11.0,64.0
4307,70.0,0.0,150.0,11.0,64.0
4308,70.0,0.0,150.0,12.0,64.0
4309,65.0,0.0,150.0,5.0,64.0
4310,41.0,0.0,150.0,4.0,64.0
4311,53.0,0.0,150.0,5.0,64.0
4312,45.0,0.0,150.0,14.0,64.0
4313,53.0,240.0,150.0,4.0,64.0
4314,72.0,0.0,150.0,1.0,64.0
4315,60.0,0.0,150.0,2.0,64.0
4316,57.0,0.0,150.0,3.0,64.0
4317,63.0,0.0,150.0,2.0,64.0
4318,57.0,0.0,150.0,13.0,64.0
4319,75.0,0.0,150.0,1.0,64.0
4320,75.0,0.0,150.0,11.0,64.0
4321,72.0,240.0,150.0,11.0,64.0
4322,65.0,0.0,150.0,10.0,64.0
4323,69.0,0.0,150.0,12.0,64.0
4324,77.0,0.0,150.0,10.0,64.0
4325,58.0,0.0,150.0,13.0,64.0
4326,53.0,0.0,150.0,5.0,64.0
4327,46.0,240.0,150.0,14.0,64.0
4328,65.0,0.0,150.0,5.0,64.0
4329,53.0,0.0,150.0,4.0,64.0
4330,70.0,0.0,150.0,1.0,64.0
4331,41.0,0.0,150.0,4.0,64.0
4332,58.0,0.0,150.0,3.0,64.0
4333,61.0,0.0,150.0,2.0,64.0
4334,73.0,0.0,150.0,1.0,64.0
4335,58.0,0.0,150.0,2.0,64.0
4336,70.0,240.0,150.0,12.0,64.0
4337,73.0,0.0,150.0,11.0,64.0
4338,65.0,0.0,150.0,10.0,64.0
4339,77.0,0.0,150.0,10.0,64.0
4340,70.0,0.0,150.0,11.0,64.0
4341,41.0,0.0,150.0,14.0,64.0
4342,41.0,204.0,180.0,6.0,64.0
4343,53.0,0.0,150.0,4.0,64.0
4344,41.0,0.0,150.0,4.0,64.0
4345,65.0,0.0,150.0,5.0,64.0
4346,69.0,0.0,150.0,1.0,64.0
4347,53.0,0.0,150.0,13.0,64.0
4348,53.0,0.0,150.0,5.0,64.0
4349,72.0,0.0,150.0,1.0,64.0
4350,57.0,36.0,150.0,2.0,64.0
4351,60.0,0.0,150.0,2.0,64.0
4352,53.0,0.0,150.0,3.0,64.0
4353,72.0,0.0,150.0,11.0,64.0
4354,65.0,0.0,150.0,12.0,64.0
4355,69.0,0.0,150.0,11.0,64.0
4356,65.0,0.0,150.0,10.0,64.0
4357,77.0,240.0,150.0,10.0,64.0
4358,58.0,0.0,150.0,2.0,64.0
4359,58.0,0.0,150.0,3.0,64.0
4360,53.0,0.0,150.0,5.0,64.0
4361,58.0,0.0,150.0,13.0,64.0
4362,61.0,0.0,150.0,2.0,64.0
4363,53.0,0.0,150.0,4.0,64.0
4364,41.0,0.0,150.0,4.0,64.0
4365,73.0,0.0,150.0,1.0,64.0
4366,70.0,0.0,150.0,1.0,64.0
4367,46.0,0.0,150.0,14.0,64.0
4368,65.0,240.0,150.0,5.0,64.0
4369,65.0,0.0,150.0,10.0,64.0
4370,77.0,0.0,150.0,10.0,64.0
4371,70.0,0.0,150.0,11.0,64.0
4372,73.0,0.0,150.0,11.0,64.0
4373,70.0,240.0,150.0,12.0,64.0
4374,60.0,0.0,150.0,2.0,64.0
4375,63.0,0.0,150.0,2.0,64.0
4376,45.0,240.0,150.0,14.0,64.0
4377,53.0,0.0,150.0,5.0,64.0
4378,65.0,0.0,150.0,5.0,64.0
4379,75.0,0.0,150.0,1.0,64.0
4380,57.0,0.0,150.0,3.0,64.0
4381,57.0,0.0,150.0,13.0,64.0
4382,72.0,0.0,150.0,1.0,64.0
4383,41.0,0.0,150.0,4.0,64.0
4384,53.0,0.0,150.0,4.0,64.0
4385,77.0,240.0,150.0,10.0,64.0
4386,65.0,0.0,150.0,10.0,64.0
4387,69.0,0.0,150.0,12.0,64.0
4388,75.0,0.0,150.0,11.0,64.0
4389,72.0,0.0,150.0,11.0,64.0
4390,46.0,0.0,150.0,14.0,64.0
4391,73.0,0.0,150.0,1.0,64.0
4392,53.0,0.0,150.0,4.0,64.0
4393,58.0,0.0,150.0,3.0,64.0
4394,70.0,0.0,150.0,1.0,64.0
4395,41.0,132.0,150.0,4.0,64.0
4396,65.0,0.0,150.0,5.0,64.0
4397,53.0,0.0,150.0,5.0,64.0
4398,58.0,0.0,150.0,2.0,64.0
4399,58.0,0.0,150.0,13.0,64.0
4400,61.0,0.0,150.0,2.0,64.0
4401,70.0,0.0,150.0,11.0,64.0
4402,73.0,0.0,150.0,11.0,64.0
4403,77.0,0.0,150.0,10.0,64.0
4404,70.0,0.0,150.0,12.0,64.0
4405,65.0,324.0,150.0,10.0,64.0
4406,65.0,96.0,240.0,11.0,64.0
4407,53.0,288.0,1860.0,4.0,64.0
4408,41.0,0.0,1860.0,4.0,64.0
4409,69.0,0.0,1860.0,1.0,64.0
4410,72.0,0.0,1860.0,1.0,64.0
4411,77.0,0.0,240.0,10.0,64.0
4412,66.0,204.0,90.0,11.0,64.0
4413,78.0,0.0,90.0,10.0,64.0
4414,69.0,60.0,60.0,11.0,64.0
4415,81.0,0.0,60.0,10.0,64.0
4416,79.0,60.0,60.0,10.0,64.0
4417,67.0,0.0,60.0,11.0,64.0
4418,69.0,60.0,60.0,11.0,64.0
4419,81.0,0.0,60.0,10.0,64.0
4420,67.0,96.0,60.0,11.0,64.0
4421,79.0,0.0,60.0,10.0,64.0
4422,77.0,0.0,90.0,10.0,64.0
4423,65.0,384.0,90.0,11.0,64.0
4424,75.0,96.0,240.0,10.0,64.0
4425,63.0,0.0,240.0,11.0,64.0
4426,62.0,0.0,90.0,11.0,64.0
4427,74.0,204.0,90.0,10.0,64.0
4428,62.0,60.0,60.0,11.0,64.0
4429,74.0,0.0,60.0,10.0,64.0
4430,60.0,60.0,60.0,11.0,64.0
4431,72.0,0.0,60.0,10.0,64.0
4432,74.0,0.0,60.0,10.0,64.0
4433,62.0,60.0,60.0,11.0,64.0
4434,60.0,96.0,60.0,11.0,64.0
4435,72.0,0.0,60.0,10.0,64.0
4436,70.0,0.0,90.0,10.0,64.0
4437,58.0,96.0,90.0,11.0,64.0
4438,69.0,0.0,1860.0,1.0,64.0
4439,72.0,0.0,1860.0,1.0,64.0
4440,53.0,0.0,1860.0,4.0,64.0
4441,81.0,0.0,1860.0,0.0,64.0
4442,75.0,0.0,1860.0,0.0,64.0
4443,41.0,144.0,1860.0,4.0,64.0
4444,69.0,0.0,240.0,10.0,64.0
4445,57.0,96.0,240.0,11.0,64.0
4446,55.0,0.0,90.0,11.0,64.0
4447,67.0,204.0,90.0,10.0,64.0
4448,55.0,0.0,60.0,11.0,64.0
4449,67.0,60.0,60.0,10.0,64.0
4450,65.0,60.0,60.0,10.0,64.0
4451,53.0,0.0,60.0,11.0,64.0
4452,55.0,60.0,60.0,11.0,64.0
4453,67.0,0.0,60.0,10.0,64.0
4454,65.0,96.0,60.0,10.0,64.0
4455,53.0,0.0,60.0,11.0,64.0
4456,64.0,0.0,90.0,10.0,64.0
4457,52.0,216.0,90.0,11.0,64.0
4458,51.0,0.0,60.0,11.0,64.0
4459,63.0,240.0,60.0,10.0,64.0
4460,62.0,240.0,60.0,10.0,64.0
4461,62.0,0.0,60.0,11.0,64.0
4462,63.0,0.0,60.0,10.0,64.0
4463,63.0,240.0,60.0,11.0,64.0
4464,60.0,0.0,60.0,10.0,64.0
4465,60.0,120.0,60.0,11.0,64.0
4466,70.0,0.0,180.0,1.0,64.0
4467,58.0,96.0,90.0,11.0,64.0
4468,74.0,0.0,180.0,0.0,64.0
4469,82.0,0.0,180.0,0.0,64.0
4470,74.0,0.0,180.0,1.0,64.0
4471,46.0,24.0,180.0,4.0,64.0
4472,58.0,0.0,180.0,10.0,64.0
4473,57.0,120.0,90.0,11.0,64.0
4474,58.0,120.0,90.0,11.0,64.0
4475,60.0,120.0,90.0,11.0,64.0
4476,62.0,120.0,90.0,11.0,64.0
4477,60.0,120.0,90.0,11.0,64.0
4478,62.0,120.0,90.0,11.0,64.0
4479,77.0,96.0,480.0,10.0,64.0
4480,60.0,120.0,90.0,11.0,64.0
4481,58.0,120.0,90.0,11.0,64.0
4482,57.0,24.0,90.0,11.0,64.0
4483,58.0,96.0,90.0,11.0,64.0
4484,74.0,24.0,180.0,10.0,64.0
4485,60.0,120.0,90.0,11.0,64.0
4486,62.0,120.0,90.0,11.0,64.0
4487,60.0,120.0,90.0,11.0,64.0
4488,62.0,120.0,90.0,11.0,64.0
4489,70.0,96.0,480.0,10.0,64.0
4490,58.0,120.0,90.0,11.0,64.0
4491,60.0,120.0,90.0,11.0,64.0
4492,59.0,24.0,90.0,11.0,64.0
4493,60.0,96.0,90.0,11.0,64.0
4494,69.0,24.0,180.0,10.0,64.0
4495,62.0,120.0,90.0,11.0,64.0
4496,63.0,120.0,90.0,11.0,64.0
4497,62.0,120.0,90.0,11.0,64.0
4498,63.0,120.0,90.0,11.0,64.0
4499,77.0,96.0,480.0,10.0,64.0
4500,62.0,120.0,90.0,11.0,64.0
4501,60.0,120.0,90.0,11.0,64.0
4502,59.0,24.0,90.0,11.0,64.0
4503,75.0,24.0,180.0,10.0,64.0
4504,60.0,96.0,90.0,11.0,64.0
4505,62.0,120.0,90.0,11.0,64.0
4506,63.0,120.0,90.0,11.0,64.0
4507,62.0,120.0,90.0,11.0,64.0
4508,63.0,120.0,90.0,11.0,64.0
4509,72.0,96.0,480.0,10.0,64.0
4510,60.0,120.0,90.0,11.0,64.0
4511,62.0,120.0,90.0,11.0,64.0
4512,60.0,24.0,90.0,11.0,64.0
4513,62.0,96.0,90.0,11.0,64.0
4514,70.0,24.0,180.0,10.0,64.0
4515,63.0,120.0,90.0,11.0,64.0
4516,65.0,120.0,90.0,11.0,64.0
4517,63.0,120.0,90.0,11.0,64.0
4518,65.0,120.0,90.0,11.0,64.0
4519,82.0,96.0,480.0,10.0,64.0
4520,63.0,120.0,90.0,11.0,64.0
4521,62.0,120.0,90.0,11.0,64.0
4522,63.0,24.0,90.0,11.0,64.0
4523,77.0,24.0,180.0,10.0,64.0
4524,65.0,96.0,90.0,11.0,64.0
4525,67.0,120.0,90.0,11.0,64.0
4526,68.0,120.0,90.0,11.0,64.0
4527,67.0,120.0,90.0,11.0,64.0
4528,74.0,96.0,240.0,10.0,64.0
4529,68.0,120.0,90.0,11.0,64.0
4530,65.0,24.0,90.0,11.0,64.0
4531,75.0,60.0,150.0,10.0,64.0
4532,67.0,60.0,90.0,11.0,64.0
4533,65.0,84.0,90.0,11.0,64.0
4534,79.0,36.0,60.0,10.0,64.0
4535,63.0,24.0,90.0,11.0,64.0
4536,77.0,60.0,60.0,10.0,64.0
4537,79.0,36.0,60.0,10.0,64.0
4538,62.0,12.0,90.0,11.0,64.0
4539,77.0,108.0,40.0,10.0,64.0
4540,63.0,96.0,90.0,11.0,64.0
4541,79.0,24.0,180.0,10.0,64.0
4542,65.0,120.0,90.0,11.0,64.0
4543,67.0,120.0,90.0,11.0,64.0
4544,69.0,84.0,90.0,11.0,64.0
4545,79.0,96.0,60.0,10.0,64.0
4546,70.0,21.0,150.0,11.0,64.0
4547,77.0,141.0,120.0,10.0,64.0
4548,67.0,42.0,150.0,11.0,64.0
4549,75.0,78.0,90.0,10.0,64.0
4550,74.0,102.0,90.0,10.0,64.0
4551,74.0,96.0,60.0,10.0,64.0
4552,63.0,21.0,150.0,11.0,64.0
4553,72.0,141.0,120.0,10.0,64.0
4554,70.0,78.0,90.0,10.0,64.0
4555,65.0,42.0,150.0,11.0,64.0
4556,69.0,138.0,90.0,10.0,64.0
4557,46.0,0.0,390.0,4.0,64.0
4558,58.0,0.0,390.0,5.0,64.0
4559,70.0,0.0,90.0,11.0,64.0
4560,58.0,0.0,90.0,3.0,64.0
4561,70.0,0.0,390.0,1.0,64.0
4562,70.0,0.0,390.0,0.0,64.0
4563,46.0,0.0,390.0,6.0,64.0
4564,58.0,120.0,90.0,12.0,64.0
4565,70.0,0.0,90.0,10.0,64.0
4566,46.0,0.0,90.0,14.0,64.0
4567,58.0,72.0,390.0,2.0,64.0
4568,58.0,0.0,90.0,13.0,64.0
4569,74.0,0.0,90.0,11.0,64.0
4570,62.0,120.0,90.0,13.0,64.0
4571,62.0,0.0,90.0,12.0,64.0
4572,74.0,0.0,90.0,10.0,64.0
4573,62.0,0.0,90.0,3.0,64.0
4574,50.0,0.0,90.0,14.0,64.0
4575,48.0,0.0,90.0,14.0,64.0
4576,72.0,0.0,90.0,11.0,64.0
4577,72.0,0.0,90.0,10.0,64.0
4578,60.0,0.0,90.0,3.0,64.0
4579,60.0,48.0,90.0,12.0,64.0
4580,60.0,0.0,90.0,13.0,64.0
4581,70.0,120.0,90.0,10.0,64.0
4582,70.0,0.0,90.0,11.0,64.0
4583,58.0,0.0,90.0,13.0,64.0
4584,46.0,0.0,90.0,14.0,64.0
4585,58.0,0.0,90.0,12.0,64.0
4586,58.0,0.0,90.0,3.0,64.0
4587,57.0,0.0,90.0,12.0,64.0
4588,45.0,0.0,90.0,14.0,64.0
4589,69.0,48.0,90.0,11.0,64.0
4590,46.0,0.0,150.0,4.0,64.0
4591,57.0,0.0,90.0,13.0,64.0
4592,58.0,0.0,150.0,2.0,64.0
4593,70.0,0.0,150.0,1.0,64.0
4594,57.0,0.0,90.0,3.0,64.0
4595,69.0,0.0,90.0,10.0,64.0
4596,70.0,72.0,150.0,0.0,64.0
4597,58.0,0.0,150.0,5.0,64.0
4598,70.0,0.0,90.0,10.0,64.0
4599,70.0,0.0,90.0,11.0,64.0
4600,58.0,0.0,90.0,12.0,64.0
4601,46.0,0.0,90.0,14.0,64.0
4602,58.0,0.0,90.0,3.0,64.0
4603,58.0,120.0,90.0,13.0,64.0
4604,55.0,0.0,90.0,3.0,64.0
4605,55.0,48.0,90.0,13.0,64.0
4606,67.0,0.0,90.0,11.0,64.0
4607,67.0,0.0,90.0,10.0,64.0
4608,58.0,72.0,150.0,5.0,64.0
4609,70.0,0.0,150.0,0.0,64.0
4610,58.0,0.0,150.0,2.0,64.0
4611,46.0,0.0,90.0,6.0,64.0
4612,43.0,0.0,90.0,14.0,64.0
4613,70.0,0.0,150.0,1.0,64.0
4614,55.0,0.0,90.0,12.0,64.0
4615,46.0,0.0,150.0,4.0,64.0
4616,57.0,0.0,90.0,13.0,64.0
4617,45.0,0.0,90.0,14.0,64.0
4618,46.0,0.0,90.0,6.0,64.0
4619,57.0,0.0,90.0,3.0,64.0
4620,69.0,0.0,90.0,11.0,64.0
4621,69.0,120.0,90.0,10.0,64.0
4622,57.0,0.0,90.0,12.0,64.0
4623,53.0,120.0,90.0,13.0,64.0
4624,74.0,0.0,390.0,1.0,64.0
4625,53.0,0.0,90.0,3.0,64.0
4626,65.0,0.0,90.0,11.0,64.0
4627,50.0,0.0,390.0,4.0,64.0
4628,65.0,0.0,90.0,10.0,64.0
4629,46.0,0.0,390.0,6.0,64.0
4630,62.0,72.0,390.0,2.0,64.0
4631,53.0,0.0,90.0,12.0,64.0
4632,74.0,0.0,390.0,0.0,64.0
4633,41.0,0.0,90.0,14.0,64.0
4634,62.0,0.0,390.0,5.0,64.0
4635,70.0,0.0,90.0,10.0,64.0
4636,58.0,0.0,90.0,12.0,64.0
4637,58.0,120.0,90.0,13.0,64.0
4638,58.0,0.0,90.0,3.0,64.0
4639,46.0,0.0,90.0,14.0,64.0
4640,70.0,0.0,90.0,11.0,64.0
4641,57.0,0.0,90.0,13.0,64.0
4642,57.0,48.0,90.0,12.0,64.0
4643,45.0,0.0,90.0,14.0,64.0
4644,69.0,0.0,90.0,11.0,64.0
4645,69.0,0.0,90.0,10.0,64.0
4646,57.0,0.0,90.0,3.0,64.0
4647,43.0,0.0,90.0,14.0,64.0
4648,67.0,120.0,90.0,10.0,64.0
4649,55.0,0.0,90.0,12.0,64.0
4650,55.0,0.0,90.0,3.0,64.0
4651,55.0,0.0,90.0,13.0,64.0
4652,67.0,0.0,90.0,11.0,64.0
4653,74.0,0.0,150.0,1.0,64.0
4654,62.0,72.0,150.0,2.0,64.0
4655,53.0,0.0,90.0,13.0,64.0
4656,41.0,48.0,90.0,14.0,64.0
4657,53.0,0.0,90.0,12.0,64.0
4658,65.0,0.0,90.0,11.0,64.0
4659,74.0,0.0,150.0,0.0,64.0
4660,50.0,0.0,150.0,4.0,64.0
4661,65.0,0.0,90.0,10.0,64.0
4662,62.0,0.0,150.0,5.0,64.0
4663,53.0,0.0,90.0,3.0,64.0
4664,55.0,0.0,90.0,12.0,64.0
4665,67.0,0.0,90.0,11.0,64.0
4666,55.0,0.0,90.0,13.0,64.0
4667,55.0,120.0,90.0,3.0,64.0
4668,67.0,0.0,90.0,10.0,64.0
4669,43.0,0.0,90.0,14.0,64.0
4670,74.0,72.0,150.0,0.0,64.0
4671,63.0,0.0,90.0,10.0,64.0
4672,51.0,48.0,90.0,12.0,64.0
4673,51.0,0.0,90.0,3.0,64.0
4674,39.0,0.0,90.0,14.0,64.0
4675,46.0,0.0,90.0,6.0,64.0
4676,62.0,0.0,150.0,2.0,64.0
4677,50.0,0.0,150.0,4.0,64.0
4678,51.0,0.0,90.0,13.0,64.0
4679,74.0,0.0,150.0,1.0,64.0
4680,62.0,0.0,150.0,5.0,64.0
4681,63.0,0.0,90.0,11.0,64.0
4682,53.0,0.0,90.0,3.0,64.0
4683,41.0,0.0,90.0,14.0,64.0
4684,46.0,0.0,90.0,6.0,64.0
4685,65.0,0.0,90.0,10.0,64.0
4686,65.0,0.0,90.0,11.0,64.0
4687,53.0,0.0,90.0,13.0,64.0
4688,53.0,120.0,90.0,12.0,64.0
4689,38.0,0.0,90.0,14.0,64.0
4690,65.0,72.0,390.0,2.0,64.0
4691,62.0,0.0,90.0,10.0,64.0
4692,77.0,0.0,390.0,0.0,64.0
4693,50.0,0.0,90.0,13.0,64.0
4694,53.0,0.0,390.0,4.0,64.0
4695,50.0,0.0,90.0,12.0,64.0
4696,77.0,0.0,390.0,1.0,64.0
4697,65.0,0.0,390.0,5.0,64.0
4698,50.0,120.0,90.0,3.0,64.0
4699,46.0,0.0,390.0,6.0,64.0
4700,62.0,0.0,90.0,11.0,64.0
4701,67.0,0.0,90.0,10.0,64.0
4702,55.0,0.0,90.0,12.0,64.0
4703,55.0,0.0,90.0,3.0,64.0
4704,43.0,0.0,90.0,14.0,64.0
4705,55.0,120.0,90.0,13.0,64.0
4706,67.0,0.0,90.0,11.0,64.0
4707,53.0,0.0,90.0,13.0,64.0
4708,65.0,0.0,90.0,11.0,64.0
4709,53.0,0.0,90.0,3.0,64.0
4710,41.0,0.0,90.0,14.0,64.0
4711,65.0,0.0,90.0,10.0,64.0
4712,53.0,48.0,90.0,12.0,64.0
4713,51.0,0.0,90.0,12.0,64.0
4714,51.0,0.0,90.0,13.0,64.0
4715,63.0,120.0,90.0,11.0,64.0
4716,63.0,0.0,90.0,10.0,64.0
4717,39.0,0.0,90.0,14.0,64.0
4718,51.0,0.0,90.0,3.0,64.0
4719,38.0,0.0,90.0,14.0,64.0
4720,62.0,48.0,90.0,11.0,64.0
4721,50.0,0.0,90.0,13.0,64.0
4722,50.0,0.0,90.0,3.0,64.0
4723,53.0,72.0,150.0,4.0,64.0
4724,65.0,0.0,150.0,5.0,64.0
4725,62.0,0.0,90.0,10.0,64.0
4726,50.0,0.0,90.0,12.0,64.0
4727,65.0,0.0,150.0,2.0,64.0
4728,77.0,0.0,150.0,0.0,64.0
4729,77.0,0.0,150.0,1.0,64.0
4730,63.0,0.0,90.0,11.0,64.0
4731,51.0,0.0,90.0,12.0,64.0
4732,39.0,120.0,90.0,14.0,64.0
4733,51.0,0.0,90.0,13.0,64.0
4734,51.0,0.0,90.0,3.0,64.0
4735,63.0,0.0,90.0,10.0,64.0
4736,60.0,0.0,90.0,11.0,64.0
4737,77.0,72.0,150.0,0.0,64.0
4738,65.0,0.0,150.0,2.0,64.0
4739,53.0,0.0,150.0,4.0,64.0
4740,60.0,0.0,90.0,10.0,64.0
4741,46.0,0.0,90.0,6.0,64.0
4742,65.0,0.0,150.0,5.0,64.0
4743,36.0,0.0,90.0,14.0,64.0
4744,48.0,0.0,90.0,13.0,64.0
4745,48.0,0.0,90.0,3.0,64.0
4746,48.0,48.0,90.0,12.0,64.0
4747,77.0,0.0,150.0,1.0,64.0
4748,62.0,0.0,90.0,10.0,64.0
4749,50.0,0.0,90.0,3.0,64.0
4750,46.0,0.0,90.0,6.0,64.0
4751,50.0,0.0,90.0,13.0,64.0
4752,62.0,0.0,90.0,11.0,64.0
4753,38.0,0.0,90.0,14.0,64.0
4754,50.0,144.0,90.0,12.0,64.0
4755,35.0,0.0,120.0,14.0,64.0
4756,68.0,0.0,3780.0,2.0,64.0
4757,77.0,0.0,570.0,0.0,64.0
4758,80.0,0.0,720.0,0.0,64.0
4759,47.0,120.0,120.0,3.0,64.0
4760,65.0,0.0,3780.0,2.0,64.0
4761,80.0,0.0,720.0,1.0,64.0
4762,59.0,0.0,120.0,10.0,64.0
4763,47.0,0.0,120.0,13.0,64.0
4764,41.0,0.0,390.0,6.0,64.0
4765,59.0,0.0,120.0,11.0,64.0
4766,47.0,0.0,120.0,12.0,64.0
4767,62.0,72.0,3660.0,4.0,64.0
4768,53.0,0.0,3660.0,4.0,64.0
4769,77.0,24.0,570.0,1.0,64.0
4770,65.0,96.0,390.0,5.0,64.0
4771,60.0,0.0,120.0,11.0,64.0
4772,48.0,0.0,120.0,13.0,64.0
4773,48.0,0.0,120.0,3.0,64.0
4774,48.0,0.0,120.0,12.0,64.0
4775,36.0,120.0,120.0,14.0,64.0
4776,60.0,0.0,120.0,10.0,64.0
4777,50.0,0.0,120.0,12.0,64.0
4778,62.0,0.0,120.0,10.0,64.0
4779,50.0,0.0,120.0,13.0,64.0
4780,50.0,0.0,120.0,3.0,64.0
4781,62.0,0.0,120.0,11.0,64.0
4782,38.0,24.0,120.0,14.0,64.0
4783,51.0,0.0,120.0,3.0,64.0
4784,63.0,96.0,120.0,11.0,64.0
4785,63.0,0.0,120.0,10.0,64.0
4786,51.0,0.0,120.0,13.0,64.0
4787,51.0,0.0,120.0,12.0,64.0
4788,39.0,0.0,120.0,14.0,64.0
4789,65.0,0.0,120.0,10.0,64.0
4790,53.0,120.0,120.0,13.0,64.0
4791,65.0,0.0,120.0,11.0,64.0
4792,53.0,0.0,120.0,12.0,64.0
4793,41.0,0.0,120.0,14.0,64.0
4794,53.0,0.0,120.0,3.0,64.0
4795,51.0,120.0,120.0,12.0,64.0
4796,39.0,0.0,120.0,14.0,64.0
4797,63.0,0.0,120.0,10.0,64.0
4798,51.0,0.0,120.0,3.0,64.0
4799,63.0,0.0,120.0,11.0,64.0
4800,51.0,0.0,120.0,13.0,64.0
4801,50.0,0.0,120.0,12.0,64.0
4802,77.0,24.0,180.0,1.0,64.0
4803,50.0,0.0,120.0,3.0,64.0
4804,62.0,0.0,120.0,11.0,64.0
4805,38.0,72.0,120.0,14.0,64.0
4806,50.0,0.0,120.0,13.0,64.0
4807,77.0,0.0,180.0,0.0,64.0
4808,62.0,0.0,120.0,10.0,64.0
4809,48.0,0.0,90.0,3.0,64.0
4810,60.0,0.0,90.0,10.0,64.0
4811,36.0,0.0,90.0,14.0,64.0
4812,48.0,144.0,90.0,12.0,64.0
4813,60.0,0.0,90.0,11.0,64.0
4814,48.0,0.0,90.0,13.0,64.0
4815,59.0,0.0,120.0,11.0,64.0
4816,80.0,120.0,240.0,0.0,64.0
4817,77.0,48.0,180.0,0.0,64.0
4818,35.0,0.0,120.0,14.0,64.0
4819,47.0,0.0,120.0,3.0,64.0
4820,77.0,0.0,180.0,1.0,64.0
4821,80.0,0.0,240.0,1.0,64.0
4822,47.0,0.0,120.0,13.0,64.0
4823,59.0,72.0,120.0,10.0,64.0
4824,47.0,0.0,120.0,12.0,64.0
4825,48.0,0.0,120.0,13.0,64.0
4826,48.0,0.0,120.0,3.0,64.0
4827,60.0,0.0,120.0,11.0,64.0
4828,60.0,0.0,120.0,10.0,64.0
4829,36.0,0.0,120.0,14.0,64.0
4830,48.0,0.0,120.0,12.0,64.0
4831,62.0,72.0,120.0,11.0,64.0
4832,50.0,0.0,120.0,13.0,64.0
4833,77.0,48.0,180.0,0.0,64.0
4834,38.0,0.0,120.0,14.0,64.0
4835,77.0,0.0,180.0,1.0,64.0
4836,50.0,0.0,120.0,12.0,64.0
4837,62.0,0.0,120.0,10.0,64.0
4838,50.0,0.0,120.0,3.0,64.0
4839,39.0,0.0,120.0,14.0,64.0
4840,51.0,0.0,120.0,12.0,64.0
4841,51.0,0.0,120.0,13.0,64.0
4842,63.0,0.0,120.0,10.0,64.0
4843,51.0,0.0,120.0,3.0,64.0
4844,63.0,120.0,120.0,11.0,64.0
4845,41.0,0.0,120.0,14.0,64.0
4846,77.0,48.0,180.0,0.0,64.0
4847,53.0,0.0,120.0,3.0,64.0
4848,53.0,0.0,120.0,13.0,64.0
4849,65.0,0.0,120.0,10.0,64.0
4850,77.0,0.0,180.0,1.0,64.0
4851,53.0,72.0,120.0,12.0,64.0
4852,65.0,0.0,120.0,11.0,64.0
4853,80.0,0.0,240.0,0.0,64.0
4854,80.0,0.0,240.0,1.0,64.0
4855,51.0,0.0,120.0,3.0,64.0
4856,51.0,0.0,120.0,13.0,64.0
4857,63.0,0.0,120.0,11.0,64.0
4858,63.0,0.0,120.0,10.0,64.0
4859,39.0,120.0,120.0,14.0,64.0
4860,51.0,0.0,120.0,12.0,64.0
4861,50.0,0.0,120.0,12.0,64.0
4862,50.0,0.0,120.0,3.0,64.0
4863,62.0,0.0,120.0,10.0,64.0
4864,77.0,24.0,180.0,0.0,64.0
4865,38.0,0.0,120.0,14.0,64.0
4866,50.0,72.0,120.0,13.0,64.0
4867,77.0,0.0,180.0,1.0,64.0
4868,62.0,0.0,120.0,11.0,64.0
4869,60.0,0.0,90.0,10.0,64.0
4870,48.0,0.0,90.0,12.0,64.0
4871,36.0,0.0,90.0,14.0,64.0
4872,48.0,144.0,90.0,3.0,64.0
4873,48.0,0.0,90.0,13.0,64.0
4874,60.0,0.0,90.0,11.0,64.0
4875,34.0,0.0,120.0,14.0,64.0
4876,77.0,0.0,570.0,1.0,64.0
4877,58.0,0.0,120.0,10.0,64.0
4878,80.0,0.0,720.0,1.0,64.0
4879,46.0,96.0,390.0,6.0,64.0
4880,58.0,0.0,120.0,11.0,64.0
4881,46.0,0.0,120.0,3.0,64.0
4882,70.0,48.0,780.0,5.0,64.0
4883,58.0,0.0,780.0,5.0,64.0
4884,80.0,0.0,720.0,0.0,64.0
4885,77.0,24.0,570.0,0.0,64.0
4886,46.0,0.0,120.0,13.0,64.0
4887,46.0,120.0,120.0,12.0,64.0
4888,60.0,0.0,120.0,11.0,64.0
4889,60.0,0.0,120.0,10.0,64.0
4890,48.0,120.0,120.0,12.0,64.0
4891,36.0,0.0,120.0,14.0,64.0
4892,48.0,0.0,120.0,13.0,64.0
4893,48.0,0.0,120.0,3.0,64.0
4894,50.0,24.0,120.0,13.0,64.0
4895,62.0,0.0,120.0,11.0,64.0
4896,62.0,0.0,120.0,10.0,64.0
4897,38.0,0.0,120.0,14.0,64.0
4898,50.0,0.0,120.0,12.0,64.0
4899,50.0,0.0,120.0,3.0,64.0
4900,63.0,0.0,120.0,11.0,64.0
4901,51.0,0.0,120.0,13.0,64.0
4902,51.0,0.0,120.0,3.0,64.0
4903,63.0,0.0,120.0,10.0,64.0
4904,39.0,0.0,120.0,14.0,64.0
4905,51.0,96.0,120.0,12.0,64.0
4906,53.0,0.0,120.0,12.0,64.0
4907,65.0,120.0,120.0,11.0,64.0
4908,53.0,0.0,120.0,13.0,64.0
4909,65.0,0.0,120.0,10.0,64.0
4910,53.0,0.0,120.0,3.0,64.0
4911,41.0,0.0,120.0,14.0,64.0
4912,63.0,0.0,120.0,11.0,64.0
4913,63.0,0.0,120.0,10.0,64.0
4914,51.0,0.0,120.0,13.0,64.0
4915,51.0,0.0,120.0,3.0,64.0
4916,51.0,0.0,120.0,12.0,64.0
4917,39.0,48.0,120.0,14.0,64.0
4918,50.0,0.0,120.0,13.0,64.0
4919,46.0,24.0,90.0,6.0,64.0
4920,77.0,0.0,180.0,0.0,64.0
4921,77.0,24.0,180.0,1.0,64.0
4922,62.0,0.0,120.0,11.0,64.0
4923,38.0,0.0,120.0,14.0,64.0
4924,50.0,0.0,120.0,3.0,64.0
4925,50.0,0.0,120.0,12.0,64.0
4926,62.0,72.0,120.0,10.0,64.0
4927,36.0,0.0,90.0,14.0,64.0
4928,48.0,0.0,90.0,12.0,64.0
4929,60.0,0.0,90.0,10.0,64.0
4930,48.0,144.0,90.0,13.0,64.0
4931,46.0,0.0,90.0,6.0,64.0
4932,60.0,0.0,90.0,11.0,64.0
4933,48.0,0.0,90.0,3.0,64.0
4934,46.0,0.0,390.0,6.0,64.0
4935,58.0,72.0,120.0,10.0,64.0
4936,70.0,48.0,390.0,5.0,64.0
4937,80.0,0.0,240.0,1.0,64.0
4938,58.0,0.0,390.0,5.0,64.0
4939,46.0,0.0,120.0,12.0,64.0
4940,77.0,0.0,180.0,1.0,64.0
4941,77.0,48.0,180.0,0.0,64.0
4942,58.0,0.0,120.0,11.0,64.0
4943,80.0,0.0,240.0,0.0,64.0
4944,34.0,0.0,120.0,14.0,64.0
4945,46.0,0.0,120.0,3.0,64.0
4946,46.0,0.0,120.0,13.0,64.0
4947,36.0,0.0,120.0,14.0,64.0
4948,48.0,0.0,120.0,3.0,64.0
4949,48.0,0.0,120.0,12.0,64.0
4950,48.0,0.0,120.0,13.0,64.0
4951,60.0,120.0,120.0,11.0,64.0
4952,60.0,0.0,120.0,10.0,64.0
4953,50.0,0.0,120.0,3.0,64.0
4954,38.0,0.0,120.0,14.0,64.0
4955,77.0,0.0,180.0,0.0,64.0
4956,62.0,0.0,120.0,11.0,64.0
4957,50.0,24.0,120.0,13.0,64.0
4958,77.0,48.0,180.0,1.0,64.0
4959,50.0,0.0,120.0,12.0,64.0
4960,62.0,0.0,120.0,10.0,64.0
4961,39.0,0.0,120.0,14.0,64.0
4962,51.0,120.0,120.0,3.0,64.0
4963,63.0,0.0,120.0,11.0,64.0
4964,51.0,0.0,120.0,13.0,64.0
4965,63.0,0.0,120.0,10.0,64.0
4966,51.0,0.0,120.0,12.0,64.0
4967,65.0,0.0,120.0,10.0,64.0
4968,53.0,0.0,120.0,12.0,64.0
4969,46.0,48.0,390.0,6.0,64.0
4970,77.0,0.0,180.0,0.0,64.0
4971,80.0,0.0,240.0,1.0,64.0
4972,77.0,48.0,180.0,1.0,64.0
4973,53.0,72.0,120.0,13.0,64.0
4974,70.0,0.0,390.0,5.0,64.0
4975,41.0,0.0,120.0,14.0,64.0
4976,53.0,0.0,120.0,3.0,64.0
4977,80.0,0.0,240.0,0.0,64.0
4978,65.0,0.0,120.0,11.0,64.0
4979,58.0,0.0,390.0,5.0,64.0
4980,51.0,0.0,120.0,3.0,64.0
4981,51.0,0.0,120.0,12.0,64.0
4982,63.0,0.0,120.0,10.0,64.0
4983,63.0,48.0,120.0,11.0,64.0
4984,51.0,0.0,120.0,13.0,64.0
4985,39.0,0.0,120.0,14.0,64.0
4986,77.0,0.0,180.0,0.0,64.0
4987,62.0,24.0,120.0,10.0,64.0
4988,38.0,0.0,120.0,14.0,64.0
4989,77.0,24.0,180.0,1.0,64.0
4990,62.0,0.0,120.0,11.0,64.0
4991,50.0,0.0,120.0,13.0,64.0
4992,50.0,0.0,120.0,12.0,64.0
4993,50.0,0.0,120.0,3.0,64.0
4994,48.0,180.0,90.0,3.0,64.0
4995,48.0,0.0,90.0,12.0,64.0
4996,36.0,0.0,90.0,14.0,64.0
4997,60.0,0.0,90.0,10.0,64.0
4998,48.0,0.0,90.0,13.0,64.0
4999,60.0,0.0,90.0,11.0,64.0
5000,58.0,12.0,390.0,4.0,64.0
5001,79.0,0.0,450.0,0.0,64.0
5002,63.0,0.0,930.0,2.0,64.0
5003,75.0,0.0,450.0,0.0,64.0
5004,63.0,0.0,390.0,4.0,64.0
5005,79.0,0.0,450.0,1.0,64.0
5006,58.0,0.0,180.0,5.0,64.0
5007,51.0,0.0,180.0,13.0,64.0
5008,63.0,0.0,150.0,11.0,64.0
5009,46.0,0.0,180.0,6.0,64.0
5010,63.0,36.0,150.0,10.0,64.0
5011,70.0,0.0,180.0,5.0,64.0
5012,51.0,0.0,180.0,12.0,64.0
5013,75.0,0.0,930.0,1.0,64.0
5014,39.0,192.0,180.0,14.0,64.0
5015,67.0,180.0,450.0,2.0,64.0
5016,51.0,0.0,180.0,3.0,64.0
5017,79.0,60.0,150.0,11.0,64.0
5018,79.0,0.0,150.0,10.0,64.0
5019,41.0,0.0,180.0,6.0,64.0
5020,48.0,192.0,180.0,13.0,64.0
5021,48.0,0.0,180.0,3.0,64.0
5022,63.0,0.0,180.0,12.0,64.0
5023,65.0,0.0,180.0,12.0,64.0
5024,60.0,0.0,150.0,10.0,64.0
5025,60.0,36.0,150.0,11.0,64.0
5026,81.0,180.0,450.0,0.0,64.0
5027,77.0,0.0,930.0,0.0,64.0
5028,81.0,0.0,450.0,1.0,64.0
5029,36.0,0.0,180.0,14.0,64.0
5030,65.0,0.0,180.0,5.0,64.0
5031,69.0,0.0,450.0,2.0,64.0
5032,72.0,0.0,180.0,5.0,64.0
5033,63.0,0.0,390.0,4.0,64.0
5034,53.0,12.0,390.0,4.0,64.0
5035,81.0,60.0,150.0,10.0,64.0
5036,81.0,0.0,150.0,11.0,64.0
5037,58.0,36.0,150.0,11.0,64.0
5038,34.0,0.0,180.0,14.0,64.0
5039,70.0,0.0,180.0,5.0,64.0
5040,46.0,0.0,180.0,13.0,64.0
5041,58.0,0.0,150.0,10.0,64.0
5042,82.0,180.0,450.0,0.0,64.0
5043,46.0,0.0,180.0,3.0,64.0
5044,74.0,192.0,180.0,5.0,64.0
5045,46.0,0.0,180.0,6.0,64.0
5046,65.0,0.0,180.0,12.0,64.0
5047,62.0,0.0,180.0,12.0,64.0
5048,77.0,0.0,450.0,1.0,64.0
5049,82.0,0.0,450.0,1.0,64.0
5050,65.0,0.0,450.0,2.0,64.0
5051,62.0,0.0,390.0,4.0,64.0
5052,70.0,0.0,450.0,2.0,64.0
5053,58.0,12.0,390.0,4.0,64.0
5054,82.0,0.0,150.0,10.0,64.0
5055,82.0,60.0,150.0,11.0,64.0
5056,43.0,192.0,180.0,13.0,64.0
5057,43.0,0.0,180.0,3.0,64.0
5058,58.0,0.0,180.0,12.0,64.0
5059,58.0,0.0,180.0,5.0,64.0
5060,31.0,0.0,180.0,14.0,64.0
5061,70.0,0.0,450.0,0.0,64.0
5062,76.0,0.0,450.0,0.0,64.0
5063,76.0,120.0,450.0,1.0,64.0
5064,70.0,0.0,450.0,1.0,64.0
5065,58.0,0.0,390.0,4.0,64.0
5066,46.0,12.0,390.0,4.0,64.0
5067,46.0,0.0,180.0,6.0,64.0
5068,70.0,0.0,180.0,5.0,64.0
5069,64.0,0.0,450.0,2.0,64.0
5070,55.0,0.0,180.0,12.0,64.0
5071,58.0,36.0,150.0,11.0,64.0
5072,58.0,0.0,150.0,10.0,64.0
5073,76.0,0.0,150.0,10.0,64.0
5074,76.0,60.0,150.0,11.0,64.0
5075,77.0,0.0,2310.0,0.0,64.0
5076,77.0,0.0,90.0,11.0,64.0
5077,69.0,0.0,390.0,2.0,64.0
5078,65.0,0.0,390.0,2.0,64.0
5079,65.0,24.0,180.0,5.0,64.0
5080,41.0,0.0,390.0,6.0,64.0
5081,29.0,0.0,390.0,14.0,64.0
5082,77.0,0.0,390.0,10.0,64.0
5083,57.0,96.0,90.0,12.0,64.0
5084,65.0,0.0,2310.0,0.0,64.0
5085,77.0,0.0,450.0,1.0,64.0
5086,72.0,0.0,450.0,1.0,64.0
5087,41.0,0.0,390.0,3.0,64.0
5088,41.0,48.0,390.0,13.0,64.0
5089,60.0,0.0,90.0,12.0,64.0
5090,72.0,120.0,90.0,11.0,64.0
5091,69.0,0.0,90.0,11.0,64.0
5092,53.0,24.0,180.0,4.0,64.0
5093,57.0,48.0,90.0,12.0,64.0
5094,65.0,0.0,90.0,11.0,64.0
5095,53.0,120.0,90.0,12.0,64.0
5096,73.0,0.0,90.0,11.0,64.0
5097,70.0,0.0,450.0,1.0,64.0
5098,73.0,0.0,450.0,1.0,64.0
5099,46.0,24.0,180.0,13.0,64.0
5100,46.0,0.0,180.0,3.0,64.0
5101,34.0,0.0,180.0,14.0,64.0
5102,61.0,96.0,90.0,12.0,64.0
5103,53.0,0.0,660.0,4.0,64.0
5104,77.0,120.0,90.0,11.0,64.0
5105,65.0,0.0,90.0,12.0,64.0
5106,70.0,0.0,180.0,2.0,64.0
5107,73.0,36.0,150.0,10.0,64.0
5108,49.0,0.0,180.0,3.0,64.0
5109,37.0,0.0,180.0,14.0,64.0
5110,49.0,24.0,180.0,13.0,64.0
5111,61.0,0.0,180.0,2.0,64.0
5112,58.0,0.0,150.0,10.0,64.0
5113,65.0,0.0,150.0,10.0,64.0
5114,61.0,0.0,90.0,12.0,64.0
5115,73.0,60.0,90.0,11.0,64.0
5116,41.0,0.0,90.0,6.0,64.0
5117,41.0,0.0,90.0,6.0,64.0
5118,70.0,120.0,90.0,11.0,64.0
5119,58.0,0.0,90.0,12.0,64.0
5120,69.0,0.0,450.0,1.0,64.0
5121,72.0,120.0,450.0,1.0,64.0
5122,57.0,0.0,90.0,12.0,64.0
5123,41.0,0.0,390.0,3.0,64.0
5124,69.0,96.0,90.0,11.0,64.0
5125,69.0,24.0,180.0,10.0,64.0
5126,72.0,24.0,420.0,10.0,64.0
5127,65.0,0.0,180.0,10.0,64.0
5128,41.0,0.0,390.0,13.0,64.0
5129,69.0,48.0,390.0,2.0,64.0
5130,60.0,0.0,390.0,2.0,64.0
5131,41.0,0.0,390.0,6.0,64.0
5132,29.0,0.0,390.0,14.0,64.0
5133,72.0,0.0,90.0,11.0,64.0
5134,60.0,120.0,90.0,12.0,64.0
5135,69.0,0.0,90.0,11.0,64.0
5136,53.0,0.0,180.0,4.0,64.0
5137,57.0,48.0,90.0,12.0,64.0
5138,53.0,0.0,90.0,12.0,64.0
5139,65.0,0.0,90.0,11.0,64.0
5140,61.0,96.0,90.0,12.0,64.0
5141,53.0,24.0,660.0,4.0,64.0
5142,34.0,0.0,180.0,14.0,64.0
5143,73.0,0.0,450.0,1.0,64.0
5144,70.0,0.0,450.0,1.0,64.0
5145,73.0,0.0,90.0,11.0,64.0
5146,46.0,0.0,180.0,13.0,64.0
5147,46.0,24.0,180.0,3.0,64.0
5148,77.0,0.0,90.0,11.0,64.0
5149,65.0,120.0,90.0,12.0,64.0
5150,73.0,0.0,150.0,10.0,64.0
5151,61.0,0.0,180.0,2.0,64.0
5152,70.0,0.0,180.0,2.0,64.0
5153,65.0,0.0,150.0,10.0,64.0
5154,49.0,0.0,180.0,3.0,64.0
5155,61.0,0.0,90.0,12.0,64.0
5156,73.0,0.0,90.0,11.0,64.0
5157,37.0,0.0,180.0,14.0,64.0
5158,41.0,60.0,90.0,6.0,64.0
5159,49.0,24.0,180.0,13.0,64.0
5160,58.0,36.0,150.0,10.0,64.0
5161,70.0,0.0,90.0,11.0,64.0
5162,41.0,0.0,90.0,6.0,64.0
5163,58.0,120.0,90.0,12.0,64.0
5164,69.0,60.0,90.0,11.0,64.0
5165,53.0,0.0,390.0,13.0,64.0
5166,69.0,0.0,390.0,1.0,64.0
5167,41.0,0.0,390.0,14.0,64.0
5168,72.0,0.0,390.0,1.0,64.0
5169,65.0,0.0,390.0,5.0,64.0
5170,41.0,48.0,390.0,6.0,64.0
5171,53.0,0.0,390.0,3.0,64.0
5172,60.0,36.0,150.0,2.0,64.0
5173,65.0,0.0,180.0,10.0,64.0
5174,69.0,0.0,180.0,10.0,64.0
5175,69.0,0.0,150.0,2.0,64.0
5176,57.0,0.0,90.0,12.0,64.0
5177,72.0,24.0,420.0,10.0,64.0
5178,77.0,120.0,90.0,11.0,64.0
5179,65.0,0.0,90.0,12.0,64.0
5180,65.0,24.0,300.0,2.0,64.0
5181,53.0,0.0,300.0,2.0,64.0
5182,65.0,48.0,90.0,12.0,64.0
5183,77.0,0.0,90.0,11.0,64.0
5184,77.0,96.0,90.0,11.0,64.0
5185,65.0,0.0,90.0,12.0,64.0
5186,77.0,0.0,90.0,11.0,64.0
5187,65.0,120.0,90.0,12.0,64.0
5188,65.0,120.0,90.0,12.0,64.0
5189,77.0,0.0,90.0,11.0,64.0
5190,58.0,0.0,150.0,3.0,64.0
5191,46.0,24.0,180.0,14.0,64.0
5192,70.0,0.0,150.0,5.0,64.0
5193,74.0,0.0,150.0,5.0,64.0
5194,53.0,0.0,150.0,2.0,64.0
5195,65.0,60.0,90.0,12.0,64.0
5196,58.0,0.0,150.0,13.0,64.0
5197,46.0,0.0,180.0,6.0,64.0
5198,74.0,0.0,150.0,10.0,64.0
5199,74.0,0.0,150.0,0.0,64.0
5200,84.0,0.0,150.0,0.0,64.0
5201,82.0,0.0,150.0,10.0,64.0
5202,65.0,0.0,150.0,2.0,64.0
5203,62.0,0.0,150.0,4.0,64.0
5204,58.0,36.0,150.0,4.0,64.0
5205,77.0,0.0,90.0,11.0,64.0
5206,74.0,0.0,150.0,1.0,64.0
5207,70.0,0.0,150.0,1.0,64.0
5208,77.0,120.0,90.0,11.0,64.0
5209,65.0,0.0,90.0,12.0,64.0
5210,69.0,0.0,150.0,1.0,64.0
5211,53.0,0.0,150.0,4.0,64.0
5212,60.0,0.0,150.0,4.0,64.0
5213,53.0,0.0,150.0,3.0,64.0
5214,53.0,0.0,150.0,2.0,64.0
5215,72.0,0.0,150.0,5.0,64.0
5216,53.0,0.0,150.0,13.0,64.0
5217,81.0,0.0,150.0,0.0,64.0
5218,81.0,0.0,150.0,10.0,64.0
5219,72.0,36.0,150.0,10.0,64.0
5220,72.0,0.0,150.0,0.0,64.0
5221,65.0,0.0,150.0,5.0,64.0
5222,65.0,0.0,150.0,2.0,64.0
5223,72.0,0.0,150.0,1.0,64.0
5224,65.0,0.0,90.0,11.0,64.0
5225,77.0,60.0,90.0,11.0,64.0
5226,41.0,0.0,180.0,6.0,64.0
5227,65.0,0.0,90.0,12.0,64.0
5228,41.0,24.0,180.0,14.0,64.0
5229,65.0,0.0,90.0,11.0,64.0
5230,77.0,120.0,90.0,11.0,64.0
5231,65.0,0.0,90.0,12.0,64.0
5232,65.0,0.0,90.0,12.0,64.0
5233,74.0,0.0,150.0,10.0,64.0
5234,82.0,0.0,150.0,10.0,64.0
5235,53.0,0.0,150.0,2.0,64.0
5236,74.0,0.0,150.0,5.0,64.0
5237,65.0,0.0,150.0,2.0,64.0
5238,46.0,24.0,180.0,6.0,64.0
5239,58.0,0.0,150.0,13.0,64.0
5240,70.0,36.0,150.0,5.0,64.0
5241,70.0,0.0,150.0,1.0,64.0
5242,65.0,0.0,90.0,11.0,64.0
5243,77.0,60.0,90.0,11.0,64.0
5244,62.0,0.0,150.0,4.0,64.0
5245,58.0,0.0,150.0,3.0,64.0
5246,58.0,0.0,150.0,4.0,64.0
5247,82.0,0.0,150.0,0.0,64.0
5248,74.0,0.0,150.0,0.0,64.0
5249,46.0,0.0,180.0,14.0,64.0
5250,74.0,0.0,150.0,1.0,64.0
5251,65.0,0.0,90.0,12.0,64.0
5252,77.0,120.0,90.0,11.0,64.0
5253,65.0,0.0,90.0,11.0,64.0
5254,77.0,0.0,90.0,11.0,64.0
5255,41.0,24.0,180.0,6.0,64.0
5256,65.0,0.0,90.0,12.0,64.0
5257,72.0,0.0,150.0,5.0,64.0
5258,65.0,0.0,150.0,5.0,64.0
5259,53.0,0.0,150.0,3.0,64.0
5260,72.0,0.0,150.0,0.0,64.0
5261,81.0,0.0,150.0,0.0,64.0
5262,72.0,36.0,150.0,10.0,64.0
5263,65.0,0.0,150.0,2.0,64.0
5264,53.0,0.0,150.0,2.0,64.0
5265,41.0,0.0,180.0,14.0,64.0
5266,69.0,0.0,150.0,1.0,64.0
5267,81.0,0.0,150.0,10.0,64.0
5268,53.0,0.0,150.0,13.0,64.0
5269,53.0,0.0,150.0,4.0,64.0
5270,65.0,60.0,90.0,11.0,64.0
5271,72.0,0.0,150.0,1.0,64.0
5272,60.0,0.0,150.0,4.0,64.0
5273,65.0,0.0,90.0,12.0,64.0
5274,77.0,0.0,90.0,11.0,64.0
5275,65.0,120.0,90.0,11.0,64.0
5276,74.0,0.0,150.0,10.0,64.0
5277,58.0,36.0,150.0,3.0,64.0
5278,58.0,0.0,150.0,13.0,64.0
5279,82.0,0.0,150.0,10.0,64.0
5280,65.0,0.0,90.0,12.0,64.0
5281,53.0,0.0,150.0,2.0,64.0
5282,74.0,0.0,150.0,5.0,64.0
5283,58.0,0.0,150.0,4.0,64.0
5284,70.0,0.0,150.0,5.0,64.0
5285,65.0,60.0,90.0,11.0,64.0
5286,77.0,0.0,90.0,11.0,64.0
5287,62.0,0.0,150.0,4.0,64.0
5288,70.0,0.0,150.0,1.0,64.0
5289,65.0,0.0,150.0,2.0,64.0
5290,46.0,24.0,180.0,14.0,64.0
5291,74.0,0.0,150.0,0.0,64.0
5292,82.0,0.0,150.0,0.0,64.0
5293,46.0,0.0,180.0,6.0,64.0
5294,74.0,0.0,150.0,1.0,64.0
5295,77.0,0.0,90.0,11.0,64.0
5296,65.0,336.0,90.0,11.0,64.0
5297,65.0,0.0,90.0,12.0,64.0
5298,41.0,0.0,390.0,6.0,64.0
5299,72.0,0.0,300.0,0.0,64.0
5300,81.0,0.0,300.0,0.0,64.0
5301,53.0,0.0,300.0,2.0,64.0
5302,72.0,0.0,300.0,5.0,64.0
5303,65.0,0.0,300.0,5.0,64.0
5304,77.0,0.0,300.0,11.0,64.0
5305,65.0,72.0,300.0,11.0,64.0
5306,53.0,0.0,300.0,3.0,64.0
5307,72.0,0.0,300.0,1.0,64.0
5308,53.0,0.0,300.0,13.0,64.0
5309,72.0,0.0,300.0,10.0,64.0
5310,81.0,0.0,300.0,10.0,64.0
5311,69.0,0.0,300.0,1.0,64.0
5312,53.0,0.0,300.0,4.0,64.0
5313,65.0,408.0,390.0,12.0,64.0
5314,65.0,0.0,300.0,2.0,64.0
5315,60.0,0.0,300.0,4.0,64.0
5316,41.0,0.0,390.0,14.0,64.0
5317,53.0,0.0,300.0,5.0,64.0
5318,53.0,72.0,300.0,13.0,64.0
5319,65.0,0.0,300.0,2.0,64.0
5320,53.0,0.0,300.0,2.0,64.0
5321,65.0,0.0,300.0,10.0,64.0
5322,77.0,0.0,300.0,10.0,64.0
5323,77.0,0.0,300.0,1.0,64.0
5324,41.0,0.0,390.0,6.0,64.0
5325,65.0,0.0,300.0,11.0,64.0
5326,53.0,0.0,300.0,4.0,64.0
5327,65.0,0.0,300.0,5.0,64.0
5328,65.0,0.0,300.0,4.0,64.0
5329,77.0,0.0,300.0,0.0,64.0
5330,41.0,0.0,390.0,14.0,64.0
5331,65.0,480.0,390.0,12.0,64.0
5332,53.0,0.0,300.0,3.0,64.0
5333,41.0,192.0,390.0,6.0,64.0
5334,29.0,0.0,390.0,14.0,64.0
5335,65.0,0.0,390.0,0.0,64.0
5336,53.0,0.0,390.0,5.0,64.0
5337,53.0,0.0,570.0,11.0,64.0
5338,41.0,0.0,390.0,3.0,64.0
5339,65.0,0.0,390.0,1.0,64.0
5340,65.0,0.0,390.0,5.0,64.0
5341,53.0,0.0,390.0,2.0,64.0
5342,65.0,0.0,390.0,2.0,64.0
5343,41.0,0.0,390.0,4.0,64.0
5344,53.0,0.0,390.0,4.0,64.0
5345,53.0,384.0,570.0,10.0,64.0
5346,53.0,0.0,390.0,12.0,64.0
5347,41.0,0.0,390.0,13.0,64.0
5348,65.0,0.0,240.0,10.0,64.0
5349,53.0,144.0,240.0,11.0,64.0
5350,52.0,0.0,150.0,11.0,64.0
5351,64.0,240.0,150.0,10.0,64.0
5352,65.0,0.0,150.0,10.0,64.0
5353,53.0,240.0,150.0,11.0,64.0
5354,53.0,0.0,150.0,11.0,64.0
5355,65.0,240.0,150.0,10.0,64.0
5356,53.0,0.0,150.0,11.0,64.0
5357,65.0,336.0,150.0,10.0,64.0
5358,66.0,0.0,240.0,10.0,64.0
5359,54.0,240.0,240.0,11.0,64.0
5360,55.0,0.0,240.0,11.0,64.0
5361,67.0,240.0,240.0,10.0,64.0
5362,56.0,0.0,240.0,11.0,64.0
5363,68.0,192.0,240.0,10.0,64.0
5364,57.0,0.0,180.0,11.0,64.0
5365,69.0,240.0,180.0,10.0,64.0
5366,58.0,0.0,180.0,4.0,64.0
5367,58.0,0.0,180.0,11.0,64.0
5368,70.0,0.0,180.0,11.0,64.0
5369,50.0,0.0,180.0,4.0,64.0
5370,58.0,0.0,180.0,10.0,64.0
5371,65.0,0.0,180.0,12.0,64.0
5372,62.0,0.0,180.0,12.0,64.0
5373,70.0,0.0,180.0,10.0,64.0
5374,62.0,0.0,180.0,2.0,64.0
5375,46.0,0.0,180.0,6.0,64.0
5376,82.0,0.0,180.0,0.0,64.0
5377,58.0,0.0,180.0,5.0,64.0
5378,70.0,0.0,180.0,5.0,64.0
5379,46.0,480.0,180.0,14.0,64.0
5380,58.0,0.0,180.0,3.0,64.0
5381,65.0,0.0,180.0,1.0,64.0
5382,70.0,0.0,180.0,1.0,64.0
5383,58.0,0.0,180.0,13.0,64.0
5384,70.0,0.0,180.0,2.0,64.0
5385,65.0,0.0,180.0,5.0,64.0
5386,65.0,0.0,180.0,1.0,64.0
5387,72.0,0.0,180.0,2.0,64.0
5388,63.0,0.0,180.0,2.0,64.0
5389,65.0,0.0,180.0,10.0,64.0
5390,72.0,0.0,180.0,10.0,64.0
5391,72.0,0.0,180.0,1.0,64.0
5392,57.0,408.0,180.0,3.0,64.0
5393,84.0,0.0,180.0,0.0,64.0
5394,57.0,0.0,180.0,13.0,64.0
5395,41.0,0.0,180.0,6.0,64.0
5396,60.0,0.0,180.0,4.0,64.0
5397,65.0,0.0,180.0,12.0,64.0
5398,63.0,0.0,180.0,12.0,64.0
5399,45.0,0.0,180.0,14.0,64.0
5400,65.0,0.0,180.0,11.0,64.0
5401,72.0,0.0,180.0,11.0,64.0
5402,53.0,0.0,180.0,4.0,64.0
5403,77.0,120.0,120.0,10.0,64.0
5404,79.0,120.0,120.0,10.0,64.0
5405,77.0,120.0,120.0,10.0,64.0
5406,79.0,120.0,120.0,10.0,64.0
5407,77.0,120.0,120.0,10.0,64.0
5408,75.0,120.0,120.0,10.0,64.0
5409,74.0,96.0,120.0,10.0,64.0
5410,72.0,216.0,90.0,10.0,64.0
5411,58.0,0.0,180.0,11.0,64.0
5412,62.0,0.0,180.0,2.0,64.0
5413,46.0,0.0,180.0,6.0,64.0
5414,62.0,480.0,180.0,12.0,64.0
5415,65.0,0.0,180.0,12.0,64.0
5416,58.0,0.0,180.0,5.0,64.0
5417,58.0,0.0,180.0,3.0,64.0
5418,70.0,0.0,180.0,1.0,64.0
5419,70.0,0.0,180.0,2.0,64.0
5420,65.0,0.0,180.0,1.0,64.0
5421,58.0,0.0,180.0,13.0,64.0
5422,70.0,0.0,180.0,10.0,64.0
5423,58.0,0.0,180.0,10.0,64.0
5424,70.0,0.0,180.0,5.0,64.0
5425,58.0,0.0,180.0,4.0,64.0
5426,50.0,0.0,180.0,4.0,64.0
5427,82.0,0.0,180.0,0.0,64.0
5428,46.0,0.0,180.0,14.0,64.0
5429,70.0,0.0,180.0,11.0,64.0
5430,65.0,0.0,180.0,5.0,64.0
5431,63.0,0.0,180.0,12.0,64.0
5432,72.0,0.0,180.0,10.0,64.0
5433,65.0,0.0,180.0,10.0,64.0
5434,65.0,0.0,180.0,12.0,64.0
5435,41.0,408.0,180.0,6.0,64.0
5436,53.0,0.0,180.0,4.0,64.0
5437,72.0,0.0,180.0,2.0,64.0
5438,65.0,0.0,180.0,11.0,64.0
5439,60.0,0.0,180.0,4.0,64.0
5440,84.0,0.0,180.0,0.0,64.0
5441,57.0,0.0,180.0,13.0,64.0
5442,72.0,0.0,180.0,1.0,64.0
5443,65.0,0.0,180.0,1.0,64.0
5444,72.0,0.0,180.0,11.0,64.0
5445,63.0,0.0,180.0,2.0,64.0
5446,45.0,0.0,180.0,14.0,64.0
5447,57.0,0.0,180.0,3.0,64.0
5448,77.0,120.0,120.0,10.0,64.0
5449,79.0,120.0,120.0,10.0,64.0
5450,77.0,120.0,120.0,10.0,64.0
5451,79.0,120.0,120.0,10.0,64.0
5452,77.0,120.0,120.0,10.0,64.0
5453,75.0,120.0,120.0,10.0,64.0
5454,74.0,96.0,120.0,10.0,64.0
5455,72.0,120.0,90.0,10.0,64.0
5456,70.0,0.0,570.0,10.0,64.0
5457,58.0,0.0,780.0,5.0,64.0
5458,46.0,12.0,390.0,6.0,64.0
5459,70.0,0.0,780.0,5.0,64.0
5460,65.0,0.0,90.0,11.0,64.0
5461,46.0,48.0,780.0,4.0,64.0
5462,58.0,0.0,780.0,4.0,64.0
5463,46.0,36.0,150.0,13.0,64.0
5464,46.0,0.0,150.0,3.0,64.0
5465,65.0,0.0,900.0,2.0,64.0
5466,61.0,0.0,900.0,2.0,64.0
5467,58.0,0.0,900.0,1.0,64.0
5468,34.0,24.0,180.0,14.0,64.0
5469,58.0,0.0,900.0,0.0,64.0
5470,58.0,60.0,90.0,12.0,64.0
5471,61.0,0.0,90.0,11.0,64.0
5472,58.0,0.0,570.0,10.0,64.0
5473,65.0,0.0,90.0,11.0,64.0
5474,61.0,0.0,90.0,11.0,64.0
5475,58.0,120.0,90.0,12.0,64.0
5476,58.0,36.0,150.0,3.0,64.0
5477,61.0,48.0,90.0,11.0,64.0
5478,58.0,0.0,150.0,13.0,64.0
5479,58.0,0.0,90.0,12.0,64.0
5480,65.0,0.0,90.0,11.0,64.0
5481,46.0,24.0,180.0,14.0,64.0
5482,61.0,0.0,90.0,11.0,64.0
5483,58.0,0.0,90.0,12.0,64.0
5484,65.0,120.0,90.0,11.0,64.0
5485,65.0,0.0,90.0,11.0,64.0
5486,58.0,0.0,150.0,13.0,64.0
5487,58.0,36.0,150.0,3.0,64.0
5488,58.0,60.0,90.0,12.0,64.0
5489,61.0,0.0,90.0,11.0,64.0
5490,46.0,24.0,180.0,14.0,64.0
5491,61.0,0.0,90.0,11.0,64.0
5492,58.0,0.0,90.0,12.0,64.0
5493,65.0,72.0,90.0,11.0,64.0
5494,65.0,0.0,90.0,11.0,64.0
5495,73.0,0.0,90.0,10.0,64.0
5496,46.0,60.0,90.0,6.0,64.0
5497,46.0,24.0,180.0,14.0,64.0
5498,58.0,0.0,90.0,12.0,64.0
5499,58.0,0.0,150.0,13.0,64.0
5500,58.0,36.0,150.0,3.0,64.0
5501,61.0,0.0,90.0,11.0,64.0
5502,70.0,0.0,90.0,10.0,64.0
5503,65.0,120.0,90.0,11.0,64.0
5504,46.0,0.0,90.0,6.0,64.0
5505,58.0,0.0,90.0,12.0,64.0
5506,61.0,0.0,90.0,11.0,64.0
5507,58.0,0.0,780.0,4.0,64.0
5508,66.0,0.0,1410.0,2.0,64.0
5509,73.0,0.0,1890.0,1.0,64.0
5510,61.0,0.0,1890.0,2.0,64.0
5511,78.0,0.0,1410.0,0.0,64.0
5512,58.0,48.0,780.0,5.0,64.0
5513,70.0,0.0,780.0,5.0,64.0
5514,70.0,0.0,90.0,12.0,64.0
5515,46.0,36.0,150.0,3.0,64.0
5516,46.0,0.0,150.0,13.0,64.0
5517,34.0,24.0,180.0,14.0,64.0
5518,78.0,0.0,1410.0,1.0,64.0
5519,46.0,0.0,780.0,4.0,64.0
5520,82.0,0.0,1890.0,0.0,64.0
5521,78.0,0.0,570.0,10.0,64.0
5522,46.0,12.0,390.0,6.0,64.0
5523,61.0,0.0,90.0,11.0,64.0
5524,66.0,60.0,90.0,11.0,64.0
5525,61.0,0.0,90.0,11.0,64.0
5526,66.0,120.0,90.0,11.0,64.0
5527,70.0,0.0,90.0,12.0,64.0
5528,58.0,36.0,150.0,3.0,64.0
5529,70.0,0.0,90.0,12.0,64.0
5530,66.0,48.0,90.0,11.0,64.0
5531,61.0,0.0,90.0,11.0,64.0
5532,46.0,24.0,180.0,14.0,64.0
5533,58.0,0.0,150.0,13.0,64.0
5534,70.0,120.0,90.0,12.0,64.0
5535,66.0,0.0,90.0,11.0,64.0
5536,61.0,0.0,90.0,11.0,64.0
5537,66.0,60.0,90.0,11.0,64.0
5538,58.0,36.0,150.0,13.0,64.0
5539,46.0,24.0,180.0,14.0,64.0
5540,70.0,0.0,90.0,12.0,64.0
5541,58.0,0.0,150.0,3.0,64.0
5542,61.0,0.0,90.0,11.0,64.0
5543,61.0,72.0,90.0,11.0,64.0
5544,66.0,0.0,90.0,11.0,64.0
5545,70.0,0.0,90.0,12.0,64.0
5546,46.0,24.0,180.0,14.0,64.0
5547,70.0,0.0,90.0,12.0,64.0
5548,73.0,0.0,90.0,10.0,64.0
5549,61.0,0.0,90.0,11.0,64.0
5550,66.0,0.0,90.0,11.0,64.0
5551,46.0,60.0,90.0,6.0,64.0
5552,58.0,0.0,150.0,3.0,64.0
5553,58.0,36.0,150.0,13.0,64.0
5554,66.0,0.0,90.0,11.0,64.0
5555,61.0,0.0,90.0,11.0,64.0
5556,78.0,120.0,90.0,10.0,64.0
5557,46.0,0.0,90.0,6.0,64.0
5558,70.0,0.0,90.0,12.0,64.0
5559,46.0,0.0,180.0,6.0,64.0
5560,46.0,0.0,150.0,13.0,64.0
5561,58.0,0.0,390.0,5.0,64.0
5562,66.0,36.0,90.0,11.0,64.0
5563,61.0,0.0,90.0,11.0,64.0
5564,70.0,12.0,390.0,5.0,64.0
5565,82.0,24.0,120.0,10.0,64.0
5566,34.0,24.0,180.0,14.0,64.0
5567,70.0,0.0,90.0,12.0,64.0
5568,46.0,36.0,150.0,3.0,64.0
5569,58.0,0.0,390.0,4.0,64.0
5570,46.0,0.0,390.0,4.0,64.0
5571,61.0,120.0,90.0,11.0,64.0
5572,70.0,0.0,90.0,12.0,64.0
5573,66.0,0.0,90.0,11.0,64.0
5574,46.0,24.0,180.0,14.0,64.0
5575,78.0,12.0,120.0,10.0,64.0
5576,58.0,36.0,150.0,3.0,64.0
5577,70.0,36.0,90.0,12.0,64.0
5578,58.0,0.0,150.0,13.0,64.0
5579,61.0,0.0,90.0,11.0,64.0
5580,66.0,0.0,90.0,11.0,64.0
5581,66.0,0.0,90.0,11.0,64.0
5582,70.0,0.0,90.0,12.0,64.0
5583,61.0,120.0,90.0,11.0,64.0
5584,65.0,0.0,450.0,2.0,64.0
5585,77.0,0.0,450.0,1.0,64.0
5586,70.0,0.0,90.0,12.0,64.0
5587,46.0,24.0,180.0,6.0,64.0
5588,46.0,0.0,150.0,13.0,64.0
5589,46.0,36.0,150.0,3.0,64.0
5590,65.0,0.0,90.0,11.0,64.0
5591,61.0,36.0,90.0,11.0,64.0
5592,77.0,0.0,450.0,0.0,64.0
5593,58.0,0.0,390.0,5.0,64.0
5594,70.0,12.0,390.0,5.0,64.0
5595,34.0,0.0,180.0,14.0,64.0
5596,58.0,0.0,390.0,4.0,64.0
5597,46.0,0.0,390.0,4.0,64.0
5598,82.0,24.0,120.0,10.0,64.0
5599,70.0,0.0,90.0,12.0,64.0
5600,65.0,0.0,90.0,11.0,64.0
5601,61.0,120.0,90.0,11.0,64.0
5602,58.0,36.0,150.0,13.0,64.0
5603,77.0,12.0,120.0,10.0,64.0
5604,61.0,0.0,90.0,11.0,64.0
5605,65.0,0.0,90.0,11.0,64.0
5606,58.0,0.0,150.0,3.0,64.0
5607,46.0,24.0,180.0,14.0,64.0
5608,70.0,36.0,90.0,12.0,64.0
5609,61.0,0.0,90.0,11.0,64.0
5610,65.0,156.0,90.0,11.0,64.0
5611,70.0,0.0,90.0,12.0,64.0
5612,64.0,0.0,450.0,2.0,64.0
5613,70.0,0.0,390.0,5.0,64.0
5614,58.0,0.0,390.0,5.0,64.0
5615,67.0,0.0,390.0,12.0,64.0
5616,84.0,0.0,450.0,0.0,64.0
5617,58.0,72.0,390.0,3.0,64.0
5618,76.0,0.0,450.0,0.0,64.0
5619,76.0,240.0,120.0,10.0,64.0
5620,67.0,0.0,450.0,2.0,64.0
5621,60.0,0.0,390.0,11.0,64.0
5622,46.0,0.0,390.0,14.0,64.0
5623,76.0,408.0,450.0,1.0,64.0
5624,72.0,0.0,930.0,1.0,64.0
5625,46.0,0.0,390.0,6.0,64.0
5626,58.0,0.0,390.0,13.0,64.0
5627,60.0,0.0,390.0,4.0,64.0
5628,46.0,0.0,390.0,4.0,64.0
5629,84.0,12.0,120.0,10.0,64.0
5630,75.0,0.0,960.0,10.0,64.0
5631,65.0,0.0,960.0,10.0,64.0
5632,57.0,480.0,480.0,13.0,64.0
5633,75.0,0.0,450.0,0.0,64.0
5634,53.0,0.0,390.0,4.0,64.0
5635,60.0,72.0,390.0,4.0,64.0
5636,72.0,0.0,450.0,0.0,64.0
5637,41.0,0.0,390.0,6.0,64.0
5638,65.0,0.0,480.0,11.0,64.0
5639,60.0,0.0,450.0,2.0,64.0
5640,65.0,0.0,390.0,5.0,64.0
5641,57.0,0.0,480.0,3.0,64.0
5642,75.0,0.0,450.0,1.0,64.0
5643,63.0,24.0,450.0,2.0,64.0
5644,45.0,0.0,480.0,14.0,64.0
5645,60.0,0.0,15.0,12.0,64.0
5646,57.0,0.0,480.0,3.0,64.0
5647,65.0,192.0,720.0,11.0,64.0
5648,45.0,0.0,480.0,14.0,64.0
5649,57.0,0.0,480.0,13.0,64.0
5650,58.0,0.0,450.0,13.0,64.0
5651,74.0,288.0,660.0,10.0,64.0
5652,46.0,0.0,450.0,14.0,64.0
5653,58.0,0.0,450.0,3.0,64.0
5654,58.0,216.0,450.0,12.0,64.0
5655,66.0,24.0,180.0,11.0,64.0
5656,63.0,384.0,960.0,12.0,64.0
5657,67.0,0.0,960.0,11.0,64.0
5658,51.0,0.0,960.0,3.0,64.0
5659,39.0,0.0,960.0,14.0,64.0
5660,51.0,0.0,960.0,13.0,64.0
5661,72.0,240.0,240.0,10.0,64.0
5662,75.0,192.0,240.0,10.0,64.0
5663,79.0,48.0,180.0,10.0,64.0
5664,62.0,0.0,480.0,11.0,64.0
5665,65.0,0.0,870.0,11.0,64.0
5666,53.0,0.0,780.0,13.0,64.0
5667,65.0,60.0,480.0,12.0,64.0
5668,53.0,0.0,780.0,3.0,64.0
5669,70.0,96.0,390.0,10.0,64.0
5670,41.0,96.0,780.0,14.0,64.0
5671,74.0,228.0,60.0,10.0,64.0
5672,63.0,0.0,390.0,11.0,64.0
5673,69.0,12.0,390.0,12.0,64.0
5674,72.0,180.0,330.0,10.0,64.0
5675,61.0,0.0,900.0,2.0,64.0
5676,65.0,24.0,900.0,2.0,64.0
5677,70.0,48.0,780.0,5.0,64.0
5678,58.0,0.0,780.0,5.0,64.0
5679,70.0,0.0,570.0,10.0,64.0
5680,58.0,0.0,570.0,10.0,64.0
5681,46.0,12.0,390.0,6.0,64.0
5682,58.0,0.0,900.0,1.0,64.0
5683,65.0,60.0,90.0,11.0,64.0
5684,46.0,36.0,150.0,3.0,64.0
5685,61.0,0.0,90.0,11.0,64.0
5686,58.0,0.0,900.0,0.0,64.0
5687,58.0,0.0,90.0,12.0,64.0
5688,34.0,24.0,180.0,14.0,64.0
5689,46.0,0.0,780.0,4.0,64.0
5690,58.0,0.0,780.0,4.0,64.0
5691,46.0,0.0,150.0,13.0,64.0
5692,58.0,0.0,90.0,12.0,64.0
5693,65.0,0.0,90.0,11.0,64.0
5694,61.0,120.0,90.0,11.0,64.0
5695,58.0,36.0,150.0,13.0,64.0
5696,58.0,48.0,90.0,12.0,64.0
5697,61.0,0.0,90.0,11.0,64.0
5698,65.0,0.0,90.0,11.0,64.0
5699,46.0,24.0,180.0,14.0,64.0
5700,58.0,0.0,150.0,3.0,64.0
5701,58.0,0.0,90.0,12.0,64.0
5702,61.0,120.0,90.0,11.0,64.0
5703,65.0,0.0,90.0,11.0,64.0
5704,58.0,0.0,150.0,13.0,64.0
5705,58.0,36.0,150.0,3.0,64.0
5706,58.0,60.0,90.0,12.0,64.0
5707,46.0,24.0,180.0,14.0,64.0
5708,61.0,0.0,90.0,11.0,64.0
5709,65.0,0.0,90.0,11.0,64.0
5710,58.0,72.0,90.0,12.0,64.0
5711,61.0,0.0,90.0,11.0,64.0
5712,65.0,0.0,90.0,11.0,64.0
5713,58.0,0.0,150.0,13.0,64.0
5714,65.0,60.0,90.0,11.0,64.0
5715,61.0,0.0,90.0,11.0,64.0
5716,46.0,0.0,180.0,14.0,64.0
5717,58.0,0.0,90.0,12.0,64.0
5718,46.0,0.0,90.0,6.0,64.0
5719,73.0,0.0,90.0,10.0,64.0
5720,58.0,36.0,150.0,3.0,64.0
5721,70.0,0.0,90.0,10.0,64.0
5722,65.0,0.0,90.0,11.0,64.0
5723,58.0,0.0,90.0,12.0,64.0
5724,46.0,120.0,90.0,6.0,64.0
5725,61.0,0.0,90.0,11.0,64.0
5726,34.0,24.0,180.0,14.0,64.0
5727,78.0,120.0,1410.0,0.0,64.0
5728,78.0,0.0,570.0,10.0,64.0
5729,70.0,60.0,90.0,12.0,64.0
5730,46.0,48.0,780.0,4.0,64.0
5731,58.0,0.0,780.0,4.0,64.0
5732,82.0,0.0,1890.0,0.0,64.0
5733,46.0,12.0,390.0,6.0,64.0
5734,58.0,0.0,780.0,5.0,64.0
5735,46.0,0.0,150.0,3.0,64.0
5736,46.0,36.0,150.0,13.0,64.0
5737,73.0,0.0,1890.0,1.0,64.0
5738,61.0,0.0,90.0,11.0,64.0
5739,66.0,0.0,90.0,11.0,64.0
5740,66.0,0.0,1410.0,2.0,64.0
5741,61.0,0.0,1890.0,2.0,64.0
5742,70.0,0.0,780.0,5.0,64.0
5743,78.0,0.0,1410.0,1.0,64.0
5744,66.0,0.0,90.0,11.0,64.0
5745,61.0,120.0,90.0,11.0,64.0
5746,70.0,0.0,90.0,12.0,64.0
5747,58.0,36.0,150.0,3.0,64.0
5748,70.0,0.0,90.0,12.0,64.0
5749,46.0,24.0,180.0,14.0,64.0
5750,58.0,0.0,150.0,13.0,64.0
5751,66.0,0.0,90.0,11.0,64.0
5752,61.0,48.0,90.0,11.0,64.0
5753,61.0,0.0,90.0,11.0,64.0
5754,70.0,0.0,90.0,12.0,64.0
5755,66.0,120.0,90.0,11.0,64.0
5756,66.0,60.0,90.0,11.0,64.0
5757,61.0,0.0,90.0,11.0,64.0
5758,58.0,36.0,150.0,3.0,64.0
5759,46.0,24.0,180.0,14.0,64.0
5760,70.0,0.0,90.0,12.0,64.0
5761,58.0,0.0,150.0,13.0,64.0
5762,70.0,72.0,90.0,12.0,64.0
5763,61.0,0.0,90.0,11.0,64.0
5764,66.0,0.0,90.0,11.0,64.0
5765,58.0,0.0,150.0,13.0,64.0
5766,46.0,24.0,180.0,14.0,64.0
5767,66.0,0.0,90.0,11.0,64.0
5768,61.0,60.0,90.0,11.0,64.0
5769,73.0,0.0,90.0,10.0,64.0
5770,58.0,36.0,150.0,3.0,64.0
5771,70.0,0.0,90.0,12.0,64.0
5772,46.0,0.0,90.0,6.0,64.0
5773,61.0,0.0,90.0,11.0,64.0
5774,78.0,0.0,90.0,10.0,64.0
5775,66.0,0.0,90.0,11.0,64.0
5776,46.0,0.0,90.0,6.0,64.0
5777,70.0,120.0,90.0,12.0,64.0
5778,46.0,36.0,150.0,3.0,64.0
5779,66.0,0.0,90.0,11.0,64.0
5780,61.0,0.0,90.0,11.0,64.0
5781,46.0,0.0,150.0,13.0,64.0
5782,58.0,0.0,390.0,5.0,64.0
5783,70.0,12.0,390.0,5.0,64.0
5784,70.0,36.0,90.0,12.0,64.0
5785,34.0,24.0,180.0,14.0,64.0
5786,58.0,0.0,390.0,4.0,64.0
5787,82.0,24.0,120.0,10.0,64.0
5788,46.0,0.0,390.0,4.0,64.0
5789,46.0,0.0,180.0,6.0,64.0
5790,61.0,0.0,90.0,11.0,64.0
5791,70.0,0.0,90.0,12.0,64.0
5792,66.0,120.0,90.0,11.0,64.0
5793,58.0,0.0,150.0,13.0,64.0
5794,46.0,24.0,180.0,14.0,64.0
5795,70.0,36.0,90.0,12.0,64.0
5796,66.0,0.0,90.0,11.0,64.0
5797,78.0,12.0,120.0,10.0,64.0
5798,61.0,0.0,90.0,11.0,64.0
5799,58.0,36.0,150.0,3.0,64.0
5800,70.0,0.0,90.0,12.0,64.0
5801,66.0,0.0,90.0,11.0,64.0
5802,61.0,0.0,90.0,11.0,64.0
5803,34.0,24.0,180.0,14.0,64.0
5804,77.0,0.0,450.0,0.0,64.0
5805,46.0,0.0,180.0,6.0,64.0
5806,58.0,0.0,390.0,4.0,64.0
5807,46.0,0.0,390.0,4.0,64.0
5808,82.0,24.0,120.0,10.0,64.0
5809,46.0,0.0,150.0,13.0,64.0
5810,65.0,156.0,450.0,2.0,64.0
5811,70.0,36.0,90.0,12.0,64.0
5812,58.0,0.0,390.0,5.0,64.0
5813,70.0,12.0,390.0,5.0,64.0
5814,65.0,0.0,90.0,11.0,64.0
5815,61.0,0.0,90.0,11.0,64.0
5816,46.0,36.0,150.0,3.0,64.0
5817,77.0,0.0,450.0,1.0,64.0
5818,70.0,0.0,90.0,12.0,64.0
5819,65.0,0.0,90.0,11.0,64.0
5820,61.0,120.0,90.0,11.0,64.0
5821,58.0,0.0,150.0,3.0,64.0
5822,70.0,0.0,90.0,12.0,64.0
5823,58.0,36.0,150.0,13.0,64.0
5824,65.0,0.0,90.0,11.0,64.0
5825,77.0,12.0,120.0,10.0,64.0
5826,61.0,36.0,90.0,11.0,64.0
5827,46.0,24.0,180.0,14.0,64.0
5828,61.0,0.0,90.0,11.0,64.0
5829,70.0,0.0,90.0,12.0,64.0
5830,65.0,0.0,90.0,11.0,64.0
5831,76.0,240.0,120.0,10.0,64.0
5832,46.0,0.0,390.0,14.0,64.0
5833,58.0,72.0,390.0,13.0,64.0
5834,84.0,0.0,450.0,0.0,64.0
5835,46.0,0.0,390.0,4.0,64.0
5836,67.0,0.0,450.0,2.0,64.0
5837,58.0,0.0,390.0,3.0,64.0
5838,60.0,0.0,390.0,11.0,64.0
5839,60.0,0.0,390.0,4.0,64.0
5840,76.0,0.0,450.0,0.0,64.0
5841,46.0,0.0,390.0,6.0,64.0
5842,64.0,408.0,450.0,2.0,64.0
5843,67.0,0.0,390.0,12.0,64.0
5844,70.0,0.0,390.0,5.0,64.0
5845,58.0,0.0,390.0,5.0,64.0
5846,76.0,0.0,450.0,1.0,64.0
5847,72.0,0.0,930.0,1.0,64.0
5848,84.0,12.0,120.0,10.0,64.0
5849,72.0,24.0,450.0,0.0,64.0
5850,65.0,0.0,960.0,10.0,64.0
5851,75.0,288.0,960.0,10.0,64.0
5852,53.0,0.0,390.0,4.0,64.0
5853,57.0,0.0,480.0,13.0,64.0
5854,57.0,0.0,480.0,3.0,64.0
5855,65.0,0.0,390.0,5.0,64.0
5856,60.0,0.0,450.0,2.0,64.0
5857,75.0,0.0,450.0,0.0,64.0
5858,63.0,0.0,450.0,2.0,64.0
5859,75.0,0.0,450.0,1.0,64.0
5860,41.0,0.0,390.0,6.0,64.0
5861,60.0,72.0,390.0,4.0,64.0
5862,45.0,0.0,480.0,14.0,64.0
5863,60.0,480.0,15.0,12.0,64.0
5864,65.0,0.0,15.0,11.0,64.0
5865,45.0,0.0,480.0,14.0,64.0
5866,57.0,0.0,480.0,13.0,64.0
5867,57.0,0.0,480.0,3.0,64.0
5868,58.0,0.0,450.0,13.0,64.0
5869,46.0,0.0,450.0,14.0,64.0
5870,58.0,0.0,390.0,3.0,64.0
5871,58.0,168.0,450.0,12.0,64.0
5872,74.0,72.0,390.0,10.0,64.0
5873,38.0,0.0,150.0,14.0,64.0
5874,50.0,480.0,150.0,13.0,64.0
5875,71.0,0.0,150.0,10.0,64.0
5876,65.0,0.0,150.0,12.0,64.0
5877,68.0,0.0,150.0,11.0,64.0
5878,51.0,0.0,150.0,13.0,64.0
5879,60.0,0.0,480.0,2.0,64.0
5880,63.0,0.0,150.0,12.0,64.0
5881,39.0,0.0,150.0,14.0,64.0
5882,67.0,0.0,150.0,11.0,64.0
5883,72.0,336.0,150.0,10.0,64.0
5884,48.0,480.0,480.0,3.0,64.0
5885,72.0,0.0,480.0,0.0,64.0
5886,59.0,384.0,480.0,2.0,64.0
5887,71.0,0.0,480.0,0.0,64.0
5888,47.0,0.0,480.0,3.0,64.0
5889,72.0,0.0,390.0,0.0,64.0
5890,48.0,0.0,390.0,3.0,64.0
5891,60.0,240.0,390.0,2.0,64.0
5892,41.0,0.0,150.0,14.0,64.0
5893,70.0,0.0,150.0,11.0,64.0
5894,53.0,480.0,150.0,13.0,64.0
5895,58.0,0.0,150.0,11.0,64.0
5896,74.0,0.0,150.0,10.0,64.0
5897,68.0,0.0,150.0,12.0,64.0
5898,43.0,0.0,150.0,14.0,64.0
5899,63.0,0.0,480.0,2.0,64.0
5900,51.0,480.0,480.0,3.0,64.0
5901,55.0,0.0,150.0,13.0,64.0
5902,58.0,0.0,150.0,11.0,64.0
5903,70.0,0.0,150.0,11.0,64.0
5904,75.0,0.0,480.0,0.0,64.0
5905,67.0,0.0,150.0,12.0,64.0
5906,75.0,336.0,150.0,10.0,64.0
5907,74.0,0.0,480.0,0.0,64.0
5908,62.0,384.0,480.0,2.0,64.0
5909,50.0,0.0,480.0,3.0,64.0
5910,63.0,0.0,390.0,2.0,64.0
5911,75.0,0.0,390.0,0.0,64.0
5912,51.0,456.0,390.0,3.0,64.0
5913,51.0,0.0,1140.0,13.0,64.0
5914,55.0,0.0,1860.0,3.0,64.0
5915,79.0,0.0,1860.0,1.0,64.0
5916,70.0,0.0,1860.0,1.0,64.0
5917,39.0,0.0,1140.0,14.0,64.0
5918,58.0,0.0,1140.0,11.0,64.0
5919,55.0,240.0,1140.0,12.0,64.0
5920,79.0,120.0,120.0,10.0,64.0
5921,78.0,120.0,120.0,10.0,64.0
5922,79.0,120.0,120.0,10.0,64.0
5923,78.0,120.0,120.0,10.0,64.0
5924,79.0,120.0,120.0,10.0,64.0
5925,78.0,180.0,120.0,10.0,64.0
5926,79.0,408.0,900.0,10.0,64.0
5927,39.0,240.0,180.0,14.0,64.0
5928,55.0,0.0,180.0,12.0,64.0
5929,51.0,0.0,180.0,13.0,64.0
5930,58.0,0.0,180.0,11.0,64.0
5931,58.0,0.0,180.0,11.0,64.0
5932,51.0,0.0,180.0,13.0,64.0
5933,39.0,0.0,180.0,14.0,64.0
5934,55.0,240.0,180.0,12.0,64.0
5935,58.0,12.0,180.0,11.0,64.0
5936,55.0,0.0,180.0,12.0,64.0
5937,39.0,0.0,180.0,14.0,64.0
5938,51.0,0.0,180.0,13.0,64.0
5939,51.0,0.0,1140.0,13.0,64.0
5940,60.0,0.0,1140.0,11.0,64.0
5941,78.0,0.0,1860.0,1.0,64.0
5942,69.0,0.0,1860.0,1.0,64.0
5943,39.0,240.0,1140.0,14.0,64.0
5944,57.0,0.0,1140.0,12.0,64.0
5945,54.0,0.0,1860.0,3.0,64.0
5946,51.0,228.0,1860.0,3.0,64.0
5947,78.0,120.0,120.0,10.0,64.0
5948,77.0,120.0,120.0,10.0,64.0
5949,78.0,120.0,120.0,10.0,64.0
5950,77.0,120.0,120.0,10.0,64.0
5951,78.0,120.0,120.0,10.0,64.0
5952,77.0,180.0,120.0,10.0,64.0
5953,78.0,0.0,900.0,10.0,64.0
5954,51.0,0.0,180.0,13.0,64.0
5955,60.0,0.0,180.0,11.0,64.0
5956,57.0,240.0,180.0,12.0,64.0
5957,39.0,0.0,180.0,14.0,64.0
5958,51.0,0.0,180.0,13.0,64.0
5959,57.0,0.0,180.0,12.0,64.0
5960,39.0,240.0,180.0,14.0,64.0
5961,60.0,0.0,180.0,11.0,64.0
5962,39.0,0.0,180.0,14.0,64.0
5963,57.0,12.0,180.0,12.0,64.0
5964,51.0,0.0,180.0,13.0,64.0
5965,60.0,0.0,180.0,11.0,64.0
5966,53.0,180.0,480.0,3.0,64.0
5967,77.0,0.0,480.0,1.0,64.0
5968,70.0,0.0,480.0,1.0,64.0
5969,58.0,0.0,180.0,12.0,64.0
5970,62.0,180.0,180.0,11.0,64.0
5971,50.0,0.0,180.0,13.0,64.0
5972,38.0,0.0,180.0,14.0,64.0
5973,50.0,0.0,480.0,3.0,64.0
5974,77.0,96.0,120.0,10.0,64.0
5975,74.0,24.0,90.0,10.0,64.0
5976,39.0,180.0,180.0,14.0,64.0
5977,51.0,0.0,180.0,13.0,64.0
5978,60.0,0.0,180.0,12.0,64.0
5979,67.0,0.0,180.0,11.0,64.0
5980,48.0,180.0,480.0,3.0,64.0
5981,51.0,0.0,480.0,3.0,64.0
5982,72.0,0.0,480.0,1.0,64.0
5983,75.0,0.0,480.0,1.0,64.0
5984,75.0,96.0,120.0,10.0,64.0
5985,72.0,24.0,90.0,10.0,64.0
5986,70.0,0.0,480.0,1.0,64.0
5987,74.0,0.0,480.0,1.0,64.0
5988,65.0,0.0,180.0,11.0,64.0
5989,62.0,0.0,180.0,12.0,64.0
5990,46.0,0.0,480.0,3.0,64.0
5991,41.0,180.0,180.0,14.0,64.0
5992,50.0,180.0,480.0,3.0,64.0
5993,53.0,0.0,180.0,13.0,64.0
5994,74.0,96.0,120.0,10.0,64.0
5995,70.0,24.0,90.0,10.0,64.0
5996,72.0,0.0,390.0,1.0,64.0
5997,29.0,0.0,180.0,14.0,64.0
5998,41.0,0.0,180.0,13.0,64.0
5999,69.0,0.0,390.0,1.0,64.0
6000,48.0,0.0,390.0,3.0,64.0
6001,65.0,0.0,180.0,11.0,64.0
6002,63.0,0.0,180.0,11.0,64.0
6003,60.0,180.0,180.0,12.0,64.0
6004,45.0,72.0,390.0,3.0,64.0
6005,72.0,24.0,120.0,10.0,64.0
6006,69.0,120.0,90.0,10.0,64.0
6007,34.0,0.0,390.0,14.0,64.0
6008,46.0,0.0,390.0,4.0,64.0
6009,74.0,0.0,390.0,0.0,64.0
6010,77.0,0.0,390.0,0.0,64.0
6011,53.0,0.0,390.0,11.0,64.0
6012,65.0,0.0,390.0,11.0,64.0
6013,62.0,0.0,390.0,11.0,64.0
6014,46.0,0.0,390.0,6.0,64.0
6015,58.0,0.0,390.0,12.0,64.0
6016,58.0,0.0,390.0,5.0,64.0
6017,58.0,0.0,390.0,4.0,64.0
6018,65.0,0.0,390.0,2.0,64.0
6019,46.0,72.0,390.0,3.0,64.0
6020,70.0,0.0,390.0,5.0,64.0
6021,70.0,0.0,390.0,1.0,64.0
6022,70.0,120.0,90.0,10.0,64.0
6023,62.0,0.0,390.0,2.0,64.0
6024,46.0,0.0,390.0,13.0,64.0
6025,70.0,120.0,90.0,10.0,64.0
6026,65.0,48.0,90.0,10.0,64.0
6027,65.0,120.0,90.0,10.0,64.0
6028,62.0,120.0,90.0,10.0,64.0
6029,62.0,120.0,90.0,10.0,64.0
6030,58.0,120.0,90.0,10.0,64.0
6031,58.0,120.0,90.0,10.0,64.0
6032,57.0,0.0,390.0,12.0,64.0
6033,41.0,0.0,390.0,6.0,64.0
6034,72.0,120.0,90.0,10.0,64.0
6035,77.0,0.0,390.0,0.0,64.0
6036,33.0,0.0,390.0,14.0,64.0
6037,72.0,0.0,390.0,1.0,64.0
6038,65.0,0.0,390.0,1.0,64.0
6039,45.0,0.0,390.0,13.0,64.0
6040,65.0,0.0,390.0,2.0,64.0
6041,63.0,0.0,390.0,2.0,64.0
6042,53.0,0.0,390.0,4.0,64.0
6043,60.0,0.0,390.0,4.0,64.0
6044,65.0,0.0,390.0,11.0,64.0
6045,65.0,0.0,390.0,5.0,64.0
6046,45.0,0.0,390.0,3.0,64.0
6047,63.0,0.0,390.0,11.0,64.0
6048,53.0,72.0,390.0,11.0,64.0
6049,72.0,0.0,390.0,5.0,64.0
6050,75.0,0.0,390.0,0.0,64.0
6051,72.0,120.0,90.0,10.0,64.0
6052,69.0,48.0,90.0,10.0,64.0
6053,69.0,120.0,90.0,10.0,64.0
6054,65.0,120.0,90.0,10.0,64.0
6055,65.0,120.0,90.0,10.0,64.0
6056,60.0,120.0,90.0,10.0,64.0
6057,60.0,120.0,90.0,10.0,64.0
6058,46.0,0.0,390.0,6.0,64.0
6059,77.0,0.0,390.0,0.0,64.0
6060,74.0,120.0,90.0,10.0,64.0
6061,62.0,72.0,390.0,4.0,64.0
6062,46.0,0.0,390.0,3.0,64.0
6063,74.0,0.0,390.0,0.0,64.0
6064,65.0,0.0,390.0,2.0,64.0
6065,70.0,0.0,390.0,5.0,64.0
6066,65.0,0.0,390.0,11.0,64.0
6067,62.0,0.0,390.0,2.0,64.0
6068,53.0,0.0,390.0,11.0,64.0
6069,46.0,0.0,390.0,13.0,64.0
6070,65.0,0.0,390.0,1.0,64.0
6071,74.0,0.0,390.0,1.0,64.0
6072,34.0,0.0,390.0,14.0,64.0
6073,58.0,0.0,390.0,12.0,64.0
6074,58.0,0.0,390.0,4.0,64.0
6075,74.0,0.0,390.0,5.0,64.0
6076,62.0,0.0,390.0,11.0,64.0
6077,74.0,120.0,90.0,10.0,64.0
6078,70.0,48.0,90.0,10.0,64.0
6079,70.0,120.0,90.0,10.0,64.0
6080,65.0,120.0,90.0,10.0,64.0
6081,65.0,120.0,90.0,10.0,64.0
6082,62.0,120.0,90.0,10.0,64.0
6083,62.0,120.0,90.0,10.0,64.0
6084,75.0,0.0,390.0,1.0,64.0
6085,41.0,0.0,390.0,6.0,64.0
6086,36.0,0.0,390.0,14.0,64.0
6087,65.0,0.0,390.0,1.0,64.0
6088,65.0,0.0,390.0,5.0,64.0
6089,48.0,0.0,390.0,3.0,64.0
6090,81.0,0.0,390.0,0.0,64.0
6091,75.0,120.0,90.0,10.0,64.0
6092,60.0,0.0,390.0,4.0,64.0
6093,53.0,0.0,390.0,4.0,64.0
6094,60.0,0.0,390.0,12.0,64.0
6095,48.0,0.0,390.0,13.0,64.0
6096,60.0,0.0,390.0,11.0,64.0
6097,69.0,0.0,390.0,11.0,64.0
6098,53.0,0.0,390.0,11.0,64.0
6099,67.0,72.0,390.0,2.0,64.0
6100,65.0,0.0,390.0,2.0,64.0
6101,77.0,0.0,390.0,0.0,64.0
6102,72.0,0.0,390.0,5.0,64.0
6103,75.0,120.0,90.0,10.0,64.0
6104,72.0,48.0,90.0,10.0,64.0
6105,72.0,120.0,90.0,10.0,64.0
6106,69.0,120.0,90.0,10.0,64.0
6107,69.0,120.0,90.0,10.0,64.0
6108,63.0,120.0,90.0,10.0,64.0
6109,63.0,120.0,90.0,10.0,64.0
6110,77.0,120.0,90.0,10.0,64.0
6111,50.0,0.0,390.0,3.0,64.0
6112,70.0,0.0,390.0,1.0,64.0
6113,70.0,0.0,390.0,5.0,64.0
6114,58.0,0.0,390.0,5.0,64.0
6115,58.0,0.0,390.0,4.0,64.0
6116,77.0,0.0,390.0,0.0,64.0
6117,65.0,0.0,390.0,2.0,64.0
6118,62.0,0.0,390.0,2.0,64.0
6119,50.0,0.0,390.0,13.0,64.0
6120,46.0,0.0,390.0,6.0,64.0
6121,53.0,0.0,390.0,11.0,64.0
6122,62.0,0.0,390.0,11.0,64.0
6123,70.0,72.0,390.0,11.0,64.0
6124,46.0,0.0,390.0,4.0,64.0
6125,82.0,0.0,390.0,0.0,64.0
6126,62.0,0.0,390.0,12.0,64.0
6127,38.0,0.0,390.0,14.0,64.0
6128,74.0,0.0,390.0,1.0,64.0
6129,77.0,120.0,90.0,10.0,64.0
6130,74.0,48.0,90.0,10.0,64.0
6131,74.0,120.0,90.0,10.0,64.0
6132,82.0,120.0,90.0,10.0,64.0
6133,65.0,0.0,2100.0,1.0,64.0
6134,77.0,0.0,2100.0,1.0,64.0
6135,82.0,120.0,90.0,10.0,64.0
6136,62.0,0.0,150.0,12.0,64.0
6137,77.0,60.0,90.0,10.0,64.0
6138,77.0,0.0,90.0,11.0,64.0
6139,50.0,60.0,150.0,13.0,64.0
6140,53.0,0.0,150.0,4.0,64.0
6141,50.0,0.0,150.0,3.0,64.0
6142,38.0,0.0,150.0,14.0,64.0
6143,77.0,0.0,90.0,11.0,64.0
6144,77.0,120.0,90.0,10.0,64.0
6145,36.0,0.0,150.0,14.0,64.0
6146,60.0,0.0,150.0,12.0,64.0
6147,75.0,0.0,90.0,11.0,64.0
6148,75.0,60.0,90.0,10.0,64.0
6149,53.0,60.0,150.0,4.0,64.0
6150,48.0,0.0,150.0,3.0,64.0
6151,48.0,0.0,150.0,13.0,64.0
6152,75.0,120.0,90.0,10.0,64.0
6153,75.0,0.0,90.0,11.0,64.0
6154,45.0,0.0,150.0,13.0,64.0
6155,45.0,0.0,150.0,3.0,64.0
6156,57.0,0.0,150.0,12.0,64.0
6157,53.0,60.0,150.0,4.0,64.0
6158,72.0,60.0,90.0,11.0,64.0
6159,72.0,0.0,90.0,10.0,64.0
6160,33.0,0.0,150.0,14.0,64.0
6161,72.0,0.0,90.0,10.0,64.0
6162,72.0,120.0,90.0,11.0,64.0
6163,53.0,60.0,150.0,12.0,64.0
6164,29.0,0.0,150.0,14.0,64.0
6165,53.0,0.0,150.0,4.0,64.0
6166,41.0,0.0,150.0,13.0,64.0
6167,41.0,0.0,150.0,3.0,64.0
6168,69.0,60.0,90.0,11.0,64.0
6169,69.0,0.0,90.0,10.0,64.0
6170,69.0,0.0,90.0,11.0,64.0
6171,69.0,120.0,90.0,10.0,64.0
6172,63.0,60.0,90.0,11.0,64.0
6173,45.0,0.0,150.0,3.0,64.0
6174,48.0,0.0,150.0,12.0,64.0
6175,33.0,60.0,150.0,14.0,64.0
6176,45.0,0.0,150.0,13.0,64.0
6177,53.0,0.0,150.0,4.0,64.0
6178,63.0,0.0,90.0,10.0,64.0
6179,63.0,264.0,90.0,10.0,64.0
6180,63.0,0.0,90.0,11.0,64.0
6181,34.0,0.0,240.0,14.0,64.0
6182,41.0,96.0,390.0,6.0,64.0
6183,62.0,0.0,240.0,11.0,64.0
6184,62.0,0.0,240.0,2.0,64.0
6185,46.0,0.0,240.0,3.0,64.0
6186,46.0,0.0,480.0,12.0,64.0
6187,65.0,0.0,660.0,5.0,64.0
6188,46.0,0.0,240.0,13.0,64.0
6189,62.0,0.0,240.0,10.0,64.0
6190,53.0,0.0,660.0,5.0,64.0
6191,74.0,0.0,240.0,0.0,64.0
6192,41.0,168.0,660.0,4.0,64.0
6193,53.0,0.0,660.0,4.0,64.0
6194,65.0,0.0,240.0,11.0,64.0
6195,50.0,192.0,240.0,3.0,64.0
6196,70.0,144.0,15.0,2.0,64.0
6197,50.0,0.0,240.0,13.0,64.0
6198,65.0,0.0,240.0,10.0,64.0
6199,77.0,0.0,240.0,0.0,64.0
6200,65.0,0.0,240.0,2.0,64.0
6201,38.0,0.0,240.0,14.0,64.0
6202,75.0,0.0,180.0,0.0,64.0
6203,63.0,0.0,180.0,11.0,64.0
6204,48.0,0.0,180.0,13.0,64.0
6205,36.0,0.0,180.0,14.0,64.0
6206,69.0,0.0,180.0,2.0,64.0
6207,63.0,0.0,180.0,2.0,64.0
6208,45.0,0.0,180.0,12.0,64.0
6209,48.0,0.0,180.0,3.0,64.0
6210,63.0,0.0,180.0,10.0,64.0
6211,72.0,96.0,120.0,10.0,64.0
6212,74.0,102.0,90.0,10.0,64.0
6213,75.0,120.0,90.0,10.0,64.0
6214,74.0,120.0,90.0,10.0,64.0
6215,72.0,120.0,90.0,10.0,64.0
6216,70.0,120.0,90.0,10.0,64.0
6217,69.0,120.0,90.0,10.0,64.0
6218,67.0,120.0,90.0,10.0,64.0
6219,65.0,120.0,90.0,10.0,64.0
6220,63.0,282.0,90.0,10.0,64.0
6221,34.0,0.0,240.0,14.0,64.0
6222,74.0,0.0,240.0,0.0,64.0
6223,65.0,0.0,660.0,1.0,64.0
6224,77.0,0.0,660.0,1.0,64.0
6225,53.0,0.0,660.0,4.0,64.0
6226,41.0,0.0,660.0,4.0,64.0
6227,62.0,0.0,240.0,10.0,64.0
6228,62.0,0.0,240.0,11.0,64.0
6229,46.0,0.0,480.0,12.0,64.0
6230,46.0,144.0,240.0,13.0,64.0
6231,46.0,0.0,240.0,3.0,64.0
6232,65.0,168.0,660.0,5.0,64.0
6233,62.0,0.0,240.0,2.0,64.0
6234,70.0,0.0,240.0,2.0,64.0
6235,53.0,0.0,660.0,5.0,64.0
6236,41.0,96.0,390.0,6.0,64.0
6237,65.0,0.0,240.0,11.0,64.0
6238,77.0,0.0,240.0,0.0,64.0
6239,50.0,0.0,240.0,13.0,64.0
6240,65.0,0.0,240.0,10.0,64.0
6241,50.0,192.0,240.0,3.0,64.0
6242,70.0,0.0,240.0,2.0,64.0
6243,65.0,0.0,240.0,2.0,64.0
6244,38.0,0.0,240.0,14.0,64.0
6245,36.0,0.0,180.0,14.0,64.0
6246,63.0,0.0,180.0,11.0,64.0
6247,63.0,0.0,180.0,2.0,64.0
6248,63.0,0.0,180.0,10.0,64.0
6249,45.0,0.0,180.0,12.0,64.0
6250,48.0,0.0,180.0,13.0,64.0
6251,75.0,0.0,180.0,0.0,64.0
6252,48.0,0.0,180.0,3.0,64.0
6253,69.0,0.0,180.0,2.0,64.0
6254,72.0,96.0,120.0,10.0,64.0
6255,74.0,102.0,90.0,10.0,64.0
6256,75.0,120.0,90.0,10.0,64.0
6257,74.0,120.0,90.0,10.0,64.0
6258,72.0,120.0,90.0,10.0,64.0
6259,70.0,120.0,90.0,10.0,64.0
6260,69.0,120.0,90.0,10.0,64.0
6261,67.0,120.0,90.0,10.0,64.0
6262,65.0,120.0,90.0,10.0,64.0
6263,63.0,138.0,90.0,10.0,64.0
6264,62.0,120.0,90.0,10.0,64.0
6265,65.0,120.0,90.0,10.0,64.0
6266,70.0,0.0,90.0,10.0,64.0
6267,70.0,120.0,90.0,11.0,64.0
6268,58.0,0.0,480.0,12.0,64.0
6269,50.0,96.0,240.0,3.0,64.0
6270,38.0,0.0,240.0,14.0,64.0
6271,50.0,0.0,240.0,13.0,64.0
6272,68.0,0.0,90.0,11.0,64.0
6273,68.0,24.0,90.0,10.0,64.0
6274,51.0,96.0,240.0,13.0,64.0
6275,67.0,0.0,90.0,11.0,64.0
6276,39.0,0.0,240.0,14.0,64.0
6277,51.0,0.0,240.0,3.0,64.0
6278,67.0,120.0,90.0,10.0,64.0
6279,63.0,0.0,90.0,11.0,64.0
6280,63.0,24.0,90.0,10.0,64.0
6281,60.0,24.0,420.0,12.0,64.0
6282,52.0,96.0,240.0,3.0,64.0
6283,72.0,120.0,90.0,10.0,64.0
6284,52.0,0.0,240.0,13.0,64.0
6285,40.0,0.0,240.0,14.0,64.0
6286,72.0,0.0,90.0,11.0,64.0
6287,70.0,0.0,90.0,10.0,64.0
6288,70.0,24.0,90.0,11.0,64.0
6289,41.0,0.0,240.0,14.0,64.0
6290,53.0,0.0,240.0,13.0,64.0
6291,53.0,96.0,240.0,3.0,64.0
6292,69.0,96.0,90.0,11.0,64.0
6293,69.0,0.0,90.0,10.0,64.0
6294,65.0,0.0,90.0,11.0,64.0
6295,65.0,24.0,90.0,10.0,64.0
6296,54.0,0.0,180.0,3.0,64.0
6297,54.0,0.0,180.0,13.0,64.0
6298,42.0,24.0,180.0,14.0,64.0
6299,74.0,96.0,90.0,10.0,64.0
6300,74.0,0.0,90.0,1.0,64.0
6301,74.0,0.0,90.0,11.0,64.0
6302,62.0,72.0,390.0,12.0,64.0
6303,72.0,0.0,90.0,10.0,64.0
6304,72.0,0.0,90.0,11.0,64.0
6305,72.0,120.0,90.0,1.0,64.0
6306,55.0,0.0,300.0,13.0,64.0
6307,70.0,0.0,90.0,10.0,64.0
6308,70.0,0.0,90.0,1.0,64.0
6309,55.0,0.0,300.0,3.0,64.0
6310,43.0,24.0,300.0,14.0,64.0
6311,70.0,48.0,90.0,11.0,64.0
6312,67.0,0.0,90.0,11.0,64.0
6313,67.0,96.0,90.0,10.0,64.0
6314,67.0,0.0,90.0,1.0,64.0
6315,75.0,0.0,90.0,1.0,64.0
6316,75.0,120.0,90.0,10.0,64.0
6317,63.0,24.0,420.0,12.0,64.0
6318,75.0,0.0,90.0,11.0,64.0
6319,74.0,120.0,90.0,11.0,64.0
6320,74.0,0.0,90.0,1.0,64.0
6321,74.0,0.0,90.0,10.0,64.0
6322,72.0,96.0,90.0,1.0,64.0
6323,72.0,0.0,90.0,11.0,64.0
6324,45.0,0.0,300.0,14.0,64.0
6325,53.0,0.0,390.0,4.0,64.0
6326,60.0,72.0,390.0,4.0,64.0
6327,57.0,24.0,300.0,3.0,64.0
6328,57.0,0.0,300.0,13.0,64.0
6329,72.0,0.0,90.0,10.0,64.0
6330,69.0,96.0,90.0,1.0,64.0
6331,69.0,0.0,90.0,10.0,64.0
6332,69.0,0.0,90.0,11.0,64.0
6333,77.0,0.0,90.0,11.0,64.0
6334,77.0,48.0,90.0,1.0,64.0
6335,77.0,0.0,90.0,10.0,64.0
6336,65.0,72.0,390.0,12.0,64.0
6337,75.0,120.0,90.0,1.0,64.0
6338,75.0,0.0,90.0,11.0,64.0
6339,75.0,0.0,90.0,10.0,64.0
6340,74.0,0.0,90.0,1.0,64.0
6341,46.0,24.0,300.0,14.0,64.0
6342,58.0,0.0,300.0,13.0,64.0
6343,58.0,48.0,390.0,4.0,64.0
6344,62.0,0.0,390.0,4.0,64.0
6345,74.0,0.0,90.0,11.0,64.0
6346,58.0,0.0,300.0,3.0,64.0
6347,74.0,48.0,90.0,10.0,64.0
6348,70.0,0.0,90.0,11.0,64.0
6349,70.0,0.0,90.0,1.0,64.0
6350,70.0,96.0,90.0,10.0,64.0
6351,79.0,0.0,90.0,11.0,64.0
6352,79.0,48.0,90.0,10.0,64.0
6353,67.0,24.0,180.0,12.0,64.0
6354,79.0,0.0,90.0,1.0,64.0
6355,77.0,0.0,90.0,1.0,64.0
6356,77.0,120.0,90.0,10.0,64.0
6357,77.0,0.0,90.0,11.0,64.0
6358,75.0,72.0,390.0,1.0,64.0
6359,60.0,0.0,390.0,4.0,64.0
6360,63.0,0.0,870.0,4.0,64.0
6361,67.0,0.0,390.0,12.0,64.0
6362,60.0,0.0,390.0,13.0,64.0
6363,60.0,0.0,390.0,3.0,64.0
6364,75.0,0.0,870.0,0.0,64.0
6365,75.0,120.0,90.0,10.0,64.0
6366,48.0,0.0,390.0,14.0,64.0
6367,75.0,0.0,90.0,11.0,64.0
6368,79.0,0.0,390.0,0.0,64.0
6369,74.0,0.0,90.0,10.0,64.0
6370,74.0,120.0,90.0,11.0,64.0
6371,72.0,48.0,90.0,11.0,64.0
6372,72.0,0.0,90.0,10.0,64.0
6373,74.0,120.0,90.0,11.0,64.0
6374,74.0,0.0,90.0,10.0,64.0
6375,53.0,0.0,390.0,13.0,64.0
6376,75.0,0.0,90.0,11.0,64.0
6377,65.0,0.0,390.0,12.0,64.0
6378,41.0,0.0,390.0,14.0,64.0
6379,65.0,0.0,390.0,1.0,64.0
6380,75.0,120.0,90.0,10.0,64.0
6381,72.0,0.0,390.0,1.0,64.0
6382,53.0,0.0,390.0,4.0,64.0
6383,81.0,72.0,390.0,0.0,64.0
6384,53.0,0.0,390.0,3.0,64.0
6385,77.0,0.0,90.0,11.0,64.0
6386,77.0,120.0,90.0,10.0,64.0
6387,79.0,48.0,90.0,11.0,64.0
6388,79.0,0.0,90.0,10.0,64.0
6389,81.0,0.0,90.0,10.0,64.0
6390,81.0,144.0,90.0,11.0,64.0
6391,58.0,0.0,120.0,3.0,64.0
6392,82.0,0.0,120.0,10.0,64.0
6393,46.0,0.0,120.0,14.0,64.0
6394,70.0,0.0,120.0,12.0,64.0
6395,58.0,120.0,120.0,13.0,64.0
6396,58.0,0.0,780.0,2.0,64.0
6397,82.0,0.0,120.0,0.0,64.0
6398,58.0,96.0,390.0,4.0,64.0
6399,82.0,0.0,120.0,11.0,64.0
6400,62.0,0.0,390.0,4.0,64.0
6401,46.0,0.0,390.0,6.0,64.0
6402,70.0,72.0,780.0,1.0,64.0
6403,70.0,0.0,390.0,5.0,64.0
6404,81.0,120.0,120.0,0.0,64.0
6405,45.0,0.0,120.0,14.0,64.0
6406,57.0,0.0,120.0,3.0,64.0
6407,57.0,0.0,120.0,13.0,64.0
6408,69.0,0.0,120.0,12.0,64.0
6409,81.0,0.0,120.0,11.0,64.0
6410,81.0,0.0,120.0,10.0,64.0
6411,67.0,24.0,120.0,12.0,64.0
6412,79.0,0.0,120.0,10.0,64.0
6413,79.0,0.0,120.0,0.0,64.0
6414,55.0,0.0,120.0,3.0,64.0
6415,79.0,0.0,120.0,11.0,64.0
6416,43.0,0.0,120.0,14.0,64.0
6417,55.0,0.0,120.0,13.0,64.0
6418,54.0,0.0,120.0,3.0,64.0
6419,78.0,0.0,120.0,11.0,64.0
6420,66.0,0.0,120.0,12.0,64.0
6421,78.0,0.0,120.0,0.0,64.0
6422,54.0,0.0,120.0,13.0,64.0
6423,42.0,120.0,120.0,14.0,64.0
6424,78.0,0.0,120.0,10.0,64.0
6425,58.0,48.0,180.0,4.0,64.0
6426,62.0,0.0,180.0,4.0,64.0
6427,55.0,0.0,120.0,13.0,64.0
6428,79.0,0.0,120.0,0.0,64.0
6429,55.0,0.0,120.0,3.0,64.0
6430,67.0,72.0,120.0,12.0,64.0
6431,79.0,0.0,120.0,10.0,64.0
6432,79.0,0.0,120.0,11.0,64.0
6433,43.0,0.0,120.0,14.0,64.0
6434,77.0,0.0,120.0,11.0,64.0
6435,53.0,0.0,120.0,13.0,64.0
6436,41.0,0.0,120.0,14.0,64.0
6437,77.0,48.0,120.0,0.0,64.0
6438,77.0,0.0,120.0,10.0,64.0
6439,65.0,0.0,120.0,12.0,64.0
6440,53.0,0.0,120.0,3.0,64.0
6441,62.0,0.0,180.0,4.0,64.0
6442,58.0,24.0,180.0,4.0,64.0
6443,75.0,0.0,120.0,10.0,64.0
6444,51.0,0.0,120.0,3.0,64.0
6445,75.0,0.0,120.0,11.0,64.0
6446,51.0,0.0,120.0,13.0,64.0
6447,39.0,72.0,120.0,14.0,64.0
6448,63.0,0.0,120.0,12.0,64.0
6449,75.0,0.0,120.0,0.0,64.0
6450,50.0,120.0,120.0,13.0,64.0
6451,74.0,24.0,90.0,10.0,64.0
6452,62.0,0.0,120.0,12.0,64.0
6453,74.0,0.0,90.0,11.0,64.0
6454,38.0,0.0,120.0,14.0,64.0
6455,74.0,0.0,90.0,0.0,64.0
6456,50.0,0.0,120.0,3.0,64.0
6457,51.0,0.0,120.0,13.0,64.0
6458,63.0,0.0,120.0,12.0,64.0
6459,39.0,0.0,120.0,14.0,64.0
6460,58.0,0.0,390.0,4.0,64.0
6461,60.0,0.0,390.0,4.0,64.0
6462,51.0,120.0,120.0,3.0,64.0
6463,75.0,0.0,120.0,11.0,64.0
6464,46.0,96.0,390.0,6.0,64.0
6465,79.0,72.0,780.0,1.0,64.0
6466,75.0,0.0,120.0,0.0,64.0
6467,67.0,0.0,780.0,2.0,64.0
6468,75.0,0.0,120.0,10.0,64.0
6469,70.0,0.0,390.0,5.0,64.0
6470,74.0,0.0,120.0,11.0,64.0
6471,74.0,0.0,120.0,0.0,64.0
6472,50.0,0.0,120.0,13.0,64.0
6473,38.0,0.0,120.0,14.0,64.0
6474,62.0,120.0,120.0,12.0,64.0
6475,50.0,0.0,120.0,3.0,64.0
6476,74.0,0.0,120.0,10.0,64.0
6477,36.0,0.0,120.0,14.0,64.0
6478,48.0,0.0,120.0,13.0,64.0
6479,72.0,0.0,120.0,10.0,64.0
6480,72.0,24.0,120.0,0.0,64.0
6481,48.0,0.0,120.0,3.0,64.0
6482,72.0,0.0,120.0,11.0,64.0
6483,60.0,0.0,120.0,12.0,64.0
6484,46.0,0.0,120.0,3.0,64.0
6485,70.0,0.0,120.0,11.0,64.0
6486,70.0,0.0,120.0,10.0,64.0
6487,46.0,120.0,120.0,13.0,64.0
6488,34.0,0.0,120.0,14.0,64.0
6489,70.0,0.0,120.0,0.0,64.0
6490,58.0,0.0,120.0,12.0,64.0
6491,72.0,0.0,120.0,10.0,64.0
6492,72.0,0.0,120.0,0.0,64.0
6493,60.0,0.0,120.0,12.0,64.0
6494,60.0,48.0,180.0,4.0,64.0
6495,72.0,0.0,120.0,11.0,64.0
6496,48.0,72.0,120.0,3.0,64.0
6497,36.0,0.0,120.0,14.0,64.0
6498,58.0,0.0,180.0,4.0,64.0
6499,48.0,0.0,120.0,13.0,64.0
6500,70.0,0.0,120.0,11.0,64.0
6501,34.0,0.0,120.0,14.0,64.0
6502,58.0,0.0,120.0,12.0,64.0
6503,70.0,48.0,120.0,10.0,64.0
6504,70.0,0.0,120.0,0.0,64.0
6505,46.0,0.0,120.0,3.0,64.0
6506,46.0,0.0,120.0,13.0,64.0
6507,45.0,72.0,120.0,13.0,64.0
6508,33.0,0.0,120.0,14.0,64.0
6509,69.0,0.0,120.0,0.0,64.0
6510,57.0,0.0,120.0,12.0,64.0
6511,69.0,0.0,120.0,11.0,64.0
6512,58.0,24.0,180.0,4.0,64.0
6513,69.0,0.0,120.0,10.0,64.0
6514,60.0,0.0,180.0,4.0,64.0
6515,45.0,0.0,120.0,3.0,64.0
6516,67.0,0.0,90.0,10.0,64.0
6517,67.0,0.0,90.0,11.0,64.0
6518,31.0,0.0,90.0,14.0,64.0
6519,43.0,0.0,90.0,3.0,64.0
6520,67.0,0.0,90.0,0.0,64.0
6521,43.0,0.0,90.0,13.0,64.0
6522,55.0,180.0,90.0,12.0,64.0
6523,60.0,0.0,390.0,4.0,64.0
6524,53.0,0.0,390.0,4.0,64.0
6525,41.0,0.0,390.0,6.0,64.0
6526,77.0,0.0,390.0,1.0,64.0
6527,65.0,0.0,150.0,10.0,64.0
6528,29.0,0.0,150.0,14.0,64.0
6529,41.0,0.0,150.0,3.0,64.0
6530,65.0,0.0,150.0,0.0,64.0
6531,65.0,0.0,390.0,5.0,64.0
6532,41.0,0.0,150.0,13.0,64.0
6533,65.0,162.0,150.0,11.0,64.0
6534,53.0,0.0,150.0,12.0,64.0
6535,65.0,12.0,390.0,2.0,64.0
6536,69.0,66.0,90.0,0.0,64.0
6537,63.0,0.0,150.0,12.0,64.0
6538,45.0,0.0,90.0,3.0,64.0
6539,69.0,0.0,90.0,11.0,64.0
6540,51.0,42.0,150.0,13.0,64.0
6541,69.0,0.0,90.0,10.0,64.0
6542,39.0,0.0,150.0,14.0,64.0
6543,72.0,198.0,90.0,10.0,64.0
6544,72.0,0.0,90.0,11.0,64.0
6545,48.0,0.0,90.0,3.0,64.0
6546,72.0,0.0,90.0,0.0,64.0
6547,62.0,0.0,150.0,12.0,64.0
6548,77.0,0.0,150.0,11.0,64.0
6549,77.0,0.0,150.0,10.0,64.0
6550,58.0,204.0,180.0,4.0,64.0
6551,62.0,0.0,180.0,4.0,64.0
6552,38.0,0.0,150.0,14.0,64.0
6553,50.0,0.0,150.0,13.0,64.0
6554,53.0,36.0,150.0,3.0,64.0
6555,77.0,0.0,150.0,0.0,64.0
6556,46.0,0.0,150.0,13.0,64.0
6557,70.0,0.0,180.0,1.0,64.0
6558,77.0,204.0,180.0,1.0,64.0
6559,82.0,0.0,150.0,0.0,64.0
6560,62.0,0.0,180.0,4.0,64.0
6561,50.0,0.0,150.0,3.0,64.0
6562,65.0,0.0,180.0,4.0,64.0
6563,77.0,0.0,150.0,10.0,64.0
6564,58.0,0.0,150.0,10.0,64.0
6565,65.0,0.0,150.0,10.0,64.0
6566,65.0,0.0,150.0,11.0,64.0
6567,77.0,0.0,150.0,11.0,64.0
6568,58.0,0.0,150.0,12.0,64.0
6569,58.0,0.0,150.0,11.0,64.0
6570,34.0,36.0,150.0,14.0,64.0
6571,39.0,0.0,150.0,14.0,64.0
6572,79.0,0.0,180.0,0.0,64.0
6573,63.0,0.0,180.0,4.0,64.0
6574,60.0,0.0,180.0,4.0,64.0
6575,51.0,0.0,150.0,3.0,64.0
6576,67.0,204.0,180.0,1.0,64.0
6577,75.0,0.0,180.0,1.0,64.0
6578,75.0,0.0,180.0,10.0,64.0
6579,67.0,0.0,180.0,10.0,64.0
6580,58.0,0.0,180.0,11.0,64.0
6581,75.0,0.0,180.0,11.0,64.0
6582,63.0,36.0,150.0,12.0,64.0
6583,58.0,0.0,180.0,10.0,64.0
6584,67.0,0.0,180.0,11.0,64.0
6585,51.0,0.0,150.0,13.0,64.0
6586,48.0,0.0,150.0,3.0,64.0
6587,36.0,0.0,150.0,14.0,64.0
6588,48.0,240.0,150.0,13.0,64.0
6589,60.0,0.0,150.0,12.0,64.0
6590,53.0,36.0,150.0,13.0,64.0
6591,65.0,0.0,150.0,12.0,64.0
6592,72.0,0.0,180.0,10.0,64.0
6593,69.0,0.0,180.0,10.0,64.0
6594,65.0,0.0,180.0,10.0,64.0
6595,41.0,0.0,150.0,14.0,64.0
6596,69.0,0.0,180.0,11.0,64.0
6597,72.0,0.0,180.0,11.0,64.0
6598,65.0,0.0,180.0,11.0,64.0
6599,53.0,0.0,180.0,4.0,64.0
6600,60.0,0.0,180.0,4.0,64.0
6601,72.0,0.0,180.0,1.0,64.0
6602,69.0,0.0,180.0,1.0,64.0
6603,77.0,204.0,180.0,0.0,64.0
6604,53.0,0.0,150.0,3.0,64.0
6605,41.0,0.0,150.0,3.0,64.0
6606,53.0,0.0,150.0,12.0,64.0
6607,29.0,204.0,150.0,14.0,64.0
6608,41.0,0.0,150.0,13.0,64.0
6609,46.0,0.0,120.0,14.0,64.0
6610,70.0,72.0,780.0,1.0,64.0
6611,70.0,96.0,390.0,5.0,64.0
6612,70.0,0.0,120.0,12.0,64.0
6613,58.0,0.0,780.0,2.0,64.0
6614,62.0,0.0,390.0,4.0,64.0
6615,58.0,0.0,390.0,4.0,64.0
6616,58.0,0.0,120.0,3.0,64.0
6617,82.0,0.0,120.0,0.0,64.0
6618,46.0,0.0,390.0,6.0,64.0
6619,58.0,0.0,120.0,13.0,64.0
6620,82.0,0.0,120.0,10.0,64.0
6621,82.0,120.0,120.0,11.0,64.0
6622,81.0,0.0,120.0,10.0,64.0
6623,57.0,0.0,120.0,3.0,64.0
6624,45.0,120.0,120.0,14.0,64.0
6625,69.0,0.0,120.0,12.0,64.0
6626,81.0,0.0,120.0,0.0,64.0
6627,57.0,0.0,120.0,13.0,64.0
6628,81.0,0.0,120.0,11.0,64.0
6629,55.0,0.0,120.0,13.0,64.0
6630,67.0,0.0,120.0,12.0,64.0
6631,79.0,0.0,120.0,0.0,64.0
6632,79.0,0.0,120.0,11.0,64.0
6633,55.0,0.0,120.0,3.0,64.0
6634,79.0,24.0,120.0,10.0,64.0
6635,43.0,0.0,120.0,14.0,64.0
6636,66.0,0.0,120.0,12.0,64.0
6637,78.0,0.0,120.0,0.0,64.0
6638,54.0,0.0,120.0,13.0,64.0
6639,42.0,0.0,120.0,14.0,64.0
6640,78.0,0.0,120.0,11.0,64.0
6641,54.0,120.0,120.0,3.0,64.0
6642,78.0,0.0,120.0,10.0,64.0
6643,55.0,0.0,120.0,13.0,64.0
6644,79.0,0.0,120.0,10.0,64.0
6645,79.0,0.0,120.0,0.0,64.0
6646,67.0,0.0,120.0,12.0,64.0
6647,43.0,0.0,120.0,14.0,64.0
6648,79.0,0.0,120.0,11.0,64.0
6649,55.0,72.0,120.0,3.0,64.0
6650,62.0,48.0,180.0,4.0,64.0
6651,58.0,0.0,180.0,4.0,64.0
6652,77.0,0.0,120.0,10.0,64.0
6653,77.0,0.0,120.0,11.0,64.0
6654,41.0,0.0,120.0,14.0,64.0
6655,65.0,0.0,120.0,12.0,64.0
6656,53.0,0.0,120.0,13.0,64.0
6657,77.0,0.0,120.0,0.0,64.0
6658,53.0,48.0,120.0,3.0,64.0
6659,51.0,0.0,120.0,3.0,64.0
6660,75.0,0.0,120.0,10.0,64.0
6661,75.0,0.0,120.0,0.0,64.0
6662,62.0,0.0,180.0,4.0,64.0
6663,58.0,24.0,180.0,4.0,64.0
6664,75.0,72.0,120.0,11.0,64.0
6665,51.0,0.0,120.0,13.0,64.0
6666,39.0,0.0,120.0,14.0,64.0
6667,63.0,0.0,120.0,12.0,64.0
6668,50.0,0.0,120.0,3.0,64.0
6669,74.0,0.0,90.0,10.0,64.0
6670,74.0,24.0,90.0,11.0,64.0
6671,74.0,0.0,90.0,0.0,64.0
6672,62.0,0.0,120.0,12.0,64.0
6673,50.0,0.0,120.0,13.0,64.0
6674,38.0,120.0,120.0,14.0,64.0
6675,63.0,120.0,120.0,12.0,64.0
6676,70.0,0.0,390.0,5.0,64.0
6677,75.0,0.0,120.0,11.0,64.0
6678,51.0,0.0,120.0,3.0,64.0
6679,51.0,0.0,120.0,13.0,64.0
6680,79.0,72.0,780.0,1.0,64.0
6681,39.0,0.0,120.0,14.0,64.0
6682,75.0,0.0,120.0,0.0,64.0
6683,75.0,0.0,120.0,10.0,64.0
6684,58.0,0.0,390.0,4.0,64.0
6685,60.0,0.0,390.0,4.0,64.0
6686,67.0,0.0,780.0,2.0,64.0
6687,46.0,96.0,390.0,6.0,64.0
6688,50.0,120.0,120.0,13.0,64.0
6689,38.0,0.0,120.0,14.0,64.0
6690,74.0,0.0,120.0,11.0,64.0
6691,74.0,0.0,120.0,10.0,64.0
6692,62.0,0.0,120.0,12.0,64.0
6693,74.0,0.0,120.0,0.0,64.0
6694,50.0,0.0,120.0,3.0,64.0
6695,60.0,0.0,120.0,12.0,64.0
6696,36.0,0.0,120.0,14.0,64.0
6697,72.0,0.0,120.0,0.0,64.0
6698,72.0,0.0,120.0,11.0,64.0
6699,72.0,24.0,120.0,10.0,64.0
6700,48.0,0.0,120.0,13.0,64.0
6701,48.0,0.0,120.0,3.0,64.0
6702,46.0,0.0,120.0,3.0,64.0
6703,70.0,120.0,120.0,0.0,64.0
6704,70.0,0.0,120.0,11.0,64.0
6705,46.0,0.0,120.0,13.0,64.0
6706,34.0,0.0,120.0,14.0,64.0
6707,58.0,0.0,120.0,12.0,64.0
6708,70.0,0.0,120.0,10.0,64.0
6709,60.0,0.0,120.0,12.0,64.0
6710,48.0,72.0,120.0,3.0,64.0
6711,72.0,0.0,120.0,0.0,64.0
6712,48.0,0.0,120.0,13.0,64.0
6713,58.0,48.0,180.0,4.0,64.0
6714,60.0,0.0,180.0,4.0,64.0
6715,72.0,0.0,120.0,10.0,64.0
6716,72.0,0.0,120.0,11.0,64.0
6717,36.0,0.0,120.0,14.0,64.0
6718,58.0,0.0,120.0,12.0,64.0
6719,70.0,0.0,120.0,10.0,64.0
6720,46.0,0.0,120.0,13.0,64.0
6721,34.0,0.0,120.0,14.0,64.0
6722,46.0,48.0,120.0,3.0,64.0
6723,70.0,0.0,120.0,0.0,64.0
6724,70.0,0.0,120.0,11.0,64.0
6725,60.0,0.0,180.0,4.0,64.0
6726,58.0,24.0,180.0,4.0,64.0
6727,69.0,0.0,120.0,0.0,64.0
6728,57.0,0.0,120.0,12.0,64.0
6729,69.0,72.0,120.0,10.0,64.0
6730,45.0,0.0,120.0,13.0,64.0
6731,69.0,0.0,120.0,11.0,64.0
6732,45.0,0.0,120.0,3.0,64.0
6733,33.0,0.0,120.0,14.0,64.0
6734,67.0,0.0,90.0,11.0,64.0
6735,55.0,180.0,90.0,12.0,64.0
6736,67.0,0.0,90.0,0.0,64.0
6737,43.0,0.0,90.0,13.0,64.0
6738,43.0,0.0,90.0,3.0,64.0
6739,31.0,0.0,90.0,14.0,64.0
6740,67.0,0.0,90.0,10.0,64.0
6741,41.0,0.0,390.0,6.0,64.0
6742,41.0,0.0,150.0,3.0,64.0
6743,65.0,12.0,390.0,2.0,64.0
6744,41.0,162.0,150.0,13.0,64.0
6745,65.0,0.0,390.0,5.0,64.0
6746,65.0,0.0,150.0,10.0,64.0
6747,29.0,0.0,150.0,14.0,64.0
6748,60.0,0.0,390.0,4.0,64.0
6749,53.0,0.0,150.0,12.0,64.0
6750,65.0,0.0,150.0,11.0,64.0
6751,77.0,0.0,390.0,1.0,64.0
6752,65.0,0.0,150.0,0.0,64.0
6753,53.0,0.0,390.0,4.0,64.0
6754,45.0,0.0,90.0,3.0,64.0
6755,69.0,0.0,90.0,0.0,64.0
6756,63.0,42.0,150.0,12.0,64.0
6757,51.0,0.0,150.0,13.0,64.0
6758,39.0,0.0,150.0,14.0,64.0
6759,69.0,66.0,90.0,10.0,64.0
6760,69.0,0.0,90.0,11.0,64.0
6761,48.0,0.0,90.0,3.0,64.0
6762,72.0,198.0,90.0,0.0,64.0
6763,72.0,0.0,90.0,11.0,64.0
6764,72.0,0.0,90.0,10.0,64.0
6765,50.0,0.0,150.0,13.0,64.0
6766,77.0,0.0,150.0,10.0,64.0
6767,38.0,0.0,150.0,14.0,64.0
6768,53.0,36.0,150.0,3.0,64.0
6769,62.0,0.0,180.0,4.0,64.0
6770,77.0,0.0,150.0,11.0,64.0
6771,58.0,204.0,180.0,4.0,64.0
6772,77.0,0.0,150.0,0.0,64.0
6773,62.0,0.0,150.0,12.0,64.0
6774,70.0,204.0,180.0,1.0,64.0
6775,77.0,0.0,180.0,1.0,64.0
6776,58.0,0.0,150.0,12.0,64.0
6777,77.0,0.0,150.0,10.0,64.0
6778,58.0,0.0,150.0,10.0,64.0
6779,65.0,36.0,150.0,10.0,64.0
6780,62.0,0.0,180.0,4.0,64.0
6781,65.0,0.0,180.0,4.0,64.0
6782,82.0,0.0,150.0,0.0,64.0
6783,34.0,0.0,150.0,14.0,64.0
6784,65.0,0.0,150.0,11.0,64.0
6785,58.0,0.0,150.0,11.0,64.0
6786,77.0,0.0,150.0,11.0,64.0
6787,46.0,0.0,150.0,13.0,64.0
6788,50.0,0.0,150.0,3.0,64.0
6789,75.0,0.0,180.0,1.0,64.0
6790,51.0,0.0,150.0,13.0,64.0
6791,67.0,0.0,180.0,1.0,64.0
6792,51.0,0.0,150.0,3.0,64.0
6793,75.0,0.0,180.0,10.0,64.0
6794,39.0,36.0,150.0,14.0,64.0
6795,67.0,0.0,180.0,10.0,64.0
6796,75.0,0.0,180.0,11.0,64.0
6797,60.0,0.0,180.0,4.0,64.0
6798,63.0,0.0,180.0,4.0,64.0
6799,79.0,0.0,180.0,0.0,64.0
6800,58.0,204.0,180.0,10.0,64.0
6801,63.0,0.0,150.0,12.0,64.0
6802,58.0,0.0,180.0,11.0,64.0
6803,67.0,0.0,180.0,11.0,64.0
6804,48.0,0.0,150.0,13.0,64.0
6805,48.0,0.0,150.0,3.0,64.0
6806,36.0,0.0,150.0,14.0,64.0
6807,60.0,240.0,150.0,12.0,64.0
6808,72.0,0.0,180.0,1.0,64.0
6809,77.0,0.0,180.0,0.0,64.0
6810,53.0,0.0,150.0,13.0,64.0
6811,53.0,0.0,150.0,3.0,64.0
6812,65.0,36.0,150.0,12.0,64.0
6813,60.0,0.0,180.0,4.0,64.0
6814,53.0,0.0,180.0,4.0,64.0
6815,41.0,0.0,150.0,14.0,64.0
6816,69.0,0.0,180.0,1.0,64.0
6817,72.0,0.0,180.0,10.0,64.0
6818,69.0,0.0,180.0,10.0,64.0
6819,65.0,0.0,180.0,10.0,64.0
6820,72.0,204.0,180.0,11.0,64.0
6821,65.0,0.0,180.0,11.0,64.0
6822,69.0,0.0,180.0,11.0,64.0
6823,41.0,0.0,150.0,3.0,64.0
6824,29.0,0.0,150.0,14.0,64.0
6825,53.0,0.0,150.0,12.0,64.0
6826,41.0,180.0,150.0,13.0,64.0
6827,70.0,120.0,90.0,10.0,64.0
6828,58.0,0.0,390.0,5.0,64.0
6829,46.0,0.0,390.0,13.0,64.0
6830,77.0,0.0,4020.0,1.0,64.0
6831,74.0,0.0,390.0,1.0,64.0
6832,70.0,0.0,390.0,5.0,64.0
6833,46.0,72.0,390.0,6.0,64.0
6834,58.0,0.0,390.0,12.0,64.0
6835,58.0,0.0,390.0,4.0,64.0
6836,70.0,0.0,390.0,2.0,64.0
6837,46.0,0.0,390.0,3.0,64.0
6838,58.0,0.0,390.0,11.0,64.0
6839,70.0,0.0,390.0,11.0,64.0
6840,46.0,0.0,390.0,4.0,64.0
6841,70.0,0.0,90.0,0.0,64.0
6842,65.0,0.0,4020.0,2.0,64.0
6843,34.0,0.0,390.0,14.0,64.0
6844,74.0,120.0,90.0,0.0,64.0
6845,74.0,0.0,90.0,10.0,64.0
6846,77.0,0.0,90.0,10.0,64.0
6847,77.0,48.0,90.0,0.0,64.0
6848,74.0,0.0,90.0,10.0,64.0
6849,74.0,120.0,90.0,0.0,64.0
6850,69.0,0.0,240.0,2.0,64.0
6851,75.0,120.0,90.0,0.0,64.0
6852,75.0,0.0,90.0,10.0,64.0
6853,72.0,96.0,240.0,1.0,64.0
6854,72.0,24.0,90.0,10.0,64.0
6855,72.0,0.0,90.0,0.0,64.0
6856,41.0,24.0,180.0,6.0,64.0
6857,72.0,0.0,180.0,2.0,64.0
6858,41.0,0.0,150.0,14.0,64.0
6859,60.0,0.0,180.0,4.0,64.0
6860,75.0,0.0,150.0,11.0,64.0
6861,65.0,0.0,150.0,5.0,64.0
6862,72.0,0.0,180.0,5.0,64.0
6863,53.0,0.0,150.0,4.0,64.0
6864,75.0,0.0,180.0,1.0,64.0
6865,81.0,0.0,90.0,10.0,64.0
6866,65.0,0.0,150.0,12.0,64.0
6867,53.0,36.0,150.0,13.0,64.0
6868,81.0,60.0,90.0,0.0,64.0
6869,60.0,0.0,150.0,12.0,64.0
6870,65.0,0.0,150.0,11.0,64.0
6871,53.0,0.0,150.0,3.0,64.0
6872,77.0,0.0,90.0,0.0,64.0
6873,77.0,120.0,90.0,10.0,64.0
6874,46.0,0.0,390.0,14.0,64.0
6875,70.0,0.0,390.0,2.0,64.0
6876,58.0,0.0,390.0,13.0,64.0
6877,58.0,0.0,390.0,12.0,64.0
6878,74.0,0.0,390.0,11.0,64.0
6879,65.0,0.0,390.0,11.0,64.0
6880,65.0,0.0,390.0,12.0,64.0
6881,46.0,0.0,390.0,4.0,64.0
6882,58.0,0.0,390.0,4.0,64.0
6883,82.0,0.0,90.0,0.0,64.0
6884,82.0,120.0,90.0,10.0,64.0
6885,58.0,0.0,390.0,5.0,64.0
6886,58.0,0.0,390.0,11.0,64.0
6887,74.0,0.0,390.0,1.0,64.0
6888,70.0,0.0,390.0,5.0,64.0
6889,46.0,0.0,390.0,6.0,64.0
6890,58.0,72.0,390.0,3.0,64.0
6891,77.0,0.0,90.0,0.0,64.0
6892,77.0,120.0,90.0,10.0,64.0
6893,74.0,0.0,90.0,10.0,64.0
6894,74.0,48.0,90.0,0.0,64.0
6895,70.0,0.0,90.0,0.0,64.0
6896,70.0,120.0,90.0,10.0,64.0
6897,69.0,0.0,240.0,2.0,64.0
6898,75.0,0.0,90.0,0.0,64.0
6899,75.0,120.0,90.0,10.0,64.0
6900,72.0,96.0,240.0,1.0,64.0
6901,72.0,0.0,90.0,0.0,64.0
6902,72.0,24.0,90.0,10.0,64.0
6903,53.0,0.0,150.0,13.0,64.0
6904,81.0,60.0,90.0,0.0,64.0
6905,81.0,0.0,90.0,10.0,64.0
6906,53.0,0.0,150.0,3.0,64.0
6907,41.0,0.0,150.0,14.0,64.0
6908,65.0,36.0,150.0,5.0,64.0
6909,75.0,0.0,150.0,11.0,64.0
6910,72.0,0.0,180.0,2.0,64.0
6911,60.0,0.0,150.0,12.0,64.0
6912,41.0,0.0,180.0,6.0,64.0
6913,72.0,24.0,180.0,5.0,64.0
6914,65.0,0.0,150.0,11.0,64.0
6915,60.0,0.0,180.0,4.0,64.0
6916,65.0,0.0,150.0,12.0,64.0
6917,53.0,0.0,150.0,4.0,64.0
6918,75.0,0.0,180.0,1.0,64.0
6919,77.0,0.0,90.0,10.0,64.0
6920,77.0,120.0,90.0,0.0,64.0
6921,70.0,0.0,390.0,2.0,64.0
6922,46.0,0.0,390.0,4.0,64.0
6923,46.0,0.0,390.0,14.0,64.0
6924,58.0,0.0,390.0,3.0,64.0
6925,58.0,0.0,390.0,5.0,64.0
6926,46.0,0.0,390.0,6.0,64.0
6927,65.0,72.0,390.0,12.0,64.0
6928,74.0,0.0,390.0,1.0,64.0
6929,74.0,0.0,390.0,11.0,64.0
6930,70.0,0.0,390.0,5.0,64.0
6931,58.0,0.0,390.0,12.0,64.0
6932,82.0,0.0,90.0,0.0,64.0
6933,65.0,0.0,390.0,11.0,64.0
6934,58.0,0.0,390.0,4.0,64.0
6935,58.0,0.0,390.0,11.0,64.0
6936,82.0,120.0,90.0,10.0,64.0
6937,58.0,0.0,390.0,13.0,64.0
6938,77.0,120.0,90.0,0.0,64.0
6939,77.0,0.0,90.0,10.0,64.0
6940,74.0,48.0,90.0,10.0,64.0
6941,74.0,0.0,90.0,0.0,64.0
6942,70.0,0.0,90.0,10.0,64.0
6943,70.0,120.0,90.0,0.0,64.0
6944,72.0,96.0,240.0,1.0,64.0
6945,69.0,0.0,240.0,2.0,64.0
6946,75.0,0.0,90.0,10.0,64.0
6947,75.0,120.0,90.0,0.0,64.0
6948,72.0,24.0,90.0,10.0,64.0
6949,72.0,0.0,90.0,0.0,64.0
6950,65.0,0.0,150.0,12.0,64.0
6951,81.0,0.0,90.0,0.0,64.0
6952,60.0,0.0,180.0,4.0,64.0
6953,53.0,0.0,150.0,4.0,64.0
6954,41.0,0.0,150.0,14.0,64.0
6955,65.0,0.0,150.0,11.0,64.0
6956,72.0,24.0,180.0,5.0,64.0
6957,41.0,0.0,180.0,6.0,64.0
6958,60.0,0.0,150.0,12.0,64.0
6959,81.0,60.0,90.0,10.0,64.0
6960,65.0,0.0,150.0,5.0,64.0
6961,75.0,36.0,150.0,11.0,64.0
6962,53.0,0.0,150.0,3.0,64.0
6963,53.0,0.0,150.0,13.0,64.0
6964,72.0,0.0,180.0,2.0,64.0
6965,75.0,0.0,180.0,1.0,64.0
6966,77.0,120.0,90.0,0.0,64.0
6967,77.0,0.0,90.0,10.0,64.0
6968,46.0,0.0,150.0,14.0,64.0
6969,70.0,0.0,150.0,5.0,64.0
6970,65.0,0.0,150.0,11.0,64.0
6971,74.0,0.0,150.0,11.0,64.0
6972,58.0,0.0,150.0,12.0,64.0
6973,65.0,36.0,150.0,12.0,64.0
6974,46.0,24.0,180.0,6.0,64.0
6975,58.0,0.0,150.0,5.0,64.0
6976,58.0,0.0,150.0,13.0,64.0
6977,58.0,0.0,150.0,3.0,64.0
6978,82.0,60.0,90.0,10.0,64.0
6979,70.0,0.0,240.0,2.0,64.0
6980,82.0,0.0,90.0,0.0,64.0
6981,46.0,0.0,150.0,4.0,64.0
6982,58.0,0.0,150.0,4.0,64.0
6983,74.0,96.0,240.0,1.0,64.0
6984,77.0,0.0,90.0,0.0,64.0
6985,77.0,24.0,90.0,10.0,64.0
6986,53.0,0.0,150.0,13.0,64.0
6987,75.0,96.0,240.0,1.0,64.0
6988,72.0,0.0,240.0,2.0,64.0
6989,81.0,60.0,90.0,10.0,64.0
6990,60.0,0.0,150.0,12.0,64.0
6991,65.0,0.0,150.0,5.0,64.0
6992,65.0,0.0,150.0,11.0,64.0
6993,65.0,0.0,150.0,12.0,64.0
6994,53.0,0.0,150.0,3.0,64.0
6995,72.0,0.0,150.0,5.0,64.0
6996,60.0,36.0,150.0,4.0,64.0
6997,75.0,0.0,150.0,11.0,64.0
6998,53.0,0.0,150.0,4.0,64.0
6999,41.0,24.0,180.0,6.0,64.0
7000,41.0,0.0,150.0,14.0,64.0
7001,81.0,0.0,90.0,0.0,64.0
7002,77.0,24.0,90.0,10.0,64.0
7003,77.0,0.0,90.0,0.0,64.0
7004,46.0,0.0,150.0,14.0,64.0
7005,70.0,0.0,240.0,2.0,64.0
7006,46.0,0.0,150.0,4.0,64.0
7007,58.0,0.0,150.0,3.0,64.0
7008,65.0,0.0,150.0,11.0,64.0
7009,74.0,0.0,150.0,11.0,64.0
7010,82.0,0.0,90.0,0.0,64.0
7011,58.0,0.0,150.0,4.0,64.0
7012,58.0,0.0,150.0,13.0,64.0
7013,74.0,96.0,240.0,1.0,64.0
7014,70.0,0.0,150.0,5.0,64.0
7015,58.0,0.0,150.0,5.0,64.0
7016,46.0,24.0,180.0,6.0,64.0
7017,65.0,36.0,150.0,12.0,64.0
7018,58.0,0.0,150.0,12.0,64.0
7019,82.0,60.0,90.0,10.0,64.0
7020,77.0,0.0,90.0,10.0,64.0
7021,77.0,24.0,90.0,0.0,64.0
7022,72.0,0.0,150.0,5.0,64.0
7023,75.0,96.0,240.0,1.0,64.0
7024,53.0,0.0,150.0,4.0,64.0
7025,60.0,0.0,150.0,12.0,64.0
7026,81.0,0.0,90.0,10.0,64.0
7027,41.0,0.0,150.0,14.0,64.0
7028,72.0,0.0,240.0,2.0,64.0
7029,41.0,24.0,180.0,6.0,64.0
7030,65.0,0.0,150.0,5.0,64.0
7031,53.0,0.0,150.0,3.0,64.0
7032,65.0,0.0,150.0,12.0,64.0
7033,53.0,0.0,150.0,13.0,64.0
7034,75.0,0.0,150.0,11.0,64.0
7035,81.0,60.0,90.0,0.0,64.0
7036,60.0,0.0,150.0,4.0,64.0
7037,65.0,36.0,150.0,11.0,64.0
7038,77.0,0.0,90.0,10.0,64.0
7039,77.0,24.0,90.0,0.0,64.0
7040,74.0,96.0,90.0,11.0,64.0
7041,58.0,72.0,390.0,5.0,64.0
7042,70.0,24.0,180.0,2.0,64.0
7043,65.0,0.0,90.0,11.0,64.0
7044,58.0,0.0,390.0,4.0,64.0
7045,46.0,0.0,390.0,4.0,64.0
7046,46.0,0.0,390.0,14.0,64.0
7047,70.0,0.0,390.0,5.0,64.0
7048,74.0,0.0,180.0,1.0,64.0
7049,58.0,0.0,390.0,3.0,64.0
7050,82.0,0.0,90.0,10.0,64.0
7051,65.0,0.0,390.0,12.0,64.0
7052,58.0,0.0,390.0,12.0,64.0
7053,82.0,0.0,180.0,0.0,64.0
7054,46.0,0.0,390.0,6.0,64.0
7055,58.0,0.0,390.0,13.0,64.0
7056,82.0,0.0,90.0,10.0,64.0
7057,82.0,120.0,90.0,11.0,64.0
7058,81.0,0.0,90.0,11.0,64.0
7059,81.0,48.0,90.0,10.0,64.0
7060,79.0,120.0,90.0,11.0,64.0
7061,79.0,0.0,90.0,10.0,64.0
7062,77.0,120.0,90.0,11.0,64.0
7063,77.0,0.0,90.0,10.0,64.0
7064,79.0,0.0,90.0,11.0,64.0
7065,79.0,120.0,90.0,10.0,64.0
7066,75.0,0.0,90.0,10.0,64.0
7067,75.0,120.0,90.0,11.0,64.0
7068,77.0,0.0,90.0,10.0,64.0
7069,77.0,120.0,90.0,11.0,64.0
7070,74.0,120.0,90.0,10.0,64.0
7071,74.0,0.0,90.0,11.0,64.0
7072,79.0,120.0,90.0,11.0,64.0
7073,79.0,0.0,90.0,10.0,64.0
7074,77.0,120.0,90.0,11.0,64.0
7075,77.0,0.0,90.0,10.0,64.0
7076,75.0,0.0,90.0,10.0,64.0
7077,75.0,120.0,90.0,11.0,64.0
7078,74.0,120.0,90.0,11.0,64.0
7079,74.0,0.0,90.0,10.0,64.0
7080,75.0,120.0,90.0,10.0,64.0
7081,75.0,0.0,90.0,11.0,64.0
7082,72.0,0.0,90.0,10.0,64.0
7083,72.0,120.0,90.0,11.0,64.0
7084,74.0,0.0,90.0,10.0,64.0
7085,74.0,120.0,90.0,11.0,64.0
7086,58.0,0.0,90.0,3.0,64.0
7087,58.0,0.0,90.0,13.0,64.0
7088,46.0,72.0,390.0,4.0,64.0
7089,70.0,0.0,390.0,0.0,64.0
7090,70.0,120.0,90.0,11.0,64.0
7091,70.0,0.0,390.0,1.0,64.0
7092,46.0,0.0,90.0,14.0,64.0
7093,58.0,0.0,390.0,5.0,64.0
7094,46.0,0.0,390.0,6.0,64.0
7095,58.0,0.0,390.0,2.0,64.0
7096,58.0,0.0,90.0,12.0,64.0
7097,70.0,0.0,90.0,10.0,64.0
7098,74.0,0.0,90.0,10.0,64.0
7099,62.0,0.0,90.0,3.0,64.0
7100,50.0,120.0,90.0,14.0,64.0
7101,62.0,0.0,90.0,12.0,64.0
7102,74.0,0.0,90.0,11.0,64.0
7103,62.0,0.0,90.0,13.0,64.0
7104,48.0,0.0,90.0,14.0,64.0
7105,60.0,0.0,90.0,3.0,64.0
7106,72.0,0.0,90.0,10.0,64.0
7107,72.0,0.0,90.0,11.0,64.0
7108,60.0,48.0,90.0,12.0,64.0
7109,60.0,0.0,90.0,13.0,64.0
7110,70.0,0.0,90.0,11.0,64.0
7111,58.0,0.0,90.0,12.0,64.0
7112,46.0,0.0,90.0,14.0,64.0
7113,70.0,0.0,90.0,10.0,64.0
7114,58.0,0.0,90.0,3.0,64.0
7115,58.0,120.0,90.0,13.0,64.0
7116,46.0,0.0,150.0,4.0,64.0
7117,69.0,0.0,90.0,10.0,64.0
7118,58.0,60.0,150.0,2.0,64.0
7119,70.0,0.0,150.0,1.0,64.0
7120,70.0,0.0,150.0,0.0,64.0
7121,57.0,0.0,90.0,3.0,64.0
7122,45.0,60.0,90.0,14.0,64.0
7123,58.0,0.0,150.0,5.0,64.0
7124,57.0,0.0,90.0,12.0,64.0
7125,57.0,0.0,90.0,13.0,64.0
7126,69.0,0.0,90.0,11.0,64.0
7127,58.0,0.0,90.0,13.0,64.0
7128,70.0,120.0,90.0,11.0,64.0
7129,58.0,0.0,90.0,3.0,64.0
7130,58.0,0.0,90.0,12.0,64.0
7131,46.0,0.0,90.0,14.0,64.0
7132,70.0,0.0,90.0,10.0,64.0
7133,46.0,0.0,90.0,6.0,64.0
7134,70.0,0.0,150.0,0.0,64.0
7135,67.0,0.0,90.0,11.0,64.0
7136,55.0,0.0,90.0,12.0,64.0
7137,67.0,0.0,90.0,10.0,64.0
7138,70.0,60.0,150.0,1.0,64.0
7139,58.0,0.0,150.0,2.0,64.0
7140,55.0,0.0,90.0,3.0,64.0
7141,55.0,0.0,90.0,13.0,64.0
7142,58.0,0.0,150.0,5.0,64.0
7143,46.0,0.0,150.0,4.0,64.0
7144,43.0,60.0,90.0,14.0,64.0
7145,57.0,0.0,90.0,13.0,64.0
7146,57.0,120.0,90.0,3.0,64.0
7147,57.0,0.0,90.0,12.0,64.0
7148,69.0,0.0,90.0,10.0,64.0
7149,46.0,0.0,90.0,6.0,64.0
7150,69.0,0.0,90.0,11.0,64.0
7151,45.0,0.0,90.0,14.0,64.0
7152,53.0,0.0,90.0,12.0,64.0
7153,74.0,0.0,390.0,0.0,64.0
7154,62.0,0.0,390.0,5.0,64.0
7155,53.0,0.0,90.0,13.0,64.0
7156,46.0,0.0,390.0,6.0,64.0
7157,41.0,120.0,90.0,14.0,64.0
7158,65.0,0.0,90.0,10.0,64.0
7159,50.0,72.0,390.0,4.0,64.0
7160,62.0,0.0,390.0,2.0,64.0
7161,53.0,0.0,90.0,3.0,64.0
7162,65.0,0.0,90.0,11.0,64.0
7163,74.0,0.0,390.0,1.0,64.0
7164,58.0,0.0,90.0,3.0,64.0
7165,70.0,120.0,90.0,11.0,64.0
7166,58.0,0.0,90.0,13.0,64.0
7167,58.0,0.0,90.0,12.0,64.0
7168,70.0,0.0,90.0,10.0,64.0
7169,46.0,0.0,90.0,14.0,64.0
7170,57.0,0.0,90.0,3.0,64.0
7171,57.0,0.0,90.0,13.0,64.0
7172,57.0,0.0,90.0,12.0,64.0
7173,69.0,48.0,90.0,11.0,64.0
7174,69.0,0.0,90.0,10.0,64.0
7175,45.0,0.0,90.0,14.0,64.0
7176,55.0,0.0,90.0,13.0,64.0
7177,67.0,0.0,90.0,11.0,64.0
7178,55.0,0.0,90.0,12.0,64.0
7179,67.0,0.0,90.0,10.0,64.0
7180,43.0,0.0,90.0,14.0,64.0
7181,55.0,120.0,90.0,3.0,64.0
7182,50.0,0.0,150.0,4.0,64.0
7183,53.0,0.0,90.0,13.0,64.0
7184,41.0,0.0,90.0,14.0,64.0
7185,65.0,0.0,90.0,11.0,64.0
7186,74.0,0.0,150.0,0.0,64.0
7187,65.0,0.0,90.0,10.0,64.0
7188,62.0,0.0,150.0,2.0,64.0
7189,53.0,0.0,90.0,3.0,64.0
7190,62.0,60.0,150.0,5.0,64.0
7191,53.0,60.0,90.0,12.0,64.0
7192,74.0,0.0,150.0,1.0,64.0
7193,55.0,0.0,90.0,13.0,64.0
7194,67.0,0.0,90.0,11.0,64.0
7195,43.0,0.0,90.0,14.0,64.0
7196,67.0,120.0,90.0,10.0,64.0
7197,55.0,0.0,90.0,12.0,64.0
7198,55.0,0.0,90.0,3.0,64.0
7199,63.0,60.0,90.0,11.0,64.0
7200,51.0,0.0,90.0,12.0,64.0
7201,46.0,0.0,90.0,6.0,64.0
7202,74.0,0.0,150.0,1.0,64.0
7203,50.0,60.0,150.0,4.0,64.0
7204,51.0,0.0,90.0,3.0,64.0
7205,63.0,0.0,90.0,10.0,64.0
7206,62.0,0.0,150.0,5.0,64.0
7207,39.0,0.0,90.0,14.0,64.0
7208,62.0,0.0,150.0,2.0,64.0
7209,51.0,0.0,90.0,13.0,64.0
7210,74.0,0.0,150.0,0.0,64.0
7211,53.0,0.0,90.0,12.0,64.0
7212,65.0,0.0,90.0,11.0,64.0
7213,53.0,0.0,90.0,3.0,64.0
7214,53.0,0.0,90.0,13.0,64.0
7215,65.0,0.0,90.0,10.0,64.0
7216,46.0,120.0,90.0,6.0,64.0
7217,41.0,0.0,90.0,14.0,64.0
7218,38.0,0.0,90.0,14.0,64.0
7219,77.0,0.0,390.0,1.0,64.0
7220,65.0,72.0,390.0,2.0,64.0
7221,50.0,0.0,90.0,13.0,64.0
7222,62.0,120.0,90.0,10.0,64.0
7223,53.0,0.0,390.0,4.0,64.0
7224,46.0,0.0,390.0,6.0,64.0
7225,62.0,0.0,90.0,11.0,64.0
7226,77.0,0.0,390.0,0.0,64.0
7227,50.0,0.0,90.0,3.0,64.0
7228,65.0,0.0,390.0,5.0,64.0
7229,50.0,0.0,90.0,12.0,64.0
7230,55.0,0.0,90.0,12.0,64.0
7231,67.0,0.0,90.0,11.0,64.0
7232,55.0,120.0,90.0,3.0,64.0
7233,43.0,0.0,90.0,14.0,64.0
7234,67.0,0.0,90.0,10.0,64.0
7235,55.0,0.0,90.0,13.0,64.0
7236,53.0,0.0,90.0,12.0,64.0
7237,53.0,48.0,90.0,3.0,64.0
7238,53.0,0.0,90.0,13.0,64.0
7239,65.0,0.0,90.0,11.0,64.0
7240,41.0,0.0,90.0,14.0,64.0
7241,65.0,0.0,90.0,10.0,64.0
7242,39.0,0.0,90.0,14.0,64.0
7243,51.0,0.0,90.0,12.0,64.0
7244,63.0,0.0,90.0,10.0,64.0
7245,63.0,0.0,90.0,11.0,64.0
7246,51.0,120.0,90.0,13.0,64.0
7247,51.0,0.0,90.0,3.0,64.0
7248,50.0,0.0,90.0,3.0,64.0
7249,62.0,0.0,90.0,10.0,64.0
7250,65.0,60.0,150.0,2.0,64.0
7251,38.0,0.0,90.0,14.0,64.0
7252,77.0,0.0,150.0,0.0,64.0
7253,65.0,0.0,150.0,5.0,64.0
7254,77.0,0.0,150.0,1.0,64.0
7255,53.0,0.0,150.0,4.0,64.0
7256,62.0,60.0,90.0,11.0,64.0
7257,50.0,0.0,90.0,13.0,64.0
7258,50.0,0.0,90.0,12.0,64.0
7259,63.0,0.0,90.0,11.0,64.0
7260,63.0,0.0,90.0,10.0,64.0
7261,51.0,0.0,90.0,3.0,64.0
7262,39.0,120.0,90.0,14.0,64.0
7263,51.0,0.0,90.0,12.0,64.0
7264,51.0,0.0,90.0,13.0,64.0
7265,48.0,0.0,90.0,13.0,64.0
7266,46.0,0.0,90.0,6.0,64.0
7267,77.0,0.0,150.0,0.0,64.0
7268,48.0,0.0,90.0,3.0,64.0
7269,60.0,60.0,90.0,11.0,64.0
7270,65.0,0.0,150.0,2.0,64.0
7271,60.0,0.0,90.0,10.0,64.0
7272,36.0,0.0,90.0,14.0,64.0
7273,53.0,60.0,150.0,4.0,64.0
7274,48.0,0.0,90.0,12.0,64.0
7275,65.0,0.0,150.0,5.0,64.0
7276,77.0,0.0,150.0,1.0,64.0
7277,50.0,0.0,90.0,12.0,64.0
7278,46.0,0.0,90.0,6.0,64.0
7279,50.0,0.0,90.0,13.0,64.0
7280,50.0,0.0,90.0,3.0,64.0
7281,38.0,0.0,90.0,14.0,64.0
7282,62.0,0.0,90.0,11.0,64.0
7283,62.0,72.0,90.0,10.0,64.0
7284,46.0,48.0,40.0,6.0,64.0
7285,58.0,0.0,150.0,4.0,64.0
7286,46.0,0.0,90.0,12.0,64.0
7287,46.0,0.0,90.0,13.0,64.0
7288,82.0,12.0,150.0,0.0,64.0
7289,82.0,0.0,150.0,1.0,64.0
7290,58.0,0.0,90.0,10.0,64.0
7291,46.0,12.0,90.0,3.0,64.0
7292,34.0,0.0,90.0,14.0,64.0
7293,70.0,0.0,150.0,2.0,64.0
7294,70.0,0.0,150.0,5.0,64.0
7295,58.0,0.0,90.0,11.0,64.0
7296,46.0,48.0,40.0,6.0,64.0
7297,48.0,0.0,90.0,12.0,64.0
7298,48.0,0.0,90.0,3.0,64.0
7299,60.0,0.0,90.0,11.0,64.0
7300,48.0,0.0,90.0,13.0,64.0
7301,46.0,48.0,40.0,6.0,64.0
7302,36.0,0.0,90.0,14.0,64.0
7303,60.0,12.0,90.0,10.0,64.0
7304,46.0,60.0,40.0,6.0,64.0
7305,38.0,0.0,90.0,14.0,64.0
7306,65.0,0.0,150.0,5.0,64.0
7307,53.0,0.0,150.0,4.0,64.0
7308,50.0,0.0,90.0,12.0,64.0
7309,65.0,0.0,150.0,2.0,64.0
7310,77.0,12.0,150.0,1.0,64.0
7311,62.0,0.0,90.0,11.0,64.0
7312,50.0,0.0,90.0,3.0,64.0
7313,50.0,0.0,90.0,13.0,64.0
7314,46.0,48.0,40.0,6.0,64.0
7315,77.0,0.0,150.0,0.0,64.0
7316,62.0,12.0,90.0,10.0,64.0
7317,46.0,48.0,40.0,6.0,64.0
7318,36.0,0.0,90.0,14.0,64.0
7319,60.0,0.0,90.0,10.0,64.0
7320,60.0,0.0,90.0,11.0,64.0
7321,48.0,12.0,90.0,12.0,64.0
7322,48.0,0.0,90.0,3.0,64.0
7323,46.0,48.0,40.0,6.0,64.0
7324,48.0,0.0,90.0,13.0,64.0
7325,46.0,60.0,40.0,6.0,64.0
7326,70.0,0.0,150.0,5.0,64.0
7327,58.0,0.0,90.0,11.0,64.0
7328,70.0,0.0,150.0,2.0,64.0
7329,46.0,0.0,90.0,12.0,64.0
7330,34.0,0.0,90.0,14.0,64.0
7331,46.0,12.0,90.0,3.0,64.0
7332,58.0,0.0,90.0,10.0,64.0
7333,82.0,0.0,150.0,1.0,64.0
7334,46.0,48.0,40.0,6.0,64.0
7335,46.0,0.0,90.0,13.0,64.0
7336,82.0,12.0,150.0,0.0,64.0
7337,58.0,0.0,150.0,4.0,64.0
7338,46.0,48.0,40.0,6.0,64.0
7339,46.0,48.0,40.0,6.0,64.0
7340,48.0,0.0,90.0,3.0,64.0
7341,60.0,0.0,90.0,11.0,64.0
7342,60.0,0.0,90.0,10.0,64.0
7343,36.0,0.0,90.0,14.0,64.0
7344,48.0,12.0,90.0,13.0,64.0
7345,48.0,0.0,90.0,12.0,64.0
7346,46.0,60.0,40.0,6.0,64.0
7347,53.0,0.0,150.0,4.0,64.0
7348,38.0,0.0,90.0,14.0,64.0
7349,50.0,12.0,90.0,3.0,64.0
7350,77.0,0.0,150.0,0.0,64.0
7351,77.0,0.0,150.0,1.0,64.0
7352,50.0,0.0,90.0,12.0,64.0
7353,50.0,0.0,90.0,13.0,64.0
7354,62.0,0.0,90.0,11.0,64.0
7355,65.0,12.0,150.0,5.0,64.0
7356,46.0,48.0,40.0,6.0,64.0
7357,65.0,0.0,150.0,2.0,64.0
7358,62.0,0.0,90.0,10.0,64.0
7359,46.0,48.0,40.0,6.0,64.0
7360,60.0,0.0,90.0,10.0,64.0
7361,46.0,48.0,40.0,6.0,64.0
7362,48.0,0.0,90.0,12.0,64.0
7363,48.0,12.0,90.0,3.0,64.0
7364,48.0,0.0,90.0,13.0,64.0
7365,60.0,0.0,90.0,11.0,64.0
7366,36.0,0.0,90.0,14.0,64.0
7367,46.0,204.0,40.0,6.0,64.0
7368,58.0,0.0,300.0,10.0,64.0
7369,82.0,0.0,300.0,1.0,64.0
7370,77.0,0.0,300.0,0.0,64.0
7371,74.0,0.0,300.0,1.0,64.0
7372,34.0,0.0,300.0,14.0,64.0
7373,46.0,0.0,300.0,3.0,64.0
7374,70.0,0.0,300.0,2.0,64.0
7375,65.0,0.0,300.0,2.0,64.0
7376,46.0,120.0,180.0,6.0,64.0
7377,46.0,360.0,300.0,12.0,64.0
7378,58.0,0.0,300.0,11.0,64.0
7379,58.0,0.0,300.0,5.0,64.0
7380,46.0,0.0,300.0,13.0,64.0
7381,82.0,0.0,300.0,0.0,64.0
7382,58.0,0.0,300.0,4.0,64.0
7383,46.0,0.0,300.0,4.0,64.0
7384,70.0,0.0,300.0,5.0,64.0
7385,58.0,0.0,300.0,5.0,64.0
7386,46.0,0.0,300.0,13.0,64.0
7387,58.0,0.0,300.0,12.0,64.0
7388,46.0,0.0,300.0,4.0,64.0
7389,58.0,0.0,300.0,4.0,64.0
7390,46.0,120.0,180.0,6.0,64.0
7391,70.0,0.0,300.0,2.0,64.0
7392,46.0,0.0,300.0,3.0,64.0
7393,65.0,0.0,300.0,2.0,64.0
7394,70.0,0.0,300.0,5.0,64.0
7395,34.0,0.0,300.0,14.0,64.0
7396,77.0,0.0,300.0,0.0,64.0
7397,74.0,552.0,300.0,11.0,64.0
7398,82.0,0.0,300.0,0.0,64.0
7399,70.0,0.0,300.0,10.0,64.0
7400,65.0,0.0,300.0,11.0,64.0
7401,82.0,0.0,300.0,10.0,64.0
7402,82.0,0.0,300.0,1.0,64.0
7403,74.0,0.0,300.0,1.0,64.0
7404,58.0,0.0,300.0,10.0,64.0
7405,58.0,0.0,300.0,11.0,64.0
7406,34.0,0.0,390.0,14.0,64.0
7407,74.0,0.0,390.0,1.0,64.0
7408,82.0,0.0,390.0,1.0,64.0
7409,70.0,0.0,390.0,10.0,64.0
7410,70.0,0.0,390.0,2.0,64.0
7411,77.0,0.0,390.0,0.0,64.0
7412,82.0,0.0,390.0,0.0,64.0
7413,58.0,0.0,390.0,10.0,64.0
7414,46.0,0.0,390.0,3.0,64.0
7415,74.0,0.0,390.0,11.0,64.0
7416,65.0,0.0,390.0,11.0,64.0
7417,58.0,0.0,390.0,11.0,64.0
7418,46.0,0.0,390.0,4.0,64.0
7419,65.0,0.0,390.0,2.0,64.0
7420,58.0,0.0,390.0,4.0,64.0
7421,70.0,0.0,390.0,5.0,64.0
7422,46.0,0.0,390.0,13.0,64.0
7423,58.0,0.0,390.0,12.0,64.0
7424,46.0,1344.0,390.0,6.0,64.0
7425,82.0,0.0,390.0,10.0,64.0
7426,22.0,0.0,780.0,14.0,64.0
