,note,step,duration,channel,velocity
0,67.0,0.0,900.0,10.0,0.0
1,59.0,0.0,900.0,10.0,0.0
2,55.0,0.0,900.0,13.0,0.0
3,91.0,0.0,900.0,0.0,0.0
4,55.0,424.0,450.0,5.0,0.0
5,67.0,0.0,900.0,11.0,0.0
6,59.0,28.0,900.0,11.0,0.0
7,74.0,0.0,900.0,3.0,0.0
8,55.0,0.0,900.0,2.0,0.0
9,79.0,0.0,900.0,4.0,0.0
10,67.0,0.0,900.0,4.0,0.0
11,43.0,0.0,900.0,14.0,0.0
12,62.0,0.0,900.0,12.0,0.0
13,83.0,0.0,900.0,1.0,0.0
14,86.0,0.0,900.0,1.0,0.0
15,71.0,0.0,900.0,3.0,0.0
16,67.0,0.0,900.0,2.0,0.0
17,55.0,32.0,30.0,5.0,0.0
18,55.0,404.0,30.0,5.0,0.0
19,62.0,0.0,750.0,3.0,0.0
20,67.0,0.0,750.0,10.0,0.0
21,31.0,0.0,750.0,14.0,0.0
22,67.0,0.0,750.0,4.0,0.0
23,59.0,0.0,750.0,10.0,0.0
24,74.0,12.0,750.0,1.0,0.0
25,71.0,0.0,750.0,1.0,0.0
26,59.0,0.0,750.0,3.0,0.0
27,79.0,0.0,750.0,4.0,0.0
28,43.0,0.0,750.0,13.0,0.0
29,67.0,0.0,750.0,11.0,0.0
30,59.0,0.0,750.0,11.0,0.0
31,55.0,0.0,750.0,2.0,0.0
32,67.0,0.0,750.0,2.0,0.0
33,55.0,372.0,390.0,5.0,0.0
34,62.0,0.0,750.0,12.0,0.0
35,79.0,0.0,750.0,0.0,0.0
36,55.0,150.0,300.0,5.0,0.0
37,67.0,0.0,90.0,11.0,0.0
38,62.0,0.0,90.0,3.0,0.0
39,79.0,0.0,90.0,4.0,0.0
40,67.0,18.0,90.0,4.0,0.0
41,59.0,0.0,90.0,11.0,0.0
42,43.0,0.0,90.0,13.0,0.0
43,59.0,0.0,90.0,3.0,0.0
44,71.0,0.0,90.0,1.0,0.0
45,55.0,0.0,90.0,2.0,0.0
46,62.0,0.0,90.0,12.0,0.0
47,31.0,0.0,90.0,14.0,0.0
48,67.0,0.0,90.0,2.0,0.0
49,74.0,0.0,90.0,1.0,0.0
50,79.0,0.0,90.0,0.0,0.0
51,59.0,0.0,90.0,10.0,0.0
52,55.0,452.0,90.0,5.0,0.0
53,67.0,0.0,90.0,10.0,0.0
54,67.0,0.0,810.0,11.0,0.0
55,59.0,0.0,810.0,11.0,0.0
56,55.0,330.0,450.0,5.0,0.0
57,79.0,0.0,420.0,0.0,0.0
58,62.0,0.0,420.0,3.0,0.0
59,43.0,0.0,810.0,13.0,0.0
60,55.0,0.0,420.0,2.0,0.0
61,67.0,0.0,420.0,2.0,0.0
62,62.0,0.0,810.0,12.0,0.0
63,74.0,28.0,420.0,1.0,0.0
64,59.0,0.0,420.0,3.0,0.0
65,71.0,0.0,420.0,1.0,0.0
66,79.0,0.0,420.0,4.0,0.0
67,31.0,0.0,810.0,14.0,0.0
68,59.0,126.0,810.0,10.0,0.0
69,67.0,0.0,810.0,10.0,0.0
70,67.0,0.0,420.0,4.0,0.0
71,55.0,0.0,300.0,2.0,0.0
72,79.0,0.0,300.0,0.0,0.0
73,74.0,30.0,300.0,1.0,0.0
74,71.0,0.0,300.0,1.0,0.0
75,59.0,0.0,300.0,3.0,0.0
76,62.0,0.0,300.0,3.0,0.0
77,67.0,0.0,300.0,2.0,0.0
78,74.0,318.0,90.0,1.0,0.0
79,71.0,0.0,90.0,1.0,0.0
80,62.0,0.0,90.0,3.0,0.0
81,59.0,0.0,90.0,3.0,0.0
82,55.0,0.0,90.0,2.0,0.0
83,79.0,0.0,90.0,0.0,0.0
84,67.0,0.0,90.0,2.0,0.0
85,71.0,0.0,390.0,1.0,0.0
86,59.0,0.0,390.0,3.0,0.0
87,62.0,0.0,390.0,3.0,0.0
88,74.0,36.0,390.0,1.0,0.0
89,79.0,0.0,390.0,0.0,0.0
90,67.0,0.0,390.0,2.0,0.0
91,55.0,0.0,390.0,2.0,0.0
92,86.0,60.0,60.0,10.0,0.0
93,86.0,0.0,60.0,11.0,0.0
94,84.0,24.0,60.0,11.0,0.0
95,84.0,0.0,60.0,10.0,0.0
96,83.0,0.0,60.0,11.0,0.0
97,83.0,60.0,60.0,10.0,0.0
98,81.0,0.0,60.0,11.0,0.0
99,81.0,60.0,60.0,10.0,0.0
100,74.0,0.0,390.0,1.0,0.0
101,55.0,0.0,390.0,2.0,0.0
102,59.0,0.0,390.0,3.0,0.0
103,67.0,0.0,390.0,2.0,0.0
104,62.0,0.0,390.0,3.0,0.0
105,71.0,0.0,390.0,1.0,0.0
106,79.0,60.0,60.0,10.0,0.0
107,79.0,36.0,390.0,0.0,0.0
108,79.0,0.0,60.0,11.0,0.0
109,78.0,0.0,60.0,10.0,0.0
110,78.0,60.0,60.0,11.0,0.0
111,76.0,60.0,60.0,10.0,0.0
112,76.0,0.0,60.0,11.0,0.0
113,74.0,0.0,60.0,10.0,0.0
114,74.0,60.0,60.0,11.0,0.0
115,72.0,60.0,60.0,10.0,0.0
116,72.0,0.0,60.0,11.0,0.0
117,71.0,0.0,60.0,11.0,0.0
118,71.0,24.0,60.0,10.0,0.0
119,69.0,60.0,60.0,11.0,0.0
120,69.0,0.0,60.0,10.0,0.0
121,67.0,0.0,60.0,11.0,0.0
122,67.0,384.0,60.0,10.0,0.0
123,50.0,0.0,900.0,3.0,0.0
124,62.0,0.0,900.0,3.0,0.0
125,84.0,0.0,900.0,1.0,0.0
126,69.0,0.0,900.0,2.0,0.0
127,45.0,0.0,900.0,14.0,0.0
128,62.0,0.0,900.0,12.0,0.0
129,66.0,28.0,900.0,11.0,0.0
130,60.0,0.0,900.0,11.0,0.0
131,62.0,0.0,900.0,4.0,0.0
132,86.0,0.0,900.0,1.0,0.0
133,90.0,0.0,900.0,0.0,0.0
134,57.0,0.0,900.0,13.0,0.0
135,60.0,0.0,900.0,10.0,0.0
136,66.0,0.0,900.0,10.0,0.0
137,57.0,0.0,900.0,2.0,0.0
138,50.0,496.0,390.0,5.0,0.0
139,74.0,0.0,900.0,4.0,0.0
140,50.0,32.0,30.0,5.0,0.0
141,50.0,404.0,30.0,5.0,0.0
142,66.0,0.0,750.0,11.0,0.0
143,60.0,0.0,750.0,11.0,0.0
144,62.0,12.0,750.0,4.0,0.0
145,74.0,0.0,750.0,4.0,0.0
146,60.0,0.0,750.0,10.0,0.0
147,66.0,0.0,750.0,10.0,0.0
148,69.0,0.0,750.0,2.0,0.0
149,57.0,0.0,750.0,2.0,0.0
150,62.0,0.0,750.0,12.0,0.0
151,62.0,0.0,750.0,3.0,0.0
152,33.0,0.0,750.0,14.0,0.0
153,50.0,0.0,750.0,3.0,0.0
154,72.0,0.0,750.0,1.0,0.0
155,74.0,0.0,750.0,1.0,0.0
156,45.0,0.0,750.0,13.0,0.0
157,78.0,0.0,750.0,0.0,0.0
158,50.0,372.0,390.0,5.0,0.0
159,50.0,150.0,300.0,5.0,0.0
160,50.0,408.0,90.0,5.0,0.0
161,62.0,0.0,90.0,12.0,0.0
162,72.0,0.0,90.0,1.0,0.0
163,57.0,0.0,90.0,2.0,0.0
164,62.0,0.0,90.0,3.0,0.0
165,69.0,0.0,90.0,2.0,0.0
166,33.0,0.0,90.0,14.0,0.0
167,74.0,0.0,90.0,1.0,0.0
168,50.0,0.0,90.0,3.0,0.0
169,45.0,0.0,90.0,13.0,0.0
170,66.0,18.0,90.0,11.0,0.0
171,60.0,0.0,90.0,11.0,0.0
172,74.0,0.0,90.0,4.0,0.0
173,62.0,0.0,90.0,4.0,0.0
174,78.0,0.0,90.0,0.0,0.0
175,60.0,0.0,90.0,10.0,0.0
176,66.0,0.0,90.0,10.0,0.0
177,62.0,0.0,390.0,3.0,0.0
178,50.0,0.0,390.0,5.0,0.0
179,45.0,0.0,780.0,13.0,0.0
180,74.0,0.0,390.0,4.0,0.0
181,62.0,0.0,390.0,4.0,0.0
182,60.0,0.0,780.0,10.0,0.0
183,78.0,0.0,390.0,0.0,0.0
184,74.0,384.0,390.0,1.0,0.0
185,72.0,0.0,390.0,1.0,0.0
186,66.0,0.0,780.0,10.0,0.0
187,62.0,0.0,780.0,12.0,0.0
188,33.0,0.0,780.0,14.0,0.0
189,60.0,0.0,780.0,11.0,0.0
190,66.0,0.0,780.0,11.0,0.0
191,57.0,0.0,390.0,2.0,0.0
192,50.0,0.0,390.0,3.0,0.0
193,69.0,0.0,390.0,2.0,0.0
194,69.0,0.0,300.0,2.0,0.0
195,78.0,150.0,300.0,0.0,0.0
196,57.0,0.0,300.0,2.0,0.0
197,74.0,0.0,300.0,1.0,0.0
198,72.0,0.0,300.0,1.0,0.0
199,74.0,0.0,90.0,1.0,0.0
200,69.0,0.0,90.0,2.0,0.0
201,57.0,0.0,90.0,2.0,0.0
202,78.0,342.0,90.0,0.0,0.0
203,72.0,0.0,90.0,1.0,0.0
204,69.0,36.0,390.0,2.0,0.0
205,72.0,0.0,390.0,1.0,0.0
206,74.0,0.0,390.0,1.0,0.0
207,57.0,0.0,390.0,2.0,0.0
208,78.0,0.0,390.0,0.0,0.0
209,88.0,60.0,60.0,10.0,0.0
210,88.0,0.0,60.0,11.0,0.0
211,86.0,24.0,60.0,11.0,0.0
212,86.0,0.0,60.0,10.0,0.0
213,84.0,60.0,60.0,11.0,0.0
214,84.0,0.0,60.0,10.0,0.0
215,83.0,0.0,60.0,10.0,0.0
216,83.0,60.0,60.0,11.0,0.0
217,72.0,36.0,390.0,1.0,0.0
218,74.0,0.0,390.0,1.0,0.0
219,81.0,0.0,60.0,11.0,0.0
220,57.0,0.0,390.0,2.0,0.0
221,69.0,0.0,390.0,2.0,0.0
222,81.0,60.0,60.0,10.0,0.0
223,78.0,0.0,390.0,0.0,0.0
224,79.0,60.0,60.0,11.0,0.0
225,79.0,0.0,60.0,10.0,0.0
226,78.0,60.0,60.0,10.0,0.0
227,78.0,0.0,60.0,11.0,0.0
228,76.0,0.0,60.0,11.0,0.0
229,76.0,60.0,60.0,10.0,0.0
230,74.0,60.0,60.0,11.0,0.0
231,74.0,0.0,60.0,10.0,0.0
232,72.0,24.0,60.0,10.0,0.0
233,72.0,0.0,60.0,11.0,0.0
234,71.0,48.0,60.0,11.0,0.0
235,71.0,0.0,60.0,10.0,0.0
236,69.0,396.0,60.0,11.0,0.0
237,69.0,0.0,60.0,10.0,0.0
238,47.0,0.0,900.0,14.0,0.0
239,92.0,0.0,900.0,0.0,0.0
240,50.0,0.0,900.0,3.0,0.0
241,68.0,0.0,900.0,11.0,0.0
242,59.0,0.0,900.0,10.0,0.0
243,68.0,0.0,900.0,10.0,0.0
244,59.0,0.0,900.0,2.0,0.0
245,71.0,0.0,900.0,2.0,0.0
246,59.0,0.0,900.0,11.0,0.0
247,74.0,0.0,900.0,4.0,0.0
248,62.0,0.0,900.0,4.0,0.0
249,86.0,28.0,900.0,1.0,0.0
250,80.0,0.0,900.0,1.0,0.0
251,59.0,0.0,900.0,13.0,0.0
252,50.0,496.0,390.0,5.0,0.0
253,65.0,0.0,900.0,12.0,0.0
254,62.0,0.0,900.0,3.0,0.0
255,50.0,32.0,30.0,5.0,0.0
256,50.0,404.0,30.0,5.0,0.0
257,35.0,0.0,750.0,14.0,0.0
258,62.0,0.0,750.0,3.0,0.0
259,62.0,0.0,750.0,4.0,0.0
260,74.0,0.0,750.0,4.0,0.0
261,50.0,0.0,750.0,3.0,0.0
262,80.0,0.0,750.0,0.0,0.0
263,59.0,0.0,750.0,2.0,0.0
264,50.0,372.0,390.0,5.0,0.0
265,74.0,0.0,750.0,1.0,0.0
266,65.0,0.0,750.0,12.0,0.0
267,68.0,0.0,750.0,11.0,0.0
268,59.0,0.0,750.0,11.0,0.0
269,59.0,0.0,750.0,10.0,0.0
270,47.0,12.0,750.0,13.0,0.0
271,68.0,0.0,750.0,10.0,0.0
272,77.0,0.0,750.0,1.0,0.0
273,71.0,0.0,750.0,2.0,0.0
274,50.0,162.0,300.0,5.0,0.0
275,59.0,0.0,90.0,11.0,0.0
276,68.0,0.0,90.0,11.0,0.0
277,71.0,0.0,90.0,2.0,0.0
278,74.0,0.0,90.0,1.0,0.0
279,59.0,0.0,90.0,2.0,0.0
280,80.0,0.0,90.0,0.0,0.0
281,47.0,0.0,90.0,13.0,0.0
282,62.0,0.0,90.0,4.0,0.0
283,77.0,6.0,90.0,1.0,0.0
284,65.0,0.0,90.0,12.0,0.0
285,59.0,0.0,90.0,10.0,0.0
286,68.0,0.0,90.0,10.0,0.0
287,50.0,0.0,90.0,3.0,0.0
288,62.0,0.0,90.0,3.0,0.0
289,35.0,0.0,90.0,14.0,0.0
290,50.0,408.0,90.0,5.0,0.0
291,74.0,0.0,90.0,4.0,0.0
292,77.0,0.0,390.0,1.0,0.0
293,68.0,168.0,780.0,11.0,0.0
294,65.0,0.0,780.0,12.0,0.0
295,59.0,0.0,780.0,11.0,0.0
296,59.0,0.0,390.0,2.0,0.0
297,71.0,0.0,390.0,2.0,0.0
298,74.0,0.0,390.0,1.0,0.0
299,35.0,0.0,780.0,14.0,0.0
300,47.0,0.0,780.0,13.0,0.0
301,59.0,0.0,780.0,10.0,0.0
302,80.0,0.0,390.0,0.0,0.0
303,50.0,0.0,390.0,3.0,0.0
304,50.0,0.0,390.0,5.0,0.0
305,62.0,0.0,390.0,3.0,0.0
306,62.0,0.0,390.0,4.0,0.0
307,68.0,0.0,780.0,10.0,0.0
308,74.0,384.0,390.0,4.0,0.0
309,65.0,0.0,300.0,2.0,0.0
310,74.0,0.0,300.0,1.0,0.0
311,77.0,0.0,300.0,1.0,0.0
312,80.0,0.0,300.0,0.0,0.0
313,71.0,0.0,300.0,2.0,0.0
314,62.0,0.0,300.0,3.0,0.0
315,59.0,0.0,300.0,3.0,0.0
316,59.0,0.0,90.0,3.0,0.0
317,62.0,0.0,90.0,3.0,0.0
318,80.0,0.0,90.0,0.0,0.0
319,65.0,0.0,90.0,2.0,0.0
320,71.0,324.0,90.0,2.0,0.0
321,77.0,0.0,90.0,1.0,0.0
322,74.0,0.0,90.0,1.0,0.0
323,71.0,36.0,390.0,2.0,0.0
324,74.0,0.0,390.0,1.0,0.0
325,77.0,0.0,390.0,1.0,0.0
326,80.0,0.0,390.0,0.0,0.0
327,65.0,0.0,390.0,2.0,0.0
328,59.0,0.0,390.0,3.0,0.0
329,62.0,0.0,390.0,3.0,0.0
330,89.0,0.0,60.0,10.0,0.0
331,89.0,60.0,60.0,11.0,0.0
332,88.0,24.0,60.0,10.0,0.0
333,88.0,0.0,60.0,11.0,0.0
334,86.0,0.0,60.0,11.0,0.0
335,86.0,60.0,60.0,10.0,0.0
336,84.0,0.0,60.0,11.0,0.0
337,84.0,60.0,60.0,10.0,0.0
338,71.0,0.0,390.0,2.0,0.0
339,83.0,0.0,60.0,10.0,0.0
340,65.0,0.0,390.0,2.0,0.0
341,83.0,60.0,60.0,11.0,0.0
342,80.0,0.0,390.0,0.0,0.0
343,59.0,0.0,390.0,3.0,0.0
344,62.0,0.0,390.0,3.0,0.0
345,74.0,36.0,390.0,1.0,0.0
346,77.0,0.0,390.0,1.0,0.0
347,81.0,0.0,60.0,11.0,0.0
348,81.0,60.0,60.0,10.0,0.0
349,80.0,60.0,60.0,11.0,0.0
350,80.0,0.0,60.0,10.0,0.0
351,77.0,0.0,60.0,11.0,0.0
352,77.0,60.0,60.0,10.0,0.0
353,76.0,0.0,60.0,10.0,0.0
354,76.0,60.0,60.0,11.0,0.0
355,74.0,24.0,60.0,11.0,0.0
356,74.0,0.0,60.0,10.0,0.0
357,72.0,48.0,60.0,10.0,0.0
358,72.0,0.0,60.0,11.0,0.0
359,71.0,0.0,60.0,11.0,0.0
360,71.0,252.0,60.0,10.0,0.0
361,76.0,0.0,390.0,1.0,0.0
362,36.0,0.0,390.0,14.0,0.0
363,69.0,0.0,390.0,11.0,0.0
364,64.0,0.0,390.0,2.0,0.0
365,72.0,0.0,390.0,2.0,0.0
366,81.0,0.0,390.0,0.0,0.0
367,72.0,0.0,390.0,1.0,0.0
368,69.0,144.0,240.0,10.0,0.0
369,64.0,0.0,390.0,12.0,0.0
370,48.0,336.0,390.0,13.0,0.0
371,75.0,480.0,480.0,10.0,0.0
372,76.0,144.0,480.0,10.0,0.0
373,60.0,0.0,390.0,13.0,0.0
374,48.0,336.0,390.0,14.0,0.0
375,69.0,0.0,390.0,12.0,0.0
376,72.0,0.0,390.0,11.0,0.0
377,80.0,432.0,480.0,10.0,0.0
378,81.0,432.0,480.0,10.0,0.0
379,76.0,48.0,180.0,11.0,0.0
380,36.0,0.0,180.0,14.0,0.0
381,72.0,0.0,180.0,12.0,0.0
382,48.0,0.0,180.0,13.0,0.0
383,84.0,432.0,480.0,10.0,0.0
384,60.0,48.0,180.0,13.0,0.0
385,81.0,0.0,180.0,11.0,0.0
386,48.0,0.0,180.0,14.0,0.0
387,76.0,0.0,180.0,12.0,0.0
388,87.0,432.0,480.0,10.0,0.0
389,36.0,0.0,180.0,14.0,0.0
390,81.0,0.0,180.0,12.0,0.0
391,48.0,0.0,180.0,13.0,0.0
392,84.0,48.0,180.0,11.0,0.0
393,88.0,228.0,480.0,10.0,0.0
394,48.0,48.0,180.0,13.0,0.0
395,69.0,0.0,180.0,12.0,0.0
396,36.0,0.0,180.0,14.0,0.0
397,76.0,0.0,180.0,11.0,0.0
398,79.0,36.0,240.0,10.0,0.0
399,50.0,0.0,9510.0,3.0,0.0
400,69.0,12.0,180.0,12.0,0.0
401,62.0,0.0,780.0,4.0,0.0
402,78.0,6.0,780.0,10.0,0.0
403,50.0,0.0,180.0,13.0,0.0
404,74.0,0.0,780.0,11.0,0.0
405,74.0,0.0,780.0,4.0,0.0
406,50.0,30.0,20.0,5.0,0.0
407,38.0,0.0,180.0,14.0,0.0
408,62.0,0.0,9510.0,3.0,0.0
409,50.0,30.0,20.0,5.0,0.0
410,50.0,30.0,20.0,5.0,0.0
411,50.0,30.0,20.0,5.0,0.0
412,50.0,30.0,20.0,5.0,0.0
413,50.0,18.0,20.0,5.0,0.0
414,50.0,30.0,20.0,5.0,0.0
415,50.0,30.0,20.0,5.0,0.0
416,50.0,30.0,20.0,5.0,0.0
417,50.0,30.0,20.0,5.0,0.0
418,50.0,30.0,20.0,5.0,0.0
419,50.0,30.0,20.0,5.0,0.0
420,50.0,30.0,20.0,5.0,0.0
421,50.0,0.0,90.0,13.0,0.0
422,38.0,0.0,90.0,14.0,0.0
423,62.0,18.0,90.0,12.0,0.0
424,50.0,30.0,20.0,5.0,0.0
425,50.0,12.0,20.0,5.0,0.0
426,50.0,30.0,20.0,5.0,0.0
427,38.0,0.0,180.0,14.0,0.0
428,50.0,0.0,180.0,13.0,0.0
429,62.0,12.0,180.0,12.0,0.0
430,50.0,30.0,20.0,5.0,0.0
431,50.0,30.0,20.0,5.0,0.0
432,50.0,30.0,20.0,5.0,0.0
433,50.0,30.0,20.0,5.0,0.0
434,50.0,30.0,20.0,5.0,0.0
435,50.0,18.0,20.0,5.0,0.0
436,50.0,30.0,20.0,5.0,0.0
437,50.0,30.0,20.0,5.0,0.0
438,50.0,24.0,20.0,5.0,0.0
439,50.0,30.0,20.0,5.0,0.0
440,50.0,30.0,20.0,5.0,0.0
441,50.0,30.0,20.0,5.0,0.0
442,50.0,30.0,20.0,5.0,0.0
443,50.0,0.0,90.0,13.0,0.0
444,62.0,0.0,90.0,12.0,0.0
445,38.0,18.0,90.0,14.0,0.0
446,50.0,30.0,20.0,5.0,0.0
447,50.0,12.0,20.0,5.0,0.0
448,50.0,60.0,20.0,5.0,0.0
449,38.0,0.0,180.0,14.0,0.0
450,74.0,0.0,1920.0,1.0,0.0
451,69.0,0.0,900.0,2.0,0.0
452,66.0,12.0,900.0,2.0,0.0
453,62.0,0.0,180.0,12.0,0.0
454,50.0,12.0,180.0,13.0,0.0
455,50.0,30.0,20.0,5.0,0.0
456,50.0,30.0,20.0,5.0,0.0
457,50.0,30.0,20.0,5.0,0.0
458,50.0,30.0,20.0,5.0,0.0
459,50.0,18.0,20.0,5.0,0.0
460,50.0,30.0,20.0,5.0,0.0
461,50.0,30.0,20.0,5.0,0.0
462,50.0,30.0,20.0,5.0,0.0
463,50.0,30.0,20.0,5.0,0.0
464,50.0,30.0,20.0,5.0,0.0
465,50.0,30.0,20.0,5.0,0.0
466,50.0,0.0,90.0,13.0,0.0
467,38.0,0.0,90.0,14.0,0.0
468,62.0,18.0,90.0,12.0,0.0
469,50.0,30.0,20.0,5.0,0.0
470,50.0,30.0,20.0,5.0,0.0
471,50.0,12.0,20.0,5.0,0.0
472,50.0,30.0,20.0,5.0,0.0
473,38.0,0.0,180.0,14.0,0.0
474,62.0,12.0,180.0,12.0,0.0
475,50.0,0.0,180.0,13.0,0.0
476,50.0,30.0,20.0,5.0,0.0
477,50.0,30.0,20.0,5.0,0.0
478,50.0,30.0,20.0,5.0,0.0
479,50.0,30.0,20.0,5.0,0.0
480,50.0,30.0,20.0,5.0,0.0
481,50.0,18.0,20.0,5.0,0.0
482,50.0,30.0,20.0,5.0,0.0
483,50.0,30.0,20.0,5.0,0.0
484,50.0,30.0,20.0,5.0,0.0
485,50.0,30.0,20.0,5.0,0.0
486,50.0,30.0,20.0,5.0,0.0
487,50.0,30.0,20.0,5.0,0.0
488,50.0,30.0,20.0,5.0,0.0
489,62.0,0.0,90.0,12.0,0.0
490,38.0,0.0,90.0,14.0,0.0
491,50.0,18.0,90.0,13.0,0.0
492,50.0,18.0,20.0,5.0,0.0
493,50.0,12.0,20.0,5.0,0.0
494,50.0,30.0,20.0,5.0,0.0
495,50.0,0.0,180.0,13.0,0.0
496,62.0,6.0,780.0,4.0,0.0
497,74.0,0.0,780.0,4.0,0.0
498,76.0,12.0,1860.0,1.0,0.0
499,68.0,54.0,960.0,2.0,0.0
500,38.0,12.0,180.0,14.0,0.0
501,71.0,0.0,960.0,2.0,0.0
502,50.0,30.0,20.0,5.0,0.0
503,62.0,0.0,180.0,12.0,0.0
504,50.0,30.0,20.0,5.0,0.0
505,50.0,30.0,20.0,5.0,0.0
506,50.0,30.0,20.0,5.0,0.0
507,50.0,30.0,20.0,5.0,0.0
508,50.0,18.0,20.0,5.0,0.0
509,50.0,30.0,20.0,5.0,0.0
510,50.0,30.0,20.0,5.0,0.0
511,50.0,30.0,20.0,5.0,0.0
512,83.0,24.0,240.0,0.0,0.0
513,50.0,30.0,20.0,5.0,0.0
514,50.0,30.0,20.0,5.0,0.0
515,50.0,30.0,20.0,5.0,0.0
516,38.0,18.0,90.0,14.0,0.0
517,50.0,0.0,90.0,13.0,0.0
518,50.0,30.0,20.0,5.0,0.0
519,62.0,0.0,90.0,12.0,0.0
520,50.0,30.0,20.0,5.0,0.0
521,50.0,12.0,20.0,5.0,0.0
522,50.0,6.0,20.0,5.0,0.0
523,62.0,0.0,180.0,12.0,0.0
524,50.0,0.0,180.0,13.0,0.0
525,80.0,24.0,240.0,0.0,0.0
526,50.0,30.0,20.0,5.0,0.0
527,38.0,12.0,180.0,14.0,0.0
528,50.0,30.0,20.0,5.0,0.0
529,50.0,30.0,20.0,5.0,0.0
530,50.0,30.0,20.0,5.0,0.0
531,50.0,30.0,20.0,5.0,0.0
532,50.0,18.0,20.0,5.0,0.0
533,50.0,30.0,20.0,5.0,0.0
534,50.0,6.0,20.0,5.0,0.0
535,76.0,12.0,180.0,0.0,0.0
536,50.0,24.0,20.0,5.0,0.0
537,50.0,30.0,20.0,5.0,0.0
538,50.0,30.0,20.0,5.0,0.0
539,50.0,30.0,20.0,5.0,0.0
540,50.0,0.0,90.0,13.0,0.0
541,50.0,30.0,20.0,5.0,0.0
542,38.0,18.0,90.0,14.0,0.0
543,62.0,0.0,90.0,12.0,0.0
544,50.0,18.0,20.0,5.0,0.0
545,50.0,12.0,20.0,5.0,0.0
546,50.0,6.0,20.0,5.0,0.0
547,62.0,0.0,180.0,12.0,0.0
548,72.0,0.0,1920.0,1.0,0.0
549,50.0,0.0,180.0,13.0,0.0
550,38.0,12.0,180.0,14.0,0.0
551,69.0,54.0,1920.0,2.0,0.0
552,50.0,30.0,20.0,5.0,0.0
553,50.0,30.0,20.0,5.0,0.0
554,50.0,30.0,20.0,5.0,0.0
555,50.0,30.0,20.0,5.0,0.0
556,50.0,18.0,20.0,5.0,0.0
557,50.0,30.0,20.0,5.0,0.0
558,50.0,30.0,20.0,5.0,0.0
559,84.0,24.0,240.0,0.0,0.0
560,50.0,30.0,20.0,5.0,0.0
561,88.0,24.0,60.0,10.0,0.0
562,50.0,6.0,20.0,5.0,0.0
563,86.0,24.0,60.0,10.0,0.0
564,50.0,30.0,20.0,5.0,0.0
565,50.0,6.0,20.0,5.0,0.0
566,62.0,18.0,90.0,12.0,0.0
567,50.0,0.0,90.0,13.0,0.0
568,38.0,0.0,90.0,14.0,0.0
569,84.0,24.0,60.0,10.0,0.0
570,50.0,30.0,20.0,5.0,0.0
571,50.0,6.0,20.0,5.0,0.0
572,83.0,0.0,60.0,10.0,0.0
573,50.0,12.0,20.0,5.0,0.0
574,50.0,6.0,20.0,5.0,0.0
575,50.0,30.0,20.0,5.0,0.0
576,50.0,0.0,180.0,13.0,0.0
577,81.0,24.0,60.0,10.0,0.0
578,88.0,0.0,240.0,0.0,0.0
579,38.0,12.0,180.0,14.0,0.0
580,62.0,0.0,180.0,12.0,0.0
581,50.0,6.0,20.0,5.0,0.0
582,50.0,30.0,20.0,5.0,0.0
583,79.0,24.0,60.0,10.0,0.0
584,50.0,6.0,20.0,5.0,0.0
585,50.0,30.0,20.0,5.0,0.0
586,78.0,12.0,60.0,10.0,0.0
587,50.0,6.0,20.0,5.0,0.0
588,76.0,24.0,60.0,10.0,0.0
589,50.0,30.0,20.0,5.0,0.0
590,50.0,6.0,20.0,5.0,0.0
591,93.0,0.0,180.0,0.0,0.0
592,50.0,30.0,20.0,5.0,0.0
593,74.0,24.0,60.0,10.0,0.0
594,50.0,6.0,20.0,5.0,0.0
595,72.0,24.0,60.0,10.0,0.0
596,50.0,30.0,20.0,5.0,0.0
597,50.0,6.0,20.0,5.0,0.0
598,38.0,0.0,90.0,14.0,0.0
599,71.0,12.0,60.0,10.0,0.0
600,50.0,30.0,20.0,5.0,0.0
601,50.0,0.0,90.0,13.0,0.0
602,62.0,12.0,90.0,12.0,0.0
603,50.0,6.0,20.0,5.0,0.0
604,69.0,6.0,60.0,10.0,0.0
605,50.0,12.0,20.0,5.0,0.0
606,50.0,30.0,20.0,5.0,0.0
607,50.0,0.0,180.0,13.0,0.0
608,62.0,0.0,780.0,4.0,0.0
609,38.0,12.0,180.0,14.0,0.0
610,50.0,30.0,20.0,5.0,0.0
611,74.0,12.0,1860.0,1.0,0.0
612,66.0,0.0,960.0,2.0,0.0
613,74.0,0.0,780.0,4.0,0.0
614,74.0,6.0,780.0,10.0,0.0
615,62.0,0.0,180.0,12.0,0.0
616,50.0,30.0,20.0,5.0,0.0
617,50.0,30.0,20.0,5.0,0.0
618,50.0,30.0,20.0,5.0,0.0
619,50.0,30.0,20.0,5.0,0.0
620,50.0,18.0,20.0,5.0,0.0
621,50.0,30.0,20.0,5.0,0.0
622,50.0,30.0,20.0,5.0,0.0
623,81.0,24.0,60.0,11.0,0.0
624,78.0,0.0,240.0,0.0,0.0
625,50.0,30.0,20.0,5.0,0.0
626,50.0,6.0,20.0,5.0,0.0
627,50.0,30.0,20.0,5.0,0.0
628,79.0,24.0,60.0,11.0,0.0
629,50.0,6.0,20.0,5.0,0.0
630,62.0,0.0,90.0,12.0,0.0
631,38.0,18.0,90.0,14.0,0.0
632,78.0,24.0,60.0,11.0,0.0
633,50.0,0.0,90.0,13.0,0.0
634,50.0,30.0,20.0,5.0,0.0
635,50.0,6.0,20.0,5.0,0.0
636,50.0,12.0,20.0,5.0,0.0
637,76.0,24.0,60.0,11.0,0.0
638,50.0,6.0,20.0,5.0,0.0
639,50.0,30.0,20.0,5.0,0.0
640,62.0,12.0,180.0,12.0,0.0
641,38.0,0.0,180.0,14.0,0.0
642,74.0,24.0,60.0,11.0,0.0
643,50.0,0.0,180.0,13.0,0.0
644,81.0,24.0,240.0,0.0,0.0
645,50.0,6.0,20.0,5.0,0.0
646,72.0,24.0,60.0,11.0,0.0
647,50.0,30.0,20.0,5.0,0.0
648,50.0,6.0,20.0,5.0,0.0
649,50.0,30.0,20.0,5.0,0.0
650,71.0,12.0,60.0,11.0,0.0
651,50.0,6.0,20.0,5.0,0.0
652,69.0,0.0,60.0,11.0,0.0
653,50.0,30.0,20.0,5.0,0.0
654,50.0,6.0,20.0,5.0,0.0
655,84.0,12.0,180.0,0.0,0.0
656,67.0,24.0,60.0,11.0,0.0
657,50.0,24.0,20.0,5.0,0.0
658,50.0,6.0,20.0,5.0,0.0
659,50.0,30.0,20.0,5.0,0.0
660,66.0,24.0,60.0,11.0,0.0
661,50.0,6.0,20.0,5.0,0.0
662,50.0,0.0,90.0,13.0,0.0
663,64.0,12.0,60.0,11.0,0.0
664,62.0,0.0,90.0,12.0,0.0
665,50.0,30.0,20.0,5.0,0.0
666,38.0,12.0,90.0,14.0,0.0
667,50.0,6.0,20.0,5.0,0.0
668,50.0,12.0,20.0,5.0,0.0
669,62.0,6.0,60.0,11.0,0.0
670,50.0,6.0,20.0,5.0,0.0
671,50.0,0.0,180.0,13.0,0.0
672,67.0,0.0,1920.0,2.0,0.0
673,62.0,12.0,180.0,12.0,0.0
674,67.0,6.0,780.0,11.0,0.0
675,38.0,0.0,180.0,14.0,0.0
676,71.0,0.0,1920.0,1.0,0.0
677,50.0,30.0,20.0,5.0,0.0
678,50.0,30.0,20.0,5.0,0.0
679,50.0,30.0,20.0,5.0,0.0
680,50.0,30.0,20.0,5.0,0.0
681,50.0,18.0,20.0,5.0,0.0
682,50.0,30.0,20.0,5.0,0.0
683,50.0,30.0,20.0,5.0,0.0
684,83.0,0.0,240.0,0.0,0.0
685,50.0,30.0,20.0,5.0,0.0
686,86.0,24.0,60.0,10.0,0.0
687,50.0,6.0,20.0,5.0,0.0
688,84.0,24.0,60.0,10.0,0.0
689,50.0,30.0,20.0,5.0,0.0
690,50.0,6.0,20.0,5.0,0.0
691,50.0,30.0,20.0,5.0,0.0
692,62.0,0.0,90.0,12.0,0.0
693,38.0,0.0,90.0,14.0,0.0
694,50.0,18.0,90.0,13.0,0.0
695,83.0,24.0,60.0,10.0,0.0
696,50.0,6.0,20.0,5.0,0.0
697,50.0,12.0,20.0,5.0,0.0
698,81.0,24.0,60.0,10.0,0.0
699,50.0,6.0,20.0,5.0,0.0
700,50.0,12.0,180.0,13.0,0.0
701,50.0,30.0,20.0,5.0,0.0
702,62.0,0.0,180.0,12.0,0.0
703,38.0,0.0,180.0,14.0,0.0
704,86.0,0.0,240.0,0.0,0.0
705,79.0,24.0,60.0,10.0,0.0
706,50.0,6.0,20.0,5.0,0.0
707,78.0,24.0,60.0,10.0,0.0
708,50.0,30.0,20.0,5.0,0.0
709,50.0,6.0,20.0,5.0,0.0
710,50.0,30.0,20.0,5.0,0.0
711,76.0,12.0,60.0,10.0,0.0
712,50.0,6.0,20.0,5.0,0.0
713,74.0,24.0,60.0,10.0,0.0
714,50.0,30.0,20.0,5.0,0.0
715,50.0,6.0,20.0,5.0,0.0
716,72.0,24.0,60.0,10.0,0.0
717,91.0,0.0,180.0,0.0,0.0
718,50.0,24.0,20.0,5.0,0.0
719,50.0,6.0,20.0,5.0,0.0
720,50.0,30.0,20.0,5.0,0.0
721,71.0,24.0,60.0,10.0,0.0
722,50.0,6.0,20.0,5.0,0.0
723,69.0,12.0,60.0,10.0,0.0
724,50.0,0.0,90.0,13.0,0.0
725,50.0,30.0,20.0,5.0,0.0
726,62.0,12.0,90.0,12.0,0.0
727,38.0,0.0,90.0,14.0,0.0
728,50.0,6.0,20.0,5.0,0.0
729,67.0,6.0,60.0,10.0,0.0
730,50.0,12.0,20.0,5.0,0.0
731,50.0,30.0,20.0,5.0,0.0
732,50.0,30.0,20.0,5.0,0.0
733,62.0,12.0,180.0,12.0,0.0
734,64.0,54.0,960.0,2.0,0.0
735,74.0,6.0,780.0,4.0,0.0
736,50.0,0.0,180.0,13.0,0.0
737,72.0,12.0,1860.0,1.0,0.0
738,38.0,0.0,180.0,14.0,0.0
739,72.0,0.0,780.0,10.0,0.0
740,62.0,0.0,780.0,4.0,0.0
741,50.0,30.0,20.0,5.0,0.0
742,50.0,30.0,20.0,5.0,0.0
743,50.0,30.0,20.0,5.0,0.0
744,50.0,30.0,20.0,5.0,0.0
745,50.0,18.0,20.0,5.0,0.0
746,50.0,30.0,20.0,5.0,0.0
747,50.0,30.0,20.0,5.0,0.0
748,76.0,24.0,240.0,0.0,0.0
749,50.0,30.0,20.0,5.0,0.0
750,79.0,24.0,60.0,11.0,0.0
751,50.0,6.0,20.0,5.0,0.0
752,77.0,24.0,60.0,11.0,0.0
753,50.0,30.0,20.0,5.0,0.0
754,50.0,6.0,20.0,5.0,0.0
755,50.0,18.0,90.0,13.0,0.0
756,50.0,30.0,20.0,5.0,0.0
757,76.0,24.0,60.0,11.0,0.0
758,38.0,0.0,90.0,14.0,0.0
759,62.0,0.0,90.0,12.0,0.0
760,50.0,6.0,20.0,5.0,0.0
761,74.0,0.0,60.0,11.0,0.0
762,50.0,12.0,20.0,5.0,0.0
763,50.0,6.0,20.0,5.0,0.0
764,79.0,0.0,240.0,0.0,0.0
765,50.0,0.0,180.0,13.0,0.0
766,38.0,12.0,180.0,14.0,0.0
767,62.0,0.0,180.0,12.0,0.0
768,50.0,30.0,20.0,5.0,0.0
769,72.0,24.0,60.0,11.0,0.0
770,50.0,6.0,20.0,5.0,0.0
771,50.0,30.0,20.0,5.0,0.0
772,71.0,24.0,60.0,11.0,0.0
773,50.0,6.0,20.0,5.0,0.0
774,69.0,12.0,60.0,11.0,0.0
775,50.0,30.0,20.0,5.0,0.0
776,50.0,6.0,20.0,5.0,0.0
777,50.0,30.0,20.0,5.0,0.0
778,67.0,24.0,60.0,11.0,0.0
779,50.0,6.0,20.0,5.0,0.0
780,83.0,12.0,180.0,0.0,0.0
781,50.0,24.0,20.0,5.0,0.0
782,65.0,24.0,60.0,11.0,0.0
783,50.0,6.0,20.0,5.0,0.0
784,50.0,30.0,20.0,5.0,0.0
785,64.0,24.0,60.0,11.0,0.0
786,50.0,6.0,20.0,5.0,0.0
787,38.0,0.0,90.0,14.0,0.0
788,50.0,12.0,90.0,13.0,0.0
789,62.0,0.0,90.0,12.0,0.0
790,62.0,12.0,60.0,11.0,0.0
791,50.0,30.0,20.0,5.0,0.0
792,50.0,6.0,20.0,5.0,0.0
793,50.0,12.0,20.0,5.0,0.0
794,60.0,6.0,60.0,11.0,0.0
795,50.0,6.0,20.0,5.0,0.0
796,62.0,0.0,180.0,12.0,0.0
797,50.0,12.0,180.0,13.0,0.0
798,69.0,0.0,900.0,1.0,0.0
799,38.0,0.0,180.0,14.0,0.0
800,66.0,6.0,780.0,11.0,0.0
801,66.0,0.0,900.0,2.0,0.0
802,50.0,30.0,20.0,5.0,0.0
803,50.0,30.0,20.0,5.0,0.0
804,50.0,30.0,20.0,5.0,0.0
805,50.0,30.0,20.0,5.0,0.0
806,50.0,18.0,20.0,5.0,0.0
807,50.0,30.0,20.0,5.0,0.0
808,50.0,30.0,20.0,5.0,0.0
809,81.0,24.0,240.0,0.0,0.0
810,50.0,30.0,20.0,5.0,0.0
811,84.0,24.0,60.0,10.0,0.0
812,50.0,6.0,20.0,5.0,0.0
813,50.0,30.0,20.0,5.0,0.0
814,83.0,24.0,60.0,10.0,0.0
815,50.0,6.0,20.0,5.0,0.0
816,50.0,0.0,90.0,13.0,0.0
817,62.0,0.0,90.0,12.0,0.0
818,50.0,30.0,20.0,5.0,0.0
819,81.0,24.0,60.0,10.0,0.0
820,38.0,18.0,90.0,14.0,0.0
821,50.0,6.0,20.0,5.0,0.0
822,50.0,12.0,20.0,5.0,0.0
823,79.0,0.0,60.0,10.0,0.0
824,50.0,6.0,20.0,5.0,0.0
825,62.0,0.0,180.0,12.0,0.0
826,50.0,0.0,180.0,13.0,0.0
827,78.0,24.0,60.0,10.0,0.0
828,50.0,30.0,20.0,5.0,0.0
829,84.0,24.0,240.0,0.0,0.0
830,38.0,12.0,180.0,14.0,0.0
831,50.0,6.0,20.0,5.0,0.0
832,50.0,30.0,20.0,5.0,0.0
833,76.0,24.0,60.0,10.0,0.0
834,50.0,6.0,20.0,5.0,0.0
835,50.0,30.0,20.0,5.0,0.0
836,74.0,12.0,60.0,10.0,0.0
837,50.0,6.0,20.0,5.0,0.0
838,50.0,30.0,20.0,5.0,0.0
839,72.0,0.0,60.0,10.0,0.0
840,50.0,6.0,20.0,5.0,0.0
841,71.0,24.0,60.0,10.0,0.0
842,90.0,0.0,180.0,0.0,0.0
843,50.0,24.0,20.0,5.0,0.0
844,50.0,6.0,20.0,5.0,0.0
845,50.0,30.0,20.0,5.0,0.0
846,69.0,24.0,60.0,10.0,0.0
847,50.0,6.0,20.0,5.0,0.0
848,62.0,0.0,90.0,12.0,0.0
849,50.0,30.0,20.0,5.0,0.0
850,50.0,12.0,90.0,13.0,0.0
851,38.0,0.0,90.0,14.0,0.0
852,67.0,12.0,60.0,10.0,0.0
853,50.0,6.0,20.0,5.0,0.0
854,50.0,12.0,20.0,5.0,0.0
855,66.0,6.0,60.0,10.0,0.0
856,50.0,30.0,20.0,5.0,0.0
857,62.0,54.0,960.0,2.0,0.0
858,67.0,0.0,960.0,2.0,0.0
859,50.0,30.0,20.0,5.0,0.0
860,50.0,0.0,180.0,13.0,0.0
861,62.0,12.0,180.0,12.0,0.0
862,38.0,0.0,180.0,14.0,0.0
863,74.0,0.0,780.0,4.0,0.0
864,62.0,6.0,780.0,4.0,0.0
865,71.0,0.0,780.0,10.0,0.0
866,71.0,0.0,960.0,1.0,0.0
867,67.0,0.0,2310.0,1.0,0.0
868,50.0,30.0,20.0,5.0,0.0
869,50.0,30.0,20.0,5.0,0.0
870,50.0,30.0,20.0,5.0,0.0
871,50.0,30.0,20.0,5.0,0.0
872,50.0,18.0,20.0,5.0,0.0
873,50.0,30.0,20.0,5.0,0.0
874,50.0,30.0,20.0,5.0,0.0
875,79.0,0.0,240.0,0.0,0.0
876,74.0,24.0,60.0,11.0,0.0
877,50.0,30.0,20.0,5.0,0.0
878,50.0,6.0,20.0,5.0,0.0
879,50.0,30.0,20.0,5.0,0.0
880,72.0,24.0,60.0,11.0,0.0
881,50.0,6.0,20.0,5.0,0.0
882,50.0,18.0,90.0,13.0,0.0
883,38.0,0.0,90.0,14.0,0.0
884,71.0,24.0,60.0,11.0,0.0
885,62.0,0.0,90.0,12.0,0.0
886,50.0,30.0,20.0,5.0,0.0
887,50.0,6.0,20.0,5.0,0.0
888,50.0,12.0,20.0,5.0,0.0
889,69.0,24.0,60.0,11.0,0.0
890,50.0,6.0,20.0,5.0,0.0
891,62.0,12.0,180.0,12.0,0.0
892,50.0,0.0,180.0,13.0,0.0
893,38.0,0.0,180.0,14.0,0.0
894,67.0,24.0,60.0,11.0,0.0
895,50.0,30.0,20.0,5.0,0.0
896,83.0,0.0,240.0,0.0,0.0
897,50.0,6.0,20.0,5.0,0.0
898,69.0,24.0,60.0,11.0,0.0
899,50.0,30.0,20.0,5.0,0.0
900,50.0,6.0,20.0,5.0,0.0
901,50.0,30.0,20.0,5.0,0.0
902,71.0,12.0,60.0,11.0,0.0
903,50.0,6.0,20.0,5.0,0.0
904,50.0,30.0,20.0,5.0,0.0
905,69.0,24.0,60.0,11.0,0.0
906,50.0,6.0,20.0,5.0,0.0
907,67.0,24.0,60.0,11.0,0.0
908,86.0,12.0,180.0,0.0,0.0
909,50.0,24.0,20.0,5.0,0.0
910,50.0,6.0,20.0,5.0,0.0
911,50.0,30.0,20.0,5.0,0.0
912,66.0,24.0,60.0,11.0,0.0
913,50.0,6.0,20.0,5.0,0.0
914,64.0,12.0,60.0,11.0,0.0
915,38.0,0.0,90.0,14.0,0.0
916,50.0,30.0,20.0,5.0,0.0
917,50.0,12.0,90.0,13.0,0.0
918,62.0,0.0,90.0,12.0,0.0
919,50.0,6.0,20.0,5.0,0.0
920,62.0,6.0,60.0,11.0,0.0
921,50.0,12.0,20.0,5.0,0.0
922,50.0,6.0,20.0,5.0,0.0
923,38.0,0.0,180.0,14.0,0.0
924,61.0,6.0,780.0,11.0,0.0
925,69.0,0.0,1350.0,2.0,0.0
926,50.0,12.0,180.0,13.0,0.0
927,55.0,192.0,960.0,12.0,0.0
928,64.0,0.0,900.0,2.0,0.0
929,73.0,12.0,900.0,1.0,0.0
930,50.0,30.0,20.0,5.0,0.0
931,50.0,30.0,20.0,5.0,0.0
932,50.0,30.0,20.0,5.0,0.0
933,50.0,30.0,20.0,5.0,0.0
934,50.0,18.0,20.0,5.0,0.0
935,50.0,30.0,20.0,5.0,0.0
936,50.0,30.0,20.0,5.0,0.0
937,50.0,30.0,20.0,5.0,0.0
938,88.0,0.0,240.0,0.0,0.0
939,83.0,24.0,60.0,10.0,0.0
940,50.0,6.0,20.0,5.0,0.0
941,50.0,30.0,20.0,5.0,0.0
942,81.0,24.0,60.0,10.0,0.0
943,50.0,6.0,20.0,5.0,0.0
944,38.0,0.0,90.0,14.0,0.0
945,50.0,30.0,20.0,5.0,0.0
946,79.0,24.0,60.0,10.0,0.0
947,50.0,18.0,90.0,13.0,0.0
948,50.0,6.0,20.0,5.0,0.0
949,78.0,24.0,60.0,10.0,0.0
950,50.0,12.0,20.0,5.0,0.0
951,50.0,6.0,20.0,5.0,0.0
952,50.0,30.0,20.0,5.0,0.0
953,76.0,24.0,60.0,10.0,0.0
954,50.0,0.0,180.0,13.0,0.0
955,38.0,12.0,180.0,14.0,0.0
956,91.0,24.0,240.0,0.0,0.0
957,50.0,6.0,20.0,5.0,0.0
958,50.0,30.0,20.0,5.0,0.0
959,74.0,24.0,60.0,10.0,0.0
960,50.0,6.0,20.0,5.0,0.0
961,50.0,30.0,20.0,5.0,0.0
962,73.0,12.0,60.0,10.0,0.0
963,50.0,6.0,20.0,5.0,0.0
964,50.0,30.0,20.0,5.0,0.0
965,71.0,0.0,60.0,10.0,0.0
966,50.0,6.0,20.0,5.0,0.0
967,50.0,24.0,20.0,5.0,0.0
968,69.0,24.0,60.0,10.0,0.0
969,85.0,0.0,180.0,0.0,0.0
970,50.0,6.0,20.0,5.0,0.0
971,67.0,24.0,60.0,10.0,0.0
972,50.0,30.0,20.0,5.0,0.0
973,50.0,6.0,20.0,5.0,0.0
974,50.0,30.0,20.0,5.0,0.0
975,50.0,12.0,90.0,13.0,0.0
976,38.0,0.0,90.0,14.0,0.0
977,66.0,12.0,60.0,10.0,0.0
978,50.0,6.0,20.0,5.0,0.0
979,64.0,6.0,60.0,10.0,0.0
980,50.0,12.0,20.0,5.0,0.0
981,50.0,6.0,20.0,5.0,0.0
982,50.0,0.0,180.0,5.0,0.0
983,86.0,66.0,390.0,0.0,0.0
984,62.0,0.0,180.0,3.0,0.0
985,50.0,0.0,180.0,3.0,0.0
986,62.0,0.0,390.0,2.0,0.0
987,54.0,168.0,780.0,12.0,0.0
988,38.0,0.0,780.0,14.0,0.0
989,62.0,0.0,390.0,11.0,0.0
990,74.0,0.0,180.0,4.0,0.0
991,62.0,192.0,180.0,10.0,0.0
992,74.0,0.0,390.0,1.0,0.0
993,50.0,0.0,780.0,13.0,0.0
994,62.0,0.0,180.0,4.0,0.0
995,74.0,0.0,90.0,4.0,0.0
996,74.0,0.0,90.0,10.0,0.0
997,86.0,6.0,90.0,10.0,0.0
998,62.0,0.0,90.0,4.0,0.0
999,62.0,216.0,90.0,3.0,0.0
1000,50.0,0.0,90.0,3.0,0.0
1001,50.0,0.0,90.0,5.0,0.0
1002,50.0,96.0,180.0,3.0,0.0
1003,74.0,0.0,180.0,4.0,0.0
1004,62.0,0.0,180.0,4.0,0.0
1005,50.0,0.0,180.0,5.0,0.0
1006,74.0,0.0,180.0,10.0,0.0
1007,86.0,0.0,180.0,10.0,0.0
1008,62.0,0.0,180.0,3.0,0.0
1009,50.0,0.0,90.0,5.0,0.0
1010,50.0,0.0,90.0,3.0,0.0
1011,62.0,0.0,90.0,3.0,0.0
1012,74.0,216.0,90.0,10.0,0.0
1013,74.0,0.0,90.0,4.0,0.0
1014,86.0,0.0,90.0,10.0,0.0
1015,62.0,0.0,90.0,4.0,0.0
1016,50.0,0.0,180.0,5.0,0.0
1017,50.0,0.0,180.0,3.0,0.0
1018,86.0,0.0,180.0,10.0,0.0
1019,62.0,108.0,180.0,3.0,0.0
1020,74.0,0.0,180.0,10.0,0.0
1021,74.0,0.0,180.0,4.0,0.0
1022,62.0,0.0,180.0,4.0,0.0
1023,49.0,0.0,60.0,13.0,0.0
1024,37.0,60.0,60.0,14.0,0.0
1025,61.0,0.0,60.0,12.0,0.0
1026,62.0,60.0,60.0,12.0,0.0
1027,50.0,0.0,60.0,13.0,0.0
1028,38.0,0.0,60.0,14.0,0.0
1029,62.0,24.0,90.0,4.0,0.0
1030,74.0,0.0,90.0,4.0,0.0
1031,50.0,0.0,90.0,3.0,0.0
1032,62.0,0.0,90.0,3.0,0.0
1033,52.0,0.0,60.0,13.0,0.0
1034,86.0,0.0,90.0,10.0,0.0
1035,40.0,0.0,60.0,14.0,0.0
1036,74.0,0.0,90.0,10.0,0.0
1037,64.0,36.0,60.0,12.0,0.0
1038,50.0,0.0,90.0,5.0,0.0
1039,42.0,0.0,60.0,14.0,0.0
1040,66.0,0.0,60.0,12.0,0.0
1041,54.0,60.0,60.0,13.0,0.0
1042,74.0,0.0,180.0,4.0,0.0
1043,67.0,0.0,60.0,12.0,0.0
1044,43.0,60.0,60.0,14.0,0.0
1045,50.0,48.0,180.0,5.0,0.0
1046,62.0,0.0,180.0,4.0,0.0
1047,74.0,0.0,180.0,10.0,0.0
1048,62.0,0.0,180.0,3.0,0.0
1049,50.0,0.0,180.0,3.0,0.0
1050,55.0,0.0,60.0,13.0,0.0
1051,86.0,0.0,180.0,10.0,0.0
1052,69.0,60.0,60.0,12.0,0.0
1053,45.0,0.0,60.0,14.0,0.0
1054,57.0,0.0,60.0,13.0,0.0
1055,59.0,0.0,60.0,13.0,0.0
1056,47.0,12.0,60.0,14.0,0.0
1057,71.0,0.0,60.0,12.0,0.0
1058,72.0,0.0,60.0,12.0,0.0
1059,60.0,0.0,60.0,13.0,0.0
1060,48.0,60.0,60.0,14.0,0.0
1061,62.0,0.0,60.0,13.0,0.0
1062,74.0,0.0,60.0,12.0,0.0
1063,50.0,60.0,60.0,14.0,0.0
1064,64.0,0.0,60.0,13.0,0.0
1065,76.0,0.0,60.0,12.0,0.0
1066,52.0,60.0,60.0,14.0,0.0
1067,74.0,0.0,90.0,10.0,0.0
1068,86.0,24.0,90.0,10.0,0.0
1069,78.0,0.0,60.0,12.0,0.0
1070,62.0,0.0,90.0,4.0,0.0
1071,62.0,0.0,90.0,3.0,0.0
1072,50.0,0.0,90.0,3.0,0.0
1073,54.0,0.0,60.0,14.0,0.0
1074,50.0,0.0,90.0,5.0,0.0
1075,74.0,0.0,90.0,4.0,0.0
1076,66.0,36.0,60.0,13.0,0.0
1077,79.0,0.0,60.0,12.0,0.0
1078,67.0,0.0,60.0,13.0,0.0
1079,55.0,192.0,60.0,14.0,0.0
1080,74.0,0.0,180.0,10.0,0.0
1081,86.0,0.0,180.0,10.0,0.0
1082,66.0,0.0,1920.0,2.0,0.0
1083,60.0,0.0,1920.0,2.0,0.0
1084,69.0,0.0,180.0,13.0,0.0
1085,72.0,192.0,1920.0,1.0,0.0
1086,90.0,0.0,1920.0,0.0,0.0
1087,84.0,0.0,180.0,11.0,0.0
1088,62.0,0.0,180.0,4.0,0.0
1089,50.0,0.0,180.0,5.0,0.0
1090,81.0,0.0,180.0,12.0,0.0
1091,50.0,264.0,180.0,3.0,0.0
1092,62.0,0.0,180.0,3.0,0.0
1093,74.0,0.0,180.0,4.0,0.0
1094,57.0,0.0,180.0,14.0,0.0
1095,78.0,0.0,1920.0,1.0,0.0
1096,55.0,0.0,90.0,14.0,0.0
1097,74.0,0.0,90.0,10.0,0.0
1098,62.0,0.0,90.0,3.0,0.0
1099,50.0,0.0,90.0,3.0,0.0
1100,86.0,0.0,90.0,10.0,0.0
1101,67.0,0.0,90.0,13.0,0.0
1102,62.0,0.0,90.0,4.0,0.0
1103,74.0,0.0,90.0,4.0,0.0
1104,84.0,0.0,90.0,11.0,0.0
1105,50.0,0.0,90.0,5.0,0.0
1106,79.0,216.0,90.0,12.0,0.0
1107,78.0,0.0,180.0,12.0,0.0
1108,62.0,0.0,180.0,4.0,0.0
1109,74.0,0.0,180.0,4.0,0.0
1110,50.0,0.0,180.0,5.0,0.0
1111,66.0,0.0,180.0,13.0,0.0
1112,54.0,0.0,180.0,14.0,0.0
1113,74.0,0.0,180.0,10.0,0.0
1114,50.0,0.0,180.0,3.0,0.0
1115,62.0,264.0,180.0,3.0,0.0
1116,84.0,0.0,180.0,11.0,0.0
1117,86.0,0.0,180.0,10.0,0.0
1118,74.0,0.0,90.0,4.0,0.0
1119,84.0,0.0,90.0,11.0,0.0
1120,50.0,0.0,90.0,5.0,0.0
1121,76.0,0.0,90.0,12.0,0.0
1122,52.0,0.0,90.0,14.0,0.0
1123,64.0,0.0,90.0,13.0,0.0
1124,50.0,216.0,90.0,3.0,0.0
1125,62.0,0.0,90.0,3.0,0.0
1126,74.0,0.0,90.0,10.0,0.0
1127,86.0,0.0,90.0,10.0,0.0
1128,62.0,0.0,90.0,4.0,0.0
1129,62.0,0.0,180.0,13.0,0.0
1130,74.0,0.0,180.0,10.0,0.0
1131,86.0,0.0,180.0,10.0,0.0
1132,62.0,264.0,180.0,4.0,0.0
1133,74.0,0.0,180.0,4.0,0.0
1134,62.0,0.0,180.0,3.0,0.0
1135,50.0,0.0,180.0,3.0,0.0
1136,84.0,0.0,180.0,11.0,0.0
1137,74.0,0.0,180.0,12.0,0.0
1138,50.0,0.0,180.0,5.0,0.0
1139,50.0,0.0,180.0,14.0,0.0
1140,48.0,0.0,90.0,14.0,0.0
1141,74.0,0.0,90.0,4.0,0.0
1142,62.0,0.0,90.0,4.0,0.0
1143,86.0,0.0,90.0,10.0,0.0
1144,74.0,0.0,90.0,10.0,0.0
1145,72.0,0.0,90.0,12.0,0.0
1146,62.0,0.0,90.0,3.0,0.0
1147,84.0,0.0,90.0,11.0,0.0
1148,50.0,0.0,90.0,3.0,0.0
1149,60.0,0.0,90.0,13.0,0.0
1150,50.0,216.0,90.0,5.0,0.0
1151,62.0,0.0,180.0,3.0,0.0
1152,74.0,0.0,180.0,4.0,0.0
1153,50.0,0.0,180.0,5.0,0.0
1154,71.0,0.0,180.0,12.0,0.0
1155,86.0,0.0,180.0,10.0,0.0
1156,74.0,0.0,180.0,10.0,0.0
1157,47.0,0.0,180.0,14.0,0.0
1158,50.0,264.0,180.0,3.0,0.0
1159,62.0,0.0,180.0,4.0,0.0
1160,84.0,0.0,180.0,11.0,0.0
1161,59.0,0.0,180.0,13.0,0.0
1162,50.0,0.0,90.0,3.0,0.0
1163,62.0,0.0,90.0,3.0,0.0
1164,69.0,0.0,90.0,12.0,0.0
1165,57.0,0.0,90.0,13.0,0.0
1166,50.0,0.0,90.0,5.0,0.0
1167,74.0,0.0,90.0,10.0,0.0
1168,74.0,0.0,90.0,4.0,0.0
1169,62.0,0.0,90.0,4.0,0.0
1170,86.0,0.0,90.0,10.0,0.0
1171,45.0,24.0,90.0,14.0,0.0
1172,84.0,0.0,90.0,11.0,0.0
1173,71.0,72.0,390.0,1.0,0.0
1174,86.0,0.0,390.0,10.0,0.0
1175,74.0,0.0,390.0,10.0,0.0
1176,43.0,168.0,780.0,14.0,0.0
1177,67.0,0.0,390.0,2.0,0.0
1178,59.0,0.0,390.0,2.0,0.0
1179,50.0,0.0,390.0,5.0,0.0
1180,91.0,0.0,390.0,0.0,0.0
1181,50.0,0.0,390.0,3.0,0.0
1182,83.0,192.0,180.0,11.0,0.0
1183,67.0,0.0,780.0,12.0,0.0
1184,62.0,0.0,390.0,4.0,0.0
1185,55.0,0.0,780.0,13.0,0.0
1186,74.0,0.0,390.0,4.0,0.0
1187,79.0,0.0,390.0,1.0,0.0
1188,62.0,0.0,390.0,3.0,0.0
1189,74.0,216.0,90.0,11.0,0.0
1190,86.0,0.0,90.0,11.0,0.0
1191,86.0,96.0,180.0,11.0,0.0
1192,74.0,0.0,180.0,11.0,0.0
1193,86.0,0.0,90.0,11.0,0.0
1194,74.0,216.0,90.0,11.0,0.0
1195,86.0,0.0,180.0,11.0,0.0
1196,74.0,108.0,180.0,11.0,0.0
1197,38.0,0.0,60.0,14.0,0.0
1198,50.0,0.0,60.0,13.0,0.0
1199,62.0,60.0,60.0,12.0,0.0
1200,40.0,0.0,60.0,14.0,0.0
1201,52.0,60.0,60.0,13.0,0.0
1202,64.0,0.0,60.0,12.0,0.0
1203,42.0,36.0,60.0,14.0,0.0
1204,74.0,24.0,90.0,11.0,0.0
1205,66.0,0.0,60.0,12.0,0.0
1206,86.0,0.0,90.0,11.0,0.0
1207,54.0,0.0,60.0,13.0,0.0
1208,55.0,0.0,60.0,13.0,0.0
1209,67.0,0.0,60.0,12.0,0.0
1210,43.0,60.0,60.0,14.0,0.0
1211,74.0,48.0,180.0,11.0,0.0
1212,69.0,0.0,60.0,12.0,0.0
1213,45.0,0.0,60.0,14.0,0.0
1214,86.0,0.0,180.0,11.0,0.0
1215,57.0,60.0,60.0,13.0,0.0
1216,59.0,0.0,60.0,13.0,0.0
1217,71.0,60.0,60.0,12.0,0.0
1218,47.0,0.0,60.0,14.0,0.0
1219,60.0,0.0,60.0,13.0,0.0
1220,48.0,0.0,60.0,14.0,0.0
1221,72.0,12.0,60.0,12.0,0.0
1222,50.0,0.0,60.0,14.0,0.0
1223,62.0,60.0,60.0,13.0,0.0
1224,74.0,0.0,60.0,12.0,0.0
1225,76.0,0.0,60.0,12.0,0.0
1226,52.0,60.0,60.0,14.0,0.0
1227,64.0,0.0,60.0,13.0,0.0
1228,78.0,0.0,60.0,12.0,0.0
1229,66.0,60.0,60.0,13.0,0.0
1230,54.0,0.0,60.0,14.0,0.0
1231,74.0,24.0,90.0,11.0,0.0
1232,80.0,0.0,60.0,12.0,0.0
1233,68.0,36.0,60.0,13.0,0.0
1234,86.0,0.0,90.0,11.0,0.0
1235,56.0,0.0,60.0,14.0,0.0
1236,69.0,0.0,60.0,13.0,0.0
1237,81.0,192.0,60.0,12.0,0.0
1238,57.0,0.0,60.0,14.0,0.0
1239,71.0,0.0,180.0,13.0,0.0
1240,68.0,0.0,1920.0,2.0,0.0
1241,83.0,0.0,180.0,12.0,0.0
1242,86.0,0.0,180.0,11.0,0.0
1243,74.0,0.0,180.0,11.0,0.0
1244,62.0,192.0,1920.0,2.0,0.0
1245,59.0,264.0,180.0,14.0,0.0
1246,74.0,0.0,1920.0,1.0,0.0
1247,80.0,0.0,1920.0,1.0,0.0
1248,88.0,0.0,90.0,10.0,0.0
1249,86.0,0.0,90.0,11.0,0.0
1250,57.0,0.0,90.0,14.0,0.0
1251,76.0,0.0,90.0,10.0,0.0
1252,69.0,0.0,90.0,13.0,0.0
1253,81.0,216.0,90.0,12.0,0.0
1254,56.0,0.0,180.0,14.0,0.0
1255,86.0,0.0,180.0,11.0,0.0
1256,76.0,0.0,180.0,10.0,0.0
1257,68.0,264.0,180.0,13.0,0.0
1258,80.0,0.0,180.0,12.0,0.0
1259,88.0,0.0,180.0,10.0,0.0
1260,76.0,0.0,90.0,10.0,0.0
1261,65.0,0.0,90.0,13.0,0.0
1262,77.0,0.0,90.0,12.0,0.0
1263,86.0,216.0,90.0,11.0,0.0
1264,53.0,0.0,90.0,14.0,0.0
1265,88.0,0.0,90.0,10.0,0.0
1266,52.0,0.0,180.0,14.0,0.0
1267,88.0,0.0,180.0,10.0,0.0
1268,76.0,0.0,180.0,10.0,0.0
1269,64.0,264.0,180.0,13.0,0.0
1270,76.0,0.0,180.0,12.0,0.0
1271,86.0,0.0,180.0,11.0,0.0
1272,50.0,0.0,90.0,14.0,0.0
1273,86.0,0.0,90.0,11.0,0.0
1274,76.0,0.0,90.0,10.0,0.0
1275,74.0,0.0,90.0,12.0,0.0
1276,62.0,0.0,90.0,13.0,0.0
1277,88.0,216.0,90.0,10.0,0.0
1278,76.0,0.0,180.0,10.0,0.0
1279,88.0,0.0,180.0,10.0,0.0
1280,48.0,264.0,180.0,14.0,0.0
1281,72.0,0.0,180.0,12.0,0.0
1282,60.0,0.0,180.0,13.0,0.0
1283,86.0,0.0,180.0,11.0,0.0
1284,71.0,0.0,90.0,12.0,0.0
1285,86.0,0.0,90.0,11.0,0.0
1286,76.0,24.0,90.0,10.0,0.0
1287,59.0,0.0,90.0,13.0,0.0
1288,47.0,0.0,90.0,14.0,0.0
1289,88.0,0.0,90.0,10.0,0.0
1290,45.0,0.0,780.0,14.0,0.0
1291,60.0,72.0,390.0,2.0,0.0
1292,69.0,0.0,390.0,2.0,0.0
1293,84.0,192.0,180.0,11.0,0.0
1294,69.0,0.0,780.0,12.0,0.0
1295,57.0,0.0,780.0,13.0,0.0
1296,81.0,0.0,390.0,1.0,0.0
1297,88.0,0.0,180.0,10.0,0.0
1298,76.0,0.0,180.0,10.0,0.0
1299,72.0,0.0,390.0,1.0,0.0
1300,88.0,0.0,90.0,10.0,0.0
1301,77.0,0.0,90.0,11.0,0.0
1302,89.0,216.0,90.0,11.0,0.0
1303,88.0,0.0,180.0,10.0,0.0
1304,81.0,0.0,300.0,1.0,0.0
1305,88.0,168.0,300.0,1.0,0.0
1306,65.0,0.0,300.0,2.0,0.0
1307,64.0,0.0,300.0,2.0,0.0
1308,89.0,0.0,300.0,0.0,0.0
1309,69.0,0.0,300.0,3.0,0.0
1310,89.0,96.0,180.0,11.0,0.0
1311,72.0,0.0,300.0,3.0,0.0
1312,77.0,0.0,180.0,11.0,0.0
1313,64.0,0.0,90.0,2.0,0.0
1314,65.0,0.0,90.0,2.0,0.0
1315,72.0,216.0,90.0,3.0,0.0
1316,69.0,0.0,90.0,3.0,0.0
1317,77.0,0.0,90.0,11.0,0.0
1318,88.0,0.0,90.0,10.0,0.0
1319,89.0,0.0,90.0,11.0,0.0
1320,88.0,0.0,90.0,1.0,0.0
1321,89.0,0.0,90.0,0.0,0.0
1322,81.0,0.0,90.0,1.0,0.0
1323,77.0,0.0,180.0,11.0,0.0
1324,89.0,0.0,180.0,11.0,0.0
1325,69.0,36.0,390.0,3.0,0.0
1326,72.0,0.0,390.0,3.0,0.0
1327,88.0,108.0,180.0,10.0,0.0
1328,64.0,0.0,390.0,2.0,0.0
1329,89.0,0.0,390.0,0.0,0.0
1330,65.0,0.0,390.0,2.0,0.0
1331,88.0,0.0,390.0,1.0,0.0
1332,81.0,0.0,390.0,1.0,0.0
1333,41.0,60.0,60.0,13.0,0.0
1334,41.0,0.0,60.0,14.0,0.0
1335,53.0,0.0,60.0,12.0,0.0
1336,55.0,24.0,60.0,12.0,0.0
1337,43.0,0.0,60.0,13.0,0.0
1338,43.0,0.0,60.0,14.0,0.0
1339,33.0,0.0,60.0,14.0,0.0
1340,45.0,0.0,60.0,13.0,0.0
1341,88.0,0.0,90.0,10.0,0.0
1342,89.0,0.0,90.0,11.0,0.0
1343,77.0,24.0,90.0,11.0,0.0
1344,57.0,36.0,60.0,12.0,0.0
1345,34.0,0.0,60.0,14.0,0.0
1346,58.0,60.0,60.0,12.0,0.0
1347,46.0,0.0,60.0,13.0,0.0
1348,88.0,48.0,180.0,10.0,0.0
1349,89.0,36.0,390.0,0.0,0.0
1350,81.0,0.0,390.0,1.0,0.0
1351,88.0,0.0,390.0,1.0,0.0
1352,36.0,0.0,60.0,14.0,0.0
1353,89.0,0.0,180.0,11.0,0.0
1354,69.0,0.0,390.0,3.0,0.0
1355,72.0,0.0,390.0,3.0,0.0
1356,48.0,60.0,60.0,13.0,0.0
1357,65.0,0.0,390.0,2.0,0.0
1358,64.0,0.0,390.0,2.0,0.0
1359,60.0,0.0,60.0,12.0,0.0
1360,77.0,0.0,180.0,11.0,0.0
1361,50.0,0.0,60.0,13.0,0.0
1362,62.0,0.0,60.0,12.0,0.0
1363,38.0,60.0,60.0,14.0,0.0
1364,64.0,12.0,60.0,12.0,0.0
1365,52.0,0.0,60.0,13.0,0.0
1366,40.0,0.0,60.0,14.0,0.0
1367,41.0,0.0,60.0,14.0,0.0
1368,53.0,0.0,60.0,13.0,0.0
1369,65.0,60.0,60.0,12.0,0.0
1370,67.0,0.0,60.0,12.0,0.0
1371,43.0,0.0,60.0,14.0,0.0
1372,55.0,60.0,60.0,13.0,0.0
1373,45.0,0.0,60.0,14.0,0.0
1374,57.0,0.0,60.0,13.0,0.0
1375,69.0,24.0,60.0,12.0,0.0
1376,77.0,0.0,90.0,11.0,0.0
1377,89.0,0.0,90.0,11.0,0.0
1378,59.0,0.0,60.0,13.0,0.0
1379,71.0,0.0,60.0,12.0,0.0
1380,47.0,36.0,60.0,14.0,0.0
1381,88.0,24.0,90.0,10.0,0.0
1382,72.0,0.0,60.0,12.0,0.0
1383,60.0,192.0,60.0,13.0,0.0
1384,48.0,0.0,60.0,14.0,0.0
1385,55.0,0.0,180.0,5.0,0.0
1386,74.0,0.0,180.0,3.0,0.0
1387,67.0,192.0,180.0,4.0,0.0
1388,71.0,0.0,180.0,3.0,0.0
1389,86.0,0.0,180.0,10.0,0.0
1390,83.0,0.0,390.0,1.0,0.0
1391,79.0,0.0,180.0,4.0,0.0
1392,74.0,0.0,180.0,12.0,0.0
1393,89.0,0.0,180.0,11.0,0.0
1394,89.0,0.0,390.0,0.0,0.0
1395,86.0,72.0,390.0,1.0,0.0
1396,50.0,0.0,180.0,14.0,0.0
1397,65.0,0.0,390.0,2.0,0.0
1398,62.0,0.0,390.0,2.0,0.0
1399,62.0,0.0,180.0,13.0,0.0
1400,67.0,0.0,90.0,3.0,0.0
1401,72.0,0.0,90.0,12.0,0.0
1402,91.0,0.0,90.0,10.0,0.0
1403,60.0,0.0,90.0,13.0,0.0
1404,48.0,0.0,90.0,14.0,0.0
1405,55.0,0.0,90.0,5.0,0.0
1406,55.0,0.0,90.0,3.0,0.0
1407,89.0,216.0,90.0,11.0,0.0
1408,79.0,0.0,90.0,4.0,0.0
1409,67.0,0.0,90.0,4.0,0.0
1410,55.0,0.0,180.0,5.0,0.0
1411,71.0,168.0,300.0,2.0,0.0
1412,55.0,0.0,180.0,3.0,0.0
1413,67.0,0.0,180.0,4.0,0.0
1414,71.0,0.0,180.0,12.0,0.0
1415,91.0,0.0,300.0,0.0,0.0
1416,47.0,96.0,180.0,14.0,0.0
1417,79.0,0.0,180.0,4.0,0.0
1418,59.0,0.0,180.0,13.0,0.0
1419,67.0,0.0,180.0,3.0,0.0
1420,77.0,0.0,300.0,1.0,0.0
1421,83.0,0.0,300.0,1.0,0.0
1422,65.0,0.0,300.0,2.0,0.0
1423,91.0,0.0,180.0,10.0,0.0
1424,89.0,0.0,180.0,11.0,0.0
1425,91.0,0.0,90.0,10.0,0.0
1426,57.0,0.0,90.0,13.0,0.0
1427,91.0,0.0,90.0,0.0,0.0
1428,83.0,0.0,90.0,1.0,0.0
1429,71.0,0.0,90.0,2.0,0.0
1430,65.0,0.0,90.0,2.0,0.0
1431,77.0,0.0,90.0,1.0,0.0
1432,69.0,216.0,90.0,12.0,0.0
1433,45.0,0.0,90.0,14.0,0.0
1434,55.0,0.0,90.0,5.0,0.0
1435,89.0,0.0,90.0,11.0,0.0
1436,67.0,0.0,90.0,4.0,0.0
1437,67.0,0.0,90.0,3.0,0.0
1438,55.0,0.0,90.0,3.0,0.0
1439,79.0,0.0,90.0,4.0,0.0
1440,91.0,0.0,180.0,10.0,0.0
1441,77.0,72.0,390.0,1.0,0.0
1442,91.0,0.0,390.0,0.0,0.0
1443,83.0,0.0,390.0,1.0,0.0
1444,89.0,0.0,180.0,11.0,0.0
1445,67.0,0.0,180.0,12.0,0.0
1446,55.0,0.0,180.0,5.0,0.0
1447,43.0,192.0,180.0,14.0,0.0
1448,79.0,0.0,180.0,4.0,0.0
1449,67.0,0.0,180.0,4.0,0.0
1450,55.0,0.0,180.0,3.0,0.0
1451,71.0,0.0,390.0,2.0,0.0
1452,65.0,0.0,390.0,2.0,0.0
1453,55.0,0.0,180.0,13.0,0.0
1454,67.0,0.0,180.0,3.0,0.0
1455,79.0,0.0,90.0,4.0,0.0
1456,67.0,0.0,90.0,4.0,0.0
1457,53.0,0.0,90.0,13.0,0.0
1458,41.0,0.0,90.0,14.0,0.0
1459,67.0,0.0,90.0,3.0,0.0
1460,65.0,0.0,90.0,12.0,0.0
1461,55.0,0.0,90.0,5.0,0.0
1462,91.0,0.0,90.0,10.0,0.0
1463,55.0,0.0,90.0,3.0,0.0
1464,89.0,216.0,90.0,11.0,0.0
1465,77.0,0.0,390.0,1.0,0.0
1466,40.0,0.0,180.0,14.0,0.0
1467,55.0,0.0,180.0,5.0,0.0
1468,65.0,0.0,390.0,2.0,0.0
1469,91.0,0.0,180.0,10.0,0.0
1470,71.0,0.0,390.0,2.0,0.0
1471,52.0,0.0,180.0,13.0,0.0
1472,83.0,72.0,390.0,1.0,0.0
1473,64.0,0.0,180.0,12.0,0.0
1474,67.0,192.0,180.0,4.0,0.0
1475,91.0,0.0,390.0,0.0,0.0
1476,89.0,0.0,180.0,11.0,0.0
1477,67.0,0.0,180.0,3.0,0.0
1478,79.0,0.0,180.0,4.0,0.0
1479,55.0,0.0,180.0,3.0,0.0
1480,55.0,0.0,90.0,3.0,0.0
1481,55.0,0.0,90.0,5.0,0.0
1482,91.0,0.0,90.0,10.0,0.0
1483,67.0,0.0,90.0,3.0,0.0
1484,38.0,216.0,90.0,14.0,0.0
1485,79.0,0.0,90.0,4.0,0.0
1486,62.0,0.0,90.0,12.0,0.0
1487,67.0,0.0,90.0,4.0,0.0
1488,50.0,0.0,90.0,13.0,0.0
1489,89.0,0.0,90.0,11.0,0.0
1490,55.0,0.0,390.0,3.0,0.0
1491,67.0,0.0,390.0,3.0,0.0
1492,67.0,0.0,390.0,4.0,0.0
1493,36.0,72.0,390.0,14.0,0.0
1494,79.0,0.0,390.0,4.0,0.0
1495,76.0,0.0,390.0,1.0,0.0
1496,91.0,0.0,390.0,0.0,0.0
1497,88.0,0.0,180.0,11.0,0.0
1498,48.0,0.0,390.0,13.0,0.0
1499,84.0,0.0,390.0,1.0,0.0
1500,79.0,192.0,180.0,10.0,0.0
1501,55.0,0.0,390.0,5.0,0.0
1502,60.0,0.0,390.0,12.0,0.0
1503,64.0,0.0,390.0,2.0,0.0
1504,72.0,0.0,390.0,2.0,0.0
1505,91.0,0.0,180.0,10.0,0.0
1506,79.0,0.0,90.0,11.0,0.0
1507,88.0,408.0,90.0,10.0,0.0
1508,79.0,0.0,390.0,11.0,0.0
1509,88.0,24.0,390.0,10.0,0.0
1510,72.0,0.0,90.0,2.0,0.0
1511,64.0,0.0,90.0,2.0,0.0
1512,88.0,0.0,90.0,0.0,0.0
1513,48.0,0.0,90.0,13.0,0.0
1514,55.0,0.0,90.0,3.0,0.0
1515,76.0,0.0,90.0,1.0,0.0
1516,60.0,0.0,90.0,12.0,0.0
1517,67.0,0.0,90.0,4.0,0.0
1518,79.0,12.0,90.0,4.0,0.0
1519,84.0,0.0,90.0,1.0,0.0
1520,55.0,48.0,60.0,5.0,0.0
1521,67.0,0.0,90.0,3.0,0.0
1522,36.0,0.0,90.0,14.0,0.0
1523,55.0,396.0,60.0,5.0,0.0
1524,55.0,0.0,390.0,5.0,0.0
1525,71.0,0.0,390.0,2.0,0.0
1526,74.0,0.0,390.0,1.0,0.0
1527,83.0,0.0,390.0,1.0,0.0
1528,38.0,0.0,390.0,14.0,0.0
1529,67.0,0.0,390.0,4.0,0.0
1530,79.0,0.0,390.0,4.0,0.0
1531,62.0,0.0,390.0,2.0,0.0
1532,62.0,72.0,390.0,12.0,0.0
1533,67.0,0.0,390.0,3.0,0.0
1534,55.0,0.0,390.0,3.0,0.0
1535,86.0,0.0,390.0,0.0,0.0
1536,50.0,0.0,390.0,13.0,0.0
1537,86.0,408.0,90.0,10.0,0.0
1538,79.0,0.0,90.0,11.0,0.0
1539,83.0,0.0,90.0,11.0,0.0
1540,79.0,0.0,390.0,11.0,0.0
1541,83.0,0.0,390.0,11.0,0.0
1542,86.0,24.0,390.0,10.0,0.0
1543,67.0,0.0,90.0,4.0,0.0
1544,62.0,0.0,90.0,12.0,0.0
1545,86.0,0.0,90.0,0.0,0.0
1546,83.0,0.0,90.0,1.0,0.0
1547,74.0,12.0,90.0,1.0,0.0
1548,50.0,0.0,90.0,13.0,0.0
1549,71.0,0.0,90.0,2.0,0.0
1550,55.0,48.0,60.0,5.0,0.0
1551,67.0,0.0,90.0,3.0,0.0
1552,38.0,0.0,90.0,14.0,0.0
1553,79.0,0.0,90.0,4.0,0.0
1554,62.0,0.0,90.0,2.0,0.0
1555,55.0,0.0,90.0,3.0,0.0
1556,55.0,396.0,60.0,5.0,0.0
1557,52.0,0.0,390.0,13.0,0.0
1558,85.0,0.0,390.0,0.0,0.0
1559,64.0,0.0,390.0,12.0,0.0
1560,55.0,0.0,390.0,5.0,0.0
1561,73.0,0.0,390.0,1.0,0.0
1562,82.0,0.0,390.0,1.0,0.0
1563,67.0,0.0,390.0,4.0,0.0
1564,40.0,0.0,390.0,14.0,0.0
1565,70.0,0.0,390.0,2.0,0.0
1566,79.0,72.0,390.0,4.0,0.0
1567,61.0,0.0,390.0,2.0,0.0
1568,55.0,0.0,390.0,3.0,0.0
1569,67.0,0.0,390.0,3.0,0.0
1570,79.0,480.0,90.0,11.0,0.0
1571,82.0,0.0,90.0,11.0,0.0
1572,85.0,0.0,90.0,10.0,0.0
1573,82.0,0.0,450.0,11.0,0.0
1574,85.0,0.0,450.0,10.0,0.0
1575,79.0,480.0,450.0,11.0,0.0
1576,79.0,0.0,90.0,4.0,0.0
1577,67.0,0.0,90.0,4.0,0.0
1578,82.0,0.0,90.0,1.0,0.0
1579,85.0,0.0,90.0,1.0,0.0
1580,67.0,0.0,90.0,3.0,0.0
1581,94.0,0.0,90.0,0.0,0.0
1582,64.0,0.0,90.0,2.0,0.0
1583,52.0,0.0,90.0,2.0,0.0
1584,55.0,0.0,90.0,3.0,0.0
1585,67.0,0.0,450.0,4.0,0.0
1586,79.0,0.0,450.0,4.0,0.0
1587,94.0,0.0,450.0,0.0,0.0
1588,82.0,0.0,450.0,1.0,0.0
1589,64.0,0.0,450.0,2.0,0.0
1590,52.0,0.0,450.0,2.0,0.0
1591,85.0,0.0,450.0,1.0,0.0
1592,55.0,1464.0,450.0,3.0,0.0
1593,67.0,0.0,450.0,3.0,0.0
1594,49.0,912.0,960.0,2.0,0.0
1595,55.0,0.0,5670.0,3.0,0.0
1596,61.0,0.0,960.0,10.0,0.0
1597,67.0,48.0,5670.0,3.0,0.0
1598,73.0,0.0,960.0,0.0,0.0
1599,70.0,0.0,900.0,10.0,0.0
1600,58.0,1008.0,900.0,2.0,0.0
1601,82.0,0.0,900.0,0.0,0.0
1602,49.0,0.0,960.0,13.0,0.0
1603,64.0,912.0,960.0,2.0,0.0
1604,88.0,0.0,960.0,0.0,0.0
1605,37.0,0.0,960.0,14.0,0.0
1606,76.0,0.0,960.0,10.0,0.0
1607,46.0,0.0,900.0,14.0,0.0
1608,58.0,0.0,900.0,13.0,0.0
1609,87.0,0.0,960.0,0.0,0.0
1610,75.0,48.0,900.0,10.0,0.0
1611,63.0,480.0,960.0,2.0,0.0
1612,74.0,480.0,480.0,10.0,0.0
1613,52.0,0.0,960.0,14.0,0.0
1614,64.0,480.0,960.0,13.0,0.0
1615,62.0,0.0,480.0,2.0,0.0
1616,86.0,0.0,480.0,0.0,0.0
1617,61.0,0.0,960.0,2.0,0.0
1618,85.0,384.0,960.0,0.0,0.0
1619,73.0,0.0,960.0,10.0,0.0
1620,51.0,0.0,900.0,14.0,0.0
1621,63.0,24.0,900.0,13.0,0.0
1622,60.0,0.0,450.0,2.0,0.0
1623,72.0,0.0,450.0,10.0,0.0
1624,84.0,216.0,450.0,0.0,0.0
1625,50.0,0.0,180.0,3.0,0.0
1626,62.0,960.0,180.0,3.0,0.0
1627,67.0,0.0,180.0,11.0,0.0
1628,62.0,0.0,180.0,12.0,0.0
1629,62.0,0.0,180.0,13.0,0.0
1630,71.0,0.0,180.0,10.0,0.0
1631,83.0,0.0,180.0,0.0,0.0
1632,59.0,0.0,180.0,2.0,0.0
1633,50.0,0.0,180.0,14.0,0.0
1634,55.0,0.0,180.0,2.0,0.0
1635,50.0,0.0,180.0,13.0,0.0
1636,38.0,0.0,180.0,14.0,0.0
1637,69.0,0.0,180.0,10.0,0.0
1638,50.0,0.0,180.0,3.0,0.0
1639,62.0,0.0,180.0,3.0,0.0
1640,81.0,0.0,180.0,0.0,0.0
1641,62.0,0.0,180.0,12.0,0.0
1642,57.0,0.0,180.0,2.0,0.0
1643,54.0,0.0,180.0,2.0,0.0
1644,66.0,1152.0,180.0,11.0,0.0
1645,55.0,0.0,390.0,13.0,0.0
1646,43.0,576.0,390.0,14.0,0.0
1647,67.0,456.0,480.0,10.0,0.0
1648,71.0,984.0,450.0,10.0,0.0
1649,74.0,480.0,1920.0,10.0,0.0
1650,67.0,0.0,480.0,3.0,0.0
1651,55.0,456.0,480.0,3.0,0.0
1652,71.0,504.0,450.0,3.0,0.0
1653,59.0,0.0,450.0,3.0,0.0
1654,74.0,0.0,3270.0,3.0,0.0
1655,62.0,0.0,3270.0,3.0,0.0
1656,83.0,480.0,480.0,10.0,0.0
1657,81.0,864.0,480.0,10.0,0.0
1658,79.0,384.0,960.0,10.0,0.0
1659,72.0,0.0,390.0,11.0,0.0
1660,69.0,96.0,390.0,12.0,0.0
1661,72.0,0.0,390.0,11.0,0.0
1662,69.0,0.0,390.0,12.0,0.0
1663,78.0,480.0,390.0,10.0,0.0
1664,69.0,576.0,390.0,12.0,0.0
1665,50.0,0.0,390.0,13.0,0.0
1666,38.0,0.0,390.0,14.0,0.0
1667,72.0,0.0,390.0,11.0,0.0
1668,78.0,384.0,480.0,10.0,0.0
1669,81.0,1056.0,390.0,10.0,0.0
1670,74.0,480.0,1920.0,10.0,0.0
1671,54.0,0.0,480.0,2.0,0.0
1672,66.0,384.0,480.0,2.0,0.0
1673,69.0,576.0,390.0,2.0,0.0
1674,57.0,0.0,390.0,2.0,0.0
1675,50.0,192.0,2580.0,2.0,0.0
1676,62.0,0.0,2580.0,2.0,0.0
1677,62.0,0.0,480.0,11.0,0.0
1678,66.0,384.0,480.0,10.0,0.0
1679,66.0,0.0,390.0,11.0,0.0
1680,69.0,960.0,390.0,10.0,0.0
1681,69.0,192.0,960.0,11.0,0.0
1682,72.0,0.0,960.0,10.0,0.0
1683,54.0,0.0,480.0,13.0,0.0
1684,42.0,0.0,480.0,14.0,0.0
1685,62.0,96.0,390.0,12.0,0.0
1686,62.0,480.0,390.0,12.0,0.0
1687,71.0,0.0,390.0,10.0,0.0
1688,43.0,0.0,390.0,14.0,0.0
1689,55.0,0.0,390.0,13.0,0.0
1690,67.0,0.0,390.0,11.0,0.0
1691,60.0,0.0,390.0,12.0,0.0
1692,36.0,576.0,390.0,14.0,0.0
1693,48.0,0.0,390.0,13.0,0.0
1694,64.0,0.0,390.0,11.0,0.0
1695,69.0,384.0,480.0,10.0,0.0
1696,76.0,960.0,390.0,10.0,0.0
1697,66.0,0.0,960.0,10.0,0.0
1698,62.0,96.0,390.0,11.0,0.0
1699,48.0,0.0,480.0,13.0,0.0
1700,57.0,0.0,480.0,12.0,0.0
1701,36.0,384.0,480.0,14.0,0.0
1702,67.0,0.0,390.0,10.0,0.0
1703,62.0,0.0,390.0,11.0,0.0
1704,47.0,480.0,390.0,13.0,0.0
1705,59.0,0.0,390.0,12.0,0.0
1706,35.0,0.0,390.0,14.0,0.0
1707,48.0,0.0,390.0,13.0,0.0
1708,64.0,576.0,390.0,11.0,0.0
1709,60.0,0.0,390.0,12.0,0.0
1710,36.0,0.0,390.0,14.0,0.0
1711,81.0,384.0,480.0,10.0,0.0
1712,69.0,0.0,480.0,11.0,0.0
1713,88.0,0.0,390.0,10.0,0.0
1714,76.0,960.0,390.0,11.0,0.0
1715,66.0,0.0,960.0,11.0,0.0
1716,78.0,384.0,960.0,10.0,0.0
1717,60.0,0.0,480.0,13.0,0.0
1718,48.0,0.0,480.0,14.0,0.0
1719,62.0,96.0,390.0,12.0,0.0
1720,59.0,0.0,390.0,13.0,0.0
1721,47.0,0.0,390.0,14.0,0.0
1722,67.0,0.0,390.0,11.0,0.0
1723,79.0,480.0,390.0,10.0,0.0
1724,62.0,0.0,390.0,12.0,0.0
1725,62.0,96.0,390.0,12.0,0.0
1726,42.0,0.0,960.0,14.0,0.0
1727,69.0,0.0,390.0,11.0,0.0
1728,81.0,480.0,480.0,10.0,0.0
1729,54.0,0.0,960.0,13.0,0.0
1730,81.0,0.0,480.0,11.0,0.0
1731,84.0,384.0,480.0,10.0,0.0
1732,74.0,144.0,1200.0,12.0,0.0
1733,43.0,96.0,390.0,14.0,0.0
1734,55.0,0.0,390.0,13.0,0.0
1735,79.0,240.0,480.0,11.0,0.0
1736,83.0,0.0,390.0,10.0,0.0
1737,78.0,96.0,390.0,11.0,0.0
1738,81.0,0.0,390.0,10.0,0.0
1739,38.0,0.0,390.0,14.0,0.0
1740,50.0,0.0,390.0,13.0,0.0
1741,76.0,240.0,240.0,12.0,0.0
1742,74.0,240.0,240.0,12.0,0.0
1743,71.0,240.0,240.0,12.0,0.0
1744,72.0,240.0,240.0,12.0,0.0
1745,69.0,384.0,240.0,12.0,0.0
1746,67.0,576.0,390.0,12.0,0.0
1747,43.0,0.0,480.0,14.0,0.0
1748,55.0,456.0,480.0,13.0,0.0
1749,59.0,984.0,450.0,13.0,0.0
1750,47.0,0.0,450.0,14.0,0.0
1751,50.0,0.0,1920.0,14.0,0.0
1752,62.0,480.0,1920.0,13.0,0.0
1753,67.0,0.0,480.0,1.0,0.0
1754,79.0,384.0,480.0,1.0,0.0
1755,83.0,576.0,390.0,1.0,0.0
1756,71.0,0.0,390.0,1.0,0.0
1757,86.0,576.0,3270.0,1.0,0.0
1758,74.0,0.0,3270.0,1.0,0.0
1759,74.0,0.0,480.0,11.0,0.0
1760,79.0,0.0,480.0,10.0,0.0
1761,71.0,0.0,480.0,13.0,0.0
1762,74.0,0.0,480.0,12.0,0.0
1763,59.0,384.0,480.0,14.0,0.0
1764,72.0,0.0,390.0,12.0,0.0
1765,81.0,0.0,390.0,10.0,0.0
1766,78.0,0.0,390.0,11.0,0.0
1767,69.0,0.0,390.0,13.0,0.0
1768,57.0,576.0,390.0,14.0,0.0
1769,83.0,0.0,960.0,10.0,0.0
1770,79.0,480.0,480.0,11.0,0.0
1771,55.0,240.0,960.0,14.0,0.0
1772,67.0,0.0,960.0,13.0,0.0
1773,71.0,0.0,960.0,12.0,0.0
1774,80.0,0.0,480.0,11.0,0.0
1775,81.0,48.0,390.0,11.0,0.0
1776,66.0,0.0,390.0,13.0,0.0
1777,69.0,0.0,390.0,12.0,0.0
1778,86.0,144.0,240.0,10.0,0.0
1779,54.0,0.0,390.0,14.0,0.0
1780,84.0,432.0,180.0,10.0,0.0
1781,84.0,0.0,390.0,10.0,0.0
1782,81.0,0.0,390.0,11.0,0.0
1783,54.0,384.0,480.0,14.0,0.0
1784,66.0,0.0,480.0,13.0,0.0
1785,57.0,1056.0,390.0,14.0,0.0
1786,69.0,0.0,390.0,13.0,0.0
1787,50.0,480.0,1920.0,14.0,0.0
1788,62.0,0.0,1920.0,13.0,0.0
1789,78.0,0.0,480.0,1.0,0.0
1790,90.0,384.0,480.0,0.0,0.0
1791,93.0,576.0,390.0,0.0,0.0
1792,81.0,0.0,390.0,1.0,0.0
1793,74.0,0.0,480.0,10.0,0.0
1794,62.0,0.0,480.0,11.0,0.0
1795,86.0,0.0,2580.0,0.0,0.0
1796,74.0,192.0,2580.0,1.0,0.0
1797,75.0,0.0,480.0,10.0,0.0
1798,54.0,0.0,480.0,13.0,0.0
1799,42.0,0.0,480.0,14.0,0.0
1800,63.0,384.0,480.0,11.0,0.0
1801,60.0,0.0,480.0,12.0,0.0
1802,72.0,0.0,390.0,12.0,0.0
1803,76.0,0.0,480.0,10.0,0.0
1804,45.0,96.0,390.0,14.0,0.0
1805,57.0,0.0,390.0,13.0,0.0
1806,64.0,480.0,480.0,11.0,0.0
1807,77.0,480.0,480.0,10.0,0.0
1808,69.0,0.0,960.0,12.0,0.0
1809,65.0,0.0,480.0,11.0,0.0
1810,48.0,0.0,960.0,14.0,0.0
1811,60.0,0.0,960.0,13.0,0.0
1812,66.0,0.0,480.0,11.0,0.0
1813,78.0,192.0,480.0,10.0,0.0
1814,67.0,0.0,390.0,11.0,0.0
1815,71.0,0.0,390.0,12.0,0.0
1816,47.0,1056.0,390.0,14.0,0.0
1817,79.0,0.0,390.0,10.0,0.0
1818,59.0,0.0,390.0,13.0,0.0
1819,84.0,240.0,1680.0,10.0,0.0
1820,72.0,0.0,1680.0,11.0,0.0
1821,64.0,0.0,480.0,12.0,0.0
1822,57.0,0.0,480.0,13.0,0.0
1823,45.0,384.0,480.0,14.0,0.0
1824,69.0,0.0,390.0,12.0,0.0
1825,64.0,336.0,390.0,13.0,0.0
1826,52.0,0.0,390.0,14.0,0.0
1827,62.0,48.0,1140.0,12.0,0.0
1828,42.0,0.0,960.0,14.0,0.0
1829,54.0,0.0,960.0,13.0,0.0
1830,83.0,240.0,240.0,10.0,0.0
1831,71.0,0.0,240.0,11.0,0.0
1832,72.0,0.0,240.0,11.0,0.0
1833,84.0,240.0,240.0,10.0,0.0
1834,86.0,0.0,240.0,10.0,0.0
1835,74.0,192.0,240.0,11.0,0.0
1836,43.0,48.0,390.0,14.0,0.0
1837,83.0,144.0,240.0,10.0,0.0
1838,55.0,0.0,390.0,13.0,0.0
1839,71.0,0.0,240.0,11.0,0.0
1840,67.0,1008.0,180.0,11.0,0.0
1841,79.0,0.0,180.0,10.0,0.0
1842,84.0,240.0,1680.0,10.0,0.0
1843,72.0,0.0,1680.0,11.0,0.0
1844,57.0,384.0,480.0,13.0,0.0
1845,76.0,0.0,480.0,12.0,0.0
1846,45.0,0.0,480.0,14.0,0.0
1847,52.0,0.0,390.0,14.0,0.0
1848,64.0,336.0,390.0,13.0,0.0
1849,72.0,0.0,390.0,12.0,0.0
1850,42.0,0.0,960.0,14.0,0.0
1851,54.0,0.0,960.0,13.0,0.0
1852,75.0,0.0,480.0,12.0,0.0
1853,83.0,240.0,240.0,10.0,0.0
1854,71.0,0.0,240.0,11.0,0.0
1855,74.0,96.0,390.0,12.0,0.0
1856,84.0,0.0,240.0,10.0,0.0
1857,72.0,144.0,240.0,11.0,0.0
1858,86.0,0.0,240.0,10.0,0.0
1859,74.0,240.0,240.0,11.0,0.0
1860,71.0,0.0,240.0,11.0,0.0
1861,74.0,48.0,390.0,12.0,0.0
1862,83.0,144.0,240.0,10.0,0.0
1863,43.0,0.0,390.0,14.0,0.0
1864,55.0,0.0,390.0,13.0,0.0
1865,79.0,0.0,180.0,10.0,0.0
1866,67.0,240.0,180.0,11.0,0.0
1867,48.0,288.0,390.0,14.0,0.0
1868,60.0,0.0,390.0,13.0,0.0
1869,69.0,0.0,390.0,12.0,0.0
1870,78.0,192.0,180.0,10.0,0.0
1871,75.0,0.0,180.0,11.0,0.0
1872,79.0,0.0,180.0,10.0,0.0
1873,76.0,480.0,180.0,11.0,0.0
1874,69.0,480.0,180.0,10.0,0.0
1875,66.0,0.0,180.0,11.0,0.0
1876,62.0,0.0,390.0,13.0,0.0
1877,50.0,0.0,390.0,14.0,0.0
1878,60.0,288.0,390.0,12.0,0.0
1879,71.0,192.0,180.0,10.0,0.0
1880,68.0,0.0,180.0,11.0,0.0
1881,72.0,0.0,180.0,10.0,0.0
1882,69.0,480.0,180.0,11.0,0.0
1883,60.0,0.0,180.0,11.0,0.0
1884,66.0,480.0,180.0,10.0,0.0
1885,55.0,0.0,1140.0,3.0,0.0
1886,55.0,48.0,390.0,5.0,0.0
1887,79.0,0.0,1140.0,0.0,0.0
1888,79.0,0.0,1140.0,1.0,0.0
1889,67.0,240.0,1140.0,4.0,0.0
1890,43.0,0.0,180.0,14.0,0.0
1891,67.0,192.0,180.0,12.0,0.0
1892,67.0,0.0,1140.0,3.0,0.0
1893,59.0,0.0,1140.0,11.0,0.0
1894,67.0,0.0,1140.0,11.0,0.0
1895,55.0,0.0,180.0,13.0,0.0
1896,79.0,0.0,1140.0,4.0,0.0
1897,59.0,0.0,1140.0,10.0,0.0
1898,55.0,0.0,180.0,2.0,0.0
1899,67.0,0.0,1140.0,10.0,0.0
1900,55.0,0.0,180.0,2.0,0.0
1901,55.0,0.0,180.0,13.0,0.0
1902,67.0,240.0,180.0,12.0,0.0
1903,43.0,0.0,180.0,14.0,0.0
1904,43.0,240.0,180.0,14.0,0.0
1905,55.0,0.0,180.0,13.0,0.0
1906,67.0,0.0,180.0,12.0,0.0
1907,55.0,0.0,180.0,2.0,0.0
1908,55.0,0.0,180.0,2.0,0.0
1909,55.0,0.0,180.0,13.0,0.0
1910,67.0,240.0,180.0,12.0,0.0
1911,43.0,0.0,180.0,14.0,0.0
1912,55.0,0.0,180.0,13.0,0.0
1913,43.0,0.0,180.0,14.0,0.0
1914,67.0,0.0,180.0,12.0,0.0
1915,55.0,0.0,180.0,2.0,0.0
1916,67.0,0.0,180.0,12.0,0.0
1917,43.0,0.0,180.0,14.0,0.0
1918,55.0,240.0,180.0,13.0,0.0
1919,55.0,0.0,180.0,2.0,0.0
1920,71.0,0.0,780.0,4.0,0.0
1921,59.0,0.0,180.0,13.0,0.0
1922,71.0,0.0,780.0,11.0,0.0
1923,71.0,0.0,780.0,10.0,0.0
1924,47.0,192.0,180.0,14.0,0.0
1925,83.0,144.0,780.0,4.0,0.0
1926,83.0,0.0,780.0,0.0,0.0
1927,83.0,0.0,780.0,1.0,0.0
1928,59.0,0.0,180.0,2.0,0.0
1929,55.0,48.0,390.0,5.0,0.0
1930,71.0,0.0,180.0,12.0,0.0
1931,71.0,0.0,780.0,3.0,0.0
1932,59.0,0.0,780.0,3.0,0.0
1933,71.0,0.0,180.0,12.0,0.0
1934,59.0,240.0,180.0,13.0,0.0
1935,59.0,0.0,180.0,2.0,0.0
1936,47.0,0.0,180.0,14.0,0.0
1937,47.0,0.0,180.0,14.0,0.0
1938,59.0,96.0,180.0,13.0,0.0
1939,71.0,0.0,180.0,12.0,0.0
1940,59.0,0.0,180.0,2.0,0.0
1941,59.0,0.0,180.0,2.0,0.0
1942,59.0,0.0,180.0,13.0,0.0
1943,47.0,0.0,180.0,14.0,0.0
1944,71.0,240.0,180.0,12.0,0.0
1945,79.0,48.0,390.0,0.0,0.0
1946,55.0,192.0,180.0,2.0,0.0
1947,55.0,0.0,390.0,3.0,0.0
1948,67.0,0.0,390.0,3.0,0.0
1949,55.0,0.0,180.0,13.0,0.0
1950,43.0,0.0,180.0,14.0,0.0
1951,67.0,0.0,390.0,11.0,0.0
1952,67.0,0.0,180.0,12.0,0.0
1953,79.0,0.0,390.0,1.0,0.0
1954,67.0,0.0,390.0,4.0,0.0
1955,79.0,0.0,390.0,4.0,0.0
1956,67.0,0.0,390.0,10.0,0.0
1957,67.0,0.0,180.0,12.0,0.0
1958,55.0,0.0,180.0,2.0,0.0
1959,43.0,240.0,180.0,14.0,0.0
1960,55.0,0.0,180.0,13.0,0.0
1961,38.0,0.0,180.0,14.0,0.0
1962,74.0,0.0,780.0,1.0,0.0
1963,74.0,0.0,780.0,0.0,0.0
1964,50.0,0.0,180.0,13.0,0.0
1965,50.0,0.0,1140.0,3.0,0.0
1966,62.0,0.0,1140.0,3.0,0.0
1967,62.0,0.0,780.0,10.0,0.0
1968,62.0,0.0,180.0,12.0,0.0
1969,62.0,96.0,780.0,11.0,0.0
1970,62.0,0.0,1140.0,4.0,0.0
1971,74.0,48.0,1140.0,4.0,0.0
1972,50.0,192.0,180.0,2.0,0.0
1973,50.0,48.0,390.0,5.0,0.0
1974,50.0,0.0,180.0,2.0,0.0
1975,50.0,0.0,180.0,13.0,0.0
1976,62.0,240.0,180.0,12.0,0.0
1977,38.0,0.0,180.0,14.0,0.0
1978,50.0,48.0,390.0,5.0,0.0
1979,62.0,0.0,180.0,12.0,0.0
1980,50.0,96.0,180.0,2.0,0.0
1981,38.0,0.0,180.0,14.0,0.0
1982,50.0,0.0,180.0,13.0,0.0
1983,38.0,108.0,180.0,14.0,0.0
1984,50.0,0.0,180.0,2.0,0.0
1985,50.0,0.0,180.0,13.0,0.0
1986,62.0,0.0,180.0,12.0,0.0
1987,48.0,0.0,180.0,13.0,0.0
1988,60.0,0.0,180.0,12.0,0.0
1989,62.0,60.0,60.0,10.0,0.0
1990,48.0,0.0,180.0,2.0,0.0
1991,36.0,0.0,180.0,14.0,0.0
1992,62.0,0.0,60.0,11.0,0.0
1993,74.0,0.0,60.0,0.0,0.0
1994,74.0,0.0,60.0,1.0,0.0
1995,50.0,48.0,390.0,5.0,0.0
1996,60.0,0.0,60.0,11.0,0.0
1997,60.0,60.0,60.0,10.0,0.0
1998,72.0,0.0,60.0,1.0,0.0
1999,72.0,0.0,60.0,0.0,0.0
2000,74.0,0.0,60.0,0.0,0.0
2001,62.0,0.0,60.0,11.0,0.0
2002,74.0,0.0,60.0,1.0,0.0
2003,62.0,12.0,60.0,10.0,0.0
2004,60.0,120.0,60.0,11.0,0.0
2005,72.0,0.0,60.0,0.0,0.0
2006,72.0,0.0,60.0,1.0,0.0
2007,60.0,0.0,60.0,10.0,0.0
2008,36.0,0.0,180.0,14.0,0.0
2009,71.0,0.0,120.0,0.0,0.0
2010,60.0,24.0,180.0,12.0,0.0
2011,59.0,0.0,120.0,10.0,0.0
2012,48.0,0.0,180.0,13.0,0.0
2013,59.0,0.0,120.0,11.0,0.0
2014,48.0,0.0,180.0,2.0,0.0
2015,71.0,24.0,120.0,1.0,0.0
2016,72.0,0.0,90.0,0.0,0.0
2017,60.0,120.0,90.0,10.0,0.0
2018,72.0,0.0,90.0,1.0,0.0
2019,60.0,0.0,90.0,11.0,0.0
2020,47.0,0.0,180.0,2.0,0.0
2021,47.0,0.0,180.0,13.0,0.0
2022,35.0,24.0,180.0,14.0,0.0
2023,59.0,0.0,90.0,11.0,0.0
2024,71.0,0.0,180.0,1.0,0.0
2025,59.0,0.0,180.0,12.0,0.0
2026,55.0,48.0,390.0,5.0,0.0
2027,59.0,96.0,90.0,10.0,0.0
2028,71.0,0.0,180.0,0.0,0.0
2029,59.0,0.0,90.0,11.0,0.0
2030,59.0,120.0,90.0,10.0,0.0
2031,59.0,48.0,90.0,10.0,0.0
2032,47.0,0.0,180.0,13.0,0.0
2033,59.0,0.0,90.0,11.0,0.0
2034,86.0,24.0,180.0,0.0,0.0
2035,62.0,0.0,180.0,1.0,0.0
2036,74.0,0.0,180.0,1.0,0.0
2037,35.0,0.0,180.0,14.0,0.0
2038,50.0,0.0,180.0,2.0,0.0
2039,59.0,0.0,180.0,12.0,0.0
2040,59.0,0.0,90.0,11.0,0.0
2041,59.0,120.0,90.0,10.0,0.0
2042,71.0,0.0,390.0,4.0,0.0
2043,86.0,0.0,180.0,0.0,0.0
2044,71.0,0.0,90.0,11.0,0.0
2045,62.0,0.0,180.0,1.0,0.0
2046,59.0,0.0,390.0,3.0,0.0
2047,71.0,0.0,390.0,3.0,0.0
2048,74.0,0.0,180.0,1.0,0.0
2049,83.0,48.0,390.0,4.0,0.0
2050,50.0,0.0,180.0,2.0,0.0
2051,71.0,0.0,180.0,12.0,0.0
2052,71.0,96.0,90.0,10.0,0.0
2053,59.0,0.0,180.0,13.0,0.0
2054,47.0,24.0,180.0,14.0,0.0
2055,71.0,0.0,90.0,11.0,0.0
2056,71.0,120.0,90.0,10.0,0.0
2057,71.0,0.0,90.0,10.0,0.0
2058,71.0,0.0,180.0,12.0,0.0
2059,62.0,24.0,180.0,1.0,0.0
2060,59.0,0.0,180.0,13.0,0.0
2061,86.0,0.0,180.0,0.0,0.0
2062,50.0,0.0,180.0,2.0,0.0
2063,47.0,0.0,180.0,14.0,0.0
2064,74.0,0.0,180.0,1.0,0.0
2065,71.0,48.0,90.0,11.0,0.0
2066,71.0,120.0,90.0,11.0,0.0
2067,71.0,0.0,90.0,10.0,0.0
2068,79.0,0.0,390.0,4.0,0.0
2069,67.0,24.0,180.0,12.0,0.0
2070,67.0,48.0,390.0,4.0,0.0
2071,55.0,0.0,390.0,3.0,0.0
2072,67.0,0.0,390.0,3.0,0.0
2073,67.0,0.0,90.0,10.0,0.0
2074,62.0,0.0,180.0,1.0,0.0
2075,43.0,0.0,180.0,14.0,0.0
2076,86.0,0.0,180.0,0.0,0.0
2077,67.0,96.0,90.0,11.0,0.0
2078,55.0,0.0,180.0,13.0,0.0
2079,50.0,0.0,180.0,2.0,0.0
2080,74.0,0.0,180.0,1.0,0.0
2081,67.0,120.0,90.0,10.0,0.0
2082,67.0,0.0,90.0,11.0,0.0
2083,67.0,0.0,180.0,12.0,0.0
2084,62.0,0.0,180.0,1.0,0.0
2085,67.0,48.0,90.0,11.0,0.0
2086,50.0,0.0,180.0,2.0,0.0
2087,43.0,0.0,180.0,14.0,0.0
2088,55.0,0.0,180.0,13.0,0.0
2089,86.0,0.0,180.0,0.0,0.0
2090,67.0,0.0,90.0,10.0,0.0
2091,74.0,24.0,180.0,1.0,0.0
2092,67.0,120.0,90.0,10.0,0.0
2093,67.0,0.0,90.0,11.0,0.0
2094,38.0,0.0,180.0,14.0,0.0
2095,62.0,0.0,1140.0,3.0,0.0
2096,50.0,0.0,180.0,2.0,0.0
2097,62.0,24.0,180.0,12.0,0.0
2098,50.0,0.0,1140.0,3.0,0.0
2099,62.0,96.0,90.0,11.0,0.0
2100,74.0,0.0,1140.0,4.0,0.0
2101,74.0,0.0,180.0,1.0,0.0
2102,62.0,0.0,180.0,1.0,0.0
2103,50.0,0.0,180.0,13.0,0.0
2104,86.0,0.0,180.0,0.0,0.0
2105,62.0,0.0,90.0,10.0,0.0
2106,50.0,48.0,390.0,5.0,0.0
2107,62.0,0.0,1140.0,4.0,0.0
2108,62.0,0.0,90.0,11.0,0.0
2109,62.0,120.0,90.0,10.0,0.0
2110,74.0,0.0,180.0,1.0,0.0
2111,50.0,0.0,180.0,13.0,0.0
2112,62.0,0.0,90.0,11.0,0.0
2113,86.0,0.0,180.0,0.0,0.0
2114,38.0,0.0,180.0,14.0,0.0
2115,50.0,24.0,180.0,2.0,0.0
2116,62.0,0.0,180.0,1.0,0.0
2117,62.0,0.0,180.0,12.0,0.0
2118,62.0,48.0,90.0,10.0,0.0
2119,62.0,0.0,90.0,10.0,0.0
2120,62.0,120.0,90.0,11.0,0.0
2121,49.0,0.0,180.0,13.0,0.0
2122,61.0,0.0,180.0,12.0,0.0
2123,86.0,24.0,180.0,0.0,0.0
2124,50.0,0.0,180.0,2.0,0.0
2125,61.0,0.0,90.0,11.0,0.0
2126,62.0,0.0,180.0,1.0,0.0
2127,50.0,48.0,390.0,5.0,0.0
2128,37.0,0.0,180.0,14.0,0.0
2129,74.0,0.0,180.0,1.0,0.0
2130,61.0,96.0,90.0,10.0,0.0
2131,61.0,120.0,90.0,11.0,0.0
2132,61.0,0.0,90.0,10.0,0.0
2133,61.0,0.0,180.0,12.0,0.0
2134,86.0,0.0,180.0,0.0,0.0
2135,62.0,0.0,180.0,1.0,0.0
2136,50.0,24.0,180.0,2.0,0.0
2137,61.0,0.0,90.0,11.0,0.0
2138,74.0,0.0,180.0,1.0,0.0
2139,49.0,0.0,180.0,13.0,0.0
2140,61.0,48.0,90.0,10.0,0.0
2141,37.0,0.0,180.0,14.0,0.0
2142,61.0,120.0,90.0,11.0,0.0
2143,61.0,0.0,90.0,10.0,0.0
2144,74.0,0.0,180.0,1.0,0.0
2145,50.0,0.0,180.0,2.0,0.0
2146,50.0,48.0,390.0,5.0,0.0
2147,48.0,0.0,180.0,13.0,0.0
2148,86.0,0.0,180.0,0.0,0.0
2149,60.0,24.0,180.0,12.0,0.0
2150,60.0,96.0,90.0,11.0,0.0
2151,60.0,0.0,90.0,10.0,0.0
2152,36.0,0.0,180.0,14.0,0.0
2153,62.0,0.0,180.0,1.0,0.0
2154,60.0,120.0,90.0,11.0,0.0
2155,60.0,0.0,90.0,10.0,0.0
2156,62.0,0.0,180.0,1.0,0.0
2157,36.0,0.0,180.0,14.0,0.0
2158,86.0,0.0,180.0,0.0,0.0
2159,60.0,0.0,180.0,12.0,0.0
2160,60.0,48.0,90.0,11.0,0.0
2161,60.0,0.0,90.0,10.0,0.0
2162,50.0,0.0,180.0,2.0,0.0
2163,48.0,24.0,180.0,13.0,0.0
2164,74.0,0.0,180.0,1.0,0.0
2165,60.0,0.0,90.0,10.0,0.0
2166,60.0,120.0,90.0,11.0,0.0
2167,55.0,0.0,390.0,5.0,0.0
2168,59.0,0.0,180.0,12.0,0.0
2169,86.0,0.0,180.0,0.0,0.0
2170,59.0,96.0,90.0,10.0,0.0
2171,35.0,0.0,180.0,14.0,0.0
2172,47.0,0.0,180.0,13.0,0.0
2173,50.0,24.0,180.0,2.0,0.0
2174,50.0,0.0,390.0,3.0,0.0
2175,74.0,0.0,180.0,1.0,0.0
2176,62.0,0.0,180.0,1.0,0.0
2177,62.0,0.0,390.0,3.0,0.0
2178,62.0,0.0,390.0,4.0,0.0
2179,74.0,48.0,390.0,4.0,0.0
2180,59.0,0.0,90.0,11.0,0.0
2181,59.0,120.0,90.0,10.0,0.0
2182,59.0,0.0,90.0,11.0,0.0
2183,86.0,0.0,180.0,0.0,0.0
2184,74.0,0.0,180.0,1.0,0.0
2185,62.0,0.0,180.0,2.0,0.0
2186,50.0,0.0,180.0,2.0,0.0
2187,59.0,0.0,180.0,12.0,0.0
2188,47.0,0.0,180.0,13.0,0.0
2189,86.0,24.0,180.0,1.0,0.0
2190,35.0,0.0,180.0,14.0,0.0
2191,59.0,0.0,90.0,11.0,0.0
2192,59.0,48.0,90.0,10.0,0.0
2193,59.0,120.0,90.0,10.0,0.0
2194,59.0,0.0,90.0,11.0,0.0
2195,67.0,0.0,390.0,3.0,0.0
2196,55.0,0.0,390.0,3.0,0.0
2197,67.0,96.0,90.0,11.0,0.0
2198,67.0,0.0,90.0,10.0,0.0
2199,50.0,0.0,180.0,2.0,0.0
2200,62.0,0.0,180.0,2.0,0.0
2201,67.0,0.0,180.0,12.0,0.0
2202,86.0,0.0,180.0,0.0,0.0
2203,43.0,0.0,180.0,14.0,0.0
2204,55.0,24.0,180.0,13.0,0.0
2205,79.0,48.0,390.0,4.0,0.0
2206,67.0,0.0,390.0,4.0,0.0
2207,74.0,0.0,180.0,1.0,0.0
2208,86.0,0.0,180.0,1.0,0.0
2209,67.0,0.0,90.0,11.0,0.0
2210,67.0,120.0,90.0,10.0,0.0
2211,86.0,0.0,180.0,1.0,0.0
2212,67.0,0.0,90.0,11.0,0.0
2213,86.0,0.0,180.0,0.0,0.0
2214,50.0,24.0,180.0,2.0,0.0
2215,62.0,0.0,180.0,2.0,0.0
2216,74.0,0.0,180.0,1.0,0.0
2217,43.0,0.0,180.0,14.0,0.0
2218,67.0,0.0,180.0,12.0,0.0
2219,67.0,48.0,90.0,10.0,0.0
2220,55.0,0.0,180.0,13.0,0.0
2221,67.0,120.0,90.0,10.0,0.0
2222,67.0,0.0,90.0,11.0,0.0
2223,62.0,24.0,180.0,2.0,0.0
2224,50.0,0.0,180.0,2.0,0.0
2225,71.0,96.0,90.0,10.0,0.0
2226,71.0,0.0,180.0,12.0,0.0
2227,86.0,0.0,180.0,0.0,0.0
2228,59.0,0.0,180.0,13.0,0.0
2229,83.0,0.0,390.0,4.0,0.0
2230,71.0,48.0,390.0,4.0,0.0
2231,71.0,0.0,390.0,3.0,0.0
2232,74.0,0.0,180.0,1.0,0.0
2233,86.0,0.0,180.0,1.0,0.0
2234,47.0,0.0,180.0,14.0,0.0
2235,59.0,0.0,390.0,3.0,0.0
2236,71.0,0.0,90.0,11.0,0.0
2237,71.0,120.0,90.0,10.0,0.0
2238,71.0,0.0,90.0,11.0,0.0
2239,86.0,0.0,180.0,1.0,0.0
2240,74.0,0.0,180.0,1.0,0.0
2241,59.0,0.0,180.0,13.0,0.0
2242,71.0,0.0,180.0,12.0,0.0
2243,71.0,0.0,90.0,11.0,0.0
2244,47.0,0.0,180.0,14.0,0.0
2245,86.0,24.0,180.0,0.0,0.0
2246,50.0,0.0,180.0,2.0,0.0
2247,71.0,48.0,90.0,10.0,0.0
2248,62.0,0.0,180.0,2.0,0.0
2249,71.0,120.0,90.0,10.0,0.0
2250,71.0,0.0,90.0,11.0,0.0
2251,74.0,0.0,180.0,1.0,0.0
2252,86.0,0.0,180.0,1.0,0.0
2253,50.0,0.0,180.0,14.0,0.0
2254,62.0,0.0,390.0,3.0,0.0
2255,74.0,0.0,390.0,4.0,0.0
2256,74.0,24.0,180.0,12.0,0.0
2257,62.0,0.0,180.0,13.0,0.0
2258,50.0,0.0,180.0,2.0,0.0
2259,62.0,0.0,180.0,2.0,0.0
2260,86.0,0.0,180.0,0.0,0.0
2261,50.0,48.0,390.0,5.0,0.0
2262,74.0,96.0,90.0,10.0,0.0
2263,74.0,0.0,390.0,3.0,0.0
2264,86.0,0.0,390.0,4.0,0.0
2265,74.0,0.0,90.0,11.0,0.0
2266,74.0,120.0,90.0,11.0,0.0
2267,74.0,0.0,90.0,10.0,0.0
2268,62.0,0.0,180.0,2.0,0.0
2269,50.0,0.0,180.0,2.0,0.0
2270,74.0,48.0,90.0,11.0,0.0
2271,62.0,0.0,180.0,13.0,0.0
2272,50.0,0.0,180.0,14.0,0.0
2273,74.0,0.0,180.0,12.0,0.0
2274,74.0,0.0,90.0,10.0,0.0
2275,86.0,0.0,180.0,0.0,0.0
2276,74.0,24.0,180.0,1.0,0.0
2277,86.0,0.0,180.0,1.0,0.0
2278,74.0,0.0,90.0,10.0,0.0
2279,74.0,120.0,90.0,11.0,0.0
2280,50.0,0.0,390.0,5.0,0.0
2281,61.0,0.0,180.0,13.0,0.0
2282,49.0,0.0,180.0,14.0,0.0
2283,86.0,0.0,390.0,4.0,0.0
2284,73.0,0.0,90.0,11.0,0.0
2285,86.0,0.0,180.0,1.0,0.0
2286,50.0,0.0,180.0,2.0,0.0
2287,86.0,24.0,180.0,0.0,0.0
2288,62.0,0.0,180.0,2.0,0.0
2289,73.0,0.0,180.0,12.0,0.0
2290,62.0,48.0,390.0,3.0,0.0
2291,73.0,96.0,90.0,10.0,0.0
2292,74.0,0.0,390.0,3.0,0.0
2293,74.0,0.0,180.0,1.0,0.0
2294,74.0,0.0,390.0,4.0,0.0
2295,73.0,0.0,90.0,10.0,0.0
2296,73.0,120.0,90.0,11.0,0.0
2297,62.0,0.0,180.0,2.0,0.0
2298,86.0,0.0,180.0,0.0,0.0
2299,49.0,0.0,180.0,14.0,0.0
2300,61.0,0.0,180.0,13.0,0.0
2301,50.0,0.0,180.0,2.0,0.0
2302,73.0,48.0,90.0,10.0,0.0
2303,86.0,0.0,180.0,1.0,0.0
2304,74.0,0.0,180.0,1.0,0.0
2305,73.0,0.0,90.0,11.0,0.0
2306,73.0,24.0,180.0,12.0,0.0
2307,73.0,0.0,90.0,10.0,0.0
2308,73.0,120.0,90.0,11.0,0.0
2309,48.0,0.0,180.0,14.0,0.0
2310,72.0,0.0,90.0,10.0,0.0
2311,72.0,24.0,180.0,12.0,0.0
2312,74.0,0.0,390.0,3.0,0.0
2313,62.0,0.0,390.0,3.0,0.0
2314,60.0,0.0,180.0,13.0,0.0
2315,74.0,0.0,180.0,1.0,0.0
2316,86.0,0.0,180.0,0.0,0.0
2317,62.0,0.0,180.0,2.0,0.0
2318,74.0,0.0,390.0,4.0,0.0
2319,86.0,48.0,390.0,4.0,0.0
2320,50.0,0.0,180.0,2.0,0.0
2321,86.0,0.0,180.0,1.0,0.0
2322,72.0,96.0,90.0,11.0,0.0
2323,50.0,0.0,390.0,5.0,0.0
2324,72.0,0.0,90.0,10.0,0.0
2325,72.0,120.0,90.0,11.0,0.0
2326,86.0,24.0,180.0,1.0,0.0
2327,74.0,0.0,180.0,1.0,0.0
2328,86.0,0.0,180.0,0.0,0.0
2329,60.0,0.0,180.0,13.0,0.0
2330,50.0,0.0,180.0,2.0,0.0
2331,72.0,0.0,90.0,11.0,0.0
2332,72.0,48.0,90.0,10.0,0.0
2333,48.0,0.0,180.0,14.0,0.0
2334,72.0,0.0,180.0,12.0,0.0
2335,62.0,0.0,180.0,2.0,0.0
2336,72.0,204.0,90.0,10.0,0.0
2337,72.0,0.0,90.0,11.0,0.0
2338,71.0,0.0,390.0,12.0,0.0
2339,74.0,0.0,390.0,1.0,0.0
2340,67.0,0.0,390.0,3.0,0.0
2341,55.0,0.0,390.0,3.0,0.0
2342,71.0,0.0,180.0,10.0,0.0
2343,50.0,0.0,390.0,2.0,0.0
2344,55.0,0.0,390.0,5.0,0.0
2345,86.0,0.0,390.0,1.0,0.0
2346,62.0,0.0,390.0,2.0,0.0
2347,47.0,36.0,390.0,14.0,0.0
2348,79.0,0.0,390.0,4.0,0.0
2349,67.0,0.0,390.0,4.0,0.0
2350,86.0,0.0,390.0,0.0,0.0
2351,71.0,204.0,180.0,11.0,0.0
2352,59.0,0.0,390.0,13.0,0.0
2353,91.0,0.0,180.0,10.0,0.0
2354,91.0,240.0,180.0,11.0,0.0
2355,91.0,240.0,180.0,10.0,0.0
2356,91.0,0.0,180.0,11.0,0.0
2357,91.0,0.0,180.0,10.0,0.0
2358,91.0,240.0,180.0,11.0,0.0
2359,91.0,0.0,180.0,11.0,0.0
2360,91.0,240.0,180.0,10.0,0.0
2361,91.0,0.0,180.0,10.0,0.0
2362,91.0,444.0,180.0,11.0,0.0
2363,55.0,0.0,390.0,5.0,0.0
2364,79.0,48.0,390.0,4.0,0.0
2365,67.0,0.0,390.0,4.0,0.0
2366,91.0,0.0,1380.0,10.0,0.0
2367,91.0,24.0,1380.0,11.0,0.0
2368,47.0,0.0,180.0,14.0,0.0
2369,62.0,0.0,180.0,12.0,0.0
2370,59.0,240.0,180.0,13.0,0.0
2371,55.0,0.0,180.0,3.0,0.0
2372,91.0,0.0,180.0,0.0,0.0
2373,86.0,0.0,180.0,1.0,0.0
2374,83.0,0.0,180.0,1.0,0.0
2375,67.0,0.0,180.0,3.0,0.0
2376,62.0,0.0,180.0,2.0,0.0
2377,59.0,0.0,180.0,2.0,0.0
2378,47.0,0.0,180.0,14.0,0.0
2379,55.0,240.0,180.0,3.0,0.0
2380,62.0,0.0,180.0,2.0,0.0
2381,59.0,0.0,180.0,2.0,0.0
2382,67.0,0.0,180.0,3.0,0.0
2383,91.0,0.0,180.0,0.0,0.0
2384,83.0,0.0,180.0,1.0,0.0
2385,59.0,0.0,180.0,13.0,0.0
2386,62.0,0.0,180.0,12.0,0.0
2387,86.0,0.0,180.0,1.0,0.0
2388,91.0,0.0,180.0,0.0,0.0
2389,59.0,0.0,180.0,13.0,0.0
2390,47.0,0.0,180.0,14.0,0.0
2391,55.0,0.0,180.0,3.0,0.0
2392,62.0,0.0,180.0,2.0,0.0
2393,83.0,0.0,180.0,1.0,0.0
2394,86.0,0.0,180.0,1.0,0.0
2395,62.0,0.0,180.0,12.0,0.0
2396,67.0,240.0,180.0,3.0,0.0
2397,59.0,0.0,180.0,2.0,0.0
2398,59.0,0.0,180.0,13.0,0.0
2399,62.0,0.0,180.0,2.0,0.0
2400,59.0,0.0,180.0,2.0,0.0
2401,86.0,0.0,180.0,1.0,0.0
2402,62.0,216.0,180.0,12.0,0.0
2403,67.0,0.0,180.0,3.0,0.0
2404,55.0,0.0,180.0,3.0,0.0
2405,83.0,0.0,180.0,1.0,0.0
2406,47.0,0.0,180.0,14.0,0.0
2407,91.0,0.0,180.0,0.0,0.0
2408,59.0,0.0,180.0,13.0,0.0
2409,67.0,0.0,180.0,3.0,0.0
2410,55.0,0.0,180.0,3.0,0.0
2411,47.0,0.0,180.0,14.0,0.0
2412,91.0,0.0,180.0,0.0,0.0
2413,86.0,0.0,180.0,1.0,0.0
2414,62.0,0.0,180.0,2.0,0.0
2415,59.0,240.0,180.0,2.0,0.0
2416,83.0,0.0,180.0,1.0,0.0
2417,62.0,0.0,180.0,12.0,0.0
2418,84.0,0.0,180.0,1.0,0.0
2419,67.0,0.0,390.0,4.0,0.0
2420,79.0,0.0,390.0,4.0,0.0
2421,48.0,0.0,180.0,14.0,0.0
2422,55.0,48.0,390.0,5.0,0.0
2423,60.0,0.0,390.0,11.0,0.0
2424,81.0,0.0,180.0,1.0,0.0
2425,67.0,0.0,180.0,3.0,0.0
2426,55.0,0.0,180.0,3.0,0.0
2427,64.0,0.0,180.0,12.0,0.0
2428,64.0,0.0,180.0,2.0,0.0
2429,60.0,0.0,180.0,13.0,0.0
2430,60.0,192.0,180.0,2.0,0.0
2431,91.0,0.0,180.0,0.0,0.0
2432,60.0,0.0,390.0,10.0,0.0
2433,91.0,0.0,180.0,0.0,0.0
2434,84.0,0.0,180.0,1.0,0.0
2435,64.0,0.0,180.0,2.0,0.0
2436,64.0,0.0,180.0,12.0,0.0
2437,48.0,0.0,180.0,14.0,0.0
2438,81.0,0.0,180.0,1.0,0.0
2439,55.0,0.0,180.0,3.0,0.0
2440,60.0,0.0,180.0,13.0,0.0
2441,67.0,0.0,180.0,3.0,0.0
2442,60.0,240.0,180.0,2.0,0.0
2443,64.0,0.0,180.0,2.0,0.0
2444,60.0,0.0,180.0,2.0,0.0
2445,64.0,0.0,180.0,12.0,0.0
2446,88.0,0.0,390.0,10.0,0.0
2447,91.0,0.0,180.0,0.0,0.0
2448,88.0,48.0,390.0,11.0,0.0
2449,55.0,0.0,180.0,3.0,0.0
2450,67.0,0.0,180.0,3.0,0.0
2451,84.0,0.0,180.0,1.0,0.0
2452,81.0,0.0,180.0,1.0,0.0
2453,48.0,192.0,180.0,14.0,0.0
2454,60.0,0.0,180.0,13.0,0.0
2455,48.0,0.0,180.0,14.0,0.0
2456,67.0,0.0,180.0,3.0,0.0
2457,55.0,0.0,180.0,3.0,0.0
2458,60.0,0.0,180.0,13.0,0.0
2459,64.0,0.0,180.0,2.0,0.0
2460,84.0,0.0,180.0,1.0,0.0
2461,81.0,0.0,180.0,1.0,0.0
2462,60.0,240.0,180.0,2.0,0.0
2463,91.0,0.0,180.0,0.0,0.0
2464,64.0,0.0,180.0,12.0,0.0
2465,67.0,0.0,180.0,3.0,0.0
2466,55.0,0.0,180.0,3.0,0.0
2467,48.0,0.0,180.0,14.0,0.0
2468,64.0,0.0,180.0,2.0,0.0
2469,60.0,0.0,180.0,2.0,0.0
2470,91.0,0.0,180.0,0.0,0.0
2471,81.0,0.0,180.0,1.0,0.0
2472,60.0,0.0,180.0,13.0,0.0
2473,64.0,0.0,180.0,12.0,0.0
2474,84.0,240.0,180.0,1.0,0.0
2475,84.0,0.0,180.0,1.0,0.0
2476,81.0,0.0,180.0,1.0,0.0
2477,64.0,0.0,180.0,2.0,0.0
2478,64.0,0.0,180.0,12.0,0.0
2479,67.0,0.0,180.0,3.0,0.0
2480,55.0,240.0,180.0,3.0,0.0
2481,60.0,0.0,180.0,13.0,0.0
2482,91.0,0.0,180.0,0.0,0.0
2483,48.0,0.0,180.0,14.0,0.0
2484,60.0,0.0,180.0,2.0,0.0
2485,62.0,0.0,390.0,4.0,0.0
2486,50.0,0.0,180.0,14.0,0.0
2487,81.0,0.0,180.0,1.0,0.0
2488,84.0,0.0,180.0,1.0,0.0
2489,74.0,48.0,390.0,4.0,0.0
2490,50.0,0.0,390.0,5.0,0.0
2491,62.0,0.0,390.0,10.0,0.0
2492,66.0,0.0,180.0,12.0,0.0
2493,62.0,0.0,180.0,13.0,0.0
2494,69.0,192.0,180.0,2.0,0.0
2495,62.0,0.0,180.0,2.0,0.0
2496,50.0,0.0,180.0,3.0,0.0
2497,62.0,0.0,180.0,3.0,0.0
2498,62.0,0.0,390.0,11.0,0.0
2499,90.0,0.0,180.0,0.0,0.0
2500,62.0,0.0,180.0,13.0,0.0
2501,62.0,0.0,180.0,3.0,0.0
2502,84.0,0.0,180.0,1.0,0.0
2503,81.0,0.0,180.0,1.0,0.0
2504,50.0,0.0,180.0,14.0,0.0
2505,69.0,0.0,180.0,2.0,0.0
2506,50.0,0.0,180.0,3.0,0.0
2507,66.0,240.0,180.0,12.0,0.0
2508,90.0,0.0,180.0,0.0,0.0
2509,62.0,0.0,180.0,2.0,0.0
2510,84.0,0.0,570.0,11.0,0.0
2511,66.0,0.0,180.0,12.0,0.0
2512,50.0,240.0,180.0,14.0,0.0
2513,50.0,0.0,180.0,3.0,0.0
2514,62.0,0.0,180.0,3.0,0.0
2515,84.0,96.0,570.0,10.0,0.0
2516,62.0,0.0,180.0,2.0,0.0
2517,81.0,0.0,180.0,1.0,0.0
2518,84.0,0.0,180.0,1.0,0.0
2519,69.0,0.0,180.0,2.0,0.0
2520,90.0,0.0,180.0,0.0,0.0
2521,62.0,0.0,180.0,13.0,0.0
2522,62.0,0.0,180.0,3.0,0.0
2523,50.0,0.0,180.0,3.0,0.0
2524,62.0,0.0,180.0,13.0,0.0
2525,81.0,0.0,180.0,1.0,0.0
2526,62.0,144.0,180.0,2.0,0.0
2527,50.0,0.0,180.0,14.0,0.0
2528,69.0,0.0,180.0,2.0,0.0
2529,90.0,0.0,180.0,0.0,0.0
2530,66.0,0.0,180.0,12.0,0.0
2531,84.0,0.0,180.0,1.0,0.0
2532,90.0,0.0,180.0,0.0,0.0
2533,66.0,0.0,180.0,12.0,0.0
2534,84.0,0.0,180.0,1.0,0.0
2535,81.0,0.0,180.0,1.0,0.0
2536,62.0,0.0,180.0,13.0,0.0
2537,62.0,0.0,180.0,3.0,0.0
2538,50.0,240.0,180.0,14.0,0.0
2539,69.0,0.0,180.0,2.0,0.0
2540,50.0,0.0,180.0,3.0,0.0
2541,62.0,0.0,180.0,2.0,0.0
2542,66.0,0.0,180.0,12.0,0.0
2543,90.0,0.0,180.0,0.0,0.0
2544,69.0,0.0,180.0,2.0,0.0
2545,62.0,0.0,180.0,2.0,0.0
2546,62.0,168.0,180.0,3.0,0.0
2547,50.0,0.0,180.0,14.0,0.0
2548,84.0,0.0,180.0,1.0,0.0
2549,81.0,0.0,180.0,1.0,0.0
2550,50.0,0.0,180.0,3.0,0.0
2551,62.0,0.0,180.0,13.0,0.0
2552,84.0,0.0,180.0,10.0,0.0
2553,84.0,0.0,180.0,11.0,0.0
2554,55.0,24.0,390.0,5.0,0.0
2555,83.0,0.0,180.0,1.0,0.0
2556,79.0,0.0,180.0,1.0,0.0
2557,64.0,192.0,180.0,13.0,0.0
2558,55.0,0.0,180.0,3.0,0.0
2559,52.0,0.0,180.0,14.0,0.0
2560,67.0,0.0,390.0,4.0,0.0
2561,79.0,0.0,390.0,4.0,0.0
2562,67.0,0.0,180.0,3.0,0.0
2563,67.0,0.0,180.0,2.0,0.0
2564,67.0,0.0,180.0,12.0,0.0
2565,91.0,0.0,180.0,0.0,0.0
2566,82.0,0.0,120.0,11.0,0.0
2567,82.0,72.0,120.0,10.0,0.0
2568,64.0,0.0,180.0,2.0,0.0
2569,83.0,24.0,300.0,10.0,0.0
2570,83.0,0.0,300.0,11.0,0.0
2571,91.0,0.0,180.0,0.0,0.0
2572,64.0,240.0,180.0,2.0,0.0
2573,67.0,0.0,180.0,3.0,0.0
2574,79.0,0.0,180.0,1.0,0.0
2575,67.0,0.0,180.0,2.0,0.0
2576,55.0,0.0,180.0,3.0,0.0
2577,64.0,0.0,180.0,13.0,0.0
2578,83.0,0.0,180.0,1.0,0.0
2579,67.0,0.0,180.0,12.0,0.0
2580,52.0,0.0,180.0,14.0,0.0
2581,64.0,0.0,180.0,2.0,0.0
2582,52.0,0.0,180.0,14.0,0.0
2583,79.0,0.0,390.0,4.0,0.0
2584,67.0,0.0,390.0,4.0,0.0
2585,55.0,0.0,180.0,3.0,0.0
2586,67.0,0.0,180.0,3.0,0.0
2587,64.0,0.0,180.0,13.0,0.0
2588,91.0,0.0,180.0,0.0,0.0
2589,67.0,0.0,180.0,2.0,0.0
2590,83.0,0.0,390.0,11.0,0.0
2591,55.0,48.0,390.0,5.0,0.0
2592,83.0,0.0,390.0,10.0,0.0
2593,67.0,0.0,180.0,12.0,0.0
2594,79.0,0.0,180.0,1.0,0.0
2595,83.0,192.0,180.0,1.0,0.0
2596,83.0,0.0,180.0,1.0,0.0
2597,91.0,0.0,180.0,0.0,0.0
2598,52.0,0.0,180.0,14.0,0.0
2599,64.0,0.0,180.0,13.0,0.0
2600,55.0,0.0,180.0,3.0,0.0
2601,67.0,240.0,180.0,12.0,0.0
2602,64.0,0.0,180.0,2.0,0.0
2603,67.0,0.0,180.0,2.0,0.0
2604,67.0,0.0,180.0,3.0,0.0
2605,79.0,0.0,180.0,1.0,0.0
2606,55.0,0.0,390.0,5.0,0.0
2607,79.0,48.0,390.0,4.0,0.0
2608,83.0,0.0,180.0,1.0,0.0
2609,79.0,0.0,180.0,1.0,0.0
2610,67.0,0.0,180.0,2.0,0.0
2611,64.0,0.0,180.0,13.0,0.0
2612,67.0,0.0,180.0,12.0,0.0
2613,67.0,0.0,390.0,4.0,0.0
2614,52.0,0.0,180.0,14.0,0.0
2615,91.0,0.0,180.0,0.0,0.0
2616,67.0,0.0,180.0,3.0,0.0
2617,55.0,0.0,180.0,3.0,0.0
2618,64.0,192.0,180.0,2.0,0.0
2619,79.0,0.0,180.0,1.0,0.0
2620,91.0,0.0,180.0,0.0,0.0
2621,52.0,0.0,180.0,14.0,0.0
2622,67.0,0.0,180.0,12.0,0.0
2623,64.0,0.0,180.0,2.0,0.0
2624,67.0,432.0,180.0,3.0,0.0
2625,83.0,0.0,180.0,1.0,0.0
2626,67.0,0.0,180.0,2.0,0.0
2627,64.0,0.0,180.0,13.0,0.0
2628,55.0,0.0,180.0,3.0,0.0
2629,55.0,36.0,390.0,5.0,0.0
2630,55.0,0.0,1380.0,3.0,0.0
2631,79.0,0.0,1380.0,4.0,0.0
2632,67.0,0.0,1380.0,4.0,0.0
2633,65.0,0.0,1380.0,13.0,0.0
2634,86.0,0.0,1380.0,1.0,0.0
2635,67.0,0.0,1380.0,3.0,0.0
2636,71.0,0.0,1380.0,12.0,0.0
2637,91.0,0.0,1380.0,0.0,0.0
2638,71.0,12.0,1380.0,2.0,0.0
2639,53.0,0.0,1380.0,14.0,0.0
2640,83.0,0.0,1380.0,1.0,0.0
2641,65.0,0.0,1380.0,2.0,0.0
2642,91.0,0.0,180.0,10.0,0.0
2643,91.0,240.0,180.0,11.0,0.0
2644,91.0,0.0,180.0,10.0,0.0
2645,91.0,240.0,180.0,11.0,0.0
2646,91.0,240.0,180.0,10.0,0.0
2647,91.0,0.0,180.0,11.0,0.0
2648,91.0,0.0,180.0,10.0,0.0
2649,91.0,228.0,180.0,11.0,0.0
2650,91.0,0.0,180.0,10.0,0.0
2651,91.0,444.0,180.0,11.0,0.0
2652,55.0,48.0,390.0,5.0,0.0
2653,91.0,0.0,1380.0,10.0,0.0
2654,79.0,0.0,390.0,4.0,0.0
2655,91.0,24.0,1380.0,11.0,0.0
2656,67.0,0.0,390.0,4.0,0.0
2657,67.0,0.0,180.0,2.0,0.0
2658,67.0,0.0,180.0,3.0,0.0
2659,55.0,0.0,180.0,3.0,0.0
2660,91.0,0.0,180.0,0.0,0.0
2661,72.0,0.0,180.0,12.0,0.0
2662,64.0,0.0,180.0,13.0,0.0
2663,64.0,0.0,180.0,2.0,0.0
2664,79.0,0.0,180.0,1.0,0.0
2665,84.0,240.0,180.0,1.0,0.0
2666,52.0,0.0,180.0,14.0,0.0
2667,64.0,0.0,180.0,13.0,0.0
2668,67.0,0.0,180.0,2.0,0.0
2669,64.0,240.0,180.0,2.0,0.0
2670,79.0,0.0,180.0,1.0,0.0
2671,84.0,0.0,180.0,1.0,0.0
2672,55.0,0.0,180.0,3.0,0.0
2673,67.0,0.0,180.0,3.0,0.0
2674,72.0,0.0,180.0,12.0,0.0
2675,52.0,0.0,180.0,14.0,0.0
2676,91.0,0.0,180.0,0.0,0.0
2677,91.0,0.0,180.0,0.0,0.0
2678,79.0,0.0,180.0,1.0,0.0
2679,84.0,0.0,180.0,1.0,0.0
2680,64.0,0.0,180.0,13.0,0.0
2681,52.0,0.0,180.0,14.0,0.0
2682,64.0,0.0,180.0,2.0,0.0
2683,67.0,0.0,180.0,2.0,0.0
2684,67.0,240.0,180.0,3.0,0.0
2685,72.0,0.0,180.0,12.0,0.0
2686,55.0,0.0,180.0,3.0,0.0
2687,79.0,0.0,180.0,1.0,0.0
2688,72.0,0.0,180.0,12.0,0.0
2689,84.0,0.0,180.0,1.0,0.0
2690,67.0,216.0,180.0,2.0,0.0
2691,91.0,0.0,180.0,0.0,0.0
2692,67.0,0.0,180.0,3.0,0.0
2693,55.0,0.0,180.0,3.0,0.0
2694,52.0,0.0,180.0,14.0,0.0
2695,64.0,0.0,180.0,13.0,0.0
2696,64.0,0.0,180.0,2.0,0.0
2697,91.0,0.0,180.0,0.0,0.0
2698,64.0,0.0,180.0,13.0,0.0
2699,52.0,0.0,180.0,14.0,0.0
2700,79.0,0.0,180.0,1.0,0.0
2701,67.0,240.0,180.0,2.0,0.0
2702,64.0,0.0,180.0,2.0,0.0
2703,55.0,0.0,180.0,3.0,0.0
2704,67.0,0.0,180.0,3.0,0.0
2705,72.0,0.0,180.0,12.0,0.0
2706,84.0,0.0,180.0,1.0,0.0
2707,55.0,0.0,390.0,5.0,0.0
2708,70.0,0.0,180.0,12.0,0.0
2709,61.0,0.0,180.0,13.0,0.0
2710,61.0,48.0,390.0,10.0,0.0
2711,91.0,0.0,180.0,0.0,0.0
2712,55.0,0.0,180.0,3.0,0.0
2713,61.0,0.0,390.0,11.0,0.0
2714,88.0,0.0,180.0,1.0,0.0
2715,82.0,0.0,180.0,1.0,0.0
2716,67.0,0.0,180.0,3.0,0.0
2717,64.0,192.0,180.0,2.0,0.0
2718,70.0,0.0,180.0,2.0,0.0
2719,67.0,0.0,390.0,4.0,0.0
2720,79.0,0.0,390.0,4.0,0.0
2721,49.0,0.0,180.0,14.0,0.0
2722,91.0,0.0,180.0,0.0,0.0
2723,61.0,0.0,180.0,13.0,0.0
2724,70.0,240.0,180.0,2.0,0.0
2725,67.0,0.0,180.0,3.0,0.0
2726,88.0,0.0,180.0,1.0,0.0
2727,82.0,0.0,180.0,1.0,0.0
2728,64.0,0.0,180.0,2.0,0.0
2729,70.0,0.0,180.0,12.0,0.0
2730,55.0,0.0,180.0,3.0,0.0
2731,49.0,0.0,180.0,14.0,0.0
2732,88.0,192.0,180.0,1.0,0.0
2733,49.0,0.0,180.0,14.0,0.0
2734,88.0,0.0,390.0,11.0,0.0
2735,55.0,0.0,390.0,5.0,0.0
2736,82.0,0.0,180.0,1.0,0.0
2737,61.0,0.0,180.0,13.0,0.0
2738,88.0,48.0,390.0,10.0,0.0
2739,55.0,0.0,180.0,3.0,0.0
2740,91.0,0.0,180.0,0.0,0.0
2741,70.0,0.0,180.0,2.0,0.0
2742,64.0,0.0,180.0,2.0,0.0
2743,67.0,0.0,180.0,3.0,0.0
2744,70.0,0.0,180.0,12.0,0.0
2745,79.0,0.0,390.0,4.0,0.0
2746,67.0,0.0,390.0,4.0,0.0
2747,82.0,0.0,180.0,1.0,0.0
2748,88.0,0.0,180.0,1.0,0.0
2749,64.0,0.0,180.0,2.0,0.0
2750,49.0,0.0,180.0,14.0,0.0
2751,61.0,0.0,180.0,13.0,0.0
2752,70.0,240.0,180.0,12.0,0.0
2753,91.0,0.0,180.0,0.0,0.0
2754,67.0,0.0,180.0,3.0,0.0
2755,55.0,0.0,180.0,3.0,0.0
2756,70.0,0.0,180.0,2.0,0.0
2757,70.0,0.0,180.0,12.0,0.0
2758,64.0,0.0,180.0,2.0,0.0
2759,70.0,0.0,180.0,2.0,0.0
2760,88.0,0.0,180.0,1.0,0.0
2761,82.0,0.0,180.0,1.0,0.0
2762,55.0,0.0,390.0,5.0,0.0
2763,49.0,0.0,180.0,14.0,0.0
2764,91.0,0.0,180.0,0.0,0.0
2765,61.0,192.0,180.0,13.0,0.0
2766,67.0,0.0,180.0,3.0,0.0
2767,55.0,0.0,180.0,3.0,0.0
2768,67.0,48.0,390.0,4.0,0.0
2769,79.0,0.0,390.0,4.0,0.0
2770,88.0,0.0,180.0,1.0,0.0
2771,70.0,0.0,180.0,2.0,0.0
2772,64.0,0.0,180.0,2.0,0.0
2773,91.0,0.0,180.0,0.0,0.0
2774,61.0,0.0,180.0,13.0,0.0
2775,55.0,0.0,180.0,3.0,0.0
2776,70.0,0.0,180.0,12.0,0.0
2777,82.0,0.0,180.0,1.0,0.0
2778,49.0,204.0,180.0,14.0,0.0
2779,67.0,0.0,180.0,3.0,0.0
2780,91.0,0.0,390.0,0.0,0.0
2781,74.0,0.0,390.0,3.0,0.0
2782,62.0,0.0,390.0,3.0,0.0
2783,86.0,0.0,150.0,11.0,0.0
2784,83.0,0.0,390.0,1.0,0.0
2785,86.0,0.0,390.0,1.0,0.0
2786,71.0,0.0,390.0,12.0,0.0
2787,86.0,228.0,150.0,10.0,0.0
2788,50.0,0.0,390.0,14.0,0.0
2789,62.0,0.0,390.0,2.0,0.0
2790,62.0,0.0,390.0,13.0,0.0
2791,79.0,0.0,390.0,4.0,0.0
2792,67.0,0.0,390.0,4.0,0.0
2793,50.0,12.0,390.0,5.0,0.0
2794,71.0,0.0,390.0,2.0,0.0
2795,83.0,0.0,150.0,11.0,0.0
2796,83.0,240.0,150.0,10.0,0.0
2797,79.0,0.0,150.0,10.0,0.0
2798,79.0,240.0,150.0,11.0,0.0
2799,74.0,240.0,150.0,10.0,0.0
2800,74.0,0.0,150.0,11.0,0.0
2801,71.0,0.0,150.0,11.0,0.0
2802,71.0,240.0,150.0,10.0,0.0
2803,67.0,0.0,150.0,11.0,0.0
2804,67.0,444.0,150.0,10.0,0.0
2805,62.0,384.0,360.0,11.0,0.0
2806,62.0,0.0,360.0,10.0,0.0
2807,74.0,0.0,270.0,12.0,0.0
2808,50.0,0.0,270.0,5.0,0.0
2809,74.0,0.0,270.0,11.0,0.0
2810,67.0,0.0,270.0,11.0,0.0
2811,79.0,0.0,270.0,1.0,0.0
2812,83.0,480.0,270.0,1.0,0.0
2813,83.0,0.0,270.0,11.0,0.0
2814,74.0,0.0,270.0,4.0,0.0
2815,83.0,0.0,270.0,10.0,0.0
2816,71.0,0.0,270.0,3.0,0.0
2817,50.0,0.0,270.0,14.0,0.0
2818,62.0,0.0,270.0,4.0,0.0
2819,74.0,0.0,270.0,10.0,0.0
2820,81.0,0.0,270.0,0.0,0.0
2821,62.0,0.0,270.0,13.0,0.0
2822,62.0,0.0,270.0,2.0,0.0
2823,67.0,0.0,270.0,3.0,0.0
2824,67.0,0.0,270.0,10.0,0.0
2825,50.0,0.0,270.0,13.0,0.0
2826,50.0,0.0,270.0,2.0,0.0
2827,62.0,0.0,270.0,4.0,0.0
2828,62.0,0.0,270.0,12.0,0.0
2829,74.0,0.0,270.0,4.0,0.0
2830,38.0,0.0,270.0,14.0,0.0
2831,66.0,0.0,270.0,10.0,0.0
2832,50.0,0.0,270.0,5.0,0.0
2833,81.0,0.0,270.0,0.0,0.0
2834,74.0,0.0,270.0,11.0,0.0
2835,66.0,360.0,270.0,11.0,0.0
2836,81.0,0.0,270.0,11.0,0.0
2837,81.0,0.0,270.0,10.0,0.0
2838,62.0,0.0,270.0,3.0,0.0
2839,69.0,0.0,270.0,3.0,0.0
2840,78.0,0.0,270.0,1.0,0.0
2841,81.0,0.0,270.0,1.0,0.0
2842,74.0,0.0,270.0,10.0,0.0
2843,79.0,72.0,1260.0,10.0,0.0
2844,59.0,0.0,390.0,10.0,0.0
2845,55.0,0.0,150.0,13.0,0.0
2846,67.0,0.0,390.0,10.0,0.0
2847,43.0,216.0,150.0,14.0,0.0
2848,59.0,0.0,360.0,3.0,0.0
2849,79.0,0.0,1260.0,11.0,0.0
2850,67.0,0.0,390.0,11.0,0.0
2851,55.0,0.0,390.0,5.0,0.0
2852,59.0,0.0,150.0,12.0,0.0
2853,79.0,24.0,360.0,1.0,0.0
2854,79.0,0.0,360.0,0.0,0.0
2855,71.0,0.0,360.0,4.0,0.0
2856,67.0,0.0,360.0,4.0,0.0
2857,67.0,0.0,360.0,3.0,0.0
2858,59.0,0.0,390.0,11.0,0.0
2859,55.0,0.0,150.0,2.0,0.0
2860,59.0,0.0,150.0,13.0,0.0
2861,62.0,0.0,150.0,12.0,0.0
2862,47.0,0.0,150.0,14.0,0.0
2863,59.0,240.0,150.0,2.0,0.0
2864,55.0,0.0,150.0,13.0,0.0
2865,55.0,0.0,150.0,2.0,0.0
2866,86.0,0.0,360.0,0.0,0.0
2867,55.0,0.0,390.0,5.0,0.0
2868,43.0,0.0,150.0,14.0,0.0
2869,67.0,0.0,360.0,3.0,0.0
2870,83.0,0.0,360.0,1.0,0.0
2871,59.0,216.0,150.0,12.0,0.0
2872,67.0,0.0,360.0,4.0,0.0
2873,79.0,0.0,360.0,4.0,0.0
2874,55.0,0.0,360.0,3.0,0.0
2875,74.0,24.0,360.0,1.0,0.0
2876,62.0,0.0,150.0,12.0,0.0
2877,59.0,0.0,150.0,2.0,0.0
2878,47.0,0.0,150.0,14.0,0.0
2879,59.0,240.0,150.0,13.0,0.0
2880,59.0,0.0,150.0,12.0,0.0
2881,67.0,0.0,360.0,3.0,0.0
2882,55.0,0.0,360.0,3.0,0.0
2883,55.0,0.0,150.0,2.0,0.0
2884,74.0,0.0,360.0,1.0,0.0
2885,55.0,0.0,390.0,5.0,0.0
2886,67.0,0.0,360.0,4.0,0.0
2887,79.0,0.0,360.0,4.0,0.0
2888,43.0,0.0,150.0,14.0,0.0
2889,86.0,24.0,360.0,0.0,0.0
2890,83.0,0.0,360.0,1.0,0.0
2891,55.0,144.0,150.0,13.0,0.0
2892,47.0,0.0,150.0,14.0,0.0
2893,59.0,216.0,150.0,13.0,0.0
2894,59.0,0.0,150.0,2.0,0.0
2895,62.0,0.0,150.0,12.0,0.0
2896,67.0,0.0,1140.0,3.0,0.0
2897,55.0,0.0,1140.0,2.0,0.0
2898,86.0,120.0,120.0,11.0,0.0
2899,55.0,0.0,1140.0,13.0,0.0
2900,67.0,0.0,1140.0,4.0,0.0
2901,79.0,0.0,1140.0,4.0,0.0
2902,83.0,0.0,1140.0,1.0,0.0
2903,55.0,96.0,390.0,5.0,0.0
2904,43.0,0.0,1140.0,14.0,0.0
2905,59.0,0.0,1140.0,12.0,0.0
2906,86.0,0.0,1140.0,0.0,0.0
2907,55.0,0.0,1140.0,3.0,0.0
2908,86.0,0.0,120.0,10.0,0.0
2909,74.0,48.0,1140.0,1.0,0.0
2910,84.0,0.0,120.0,10.0,0.0
2911,84.0,120.0,120.0,11.0,0.0
2912,83.0,24.0,120.0,10.0,0.0
2913,83.0,0.0,120.0,11.0,0.0
2914,81.0,120.0,120.0,11.0,0.0
2915,81.0,0.0,120.0,10.0,0.0
2916,79.0,120.0,120.0,11.0,0.0
2917,79.0,0.0,120.0,10.0,0.0
2918,78.0,120.0,120.0,11.0,0.0
2919,78.0,0.0,120.0,10.0,0.0
2920,76.0,120.0,120.0,11.0,0.0
2921,76.0,0.0,120.0,10.0,0.0
2922,74.0,120.0,120.0,10.0,0.0
2923,74.0,0.0,120.0,11.0,0.0
2924,72.0,72.0,120.0,11.0,0.0
2925,72.0,0.0,120.0,10.0,0.0
2926,71.0,120.0,120.0,11.0,0.0
2927,71.0,0.0,120.0,10.0,0.0
2928,69.0,96.0,120.0,11.0,0.0
2929,69.0,0.0,120.0,10.0,0.0
2930,67.0,168.0,90.0,10.0,0.0
2931,67.0,0.0,90.0,11.0,0.0
2932,72.0,0.0,390.0,3.0,0.0
2933,75.0,0.0,1140.0,11.0,0.0
2934,66.0,0.0,1140.0,11.0,0.0
2935,87.0,0.0,390.0,0.0,0.0
2936,84.0,0.0,390.0,1.0,0.0
2937,75.0,0.0,390.0,1.0,0.0
2938,66.0,0.0,1140.0,10.0,0.0
2939,75.0,192.0,1140.0,10.0,0.0
2940,69.0,0.0,390.0,3.0,0.0
2941,57.0,0.0,150.0,13.0,0.0
2942,57.0,0.0,150.0,2.0,0.0
2943,45.0,0.0,150.0,14.0,0.0
2944,72.0,240.0,150.0,12.0,0.0
2945,84.0,0.0,390.0,4.0,0.0
2946,81.0,0.0,390.0,4.0,0.0
2947,60.0,0.0,150.0,2.0,0.0
2948,60.0,0.0,150.0,13.0,0.0
2949,48.0,0.0,150.0,14.0,0.0
2950,69.0,240.0,150.0,12.0,0.0
2951,87.0,0.0,390.0,0.0,0.0
2952,57.0,240.0,150.0,2.0,0.0
2953,75.0,240.0,390.0,1.0,0.0
2954,57.0,0.0,150.0,13.0,0.0
2955,45.0,0.0,150.0,14.0,0.0
2956,72.0,0.0,390.0,3.0,0.0
2957,72.0,0.0,150.0,12.0,0.0
2958,84.0,0.0,390.0,1.0,0.0
2959,69.0,0.0,390.0,3.0,0.0
2960,81.0,0.0,390.0,4.0,0.0
2961,84.0,0.0,390.0,4.0,0.0
2962,48.0,0.0,150.0,14.0,0.0
2963,69.0,0.0,150.0,12.0,0.0
2964,60.0,0.0,150.0,13.0,0.0
2965,60.0,0.0,150.0,2.0,0.0
2966,57.0,48.0,150.0,2.0,0.0
2967,72.0,0.0,150.0,12.0,0.0
2968,84.0,0.0,390.0,1.0,0.0
2969,69.0,0.0,390.0,3.0,0.0
2970,72.0,0.0,390.0,3.0,0.0
2971,57.0,0.0,150.0,13.0,0.0
2972,84.0,0.0,390.0,4.0,0.0
2973,81.0,0.0,390.0,4.0,0.0
2974,45.0,0.0,150.0,14.0,0.0
2975,75.0,0.0,390.0,1.0,0.0
2976,87.0,0.0,390.0,0.0,0.0
2977,48.0,216.0,150.0,14.0,0.0
2978,60.0,0.0,150.0,13.0,0.0
2979,69.0,0.0,150.0,12.0,0.0
2980,60.0,0.0,150.0,2.0,0.0
2981,45.0,48.0,1140.0,14.0,0.0
2982,87.0,0.0,1140.0,0.0,0.0
2983,75.0,0.0,1140.0,12.0,0.0
2984,75.0,0.0,1140.0,1.0,0.0
2985,84.0,0.0,120.0,10.0,0.0
2986,84.0,0.0,1140.0,1.0,0.0
2987,57.0,0.0,1140.0,13.0,0.0
2988,57.0,0.0,1140.0,2.0,0.0
2989,84.0,120.0,120.0,11.0,0.0
2990,81.0,0.0,1140.0,4.0,0.0
2991,84.0,0.0,1140.0,4.0,0.0
2992,72.0,0.0,1140.0,3.0,0.0
2993,69.0,0.0,1140.0,3.0,0.0
2994,83.0,0.0,120.0,10.0,0.0
2995,83.0,120.0,120.0,11.0,0.0
2996,81.0,0.0,120.0,10.0,0.0
2997,81.0,120.0,120.0,11.0,0.0
2998,79.0,120.0,120.0,10.0,0.0
2999,79.0,0.0,120.0,11.0,0.0
3000,78.0,120.0,120.0,10.0,0.0
3001,78.0,0.0,120.0,11.0,0.0
3002,76.0,0.0,120.0,10.0,0.0
3003,76.0,120.0,120.0,11.0,0.0
3004,75.0,120.0,120.0,11.0,0.0
3005,75.0,0.0,120.0,10.0,0.0
3006,72.0,0.0,120.0,10.0,0.0
3007,72.0,120.0,120.0,11.0,0.0
3008,71.0,0.0,120.0,11.0,0.0
3009,71.0,72.0,120.0,10.0,0.0
3010,69.0,0.0,120.0,10.0,0.0
3011,69.0,120.0,120.0,11.0,0.0
3012,67.0,0.0,120.0,10.0,0.0
3013,67.0,96.0,120.0,11.0,0.0
3014,66.0,168.0,90.0,10.0,0.0
3015,66.0,0.0,90.0,11.0,0.0
3016,76.0,0.0,1140.0,10.0,0.0
3017,67.0,0.0,1140.0,11.0,0.0
3018,83.0,0.0,390.0,4.0,0.0
3019,76.0,0.0,1140.0,11.0,0.0
3020,79.0,0.0,390.0,4.0,0.0
3021,55.0,240.0,150.0,2.0,0.0
3022,55.0,0.0,150.0,13.0,0.0
3023,88.0,240.0,390.0,0.0,0.0
3024,76.0,0.0,390.0,1.0,0.0
3025,71.0,0.0,150.0,12.0,0.0
3026,71.0,0.0,390.0,3.0,0.0
3027,83.0,0.0,390.0,1.0,0.0
3028,43.0,0.0,150.0,14.0,0.0
3029,67.0,192.0,1140.0,10.0,0.0
3030,55.0,0.0,390.0,5.0,0.0
3031,67.0,0.0,390.0,3.0,0.0
3032,67.0,0.0,150.0,12.0,0.0
3033,47.0,0.0,150.0,14.0,0.0
3034,59.0,0.0,150.0,2.0,0.0
3035,59.0,0.0,150.0,13.0,0.0
3036,55.0,0.0,390.0,5.0,0.0
3037,71.0,0.0,150.0,12.0,0.0
3038,83.0,0.0,390.0,1.0,0.0
3039,71.0,0.0,390.0,3.0,0.0
3040,55.0,0.0,150.0,2.0,0.0
3041,88.0,0.0,390.0,0.0,0.0
3042,67.0,0.0,390.0,3.0,0.0
3043,79.0,0.0,390.0,4.0,0.0
3044,83.0,0.0,390.0,4.0,0.0
3045,43.0,0.0,150.0,14.0,0.0
3046,55.0,240.0,150.0,13.0,0.0
3047,76.0,240.0,390.0,1.0,0.0
3048,59.0,0.0,150.0,2.0,0.0
3049,59.0,0.0,150.0,13.0,0.0
3050,67.0,0.0,150.0,12.0,0.0
3051,47.0,0.0,150.0,14.0,0.0
3052,76.0,0.0,390.0,1.0,0.0
3053,83.0,0.0,390.0,1.0,0.0
3054,71.0,0.0,150.0,12.0,0.0
3055,83.0,0.0,390.0,4.0,0.0
3056,67.0,0.0,390.0,3.0,0.0
3057,71.0,0.0,390.0,3.0,0.0
3058,55.0,0.0,150.0,2.0,0.0
3059,43.0,0.0,150.0,14.0,0.0
3060,55.0,48.0,150.0,13.0,0.0
3061,55.0,0.0,390.0,5.0,0.0
3062,79.0,0.0,390.0,4.0,0.0
3063,88.0,216.0,390.0,0.0,0.0
3064,59.0,0.0,150.0,13.0,0.0
3065,47.0,0.0,150.0,14.0,0.0
3066,59.0,0.0,150.0,2.0,0.0
3067,67.0,0.0,150.0,12.0,0.0
3068,55.0,96.0,390.0,5.0,0.0
3069,55.0,0.0,1140.0,2.0,0.0
3070,43.0,0.0,1140.0,14.0,0.0
3071,67.0,0.0,1140.0,3.0,0.0
3072,71.0,0.0,1140.0,3.0,0.0
3073,76.0,0.0,1140.0,12.0,0.0
3074,88.0,0.0,1140.0,0.0,0.0
3075,83.0,120.0,120.0,11.0,0.0
3076,55.0,48.0,1140.0,13.0,0.0
3077,76.0,0.0,1140.0,1.0,0.0
3078,83.0,0.0,1140.0,1.0,0.0
3079,83.0,0.0,120.0,10.0,0.0
3080,79.0,0.0,1140.0,4.0,0.0
3081,83.0,0.0,1140.0,4.0,0.0
3082,81.0,0.0,120.0,10.0,0.0
3083,81.0,120.0,120.0,11.0,0.0
3084,79.0,0.0,120.0,10.0,0.0
3085,79.0,24.0,120.0,11.0,0.0
3086,78.0,0.0,120.0,10.0,0.0
3087,78.0,120.0,120.0,11.0,0.0
3088,76.0,0.0,120.0,10.0,0.0
3089,76.0,120.0,120.0,11.0,0.0
3090,74.0,120.0,120.0,11.0,0.0
3091,74.0,0.0,120.0,10.0,0.0
3092,72.0,0.0,120.0,11.0,0.0
3093,72.0,120.0,120.0,10.0,0.0
3094,71.0,0.0,120.0,10.0,0.0
3095,71.0,120.0,120.0,11.0,0.0
3096,69.0,0.0,120.0,10.0,0.0
3097,69.0,72.0,120.0,11.0,0.0
3098,67.0,0.0,120.0,10.0,0.0
3099,67.0,120.0,120.0,11.0,0.0
3100,66.0,96.0,120.0,10.0,0.0
3101,66.0,0.0,120.0,11.0,0.0
3102,64.0,0.0,90.0,11.0,0.0
3103,64.0,168.0,90.0,10.0,0.0
3104,73.0,0.0,1140.0,10.0,0.0
3105,69.0,0.0,1140.0,10.0,0.0
3106,55.0,0.0,150.0,13.0,0.0
3107,69.0,0.0,390.0,3.0,0.0
3108,55.0,240.0,150.0,2.0,0.0
3109,43.0,0.0,150.0,14.0,0.0
3110,81.0,240.0,390.0,4.0,0.0
3111,79.0,0.0,390.0,4.0,0.0
3112,85.0,0.0,390.0,0.0,0.0
3113,67.0,0.0,390.0,3.0,0.0
3114,73.0,192.0,1140.0,11.0,0.0
3115,55.0,0.0,390.0,5.0,0.0
3116,69.0,0.0,1140.0,11.0,0.0
3117,76.0,0.0,390.0,1.0,0.0
3118,73.0,0.0,390.0,1.0,0.0
3119,64.0,0.0,150.0,12.0,0.0
3120,45.0,0.0,150.0,14.0,0.0
3121,61.0,0.0,150.0,12.0,0.0
3122,57.0,0.0,150.0,13.0,0.0
3123,57.0,0.0,150.0,2.0,0.0
3124,79.0,0.0,390.0,4.0,0.0
3125,76.0,0.0,390.0,1.0,0.0
3126,81.0,0.0,390.0,4.0,0.0
3127,85.0,0.0,390.0,0.0,0.0
3128,55.0,0.0,390.0,5.0,0.0
3129,43.0,240.0,150.0,14.0,0.0
3130,73.0,0.0,390.0,1.0,0.0
3131,55.0,0.0,150.0,2.0,0.0
3132,69.0,0.0,390.0,3.0,0.0
3133,64.0,0.0,150.0,12.0,0.0
3134,55.0,0.0,150.0,13.0,0.0
3135,67.0,240.0,390.0,3.0,0.0
3136,61.0,0.0,150.0,12.0,0.0
3137,57.0,0.0,150.0,2.0,0.0
3138,45.0,0.0,150.0,14.0,0.0
3139,57.0,0.0,150.0,13.0,0.0
3140,55.0,0.0,150.0,2.0,0.0
3141,55.0,0.0,150.0,13.0,0.0
3142,76.0,0.0,390.0,1.0,0.0
3143,73.0,216.0,390.0,1.0,0.0
3144,43.0,48.0,150.0,14.0,0.0
3145,67.0,0.0,390.0,3.0,0.0
3146,55.0,0.0,390.0,5.0,0.0
3147,81.0,0.0,390.0,4.0,0.0
3148,79.0,0.0,390.0,4.0,0.0
3149,69.0,0.0,390.0,3.0,0.0
3150,85.0,0.0,390.0,0.0,0.0
3151,64.0,0.0,150.0,12.0,0.0
3152,61.0,0.0,150.0,12.0,0.0
3153,57.0,0.0,150.0,2.0,0.0
3154,57.0,0.0,150.0,13.0,0.0
3155,45.0,0.0,150.0,14.0,0.0
3156,73.0,0.0,1140.0,12.0,0.0
3157,55.0,96.0,390.0,5.0,0.0
3158,88.0,120.0,120.0,11.0,0.0
3159,79.0,0.0,1140.0,4.0,0.0
3160,81.0,0.0,1140.0,4.0,0.0
3161,69.0,48.0,1140.0,3.0,0.0
3162,88.0,0.0,120.0,10.0,0.0
3163,76.0,0.0,1140.0,1.0,0.0
3164,73.0,0.0,1140.0,1.0,0.0
3165,52.0,0.0,1140.0,2.0,0.0
3166,40.0,0.0,1140.0,14.0,0.0
3167,52.0,0.0,1140.0,13.0,0.0
3168,67.0,0.0,1140.0,3.0,0.0
3169,85.0,0.0,1140.0,0.0,0.0
3170,86.0,120.0,120.0,10.0,0.0
3171,86.0,0.0,120.0,11.0,0.0
3172,85.0,0.0,120.0,11.0,0.0
3173,85.0,24.0,120.0,10.0,0.0
3174,83.0,0.0,120.0,10.0,0.0
3175,83.0,120.0,120.0,11.0,0.0
3176,81.0,0.0,120.0,10.0,0.0
3177,81.0,120.0,120.0,11.0,0.0
3178,79.0,120.0,120.0,10.0,0.0
3179,79.0,0.0,120.0,11.0,0.0
3180,78.0,120.0,120.0,10.0,0.0
3181,78.0,0.0,120.0,11.0,0.0
3182,76.0,0.0,120.0,11.0,0.0
3183,76.0,120.0,120.0,10.0,0.0
3184,74.0,0.0,120.0,11.0,0.0
3185,74.0,72.0,120.0,10.0,0.0
3186,73.0,0.0,120.0,11.0,0.0
3187,73.0,120.0,120.0,10.0,0.0
3188,71.0,0.0,120.0,11.0,0.0
3189,71.0,96.0,120.0,10.0,0.0
3190,69.0,0.0,90.0,10.0,0.0
3191,69.0,168.0,90.0,11.0,0.0
3192,54.0,240.0,150.0,13.0,0.0
3193,74.0,0.0,390.0,1.0,0.0
3194,78.0,0.0,390.0,1.0,0.0
3195,74.0,0.0,1140.0,11.0,0.0
3196,66.0,192.0,1140.0,11.0,0.0
3197,62.0,0.0,390.0,3.0,0.0
3198,69.0,0.0,390.0,3.0,0.0
3199,42.0,0.0,150.0,14.0,0.0
3200,66.0,0.0,1140.0,10.0,0.0
3201,74.0,0.0,1140.0,10.0,0.0
3202,81.0,240.0,390.0,4.0,0.0
3203,50.0,0.0,390.0,5.0,0.0
3204,54.0,0.0,150.0,2.0,0.0
3205,86.0,0.0,390.0,0.0,0.0
3206,69.0,0.0,150.0,12.0,0.0
3207,74.0,0.0,390.0,4.0,0.0
3208,66.0,0.0,150.0,12.0,0.0
3209,45.0,0.0,150.0,14.0,0.0
3210,57.0,0.0,150.0,13.0,0.0
3211,57.0,0.0,150.0,2.0,0.0
3212,78.0,0.0,390.0,1.0,0.0
3213,74.0,0.0,390.0,1.0,0.0
3214,50.0,240.0,390.0,5.0,0.0
3215,54.0,0.0,150.0,2.0,0.0
3216,54.0,240.0,150.0,13.0,0.0
3217,74.0,0.0,390.0,4.0,0.0
3218,86.0,0.0,390.0,0.0,0.0
3219,69.0,0.0,390.0,3.0,0.0
3220,62.0,0.0,390.0,3.0,0.0
3221,42.0,0.0,150.0,14.0,0.0
3222,69.0,0.0,150.0,12.0,0.0
3223,81.0,0.0,390.0,4.0,0.0
3224,57.0,0.0,150.0,13.0,0.0
3225,57.0,0.0,150.0,2.0,0.0
3226,66.0,0.0,150.0,12.0,0.0
3227,45.0,0.0,150.0,14.0,0.0
3228,78.0,0.0,390.0,1.0,0.0
3229,54.0,0.0,150.0,2.0,0.0
3230,69.0,0.0,390.0,3.0,0.0
3231,62.0,0.0,390.0,3.0,0.0
3232,42.0,0.0,150.0,14.0,0.0
3233,74.0,0.0,390.0,1.0,0.0
3234,74.0,0.0,390.0,4.0,0.0
3235,81.0,0.0,390.0,4.0,0.0
3236,54.0,0.0,150.0,13.0,0.0
3237,50.0,0.0,390.0,5.0,0.0
3238,86.0,0.0,390.0,0.0,0.0
3239,69.0,48.0,150.0,12.0,0.0
3240,66.0,216.0,150.0,12.0,0.0
3241,57.0,0.0,150.0,2.0,0.0
3242,45.0,0.0,150.0,14.0,0.0
3243,57.0,0.0,150.0,13.0,0.0
3244,90.0,120.0,120.0,11.0,0.0
3245,90.0,0.0,120.0,10.0,0.0
3246,62.0,0.0,1140.0,3.0,0.0
3247,54.0,0.0,1140.0,13.0,0.0
3248,42.0,0.0,1140.0,14.0,0.0
3249,81.0,0.0,1140.0,4.0,0.0
3250,74.0,0.0,1140.0,4.0,0.0
3251,54.0,0.0,1140.0,2.0,0.0
3252,69.0,48.0,1140.0,3.0,0.0
3253,78.0,0.0,1140.0,1.0,0.0
3254,74.0,0.0,1140.0,1.0,0.0
3255,74.0,0.0,1140.0,12.0,0.0
3256,86.0,0.0,1140.0,0.0,0.0
3257,50.0,96.0,390.0,5.0,0.0
3258,88.0,0.0,120.0,11.0,0.0
3259,88.0,120.0,120.0,10.0,0.0
3260,86.0,24.0,120.0,11.0,0.0
3261,86.0,0.0,120.0,10.0,0.0
3262,85.0,0.0,120.0,10.0,0.0
3263,85.0,120.0,120.0,11.0,0.0
3264,86.0,120.0,120.0,11.0,0.0
3265,86.0,0.0,120.0,10.0,0.0
3266,85.0,120.0,120.0,11.0,0.0
3267,85.0,0.0,120.0,10.0,0.0
3268,83.0,0.0,120.0,11.0,0.0
3269,83.0,120.0,120.0,10.0,0.0
3270,81.0,0.0,120.0,11.0,0.0
3271,81.0,120.0,120.0,10.0,0.0
3272,79.0,72.0,120.0,10.0,0.0
3273,79.0,0.0,120.0,11.0,0.0
3274,78.0,120.0,120.0,10.0,0.0
3275,78.0,0.0,120.0,11.0,0.0
3276,76.0,0.0,120.0,11.0,0.0
3277,76.0,96.0,120.0,10.0,0.0
3278,74.0,168.0,90.0,10.0,0.0
3279,74.0,0.0,90.0,11.0,0.0
3280,71.0,0.0,390.0,4.0,0.0
3281,74.0,0.0,390.0,4.0,0.0
3282,59.0,0.0,390.0,3.0,0.0
3283,80.0,0.0,1140.0,11.0,0.0
3284,80.0,240.0,390.0,1.0,0.0
3285,74.0,0.0,1140.0,11.0,0.0
3286,62.0,0.0,390.0,3.0,0.0
3287,47.0,0.0,150.0,14.0,0.0
3288,86.0,0.0,390.0,1.0,0.0
3289,74.0,0.0,150.0,12.0,0.0
3290,59.0,0.0,150.0,2.0,0.0
3291,80.0,0.0,1140.0,10.0,0.0
3292,74.0,192.0,1140.0,10.0,0.0
3293,59.0,240.0,150.0,13.0,0.0
3294,92.0,0.0,390.0,0.0,0.0
3295,50.0,0.0,390.0,5.0,0.0
3296,62.0,0.0,150.0,2.0,0.0
3297,50.0,0.0,150.0,14.0,0.0
3298,71.0,0.0,150.0,12.0,0.0
3299,62.0,0.0,150.0,13.0,0.0
3300,62.0,0.0,390.0,3.0,0.0
3301,59.0,0.0,390.0,3.0,0.0
3302,74.0,240.0,150.0,12.0,0.0
3303,47.0,0.0,150.0,14.0,0.0
3304,50.0,0.0,390.0,5.0,0.0
3305,86.0,0.0,390.0,1.0,0.0
3306,80.0,0.0,390.0,1.0,0.0
3307,92.0,0.0,390.0,0.0,0.0
3308,71.0,0.0,390.0,4.0,0.0
3309,74.0,240.0,390.0,4.0,0.0
3310,59.0,0.0,150.0,2.0,0.0
3311,59.0,0.0,150.0,13.0,0.0
3312,50.0,0.0,150.0,14.0,0.0
3313,62.0,0.0,150.0,2.0,0.0
3314,71.0,0.0,150.0,12.0,0.0
3315,62.0,0.0,150.0,13.0,0.0
3316,59.0,0.0,150.0,2.0,0.0
3317,86.0,0.0,390.0,1.0,0.0
3318,71.0,0.0,390.0,4.0,0.0
3319,74.0,0.0,150.0,12.0,0.0
3320,80.0,0.0,390.0,1.0,0.0
3321,47.0,48.0,150.0,14.0,0.0
3322,59.0,0.0,150.0,13.0,0.0
3323,92.0,0.0,390.0,0.0,0.0
3324,59.0,0.0,390.0,3.0,0.0
3325,62.0,0.0,390.0,3.0,0.0
3326,50.0,0.0,390.0,5.0,0.0
3327,74.0,0.0,390.0,4.0,0.0
3328,50.0,216.0,150.0,14.0,0.0
3329,62.0,0.0,150.0,2.0,0.0
3330,62.0,0.0,150.0,13.0,0.0
3331,71.0,0.0,150.0,12.0,0.0
3332,59.0,0.0,1140.0,2.0,0.0
3333,80.0,0.0,1140.0,1.0,0.0
3334,50.0,96.0,390.0,5.0,0.0
3335,68.0,120.0,960.0,12.0,0.0
3336,86.0,120.0,120.0,10.0,0.0
3337,92.0,0.0,1140.0,0.0,0.0
3338,59.0,0.0,1140.0,13.0,0.0
3339,86.0,0.0,1140.0,1.0,0.0
3340,62.0,0.0,1140.0,3.0,0.0
3341,71.0,0.0,1140.0,4.0,0.0
3342,74.0,48.0,1140.0,4.0,0.0
3343,59.0,0.0,1140.0,3.0,0.0
3344,47.0,0.0,1140.0,14.0,0.0
3345,86.0,0.0,120.0,11.0,0.0
3346,85.0,0.0,120.0,11.0,0.0
3347,85.0,120.0,120.0,10.0,0.0
3348,83.0,0.0,120.0,10.0,0.0
3349,83.0,24.0,120.0,11.0,0.0
3350,81.0,120.0,120.0,10.0,0.0
3351,81.0,0.0,120.0,11.0,0.0
3352,80.0,0.0,120.0,11.0,0.0
3353,80.0,120.0,120.0,10.0,0.0
3354,78.0,120.0,120.0,11.0,0.0
3355,78.0,0.0,120.0,10.0,0.0
3356,76.0,0.0,120.0,10.0,0.0
3357,76.0,120.0,120.0,11.0,0.0
3358,74.0,0.0,120.0,11.0,0.0
3359,74.0,0.0,120.0,10.0,0.0
3360,73.0,72.0,120.0,10.0,0.0
3361,73.0,0.0,120.0,11.0,0.0
3362,62.0,72.0,390.0,12.0,0.0
3363,71.0,0.0,120.0,10.0,0.0
3364,71.0,120.0,120.0,11.0,0.0
3365,69.0,24.0,120.0,10.0,0.0
3366,69.0,0.0,120.0,11.0,0.0
3367,68.0,120.0,90.0,10.0,0.0
3368,68.0,0.0,90.0,11.0,0.0
3369,69.0,0.0,90.0,10.0,0.0
3370,45.0,0.0,180.0,14.0,0.0
3371,61.0,0.0,180.0,12.0,0.0
3372,81.0,48.0,390.0,4.0,0.0
3373,69.0,96.0,90.0,11.0,0.0
3374,81.0,0.0,1140.0,1.0,0.0
3375,85.0,0.0,1140.0,1.0,0.0
3376,93.0,0.0,1140.0,0.0,0.0
3377,57.0,0.0,180.0,13.0,0.0
3378,57.0,24.0,180.0,2.0,0.0
3379,69.0,72.0,1080.0,3.0,0.0
3380,69.0,120.0,90.0,11.0,0.0
3381,69.0,0.0,90.0,10.0,0.0
3382,57.0,0.0,180.0,2.0,0.0
3383,73.0,48.0,90.0,10.0,0.0
3384,45.0,24.0,180.0,14.0,0.0
3385,64.0,0.0,180.0,12.0,0.0
3386,57.0,0.0,180.0,13.0,0.0
3387,73.0,0.0,90.0,11.0,0.0
3388,73.0,0.0,90.0,10.0,0.0
3389,73.0,120.0,90.0,11.0,0.0
3390,76.0,96.0,90.0,10.0,0.0
3391,76.0,0.0,90.0,11.0,0.0
3392,57.0,0.0,180.0,2.0,0.0
3393,64.0,24.0,180.0,12.0,0.0
3394,57.0,0.0,180.0,13.0,0.0
3395,45.0,0.0,180.0,14.0,0.0
3396,76.0,120.0,90.0,10.0,0.0
3397,76.0,0.0,90.0,11.0,0.0
3398,81.0,96.0,90.0,11.0,0.0
3399,57.0,0.0,180.0,2.0,0.0
3400,81.0,0.0,90.0,10.0,0.0
3401,45.0,0.0,180.0,14.0,0.0
3402,57.0,0.0,180.0,13.0,0.0
3403,64.0,24.0,180.0,12.0,0.0
3404,81.0,0.0,90.0,10.0,0.0
3405,81.0,120.0,90.0,11.0,0.0
3406,45.0,24.0,180.0,14.0,0.0
3407,57.0,0.0,180.0,2.0,0.0
3408,85.0,0.0,90.0,11.0,0.0
3409,64.0,0.0,180.0,12.0,0.0
3410,57.0,0.0,180.0,13.0,0.0
3411,85.0,24.0,90.0,10.0,0.0
3412,85.0,120.0,90.0,11.0,0.0
3413,85.0,0.0,90.0,10.0,0.0
3414,57.0,24.0,180.0,2.0,0.0
3415,57.0,0.0,180.0,13.0,0.0
3416,81.0,96.0,90.0,10.0,0.0
3417,81.0,0.0,90.0,11.0,0.0
3418,45.0,0.0,180.0,14.0,0.0
3419,64.0,0.0,180.0,12.0,0.0
3420,81.0,0.0,90.0,11.0,0.0
3421,81.0,120.0,90.0,10.0,0.0
3422,92.0,0.0,1140.0,0.0,0.0
3423,86.0,0.0,1140.0,1.0,0.0
3424,80.0,0.0,1140.0,1.0,0.0
3425,57.0,0.0,180.0,13.0,0.0
3426,57.0,24.0,180.0,2.0,0.0
3427,71.0,0.0,180.0,12.0,0.0
3428,69.0,72.0,1080.0,3.0,0.0
3429,80.0,96.0,90.0,10.0,0.0
3430,80.0,0.0,90.0,11.0,0.0
3431,45.0,0.0,180.0,14.0,0.0
3432,80.0,120.0,90.0,11.0,0.0
3433,80.0,0.0,90.0,10.0,0.0
3434,86.0,0.0,90.0,11.0,0.0
3435,57.0,0.0,180.0,2.0,0.0
3436,71.0,24.0,180.0,12.0,0.0
3437,57.0,0.0,180.0,13.0,0.0
3438,86.0,96.0,90.0,10.0,0.0
3439,45.0,0.0,180.0,14.0,0.0
3440,86.0,0.0,90.0,11.0,0.0
3441,86.0,120.0,90.0,10.0,0.0
3442,57.0,0.0,180.0,2.0,0.0
3443,57.0,24.0,180.0,13.0,0.0
3444,83.0,96.0,90.0,10.0,0.0
3445,45.0,0.0,180.0,14.0,0.0
3446,83.0,0.0,90.0,11.0,0.0
3447,71.0,0.0,180.0,12.0,0.0
3448,83.0,120.0,90.0,11.0,0.0
3449,83.0,0.0,90.0,10.0,0.0
3450,80.0,96.0,90.0,11.0,0.0
3451,80.0,0.0,90.0,10.0,0.0
3452,57.0,0.0,180.0,13.0,0.0
3453,45.0,0.0,180.0,14.0,0.0
3454,57.0,0.0,180.0,2.0,0.0
3455,71.0,24.0,180.0,12.0,0.0
3456,80.0,0.0,90.0,10.0,0.0
3457,80.0,120.0,90.0,11.0,0.0
3458,71.0,0.0,180.0,12.0,0.0
3459,76.0,0.0,90.0,10.0,0.0
3460,57.0,24.0,180.0,13.0,0.0
3461,57.0,0.0,180.0,2.0,0.0
3462,76.0,24.0,90.0,11.0,0.0
3463,45.0,0.0,180.0,14.0,0.0
3464,76.0,0.0,90.0,11.0,0.0
3465,76.0,120.0,90.0,10.0,0.0
3466,71.0,0.0,180.0,12.0,0.0
3467,45.0,0.0,180.0,14.0,0.0
3468,57.0,0.0,180.0,2.0,0.0
3469,57.0,24.0,180.0,13.0,0.0
3470,74.0,0.0,90.0,11.0,0.0
3471,74.0,96.0,90.0,10.0,0.0
3472,74.0,120.0,90.0,11.0,0.0
3473,74.0,0.0,90.0,10.0,0.0
3474,73.0,96.0,90.0,10.0,0.0
3475,81.0,48.0,390.0,4.0,0.0
3476,45.0,0.0,180.0,14.0,0.0
3477,57.0,24.0,180.0,13.0,0.0
3478,81.0,0.0,1140.0,1.0,0.0
3479,69.0,72.0,1080.0,3.0,0.0
3480,64.0,0.0,180.0,12.0,0.0
3481,73.0,0.0,90.0,11.0,0.0
3482,93.0,0.0,1140.0,0.0,0.0
3483,85.0,0.0,1140.0,1.0,0.0
3484,57.0,0.0,180.0,2.0,0.0
3485,73.0,120.0,90.0,11.0,0.0
3486,73.0,0.0,90.0,10.0,0.0
3487,57.0,0.0,180.0,2.0,0.0
3488,76.0,0.0,90.0,11.0,0.0
3489,45.0,0.0,180.0,14.0,0.0
3490,64.0,24.0,180.0,12.0,0.0
3491,76.0,48.0,90.0,10.0,0.0
3492,57.0,0.0,180.0,13.0,0.0
3493,76.0,120.0,90.0,10.0,0.0
3494,76.0,0.0,90.0,11.0,0.0
3495,57.0,0.0,180.0,13.0,0.0
3496,57.0,0.0,180.0,2.0,0.0
3497,64.0,0.0,180.0,12.0,0.0
3498,81.0,0.0,90.0,11.0,0.0
3499,81.0,96.0,90.0,10.0,0.0
3500,45.0,24.0,180.0,14.0,0.0
3501,81.0,0.0,90.0,10.0,0.0
3502,81.0,120.0,90.0,11.0,0.0
3503,76.0,96.0,90.0,11.0,0.0
3504,45.0,0.0,180.0,14.0,0.0
3505,76.0,0.0,90.0,10.0,0.0
3506,57.0,0.0,180.0,13.0,0.0
3507,64.0,0.0,180.0,12.0,0.0
3508,57.0,24.0,180.0,2.0,0.0
3509,76.0,120.0,90.0,11.0,0.0
3510,76.0,0.0,90.0,10.0,0.0
3511,45.0,0.0,180.0,14.0,0.0
3512,64.0,0.0,180.0,12.0,0.0
3513,85.0,0.0,90.0,10.0,0.0
3514,85.0,24.0,90.0,11.0,0.0
3515,57.0,0.0,180.0,13.0,0.0
3516,57.0,24.0,180.0,2.0,0.0
3517,85.0,120.0,90.0,10.0,0.0
3518,85.0,0.0,90.0,11.0,0.0
3519,81.0,96.0,90.0,11.0,0.0
3520,57.0,0.0,180.0,13.0,0.0
3521,81.0,0.0,90.0,10.0,0.0
3522,64.0,0.0,180.0,12.0,0.0
3523,45.0,24.0,180.0,14.0,0.0
3524,57.0,0.0,180.0,2.0,0.0
3525,81.0,0.0,90.0,11.0,0.0
3526,81.0,120.0,90.0,10.0,0.0
3527,71.0,0.0,180.0,12.0,0.0
3528,69.0,72.0,1080.0,3.0,0.0
3529,80.0,0.0,1140.0,1.0,0.0
3530,80.0,96.0,90.0,10.0,0.0
3531,80.0,0.0,90.0,11.0,0.0
3532,57.0,0.0,180.0,13.0,0.0
3533,92.0,0.0,1140.0,0.0,0.0
3534,86.0,0.0,1140.0,1.0,0.0
3535,45.0,0.0,180.0,14.0,0.0
3536,57.0,24.0,180.0,2.0,0.0
3537,80.0,120.0,90.0,11.0,0.0
3538,80.0,0.0,90.0,10.0,0.0
3539,86.0,0.0,90.0,11.0,0.0
3540,45.0,0.0,180.0,14.0,0.0
3541,86.0,96.0,90.0,10.0,0.0
3542,71.0,0.0,180.0,12.0,0.0
3543,57.0,0.0,180.0,2.0,0.0
3544,57.0,24.0,180.0,13.0,0.0
3545,86.0,120.0,90.0,11.0,0.0
3546,86.0,0.0,90.0,10.0,0.0
3547,57.0,24.0,180.0,13.0,0.0
3548,83.0,96.0,90.0,10.0,0.0
3549,45.0,0.0,180.0,14.0,0.0
3550,71.0,0.0,180.0,12.0,0.0
3551,83.0,0.0,90.0,11.0,0.0
3552,57.0,0.0,180.0,2.0,0.0
3553,83.0,120.0,90.0,11.0,0.0
3554,83.0,0.0,90.0,10.0,0.0
3555,80.0,0.0,90.0,10.0,0.0
3556,57.0,0.0,180.0,2.0,0.0
3557,71.0,0.0,180.0,12.0,0.0
3558,45.0,24.0,180.0,14.0,0.0
3559,57.0,0.0,180.0,13.0,0.0
3560,80.0,96.0,90.0,11.0,0.0
3561,80.0,120.0,90.0,10.0,0.0
3562,80.0,0.0,90.0,11.0,0.0
3563,57.0,24.0,180.0,13.0,0.0
3564,76.0,24.0,90.0,11.0,0.0
3565,57.0,0.0,180.0,2.0,0.0
3566,76.0,0.0,90.0,10.0,0.0
3567,45.0,0.0,180.0,14.0,0.0
3568,71.0,0.0,180.0,12.0,0.0
3569,76.0,0.0,90.0,11.0,0.0
3570,76.0,120.0,90.0,10.0,0.0
3571,45.0,0.0,180.0,14.0,0.0
3572,57.0,0.0,180.0,2.0,0.0
3573,74.0,0.0,90.0,11.0,0.0
3574,71.0,24.0,180.0,12.0,0.0
3575,74.0,96.0,90.0,10.0,0.0
3576,57.0,0.0,180.0,13.0,0.0
3577,74.0,0.0,90.0,10.0,0.0
3578,74.0,120.0,90.0,11.0,0.0
3579,57.0,0.0,180.0,13.0,0.0
3580,73.0,96.0,90.0,10.0,0.0
3581,64.0,0.0,180.0,12.0,0.0
3582,93.0,0.0,180.0,0.0,0.0
3583,57.0,24.0,180.0,2.0,0.0
3584,45.0,0.0,180.0,14.0,0.0
3585,69.0,48.0,300.0,3.0,0.0
3586,81.0,0.0,300.0,4.0,0.0
3587,81.0,0.0,180.0,1.0,0.0
3588,85.0,0.0,180.0,1.0,0.0
3589,73.0,0.0,90.0,11.0,0.0
3590,73.0,72.0,90.0,10.0,0.0
3591,73.0,0.0,90.0,11.0,0.0
3592,69.0,0.0,90.0,11.0,0.0
3593,57.0,24.0,180.0,12.0,0.0
3594,45.0,0.0,180.0,14.0,0.0
3595,69.0,0.0,180.0,1.0,0.0
3596,81.0,0.0,180.0,0.0,0.0
3597,57.0,0.0,180.0,2.0,0.0
3598,69.0,96.0,90.0,10.0,0.0
3599,57.0,0.0,180.0,13.0,0.0
3600,69.0,120.0,90.0,10.0,0.0
3601,69.0,0.0,90.0,11.0,0.0
3602,59.0,0.0,180.0,12.0,0.0
3603,59.0,0.0,180.0,13.0,0.0
3604,59.0,0.0,180.0,2.0,0.0
3605,71.0,0.0,180.0,1.0,0.0
3606,71.0,96.0,90.0,10.0,0.0
3607,71.0,0.0,90.0,11.0,0.0
3608,47.0,0.0,180.0,14.0,0.0
3609,83.0,24.0,180.0,0.0,0.0
3610,71.0,0.0,90.0,10.0,0.0
3611,71.0,120.0,90.0,11.0,0.0
3612,73.0,96.0,90.0,10.0,0.0
3613,61.0,0.0,180.0,12.0,0.0
3614,73.0,0.0,90.0,11.0,0.0
3615,61.0,0.0,180.0,13.0,0.0
3616,61.0,0.0,180.0,2.0,0.0
3617,73.0,24.0,180.0,1.0,0.0
3618,49.0,0.0,180.0,14.0,0.0
3619,85.0,0.0,180.0,0.0,0.0
3620,73.0,0.0,90.0,10.0,0.0
3621,73.0,120.0,90.0,11.0,0.0
3622,62.0,0.0,180.0,13.0,0.0
3623,74.0,0.0,180.0,1.0,0.0
3624,62.0,24.0,180.0,2.0,0.0
3625,74.0,0.0,90.0,10.0,0.0
3626,62.0,0.0,180.0,12.0,0.0
3627,74.0,96.0,90.0,11.0,0.0
3628,86.0,0.0,180.0,0.0,0.0
3629,50.0,0.0,180.0,14.0,0.0
3630,74.0,0.0,90.0,11.0,0.0
3631,74.0,120.0,90.0,10.0,0.0
3632,88.0,24.0,180.0,0.0,0.0
3633,64.0,0.0,180.0,2.0,0.0
3634,52.0,0.0,180.0,14.0,0.0
3635,76.0,0.0,90.0,10.0,0.0
3636,64.0,0.0,180.0,12.0,0.0
3637,64.0,0.0,180.0,13.0,0.0
3638,76.0,96.0,90.0,11.0,0.0
3639,76.0,0.0,180.0,1.0,0.0
3640,76.0,120.0,90.0,10.0,0.0
3641,76.0,0.0,90.0,11.0,0.0
3642,78.0,0.0,90.0,11.0,0.0
3643,66.0,0.0,180.0,13.0,0.0
3644,66.0,0.0,180.0,12.0,0.0
3645,90.0,0.0,180.0,0.0,0.0
3646,78.0,0.0,180.0,1.0,0.0
3647,78.0,96.0,90.0,10.0,0.0
3648,54.0,0.0,180.0,14.0,0.0
3649,66.0,24.0,180.0,2.0,0.0
3650,78.0,120.0,90.0,11.0,0.0
3651,78.0,0.0,90.0,10.0,0.0
3652,61.0,0.0,180.0,12.0,0.0
3653,49.0,24.0,180.0,14.0,0.0
3654,61.0,0.0,180.0,2.0,0.0
3655,73.0,0.0,90.0,10.0,0.0
3656,73.0,0.0,180.0,1.0,0.0
3657,85.0,0.0,180.0,0.0,0.0
3658,73.0,96.0,90.0,11.0,0.0
3659,61.0,0.0,180.0,13.0,0.0
3660,73.0,120.0,90.0,10.0,0.0
3661,73.0,0.0,90.0,11.0,0.0
3662,86.0,0.0,180.0,0.0,0.0
3663,62.0,0.0,180.0,2.0,0.0
3664,74.0,0.0,90.0,11.0,0.0
3665,74.0,0.0,180.0,1.0,0.0
3666,74.0,96.0,90.0,10.0,0.0
3667,62.0,0.0,180.0,13.0,0.0
3668,50.0,0.0,180.0,14.0,0.0
3669,62.0,24.0,180.0,12.0,0.0
3670,74.0,120.0,90.0,10.0,0.0
3671,74.0,0.0,90.0,11.0,0.0
3672,76.0,0.0,90.0,10.0,0.0
3673,88.0,0.0,180.0,0.0,0.0
3674,76.0,0.0,180.0,1.0,0.0
3675,64.0,0.0,180.0,13.0,0.0
3676,64.0,0.0,180.0,2.0,0.0
3677,52.0,24.0,180.0,14.0,0.0
3678,64.0,0.0,180.0,12.0,0.0
3679,76.0,96.0,90.0,11.0,0.0
3680,76.0,0.0,90.0,10.0,0.0
3681,76.0,120.0,90.0,11.0,0.0
3682,66.0,0.0,180.0,13.0,0.0
3683,66.0,0.0,180.0,2.0,0.0
3684,90.0,0.0,180.0,0.0,0.0
3685,66.0,0.0,180.0,12.0,0.0
3686,78.0,0.0,180.0,1.0,0.0
3687,78.0,0.0,90.0,11.0,0.0
3688,78.0,96.0,90.0,10.0,0.0
3689,54.0,24.0,180.0,14.0,0.0
3690,78.0,120.0,90.0,10.0,0.0
3691,78.0,0.0,90.0,11.0,0.0
3692,80.0,0.0,90.0,11.0,0.0
3693,68.0,24.0,180.0,12.0,0.0
3694,80.0,0.0,180.0,1.0,0.0
3695,56.0,0.0,180.0,14.0,0.0
3696,68.0,0.0,180.0,13.0,0.0
3697,80.0,96.0,90.0,10.0,0.0
3698,68.0,0.0,180.0,2.0,0.0
3699,92.0,0.0,180.0,0.0,0.0
3700,80.0,168.0,90.0,10.0,0.0
3701,80.0,0.0,90.0,11.0,0.0
3702,69.0,0.0,150.0,2.0,0.0
3703,81.0,0.0,150.0,11.0,0.0
3704,93.0,0.0,390.0,0.0,0.0
3705,81.0,0.0,150.0,10.0,0.0
3706,69.0,0.0,150.0,13.0,0.0
3707,81.0,72.0,390.0,1.0,0.0
3708,69.0,0.0,150.0,12.0,0.0
3709,57.0,216.0,150.0,14.0,0.0
3710,83.0,24.0,120.0,10.0,0.0
3711,71.0,0.0,120.0,13.0,0.0
3712,83.0,0.0,120.0,11.0,0.0
3713,59.0,0.0,120.0,14.0,0.0
3714,71.0,0.0,120.0,2.0,0.0
3715,71.0,0.0,120.0,12.0,0.0
3716,68.0,168.0,90.0,2.0,0.0
3717,68.0,0.0,90.0,12.0,0.0
3718,56.0,0.0,90.0,14.0,0.0
3719,80.0,0.0,90.0,11.0,0.0
3720,68.0,0.0,90.0,13.0,0.0
3721,80.0,0.0,90.0,10.0,0.0
3722,69.0,0.0,150.0,2.0,0.0
3723,81.0,0.0,150.0,10.0,0.0
3724,57.0,0.0,150.0,14.0,0.0
3725,81.0,0.0,150.0,11.0,0.0
3726,69.0,0.0,150.0,12.0,0.0
3727,69.0,216.0,150.0,13.0,0.0
3728,71.0,0.0,120.0,2.0,0.0
3729,71.0,96.0,120.0,12.0,0.0
3730,71.0,0.0,120.0,13.0,0.0
3731,59.0,0.0,120.0,14.0,0.0
3732,83.0,0.0,120.0,10.0,0.0
3733,83.0,0.0,120.0,11.0,0.0
3734,68.0,0.0,90.0,13.0,0.0
3735,68.0,168.0,90.0,12.0,0.0
3736,80.0,0.0,90.0,10.0,0.0
3737,56.0,0.0,90.0,14.0,0.0
3738,68.0,0.0,90.0,2.0,0.0
3739,80.0,0.0,90.0,11.0,0.0
3740,57.0,0.0,150.0,14.0,0.0
3741,69.0,0.0,150.0,2.0,0.0
3742,81.0,0.0,150.0,11.0,0.0
3743,69.0,0.0,150.0,13.0,0.0
3744,81.0,0.0,150.0,10.0,0.0
3745,69.0,216.0,150.0,12.0,0.0
3746,71.0,0.0,120.0,12.0,0.0
3747,83.0,0.0,120.0,11.0,0.0
3748,71.0,0.0,120.0,2.0,0.0
3749,71.0,96.0,120.0,13.0,0.0
3750,83.0,0.0,120.0,10.0,0.0
3751,59.0,0.0,120.0,14.0,0.0
3752,80.0,336.0,90.0,11.0,0.0
3753,68.0,0.0,90.0,12.0,0.0
3754,56.0,0.0,90.0,14.0,0.0
3755,80.0,0.0,90.0,10.0,0.0
3756,68.0,0.0,90.0,2.0,0.0
3757,68.0,0.0,90.0,13.0,0.0
3758,69.0,0.0,300.0,13.0,0.0
3759,73.0,0.0,390.0,1.0,0.0
3760,81.0,0.0,300.0,10.0,0.0
3761,69.0,0.0,390.0,3.0,0.0
3762,57.0,0.0,300.0,14.0,0.0
3763,76.0,0.0,390.0,1.0,0.0
3764,69.0,72.0,300.0,12.0,0.0
3765,81.0,0.0,300.0,11.0,0.0
3766,81.0,0.0,390.0,0.0,0.0
3767,81.0,408.0,390.0,4.0,0.0
3768,69.0,0.0,390.0,2.0,0.0
3769,69.0,0.0,300.0,11.0,0.0
3770,61.0,0.0,300.0,11.0,0.0
3771,69.0,480.0,390.0,3.0,0.0
3772,81.0,0.0,390.0,4.0,0.0
3773,69.0,0.0,300.0,10.0,0.0
3774,69.0,0.0,390.0,2.0,0.0
3775,61.0,0.0,300.0,10.0,0.0
3776,73.0,0.0,390.0,1.0,0.0
3777,76.0,0.0,390.0,1.0,0.0
3778,57.0,0.0,300.0,13.0,0.0
3779,81.0,0.0,390.0,0.0,0.0
3780,57.0,72.0,300.0,12.0,0.0
3781,45.0,0.0,300.0,14.0,0.0
3782,73.0,0.0,390.0,1.0,0.0
3783,69.0,0.0,390.0,2.0,0.0
3784,81.0,0.0,390.0,4.0,0.0
3785,76.0,0.0,390.0,1.0,0.0
3786,81.0,0.0,390.0,0.0,0.0
3787,69.0,240.0,390.0,3.0,0.0
3788,55.0,0.0,150.0,14.0,0.0
3789,85.0,0.0,1830.0,0.0,0.0
3790,79.0,0.0,1830.0,4.0,0.0
3791,67.0,0.0,1830.0,3.0,0.0
3792,67.0,0.0,150.0,12.0,0.0
3793,81.0,0.0,1830.0,4.0,0.0
3794,67.0,216.0,150.0,13.0,0.0
3795,79.0,0.0,150.0,10.0,0.0
3796,73.0,0.0,1830.0,1.0,0.0
3797,76.0,408.0,1830.0,1.0,0.0
3798,79.0,0.0,150.0,11.0,0.0
3799,67.0,0.0,1830.0,2.0,0.0
3800,69.0,0.0,1830.0,3.0,0.0
3801,69.0,96.0,120.0,13.0,0.0
3802,81.0,0.0,120.0,11.0,0.0
3803,81.0,0.0,120.0,10.0,0.0
3804,57.0,0.0,120.0,14.0,0.0
3805,69.0,0.0,120.0,12.0,0.0
3806,78.0,168.0,90.0,10.0,0.0
3807,66.0,0.0,90.0,13.0,0.0
3808,54.0,0.0,90.0,14.0,0.0
3809,78.0,0.0,90.0,11.0,0.0
3810,66.0,0.0,90.0,12.0,0.0
3811,79.0,0.0,150.0,11.0,0.0
3812,55.0,0.0,150.0,14.0,0.0
3813,67.0,216.0,150.0,13.0,0.0
3814,79.0,0.0,150.0,10.0,0.0
3815,67.0,0.0,150.0,12.0,0.0
3816,81.0,0.0,120.0,10.0,0.0
3817,69.0,0.0,120.0,13.0,0.0
3818,57.0,96.0,120.0,14.0,0.0
3819,81.0,0.0,120.0,11.0,0.0
3820,69.0,0.0,120.0,12.0,0.0
3821,78.0,0.0,90.0,10.0,0.0
3822,78.0,0.0,90.0,11.0,0.0
3823,66.0,0.0,90.0,13.0,0.0
3824,54.0,168.0,90.0,14.0,0.0
3825,66.0,0.0,90.0,12.0,0.0
3826,79.0,216.0,150.0,10.0,0.0
3827,55.0,0.0,150.0,14.0,0.0
3828,67.0,0.0,150.0,13.0,0.0
3829,79.0,0.0,150.0,11.0,0.0
3830,67.0,0.0,150.0,12.0,0.0
3831,81.0,0.0,120.0,11.0,0.0
3832,69.0,0.0,120.0,12.0,0.0
3833,69.0,0.0,120.0,13.0,0.0
3834,57.0,96.0,120.0,14.0,0.0
3835,81.0,0.0,120.0,10.0,0.0
3836,66.0,336.0,90.0,13.0,0.0
3837,78.0,0.0,90.0,10.0,0.0
3838,54.0,0.0,90.0,14.0,0.0
3839,78.0,0.0,90.0,11.0,0.0
3840,66.0,0.0,90.0,12.0,0.0
3841,79.0,0.0,300.0,11.0,0.0
3842,55.0,0.0,300.0,14.0,0.0
3843,67.0,72.0,300.0,12.0,0.0
3844,79.0,0.0,300.0,10.0,0.0
3845,67.0,0.0,300.0,13.0,0.0
3846,67.0,0.0,300.0,10.0,0.0
3847,73.0,0.0,390.0,1.0,0.0
3848,67.0,72.0,300.0,11.0,0.0
3849,55.0,0.0,300.0,12.0,0.0
3850,55.0,0.0,300.0,13.0,0.0
3851,67.0,0.0,390.0,2.0,0.0
3852,43.0,0.0,300.0,14.0,0.0
3853,76.0,0.0,390.0,1.0,0.0
3854,85.0,0.0,390.0,0.0,0.0
3855,79.0,0.0,390.0,4.0,0.0
3856,81.0,0.0,390.0,4.0,0.0
3857,67.0,480.0,390.0,3.0,0.0
3858,69.0,0.0,390.0,3.0,0.0
3859,79.0,0.0,390.0,4.0,0.0
3860,81.0,0.0,390.0,4.0,0.0
3861,67.0,0.0,390.0,2.0,0.0
3862,85.0,0.0,390.0,0.0,0.0
3863,73.0,0.0,390.0,1.0,0.0
3864,76.0,0.0,390.0,1.0,0.0
3865,67.0,240.0,390.0,3.0,0.0
3866,69.0,0.0,390.0,3.0,0.0
3867,66.0,0.0,1830.0,2.0,0.0
3868,50.0,72.0,390.0,5.0,0.0
3869,81.0,0.0,1830.0,4.0,0.0
3870,66.0,0.0,150.0,12.0,0.0
3871,78.0,0.0,150.0,10.0,0.0
3872,66.0,0.0,150.0,13.0,0.0
3873,86.0,0.0,1830.0,0.0,0.0
3874,54.0,216.0,150.0,14.0,0.0
3875,62.0,0.0,1830.0,3.0,0.0
3876,78.0,0.0,150.0,11.0,0.0
3877,69.0,0.0,1830.0,3.0,0.0
3878,78.0,0.0,1830.0,1.0,0.0
3879,74.0,0.0,1830.0,1.0,0.0
3880,74.0,408.0,1830.0,4.0,0.0
3881,79.0,24.0,120.0,11.0,0.0
3882,55.0,0.0,120.0,14.0,0.0
3883,67.0,0.0,120.0,13.0,0.0
3884,67.0,0.0,120.0,12.0,0.0
3885,79.0,0.0,120.0,10.0,0.0
3886,64.0,0.0,90.0,12.0,0.0
3887,64.0,0.0,90.0,13.0,0.0
3888,76.0,0.0,90.0,10.0,0.0
3889,52.0,168.0,90.0,14.0,0.0
3890,76.0,0.0,90.0,11.0,0.0
3891,78.0,0.0,150.0,11.0,0.0
3892,66.0,216.0,150.0,12.0,0.0
3893,78.0,0.0,150.0,10.0,0.0
3894,54.0,0.0,150.0,14.0,0.0
3895,66.0,0.0,150.0,13.0,0.0
3896,50.0,72.0,390.0,5.0,0.0
3897,79.0,0.0,120.0,11.0,0.0
3898,67.0,0.0,120.0,12.0,0.0
3899,79.0,0.0,120.0,10.0,0.0
3900,67.0,24.0,120.0,13.0,0.0
3901,55.0,0.0,120.0,14.0,0.0
3902,76.0,0.0,90.0,11.0,0.0
3903,76.0,0.0,90.0,10.0,0.0
3904,64.0,168.0,90.0,12.0,0.0
3905,52.0,0.0,90.0,14.0,0.0
3906,64.0,0.0,90.0,13.0,0.0
3907,54.0,0.0,150.0,14.0,0.0
3908,66.0,216.0,150.0,13.0,0.0
3909,50.0,72.0,390.0,5.0,0.0
3910,78.0,0.0,150.0,10.0,0.0
3911,66.0,0.0,150.0,12.0,0.0
3912,78.0,0.0,150.0,11.0,0.0
3913,67.0,0.0,120.0,13.0,0.0
3914,55.0,0.0,120.0,14.0,0.0
3915,67.0,0.0,120.0,12.0,0.0
3916,79.0,24.0,120.0,11.0,0.0
3917,79.0,0.0,120.0,10.0,0.0
3918,64.0,0.0,90.0,12.0,0.0
3919,52.0,0.0,90.0,14.0,0.0
3920,76.0,336.0,90.0,11.0,0.0
3921,64.0,0.0,90.0,13.0,0.0
3922,76.0,0.0,90.0,10.0,0.0
3923,50.0,0.0,390.0,5.0,0.0
3924,78.0,0.0,300.0,11.0,0.0
3925,66.0,0.0,300.0,13.0,0.0
3926,66.0,0.0,300.0,12.0,0.0
3927,78.0,0.0,300.0,10.0,0.0
3928,54.0,72.0,300.0,14.0,0.0
3929,81.0,0.0,390.0,4.0,0.0
3930,69.0,0.0,390.0,3.0,0.0
3931,66.0,0.0,390.0,2.0,0.0
3932,78.0,0.0,390.0,1.0,0.0
3933,66.0,0.0,300.0,10.0,0.0
3934,62.0,0.0,390.0,3.0,0.0
3935,54.0,0.0,300.0,13.0,0.0
3936,74.0,0.0,390.0,1.0,0.0
3937,74.0,0.0,390.0,4.0,0.0
3938,90.0,480.0,390.0,0.0,0.0
3939,54.0,72.0,300.0,12.0,0.0
3940,42.0,0.0,300.0,14.0,0.0
3941,66.0,0.0,300.0,11.0,0.0
3942,62.0,0.0,390.0,3.0,0.0
3943,69.0,0.0,390.0,3.0,0.0
3944,74.0,0.0,390.0,4.0,0.0
3945,81.0,0.0,390.0,4.0,0.0
3946,86.0,0.0,390.0,0.0,0.0
3947,66.0,0.0,390.0,2.0,0.0
3948,74.0,0.0,390.0,1.0,0.0
3949,78.0,240.0,390.0,1.0,0.0
3950,64.0,0.0,150.0,13.0,0.0
3951,85.0,0.0,1830.0,1.0,0.0
3952,76.0,0.0,150.0,11.0,0.0
3953,91.0,24.0,1800.0,0.0,0.0
3954,76.0,0.0,150.0,10.0,0.0
3955,64.0,216.0,150.0,12.0,0.0
3956,76.0,36.0,1830.0,1.0,0.0
3957,52.0,0.0,150.0,14.0,0.0
3958,52.0,0.0,1830.0,2.0,0.0
3959,79.0,0.0,1830.0,4.0,0.0
3960,69.0,0.0,1830.0,3.0,0.0
3961,67.0,0.0,1830.0,3.0,0.0
3962,55.0,72.0,390.0,5.0,0.0
3963,81.0,0.0,1830.0,4.0,0.0
3964,64.0,0.0,1830.0,2.0,0.0
3965,78.0,0.0,120.0,11.0,0.0
3966,66.0,0.0,120.0,13.0,0.0
3967,54.0,0.0,120.0,14.0,0.0
3968,66.0,0.0,120.0,12.0,0.0
3969,78.0,24.0,120.0,10.0,0.0
3970,62.0,0.0,90.0,13.0,0.0
3971,50.0,0.0,90.0,14.0,0.0
3972,74.0,0.0,90.0,11.0,0.0
3973,62.0,168.0,90.0,12.0,0.0
3974,74.0,0.0,90.0,10.0,0.0
3975,52.0,0.0,150.0,14.0,0.0
3976,55.0,72.0,390.0,5.0,0.0
3977,64.0,0.0,150.0,13.0,0.0
3978,76.0,0.0,150.0,11.0,0.0
3979,76.0,0.0,150.0,10.0,0.0
3980,64.0,216.0,150.0,12.0,0.0
3981,66.0,0.0,120.0,13.0,0.0
3982,66.0,0.0,120.0,12.0,0.0
3983,78.0,0.0,120.0,11.0,0.0
3984,54.0,0.0,120.0,14.0,0.0
3985,78.0,24.0,120.0,10.0,0.0
3986,62.0,0.0,90.0,12.0,0.0
3987,50.0,168.0,90.0,14.0,0.0
3988,62.0,0.0,90.0,13.0,0.0
3989,74.0,0.0,90.0,10.0,0.0
3990,74.0,0.0,90.0,11.0,0.0
3991,76.0,0.0,150.0,11.0,0.0
3992,55.0,72.0,390.0,5.0,0.0
3993,64.0,0.0,150.0,12.0,0.0
3994,52.0,0.0,150.0,14.0,0.0
3995,76.0,216.0,150.0,10.0,0.0
3996,64.0,0.0,150.0,13.0,0.0
3997,78.0,0.0,120.0,10.0,0.0
3998,66.0,24.0,120.0,13.0,0.0
3999,78.0,0.0,120.0,11.0,0.0
4000,66.0,0.0,120.0,12.0,0.0
4001,54.0,0.0,120.0,14.0,0.0
4002,50.0,0.0,90.0,14.0,0.0
4003,74.0,0.0,90.0,11.0,0.0
4004,74.0,0.0,90.0,10.0,0.0
4005,62.0,0.0,90.0,13.0,0.0
4006,62.0,336.0,90.0,12.0,0.0
4007,52.0,0.0,300.0,14.0,0.0
4008,76.0,0.0,300.0,11.0,0.0
4009,55.0,0.0,390.0,5.0,0.0
4010,64.0,48.0,300.0,13.0,0.0
4011,64.0,0.0,300.0,12.0,0.0
4012,76.0,0.0,300.0,10.0,0.0
4013,90.0,60.0,60.0,0.0,0.0
4014,91.0,312.0,60.0,0.0,0.0
4015,64.0,0.0,300.0,10.0,0.0
4016,52.0,0.0,300.0,13.0,0.0
4017,81.0,96.0,390.0,4.0,0.0
4018,40.0,0.0,300.0,14.0,0.0
4019,52.0,0.0,390.0,2.0,0.0
4020,93.0,384.0,480.0,0.0,0.0
4021,79.0,0.0,390.0,4.0,0.0
4022,69.0,0.0,390.0,3.0,0.0
4023,67.0,0.0,390.0,3.0,0.0
4024,52.0,0.0,300.0,12.0,0.0
4025,76.0,0.0,390.0,1.0,0.0
4026,85.0,0.0,390.0,1.0,0.0
4027,64.0,0.0,390.0,2.0,0.0
4028,64.0,72.0,300.0,11.0,0.0
4029,81.0,288.0,390.0,4.0,0.0
4030,79.0,0.0,390.0,4.0,0.0
4031,52.0,0.0,390.0,2.0,0.0
4032,64.0,0.0,390.0,2.0,0.0
4033,91.0,0.0,390.0,0.0,0.0
4034,76.0,0.0,390.0,1.0,0.0
4035,85.0,0.0,390.0,1.0,0.0
4036,69.0,0.0,390.0,3.0,0.0
4037,67.0,0.0,390.0,3.0,0.0
4038,62.0,240.0,1140.0,12.0,0.0
4039,62.0,0.0,1440.0,3.0,0.0
4040,62.0,0.0,1140.0,10.0,0.0
4041,50.0,192.0,1440.0,3.0,0.0
4042,50.0,192.0,180.0,13.0,0.0
4043,38.0,0.0,180.0,14.0,0.0
4044,90.0,0.0,390.0,0.0,0.0
4045,62.0,0.0,1140.0,11.0,0.0
4046,78.0,48.0,390.0,1.0,0.0
4047,86.0,0.0,390.0,1.0,0.0
4048,74.0,0.0,1140.0,4.0,0.0
4049,62.0,0.0,1140.0,4.0,0.0
4050,62.0,0.0,390.0,2.0,0.0
4051,50.0,0.0,390.0,5.0,0.0
4052,38.0,0.0,180.0,14.0,0.0
4053,50.0,240.0,180.0,13.0,0.0
4054,50.0,240.0,180.0,13.0,0.0
4055,38.0,0.0,180.0,14.0,0.0
4056,38.0,0.0,180.0,14.0,0.0
4057,50.0,240.0,180.0,13.0,0.0
4058,50.0,0.0,180.0,13.0,0.0
4059,38.0,0.0,180.0,14.0,0.0
4060,50.0,48.0,180.0,13.0,0.0
4061,38.0,0.0,180.0,14.0,0.0
4062,71.0,0.0,240.0,11.0,0.0
4063,38.0,48.0,180.0,14.0,0.0
4064,50.0,0.0,11220.0,3.0,0.0
4065,62.0,0.0,11220.0,3.0,0.0
4066,50.0,48.0,390.0,13.0,0.0
4067,86.0,144.0,240.0,10.0,0.0
4068,90.0,0.0,240.0,10.0,0.0
4069,38.0,48.0,180.0,14.0,0.0
4070,74.0,192.0,240.0,11.0,0.0
4071,88.0,0.0,240.0,10.0,0.0
4072,38.0,48.0,180.0,14.0,0.0
4073,73.0,192.0,240.0,11.0,0.0
4074,85.0,0.0,240.0,10.0,0.0
4075,69.0,192.0,240.0,11.0,0.0
4076,38.0,48.0,180.0,14.0,0.0
4077,38.0,48.0,180.0,14.0,0.0
4078,83.0,0.0,240.0,10.0,0.0
4079,67.0,192.0,240.0,11.0,0.0
4080,38.0,48.0,180.0,14.0,0.0
4081,71.0,0.0,240.0,11.0,0.0
4082,86.0,192.0,240.0,10.0,0.0
4083,69.0,192.0,240.0,11.0,0.0
4084,85.0,0.0,240.0,10.0,0.0
4085,38.0,48.0,180.0,14.0,0.0
4086,81.0,0.0,240.0,10.0,0.0
4087,66.0,192.0,240.0,11.0,0.0
4088,38.0,48.0,180.0,14.0,0.0
4089,64.0,192.0,240.0,11.0,0.0
4090,38.0,48.0,180.0,14.0,0.0
4091,79.0,0.0,240.0,10.0,0.0
4092,67.0,192.0,240.0,11.0,0.0
4093,83.0,0.0,240.0,10.0,0.0
4094,38.0,48.0,180.0,14.0,0.0
4095,81.0,0.0,240.0,10.0,0.0
4096,38.0,48.0,180.0,14.0,0.0
4097,66.0,192.0,240.0,11.0,0.0
4098,78.0,0.0,180.0,10.0,0.0
4099,62.0,0.0,180.0,11.0,0.0
4100,38.0,240.0,180.0,14.0,0.0
4101,81.0,72.0,360.0,0.0,0.0
4102,64.0,0.0,360.0,2.0,0.0
4103,67.0,0.0,360.0,2.0,0.0
4104,49.0,120.0,240.0,13.0,0.0
4105,38.0,48.0,180.0,14.0,0.0
4106,76.0,0.0,360.0,1.0,0.0
4107,79.0,0.0,360.0,1.0,0.0
4108,38.0,48.0,180.0,14.0,0.0
4109,50.0,192.0,240.0,13.0,0.0
4110,64.0,0.0,360.0,2.0,0.0
4111,67.0,0.0,360.0,2.0,0.0
4112,52.0,120.0,240.0,13.0,0.0
4113,38.0,48.0,180.0,14.0,0.0
4114,79.0,0.0,360.0,1.0,0.0
4115,81.0,72.0,360.0,0.0,0.0
4116,76.0,0.0,360.0,1.0,0.0
4117,54.0,192.0,240.0,13.0,0.0
4118,38.0,48.0,180.0,14.0,0.0
4119,55.0,120.0,240.0,13.0,0.0
4120,67.0,0.0,360.0,2.0,0.0
4121,64.0,0.0,360.0,2.0,0.0
4122,76.0,0.0,360.0,1.0,0.0
4123,38.0,48.0,180.0,14.0,0.0
4124,81.0,0.0,360.0,0.0,0.0
4125,79.0,72.0,360.0,1.0,0.0
4126,56.0,192.0,240.0,13.0,0.0
4127,38.0,48.0,180.0,14.0,0.0
4128,64.0,0.0,960.0,2.0,0.0
4129,81.0,120.0,720.0,0.0,0.0
4130,57.0,192.0,240.0,13.0,0.0
4131,76.0,0.0,960.0,1.0,0.0
4132,79.0,192.0,960.0,1.0,0.0
4133,67.0,0.0,960.0,2.0,0.0
4134,38.0,48.0,180.0,14.0,0.0
4135,38.0,48.0,180.0,14.0,0.0
4136,58.0,192.0,240.0,13.0,0.0
4137,38.0,48.0,180.0,14.0,0.0
4138,59.0,0.0,240.0,13.0,0.0
4139,61.0,0.0,240.0,13.0,0.0
4140,83.0,72.0,120.0,0.0,0.0
4141,38.0,48.0,180.0,14.0,0.0
4142,81.0,0.0,120.0,0.0,0.0
4143,64.0,192.0,240.0,13.0,0.0
4144,38.0,48.0,180.0,14.0,0.0
4145,86.0,0.0,240.0,0.0,0.0
4146,66.0,0.0,240.0,2.0,0.0
4147,62.0,0.0,240.0,2.0,0.0
4148,74.0,0.0,240.0,1.0,0.0
4149,78.0,0.0,240.0,1.0,0.0
4150,38.0,240.0,180.0,14.0,0.0
4151,62.0,0.0,180.0,13.0,0.0
4152,71.0,0.0,240.0,11.0,0.0
4153,86.0,192.0,240.0,10.0,0.0
4154,38.0,48.0,180.0,14.0,0.0
4155,90.0,0.0,240.0,10.0,0.0
4156,74.0,192.0,240.0,11.0,0.0
4157,38.0,48.0,180.0,14.0,0.0
4158,88.0,192.0,240.0,10.0,0.0
4159,38.0,48.0,180.0,14.0,0.0
4160,73.0,0.0,240.0,11.0,0.0
4161,69.0,192.0,240.0,11.0,0.0
4162,38.0,48.0,180.0,14.0,0.0
4163,85.0,0.0,240.0,10.0,0.0
4164,83.0,0.0,240.0,10.0,0.0
4165,67.0,192.0,240.0,11.0,0.0
4166,38.0,48.0,180.0,14.0,0.0
4167,71.0,192.0,240.0,11.0,0.0
4168,86.0,0.0,240.0,10.0,0.0
4169,38.0,48.0,180.0,14.0,0.0
4170,38.0,48.0,180.0,14.0,0.0
4171,85.0,0.0,240.0,10.0,0.0
4172,69.0,192.0,240.0,11.0,0.0
4173,81.0,0.0,240.0,10.0,0.0
4174,38.0,48.0,180.0,14.0,0.0
4175,66.0,192.0,240.0,11.0,0.0
4176,79.0,192.0,240.0,10.0,0.0
4177,64.0,0.0,240.0,11.0,0.0
4178,38.0,48.0,180.0,14.0,0.0
4179,67.0,192.0,240.0,11.0,0.0
4180,83.0,0.0,240.0,10.0,0.0
4181,38.0,48.0,180.0,14.0,0.0
4182,38.0,48.0,180.0,14.0,0.0
4183,66.0,192.0,240.0,11.0,0.0
4184,81.0,0.0,240.0,10.0,0.0
4185,38.0,240.0,180.0,14.0,0.0
4186,78.0,0.0,180.0,10.0,0.0
4187,62.0,0.0,180.0,11.0,0.0
4188,67.0,0.0,360.0,2.0,0.0
4189,49.0,120.0,240.0,13.0,0.0
4190,64.0,72.0,360.0,2.0,0.0
4191,81.0,0.0,360.0,0.0,0.0
4192,79.0,0.0,360.0,1.0,0.0
4193,38.0,48.0,180.0,14.0,0.0
4194,76.0,0.0,360.0,1.0,0.0
4195,50.0,192.0,240.0,13.0,0.0
4196,38.0,48.0,180.0,14.0,0.0
4197,76.0,0.0,360.0,1.0,0.0
4198,79.0,72.0,360.0,1.0,0.0
4199,64.0,0.0,360.0,2.0,0.0
4200,67.0,0.0,360.0,2.0,0.0
4201,52.0,120.0,240.0,13.0,0.0
4202,38.0,48.0,180.0,14.0,0.0
4203,81.0,0.0,360.0,0.0,0.0
4204,54.0,192.0,240.0,13.0,0.0
4205,38.0,48.0,180.0,14.0,0.0
4206,64.0,0.0,360.0,2.0,0.0
4207,79.0,72.0,360.0,1.0,0.0
4208,76.0,0.0,360.0,1.0,0.0
4209,55.0,120.0,240.0,13.0,0.0
4210,67.0,0.0,360.0,2.0,0.0
4211,38.0,48.0,180.0,14.0,0.0
4212,81.0,0.0,360.0,0.0,0.0
4213,38.0,48.0,180.0,14.0,0.0
4214,56.0,192.0,240.0,13.0,0.0
4215,57.0,192.0,240.0,13.0,0.0
4216,79.0,0.0,960.0,1.0,0.0
4217,76.0,0.0,960.0,1.0,0.0
4218,81.0,0.0,720.0,0.0,0.0
4219,64.0,0.0,960.0,2.0,0.0
4220,67.0,0.0,960.0,2.0,0.0
4221,38.0,48.0,180.0,14.0,0.0
4222,58.0,192.0,240.0,13.0,0.0
4223,38.0,48.0,180.0,14.0,0.0
4224,38.0,48.0,180.0,14.0,0.0
4225,59.0,120.0,240.0,13.0,0.0
4226,38.0,48.0,180.0,14.0,0.0
4227,83.0,72.0,120.0,0.0,0.0
4228,61.0,192.0,240.0,13.0,0.0
4229,81.0,0.0,120.0,0.0,0.0
4230,64.0,0.0,240.0,13.0,0.0
4231,86.0,0.0,240.0,0.0,0.0
4232,62.0,0.0,240.0,2.0,0.0
4233,38.0,48.0,180.0,14.0,0.0
4234,74.0,0.0,240.0,1.0,0.0
4235,78.0,0.0,240.0,1.0,0.0
4236,66.0,192.0,240.0,2.0,0.0
4237,62.0,528.0,180.0,13.0,0.0
4238,81.0,480.0,480.0,1.0,0.0
4239,78.0,0.0,480.0,1.0,0.0
4240,76.0,0.0,480.0,1.0,0.0
4241,79.0,480.0,480.0,1.0,0.0
4242,75.0,0.0,480.0,1.0,0.0
4243,78.0,720.0,480.0,1.0,0.0
4244,59.0,0.0,960.0,12.0,0.0
4245,69.0,0.0,960.0,2.0,0.0
4246,66.0,0.0,960.0,2.0,0.0
4247,78.0,0.0,960.0,1.0,0.0
4248,75.0,0.0,960.0,1.0,0.0
4249,59.0,0.0,960.0,13.0,0.0
4250,47.0,240.0,960.0,14.0,0.0
4251,84.0,120.0,720.0,0.0,0.0
4252,83.0,120.0,120.0,0.0,0.0
4253,81.0,0.0,120.0,0.0,0.0
4254,64.0,0.0,240.0,2.0,0.0
4255,67.0,0.0,240.0,2.0,0.0
4256,64.0,0.0,240.0,12.0,0.0
4257,52.0,0.0,240.0,13.0,0.0
4258,79.0,720.0,240.0,0.0,0.0
4259,40.0,0.0,240.0,14.0,0.0
4260,79.0,0.0,240.0,1.0,0.0
4261,76.0,0.0,240.0,1.0,0.0
4262,76.0,0.0,480.0,1.0,0.0
4263,79.0,480.0,480.0,1.0,0.0
4264,78.0,0.0,480.0,1.0,0.0
4265,74.0,480.0,480.0,1.0,0.0
4266,76.0,720.0,480.0,1.0,0.0
4267,73.0,0.0,480.0,1.0,0.0
4268,83.0,120.0,720.0,0.0,0.0
4269,67.0,0.0,960.0,2.0,0.0
4270,76.0,0.0,960.0,1.0,0.0
4271,57.0,0.0,960.0,12.0,0.0
4272,57.0,0.0,960.0,13.0,0.0
4273,73.0,0.0,960.0,1.0,0.0
4274,45.0,240.0,960.0,14.0,0.0
4275,64.0,0.0,960.0,2.0,0.0
4276,81.0,120.0,120.0,0.0,0.0
4277,79.0,0.0,120.0,0.0,0.0
4278,74.0,0.0,240.0,1.0,0.0
4279,66.0,0.0,240.0,2.0,0.0
4280,62.0,432.0,240.0,2.0,0.0
4281,50.0,0.0,240.0,13.0,0.0
4282,78.0,0.0,240.0,1.0,0.0
4283,62.0,0.0,240.0,12.0,0.0
4284,78.0,0.0,240.0,0.0,0.0
4285,38.0,0.0,240.0,14.0,0.0
4286,62.0,0.0,1440.0,12.0,0.0
4287,66.0,0.0,1440.0,11.0,0.0
4288,74.0,192.0,1440.0,10.0,0.0
4289,50.0,480.0,180.0,7.0,0.0
4290,54.0,0.0,1440.0,12.0,0.0
4291,62.0,0.0,180.0,6.0,0.0
4292,66.0,0.0,180.0,6.0,0.0
4293,54.0,480.0,180.0,7.0,0.0
4294,50.0,0.0,180.0,7.0,0.0
4295,62.0,288.0,180.0,6.0,0.0
4296,49.0,0.0,180.0,7.0,0.0
4297,57.0,0.0,1380.0,12.0,0.0
4298,61.0,480.0,180.0,6.0,0.0
4299,69.0,0.0,1380.0,11.0,0.0
4300,76.0,264.0,1380.0,10.0,0.0
4301,64.0,0.0,1380.0,12.0,0.0
4302,45.0,0.0,180.0,7.0,0.0
4303,57.0,480.0,180.0,6.0,0.0
4304,49.0,216.0,180.0,7.0,0.0
4305,61.0,0.0,180.0,6.0,0.0
4306,74.0,0.0,480.0,11.0,0.0
4307,62.0,480.0,480.0,12.0,0.0
4308,50.0,0.0,180.0,7.0,0.0
4309,78.0,0.0,480.0,10.0,0.0
4310,62.0,288.0,180.0,6.0,0.0
4311,66.0,0.0,480.0,12.0,0.0
4312,67.0,0.0,480.0,12.0,0.0
4313,71.0,192.0,480.0,12.0,0.0
4314,79.0,0.0,480.0,11.0,0.0
4315,83.0,0.0,480.0,10.0,0.0
4316,81.0,0.0,450.0,10.0,0.0
4317,66.0,216.0,450.0,12.0,0.0
4318,38.0,0.0,180.0,7.0,0.0
4319,69.0,0.0,450.0,12.0,0.0
4320,78.0,0.0,450.0,11.0,0.0
4321,50.0,264.0,180.0,6.0,0.0
4322,55.0,0.0,180.0,6.0,0.0
4323,43.0,0.0,180.0,7.0,0.0
4324,69.0,0.0,240.0,12.0,0.0
4325,81.0,0.0,240.0,10.0,0.0
4326,78.0,192.0,240.0,11.0,0.0
4327,66.0,48.0,180.0,12.0,0.0
4328,79.0,0.0,180.0,10.0,0.0
4329,67.0,0.0,180.0,12.0,0.0
4330,76.0,240.0,180.0,11.0,0.0
4331,64.0,0.0,180.0,12.0,0.0
4332,79.0,0.0,240.0,10.0,0.0
4333,76.0,0.0,240.0,11.0,0.0
4334,45.0,0.0,180.0,7.0,0.0
4335,57.0,48.0,180.0,6.0,0.0
4336,64.0,0.0,180.0,12.0,0.0
4337,67.0,192.0,240.0,12.0,0.0
4338,62.0,240.0,180.0,12.0,0.0
4339,78.0,0.0,180.0,10.0,0.0
4340,74.0,0.0,180.0,11.0,0.0
4341,66.0,0.0,180.0,12.0,0.0
4342,78.0,0.0,240.0,10.0,0.0
4343,45.0,48.0,180.0,7.0,0.0
4344,74.0,0.0,240.0,11.0,0.0
4345,57.0,0.0,180.0,6.0,0.0
4346,66.0,192.0,240.0,12.0,0.0
4347,62.0,0.0,180.0,12.0,0.0
4348,73.0,0.0,180.0,11.0,0.0
4349,64.0,0.0,180.0,12.0,0.0
4350,61.0,240.0,180.0,12.0,0.0
4351,76.0,0.0,180.0,10.0,0.0
4352,50.0,480.0,180.0,7.0,0.0
4353,76.0,240.0,720.0,10.0,0.0
4354,64.0,0.0,720.0,12.0,0.0
4355,73.0,0.0,960.0,11.0,0.0
4356,62.0,0.0,180.0,6.0,0.0
4357,61.0,0.0,720.0,12.0,0.0
4358,57.0,0.0,180.0,6.0,0.0
4359,45.0,48.0,180.0,7.0,0.0
4360,61.0,0.0,240.0,12.0,0.0
4361,65.0,0.0,240.0,12.0,0.0
4362,77.0,192.0,240.0,10.0,0.0
4363,62.0,720.0,240.0,12.0,0.0
4364,50.0,48.0,180.0,6.0,0.0
4365,38.0,0.0,180.0,7.0,0.0
4366,66.0,0.0,240.0,12.0,0.0
4367,78.0,0.0,240.0,10.0,0.0
4368,74.0,0.0,240.0,11.0,0.0
4369,35.0,0.0,1440.0,14.0,0.0
4370,86.0,480.0,480.0,10.0,0.0
4371,50.0,0.0,1440.0,2.0,0.0
4372,62.0,0.0,1440.0,2.0,0.0
4373,65.0,120.0,1200.0,12.0,0.0
4374,47.0,0.0,1440.0,13.0,0.0
4375,74.0,0.0,1440.0,1.0,0.0
4376,74.0,0.0,480.0,11.0,0.0
4377,62.0,144.0,1440.0,1.0,0.0
4378,71.0,240.0,480.0,11.0,0.0
4379,83.0,0.0,480.0,10.0,0.0
4380,80.0,0.0,390.0,10.0,0.0
4381,68.0,72.0,390.0,11.0,0.0
4382,64.0,24.0,120.0,12.0,0.0
4383,62.0,24.0,90.0,12.0,0.0
4384,88.0,0.0,150.0,10.0,0.0
4385,67.0,144.0,480.0,12.0,0.0
4386,37.0,144.0,1440.0,14.0,0.0
4387,76.0,240.0,150.0,11.0,0.0
4388,49.0,0.0,1440.0,13.0,0.0
4389,57.0,0.0,1380.0,2.0,0.0
4390,76.0,72.0,1380.0,1.0,0.0
4391,64.0,0.0,1380.0,2.0,0.0
4392,69.0,0.0,1380.0,1.0,0.0
4393,86.0,0.0,150.0,10.0,0.0
4394,74.0,96.0,150.0,11.0,0.0
4395,64.0,144.0,480.0,12.0,0.0
4396,85.0,0.0,150.0,10.0,0.0
4397,73.0,240.0,150.0,11.0,0.0
4398,83.0,96.0,150.0,10.0,0.0
4399,71.0,0.0,150.0,11.0,0.0
4400,81.0,0.0,150.0,10.0,0.0
4401,57.0,0.0,480.0,12.0,0.0
4402,69.0,240.0,150.0,11.0,0.0
4403,79.0,24.0,150.0,10.0,0.0
4404,67.0,0.0,150.0,11.0,0.0
4405,78.0,144.0,480.0,1.0,0.0
4406,62.0,0.0,480.0,2.0,0.0
4407,66.0,0.0,480.0,2.0,0.0
4408,50.0,0.0,390.0,13.0,0.0
4409,74.0,0.0,480.0,1.0,0.0
4410,66.0,0.0,150.0,11.0,0.0
4411,62.0,96.0,390.0,12.0,0.0
4412,78.0,240.0,150.0,10.0,0.0
4413,38.0,0.0,390.0,14.0,0.0
4414,74.0,0.0,150.0,11.0,0.0
4415,86.0,0.0,150.0,10.0,0.0
4416,79.0,0.0,480.0,1.0,0.0
4417,83.0,0.0,480.0,1.0,0.0
4418,67.0,0.0,480.0,2.0,0.0
4419,71.0,144.0,480.0,2.0,0.0
4420,86.0,240.0,150.0,10.0,0.0
4421,74.0,0.0,150.0,11.0,0.0
4422,86.0,0.0,150.0,10.0,0.0
4423,74.0,96.0,150.0,11.0,0.0
4424,78.0,0.0,390.0,1.0,0.0
4425,81.0,0.0,390.0,1.0,0.0
4426,66.0,0.0,390.0,2.0,0.0
4427,69.0,288.0,390.0,2.0,0.0
4428,86.0,0.0,150.0,10.0,0.0
4429,74.0,240.0,150.0,11.0,0.0
4430,86.0,0.0,150.0,10.0,0.0
4431,74.0,0.0,150.0,11.0,0.0
4432,67.0,0.0,270.0,10.0,0.0
4433,69.0,24.0,240.0,2.0,0.0
4434,43.0,0.0,270.0,14.0,0.0
4435,66.0,0.0,180.0,2.0,0.0
4436,78.0,48.0,180.0,1.0,0.0
4437,81.0,0.0,240.0,1.0,0.0
4438,55.0,0.0,270.0,13.0,0.0
4439,67.0,0.0,270.0,11.0,0.0
4440,67.0,168.0,270.0,12.0,0.0
4441,67.0,0.0,180.0,2.0,0.0
4442,64.0,240.0,180.0,2.0,0.0
4443,76.0,0.0,180.0,1.0,0.0
4444,79.0,0.0,180.0,1.0,0.0
4445,79.0,0.0,240.0,1.0,0.0
4446,76.0,48.0,180.0,1.0,0.0
4447,64.0,0.0,180.0,2.0,0.0
4448,69.0,0.0,270.0,12.0,0.0
4449,57.0,0.0,270.0,13.0,0.0
4450,69.0,168.0,270.0,10.0,0.0
4451,69.0,0.0,270.0,11.0,0.0
4452,45.0,0.0,270.0,14.0,0.0
4453,67.0,24.0,240.0,2.0,0.0
4454,74.0,0.0,180.0,1.0,0.0
4455,78.0,0.0,180.0,1.0,0.0
4456,66.0,240.0,180.0,2.0,0.0
4457,62.0,0.0,180.0,2.0,0.0
4458,78.0,24.0,240.0,1.0,0.0
4459,74.0,0.0,180.0,1.0,0.0
4460,66.0,0.0,240.0,2.0,0.0
4461,62.0,48.0,180.0,2.0,0.0
4462,45.0,168.0,270.0,13.0,0.0
4463,33.0,0.0,270.0,14.0,0.0
4464,57.0,0.0,270.0,12.0,0.0
4465,69.0,0.0,270.0,11.0,0.0
4466,69.0,0.0,270.0,10.0,0.0
4467,76.0,0.0,180.0,1.0,0.0
4468,73.0,0.0,180.0,1.0,0.0
4469,61.0,144.0,180.0,2.0,0.0
4470,64.0,0.0,180.0,2.0,0.0
4471,74.0,72.0,390.0,1.0,0.0
4472,74.0,0.0,90.0,10.0,0.0
4473,50.0,0.0,390.0,13.0,0.0
4474,74.0,120.0,90.0,11.0,0.0
4475,62.0,0.0,390.0,2.0,0.0
4476,38.0,0.0,390.0,14.0,0.0
4477,62.0,0.0,390.0,12.0,0.0
4478,74.0,0.0,90.0,10.0,0.0
4479,74.0,120.0,90.0,11.0,0.0
4480,86.0,48.0,90.0,10.0,0.0
4481,86.0,0.0,90.0,11.0,0.0
4482,86.0,120.0,90.0,10.0,0.0
4483,86.0,0.0,90.0,11.0,0.0
4484,81.0,120.0,90.0,10.0,0.0
4485,81.0,0.0,90.0,11.0,0.0
4486,81.0,0.0,90.0,10.0,0.0
4487,81.0,120.0,90.0,11.0,0.0
4488,78.0,120.0,90.0,10.0,0.0
4489,78.0,0.0,90.0,11.0,0.0
4490,78.0,120.0,90.0,11.0,0.0
4491,78.0,0.0,90.0,10.0,0.0
4492,74.0,120.0,90.0,11.0,0.0
4493,74.0,0.0,90.0,10.0,0.0
4494,74.0,0.0,90.0,11.0,0.0
4495,74.0,120.0,90.0,10.0,0.0
4496,69.0,120.0,90.0,11.0,0.0
4497,69.0,0.0,90.0,10.0,0.0
4498,69.0,0.0,90.0,11.0,0.0
4499,69.0,120.0,90.0,10.0,0.0
4500,50.0,0.0,390.0,5.0,0.0
4501,62.0,48.0,390.0,3.0,0.0
4502,57.0,96.0,240.0,12.0,0.0
4503,84.0,0.0,240.0,0.0,0.0
4504,42.0,0.0,240.0,14.0,0.0
4505,60.0,0.0,240.0,2.0,0.0
4506,72.0,0.0,240.0,1.0,0.0
4507,69.0,0.0,240.0,1.0,0.0
4508,74.0,0.0,390.0,4.0,0.0
4509,60.0,0.0,90.0,10.0,0.0
4510,54.0,0.0,240.0,13.0,0.0
4511,57.0,0.0,240.0,2.0,0.0
4512,60.0,120.0,90.0,11.0,0.0
4513,60.0,0.0,90.0,11.0,0.0
4514,60.0,24.0,90.0,10.0,0.0
4515,59.0,0.0,240.0,2.0,0.0
4516,71.0,0.0,240.0,1.0,0.0
4517,83.0,0.0,240.0,0.0,0.0
4518,59.0,48.0,90.0,10.0,0.0
4519,43.0,0.0,180.0,14.0,0.0
4520,59.0,0.0,90.0,11.0,0.0
4521,55.0,0.0,240.0,2.0,0.0
4522,67.0,96.0,240.0,1.0,0.0
4523,55.0,0.0,180.0,13.0,0.0
4524,55.0,24.0,180.0,12.0,0.0
4525,59.0,24.0,90.0,11.0,0.0
4526,59.0,0.0,90.0,10.0,0.0
4527,50.0,0.0,390.0,5.0,0.0
4528,74.0,0.0,390.0,4.0,0.0
4529,60.0,0.0,240.0,2.0,0.0
4530,57.0,0.0,240.0,2.0,0.0
4531,54.0,0.0,240.0,13.0,0.0
4532,84.0,0.0,240.0,0.0,0.0
4533,57.0,0.0,240.0,12.0,0.0
4534,60.0,0.0,90.0,10.0,0.0
4535,72.0,0.0,240.0,1.0,0.0
4536,69.0,0.0,240.0,1.0,0.0
4537,42.0,96.0,240.0,14.0,0.0
4538,62.0,48.0,390.0,3.0,0.0
4539,60.0,120.0,90.0,11.0,0.0
4540,60.0,24.0,90.0,11.0,0.0
4541,60.0,0.0,90.0,10.0,0.0
4542,83.0,0.0,240.0,0.0,0.0
4543,59.0,0.0,90.0,11.0,0.0
4544,67.0,0.0,240.0,1.0,0.0
4545,71.0,96.0,240.0,1.0,0.0
4546,55.0,24.0,180.0,13.0,0.0
4547,59.0,0.0,240.0,2.0,0.0
4548,55.0,0.0,240.0,2.0,0.0
4549,55.0,0.0,180.0,12.0,0.0
4550,59.0,48.0,90.0,10.0,0.0
4551,43.0,0.0,180.0,14.0,0.0
4552,59.0,24.0,90.0,11.0,0.0
4553,59.0,0.0,90.0,10.0,0.0
4554,60.0,0.0,240.0,2.0,0.0
4555,57.0,0.0,240.0,2.0,0.0
4556,84.0,0.0,240.0,0.0,0.0
4557,60.0,120.0,90.0,11.0,0.0
4558,50.0,48.0,390.0,5.0,0.0
4559,42.0,0.0,240.0,14.0,0.0
4560,74.0,0.0,390.0,4.0,0.0
4561,57.0,0.0,240.0,12.0,0.0
4562,60.0,0.0,90.0,10.0,0.0
4563,69.0,0.0,240.0,1.0,0.0
4564,54.0,96.0,240.0,13.0,0.0
4565,72.0,0.0,240.0,1.0,0.0
4566,62.0,0.0,390.0,3.0,0.0
4567,60.0,24.0,90.0,11.0,0.0
4568,60.0,0.0,90.0,10.0,0.0
4569,71.0,0.0,180.0,1.0,0.0
4570,59.0,0.0,90.0,10.0,0.0
4571,59.0,0.0,180.0,2.0,0.0
4572,83.0,0.0,180.0,0.0,0.0
4573,43.0,0.0,180.0,14.0,0.0
4574,55.0,0.0,180.0,13.0,0.0
4575,55.0,0.0,180.0,12.0,0.0
4576,59.0,48.0,90.0,11.0,0.0
4577,55.0,24.0,180.0,2.0,0.0
4578,67.0,0.0,180.0,1.0,0.0
4579,59.0,0.0,90.0,11.0,0.0
4580,59.0,120.0,90.0,10.0,0.0
4581,67.0,0.0,90.0,10.0,0.0
4582,67.0,120.0,90.0,11.0,0.0
4583,81.0,0.0,390.0,0.0,0.0
4584,49.0,0.0,390.0,13.0,0.0
4585,57.0,72.0,390.0,2.0,0.0
4586,64.0,0.0,390.0,1.0,0.0
4587,52.0,0.0,390.0,2.0,0.0
4588,67.0,0.0,390.0,3.0,0.0
4589,69.0,0.0,390.0,3.0,0.0
4590,37.0,0.0,390.0,14.0,0.0
4591,69.0,0.0,390.0,1.0,0.0
4592,81.0,0.0,390.0,4.0,0.0
4593,79.0,0.0,390.0,4.0,0.0
4594,64.0,0.0,390.0,12.0,0.0
4595,67.0,120.0,90.0,10.0,0.0
4596,67.0,0.0,90.0,11.0,0.0
4597,79.0,0.0,90.0,10.0,0.0
4598,79.0,48.0,90.0,11.0,0.0
4599,79.0,120.0,90.0,10.0,0.0
4600,79.0,0.0,90.0,11.0,0.0
4601,76.0,0.0,90.0,10.0,0.0
4602,76.0,120.0,90.0,11.0,0.0
4603,76.0,0.0,90.0,11.0,0.0
4604,76.0,120.0,90.0,10.0,0.0
4605,73.0,120.0,90.0,11.0,0.0
4606,73.0,0.0,90.0,10.0,0.0
4607,73.0,120.0,90.0,10.0,0.0
4608,73.0,0.0,90.0,11.0,0.0
4609,67.0,120.0,90.0,11.0,0.0
4610,67.0,0.0,90.0,10.0,0.0
4611,67.0,120.0,90.0,10.0,0.0
4612,67.0,0.0,90.0,11.0,0.0
4613,64.0,0.0,90.0,10.0,0.0
4614,64.0,120.0,90.0,11.0,0.0
4615,64.0,0.0,90.0,10.0,0.0
4616,64.0,120.0,90.0,11.0,0.0
4617,61.0,0.0,240.0,2.0,0.0
4618,73.0,0.0,240.0,1.0,0.0
4619,81.0,48.0,390.0,4.0,0.0
4620,52.0,0.0,240.0,12.0,0.0
4621,64.0,0.0,240.0,2.0,0.0
4622,61.0,120.0,90.0,11.0,0.0
4623,76.0,0.0,240.0,1.0,0.0
4624,85.0,96.0,240.0,0.0,0.0
4625,55.0,0.0,240.0,13.0,0.0
4626,69.0,0.0,390.0,3.0,0.0
4627,61.0,0.0,90.0,10.0,0.0
4628,43.0,0.0,240.0,14.0,0.0
4629,61.0,0.0,90.0,10.0,0.0
4630,61.0,24.0,90.0,11.0,0.0
4631,54.0,0.0,180.0,12.0,0.0
4632,78.0,0.0,240.0,1.0,0.0
4633,74.0,96.0,240.0,1.0,0.0
4634,54.0,24.0,180.0,13.0,0.0
4635,42.0,0.0,180.0,14.0,0.0
4636,62.0,0.0,240.0,2.0,0.0
4637,66.0,0.0,240.0,2.0,0.0
4638,86.0,0.0,240.0,0.0,0.0
4639,62.0,48.0,90.0,10.0,0.0
4640,62.0,0.0,90.0,11.0,0.0
4641,62.0,0.0,90.0,10.0,0.0
4642,62.0,24.0,90.0,11.0,0.0
4643,43.0,0.0,240.0,14.0,0.0
4644,76.0,96.0,240.0,1.0,0.0
4645,55.0,0.0,240.0,13.0,0.0
4646,85.0,0.0,240.0,0.0,0.0
4647,61.0,0.0,90.0,11.0,0.0
4648,69.0,0.0,390.0,3.0,0.0
4649,81.0,48.0,390.0,4.0,0.0
4650,61.0,0.0,240.0,2.0,0.0
4651,52.0,0.0,240.0,12.0,0.0
4652,73.0,0.0,240.0,1.0,0.0
4653,61.0,120.0,90.0,10.0,0.0
4654,64.0,0.0,240.0,2.0,0.0
4655,61.0,24.0,90.0,10.0,0.0
4656,61.0,0.0,90.0,11.0,0.0
4657,78.0,0.0,240.0,1.0,0.0
4658,66.0,0.0,240.0,2.0,0.0
4659,86.0,96.0,240.0,0.0,0.0
4660,54.0,0.0,180.0,12.0,0.0
4661,62.0,48.0,90.0,10.0,0.0
4662,62.0,0.0,240.0,2.0,0.0
4663,42.0,24.0,180.0,14.0,0.0
4664,54.0,0.0,180.0,13.0,0.0
4665,62.0,0.0,90.0,11.0,0.0
4666,74.0,0.0,240.0,1.0,0.0
4667,62.0,0.0,90.0,10.0,0.0
4668,62.0,24.0,90.0,11.0,0.0
4669,43.0,0.0,240.0,14.0,0.0
4670,73.0,0.0,240.0,1.0,0.0
4671,76.0,0.0,240.0,1.0,0.0
4672,64.0,0.0,240.0,2.0,0.0
4673,81.0,48.0,390.0,4.0,0.0
4674,52.0,0.0,240.0,12.0,0.0
4675,61.0,96.0,240.0,2.0,0.0
4676,85.0,0.0,240.0,0.0,0.0
4677,61.0,0.0,90.0,10.0,0.0
4678,55.0,0.0,240.0,13.0,0.0
4679,69.0,0.0,390.0,3.0,0.0
4680,61.0,120.0,90.0,11.0,0.0
4681,61.0,0.0,90.0,11.0,0.0
4682,61.0,24.0,90.0,10.0,0.0
4683,74.0,24.0,180.0,1.0,0.0
4684,54.0,0.0,180.0,12.0,0.0
4685,62.0,0.0,90.0,11.0,0.0
4686,54.0,0.0,180.0,13.0,0.0
4687,78.0,0.0,180.0,1.0,0.0
4688,86.0,0.0,180.0,0.0,0.0
4689,42.0,0.0,180.0,14.0,0.0
4690,62.0,48.0,90.0,10.0,0.0
4691,62.0,0.0,180.0,2.0,0.0
4692,66.0,0.0,180.0,2.0,0.0
4693,62.0,120.0,90.0,11.0,0.0
4694,62.0,0.0,90.0,10.0,0.0
4695,76.0,12.0,150.0,1.0,0.0
4696,76.0,0.0,150.0,0.0,0.0
4697,55.0,0.0,150.0,13.0,0.0
4698,59.0,60.0,150.0,12.0,0.0
4699,55.0,0.0,150.0,2.0,0.0
4700,59.0,0.0,150.0,2.0,0.0
4701,64.0,48.0,90.0,11.0,0.0
4702,43.0,0.0,150.0,14.0,0.0
4703,64.0,0.0,90.0,10.0,0.0
4704,64.0,120.0,90.0,11.0,0.0
4705,64.0,0.0,90.0,10.0,0.0
4706,66.0,48.0,90.0,10.0,0.0
4707,61.0,0.0,150.0,12.0,0.0
4708,66.0,0.0,90.0,11.0,0.0
4709,57.0,0.0,150.0,13.0,0.0
4710,78.0,0.0,150.0,1.0,0.0
4711,61.0,0.0,150.0,2.0,0.0
4712,57.0,0.0,150.0,2.0,0.0
4713,78.0,12.0,150.0,0.0,0.0
4714,45.0,60.0,150.0,14.0,0.0
4715,66.0,120.0,90.0,11.0,0.0
4716,66.0,0.0,90.0,10.0,0.0
4717,79.0,0.0,150.0,1.0,0.0
4718,79.0,0.0,150.0,0.0,0.0
4719,59.0,60.0,150.0,13.0,0.0
4720,67.0,48.0,90.0,10.0,0.0
4721,67.0,0.0,90.0,11.0,0.0
4722,59.0,0.0,150.0,2.0,0.0
4723,62.0,12.0,150.0,2.0,0.0
4724,47.0,0.0,150.0,14.0,0.0
4725,62.0,0.0,150.0,12.0,0.0
4726,67.0,120.0,90.0,11.0,0.0
4727,67.0,0.0,90.0,10.0,0.0
4728,69.0,48.0,90.0,10.0,0.0
4729,69.0,0.0,90.0,11.0,0.0
4730,64.0,0.0,150.0,12.0,0.0
4731,81.0,0.0,150.0,1.0,0.0
4732,64.0,0.0,150.0,2.0,0.0
4733,61.0,12.0,150.0,2.0,0.0
4734,81.0,0.0,150.0,0.0,0.0
4735,49.0,60.0,150.0,14.0,0.0
4736,61.0,0.0,150.0,13.0,0.0
4737,69.0,120.0,90.0,10.0,0.0
4738,69.0,0.0,90.0,11.0,0.0
4739,83.0,0.0,150.0,0.0,0.0
4740,66.0,0.0,150.0,12.0,0.0
4741,66.0,0.0,150.0,2.0,0.0
4742,62.0,0.0,150.0,2.0,0.0
4743,50.0,0.0,150.0,14.0,0.0
4744,71.0,0.0,90.0,11.0,0.0
4745,71.0,48.0,90.0,10.0,0.0
4746,83.0,12.0,150.0,1.0,0.0
4747,62.0,60.0,150.0,13.0,0.0
4748,71.0,120.0,90.0,11.0,0.0
4749,71.0,0.0,90.0,10.0,0.0
4750,85.0,0.0,150.0,0.0,0.0
4751,67.0,0.0,150.0,12.0,0.0
4752,64.0,0.0,150.0,13.0,0.0
4753,64.0,0.0,150.0,2.0,0.0
4754,67.0,0.0,150.0,2.0,0.0
4755,73.0,0.0,90.0,10.0,0.0
4756,52.0,60.0,150.0,14.0,0.0
4757,73.0,48.0,90.0,11.0,0.0
4758,85.0,12.0,150.0,1.0,0.0
4759,73.0,0.0,90.0,10.0,0.0
4760,73.0,120.0,90.0,11.0,0.0
4761,74.0,48.0,90.0,11.0,0.0
4762,69.0,0.0,150.0,12.0,0.0
4763,66.0,0.0,150.0,2.0,0.0
4764,54.0,0.0,150.0,14.0,0.0
4765,74.0,0.0,90.0,10.0,0.0
4766,81.0,0.0,570.0,4.0,0.0
4767,69.0,48.0,570.0,3.0,0.0
4768,86.0,0.0,150.0,0.0,0.0
4769,86.0,12.0,150.0,1.0,0.0
4770,69.0,0.0,150.0,2.0,0.0
4771,66.0,60.0,150.0,13.0,0.0
4772,74.0,0.0,90.0,11.0,0.0
4773,74.0,120.0,90.0,10.0,0.0
4774,49.0,60.0,150.0,14.0,0.0
4775,76.0,0.0,90.0,10.0,0.0
4776,88.0,0.0,150.0,0.0,0.0
4777,76.0,48.0,90.0,11.0,0.0
4778,61.0,0.0,150.0,2.0,0.0
4779,61.0,0.0,150.0,13.0,0.0
4780,76.0,12.0,150.0,1.0,0.0
4781,69.0,48.0,420.0,12.0,0.0
4782,76.0,120.0,90.0,10.0,0.0
4783,76.0,0.0,90.0,11.0,0.0
4784,78.0,0.0,150.0,1.0,0.0
4785,62.0,0.0,150.0,13.0,0.0
4786,62.0,0.0,150.0,2.0,0.0
4787,78.0,0.0,90.0,10.0,0.0
4788,78.0,0.0,90.0,11.0,0.0
4789,90.0,12.0,150.0,0.0,0.0
4790,50.0,12.0,150.0,14.0,0.0
4791,78.0,0.0,90.0,11.0,0.0
4792,78.0,120.0,90.0,10.0,0.0
4793,59.0,0.0,150.0,13.0,0.0
4794,47.0,36.0,150.0,14.0,0.0
4795,79.0,0.0,90.0,10.0,0.0
4796,79.0,0.0,150.0,1.0,0.0
4797,62.0,0.0,180.0,3.0,0.0
4798,91.0,0.0,150.0,0.0,0.0
4799,59.0,12.0,150.0,2.0,0.0
4800,79.0,48.0,90.0,11.0,0.0
4801,74.0,24.0,180.0,4.0,0.0
4802,74.0,24.0,420.0,12.0,0.0
4803,79.0,120.0,90.0,10.0,0.0
4804,79.0,0.0,90.0,11.0,0.0
4805,62.0,24.0,180.0,3.0,0.0
4806,57.0,0.0,150.0,2.0,0.0
4807,81.0,0.0,90.0,11.0,0.0
4808,45.0,12.0,150.0,14.0,0.0
4809,74.0,0.0,180.0,4.0,0.0
4810,81.0,48.0,90.0,10.0,0.0
4811,93.0,12.0,150.0,0.0,0.0
4812,81.0,0.0,150.0,1.0,0.0
4813,57.0,0.0,150.0,13.0,0.0
4814,81.0,120.0,90.0,11.0,0.0
4815,81.0,0.0,90.0,10.0,0.0
4816,83.0,48.0,90.0,11.0,0.0
4817,55.0,0.0,150.0,2.0,0.0
4818,55.0,0.0,150.0,13.0,0.0
4819,74.0,0.0,180.0,4.0,0.0
4820,95.0,12.0,150.0,0.0,0.0
4821,83.0,0.0,150.0,1.0,0.0
4822,74.0,0.0,150.0,12.0,0.0
4823,43.0,36.0,150.0,14.0,0.0
4824,62.0,24.0,180.0,3.0,0.0
4825,83.0,0.0,90.0,10.0,0.0
4826,83.0,0.0,90.0,11.0,0.0
4827,83.0,216.0,90.0,10.0,0.0
4828,60.0,0.0,1140.0,2.0,0.0
4829,54.0,240.0,180.0,13.0,0.0
4830,63.0,0.0,1140.0,2.0,0.0
4831,69.0,0.0,780.0,3.0,0.0
4832,87.0,0.0,1140.0,0.0,0.0
4833,84.0,0.0,1140.0,1.0,0.0
4834,72.0,144.0,780.0,3.0,0.0
4835,84.0,0.0,780.0,11.0,0.0
4836,81.0,0.0,780.0,4.0,0.0
4837,84.0,0.0,780.0,10.0,0.0
4838,42.0,0.0,180.0,14.0,0.0
4839,75.0,0.0,180.0,12.0,0.0
4840,81.0,0.0,1140.0,1.0,0.0
4841,54.0,0.0,180.0,13.0,0.0
4842,42.0,0.0,180.0,14.0,0.0
4843,75.0,240.0,180.0,12.0,0.0
4844,54.0,96.0,180.0,13.0,0.0
4845,75.0,0.0,180.0,12.0,0.0
4846,42.0,0.0,180.0,14.0,0.0
4847,42.0,240.0,180.0,14.0,0.0
4848,54.0,0.0,180.0,13.0,0.0
4849,75.0,0.0,180.0,12.0,0.0
4850,84.0,0.0,390.0,10.0,0.0
4851,72.0,0.0,390.0,3.0,0.0
4852,81.0,0.0,390.0,4.0,0.0
4853,42.0,0.0,180.0,14.0,0.0
4854,69.0,48.0,390.0,3.0,0.0
4855,54.0,0.0,180.0,13.0,0.0
4856,84.0,0.0,390.0,11.0,0.0
4857,75.0,192.0,180.0,12.0,0.0
4858,42.0,0.0,180.0,14.0,0.0
4859,75.0,0.0,180.0,12.0,0.0
4860,54.0,144.0,180.0,13.0,0.0
4861,43.0,0.0,180.0,14.0,0.0
4862,79.0,0.0,390.0,4.0,0.0
4863,88.0,0.0,1140.0,0.0,0.0
4864,67.0,24.0,390.0,3.0,0.0
4865,71.0,0.0,390.0,3.0,0.0
4866,82.0,0.0,90.0,11.0,0.0
4867,79.0,0.0,1140.0,1.0,0.0
4868,83.0,0.0,1140.0,1.0,0.0
4869,82.0,96.0,90.0,10.0,0.0
4870,55.0,0.0,180.0,13.0,0.0
4871,59.0,0.0,1140.0,2.0,0.0
4872,64.0,0.0,1140.0,2.0,0.0
4873,76.0,192.0,180.0,12.0,0.0
4874,83.0,24.0,300.0,11.0,0.0
4875,83.0,0.0,300.0,10.0,0.0
4876,55.0,0.0,180.0,13.0,0.0
4877,43.0,240.0,180.0,14.0,0.0
4878,76.0,0.0,180.0,12.0,0.0
4879,71.0,0.0,390.0,3.0,0.0
4880,55.0,192.0,180.0,13.0,0.0
4881,43.0,0.0,180.0,14.0,0.0
4882,79.0,0.0,390.0,4.0,0.0
4883,83.0,48.0,390.0,11.0,0.0
4884,83.0,0.0,390.0,10.0,0.0
4885,76.0,0.0,180.0,12.0,0.0
4886,67.0,0.0,390.0,3.0,0.0
4887,76.0,0.0,180.0,12.0,0.0
4888,55.0,240.0,180.0,13.0,0.0
4889,43.0,0.0,180.0,14.0,0.0
4890,43.0,0.0,180.0,14.0,0.0
4891,76.0,0.0,180.0,12.0,0.0
4892,55.0,240.0,180.0,13.0,0.0
4893,76.0,0.0,180.0,12.0,0.0
4894,43.0,240.0,180.0,14.0,0.0
4895,55.0,0.0,180.0,13.0,0.0
4896,59.0,0.0,1140.0,2.0,0.0
4897,44.0,240.0,180.0,14.0,0.0
4898,89.0,0.0,1140.0,0.0,0.0
4899,71.0,0.0,780.0,3.0,0.0
4900,65.0,0.0,1140.0,2.0,0.0
4901,86.0,0.0,660.0,11.0,0.0
4902,62.0,0.0,780.0,3.0,0.0
4903,56.0,0.0,180.0,13.0,0.0
4904,77.0,0.0,180.0,12.0,0.0
4905,86.0,0.0,660.0,10.0,0.0
4906,86.0,0.0,2580.0,1.0,0.0
4907,83.0,0.0,1140.0,1.0,0.0
4908,74.0,0.0,780.0,4.0,0.0
4909,83.0,144.0,780.0,4.0,0.0
4910,56.0,0.0,180.0,13.0,0.0
4911,44.0,240.0,180.0,14.0,0.0
4912,77.0,0.0,180.0,12.0,0.0
4913,77.0,96.0,180.0,12.0,0.0
4914,44.0,0.0,180.0,14.0,0.0
4915,56.0,0.0,180.0,13.0,0.0
4916,44.0,24.0,180.0,14.0,0.0
4917,77.0,0.0,180.0,12.0,0.0
4918,56.0,0.0,180.0,13.0,0.0
4919,86.0,0.0,90.0,10.0,0.0
4920,86.0,84.0,90.0,11.0,0.0
4921,88.0,0.0,60.0,10.0,0.0
4922,83.0,0.0,390.0,4.0,0.0
4923,88.0,60.0,60.0,11.0,0.0
4924,71.0,0.0,390.0,3.0,0.0
4925,62.0,36.0,390.0,3.0,0.0
4926,44.0,0.0,180.0,14.0,0.0
4927,56.0,0.0,180.0,13.0,0.0
4928,77.0,48.0,180.0,12.0,0.0
4929,74.0,0.0,390.0,4.0,0.0
4930,86.0,0.0,60.0,10.0,0.0
4931,86.0,60.0,60.0,11.0,0.0
4932,88.0,12.0,60.0,10.0,0.0
4933,88.0,0.0,60.0,11.0,0.0
4934,86.0,0.0,60.0,10.0,0.0
4935,86.0,60.0,60.0,11.0,0.0
4936,44.0,0.0,180.0,14.0,0.0
4937,88.0,0.0,60.0,10.0,0.0
4938,88.0,60.0,60.0,11.0,0.0
4939,77.0,36.0,180.0,12.0,0.0
4940,56.0,0.0,180.0,13.0,0.0
4941,86.0,24.0,60.0,10.0,0.0
4942,86.0,0.0,60.0,11.0,0.0
4943,85.0,0.0,60.0,10.0,0.0
4944,85.0,12.0,60.0,11.0,0.0
4945,86.0,0.0,60.0,10.0,0.0
4946,86.0,204.0,60.0,11.0,0.0
4947,45.0,0.0,180.0,14.0,0.0
4948,90.0,0.0,660.0,11.0,0.0
4949,81.0,0.0,1140.0,1.0,0.0
4950,66.0,0.0,1140.0,2.0,0.0
4951,78.0,240.0,180.0,12.0,0.0
4952,69.0,0.0,1140.0,3.0,0.0
4953,62.0,0.0,1140.0,2.0,0.0
4954,57.0,0.0,180.0,13.0,0.0
4955,90.0,0.0,1140.0,0.0,0.0
4956,90.0,0.0,660.0,10.0,0.0
4957,81.0,0.0,1140.0,4.0,0.0
4958,74.0,0.0,180.0,12.0,0.0
4959,57.0,240.0,180.0,13.0,0.0
4960,45.0,0.0,180.0,14.0,0.0
4961,57.0,240.0,180.0,13.0,0.0
4962,74.0,0.0,180.0,12.0,0.0
4963,45.0,0.0,180.0,14.0,0.0
4964,45.0,0.0,180.0,14.0,0.0
4965,74.0,24.0,180.0,12.0,0.0
4966,57.0,0.0,180.0,13.0,0.0
4967,86.0,216.0,90.0,11.0,0.0
4968,86.0,0.0,90.0,10.0,0.0
4969,90.0,0.0,300.0,10.0,0.0
4970,90.0,144.0,300.0,11.0,0.0
4971,45.0,96.0,180.0,14.0,0.0
4972,57.0,0.0,180.0,13.0,0.0
4973,74.0,0.0,180.0,12.0,0.0
4974,74.0,24.0,180.0,12.0,0.0
4975,57.0,0.0,180.0,13.0,0.0
4976,45.0,0.0,180.0,14.0,0.0
4977,86.0,216.0,90.0,10.0,0.0
4978,86.0,0.0,90.0,11.0,0.0
4979,64.0,0.0,1140.0,2.0,0.0
4980,85.0,0.0,1140.0,1.0,0.0
4981,88.0,72.0,1140.0,1.0,0.0
4982,91.0,0.0,1140.0,0.0,0.0
4983,69.0,0.0,390.0,3.0,0.0
4984,91.0,120.0,270.0,11.0,0.0
4985,45.0,0.0,180.0,14.0,0.0
4986,73.0,72.0,180.0,12.0,0.0
4987,61.0,0.0,1140.0,2.0,0.0
4988,91.0,0.0,270.0,10.0,0.0
4989,81.0,48.0,390.0,4.0,0.0
4990,57.0,0.0,180.0,13.0,0.0
4991,57.0,0.0,180.0,13.0,0.0
4992,45.0,240.0,180.0,14.0,0.0
4993,73.0,0.0,180.0,12.0,0.0
4994,81.0,48.0,390.0,4.0,0.0
4995,76.0,0.0,180.0,12.0,0.0
4996,88.0,120.0,270.0,11.0,0.0
4997,88.0,0.0,270.0,10.0,0.0
4998,57.0,72.0,180.0,13.0,0.0
4999,45.0,0.0,180.0,14.0,0.0
5000,69.0,0.0,390.0,3.0,0.0
5001,76.0,0.0,180.0,12.0,0.0
5002,57.0,240.0,180.0,13.0,0.0
5003,45.0,0.0,180.0,14.0,0.0
5004,85.0,120.0,270.0,11.0,0.0
5005,79.0,0.0,180.0,12.0,0.0
5006,85.0,0.0,270.0,10.0,0.0
5007,81.0,0.0,390.0,4.0,0.0
5008,69.0,48.0,390.0,3.0,0.0
5009,45.0,0.0,180.0,14.0,0.0
5010,57.0,0.0,180.0,13.0,0.0
5011,79.0,240.0,180.0,12.0,0.0
5012,57.0,0.0,180.0,13.0,0.0
5013,45.0,0.0,180.0,14.0,0.0
5014,57.0,0.0,180.0,13.0,0.0
5015,84.0,0.0,1140.0,1.0,0.0
5016,87.0,0.0,1140.0,1.0,0.0
5017,69.0,0.0,780.0,3.0,0.0
5018,72.0,0.0,780.0,3.0,0.0
5019,66.0,0.0,390.0,10.0,0.0
5020,75.0,0.0,390.0,10.0,0.0
5021,45.0,192.0,180.0,14.0,0.0
5022,84.0,0.0,870.0,10.0,0.0
5023,90.0,0.0,1140.0,0.0,0.0
5024,84.0,48.0,870.0,11.0,0.0
5025,66.0,0.0,390.0,11.0,0.0
5026,75.0,48.0,390.0,11.0,0.0
5027,66.0,0.0,1140.0,2.0,0.0
5028,63.0,0.0,1140.0,2.0,0.0
5029,81.0,96.0,780.0,4.0,0.0
5030,75.0,0.0,180.0,12.0,0.0
5031,75.0,0.0,180.0,12.0,0.0
5032,57.0,240.0,180.0,13.0,0.0
5033,45.0,0.0,180.0,14.0,0.0
5034,57.0,0.0,180.0,13.0,0.0
5035,75.0,0.0,180.0,12.0,0.0
5036,45.0,96.0,180.0,14.0,0.0
5037,45.0,240.0,180.0,14.0,0.0
5038,75.0,0.0,180.0,12.0,0.0
5039,57.0,0.0,180.0,13.0,0.0
5040,81.0,0.0,390.0,4.0,0.0
5041,75.0,0.0,180.0,12.0,0.0
5042,57.0,192.0,180.0,13.0,0.0
5043,84.0,0.0,390.0,10.0,0.0
5044,72.0,0.0,390.0,3.0,0.0
5045,84.0,48.0,390.0,11.0,0.0
5046,69.0,0.0,390.0,3.0,0.0
5047,45.0,0.0,180.0,14.0,0.0
5048,45.0,144.0,180.0,14.0,0.0
5049,75.0,0.0,180.0,12.0,0.0
5050,57.0,0.0,180.0,13.0,0.0
5051,82.0,96.0,90.0,11.0,0.0
5052,43.0,192.0,180.0,14.0,0.0
5053,67.0,0.0,1140.0,2.0,0.0
5054,64.0,0.0,1140.0,2.0,0.0
5055,88.0,0.0,1140.0,1.0,0.0
5056,83.0,0.0,1140.0,1.0,0.0
5057,67.0,0.0,390.0,3.0,0.0
5058,71.0,24.0,390.0,3.0,0.0
5059,79.0,0.0,390.0,4.0,0.0
5060,91.0,0.0,1140.0,0.0,0.0
5061,76.0,0.0,180.0,12.0,0.0
5062,55.0,0.0,180.0,13.0,0.0
5063,82.0,0.0,90.0,10.0,0.0
5064,83.0,24.0,300.0,10.0,0.0
5065,83.0,0.0,300.0,11.0,0.0
5066,76.0,0.0,180.0,12.0,0.0
5067,55.0,240.0,180.0,13.0,0.0
5068,43.0,0.0,180.0,14.0,0.0
5069,67.0,48.0,390.0,3.0,0.0
5070,83.0,0.0,390.0,10.0,0.0
5071,76.0,0.0,180.0,12.0,0.0
5072,71.0,0.0,390.0,3.0,0.0
5073,79.0,0.0,390.0,4.0,0.0
5074,55.0,0.0,180.0,13.0,0.0
5075,83.0,0.0,390.0,11.0,0.0
5076,43.0,192.0,180.0,14.0,0.0
5077,43.0,0.0,180.0,14.0,0.0
5078,76.0,240.0,180.0,12.0,0.0
5079,55.0,0.0,180.0,13.0,0.0
5080,55.0,0.0,180.0,13.0,0.0
5081,43.0,0.0,180.0,14.0,0.0
5082,76.0,240.0,180.0,12.0,0.0
5083,55.0,0.0,180.0,13.0,0.0
5084,76.0,240.0,180.0,12.0,0.0
5085,43.0,0.0,180.0,14.0,0.0
5086,59.0,0.0,180.0,13.0,0.0
5087,86.0,0.0,660.0,11.0,0.0
5088,83.0,0.0,780.0,4.0,0.0
5089,86.0,96.0,660.0,10.0,0.0
5090,68.0,0.0,1140.0,2.0,0.0
5091,86.0,0.0,1140.0,1.0,0.0
5092,89.0,0.0,1140.0,1.0,0.0
5093,77.0,240.0,180.0,12.0,0.0
5094,74.0,0.0,780.0,4.0,0.0
5095,62.0,0.0,780.0,3.0,0.0
5096,92.0,0.0,1140.0,0.0,0.0
5097,47.0,0.0,180.0,14.0,0.0
5098,71.0,144.0,780.0,3.0,0.0
5099,65.0,0.0,1140.0,2.0,0.0
5100,59.0,240.0,180.0,13.0,0.0
5101,77.0,0.0,180.0,12.0,0.0
5102,47.0,0.0,180.0,14.0,0.0
5103,47.0,0.0,180.0,14.0,0.0
5104,59.0,0.0,180.0,13.0,0.0
5105,77.0,0.0,180.0,12.0,0.0
5106,59.0,0.0,180.0,13.0,0.0
5107,47.0,24.0,180.0,14.0,0.0
5108,77.0,0.0,180.0,12.0,0.0
5109,86.0,0.0,90.0,11.0,0.0
5110,86.0,84.0,90.0,10.0,0.0
5111,74.0,36.0,390.0,4.0,0.0
5112,83.0,0.0,390.0,4.0,0.0
5113,88.0,60.0,60.0,10.0,0.0
5114,59.0,0.0,180.0,13.0,0.0
5115,77.0,48.0,180.0,12.0,0.0
5116,88.0,0.0,60.0,11.0,0.0
5117,62.0,0.0,390.0,3.0,0.0
5118,47.0,0.0,180.0,14.0,0.0
5119,71.0,0.0,390.0,3.0,0.0
5120,86.0,60.0,60.0,11.0,0.0
5121,86.0,0.0,60.0,10.0,0.0
5122,88.0,12.0,60.0,10.0,0.0
5123,88.0,0.0,60.0,11.0,0.0
5124,86.0,0.0,60.0,11.0,0.0
5125,86.0,60.0,60.0,10.0,0.0
5126,59.0,0.0,180.0,13.0,0.0
5127,77.0,36.0,180.0,12.0,0.0
5128,47.0,0.0,180.0,14.0,0.0
5129,88.0,0.0,60.0,11.0,0.0
5130,88.0,60.0,60.0,10.0,0.0
5131,86.0,24.0,60.0,11.0,0.0
5132,86.0,0.0,60.0,10.0,0.0
5133,85.0,12.0,60.0,11.0,0.0
5134,85.0,0.0,60.0,10.0,0.0
5135,86.0,204.0,60.0,11.0,0.0
5136,86.0,0.0,60.0,10.0,0.0
5137,69.0,0.0,960.0,2.0,0.0
5138,57.0,240.0,180.0,13.0,0.0
5139,86.0,0.0,1140.0,1.0,0.0
5140,90.0,0.0,660.0,11.0,0.0
5141,93.0,0.0,1140.0,0.0,0.0
5142,78.0,0.0,180.0,12.0,0.0
5143,69.0,0.0,1140.0,3.0,0.0
5144,90.0,0.0,1140.0,1.0,0.0
5145,45.0,0.0,180.0,14.0,0.0
5146,90.0,0.0,660.0,10.0,0.0
5147,81.0,0.0,1140.0,4.0,0.0
5148,57.0,0.0,180.0,13.0,0.0
5149,74.0,240.0,180.0,12.0,0.0
5150,45.0,0.0,180.0,14.0,0.0
5151,74.0,0.0,180.0,12.0,0.0
5152,45.0,240.0,180.0,14.0,0.0
5153,57.0,0.0,180.0,13.0,0.0
5154,74.0,24.0,180.0,12.0,0.0
5155,57.0,0.0,180.0,13.0,0.0
5156,45.0,0.0,180.0,14.0,0.0
5157,86.0,0.0,90.0,10.0,0.0
5158,86.0,24.0,90.0,11.0,0.0
5159,57.0,96.0,180.0,13.0,0.0
5160,90.0,0.0,300.0,11.0,0.0
5161,45.0,0.0,180.0,14.0,0.0
5162,66.0,192.0,15.0,2.0,0.0
5163,62.0,48.0,390.0,2.0,0.0
5164,90.0,96.0,300.0,10.0,0.0
5165,74.0,0.0,180.0,12.0,0.0
5166,45.0,24.0,180.0,14.0,0.0
5167,74.0,0.0,180.0,12.0,0.0
5168,57.0,0.0,180.0,13.0,0.0
5169,86.0,216.0,90.0,11.0,0.0
5170,86.0,0.0,90.0,10.0,0.0
5171,76.0,0.0,1140.0,1.0,0.0
5172,79.0,0.0,1140.0,1.0,0.0
5173,57.0,72.0,180.0,13.0,0.0
5174,45.0,0.0,180.0,14.0,0.0
5175,69.0,48.0,390.0,3.0,0.0
5176,85.0,0.0,1140.0,0.0,0.0
5177,73.0,0.0,180.0,12.0,0.0
5178,64.0,0.0,960.0,2.0,0.0
5179,81.0,0.0,390.0,4.0,0.0
5180,91.0,0.0,270.0,11.0,0.0
5181,91.0,120.0,270.0,10.0,0.0
5182,67.0,192.0,960.0,2.0,0.0
5183,45.0,0.0,180.0,14.0,0.0
5184,73.0,240.0,180.0,12.0,0.0
5185,57.0,0.0,180.0,13.0,0.0
5186,88.0,0.0,270.0,10.0,0.0
5187,57.0,72.0,180.0,13.0,0.0
5188,76.0,0.0,180.0,12.0,0.0
5189,69.0,48.0,390.0,3.0,0.0
5190,81.0,0.0,390.0,4.0,0.0
5191,88.0,120.0,270.0,11.0,0.0
5192,45.0,0.0,180.0,14.0,0.0
5193,57.0,0.0,180.0,13.0,0.0
5194,45.0,0.0,180.0,14.0,0.0
5195,76.0,48.0,180.0,12.0,0.0
5196,79.0,72.0,180.0,12.0,0.0
5197,85.0,120.0,270.0,10.0,0.0
5198,57.0,0.0,180.0,13.0,0.0
5199,85.0,0.0,270.0,11.0,0.0
5200,45.0,0.0,180.0,14.0,0.0
5201,64.0,0.0,390.0,2.0,0.0
5202,61.0,0.0,390.0,2.0,0.0
5203,81.0,48.0,390.0,4.0,0.0
5204,69.0,0.0,390.0,3.0,0.0
5205,57.0,0.0,180.0,13.0,0.0
5206,45.0,0.0,180.0,14.0,0.0
5207,79.0,144.0,180.0,12.0,0.0
5208,50.0,0.0,390.0,14.0,0.0
5209,86.0,72.0,390.0,0.0,0.0
5210,62.0,0.0,390.0,13.0,0.0
5211,50.0,0.0,390.0,5.0,0.0
5212,81.0,0.0,390.0,4.0,0.0
5213,74.0,0.0,390.0,4.0,0.0
5214,62.0,0.0,390.0,2.0,0.0
5215,62.0,0.0,390.0,3.0,0.0
5216,86.0,120.0,90.0,11.0,0.0
5217,69.0,0.0,390.0,3.0,0.0
5218,78.0,0.0,390.0,12.0,0.0
5219,74.0,0.0,390.0,1.0,0.0
5220,86.0,0.0,90.0,10.0,0.0
5221,78.0,0.0,390.0,1.0,0.0
5222,86.0,0.0,90.0,10.0,0.0
5223,86.0,120.0,90.0,11.0,0.0
5224,81.0,0.0,90.0,10.0,0.0
5225,81.0,48.0,90.0,11.0,0.0
5226,81.0,0.0,90.0,11.0,0.0
5227,81.0,120.0,90.0,10.0,0.0
5228,90.0,120.0,90.0,10.0,0.0
5229,90.0,0.0,90.0,11.0,0.0
5230,90.0,0.0,90.0,11.0,0.0
5231,90.0,120.0,90.0,10.0,0.0
5232,86.0,120.0,90.0,10.0,0.0
5233,86.0,0.0,90.0,11.0,0.0
5234,86.0,0.0,90.0,11.0,0.0
5235,86.0,120.0,90.0,10.0,0.0
5236,81.0,0.0,90.0,11.0,0.0
5237,81.0,120.0,90.0,10.0,0.0
5238,81.0,0.0,90.0,11.0,0.0
5239,81.0,120.0,90.0,10.0,0.0
5240,66.0,0.0,180.0,13.0,0.0
5241,54.0,0.0,180.0,14.0,0.0
5242,78.0,96.0,90.0,10.0,0.0
5243,78.0,0.0,180.0,12.0,0.0
5244,78.0,0.0,180.0,1.0,0.0
5245,90.0,0.0,180.0,0.0,0.0
5246,78.0,0.0,90.0,11.0,0.0
5247,66.0,24.0,180.0,2.0,0.0
5248,78.0,120.0,90.0,10.0,0.0
5249,78.0,0.0,90.0,11.0,0.0
5250,67.0,24.0,180.0,2.0,0.0
5251,79.0,0.0,90.0,11.0,0.0
5252,67.0,0.0,180.0,13.0,0.0
5253,91.0,0.0,180.0,0.0,0.0
5254,79.0,0.0,180.0,12.0,0.0
5255,79.0,96.0,90.0,10.0,0.0
5256,79.0,0.0,180.0,1.0,0.0
5257,55.0,0.0,180.0,14.0,0.0
5258,79.0,0.0,90.0,11.0,0.0
5259,79.0,120.0,90.0,10.0,0.0
5260,95.0,0.0,180.0,0.0,0.0
5261,83.0,0.0,90.0,10.0,0.0
5262,59.0,0.0,180.0,14.0,0.0
5263,83.0,0.0,180.0,1.0,0.0
5264,83.0,0.0,180.0,12.0,0.0
5265,83.0,96.0,90.0,11.0,0.0
5266,71.0,0.0,180.0,13.0,0.0
5267,71.0,24.0,180.0,2.0,0.0
5268,83.0,0.0,90.0,10.0,0.0
5269,83.0,120.0,90.0,11.0,0.0
5270,76.0,0.0,90.0,11.0,0.0
5271,52.0,24.0,180.0,14.0,0.0
5272,64.0,0.0,180.0,2.0,0.0
5273,76.0,0.0,180.0,1.0,0.0
5274,64.0,0.0,180.0,13.0,0.0
5275,88.0,0.0,180.0,0.0,0.0
5276,76.0,0.0,180.0,12.0,0.0
5277,76.0,96.0,90.0,10.0,0.0
5278,76.0,0.0,90.0,10.0,0.0
5279,76.0,120.0,90.0,11.0,0.0
5280,55.0,0.0,180.0,14.0,0.0
5281,67.0,0.0,180.0,13.0,0.0
5282,91.0,0.0,180.0,0.0,0.0
5283,79.0,0.0,180.0,1.0,0.0
5284,79.0,0.0,90.0,10.0,0.0
5285,79.0,0.0,180.0,12.0,0.0
5286,67.0,24.0,180.0,2.0,0.0
5287,79.0,96.0,90.0,11.0,0.0
5288,79.0,120.0,90.0,11.0,0.0
5289,79.0,0.0,90.0,10.0,0.0
5290,73.0,0.0,90.0,11.0,0.0
5291,49.0,24.0,180.0,14.0,0.0
5292,85.0,0.0,180.0,0.0,0.0
5293,73.0,96.0,90.0,10.0,0.0
5294,73.0,0.0,180.0,12.0,0.0
5295,61.0,0.0,180.0,13.0,0.0
5296,73.0,0.0,180.0,1.0,0.0
5297,61.0,0.0,180.0,2.0,0.0
5298,73.0,0.0,90.0,11.0,0.0
5299,73.0,120.0,90.0,10.0,0.0
5300,76.0,0.0,180.0,1.0,0.0
5301,64.0,24.0,180.0,13.0,0.0
5302,88.0,0.0,180.0,0.0,0.0
5303,76.0,96.0,90.0,10.0,0.0
5304,64.0,0.0,180.0,2.0,0.0
5305,76.0,0.0,180.0,12.0,0.0
5306,52.0,0.0,180.0,14.0,0.0
5307,76.0,0.0,90.0,11.0,0.0
5308,76.0,120.0,90.0,10.0,0.0
5309,76.0,0.0,90.0,11.0,0.0
5310,74.0,0.0,180.0,1.0,0.0
5311,74.0,0.0,390.0,4.0,0.0
5312,74.0,0.0,180.0,12.0,0.0
5313,50.0,0.0,180.0,14.0,0.0
5314,62.0,0.0,390.0,3.0,0.0
5315,62.0,0.0,180.0,13.0,0.0
5316,50.0,48.0,390.0,5.0,0.0
5317,62.0,0.0,180.0,2.0,0.0
5318,74.0,96.0,90.0,10.0,0.0
5319,74.0,0.0,90.0,11.0,0.0
5320,86.0,24.0,180.0,0.0,0.0
5321,74.0,0.0,90.0,11.0,0.0
5322,74.0,120.0,90.0,10.0,0.0
5323,69.0,24.0,180.0,1.0,0.0
5324,69.0,48.0,90.0,11.0,0.0
5325,57.0,0.0,180.0,13.0,0.0
5326,45.0,0.0,180.0,14.0,0.0
5327,81.0,0.0,180.0,0.0,0.0
5328,69.0,0.0,90.0,10.0,0.0
5329,57.0,0.0,180.0,2.0,0.0
5330,69.0,0.0,180.0,12.0,0.0
5331,69.0,120.0,90.0,11.0,0.0
5332,69.0,0.0,90.0,10.0,0.0
5333,90.0,0.0,180.0,0.0,0.0
5334,66.0,0.0,180.0,13.0,0.0
5335,66.0,0.0,180.0,2.0,0.0
5336,78.0,0.0,180.0,1.0,0.0
5337,54.0,24.0,180.0,14.0,0.0
5338,78.0,0.0,180.0,12.0,0.0
5339,78.0,96.0,90.0,10.0,0.0
5340,78.0,0.0,90.0,11.0,0.0
5341,78.0,0.0,90.0,11.0,0.0
5342,78.0,120.0,90.0,10.0,0.0
5343,74.0,0.0,90.0,10.0,0.0
5344,74.0,96.0,90.0,11.0,0.0
5345,50.0,0.0,180.0,14.0,0.0
5346,62.0,24.0,180.0,13.0,0.0
5347,74.0,0.0,180.0,12.0,0.0
5348,86.0,0.0,180.0,0.0,0.0
5349,62.0,0.0,180.0,2.0,0.0
5350,74.0,0.0,180.0,1.0,0.0
5351,74.0,120.0,90.0,10.0,0.0
5352,74.0,0.0,90.0,11.0,0.0
5353,81.0,0.0,180.0,0.0,0.0
5354,69.0,0.0,90.0,10.0,0.0
5355,69.0,24.0,180.0,12.0,0.0
5356,57.0,0.0,180.0,13.0,0.0
5357,69.0,0.0,180.0,1.0,0.0
5358,57.0,0.0,180.0,2.0,0.0
5359,45.0,0.0,180.0,14.0,0.0
5360,69.0,96.0,90.0,11.0,0.0
5361,69.0,0.0,90.0,11.0,0.0
5362,69.0,120.0,90.0,10.0,0.0
5363,66.0,0.0,180.0,1.0,0.0
5364,78.0,24.0,180.0,1.0,0.0
5365,42.0,0.0,180.0,14.0,0.0
5366,90.0,0.0,180.0,0.0,0.0
5367,66.0,0.0,180.0,12.0,0.0
5368,54.0,0.0,180.0,2.0,0.0
5369,66.0,96.0,90.0,10.0,0.0
5370,54.0,0.0,180.0,13.0,0.0
5371,66.0,0.0,90.0,11.0,0.0
5372,66.0,120.0,90.0,11.0,0.0
5373,66.0,0.0,90.0,10.0,0.0
5374,67.0,96.0,90.0,11.0,0.0
5375,43.0,0.0,180.0,14.0,0.0
5376,55.0,0.0,180.0,13.0,0.0
5377,79.0,0.0,180.0,1.0,0.0
5378,67.0,0.0,180.0,12.0,0.0
5379,91.0,24.0,180.0,0.0,0.0
5380,55.0,0.0,180.0,2.0,0.0
5381,67.0,0.0,180.0,1.0,0.0
5382,67.0,0.0,90.0,10.0,0.0
5383,67.0,0.0,90.0,10.0,0.0
5384,67.0,120.0,90.0,11.0,0.0
5385,47.0,0.0,180.0,14.0,0.0
5386,59.0,0.0,180.0,2.0,0.0
5387,71.0,0.0,90.0,10.0,0.0
5388,71.0,0.0,180.0,12.0,0.0
5389,83.0,24.0,180.0,1.0,0.0
5390,71.0,96.0,90.0,11.0,0.0
5391,71.0,0.0,180.0,1.0,0.0
5392,95.0,0.0,180.0,0.0,0.0
5393,59.0,0.0,180.0,13.0,0.0
5394,71.0,120.0,90.0,11.0,0.0
5395,71.0,0.0,90.0,10.0,0.0
5396,52.0,0.0,180.0,2.0,0.0
5397,40.0,0.0,180.0,14.0,0.0
5398,64.0,0.0,180.0,12.0,0.0
5399,88.0,24.0,180.0,0.0,0.0
5400,64.0,96.0,90.0,11.0,0.0
5401,52.0,0.0,180.0,13.0,0.0
5402,64.0,0.0,180.0,1.0,0.0
5403,76.0,0.0,180.0,1.0,0.0
5404,64.0,0.0,90.0,10.0,0.0
5405,64.0,120.0,90.0,10.0,0.0
5406,64.0,0.0,90.0,11.0,0.0
5407,67.0,96.0,90.0,11.0,0.0
5408,67.0,0.0,180.0,1.0,0.0
5409,79.0,0.0,180.0,1.0,0.0
5410,43.0,0.0,180.0,14.0,0.0
5411,55.0,24.0,180.0,2.0,0.0
5412,67.0,0.0,180.0,12.0,0.0
5413,55.0,0.0,180.0,13.0,0.0
5414,91.0,0.0,180.0,0.0,0.0
5415,67.0,0.0,90.0,10.0,0.0
5416,67.0,120.0,90.0,11.0,0.0
5417,67.0,0.0,90.0,10.0,0.0
5418,61.0,0.0,90.0,11.0,0.0
5419,61.0,0.0,180.0,1.0,0.0
5420,49.0,0.0,180.0,13.0,0.0
5421,61.0,0.0,180.0,12.0,0.0
5422,73.0,0.0,180.0,1.0,0.0
5423,37.0,0.0,180.0,14.0,0.0
5424,85.0,24.0,180.0,0.0,0.0
5425,61.0,96.0,90.0,10.0,0.0
5426,49.0,0.0,180.0,2.0,0.0
5427,61.0,120.0,90.0,10.0,0.0
5428,61.0,0.0,90.0,11.0,0.0
5429,52.0,24.0,180.0,13.0,0.0
5430,40.0,0.0,180.0,14.0,0.0
5431,76.0,0.0,180.0,1.0,0.0
5432,64.0,0.0,180.0,12.0,0.0
5433,64.0,96.0,90.0,10.0,0.0
5434,52.0,0.0,180.0,2.0,0.0
5435,88.0,0.0,180.0,0.0,0.0
5436,64.0,0.0,90.0,11.0,0.0
5437,64.0,0.0,180.0,1.0,0.0
5438,64.0,0.0,90.0,11.0,0.0
5439,64.0,216.0,90.0,10.0,0.0
5440,86.0,0.0,390.0,0.0,0.0
5441,62.0,0.0,390.0,1.0,0.0
5442,62.0,144.0,180.0,10.0,0.0
5443,50.0,0.0,390.0,5.0,0.0
5444,74.0,0.0,390.0,4.0,0.0
5445,62.0,0.0,180.0,11.0,0.0
5446,50.0,0.0,390.0,2.0,0.0
5447,38.0,0.0,390.0,14.0,0.0
5448,62.0,0.0,390.0,3.0,0.0
5449,50.0,0.0,390.0,13.0,0.0
5450,62.0,72.0,390.0,12.0,0.0
5451,74.0,0.0,390.0,1.0,0.0
5452,64.0,0.0,90.0,10.0,0.0
5453,64.0,48.0,90.0,11.0,0.0
5454,66.0,120.0,90.0,11.0,0.0
5455,66.0,0.0,90.0,10.0,0.0
5456,67.0,0.0,90.0,10.0,0.0
5457,67.0,120.0,90.0,11.0,0.0
5458,69.0,0.0,90.0,11.0,0.0
5459,69.0,120.0,90.0,10.0,0.0
5460,71.0,120.0,90.0,11.0,0.0
5461,71.0,0.0,90.0,10.0,0.0
5462,73.0,0.0,90.0,11.0,0.0
5463,73.0,120.0,90.0,10.0,0.0
5464,74.0,0.0,90.0,10.0,0.0
5465,74.0,144.0,90.0,11.0,0.0
5466,73.0,0.0,120.0,10.0,0.0
5467,73.0,120.0,120.0,11.0,0.0
5468,74.0,0.0,120.0,11.0,0.0
5469,74.0,96.0,120.0,10.0,0.0
5470,73.0,0.0,90.0,11.0,0.0
5471,73.0,216.0,90.0,10.0,0.0
5472,38.0,0.0,180.0,14.0,0.0
5473,74.0,0.0,180.0,11.0,0.0
5474,62.0,0.0,390.0,3.0,0.0
5475,74.0,144.0,180.0,0.0,0.0
5476,50.0,0.0,390.0,5.0,0.0
5477,62.0,0.0,180.0,12.0,0.0
5478,50.0,0.0,180.0,13.0,0.0
5479,74.0,72.0,390.0,4.0,0.0
5480,74.0,0.0,180.0,1.0,0.0
5481,74.0,0.0,180.0,10.0,0.0
5482,50.0,0.0,180.0,2.0,0.0
5483,52.0,0.0,90.0,2.0,0.0
5484,64.0,0.0,90.0,12.0,0.0
5485,76.0,0.0,90.0,1.0,0.0
5486,40.0,48.0,90.0,14.0,0.0
5487,76.0,0.0,90.0,0.0,0.0
5488,76.0,0.0,90.0,10.0,0.0
5489,76.0,0.0,90.0,11.0,0.0
5490,52.0,0.0,90.0,13.0,0.0
5491,78.0,0.0,90.0,11.0,0.0
5492,78.0,120.0,90.0,0.0,0.0
5493,66.0,0.0,90.0,12.0,0.0
5494,42.0,0.0,90.0,14.0,0.0
5495,78.0,0.0,90.0,1.0,0.0
5496,54.0,0.0,90.0,2.0,0.0
5497,54.0,0.0,90.0,13.0,0.0
5498,78.0,0.0,90.0,10.0,0.0
5499,79.0,0.0,90.0,1.0,0.0
5500,79.0,120.0,90.0,0.0,0.0
5501,55.0,0.0,90.0,2.0,0.0
5502,79.0,0.0,90.0,10.0,0.0
5503,55.0,0.0,90.0,13.0,0.0
5504,79.0,0.0,90.0,11.0,0.0
5505,67.0,0.0,90.0,12.0,0.0
5506,43.0,0.0,90.0,14.0,0.0
5507,81.0,0.0,90.0,1.0,0.0
5508,81.0,0.0,90.0,10.0,0.0
5509,69.0,0.0,90.0,12.0,0.0
5510,45.0,0.0,90.0,14.0,0.0
5511,57.0,0.0,90.0,13.0,0.0
5512,81.0,120.0,90.0,0.0,0.0
5513,57.0,0.0,90.0,2.0,0.0
5514,81.0,0.0,90.0,11.0,0.0
5515,59.0,0.0,90.0,2.0,0.0
5516,59.0,0.0,90.0,13.0,0.0
5517,83.0,0.0,90.0,10.0,0.0
5518,83.0,0.0,90.0,0.0,0.0
5519,71.0,120.0,90.0,12.0,0.0
5520,83.0,0.0,90.0,1.0,0.0
5521,83.0,0.0,90.0,11.0,0.0
5522,47.0,0.0,90.0,14.0,0.0
5523,49.0,0.0,90.0,14.0,0.0
5524,61.0,0.0,90.0,13.0,0.0
5525,85.0,0.0,90.0,0.0,0.0
5526,73.0,0.0,90.0,12.0,0.0
5527,85.0,0.0,90.0,11.0,0.0
5528,61.0,120.0,90.0,2.0,0.0
5529,85.0,0.0,90.0,1.0,0.0
5530,85.0,0.0,90.0,10.0,0.0
5531,74.0,0.0,90.0,12.0,0.0
5532,86.0,0.0,90.0,11.0,0.0
5533,86.0,0.0,90.0,0.0,0.0
5534,86.0,0.0,90.0,1.0,0.0
5535,50.0,0.0,90.0,14.0,0.0
5536,62.0,0.0,90.0,2.0,0.0
5537,62.0,144.0,90.0,13.0,0.0
5538,86.0,0.0,90.0,10.0,0.0
5539,85.0,120.0,120.0,10.0,0.0
5540,61.0,0.0,120.0,2.0,0.0
5541,85.0,0.0,120.0,1.0,0.0
5542,85.0,0.0,120.0,11.0,0.0
5543,61.0,0.0,120.0,13.0,0.0
5544,85.0,0.0,120.0,0.0,0.0
5545,49.0,0.0,120.0,14.0,0.0
5546,73.0,0.0,120.0,12.0,0.0
5547,62.0,0.0,120.0,13.0,0.0
5548,50.0,0.0,120.0,14.0,0.0
5549,62.0,0.0,120.0,2.0,0.0
5550,86.0,0.0,120.0,0.0,0.0
5551,86.0,0.0,120.0,1.0,0.0
5552,86.0,96.0,120.0,11.0,0.0
5553,74.0,0.0,120.0,12.0,0.0
5554,86.0,0.0,120.0,10.0,0.0
5555,85.0,0.0,90.0,0.0,0.0
5556,85.0,0.0,90.0,1.0,0.0
5557,61.0,0.0,90.0,2.0,0.0
5558,61.0,0.0,90.0,13.0,0.0
5559,85.0,0.0,90.0,10.0,0.0
5560,85.0,0.0,90.0,11.0,0.0
5561,73.0,168.0,90.0,12.0,0.0
5562,49.0,0.0,90.0,14.0,0.0
5563,74.0,0.0,390.0,4.0,0.0
5564,86.0,0.0,150.0,1.0,0.0
5565,62.0,0.0,150.0,13.0,0.0
5566,86.0,0.0,150.0,10.0,0.0
5567,50.0,0.0,390.0,5.0,0.0
5568,86.0,216.0,150.0,11.0,0.0
5569,62.0,0.0,150.0,2.0,0.0
5570,62.0,72.0,390.0,3.0,0.0
5571,50.0,0.0,150.0,14.0,0.0
5572,86.0,0.0,150.0,0.0,0.0
5573,74.0,0.0,150.0,12.0,0.0
5574,76.0,0.0,120.0,12.0,0.0
5575,88.0,0.0,120.0,10.0,0.0
5576,64.0,0.0,120.0,13.0,0.0
5577,88.0,0.0,120.0,0.0,0.0
5578,52.0,0.0,120.0,14.0,0.0
5579,64.0,0.0,120.0,2.0,0.0
5580,88.0,24.0,120.0,1.0,0.0
5581,88.0,0.0,120.0,11.0,0.0
5582,85.0,0.0,90.0,0.0,0.0
5583,49.0,0.0,90.0,14.0,0.0
5584,61.0,0.0,90.0,13.0,0.0
5585,85.0,168.0,90.0,1.0,0.0
5586,73.0,0.0,90.0,12.0,0.0
5587,61.0,0.0,90.0,2.0,0.0
5588,85.0,0.0,90.0,11.0,0.0
5589,85.0,0.0,90.0,10.0,0.0
5590,62.0,0.0,150.0,13.0,0.0
5591,86.0,216.0,150.0,1.0,0.0
5592,62.0,0.0,150.0,2.0,0.0
5593,50.0,0.0,390.0,5.0,0.0
5594,50.0,0.0,150.0,14.0,0.0
5595,62.0,72.0,390.0,3.0,0.0
5596,74.0,0.0,150.0,12.0,0.0
5597,86.0,0.0,150.0,0.0,0.0
5598,86.0,0.0,150.0,10.0,0.0
5599,74.0,0.0,390.0,4.0,0.0
5600,86.0,0.0,150.0,11.0,0.0
5601,88.0,0.0,120.0,11.0,0.0
5602,64.0,0.0,120.0,13.0,0.0
5603,76.0,24.0,120.0,12.0,0.0
5604,52.0,0.0,120.0,14.0,0.0
5605,88.0,0.0,120.0,0.0,0.0
5606,88.0,0.0,120.0,10.0,0.0
5607,88.0,0.0,120.0,1.0,0.0
5608,64.0,0.0,120.0,2.0,0.0
5609,85.0,0.0,90.0,10.0,0.0
5610,85.0,0.0,90.0,0.0,0.0
5611,73.0,0.0,90.0,12.0,0.0
5612,85.0,0.0,90.0,11.0,0.0
5613,61.0,0.0,90.0,2.0,0.0
5614,49.0,0.0,90.0,14.0,0.0
5615,85.0,168.0,90.0,1.0,0.0
5616,61.0,0.0,90.0,13.0,0.0
5617,74.0,0.0,150.0,12.0,0.0
5618,86.0,0.0,150.0,10.0,0.0
5619,86.0,0.0,150.0,11.0,0.0
5620,50.0,216.0,150.0,14.0,0.0
5621,50.0,0.0,390.0,5.0,0.0
5622,74.0,0.0,390.0,4.0,0.0
5623,62.0,72.0,390.0,3.0,0.0
5624,86.0,0.0,150.0,1.0,0.0
5625,62.0,0.0,150.0,2.0,0.0
5626,62.0,0.0,150.0,13.0,0.0
5627,86.0,0.0,150.0,0.0,0.0
5628,76.0,24.0,120.0,12.0,0.0
5629,88.0,0.0,120.0,1.0,0.0
5630,88.0,0.0,120.0,11.0,0.0
5631,64.0,0.0,120.0,13.0,0.0
5632,88.0,0.0,120.0,10.0,0.0
5633,52.0,0.0,120.0,14.0,0.0
5634,88.0,0.0,120.0,0.0,0.0
5635,64.0,0.0,120.0,2.0,0.0
5636,73.0,0.0,90.0,12.0,0.0
5637,85.0,0.0,90.0,11.0,0.0
5638,85.0,0.0,90.0,10.0,0.0
5639,61.0,0.0,90.0,2.0,0.0
5640,61.0,0.0,90.0,13.0,0.0
5641,85.0,0.0,90.0,1.0,0.0
5642,85.0,336.0,90.0,0.0,0.0
5643,49.0,0.0,90.0,14.0,0.0
5644,62.0,0.0,300.0,3.0,0.0
5645,50.0,408.0,390.0,5.0,0.0
5646,62.0,0.0,300.0,13.0,0.0
5647,74.0,0.0,300.0,12.0,0.0
5648,86.0,0.0,300.0,1.0,0.0
5649,86.0,72.0,300.0,10.0,0.0
5650,62.0,0.0,300.0,2.0,0.0
5651,86.0,0.0,300.0,11.0,0.0
5652,74.0,0.0,300.0,4.0,0.0
5653,50.0,0.0,300.0,14.0,0.0
5654,86.0,0.0,300.0,0.0,0.0
5655,50.0,960.0,390.0,5.0,0.0
5656,62.0,0.0,300.0,3.0,0.0
5657,50.0,0.0,300.0,3.0,0.0
5658,74.0,0.0,300.0,0.0,0.0
5659,66.0,0.0,300.0,10.0,0.0
5660,74.0,0.0,300.0,10.0,0.0
5661,50.0,0.0,300.0,2.0,0.0
5662,50.0,0.0,300.0,13.0,0.0
5663,62.0,72.0,300.0,12.0,0.0
5664,74.0,0.0,300.0,11.0,0.0
5665,74.0,0.0,300.0,1.0,0.0
5666,66.0,0.0,300.0,11.0,0.0
5667,62.0,0.0,300.0,4.0,0.0
5668,74.0,0.0,300.0,4.0,0.0
5669,38.0,0.0,300.0,14.0,0.0
5670,43.0,576.0,390.0,14.0,0.0
5671,55.0,0.0,390.0,13.0,0.0
5672,67.0,456.0,480.0,10.0,0.0
5673,71.0,984.0,450.0,10.0,0.0
5674,74.0,480.0,1920.0,10.0,0.0
5675,55.0,0.0,480.0,3.0,0.0
5676,67.0,456.0,480.0,3.0,0.0
5677,59.0,504.0,450.0,3.0,0.0
5678,71.0,0.0,450.0,3.0,0.0
5679,62.0,0.0,3270.0,3.0,0.0
5680,74.0,0.0,3270.0,3.0,0.0
5681,83.0,480.0,480.0,10.0,0.0
5682,81.0,864.0,480.0,10.0,0.0
5683,79.0,384.0,960.0,10.0,0.0
5684,72.0,96.0,390.0,11.0,0.0
5685,69.0,0.0,390.0,12.0,0.0
5686,78.0,0.0,390.0,10.0,0.0
5687,72.0,0.0,390.0,11.0,0.0
5688,69.0,480.0,390.0,12.0,0.0
5689,69.0,576.0,390.0,12.0,0.0
5690,72.0,0.0,390.0,11.0,0.0
5691,38.0,0.0,390.0,14.0,0.0
5692,50.0,0.0,390.0,13.0,0.0
5693,78.0,384.0,480.0,10.0,0.0
5694,81.0,1056.0,390.0,10.0,0.0
5695,74.0,480.0,1920.0,10.0,0.0
5696,54.0,0.0,480.0,2.0,0.0
5697,66.0,384.0,480.0,2.0,0.0
5698,57.0,0.0,390.0,2.0,0.0
5699,69.0,576.0,390.0,2.0,0.0
5700,50.0,192.0,2580.0,2.0,0.0
5701,62.0,0.0,2580.0,2.0,0.0
5702,62.0,384.0,480.0,11.0,0.0
5703,66.0,0.0,480.0,10.0,0.0
5704,69.0,960.0,390.0,10.0,0.0
5705,66.0,0.0,390.0,11.0,0.0
5706,69.0,192.0,960.0,11.0,0.0
5707,72.0,0.0,960.0,10.0,0.0
5708,42.0,0.0,480.0,14.0,0.0
5709,54.0,0.0,480.0,13.0,0.0
5710,62.0,96.0,390.0,12.0,0.0
5711,71.0,0.0,390.0,10.0,0.0
5712,55.0,480.0,390.0,13.0,0.0
5713,62.0,0.0,390.0,12.0,0.0
5714,43.0,0.0,390.0,14.0,0.0
5715,67.0,0.0,390.0,11.0,0.0
5716,64.0,0.0,390.0,11.0,0.0
5717,36.0,0.0,390.0,14.0,0.0
5718,48.0,0.0,390.0,13.0,0.0
5719,60.0,576.0,390.0,12.0,0.0
5720,69.0,384.0,480.0,10.0,0.0
5721,76.0,960.0,390.0,10.0,0.0
5722,66.0,0.0,960.0,10.0,0.0
5723,36.0,0.0,480.0,14.0,0.0
5724,62.0,96.0,390.0,11.0,0.0
5725,48.0,384.0,480.0,13.0,0.0
5726,57.0,0.0,480.0,12.0,0.0
5727,62.0,480.0,390.0,11.0,0.0
5728,67.0,0.0,390.0,10.0,0.0
5729,47.0,0.0,390.0,13.0,0.0
5730,35.0,0.0,390.0,14.0,0.0
5731,59.0,0.0,390.0,12.0,0.0
5732,60.0,0.0,390.0,12.0,0.0
5733,64.0,0.0,390.0,11.0,0.0
5734,48.0,0.0,390.0,13.0,0.0
5735,36.0,576.0,390.0,14.0,0.0
5736,69.0,0.0,480.0,11.0,0.0
5737,81.0,384.0,480.0,10.0,0.0
5738,76.0,0.0,390.0,11.0,0.0
5739,88.0,960.0,390.0,10.0,0.0
5740,78.0,384.0,960.0,10.0,0.0
5741,66.0,0.0,960.0,11.0,0.0
5742,48.0,0.0,480.0,14.0,0.0
5743,62.0,96.0,390.0,12.0,0.0
5744,60.0,0.0,480.0,13.0,0.0
5745,67.0,0.0,390.0,11.0,0.0
5746,62.0,0.0,390.0,12.0,0.0
5747,47.0,480.0,390.0,14.0,0.0
5748,59.0,0.0,390.0,13.0,0.0
5749,79.0,0.0,390.0,10.0,0.0
5750,54.0,0.0,960.0,13.0,0.0
5751,69.0,0.0,390.0,11.0,0.0
5752,42.0,0.0,960.0,14.0,0.0
5753,81.0,480.0,480.0,10.0,0.0
5754,62.0,96.0,390.0,12.0,0.0
5755,84.0,384.0,480.0,10.0,0.0
5756,74.0,144.0,1200.0,12.0,0.0
5757,81.0,0.0,480.0,11.0,0.0
5758,43.0,0.0,390.0,14.0,0.0
5759,55.0,0.0,390.0,13.0,0.0
5760,83.0,96.0,390.0,10.0,0.0
5761,79.0,240.0,480.0,11.0,0.0
5762,38.0,0.0,390.0,14.0,0.0
5763,81.0,0.0,390.0,10.0,0.0
5764,50.0,0.0,390.0,13.0,0.0
5765,78.0,96.0,390.0,11.0,0.0
5766,76.0,240.0,240.0,12.0,0.0
5767,74.0,240.0,240.0,12.0,0.0
5768,71.0,240.0,240.0,12.0,0.0
5769,72.0,240.0,240.0,12.0,0.0
5770,69.0,384.0,240.0,12.0,0.0
5771,67.0,576.0,390.0,12.0,0.0
5772,43.0,0.0,480.0,14.0,0.0
5773,55.0,456.0,480.0,13.0,0.0
5774,59.0,0.0,450.0,13.0,0.0
5775,47.0,984.0,450.0,14.0,0.0
5776,62.0,0.0,1920.0,13.0,0.0
5777,50.0,480.0,1920.0,14.0,0.0
5778,79.0,0.0,480.0,1.0,0.0
5779,67.0,384.0,480.0,1.0,0.0
5780,71.0,0.0,390.0,1.0,0.0
5781,83.0,576.0,390.0,1.0,0.0
5782,86.0,0.0,3270.0,1.0,0.0
5783,74.0,576.0,3270.0,1.0,0.0
5784,59.0,0.0,480.0,14.0,0.0
5785,79.0,0.0,480.0,10.0,0.0
5786,74.0,0.0,480.0,12.0,0.0
5787,74.0,0.0,480.0,11.0,0.0
5788,71.0,384.0,480.0,13.0,0.0
5789,78.0,0.0,390.0,11.0,0.0
5790,81.0,0.0,390.0,10.0,0.0
5791,72.0,576.0,390.0,12.0,0.0
5792,69.0,0.0,390.0,13.0,0.0
5793,57.0,0.0,390.0,14.0,0.0
5794,67.0,0.0,960.0,13.0,0.0
5795,79.0,480.0,480.0,11.0,0.0
5796,55.0,240.0,960.0,14.0,0.0
5797,83.0,0.0,960.0,10.0,0.0
5798,71.0,0.0,960.0,12.0,0.0
5799,80.0,0.0,480.0,11.0,0.0
5800,81.0,0.0,390.0,11.0,0.0
5801,86.0,144.0,240.0,10.0,0.0
5802,69.0,0.0,390.0,12.0,0.0
5803,66.0,48.0,390.0,13.0,0.0
5804,54.0,0.0,390.0,14.0,0.0
5805,84.0,432.0,180.0,10.0,0.0
5806,84.0,0.0,390.0,10.0,0.0
5807,81.0,0.0,390.0,11.0,0.0
5808,66.0,384.0,480.0,13.0,0.0
5809,54.0,0.0,480.0,14.0,0.0
5810,57.0,0.0,390.0,14.0,0.0
5811,69.0,1056.0,390.0,13.0,0.0
5812,62.0,0.0,1920.0,13.0,0.0
5813,50.0,0.0,1920.0,14.0,0.0
5814,78.0,384.0,480.0,1.0,0.0
5815,90.0,0.0,480.0,0.0,0.0
5816,81.0,576.0,390.0,1.0,0.0
5817,93.0,0.0,390.0,0.0,0.0
5818,74.0,0.0,2580.0,1.0,0.0
5819,62.0,0.0,480.0,11.0,0.0
5820,86.0,192.0,2580.0,0.0,0.0
5821,74.0,480.0,480.0,10.0,0.0
5822,63.0,0.0,480.0,11.0,0.0
5823,42.0,0.0,480.0,14.0,0.0
5824,54.0,0.0,480.0,13.0,0.0
5825,60.0,384.0,480.0,12.0,0.0
5826,75.0,0.0,480.0,10.0,0.0
5827,64.0,0.0,480.0,11.0,0.0
5828,57.0,0.0,390.0,13.0,0.0
5829,72.0,96.0,390.0,12.0,0.0
5830,76.0,480.0,480.0,10.0,0.0
5831,45.0,0.0,390.0,14.0,0.0
5832,60.0,192.0,960.0,13.0,0.0
5833,65.0,480.0,480.0,11.0,0.0
5834,69.0,0.0,960.0,12.0,0.0
5835,77.0,0.0,480.0,10.0,0.0
5836,48.0,0.0,960.0,14.0,0.0
5837,78.0,0.0,480.0,10.0,0.0
5838,66.0,0.0,480.0,11.0,0.0
5839,79.0,0.0,390.0,10.0,0.0
5840,71.0,1056.0,390.0,12.0,0.0
5841,47.0,0.0,390.0,14.0,0.0
5842,67.0,0.0,390.0,11.0,0.0
5843,59.0,0.0,390.0,13.0,0.0
5844,72.0,0.0,1680.0,11.0,0.0
5845,84.0,240.0,1680.0,10.0,0.0
5846,64.0,0.0,480.0,12.0,0.0
5847,57.0,384.0,480.0,13.0,0.0
5848,45.0,0.0,480.0,14.0,0.0
5849,64.0,0.0,390.0,13.0,0.0
5850,69.0,336.0,390.0,12.0,0.0
5851,52.0,0.0,390.0,14.0,0.0
5852,54.0,0.0,960.0,13.0,0.0
5853,62.0,48.0,1140.0,12.0,0.0
5854,42.0,0.0,960.0,14.0,0.0
5855,71.0,0.0,240.0,11.0,0.0
5856,83.0,240.0,240.0,10.0,0.0
5857,84.0,0.0,240.0,10.0,0.0
5858,72.0,240.0,240.0,11.0,0.0
5859,86.0,192.0,240.0,10.0,0.0
5860,74.0,0.0,240.0,11.0,0.0
5861,83.0,0.0,240.0,10.0,0.0
5862,55.0,0.0,390.0,13.0,0.0
5863,43.0,48.0,390.0,14.0,0.0
5864,71.0,144.0,240.0,11.0,0.0
5865,79.0,0.0,180.0,10.0,0.0
5866,67.0,1008.0,180.0,11.0,0.0
5867,84.0,0.0,1680.0,10.0,0.0
5868,72.0,240.0,1680.0,11.0,0.0
5869,57.0,0.0,480.0,13.0,0.0
5870,45.0,384.0,480.0,14.0,0.0
5871,76.0,0.0,480.0,12.0,0.0
5872,52.0,0.0,390.0,14.0,0.0
5873,72.0,0.0,390.0,12.0,0.0
5874,64.0,336.0,390.0,13.0,0.0
5875,75.0,0.0,480.0,12.0,0.0
5876,54.0,0.0,960.0,13.0,0.0
5877,42.0,240.0,960.0,14.0,0.0
5878,71.0,0.0,240.0,11.0,0.0
5879,83.0,240.0,240.0,10.0,0.0
5880,72.0,144.0,240.0,11.0,0.0
5881,74.0,96.0,390.0,12.0,0.0
5882,84.0,0.0,240.0,10.0,0.0
5883,86.0,0.0,240.0,10.0,0.0
5884,74.0,0.0,240.0,11.0,0.0
5885,71.0,0.0,240.0,11.0,0.0
5886,83.0,144.0,240.0,10.0,0.0
5887,55.0,0.0,390.0,13.0,0.0
5888,43.0,48.0,390.0,14.0,0.0
5889,74.0,0.0,390.0,12.0,0.0
5890,67.0,0.0,180.0,11.0,0.0
5891,79.0,240.0,180.0,10.0,0.0
5892,48.0,288.0,390.0,14.0,0.0
5893,60.0,0.0,390.0,13.0,0.0
5894,69.0,0.0,390.0,12.0,0.0
5895,75.0,192.0,180.0,11.0,0.0
5896,78.0,0.0,180.0,10.0,0.0
5897,79.0,480.0,180.0,10.0,0.0
5898,76.0,0.0,180.0,11.0,0.0
5899,69.0,0.0,180.0,10.0,0.0
5900,66.0,480.0,180.0,11.0,0.0
5901,71.0,192.0,180.0,10.0,0.0
5902,62.0,288.0,390.0,13.0,0.0
5903,60.0,0.0,390.0,12.0,0.0
5904,68.0,0.0,180.0,11.0,0.0
5905,50.0,0.0,390.0,14.0,0.0
5906,69.0,480.0,180.0,11.0,0.0
5907,72.0,0.0,180.0,10.0,0.0
5908,60.0,0.0,180.0,11.0,0.0
5909,66.0,480.0,180.0,10.0,0.0
5910,67.0,0.0,1140.0,4.0,0.0
5911,79.0,0.0,1140.0,4.0,0.0
5912,55.0,0.0,180.0,2.0,0.0
5913,55.0,0.0,180.0,13.0,0.0
5914,67.0,0.0,1140.0,11.0,0.0
5915,67.0,0.0,1140.0,10.0,0.0
5916,79.0,0.0,1140.0,1.0,0.0
5917,59.0,0.0,1140.0,11.0,0.0
5918,55.0,48.0,390.0,5.0,0.0
5919,67.0,0.0,1140.0,3.0,0.0
5920,55.0,0.0,1140.0,3.0,0.0
5921,67.0,192.0,180.0,12.0,0.0
5922,43.0,0.0,180.0,14.0,0.0
5923,59.0,0.0,1140.0,10.0,0.0
5924,79.0,0.0,1140.0,0.0,0.0
5925,67.0,240.0,180.0,12.0,0.0
5926,43.0,0.0,180.0,14.0,0.0
5927,55.0,0.0,180.0,13.0,0.0
5928,55.0,0.0,180.0,2.0,0.0
5929,55.0,0.0,180.0,2.0,0.0
5930,67.0,0.0,180.0,12.0,0.0
5931,43.0,240.0,180.0,14.0,0.0
5932,55.0,0.0,180.0,13.0,0.0
5933,67.0,0.0,180.0,12.0,0.0
5934,55.0,0.0,180.0,2.0,0.0
5935,43.0,0.0,180.0,14.0,0.0
5936,55.0,240.0,180.0,13.0,0.0
5937,55.0,240.0,180.0,2.0,0.0
5938,67.0,0.0,180.0,12.0,0.0
5939,43.0,0.0,180.0,14.0,0.0
5940,55.0,0.0,180.0,13.0,0.0
5941,55.0,240.0,180.0,13.0,0.0
5942,43.0,0.0,180.0,14.0,0.0
5943,67.0,0.0,180.0,12.0,0.0
5944,55.0,0.0,180.0,2.0,0.0
5945,59.0,0.0,180.0,2.0,0.0
5946,83.0,0.0,780.0,1.0,0.0
5947,83.0,0.0,780.0,0.0,0.0
5948,55.0,48.0,390.0,5.0,0.0
5949,83.0,0.0,780.0,4.0,0.0
5950,71.0,0.0,780.0,4.0,0.0
5951,47.0,192.0,180.0,14.0,0.0
5952,59.0,0.0,180.0,13.0,0.0
5953,71.0,0.0,780.0,3.0,0.0
5954,59.0,0.0,780.0,3.0,0.0
5955,71.0,144.0,780.0,10.0,0.0
5956,71.0,0.0,780.0,11.0,0.0
5957,71.0,0.0,180.0,12.0,0.0
5958,59.0,0.0,180.0,2.0,0.0
5959,71.0,0.0,180.0,12.0,0.0
5960,47.0,0.0,180.0,14.0,0.0
5961,59.0,240.0,180.0,13.0,0.0
5962,47.0,0.0,180.0,14.0,0.0
5963,71.0,0.0,180.0,12.0,0.0
5964,59.0,96.0,180.0,13.0,0.0
5965,59.0,0.0,180.0,2.0,0.0
5966,71.0,240.0,180.0,12.0,0.0
5967,47.0,0.0,180.0,14.0,0.0
5968,59.0,0.0,180.0,13.0,0.0
5969,59.0,0.0,180.0,2.0,0.0
5970,67.0,0.0,180.0,12.0,0.0
5971,67.0,48.0,390.0,3.0,0.0
5972,55.0,0.0,390.0,3.0,0.0
5973,67.0,0.0,390.0,11.0,0.0
5974,43.0,192.0,180.0,14.0,0.0
5975,79.0,0.0,390.0,1.0,0.0
5976,67.0,0.0,390.0,4.0,0.0
5977,55.0,0.0,180.0,2.0,0.0
5978,79.0,0.0,390.0,0.0,0.0
5979,55.0,0.0,180.0,13.0,0.0
5980,67.0,0.0,390.0,10.0,0.0
5981,79.0,0.0,390.0,4.0,0.0
5982,55.0,0.0,180.0,2.0,0.0
5983,67.0,0.0,180.0,12.0,0.0
5984,55.0,240.0,180.0,13.0,0.0
5985,43.0,0.0,180.0,14.0,0.0
5986,50.0,0.0,180.0,2.0,0.0
5987,62.0,0.0,1140.0,4.0,0.0
5988,62.0,0.0,780.0,10.0,0.0
5989,62.0,0.0,180.0,12.0,0.0
5990,62.0,0.0,1140.0,3.0,0.0
5991,62.0,0.0,780.0,11.0,0.0
5992,50.0,0.0,1140.0,3.0,0.0
5993,50.0,192.0,180.0,13.0,0.0
5994,74.0,0.0,780.0,1.0,0.0
5995,50.0,48.0,390.0,5.0,0.0
5996,38.0,0.0,180.0,14.0,0.0
5997,74.0,96.0,780.0,0.0,0.0
5998,74.0,0.0,1140.0,4.0,0.0
5999,50.0,0.0,180.0,2.0,0.0
6000,38.0,0.0,180.0,14.0,0.0
6001,50.0,240.0,180.0,13.0,0.0
6002,62.0,0.0,180.0,12.0,0.0
6003,50.0,0.0,180.0,13.0,0.0
6004,50.0,96.0,180.0,2.0,0.0
6005,38.0,0.0,180.0,14.0,0.0
6006,50.0,48.0,390.0,5.0,0.0
6007,62.0,0.0,180.0,12.0,0.0
6008,62.0,0.0,180.0,12.0,0.0
6009,50.0,0.0,180.0,2.0,0.0
6010,50.0,108.0,180.0,13.0,0.0
6011,38.0,0.0,180.0,14.0,0.0
6012,48.0,48.0,180.0,13.0,0.0
6013,50.0,48.0,390.0,5.0,0.0
6014,74.0,60.0,60.0,1.0,0.0
6015,62.0,0.0,60.0,10.0,0.0
6016,48.0,0.0,180.0,2.0,0.0
6017,74.0,0.0,60.0,0.0,0.0
6018,36.0,0.0,180.0,14.0,0.0
6019,62.0,0.0,60.0,11.0,0.0
6020,60.0,0.0,180.0,12.0,0.0
6021,72.0,60.0,60.0,1.0,0.0
6022,60.0,0.0,60.0,11.0,0.0
6023,72.0,0.0,60.0,0.0,0.0
6024,60.0,0.0,60.0,10.0,0.0
6025,74.0,0.0,60.0,0.0,0.0
6026,62.0,12.0,60.0,10.0,0.0
6027,62.0,0.0,60.0,11.0,0.0
6028,74.0,0.0,60.0,1.0,0.0
6029,72.0,0.0,60.0,0.0,0.0
6030,60.0,0.0,60.0,11.0,0.0
6031,60.0,0.0,60.0,10.0,0.0
6032,72.0,120.0,60.0,1.0,0.0
6033,71.0,24.0,120.0,0.0,0.0
6034,59.0,0.0,120.0,11.0,0.0
6035,36.0,24.0,180.0,14.0,0.0
6036,48.0,0.0,180.0,2.0,0.0
6037,48.0,0.0,180.0,13.0,0.0
6038,59.0,0.0,120.0,10.0,0.0
6039,71.0,0.0,120.0,1.0,0.0
6040,60.0,0.0,180.0,12.0,0.0
6041,60.0,120.0,90.0,11.0,0.0
6042,72.0,0.0,90.0,0.0,0.0
6043,72.0,0.0,90.0,1.0,0.0
6044,60.0,0.0,90.0,10.0,0.0
6045,59.0,96.0,90.0,10.0,0.0
6046,59.0,0.0,180.0,12.0,0.0
6047,35.0,0.0,180.0,14.0,0.0
6048,59.0,0.0,90.0,11.0,0.0
6049,71.0,24.0,180.0,1.0,0.0
6050,55.0,48.0,390.0,5.0,0.0
6051,47.0,0.0,180.0,13.0,0.0
6052,47.0,0.0,180.0,2.0,0.0
6053,71.0,0.0,180.0,0.0,0.0
6054,59.0,0.0,90.0,11.0,0.0
6055,59.0,120.0,90.0,10.0,0.0
6056,59.0,48.0,90.0,10.0,0.0
6057,59.0,0.0,180.0,12.0,0.0
6058,47.0,0.0,180.0,13.0,0.0
6059,59.0,0.0,90.0,11.0,0.0
6060,86.0,0.0,180.0,0.0,0.0
6061,35.0,24.0,180.0,14.0,0.0
6062,74.0,0.0,180.0,1.0,0.0
6063,62.0,0.0,180.0,1.0,0.0
6064,50.0,0.0,180.0,2.0,0.0
6065,59.0,0.0,90.0,11.0,0.0
6066,59.0,120.0,90.0,10.0,0.0
6067,50.0,0.0,180.0,2.0,0.0
6068,71.0,0.0,90.0,11.0,0.0
6069,47.0,0.0,180.0,14.0,0.0
6070,83.0,48.0,390.0,4.0,0.0
6071,74.0,0.0,180.0,1.0,0.0
6072,71.0,0.0,390.0,4.0,0.0
6073,62.0,0.0,180.0,1.0,0.0
6074,59.0,0.0,390.0,3.0,0.0
6075,71.0,0.0,180.0,12.0,0.0
6076,71.0,0.0,390.0,3.0,0.0
6077,86.0,24.0,180.0,0.0,0.0
6078,59.0,0.0,180.0,13.0,0.0
6079,71.0,96.0,90.0,10.0,0.0
6080,71.0,120.0,90.0,11.0,0.0
6081,71.0,0.0,90.0,10.0,0.0
6082,86.0,24.0,180.0,0.0,0.0
6083,59.0,0.0,180.0,13.0,0.0
6084,47.0,0.0,180.0,14.0,0.0
6085,50.0,0.0,180.0,2.0,0.0
6086,71.0,48.0,90.0,10.0,0.0
6087,74.0,0.0,180.0,1.0,0.0
6088,71.0,0.0,180.0,12.0,0.0
6089,62.0,0.0,180.0,1.0,0.0
6090,71.0,0.0,90.0,11.0,0.0
6091,71.0,0.0,90.0,10.0,0.0
6092,71.0,120.0,90.0,11.0,0.0
6093,79.0,0.0,390.0,4.0,0.0
6094,67.0,0.0,390.0,4.0,0.0
6095,86.0,0.0,180.0,0.0,0.0
6096,67.0,0.0,180.0,12.0,0.0
6097,67.0,0.0,90.0,10.0,0.0
6098,55.0,24.0,180.0,13.0,0.0
6099,62.0,0.0,180.0,1.0,0.0
6100,74.0,0.0,180.0,1.0,0.0
6101,67.0,96.0,90.0,11.0,0.0
6102,55.0,0.0,390.0,3.0,0.0
6103,67.0,48.0,390.0,3.0,0.0
6104,50.0,0.0,180.0,2.0,0.0
6105,43.0,0.0,180.0,14.0,0.0
6106,67.0,0.0,90.0,10.0,0.0
6107,67.0,120.0,90.0,11.0,0.0
6108,62.0,0.0,180.0,1.0,0.0
6109,55.0,24.0,180.0,13.0,0.0
6110,50.0,0.0,180.0,2.0,0.0
6111,74.0,0.0,180.0,1.0,0.0
6112,67.0,0.0,90.0,11.0,0.0
6113,86.0,0.0,180.0,0.0,0.0
6114,67.0,0.0,180.0,12.0,0.0
6115,43.0,0.0,180.0,14.0,0.0
6116,67.0,48.0,90.0,10.0,0.0
6117,67.0,120.0,90.0,10.0,0.0
6118,67.0,0.0,90.0,11.0,0.0
6119,50.0,48.0,390.0,5.0,0.0
6120,62.0,0.0,180.0,1.0,0.0
6121,50.0,0.0,180.0,13.0,0.0
6122,74.0,0.0,180.0,1.0,0.0
6123,86.0,24.0,180.0,0.0,0.0
6124,62.0,0.0,180.0,12.0,0.0
6125,62.0,0.0,90.0,10.0,0.0
6126,62.0,0.0,1140.0,3.0,0.0
6127,50.0,0.0,1140.0,3.0,0.0
6128,74.0,0.0,1140.0,4.0,0.0
6129,62.0,0.0,1140.0,4.0,0.0
6130,50.0,0.0,180.0,2.0,0.0
6131,62.0,96.0,90.0,11.0,0.0
6132,38.0,0.0,180.0,14.0,0.0
6133,62.0,0.0,90.0,10.0,0.0
6134,62.0,120.0,90.0,11.0,0.0
6135,50.0,24.0,180.0,13.0,0.0
6136,50.0,0.0,180.0,2.0,0.0
6137,62.0,0.0,90.0,11.0,0.0
6138,62.0,48.0,90.0,10.0,0.0
6139,86.0,0.0,180.0,0.0,0.0
6140,62.0,0.0,180.0,1.0,0.0
6141,38.0,0.0,180.0,14.0,0.0
6142,62.0,0.0,180.0,12.0,0.0
6143,74.0,0.0,180.0,1.0,0.0
6144,62.0,120.0,90.0,11.0,0.0
6145,62.0,0.0,90.0,10.0,0.0
6146,61.0,0.0,90.0,10.0,0.0
6147,86.0,0.0,180.0,0.0,0.0
6148,49.0,0.0,180.0,13.0,0.0
6149,62.0,24.0,180.0,1.0,0.0
6150,61.0,0.0,180.0,12.0,0.0
6151,74.0,0.0,180.0,1.0,0.0
6152,50.0,48.0,390.0,5.0,0.0
6153,50.0,0.0,180.0,2.0,0.0
6154,61.0,96.0,90.0,11.0,0.0
6155,37.0,0.0,180.0,14.0,0.0
6156,61.0,0.0,90.0,10.0,0.0
6157,61.0,120.0,90.0,11.0,0.0
6158,61.0,48.0,90.0,10.0,0.0
6159,37.0,0.0,180.0,14.0,0.0
6160,61.0,0.0,90.0,11.0,0.0
6161,50.0,24.0,180.0,2.0,0.0
6162,49.0,0.0,180.0,13.0,0.0
6163,61.0,0.0,180.0,12.0,0.0
6164,62.0,0.0,180.0,1.0,0.0
6165,86.0,0.0,180.0,0.0,0.0
6166,74.0,0.0,180.0,1.0,0.0
6167,61.0,120.0,90.0,11.0,0.0
6168,61.0,0.0,90.0,10.0,0.0
6169,36.0,24.0,180.0,14.0,0.0
6170,60.0,0.0,180.0,12.0,0.0
6171,60.0,96.0,90.0,10.0,0.0
6172,48.0,0.0,180.0,13.0,0.0
6173,86.0,0.0,180.0,0.0,0.0
6174,50.0,0.0,180.0,2.0,0.0
6175,60.0,0.0,90.0,11.0,0.0
6176,74.0,0.0,180.0,1.0,0.0
6177,62.0,0.0,180.0,1.0,0.0
6178,50.0,48.0,390.0,5.0,0.0
6179,60.0,0.0,90.0,11.0,0.0
6180,60.0,120.0,90.0,10.0,0.0
6181,74.0,24.0,180.0,1.0,0.0
6182,62.0,0.0,180.0,1.0,0.0
6183,36.0,0.0,180.0,14.0,0.0
6184,48.0,0.0,180.0,13.0,0.0
6185,60.0,0.0,90.0,11.0,0.0
6186,50.0,0.0,180.0,2.0,0.0
6187,60.0,48.0,90.0,10.0,0.0
6188,86.0,0.0,180.0,0.0,0.0
6189,60.0,0.0,180.0,12.0,0.0
6190,60.0,120.0,90.0,10.0,0.0
6191,60.0,0.0,90.0,11.0,0.0
6192,74.0,0.0,180.0,1.0,0.0
6193,62.0,0.0,180.0,1.0,0.0
6194,50.0,0.0,180.0,2.0,0.0
6195,59.0,0.0,180.0,12.0,0.0
6196,62.0,0.0,390.0,4.0,0.0
6197,59.0,0.0,90.0,11.0,0.0
6198,62.0,0.0,390.0,3.0,0.0
6199,50.0,0.0,390.0,3.0,0.0
6200,74.0,0.0,390.0,4.0,0.0
6201,35.0,0.0,180.0,14.0,0.0
6202,59.0,96.0,90.0,10.0,0.0
6203,86.0,24.0,180.0,0.0,0.0
6204,55.0,48.0,390.0,5.0,0.0
6205,47.0,0.0,180.0,13.0,0.0
6206,59.0,0.0,90.0,10.0,0.0
6207,59.0,120.0,90.0,11.0,0.0
6208,47.0,24.0,180.0,13.0,0.0
6209,35.0,0.0,180.0,14.0,0.0
6210,59.0,0.0,90.0,10.0,0.0
6211,59.0,0.0,180.0,12.0,0.0
6212,62.0,0.0,180.0,2.0,0.0
6213,50.0,0.0,180.0,2.0,0.0
6214,86.0,0.0,180.0,1.0,0.0
6215,86.0,0.0,180.0,0.0,0.0
6216,59.0,48.0,90.0,11.0,0.0
6217,74.0,0.0,180.0,1.0,0.0
6218,59.0,120.0,90.0,11.0,0.0
6219,59.0,0.0,90.0,10.0,0.0
6220,67.0,0.0,390.0,3.0,0.0
6221,55.0,48.0,390.0,3.0,0.0
6222,67.0,0.0,90.0,10.0,0.0
6223,55.0,0.0,180.0,13.0,0.0
6224,43.0,0.0,180.0,14.0,0.0
6225,67.0,0.0,390.0,4.0,0.0
6226,86.0,0.0,180.0,1.0,0.0
6227,74.0,0.0,180.0,1.0,0.0
6228,86.0,0.0,180.0,0.0,0.0
6229,62.0,0.0,180.0,2.0,0.0
6230,67.0,24.0,180.0,12.0,0.0
6231,79.0,0.0,390.0,4.0,0.0
6232,67.0,96.0,90.0,11.0,0.0
6233,50.0,0.0,180.0,2.0,0.0
6234,67.0,0.0,90.0,11.0,0.0
6235,67.0,120.0,90.0,10.0,0.0
6236,74.0,0.0,180.0,1.0,0.0
6237,86.0,0.0,180.0,1.0,0.0
6238,86.0,24.0,180.0,0.0,0.0
6239,67.0,48.0,90.0,10.0,0.0
6240,55.0,0.0,180.0,13.0,0.0
6241,67.0,0.0,180.0,12.0,0.0
6242,43.0,0.0,180.0,14.0,0.0
6243,62.0,0.0,180.0,2.0,0.0
6244,50.0,0.0,180.0,2.0,0.0
6245,67.0,0.0,90.0,11.0,0.0
6246,67.0,120.0,90.0,10.0,0.0
6247,67.0,0.0,90.0,11.0,0.0
6248,86.0,0.0,180.0,1.0,0.0
6249,50.0,0.0,180.0,2.0,0.0
6250,86.0,0.0,180.0,0.0,0.0
6251,71.0,0.0,390.0,3.0,0.0
6252,74.0,0.0,180.0,1.0,0.0
6253,47.0,24.0,180.0,14.0,0.0
6254,71.0,0.0,390.0,4.0,0.0
6255,83.0,0.0,390.0,4.0,0.0
6256,71.0,0.0,180.0,12.0,0.0
6257,59.0,48.0,390.0,3.0,0.0
6258,59.0,0.0,180.0,13.0,0.0
6259,71.0,96.0,90.0,11.0,0.0
6260,62.0,0.0,180.0,2.0,0.0
6261,71.0,0.0,90.0,10.0,0.0
6262,71.0,0.0,90.0,10.0,0.0
6263,71.0,120.0,90.0,11.0,0.0
6264,71.0,0.0,90.0,11.0,0.0
6265,62.0,0.0,180.0,2.0,0.0
6266,74.0,0.0,180.0,1.0,0.0
6267,86.0,0.0,180.0,1.0,0.0
6268,71.0,48.0,90.0,10.0,0.0
6269,59.0,0.0,180.0,13.0,0.0
6270,86.0,0.0,180.0,0.0,0.0
6271,71.0,0.0,180.0,12.0,0.0
6272,50.0,24.0,180.0,2.0,0.0
6273,47.0,0.0,180.0,14.0,0.0
6274,71.0,120.0,90.0,10.0,0.0
6275,71.0,0.0,90.0,11.0,0.0
6276,86.0,0.0,180.0,0.0,0.0
6277,50.0,0.0,180.0,2.0,0.0
6278,62.0,0.0,180.0,2.0,0.0
6279,50.0,0.0,180.0,14.0,0.0
6280,74.0,96.0,90.0,11.0,0.0
6281,62.0,0.0,180.0,13.0,0.0
6282,74.0,0.0,90.0,10.0,0.0
6283,74.0,48.0,390.0,3.0,0.0
6284,62.0,0.0,390.0,3.0,0.0
6285,74.0,24.0,180.0,12.0,0.0
6286,74.0,0.0,390.0,4.0,0.0
6287,86.0,0.0,390.0,4.0,0.0
6288,50.0,0.0,390.0,5.0,0.0
6289,74.0,0.0,180.0,1.0,0.0
6290,86.0,0.0,180.0,1.0,0.0
6291,74.0,120.0,90.0,11.0,0.0
6292,74.0,0.0,90.0,10.0,0.0
6293,86.0,0.0,180.0,1.0,0.0
6294,50.0,0.0,180.0,14.0,0.0
6295,62.0,0.0,180.0,2.0,0.0
6296,50.0,24.0,180.0,2.0,0.0
6297,74.0,0.0,180.0,1.0,0.0
6298,74.0,0.0,90.0,10.0,0.0
6299,86.0,0.0,180.0,0.0,0.0
6300,74.0,0.0,180.0,12.0,0.0
6301,74.0,48.0,90.0,11.0,0.0
6302,62.0,0.0,180.0,13.0,0.0
6303,74.0,0.0,90.0,11.0,0.0
6304,74.0,120.0,90.0,10.0,0.0
6305,74.0,0.0,180.0,1.0,0.0
6306,86.0,0.0,180.0,1.0,0.0
6307,62.0,0.0,390.0,3.0,0.0
6308,74.0,48.0,390.0,3.0,0.0
6309,50.0,0.0,390.0,5.0,0.0
6310,49.0,24.0,180.0,14.0,0.0
6311,61.0,0.0,180.0,13.0,0.0
6312,73.0,96.0,90.0,10.0,0.0
6313,86.0,0.0,390.0,4.0,0.0
6314,50.0,0.0,180.0,2.0,0.0
6315,62.0,0.0,180.0,2.0,0.0
6316,73.0,0.0,180.0,12.0,0.0
6317,74.0,0.0,390.0,4.0,0.0
6318,73.0,0.0,90.0,11.0,0.0
6319,86.0,0.0,180.0,0.0,0.0
6320,73.0,120.0,90.0,11.0,0.0
6321,73.0,0.0,90.0,10.0,0.0
6322,61.0,0.0,180.0,13.0,0.0
6323,50.0,24.0,180.0,2.0,0.0
6324,62.0,0.0,180.0,2.0,0.0
6325,86.0,0.0,180.0,0.0,0.0
6326,73.0,48.0,90.0,11.0,0.0
6327,73.0,0.0,180.0,12.0,0.0
6328,49.0,0.0,180.0,14.0,0.0
6329,86.0,0.0,180.0,1.0,0.0
6330,74.0,0.0,180.0,1.0,0.0
6331,73.0,0.0,90.0,10.0,0.0
6332,73.0,0.0,90.0,10.0,0.0
6333,73.0,120.0,90.0,11.0,0.0
6334,60.0,0.0,180.0,13.0,0.0
6335,74.0,48.0,390.0,4.0,0.0
6336,50.0,0.0,180.0,2.0,0.0
6337,74.0,0.0,180.0,1.0,0.0
6338,72.0,0.0,90.0,10.0,0.0
6339,62.0,0.0,180.0,2.0,0.0
6340,72.0,96.0,90.0,11.0,0.0
6341,72.0,0.0,180.0,12.0,0.0
6342,50.0,0.0,390.0,5.0,0.0
6343,74.0,0.0,390.0,3.0,0.0
6344,86.0,0.0,180.0,0.0,0.0
6345,62.0,0.0,390.0,3.0,0.0
6346,86.0,0.0,390.0,4.0,0.0
6347,48.0,0.0,180.0,14.0,0.0
6348,86.0,24.0,180.0,1.0,0.0
6349,72.0,0.0,90.0,11.0,0.0
6350,72.0,120.0,90.0,10.0,0.0
6351,74.0,24.0,180.0,1.0,0.0
6352,86.0,0.0,180.0,1.0,0.0
6353,50.0,0.0,180.0,2.0,0.0
6354,62.0,0.0,180.0,2.0,0.0
6355,86.0,0.0,180.0,0.0,0.0
6356,72.0,0.0,90.0,11.0,0.0
6357,72.0,48.0,90.0,10.0,0.0
6358,48.0,0.0,180.0,14.0,0.0
6359,72.0,0.0,180.0,12.0,0.0
6360,60.0,0.0,180.0,13.0,0.0
6361,72.0,204.0,90.0,10.0,0.0
6362,72.0,0.0,90.0,11.0,0.0
6363,86.0,36.0,390.0,1.0,0.0
6364,74.0,0.0,390.0,1.0,0.0
6365,71.0,204.0,180.0,10.0,0.0
6366,71.0,0.0,180.0,11.0,0.0
6367,67.0,0.0,390.0,4.0,0.0
6368,47.0,0.0,390.0,14.0,0.0
6369,50.0,0.0,390.0,2.0,0.0
6370,62.0,0.0,390.0,2.0,0.0
6371,55.0,0.0,390.0,5.0,0.0
6372,71.0,0.0,390.0,12.0,0.0
6373,55.0,0.0,390.0,3.0,0.0
6374,67.0,0.0,390.0,3.0,0.0
6375,79.0,0.0,390.0,4.0,0.0
6376,59.0,0.0,390.0,13.0,0.0
6377,86.0,0.0,390.0,0.0,0.0
6378,91.0,0.0,180.0,11.0,0.0
6379,91.0,240.0,180.0,10.0,0.0
6380,91.0,240.0,180.0,10.0,0.0
6381,91.0,0.0,180.0,11.0,0.0
6382,91.0,0.0,180.0,11.0,0.0
6383,91.0,240.0,180.0,10.0,0.0
6384,91.0,0.0,180.0,10.0,0.0
6385,91.0,240.0,180.0,11.0,0.0
6386,91.0,0.0,180.0,10.0,0.0
6387,91.0,444.0,180.0,11.0,0.0
6388,79.0,0.0,390.0,4.0,0.0
6389,91.0,24.0,1380.0,10.0,0.0
6390,91.0,0.0,1380.0,11.0,0.0
6391,67.0,48.0,390.0,4.0,0.0
6392,55.0,0.0,390.0,5.0,0.0
6393,59.0,0.0,180.0,2.0,0.0
6394,62.0,0.0,180.0,12.0,0.0
6395,47.0,0.0,180.0,14.0,0.0
6396,55.0,0.0,180.0,3.0,0.0
6397,62.0,0.0,180.0,2.0,0.0
6398,67.0,0.0,180.0,3.0,0.0
6399,86.0,0.0,180.0,1.0,0.0
6400,59.0,0.0,180.0,13.0,0.0
6401,91.0,240.0,180.0,0.0,0.0
6402,83.0,0.0,180.0,1.0,0.0
6403,67.0,0.0,180.0,3.0,0.0
6404,55.0,0.0,180.0,3.0,0.0
6405,83.0,0.0,180.0,1.0,0.0
6406,62.0,0.0,180.0,2.0,0.0
6407,59.0,240.0,180.0,2.0,0.0
6408,47.0,0.0,180.0,14.0,0.0
6409,91.0,0.0,180.0,0.0,0.0
6410,86.0,0.0,180.0,1.0,0.0
6411,59.0,0.0,180.0,13.0,0.0
6412,62.0,0.0,180.0,12.0,0.0
6413,83.0,0.0,180.0,1.0,0.0
6414,86.0,0.0,180.0,1.0,0.0
6415,91.0,0.0,180.0,0.0,0.0
6416,47.0,0.0,180.0,14.0,0.0
6417,55.0,0.0,180.0,3.0,0.0
6418,62.0,0.0,180.0,2.0,0.0
6419,59.0,0.0,180.0,13.0,0.0
6420,62.0,0.0,180.0,12.0,0.0
6421,67.0,0.0,180.0,3.0,0.0
6422,59.0,240.0,180.0,2.0,0.0
6423,91.0,0.0,180.0,0.0,0.0
6424,59.0,0.0,180.0,13.0,0.0
6425,55.0,0.0,180.0,3.0,0.0
6426,59.0,0.0,180.0,2.0,0.0
6427,62.0,216.0,180.0,2.0,0.0
6428,62.0,0.0,180.0,12.0,0.0
6429,83.0,0.0,180.0,1.0,0.0
6430,47.0,0.0,180.0,14.0,0.0
6431,67.0,0.0,180.0,3.0,0.0
6432,86.0,0.0,180.0,1.0,0.0
6433,62.0,0.0,180.0,12.0,0.0
6434,67.0,0.0,180.0,3.0,0.0
6435,59.0,0.0,180.0,13.0,0.0
6436,86.0,0.0,180.0,1.0,0.0
6437,83.0,0.0,180.0,1.0,0.0
6438,55.0,0.0,180.0,3.0,0.0
6439,91.0,240.0,180.0,0.0,0.0
6440,59.0,0.0,180.0,2.0,0.0
6441,62.0,0.0,180.0,2.0,0.0
6442,47.0,0.0,180.0,14.0,0.0
6443,64.0,0.0,180.0,2.0,0.0
6444,60.0,0.0,180.0,2.0,0.0
6445,60.0,0.0,180.0,13.0,0.0
6446,84.0,192.0,180.0,1.0,0.0
6447,81.0,0.0,180.0,1.0,0.0
6448,91.0,0.0,180.0,0.0,0.0
6449,55.0,0.0,390.0,5.0,0.0
6450,60.0,48.0,390.0,11.0,0.0
6451,67.0,0.0,390.0,4.0,0.0
6452,79.0,0.0,390.0,4.0,0.0
6453,64.0,0.0,180.0,12.0,0.0
6454,60.0,0.0,390.0,10.0,0.0
6455,55.0,0.0,180.0,3.0,0.0
6456,48.0,0.0,180.0,14.0,0.0
6457,67.0,0.0,180.0,3.0,0.0
6458,91.0,0.0,180.0,0.0,0.0
6459,60.0,0.0,180.0,13.0,0.0
6460,48.0,240.0,180.0,14.0,0.0
6461,84.0,0.0,180.0,1.0,0.0
6462,60.0,0.0,180.0,2.0,0.0
6463,67.0,0.0,180.0,3.0,0.0
6464,81.0,0.0,180.0,1.0,0.0
6465,64.0,0.0,180.0,12.0,0.0
6466,64.0,0.0,180.0,2.0,0.0
6467,55.0,0.0,180.0,3.0,0.0
6468,81.0,0.0,180.0,1.0,0.0
6469,55.0,0.0,180.0,3.0,0.0
6470,67.0,0.0,180.0,3.0,0.0
6471,88.0,0.0,390.0,11.0,0.0
6472,84.0,0.0,180.0,1.0,0.0
6473,88.0,48.0,390.0,10.0,0.0
6474,64.0,0.0,180.0,12.0,0.0
6475,60.0,0.0,180.0,13.0,0.0
6476,64.0,0.0,180.0,2.0,0.0
6477,60.0,0.0,180.0,2.0,0.0
6478,48.0,192.0,180.0,14.0,0.0
6479,91.0,0.0,180.0,0.0,0.0
6480,64.0,240.0,180.0,2.0,0.0
6481,84.0,0.0,180.0,1.0,0.0
6482,81.0,0.0,180.0,1.0,0.0
6483,60.0,0.0,180.0,13.0,0.0
6484,60.0,0.0,180.0,2.0,0.0
6485,55.0,0.0,180.0,3.0,0.0
6486,67.0,0.0,180.0,3.0,0.0
6487,48.0,0.0,180.0,14.0,0.0
6488,91.0,0.0,180.0,0.0,0.0
6489,64.0,0.0,180.0,12.0,0.0
6490,60.0,0.0,180.0,2.0,0.0
6491,84.0,0.0,180.0,1.0,0.0
6492,81.0,240.0,180.0,1.0,0.0
6493,48.0,0.0,180.0,14.0,0.0
6494,64.0,0.0,180.0,2.0,0.0
6495,55.0,0.0,180.0,3.0,0.0
6496,91.0,0.0,180.0,0.0,0.0
6497,67.0,0.0,180.0,3.0,0.0
6498,64.0,0.0,180.0,12.0,0.0
6499,60.0,0.0,180.0,13.0,0.0
6500,64.0,0.0,180.0,12.0,0.0
6501,64.0,0.0,180.0,2.0,0.0
6502,60.0,0.0,180.0,2.0,0.0
6503,48.0,0.0,180.0,14.0,0.0
6504,67.0,0.0,180.0,3.0,0.0
6505,84.0,0.0,180.0,1.0,0.0
6506,81.0,0.0,180.0,1.0,0.0
6507,60.0,0.0,180.0,13.0,0.0
6508,91.0,240.0,180.0,0.0,0.0
6509,55.0,0.0,180.0,3.0,0.0
6510,74.0,0.0,390.0,4.0,0.0
6511,62.0,0.0,180.0,13.0,0.0
6512,66.0,0.0,180.0,12.0,0.0
6513,90.0,0.0,180.0,0.0,0.0
6514,62.0,0.0,180.0,2.0,0.0
6515,69.0,0.0,180.0,2.0,0.0
6516,62.0,0.0,390.0,11.0,0.0
6517,50.0,0.0,390.0,5.0,0.0
6518,62.0,48.0,390.0,4.0,0.0
6519,84.0,0.0,180.0,1.0,0.0
6520,81.0,0.0,180.0,1.0,0.0
6521,62.0,0.0,390.0,10.0,0.0
6522,50.0,0.0,180.0,3.0,0.0
6523,50.0,0.0,180.0,14.0,0.0
6524,62.0,192.0,180.0,3.0,0.0
6525,62.0,0.0,180.0,2.0,0.0
6526,84.0,240.0,180.0,1.0,0.0
6527,81.0,0.0,180.0,1.0,0.0
6528,50.0,0.0,180.0,14.0,0.0
6529,62.0,0.0,180.0,3.0,0.0
6530,62.0,0.0,180.0,13.0,0.0
6531,66.0,0.0,180.0,12.0,0.0
6532,50.0,0.0,180.0,3.0,0.0
6533,69.0,0.0,180.0,2.0,0.0
6534,90.0,0.0,180.0,0.0,0.0
6535,81.0,0.0,180.0,1.0,0.0
6536,84.0,0.0,570.0,10.0,0.0
6537,69.0,0.0,180.0,2.0,0.0
6538,62.0,0.0,180.0,2.0,0.0
6539,50.0,0.0,180.0,14.0,0.0
6540,62.0,0.0,180.0,13.0,0.0
6541,90.0,0.0,180.0,0.0,0.0
6542,62.0,0.0,180.0,3.0,0.0
6543,84.0,96.0,570.0,11.0,0.0
6544,66.0,0.0,180.0,12.0,0.0
6545,84.0,0.0,180.0,1.0,0.0
6546,50.0,240.0,180.0,3.0,0.0
6547,90.0,0.0,180.0,0.0,0.0
6548,66.0,144.0,180.0,12.0,0.0
6549,84.0,0.0,180.0,1.0,0.0
6550,81.0,0.0,180.0,1.0,0.0
6551,50.0,0.0,180.0,14.0,0.0
6552,69.0,0.0,180.0,2.0,0.0
6553,62.0,0.0,180.0,3.0,0.0
6554,62.0,0.0,180.0,2.0,0.0
6555,50.0,0.0,180.0,3.0,0.0
6556,62.0,0.0,180.0,13.0,0.0
6557,90.0,0.0,180.0,0.0,0.0
6558,69.0,0.0,180.0,2.0,0.0
6559,62.0,0.0,180.0,3.0,0.0
6560,66.0,0.0,180.0,12.0,0.0
6561,62.0,0.0,180.0,2.0,0.0
6562,62.0,0.0,180.0,13.0,0.0
6563,81.0,240.0,180.0,1.0,0.0
6564,84.0,0.0,180.0,1.0,0.0
6565,50.0,0.0,180.0,14.0,0.0
6566,50.0,0.0,180.0,3.0,0.0
6567,50.0,0.0,180.0,14.0,0.0
6568,90.0,0.0,180.0,0.0,0.0
6569,62.0,0.0,180.0,2.0,0.0
6570,62.0,0.0,180.0,3.0,0.0
6571,66.0,0.0,180.0,12.0,0.0
6572,84.0,0.0,180.0,10.0,0.0
6573,62.0,168.0,180.0,13.0,0.0
6574,69.0,0.0,180.0,2.0,0.0
6575,84.0,0.0,180.0,1.0,0.0
6576,50.0,0.0,180.0,3.0,0.0
6577,84.0,0.0,180.0,11.0,0.0
6578,81.0,0.0,180.0,1.0,0.0
6579,64.0,0.0,180.0,2.0,0.0
6580,64.0,0.0,180.0,13.0,0.0
6581,79.0,0.0,390.0,4.0,0.0
6582,55.0,0.0,180.0,3.0,0.0
6583,67.0,192.0,180.0,3.0,0.0
6584,82.0,72.0,120.0,10.0,0.0
6585,67.0,0.0,180.0,12.0,0.0
6586,55.0,0.0,390.0,5.0,0.0
6587,91.0,0.0,180.0,0.0,0.0
6588,82.0,0.0,120.0,11.0,0.0
6589,67.0,0.0,180.0,2.0,0.0
6590,67.0,24.0,390.0,4.0,0.0
6591,83.0,0.0,180.0,1.0,0.0
6592,52.0,0.0,180.0,14.0,0.0
6593,79.0,0.0,180.0,1.0,0.0
6594,83.0,24.0,300.0,10.0,0.0
6595,83.0,0.0,300.0,11.0,0.0
6596,83.0,0.0,180.0,1.0,0.0
6597,67.0,0.0,180.0,2.0,0.0
6598,64.0,240.0,180.0,2.0,0.0
6599,64.0,0.0,180.0,13.0,0.0
6600,52.0,0.0,180.0,14.0,0.0
6601,55.0,0.0,180.0,3.0,0.0
6602,67.0,0.0,180.0,12.0,0.0
6603,91.0,0.0,180.0,0.0,0.0
6604,79.0,0.0,180.0,1.0,0.0
6605,67.0,0.0,180.0,3.0,0.0
6606,79.0,0.0,180.0,1.0,0.0
6607,83.0,192.0,180.0,1.0,0.0
6608,55.0,0.0,390.0,5.0,0.0
6609,83.0,0.0,390.0,10.0,0.0
6610,79.0,0.0,390.0,4.0,0.0
6611,55.0,0.0,180.0,3.0,0.0
6612,52.0,0.0,180.0,14.0,0.0
6613,83.0,48.0,390.0,11.0,0.0
6614,67.0,0.0,180.0,3.0,0.0
6615,67.0,0.0,180.0,12.0,0.0
6616,91.0,0.0,180.0,0.0,0.0
6617,64.0,0.0,180.0,13.0,0.0
6618,67.0,0.0,390.0,4.0,0.0
6619,67.0,0.0,180.0,2.0,0.0
6620,64.0,0.0,180.0,2.0,0.0
6621,64.0,0.0,180.0,2.0,0.0
6622,67.0,0.0,180.0,2.0,0.0
6623,91.0,0.0,180.0,0.0,0.0
6624,64.0,0.0,180.0,13.0,0.0
6625,79.0,0.0,180.0,1.0,0.0
6626,55.0,0.0,180.0,3.0,0.0
6627,67.0,0.0,180.0,3.0,0.0
6628,83.0,240.0,180.0,1.0,0.0
6629,52.0,0.0,180.0,14.0,0.0
6630,67.0,0.0,180.0,12.0,0.0
6631,64.0,0.0,180.0,2.0,0.0
6632,55.0,48.0,390.0,5.0,0.0
6633,67.0,0.0,180.0,3.0,0.0
6634,55.0,0.0,180.0,3.0,0.0
6635,91.0,0.0,180.0,0.0,0.0
6636,67.0,0.0,180.0,2.0,0.0
6637,79.0,0.0,180.0,1.0,0.0
6638,83.0,192.0,180.0,1.0,0.0
6639,79.0,0.0,390.0,4.0,0.0
6640,67.0,0.0,390.0,4.0,0.0
6641,67.0,0.0,180.0,12.0,0.0
6642,64.0,0.0,180.0,13.0,0.0
6643,52.0,0.0,180.0,14.0,0.0
6644,64.0,0.0,180.0,13.0,0.0
6645,52.0,0.0,180.0,14.0,0.0
6646,67.0,0.0,180.0,12.0,0.0
6647,79.0,0.0,180.0,1.0,0.0
6648,91.0,0.0,180.0,0.0,0.0
6649,83.0,0.0,180.0,1.0,0.0
6650,64.0,432.0,180.0,2.0,0.0
6651,67.0,0.0,180.0,3.0,0.0
6652,55.0,0.0,180.0,3.0,0.0
6653,67.0,0.0,180.0,2.0,0.0
6654,53.0,0.0,1380.0,14.0,0.0
6655,65.0,0.0,1380.0,13.0,0.0
6656,55.0,36.0,390.0,5.0,0.0
6657,71.0,0.0,1380.0,12.0,0.0
6658,86.0,0.0,1380.0,1.0,0.0
6659,83.0,12.0,1380.0,1.0,0.0
6660,65.0,0.0,1380.0,2.0,0.0
6661,71.0,0.0,1380.0,2.0,0.0
6662,91.0,0.0,1380.0,0.0,0.0
6663,67.0,0.0,1380.0,3.0,0.0
6664,55.0,0.0,1380.0,3.0,0.0
6665,67.0,0.0,1380.0,4.0,0.0
6666,79.0,0.0,1380.0,4.0,0.0
6667,91.0,0.0,180.0,11.0,0.0
6668,91.0,240.0,180.0,10.0,0.0
6669,91.0,240.0,180.0,10.0,0.0
6670,91.0,0.0,180.0,11.0,0.0
6671,91.0,0.0,180.0,10.0,0.0
6672,91.0,240.0,180.0,11.0,0.0
6673,91.0,228.0,180.0,10.0,0.0
6674,91.0,0.0,180.0,11.0,0.0
6675,91.0,0.0,180.0,10.0,0.0
6676,91.0,444.0,180.0,11.0,0.0
6677,91.0,0.0,1380.0,10.0,0.0
6678,91.0,24.0,1380.0,11.0,0.0
6679,67.0,0.0,390.0,4.0,0.0
6680,55.0,0.0,390.0,5.0,0.0
6681,79.0,48.0,390.0,4.0,0.0
6682,55.0,0.0,180.0,3.0,0.0
6683,64.0,0.0,180.0,13.0,0.0
6684,72.0,0.0,180.0,12.0,0.0
6685,91.0,0.0,180.0,0.0,0.0
6686,52.0,0.0,180.0,14.0,0.0
6687,64.0,0.0,180.0,2.0,0.0
6688,67.0,0.0,180.0,2.0,0.0
6689,84.0,0.0,180.0,1.0,0.0
6690,67.0,240.0,180.0,3.0,0.0
6691,79.0,0.0,180.0,1.0,0.0
6692,67.0,240.0,180.0,3.0,0.0
6693,55.0,0.0,180.0,3.0,0.0
6694,72.0,0.0,180.0,12.0,0.0
6695,64.0,0.0,180.0,13.0,0.0
6696,67.0,0.0,180.0,2.0,0.0
6697,52.0,0.0,180.0,14.0,0.0
6698,84.0,0.0,180.0,1.0,0.0
6699,79.0,0.0,180.0,1.0,0.0
6700,91.0,0.0,180.0,0.0,0.0
6701,64.0,0.0,180.0,2.0,0.0
6702,67.0,0.0,180.0,3.0,0.0
6703,64.0,0.0,180.0,2.0,0.0
6704,67.0,0.0,180.0,2.0,0.0
6705,84.0,0.0,180.0,1.0,0.0
6706,52.0,0.0,180.0,14.0,0.0
6707,91.0,0.0,180.0,0.0,0.0
6708,79.0,240.0,180.0,1.0,0.0
6709,64.0,0.0,180.0,13.0,0.0
6710,72.0,0.0,180.0,12.0,0.0
6711,55.0,0.0,180.0,3.0,0.0
6712,79.0,0.0,180.0,1.0,0.0
6713,84.0,0.0,180.0,1.0,0.0
6714,91.0,0.0,180.0,0.0,0.0
6715,52.0,0.0,180.0,14.0,0.0
6716,72.0,0.0,180.0,12.0,0.0
6717,55.0,216.0,180.0,3.0,0.0
6718,64.0,0.0,180.0,13.0,0.0
6719,67.0,0.0,180.0,3.0,0.0
6720,64.0,0.0,180.0,2.0,0.0
6721,67.0,0.0,180.0,2.0,0.0
6722,55.0,0.0,180.0,3.0,0.0
6723,67.0,0.0,180.0,3.0,0.0
6724,67.0,0.0,180.0,2.0,0.0
6725,79.0,0.0,180.0,1.0,0.0
6726,64.0,0.0,180.0,2.0,0.0
6727,64.0,0.0,180.0,13.0,0.0
6728,52.0,0.0,180.0,14.0,0.0
6729,72.0,240.0,180.0,12.0,0.0
6730,91.0,0.0,180.0,0.0,0.0
6731,84.0,0.0,180.0,1.0,0.0
6732,61.0,48.0,390.0,10.0,0.0
6733,82.0,0.0,180.0,1.0,0.0
6734,91.0,0.0,180.0,0.0,0.0
6735,49.0,0.0,180.0,14.0,0.0
6736,61.0,0.0,180.0,13.0,0.0
6737,61.0,0.0,390.0,11.0,0.0
6738,70.0,0.0,180.0,12.0,0.0
6739,88.0,0.0,180.0,1.0,0.0
6740,55.0,0.0,390.0,5.0,0.0
6741,67.0,0.0,390.0,4.0,0.0
6742,64.0,0.0,180.0,2.0,0.0
6743,79.0,0.0,390.0,4.0,0.0
6744,55.0,0.0,180.0,3.0,0.0
6745,67.0,0.0,180.0,3.0,0.0
6746,70.0,192.0,180.0,2.0,0.0
6747,49.0,0.0,180.0,14.0,0.0
6748,55.0,0.0,180.0,3.0,0.0
6749,91.0,240.0,180.0,0.0,0.0
6750,70.0,0.0,180.0,12.0,0.0
6751,88.0,0.0,180.0,1.0,0.0
6752,67.0,0.0,180.0,3.0,0.0
6753,64.0,0.0,180.0,2.0,0.0
6754,70.0,0.0,180.0,2.0,0.0
6755,82.0,0.0,180.0,1.0,0.0
6756,61.0,0.0,180.0,13.0,0.0
6757,88.0,0.0,390.0,11.0,0.0
6758,82.0,0.0,180.0,1.0,0.0
6759,49.0,0.0,180.0,14.0,0.0
6760,91.0,0.0,180.0,0.0,0.0
6761,70.0,0.0,180.0,12.0,0.0
6762,61.0,0.0,180.0,13.0,0.0
6763,88.0,0.0,180.0,1.0,0.0
6764,70.0,0.0,180.0,2.0,0.0
6765,64.0,192.0,180.0,2.0,0.0
6766,55.0,0.0,180.0,3.0,0.0
6767,88.0,48.0,390.0,10.0,0.0
6768,67.0,0.0,390.0,4.0,0.0
6769,67.0,0.0,180.0,3.0,0.0
6770,79.0,0.0,390.0,4.0,0.0
6771,55.0,0.0,390.0,5.0,0.0
6772,61.0,0.0,180.0,13.0,0.0
6773,91.0,240.0,180.0,0.0,0.0
6774,49.0,0.0,180.0,14.0,0.0
6775,64.0,0.0,180.0,2.0,0.0
6776,67.0,0.0,180.0,3.0,0.0
6777,55.0,0.0,180.0,3.0,0.0
6778,70.0,0.0,180.0,2.0,0.0
6779,82.0,0.0,180.0,1.0,0.0
6780,88.0,0.0,180.0,1.0,0.0
6781,70.0,0.0,180.0,12.0,0.0
6782,67.0,0.0,390.0,4.0,0.0
6783,49.0,0.0,180.0,14.0,0.0
6784,79.0,0.0,390.0,4.0,0.0
6785,70.0,0.0,180.0,2.0,0.0
6786,61.0,0.0,180.0,13.0,0.0
6787,91.0,0.0,180.0,0.0,0.0
6788,55.0,48.0,390.0,5.0,0.0
6789,67.0,0.0,180.0,3.0,0.0
6790,55.0,0.0,180.0,3.0,0.0
6791,88.0,192.0,180.0,1.0,0.0
6792,70.0,0.0,180.0,12.0,0.0
6793,64.0,0.0,180.0,2.0,0.0
6794,82.0,0.0,180.0,1.0,0.0
6795,49.0,0.0,180.0,14.0,0.0
6796,67.0,0.0,180.0,3.0,0.0
6797,55.0,0.0,180.0,3.0,0.0
6798,64.0,0.0,180.0,2.0,0.0
6799,61.0,0.0,180.0,13.0,0.0
6800,91.0,204.0,180.0,0.0,0.0
6801,82.0,0.0,180.0,1.0,0.0
6802,70.0,0.0,180.0,12.0,0.0
6803,70.0,0.0,180.0,2.0,0.0
6804,88.0,0.0,180.0,1.0,0.0
6805,62.0,0.0,390.0,13.0,0.0
6806,71.0,0.0,390.0,12.0,0.0
6807,86.0,0.0,390.0,1.0,0.0
6808,50.0,0.0,390.0,5.0,0.0
6809,74.0,0.0,390.0,3.0,0.0
6810,62.0,0.0,390.0,3.0,0.0
6811,71.0,0.0,390.0,2.0,0.0
6812,62.0,0.0,390.0,2.0,0.0
6813,83.0,0.0,390.0,1.0,0.0
6814,86.0,0.0,150.0,10.0,0.0
6815,50.0,0.0,390.0,14.0,0.0
6816,67.0,0.0,390.0,4.0,0.0
6817,79.0,12.0,390.0,4.0,0.0
6818,86.0,228.0,150.0,11.0,0.0
6819,91.0,0.0,390.0,0.0,0.0
6820,83.0,0.0,150.0,11.0,0.0
6821,83.0,240.0,150.0,10.0,0.0
6822,79.0,0.0,150.0,11.0,0.0
6823,79.0,240.0,150.0,10.0,0.0
6824,74.0,0.0,150.0,11.0,0.0
6825,74.0,240.0,150.0,10.0,0.0
6826,71.0,240.0,150.0,11.0,0.0
6827,71.0,0.0,150.0,10.0,0.0
6828,67.0,0.0,150.0,10.0,0.0
6829,67.0,444.0,150.0,11.0,0.0
6830,62.0,0.0,360.0,11.0,0.0
6831,62.0,384.0,360.0,10.0,0.0
6832,71.0,0.0,270.0,3.0,0.0
6833,79.0,0.0,270.0,1.0,0.0
6834,50.0,0.0,270.0,14.0,0.0
6835,67.0,0.0,270.0,3.0,0.0
6836,83.0,0.0,270.0,1.0,0.0
6837,62.0,0.0,270.0,2.0,0.0
6838,74.0,0.0,270.0,12.0,0.0
6839,74.0,0.0,270.0,4.0,0.0
6840,74.0,0.0,270.0,11.0,0.0
6841,67.0,0.0,270.0,11.0,0.0
6842,83.0,0.0,270.0,11.0,0.0
6843,81.0,0.0,270.0,0.0,0.0
6844,50.0,0.0,270.0,5.0,0.0
6845,62.0,480.0,270.0,4.0,0.0
6846,83.0,0.0,270.0,10.0,0.0
6847,67.0,0.0,270.0,10.0,0.0
6848,74.0,0.0,270.0,10.0,0.0
6849,62.0,0.0,270.0,13.0,0.0
6850,81.0,0.0,270.0,11.0,0.0
6851,74.0,0.0,270.0,11.0,0.0
6852,78.0,0.0,270.0,1.0,0.0
6853,81.0,0.0,270.0,1.0,0.0
6854,74.0,360.0,270.0,4.0,0.0
6855,62.0,0.0,270.0,4.0,0.0
6856,66.0,0.0,270.0,11.0,0.0
6857,81.0,0.0,270.0,10.0,0.0
6858,62.0,0.0,270.0,3.0,0.0
6859,69.0,0.0,270.0,3.0,0.0
6860,38.0,0.0,270.0,14.0,0.0
6861,62.0,0.0,270.0,12.0,0.0
6862,74.0,0.0,270.0,10.0,0.0
6863,66.0,0.0,270.0,10.0,0.0
6864,50.0,0.0,270.0,13.0,0.0
6865,50.0,0.0,270.0,2.0,0.0
6866,50.0,0.0,270.0,5.0,0.0
6867,81.0,0.0,270.0,0.0,0.0
6868,59.0,0.0,150.0,12.0,0.0
6869,67.0,0.0,390.0,11.0,0.0
6870,67.0,0.0,390.0,10.0,0.0
6871,79.0,0.0,1260.0,11.0,0.0
6872,71.0,24.0,360.0,4.0,0.0
6873,67.0,0.0,360.0,3.0,0.0
6874,59.0,0.0,360.0,3.0,0.0
6875,59.0,0.0,390.0,11.0,0.0
6876,79.0,0.0,360.0,1.0,0.0
6877,67.0,0.0,360.0,4.0,0.0
6878,55.0,216.0,150.0,13.0,0.0
6879,43.0,0.0,150.0,14.0,0.0
6880,59.0,0.0,390.0,10.0,0.0
6881,55.0,0.0,390.0,5.0,0.0
6882,79.0,0.0,360.0,0.0,0.0
6883,79.0,72.0,1260.0,10.0,0.0
6884,55.0,0.0,150.0,2.0,0.0
6885,62.0,240.0,150.0,12.0,0.0
6886,47.0,0.0,150.0,14.0,0.0
6887,59.0,0.0,150.0,13.0,0.0
6888,59.0,0.0,150.0,2.0,0.0
6889,79.0,0.0,360.0,4.0,0.0
6890,59.0,0.0,150.0,12.0,0.0
6891,43.0,216.0,150.0,14.0,0.0
6892,55.0,0.0,150.0,13.0,0.0
6893,86.0,0.0,360.0,0.0,0.0
6894,55.0,240.0,390.0,5.0,0.0
6895,67.0,24.0,360.0,4.0,0.0
6896,74.0,0.0,360.0,1.0,0.0
6897,55.0,0.0,360.0,3.0,0.0
6898,67.0,0.0,360.0,3.0,0.0
6899,55.0,0.0,150.0,2.0,0.0
6900,83.0,0.0,360.0,1.0,0.0
6901,59.0,0.0,150.0,2.0,0.0
6902,59.0,0.0,150.0,13.0,0.0
6903,47.0,0.0,150.0,14.0,0.0
6904,62.0,0.0,150.0,12.0,0.0
6905,55.0,144.0,150.0,2.0,0.0
6906,86.0,24.0,360.0,0.0,0.0
6907,59.0,0.0,150.0,12.0,0.0
6908,67.0,0.0,360.0,4.0,0.0
6909,79.0,0.0,360.0,4.0,0.0
6910,55.0,0.0,150.0,13.0,0.0
6911,43.0,0.0,150.0,14.0,0.0
6912,67.0,0.0,360.0,3.0,0.0
6913,55.0,0.0,360.0,3.0,0.0
6914,83.0,0.0,360.0,1.0,0.0
6915,74.0,0.0,360.0,1.0,0.0
6916,55.0,0.0,390.0,5.0,0.0
6917,47.0,0.0,150.0,14.0,0.0
6918,59.0,0.0,150.0,2.0,0.0
6919,62.0,216.0,150.0,12.0,0.0
6920,59.0,0.0,150.0,13.0,0.0
6921,86.0,120.0,120.0,10.0,0.0
6922,55.0,96.0,390.0,5.0,0.0
6923,67.0,0.0,1140.0,3.0,0.0
6924,43.0,0.0,1140.0,14.0,0.0
6925,67.0,48.0,1140.0,4.0,0.0
6926,79.0,0.0,1140.0,4.0,0.0
6927,55.0,0.0,1140.0,3.0,0.0
6928,86.0,0.0,1140.0,0.0,0.0
6929,55.0,0.0,1140.0,13.0,0.0
6930,55.0,0.0,1140.0,2.0,0.0
6931,59.0,0.0,1140.0,12.0,0.0
6932,74.0,0.0,1140.0,1.0,0.0
6933,86.0,0.0,120.0,11.0,0.0
6934,83.0,0.0,1140.0,1.0,0.0
6935,84.0,120.0,120.0,10.0,0.0
6936,84.0,0.0,120.0,11.0,0.0
6937,83.0,0.0,120.0,10.0,0.0
6938,83.0,24.0,120.0,11.0,0.0
6939,81.0,0.0,120.0,10.0,0.0
6940,81.0,120.0,120.0,11.0,0.0
6941,79.0,0.0,120.0,11.0,0.0
6942,79.0,120.0,120.0,10.0,0.0
6943,78.0,120.0,120.0,10.0,0.0
6944,78.0,0.0,120.0,11.0,0.0
6945,76.0,120.0,120.0,11.0,0.0
6946,76.0,0.0,120.0,10.0,0.0
6947,74.0,120.0,120.0,10.0,0.0
6948,74.0,0.0,120.0,11.0,0.0
6949,72.0,72.0,120.0,10.0,0.0
6950,72.0,0.0,120.0,11.0,0.0
6951,71.0,120.0,120.0,10.0,0.0
6952,71.0,0.0,120.0,11.0,0.0
6953,69.0,0.0,120.0,11.0,0.0
6954,69.0,96.0,120.0,10.0,0.0
6955,67.0,0.0,90.0,11.0,0.0
6956,67.0,168.0,90.0,10.0,0.0
6957,87.0,0.0,390.0,0.0,0.0
6958,69.0,0.0,390.0,3.0,0.0
6959,57.0,0.0,150.0,2.0,0.0
6960,66.0,0.0,1140.0,11.0,0.0
6961,84.0,0.0,390.0,1.0,0.0
6962,72.0,0.0,390.0,3.0,0.0
6963,75.0,0.0,390.0,1.0,0.0
6964,57.0,0.0,150.0,13.0,0.0
6965,81.0,0.0,390.0,4.0,0.0
6966,84.0,0.0,390.0,4.0,0.0
6967,75.0,192.0,1140.0,11.0,0.0
6968,72.0,0.0,150.0,12.0,0.0
6969,45.0,240.0,150.0,14.0,0.0
6970,75.0,0.0,1140.0,10.0,0.0
6971,66.0,0.0,1140.0,10.0,0.0
6972,48.0,0.0,150.0,14.0,0.0
6973,69.0,0.0,150.0,12.0,0.0
6974,60.0,240.0,150.0,2.0,0.0
6975,60.0,0.0,150.0,13.0,0.0
6976,57.0,0.0,150.0,13.0,0.0
6977,57.0,0.0,150.0,2.0,0.0
6978,84.0,0.0,390.0,4.0,0.0
6979,81.0,0.0,390.0,4.0,0.0
6980,84.0,0.0,390.0,1.0,0.0
6981,72.0,240.0,150.0,12.0,0.0
6982,75.0,0.0,390.0,1.0,0.0
6983,72.0,0.0,390.0,3.0,0.0
6984,87.0,0.0,390.0,0.0,0.0
6985,45.0,0.0,150.0,14.0,0.0
6986,69.0,0.0,390.0,3.0,0.0
6987,69.0,0.0,150.0,12.0,0.0
6988,60.0,240.0,150.0,13.0,0.0
6989,48.0,0.0,150.0,14.0,0.0
6990,60.0,0.0,150.0,2.0,0.0
6991,72.0,0.0,390.0,3.0,0.0
6992,69.0,0.0,390.0,3.0,0.0
6993,57.0,48.0,150.0,13.0,0.0
6994,75.0,0.0,390.0,1.0,0.0
6995,72.0,0.0,150.0,12.0,0.0
6996,84.0,0.0,390.0,4.0,0.0
6997,81.0,0.0,390.0,4.0,0.0
6998,57.0,0.0,150.0,2.0,0.0
6999,84.0,0.0,390.0,1.0,0.0
7000,45.0,0.0,150.0,14.0,0.0
7001,87.0,0.0,390.0,0.0,0.0
7002,60.0,216.0,150.0,2.0,0.0
7003,60.0,0.0,150.0,13.0,0.0
7004,69.0,0.0,150.0,12.0,0.0
7005,48.0,0.0,150.0,14.0,0.0
7006,87.0,0.0,1140.0,0.0,0.0
7007,57.0,48.0,1140.0,2.0,0.0
7008,57.0,0.0,1140.0,13.0,0.0
7009,75.0,0.0,1140.0,12.0,0.0
7010,69.0,0.0,1140.0,3.0,0.0
7011,72.0,0.0,1140.0,3.0,0.0
7012,75.0,0.0,1140.0,1.0,0.0
7013,84.0,120.0,120.0,11.0,0.0
7014,45.0,0.0,1140.0,14.0,0.0
7015,81.0,0.0,1140.0,4.0,0.0
7016,84.0,0.0,1140.0,1.0,0.0
7017,84.0,0.0,1140.0,4.0,0.0
7018,84.0,0.0,120.0,10.0,0.0
7019,83.0,0.0,120.0,11.0,0.0
7020,83.0,120.0,120.0,10.0,0.0
7021,81.0,120.0,120.0,10.0,0.0
7022,81.0,0.0,120.0,11.0,0.0
7023,79.0,0.0,120.0,10.0,0.0
7024,79.0,120.0,120.0,11.0,0.0
7025,78.0,0.0,120.0,10.0,0.0
7026,78.0,120.0,120.0,11.0,0.0
7027,76.0,0.0,120.0,10.0,0.0
7028,76.0,120.0,120.0,11.0,0.0
7029,75.0,0.0,120.0,10.0,0.0
7030,75.0,120.0,120.0,11.0,0.0
7031,72.0,0.0,120.0,10.0,0.0
7032,72.0,120.0,120.0,11.0,0.0
7033,71.0,0.0,120.0,10.0,0.0
7034,71.0,72.0,120.0,11.0,0.0
7035,69.0,0.0,120.0,11.0,0.0
7036,69.0,120.0,120.0,10.0,0.0
7037,67.0,96.0,120.0,11.0,0.0
7038,67.0,0.0,120.0,10.0,0.0
7039,66.0,168.0,90.0,11.0,0.0
7040,66.0,0.0,90.0,10.0,0.0
7041,83.0,0.0,390.0,1.0,0.0
7042,67.0,0.0,390.0,3.0,0.0
7043,71.0,240.0,150.0,12.0,0.0
7044,55.0,0.0,150.0,2.0,0.0
7045,88.0,0.0,390.0,0.0,0.0
7046,67.0,0.0,1140.0,11.0,0.0
7047,76.0,0.0,1140.0,11.0,0.0
7048,55.0,0.0,390.0,5.0,0.0
7049,71.0,0.0,390.0,3.0,0.0
7050,79.0,0.0,390.0,4.0,0.0
7051,43.0,0.0,150.0,14.0,0.0
7052,76.0,0.0,1140.0,10.0,0.0
7053,67.0,192.0,1140.0,10.0,0.0
7054,76.0,0.0,390.0,1.0,0.0
7055,55.0,0.0,150.0,13.0,0.0
7056,83.0,240.0,390.0,4.0,0.0
7057,59.0,0.0,150.0,2.0,0.0
7058,47.0,0.0,150.0,14.0,0.0
7059,59.0,0.0,150.0,13.0,0.0
7060,67.0,0.0,150.0,12.0,0.0
7061,55.0,0.0,150.0,13.0,0.0
7062,88.0,0.0,390.0,0.0,0.0
7063,55.0,0.0,390.0,5.0,0.0
7064,43.0,0.0,150.0,14.0,0.0
7065,76.0,240.0,390.0,1.0,0.0
7066,71.0,240.0,150.0,12.0,0.0
7067,83.0,0.0,390.0,4.0,0.0
7068,83.0,0.0,390.0,1.0,0.0
7069,79.0,0.0,390.0,4.0,0.0
7070,71.0,0.0,390.0,3.0,0.0
7071,55.0,0.0,150.0,2.0,0.0
7072,67.0,0.0,390.0,3.0,0.0
7073,59.0,0.0,150.0,2.0,0.0
7074,59.0,0.0,150.0,13.0,0.0
7075,47.0,0.0,150.0,14.0,0.0
7076,67.0,0.0,150.0,12.0,0.0
7077,55.0,0.0,390.0,5.0,0.0
7078,43.0,48.0,150.0,14.0,0.0
7079,83.0,0.0,390.0,4.0,0.0
7080,67.0,216.0,390.0,3.0,0.0
7081,79.0,0.0,390.0,4.0,0.0
7082,71.0,0.0,390.0,3.0,0.0
7083,88.0,0.0,390.0,0.0,0.0
7084,83.0,0.0,390.0,1.0,0.0
7085,71.0,0.0,150.0,12.0,0.0
7086,55.0,0.0,150.0,2.0,0.0
7087,76.0,0.0,390.0,1.0,0.0
7088,55.0,0.0,150.0,13.0,0.0
7089,47.0,0.0,150.0,14.0,0.0
7090,59.0,0.0,150.0,13.0,0.0
7091,59.0,0.0,150.0,2.0,0.0
7092,67.0,0.0,150.0,12.0,0.0
7093,83.0,0.0,1140.0,4.0,0.0
7094,55.0,0.0,1140.0,13.0,0.0
7095,76.0,0.0,1140.0,1.0,0.0
7096,83.0,0.0,1140.0,1.0,0.0
7097,76.0,0.0,1140.0,12.0,0.0
7098,88.0,0.0,1140.0,0.0,0.0
7099,55.0,0.0,1140.0,2.0,0.0
7100,67.0,0.0,1140.0,3.0,0.0
7101,83.0,0.0,120.0,11.0,0.0
7102,55.0,96.0,390.0,5.0,0.0
7103,43.0,48.0,1140.0,14.0,0.0
7104,79.0,0.0,1140.0,4.0,0.0
7105,71.0,0.0,1140.0,3.0,0.0
7106,83.0,120.0,120.0,10.0,0.0
7107,81.0,120.0,120.0,11.0,0.0
7108,81.0,0.0,120.0,10.0,0.0
7109,79.0,24.0,120.0,11.0,0.0
7110,79.0,0.0,120.0,10.0,0.0
7111,78.0,120.0,120.0,10.0,0.0
7112,78.0,0.0,120.0,11.0,0.0
7113,76.0,120.0,120.0,11.0,0.0
7114,76.0,0.0,120.0,10.0,0.0
7115,74.0,120.0,120.0,10.0,0.0
7116,74.0,0.0,120.0,11.0,0.0
7117,72.0,0.0,120.0,11.0,0.0
7118,72.0,120.0,120.0,10.0,0.0
7119,71.0,0.0,120.0,11.0,0.0
7120,71.0,120.0,120.0,10.0,0.0
7121,69.0,72.0,120.0,10.0,0.0
7122,69.0,0.0,120.0,11.0,0.0
7123,67.0,120.0,120.0,11.0,0.0
7124,67.0,0.0,120.0,10.0,0.0
7125,66.0,96.0,120.0,10.0,0.0
7126,66.0,0.0,120.0,11.0,0.0
7127,64.0,168.0,90.0,10.0,0.0
7128,64.0,0.0,90.0,11.0,0.0
7129,64.0,240.0,150.0,12.0,0.0
7130,85.0,0.0,390.0,0.0,0.0
7131,73.0,192.0,1140.0,11.0,0.0
7132,73.0,0.0,390.0,1.0,0.0
7133,55.0,0.0,150.0,13.0,0.0
7134,55.0,0.0,150.0,2.0,0.0
7135,69.0,0.0,1140.0,11.0,0.0
7136,69.0,0.0,390.0,3.0,0.0
7137,76.0,0.0,390.0,1.0,0.0
7138,73.0,0.0,1140.0,10.0,0.0
7139,43.0,0.0,150.0,14.0,0.0
7140,67.0,240.0,390.0,3.0,0.0
7141,69.0,0.0,1140.0,10.0,0.0
7142,81.0,0.0,390.0,4.0,0.0
7143,79.0,0.0,390.0,4.0,0.0
7144,55.0,0.0,390.0,5.0,0.0
7145,57.0,0.0,150.0,13.0,0.0
7146,45.0,0.0,150.0,14.0,0.0
7147,61.0,0.0,150.0,12.0,0.0
7148,57.0,0.0,150.0,2.0,0.0
7149,55.0,0.0,150.0,13.0,0.0
7150,64.0,240.0,150.0,12.0,0.0
7151,55.0,0.0,390.0,5.0,0.0
7152,43.0,0.0,150.0,14.0,0.0
7153,76.0,0.0,390.0,1.0,0.0
7154,73.0,0.0,390.0,1.0,0.0
7155,69.0,0.0,390.0,3.0,0.0
7156,79.0,0.0,390.0,4.0,0.0
7157,81.0,0.0,390.0,4.0,0.0
7158,67.0,0.0,390.0,3.0,0.0
7159,85.0,0.0,390.0,0.0,0.0
7160,55.0,0.0,150.0,2.0,0.0
7161,57.0,0.0,150.0,2.0,0.0
7162,45.0,0.0,150.0,14.0,0.0
7163,61.0,0.0,150.0,12.0,0.0
7164,57.0,240.0,150.0,13.0,0.0
7165,55.0,0.0,150.0,13.0,0.0
7166,64.0,48.0,150.0,12.0,0.0
7167,55.0,0.0,390.0,5.0,0.0
7168,81.0,216.0,390.0,4.0,0.0
7169,76.0,0.0,390.0,1.0,0.0
7170,73.0,0.0,390.0,1.0,0.0
7171,43.0,0.0,150.0,14.0,0.0
7172,79.0,0.0,390.0,4.0,0.0
7173,69.0,0.0,390.0,3.0,0.0
7174,67.0,0.0,390.0,3.0,0.0
7175,55.0,0.0,150.0,2.0,0.0
7176,85.0,0.0,390.0,0.0,0.0
7177,45.0,0.0,150.0,14.0,0.0
7178,61.0,0.0,150.0,12.0,0.0
7179,57.0,0.0,150.0,13.0,0.0
7180,57.0,0.0,150.0,2.0,0.0
7181,88.0,0.0,120.0,10.0,0.0
7182,88.0,120.0,120.0,11.0,0.0
7183,73.0,48.0,1140.0,12.0,0.0
7184,52.0,0.0,1140.0,2.0,0.0
7185,85.0,0.0,1140.0,0.0,0.0
7186,67.0,0.0,1140.0,3.0,0.0
7187,55.0,96.0,390.0,5.0,0.0
7188,69.0,0.0,1140.0,3.0,0.0
7189,52.0,0.0,1140.0,13.0,0.0
7190,73.0,0.0,1140.0,1.0,0.0
7191,76.0,0.0,1140.0,1.0,0.0
7192,79.0,0.0,1140.0,4.0,0.0
7193,81.0,0.0,1140.0,4.0,0.0
7194,40.0,0.0,1140.0,14.0,0.0
7195,86.0,0.0,120.0,10.0,0.0
7196,86.0,120.0,120.0,11.0,0.0
7197,85.0,0.0,120.0,10.0,0.0
7198,85.0,24.0,120.0,11.0,0.0
7199,83.0,120.0,120.0,10.0,0.0
7200,83.0,0.0,120.0,11.0,0.0
7201,81.0,120.0,120.0,11.0,0.0
7202,81.0,0.0,120.0,10.0,0.0
7203,79.0,120.0,120.0,11.0,0.0
7204,79.0,0.0,120.0,10.0,0.0
7205,78.0,120.0,120.0,10.0,0.0
7206,78.0,0.0,120.0,11.0,0.0
7207,76.0,0.0,120.0,11.0,0.0
7208,76.0,120.0,120.0,10.0,0.0
7209,74.0,0.0,120.0,10.0,0.0
7210,74.0,72.0,120.0,11.0,0.0
7211,73.0,120.0,120.0,10.0,0.0
7212,73.0,0.0,120.0,11.0,0.0
7213,71.0,96.0,120.0,11.0,0.0
7214,71.0,0.0,120.0,10.0,0.0
7215,69.0,0.0,90.0,10.0,0.0
7216,69.0,168.0,90.0,11.0,0.0
7217,69.0,0.0,390.0,3.0,0.0
7218,54.0,240.0,150.0,13.0,0.0
7219,54.0,0.0,150.0,2.0,0.0
7220,50.0,0.0,390.0,5.0,0.0
7221,69.0,0.0,150.0,12.0,0.0
7222,74.0,0.0,390.0,1.0,0.0
7223,74.0,0.0,1140.0,11.0,0.0
7224,62.0,0.0,390.0,3.0,0.0
7225,86.0,0.0,390.0,0.0,0.0
7226,66.0,0.0,1140.0,10.0,0.0
7227,74.0,0.0,1140.0,10.0,0.0
7228,42.0,0.0,150.0,14.0,0.0
7229,78.0,0.0,390.0,1.0,0.0
7230,81.0,0.0,390.0,4.0,0.0
7231,74.0,0.0,390.0,4.0,0.0
7232,66.0,192.0,1140.0,11.0,0.0
7233,45.0,0.0,150.0,14.0,0.0
7234,66.0,0.0,150.0,12.0,0.0
7235,57.0,240.0,150.0,13.0,0.0
7236,57.0,0.0,150.0,2.0,0.0
7237,62.0,240.0,390.0,3.0,0.0
7238,69.0,0.0,390.0,3.0,0.0
7239,74.0,0.0,390.0,1.0,0.0
7240,42.0,0.0,150.0,14.0,0.0
7241,78.0,0.0,390.0,1.0,0.0
7242,81.0,0.0,390.0,4.0,0.0
7243,74.0,0.0,390.0,4.0,0.0
7244,86.0,0.0,390.0,0.0,0.0
7245,54.0,0.0,150.0,2.0,0.0
7246,50.0,0.0,390.0,5.0,0.0
7247,69.0,0.0,150.0,12.0,0.0
7248,54.0,240.0,150.0,13.0,0.0
7249,57.0,0.0,150.0,2.0,0.0
7250,66.0,0.0,150.0,12.0,0.0
7251,57.0,0.0,150.0,13.0,0.0
7252,45.0,0.0,150.0,14.0,0.0
7253,54.0,48.0,150.0,13.0,0.0
7254,74.0,0.0,390.0,4.0,0.0
7255,69.0,0.0,390.0,3.0,0.0
7256,50.0,0.0,390.0,5.0,0.0
7257,69.0,0.0,150.0,12.0,0.0
7258,62.0,0.0,390.0,3.0,0.0
7259,74.0,0.0,390.0,1.0,0.0
7260,54.0,0.0,150.0,2.0,0.0
7261,42.0,0.0,150.0,14.0,0.0
7262,78.0,0.0,390.0,1.0,0.0
7263,81.0,0.0,390.0,4.0,0.0
7264,86.0,216.0,390.0,0.0,0.0
7265,57.0,0.0,150.0,2.0,0.0
7266,57.0,0.0,150.0,13.0,0.0
7267,45.0,0.0,150.0,14.0,0.0
7268,66.0,0.0,150.0,12.0,0.0
7269,74.0,0.0,1140.0,12.0,0.0
7270,42.0,48.0,1140.0,14.0,0.0
7271,81.0,0.0,1140.0,4.0,0.0
7272,74.0,0.0,1140.0,4.0,0.0
7273,74.0,0.0,1140.0,1.0,0.0
7274,78.0,0.0,1140.0,1.0,0.0
7275,90.0,0.0,120.0,10.0,0.0
7276,54.0,0.0,1140.0,2.0,0.0
7277,62.0,0.0,1140.0,3.0,0.0
7278,86.0,0.0,1140.0,0.0,0.0
7279,54.0,0.0,1140.0,13.0,0.0
7280,50.0,96.0,390.0,5.0,0.0
7281,69.0,0.0,1140.0,3.0,0.0
7282,90.0,120.0,120.0,11.0,0.0
7283,88.0,120.0,120.0,10.0,0.0
7284,88.0,0.0,120.0,11.0,0.0
7285,86.0,0.0,120.0,11.0,0.0
7286,86.0,24.0,120.0,10.0,0.0
7287,85.0,120.0,120.0,10.0,0.0
7288,85.0,0.0,120.0,11.0,0.0
7289,86.0,120.0,120.0,11.0,0.0
7290,86.0,0.0,120.0,10.0,0.0
7291,85.0,120.0,120.0,11.0,0.0
7292,85.0,0.0,120.0,10.0,0.0
7293,83.0,120.0,120.0,10.0,0.0
7294,83.0,0.0,120.0,11.0,0.0
7295,81.0,120.0,120.0,11.0,0.0
7296,81.0,0.0,120.0,10.0,0.0
7297,79.0,72.0,120.0,10.0,0.0
7298,79.0,0.0,120.0,11.0,0.0
7299,78.0,120.0,120.0,10.0,0.0
7300,78.0,0.0,120.0,11.0,0.0
7301,76.0,0.0,120.0,11.0,0.0
7302,76.0,96.0,120.0,10.0,0.0
7303,74.0,168.0,90.0,11.0,0.0
7304,74.0,0.0,90.0,10.0,0.0
7305,74.0,0.0,150.0,12.0,0.0
7306,59.0,0.0,150.0,13.0,0.0
7307,74.0,0.0,390.0,4.0,0.0
7308,50.0,240.0,390.0,5.0,0.0
7309,62.0,0.0,390.0,3.0,0.0
7310,59.0,0.0,390.0,3.0,0.0
7311,92.0,0.0,390.0,0.0,0.0
7312,71.0,0.0,390.0,4.0,0.0
7313,47.0,0.0,150.0,14.0,0.0
7314,80.0,0.0,1140.0,11.0,0.0
7315,59.0,240.0,150.0,2.0,0.0
7316,74.0,0.0,1140.0,11.0,0.0
7317,86.0,0.0,390.0,1.0,0.0
7318,74.0,0.0,1140.0,10.0,0.0
7319,80.0,192.0,1140.0,10.0,0.0
7320,80.0,0.0,390.0,1.0,0.0
7321,62.0,0.0,150.0,2.0,0.0
7322,62.0,0.0,150.0,13.0,0.0
7323,71.0,0.0,150.0,12.0,0.0
7324,50.0,0.0,150.0,14.0,0.0
7325,47.0,0.0,150.0,14.0,0.0
7326,59.0,0.0,150.0,2.0,0.0
7327,74.0,240.0,150.0,12.0,0.0
7328,92.0,0.0,390.0,0.0,0.0
7329,50.0,0.0,390.0,5.0,0.0
7330,59.0,0.0,390.0,3.0,0.0
7331,80.0,0.0,390.0,1.0,0.0
7332,74.0,0.0,390.0,4.0,0.0
7333,71.0,240.0,390.0,4.0,0.0
7334,62.0,0.0,390.0,3.0,0.0
7335,86.0,0.0,390.0,1.0,0.0
7336,59.0,0.0,150.0,13.0,0.0
7337,71.0,0.0,150.0,12.0,0.0
7338,62.0,0.0,150.0,13.0,0.0
7339,62.0,0.0,150.0,2.0,0.0
7340,50.0,0.0,150.0,14.0,0.0
7341,71.0,0.0,390.0,4.0,0.0
7342,80.0,0.0,390.0,1.0,0.0
7343,86.0,0.0,390.0,1.0,0.0
7344,74.0,0.0,390.0,4.0,0.0
7345,74.0,48.0,150.0,12.0,0.0
7346,92.0,0.0,390.0,0.0,0.0
7347,59.0,0.0,150.0,13.0,0.0
7348,62.0,216.0,390.0,3.0,0.0
7349,59.0,0.0,390.0,3.0,0.0
7350,47.0,0.0,150.0,14.0,0.0
7351,59.0,0.0,150.0,2.0,0.0
7352,50.0,0.0,390.0,5.0,0.0
7353,71.0,0.0,150.0,12.0,0.0
7354,62.0,0.0,150.0,2.0,0.0
7355,62.0,0.0,150.0,13.0,0.0
7356,50.0,0.0,150.0,14.0,0.0
7357,86.0,0.0,120.0,11.0,0.0
7358,59.0,0.0,1140.0,3.0,0.0
7359,86.0,120.0,120.0,10.0,0.0
7360,68.0,0.0,960.0,12.0,0.0
7361,62.0,0.0,1140.0,3.0,0.0
7362,92.0,0.0,1140.0,0.0,0.0
7363,50.0,96.0,390.0,5.0,0.0
7364,47.0,48.0,1140.0,14.0,0.0
7365,86.0,0.0,1140.0,1.0,0.0
7366,59.0,0.0,1140.0,13.0,0.0
7367,59.0,0.0,1140.0,2.0,0.0
7368,80.0,0.0,1140.0,1.0,0.0
7369,71.0,0.0,1140.0,4.0,0.0
7370,74.0,0.0,1140.0,4.0,0.0
7371,85.0,0.0,120.0,11.0,0.0
7372,85.0,120.0,120.0,10.0,0.0
7373,83.0,24.0,120.0,10.0,0.0
7374,83.0,0.0,120.0,11.0,0.0
7375,81.0,120.0,120.0,11.0,0.0
7376,81.0,0.0,120.0,10.0,0.0
7377,80.0,120.0,120.0,10.0,0.0
7378,80.0,0.0,120.0,11.0,0.0
7379,78.0,120.0,120.0,11.0,0.0
7380,78.0,0.0,120.0,10.0,0.0
7381,76.0,120.0,120.0,10.0,0.0
7382,76.0,0.0,120.0,11.0,0.0
7383,74.0,0.0,120.0,11.0,0.0
7384,74.0,120.0,120.0,10.0,0.0
7385,73.0,0.0,120.0,10.0,0.0
7386,73.0,72.0,120.0,11.0,0.0
7387,62.0,72.0,390.0,12.0,0.0
7388,71.0,120.0,120.0,10.0,0.0
7389,71.0,0.0,120.0,11.0,0.0
7390,69.0,24.0,120.0,10.0,0.0
7391,69.0,0.0,120.0,11.0,0.0
7392,68.0,0.0,90.0,11.0,0.0
7393,68.0,120.0,90.0,10.0,0.0
7394,81.0,0.0,1140.0,1.0,0.0
7395,45.0,0.0,180.0,14.0,0.0
7396,57.0,0.0,180.0,13.0,0.0
7397,69.0,96.0,90.0,11.0,0.0
7398,69.0,0.0,90.0,10.0,0.0
7399,61.0,24.0,180.0,12.0,0.0
7400,69.0,72.0,1080.0,3.0,0.0
7401,81.0,48.0,390.0,4.0,0.0
7402,93.0,0.0,1140.0,0.0,0.0
7403,85.0,24.0,1140.0,1.0,0.0
7404,57.0,0.0,180.0,2.0,0.0
7405,69.0,120.0,90.0,10.0,0.0
7406,69.0,0.0,90.0,11.0,0.0
7407,64.0,0.0,180.0,12.0,0.0
7408,57.0,0.0,180.0,2.0,0.0
7409,73.0,48.0,90.0,10.0,0.0
7410,45.0,0.0,180.0,14.0,0.0
7411,57.0,24.0,180.0,13.0,0.0
7412,73.0,0.0,90.0,11.0,0.0
7413,73.0,0.0,90.0,11.0,0.0
7414,73.0,120.0,90.0,10.0,0.0
7415,45.0,0.0,180.0,14.0,0.0
7416,76.0,96.0,90.0,11.0,0.0
7417,57.0,0.0,180.0,2.0,0.0
7418,76.0,0.0,90.0,10.0,0.0
7419,57.0,24.0,180.0,13.0,0.0
7420,64.0,0.0,180.0,12.0,0.0
7421,76.0,120.0,90.0,10.0,0.0
7422,76.0,0.0,90.0,11.0,0.0
7423,45.0,0.0,180.0,14.0,0.0
7424,57.0,0.0,180.0,2.0,0.0
7425,81.0,96.0,90.0,10.0,0.0
7426,64.0,24.0,180.0,12.0,0.0
7427,81.0,0.0,90.0,11.0,0.0
7428,57.0,0.0,180.0,13.0,0.0
7429,81.0,120.0,90.0,10.0,0.0
7430,81.0,0.0,90.0,11.0,0.0
7431,85.0,0.0,90.0,11.0,0.0
7432,85.0,24.0,90.0,10.0,0.0
7433,57.0,0.0,180.0,2.0,0.0
7434,64.0,0.0,180.0,12.0,0.0
7435,45.0,0.0,180.0,14.0,0.0
7436,57.0,0.0,180.0,13.0,0.0
7437,85.0,0.0,90.0,10.0,0.0
7438,85.0,120.0,90.0,11.0,0.0
7439,64.0,0.0,180.0,12.0,0.0
7440,81.0,0.0,90.0,11.0,0.0
7441,57.0,0.0,180.0,2.0,0.0
7442,81.0,96.0,90.0,10.0,0.0
7443,45.0,0.0,180.0,14.0,0.0
7444,57.0,24.0,180.0,13.0,0.0
7445,81.0,120.0,90.0,10.0,0.0
7446,81.0,0.0,90.0,11.0,0.0
7447,71.0,0.0,180.0,12.0,0.0
7448,57.0,0.0,180.0,2.0,0.0
7449,80.0,96.0,90.0,11.0,0.0
7450,57.0,0.0,180.0,13.0,0.0
7451,80.0,0.0,90.0,10.0,0.0
7452,45.0,24.0,180.0,14.0,0.0
7453,69.0,72.0,1080.0,3.0,0.0
7454,86.0,0.0,1140.0,1.0,0.0
7455,80.0,0.0,1140.0,1.0,0.0
7456,92.0,0.0,1140.0,0.0,0.0
7457,80.0,0.0,90.0,10.0,0.0
7458,80.0,120.0,90.0,11.0,0.0
7459,86.0,0.0,90.0,11.0,0.0
7460,57.0,0.0,180.0,2.0,0.0
7461,45.0,0.0,180.0,14.0,0.0
7462,57.0,0.0,180.0,13.0,0.0
7463,86.0,96.0,90.0,10.0,0.0
7464,71.0,24.0,180.0,12.0,0.0
7465,86.0,0.0,90.0,10.0,0.0
7466,86.0,120.0,90.0,11.0,0.0
7467,83.0,96.0,90.0,11.0,0.0
7468,45.0,0.0,180.0,14.0,0.0
7469,57.0,24.0,180.0,13.0,0.0
7470,83.0,0.0,90.0,10.0,0.0
7471,71.0,0.0,180.0,12.0,0.0
7472,57.0,0.0,180.0,2.0,0.0
7473,83.0,0.0,90.0,10.0,0.0
7474,83.0,120.0,90.0,11.0,0.0
7475,57.0,24.0,180.0,2.0,0.0
7476,80.0,0.0,90.0,11.0,0.0
7477,80.0,96.0,90.0,10.0,0.0
7478,71.0,0.0,180.0,12.0,0.0
7479,57.0,0.0,180.0,13.0,0.0
7480,45.0,0.0,180.0,14.0,0.0
7481,80.0,0.0,90.0,11.0,0.0
7482,80.0,120.0,90.0,10.0,0.0
7483,45.0,0.0,180.0,14.0,0.0
7484,76.0,0.0,90.0,10.0,0.0
7485,71.0,0.0,180.0,12.0,0.0
7486,57.0,24.0,180.0,13.0,0.0
7487,76.0,24.0,90.0,11.0,0.0
7488,57.0,0.0,180.0,2.0,0.0
7489,76.0,120.0,90.0,10.0,0.0
7490,76.0,0.0,90.0,11.0,0.0
7491,45.0,0.0,180.0,14.0,0.0
7492,74.0,0.0,90.0,10.0,0.0
7493,57.0,24.0,180.0,13.0,0.0
7494,71.0,0.0,180.0,12.0,0.0
7495,57.0,0.0,180.0,2.0,0.0
7496,74.0,96.0,90.0,11.0,0.0
7497,74.0,0.0,90.0,11.0,0.0
7498,74.0,120.0,90.0,10.0,0.0
7499,69.0,72.0,1080.0,3.0,0.0
7500,85.0,0.0,1140.0,1.0,0.0
7501,81.0,48.0,390.0,4.0,0.0
7502,45.0,24.0,180.0,14.0,0.0
7503,57.0,0.0,180.0,13.0,0.0
7504,81.0,0.0,1140.0,1.0,0.0
7505,57.0,0.0,180.0,2.0,0.0
7506,73.0,0.0,90.0,11.0,0.0
7507,64.0,0.0,180.0,12.0,0.0
7508,73.0,96.0,90.0,10.0,0.0
7509,93.0,24.0,1140.0,0.0,0.0
7510,73.0,0.0,90.0,11.0,0.0
7511,73.0,120.0,90.0,10.0,0.0
7512,76.0,0.0,90.0,10.0,0.0
7513,64.0,0.0,180.0,12.0,0.0
7514,45.0,0.0,180.0,14.0,0.0
7515,76.0,48.0,90.0,11.0,0.0
7516,57.0,24.0,180.0,2.0,0.0
7517,57.0,0.0,180.0,13.0,0.0
7518,76.0,120.0,90.0,10.0,0.0
7519,76.0,0.0,90.0,11.0,0.0
7520,57.0,0.0,180.0,13.0,0.0
7521,81.0,0.0,90.0,10.0,0.0
7522,64.0,0.0,180.0,12.0,0.0
7523,45.0,0.0,180.0,14.0,0.0
7524,57.0,24.0,180.0,2.0,0.0
7525,81.0,96.0,90.0,11.0,0.0
7526,81.0,120.0,90.0,10.0,0.0
7527,81.0,0.0,90.0,11.0,0.0
7528,57.0,0.0,180.0,13.0,0.0
7529,45.0,24.0,180.0,14.0,0.0
7530,76.0,96.0,90.0,11.0,0.0
7531,64.0,0.0,180.0,12.0,0.0
7532,76.0,0.0,90.0,10.0,0.0
7533,57.0,0.0,180.0,2.0,0.0
7534,76.0,120.0,90.0,11.0,0.0
7535,76.0,0.0,90.0,10.0,0.0
7536,57.0,0.0,180.0,2.0,0.0
7537,45.0,0.0,180.0,14.0,0.0
7538,85.0,24.0,90.0,10.0,0.0
7539,64.0,0.0,180.0,12.0,0.0
7540,85.0,0.0,90.0,11.0,0.0
7541,57.0,0.0,180.0,13.0,0.0
7542,85.0,0.0,90.0,11.0,0.0
7543,85.0,120.0,90.0,10.0,0.0
7544,57.0,0.0,180.0,2.0,0.0
7545,81.0,96.0,90.0,11.0,0.0
7546,81.0,0.0,90.0,10.0,0.0
7547,57.0,0.0,180.0,13.0,0.0
7548,45.0,0.0,180.0,14.0,0.0
7549,64.0,24.0,180.0,12.0,0.0
7550,81.0,120.0,90.0,10.0,0.0
7551,81.0,0.0,90.0,11.0,0.0
7552,80.0,0.0,90.0,11.0,0.0
7553,80.0,96.0,90.0,10.0,0.0
7554,71.0,0.0,180.0,12.0,0.0
7555,57.0,0.0,180.0,13.0,0.0
7556,57.0,0.0,180.0,2.0,0.0
7557,69.0,72.0,1080.0,3.0,0.0
7558,45.0,24.0,180.0,14.0,0.0
7559,80.0,0.0,1140.0,1.0,0.0
7560,86.0,0.0,1140.0,1.0,0.0
7561,92.0,0.0,1140.0,0.0,0.0
7562,80.0,0.0,90.0,10.0,0.0
7563,80.0,120.0,90.0,11.0,0.0
7564,86.0,0.0,90.0,10.0,0.0
7565,57.0,0.0,180.0,13.0,0.0
7566,45.0,0.0,180.0,14.0,0.0
7567,71.0,24.0,180.0,12.0,0.0
7568,57.0,0.0,180.0,2.0,0.0
7569,86.0,96.0,90.0,11.0,0.0
7570,86.0,120.0,90.0,11.0,0.0
7571,86.0,0.0,90.0,10.0,0.0
7572,83.0,0.0,90.0,11.0,0.0
7573,83.0,96.0,90.0,10.0,0.0
7574,45.0,0.0,180.0,14.0,0.0
7575,57.0,0.0,180.0,13.0,0.0
7576,71.0,0.0,180.0,12.0,0.0
7577,57.0,24.0,180.0,2.0,0.0
7578,83.0,0.0,90.0,11.0,0.0
7579,83.0,120.0,90.0,10.0,0.0
7580,71.0,0.0,180.0,12.0,0.0
7581,57.0,24.0,180.0,13.0,0.0
7582,80.0,96.0,90.0,11.0,0.0
7583,57.0,0.0,180.0,2.0,0.0
7584,80.0,0.0,90.0,10.0,0.0
7585,45.0,0.0,180.0,14.0,0.0
7586,80.0,0.0,90.0,10.0,0.0
7587,80.0,120.0,90.0,11.0,0.0
7588,71.0,0.0,180.0,12.0,0.0
7589,76.0,24.0,90.0,11.0,0.0
7590,57.0,24.0,180.0,13.0,0.0
7591,57.0,0.0,180.0,2.0,0.0
7592,45.0,0.0,180.0,14.0,0.0
7593,76.0,0.0,90.0,10.0,0.0
7594,76.0,120.0,90.0,10.0,0.0
7595,76.0,0.0,90.0,11.0,0.0
7596,57.0,24.0,180.0,2.0,0.0
7597,74.0,0.0,90.0,11.0,0.0
7598,71.0,0.0,180.0,12.0,0.0
7599,57.0,0.0,180.0,13.0,0.0
7600,45.0,0.0,180.0,14.0,0.0
7601,74.0,96.0,90.0,10.0,0.0
7602,74.0,120.0,90.0,11.0,0.0
7603,74.0,0.0,90.0,10.0,0.0
7604,73.0,0.0,90.0,11.0,0.0
7605,81.0,0.0,180.0,1.0,0.0
7606,69.0,0.0,300.0,3.0,0.0
7607,85.0,0.0,180.0,1.0,0.0
7608,64.0,0.0,180.0,12.0,0.0
7609,93.0,0.0,180.0,0.0,0.0
7610,57.0,24.0,180.0,13.0,0.0
7611,57.0,0.0,180.0,2.0,0.0
7612,73.0,96.0,90.0,10.0,0.0
7613,81.0,48.0,300.0,4.0,0.0
7614,45.0,0.0,180.0,14.0,0.0
7615,73.0,72.0,90.0,10.0,0.0
7616,73.0,0.0,90.0,11.0,0.0
7617,69.0,96.0,90.0,11.0,0.0
7618,69.0,0.0,180.0,1.0,0.0
7619,45.0,0.0,180.0,14.0,0.0
7620,69.0,0.0,90.0,10.0,0.0
7621,57.0,0.0,180.0,2.0,0.0
7622,57.0,0.0,180.0,13.0,0.0
7623,57.0,24.0,180.0,12.0,0.0
7624,81.0,0.0,180.0,0.0,0.0
7625,69.0,120.0,90.0,10.0,0.0
7626,69.0,0.0,90.0,11.0,0.0
7627,83.0,24.0,180.0,0.0,0.0
7628,71.0,0.0,90.0,10.0,0.0
7629,71.0,0.0,180.0,1.0,0.0
7630,71.0,96.0,90.0,11.0,0.0
7631,47.0,0.0,180.0,14.0,0.0
7632,59.0,0.0,180.0,13.0,0.0
7633,59.0,0.0,180.0,12.0,0.0
7634,59.0,0.0,180.0,2.0,0.0
7635,71.0,0.0,90.0,10.0,0.0
7636,71.0,120.0,90.0,11.0,0.0
7637,73.0,0.0,180.0,1.0,0.0
7638,49.0,0.0,180.0,14.0,0.0
7639,73.0,96.0,90.0,10.0,0.0
7640,85.0,0.0,180.0,0.0,0.0
7641,61.0,24.0,180.0,12.0,0.0
7642,61.0,0.0,180.0,2.0,0.0
7643,73.0,0.0,90.0,11.0,0.0
7644,61.0,0.0,180.0,13.0,0.0
7645,73.0,0.0,90.0,11.0,0.0
7646,73.0,120.0,90.0,10.0,0.0
7647,74.0,96.0,90.0,11.0,0.0
7648,62.0,0.0,180.0,13.0,0.0
7649,74.0,24.0,180.0,1.0,0.0
7650,74.0,0.0,90.0,10.0,0.0
7651,50.0,0.0,180.0,14.0,0.0
7652,86.0,0.0,180.0,0.0,0.0
7653,62.0,0.0,180.0,12.0,0.0
7654,62.0,0.0,180.0,2.0,0.0
7655,74.0,120.0,90.0,10.0,0.0
7656,74.0,0.0,90.0,11.0,0.0
7657,64.0,24.0,180.0,2.0,0.0
7658,76.0,0.0,180.0,1.0,0.0
7659,64.0,0.0,180.0,13.0,0.0
7660,76.0,96.0,90.0,10.0,0.0
7661,64.0,0.0,180.0,12.0,0.0
7662,52.0,0.0,180.0,14.0,0.0
7663,76.0,0.0,90.0,11.0,0.0
7664,88.0,0.0,180.0,0.0,0.0
7665,76.0,0.0,90.0,10.0,0.0
7666,76.0,120.0,90.0,11.0,0.0
7667,78.0,96.0,90.0,10.0,0.0
7668,90.0,0.0,180.0,0.0,0.0
7669,66.0,0.0,180.0,13.0,0.0
7670,66.0,0.0,180.0,2.0,0.0
7671,66.0,0.0,180.0,12.0,0.0
7672,78.0,0.0,90.0,11.0,0.0
7673,54.0,0.0,180.0,14.0,0.0
7674,78.0,24.0,180.0,1.0,0.0
7675,78.0,0.0,90.0,11.0,0.0
7676,78.0,120.0,90.0,10.0,0.0
7677,85.0,24.0,180.0,0.0,0.0
7678,61.0,0.0,180.0,2.0,0.0
7679,73.0,0.0,90.0,10.0,0.0
7680,73.0,0.0,180.0,1.0,0.0
7681,49.0,0.0,180.0,14.0,0.0
7682,73.0,96.0,90.0,11.0,0.0
7683,61.0,0.0,180.0,13.0,0.0
7684,61.0,0.0,180.0,12.0,0.0
7685,73.0,0.0,90.0,11.0,0.0
7686,73.0,120.0,90.0,10.0,0.0
7687,62.0,0.0,180.0,13.0,0.0
7688,86.0,0.0,180.0,0.0,0.0
7689,74.0,0.0,90.0,11.0,0.0
7690,50.0,0.0,180.0,14.0,0.0
7691,62.0,24.0,180.0,12.0,0.0
7692,74.0,0.0,180.0,1.0,0.0
7693,62.0,0.0,180.0,2.0,0.0
7694,74.0,96.0,90.0,10.0,0.0
7695,74.0,120.0,90.0,11.0,0.0
7696,74.0,0.0,90.0,10.0,0.0
7697,52.0,0.0,180.0,14.0,0.0
7698,64.0,0.0,180.0,2.0,0.0
7699,76.0,0.0,90.0,10.0,0.0
7700,76.0,96.0,90.0,11.0,0.0
7701,64.0,24.0,180.0,13.0,0.0
7702,76.0,0.0,180.0,1.0,0.0
7703,88.0,0.0,180.0,0.0,0.0
7704,64.0,0.0,180.0,12.0,0.0
7705,76.0,120.0,90.0,11.0,0.0
7706,76.0,0.0,90.0,10.0,0.0
7707,66.0,0.0,180.0,12.0,0.0
7708,78.0,0.0,90.0,11.0,0.0
7709,54.0,0.0,180.0,14.0,0.0
7710,66.0,0.0,180.0,2.0,0.0
7711,78.0,0.0,180.0,1.0,0.0
7712,78.0,96.0,90.0,10.0,0.0
7713,90.0,0.0,180.0,0.0,0.0
7714,66.0,24.0,180.0,13.0,0.0
7715,78.0,120.0,90.0,11.0,0.0
7716,78.0,0.0,90.0,10.0,0.0
7717,68.0,0.0,180.0,13.0,0.0
7718,56.0,0.0,180.0,14.0,0.0
7719,80.0,0.0,180.0,1.0,0.0
7720,68.0,0.0,180.0,2.0,0.0
7721,80.0,0.0,90.0,10.0,0.0
7722,68.0,0.0,180.0,12.0,0.0
7723,80.0,96.0,90.0,11.0,0.0
7724,92.0,24.0,180.0,0.0,0.0
7725,80.0,0.0,90.0,10.0,0.0
7726,80.0,168.0,90.0,11.0,0.0
7727,69.0,0.0,150.0,2.0,0.0
7728,81.0,0.0,390.0,1.0,0.0
7729,81.0,0.0,150.0,10.0,0.0
7730,93.0,72.0,390.0,0.0,0.0
7731,69.0,0.0,150.0,13.0,0.0
7732,57.0,0.0,150.0,14.0,0.0
7733,81.0,0.0,150.0,11.0,0.0
7734,69.0,216.0,150.0,12.0,0.0
7735,71.0,0.0,120.0,12.0,0.0
7736,83.0,0.0,120.0,11.0,0.0
7737,71.0,0.0,120.0,2.0,0.0
7738,71.0,24.0,120.0,13.0,0.0
7739,83.0,0.0,120.0,10.0,0.0
7740,59.0,0.0,120.0,14.0,0.0
7741,56.0,168.0,90.0,14.0,0.0
7742,80.0,0.0,90.0,11.0,0.0
7743,68.0,0.0,90.0,12.0,0.0
7744,80.0,0.0,90.0,10.0,0.0
7745,68.0,0.0,90.0,2.0,0.0
7746,68.0,0.0,90.0,13.0,0.0
7747,57.0,0.0,150.0,14.0,0.0
7748,69.0,216.0,150.0,12.0,0.0
7749,69.0,0.0,150.0,13.0,0.0
7750,69.0,0.0,150.0,2.0,0.0
7751,81.0,0.0,150.0,11.0,0.0
7752,81.0,0.0,150.0,10.0,0.0
7753,71.0,0.0,120.0,2.0,0.0
7754,71.0,0.0,120.0,12.0,0.0
7755,83.0,0.0,120.0,11.0,0.0
7756,59.0,0.0,120.0,14.0,0.0
7757,71.0,0.0,120.0,13.0,0.0
7758,83.0,96.0,120.0,10.0,0.0
7759,56.0,0.0,90.0,14.0,0.0
7760,68.0,0.0,90.0,13.0,0.0
7761,80.0,0.0,90.0,11.0,0.0
7762,68.0,0.0,90.0,12.0,0.0
7763,68.0,0.0,90.0,2.0,0.0
7764,80.0,168.0,90.0,10.0,0.0
7765,81.0,216.0,150.0,11.0,0.0
7766,69.0,0.0,150.0,13.0,0.0
7767,69.0,0.0,150.0,2.0,0.0
7768,57.0,0.0,150.0,14.0,0.0
7769,81.0,0.0,150.0,10.0,0.0
7770,69.0,0.0,150.0,12.0,0.0
7771,83.0,96.0,120.0,10.0,0.0
7772,71.0,0.0,120.0,13.0,0.0
7773,71.0,0.0,120.0,2.0,0.0
7774,83.0,0.0,120.0,11.0,0.0
7775,71.0,0.0,120.0,12.0,0.0
7776,59.0,0.0,120.0,14.0,0.0
7777,80.0,0.0,90.0,11.0,0.0
7778,68.0,0.0,90.0,12.0,0.0
7779,56.0,0.0,90.0,14.0,0.0
7780,68.0,336.0,90.0,13.0,0.0
7781,68.0,0.0,90.0,2.0,0.0
7782,80.0,0.0,90.0,10.0,0.0
7783,81.0,0.0,390.0,4.0,0.0
7784,57.0,0.0,300.0,14.0,0.0
7785,69.0,0.0,300.0,13.0,0.0
7786,73.0,0.0,390.0,1.0,0.0
7787,76.0,0.0,390.0,1.0,0.0
7788,69.0,72.0,300.0,12.0,0.0
7789,69.0,408.0,390.0,3.0,0.0
7790,81.0,0.0,390.0,0.0,0.0
7791,69.0,0.0,390.0,2.0,0.0
7792,81.0,0.0,300.0,11.0,0.0
7793,81.0,0.0,300.0,10.0,0.0
7794,57.0,0.0,300.0,13.0,0.0
7795,81.0,0.0,390.0,4.0,0.0
7796,76.0,0.0,390.0,1.0,0.0
7797,69.0,0.0,390.0,3.0,0.0
7798,57.0,0.0,300.0,12.0,0.0
7799,69.0,72.0,300.0,10.0,0.0
7800,61.0,0.0,300.0,10.0,0.0
7801,69.0,0.0,300.0,11.0,0.0
7802,69.0,0.0,390.0,2.0,0.0
7803,73.0,480.0,390.0,1.0,0.0
7804,45.0,0.0,300.0,14.0,0.0
7805,61.0,0.0,300.0,11.0,0.0
7806,81.0,0.0,390.0,0.0,0.0
7807,81.0,0.0,390.0,0.0,0.0
7808,76.0,0.0,390.0,1.0,0.0
7809,73.0,0.0,390.0,1.0,0.0
7810,69.0,240.0,390.0,2.0,0.0
7811,69.0,0.0,390.0,3.0,0.0
7812,81.0,0.0,390.0,4.0,0.0
7813,67.0,0.0,150.0,13.0,0.0
7814,79.0,0.0,150.0,10.0,0.0
7815,79.0,0.0,150.0,11.0,0.0
7816,55.0,0.0,150.0,14.0,0.0
7817,85.0,0.0,1830.0,0.0,0.0
7818,67.0,0.0,1830.0,3.0,0.0
7819,76.0,0.0,1830.0,1.0,0.0
7820,73.0,0.0,1830.0,1.0,0.0
7821,69.0,0.0,1830.0,3.0,0.0
7822,79.0,408.0,1830.0,4.0,0.0
7823,81.0,0.0,1830.0,4.0,0.0
7824,67.0,0.0,1830.0,2.0,0.0
7825,67.0,216.0,150.0,12.0,0.0
7826,69.0,0.0,120.0,12.0,0.0
7827,81.0,0.0,120.0,11.0,0.0
7828,57.0,0.0,120.0,14.0,0.0
7829,69.0,96.0,120.0,13.0,0.0
7830,81.0,0.0,120.0,10.0,0.0
7831,66.0,0.0,90.0,12.0,0.0
7832,78.0,0.0,90.0,10.0,0.0
7833,66.0,0.0,90.0,13.0,0.0
7834,78.0,168.0,90.0,11.0,0.0
7835,54.0,0.0,90.0,14.0,0.0
7836,79.0,0.0,150.0,10.0,0.0
7837,79.0,0.0,150.0,11.0,0.0
7838,67.0,0.0,150.0,13.0,0.0
7839,67.0,216.0,150.0,12.0,0.0
7840,55.0,0.0,150.0,14.0,0.0
7841,81.0,0.0,120.0,10.0,0.0
7842,69.0,96.0,120.0,13.0,0.0
7843,57.0,0.0,120.0,14.0,0.0
7844,69.0,0.0,120.0,12.0,0.0
7845,81.0,0.0,120.0,11.0,0.0
7846,78.0,168.0,90.0,10.0,0.0
7847,54.0,0.0,90.0,14.0,0.0
7848,66.0,0.0,90.0,12.0,0.0
7849,78.0,0.0,90.0,11.0,0.0
7850,66.0,0.0,90.0,13.0,0.0
7851,79.0,0.0,150.0,11.0,0.0
7852,79.0,216.0,150.0,10.0,0.0
7853,67.0,0.0,150.0,12.0,0.0
7854,67.0,0.0,150.0,13.0,0.0
7855,55.0,0.0,150.0,14.0,0.0
7856,69.0,96.0,120.0,12.0,0.0
7857,57.0,0.0,120.0,14.0,0.0
7858,81.0,0.0,120.0,11.0,0.0
7859,81.0,0.0,120.0,10.0,0.0
7860,69.0,0.0,120.0,13.0,0.0
7861,54.0,0.0,90.0,14.0,0.0
7862,78.0,0.0,90.0,11.0,0.0
7863,66.0,0.0,90.0,13.0,0.0
7864,78.0,0.0,90.0,10.0,0.0
7865,66.0,336.0,90.0,12.0,0.0
7866,67.0,0.0,300.0,12.0,0.0
7867,67.0,0.0,300.0,13.0,0.0
7868,79.0,0.0,300.0,11.0,0.0
7869,79.0,72.0,300.0,10.0,0.0
7870,55.0,0.0,300.0,14.0,0.0
7871,73.0,0.0,390.0,1.0,0.0
7872,76.0,480.0,390.0,1.0,0.0
7873,67.0,0.0,390.0,3.0,0.0
7874,69.0,0.0,390.0,3.0,0.0
7875,79.0,0.0,390.0,4.0,0.0
7876,81.0,0.0,390.0,4.0,0.0
7877,85.0,0.0,390.0,0.0,0.0
7878,67.0,0.0,300.0,10.0,0.0
7879,55.0,72.0,300.0,12.0,0.0
7880,55.0,0.0,300.0,13.0,0.0
7881,43.0,0.0,300.0,14.0,0.0
7882,67.0,0.0,300.0,11.0,0.0
7883,67.0,0.0,390.0,2.0,0.0
7884,85.0,0.0,390.0,0.0,0.0
7885,67.0,0.0,390.0,2.0,0.0
7886,73.0,0.0,390.0,1.0,0.0
7887,67.0,0.0,390.0,3.0,0.0
7888,69.0,0.0,390.0,3.0,0.0
7889,81.0,0.0,390.0,4.0,0.0
7890,79.0,0.0,390.0,4.0,0.0
7891,76.0,240.0,390.0,1.0,0.0
7892,66.0,216.0,150.0,13.0,0.0
7893,78.0,0.0,1830.0,1.0,0.0
7894,74.0,0.0,1830.0,1.0,0.0
7895,81.0,0.0,1830.0,4.0,0.0
7896,74.0,0.0,1830.0,4.0,0.0
7897,86.0,0.0,1830.0,0.0,0.0
7898,50.0,72.0,390.0,5.0,0.0
7899,78.0,0.0,150.0,11.0,0.0
7900,78.0,0.0,150.0,10.0,0.0
7901,66.0,0.0,150.0,12.0,0.0
7902,66.0,0.0,1830.0,2.0,0.0
7903,54.0,0.0,150.0,14.0,0.0
7904,62.0,0.0,1830.0,3.0,0.0
7905,69.0,408.0,1830.0,3.0,0.0
7906,79.0,0.0,120.0,11.0,0.0
7907,55.0,0.0,120.0,14.0,0.0
7908,67.0,0.0,120.0,13.0,0.0
7909,67.0,24.0,120.0,12.0,0.0
7910,79.0,0.0,120.0,10.0,0.0
7911,64.0,0.0,90.0,13.0,0.0
7912,76.0,0.0,90.0,11.0,0.0
7913,76.0,168.0,90.0,10.0,0.0
7914,64.0,0.0,90.0,12.0,0.0
7915,52.0,0.0,90.0,14.0,0.0
7916,66.0,0.0,150.0,13.0,0.0
7917,54.0,0.0,150.0,14.0,0.0
7918,78.0,216.0,150.0,11.0,0.0
7919,66.0,0.0,150.0,12.0,0.0
7920,50.0,72.0,390.0,5.0,0.0
7921,78.0,0.0,150.0,10.0,0.0
7922,67.0,0.0,120.0,12.0,0.0
7923,55.0,0.0,120.0,14.0,0.0
7924,79.0,0.0,120.0,10.0,0.0
7925,67.0,0.0,120.0,13.0,0.0
7926,79.0,24.0,120.0,11.0,0.0
7927,52.0,0.0,90.0,14.0,0.0
7928,64.0,168.0,90.0,13.0,0.0
7929,76.0,0.0,90.0,11.0,0.0
7930,64.0,0.0,90.0,12.0,0.0
7931,76.0,0.0,90.0,10.0,0.0
7932,50.0,72.0,390.0,5.0,0.0
7933,66.0,0.0,150.0,12.0,0.0
7934,78.0,0.0,150.0,10.0,0.0
7935,54.0,0.0,150.0,14.0,0.0
7936,78.0,216.0,150.0,11.0,0.0
7937,66.0,0.0,150.0,13.0,0.0
7938,79.0,0.0,120.0,10.0,0.0
7939,67.0,0.0,120.0,12.0,0.0
7940,67.0,0.0,120.0,13.0,0.0
7941,55.0,24.0,120.0,14.0,0.0
7942,79.0,0.0,120.0,11.0,0.0
7943,64.0,0.0,90.0,13.0,0.0
7944,64.0,0.0,90.0,12.0,0.0
7945,76.0,0.0,90.0,11.0,0.0
7946,52.0,336.0,90.0,14.0,0.0
7947,76.0,0.0,90.0,10.0,0.0
7948,66.0,0.0,300.0,13.0,0.0
7949,78.0,0.0,300.0,11.0,0.0
7950,54.0,0.0,300.0,14.0,0.0
7951,66.0,0.0,300.0,12.0,0.0
7952,50.0,0.0,390.0,5.0,0.0
7953,78.0,72.0,300.0,10.0,0.0
7954,90.0,0.0,390.0,0.0,0.0
7955,74.0,0.0,390.0,4.0,0.0
7956,81.0,480.0,390.0,4.0,0.0
7957,66.0,0.0,390.0,2.0,0.0
7958,54.0,72.0,300.0,12.0,0.0
7959,42.0,0.0,300.0,14.0,0.0
7960,54.0,0.0,300.0,13.0,0.0
7961,66.0,0.0,300.0,11.0,0.0
7962,74.0,0.0,390.0,1.0,0.0
7963,78.0,0.0,390.0,1.0,0.0
7964,69.0,0.0,390.0,3.0,0.0
7965,62.0,0.0,390.0,3.0,0.0
7966,66.0,0.0,300.0,10.0,0.0
7967,74.0,0.0,390.0,1.0,0.0
7968,78.0,0.0,390.0,1.0,0.0
7969,66.0,0.0,390.0,2.0,0.0
7970,62.0,240.0,390.0,3.0,0.0
7971,69.0,0.0,390.0,3.0,0.0
7972,81.0,0.0,390.0,4.0,0.0
7973,74.0,0.0,390.0,4.0,0.0
7974,86.0,0.0,390.0,0.0,0.0
7975,81.0,0.0,1830.0,4.0,0.0
7976,79.0,0.0,1830.0,4.0,0.0
7977,76.0,0.0,150.0,11.0,0.0
7978,76.0,0.0,150.0,10.0,0.0
7979,67.0,0.0,1830.0,3.0,0.0
7980,52.0,0.0,150.0,14.0,0.0
7981,52.0,36.0,1830.0,2.0,0.0
7982,64.0,0.0,1830.0,2.0,0.0
7983,69.0,0.0,1830.0,3.0,0.0
7984,55.0,72.0,390.0,5.0,0.0
7985,64.0,0.0,150.0,12.0,0.0
7986,91.0,24.0,1800.0,0.0,0.0
7987,76.0,0.0,1830.0,1.0,0.0
7988,85.0,0.0,1830.0,1.0,0.0
7989,64.0,216.0,150.0,13.0,0.0
7990,78.0,0.0,120.0,10.0,0.0
7991,54.0,24.0,120.0,14.0,0.0
7992,66.0,0.0,120.0,12.0,0.0
7993,78.0,0.0,120.0,11.0,0.0
7994,66.0,0.0,120.0,13.0,0.0
7995,74.0,168.0,90.0,10.0,0.0
7996,74.0,0.0,90.0,11.0,0.0
7997,62.0,0.0,90.0,12.0,0.0
7998,62.0,0.0,90.0,13.0,0.0
7999,50.0,0.0,90.0,14.0,0.0
8000,76.0,0.0,150.0,11.0,0.0
8001,64.0,0.0,150.0,12.0,0.0
8002,52.0,0.0,150.0,14.0,0.0
8003,76.0,216.0,150.0,10.0,0.0
8004,64.0,0.0,150.0,13.0,0.0
8005,55.0,72.0,390.0,5.0,0.0
8006,66.0,24.0,120.0,12.0,0.0
8007,66.0,0.0,120.0,13.0,0.0
8008,78.0,0.0,120.0,10.0,0.0
8009,54.0,0.0,120.0,14.0,0.0
8010,78.0,0.0,120.0,11.0,0.0
8011,74.0,0.0,90.0,10.0,0.0
8012,62.0,0.0,90.0,13.0,0.0
8013,50.0,168.0,90.0,14.0,0.0
8014,74.0,0.0,90.0,11.0,0.0
8015,62.0,0.0,90.0,12.0,0.0
8016,55.0,72.0,390.0,5.0,0.0
8017,76.0,0.0,150.0,11.0,0.0
8018,52.0,216.0,150.0,14.0,0.0
8019,64.0,0.0,150.0,13.0,0.0
8020,64.0,0.0,150.0,12.0,0.0
8021,76.0,0.0,150.0,10.0,0.0
8022,66.0,0.0,120.0,12.0,0.0
8023,54.0,0.0,120.0,14.0,0.0
8024,78.0,0.0,120.0,10.0,0.0
8025,66.0,0.0,120.0,13.0,0.0
8026,78.0,24.0,120.0,11.0,0.0
8027,62.0,0.0,90.0,13.0,0.0
8028,50.0,0.0,90.0,14.0,0.0
8029,62.0,0.0,90.0,12.0,0.0
8030,74.0,336.0,90.0,10.0,0.0
8031,74.0,0.0,90.0,11.0,0.0
8032,52.0,48.0,300.0,14.0,0.0
8033,64.0,0.0,300.0,12.0,0.0
8034,55.0,0.0,390.0,5.0,0.0
8035,76.0,0.0,300.0,10.0,0.0
8036,76.0,0.0,300.0,11.0,0.0
8037,64.0,0.0,300.0,13.0,0.0
8038,90.0,60.0,60.0,0.0,0.0
8039,91.0,312.0,60.0,0.0,0.0
8040,64.0,0.0,300.0,11.0,0.0
8041,81.0,0.0,390.0,4.0,0.0
8042,52.0,0.0,300.0,13.0,0.0
8043,69.0,0.0,390.0,3.0,0.0
8044,93.0,384.0,480.0,0.0,0.0
8045,76.0,0.0,390.0,1.0,0.0
8046,79.0,0.0,390.0,4.0,0.0
8047,67.0,0.0,390.0,3.0,0.0
8048,85.0,0.0,390.0,1.0,0.0
8049,64.0,96.0,390.0,2.0,0.0
8050,52.0,0.0,300.0,12.0,0.0
8051,40.0,72.0,300.0,14.0,0.0
8052,64.0,0.0,300.0,10.0,0.0
8053,52.0,0.0,390.0,2.0,0.0
8054,67.0,0.0,390.0,3.0,0.0
8055,81.0,0.0,390.0,4.0,0.0
8056,79.0,0.0,390.0,4.0,0.0
8057,69.0,0.0,390.0,3.0,0.0
8058,85.0,0.0,390.0,1.0,0.0
8059,64.0,0.0,390.0,2.0,0.0
8060,52.0,288.0,390.0,2.0,0.0
8061,91.0,0.0,390.0,0.0,0.0
8062,76.0,0.0,390.0,1.0,0.0
8063,62.0,240.0,1140.0,10.0,0.0
8064,50.0,0.0,390.0,5.0,0.0
8065,90.0,0.0,390.0,0.0,0.0
8066,38.0,0.0,180.0,14.0,0.0
8067,50.0,192.0,180.0,13.0,0.0
8068,78.0,0.0,390.0,1.0,0.0
8069,62.0,0.0,1140.0,12.0,0.0
8070,62.0,0.0,1140.0,4.0,0.0
8071,74.0,0.0,1140.0,4.0,0.0
8072,86.0,0.0,390.0,1.0,0.0
8073,62.0,0.0,1140.0,11.0,0.0
8074,62.0,48.0,390.0,2.0,0.0
8075,38.0,0.0,180.0,14.0,0.0
8076,50.0,240.0,180.0,13.0,0.0
8077,38.0,0.0,180.0,14.0,0.0
8078,50.0,240.0,180.0,13.0,0.0
8079,38.0,0.0,180.0,14.0,0.0
8080,50.0,240.0,180.0,13.0,0.0
8081,38.0,0.0,180.0,14.0,0.0
8082,50.0,0.0,180.0,13.0,0.0
8083,38.0,48.0,180.0,14.0,0.0
8084,50.0,0.0,180.0,13.0,0.0
8085,62.0,192.0,15.0,3.0,0.0
8086,86.0,0.0,240.0,10.0,0.0
8087,50.0,0.0,15.0,3.0,0.0
8088,50.0,48.0,390.0,13.0,0.0
8089,71.0,144.0,240.0,11.0,0.0
8090,38.0,48.0,180.0,14.0,0.0
8091,38.0,48.0,180.0,14.0,0.0
8092,90.0,0.0,240.0,10.0,0.0
8093,74.0,192.0,240.0,11.0,0.0
8094,38.0,48.0,180.0,14.0,0.0
8095,73.0,0.0,240.0,11.0,0.0
8096,88.0,192.0,240.0,10.0,0.0
8097,69.0,192.0,240.0,11.0,0.0
8098,38.0,48.0,180.0,14.0,0.0
8099,85.0,0.0,240.0,10.0,0.0
8100,38.0,48.0,180.0,14.0,0.0
8101,83.0,0.0,240.0,10.0,0.0
8102,67.0,192.0,240.0,11.0,0.0
8103,86.0,192.0,240.0,10.0,0.0
8104,71.0,0.0,240.0,11.0,0.0
8105,38.0,48.0,180.0,14.0,0.0
8106,38.0,48.0,180.0,14.0,0.0
8107,69.0,0.0,240.0,11.0,0.0
8108,85.0,192.0,240.0,10.0,0.0
8109,66.0,0.0,240.0,11.0,0.0
8110,38.0,48.0,180.0,14.0,0.0
8111,81.0,192.0,240.0,10.0,0.0
8112,38.0,48.0,180.0,14.0,0.0
8113,64.0,0.0,240.0,11.0,0.0
8114,79.0,192.0,240.0,10.0,0.0
8115,83.0,192.0,240.0,10.0,0.0
8116,67.0,0.0,240.0,11.0,0.0
8117,38.0,48.0,180.0,14.0,0.0
8118,38.0,48.0,180.0,14.0,0.0
8119,66.0,192.0,240.0,11.0,0.0
8120,81.0,0.0,240.0,10.0,0.0
8121,78.0,240.0,180.0,10.0,0.0
8122,38.0,0.0,180.0,14.0,0.0
8123,62.0,0.0,180.0,11.0,0.0
8124,67.0,0.0,360.0,2.0,0.0
8125,64.0,72.0,360.0,2.0,0.0
8126,81.0,0.0,360.0,0.0,0.0
8127,38.0,48.0,180.0,14.0,0.0
8128,49.0,120.0,240.0,13.0,0.0
8129,76.0,0.0,360.0,1.0,0.0
8130,79.0,0.0,360.0,1.0,0.0
8131,50.0,192.0,240.0,13.0,0.0
8132,38.0,48.0,180.0,14.0,0.0
8133,79.0,0.0,360.0,1.0,0.0
8134,76.0,72.0,360.0,1.0,0.0
8135,64.0,0.0,360.0,2.0,0.0
8136,52.0,120.0,240.0,13.0,0.0
8137,81.0,0.0,360.0,0.0,0.0
8138,67.0,0.0,360.0,2.0,0.0
8139,38.0,48.0,180.0,14.0,0.0
8140,54.0,192.0,240.0,13.0,0.0
8141,38.0,48.0,180.0,14.0,0.0
8142,79.0,0.0,360.0,1.0,0.0
8143,76.0,0.0,360.0,1.0,0.0
8144,38.0,48.0,180.0,14.0,0.0
8145,64.0,0.0,360.0,2.0,0.0
8146,67.0,0.0,360.0,2.0,0.0
8147,55.0,120.0,240.0,13.0,0.0
8148,81.0,72.0,360.0,0.0,0.0
8149,56.0,192.0,240.0,13.0,0.0
8150,38.0,48.0,180.0,14.0,0.0
8151,38.0,48.0,180.0,14.0,0.0
8152,79.0,0.0,960.0,1.0,0.0
8153,67.0,0.0,960.0,2.0,0.0
8154,81.0,120.0,720.0,0.0,0.0
8155,57.0,192.0,240.0,13.0,0.0
8156,76.0,0.0,960.0,1.0,0.0
8157,64.0,0.0,960.0,2.0,0.0
8158,58.0,192.0,240.0,13.0,0.0
8159,38.0,48.0,180.0,14.0,0.0
8160,59.0,0.0,240.0,13.0,0.0
8161,38.0,48.0,180.0,14.0,0.0
8162,61.0,192.0,240.0,13.0,0.0
8163,38.0,48.0,180.0,14.0,0.0
8164,83.0,72.0,120.0,0.0,0.0
8165,81.0,0.0,120.0,0.0,0.0
8166,74.0,0.0,240.0,1.0,0.0
8167,64.0,0.0,240.0,13.0,0.0
8168,78.0,0.0,240.0,1.0,0.0
8169,86.0,192.0,240.0,0.0,0.0
8170,38.0,48.0,180.0,14.0,0.0
8171,62.0,0.0,240.0,2.0,0.0
8172,66.0,0.0,240.0,2.0,0.0
8173,38.0,240.0,180.0,14.0,0.0
8174,62.0,0.0,180.0,13.0,0.0
8175,71.0,0.0,240.0,11.0,0.0
8176,86.0,192.0,240.0,10.0,0.0
8177,38.0,48.0,180.0,14.0,0.0
8178,38.0,48.0,180.0,14.0,0.0
8179,74.0,0.0,240.0,11.0,0.0
8180,90.0,192.0,240.0,10.0,0.0
8181,38.0,48.0,180.0,14.0,0.0
8182,88.0,192.0,240.0,10.0,0.0
8183,73.0,0.0,240.0,11.0,0.0
8184,69.0,0.0,240.0,11.0,0.0
8185,38.0,48.0,180.0,14.0,0.0
8186,85.0,192.0,240.0,10.0,0.0
8187,83.0,0.0,240.0,10.0,0.0
8188,38.0,48.0,180.0,14.0,0.0
8189,67.0,192.0,240.0,11.0,0.0
8190,86.0,192.0,240.0,10.0,0.0
8191,38.0,48.0,180.0,14.0,0.0
8192,71.0,0.0,240.0,11.0,0.0
8193,38.0,48.0,180.0,14.0,0.0
8194,85.0,192.0,240.0,10.0,0.0
8195,69.0,0.0,240.0,11.0,0.0
8196,81.0,0.0,240.0,10.0,0.0
8197,38.0,48.0,180.0,14.0,0.0
8198,66.0,192.0,240.0,11.0,0.0
8199,79.0,0.0,240.0,10.0,0.0
8200,38.0,48.0,180.0,14.0,0.0
8201,64.0,192.0,240.0,11.0,0.0
8202,83.0,0.0,240.0,10.0,0.0
8203,67.0,192.0,240.0,11.0,0.0
8204,38.0,48.0,180.0,14.0,0.0
8205,81.0,192.0,240.0,10.0,0.0
8206,66.0,0.0,240.0,11.0,0.0
8207,38.0,48.0,180.0,14.0,0.0
8208,38.0,0.0,180.0,14.0,0.0
8209,62.0,0.0,180.0,11.0,0.0
8210,78.0,240.0,180.0,10.0,0.0
8211,38.0,48.0,180.0,14.0,0.0
8212,81.0,0.0,360.0,0.0,0.0
8213,67.0,72.0,360.0,2.0,0.0
8214,76.0,0.0,360.0,1.0,0.0
8215,49.0,120.0,240.0,13.0,0.0
8216,79.0,0.0,360.0,1.0,0.0
8217,64.0,0.0,360.0,2.0,0.0
8218,38.0,48.0,180.0,14.0,0.0
8219,50.0,192.0,240.0,13.0,0.0
8220,38.0,48.0,180.0,14.0,0.0
8221,76.0,0.0,360.0,1.0,0.0
8222,79.0,0.0,360.0,1.0,0.0
8223,67.0,0.0,360.0,2.0,0.0
8224,64.0,0.0,360.0,2.0,0.0
8225,52.0,120.0,240.0,13.0,0.0
8226,81.0,72.0,360.0,0.0,0.0
8227,54.0,192.0,240.0,13.0,0.0
8228,38.0,48.0,180.0,14.0,0.0
8229,81.0,0.0,360.0,0.0,0.0
8230,79.0,0.0,360.0,1.0,0.0
8231,55.0,120.0,240.0,13.0,0.0
8232,76.0,0.0,360.0,1.0,0.0
8233,38.0,48.0,180.0,14.0,0.0
8234,67.0,0.0,360.0,2.0,0.0
8235,64.0,72.0,360.0,2.0,0.0
8236,56.0,192.0,240.0,13.0,0.0
8237,38.0,48.0,180.0,14.0,0.0
8238,64.0,192.0,960.0,2.0,0.0
8239,57.0,192.0,240.0,13.0,0.0
8240,67.0,0.0,960.0,2.0,0.0
8241,81.0,120.0,720.0,0.0,0.0
8242,76.0,0.0,960.0,1.0,0.0
8243,38.0,48.0,180.0,14.0,0.0
8244,79.0,0.0,960.0,1.0,0.0
8245,38.0,48.0,180.0,14.0,0.0
8246,58.0,192.0,240.0,13.0,0.0
8247,59.0,0.0,240.0,13.0,0.0
8248,38.0,48.0,180.0,14.0,0.0
8249,83.0,72.0,120.0,0.0,0.0
8250,38.0,48.0,180.0,14.0,0.0
8251,61.0,0.0,240.0,13.0,0.0
8252,81.0,0.0,120.0,0.0,0.0
8253,86.0,0.0,240.0,0.0,0.0
8254,38.0,0.0,180.0,14.0,0.0
8255,74.0,0.0,240.0,1.0,0.0
8256,78.0,0.0,240.0,1.0,0.0
8257,64.0,0.0,240.0,13.0,0.0
8258,62.0,192.0,240.0,2.0,0.0
8259,66.0,0.0,240.0,2.0,0.0
8260,62.0,528.0,180.0,13.0,0.0
8261,81.0,480.0,480.0,1.0,0.0
8262,78.0,0.0,480.0,1.0,0.0
8263,76.0,0.0,480.0,1.0,0.0
8264,79.0,480.0,480.0,1.0,0.0
8265,78.0,0.0,480.0,1.0,0.0
8266,69.0,0.0,960.0,2.0,0.0
8267,59.0,0.0,960.0,12.0,0.0
8268,66.0,0.0,960.0,2.0,0.0
8269,59.0,0.0,960.0,13.0,0.0
8270,75.0,720.0,15.0,1.0,0.0
8271,78.0,0.0,960.0,1.0,0.0
8272,47.0,240.0,960.0,14.0,0.0
8273,84.0,120.0,720.0,0.0,0.0
8274,83.0,120.0,120.0,0.0,0.0
8275,81.0,0.0,120.0,0.0,0.0
8276,64.0,0.0,240.0,2.0,0.0
8277,67.0,0.0,240.0,2.0,0.0
8278,64.0,720.0,240.0,12.0,0.0
8279,52.0,0.0,240.0,13.0,0.0
8280,79.0,0.0,240.0,1.0,0.0
8281,76.0,0.0,240.0,1.0,0.0
8282,79.0,0.0,240.0,0.0,0.0
8283,40.0,0.0,240.0,14.0,0.0
8284,79.0,0.0,480.0,1.0,0.0
8285,76.0,480.0,480.0,1.0,0.0
8286,78.0,480.0,480.0,1.0,0.0
8287,74.0,0.0,480.0,1.0,0.0
8288,57.0,0.0,960.0,12.0,0.0
8289,67.0,0.0,960.0,2.0,0.0
8290,57.0,240.0,960.0,13.0,0.0
8291,45.0,0.0,960.0,14.0,0.0
8292,73.0,720.0,15.0,1.0,0.0
8293,64.0,0.0,960.0,2.0,0.0
8294,83.0,120.0,720.0,0.0,0.0
8295,76.0,0.0,15.0,1.0,0.0
8296,81.0,120.0,120.0,0.0,0.0
8297,79.0,0.0,120.0,0.0,0.0
8298,38.0,0.0,240.0,14.0,0.0
8299,78.0,0.0,240.0,1.0,0.0
8300,74.0,0.0,240.0,1.0,0.0
8301,66.0,0.0,240.0,2.0,0.0
8302,62.0,432.0,240.0,2.0,0.0
8303,78.0,0.0,240.0,0.0,0.0
8304,62.0,0.0,240.0,12.0,0.0
8305,50.0,0.0,240.0,13.0,0.0
8306,66.0,0.0,1440.0,11.0,0.0
8307,62.0,0.0,1440.0,12.0,0.0
8308,74.0,192.0,1440.0,10.0,0.0
8309,62.0,0.0,180.0,6.0,0.0
8310,54.0,0.0,1440.0,12.0,0.0
8311,50.0,480.0,180.0,7.0,0.0
8312,54.0,480.0,180.0,7.0,0.0
8313,66.0,0.0,180.0,6.0,0.0
8314,50.0,0.0,180.0,7.0,0.0
8315,62.0,288.0,180.0,6.0,0.0
8316,69.0,0.0,1380.0,11.0,0.0
8317,57.0,0.0,1380.0,12.0,0.0
8318,49.0,480.0,180.0,7.0,0.0
8319,61.0,0.0,180.0,6.0,0.0
8320,64.0,0.0,1380.0,12.0,0.0
8321,76.0,264.0,1380.0,10.0,0.0
8322,45.0,0.0,180.0,7.0,0.0
8323,57.0,480.0,180.0,6.0,0.0
8324,61.0,216.0,180.0,6.0,0.0
8325,49.0,0.0,180.0,7.0,0.0
8326,74.0,0.0,480.0,11.0,0.0
8327,78.0,0.0,480.0,10.0,0.0
8328,62.0,0.0,480.0,12.0,0.0
8329,50.0,0.0,180.0,7.0,0.0
8330,62.0,288.0,180.0,6.0,0.0
8331,66.0,480.0,480.0,12.0,0.0
8332,67.0,0.0,480.0,12.0,0.0
8333,71.0,0.0,480.0,12.0,0.0
8334,83.0,0.0,480.0,10.0,0.0
8335,79.0,192.0,480.0,11.0,0.0
8336,66.0,0.0,450.0,12.0,0.0
8337,69.0,0.0,450.0,12.0,0.0
8338,81.0,216.0,450.0,10.0,0.0
8339,38.0,264.0,180.0,7.0,0.0
8340,78.0,0.0,450.0,11.0,0.0
8341,50.0,0.0,180.0,6.0,0.0
8342,43.0,0.0,180.0,7.0,0.0
8343,69.0,0.0,240.0,12.0,0.0
8344,66.0,0.0,180.0,12.0,0.0
8345,55.0,48.0,180.0,6.0,0.0
8346,81.0,192.0,240.0,10.0,0.0
8347,78.0,0.0,240.0,11.0,0.0
8348,79.0,240.0,180.0,10.0,0.0
8349,76.0,0.0,180.0,11.0,0.0
8350,67.0,0.0,180.0,12.0,0.0
8351,64.0,0.0,180.0,12.0,0.0
8352,76.0,192.0,240.0,11.0,0.0
8353,67.0,0.0,240.0,12.0,0.0
8354,64.0,48.0,180.0,12.0,0.0
8355,45.0,0.0,180.0,7.0,0.0
8356,57.0,0.0,180.0,6.0,0.0
8357,79.0,0.0,240.0,10.0,0.0
8358,78.0,0.0,180.0,10.0,0.0
8359,62.0,240.0,180.0,12.0,0.0
8360,74.0,0.0,180.0,11.0,0.0
8361,66.0,0.0,180.0,12.0,0.0
8362,74.0,192.0,240.0,11.0,0.0
8363,45.0,0.0,180.0,7.0,0.0
8364,57.0,48.0,180.0,6.0,0.0
8365,66.0,0.0,240.0,12.0,0.0
8366,62.0,0.0,180.0,12.0,0.0
8367,78.0,0.0,240.0,10.0,0.0
8368,76.0,0.0,180.0,10.0,0.0
8369,73.0,0.0,180.0,11.0,0.0
8370,64.0,240.0,180.0,12.0,0.0
8371,61.0,0.0,180.0,12.0,0.0
8372,76.0,0.0,720.0,10.0,0.0
8373,73.0,0.0,960.0,11.0,0.0
8374,64.0,0.0,720.0,12.0,0.0
8375,62.0,0.0,180.0,6.0,0.0
8376,61.0,240.0,720.0,12.0,0.0
8377,50.0,480.0,180.0,7.0,0.0
8378,57.0,0.0,180.0,6.0,0.0
8379,45.0,48.0,180.0,7.0,0.0
8380,77.0,0.0,240.0,10.0,0.0
8381,61.0,0.0,240.0,12.0,0.0
8382,65.0,192.0,240.0,12.0,0.0
8383,62.0,0.0,240.0,12.0,0.0
8384,78.0,720.0,240.0,10.0,0.0
8385,66.0,0.0,240.0,12.0,0.0
8386,38.0,0.0,180.0,7.0,0.0
8387,74.0,0.0,240.0,11.0,0.0
8388,50.0,48.0,180.0,6.0,0.0
8389,74.0,0.0,1440.0,1.0,0.0
8390,62.0,0.0,1440.0,1.0,0.0
8391,65.0,120.0,1200.0,12.0,0.0
8392,62.0,0.0,1440.0,2.0,0.0
8393,50.0,144.0,1440.0,2.0,0.0
8394,86.0,0.0,480.0,10.0,0.0
8395,47.0,0.0,1440.0,13.0,0.0
8396,35.0,0.0,1440.0,14.0,0.0
8397,74.0,480.0,480.0,11.0,0.0
8398,83.0,0.0,480.0,10.0,0.0
8399,71.0,240.0,480.0,11.0,0.0
8400,68.0,72.0,390.0,11.0,0.0
8401,80.0,0.0,390.0,10.0,0.0
8402,64.0,24.0,120.0,12.0,0.0
8403,62.0,24.0,90.0,12.0,0.0
8404,76.0,0.0,1380.0,1.0,0.0
8405,37.0,0.0,1440.0,14.0,0.0
8406,67.0,144.0,480.0,12.0,0.0
8407,57.0,0.0,1380.0,2.0,0.0
8408,76.0,0.0,150.0,11.0,0.0
8409,64.0,0.0,1380.0,2.0,0.0
8410,69.0,72.0,1380.0,1.0,0.0
8411,49.0,144.0,1440.0,13.0,0.0
8412,88.0,240.0,150.0,10.0,0.0
8413,86.0,0.0,150.0,10.0,0.0
8414,74.0,96.0,150.0,11.0,0.0
8415,85.0,0.0,150.0,10.0,0.0
8416,73.0,240.0,150.0,11.0,0.0
8417,64.0,144.0,480.0,12.0,0.0
8418,83.0,0.0,150.0,10.0,0.0
8419,71.0,96.0,150.0,11.0,0.0
8420,57.0,0.0,480.0,12.0,0.0
8421,69.0,0.0,150.0,11.0,0.0
8422,81.0,240.0,150.0,10.0,0.0
8423,67.0,24.0,150.0,11.0,0.0
8424,79.0,0.0,150.0,10.0,0.0
8425,38.0,0.0,390.0,14.0,0.0
8426,66.0,0.0,150.0,11.0,0.0
8427,66.0,0.0,480.0,2.0,0.0
8428,50.0,0.0,390.0,13.0,0.0
8429,78.0,144.0,480.0,1.0,0.0
8430,78.0,240.0,150.0,10.0,0.0
8431,62.0,0.0,390.0,12.0,0.0
8432,74.0,0.0,480.0,1.0,0.0
8433,62.0,0.0,480.0,2.0,0.0
8434,74.0,0.0,150.0,11.0,0.0
8435,86.0,96.0,150.0,10.0,0.0
8436,86.0,0.0,150.0,10.0,0.0
8437,83.0,0.0,480.0,1.0,0.0
8438,79.0,0.0,480.0,1.0,0.0
8439,71.0,0.0,480.0,2.0,0.0
8440,67.0,144.0,480.0,2.0,0.0
8441,74.0,240.0,150.0,11.0,0.0
8442,86.0,96.0,150.0,10.0,0.0
8443,74.0,0.0,150.0,11.0,0.0
8444,78.0,0.0,390.0,1.0,0.0
8445,86.0,240.0,150.0,10.0,0.0
8446,66.0,0.0,390.0,2.0,0.0
8447,69.0,288.0,390.0,2.0,0.0
8448,81.0,0.0,390.0,1.0,0.0
8449,74.0,0.0,150.0,11.0,0.0
8450,86.0,0.0,150.0,10.0,0.0
8451,74.0,0.0,150.0,11.0,0.0
8452,66.0,48.0,180.0,2.0,0.0
8453,69.0,0.0,240.0,2.0,0.0
8454,43.0,168.0,270.0,14.0,0.0
8455,81.0,24.0,240.0,1.0,0.0
8456,78.0,0.0,180.0,1.0,0.0
8457,67.0,0.0,270.0,10.0,0.0
8458,55.0,0.0,270.0,13.0,0.0
8459,67.0,0.0,270.0,12.0,0.0
8460,67.0,0.0,270.0,11.0,0.0
8461,67.0,0.0,180.0,2.0,0.0
8462,64.0,0.0,180.0,2.0,0.0
8463,76.0,0.0,180.0,1.0,0.0
8464,79.0,240.0,180.0,1.0,0.0
8465,67.0,0.0,240.0,2.0,0.0
8466,64.0,0.0,180.0,2.0,0.0
8467,69.0,0.0,270.0,11.0,0.0
8468,69.0,168.0,270.0,10.0,0.0
8469,45.0,0.0,270.0,14.0,0.0
8470,69.0,0.0,270.0,12.0,0.0
8471,79.0,24.0,240.0,1.0,0.0
8472,76.0,48.0,180.0,1.0,0.0
8473,57.0,0.0,270.0,13.0,0.0
8474,66.0,240.0,180.0,2.0,0.0
8475,74.0,0.0,180.0,1.0,0.0
8476,62.0,0.0,180.0,2.0,0.0
8477,78.0,0.0,180.0,1.0,0.0
8478,66.0,24.0,240.0,2.0,0.0
8479,62.0,48.0,180.0,2.0,0.0
8480,45.0,0.0,270.0,13.0,0.0
8481,69.0,0.0,270.0,10.0,0.0
8482,57.0,0.0,270.0,12.0,0.0
8483,78.0,0.0,240.0,1.0,0.0
8484,33.0,168.0,270.0,14.0,0.0
8485,74.0,0.0,180.0,1.0,0.0
8486,69.0,0.0,270.0,11.0,0.0
8487,73.0,0.0,180.0,1.0,0.0
8488,64.0,0.0,180.0,2.0,0.0
8489,61.0,0.0,180.0,2.0,0.0
8490,76.0,144.0,180.0,1.0,0.0
8491,74.0,0.0,90.0,11.0,0.0
8492,74.0,120.0,90.0,10.0,0.0
8493,74.0,0.0,390.0,1.0,0.0
8494,50.0,0.0,390.0,13.0,0.0
8495,38.0,0.0,390.0,14.0,0.0
8496,62.0,0.0,390.0,12.0,0.0
8497,62.0,72.0,390.0,2.0,0.0
8498,74.0,0.0,90.0,11.0,0.0
8499,74.0,120.0,90.0,10.0,0.0
8500,86.0,48.0,90.0,10.0,0.0
8501,86.0,0.0,90.0,11.0,0.0
8502,86.0,120.0,90.0,10.0,0.0
8503,86.0,0.0,90.0,11.0,0.0
8504,81.0,0.0,90.0,11.0,0.0
8505,81.0,120.0,90.0,10.0,0.0
8506,81.0,0.0,90.0,11.0,0.0
8507,81.0,120.0,90.0,10.0,0.0
8508,78.0,120.0,90.0,11.0,0.0
8509,78.0,0.0,90.0,10.0,0.0
8510,78.0,0.0,90.0,10.0,0.0
8511,78.0,120.0,90.0,11.0,0.0
8512,74.0,120.0,90.0,11.0,0.0
8513,74.0,0.0,90.0,10.0,0.0
8514,74.0,120.0,90.0,10.0,0.0
8515,74.0,0.0,90.0,11.0,0.0
8516,69.0,0.0,90.0,11.0,0.0
8517,69.0,120.0,90.0,10.0,0.0
8518,69.0,120.0,90.0,10.0,0.0
8519,69.0,0.0,90.0,11.0,0.0
8520,60.0,0.0,90.0,11.0,0.0
8521,42.0,0.0,240.0,14.0,0.0
8522,62.0,48.0,390.0,3.0,0.0
8523,74.0,0.0,390.0,4.0,0.0
8524,54.0,0.0,240.0,13.0,0.0
8525,72.0,96.0,240.0,1.0,0.0
8526,57.0,0.0,240.0,12.0,0.0
8527,57.0,0.0,240.0,2.0,0.0
8528,69.0,0.0,240.0,1.0,0.0
8529,60.0,0.0,240.0,2.0,0.0
8530,60.0,120.0,90.0,10.0,0.0
8531,84.0,0.0,240.0,0.0,0.0
8532,50.0,0.0,390.0,5.0,0.0
8533,60.0,24.0,90.0,10.0,0.0
8534,60.0,0.0,90.0,11.0,0.0
8535,59.0,0.0,90.0,10.0,0.0
8536,83.0,96.0,240.0,0.0,0.0
8537,43.0,0.0,180.0,14.0,0.0
8538,59.0,48.0,90.0,11.0,0.0
8539,55.0,0.0,180.0,13.0,0.0
8540,55.0,0.0,240.0,2.0,0.0
8541,55.0,24.0,180.0,12.0,0.0
8542,59.0,0.0,240.0,2.0,0.0
8543,71.0,0.0,240.0,1.0,0.0
8544,67.0,0.0,240.0,1.0,0.0
8545,59.0,24.0,90.0,10.0,0.0
8546,59.0,0.0,90.0,11.0,0.0
8547,42.0,0.0,240.0,14.0,0.0
8548,54.0,0.0,240.0,13.0,0.0
8549,60.0,120.0,90.0,10.0,0.0
8550,74.0,0.0,390.0,4.0,0.0
8551,69.0,0.0,240.0,1.0,0.0
8552,72.0,96.0,240.0,1.0,0.0
8553,62.0,48.0,390.0,3.0,0.0
8554,60.0,0.0,90.0,11.0,0.0
8555,57.0,0.0,240.0,2.0,0.0
8556,60.0,0.0,240.0,2.0,0.0
8557,50.0,0.0,390.0,5.0,0.0
8558,84.0,0.0,240.0,0.0,0.0
8559,57.0,0.0,240.0,12.0,0.0
8560,60.0,24.0,90.0,11.0,0.0
8561,60.0,0.0,90.0,10.0,0.0
8562,83.0,0.0,240.0,0.0,0.0
8563,71.0,0.0,240.0,1.0,0.0
8564,55.0,0.0,180.0,12.0,0.0
8565,67.0,0.0,240.0,1.0,0.0
8566,43.0,0.0,180.0,14.0,0.0
8567,55.0,96.0,240.0,2.0,0.0
8568,55.0,24.0,180.0,13.0,0.0
8569,59.0,48.0,90.0,11.0,0.0
8570,59.0,0.0,90.0,10.0,0.0
8571,59.0,0.0,240.0,2.0,0.0
8572,59.0,0.0,90.0,10.0,0.0
8573,59.0,24.0,90.0,11.0,0.0
8574,54.0,0.0,240.0,13.0,0.0
8575,62.0,0.0,390.0,3.0,0.0
8576,84.0,0.0,240.0,0.0,0.0
8577,74.0,48.0,390.0,4.0,0.0
8578,60.0,0.0,90.0,11.0,0.0
8579,57.0,0.0,240.0,2.0,0.0
8580,60.0,120.0,90.0,10.0,0.0
8581,50.0,0.0,390.0,5.0,0.0
8582,60.0,0.0,240.0,2.0,0.0
8583,57.0,96.0,240.0,12.0,0.0
8584,42.0,0.0,240.0,14.0,0.0
8585,72.0,0.0,240.0,1.0,0.0
8586,69.0,0.0,240.0,1.0,0.0
8587,60.0,0.0,90.0,11.0,0.0
8588,60.0,24.0,90.0,10.0,0.0
8589,55.0,0.0,180.0,2.0,0.0
8590,59.0,0.0,180.0,2.0,0.0
8591,43.0,24.0,180.0,14.0,0.0
8592,59.0,0.0,90.0,10.0,0.0
8593,59.0,48.0,90.0,11.0,0.0
8594,83.0,0.0,180.0,0.0,0.0
8595,55.0,0.0,180.0,13.0,0.0
8596,71.0,0.0,180.0,1.0,0.0
8597,67.0,0.0,180.0,1.0,0.0
8598,55.0,0.0,180.0,12.0,0.0
8599,59.0,0.0,90.0,11.0,0.0
8600,59.0,120.0,90.0,10.0,0.0
8601,79.0,0.0,390.0,4.0,0.0
8602,81.0,0.0,390.0,4.0,0.0
8603,49.0,0.0,390.0,13.0,0.0
8604,52.0,0.0,390.0,2.0,0.0
8605,67.0,120.0,90.0,10.0,0.0
8606,64.0,72.0,390.0,12.0,0.0
8607,37.0,0.0,390.0,14.0,0.0
8608,64.0,0.0,390.0,1.0,0.0
8609,69.0,0.0,390.0,1.0,0.0
8610,69.0,0.0,390.0,3.0,0.0
8611,67.0,0.0,390.0,3.0,0.0
8612,67.0,0.0,90.0,11.0,0.0
8613,57.0,0.0,390.0,2.0,0.0
8614,81.0,0.0,390.0,0.0,0.0
8615,67.0,120.0,90.0,10.0,0.0
8616,67.0,0.0,90.0,11.0,0.0
8617,79.0,48.0,90.0,10.0,0.0
8618,79.0,0.0,90.0,11.0,0.0
8619,79.0,120.0,90.0,10.0,0.0
8620,79.0,0.0,90.0,11.0,0.0
8621,76.0,120.0,90.0,11.0,0.0
8622,76.0,0.0,90.0,10.0,0.0
8623,76.0,0.0,90.0,11.0,0.0
8624,76.0,120.0,90.0,10.0,0.0
8625,73.0,0.0,90.0,11.0,0.0
8626,73.0,120.0,90.0,10.0,0.0
8627,73.0,120.0,90.0,10.0,0.0
8628,73.0,0.0,90.0,11.0,0.0
8629,67.0,0.0,90.0,11.0,0.0
8630,67.0,120.0,90.0,10.0,0.0
8631,67.0,0.0,90.0,11.0,0.0
8632,67.0,120.0,90.0,10.0,0.0
8633,64.0,0.0,90.0,11.0,0.0
8634,64.0,120.0,90.0,10.0,0.0
8635,64.0,120.0,90.0,11.0,0.0
8636,64.0,0.0,90.0,10.0,0.0
8637,61.0,120.0,90.0,10.0,0.0
8638,69.0,0.0,390.0,3.0,0.0
8639,43.0,0.0,240.0,14.0,0.0
8640,52.0,0.0,240.0,12.0,0.0
8641,64.0,0.0,240.0,2.0,0.0
8642,73.0,0.0,240.0,1.0,0.0
8643,76.0,0.0,240.0,1.0,0.0
8644,81.0,48.0,390.0,4.0,0.0
8645,55.0,96.0,240.0,13.0,0.0
8646,85.0,0.0,240.0,0.0,0.0
8647,61.0,0.0,240.0,2.0,0.0
8648,61.0,0.0,90.0,11.0,0.0
8649,61.0,24.0,90.0,11.0,0.0
8650,61.0,0.0,90.0,10.0,0.0
8651,66.0,0.0,240.0,2.0,0.0
8652,62.0,0.0,240.0,2.0,0.0
8653,42.0,0.0,180.0,14.0,0.0
8654,78.0,96.0,240.0,1.0,0.0
8655,74.0,0.0,240.0,1.0,0.0
8656,54.0,24.0,180.0,13.0,0.0
8657,54.0,0.0,180.0,12.0,0.0
8658,62.0,48.0,90.0,10.0,0.0
8659,62.0,0.0,90.0,11.0,0.0
8660,86.0,0.0,240.0,0.0,0.0
8661,62.0,24.0,90.0,10.0,0.0
8662,62.0,0.0,90.0,11.0,0.0
8663,43.0,0.0,240.0,14.0,0.0
8664,52.0,0.0,240.0,12.0,0.0
8665,85.0,0.0,240.0,0.0,0.0
8666,69.0,48.0,390.0,3.0,0.0
8667,61.0,0.0,90.0,11.0,0.0
8668,55.0,0.0,240.0,13.0,0.0
8669,76.0,0.0,240.0,1.0,0.0
8670,73.0,0.0,240.0,1.0,0.0
8671,61.0,120.0,90.0,10.0,0.0
8672,64.0,96.0,240.0,2.0,0.0
8673,61.0,0.0,240.0,2.0,0.0
8674,81.0,0.0,390.0,4.0,0.0
8675,61.0,0.0,90.0,10.0,0.0
8676,61.0,24.0,90.0,11.0,0.0
8677,54.0,24.0,180.0,12.0,0.0
8678,54.0,0.0,180.0,13.0,0.0
8679,78.0,0.0,240.0,1.0,0.0
8680,66.0,96.0,240.0,2.0,0.0
8681,74.0,0.0,240.0,1.0,0.0
8682,42.0,0.0,180.0,14.0,0.0
8683,62.0,48.0,90.0,10.0,0.0
8684,62.0,0.0,90.0,11.0,0.0
8685,62.0,0.0,240.0,2.0,0.0
8686,86.0,0.0,240.0,0.0,0.0
8687,62.0,24.0,90.0,11.0,0.0
8688,62.0,0.0,90.0,10.0,0.0
8689,61.0,120.0,90.0,10.0,0.0
8690,43.0,0.0,240.0,14.0,0.0
8691,61.0,0.0,90.0,11.0,0.0
8692,81.0,48.0,390.0,4.0,0.0
8693,61.0,96.0,240.0,2.0,0.0
8694,64.0,0.0,240.0,2.0,0.0
8695,52.0,0.0,240.0,12.0,0.0
8696,55.0,0.0,240.0,13.0,0.0
8697,73.0,0.0,240.0,1.0,0.0
8698,76.0,0.0,240.0,1.0,0.0
8699,85.0,0.0,240.0,0.0,0.0
8700,69.0,0.0,390.0,3.0,0.0
8701,61.0,24.0,90.0,11.0,0.0
8702,61.0,0.0,90.0,10.0,0.0
8703,86.0,0.0,180.0,0.0,0.0
8704,54.0,24.0,180.0,12.0,0.0
8705,42.0,0.0,180.0,14.0,0.0
8706,78.0,0.0,180.0,1.0,0.0
8707,62.0,0.0,90.0,11.0,0.0
8708,74.0,0.0,180.0,1.0,0.0
8709,54.0,0.0,180.0,13.0,0.0
8710,62.0,48.0,90.0,10.0,0.0
8711,66.0,0.0,180.0,2.0,0.0
8712,62.0,0.0,180.0,2.0,0.0
8713,62.0,0.0,90.0,11.0,0.0
8714,62.0,120.0,90.0,10.0,0.0
8715,59.0,0.0,150.0,2.0,0.0
8716,55.0,0.0,150.0,2.0,0.0
8717,64.0,0.0,90.0,10.0,0.0
8718,59.0,60.0,150.0,12.0,0.0
8719,43.0,0.0,150.0,14.0,0.0
8720,76.0,0.0,150.0,1.0,0.0
8721,55.0,0.0,150.0,13.0,0.0
8722,64.0,48.0,90.0,11.0,0.0
8723,76.0,12.0,150.0,0.0,0.0
8724,64.0,120.0,90.0,10.0,0.0
8725,64.0,0.0,90.0,11.0,0.0
8726,61.0,0.0,150.0,12.0,0.0
8727,45.0,60.0,150.0,14.0,0.0
8728,78.0,0.0,150.0,1.0,0.0
8729,61.0,0.0,150.0,2.0,0.0
8730,57.0,0.0,150.0,2.0,0.0
8731,66.0,48.0,90.0,10.0,0.0
8732,57.0,0.0,150.0,13.0,0.0
8733,66.0,0.0,90.0,11.0,0.0
8734,78.0,12.0,150.0,0.0,0.0
8735,66.0,120.0,90.0,10.0,0.0
8736,66.0,0.0,90.0,11.0,0.0
8737,47.0,0.0,150.0,14.0,0.0
8738,62.0,60.0,150.0,12.0,0.0
8739,62.0,0.0,150.0,2.0,0.0
8740,59.0,0.0,150.0,2.0,0.0
8741,79.0,0.0,150.0,0.0,0.0
8742,67.0,48.0,90.0,11.0,0.0
8743,79.0,12.0,150.0,1.0,0.0
8744,59.0,0.0,150.0,13.0,0.0
8745,67.0,0.0,90.0,10.0,0.0
8746,67.0,0.0,90.0,11.0,0.0
8747,67.0,120.0,90.0,10.0,0.0
8748,61.0,0.0,150.0,2.0,0.0
8749,69.0,0.0,90.0,10.0,0.0
8750,64.0,0.0,150.0,2.0,0.0
8751,81.0,0.0,150.0,1.0,0.0
8752,49.0,0.0,150.0,14.0,0.0
8753,81.0,12.0,150.0,0.0,0.0
8754,69.0,48.0,90.0,11.0,0.0
8755,61.0,0.0,150.0,13.0,0.0
8756,64.0,60.0,150.0,12.0,0.0
8757,69.0,0.0,90.0,10.0,0.0
8758,69.0,120.0,90.0,11.0,0.0
8759,83.0,0.0,150.0,0.0,0.0
8760,62.0,0.0,150.0,13.0,0.0
8761,66.0,12.0,150.0,2.0,0.0
8762,71.0,0.0,90.0,11.0,0.0
8763,71.0,48.0,90.0,10.0,0.0
8764,62.0,0.0,150.0,2.0,0.0
8765,66.0,60.0,150.0,12.0,0.0
8766,83.0,0.0,150.0,1.0,0.0
8767,50.0,0.0,150.0,14.0,0.0
8768,71.0,120.0,90.0,11.0,0.0
8769,71.0,0.0,90.0,10.0,0.0
8770,67.0,0.0,150.0,12.0,0.0
8771,85.0,0.0,150.0,0.0,0.0
8772,85.0,0.0,150.0,1.0,0.0
8773,64.0,12.0,150.0,2.0,0.0
8774,73.0,0.0,90.0,11.0,0.0
8775,73.0,48.0,90.0,10.0,0.0
8776,52.0,0.0,150.0,14.0,0.0
8777,64.0,60.0,150.0,13.0,0.0
8778,67.0,0.0,150.0,2.0,0.0
8779,73.0,120.0,90.0,10.0,0.0
8780,73.0,0.0,90.0,11.0,0.0
8781,86.0,12.0,150.0,1.0,0.0
8782,74.0,0.0,90.0,10.0,0.0
8783,66.0,0.0,150.0,2.0,0.0
8784,69.0,0.0,150.0,2.0,0.0
8785,54.0,0.0,150.0,14.0,0.0
8786,86.0,0.0,150.0,0.0,0.0
8787,81.0,48.0,570.0,4.0,0.0
8788,69.0,60.0,150.0,12.0,0.0
8789,69.0,0.0,570.0,3.0,0.0
8790,74.0,48.0,90.0,11.0,0.0
8791,66.0,0.0,150.0,13.0,0.0
8792,74.0,0.0,90.0,11.0,0.0
8793,74.0,120.0,90.0,10.0,0.0
8794,69.0,48.0,420.0,12.0,0.0
8795,49.0,60.0,150.0,14.0,0.0
8796,61.0,12.0,150.0,2.0,0.0
8797,88.0,0.0,150.0,0.0,0.0
8798,76.0,0.0,90.0,11.0,0.0
8799,76.0,48.0,90.0,10.0,0.0
8800,76.0,0.0,150.0,1.0,0.0
8801,61.0,0.0,150.0,13.0,0.0
8802,76.0,120.0,90.0,10.0,0.0
8803,76.0,0.0,90.0,11.0,0.0
8804,62.0,0.0,150.0,2.0,0.0
8805,78.0,0.0,90.0,11.0,0.0
8806,90.0,12.0,150.0,0.0,0.0
8807,62.0,12.0,150.0,13.0,0.0
8808,78.0,0.0,90.0,10.0,0.0
8809,50.0,0.0,150.0,14.0,0.0
8810,78.0,0.0,150.0,1.0,0.0
8811,78.0,0.0,90.0,11.0,0.0
8812,78.0,120.0,90.0,10.0,0.0
8813,79.0,12.0,150.0,1.0,0.0
8814,47.0,0.0,150.0,14.0,0.0
8815,79.0,0.0,90.0,11.0,0.0
8816,59.0,0.0,150.0,2.0,0.0
8817,74.0,24.0,420.0,12.0,0.0
8818,74.0,24.0,180.0,4.0,0.0
8819,59.0,36.0,150.0,13.0,0.0
8820,79.0,48.0,90.0,10.0,0.0
8821,62.0,0.0,180.0,3.0,0.0
8822,91.0,0.0,150.0,0.0,0.0
8823,79.0,0.0,90.0,10.0,0.0
8824,79.0,120.0,90.0,11.0,0.0
8825,81.0,48.0,90.0,10.0,0.0
8826,57.0,0.0,150.0,13.0,0.0
8827,74.0,0.0,180.0,4.0,0.0
8828,62.0,24.0,180.0,3.0,0.0
8829,93.0,12.0,150.0,0.0,0.0
8830,81.0,0.0,150.0,1.0,0.0
8831,57.0,0.0,150.0,2.0,0.0
8832,45.0,12.0,150.0,14.0,0.0
8833,81.0,0.0,90.0,11.0,0.0
8834,81.0,0.0,90.0,10.0,0.0
8835,81.0,120.0,90.0,11.0,0.0
8836,74.0,0.0,180.0,4.0,0.0
8837,62.0,24.0,180.0,3.0,0.0
8838,55.0,0.0,150.0,2.0,0.0
8839,83.0,0.0,90.0,11.0,0.0
8840,43.0,0.0,150.0,14.0,0.0
8841,95.0,12.0,150.0,0.0,0.0
8842,83.0,0.0,150.0,1.0,0.0
8843,74.0,0.0,150.0,12.0,0.0
8844,83.0,48.0,90.0,10.0,0.0
8845,55.0,36.0,150.0,13.0,0.0
8846,83.0,216.0,90.0,11.0,0.0
8847,83.0,0.0,90.0,10.0,0.0
8848,81.0,192.0,1140.0,1.0,0.0
8849,81.0,0.0,780.0,4.0,0.0
8850,84.0,0.0,1140.0,1.0,0.0
8851,75.0,0.0,180.0,12.0,0.0
8852,87.0,0.0,1140.0,0.0,0.0
8853,84.0,0.0,780.0,11.0,0.0
8854,60.0,0.0,1140.0,2.0,0.0
8855,84.0,0.0,780.0,10.0,0.0
8856,42.0,0.0,180.0,14.0,0.0
8857,72.0,144.0,780.0,3.0,0.0
8858,69.0,0.0,780.0,3.0,0.0
8859,54.0,240.0,180.0,13.0,0.0
8860,63.0,0.0,1140.0,2.0,0.0
8861,54.0,240.0,180.0,13.0,0.0
8862,42.0,0.0,180.0,14.0,0.0
8863,75.0,0.0,180.0,12.0,0.0
8864,54.0,0.0,180.0,13.0,0.0
8865,75.0,0.0,180.0,12.0,0.0
8866,42.0,96.0,180.0,14.0,0.0
8867,75.0,0.0,180.0,12.0,0.0
8868,54.0,0.0,180.0,13.0,0.0
8869,42.0,240.0,180.0,14.0,0.0
8870,81.0,0.0,390.0,4.0,0.0
8871,42.0,0.0,180.0,14.0,0.0
8872,84.0,0.0,390.0,11.0,0.0
8873,54.0,0.0,180.0,13.0,0.0
8874,75.0,0.0,180.0,12.0,0.0
8875,72.0,0.0,390.0,3.0,0.0
8876,84.0,0.0,390.0,10.0,0.0
8877,69.0,48.0,390.0,3.0,0.0
8878,42.0,0.0,180.0,14.0,0.0
8879,75.0,144.0,180.0,12.0,0.0
8880,54.0,0.0,180.0,13.0,0.0
8881,88.0,0.0,1140.0,0.0,0.0
8882,67.0,24.0,390.0,3.0,0.0
8883,43.0,0.0,180.0,14.0,0.0
8884,64.0,0.0,1140.0,2.0,0.0
8885,59.0,0.0,1140.0,2.0,0.0
8886,83.0,0.0,1140.0,1.0,0.0
8887,82.0,0.0,90.0,11.0,0.0
8888,79.0,240.0,1140.0,1.0,0.0
8889,71.0,0.0,390.0,3.0,0.0
8890,76.0,0.0,180.0,12.0,0.0
8891,79.0,0.0,390.0,4.0,0.0
8892,82.0,96.0,90.0,10.0,0.0
8893,55.0,192.0,180.0,13.0,0.0
8894,83.0,24.0,300.0,11.0,0.0
8895,83.0,0.0,300.0,10.0,0.0
8896,55.0,0.0,180.0,13.0,0.0
8897,76.0,240.0,180.0,12.0,0.0
8898,43.0,0.0,180.0,14.0,0.0
8899,83.0,0.0,390.0,10.0,0.0
8900,76.0,192.0,180.0,12.0,0.0
8901,67.0,48.0,390.0,3.0,0.0
8902,71.0,0.0,390.0,3.0,0.0
8903,43.0,0.0,180.0,14.0,0.0
8904,83.0,0.0,390.0,11.0,0.0
8905,55.0,0.0,180.0,13.0,0.0
8906,79.0,0.0,390.0,4.0,0.0
8907,43.0,0.0,180.0,14.0,0.0
8908,55.0,0.0,180.0,13.0,0.0
8909,76.0,240.0,180.0,12.0,0.0
8910,43.0,0.0,180.0,14.0,0.0
8911,55.0,0.0,180.0,13.0,0.0
8912,76.0,0.0,180.0,12.0,0.0
8913,55.0,240.0,180.0,13.0,0.0
8914,76.0,0.0,180.0,12.0,0.0
8915,43.0,0.0,180.0,14.0,0.0
8916,77.0,240.0,180.0,12.0,0.0
8917,44.0,0.0,180.0,14.0,0.0
8918,86.0,96.0,660.0,10.0,0.0
8919,83.0,144.0,780.0,4.0,0.0
8920,56.0,0.0,180.0,13.0,0.0
8921,86.0,0.0,660.0,11.0,0.0
8922,74.0,0.0,780.0,4.0,0.0
8923,86.0,0.0,2580.0,1.0,0.0
8924,89.0,0.0,1140.0,0.0,0.0
8925,83.0,0.0,1140.0,1.0,0.0
8926,71.0,0.0,780.0,3.0,0.0
8927,59.0,0.0,1140.0,2.0,0.0
8928,65.0,48.0,1140.0,2.0,0.0
8929,62.0,0.0,780.0,3.0,0.0
8930,56.0,0.0,180.0,13.0,0.0
8931,44.0,240.0,180.0,14.0,0.0
8932,77.0,0.0,180.0,12.0,0.0
8933,77.0,0.0,180.0,12.0,0.0
8934,44.0,0.0,180.0,14.0,0.0
8935,56.0,0.0,180.0,13.0,0.0
8936,44.0,0.0,180.0,14.0,0.0
8937,77.0,24.0,180.0,12.0,0.0
8938,56.0,0.0,180.0,13.0,0.0
8939,86.0,84.0,90.0,10.0,0.0
8940,86.0,0.0,90.0,11.0,0.0
8941,62.0,36.0,390.0,3.0,0.0
8942,88.0,0.0,60.0,11.0,0.0
8943,56.0,0.0,180.0,13.0,0.0
8944,88.0,60.0,60.0,10.0,0.0
8945,71.0,0.0,390.0,3.0,0.0
8946,44.0,0.0,180.0,14.0,0.0
8947,77.0,0.0,180.0,12.0,0.0
8948,83.0,0.0,390.0,4.0,0.0
8949,74.0,0.0,390.0,4.0,0.0
8950,86.0,60.0,60.0,10.0,0.0
8951,86.0,0.0,60.0,11.0,0.0
8952,88.0,12.0,60.0,11.0,0.0
8953,88.0,0.0,60.0,10.0,0.0
8954,86.0,60.0,60.0,10.0,0.0
8955,86.0,0.0,60.0,11.0,0.0
8956,44.0,0.0,180.0,14.0,0.0
8957,88.0,60.0,60.0,11.0,0.0
8958,88.0,0.0,60.0,10.0,0.0
8959,56.0,0.0,180.0,13.0,0.0
8960,77.0,36.0,180.0,12.0,0.0
8961,86.0,24.0,60.0,10.0,0.0
8962,86.0,0.0,60.0,11.0,0.0
8963,85.0,0.0,60.0,11.0,0.0
8964,85.0,12.0,60.0,10.0,0.0
8965,86.0,204.0,60.0,10.0,0.0
8966,86.0,0.0,60.0,11.0,0.0
8967,45.0,0.0,180.0,14.0,0.0
8968,69.0,0.0,1140.0,3.0,0.0
8969,62.0,0.0,1140.0,2.0,0.0
8970,81.0,0.0,1140.0,1.0,0.0
8971,78.0,240.0,180.0,12.0,0.0
8972,90.0,240.0,660.0,10.0,0.0
8973,90.0,96.0,1140.0,0.0,0.0
8974,81.0,0.0,1140.0,4.0,0.0
8975,90.0,0.0,660.0,11.0,0.0
8976,57.0,0.0,180.0,13.0,0.0
8977,66.0,0.0,1140.0,2.0,0.0
8978,74.0,240.0,180.0,12.0,0.0
8979,45.0,0.0,180.0,14.0,0.0
8980,57.0,0.0,180.0,13.0,0.0
8981,45.0,0.0,180.0,14.0,0.0
8982,57.0,0.0,180.0,13.0,0.0
8983,74.0,0.0,180.0,12.0,0.0
8984,45.0,0.0,180.0,14.0,0.0
8985,57.0,24.0,180.0,13.0,0.0
8986,74.0,0.0,180.0,12.0,0.0
8987,86.0,216.0,90.0,10.0,0.0
8988,86.0,0.0,90.0,11.0,0.0
8989,74.0,0.0,180.0,12.0,0.0
8990,90.0,0.0,300.0,10.0,0.0
8991,90.0,144.0,300.0,11.0,0.0
8992,45.0,0.0,180.0,14.0,0.0
8993,57.0,0.0,180.0,13.0,0.0
8994,74.0,24.0,180.0,12.0,0.0
8995,57.0,0.0,180.0,13.0,0.0
8996,45.0,0.0,180.0,14.0,0.0
8997,86.0,0.0,90.0,10.0,0.0
8998,86.0,216.0,90.0,11.0,0.0
8999,91.0,0.0,1140.0,0.0,0.0
9000,91.0,0.0,270.0,11.0,0.0
9001,57.0,72.0,180.0,13.0,0.0
9002,45.0,0.0,180.0,14.0,0.0
9003,69.0,48.0,390.0,3.0,0.0
9004,61.0,0.0,1140.0,2.0,0.0
9005,64.0,0.0,1140.0,2.0,0.0
9006,81.0,0.0,390.0,4.0,0.0
9007,88.0,0.0,1140.0,1.0,0.0
9008,91.0,120.0,270.0,10.0,0.0
9009,85.0,0.0,1140.0,1.0,0.0
9010,73.0,0.0,180.0,12.0,0.0
9011,57.0,0.0,180.0,13.0,0.0
9012,45.0,240.0,180.0,14.0,0.0
9013,73.0,0.0,180.0,12.0,0.0
9014,81.0,0.0,390.0,4.0,0.0
9015,45.0,72.0,180.0,14.0,0.0
9016,88.0,0.0,270.0,10.0,0.0
9017,57.0,0.0,180.0,13.0,0.0
9018,88.0,120.0,270.0,11.0,0.0
9019,69.0,48.0,390.0,3.0,0.0
9020,76.0,0.0,180.0,12.0,0.0
9021,45.0,240.0,180.0,14.0,0.0
9022,76.0,0.0,180.0,12.0,0.0
9023,57.0,0.0,180.0,13.0,0.0
9024,85.0,0.0,270.0,10.0,0.0
9025,85.0,120.0,270.0,11.0,0.0
9026,69.0,48.0,390.0,3.0,0.0
9027,81.0,0.0,390.0,4.0,0.0
9028,57.0,0.0,180.0,13.0,0.0
9029,45.0,0.0,180.0,14.0,0.0
9030,79.0,72.0,180.0,12.0,0.0
9031,57.0,240.0,180.0,13.0,0.0
9032,45.0,0.0,180.0,14.0,0.0
9033,79.0,0.0,180.0,12.0,0.0
9034,90.0,192.0,1140.0,0.0,0.0
9035,75.0,192.0,180.0,12.0,0.0
9036,81.0,96.0,780.0,4.0,0.0
9037,84.0,48.0,870.0,10.0,0.0
9038,66.0,0.0,390.0,10.0,0.0
9039,75.0,48.0,390.0,10.0,0.0
9040,69.0,0.0,780.0,3.0,0.0
9041,57.0,0.0,180.0,13.0,0.0
9042,84.0,0.0,870.0,11.0,0.0
9043,63.0,0.0,1140.0,2.0,0.0
9044,66.0,0.0,1140.0,2.0,0.0
9045,66.0,0.0,390.0,11.0,0.0
9046,75.0,0.0,390.0,11.0,0.0
9047,87.0,0.0,1140.0,1.0,0.0
9048,84.0,0.0,1140.0,1.0,0.0
9049,45.0,0.0,180.0,14.0,0.0
9050,72.0,0.0,780.0,3.0,0.0
9051,75.0,0.0,180.0,12.0,0.0
9052,57.0,0.0,180.0,13.0,0.0
9053,45.0,240.0,180.0,14.0,0.0
9054,57.0,0.0,180.0,13.0,0.0
9055,75.0,96.0,180.0,12.0,0.0
9056,45.0,0.0,180.0,14.0,0.0
9057,75.0,240.0,180.0,12.0,0.0
9058,57.0,0.0,180.0,13.0,0.0
9059,45.0,0.0,180.0,14.0,0.0
9060,45.0,0.0,180.0,14.0,0.0
9061,84.0,0.0,390.0,10.0,0.0
9062,84.0,0.0,390.0,11.0,0.0
9063,69.0,0.0,390.0,3.0,0.0
9064,57.0,0.0,180.0,13.0,0.0
9065,81.0,48.0,390.0,4.0,0.0
9066,72.0,0.0,390.0,3.0,0.0
9067,75.0,0.0,180.0,12.0,0.0
9068,57.0,144.0,180.0,13.0,0.0
9069,75.0,0.0,180.0,12.0,0.0
9070,45.0,0.0,180.0,14.0,0.0
9071,43.0,0.0,180.0,14.0,0.0
9072,91.0,0.0,1140.0,0.0,0.0
9073,83.0,240.0,1140.0,1.0,0.0
9074,88.0,0.0,1140.0,1.0,0.0
9075,76.0,192.0,180.0,12.0,0.0
9076,71.0,24.0,390.0,3.0,0.0
9077,64.0,0.0,1140.0,2.0,0.0
9078,82.0,0.0,90.0,10.0,0.0
9079,67.0,0.0,1140.0,2.0,0.0
9080,79.0,0.0,390.0,4.0,0.0
9081,82.0,96.0,90.0,11.0,0.0
9082,55.0,0.0,180.0,13.0,0.0
9083,67.0,0.0,390.0,3.0,0.0
9084,83.0,0.0,300.0,10.0,0.0
9085,83.0,24.0,300.0,11.0,0.0
9086,55.0,240.0,180.0,13.0,0.0
9087,76.0,0.0,180.0,12.0,0.0
9088,43.0,0.0,180.0,14.0,0.0
9089,71.0,0.0,390.0,3.0,0.0
9090,83.0,0.0,390.0,10.0,0.0
9091,76.0,0.0,180.0,12.0,0.0
9092,67.0,0.0,390.0,3.0,0.0
9093,79.0,0.0,390.0,4.0,0.0
9094,43.0,0.0,180.0,14.0,0.0
9095,55.0,192.0,180.0,13.0,0.0
9096,83.0,48.0,390.0,11.0,0.0
9097,55.0,0.0,180.0,13.0,0.0
9098,76.0,0.0,180.0,12.0,0.0
9099,43.0,240.0,180.0,14.0,0.0
9100,76.0,0.0,180.0,12.0,0.0
9101,43.0,0.0,180.0,14.0,0.0
9102,55.0,0.0,180.0,13.0,0.0
9103,76.0,0.0,180.0,12.0,0.0
9104,43.0,0.0,180.0,14.0,0.0
9105,55.0,240.0,180.0,13.0,0.0
9106,74.0,0.0,780.0,4.0,0.0
9107,83.0,0.0,780.0,4.0,0.0
9108,89.0,0.0,1140.0,1.0,0.0
9109,59.0,0.0,180.0,13.0,0.0
9110,86.0,0.0,660.0,11.0,0.0
9111,92.0,0.0,1140.0,0.0,0.0
9112,68.0,0.0,1140.0,2.0,0.0
9113,65.0,0.0,1140.0,2.0,0.0
9114,71.0,144.0,780.0,3.0,0.0
9115,62.0,0.0,780.0,3.0,0.0
9116,47.0,0.0,180.0,14.0,0.0
9117,86.0,96.0,660.0,10.0,0.0
9118,86.0,0.0,1140.0,1.0,0.0
9119,77.0,240.0,180.0,12.0,0.0
9120,59.0,0.0,180.0,13.0,0.0
9121,47.0,240.0,180.0,14.0,0.0
9122,77.0,0.0,180.0,12.0,0.0
9123,77.0,0.0,180.0,12.0,0.0
9124,47.0,0.0,180.0,14.0,0.0
9125,59.0,0.0,180.0,13.0,0.0
9126,47.0,0.0,180.0,14.0,0.0
9127,77.0,0.0,180.0,12.0,0.0
9128,59.0,24.0,180.0,13.0,0.0
9129,86.0,0.0,90.0,10.0,0.0
9130,86.0,84.0,90.0,11.0,0.0
9131,88.0,60.0,60.0,10.0,0.0
9132,77.0,0.0,180.0,12.0,0.0
9133,74.0,36.0,390.0,4.0,0.0
9134,71.0,0.0,390.0,3.0,0.0
9135,88.0,0.0,60.0,11.0,0.0
9136,47.0,0.0,180.0,14.0,0.0
9137,59.0,48.0,180.0,13.0,0.0
9138,83.0,0.0,390.0,4.0,0.0
9139,62.0,0.0,390.0,3.0,0.0
9140,86.0,0.0,60.0,11.0,0.0
9141,86.0,60.0,60.0,10.0,0.0
9142,88.0,12.0,60.0,11.0,0.0
9143,88.0,0.0,60.0,10.0,0.0
9144,86.0,60.0,60.0,11.0,0.0
9145,86.0,0.0,60.0,10.0,0.0
9146,47.0,0.0,180.0,14.0,0.0
9147,88.0,0.0,60.0,10.0,0.0
9148,88.0,60.0,60.0,11.0,0.0
9149,77.0,36.0,180.0,12.0,0.0
9150,59.0,0.0,180.0,13.0,0.0
9151,86.0,0.0,60.0,11.0,0.0
9152,86.0,24.0,60.0,10.0,0.0
9153,85.0,0.0,60.0,11.0,0.0
9154,85.0,12.0,60.0,10.0,0.0
9155,86.0,0.0,60.0,11.0,0.0
9156,86.0,204.0,60.0,10.0,0.0
9157,81.0,0.0,1140.0,4.0,0.0
9158,90.0,0.0,1140.0,1.0,0.0
9159,86.0,0.0,1140.0,1.0,0.0
9160,66.0,192.0,960.0,2.0,0.0
9161,78.0,0.0,180.0,12.0,0.0
9162,69.0,0.0,960.0,2.0,0.0
9163,93.0,0.0,1140.0,0.0,0.0
9164,57.0,240.0,180.0,13.0,0.0
9165,69.0,0.0,1140.0,3.0,0.0
9166,45.0,0.0,180.0,14.0,0.0
9167,90.0,0.0,660.0,10.0,0.0
9168,90.0,0.0,660.0,11.0,0.0
9169,74.0,240.0,180.0,12.0,0.0
9170,45.0,0.0,180.0,14.0,0.0
9171,57.0,0.0,180.0,13.0,0.0
9172,57.0,0.0,180.0,13.0,0.0
9173,45.0,0.0,180.0,14.0,0.0
9174,74.0,240.0,180.0,12.0,0.0
9175,74.0,0.0,180.0,12.0,0.0
9176,57.0,0.0,180.0,13.0,0.0
9177,45.0,24.0,180.0,14.0,0.0
9178,86.0,24.0,90.0,11.0,0.0
9179,86.0,0.0,90.0,10.0,0.0
9180,45.0,0.0,180.0,14.0,0.0
9181,90.0,0.0,300.0,10.0,0.0
9182,74.0,96.0,180.0,12.0,0.0
9183,62.0,0.0,390.0,2.0,0.0
9184,66.0,48.0,390.0,2.0,0.0
9185,57.0,0.0,180.0,13.0,0.0
9186,90.0,96.0,300.0,11.0,0.0
9187,74.0,0.0,180.0,12.0,0.0
9188,45.0,0.0,180.0,14.0,0.0
9189,57.0,24.0,180.0,13.0,0.0
9190,86.0,0.0,90.0,11.0,0.0
9191,86.0,216.0,90.0,10.0,0.0
9192,73.0,72.0,180.0,12.0,0.0
9193,85.0,0.0,1140.0,0.0,0.0
9194,91.0,0.0,270.0,11.0,0.0
9195,45.0,0.0,180.0,14.0,0.0
9196,67.0,192.0,960.0,2.0,0.0
9197,69.0,0.0,390.0,3.0,0.0
9198,81.0,48.0,390.0,4.0,0.0
9199,76.0,0.0,1140.0,1.0,0.0
9200,57.0,0.0,180.0,13.0,0.0
9201,79.0,0.0,1140.0,1.0,0.0
9202,91.0,120.0,270.0,10.0,0.0
9203,57.0,0.0,180.0,13.0,0.0
9204,45.0,240.0,180.0,14.0,0.0
9205,73.0,0.0,180.0,12.0,0.0
9206,81.0,48.0,390.0,4.0,0.0
9207,69.0,0.0,390.0,3.0,0.0
9208,76.0,72.0,180.0,12.0,0.0
9209,88.0,0.0,270.0,10.0,0.0
9210,57.0,0.0,180.0,13.0,0.0
9211,88.0,120.0,270.0,11.0,0.0
9212,45.0,0.0,180.0,14.0,0.0
9213,45.0,0.0,180.0,14.0,0.0
9214,57.0,0.0,180.0,13.0,0.0
9215,76.0,48.0,180.0,12.0,0.0
9216,61.0,0.0,390.0,2.0,0.0
9217,64.0,0.0,15.0,2.0,0.0
9218,57.0,0.0,180.0,13.0,0.0
9219,69.0,0.0,390.0,3.0,0.0
9220,85.0,0.0,270.0,10.0,0.0
9221,85.0,120.0,270.0,11.0,0.0
9222,45.0,72.0,180.0,14.0,0.0
9223,81.0,48.0,390.0,4.0,0.0
9224,79.0,0.0,180.0,12.0,0.0
9225,45.0,0.0,180.0,14.0,0.0
9226,57.0,144.0,180.0,13.0,0.0
9227,79.0,0.0,180.0,12.0,0.0
9228,74.0,0.0,390.0,4.0,0.0
9229,81.0,0.0,390.0,4.0,0.0
9230,50.0,0.0,390.0,14.0,0.0
9231,50.0,0.0,390.0,5.0,0.0
9232,78.0,0.0,390.0,12.0,0.0
9233,86.0,0.0,390.0,0.0,0.0
9234,62.0,0.0,390.0,2.0,0.0
9235,62.0,0.0,390.0,3.0,0.0
9236,86.0,120.0,90.0,10.0,0.0
9237,69.0,0.0,390.0,3.0,0.0
9238,78.0,72.0,390.0,1.0,0.0
9239,62.0,0.0,390.0,13.0,0.0
9240,86.0,0.0,90.0,11.0,0.0
9241,74.0,0.0,390.0,1.0,0.0
9242,86.0,120.0,90.0,10.0,0.0
9243,86.0,0.0,90.0,11.0,0.0
9244,81.0,48.0,90.0,10.0,0.0
9245,81.0,0.0,90.0,11.0,0.0
9246,81.0,0.0,90.0,10.0,0.0
9247,81.0,120.0,90.0,11.0,0.0
9248,90.0,0.0,90.0,10.0,0.0
9249,90.0,120.0,90.0,11.0,0.0
9250,90.0,120.0,90.0,10.0,0.0
9251,90.0,0.0,90.0,11.0,0.0
9252,86.0,120.0,90.0,11.0,0.0
9253,86.0,0.0,90.0,10.0,0.0
9254,86.0,120.0,90.0,10.0,0.0
9255,86.0,0.0,90.0,11.0,0.0
9256,81.0,0.0,90.0,10.0,0.0
9257,81.0,120.0,90.0,11.0,0.0
9258,81.0,0.0,90.0,10.0,0.0
9259,81.0,120.0,90.0,11.0,0.0
9260,66.0,24.0,180.0,2.0,0.0
9261,78.0,96.0,90.0,10.0,0.0
9262,66.0,0.0,180.0,13.0,0.0
9263,54.0,0.0,180.0,14.0,0.0
9264,78.0,0.0,180.0,1.0,0.0
9265,78.0,0.0,90.0,11.0,0.0
9266,78.0,0.0,180.0,12.0,0.0
9267,90.0,0.0,180.0,0.0,0.0
9268,78.0,120.0,90.0,11.0,0.0
9269,78.0,0.0,90.0,10.0,0.0
9270,79.0,24.0,180.0,12.0,0.0
9271,67.0,0.0,180.0,2.0,0.0
9272,79.0,0.0,180.0,1.0,0.0
9273,79.0,96.0,90.0,10.0,0.0
9274,91.0,0.0,180.0,0.0,0.0
9275,67.0,0.0,180.0,13.0,0.0
9276,55.0,0.0,180.0,14.0,0.0
9277,79.0,0.0,90.0,11.0,0.0
9278,79.0,120.0,90.0,10.0,0.0
9279,79.0,0.0,90.0,11.0,0.0
9280,59.0,0.0,180.0,14.0,0.0
9281,71.0,0.0,180.0,13.0,0.0
9282,95.0,0.0,180.0,0.0,0.0
9283,83.0,0.0,180.0,12.0,0.0
9284,83.0,0.0,180.0,1.0,0.0
9285,83.0,0.0,90.0,10.0,0.0
9286,83.0,96.0,90.0,11.0,0.0
9287,71.0,24.0,180.0,2.0,0.0
9288,83.0,0.0,90.0,10.0,0.0
9289,83.0,120.0,90.0,11.0,0.0
9290,64.0,0.0,180.0,2.0,0.0
9291,52.0,0.0,180.0,14.0,0.0
9292,76.0,96.0,90.0,11.0,0.0
9293,88.0,24.0,180.0,0.0,0.0
9294,76.0,0.0,180.0,12.0,0.0
9295,76.0,0.0,180.0,1.0,0.0
9296,76.0,0.0,90.0,10.0,0.0
9297,64.0,0.0,180.0,13.0,0.0
9298,76.0,120.0,90.0,11.0,0.0
9299,76.0,0.0,90.0,10.0,0.0
9300,79.0,0.0,90.0,10.0,0.0
9301,55.0,0.0,180.0,14.0,0.0
9302,91.0,0.0,180.0,0.0,0.0
9303,79.0,0.0,180.0,12.0,0.0
9304,67.0,24.0,180.0,2.0,0.0
9305,67.0,0.0,180.0,13.0,0.0
9306,79.0,96.0,90.0,11.0,0.0
9307,79.0,0.0,180.0,1.0,0.0
9308,79.0,120.0,90.0,11.0,0.0
9309,79.0,0.0,90.0,10.0,0.0
9310,73.0,0.0,180.0,12.0,0.0
9311,85.0,0.0,180.0,0.0,0.0
9312,73.0,0.0,90.0,11.0,0.0
9313,73.0,0.0,180.0,1.0,0.0
9314,61.0,24.0,180.0,13.0,0.0
9315,61.0,0.0,180.0,2.0,0.0
9316,73.0,96.0,90.0,10.0,0.0
9317,49.0,0.0,180.0,14.0,0.0
9318,73.0,120.0,90.0,10.0,0.0
9319,73.0,0.0,90.0,11.0,0.0
9320,76.0,96.0,90.0,11.0,0.0
9321,52.0,0.0,180.0,14.0,0.0
9322,76.0,0.0,90.0,10.0,0.0
9323,88.0,0.0,180.0,0.0,0.0
9324,64.0,24.0,180.0,2.0,0.0
9325,64.0,0.0,180.0,13.0,0.0
9326,76.0,0.0,180.0,1.0,0.0
9327,76.0,0.0,180.0,12.0,0.0
9328,76.0,120.0,90.0,11.0,0.0
9329,76.0,0.0,90.0,10.0,0.0
9330,74.0,0.0,90.0,10.0,0.0
9331,74.0,96.0,90.0,11.0,0.0
9332,62.0,0.0,180.0,2.0,0.0
9333,50.0,48.0,390.0,5.0,0.0
9334,74.0,0.0,390.0,4.0,0.0
9335,74.0,24.0,180.0,1.0,0.0
9336,86.0,0.0,180.0,0.0,0.0
9337,62.0,0.0,180.0,13.0,0.0
9338,74.0,0.0,180.0,12.0,0.0
9339,50.0,0.0,180.0,14.0,0.0
9340,62.0,0.0,390.0,3.0,0.0
9341,74.0,0.0,90.0,10.0,0.0
9342,74.0,120.0,90.0,11.0,0.0
9343,69.0,0.0,180.0,1.0,0.0
9344,45.0,0.0,180.0,14.0,0.0
9345,69.0,48.0,90.0,10.0,0.0
9346,81.0,0.0,180.0,0.0,0.0
9347,69.0,0.0,180.0,12.0,0.0
9348,57.0,0.0,180.0,13.0,0.0
9349,69.0,0.0,90.0,11.0,0.0
9350,57.0,24.0,180.0,2.0,0.0
9351,69.0,120.0,90.0,10.0,0.0
9352,69.0,0.0,90.0,11.0,0.0
9353,90.0,0.0,180.0,0.0,0.0
9354,78.0,0.0,180.0,12.0,0.0
9355,78.0,96.0,90.0,11.0,0.0
9356,78.0,0.0,90.0,10.0,0.0
9357,66.0,0.0,180.0,2.0,0.0
9358,78.0,24.0,180.0,1.0,0.0
9359,54.0,0.0,180.0,14.0,0.0
9360,66.0,0.0,180.0,13.0,0.0
9361,78.0,120.0,90.0,11.0,0.0
9362,78.0,0.0,90.0,10.0,0.0
9363,74.0,0.0,180.0,12.0,0.0
9364,62.0,0.0,180.0,13.0,0.0
9365,74.0,24.0,180.0,1.0,0.0
9366,62.0,0.0,180.0,2.0,0.0
9367,74.0,96.0,90.0,11.0,0.0
9368,50.0,0.0,180.0,14.0,0.0
9369,86.0,0.0,180.0,0.0,0.0
9370,74.0,0.0,90.0,10.0,0.0
9371,74.0,120.0,90.0,11.0,0.0
9372,74.0,0.0,90.0,10.0,0.0
9373,69.0,0.0,180.0,1.0,0.0
9374,69.0,96.0,90.0,10.0,0.0
9375,69.0,0.0,180.0,12.0,0.0
9376,81.0,24.0,180.0,0.0,0.0
9377,45.0,0.0,180.0,14.0,0.0
9378,57.0,0.0,180.0,13.0,0.0
9379,57.0,0.0,180.0,2.0,0.0
9380,69.0,0.0,90.0,11.0,0.0
9381,69.0,120.0,90.0,11.0,0.0
9382,69.0,0.0,90.0,10.0,0.0
9383,54.0,0.0,180.0,13.0,0.0
9384,66.0,0.0,180.0,1.0,0.0
9385,66.0,0.0,180.0,12.0,0.0
9386,42.0,0.0,180.0,14.0,0.0
9387,90.0,24.0,180.0,0.0,0.0
9388,54.0,0.0,180.0,2.0,0.0
9389,66.0,96.0,90.0,10.0,0.0
9390,66.0,0.0,90.0,11.0,0.0
9391,78.0,0.0,180.0,1.0,0.0
9392,66.0,120.0,90.0,11.0,0.0
9393,66.0,0.0,90.0,10.0,0.0
9394,91.0,0.0,180.0,0.0,0.0
9395,43.0,0.0,180.0,14.0,0.0
9396,67.0,0.0,90.0,10.0,0.0
9397,67.0,0.0,180.0,1.0,0.0
9398,79.0,0.0,180.0,1.0,0.0
9399,55.0,24.0,180.0,2.0,0.0
9400,55.0,0.0,180.0,13.0,0.0
9401,67.0,96.0,90.0,11.0,0.0
9402,67.0,0.0,180.0,12.0,0.0
9403,67.0,120.0,90.0,10.0,0.0
9404,67.0,0.0,90.0,11.0,0.0
9405,71.0,96.0,90.0,11.0,0.0
9406,59.0,0.0,180.0,2.0,0.0
9407,59.0,0.0,180.0,13.0,0.0
9408,47.0,0.0,180.0,14.0,0.0
9409,71.0,0.0,180.0,12.0,0.0
9410,71.0,24.0,180.0,1.0,0.0
9411,83.0,0.0,180.0,1.0,0.0
9412,95.0,0.0,180.0,0.0,0.0
9413,71.0,0.0,90.0,10.0,0.0
9414,71.0,0.0,90.0,10.0,0.0
9415,71.0,120.0,90.0,11.0,0.0
9416,64.0,0.0,180.0,12.0,0.0
9417,64.0,96.0,90.0,10.0,0.0
9418,52.0,0.0,180.0,13.0,0.0
9419,52.0,24.0,180.0,2.0,0.0
9420,64.0,0.0,90.0,11.0,0.0
9421,40.0,0.0,180.0,14.0,0.0
9422,64.0,0.0,180.0,1.0,0.0
9423,76.0,0.0,180.0,1.0,0.0
9424,88.0,0.0,180.0,0.0,0.0
9425,64.0,120.0,90.0,11.0,0.0
9426,64.0,0.0,90.0,10.0,0.0
9427,67.0,0.0,180.0,12.0,0.0
9428,67.0,96.0,90.0,11.0,0.0
9429,43.0,24.0,180.0,14.0,0.0
9430,55.0,0.0,180.0,13.0,0.0
9431,79.0,0.0,180.0,1.0,0.0
9432,55.0,0.0,180.0,2.0,0.0
9433,91.0,0.0,180.0,0.0,0.0
9434,67.0,0.0,90.0,10.0,0.0
9435,67.0,0.0,180.0,1.0,0.0
9436,67.0,120.0,90.0,10.0,0.0
9437,67.0,0.0,90.0,11.0,0.0
9438,49.0,24.0,180.0,2.0,0.0
9439,61.0,96.0,90.0,11.0,0.0
9440,49.0,0.0,180.0,13.0,0.0
9441,61.0,0.0,180.0,1.0,0.0
9442,61.0,0.0,180.0,12.0,0.0
9443,61.0,0.0,90.0,10.0,0.0
9444,85.0,0.0,180.0,0.0,0.0
9445,73.0,0.0,180.0,1.0,0.0
9446,37.0,0.0,180.0,14.0,0.0
9447,61.0,0.0,90.0,11.0,0.0
9448,61.0,120.0,90.0,10.0,0.0
9449,64.0,96.0,90.0,11.0,0.0
9450,64.0,0.0,90.0,10.0,0.0
9451,64.0,0.0,180.0,1.0,0.0
9452,76.0,0.0,180.0,1.0,0.0
9453,52.0,0.0,180.0,2.0,0.0
9454,64.0,24.0,180.0,12.0,0.0
9455,88.0,0.0,180.0,0.0,0.0
9456,52.0,0.0,180.0,13.0,0.0
9457,40.0,0.0,180.0,14.0,0.0
9458,64.0,0.0,90.0,11.0,0.0
9459,64.0,216.0,90.0,10.0,0.0
9460,86.0,0.0,390.0,0.0,0.0
9461,62.0,144.0,180.0,11.0,0.0
9462,62.0,0.0,390.0,3.0,0.0
9463,74.0,0.0,390.0,1.0,0.0
9464,62.0,0.0,390.0,1.0,0.0
9465,50.0,0.0,390.0,5.0,0.0
9466,38.0,0.0,390.0,14.0,0.0
9467,62.0,0.0,390.0,12.0,0.0
9468,50.0,72.0,390.0,13.0,0.0
9469,62.0,0.0,180.0,10.0,0.0
9470,50.0,0.0,390.0,2.0,0.0
9471,74.0,0.0,390.0,4.0,0.0
9472,64.0,0.0,90.0,11.0,0.0
9473,64.0,48.0,90.0,10.0,0.0
9474,66.0,120.0,90.0,11.0,0.0
9475,66.0,0.0,90.0,10.0,0.0
9476,67.0,0.0,90.0,10.0,0.0
9477,67.0,120.0,90.0,11.0,0.0
9478,69.0,120.0,90.0,10.0,0.0
9479,69.0,0.0,90.0,11.0,0.0
9480,71.0,120.0,90.0,11.0,0.0
9481,71.0,0.0,90.0,10.0,0.0
9482,73.0,0.0,90.0,10.0,0.0
9483,73.0,120.0,90.0,11.0,0.0
9484,74.0,144.0,90.0,10.0,0.0
9485,74.0,0.0,90.0,11.0,0.0
9486,73.0,120.0,120.0,11.0,0.0
9487,73.0,0.0,120.0,10.0,0.0
9488,74.0,96.0,120.0,10.0,0.0
9489,74.0,0.0,120.0,11.0,0.0
9490,73.0,216.0,90.0,11.0,0.0
9491,73.0,0.0,90.0,10.0,0.0
9492,50.0,0.0,180.0,13.0,0.0
9493,74.0,0.0,180.0,0.0,0.0
9494,50.0,0.0,390.0,5.0,0.0
9495,38.0,144.0,180.0,14.0,0.0
9496,74.0,0.0,390.0,4.0,0.0
9497,62.0,0.0,180.0,12.0,0.0
9498,74.0,0.0,180.0,10.0,0.0
9499,74.0,0.0,180.0,11.0,0.0
9500,50.0,0.0,180.0,2.0,0.0
9501,74.0,0.0,180.0,1.0,0.0
9502,62.0,72.0,390.0,3.0,0.0
9503,76.0,0.0,90.0,10.0,0.0
9504,76.0,0.0,90.0,11.0,0.0
9505,76.0,0.0,90.0,0.0,0.0
9506,52.0,0.0,90.0,13.0,0.0
9507,64.0,0.0,90.0,12.0,0.0
9508,52.0,48.0,90.0,2.0,0.0
9509,76.0,0.0,90.0,1.0,0.0
9510,40.0,0.0,90.0,14.0,0.0
9511,54.0,0.0,90.0,13.0,0.0
9512,78.0,0.0,90.0,10.0,0.0
9513,78.0,0.0,90.0,1.0,0.0
9514,42.0,0.0,90.0,14.0,0.0
9515,66.0,0.0,90.0,12.0,0.0
9516,54.0,120.0,90.0,2.0,0.0
9517,78.0,0.0,90.0,0.0,0.0
9518,78.0,0.0,90.0,11.0,0.0
9519,67.0,120.0,90.0,12.0,0.0
9520,79.0,0.0,90.0,0.0,0.0
9521,79.0,0.0,90.0,10.0,0.0
9522,55.0,0.0,90.0,2.0,0.0
9523,79.0,0.0,90.0,1.0,0.0
9524,43.0,0.0,90.0,14.0,0.0
9525,79.0,0.0,90.0,11.0,0.0
9526,55.0,0.0,90.0,13.0,0.0
9527,81.0,0.0,90.0,10.0,0.0
9528,81.0,0.0,90.0,0.0,0.0
9529,81.0,0.0,90.0,1.0,0.0
9530,57.0,0.0,90.0,2.0,0.0
9531,45.0,120.0,90.0,14.0,0.0
9532,57.0,0.0,90.0,13.0,0.0
9533,69.0,0.0,90.0,12.0,0.0
9534,81.0,0.0,90.0,11.0,0.0
9535,59.0,0.0,90.0,13.0,0.0
9536,47.0,0.0,90.0,14.0,0.0
9537,83.0,0.0,90.0,10.0,0.0
9538,71.0,0.0,90.0,12.0,0.0
9539,83.0,0.0,90.0,0.0,0.0
9540,83.0,0.0,90.0,11.0,0.0
9541,59.0,120.0,90.0,2.0,0.0
9542,83.0,0.0,90.0,1.0,0.0
9543,49.0,0.0,90.0,14.0,0.0
9544,61.0,0.0,90.0,13.0,0.0
9545,73.0,0.0,90.0,12.0,0.0
9546,85.0,0.0,90.0,10.0,0.0
9547,61.0,0.0,90.0,2.0,0.0
9548,85.0,0.0,90.0,0.0,0.0
9549,85.0,120.0,90.0,1.0,0.0
9550,85.0,0.0,90.0,11.0,0.0
9551,86.0,0.0,90.0,10.0,0.0
9552,62.0,0.0,90.0,13.0,0.0
9553,62.0,0.0,90.0,2.0,0.0
9554,50.0,0.0,90.0,14.0,0.0
9555,86.0,0.0,90.0,1.0,0.0
9556,74.0,144.0,90.0,12.0,0.0
9557,86.0,0.0,90.0,0.0,0.0
9558,86.0,0.0,90.0,11.0,0.0
9559,73.0,0.0,120.0,12.0,0.0
9560,85.0,0.0,120.0,10.0,0.0
9561,85.0,0.0,120.0,11.0,0.0
9562,85.0,0.0,120.0,0.0,0.0
9563,61.0,120.0,120.0,2.0,0.0
9564,49.0,0.0,120.0,14.0,0.0
9565,85.0,0.0,120.0,1.0,0.0
9566,61.0,0.0,120.0,13.0,0.0
9567,86.0,0.0,120.0,10.0,0.0
9568,86.0,96.0,120.0,1.0,0.0
9569,74.0,0.0,120.0,12.0,0.0
9570,86.0,0.0,120.0,0.0,0.0
9571,86.0,0.0,120.0,11.0,0.0
9572,50.0,0.0,120.0,14.0,0.0
9573,62.0,0.0,120.0,2.0,0.0
9574,62.0,0.0,120.0,13.0,0.0
9575,85.0,168.0,90.0,11.0,0.0
9576,73.0,0.0,90.0,12.0,0.0
9577,61.0,0.0,90.0,2.0,0.0
9578,49.0,0.0,90.0,14.0,0.0
9579,85.0,0.0,90.0,0.0,0.0
9580,85.0,0.0,90.0,10.0,0.0
9581,61.0,0.0,90.0,13.0,0.0
9582,85.0,0.0,90.0,1.0,0.0
9583,62.0,0.0,150.0,13.0,0.0
9584,86.0,0.0,150.0,10.0,0.0
9585,86.0,0.0,150.0,0.0,0.0
9586,50.0,0.0,390.0,5.0,0.0
9587,50.0,216.0,150.0,14.0,0.0
9588,74.0,0.0,390.0,4.0,0.0
9589,74.0,0.0,150.0,12.0,0.0
9590,62.0,72.0,390.0,3.0,0.0
9591,86.0,0.0,150.0,1.0,0.0
9592,86.0,0.0,150.0,11.0,0.0
9593,62.0,0.0,150.0,2.0,0.0
9594,88.0,0.0,120.0,1.0,0.0
9595,88.0,0.0,120.0,10.0,0.0
9596,88.0,0.0,120.0,0.0,0.0
9597,52.0,24.0,120.0,14.0,0.0
9598,88.0,0.0,120.0,11.0,0.0
9599,64.0,0.0,120.0,2.0,0.0
9600,64.0,0.0,120.0,13.0,0.0
9601,76.0,0.0,120.0,12.0,0.0
9602,61.0,0.0,90.0,13.0,0.0
9603,85.0,0.0,90.0,0.0,0.0
9604,61.0,0.0,90.0,2.0,0.0
9605,85.0,0.0,90.0,11.0,0.0
9606,85.0,0.0,90.0,10.0,0.0
9607,73.0,168.0,90.0,12.0,0.0
9608,49.0,0.0,90.0,14.0,0.0
9609,85.0,0.0,90.0,1.0,0.0
9610,62.0,0.0,150.0,13.0,0.0
9611,86.0,0.0,150.0,11.0,0.0
9612,86.0,0.0,150.0,10.0,0.0
9613,86.0,216.0,150.0,0.0,0.0
9614,74.0,0.0,390.0,4.0,0.0
9615,74.0,0.0,150.0,12.0,0.0
9616,50.0,0.0,150.0,14.0,0.0
9617,86.0,0.0,150.0,1.0,0.0
9618,62.0,72.0,390.0,3.0,0.0
9619,62.0,0.0,150.0,2.0,0.0
9620,50.0,0.0,390.0,5.0,0.0
9621,88.0,0.0,120.0,10.0,0.0
9622,88.0,24.0,120.0,1.0,0.0
9623,88.0,0.0,120.0,11.0,0.0
9624,52.0,0.0,120.0,14.0,0.0
9625,64.0,0.0,120.0,13.0,0.0
9626,64.0,0.0,120.0,2.0,0.0
9627,88.0,0.0,120.0,0.0,0.0
9628,76.0,0.0,120.0,12.0,0.0
9629,61.0,0.0,90.0,2.0,0.0
9630,73.0,168.0,90.0,12.0,0.0
9631,85.0,0.0,90.0,11.0,0.0
9632,49.0,0.0,90.0,14.0,0.0
9633,85.0,0.0,90.0,0.0,0.0
9634,61.0,0.0,90.0,13.0,0.0
9635,85.0,0.0,90.0,1.0,0.0
9636,85.0,0.0,90.0,10.0,0.0
9637,62.0,0.0,150.0,2.0,0.0
9638,86.0,0.0,150.0,0.0,0.0
9639,62.0,0.0,150.0,13.0,0.0
9640,74.0,0.0,150.0,12.0,0.0
9641,50.0,0.0,390.0,5.0,0.0
9642,50.0,0.0,150.0,14.0,0.0
9643,74.0,72.0,390.0,4.0,0.0
9644,86.0,0.0,150.0,10.0,0.0
9645,86.0,216.0,150.0,11.0,0.0
9646,62.0,0.0,390.0,3.0,0.0
9647,86.0,0.0,150.0,1.0,0.0
9648,64.0,0.0,120.0,2.0,0.0
9649,52.0,0.0,120.0,14.0,0.0
9650,76.0,0.0,120.0,12.0,0.0
9651,88.0,24.0,120.0,10.0,0.0
9652,64.0,0.0,120.0,13.0,0.0
9653,88.0,0.0,120.0,11.0,0.0
9654,88.0,0.0,120.0,1.0,0.0
9655,88.0,0.0,120.0,0.0,0.0
9656,85.0,0.0,90.0,0.0,0.0
9657,85.0,0.0,90.0,1.0,0.0
9658,73.0,0.0,90.0,12.0,0.0
9659,49.0,0.0,90.0,14.0,0.0
9660,85.0,336.0,90.0,10.0,0.0
9661,61.0,0.0,90.0,13.0,0.0
9662,61.0,0.0,90.0,2.0,0.0
9663,85.0,0.0,90.0,11.0,0.0
9664,86.0,0.0,300.0,10.0,0.0
9665,74.0,0.0,300.0,4.0,0.0
9666,86.0,0.0,300.0,0.0,0.0
9667,74.0,0.0,300.0,12.0,0.0
9668,86.0,0.0,300.0,11.0,0.0
9669,62.0,0.0,300.0,3.0,0.0
9670,62.0,72.0,300.0,2.0,0.0
9671,86.0,0.0,300.0,1.0,0.0
9672,50.0,0.0,300.0,14.0,0.0
9673,62.0,0.0,300.0,13.0,0.0
9674,50.0,408.0,390.0,5.0,0.0
9675,74.0,0.0,300.0,10.0,0.0
9676,62.0,0.0,300.0,12.0,0.0
9677,66.0,0.0,300.0,10.0,0.0
9678,66.0,0.0,300.0,11.0,0.0
9679,74.0,0.0,300.0,11.0,0.0
9680,62.0,72.0,300.0,3.0,0.0
9681,74.0,0.0,300.0,0.0,0.0
9682,50.0,0.0,300.0,2.0,0.0
9683,74.0,0.0,300.0,1.0,0.0
9684,38.0,0.0,300.0,14.0,0.0
9685,50.0,0.0,300.0,3.0,0.0
9686,74.0,0.0,300.0,4.0,0.0
9687,62.0,0.0,300.0,4.0,0.0
9688,50.0,0.0,300.0,13.0,0.0
9689,50.0,720.0,390.0,5.0,0.0
9690,74.0,120.0,240.0,12.0,0.0
9691,83.0,96.0,150.0,10.0,0.0
9692,78.0,0.0,240.0,11.0,0.0
9693,85.0,96.0,120.0,10.0,0.0
9694,76.0,0.0,240.0,12.0,0.0
9695,79.0,144.0,240.0,11.0,0.0
9696,82.0,24.0,90.0,10.0,0.0
9697,78.0,120.0,240.0,11.0,0.0
9698,83.0,96.0,150.0,10.0,0.0
9699,74.0,0.0,240.0,12.0,0.0
9700,76.0,0.0,240.0,12.0,0.0
9701,79.0,144.0,240.0,11.0,0.0
9702,85.0,96.0,120.0,10.0,0.0
9703,82.0,24.0,90.0,10.0,0.0
9704,74.0,120.0,240.0,12.0,0.0
9705,83.0,96.0,150.0,10.0,0.0
9706,78.0,0.0,240.0,11.0,0.0
9707,79.0,24.0,180.0,11.0,0.0
9708,76.0,0.0,180.0,12.0,0.0
9709,85.0,72.0,120.0,10.0,0.0
9710,82.0,336.0,90.0,10.0,0.0
9711,83.0,480.0,300.0,10.0,0.0
9712,74.0,0.0,300.0,12.0,0.0
9713,78.0,0.0,300.0,11.0,0.0
9714,71.0,0.0,300.0,10.0,0.0
9715,66.0,792.0,300.0,11.0,0.0
9716,62.0,0.0,300.0,12.0,0.0
9717,77.0,216.0,150.0,10.0,0.0
9718,79.0,0.0,390.0,4.0,0.0
9719,74.0,0.0,390.0,4.0,0.0
9720,62.0,0.0,390.0,2.0,0.0
9721,53.0,0.0,150.0,14.0,0.0
9722,59.0,0.0,390.0,2.0,0.0
9723,77.0,0.0,150.0,11.0,0.0
9724,65.0,0.0,150.0,12.0,0.0
9725,65.0,0.0,150.0,13.0,0.0
9726,83.0,72.0,390.0,1.0,0.0
9727,55.0,0.0,390.0,5.0,0.0
9728,91.0,0.0,390.0,0.0,0.0
9729,67.0,0.0,390.0,3.0,0.0
9730,71.0,0.0,390.0,3.0,0.0
9731,86.0,0.0,390.0,1.0,0.0
9732,79.0,24.0,120.0,10.0,0.0
9733,55.0,0.0,120.0,14.0,0.0
9734,67.0,0.0,120.0,12.0,0.0
9735,67.0,0.0,120.0,13.0,0.0
9736,79.0,0.0,120.0,11.0,0.0
9737,76.0,0.0,90.0,11.0,0.0
9738,64.0,0.0,90.0,13.0,0.0
9739,52.0,0.0,90.0,14.0,0.0
9740,64.0,168.0,90.0,12.0,0.0
9741,76.0,0.0,90.0,10.0,0.0
9742,65.0,0.0,150.0,12.0,0.0
9743,79.0,0.0,240.0,4.0,0.0
9744,86.0,0.0,240.0,1.0,0.0
9745,53.0,0.0,150.0,14.0,0.0
9746,83.0,0.0,240.0,1.0,0.0
9747,91.0,0.0,240.0,0.0,0.0
9748,71.0,0.0,240.0,3.0,0.0
9749,59.0,0.0,240.0,2.0,0.0
9750,74.0,0.0,240.0,4.0,0.0
9751,67.0,0.0,240.0,3.0,0.0
9752,77.0,0.0,150.0,11.0,0.0
9753,55.0,0.0,240.0,5.0,0.0
9754,77.0,0.0,150.0,10.0,0.0
9755,65.0,90.0,150.0,13.0,0.0
9756,62.0,126.0,240.0,2.0,0.0
9757,79.0,0.0,120.0,11.0,0.0
9758,67.0,78.0,120.0,12.0,0.0
9759,67.0,0.0,120.0,13.0,0.0
9760,55.0,0.0,120.0,14.0,0.0
9761,79.0,0.0,120.0,10.0,0.0
9762,76.0,0.0,90.0,11.0,0.0
9763,71.0,0.0,90.0,3.0,0.0
9764,83.0,0.0,90.0,1.0,0.0
9765,55.0,0.0,90.0,5.0,0.0
9766,91.0,0.0,90.0,0.0,0.0
9767,76.0,168.0,90.0,10.0,0.0
9768,52.0,0.0,90.0,14.0,0.0
9769,86.0,0.0,90.0,1.0,0.0
9770,67.0,18.0,90.0,3.0,0.0
9771,64.0,0.0,90.0,13.0,0.0
9772,74.0,0.0,90.0,4.0,0.0
9773,64.0,0.0,90.0,12.0,0.0
9774,79.0,0.0,90.0,4.0,0.0
9775,62.0,0.0,90.0,2.0,0.0
9776,59.0,0.0,90.0,2.0,0.0
9777,77.0,90.0,150.0,11.0,0.0
9778,86.0,0.0,240.0,1.0,0.0
9779,65.0,0.0,150.0,13.0,0.0
9780,77.0,0.0,150.0,10.0,0.0
9781,74.0,0.0,240.0,4.0,0.0
9782,79.0,0.0,240.0,4.0,0.0
9783,71.0,0.0,240.0,3.0,0.0
9784,55.0,0.0,240.0,5.0,0.0
9785,53.0,0.0,150.0,14.0,0.0
9786,59.0,0.0,240.0,2.0,0.0
9787,65.0,0.0,150.0,12.0,0.0
9788,62.0,126.0,240.0,2.0,0.0
9789,67.0,0.0,240.0,3.0,0.0
9790,91.0,0.0,240.0,0.0,0.0
9791,83.0,0.0,240.0,1.0,0.0
9792,79.0,78.0,120.0,10.0,0.0
9793,55.0,0.0,120.0,14.0,0.0
9794,67.0,0.0,120.0,12.0,0.0
9795,79.0,0.0,120.0,11.0,0.0
9796,67.0,0.0,120.0,13.0,0.0
9797,62.0,0.0,90.0,2.0,0.0
9798,59.0,0.0,90.0,2.0,0.0
9799,64.0,0.0,90.0,13.0,0.0
9800,86.0,18.0,90.0,1.0,0.0
9801,64.0,0.0,90.0,12.0,0.0
9802,52.0,336.0,90.0,14.0,0.0
9803,83.0,0.0,90.0,1.0,0.0
9804,67.0,0.0,90.0,3.0,0.0
9805,79.0,0.0,90.0,4.0,0.0
9806,71.0,0.0,90.0,3.0,0.0
9807,91.0,0.0,90.0,0.0,0.0
9808,76.0,0.0,90.0,10.0,0.0
9809,74.0,0.0,90.0,4.0,0.0
9810,55.0,0.0,90.0,5.0,0.0
9811,76.0,0.0,90.0,11.0,0.0
9812,77.0,0.0,300.0,10.0,0.0
9813,91.0,0.0,300.0,0.0,0.0
9814,77.0,0.0,300.0,11.0,0.0
9815,55.0,0.0,300.0,5.0,0.0
9816,74.0,0.0,300.0,4.0,0.0
9817,79.0,0.0,300.0,4.0,0.0
9818,86.0,0.0,300.0,1.0,0.0
9819,53.0,0.0,300.0,14.0,0.0
9820,83.0,0.0,300.0,1.0,0.0
9821,71.0,0.0,300.0,3.0,0.0
9822,65.0,0.0,300.0,13.0,0.0
9823,67.0,0.0,300.0,3.0,0.0
9824,62.0,0.0,300.0,2.0,0.0
9825,59.0,0.0,300.0,2.0,0.0
9826,65.0,480.0,300.0,12.0,0.0
9827,41.0,0.0,300.0,14.0,0.0
9828,83.0,0.0,300.0,1.0,0.0
9829,67.0,0.0,300.0,3.0,0.0
9830,71.0,0.0,300.0,3.0,0.0
9831,91.0,0.0,300.0,0.0,0.0
9832,65.0,0.0,300.0,11.0,0.0
9833,62.0,0.0,300.0,2.0,0.0
9834,55.0,0.0,300.0,5.0,0.0
9835,65.0,0.0,300.0,10.0,0.0
9836,59.0,0.0,300.0,2.0,0.0
9837,74.0,0.0,300.0,4.0,0.0
9838,79.0,0.0,300.0,4.0,0.0
9839,53.0,0.0,300.0,12.0,0.0
9840,86.0,0.0,300.0,1.0,0.0
9841,53.0,840.0,300.0,13.0,0.0
9842,64.0,0.0,1440.0,11.0,0.0
9843,60.0,0.0,180.0,6.0,0.0
9844,60.0,192.0,1440.0,12.0,0.0
9845,72.0,0.0,1440.0,10.0,0.0
9846,52.0,0.0,1440.0,12.0,0.0
9847,48.0,480.0,180.0,7.0,0.0
9848,52.0,480.0,180.0,7.0,0.0
9849,64.0,0.0,180.0,6.0,0.0
9850,48.0,0.0,180.0,7.0,0.0
9851,60.0,288.0,180.0,6.0,0.0
9852,74.0,0.0,1380.0,10.0,0.0
9853,47.0,480.0,180.0,7.0,0.0
9854,59.0,0.0,180.0,6.0,0.0
9855,67.0,264.0,1380.0,11.0,0.0
9856,55.0,0.0,1380.0,12.0,0.0
9857,62.0,0.0,1380.0,12.0,0.0
9858,55.0,0.0,180.0,6.0,0.0
9859,43.0,480.0,180.0,7.0,0.0
9860,47.0,0.0,180.0,7.0,0.0
9861,59.0,216.0,180.0,6.0,0.0
9862,72.0,0.0,480.0,11.0,0.0
9863,76.0,0.0,480.0,10.0,0.0
9864,60.0,288.0,180.0,6.0,0.0
9865,64.0,0.0,480.0,12.0,0.0
9866,60.0,480.0,480.0,12.0,0.0
9867,48.0,0.0,180.0,7.0,0.0
9868,81.0,0.0,480.0,10.0,0.0
9869,77.0,192.0,480.0,11.0,0.0
9870,69.0,0.0,480.0,12.0,0.0
9871,65.0,0.0,480.0,12.0,0.0
9872,67.0,0.0,390.0,12.0,0.0
9873,64.0,0.0,390.0,12.0,0.0
9874,76.0,288.0,390.0,11.0,0.0
9875,48.0,0.0,180.0,6.0,0.0
9876,79.0,0.0,390.0,10.0,0.0
9877,36.0,192.0,180.0,7.0,0.0
9878,41.0,48.0,180.0,7.0,0.0
9879,67.0,192.0,240.0,12.0,0.0
9880,76.0,0.0,240.0,11.0,0.0
9881,79.0,0.0,240.0,10.0,0.0
9882,53.0,0.0,180.0,6.0,0.0
9883,64.0,0.0,180.0,12.0,0.0
9884,77.0,0.0,180.0,10.0,0.0
9885,62.0,240.0,180.0,12.0,0.0
9886,65.0,0.0,180.0,12.0,0.0
9887,74.0,0.0,180.0,11.0,0.0
9888,74.0,0.0,240.0,11.0,0.0
9889,55.0,0.0,180.0,6.0,0.0
9890,62.0,48.0,180.0,12.0,0.0
9891,43.0,0.0,180.0,7.0,0.0
9892,65.0,0.0,240.0,12.0,0.0
9893,77.0,192.0,240.0,10.0,0.0
9894,64.0,0.0,180.0,12.0,0.0
9895,76.0,0.0,180.0,10.0,0.0
9896,72.0,0.0,180.0,11.0,0.0
9897,60.0,240.0,180.0,12.0,0.0
9898,43.0,0.0,180.0,7.0,0.0
9899,76.0,0.0,240.0,10.0,0.0
9900,64.0,192.0,240.0,12.0,0.0
9901,60.0,48.0,180.0,12.0,0.0
9902,72.0,0.0,240.0,11.0,0.0
9903,55.0,0.0,180.0,6.0,0.0
9904,62.0,0.0,180.0,12.0,0.0
9905,74.0,0.0,180.0,10.0,0.0
9906,59.0,240.0,180.0,12.0,0.0
9907,71.0,0.0,180.0,11.0,0.0
9908,60.0,0.0,180.0,6.0,0.0
9909,74.0,240.0,720.0,10.0,0.0
9910,62.0,0.0,720.0,12.0,0.0
9911,48.0,480.0,180.0,7.0,0.0
9912,59.0,0.0,960.0,12.0,0.0
9913,71.0,0.0,960.0,11.0,0.0
9914,55.0,0.0,180.0,6.0,0.0
9915,43.0,48.0,180.0,7.0,0.0
9916,75.0,0.0,240.0,10.0,0.0
9917,63.0,192.0,240.0,12.0,0.0
9918,76.0,0.0,180.0,10.0,0.0
9919,36.0,0.0,180.0,7.0,0.0
9920,48.0,0.0,180.0,6.0,0.0
9921,60.0,768.0,180.0,12.0,0.0
9922,64.0,0.0,180.0,12.0,0.0
9923,72.0,0.0,180.0,11.0,0.0
9924,72.0,480.0,480.0,11.0,0.0
9925,48.0,0.0,1440.0,2.0,0.0
9926,60.0,0.0,1440.0,2.0,0.0
9927,33.0,0.0,1440.0,14.0,0.0
9928,63.0,120.0,1200.0,12.0,0.0
9929,84.0,0.0,480.0,10.0,0.0
9930,60.0,0.0,1440.0,1.0,0.0
9931,72.0,156.0,1440.0,1.0,0.0
9932,45.0,0.0,1440.0,13.0,0.0
9933,81.0,240.0,480.0,10.0,0.0
9934,69.0,0.0,480.0,11.0,0.0
9935,66.0,0.0,390.0,11.0,0.0
9936,78.0,72.0,390.0,10.0,0.0
9937,62.0,24.0,120.0,12.0,0.0
9938,60.0,24.0,90.0,12.0,0.0
9939,74.0,240.0,150.0,11.0,0.0
9940,65.0,156.0,480.0,12.0,0.0
9941,47.0,156.0,1440.0,13.0,0.0
9942,35.0,0.0,1440.0,14.0,0.0
9943,74.0,0.0,1440.0,1.0,0.0
9944,67.0,0.0,1440.0,1.0,0.0
9945,62.0,0.0,1440.0,2.0,0.0
9946,55.0,0.0,1440.0,2.0,0.0
9947,86.0,0.0,150.0,10.0,0.0
9948,72.0,0.0,150.0,11.0,0.0
9949,84.0,84.0,150.0,10.0,0.0
9950,71.0,0.0,150.0,11.0,0.0
9951,83.0,240.0,150.0,10.0,0.0
9952,62.0,156.0,480.0,12.0,0.0
9953,81.0,0.0,150.0,10.0,0.0
9954,69.0,84.0,150.0,11.0,0.0
9955,79.0,228.0,150.0,10.0,0.0
9956,67.0,0.0,150.0,11.0,0.0
9957,55.0,12.0,390.0,12.0,0.0
9958,65.0,84.0,150.0,11.0,0.0
9959,77.0,0.0,150.0,10.0,0.0
9960,60.0,0.0,390.0,12.0,0.0
9961,64.0,228.0,150.0,11.0,0.0
9962,76.0,0.0,480.0,1.0,0.0
9963,72.0,0.0,480.0,1.0,0.0
9964,64.0,156.0,480.0,2.0,0.0
9965,60.0,0.0,480.0,2.0,0.0
9966,48.0,0.0,390.0,13.0,0.0
9967,76.0,0.0,150.0,10.0,0.0
9968,36.0,12.0,390.0,14.0,0.0
9969,72.0,0.0,150.0,11.0,0.0
9970,84.0,84.0,150.0,10.0,0.0
9971,72.0,240.0,150.0,11.0,0.0
9972,69.0,0.0,480.0,2.0,0.0
9973,84.0,0.0,150.0,10.0,0.0
9974,65.0,0.0,480.0,2.0,0.0
9975,77.0,156.0,480.0,1.0,0.0
9976,81.0,0.0,480.0,1.0,0.0
9977,84.0,0.0,150.0,10.0,0.0
9978,72.0,84.0,150.0,11.0,0.0
9979,76.0,0.0,390.0,1.0,0.0
9980,67.0,0.0,390.0,2.0,0.0
9981,64.0,12.0,390.0,2.0,0.0
9982,79.0,0.0,390.0,1.0,0.0
9983,84.0,228.0,150.0,10.0,0.0
9984,72.0,0.0,150.0,11.0,0.0
9985,72.0,0.0,150.0,11.0,0.0
9986,84.0,324.0,150.0,10.0,0.0
9987,64.0,0.0,240.0,2.0,0.0
9988,67.0,0.0,240.0,2.0,0.0
9989,65.0,0.0,300.0,10.0,0.0
9990,41.0,0.0,300.0,14.0,0.0
9991,76.0,0.0,240.0,1.0,0.0
9992,65.0,0.0,300.0,11.0,0.0
9993,79.0,48.0,240.0,1.0,0.0
9994,53.0,144.0,300.0,13.0,0.0
9995,65.0,0.0,300.0,12.0,0.0
9996,65.0,0.0,180.0,2.0,0.0
9997,62.0,0.0,180.0,2.0,0.0
9998,77.0,0.0,180.0,1.0,0.0
9999,74.0,288.0,180.0,1.0,0.0
10000,67.0,0.0,300.0,10.0,0.0
10001,62.0,0.0,240.0,2.0,0.0
10002,65.0,0.0,240.0,2.0,0.0
10003,43.0,0.0,300.0,14.0,0.0
10004,74.0,48.0,240.0,1.0,0.0
10005,55.0,144.0,300.0,13.0,0.0
10006,77.0,0.0,240.0,1.0,0.0
10007,67.0,0.0,300.0,11.0,0.0
10008,67.0,0.0,300.0,12.0,0.0
10009,72.0,0.0,180.0,1.0,0.0
10010,76.0,288.0,180.0,1.0,0.0
10011,64.0,0.0,180.0,2.0,0.0
10012,60.0,0.0,180.0,2.0,0.0
10013,64.0,48.0,240.0,2.0,0.0
10014,60.0,0.0,240.0,2.0,0.0
10015,67.0,0.0,300.0,11.0,0.0
10016,43.0,144.0,300.0,13.0,0.0
10017,43.0,0.0,300.0,14.0,0.0
10018,55.0,0.0,300.0,12.0,0.0
10019,67.0,0.0,300.0,10.0,0.0
10020,72.0,0.0,240.0,1.0,0.0
10021,76.0,0.0,240.0,1.0,0.0
10022,71.0,0.0,180.0,1.0,0.0
10023,59.0,0.0,180.0,2.0,0.0
10024,74.0,0.0,180.0,1.0,0.0
10025,62.0,528.0,180.0,2.0,0.0
10026,43.0,0.0,960.0,14.0,0.0
10027,67.0,0.0,960.0,12.0,0.0
10028,67.0,0.0,960.0,11.0,0.0
10029,70.0,0.0,480.0,1.0,0.0
10030,67.0,0.0,960.0,10.0,0.0
10031,55.0,0.0,960.0,13.0,0.0
10032,76.0,0.0,480.0,0.0,0.0
10033,58.0,0.0,480.0,2.0,0.0
10034,73.0,0.0,15.0,1.0,0.0
10035,82.0,0.0,480.0,0.0,0.0
10036,70.0,0.0,480.0,2.0,0.0
10037,61.0,480.0,15.0,2.0,0.0
10038,76.0,0.0,480.0,1.0,0.0
10039,65.0,336.0,390.0,12.0,0.0
10040,65.0,0.0,390.0,10.0,0.0
10041,65.0,0.0,390.0,11.0,0.0
10042,74.0,0.0,390.0,1.0,0.0
10043,77.0,0.0,390.0,1.0,0.0
10044,81.0,0.0,390.0,0.0,0.0
10045,69.0,0.0,390.0,2.0,0.0
10046,62.0,0.0,390.0,2.0,0.0
10047,41.0,0.0,390.0,14.0,0.0
10048,53.0,0.0,390.0,13.0,0.0
10049,55.0,144.0,300.0,13.0,0.0
10050,43.0,0.0,300.0,14.0,0.0
10051,67.0,0.0,300.0,10.0,0.0
10052,69.0,0.0,240.0,2.0,0.0
10053,65.0,0.0,240.0,2.0,0.0
10054,77.0,48.0,240.0,1.0,0.0
10055,67.0,0.0,300.0,12.0,0.0
10056,67.0,0.0,300.0,11.0,0.0
10057,81.0,0.0,240.0,0.0,0.0
10058,79.0,288.0,180.0,0.0,0.0
10059,76.0,0.0,180.0,1.0,0.0
10060,64.0,0.0,180.0,2.0,0.0
10061,67.0,0.0,180.0,2.0,0.0
10062,64.0,0.0,240.0,2.0,0.0
10063,67.0,48.0,240.0,2.0,0.0
10064,57.0,144.0,300.0,13.0,0.0
10065,79.0,0.0,240.0,0.0,0.0
10066,69.0,0.0,300.0,10.0,0.0
10067,69.0,0.0,300.0,11.0,0.0
10068,76.0,0.0,240.0,1.0,0.0
10069,45.0,0.0,300.0,14.0,0.0
10070,69.0,0.0,300.0,12.0,0.0
10071,62.0,288.0,180.0,2.0,0.0
10072,74.0,0.0,180.0,1.0,0.0
10073,77.0,0.0,180.0,0.0,0.0
10074,65.0,0.0,180.0,2.0,0.0
10075,62.0,0.0,240.0,2.0,0.0
10076,65.0,48.0,240.0,2.0,0.0
10077,69.0,0.0,300.0,10.0,0.0
10078,74.0,0.0,240.0,1.0,0.0
10079,45.0,0.0,300.0,13.0,0.0
10080,77.0,0.0,240.0,0.0,0.0
10081,57.0,0.0,300.0,12.0,0.0
10082,69.0,144.0,300.0,11.0,0.0
10083,33.0,0.0,300.0,14.0,0.0
10084,72.0,0.0,180.0,1.0,0.0
10085,76.0,528.0,180.0,0.0,0.0
10086,60.0,0.0,180.0,2.0,0.0
10087,64.0,0.0,180.0,2.0,0.0
10088,60.0,0.0,960.0,2.0,0.0
10089,75.0,0.0,960.0,11.0,0.0
10090,72.0,0.0,960.0,1.0,0.0
10091,78.0,288.0,480.0,10.0,0.0
10092,63.0,0.0,960.0,2.0,0.0
10093,57.0,0.0,960.0,13.0,0.0
10094,75.0,0.0,960.0,0.0,0.0
10095,66.0,0.0,480.0,12.0,0.0
10096,63.0,0.0,960.0,12.0,0.0
10097,45.0,0.0,960.0,14.0,0.0
10098,69.0,192.0,780.0,3.0,0.0
10099,84.0,0.0,480.0,10.0,0.0
10100,72.0,384.0,480.0,12.0,0.0
10101,67.0,0.0,390.0,3.0,0.0
10102,76.0,0.0,390.0,0.0,0.0
10103,43.0,0.0,390.0,14.0,0.0
10104,55.0,0.0,390.0,13.0,0.0
10105,59.0,0.0,390.0,2.0,0.0
10106,71.0,0.0,390.0,1.0,0.0
10107,83.0,0.0,390.0,10.0,0.0
10108,71.0,0.0,390.0,12.0,0.0
10109,64.0,0.0,390.0,12.0,0.0
10110,76.0,0.0,390.0,11.0,0.0
10111,64.0,336.0,390.0,2.0,0.0
10112,45.0,96.0,300.0,14.0,0.0
10113,57.0,0.0,300.0,13.0,0.0
10114,79.0,0.0,240.0,11.0,0.0
10115,67.0,0.0,240.0,12.0,0.0
10116,69.0,48.0,390.0,3.0,0.0
10117,83.0,0.0,240.0,10.0,0.0
10118,71.0,48.0,240.0,12.0,0.0
10119,81.0,0.0,180.0,10.0,0.0
10120,78.0,0.0,180.0,11.0,0.0
10121,69.0,0.0,180.0,12.0,0.0
10122,66.0,288.0,180.0,12.0,0.0
10123,59.0,0.0,300.0,13.0,0.0
10124,69.0,0.0,240.0,12.0,0.0
10125,66.0,0.0,240.0,12.0,0.0
10126,78.0,0.0,240.0,11.0,0.0
10127,71.0,48.0,390.0,3.0,0.0
10128,47.0,96.0,300.0,14.0,0.0
10129,81.0,48.0,240.0,10.0,0.0
10130,67.0,0.0,180.0,12.0,0.0
10131,64.0,288.0,180.0,12.0,0.0
10132,76.0,0.0,180.0,11.0,0.0
10133,79.0,0.0,180.0,10.0,0.0
10134,47.0,96.0,300.0,13.0,0.0
10135,35.0,0.0,300.0,14.0,0.0
10136,76.0,0.0,240.0,11.0,0.0
10137,79.0,0.0,240.0,10.0,0.0
10138,71.0,48.0,390.0,3.0,0.0
10139,64.0,0.0,240.0,12.0,0.0
10140,67.0,48.0,240.0,12.0,0.0
10141,78.0,0.0,180.0,10.0,0.0
10142,75.0,0.0,180.0,11.0,0.0
10143,66.0,144.0,180.0,12.0,0.0
10144,63.0,0.0,180.0,12.0,0.0
10145,67.0,0.0,390.0,3.0,0.0
10146,79.0,0.0,390.0,4.0,0.0
10147,64.0,48.0,90.0,12.0,0.0
10148,67.0,0.0,90.0,11.0,0.0
10149,59.0,0.0,90.0,11.0,0.0
10150,71.0,0.0,390.0,4.0,0.0
10151,52.0,72.0,150.0,14.0,0.0
10152,55.0,72.0,390.0,5.0,0.0
10153,76.0,0.0,390.0,10.0,0.0
10154,59.0,0.0,390.0,3.0,0.0
10155,64.0,0.0,150.0,13.0,0.0
10156,67.0,0.0,90.0,11.0,0.0
10157,59.0,120.0,90.0,11.0,0.0
10158,64.0,0.0,90.0,12.0,0.0
10159,64.0,0.0,90.0,12.0,0.0
10160,67.0,24.0,90.0,11.0,0.0
10161,66.0,24.0,120.0,13.0,0.0
10162,54.0,0.0,120.0,14.0,0.0
10163,59.0,0.0,90.0,11.0,0.0
10164,64.0,120.0,90.0,12.0,0.0
10165,67.0,0.0,90.0,11.0,0.0
10166,59.0,0.0,90.0,11.0,0.0
10167,51.0,0.0,90.0,14.0,0.0
10168,63.0,0.0,90.0,13.0,0.0
10169,59.0,0.0,90.0,11.0,0.0
10170,64.0,48.0,90.0,12.0,0.0
10171,59.0,0.0,390.0,3.0,0.0
10172,67.0,72.0,390.0,3.0,0.0
10173,67.0,0.0,90.0,11.0,0.0
10174,79.0,0.0,390.0,4.0,0.0
10175,64.0,72.0,150.0,13.0,0.0
10176,55.0,0.0,390.0,5.0,0.0
10177,71.0,0.0,390.0,4.0,0.0
10178,52.0,0.0,150.0,14.0,0.0
10179,67.0,0.0,90.0,11.0,0.0
10180,59.0,0.0,90.0,11.0,0.0
10181,64.0,120.0,90.0,12.0,0.0
10182,66.0,24.0,120.0,13.0,0.0
10183,54.0,0.0,120.0,14.0,0.0
10184,59.0,24.0,90.0,11.0,0.0
10185,64.0,0.0,90.0,12.0,0.0
10186,67.0,0.0,90.0,11.0,0.0
10187,51.0,0.0,90.0,14.0,0.0
10188,59.0,0.0,90.0,11.0,0.0
10189,64.0,120.0,90.0,12.0,0.0
10190,63.0,0.0,90.0,13.0,0.0
10191,67.0,0.0,90.0,11.0,0.0
10192,64.0,48.0,90.0,12.0,0.0
10193,55.0,0.0,390.0,5.0,0.0
10194,52.0,0.0,150.0,14.0,0.0
10195,67.0,0.0,390.0,3.0,0.0
10196,59.0,0.0,390.0,3.0,0.0
10197,71.0,0.0,390.0,4.0,0.0
10198,79.0,72.0,390.0,4.0,0.0
10199,64.0,72.0,150.0,13.0,0.0
10200,59.0,0.0,90.0,11.0,0.0
10201,67.0,0.0,90.0,11.0,0.0
10202,59.0,0.0,90.0,11.0,0.0
10203,67.0,0.0,90.0,11.0,0.0
10204,64.0,120.0,90.0,12.0,0.0
10205,67.0,0.0,90.0,11.0,0.0
10206,54.0,0.0,120.0,14.0,0.0
10207,59.0,24.0,90.0,11.0,0.0
10208,66.0,24.0,120.0,13.0,0.0
10209,64.0,0.0,90.0,12.0,0.0
10210,64.0,0.0,90.0,12.0,0.0
10211,63.0,0.0,90.0,13.0,0.0
10212,59.0,0.0,90.0,11.0,0.0
10213,67.0,0.0,90.0,11.0,0.0
10214,51.0,120.0,90.0,14.0,0.0
10215,79.0,0.0,390.0,4.0,0.0
10216,84.0,0.0,390.0,1.0,0.0
10217,52.0,0.0,300.0,14.0,0.0
10218,55.0,0.0,390.0,3.0,0.0
10219,67.0,0.0,390.0,3.0,0.0
10220,84.0,72.0,150.0,10.0,0.0
10221,64.0,0.0,390.0,2.0,0.0
10222,67.0,72.0,390.0,4.0,0.0
10223,67.0,0.0,390.0,2.0,0.0
10224,64.0,24.0,300.0,13.0,0.0
10225,72.0,0.0,90.0,12.0,0.0
10226,67.0,48.0,90.0,11.0,0.0
10227,55.0,0.0,390.0,5.0,0.0
10228,64.0,0.0,90.0,12.0,0.0
10229,96.0,0.0,390.0,0.0,0.0
10230,79.0,0.0,390.0,1.0,0.0
10231,64.0,0.0,90.0,11.0,0.0
10232,72.0,0.0,90.0,12.0,0.0
10233,64.0,0.0,90.0,12.0,0.0
10234,67.0,0.0,90.0,11.0,0.0
10235,64.0,96.0,90.0,11.0,0.0
10236,64.0,0.0,90.0,11.0,0.0
10237,86.0,24.0,120.0,10.0,0.0
10238,67.0,0.0,90.0,11.0,0.0
10239,64.0,0.0,90.0,12.0,0.0
10240,72.0,24.0,90.0,12.0,0.0
10241,83.0,0.0,90.0,10.0,0.0
10242,64.0,0.0,90.0,11.0,0.0
10243,67.0,0.0,90.0,11.0,0.0
10244,72.0,0.0,90.0,12.0,0.0
10245,64.0,120.0,90.0,12.0,0.0
10246,64.0,0.0,90.0,12.0,0.0
10247,96.0,0.0,390.0,0.0,0.0
10248,72.0,48.0,90.0,12.0,0.0
10249,67.0,0.0,390.0,2.0,0.0
10250,84.0,72.0,150.0,10.0,0.0
10251,79.0,0.0,390.0,1.0,0.0
10252,64.0,0.0,390.0,2.0,0.0
10253,52.0,24.0,300.0,13.0,0.0
10254,84.0,72.0,390.0,1.0,0.0
10255,67.0,0.0,90.0,11.0,0.0
10256,64.0,0.0,90.0,11.0,0.0
10257,40.0,0.0,300.0,14.0,0.0
10258,67.0,0.0,90.0,11.0,0.0
10259,64.0,96.0,90.0,11.0,0.0
10260,64.0,0.0,90.0,12.0,0.0
10261,72.0,0.0,90.0,12.0,0.0
10262,67.0,0.0,90.0,11.0,0.0
10263,86.0,24.0,120.0,10.0,0.0
10264,64.0,24.0,90.0,12.0,0.0
10265,72.0,0.0,90.0,12.0,0.0
10266,64.0,0.0,90.0,11.0,0.0
10267,83.0,0.0,90.0,10.0,0.0
10268,67.0,0.0,90.0,11.0,0.0
10269,72.0,120.0,90.0,12.0,0.0
10270,64.0,0.0,90.0,11.0,0.0
10271,64.0,0.0,90.0,12.0,0.0
10272,96.0,72.0,390.0,0.0,0.0
10273,72.0,0.0,90.0,12.0,0.0
10274,64.0,0.0,390.0,2.0,0.0
10275,67.0,0.0,390.0,2.0,0.0
10276,64.0,0.0,90.0,12.0,0.0
10277,67.0,48.0,90.0,11.0,0.0
10278,84.0,72.0,150.0,10.0,0.0
10279,64.0,0.0,90.0,11.0,0.0
10280,79.0,0.0,390.0,1.0,0.0
10281,84.0,0.0,390.0,1.0,0.0
10282,64.0,120.0,90.0,12.0,0.0
10283,72.0,0.0,90.0,12.0,0.0
10284,64.0,0.0,90.0,11.0,0.0
10285,67.0,0.0,90.0,11.0,0.0
10286,72.0,0.0,90.0,12.0,0.0
10287,64.0,0.0,90.0,12.0,0.0
10288,67.0,24.0,90.0,11.0,0.0
10289,86.0,24.0,120.0,10.0,0.0
10290,64.0,0.0,90.0,11.0,0.0
10291,64.0,0.0,90.0,11.0,0.0
10292,72.0,0.0,90.0,12.0,0.0
10293,64.0,0.0,90.0,12.0,0.0
10294,67.0,0.0,90.0,11.0,0.0
10295,83.0,120.0,90.0,10.0,0.0
10296,69.0,48.0,90.0,11.0,0.0
10297,62.0,0.0,390.0,3.0,0.0
10298,96.0,0.0,1140.0,0.0,0.0
10299,66.0,0.0,1140.0,2.0,0.0
10300,69.0,0.0,1140.0,2.0,0.0
10301,50.0,0.0,150.0,14.0,0.0
10302,50.0,0.0,390.0,3.0,0.0
10303,66.0,0.0,90.0,11.0,0.0
10304,62.0,72.0,150.0,13.0,0.0
10305,62.0,0.0,90.0,12.0,0.0
10306,72.0,0.0,90.0,12.0,0.0
10307,50.0,0.0,390.0,5.0,0.0
10308,78.0,0.0,1140.0,1.0,0.0
10309,84.0,24.0,1140.0,1.0,0.0
10310,84.0,24.0,300.0,10.0,0.0
10311,74.0,72.0,390.0,4.0,0.0
10312,62.0,0.0,390.0,4.0,0.0
10313,62.0,0.0,90.0,12.0,0.0
10314,72.0,0.0,90.0,12.0,0.0
10315,66.0,0.0,90.0,11.0,0.0
10316,69.0,96.0,90.0,11.0,0.0
10317,64.0,0.0,120.0,13.0,0.0
10318,62.0,0.0,90.0,12.0,0.0
10319,66.0,0.0,90.0,11.0,0.0
10320,72.0,24.0,90.0,12.0,0.0
10321,52.0,24.0,120.0,14.0,0.0
10322,69.0,0.0,90.0,11.0,0.0
10323,66.0,120.0,90.0,11.0,0.0
10324,69.0,0.0,90.0,11.0,0.0
10325,62.0,0.0,90.0,12.0,0.0
10326,72.0,0.0,90.0,12.0,0.0
10327,60.0,0.0,90.0,13.0,0.0
10328,48.0,0.0,90.0,14.0,0.0
10329,72.0,48.0,90.0,12.0,0.0
10330,74.0,0.0,390.0,4.0,0.0
10331,62.0,0.0,90.0,12.0,0.0
10332,50.0,0.0,390.0,3.0,0.0
10333,62.0,0.0,390.0,3.0,0.0
10334,66.0,0.0,90.0,11.0,0.0
10335,62.0,0.0,390.0,4.0,0.0
10336,72.0,24.0,300.0,10.0,0.0
10337,69.0,0.0,90.0,11.0,0.0
10338,50.0,0.0,150.0,14.0,0.0
10339,50.0,72.0,390.0,5.0,0.0
10340,62.0,72.0,150.0,13.0,0.0
10341,69.0,0.0,90.0,11.0,0.0
10342,66.0,96.0,90.0,11.0,0.0
10343,72.0,0.0,90.0,12.0,0.0
10344,62.0,0.0,90.0,12.0,0.0
10345,64.0,24.0,120.0,13.0,0.0
10346,62.0,24.0,90.0,12.0,0.0
10347,72.0,0.0,90.0,12.0,0.0
10348,69.0,0.0,90.0,11.0,0.0
10349,66.0,0.0,90.0,11.0,0.0
10350,52.0,0.0,120.0,14.0,0.0
10351,69.0,0.0,90.0,11.0,0.0
10352,66.0,0.0,90.0,11.0,0.0
10353,60.0,0.0,90.0,13.0,0.0
10354,62.0,0.0,90.0,12.0,0.0
10355,72.0,0.0,90.0,12.0,0.0
10356,48.0,120.0,90.0,14.0,0.0
10357,50.0,0.0,390.0,5.0,0.0
10358,69.0,0.0,90.0,11.0,0.0
10359,50.0,72.0,390.0,3.0,0.0
10360,62.0,0.0,390.0,3.0,0.0
10361,62.0,0.0,390.0,4.0,0.0
10362,62.0,0.0,90.0,12.0,0.0
10363,72.0,0.0,90.0,12.0,0.0
10364,74.0,0.0,390.0,4.0,0.0
10365,50.0,48.0,150.0,14.0,0.0
10366,66.0,48.0,90.0,11.0,0.0
10367,62.0,0.0,150.0,13.0,0.0
10368,72.0,0.0,90.0,12.0,0.0
10369,62.0,0.0,90.0,12.0,0.0
10370,69.0,0.0,90.0,11.0,0.0
10371,66.0,120.0,90.0,11.0,0.0
10372,64.0,24.0,120.0,13.0,0.0
10373,52.0,0.0,120.0,14.0,0.0
10374,72.0,0.0,90.0,12.0,0.0
10375,62.0,0.0,90.0,12.0,0.0
10376,69.0,0.0,90.0,11.0,0.0
10377,66.0,24.0,90.0,11.0,0.0
10378,48.0,0.0,90.0,14.0,0.0
10379,60.0,0.0,90.0,13.0,0.0
10380,66.0,120.0,90.0,11.0,0.0
10381,69.0,0.0,90.0,11.0,0.0
10382,72.0,0.0,90.0,12.0,0.0
10383,62.0,0.0,90.0,12.0,0.0
10384,66.0,0.0,90.0,11.0,0.0
10385,71.0,0.0,90.0,11.0,0.0
10386,62.0,0.0,390.0,4.0,0.0
10387,62.0,48.0,90.0,12.0,0.0
10388,71.0,0.0,90.0,12.0,0.0
10389,83.0,72.0,150.0,10.0,0.0
10390,95.0,0.0,390.0,0.0,0.0
10391,74.0,0.0,390.0,4.0,0.0
10392,66.0,0.0,390.0,2.0,0.0
10393,62.0,0.0,390.0,3.0,0.0
10394,50.0,0.0,390.0,3.0,0.0
10395,62.0,0.0,390.0,2.0,0.0
10396,62.0,0.0,390.0,13.0,0.0
10397,50.0,0.0,390.0,14.0,0.0
10398,50.0,0.0,390.0,5.0,0.0
10399,78.0,72.0,390.0,1.0,0.0
10400,83.0,0.0,390.0,1.0,0.0
10401,66.0,0.0,90.0,11.0,0.0
10402,71.0,0.0,90.0,11.0,0.0
10403,62.0,0.0,90.0,12.0,0.0
10404,71.0,120.0,90.0,12.0,0.0
10405,66.0,24.0,90.0,11.0,0.0
10406,84.0,24.0,120.0,10.0,0.0
10407,71.0,0.0,90.0,11.0,0.0
10408,62.0,0.0,90.0,12.0,0.0
10409,71.0,0.0,90.0,12.0,0.0
10410,62.0,0.0,90.0,12.0,0.0
10411,71.0,0.0,90.0,12.0,0.0
10412,81.0,0.0,90.0,10.0,0.0
10413,71.0,120.0,90.0,11.0,0.0
10414,66.0,0.0,90.0,11.0,0.0
10415,78.0,0.0,390.0,1.0,0.0
10416,83.0,0.0,390.0,1.0,0.0
10417,62.0,48.0,90.0,12.0,0.0
10418,71.0,0.0,90.0,12.0,0.0
10419,50.0,0.0,390.0,13.0,0.0
10420,95.0,0.0,390.0,0.0,0.0
10421,66.0,0.0,90.0,11.0,0.0
10422,38.0,72.0,390.0,14.0,0.0
10423,71.0,0.0,90.0,11.0,0.0
10424,66.0,0.0,390.0,2.0,0.0
10425,62.0,0.0,390.0,2.0,0.0
10426,83.0,72.0,150.0,10.0,0.0
10427,66.0,0.0,90.0,11.0,0.0
10428,71.0,120.0,90.0,11.0,0.0
10429,71.0,0.0,90.0,12.0,0.0
10430,62.0,0.0,90.0,12.0,0.0
10431,66.0,0.0,90.0,11.0,0.0
10432,71.0,0.0,90.0,11.0,0.0
10433,84.0,24.0,120.0,10.0,0.0
10434,62.0,24.0,90.0,12.0,0.0
10435,71.0,0.0,90.0,12.0,0.0
10436,71.0,120.0,90.0,12.0,0.0
10437,62.0,0.0,90.0,12.0,0.0
10438,71.0,0.0,90.0,11.0,0.0
10439,81.0,0.0,90.0,10.0,0.0
10440,66.0,0.0,90.0,11.0,0.0
10441,78.0,0.0,390.0,1.0,0.0
10442,83.0,72.0,150.0,10.0,0.0
10443,62.0,0.0,390.0,2.0,0.0
10444,71.0,0.0,90.0,11.0,0.0
10445,66.0,0.0,90.0,11.0,0.0
10446,62.0,0.0,90.0,12.0,0.0
10447,83.0,0.0,390.0,1.0,0.0
10448,95.0,0.0,390.0,0.0,0.0
10449,66.0,72.0,390.0,2.0,0.0
10450,71.0,48.0,90.0,12.0,0.0
10451,71.0,0.0,90.0,12.0,0.0
10452,66.0,0.0,90.0,11.0,0.0
10453,71.0,120.0,90.0,11.0,0.0
10454,62.0,0.0,90.0,12.0,0.0
10455,71.0,24.0,90.0,11.0,0.0
10456,71.0,0.0,90.0,12.0,0.0
10457,62.0,0.0,90.0,12.0,0.0
10458,66.0,0.0,90.0,11.0,0.0
10459,84.0,24.0,120.0,10.0,0.0
10460,71.0,0.0,90.0,11.0,0.0
10461,66.0,0.0,90.0,11.0,0.0
10462,62.0,120.0,90.0,12.0,0.0
10463,71.0,0.0,90.0,12.0,0.0
10464,81.0,0.0,90.0,10.0,0.0
10465,64.0,0.0,1140.0,2.0,0.0
10466,55.0,0.0,390.0,5.0,0.0
10467,49.0,0.0,150.0,14.0,0.0
10468,79.0,0.0,390.0,4.0,0.0
10469,61.0,0.0,90.0,12.0,0.0
10470,71.0,0.0,90.0,12.0,0.0
10471,67.0,24.0,1140.0,2.0,0.0
10472,67.0,72.0,390.0,3.0,0.0
10473,61.0,72.0,150.0,13.0,0.0
10474,64.0,0.0,90.0,11.0,0.0
10475,83.0,24.0,300.0,10.0,0.0
10476,95.0,0.0,1140.0,0.0,0.0
10477,83.0,0.0,1140.0,1.0,0.0
10478,76.0,0.0,1140.0,1.0,0.0
10479,67.0,48.0,90.0,11.0,0.0
10480,64.0,0.0,90.0,11.0,0.0
10481,67.0,0.0,90.0,11.0,0.0
10482,61.0,0.0,90.0,12.0,0.0
10483,71.0,96.0,90.0,12.0,0.0
10484,64.0,0.0,90.0,11.0,0.0
10485,61.0,0.0,90.0,12.0,0.0
10486,62.0,0.0,120.0,13.0,0.0
10487,67.0,24.0,90.0,11.0,0.0
10488,71.0,0.0,90.0,12.0,0.0
10489,50.0,24.0,120.0,14.0,0.0
10490,47.0,0.0,90.0,14.0,0.0
10491,71.0,0.0,90.0,12.0,0.0
10492,64.0,0.0,90.0,11.0,0.0
10493,67.0,120.0,90.0,11.0,0.0
10494,61.0,0.0,90.0,12.0,0.0
10495,59.0,0.0,90.0,13.0,0.0
10496,49.0,0.0,150.0,14.0,0.0
10497,71.0,0.0,90.0,12.0,0.0
10498,61.0,48.0,90.0,12.0,0.0
10499,79.0,0.0,390.0,4.0,0.0
10500,71.0,24.0,300.0,10.0,0.0
10501,67.0,0.0,90.0,11.0,0.0
10502,55.0,72.0,390.0,5.0,0.0
10503,67.0,0.0,390.0,3.0,0.0
10504,64.0,0.0,90.0,11.0,0.0
10505,61.0,72.0,150.0,13.0,0.0
10506,61.0,0.0,90.0,12.0,0.0
10507,67.0,96.0,90.0,11.0,0.0
10508,64.0,0.0,90.0,11.0,0.0
10509,71.0,0.0,90.0,12.0,0.0
10510,62.0,0.0,120.0,13.0,0.0
10511,61.0,0.0,90.0,12.0,0.0
10512,71.0,0.0,90.0,12.0,0.0
10513,64.0,0.0,90.0,11.0,0.0
10514,67.0,24.0,90.0,11.0,0.0
10515,50.0,24.0,120.0,14.0,0.0
10516,71.0,0.0,90.0,12.0,0.0
10517,61.0,0.0,90.0,12.0,0.0
10518,59.0,0.0,90.0,13.0,0.0
10519,47.0,120.0,90.0,14.0,0.0
10520,67.0,0.0,90.0,11.0,0.0
10521,64.0,0.0,90.0,11.0,0.0
10522,64.0,48.0,90.0,11.0,0.0
10523,61.0,48.0,150.0,13.0,0.0
10524,79.0,0.0,390.0,4.0,0.0
10525,55.0,72.0,390.0,5.0,0.0
10526,67.0,0.0,390.0,3.0,0.0
10527,61.0,0.0,90.0,12.0,0.0
10528,71.0,0.0,90.0,12.0,0.0
10529,67.0,0.0,90.0,11.0,0.0
10530,49.0,0.0,150.0,14.0,0.0
10531,67.0,0.0,90.0,11.0,0.0
10532,61.0,0.0,90.0,12.0,0.0
10533,71.0,120.0,90.0,12.0,0.0
10534,64.0,0.0,90.0,11.0,0.0
10535,61.0,0.0,90.0,12.0,0.0
10536,50.0,0.0,120.0,14.0,0.0
10537,67.0,0.0,90.0,11.0,0.0
10538,71.0,24.0,90.0,12.0,0.0
10539,64.0,0.0,90.0,11.0,0.0
10540,62.0,24.0,120.0,13.0,0.0
10541,59.0,0.0,90.0,13.0,0.0
10542,61.0,120.0,90.0,12.0,0.0
10543,47.0,0.0,90.0,14.0,0.0
10544,71.0,0.0,90.0,12.0,0.0
10545,64.0,0.0,90.0,11.0,0.0
10546,67.0,0.0,90.0,11.0,0.0
10547,69.0,0.0,90.0,12.0,0.0
10548,64.0,0.0,390.0,2.0,0.0
10549,61.0,0.0,390.0,2.0,0.0
10550,69.0,0.0,390.0,3.0,0.0
10551,93.0,0.0,390.0,0.0,0.0
10552,61.0,0.0,390.0,13.0,0.0
10553,76.0,72.0,390.0,1.0,0.0
10554,81.0,0.0,390.0,4.0,0.0
10555,49.0,0.0,390.0,14.0,0.0
10556,81.0,72.0,150.0,10.0,0.0
10557,64.0,48.0,90.0,11.0,0.0
10558,69.0,0.0,90.0,11.0,0.0
10559,61.0,0.0,90.0,12.0,0.0
10560,81.0,0.0,390.0,1.0,0.0
10561,69.0,0.0,90.0,12.0,0.0
10562,61.0,120.0,90.0,12.0,0.0
10563,64.0,0.0,90.0,11.0,0.0
10564,69.0,0.0,90.0,11.0,0.0
10565,83.0,24.0,120.0,10.0,0.0
10566,69.0,24.0,90.0,12.0,0.0
10567,61.0,0.0,90.0,12.0,0.0
10568,64.0,0.0,90.0,11.0,0.0
10569,69.0,0.0,90.0,11.0,0.0
10570,69.0,0.0,90.0,11.0,0.0
10571,69.0,0.0,90.0,12.0,0.0
10572,61.0,120.0,90.0,12.0,0.0
10573,64.0,0.0,90.0,11.0,0.0
10574,80.0,0.0,90.0,10.0,0.0
10575,64.0,0.0,90.0,11.0,0.0
10576,37.0,72.0,390.0,14.0,0.0
10577,61.0,48.0,90.0,12.0,0.0
10578,93.0,0.0,390.0,0.0,0.0
10579,69.0,0.0,90.0,11.0,0.0
10580,64.0,0.0,390.0,2.0,0.0
10581,69.0,0.0,90.0,12.0,0.0
10582,49.0,0.0,390.0,13.0,0.0
10583,81.0,0.0,390.0,1.0,0.0
10584,76.0,0.0,390.0,1.0,0.0
10585,81.0,72.0,150.0,10.0,0.0
10586,61.0,0.0,390.0,2.0,0.0
10587,61.0,120.0,90.0,12.0,0.0
10588,64.0,0.0,90.0,11.0,0.0
10589,69.0,0.0,90.0,11.0,0.0
10590,69.0,0.0,90.0,12.0,0.0
10591,83.0,24.0,120.0,10.0,0.0
10592,61.0,0.0,90.0,12.0,0.0
10593,69.0,0.0,90.0,12.0,0.0
10594,69.0,24.0,90.0,11.0,0.0
10595,64.0,0.0,90.0,11.0,0.0
10596,80.0,0.0,90.0,10.0,0.0
10597,61.0,0.0,90.0,12.0,0.0
10598,69.0,0.0,90.0,12.0,0.0
10599,69.0,0.0,90.0,11.0,0.0
10600,64.0,120.0,90.0,11.0,0.0
10601,64.0,0.0,390.0,2.0,0.0
10602,61.0,72.0,390.0,2.0,0.0
10603,61.0,0.0,90.0,12.0,0.0
10604,93.0,0.0,390.0,0.0,0.0
10605,69.0,48.0,90.0,12.0,0.0
10606,76.0,0.0,390.0,1.0,0.0
10607,81.0,72.0,150.0,10.0,0.0
10608,69.0,0.0,90.0,11.0,0.0
10609,64.0,0.0,90.0,11.0,0.0
10610,81.0,0.0,390.0,1.0,0.0
10611,61.0,0.0,90.0,12.0,0.0
10612,69.0,120.0,90.0,12.0,0.0
10613,69.0,0.0,90.0,11.0,0.0
10614,64.0,0.0,90.0,11.0,0.0
10615,64.0,0.0,90.0,11.0,0.0
10616,69.0,0.0,90.0,11.0,0.0
10617,83.0,24.0,120.0,10.0,0.0
10618,69.0,24.0,90.0,12.0,0.0
10619,61.0,0.0,90.0,12.0,0.0
10620,64.0,0.0,90.0,11.0,0.0
10621,80.0,120.0,90.0,10.0,0.0
10622,69.0,0.0,90.0,11.0,0.0
10623,69.0,0.0,90.0,12.0,0.0
10624,61.0,0.0,90.0,12.0,0.0
10625,64.0,0.0,90.0,11.0,0.0
10626,69.0,72.0,390.0,3.0,0.0
10627,93.0,0.0,1140.0,0.0,0.0
10628,76.0,0.0,1140.0,1.0,0.0
10629,81.0,0.0,1140.0,1.0,0.0
10630,64.0,24.0,1140.0,2.0,0.0
10631,60.0,72.0,150.0,13.0,0.0
10632,60.0,0.0,1140.0,2.0,0.0
10633,81.0,0.0,390.0,4.0,0.0
10634,81.0,24.0,300.0,10.0,0.0
10635,48.0,0.0,150.0,14.0,0.0
10636,69.0,0.0,90.0,12.0,0.0
10637,60.0,48.0,90.0,12.0,0.0
10638,69.0,0.0,90.0,11.0,0.0
10639,60.0,96.0,90.0,12.0,0.0
10640,69.0,0.0,90.0,11.0,0.0
10641,64.0,0.0,90.0,11.0,0.0
10642,69.0,0.0,90.0,12.0,0.0
10643,60.0,0.0,90.0,12.0,0.0
10644,69.0,0.0,90.0,12.0,0.0
10645,64.0,0.0,90.0,11.0,0.0
10646,50.0,0.0,120.0,14.0,0.0
10647,62.0,24.0,120.0,13.0,0.0
10648,69.0,24.0,90.0,11.0,0.0
10649,60.0,120.0,90.0,12.0,0.0
10650,69.0,0.0,90.0,12.0,0.0
10651,64.0,0.0,90.0,11.0,0.0
10652,47.0,0.0,90.0,14.0,0.0
10653,69.0,0.0,90.0,11.0,0.0
10654,59.0,0.0,90.0,13.0,0.0
10655,69.0,24.0,300.0,10.0,0.0
10656,81.0,72.0,390.0,4.0,0.0
10657,48.0,72.0,150.0,14.0,0.0
10658,69.0,48.0,90.0,12.0,0.0
10659,64.0,0.0,90.0,11.0,0.0
10660,69.0,0.0,90.0,11.0,0.0
10661,60.0,0.0,150.0,13.0,0.0
10662,60.0,0.0,90.0,12.0,0.0
10663,69.0,0.0,390.0,3.0,0.0
10664,69.0,0.0,90.0,11.0,0.0
10665,60.0,96.0,90.0,12.0,0.0
10666,69.0,0.0,90.0,12.0,0.0
10667,64.0,0.0,90.0,11.0,0.0
10668,62.0,24.0,120.0,13.0,0.0
10669,50.0,0.0,120.0,14.0,0.0
10670,60.0,0.0,90.0,12.0,0.0
10671,69.0,0.0,90.0,12.0,0.0
10672,64.0,0.0,90.0,11.0,0.0
10673,69.0,24.0,90.0,11.0,0.0
10674,60.0,0.0,90.0,12.0,0.0
10675,47.0,0.0,90.0,14.0,0.0
10676,69.0,0.0,90.0,12.0,0.0
10677,59.0,120.0,90.0,13.0,0.0
10678,64.0,0.0,90.0,11.0,0.0
10679,69.0,0.0,90.0,11.0,0.0
10680,69.0,0.0,90.0,12.0,0.0
10681,69.0,48.0,90.0,11.0,0.0
10682,81.0,0.0,390.0,4.0,0.0
10683,48.0,0.0,150.0,14.0,0.0
10684,60.0,48.0,150.0,13.0,0.0
10685,69.0,72.0,390.0,3.0,0.0
10686,60.0,0.0,90.0,12.0,0.0
10687,64.0,0.0,90.0,11.0,0.0
10688,69.0,0.0,90.0,11.0,0.0
10689,64.0,0.0,90.0,11.0,0.0
10690,69.0,0.0,90.0,12.0,0.0
10691,60.0,120.0,90.0,12.0,0.0
10692,62.0,24.0,120.0,13.0,0.0
10693,69.0,24.0,90.0,11.0,0.0
10694,64.0,0.0,90.0,11.0,0.0
10695,69.0,0.0,90.0,12.0,0.0
10696,60.0,0.0,90.0,12.0,0.0
10697,50.0,0.0,120.0,14.0,0.0
10698,64.0,0.0,90.0,11.0,0.0
10699,47.0,0.0,90.0,14.0,0.0
10700,69.0,0.0,90.0,12.0,0.0
10701,69.0,0.0,90.0,11.0,0.0
10702,60.0,0.0,90.0,12.0,0.0
10703,59.0,120.0,90.0,13.0,0.0
10704,48.0,0.0,300.0,14.0,0.0
10705,55.0,0.0,390.0,5.0,0.0
10706,64.0,0.0,390.0,2.0,0.0
10707,60.0,24.0,300.0,13.0,0.0
10708,60.0,0.0,390.0,2.0,0.0
10709,79.0,0.0,390.0,4.0,0.0
10710,67.0,0.0,390.0,4.0,0.0
10711,67.0,0.0,390.0,3.0,0.0
10712,67.0,0.0,90.0,11.0,0.0
10713,60.0,48.0,90.0,12.0,0.0
10714,55.0,0.0,390.0,3.0,0.0
10715,70.0,0.0,90.0,12.0,0.0
10716,64.0,0.0,90.0,11.0,0.0
10717,76.0,72.0,390.0,1.0,0.0
10718,82.0,0.0,390.0,1.0,0.0
10719,94.0,0.0,390.0,0.0,0.0
10720,88.0,72.0,150.0,10.0,0.0
10721,70.0,0.0,90.0,12.0,0.0
10722,64.0,96.0,90.0,11.0,0.0
10723,67.0,0.0,90.0,11.0,0.0
10724,60.0,0.0,90.0,12.0,0.0
10725,60.0,24.0,90.0,12.0,0.0
10726,90.0,24.0,120.0,10.0,0.0
10727,64.0,0.0,90.0,11.0,0.0
10728,67.0,0.0,90.0,11.0,0.0
10729,70.0,0.0,90.0,12.0,0.0
10730,60.0,0.0,90.0,12.0,0.0
10731,87.0,120.0,90.0,10.0,0.0
10732,70.0,0.0,90.0,12.0,0.0
10733,67.0,0.0,90.0,11.0,0.0
10734,64.0,0.0,90.0,11.0,0.0
10735,70.0,0.0,90.0,12.0,0.0
10736,60.0,48.0,90.0,12.0,0.0
10737,76.0,0.0,390.0,1.0,0.0
10738,64.0,0.0,390.0,2.0,0.0
10739,94.0,0.0,390.0,0.0,0.0
10740,48.0,24.0,300.0,13.0,0.0
10741,88.0,72.0,150.0,10.0,0.0
10742,55.0,0.0,390.0,3.0,0.0
10743,36.0,0.0,300.0,14.0,0.0
10744,82.0,0.0,390.0,1.0,0.0
10745,67.0,0.0,390.0,3.0,0.0
10746,60.0,0.0,390.0,2.0,0.0
10747,79.0,72.0,390.0,4.0,0.0
10748,64.0,0.0,90.0,11.0,0.0
10749,67.0,0.0,390.0,4.0,0.0
10750,67.0,0.0,90.0,11.0,0.0
10751,55.0,0.0,390.0,5.0,0.0
10752,64.0,0.0,90.0,11.0,0.0
10753,67.0,0.0,90.0,11.0,0.0
10754,60.0,96.0,90.0,12.0,0.0
10755,70.0,0.0,90.0,12.0,0.0
10756,60.0,24.0,90.0,12.0,0.0
10757,70.0,0.0,90.0,12.0,0.0
10758,67.0,0.0,90.0,11.0,0.0
10759,90.0,24.0,120.0,10.0,0.0
10760,64.0,0.0,90.0,11.0,0.0
10761,70.0,120.0,90.0,12.0,0.0
10762,60.0,0.0,90.0,12.0,0.0
10763,87.0,0.0,90.0,10.0,0.0
10764,64.0,0.0,90.0,11.0,0.0
10765,67.0,0.0,90.0,11.0,0.0
10766,67.0,0.0,390.0,4.0,0.0
10767,70.0,48.0,90.0,12.0,0.0
10768,64.0,72.0,390.0,2.0,0.0
10769,88.0,72.0,150.0,10.0,0.0
10770,55.0,0.0,390.0,5.0,0.0
10771,60.0,0.0,90.0,12.0,0.0
10772,79.0,0.0,390.0,4.0,0.0
10773,82.0,0.0,390.0,1.0,0.0
10774,76.0,0.0,390.0,1.0,0.0
10775,60.0,0.0,390.0,2.0,0.0
10776,64.0,0.0,90.0,11.0,0.0
10777,67.0,0.0,90.0,11.0,0.0
10778,94.0,0.0,390.0,0.0,0.0
10779,67.0,0.0,390.0,3.0,0.0
10780,55.0,0.0,390.0,3.0,0.0
10781,67.0,0.0,90.0,11.0,0.0
10782,64.0,120.0,90.0,11.0,0.0
10783,70.0,0.0,90.0,12.0,0.0
10784,60.0,0.0,90.0,12.0,0.0
10785,88.0,0.0,150.0,10.0,0.0
10786,67.0,0.0,90.0,11.0,0.0
10787,70.0,0.0,90.0,12.0,0.0
10788,64.0,0.0,90.0,11.0,0.0
10789,60.0,48.0,90.0,12.0,0.0
10790,70.0,0.0,90.0,12.0,0.0
10791,60.0,0.0,90.0,12.0,0.0
10792,67.0,120.0,90.0,11.0,0.0
10793,64.0,0.0,90.0,11.0,0.0
10794,63.0,0.0,90.0,11.0,0.0
10795,71.0,72.0,390.0,4.0,0.0
10796,83.0,0.0,390.0,4.0,0.0
10797,47.0,0.0,390.0,13.0,0.0
10798,66.0,120.0,90.0,11.0,0.0
10799,35.0,0.0,390.0,14.0,0.0
10800,95.0,0.0,780.0,0.0,0.0
10801,83.0,0.0,780.0,1.0,0.0
10802,75.0,0.0,780.0,1.0,0.0
10803,59.0,0.0,90.0,12.0,0.0
10804,71.0,0.0,90.0,12.0,0.0
10805,59.0,0.0,780.0,2.0,0.0
10806,63.0,48.0,780.0,2.0,0.0
10807,59.0,24.0,360.0,3.0,0.0
10808,87.0,0.0,90.0,10.0,0.0
10809,71.0,0.0,360.0,3.0,0.0
10810,66.0,0.0,90.0,11.0,0.0
10811,63.0,0.0,90.0,11.0,0.0
10812,59.0,0.0,90.0,12.0,0.0
10813,87.0,120.0,90.0,10.0,0.0
10814,71.0,0.0,90.0,12.0,0.0
10815,63.0,0.0,90.0,11.0,0.0
10816,59.0,24.0,90.0,12.0,0.0
10817,83.0,0.0,90.0,10.0,0.0
10818,66.0,0.0,90.0,11.0,0.0
10819,71.0,0.0,90.0,12.0,0.0
10820,63.0,120.0,90.0,11.0,0.0
10821,59.0,0.0,90.0,12.0,0.0
10822,83.0,0.0,90.0,10.0,0.0
10823,66.0,0.0,90.0,11.0,0.0
10824,71.0,0.0,90.0,12.0,0.0
10825,71.0,36.0,180.0,3.0,0.0
10826,59.0,0.0,180.0,3.0,0.0
10827,63.0,0.0,90.0,11.0,0.0
10828,66.0,84.0,90.0,11.0,0.0
10829,90.0,0.0,90.0,10.0,0.0
10830,59.0,0.0,90.0,12.0,0.0
10831,71.0,0.0,90.0,12.0,0.0
10832,59.0,0.0,90.0,12.0,0.0
10833,90.0,0.0,90.0,10.0,0.0
10834,66.0,72.0,90.0,11.0,0.0
10835,63.0,0.0,90.0,11.0,0.0
10836,71.0,0.0,90.0,12.0,0.0
10837,59.0,0.0,180.0,3.0,0.0
10838,63.0,0.0,90.0,11.0,0.0
10839,66.0,0.0,90.0,11.0,0.0
10840,59.0,84.0,90.0,12.0,0.0
10841,71.0,0.0,90.0,12.0,0.0
10842,71.0,36.0,180.0,3.0,0.0
10843,87.0,0.0,90.0,10.0,0.0
10844,71.0,0.0,90.0,12.0,0.0
10845,63.0,0.0,90.0,11.0,0.0
10846,87.0,120.0,90.0,10.0,0.0
10847,66.0,0.0,90.0,11.0,0.0
10848,59.0,0.0,90.0,12.0,0.0
10849,59.0,0.0,90.0,12.0,0.0
10850,71.0,0.0,90.0,12.0,0.0
10851,83.0,0.0,90.0,10.0,0.0
10852,59.0,0.0,180.0,3.0,0.0
10853,63.0,0.0,390.0,2.0,0.0
10854,63.0,0.0,90.0,11.0,0.0
10855,78.0,0.0,390.0,1.0,0.0
10856,81.0,0.0,390.0,1.0,0.0
10857,93.0,0.0,390.0,0.0,0.0
10858,71.0,36.0,180.0,3.0,0.0
10859,66.0,36.0,390.0,2.0,0.0
10860,66.0,84.0,90.0,11.0,0.0
10861,63.0,0.0,90.0,11.0,0.0
10862,66.0,0.0,90.0,11.0,0.0
10863,83.0,120.0,90.0,10.0,0.0
10864,59.0,0.0,90.0,12.0,0.0
10865,71.0,0.0,90.0,12.0,0.0
10866,59.0,36.0,180.0,3.0,0.0
10867,71.0,0.0,180.0,3.0,0.0
10868,81.0,48.0,90.0,10.0,0.0
10869,71.0,0.0,90.0,12.0,0.0
10870,63.0,0.0,90.0,11.0,0.0
10871,66.0,0.0,90.0,11.0,0.0
10872,59.0,0.0,90.0,12.0,0.0
10873,71.0,0.0,90.0,12.0,0.0
10874,66.0,0.0,90.0,11.0,0.0
10875,59.0,0.0,90.0,12.0,0.0
10876,63.0,0.0,90.0,11.0,0.0
10877,81.0,120.0,90.0,10.0,0.0
10878,59.0,0.0,360.0,3.0,0.0
10879,64.0,48.0,780.0,2.0,0.0
10880,91.0,0.0,780.0,0.0,0.0
10881,71.0,0.0,90.0,12.0,0.0
10882,67.0,0.0,780.0,2.0,0.0
10883,79.0,0.0,90.0,10.0,0.0
10884,71.0,24.0,360.0,3.0,0.0
10885,83.0,72.0,390.0,4.0,0.0
10886,64.0,0.0,90.0,11.0,0.0
10887,76.0,0.0,780.0,1.0,0.0
10888,79.0,0.0,780.0,1.0,0.0
10889,67.0,0.0,90.0,11.0,0.0
10890,59.0,120.0,90.0,12.0,0.0
10891,71.0,0.0,390.0,4.0,0.0
10892,59.0,120.0,90.0,12.0,0.0
10893,71.0,0.0,90.0,12.0,0.0
10894,79.0,0.0,90.0,10.0,0.0
10895,64.0,0.0,90.0,11.0,0.0
10896,67.0,0.0,90.0,11.0,0.0
10897,83.0,0.0,90.0,10.0,0.0
10898,67.0,24.0,90.0,11.0,0.0
10899,64.0,0.0,90.0,11.0,0.0
10900,59.0,0.0,90.0,12.0,0.0
10901,71.0,0.0,90.0,12.0,0.0
10902,71.0,0.0,90.0,12.0,0.0
10903,67.0,120.0,90.0,11.0,0.0
10904,59.0,0.0,90.0,12.0,0.0
10905,64.0,0.0,90.0,11.0,0.0
10906,83.0,0.0,90.0,10.0,0.0
10907,88.0,84.0,90.0,10.0,0.0
10908,71.0,36.0,180.0,3.0,0.0
10909,67.0,0.0,90.0,11.0,0.0
10910,64.0,0.0,90.0,11.0,0.0
10911,59.0,0.0,90.0,12.0,0.0
10912,71.0,0.0,90.0,12.0,0.0
10913,59.0,0.0,180.0,3.0,0.0
10914,71.0,0.0,90.0,12.0,0.0
10915,59.0,72.0,90.0,12.0,0.0
10916,88.0,0.0,90.0,10.0,0.0
10917,67.0,0.0,90.0,11.0,0.0
10918,64.0,0.0,90.0,11.0,0.0
10919,71.0,36.0,180.0,3.0,0.0
10920,71.0,0.0,90.0,12.0,0.0
10921,64.0,0.0,90.0,11.0,0.0
10922,59.0,0.0,90.0,12.0,0.0
10923,59.0,0.0,180.0,3.0,0.0
10924,83.0,84.0,90.0,10.0,0.0
10925,67.0,0.0,90.0,11.0,0.0
10926,64.0,0.0,90.0,11.0,0.0
10927,71.0,0.0,90.0,12.0,0.0
10928,59.0,0.0,90.0,12.0,0.0
10929,67.0,0.0,90.0,11.0,0.0
10930,83.0,120.0,90.0,10.0,0.0
10931,64.0,12.0,390.0,2.0,0.0
10932,67.0,0.0,90.0,11.0,0.0
10933,76.0,0.0,390.0,1.0,0.0
10934,71.0,36.0,180.0,3.0,0.0
10935,59.0,0.0,150.0,12.0,0.0
10936,88.0,0.0,390.0,0.0,0.0
10937,64.0,0.0,90.0,11.0,0.0
10938,59.0,0.0,180.0,3.0,0.0
10939,79.0,60.0,90.0,10.0,0.0
10940,71.0,24.0,150.0,12.0,0.0
10941,64.0,0.0,90.0,11.0,0.0
10942,79.0,120.0,90.0,10.0,0.0
10943,67.0,0.0,90.0,11.0,0.0
10944,76.0,48.0,90.0,11.0,0.0
10945,64.0,0.0,210.0,13.0,0.0
10946,76.0,24.0,150.0,12.0,0.0
10947,71.0,24.0,180.0,3.0,0.0
10948,59.0,0.0,180.0,3.0,0.0
10949,76.0,0.0,90.0,10.0,0.0
10950,52.0,12.0,210.0,14.0,0.0
10951,76.0,120.0,90.0,10.0,0.0
10952,76.0,0.0,90.0,11.0,0.0
10953,71.0,0.0,390.0,3.0,0.0
10954,59.0,0.0,390.0,3.0,0.0
10955,75.0,0.0,90.0,11.0,0.0
10956,75.0,96.0,90.0,10.0,0.0
10957,71.0,0.0,390.0,4.0,0.0
10958,83.0,48.0,390.0,4.0,0.0
10959,87.0,0.0,180.0,0.0,0.0
10960,63.0,0.0,180.0,2.0,0.0
10961,51.0,24.0,180.0,14.0,0.0
10962,63.0,0.0,180.0,13.0,0.0
10963,75.0,0.0,180.0,12.0,0.0
10964,75.0,0.0,180.0,1.0,0.0
10965,75.0,120.0,90.0,10.0,0.0
10966,75.0,0.0,90.0,11.0,0.0
10967,59.0,0.0,180.0,2.0,0.0
10968,47.0,0.0,180.0,14.0,0.0
10969,83.0,0.0,180.0,0.0,0.0
10970,71.0,0.0,180.0,12.0,0.0
10971,71.0,0.0,90.0,11.0,0.0
10972,71.0,0.0,180.0,1.0,0.0
10973,59.0,24.0,180.0,13.0,0.0
10974,71.0,48.0,90.0,10.0,0.0
10975,71.0,0.0,90.0,11.0,0.0
10976,71.0,120.0,90.0,10.0,0.0
10977,66.0,0.0,180.0,2.0,0.0
10978,78.0,0.0,180.0,1.0,0.0
10979,78.0,96.0,90.0,11.0,0.0
10980,54.0,0.0,180.0,14.0,0.0
10981,78.0,0.0,180.0,12.0,0.0
10982,66.0,0.0,180.0,13.0,0.0
10983,90.0,24.0,180.0,0.0,0.0
10984,78.0,0.0,90.0,10.0,0.0
10985,78.0,0.0,90.0,11.0,0.0
10986,78.0,120.0,90.0,10.0,0.0
10987,75.0,0.0,90.0,10.0,0.0
10988,51.0,0.0,180.0,14.0,0.0
10989,75.0,96.0,90.0,11.0,0.0
10990,63.0,0.0,180.0,13.0,0.0
10991,75.0,0.0,180.0,1.0,0.0
10992,75.0,0.0,180.0,12.0,0.0
10993,87.0,24.0,180.0,0.0,0.0
10994,63.0,0.0,180.0,2.0,0.0
10995,75.0,0.0,90.0,11.0,0.0
10996,75.0,120.0,90.0,10.0,0.0
10997,71.0,0.0,90.0,10.0,0.0
10998,71.0,0.0,180.0,12.0,0.0
10999,83.0,0.0,180.0,0.0,0.0
11000,59.0,0.0,180.0,2.0,0.0
11001,71.0,24.0,180.0,1.0,0.0
11002,47.0,0.0,180.0,14.0,0.0
11003,71.0,96.0,90.0,11.0,0.0
11004,59.0,0.0,180.0,13.0,0.0
11005,71.0,120.0,90.0,11.0,0.0
11006,71.0,0.0,90.0,10.0,0.0
11007,45.0,0.0,180.0,14.0,0.0
11008,57.0,0.0,180.0,13.0,0.0
11009,69.0,0.0,180.0,12.0,0.0
11010,81.0,0.0,180.0,0.0,0.0
11011,69.0,0.0,90.0,10.0,0.0
11012,69.0,96.0,90.0,11.0,0.0
11013,57.0,0.0,180.0,2.0,0.0
11014,69.0,24.0,180.0,1.0,0.0
11015,69.0,120.0,90.0,10.0,0.0
11016,69.0,0.0,90.0,11.0,0.0
11017,67.0,0.0,180.0,1.0,0.0
11018,55.0,0.0,180.0,2.0,0.0
11019,67.0,96.0,90.0,10.0,0.0
11020,67.0,0.0,90.0,11.0,0.0
11021,79.0,0.0,180.0,0.0,0.0
11022,43.0,0.0,180.0,14.0,0.0
11023,67.0,0.0,180.0,12.0,0.0
11024,55.0,24.0,180.0,13.0,0.0
11025,67.0,0.0,90.0,10.0,0.0
11026,67.0,120.0,90.0,11.0,0.0
11027,71.0,0.0,180.0,1.0,0.0
11028,59.0,24.0,180.0,13.0,0.0
11029,83.0,0.0,180.0,0.0,0.0
11030,59.0,0.0,180.0,2.0,0.0
11031,47.0,0.0,180.0,14.0,0.0
11032,71.0,0.0,180.0,12.0,0.0
11033,71.0,96.0,90.0,10.0,0.0
11034,71.0,0.0,90.0,11.0,0.0
11035,71.0,0.0,90.0,10.0,0.0
11036,71.0,120.0,90.0,11.0,0.0
11037,76.0,0.0,90.0,11.0,0.0
11038,76.0,96.0,90.0,10.0,0.0
11039,64.0,0.0,180.0,13.0,0.0
11040,64.0,0.0,180.0,2.0,0.0
11041,52.0,0.0,180.0,14.0,0.0
11042,76.0,0.0,180.0,1.0,0.0
11043,88.0,24.0,180.0,0.0,0.0
11044,76.0,0.0,180.0,12.0,0.0
11045,76.0,120.0,90.0,10.0,0.0
11046,76.0,0.0,90.0,11.0,0.0
11047,71.0,0.0,90.0,11.0,0.0
11048,59.0,0.0,180.0,2.0,0.0
11049,71.0,0.0,180.0,12.0,0.0
11050,59.0,0.0,180.0,13.0,0.0
11051,71.0,96.0,90.0,10.0,0.0
11052,47.0,24.0,180.0,14.0,0.0
11053,83.0,0.0,180.0,0.0,0.0
11054,83.0,0.0,180.0,1.0,0.0
11055,71.0,0.0,180.0,1.0,0.0
11056,71.0,0.0,90.0,10.0,0.0
11057,71.0,120.0,90.0,11.0,0.0
11058,55.0,0.0,180.0,13.0,0.0
11059,67.0,0.0,180.0,1.0,0.0
11060,67.0,96.0,90.0,10.0,0.0
11061,55.0,0.0,180.0,2.0,0.0
11062,79.0,0.0,180.0,0.0,0.0
11063,43.0,0.0,180.0,14.0,0.0
11064,67.0,0.0,90.0,11.0,0.0
11065,67.0,24.0,180.0,12.0,0.0
11066,79.0,0.0,180.0,1.0,0.0
11067,67.0,120.0,90.0,10.0,0.0
11068,67.0,0.0,90.0,11.0,0.0
11069,76.0,0.0,180.0,0.0,0.0
11070,52.0,0.0,180.0,2.0,0.0
11071,52.0,0.0,180.0,13.0,0.0
11072,40.0,0.0,180.0,14.0,0.0
11073,64.0,96.0,90.0,10.0,0.0
11074,64.0,24.0,180.0,12.0,0.0
11075,64.0,0.0,90.0,11.0,0.0
11076,64.0,0.0,180.0,1.0,0.0
11077,76.0,0.0,180.0,1.0,0.0
11078,64.0,0.0,90.0,10.0,0.0
11079,64.0,120.0,90.0,11.0,0.0
11080,60.0,0.0,240.0,2.0,0.0
11081,57.0,0.0,240.0,2.0,0.0
11082,45.0,0.0,240.0,14.0,0.0
11083,57.0,0.0,240.0,13.0,0.0
11084,65.0,0.0,90.0,11.0,0.0
11085,77.0,0.0,240.0,1.0,0.0
11086,65.0,120.0,90.0,10.0,0.0
11087,89.0,96.0,240.0,0.0,0.0
11088,60.0,0.0,240.0,12.0,0.0
11089,65.0,0.0,90.0,11.0,0.0
11090,65.0,24.0,90.0,10.0,0.0
11091,64.0,96.0,90.0,11.0,0.0
11092,59.0,0.0,180.0,12.0,0.0
11093,76.0,0.0,240.0,1.0,0.0
11094,44.0,24.0,180.0,14.0,0.0
11095,59.0,96.0,240.0,2.0,0.0
11096,56.0,0.0,240.0,2.0,0.0
11097,64.0,0.0,90.0,10.0,0.0
11098,88.0,0.0,240.0,0.0,0.0
11099,56.0,0.0,180.0,13.0,0.0
11100,64.0,0.0,90.0,10.0,0.0
11101,64.0,24.0,90.0,11.0,0.0
11102,60.0,96.0,240.0,2.0,0.0
11103,57.0,0.0,240.0,2.0,0.0
11104,77.0,0.0,240.0,1.0,0.0
11105,45.0,0.0,240.0,14.0,0.0
11106,89.0,0.0,240.0,0.0,0.0
11107,60.0,0.0,240.0,12.0,0.0
11108,65.0,0.0,90.0,10.0,0.0
11109,57.0,0.0,240.0,13.0,0.0
11110,65.0,120.0,90.0,11.0,0.0
11111,65.0,0.0,90.0,11.0,0.0
11112,65.0,24.0,90.0,10.0,0.0
11113,44.0,24.0,180.0,14.0,0.0
11114,59.0,0.0,180.0,12.0,0.0
11115,76.0,0.0,240.0,1.0,0.0
11116,88.0,0.0,240.0,0.0,0.0
11117,56.0,0.0,180.0,13.0,0.0
11118,59.0,96.0,240.0,2.0,0.0
11119,56.0,0.0,240.0,2.0,0.0
11120,64.0,96.0,90.0,11.0,0.0
11121,64.0,0.0,90.0,10.0,0.0
11122,64.0,24.0,90.0,11.0,0.0
11123,64.0,0.0,90.0,10.0,0.0
11124,89.0,0.0,240.0,0.0,0.0
11125,60.0,0.0,240.0,2.0,0.0
11126,57.0,0.0,240.0,13.0,0.0
11127,65.0,120.0,90.0,10.0,0.0
11128,77.0,96.0,240.0,1.0,0.0
11129,65.0,0.0,90.0,11.0,0.0
11130,45.0,0.0,240.0,14.0,0.0
11131,57.0,0.0,240.0,2.0,0.0
11132,60.0,0.0,240.0,12.0,0.0
11133,65.0,0.0,90.0,10.0,0.0
11134,65.0,24.0,90.0,11.0,0.0
11135,64.0,96.0,90.0,10.0,0.0
11136,88.0,0.0,240.0,0.0,0.0
11137,64.0,0.0,90.0,11.0,0.0
11138,56.0,0.0,180.0,13.0,0.0
11139,56.0,0.0,240.0,2.0,0.0
11140,44.0,24.0,180.0,14.0,0.0
11141,59.0,0.0,180.0,12.0,0.0
11142,59.0,0.0,240.0,2.0,0.0
11143,76.0,156.0,240.0,1.0,0.0
11144,64.0,0.0,90.0,10.0,0.0
11145,64.0,24.0,90.0,11.0,0.0
11146,45.0,0.0,390.0,14.0,0.0
11147,60.0,0.0,390.0,12.0,0.0
11148,57.0,0.0,390.0,2.0,0.0
11149,77.0,12.0,390.0,1.0,0.0
11150,60.0,0.0,390.0,2.0,0.0
11151,65.0,0.0,150.0,10.0,0.0
11152,65.0,228.0,150.0,11.0,0.0
11153,57.0,0.0,390.0,13.0,0.0
11154,89.0,0.0,390.0,0.0,0.0
11155,69.0,0.0,150.0,11.0,0.0
11156,69.0,240.0,150.0,10.0,0.0
11157,72.0,0.0,150.0,11.0,0.0
11158,72.0,240.0,150.0,10.0,0.0
11159,77.0,0.0,150.0,11.0,0.0
11160,77.0,240.0,150.0,10.0,0.0
11161,81.0,240.0,150.0,10.0,0.0
11162,81.0,0.0,150.0,11.0,0.0
11163,84.0,180.0,150.0,11.0,0.0
11164,84.0,0.0,150.0,10.0,0.0
11165,59.0,96.0,240.0,13.0,0.0
11166,92.0,0.0,240.0,0.0,0.0
11167,59.0,0.0,240.0,2.0,0.0
11168,62.0,0.0,240.0,12.0,0.0
11169,80.0,0.0,240.0,1.0,0.0
11170,68.0,0.0,90.0,10.0,0.0
11171,62.0,0.0,240.0,2.0,0.0
11172,68.0,120.0,90.0,11.0,0.0
11173,47.0,0.0,240.0,14.0,0.0
11174,68.0,0.0,90.0,11.0,0.0
11175,68.0,24.0,90.0,10.0,0.0
11176,93.0,96.0,240.0,0.0,0.0
11177,64.0,0.0,180.0,12.0,0.0
11178,81.0,0.0,240.0,1.0,0.0
11179,69.0,96.0,90.0,10.0,0.0
11180,60.0,0.0,240.0,2.0,0.0
11181,48.0,0.0,180.0,14.0,0.0
11182,64.0,0.0,240.0,2.0,0.0
11183,60.0,24.0,180.0,13.0,0.0
11184,69.0,0.0,90.0,11.0,0.0
11185,69.0,24.0,90.0,11.0,0.0
11186,69.0,0.0,90.0,10.0,0.0
11187,80.0,0.0,240.0,1.0,0.0
11188,47.0,96.0,240.0,14.0,0.0
11189,68.0,120.0,90.0,11.0,0.0
11190,59.0,0.0,240.0,13.0,0.0
11191,62.0,0.0,240.0,2.0,0.0
11192,62.0,0.0,240.0,12.0,0.0
11193,68.0,0.0,90.0,10.0,0.0
11194,92.0,0.0,240.0,0.0,0.0
11195,59.0,0.0,240.0,2.0,0.0
11196,68.0,24.0,90.0,11.0,0.0
11197,68.0,0.0,90.0,10.0,0.0
11198,60.0,24.0,180.0,13.0,0.0
11199,69.0,0.0,90.0,11.0,0.0
11200,81.0,0.0,240.0,1.0,0.0
11201,64.0,0.0,240.0,2.0,0.0
11202,60.0,96.0,240.0,2.0,0.0
11203,69.0,96.0,90.0,10.0,0.0
11204,93.0,0.0,240.0,0.0,0.0
11205,48.0,0.0,180.0,14.0,0.0
11206,64.0,0.0,180.0,12.0,0.0
11207,69.0,0.0,90.0,11.0,0.0
11208,69.0,24.0,90.0,10.0,0.0
11209,59.0,0.0,240.0,2.0,0.0
11210,62.0,0.0,240.0,2.0,0.0
11211,47.0,0.0,240.0,14.0,0.0
11212,80.0,96.0,240.0,1.0,0.0
11213,62.0,0.0,240.0,12.0,0.0
11214,68.0,120.0,90.0,11.0,0.0
11215,59.0,0.0,240.0,13.0,0.0
11216,92.0,0.0,240.0,0.0,0.0
11217,68.0,0.0,90.0,10.0,0.0
11218,68.0,24.0,90.0,11.0,0.0
11219,68.0,0.0,90.0,10.0,0.0
11220,69.0,96.0,90.0,11.0,0.0
11221,64.0,0.0,240.0,2.0,0.0
11222,60.0,156.0,240.0,2.0,0.0
11223,69.0,0.0,90.0,10.0,0.0
11224,81.0,0.0,240.0,1.0,0.0
11225,64.0,0.0,180.0,12.0,0.0
11226,48.0,0.0,180.0,14.0,0.0
11227,93.0,0.0,240.0,0.0,0.0
11228,60.0,24.0,180.0,13.0,0.0
11229,69.0,24.0,90.0,10.0,0.0
11230,69.0,0.0,90.0,11.0,0.0
11231,92.0,12.0,390.0,0.0,0.0
11232,62.0,0.0,390.0,12.0,0.0
11233,80.0,0.0,390.0,1.0,0.0
11234,62.0,0.0,390.0,2.0,0.0
11235,59.0,0.0,390.0,2.0,0.0
11236,68.0,228.0,150.0,11.0,0.0
11237,68.0,0.0,150.0,10.0,0.0
11238,59.0,0.0,390.0,13.0,0.0
11239,47.0,0.0,390.0,14.0,0.0
11240,71.0,0.0,150.0,11.0,0.0
11241,71.0,240.0,150.0,10.0,0.0
11242,74.0,0.0,150.0,11.0,0.0
11243,74.0,240.0,150.0,10.0,0.0
11244,80.0,240.0,150.0,10.0,0.0
11245,80.0,0.0,150.0,11.0,0.0
11246,83.0,240.0,150.0,11.0,0.0
11247,83.0,0.0,150.0,10.0,0.0
11248,86.0,0.0,150.0,11.0,0.0
11249,86.0,180.0,150.0,10.0,0.0
11250,69.0,0.0,90.0,10.0,0.0
11251,48.0,96.0,240.0,14.0,0.0
11252,60.0,0.0,240.0,13.0,0.0
11253,64.0,0.0,240.0,2.0,0.0
11254,60.0,0.0,240.0,2.0,0.0
11255,81.0,0.0,240.0,1.0,0.0
11256,93.0,0.0,240.0,0.0,0.0
11257,64.0,0.0,240.0,12.0,0.0
11258,69.0,120.0,90.0,11.0,0.0
11259,69.0,0.0,90.0,10.0,0.0
11260,69.0,24.0,90.0,11.0,0.0
11261,65.0,0.0,240.0,2.0,0.0
11262,68.0,96.0,90.0,11.0,0.0
11263,65.0,0.0,180.0,12.0,0.0
11264,62.0,0.0,240.0,2.0,0.0
11265,62.0,0.0,180.0,13.0,0.0
11266,50.0,24.0,180.0,14.0,0.0
11267,92.0,0.0,240.0,0.0,0.0
11268,68.0,0.0,90.0,10.0,0.0
11269,80.0,96.0,240.0,1.0,0.0
11270,68.0,0.0,90.0,11.0,0.0
11271,68.0,24.0,90.0,10.0,0.0
11272,93.0,0.0,240.0,0.0,0.0
11273,69.0,0.0,90.0,11.0,0.0
11274,64.0,0.0,240.0,2.0,0.0
11275,60.0,0.0,240.0,2.0,0.0
11276,81.0,96.0,240.0,1.0,0.0
11277,48.0,0.0,240.0,14.0,0.0
11278,64.0,0.0,240.0,12.0,0.0
11279,69.0,120.0,90.0,10.0,0.0
11280,60.0,0.0,240.0,13.0,0.0
11281,69.0,0.0,90.0,11.0,0.0
11282,69.0,24.0,90.0,10.0,0.0
11283,62.0,0.0,180.0,13.0,0.0
11284,92.0,96.0,240.0,0.0,0.0
11285,68.0,96.0,90.0,10.0,0.0
11286,65.0,24.0,180.0,12.0,0.0
11287,80.0,0.0,240.0,1.0,0.0
11288,68.0,0.0,90.0,11.0,0.0
11289,50.0,0.0,180.0,14.0,0.0
11290,62.0,0.0,240.0,2.0,0.0
11291,65.0,0.0,240.0,2.0,0.0
11292,68.0,24.0,90.0,11.0,0.0
11293,68.0,0.0,90.0,10.0,0.0
11294,64.0,96.0,240.0,12.0,0.0
11295,69.0,120.0,90.0,10.0,0.0
11296,60.0,0.0,240.0,2.0,0.0
11297,69.0,0.0,90.0,11.0,0.0
11298,81.0,0.0,240.0,1.0,0.0
11299,60.0,0.0,240.0,13.0,0.0
11300,64.0,0.0,240.0,2.0,0.0
11301,48.0,0.0,240.0,14.0,0.0
11302,93.0,0.0,240.0,0.0,0.0
11303,69.0,0.0,90.0,11.0,0.0
11304,69.0,24.0,90.0,10.0,0.0
11305,65.0,156.0,240.0,2.0,0.0
11306,62.0,0.0,240.0,2.0,0.0
11307,65.0,0.0,180.0,12.0,0.0
11308,68.0,0.0,90.0,11.0,0.0
11309,62.0,0.0,180.0,13.0,0.0
11310,92.0,0.0,240.0,0.0,0.0
11311,68.0,96.0,90.0,10.0,0.0
11312,80.0,0.0,240.0,1.0,0.0
11313,50.0,24.0,180.0,14.0,0.0
11314,68.0,0.0,90.0,11.0,0.0
11315,68.0,24.0,90.0,10.0,0.0
11316,64.0,0.0,390.0,12.0,0.0
11317,81.0,0.0,390.0,1.0,0.0
11318,48.0,12.0,390.0,14.0,0.0
11319,64.0,0.0,390.0,2.0,0.0
11320,93.0,0.0,390.0,0.0,0.0
11321,60.0,0.0,390.0,13.0,0.0
11322,60.0,0.0,390.0,2.0,0.0
11323,69.0,0.0,150.0,11.0,0.0
11324,69.0,228.0,150.0,10.0,0.0
11325,72.0,240.0,150.0,10.0,0.0
11326,72.0,0.0,150.0,11.0,0.0
11327,76.0,0.0,150.0,10.0,0.0
11328,76.0,240.0,150.0,11.0,0.0
11329,81.0,0.0,150.0,11.0,0.0
11330,81.0,240.0,150.0,10.0,0.0
11331,84.0,0.0,150.0,10.0,0.0
11332,84.0,240.0,150.0,11.0,0.0
11333,88.0,0.0,150.0,11.0,0.0
11334,88.0,240.0,150.0,10.0,0.0
11335,70.0,228.0,150.0,11.0,0.0
11336,61.0,0.0,390.0,13.0,0.0
11337,64.0,0.0,390.0,12.0,0.0
11338,70.0,0.0,150.0,10.0,0.0
11339,61.0,0.0,390.0,2.0,0.0
11340,94.0,0.0,390.0,0.0,0.0
11341,49.0,12.0,390.0,14.0,0.0
11342,82.0,0.0,390.0,1.0,0.0
11343,64.0,0.0,390.0,2.0,0.0
11344,73.0,240.0,150.0,11.0,0.0
11345,73.0,0.0,150.0,10.0,0.0
11346,76.0,0.0,150.0,10.0,0.0
11347,76.0,240.0,150.0,11.0,0.0
11348,82.0,0.0,150.0,10.0,0.0
11349,82.0,240.0,150.0,11.0,0.0
11350,85.0,0.0,150.0,11.0,0.0
11351,85.0,240.0,150.0,10.0,0.0
11352,88.0,348.0,150.0,11.0,0.0
11353,88.0,0.0,150.0,10.0,0.0
11354,95.0,0.0,270.0,0.0,0.0
11355,59.0,0.0,270.0,11.0,0.0
11356,59.0,0.0,270.0,2.0,0.0
11357,83.0,0.0,270.0,1.0,0.0
11358,59.0,480.0,270.0,10.0,0.0
11359,76.0,0.0,270.0,11.0,0.0
11360,64.0,0.0,270.0,2.0,0.0
11361,67.0,0.0,270.0,2.0,0.0
11362,83.0,0.0,270.0,4.0,0.0
11363,71.0,0.0,270.0,4.0,0.0
11364,71.0,0.0,270.0,12.0,0.0
11365,71.0,0.0,270.0,3.0,0.0
11366,59.0,480.0,270.0,3.0,0.0
11367,47.0,0.0,270.0,14.0,0.0
11368,79.0,0.0,270.0,1.0,0.0
11369,76.0,0.0,270.0,1.0,0.0
11370,59.0,0.0,270.0,13.0,0.0
11371,91.0,0.0,270.0,0.0,0.0
11372,79.0,0.0,270.0,10.0,0.0
11373,71.0,0.0,270.0,3.0,0.0
11374,59.0,0.0,270.0,3.0,0.0
11375,35.0,0.0,270.0,14.0,0.0
11376,83.0,0.0,270.0,4.0,0.0
11377,71.0,0.0,270.0,4.0,0.0
11378,59.0,0.0,270.0,12.0,0.0
11379,78.0,0.0,270.0,1.0,0.0
11380,78.0,0.0,270.0,10.0,0.0
11381,66.0,0.0,270.0,2.0,0.0
11382,63.0,0.0,270.0,2.0,0.0
11383,47.0,0.0,270.0,13.0,0.0
11384,90.0,2616.0,270.0,0.0,0.0
11385,75.0,0.0,270.0,11.0,0.0
11386,75.0,0.0,270.0,1.0,0.0
11387,68.0,0.0,1440.0,2.0,0.0
11388,83.0,960.0,1440.0,1.0,0.0
11389,86.0,0.0,1440.0,1.0,0.0
11390,77.0,240.0,480.0,0.0,0.0
11391,76.0,240.0,240.0,0.0,0.0
11392,67.0,0.0,1440.0,2.0,0.0
11393,85.0,0.0,1440.0,1.0,0.0
11394,76.0,960.0,1440.0,1.0,0.0
11395,82.0,240.0,480.0,0.0,0.0
11396,81.0,240.0,240.0,0.0,0.0
11397,81.0,0.0,1440.0,1.0,0.0
11398,66.0,384.0,1440.0,2.0,0.0
11399,84.0,0.0,1440.0,1.0,0.0
11400,87.0,240.0,480.0,0.0,0.0
11401,86.0,240.0,240.0,0.0,0.0
11402,55.0,576.0,390.0,13.0,0.0
11403,43.0,0.0,390.0,14.0,0.0
11404,67.0,456.0,480.0,10.0,0.0
11405,71.0,984.0,450.0,10.0,0.0
11406,74.0,480.0,1920.0,10.0,0.0
11407,67.0,456.0,480.0,3.0,0.0
11408,55.0,0.0,480.0,3.0,0.0
11409,71.0,504.0,450.0,3.0,0.0
11410,59.0,0.0,450.0,3.0,0.0
11411,74.0,0.0,3270.0,3.0,0.0
11412,62.0,0.0,3270.0,3.0,0.0
11413,83.0,480.0,480.0,10.0,0.0
11414,81.0,864.0,480.0,10.0,0.0
11415,79.0,384.0,960.0,10.0,0.0
11416,72.0,0.0,390.0,11.0,0.0
11417,69.0,96.0,390.0,12.0,0.0
11418,72.0,480.0,390.0,11.0,0.0
11419,69.0,0.0,390.0,12.0,0.0
11420,78.0,0.0,390.0,10.0,0.0
11421,69.0,0.0,390.0,12.0,0.0
11422,50.0,0.0,390.0,13.0,0.0
11423,72.0,576.0,390.0,11.0,0.0
11424,38.0,0.0,390.0,14.0,0.0
11425,78.0,384.0,480.0,10.0,0.0
11426,81.0,1056.0,390.0,10.0,0.0
11427,74.0,480.0,1920.0,10.0,0.0
11428,54.0,384.0,480.0,2.0,0.0
11429,66.0,0.0,480.0,2.0,0.0
11430,57.0,576.0,390.0,2.0,0.0
11431,69.0,0.0,390.0,2.0,0.0
11432,50.0,192.0,2580.0,2.0,0.0
11433,62.0,0.0,2580.0,2.0,0.0
11434,66.0,0.0,480.0,10.0,0.0
11435,62.0,480.0,480.0,11.0,0.0
11436,69.0,0.0,480.0,10.0,0.0
11437,66.0,864.0,480.0,11.0,0.0
11438,72.0,192.0,960.0,10.0,0.0
11439,69.0,0.0,960.0,11.0,0.0
11440,54.0,0.0,480.0,13.0,0.0
11441,62.0,96.0,390.0,12.0,0.0
11442,42.0,0.0,480.0,14.0,0.0
11443,55.0,0.0,390.0,13.0,0.0
11444,43.0,0.0,390.0,14.0,0.0
11445,62.0,480.0,390.0,12.0,0.0
11446,71.0,0.0,390.0,10.0,0.0
11447,67.0,0.0,390.0,11.0,0.0
11448,48.0,576.0,390.0,13.0,0.0
11449,64.0,0.0,390.0,11.0,0.0
11450,36.0,0.0,390.0,14.0,0.0
11451,60.0,0.0,390.0,12.0,0.0
11452,69.0,384.0,480.0,10.0,0.0
11453,76.0,960.0,390.0,10.0,0.0
11454,66.0,384.0,960.0,10.0,0.0
11455,62.0,96.0,390.0,11.0,0.0
11456,48.0,0.0,480.0,13.0,0.0
11457,36.0,0.0,480.0,14.0,0.0
11458,57.0,0.0,480.0,12.0,0.0
11459,62.0,0.0,390.0,11.0,0.0
11460,47.0,480.0,390.0,13.0,0.0
11461,67.0,0.0,390.0,10.0,0.0
11462,35.0,0.0,390.0,14.0,0.0
11463,59.0,0.0,390.0,12.0,0.0
11464,64.0,576.0,390.0,11.0,0.0
11465,36.0,0.0,390.0,14.0,0.0
11466,60.0,0.0,390.0,12.0,0.0
11467,48.0,0.0,390.0,13.0,0.0
11468,81.0,0.0,480.0,10.0,0.0
11469,69.0,384.0,480.0,11.0,0.0
11470,76.0,0.0,390.0,11.0,0.0
11471,88.0,960.0,390.0,10.0,0.0
11472,78.0,0.0,960.0,10.0,0.0
11473,66.0,0.0,960.0,11.0,0.0
11474,60.0,0.0,480.0,13.0,0.0
11475,62.0,96.0,390.0,12.0,0.0
11476,48.0,384.0,480.0,14.0,0.0
11477,67.0,384.0,480.0,11.0,0.0
11478,47.0,96.0,390.0,14.0,0.0
11479,79.0,0.0,480.0,10.0,0.0
11480,62.0,0.0,390.0,12.0,0.0
11481,59.0,0.0,390.0,13.0,0.0
11482,42.0,0.0,960.0,14.0,0.0
11483,62.0,96.0,390.0,12.0,0.0
11484,54.0,0.0,960.0,13.0,0.0
11485,69.0,480.0,480.0,11.0,0.0
11486,81.0,0.0,480.0,10.0,0.0
11487,84.0,0.0,480.0,10.0,0.0
11488,74.0,144.0,1200.0,12.0,0.0
11489,81.0,384.0,480.0,11.0,0.0
11490,83.0,0.0,390.0,10.0,0.0
11491,79.0,240.0,480.0,11.0,0.0
11492,55.0,0.0,390.0,13.0,0.0
11493,43.0,96.0,390.0,14.0,0.0
11494,38.0,96.0,390.0,14.0,0.0
11495,50.0,0.0,390.0,13.0,0.0
11496,78.0,0.0,390.0,11.0,0.0
11497,81.0,0.0,390.0,10.0,0.0
11498,76.0,240.0,240.0,12.0,0.0
11499,74.0,240.0,240.0,12.0,0.0
11500,71.0,240.0,240.0,12.0,0.0
11501,72.0,240.0,240.0,12.0,0.0
11502,69.0,384.0,240.0,12.0,0.0
11503,67.0,576.0,390.0,12.0,0.0
11504,55.0,480.0,480.0,13.0,0.0
11505,43.0,0.0,480.0,14.0,0.0
11506,47.0,0.0,480.0,14.0,0.0
11507,59.0,960.0,480.0,13.0,0.0
11508,62.0,0.0,1920.0,13.0,0.0
11509,50.0,480.0,1920.0,14.0,0.0
11510,79.0,384.0,480.0,1.0,0.0
11511,67.0,0.0,480.0,1.0,0.0
11512,83.0,0.0,390.0,1.0,0.0
11513,71.0,576.0,390.0,1.0,0.0
11514,74.0,576.0,3270.0,1.0,0.0
11515,86.0,0.0,3270.0,1.0,0.0
11516,74.0,0.0,480.0,11.0,0.0
11517,71.0,480.0,480.0,13.0,0.0
11518,79.0,0.0,480.0,10.0,0.0
11519,74.0,0.0,480.0,12.0,0.0
11520,59.0,0.0,480.0,14.0,0.0
11521,57.0,480.0,480.0,14.0,0.0
11522,78.0,0.0,480.0,11.0,0.0
11523,81.0,0.0,480.0,10.0,0.0
11524,69.0,0.0,480.0,13.0,0.0
11525,72.0,0.0,480.0,12.0,0.0
11526,79.0,480.0,480.0,11.0,0.0
11527,83.0,240.0,960.0,10.0,0.0
11528,71.0,0.0,960.0,12.0,0.0
11529,67.0,0.0,960.0,13.0,0.0
11530,55.0,0.0,960.0,14.0,0.0
11531,80.0,0.0,480.0,11.0,0.0
11532,54.0,48.0,390.0,14.0,0.0
11533,81.0,0.0,390.0,11.0,0.0
11534,69.0,0.0,390.0,12.0,0.0
11535,66.0,0.0,390.0,13.0,0.0
11536,86.0,144.0,240.0,10.0,0.0
11537,84.0,432.0,180.0,10.0,0.0
11538,84.0,0.0,390.0,10.0,0.0
11539,81.0,0.0,390.0,11.0,0.0
11540,66.0,480.0,480.0,13.0,0.0
11541,54.0,0.0,480.0,14.0,0.0
11542,69.0,0.0,480.0,13.0,0.0
11543,57.0,960.0,480.0,14.0,0.0
11544,62.0,480.0,1920.0,13.0,0.0
11545,50.0,0.0,1920.0,14.0,0.0
11546,90.0,384.0,480.0,0.0,0.0
11547,78.0,0.0,480.0,1.0,0.0
11548,81.0,0.0,390.0,1.0,0.0
11549,93.0,576.0,390.0,0.0,0.0
11550,74.0,192.0,2580.0,1.0,0.0
11551,86.0,0.0,2580.0,0.0,0.0
11552,62.0,0.0,480.0,11.0,0.0
11553,74.0,0.0,480.0,10.0,0.0
11554,75.0,0.0,480.0,10.0,0.0
11555,60.0,0.0,480.0,12.0,0.0
11556,54.0,0.0,480.0,13.0,0.0
11557,63.0,0.0,480.0,11.0,0.0
11558,42.0,384.0,480.0,14.0,0.0
11559,76.0,0.0,480.0,10.0,0.0
11560,45.0,96.0,390.0,14.0,0.0
11561,57.0,0.0,390.0,13.0,0.0
11562,64.0,480.0,480.0,11.0,0.0
11563,72.0,0.0,390.0,12.0,0.0
11564,69.0,192.0,960.0,12.0,0.0
11565,48.0,0.0,960.0,14.0,0.0
11566,77.0,0.0,480.0,10.0,0.0
11567,60.0,0.0,960.0,13.0,0.0
11568,65.0,480.0,480.0,11.0,0.0
11569,78.0,0.0,480.0,10.0,0.0
11570,66.0,0.0,480.0,11.0,0.0
11571,67.0,0.0,390.0,11.0,0.0
11572,59.0,0.0,390.0,13.0,0.0
11573,71.0,0.0,390.0,12.0,0.0
11574,47.0,0.0,390.0,14.0,0.0
11575,79.0,1056.0,390.0,10.0,0.0
11576,72.0,240.0,1680.0,11.0,0.0
11577,84.0,0.0,1680.0,10.0,0.0
11578,57.0,0.0,480.0,13.0,0.0
11579,45.0,0.0,480.0,14.0,0.0
11580,64.0,384.0,480.0,12.0,0.0
11581,64.0,0.0,390.0,13.0,0.0
11582,52.0,336.0,390.0,14.0,0.0
11583,69.0,0.0,390.0,12.0,0.0
11584,62.0,48.0,1140.0,12.0,0.0
11585,42.0,192.0,960.0,14.0,0.0
11586,54.0,0.0,960.0,13.0,0.0
11587,83.0,0.0,240.0,10.0,0.0
11588,71.0,240.0,240.0,11.0,0.0
11589,72.0,240.0,240.0,11.0,0.0
11590,84.0,0.0,240.0,10.0,0.0
11591,74.0,0.0,240.0,11.0,0.0
11592,86.0,0.0,240.0,10.0,0.0
11593,55.0,48.0,390.0,13.0,0.0
11594,71.0,144.0,240.0,11.0,0.0
11595,43.0,0.0,390.0,14.0,0.0
11596,83.0,0.0,240.0,10.0,0.0
11597,67.0,1008.0,180.0,11.0,0.0
11598,79.0,0.0,180.0,10.0,0.0
11599,84.0,240.0,1680.0,10.0,0.0
11600,72.0,0.0,1680.0,11.0,0.0
11601,45.0,0.0,480.0,14.0,0.0
11602,57.0,0.0,480.0,13.0,0.0
11603,76.0,384.0,480.0,12.0,0.0
11604,72.0,336.0,390.0,12.0,0.0
11605,52.0,0.0,390.0,14.0,0.0
11606,64.0,0.0,390.0,13.0,0.0
11607,54.0,0.0,960.0,13.0,0.0
11608,42.0,0.0,960.0,14.0,0.0
11609,75.0,0.0,480.0,12.0,0.0
11610,71.0,240.0,240.0,11.0,0.0
11611,83.0,0.0,240.0,10.0,0.0
11612,74.0,96.0,390.0,12.0,0.0
11613,84.0,0.0,240.0,10.0,0.0
11614,72.0,144.0,240.0,11.0,0.0
11615,74.0,0.0,240.0,11.0,0.0
11616,86.0,240.0,240.0,10.0,0.0
11617,74.0,0.0,390.0,12.0,0.0
11618,83.0,0.0,240.0,10.0,0.0
11619,71.0,144.0,240.0,11.0,0.0
11620,55.0,0.0,390.0,13.0,0.0
11621,43.0,48.0,390.0,14.0,0.0
11622,67.0,240.0,180.0,11.0,0.0
11623,79.0,0.0,180.0,10.0,0.0
11624,60.0,0.0,390.0,13.0,0.0
11625,48.0,288.0,390.0,14.0,0.0
11626,75.0,0.0,180.0,11.0,0.0
11627,69.0,0.0,390.0,12.0,0.0
11628,78.0,192.0,180.0,10.0,0.0
11629,79.0,0.0,180.0,10.0,0.0
11630,76.0,480.0,180.0,11.0,0.0
11631,66.0,0.0,180.0,11.0,0.0
11632,69.0,480.0,180.0,10.0,0.0
11633,62.0,0.0,390.0,13.0,0.0
11634,68.0,0.0,180.0,11.0,0.0
11635,60.0,288.0,390.0,12.0,0.0
11636,71.0,192.0,180.0,10.0,0.0
11637,50.0,0.0,390.0,14.0,0.0
11638,72.0,480.0,180.0,10.0,0.0
11639,69.0,0.0,180.0,11.0,0.0
11640,66.0,0.0,180.0,10.0,0.0
11641,60.0,480.0,180.0,11.0,0.0
11642,59.0,0.0,1140.0,10.0,0.0
11643,55.0,192.0,180.0,2.0,0.0
11644,67.0,0.0,1140.0,4.0,0.0
11645,79.0,0.0,1140.0,4.0,0.0
11646,67.0,0.0,180.0,12.0,0.0
11647,79.0,0.0,1140.0,0.0,0.0
11648,55.0,0.0,180.0,13.0,0.0
11649,67.0,0.0,1140.0,10.0,0.0
11650,67.0,0.0,1140.0,11.0,0.0
11651,79.0,0.0,1140.0,1.0,0.0
11652,43.0,0.0,180.0,14.0,0.0
11653,55.0,48.0,390.0,5.0,0.0
11654,67.0,0.0,1140.0,3.0,0.0
11655,55.0,0.0,1140.0,3.0,0.0
11656,59.0,0.0,1140.0,11.0,0.0
11657,55.0,0.0,180.0,2.0,0.0
11658,43.0,240.0,180.0,14.0,0.0
11659,55.0,0.0,180.0,13.0,0.0
11660,67.0,0.0,180.0,12.0,0.0
11661,55.0,0.0,180.0,13.0,0.0
11662,67.0,0.0,180.0,12.0,0.0
11663,55.0,0.0,180.0,2.0,0.0
11664,43.0,240.0,180.0,14.0,0.0
11665,67.0,240.0,180.0,12.0,0.0
11666,43.0,0.0,180.0,14.0,0.0
11667,55.0,0.0,180.0,2.0,0.0
11668,55.0,0.0,180.0,13.0,0.0
11669,43.0,240.0,180.0,14.0,0.0
11670,67.0,0.0,180.0,12.0,0.0
11671,55.0,0.0,180.0,2.0,0.0
11672,55.0,0.0,180.0,13.0,0.0
11673,55.0,0.0,180.0,13.0,0.0
11674,67.0,0.0,180.0,12.0,0.0
11675,55.0,0.0,180.0,2.0,0.0
11676,43.0,240.0,180.0,14.0,0.0
11677,59.0,0.0,180.0,13.0,0.0
11678,55.0,48.0,390.0,5.0,0.0
11679,71.0,0.0,780.0,3.0,0.0
11680,59.0,0.0,780.0,3.0,0.0
11681,71.0,144.0,780.0,11.0,0.0
11682,83.0,0.0,780.0,0.0,0.0
11683,71.0,0.0,180.0,12.0,0.0
11684,83.0,0.0,780.0,4.0,0.0
11685,71.0,0.0,780.0,10.0,0.0
11686,83.0,0.0,780.0,1.0,0.0
11687,71.0,0.0,780.0,4.0,0.0
11688,59.0,0.0,180.0,2.0,0.0
11689,47.0,192.0,180.0,14.0,0.0
11690,59.0,240.0,180.0,13.0,0.0
11691,59.0,0.0,180.0,2.0,0.0
11692,47.0,0.0,180.0,14.0,0.0
11693,71.0,0.0,180.0,12.0,0.0
11694,59.0,0.0,180.0,2.0,0.0
11695,47.0,96.0,180.0,14.0,0.0
11696,71.0,0.0,180.0,12.0,0.0
11697,59.0,0.0,180.0,13.0,0.0
11698,71.0,0.0,180.0,12.0,0.0
11699,59.0,0.0,180.0,13.0,0.0
11700,47.0,0.0,180.0,14.0,0.0
11701,59.0,240.0,180.0,2.0,0.0
11702,67.0,0.0,180.0,12.0,0.0
11703,55.0,0.0,180.0,2.0,0.0
11704,67.0,0.0,390.0,11.0,0.0
11705,79.0,0.0,390.0,4.0,0.0
11706,67.0,0.0,390.0,4.0,0.0
11707,79.0,0.0,390.0,1.0,0.0
11708,79.0,0.0,390.0,0.0,0.0
11709,55.0,48.0,390.0,3.0,0.0
11710,43.0,0.0,180.0,14.0,0.0
11711,55.0,192.0,180.0,13.0,0.0
11712,67.0,0.0,390.0,3.0,0.0
11713,67.0,0.0,390.0,10.0,0.0
11714,67.0,0.0,180.0,12.0,0.0
11715,43.0,0.0,180.0,14.0,0.0
11716,55.0,0.0,180.0,2.0,0.0
11717,55.0,240.0,180.0,13.0,0.0
11718,50.0,0.0,180.0,13.0,0.0
11719,62.0,192.0,180.0,12.0,0.0
11720,50.0,48.0,390.0,5.0,0.0
11721,74.0,96.0,780.0,1.0,0.0
11722,50.0,0.0,1140.0,3.0,0.0
11723,62.0,0.0,780.0,11.0,0.0
11724,50.0,0.0,180.0,2.0,0.0
11725,62.0,0.0,1140.0,4.0,0.0
11726,74.0,0.0,1140.0,4.0,0.0
11727,62.0,0.0,1140.0,3.0,0.0
11728,74.0,0.0,780.0,0.0,0.0
11729,38.0,0.0,180.0,14.0,0.0
11730,62.0,0.0,780.0,10.0,0.0
11731,38.0,0.0,180.0,14.0,0.0
11732,62.0,0.0,180.0,12.0,0.0
11733,50.0,240.0,180.0,13.0,0.0
11734,50.0,0.0,180.0,2.0,0.0
11735,50.0,0.0,180.0,2.0,0.0
11736,62.0,0.0,180.0,12.0,0.0
11737,50.0,96.0,180.0,13.0,0.0
11738,50.0,48.0,390.0,5.0,0.0
11739,38.0,0.0,180.0,14.0,0.0
11740,50.0,0.0,180.0,2.0,0.0
11741,62.0,0.0,180.0,12.0,0.0
11742,50.0,0.0,180.0,13.0,0.0
11743,38.0,108.0,180.0,14.0,0.0
11744,48.0,48.0,180.0,13.0,0.0
11745,48.0,0.0,180.0,2.0,0.0
11746,74.0,0.0,60.0,1.0,0.0
11747,50.0,48.0,390.0,5.0,0.0
11748,36.0,0.0,180.0,14.0,0.0
11749,62.0,0.0,60.0,10.0,0.0
11750,62.0,0.0,60.0,11.0,0.0
11751,60.0,0.0,180.0,12.0,0.0
11752,74.0,60.0,60.0,0.0,0.0
11753,72.0,0.0,60.0,1.0,0.0
11754,60.0,60.0,60.0,11.0,0.0
11755,60.0,0.0,60.0,10.0,0.0
11756,72.0,0.0,60.0,0.0,0.0
11757,74.0,0.0,60.0,1.0,0.0
11758,62.0,0.0,60.0,11.0,0.0
11759,74.0,12.0,60.0,0.0,0.0
11760,62.0,0.0,60.0,10.0,0.0
11761,60.0,0.0,60.0,10.0,0.0
11762,60.0,0.0,60.0,11.0,0.0
11763,72.0,0.0,60.0,0.0,0.0
11764,72.0,120.0,60.0,1.0,0.0
11765,59.0,0.0,120.0,11.0,0.0
11766,71.0,24.0,120.0,1.0,0.0
11767,60.0,24.0,180.0,12.0,0.0
11768,36.0,0.0,180.0,14.0,0.0
11769,48.0,0.0,180.0,13.0,0.0
11770,59.0,0.0,120.0,10.0,0.0
11771,48.0,0.0,180.0,2.0,0.0
11772,71.0,0.0,120.0,0.0,0.0
11773,72.0,0.0,90.0,0.0,0.0
11774,60.0,120.0,90.0,11.0,0.0
11775,60.0,0.0,90.0,10.0,0.0
11776,72.0,0.0,90.0,1.0,0.0
11777,71.0,0.0,180.0,0.0,0.0
11778,55.0,48.0,390.0,5.0,0.0
11779,47.0,0.0,180.0,13.0,0.0
11780,59.0,24.0,180.0,12.0,0.0
11781,59.0,0.0,90.0,11.0,0.0
11782,59.0,96.0,90.0,10.0,0.0
11783,35.0,0.0,180.0,14.0,0.0
11784,71.0,0.0,180.0,1.0,0.0
11785,47.0,0.0,180.0,2.0,0.0
11786,59.0,0.0,90.0,11.0,0.0
11787,59.0,120.0,90.0,10.0,0.0
11788,50.0,0.0,180.0,2.0,0.0
11789,47.0,0.0,180.0,13.0,0.0
11790,62.0,0.0,180.0,1.0,0.0
11791,59.0,48.0,90.0,10.0,0.0
11792,74.0,0.0,180.0,1.0,0.0
11793,59.0,0.0,180.0,12.0,0.0
11794,59.0,0.0,90.0,11.0,0.0
11795,35.0,24.0,180.0,14.0,0.0
11796,86.0,0.0,180.0,0.0,0.0
11797,59.0,120.0,90.0,10.0,0.0
11798,59.0,0.0,90.0,11.0,0.0
11799,50.0,0.0,180.0,2.0,0.0
11800,71.0,96.0,90.0,10.0,0.0
11801,86.0,0.0,180.0,0.0,0.0
11802,71.0,48.0,390.0,3.0,0.0
11803,59.0,0.0,390.0,3.0,0.0
11804,71.0,0.0,90.0,11.0,0.0
11805,59.0,0.0,180.0,13.0,0.0
11806,71.0,0.0,390.0,4.0,0.0
11807,83.0,0.0,390.0,4.0,0.0
11808,62.0,24.0,180.0,1.0,0.0
11809,74.0,0.0,180.0,1.0,0.0
11810,71.0,0.0,180.0,12.0,0.0
11811,47.0,0.0,180.0,14.0,0.0
11812,71.0,120.0,90.0,10.0,0.0
11813,71.0,0.0,90.0,11.0,0.0
11814,71.0,0.0,180.0,12.0,0.0
11815,74.0,0.0,180.0,1.0,0.0
11816,62.0,0.0,180.0,1.0,0.0
11817,71.0,48.0,90.0,10.0,0.0
11818,86.0,0.0,180.0,0.0,0.0
11819,59.0,0.0,180.0,13.0,0.0
11820,50.0,0.0,180.0,2.0,0.0
11821,71.0,0.0,90.0,11.0,0.0
11822,47.0,24.0,180.0,14.0,0.0
11823,71.0,0.0,90.0,10.0,0.0
11824,71.0,120.0,90.0,11.0,0.0
11825,67.0,0.0,390.0,3.0,0.0
11826,43.0,0.0,180.0,14.0,0.0
11827,67.0,96.0,90.0,10.0,0.0
11828,55.0,0.0,390.0,3.0,0.0
11829,74.0,0.0,180.0,1.0,0.0
11830,67.0,48.0,390.0,4.0,0.0
11831,67.0,24.0,180.0,12.0,0.0
11832,62.0,0.0,180.0,1.0,0.0
11833,55.0,0.0,180.0,13.0,0.0
11834,79.0,0.0,390.0,4.0,0.0
11835,86.0,0.0,180.0,0.0,0.0
11836,67.0,0.0,90.0,11.0,0.0
11837,50.0,0.0,180.0,2.0,0.0
11838,67.0,0.0,90.0,11.0,0.0
11839,67.0,120.0,90.0,10.0,0.0
11840,67.0,48.0,90.0,10.0,0.0
11841,67.0,0.0,180.0,12.0,0.0
11842,55.0,24.0,180.0,13.0,0.0
11843,67.0,0.0,90.0,11.0,0.0
11844,50.0,0.0,180.0,2.0,0.0
11845,74.0,0.0,180.0,1.0,0.0
11846,86.0,0.0,180.0,0.0,0.0
11847,43.0,0.0,180.0,14.0,0.0
11848,62.0,0.0,180.0,1.0,0.0
11849,67.0,0.0,90.0,11.0,0.0
11850,67.0,120.0,90.0,10.0,0.0
11851,74.0,0.0,180.0,1.0,0.0
11852,62.0,96.0,90.0,10.0,0.0
11853,62.0,0.0,180.0,1.0,0.0
11854,50.0,0.0,180.0,13.0,0.0
11855,62.0,0.0,1140.0,3.0,0.0
11856,38.0,0.0,180.0,14.0,0.0
11857,62.0,0.0,90.0,11.0,0.0
11858,50.0,0.0,180.0,2.0,0.0
11859,50.0,0.0,1140.0,3.0,0.0
11860,62.0,0.0,1140.0,4.0,0.0
11861,74.0,0.0,1140.0,4.0,0.0
11862,62.0,0.0,180.0,12.0,0.0
11863,50.0,48.0,390.0,5.0,0.0
11864,86.0,24.0,180.0,0.0,0.0
11865,62.0,120.0,90.0,10.0,0.0
11866,62.0,0.0,90.0,11.0,0.0
11867,50.0,0.0,180.0,2.0,0.0
11868,62.0,48.0,90.0,10.0,0.0
11869,86.0,0.0,180.0,0.0,0.0
11870,50.0,0.0,180.0,13.0,0.0
11871,38.0,0.0,180.0,14.0,0.0
11872,62.0,0.0,180.0,12.0,0.0
11873,62.0,0.0,90.0,11.0,0.0
11874,62.0,24.0,180.0,1.0,0.0
11875,74.0,0.0,180.0,1.0,0.0
11876,62.0,120.0,90.0,11.0,0.0
11877,62.0,0.0,90.0,10.0,0.0
11878,37.0,0.0,180.0,14.0,0.0
11879,50.0,0.0,180.0,2.0,0.0
11880,61.0,0.0,180.0,12.0,0.0
11881,74.0,0.0,180.0,1.0,0.0
11882,62.0,24.0,180.0,1.0,0.0
11883,49.0,0.0,180.0,13.0,0.0
11884,86.0,0.0,180.0,0.0,0.0
11885,61.0,0.0,90.0,11.0,0.0
11886,61.0,96.0,90.0,10.0,0.0
11887,50.0,48.0,390.0,5.0,0.0
11888,61.0,120.0,90.0,10.0,0.0
11889,61.0,0.0,90.0,11.0,0.0
11890,49.0,0.0,180.0,13.0,0.0
11891,62.0,0.0,180.0,1.0,0.0
11892,86.0,0.0,180.0,0.0,0.0
11893,74.0,0.0,180.0,1.0,0.0
11894,61.0,48.0,90.0,11.0,0.0
11895,61.0,0.0,90.0,10.0,0.0
11896,37.0,0.0,180.0,14.0,0.0
11897,50.0,24.0,180.0,2.0,0.0
11898,61.0,0.0,180.0,12.0,0.0
11899,61.0,120.0,90.0,10.0,0.0
11900,61.0,0.0,90.0,11.0,0.0
11901,60.0,0.0,90.0,10.0,0.0
11902,74.0,0.0,180.0,1.0,0.0
11903,62.0,0.0,180.0,1.0,0.0
11904,50.0,48.0,390.0,5.0,0.0
11905,48.0,24.0,180.0,13.0,0.0
11906,86.0,0.0,180.0,0.0,0.0
11907,60.0,96.0,90.0,11.0,0.0
11908,50.0,0.0,180.0,2.0,0.0
11909,36.0,0.0,180.0,14.0,0.0
11910,60.0,0.0,180.0,12.0,0.0
11911,60.0,0.0,90.0,11.0,0.0
11912,60.0,120.0,90.0,10.0,0.0
11913,60.0,48.0,90.0,10.0,0.0
11914,48.0,0.0,180.0,13.0,0.0
11915,36.0,0.0,180.0,14.0,0.0
11916,50.0,0.0,180.0,2.0,0.0
11917,60.0,0.0,180.0,12.0,0.0
11918,74.0,0.0,180.0,1.0,0.0
11919,86.0,24.0,180.0,0.0,0.0
11920,60.0,0.0,90.0,11.0,0.0
11921,62.0,0.0,180.0,1.0,0.0
11922,60.0,120.0,90.0,11.0,0.0
11923,60.0,0.0,90.0,10.0,0.0
11924,50.0,0.0,180.0,2.0,0.0
11925,59.0,96.0,90.0,11.0,0.0
11926,47.0,0.0,180.0,13.0,0.0
11927,35.0,0.0,180.0,14.0,0.0
11928,86.0,0.0,180.0,0.0,0.0
11929,50.0,0.0,390.0,3.0,0.0
11930,59.0,0.0,180.0,12.0,0.0
11931,74.0,0.0,180.0,1.0,0.0
11932,62.0,24.0,180.0,1.0,0.0
11933,55.0,0.0,390.0,5.0,0.0
11934,62.0,0.0,390.0,3.0,0.0
11935,74.0,0.0,390.0,4.0,0.0
11936,59.0,0.0,90.0,10.0,0.0
11937,62.0,48.0,390.0,4.0,0.0
11938,59.0,0.0,90.0,11.0,0.0
11939,59.0,120.0,90.0,10.0,0.0
11940,59.0,0.0,180.0,12.0,0.0
11941,86.0,0.0,180.0,0.0,0.0
11942,59.0,0.0,90.0,10.0,0.0
11943,50.0,0.0,180.0,2.0,0.0
11944,62.0,0.0,180.0,2.0,0.0
11945,35.0,0.0,180.0,14.0,0.0
11946,59.0,48.0,90.0,11.0,0.0
11947,86.0,0.0,180.0,1.0,0.0
11948,47.0,24.0,180.0,13.0,0.0
11949,74.0,0.0,180.0,1.0,0.0
11950,59.0,0.0,90.0,11.0,0.0
11951,59.0,120.0,90.0,10.0,0.0
11952,86.0,0.0,180.0,0.0,0.0
11953,55.0,48.0,390.0,3.0,0.0
11954,67.0,0.0,390.0,3.0,0.0
11955,79.0,0.0,390.0,4.0,0.0
11956,67.0,0.0,390.0,4.0,0.0
11957,43.0,24.0,180.0,14.0,0.0
11958,62.0,0.0,180.0,2.0,0.0
11959,67.0,0.0,180.0,12.0,0.0
11960,55.0,0.0,180.0,13.0,0.0
11961,67.0,0.0,90.0,11.0,0.0
11962,67.0,96.0,90.0,10.0,0.0
11963,74.0,0.0,180.0,1.0,0.0
11964,86.0,0.0,180.0,1.0,0.0
11965,50.0,0.0,180.0,2.0,0.0
11966,67.0,120.0,90.0,11.0,0.0
11967,67.0,0.0,90.0,10.0,0.0
11968,50.0,0.0,180.0,2.0,0.0
11969,86.0,24.0,180.0,1.0,0.0
11970,86.0,0.0,180.0,0.0,0.0
11971,74.0,0.0,180.0,1.0,0.0
11972,67.0,48.0,90.0,11.0,0.0
11973,67.0,0.0,180.0,12.0,0.0
11974,43.0,0.0,180.0,14.0,0.0
11975,55.0,0.0,180.0,13.0,0.0
11976,67.0,0.0,90.0,10.0,0.0
11977,62.0,0.0,180.0,2.0,0.0
11978,67.0,120.0,90.0,11.0,0.0
11979,67.0,0.0,90.0,10.0,0.0
11980,47.0,0.0,180.0,14.0,0.0
11981,62.0,0.0,180.0,2.0,0.0
11982,59.0,0.0,180.0,13.0,0.0
11983,83.0,0.0,390.0,4.0,0.0
11984,71.0,0.0,90.0,11.0,0.0
11985,50.0,0.0,180.0,2.0,0.0
11986,71.0,48.0,390.0,4.0,0.0
11987,59.0,0.0,390.0,3.0,0.0
11988,71.0,0.0,180.0,12.0,0.0
11989,86.0,0.0,180.0,0.0,0.0
11990,71.0,0.0,390.0,3.0,0.0
11991,71.0,96.0,90.0,10.0,0.0
11992,86.0,24.0,180.0,1.0,0.0
11993,74.0,0.0,180.0,1.0,0.0
11994,71.0,0.0,90.0,10.0,0.0
11995,71.0,120.0,90.0,11.0,0.0
11996,86.0,0.0,180.0,0.0,0.0
11997,71.0,0.0,90.0,10.0,0.0
11998,59.0,0.0,180.0,13.0,0.0
11999,71.0,0.0,180.0,12.0,0.0
12000,50.0,0.0,180.0,2.0,0.0
12001,86.0,0.0,180.0,1.0,0.0
12002,74.0,0.0,180.0,1.0,0.0
12003,62.0,24.0,180.0,2.0,0.0
12004,47.0,0.0,180.0,14.0,0.0
12005,71.0,48.0,90.0,11.0,0.0
12006,71.0,0.0,90.0,11.0,0.0
12007,71.0,120.0,90.0,10.0,0.0
12008,50.0,0.0,180.0,2.0,0.0
12009,74.0,0.0,90.0,10.0,0.0
12010,74.0,96.0,90.0,11.0,0.0
12011,86.0,0.0,180.0,1.0,0.0
12012,74.0,0.0,180.0,1.0,0.0
12013,50.0,0.0,390.0,5.0,0.0
12014,74.0,0.0,180.0,12.0,0.0
12015,62.0,0.0,180.0,2.0,0.0
12016,50.0,0.0,180.0,14.0,0.0
12017,62.0,0.0,180.0,13.0,0.0
12018,86.0,0.0,390.0,4.0,0.0
12019,74.0,0.0,390.0,4.0,0.0
12020,62.0,48.0,390.0,3.0,0.0
12021,74.0,0.0,390.0,3.0,0.0
12022,86.0,24.0,180.0,0.0,0.0
12023,74.0,120.0,90.0,10.0,0.0
12024,74.0,0.0,90.0,11.0,0.0
12025,74.0,0.0,90.0,11.0,0.0
12026,50.0,0.0,180.0,14.0,0.0
12027,74.0,0.0,180.0,1.0,0.0
12028,86.0,0.0,180.0,1.0,0.0
12029,74.0,48.0,90.0,10.0,0.0
12030,62.0,0.0,180.0,13.0,0.0
12031,86.0,0.0,180.0,0.0,0.0
12032,62.0,0.0,180.0,2.0,0.0
12033,50.0,0.0,180.0,2.0,0.0
12034,74.0,24.0,180.0,12.0,0.0
12035,74.0,0.0,90.0,10.0,0.0
12036,74.0,120.0,90.0,11.0,0.0
12037,49.0,0.0,180.0,14.0,0.0
12038,61.0,0.0,180.0,13.0,0.0
12039,86.0,0.0,390.0,4.0,0.0
12040,74.0,48.0,390.0,4.0,0.0
12041,62.0,0.0,390.0,3.0,0.0
12042,74.0,0.0,390.0,3.0,0.0
12043,74.0,0.0,180.0,1.0,0.0
12044,50.0,24.0,180.0,2.0,0.0
12045,86.0,0.0,180.0,1.0,0.0
12046,62.0,0.0,180.0,2.0,0.0
12047,86.0,0.0,180.0,0.0,0.0
12048,73.0,0.0,180.0,12.0,0.0
12049,50.0,0.0,390.0,5.0,0.0
12050,73.0,96.0,90.0,10.0,0.0
12051,73.0,0.0,90.0,11.0,0.0
12052,73.0,0.0,90.0,11.0,0.0
12053,73.0,120.0,90.0,10.0,0.0
12054,62.0,0.0,180.0,2.0,0.0
12055,73.0,48.0,90.0,11.0,0.0
12056,61.0,0.0,180.0,13.0,0.0
12057,73.0,0.0,90.0,10.0,0.0
12058,74.0,0.0,180.0,1.0,0.0
12059,49.0,24.0,180.0,14.0,0.0
12060,86.0,0.0,180.0,1.0,0.0
12061,73.0,0.0,180.0,12.0,0.0
12062,86.0,0.0,180.0,0.0,0.0
12063,50.0,0.0,180.0,2.0,0.0
12064,73.0,120.0,90.0,10.0,0.0
12065,73.0,0.0,90.0,11.0,0.0
12066,72.0,96.0,90.0,11.0,0.0
12067,62.0,0.0,180.0,2.0,0.0
12068,50.0,0.0,390.0,5.0,0.0
12069,74.0,0.0,180.0,1.0,0.0
12070,86.0,0.0,180.0,1.0,0.0
12071,72.0,0.0,90.0,10.0,0.0
12072,62.0,0.0,390.0,3.0,0.0
12073,74.0,0.0,390.0,3.0,0.0
12074,72.0,0.0,180.0,12.0,0.0
12075,74.0,48.0,390.0,4.0,0.0
12076,86.0,0.0,390.0,4.0,0.0
12077,48.0,24.0,180.0,14.0,0.0
12078,50.0,0.0,180.0,2.0,0.0
12079,60.0,0.0,180.0,13.0,0.0
12080,86.0,0.0,180.0,0.0,0.0
12081,72.0,0.0,90.0,10.0,0.0
12082,72.0,120.0,90.0,11.0,0.0
12083,86.0,24.0,180.0,1.0,0.0
12084,74.0,0.0,180.0,1.0,0.0
12085,72.0,0.0,90.0,10.0,0.0
12086,50.0,0.0,180.0,2.0,0.0
12087,48.0,0.0,180.0,14.0,0.0
12088,72.0,48.0,90.0,11.0,0.0
12089,62.0,0.0,180.0,2.0,0.0
12090,86.0,0.0,180.0,0.0,0.0
12091,60.0,0.0,180.0,13.0,0.0
12092,72.0,0.0,180.0,12.0,0.0
12093,72.0,204.0,90.0,10.0,0.0
12094,72.0,0.0,90.0,11.0,0.0
12095,55.0,36.0,390.0,5.0,0.0
12096,55.0,0.0,390.0,3.0,0.0
12097,71.0,204.0,180.0,11.0,0.0
12098,67.0,0.0,390.0,3.0,0.0
12099,74.0,0.0,390.0,1.0,0.0
12100,59.0,0.0,390.0,13.0,0.0
12101,71.0,0.0,180.0,10.0,0.0
12102,50.0,0.0,390.0,2.0,0.0
12103,71.0,0.0,390.0,12.0,0.0
12104,67.0,0.0,390.0,4.0,0.0
12105,79.0,0.0,390.0,4.0,0.0
12106,86.0,0.0,390.0,0.0,0.0
12107,47.0,0.0,390.0,14.0,0.0
12108,62.0,0.0,390.0,2.0,0.0
12109,86.0,0.0,390.0,1.0,0.0
12110,91.0,0.0,180.0,11.0,0.0
12111,91.0,240.0,180.0,10.0,0.0
12112,91.0,0.0,180.0,10.0,0.0
12113,91.0,240.0,180.0,11.0,0.0
12114,91.0,240.0,180.0,11.0,0.0
12115,91.0,0.0,180.0,10.0,0.0
12116,91.0,0.0,180.0,10.0,0.0
12117,91.0,240.0,180.0,11.0,0.0
12118,91.0,444.0,180.0,10.0,0.0
12119,91.0,0.0,180.0,11.0,0.0
12120,55.0,48.0,390.0,5.0,0.0
12121,79.0,0.0,390.0,4.0,0.0
12122,67.0,0.0,390.0,4.0,0.0
12123,91.0,24.0,1380.0,11.0,0.0
12124,91.0,0.0,1380.0,10.0,0.0
12125,91.0,0.0,180.0,0.0,0.0
12126,62.0,0.0,180.0,12.0,0.0
12127,59.0,0.0,180.0,2.0,0.0
12128,47.0,0.0,180.0,14.0,0.0
12129,62.0,0.0,180.0,2.0,0.0
12130,55.0,240.0,180.0,3.0,0.0
12131,86.0,0.0,180.0,1.0,0.0
12132,83.0,0.0,180.0,1.0,0.0
12133,67.0,0.0,180.0,3.0,0.0
12134,59.0,0.0,180.0,13.0,0.0
12135,47.0,240.0,180.0,14.0,0.0
12136,59.0,0.0,180.0,13.0,0.0
12137,86.0,0.0,180.0,1.0,0.0
12138,62.0,0.0,180.0,12.0,0.0
12139,55.0,0.0,180.0,3.0,0.0
12140,67.0,0.0,180.0,3.0,0.0
12141,62.0,0.0,180.0,2.0,0.0
12142,83.0,0.0,180.0,1.0,0.0
12143,59.0,0.0,180.0,2.0,0.0
12144,91.0,0.0,180.0,0.0,0.0
12145,47.0,240.0,180.0,14.0,0.0
12146,62.0,0.0,180.0,2.0,0.0
12147,59.0,0.0,180.0,2.0,0.0
12148,59.0,0.0,180.0,13.0,0.0
12149,67.0,0.0,180.0,3.0,0.0
12150,91.0,0.0,180.0,0.0,0.0
12151,83.0,0.0,180.0,1.0,0.0
12152,86.0,0.0,180.0,1.0,0.0
12153,55.0,0.0,180.0,3.0,0.0
12154,62.0,0.0,180.0,12.0,0.0
12155,47.0,216.0,180.0,14.0,0.0
12156,55.0,0.0,180.0,3.0,0.0
12157,59.0,0.0,180.0,13.0,0.0
12158,62.0,0.0,180.0,12.0,0.0
12159,67.0,0.0,180.0,3.0,0.0
12160,86.0,0.0,180.0,1.0,0.0
12161,83.0,0.0,180.0,1.0,0.0
12162,62.0,0.0,180.0,2.0,0.0
12163,59.0,0.0,180.0,2.0,0.0
12164,91.0,0.0,180.0,0.0,0.0
12165,55.0,0.0,180.0,3.0,0.0
12166,91.0,0.0,180.0,0.0,0.0
12167,67.0,0.0,180.0,3.0,0.0
12168,62.0,0.0,180.0,12.0,0.0
12169,83.0,0.0,180.0,1.0,0.0
12170,86.0,0.0,180.0,1.0,0.0
12171,62.0,0.0,180.0,2.0,0.0
12172,59.0,0.0,180.0,2.0,0.0
12173,47.0,0.0,180.0,14.0,0.0
12174,59.0,240.0,180.0,13.0,0.0
12175,84.0,0.0,180.0,1.0,0.0
12176,64.0,0.0,180.0,2.0,0.0
12177,60.0,0.0,180.0,2.0,0.0
12178,64.0,0.0,180.0,12.0,0.0
12179,48.0,0.0,180.0,14.0,0.0
12180,60.0,0.0,390.0,10.0,0.0
12181,60.0,48.0,390.0,11.0,0.0
12182,60.0,0.0,180.0,13.0,0.0
12183,91.0,192.0,180.0,0.0,0.0
12184,67.0,0.0,180.0,3.0,0.0
12185,55.0,0.0,180.0,3.0,0.0
12186,55.0,0.0,390.0,5.0,0.0
12187,67.0,0.0,390.0,4.0,0.0
12188,79.0,0.0,390.0,4.0,0.0
12189,81.0,0.0,180.0,1.0,0.0
12190,48.0,0.0,180.0,14.0,0.0
12191,67.0,0.0,180.0,3.0,0.0
12192,55.0,0.0,180.0,3.0,0.0
12193,64.0,0.0,180.0,2.0,0.0
12194,60.0,0.0,180.0,2.0,0.0
12195,64.0,0.0,180.0,12.0,0.0
12196,60.0,0.0,180.0,13.0,0.0
12197,84.0,240.0,180.0,1.0,0.0
12198,81.0,0.0,180.0,1.0,0.0
12199,91.0,0.0,180.0,0.0,0.0
12200,88.0,48.0,390.0,11.0,0.0
12201,88.0,0.0,390.0,10.0,0.0
12202,91.0,0.0,180.0,0.0,0.0
12203,48.0,0.0,180.0,14.0,0.0
12204,84.0,0.0,180.0,1.0,0.0
12205,81.0,0.0,180.0,1.0,0.0
12206,64.0,0.0,180.0,12.0,0.0
12207,67.0,0.0,180.0,3.0,0.0
12208,60.0,0.0,180.0,13.0,0.0
12209,64.0,192.0,180.0,2.0,0.0
12210,60.0,0.0,180.0,2.0,0.0
12211,55.0,0.0,180.0,3.0,0.0
12212,81.0,0.0,180.0,1.0,0.0
12213,55.0,0.0,180.0,3.0,0.0
12214,64.0,0.0,180.0,2.0,0.0
12215,67.0,240.0,180.0,3.0,0.0
12216,60.0,0.0,180.0,2.0,0.0
12217,48.0,0.0,180.0,14.0,0.0
12218,91.0,0.0,180.0,0.0,0.0
12219,60.0,0.0,180.0,13.0,0.0
12220,64.0,0.0,180.0,12.0,0.0
12221,84.0,0.0,180.0,1.0,0.0
12222,60.0,0.0,180.0,13.0,0.0
12223,91.0,0.0,180.0,0.0,0.0
12224,55.0,0.0,180.0,3.0,0.0
12225,64.0,0.0,180.0,2.0,0.0
12226,84.0,0.0,180.0,1.0,0.0
12227,60.0,0.0,180.0,2.0,0.0
12228,48.0,0.0,180.0,14.0,0.0
12229,64.0,240.0,180.0,12.0,0.0
12230,67.0,0.0,180.0,3.0,0.0
12231,81.0,0.0,180.0,1.0,0.0
12232,67.0,240.0,180.0,3.0,0.0
12233,55.0,0.0,180.0,3.0,0.0
12234,84.0,0.0,180.0,1.0,0.0
12235,81.0,0.0,180.0,1.0,0.0
12236,64.0,0.0,180.0,12.0,0.0
12237,60.0,0.0,180.0,13.0,0.0
12238,60.0,0.0,180.0,2.0,0.0
12239,91.0,0.0,180.0,0.0,0.0
12240,64.0,0.0,180.0,2.0,0.0
12241,48.0,0.0,180.0,14.0,0.0
12242,50.0,0.0,390.0,5.0,0.0
12243,62.0,0.0,390.0,10.0,0.0
12244,62.0,0.0,390.0,11.0,0.0
12245,66.0,0.0,180.0,12.0,0.0
12246,62.0,0.0,180.0,13.0,0.0
12247,84.0,0.0,180.0,1.0,0.0
12248,81.0,0.0,180.0,1.0,0.0
12249,50.0,192.0,180.0,3.0,0.0
12250,62.0,0.0,180.0,3.0,0.0
12251,90.0,0.0,180.0,0.0,0.0
12252,50.0,0.0,180.0,14.0,0.0
12253,62.0,48.0,390.0,4.0,0.0
12254,74.0,0.0,390.0,4.0,0.0
12255,66.0,0.0,180.0,2.0,0.0
12256,62.0,0.0,180.0,2.0,0.0
12257,50.0,0.0,180.0,14.0,0.0
12258,81.0,0.0,180.0,1.0,0.0
12259,84.0,240.0,180.0,1.0,0.0
12260,62.0,0.0,180.0,13.0,0.0
12261,66.0,0.0,180.0,12.0,0.0
12262,66.0,0.0,180.0,2.0,0.0
12263,62.0,0.0,180.0,3.0,0.0
12264,62.0,0.0,180.0,2.0,0.0
12265,90.0,0.0,180.0,0.0,0.0
12266,50.0,0.0,180.0,3.0,0.0
12267,90.0,240.0,180.0,0.0,0.0
12268,81.0,0.0,180.0,1.0,0.0
12269,62.0,0.0,180.0,3.0,0.0
12270,62.0,0.0,180.0,13.0,0.0
12271,50.0,0.0,180.0,14.0,0.0
12272,66.0,0.0,180.0,12.0,0.0
12273,62.0,0.0,180.0,2.0,0.0
12274,66.0,0.0,180.0,2.0,0.0
12275,84.0,96.0,570.0,11.0,0.0
12276,84.0,0.0,570.0,10.0,0.0
12277,50.0,0.0,180.0,3.0,0.0
12278,84.0,0.0,180.0,1.0,0.0
12279,90.0,0.0,180.0,0.0,0.0
12280,62.0,0.0,180.0,2.0,0.0
12281,84.0,0.0,180.0,1.0,0.0
12282,66.0,144.0,180.0,12.0,0.0
12283,62.0,0.0,180.0,3.0,0.0
12284,50.0,0.0,180.0,3.0,0.0
12285,66.0,0.0,180.0,2.0,0.0
12286,62.0,0.0,180.0,13.0,0.0
12287,81.0,0.0,180.0,1.0,0.0
12288,50.0,0.0,180.0,14.0,0.0
12289,90.0,0.0,180.0,0.0,0.0
12290,66.0,0.0,180.0,12.0,0.0
12291,50.0,0.0,180.0,3.0,0.0
12292,62.0,0.0,180.0,3.0,0.0
12293,84.0,0.0,180.0,1.0,0.0
12294,66.0,0.0,180.0,2.0,0.0
12295,50.0,240.0,180.0,14.0,0.0
12296,62.0,0.0,180.0,2.0,0.0
12297,81.0,0.0,180.0,1.0,0.0
12298,62.0,0.0,180.0,13.0,0.0
12299,84.0,0.0,180.0,10.0,0.0
12300,84.0,0.0,180.0,11.0,0.0
12301,50.0,0.0,180.0,14.0,0.0
12302,62.0,0.0,180.0,13.0,0.0
12303,62.0,0.0,180.0,3.0,0.0
12304,90.0,0.0,180.0,0.0,0.0
12305,50.0,168.0,180.0,3.0,0.0
12306,62.0,0.0,180.0,2.0,0.0
12307,81.0,0.0,180.0,1.0,0.0
12308,66.0,0.0,180.0,12.0,0.0
12309,66.0,0.0,180.0,2.0,0.0
12310,84.0,0.0,180.0,1.0,0.0
12311,65.0,0.0,180.0,2.0,0.0
12312,79.0,0.0,180.0,1.0,0.0
12313,55.0,0.0,180.0,3.0,0.0
12314,62.0,0.0,180.0,3.0,0.0
12315,82.0,0.0,120.0,11.0,0.0
12316,41.0,0.0,180.0,14.0,0.0
12317,62.0,0.0,180.0,2.0,0.0
12318,55.0,24.0,390.0,5.0,0.0
12319,91.0,0.0,180.0,0.0,0.0
12320,82.0,72.0,120.0,10.0,0.0
12321,83.0,0.0,180.0,1.0,0.0
12322,67.0,0.0,180.0,12.0,0.0
12323,53.0,192.0,180.0,13.0,0.0
12324,83.0,0.0,300.0,11.0,0.0
12325,83.0,24.0,300.0,10.0,0.0
12326,55.0,0.0,180.0,3.0,0.0
12327,95.0,0.0,180.0,0.0,0.0
12328,65.0,0.0,180.0,13.0,0.0
12329,53.0,0.0,180.0,14.0,0.0
12330,79.0,0.0,180.0,4.0,0.0
12331,86.0,0.0,180.0,1.0,0.0
12332,79.0,0.0,180.0,1.0,0.0
12333,74.0,0.0,180.0,12.0,0.0
12334,67.0,0.0,180.0,3.0,0.0
12335,67.0,0.0,180.0,4.0,0.0
12336,62.0,0.0,180.0,2.0,0.0
12337,65.0,240.0,180.0,2.0,0.0
12338,67.0,0.0,180.0,3.0,0.0
12339,55.0,96.0,180.0,3.0,0.0
12340,74.0,0.0,180.0,12.0,0.0
12341,79.0,0.0,180.0,1.0,0.0
12342,65.0,0.0,180.0,2.0,0.0
12343,86.0,0.0,180.0,1.0,0.0
12344,83.0,0.0,390.0,11.0,0.0
12345,65.0,0.0,180.0,13.0,0.0
12346,53.0,0.0,180.0,14.0,0.0
12347,79.0,0.0,180.0,4.0,0.0
12348,83.0,48.0,390.0,10.0,0.0
12349,67.0,0.0,180.0,4.0,0.0
12350,95.0,0.0,180.0,0.0,0.0
12351,62.0,0.0,180.0,2.0,0.0
12352,55.0,96.0,300.0,5.0,0.0
12353,65.0,0.0,180.0,13.0,0.0
12354,53.0,0.0,180.0,14.0,0.0
12355,74.0,0.0,180.0,12.0,0.0
12356,55.0,24.0,180.0,3.0,0.0
12357,86.0,0.0,180.0,1.0,0.0
12358,79.0,0.0,180.0,1.0,0.0
12359,67.0,0.0,180.0,3.0,0.0
12360,67.0,0.0,180.0,4.0,0.0
12361,79.0,0.0,180.0,4.0,0.0
12362,62.0,0.0,180.0,2.0,0.0
12363,95.0,0.0,180.0,0.0,0.0
12364,65.0,0.0,180.0,2.0,0.0
12365,55.0,216.0,90.0,5.0,0.0
12366,95.0,0.0,180.0,0.0,0.0
12367,62.0,0.0,180.0,2.0,0.0
12368,65.0,0.0,180.0,13.0,0.0
12369,74.0,0.0,180.0,12.0,0.0
12370,65.0,0.0,180.0,2.0,0.0
12371,86.0,0.0,180.0,1.0,0.0
12372,79.0,0.0,180.0,1.0,0.0
12373,67.0,0.0,180.0,4.0,0.0
12374,79.0,96.0,180.0,4.0,0.0
12375,53.0,0.0,180.0,14.0,0.0
12376,55.0,144.0,300.0,5.0,0.0
12377,67.0,0.0,180.0,3.0,0.0
12378,55.0,0.0,180.0,3.0,0.0
12379,74.0,0.0,180.0,12.0,0.0
12380,53.0,0.0,180.0,14.0,0.0
12381,67.0,0.0,180.0,4.0,0.0
12382,79.0,0.0,180.0,4.0,0.0
12383,65.0,0.0,180.0,2.0,0.0
12384,79.0,0.0,180.0,1.0,0.0
12385,86.0,0.0,180.0,1.0,0.0
12386,95.0,0.0,180.0,0.0,0.0
12387,67.0,0.0,180.0,3.0,0.0
12388,62.0,0.0,180.0,2.0,0.0
12389,65.0,0.0,180.0,13.0,0.0
12390,55.0,24.0,180.0,3.0,0.0
12391,55.0,408.0,90.0,5.0,0.0
12392,64.0,504.0,1380.0,13.0,0.0
12393,79.0,0.0,1380.0,4.0,0.0
12394,64.0,0.0,1380.0,2.0,0.0
12395,52.0,0.0,1380.0,14.0,0.0
12396,67.0,0.0,1380.0,4.0,0.0
12397,88.0,0.0,1380.0,1.0,0.0
12398,79.0,0.0,1380.0,1.0,0.0
12399,60.0,0.0,1380.0,2.0,0.0
12400,96.0,0.0,1380.0,0.0,0.0
12401,72.0,0.0,1380.0,12.0,0.0
12402,55.0,0.0,1380.0,3.0,0.0
12403,67.0,0.0,1380.0,3.0,0.0
12404,55.0,12.0,390.0,5.0,0.0
12405,84.0,0.0,150.0,11.0,0.0
12406,84.0,240.0,150.0,10.0,0.0
12407,84.0,0.0,150.0,10.0,0.0
12408,84.0,240.0,150.0,11.0,0.0
12409,84.0,0.0,150.0,11.0,0.0
12410,84.0,240.0,150.0,10.0,0.0
12411,84.0,240.0,150.0,11.0,0.0
12412,84.0,0.0,150.0,10.0,0.0
12413,84.0,0.0,150.0,11.0,0.0
12414,84.0,12.0,150.0,10.0,0.0
12415,87.0,144.0,780.0,11.0,0.0
12416,87.0,0.0,780.0,10.0,0.0
12417,84.0,0.0,180.0,1.0,0.0
12418,87.0,0.0,180.0,1.0,0.0
12419,57.0,0.0,180.0,13.0,0.0
12420,66.0,0.0,180.0,2.0,0.0
12421,90.0,0.0,180.0,0.0,0.0
12422,45.0,0.0,180.0,14.0,0.0
12423,63.0,240.0,180.0,12.0,0.0
12424,60.0,0.0,180.0,2.0,0.0
12425,90.0,0.0,180.0,0.0,0.0
12426,87.0,0.0,180.0,1.0,0.0
12427,45.0,0.0,180.0,14.0,0.0
12428,84.0,0.0,180.0,1.0,0.0
12429,66.0,96.0,180.0,2.0,0.0
12430,57.0,0.0,180.0,13.0,0.0
12431,60.0,0.0,180.0,2.0,0.0
12432,63.0,0.0,180.0,12.0,0.0
12433,60.0,0.0,180.0,2.0,0.0
12434,66.0,0.0,180.0,2.0,0.0
12435,57.0,240.0,180.0,13.0,0.0
12436,63.0,0.0,180.0,12.0,0.0
12437,45.0,0.0,180.0,14.0,0.0
12438,87.0,0.0,180.0,1.0,0.0
12439,84.0,0.0,180.0,1.0,0.0
12440,90.0,0.0,180.0,0.0,0.0
12441,84.0,0.0,180.0,1.0,0.0
12442,66.0,0.0,300.0,10.0,0.0
12443,87.0,0.0,180.0,1.0,0.0
12444,45.0,120.0,180.0,14.0,0.0
12445,57.0,0.0,180.0,13.0,0.0
12446,63.0,0.0,180.0,12.0,0.0
12447,66.0,120.0,300.0,11.0,0.0
12448,90.0,0.0,180.0,0.0,0.0
12449,60.0,0.0,180.0,2.0,0.0
12450,66.0,0.0,180.0,2.0,0.0
12451,45.0,0.0,180.0,14.0,0.0
12452,60.0,0.0,180.0,2.0,0.0
12453,63.0,0.0,180.0,12.0,0.0
12454,57.0,0.0,180.0,13.0,0.0
12455,90.0,0.0,180.0,0.0,0.0
12456,66.0,204.0,180.0,2.0,0.0
12457,87.0,0.0,180.0,1.0,0.0
12458,84.0,0.0,180.0,1.0,0.0
12459,84.0,0.0,390.0,1.0,0.0
12460,88.0,0.0,390.0,1.0,0.0
12461,43.0,0.0,390.0,14.0,0.0
12462,55.0,0.0,390.0,13.0,0.0
12463,67.0,12.0,390.0,4.0,0.0
12464,79.0,0.0,390.0,4.0,0.0
12465,67.0,0.0,150.0,10.0,0.0
12466,91.0,0.0,390.0,0.0,0.0
12467,55.0,0.0,390.0,3.0,0.0
12468,67.0,0.0,390.0,3.0,0.0
12469,67.0,228.0,150.0,11.0,0.0
12470,60.0,0.0,390.0,2.0,0.0
12471,67.0,0.0,390.0,2.0,0.0
12472,55.0,0.0,390.0,5.0,0.0
12473,64.0,0.0,390.0,12.0,0.0
12474,72.0,0.0,150.0,10.0,0.0
12475,72.0,240.0,150.0,11.0,0.0
12476,76.0,0.0,150.0,11.0,0.0
12477,76.0,240.0,150.0,10.0,0.0
12478,79.0,240.0,150.0,10.0,0.0
12479,79.0,0.0,150.0,11.0,0.0
12480,84.0,0.0,150.0,11.0,0.0
12481,84.0,240.0,150.0,10.0,0.0
12482,88.0,0.0,150.0,10.0,0.0
12483,88.0,396.0,150.0,11.0,0.0
12484,91.0,432.0,300.0,11.0,0.0
12485,91.0,0.0,300.0,10.0,0.0
12486,67.0,0.0,270.0,3.0,0.0
12487,88.0,0.0,270.0,0.0,0.0
12488,64.0,0.0,270.0,11.0,0.0
12489,55.0,0.0,270.0,13.0,0.0
12490,55.0,360.0,390.0,5.0,0.0
12491,67.0,0.0,270.0,4.0,0.0
12492,43.0,0.0,270.0,14.0,0.0
12493,55.0,0.0,270.0,3.0,0.0
12494,76.0,0.0,270.0,1.0,0.0
12495,55.0,0.0,270.0,2.0,0.0
12496,64.0,120.0,270.0,10.0,0.0
12497,67.0,0.0,270.0,12.0,0.0
12498,79.0,0.0,270.0,4.0,0.0
12499,67.0,0.0,270.0,3.0,0.0
12500,55.0,0.0,270.0,3.0,0.0
12501,62.0,0.0,270.0,11.0,0.0
12502,43.0,0.0,270.0,14.0,0.0
12503,55.0,120.0,270.0,13.0,0.0
12504,74.0,0.0,270.0,1.0,0.0
12505,62.0,0.0,270.0,10.0,0.0
12506,79.0,0.0,270.0,4.0,0.0
12507,55.0,0.0,270.0,12.0,0.0
12508,86.0,0.0,270.0,0.0,0.0
12509,55.0,0.0,270.0,2.0,0.0
12510,55.0,252.0,390.0,5.0,0.0
12511,67.0,0.0,270.0,4.0,0.0
12512,60.0,192.0,1140.0,11.0,0.0
12513,60.0,0.0,150.0,2.0,0.0
12514,48.0,0.0,150.0,14.0,0.0
12515,55.0,0.0,390.0,3.0,0.0
12516,67.0,0.0,390.0,3.0,0.0
12517,60.0,228.0,150.0,13.0,0.0
12518,64.0,0.0,150.0,12.0,0.0
12519,67.0,0.0,390.0,4.0,0.0
12520,79.0,0.0,390.0,4.0,0.0
12521,72.0,12.0,390.0,1.0,0.0
12522,55.0,0.0,390.0,5.0,0.0
12523,84.0,0.0,390.0,0.0,0.0
12524,60.0,0.0,1140.0,10.0,0.0
12525,60.0,240.0,150.0,12.0,0.0
12526,64.0,0.0,150.0,2.0,0.0
12527,64.0,0.0,150.0,13.0,0.0
12528,52.0,0.0,150.0,14.0,0.0
12529,76.0,0.0,390.0,1.0,0.0
12530,60.0,0.0,150.0,2.0,0.0
12531,64.0,0.0,150.0,12.0,0.0
12532,88.0,0.0,390.0,0.0,0.0
12533,79.0,0.0,390.0,4.0,0.0
12534,67.0,0.0,390.0,4.0,0.0
12535,84.0,0.0,390.0,1.0,0.0
12536,67.0,12.0,390.0,3.0,0.0
12537,55.0,0.0,390.0,5.0,0.0
12538,60.0,0.0,150.0,13.0,0.0
12539,48.0,228.0,150.0,14.0,0.0
12540,55.0,0.0,390.0,3.0,0.0
12541,64.0,0.0,150.0,13.0,0.0
12542,60.0,0.0,150.0,12.0,0.0
12543,52.0,0.0,150.0,14.0,0.0
12544,64.0,240.0,150.0,2.0,0.0
12545,60.0,0.0,150.0,2.0,0.0
12546,84.0,12.0,390.0,1.0,0.0
12547,76.0,0.0,390.0,1.0,0.0
12548,55.0,0.0,390.0,5.0,0.0
12549,64.0,0.0,150.0,12.0,0.0
12550,48.0,0.0,150.0,14.0,0.0
12551,88.0,0.0,390.0,0.0,0.0
12552,79.0,0.0,390.0,4.0,0.0
12553,67.0,0.0,390.0,4.0,0.0
12554,60.0,36.0,150.0,13.0,0.0
12555,67.0,0.0,390.0,3.0,0.0
12556,55.0,0.0,390.0,3.0,0.0
12557,64.0,204.0,150.0,13.0,0.0
12558,60.0,0.0,150.0,12.0,0.0
12559,52.0,0.0,150.0,14.0,0.0
12560,64.0,0.0,150.0,2.0,0.0
12561,84.0,0.0,1350.0,1.0,0.0
12562,76.0,0.0,1350.0,1.0,0.0
12563,76.0,0.0,1350.0,12.0,0.0
12564,67.0,0.0,1140.0,4.0,0.0
12565,79.0,120.0,120.0,10.0,0.0
12566,79.0,0.0,1140.0,4.0,0.0
12567,88.0,0.0,1350.0,0.0,0.0
12568,67.0,0.0,1140.0,3.0,0.0
12569,55.0,48.0,1140.0,3.0,0.0
12570,60.0,66.0,1350.0,2.0,0.0
12571,60.0,0.0,1350.0,13.0,0.0
12572,55.0,96.0,390.0,5.0,0.0
12573,48.0,0.0,1350.0,14.0,0.0
12574,79.0,0.0,120.0,11.0,0.0
12575,77.0,120.0,120.0,11.0,0.0
12576,77.0,0.0,120.0,10.0,0.0
12577,76.0,24.0,120.0,11.0,0.0
12578,76.0,0.0,120.0,10.0,0.0
12579,74.0,0.0,120.0,11.0,0.0
12580,74.0,120.0,120.0,10.0,0.0
12581,72.0,0.0,120.0,10.0,0.0
12582,72.0,120.0,120.0,11.0,0.0
12583,71.0,120.0,120.0,10.0,0.0
12584,71.0,0.0,120.0,11.0,0.0
12585,69.0,120.0,120.0,11.0,0.0
12586,69.0,0.0,120.0,10.0,0.0
12587,67.0,0.0,120.0,10.0,0.0
12588,67.0,120.0,120.0,11.0,0.0
12589,65.0,0.0,120.0,11.0,0.0
12590,65.0,72.0,120.0,10.0,0.0
12591,64.0,0.0,120.0,11.0,0.0
12592,64.0,120.0,120.0,10.0,0.0
12593,62.0,0.0,120.0,10.0,0.0
12594,62.0,30.0,120.0,11.0,0.0
12595,60.0,180.0,90.0,10.0,0.0
12596,60.0,0.0,90.0,11.0,0.0
12597,62.0,0.0,150.0,12.0,0.0
12598,59.0,0.0,1140.0,11.0,0.0
12599,74.0,12.0,390.0,4.0,0.0
12600,68.0,192.0,1140.0,11.0,0.0
12601,62.0,0.0,390.0,4.0,0.0
12602,50.0,0.0,390.0,5.0,0.0
12603,86.0,0.0,390.0,1.0,0.0
12604,47.0,228.0,150.0,14.0,0.0
12605,92.0,0.0,390.0,0.0,0.0
12606,68.0,0.0,1140.0,10.0,0.0
12607,59.0,0.0,150.0,2.0,0.0
12608,59.0,0.0,1140.0,10.0,0.0
12609,62.0,0.0,390.0,3.0,0.0
12610,59.0,0.0,150.0,13.0,0.0
12611,50.0,0.0,390.0,3.0,0.0
12612,77.0,0.0,390.0,1.0,0.0
12613,62.0,0.0,150.0,2.0,0.0
12614,50.0,0.0,150.0,14.0,0.0
12615,59.0,0.0,150.0,12.0,0.0
12616,62.0,240.0,150.0,13.0,0.0
12617,77.0,0.0,390.0,1.0,0.0
12618,47.0,0.0,150.0,14.0,0.0
12619,86.0,12.0,390.0,1.0,0.0
12620,92.0,0.0,390.0,0.0,0.0
12621,59.0,228.0,150.0,2.0,0.0
12622,59.0,0.0,150.0,13.0,0.0
12623,74.0,0.0,390.0,4.0,0.0
12624,62.0,0.0,390.0,3.0,0.0
12625,50.0,0.0,390.0,3.0,0.0
12626,62.0,0.0,390.0,4.0,0.0
12627,50.0,0.0,390.0,5.0,0.0
12628,62.0,0.0,150.0,12.0,0.0
12629,62.0,0.0,150.0,13.0,0.0
12630,50.0,0.0,150.0,14.0,0.0
12631,62.0,240.0,150.0,2.0,0.0
12632,59.0,0.0,150.0,12.0,0.0
12633,62.0,12.0,390.0,3.0,0.0
12634,62.0,0.0,150.0,12.0,0.0
12635,62.0,0.0,390.0,4.0,0.0
12636,50.0,0.0,390.0,3.0,0.0
12637,74.0,0.0,390.0,4.0,0.0
12638,59.0,0.0,150.0,2.0,0.0
12639,59.0,0.0,150.0,13.0,0.0
12640,86.0,0.0,390.0,1.0,0.0
12641,77.0,0.0,390.0,1.0,0.0
12642,50.0,0.0,390.0,5.0,0.0
12643,92.0,0.0,390.0,0.0,0.0
12644,47.0,36.0,150.0,14.0,0.0
12645,62.0,0.0,150.0,13.0,0.0
12646,50.0,204.0,150.0,14.0,0.0
12647,59.0,0.0,150.0,12.0,0.0
12648,62.0,0.0,150.0,2.0,0.0
12649,74.0,48.0,1140.0,4.0,0.0
12650,86.0,66.0,1350.0,1.0,0.0
12651,80.0,0.0,1350.0,1.0,0.0
12652,86.0,0.0,120.0,10.0,0.0
12653,92.0,0.0,1350.0,0.0,0.0
12654,59.0,0.0,1350.0,13.0,0.0
12655,62.0,0.0,1140.0,4.0,0.0
12656,50.0,0.0,1140.0,3.0,0.0
12657,62.0,0.0,1140.0,3.0,0.0
12658,47.0,0.0,1350.0,14.0,0.0
12659,50.0,96.0,390.0,5.0,0.0
12660,59.0,0.0,1350.0,2.0,0.0
12661,77.0,0.0,1350.0,12.0,0.0
12662,86.0,120.0,120.0,11.0,0.0
12663,84.0,0.0,120.0,11.0,0.0
12664,84.0,120.0,120.0,10.0,0.0
12665,83.0,0.0,120.0,11.0,0.0
12666,83.0,24.0,120.0,10.0,0.0
12667,81.0,0.0,120.0,10.0,0.0
12668,81.0,120.0,120.0,11.0,0.0
12669,80.0,120.0,120.0,11.0,0.0
12670,80.0,0.0,120.0,10.0,0.0
12671,77.0,120.0,120.0,10.0,0.0
12672,77.0,0.0,120.0,11.0,0.0
12673,76.0,120.0,120.0,11.0,0.0
12674,76.0,0.0,120.0,10.0,0.0
12675,74.0,0.0,120.0,10.0,0.0
12676,74.0,120.0,120.0,11.0,0.0
12677,72.0,72.0,120.0,11.0,0.0
12678,72.0,0.0,120.0,10.0,0.0
12679,71.0,0.0,120.0,11.0,0.0
12680,71.0,120.0,120.0,10.0,0.0
12681,69.0,0.0,120.0,10.0,0.0
12682,69.0,30.0,120.0,11.0,0.0
12683,68.0,180.0,90.0,10.0,0.0
12684,68.0,0.0,90.0,11.0,0.0
12685,60.0,0.0,1140.0,10.0,0.0
12686,84.0,0.0,390.0,1.0,0.0
12687,81.0,12.0,390.0,1.0,0.0
12688,81.0,0.0,390.0,4.0,0.0
12689,93.0,0.0,390.0,0.0,0.0
12690,45.0,228.0,150.0,14.0,0.0
12691,60.0,0.0,150.0,12.0,0.0
12692,69.0,0.0,390.0,3.0,0.0
12693,60.0,192.0,1140.0,11.0,0.0
12694,69.0,0.0,1140.0,11.0,0.0
12695,57.0,0.0,150.0,13.0,0.0
12696,69.0,0.0,1140.0,10.0,0.0
12697,57.0,0.0,150.0,2.0,0.0
12698,57.0,0.0,150.0,12.0,0.0
12699,60.0,240.0,150.0,13.0,0.0
12700,48.0,0.0,150.0,14.0,0.0
12701,60.0,0.0,150.0,2.0,0.0
12702,84.0,0.0,390.0,1.0,0.0
12703,76.0,0.0,390.0,1.0,0.0
12704,81.0,0.0,390.0,4.0,0.0
12705,60.0,228.0,150.0,12.0,0.0
12706,57.0,0.0,150.0,13.0,0.0
12707,45.0,0.0,150.0,14.0,0.0
12708,57.0,0.0,150.0,2.0,0.0
12709,69.0,12.0,390.0,3.0,0.0
12710,93.0,0.0,390.0,0.0,0.0
12711,60.0,0.0,150.0,13.0,0.0
12712,48.0,0.0,150.0,14.0,0.0
12713,60.0,240.0,150.0,2.0,0.0
12714,57.0,0.0,150.0,12.0,0.0
12715,84.0,0.0,390.0,1.0,0.0
12716,45.0,0.0,150.0,14.0,0.0
12717,76.0,12.0,390.0,1.0,0.0
12718,93.0,0.0,390.0,0.0,0.0
12719,60.0,36.0,150.0,12.0,0.0
12720,69.0,0.0,390.0,3.0,0.0
12721,81.0,0.0,390.0,4.0,0.0
12722,57.0,0.0,150.0,2.0,0.0
12723,57.0,0.0,150.0,13.0,0.0
12724,57.0,0.0,150.0,12.0,0.0
12725,48.0,204.0,150.0,14.0,0.0
12726,60.0,0.0,150.0,2.0,0.0
12727,60.0,0.0,150.0,13.0,0.0
12728,84.0,48.0,1140.0,1.0,0.0
12729,76.0,0.0,1140.0,1.0,0.0
12730,45.0,0.0,1140.0,14.0,0.0
12731,81.0,0.0,1140.0,4.0,0.0
12732,93.0,0.0,1140.0,0.0,0.0
12733,88.0,120.0,120.0,11.0,0.0
12734,69.0,0.0,1140.0,3.0,0.0
12735,57.0,0.0,1140.0,13.0,0.0
12736,88.0,0.0,120.0,10.0,0.0
12737,72.0,0.0,1140.0,12.0,0.0
12738,57.0,0.0,1140.0,2.0,0.0
12739,86.0,0.0,120.0,10.0,0.0
12740,86.0,120.0,120.0,11.0,0.0
12741,84.0,120.0,120.0,10.0,0.0
12742,84.0,0.0,120.0,11.0,0.0
12743,83.0,120.0,120.0,11.0,0.0
12744,83.0,0.0,120.0,10.0,0.0
12745,81.0,120.0,120.0,11.0,0.0
12746,81.0,0.0,120.0,10.0,0.0
12747,79.0,0.0,120.0,10.0,0.0
12748,79.0,120.0,120.0,11.0,0.0
12749,77.0,120.0,120.0,10.0,0.0
12750,77.0,0.0,120.0,11.0,0.0
12751,76.0,0.0,120.0,10.0,0.0
12752,76.0,120.0,120.0,11.0,0.0
12753,74.0,72.0,120.0,10.0,0.0
12754,74.0,0.0,120.0,11.0,0.0
12755,72.0,120.0,120.0,10.0,0.0
12756,72.0,0.0,120.0,11.0,0.0
12757,71.0,0.0,120.0,10.0,0.0
12758,71.0,96.0,120.0,11.0,0.0
12759,69.0,180.0,90.0,10.0,0.0
12760,69.0,0.0,90.0,11.0,0.0
12761,93.0,0.0,390.0,0.0,0.0
12762,42.0,0.0,150.0,14.0,0.0
12763,84.0,0.0,390.0,1.0,0.0
12764,81.0,0.0,390.0,1.0,0.0
12765,72.0,192.0,1140.0,11.0,0.0
12766,72.0,0.0,1140.0,10.0,0.0
12767,54.0,0.0,150.0,2.0,0.0
12768,50.0,0.0,390.0,5.0,0.0
12769,74.0,0.0,390.0,4.0,0.0
12770,62.0,12.0,390.0,4.0,0.0
12771,54.0,228.0,150.0,13.0,0.0
12772,69.0,0.0,150.0,12.0,0.0
12773,62.0,0.0,1140.0,11.0,0.0
12774,50.0,0.0,390.0,3.0,0.0
12775,62.0,0.0,390.0,3.0,0.0
12776,62.0,0.0,1140.0,10.0,0.0
12777,66.0,0.0,150.0,12.0,0.0
12778,45.0,0.0,150.0,14.0,0.0
12779,57.0,240.0,150.0,13.0,0.0
12780,57.0,0.0,150.0,2.0,0.0
12781,42.0,0.0,150.0,14.0,0.0
12782,81.0,0.0,390.0,1.0,0.0
12783,84.0,0.0,390.0,1.0,0.0
12784,93.0,0.0,390.0,0.0,0.0
12785,69.0,0.0,150.0,12.0,0.0
12786,74.0,12.0,390.0,4.0,0.0
12787,62.0,0.0,390.0,4.0,0.0
12788,50.0,0.0,390.0,5.0,0.0
12789,54.0,228.0,150.0,13.0,0.0
12790,54.0,0.0,150.0,2.0,0.0
12791,62.0,0.0,390.0,3.0,0.0
12792,50.0,0.0,390.0,3.0,0.0
12793,57.0,240.0,150.0,13.0,0.0
12794,66.0,0.0,150.0,12.0,0.0
12795,57.0,0.0,150.0,2.0,0.0
12796,45.0,0.0,150.0,14.0,0.0
12797,69.0,0.0,150.0,12.0,0.0
12798,62.0,0.0,390.0,3.0,0.0
12799,74.0,0.0,390.0,4.0,0.0
12800,62.0,0.0,390.0,4.0,0.0
12801,93.0,0.0,390.0,0.0,0.0
12802,50.0,0.0,390.0,5.0,0.0
12803,50.0,0.0,390.0,3.0,0.0
12804,54.0,36.0,150.0,2.0,0.0
12805,54.0,0.0,150.0,13.0,0.0
12806,84.0,0.0,390.0,1.0,0.0
12807,81.0,12.0,390.0,1.0,0.0
12808,42.0,0.0,150.0,14.0,0.0
12809,45.0,0.0,150.0,14.0,0.0
12810,57.0,0.0,150.0,2.0,0.0
12811,57.0,204.0,150.0,13.0,0.0
12812,66.0,0.0,150.0,12.0,0.0
12813,84.0,120.0,120.0,10.0,0.0
12814,93.0,0.0,1140.0,0.0,0.0
12815,84.0,0.0,1140.0,1.0,0.0
12816,81.0,0.0,1140.0,1.0,0.0
12817,54.0,0.0,1140.0,13.0,0.0
12818,74.0,0.0,1140.0,12.0,0.0
12819,62.0,0.0,1140.0,3.0,0.0
12820,84.0,0.0,120.0,11.0,0.0
12821,54.0,0.0,1140.0,2.0,0.0
12822,42.0,48.0,1140.0,14.0,0.0
12823,50.0,96.0,390.0,5.0,0.0
12824,50.0,0.0,1140.0,3.0,0.0
12825,62.0,0.0,1140.0,4.0,0.0
12826,74.0,0.0,1140.0,4.0,0.0
12827,83.0,120.0,120.0,11.0,0.0
12828,83.0,0.0,120.0,10.0,0.0
12829,81.0,24.0,120.0,11.0,0.0
12830,81.0,0.0,120.0,10.0,0.0
12831,79.0,120.0,120.0,10.0,0.0
12832,79.0,0.0,120.0,11.0,0.0
12833,78.0,0.0,120.0,11.0,0.0
12834,78.0,120.0,120.0,10.0,0.0
12835,76.0,0.0,120.0,11.0,0.0
12836,76.0,120.0,120.0,10.0,0.0
12837,74.0,120.0,120.0,11.0,0.0
12838,74.0,0.0,120.0,10.0,0.0
12839,72.0,120.0,120.0,11.0,0.0
12840,72.0,0.0,120.0,10.0,0.0
12841,71.0,0.0,120.0,11.0,0.0
12842,71.0,72.0,120.0,10.0,0.0
12843,69.0,120.0,120.0,10.0,0.0
12844,69.0,0.0,120.0,11.0,0.0
12845,67.0,96.0,120.0,11.0,0.0
12846,67.0,0.0,120.0,10.0,0.0
12847,66.0,0.0,90.0,11.0,0.0
12848,66.0,180.0,90.0,10.0,0.0
12849,55.0,0.0,390.0,3.0,0.0
12850,62.0,0.0,390.0,3.0,0.0
12851,43.0,228.0,150.0,14.0,0.0
12852,59.0,0.0,150.0,12.0,0.0
12853,62.0,192.0,1140.0,11.0,0.0
12854,71.0,0.0,1140.0,11.0,0.0
12855,79.0,0.0,390.0,1.0,0.0
12856,83.0,12.0,390.0,1.0,0.0
12857,55.0,0.0,150.0,13.0,0.0
12858,55.0,0.0,150.0,2.0,0.0
12859,91.0,0.0,390.0,0.0,0.0
12860,74.0,0.0,390.0,4.0,0.0
12861,67.0,0.0,390.0,4.0,0.0
12862,55.0,0.0,390.0,5.0,0.0
12863,62.0,0.0,1140.0,10.0,0.0
12864,71.0,0.0,1140.0,10.0,0.0
12865,59.0,0.0,150.0,2.0,0.0
12866,59.0,0.0,150.0,13.0,0.0
12867,47.0,240.0,150.0,14.0,0.0
12868,55.0,0.0,150.0,12.0,0.0
12869,91.0,12.0,390.0,0.0,0.0
12870,55.0,0.0,150.0,13.0,0.0
12871,43.0,0.0,150.0,14.0,0.0
12872,62.0,0.0,390.0,3.0,0.0
12873,55.0,0.0,390.0,3.0,0.0
12874,59.0,228.0,150.0,12.0,0.0
12875,55.0,0.0,150.0,2.0,0.0
12876,67.0,0.0,390.0,4.0,0.0
12877,55.0,0.0,390.0,5.0,0.0
12878,83.0,0.0,390.0,1.0,0.0
12879,79.0,0.0,390.0,1.0,0.0
12880,74.0,0.0,390.0,4.0,0.0
12881,55.0,0.0,150.0,12.0,0.0
12882,59.0,0.0,150.0,2.0,0.0
12883,47.0,240.0,150.0,14.0,0.0
12884,59.0,0.0,150.0,13.0,0.0
12885,79.0,0.0,390.0,1.0,0.0
12886,62.0,0.0,390.0,3.0,0.0
12887,55.0,0.0,390.0,3.0,0.0
12888,55.0,0.0,390.0,5.0,0.0
12889,59.0,0.0,150.0,12.0,0.0
12890,55.0,36.0,150.0,13.0,0.0
12891,91.0,0.0,390.0,0.0,0.0
12892,55.0,0.0,150.0,2.0,0.0
12893,83.0,0.0,390.0,1.0,0.0
12894,43.0,0.0,150.0,14.0,0.0
12895,67.0,0.0,390.0,4.0,0.0
12896,74.0,12.0,390.0,4.0,0.0
12897,55.0,0.0,150.0,12.0,0.0
12898,47.0,0.0,150.0,14.0,0.0
12899,59.0,204.0,150.0,2.0,0.0
12900,59.0,0.0,150.0,13.0,0.0
12901,55.0,0.0,1140.0,3.0,0.0
12902,86.0,120.0,120.0,10.0,0.0
12903,91.0,0.0,1140.0,0.0,0.0
12904,86.0,0.0,120.0,11.0,0.0
12905,71.0,48.0,1140.0,12.0,0.0
12906,83.0,0.0,1140.0,1.0,0.0
12907,55.0,0.0,1140.0,13.0,0.0
12908,67.0,0.0,1140.0,4.0,0.0
12909,74.0,0.0,1140.0,4.0,0.0
12910,79.0,0.0,1140.0,1.0,0.0
12911,62.0,0.0,1140.0,3.0,0.0
12912,43.0,0.0,1140.0,14.0,0.0
12913,55.0,0.0,1140.0,2.0,0.0
12914,55.0,96.0,390.0,5.0,0.0
12915,84.0,0.0,120.0,11.0,0.0
12916,84.0,120.0,120.0,10.0,0.0
12917,83.0,24.0,120.0,11.0,0.0
12918,83.0,0.0,120.0,10.0,0.0
12919,81.0,0.0,120.0,10.0,0.0
12920,81.0,120.0,120.0,11.0,0.0
12921,79.0,120.0,120.0,10.0,0.0
12922,79.0,0.0,120.0,11.0,0.0
12923,78.0,0.0,120.0,11.0,0.0
12924,78.0,120.0,120.0,10.0,0.0
12925,76.0,0.0,120.0,11.0,0.0
12926,76.0,120.0,120.0,10.0,0.0
12927,74.0,0.0,120.0,10.0,0.0
12928,74.0,120.0,120.0,11.0,0.0
12929,72.0,72.0,120.0,11.0,0.0
12930,72.0,0.0,120.0,10.0,0.0
12931,71.0,0.0,120.0,10.0,0.0
12932,71.0,120.0,120.0,11.0,0.0
12933,69.0,0.0,120.0,11.0,0.0
12934,69.0,96.0,120.0,10.0,0.0
12935,67.0,0.0,90.0,11.0,0.0
12936,67.0,180.0,90.0,10.0,0.0
12937,73.0,0.0,1140.0,11.0,0.0
12938,67.0,192.0,1140.0,11.0,0.0
12939,55.0,36.0,150.0,12.0,0.0
12940,79.0,12.0,390.0,4.0,0.0
12941,79.0,0.0,390.0,1.0,0.0
12942,55.0,0.0,390.0,5.0,0.0
12943,52.0,0.0,150.0,2.0,0.0
12944,91.0,0.0,390.0,0.0,0.0
12945,52.0,0.0,150.0,13.0,0.0
12946,85.0,0.0,390.0,1.0,0.0
12947,55.0,0.0,390.0,3.0,0.0
12948,67.0,0.0,390.0,4.0,0.0
12949,67.0,0.0,390.0,3.0,0.0
12950,67.0,0.0,1140.0,10.0,0.0
12951,40.0,192.0,180.0,14.0,0.0
12952,73.0,0.0,1140.0,10.0,0.0
12953,55.0,0.0,150.0,13.0,0.0
12954,43.0,204.0,180.0,14.0,0.0
12955,55.0,36.0,150.0,2.0,0.0
12956,52.0,0.0,150.0,12.0,0.0
12957,67.0,0.0,390.0,3.0,0.0
12958,79.0,0.0,390.0,4.0,0.0
12959,55.0,0.0,390.0,5.0,0.0
12960,55.0,0.0,390.0,3.0,0.0
12961,52.0,0.0,150.0,13.0,0.0
12962,67.0,12.0,390.0,4.0,0.0
12963,40.0,192.0,180.0,14.0,0.0
12964,85.0,0.0,390.0,1.0,0.0
12965,91.0,0.0,390.0,0.0,0.0
12966,55.0,0.0,150.0,12.0,0.0
12967,79.0,0.0,390.0,1.0,0.0
12968,52.0,36.0,150.0,2.0,0.0
12969,55.0,36.0,150.0,13.0,0.0
12970,55.0,0.0,150.0,2.0,0.0
12971,52.0,0.0,150.0,12.0,0.0
12972,43.0,204.0,180.0,14.0,0.0
12973,79.0,0.0,390.0,1.0,0.0
12974,67.0,0.0,390.0,4.0,0.0
12975,79.0,0.0,390.0,4.0,0.0
12976,52.0,0.0,150.0,13.0,0.0
12977,67.0,0.0,390.0,3.0,0.0
12978,85.0,0.0,390.0,1.0,0.0
12979,55.0,0.0,150.0,12.0,0.0
12980,91.0,12.0,390.0,0.0,0.0
12981,40.0,0.0,180.0,14.0,0.0
12982,52.0,36.0,150.0,2.0,0.0
12983,55.0,0.0,390.0,5.0,0.0
12984,55.0,0.0,390.0,3.0,0.0
12985,55.0,36.0,150.0,2.0,0.0
12986,55.0,0.0,150.0,13.0,0.0
12987,43.0,168.0,180.0,14.0,0.0
12988,52.0,0.0,150.0,12.0,0.0
12989,79.0,0.0,1140.0,4.0,0.0
12990,40.0,0.0,1140.0,14.0,0.0
12991,79.0,0.0,120.0,11.0,0.0
12992,61.0,0.0,960.0,12.0,0.0
12993,52.0,0.0,1140.0,13.0,0.0
12994,67.0,0.0,1140.0,4.0,0.0
12995,52.0,0.0,1140.0,2.0,0.0
12996,85.0,0.0,1140.0,1.0,0.0
12997,67.0,0.0,1140.0,3.0,0.0
12998,79.0,0.0,1140.0,1.0,0.0
12999,55.0,0.0,1140.0,3.0,0.0
13000,91.0,48.0,1140.0,0.0,0.0
13001,55.0,96.0,390.0,5.0,0.0
13002,79.0,120.0,120.0,10.0,0.0
13003,78.0,0.0,120.0,10.0,0.0
13004,78.0,120.0,120.0,11.0,0.0
13005,76.0,24.0,120.0,11.0,0.0
13006,76.0,0.0,120.0,10.0,0.0
13007,74.0,120.0,120.0,10.0,0.0
13008,74.0,0.0,120.0,11.0,0.0
13009,73.0,0.0,120.0,10.0,0.0
13010,73.0,120.0,120.0,11.0,0.0
13011,71.0,0.0,120.0,10.0,0.0
13012,71.0,120.0,120.0,11.0,0.0
13013,69.0,0.0,120.0,10.0,0.0
13014,69.0,120.0,120.0,11.0,0.0
13015,67.0,120.0,120.0,10.0,0.0
13016,67.0,0.0,120.0,11.0,0.0
13017,66.0,0.0,120.0,10.0,0.0
13018,55.0,72.0,390.0,12.0,0.0
13019,66.0,72.0,120.0,11.0,0.0
13020,64.0,120.0,120.0,10.0,0.0
13021,64.0,0.0,120.0,11.0,0.0
13022,62.0,24.0,120.0,10.0,0.0
13023,62.0,0.0,120.0,11.0,0.0
13024,61.0,120.0,90.0,11.0,0.0
13025,61.0,0.0,90.0,10.0,0.0
13026,62.0,0.0,90.0,10.0,0.0
13027,90.0,0.0,1140.0,0.0,0.0
13028,50.0,0.0,180.0,13.0,0.0
13029,62.0,0.0,1080.0,4.0,0.0
13030,50.0,72.0,1080.0,3.0,0.0
13031,62.0,96.0,90.0,11.0,0.0
13032,57.0,0.0,180.0,12.0,0.0
13033,50.0,48.0,390.0,5.0,0.0
13034,86.0,0.0,1140.0,1.0,0.0
13035,78.0,0.0,1140.0,1.0,0.0
13036,50.0,24.0,180.0,2.0,0.0
13037,38.0,0.0,180.0,14.0,0.0
13038,74.0,0.0,1080.0,4.0,0.0
13039,62.0,0.0,1080.0,3.0,0.0
13040,62.0,0.0,90.0,11.0,0.0
13041,62.0,120.0,90.0,10.0,0.0
13042,38.0,0.0,180.0,14.0,0.0
13043,57.0,0.0,180.0,12.0,0.0
13044,50.0,24.0,180.0,13.0,0.0
13045,66.0,48.0,90.0,11.0,0.0
13046,66.0,0.0,90.0,10.0,0.0
13047,50.0,0.0,180.0,2.0,0.0
13048,66.0,0.0,90.0,11.0,0.0
13049,66.0,120.0,90.0,10.0,0.0
13050,38.0,24.0,180.0,14.0,0.0
13051,50.0,0.0,180.0,2.0,0.0
13052,50.0,0.0,180.0,13.0,0.0
13053,69.0,96.0,90.0,10.0,0.0
13054,69.0,0.0,90.0,11.0,0.0
13055,57.0,0.0,180.0,12.0,0.0
13056,69.0,120.0,90.0,10.0,0.0
13057,69.0,0.0,90.0,11.0,0.0
13058,74.0,0.0,90.0,10.0,0.0
13059,50.0,0.0,180.0,2.0,0.0
13060,50.0,0.0,180.0,13.0,0.0
13061,38.0,0.0,180.0,14.0,0.0
13062,74.0,96.0,90.0,11.0,0.0
13063,57.0,24.0,180.0,12.0,0.0
13064,74.0,120.0,90.0,10.0,0.0
13065,74.0,0.0,90.0,11.0,0.0
13066,38.0,0.0,180.0,14.0,0.0
13067,50.0,0.0,180.0,2.0,0.0
13068,78.0,24.0,90.0,11.0,0.0
13069,78.0,0.0,90.0,10.0,0.0
13070,50.0,0.0,180.0,13.0,0.0
13071,57.0,24.0,180.0,12.0,0.0
13072,78.0,120.0,90.0,11.0,0.0
13073,78.0,0.0,90.0,10.0,0.0
13074,50.0,0.0,180.0,13.0,0.0
13075,74.0,96.0,90.0,10.0,0.0
13076,38.0,0.0,180.0,14.0,0.0
13077,50.0,24.0,180.0,2.0,0.0
13078,74.0,0.0,90.0,11.0,0.0
13079,57.0,0.0,180.0,12.0,0.0
13080,74.0,120.0,90.0,10.0,0.0
13081,74.0,0.0,90.0,11.0,0.0
13082,50.0,24.0,180.0,13.0,0.0
13083,50.0,48.0,390.0,5.0,0.0
13084,73.0,0.0,90.0,11.0,0.0
13085,38.0,0.0,180.0,14.0,0.0
13086,79.0,0.0,1140.0,1.0,0.0
13087,74.0,72.0,1080.0,4.0,0.0
13088,62.0,0.0,1080.0,3.0,0.0
13089,50.0,0.0,1080.0,3.0,0.0
13090,50.0,0.0,180.0,2.0,0.0
13091,73.0,96.0,90.0,10.0,0.0
13092,85.0,0.0,1140.0,1.0,0.0
13093,62.0,0.0,1080.0,4.0,0.0
13094,91.0,0.0,1140.0,0.0,0.0
13095,64.0,0.0,180.0,12.0,0.0
13096,73.0,120.0,90.0,10.0,0.0
13097,73.0,0.0,90.0,11.0,0.0
13098,79.0,0.0,90.0,10.0,0.0
13099,79.0,48.0,90.0,11.0,0.0
13100,38.0,0.0,180.0,14.0,0.0
13101,50.0,0.0,180.0,13.0,0.0
13102,50.0,24.0,180.0,2.0,0.0
13103,64.0,0.0,180.0,12.0,0.0
13104,79.0,120.0,90.0,11.0,0.0
13105,79.0,0.0,90.0,10.0,0.0
13106,50.0,0.0,180.0,2.0,0.0
13107,50.0,0.0,180.0,13.0,0.0
13108,76.0,0.0,90.0,10.0,0.0
13109,76.0,96.0,90.0,11.0,0.0
13110,64.0,0.0,180.0,12.0,0.0
13111,38.0,24.0,180.0,14.0,0.0
13112,76.0,120.0,90.0,11.0,0.0
13113,76.0,0.0,90.0,10.0,0.0
13114,73.0,0.0,90.0,10.0,0.0
13115,64.0,0.0,180.0,12.0,0.0
13116,73.0,96.0,90.0,11.0,0.0
13117,50.0,24.0,180.0,13.0,0.0
13118,50.0,0.0,180.0,2.0,0.0
13119,38.0,0.0,180.0,14.0,0.0
13120,73.0,0.0,90.0,10.0,0.0
13121,73.0,120.0,90.0,11.0,0.0
13122,50.0,0.0,180.0,2.0,0.0
13123,69.0,0.0,90.0,11.0,0.0
13124,38.0,0.0,180.0,14.0,0.0
13125,64.0,0.0,180.0,12.0,0.0
13126,69.0,24.0,90.0,10.0,0.0
13127,50.0,24.0,180.0,13.0,0.0
13128,69.0,0.0,90.0,11.0,0.0
13129,69.0,120.0,90.0,10.0,0.0
13130,64.0,0.0,180.0,12.0,0.0
13131,67.0,0.0,90.0,10.0,0.0
13132,50.0,0.0,180.0,13.0,0.0
13133,50.0,0.0,180.0,2.0,0.0
13134,67.0,96.0,90.0,11.0,0.0
13135,38.0,24.0,180.0,14.0,0.0
13136,67.0,0.0,90.0,11.0,0.0
13137,67.0,120.0,90.0,10.0,0.0
13138,62.0,0.0,1080.0,4.0,0.0
13139,66.0,96.0,90.0,11.0,0.0
13140,38.0,0.0,180.0,14.0,0.0
13141,69.0,24.0,180.0,12.0,0.0
13142,50.0,0.0,180.0,13.0,0.0
13143,66.0,0.0,90.0,10.0,0.0
13144,90.0,0.0,1140.0,0.0,0.0
13145,74.0,0.0,1080.0,4.0,0.0
13146,86.0,0.0,1140.0,1.0,0.0
13147,50.0,0.0,1080.0,3.0,0.0
13148,62.0,72.0,1080.0,3.0,0.0
13149,50.0,0.0,180.0,2.0,0.0
13150,78.0,0.0,1140.0,1.0,0.0
13151,50.0,48.0,390.0,5.0,0.0
13152,66.0,0.0,90.0,10.0,0.0
13153,66.0,120.0,90.0,11.0,0.0
13154,62.0,0.0,180.0,13.0,0.0
13155,62.0,24.0,180.0,2.0,0.0
13156,69.0,0.0,180.0,12.0,0.0
13157,74.0,48.0,90.0,11.0,0.0
13158,74.0,0.0,90.0,10.0,0.0
13159,50.0,0.0,180.0,14.0,0.0
13160,74.0,0.0,90.0,11.0,0.0
13161,74.0,120.0,90.0,10.0,0.0
13162,81.0,0.0,90.0,10.0,0.0
13163,50.0,0.0,180.0,14.0,0.0
13164,69.0,0.0,180.0,12.0,0.0
13165,81.0,96.0,90.0,11.0,0.0
13166,62.0,24.0,180.0,13.0,0.0
13167,62.0,0.0,180.0,2.0,0.0
13168,81.0,0.0,90.0,10.0,0.0
13169,81.0,120.0,90.0,11.0,0.0
13170,69.0,0.0,180.0,12.0,0.0
13171,86.0,96.0,90.0,11.0,0.0
13172,62.0,0.0,180.0,13.0,0.0
13173,50.0,24.0,180.0,14.0,0.0
13174,62.0,0.0,180.0,2.0,0.0
13175,86.0,0.0,90.0,10.0,0.0
13176,86.0,0.0,90.0,10.0,0.0
13177,86.0,120.0,90.0,11.0,0.0
13178,69.0,0.0,180.0,12.0,0.0
13179,62.0,24.0,180.0,13.0,0.0
13180,50.0,0.0,180.0,14.0,0.0
13181,62.0,0.0,180.0,2.0,0.0
13182,90.0,24.0,90.0,10.0,0.0
13183,90.0,0.0,90.0,11.0,0.0
13184,90.0,120.0,90.0,11.0,0.0
13185,90.0,0.0,90.0,10.0,0.0
13186,69.0,0.0,180.0,12.0,0.0
13187,62.0,24.0,180.0,2.0,0.0
13188,86.0,0.0,90.0,10.0,0.0
13189,50.0,0.0,180.0,14.0,0.0
13190,86.0,96.0,90.0,11.0,0.0
13191,62.0,0.0,180.0,13.0,0.0
13192,86.0,0.0,90.0,10.0,0.0
13193,86.0,120.0,90.0,11.0,0.0
13194,50.0,48.0,390.0,5.0,0.0
13195,79.0,0.0,1140.0,1.0,0.0
13196,85.0,0.0,1140.0,1.0,0.0
13197,91.0,0.0,1140.0,0.0,0.0
13198,85.0,96.0,90.0,11.0,0.0
13199,62.0,0.0,180.0,2.0,0.0
13200,62.0,0.0,1080.0,4.0,0.0
13201,74.0,0.0,1080.0,4.0,0.0
13202,62.0,0.0,180.0,13.0,0.0
13203,50.0,72.0,1080.0,3.0,0.0
13204,85.0,0.0,90.0,10.0,0.0
13205,62.0,0.0,1080.0,3.0,0.0
13206,76.0,24.0,180.0,12.0,0.0
13207,50.0,0.0,180.0,14.0,0.0
13208,85.0,120.0,90.0,11.0,0.0
13209,85.0,0.0,90.0,10.0,0.0
13210,76.0,24.0,180.0,12.0,0.0
13211,62.0,0.0,180.0,2.0,0.0
13212,62.0,0.0,180.0,13.0,0.0
13213,91.0,48.0,90.0,10.0,0.0
13214,50.0,0.0,180.0,14.0,0.0
13215,91.0,0.0,90.0,11.0,0.0
13216,91.0,120.0,90.0,10.0,0.0
13217,91.0,0.0,90.0,11.0,0.0
13218,50.0,0.0,180.0,14.0,0.0
13219,88.0,96.0,90.0,10.0,0.0
13220,88.0,0.0,90.0,11.0,0.0
13221,62.0,24.0,180.0,2.0,0.0
13222,62.0,0.0,180.0,13.0,0.0
13223,76.0,0.0,180.0,12.0,0.0
13224,88.0,120.0,90.0,11.0,0.0
13225,88.0,0.0,90.0,10.0,0.0
13226,62.0,0.0,180.0,2.0,0.0
13227,85.0,96.0,90.0,11.0,0.0
13228,62.0,0.0,180.0,13.0,0.0
13229,85.0,0.0,90.0,10.0,0.0
13230,76.0,24.0,180.0,12.0,0.0
13231,50.0,0.0,180.0,14.0,0.0
13232,85.0,0.0,90.0,11.0,0.0
13233,85.0,120.0,90.0,10.0,0.0
13234,81.0,24.0,90.0,10.0,0.0
13235,62.0,0.0,180.0,2.0,0.0
13236,62.0,24.0,180.0,13.0,0.0
13237,50.0,0.0,180.0,14.0,0.0
13238,81.0,0.0,90.0,11.0,0.0
13239,76.0,0.0,180.0,12.0,0.0
13240,81.0,0.0,90.0,10.0,0.0
13241,81.0,120.0,90.0,11.0,0.0
13242,62.0,0.0,180.0,13.0,0.0
13243,79.0,0.0,90.0,11.0,0.0
13244,50.0,0.0,180.0,14.0,0.0
13245,79.0,96.0,90.0,10.0,0.0
13246,76.0,24.0,180.0,12.0,0.0
13247,62.0,0.0,180.0,2.0,0.0
13248,79.0,0.0,90.0,10.0,0.0
13249,79.0,120.0,90.0,11.0,0.0
13250,62.0,0.0,270.0,3.0,0.0
13251,50.0,0.0,270.0,3.0,0.0
13252,90.0,0.0,180.0,0.0,0.0
13253,69.0,0.0,180.0,12.0,0.0
13254,78.0,0.0,90.0,10.0,0.0
13255,62.0,72.0,270.0,4.0,0.0
13256,74.0,0.0,270.0,4.0,0.0
13257,62.0,0.0,180.0,2.0,0.0
13258,50.0,36.0,390.0,5.0,0.0
13259,50.0,36.0,180.0,14.0,0.0
13260,86.0,0.0,180.0,1.0,0.0
13261,62.0,0.0,180.0,13.0,0.0
13262,78.0,84.0,90.0,11.0,0.0
13263,78.0,0.0,90.0,10.0,0.0
13264,78.0,48.0,90.0,11.0,0.0
13265,38.0,0.0,180.0,14.0,0.0
13266,50.0,0.0,180.0,13.0,0.0
13267,74.0,0.0,90.0,11.0,0.0
13268,74.0,0.0,180.0,0.0,0.0
13269,74.0,48.0,90.0,10.0,0.0
13270,50.0,36.0,180.0,2.0,0.0
13271,62.0,0.0,180.0,12.0,0.0
13272,74.0,0.0,180.0,1.0,0.0
13273,74.0,120.0,90.0,11.0,0.0
13274,74.0,0.0,90.0,10.0,0.0
13275,76.0,0.0,180.0,0.0,0.0
13276,76.0,0.0,90.0,10.0,0.0
13277,76.0,84.0,90.0,11.0,0.0
13278,52.0,0.0,180.0,2.0,0.0
13279,52.0,0.0,180.0,13.0,0.0
13280,64.0,0.0,180.0,12.0,0.0
13281,76.0,0.0,180.0,1.0,0.0
13282,40.0,36.0,180.0,14.0,0.0
13283,76.0,0.0,90.0,10.0,0.0
13284,76.0,120.0,90.0,11.0,0.0
13285,66.0,36.0,180.0,12.0,0.0
13286,54.0,0.0,180.0,2.0,0.0
13287,78.0,0.0,90.0,11.0,0.0
13288,78.0,0.0,180.0,0.0,0.0
13289,78.0,84.0,90.0,10.0,0.0
13290,42.0,0.0,180.0,14.0,0.0
13291,54.0,0.0,180.0,13.0,0.0
13292,78.0,0.0,180.0,1.0,0.0
13293,78.0,120.0,90.0,11.0,0.0
13294,78.0,0.0,90.0,10.0,0.0
13295,79.0,0.0,90.0,11.0,0.0
13296,67.0,0.0,180.0,12.0,0.0
13297,55.0,0.0,180.0,13.0,0.0
13298,43.0,0.0,180.0,14.0,0.0
13299,79.0,0.0,180.0,0.0,0.0
13300,79.0,0.0,180.0,1.0,0.0
13301,55.0,36.0,180.0,2.0,0.0
13302,79.0,84.0,90.0,10.0,0.0
13303,79.0,120.0,90.0,10.0,0.0
13304,79.0,0.0,90.0,11.0,0.0
13305,45.0,0.0,180.0,14.0,0.0
13306,69.0,0.0,180.0,12.0,0.0
13307,81.0,36.0,180.0,1.0,0.0
13308,57.0,0.0,180.0,2.0,0.0
13309,81.0,0.0,180.0,0.0,0.0
13310,81.0,0.0,90.0,11.0,0.0
13311,81.0,84.0,90.0,10.0,0.0
13312,57.0,0.0,180.0,13.0,0.0
13313,81.0,120.0,90.0,10.0,0.0
13314,81.0,0.0,90.0,11.0,0.0
13315,83.0,0.0,180.0,0.0,0.0
13316,83.0,84.0,90.0,11.0,0.0
13317,59.0,0.0,180.0,13.0,0.0
13318,83.0,0.0,180.0,1.0,0.0
13319,71.0,36.0,180.0,12.0,0.0
13320,59.0,0.0,180.0,2.0,0.0
13321,47.0,0.0,180.0,14.0,0.0
13322,83.0,0.0,90.0,10.0,0.0
13323,83.0,0.0,90.0,10.0,0.0
13324,83.0,120.0,90.0,11.0,0.0
13325,54.0,0.0,180.0,2.0,0.0
13326,42.0,36.0,180.0,14.0,0.0
13327,78.0,0.0,180.0,0.0,0.0
13328,54.0,0.0,180.0,13.0,0.0
13329,78.0,0.0,90.0,11.0,0.0
13330,78.0,0.0,180.0,1.0,0.0
13331,66.0,0.0,180.0,12.0,0.0
13332,78.0,84.0,90.0,10.0,0.0
13333,78.0,120.0,90.0,11.0,0.0
13334,78.0,0.0,90.0,10.0,0.0
13335,55.0,36.0,180.0,2.0,0.0
13336,79.0,84.0,90.0,10.0,0.0
13337,79.0,0.0,180.0,0.0,0.0
13338,55.0,0.0,180.0,13.0,0.0
13339,67.0,0.0,180.0,12.0,0.0
13340,79.0,0.0,90.0,11.0,0.0
13341,43.0,0.0,180.0,14.0,0.0
13342,79.0,0.0,180.0,1.0,0.0
13343,79.0,120.0,90.0,10.0,0.0
13344,79.0,0.0,90.0,11.0,0.0
13345,57.0,0.0,180.0,2.0,0.0
13346,69.0,0.0,180.0,12.0,0.0
13347,57.0,36.0,180.0,13.0,0.0
13348,81.0,0.0,180.0,1.0,0.0
13349,81.0,0.0,90.0,10.0,0.0
13350,81.0,0.0,180.0,0.0,0.0
13351,81.0,84.0,90.0,11.0,0.0
13352,45.0,0.0,180.0,14.0,0.0
13353,81.0,120.0,90.0,11.0,0.0
13354,81.0,0.0,90.0,10.0,0.0
13355,59.0,0.0,180.0,13.0,0.0
13356,59.0,0.0,180.0,2.0,0.0
13357,71.0,0.0,180.0,12.0,0.0
13358,83.0,0.0,180.0,1.0,0.0
13359,47.0,36.0,180.0,14.0,0.0
13360,83.0,84.0,90.0,10.0,0.0
13361,83.0,0.0,180.0,0.0,0.0
13362,83.0,0.0,90.0,11.0,0.0
13363,83.0,0.0,90.0,11.0,0.0
13364,83.0,120.0,90.0,10.0,0.0
13365,73.0,0.0,180.0,12.0,0.0
13366,61.0,0.0,180.0,2.0,0.0
13367,85.0,36.0,180.0,1.0,0.0
13368,85.0,0.0,90.0,11.0,0.0
13369,85.0,84.0,90.0,10.0,0.0
13370,85.0,0.0,180.0,0.0,0.0
13371,49.0,0.0,180.0,14.0,0.0
13372,61.0,0.0,180.0,13.0,0.0
13373,85.0,0.0,90.0,11.0,0.0
13374,85.0,168.0,90.0,10.0,0.0
13375,62.0,0.0,150.0,13.0,0.0
13376,62.0,216.0,150.0,2.0,0.0
13377,74.0,0.0,390.0,4.0,0.0
13378,50.0,0.0,150.0,14.0,0.0
13379,50.0,0.0,390.0,5.0,0.0
13380,86.0,0.0,150.0,11.0,0.0
13381,74.0,0.0,150.0,12.0,0.0
13382,86.0,0.0,150.0,10.0,0.0
13383,86.0,72.0,390.0,0.0,0.0
13384,86.0,0.0,390.0,1.0,0.0
13385,62.0,0.0,390.0,3.0,0.0
13386,52.0,0.0,120.0,14.0,0.0
13387,88.0,0.0,120.0,10.0,0.0
13388,88.0,24.0,120.0,11.0,0.0
13389,64.0,0.0,120.0,2.0,0.0
13390,76.0,0.0,120.0,12.0,0.0
13391,64.0,0.0,120.0,13.0,0.0
13392,61.0,168.0,90.0,2.0,0.0
13393,73.0,0.0,90.0,12.0,0.0
13394,49.0,0.0,90.0,14.0,0.0
13395,85.0,0.0,90.0,11.0,0.0
13396,85.0,0.0,90.0,10.0,0.0
13397,61.0,0.0,90.0,13.0,0.0
13398,86.0,0.0,150.0,11.0,0.0
13399,50.0,0.0,390.0,5.0,0.0
13400,86.0,0.0,150.0,10.0,0.0
13401,74.0,0.0,390.0,4.0,0.0
13402,50.0,0.0,150.0,14.0,0.0
13403,62.0,216.0,150.0,13.0,0.0
13404,62.0,72.0,390.0,3.0,0.0
13405,62.0,0.0,150.0,2.0,0.0
13406,74.0,0.0,150.0,12.0,0.0
13407,88.0,0.0,120.0,11.0,0.0
13408,52.0,0.0,120.0,14.0,0.0
13409,76.0,0.0,120.0,12.0,0.0
13410,64.0,24.0,120.0,2.0,0.0
13411,88.0,0.0,120.0,10.0,0.0
13412,64.0,0.0,120.0,13.0,0.0
13413,61.0,0.0,90.0,13.0,0.0
13414,73.0,0.0,90.0,12.0,0.0
13415,85.0,0.0,90.0,10.0,0.0
13416,85.0,0.0,90.0,11.0,0.0
13417,61.0,0.0,90.0,2.0,0.0
13418,49.0,168.0,90.0,14.0,0.0
13419,74.0,72.0,390.0,4.0,0.0
13420,86.0,0.0,150.0,10.0,0.0
13421,62.0,0.0,150.0,2.0,0.0
13422,62.0,0.0,390.0,3.0,0.0
13423,74.0,216.0,150.0,12.0,0.0
13424,50.0,0.0,150.0,14.0,0.0
13425,86.0,0.0,150.0,11.0,0.0
13426,50.0,0.0,390.0,5.0,0.0
13427,62.0,0.0,150.0,13.0,0.0
13428,64.0,24.0,120.0,13.0,0.0
13429,88.0,0.0,120.0,10.0,0.0
13430,88.0,0.0,120.0,11.0,0.0
13431,52.0,0.0,120.0,14.0,0.0
13432,64.0,0.0,120.0,2.0,0.0
13433,76.0,0.0,120.0,12.0,0.0
13434,49.0,0.0,90.0,14.0,0.0
13435,85.0,336.0,90.0,11.0,0.0
13436,73.0,0.0,90.0,12.0,0.0
13437,85.0,0.0,90.0,10.0,0.0
13438,61.0,0.0,90.0,2.0,0.0
13439,61.0,0.0,90.0,13.0,0.0
13440,74.0,408.0,390.0,4.0,0.0
13441,86.0,0.0,300.0,11.0,0.0
13442,74.0,0.0,300.0,12.0,0.0
13443,50.0,72.0,300.0,14.0,0.0
13444,78.0,0.0,390.0,1.0,0.0
13445,86.0,0.0,390.0,0.0,0.0
13446,86.0,0.0,300.0,10.0,0.0
13447,62.0,0.0,300.0,13.0,0.0
13448,62.0,0.0,300.0,2.0,0.0
13449,81.0,0.0,390.0,1.0,0.0
13450,50.0,0.0,390.0,5.0,0.0
13451,62.0,0.0,390.0,3.0,0.0
13452,81.0,0.0,390.0,1.0,0.0
13453,66.0,72.0,300.0,11.0,0.0
13454,86.0,0.0,390.0,0.0,0.0
13455,74.0,0.0,390.0,4.0,0.0
13456,74.0,0.0,300.0,11.0,0.0
13457,50.0,0.0,300.0,13.0,0.0
13458,62.0,0.0,300.0,12.0,0.0
13459,69.0,0.0,390.0,2.0,0.0
13460,66.0,0.0,390.0,2.0,0.0
13461,74.0,0.0,300.0,10.0,0.0
13462,78.0,0.0,390.0,1.0,0.0
13463,62.0,480.0,390.0,3.0,0.0
13464,66.0,0.0,300.0,10.0,0.0
13465,38.0,0.0,300.0,14.0,0.0
13466,78.0,0.0,390.0,1.0,0.0
13467,62.0,240.0,390.0,3.0,0.0
13468,69.0,0.0,390.0,2.0,0.0
13469,81.0,0.0,390.0,1.0,0.0
13470,86.0,0.0,390.0,0.0,0.0
13471,74.0,0.0,390.0,4.0,0.0
13472,66.0,0.0,390.0,2.0,0.0
13473,90.0,0.0,1800.0,0.0,0.0
13474,74.0,0.0,1800.0,4.0,0.0
13475,81.0,0.0,1800.0,4.0,0.0
13476,62.0,0.0,1800.0,3.0,0.0
13477,48.0,0.0,1800.0,2.0,0.0
13478,86.0,0.0,1800.0,1.0,0.0
13479,78.0,0.0,1800.0,1.0,0.0
13480,60.0,0.0,150.0,13.0,0.0
13481,69.0,24.0,1800.0,3.0,0.0
13482,72.0,216.0,150.0,12.0,0.0
13483,72.0,0.0,150.0,10.0,0.0
13484,50.0,72.0,390.0,5.0,0.0
13485,72.0,0.0,150.0,11.0,0.0
13486,48.0,0.0,150.0,14.0,0.0
13487,60.0,0.0,1800.0,2.0,0.0
13488,74.0,0.0,120.0,11.0,0.0
13489,74.0,0.0,120.0,12.0,0.0
13490,74.0,0.0,120.0,10.0,0.0
13491,50.0,0.0,120.0,14.0,0.0
13492,62.0,24.0,120.0,13.0,0.0
13493,71.0,168.0,90.0,10.0,0.0
13494,59.0,0.0,90.0,13.0,0.0
13495,71.0,0.0,90.0,11.0,0.0
13496,71.0,0.0,90.0,12.0,0.0
13497,47.0,0.0,90.0,14.0,0.0
13498,48.0,0.0,150.0,14.0,0.0
13499,72.0,0.0,150.0,11.0,0.0
13500,72.0,0.0,150.0,10.0,0.0
13501,60.0,216.0,150.0,13.0,0.0
13502,50.0,72.0,390.0,5.0,0.0
13503,72.0,0.0,150.0,12.0,0.0
13504,62.0,0.0,120.0,13.0,0.0
13505,74.0,0.0,120.0,10.0,0.0
13506,74.0,0.0,120.0,12.0,0.0
13507,74.0,24.0,120.0,11.0,0.0
13508,50.0,0.0,120.0,14.0,0.0
13509,59.0,0.0,90.0,13.0,0.0
13510,47.0,0.0,90.0,14.0,0.0
13511,71.0,168.0,90.0,12.0,0.0
13512,71.0,0.0,90.0,11.0,0.0
13513,71.0,0.0,90.0,10.0,0.0
13514,60.0,0.0,150.0,13.0,0.0
13515,48.0,216.0,150.0,14.0,0.0
13516,72.0,0.0,150.0,10.0,0.0
13517,72.0,0.0,150.0,11.0,0.0
13518,72.0,0.0,150.0,12.0,0.0
13519,50.0,72.0,390.0,5.0,0.0
13520,74.0,24.0,120.0,12.0,0.0
13521,50.0,0.0,120.0,14.0,0.0
13522,74.0,0.0,120.0,10.0,0.0
13523,62.0,0.0,120.0,13.0,0.0
13524,74.0,0.0,120.0,11.0,0.0
13525,59.0,0.0,90.0,13.0,0.0
13526,71.0,0.0,90.0,10.0,0.0
13527,71.0,0.0,90.0,11.0,0.0
13528,71.0,0.0,90.0,12.0,0.0
13529,47.0,336.0,90.0,14.0,0.0
13530,50.0,408.0,390.0,5.0,0.0
13531,60.0,0.0,300.0,13.0,0.0
13532,72.0,48.0,300.0,11.0,0.0
13533,72.0,0.0,300.0,12.0,0.0
13534,48.0,0.0,300.0,14.0,0.0
13535,72.0,0.0,300.0,10.0,0.0
13536,86.0,480.0,360.0,0.0,0.0
13537,81.0,0.0,360.0,1.0,0.0
13538,48.0,0.0,300.0,13.0,0.0
13539,60.0,0.0,360.0,2.0,0.0
13540,48.0,0.0,360.0,2.0,0.0
13541,36.0,0.0,300.0,14.0,0.0
13542,78.0,0.0,360.0,1.0,0.0
13543,60.0,0.0,300.0,12.0,0.0
13544,60.0,48.0,300.0,10.0,0.0
13545,60.0,0.0,300.0,11.0,0.0
13546,74.0,0.0,360.0,4.0,0.0
13547,81.0,0.0,360.0,4.0,0.0
13548,62.0,0.0,360.0,3.0,0.0
13549,69.0,0.0,360.0,3.0,0.0
13550,81.0,0.0,360.0,1.0,0.0
13551,81.0,264.0,360.0,4.0,0.0
13552,74.0,0.0,360.0,4.0,0.0
13553,62.0,0.0,360.0,3.0,0.0
13554,69.0,0.0,360.0,3.0,0.0
13555,48.0,0.0,360.0,2.0,0.0
13556,60.0,0.0,360.0,2.0,0.0
13557,86.0,0.0,360.0,0.0,0.0
13558,78.0,0.0,360.0,1.0,0.0
13559,71.0,0.0,150.0,10.0,0.0
13560,91.0,0.0,1800.0,0.0,0.0
13561,83.0,0.0,1800.0,1.0,0.0
13562,86.0,0.0,1800.0,1.0,0.0
13563,71.0,0.0,150.0,11.0,0.0
13564,59.0,0.0,1800.0,2.0,0.0
13565,47.0,0.0,1800.0,2.0,0.0
13566,71.0,216.0,150.0,12.0,0.0
13567,83.0,0.0,1800.0,4.0,0.0
13568,67.0,0.0,1800.0,3.0,0.0
13569,71.0,0.0,1800.0,3.0,0.0
13570,47.0,0.0,150.0,14.0,0.0
13571,50.0,72.0,390.0,5.0,0.0
13572,79.0,24.0,1800.0,4.0,0.0
13573,59.0,0.0,150.0,13.0,0.0
13574,72.0,0.0,120.0,11.0,0.0
13575,48.0,0.0,120.0,14.0,0.0
13576,72.0,0.0,120.0,10.0,0.0
13577,60.0,24.0,120.0,13.0,0.0
13578,72.0,0.0,120.0,12.0,0.0
13579,69.0,0.0,90.0,11.0,0.0
13580,69.0,0.0,90.0,10.0,0.0
13581,69.0,168.0,90.0,12.0,0.0
13582,57.0,0.0,90.0,13.0,0.0
13583,45.0,0.0,90.0,14.0,0.0
13584,71.0,0.0,150.0,10.0,0.0
13585,71.0,0.0,150.0,11.0,0.0
13586,50.0,72.0,390.0,5.0,0.0
13587,47.0,216.0,150.0,14.0,0.0
13588,59.0,0.0,150.0,13.0,0.0
13589,71.0,0.0,150.0,12.0,0.0
13590,72.0,0.0,120.0,12.0,0.0
13591,72.0,24.0,120.0,10.0,0.0
13592,48.0,0.0,120.0,14.0,0.0
13593,72.0,0.0,120.0,11.0,0.0
13594,60.0,0.0,120.0,13.0,0.0
13595,69.0,168.0,90.0,12.0,0.0
13596,69.0,0.0,90.0,11.0,0.0
13597,69.0,0.0,90.0,10.0,0.0
13598,57.0,0.0,90.0,13.0,0.0
13599,45.0,0.0,90.0,14.0,0.0
13600,47.0,0.0,150.0,14.0,0.0
13601,50.0,72.0,390.0,5.0,0.0
13602,59.0,0.0,150.0,13.0,0.0
13603,71.0,0.0,150.0,11.0,0.0
13604,71.0,0.0,150.0,12.0,0.0
13605,71.0,216.0,150.0,10.0,0.0
13606,72.0,0.0,120.0,12.0,0.0
13607,60.0,0.0,120.0,13.0,0.0
13608,48.0,0.0,120.0,14.0,0.0
13609,72.0,0.0,120.0,11.0,0.0
13610,72.0,24.0,120.0,10.0,0.0
13611,57.0,0.0,90.0,13.0,0.0
13612,69.0,0.0,90.0,11.0,0.0
13613,45.0,0.0,90.0,14.0,0.0
13614,69.0,0.0,90.0,10.0,0.0
13615,69.0,336.0,90.0,12.0,0.0
13616,71.0,0.0,300.0,12.0,0.0
13617,47.0,0.0,300.0,14.0,0.0
13618,71.0,0.0,300.0,11.0,0.0
13619,50.0,408.0,390.0,5.0,0.0
13620,59.0,48.0,300.0,13.0,0.0
13621,71.0,0.0,300.0,10.0,0.0
13622,59.0,0.0,300.0,10.0,0.0
13623,59.0,48.0,300.0,12.0,0.0
13624,47.0,0.0,300.0,13.0,0.0
13625,74.0,0.0,360.0,4.0,0.0
13626,86.0,0.0,360.0,0.0,0.0
13627,35.0,0.0,300.0,14.0,0.0
13628,83.0,0.0,360.0,1.0,0.0
13629,79.0,0.0,360.0,1.0,0.0
13630,67.0,0.0,360.0,3.0,0.0
13631,62.0,0.0,360.0,3.0,0.0
13632,59.0,0.0,300.0,11.0,0.0
13633,59.0,0.0,360.0,2.0,0.0
13634,47.0,480.0,360.0,2.0,0.0
13635,79.0,0.0,360.0,4.0,0.0
13636,83.0,0.0,360.0,1.0,0.0
13637,47.0,0.0,360.0,2.0,0.0
13638,59.0,264.0,360.0,2.0,0.0
13639,67.0,0.0,360.0,3.0,0.0
13640,79.0,0.0,360.0,4.0,0.0
13641,74.0,0.0,360.0,4.0,0.0
13642,79.0,0.0,360.0,1.0,0.0
13643,62.0,0.0,360.0,3.0,0.0
13644,86.0,0.0,360.0,0.0,0.0
13645,45.0,0.0,150.0,14.0,0.0
13646,74.0,0.0,1800.0,4.0,0.0
13647,62.0,0.0,1800.0,3.0,0.0
13648,69.0,0.0,150.0,10.0,0.0
13649,93.0,0.0,1800.0,0.0,0.0
13650,50.0,72.0,390.0,5.0,0.0
13651,60.0,168.0,1140.0,2.0,0.0
13652,66.0,24.0,1800.0,2.0,0.0
13653,50.0,0.0,1800.0,3.0,0.0
13654,62.0,0.0,1800.0,4.0,0.0
13655,57.0,0.0,150.0,13.0,0.0
13656,69.0,216.0,150.0,11.0,0.0
13657,78.0,0.0,2880.0,1.0,0.0
13658,84.0,0.0,1800.0,1.0,0.0
13659,69.0,0.0,150.0,12.0,0.0
13660,71.0,24.0,120.0,12.0,0.0
13661,59.0,0.0,120.0,13.0,0.0
13662,71.0,0.0,120.0,10.0,0.0
13663,71.0,0.0,120.0,11.0,0.0
13664,47.0,0.0,120.0,14.0,0.0
13665,67.0,0.0,90.0,12.0,0.0
13666,67.0,0.0,90.0,11.0,0.0
13667,67.0,0.0,90.0,10.0,0.0
13668,43.0,168.0,90.0,14.0,0.0
13669,55.0,0.0,90.0,13.0,0.0
13670,45.0,0.0,150.0,14.0,0.0
13671,69.0,216.0,150.0,10.0,0.0
13672,69.0,0.0,150.0,12.0,0.0
13673,69.0,0.0,150.0,11.0,0.0
13674,57.0,0.0,150.0,13.0,0.0
13675,50.0,72.0,390.0,5.0,0.0
13676,71.0,0.0,120.0,11.0,0.0
13677,47.0,0.0,120.0,14.0,0.0
13678,71.0,0.0,120.0,10.0,0.0
13679,59.0,24.0,120.0,13.0,0.0
13680,71.0,0.0,120.0,12.0,0.0
13681,67.0,0.0,90.0,10.0,0.0
13682,55.0,0.0,90.0,13.0,0.0
13683,67.0,0.0,90.0,12.0,0.0
13684,43.0,0.0,90.0,14.0,0.0
13685,67.0,168.0,90.0,11.0,0.0
13686,50.0,72.0,390.0,5.0,0.0
13687,69.0,0.0,150.0,12.0,0.0
13688,69.0,0.0,150.0,11.0,0.0
13689,69.0,48.0,150.0,10.0,0.0
13690,45.0,0.0,150.0,14.0,0.0
13691,57.0,0.0,150.0,13.0,0.0
13692,59.0,0.0,120.0,13.0,0.0
13693,71.0,0.0,120.0,10.0,0.0
13694,47.0,0.0,120.0,14.0,0.0
13695,71.0,0.0,120.0,11.0,0.0
13696,71.0,24.0,120.0,12.0,0.0
13697,67.0,0.0,90.0,11.0,0.0
13698,67.0,0.0,90.0,12.0,0.0
13699,55.0,336.0,90.0,13.0,0.0
13700,43.0,0.0,90.0,14.0,0.0
13701,67.0,0.0,90.0,10.0,0.0
13702,69.0,0.0,300.0,12.0,0.0
13703,45.0,0.0,300.0,14.0,0.0
13704,57.0,0.0,360.0,2.0,0.0
13705,69.0,48.0,300.0,11.0,0.0
13706,50.0,36.0,390.0,5.0,0.0
13707,57.0,0.0,300.0,13.0,0.0
13708,69.0,0.0,300.0,10.0,0.0
13709,83.0,60.0,60.0,1.0,0.0
13710,84.0,312.0,60.0,1.0,0.0
13711,74.0,48.0,300.0,10.0,0.0
13712,84.0,0.0,300.0,10.0,0.0
13713,74.0,0.0,390.0,11.0,0.0
13714,66.0,0.0,300.0,10.0,0.0
13715,45.0,0.0,390.0,13.0,0.0
13716,66.0,0.0,390.0,11.0,0.0
13717,84.0,0.0,390.0,11.0,0.0
13718,45.0,0.0,360.0,2.0,0.0
13719,33.0,96.0,390.0,14.0,0.0
13720,57.0,24.0,360.0,2.0,0.0
13721,86.0,360.0,480.0,1.0,0.0
13722,62.0,0.0,360.0,4.0,0.0
13723,90.0,0.0,360.0,0.0,0.0
13724,50.0,0.0,360.0,3.0,0.0
13725,57.0,0.0,390.0,12.0,0.0
13726,62.0,0.0,360.0,3.0,0.0
13727,74.0,0.0,360.0,4.0,0.0
13728,57.0,0.0,360.0,2.0,0.0
13729,45.0,0.0,360.0,2.0,0.0
13730,84.0,192.0,480.0,1.0,0.0
13731,86.0,0.0,360.0,0.0,0.0
13732,74.0,0.0,360.0,4.0,0.0
13733,50.0,0.0,360.0,3.0,0.0
13734,62.0,0.0,360.0,3.0,0.0
13735,62.0,120.0,360.0,4.0,0.0
13736,55.0,0.0,1140.0,12.0,0.0
13737,59.0,0.0,1140.0,11.0,0.0
13738,67.0,240.0,1140.0,10.0,0.0
13739,83.0,48.0,390.0,1.0,0.0
13740,79.0,0.0,390.0,1.0,0.0
13741,67.0,192.0,1440.0,3.0,0.0
13742,55.0,0.0,1440.0,3.0,0.0
13743,67.0,0.0,1140.0,11.0,0.0
13744,43.0,192.0,180.0,14.0,0.0
13745,91.0,0.0,390.0,0.0,0.0
13746,55.0,0.0,390.0,2.0,0.0
13747,79.0,0.0,1140.0,4.0,0.0
13748,67.0,0.0,1140.0,4.0,0.0
13749,55.0,0.0,390.0,5.0,0.0
13750,43.0,0.0,180.0,13.0,0.0
13751,59.0,0.0,1140.0,10.0,0.0
13752,43.0,0.0,390.0,2.0,0.0
13753,43.0,0.0,180.0,14.0,0.0
13754,55.0,240.0,180.0,13.0,0.0
13755,43.0,0.0,180.0,14.0,0.0
13756,55.0,240.0,180.0,13.0,0.0
13757,43.0,0.0,180.0,14.0,0.0
13758,55.0,240.0,180.0,13.0,0.0
13759,43.0,0.0,180.0,14.0,0.0
13760,55.0,0.0,180.0,13.0,0.0
13761,43.0,0.0,180.0,14.0,0.0
13762,55.0,48.0,180.0,13.0,0.0
13763,55.0,48.0,390.0,13.0,0.0
13764,79.0,144.0,240.0,10.0,0.0
13765,64.0,0.0,240.0,11.0,0.0
13766,67.0,0.0,2820.0,3.0,0.0
13767,55.0,24.0,2820.0,3.0,0.0
13768,43.0,48.0,180.0,14.0,0.0
13769,43.0,48.0,180.0,14.0,0.0
13770,67.0,0.0,240.0,11.0,0.0
13771,83.0,192.0,240.0,10.0,0.0
13772,43.0,48.0,180.0,14.0,0.0
13773,66.0,192.0,240.0,11.0,0.0
13774,81.0,0.0,240.0,10.0,0.0
13775,62.0,192.0,240.0,11.0,0.0
13776,43.0,48.0,180.0,14.0,0.0
13777,78.0,0.0,240.0,10.0,0.0
13778,76.0,192.0,240.0,10.0,0.0
13779,43.0,48.0,180.0,14.0,0.0
13780,60.0,0.0,240.0,11.0,0.0
13781,43.0,48.0,180.0,14.0,0.0
13782,64.0,0.0,240.0,11.0,0.0
13783,79.0,192.0,240.0,10.0,0.0
13784,62.0,192.0,240.0,11.0,0.0
13785,43.0,48.0,180.0,14.0,0.0
13786,78.0,0.0,240.0,10.0,0.0
13787,43.0,48.0,180.0,14.0,0.0
13788,74.0,192.0,240.0,10.0,0.0
13789,59.0,0.0,240.0,11.0,0.0
13790,43.0,48.0,180.0,14.0,0.0
13791,72.0,192.0,240.0,10.0,0.0
13792,64.0,0.0,240.0,11.0,0.0
13793,60.0,192.0,240.0,11.0,0.0
13794,76.0,0.0,240.0,10.0,0.0
13795,43.0,48.0,180.0,14.0,0.0
13796,43.0,48.0,180.0,14.0,0.0
13797,74.0,168.0,240.0,10.0,0.0
13798,59.0,0.0,240.0,11.0,0.0
13799,43.0,240.0,180.0,14.0,0.0
13800,71.0,0.0,180.0,10.0,0.0
13801,62.0,0.0,180.0,11.0,0.0
13802,84.0,0.0,360.0,1.0,0.0
13803,81.0,0.0,360.0,1.0,0.0
13804,54.0,120.0,240.0,13.0,0.0
13805,55.0,24.0,2820.0,3.0,0.0
13806,43.0,48.0,180.0,14.0,0.0
13807,60.0,72.0,360.0,2.0,0.0
13808,69.0,0.0,360.0,2.0,0.0
13809,86.0,0.0,360.0,0.0,0.0
13810,43.0,48.0,180.0,14.0,0.0
13811,55.0,192.0,240.0,13.0,0.0
13812,43.0,48.0,180.0,14.0,0.0
13813,57.0,120.0,240.0,13.0,0.0
13814,60.0,0.0,360.0,2.0,0.0
13815,81.0,0.0,360.0,1.0,0.0
13816,84.0,72.0,360.0,1.0,0.0
13817,69.0,0.0,360.0,2.0,0.0
13818,86.0,0.0,360.0,0.0,0.0
13819,59.0,192.0,240.0,13.0,0.0
13820,43.0,48.0,180.0,14.0,0.0
13821,60.0,120.0,240.0,13.0,0.0
13822,69.0,0.0,360.0,2.0,0.0
13823,60.0,0.0,360.0,2.0,0.0
13824,43.0,48.0,180.0,14.0,0.0
13825,81.0,0.0,360.0,1.0,0.0
13826,86.0,72.0,360.0,0.0,0.0
13827,84.0,0.0,360.0,1.0,0.0
13828,43.0,48.0,180.0,14.0,0.0
13829,61.0,192.0,240.0,13.0,0.0
13830,62.0,192.0,240.0,13.0,0.0
13831,43.0,48.0,180.0,14.0,0.0
13832,86.0,120.0,720.0,0.0,0.0
13833,69.0,192.0,960.0,2.0,0.0
13834,81.0,0.0,960.0,1.0,0.0
13835,84.0,0.0,960.0,1.0,0.0
13836,60.0,0.0,960.0,2.0,0.0
13837,43.0,48.0,180.0,14.0,0.0
13838,63.0,192.0,240.0,13.0,0.0
13839,43.0,48.0,180.0,14.0,0.0
13840,64.0,0.0,240.0,13.0,0.0
13841,66.0,0.0,240.0,13.0,0.0
13842,43.0,48.0,180.0,14.0,0.0
13843,88.0,72.0,120.0,0.0,0.0
13844,86.0,0.0,120.0,0.0,0.0
13845,69.0,0.0,240.0,13.0,0.0
13846,83.0,0.0,180.0,1.0,0.0
13847,79.0,0.0,180.0,1.0,0.0
13848,67.0,0.0,180.0,2.0,0.0
13849,59.0,48.0,180.0,2.0,0.0
13850,43.0,0.0,180.0,14.0,0.0
13851,91.0,168.0,240.0,0.0,0.0
13852,67.0,240.0,180.0,13.0,0.0
13853,43.0,0.0,180.0,14.0,0.0
13854,71.0,192.0,240.0,11.0,0.0
13855,43.0,48.0,180.0,14.0,0.0
13856,86.0,0.0,240.0,10.0,0.0
13857,55.0,0.0,5460.0,3.0,0.0
13858,43.0,0.0,5460.0,3.0,0.0
13859,91.0,0.0,240.0,10.0,0.0
13860,73.0,192.0,240.0,11.0,0.0
13861,43.0,48.0,180.0,14.0,0.0
13862,43.0,48.0,180.0,14.0,0.0
13863,90.0,0.0,240.0,10.0,0.0
13864,74.0,192.0,240.0,11.0,0.0
13865,43.0,48.0,180.0,14.0,0.0
13866,83.0,0.0,240.0,10.0,0.0
13867,67.0,192.0,240.0,11.0,0.0
13868,84.0,192.0,240.0,10.0,0.0
13869,69.0,0.0,240.0,11.0,0.0
13870,43.0,48.0,180.0,14.0,0.0
13871,70.0,0.0,240.0,11.0,0.0
13872,43.0,48.0,180.0,14.0,0.0
13873,88.0,192.0,240.0,10.0,0.0
13874,43.0,48.0,180.0,14.0,0.0
13875,71.0,192.0,240.0,11.0,0.0
13876,86.0,0.0,240.0,10.0,0.0
13877,64.0,192.0,240.0,11.0,0.0
13878,43.0,48.0,180.0,14.0,0.0
13879,79.0,0.0,240.0,10.0,0.0
13880,43.0,48.0,180.0,14.0,0.0
13881,81.0,192.0,240.0,10.0,0.0
13882,65.0,0.0,240.0,11.0,0.0
13883,66.0,0.0,240.0,11.0,0.0
13884,43.0,48.0,180.0,14.0,0.0
13885,84.0,192.0,240.0,10.0,0.0
13886,67.0,0.0,240.0,11.0,0.0
13887,43.0,48.0,180.0,14.0,0.0
13888,83.0,192.0,240.0,10.0,0.0
13889,86.0,0.0,180.0,10.0,0.0
13890,71.0,0.0,180.0,11.0,0.0
13891,43.0,240.0,180.0,14.0,0.0
13892,84.0,0.0,360.0,1.0,0.0
13893,86.0,0.0,360.0,0.0,0.0
13894,54.0,120.0,240.0,13.0,0.0
13895,81.0,0.0,360.0,1.0,0.0
13896,69.0,72.0,360.0,2.0,0.0
13897,60.0,0.0,360.0,2.0,0.0
13898,43.0,48.0,180.0,14.0,0.0
13899,55.0,192.0,240.0,13.0,0.0
13900,43.0,48.0,180.0,14.0,0.0
13901,86.0,0.0,360.0,0.0,0.0
13902,60.0,72.0,360.0,2.0,0.0
13903,69.0,0.0,360.0,2.0,0.0
13904,57.0,120.0,240.0,13.0,0.0
13905,43.0,48.0,180.0,14.0,0.0
13906,81.0,0.0,360.0,1.0,0.0
13907,84.0,0.0,360.0,1.0,0.0
13908,43.0,48.0,180.0,14.0,0.0
13909,59.0,192.0,240.0,13.0,0.0
13910,43.0,48.0,180.0,14.0,0.0
13911,60.0,72.0,360.0,2.0,0.0
13912,60.0,120.0,240.0,13.0,0.0
13913,86.0,0.0,360.0,0.0,0.0
13914,81.0,0.0,360.0,1.0,0.0
13915,84.0,0.0,360.0,1.0,0.0
13916,69.0,0.0,360.0,2.0,0.0
13917,61.0,192.0,240.0,13.0,0.0
13918,43.0,48.0,180.0,14.0,0.0
13919,81.0,0.0,960.0,1.0,0.0
13920,84.0,0.0,960.0,1.0,0.0
13921,86.0,0.0,720.0,0.0,0.0
13922,62.0,192.0,240.0,13.0,0.0
13923,69.0,192.0,960.0,2.0,0.0
13924,60.0,0.0,960.0,2.0,0.0
13925,43.0,48.0,180.0,14.0,0.0
13926,63.0,192.0,240.0,13.0,0.0
13927,43.0,48.0,180.0,14.0,0.0
13928,43.0,48.0,180.0,14.0,0.0
13929,64.0,120.0,240.0,13.0,0.0
13930,43.0,48.0,180.0,14.0,0.0
13931,88.0,72.0,120.0,0.0,0.0
13932,66.0,0.0,240.0,13.0,0.0
13933,86.0,0.0,120.0,0.0,0.0
13934,79.0,48.0,180.0,1.0,0.0
13935,83.0,0.0,180.0,1.0,0.0
13936,69.0,0.0,240.0,13.0,0.0
13937,67.0,0.0,180.0,2.0,0.0
13938,59.0,0.0,180.0,2.0,0.0
13939,43.0,0.0,180.0,14.0,0.0
13940,91.0,192.0,240.0,0.0,0.0
13941,67.0,528.0,180.0,13.0,0.0
13942,86.0,480.0,480.0,1.0,0.0
13943,83.0,0.0,480.0,1.0,0.0
13944,81.0,0.0,480.0,1.0,0.0
13945,84.0,384.0,480.0,1.0,0.0
13946,83.0,0.0,390.0,1.0,0.0
13947,80.0,816.0,390.0,1.0,0.0
13948,40.0,0.0,960.0,14.0,0.0
13949,83.0,192.0,960.0,1.0,0.0
13950,59.0,0.0,960.0,2.0,0.0
13951,64.0,0.0,960.0,12.0,0.0
13952,89.0,120.0,720.0,0.0,0.0
13953,62.0,0.0,960.0,2.0,0.0
13954,52.0,0.0,960.0,13.0,0.0
13955,80.0,0.0,960.0,1.0,0.0
13956,88.0,120.0,120.0,0.0,0.0
13957,86.0,0.0,120.0,0.0,0.0
13958,57.0,0.0,240.0,13.0,0.0
13959,57.0,0.0,180.0,2.0,0.0
13960,69.0,0.0,240.0,12.0,0.0
13961,45.0,0.0,240.0,14.0,0.0
13962,81.0,48.0,180.0,1.0,0.0
13963,84.0,0.0,180.0,1.0,0.0
13964,60.0,0.0,180.0,2.0,0.0
13965,84.0,720.0,240.0,0.0,0.0
13966,84.0,0.0,480.0,1.0,0.0
13967,81.0,480.0,480.0,1.0,0.0
13968,83.0,0.0,480.0,1.0,0.0
13969,79.0,384.0,480.0,1.0,0.0
13970,78.0,0.0,390.0,1.0,0.0
13971,81.0,816.0,390.0,1.0,0.0
13972,50.0,0.0,960.0,13.0,0.0
13973,62.0,192.0,960.0,12.0,0.0
13974,38.0,0.0,960.0,14.0,0.0
13975,57.0,0.0,960.0,2.0,0.0
13976,60.0,0.0,960.0,2.0,0.0
13977,78.0,0.0,960.0,1.0,0.0
13978,81.0,0.0,960.0,1.0,0.0
13979,88.0,120.0,720.0,0.0,0.0
13980,86.0,120.0,120.0,0.0,0.0
13981,84.0,0.0,120.0,0.0,0.0
13982,79.0,0.0,180.0,1.0,0.0
13983,43.0,0.0,240.0,14.0,0.0
13984,55.0,0.0,240.0,13.0,0.0
13985,83.0,432.0,240.0,0.0,0.0
13986,59.0,0.0,180.0,2.0,0.0
13987,55.0,0.0,180.0,2.0,0.0
13988,67.0,0.0,240.0,12.0,0.0
13989,83.0,48.0,180.0,1.0,0.0
13990,59.0,192.0,1440.0,12.0,0.0
13991,71.0,0.0,1440.0,11.0,0.0
13992,43.0,480.0,180.0,7.0,0.0
13993,79.0,0.0,1440.0,10.0,0.0
13994,67.0,0.0,1440.0,12.0,0.0
13995,55.0,0.0,180.0,6.0,0.0
13996,59.0,0.0,180.0,6.0,0.0
13997,47.0,480.0,180.0,7.0,0.0
13998,55.0,288.0,180.0,6.0,0.0
13999,43.0,0.0,180.0,7.0,0.0
14000,81.0,0.0,1380.0,10.0,0.0
14001,74.0,0.0,1380.0,11.0,0.0
14002,42.0,0.0,180.0,7.0,0.0
14003,54.0,480.0,180.0,6.0,0.0
14004,62.0,264.0,1380.0,12.0,0.0
14005,69.0,0.0,1380.0,12.0,0.0
14006,50.0,0.0,180.0,6.0,0.0
14007,38.0,480.0,180.0,7.0,0.0
14008,54.0,216.0,180.0,6.0,0.0
14009,42.0,0.0,180.0,7.0,0.0
14010,83.0,0.0,480.0,10.0,0.0
14011,55.0,288.0,180.0,6.0,0.0
14012,43.0,0.0,180.0,7.0,0.0
14013,71.0,0.0,480.0,12.0,0.0
14014,67.0,480.0,480.0,12.0,0.0
14015,79.0,0.0,480.0,11.0,0.0
14016,84.0,0.0,480.0,11.0,0.0
14017,76.0,0.0,480.0,12.0,0.0
14018,88.0,0.0,480.0,10.0,0.0
14019,72.0,192.0,480.0,12.0,0.0
14020,83.0,0.0,390.0,11.0,0.0
14021,43.0,0.0,180.0,7.0,0.0
14022,74.0,0.0,390.0,12.0,0.0
14023,71.0,0.0,390.0,12.0,0.0
14024,86.0,288.0,390.0,10.0,0.0
14025,55.0,192.0,180.0,6.0,0.0
14026,71.0,0.0,240.0,12.0,0.0
14027,48.0,0.0,180.0,7.0,0.0
14028,83.0,0.0,240.0,11.0,0.0
14029,60.0,48.0,180.0,6.0,0.0
14030,86.0,0.0,240.0,10.0,0.0
14031,74.0,192.0,240.0,12.0,0.0
14032,81.0,0.0,180.0,11.0,0.0
14033,72.0,0.0,180.0,12.0,0.0
14034,69.0,0.0,180.0,12.0,0.0
14035,84.0,240.0,180.0,10.0,0.0
14036,84.0,0.0,240.0,10.0,0.0
14037,72.0,0.0,240.0,12.0,0.0
14038,62.0,48.0,180.0,6.0,0.0
14039,50.0,0.0,180.0,7.0,0.0
14040,69.0,192.0,240.0,12.0,0.0
14041,81.0,0.0,240.0,11.0,0.0
14042,79.0,0.0,180.0,11.0,0.0
14043,83.0,240.0,180.0,10.0,0.0
14044,67.0,0.0,180.0,12.0,0.0
14045,71.0,0.0,180.0,12.0,0.0
14046,38.0,48.0,180.0,7.0,0.0
14047,83.0,0.0,240.0,10.0,0.0
14048,67.0,0.0,240.0,12.0,0.0
14049,50.0,0.0,180.0,6.0,0.0
14050,71.0,0.0,240.0,12.0,0.0
14051,79.0,192.0,240.0,11.0,0.0
14052,81.0,0.0,180.0,10.0,0.0
14053,69.0,0.0,180.0,12.0,0.0
14054,66.0,240.0,180.0,12.0,0.0
14055,78.0,0.0,180.0,11.0,0.0
14056,78.0,0.0,960.0,11.0,0.0
14057,81.0,0.0,720.0,10.0,0.0
14058,43.0,0.0,180.0,7.0,0.0
14059,66.0,0.0,960.0,12.0,0.0
14060,55.0,480.0,180.0,6.0,0.0
14061,69.0,240.0,720.0,12.0,0.0
14062,38.0,48.0,180.0,7.0,0.0
14063,50.0,0.0,180.0,6.0,0.0
14064,70.0,0.0,240.0,12.0,0.0
14065,82.0,192.0,240.0,10.0,0.0
14066,43.0,0.0,180.0,7.0,0.0
14067,83.0,624.0,240.0,10.0,0.0
14068,43.0,0.0,180.0,6.0,0.0
14069,71.0,0.0,180.0,12.0,0.0
14070,79.0,0.0,180.0,11.0,0.0
14071,67.0,48.0,180.0,12.0,0.0
14072,67.0,144.0,1440.0,3.0,0.0
14073,91.0,480.0,480.0,0.0,0.0
14074,79.0,0.0,480.0,10.0,0.0
14075,70.0,144.0,1140.0,12.0,0.0
14076,67.0,0.0,1440.0,1.0,0.0
14077,79.0,0.0,1440.0,1.0,0.0
14078,55.0,0.0,1440.0,3.0,0.0
14079,55.0,96.0,390.0,5.0,0.0
14080,43.0,0.0,1440.0,2.0,0.0
14081,55.0,0.0,1440.0,2.0,0.0
14082,40.0,0.0,1440.0,14.0,0.0
14083,67.0,0.0,1440.0,4.0,0.0
14084,79.0,0.0,1440.0,4.0,0.0
14085,67.0,0.0,480.0,11.0,0.0
14086,52.0,0.0,1440.0,13.0,0.0
14087,76.0,0.0,480.0,10.0,0.0
14088,88.0,0.0,480.0,0.0,0.0
14089,64.0,192.0,480.0,11.0,0.0
14090,73.0,0.0,390.0,10.0,0.0
14091,85.0,72.0,390.0,0.0,0.0
14092,61.0,0.0,390.0,11.0,0.0
14093,69.0,48.0,90.0,12.0,0.0
14094,67.0,24.0,90.0,12.0,0.0
14095,74.0,0.0,1380.0,4.0,0.0
14096,81.0,0.0,1380.0,1.0,0.0
14097,93.0,0.0,150.0,0.0,0.0
14098,69.0,240.0,150.0,11.0,0.0
14099,72.0,0.0,390.0,12.0,0.0
14100,54.0,0.0,1380.0,13.0,0.0
14101,81.0,0.0,150.0,10.0,0.0
14102,50.0,240.0,390.0,5.0,0.0
14103,74.0,0.0,1380.0,1.0,0.0
14104,50.0,216.0,1380.0,2.0,0.0
14105,69.0,0.0,1380.0,3.0,0.0
14106,62.0,0.0,1380.0,3.0,0.0
14107,42.0,0.0,1380.0,14.0,0.0
14108,57.0,0.0,1380.0,2.0,0.0
14109,62.0,0.0,1380.0,4.0,0.0
14110,79.0,0.0,150.0,10.0,0.0
14111,91.0,0.0,150.0,0.0,0.0
14112,67.0,0.0,150.0,11.0,0.0
14113,69.0,0.0,390.0,12.0,0.0
14114,90.0,0.0,150.0,0.0,0.0
14115,78.0,0.0,150.0,10.0,0.0
14116,66.0,240.0,150.0,11.0,0.0
14117,64.0,240.0,150.0,11.0,0.0
14118,88.0,0.0,150.0,0.0,0.0
14119,76.0,0.0,150.0,10.0,0.0
14120,62.0,0.0,150.0,11.0,0.0
14121,62.0,0.0,390.0,12.0,0.0
14122,74.0,0.0,150.0,10.0,0.0
14123,86.0,240.0,150.0,0.0,0.0
14124,84.0,0.0,150.0,0.0,0.0
14125,60.0,0.0,150.0,11.0,0.0
14126,72.0,24.0,150.0,10.0,0.0
14127,55.0,0.0,390.0,5.0,0.0
14128,67.0,0.0,390.0,3.0,0.0
14129,71.0,0.0,390.0,3.0,0.0
14130,83.0,144.0,480.0,1.0,0.0
14131,43.0,0.0,390.0,14.0,0.0
14132,67.0,0.0,390.0,4.0,0.0
14133,55.0,0.0,390.0,13.0,0.0
14134,55.0,0.0,480.0,2.0,0.0
14135,79.0,0.0,480.0,1.0,0.0
14136,59.0,0.0,480.0,2.0,0.0
14137,83.0,0.0,150.0,0.0,0.0
14138,74.0,0.0,390.0,4.0,0.0
14139,67.0,0.0,390.0,12.0,0.0
14140,59.0,0.0,150.0,11.0,0.0
14141,71.0,240.0,150.0,10.0,0.0
14142,79.0,0.0,150.0,10.0,0.0
14143,67.0,96.0,150.0,11.0,0.0
14144,91.0,0.0,150.0,0.0,0.0
14145,88.0,144.0,480.0,1.0,0.0
14146,60.0,0.0,480.0,2.0,0.0
14147,64.0,0.0,480.0,2.0,0.0
14148,79.0,0.0,150.0,10.0,0.0
14149,91.0,240.0,150.0,0.0,0.0
14150,67.0,0.0,150.0,11.0,0.0
14151,84.0,0.0,480.0,1.0,0.0
14152,91.0,0.0,150.0,0.0,0.0
14153,67.0,96.0,150.0,11.0,0.0
14154,79.0,0.0,150.0,10.0,0.0
14155,91.0,240.0,150.0,0.0,0.0
14156,83.0,0.0,390.0,1.0,0.0
14157,86.0,0.0,390.0,1.0,0.0
14158,79.0,0.0,150.0,10.0,0.0
14159,59.0,0.0,390.0,2.0,0.0
14160,62.0,336.0,390.0,2.0,0.0
14161,67.0,0.0,150.0,11.0,0.0
14162,71.0,0.0,390.0,3.0,0.0
14163,74.0,0.0,390.0,3.0,0.0
14164,67.0,0.0,150.0,11.0,0.0
14165,91.0,0.0,150.0,0.0,0.0
14166,79.0,0.0,150.0,10.0,0.0
14167,62.0,48.0,240.0,2.0,0.0
14168,60.0,0.0,300.0,10.0,0.0
14169,83.0,0.0,240.0,1.0,0.0
14170,60.0,0.0,300.0,11.0,0.0
14171,59.0,0.0,240.0,2.0,0.0
14172,86.0,0.0,240.0,1.0,0.0
14173,71.0,0.0,240.0,3.0,0.0
14174,60.0,0.0,390.0,12.0,0.0
14175,60.0,48.0,390.0,13.0,0.0
14176,48.0,0.0,390.0,14.0,0.0
14177,74.0,0.0,240.0,3.0,0.0
14178,72.0,96.0,300.0,0.0,0.0
14179,57.0,288.0,180.0,2.0,0.0
14180,81.0,0.0,180.0,1.0,0.0
14181,84.0,0.0,180.0,1.0,0.0
14182,69.0,0.0,180.0,3.0,0.0
14183,72.0,0.0,180.0,3.0,0.0
14184,60.0,0.0,180.0,2.0,0.0
14185,74.0,0.0,300.0,0.0,0.0
14186,62.0,0.0,390.0,12.0,0.0
14187,62.0,0.0,300.0,11.0,0.0
14188,72.0,0.0,240.0,3.0,0.0
14189,62.0,0.0,390.0,13.0,0.0
14190,50.0,48.0,390.0,5.0,0.0
14191,62.0,96.0,300.0,10.0,0.0
14192,69.0,0.0,240.0,3.0,0.0
14193,62.0,0.0,390.0,4.0,0.0
14194,60.0,0.0,240.0,2.0,0.0
14195,57.0,0.0,240.0,2.0,0.0
14196,74.0,0.0,390.0,4.0,0.0
14197,84.0,48.0,240.0,1.0,0.0
14198,81.0,0.0,240.0,1.0,0.0
14199,50.0,0.0,390.0,14.0,0.0
14200,67.0,0.0,180.0,3.0,0.0
14201,71.0,0.0,180.0,3.0,0.0
14202,79.0,288.0,180.0,1.0,0.0
14203,83.0,0.0,180.0,1.0,0.0
14204,55.0,0.0,180.0,2.0,0.0
14205,59.0,0.0,180.0,2.0,0.0
14206,79.0,0.0,240.0,1.0,0.0
14207,59.0,0.0,240.0,2.0,0.0
14208,55.0,48.0,240.0,2.0,0.0
14209,83.0,0.0,240.0,1.0,0.0
14210,62.0,96.0,300.0,10.0,0.0
14211,62.0,0.0,390.0,12.0,0.0
14212,50.0,0.0,390.0,13.0,0.0
14213,67.0,0.0,240.0,3.0,0.0
14214,50.0,48.0,390.0,5.0,0.0
14215,74.0,0.0,300.0,0.0,0.0
14216,62.0,0.0,300.0,11.0,0.0
14217,74.0,0.0,390.0,4.0,0.0
14218,62.0,0.0,390.0,4.0,0.0
14219,38.0,0.0,390.0,14.0,0.0
14220,71.0,0.0,240.0,3.0,0.0
14221,69.0,144.0,180.0,3.0,0.0
14222,62.0,0.0,180.0,3.0,0.0
14223,54.0,0.0,180.0,2.0,0.0
14224,57.0,0.0,180.0,2.0,0.0
14225,81.0,0.0,180.0,1.0,0.0
14226,78.0,0.0,180.0,1.0,0.0
14227,71.0,0.0,390.0,0.0,0.0
14228,67.0,72.0,390.0,4.0,0.0
14229,74.0,0.0,390.0,4.0,0.0
14230,55.0,0.0,390.0,2.0,0.0
14231,55.0,0.0,390.0,13.0,0.0
14232,43.0,0.0,390.0,14.0,0.0
14233,55.0,0.0,390.0,5.0,0.0
14234,67.0,120.0,90.0,10.0,0.0
14235,67.0,0.0,90.0,11.0,0.0
14236,62.0,0.0,390.0,12.0,0.0
14237,59.0,0.0,390.0,3.0,0.0
14238,79.0,0.0,390.0,1.0,0.0
14239,67.0,0.0,390.0,3.0,0.0
14240,67.0,120.0,90.0,10.0,0.0
14241,67.0,0.0,90.0,11.0,0.0
14242,83.0,0.0,90.0,10.0,0.0
14243,83.0,48.0,90.0,11.0,0.0
14244,83.0,0.0,90.0,11.0,0.0
14245,83.0,120.0,90.0,10.0,0.0
14246,79.0,120.0,90.0,11.0,0.0
14247,79.0,0.0,90.0,10.0,0.0
14248,79.0,120.0,90.0,10.0,0.0
14249,79.0,0.0,90.0,11.0,0.0
14250,74.0,0.0,90.0,11.0,0.0
14251,74.0,120.0,90.0,10.0,0.0
14252,74.0,0.0,90.0,11.0,0.0
14253,74.0,120.0,90.0,10.0,0.0
14254,71.0,0.0,90.0,11.0,0.0
14255,71.0,120.0,90.0,10.0,0.0
14256,71.0,0.0,90.0,10.0,0.0
14257,71.0,120.0,90.0,11.0,0.0
14258,67.0,120.0,90.0,11.0,0.0
14259,67.0,0.0,90.0,10.0,0.0
14260,67.0,0.0,90.0,10.0,0.0
14261,67.0,120.0,90.0,11.0,0.0
14262,59.0,0.0,240.0,13.0,0.0
14263,77.0,0.0,240.0,1.0,0.0
14264,74.0,0.0,240.0,1.0,0.0
14265,55.0,48.0,390.0,5.0,0.0
14266,79.0,0.0,390.0,4.0,0.0
14267,47.0,96.0,240.0,14.0,0.0
14268,67.0,0.0,390.0,4.0,0.0
14269,67.0,0.0,390.0,3.0,0.0
14270,55.0,0.0,390.0,3.0,0.0
14271,62.0,0.0,240.0,2.0,0.0
14272,65.0,0.0,240.0,2.0,0.0
14273,65.0,0.0,90.0,11.0,0.0
14274,62.0,0.0,240.0,12.0,0.0
14275,89.0,0.0,240.0,0.0,0.0
14276,65.0,120.0,90.0,10.0,0.0
14277,65.0,0.0,90.0,10.0,0.0
14278,65.0,24.0,90.0,11.0,0.0
14279,72.0,0.0,240.0,1.0,0.0
14280,64.0,0.0,90.0,10.0,0.0
14281,76.0,0.0,240.0,1.0,0.0
14282,88.0,96.0,240.0,0.0,0.0
14283,64.0,48.0,90.0,11.0,0.0
14284,60.0,24.0,180.0,13.0,0.0
14285,60.0,0.0,240.0,2.0,0.0
14286,60.0,0.0,180.0,12.0,0.0
14287,48.0,0.0,180.0,14.0,0.0
14288,64.0,0.0,240.0,2.0,0.0
14289,64.0,24.0,90.0,10.0,0.0
14290,64.0,0.0,90.0,11.0,0.0
14291,65.0,96.0,240.0,2.0,0.0
14292,67.0,0.0,390.0,4.0,0.0
14293,59.0,0.0,240.0,13.0,0.0
14294,74.0,0.0,240.0,1.0,0.0
14295,77.0,0.0,240.0,1.0,0.0
14296,47.0,0.0,240.0,14.0,0.0
14297,89.0,0.0,240.0,0.0,0.0
14298,79.0,0.0,390.0,4.0,0.0
14299,65.0,120.0,90.0,10.0,0.0
14300,62.0,0.0,240.0,2.0,0.0
14301,65.0,0.0,90.0,11.0,0.0
14302,55.0,0.0,390.0,3.0,0.0
14303,67.0,0.0,390.0,3.0,0.0
14304,62.0,0.0,240.0,12.0,0.0
14305,55.0,48.0,390.0,5.0,0.0
14306,65.0,24.0,90.0,11.0,0.0
14307,65.0,0.0,90.0,10.0,0.0
14308,48.0,0.0,180.0,14.0,0.0
14309,60.0,24.0,180.0,12.0,0.0
14310,64.0,48.0,90.0,11.0,0.0
14311,60.0,0.0,180.0,13.0,0.0
14312,64.0,0.0,90.0,10.0,0.0
14313,88.0,96.0,240.0,0.0,0.0
14314,76.0,0.0,240.0,1.0,0.0
14315,72.0,0.0,240.0,1.0,0.0
14316,64.0,0.0,240.0,2.0,0.0
14317,60.0,0.0,240.0,2.0,0.0
14318,64.0,0.0,90.0,11.0,0.0
14319,64.0,24.0,90.0,10.0,0.0
14320,62.0,96.0,240.0,2.0,0.0
14321,62.0,0.0,240.0,12.0,0.0
14322,65.0,120.0,90.0,10.0,0.0
14323,47.0,0.0,240.0,14.0,0.0
14324,74.0,0.0,240.0,1.0,0.0
14325,55.0,0.0,390.0,5.0,0.0
14326,89.0,0.0,240.0,0.0,0.0
14327,65.0,0.0,90.0,11.0,0.0
14328,67.0,48.0,390.0,4.0,0.0
14329,79.0,0.0,390.0,4.0,0.0
14330,77.0,0.0,240.0,1.0,0.0
14331,59.0,0.0,240.0,13.0,0.0
14332,55.0,0.0,390.0,3.0,0.0
14333,67.0,0.0,390.0,3.0,0.0
14334,65.0,0.0,240.0,2.0,0.0
14335,65.0,24.0,90.0,11.0,0.0
14336,65.0,0.0,90.0,10.0,0.0
14337,60.0,0.0,180.0,2.0,0.0
14338,48.0,0.0,180.0,14.0,0.0
14339,64.0,0.0,180.0,2.0,0.0
14340,64.0,48.0,90.0,11.0,0.0
14341,60.0,0.0,180.0,13.0,0.0
14342,76.0,0.0,180.0,1.0,0.0
14343,88.0,24.0,180.0,0.0,0.0
14344,72.0,0.0,180.0,1.0,0.0
14345,64.0,0.0,90.0,10.0,0.0
14346,60.0,0.0,180.0,12.0,0.0
14347,64.0,0.0,90.0,11.0,0.0
14348,64.0,120.0,90.0,10.0,0.0
14349,81.0,0.0,390.0,1.0,0.0
14350,42.0,0.0,390.0,14.0,0.0
14351,72.0,0.0,390.0,1.0,0.0
14352,69.0,0.0,390.0,2.0,0.0
14353,72.0,120.0,90.0,11.0,0.0
14354,54.0,0.0,390.0,13.0,0.0
14355,74.0,0.0,390.0,4.0,0.0
14356,57.0,0.0,390.0,12.0,0.0
14357,72.0,0.0,90.0,10.0,0.0
14358,62.0,0.0,390.0,4.0,0.0
14359,50.0,0.0,390.0,5.0,0.0
14360,60.0,0.0,390.0,2.0,0.0
14361,62.0,72.0,390.0,3.0,0.0
14362,50.0,0.0,390.0,3.0,0.0
14363,93.0,0.0,390.0,0.0,0.0
14364,72.0,120.0,90.0,10.0,0.0
14365,72.0,0.0,90.0,11.0,0.0
14366,84.0,0.0,90.0,11.0,0.0
14367,84.0,48.0,90.0,10.0,0.0
14368,84.0,0.0,90.0,11.0,0.0
14369,84.0,120.0,90.0,10.0,0.0
14370,81.0,0.0,90.0,11.0,0.0
14371,81.0,120.0,90.0,10.0,0.0
14372,81.0,120.0,90.0,10.0,0.0
14373,81.0,0.0,90.0,11.0,0.0
14374,78.0,0.0,90.0,11.0,0.0
14375,78.0,120.0,90.0,10.0,0.0
14376,78.0,0.0,90.0,11.0,0.0
14377,78.0,120.0,90.0,10.0,0.0
14378,72.0,0.0,90.0,11.0,0.0
14379,72.0,120.0,90.0,10.0,0.0
14380,72.0,120.0,90.0,10.0,0.0
14381,72.0,0.0,90.0,11.0,0.0
14382,69.0,120.0,90.0,10.0,0.0
14383,69.0,0.0,90.0,11.0,0.0
14384,69.0,0.0,90.0,11.0,0.0
14385,69.0,120.0,90.0,10.0,0.0
14386,62.0,0.0,390.0,3.0,0.0
14387,50.0,0.0,390.0,3.0,0.0
14388,48.0,0.0,240.0,14.0,0.0
14389,50.0,48.0,390.0,5.0,0.0
14390,66.0,120.0,90.0,10.0,0.0
14391,57.0,0.0,240.0,12.0,0.0
14392,90.0,96.0,240.0,0.0,0.0
14393,69.0,0.0,240.0,1.0,0.0
14394,62.0,0.0,390.0,4.0,0.0
14395,78.0,0.0,240.0,1.0,0.0
14396,57.0,0.0,240.0,2.0,0.0
14397,66.0,0.0,90.0,11.0,0.0
14398,66.0,0.0,240.0,2.0,0.0
14399,74.0,0.0,390.0,4.0,0.0
14400,60.0,0.0,240.0,13.0,0.0
14401,66.0,0.0,90.0,11.0,0.0
14402,66.0,24.0,90.0,10.0,0.0
14403,71.0,0.0,240.0,1.0,0.0
14404,59.0,0.0,180.0,12.0,0.0
14405,59.0,0.0,240.0,2.0,0.0
14406,67.0,0.0,240.0,2.0,0.0
14407,47.0,24.0,180.0,14.0,0.0
14408,59.0,0.0,180.0,13.0,0.0
14409,67.0,0.0,90.0,11.0,0.0
14410,79.0,0.0,240.0,1.0,0.0
14411,67.0,48.0,90.0,10.0,0.0
14412,91.0,96.0,240.0,0.0,0.0
14413,67.0,24.0,90.0,11.0,0.0
14414,67.0,0.0,90.0,10.0,0.0
14415,74.0,0.0,390.0,4.0,0.0
14416,78.0,0.0,240.0,1.0,0.0
14417,69.0,0.0,240.0,1.0,0.0
14418,50.0,0.0,390.0,3.0,0.0
14419,62.0,0.0,390.0,3.0,0.0
14420,48.0,0.0,240.0,14.0,0.0
14421,62.0,0.0,390.0,4.0,0.0
14422,90.0,0.0,240.0,0.0,0.0
14423,66.0,0.0,90.0,11.0,0.0
14424,66.0,0.0,240.0,2.0,0.0
14425,57.0,96.0,240.0,2.0,0.0
14426,60.0,0.0,240.0,13.0,0.0
14427,66.0,120.0,90.0,10.0,0.0
14428,57.0,0.0,240.0,12.0,0.0
14429,50.0,48.0,390.0,5.0,0.0
14430,66.0,0.0,90.0,11.0,0.0
14431,66.0,24.0,90.0,10.0,0.0
14432,79.0,96.0,240.0,1.0,0.0
14433,71.0,0.0,240.0,1.0,0.0
14434,67.0,0.0,90.0,11.0,0.0
14435,67.0,0.0,240.0,2.0,0.0
14436,59.0,0.0,180.0,12.0,0.0
14437,59.0,0.0,240.0,2.0,0.0
14438,67.0,48.0,90.0,10.0,0.0
14439,59.0,24.0,180.0,13.0,0.0
14440,91.0,0.0,240.0,0.0,0.0
14441,47.0,0.0,180.0,14.0,0.0
14442,67.0,24.0,90.0,11.0,0.0
14443,67.0,0.0,90.0,10.0,0.0
14444,66.0,0.0,90.0,10.0,0.0
14445,66.0,0.0,240.0,2.0,0.0
14446,57.0,96.0,240.0,2.0,0.0
14447,90.0,0.0,240.0,0.0,0.0
14448,69.0,0.0,240.0,1.0,0.0
14449,78.0,0.0,240.0,1.0,0.0
14450,57.0,0.0,240.0,12.0,0.0
14451,74.0,0.0,390.0,4.0,0.0
14452,60.0,0.0,240.0,13.0,0.0
14453,62.0,0.0,390.0,4.0,0.0
14454,50.0,0.0,390.0,3.0,0.0
14455,62.0,0.0,390.0,3.0,0.0
14456,48.0,0.0,240.0,14.0,0.0
14457,50.0,48.0,390.0,5.0,0.0
14458,66.0,120.0,90.0,11.0,0.0
14459,66.0,24.0,90.0,10.0,0.0
14460,66.0,0.0,90.0,11.0,0.0
14461,91.0,0.0,180.0,0.0,0.0
14462,47.0,24.0,180.0,14.0,0.0
14463,67.0,48.0,90.0,11.0,0.0
14464,79.0,0.0,180.0,1.0,0.0
14465,67.0,0.0,90.0,10.0,0.0
14466,71.0,0.0,180.0,1.0,0.0
14467,59.0,0.0,180.0,13.0,0.0
14468,59.0,0.0,180.0,12.0,0.0
14469,67.0,0.0,180.0,2.0,0.0
14470,59.0,0.0,180.0,2.0,0.0
14471,67.0,0.0,90.0,11.0,0.0
14472,67.0,120.0,90.0,10.0,0.0
14473,69.0,0.0,90.0,11.0,0.0
14474,69.0,0.0,150.0,1.0,0.0
14475,64.0,0.0,180.0,12.0,0.0
14476,60.0,0.0,150.0,2.0,0.0
14477,48.0,24.0,180.0,14.0,0.0
14478,69.0,60.0,90.0,10.0,0.0
14479,64.0,0.0,150.0,2.0,0.0
14480,64.0,36.0,150.0,1.0,0.0
14481,60.0,0.0,180.0,13.0,0.0
14482,81.0,0.0,150.0,0.0,0.0
14483,69.0,0.0,90.0,11.0,0.0
14484,69.0,120.0,90.0,10.0,0.0
14485,50.0,0.0,180.0,14.0,0.0
14486,71.0,0.0,90.0,11.0,0.0
14487,71.0,60.0,90.0,10.0,0.0
14488,66.0,24.0,180.0,12.0,0.0
14489,71.0,0.0,150.0,1.0,0.0
14490,66.0,0.0,150.0,1.0,0.0
14491,62.0,0.0,150.0,2.0,0.0
14492,83.0,36.0,150.0,0.0,0.0
14493,62.0,0.0,180.0,13.0,0.0
14494,66.0,0.0,150.0,2.0,0.0
14495,71.0,0.0,90.0,11.0,0.0
14496,71.0,120.0,90.0,10.0,0.0
14497,67.0,0.0,150.0,1.0,0.0
14498,84.0,0.0,150.0,0.0,0.0
14499,67.0,0.0,150.0,2.0,0.0
14500,72.0,0.0,90.0,11.0,0.0
14501,72.0,0.0,150.0,1.0,0.0
14502,67.0,0.0,180.0,12.0,0.0
14503,52.0,24.0,180.0,14.0,0.0
14504,72.0,60.0,90.0,10.0,0.0
14505,64.0,36.0,150.0,2.0,0.0
14506,64.0,0.0,180.0,13.0,0.0
14507,72.0,120.0,90.0,11.0,0.0
14508,72.0,0.0,90.0,10.0,0.0
14509,69.0,0.0,150.0,1.0,0.0
14510,69.0,0.0,180.0,12.0,0.0
14511,66.0,0.0,180.0,13.0,0.0
14512,66.0,0.0,150.0,2.0,0.0
14513,54.0,24.0,180.0,14.0,0.0
14514,74.0,0.0,90.0,10.0,0.0
14515,74.0,0.0,150.0,1.0,0.0
14516,86.0,36.0,150.0,0.0,0.0
14517,69.0,0.0,150.0,2.0,0.0
14518,74.0,60.0,90.0,11.0,0.0
14519,74.0,120.0,90.0,11.0,0.0
14520,74.0,0.0,90.0,10.0,0.0
14521,71.0,0.0,150.0,2.0,0.0
14522,76.0,0.0,90.0,10.0,0.0
14523,55.0,0.0,180.0,14.0,0.0
14524,76.0,0.0,150.0,1.0,0.0
14525,76.0,60.0,90.0,11.0,0.0
14526,71.0,0.0,150.0,1.0,0.0
14527,67.0,0.0,150.0,2.0,0.0
14528,71.0,0.0,180.0,12.0,0.0
14529,67.0,24.0,180.0,13.0,0.0
14530,88.0,36.0,150.0,0.0,0.0
14531,76.0,0.0,90.0,11.0,0.0
14532,76.0,120.0,90.0,10.0,0.0
14533,90.0,36.0,150.0,0.0,0.0
14534,72.0,0.0,180.0,12.0,0.0
14535,69.0,24.0,180.0,13.0,0.0
14536,72.0,0.0,150.0,1.0,0.0
14537,69.0,0.0,150.0,2.0,0.0
14538,78.0,60.0,90.0,10.0,0.0
14539,57.0,0.0,180.0,14.0,0.0
14540,78.0,0.0,90.0,11.0,0.0
14541,72.0,0.0,150.0,2.0,0.0
14542,78.0,0.0,150.0,1.0,0.0
14543,78.0,0.0,90.0,11.0,0.0
14544,78.0,120.0,90.0,10.0,0.0
14545,74.0,24.0,180.0,12.0,0.0
14546,79.0,0.0,90.0,11.0,0.0
14547,74.0,0.0,570.0,4.0,0.0
14548,91.0,0.0,390.0,0.0,0.0
14549,79.0,36.0,150.0,1.0,0.0
14550,74.0,36.0,630.0,1.0,0.0
14551,71.0,0.0,180.0,13.0,0.0
14552,50.0,12.0,390.0,5.0,0.0
14553,79.0,60.0,90.0,10.0,0.0
14554,59.0,0.0,180.0,14.0,0.0
14555,71.0,0.0,150.0,2.0,0.0
14556,62.0,0.0,570.0,3.0,0.0
14557,79.0,0.0,90.0,11.0,0.0
14558,79.0,120.0,90.0,10.0,0.0
14559,66.0,24.0,180.0,13.0,0.0
14560,66.0,0.0,150.0,2.0,0.0
14561,81.0,36.0,150.0,1.0,0.0
14562,74.0,12.0,390.0,12.0,0.0
14563,81.0,0.0,90.0,10.0,0.0
14564,54.0,0.0,180.0,14.0,0.0
14565,81.0,48.0,90.0,11.0,0.0
14566,81.0,0.0,90.0,11.0,0.0
14567,81.0,120.0,90.0,10.0,0.0
14568,67.0,24.0,180.0,13.0,0.0
14569,67.0,0.0,150.0,2.0,0.0
14570,55.0,0.0,180.0,14.0,0.0
14571,83.0,0.0,90.0,10.0,0.0
14572,83.0,48.0,90.0,11.0,0.0
14573,55.0,12.0,390.0,5.0,0.0
14574,83.0,0.0,150.0,1.0,0.0
14575,83.0,0.0,90.0,10.0,0.0
14576,83.0,120.0,90.0,11.0,0.0
14577,84.0,36.0,150.0,1.0,0.0
14578,67.0,0.0,150.0,4.0,0.0
14579,79.0,0.0,150.0,4.0,0.0
14580,52.0,24.0,180.0,14.0,0.0
14581,67.0,0.0,150.0,3.0,0.0
14582,55.0,0.0,150.0,3.0,0.0
14583,64.0,0.0,180.0,13.0,0.0
14584,79.0,0.0,150.0,1.0,0.0
14585,64.0,0.0,150.0,2.0,0.0
14586,84.0,0.0,90.0,11.0,0.0
14587,84.0,48.0,90.0,10.0,0.0
14588,67.0,12.0,390.0,12.0,0.0
14589,84.0,120.0,90.0,11.0,0.0
14590,84.0,0.0,90.0,10.0,0.0
14591,86.0,0.0,150.0,1.0,0.0
14592,50.0,0.0,180.0,14.0,0.0
14593,86.0,0.0,90.0,10.0,0.0
14594,67.0,36.0,150.0,4.0,0.0
14595,79.0,0.0,150.0,1.0,0.0
14596,67.0,0.0,150.0,3.0,0.0
14597,62.0,24.0,180.0,13.0,0.0
14598,79.0,0.0,150.0,4.0,0.0
14599,86.0,48.0,90.0,11.0,0.0
14600,55.0,12.0,390.0,5.0,0.0
14601,62.0,0.0,150.0,2.0,0.0
14602,55.0,0.0,150.0,3.0,0.0
14603,86.0,0.0,90.0,10.0,0.0
14604,86.0,120.0,90.0,11.0,0.0
14605,60.0,0.0,180.0,13.0,0.0
14606,67.0,0.0,150.0,3.0,0.0
14607,55.0,0.0,150.0,3.0,0.0
14608,79.0,0.0,150.0,1.0,0.0
14609,88.0,0.0,150.0,1.0,0.0
14610,67.0,0.0,150.0,4.0,0.0
14611,67.0,0.0,180.0,12.0,0.0
14612,60.0,0.0,150.0,2.0,0.0
14613,48.0,24.0,180.0,14.0,0.0
14614,88.0,48.0,90.0,11.0,0.0
14615,88.0,0.0,90.0,10.0,0.0
14616,79.0,36.0,150.0,4.0,0.0
14617,88.0,216.0,90.0,11.0,0.0
14618,88.0,0.0,90.0,10.0,0.0
14619,80.0,0.0,1140.0,1.0,0.0
14620,50.0,48.0,390.0,5.0,0.0
14621,65.0,0.0,1140.0,2.0,0.0
14622,68.0,0.0,1140.0,2.0,0.0
14623,89.0,0.0,780.0,10.0,0.0
14624,62.0,144.0,780.0,3.0,0.0
14625,47.0,192.0,180.0,14.0,0.0
14626,68.0,0.0,180.0,12.0,0.0
14627,89.0,0.0,1140.0,0.0,0.0
14628,86.0,192.0,1140.0,1.0,0.0
14629,59.0,0.0,180.0,13.0,0.0
14630,74.0,0.0,780.0,4.0,0.0
14631,89.0,0.0,780.0,11.0,0.0
14632,71.0,0.0,780.0,3.0,0.0
14633,83.0,0.0,780.0,4.0,0.0
14634,59.0,0.0,180.0,13.0,0.0
14635,68.0,0.0,180.0,12.0,0.0
14636,47.0,240.0,180.0,14.0,0.0
14637,47.0,96.0,180.0,14.0,0.0
14638,68.0,0.0,180.0,12.0,0.0
14639,59.0,0.0,180.0,13.0,0.0
14640,59.0,0.0,180.0,13.0,0.0
14641,47.0,240.0,180.0,14.0,0.0
14642,68.0,0.0,180.0,12.0,0.0
14643,62.0,0.0,390.0,3.0,0.0
14644,89.0,0.0,390.0,10.0,0.0
14645,47.0,0.0,180.0,14.0,0.0
14646,89.0,48.0,390.0,11.0,0.0
14647,83.0,0.0,390.0,4.0,0.0
14648,59.0,0.0,180.0,13.0,0.0
14649,68.0,0.0,180.0,12.0,0.0
14650,74.0,0.0,390.0,4.0,0.0
14651,71.0,0.0,390.0,3.0,0.0
14652,68.0,168.0,180.0,12.0,0.0
14653,47.0,0.0,180.0,14.0,0.0
14654,59.0,0.0,180.0,13.0,0.0
14655,69.0,96.0,300.0,3.0,0.0
14656,88.0,0.0,2580.0,0.0,0.0
14657,48.0,120.0,180.0,14.0,0.0
14658,60.0,0.0,180.0,13.0,0.0
14659,84.0,0.0,1140.0,1.0,0.0
14660,81.0,0.0,300.0,4.0,0.0
14661,81.0,0.0,1140.0,1.0,0.0
14662,69.0,0.0,1140.0,2.0,0.0
14663,87.0,0.0,120.0,11.0,0.0
14664,64.0,0.0,2580.0,2.0,0.0
14665,87.0,72.0,120.0,10.0,0.0
14666,69.0,0.0,180.0,12.0,0.0
14667,88.0,24.0,300.0,11.0,0.0
14668,88.0,0.0,300.0,10.0,0.0
14669,60.0,0.0,180.0,13.0,0.0
14670,69.0,240.0,180.0,12.0,0.0
14671,48.0,0.0,180.0,14.0,0.0
14672,69.0,0.0,180.0,12.0,0.0
14673,88.0,48.0,390.0,11.0,0.0
14674,88.0,0.0,390.0,10.0,0.0
14675,69.0,72.0,300.0,3.0,0.0
14676,48.0,0.0,180.0,14.0,0.0
14677,60.0,120.0,180.0,13.0,0.0
14678,81.0,0.0,300.0,4.0,0.0
14679,48.0,0.0,180.0,14.0,0.0
14680,60.0,0.0,180.0,13.0,0.0
14681,69.0,240.0,180.0,12.0,0.0
14682,48.0,240.0,180.0,14.0,0.0
14683,60.0,0.0,180.0,13.0,0.0
14684,69.0,0.0,180.0,12.0,0.0
14685,69.0,240.0,180.0,12.0,0.0
14686,60.0,0.0,180.0,13.0,0.0
14687,48.0,0.0,180.0,14.0,0.0
14688,55.0,48.0,390.0,5.0,0.0
14689,82.0,0.0,1140.0,1.0,0.0
14690,76.0,0.0,1140.0,1.0,0.0
14691,70.0,0.0,1140.0,2.0,0.0
14692,70.0,192.0,180.0,12.0,0.0
14693,55.0,0.0,780.0,3.0,0.0
14694,61.0,0.0,180.0,13.0,0.0
14695,88.0,0.0,660.0,10.0,0.0
14696,67.0,0.0,780.0,4.0,0.0
14697,79.0,0.0,780.0,4.0,0.0
14698,88.0,96.0,660.0,11.0,0.0
14699,67.0,144.0,780.0,3.0,0.0
14700,49.0,0.0,180.0,14.0,0.0
14701,70.0,0.0,180.0,12.0,0.0
14702,49.0,0.0,180.0,14.0,0.0
14703,61.0,240.0,180.0,13.0,0.0
14704,61.0,0.0,180.0,13.0,0.0
14705,49.0,0.0,180.0,14.0,0.0
14706,70.0,0.0,180.0,12.0,0.0
14707,49.0,0.0,180.0,14.0,0.0
14708,70.0,0.0,180.0,12.0,0.0
14709,61.0,24.0,180.0,13.0,0.0
14710,88.0,0.0,90.0,11.0,0.0
14711,88.0,84.0,90.0,10.0,0.0
14712,61.0,0.0,180.0,13.0,0.0
14713,90.0,60.0,60.0,10.0,0.0
14714,55.0,0.0,390.0,3.0,0.0
14715,79.0,36.0,390.0,4.0,0.0
14716,70.0,48.0,180.0,12.0,0.0
14717,67.0,0.0,390.0,4.0,0.0
14718,49.0,0.0,180.0,14.0,0.0
14719,67.0,0.0,390.0,3.0,0.0
14720,90.0,0.0,60.0,11.0,0.0
14721,88.0,0.0,60.0,10.0,0.0
14722,88.0,60.0,60.0,11.0,0.0
14723,90.0,12.0,60.0,10.0,0.0
14724,90.0,0.0,60.0,11.0,0.0
14725,88.0,0.0,60.0,11.0,0.0
14726,88.0,60.0,60.0,10.0,0.0
14727,49.0,0.0,180.0,14.0,0.0
14728,90.0,60.0,60.0,11.0,0.0
14729,61.0,36.0,180.0,13.0,0.0
14730,90.0,0.0,60.0,10.0,0.0
14731,70.0,0.0,180.0,12.0,0.0
14732,88.0,0.0,60.0,10.0,0.0
14733,88.0,24.0,60.0,11.0,0.0
14734,87.0,0.0,60.0,10.0,0.0
14735,87.0,12.0,60.0,11.0,0.0
14736,88.0,204.0,60.0,11.0,0.0
14737,88.0,0.0,60.0,10.0,0.0
14738,50.0,0.0,180.0,14.0,0.0
14739,50.0,48.0,390.0,5.0,0.0
14740,79.0,0.0,1140.0,1.0,0.0
14741,83.0,0.0,1140.0,1.0,0.0
14742,74.0,0.0,780.0,4.0,0.0
14743,62.0,0.0,780.0,4.0,0.0
14744,91.0,0.0,660.0,11.0,0.0
14745,71.0,0.0,180.0,12.0,0.0
14746,86.0,0.0,1140.0,0.0,0.0
14747,91.0,0.0,660.0,10.0,0.0
14748,67.0,0.0,1140.0,2.0,0.0
14749,71.0,48.0,1140.0,2.0,0.0
14750,62.0,144.0,780.0,3.0,0.0
14751,50.0,0.0,780.0,3.0,0.0
14752,62.0,192.0,180.0,13.0,0.0
14753,62.0,0.0,180.0,13.0,0.0
14754,71.0,240.0,180.0,12.0,0.0
14755,50.0,0.0,180.0,14.0,0.0
14756,71.0,96.0,180.0,12.0,0.0
14757,62.0,0.0,180.0,13.0,0.0
14758,50.0,0.0,180.0,14.0,0.0
14759,71.0,24.0,180.0,12.0,0.0
14760,50.0,0.0,180.0,14.0,0.0
14761,62.0,0.0,180.0,13.0,0.0
14762,83.0,84.0,90.0,10.0,0.0
14763,83.0,0.0,90.0,11.0,0.0
14764,84.0,60.0,60.0,10.0,0.0
14765,50.0,0.0,390.0,3.0,0.0
14766,50.0,0.0,180.0,14.0,0.0
14767,67.0,0.0,180.0,12.0,0.0
14768,50.0,12.0,300.0,5.0,0.0
14769,62.0,0.0,390.0,4.0,0.0
14770,84.0,0.0,60.0,11.0,0.0
14771,74.0,0.0,390.0,4.0,0.0
14772,62.0,0.0,180.0,13.0,0.0
14773,62.0,36.0,390.0,3.0,0.0
14774,83.0,0.0,60.0,11.0,0.0
14775,83.0,60.0,60.0,10.0,0.0
14776,84.0,12.0,60.0,11.0,0.0
14777,84.0,0.0,60.0,10.0,0.0
14778,83.0,0.0,60.0,10.0,0.0
14779,83.0,48.0,60.0,11.0,0.0
14780,50.0,0.0,180.0,14.0,0.0
14781,84.0,60.0,60.0,10.0,0.0
14782,67.0,24.0,180.0,12.0,0.0
14783,62.0,0.0,180.0,13.0,0.0
14784,84.0,0.0,60.0,11.0,0.0
14785,83.0,24.0,60.0,11.0,0.0
14786,83.0,0.0,60.0,10.0,0.0
14787,50.0,12.0,90.0,5.0,0.0
14788,81.0,0.0,60.0,10.0,0.0
14789,81.0,12.0,60.0,11.0,0.0
14790,83.0,0.0,60.0,10.0,0.0
14791,83.0,204.0,60.0,11.0,0.0
14792,84.0,0.0,270.0,10.0,0.0
14793,84.0,0.0,1140.0,1.0,0.0
14794,81.0,0.0,1140.0,1.0,0.0
14795,50.0,48.0,390.0,5.0,0.0
14796,69.0,0.0,1140.0,2.0,0.0
14797,62.0,0.0,390.0,4.0,0.0
14798,74.0,0.0,390.0,4.0,0.0
14799,66.0,0.0,1140.0,2.0,0.0
14800,90.0,72.0,1140.0,0.0,0.0
14801,50.0,0.0,180.0,14.0,0.0
14802,84.0,120.0,270.0,11.0,0.0
14803,66.0,0.0,180.0,12.0,0.0
14804,62.0,72.0,180.0,13.0,0.0
14805,62.0,0.0,390.0,3.0,0.0
14806,50.0,0.0,390.0,3.0,0.0
14807,50.0,0.0,180.0,14.0,0.0
14808,62.0,240.0,180.0,13.0,0.0
14809,66.0,0.0,180.0,12.0,0.0
14810,50.0,0.0,180.0,14.0,0.0
14811,69.0,0.0,180.0,12.0,0.0
14812,62.0,72.0,180.0,13.0,0.0
14813,50.0,48.0,390.0,3.0,0.0
14814,50.0,0.0,390.0,5.0,0.0
14815,62.0,0.0,390.0,4.0,0.0
14816,74.0,0.0,390.0,4.0,0.0
14817,81.0,0.0,270.0,10.0,0.0
14818,62.0,0.0,390.0,3.0,0.0
14819,81.0,120.0,270.0,11.0,0.0
14820,69.0,240.0,180.0,12.0,0.0
14821,50.0,0.0,180.0,14.0,0.0
14822,62.0,0.0,180.0,13.0,0.0
14823,50.0,0.0,180.0,14.0,0.0
14824,62.0,0.0,180.0,13.0,0.0
14825,62.0,0.0,390.0,3.0,0.0
14826,62.0,0.0,390.0,4.0,0.0
14827,50.0,48.0,390.0,5.0,0.0
14828,50.0,0.0,390.0,3.0,0.0
14829,78.0,0.0,270.0,10.0,0.0
14830,72.0,0.0,180.0,12.0,0.0
14831,74.0,0.0,390.0,4.0,0.0
14832,78.0,120.0,270.0,11.0,0.0
14833,50.0,0.0,180.0,14.0,0.0
14834,62.0,240.0,180.0,13.0,0.0
14835,72.0,0.0,180.0,12.0,0.0
14836,62.0,0.0,780.0,3.0,0.0
14837,68.0,0.0,1140.0,2.0,0.0
14838,71.0,0.0,780.0,3.0,0.0
14839,71.0,0.0,180.0,12.0,0.0
14840,92.0,0.0,1140.0,0.0,0.0
14841,50.0,0.0,180.0,14.0,0.0
14842,71.0,0.0,390.0,11.0,0.0
14843,89.0,48.0,870.0,11.0,0.0
14844,80.0,0.0,390.0,11.0,0.0
14845,62.0,192.0,180.0,13.0,0.0
14846,89.0,0.0,1140.0,1.0,0.0
14847,80.0,0.0,390.0,10.0,0.0
14848,89.0,0.0,870.0,10.0,0.0
14849,71.0,0.0,390.0,10.0,0.0
14850,83.0,0.0,1140.0,1.0,0.0
14851,74.0,96.0,780.0,4.0,0.0
14852,65.0,0.0,1140.0,2.0,0.0
14853,50.0,48.0,390.0,5.0,0.0
14854,83.0,0.0,780.0,4.0,0.0
14855,50.0,0.0,180.0,14.0,0.0
14856,68.0,240.0,180.0,12.0,0.0
14857,62.0,0.0,180.0,13.0,0.0
14858,50.0,0.0,180.0,14.0,0.0
14859,68.0,96.0,180.0,12.0,0.0
14860,62.0,0.0,180.0,13.0,0.0
14861,68.0,0.0,180.0,12.0,0.0
14862,62.0,240.0,180.0,13.0,0.0
14863,50.0,0.0,180.0,14.0,0.0
14864,50.0,0.0,180.0,14.0,0.0
14865,68.0,0.0,180.0,12.0,0.0
14866,89.0,0.0,390.0,10.0,0.0
14867,74.0,48.0,390.0,4.0,0.0
14868,62.0,192.0,180.0,13.0,0.0
14869,89.0,0.0,390.0,11.0,0.0
14870,83.0,0.0,390.0,4.0,0.0
14871,62.0,0.0,390.0,3.0,0.0
14872,71.0,0.0,390.0,3.0,0.0
14873,50.0,0.0,180.0,14.0,0.0
14874,62.0,168.0,180.0,13.0,0.0
14875,68.0,0.0,180.0,12.0,0.0
14876,64.0,0.0,2580.0,2.0,0.0
14877,69.0,0.0,1140.0,2.0,0.0
14878,69.0,0.0,180.0,12.0,0.0
14879,88.0,0.0,2580.0,1.0,0.0
14880,93.0,0.0,1140.0,0.0,0.0
14881,87.0,0.0,120.0,11.0,0.0
14882,60.0,0.0,180.0,13.0,0.0
14883,87.0,72.0,120.0,10.0,0.0
14884,84.0,0.0,1140.0,1.0,0.0
14885,81.0,0.0,390.0,4.0,0.0
14886,69.0,24.0,390.0,3.0,0.0
14887,48.0,192.0,180.0,14.0,0.0
14888,88.0,0.0,300.0,10.0,0.0
14889,88.0,24.0,300.0,11.0,0.0
14890,60.0,0.0,180.0,13.0,0.0
14891,48.0,0.0,180.0,14.0,0.0
14892,69.0,240.0,180.0,12.0,0.0
14893,81.0,0.0,390.0,4.0,0.0
14894,69.0,0.0,390.0,3.0,0.0
14895,60.0,0.0,180.0,13.0,0.0
14896,48.0,192.0,180.0,14.0,0.0
14897,88.0,0.0,390.0,11.0,0.0
14898,88.0,48.0,390.0,10.0,0.0
14899,69.0,0.0,180.0,12.0,0.0
14900,60.0,240.0,180.0,13.0,0.0
14901,69.0,0.0,180.0,12.0,0.0
14902,48.0,0.0,180.0,14.0,0.0
14903,69.0,0.0,180.0,12.0,0.0
14904,60.0,0.0,180.0,13.0,0.0
14905,48.0,240.0,180.0,14.0,0.0
14906,69.0,0.0,180.0,12.0,0.0
14907,48.0,240.0,180.0,14.0,0.0
14908,60.0,0.0,180.0,13.0,0.0
14909,55.0,48.0,390.0,5.0,0.0
14910,61.0,192.0,180.0,13.0,0.0
14911,70.0,0.0,1140.0,2.0,0.0
14912,49.0,0.0,180.0,14.0,0.0
14913,88.0,96.0,660.0,10.0,0.0
14914,79.0,144.0,780.0,4.0,0.0
14915,67.0,0.0,780.0,4.0,0.0
14916,94.0,0.0,1140.0,0.0,0.0
14917,88.0,0.0,660.0,11.0,0.0
14918,55.0,0.0,780.0,3.0,0.0
14919,70.0,0.0,180.0,12.0,0.0
14920,76.0,0.0,1140.0,1.0,0.0
14921,67.0,0.0,780.0,3.0,0.0
14922,49.0,240.0,180.0,14.0,0.0
14923,70.0,0.0,180.0,12.0,0.0
14924,61.0,0.0,180.0,13.0,0.0
14925,61.0,0.0,180.0,13.0,0.0
14926,70.0,0.0,180.0,12.0,0.0
14927,49.0,0.0,180.0,14.0,0.0
14928,61.0,24.0,180.0,13.0,0.0
14929,70.0,0.0,180.0,12.0,0.0
14930,49.0,0.0,180.0,14.0,0.0
14931,88.0,84.0,90.0,10.0,0.0
14932,88.0,0.0,90.0,11.0,0.0
14933,90.0,0.0,60.0,10.0,0.0
14934,49.0,48.0,180.0,14.0,0.0
14935,67.0,36.0,390.0,3.0,0.0
14936,90.0,60.0,60.0,11.0,0.0
14937,55.0,0.0,390.0,3.0,0.0
14938,61.0,0.0,180.0,13.0,0.0
14939,79.0,0.0,390.0,4.0,0.0
14940,55.0,12.0,300.0,5.0,0.0
14941,67.0,0.0,390.0,4.0,0.0
14942,70.0,0.0,180.0,12.0,0.0
14943,88.0,60.0,60.0,11.0,0.0
14944,88.0,0.0,60.0,10.0,0.0
14945,90.0,12.0,60.0,11.0,0.0
14946,90.0,0.0,60.0,10.0,0.0
14947,88.0,48.0,60.0,11.0,0.0
14948,88.0,0.0,60.0,10.0,0.0
14949,90.0,0.0,60.0,10.0,0.0
14950,70.0,0.0,180.0,12.0,0.0
14951,49.0,24.0,180.0,14.0,0.0
14952,90.0,60.0,60.0,11.0,0.0
14953,61.0,0.0,180.0,13.0,0.0
14954,88.0,24.0,60.0,10.0,0.0
14955,88.0,0.0,60.0,11.0,0.0
14956,87.0,0.0,60.0,11.0,0.0
14957,87.0,12.0,60.0,10.0,0.0
14958,55.0,12.0,90.0,5.0,0.0
14959,88.0,204.0,60.0,10.0,0.0
14960,88.0,0.0,60.0,11.0,0.0
14961,91.0,0.0,660.0,11.0,0.0
14962,74.0,0.0,780.0,4.0,0.0
14963,62.0,0.0,780.0,4.0,0.0
14964,71.0,0.0,180.0,12.0,0.0
14965,50.0,192.0,180.0,14.0,0.0
14966,67.0,0.0,1140.0,2.0,0.0
14967,50.0,48.0,390.0,5.0,0.0
14968,71.0,0.0,1140.0,2.0,0.0
14969,50.0,144.0,780.0,3.0,0.0
14970,62.0,0.0,780.0,3.0,0.0
14971,62.0,0.0,180.0,13.0,0.0
14972,86.0,0.0,1140.0,1.0,0.0
14973,79.0,0.0,1140.0,1.0,0.0
14974,91.0,96.0,660.0,10.0,0.0
14975,95.0,0.0,1140.0,0.0,0.0
14976,71.0,240.0,180.0,12.0,0.0
14977,62.0,0.0,180.0,13.0,0.0
14978,50.0,0.0,180.0,14.0,0.0
14979,62.0,0.0,180.0,13.0,0.0
14980,50.0,0.0,180.0,14.0,0.0
14981,71.0,0.0,180.0,12.0,0.0
14982,62.0,0.0,180.0,13.0,0.0
14983,50.0,0.0,180.0,14.0,0.0
14984,71.0,24.0,180.0,12.0,0.0
14985,83.0,84.0,90.0,11.0,0.0
14986,83.0,0.0,90.0,10.0,0.0
14987,50.0,12.0,300.0,5.0,0.0
14988,67.0,0.0,180.0,12.0,0.0
14989,62.0,0.0,180.0,13.0,0.0
14990,74.0,0.0,390.0,4.0,0.0
14991,84.0,60.0,60.0,11.0,0.0
14992,84.0,0.0,60.0,10.0,0.0
14993,50.0,48.0,180.0,14.0,0.0
14994,62.0,0.0,390.0,3.0,0.0
14995,50.0,36.0,390.0,3.0,0.0
14996,62.0,0.0,390.0,4.0,0.0
14997,83.0,0.0,60.0,11.0,0.0
14998,83.0,60.0,60.0,10.0,0.0
14999,84.0,12.0,60.0,10.0,0.0
15000,84.0,0.0,60.0,11.0,0.0
15001,83.0,0.0,60.0,11.0,0.0
15002,83.0,48.0,60.0,10.0,0.0
15003,62.0,0.0,180.0,13.0,0.0
15004,84.0,0.0,60.0,11.0,0.0
15005,67.0,0.0,180.0,12.0,0.0
15006,50.0,24.0,180.0,14.0,0.0
15007,84.0,60.0,60.0,10.0,0.0
15008,83.0,0.0,60.0,11.0,0.0
15009,83.0,24.0,60.0,10.0,0.0
15010,81.0,12.0,60.0,11.0,0.0
15011,81.0,0.0,60.0,10.0,0.0
15012,50.0,12.0,90.0,5.0,0.0
15013,83.0,0.0,60.0,11.0,0.0
15014,83.0,204.0,60.0,10.0,0.0
15015,50.0,0.0,180.0,13.0,0.0
15016,84.0,120.0,270.0,10.0,0.0
15017,66.0,0.0,180.0,12.0,0.0
15018,90.0,0.0,1140.0,0.0,0.0
15019,81.0,72.0,1140.0,1.0,0.0
15020,50.0,0.0,390.0,5.0,0.0
15021,84.0,0.0,270.0,11.0,0.0
15022,62.0,0.0,390.0,4.0,0.0
15023,74.0,0.0,390.0,4.0,0.0
15024,38.0,72.0,180.0,14.0,0.0
15025,84.0,0.0,1140.0,1.0,0.0
15026,50.0,48.0,390.0,3.0,0.0
15027,62.0,0.0,390.0,3.0,0.0
15028,69.0,0.0,1140.0,2.0,0.0
15029,66.0,0.0,1140.0,2.0,0.0
15030,66.0,240.0,180.0,12.0,0.0
15031,38.0,0.0,180.0,14.0,0.0
15032,50.0,0.0,180.0,13.0,0.0
15033,69.0,0.0,180.0,12.0,0.0
15034,50.0,0.0,390.0,5.0,0.0
15035,62.0,0.0,390.0,4.0,0.0
15036,50.0,48.0,390.0,3.0,0.0
15037,81.0,120.0,270.0,11.0,0.0
15038,81.0,0.0,270.0,10.0,0.0
15039,50.0,72.0,180.0,13.0,0.0
15040,62.0,0.0,390.0,3.0,0.0
15041,38.0,0.0,180.0,14.0,0.0
15042,74.0,0.0,390.0,4.0,0.0
15043,50.0,240.0,180.0,13.0,0.0
15044,69.0,0.0,180.0,12.0,0.0
15045,38.0,0.0,180.0,14.0,0.0
15046,78.0,120.0,270.0,10.0,0.0
15047,62.0,0.0,390.0,3.0,0.0
15048,50.0,48.0,390.0,3.0,0.0
15049,72.0,0.0,180.0,12.0,0.0
15050,78.0,0.0,270.0,11.0,0.0
15051,62.0,0.0,390.0,4.0,0.0
15052,74.0,0.0,390.0,4.0,0.0
15053,38.0,0.0,180.0,14.0,0.0
15054,50.0,0.0,180.0,13.0,0.0
15055,50.0,0.0,390.0,5.0,0.0
15056,38.0,144.0,180.0,14.0,0.0
15057,50.0,0.0,180.0,13.0,0.0
15058,72.0,0.0,180.0,12.0,0.0
15059,55.0,0.0,390.0,13.0,0.0
15060,74.0,0.0,390.0,4.0,0.0
15061,67.0,0.0,390.0,2.0,0.0
15062,55.0,0.0,390.0,3.0,0.0
15063,62.0,72.0,390.0,3.0,0.0
15064,67.0,0.0,390.0,4.0,0.0
15065,79.0,120.0,90.0,11.0,0.0
15066,91.0,0.0,390.0,0.0,0.0
15067,79.0,0.0,90.0,10.0,0.0
15068,55.0,0.0,390.0,5.0,0.0
15069,71.0,0.0,390.0,12.0,0.0
15070,43.0,0.0,390.0,14.0,0.0
15071,83.0,0.0,390.0,1.0,0.0
15072,79.0,0.0,390.0,1.0,0.0
15073,79.0,0.0,90.0,10.0,0.0
15074,79.0,120.0,90.0,11.0,0.0
15075,74.0,48.0,90.0,10.0,0.0
15076,74.0,0.0,90.0,11.0,0.0
15077,74.0,120.0,90.0,10.0,0.0
15078,74.0,0.0,90.0,11.0,0.0
15079,83.0,0.0,90.0,11.0,0.0
15080,83.0,120.0,90.0,10.0,0.0
15081,83.0,120.0,90.0,11.0,0.0
15082,83.0,0.0,90.0,10.0,0.0
15083,79.0,120.0,90.0,11.0,0.0
15084,79.0,0.0,90.0,10.0,0.0
15085,79.0,0.0,90.0,10.0,0.0
15086,79.0,120.0,90.0,11.0,0.0
15087,74.0,0.0,90.0,10.0,0.0
15088,74.0,120.0,90.0,11.0,0.0
15089,74.0,0.0,90.0,10.0,0.0
15090,74.0,120.0,90.0,11.0,0.0
15091,83.0,0.0,180.0,0.0,0.0
15092,71.0,96.0,90.0,10.0,0.0
15093,83.0,24.0,180.0,1.0,0.0
15094,59.0,0.0,180.0,2.0,0.0
15095,71.0,0.0,90.0,11.0,0.0
15096,71.0,0.0,90.0,11.0,0.0
15097,71.0,120.0,90.0,10.0,0.0
15098,60.0,24.0,180.0,2.0,0.0
15099,72.0,0.0,180.0,12.0,0.0
15100,48.0,0.0,180.0,14.0,0.0
15101,84.0,0.0,180.0,0.0,0.0
15102,84.0,0.0,180.0,1.0,0.0
15103,60.0,0.0,180.0,13.0,0.0
15104,72.0,96.0,90.0,11.0,0.0
15105,72.0,0.0,90.0,10.0,0.0
15106,72.0,0.0,90.0,10.0,0.0
15107,72.0,120.0,90.0,11.0,0.0
15108,64.0,0.0,180.0,2.0,0.0
15109,76.0,0.0,180.0,12.0,0.0
15110,88.0,24.0,180.0,1.0,0.0
15111,52.0,0.0,180.0,14.0,0.0
15112,88.0,0.0,180.0,0.0,0.0
15113,76.0,0.0,90.0,10.0,0.0
15114,64.0,0.0,180.0,13.0,0.0
15115,76.0,96.0,90.0,11.0,0.0
15116,76.0,0.0,90.0,10.0,0.0
15117,76.0,120.0,90.0,11.0,0.0
15118,69.0,0.0,90.0,10.0,0.0
15119,57.0,0.0,180.0,13.0,0.0
15120,81.0,24.0,180.0,0.0,0.0
15121,81.0,0.0,180.0,1.0,0.0
15122,69.0,96.0,90.0,11.0,0.0
15123,45.0,0.0,180.0,14.0,0.0
15124,57.0,0.0,180.0,2.0,0.0
15125,69.0,0.0,180.0,12.0,0.0
15126,69.0,120.0,90.0,10.0,0.0
15127,69.0,0.0,90.0,11.0,0.0
15128,84.0,0.0,180.0,0.0,0.0
15129,72.0,0.0,90.0,11.0,0.0
15130,60.0,0.0,180.0,2.0,0.0
15131,84.0,0.0,180.0,1.0,0.0
15132,60.0,0.0,180.0,13.0,0.0
15133,72.0,0.0,180.0,12.0,0.0
15134,48.0,24.0,180.0,14.0,0.0
15135,72.0,96.0,90.0,10.0,0.0
15136,72.0,0.0,90.0,10.0,0.0
15137,72.0,120.0,90.0,11.0,0.0
15138,66.0,96.0,90.0,10.0,0.0
15139,66.0,0.0,90.0,11.0,0.0
15140,78.0,0.0,180.0,1.0,0.0
15141,78.0,24.0,180.0,0.0,0.0
15142,54.0,0.0,180.0,2.0,0.0
15143,42.0,0.0,180.0,14.0,0.0
15144,54.0,0.0,180.0,13.0,0.0
15145,66.0,0.0,180.0,12.0,0.0
15146,66.0,120.0,90.0,10.0,0.0
15147,66.0,0.0,90.0,11.0,0.0
15148,69.0,96.0,90.0,10.0,0.0
15149,57.0,24.0,180.0,13.0,0.0
15150,69.0,0.0,180.0,12.0,0.0
15151,81.0,0.0,180.0,1.0,0.0
15152,69.0,0.0,90.0,11.0,0.0
15153,57.0,0.0,180.0,2.0,0.0
15154,81.0,0.0,180.0,0.0,0.0
15155,45.0,0.0,180.0,14.0,0.0
15156,69.0,120.0,90.0,10.0,0.0
15157,69.0,0.0,90.0,11.0,0.0
15158,67.0,96.0,90.0,10.0,0.0
15159,55.0,0.0,390.0,5.0,0.0
15160,67.0,0.0,90.0,11.0,0.0
15161,67.0,0.0,390.0,3.0,0.0
15162,55.0,48.0,390.0,3.0,0.0
15163,43.0,0.0,180.0,14.0,0.0
15164,79.0,24.0,180.0,1.0,0.0
15165,55.0,0.0,180.0,13.0,0.0
15166,67.0,0.0,180.0,12.0,0.0
15167,79.0,0.0,390.0,4.0,0.0
15168,67.0,0.0,390.0,4.0,0.0
15169,55.0,0.0,180.0,2.0,0.0
15170,79.0,0.0,180.0,0.0,0.0
15171,67.0,120.0,90.0,10.0,0.0
15172,67.0,0.0,90.0,11.0,0.0
15173,62.0,24.0,180.0,12.0,0.0
15174,62.0,0.0,90.0,11.0,0.0
15175,50.0,0.0,180.0,2.0,0.0
15176,86.0,0.0,180.0,0.0,0.0
15177,38.0,0.0,180.0,14.0,0.0
15178,50.0,0.0,180.0,13.0,0.0
15179,62.0,48.0,90.0,10.0,0.0
15180,74.0,0.0,180.0,1.0,0.0
15181,62.0,0.0,90.0,10.0,0.0
15182,62.0,120.0,90.0,11.0,0.0
15183,47.0,24.0,180.0,14.0,0.0
15184,71.0,0.0,180.0,12.0,0.0
15185,71.0,0.0,90.0,10.0,0.0
15186,59.0,0.0,180.0,2.0,0.0
15187,95.0,0.0,180.0,0.0,0.0
15188,59.0,0.0,180.0,13.0,0.0
15189,71.0,96.0,90.0,11.0,0.0
15190,83.0,0.0,180.0,1.0,0.0
15191,71.0,120.0,90.0,10.0,0.0
15192,71.0,0.0,90.0,11.0,0.0
15193,55.0,0.0,180.0,2.0,0.0
15194,79.0,0.0,180.0,1.0,0.0
15195,67.0,0.0,90.0,10.0,0.0
15196,91.0,0.0,180.0,0.0,0.0
15197,43.0,24.0,180.0,14.0,0.0
15198,67.0,0.0,180.0,12.0,0.0
15199,67.0,96.0,90.0,11.0,0.0
15200,55.0,0.0,180.0,13.0,0.0
15201,67.0,120.0,90.0,11.0,0.0
15202,67.0,0.0,90.0,10.0,0.0
15203,74.0,0.0,180.0,1.0,0.0
15204,86.0,0.0,180.0,0.0,0.0
15205,38.0,0.0,180.0,14.0,0.0
15206,62.0,0.0,180.0,12.0,0.0
15207,50.0,0.0,180.0,13.0,0.0
15208,50.0,24.0,180.0,2.0,0.0
15209,62.0,0.0,90.0,11.0,0.0
15210,62.0,96.0,90.0,10.0,0.0
15211,62.0,0.0,90.0,10.0,0.0
15212,62.0,120.0,90.0,11.0,0.0
15213,59.0,96.0,90.0,10.0,0.0
15214,59.0,0.0,180.0,12.0,0.0
15215,83.0,0.0,180.0,0.0,0.0
15216,59.0,0.0,90.0,11.0,0.0
15217,71.0,0.0,180.0,1.0,0.0
15218,47.0,0.0,180.0,2.0,0.0
15219,35.0,0.0,180.0,14.0,0.0
15220,47.0,24.0,180.0,13.0,0.0
15221,59.0,120.0,90.0,11.0,0.0
15222,59.0,0.0,90.0,10.0,0.0
15223,60.0,96.0,90.0,11.0,0.0
15224,60.0,24.0,180.0,12.0,0.0
15225,48.0,0.0,180.0,13.0,0.0
15226,48.0,0.0,180.0,2.0,0.0
15227,60.0,0.0,90.0,10.0,0.0
15228,72.0,0.0,570.0,1.0,0.0
15229,84.0,96.0,570.0,0.0,0.0
15230,36.0,0.0,180.0,14.0,0.0
15231,60.0,120.0,90.0,11.0,0.0
15232,60.0,0.0,90.0,10.0,0.0
15233,64.0,96.0,90.0,10.0,0.0
15234,40.0,0.0,180.0,14.0,0.0
15235,52.0,0.0,180.0,2.0,0.0
15236,52.0,24.0,180.0,13.0,0.0
15237,64.0,0.0,180.0,12.0,0.0
15238,64.0,0.0,90.0,11.0,0.0
15239,64.0,120.0,90.0,10.0,0.0
15240,64.0,0.0,90.0,11.0,0.0
15241,69.0,0.0,180.0,12.0,0.0
15242,69.0,0.0,90.0,11.0,0.0
15243,45.0,0.0,180.0,14.0,0.0
15244,57.0,24.0,180.0,2.0,0.0
15245,57.0,0.0,180.0,13.0,0.0
15246,69.0,0.0,90.0,10.0,0.0
15247,69.0,120.0,90.0,11.0,0.0
15248,69.0,0.0,90.0,10.0,0.0
15249,73.0,0.0,180.0,1.0,0.0
15250,61.0,0.0,90.0,11.0,0.0
15251,85.0,0.0,180.0,0.0,0.0
15252,61.0,96.0,90.0,10.0,0.0
15253,49.0,0.0,180.0,2.0,0.0
15254,49.0,24.0,180.0,13.0,0.0
15255,37.0,0.0,180.0,14.0,0.0
15256,61.0,0.0,180.0,12.0,0.0
15257,61.0,120.0,90.0,11.0,0.0
15258,61.0,0.0,90.0,10.0,0.0
15259,62.0,0.0,180.0,12.0,0.0
15260,62.0,0.0,90.0,10.0,0.0
15261,86.0,0.0,660.0,0.0,0.0
15262,62.0,96.0,90.0,11.0,0.0
15263,50.0,0.0,180.0,13.0,0.0
15264,74.0,0.0,660.0,1.0,0.0
15265,38.0,24.0,180.0,14.0,0.0
15266,50.0,0.0,180.0,2.0,0.0
15267,62.0,0.0,90.0,11.0,0.0
15268,62.0,120.0,90.0,10.0,0.0
15269,42.0,0.0,180.0,14.0,0.0
15270,66.0,0.0,180.0,12.0,0.0
15271,66.0,0.0,90.0,10.0,0.0
15272,54.0,24.0,180.0,2.0,0.0
15273,54.0,0.0,180.0,13.0,0.0
15274,66.0,96.0,90.0,11.0,0.0
15275,66.0,120.0,90.0,11.0,0.0
15276,66.0,0.0,90.0,10.0,0.0
15277,71.0,96.0,90.0,10.0,0.0
15278,71.0,0.0,90.0,11.0,0.0
15279,71.0,24.0,180.0,12.0,0.0
15280,59.0,0.0,180.0,13.0,0.0
15281,59.0,0.0,180.0,2.0,0.0
15282,47.0,0.0,180.0,14.0,0.0
15283,71.0,120.0,90.0,10.0,0.0
15284,71.0,0.0,90.0,11.0,0.0
15285,51.0,0.0,180.0,2.0,0.0
15286,63.0,0.0,180.0,12.0,0.0
15287,75.0,0.0,180.0,1.0,0.0
15288,63.0,0.0,90.0,10.0,0.0
15289,87.0,0.0,180.0,0.0,0.0
15290,63.0,96.0,90.0,11.0,0.0
15291,51.0,0.0,180.0,13.0,0.0
15292,39.0,24.0,180.0,14.0,0.0
15293,63.0,0.0,90.0,11.0,0.0
15294,63.0,120.0,90.0,10.0,0.0
15295,52.0,0.0,180.0,13.0,0.0
15296,52.0,24.0,180.0,2.0,0.0
15297,64.0,96.0,90.0,11.0,0.0
15298,88.0,0.0,570.0,0.0,0.0
15299,64.0,0.0,90.0,10.0,0.0
15300,64.0,0.0,180.0,12.0,0.0
15301,76.0,96.0,570.0,1.0,0.0
15302,40.0,0.0,180.0,14.0,0.0
15303,64.0,120.0,90.0,10.0,0.0
15304,64.0,0.0,90.0,11.0,0.0
15305,67.0,0.0,90.0,11.0,0.0
15306,43.0,0.0,180.0,14.0,0.0
15307,55.0,0.0,180.0,2.0,0.0
15308,67.0,96.0,90.0,10.0,0.0
15309,67.0,0.0,180.0,12.0,0.0
15310,55.0,24.0,180.0,13.0,0.0
15311,67.0,120.0,90.0,10.0,0.0
15312,67.0,0.0,90.0,11.0,0.0
15313,72.0,0.0,90.0,11.0,0.0
15314,60.0,0.0,180.0,13.0,0.0
15315,72.0,0.0,90.0,10.0,0.0
15316,60.0,0.0,180.0,2.0,0.0
15317,48.0,0.0,180.0,14.0,0.0
15318,72.0,24.0,180.0,12.0,0.0
15319,72.0,0.0,90.0,10.0,0.0
15320,72.0,120.0,90.0,11.0,0.0
15321,40.0,0.0,180.0,14.0,0.0
15322,88.0,0.0,180.0,0.0,0.0
15323,64.0,96.0,90.0,10.0,0.0
15324,64.0,0.0,180.0,12.0,0.0
15325,76.0,0.0,180.0,1.0,0.0
15326,64.0,0.0,90.0,11.0,0.0
15327,52.0,0.0,180.0,2.0,0.0
15328,52.0,24.0,180.0,13.0,0.0
15329,64.0,0.0,90.0,10.0,0.0
15330,64.0,120.0,90.0,11.0,0.0
15331,66.0,96.0,90.0,10.0,0.0
15332,90.0,48.0,300.0,0.0,0.0
15333,66.0,0.0,90.0,11.0,0.0
15334,42.0,24.0,180.0,14.0,0.0
15335,54.0,0.0,180.0,13.0,0.0
15336,66.0,0.0,180.0,12.0,0.0
15337,78.0,0.0,300.0,1.0,0.0
15338,54.0,0.0,180.0,2.0,0.0
15339,66.0,72.0,90.0,10.0,0.0
15340,66.0,0.0,90.0,11.0,0.0
15341,74.0,0.0,90.0,10.0,0.0
15342,74.0,24.0,180.0,12.0,0.0
15343,62.0,0.0,180.0,13.0,0.0
15344,62.0,0.0,180.0,2.0,0.0
15345,50.0,0.0,180.0,14.0,0.0
15346,74.0,96.0,90.0,11.0,0.0
15347,74.0,120.0,90.0,10.0,0.0
15348,74.0,0.0,90.0,11.0,0.0
15349,43.0,0.0,180.0,14.0,0.0
15350,67.0,0.0,180.0,12.0,0.0
15351,67.0,0.0,90.0,11.0,0.0
15352,79.0,0.0,300.0,1.0,0.0
15353,55.0,0.0,180.0,13.0,0.0
15354,67.0,96.0,90.0,10.0,0.0
15355,55.0,24.0,180.0,2.0,0.0
15356,91.0,48.0,300.0,0.0,0.0
15357,67.0,72.0,90.0,11.0,0.0
15358,67.0,0.0,90.0,10.0,0.0
15359,64.0,0.0,180.0,2.0,0.0
15360,64.0,24.0,180.0,13.0,0.0
15361,52.0,0.0,180.0,14.0,0.0
15362,76.0,0.0,180.0,12.0,0.0
15363,76.0,0.0,90.0,10.0,0.0
15364,76.0,96.0,90.0,11.0,0.0
15365,76.0,0.0,90.0,11.0,0.0
15366,76.0,120.0,90.0,10.0,0.0
15367,57.0,0.0,180.0,13.0,0.0
15368,69.0,96.0,90.0,11.0,0.0
15369,45.0,24.0,180.0,14.0,0.0
15370,93.0,48.0,300.0,0.0,0.0
15371,69.0,0.0,90.0,10.0,0.0
15372,81.0,0.0,300.0,1.0,0.0
15373,69.0,0.0,180.0,12.0,0.0
15374,57.0,0.0,180.0,2.0,0.0
15375,69.0,0.0,90.0,10.0,0.0
15376,69.0,72.0,90.0,11.0,0.0
15377,66.0,0.0,180.0,13.0,0.0
15378,78.0,0.0,180.0,12.0,0.0
15379,66.0,0.0,180.0,2.0,0.0
15380,78.0,0.0,90.0,11.0,0.0
15381,54.0,24.0,180.0,14.0,0.0
15382,78.0,96.0,90.0,10.0,0.0
15383,78.0,0.0,90.0,11.0,0.0
15384,78.0,120.0,90.0,10.0,0.0
15385,71.0,0.0,180.0,12.0,0.0
15386,95.0,0.0,390.0,0.0,0.0
15387,79.0,0.0,390.0,4.0,0.0
15388,67.0,0.0,390.0,4.0,0.0
15389,55.0,36.0,390.0,5.0,0.0
15390,79.0,0.0,90.0,11.0,0.0
15391,47.0,36.0,180.0,14.0,0.0
15392,83.0,0.0,390.0,1.0,0.0
15393,79.0,0.0,390.0,1.0,0.0
15394,79.0,84.0,90.0,10.0,0.0
15395,67.0,0.0,390.0,3.0,0.0
15396,71.0,0.0,390.0,3.0,0.0
15397,59.0,0.0,180.0,13.0,0.0
15398,59.0,0.0,180.0,2.0,0.0
15399,79.0,0.0,90.0,10.0,0.0
15400,79.0,120.0,90.0,11.0,0.0
15401,55.0,0.0,180.0,14.0,0.0
15402,79.0,48.0,90.0,10.0,0.0
15403,67.0,0.0,180.0,13.0,0.0
15404,79.0,0.0,180.0,12.0,0.0
15405,67.0,36.0,180.0,2.0,0.0
15406,79.0,0.0,90.0,11.0,0.0
15407,79.0,0.0,90.0,10.0,0.0
15408,79.0,120.0,90.0,11.0,0.0
15409,72.0,0.0,390.0,3.0,0.0
15410,81.0,84.0,90.0,10.0,0.0
15411,69.0,36.0,390.0,3.0,0.0
15412,81.0,0.0,90.0,11.0,0.0
15413,81.0,0.0,390.0,1.0,0.0
15414,84.0,0.0,390.0,1.0,0.0
15415,48.0,0.0,180.0,14.0,0.0
15416,93.0,0.0,390.0,0.0,0.0
15417,60.0,0.0,180.0,2.0,0.0
15418,60.0,36.0,180.0,13.0,0.0
15419,72.0,0.0,180.0,12.0,0.0
15420,81.0,120.0,90.0,10.0,0.0
15421,81.0,0.0,90.0,11.0,0.0
15422,76.0,0.0,180.0,12.0,0.0
15423,52.0,36.0,180.0,14.0,0.0
15424,81.0,0.0,90.0,10.0,0.0
15425,64.0,0.0,180.0,2.0,0.0
15426,64.0,0.0,180.0,13.0,0.0
15427,81.0,48.0,90.0,11.0,0.0
15428,81.0,0.0,90.0,11.0,0.0
15429,81.0,120.0,90.0,10.0,0.0
15430,81.0,0.0,390.0,1.0,0.0
15431,50.0,36.0,180.0,14.0,0.0
15432,69.0,0.0,390.0,3.0,0.0
15433,74.0,0.0,180.0,12.0,0.0
15434,50.0,36.0,390.0,5.0,0.0
15435,62.0,0.0,180.0,2.0,0.0
15436,78.0,0.0,390.0,1.0,0.0
15437,62.0,0.0,390.0,3.0,0.0
15438,62.0,0.0,180.0,13.0,0.0
15439,62.0,0.0,390.0,4.0,0.0
15440,90.0,0.0,390.0,0.0,0.0
15441,78.0,0.0,90.0,11.0,0.0
15442,74.0,0.0,390.0,4.0,0.0
15443,78.0,84.0,90.0,10.0,0.0
15444,78.0,120.0,90.0,10.0,0.0
15445,78.0,0.0,90.0,11.0,0.0
15446,60.0,0.0,180.0,2.0,0.0
15447,78.0,48.0,90.0,10.0,0.0
15448,48.0,0.0,180.0,14.0,0.0
15449,78.0,0.0,90.0,11.0,0.0
15450,60.0,36.0,180.0,13.0,0.0
15451,72.0,0.0,180.0,12.0,0.0
15452,78.0,0.0,90.0,10.0,0.0
15453,78.0,72.0,90.0,11.0,0.0
15454,91.0,0.0,1140.0,0.0,0.0
15455,55.0,0.0,390.0,3.0,0.0
15456,67.0,0.0,390.0,3.0,0.0
15457,47.0,24.0,390.0,14.0,0.0
15458,59.0,0.0,390.0,13.0,0.0
15459,86.0,48.0,120.0,10.0,0.0
15460,67.0,0.0,360.0,4.0,0.0
15461,55.0,60.0,60.0,5.0,0.0
15462,59.0,0.0,390.0,2.0,0.0
15463,83.0,36.0,1140.0,1.0,0.0
15464,74.0,0.0,1140.0,1.0,0.0
15465,86.0,0.0,120.0,11.0,0.0
15466,71.0,0.0,390.0,12.0,0.0
15467,79.0,0.0,360.0,4.0,0.0
15468,55.0,12.0,60.0,5.0,0.0
15469,84.0,0.0,120.0,11.0,0.0
15470,55.0,60.0,60.0,5.0,0.0
15471,84.0,48.0,120.0,10.0,0.0
15472,55.0,12.0,60.0,5.0,0.0
15473,83.0,24.0,120.0,10.0,0.0
15474,55.0,60.0,60.0,5.0,0.0
15475,83.0,0.0,120.0,11.0,0.0
15476,55.0,12.0,60.0,5.0,0.0
15477,81.0,0.0,120.0,10.0,0.0
15478,81.0,48.0,120.0,11.0,0.0
15479,55.0,60.0,60.0,5.0,0.0
15480,55.0,12.0,60.0,5.0,0.0
15481,79.0,48.0,120.0,11.0,0.0
15482,79.0,0.0,120.0,10.0,0.0
15483,67.0,0.0,270.0,4.0,0.0
15484,55.0,60.0,60.0,5.0,0.0
15485,79.0,18.0,270.0,4.0,0.0
15486,55.0,12.0,60.0,5.0,0.0
15487,78.0,30.0,120.0,10.0,0.0
15488,55.0,60.0,60.0,5.0,0.0
15489,78.0,0.0,120.0,11.0,0.0
15490,55.0,12.0,60.0,5.0,0.0
15491,55.0,60.0,60.0,5.0,0.0
15492,76.0,48.0,120.0,11.0,0.0
15493,76.0,0.0,120.0,10.0,0.0
15494,55.0,12.0,60.0,5.0,0.0
15495,74.0,48.0,120.0,10.0,0.0
15496,79.0,18.0,90.0,4.0,0.0
15497,67.0,0.0,90.0,4.0,0.0
15498,74.0,0.0,120.0,11.0,0.0
15499,55.0,42.0,60.0,5.0,0.0
15500,55.0,12.0,60.0,5.0,0.0
15501,72.0,0.0,120.0,11.0,0.0
15502,79.0,0.0,270.0,4.0,0.0
15503,67.0,18.0,270.0,4.0,0.0
15504,55.0,60.0,60.0,5.0,0.0
15505,72.0,48.0,120.0,10.0,0.0
15506,55.0,12.0,60.0,5.0,0.0
15507,71.0,30.0,120.0,11.0,0.0
15508,71.0,0.0,120.0,10.0,0.0
15509,55.0,24.0,60.0,5.0,0.0
15510,55.0,12.0,60.0,5.0,0.0
15511,55.0,60.0,60.0,5.0,0.0
15512,69.0,48.0,120.0,11.0,0.0
15513,69.0,0.0,120.0,10.0,0.0
15514,55.0,12.0,60.0,5.0,0.0
15515,79.0,0.0,90.0,4.0,0.0
15516,67.0,0.0,90.0,10.0,0.0
15517,67.0,6.0,90.0,4.0,0.0
15518,55.0,0.0,60.0,5.0,0.0
15519,67.0,12.0,90.0,11.0,0.0
15520,55.0,300.0,60.0,5.0,0.0
15521,84.0,0.0,300.0,1.0,0.0
15522,76.0,96.0,300.0,1.0,0.0
15523,88.0,0.0,300.0,0.0,0.0
15524,76.0,0.0,390.0,10.0,0.0
15525,76.0,0.0,390.0,11.0,0.0
15526,55.0,36.0,390.0,5.0,0.0
15527,67.0,0.0,390.0,4.0,0.0
15528,79.0,0.0,390.0,4.0,0.0
15529,72.0,240.0,180.0,12.0,0.0
15530,60.0,0.0,180.0,13.0,0.0
15531,60.0,0.0,180.0,2.0,0.0
15532,48.0,0.0,180.0,14.0,0.0
15533,69.0,0.0,390.0,10.0,0.0
15534,69.0,0.0,390.0,3.0,0.0
15535,69.0,0.0,390.0,11.0,0.0
15536,76.0,36.0,390.0,11.0,0.0
15537,84.0,0.0,300.0,11.0,0.0
15538,57.0,0.0,180.0,13.0,0.0
15539,72.0,0.0,390.0,3.0,0.0
15540,93.0,0.0,300.0,0.0,0.0
15541,57.0,108.0,180.0,2.0,0.0
15542,84.0,0.0,300.0,10.0,0.0
15543,76.0,0.0,390.0,10.0,0.0
15544,69.0,0.0,180.0,12.0,0.0
15545,81.0,0.0,300.0,1.0,0.0
15546,45.0,0.0,180.0,14.0,0.0
15547,84.0,96.0,300.0,1.0,0.0
15548,48.0,0.0,180.0,14.0,0.0
15549,60.0,0.0,180.0,2.0,0.0
15550,60.0,240.0,180.0,13.0,0.0
15551,72.0,0.0,180.0,12.0,0.0
15552,66.0,0.0,390.0,11.0,0.0
15553,74.0,0.0,390.0,10.0,0.0
15554,66.0,36.0,390.0,10.0,0.0
15555,62.0,0.0,180.0,13.0,0.0
15556,62.0,0.0,390.0,3.0,0.0
15557,81.0,0.0,300.0,1.0,0.0
15558,81.0,96.0,300.0,10.0,0.0
15559,90.0,0.0,300.0,0.0,0.0
15560,62.0,0.0,180.0,2.0,0.0
15561,74.0,0.0,180.0,12.0,0.0
15562,62.0,0.0,390.0,4.0,0.0
15563,50.0,108.0,180.0,14.0,0.0
15564,69.0,0.0,390.0,3.0,0.0
15565,74.0,0.0,390.0,4.0,0.0
15566,74.0,0.0,390.0,11.0,0.0
15567,81.0,0.0,300.0,11.0,0.0
15568,50.0,0.0,390.0,5.0,0.0
15569,78.0,0.0,300.0,1.0,0.0
15570,48.0,0.0,180.0,14.0,0.0
15571,60.0,108.0,180.0,13.0,0.0
15572,72.0,0.0,180.0,12.0,0.0
15573,60.0,0.0,180.0,2.0,0.0
15574,47.0,0.0,390.0,14.0,0.0
15575,83.0,36.0,1140.0,1.0,0.0
15576,55.0,60.0,60.0,5.0,0.0
15577,62.0,0.0,390.0,3.0,0.0
15578,59.0,0.0,390.0,13.0,0.0
15579,71.0,0.0,390.0,12.0,0.0
15580,86.0,0.0,1140.0,1.0,0.0
15581,86.0,48.0,120.0,11.0,0.0
15582,74.0,0.0,390.0,3.0,0.0
15583,59.0,24.0,390.0,2.0,0.0
15584,79.0,24.0,360.0,4.0,0.0
15585,67.0,0.0,360.0,4.0,0.0
15586,91.0,0.0,1140.0,0.0,0.0
15587,86.0,0.0,120.0,10.0,0.0
15588,55.0,12.0,60.0,5.0,0.0
15589,84.0,0.0,120.0,10.0,0.0
15590,84.0,48.0,120.0,11.0,0.0
15591,55.0,60.0,60.0,5.0,0.0
15592,55.0,12.0,60.0,5.0,0.0
15593,55.0,60.0,60.0,5.0,0.0
15594,83.0,0.0,120.0,10.0,0.0
15595,83.0,0.0,120.0,11.0,0.0
15596,55.0,12.0,60.0,5.0,0.0
15597,55.0,60.0,60.0,5.0,0.0
15598,81.0,48.0,120.0,10.0,0.0
15599,81.0,0.0,120.0,11.0,0.0
15600,55.0,12.0,60.0,5.0,0.0
15601,55.0,60.0,60.0,5.0,0.0
15602,79.0,0.0,270.0,4.0,0.0
15603,79.0,48.0,120.0,11.0,0.0
15604,79.0,0.0,120.0,10.0,0.0
15605,67.0,18.0,270.0,4.0,0.0
15606,55.0,12.0,60.0,5.0,0.0
15607,55.0,60.0,60.0,5.0,0.0
15608,78.0,30.0,120.0,11.0,0.0
15609,78.0,0.0,120.0,10.0,0.0
15610,55.0,12.0,60.0,5.0,0.0
15611,55.0,60.0,60.0,5.0,0.0
15612,76.0,0.0,120.0,11.0,0.0
15613,76.0,48.0,120.0,10.0,0.0
15614,55.0,12.0,60.0,5.0,0.0
15615,74.0,48.0,120.0,11.0,0.0
15616,79.0,0.0,90.0,4.0,0.0
15617,67.0,18.0,90.0,4.0,0.0
15618,74.0,0.0,120.0,10.0,0.0
15619,55.0,42.0,60.0,5.0,0.0
15620,55.0,12.0,60.0,5.0,0.0
15621,67.0,0.0,270.0,4.0,0.0
15622,79.0,18.0,270.0,4.0,0.0
15623,55.0,60.0,60.0,5.0,0.0
15624,72.0,0.0,120.0,11.0,0.0
15625,72.0,48.0,120.0,10.0,0.0
15626,55.0,12.0,60.0,5.0,0.0
15627,55.0,24.0,60.0,5.0,0.0
15628,71.0,30.0,120.0,11.0,0.0
15629,71.0,0.0,120.0,10.0,0.0
15630,55.0,12.0,60.0,5.0,0.0
15631,55.0,60.0,60.0,5.0,0.0
15632,69.0,48.0,120.0,10.0,0.0
15633,69.0,0.0,120.0,11.0,0.0
15634,55.0,12.0,60.0,5.0,0.0
15635,67.0,0.0,90.0,11.0,0.0
15636,79.0,0.0,90.0,4.0,0.0
15637,67.0,12.0,90.0,10.0,0.0
15638,55.0,42.0,60.0,5.0,0.0
15639,67.0,6.0,90.0,4.0,0.0
15640,55.0,300.0,60.0,5.0,0.0
15641,76.0,0.0,390.0,11.0,0.0
15642,79.0,0.0,390.0,4.0,0.0
15643,55.0,36.0,390.0,5.0,0.0
15644,76.0,0.0,390.0,10.0,0.0
15645,84.0,96.0,300.0,1.0,0.0
15646,76.0,0.0,300.0,1.0,0.0
15647,67.0,0.0,390.0,4.0,0.0
15648,88.0,0.0,300.0,0.0,0.0
15649,48.0,0.0,180.0,14.0,0.0
15650,60.0,0.0,180.0,13.0,0.0
15651,72.0,240.0,180.0,12.0,0.0
15652,60.0,0.0,180.0,2.0,0.0
15653,57.0,0.0,180.0,13.0,0.0
15654,69.0,36.0,390.0,11.0,0.0
15655,84.0,0.0,300.0,11.0,0.0
15656,45.0,0.0,180.0,14.0,0.0
15657,69.0,108.0,180.0,12.0,0.0
15658,76.0,0.0,390.0,11.0,0.0
15659,57.0,0.0,180.0,2.0,0.0
15660,72.0,0.0,390.0,3.0,0.0
15661,96.0,0.0,300.0,0.0,0.0
15662,84.0,96.0,300.0,1.0,0.0
15663,69.0,0.0,390.0,3.0,0.0
15664,69.0,0.0,390.0,10.0,0.0
15665,76.0,0.0,390.0,10.0,0.0
15666,84.0,0.0,300.0,10.0,0.0
15667,88.0,0.0,300.0,1.0,0.0
15668,60.0,0.0,180.0,2.0,0.0
15669,72.0,0.0,180.0,12.0,0.0
15670,60.0,0.0,180.0,13.0,0.0
15671,48.0,240.0,180.0,14.0,0.0
15672,66.0,0.0,390.0,11.0,0.0
15673,74.0,0.0,390.0,4.0,0.0
15674,74.0,0.0,180.0,12.0,0.0
15675,90.0,0.0,300.0,0.0,0.0
15676,62.0,0.0,390.0,4.0,0.0
15677,62.0,108.0,180.0,13.0,0.0
15678,81.0,0.0,300.0,1.0,0.0
15679,50.0,0.0,180.0,14.0,0.0
15680,62.0,0.0,180.0,2.0,0.0
15681,62.0,0.0,390.0,3.0,0.0
15682,69.0,0.0,390.0,3.0,0.0
15683,60.0,96.0,300.0,11.0,0.0
15684,66.0,0.0,390.0,10.0,0.0
15685,60.0,0.0,300.0,10.0,0.0
15686,84.0,0.0,300.0,1.0,0.0
15687,50.0,36.0,390.0,5.0,0.0
15688,50.0,0.0,180.0,2.0,0.0
15689,50.0,0.0,180.0,13.0,0.0
15690,62.0,0.0,180.0,12.0,0.0
15691,38.0,180.0,180.0,14.0,0.0
15692,83.0,48.0,390.0,1.0,0.0
15693,43.0,0.0,390.0,14.0,0.0
15694,79.0,0.0,390.0,1.0,0.0
15695,91.0,0.0,390.0,0.0,0.0
15696,67.0,96.0,120.0,10.0,0.0
15697,67.0,0.0,390.0,12.0,0.0
15698,55.0,0.0,390.0,13.0,0.0
15699,59.0,0.0,390.0,11.0,0.0
15700,55.0,0.0,390.0,5.0,0.0
15701,74.0,0.0,390.0,4.0,0.0
15702,67.0,0.0,390.0,11.0,0.0
15703,55.0,0.0,390.0,2.0,0.0
15704,67.0,0.0,390.0,3.0,0.0
15705,55.0,0.0,390.0,3.0,0.0
15706,67.0,0.0,390.0,4.0,0.0
15707,62.0,96.0,90.0,10.0,0.0
15708,64.0,72.0,60.0,10.0,0.0
15709,66.0,144.0,60.0,10.0,0.0
15710,71.0,0.0,390.0,4.0,0.0
15711,67.0,120.0,90.0,10.0,0.0
15712,59.0,0.0,390.0,3.0,0.0
15713,55.0,0.0,390.0,3.0,0.0
15714,67.0,72.0,390.0,4.0,0.0
15715,66.0,120.0,90.0,10.0,0.0
15716,67.0,48.0,90.0,10.0,0.0
15717,69.0,144.0,90.0,10.0,0.0
15718,71.0,72.0,300.0,4.0,0.0
15719,71.0,120.0,120.0,10.0,0.0
15720,59.0,0.0,300.0,3.0,0.0
15721,67.0,0.0,300.0,4.0,0.0
15722,55.0,0.0,300.0,3.0,0.0
15723,69.0,48.0,120.0,10.0,0.0
15724,71.0,96.0,120.0,10.0,0.0
15725,67.0,0.0,90.0,4.0,0.0
15726,71.0,144.0,90.0,4.0,0.0
15727,69.0,0.0,90.0,10.0,0.0
15728,59.0,0.0,90.0,3.0,0.0
15729,55.0,0.0,90.0,3.0,0.0
15730,55.0,0.0,390.0,2.0,0.0
15731,67.0,0.0,120.0,11.0,0.0
15732,67.0,0.0,390.0,4.0,0.0
15733,71.0,0.0,390.0,4.0,0.0
15734,55.0,0.0,390.0,3.0,0.0
15735,59.0,0.0,390.0,3.0,0.0
15736,43.0,0.0,390.0,14.0,0.0
15737,67.0,0.0,390.0,12.0,0.0
15738,55.0,0.0,390.0,13.0,0.0
15739,55.0,48.0,390.0,5.0,0.0
15740,71.0,96.0,120.0,10.0,0.0
15741,62.0,0.0,90.0,11.0,0.0
15742,66.0,96.0,90.0,10.0,0.0
15743,64.0,72.0,60.0,11.0,0.0
15744,67.0,0.0,60.0,10.0,0.0
15745,69.0,0.0,60.0,10.0,0.0
15746,66.0,144.0,60.0,11.0,0.0
15747,74.0,72.0,390.0,4.0,0.0
15748,71.0,120.0,90.0,10.0,0.0
15749,67.0,0.0,90.0,11.0,0.0
15750,71.0,0.0,390.0,4.0,0.0
15751,62.0,0.0,390.0,3.0,0.0
15752,59.0,0.0,390.0,3.0,0.0
15753,69.0,120.0,90.0,10.0,0.0
15754,66.0,0.0,90.0,11.0,0.0
15755,71.0,0.0,90.0,10.0,0.0
15756,67.0,48.0,90.0,11.0,0.0
15757,72.0,0.0,90.0,10.0,0.0
15758,69.0,144.0,90.0,11.0,0.0
15759,74.0,0.0,300.0,4.0,0.0
15760,71.0,72.0,300.0,4.0,0.0
15761,71.0,0.0,120.0,11.0,0.0
15762,59.0,0.0,300.0,3.0,0.0
15763,62.0,0.0,300.0,3.0,0.0
15764,74.0,120.0,120.0,10.0,0.0
15765,70.0,48.0,120.0,11.0,0.0
15766,73.0,0.0,120.0,10.0,0.0
15767,74.0,96.0,120.0,10.0,0.0
15768,71.0,0.0,120.0,11.0,0.0
15769,71.0,0.0,90.0,4.0,0.0
15770,74.0,0.0,90.0,4.0,0.0
15771,70.0,0.0,90.0,11.0,0.0
15772,59.0,0.0,90.0,3.0,0.0
15773,62.0,144.0,90.0,3.0,0.0
15774,73.0,0.0,90.0,10.0,0.0
15775,71.0,0.0,120.0,11.0,0.0
15776,62.0,0.0,390.0,3.0,0.0
15777,59.0,0.0,390.0,3.0,0.0
15778,67.0,24.0,180.0,1.0,0.0
15779,55.0,0.0,180.0,13.0,0.0
15780,55.0,0.0,180.0,2.0,0.0
15781,74.0,0.0,390.0,4.0,0.0
15782,71.0,72.0,390.0,4.0,0.0
15783,79.0,0.0,180.0,0.0,0.0
15784,55.0,0.0,390.0,5.0,0.0
15785,43.0,0.0,180.0,14.0,0.0
15786,55.0,0.0,180.0,12.0,0.0
15787,74.0,72.0,120.0,10.0,0.0
15788,67.0,0.0,90.0,11.0,0.0
15789,67.0,120.0,90.0,10.0,0.0
15790,69.0,0.0,90.0,10.0,0.0
15791,57.0,0.0,90.0,13.0,0.0
15792,69.0,0.0,90.0,11.0,0.0
15793,57.0,48.0,90.0,2.0,0.0
15794,45.0,0.0,90.0,14.0,0.0
15795,57.0,0.0,90.0,12.0,0.0
15796,81.0,0.0,90.0,0.0,0.0
15797,69.0,0.0,90.0,1.0,0.0
15798,47.0,0.0,90.0,14.0,0.0
15799,59.0,0.0,90.0,13.0,0.0
15800,71.0,120.0,90.0,10.0,0.0
15801,59.0,0.0,90.0,12.0,0.0
15802,71.0,0.0,90.0,1.0,0.0
15803,83.0,0.0,90.0,0.0,0.0
15804,59.0,0.0,90.0,2.0,0.0
15805,71.0,0.0,90.0,11.0,0.0
15806,72.0,0.0,90.0,1.0,0.0
15807,84.0,0.0,90.0,0.0,0.0
15808,79.0,72.0,390.0,4.0,0.0
15809,67.0,0.0,390.0,4.0,0.0
15810,72.0,0.0,90.0,11.0,0.0
15811,72.0,120.0,90.0,10.0,0.0
15812,48.0,0.0,90.0,14.0,0.0
15813,55.0,0.0,390.0,3.0,0.0
15814,67.0,0.0,390.0,3.0,0.0
15815,55.0,0.0,390.0,5.0,0.0
15816,60.0,0.0,90.0,2.0,0.0
15817,60.0,0.0,90.0,12.0,0.0
15818,60.0,0.0,90.0,13.0,0.0
15819,74.0,0.0,90.0,11.0,0.0
15820,62.0,0.0,90.0,2.0,0.0
15821,74.0,0.0,90.0,10.0,0.0
15822,62.0,0.0,90.0,12.0,0.0
15823,50.0,0.0,90.0,14.0,0.0
15824,62.0,120.0,90.0,13.0,0.0
15825,86.0,0.0,90.0,0.0,0.0
15826,74.0,0.0,90.0,1.0,0.0
15827,52.0,0.0,90.0,14.0,0.0
15828,64.0,0.0,90.0,13.0,0.0
15829,76.0,0.0,90.0,11.0,0.0
15830,88.0,48.0,90.0,0.0,0.0
15831,76.0,0.0,90.0,10.0,0.0
15832,64.0,0.0,90.0,2.0,0.0
15833,76.0,0.0,90.0,1.0,0.0
15834,64.0,0.0,90.0,12.0,0.0
15835,90.0,0.0,90.0,0.0,0.0
15836,66.0,0.0,90.0,2.0,0.0
15837,54.0,0.0,90.0,14.0,0.0
15838,66.0,0.0,90.0,12.0,0.0
15839,78.0,0.0,90.0,1.0,0.0
15840,66.0,0.0,90.0,13.0,0.0
15841,78.0,144.0,90.0,10.0,0.0
15842,78.0,0.0,90.0,11.0,0.0
15843,79.0,0.0,120.0,1.0,0.0
15844,67.0,0.0,120.0,13.0,0.0
15845,67.0,0.0,120.0,2.0,0.0
15846,91.0,0.0,120.0,0.0,0.0
15847,67.0,0.0,120.0,12.0,0.0
15848,55.0,0.0,390.0,3.0,0.0
15849,67.0,0.0,390.0,3.0,0.0
15850,79.0,0.0,120.0,10.0,0.0
15851,55.0,120.0,120.0,14.0,0.0
15852,55.0,72.0,300.0,5.0,0.0
15853,79.0,0.0,120.0,11.0,0.0
15854,79.0,72.0,390.0,4.0,0.0
15855,67.0,0.0,390.0,4.0,0.0
15856,78.0,0.0,120.0,10.0,0.0
15857,66.0,0.0,120.0,13.0,0.0
15858,78.0,0.0,120.0,1.0,0.0
15859,66.0,0.0,120.0,2.0,0.0
15860,90.0,0.0,120.0,0.0,0.0
15861,54.0,0.0,120.0,14.0,0.0
15862,66.0,0.0,120.0,12.0,0.0
15863,78.0,48.0,120.0,11.0,0.0
15864,91.0,0.0,120.0,0.0,0.0
15865,79.0,0.0,120.0,1.0,0.0
15866,67.0,0.0,120.0,2.0,0.0
15867,79.0,0.0,120.0,10.0,0.0
15868,67.0,0.0,120.0,13.0,0.0
15869,67.0,0.0,120.0,12.0,0.0
15870,55.0,24.0,120.0,14.0,0.0
15871,79.0,0.0,120.0,11.0,0.0
15872,66.0,0.0,90.0,13.0,0.0
15873,66.0,168.0,90.0,12.0,0.0
15874,78.0,0.0,90.0,1.0,0.0
15875,90.0,0.0,90.0,0.0,0.0
15876,55.0,0.0,90.0,5.0,0.0
15877,78.0,0.0,90.0,10.0,0.0
15878,78.0,0.0,90.0,11.0,0.0
15879,66.0,0.0,90.0,2.0,0.0
15880,54.0,0.0,90.0,14.0,0.0
15881,67.0,0.0,150.0,12.0,0.0
15882,55.0,0.0,150.0,14.0,0.0
15883,67.0,0.0,150.0,13.0,0.0
15884,79.0,0.0,150.0,11.0,0.0
15885,55.0,168.0,180.0,3.0,0.0
15886,67.0,0.0,150.0,2.0,0.0
15887,79.0,0.0,180.0,4.0,0.0
15888,55.0,0.0,180.0,5.0,0.0
15889,67.0,0.0,180.0,4.0,0.0
15890,91.0,0.0,150.0,0.0,0.0
15891,79.0,0.0,150.0,10.0,0.0
15892,67.0,0.0,180.0,3.0,0.0
15893,79.0,48.0,150.0,1.0,0.0
15894,69.0,72.0,120.0,12.0,0.0
15895,81.0,0.0,120.0,10.0,0.0
15896,81.0,0.0,120.0,1.0,0.0
15897,62.0,0.0,180.0,4.0,0.0
15898,81.0,0.0,120.0,11.0,0.0
15899,93.0,0.0,120.0,0.0,0.0
15900,69.0,0.0,120.0,13.0,0.0
15901,74.0,0.0,180.0,4.0,0.0
15902,69.0,0.0,120.0,2.0,0.0
15903,57.0,0.0,120.0,14.0,0.0
15904,50.0,24.0,180.0,3.0,0.0
15905,50.0,0.0,180.0,5.0,0.0
15906,62.0,0.0,180.0,3.0,0.0
15907,78.0,0.0,90.0,1.0,0.0
15908,66.0,168.0,90.0,13.0,0.0
15909,90.0,0.0,90.0,0.0,0.0
15910,78.0,0.0,90.0,11.0,0.0
15911,66.0,0.0,90.0,12.0,0.0
15912,66.0,0.0,90.0,2.0,0.0
15913,78.0,0.0,90.0,10.0,0.0
15914,54.0,0.0,90.0,14.0,0.0
15915,67.0,0.0,150.0,12.0,0.0
15916,79.0,0.0,150.0,10.0,0.0
15917,55.0,0.0,180.0,5.0,0.0
15918,55.0,0.0,150.0,14.0,0.0
15919,79.0,0.0,180.0,4.0,0.0
15920,67.0,0.0,180.0,4.0,0.0
15921,55.0,168.0,180.0,3.0,0.0
15922,79.0,0.0,150.0,11.0,0.0
15923,67.0,0.0,150.0,2.0,0.0
15924,79.0,48.0,150.0,1.0,0.0
15925,67.0,0.0,180.0,3.0,0.0
15926,91.0,0.0,150.0,0.0,0.0
15927,67.0,0.0,150.0,13.0,0.0
15928,69.0,0.0,120.0,13.0,0.0
15929,57.0,0.0,120.0,14.0,0.0
15930,81.0,0.0,120.0,10.0,0.0
15931,50.0,0.0,180.0,5.0,0.0
15932,50.0,24.0,180.0,3.0,0.0
15933,62.0,0.0,180.0,3.0,0.0
15934,81.0,0.0,120.0,11.0,0.0
15935,69.0,0.0,120.0,2.0,0.0
15936,74.0,0.0,180.0,4.0,0.0
15937,93.0,0.0,120.0,0.0,0.0
15938,62.0,0.0,180.0,4.0,0.0
15939,69.0,0.0,120.0,12.0,0.0
15940,81.0,72.0,120.0,1.0,0.0
15941,66.0,0.0,90.0,12.0,0.0
15942,78.0,0.0,90.0,10.0,0.0
15943,66.0,0.0,90.0,13.0,0.0
15944,54.0,168.0,90.0,14.0,0.0
15945,66.0,0.0,90.0,2.0,0.0
15946,78.0,0.0,90.0,1.0,0.0
15947,90.0,0.0,90.0,0.0,0.0
15948,78.0,0.0,90.0,11.0,0.0
15949,67.0,0.0,180.0,3.0,0.0
15950,67.0,0.0,150.0,12.0,0.0
15951,79.0,0.0,150.0,11.0,0.0
15952,55.0,168.0,180.0,5.0,0.0
15953,67.0,0.0,180.0,4.0,0.0
15954,79.0,0.0,180.0,4.0,0.0
15955,91.0,0.0,150.0,0.0,0.0
15956,55.0,0.0,180.0,3.0,0.0
15957,55.0,0.0,150.0,14.0,0.0
15958,79.0,0.0,150.0,1.0,0.0
15959,79.0,48.0,150.0,10.0,0.0
15960,67.0,0.0,150.0,13.0,0.0
15961,67.0,0.0,150.0,2.0,0.0
15962,81.0,0.0,120.0,11.0,0.0
15963,74.0,0.0,180.0,4.0,0.0
15964,62.0,0.0,180.0,4.0,0.0
15965,57.0,0.0,120.0,14.0,0.0
15966,93.0,0.0,120.0,0.0,0.0
15967,50.0,24.0,180.0,5.0,0.0
15968,81.0,0.0,120.0,10.0,0.0
15969,69.0,0.0,120.0,2.0,0.0
15970,81.0,72.0,120.0,1.0,0.0
15971,50.0,0.0,180.0,3.0,0.0
15972,62.0,0.0,180.0,3.0,0.0
15973,69.0,0.0,120.0,13.0,0.0
15974,69.0,0.0,120.0,12.0,0.0
15975,54.0,336.0,90.0,14.0,0.0
15976,66.0,0.0,90.0,13.0,0.0
15977,90.0,0.0,90.0,0.0,0.0
15978,66.0,0.0,90.0,2.0,0.0
15979,66.0,0.0,90.0,12.0,0.0
15980,78.0,0.0,90.0,11.0,0.0
15981,78.0,0.0,90.0,1.0,0.0
15982,78.0,0.0,90.0,10.0,0.0
15983,79.0,0.0,300.0,11.0,0.0
15984,55.0,0.0,300.0,14.0,0.0
15985,67.0,72.0,300.0,12.0,0.0
15986,79.0,0.0,300.0,1.0,0.0
15987,67.0,0.0,300.0,4.0,0.0
15988,55.0,0.0,300.0,3.0,0.0
15989,79.0,0.0,300.0,10.0,0.0
15990,67.0,0.0,300.0,3.0,0.0
15991,79.0,0.0,300.0,4.0,0.0
15992,55.0,408.0,390.0,5.0,0.0
15993,67.0,0.0,300.0,2.0,0.0
15994,67.0,0.0,300.0,13.0,0.0
15995,91.0,0.0,300.0,0.0,0.0
15996,83.0,72.0,300.0,11.0,0.0
15997,86.0,0.0,300.0,1.0,0.0
15998,62.0,0.0,300.0,13.0,0.0
15999,62.0,0.0,300.0,2.0,0.0
16000,67.0,0.0,300.0,10.0,0.0
16001,74.0,0.0,300.0,11.0,0.0
16002,74.0,0.0,300.0,1.0,0.0
16003,62.0,0.0,300.0,12.0,0.0
16004,55.0,408.0,390.0,5.0,0.0
16005,59.0,0.0,300.0,3.0,0.0
16006,50.0,0.0,300.0,14.0,0.0
16007,86.0,0.0,300.0,0.0,0.0
16008,83.0,0.0,300.0,10.0,0.0
16009,67.0,0.0,300.0,11.0,0.0
16010,83.0,0.0,300.0,4.0,0.0
16011,71.0,0.0,300.0,4.0,0.0
16012,71.0,0.0,300.0,3.0,0.0
16013,74.0,0.0,300.0,10.0,0.0
16014,67.0,0.0,300.0,10.0,0.0
16015,67.0,0.0,300.0,11.0,0.0
16016,74.0,0.0,300.0,11.0,0.0
16017,86.0,0.0,300.0,11.0,0.0
16018,86.0,0.0,300.0,10.0,0.0
16019,74.0,0.0,300.0,10.0,0.0
16020,74.0,72.0,300.0,4.0,0.0
16021,62.0,0.0,300.0,3.0,0.0
16022,59.0,0.0,300.0,13.0,0.0
16023,59.0,0.0,300.0,12.0,0.0
16024,47.0,0.0,300.0,14.0,0.0
16025,74.0,0.0,300.0,3.0,0.0
16026,55.0,408.0,390.0,5.0,0.0
16027,83.0,0.0,300.0,0.0,0.0
16028,83.0,0.0,300.0,1.0,0.0
16029,71.0,0.0,300.0,1.0,0.0
16030,59.0,0.0,300.0,2.0,0.0
16031,86.0,0.0,300.0,4.0,0.0
16032,67.0,0.0,300.0,4.0,0.0
16033,74.0,0.0,300.0,10.0,0.0
16034,79.0,0.0,300.0,4.0,0.0
16035,67.0,0.0,300.0,10.0,0.0
16036,83.0,0.0,300.0,10.0,0.0
16037,55.0,0.0,300.0,13.0,0.0
16038,79.0,0.0,300.0,0.0,0.0
16039,55.0,0.0,300.0,3.0,0.0
16040,55.0,0.0,300.0,2.0,0.0
16041,83.0,0.0,300.0,11.0,0.0
16042,67.0,0.0,300.0,3.0,0.0
16043,55.0,408.0,390.0,5.0,0.0
16044,79.0,0.0,300.0,1.0,0.0
16045,43.0,0.0,300.0,14.0,0.0
16046,55.0,0.0,300.0,12.0,0.0
16047,67.0,0.0,300.0,1.0,0.0
16048,67.0,72.0,300.0,11.0,0.0
16049,74.0,0.0,300.0,11.0,0.0
16050,59.0,0.0,300.0,11.0,0.0
16051,62.0,0.0,300.0,3.0,0.0
16052,59.0,0.0,300.0,3.0,0.0
16053,91.0,0.0,300.0,0.0,0.0
16054,43.0,0.0,300.0,14.0,0.0
16055,74.0,0.0,300.0,4.0,0.0
16056,67.0,0.0,300.0,11.0,0.0
16057,71.0,0.0,300.0,4.0,0.0
16058,55.0,0.0,300.0,13.0,0.0
16059,67.0,0.0,300.0,10.0,0.0
16060,59.0,0.0,300.0,10.0,0.0
16061,55.0,408.0,390.0,5.0,0.0
16062,55.0,0.0,300.0,2.0,0.0
16063,83.0,0.0,300.0,1.0,0.0
16064,79.0,0.0,300.0,1.0,0.0
16065,55.0,72.0,300.0,12.0,0.0
16066,55.0,0.0,300.0,12.0,0.0
16067,67.0,0.0,300.0,11.0,0.0
16068,55.0,408.0,390.0,5.0,0.0
16069,79.0,0.0,300.0,1.0,0.0
16070,74.0,0.0,300.0,4.0,0.0
16071,43.0,0.0,300.0,14.0,0.0
16072,91.0,0.0,300.0,0.0,0.0
16073,83.0,0.0,300.0,1.0,0.0
16074,55.0,72.0,300.0,2.0,0.0
16075,71.0,0.0,300.0,4.0,0.0
16076,59.0,0.0,300.0,11.0,0.0
16077,62.0,0.0,300.0,3.0,0.0
16078,59.0,0.0,300.0,3.0,0.0
16079,55.0,0.0,300.0,13.0,0.0
16080,59.0,0.0,300.0,10.0,0.0
16081,67.0,0.0,300.0,10.0,0.0
16082,55.0,0.0,390.0,12.0,0.0
16083,59.0,0.0,390.0,11.0,0.0
16084,83.0,0.0,300.0,1.0,0.0
16085,79.0,0.0,300.0,1.0,0.0
16086,55.0,0.0,390.0,5.0,0.0
16087,55.0,0.0,300.0,2.0,0.0
16088,67.0,0.0,390.0,10.0,0.0
16089,62.0,0.0,300.0,3.0,0.0
16090,91.0,0.0,300.0,0.0,0.0
16091,43.0,3648.0,390.0,14.0,0.0
16092,55.0,0.0,390.0,13.0,0.0
16093,71.0,0.0,300.0,4.0,0.0
16094,74.0,0.0,300.0,4.0,0.0
16095,67.0,0.0,390.0,11.0,0.0
16096,59.0,72.0,300.0,3.0,0.0
16097,59.0,0.0,390.0,10.0,0.0
16098,31.0,0.0,1140.0,14.0,0.0
