,note,step,duration,channel,velocity
0,41.0,96.0,90.0,1.0,0.0
1,60.0,24.0,20.0,0.0,0.0
2,65.0,24.0,20.0,0.0,0.0
3,69.0,24.0,20.0,0.0,0.0
4,72.0,32.0,270.0,0.0,0.0
5,53.0,96.0,90.0,1.0,0.0
6,57.0,64.0,90.0,1.0,0.0
7,53.0,96.0,90.0,1.0,0.0
8,60.0,96.0,90.0,1.0,0.0
9,69.0,46.0,330.0,0.0,0.0
10,53.0,96.0,90.0,1.0,0.0
11,63.0,48.0,90.0,1.0,0.0
12,53.0,98.0,90.0,1.0,0.0
13,72.0,0.0,90.0,0.0,0.0
14,62.0,94.0,90.0,1.0,0.0
15,53.0,32.0,90.0,1.0,0.0
16,70.0,2.0,90.0,0.0,0.0
17,58.0,32.0,90.0,1.0,0.0
18,67.0,64.0,30.0,0.0,0.0
19,53.0,0.0,270.0,1.0,0.0
20,64.0,224.0,30.0,0.0,0.0
21,65.0,0.0,150.0,0.0,0.0
22,57.0,224.0,150.0,1.0,0.0
23,60.0,32.0,90.0,0.0,0.0
24,57.0,0.0,90.0,1.0,0.0
25,58.0,0.0,30.0,1.0,0.0
26,62.0,96.0,30.0,0.0,0.0
27,60.0,96.0,30.0,1.0,0.0
28,64.0,0.0,30.0,0.0,0.0
29,65.0,96.0,30.0,0.0,0.0
30,62.0,0.0,30.0,1.0,0.0
31,67.0,96.0,30.0,0.0,0.0
32,64.0,0.0,30.0,1.0,0.0
33,65.0,96.0,30.0,1.0,0.0
34,69.0,0.0,30.0,0.0,0.0
35,70.0,0.0,30.0,0.0,0.0
36,67.0,96.0,30.0,1.0,0.0
37,72.0,0.0,30.0,0.0,0.0
38,69.0,160.0,30.0,1.0,0.0
39,74.0,94.0,90.0,0.0,0.0
40,70.0,0.0,90.0,0.0,0.0
41,72.0,0.0,90.0,0.0,0.0
42,69.0,98.0,90.0,0.0,0.0
43,67.0,32.0,150.0,0.0,0.0
44,70.0,0.0,150.0,0.0,0.0
45,48.0,64.0,90.0,1.0,0.0
46,52.0,94.0,90.0,1.0,0.0
47,65.0,0.0,90.0,0.0,0.0
48,69.0,96.0,90.0,0.0,0.0
49,53.0,0.0,90.0,1.0,0.0
50,65.0,32.0,90.0,0.0,0.0
51,60.0,2.0,90.0,1.0,0.0
52,69.0,0.0,90.0,0.0,0.0
53,64.0,218.0,90.0,0.0,0.0
54,67.0,0.0,90.0,0.0,0.0
55,48.0,62.0,30.0,1.0,0.0
56,60.0,24.0,20.0,0.0,0.0
57,41.0,96.0,90.0,1.0,0.0
58,65.0,24.0,20.0,0.0,0.0
59,69.0,24.0,20.0,0.0,0.0
60,72.0,32.0,270.0,0.0,0.0
61,53.0,96.0,90.0,1.0,0.0
62,57.0,64.0,90.0,1.0,0.0
63,53.0,96.0,90.0,1.0,0.0
64,60.0,96.0,90.0,1.0,0.0
65,69.0,46.0,330.0,0.0,0.0
66,53.0,96.0,90.0,1.0,0.0
67,63.0,48.0,90.0,1.0,0.0
68,53.0,98.0,90.0,1.0,0.0
69,72.0,94.0,90.0,0.0,0.0
70,62.0,0.0,90.0,1.0,0.0
71,70.0,2.0,90.0,0.0,0.0
72,53.0,32.0,90.0,1.0,0.0
73,67.0,64.0,30.0,0.0,0.0
74,58.0,32.0,90.0,1.0,0.0
75,64.0,224.0,30.0,0.0,0.0
76,53.0,224.0,270.0,1.0,0.0
77,57.0,0.0,150.0,1.0,0.0
78,65.0,0.0,150.0,0.0,0.0
79,60.0,32.0,90.0,0.0,0.0
80,57.0,0.0,90.0,1.0,0.0
81,58.0,96.0,30.0,1.0,0.0
82,62.0,0.0,30.0,0.0,0.0
83,60.0,96.0,30.0,1.0,0.0
84,64.0,0.0,30.0,0.0,0.0
85,65.0,0.0,30.0,0.0,0.0
86,62.0,96.0,30.0,1.0,0.0
87,67.0,0.0,30.0,0.0,0.0
88,64.0,96.0,30.0,1.0,0.0
89,69.0,0.0,30.0,0.0,0.0
90,65.0,96.0,30.0,1.0,0.0
91,67.0,96.0,30.0,1.0,0.0
92,70.0,0.0,30.0,0.0,0.0
93,72.0,96.0,30.0,0.0,0.0
94,69.0,0.0,30.0,1.0,0.0
95,67.0,0.0,30.0,0.0,0.0
96,76.0,256.0,30.0,0.0,0.0
97,69.0,48.0,540.0,0.0,0.0
98,77.0,32.0,390.0,0.0,0.0
99,53.0,96.0,90.0,1.0,0.0
100,52.0,94.0,90.0,1.0,0.0
101,53.0,2.0,90.0,1.0,0.0
102,41.0,112.0,30.0,1.0,0.0
103,74.0,0.0,360.0,0.0,0.0
104,53.0,96.0,90.0,1.0,0.0
105,52.0,64.0,90.0,1.0,0.0
106,65.0,30.0,150.0,0.0,0.0
107,53.0,34.0,90.0,1.0,0.0
108,43.0,64.0,30.0,1.0,0.0
109,62.0,48.0,90.0,0.0,0.0
110,71.0,20.0,330.0,0.0,0.0
111,55.0,68.0,90.0,1.0,0.0
112,64.0,48.0,40.0,0.0,0.0
113,65.0,0.0,40.0,0.0,0.0
114,54.0,48.0,90.0,1.0,0.0
115,67.0,28.0,60.0,0.0,0.0
116,65.0,26.0,60.0,0.0,0.0
117,55.0,96.0,90.0,1.0,0.0
118,72.0,0.0,90.0,0.0,0.0
119,48.0,0.0,90.0,1.0,0.0
120,64.0,96.0,90.0,0.0,0.0
121,60.0,96.0,90.0,1.0,0.0
122,70.0,0.0,180.0,0.0,0.0
123,64.0,94.0,180.0,0.0,0.0
124,60.0,96.0,90.0,1.0,0.0
125,60.0,2.0,90.0,1.0,0.0
126,69.0,0.0,90.0,0.0,0.0
127,65.0,0.0,90.0,0.0,0.0
128,48.0,96.0,90.0,1.0,0.0
129,60.0,50.0,90.0,1.0,0.0
130,71.0,46.0,40.0,0.0,0.0
131,48.0,2.0,90.0,1.0,0.0
132,65.0,30.0,150.0,0.0,0.0
133,72.0,48.0,40.0,0.0,0.0
134,60.0,2.0,90.0,1.0,0.0
135,74.0,16.0,40.0,0.0,0.0
136,71.0,94.0,40.0,0.0,0.0
137,48.0,0.0,90.0,1.0,0.0
138,64.0,0.0,90.0,0.0,0.0
139,72.0,96.0,90.0,0.0,0.0
140,60.0,96.0,90.0,1.0,0.0
141,48.0,96.0,90.0,1.0,0.0
142,70.0,0.0,180.0,0.0,0.0
143,76.0,94.0,180.0,0.0,0.0
144,60.0,2.0,90.0,1.0,0.0
145,48.0,0.0,90.0,1.0,0.0
146,77.0,0.0,90.0,0.0,0.0
147,69.0,96.0,90.0,0.0,0.0
148,60.0,50.0,90.0,1.0,0.0
149,71.0,46.0,40.0,0.0,0.0
150,65.0,30.0,150.0,0.0,0.0
151,48.0,2.0,90.0,1.0,0.0
152,72.0,48.0,40.0,0.0,0.0
153,74.0,16.0,40.0,0.0,0.0
154,60.0,2.0,90.0,1.0,0.0
155,71.0,94.0,40.0,0.0,0.0
156,48.0,0.0,90.0,1.0,0.0
157,72.0,0.0,90.0,0.0,0.0
158,64.0,314.0,90.0,0.0,0.0
159,41.0,96.0,90.0,1.0,0.0
160,60.0,24.0,20.0,0.0,0.0
161,65.0,24.0,20.0,0.0,0.0
162,69.0,24.0,20.0,0.0,0.0
163,72.0,32.0,270.0,0.0,0.0
164,53.0,96.0,90.0,1.0,0.0
165,57.0,64.0,90.0,1.0,0.0
166,53.0,96.0,90.0,1.0,0.0
167,60.0,96.0,90.0,1.0,0.0
168,69.0,46.0,330.0,0.0,0.0
169,53.0,96.0,90.0,1.0,0.0
170,63.0,48.0,90.0,1.0,0.0
171,53.0,98.0,90.0,1.0,0.0
172,62.0,94.0,90.0,1.0,0.0
173,72.0,0.0,90.0,0.0,0.0
174,70.0,2.0,90.0,0.0,0.0
175,53.0,32.0,90.0,1.0,0.0
176,58.0,32.0,90.0,1.0,0.0
177,67.0,64.0,30.0,0.0,0.0
178,64.0,224.0,30.0,0.0,0.0
179,53.0,224.0,270.0,1.0,0.0
180,65.0,0.0,150.0,0.0,0.0
181,57.0,0.0,150.0,1.0,0.0
182,57.0,0.0,90.0,1.0,0.0
183,60.0,32.0,90.0,0.0,0.0
184,58.0,0.0,30.0,1.0,0.0
185,62.0,96.0,30.0,0.0,0.0
186,64.0,96.0,30.0,0.0,0.0
187,60.0,0.0,30.0,1.0,0.0
188,62.0,96.0,30.0,1.0,0.0
189,65.0,0.0,30.0,0.0,0.0
190,67.0,96.0,30.0,0.0,0.0
191,64.0,0.0,30.0,1.0,0.0
192,65.0,96.0,30.0,1.0,0.0
193,69.0,0.0,30.0,0.0,0.0
194,70.0,96.0,30.0,0.0,0.0
195,67.0,0.0,30.0,1.0,0.0
196,72.0,0.0,30.0,0.0,0.0
197,69.0,160.0,30.0,1.0,0.0
198,70.0,0.0,90.0,0.0,0.0
199,74.0,94.0,90.0,0.0,0.0
200,72.0,0.0,90.0,0.0,0.0
201,69.0,98.0,90.0,0.0,0.0
202,67.0,0.0,150.0,0.0,0.0
203,70.0,32.0,150.0,0.0,0.0
204,48.0,64.0,90.0,1.0,0.0
205,52.0,94.0,90.0,1.0,0.0
206,53.0,96.0,90.0,1.0,0.0
207,69.0,0.0,90.0,0.0,0.0
208,65.0,0.0,90.0,0.0,0.0
209,69.0,0.0,90.0,0.0,0.0
210,65.0,32.0,90.0,0.0,0.0
211,60.0,2.0,90.0,1.0,0.0
212,64.0,0.0,90.0,0.0,0.0
213,67.0,218.0,90.0,0.0,0.0
214,48.0,62.0,30.0,1.0,0.0
215,41.0,96.0,90.0,1.0,0.0
216,60.0,24.0,20.0,0.0,0.0
217,65.0,24.0,20.0,0.0,0.0
218,69.0,24.0,20.0,0.0,0.0
219,72.0,32.0,270.0,0.0,0.0
220,53.0,96.0,90.0,1.0,0.0
221,57.0,64.0,90.0,1.0,0.0
222,53.0,96.0,90.0,1.0,0.0
223,60.0,96.0,90.0,1.0,0.0
224,69.0,46.0,330.0,0.0,0.0
225,53.0,96.0,90.0,1.0,0.0
226,63.0,48.0,90.0,1.0,0.0
227,53.0,98.0,90.0,1.0,0.0
228,62.0,0.0,90.0,1.0,0.0
229,72.0,94.0,90.0,0.0,0.0
230,53.0,32.0,90.0,1.0,0.0
231,70.0,2.0,90.0,0.0,0.0
232,58.0,32.0,90.0,1.0,0.0
233,67.0,64.0,30.0,0.0,0.0
234,64.0,224.0,30.0,0.0,0.0
235,53.0,224.0,270.0,1.0,0.0
236,65.0,0.0,150.0,0.0,0.0
237,57.0,0.0,150.0,1.0,0.0
238,60.0,32.0,90.0,0.0,0.0
239,57.0,0.0,90.0,1.0,0.0
240,58.0,0.0,30.0,1.0,0.0
241,62.0,96.0,30.0,0.0,0.0
242,64.0,0.0,30.0,0.0,0.0
243,60.0,96.0,30.0,1.0,0.0
244,65.0,0.0,30.0,0.0,0.0
245,62.0,96.0,30.0,1.0,0.0
246,67.0,0.0,30.0,0.0,0.0
247,64.0,96.0,30.0,1.0,0.0
248,65.0,0.0,30.0,1.0,0.0
249,69.0,96.0,30.0,0.0,0.0
250,67.0,96.0,30.0,1.0,0.0
251,70.0,0.0,30.0,0.0,0.0
252,72.0,96.0,30.0,0.0,0.0
253,69.0,0.0,30.0,1.0,0.0
254,67.0,0.0,30.0,0.0,0.0
255,76.0,256.0,30.0,0.0,0.0
256,69.0,48.0,540.0,0.0,0.0
257,77.0,32.0,390.0,0.0,0.0
258,53.0,96.0,90.0,1.0,0.0
259,52.0,94.0,90.0,1.0,0.0
260,53.0,2.0,90.0,1.0,0.0
261,41.0,112.0,30.0,1.0,0.0
262,74.0,30.0,360.0,0.0,0.0
263,53.0,96.0,90.0,1.0,0.0
264,65.0,0.0,150.0,0.0,0.0
265,52.0,64.0,90.0,1.0,0.0
266,53.0,34.0,90.0,1.0,0.0
267,43.0,64.0,30.0,1.0,0.0
268,62.0,48.0,90.0,0.0,0.0
269,71.0,20.0,330.0,0.0,0.0
270,55.0,68.0,90.0,1.0,0.0
271,64.0,48.0,40.0,0.0,0.0
272,65.0,0.0,40.0,0.0,0.0
273,54.0,48.0,90.0,1.0,0.0
274,67.0,28.0,60.0,0.0,0.0
275,65.0,26.0,60.0,0.0,0.0
276,55.0,96.0,90.0,1.0,0.0
277,72.0,0.0,90.0,0.0,0.0
278,64.0,0.0,90.0,0.0,0.0
279,48.0,96.0,90.0,1.0,0.0
280,60.0,96.0,90.0,1.0,0.0
281,60.0,96.0,90.0,1.0,0.0
282,64.0,94.0,180.0,0.0,0.0
283,70.0,0.0,180.0,0.0,0.0
284,60.0,2.0,90.0,1.0,0.0
285,65.0,0.0,90.0,0.0,0.0
286,48.0,0.0,90.0,1.0,0.0
287,69.0,96.0,90.0,0.0,0.0
288,60.0,50.0,90.0,1.0,0.0
289,65.0,30.0,150.0,0.0,0.0
290,71.0,46.0,40.0,0.0,0.0
291,48.0,2.0,90.0,1.0,0.0
292,72.0,48.0,40.0,0.0,0.0
293,60.0,2.0,90.0,1.0,0.0
294,74.0,16.0,40.0,0.0,0.0
295,71.0,94.0,40.0,0.0,0.0
296,72.0,0.0,90.0,0.0,0.0
297,64.0,0.0,90.0,0.0,0.0
298,48.0,96.0,90.0,1.0,0.0
299,60.0,96.0,90.0,1.0,0.0
300,76.0,0.0,180.0,0.0,0.0
301,70.0,94.0,180.0,0.0,0.0
302,48.0,96.0,90.0,1.0,0.0
303,60.0,2.0,90.0,1.0,0.0
304,48.0,96.0,90.0,1.0,0.0
305,77.0,0.0,90.0,0.0,0.0
306,69.0,0.0,90.0,0.0,0.0
307,60.0,50.0,90.0,1.0,0.0
308,48.0,2.0,90.0,1.0,0.0
309,71.0,46.0,40.0,0.0,0.0
310,65.0,30.0,150.0,0.0,0.0
311,72.0,48.0,40.0,0.0,0.0
312,60.0,2.0,90.0,1.0,0.0
313,74.0,16.0,40.0,0.0,0.0
314,71.0,94.0,40.0,0.0,0.0
315,48.0,0.0,90.0,1.0,0.0
316,64.0,0.0,90.0,0.0,0.0
317,72.0,482.0,90.0,0.0,0.0
318,72.0,46.0,330.0,0.0,0.0
319,63.0,0.0,330.0,0.0,0.0
320,48.0,96.0,90.0,1.0,0.0
321,47.0,48.0,90.0,1.0,0.0
322,48.0,194.0,90.0,1.0,0.0
323,68.0,0.0,330.0,0.0,0.0
324,60.0,46.0,330.0,0.0,0.0
325,51.0,96.0,90.0,1.0,0.0
326,50.0,48.0,90.0,1.0,0.0
327,51.0,98.0,90.0,1.0,0.0
328,57.0,48.0,90.0,0.0,0.0
329,66.0,48.0,330.0,0.0,0.0
330,58.0,48.0,40.0,0.0,0.0
331,50.0,0.0,90.0,1.0,0.0
332,60.0,96.0,40.0,0.0,0.0
333,62.0,48.0,90.0,0.0,0.0
334,49.0,0.0,90.0,1.0,0.0
335,50.0,160.0,90.0,1.0,0.0
336,60.0,0.0,90.0,0.0,0.0
337,43.0,222.0,150.0,1.0,0.0
338,67.0,0.0,150.0,0.0,0.0
339,58.0,0.0,150.0,0.0,0.0
340,70.0,0.0,40.0,0.0,0.0
341,74.0,0.0,40.0,0.0,0.0
342,55.0,34.0,40.0,1.0,0.0
343,70.0,192.0,30.0,0.0,0.0
344,72.0,0.0,30.0,0.0,0.0
345,52.0,0.0,30.0,1.0,0.0
346,72.0,0.0,30.0,0.0,0.0
347,54.0,192.0,30.0,1.0,0.0
348,69.0,0.0,30.0,0.0,0.0
349,69.0,0.0,30.0,0.0,0.0
350,70.0,192.0,30.0,0.0,0.0
351,55.0,0.0,30.0,1.0,0.0
352,51.0,0.0,30.0,1.0,0.0
353,67.0,0.0,30.0,0.0,0.0
354,70.0,192.0,30.0,0.0,0.0
355,48.0,0.0,30.0,1.0,0.0
356,69.0,192.0,30.0,0.0,0.0
357,67.0,0.0,30.0,0.0,0.0
358,66.0,0.0,30.0,0.0,0.0
359,69.0,0.0,30.0,0.0,0.0
360,50.0,192.0,30.0,1.0,0.0
361,67.0,0.0,30.0,0.0,0.0
362,43.0,544.0,30.0,1.0,0.0
363,61.0,46.0,330.0,0.0,0.0
364,70.0,0.0,330.0,0.0,0.0
365,46.0,96.0,90.0,1.0,0.0
366,45.0,48.0,90.0,1.0,0.0
367,46.0,194.0,90.0,1.0,0.0
368,66.0,46.0,330.0,0.0,0.0
369,58.0,0.0,330.0,0.0,0.0
370,49.0,96.0,90.0,1.0,0.0
371,48.0,48.0,90.0,1.0,0.0
372,49.0,98.0,90.0,1.0,0.0
373,55.0,48.0,90.0,0.0,0.0
374,64.0,20.0,330.0,0.0,0.0
375,57.0,48.0,40.0,0.0,0.0
376,48.0,0.0,90.0,1.0,0.0
377,58.0,68.0,40.0,0.0,0.0
378,47.0,48.0,90.0,1.0,0.0
379,60.0,28.0,60.0,0.0,0.0
380,48.0,160.0,90.0,1.0,0.0
381,58.0,28.0,60.0,0.0,0.0
382,57.0,222.0,150.0,0.0,0.0
383,65.0,0.0,150.0,0.0,0.0
384,41.0,0.0,150.0,1.0,0.0
385,53.0,34.0,40.0,1.0,0.0
386,72.0,0.0,40.0,0.0,0.0
387,69.0,0.0,40.0,0.0,0.0
388,70.0,0.0,30.0,0.0,0.0
389,69.0,192.0,30.0,0.0,0.0
390,50.0,0.0,30.0,1.0,0.0
391,67.0,192.0,30.0,0.0,0.0
392,70.0,0.0,30.0,0.0,0.0
393,52.0,0.0,30.0,1.0,0.0
394,49.0,192.0,30.0,1.0,0.0
395,69.0,0.0,30.0,0.0,0.0
396,67.0,0.0,30.0,0.0,0.0
397,50.0,192.0,30.0,1.0,0.0
398,65.0,0.0,30.0,0.0,0.0
399,69.0,0.0,30.0,0.0,0.0
400,65.0,192.0,30.0,0.0,0.0
401,67.0,0.0,30.0,0.0,0.0
402,46.0,0.0,30.0,1.0,0.0
403,67.0,0.0,30.0,0.0,0.0
404,48.0,192.0,30.0,1.0,0.0
405,64.0,0.0,30.0,0.0,0.0
406,41.0,0.0,30.0,1.0,0.0
407,65.0,288.0,30.0,0.0,0.0
408,77.0,30.0,360.0,0.0,0.0
409,69.0,128.0,150.0,0.0,0.0
410,62.0,32.0,30.0,1.0,0.0
411,58.0,64.0,90.0,1.0,0.0
412,67.0,128.0,360.0,0.0,0.0
413,55.0,34.0,90.0,1.0,0.0
414,76.0,30.0,360.0,0.0,0.0
415,48.0,96.0,30.0,1.0,0.0
416,60.0,32.0,30.0,1.0,0.0
417,65.0,128.0,360.0,0.0,0.0
418,57.0,64.0,90.0,1.0,0.0
419,53.0,130.0,90.0,1.0,0.0
420,74.0,30.0,360.0,0.0,0.0
421,58.0,32.0,30.0,1.0,0.0
422,64.0,128.0,360.0,0.0,0.0
423,55.0,64.0,90.0,1.0,0.0
424,52.0,34.0,90.0,1.0,0.0
425,72.0,30.0,360.0,0.0,0.0
426,45.0,96.0,30.0,1.0,0.0
427,57.0,32.0,30.0,1.0,0.0
428,62.0,128.0,360.0,0.0,0.0
429,53.0,64.0,90.0,1.0,0.0
430,50.0,130.0,90.0,1.0,0.0
431,70.0,30.0,360.0,0.0,0.0
432,55.0,32.0,30.0,1.0,0.0
433,60.0,0.0,360.0,0.0,0.0
434,52.0,64.0,90.0,1.0,0.0
435,48.0,34.0,90.0,1.0,0.0
436,69.0,64.0,150.0,0.0,0.0
437,41.0,96.0,30.0,1.0,0.0
438,53.0,32.0,30.0,1.0,0.0
439,67.0,64.0,30.0,0.0,0.0
440,46.0,96.0,90.0,1.0,0.0
441,62.0,0.0,30.0,0.0,0.0
442,58.0,64.0,90.0,1.0,0.0
443,70.0,0.0,150.0,0.0,0.0
444,74.0,32.0,150.0,0.0,0.0
445,46.0,32.0,90.0,1.0,0.0
446,58.0,98.0,90.0,1.0,0.0
447,72.0,0.0,30.0,0.0,0.0
448,69.0,62.0,30.0,0.0,0.0
449,70.0,0.0,90.0,0.0,0.0
450,46.0,96.0,90.0,1.0,0.0
451,67.0,0.0,90.0,0.0,0.0
452,69.0,96.0,90.0,0.0,0.0
453,65.0,0.0,90.0,0.0,0.0
454,58.0,0.0,90.0,1.0,0.0
455,47.0,94.0,90.0,1.0,0.0
456,64.0,0.0,90.0,0.0,0.0
457,67.0,0.0,90.0,0.0,0.0
458,62.0,98.0,90.0,0.0,0.0
459,65.0,0.0,90.0,0.0,0.0
460,59.0,0.0,90.0,1.0,0.0
461,48.0,32.0,90.0,1.0,0.0
462,60.0,0.0,90.0,0.0,0.0
463,64.0,0.0,90.0,0.0,0.0
464,72.0,62.0,30.0,0.0,0.0
465,60.0,34.0,90.0,1.0,0.0
466,60.0,96.0,30.0,1.0,0.0
467,72.0,0.0,30.0,0.0,0.0
468,72.0,0.0,30.0,0.0,0.0
469,60.0,160.0,30.0,1.0,0.0
470,57.0,0.0,90.0,1.0,0.0
471,69.0,96.0,90.0,0.0,0.0
472,60.0,0.0,90.0,1.0,0.0
473,72.0,96.0,90.0,0.0,0.0
474,53.0,0.0,90.0,1.0,0.0
475,65.0,94.0,90.0,0.0,0.0
476,69.0,70.0,90.0,0.0,0.0
477,57.0,0.0,90.0,1.0,0.0
478,60.0,96.0,60.0,1.0,0.0
479,72.0,0.0,60.0,0.0,0.0
480,72.0,0.0,60.0,0.0,0.0
481,60.0,96.0,60.0,1.0,0.0
482,60.0,0.0,60.0,1.0,0.0
483,72.0,60.0,60.0,0.0,0.0
484,60.0,0.0,30.0,1.0,0.0
485,72.0,160.0,30.0,0.0,0.0
486,69.0,96.0,90.0,0.0,0.0
487,57.0,0.0,90.0,1.0,0.0
488,60.0,96.0,90.0,1.0,0.0
489,72.0,0.0,90.0,0.0,0.0
490,65.0,94.0,90.0,0.0,0.0
491,53.0,0.0,90.0,1.0,0.0
492,69.0,0.0,90.0,0.0,0.0
493,57.0,162.0,90.0,1.0,0.0
494,48.0,0.0,150.0,1.0,0.0
495,60.0,248.0,150.0,0.0,0.0
496,41.0,96.0,90.0,1.0,0.0
497,60.0,24.0,20.0,0.0,0.0
498,65.0,24.0,20.0,0.0,0.0
499,69.0,24.0,20.0,0.0,0.0
500,72.0,32.0,270.0,0.0,0.0
501,53.0,96.0,90.0,1.0,0.0
502,57.0,64.0,90.0,1.0,0.0
503,53.0,96.0,90.0,1.0,0.0
504,69.0,46.0,330.0,0.0,0.0
505,60.0,96.0,90.0,1.0,0.0
506,53.0,96.0,90.0,1.0,0.0
507,63.0,48.0,90.0,1.0,0.0
508,53.0,98.0,90.0,1.0,0.0
509,62.0,0.0,90.0,1.0,0.0
510,72.0,94.0,90.0,0.0,0.0
511,53.0,32.0,90.0,1.0,0.0
512,70.0,2.0,90.0,0.0,0.0
513,58.0,32.0,90.0,1.0,0.0
514,67.0,64.0,30.0,0.0,0.0
515,53.0,0.0,270.0,1.0,0.0
516,64.0,224.0,30.0,0.0,0.0
517,57.0,224.0,150.0,1.0,0.0
518,65.0,0.0,150.0,0.0,0.0
519,57.0,0.0,90.0,1.0,0.0
520,60.0,32.0,90.0,0.0,0.0
521,58.0,96.0,30.0,1.0,0.0
522,62.0,0.0,30.0,0.0,0.0
523,64.0,0.0,30.0,0.0,0.0
524,60.0,96.0,30.0,1.0,0.0
525,62.0,96.0,30.0,1.0,0.0
526,65.0,0.0,30.0,0.0,0.0
527,67.0,0.0,30.0,0.0,0.0
528,64.0,96.0,30.0,1.0,0.0
529,69.0,96.0,30.0,0.0,0.0
530,65.0,0.0,30.0,1.0,0.0
531,67.0,0.0,30.0,1.0,0.0
532,70.0,96.0,30.0,0.0,0.0
533,72.0,160.0,30.0,0.0,0.0
534,69.0,0.0,30.0,1.0,0.0
535,74.0,0.0,90.0,0.0,0.0
536,70.0,94.0,90.0,0.0,0.0
537,72.0,0.0,90.0,0.0,0.0
538,69.0,98.0,90.0,0.0,0.0
539,67.0,0.0,150.0,0.0,0.0
540,48.0,64.0,90.0,1.0,0.0
541,70.0,32.0,150.0,0.0,0.0
542,52.0,94.0,90.0,1.0,0.0
543,53.0,96.0,90.0,1.0,0.0
544,69.0,2.0,90.0,0.0,0.0
545,65.0,0.0,90.0,0.0,0.0
546,65.0,94.0,90.0,0.0,0.0
547,69.0,0.0,90.0,0.0,0.0
548,48.0,0.0,90.0,1.0,0.0
549,64.0,0.0,90.0,0.0,0.0
550,60.0,218.0,90.0,1.0,0.0
551,67.0,0.0,90.0,0.0,0.0
552,60.0,24.0,20.0,0.0,0.0
553,41.0,96.0,90.0,1.0,0.0
554,65.0,24.0,20.0,0.0,0.0
555,69.0,24.0,20.0,0.0,0.0
556,72.0,32.0,270.0,0.0,0.0
557,53.0,96.0,90.0,1.0,0.0
558,57.0,64.0,90.0,1.0,0.0
559,53.0,96.0,90.0,1.0,0.0
560,60.0,96.0,90.0,1.0,0.0
561,69.0,46.0,330.0,0.0,0.0
562,53.0,96.0,90.0,1.0,0.0
563,63.0,48.0,90.0,1.0,0.0
564,53.0,98.0,90.0,1.0,0.0
565,62.0,94.0,90.0,1.0,0.0
566,72.0,0.0,90.0,0.0,0.0
567,70.0,2.0,90.0,0.0,0.0
568,53.0,32.0,90.0,1.0,0.0
569,67.0,64.0,30.0,0.0,0.0
570,58.0,32.0,90.0,1.0,0.0
571,64.0,224.0,30.0,0.0,0.0
572,53.0,224.0,270.0,1.0,0.0
573,65.0,0.0,150.0,0.0,0.0
574,57.0,0.0,150.0,1.0,0.0
575,60.0,32.0,90.0,0.0,0.0
576,57.0,0.0,90.0,1.0,0.0
577,62.0,0.0,30.0,0.0,0.0
578,58.0,96.0,30.0,1.0,0.0
579,64.0,96.0,30.0,0.0,0.0
580,60.0,0.0,30.0,1.0,0.0
581,65.0,0.0,30.0,0.0,0.0
582,62.0,96.0,30.0,1.0,0.0
583,67.0,96.0,30.0,0.0,0.0
584,64.0,0.0,30.0,1.0,0.0
585,69.0,0.0,30.0,0.0,0.0
586,65.0,96.0,30.0,1.0,0.0
587,70.0,96.0,30.0,0.0,0.0
588,67.0,0.0,30.0,1.0,0.0
589,72.0,0.0,30.0,0.0,0.0
590,69.0,96.0,30.0,1.0,0.0
591,76.0,0.0,30.0,0.0,0.0
592,67.0,256.0,30.0,0.0,0.0
593,69.0,46.0,330.0,0.0,0.0
594,77.0,0.0,330.0,0.0,0.0
595,53.0,96.0,90.0,1.0,0.0
596,52.0,48.0,90.0,1.0,0.0
597,53.0,34.0,90.0,1.0,0.0
598,46.0,160.0,30.0,1.0,0.0
599,74.0,46.0,330.0,0.0,0.0
600,70.0,0.0,330.0,0.0,0.0
601,58.0,96.0,90.0,1.0,0.0
602,57.0,48.0,90.0,1.0,0.0
603,58.0,96.0,90.0,1.0,0.0
604,69.0,34.0,90.0,0.0,0.0
605,48.0,0.0,90.0,1.0,0.0
606,72.0,0.0,90.0,0.0,0.0
607,65.0,0.0,30.0,0.0,0.0
608,69.0,62.0,30.0,0.0,0.0
609,60.0,50.0,90.0,1.0,0.0
610,69.0,46.0,40.0,0.0,0.0
611,72.0,0.0,40.0,0.0,0.0
612,48.0,2.0,90.0,1.0,0.0
613,70.0,48.0,40.0,0.0,0.0
614,60.0,96.0,90.0,1.0,0.0
615,69.0,46.0,40.0,0.0,0.0
616,67.0,0.0,40.0,0.0,0.0
617,53.0,96.0,90.0,1.0,0.0
618,65.0,0.0,90.0,0.0,0.0
619,53.0,96.0,90.0,1.0,0.0
620,69.0,0.0,180.0,0.0,0.0
621,63.0,94.0,180.0,0.0,0.0
622,53.0,96.0,90.0,1.0,0.0
623,53.0,2.0,90.0,1.0,0.0
624,62.0,96.0,90.0,0.0,0.0
625,70.0,0.0,90.0,0.0,0.0
626,41.0,0.0,90.0,1.0,0.0
627,53.0,96.0,90.0,1.0,0.0
628,41.0,96.0,90.0,1.0,0.0
629,76.0,94.0,180.0,0.0,0.0
630,70.0,0.0,180.0,0.0,0.0
631,53.0,2.0,90.0,1.0,0.0
632,77.0,0.0,90.0,0.0,0.0
633,41.0,0.0,90.0,1.0,0.0
634,69.0,96.0,90.0,0.0,0.0
635,53.0,50.0,90.0,1.0,0.0
636,41.0,2.0,90.0,1.0,0.0
637,69.0,46.0,40.0,0.0,0.0
638,64.0,30.0,150.0,0.0,0.0
639,70.0,48.0,40.0,0.0,0.0
640,72.0,16.0,40.0,0.0,0.0
641,53.0,2.0,90.0,1.0,0.0
642,69.0,94.0,40.0,0.0,0.0
643,41.0,0.0,90.0,1.0,0.0
644,70.0,0.0,90.0,0.0,0.0
645,62.0,96.0,90.0,0.0,0.0
646,53.0,50.0,90.0,1.0,0.0
647,67.0,46.0,40.0,0.0,0.0
648,41.0,2.0,90.0,1.0,0.0
649,58.0,30.0,150.0,0.0,0.0
650,69.0,48.0,40.0,0.0,0.0
651,70.0,16.0,40.0,0.0,0.0
652,53.0,2.0,90.0,1.0,0.0
653,67.0,94.0,40.0,0.0,0.0
654,41.0,0.0,90.0,1.0,0.0
655,65.0,0.0,90.0,0.0,0.0
656,57.0,482.0,90.0,0.0,0.0
657,72.0,46.0,330.0,0.0,0.0
658,63.0,0.0,330.0,0.0,0.0
659,48.0,96.0,90.0,1.0,0.0
660,47.0,48.0,90.0,1.0,0.0
661,48.0,194.0,90.0,1.0,0.0
662,68.0,0.0,330.0,0.0,0.0
663,60.0,46.0,330.0,0.0,0.0
664,51.0,96.0,90.0,1.0,0.0
665,50.0,48.0,90.0,1.0,0.0
666,51.0,98.0,90.0,1.0,0.0
667,66.0,48.0,330.0,0.0,0.0
668,57.0,48.0,90.0,0.0,0.0
669,50.0,0.0,90.0,1.0,0.0
670,58.0,48.0,40.0,0.0,0.0
671,60.0,96.0,40.0,0.0,0.0
672,49.0,0.0,90.0,1.0,0.0
673,62.0,48.0,90.0,0.0,0.0
674,60.0,0.0,90.0,0.0,0.0
675,50.0,160.0,90.0,1.0,0.0
676,58.0,222.0,150.0,0.0,0.0
677,67.0,0.0,150.0,0.0,0.0
678,43.0,0.0,150.0,1.0,0.0
679,55.0,34.0,40.0,1.0,0.0
680,74.0,0.0,40.0,0.0,0.0
681,70.0,0.0,40.0,0.0,0.0
682,52.0,192.0,30.0,1.0,0.0
683,70.0,0.0,30.0,0.0,0.0
684,72.0,0.0,30.0,0.0,0.0
685,69.0,192.0,30.0,0.0,0.0
686,72.0,0.0,30.0,0.0,0.0
687,54.0,0.0,30.0,1.0,0.0
688,69.0,0.0,30.0,0.0,0.0
689,70.0,0.0,30.0,0.0,0.0
690,55.0,192.0,30.0,1.0,0.0
691,51.0,192.0,30.0,1.0,0.0
692,70.0,0.0,30.0,0.0,0.0
693,67.0,0.0,30.0,0.0,0.0
694,48.0,0.0,30.0,1.0,0.0
695,67.0,192.0,30.0,0.0,0.0
696,69.0,0.0,30.0,0.0,0.0
697,69.0,0.0,30.0,0.0,0.0
698,50.0,0.0,30.0,1.0,0.0
699,66.0,192.0,30.0,0.0,0.0
700,43.0,544.0,30.0,1.0,0.0
701,67.0,0.0,30.0,0.0,0.0
702,61.0,0.0,330.0,0.0,0.0
703,70.0,46.0,330.0,0.0,0.0
704,46.0,96.0,90.0,1.0,0.0
705,45.0,48.0,90.0,1.0,0.0
706,46.0,194.0,90.0,1.0,0.0
707,66.0,0.0,330.0,0.0,0.0
708,58.0,46.0,330.0,0.0,0.0
709,49.0,96.0,90.0,1.0,0.0
710,48.0,48.0,90.0,1.0,0.0
711,49.0,98.0,90.0,1.0,0.0
712,55.0,48.0,90.0,0.0,0.0
713,64.0,20.0,330.0,0.0,0.0
714,48.0,0.0,90.0,1.0,0.0
715,57.0,48.0,40.0,0.0,0.0
716,58.0,68.0,40.0,0.0,0.0
717,60.0,28.0,60.0,0.0,0.0
718,47.0,48.0,90.0,1.0,0.0
719,48.0,160.0,90.0,1.0,0.0
720,58.0,28.0,60.0,0.0,0.0
721,57.0,222.0,150.0,0.0,0.0
722,41.0,0.0,150.0,1.0,0.0
723,65.0,0.0,150.0,0.0,0.0
724,72.0,34.0,40.0,0.0,0.0
725,69.0,0.0,40.0,0.0,0.0
726,53.0,0.0,40.0,1.0,0.0
727,50.0,0.0,30.0,1.0,0.0
728,69.0,0.0,30.0,0.0,0.0
729,70.0,192.0,30.0,0.0,0.0
730,70.0,0.0,30.0,0.0,0.0
731,67.0,0.0,30.0,0.0,0.0
732,52.0,192.0,30.0,1.0,0.0
733,67.0,0.0,30.0,0.0,0.0
734,69.0,192.0,30.0,0.0,0.0
735,49.0,0.0,30.0,1.0,0.0
736,65.0,0.0,30.0,0.0,0.0
737,69.0,192.0,30.0,0.0,0.0
738,50.0,0.0,30.0,1.0,0.0
739,46.0,0.0,30.0,1.0,0.0
740,65.0,0.0,30.0,0.0,0.0
741,67.0,192.0,30.0,0.0,0.0
742,48.0,0.0,30.0,1.0,0.0
743,67.0,192.0,30.0,0.0,0.0
744,64.0,0.0,30.0,0.0,0.0
745,65.0,0.0,30.0,0.0,0.0
746,41.0,288.0,30.0,1.0,0.0
747,69.0,128.0,150.0,0.0,0.0
748,77.0,30.0,360.0,0.0,0.0
749,62.0,32.0,30.0,1.0,0.0
750,58.0,64.0,90.0,1.0,0.0
751,67.0,128.0,360.0,0.0,0.0
752,55.0,34.0,90.0,1.0,0.0
753,48.0,96.0,30.0,1.0,0.0
754,76.0,30.0,360.0,0.0,0.0
755,60.0,32.0,30.0,1.0,0.0
756,57.0,64.0,90.0,1.0,0.0
757,65.0,128.0,360.0,0.0,0.0
758,53.0,130.0,90.0,1.0,0.0
759,74.0,30.0,360.0,0.0,0.0
760,58.0,32.0,30.0,1.0,0.0
761,64.0,128.0,360.0,0.0,0.0
762,55.0,64.0,90.0,1.0,0.0
763,52.0,34.0,90.0,1.0,0.0
764,72.0,30.0,360.0,0.0,0.0
765,45.0,96.0,30.0,1.0,0.0
766,57.0,32.0,30.0,1.0,0.0
767,53.0,64.0,90.0,1.0,0.0
768,62.0,128.0,360.0,0.0,0.0
769,50.0,130.0,90.0,1.0,0.0
770,70.0,30.0,360.0,0.0,0.0
771,55.0,32.0,30.0,1.0,0.0
772,60.0,64.0,360.0,0.0,0.0
773,52.0,64.0,90.0,1.0,0.0
774,48.0,34.0,90.0,1.0,0.0
775,69.0,0.0,150.0,0.0,0.0
776,41.0,96.0,30.0,1.0,0.0
777,53.0,32.0,30.0,1.0,0.0
778,67.0,64.0,30.0,0.0,0.0
779,62.0,0.0,30.0,0.0,0.0
780,46.0,96.0,90.0,1.0,0.0
781,70.0,0.0,150.0,0.0,0.0
782,74.0,32.0,150.0,0.0,0.0
783,58.0,64.0,90.0,1.0,0.0
784,46.0,32.0,90.0,1.0,0.0
785,58.0,98.0,90.0,1.0,0.0
786,72.0,0.0,30.0,0.0,0.0
787,69.0,62.0,30.0,0.0,0.0
788,46.0,96.0,90.0,1.0,0.0
789,70.0,0.0,90.0,0.0,0.0
790,67.0,0.0,90.0,0.0,0.0
791,65.0,0.0,90.0,0.0,0.0
792,58.0,0.0,90.0,1.0,0.0
793,69.0,96.0,90.0,0.0,0.0
794,47.0,94.0,90.0,1.0,0.0
795,64.0,0.0,90.0,0.0,0.0
796,67.0,0.0,90.0,0.0,0.0
797,62.0,0.0,90.0,0.0,0.0
798,65.0,98.0,90.0,0.0,0.0
799,59.0,0.0,90.0,1.0,0.0
800,60.0,0.0,90.0,0.0,0.0
801,64.0,32.0,90.0,0.0,0.0
802,48.0,0.0,90.0,1.0,0.0
803,72.0,62.0,30.0,0.0,0.0
804,60.0,34.0,90.0,1.0,0.0
805,60.0,0.0,30.0,1.0,0.0
806,72.0,96.0,30.0,0.0,0.0
807,60.0,0.0,30.0,1.0,0.0
808,72.0,160.0,30.0,0.0,0.0
809,57.0,0.0,90.0,1.0,0.0
810,69.0,96.0,90.0,0.0,0.0
811,72.0,0.0,90.0,0.0,0.0
812,60.0,96.0,90.0,1.0,0.0
813,53.0,0.0,90.0,1.0,0.0
814,65.0,94.0,90.0,0.0,0.0
815,57.0,0.0,90.0,1.0,0.0
816,69.0,70.0,90.0,0.0,0.0
817,60.0,96.0,60.0,1.0,0.0
818,72.0,0.0,60.0,0.0,0.0
819,72.0,0.0,60.0,0.0,0.0
820,60.0,96.0,60.0,1.0,0.0
821,72.0,0.0,60.0,0.0,0.0
822,60.0,60.0,60.0,1.0,0.0
823,72.0,0.0,30.0,0.0,0.0
824,60.0,160.0,30.0,1.0,0.0
825,57.0,96.0,90.0,1.0,0.0
826,69.0,0.0,90.0,0.0,0.0
827,60.0,0.0,90.0,1.0,0.0
828,72.0,96.0,90.0,0.0,0.0
829,53.0,0.0,90.0,1.0,0.0
830,65.0,94.0,90.0,0.0,0.0
831,57.0,162.0,90.0,1.0,0.0
832,69.0,0.0,90.0,0.0,0.0
833,60.0,0.0,150.0,0.0,0.0
834,48.0,248.0,150.0,1.0,0.0
835,41.0,96.0,90.0,1.0,0.0
836,60.0,24.0,20.0,0.0,0.0
837,65.0,24.0,20.0,0.0,0.0
838,69.0,24.0,20.0,0.0,0.0
839,72.0,32.0,270.0,0.0,0.0
840,53.0,96.0,90.0,1.0,0.0
841,57.0,64.0,90.0,1.0,0.0
842,53.0,96.0,90.0,1.0,0.0
843,60.0,96.0,90.0,1.0,0.0
844,69.0,46.0,330.0,0.0,0.0
845,53.0,96.0,90.0,1.0,0.0
846,63.0,48.0,90.0,1.0,0.0
847,53.0,98.0,90.0,1.0,0.0
848,62.0,94.0,90.0,1.0,0.0
849,72.0,0.0,90.0,0.0,0.0
850,70.0,2.0,90.0,0.0,0.0
851,53.0,32.0,90.0,1.0,0.0
852,67.0,64.0,30.0,0.0,0.0
853,58.0,32.0,90.0,1.0,0.0
854,64.0,224.0,30.0,0.0,0.0
855,53.0,0.0,270.0,1.0,0.0
856,65.0,0.0,150.0,0.0,0.0
857,57.0,224.0,150.0,1.0,0.0
858,60.0,0.0,90.0,0.0,0.0
859,57.0,32.0,90.0,1.0,0.0
860,58.0,0.0,30.0,1.0,0.0
861,62.0,96.0,30.0,0.0,0.0
862,60.0,96.0,30.0,1.0,0.0
863,64.0,0.0,30.0,0.0,0.0
864,65.0,0.0,30.0,0.0,0.0
865,62.0,96.0,30.0,1.0,0.0
866,67.0,96.0,30.0,0.0,0.0
867,64.0,0.0,30.0,1.0,0.0
868,69.0,96.0,30.0,0.0,0.0
869,65.0,0.0,30.0,1.0,0.0
870,70.0,0.0,30.0,0.0,0.0
871,67.0,96.0,30.0,1.0,0.0
872,72.0,160.0,30.0,0.0,0.0
873,69.0,0.0,30.0,1.0,0.0
874,74.0,0.0,90.0,0.0,0.0
875,70.0,94.0,90.0,0.0,0.0
876,69.0,0.0,90.0,0.0,0.0
877,72.0,98.0,90.0,0.0,0.0
878,70.0,0.0,150.0,0.0,0.0
879,48.0,64.0,90.0,1.0,0.0
880,67.0,32.0,150.0,0.0,0.0
881,52.0,94.0,90.0,1.0,0.0
882,65.0,0.0,90.0,0.0,0.0
883,69.0,2.0,90.0,0.0,0.0
884,53.0,96.0,90.0,1.0,0.0
885,65.0,0.0,90.0,0.0,0.0
886,69.0,94.0,90.0,0.0,0.0
887,48.0,0.0,90.0,1.0,0.0
888,60.0,0.0,90.0,1.0,0.0
889,64.0,218.0,90.0,0.0,0.0
890,67.0,0.0,90.0,0.0,0.0
891,41.0,96.0,90.0,1.0,0.0
892,60.0,24.0,20.0,0.0,0.0
893,65.0,24.0,20.0,0.0,0.0
894,69.0,24.0,20.0,0.0,0.0
895,72.0,32.0,270.0,0.0,0.0
896,53.0,96.0,90.0,1.0,0.0
897,57.0,64.0,90.0,1.0,0.0
898,53.0,96.0,90.0,1.0,0.0
899,60.0,96.0,90.0,1.0,0.0
900,69.0,46.0,330.0,0.0,0.0
901,53.0,96.0,90.0,1.0,0.0
902,63.0,48.0,90.0,1.0,0.0
903,53.0,98.0,90.0,1.0,0.0
904,72.0,0.0,90.0,0.0,0.0
905,62.0,94.0,90.0,1.0,0.0
906,70.0,2.0,90.0,0.0,0.0
907,53.0,32.0,90.0,1.0,0.0
908,67.0,64.0,30.0,0.0,0.0
909,58.0,32.0,90.0,1.0,0.0
910,53.0,224.0,270.0,1.0,0.0
911,64.0,224.0,30.0,0.0,0.0
912,57.0,0.0,150.0,1.0,0.0
913,65.0,0.0,150.0,0.0,0.0
914,60.0,0.0,90.0,0.0,0.0
915,57.0,32.0,90.0,1.0,0.0
916,58.0,96.0,30.0,1.0,0.0
917,62.0,0.0,30.0,0.0,0.0
918,64.0,0.0,30.0,0.0,0.0
919,60.0,96.0,30.0,1.0,0.0
920,65.0,96.0,30.0,0.0,0.0
921,62.0,0.0,30.0,1.0,0.0
922,64.0,0.0,30.0,1.0,0.0
923,67.0,96.0,30.0,0.0,0.0
924,65.0,0.0,30.0,1.0,0.0
925,69.0,96.0,30.0,0.0,0.0
926,67.0,0.0,30.0,1.0,0.0
927,70.0,96.0,30.0,0.0,0.0
928,69.0,96.0,30.0,1.0,0.0
929,72.0,0.0,30.0,0.0,0.0
930,76.0,0.0,30.0,0.0,0.0
931,67.0,256.0,30.0,0.0,0.0
932,77.0,46.0,330.0,0.0,0.0
933,69.0,0.0,330.0,0.0,0.0
934,53.0,96.0,90.0,1.0,0.0
935,52.0,48.0,90.0,1.0,0.0
936,53.0,34.0,90.0,1.0,0.0
937,74.0,46.0,330.0,0.0,0.0
938,70.0,0.0,330.0,0.0,0.0
939,46.0,160.0,30.0,1.0,0.0
940,58.0,96.0,90.0,1.0,0.0
941,57.0,48.0,90.0,1.0,0.0
942,58.0,96.0,90.0,1.0,0.0
943,72.0,0.0,90.0,0.0,0.0
944,69.0,34.0,90.0,0.0,0.0
945,48.0,0.0,90.0,1.0,0.0
946,65.0,62.0,30.0,0.0,0.0
947,69.0,0.0,30.0,0.0,0.0
948,60.0,50.0,90.0,1.0,0.0
949,48.0,2.0,90.0,1.0,0.0
950,72.0,0.0,40.0,0.0,0.0
951,69.0,46.0,40.0,0.0,0.0
952,70.0,48.0,40.0,0.0,0.0
953,69.0,46.0,40.0,0.0,0.0
954,60.0,0.0,90.0,1.0,0.0
955,67.0,96.0,40.0,0.0,0.0
956,65.0,0.0,90.0,0.0,0.0
957,53.0,96.0,90.0,1.0,0.0
958,53.0,96.0,90.0,1.0,0.0
959,69.0,0.0,180.0,0.0,0.0
960,63.0,94.0,180.0,0.0,0.0
961,53.0,96.0,90.0,1.0,0.0
962,53.0,2.0,90.0,1.0,0.0
963,41.0,0.0,90.0,1.0,0.0
964,70.0,96.0,90.0,0.0,0.0
965,62.0,0.0,90.0,0.0,0.0
966,53.0,96.0,90.0,1.0,0.0
967,70.0,0.0,180.0,0.0,0.0
968,41.0,96.0,90.0,1.0,0.0
969,76.0,94.0,180.0,0.0,0.0
970,53.0,2.0,90.0,1.0,0.0
971,41.0,0.0,90.0,1.0,0.0
972,77.0,0.0,90.0,0.0,0.0
973,69.0,96.0,90.0,0.0,0.0
974,53.0,50.0,90.0,1.0,0.0
975,41.0,2.0,90.0,1.0,0.0
976,64.0,30.0,150.0,0.0,0.0
977,69.0,46.0,40.0,0.0,0.0
978,70.0,48.0,40.0,0.0,0.0
979,72.0,16.0,40.0,0.0,0.0
980,53.0,2.0,90.0,1.0,0.0
981,69.0,94.0,40.0,0.0,0.0
982,41.0,0.0,90.0,1.0,0.0
983,70.0,0.0,90.0,0.0,0.0
984,62.0,96.0,90.0,0.0,0.0
985,53.0,50.0,90.0,1.0,0.0
986,67.0,46.0,40.0,0.0,0.0
987,58.0,30.0,150.0,0.0,0.0
988,41.0,2.0,90.0,1.0,0.0
989,69.0,48.0,40.0,0.0,0.0
990,70.0,16.0,40.0,0.0,0.0
991,53.0,2.0,90.0,1.0,0.0
992,67.0,94.0,40.0,0.0,0.0
993,65.0,0.0,90.0,0.0,0.0
994,57.0,0.0,90.0,0.0,0.0
995,41.0,0.0,90.0,1.0,0.0
