,note,step,duration,channel,velocity
0,75.0,19.0,90.0,2.0,0.0
1,60.0,7.0,90.0,3.0,0.0
2,56.0,0.0,90.0,3.0,0.0
3,75.0,12.0,15.0,2.0,0.0
4,77.0,12.0,15.0,2.0,0.0
5,75.0,12.0,15.0,2.0,0.0
6,77.0,12.0,15.0,2.0,0.0
7,75.0,12.0,15.0,2.0,0.0
8,77.0,12.0,15.0,2.0,0.0
9,75.0,5.0,15.0,2.0,0.0
10,77.0,95.0,15.0,2.0,0.0
11,77.0,90.0,20.0,2.0,0.0
12,51.0,96.0,90.0,3.0,0.0
13,58.0,0.0,90.0,3.0,0.0
14,73.0,0.0,90.0,2.0,0.0
15,53.0,192.0,90.0,3.0,0.0
16,56.0,0.0,90.0,3.0,0.0
17,72.0,0.0,90.0,2.0,0.0
18,68.0,52.0,90.0,2.0,0.0
19,49.0,0.0,90.0,3.0,0.0
20,69.0,44.0,60.0,2.0,0.0
21,58.0,0.0,90.0,3.0,0.0
22,53.0,4.0,90.0,3.0,0.0
23,70.0,48.0,60.0,2.0,0.0
24,72.0,48.0,60.0,2.0,0.0
25,70.0,48.0,60.0,2.0,0.0
26,73.0,48.0,60.0,2.0,0.0
27,70.0,48.0,60.0,2.0,0.0
28,68.0,44.0,60.0,2.0,0.0
29,58.0,0.0,90.0,3.0,0.0
30,51.0,4.0,90.0,3.0,0.0
31,61.0,0.0,90.0,3.0,0.0
32,67.0,48.0,60.0,2.0,0.0
33,65.0,48.0,60.0,2.0,0.0
34,63.0,92.0,60.0,2.0,0.0
35,75.0,19.0,90.0,2.0,0.0
36,75.0,12.0,15.0,2.0,0.0
37,56.0,0.0,90.0,3.0,0.0
38,60.0,7.0,90.0,3.0,0.0
39,77.0,12.0,15.0,2.0,0.0
40,75.0,12.0,15.0,2.0,0.0
41,77.0,12.0,15.0,2.0,0.0
42,75.0,12.0,15.0,2.0,0.0
43,77.0,12.0,15.0,2.0,0.0
44,75.0,5.0,15.0,2.0,0.0
45,77.0,95.0,15.0,2.0,0.0
46,77.0,90.0,20.0,2.0,0.0
47,58.0,0.0,90.0,3.0,0.0
48,52.0,0.0,90.0,3.0,0.0
49,73.0,184.0,90.0,2.0,0.0
50,56.0,0.0,180.0,3.0,0.0
51,53.0,104.0,180.0,3.0,0.0
52,72.0,0.0,180.0,2.0,0.0
53,68.0,37.0,90.0,2.0,0.0
54,49.0,0.0,90.0,3.0,0.0
55,58.0,5.0,90.0,3.0,0.0
56,70.0,32.0,30.0,2.0,0.0
57,73.0,27.0,30.0,2.0,0.0
58,77.0,91.0,30.0,2.0,0.0
59,68.0,19.0,90.0,2.0,0.0
60,51.0,0.0,90.0,3.0,0.0
61,60.0,0.0,90.0,3.0,0.0
62,61.0,6.0,90.0,3.0,0.0
63,68.0,12.0,15.0,2.0,0.0
64,70.0,12.0,15.0,2.0,0.0
65,68.0,12.0,15.0,2.0,0.0
66,70.0,23.0,15.0,2.0,0.0
67,67.0,18.0,20.0,2.0,0.0
68,68.0,90.0,20.0,2.0,0.0
69,68.0,8.0,180.0,2.0,0.0
70,60.0,88.0,90.0,3.0,0.0
71,56.0,0.0,90.0,3.0,0.0
72,44.0,96.0,90.0,3.0,0.0
73,72.0,0.0,90.0,5.0,0.0
74,68.0,0.0,90.0,1.0,0.0
75,72.0,0.0,90.0,1.0,0.0
76,75.0,0.0,90.0,4.0,0.0
77,75.0,0.0,90.0,0.0,0.0
78,72.0,19.0,90.0,0.0,0.0
79,56.0,14.0,180.0,7.0,0.0
80,68.0,0.0,90.0,1.0,0.0
81,63.0,0.0,180.0,6.0,0.0
82,72.0,0.0,15.0,5.0,0.0
83,72.0,7.0,90.0,1.0,0.0
84,75.0,0.0,15.0,4.0,0.0
85,72.0,0.0,15.0,0.0,0.0
86,75.0,12.0,15.0,0.0,0.0
87,77.0,0.0,15.0,0.0,0.0
88,73.0,0.0,15.0,0.0,0.0
89,77.0,12.0,15.0,4.0,0.0
90,73.0,0.0,15.0,5.0,0.0
91,72.0,0.0,15.0,5.0,0.0
92,75.0,0.0,15.0,0.0,0.0
93,72.0,0.0,15.0,0.0,0.0
94,75.0,12.0,15.0,4.0,0.0
95,77.0,0.0,15.0,0.0,0.0
96,73.0,0.0,15.0,0.0,0.0
97,73.0,12.0,15.0,5.0,0.0
98,77.0,0.0,15.0,4.0,0.0
99,75.0,0.0,15.0,4.0,0.0
100,75.0,12.0,15.0,0.0,0.0
101,72.0,0.0,15.0,5.0,0.0
102,72.0,0.0,15.0,0.0,0.0
103,73.0,0.0,15.0,0.0,0.0
104,73.0,0.0,15.0,5.0,0.0
105,77.0,0.0,15.0,0.0,0.0
106,77.0,12.0,15.0,4.0,0.0
107,72.0,0.0,15.0,0.0,0.0
108,75.0,0.0,15.0,4.0,0.0
109,72.0,5.0,15.0,5.0,0.0
110,75.0,0.0,15.0,0.0,0.0
111,73.0,0.0,15.0,0.0,0.0
112,77.0,81.0,15.0,0.0,0.0
113,73.0,0.0,15.0,5.0,0.0
114,77.0,0.0,15.0,4.0,0.0
115,77.0,90.0,20.0,0.0,0.0
116,73.0,0.0,20.0,0.0,0.0
117,77.0,0.0,20.0,4.0,0.0
118,73.0,0.0,20.0,5.0,0.0
119,51.0,0.0,90.0,7.0,0.0
120,70.0,0.0,90.0,1.0,0.0
121,70.0,0.0,90.0,0.0,0.0
122,70.0,0.0,90.0,5.0,0.0
123,67.0,0.0,90.0,6.0,0.0
124,73.0,96.0,90.0,0.0,0.0
125,63.0,0.0,90.0,1.0,0.0
126,73.0,0.0,90.0,4.0,0.0
127,68.0,0.0,90.0,1.0,0.0
128,56.0,0.0,90.0,1.0,0.0
129,68.0,0.0,180.0,6.0,0.0
130,68.0,0.0,180.0,5.0,0.0
131,68.0,0.0,90.0,0.0,0.0
132,72.0,88.0,90.0,0.0,0.0
133,53.0,104.0,180.0,7.0,0.0
134,72.0,0.0,90.0,4.0,0.0
135,68.0,52.0,90.0,4.0,0.0
136,70.0,0.0,270.0,1.0,0.0
137,49.0,8.0,180.0,7.0,0.0
138,73.0,0.0,270.0,1.0,0.0
139,77.0,16.0,270.0,0.0,0.0
140,69.0,48.0,60.0,4.0,0.0
141,70.0,48.0,60.0,4.0,0.0
142,58.0,4.0,90.0,5.0,0.0
143,65.0,0.0,90.0,5.0,0.0
144,61.0,0.0,90.0,6.0,0.0
145,72.0,36.0,60.0,4.0,0.0
146,70.0,48.0,60.0,4.0,0.0
147,58.0,0.0,90.0,5.0,0.0
148,61.0,4.0,90.0,6.0,0.0
149,65.0,0.0,90.0,5.0,0.0
150,73.0,28.0,60.0,4.0,0.0
151,70.0,48.0,60.0,4.0,0.0
152,70.0,0.0,180.0,1.0,0.0
153,63.0,0.0,180.0,1.0,0.0
154,67.0,0.0,120.0,0.0,0.0
155,68.0,48.0,60.0,4.0,0.0
156,61.0,8.0,120.0,0.0,0.0
157,51.0,8.0,180.0,7.0,0.0
158,67.0,40.0,60.0,4.0,0.0
159,61.0,0.0,90.0,5.0,0.0
160,58.0,0.0,90.0,6.0,0.0
161,65.0,36.0,60.0,4.0,0.0
162,51.0,0.0,90.0,5.0,0.0
163,51.0,4.0,90.0,6.0,0.0
164,63.0,0.0,60.0,4.0,0.0
165,70.0,48.0,60.0,0.0,0.0
166,67.0,0.0,60.0,0.0,0.0
167,61.0,0.0,90.0,5.0,0.0
168,75.0,0.0,90.0,0.0,0.0
169,51.0,0.0,90.0,5.0,0.0
170,58.0,4.0,90.0,6.0,0.0
171,51.0,0.0,90.0,6.0,0.0
172,55.0,0.0,90.0,7.0,0.0
173,70.0,0.0,90.0,1.0,0.0
174,63.0,0.0,90.0,1.0,0.0
175,75.0,0.0,90.0,4.0,0.0
176,70.0,44.0,60.0,0.0,0.0
177,73.0,15.0,60.0,0.0,0.0
178,56.0,14.0,180.0,6.0,0.0
179,56.0,0.0,180.0,7.0,0.0
180,75.0,0.0,90.0,0.0,0.0
181,72.0,0.0,90.0,0.0,0.0
182,75.0,0.0,15.0,4.0,0.0
183,68.0,7.0,90.0,1.0,0.0
184,72.0,0.0,90.0,1.0,0.0
185,60.0,12.0,15.0,5.0,0.0
186,61.0,12.0,15.0,5.0,0.0
187,77.0,0.0,15.0,4.0,0.0
188,75.0,0.0,15.0,4.0,0.0
189,60.0,12.0,15.0,5.0,0.0
190,61.0,0.0,15.0,5.0,0.0
191,77.0,12.0,15.0,4.0,0.0
192,75.0,0.0,15.0,4.0,0.0
193,60.0,12.0,15.0,5.0,0.0
194,61.0,12.0,15.0,5.0,0.0
195,77.0,0.0,15.0,4.0,0.0
196,60.0,0.0,15.0,5.0,0.0
197,75.0,5.0,15.0,4.0,0.0
198,77.0,81.0,15.0,4.0,0.0
199,61.0,0.0,15.0,5.0,0.0
200,77.0,0.0,20.0,4.0,0.0
201,61.0,90.0,20.0,5.0,0.0
202,73.0,0.0,90.0,1.0,0.0
203,70.0,0.0,90.0,1.0,0.0
204,55.0,0.0,90.0,6.0,0.0
205,52.0,0.0,90.0,7.0,0.0
206,58.0,0.0,90.0,5.0,0.0
207,79.0,96.0,90.0,0.0,0.0
208,73.0,0.0,90.0,4.0,0.0
209,73.0,0.0,90.0,0.0,0.0
210,56.0,0.0,180.0,5.0,0.0
211,72.0,0.0,90.0,0.0,0.0
212,72.0,0.0,180.0,4.0,0.0
213,53.0,0.0,180.0,7.0,0.0
214,72.0,0.0,90.0,1.0,0.0
215,80.0,88.0,90.0,0.0,0.0
216,68.0,0.0,90.0,1.0,0.0
217,56.0,104.0,180.0,6.0,0.0
218,68.0,37.0,90.0,4.0,0.0
219,68.0,0.0,90.0,1.0,0.0
220,72.0,0.0,90.0,1.0,0.0
221,75.0,0.0,90.0,0.0,0.0
222,63.0,0.0,90.0,5.0,0.0
223,63.0,0.0,90.0,0.0,0.0
224,60.0,0.0,90.0,6.0,0.0
225,48.0,0.0,90.0,7.0,0.0
226,73.0,0.0,90.0,0.0,0.0
227,68.0,8.0,180.0,1.0,0.0
228,65.0,17.0,60.0,5.0,0.0
229,70.0,15.0,30.0,4.0,0.0
230,70.0,0.0,90.0,1.0,0.0
231,61.0,4.0,90.0,6.0,0.0
232,65.0,0.0,90.0,0.0,0.0
233,49.0,0.0,90.0,7.0,0.0
234,73.0,27.0,30.0,4.0,0.0
235,61.0,1.0,60.0,5.0,0.0
236,77.0,83.0,30.0,4.0,0.0
237,72.0,19.0,90.0,1.0,0.0
238,63.0,0.0,90.0,6.0,0.0
239,51.0,0.0,90.0,7.0,0.0
240,68.0,0.0,90.0,0.0,0.0
241,68.0,0.0,90.0,4.0,0.0
242,72.0,0.0,90.0,0.0,0.0
243,60.0,0.0,90.0,5.0,0.0
244,61.0,0.0,90.0,6.0,0.0
245,63.0,0.0,90.0,1.0,0.0
246,70.0,0.0,90.0,0.0,0.0
247,70.0,0.0,90.0,1.0,0.0
248,39.0,6.0,90.0,7.0,0.0
249,58.0,0.0,90.0,5.0,0.0
250,67.0,0.0,90.0,0.0,0.0
251,68.0,12.0,15.0,4.0,0.0
252,70.0,12.0,15.0,4.0,0.0
253,68.0,12.0,15.0,4.0,0.0
254,70.0,23.0,15.0,4.0,0.0
255,67.0,18.0,20.0,4.0,0.0
256,68.0,90.0,20.0,4.0,0.0
257,56.0,0.0,180.0,5.0,0.0
258,44.0,0.0,90.0,7.0,0.0
259,68.0,0.0,90.0,0.0,0.0
260,68.0,0.0,90.0,1.0,0.0
261,60.0,88.0,90.0,1.0,0.0
262,60.0,96.0,180.0,6.0,0.0
263,68.0,0.0,90.0,4.0,0.0
264,56.0,8.0,180.0,7.0,0.0
265,63.0,96.0,90.0,4.0,0.0
266,72.0,52.0,120.0,4.0,0.0
267,51.0,44.0,90.0,6.0,0.0
268,39.0,0.0,90.0,7.0,0.0
269,63.0,4.0,90.0,6.0,0.0
270,51.0,0.0,90.0,7.0,0.0
271,75.0,48.0,60.0,4.0,0.0
272,73.0,44.0,60.0,4.0,0.0
273,63.0,0.0,90.0,6.0,0.0
274,51.0,4.0,90.0,5.0,0.0
275,51.0,0.0,90.0,7.0,0.0
276,70.0,92.0,60.0,4.0,0.0
277,39.0,44.0,90.0,7.0,0.0
278,68.0,0.0,120.0,4.0,0.0
279,51.0,0.0,90.0,6.0,0.0
280,60.0,52.0,120.0,5.0,0.0
281,51.0,0.0,90.0,7.0,0.0
282,63.0,4.0,90.0,6.0,0.0
283,63.0,0.0,60.0,5.0,0.0
284,72.0,48.0,60.0,4.0,0.0
285,51.0,4.0,90.0,7.0,0.0
286,63.0,0.0,90.0,6.0,0.0
287,63.0,0.0,90.0,0.0,0.0
288,70.0,0.0,60.0,4.0,0.0
289,61.0,44.0,60.0,5.0,0.0
290,67.0,42.0,60.0,4.0,0.0
291,58.0,0.0,60.0,5.0,0.0
292,56.0,50.0,30.0,5.0,0.0
293,39.0,0.0,90.0,7.0,0.0
294,72.0,0.0,30.0,4.0,0.0
295,72.0,0.0,180.0,0.0,0.0
296,75.0,8.0,180.0,0.0,0.0
297,51.0,52.0,90.0,6.0,0.0
298,51.0,0.0,90.0,7.0,0.0
299,51.0,0.0,90.0,1.0,0.0
300,56.0,0.0,60.0,5.0,0.0
301,63.0,0.0,90.0,1.0,0.0
302,72.0,36.0,60.0,4.0,0.0
303,63.0,4.0,90.0,6.0,0.0
304,60.0,48.0,60.0,5.0,0.0
305,75.0,0.0,60.0,4.0,0.0
306,58.0,0.0,60.0,5.0,0.0
307,70.0,0.0,90.0,0.0,0.0
308,63.0,0.0,90.0,6.0,0.0
309,73.0,44.0,60.0,4.0,0.0
310,63.0,4.0,90.0,1.0,0.0
311,51.0,0.0,90.0,7.0,0.0
312,51.0,0.0,90.0,1.0,0.0
313,73.0,0.0,90.0,0.0,0.0
314,55.0,42.0,60.0,5.0,0.0
315,70.0,0.0,60.0,4.0,0.0
316,68.0,8.0,180.0,0.0,0.0
317,63.0,16.0,270.0,1.0,0.0
318,68.0,50.0,30.0,4.0,0.0
319,39.0,0.0,90.0,7.0,0.0
320,51.0,0.0,270.0,1.0,0.0
321,72.0,0.0,180.0,0.0,0.0
322,51.0,52.0,90.0,6.0,0.0
323,60.0,0.0,30.0,5.0,0.0
324,63.0,4.0,90.0,6.0,0.0
325,60.0,0.0,60.0,5.0,0.0
326,51.0,0.0,90.0,7.0,0.0
327,68.0,36.0,60.0,4.0,0.0
328,63.0,0.0,60.0,5.0,0.0
329,72.0,48.0,60.0,4.0,0.0
330,63.0,4.0,90.0,6.0,0.0
331,70.0,0.0,90.0,0.0,0.0
332,61.0,0.0,60.0,5.0,0.0
333,70.0,28.0,60.0,4.0,0.0
334,67.0,0.0,90.0,0.0,0.0
335,51.0,0.0,90.0,7.0,0.0
336,58.0,48.0,60.0,5.0,0.0
337,67.0,0.0,60.0,4.0,0.0
338,79.0,0.0,60.0,0.0,0.0
339,70.0,48.0,60.0,0.0,0.0
340,79.0,0.0,60.0,4.0,0.0
341,70.0,0.0,60.0,5.0,0.0
342,72.0,0.0,60.0,5.0,0.0
343,80.0,0.0,60.0,0.0,0.0
344,72.0,0.0,60.0,0.0,0.0
345,80.0,48.0,60.0,4.0,0.0
346,73.0,0.0,60.0,0.0,0.0
347,73.0,0.0,60.0,5.0,0.0
348,82.0,48.0,60.0,0.0,0.0
349,82.0,0.0,60.0,4.0,0.0
350,72.0,0.0,60.0,0.0,0.0
351,72.0,0.0,60.0,5.0,0.0
352,80.0,0.0,60.0,0.0,0.0
353,80.0,48.0,60.0,4.0,0.0
354,70.0,0.0,60.0,0.0,0.0
355,70.0,0.0,60.0,5.0,0.0
356,79.0,0.0,60.0,0.0,0.0
357,79.0,48.0,60.0,4.0,0.0
358,68.0,0.0,60.0,0.0,0.0
359,77.0,48.0,60.0,0.0,0.0
360,77.0,0.0,60.0,4.0,0.0
361,68.0,0.0,60.0,5.0,0.0
362,67.0,48.0,60.0,0.0,0.0
363,67.0,0.0,60.0,5.0,0.0
364,75.0,0.0,60.0,4.0,0.0
365,75.0,0.0,60.0,0.0,0.0
366,70.0,0.0,60.0,0.0,0.0
367,73.0,92.0,60.0,4.0,0.0
368,73.0,0.0,60.0,0.0,0.0
369,70.0,0.0,60.0,5.0,0.0
370,63.0,0.0,90.0,1.0,0.0
371,55.0,0.0,90.0,7.0,0.0
372,73.0,0.0,90.0,4.0,0.0
373,70.0,0.0,90.0,1.0,0.0
374,70.0,0.0,90.0,0.0,0.0
375,73.0,96.0,90.0,0.0,0.0
376,63.0,0.0,90.0,6.0,0.0
377,51.0,0.0,90.0,6.0,0.0
378,70.0,0.0,90.0,5.0,0.0
379,56.0,0.0,90.0,7.0,0.0
380,51.0,0.0,90.0,6.0,0.0
381,68.0,0.0,90.0,1.0,0.0
382,63.0,19.0,90.0,6.0,0.0
383,72.0,0.0,90.0,4.0,0.0
384,68.0,0.0,90.0,5.0,0.0
385,72.0,0.0,90.0,1.0,0.0
386,68.0,0.0,90.0,0.0,0.0
387,72.0,0.0,90.0,0.0,0.0
388,72.0,77.0,15.0,0.0,0.0
389,65.0,0.0,90.0,0.0,0.0
390,65.0,0.0,90.0,5.0,0.0
391,72.0,0.0,15.0,4.0,0.0
392,73.0,0.0,90.0,1.0,0.0
393,49.0,0.0,90.0,7.0,0.0
394,61.0,8.0,120.0,6.0,0.0
395,70.0,0.0,90.0,4.0,0.0
396,70.0,43.0,90.0,0.0,0.0
397,65.0,0.0,60.0,0.0,0.0
398,46.0,0.0,90.0,7.0,0.0
399,65.0,0.0,60.0,5.0,0.0
400,73.0,44.0,60.0,0.0,0.0
401,70.0,0.0,90.0,1.0,0.0
402,73.0,0.0,60.0,4.0,0.0
403,65.0,0.0,60.0,6.0,0.0
404,70.0,48.0,60.0,4.0,0.0
405,61.0,0.0,60.0,5.0,0.0
406,61.0,0.0,60.0,0.0,0.0
407,70.0,0.0,60.0,0.0,0.0
408,63.0,4.0,90.0,1.0,0.0
409,60.0,44.0,60.0,0.0,0.0
410,68.0,0.0,60.0,4.0,0.0
411,63.0,0.0,90.0,6.0,0.0
412,51.0,0.0,90.0,7.0,0.0
413,75.0,0.0,90.0,1.0,0.0
414,68.0,0.0,60.0,0.0,0.0
415,60.0,0.0,60.0,5.0,0.0
416,58.0,0.0,60.0,5.0,0.0
417,58.0,0.0,60.0,0.0,0.0
418,67.0,23.0,60.0,4.0,0.0
419,67.0,0.0,60.0,0.0,0.0
420,63.0,0.0,90.0,6.0,0.0
421,68.0,0.0,90.0,0.0,0.0
422,56.0,0.0,90.0,1.0,0.0
423,56.0,0.0,20.0,5.0,0.0
424,60.0,27.0,90.0,0.0,0.0
425,68.0,0.0,90.0,1.0,0.0
426,44.0,0.0,90.0,7.0,0.0
427,68.0,48.0,20.0,4.0,0.0
428,60.0,0.0,20.0,5.0,0.0
429,75.0,21.0,20.0,4.0,0.0
430,48.0,27.0,90.0,6.0,0.0
431,60.0,48.0,20.0,5.0,0.0
432,60.0,0.0,90.0,1.0,0.0
433,75.0,0.0,20.0,4.0,0.0
434,72.0,0.0,90.0,1.0,0.0
435,75.0,0.0,20.0,4.0,0.0
436,60.0,21.0,20.0,5.0,0.0
437,60.0,0.0,20.0,5.0,0.0
438,68.0,0.0,90.0,1.0,0.0
439,44.0,52.0,90.0,6.0,0.0
440,56.0,0.0,90.0,1.0,0.0
441,75.0,48.0,20.0,4.0,0.0
442,60.0,21.0,20.0,5.0,0.0
443,75.0,0.0,20.0,4.0,0.0
444,63.0,0.0,180.0,1.0,0.0
445,77.0,44.0,60.0,4.0,0.0
446,75.0,8.0,180.0,1.0,0.0
447,51.0,0.0,90.0,6.0,0.0
448,39.0,4.0,90.0,7.0,0.0
449,61.0,0.0,60.0,5.0,0.0
450,72.0,23.0,60.0,0.0,0.0
451,60.0,0.0,60.0,5.0,0.0
452,68.0,0.0,60.0,0.0,0.0
453,75.0,0.0,60.0,4.0,0.0
454,51.0,4.0,90.0,7.0,0.0
455,70.0,23.0,60.0,0.0,0.0
456,58.0,0.0,20.0,5.0,0.0
457,73.0,25.0,20.0,4.0,0.0
458,63.0,8.0,120.0,6.0,0.0
459,73.0,0.0,60.0,0.0,0.0
460,72.0,40.0,60.0,0.0,0.0
461,75.0,0.0,60.0,0.0,0.0
462,56.0,13.0,20.0,5.0,0.0
463,72.0,0.0,20.0,4.0,0.0
464,73.0,44.0,60.0,4.0,0.0
465,63.0,4.0,90.0,1.0,0.0
466,51.0,0.0,90.0,1.0,0.0
467,58.0,0.0,60.0,5.0,0.0
468,73.0,0.0,60.0,0.0,0.0
469,51.0,0.0,90.0,7.0,0.0
470,70.0,0.0,60.0,0.0,0.0
471,67.0,0.0,60.0,0.0,0.0
472,55.0,23.0,60.0,5.0,0.0
473,61.0,0.0,60.0,6.0,0.0
474,70.0,0.0,60.0,0.0,0.0
475,70.0,0.0,60.0,4.0,0.0
476,56.0,48.0,20.0,5.0,0.0
477,68.0,27.0,90.0,1.0,0.0
478,44.0,0.0,90.0,7.0,0.0
479,68.0,0.0,20.0,4.0,0.0
480,60.0,0.0,90.0,6.0,0.0
481,56.0,0.0,90.0,1.0,0.0
482,68.0,0.0,90.0,0.0,0.0
483,60.0,0.0,20.0,5.0,0.0
484,75.0,21.0,20.0,4.0,0.0
485,75.0,0.0,20.0,4.0,0.0
486,48.0,0.0,90.0,6.0,0.0
487,60.0,48.0,20.0,5.0,0.0
488,72.0,0.0,90.0,1.0,0.0
489,60.0,27.0,90.0,1.0,0.0
490,60.0,0.0,20.0,5.0,0.0
491,75.0,21.0,20.0,4.0,0.0
492,56.0,0.0,90.0,1.0,0.0
493,68.0,52.0,90.0,1.0,0.0
494,44.0,0.0,90.0,6.0,0.0
495,60.0,48.0,20.0,5.0,0.0
496,75.0,0.0,20.0,4.0,0.0
497,75.0,21.0,20.0,4.0,0.0
498,60.0,0.0,20.0,5.0,0.0
499,51.0,4.0,90.0,6.0,0.0
500,39.0,0.0,90.0,7.0,0.0
501,75.0,8.0,180.0,1.0,0.0
502,77.0,0.0,60.0,4.0,0.0
503,63.0,0.0,180.0,1.0,0.0
504,61.0,44.0,60.0,5.0,0.0
505,75.0,0.0,60.0,4.0,0.0
506,72.0,0.0,60.0,0.0,0.0
507,60.0,0.0,60.0,5.0,0.0
508,68.0,23.0,60.0,0.0,0.0
509,63.0,8.0,120.0,6.0,0.0
510,51.0,4.0,90.0,7.0,0.0
511,58.0,25.0,20.0,5.0,0.0
512,73.0,23.0,60.0,0.0,0.0
513,73.0,0.0,20.0,4.0,0.0
514,70.0,0.0,60.0,0.0,0.0
515,56.0,13.0,20.0,5.0,0.0
516,72.0,40.0,60.0,0.0,0.0
517,72.0,0.0,20.0,4.0,0.0
518,75.0,0.0,60.0,0.0,0.0
519,73.0,0.0,60.0,0.0,0.0
520,70.0,0.0,60.0,0.0,0.0
521,73.0,44.0,60.0,4.0,0.0
522,51.0,4.0,90.0,1.0,0.0
523,58.0,0.0,60.0,5.0,0.0
524,51.0,0.0,90.0,7.0,0.0
525,63.0,0.0,90.0,1.0,0.0
526,55.0,0.0,60.0,5.0,0.0
527,61.0,71.0,60.0,6.0,0.0
528,70.0,0.0,60.0,4.0,0.0
529,67.0,0.0,60.0,0.0,0.0
530,70.0,0.0,60.0,0.0,0.0
531,68.0,0.0,90.0,0.0,0.0
532,56.0,0.0,90.0,5.0,0.0
533,56.0,0.0,90.0,1.0,0.0
534,68.0,0.0,90.0,4.0,0.0
535,68.0,0.0,90.0,1.0,0.0
536,60.0,0.0,90.0,6.0,0.0
537,44.0,27.0,90.0,7.0,0.0
538,75.0,21.0,20.0,2.0,0.0
539,75.0,48.0,20.0,2.0,0.0
540,75.0,48.0,20.0,2.0,0.0
541,75.0,48.0,20.0,2.0,0.0
542,75.0,73.0,20.0,2.0,0.0
543,77.0,48.0,60.0,2.0,0.0
544,75.0,23.0,60.0,2.0,0.0
545,63.0,27.0,90.0,3.0,0.0
546,73.0,48.0,20.0,2.0,0.0
547,56.0,0.0,90.0,3.0,0.0
548,72.0,21.0,20.0,2.0,0.0
549,70.0,48.0,20.0,2.0,0.0
550,63.0,52.0,90.0,3.0,0.0
551,56.0,0.0,90.0,3.0,0.0
552,68.0,21.0,20.0,2.0,0.0
553,55.0,35.0,180.0,3.0,0.0
554,63.0,0.0,180.0,3.0,0.0
555,70.0,48.0,60.0,2.0,0.0
556,82.0,23.0,60.0,2.0,0.0
557,82.0,48.0,20.0,2.0,0.0
558,82.0,13.0,20.0,2.0,0.0
559,82.0,48.0,20.0,2.0,0.0
560,82.0,73.0,20.0,2.0,0.0
561,84.0,48.0,60.0,2.0,0.0
562,82.0,23.0,60.0,2.0,0.0
563,63.0,27.0,90.0,3.0,0.0
564,55.0,0.0,90.0,3.0,0.0
565,80.0,48.0,20.0,2.0,0.0
566,79.0,21.0,20.0,2.0,0.0
567,77.0,48.0,20.0,2.0,0.0
568,63.0,52.0,90.0,3.0,0.0
569,55.0,0.0,90.0,3.0,0.0
570,75.0,21.0,20.0,2.0,0.0
571,74.0,48.0,60.0,2.0,0.0
572,58.0,0.0,180.0,3.0,0.0
573,56.0,35.0,180.0,3.0,0.0
574,53.0,0.0,180.0,3.0,0.0
575,80.0,23.0,60.0,2.0,0.0
576,80.0,48.0,20.0,2.0,0.0
577,80.0,13.0,20.0,2.0,0.0
578,80.0,48.0,20.0,2.0,0.0
579,80.0,73.0,20.0,2.0,0.0
580,82.0,48.0,60.0,2.0,0.0
581,80.0,23.0,60.0,2.0,0.0
582,46.0,0.0,90.0,3.0,0.0
583,53.0,0.0,90.0,3.0,0.0
584,56.0,27.0,90.0,3.0,0.0
585,79.0,48.0,20.0,2.0,0.0
586,77.0,21.0,20.0,2.0,0.0
587,75.0,48.0,20.0,2.0,0.0
588,56.0,0.0,90.0,3.0,0.0
589,53.0,52.0,90.0,3.0,0.0
590,46.0,0.0,90.0,3.0,0.0
591,74.0,21.0,20.0,2.0,0.0
592,77.0,48.0,60.0,2.0,0.0
593,75.0,23.0,60.0,2.0,0.0
594,48.0,27.0,90.0,3.0,0.0
595,51.0,0.0,90.0,3.0,0.0
596,54.0,0.0,90.0,3.0,0.0
597,74.0,48.0,20.0,2.0,0.0
598,72.0,21.0,20.0,2.0,0.0
599,48.0,52.0,90.0,3.0,0.0
600,51.0,0.0,90.0,3.0,0.0
601,53.0,0.0,90.0,3.0,0.0
602,70.0,48.0,20.0,2.0,0.0
603,69.0,21.0,20.0,2.0,0.0
604,77.0,48.0,60.0,2.0,0.0
605,68.0,92.0,60.0,2.0,0.0
606,50.0,0.0,90.0,3.0,0.0
607,68.0,19.0,90.0,2.0,0.0
608,58.0,0.0,90.0,3.0,0.0
609,67.0,12.0,15.0,2.0,0.0
610,51.0,0.0,90.0,3.0,0.0
611,58.0,6.0,90.0,3.0,0.0
612,68.0,12.0,15.0,2.0,0.0
613,67.0,12.0,15.0,2.0,0.0
614,68.0,23.0,15.0,2.0,0.0
615,65.0,18.0,20.0,2.0,0.0
616,67.0,69.0,20.0,2.0,0.0
617,65.0,0.0,180.0,2.0,0.0
618,50.0,0.0,180.0,3.0,0.0
619,46.0,35.0,180.0,3.0,0.0
620,58.0,0.0,20.0,6.0,0.0
621,70.0,0.0,20.0,0.0,0.0
622,58.0,0.0,20.0,7.0,0.0
623,70.0,0.0,20.0,5.0,0.0
624,70.0,48.0,20.0,4.0,0.0
625,58.0,0.0,20.0,6.0,0.0
626,58.0,48.0,20.0,7.0,0.0
627,70.0,0.0,20.0,4.0,0.0
628,70.0,0.0,20.0,5.0,0.0
629,70.0,0.0,20.0,0.0,0.0
630,70.0,0.0,20.0,4.0,0.0
631,70.0,13.0,20.0,0.0,0.0
632,58.0,0.0,20.0,7.0,0.0
633,58.0,0.0,20.0,6.0,0.0
634,70.0,0.0,20.0,5.0,0.0
635,58.0,0.0,20.0,6.0,0.0
636,70.0,0.0,20.0,5.0,0.0
637,58.0,0.0,20.0,7.0,0.0
638,70.0,0.0,20.0,4.0,0.0
639,70.0,48.0,20.0,0.0,0.0
640,70.0,0.0,20.0,0.0,0.0
641,58.0,73.0,20.0,6.0,0.0
642,70.0,0.0,20.0,5.0,0.0
643,70.0,0.0,20.0,4.0,0.0
644,58.0,0.0,20.0,7.0,0.0
645,72.0,0.0,60.0,0.0,0.0
646,72.0,48.0,60.0,4.0,0.0
647,60.0,0.0,60.0,6.0,0.0
648,72.0,0.0,60.0,5.0,0.0
649,60.0,0.0,60.0,7.0,0.0
650,58.0,23.0,60.0,7.0,0.0
651,58.0,0.0,60.0,6.0,0.0
652,70.0,0.0,60.0,4.0,0.0
653,70.0,0.0,60.0,5.0,0.0
654,70.0,0.0,60.0,0.0,0.0
655,68.0,0.0,20.0,0.0,0.0
656,68.0,0.0,20.0,5.0,0.0
657,68.0,0.0,20.0,4.0,0.0
658,56.0,0.0,20.0,6.0,0.0
659,56.0,48.0,20.0,7.0,0.0
660,55.0,0.0,20.0,6.0,0.0
661,67.0,0.0,20.0,0.0,0.0
662,55.0,48.0,20.0,7.0,0.0
663,67.0,0.0,20.0,4.0,0.0
664,67.0,0.0,20.0,5.0,0.0
665,65.0,0.0,20.0,4.0,0.0
666,65.0,0.0,20.0,5.0,0.0
667,53.0,48.0,20.0,6.0,0.0
668,53.0,0.0,20.0,7.0,0.0
669,65.0,0.0,20.0,0.0,0.0
670,51.0,0.0,20.0,6.0,0.0
671,63.0,0.0,20.0,4.0,0.0
672,51.0,0.0,20.0,7.0,0.0
673,63.0,0.0,20.0,0.0,0.0
674,63.0,34.0,20.0,5.0,0.0
675,57.0,0.0,15.0,6.0,0.0
676,57.0,0.0,15.0,7.0,0.0
677,69.0,33.0,15.0,4.0,0.0
678,69.0,0.0,15.0,5.0,0.0
679,69.0,0.0,15.0,0.0,0.0
680,70.0,0.0,30.0,5.0,0.0
681,70.0,0.0,30.0,4.0,0.0
682,58.0,0.0,30.0,6.0,0.0
683,58.0,0.0,30.0,7.0,0.0
684,70.0,96.0,30.0,0.0,0.0
685,58.0,0.0,30.0,5.0,0.0
686,58.0,0.0,30.0,4.0,0.0
687,46.0,0.0,30.0,7.0,0.0
688,58.0,220.0,30.0,0.0,0.0
689,46.0,0.0,30.0,6.0,0.0
690,70.0,28.0,60.0,2.0,0.0
691,58.0,0.0,60.0,3.0,0.0
692,55.0,0.0,20.0,3.0,0.0
693,67.0,90.0,20.0,2.0,0.0
694,58.0,88.0,90.0,5.0,0.0
695,63.0,0.0,180.0,3.0,0.0
696,55.0,0.0,90.0,7.0,0.0
697,51.0,0.0,90.0,6.0,0.0
698,70.0,0.0,90.0,4.0,0.0
699,75.0,8.0,180.0,2.0,0.0
700,63.0,74.0,90.0,6.0,0.0
701,55.0,0.0,90.0,5.0,0.0
702,67.0,0.0,90.0,4.0,0.0
703,51.0,0.0,90.0,7.0,0.0
704,60.0,28.0,60.0,3.0,0.0
705,72.0,0.0,60.0,2.0,0.0
706,68.0,0.0,20.0,2.0,0.0
707,56.0,90.0,20.0,3.0,0.0
708,68.0,0.0,90.0,4.0,0.0
709,63.0,8.0,180.0,3.0,0.0
710,56.0,88.0,90.0,5.0,0.0
711,51.0,0.0,90.0,6.0,0.0
712,75.0,0.0,180.0,2.0,0.0
713,60.0,0.0,90.0,7.0,0.0
714,60.0,0.0,90.0,5.0,0.0
715,56.0,0.0,90.0,7.0,0.0
716,63.0,27.0,90.0,6.0,0.0
717,72.0,0.0,90.0,4.0,0.0
718,55.0,0.0,20.0,7.0,0.0
719,63.0,0.0,20.0,6.0,0.0
720,70.0,0.0,60.0,2.0,0.0
721,58.0,28.0,60.0,3.0,0.0
722,70.0,0.0,20.0,4.0,0.0
723,58.0,47.0,20.0,5.0,0.0
724,67.0,0.0,20.0,2.0,0.0
725,55.0,21.0,20.0,3.0,0.0
726,60.0,0.0,20.0,5.0,0.0
727,72.0,0.0,20.0,4.0,0.0
728,56.0,47.0,20.0,7.0,0.0
729,60.0,28.0,60.0,3.0,0.0
730,72.0,0.0,60.0,2.0,0.0
731,51.0,0.0,20.0,6.0,0.0
732,56.0,21.0,20.0,3.0,0.0
733,68.0,0.0,20.0,2.0,0.0
734,53.0,28.0,60.0,3.0,0.0
735,57.0,0.0,20.0,7.0,0.0
736,63.0,0.0,20.0,4.0,0.0
737,53.0,0.0,20.0,6.0,0.0
738,60.0,47.0,20.0,5.0,0.0
739,65.0,0.0,60.0,2.0,0.0
740,51.0,46.0,20.0,3.0,0.0
741,63.0,0.0,20.0,2.0,0.0
742,62.0,0.0,120.0,4.0,0.0
743,58.0,0.0,120.0,5.0,0.0
744,62.0,0.0,60.0,2.0,0.0
745,50.0,28.0,60.0,3.0,0.0
746,58.0,22.0,60.0,7.0,0.0
747,53.0,52.0,120.0,6.0,0.0
748,46.0,38.0,20.0,3.0,0.0
749,58.0,0.0,20.0,2.0,0.0
750,53.0,4.0,90.0,7.0,0.0
751,68.0,44.0,150.0,2.0,0.0
752,56.0,0.0,150.0,3.0,0.0
753,62.0,0.0,60.0,5.0,0.0
754,65.0,48.0,60.0,4.0,0.0
755,50.0,0.0,60.0,6.0,0.0
756,65.0,0.0,90.0,5.0,0.0
757,68.0,0.0,90.0,4.0,0.0
758,46.0,4.0,90.0,6.0,0.0
759,50.0,0.0,90.0,7.0,0.0
760,65.0,70.0,60.0,2.0,0.0
761,53.0,0.0,60.0,3.0,0.0
762,70.0,28.0,60.0,2.0,0.0
763,58.0,0.0,60.0,2.0,0.0
764,67.0,90.0,20.0,2.0,0.0
765,55.0,0.0,20.0,2.0,0.0
766,55.0,88.0,90.0,7.0,0.0
767,51.0,0.0,90.0,6.0,0.0
768,70.0,0.0,90.0,4.0,0.0
769,58.0,0.0,90.0,5.0,0.0
770,63.0,0.0,180.0,2.0,0.0
771,75.0,8.0,180.0,2.0,0.0
772,67.0,0.0,90.0,4.0,0.0
773,63.0,0.0,90.0,6.0,0.0
774,51.0,74.0,90.0,7.0,0.0
775,55.0,0.0,90.0,5.0,0.0
776,60.0,28.0,60.0,2.0,0.0
777,72.0,0.0,60.0,2.0,0.0
778,68.0,90.0,20.0,2.0,0.0
779,56.0,0.0,20.0,2.0,0.0
780,68.0,0.0,90.0,4.0,0.0
781,56.0,88.0,90.0,5.0,0.0
782,63.0,8.0,180.0,2.0,0.0
783,75.0,0.0,180.0,2.0,0.0
784,51.0,0.0,90.0,6.0,0.0
785,60.0,0.0,90.0,7.0,0.0
786,72.0,30.0,90.0,4.0,0.0
787,60.0,0.0,90.0,5.0,0.0
788,56.0,0.0,90.0,7.0,0.0
789,63.0,0.0,90.0,6.0,0.0
790,63.0,0.0,60.0,5.0,0.0
791,58.0,0.0,60.0,6.0,0.0
792,55.0,0.0,60.0,7.0,0.0
793,70.0,5.0,60.0,4.0,0.0
794,70.0,13.0,20.0,2.0,0.0
795,43.0,0.0,60.0,3.0,0.0
796,72.0,12.0,15.0,2.0,0.0
797,70.0,12.0,15.0,2.0,0.0
798,68.0,7.0,15.0,2.0,0.0
799,70.0,23.0,15.0,2.0,0.0
800,60.0,0.0,20.0,6.0,0.0
801,68.0,0.0,20.0,4.0,0.0
802,72.0,90.0,20.0,2.0,0.0
803,44.0,0.0,20.0,3.0,0.0
804,56.0,0.0,20.0,7.0,0.0
805,65.0,0.0,20.0,5.0,0.0
806,63.0,0.0,90.0,2.0,0.0
807,58.0,0.0,90.0,7.0,0.0
808,63.0,0.0,90.0,5.0,0.0
809,58.0,0.0,90.0,6.0,0.0
810,46.0,19.0,90.0,3.0,0.0
811,67.0,0.0,90.0,4.0,0.0
812,46.0,0.0,90.0,3.0,0.0
813,56.0,0.0,90.0,6.0,0.0
814,62.0,0.0,90.0,5.0,0.0
815,65.0,0.0,90.0,4.0,0.0
816,46.0,6.0,90.0,7.0,0.0
817,62.0,12.0,15.0,2.0,0.0
818,63.0,12.0,15.0,2.0,0.0
819,62.0,12.0,15.0,2.0,0.0
820,63.0,23.0,15.0,2.0,0.0
821,60.0,18.0,20.0,2.0,0.0
822,62.0,90.0,20.0,2.0,0.0
823,51.0,0.0,90.0,7.0,0.0
824,63.0,0.0,90.0,4.0,0.0
825,55.0,0.0,90.0,6.0,0.0
826,63.0,75.0,90.0,5.0,0.0
827,51.0,0.0,90.0,3.0,0.0
828,63.0,0.0,90.0,2.0,0.0
829,39.0,0.0,90.0,7.0,0.0
830,39.0,27.0,90.0,3.0,0.0
831,58.0,21.0,20.0,2.0,0.0
832,60.0,48.0,20.0,2.0,0.0
833,62.0,51.0,20.0,2.0,0.0
834,51.0,35.0,180.0,3.0,0.0
835,63.0,24.0,20.0,2.0,0.0
836,58.0,24.0,20.0,2.0,0.0
837,55.0,24.0,20.0,2.0,0.0
838,58.0,21.0,20.0,2.0,0.0
839,63.0,48.0,20.0,2.0,0.0
840,63.0,0.0,20.0,2.0,0.0
841,58.0,13.0,20.0,2.0,0.0
842,62.0,0.0,20.0,2.0,0.0
843,65.0,48.0,20.0,2.0,0.0
844,67.0,51.0,20.0,2.0,0.0
845,63.0,0.0,20.0,2.0,0.0
846,65.0,24.0,20.0,2.0,0.0
847,46.0,35.0,180.0,3.0,0.0
848,62.0,24.0,20.0,2.0,0.0
849,58.0,24.0,20.0,2.0,0.0
850,62.0,21.0,20.0,2.0,0.0
851,65.0,48.0,20.0,2.0,0.0
852,58.0,13.0,20.0,2.0,0.0
853,58.0,48.0,20.0,2.0,0.0
854,62.0,0.0,20.0,2.0,0.0
855,60.0,51.0,20.0,2.0,0.0
856,63.0,0.0,20.0,2.0,0.0
857,46.0,35.0,180.0,3.0,0.0
858,65.0,24.0,20.0,2.0,0.0
859,62.0,24.0,20.0,2.0,0.0
860,58.0,24.0,20.0,2.0,0.0
861,62.0,21.0,20.0,2.0,0.0
862,65.0,48.0,20.0,2.0,0.0
863,65.0,13.0,20.0,2.0,0.0
864,62.0,0.0,20.0,2.0,0.0
865,63.0,0.0,20.0,2.0,0.0
866,67.0,48.0,20.0,2.0,0.0
867,68.0,51.0,20.0,2.0,0.0
868,65.0,0.0,20.0,2.0,0.0
869,67.0,24.0,20.0,2.0,0.0
870,39.0,35.0,180.0,3.0,0.0
871,63.0,24.0,20.0,2.0,0.0
872,58.0,24.0,20.0,2.0,0.0
873,63.0,21.0,20.0,2.0,0.0
874,67.0,48.0,20.0,2.0,0.0
875,70.0,13.0,20.0,2.0,0.0
876,67.0,0.0,20.0,2.0,0.0
877,72.0,0.0,20.0,2.0,0.0
878,68.0,48.0,20.0,2.0,0.0
879,74.0,0.0,20.0,2.0,0.0
880,70.0,51.0,20.0,2.0,0.0
881,75.0,24.0,20.0,2.0,0.0
882,51.0,35.0,180.0,3.0,0.0
883,70.0,24.0,20.0,2.0,0.0
884,67.0,24.0,20.0,2.0,0.0
885,70.0,21.0,20.0,2.0,0.0
886,75.0,48.0,20.0,2.0,0.0
887,67.0,0.0,20.0,2.0,0.0
888,63.0,13.0,20.0,2.0,0.0
889,65.0,48.0,20.0,2.0,0.0
890,68.0,0.0,20.0,2.0,0.0
891,67.0,51.0,20.0,2.0,0.0
892,70.0,0.0,20.0,2.0,0.0
893,72.0,24.0,20.0,2.0,0.0
894,44.0,35.0,180.0,3.0,0.0
895,68.0,24.0,20.0,2.0,0.0
896,65.0,24.0,20.0,2.0,0.0
897,68.0,21.0,20.0,2.0,0.0
898,72.0,48.0,20.0,2.0,0.0
899,65.0,13.0,20.0,2.0,0.0
900,62.0,0.0,20.0,2.0,0.0
901,67.0,0.0,20.0,2.0,0.0
902,63.0,48.0,20.0,2.0,0.0
903,68.0,0.0,20.0,2.0,0.0
904,65.0,51.0,20.0,2.0,0.0
905,70.0,24.0,20.0,2.0,0.0
906,43.0,6.0,90.0,3.0,0.0
907,67.0,24.0,20.0,2.0,0.0
908,63.0,18.0,20.0,2.0,0.0
909,67.0,21.0,20.0,2.0,0.0
910,70.0,48.0,20.0,2.0,0.0
911,70.0,25.0,20.0,2.0,0.0
912,55.0,26.0,60.0,3.0,0.0
913,72.0,22.0,20.0,2.0,0.0
914,56.0,2.0,60.0,3.0,0.0
915,70.0,24.0,20.0,2.0,0.0
916,68.0,22.0,20.0,2.0,0.0
917,60.0,2.0,60.0,3.0,0.0
918,67.0,90.0,20.0,2.0,0.0
919,67.0,52.0,90.0,2.0,0.0
920,63.0,0.0,90.0,2.0,0.0
921,58.0,0.0,90.0,3.0,0.0
922,46.0,27.0,90.0,3.0,0.0
923,65.0,0.0,60.0,2.0,0.0
924,62.0,23.0,60.0,2.0,0.0
925,70.0,0.0,20.0,0.0,0.0
926,58.0,0.0,20.0,5.0,0.0
927,70.0,21.0,20.0,2.0,0.0
928,58.0,0.0,20.0,4.0,0.0
929,60.0,48.0,20.0,4.0,0.0
930,69.0,0.0,20.0,0.0,0.0
931,72.0,0.0,20.0,0.0,0.0
932,70.0,0.0,20.0,2.0,0.0
933,57.0,0.0,20.0,5.0,0.0
934,74.0,0.0,20.0,0.0,0.0
935,56.0,51.0,20.0,5.0,0.0
936,68.0,0.0,20.0,0.0,0.0
937,62.0,0.0,20.0,4.0,0.0
938,70.0,0.0,20.0,2.0,0.0
939,51.0,8.0,120.0,6.0,0.0
940,70.0,23.0,150.0,2.0,0.0
941,51.0,0.0,90.0,7.0,0.0
942,63.0,0.0,90.0,1.0,0.0
943,63.0,24.0,20.0,4.0,0.0
944,51.0,0.0,90.0,3.0,0.0
945,75.0,6.0,90.0,0.0,0.0
946,55.0,0.0,120.0,5.0,0.0
947,67.0,0.0,90.0,0.0,0.0
948,58.0,24.0,20.0,4.0,0.0
949,55.0,18.0,20.0,4.0,0.0
950,58.0,21.0,20.0,4.0,0.0
951,63.0,17.0,20.0,4.0,0.0
952,63.0,0.0,20.0,4.0,0.0
953,82.0,48.0,20.0,2.0,0.0
954,58.0,0.0,20.0,5.0,0.0
955,70.0,0.0,20.0,0.0,0.0
956,55.0,0.0,20.0,6.0,0.0
957,75.0,0.0,20.0,0.0,0.0
958,53.0,0.0,20.0,6.0,0.0
959,65.0,0.0,20.0,4.0,0.0
960,62.0,0.0,20.0,5.0,0.0
961,77.0,0.0,20.0,0.0,0.0
962,74.0,0.0,20.0,0.0,0.0
963,82.0,48.0,20.0,2.0,0.0
964,82.0,0.0,20.0,2.0,0.0
965,79.0,0.0,20.0,0.0,0.0
966,63.0,0.0,20.0,5.0,0.0
967,75.0,0.0,20.0,0.0,0.0
968,51.0,40.0,20.0,6.0,0.0
969,67.0,0.0,20.0,4.0,0.0
970,65.0,1.0,20.0,4.0,0.0
971,77.0,0.0,90.0,0.0,0.0
972,58.0,3.0,180.0,3.0,0.0
973,58.0,0.0,90.0,7.0,0.0
974,62.0,11.0,120.0,5.0,0.0
975,82.0,11.0,15.0,2.0,0.0
976,58.0,0.0,120.0,6.0,0.0
977,70.0,0.0,90.0,1.0,0.0
978,74.0,0.0,90.0,0.0,0.0
979,84.0,12.0,15.0,2.0,0.0
980,82.0,11.0,15.0,2.0,0.0
981,62.0,1.0,20.0,4.0,0.0
982,84.0,12.0,15.0,2.0,0.0
983,58.0,1.0,20.0,4.0,0.0
984,82.0,11.0,15.0,2.0,0.0
985,84.0,12.0,15.0,2.0,0.0
986,82.0,5.0,15.0,2.0,0.0
987,62.0,1.0,20.0,4.0,0.0
988,84.0,12.0,15.0,2.0,0.0
989,65.0,4.0,20.0,4.0,0.0
990,82.0,8.0,15.0,2.0,0.0
991,84.0,12.0,15.0,2.0,0.0
992,82.0,1.0,15.0,2.0,0.0
993,84.0,12.0,15.0,2.0,0.0
994,51.0,4.0,20.0,6.0,0.0
995,82.0,8.0,15.0,2.0,0.0
996,58.0,0.0,20.0,5.0,0.0
997,58.0,0.0,20.0,4.0,0.0
998,70.0,0.0,20.0,0.0,0.0
999,84.0,9.0,15.0,2.0,0.0
1000,82.0,9.0,15.0,2.0,0.0
1001,84.0,12.0,15.0,2.0,0.0
1002,70.0,3.0,60.0,0.0,0.0
1003,74.0,4.0,20.0,0.0,0.0
1004,82.0,8.0,15.0,2.0,0.0
1005,50.0,0.0,20.0,6.0,0.0
1006,58.0,0.0,20.0,5.0,0.0
1007,62.0,0.0,20.0,4.0,0.0
1008,84.0,12.0,15.0,2.0,0.0
1009,82.0,9.0,15.0,2.0,0.0
1010,84.0,12.0,15.0,2.0,0.0
1011,75.0,0.0,20.0,0.0,0.0
1012,60.0,0.0,20.0,5.0,0.0
1013,48.0,0.0,20.0,6.0,0.0
1014,72.0,3.0,60.0,0.0,0.0
1015,63.0,4.0,20.0,4.0,0.0
1016,82.0,8.0,15.0,2.0,0.0
1017,84.0,12.0,15.0,2.0,0.0
1018,82.0,9.0,15.0,2.0,0.0
1019,84.0,12.0,15.0,2.0,0.0
1020,46.0,0.0,90.0,7.0,0.0
1021,61.0,11.0,120.0,5.0,0.0
1022,65.0,1.0,20.0,4.0,0.0
1023,82.0,11.0,15.0,2.0,0.0
1024,77.0,0.0,90.0,0.0,0.0
1025,46.0,0.0,120.0,6.0,0.0
1026,74.0,0.0,90.0,0.0,0.0
1027,46.0,3.0,180.0,3.0,0.0
1028,70.0,0.0,90.0,1.0,0.0
1029,84.0,12.0,15.0,2.0,0.0
1030,82.0,11.0,15.0,2.0,0.0
1031,62.0,1.0,20.0,4.0,0.0
1032,84.0,12.0,15.0,2.0,0.0
1033,58.0,1.0,20.0,4.0,0.0
1034,82.0,11.0,15.0,2.0,0.0
1035,84.0,12.0,15.0,2.0,0.0
1036,82.0,5.0,15.0,2.0,0.0
1037,62.0,1.0,20.0,4.0,0.0
1038,84.0,12.0,15.0,2.0,0.0
1039,65.0,4.0,20.0,4.0,0.0
1040,82.0,8.0,15.0,2.0,0.0
1041,84.0,12.0,15.0,2.0,0.0
1042,82.0,1.0,15.0,2.0,0.0
1043,84.0,12.0,15.0,2.0,0.0
1044,77.0,0.0,20.0,0.0,0.0
1045,61.0,0.0,20.0,5.0,0.0
1046,65.0,0.0,20.0,4.0,0.0
1047,82.0,8.0,15.0,2.0,0.0
1048,56.0,4.0,20.0,6.0,0.0
1049,74.0,0.0,20.0,0.0,0.0
1050,84.0,9.0,15.0,2.0,0.0
1051,82.0,12.0,15.0,2.0,0.0
1052,84.0,12.0,15.0,2.0,0.0
1053,79.0,0.0,20.0,0.0,0.0
1054,67.0,0.0,20.0,4.0,0.0
1055,55.0,0.0,20.0,6.0,0.0
1056,75.0,0.0,20.0,0.0,0.0
1057,82.0,8.0,15.0,2.0,0.0
1058,63.0,4.0,20.0,5.0,0.0
1059,84.0,12.0,15.0,2.0,0.0
1060,82.0,12.0,15.0,2.0,0.0
1061,84.0,12.0,15.0,2.0,0.0
1062,50.0,0.0,20.0,6.0,0.0
1063,65.0,0.0,20.0,5.0,0.0
1064,77.0,0.0,20.0,0.0,0.0
1065,80.0,4.0,20.0,0.0,0.0
1066,68.0,0.0,20.0,4.0,0.0
1067,82.0,8.0,15.0,2.0,0.0
1068,84.0,12.0,15.0,2.0,0.0
1069,82.0,12.0,15.0,2.0,0.0
1070,84.0,23.0,15.0,2.0,0.0
1071,63.0,6.0,90.0,5.0,0.0
1072,79.0,0.0,90.0,0.0,0.0
1073,70.0,0.0,90.0,1.0,0.0
1074,82.0,0.0,90.0,2.0,0.0
1075,51.0,0.0,90.0,7.0,0.0
1076,63.0,0.0,90.0,1.0,0.0
1077,51.0,0.0,180.0,6.0,0.0
1078,51.0,8.0,180.0,3.0,0.0
1079,67.0,24.0,20.0,4.0,0.0
1080,75.0,0.0,90.0,0.0,0.0
1081,63.0,24.0,20.0,4.0,0.0
1082,58.0,18.0,20.0,4.0,0.0
1083,63.0,24.0,20.0,4.0,0.0
1084,58.0,0.0,90.0,5.0,0.0
1085,75.0,24.0,20.0,2.0,0.0
1086,67.0,6.0,90.0,4.0,0.0
1087,70.0,24.0,20.0,2.0,0.0
1088,67.0,10.0,20.0,2.0,0.0
1089,70.0,24.0,20.0,2.0,0.0
1090,75.0,24.0,20.0,2.0,0.0
1091,70.0,24.0,20.0,2.0,0.0
1092,67.0,24.0,20.0,2.0,0.0
1093,70.0,24.0,20.0,2.0,0.0
1094,63.0,0.0,90.0,6.0,0.0
1095,51.0,0.0,180.0,3.0,0.0
1096,55.0,8.0,180.0,3.0,0.0
1097,75.0,2.0,60.0,2.0,0.0
1098,51.0,0.0,90.0,7.0,0.0
1099,70.0,22.0,20.0,4.0,0.0
1100,67.0,4.0,90.0,5.0,0.0
1101,67.0,24.0,20.0,4.0,0.0
1102,63.0,18.0,20.0,4.0,0.0
1103,70.0,2.0,60.0,2.0,0.0
1104,67.0,24.0,20.0,4.0,0.0
1105,70.0,0.0,90.0,4.0,0.0
1106,55.0,0.0,90.0,6.0,0.0
1107,63.0,6.0,90.0,5.0,0.0
1108,79.0,24.0,20.0,2.0,0.0
1109,75.0,24.0,20.0,2.0,0.0
1110,70.0,10.0,20.0,2.0,0.0
1111,75.0,24.0,20.0,2.0,0.0
1112,79.0,24.0,20.0,2.0,0.0
1113,75.0,24.0,20.0,2.0,0.0
1114,70.0,24.0,20.0,2.0,0.0
1115,75.0,24.0,20.0,2.0,0.0
1116,67.0,0.0,90.0,6.0,0.0
1117,79.0,2.0,60.0,2.0,0.0
1118,70.0,4.0,90.0,5.0,0.0
1119,51.0,0.0,90.0,7.0,0.0
1120,51.0,0.0,180.0,3.0,0.0
1121,55.0,0.0,180.0,3.0,0.0
1122,58.0,8.0,180.0,3.0,0.0
1123,75.0,22.0,20.0,4.0,0.0
1124,70.0,24.0,20.0,4.0,0.0
1125,67.0,18.0,20.0,4.0,0.0
1126,75.0,2.0,60.0,2.0,0.0
1127,70.0,24.0,20.0,4.0,0.0
1128,82.0,24.0,20.0,2.0,0.0
1129,58.0,0.0,90.0,6.0,0.0
1130,75.0,0.0,90.0,4.0,0.0
1131,67.0,6.0,90.0,5.0,0.0
1132,79.0,24.0,20.0,2.0,0.0
1133,75.0,10.0,20.0,2.0,0.0
1134,79.0,24.0,20.0,2.0,0.0
1135,82.0,24.0,20.0,2.0,0.0
1136,79.0,24.0,20.0,2.0,0.0
1137,75.0,24.0,20.0,2.0,0.0
1138,79.0,24.0,20.0,2.0,0.0
1139,55.0,6.0,90.0,3.0,0.0
1140,82.0,24.0,20.0,2.0,0.0
1141,79.0,24.0,20.0,2.0,0.0
1142,75.0,18.0,20.0,2.0,0.0
1143,70.0,0.0,20.0,2.0,0.0
1144,70.0,40.0,20.0,4.0,0.0
1145,63.0,0.0,20.0,6.0,0.0
1146,55.0,0.0,20.0,7.0,0.0
1147,63.0,0.0,20.0,5.0,0.0
1148,67.0,50.0,30.0,5.0,0.0
1149,58.0,0.0,30.0,6.0,0.0
1150,63.0,0.0,90.0,2.0,0.0
1151,58.0,0.0,90.0,2.0,0.0
1152,58.0,0.0,30.0,7.0,0.0
1153,79.0,19.0,90.0,2.0,0.0
1154,75.0,0.0,30.0,4.0,0.0
1155,77.0,12.0,15.0,2.0,0.0
1156,65.0,0.0,30.0,5.0,0.0
1157,46.0,0.0,30.0,7.0,0.0
1158,58.0,0.0,90.0,3.0,0.0
1159,62.0,7.0,90.0,3.0,0.0
1160,74.0,0.0,30.0,4.0,0.0
1161,58.0,9.0,30.0,6.0,0.0
1162,79.0,12.0,15.0,2.0,0.0
1163,77.0,3.0,15.0,2.0,0.0
1164,79.0,12.0,15.0,2.0,0.0
1165,77.0,12.0,15.0,2.0,0.0
1166,79.0,12.0,15.0,2.0,0.0
1167,75.0,5.0,15.0,2.0,0.0
1168,77.0,39.0,15.0,2.0,0.0
1169,63.0,0.0,90.0,2.0,0.0
1170,75.0,0.0,30.0,4.0,0.0
1171,75.0,30.0,90.0,2.0,0.0
1172,51.0,0.0,30.0,7.0,0.0
1173,58.0,0.0,30.0,6.0,0.0
1174,67.0,50.0,30.0,5.0,0.0
1175,63.0,0.0,60.0,1.0,0.0
1176,70.0,0.0,60.0,1.0,0.0
1177,67.0,0.0,60.0,0.0,0.0
1178,63.0,22.0,20.0,2.0,0.0
1179,75.0,2.0,60.0,0.0,0.0
1180,58.0,24.0,20.0,2.0,0.0
1181,55.0,0.0,20.0,2.0,0.0
1182,70.0,0.0,20.0,1.0,0.0
1183,67.0,0.0,20.0,0.0,0.0
1184,75.0,0.0,20.0,0.0,0.0
1185,63.0,24.0,20.0,1.0,0.0
1186,58.0,0.0,20.0,2.0,0.0
1187,75.0,0.0,20.0,0.0,0.0
1188,70.0,0.0,20.0,1.0,0.0
1189,63.0,24.0,20.0,1.0,0.0
1190,67.0,0.0,20.0,0.0,0.0
1191,63.0,22.0,20.0,2.0,0.0
1192,75.0,2.0,60.0,0.0,0.0
1193,63.0,0.0,60.0,1.0,0.0
1194,70.0,0.0,60.0,1.0,0.0
1195,67.0,0.0,60.0,0.0,0.0
1196,58.0,24.0,20.0,2.0,0.0
1197,67.0,0.0,60.0,0.0,0.0
1198,55.0,22.0,20.0,2.0,0.0
1199,75.0,0.0,60.0,0.0,0.0
1200,70.0,0.0,60.0,1.0,0.0
1201,63.0,2.0,60.0,1.0,0.0
1202,58.0,46.0,20.0,2.0,0.0
1203,75.0,0.0,90.0,0.0,0.0
1204,70.0,0.0,90.0,1.0,0.0
1205,63.0,44.0,60.0,2.0,0.0
1206,67.0,0.0,90.0,0.0,0.0
1207,58.0,4.0,90.0,4.0,0.0
1208,51.0,0.0,90.0,6.0,0.0
1209,63.0,0.0,90.0,1.0,0.0
1210,39.0,14.0,180.0,3.0,0.0
1211,43.0,0.0,180.0,3.0,0.0
1212,39.0,0.0,90.0,7.0,0.0
1213,55.0,0.0,90.0,5.0,0.0
1214,58.0,26.0,60.0,2.0,0.0
1215,70.0,0.0,60.0,1.0,0.0
1216,63.0,0.0,60.0,1.0,0.0
1217,67.0,22.0,20.0,2.0,0.0
1218,75.0,0.0,60.0,0.0,0.0
1219,79.0,2.0,60.0,0.0,0.0
1220,63.0,24.0,20.0,2.0,0.0
1221,70.0,0.0,20.0,1.0,0.0
1222,63.0,0.0,20.0,1.0,0.0
1223,58.0,10.0,20.0,2.0,0.0
1224,79.0,0.0,20.0,0.0,0.0
1225,75.0,0.0,20.0,0.0,0.0
1226,63.0,0.0,20.0,2.0,0.0
1227,75.0,24.0,20.0,0.0,0.0
1228,70.0,0.0,20.0,1.0,0.0
1229,79.0,0.0,20.0,0.0,0.0
1230,63.0,0.0,20.0,1.0,0.0
1231,63.0,0.0,60.0,1.0,0.0
1232,79.0,2.0,60.0,0.0,0.0
1233,70.0,0.0,60.0,1.0,0.0
1234,67.0,22.0,20.0,2.0,0.0
1235,75.0,0.0,60.0,0.0,0.0
1236,63.0,24.0,20.0,2.0,0.0
1237,70.0,0.0,60.0,1.0,0.0
1238,58.0,22.0,20.0,2.0,0.0
1239,75.0,0.0,60.0,0.0,0.0
1240,63.0,2.0,60.0,1.0,0.0
1241,79.0,0.0,60.0,0.0,0.0
1242,63.0,46.0,20.0,2.0,0.0
1243,63.0,0.0,90.0,1.0,0.0
1244,68.0,44.0,60.0,2.0,0.0
1245,58.0,0.0,90.0,5.0,0.0
1246,70.0,0.0,90.0,1.0,0.0
1247,75.0,0.0,90.0,0.0,0.0
1248,55.0,0.0,90.0,6.0,0.0
1249,63.0,0.0,90.0,4.0,0.0
1250,79.0,0.0,90.0,0.0,0.0
1251,39.0,0.0,180.0,3.0,0.0
1252,43.0,0.0,180.0,3.0,0.0
1253,46.0,14.0,180.0,3.0,0.0
1254,39.0,4.0,90.0,7.0,0.0
1255,63.0,26.0,60.0,2.0,0.0
1256,79.0,0.0,60.0,0.0,0.0
1257,70.0,22.0,20.0,2.0,0.0
1258,63.0,0.0,60.0,1.0,0.0
1259,70.0,2.0,60.0,1.0,0.0
1260,82.0,0.0,60.0,0.0,0.0
1261,67.0,24.0,20.0,2.0,0.0
1262,79.0,0.0,20.0,0.0,0.0
1263,63.0,0.0,20.0,2.0,0.0
1264,82.0,10.0,20.0,0.0,0.0
1265,70.0,0.0,20.0,1.0,0.0
1266,63.0,0.0,20.0,1.0,0.0
1267,79.0,0.0,20.0,0.0,0.0
1268,70.0,0.0,20.0,1.0,0.0
1269,67.0,0.0,20.0,2.0,0.0
1270,82.0,24.0,20.0,0.0,0.0
1271,63.0,0.0,20.0,1.0,0.0
1272,63.0,0.0,60.0,1.0,0.0
1273,79.0,0.0,60.0,0.0,0.0
1274,70.0,22.0,20.0,2.0,0.0
1275,82.0,0.0,60.0,0.0,0.0
1276,70.0,2.0,60.0,1.0,0.0
1277,67.0,24.0,20.0,2.0,0.0
1278,63.0,0.0,60.0,1.0,0.0
1279,79.0,0.0,60.0,0.0,0.0
1280,70.0,0.0,60.0,1.0,0.0
1281,63.0,22.0,20.0,2.0,0.0
1282,82.0,2.0,60.0,0.0,0.0
1283,67.0,24.0,20.0,2.0,0.0
1284,70.0,24.0,20.0,2.0,0.0
1285,70.0,0.0,90.0,1.0,0.0
1286,79.0,0.0,90.0,0.0,0.0
1287,43.0,0.0,90.0,3.0,0.0
1288,82.0,0.0,90.0,0.0,0.0
1289,67.0,24.0,20.0,2.0,0.0
1290,63.0,18.0,20.0,2.0,0.0
1291,63.0,0.0,20.0,4.0,0.0
1292,43.0,0.0,20.0,7.0,0.0
1293,55.0,0.0,20.0,6.0,0.0
1294,58.0,40.0,20.0,2.0,0.0
1295,58.0,0.0,20.0,5.0,0.0
1296,79.0,19.0,90.0,0.0,0.0
1297,46.0,50.0,30.0,7.0,0.0
1298,51.0,0.0,90.0,3.0,0.0
1299,46.0,0.0,90.0,3.0,0.0
1300,63.0,0.0,30.0,5.0,0.0
1301,58.0,0.0,30.0,6.0,0.0
1302,70.0,0.0,90.0,1.0,0.0
1303,67.0,0.0,90.0,2.0,0.0
1304,67.0,0.0,30.0,4.0,0.0
1305,75.0,0.0,90.0,0.0,0.0
1306,58.0,0.0,30.0,6.0,0.0
1307,65.0,0.0,15.0,2.0,0.0
1308,46.0,0.0,90.0,3.0,0.0
1309,68.0,0.0,15.0,1.0,0.0
1310,62.0,0.0,30.0,5.0,0.0
1311,46.0,9.0,30.0,7.0,0.0
1312,50.0,7.0,90.0,3.0,0.0
1313,77.0,0.0,15.0,0.0,0.0
1314,65.0,0.0,30.0,4.0,0.0
1315,73.0,0.0,15.0,0.0,0.0
1316,75.0,0.0,15.0,0.0,0.0
1317,70.0,0.0,15.0,1.0,0.0
1318,67.0,0.0,15.0,2.0,0.0
1319,79.0,0.0,15.0,0.0,0.0
1320,77.0,3.0,15.0,0.0,0.0
1321,73.0,0.0,15.0,0.0,0.0
1322,65.0,0.0,15.0,2.0,0.0
1323,68.0,0.0,15.0,1.0,0.0
1324,75.0,0.0,15.0,0.0,0.0
1325,70.0,0.0,15.0,1.0,0.0
1326,67.0,0.0,15.0,2.0,0.0
1327,79.0,0.0,15.0,0.0,0.0
1328,68.0,0.0,15.0,1.0,0.0
1329,77.0,0.0,15.0,0.0,0.0
1330,65.0,0.0,15.0,2.0,0.0
1331,73.0,0.0,15.0,0.0,0.0
1332,70.0,0.0,15.0,1.0,0.0
1333,67.0,0.0,15.0,2.0,0.0
1334,79.0,12.0,15.0,0.0,0.0
1335,75.0,0.0,15.0,0.0,0.0
1336,72.0,0.0,15.0,0.0,0.0
1337,63.0,0.0,15.0,2.0,0.0
1338,67.0,0.0,15.0,1.0,0.0
1339,77.0,39.0,15.0,0.0,0.0
1340,73.0,0.0,15.0,0.0,0.0
1341,65.0,0.0,15.0,2.0,0.0
1342,68.0,0.0,15.0,1.0,0.0
1343,63.0,0.0,30.0,5.0,0.0
1344,58.0,6.0,30.0,6.0,0.0
1345,63.0,0.0,30.0,4.0,0.0
1346,70.0,0.0,90.0,1.0,0.0
1347,39.0,0.0,30.0,7.0,0.0
1348,63.0,0.0,90.0,1.0,0.0
1349,75.0,0.0,90.0,0.0,0.0
1350,63.0,0.0,90.0,2.0,0.0
1351,51.0,44.0,60.0,3.0,0.0
1352,55.0,48.0,60.0,3.0,0.0
1353,58.0,26.0,60.0,3.0,0.0
1354,77.0,22.0,20.0,2.0,0.0
1355,55.0,2.0,60.0,3.0,0.0
1356,75.0,24.0,20.0,2.0,0.0
1357,58.0,2.0,60.0,3.0,0.0
1358,74.0,22.0,20.0,2.0,0.0
1359,75.0,24.0,20.0,2.0,0.0
1360,77.0,22.0,20.0,2.0,0.0
1361,55.0,2.0,60.0,3.0,0.0
1362,75.0,46.0,20.0,2.0,0.0
1363,73.0,4.0,90.0,2.0,0.0
1364,51.0,44.0,60.0,3.0,0.0
1365,55.0,48.0,60.0,3.0,0.0
1366,58.0,26.0,60.0,3.0,0.0
1367,55.0,2.0,60.0,3.0,0.0
1368,75.0,22.0,20.0,2.0,0.0
1369,73.0,24.0,20.0,2.0,0.0
1370,58.0,2.0,60.0,3.0,0.0
1371,72.0,22.0,20.0,2.0,0.0
1372,73.0,24.0,20.0,2.0,0.0
1373,75.0,22.0,20.0,2.0,0.0
1374,55.0,2.0,60.0,3.0,0.0
1375,73.0,46.0,20.0,2.0,0.0
1376,51.0,48.0,60.0,3.0,0.0
1377,72.0,0.0,60.0,2.0,0.0
1378,56.0,23.0,60.0,3.0,0.0
1379,80.0,0.0,60.0,2.0,0.0
1380,80.0,25.0,20.0,2.0,0.0
1381,60.0,23.0,60.0,3.0,0.0
1382,56.0,23.0,60.0,3.0,0.0
1383,80.0,25.0,20.0,2.0,0.0
1384,60.0,23.0,60.0,3.0,0.0
1385,80.0,25.0,20.0,2.0,0.0
1386,80.0,25.0,20.0,2.0,0.0
1387,56.0,26.0,60.0,3.0,0.0
1388,80.0,22.0,20.0,2.0,0.0
1389,51.0,2.0,60.0,3.0,0.0
1390,82.0,24.0,20.0,2.0,0.0
1391,53.0,2.0,60.0,3.0,0.0
1392,84.0,22.0,20.0,2.0,0.0
1393,80.0,24.0,20.0,2.0,0.0
1394,56.0,2.0,60.0,3.0,0.0
1395,77.0,22.0,20.0,2.0,0.0
1396,79.0,24.0,20.0,2.0,0.0
1397,53.0,2.0,60.0,3.0,0.0
1398,80.0,22.0,20.0,2.0,0.0
1399,77.0,24.0,20.0,2.0,0.0
1400,56.0,2.0,60.0,3.0,0.0
1401,74.0,22.0,20.0,2.0,0.0
1402,80.0,24.0,20.0,2.0,0.0
1403,77.0,22.0,20.0,2.0,0.0
1404,53.0,2.0,60.0,3.0,0.0
1405,74.0,46.0,20.0,2.0,0.0
1406,51.0,44.0,60.0,3.0,0.0
1407,51.0,20.0,1140.0,7.0,0.0
1408,75.0,4.0,90.0,2.0,0.0
1409,63.0,0.0,1140.0,6.0,0.0
1410,55.0,48.0,60.0,3.0,0.0
1411,58.0,22.0,60.0,3.0,0.0
1412,67.0,0.0,60.0,5.0,0.0
1413,70.0,4.0,60.0,4.0,0.0
1414,55.0,2.0,60.0,3.0,0.0
1415,65.0,22.0,20.0,2.0,0.0
1416,67.0,0.0,20.0,4.0,0.0
1417,63.0,24.0,20.0,2.0,0.0
1418,63.0,0.0,20.0,5.0,0.0
1419,67.0,6.0,30.0,5.0,0.0
1420,75.0,0.0,30.0,4.0,0.0
1421,62.0,16.0,20.0,2.0,0.0
1422,58.0,2.0,60.0,3.0,0.0
1423,63.0,24.0,20.0,2.0,0.0
1424,65.0,22.0,20.0,2.0,0.0
1425,55.0,2.0,60.0,3.0,0.0
1426,63.0,46.0,20.0,2.0,0.0
1427,51.0,44.0,60.0,3.0,0.0
1428,61.0,4.0,90.0,2.0,0.0
1429,55.0,48.0,60.0,3.0,0.0
1430,58.0,22.0,60.0,3.0,0.0
1431,67.0,0.0,60.0,5.0,0.0
1432,70.0,4.0,60.0,4.0,0.0
1433,55.0,2.0,60.0,3.0,0.0
1434,63.0,22.0,20.0,2.0,0.0
1435,67.0,0.0,20.0,4.0,0.0
1436,63.0,0.0,20.0,5.0,0.0
1437,61.0,24.0,20.0,2.0,0.0
1438,58.0,2.0,60.0,3.0,0.0
1439,60.0,16.0,20.0,2.0,0.0
1440,70.0,0.0,30.0,5.0,0.0
1441,73.0,6.0,30.0,4.0,0.0
1442,61.0,24.0,20.0,2.0,0.0
1443,55.0,2.0,60.0,3.0,0.0
1444,63.0,22.0,20.0,2.0,0.0
1445,61.0,46.0,20.0,2.0,0.0
1446,51.0,48.0,60.0,3.0,0.0
1447,60.0,0.0,60.0,2.0,0.0
1448,56.0,23.0,60.0,3.0,0.0
1449,68.0,0.0,60.0,2.0,0.0
1450,65.0,1.0,60.0,5.0,0.0
1451,68.0,25.0,20.0,2.0,0.0
1452,60.0,22.0,60.0,3.0,0.0
1453,68.0,0.0,60.0,4.0,0.0
1454,56.0,2.0,60.0,3.0,0.0
1455,68.0,25.0,20.0,2.0,0.0
1456,63.0,0.0,20.0,4.0,0.0
1457,60.0,21.0,20.0,5.0,0.0
1458,72.0,6.0,30.0,4.0,0.0
1459,68.0,0.0,30.0,5.0,0.0
1460,68.0,19.0,20.0,2.0,0.0
1461,60.0,23.0,60.0,3.0,0.0
1462,68.0,25.0,20.0,2.0,0.0
1463,56.0,48.0,60.0,3.0,0.0
1464,51.0,0.0,60.0,3.0,0.0
1465,68.0,48.0,60.0,2.0,0.0
1466,56.0,0.0,60.0,3.0,0.0
1467,80.0,23.0,60.0,2.0,0.0
1468,59.0,22.0,60.0,3.0,0.0
1469,63.0,0.0,60.0,5.0,0.0
1470,68.0,1.0,60.0,4.0,0.0
1471,80.0,25.0,20.0,2.0,0.0
1472,56.0,2.0,60.0,3.0,0.0
1473,80.0,25.0,20.0,2.0,0.0
1474,59.0,21.0,20.0,5.0,0.0
1475,63.0,0.0,20.0,4.0,0.0
1476,68.0,6.0,30.0,5.0,0.0
1477,59.0,23.0,60.0,3.0,0.0
1478,80.0,19.0,20.0,2.0,0.0
1479,71.0,0.0,30.0,4.0,0.0
1480,56.0,15.0,60.0,3.0,0.0
1481,80.0,5.0,20.0,2.0,0.0
1482,51.0,0.0,270.0,3.0,0.0
1483,51.0,0.0,270.0,7.0,0.0
1484,79.0,12.0,15.0,2.0,0.0
1485,68.0,0.0,270.0,5.0,0.0
1486,51.0,0.0,270.0,6.0,0.0
1487,53.0,0.0,270.0,3.0,0.0
1488,62.0,16.0,270.0,3.0,0.0
1489,65.0,0.0,270.0,4.0,0.0
1490,74.0,0.0,270.0,4.0,0.0
1491,80.0,12.0,15.0,2.0,0.0
1492,79.0,12.0,15.0,2.0,0.0
1493,80.0,12.0,15.0,2.0,0.0
1494,79.0,12.0,15.0,2.0,0.0
1495,80.0,12.0,15.0,2.0,0.0
1496,79.0,12.0,15.0,2.0,0.0
1497,80.0,12.0,15.0,2.0,0.0
1498,79.0,12.0,15.0,2.0,0.0
1499,80.0,12.0,15.0,2.0,0.0
1500,79.0,12.0,15.0,2.0,0.0
1501,80.0,45.0,15.0,2.0,0.0
1502,82.0,76.0,60.0,2.0,0.0
1503,84.0,52.0,90.0,2.0,0.0
1504,82.0,26.0,60.0,2.0,0.0
1505,80.0,70.0,20.0,2.0,0.0
1506,79.0,26.0,60.0,2.0,0.0
1507,77.0,70.0,20.0,2.0,0.0
1508,75.0,26.0,60.0,2.0,0.0
1509,74.0,114.0,20.0,2.0,0.0
1510,75.0,4.0,90.0,2.0,0.0
1511,67.0,0.0,60.0,5.0,0.0
1512,55.0,0.0,60.0,3.0,0.0
1513,51.0,0.0,60.0,7.0,0.0
1514,51.0,0.0,60.0,6.0,0.0
1515,58.0,0.0,60.0,3.0,0.0
1516,58.0,74.0,60.0,6.0,0.0
1517,75.0,0.0,60.0,4.0,0.0
1518,51.0,0.0,60.0,3.0,0.0
1519,51.0,0.0,90.0,6.0,0.0
1520,67.0,0.0,90.0,5.0,0.0
1521,58.0,0.0,90.0,6.0,0.0
1522,55.0,0.0,90.0,3.0,0.0
1523,51.0,0.0,90.0,3.0,0.0
1524,75.0,0.0,90.0,4.0,0.0
1525,58.0,6.0,90.0,3.0,0.0
1526,51.0,0.0,90.0,7.0,0.0
1527,74.0,18.0,20.0,2.0,0.0
1528,75.0,24.0,20.0,2.0,0.0
1529,77.0,24.0,20.0,2.0,0.0
1530,75.0,24.0,20.0,2.0,0.0
1531,79.0,24.0,20.0,2.0,0.0
1532,75.0,90.0,20.0,2.0,0.0
1533,70.0,4.0,90.0,2.0,0.0
1534,63.0,74.0,60.0,6.0,0.0
1535,51.0,0.0,60.0,6.0,0.0
1536,51.0,0.0,60.0,7.0,0.0
1537,55.0,0.0,60.0,3.0,0.0
1538,58.0,0.0,60.0,3.0,0.0
1539,51.0,0.0,60.0,3.0,0.0
1540,70.0,0.0,60.0,4.0,0.0
1541,67.0,0.0,60.0,5.0,0.0
1542,51.0,0.0,90.0,7.0,0.0
1543,70.0,6.0,90.0,4.0,0.0
1544,63.0,0.0,90.0,6.0,0.0
1545,51.0,0.0,90.0,3.0,0.0
1546,67.0,0.0,90.0,5.0,0.0
1547,51.0,0.0,90.0,6.0,0.0
1548,58.0,0.0,90.0,3.0,0.0
1549,55.0,0.0,90.0,3.0,0.0
1550,69.0,18.0,20.0,2.0,0.0
1551,70.0,24.0,20.0,2.0,0.0
1552,72.0,24.0,20.0,2.0,0.0
1553,70.0,24.0,20.0,2.0,0.0
1554,75.0,24.0,20.0,2.0,0.0
1555,70.0,24.0,20.0,2.0,0.0
1556,68.0,24.0,20.0,2.0,0.0
1557,67.0,24.0,20.0,2.0,0.0
1558,70.0,24.0,20.0,2.0,0.0
1559,67.0,24.0,20.0,2.0,0.0
1560,65.0,24.0,20.0,2.0,0.0
1561,63.0,24.0,20.0,2.0,0.0
1562,67.0,24.0,20.0,2.0,0.0
1563,63.0,24.0,20.0,2.0,0.0
1564,60.0,24.0,20.0,2.0,0.0
1565,58.0,24.0,20.0,2.0,0.0
1566,63.0,24.0,20.0,2.0,0.0
1567,58.0,24.0,20.0,2.0,0.0
1568,56.0,24.0,20.0,2.0,0.0
1569,55.0,24.0,20.0,2.0,0.0
1570,58.0,24.0,20.0,2.0,0.0
1571,55.0,69.0,20.0,2.0,0.0
1572,51.0,27.0,90.0,2.0,0.0
1573,51.0,0.0,20.0,6.0,0.0
1574,27.0,0.0,20.0,3.0,0.0
1575,51.0,21.0,20.0,4.0,0.0
1576,51.0,0.0,20.0,5.0,0.0
1577,39.0,0.0,20.0,7.0,0.0
1578,39.0,0.0,20.0,3.0,0.0
1579,43.0,0.0,20.0,7.0,0.0
1580,51.0,96.0,90.0,2.0,0.0
1581,55.0,48.0,20.0,5.0,0.0
1582,43.0,0.0,20.0,3.0,0.0
1583,55.0,0.0,20.0,6.0,0.0
1584,55.0,0.0,20.0,4.0,0.0
1585,31.0,0.0,20.0,3.0,0.0
1586,46.0,21.0,20.0,7.0,0.0
1587,46.0,0.0,20.0,3.0,0.0
1588,34.0,0.0,20.0,3.0,0.0
1589,58.0,0.0,20.0,6.0,0.0
1590,58.0,0.0,20.0,4.0,0.0
1591,58.0,0.0,20.0,5.0,0.0
1592,61.0,30.0,90.0,6.0,0.0
1593,51.0,24.0,120.0,2.0,0.0
1594,37.0,14.0,180.0,3.0,0.0
1595,49.0,0.0,180.0,3.0,0.0
1596,61.0,0.0,90.0,5.0,0.0
1597,49.0,0.0,90.0,7.0,0.0
1598,61.0,0.0,90.0,4.0,0.0
1599,55.0,24.0,20.0,2.0,0.0
1600,58.0,10.0,20.0,2.0,0.0
1601,56.0,24.0,20.0,2.0,0.0
1602,55.0,24.0,20.0,2.0,0.0
1603,58.0,24.0,20.0,2.0,0.0
1604,61.0,24.0,20.0,2.0,0.0
1605,60.0,24.0,20.0,2.0,0.0
1606,58.0,24.0,20.0,2.0,0.0
1607,61.0,24.0,20.0,2.0,0.0
1608,65.0,24.0,20.0,2.0,0.0
1609,63.0,24.0,20.0,2.0,0.0
1610,61.0,24.0,20.0,2.0,0.0
1611,67.0,24.0,20.0,2.0,0.0
1612,70.0,24.0,20.0,2.0,0.0
1613,68.0,24.0,20.0,2.0,0.0
1614,67.0,24.0,20.0,2.0,0.0
1615,70.0,24.0,20.0,2.0,0.0
1616,73.0,24.0,20.0,2.0,0.0
1617,72.0,24.0,20.0,2.0,0.0
1618,70.0,24.0,20.0,2.0,0.0
1619,73.0,24.0,20.0,2.0,0.0
1620,77.0,24.0,20.0,2.0,0.0
1621,75.0,142.0,20.0,2.0,0.0
1622,75.0,48.0,150.0,2.0,0.0
1623,74.0,48.0,60.0,2.0,0.0
1624,73.0,48.0,60.0,2.0,0.0
1625,72.0,48.0,60.0,2.0,0.0
1626,75.0,48.0,60.0,2.0,0.0
1627,73.0,48.0,60.0,2.0,0.0
1628,77.0,48.0,60.0,2.0,0.0
1629,75.0,15.0,60.0,2.0,0.0
1630,75.0,12.0,15.0,2.0,0.0
1631,56.0,0.0,90.0,3.0,0.0
1632,60.0,7.0,90.0,3.0,0.0
1633,77.0,12.0,15.0,2.0,0.0
1634,75.0,12.0,15.0,2.0,0.0
1635,77.0,12.0,15.0,2.0,0.0
1636,75.0,12.0,15.0,2.0,0.0
1637,77.0,12.0,15.0,2.0,0.0
1638,75.0,5.0,15.0,2.0,0.0
1639,77.0,95.0,15.0,2.0,0.0
1640,77.0,90.0,20.0,2.0,0.0
1641,51.0,0.0,90.0,3.0,0.0
1642,58.0,0.0,90.0,3.0,0.0
1643,73.0,96.0,90.0,2.0,0.0
1644,56.0,0.0,90.0,3.0,0.0
1645,53.0,192.0,90.0,3.0,0.0
1646,72.0,0.0,90.0,2.0,0.0
1647,68.0,52.0,90.0,2.0,0.0
1648,58.0,4.0,90.0,3.0,0.0
1649,49.0,0.0,90.0,3.0,0.0
1650,69.0,44.0,60.0,2.0,0.0
1651,53.0,0.0,90.0,3.0,0.0
1652,70.0,26.0,60.0,2.0,0.0
1653,72.0,24.0,20.0,2.0,0.0
1654,70.0,24.0,20.0,2.0,0.0
1655,72.0,24.0,20.0,2.0,0.0
1656,70.0,46.0,20.0,2.0,0.0
1657,73.0,48.0,60.0,2.0,0.0
1658,70.0,48.0,60.0,2.0,0.0
1659,68.0,44.0,60.0,2.0,0.0
1660,61.0,4.0,90.0,3.0,0.0
1661,58.0,0.0,90.0,3.0,0.0
1662,51.0,0.0,90.0,3.0,0.0
1663,67.0,48.0,60.0,2.0,0.0
1664,65.0,48.0,60.0,2.0,0.0
1665,63.0,23.0,60.0,2.0,0.0
1666,75.0,48.0,20.0,2.0,0.0
1667,75.0,40.0,20.0,2.0,0.0
1668,56.0,0.0,90.0,3.0,0.0
1669,60.0,7.0,90.0,3.0,0.0
1670,75.0,12.0,15.0,2.0,0.0
1671,77.0,12.0,15.0,2.0,0.0
1672,75.0,12.0,15.0,2.0,0.0
1673,77.0,12.0,15.0,2.0,0.0
1674,75.0,12.0,15.0,2.0,0.0
1675,77.0,12.0,15.0,2.0,0.0
1676,75.0,5.0,15.0,2.0,0.0
1677,77.0,95.0,15.0,2.0,0.0
1678,77.0,90.0,20.0,2.0,0.0
1679,52.0,0.0,90.0,3.0,0.0
1680,58.0,0.0,90.0,3.0,0.0
1681,73.0,96.0,90.0,2.0,0.0
1682,53.0,0.0,90.0,3.0,0.0
1683,56.0,126.0,90.0,3.0,0.0
1684,72.0,0.0,90.0,2.0,0.0
1685,80.0,68.0,20.0,2.0,0.0
1686,68.0,35.0,60.0,2.0,0.0
1687,49.0,0.0,90.0,3.0,0.0
1688,70.0,32.0,30.0,2.0,0.0
1689,58.0,5.0,90.0,3.0,0.0
1690,73.0,27.0,30.0,2.0,0.0
1691,77.0,91.0,30.0,2.0,0.0
1692,60.0,19.0,90.0,3.0,0.0
1693,51.0,0.0,90.0,3.0,0.0
1694,68.0,0.0,90.0,2.0,0.0
1695,61.0,6.0,90.0,3.0,0.0
1696,67.0,12.0,15.0,2.0,0.0
1697,68.0,12.0,15.0,2.0,0.0
1698,67.0,12.0,15.0,2.0,0.0
1699,68.0,23.0,15.0,2.0,0.0
1700,65.0,18.0,20.0,2.0,0.0
1701,67.0,90.0,20.0,2.0,0.0
1702,68.0,8.0,180.0,2.0,0.0
1703,56.0,88.0,90.0,3.0,0.0
1704,60.0,0.0,90.0,3.0,0.0
1705,44.0,96.0,90.0,3.0,0.0
1706,72.0,19.0,90.0,0.0,0.0
1707,75.0,0.0,90.0,0.0,0.0
1708,72.0,0.0,90.0,1.0,0.0
1709,75.0,0.0,90.0,4.0,0.0
1710,72.0,0.0,90.0,5.0,0.0
1711,68.0,0.0,90.0,1.0,0.0
1712,63.0,0.0,90.0,6.0,0.0
1713,72.0,12.0,15.0,5.0,0.0
1714,72.0,0.0,15.0,0.0,0.0
1715,68.0,0.0,90.0,1.0,0.0
1716,72.0,0.0,90.0,1.0,0.0
1717,75.0,0.0,15.0,0.0,0.0
1718,56.0,102.0,90.0,7.0,0.0
1719,75.0,0.0,15.0,4.0,0.0
1720,73.0,12.0,15.0,0.0,0.0
1721,77.0,0.0,15.0,4.0,0.0
1722,73.0,0.0,15.0,5.0,0.0
1723,77.0,0.0,15.0,0.0,0.0
1724,75.0,12.0,15.0,0.0,0.0
1725,72.0,0.0,15.0,0.0,0.0
1726,72.0,0.0,15.0,5.0,0.0
1727,75.0,0.0,15.0,4.0,0.0
1728,77.0,0.0,15.0,4.0,0.0
1729,77.0,0.0,15.0,0.0,0.0
1730,73.0,0.0,15.0,0.0,0.0
1731,73.0,12.0,15.0,5.0,0.0
1732,75.0,0.0,15.0,0.0,0.0
1733,75.0,0.0,15.0,4.0,0.0
1734,72.0,0.0,15.0,0.0,0.0
1735,72.0,12.0,15.0,5.0,0.0
1736,73.0,0.0,15.0,0.0,0.0
1737,77.0,0.0,15.0,0.0,0.0
1738,77.0,12.0,15.0,4.0,0.0
1739,73.0,0.0,15.0,5.0,0.0
1740,75.0,0.0,15.0,0.0,0.0
1741,72.0,5.0,15.0,0.0,0.0
1742,72.0,0.0,15.0,5.0,0.0
1743,75.0,0.0,15.0,4.0,0.0
1744,77.0,0.0,15.0,4.0,0.0
1745,77.0,0.0,15.0,0.0,0.0
1746,73.0,0.0,15.0,0.0,0.0
1747,73.0,0.0,15.0,5.0,0.0
1748,77.0,0.0,20.0,4.0,0.0
1749,73.0,0.0,20.0,5.0,0.0
1750,77.0,0.0,20.0,0.0,0.0
1751,73.0,90.0,20.0,0.0,0.0
1752,51.0,0.0,90.0,7.0,0.0
1753,70.0,0.0,90.0,0.0,0.0
1754,63.0,0.0,90.0,1.0,0.0
1755,70.0,0.0,90.0,1.0,0.0
1756,73.0,0.0,90.0,0.0,0.0
1757,70.0,0.0,90.0,5.0,0.0
1758,67.0,96.0,90.0,6.0,0.0
1759,73.0,0.0,90.0,4.0,0.0
1760,72.0,0.0,90.0,4.0,0.0
1761,72.0,0.0,90.0,0.0,0.0
1762,56.0,0.0,90.0,1.0,0.0
1763,68.0,0.0,90.0,1.0,0.0
1764,68.0,0.0,90.0,6.0,0.0
1765,68.0,0.0,90.0,0.0,0.0
1766,68.0,192.0,90.0,5.0,0.0
1767,53.0,0.0,90.0,7.0,0.0
1768,68.0,52.0,90.0,4.0,0.0
1769,49.0,4.0,90.0,7.0,0.0
1770,73.0,16.0,270.0,1.0,0.0
1771,70.0,0.0,270.0,1.0,0.0
1772,65.0,0.0,270.0,0.0,0.0
1773,69.0,44.0,60.0,4.0,0.0
1774,77.0,0.0,270.0,0.0,0.0
1775,70.0,48.0,60.0,4.0,0.0
1776,65.0,4.0,90.0,5.0,0.0
1777,58.0,0.0,90.0,5.0,0.0
1778,72.0,44.0,60.0,4.0,0.0
1779,61.0,0.0,90.0,6.0,0.0
1780,70.0,48.0,60.0,4.0,0.0
1781,73.0,28.0,60.0,4.0,0.0
1782,61.0,4.0,90.0,6.0,0.0
1783,58.0,0.0,90.0,5.0,0.0
1784,65.0,0.0,90.0,5.0,0.0
1785,70.0,48.0,60.0,4.0,0.0
1786,61.0,8.0,120.0,0.0,0.0
1787,51.0,4.0,90.0,7.0,0.0
1788,68.0,44.0,60.0,4.0,0.0
1789,70.0,0.0,180.0,1.0,0.0
1790,67.0,0.0,120.0,0.0,0.0
1791,63.0,8.0,180.0,1.0,0.0
1792,67.0,40.0,60.0,4.0,0.0
1793,58.0,0.0,90.0,6.0,0.0
1794,51.0,0.0,90.0,6.0,0.0
1795,51.0,0.0,90.0,5.0,0.0
1796,61.0,4.0,90.0,5.0,0.0
1797,65.0,36.0,60.0,4.0,0.0
1798,70.0,48.0,60.0,0.0,0.0
1799,67.0,0.0,60.0,0.0,0.0
1800,63.0,0.0,60.0,4.0,0.0
1801,63.0,0.0,90.0,1.0,0.0
1802,70.0,44.0,60.0,0.0,0.0
1803,61.0,0.0,90.0,5.0,0.0
1804,51.0,0.0,90.0,5.0,0.0
1805,55.0,0.0,90.0,7.0,0.0
1806,58.0,0.0,90.0,6.0,0.0
1807,75.0,4.0,90.0,4.0,0.0
1808,75.0,0.0,90.0,0.0,0.0
1809,51.0,0.0,90.0,6.0,0.0
1810,70.0,0.0,90.0,1.0,0.0
1811,73.0,15.0,60.0,0.0,0.0
1812,75.0,12.0,15.0,4.0,0.0
1813,68.0,0.0,90.0,1.0,0.0
1814,56.0,0.0,90.0,7.0,0.0
1815,72.0,102.0,90.0,1.0,0.0
1816,56.0,0.0,90.0,6.0,0.0
1817,75.0,0.0,90.0,0.0,0.0
1818,72.0,0.0,90.0,0.0,0.0
1819,60.0,0.0,15.0,5.0,0.0
1820,77.0,0.0,15.0,4.0,0.0
1821,61.0,12.0,15.0,5.0,0.0
1822,75.0,12.0,15.0,4.0,0.0
1823,60.0,0.0,15.0,5.0,0.0
1824,77.0,12.0,15.0,4.0,0.0
1825,61.0,0.0,15.0,5.0,0.0
1826,60.0,0.0,15.0,5.0,0.0
1827,75.0,12.0,15.0,4.0,0.0
1828,61.0,0.0,15.0,5.0,0.0
1829,77.0,12.0,15.0,4.0,0.0
1830,75.0,5.0,15.0,4.0,0.0
1831,60.0,0.0,15.0,5.0,0.0
1832,77.0,0.0,15.0,4.0,0.0
1833,61.0,0.0,15.0,5.0,0.0
1834,77.0,0.0,20.0,4.0,0.0
1835,61.0,90.0,20.0,5.0,0.0
1836,73.0,0.0,90.0,4.0,0.0
1837,58.0,0.0,90.0,5.0,0.0
1838,73.0,0.0,90.0,0.0,0.0
1839,70.0,96.0,90.0,1.0,0.0
1840,55.0,0.0,90.0,6.0,0.0
1841,73.0,0.0,90.0,1.0,0.0
1842,79.0,0.0,90.0,0.0,0.0
1843,52.0,0.0,90.0,7.0,0.0
1844,56.0,0.0,90.0,5.0,0.0
1845,53.0,0.0,90.0,7.0,0.0
1846,80.0,0.0,90.0,0.0,0.0
1847,72.0,192.0,90.0,0.0,0.0
1848,68.0,0.0,90.0,1.0,0.0
1849,56.0,0.0,90.0,6.0,0.0
1850,72.0,0.0,90.0,1.0,0.0
1851,72.0,0.0,90.0,4.0,0.0
1852,63.0,0.0,90.0,5.0,0.0
1853,60.0,37.0,90.0,6.0,0.0
1854,63.0,0.0,90.0,0.0,0.0
1855,48.0,0.0,90.0,7.0,0.0
1856,68.0,0.0,90.0,1.0,0.0
1857,75.0,0.0,90.0,0.0,0.0
1858,72.0,0.0,90.0,1.0,0.0
1859,68.0,0.0,90.0,4.0,0.0
1860,68.0,8.0,180.0,1.0,0.0
1861,73.0,0.0,90.0,0.0,0.0
1862,65.0,17.0,60.0,5.0,0.0
1863,49.0,0.0,90.0,7.0,0.0
1864,61.0,4.0,90.0,6.0,0.0
1865,70.0,0.0,90.0,1.0,0.0
1866,65.0,0.0,90.0,0.0,0.0
1867,70.0,15.0,30.0,4.0,0.0
1868,73.0,27.0,30.0,4.0,0.0
1869,61.0,1.0,60.0,5.0,0.0
1870,77.0,83.0,30.0,4.0,0.0
1871,51.0,19.0,90.0,7.0,0.0
1872,63.0,0.0,90.0,6.0,0.0
1873,68.0,0.0,90.0,4.0,0.0
1874,68.0,0.0,90.0,0.0,0.0
1875,60.0,0.0,90.0,5.0,0.0
1876,72.0,0.0,90.0,0.0,0.0
1877,72.0,0.0,90.0,1.0,0.0
1878,67.0,12.0,15.0,4.0,0.0
1879,63.0,0.0,90.0,1.0,0.0
1880,58.0,96.0,90.0,5.0,0.0
1881,61.0,0.0,90.0,6.0,0.0
1882,67.0,0.0,90.0,0.0,0.0
1883,70.0,0.0,90.0,1.0,0.0
1884,70.0,0.0,90.0,0.0,0.0
1885,39.0,0.0,90.0,7.0,0.0
1886,68.0,12.0,15.0,4.0,0.0
1887,67.0,12.0,15.0,4.0,0.0
1888,68.0,12.0,15.0,4.0,0.0
1889,67.0,12.0,15.0,4.0,0.0
1890,68.0,12.0,15.0,4.0,0.0
1891,67.0,5.0,15.0,4.0,0.0
1892,68.0,0.0,15.0,4.0,0.0
1893,60.0,0.0,90.0,1.0,0.0
1894,60.0,0.0,90.0,6.0,0.0
1895,68.0,96.0,90.0,4.0,0.0
1896,68.0,0.0,90.0,0.0,0.0
1897,44.0,0.0,90.0,7.0,0.0
1898,68.0,0.0,90.0,1.0,0.0
1899,56.0,0.0,90.0,5.0,0.0
1900,56.0,96.0,90.0,7.0,0.0
1901,63.0,96.0,90.0,4.0,0.0
1902,51.0,0.0,90.0,6.0,0.0
1903,39.0,44.0,90.0,7.0,0.0
1904,72.0,52.0,120.0,4.0,0.0
1905,63.0,4.0,90.0,6.0,0.0
1906,51.0,0.0,90.0,7.0,0.0
1907,75.0,48.0,60.0,4.0,0.0
1908,51.0,4.0,90.0,7.0,0.0
1909,63.0,0.0,90.0,6.0,0.0
1910,51.0,0.0,90.0,5.0,0.0
1911,73.0,44.0,60.0,4.0,0.0
1912,70.0,92.0,60.0,4.0,0.0
1913,51.0,44.0,90.0,6.0,0.0
1914,60.0,0.0,120.0,5.0,0.0
1915,68.0,52.0,120.0,4.0,0.0
1916,39.0,0.0,90.0,7.0,0.0
1917,51.0,0.0,90.0,7.0,0.0
1918,63.0,4.0,90.0,6.0,0.0
1919,63.0,0.0,60.0,5.0,0.0
1920,72.0,48.0,60.0,4.0,0.0
1921,63.0,0.0,90.0,6.0,0.0
1922,63.0,0.0,90.0,0.0,0.0
1923,51.0,4.0,90.0,7.0,0.0
1924,70.0,44.0,60.0,4.0,0.0
1925,61.0,0.0,60.0,5.0,0.0
1926,67.0,0.0,60.0,4.0,0.0
1927,58.0,42.0,60.0,5.0,0.0
1928,51.0,0.0,90.0,6.0,0.0
1929,72.0,8.0,180.0,0.0,0.0
1930,75.0,0.0,180.0,0.0,0.0
1931,39.0,52.0,90.0,7.0,0.0
1932,72.0,0.0,30.0,4.0,0.0
1933,56.0,50.0,30.0,5.0,0.0
1934,63.0,0.0,90.0,6.0,0.0
1935,51.0,4.0,90.0,1.0,0.0
1936,56.0,36.0,60.0,5.0,0.0
1937,72.0,0.0,60.0,4.0,0.0
1938,63.0,0.0,90.0,1.0,0.0
1939,51.0,0.0,90.0,7.0,0.0
1940,75.0,0.0,60.0,4.0,0.0
1941,60.0,48.0,60.0,5.0,0.0
1942,70.0,0.0,90.0,0.0,0.0
1943,73.0,0.0,60.0,4.0,0.0
1944,58.0,44.0,60.0,5.0,0.0
1945,63.0,0.0,90.0,6.0,0.0
1946,51.0,4.0,90.0,1.0,0.0
1947,73.0,0.0,90.0,0.0,0.0
1948,51.0,0.0,90.0,7.0,0.0
1949,63.0,0.0,90.0,1.0,0.0
1950,55.0,0.0,60.0,5.0,0.0
1951,70.0,92.0,60.0,4.0,0.0
1952,72.0,0.0,180.0,0.0,0.0
1953,53.0,16.0,270.0,1.0,0.0
1954,68.0,0.0,90.0,4.0,0.0
1955,63.0,0.0,270.0,1.0,0.0
1956,39.0,0.0,90.0,7.0,0.0
1957,51.0,0.0,90.0,6.0,0.0
1958,68.0,8.0,180.0,0.0,0.0
1959,60.0,52.0,90.0,5.0,0.0
1960,51.0,4.0,90.0,7.0,0.0
1961,63.0,0.0,90.0,6.0,0.0
1962,68.0,0.0,60.0,4.0,0.0
1963,60.0,36.0,60.0,5.0,0.0
1964,72.0,48.0,60.0,4.0,0.0
1965,63.0,0.0,60.0,5.0,0.0
1966,67.0,0.0,90.0,0.0,0.0
1967,70.0,0.0,90.0,0.0,0.0
1968,61.0,28.0,60.0,5.0,0.0
1969,51.0,4.0,90.0,7.0,0.0
1970,63.0,0.0,90.0,6.0,0.0
1971,70.0,0.0,60.0,4.0,0.0
1972,67.0,48.0,60.0,4.0,0.0
1973,58.0,0.0,60.0,5.0,0.0
1974,70.0,0.0,60.0,0.0,0.0
1975,70.0,0.0,60.0,5.0,0.0
1976,79.0,0.0,60.0,4.0,0.0
1977,79.0,48.0,60.0,0.0,0.0
1978,72.0,48.0,60.0,5.0,0.0
1979,80.0,0.0,60.0,0.0,0.0
1980,72.0,0.0,60.0,0.0,0.0
1981,80.0,0.0,60.0,4.0,0.0
1982,73.0,0.0,60.0,0.0,0.0
1983,73.0,48.0,60.0,5.0,0.0
1984,82.0,0.0,60.0,0.0,0.0
1985,82.0,0.0,60.0,4.0,0.0
1986,72.0,0.0,60.0,5.0,0.0
1987,72.0,48.0,60.0,0.0,0.0
1988,80.0,0.0,60.0,4.0,0.0
1989,80.0,0.0,60.0,0.0,0.0
1990,70.0,0.0,60.0,0.0,0.0
1991,79.0,48.0,60.0,0.0,0.0
1992,70.0,0.0,60.0,5.0,0.0
1993,79.0,0.0,60.0,4.0,0.0
1994,68.0,0.0,60.0,5.0,0.0
1995,68.0,0.0,60.0,0.0,0.0
1996,77.0,48.0,60.0,0.0,0.0
1997,77.0,0.0,60.0,4.0,0.0
1998,75.0,0.0,60.0,4.0,0.0
1999,67.0,0.0,60.0,5.0,0.0
2000,75.0,0.0,60.0,0.0,0.0
2001,67.0,48.0,60.0,0.0,0.0
2002,70.0,92.0,60.0,0.0,0.0
2003,73.0,0.0,60.0,4.0,0.0
2004,70.0,0.0,60.0,5.0,0.0
2005,73.0,0.0,60.0,0.0,0.0
2006,73.0,0.0,90.0,4.0,0.0
2007,73.0,0.0,90.0,0.0,0.0
2008,70.0,0.0,90.0,5.0,0.0
2009,63.0,0.0,90.0,6.0,0.0
2010,51.0,0.0,90.0,6.0,0.0
2011,70.0,0.0,90.0,0.0,0.0
2012,70.0,0.0,90.0,1.0,0.0
2013,63.0,0.0,90.0,1.0,0.0
2014,55.0,96.0,90.0,7.0,0.0
2015,51.0,0.0,90.0,6.0,0.0
2016,63.0,0.0,90.0,6.0,0.0
2017,68.0,0.0,90.0,5.0,0.0
2018,56.0,0.0,90.0,7.0,0.0
2019,68.0,13.0,90.0,1.0,0.0
2020,72.0,0.0,90.0,4.0,0.0
2021,72.0,0.0,90.0,1.0,0.0
2022,72.0,0.0,90.0,0.0,0.0
2023,68.0,0.0,90.0,0.0,0.0
2024,72.0,0.0,15.0,0.0,0.0
2025,65.0,0.0,90.0,5.0,0.0
2026,65.0,0.0,90.0,0.0,0.0
2027,73.0,0.0,90.0,1.0,0.0
2028,49.0,0.0,90.0,7.0,0.0
2029,72.0,83.0,15.0,4.0,0.0
2030,61.0,8.0,120.0,6.0,0.0
2031,70.0,44.0,90.0,0.0,0.0
2032,70.0,0.0,90.0,4.0,0.0
2033,65.0,0.0,60.0,0.0,0.0
2034,73.0,0.0,60.0,4.0,0.0
2035,46.0,4.0,90.0,7.0,0.0
2036,73.0,44.0,60.0,0.0,0.0
2037,70.0,0.0,90.0,1.0,0.0
2038,65.0,0.0,60.0,5.0,0.0
2039,61.0,0.0,60.0,5.0,0.0
2040,61.0,0.0,60.0,0.0,0.0
2041,70.0,0.0,60.0,4.0,0.0
2042,70.0,48.0,60.0,0.0,0.0
2043,65.0,0.0,60.0,6.0,0.0
2044,68.0,0.0,60.0,0.0,0.0
2045,60.0,0.0,60.0,0.0,0.0
2046,63.0,0.0,90.0,6.0,0.0
2047,63.0,0.0,90.0,1.0,0.0
2048,60.0,44.0,60.0,5.0,0.0
2049,68.0,0.0,60.0,4.0,0.0
2050,51.0,0.0,90.0,7.0,0.0
2051,75.0,4.0,90.0,1.0,0.0
2052,67.0,0.0,60.0,4.0,0.0
2053,58.0,23.0,60.0,0.0,0.0
2054,67.0,0.0,60.0,0.0,0.0
2055,58.0,0.0,60.0,5.0,0.0
2056,68.0,0.0,90.0,0.0,0.0
2057,60.0,0.0,90.0,0.0,0.0
2058,68.0,0.0,90.0,1.0,0.0
2059,44.0,0.0,90.0,7.0,0.0
2060,63.0,0.0,90.0,6.0,0.0
2061,68.0,48.0,20.0,4.0,0.0
2062,56.0,27.0,90.0,1.0,0.0
2063,56.0,0.0,20.0,5.0,0.0
2064,75.0,21.0,20.0,4.0,0.0
2065,60.0,0.0,20.0,5.0,0.0
2066,48.0,29.0,30.0,6.0,0.0
2067,72.0,0.0,90.0,1.0,0.0
2068,75.0,0.0,20.0,4.0,0.0
2069,60.0,19.0,20.0,5.0,0.0
2070,60.0,27.0,90.0,1.0,0.0
2071,75.0,21.0,20.0,4.0,0.0
2072,60.0,0.0,20.0,5.0,0.0
2073,68.0,0.0,90.0,1.0,0.0
2074,44.0,29.0,30.0,6.0,0.0
2075,56.0,46.0,90.0,1.0,0.0
2076,75.0,19.0,20.0,4.0,0.0
2077,60.0,0.0,20.0,5.0,0.0
2078,60.0,0.0,20.0,5.0,0.0
2079,75.0,21.0,20.0,4.0,0.0
2080,61.0,44.0,60.0,5.0,0.0
2081,39.0,4.0,90.0,7.0,0.0
2082,77.0,0.0,60.0,4.0,0.0
2083,51.0,6.0,30.0,6.0,0.0
2084,75.0,0.0,180.0,1.0,0.0
2085,63.0,8.0,180.0,1.0,0.0
2086,68.0,0.0,60.0,0.0,0.0
2087,72.0,0.0,60.0,0.0,0.0
2088,75.0,23.0,60.0,4.0,0.0
2089,60.0,0.0,60.0,5.0,0.0
2090,73.0,0.0,60.0,0.0,0.0
2091,51.0,4.0,90.0,7.0,0.0
2092,70.0,23.0,60.0,0.0,0.0
2093,73.0,25.0,20.0,4.0,0.0
2094,58.0,0.0,20.0,5.0,0.0
2095,63.0,8.0,120.0,6.0,0.0
2096,75.0,0.0,60.0,0.0,0.0
2097,72.0,40.0,60.0,0.0,0.0
2098,56.0,0.0,20.0,5.0,0.0
2099,72.0,13.0,20.0,4.0,0.0
2100,58.0,44.0,60.0,5.0,0.0
2101,51.0,4.0,90.0,7.0,0.0
2102,63.0,0.0,90.0,1.0,0.0
2103,51.0,0.0,90.0,1.0,0.0
2104,73.0,0.0,60.0,0.0,0.0
2105,73.0,0.0,60.0,4.0,0.0
2106,70.0,0.0,60.0,0.0,0.0
2107,61.0,0.0,60.0,6.0,0.0
2108,67.0,0.0,60.0,0.0,0.0
2109,70.0,0.0,60.0,0.0,0.0
2110,70.0,23.0,60.0,4.0,0.0
2111,55.0,0.0,60.0,5.0,0.0
2112,60.0,0.0,90.0,6.0,0.0
2113,68.0,0.0,90.0,0.0,0.0
2114,68.0,0.0,90.0,1.0,0.0
2115,44.0,0.0,90.0,7.0,0.0
2116,56.0,0.0,20.0,5.0,0.0
2117,68.0,48.0,20.0,4.0,0.0
2118,56.0,0.0,90.0,1.0,0.0
2119,75.0,0.0,20.0,4.0,0.0
2120,60.0,21.0,20.0,5.0,0.0
2121,48.0,29.0,30.0,6.0,0.0
2122,72.0,27.0,90.0,1.0,0.0
2123,75.0,0.0,20.0,4.0,0.0
2124,60.0,19.0,20.0,5.0,0.0
2125,60.0,0.0,90.0,1.0,0.0
2126,60.0,21.0,20.0,5.0,0.0
2127,75.0,0.0,20.0,4.0,0.0
2128,68.0,52.0,90.0,1.0,0.0
2129,56.0,0.0,90.0,1.0,0.0
2130,44.0,29.0,30.0,6.0,0.0
2131,60.0,0.0,20.0,5.0,0.0
2132,75.0,19.0,20.0,4.0,0.0
2133,75.0,0.0,20.0,4.0,0.0
2134,60.0,21.0,20.0,5.0,0.0
2135,77.0,0.0,60.0,4.0,0.0
2136,61.0,44.0,60.0,5.0,0.0
2137,63.0,8.0,180.0,1.0,0.0
2138,75.0,0.0,180.0,1.0,0.0
2139,51.0,4.0,90.0,6.0,0.0
2140,39.0,0.0,90.0,7.0,0.0
2141,60.0,0.0,60.0,5.0,0.0
2142,75.0,0.0,60.0,4.0,0.0
2143,72.0,23.0,60.0,0.0,0.0
2144,68.0,0.0,60.0,0.0,0.0
2145,70.0,23.0,60.0,0.0,0.0
2146,63.0,8.0,120.0,6.0,0.0
2147,73.0,0.0,60.0,0.0,0.0
2148,58.0,25.0,20.0,5.0,0.0
2149,51.0,4.0,90.0,7.0,0.0
2150,73.0,0.0,20.0,4.0,0.0
2151,72.0,0.0,20.0,4.0,0.0
2152,56.0,13.0,20.0,5.0,0.0
2153,72.0,0.0,60.0,0.0,0.0
2154,75.0,40.0,60.0,0.0,0.0
2155,58.0,0.0,60.0,5.0,0.0
2156,73.0,44.0,60.0,0.0,0.0
2157,51.0,4.0,90.0,1.0,0.0
2158,63.0,0.0,90.0,1.0,0.0
2159,51.0,0.0,90.0,7.0,0.0
2160,73.0,0.0,60.0,4.0,0.0
2161,70.0,0.0,60.0,0.0,0.0
2162,70.0,0.0,60.0,0.0,0.0
2163,55.0,0.0,60.0,5.0,0.0
2164,70.0,0.0,60.0,4.0,0.0
2165,61.0,0.0,60.0,6.0,0.0
2166,67.0,23.0,60.0,0.0,0.0
2167,60.0,0.0,90.0,6.0,0.0
2168,56.0,69.0,20.0,5.0,0.0
2169,68.0,0.0,20.0,4.0,0.0
2170,51.0,0.0,90.0,6.0,0.0
2171,56.0,27.0,90.0,1.0,0.0
2172,68.0,0.0,90.0,1.0,0.0
2173,68.0,0.0,90.0,0.0,0.0
2174,44.0,0.0,90.0,7.0,0.0
2175,60.0,0.0,20.0,5.0,0.0
2176,72.0,96.0,20.0,4.0,0.0
2177,61.0,96.0,20.0,5.0,0.0
2178,73.0,0.0,20.0,4.0,0.0
2179,74.0,0.0,20.0,4.0,0.0
2180,62.0,96.0,20.0,5.0,0.0
2181,75.0,96.0,20.0,4.0,0.0
2182,63.0,0.0,20.0,5.0,0.0
2183,64.0,0.0,20.0,5.0,0.0
2184,76.0,121.0,20.0,4.0,0.0
2185,65.0,4.0,90.0,5.0,0.0
2186,77.0,0.0,90.0,4.0,0.0
2187,77.0,44.0,60.0,2.0,0.0
2188,72.0,0.0,60.0,2.0,0.0
2189,68.0,0.0,60.0,3.0,0.0
2190,65.0,48.0,60.0,3.0,0.0
2191,72.0,12.0,180.0,2.0,0.0
2192,68.0,48.0,60.0,3.0,0.0
2193,65.0,0.0,60.0,3.0,0.0
2194,68.0,0.0,60.0,3.0,0.0
2195,65.0,48.0,60.0,3.0,0.0
2196,65.0,36.0,60.0,3.0,0.0
2197,68.0,0.0,60.0,3.0,0.0
2198,68.0,0.0,60.0,3.0,0.0
2199,65.0,15.0,60.0,3.0,0.0
2200,73.0,12.0,15.0,2.0,0.0
2201,75.0,21.0,15.0,2.0,0.0
2202,73.0,48.0,20.0,2.0,0.0
2203,72.0,48.0,60.0,2.0,0.0
2204,64.0,0.0,60.0,3.0,0.0
2205,67.0,0.0,60.0,3.0,0.0
2206,72.0,44.0,240.0,2.0,0.0
2207,67.0,48.0,60.0,3.0,0.0
2208,64.0,0.0,60.0,3.0,0.0
2209,67.0,48.0,60.0,3.0,0.0
2210,64.0,0.0,60.0,3.0,0.0
2211,64.0,0.0,60.0,3.0,0.0
2212,67.0,48.0,60.0,3.0,0.0
2213,67.0,0.0,60.0,3.0,0.0
2214,64.0,48.0,60.0,3.0,0.0
2215,65.0,48.0,90.0,3.0,0.0
2216,80.0,48.0,90.0,2.0,0.0
2217,63.0,48.0,90.0,3.0,0.0
2218,79.0,48.0,90.0,2.0,0.0
2219,61.0,52.0,90.0,3.0,0.0
2220,77.0,44.0,90.0,2.0,0.0
2221,60.0,48.0,90.0,3.0,0.0
2222,76.0,48.0,90.0,2.0,0.0
2223,58.0,4.0,90.0,3.0,0.0
2224,77.0,48.0,60.0,2.0,0.0
2225,73.0,44.0,60.0,2.0,0.0
2226,56.0,4.0,90.0,3.0,0.0
2227,72.0,63.0,60.0,2.0,0.0
2228,55.0,6.0,90.0,3.0,0.0
2229,70.0,12.0,15.0,2.0,0.0
2230,72.0,17.0,15.0,2.0,0.0
2231,73.0,46.0,20.0,2.0,0.0
2232,72.0,48.0,60.0,2.0,0.0
2233,70.0,48.0,60.0,2.0,0.0
2234,68.0,48.0,60.0,2.0,0.0
2235,67.0,63.0,60.0,2.0,0.0
2236,65.0,6.0,90.0,2.0,0.0
2237,58.0,12.0,15.0,3.0,0.0
2238,60.0,17.0,15.0,3.0,0.0
2239,61.0,46.0,20.0,3.0,0.0
2240,60.0,44.0,60.0,3.0,0.0
2241,64.0,4.0,90.0,2.0,0.0
2242,58.0,48.0,60.0,3.0,0.0
2243,56.0,44.0,60.0,3.0,0.0
2244,76.0,4.0,90.0,2.0,0.0
2245,55.0,48.0,60.0,3.0,0.0
2246,56.0,48.0,90.0,3.0,0.0
2247,77.0,44.0,60.0,2.0,0.0
2248,72.0,48.0,90.0,2.0,0.0
2249,64.0,48.0,90.0,3.0,0.0
2250,70.0,48.0,90.0,2.0,0.0
2251,65.0,52.0,90.0,3.0,0.0
2252,68.0,48.0,90.0,2.0,0.0
2253,65.0,0.0,180.0,3.0,0.0
2254,60.0,12.0,180.0,3.0,0.0
2255,70.0,48.0,60.0,2.0,0.0
2256,71.0,36.0,60.0,2.0,0.0
2257,72.0,92.0,60.0,2.0,0.0
2258,67.0,0.0,90.0,2.0,0.0
2259,64.0,52.0,90.0,3.0,0.0
2260,65.0,0.0,60.0,2.0,0.0
2261,77.0,48.0,60.0,0.0,0.0
2262,56.0,48.0,60.0,3.0,0.0
2263,72.0,0.0,60.0,0.0,0.0
2264,60.0,0.0,60.0,2.0,0.0
2265,53.0,0.0,60.0,3.0,0.0
2266,72.0,0.0,180.0,0.0,0.0
2267,60.0,12.0,180.0,2.0,0.0
2268,53.0,0.0,60.0,3.0,0.0
2269,56.0,48.0,60.0,3.0,0.0
2270,53.0,0.0,60.0,3.0,0.0
2271,56.0,48.0,60.0,3.0,0.0
2272,53.0,0.0,60.0,3.0,0.0
2273,56.0,36.0,60.0,3.0,0.0
2274,56.0,15.0,60.0,3.0,0.0
2275,53.0,0.0,60.0,3.0,0.0
2276,53.0,4.0,90.0,7.0,0.0
2277,73.0,12.0,15.0,0.0,0.0
2278,61.0,0.0,15.0,2.0,0.0
2279,63.0,12.0,15.0,2.0,0.0
2280,75.0,0.0,15.0,0.0,0.0
2281,73.0,3.0,20.0,0.0,0.0
2282,61.0,9.0,15.0,2.0,0.0
2283,63.0,41.0,15.0,2.0,0.0
2284,72.0,0.0,60.0,0.0,0.0
2285,53.0,0.0,60.0,6.0,0.0
2286,52.0,0.0,60.0,3.0,0.0
2287,55.0,0.0,60.0,3.0,0.0
2288,53.0,0.0,60.0,5.0,0.0
2289,56.0,48.0,60.0,4.0,0.0
2290,60.0,0.0,60.0,2.0,0.0
2291,52.0,0.0,60.0,3.0,0.0
2292,60.0,44.0,240.0,2.0,0.0
2293,72.0,0.0,240.0,0.0,0.0
2294,56.0,0.0,60.0,4.0,0.0
2295,53.0,0.0,60.0,6.0,0.0
2296,53.0,48.0,60.0,5.0,0.0
2297,55.0,0.0,60.0,3.0,0.0
2298,53.0,0.0,60.0,6.0,0.0
2299,56.0,48.0,60.0,4.0,0.0
2300,53.0,0.0,60.0,5.0,0.0
2301,52.0,0.0,60.0,3.0,0.0
2302,55.0,0.0,60.0,3.0,0.0
2303,55.0,0.0,60.0,3.0,0.0
2304,53.0,0.0,60.0,6.0,0.0
2305,56.0,48.0,60.0,4.0,0.0
2306,52.0,0.0,60.0,3.0,0.0
2307,53.0,0.0,60.0,5.0,0.0
2308,55.0,0.0,60.0,3.0,0.0
2309,56.0,0.0,60.0,4.0,0.0
2310,52.0,0.0,60.0,3.0,0.0
2311,53.0,0.0,60.0,5.0,0.0
2312,53.0,48.0,60.0,6.0,0.0
2313,53.0,4.0,90.0,3.0,0.0
2314,52.0,0.0,90.0,7.0,0.0
2315,80.0,0.0,90.0,0.0,0.0
2316,68.0,4.0,90.0,2.0,0.0
2317,58.0,0.0,60.0,4.0,0.0
2318,55.0,44.0,60.0,5.0,0.0
2319,52.0,0.0,60.0,6.0,0.0
2320,55.0,0.0,60.0,5.0,0.0
2321,58.0,0.0,60.0,4.0,0.0
2322,51.0,4.0,90.0,3.0,0.0
2323,52.0,44.0,60.0,6.0,0.0
2324,67.0,4.0,90.0,2.0,0.0
2325,58.0,44.0,60.0,4.0,0.0
2326,79.0,0.0,90.0,0.0,0.0
2327,52.0,0.0,60.0,6.0,0.0
2328,55.0,0.0,60.0,5.0,0.0
2329,49.0,4.0,90.0,3.0,0.0
2330,52.0,0.0,60.0,6.0,0.0
2331,55.0,44.0,60.0,5.0,0.0
2332,58.0,0.0,60.0,4.0,0.0
2333,58.0,0.0,60.0,4.0,0.0
2334,55.0,48.0,60.0,5.0,0.0
2335,52.0,0.0,60.0,6.0,0.0
2336,77.0,0.0,90.0,0.0,0.0
2337,65.0,44.0,90.0,2.0,0.0
2338,48.0,48.0,90.0,3.0,0.0
2339,53.0,0.0,90.0,6.0,0.0
2340,56.0,0.0,90.0,4.0,0.0
2341,53.0,0.0,90.0,5.0,0.0
2342,76.0,0.0,90.0,0.0,0.0
2343,64.0,48.0,90.0,2.0,0.0
2344,46.0,4.0,90.0,3.0,0.0
2345,77.0,48.0,60.0,0.0,0.0
2346,65.0,0.0,60.0,2.0,0.0
2347,61.0,44.0,60.0,2.0,0.0
2348,73.0,0.0,60.0,0.0,0.0
2349,44.0,4.0,90.0,3.0,0.0
2350,60.0,0.0,60.0,2.0,0.0
2351,72.0,63.0,60.0,0.0,0.0
2352,43.0,12.0,180.0,3.0,0.0
2353,58.0,12.0,15.0,2.0,0.0
2354,60.0,23.0,15.0,2.0,0.0
2355,61.0,46.0,20.0,2.0,0.0
2356,60.0,36.0,60.0,2.0,0.0
2357,58.0,48.0,60.0,2.0,0.0
2358,56.0,48.0,60.0,2.0,0.0
2359,55.0,48.0,60.0,2.0,0.0
2360,53.0,15.0,60.0,2.0,0.0
2361,46.0,12.0,15.0,3.0,0.0
2362,52.0,2.0,60.0,2.0,0.0
2363,48.0,21.0,15.0,3.0,0.0
2364,49.0,46.0,20.0,3.0,0.0
2365,64.0,12.0,180.0,2.0,0.0
2366,48.0,48.0,60.0,3.0,0.0
2367,46.0,48.0,60.0,3.0,0.0
2368,44.0,36.0,60.0,3.0,0.0
2369,43.0,26.0,60.0,3.0,0.0
2370,44.0,14.0,180.0,3.0,0.0
2371,56.0,0.0,90.0,6.0,0.0
2372,60.0,0.0,90.0,5.0,0.0
2373,65.0,6.0,90.0,4.0,0.0
2374,44.0,0.0,90.0,7.0,0.0
2375,65.0,24.0,20.0,2.0,0.0
2376,67.0,24.0,20.0,2.0,0.0
2377,65.0,18.0,20.0,2.0,0.0
2378,64.0,24.0,20.0,2.0,0.0
2379,65.0,24.0,20.0,2.0,0.0
2380,67.0,24.0,20.0,2.0,0.0
2381,68.0,10.0,20.0,2.0,0.0
2382,70.0,24.0,20.0,2.0,0.0
2383,72.0,24.0,20.0,2.0,0.0
2384,74.0,24.0,20.0,2.0,0.0
2385,76.0,24.0,20.0,2.0,0.0
2386,77.0,24.0,20.0,2.0,0.0
2387,75.0,24.0,20.0,2.0,0.0
2388,65.0,0.0,90.0,4.0,0.0
2389,46.0,14.0,180.0,3.0,0.0
2390,46.0,6.0,90.0,7.0,0.0
2391,58.0,0.0,90.0,6.0,0.0
2392,61.0,0.0,90.0,5.0,0.0
2393,73.0,24.0,20.0,2.0,0.0
2394,72.0,18.0,20.0,2.0,0.0
2395,73.0,24.0,20.0,2.0,0.0
2396,72.0,24.0,20.0,2.0,0.0
2397,70.0,24.0,20.0,2.0,0.0
2398,69.0,10.0,20.0,2.0,0.0
2399,70.0,24.0,20.0,2.0,0.0
2400,68.0,24.0,20.0,2.0,0.0
2401,67.0,24.0,20.0,2.0,0.0
2402,66.0,24.0,20.0,2.0,0.0
2403,67.0,24.0,20.0,2.0,0.0
2404,72.0,13.0,20.0,2.0,0.0
2405,56.0,5.0,60.0,3.0,0.0
2406,73.0,12.0,15.0,2.0,0.0
2407,72.0,12.0,15.0,2.0,0.0
2408,70.0,7.0,15.0,2.0,0.0
2409,72.0,23.0,15.0,2.0,0.0
2410,73.0,0.0,20.0,2.0,0.0
2411,58.0,90.0,20.0,3.0,0.0
2412,65.0,19.0,90.0,4.0,0.0
2413,65.0,0.0,90.0,2.0,0.0
2414,56.0,0.0,90.0,6.0,0.0
2415,60.0,0.0,90.0,3.0,0.0
2416,60.0,0.0,90.0,5.0,0.0
2417,60.0,0.0,90.0,7.0,0.0
2418,55.0,0.0,90.0,6.0,0.0
2419,48.0,0.0,90.0,7.0,0.0
2420,64.0,6.0,90.0,4.0,0.0
2421,48.0,0.0,90.0,3.0,0.0
2422,64.0,12.0,15.0,2.0,0.0
2423,58.0,0.0,90.0,5.0,0.0
2424,65.0,12.0,15.0,2.0,0.0
2425,64.0,12.0,15.0,2.0,0.0
2426,65.0,23.0,15.0,2.0,0.0
2427,62.0,18.0,20.0,2.0,0.0
2428,64.0,40.0,20.0,2.0,0.0
2429,53.0,54.0,30.0,6.0,0.0
2430,53.0,0.0,30.0,7.0,0.0
2431,56.0,0.0,30.0,5.0,0.0
2432,53.0,12.0,180.0,3.0,0.0
2433,65.0,0.0,30.0,4.0,0.0
2434,65.0,48.0,60.0,2.0,0.0
2435,67.0,36.0,60.0,2.0,0.0
2436,68.0,48.0,60.0,2.0,0.0
2437,69.0,48.0,60.0,2.0,0.0
2438,70.0,96.0,60.0,2.0,0.0
2439,49.0,0.0,270.0,3.0,0.0
2440,65.0,0.0,270.0,5.0,0.0
2441,53.0,22.0,270.0,6.0,0.0
2442,49.0,0.0,270.0,7.0,0.0
2443,71.0,0.0,270.0,4.0,0.0
2444,65.0,48.0,60.0,2.0,0.0
2445,65.0,48.0,60.0,2.0,0.0
2446,67.0,26.0,60.0,2.0,0.0
2447,70.0,24.0,20.0,2.0,0.0
2448,68.0,24.0,20.0,2.0,0.0
2449,67.0,2.0,20.0,2.0,0.0
2450,65.0,69.0,20.0,2.0,0.0
2451,55.0,0.0,90.0,6.0,0.0
2452,72.0,0.0,180.0,2.0,0.0
2453,64.0,12.0,180.0,2.0,0.0
2454,48.0,52.0,90.0,7.0,0.0
2455,73.0,0.0,90.0,4.0,0.0
2456,64.0,0.0,90.0,5.0,0.0
2457,48.0,21.0,20.0,3.0,0.0
2458,48.0,36.0,60.0,3.0,0.0
2459,50.0,48.0,60.0,3.0,0.0
2460,52.0,48.0,60.0,3.0,0.0
2461,53.0,96.0,60.0,3.0,0.0
2462,70.0,45.0,300.0,4.0,0.0
2463,55.0,22.0,270.0,3.0,0.0
2464,55.0,0.0,270.0,7.0,0.0
2465,58.0,0.0,270.0,6.0,0.0
2466,64.0,0.0,270.0,5.0,0.0
2467,70.0,48.0,60.0,2.0,0.0
2468,70.0,48.0,60.0,2.0,0.0
2469,72.0,26.0,60.0,2.0,0.0
2470,75.0,24.0,20.0,2.0,0.0
2471,73.0,24.0,20.0,2.0,0.0
2472,72.0,2.0,20.0,2.0,0.0
2473,70.0,1.0,20.0,2.0,0.0
2474,53.0,0.0,90.0,7.0,0.0
2475,65.0,4.0,90.0,5.0,0.0
2476,53.0,12.0,180.0,3.0,0.0
2477,68.0,0.0,90.0,4.0,0.0
2478,60.0,0.0,90.0,6.0,0.0
2479,68.0,44.0,60.0,2.0,0.0
2480,65.0,0.0,60.0,2.0,0.0
2481,77.0,48.0,60.0,2.0,0.0
2482,76.0,36.0,60.0,2.0,0.0
2483,75.0,48.0,60.0,2.0,0.0
2484,74.0,48.0,60.0,2.0,0.0
2485,73.0,48.0,60.0,2.0,0.0
2486,72.0,48.0,60.0,2.0,0.0
2487,71.0,92.0,60.0,2.0,0.0
2488,77.0,0.0,90.0,2.0,0.0
2489,49.0,0.0,90.0,3.0,0.0
2490,71.0,0.0,90.0,2.0,0.0
2491,56.0,96.0,90.0,3.0,0.0
2492,65.0,0.0,90.0,2.0,0.0
2493,53.0,0.0,90.0,3.0,0.0
2494,71.0,75.0,90.0,2.0,0.0
2495,49.0,0.0,90.0,3.0,0.0
2496,48.0,0.0,180.0,3.0,0.0
2497,52.0,0.0,180.0,3.0,0.0
2498,72.0,0.0,180.0,2.0,0.0
2499,67.0,0.0,180.0,2.0,0.0
2500,55.0,0.0,180.0,3.0,0.0
2501,64.0,35.0,180.0,2.0,0.0
2502,72.0,0.0,20.0,4.0,0.0
2503,60.0,0.0,20.0,6.0,0.0
2504,72.0,0.0,20.0,5.0,0.0
2505,60.0,48.0,20.0,7.0,0.0
2506,72.0,0.0,20.0,4.0,0.0
2507,72.0,0.0,20.0,5.0,0.0
2508,60.0,0.0,20.0,7.0,0.0
2509,60.0,48.0,20.0,6.0,0.0
2510,60.0,0.0,20.0,7.0,0.0
2511,72.0,0.0,20.0,5.0,0.0
2512,72.0,0.0,20.0,4.0,0.0
2513,60.0,13.0,20.0,6.0,0.0
2514,60.0,48.0,20.0,6.0,0.0
2515,60.0,0.0,20.0,7.0,0.0
2516,72.0,0.0,20.0,5.0,0.0
2517,72.0,0.0,20.0,4.0,0.0
2518,60.0,0.0,20.0,7.0,0.0
2519,72.0,0.0,20.0,4.0,0.0
2520,72.0,0.0,20.0,5.0,0.0
2521,60.0,73.0,20.0,6.0,0.0
2522,61.0,0.0,60.0,6.0,0.0
2523,61.0,48.0,60.0,7.0,0.0
2524,73.0,0.0,60.0,5.0,0.0
2525,73.0,0.0,60.0,4.0,0.0
2526,72.0,0.0,60.0,5.0,0.0
2527,60.0,0.0,60.0,7.0,0.0
2528,60.0,0.0,60.0,6.0,0.0
2529,72.0,23.0,60.0,4.0,0.0
2530,70.0,48.0,20.0,4.0,0.0
2531,58.0,0.0,20.0,6.0,0.0
2532,70.0,0.0,20.0,5.0,0.0
2533,58.0,0.0,20.0,7.0,0.0
2534,68.0,0.0,20.0,5.0,0.0
2535,56.0,48.0,20.0,7.0,0.0
2536,56.0,0.0,20.0,6.0,0.0
2537,68.0,0.0,20.0,4.0,0.0
2538,55.0,0.0,20.0,7.0,0.0
2539,67.0,0.0,20.0,5.0,0.0
2540,55.0,48.0,20.0,6.0,0.0
2541,67.0,0.0,20.0,4.0,0.0
2542,65.0,0.0,20.0,4.0,0.0
2543,53.0,0.0,20.0,6.0,0.0
2544,53.0,0.0,20.0,7.0,0.0
2545,65.0,34.0,20.0,5.0,0.0
2546,71.0,0.0,15.0,5.0,0.0
2547,59.0,0.0,15.0,6.0,0.0
2548,59.0,0.0,15.0,7.0,0.0
2549,71.0,33.0,15.0,4.0,0.0
2550,72.0,96.0,30.0,5.0,0.0
2551,60.0,0.0,30.0,7.0,0.0
2552,60.0,0.0,30.0,6.0,0.0
2553,72.0,0.0,30.0,4.0,0.0
2554,60.0,0.0,30.0,4.0,0.0
2555,60.0,0.0,30.0,5.0,0.0
2556,48.0,159.0,30.0,6.0,0.0
2557,48.0,0.0,30.0,7.0,0.0
2558,67.0,17.0,15.0,2.0,0.0
2559,60.0,24.0,20.0,3.0,0.0
2560,79.0,14.0,180.0,2.0,0.0
2561,67.0,24.0,20.0,3.0,0.0
2562,63.0,24.0,20.0,3.0,0.0
2563,67.0,24.0,20.0,3.0,0.0
2564,60.0,24.0,20.0,3.0,0.0
2565,67.0,24.0,20.0,3.0,0.0
2566,63.0,10.0,20.0,3.0,0.0
2567,67.0,24.0,20.0,3.0,0.0
2568,60.0,24.0,20.0,3.0,0.0
2569,77.0,0.0,20.0,2.0,0.0
2570,67.0,0.0,20.0,3.0,0.0
2571,75.0,24.0,20.0,2.0,0.0
2572,74.0,0.0,20.0,2.0,0.0
2573,63.0,24.0,20.0,3.0,0.0
2574,72.0,24.0,20.0,2.0,0.0
2575,67.0,0.0,20.0,3.0,0.0
2576,59.0,24.0,20.0,3.0,0.0
2577,80.0,6.0,90.0,2.0,0.0
2578,65.0,24.0,20.0,3.0,0.0
2579,62.0,0.0,90.0,6.0,0.0
2580,59.0,0.0,90.0,7.0,0.0
2581,77.0,6.0,90.0,5.0,0.0
2582,62.0,18.0,20.0,3.0,0.0
2583,80.0,0.0,90.0,4.0,0.0
2584,65.0,24.0,20.0,3.0,0.0
2585,59.0,18.0,20.0,3.0,0.0
2586,80.0,12.0,180.0,2.0,0.0
2587,65.0,24.0,20.0,3.0,0.0
2588,59.0,0.0,90.0,7.0,0.0
2589,62.0,24.0,20.0,3.0,0.0
2590,80.0,0.0,90.0,4.0,0.0
2591,77.0,6.0,90.0,5.0,0.0
2592,62.0,0.0,90.0,6.0,0.0
2593,65.0,24.0,20.0,3.0,0.0
2594,59.0,18.0,20.0,3.0,0.0
2595,65.0,24.0,20.0,3.0,0.0
2596,59.0,0.0,60.0,7.0,0.0
2597,62.0,10.0,20.0,3.0,0.0
2598,80.0,0.0,60.0,4.0,0.0
2599,77.0,2.0,60.0,5.0,0.0
2600,62.0,0.0,60.0,6.0,0.0
2601,65.0,24.0,20.0,3.0,0.0
2602,75.0,6.0,90.0,5.0,0.0
2603,60.0,0.0,90.0,7.0,0.0
2604,63.0,0.0,90.0,6.0,0.0
2605,60.0,24.0,20.0,3.0,0.0
2606,79.0,10.0,120.0,2.0,0.0
2607,79.0,0.0,90.0,4.0,0.0
2608,63.0,24.0,20.0,3.0,0.0
2609,62.0,18.0,20.0,3.0,0.0
2610,63.0,24.0,20.0,3.0,0.0
2611,60.0,14.0,20.0,3.0,0.0
2612,63.0,24.0,20.0,3.0,0.0
2613,80.0,0.0,20.0,2.0,0.0
2614,62.0,24.0,20.0,3.0,0.0
2615,63.0,0.0,20.0,3.0,0.0
2616,79.0,24.0,20.0,2.0,0.0
2617,77.0,0.0,20.0,2.0,0.0
2618,60.0,24.0,20.0,3.0,0.0
2619,75.0,0.0,20.0,2.0,0.0
2620,63.0,24.0,20.0,3.0,0.0
2621,74.0,24.0,20.0,2.0,0.0
2622,62.0,0.0,20.0,3.0,0.0
2623,72.0,0.0,20.0,2.0,0.0
2624,63.0,24.0,20.0,3.0,0.0
2625,62.0,24.0,20.0,3.0,0.0
2626,71.0,6.0,90.0,2.0,0.0
2627,68.0,24.0,20.0,3.0,0.0
2628,65.0,18.0,20.0,3.0,0.0
2629,68.0,0.0,90.0,5.0,0.0
2630,71.0,0.0,90.0,4.0,0.0
2631,62.0,6.0,90.0,7.0,0.0
2632,65.0,0.0,90.0,6.0,0.0
2633,68.0,24.0,20.0,3.0,0.0
2634,71.0,12.0,180.0,2.0,0.0
2635,62.0,18.0,20.0,3.0,0.0
2636,68.0,24.0,20.0,3.0,0.0
2637,71.0,0.0,90.0,4.0,0.0
2638,68.0,6.0,90.0,5.0,0.0
2639,62.0,0.0,90.0,7.0,0.0
2640,65.0,0.0,90.0,6.0,0.0
2641,65.0,24.0,20.0,3.0,0.0
2642,68.0,24.0,20.0,3.0,0.0
2643,62.0,18.0,20.0,3.0,0.0
2644,68.0,24.0,20.0,3.0,0.0
2645,65.0,10.0,20.0,3.0,0.0
2646,65.0,0.0,60.0,6.0,0.0
2647,68.0,2.0,60.0,5.0,0.0
2648,62.0,0.0,60.0,7.0,0.0
2649,71.0,0.0,60.0,4.0,0.0
2650,68.0,24.0,20.0,3.0,0.0
2651,63.0,0.0,90.0,6.0,0.0
2652,63.0,6.0,90.0,7.0,0.0
2653,63.0,14.0,180.0,3.0,0.0
2654,72.0,24.0,20.0,2.0,0.0
2655,72.0,0.0,90.0,4.0,0.0
2656,67.0,0.0,90.0,5.0,0.0
2657,67.0,0.0,180.0,3.0,0.0
2658,74.0,24.0,20.0,2.0,0.0
2659,72.0,18.0,20.0,2.0,0.0
2660,71.0,24.0,20.0,2.0,0.0
2661,72.0,24.0,20.0,2.0,0.0
2662,74.0,24.0,20.0,2.0,0.0
2663,75.0,10.0,20.0,2.0,0.0
2664,77.0,46.0,20.0,2.0,0.0
2665,79.0,37.0,60.0,2.0,0.0
2666,75.0,37.0,15.0,2.0,0.0
2667,68.0,0.0,180.0,3.0,0.0
2668,65.0,14.0,180.0,3.0,0.0
2669,74.0,24.0,20.0,2.0,0.0
2670,75.0,24.0,20.0,2.0,0.0
2671,74.0,24.0,20.0,2.0,0.0
2672,72.0,24.0,20.0,2.0,0.0
2673,74.0,24.0,20.0,2.0,0.0
2674,75.0,24.0,20.0,2.0,0.0
2675,77.0,10.0,20.0,2.0,0.0
2676,79.0,46.0,20.0,2.0,0.0
2677,80.0,37.0,60.0,2.0,0.0
2678,77.0,81.0,15.0,2.0,0.0
2679,75.0,28.0,60.0,2.0,0.0
2680,79.0,90.0,20.0,2.0,0.0
2681,72.0,96.0,90.0,2.0,0.0
2682,55.0,0.0,90.0,3.0,0.0
2683,63.0,0.0,90.0,3.0,0.0
2684,62.0,30.0,90.0,3.0,0.0
2685,71.0,0.0,90.0,2.0,0.0
2686,53.0,0.0,90.0,3.0,0.0
2687,72.0,24.0,20.0,2.0,0.0
2688,60.0,0.0,180.0,3.0,0.0
2689,51.0,8.0,180.0,3.0,0.0
2690,67.0,6.0,90.0,5.0,0.0
2691,79.0,0.0,90.0,4.0,0.0
2692,60.0,0.0,90.0,6.0,0.0
2693,51.0,0.0,90.0,7.0,0.0
2694,74.0,24.0,20.0,2.0,0.0
2695,72.0,18.0,20.0,2.0,0.0
2696,71.0,24.0,20.0,2.0,0.0
2697,75.0,0.0,90.0,4.0,0.0
2698,63.0,6.0,90.0,5.0,0.0
2699,72.0,24.0,20.0,2.0,0.0
2700,74.0,24.0,20.0,2.0,0.0
2701,75.0,10.0,20.0,2.0,0.0
2702,77.0,46.0,20.0,2.0,0.0
2703,72.0,37.0,60.0,4.0,0.0
2704,60.0,0.0,60.0,5.0,0.0
2705,79.0,0.0,60.0,2.0,0.0
2706,75.0,37.0,15.0,2.0,0.0
2707,60.0,0.0,180.0,3.0,0.0
2708,74.0,24.0,20.0,2.0,0.0
2709,60.0,0.0,90.0,6.0,0.0
2710,56.0,8.0,180.0,3.0,0.0
2711,53.0,0.0,180.0,3.0,0.0
2712,68.0,0.0,90.0,5.0,0.0
2713,80.0,0.0,90.0,4.0,0.0
2714,53.0,6.0,90.0,7.0,0.0
2715,75.0,24.0,20.0,2.0,0.0
2716,74.0,18.0,20.0,2.0,0.0
2717,72.0,24.0,20.0,2.0,0.0
2718,74.0,24.0,20.0,2.0,0.0
2719,65.0,0.0,90.0,5.0,0.0
2720,77.0,6.0,90.0,4.0,0.0
2721,75.0,24.0,20.0,2.0,0.0
2722,77.0,10.0,20.0,2.0,0.0
2723,79.0,46.0,20.0,2.0,0.0
2724,80.0,37.0,60.0,2.0,0.0
2725,62.0,0.0,60.0,5.0,0.0
2726,74.0,0.0,60.0,4.0,0.0
2727,77.0,81.0,15.0,2.0,0.0
2728,75.0,28.0,60.0,2.0,0.0
2729,79.0,90.0,20.0,2.0,0.0
2730,72.0,0.0,90.0,2.0,0.0
2731,72.0,96.0,90.0,4.0,0.0
2732,63.0,0.0,90.0,5.0,0.0
2733,63.0,0.0,90.0,3.0,0.0
2734,55.0,0.0,90.0,6.0,0.0
2735,55.0,0.0,90.0,7.0,0.0
2736,71.0,96.0,90.0,4.0,0.0
2737,43.0,0.0,90.0,7.0,0.0
2738,62.0,0.0,90.0,5.0,0.0
2739,59.0,0.0,90.0,3.0,0.0
2740,55.0,0.0,90.0,6.0,0.0
2741,71.0,0.0,90.0,2.0,0.0
2742,72.0,0.0,90.0,4.0,0.0
2743,48.0,0.0,90.0,3.0,0.0
2744,48.0,0.0,90.0,7.0,0.0
2745,72.0,0.0,90.0,2.0,0.0
2746,60.0,0.0,90.0,5.0,0.0
2747,55.0,0.0,90.0,6.0,0.0
2748,60.0,19.0,90.0,3.0,0.0
2749,60.0,23.0,15.0,2.0,0.0
2750,72.0,73.0,20.0,2.0,0.0
2751,61.0,23.0,15.0,2.0,0.0
2752,73.0,73.0,20.0,2.0,0.0
2753,62.0,23.0,15.0,2.0,0.0
2754,74.0,73.0,20.0,2.0,0.0
2755,63.0,23.0,15.0,2.0,0.0
2756,75.0,73.0,20.0,2.0,0.0
2757,64.0,23.0,15.0,2.0,0.0
2758,76.0,106.0,20.0,2.0,0.0
2759,77.0,48.0,60.0,2.0,0.0
2760,72.0,48.0,60.0,2.0,0.0
2761,65.0,0.0,60.0,3.0,0.0
2762,68.0,0.0,60.0,3.0,0.0
2763,72.0,12.0,180.0,2.0,0.0
2764,65.0,0.0,60.0,3.0,0.0
2765,68.0,48.0,60.0,3.0,0.0
2766,68.0,48.0,60.0,3.0,0.0
2767,65.0,0.0,60.0,3.0,0.0
2768,68.0,0.0,60.0,3.0,0.0
2769,65.0,36.0,60.0,3.0,0.0
2770,68.0,15.0,60.0,3.0,0.0
2771,65.0,0.0,60.0,3.0,0.0
2772,73.0,12.0,15.0,2.0,0.0
2773,75.0,21.0,15.0,2.0,0.0
2774,73.0,48.0,20.0,2.0,0.0
2775,64.0,0.0,60.0,3.0,0.0
2776,72.0,0.0,60.0,2.0,0.0
2777,67.0,48.0,60.0,3.0,0.0
2778,64.0,48.0,60.0,3.0,0.0
2779,67.0,0.0,60.0,3.0,0.0
2780,72.0,44.0,240.0,2.0,0.0
2781,64.0,0.0,60.0,3.0,0.0
2782,67.0,48.0,60.0,3.0,0.0
2783,64.0,0.0,60.0,3.0,0.0
2784,67.0,48.0,60.0,3.0,0.0
2785,64.0,48.0,60.0,3.0,0.0
2786,67.0,0.0,60.0,3.0,0.0
2787,65.0,48.0,90.0,3.0,0.0
2788,80.0,48.0,90.0,2.0,0.0
2789,63.0,48.0,90.0,3.0,0.0
2790,79.0,48.0,90.0,2.0,0.0
2791,61.0,52.0,90.0,3.0,0.0
2792,77.0,44.0,90.0,2.0,0.0
2793,60.0,48.0,90.0,3.0,0.0
2794,76.0,48.0,90.0,2.0,0.0
2795,58.0,4.0,90.0,3.0,0.0
2796,77.0,48.0,60.0,2.0,0.0
2797,56.0,4.0,90.0,3.0,0.0
2798,73.0,44.0,60.0,2.0,0.0
2799,72.0,63.0,60.0,2.0,0.0
2800,55.0,6.0,90.0,3.0,0.0
2801,70.0,12.0,15.0,2.0,0.0
2802,72.0,17.0,15.0,2.0,0.0
2803,73.0,46.0,20.0,2.0,0.0
2804,72.0,48.0,60.0,2.0,0.0
2805,70.0,48.0,60.0,2.0,0.0
2806,68.0,48.0,60.0,2.0,0.0
2807,67.0,48.0,60.0,2.0,0.0
2808,65.0,15.0,60.0,2.0,0.0
2809,64.0,2.0,60.0,2.0,0.0
2810,58.0,12.0,15.0,3.0,0.0
2811,60.0,21.0,15.0,3.0,0.0
2812,61.0,46.0,20.0,3.0,0.0
2813,60.0,48.0,60.0,3.0,0.0
2814,76.0,12.0,180.0,2.0,0.0
2815,58.0,48.0,60.0,3.0,0.0
2816,56.0,36.0,60.0,3.0,0.0
2817,55.0,48.0,60.0,3.0,0.0
2818,56.0,48.0,90.0,3.0,0.0
2819,77.0,44.0,60.0,2.0,0.0
2820,72.0,48.0,90.0,2.0,0.0
2821,64.0,48.0,90.0,3.0,0.0
2822,70.0,48.0,90.0,2.0,0.0
2823,65.0,52.0,90.0,3.0,0.0
2824,68.0,48.0,90.0,2.0,0.0
2825,65.0,12.0,180.0,3.0,0.0
2826,70.0,48.0,60.0,2.0,0.0
2827,71.0,36.0,60.0,2.0,0.0
2828,72.0,92.0,60.0,2.0,0.0
2829,67.0,0.0,90.0,2.0,0.0
2830,64.0,52.0,90.0,3.0,0.0
2831,53.0,4.0,90.0,7.0,0.0
2832,77.0,0.0,60.0,0.0,0.0
2833,65.0,44.0,60.0,2.0,0.0
2834,53.0,0.0,60.0,6.0,0.0
2835,72.0,48.0,60.0,0.0,0.0
2836,60.0,0.0,60.0,2.0,0.0
2837,56.0,0.0,60.0,3.0,0.0
2838,53.0,0.0,60.0,5.0,0.0
2839,53.0,0.0,60.0,3.0,0.0
2840,56.0,0.0,60.0,4.0,0.0
2841,72.0,12.0,180.0,0.0,0.0
2842,60.0,0.0,180.0,2.0,0.0
2843,53.0,0.0,60.0,3.0,0.0
2844,56.0,0.0,60.0,3.0,0.0
2845,53.0,48.0,60.0,5.0,0.0
2846,53.0,0.0,60.0,6.0,0.0
2847,56.0,0.0,60.0,4.0,0.0
2848,53.0,48.0,60.0,5.0,0.0
2849,56.0,0.0,60.0,3.0,0.0
2850,53.0,0.0,60.0,6.0,0.0
2851,53.0,0.0,60.0,3.0,0.0
2852,56.0,0.0,60.0,4.0,0.0
2853,56.0,0.0,60.0,3.0,0.0
2854,53.0,0.0,60.0,3.0,0.0
2855,53.0,36.0,60.0,6.0,0.0
2856,53.0,0.0,60.0,5.0,0.0
2857,56.0,0.0,60.0,4.0,0.0
2858,53.0,0.0,60.0,5.0,0.0
2859,56.0,15.0,60.0,3.0,0.0
2860,53.0,0.0,60.0,3.0,0.0
2861,53.0,0.0,60.0,6.0,0.0
2862,56.0,0.0,60.0,4.0,0.0
2863,52.0,4.0,90.0,7.0,0.0
2864,73.0,12.0,15.0,0.0,0.0
2865,61.0,0.0,15.0,2.0,0.0
2866,75.0,21.0,15.0,0.0,0.0
2867,63.0,0.0,15.0,2.0,0.0
2868,73.0,44.0,20.0,0.0,0.0
2869,61.0,0.0,20.0,2.0,0.0
2870,60.0,0.0,60.0,2.0,0.0
2871,55.0,0.0,60.0,3.0,0.0
2872,52.0,0.0,60.0,3.0,0.0
2873,72.0,0.0,60.0,0.0,0.0
2874,52.0,0.0,60.0,6.0,0.0
2875,55.0,0.0,60.0,5.0,0.0
2876,58.0,48.0,60.0,4.0,0.0
2877,52.0,0.0,60.0,6.0,0.0
2878,55.0,0.0,60.0,3.0,0.0
2879,60.0,44.0,240.0,2.0,0.0
2880,72.0,0.0,240.0,0.0,0.0
2881,58.0,0.0,60.0,4.0,0.0
2882,52.0,0.0,60.0,3.0,0.0
2883,55.0,48.0,60.0,5.0,0.0
2884,55.0,0.0,60.0,5.0,0.0
2885,58.0,0.0,60.0,4.0,0.0
2886,52.0,0.0,60.0,6.0,0.0
2887,55.0,48.0,60.0,3.0,0.0
2888,52.0,0.0,60.0,3.0,0.0
2889,52.0,48.0,60.0,6.0,0.0
2890,55.0,0.0,60.0,3.0,0.0
2891,52.0,0.0,60.0,3.0,0.0
2892,58.0,0.0,60.0,4.0,0.0
2893,55.0,0.0,60.0,5.0,0.0
2894,52.0,0.0,60.0,6.0,0.0
2895,55.0,48.0,60.0,5.0,0.0
2896,58.0,0.0,60.0,4.0,0.0
2897,55.0,0.0,60.0,3.0,0.0
2898,52.0,0.0,60.0,3.0,0.0
2899,53.0,48.0,90.0,6.0,0.0
2900,53.0,0.0,90.0,3.0,0.0
2901,56.0,0.0,90.0,4.0,0.0
2902,53.0,0.0,90.0,5.0,0.0
2903,80.0,0.0,90.0,0.0,0.0
2904,68.0,48.0,90.0,2.0,0.0
2905,51.0,48.0,90.0,3.0,0.0
2906,67.0,48.0,90.0,2.0,0.0
2907,79.0,0.0,90.0,0.0,0.0
2908,49.0,52.0,90.0,3.0,0.0
2909,77.0,0.0,90.0,0.0,0.0
2910,65.0,44.0,90.0,2.0,0.0
2911,48.0,48.0,90.0,3.0,0.0
2912,76.0,0.0,90.0,0.0,0.0
2913,64.0,48.0,90.0,2.0,0.0
2914,46.0,4.0,90.0,3.0,0.0
2915,65.0,48.0,60.0,2.0,0.0
2916,77.0,0.0,60.0,0.0,0.0
2917,61.0,0.0,60.0,2.0,0.0
2918,73.0,44.0,60.0,0.0,0.0
2919,44.0,4.0,90.0,3.0,0.0
2920,60.0,0.0,60.0,2.0,0.0
2921,72.0,63.0,60.0,0.0,0.0
2922,43.0,12.0,180.0,3.0,0.0
2923,58.0,12.0,15.0,2.0,0.0
2924,60.0,23.0,15.0,2.0,0.0
2925,61.0,46.0,20.0,2.0,0.0
2926,60.0,36.0,60.0,2.0,0.0
2927,58.0,48.0,60.0,2.0,0.0
2928,56.0,48.0,60.0,2.0,0.0
2929,55.0,48.0,60.0,2.0,0.0
2930,53.0,15.0,60.0,2.0,0.0
2931,52.0,2.0,60.0,2.0,0.0
2932,46.0,12.0,15.0,3.0,0.0
2933,48.0,21.0,15.0,3.0,0.0
2934,49.0,46.0,20.0,3.0,0.0
2935,48.0,48.0,60.0,3.0,0.0
2936,64.0,12.0,180.0,2.0,0.0
2937,46.0,48.0,60.0,3.0,0.0
2938,44.0,36.0,60.0,3.0,0.0
2939,43.0,63.0,60.0,3.0,0.0
2940,45.0,12.0,180.0,3.0,0.0
2941,78.0,4.0,390.0,0.0,0.0
2942,75.0,0.0,390.0,0.0,0.0
2943,63.0,12.0,15.0,2.0,0.0
2944,65.0,23.0,15.0,2.0,0.0
2945,66.0,46.0,20.0,2.0,0.0
2946,65.0,36.0,60.0,2.0,0.0
2947,63.0,48.0,60.0,2.0,0.0
2948,61.0,48.0,60.0,2.0,0.0
2949,60.0,48.0,60.0,2.0,0.0
2950,58.0,15.0,60.0,2.0,0.0
2951,51.0,12.0,15.0,3.0,0.0
2952,57.0,2.0,60.0,2.0,0.0
2953,53.0,17.0,15.0,3.0,0.0
2954,54.0,46.0,20.0,3.0,0.0
2955,69.0,0.0,90.0,0.0,0.0
2956,53.0,44.0,60.0,3.0,0.0
2957,69.0,12.0,180.0,2.0,0.0
2958,72.0,4.0,90.0,0.0,0.0
2959,51.0,48.0,60.0,3.0,0.0
2960,49.0,36.0,60.0,3.0,0.0
2961,48.0,63.0,60.0,3.0,0.0
2962,77.0,0.0,390.0,0.0,0.0
2963,80.0,4.0,390.0,0.0,0.0
2964,47.0,12.0,180.0,3.0,0.0
2965,65.0,12.0,15.0,2.0,0.0
2966,67.0,23.0,15.0,2.0,0.0
2967,68.0,46.0,20.0,2.0,0.0
2968,67.0,36.0,60.0,2.0,0.0
2969,65.0,48.0,60.0,2.0,0.0
2970,63.0,48.0,60.0,2.0,0.0
2971,62.0,48.0,60.0,2.0,0.0
2972,60.0,15.0,60.0,2.0,0.0
2973,59.0,2.0,60.0,2.0,0.0
2974,53.0,12.0,15.0,3.0,0.0
2975,55.0,17.0,15.0,3.0,0.0
2976,56.0,46.0,20.0,3.0,0.0
2977,71.0,12.0,180.0,2.0,0.0
2978,71.0,0.0,90.0,0.0,0.0
2979,74.0,4.0,90.0,0.0,0.0
2980,55.0,44.0,60.0,3.0,0.0
2981,53.0,48.0,60.0,3.0,0.0
2982,51.0,36.0,60.0,3.0,0.0
2983,50.0,26.0,60.0,3.0,0.0
2984,48.0,0.0,90.0,7.0,0.0
2985,48.0,0.0,180.0,3.0,0.0
2986,72.0,24.0,20.0,2.0,0.0
2987,82.0,0.0,180.0,4.0,0.0
2988,79.0,14.0,180.0,5.0,0.0
2989,64.0,6.0,90.0,6.0,0.0
2990,74.0,24.0,20.0,2.0,0.0
2991,72.0,18.0,20.0,2.0,0.0
2992,71.0,24.0,20.0,2.0,0.0
2993,72.0,24.0,20.0,2.0,0.0
2994,74.0,24.0,20.0,2.0,0.0
2995,76.0,10.0,20.0,2.0,0.0
2996,77.0,24.0,20.0,2.0,0.0
2997,52.0,6.0,90.0,7.0,0.0
2998,60.0,0.0,90.0,6.0,0.0
2999,70.0,0.0,90.0,4.0,0.0
3000,60.0,0.0,90.0,3.0,0.0
3001,52.0,0.0,90.0,3.0,0.0
3002,67.0,0.0,90.0,5.0,0.0
3003,79.0,24.0,20.0,2.0,0.0
3004,80.0,24.0,20.0,2.0,0.0
3005,82.0,18.0,20.0,2.0,0.0
3006,84.0,24.0,20.0,2.0,0.0
3007,65.0,0.0,90.0,5.0,0.0
3008,53.0,6.0,90.0,7.0,0.0
3009,60.0,0.0,90.0,6.0,0.0
3010,82.0,24.0,20.0,2.0,0.0
3011,60.0,0.0,180.0,3.0,0.0
3012,68.0,0.0,90.0,4.0,0.0
3013,53.0,14.0,180.0,3.0,0.0
3014,80.0,24.0,20.0,2.0,0.0
3015,79.0,18.0,20.0,2.0,0.0
3016,80.0,24.0,20.0,2.0,0.0
3017,79.0,24.0,20.0,2.0,0.0
3018,77.0,24.0,20.0,2.0,0.0
3019,76.0,10.0,20.0,2.0,0.0
3020,77.0,24.0,20.0,2.0,0.0
3021,73.0,6.0,90.0,4.0,0.0
3022,58.0,0.0,90.0,7.0,0.0
3023,58.0,0.0,90.0,6.0,0.0
3024,75.0,24.0,20.0,2.0,0.0
3025,65.0,0.0,90.0,5.0,0.0
3026,58.0,0.0,90.0,3.0,0.0
3027,73.0,24.0,20.0,2.0,0.0
3028,72.0,18.0,20.0,2.0,0.0
3029,73.0,24.0,20.0,2.0,0.0
3030,65.0,6.0,90.0,5.0,0.0
3031,56.0,0.0,60.0,6.0,0.0
3032,72.0,13.0,20.0,2.0,0.0
3033,56.0,0.0,60.0,3.0,0.0
3034,56.0,0.0,60.0,7.0,0.0
3035,72.0,5.0,60.0,4.0,0.0
3036,73.0,12.0,15.0,2.0,0.0
3037,72.0,12.0,15.0,2.0,0.0
3038,70.0,7.0,15.0,2.0,0.0
3039,72.0,17.0,15.0,2.0,0.0
3040,58.0,0.0,20.0,3.0,0.0
3041,73.0,0.0,20.0,2.0,0.0
3042,73.0,0.0,20.0,4.0,0.0
3043,58.0,90.0,20.0,6.0,0.0
3044,58.0,0.0,20.0,7.0,0.0
3045,60.0,0.0,90.0,3.0,0.0
3046,56.0,0.0,90.0,5.0,0.0
3047,75.0,0.0,90.0,4.0,0.0
3048,65.0,0.0,90.0,2.0,0.0
3049,60.0,8.0,180.0,6.0,0.0
3050,60.0,88.0,90.0,7.0,0.0
3051,48.0,0.0,90.0,3.0,0.0
3052,55.0,0.0,90.0,5.0,0.0
3053,64.0,0.0,90.0,4.0,0.0
3054,48.0,0.0,90.0,7.0,0.0
3055,64.0,30.0,90.0,2.0,0.0
3056,55.0,14.0,180.0,3.0,0.0
3057,60.0,0.0,90.0,6.0,0.0
3058,52.0,0.0,180.0,3.0,0.0
3059,72.0,24.0,20.0,2.0,0.0
3060,79.0,0.0,180.0,5.0,0.0
3061,82.0,0.0,180.0,4.0,0.0
3062,52.0,6.0,90.0,7.0,0.0
3063,74.0,24.0,20.0,2.0,0.0
3064,72.0,18.0,20.0,2.0,0.0
3065,71.0,24.0,20.0,2.0,0.0
3066,72.0,24.0,20.0,2.0,0.0
3067,74.0,24.0,20.0,2.0,0.0
3068,76.0,10.0,20.0,2.0,0.0
3069,77.0,24.0,20.0,2.0,0.0
3070,70.0,6.0,90.0,4.0,0.0
3071,60.0,0.0,90.0,3.0,0.0
3072,52.0,0.0,90.0,3.0,0.0
3073,60.0,0.0,90.0,6.0,0.0
3074,79.0,24.0,20.0,2.0,0.0
3075,67.0,0.0,90.0,5.0,0.0
3076,52.0,0.0,90.0,7.0,0.0
3077,80.0,24.0,20.0,2.0,0.0
3078,82.0,18.0,20.0,2.0,0.0
3079,84.0,24.0,20.0,2.0,0.0
3080,60.0,14.0,180.0,3.0,0.0
3081,53.0,0.0,90.0,7.0,0.0
3082,65.0,0.0,90.0,5.0,0.0
3083,53.0,0.0,180.0,3.0,0.0
3084,60.0,6.0,90.0,6.0,0.0
3085,68.0,0.0,90.0,4.0,0.0
3086,82.0,24.0,20.0,2.0,0.0
3087,80.0,24.0,20.0,2.0,0.0
3088,79.0,18.0,20.0,2.0,0.0
3089,80.0,24.0,20.0,2.0,0.0
3090,79.0,24.0,20.0,2.0,0.0
3091,77.0,24.0,20.0,2.0,0.0
3092,76.0,10.0,20.0,2.0,0.0
3093,77.0,24.0,20.0,2.0,0.0
3094,58.0,0.0,90.0,6.0,0.0
3095,75.0,24.0,20.0,2.0,0.0
3096,65.0,6.0,90.0,5.0,0.0
3097,73.0,0.0,90.0,4.0,0.0
3098,58.0,0.0,90.0,7.0,0.0
3099,58.0,0.0,90.0,3.0,0.0
3100,73.0,24.0,20.0,2.0,0.0
3101,72.0,18.0,20.0,2.0,0.0
3102,73.0,24.0,20.0,2.0,0.0
3103,72.0,24.0,20.0,2.0,0.0
3104,70.0,24.0,20.0,2.0,0.0
3105,69.0,24.0,20.0,2.0,0.0
3106,70.0,24.0,20.0,2.0,0.0
3107,49.0,0.0,90.0,3.0,0.0
3108,46.0,8.0,180.0,7.0,0.0
3109,68.0,24.0,20.0,2.0,0.0
3110,55.0,6.0,90.0,5.0,0.0
3111,61.0,0.0,90.0,6.0,0.0
3112,64.0,0.0,90.0,4.0,0.0
3113,67.0,24.0,20.0,2.0,0.0
3114,66.0,18.0,20.0,2.0,0.0
3115,67.0,24.0,20.0,2.0,0.0
3116,55.0,0.0,90.0,6.0,0.0
3117,72.0,24.0,20.0,2.0,0.0
3118,73.0,6.0,90.0,4.0,0.0
3119,52.0,0.0,90.0,3.0,0.0
3120,64.0,0.0,90.0,5.0,0.0
3121,73.0,24.0,20.0,2.0,0.0
3122,70.0,10.0,20.0,2.0,0.0
3123,67.0,24.0,20.0,2.0,0.0
3124,56.0,0.0,60.0,6.0,0.0
3125,65.0,6.0,90.0,5.0,0.0
3126,44.0,0.0,60.0,3.0,0.0
3127,72.0,0.0,60.0,4.0,0.0
3128,44.0,5.0,60.0,7.0,0.0
3129,72.0,13.0,20.0,2.0,0.0
3130,73.0,12.0,15.0,2.0,0.0
3131,72.0,12.0,15.0,2.0,0.0
3132,70.0,7.0,15.0,2.0,0.0
3133,72.0,17.0,15.0,2.0,0.0
3134,58.0,0.0,20.0,6.0,0.0
3135,73.0,0.0,20.0,2.0,0.0
3136,46.0,0.0,20.0,7.0,0.0
3137,46.0,0.0,20.0,3.0,0.0
3138,73.0,90.0,20.0,4.0,0.0
3139,56.0,0.0,90.0,5.0,0.0
3140,48.0,0.0,90.0,7.0,0.0
3141,65.0,0.0,90.0,2.0,0.0
3142,56.0,0.0,90.0,3.0,0.0
3143,60.0,0.0,90.0,6.0,0.0
3144,48.0,0.0,90.0,3.0,0.0
3145,65.0,96.0,90.0,4.0,0.0
3146,55.0,46.0,90.0,3.0,0.0
3147,55.0,0.0,90.0,5.0,0.0
3148,48.0,0.0,90.0,7.0,0.0
3149,64.0,0.0,90.0,4.0,0.0
3150,64.0,0.0,90.0,2.0,0.0
3151,48.0,0.0,90.0,6.0,0.0
3152,65.0,48.0,60.0,2.0,0.0
3153,48.0,0.0,30.0,6.0,0.0
3154,41.0,0.0,30.0,7.0,0.0
3155,65.0,6.0,30.0,4.0,0.0
3156,53.0,35.0,180.0,3.0,0.0
3157,56.0,0.0,30.0,5.0,0.0
3158,77.0,23.0,60.0,2.0,0.0
3159,77.0,48.0,20.0,2.0,0.0
3160,77.0,13.0,20.0,2.0,0.0
3161,77.0,48.0,20.0,2.0,0.0
3162,77.0,73.0,20.0,2.0,0.0
3163,79.0,48.0,60.0,2.0,0.0
3164,77.0,23.0,60.0,2.0,0.0
3165,68.0,0.0,90.0,3.0,0.0
3166,65.0,27.0,90.0,3.0,0.0
3167,75.0,48.0,20.0,2.0,0.0
3168,73.0,21.0,20.0,2.0,0.0
3169,72.0,48.0,20.0,2.0,0.0
3170,67.0,52.0,90.0,3.0,0.0
3171,65.0,0.0,90.0,3.0,0.0
3172,71.0,21.0,20.0,2.0,0.0
3173,72.0,44.0,60.0,2.0,0.0
3174,63.0,0.0,90.0,3.0,0.0
3175,67.0,4.0,90.0,3.0,0.0
3176,75.0,23.0,60.0,2.0,0.0
3177,75.0,48.0,20.0,2.0,0.0
3178,75.0,48.0,20.0,2.0,0.0
3179,75.0,48.0,20.0,2.0,0.0
3180,75.0,73.0,20.0,2.0,0.0
3181,77.0,48.0,60.0,2.0,0.0
3182,75.0,23.0,60.0,2.0,0.0
3183,63.0,52.0,90.0,3.0,0.0
3184,66.0,0.0,90.0,3.0,0.0
3185,73.0,48.0,20.0,2.0,0.0
3186,72.0,21.0,20.0,2.0,0.0
3187,63.0,0.0,90.0,3.0,0.0
3188,70.0,44.0,60.0,2.0,0.0
3189,65.0,4.0,90.0,3.0,0.0
3190,69.0,48.0,60.0,2.0,0.0
3191,70.0,44.0,60.0,2.0,0.0
3192,65.0,4.0,90.0,3.0,0.0
3193,61.0,0.0,90.0,3.0,0.0
3194,73.0,23.0,60.0,2.0,0.0
3195,73.0,48.0,20.0,2.0,0.0
3196,73.0,48.0,20.0,2.0,0.0
3197,73.0,48.0,20.0,2.0,0.0
3198,73.0,73.0,20.0,2.0,0.0
3199,75.0,48.0,60.0,2.0,0.0
3200,73.0,23.0,60.0,2.0,0.0
3201,72.0,48.0,20.0,2.0,0.0
3202,64.0,52.0,90.0,3.0,0.0
3203,61.0,0.0,90.0,3.0,0.0
3204,70.0,21.0,20.0,2.0,0.0
3205,68.0,44.0,60.0,2.0,0.0
3206,63.0,4.0,90.0,3.0,0.0
3207,61.0,0.0,90.0,3.0,0.0
3208,67.0,26.0,60.0,2.0,0.0
3209,68.0,6.0,90.0,2.0,0.0
3210,63.0,0.0,540.0,0.0,0.0
3211,75.0,0.0,540.0,0.0,0.0
3212,60.0,11.0,270.0,6.0,0.0
3213,60.0,24.0,20.0,3.0,0.0
3214,63.0,24.0,20.0,3.0,0.0
3215,62.0,18.0,20.0,3.0,0.0
3216,63.0,24.0,20.0,3.0,0.0
3217,68.0,0.0,90.0,4.0,0.0
3218,63.0,6.0,90.0,5.0,0.0
3219,65.0,24.0,20.0,3.0,0.0
3220,63.0,24.0,20.0,3.0,0.0
3221,62.0,18.0,20.0,3.0,0.0
3222,63.0,13.0,20.0,3.0,0.0
3223,60.0,1.0,20.0,3.0,0.0
3224,68.0,11.0,15.0,2.0,0.0
3225,72.0,0.0,60.0,4.0,0.0
3226,68.0,2.0,60.0,5.0,0.0
3227,70.0,12.0,15.0,2.0,0.0
3228,68.0,9.0,15.0,2.0,0.0
3229,63.0,1.0,20.0,3.0,0.0
3230,70.0,12.0,15.0,2.0,0.0
3231,68.0,11.0,15.0,2.0,0.0
3232,62.0,1.0,20.0,3.0,0.0
3233,70.0,1.0,15.0,2.0,0.0
3234,67.0,11.0,15.0,2.0,0.0
3235,63.0,1.0,20.0,3.0,0.0
3236,68.0,23.0,15.0,2.0,0.0
3237,55.0,11.0,270.0,6.0,0.0
3238,70.0,6.0,90.0,2.0,0.0
3239,55.0,24.0,20.0,3.0,0.0
3240,63.0,24.0,20.0,3.0,0.0
3241,62.0,18.0,20.0,3.0,0.0
3242,63.0,24.0,20.0,3.0,0.0
3243,70.0,0.0,90.0,4.0,0.0
3244,63.0,6.0,90.0,5.0,0.0
3245,65.0,24.0,20.0,3.0,0.0
3246,63.0,24.0,20.0,3.0,0.0
3247,62.0,18.0,20.0,3.0,0.0
3248,63.0,13.0,20.0,3.0,0.0
3249,70.0,2.0,60.0,5.0,0.0
3250,70.0,11.0,15.0,2.0,0.0
3251,73.0,0.0,60.0,4.0,0.0
3252,55.0,1.0,20.0,3.0,0.0
3253,72.0,12.0,15.0,2.0,0.0
3254,63.0,1.0,20.0,3.0,0.0
3255,70.0,9.0,15.0,2.0,0.0
3256,72.0,12.0,15.0,2.0,0.0
3257,62.0,1.0,20.0,3.0,0.0
3258,70.0,11.0,15.0,2.0,0.0
3259,72.0,1.0,15.0,2.0,0.0
3260,63.0,1.0,20.0,3.0,0.0
3261,69.0,11.0,15.0,2.0,0.0
3262,70.0,23.0,15.0,2.0,0.0
3263,56.0,24.0,20.0,3.0,0.0
3264,80.0,6.0,660.0,0.0,0.0
3265,68.0,0.0,660.0,0.0,0.0
3266,72.0,6.0,90.0,2.0,0.0
3267,56.0,11.0,270.0,6.0,0.0
3268,68.0,24.0,20.0,3.0,0.0
3269,67.0,18.0,20.0,3.0,0.0
3270,68.0,24.0,20.0,3.0,0.0
3271,70.0,24.0,20.0,3.0,0.0
3272,72.0,0.0,90.0,4.0,0.0
3273,68.0,6.0,90.0,5.0,0.0
3274,68.0,24.0,20.0,3.0,0.0
3275,67.0,18.0,20.0,3.0,0.0
3276,68.0,13.0,20.0,3.0,0.0
3277,63.0,1.0,20.0,3.0,0.0
3278,72.0,11.0,15.0,2.0,0.0
3279,75.0,0.0,60.0,4.0,0.0
3280,72.0,2.0,60.0,5.0,0.0
3281,73.0,12.0,15.0,2.0,0.0
3282,68.0,1.0,20.0,3.0,0.0
3283,72.0,9.0,15.0,2.0,0.0
3284,73.0,12.0,15.0,2.0,0.0
3285,72.0,11.0,15.0,2.0,0.0
3286,67.0,1.0,20.0,3.0,0.0
3287,73.0,1.0,15.0,2.0,0.0
3288,68.0,1.0,20.0,3.0,0.0
3289,70.0,11.0,15.0,2.0,0.0
3290,72.0,23.0,15.0,2.0,0.0
3291,73.0,6.0,90.0,2.0,0.0
3292,65.0,24.0,20.0,3.0,0.0
3293,65.0,11.0,270.0,6.0,0.0
3294,68.0,24.0,20.0,3.0,0.0
3295,67.0,18.0,20.0,3.0,0.0
3296,68.0,24.0,20.0,3.0,0.0
3297,73.0,6.0,90.0,4.0,0.0
3298,70.0,24.0,20.0,3.0,0.0
3299,68.0,0.0,90.0,5.0,0.0
3300,68.0,24.0,20.0,3.0,0.0
3301,67.0,18.0,20.0,3.0,0.0
3302,68.0,13.0,20.0,3.0,0.0
3303,73.0,2.0,60.0,5.0,0.0
3304,77.0,0.0,60.0,4.0,0.0
3305,65.0,1.0,20.0,3.0,0.0
3306,73.0,11.0,15.0,2.0,0.0
3307,75.0,12.0,15.0,2.0,0.0
3308,68.0,1.0,20.0,3.0,0.0
3309,73.0,9.0,15.0,2.0,0.0
3310,75.0,12.0,15.0,2.0,0.0
3311,67.0,1.0,20.0,3.0,0.0
3312,73.0,11.0,15.0,2.0,0.0
3313,75.0,1.0,15.0,2.0,0.0
3314,72.0,11.0,15.0,2.0,0.0
3315,68.0,1.0,20.0,3.0,0.0
3316,73.0,23.0,15.0,2.0,0.0
3317,75.0,0.0,90.0,4.0,0.0
3318,68.0,0.0,90.0,5.0,0.0
3319,60.0,0.0,90.0,3.0,0.0
3320,60.0,0.0,90.0,6.0,0.0
3321,75.0,24.0,20.0,2.0,0.0
3322,80.0,24.0,20.0,2.0,0.0
3323,79.0,18.0,20.0,2.0,0.0
3324,80.0,24.0,20.0,2.0,0.0
3325,82.0,24.0,20.0,2.0,0.0
3326,80.0,24.0,20.0,2.0,0.0
3327,79.0,24.0,20.0,2.0,0.0
3328,80.0,24.0,20.0,2.0,0.0
3329,60.0,0.0,90.0,3.0,0.0
3330,63.0,0.0,90.0,5.0,0.0
3331,75.0,24.0,20.0,2.0,0.0
3332,60.0,6.0,90.0,6.0,0.0
3333,75.0,0.0,90.0,4.0,0.0
3334,80.0,24.0,20.0,2.0,0.0
3335,79.0,18.0,20.0,2.0,0.0
3336,80.0,21.0,20.0,2.0,0.0
3337,65.0,0.0,20.0,5.0,0.0
3338,61.0,0.0,20.0,3.0,0.0
3339,77.0,0.0,20.0,4.0,0.0
3340,77.0,24.0,20.0,2.0,0.0
3341,61.0,3.0,20.0,6.0,0.0
3342,79.0,21.0,20.0,2.0,0.0
3343,60.0,0.0,20.0,3.0,0.0
3344,63.0,3.0,20.0,5.0,0.0
3345,75.0,24.0,20.0,2.0,0.0
3346,60.0,0.0,20.0,6.0,0.0
3347,75.0,0.0,20.0,4.0,0.0
3348,77.0,21.0,20.0,2.0,0.0
3349,58.0,0.0,20.0,6.0,0.0
3350,73.0,24.0,20.0,2.0,0.0
3351,61.0,0.0,20.0,5.0,0.0
3352,58.0,0.0,20.0,3.0,0.0
3353,73.0,3.0,20.0,4.0,0.0
3354,75.0,21.0,20.0,2.0,0.0
3355,72.0,24.0,20.0,2.0,0.0
3356,56.0,3.0,20.0,6.0,0.0
3357,56.0,0.0,20.0,3.0,0.0
3358,60.0,0.0,20.0,5.0,0.0
3359,72.0,0.0,20.0,4.0,0.0
3360,73.0,21.0,20.0,2.0,0.0
3361,55.0,0.0,20.0,6.0,0.0
3362,58.0,3.0,20.0,5.0,0.0
3363,70.0,24.0,20.0,2.0,0.0
3364,55.0,0.0,20.0,3.0,0.0
3365,70.0,0.0,20.0,4.0,0.0
3366,72.0,21.0,20.0,2.0,0.0
3367,56.0,0.0,20.0,5.0,0.0
3368,53.0,0.0,20.0,3.0,0.0
3369,68.0,24.0,20.0,2.0,0.0
3370,68.0,0.0,20.0,4.0,0.0
3371,53.0,3.0,20.0,6.0,0.0
3372,70.0,24.0,20.0,2.0,0.0
3373,51.0,4.0,90.0,3.0,0.0
3374,67.0,16.0,20.0,2.0,0.0
3375,70.0,0.0,270.0,0.0,0.0
3376,70.0,0.0,270.0,1.0,0.0
3377,63.0,16.0,270.0,1.0,0.0
3378,51.0,2.0,60.0,6.0,0.0
3379,67.0,0.0,270.0,0.0,0.0
3380,51.0,0.0,90.0,7.0,0.0
3381,67.0,6.0,30.0,4.0,0.0
3382,55.0,0.0,30.0,5.0,0.0
3383,63.0,24.0,20.0,2.0,0.0
3384,70.0,18.0,20.0,2.0,0.0
3385,51.0,2.0,60.0,6.0,0.0
3386,67.0,24.0,20.0,2.0,0.0
3387,75.0,22.0,20.0,2.0,0.0
3388,51.0,2.0,60.0,6.0,0.0
3389,74.0,24.0,20.0,2.0,0.0
3390,51.0,2.0,60.0,6.0,0.0
3391,75.0,22.0,20.0,2.0,0.0
3392,74.0,24.0,20.0,2.0,0.0
3393,67.0,6.0,30.0,5.0,0.0
3394,75.0,16.0,20.0,2.0,0.0
3395,51.0,4.0,90.0,3.0,0.0
3396,55.0,0.0,90.0,3.0,0.0
3397,51.0,2.0,60.0,6.0,0.0
3398,73.0,0.0,30.0,4.0,0.0
3399,73.0,24.0,20.0,2.0,0.0
3400,72.0,2.0,20.0,2.0,0.0
3401,51.0,2.0,60.0,6.0,0.0
3402,70.0,24.0,20.0,2.0,0.0
3403,68.0,0.0,270.0,1.0,0.0
3404,72.0,16.0,20.0,2.0,0.0
3405,68.0,0.0,30.0,5.0,0.0
3406,51.0,0.0,90.0,7.0,0.0
3407,51.0,4.0,90.0,3.0,0.0
3408,72.0,6.0,30.0,4.0,0.0
3409,72.0,0.0,270.0,1.0,0.0
3410,56.0,0.0,90.0,3.0,0.0
3411,51.0,2.0,60.0,6.0,0.0
3412,72.0,16.0,270.0,0.0,0.0
3413,68.0,0.0,270.0,0.0,0.0
3414,68.0,24.0,20.0,2.0,0.0
3415,51.0,2.0,60.0,6.0,0.0
3416,75.0,18.0,20.0,2.0,0.0
3417,72.0,24.0,20.0,2.0,0.0
3418,51.0,2.0,60.0,6.0,0.0
3419,80.0,22.0,20.0,2.0,0.0
3420,79.0,24.0,20.0,2.0,0.0
3421,80.0,22.0,20.0,2.0,0.0
3422,51.0,2.0,60.0,6.0,0.0
3423,79.0,24.0,20.0,2.0,0.0
3424,51.0,2.0,60.0,6.0,0.0
3425,72.0,0.0,30.0,4.0,0.0
3426,80.0,16.0,20.0,2.0,0.0
3427,60.0,0.0,90.0,3.0,0.0
3428,51.0,4.0,90.0,3.0,0.0
3429,68.0,6.0,30.0,5.0,0.0
3430,75.0,24.0,20.0,2.0,0.0
3431,72.0,2.0,20.0,2.0,0.0
3432,51.0,2.0,60.0,6.0,0.0
3433,68.0,24.0,20.0,2.0,0.0
3434,67.0,0.0,30.0,5.0,0.0
3435,51.0,4.0,90.0,3.0,0.0
3436,58.0,0.0,90.0,3.0,0.0
3437,67.0,16.0,20.0,2.0,0.0
3438,51.0,0.0,90.0,7.0,0.0
3439,70.0,16.0,270.0,1.0,0.0
3440,70.0,6.0,30.0,4.0,0.0
3441,63.0,0.0,270.0,1.0,0.0
3442,67.0,0.0,270.0,0.0,0.0
3443,70.0,0.0,270.0,0.0,0.0
3444,51.0,2.0,60.0,6.0,0.0
3445,63.0,24.0,20.0,2.0,0.0
3446,51.0,2.0,60.0,6.0,0.0
3447,70.0,18.0,20.0,2.0,0.0
3448,67.0,24.0,20.0,2.0,0.0
3449,51.0,2.0,60.0,6.0,0.0
3450,75.0,22.0,20.0,2.0,0.0
3451,74.0,24.0,20.0,2.0,0.0
3452,75.0,22.0,20.0,2.0,0.0
3453,51.0,2.0,60.0,6.0,0.0
3454,74.0,24.0,20.0,2.0,0.0
3455,73.0,0.0,30.0,4.0,0.0
3456,51.0,4.0,90.0,3.0,0.0
3457,67.0,6.0,30.0,5.0,0.0
3458,55.0,0.0,90.0,3.0,0.0
3459,51.0,2.0,60.0,6.0,0.0
3460,75.0,16.0,20.0,2.0,0.0
3461,73.0,24.0,20.0,2.0,0.0
3462,72.0,2.0,20.0,2.0,0.0
3463,51.0,2.0,60.0,6.0,0.0
3464,70.0,24.0,20.0,2.0,0.0
3465,51.0,4.0,90.0,7.0,0.0
3466,72.0,0.0,30.0,4.0,0.0
3467,51.0,0.0,90.0,3.0,0.0
3468,56.0,0.0,90.0,3.0,0.0
3469,72.0,16.0,20.0,2.0,0.0
3470,51.0,2.0,60.0,6.0,0.0
3471,68.0,6.0,30.0,5.0,0.0
3472,72.0,0.0,270.0,0.0,0.0
3473,68.0,0.0,270.0,0.0,0.0
3474,72.0,16.0,270.0,1.0,0.0
3475,68.0,0.0,270.0,1.0,0.0
3476,68.0,24.0,20.0,2.0,0.0
3477,75.0,18.0,20.0,2.0,0.0
3478,51.0,2.0,60.0,6.0,0.0
3479,72.0,24.0,20.0,2.0,0.0
3480,51.0,2.0,60.0,6.0,0.0
3481,80.0,22.0,20.0,2.0,0.0
3482,79.0,24.0,20.0,2.0,0.0
3483,80.0,22.0,20.0,2.0,0.0
3484,51.0,2.0,60.0,6.0,0.0
3485,79.0,24.0,20.0,2.0,0.0
3486,68.0,0.0,30.0,5.0,0.0
3487,72.0,6.0,30.0,4.0,0.0
3488,51.0,0.0,90.0,3.0,0.0
3489,60.0,4.0,90.0,3.0,0.0
3490,51.0,2.0,60.0,6.0,0.0
3491,80.0,16.0,20.0,2.0,0.0
3492,75.0,24.0,20.0,2.0,0.0
3493,72.0,2.0,20.0,2.0,0.0
3494,51.0,2.0,60.0,6.0,0.0
3495,68.0,24.0,20.0,2.0,0.0
3496,70.0,8.0,30.0,1.0,0.0
3497,63.0,0.0,30.0,1.0,0.0
3498,67.0,0.0,30.0,5.0,0.0
3499,70.0,0.0,30.0,0.0,0.0
3500,51.0,0.0,30.0,7.0,0.0
3501,67.0,0.0,30.0,0.0,0.0
3502,70.0,0.0,30.0,4.0,0.0
3503,51.0,0.0,90.0,3.0,0.0
3504,58.0,6.0,90.0,3.0,0.0
3505,67.0,16.0,20.0,2.0,0.0
3506,51.0,0.0,30.0,6.0,0.0
3507,63.0,24.0,20.0,2.0,0.0
3508,67.0,18.0,20.0,2.0,0.0
3509,70.0,24.0,20.0,2.0,0.0
3510,58.0,0.0,30.0,4.0,0.0
3511,70.0,8.0,30.0,0.0,0.0
3512,67.0,0.0,30.0,0.0,0.0
3513,55.0,0.0,30.0,5.0,0.0
3514,51.0,0.0,30.0,7.0,0.0
3515,51.0,0.0,30.0,6.0,0.0
3516,51.0,0.0,30.0,1.0,0.0
3517,63.0,0.0,30.0,1.0,0.0
3518,75.0,16.0,20.0,2.0,0.0
3519,51.0,0.0,90.0,3.0,0.0
3520,55.0,6.0,90.0,3.0,0.0
3521,58.0,0.0,90.0,3.0,0.0
3522,70.0,24.0,20.0,2.0,0.0
3523,67.0,18.0,20.0,2.0,0.0
3524,63.0,24.0,20.0,2.0,0.0
3525,67.0,0.0,30.0,0.0,0.0
3526,70.0,0.0,30.0,0.0,0.0
3527,55.0,0.0,30.0,5.0,0.0
3528,51.0,0.0,30.0,7.0,0.0
3529,51.0,0.0,30.0,1.0,0.0
3530,63.0,0.0,30.0,1.0,0.0
3531,51.0,6.0,90.0,3.0,0.0
3532,55.0,0.0,90.0,3.0,0.0
3533,58.0,0.0,90.0,3.0,0.0
3534,75.0,16.0,20.0,2.0,0.0
3535,58.0,8.0,30.0,4.0,0.0
3536,51.0,0.0,30.0,6.0,0.0
3537,70.0,24.0,20.0,2.0,0.0
3538,67.0,18.0,20.0,2.0,0.0
3539,63.0,13.0,20.0,2.0,0.0
3540,75.0,12.0,15.0,2.0,0.0
3541,55.0,0.0,30.0,5.0,0.0
3542,58.0,9.0,30.0,4.0,0.0
3543,51.0,0.0,30.0,7.0,0.0
3544,67.0,0.0,90.0,0.0,0.0
3545,51.0,7.0,90.0,1.0,0.0
3546,63.0,0.0,90.0,1.0,0.0
3547,51.0,0.0,30.0,6.0,0.0
3548,70.0,0.0,90.0,0.0,0.0
3549,58.0,0.0,180.0,3.0,0.0
3550,55.0,0.0,180.0,3.0,0.0
3551,51.0,3.0,180.0,3.0,0.0
3552,77.0,12.0,15.0,2.0,0.0
3553,75.0,3.0,15.0,2.0,0.0
3554,77.0,12.0,15.0,2.0,0.0
3555,75.0,12.0,15.0,2.0,0.0
3556,77.0,12.0,15.0,2.0,0.0
3557,75.0,5.0,15.0,2.0,0.0
3558,77.0,12.0,15.0,2.0,0.0
3559,75.0,12.0,15.0,2.0,0.0
3560,77.0,12.0,15.0,2.0,0.0
3561,75.0,12.0,15.0,2.0,0.0
3562,77.0,12.0,15.0,2.0,0.0
3563,75.0,12.0,15.0,2.0,0.0
3564,77.0,9.0,15.0,2.0,0.0
3565,75.0,12.0,15.0,2.0,0.0
3566,77.0,23.0,15.0,2.0,0.0
3567,75.0,24.0,20.0,2.0,0.0
3568,77.0,24.0,20.0,2.0,0.0
3569,79.0,24.0,20.0,2.0,0.0
3570,80.0,24.0,20.0,2.0,0.0
3571,82.0,24.0,20.0,2.0,0.0
3572,80.0,24.0,20.0,2.0,0.0
3573,79.0,24.0,20.0,2.0,0.0
3574,77.0,24.0,20.0,2.0,0.0
3575,75.0,24.0,20.0,2.0,0.0
3576,74.0,24.0,20.0,2.0,0.0
3577,72.0,24.0,20.0,2.0,0.0
3578,70.0,24.0,20.0,2.0,0.0
3579,68.0,24.0,20.0,2.0,0.0
3580,67.0,24.0,20.0,2.0,0.0
3581,65.0,24.0,20.0,2.0,0.0
3582,63.0,178.0,20.0,2.0,0.0
3583,58.0,38.0,180.0,3.0,0.0
3584,56.0,0.0,180.0,3.0,0.0
3585,53.0,0.0,180.0,3.0,0.0
3586,62.0,24.0,210.0,2.0,0.0
3587,63.0,24.0,20.0,2.0,0.0
3588,62.0,24.0,20.0,2.0,0.0
3589,60.0,24.0,20.0,2.0,0.0
3590,61.0,24.0,20.0,2.0,0.0
3591,63.0,24.0,20.0,2.0,0.0
3592,65.0,24.0,20.0,2.0,0.0
3593,67.0,24.0,20.0,2.0,0.0
3594,68.0,24.0,20.0,2.0,0.0
3595,70.0,24.0,20.0,2.0,0.0
3596,72.0,24.0,20.0,2.0,0.0
3597,74.0,24.0,20.0,2.0,0.0
3598,75.0,24.0,20.0,2.0,0.0
3599,77.0,24.0,20.0,2.0,0.0
3600,79.0,24.0,20.0,2.0,0.0
3601,80.0,46.0,20.0,2.0,0.0
3602,82.0,48.0,60.0,2.0,0.0
3603,84.0,180.0,60.0,2.0,0.0
3604,61.0,0.0,180.0,3.0,0.0
3605,85.0,0.0,180.0,2.0,0.0
3606,51.0,82.0,180.0,3.0,0.0
3607,58.0,0.0,180.0,3.0,0.0
3608,55.0,0.0,180.0,3.0,0.0
3609,85.0,28.0,60.0,2.0,0.0
3610,82.0,13.0,20.0,2.0,0.0
3611,82.0,12.0,15.0,2.0,0.0
3612,84.0,12.0,15.0,2.0,0.0
3613,82.0,12.0,15.0,2.0,0.0
3614,84.0,71.0,15.0,2.0,0.0
3615,85.0,24.0,60.0,2.0,0.0
3616,79.0,13.0,20.0,2.0,0.0
3617,79.0,12.0,15.0,2.0,0.0
3618,80.0,12.0,15.0,2.0,0.0
3619,79.0,12.0,15.0,2.0,0.0
3620,80.0,67.0,15.0,2.0,0.0
3621,82.0,28.0,60.0,2.0,0.0
3622,73.0,13.0,20.0,2.0,0.0
3623,73.0,12.0,15.0,2.0,0.0
3624,75.0,12.0,15.0,2.0,0.0
3625,73.0,12.0,15.0,2.0,0.0
3626,75.0,71.0,15.0,2.0,0.0
3627,77.0,24.0,60.0,2.0,0.0
3628,70.0,13.0,20.0,2.0,0.0
3629,70.0,12.0,15.0,2.0,0.0
3630,72.0,12.0,15.0,2.0,0.0
3631,70.0,12.0,15.0,2.0,0.0
3632,72.0,67.0,15.0,2.0,0.0
3633,73.0,28.0,60.0,2.0,0.0
3634,67.0,13.0,20.0,2.0,0.0
3635,67.0,12.0,15.0,2.0,0.0
3636,68.0,12.0,15.0,2.0,0.0
3637,67.0,12.0,15.0,2.0,0.0
3638,68.0,71.0,15.0,2.0,0.0
3639,70.0,68.0,60.0,2.0,0.0
3640,63.0,94.0,60.0,2.0,0.0
3641,63.0,96.0,90.0,2.0,0.0
3642,58.0,0.0,90.0,3.0,0.0
3643,55.0,0.0,90.0,3.0,0.0
3644,51.0,0.0,90.0,3.0,0.0
3645,59.0,0.0,90.0,3.0,0.0
3646,56.0,0.0,90.0,3.0,0.0
3647,51.0,0.0,90.0,3.0,0.0
3648,63.0,96.0,90.0,2.0,0.0
3649,60.0,0.0,90.0,3.0,0.0
3650,57.0,0.0,90.0,3.0,0.0
3651,51.0,0.0,90.0,3.0,0.0
3652,63.0,428.0,90.0,2.0,0.0
3653,63.0,44.0,420.0,2.0,0.0
3654,61.0,0.0,480.0,3.0,0.0
3655,51.0,12.0,480.0,3.0,0.0
3656,58.0,0.0,480.0,3.0,0.0
3657,67.0,48.0,60.0,2.0,0.0
3658,70.0,48.0,60.0,2.0,0.0
3659,68.0,48.0,60.0,2.0,0.0
3660,67.0,48.0,60.0,2.0,0.0
3661,70.0,48.0,60.0,2.0,0.0
3662,73.0,48.0,60.0,2.0,0.0
3663,72.0,48.0,60.0,2.0,0.0
3664,70.0,48.0,60.0,2.0,0.0
3665,73.0,48.0,60.0,2.0,0.0
3666,77.0,48.0,60.0,2.0,0.0
3667,75.0,144.0,60.0,2.0,0.0
3668,75.0,48.0,150.0,2.0,0.0
3669,74.0,23.0,60.0,2.0,0.0
3670,75.0,73.0,20.0,2.0,0.0
3671,79.0,48.0,60.0,2.0,0.0
3672,82.0,48.0,60.0,2.0,0.0
3673,80.0,48.0,60.0,2.0,0.0
3674,79.0,48.0,60.0,2.0,0.0
3675,77.0,15.0,60.0,2.0,0.0
3676,56.0,3.0,60.0,3.0,0.0
3677,75.0,12.0,15.0,2.0,0.0
3678,77.0,12.0,15.0,2.0,0.0
3679,75.0,9.0,15.0,2.0,0.0
3680,77.0,12.0,15.0,2.0,0.0
3681,60.0,3.0,60.0,3.0,0.0
3682,75.0,12.0,15.0,2.0,0.0
3683,77.0,12.0,15.0,2.0,0.0
3684,75.0,9.0,15.0,2.0,0.0
3685,77.0,45.0,15.0,2.0,0.0
3686,63.0,48.0,60.0,3.0,0.0
3687,60.0,2.0,60.0,3.0,0.0
3688,77.0,46.0,20.0,2.0,0.0
3689,52.0,44.0,60.0,3.0,0.0
3690,73.0,4.0,90.0,2.0,0.0
3691,55.0,48.0,60.0,3.0,0.0
3692,53.0,48.0,60.0,3.0,0.0
3693,72.0,12.0,180.0,2.0,0.0
3694,56.0,48.0,60.0,3.0,0.0
3695,60.0,36.0,60.0,3.0,0.0
3696,53.0,48.0,60.0,3.0,0.0
3697,48.0,44.0,60.0,3.0,0.0
3698,68.0,4.0,90.0,2.0,0.0
3699,51.0,48.0,60.0,3.0,0.0
3700,69.0,0.0,60.0,2.0,0.0
3701,49.0,48.0,60.0,3.0,0.0
3702,70.0,0.0,60.0,2.0,0.0
3703,53.0,48.0,60.0,3.0,0.0
3704,72.0,48.0,60.0,2.0,0.0
3705,58.0,0.0,60.0,3.0,0.0
3706,70.0,0.0,60.0,2.0,0.0
3707,53.0,48.0,60.0,3.0,0.0
3708,49.0,48.0,60.0,3.0,0.0
3709,73.0,0.0,60.0,2.0,0.0
3710,53.0,0.0,60.0,3.0,0.0
3711,70.0,48.0,60.0,2.0,0.0
3712,51.0,0.0,60.0,3.0,0.0
3713,68.0,48.0,60.0,2.0,0.0
3714,67.0,0.0,60.0,2.0,0.0
3715,58.0,48.0,60.0,3.0,0.0
3716,65.0,0.0,60.0,2.0,0.0
3717,61.0,48.0,60.0,3.0,0.0
3718,63.0,0.0,60.0,2.0,0.0
3719,58.0,48.0,60.0,3.0,0.0
3720,75.0,4.0,90.0,2.0,0.0
3721,55.0,44.0,60.0,3.0,0.0
3722,58.0,15.0,60.0,3.0,0.0
3723,56.0,3.0,60.0,3.0,0.0
3724,75.0,12.0,15.0,2.0,0.0
3725,77.0,12.0,15.0,2.0,0.0
3726,75.0,9.0,15.0,2.0,0.0
3727,77.0,12.0,15.0,2.0,0.0
3728,75.0,12.0,15.0,2.0,0.0
3729,60.0,3.0,60.0,3.0,0.0
3730,77.0,12.0,15.0,2.0,0.0
3731,75.0,9.0,15.0,2.0,0.0
3732,77.0,45.0,15.0,2.0,0.0
3733,63.0,48.0,60.0,3.0,0.0
3734,56.0,2.0,60.0,3.0,0.0
3735,77.0,46.0,20.0,2.0,0.0
3736,51.0,44.0,60.0,3.0,0.0
3737,73.0,4.0,90.0,2.0,0.0
3738,55.0,48.0,60.0,3.0,0.0
3739,52.0,48.0,60.0,3.0,0.0
3740,72.0,12.0,180.0,2.0,0.0
3741,58.0,48.0,60.0,3.0,0.0
3742,53.0,36.0,60.0,3.0,0.0
3743,56.0,48.0,60.0,3.0,0.0
3744,68.0,4.0,90.0,2.0,0.0
3745,48.0,44.0,60.0,3.0,0.0
3746,51.0,33.0,60.0,3.0,0.0
3747,49.0,17.0,60.0,3.0,0.0
3748,70.0,15.0,30.0,2.0,0.0
3749,73.0,31.0,30.0,2.0,0.0
3750,58.0,1.0,60.0,3.0,0.0
3751,77.0,47.0,30.0,2.0,0.0
3752,68.0,4.0,90.0,2.0,0.0
3753,51.0,44.0,60.0,3.0,0.0
3754,60.0,48.0,60.0,3.0,0.0
3755,51.0,44.0,60.0,3.0,0.0
3756,67.0,4.0,90.0,2.0,0.0
3757,61.0,92.0,60.0,3.0,0.0
3758,68.0,8.0,180.0,2.0,0.0
3759,60.0,88.0,90.0,3.0,0.0
3760,56.0,0.0,90.0,3.0,0.0
3761,44.0,52.0,90.0,3.0,0.0
3762,75.0,0.0,90.0,0.0,0.0
3763,75.0,44.0,60.0,1.0,0.0
3764,63.0,0.0,90.0,0.0,0.0
3765,63.0,0.0,60.0,5.0,0.0
3766,75.0,0.0,90.0,4.0,0.0
3767,63.0,4.0,90.0,1.0,0.0
3768,61.0,15.0,60.0,5.0,0.0
3769,73.0,0.0,60.0,1.0,0.0
3770,68.0,0.0,90.0,0.0,0.0
3771,68.0,0.0,90.0,1.0,0.0
3772,68.0,0.0,90.0,6.0,0.0
3773,72.0,0.0,90.0,1.0,0.0
3774,75.0,12.0,15.0,4.0,0.0
3775,56.0,4.0,90.0,7.0,0.0
3776,63.0,0.0,90.0,0.0,0.0
3777,60.0,3.0,60.0,5.0,0.0
3778,77.0,12.0,15.0,4.0,0.0
3779,75.0,9.0,15.0,4.0,0.0
3780,77.0,12.0,15.0,4.0,0.0
3781,63.0,48.0,60.0,5.0,0.0
3782,75.0,12.0,15.0,4.0,0.0
3783,77.0,12.0,15.0,4.0,0.0
3784,75.0,5.0,15.0,4.0,0.0
3785,77.0,0.0,15.0,4.0,0.0
3786,68.0,23.0,60.0,5.0,0.0
3787,60.0,27.0,20.0,5.0,0.0
3788,77.0,46.0,20.0,4.0,0.0
3789,63.0,0.0,90.0,6.0,0.0
3790,73.0,0.0,90.0,4.0,0.0
3791,51.0,4.0,90.0,7.0,0.0
3792,58.0,44.0,60.0,5.0,0.0
3793,73.0,0.0,90.0,0.0,0.0
3794,67.0,0.0,90.0,0.0,0.0
3795,70.0,0.0,90.0,1.0,0.0
3796,63.0,0.0,90.0,1.0,0.0
3797,67.0,48.0,60.0,5.0,0.0
3798,72.0,0.0,90.0,4.0,0.0
3799,72.0,0.0,90.0,0.0,0.0
3800,68.0,0.0,90.0,0.0,0.0
3801,56.0,4.0,90.0,1.0,0.0
3802,68.0,0.0,90.0,1.0,0.0
3803,53.0,0.0,90.0,7.0,0.0
3804,56.0,44.0,60.0,5.0,0.0
3805,65.0,0.0,90.0,6.0,0.0
3806,60.0,48.0,60.0,5.0,0.0
3807,65.0,23.0,60.0,5.0,0.0
3808,68.0,73.0,20.0,5.0,0.0
3809,68.0,0.0,90.0,1.0,0.0
3810,63.0,44.0,60.0,5.0,0.0
3811,80.0,0.0,90.0,0.0,0.0
3812,72.0,4.0,90.0,1.0,0.0
3813,63.0,0.0,90.0,0.0,0.0
3814,68.0,0.0,90.0,4.0,0.0
3815,48.0,0.0,90.0,7.0,0.0
3816,60.0,0.0,90.0,6.0,0.0
3817,60.0,48.0,60.0,5.0,0.0
3818,65.0,44.0,60.0,5.0,0.0
3819,77.0,0.0,180.0,0.0,0.0
3820,69.0,0.0,60.0,4.0,0.0
3821,49.0,0.0,90.0,7.0,0.0
3822,61.0,4.0,90.0,6.0,0.0
3823,65.0,12.0,180.0,0.0,0.0
3824,70.0,0.0,180.0,1.0,0.0
3825,70.0,0.0,60.0,4.0,0.0
3826,53.0,23.0,60.0,5.0,0.0
3827,53.0,25.0,20.0,5.0,0.0
3828,72.0,23.0,60.0,4.0,0.0
3829,53.0,13.0,20.0,5.0,0.0
3830,70.0,48.0,60.0,4.0,0.0
3831,73.0,0.0,60.0,0.0,0.0
3832,58.0,0.0,90.0,6.0,0.0
3833,65.0,44.0,60.0,5.0,0.0
3834,70.0,0.0,90.0,1.0,0.0
3835,46.0,0.0,90.0,7.0,0.0
3836,73.0,0.0,60.0,4.0,0.0
3837,61.0,0.0,60.0,5.0,0.0
3838,70.0,0.0,60.0,4.0,0.0
3839,70.0,48.0,60.0,0.0,0.0
3840,60.0,44.0,60.0,5.0,0.0
3841,63.0,12.0,180.0,1.0,0.0
3842,68.0,0.0,60.0,4.0,0.0
3843,51.0,0.0,90.0,7.0,0.0
3844,68.0,0.0,60.0,0.0,0.0
3845,63.0,4.0,90.0,6.0,0.0
3846,75.0,0.0,180.0,1.0,0.0
3847,58.0,0.0,60.0,5.0,0.0
3848,67.0,0.0,60.0,4.0,0.0
3849,67.0,23.0,60.0,0.0,0.0
3850,56.0,23.0,60.0,5.0,0.0
3851,65.0,25.0,20.0,0.0,0.0
3852,65.0,0.0,60.0,4.0,0.0
3853,63.0,13.0,20.0,0.0,0.0
3854,55.0,48.0,60.0,5.0,0.0
3855,63.0,0.0,60.0,4.0,0.0
3856,55.0,0.0,60.0,7.0,0.0
3857,63.0,0.0,90.0,1.0,0.0
3858,67.0,0.0,60.0,6.0,0.0
3859,70.0,44.0,60.0,5.0,0.0
3860,75.0,4.0,90.0,4.0,0.0
3861,70.0,0.0,60.0,1.0,0.0
3862,75.0,0.0,90.0,0.0,0.0
3863,73.0,0.0,90.0,0.0,0.0
3864,63.0,15.0,60.0,6.0,0.0
3865,73.0,0.0,60.0,1.0,0.0
3866,73.0,0.0,60.0,5.0,0.0
3867,51.0,0.0,60.0,7.0,0.0
3868,56.0,4.0,90.0,7.0,0.0
3869,72.0,3.0,60.0,5.0,0.0
3870,72.0,0.0,90.0,0.0,0.0
3871,72.0,0.0,90.0,1.0,0.0
3872,75.0,12.0,15.0,4.0,0.0
3873,75.0,0.0,90.0,0.0,0.0
3874,68.0,0.0,90.0,1.0,0.0
3875,68.0,0.0,90.0,6.0,0.0
3876,77.0,12.0,15.0,4.0,0.0
3877,75.0,9.0,15.0,4.0,0.0
3878,77.0,12.0,15.0,4.0,0.0
3879,68.0,48.0,60.0,5.0,0.0
3880,75.0,12.0,15.0,4.0,0.0
3881,77.0,12.0,15.0,4.0,0.0
3882,75.0,5.0,15.0,4.0,0.0
3883,77.0,0.0,15.0,4.0,0.0
3884,48.0,0.0,90.0,7.0,0.0
3885,60.0,4.0,90.0,6.0,0.0
3886,63.0,44.0,60.0,5.0,0.0
3887,60.0,2.0,60.0,5.0,0.0
3888,77.0,46.0,20.0,4.0,0.0
3889,63.0,0.0,90.0,6.0,0.0
3890,51.0,0.0,90.0,7.0,0.0
3891,73.0,4.0,90.0,1.0,0.0
3892,73.0,0.0,90.0,0.0,0.0
3893,70.0,0.0,90.0,1.0,0.0
3894,79.0,0.0,90.0,0.0,0.0
3895,73.0,0.0,90.0,4.0,0.0
3896,58.0,44.0,60.0,5.0,0.0
3897,67.0,48.0,60.0,5.0,0.0
3898,82.0,4.0,90.0,0.0,0.0
3899,52.0,0.0,90.0,7.0,0.0
3900,64.0,0.0,90.0,6.0,0.0
3901,72.0,0.0,180.0,1.0,0.0
3902,72.0,0.0,90.0,4.0,0.0
3903,72.0,8.0,180.0,0.0,0.0
3904,55.0,44.0,60.0,5.0,0.0
3905,70.0,0.0,90.0,1.0,0.0
3906,58.0,48.0,60.0,5.0,0.0
3907,80.0,0.0,90.0,0.0,0.0
3908,68.0,0.0,90.0,1.0,0.0
3909,53.0,52.0,90.0,7.0,0.0
3910,56.0,23.0,60.0,5.0,0.0
3911,65.0,0.0,90.0,6.0,0.0
3912,68.0,13.0,20.0,5.0,0.0
3913,60.0,0.0,90.0,6.0,0.0
3914,75.0,0.0,90.0,0.0,0.0
3915,63.0,44.0,60.0,5.0,0.0
3916,68.0,0.0,90.0,1.0,0.0
3917,63.0,0.0,90.0,0.0,0.0
3918,68.0,4.0,90.0,4.0,0.0
3919,48.0,0.0,90.0,7.0,0.0
3920,72.0,0.0,90.0,1.0,0.0
3921,60.0,33.0,60.0,5.0,0.0
3922,61.0,0.0,90.0,6.0,0.0
3923,65.0,4.0,90.0,0.0,0.0
3924,65.0,17.0,60.0,5.0,0.0
3925,70.0,0.0,90.0,1.0,0.0
3926,49.0,0.0,90.0,7.0,0.0
3927,73.0,0.0,90.0,0.0,0.0
3928,68.0,8.0,180.0,1.0,0.0
3929,70.0,15.0,30.0,4.0,0.0
3930,73.0,27.0,30.0,4.0,0.0
3931,61.0,1.0,60.0,5.0,0.0
3932,77.0,47.0,30.0,4.0,0.0
3933,72.0,0.0,90.0,0.0,0.0
3934,60.0,36.0,60.0,5.0,0.0
3935,63.0,0.0,90.0,6.0,0.0
3936,68.0,0.0,90.0,4.0,0.0
3937,72.0,0.0,90.0,1.0,0.0
3938,68.0,0.0,90.0,0.0,0.0
3939,51.0,4.0,90.0,7.0,0.0
3940,63.0,15.0,60.0,5.0,0.0
3941,67.0,4.0,90.0,0.0,0.0
3942,61.0,3.0,60.0,5.0,0.0
3943,70.0,0.0,90.0,1.0,0.0
3944,49.0,0.0,90.0,6.0,0.0
3945,70.0,0.0,90.0,0.0,0.0
3946,63.0,0.0,90.0,1.0,0.0
3947,67.0,12.0,15.0,4.0,0.0
3948,39.0,0.0,90.0,7.0,0.0
3949,68.0,12.0,15.0,4.0,0.0
3950,67.0,9.0,15.0,4.0,0.0
3951,68.0,12.0,15.0,4.0,0.0
3952,58.0,23.0,60.0,5.0,0.0
3953,67.0,12.0,15.0,4.0,0.0
3954,68.0,12.0,15.0,4.0,0.0
3955,67.0,5.0,15.0,4.0,0.0
3956,68.0,0.0,15.0,4.0,0.0
3957,51.0,0.0,90.0,5.0,0.0
3958,68.0,48.0,20.0,4.0,0.0
3959,60.0,0.0,90.0,1.0,0.0
3960,68.0,0.0,90.0,0.0,0.0
3961,56.0,27.0,90.0,6.0,0.0
3962,60.0,0.0,90.0,5.0,0.0
3963,68.0,0.0,90.0,1.0,0.0
3964,44.0,0.0,90.0,7.0,0.0
3965,80.0,21.0,20.0,4.0,0.0
3966,80.0,48.0,20.0,4.0,0.0
3967,80.0,48.0,20.0,4.0,0.0
3968,80.0,48.0,20.0,4.0,0.0
3969,80.0,73.0,20.0,4.0,0.0
3970,82.0,23.0,60.0,4.0,0.0
3971,80.0,23.0,60.0,4.0,0.0
3972,68.0,25.0,20.0,5.0,0.0
3973,78.0,0.0,20.0,4.0,0.0
3974,68.0,48.0,20.0,5.0,0.0
3975,77.0,48.0,20.0,4.0,0.0
3976,68.0,0.0,20.0,5.0,0.0
3977,68.0,25.0,20.0,5.0,0.0
3978,78.0,23.0,60.0,4.0,0.0
3979,75.0,48.0,60.0,4.0,0.0
3980,68.0,25.0,20.0,5.0,0.0
3981,78.0,23.0,60.0,4.0,0.0
3982,70.0,0.0,60.0,5.0,0.0
3983,80.0,25.0,20.0,2.0,0.0
3984,68.0,0.0,60.0,5.0,0.0
3985,77.0,23.0,60.0,4.0,0.0
3986,66.0,48.0,20.0,5.0,0.0
3987,75.0,0.0,20.0,4.0,0.0
3988,80.0,0.0,20.0,2.0,0.0
3989,65.0,0.0,20.0,5.0,0.0
3990,80.0,0.0,20.0,2.0,0.0
3991,73.0,48.0,20.0,4.0,0.0
3992,75.0,0.0,60.0,4.0,0.0
3993,80.0,25.0,20.0,2.0,0.0
3994,66.0,23.0,60.0,5.0,0.0
3995,63.0,0.0,60.0,5.0,0.0
3996,72.0,48.0,60.0,4.0,0.0
3997,80.0,25.0,20.0,2.0,0.0
3998,73.0,4.0,90.0,4.0,0.0
3999,66.0,44.0,60.0,5.0,0.0
4000,82.0,0.0,60.0,2.0,0.0
4001,68.0,23.0,60.0,2.0,0.0
4002,80.0,0.0,60.0,2.0,0.0
4003,65.0,0.0,60.0,5.0,0.0
4004,63.0,0.0,20.0,5.0,0.0
4005,68.0,48.0,20.0,2.0,0.0
4006,78.0,0.0,20.0,2.0,0.0
4007,61.0,0.0,20.0,5.0,0.0
4008,77.0,73.0,20.0,2.0,0.0
4009,68.0,0.0,20.0,2.0,0.0
4010,68.0,48.0,60.0,2.0,0.0
4011,78.0,0.0,60.0,2.0,0.0
4012,63.0,0.0,60.0,5.0,0.0
4013,68.0,0.0,60.0,2.0,0.0
4014,60.0,0.0,60.0,5.0,0.0
4015,75.0,48.0,60.0,2.0,0.0
4016,61.0,4.0,90.0,5.0,0.0
4017,78.0,23.0,60.0,2.0,0.0
4018,70.0,0.0,60.0,2.0,0.0
4019,68.0,0.0,60.0,2.0,0.0
4020,56.0,21.0,20.0,3.0,0.0
4021,77.0,23.0,60.0,2.0,0.0
4022,56.0,48.0,20.0,3.0,0.0
4023,66.0,0.0,20.0,2.0,0.0
4024,75.0,0.0,20.0,2.0,0.0
4025,65.0,0.0,20.0,2.0,0.0
4026,73.0,0.0,20.0,2.0,0.0
4027,56.0,48.0,20.0,3.0,0.0
4028,66.0,23.0,60.0,2.0,0.0
4029,75.0,0.0,60.0,2.0,0.0
4030,56.0,25.0,20.0,3.0,0.0
4031,73.0,26.0,60.0,2.0,0.0
4032,65.0,0.0,60.0,2.0,0.0
4033,56.0,25.0,20.0,3.0,0.0
4034,58.0,48.0,60.0,3.0,0.0
4035,61.0,22.0,20.0,2.0,0.0
4036,73.0,19.0,150.0,2.0,0.0
4037,56.0,23.0,60.0,3.0,0.0
4038,54.0,48.0,20.0,3.0,0.0
4039,53.0,21.0,20.0,3.0,0.0
4040,54.0,2.0,60.0,3.0,0.0
4041,75.0,12.0,15.0,2.0,0.0
4042,77.0,8.0,15.0,2.0,0.0
4043,75.0,13.0,15.0,2.0,0.0
4044,77.0,13.0,15.0,2.0,0.0
4045,53.0,3.0,60.0,3.0,0.0
4046,75.0,12.0,15.0,2.0,0.0
4047,77.0,12.0,15.0,2.0,0.0
4048,73.0,9.0,15.0,2.0,0.0
4049,75.0,30.0,15.0,2.0,0.0
4050,61.0,21.0,540.0,6.0,0.0
4051,73.0,5.0,90.0,2.0,0.0
4052,77.0,0.0,90.0,2.0,0.0
4053,65.0,0.0,540.0,5.0,0.0
4054,49.0,32.0,30.0,3.0,0.0
4055,49.0,0.0,540.0,7.0,0.0
4056,68.0,0.0,1140.0,4.0,0.0
4057,53.0,27.0,30.0,3.0,0.0
4058,56.0,32.0,30.0,3.0,0.0
4059,49.0,9.0,30.0,3.0,0.0
4060,73.0,23.0,30.0,2.0,0.0
4061,53.0,32.0,30.0,3.0,0.0
4062,56.0,32.0,30.0,3.0,0.0
4063,49.0,9.0,30.0,3.0,0.0
4064,68.0,23.0,30.0,2.0,0.0
4065,53.0,32.0,30.0,3.0,0.0
4066,56.0,32.0,30.0,3.0,0.0
4067,65.0,0.0,120.0,2.0,0.0
4068,49.0,32.0,30.0,3.0,0.0
4069,53.0,32.0,30.0,3.0,0.0
4070,56.0,32.0,30.0,3.0,0.0
4071,49.0,32.0,30.0,3.0,0.0
4072,68.0,0.0,30.0,2.0,0.0
4073,53.0,32.0,30.0,3.0,0.0
4074,56.0,0.0,30.0,3.0,0.0
4075,73.0,32.0,30.0,2.0,0.0
4076,49.0,0.0,30.0,3.0,0.0
4077,68.0,32.0,30.0,2.0,0.0
4078,53.0,0.0,30.0,3.0,0.0
4079,73.0,11.0,30.0,2.0,0.0
4080,56.0,0.0,30.0,3.0,0.0
4081,77.0,32.0,30.0,2.0,0.0
4082,48.0,32.0,30.0,3.0,0.0
4083,48.0,0.0,540.0,7.0,0.0
4084,78.0,5.0,90.0,2.0,0.0
4085,66.0,0.0,540.0,5.0,0.0
4086,63.0,21.0,540.0,6.0,0.0
4087,51.0,27.0,30.0,3.0,0.0
4088,56.0,32.0,30.0,3.0,0.0
4089,75.0,23.0,30.0,2.0,0.0
4090,48.0,9.0,30.0,3.0,0.0
4091,51.0,32.0,30.0,3.0,0.0
4092,56.0,32.0,30.0,3.0,0.0
4093,72.0,23.0,30.0,2.0,0.0
4094,48.0,9.0,30.0,3.0,0.0
4095,51.0,32.0,30.0,3.0,0.0
4096,56.0,32.0,30.0,3.0,0.0
4097,48.0,32.0,30.0,3.0,0.0
4098,68.0,0.0,120.0,2.0,0.0
4099,51.0,32.0,30.0,3.0,0.0
4100,56.0,32.0,30.0,3.0,0.0
4101,48.0,32.0,30.0,3.0,0.0
4102,51.0,0.0,30.0,3.0,0.0
4103,72.0,32.0,30.0,2.0,0.0
4104,75.0,32.0,30.0,2.0,0.0
4105,56.0,0.0,30.0,3.0,0.0
4106,48.0,0.0,30.0,3.0,0.0
4107,72.0,32.0,30.0,2.0,0.0
4108,73.0,0.0,30.0,2.0,0.0
4109,51.0,11.0,30.0,3.0,0.0
4110,56.0,0.0,30.0,3.0,0.0
4111,78.0,32.0,30.0,2.0,0.0
4112,49.0,0.0,90.0,3.0,0.0
4113,49.0,0.0,90.0,7.0,0.0
4114,61.0,0.0,90.0,6.0,0.0
4115,65.0,0.0,90.0,5.0,0.0
4116,68.0,5.0,90.0,4.0,0.0
4117,77.0,32.0,30.0,2.0,0.0
4118,80.0,27.0,30.0,2.0,0.0
4119,78.0,32.0,30.0,2.0,0.0
4120,77.0,32.0,30.0,2.0,0.0
4121,75.0,32.0,30.0,2.0,0.0
4122,73.0,32.0,30.0,2.0,0.0
4123,51.0,0.0,90.0,3.0,0.0
4124,63.0,0.0,90.0,6.0,0.0
4125,72.0,32.0,30.0,2.0,0.0
4126,66.0,0.0,90.0,5.0,0.0
4127,54.0,0.0,90.0,3.0,0.0
4128,51.0,0.0,90.0,7.0,0.0
4129,72.0,5.0,90.0,4.0,0.0
4130,70.0,27.0,30.0,2.0,0.0
4131,68.0,32.0,30.0,2.0,0.0
4132,53.0,0.0,90.0,7.0,0.0
4133,73.0,0.0,90.0,4.0,0.0
4134,68.0,0.0,90.0,5.0,0.0
4135,65.0,5.0,90.0,6.0,0.0
4136,56.0,0.0,90.0,3.0,0.0
4137,53.0,0.0,90.0,3.0,0.0
4138,73.0,32.0,30.0,2.0,0.0
4139,77.0,27.0,30.0,2.0,0.0
4140,75.0,32.0,30.0,2.0,0.0
4141,73.0,32.0,30.0,2.0,0.0
4142,72.0,32.0,30.0,2.0,0.0
4143,70.0,32.0,30.0,2.0,0.0
4144,68.0,0.0,90.0,4.0,0.0
4145,68.0,32.0,30.0,2.0,0.0
4146,65.0,0.0,90.0,5.0,0.0
4147,41.0,5.0,90.0,3.0,0.0
4148,49.0,0.0,90.0,3.0,0.0
4149,61.0,0.0,90.0,6.0,0.0
4150,41.0,0.0,90.0,7.0,0.0
4151,66.0,27.0,30.0,2.0,0.0
4152,65.0,32.0,30.0,2.0,0.0
4153,42.0,5.0,90.0,3.0,0.0
4154,63.0,32.0,30.0,2.0,0.0
4155,66.0,0.0,90.0,4.0,0.0
4156,58.0,0.0,90.0,6.0,0.0
4157,51.0,0.0,90.0,3.0,0.0
4158,42.0,0.0,90.0,7.0,0.0
4159,63.0,0.0,90.0,5.0,0.0
4160,66.0,27.0,30.0,2.0,0.0
4161,70.0,32.0,30.0,2.0,0.0
4162,65.0,0.0,90.0,4.0,0.0
4163,53.0,0.0,90.0,3.0,0.0
4164,56.0,0.0,180.0,6.0,0.0
4165,68.0,32.0,30.0,2.0,0.0
4166,61.0,5.0,90.0,5.0,0.0
4167,44.0,8.0,180.0,7.0,0.0
4168,65.0,27.0,30.0,2.0,0.0
4169,61.0,32.0,30.0,2.0,0.0
4170,54.0,5.0,90.0,3.0,0.0
4171,60.0,0.0,90.0,5.0,0.0
4172,66.0,32.0,30.0,2.0,0.0
4173,63.0,0.0,90.0,4.0,0.0
4174,63.0,19.0,30.0,2.0,0.0
4175,60.0,32.0,30.0,2.0,0.0
4176,65.0,0.0,90.0,5.0,0.0
4177,77.0,32.0,30.0,2.0,0.0
4178,49.0,5.0,90.0,7.0,0.0
4179,53.0,0.0,90.0,3.0,0.0
4180,49.0,0.0,90.0,3.0,0.0
4181,56.0,0.0,90.0,6.0,0.0
4182,77.0,0.0,90.0,4.0,0.0
4183,80.0,27.0,30.0,2.0,0.0
4184,78.0,32.0,30.0,2.0,0.0
4185,77.0,32.0,30.0,2.0,0.0
4186,75.0,32.0,30.0,2.0,0.0
4187,73.0,32.0,30.0,2.0,0.0
4188,66.0,0.0,90.0,5.0,0.0
4189,63.0,0.0,90.0,6.0,0.0
4190,54.0,0.0,90.0,3.0,0.0
4191,51.0,0.0,90.0,3.0,0.0
4192,72.0,32.0,30.0,2.0,0.0
4193,51.0,0.0,90.0,7.0,0.0
4194,72.0,5.0,90.0,4.0,0.0
4195,70.0,27.0,30.0,2.0,0.0
4196,68.0,32.0,30.0,2.0,0.0
4197,56.0,0.0,90.0,3.0,0.0
4198,53.0,0.0,90.0,7.0,0.0
4199,73.0,5.0,90.0,4.0,0.0
4200,65.0,0.0,90.0,6.0,0.0
4201,73.0,32.0,30.0,2.0,0.0
4202,53.0,0.0,90.0,3.0,0.0
4203,68.0,0.0,90.0,5.0,0.0
4204,77.0,27.0,30.0,2.0,0.0
4205,75.0,32.0,30.0,2.0,0.0
4206,73.0,32.0,30.0,2.0,0.0
4207,72.0,32.0,30.0,2.0,0.0
4208,70.0,32.0,30.0,2.0,0.0
4209,49.0,0.0,90.0,3.0,0.0
4210,61.0,0.0,90.0,6.0,0.0
4211,41.0,0.0,90.0,3.0,0.0
4212,65.0,0.0,90.0,5.0,0.0
4213,68.0,32.0,30.0,2.0,0.0
4214,68.0,0.0,90.0,4.0,0.0
4215,41.0,5.0,90.0,7.0,0.0
4216,66.0,27.0,30.0,2.0,0.0
4217,65.0,32.0,30.0,2.0,0.0
4218,66.0,0.0,90.0,4.0,0.0
4219,63.0,5.0,90.0,5.0,0.0
4220,42.0,0.0,90.0,7.0,0.0
4221,63.0,32.0,30.0,2.0,0.0
4222,51.0,0.0,90.0,3.0,0.0
4223,42.0,0.0,90.0,3.0,0.0
4224,58.0,0.0,90.0,6.0,0.0
4225,66.0,27.0,30.0,2.0,0.0
4226,70.0,32.0,30.0,2.0,0.0
4227,56.0,0.0,90.0,6.0,0.0
4228,53.0,5.0,90.0,3.0,0.0
4229,65.0,0.0,90.0,4.0,0.0
4230,61.0,0.0,90.0,5.0,0.0
4231,44.0,0.0,90.0,7.0,0.0
4232,68.0,32.0,30.0,2.0,0.0
4233,65.0,27.0,30.0,2.0,0.0
4234,61.0,32.0,30.0,2.0,0.0
4235,66.0,9.0,30.0,2.0,0.0
4236,56.0,23.0,30.0,6.0,0.0
4237,44.0,0.0,30.0,7.0,0.0
4238,60.0,0.0,90.0,5.0,0.0
4239,54.0,0.0,90.0,3.0,0.0
4240,63.0,5.0,90.0,4.0,0.0
4241,63.0,27.0,30.0,2.0,0.0
4242,60.0,41.0,30.0,2.0,0.0
4243,61.0,8.0,180.0,2.0,0.0
4244,61.0,0.0,60.0,5.0,0.0
4245,49.0,0.0,180.0,3.0,0.0
4246,49.0,27.0,90.0,7.0,0.0
4247,53.0,0.0,180.0,3.0,0.0
4248,56.0,6.0,30.0,6.0,0.0
4249,61.0,23.0,60.0,4.0,0.0
4250,80.0,21.0,20.0,4.0,0.0
4251,65.0,0.0,20.0,5.0,0.0
4252,53.0,29.0,30.0,6.0,0.0
4253,80.0,19.0,20.0,4.0,0.0
4254,65.0,0.0,20.0,5.0,0.0
4255,77.0,27.0,90.0,0.0,0.0
4256,65.0,0.0,90.0,0.0,0.0
4257,65.0,13.0,20.0,5.0,0.0
4258,80.0,0.0,20.0,4.0,0.0
4259,80.0,0.0,20.0,4.0,0.0
4260,61.0,52.0,90.0,0.0,0.0
4261,65.0,19.0,20.0,5.0,0.0
4262,49.0,29.0,30.0,6.0,0.0
4263,73.0,0.0,90.0,0.0,0.0
4264,80.0,0.0,20.0,4.0,0.0
4265,65.0,21.0,20.0,5.0,0.0
4266,68.0,0.0,90.0,1.0,0.0
4267,80.0,8.0,180.0,0.0,0.0
4268,68.0,0.0,180.0,0.0,0.0
4269,66.0,0.0,60.0,5.0,0.0
4270,82.0,44.0,60.0,4.0,0.0
4271,44.0,0.0,90.0,7.0,0.0
4272,56.0,0.0,90.0,1.0,0.0
4273,44.0,4.0,90.0,6.0,0.0
4274,80.0,23.0,60.0,4.0,0.0
4275,65.0,0.0,60.0,5.0,0.0
4276,68.0,0.0,90.0,1.0,0.0
4277,56.0,0.0,90.0,7.0,0.0
4278,78.0,0.0,20.0,4.0,0.0
4279,63.0,48.0,20.0,5.0,0.0
4280,56.0,44.0,90.0,1.0,0.0
4281,56.0,8.0,120.0,6.0,0.0
4282,77.0,0.0,20.0,4.0,0.0
4283,61.0,13.0,20.0,5.0,0.0
4284,56.0,4.0,90.0,7.0,0.0
4285,78.0,44.0,60.0,0.0,0.0
4286,63.0,0.0,60.0,5.0,0.0
4287,56.0,0.0,90.0,1.0,0.0
4288,75.0,0.0,60.0,0.0,0.0
4289,68.0,0.0,90.0,1.0,0.0
4290,78.0,0.0,60.0,4.0,0.0
4291,72.0,0.0,60.0,0.0,0.0
4292,75.0,0.0,60.0,4.0,0.0
4293,54.0,0.0,60.0,6.0,0.0
4294,60.0,71.0,60.0,5.0,0.0
4295,75.0,0.0,60.0,0.0,0.0
4296,53.0,0.0,90.0,6.0,0.0
4297,49.0,0.0,90.0,7.0,0.0
4298,56.0,0.0,90.0,1.0,0.0
4299,68.0,0.0,90.0,1.0,0.0
4300,73.0,0.0,90.0,4.0,0.0
4301,61.0,0.0,90.0,5.0,0.0
4302,73.0,0.0,90.0,0.0,0.0
4303,68.0,21.0,20.0,2.0,0.0
4304,68.0,48.0,20.0,2.0,0.0
4305,68.0,48.0,20.0,2.0,0.0
4306,68.0,48.0,20.0,2.0,0.0
4307,68.0,73.0,20.0,2.0,0.0
4308,70.0,48.0,60.0,2.0,0.0
4309,68.0,23.0,60.0,2.0,0.0
4310,49.0,27.0,90.0,3.0,0.0
4311,66.0,48.0,20.0,2.0,0.0
4312,56.0,0.0,90.0,3.0,0.0
4313,65.0,21.0,20.0,2.0,0.0
4314,49.0,0.0,90.0,3.0,0.0
4315,56.0,52.0,90.0,3.0,0.0
4316,63.0,48.0,20.0,2.0,0.0
4317,61.0,21.0,20.0,2.0,0.0
4318,65.0,44.0,60.0,2.0,0.0
4319,48.0,0.0,90.0,3.0,0.0
4320,56.0,4.0,90.0,3.0,0.0
4321,75.0,23.0,60.0,2.0,0.0
4322,75.0,48.0,20.0,2.0,0.0
4323,75.0,48.0,20.0,2.0,0.0
4324,75.0,48.0,20.0,2.0,0.0
4325,75.0,73.0,20.0,2.0,0.0
4326,77.0,48.0,60.0,2.0,0.0
4327,75.0,23.0,60.0,2.0,0.0
4328,56.0,27.0,90.0,3.0,0.0
4329,73.0,48.0,20.0,2.0,0.0
4330,48.0,0.0,90.0,3.0,0.0
4331,72.0,21.0,20.0,2.0,0.0
4332,70.0,48.0,20.0,2.0,0.0
4333,48.0,0.0,90.0,3.0,0.0
4334,56.0,52.0,90.0,3.0,0.0
4335,68.0,21.0,20.0,2.0,0.0
4336,51.0,0.0,90.0,3.0,0.0
4337,49.0,0.0,90.0,3.0,0.0
4338,67.0,44.0,60.0,2.0,0.0
4339,46.0,4.0,90.0,3.0,0.0
4340,73.0,23.0,60.0,2.0,0.0
4341,73.0,48.0,20.0,2.0,0.0
4342,73.0,48.0,20.0,2.0,0.0
4343,73.0,48.0,20.0,2.0,0.0
4344,73.0,73.0,20.0,2.0,0.0
4345,75.0,48.0,60.0,2.0,0.0
4346,73.0,23.0,60.0,2.0,0.0
4347,72.0,48.0,20.0,2.0,0.0
4348,51.0,0.0,90.0,3.0,0.0
4349,58.0,27.0,90.0,3.0,0.0
4350,61.0,0.0,90.0,3.0,0.0
4351,70.0,21.0,20.0,2.0,0.0
4352,61.0,52.0,90.0,3.0,0.0
4353,51.0,0.0,90.0,3.0,0.0
4354,68.0,48.0,20.0,2.0,0.0
4355,58.0,0.0,90.0,3.0,0.0
4356,67.0,21.0,20.0,2.0,0.0
4357,82.0,48.0,60.0,2.0,0.0
4358,80.0,23.0,60.0,2.0,0.0
4359,58.0,27.0,90.0,3.0,0.0
4360,56.0,0.0,90.0,3.0,0.0
4361,53.0,0.0,90.0,3.0,0.0
4362,79.0,48.0,20.0,2.0,0.0
4363,77.0,21.0,20.0,2.0,0.0
4364,75.0,48.0,20.0,2.0,0.0
4365,53.0,52.0,90.0,3.0,0.0
4366,56.0,0.0,90.0,3.0,0.0
4367,58.0,0.0,90.0,3.0,0.0
4368,74.0,21.0,20.0,2.0,0.0
4369,82.0,48.0,60.0,2.0,0.0
4370,73.0,92.0,60.0,2.0,0.0
4371,63.0,0.0,90.0,3.0,0.0
4372,55.0,0.0,90.0,3.0,0.0
4373,73.0,15.0,90.0,2.0,0.0
4374,56.0,0.0,90.0,3.0,0.0
4375,63.0,6.0,90.0,3.0,0.0
4376,73.0,15.0,15.0,2.0,0.0
4377,75.0,13.0,15.0,2.0,0.0
4378,73.0,12.0,15.0,2.0,0.0
4379,75.0,12.0,15.0,2.0,0.0
4380,73.0,12.0,15.0,2.0,0.0
4381,75.0,8.0,15.0,2.0,0.0
4382,72.0,9.0,15.0,2.0,0.0
4383,73.0,69.0,15.0,2.0,0.0
4384,70.0,0.0,180.0,2.0,0.0
4385,55.0,35.0,180.0,3.0,0.0
4386,51.0,0.0,180.0,3.0,0.0
4387,51.0,48.0,20.0,7.0,0.0
4388,75.0,0.0,20.0,5.0,0.0
4389,75.0,0.0,20.0,4.0,0.0
4390,63.0,0.0,20.0,6.0,0.0
4391,75.0,0.0,20.0,0.0,0.0
4392,63.0,0.0,20.0,6.0,0.0
4393,51.0,0.0,20.0,7.0,0.0
4394,75.0,0.0,20.0,5.0,0.0
4395,75.0,0.0,20.0,4.0,0.0
4396,75.0,48.0,20.0,0.0,0.0
4397,51.0,0.0,20.0,7.0,0.0
4398,75.0,0.0,20.0,0.0,0.0
4399,75.0,0.0,20.0,5.0,0.0
4400,75.0,0.0,20.0,4.0,0.0
4401,63.0,13.0,20.0,6.0,0.0
4402,51.0,0.0,20.0,7.0,0.0
4403,75.0,0.0,20.0,5.0,0.0
4404,75.0,0.0,20.0,4.0,0.0
4405,63.0,0.0,20.0,6.0,0.0
4406,75.0,48.0,20.0,0.0,0.0
4407,51.0,0.0,20.0,7.0,0.0
4408,63.0,0.0,20.0,6.0,0.0
4409,75.0,0.0,20.0,5.0,0.0
4410,75.0,0.0,20.0,4.0,0.0
4411,75.0,73.0,20.0,0.0,0.0
4412,77.0,0.0,60.0,4.0,0.0
4413,77.0,0.0,60.0,5.0,0.0
4414,65.0,0.0,60.0,6.0,0.0
4415,77.0,0.0,60.0,0.0,0.0
4416,53.0,48.0,60.0,7.0,0.0
4417,51.0,0.0,60.0,7.0,0.0
4418,75.0,0.0,60.0,4.0,0.0
4419,75.0,23.0,60.0,0.0,0.0
4420,63.0,0.0,60.0,6.0,0.0
4421,75.0,0.0,60.0,5.0,0.0
4422,73.0,0.0,20.0,0.0,0.0
4423,73.0,0.0,20.0,5.0,0.0
4424,73.0,0.0,20.0,4.0,0.0
4425,61.0,48.0,20.0,6.0,0.0
4426,49.0,0.0,20.0,7.0,0.0
4427,72.0,0.0,20.0,0.0,0.0
4428,48.0,0.0,20.0,7.0,0.0
4429,72.0,48.0,20.0,4.0,0.0
4430,60.0,0.0,20.0,6.0,0.0
4431,72.0,0.0,20.0,5.0,0.0
4432,70.0,25.0,20.0,5.0,0.0
4433,70.0,23.0,60.0,0.0,0.0
4434,58.0,0.0,20.0,6.0,0.0
4435,70.0,0.0,20.0,4.0,0.0
4436,46.0,0.0,20.0,7.0,0.0
4437,68.0,0.0,20.0,4.0,0.0
4438,44.0,0.0,20.0,7.0,0.0
4439,56.0,25.0,20.0,6.0,0.0
4440,68.0,9.0,60.0,0.0,0.0
4441,68.0,0.0,20.0,5.0,0.0
4442,74.0,0.0,15.0,4.0,0.0
4443,50.0,83.0,15.0,7.0,0.0
4444,62.0,0.0,15.0,6.0,0.0
4445,74.0,0.0,15.0,5.0,0.0
4446,74.0,0.0,15.0,0.0,0.0
4447,63.0,96.0,90.0,6.0,0.0
4448,75.0,0.0,90.0,5.0,0.0
4449,75.0,0.0,90.0,4.0,0.0
4450,75.0,0.0,90.0,0.0,0.0
4451,51.0,0.0,90.0,7.0,0.0
4452,63.0,0.0,90.0,0.0,0.0
4453,63.0,0.0,90.0,4.0,0.0
4454,39.0,170.0,90.0,7.0,0.0
4455,63.0,0.0,90.0,5.0,0.0
4456,51.0,0.0,90.0,6.0,0.0
4457,63.0,0.0,60.0,2.0,0.0
4458,75.0,28.0,60.0,2.0,0.0
4459,72.0,0.0,20.0,2.0,0.0
4460,60.0,90.0,20.0,2.0,0.0
4461,48.0,88.0,90.0,7.0,0.0
4462,68.0,8.0,180.0,2.0,0.0
4463,75.0,0.0,90.0,4.0,0.0
4464,44.0,0.0,90.0,6.0,0.0
4465,63.0,0.0,90.0,5.0,0.0
4466,80.0,0.0,180.0,2.0,0.0
4467,56.0,74.0,90.0,6.0,0.0
4468,72.0,0.0,90.0,4.0,0.0
4469,44.0,0.0,90.0,7.0,0.0
4470,60.0,0.0,90.0,5.0,0.0
4471,65.0,0.0,60.0,2.0,0.0
4472,77.0,28.0,60.0,2.0,0.0
4473,61.0,0.0,20.0,2.0,0.0
4474,73.0,90.0,20.0,2.0,0.0
4475,80.0,8.0,180.0,2.0,0.0
4476,44.0,0.0,90.0,6.0,0.0
4477,73.0,88.0,90.0,4.0,0.0
4478,68.0,0.0,180.0,2.0,0.0
4479,53.0,0.0,90.0,7.0,0.0
4480,61.0,0.0,90.0,5.0,0.0
4481,49.0,0.0,90.0,7.0,0.0
4482,56.0,0.0,90.0,6.0,0.0
4483,77.0,0.0,90.0,4.0,0.0
4484,65.0,27.0,90.0,5.0,0.0
4485,56.0,0.0,20.0,6.0,0.0
4486,75.0,0.0,20.0,4.0,0.0
4487,63.0,0.0,60.0,2.0,0.0
4488,75.0,28.0,60.0,2.0,0.0
4489,63.0,0.0,20.0,5.0,0.0
4490,48.0,47.0,20.0,7.0,0.0
4491,72.0,0.0,20.0,2.0,0.0
4492,60.0,21.0,20.0,2.0,0.0
4493,65.0,0.0,20.0,5.0,0.0
4494,77.0,28.0,60.0,2.0,0.0
4495,77.0,47.0,20.0,4.0,0.0
4496,65.0,0.0,60.0,2.0,0.0
4497,49.0,0.0,20.0,7.0,0.0
4498,56.0,0.0,20.0,6.0,0.0
4499,73.0,21.0,20.0,2.0,0.0
4500,61.0,0.0,20.0,2.0,0.0
4501,50.0,0.0,20.0,7.0,0.0
4502,70.0,0.0,60.0,2.0,0.0
4503,58.0,47.0,20.0,6.0,0.0
4504,58.0,28.0,60.0,2.0,0.0
4505,68.0,0.0,20.0,4.0,0.0
4506,63.0,0.0,20.0,5.0,0.0
4507,68.0,46.0,20.0,2.0,0.0
4508,56.0,0.0,20.0,2.0,0.0
4509,67.0,28.0,60.0,2.0,0.0
4510,55.0,0.0,60.0,2.0,0.0
4511,67.0,0.0,120.0,4.0,0.0
4512,51.0,22.0,60.0,7.0,0.0
4513,63.0,52.0,120.0,5.0,0.0
4514,58.0,0.0,120.0,6.0,0.0
4515,51.0,0.0,20.0,2.0,0.0
4516,63.0,38.0,20.0,2.0,0.0
4517,73.0,0.0,150.0,2.0,0.0
4518,61.0,44.0,150.0,2.0,0.0
4519,58.0,4.0,90.0,7.0,0.0
4520,67.0,0.0,60.0,5.0,0.0
4521,70.0,48.0,60.0,4.0,0.0
4522,55.0,0.0,60.0,6.0,0.0
4523,70.0,0.0,90.0,5.0,0.0
4524,73.0,0.0,90.0,4.0,0.0
4525,51.0,0.0,90.0,6.0,0.0
4526,55.0,4.0,90.0,7.0,0.0
4527,58.0,0.0,60.0,2.0,0.0
4528,70.0,70.0,60.0,2.0,0.0
4529,75.0,28.0,60.0,2.0,0.0
4530,63.0,0.0,60.0,2.0,0.0
4531,72.0,0.0,20.0,2.0,0.0
4532,60.0,90.0,20.0,2.0,0.0
4533,44.0,0.0,90.0,6.0,0.0
4534,75.0,0.0,90.0,4.0,0.0
4535,60.0,88.0,90.0,7.0,0.0
4536,63.0,0.0,90.0,5.0,0.0
4537,68.0,8.0,180.0,2.0,0.0
4538,80.0,0.0,180.0,2.0,0.0
4539,72.0,0.0,90.0,4.0,0.0
4540,60.0,0.0,90.0,5.0,0.0
4541,56.0,0.0,90.0,7.0,0.0
4542,56.0,74.0,90.0,6.0,0.0
4543,77.0,28.0,60.0,2.0,0.0
4544,65.0,0.0,60.0,2.0,0.0
4545,61.0,90.0,20.0,2.0,0.0
4546,73.0,0.0,20.0,2.0,0.0
4547,73.0,0.0,90.0,4.0,0.0
4548,61.0,88.0,90.0,5.0,0.0
4549,80.0,8.0,180.0,2.0,0.0
4550,68.0,0.0,180.0,2.0,0.0
4551,44.0,0.0,90.0,6.0,0.0
4552,53.0,0.0,90.0,7.0,0.0
4553,77.0,0.0,90.0,4.0,0.0
4554,65.0,0.0,90.0,5.0,0.0
4555,56.0,74.0,90.0,6.0,0.0
4556,49.0,0.0,90.0,7.0,0.0
4557,48.0,0.0,90.0,7.0,0.0
4558,56.0,6.0,90.0,6.0,0.0
4559,56.0,0.0,90.0,5.0,0.0
4560,63.0,22.0,60.0,2.0,0.0
4561,68.0,0.0,150.0,4.0,0.0
4562,75.0,0.0,60.0,2.0,0.0
4563,76.0,68.0,20.0,2.0,0.0
4564,64.0,0.0,20.0,2.0,0.0
4565,77.0,0.0,60.0,2.0,0.0
4566,65.0,0.0,60.0,2.0,0.0
4567,49.0,0.0,60.0,7.0,0.0
4568,56.0,15.0,60.0,6.0,0.0
4569,61.0,0.0,60.0,5.0,0.0
4570,67.0,0.0,20.0,2.0,0.0
4571,58.0,0.0,15.0,5.0,0.0
4572,61.0,0.0,15.0,6.0,0.0
4573,79.0,0.0,20.0,2.0,0.0
4574,51.0,13.0,15.0,7.0,0.0
4575,73.0,68.0,20.0,4.0,0.0
4576,60.0,0.0,60.0,6.0,0.0
4577,68.0,0.0,60.0,2.0,0.0
4578,80.0,0.0,60.0,2.0,0.0
4579,72.0,28.0,60.0,4.0,0.0
4580,56.0,0.0,60.0,5.0,0.0
4581,53.0,0.0,60.0,7.0,0.0
4582,73.0,0.0,20.0,4.0,0.0
4583,65.0,0.0,20.0,5.0,0.0
4584,82.0,0.0,20.0,2.0,0.0
4585,61.0,0.0,20.0,6.0,0.0
4586,49.0,90.0,20.0,7.0,0.0
4587,70.0,0.0,20.0,2.0,0.0
4588,60.0,0.0,90.0,6.0,0.0
4589,80.0,0.0,90.0,2.0,0.0
4590,51.0,35.0,180.0,7.0,0.0
4591,72.0,0.0,90.0,4.0,0.0
4592,68.0,52.0,90.0,2.0,0.0
4593,63.0,0.0,180.0,5.0,0.0
4594,67.0,0.0,60.0,2.0,0.0
4595,79.0,0.0,60.0,2.0,0.0
4596,70.0,0.0,60.0,4.0,0.0
4597,58.0,23.0,60.0,6.0,0.0
4598,63.0,13.0,20.0,2.0,0.0
4599,65.0,48.0,20.0,2.0,0.0
4600,67.0,51.0,20.0,2.0,0.0
4601,68.0,24.0,20.0,2.0,0.0
4602,56.0,35.0,180.0,3.0,0.0
4603,63.0,24.0,20.0,2.0,0.0
4604,60.0,24.0,20.0,2.0,0.0
4605,63.0,21.0,20.0,2.0,0.0
4606,68.0,48.0,20.0,2.0,0.0
4607,63.0,13.0,20.0,2.0,0.0
4608,68.0,0.0,20.0,2.0,0.0
4609,67.0,0.0,20.0,2.0,0.0
4610,70.0,48.0,20.0,2.0,0.0
4611,68.0,51.0,20.0,2.0,0.0
4612,72.0,0.0,20.0,2.0,0.0
4613,70.0,24.0,20.0,2.0,0.0
4614,51.0,35.0,180.0,3.0,0.0
4615,67.0,24.0,20.0,2.0,0.0
4616,63.0,24.0,20.0,2.0,0.0
4617,67.0,21.0,20.0,2.0,0.0
4618,70.0,48.0,20.0,2.0,0.0
4619,63.0,13.0,20.0,2.0,0.0
4620,63.0,48.0,20.0,2.0,0.0
4621,67.0,0.0,20.0,2.0,0.0
4622,65.0,51.0,20.0,2.0,0.0
4623,68.0,0.0,20.0,2.0,0.0
4624,51.0,35.0,180.0,3.0,0.0
4625,70.0,24.0,20.0,2.0,0.0
4626,67.0,24.0,20.0,2.0,0.0
4627,63.0,24.0,20.0,2.0,0.0
4628,67.0,21.0,20.0,2.0,0.0
4629,70.0,48.0,20.0,2.0,0.0
4630,67.0,13.0,20.0,2.0,0.0
4631,70.0,0.0,20.0,2.0,0.0
4632,68.0,48.0,20.0,2.0,0.0
4633,72.0,0.0,20.0,2.0,0.0
4634,70.0,0.0,20.0,2.0,0.0
4635,73.0,51.0,20.0,2.0,0.0
4636,72.0,24.0,20.0,2.0,0.0
4637,44.0,35.0,180.0,3.0,0.0
4638,68.0,24.0,20.0,2.0,0.0
4639,63.0,24.0,20.0,2.0,0.0
4640,68.0,21.0,20.0,2.0,0.0
4641,72.0,48.0,20.0,2.0,0.0
4642,72.0,0.0,20.0,2.0,0.0
4643,75.0,13.0,20.0,2.0,0.0
4644,73.0,48.0,20.0,2.0,0.0
4645,77.0,0.0,20.0,2.0,0.0
4646,75.0,51.0,20.0,2.0,0.0
4647,79.0,0.0,20.0,2.0,0.0
4648,56.0,35.0,180.0,3.0,0.0
4649,80.0,24.0,20.0,2.0,0.0
4650,75.0,24.0,20.0,2.0,0.0
4651,72.0,24.0,20.0,2.0,0.0
4652,75.0,21.0,20.0,2.0,0.0
4653,80.0,48.0,20.0,2.0,0.0
4654,68.0,0.0,20.0,2.0,0.0
4655,72.0,13.0,20.0,2.0,0.0
4656,73.0,0.0,20.0,2.0,0.0
4657,70.0,48.0,20.0,2.0,0.0
4658,72.0,51.0,20.0,2.0,0.0
4659,75.0,0.0,20.0,2.0,0.0
4660,77.0,24.0,20.0,2.0,0.0
4661,49.0,35.0,180.0,3.0,0.0
4662,73.0,24.0,20.0,2.0,0.0
4663,70.0,24.0,20.0,2.0,0.0
4664,73.0,21.0,20.0,2.0,0.0
4665,77.0,48.0,20.0,2.0,0.0
4666,67.0,13.0,20.0,2.0,0.0
4667,70.0,0.0,20.0,2.0,0.0
4668,72.0,48.0,20.0,2.0,0.0
4669,68.0,0.0,20.0,2.0,0.0
4670,70.0,51.0,20.0,2.0,0.0
4671,73.0,0.0,20.0,2.0,0.0
4672,75.0,24.0,20.0,2.0,0.0
4673,48.0,6.0,90.0,3.0,0.0
4674,72.0,24.0,20.0,2.0,0.0
4675,68.0,18.0,20.0,2.0,0.0
4676,72.0,21.0,20.0,2.0,0.0
4677,75.0,48.0,20.0,2.0,0.0
4678,60.0,0.0,20.0,3.0,0.0
4679,75.0,51.0,20.0,2.0,0.0
4680,61.0,2.0,60.0,3.0,0.0
4681,77.0,22.0,20.0,2.0,0.0
4682,75.0,24.0,20.0,2.0,0.0
4683,73.0,22.0,20.0,2.0,0.0
4684,65.0,2.0,60.0,3.0,0.0
4685,72.0,90.0,20.0,2.0,0.0
4686,72.0,0.0,90.0,2.0,0.0
4687,68.0,0.0,90.0,2.0,0.0
4688,63.0,52.0,90.0,3.0,0.0
4689,51.0,4.0,90.0,3.0,0.0
4690,67.0,23.0,60.0,2.0,0.0
4691,70.0,0.0,60.0,2.0,0.0
4692,51.0,0.0,20.0,5.0,0.0
4693,63.0,0.0,20.0,0.0,0.0
4694,51.0,21.0,20.0,4.0,0.0
4695,63.0,0.0,20.0,2.0,0.0
4696,51.0,0.0,20.0,6.0,0.0
4697,63.0,0.0,20.0,1.0,0.0
4698,62.0,0.0,20.0,0.0,0.0
4699,63.0,0.0,20.0,2.0,0.0
4700,50.0,0.0,20.0,6.0,0.0
4701,63.0,0.0,20.0,1.0,0.0
4702,51.0,0.0,20.0,5.0,0.0
4703,65.0,25.0,20.0,0.0,0.0
4704,53.0,0.0,20.0,4.0,0.0
4705,51.0,0.0,20.0,5.0,0.0
4706,63.0,25.0,20.0,2.0,0.0
4707,49.0,0.0,20.0,6.0,0.0
4708,67.0,0.0,20.0,0.0,0.0
4709,63.0,0.0,20.0,1.0,0.0
4710,61.0,0.0,20.0,0.0,0.0
4711,55.0,0.0,20.0,4.0,0.0
4712,56.0,24.0,20.0,4.0,0.0
4713,68.0,0.0,90.0,0.0,0.0
4714,60.0,0.0,90.0,0.0,0.0
4715,51.0,0.0,120.0,5.0,0.0
4716,44.0,12.0,180.0,3.0,0.0
4717,63.0,0.0,90.0,1.0,0.0
4718,56.0,0.0,90.0,1.0,0.0
4719,48.0,8.0,120.0,6.0,0.0
4720,63.0,6.0,90.0,2.0,0.0
4721,44.0,0.0,90.0,7.0,0.0
4722,51.0,24.0,20.0,4.0,0.0
4723,53.0,18.0,20.0,4.0,0.0
4724,51.0,21.0,20.0,4.0,0.0
4725,56.0,17.0,20.0,4.0,0.0
4726,63.0,23.0,60.0,2.0,0.0
4727,48.0,0.0,20.0,6.0,0.0
4728,63.0,0.0,20.0,0.0,0.0
4729,75.0,13.0,20.0,2.0,0.0
4730,60.0,23.0,60.0,1.0,0.0
4731,51.0,0.0,20.0,5.0,0.0
4732,56.0,0.0,20.0,4.0,0.0
4733,68.0,0.0,20.0,0.0,0.0
4734,68.0,0.0,20.0,1.0,0.0
4735,75.0,0.0,20.0,2.0,0.0
4736,63.0,23.0,60.0,1.0,0.0
4737,70.0,0.0,20.0,0.0,0.0
4738,55.0,0.0,20.0,5.0,0.0
4739,58.0,0.0,20.0,4.0,0.0
4740,67.0,0.0,20.0,0.0,0.0
4741,46.0,0.0,20.0,6.0,0.0
4742,70.0,25.0,20.0,1.0,0.0
4743,56.0,0.0,20.0,5.0,0.0
4744,72.0,0.0,20.0,1.0,0.0
4745,68.0,15.0,60.0,1.0,0.0
4746,44.0,25.0,20.0,6.0,0.0
4747,60.0,0.0,20.0,4.0,0.0
4748,72.0,0.0,20.0,0.0,0.0
4749,75.0,0.0,20.0,2.0,0.0
4750,68.0,0.0,20.0,0.0,0.0
4751,75.0,11.0,15.0,2.0,0.0
4752,67.0,0.0,90.0,0.0,0.0
4753,51.0,6.0,90.0,7.0,0.0
4754,63.0,0.0,90.0,1.0,0.0
4755,51.0,12.0,180.0,3.0,0.0
4756,58.0,1.0,20.0,4.0,0.0
4757,70.0,0.0,90.0,0.0,0.0
4758,70.0,0.0,90.0,1.0,0.0
4759,55.0,0.0,120.0,5.0,0.0
4760,51.0,11.0,120.0,6.0,0.0
4761,77.0,12.0,15.0,2.0,0.0
4762,75.0,11.0,15.0,2.0,0.0
4763,55.0,1.0,20.0,4.0,0.0
4764,77.0,12.0,15.0,2.0,0.0
4765,75.0,11.0,15.0,2.0,0.0
4766,51.0,1.0,20.0,4.0,0.0
4767,77.0,12.0,15.0,2.0,0.0
4768,55.0,1.0,20.0,4.0,0.0
4769,75.0,5.0,15.0,2.0,0.0
4770,77.0,12.0,15.0,2.0,0.0
4771,75.0,8.0,15.0,2.0,0.0
4772,58.0,4.0,20.0,4.0,0.0
4773,77.0,12.0,15.0,2.0,0.0
4774,75.0,1.0,15.0,2.0,0.0
4775,77.0,12.0,15.0,2.0,0.0
4776,51.0,0.0,20.0,4.0,0.0
4777,51.0,0.0,20.0,5.0,0.0
4778,63.0,0.0,20.0,1.0,0.0
4779,75.0,8.0,15.0,2.0,0.0
4780,51.0,0.0,20.0,6.0,0.0
4781,63.0,0.0,20.0,0.0,0.0
4782,77.0,8.0,15.0,2.0,0.0
4783,75.0,1.0,15.0,2.0,0.0
4784,77.0,13.0,15.0,2.0,0.0
4785,67.0,0.0,20.0,0.0,0.0
4786,51.0,0.0,20.0,6.0,0.0
4787,55.0,0.0,20.0,4.0,0.0
4788,63.0,0.0,20.0,0.0,0.0
4789,75.0,8.0,15.0,2.0,0.0
4790,63.0,0.0,20.0,1.0,0.0
4791,51.0,4.0,20.0,5.0,0.0
4792,77.0,12.0,15.0,2.0,0.0
4793,75.0,9.0,15.0,2.0,0.0
4794,77.0,12.0,15.0,2.0,0.0
4795,65.0,0.0,20.0,0.0,0.0
4796,75.0,8.0,15.0,2.0,0.0
4797,68.0,0.0,20.0,0.0,0.0
4798,51.0,0.0,20.0,6.0,0.0
4799,53.0,0.0,20.0,5.0,0.0
4800,56.0,0.0,20.0,4.0,0.0
4801,63.0,4.0,20.0,1.0,0.0
4802,77.0,12.0,15.0,2.0,0.0
4803,75.0,9.0,15.0,2.0,0.0
4804,77.0,12.0,15.0,2.0,0.0
4805,70.0,6.0,90.0,0.0,0.0
4806,51.0,0.0,120.0,6.0,0.0
4807,39.0,0.0,90.0,7.0,0.0
4808,67.0,0.0,90.0,0.0,0.0
4809,55.0,11.0,120.0,5.0,0.0
4810,75.0,11.0,15.0,2.0,0.0
4811,63.0,0.0,90.0,1.0,0.0
4812,58.0,1.0,20.0,4.0,0.0
4813,77.0,12.0,15.0,2.0,0.0
4814,75.0,11.0,15.0,2.0,0.0
4815,55.0,1.0,20.0,4.0,0.0
4816,77.0,12.0,15.0,2.0,0.0
4817,75.0,11.0,15.0,2.0,0.0
4818,51.0,1.0,20.0,4.0,0.0
4819,77.0,12.0,15.0,2.0,0.0
4820,75.0,5.0,15.0,2.0,0.0
4821,55.0,1.0,20.0,4.0,0.0
4822,77.0,12.0,15.0,2.0,0.0
4823,75.0,8.0,15.0,2.0,0.0
4824,58.0,4.0,20.0,4.0,0.0
4825,77.0,12.0,15.0,2.0,0.0
4826,75.0,1.0,15.0,2.0,0.0
4827,77.0,12.0,15.0,2.0,0.0
4828,58.0,4.0,20.0,4.0,0.0
4829,70.0,0.0,20.0,1.0,0.0
4830,49.0,0.0,20.0,6.0,0.0
4831,55.0,0.0,20.0,5.0,0.0
4832,63.0,0.0,20.0,1.0,0.0
4833,70.0,0.0,20.0,0.0,0.0
4834,75.0,8.0,15.0,2.0,0.0
4835,77.0,12.0,15.0,2.0,0.0
4836,75.0,12.0,15.0,2.0,0.0
4837,77.0,12.0,15.0,2.0,0.0
4838,72.0,0.0,20.0,0.0,0.0
4839,72.0,0.0,20.0,1.0,0.0
4840,68.0,0.0,20.0,1.0,0.0
4841,48.0,4.0,20.0,6.0,0.0
4842,56.0,0.0,20.0,5.0,0.0
4843,75.0,8.0,15.0,2.0,0.0
4844,60.0,0.0,20.0,4.0,0.0
4845,68.0,0.0,20.0,0.0,0.0
4846,77.0,12.0,15.0,2.0,0.0
4847,75.0,12.0,15.0,2.0,0.0
4848,77.0,8.0,15.0,2.0,0.0
4849,75.0,12.0,15.0,2.0,0.0
4850,70.0,0.0,20.0,1.0,0.0
4851,73.0,0.0,20.0,1.0,0.0
4852,61.0,0.0,20.0,4.0,0.0
4853,58.0,0.0,20.0,5.0,0.0
4854,55.0,0.0,20.0,6.0,0.0
4855,70.0,3.0,20.0,0.0,0.0
4856,73.0,0.0,20.0,0.0,0.0
4857,77.0,24.0,15.0,2.0,0.0
4858,74.0,24.0,20.0,2.0,0.0
4859,75.0,0.0,90.0,2.0,0.0
4860,44.0,6.0,90.0,7.0,0.0
4861,72.0,0.0,90.0,0.0,0.0
4862,56.0,8.0,180.0,6.0,0.0
4863,72.0,0.0,90.0,1.0,0.0
4864,60.0,24.0,20.0,4.0,0.0
4865,44.0,0.0,180.0,3.0,0.0
4866,68.0,0.0,90.0,1.0,0.0
4867,68.0,0.0,90.0,0.0,0.0
4868,56.0,0.0,90.0,5.0,0.0
4869,56.0,24.0,20.0,4.0,0.0
4870,51.0,18.0,20.0,4.0,0.0
4871,56.0,24.0,20.0,4.0,0.0
4872,51.0,6.0,90.0,5.0,0.0
4873,60.0,8.0,30.0,4.0,0.0
4874,68.0,16.0,20.0,2.0,0.0
4875,63.0,24.0,20.0,2.0,0.0
4876,60.0,10.0,20.0,2.0,0.0
4877,63.0,24.0,20.0,2.0,0.0
4878,68.0,24.0,20.0,2.0,0.0
4879,63.0,24.0,20.0,2.0,0.0
4880,60.0,24.0,20.0,2.0,0.0
4881,63.0,24.0,20.0,2.0,0.0
4882,63.0,22.0,20.0,4.0,0.0
4883,68.0,2.0,60.0,2.0,0.0
4884,60.0,0.0,90.0,5.0,0.0
4885,56.0,0.0,180.0,3.0,0.0
4886,44.0,4.0,90.0,7.0,0.0
4887,60.0,8.0,180.0,3.0,0.0
4888,56.0,0.0,90.0,6.0,0.0
4889,60.0,24.0,20.0,4.0,0.0
4890,55.0,18.0,20.0,4.0,0.0
4891,63.0,2.0,60.0,2.0,0.0
4892,60.0,24.0,20.0,4.0,0.0
4893,48.0,6.0,90.0,6.0,0.0
4894,56.0,0.0,90.0,5.0,0.0
4895,72.0,16.0,20.0,2.0,0.0
4896,63.0,8.0,30.0,4.0,0.0
4897,68.0,24.0,20.0,2.0,0.0
4898,63.0,10.0,20.0,2.0,0.0
4899,68.0,24.0,20.0,2.0,0.0
4900,72.0,24.0,20.0,2.0,0.0
4901,68.0,24.0,20.0,2.0,0.0
4902,63.0,24.0,20.0,2.0,0.0
4903,68.0,24.0,20.0,2.0,0.0
4904,56.0,0.0,180.0,3.0,0.0
4905,60.0,0.0,180.0,3.0,0.0
4906,63.0,8.0,180.0,3.0,0.0
4907,60.0,0.0,90.0,6.0,0.0
4908,44.0,4.0,90.0,7.0,0.0
4909,72.0,2.0,60.0,2.0,0.0
4910,63.0,0.0,90.0,5.0,0.0
4911,68.0,22.0,20.0,4.0,0.0
4912,63.0,24.0,20.0,4.0,0.0
4913,60.0,18.0,20.0,4.0,0.0
4914,68.0,2.0,60.0,2.0,0.0
4915,63.0,24.0,20.0,4.0,0.0
4916,75.0,16.0,20.0,2.0,0.0
4917,68.0,8.0,30.0,4.0,0.0
4918,51.0,0.0,90.0,6.0,0.0
4919,60.0,6.0,90.0,5.0,0.0
4920,72.0,24.0,20.0,2.0,0.0
4921,68.0,10.0,20.0,2.0,0.0
4922,72.0,24.0,20.0,2.0,0.0
4923,75.0,24.0,20.0,2.0,0.0
4924,72.0,24.0,20.0,2.0,0.0
4925,68.0,24.0,20.0,2.0,0.0
4926,72.0,24.0,20.0,2.0,0.0
4927,48.0,6.0,90.0,3.0,0.0
4928,75.0,24.0,20.0,2.0,0.0
4929,72.0,24.0,20.0,2.0,0.0
4930,68.0,11.0,20.0,2.0,0.0
4931,56.0,0.0,15.0,5.0,0.0
4932,63.0,40.0,20.0,2.0,0.0
4933,63.0,0.0,15.0,4.0,0.0
4934,56.0,0.0,15.0,6.0,0.0
4935,48.0,7.0,15.0,7.0,0.0
4936,68.0,50.0,30.0,4.0,0.0
4937,60.0,0.0,30.0,5.0,0.0
4938,72.0,19.0,90.0,2.0,0.0
4939,51.0,0.0,30.0,7.0,0.0
4940,51.0,0.0,90.0,3.0,0.0
4941,56.0,0.0,90.0,3.0,0.0
4942,51.0,0.0,30.0,6.0,0.0
4943,51.0,9.0,30.0,6.0,0.0
4944,55.0,7.0,90.0,3.0,0.0
4945,51.0,0.0,90.0,3.0,0.0
4946,39.0,0.0,30.0,7.0,0.0
4947,70.0,12.0,15.0,2.0,0.0
4948,58.0,0.0,30.0,5.0,0.0
4949,67.0,0.0,30.0,4.0,0.0
4950,72.0,12.0,15.0,2.0,0.0
4951,70.0,3.0,15.0,2.0,0.0
4952,72.0,12.0,15.0,2.0,0.0
4953,70.0,12.0,15.0,2.0,0.0
4954,72.0,12.0,15.0,2.0,0.0
4955,68.0,5.0,15.0,2.0,0.0
4956,70.0,89.0,15.0,2.0,0.0
4957,56.0,14.0,180.0,3.0,0.0
4958,68.0,0.0,90.0,4.0,0.0
4959,51.0,0.0,90.0,6.0,0.0
4960,60.0,0.0,90.0,5.0,0.0
4961,44.0,0.0,90.0,7.0,0.0
4962,68.0,30.0,90.0,2.0,0.0
4963,68.0,2.0,60.0,1.0,0.0
4964,68.0,0.0,60.0,0.0,0.0
4965,60.0,0.0,60.0,1.0,0.0
4966,56.0,22.0,20.0,2.0,0.0
4967,60.0,0.0,60.0,0.0,0.0
4968,51.0,24.0,20.0,2.0,0.0
4969,48.0,0.0,20.0,2.0,0.0
4970,60.0,0.0,20.0,0.0,0.0
4971,68.0,10.0,20.0,1.0,0.0
4972,60.0,0.0,20.0,1.0,0.0
4973,68.0,0.0,20.0,0.0,0.0
4974,51.0,0.0,20.0,2.0,0.0
4975,60.0,0.0,20.0,1.0,0.0
4976,60.0,0.0,20.0,0.0,0.0
4977,68.0,24.0,20.0,1.0,0.0
4978,68.0,0.0,20.0,0.0,0.0
4979,68.0,0.0,60.0,1.0,0.0
4980,60.0,0.0,60.0,1.0,0.0
4981,56.0,22.0,20.0,2.0,0.0
4982,60.0,2.0,60.0,0.0,0.0
4983,68.0,0.0,60.0,0.0,0.0
4984,51.0,24.0,20.0,2.0,0.0
4985,48.0,22.0,20.0,2.0,0.0
4986,60.0,2.0,60.0,1.0,0.0
4987,60.0,0.0,60.0,0.0,0.0
4988,68.0,0.0,60.0,1.0,0.0
4989,68.0,0.0,60.0,0.0,0.0
4990,51.0,46.0,20.0,2.0,0.0
4991,44.0,4.0,90.0,7.0,0.0
4992,68.0,0.0,90.0,0.0,0.0
4993,68.0,0.0,90.0,1.0,0.0
4994,48.0,0.0,90.0,6.0,0.0
4995,56.0,44.0,60.0,2.0,0.0
4996,56.0,0.0,90.0,5.0,0.0
4997,48.0,0.0,180.0,3.0,0.0
4998,44.0,14.0,180.0,3.0,0.0
4999,51.0,0.0,90.0,4.0,0.0
5000,60.0,0.0,90.0,0.0,0.0
5001,60.0,0.0,90.0,1.0,0.0
5002,51.0,26.0,60.0,2.0,0.0
5003,60.0,22.0,20.0,2.0,0.0
5004,72.0,0.0,60.0,1.0,0.0
5005,72.0,0.0,60.0,0.0,0.0
5006,68.0,0.0,60.0,1.0,0.0
5007,68.0,2.0,60.0,0.0,0.0
5008,56.0,24.0,20.0,2.0,0.0
5009,72.0,0.0,20.0,0.0,0.0
5010,51.0,0.0,20.0,2.0,0.0
5011,68.0,0.0,20.0,1.0,0.0
5012,68.0,0.0,20.0,0.0,0.0
5013,72.0,10.0,20.0,1.0,0.0
5014,72.0,0.0,20.0,1.0,0.0
5015,68.0,24.0,20.0,0.0,0.0
5016,68.0,0.0,20.0,1.0,0.0
5017,72.0,0.0,20.0,0.0,0.0
5018,56.0,0.0,20.0,2.0,0.0
5019,72.0,0.0,60.0,0.0,0.0
5020,60.0,22.0,20.0,2.0,0.0
5021,72.0,0.0,60.0,1.0,0.0
5022,68.0,2.0,60.0,1.0,0.0
5023,68.0,0.0,60.0,0.0,0.0
5024,56.0,24.0,20.0,2.0,0.0
5025,68.0,0.0,60.0,1.0,0.0
5026,72.0,0.0,60.0,0.0,0.0
5027,68.0,2.0,60.0,0.0,0.0
5028,51.0,22.0,20.0,2.0,0.0
5029,72.0,0.0,60.0,1.0,0.0
5030,56.0,46.0,20.0,2.0,0.0
5031,68.0,0.0,90.0,1.0,0.0
5032,60.0,0.0,90.0,6.0,0.0
5033,72.0,0.0,90.0,0.0,0.0
5034,60.0,44.0,60.0,2.0,0.0
5035,56.0,0.0,90.0,4.0,0.0
5036,44.0,14.0,180.0,3.0,0.0
5037,48.0,0.0,180.0,3.0,0.0
5038,51.0,0.0,180.0,3.0,0.0
5039,68.0,0.0,90.0,0.0,0.0
5040,44.0,4.0,90.0,7.0,0.0
5041,72.0,0.0,90.0,1.0,0.0
5042,51.0,0.0,90.0,5.0,0.0
5043,56.0,26.0,60.0,2.0,0.0
5044,75.0,0.0,60.0,0.0,0.0
5045,75.0,0.0,60.0,1.0,0.0
5046,72.0,0.0,60.0,0.0,0.0
5047,72.0,2.0,60.0,1.0,0.0
5048,63.0,22.0,20.0,2.0,0.0
5049,60.0,24.0,20.0,2.0,0.0
5050,56.0,0.0,20.0,2.0,0.0
5051,75.0,0.0,20.0,1.0,0.0
5052,72.0,10.0,20.0,1.0,0.0
5053,75.0,0.0,20.0,0.0,0.0
5054,72.0,0.0,20.0,0.0,0.0
5055,72.0,0.0,20.0,1.0,0.0
5056,75.0,0.0,20.0,1.0,0.0
5057,72.0,0.0,20.0,0.0,0.0
5058,60.0,24.0,20.0,2.0,0.0
5059,75.0,0.0,20.0,0.0,0.0
5060,72.0,0.0,60.0,1.0,0.0
5061,75.0,2.0,60.0,0.0,0.0
5062,75.0,0.0,60.0,1.0,0.0
5063,63.0,22.0,20.0,2.0,0.0
5064,72.0,0.0,60.0,0.0,0.0
5065,60.0,24.0,20.0,2.0,0.0
5066,75.0,0.0,60.0,0.0,0.0
5067,72.0,2.0,60.0,0.0,0.0
5068,75.0,0.0,60.0,1.0,0.0
5069,56.0,22.0,20.0,2.0,0.0
5070,72.0,0.0,60.0,1.0,0.0
5071,60.0,24.0,20.0,2.0,0.0
5072,63.0,24.0,20.0,2.0,0.0
5073,75.0,0.0,90.0,1.0,0.0
5074,72.0,0.0,90.0,1.0,0.0
5075,72.0,0.0,90.0,0.0,0.0
5076,36.0,0.0,90.0,3.0,0.0
5077,75.0,6.0,90.0,0.0,0.0
5078,60.0,24.0,20.0,2.0,0.0
5079,56.0,11.0,20.0,2.0,0.0
5080,48.0,0.0,15.0,6.0,0.0
5081,51.0,40.0,20.0,2.0,0.0
5082,56.0,0.0,15.0,4.0,0.0
5083,51.0,7.0,15.0,5.0,0.0
5084,48.0,0.0,15.0,7.0,0.0
5085,56.0,0.0,30.0,5.0,0.0
5086,60.0,0.0,90.0,2.0,0.0
5087,60.0,0.0,30.0,4.0,0.0
5088,39.0,0.0,90.0,3.0,0.0
5089,72.0,0.0,90.0,0.0,0.0
5090,68.0,0.0,90.0,0.0,0.0
5091,44.0,0.0,90.0,3.0,0.0
5092,68.0,0.0,90.0,1.0,0.0
5093,51.0,0.0,30.0,6.0,0.0
5094,51.0,50.0,30.0,7.0,0.0
5095,72.0,15.0,90.0,1.0,0.0
5096,39.0,0.0,90.0,3.0,0.0
5097,43.0,7.0,90.0,3.0,0.0
5098,70.0,0.0,90.0,1.0,0.0
5099,63.0,0.0,90.0,1.0,0.0
5100,67.0,0.0,15.0,0.0,0.0
5101,58.0,4.0,15.0,2.0,0.0
5102,39.0,0.0,30.0,7.0,0.0
5103,51.0,0.0,30.0,6.0,0.0
5104,55.0,0.0,30.0,5.0,0.0
5105,58.0,9.0,30.0,4.0,0.0
5106,70.0,11.0,15.0,0.0,0.0
5107,60.0,1.0,15.0,2.0,0.0
5108,65.0,12.0,15.0,0.0,0.0
5109,68.0,0.0,15.0,0.0,0.0
5110,67.0,0.0,15.0,0.0,0.0
5111,58.0,3.0,15.0,2.0,0.0
5112,70.0,0.0,15.0,0.0,0.0
5113,68.0,0.0,15.0,0.0,0.0
5114,65.0,0.0,15.0,0.0,0.0
5115,60.0,12.0,15.0,2.0,0.0
5116,58.0,12.0,15.0,2.0,0.0
5117,67.0,0.0,15.0,0.0,0.0
5118,70.0,0.0,15.0,0.0,0.0
5119,68.0,0.0,15.0,0.0,0.0
5120,60.0,12.0,15.0,2.0,0.0
5121,65.0,0.0,15.0,0.0,0.0
5122,70.0,0.0,15.0,0.0,0.0
5123,56.0,5.0,15.0,2.0,0.0
5124,65.0,0.0,15.0,0.0,0.0
5125,58.0,47.0,15.0,2.0,0.0
5126,67.0,0.0,15.0,0.0,0.0
5127,44.0,0.0,90.0,7.0,0.0
5128,51.0,0.0,90.0,6.0,0.0
5129,56.0,0.0,90.0,4.0,0.0
5130,56.0,0.0,90.0,5.0,0.0
5131,68.0,6.0,90.0,1.0,0.0
5132,60.0,0.0,90.0,1.0,0.0
5133,68.0,0.0,90.0,0.0,0.0
5134,32.0,0.0,180.0,3.0,0.0
5135,44.0,14.0,180.0,3.0,0.0
5136,56.0,24.0,20.0,2.0,0.0
5137,60.0,18.0,20.0,2.0,0.0
5138,63.0,24.0,20.0,2.0,0.0
5139,68.0,24.0,20.0,2.0,0.0
5140,60.0,24.0,20.0,2.0,0.0
5141,63.0,10.0,20.0,2.0,0.0
5142,68.0,24.0,20.0,2.0,0.0
5143,72.0,24.0,20.0,2.0,0.0
5144,63.0,24.0,20.0,2.0,0.0
5145,68.0,24.0,20.0,2.0,0.0
5146,72.0,24.0,20.0,2.0,0.0
5147,75.0,24.0,20.0,2.0,0.0
5148,68.0,24.0,20.0,2.0,0.0
5149,72.0,24.0,20.0,2.0,0.0
5150,77.0,24.0,20.0,2.0,0.0
5151,80.0,24.0,20.0,2.0,0.0
5152,79.0,24.0,20.0,2.0,0.0
5153,77.0,24.0,20.0,2.0,0.0
5154,75.0,24.0,20.0,2.0,0.0
5155,73.0,24.0,20.0,2.0,0.0
5156,72.0,24.0,20.0,2.0,0.0
5157,70.0,24.0,20.0,2.0,0.0
5158,68.0,13.0,20.0,2.0,0.0
5159,60.0,0.0,60.0,3.0,0.0
5160,75.0,28.0,60.0,4.0,0.0
5161,68.0,9.0,30.0,5.0,0.0
5162,75.0,12.0,15.0,2.0,0.0
5163,61.0,0.0,60.0,6.0,0.0
5164,77.0,12.0,15.0,2.0,0.0
5165,75.0,3.0,15.0,2.0,0.0
5166,77.0,12.0,15.0,2.0,0.0
5167,75.0,7.0,15.0,2.0,0.0
5168,77.0,0.0,15.0,2.0,0.0
5169,77.0,0.0,20.0,2.0,0.0
5170,77.0,0.0,20.0,4.0,0.0
5171,61.0,0.0,20.0,3.0,0.0
5172,63.0,40.0,20.0,6.0,0.0
5173,63.0,0.0,90.0,3.0,0.0
5174,68.0,0.0,90.0,4.0,0.0
5175,65.0,50.0,30.0,6.0,0.0
5176,68.0,19.0,90.0,2.0,0.0
5177,60.0,0.0,90.0,5.0,0.0
5178,60.0,0.0,90.0,3.0,0.0
5179,53.0,9.0,30.0,6.0,0.0
5180,58.0,0.0,90.0,5.0,0.0
5181,67.0,0.0,15.0,2.0,0.0
5182,67.0,12.0,15.0,4.0,0.0
5183,51.0,6.0,90.0,3.0,0.0
5184,68.0,12.0,15.0,2.0,0.0
5185,68.0,0.0,15.0,4.0,0.0
5186,67.0,0.0,15.0,4.0,0.0
5187,67.0,3.0,15.0,2.0,0.0
5188,68.0,23.0,15.0,4.0,0.0
5189,68.0,0.0,15.0,2.0,0.0
5190,65.0,0.0,20.0,4.0,0.0
5191,65.0,18.0,20.0,2.0,0.0
5192,67.0,0.0,20.0,4.0,0.0
5193,67.0,48.0,20.0,2.0,0.0
5194,53.0,0.0,90.0,6.0,0.0
5195,60.0,6.0,90.0,5.0,0.0
5196,68.0,0.0,90.0,4.0,0.0
5197,44.0,0.0,90.0,7.0,0.0
5198,32.0,0.0,180.0,3.0,0.0
5199,48.0,14.0,180.0,3.0,0.0
5200,56.0,24.0,20.0,2.0,0.0
5201,60.0,18.0,20.0,2.0,0.0
5202,63.0,24.0,20.0,2.0,0.0
5203,68.0,24.0,20.0,2.0,0.0
5204,60.0,24.0,20.0,2.0,0.0
5205,63.0,10.0,20.0,2.0,0.0
5206,68.0,24.0,20.0,2.0,0.0
5207,72.0,24.0,20.0,2.0,0.0
5208,63.0,24.0,20.0,2.0,0.0
5209,68.0,24.0,20.0,2.0,0.0
5210,72.0,24.0,20.0,2.0,0.0
5211,75.0,24.0,20.0,2.0,0.0
5212,68.0,24.0,20.0,2.0,0.0
5213,72.0,24.0,20.0,2.0,0.0
5214,75.0,24.0,20.0,2.0,0.0
5215,80.0,24.0,20.0,2.0,0.0
5216,79.0,24.0,20.0,2.0,0.0
5217,77.0,24.0,20.0,2.0,0.0
5218,75.0,24.0,20.0,2.0,0.0
5219,73.0,24.0,20.0,2.0,0.0
5220,72.0,24.0,20.0,2.0,0.0
5221,70.0,24.0,20.0,2.0,0.0
5222,68.0,40.0,20.0,2.0,0.0
5223,75.0,0.0,60.0,2.0,0.0
5224,48.0,28.0,60.0,3.0,0.0
5225,48.0,0.0,60.0,7.0,0.0
5226,60.0,0.0,60.0,6.0,0.0
5227,68.0,28.0,30.0,5.0,0.0
5228,75.0,0.0,60.0,4.0,0.0
5229,77.0,0.0,20.0,4.0,0.0
5230,77.0,0.0,20.0,2.0,0.0
5231,61.0,0.0,20.0,6.0,0.0
5232,49.0,0.0,20.0,3.0,0.0
5233,49.0,40.0,20.0,7.0,0.0
5234,68.0,19.0,90.0,2.0,0.0
5235,60.0,0.0,90.0,5.0,0.0
5236,51.0,0.0,30.0,7.0,0.0
5237,68.0,0.0,90.0,4.0,0.0
5238,51.0,0.0,90.0,3.0,0.0
5239,63.0,50.0,30.0,6.0,0.0
5240,67.0,0.0,90.0,4.0,0.0
5241,39.0,0.0,30.0,7.0,0.0
5242,39.0,0.0,90.0,3.0,0.0
5243,67.0,12.0,15.0,2.0,0.0
5244,58.0,6.0,90.0,5.0,0.0
5245,51.0,9.0,30.0,6.0,0.0
5246,63.0,0.0,90.0,0.0,0.0
5247,63.0,0.0,90.0,1.0,0.0
5248,68.0,12.0,15.0,2.0,0.0
5249,67.0,3.0,15.0,2.0,0.0
5250,68.0,23.0,15.0,2.0,0.0
5251,65.0,18.0,20.0,2.0,0.0
5252,67.0,46.0,20.0,2.0,0.0
5253,44.0,8.0,180.0,3.0,0.0
5254,51.0,0.0,90.0,6.0,0.0
5255,68.0,0.0,180.0,2.0,0.0
5256,60.0,0.0,90.0,5.0,0.0
5257,68.0,0.0,90.0,1.0,0.0
5258,44.0,4.0,90.0,7.0,0.0
5259,68.0,44.0,60.0,4.0,0.0
5260,60.0,0.0,90.0,1.0,0.0
5261,68.0,0.0,60.0,0.0,0.0
5262,63.0,48.0,60.0,4.0,0.0
5263,63.0,0.0,60.0,0.0,0.0
5264,60.0,4.0,90.0,1.0,0.0
5265,68.0,0.0,90.0,1.0,0.0
5266,56.0,36.0,60.0,5.0,0.0
5267,60.0,0.0,60.0,4.0,0.0
5268,60.0,0.0,60.0,0.0,0.0
5269,63.0,0.0,60.0,0.0,0.0
5270,63.0,0.0,60.0,4.0,0.0
5271,60.0,48.0,60.0,5.0,0.0
5272,68.0,0.0,60.0,1.0,0.0
5273,68.0,0.0,60.0,4.0,0.0
5274,63.0,48.0,60.0,5.0,0.0
5275,60.0,0.0,60.0,1.0,0.0
5276,68.0,0.0,60.0,0.0,0.0
5277,70.0,48.0,60.0,4.0,0.0
5278,63.0,0.0,60.0,1.0,0.0
5279,67.0,0.0,60.0,5.0,0.0
5280,67.0,0.0,60.0,0.0,0.0
5281,70.0,0.0,60.0,1.0,0.0
5282,70.0,0.0,60.0,0.0,0.0
5283,68.0,0.0,60.0,0.0,0.0
5284,72.0,0.0,60.0,0.0,0.0
5285,68.0,0.0,90.0,1.0,0.0
5286,72.0,0.0,60.0,4.0,0.0
5287,72.0,4.0,90.0,1.0,0.0
5288,68.0,44.0,60.0,5.0,0.0
5289,68.0,48.0,60.0,4.0,0.0
5290,68.0,0.0,60.0,0.0,0.0
5291,63.0,0.0,60.0,0.0,0.0
5292,63.0,0.0,60.0,5.0,0.0
5293,63.0,0.0,60.0,4.0,0.0
5294,60.0,0.0,60.0,0.0,0.0
5295,72.0,4.0,90.0,1.0,0.0
5296,68.0,0.0,90.0,1.0,0.0
5297,60.0,0.0,60.0,5.0,0.0
5298,63.0,44.0,60.0,0.0,0.0
5299,63.0,48.0,60.0,0.0,0.0
5300,68.0,0.0,60.0,0.0,0.0
5301,63.0,0.0,60.0,5.0,0.0
5302,68.0,0.0,60.0,4.0,0.0
5303,72.0,0.0,60.0,0.0,0.0
5304,75.0,4.0,90.0,2.0,0.0
5305,72.0,0.0,60.0,4.0,0.0
5306,68.0,0.0,60.0,0.0,0.0
5307,72.0,44.0,60.0,1.0,0.0
5308,68.0,0.0,60.0,1.0,0.0
5309,68.0,0.0,60.0,5.0,0.0
5310,73.0,0.0,60.0,4.0,0.0
5311,70.0,0.0,60.0,5.0,0.0
5312,73.0,0.0,60.0,0.0,0.0
5313,73.0,0.0,60.0,1.0,0.0
5314,70.0,0.0,60.0,0.0,0.0
5315,70.0,15.0,60.0,1.0,0.0
5316,75.0,12.0,15.0,2.0,0.0
5317,72.0,0.0,90.0,0.0,0.0
5318,75.0,5.0,90.0,1.0,0.0
5319,75.0,0.0,90.0,0.0,0.0
5320,75.0,0.0,90.0,4.0,0.0
5321,72.0,0.0,90.0,5.0,0.0
5322,56.0,6.0,30.0,3.0,0.0
5323,72.0,0.0,90.0,1.0,0.0
5324,77.0,6.0,15.0,2.0,0.0
5325,75.0,12.0,15.0,2.0,0.0
5326,60.0,10.0,30.0,3.0,0.0
5327,77.0,12.0,15.0,2.0,0.0
5328,75.0,2.0,15.0,2.0,0.0
5329,77.0,12.0,15.0,2.0,0.0
5330,63.0,32.0,30.0,3.0,0.0
5331,75.0,5.0,15.0,2.0,0.0
5332,77.0,0.0,15.0,2.0,0.0
5333,56.0,32.0,30.0,3.0,0.0
5334,60.0,32.0,30.0,3.0,0.0
5335,63.0,1.0,30.0,3.0,0.0
5336,77.0,31.0,20.0,2.0,0.0
5337,73.0,5.0,90.0,2.0,0.0
5338,51.0,32.0,30.0,3.0,0.0
5339,55.0,27.0,30.0,3.0,0.0
5340,58.0,32.0,30.0,3.0,0.0
5341,72.0,5.0,90.0,2.0,0.0
5342,53.0,32.0,30.0,3.0,0.0
5343,55.0,27.0,30.0,3.0,0.0
5344,56.0,32.0,30.0,3.0,0.0
5345,53.0,32.0,30.0,3.0,0.0
5346,56.0,32.0,30.0,3.0,0.0
5347,60.0,32.0,30.0,3.0,0.0
5348,48.0,32.0,30.0,3.0,0.0
5349,68.0,5.0,90.0,2.0,0.0
5350,51.0,27.0,30.0,3.0,0.0
5351,56.0,32.0,30.0,3.0,0.0
5352,69.0,17.0,60.0,2.0,0.0
5353,49.0,15.0,30.0,3.0,0.0
5354,53.0,31.0,30.0,3.0,0.0
5355,70.0,1.0,60.0,2.0,0.0
5356,58.0,32.0,30.0,3.0,0.0
5357,49.0,15.0,30.0,3.0,0.0
5358,72.0,17.0,60.0,2.0,0.0
5359,53.0,31.0,30.0,3.0,0.0
5360,70.0,1.0,60.0,2.0,0.0
5361,58.0,32.0,30.0,3.0,0.0
5362,46.0,15.0,30.0,3.0,0.0
5363,73.0,17.0,60.0,2.0,0.0
5364,49.0,31.0,30.0,3.0,0.0
5365,70.0,1.0,60.0,2.0,0.0
5366,53.0,32.0,30.0,3.0,0.0
5367,51.0,15.0,30.0,3.0,0.0
5368,68.0,17.0,60.0,2.0,0.0
5369,58.0,31.0,30.0,3.0,0.0
5370,67.0,1.0,60.0,2.0,0.0
5371,61.0,32.0,30.0,3.0,0.0
5372,65.0,17.0,60.0,2.0,0.0
5373,51.0,15.0,30.0,3.0,0.0
5374,58.0,31.0,30.0,3.0,0.0
5375,63.0,1.0,60.0,2.0,0.0
5376,61.0,32.0,30.0,3.0,0.0
5377,75.0,5.0,90.0,2.0,0.0
5378,55.0,32.0,30.0,3.0,0.0
5379,58.0,27.0,30.0,3.0,0.0
5380,61.0,14.0,30.0,3.0,0.0
5381,75.0,12.0,15.0,2.0,0.0
5382,56.0,6.0,30.0,3.0,0.0
5383,77.0,6.0,15.0,2.0,0.0
5384,75.0,12.0,15.0,2.0,0.0
5385,59.0,10.0,30.0,3.0,0.0
5386,77.0,12.0,15.0,2.0,0.0
5387,75.0,2.0,15.0,2.0,0.0
5388,77.0,12.0,15.0,2.0,0.0
5389,60.0,32.0,30.0,3.0,0.0
5390,75.0,5.0,15.0,2.0,0.0
5391,77.0,5.0,15.0,2.0,0.0
5392,56.0,32.0,30.0,3.0,0.0
5393,60.0,32.0,30.0,3.0,0.0
5394,63.0,1.0,30.0,3.0,0.0
5395,77.0,31.0,20.0,2.0,0.0
5396,73.0,5.0,90.0,2.0,0.0
5397,52.0,32.0,30.0,3.0,0.0
5398,55.0,27.0,30.0,3.0,0.0
5399,58.0,32.0,30.0,3.0,0.0
5400,72.0,5.0,90.0,2.0,0.0
5401,53.0,32.0,30.0,3.0,0.0
5402,55.0,27.0,30.0,3.0,0.0
5403,56.0,32.0,30.0,3.0,0.0
5404,53.0,32.0,30.0,3.0,0.0
5405,56.0,32.0,30.0,3.0,0.0
5406,60.0,32.0,30.0,3.0,0.0
5407,48.0,32.0,30.0,3.0,0.0
5408,68.0,5.0,90.0,2.0,0.0
5409,51.0,27.0,30.0,3.0,0.0
5410,56.0,32.0,30.0,3.0,0.0
5411,70.0,32.0,30.0,2.0,0.0
5412,49.0,0.0,30.0,3.0,0.0
5413,53.0,0.0,30.0,3.0,0.0
5414,73.0,32.0,30.0,2.0,0.0
5415,58.0,0.0,30.0,3.0,0.0
5416,77.0,32.0,30.0,2.0,0.0
5417,68.0,5.0,90.0,2.0,0.0
5418,51.0,32.0,30.0,3.0,0.0
5419,56.0,27.0,30.0,3.0,0.0
5420,60.0,14.0,30.0,3.0,0.0
5421,51.0,6.0,30.0,3.0,0.0
5422,67.0,12.0,15.0,2.0,0.0
5423,68.0,6.0,15.0,2.0,0.0
5424,67.0,12.0,15.0,2.0,0.0
5425,58.0,10.0,30.0,3.0,0.0
5426,68.0,12.0,15.0,2.0,0.0
5427,67.0,2.0,15.0,2.0,0.0
5428,68.0,12.0,15.0,2.0,0.0
5429,61.0,91.0,30.0,3.0,0.0
5430,67.0,5.0,15.0,2.0,0.0
5431,68.0,5.0,15.0,2.0,0.0
5432,56.0,96.0,90.0,3.0,0.0
5433,68.0,0.0,90.0,2.0,0.0
5434,60.0,0.0,90.0,3.0,0.0
5435,44.0,37.0,90.0,3.0,0.0
5436,75.0,5.0,90.0,4.0,0.0
5437,63.0,0.0,90.0,0.0,0.0
5438,63.0,0.0,90.0,1.0,0.0
5439,63.0,32.0,30.0,5.0,0.0
5440,75.0,22.0,60.0,1.0,0.0
5441,65.0,5.0,30.0,5.0,0.0
5442,61.0,1.0,30.0,5.0,0.0
5443,73.0,13.0,20.0,1.0,0.0
5444,72.0,0.0,90.0,1.0,0.0
5445,75.0,0.0,90.0,0.0,0.0
5446,72.0,0.0,90.0,0.0,0.0
5447,68.0,0.0,90.0,1.0,0.0
5448,60.0,6.0,30.0,5.0,0.0
5449,56.0,5.0,90.0,7.0,0.0
5450,68.0,0.0,90.0,6.0,0.0
5451,75.0,12.0,15.0,4.0,0.0
5452,77.0,6.0,15.0,4.0,0.0
5453,75.0,12.0,15.0,4.0,0.0
5454,63.0,10.0,30.0,5.0,0.0
5455,77.0,12.0,15.0,4.0,0.0
5456,75.0,2.0,15.0,4.0,0.0
5457,77.0,12.0,15.0,4.0,0.0
5458,68.0,15.0,30.0,5.0,0.0
5459,75.0,5.0,15.0,4.0,0.0
5460,77.0,0.0,15.0,4.0,0.0
5461,72.0,32.0,15.0,5.0,0.0
5462,72.0,32.0,15.0,5.0,0.0
5463,72.0,18.0,15.0,5.0,0.0
5464,77.0,31.0,20.0,4.0,0.0
5465,73.0,0.0,90.0,0.0,0.0
5466,51.0,0.0,90.0,7.0,0.0
5467,67.0,32.0,30.0,5.0,0.0
5468,63.0,0.0,90.0,1.0,0.0
5469,67.0,0.0,90.0,0.0,0.0
5470,73.0,0.0,90.0,4.0,0.0
5471,70.0,5.0,90.0,1.0,0.0
5472,63.0,0.0,90.0,6.0,0.0
5473,68.0,27.0,30.0,5.0,0.0
5474,70.0,32.0,30.0,5.0,0.0
5475,72.0,0.0,90.0,0.0,0.0
5476,65.0,0.0,90.0,6.0,0.0
5477,68.0,0.0,90.0,1.0,0.0
5478,72.0,0.0,90.0,4.0,0.0
5479,56.0,0.0,90.0,1.0,0.0
5480,53.0,5.0,90.0,7.0,0.0
5481,68.0,32.0,30.0,5.0,0.0
5482,68.0,0.0,90.0,0.0,0.0
5483,65.0,27.0,30.0,5.0,0.0
5484,60.0,15.0,30.0,5.0,0.0
5485,56.0,32.0,15.0,5.0,0.0
5486,56.0,32.0,15.0,5.0,0.0
5487,56.0,49.0,15.0,5.0,0.0
5488,63.0,0.0,90.0,0.0,0.0
5489,60.0,0.0,90.0,6.0,0.0
5490,48.0,0.0,90.0,7.0,0.0
5491,80.0,0.0,90.0,0.0,0.0
5492,68.0,5.0,90.0,4.0,0.0
5493,63.0,32.0,30.0,5.0,0.0
5494,61.0,27.0,30.0,5.0,0.0
5495,60.0,32.0,30.0,5.0,0.0
5496,65.0,15.0,30.0,5.0,0.0
5497,77.0,8.0,180.0,0.0,0.0
5498,65.0,16.0,270.0,0.0,0.0
5499,49.0,4.0,90.0,7.0,0.0
5500,61.0,0.0,90.0,6.0,0.0
5501,69.0,17.0,60.0,4.0,0.0
5502,61.0,27.0,30.0,5.0,0.0
5503,70.0,1.0,60.0,4.0,0.0
5504,58.0,15.0,30.0,5.0,0.0
5505,53.0,32.0,15.0,5.0,0.0
5506,70.0,0.0,90.0,1.0,0.0
5507,72.0,0.0,60.0,4.0,0.0
5508,53.0,32.0,15.0,5.0,0.0
5509,70.0,33.0,60.0,4.0,0.0
5510,53.0,4.0,15.0,5.0,0.0
5511,49.0,0.0,90.0,7.0,0.0
5512,73.0,17.0,60.0,4.0,0.0
5513,58.0,15.0,30.0,5.0,0.0
5514,70.0,0.0,90.0,1.0,0.0
5515,73.0,0.0,60.0,0.0,0.0
5516,61.0,0.0,90.0,6.0,0.0
5517,61.0,11.0,30.0,5.0,0.0
5518,70.0,1.0,60.0,0.0,0.0
5519,70.0,0.0,60.0,4.0,0.0
5520,65.0,32.0,30.0,5.0,0.0
5521,51.0,15.0,30.0,5.0,0.0
5522,51.0,4.0,90.0,7.0,0.0
5523,63.0,0.0,180.0,1.0,0.0
5524,63.0,0.0,90.0,6.0,0.0
5525,67.0,0.0,120.0,0.0,0.0
5526,70.0,12.0,180.0,1.0,0.0
5527,68.0,17.0,60.0,4.0,0.0
5528,61.0,8.0,120.0,0.0,0.0
5529,58.0,27.0,30.0,5.0,0.0
5530,67.0,1.0,60.0,4.0,0.0
5531,61.0,15.0,30.0,5.0,0.0
5532,65.0,0.0,60.0,4.0,0.0
5533,61.0,24.0,15.0,5.0,0.0
5534,61.0,32.0,15.0,5.0,0.0
5535,70.0,16.0,60.0,0.0,0.0
5536,63.0,0.0,60.0,4.0,0.0
5537,67.0,0.0,60.0,0.0,0.0
5538,61.0,4.0,15.0,5.0,0.0
5539,70.0,0.0,30.0,1.0,0.0
5540,63.0,5.0,90.0,1.0,0.0
5541,70.0,15.0,30.0,5.0,0.0
5542,75.0,0.0,90.0,0.0,0.0
5543,55.0,0.0,90.0,7.0,0.0
5544,70.0,0.0,30.0,0.0,0.0
5545,75.0,17.0,15.0,4.0,0.0
5546,67.0,0.0,90.0,6.0,0.0
5547,72.0,0.0,30.0,5.0,0.0
5548,72.0,0.0,30.0,0.0,0.0
5549,75.0,17.0,15.0,4.0,0.0
5550,72.0,15.0,30.0,1.0,0.0
5551,73.0,0.0,30.0,1.0,0.0
5552,73.0,32.0,30.0,5.0,0.0
5553,75.0,12.0,15.0,4.0,0.0
5554,73.0,0.0,30.0,0.0,0.0
5555,72.0,0.0,90.0,1.0,0.0
5556,75.0,0.0,90.0,0.0,0.0
5557,68.0,0.0,90.0,6.0,0.0
5558,72.0,5.0,90.0,0.0,0.0
5559,56.0,0.0,90.0,7.0,0.0
5560,68.0,0.0,90.0,1.0,0.0
5561,75.0,0.0,90.0,4.0,0.0
5562,72.0,32.0,30.0,5.0,0.0
5563,68.0,27.0,30.0,5.0,0.0
5564,63.0,15.0,30.0,5.0,0.0
5565,60.0,32.0,15.0,5.0,0.0
5566,60.0,32.0,15.0,5.0,0.0
5567,60.0,18.0,15.0,5.0,0.0
5568,77.0,14.0,20.0,4.0,0.0
5569,55.0,15.0,30.0,5.0,0.0
5570,52.0,0.0,90.0,7.0,0.0
5571,73.0,5.0,90.0,1.0,0.0
5572,70.0,0.0,90.0,1.0,0.0
5573,64.0,0.0,90.0,6.0,0.0
5574,79.0,0.0,90.0,0.0,0.0
5575,73.0,17.0,15.0,4.0,0.0
5576,73.0,0.0,90.0,0.0,0.0
5577,56.0,15.0,30.0,5.0,0.0
5578,73.0,17.0,15.0,4.0,0.0
5579,58.0,32.0,30.0,5.0,0.0
5580,73.0,12.0,15.0,4.0,0.0
5581,72.0,0.0,90.0,4.0,0.0
5582,72.0,0.0,90.0,0.0,0.0
5583,80.0,5.0,90.0,0.0,0.0
5584,53.0,0.0,90.0,7.0,0.0
5585,68.0,0.0,90.0,1.0,0.0
5586,65.0,0.0,90.0,6.0,0.0
5587,56.0,32.0,30.0,5.0,0.0
5588,72.0,0.0,90.0,1.0,0.0
5589,60.0,27.0,30.0,5.0,0.0
5590,65.0,15.0,30.0,5.0,0.0
5591,68.0,32.0,15.0,5.0,0.0
5592,68.0,32.0,15.0,5.0,0.0
5593,68.0,49.0,15.0,5.0,0.0
5594,63.0,0.0,30.0,5.0,0.0
5595,68.0,32.0,30.0,4.0,0.0
5596,75.0,0.0,90.0,0.0,0.0
5597,72.0,0.0,90.0,1.0,0.0
5598,68.0,5.0,90.0,1.0,0.0
5599,63.0,0.0,90.0,0.0,0.0
5600,60.0,0.0,90.0,6.0,0.0
5601,48.0,0.0,90.0,7.0,0.0
5602,68.0,0.0,30.0,4.0,0.0
5603,61.0,27.0,30.0,5.0,0.0
5604,60.0,0.0,30.0,5.0,0.0
5605,68.0,32.0,30.0,4.0,0.0
5606,61.0,0.0,90.0,6.0,0.0
5607,65.0,0.0,30.0,5.0,0.0
5608,73.0,5.0,90.0,0.0,0.0
5609,49.0,0.0,90.0,7.0,0.0
5610,70.0,0.0,90.0,1.0,0.0
5611,70.0,32.0,30.0,4.0,0.0
5612,65.0,0.0,90.0,0.0,0.0
5613,68.0,8.0,180.0,1.0,0.0
5614,61.0,0.0,30.0,5.0,0.0
5615,73.0,27.0,30.0,4.0,0.0
5616,58.0,0.0,30.0,5.0,0.0
5617,77.0,15.0,30.0,4.0,0.0
5618,63.0,0.0,90.0,6.0,0.0
5619,68.0,0.0,90.0,0.0,0.0
5620,51.0,0.0,90.0,7.0,0.0
5621,68.0,0.0,90.0,4.0,0.0
5622,60.0,32.0,15.0,5.0,0.0
5623,72.0,19.0,90.0,1.0,0.0
5624,72.0,0.0,90.0,0.0,0.0
5625,61.0,32.0,15.0,5.0,0.0
5626,63.0,4.0,15.0,5.0,0.0
5627,51.0,37.0,90.0,6.0,0.0
5628,67.0,1.0,15.0,4.0,0.0
5629,39.0,0.0,90.0,7.0,0.0
5630,70.0,0.0,90.0,1.0,0.0
5631,63.0,0.0,90.0,1.0,0.0
5632,67.0,0.0,90.0,0.0,0.0
5633,70.0,0.0,90.0,0.0,0.0
5634,61.0,11.0,15.0,5.0,0.0
5635,68.0,12.0,15.0,4.0,0.0
5636,67.0,9.0,15.0,4.0,0.0
5637,60.0,3.0,15.0,5.0,0.0
5638,68.0,12.0,15.0,4.0,0.0
5639,67.0,12.0,15.0,4.0,0.0
5640,68.0,5.0,15.0,4.0,0.0
5641,58.0,7.0,15.0,5.0,0.0
5642,67.0,5.0,15.0,4.0,0.0
5643,68.0,0.0,15.0,4.0,0.0
5644,68.0,0.0,90.0,1.0,0.0
5645,60.0,0.0,90.0,1.0,0.0
5646,68.0,5.0,90.0,4.0,0.0
5647,68.0,0.0,90.0,0.0,0.0
5648,44.0,32.0,30.0,7.0,0.0
5649,60.0,0.0,90.0,5.0,0.0
5650,51.0,0.0,90.0,5.0,0.0
5651,56.0,0.0,30.0,6.0,0.0
5652,56.0,0.0,30.0,6.0,0.0
5653,44.0,27.0,30.0,7.0,0.0
5654,56.0,91.0,30.0,6.0,0.0
5655,44.0,0.0,30.0,7.0,0.0
5656,68.0,96.0,90.0,6.0,0.0
5657,56.0,0.0,90.0,7.0,0.0
5658,63.0,37.0,90.0,4.0,0.0
5659,51.0,0.0,90.0,7.0,0.0
5660,51.0,32.0,30.0,6.0,0.0
5661,72.0,5.0,90.0,4.0,0.0
5662,63.0,27.0,30.0,6.0,0.0
5663,63.0,32.0,30.0,6.0,0.0
5664,72.0,17.0,60.0,4.0,0.0
5665,63.0,15.0,30.0,6.0,0.0
5666,63.0,31.0,30.0,6.0,0.0
5667,75.0,1.0,60.0,4.0,0.0
5668,63.0,32.0,30.0,6.0,0.0
5669,73.0,17.0,60.0,4.0,0.0
5670,51.0,4.0,90.0,5.0,0.0
5671,63.0,15.0,30.0,6.0,0.0
5672,63.0,27.0,30.0,6.0,0.0
5673,70.0,1.0,60.0,4.0,0.0
5674,63.0,32.0,30.0,6.0,0.0
5675,51.0,9.0,30.0,6.0,0.0
5676,60.0,23.0,30.0,5.0,0.0
5677,68.0,0.0,30.0,4.0,0.0
5678,51.0,5.0,90.0,7.0,0.0
5679,63.0,27.0,30.0,6.0,0.0
5680,63.0,32.0,30.0,6.0,0.0
5681,60.0,0.0,60.0,5.0,0.0
5682,68.0,17.0,60.0,4.0,0.0
5683,63.0,15.0,30.0,6.0,0.0
5684,63.0,31.0,30.0,6.0,0.0
5685,72.0,1.0,60.0,4.0,0.0
5686,63.0,0.0,60.0,5.0,0.0
5687,63.0,32.0,30.0,6.0,0.0
5688,63.0,15.0,30.0,6.0,0.0
5689,61.0,17.0,60.0,5.0,0.0
5690,70.0,0.0,60.0,4.0,0.0
5691,63.0,0.0,90.0,0.0,0.0
5692,63.0,27.0,30.0,6.0,0.0
5693,58.0,1.0,60.0,5.0,0.0
5694,67.0,0.0,60.0,4.0,0.0
5695,63.0,32.0,30.0,6.0,0.0
5696,51.0,4.0,90.0,7.0,0.0
5697,68.0,0.0,180.0,0.0,0.0
5698,75.0,8.0,180.0,0.0,0.0
5699,72.0,0.0,60.0,4.0,0.0
5700,56.0,17.0,60.0,5.0,0.0
5701,51.0,15.0,30.0,6.0,0.0
5702,63.0,27.0,30.0,6.0,0.0
5703,75.0,0.0,60.0,4.0,0.0
5704,60.0,1.0,60.0,5.0,0.0
5705,63.0,32.0,30.0,6.0,0.0
5706,63.0,15.0,30.0,6.0,0.0
5707,51.0,0.0,90.0,1.0,0.0
5708,72.0,17.0,60.0,4.0,0.0
5709,63.0,4.0,90.0,1.0,0.0
5710,56.0,0.0,60.0,5.0,0.0
5711,63.0,19.0,30.0,6.0,0.0
5712,75.0,0.0,60.0,4.0,0.0
5713,60.0,1.0,60.0,5.0,0.0
5714,63.0,32.0,30.0,6.0,0.0
5715,67.0,0.0,90.0,0.0,0.0
5716,51.0,0.0,90.0,1.0,0.0
5717,63.0,4.0,90.0,1.0,0.0
5718,58.0,0.0,60.0,5.0,0.0
5719,73.0,0.0,90.0,0.0,0.0
5720,73.0,17.0,60.0,4.0,0.0
5721,63.0,15.0,30.0,6.0,0.0
5722,63.0,27.0,30.0,6.0,0.0
5723,70.0,1.0,60.0,4.0,0.0
5724,55.0,0.0,60.0,5.0,0.0
5725,63.0,32.0,30.0,6.0,0.0
5726,51.0,15.0,30.0,6.0,0.0
5727,51.0,4.0,90.0,7.0,0.0
5728,60.0,0.0,60.0,5.0,0.0
5729,51.0,16.0,270.0,1.0,0.0
5730,65.0,12.0,180.0,0.0,0.0
5731,72.0,0.0,180.0,0.0,0.0
5732,68.0,17.0,60.0,4.0,0.0
5733,63.0,0.0,270.0,1.0,0.0
5734,63.0,27.0,30.0,6.0,0.0
5735,72.0,0.0,60.0,4.0,0.0
5736,63.0,1.0,60.0,5.0,0.0
5737,63.0,32.0,30.0,6.0,0.0
5738,60.0,17.0,60.0,5.0,0.0
5739,68.0,0.0,60.0,4.0,0.0
5740,63.0,15.0,30.0,6.0,0.0
5741,63.0,19.0,30.0,6.0,0.0
5742,63.0,1.0,60.0,5.0,0.0
5743,72.0,0.0,60.0,4.0,0.0
5744,63.0,32.0,30.0,6.0,0.0
5745,63.0,0.0,90.0,0.0,0.0
5746,70.0,4.0,90.0,0.0,0.0
5747,63.0,15.0,30.0,6.0,0.0
5748,70.0,0.0,60.0,4.0,0.0
5749,61.0,17.0,60.0,5.0,0.0
5750,63.0,11.0,30.0,6.0,0.0
5751,58.0,0.0,60.0,5.0,0.0
5752,67.0,1.0,60.0,4.0,0.0
5753,63.0,32.0,30.0,6.0,0.0
5754,51.0,5.0,90.0,6.0,0.0
5755,70.0,0.0,30.0,0.0,0.0
5756,70.0,0.0,30.0,5.0,0.0
5757,79.0,0.0,30.0,4.0,0.0
5758,79.0,32.0,30.0,0.0,0.0
5759,77.0,0.0,30.0,4.0,0.0
5760,69.0,0.0,30.0,5.0,0.0
5761,69.0,27.0,30.0,0.0,0.0
5762,77.0,0.0,30.0,0.0,0.0
5763,79.0,0.0,30.0,4.0,0.0
5764,70.0,32.0,30.0,0.0,0.0
5765,70.0,0.0,30.0,5.0,0.0
5766,79.0,0.0,30.0,0.0,0.0
5767,82.0,32.0,30.0,0.0,0.0
5768,82.0,0.0,30.0,4.0,0.0
5769,73.0,0.0,30.0,5.0,0.0
5770,73.0,0.0,30.0,0.0,0.0
5771,72.0,0.0,30.0,0.0,0.0
5772,81.0,0.0,30.0,4.0,0.0
5773,72.0,0.0,30.0,5.0,0.0
5774,81.0,32.0,30.0,0.0,0.0
5775,73.0,32.0,30.0,0.0,0.0
5776,82.0,0.0,30.0,4.0,0.0
5777,73.0,0.0,30.0,5.0,0.0
5778,82.0,0.0,30.0,0.0,0.0
5779,79.0,0.0,30.0,4.0,0.0
5780,79.0,0.0,30.0,0.0,0.0
5781,70.0,0.0,30.0,5.0,0.0
5782,70.0,32.0,30.0,0.0,0.0
5783,77.0,0.0,30.0,0.0,0.0
5784,69.0,32.0,30.0,0.0,0.0
5785,68.0,0.0,30.0,5.0,0.0
5786,77.0,0.0,30.0,4.0,0.0
5787,70.0,0.0,30.0,0.0,0.0
5788,79.0,0.0,30.0,0.0,0.0
5789,70.0,0.0,30.0,5.0,0.0
5790,79.0,32.0,30.0,4.0,0.0
5791,70.0,0.0,90.0,1.0,0.0
5792,63.0,0.0,90.0,1.0,0.0
5793,63.0,4.0,90.0,6.0,0.0
5794,67.0,0.0,60.0,5.0,0.0
5795,75.0,17.0,60.0,4.0,0.0
5796,67.0,0.0,60.0,0.0,0.0
5797,51.0,15.0,30.0,7.0,0.0
5798,75.0,0.0,60.0,0.0,0.0
5799,51.0,0.0,90.0,6.0,0.0
5800,50.0,27.0,30.0,7.0,0.0
5801,73.0,0.0,60.0,4.0,0.0
5802,73.0,1.0,60.0,0.0,0.0
5803,70.0,0.0,60.0,0.0,0.0
5804,70.0,0.0,60.0,5.0,0.0
5805,51.0,32.0,30.0,7.0,0.0
5806,51.0,0.0,90.0,6.0,0.0
5807,63.0,0.0,90.0,1.0,0.0
5808,73.0,0.0,90.0,0.0,0.0
5809,70.0,0.0,90.0,1.0,0.0
5810,73.0,0.0,90.0,4.0,0.0
5811,70.0,5.0,90.0,0.0,0.0
5812,55.0,32.0,30.0,7.0,0.0
5813,70.0,0.0,90.0,5.0,0.0
5814,63.0,0.0,90.0,6.0,0.0
5815,53.0,27.0,30.0,7.0,0.0
5816,55.0,32.0,30.0,7.0,0.0
5817,72.0,5.0,90.0,0.0,0.0
5818,68.0,0.0,90.0,0.0,0.0
5819,56.0,32.0,30.0,7.0,0.0
5820,72.0,0.0,90.0,4.0,0.0
5821,72.0,0.0,90.0,1.0,0.0
5822,63.0,0.0,90.0,6.0,0.0
5823,68.0,0.0,90.0,1.0,0.0
5824,68.0,0.0,90.0,5.0,0.0
5825,51.0,0.0,90.0,6.0,0.0
5826,55.0,27.0,30.0,7.0,0.0
5827,56.0,47.0,30.0,7.0,0.0
5828,70.0,44.0,60.0,4.0,0.0
5829,65.0,0.0,90.0,5.0,0.0
5830,61.0,0.0,90.0,6.0,0.0
5831,49.0,0.0,90.0,7.0,0.0
5832,73.0,0.0,90.0,1.0,0.0
5833,65.0,0.0,90.0,0.0,0.0
5834,70.0,0.0,60.0,0.0,0.0
5835,70.0,4.0,90.0,1.0,0.0
5836,73.0,48.0,60.0,4.0,0.0
5837,73.0,0.0,60.0,0.0,0.0
5838,72.0,0.0,90.0,1.0,0.0
5839,68.0,0.0,90.0,1.0,0.0
5840,63.0,0.0,60.0,0.0,0.0
5841,72.0,0.0,60.0,4.0,0.0
5842,51.0,4.0,90.0,7.0,0.0
5843,63.0,0.0,90.0,6.0,0.0
5844,63.0,0.0,60.0,5.0,0.0
5845,72.0,44.0,60.0,0.0,0.0
5846,60.0,0.0,60.0,5.0,0.0
5847,68.0,48.0,60.0,0.0,0.0
5848,68.0,0.0,60.0,4.0,0.0
5849,60.0,0.0,60.0,0.0,0.0
5850,58.0,0.0,60.0,5.0,0.0
5851,58.0,0.0,60.0,0.0,0.0
5852,39.0,0.0,90.0,7.0,0.0
5853,67.0,0.0,60.0,4.0,0.0
5854,63.0,0.0,90.0,1.0,0.0
5855,51.0,4.0,90.0,6.0,0.0
5856,70.0,0.0,90.0,1.0,0.0
5857,67.0,44.0,60.0,0.0,0.0
5858,61.0,0.0,60.0,5.0,0.0
5859,70.0,16.0,60.0,0.0,0.0
5860,70.0,0.0,60.0,4.0,0.0
5861,61.0,0.0,60.0,0.0,0.0
5862,44.0,20.0,90.0,7.0,0.0
5863,68.0,0.0,90.0,1.0,0.0
5864,68.0,0.0,90.0,0.0,0.0
5865,60.0,26.0,15.0,5.0,0.0
5866,51.0,6.0,30.0,6.0,0.0
5867,68.0,0.0,15.0,4.0,0.0
5868,60.0,0.0,90.0,0.0,0.0
5869,56.0,0.0,90.0,1.0,0.0
5870,75.0,32.0,15.0,4.0,0.0
5871,60.0,0.0,15.0,5.0,0.0
5872,60.0,0.0,15.0,5.0,0.0
5873,75.0,12.0,15.0,4.0,0.0
5874,48.0,6.0,30.0,6.0,0.0
5875,75.0,26.0,15.0,4.0,0.0
5876,60.0,0.0,90.0,1.0,0.0
5877,60.0,0.0,15.0,5.0,0.0
5878,72.0,20.0,90.0,1.0,0.0
5879,75.0,32.0,15.0,4.0,0.0
5880,60.0,0.0,15.0,5.0,0.0
5881,60.0,0.0,15.0,5.0,0.0
5882,75.0,12.0,15.0,4.0,0.0
5883,75.0,0.0,15.0,4.0,0.0
5884,60.0,26.0,15.0,5.0,0.0
5885,56.0,20.0,90.0,1.0,0.0
5886,68.0,0.0,90.0,1.0,0.0
5887,44.0,6.0,30.0,6.0,0.0
5888,60.0,0.0,15.0,5.0,0.0
5889,75.0,32.0,15.0,4.0,0.0
5890,60.0,12.0,15.0,5.0,0.0
5891,75.0,0.0,15.0,4.0,0.0
5892,39.0,32.0,15.0,7.0,0.0
5893,61.0,32.0,60.0,5.0,0.0
5894,51.0,4.0,90.0,6.0,0.0
5895,77.0,0.0,60.0,4.0,0.0
5896,63.0,12.0,180.0,1.0,0.0
5897,75.0,0.0,180.0,1.0,0.0
5898,51.0,0.0,15.0,7.0,0.0
5899,75.0,0.0,60.0,4.0,0.0
5900,68.0,0.0,60.0,0.0,0.0
5901,72.0,16.0,60.0,0.0,0.0
5902,60.0,0.0,60.0,5.0,0.0
5903,51.0,12.0,15.0,7.0,0.0
5904,58.0,0.0,20.0,5.0,0.0
5905,73.0,0.0,60.0,0.0,0.0
5906,63.0,8.0,120.0,6.0,0.0
5907,73.0,25.0,20.0,4.0,0.0
5908,70.0,0.0,60.0,0.0,0.0
5909,51.0,7.0,15.0,7.0,0.0
5910,51.0,23.0,15.0,7.0,0.0
5911,75.0,0.0,60.0,0.0,0.0
5912,72.0,16.0,60.0,0.0,0.0
5913,56.0,9.0,20.0,5.0,0.0
5914,72.0,0.0,20.0,4.0,0.0
5915,51.0,4.0,15.0,7.0,0.0
5916,73.0,0.0,60.0,0.0,0.0
5917,51.0,24.0,15.0,7.0,0.0
5918,51.0,0.0,90.0,1.0,0.0
5919,58.0,0.0,60.0,5.0,0.0
5920,70.0,32.0,60.0,0.0,0.0
5921,73.0,0.0,60.0,4.0,0.0
5922,63.0,4.0,90.0,1.0,0.0
5923,51.0,0.0,15.0,7.0,0.0
5924,58.0,0.0,60.0,6.0,0.0
5925,55.0,16.0,60.0,5.0,0.0
5926,70.0,0.0,60.0,0.0,0.0
5927,70.0,0.0,60.0,4.0,0.0
5928,67.0,0.0,60.0,0.0,0.0
5929,51.0,12.0,15.0,7.0,0.0
5930,68.0,20.0,90.0,1.0,0.0
5931,56.0,0.0,90.0,1.0,0.0
5932,68.0,26.0,15.0,4.0,0.0
5933,60.0,6.0,30.0,6.0,0.0
5934,56.0,0.0,15.0,5.0,0.0
5935,56.0,0.0,90.0,7.0,0.0
5936,68.0,0.0,90.0,0.0,0.0
5937,60.0,32.0,15.0,5.0,0.0
5938,75.0,0.0,15.0,4.0,0.0
5939,75.0,0.0,15.0,4.0,0.0
5940,60.0,12.0,15.0,5.0,0.0
5941,60.0,26.0,15.0,5.0,0.0
5942,72.0,0.0,90.0,1.0,0.0
5943,60.0,20.0,90.0,1.0,0.0
5944,48.0,6.0,30.0,6.0,0.0
5945,75.0,0.0,15.0,4.0,0.0
5946,60.0,32.0,15.0,5.0,0.0
5947,75.0,0.0,15.0,4.0,0.0
5948,75.0,0.0,15.0,4.0,0.0
5949,60.0,12.0,15.0,5.0,0.0
5950,75.0,26.0,15.0,4.0,0.0
5951,68.0,0.0,90.0,1.0,0.0
5952,56.0,20.0,90.0,1.0,0.0
5953,44.0,6.0,30.0,6.0,0.0
5954,60.0,0.0,15.0,5.0,0.0
5955,60.0,32.0,15.0,5.0,0.0
5956,75.0,0.0,15.0,4.0,0.0
5957,75.0,0.0,15.0,4.0,0.0
5958,60.0,12.0,15.0,5.0,0.0
5959,51.0,4.0,90.0,6.0,0.0
5960,61.0,0.0,60.0,5.0,0.0
5961,75.0,12.0,180.0,1.0,0.0
5962,39.0,32.0,15.0,7.0,0.0
5963,77.0,32.0,60.0,4.0,0.0
5964,63.0,0.0,180.0,1.0,0.0
5965,51.0,0.0,15.0,7.0,0.0
5966,68.0,0.0,60.0,0.0,0.0
5967,60.0,0.0,60.0,5.0,0.0
5968,72.0,0.0,60.0,0.0,0.0
5969,75.0,16.0,60.0,4.0,0.0
5970,51.0,12.0,15.0,7.0,0.0
5971,70.0,0.0,60.0,0.0,0.0
5972,51.0,7.0,15.0,7.0,0.0
5973,73.0,23.0,60.0,0.0,0.0
5974,73.0,25.0,20.0,4.0,0.0
5975,63.0,8.0,120.0,6.0,0.0
5976,58.0,0.0,20.0,5.0,0.0
5977,51.0,0.0,15.0,7.0,0.0
5978,72.0,16.0,60.0,0.0,0.0
5979,72.0,0.0,20.0,4.0,0.0
5980,56.0,9.0,20.0,5.0,0.0
5981,75.0,0.0,60.0,0.0,0.0
5982,51.0,4.0,15.0,7.0,0.0
5983,70.0,0.0,60.0,0.0,0.0
5984,51.0,24.0,15.0,7.0,0.0
5985,58.0,0.0,60.0,5.0,0.0
5986,73.0,0.0,60.0,0.0,0.0
5987,51.0,4.0,90.0,1.0,0.0
5988,63.0,0.0,90.0,1.0,0.0
5989,73.0,0.0,60.0,4.0,0.0
5990,51.0,32.0,15.0,7.0,0.0
5991,70.0,0.0,60.0,4.0,0.0
5992,70.0,0.0,60.0,0.0,0.0
5993,67.0,0.0,60.0,0.0,0.0
5994,55.0,0.0,60.0,5.0,0.0
5995,61.0,33.0,60.0,6.0,0.0
5996,51.0,12.0,15.0,7.0,0.0
5997,68.0,5.0,90.0,1.0,0.0
5998,56.0,32.0,30.0,5.0,0.0
5999,60.0,0.0,30.0,6.0,0.0
6000,68.0,0.0,90.0,4.0,0.0
6001,56.0,0.0,90.0,1.0,0.0
6002,68.0,0.0,90.0,0.0,0.0
6003,56.0,0.0,90.0,7.0,0.0
6004,60.0,0.0,30.0,6.0,0.0
6005,60.0,27.0,30.0,5.0,0.0
6006,63.0,0.0,30.0,5.0,0.0
6007,60.0,15.0,30.0,6.0,0.0
6008,63.0,17.0,15.0,5.0,0.0
6009,56.0,15.0,30.0,6.0,0.0
6010,75.0,0.0,570.0,0.0,0.0
6011,63.0,0.0,570.0,0.0,0.0
6012,72.0,5.0,90.0,4.0,0.0
6013,56.0,15.0,30.0,6.0,0.0
6014,63.0,17.0,15.0,5.0,0.0
6015,56.0,15.0,30.0,6.0,0.0
6016,63.0,12.0,15.0,5.0,0.0
6017,63.0,0.0,90.0,1.0,0.0
6018,61.0,15.0,30.0,5.0,0.0
6019,67.0,17.0,15.0,4.0,0.0
6020,58.0,0.0,30.0,6.0,0.0
6021,51.0,5.0,90.0,7.0,0.0
6022,51.0,0.0,30.0,5.0,0.0
6023,51.0,0.0,30.0,5.0,0.0
6024,61.0,15.0,30.0,5.0,0.0
6025,58.0,0.0,30.0,6.0,0.0
6026,67.0,17.0,15.0,4.0,0.0
6027,67.0,12.0,15.0,4.0,0.0
6028,61.0,0.0,30.0,5.0,0.0
6029,51.0,32.0,30.0,5.0,0.0
6030,58.0,0.0,30.0,6.0,0.0
6031,56.0,0.0,30.0,6.0,0.0
6032,56.0,0.0,90.0,7.0,0.0
6033,68.0,0.0,90.0,1.0,0.0
6034,68.0,0.0,90.0,4.0,0.0
6035,60.0,32.0,30.0,5.0,0.0
6036,51.0,0.0,30.0,5.0,0.0
6037,56.0,0.0,30.0,6.0,0.0
6038,51.0,27.0,30.0,5.0,0.0
6039,60.0,0.0,30.0,5.0,0.0
6040,56.0,32.0,30.0,6.0,0.0
6041,51.0,0.0,30.0,5.0,0.0
6042,60.0,0.0,30.0,5.0,0.0
6043,48.0,5.0,90.0,7.0,0.0
6044,56.0,32.0,30.0,6.0,0.0
6045,60.0,0.0,90.0,1.0,0.0
6046,51.0,0.0,30.0,5.0,0.0
6047,75.0,0.0,90.0,4.0,0.0
6048,60.0,0.0,30.0,5.0,0.0
6049,51.0,0.0,30.0,5.0,0.0
6050,56.0,27.0,30.0,6.0,0.0
6051,60.0,0.0,30.0,5.0,0.0
6052,51.0,15.0,30.0,5.0,0.0
6053,56.0,0.0,30.0,6.0,0.0
6054,60.0,0.0,30.0,5.0,0.0
6055,51.0,15.0,30.0,5.0,0.0
6056,61.0,0.0,30.0,5.0,0.0
6057,51.0,0.0,90.0,7.0,0.0
6058,63.0,0.0,90.0,1.0,0.0
6059,58.0,0.0,30.0,6.0,0.0
6060,67.0,17.0,15.0,4.0,0.0
6061,58.0,0.0,30.0,6.0,0.0
6062,51.0,0.0,30.0,5.0,0.0
6063,61.0,15.0,30.0,5.0,0.0
6064,67.0,17.0,15.0,4.0,0.0
6065,58.0,0.0,30.0,6.0,0.0
6066,67.0,12.0,15.0,4.0,0.0
6067,51.0,91.0,30.0,5.0,0.0
6068,61.0,0.0,30.0,5.0,0.0
6069,60.0,0.0,90.0,5.0,0.0
6070,56.0,0.0,90.0,1.0,0.0
6071,56.0,96.0,90.0,6.0,0.0
6072,51.0,0.0,90.0,5.0,0.0
6073,68.0,0.0,90.0,4.0,0.0
6074,44.0,0.0,90.0,7.0,0.0
6075,68.0,0.0,90.0,5.0,0.0
6076,63.0,0.0,90.0,6.0,0.0
6077,72.0,0.0,90.0,5.0,0.0
6078,68.0,0.0,90.0,1.0,0.0
6079,72.0,0.0,90.0,1.0,0.0
6080,72.0,0.0,90.0,4.0,0.0
6081,80.0,0.0,90.0,4.0,0.0
6082,44.0,0.0,90.0,7.0,0.0
6083,80.0,0.0,90.0,0.0,0.0
6084,72.0,96.0,90.0,0.0,0.0
6085,72.0,0.0,90.0,0.0,0.0
6086,68.0,0.0,90.0,5.0,0.0
6087,80.0,0.0,90.0,0.0,0.0
6088,72.0,0.0,90.0,4.0,0.0
6089,72.0,0.0,90.0,1.0,0.0
6090,44.0,0.0,90.0,7.0,0.0
6091,68.0,0.0,90.0,1.0,0.0
6092,72.0,0.0,90.0,5.0,0.0
6093,80.0,0.0,90.0,4.0,0.0
6094,63.0,96.0,90.0,6.0,0.0
6095,72.0,0.0,90.0,5.0,0.0
6096,68.0,0.0,90.0,5.0,0.0
6097,80.0,0.0,90.0,4.0,0.0
6098,63.0,0.0,90.0,6.0,0.0
6099,72.0,0.0,90.0,0.0,0.0
6100,72.0,0.0,90.0,1.0,0.0
6101,44.0,0.0,90.0,7.0,0.0
6102,80.0,0.0,90.0,0.0,0.0
6103,72.0,0.0,90.0,4.0,0.0
6104,68.0,0.0,90.0,1.0,0.0
