,note,step,duration,channel,velocity
0,61.0,0.0,240.0,1.0,0.0
1,65.0,60.0,60.0,1.0,0.0
2,80.0,60.0,120.0,0.0,0.0
3,68.0,0.0,60.0,1.0,0.0
4,80.0,0.0,120.0,0.0,0.0
5,65.0,60.0,60.0,1.0,0.0
6,68.0,60.0,60.0,1.0,0.0
7,60.0,60.0,240.0,1.0,0.0
8,66.0,60.0,60.0,1.0,0.0
9,63.0,0.0,240.0,1.0,0.0
10,68.0,60.0,60.0,1.0,0.0
11,80.0,0.0,15.0,0.0,0.0
12,66.0,60.0,60.0,1.0,0.0
13,68.0,0.0,60.0,1.0,0.0
14,80.0,0.0,15.0,0.0,0.0
15,65.0,60.0,60.0,1.0,0.0
16,68.0,0.0,60.0,1.0,0.0
17,85.0,28.0,60.0,0.0,0.0
18,65.0,0.0,30.0,1.0,0.0
19,61.0,0.0,15.0,1.0,0.0
20,77.0,60.0,30.0,0.0,0.0
21,78.0,0.0,30.0,0.0,0.0
22,66.0,0.0,30.0,1.0,0.0
23,63.0,92.0,30.0,1.0,0.0
24,68.0,60.0,60.0,1.0,0.0
25,65.0,0.0,120.0,1.0,0.0
26,80.0,28.0,120.0,0.0,0.0
27,73.0,0.0,60.0,1.0,0.0
28,61.0,60.0,30.0,1.0,0.0
29,65.0,0.0,30.0,1.0,0.0
30,66.0,0.0,30.0,1.0,0.0
31,63.0,92.0,30.0,1.0,0.0
32,68.0,0.0,60.0,1.0,0.0
33,80.0,60.0,60.0,0.0,0.0
34,65.0,0.0,120.0,1.0,0.0
35,85.0,28.0,60.0,0.0,0.0
36,73.0,0.0,60.0,1.0,0.0
37,77.0,60.0,30.0,0.0,0.0
38,61.0,0.0,30.0,1.0,0.0
39,65.0,0.0,30.0,1.0,0.0
40,78.0,0.0,30.0,0.0,0.0
41,63.0,92.0,30.0,1.0,0.0
42,66.0,0.0,30.0,1.0,0.0
43,80.0,0.0,60.0,0.0,0.0
44,68.0,60.0,60.0,1.0,0.0
45,65.0,28.0,120.0,1.0,0.0
46,85.0,0.0,60.0,0.0,0.0
47,73.0,0.0,60.0,1.0,0.0
48,61.0,60.0,30.0,1.0,0.0
49,73.0,0.0,30.0,0.0,0.0
50,53.0,0.0,30.0,1.0,0.0
51,75.0,0.0,30.0,0.0,0.0
52,63.0,0.0,30.0,1.0,0.0
53,56.0,92.0,30.0,1.0,0.0
54,61.0,60.0,240.0,1.0,0.0
55,77.0,60.0,60.0,0.0,0.0
56,65.0,0.0,60.0,1.0,0.0
57,68.0,0.0,60.0,1.0,0.0
58,73.0,60.0,60.0,0.0,0.0
59,80.0,0.0,60.0,0.0,0.0
60,65.0,60.0,60.0,1.0,0.0
61,78.0,0.0,60.0,0.0,0.0
62,68.0,0.0,60.0,1.0,0.0
63,77.0,15.0,90.0,0.0,0.0
64,56.0,0.0,240.0,1.0,0.0
65,61.0,30.0,60.0,1.0,0.0
66,65.0,0.0,60.0,1.0,0.0
67,78.0,15.0,15.0,0.0,0.0
68,77.0,60.0,15.0,0.0,0.0
69,60.0,60.0,60.0,1.0,0.0
70,75.0,0.0,120.0,0.0,0.0
71,63.0,60.0,60.0,1.0,0.0
72,61.0,0.0,240.0,1.0,0.0
73,65.0,60.0,60.0,1.0,0.0
74,68.0,0.0,60.0,1.0,0.0
75,80.0,60.0,15.0,0.0,0.0
76,65.0,60.0,60.0,1.0,0.0
77,68.0,0.0,60.0,1.0,0.0
78,66.0,60.0,60.0,1.0,0.0
79,60.0,0.0,240.0,1.0,0.0
80,80.0,0.0,120.0,0.0,0.0
81,63.0,0.0,240.0,1.0,0.0
82,68.0,60.0,60.0,1.0,0.0
83,66.0,60.0,60.0,1.0,0.0
84,68.0,60.0,60.0,1.0,0.0
85,61.0,0.0,120.0,1.0,0.0
86,65.0,60.0,60.0,1.0,0.0
87,80.0,0.0,15.0,0.0,0.0
88,85.0,28.0,60.0,0.0,0.0
89,68.0,0.0,60.0,1.0,0.0
90,65.0,60.0,30.0,1.0,0.0
91,77.0,0.0,30.0,0.0,0.0
92,61.0,0.0,30.0,1.0,0.0
93,63.0,0.0,30.0,1.0,0.0
94,78.0,92.0,30.0,0.0,0.0
95,66.0,0.0,30.0,1.0,0.0
96,68.0,60.0,60.0,1.0,0.0
97,80.0,28.0,120.0,0.0,0.0
98,65.0,0.0,120.0,1.0,0.0
99,73.0,0.0,60.0,1.0,0.0
100,61.0,60.0,30.0,1.0,0.0
101,65.0,0.0,30.0,1.0,0.0
102,63.0,0.0,30.0,1.0,0.0
103,66.0,92.0,30.0,1.0,0.0
104,68.0,60.0,60.0,1.0,0.0
105,65.0,0.0,120.0,1.0,0.0
106,80.0,0.0,60.0,0.0,0.0
107,85.0,0.0,60.0,0.0,0.0
108,73.0,28.0,60.0,1.0,0.0
109,77.0,60.0,30.0,0.0,0.0
110,61.0,0.0,30.0,1.0,0.0
111,65.0,0.0,30.0,1.0,0.0
112,63.0,92.0,30.0,1.0,0.0
113,78.0,0.0,30.0,0.0,0.0
114,66.0,0.0,30.0,1.0,0.0
115,65.0,28.0,120.0,1.0,0.0
116,68.0,0.0,120.0,1.0,0.0
117,80.0,60.0,60.0,0.0,0.0
118,85.0,0.0,60.0,0.0,0.0
119,73.0,60.0,30.0,0.0,0.0
120,75.0,92.0,30.0,0.0,0.0
121,61.0,30.0,60.0,1.0,0.0
122,56.0,0.0,240.0,1.0,0.0
123,77.0,30.0,90.0,0.0,0.0
124,65.0,15.0,60.0,1.0,0.0
125,60.0,5.0,60.0,1.0,0.0
126,75.0,10.0,15.0,0.0,0.0
127,77.0,10.0,15.0,0.0,0.0
128,75.0,10.0,15.0,0.0,0.0
129,77.0,10.0,15.0,0.0,0.0
130,75.0,5.0,15.0,0.0,0.0
131,77.0,10.0,15.0,0.0,0.0
132,66.0,120.0,60.0,1.0,0.0
133,75.0,10.0,15.0,0.0,0.0
134,77.0,10.0,15.0,0.0,0.0
135,75.0,10.0,15.0,0.0,0.0
136,73.0,15.0,15.0,0.0,0.0
137,75.0,0.0,15.0,0.0,0.0
138,65.0,0.0,120.0,1.0,0.0
139,73.0,170.0,120.0,0.0,0.0
140,61.0,10.0,120.0,1.0,0.0
141,61.0,0.0,60.0,8.0,0.0
142,73.0,60.0,240.0,3.0,0.0
143,77.0,0.0,240.0,3.0,0.0
144,49.0,0.0,240.0,10.0,0.0
145,80.0,30.0,90.0,5.0,0.0
146,80.0,0.0,90.0,6.0,0.0
147,61.0,0.0,240.0,4.0,0.0
148,65.0,30.0,60.0,7.0,0.0
149,65.0,0.0,240.0,4.0,0.0
150,80.0,0.0,90.0,2.0,0.0
151,56.0,0.0,60.0,8.0,0.0
152,63.0,60.0,60.0,7.0,0.0
153,80.0,30.0,90.0,6.0,0.0
154,65.0,30.0,60.0,7.0,0.0
155,80.0,0.0,90.0,5.0,0.0
156,61.0,0.0,60.0,8.0,0.0
157,80.0,0.0,90.0,2.0,0.0
158,61.0,0.0,60.0,7.0,0.0
159,56.0,0.0,60.0,8.0,0.0
160,80.0,30.0,90.0,2.0,0.0
161,80.0,0.0,90.0,5.0,0.0
162,48.0,0.0,180.0,10.0,0.0
163,66.0,0.0,60.0,7.0,0.0
164,63.0,30.0,60.0,8.0,0.0
165,78.0,30.0,180.0,3.0,0.0
166,75.0,0.0,180.0,3.0,0.0
167,66.0,0.0,180.0,4.0,0.0
168,63.0,0.0,180.0,4.0,0.0
169,80.0,0.0,90.0,6.0,0.0
170,63.0,60.0,60.0,7.0,0.0
171,56.0,0.0,60.0,8.0,0.0
172,80.0,0.0,90.0,5.0,0.0
173,63.0,0.0,60.0,8.0,0.0
174,80.0,0.0,90.0,6.0,0.0
175,66.0,0.0,60.0,7.0,0.0
176,80.0,15.0,90.0,2.0,0.0
177,63.0,0.0,60.0,7.0,0.0
178,56.0,75.0,60.0,8.0,0.0
179,73.0,0.0,90.0,5.0,0.0
180,80.0,0.0,60.0,6.0,0.0
181,80.0,15.0,90.0,5.0,0.0
182,65.0,0.0,60.0,7.0,0.0
183,49.0,0.0,90.0,10.0,0.0
184,77.0,0.0,90.0,3.0,0.0
185,61.0,30.0,60.0,8.0,0.0
186,80.0,0.0,60.0,2.0,0.0
187,73.0,0.0,90.0,3.0,0.0
188,61.0,0.0,90.0,4.0,0.0
189,65.0,0.0,90.0,4.0,0.0
190,68.0,0.0,60.0,7.0,0.0
191,85.0,0.0,60.0,6.0,0.0
192,85.0,43.0,60.0,2.0,0.0
193,65.0,0.0,60.0,8.0,0.0
194,61.0,0.0,30.0,8.0,0.0
195,77.0,60.0,30.0,2.0,0.0
196,77.0,0.0,30.0,6.0,0.0
197,65.0,0.0,30.0,7.0,0.0
198,66.0,0.0,30.0,7.0,0.0
199,78.0,92.0,30.0,2.0,0.0
200,63.0,0.0,30.0,8.0,0.0
201,78.0,0.0,30.0,6.0,0.0
202,80.0,0.0,90.0,6.0,0.0
203,73.0,0.0,90.0,5.0,0.0
204,68.0,15.0,90.0,4.0,0.0
205,68.0,0.0,60.0,7.0,0.0
206,80.0,0.0,90.0,2.0,0.0
207,77.0,0.0,60.0,3.0,0.0
208,65.0,0.0,90.0,4.0,0.0
209,65.0,0.0,60.0,8.0,0.0
210,80.0,30.0,15.0,3.0,0.0
211,68.0,43.0,60.0,8.0,0.0
212,73.0,0.0,60.0,7.0,0.0
213,85.0,0.0,60.0,3.0,0.0
214,65.0,0.0,30.0,4.0,0.0
215,73.0,0.0,30.0,3.0,0.0
216,77.0,0.0,30.0,3.0,0.0
217,61.0,0.0,30.0,4.0,0.0
218,65.0,17.0,30.0,7.0,0.0
219,73.0,43.0,60.0,5.0,0.0
220,61.0,0.0,30.0,8.0,0.0
221,63.0,0.0,30.0,4.0,0.0
222,73.0,75.0,60.0,5.0,0.0
223,63.0,0.0,30.0,8.0,0.0
224,66.0,17.0,30.0,7.0,0.0
225,78.0,0.0,30.0,3.0,0.0
226,75.0,0.0,30.0,3.0,0.0
227,66.0,0.0,30.0,4.0,0.0
228,73.0,0.0,90.0,5.0,0.0
229,61.0,0.0,90.0,10.0,0.0
230,68.0,30.0,60.0,7.0,0.0
231,80.0,0.0,60.0,6.0,0.0
232,68.0,0.0,90.0,4.0,0.0
233,65.0,0.0,90.0,4.0,0.0
234,80.0,0.0,60.0,2.0,0.0
235,65.0,0.0,60.0,8.0,0.0
236,80.0,0.0,90.0,3.0,0.0
237,77.0,15.0,90.0,3.0,0.0
238,73.0,0.0,60.0,7.0,0.0
239,68.0,0.0,60.0,8.0,0.0
240,85.0,0.0,60.0,2.0,0.0
241,85.0,43.0,60.0,6.0,0.0
242,65.0,60.0,30.0,7.0,0.0
243,77.0,0.0,30.0,6.0,0.0
244,61.0,0.0,30.0,8.0,0.0
245,77.0,0.0,30.0,2.0,0.0
246,78.0,0.0,30.0,6.0,0.0
247,66.0,0.0,30.0,7.0,0.0
248,63.0,77.0,30.0,8.0,0.0
249,78.0,0.0,30.0,2.0,0.0
250,80.0,15.0,60.0,2.0,0.0
251,68.0,0.0,90.0,4.0,0.0
252,65.0,0.0,90.0,4.0,0.0
253,77.0,0.0,60.0,3.0,0.0
254,73.0,15.0,90.0,5.0,0.0
255,65.0,0.0,60.0,8.0,0.0
256,61.0,0.0,90.0,10.0,0.0
257,80.0,0.0,60.0,6.0,0.0
258,68.0,30.0,60.0,7.0,0.0
259,80.0,0.0,60.0,3.0,0.0
260,85.0,0.0,60.0,6.0,0.0
261,68.0,0.0,60.0,8.0,0.0
262,73.0,0.0,60.0,7.0,0.0
263,85.0,43.0,60.0,3.0,0.0
264,80.0,0.0,60.0,3.0,0.0
265,73.0,0.0,30.0,6.0,0.0
266,61.0,0.0,30.0,7.0,0.0
267,85.0,0.0,30.0,2.0,0.0
268,61.0,0.0,30.0,8.0,0.0
269,73.0,0.0,30.0,3.0,0.0
270,61.0,60.0,30.0,4.0,0.0
271,60.0,0.0,30.0,4.0,0.0
272,72.0,0.0,30.0,3.0,0.0
273,63.0,0.0,30.0,7.0,0.0
274,63.0,0.0,30.0,4.0,0.0
275,75.0,0.0,30.0,3.0,0.0
276,60.0,0.0,30.0,8.0,0.0
277,87.0,92.0,30.0,2.0,0.0
278,75.0,0.0,30.0,6.0,0.0
279,77.0,0.0,60.0,6.0,0.0
280,73.0,30.0,90.0,5.0,0.0
281,61.0,0.0,120.0,4.0,0.0
282,61.0,30.0,60.0,8.0,0.0
283,65.0,0.0,60.0,7.0,0.0
284,61.0,0.0,90.0,10.0,0.0
285,89.0,0.0,60.0,2.0,0.0
286,73.0,0.0,120.0,3.0,0.0
287,61.0,0.0,60.0,7.0,0.0
288,85.0,0.0,60.0,2.0,0.0
289,73.0,0.0,60.0,6.0,0.0
290,56.0,0.0,60.0,8.0,0.0
291,80.0,0.0,60.0,3.0,0.0
292,65.0,0.0,60.0,8.0,0.0
293,92.0,30.0,60.0,2.0,0.0
294,68.0,0.0,60.0,4.0,0.0
295,68.0,0.0,60.0,7.0,0.0
296,65.0,0.0,15.0,4.0,0.0
297,80.0,0.0,60.0,6.0,0.0
298,73.0,0.0,90.0,5.0,0.0
299,49.0,15.0,90.0,10.0,0.0
300,77.0,60.0,15.0,3.0,0.0
301,63.0,0.0,60.0,8.0,0.0
302,75.0,0.0,60.0,3.0,0.0
303,78.0,0.0,60.0,3.0,0.0
304,66.0,60.0,60.0,7.0,0.0
305,63.0,15.0,60.0,4.0,0.0
306,66.0,0.0,60.0,4.0,0.0
307,90.0,0.0,60.0,2.0,0.0
308,78.0,0.0,60.0,6.0,0.0
309,89.0,0.0,120.0,2.0,0.0
310,61.0,30.0,60.0,8.0,0.0
311,65.0,0.0,120.0,4.0,0.0
312,56.0,0.0,90.0,10.0,0.0
313,61.0,0.0,120.0,4.0,0.0
314,73.0,0.0,120.0,3.0,0.0
315,77.0,0.0,120.0,3.0,0.0
316,65.0,0.0,60.0,7.0,0.0
317,80.0,30.0,90.0,5.0,0.0
318,77.0,0.0,90.0,6.0,0.0
319,65.0,0.0,60.0,8.0,0.0
320,68.0,45.0,60.0,7.0,0.0
321,78.0,0.0,30.0,6.0,0.0
322,77.0,0.0,15.0,6.0,0.0
323,63.0,45.0,60.0,8.0,0.0
324,75.0,0.0,60.0,6.0,0.0
325,87.0,0.0,60.0,2.0,0.0
326,72.0,0.0,60.0,3.0,0.0
327,75.0,0.0,60.0,3.0,0.0
328,63.0,0.0,60.0,4.0,0.0
329,66.0,0.0,60.0,7.0,0.0
330,60.0,15.0,60.0,4.0,0.0
331,60.0,75.0,60.0,8.0,0.0
332,63.0,0.0,60.0,7.0,0.0
333,73.0,0.0,240.0,3.0,0.0
334,77.0,0.0,240.0,3.0,0.0
335,65.0,0.0,60.0,7.0,0.0
336,65.0,0.0,240.0,4.0,0.0
337,80.0,0.0,90.0,6.0,0.0
338,80.0,30.0,90.0,2.0,0.0
339,61.0,0.0,240.0,4.0,0.0
340,80.0,0.0,90.0,5.0,0.0
341,61.0,30.0,60.0,8.0,0.0
342,49.0,0.0,240.0,10.0,0.0
343,61.0,0.0,60.0,7.0,0.0
344,56.0,60.0,60.0,8.0,0.0
345,80.0,0.0,90.0,5.0,0.0
346,80.0,0.0,90.0,6.0,0.0
347,65.0,0.0,60.0,7.0,0.0
348,61.0,30.0,60.0,8.0,0.0
349,80.0,30.0,90.0,2.0,0.0
350,56.0,0.0,60.0,8.0,0.0
351,61.0,60.0,60.0,7.0,0.0
352,80.0,30.0,90.0,2.0,0.0
353,63.0,30.0,60.0,8.0,0.0
354,80.0,0.0,90.0,5.0,0.0
355,48.0,0.0,180.0,10.0,0.0
356,75.0,30.0,180.0,3.0,0.0
357,78.0,0.0,180.0,3.0,0.0
358,66.0,0.0,180.0,4.0,0.0
359,80.0,0.0,90.0,6.0,0.0
360,63.0,0.0,180.0,4.0,0.0
361,66.0,0.0,60.0,7.0,0.0
362,63.0,60.0,60.0,7.0,0.0
363,56.0,0.0,60.0,8.0,0.0
364,80.0,0.0,90.0,5.0,0.0
365,80.0,0.0,90.0,2.0,0.0
366,63.0,0.0,60.0,8.0,0.0
367,66.0,0.0,60.0,7.0,0.0
368,80.0,15.0,90.0,6.0,0.0
369,56.0,0.0,60.0,8.0,0.0
370,63.0,75.0,60.0,7.0,0.0
371,80.0,0.0,60.0,6.0,0.0
372,49.0,0.0,90.0,10.0,0.0
373,80.0,0.0,90.0,5.0,0.0
374,80.0,0.0,60.0,2.0,0.0
375,73.0,0.0,90.0,5.0,0.0
376,61.0,30.0,60.0,8.0,0.0
377,65.0,0.0,90.0,4.0,0.0
378,65.0,0.0,60.0,7.0,0.0
379,61.0,15.0,90.0,4.0,0.0
380,73.0,0.0,90.0,3.0,0.0
381,77.0,0.0,90.0,3.0,0.0
382,65.0,0.0,60.0,8.0,0.0
383,68.0,0.0,60.0,7.0,0.0
384,85.0,0.0,60.0,2.0,0.0
385,85.0,43.0,60.0,6.0,0.0
386,61.0,0.0,30.0,8.0,0.0
387,77.0,60.0,30.0,6.0,0.0
388,77.0,0.0,30.0,2.0,0.0
389,65.0,0.0,30.0,7.0,0.0
390,66.0,0.0,30.0,7.0,0.0
391,78.0,0.0,30.0,6.0,0.0
392,78.0,0.0,30.0,2.0,0.0
393,63.0,92.0,30.0,8.0,0.0
394,80.0,0.0,90.0,2.0,0.0
395,65.0,0.0,60.0,8.0,0.0
396,80.0,0.0,90.0,6.0,0.0
397,68.0,0.0,90.0,4.0,0.0
398,65.0,0.0,90.0,4.0,0.0
399,77.0,0.0,60.0,3.0,0.0
400,80.0,0.0,60.0,3.0,0.0
401,73.0,15.0,90.0,5.0,0.0
402,68.0,30.0,60.0,7.0,0.0
403,68.0,43.0,60.0,8.0,0.0
404,73.0,0.0,60.0,7.0,0.0
405,80.0,0.0,60.0,3.0,0.0
406,85.0,0.0,60.0,3.0,0.0
407,73.0,0.0,30.0,3.0,0.0
408,65.0,0.0,30.0,7.0,0.0
409,77.0,0.0,30.0,3.0,0.0
410,61.0,0.0,30.0,8.0,0.0
411,73.0,43.0,60.0,5.0,0.0
412,65.0,0.0,30.0,4.0,0.0
413,61.0,17.0,30.0,4.0,0.0
414,63.0,0.0,30.0,8.0,0.0
415,78.0,0.0,30.0,3.0,0.0
416,73.0,75.0,60.0,5.0,0.0
417,75.0,0.0,30.0,3.0,0.0
418,66.0,0.0,30.0,7.0,0.0
419,66.0,17.0,30.0,4.0,0.0
420,63.0,0.0,30.0,4.0,0.0
421,68.0,0.0,60.0,7.0,0.0
422,77.0,0.0,90.0,3.0,0.0
423,61.0,0.0,90.0,10.0,0.0
424,65.0,0.0,60.0,8.0,0.0
425,73.0,0.0,90.0,5.0,0.0
426,80.0,0.0,60.0,2.0,0.0
427,68.0,15.0,90.0,4.0,0.0
428,65.0,0.0,90.0,4.0,0.0
429,80.0,30.0,60.0,6.0,0.0
430,80.0,0.0,90.0,3.0,0.0
431,73.0,0.0,60.0,7.0,0.0
432,68.0,43.0,60.0,8.0,0.0
433,85.0,0.0,60.0,2.0,0.0
434,85.0,0.0,60.0,6.0,0.0
435,77.0,0.0,30.0,2.0,0.0
436,61.0,0.0,30.0,8.0,0.0
437,77.0,60.0,30.0,6.0,0.0
438,65.0,0.0,30.0,7.0,0.0
439,78.0,77.0,30.0,2.0,0.0
440,78.0,0.0,30.0,6.0,0.0
441,66.0,0.0,30.0,7.0,0.0
442,63.0,0.0,30.0,8.0,0.0
443,65.0,0.0,90.0,4.0,0.0
444,68.0,0.0,90.0,4.0,0.0
445,73.0,15.0,90.0,5.0,0.0
446,77.0,0.0,60.0,3.0,0.0
447,80.0,15.0,60.0,2.0,0.0
448,80.0,0.0,60.0,6.0,0.0
449,68.0,0.0,60.0,7.0,0.0
450,65.0,30.0,60.0,8.0,0.0
451,61.0,0.0,90.0,10.0,0.0
452,80.0,0.0,15.0,3.0,0.0
453,85.0,0.0,60.0,3.0,0.0
454,73.0,0.0,60.0,7.0,0.0
455,85.0,0.0,60.0,6.0,0.0
456,68.0,0.0,60.0,8.0,0.0
457,73.0,0.0,30.0,6.0,0.0
458,61.0,0.0,30.0,7.0,0.0
459,61.0,0.0,30.0,8.0,0.0
460,61.0,60.0,30.0,4.0,0.0
461,73.0,0.0,30.0,3.0,0.0
462,85.0,0.0,30.0,2.0,0.0
463,63.0,0.0,30.0,7.0,0.0
464,87.0,0.0,30.0,2.0,0.0
465,60.0,0.0,30.0,8.0,0.0
466,75.0,92.0,30.0,6.0,0.0
467,63.0,0.0,30.0,4.0,0.0
468,60.0,0.0,30.0,4.0,0.0
469,75.0,0.0,30.0,3.0,0.0
470,72.0,0.0,30.0,3.0,0.0
471,80.0,0.0,90.0,5.0,0.0
472,89.0,0.0,90.0,2.0,0.0
473,56.0,30.0,90.0,10.0,0.0
474,77.0,0.0,120.0,3.0,0.0
475,65.0,13.0,120.0,4.0,0.0
476,61.0,0.0,120.0,4.0,0.0
477,65.0,0.0,60.0,7.0,0.0
478,73.0,0.0,120.0,3.0,0.0
479,61.0,30.0,60.0,8.0,0.0
480,77.0,0.0,90.0,6.0,0.0
481,65.0,0.0,60.0,8.0,0.0
482,68.0,0.0,60.0,7.0,0.0
483,66.0,0.0,60.0,7.0,0.0
484,80.0,0.0,90.0,5.0,0.0
485,75.0,11.0,15.0,6.0,0.0
486,44.0,3.0,90.0,10.0,0.0
487,87.0,0.0,15.0,2.0,0.0
488,60.0,0.0,90.0,4.0,0.0
489,75.0,0.0,90.0,3.0,0.0
490,72.0,0.0,90.0,3.0,0.0
491,63.0,4.0,60.0,8.0,0.0
492,63.0,0.0,90.0,4.0,0.0
493,89.0,2.0,15.0,2.0,0.0
494,77.0,8.0,15.0,6.0,0.0
495,87.0,6.0,15.0,2.0,0.0
496,75.0,3.0,15.0,6.0,0.0
497,89.0,10.0,15.0,2.0,0.0
498,77.0,1.0,15.0,6.0,0.0
499,87.0,6.0,15.0,2.0,0.0
500,89.0,2.0,15.0,2.0,0.0
501,75.0,8.0,15.0,6.0,0.0
502,87.0,6.0,15.0,2.0,0.0
503,60.0,1.0,60.0,8.0,0.0
504,63.0,0.0,60.0,7.0,0.0
505,77.0,4.0,15.0,6.0,0.0
506,89.0,6.0,15.0,2.0,0.0
507,87.0,0.0,15.0,2.0,0.0
508,75.0,11.0,15.0,6.0,0.0
509,85.0,1.0,15.0,2.0,0.0
510,73.0,13.0,15.0,6.0,0.0
511,87.0,1.0,15.0,2.0,0.0
512,75.0,28.0,15.0,6.0,0.0
513,61.0,62.0,30.0,7.0,0.0
514,85.0,0.0,120.0,2.0,0.0
515,73.0,0.0,120.0,5.0,0.0
516,73.0,0.0,30.0,6.0,0.0
517,49.0,30.0,90.0,10.0,0.0
518,61.0,60.0,120.0,4.0,0.0
519,61.0,0.0,30.0,8.0,0.0
520,73.0,0.0,120.0,3.0,0.0
521,68.0,0.0,60.0,6.0,0.0
522,68.0,0.0,60.0,7.0,0.0
523,68.0,0.0,60.0,8.0,0.0
524,65.0,0.0,60.0,7.0,0.0
525,65.0,45.0,60.0,6.0,0.0
526,65.0,0.0,60.0,8.0,0.0
527,61.0,0.0,60.0,7.0,0.0
528,61.0,135.0,60.0,8.0,0.0
529,61.0,0.0,60.0,6.0,0.0
530,60.0,30.0,120.0,1.0,0.0
531,63.0,0.0,120.0,1.0,0.0
532,75.0,90.0,150.0,0.0,0.0
533,56.0,0.0,60.0,1.0,0.0
534,60.0,0.0,120.0,1.0,0.0
535,63.0,0.0,120.0,1.0,0.0
536,75.0,120.0,60.0,0.0,0.0
537,56.0,0.0,60.0,1.0,0.0
538,61.0,120.0,120.0,1.0,0.0
539,65.0,0.0,120.0,1.0,0.0
540,77.0,0.0,120.0,0.0,0.0
541,56.0,0.0,60.0,1.0,0.0
542,78.0,60.0,120.0,0.0,0.0
543,63.0,0.0,120.0,1.0,0.0
544,66.0,0.0,120.0,1.0,0.0
545,56.0,0.0,60.0,1.0,0.0
546,68.0,0.0,120.0,1.0,0.0
547,80.0,30.0,60.0,0.0,0.0
548,82.0,30.0,30.0,0.0,0.0
549,56.0,30.0,60.0,1.0,0.0
550,84.0,0.0,30.0,0.0,0.0
551,65.0,0.0,15.0,1.0,0.0
552,85.0,30.0,30.0,0.0,0.0
553,68.0,0.0,120.0,1.0,0.0
554,87.0,30.0,30.0,0.0,0.0
555,56.0,0.0,60.0,1.0,0.0
556,89.0,30.0,30.0,0.0,0.0
557,90.0,120.0,30.0,0.0,0.0
558,65.0,120.0,120.0,1.0,0.0
559,68.0,0.0,120.0,1.0,0.0
560,92.0,0.0,120.0,0.0,0.0
561,56.0,0.0,60.0,1.0,0.0
562,65.0,60.0,120.0,1.0,0.0
563,68.0,0.0,120.0,1.0,0.0
564,56.0,0.0,60.0,1.0,0.0
565,65.0,0.0,120.0,1.0,0.0
566,85.0,60.0,60.0,0.0,0.0
567,84.0,0.0,60.0,0.0,0.0
568,56.0,60.0,60.0,1.0,0.0
569,82.0,60.0,60.0,0.0,0.0
570,65.0,0.0,120.0,1.0,0.0
571,68.0,0.0,15.0,1.0,0.0
572,80.0,60.0,60.0,0.0,0.0
573,56.0,0.0,60.0,1.0,0.0
574,63.0,0.0,120.0,1.0,0.0
575,79.0,60.0,60.0,0.0,0.0
576,56.0,60.0,60.0,1.0,0.0
577,78.0,0.0,60.0,0.0,0.0
578,77.0,60.0,60.0,0.0,0.0
579,68.0,0.0,15.0,1.0,0.0
580,80.0,0.0,60.0,0.0,0.0
581,56.0,120.0,60.0,1.0,0.0
582,61.0,0.0,15.0,1.0,0.0
583,78.0,13.0,120.0,0.0,0.0
584,56.0,0.0,60.0,1.0,0.0
585,68.0,0.0,15.0,1.0,0.0
586,61.0,0.0,15.0,1.0,0.0
587,77.0,11.0,15.0,0.0,0.0
588,78.0,10.0,15.0,0.0,0.0
589,77.0,9.0,15.0,0.0,0.0
590,78.0,11.0,15.0,0.0,0.0
591,77.0,10.0,15.0,0.0,0.0
592,78.0,10.0,15.0,0.0,0.0
593,56.0,0.0,60.0,1.0,0.0
594,77.0,10.0,15.0,0.0,0.0
595,78.0,9.0,15.0,0.0,0.0
596,77.0,13.0,15.0,0.0,0.0
597,75.0,14.0,15.0,0.0,0.0
598,77.0,110.0,15.0,0.0,0.0
599,75.0,10.0,120.0,0.0,0.0
600,56.0,120.0,60.0,1.0,0.0
601,68.0,0.0,15.0,1.0,0.0
602,60.0,0.0,15.0,1.0,0.0
603,56.0,0.0,60.0,1.0,0.0
604,63.0,0.0,120.0,1.0,0.0
605,60.0,30.0,120.0,1.0,0.0
606,75.0,90.0,150.0,0.0,0.0
607,56.0,0.0,60.0,1.0,0.0
608,60.0,0.0,120.0,1.0,0.0
609,63.0,0.0,120.0,1.0,0.0
610,56.0,0.0,60.0,1.0,0.0
611,75.0,120.0,60.0,0.0,0.0
612,77.0,0.0,120.0,0.0,0.0
613,61.0,0.0,120.0,1.0,0.0
614,65.0,0.0,120.0,1.0,0.0
615,56.0,120.0,60.0,1.0,0.0
616,66.0,0.0,120.0,1.0,0.0
617,63.0,0.0,120.0,1.0,0.0
618,78.0,0.0,120.0,0.0,0.0
619,56.0,15.0,60.0,1.0,0.0
620,65.0,0.0,120.0,1.0,0.0
621,82.0,30.0,15.0,0.0,0.0
622,68.0,15.0,120.0,1.0,0.0
623,80.0,30.0,15.0,0.0,0.0
624,78.0,30.0,15.0,0.0,0.0
625,56.0,0.0,60.0,1.0,0.0
626,77.0,15.0,15.0,0.0,0.0
627,63.0,0.0,120.0,1.0,0.0
628,66.0,0.0,120.0,1.0,0.0
629,78.0,30.0,15.0,0.0,0.0
630,80.0,30.0,15.0,0.0,0.0
631,56.0,15.0,60.0,1.0,0.0
632,82.0,30.0,15.0,0.0,0.0
633,84.0,15.0,15.0,0.0,0.0
634,85.0,30.0,15.0,0.0,0.0
635,87.0,30.0,15.0,0.0,0.0
636,89.0,30.0,15.0,0.0,0.0
637,56.0,60.0,60.0,1.0,0.0
638,90.0,15.0,15.0,0.0,0.0
639,65.0,0.0,15.0,1.0,0.0
640,61.0,0.0,15.0,1.0,0.0
641,92.0,60.0,60.0,0.0,0.0
642,56.0,60.0,60.0,1.0,0.0
643,85.0,30.0,60.0,0.0,0.0
644,58.0,30.0,360.0,1.0,0.0
645,67.0,0.0,360.0,1.0,0.0
646,61.0,0.0,360.0,1.0,0.0
647,87.0,30.0,30.0,0.0,0.0
648,89.0,30.0,30.0,0.0,0.0
649,87.0,30.0,30.0,0.0,0.0
650,85.0,30.0,30.0,0.0,0.0
651,84.0,30.0,30.0,0.0,0.0
652,82.0,30.0,30.0,0.0,0.0
653,80.0,30.0,30.0,0.0,0.0
654,79.0,30.0,30.0,0.0,0.0
655,85.0,30.0,30.0,0.0,0.0
656,84.0,0.0,30.0,0.0,0.0
657,87.0,30.0,30.0,0.0,0.0
658,85.0,30.0,30.0,0.0,0.0
659,82.0,30.0,30.0,0.0,0.0
660,79.0,30.0,30.0,0.0,0.0
661,60.0,0.0,120.0,1.0,0.0
662,68.0,0.0,120.0,1.0,0.0
663,80.0,14.0,30.0,0.0,0.0
664,56.0,14.0,120.0,1.0,0.0
665,75.0,30.0,15.0,0.0,0.0
666,77.0,30.0,15.0,0.0,0.0
667,79.0,16.0,15.0,0.0,0.0
668,80.0,30.0,15.0,0.0,0.0
669,82.0,30.0,15.0,0.0,0.0
670,84.0,30.0,15.0,0.0,0.0
671,85.0,46.0,15.0,0.0,0.0
672,89.0,30.0,30.0,0.0,0.0
673,87.0,14.0,30.0,0.0,0.0
674,85.0,30.0,15.0,0.0,0.0
675,84.0,46.0,15.0,0.0,0.0
676,67.0,14.0,120.0,1.0,0.0
677,63.0,0.0,120.0,1.0,0.0
678,73.0,0.0,120.0,1.0,0.0
679,82.0,15.0,30.0,0.0,0.0
680,84.0,10.0,15.0,0.0,0.0
681,82.0,10.0,15.0,0.0,0.0
682,80.0,18.0,15.0,0.0,0.0
683,82.0,21.0,20.0,0.0,0.0
684,84.0,16.0,15.0,0.0,0.0
685,72.0,0.0,120.0,1.0,0.0
686,68.0,14.0,120.0,1.0,0.0
687,80.0,30.0,15.0,0.0,0.0
688,75.0,30.0,15.0,0.0,0.0
689,77.0,30.0,15.0,0.0,0.0
690,79.0,16.0,15.0,0.0,0.0
691,80.0,30.0,15.0,0.0,0.0
692,82.0,30.0,15.0,0.0,0.0
693,84.0,30.0,15.0,0.0,0.0
694,85.0,46.0,15.0,0.0,0.0
695,89.0,30.0,30.0,0.0,0.0
696,87.0,14.0,30.0,0.0,0.0
697,85.0,30.0,15.0,0.0,0.0
698,84.0,46.0,15.0,0.0,0.0
699,73.0,14.0,120.0,1.0,0.0
700,82.0,15.0,30.0,0.0,0.0
701,63.0,0.0,120.0,1.0,0.0
702,67.0,0.0,120.0,1.0,0.0
703,84.0,10.0,15.0,0.0,0.0
704,82.0,10.0,15.0,0.0,0.0
705,80.0,18.0,15.0,0.0,0.0
706,82.0,21.0,20.0,0.0,0.0
707,84.0,16.0,15.0,0.0,0.0
708,68.0,0.0,120.0,1.0,0.0
709,72.0,14.0,120.0,1.0,0.0
710,80.0,31.0,15.0,0.0,0.0
711,82.0,10.0,15.0,0.0,0.0
712,80.0,10.0,15.0,0.0,0.0
713,79.0,25.0,15.0,0.0,0.0
714,80.0,30.0,30.0,0.0,0.0
715,82.0,0.0,30.0,0.0,0.0
716,84.0,31.0,15.0,0.0,0.0
717,85.0,10.0,15.0,0.0,0.0
718,84.0,10.0,15.0,0.0,0.0
719,82.0,25.0,15.0,0.0,0.0
720,84.0,30.0,30.0,0.0,0.0
721,85.0,14.0,30.0,0.0,0.0
722,87.0,31.0,15.0,0.0,0.0
723,89.0,10.0,15.0,0.0,0.0
724,87.0,10.0,15.0,0.0,0.0
725,85.0,25.0,15.0,0.0,0.0
726,87.0,30.0,30.0,0.0,0.0
727,89.0,60.0,30.0,0.0,0.0
728,90.0,60.0,60.0,0.0,0.0
729,89.0,60.0,60.0,0.0,0.0
730,92.0,60.0,60.0,0.0,0.0
731,68.0,0.0,360.0,1.0,0.0
732,72.0,0.0,360.0,1.0,0.0
733,78.0,0.0,360.0,1.0,0.0
734,90.0,60.0,60.0,0.0,0.0
735,89.0,60.0,60.0,0.0,0.0
736,87.0,30.0,60.0,0.0,0.0
737,85.0,30.0,30.0,0.0,0.0
738,84.0,30.0,30.0,0.0,0.0
739,87.0,30.0,30.0,0.0,0.0
740,85.0,30.0,30.0,0.0,0.0
741,84.0,30.0,30.0,0.0,0.0
742,87.0,30.0,30.0,0.0,0.0
743,85.0,30.0,30.0,0.0,0.0
744,82.0,60.0,30.0,0.0,0.0
745,65.0,60.0,60.0,1.0,0.0
746,61.0,0.0,240.0,1.0,0.0
747,68.0,0.0,60.0,1.0,0.0
748,80.0,60.0,15.0,0.0,0.0
749,65.0,60.0,60.0,1.0,0.0
750,68.0,0.0,60.0,1.0,0.0
751,66.0,60.0,60.0,1.0,0.0
752,80.0,60.0,15.0,0.0,0.0
753,63.0,0.0,240.0,1.0,0.0
754,60.0,0.0,240.0,1.0,0.0
755,68.0,0.0,60.0,1.0,0.0
756,66.0,60.0,60.0,1.0,0.0
757,80.0,60.0,15.0,0.0,0.0
758,68.0,60.0,60.0,1.0,0.0
759,80.0,0.0,15.0,0.0,0.0
760,65.0,60.0,60.0,1.0,0.0
761,85.0,0.0,60.0,0.0,0.0
762,68.0,28.0,60.0,1.0,0.0
763,77.0,0.0,30.0,0.0,0.0
764,65.0,0.0,30.0,1.0,0.0
765,61.0,0.0,15.0,1.0,0.0
766,66.0,0.0,30.0,1.0,0.0
767,63.0,0.0,30.0,1.0,0.0
768,78.0,92.0,30.0,0.0,0.0
769,65.0,28.0,120.0,1.0,0.0
770,68.0,60.0,60.0,1.0,0.0
771,80.0,0.0,120.0,0.0,0.0
772,73.0,0.0,60.0,1.0,0.0
773,65.0,0.0,30.0,1.0,0.0
774,61.0,60.0,30.0,1.0,0.0
775,63.0,92.0,30.0,1.0,0.0
776,66.0,0.0,30.0,1.0,0.0
777,68.0,0.0,60.0,1.0,0.0
778,80.0,60.0,60.0,0.0,0.0
779,85.0,0.0,60.0,0.0,0.0
780,73.0,28.0,60.0,1.0,0.0
781,77.0,0.0,30.0,0.0,0.0
782,65.0,0.0,15.0,1.0,0.0
783,61.0,0.0,30.0,1.0,0.0
784,63.0,92.0,30.0,1.0,0.0
785,66.0,0.0,30.0,1.0,0.0
786,78.0,0.0,30.0,0.0,0.0
787,68.0,0.0,60.0,1.0,0.0
788,65.0,0.0,120.0,1.0,0.0
789,80.0,60.0,60.0,0.0,0.0
790,73.0,0.0,60.0,1.0,0.0
791,85.0,28.0,60.0,0.0,0.0
792,53.0,0.0,30.0,1.0,0.0
793,73.0,0.0,30.0,0.0,0.0
794,61.0,60.0,30.0,1.0,0.0
795,63.0,92.0,30.0,1.0,0.0
796,56.0,0.0,30.0,1.0,0.0
797,75.0,0.0,30.0,0.0,0.0
798,77.0,0.0,60.0,0.0,0.0
799,61.0,0.0,240.0,1.0,0.0
800,65.0,60.0,60.0,1.0,0.0
801,73.0,0.0,60.0,0.0,0.0
802,68.0,60.0,60.0,1.0,0.0
803,80.0,60.0,60.0,0.0,0.0
804,65.0,0.0,60.0,1.0,0.0
805,68.0,60.0,60.0,1.0,0.0
806,78.0,0.0,60.0,0.0,0.0
807,61.0,30.0,60.0,1.0,0.0
808,56.0,60.0,240.0,1.0,0.0
809,77.0,15.0,90.0,0.0,0.0
810,65.0,0.0,60.0,1.0,0.0
811,78.0,15.0,15.0,0.0,0.0
812,77.0,60.0,15.0,0.0,0.0
813,75.0,0.0,120.0,0.0,0.0
814,60.0,60.0,60.0,1.0,0.0
815,63.0,0.0,60.0,1.0,0.0
816,61.0,0.0,240.0,1.0,0.0
817,80.0,60.0,120.0,0.0,0.0
818,65.0,60.0,60.0,1.0,0.0
819,68.0,0.0,60.0,1.0,0.0
820,65.0,60.0,60.0,1.0,0.0
821,68.0,0.0,60.0,1.0,0.0
822,63.0,60.0,240.0,1.0,0.0
823,80.0,60.0,15.0,0.0,0.0
824,60.0,0.0,240.0,1.0,0.0
825,66.0,60.0,60.0,1.0,0.0
826,68.0,0.0,60.0,1.0,0.0
827,66.0,60.0,60.0,1.0,0.0
828,68.0,0.0,60.0,1.0,0.0
829,65.0,60.0,60.0,1.0,0.0
830,61.0,0.0,120.0,1.0,0.0
831,80.0,0.0,15.0,0.0,0.0
832,85.0,28.0,60.0,0.0,0.0
833,68.0,0.0,60.0,1.0,0.0
834,61.0,0.0,30.0,1.0,0.0
835,65.0,0.0,30.0,1.0,0.0
836,77.0,60.0,30.0,0.0,0.0
837,63.0,92.0,30.0,1.0,0.0
838,66.0,0.0,30.0,1.0,0.0
839,78.0,0.0,30.0,0.0,0.0
840,68.0,60.0,60.0,1.0,0.0
841,80.0,0.0,120.0,0.0,0.0
842,73.0,28.0,60.0,1.0,0.0
843,65.0,0.0,15.0,1.0,0.0
844,61.0,60.0,30.0,1.0,0.0
845,63.0,92.0,30.0,1.0,0.0
846,66.0,0.0,30.0,1.0,0.0
847,80.0,60.0,60.0,0.0,0.0
848,68.0,0.0,60.0,1.0,0.0
849,73.0,0.0,60.0,1.0,0.0
850,85.0,28.0,60.0,0.0,0.0
851,65.0,0.0,15.0,1.0,0.0
852,77.0,0.0,30.0,0.0,0.0
853,61.0,0.0,30.0,1.0,0.0
854,78.0,0.0,30.0,0.0,0.0
855,63.0,92.0,30.0,1.0,0.0
856,66.0,0.0,30.0,1.0,0.0
857,80.0,60.0,60.0,0.0,0.0
858,65.0,28.0,120.0,1.0,0.0
859,68.0,0.0,120.0,1.0,0.0
860,73.0,0.0,60.0,1.0,0.0
861,85.0,0.0,60.0,0.0,0.0
862,73.0,60.0,30.0,0.0,0.0
863,75.0,92.0,30.0,0.0,0.0
864,56.0,0.0,240.0,1.0,0.0
865,61.0,30.0,60.0,1.0,0.0
866,77.0,30.0,90.0,0.0,0.0
867,65.0,15.0,60.0,1.0,0.0
868,75.0,10.0,15.0,0.0,0.0
869,60.0,5.0,60.0,1.0,0.0
870,77.0,10.0,15.0,0.0,0.0
871,75.0,10.0,15.0,0.0,0.0
872,77.0,10.0,15.0,0.0,0.0
873,75.0,5.0,15.0,0.0,0.0
874,77.0,10.0,15.0,0.0,0.0
875,75.0,10.0,15.0,0.0,0.0
876,66.0,105.0,60.0,1.0,0.0
877,77.0,10.0,15.0,0.0,0.0
878,75.0,10.0,15.0,0.0,0.0
879,73.0,15.0,15.0,0.0,0.0
880,75.0,0.0,15.0,0.0,0.0
881,65.0,0.0,120.0,1.0,0.0
882,61.0,10.0,120.0,1.0,0.0
883,73.0,35.0,120.0,0.0,0.0
884,73.0,15.0,60.0,5.0,0.0
885,61.0,0.0,60.0,10.0,0.0
886,73.0,0.0,60.0,8.0,0.0
887,73.0,0.0,60.0,5.0,0.0
888,73.0,0.0,60.0,8.0,0.0
889,61.0,60.0,60.0,10.0,0.0
890,61.0,0.0,60.0,10.0,0.0
891,73.0,60.0,60.0,5.0,0.0
892,73.0,0.0,60.0,8.0,0.0
893,58.0,60.0,300.0,4.0,0.0
894,70.0,0.0,300.0,7.0,0.0
895,78.0,0.0,300.0,6.0,0.0
896,61.0,60.0,60.0,8.0,0.0
897,73.0,45.0,840.0,5.0,0.0
898,49.0,0.0,60.0,10.0,0.0
899,66.0,0.0,300.0,4.0,0.0
900,61.0,60.0,60.0,10.0,0.0
901,73.0,0.0,60.0,8.0,0.0
902,61.0,0.0,60.0,10.0,0.0
903,73.0,60.0,60.0,8.0,0.0
904,61.0,0.0,60.0,10.0,0.0
905,73.0,60.0,60.0,8.0,0.0
906,61.0,0.0,60.0,10.0,0.0
907,73.0,0.0,60.0,8.0,0.0
908,65.0,45.0,60.0,4.0,0.0
909,77.0,0.0,60.0,6.0,0.0
910,61.0,15.0,60.0,10.0,0.0
911,73.0,0.0,60.0,8.0,0.0
912,68.0,0.0,60.0,7.0,0.0
913,56.0,0.0,60.0,4.0,0.0
914,54.0,45.0,60.0,4.0,0.0
915,75.0,0.0,60.0,6.0,0.0
916,61.0,0.0,60.0,10.0,0.0
917,66.0,0.0,60.0,7.0,0.0
918,73.0,15.0,60.0,8.0,0.0
919,63.0,0.0,60.0,4.0,0.0
920,73.0,0.0,60.0,8.0,0.0
921,65.0,0.0,60.0,7.0,0.0
922,73.0,0.0,60.0,6.0,0.0
923,61.0,0.0,60.0,10.0,0.0
924,61.0,60.0,60.0,4.0,0.0
925,53.0,0.0,60.0,4.0,0.0
926,82.0,0.0,300.0,6.0,0.0
927,78.0,60.0,300.0,7.0,0.0
928,61.0,0.0,60.0,8.0,0.0
929,49.0,60.0,60.0,10.0,0.0
930,70.0,0.0,300.0,4.0,0.0
931,66.0,0.0,300.0,4.0,0.0
932,73.0,0.0,60.0,8.0,0.0
933,61.0,60.0,60.0,10.0,0.0
934,73.0,60.0,60.0,8.0,0.0
935,61.0,0.0,60.0,10.0,0.0
936,61.0,0.0,60.0,10.0,0.0
937,73.0,60.0,60.0,8.0,0.0
938,61.0,0.0,60.0,10.0,0.0
939,73.0,0.0,60.0,8.0,0.0
940,65.0,0.0,60.0,4.0,0.0
941,73.0,0.0,60.0,8.0,0.0
942,80.0,0.0,60.0,6.0,0.0
943,68.0,0.0,60.0,4.0,0.0
944,61.0,15.0,60.0,10.0,0.0
945,77.0,0.0,60.0,7.0,0.0
946,66.0,0.0,60.0,4.0,0.0
947,63.0,0.0,60.0,4.0,0.0
948,75.0,0.0,60.0,7.0,0.0
949,78.0,45.0,60.0,6.0,0.0
950,61.0,15.0,60.0,10.0,0.0
951,73.0,0.0,60.0,8.0,0.0
952,61.0,0.0,60.0,10.0,0.0
953,73.0,0.0,60.0,7.0,0.0
954,65.0,60.0,60.0,4.0,0.0
955,77.0,0.0,60.0,6.0,0.0
956,73.0,0.0,60.0,8.0,0.0
957,61.0,0.0,60.0,4.0,0.0
958,85.0,45.0,60.0,6.0,0.0
959,49.0,0.0,60.0,10.0,0.0
960,73.0,15.0,540.0,5.0,0.0
961,75.0,0.0,60.0,8.0,0.0
962,75.0,0.0,480.0,3.0,0.0
963,68.0,0.0,60.0,7.0,0.0
964,90.0,28.0,480.0,2.0,0.0
965,84.0,0.0,480.0,3.0,0.0
966,66.0,0.0,480.0,4.0,0.0
967,63.0,0.0,480.0,4.0,0.0
968,78.0,15.0,60.0,7.0,0.0
969,61.0,0.0,60.0,10.0,0.0
970,75.0,15.0,90.0,8.0,0.0
971,78.0,0.0,90.0,7.0,0.0
972,68.0,0.0,90.0,7.0,0.0
973,84.0,45.0,60.0,6.0,0.0
974,84.0,15.0,120.0,6.0,0.0
975,61.0,60.0,60.0,10.0,0.0
976,61.0,30.0,60.0,10.0,0.0
977,75.0,15.0,90.0,8.0,0.0
978,68.0,0.0,90.0,7.0,0.0
979,78.0,0.0,90.0,7.0,0.0
980,49.0,45.0,60.0,10.0,0.0
981,68.0,0.0,90.0,7.0,0.0
982,78.0,15.0,90.0,7.0,0.0
983,89.0,15.0,30.0,6.0,0.0
984,75.0,0.0,90.0,8.0,0.0
985,61.0,8.0,60.0,10.0,0.0
986,87.0,37.0,20.0,6.0,0.0
987,85.0,0.0,30.0,6.0,0.0
988,61.0,15.0,60.0,10.0,0.0
989,84.0,30.0,30.0,6.0,0.0
990,82.0,15.0,30.0,6.0,0.0
991,61.0,8.0,60.0,10.0,0.0
992,75.0,0.0,60.0,8.0,0.0
993,78.0,0.0,60.0,7.0,0.0
994,80.0,7.0,20.0,6.0,0.0
995,77.0,0.0,60.0,7.0,0.0
996,68.0,0.0,15.0,7.0,0.0
997,73.0,0.0,120.0,8.0,0.0
998,85.0,0.0,60.0,3.0,0.0
999,77.0,0.0,60.0,3.0,0.0
1000,85.0,17.0,30.0,6.0,0.0
1001,61.0,60.0,60.0,4.0,0.0
1002,65.0,0.0,60.0,4.0,0.0
1003,89.0,0.0,60.0,2.0,0.0
1004,85.0,60.0,60.0,6.0,0.0
1005,84.0,60.0,60.0,6.0,0.0
1006,83.0,60.0,60.0,6.0,0.0
1007,82.0,60.0,60.0,6.0,0.0
1008,81.0,60.0,60.0,6.0,0.0
1009,80.0,45.0,60.0,6.0,0.0
1010,79.0,120.0,60.0,6.0,0.0
1011,80.0,30.0,120.0,6.0,0.0
1012,60.0,30.0,60.0,8.0,0.0
1013,64.0,0.0,60.0,7.0,0.0
1014,56.0,0.0,60.0,10.0,0.0
1015,65.0,0.0,60.0,7.0,0.0
1016,61.0,30.0,60.0,8.0,0.0
1017,78.0,15.0,15.0,6.0,0.0
1018,65.0,15.0,60.0,8.0,0.0
1019,68.0,0.0,60.0,7.0,0.0
1020,77.0,15.0,15.0,6.0,0.0
1021,75.0,0.0,15.0,6.0,0.0
1022,73.0,45.0,15.0,6.0,0.0
1023,56.0,60.0,60.0,10.0,0.0
1024,68.0,0.0,60.0,8.0,0.0
1025,73.0,0.0,60.0,7.0,0.0
1026,77.0,0.0,60.0,6.0,0.0
1027,73.0,0.0,60.0,7.0,0.0
1028,68.0,60.0,60.0,8.0,0.0
1029,75.0,0.0,60.0,6.0,0.0
1030,57.0,60.0,60.0,10.0,0.0
1031,66.0,0.0,60.0,8.0,0.0
1032,72.0,0.0,60.0,7.0,0.0
1033,66.0,0.0,60.0,8.0,0.0
1034,72.0,60.0,60.0,7.0,0.0
1035,65.0,30.0,90.0,8.0,0.0
1036,58.0,0.0,90.0,10.0,0.0
1037,73.0,45.0,60.0,6.0,0.0
1038,73.0,0.0,90.0,7.0,0.0
1039,85.0,60.0,60.0,6.0,0.0
1040,84.0,60.0,60.0,6.0,0.0
1041,83.0,60.0,60.0,6.0,0.0
1042,82.0,60.0,60.0,6.0,0.0
1043,81.0,60.0,60.0,6.0,0.0
1044,80.0,45.0,60.0,6.0,0.0
1045,79.0,135.0,60.0,6.0,0.0
1046,82.0,45.0,120.0,6.0,0.0
1047,62.0,15.0,60.0,8.0,0.0
1048,65.0,0.0,60.0,7.0,0.0
1049,63.0,0.0,120.0,4.0,0.0
1050,66.0,0.0,60.0,7.0,0.0
1051,90.0,0.0,120.0,2.0,0.0
1052,66.0,0.0,120.0,4.0,0.0
1053,82.0,0.0,120.0,3.0,0.0
1054,54.0,45.0,120.0,10.0,0.0
1055,63.0,15.0,60.0,8.0,0.0
1056,80.0,15.0,15.0,6.0,0.0
1057,70.0,0.0,60.0,7.0,0.0
1058,66.0,15.0,60.0,8.0,0.0
1059,78.0,15.0,15.0,6.0,0.0
1060,77.0,0.0,15.0,6.0,0.0
1061,75.0,0.0,15.0,6.0,0.0
1062,56.0,0.0,60.0,10.0,0.0
1063,61.0,0.0,60.0,4.0,0.0
1064,61.0,0.0,60.0,8.0,0.0
1065,85.0,0.0,60.0,3.0,0.0
1066,89.0,0.0,60.0,2.0,0.0
1067,65.0,60.0,60.0,4.0,0.0
1068,80.0,0.0,60.0,6.0,0.0
1069,65.0,0.0,60.0,7.0,0.0
1070,65.0,60.0,60.0,7.0,0.0
1071,61.0,0.0,60.0,8.0,0.0
1072,60.0,60.0,60.0,4.0,0.0
1073,87.0,0.0,60.0,2.0,0.0
1074,72.0,0.0,60.0,6.0,0.0
1075,66.0,0.0,60.0,7.0,0.0
1076,63.0,0.0,60.0,8.0,0.0
1077,44.0,0.0,60.0,10.0,0.0
1078,84.0,0.0,60.0,3.0,0.0
1079,63.0,0.0,60.0,4.0,0.0
1080,66.0,0.0,60.0,7.0,0.0
1081,63.0,60.0,60.0,8.0,0.0
1082,63.0,0.0,240.0,4.0,0.0
1083,60.0,0.0,240.0,4.0,0.0
1084,66.0,0.0,240.0,7.0,0.0
1085,87.0,0.0,240.0,2.0,0.0
1086,75.0,120.0,240.0,6.0,0.0
1087,60.0,0.0,240.0,8.0,0.0
1088,84.0,0.0,240.0,3.0,0.0
1089,78.0,0.0,240.0,3.0,0.0
1090,80.0,0.0,360.0,5.0,0.0
1091,49.0,120.0,60.0,10.0,0.0
1092,44.0,75.0,60.0,10.0,0.0
1093,61.0,0.0,120.0,8.0,0.0
1094,73.0,0.0,120.0,6.0,0.0
1095,77.0,0.0,120.0,3.0,0.0
1096,85.0,0.0,120.0,3.0,0.0
1097,73.0,0.0,120.0,5.0,0.0
1098,65.0,0.0,120.0,4.0,0.0
1099,61.0,0.0,120.0,4.0,0.0
1100,49.0,0.0,120.0,10.0,0.0
1101,65.0,0.0,120.0,7.0,0.0
1102,85.0,180.0,120.0,2.0,0.0
1103,68.0,0.0,90.0,0.0,0.0
1104,73.0,0.0,90.0,0.0,0.0
1105,77.0,30.0,60.0,0.0,0.0
1106,49.0,0.0,120.0,1.0,0.0
1107,61.0,30.0,120.0,1.0,0.0
1108,49.0,0.0,90.0,10.0,0.0
1109,80.0,30.0,360.0,0.0,0.0
1110,68.0,30.0,30.0,6.0,0.0
1111,61.0,0.0,30.0,8.0,0.0
1112,65.0,0.0,30.0,7.0,0.0
1113,61.0,60.0,30.0,8.0,0.0
1114,68.0,0.0,30.0,6.0,0.0
1115,65.0,0.0,30.0,7.0,0.0
1116,61.0,60.0,30.0,8.0,0.0
1117,68.0,0.0,30.0,6.0,0.0
1118,65.0,0.0,30.0,7.0,0.0
1119,61.0,0.0,30.0,8.0,0.0
1120,65.0,60.0,30.0,7.0,0.0
1121,68.0,0.0,30.0,6.0,0.0
1122,68.0,0.0,30.0,6.0,0.0
1123,65.0,30.0,30.0,7.0,0.0
1124,61.0,0.0,30.0,8.0,0.0
1125,78.0,30.0,60.0,0.0,0.0
1126,65.0,30.0,30.0,7.0,0.0
1127,68.0,0.0,30.0,6.0,0.0
1128,61.0,0.0,30.0,8.0,0.0
1129,61.0,30.0,30.0,8.0,0.0
1130,68.0,0.0,30.0,6.0,0.0
1131,65.0,0.0,30.0,7.0,0.0
1132,77.0,60.0,15.0,0.0,0.0
1133,56.0,0.0,120.0,1.0,0.0
1134,49.0,0.0,120.0,1.0,0.0
1135,49.0,30.0,90.0,10.0,0.0
1136,72.0,32.0,60.0,6.0,0.0
1137,75.0,0.0,60.0,0.0,0.0
1138,68.0,0.0,30.0,8.0,0.0
1139,66.0,0.0,60.0,7.0,0.0
1140,65.0,0.0,30.0,7.0,0.0
1141,73.0,32.0,120.0,0.0,0.0
1142,49.0,0.0,120.0,1.0,0.0
1143,68.0,0.0,30.0,8.0,0.0
1144,73.0,58.0,30.0,6.0,0.0
1145,68.0,30.0,30.0,8.0,0.0
1146,65.0,0.0,30.0,7.0,0.0
1147,73.0,0.0,30.0,6.0,0.0
1148,73.0,0.0,30.0,6.0,0.0
1149,65.0,0.0,30.0,7.0,0.0
1150,68.0,60.0,30.0,8.0,0.0
1151,65.0,0.0,30.0,7.0,0.0
1152,80.0,32.0,60.0,0.0,0.0
1153,73.0,28.0,30.0,6.0,0.0
1154,68.0,0.0,30.0,8.0,0.0
1155,73.0,28.0,30.0,6.0,0.0
1156,78.0,32.0,60.0,0.0,0.0
1157,68.0,0.0,30.0,8.0,0.0
1158,65.0,0.0,30.0,7.0,0.0
1159,65.0,0.0,30.0,7.0,0.0
1160,73.0,28.0,30.0,6.0,0.0
1161,77.0,60.0,60.0,0.0,0.0
1162,68.0,0.0,30.0,8.0,0.0
1163,49.0,0.0,90.0,10.0,0.0
1164,77.0,30.0,60.0,0.0,0.0
1165,56.0,0.0,120.0,1.0,0.0
1166,75.0,0.0,60.0,0.0,0.0
1167,66.0,32.0,60.0,7.0,0.0
1168,72.0,0.0,60.0,6.0,0.0
1169,68.0,30.0,30.0,8.0,0.0
1170,65.0,0.0,30.0,7.0,0.0
1171,73.0,58.0,30.0,6.0,0.0
1172,73.0,0.0,120.0,0.0,0.0
1173,49.0,0.0,15.0,1.0,0.0
1174,68.0,0.0,30.0,8.0,0.0
1175,73.0,0.0,30.0,6.0,0.0
1176,65.0,2.0,30.0,7.0,0.0
1177,68.0,28.0,30.0,8.0,0.0
1178,68.0,60.0,30.0,8.0,0.0
1179,65.0,0.0,30.0,7.0,0.0
1180,73.0,0.0,30.0,6.0,0.0
1181,65.0,0.0,30.0,7.0,0.0
1182,73.0,0.0,30.0,6.0,0.0
1183,73.0,32.0,60.0,0.0,0.0
1184,68.0,28.0,30.0,8.0,0.0
1185,73.0,28.0,30.0,6.0,0.0
1186,77.0,32.0,60.0,0.0,0.0
1187,65.0,0.0,30.0,7.0,0.0
1188,68.0,0.0,30.0,8.0,0.0
1189,80.0,60.0,60.0,0.0,0.0
1190,68.0,0.0,30.0,8.0,0.0
1191,73.0,0.0,30.0,6.0,0.0
1192,65.0,28.0,30.0,7.0,0.0
1193,63.0,0.0,240.0,8.0,0.0
1194,66.0,0.0,240.0,7.0,0.0
1195,60.0,0.0,180.0,1.0,0.0
1196,48.0,60.0,180.0,1.0,0.0
1197,48.0,0.0,240.0,10.0,0.0
1198,80.0,60.0,60.0,0.0,0.0
1199,78.0,60.0,60.0,0.0,0.0
1200,77.0,0.0,60.0,0.0,0.0
1201,75.0,30.0,60.0,0.0,0.0
1202,49.0,0.0,60.0,10.0,0.0
1203,49.0,0.0,60.0,1.0,0.0
1204,68.0,0.0,15.0,6.0,0.0
1205,61.0,0.0,60.0,8.0,0.0
1206,77.0,15.0,30.0,0.0,0.0
1207,65.0,0.0,60.0,7.0,0.0
1208,70.0,0.0,60.0,8.0,0.0
1209,54.0,15.0,60.0,1.0,0.0
1210,54.0,0.0,60.0,10.0,0.0
1211,66.0,0.0,60.0,7.0,0.0
1212,75.0,0.0,60.0,6.0,0.0
1213,80.0,15.0,30.0,0.0,0.0
1214,78.0,105.0,30.0,0.0,0.0
1215,56.0,75.0,60.0,10.0,0.0
1216,73.0,30.0,180.0,6.0,0.0
1217,56.0,45.0,120.0,1.0,0.0
1218,65.0,0.0,180.0,7.0,0.0
1219,68.0,0.0,180.0,8.0,0.0
1220,77.0,0.0,180.0,0.0,0.0
1221,56.0,15.0,60.0,10.0,0.0
1222,66.0,30.0,30.0,7.0,0.0
1223,78.0,0.0,30.0,0.0,0.0
1224,75.0,0.0,30.0,6.0,0.0
1225,77.0,0.0,30.0,0.0,0.0
1226,73.0,30.0,30.0,6.0,0.0
1227,65.0,0.0,30.0,7.0,0.0
1228,72.0,0.0,90.0,6.0,0.0
1229,44.0,45.0,60.0,10.0,0.0
1230,63.0,30.0,90.0,7.0,0.0
1231,75.0,15.0,30.0,0.0,0.0
1232,56.0,0.0,90.0,8.0,0.0
1233,77.0,60.0,60.0,0.0,0.0
1234,78.0,60.0,60.0,0.0,0.0
1235,79.0,90.0,60.0,0.0,0.0
1236,49.0,2.0,90.0,10.0,0.0
1237,49.0,0.0,120.0,1.0,0.0
1238,61.0,32.0,120.0,1.0,0.0
1239,80.0,32.0,360.0,0.0,0.0
1240,73.0,0.0,30.0,6.0,0.0
1241,65.0,0.0,30.0,7.0,0.0
1242,68.0,28.0,30.0,8.0,0.0
1243,65.0,0.0,30.0,7.0,0.0
1244,73.0,0.0,30.0,6.0,0.0
1245,68.0,60.0,30.0,8.0,0.0
1246,65.0,0.0,30.0,7.0,0.0
1247,73.0,0.0,30.0,6.0,0.0
1248,68.0,60.0,30.0,8.0,0.0
1249,65.0,60.0,30.0,7.0,0.0
1250,73.0,0.0,30.0,6.0,0.0
1251,68.0,0.0,30.0,8.0,0.0
1252,68.0,0.0,30.0,8.0,0.0
1253,65.0,0.0,30.0,7.0,0.0
1254,73.0,28.0,30.0,6.0,0.0
1255,65.0,28.0,30.0,7.0,0.0
1256,78.0,32.0,60.0,0.0,0.0
1257,73.0,0.0,30.0,6.0,0.0
1258,68.0,0.0,30.0,8.0,0.0
1259,73.0,28.0,30.0,6.0,0.0
1260,68.0,0.0,30.0,8.0,0.0
1261,65.0,0.0,30.0,7.0,0.0
1262,77.0,60.0,15.0,0.0,0.0
1263,49.0,0.0,90.0,10.0,0.0
1264,56.0,30.0,120.0,1.0,0.0
1265,49.0,0.0,120.0,1.0,0.0
1266,75.0,0.0,60.0,0.0,0.0
1267,66.0,0.0,60.0,7.0,0.0
1268,68.0,30.0,30.0,8.0,0.0
1269,72.0,0.0,60.0,6.0,0.0
1270,73.0,0.0,30.0,6.0,0.0
1271,73.0,0.0,120.0,0.0,0.0
1272,68.0,60.0,30.0,8.0,0.0
1273,65.0,0.0,30.0,7.0,0.0
1274,49.0,32.0,120.0,1.0,0.0
1275,65.0,2.0,30.0,7.0,0.0
1276,73.0,0.0,30.0,6.0,0.0
1277,68.0,28.0,30.0,8.0,0.0
1278,73.0,0.0,30.0,6.0,0.0
1279,65.0,28.0,30.0,7.0,0.0
1280,68.0,0.0,30.0,8.0,0.0
1281,80.0,30.0,30.0,0.0,0.0
1282,68.0,0.0,30.0,8.0,0.0
1283,79.0,2.0,30.0,0.0,0.0
1284,65.0,0.0,30.0,7.0,0.0
1285,73.0,28.0,30.0,6.0,0.0
1286,80.0,30.0,30.0,0.0,0.0
1287,68.0,0.0,30.0,8.0,0.0
1288,65.0,28.0,30.0,7.0,0.0
1289,82.0,2.0,30.0,0.0,0.0
1290,73.0,0.0,30.0,6.0,0.0
1291,80.0,30.0,30.0,0.0,0.0
1292,68.0,28.0,30.0,8.0,0.0
1293,78.0,2.0,30.0,0.0,0.0
1294,73.0,0.0,30.0,6.0,0.0
1295,65.0,0.0,30.0,7.0,0.0
1296,56.0,0.0,120.0,1.0,0.0
1297,49.0,30.0,90.0,10.0,0.0
1298,77.0,60.0,15.0,0.0,0.0
1299,66.0,32.0,60.0,7.0,0.0
1300,72.0,0.0,60.0,6.0,0.0
1301,68.0,0.0,30.0,8.0,0.0
1302,75.0,0.0,60.0,0.0,0.0
1303,68.0,0.0,30.0,8.0,0.0
1304,49.0,0.0,15.0,1.0,0.0
1305,73.0,32.0,120.0,0.0,0.0
1306,65.0,0.0,30.0,7.0,0.0
1307,73.0,58.0,30.0,6.0,0.0
1308,73.0,0.0,30.0,6.0,0.0
1309,65.0,2.0,30.0,7.0,0.0
1310,68.0,28.0,30.0,8.0,0.0
1311,73.0,48.0,30.0,6.0,0.0
1312,68.0,0.0,30.0,8.0,0.0
1313,65.0,0.0,30.0,7.0,0.0
1314,80.0,12.0,30.0,0.0,0.0
1315,65.0,0.0,30.0,7.0,0.0
1316,73.0,28.0,30.0,6.0,0.0
1317,68.0,0.0,30.0,8.0,0.0
1318,79.0,32.0,30.0,0.0,0.0
1319,73.0,0.0,30.0,6.0,0.0
1320,68.0,8.0,30.0,8.0,0.0
1321,61.0,35.0,60.0,10.0,0.0
1322,80.0,5.0,30.0,0.0,0.0
1323,65.0,0.0,30.0,7.0,0.0
1324,85.0,12.0,30.0,0.0,0.0
1325,68.0,0.0,30.0,8.0,0.0
1326,73.0,28.0,30.0,6.0,0.0
1327,65.0,0.0,30.0,7.0,0.0
1328,89.0,45.0,30.0,0.0,0.0
1329,87.0,60.0,60.0,0.0,0.0
1330,68.0,0.0,60.0,8.0,0.0
1331,75.0,0.0,60.0,6.0,0.0
1332,63.0,0.0,60.0,7.0,0.0
1333,60.0,0.0,60.0,1.0,0.0
1334,60.0,15.0,60.0,10.0,0.0
1335,84.0,45.0,30.0,0.0,0.0
1336,61.0,0.0,60.0,10.0,0.0
1337,82.0,60.0,60.0,0.0,0.0
1338,61.0,15.0,60.0,1.0,0.0
1339,65.0,0.0,60.0,7.0,0.0
1340,70.0,0.0,60.0,8.0,0.0
1341,73.0,0.0,60.0,6.0,0.0
1342,85.0,45.0,30.0,0.0,0.0
1343,63.0,0.0,60.0,10.0,0.0
1344,80.0,105.0,60.0,0.0,0.0
1345,63.0,15.0,60.0,7.0,0.0
1346,63.0,0.0,60.0,1.0,0.0
1347,68.0,0.0,60.0,8.0,0.0
1348,72.0,0.0,60.0,6.0,0.0
1349,51.0,0.0,60.0,1.0,0.0
1350,67.0,0.0,60.0,8.0,0.0
1351,51.0,0.0,60.0,10.0,0.0
1352,79.0,105.0,60.0,0.0,0.0
1353,70.0,15.0,60.0,6.0,0.0
1354,61.0,0.0,60.0,7.0,0.0
1355,56.0,45.0,60.0,10.0,0.0
1356,63.0,0.0,300.0,8.0,0.0
1357,61.0,0.0,240.0,7.0,0.0
1358,82.0,45.0,240.0,0.0,0.0
1359,67.0,0.0,240.0,6.0,0.0
1360,56.0,75.0,90.0,1.0,0.0
1361,51.0,75.0,60.0,10.0,0.0
1362,68.0,0.0,90.0,6.0,0.0
1363,44.0,45.0,60.0,10.0,0.0
1364,60.0,30.0,90.0,7.0,0.0
1365,80.0,0.0,120.0,0.0,0.0
1366,68.0,60.0,15.0,8.0,0.0
1367,68.0,122.0,30.0,8.0,0.0
1368,47.0,0.0,90.0,1.0,0.0
1369,59.0,2.0,90.0,1.0,0.0
1370,80.0,32.0,300.0,0.0,0.0
1371,47.0,0.0,360.0,10.0,0.0
1372,68.0,0.0,30.0,7.0,0.0
1373,63.0,0.0,30.0,8.0,0.0
1374,75.0,60.0,30.0,6.0,0.0
1375,68.0,0.0,30.0,7.0,0.0
1376,75.0,0.0,30.0,6.0,0.0
1377,63.0,60.0,30.0,8.0,0.0
1378,75.0,0.0,30.0,6.0,0.0
1379,68.0,0.0,30.0,7.0,0.0
1380,63.0,60.0,30.0,8.0,0.0
1381,63.0,0.0,30.0,8.0,0.0
1382,75.0,0.0,30.0,6.0,0.0
1383,68.0,28.0,30.0,7.0,0.0
1384,75.0,0.0,30.0,6.0,0.0
1385,68.0,0.0,30.0,7.0,0.0
1386,83.0,30.0,60.0,0.0,0.0
1387,63.0,28.0,30.0,8.0,0.0
1388,82.0,2.0,30.0,0.0,0.0
1389,68.0,0.0,30.0,7.0,0.0
1390,63.0,28.0,30.0,8.0,0.0
1391,75.0,0.0,30.0,6.0,0.0
1392,80.0,30.0,30.0,0.0,0.0
1393,63.0,28.0,30.0,8.0,0.0
1394,68.0,0.0,30.0,7.0,0.0
1395,78.0,2.0,30.0,0.0,0.0
1396,75.0,0.0,30.0,6.0,0.0
1397,77.0,60.0,30.0,0.0,0.0
1398,46.0,30.0,90.0,1.0,0.0
1399,70.0,120.0,120.0,7.0,0.0
1400,65.0,0.0,360.0,8.0,0.0
1401,58.0,0.0,90.0,1.0,0.0
1402,75.0,30.0,60.0,0.0,0.0
1403,46.0,0.0,360.0,10.0,0.0
1404,80.0,0.0,360.0,6.0,0.0
1405,74.0,0.0,60.0,0.0,0.0
1406,89.0,0.0,120.0,0.0,0.0
1407,75.0,90.0,120.0,7.0,0.0
1408,83.0,0.0,60.0,0.0,0.0
1409,58.0,30.0,90.0,1.0,0.0
1410,89.0,90.0,120.0,0.0,0.0
1411,74.0,0.0,120.0,7.0,0.0
1412,82.0,0.0,60.0,0.0,0.0
1413,62.0,0.0,90.0,8.0,0.0
1414,77.0,30.0,90.0,7.0,0.0
1415,89.0,90.0,120.0,0.0,0.0
1416,80.0,0.0,60.0,0.0,0.0
1417,58.0,30.0,180.0,1.0,0.0
1418,80.0,0.0,120.0,0.0,0.0
1419,58.0,32.0,240.0,10.0,0.0
1420,70.0,30.0,30.0,8.0,0.0
1421,74.0,30.0,60.0,7.0,0.0
1422,77.0,0.0,60.0,6.0,0.0
1423,75.0,0.0,30.0,7.0,0.0
1424,70.0,0.0,30.0,8.0,0.0
1425,78.0,30.0,30.0,6.0,0.0
1426,78.0,30.0,180.0,0.0,0.0
1427,75.0,2.0,30.0,7.0,0.0
1428,70.0,28.0,30.0,8.0,0.0
1429,78.0,0.0,30.0,6.0,0.0
1430,57.0,30.0,180.0,1.0,0.0
1431,73.0,0.0,30.0,7.0,0.0
1432,66.0,28.0,30.0,8.0,0.0
1433,78.0,0.0,30.0,6.0,0.0
1434,57.0,0.0,180.0,10.0,0.0
1435,78.0,0.0,30.0,6.0,0.0
1436,81.0,2.0,30.0,0.0,0.0
1437,73.0,0.0,30.0,7.0,0.0
1438,66.0,58.0,30.0,8.0,0.0
1439,66.0,0.0,30.0,8.0,0.0
1440,73.0,28.0,30.0,7.0,0.0
1441,80.0,2.0,30.0,0.0,0.0
1442,78.0,0.0,30.0,6.0,0.0
1443,78.0,0.0,30.0,0.0,0.0
1444,66.0,28.0,30.0,8.0,0.0
1445,73.0,0.0,30.0,7.0,0.0
1446,78.0,0.0,30.0,6.0,0.0
1447,76.0,2.0,30.0,0.0,0.0
1448,75.0,60.0,30.0,0.0,0.0
1449,73.0,30.0,60.0,0.0,0.0
1450,63.0,40.0,360.0,8.0,0.0
1451,56.0,0.0,360.0,10.0,0.0
1452,75.0,120.0,120.0,7.0,0.0
1453,78.0,0.0,360.0,6.0,0.0
1454,56.0,30.0,90.0,1.0,0.0
1455,72.0,0.0,60.0,0.0,0.0
1456,87.0,40.0,150.0,0.0,0.0
1457,73.0,40.0,120.0,7.0,0.0
1458,72.0,0.0,120.0,7.0,0.0
1459,85.0,40.0,30.0,0.0,0.0
1460,84.0,0.0,30.0,0.0,0.0
1461,81.0,40.0,30.0,0.0,0.0
1462,60.0,0.0,90.0,8.0,0.0
1463,75.0,30.0,90.0,7.0,0.0
1464,80.0,10.0,30.0,0.0,0.0
1465,78.0,80.0,30.0,0.0,0.0
1466,76.0,10.0,90.0,0.0,0.0
1467,49.0,0.0,120.0,1.0,0.0
1468,61.0,0.0,120.0,1.0,0.0
1469,61.0,2.0,90.0,10.0,0.0
1470,64.0,8.0,30.0,7.0,0.0
1471,68.0,0.0,30.0,6.0,0.0
1472,61.0,0.0,30.0,8.0,0.0
1473,78.0,10.0,15.0,0.0,0.0
1474,76.0,10.0,15.0,0.0,0.0
1475,75.0,32.0,15.0,0.0,0.0
1476,76.0,12.0,90.0,0.0,0.0
1477,68.0,48.0,30.0,6.0,0.0
1478,61.0,0.0,30.0,8.0,0.0
1479,64.0,0.0,30.0,7.0,0.0
1480,68.0,0.0,30.0,6.0,0.0
1481,64.0,0.0,30.0,7.0,0.0
1482,61.0,28.0,30.0,8.0,0.0
1483,78.0,32.0,30.0,0.0,0.0
1484,64.0,60.0,30.0,7.0,0.0
1485,68.0,0.0,30.0,6.0,0.0
1486,61.0,0.0,30.0,8.0,0.0
1487,61.0,0.0,120.0,1.0,0.0
1488,80.0,32.0,120.0,0.0,0.0
1489,64.0,0.0,30.0,7.0,0.0
1490,68.0,0.0,30.0,6.0,0.0
1491,61.0,28.0,30.0,8.0,0.0
1492,64.0,0.0,30.0,7.0,0.0
1493,61.0,0.0,30.0,8.0,0.0
1494,68.0,60.0,30.0,6.0,0.0
1495,64.0,0.0,30.0,7.0,0.0
1496,80.0,80.0,60.0,0.0,0.0
1497,61.0,0.0,30.0,8.0,0.0
1498,68.0,28.0,30.0,6.0,0.0
1499,78.0,10.0,90.0,0.0,0.0
1500,45.0,0.0,120.0,1.0,0.0
1501,57.0,15.0,120.0,1.0,0.0
1502,57.0,2.0,90.0,10.0,0.0
1503,66.0,0.0,30.0,7.0,0.0
1504,69.0,0.0,30.0,6.0,0.0
1505,61.0,8.0,30.0,8.0,0.0
1506,80.0,10.0,15.0,0.0,0.0
1507,78.0,10.0,15.0,0.0,0.0
1508,77.0,0.0,15.0,0.0,0.0
1509,61.0,13.0,30.0,8.0,0.0
1510,78.0,17.0,15.0,0.0,0.0
1511,69.0,0.0,30.0,6.0,0.0
1512,66.0,0.0,30.0,7.0,0.0
1513,77.0,30.0,15.0,0.0,0.0
1514,66.0,0.0,30.0,7.0,0.0
1515,78.0,17.0,15.0,0.0,0.0
1516,61.0,0.0,30.0,8.0,0.0
1517,69.0,13.0,30.0,6.0,0.0
1518,80.0,47.0,15.0,0.0,0.0
1519,81.0,32.0,120.0,0.0,0.0
1520,61.0,0.0,30.0,8.0,0.0
1521,57.0,0.0,120.0,1.0,0.0
1522,66.0,60.0,30.0,7.0,0.0
1523,69.0,0.0,30.0,6.0,0.0
1524,66.0,0.0,30.0,7.0,0.0
1525,61.0,28.0,30.0,8.0,0.0
1526,69.0,0.0,30.0,6.0,0.0
1527,69.0,60.0,30.0,6.0,0.0
1528,66.0,0.0,30.0,7.0,0.0
1529,61.0,0.0,30.0,8.0,0.0
1530,85.0,45.0,60.0,0.0,0.0
1531,69.0,0.0,30.0,6.0,0.0
1532,61.0,0.0,30.0,8.0,0.0
1533,66.0,28.0,30.0,7.0,0.0
1534,83.0,60.0,60.0,0.0,0.0
1535,59.0,0.0,180.0,1.0,0.0
1536,59.0,0.0,240.0,10.0,0.0
1537,59.0,60.0,360.0,8.0,0.0
1538,80.0,15.0,60.0,0.0,0.0
1539,68.0,60.0,60.0,6.0,0.0
1540,64.0,0.0,60.0,7.0,0.0
1541,68.0,0.0,60.0,7.0,0.0
1542,71.0,60.0,60.0,6.0,0.0
1543,76.0,0.0,180.0,0.0,0.0
1544,68.0,60.0,60.0,6.0,0.0
1545,64.0,0.0,60.0,7.0,0.0
1546,59.0,0.0,180.0,1.0,0.0
1547,47.0,45.0,180.0,1.0,0.0
1548,68.0,0.0,60.0,7.0,0.0
1549,47.0,0.0,180.0,10.0,0.0
1550,71.0,15.0,60.0,6.0,0.0
1551,68.0,0.0,60.0,6.0,0.0
1552,64.0,0.0,60.0,7.0,0.0
1553,78.0,15.0,15.0,0.0,0.0
1554,76.0,15.0,15.0,0.0,0.0
1555,75.0,15.0,15.0,0.0,0.0
1556,76.0,0.0,15.0,0.0,0.0
1557,80.0,0.0,60.0,0.0,0.0
1558,68.0,0.0,60.0,7.0,0.0
1559,71.0,0.0,60.0,6.0,0.0
1560,69.0,15.0,60.0,6.0,0.0
1561,63.0,0.0,60.0,7.0,0.0
1562,78.0,90.0,60.0,0.0,0.0
1563,52.0,0.0,120.0,1.0,0.0
1564,52.0,2.0,90.0,10.0,0.0
1565,76.0,32.0,120.0,0.0,0.0
1566,52.0,0.0,360.0,4.0,0.0
1567,64.0,28.0,30.0,7.0,0.0
1568,68.0,0.0,30.0,6.0,0.0
1569,59.0,0.0,30.0,8.0,0.0
1570,68.0,60.0,30.0,6.0,0.0
1571,59.0,0.0,30.0,8.0,0.0
1572,64.0,0.0,30.0,7.0,0.0
1573,59.0,60.0,30.0,8.0,0.0
1574,68.0,0.0,30.0,6.0,0.0
1575,64.0,0.0,30.0,7.0,0.0
1576,68.0,60.0,30.0,6.0,0.0
1577,64.0,32.0,120.0,1.0,0.0
1578,64.0,0.0,30.0,7.0,0.0
1579,59.0,0.0,30.0,8.0,0.0
1580,64.0,0.0,30.0,7.0,0.0
1581,68.0,13.0,30.0,6.0,0.0
1582,59.0,0.0,30.0,8.0,0.0
1583,76.0,15.0,60.0,0.0,0.0
1584,59.0,13.0,30.0,8.0,0.0
1585,68.0,0.0,30.0,6.0,0.0
1586,64.0,0.0,30.0,7.0,0.0
1587,80.0,47.0,60.0,0.0,0.0
1588,64.0,0.0,30.0,7.0,0.0
1589,83.0,105.0,60.0,0.0,0.0
1590,68.0,13.0,30.0,6.0,0.0
1591,59.0,0.0,30.0,8.0,0.0
1592,51.0,2.0,90.0,10.0,0.0
1593,82.0,0.0,120.0,0.0,0.0
1594,51.0,0.0,360.0,4.0,0.0
1595,63.0,0.0,360.0,1.0,0.0
1596,69.0,0.0,30.0,6.0,0.0
1597,66.0,0.0,30.0,7.0,0.0
1598,83.0,32.0,60.0,0.0,0.0
1599,59.0,28.0,30.0,8.0,0.0
1600,78.0,0.0,120.0,0.0,0.0
1601,69.0,0.0,30.0,6.0,0.0
1602,59.0,0.0,30.0,8.0,0.0
1603,66.0,60.0,30.0,7.0,0.0
1604,59.0,0.0,30.0,8.0,0.0
1605,66.0,28.0,30.0,7.0,0.0
1606,69.0,0.0,30.0,6.0,0.0
1607,83.0,32.0,60.0,0.0,0.0
1608,66.0,60.0,30.0,7.0,0.0
1609,82.0,0.0,120.0,0.0,0.0
1610,59.0,0.0,30.0,8.0,0.0
1611,69.0,0.0,30.0,6.0,0.0
1612,83.0,32.0,60.0,0.0,0.0
1613,69.0,0.0,30.0,6.0,0.0
1614,59.0,0.0,30.0,8.0,0.0
1615,66.0,28.0,30.0,7.0,0.0
1616,78.0,90.0,120.0,0.0,0.0
1617,69.0,0.0,30.0,6.0,0.0
1618,66.0,0.0,30.0,7.0,0.0
1619,59.0,60.0,30.0,8.0,0.0
1620,83.0,0.0,60.0,0.0,0.0
1621,66.0,0.0,30.0,7.0,0.0
1622,69.0,28.0,30.0,6.0,0.0
1623,59.0,0.0,30.0,8.0,0.0
1624,64.0,32.0,120.0,1.0,0.0
1625,81.0,0.0,120.0,0.0,0.0
1626,52.0,2.0,90.0,10.0,0.0
1627,52.0,0.0,360.0,4.0,0.0
1628,64.0,0.0,30.0,7.0,0.0
1629,59.0,0.0,30.0,8.0,0.0
1630,68.0,28.0,30.0,6.0,0.0
1631,59.0,0.0,30.0,8.0,0.0
1632,68.0,0.0,30.0,6.0,0.0
1633,64.0,60.0,30.0,7.0,0.0
1634,80.0,32.0,120.0,0.0,0.0
1635,68.0,0.0,30.0,6.0,0.0
1636,59.0,28.0,30.0,8.0,0.0
1637,64.0,0.0,30.0,7.0,0.0
1638,68.0,0.0,30.0,6.0,0.0
1639,64.0,60.0,30.0,7.0,0.0
1640,59.0,0.0,30.0,8.0,0.0
1641,64.0,32.0,120.0,1.0,0.0
1642,68.0,0.0,30.0,6.0,0.0
1643,76.0,15.0,60.0,0.0,0.0
1644,59.0,0.0,30.0,8.0,0.0
1645,64.0,13.0,30.0,7.0,0.0
1646,64.0,13.0,30.0,7.0,0.0
1647,59.0,0.0,30.0,8.0,0.0
1648,68.0,0.0,30.0,6.0,0.0
1649,80.0,47.0,60.0,0.0,0.0
1650,59.0,0.0,30.0,8.0,0.0
1651,64.0,28.0,30.0,7.0,0.0
1652,83.0,30.0,60.0,0.0,0.0
1653,68.0,0.0,30.0,6.0,0.0
1654,63.0,0.0,360.0,1.0,0.0
1655,82.0,30.0,30.0,0.0,0.0
1656,51.0,0.0,360.0,4.0,0.0
1657,51.0,0.0,90.0,10.0,0.0
1658,83.0,30.0,30.0,0.0,0.0
1659,59.0,0.0,30.0,8.0,0.0
1660,93.0,2.0,30.0,0.0,0.0
1661,66.0,28.0,30.0,7.0,0.0
1662,69.0,0.0,30.0,6.0,0.0
1663,92.0,30.0,30.0,0.0,0.0
1664,59.0,0.0,30.0,8.0,0.0
1665,66.0,0.0,30.0,7.0,0.0
1666,69.0,28.0,30.0,6.0,0.0
1667,92.0,2.0,30.0,0.0,0.0
1668,90.0,30.0,15.0,0.0,0.0
1669,66.0,28.0,30.0,7.0,0.0
1670,69.0,0.0,30.0,6.0,0.0
1671,59.0,0.0,30.0,8.0,0.0
1672,88.0,30.0,30.0,0.0,0.0
1673,69.0,0.0,30.0,6.0,0.0
1674,59.0,0.0,30.0,8.0,0.0
1675,66.0,28.0,30.0,7.0,0.0
1676,88.0,2.0,30.0,0.0,0.0
1677,87.0,30.0,15.0,0.0,0.0
1678,69.0,28.0,30.0,6.0,0.0
1679,59.0,0.0,30.0,8.0,0.0
1680,66.0,0.0,30.0,7.0,0.0
1681,85.0,30.0,30.0,0.0,0.0
1682,69.0,28.0,30.0,6.0,0.0
1683,66.0,0.0,30.0,7.0,0.0
1684,85.0,2.0,30.0,0.0,0.0
1685,59.0,0.0,30.0,8.0,0.0
1686,83.0,30.0,30.0,0.0,0.0
1687,69.0,28.0,30.0,6.0,0.0
1688,66.0,0.0,30.0,7.0,0.0
1689,59.0,0.0,30.0,8.0,0.0
1690,83.0,2.0,30.0,0.0,0.0
1691,81.0,88.0,30.0,0.0,0.0
1692,64.0,32.0,120.0,1.0,0.0
1693,52.0,0.0,90.0,4.0,0.0
1694,52.0,2.0,90.0,10.0,0.0
1695,79.0,0.0,120.0,0.0,0.0
1696,68.0,0.0,30.0,6.0,0.0
1697,64.0,28.0,30.0,7.0,0.0
1698,59.0,2.0,30.0,8.0,0.0
1699,59.0,32.0,60.0,8.0,0.0
1700,80.0,32.0,120.0,0.0,0.0
1701,64.0,28.0,30.0,7.0,0.0
1702,68.0,0.0,30.0,6.0,0.0
1703,60.0,0.0,60.0,8.0,0.0
1704,64.0,28.0,30.0,7.0,0.0
1705,68.0,0.0,30.0,6.0,0.0
1706,68.0,58.0,30.0,6.0,0.0
1707,61.0,0.0,30.0,8.0,0.0
1708,64.0,0.0,30.0,7.0,0.0
1709,61.0,32.0,120.0,1.0,0.0
1710,61.0,2.0,90.0,10.0,0.0
1711,64.0,28.0,30.0,7.0,0.0
1712,61.0,0.0,30.0,8.0,0.0
1713,68.0,0.0,30.0,6.0,0.0
1714,73.0,0.0,60.0,0.0,0.0
1715,68.0,28.0,30.0,6.0,0.0
1716,76.0,32.0,60.0,0.0,0.0
1717,61.0,0.0,30.0,8.0,0.0
1718,64.0,0.0,30.0,7.0,0.0
1719,64.0,0.0,30.0,7.0,0.0
1720,61.0,0.0,30.0,8.0,0.0
1721,68.0,28.0,30.0,6.0,0.0
1722,80.0,92.0,60.0,0.0,0.0
1723,60.0,0.0,360.0,1.0,0.0
1724,79.0,32.0,120.0,0.0,0.0
1725,60.0,0.0,360.0,10.0,0.0
1726,80.0,0.0,60.0,0.0,0.0
1727,63.0,0.0,30.0,8.0,0.0
1728,66.0,0.0,30.0,7.0,0.0
1729,68.0,28.0,30.0,6.0,0.0
1730,66.0,60.0,30.0,7.0,0.0
1731,75.0,32.0,120.0,0.0,0.0
1732,68.0,0.0,30.0,6.0,0.0
1733,63.0,0.0,30.0,8.0,0.0
1734,80.0,0.0,60.0,0.0,0.0
1735,68.0,0.0,30.0,6.0,0.0
1736,63.0,28.0,30.0,8.0,0.0
1737,66.0,0.0,30.0,7.0,0.0
1738,79.0,0.0,120.0,0.0,0.0
1739,66.0,0.0,30.0,7.0,0.0
1740,63.0,0.0,30.0,8.0,0.0
1741,68.0,60.0,30.0,6.0,0.0
1742,66.0,28.0,30.0,7.0,0.0
1743,63.0,0.0,30.0,8.0,0.0
1744,80.0,32.0,60.0,0.0,0.0
1745,68.0,0.0,30.0,6.0,0.0
1746,66.0,0.0,30.0,7.0,0.0
1747,63.0,60.0,30.0,8.0,0.0
1748,68.0,0.0,30.0,6.0,0.0
1749,75.0,0.0,120.0,0.0,0.0
1750,63.0,0.0,30.0,8.0,0.0
1751,80.0,90.0,60.0,0.0,0.0
1752,66.0,28.0,30.0,7.0,0.0
1753,68.0,0.0,30.0,6.0,0.0
1754,61.0,0.0,120.0,1.0,0.0
1755,78.0,32.0,120.0,0.0,0.0
1756,61.0,2.0,90.0,10.0,0.0
1757,68.0,0.0,30.0,6.0,0.0
1758,64.0,28.0,30.0,7.0,0.0
1759,61.0,0.0,30.0,8.0,0.0
1760,61.0,0.0,30.0,8.0,0.0
1761,76.0,90.0,120.0,0.0,0.0
1762,64.0,0.0,30.0,7.0,0.0
1763,68.0,60.0,30.0,6.0,0.0
1764,61.0,0.0,30.0,8.0,0.0
1765,64.0,0.0,30.0,7.0,0.0
1766,68.0,28.0,30.0,6.0,0.0
1767,59.0,0.0,120.0,1.0,0.0
1768,59.0,2.0,90.0,10.0,0.0
1769,73.0,32.0,60.0,0.0,0.0
1770,68.0,0.0,30.0,6.0,0.0
1771,64.0,28.0,30.0,7.0,0.0
1772,61.0,0.0,30.0,8.0,0.0
1773,68.0,28.0,30.0,6.0,0.0
1774,61.0,0.0,30.0,8.0,0.0
1775,64.0,0.0,30.0,7.0,0.0
1776,76.0,32.0,60.0,0.0,0.0
1777,61.0,28.0,30.0,8.0,0.0
1778,64.0,0.0,30.0,7.0,0.0
1779,80.0,90.0,60.0,0.0,0.0
1780,68.0,0.0,30.0,6.0,0.0
1781,67.0,75.0,300.0,6.0,0.0
1782,64.0,0.0,360.0,7.0,0.0
1783,57.0,45.0,480.0,1.0,0.0
1784,57.0,0.0,480.0,10.0,0.0
1785,85.0,10.0,90.0,0.0,0.0
1786,61.0,60.0,360.0,8.0,0.0
1787,87.0,10.0,15.0,0.0,0.0
1788,85.0,10.0,15.0,0.0,0.0
1789,84.0,60.0,15.0,0.0,0.0
1790,85.0,60.0,60.0,0.0,0.0
1791,87.0,45.0,60.0,0.0,0.0
1792,88.0,0.0,120.0,0.0,0.0
1793,76.0,0.0,60.0,6.0,0.0
1794,79.0,0.0,120.0,0.0,0.0
1795,63.0,0.0,60.0,7.0,0.0
1796,75.0,30.0,60.0,6.0,0.0
1797,55.0,15.0,90.0,8.0,0.0
1798,61.0,0.0,60.0,7.0,0.0
1799,73.0,15.0,60.0,6.0,0.0
1800,80.0,0.0,120.0,0.0,0.0
1801,60.0,47.0,60.0,7.0,0.0
1802,56.0,0.0,120.0,10.0,0.0
1803,56.0,32.0,120.0,1.0,0.0
1804,56.0,0.0,60.0,8.0,0.0
1805,63.0,28.0,30.0,8.0,0.0
1806,72.0,0.0,30.0,6.0,0.0
1807,68.0,0.0,30.0,7.0,0.0
1808,68.0,0.0,30.0,7.0,0.0
1809,72.0,0.0,30.0,6.0,0.0
1810,63.0,60.0,30.0,8.0,0.0
1811,72.0,0.0,30.0,6.0,0.0
1812,68.0,118.0,30.0,7.0,0.0
1813,63.0,0.0,30.0,8.0,0.0
1814,56.0,32.0,120.0,1.0,0.0
1815,56.0,2.0,90.0,10.0,0.0
1816,80.0,15.0,60.0,0.0,0.0
1817,72.0,0.0,30.0,6.0,0.0
1818,68.0,0.0,30.0,7.0,0.0
1819,63.0,13.0,30.0,8.0,0.0
1820,68.0,0.0,30.0,7.0,0.0
1821,63.0,13.0,30.0,8.0,0.0
1822,72.0,0.0,30.0,6.0,0.0
1823,84.0,47.0,60.0,0.0,0.0
1824,63.0,0.0,30.0,8.0,0.0
1825,87.0,105.0,60.0,0.0,0.0
1826,72.0,0.0,30.0,6.0,0.0
1827,68.0,13.0,30.0,7.0,0.0
1828,55.0,0.0,360.0,10.0,0.0
1829,55.0,0.0,360.0,1.0,0.0
1830,90.0,150.0,90.0,0.0,0.0
1831,70.0,0.0,360.0,7.0,0.0
1832,64.0,0.0,360.0,8.0,0.0
1833,73.0,120.0,360.0,6.0,0.0
1834,88.0,120.0,150.0,0.0,0.0
1835,85.0,0.0,240.0,0.0,0.0
1836,82.0,0.0,210.0,0.0,0.0
1837,79.0,0.0,180.0,0.0,0.0
1838,76.0,0.0,150.0,0.0,0.0
1839,73.0,0.0,120.0,0.0,0.0
1840,70.0,60.0,90.0,0.0,0.0
1841,67.0,0.0,60.0,0.0,0.0
1842,64.0,30.0,90.0,0.0,0.0
1843,63.0,30.0,30.0,0.0,0.0
1844,64.0,30.0,30.0,0.0,0.0
1845,66.0,30.0,30.0,0.0,0.0
1846,64.0,30.0,30.0,0.0,0.0
1847,63.0,30.0,30.0,0.0,0.0
1848,61.0,120.0,30.0,0.0,0.0
1849,72.0,0.0,360.0,5.0,0.0
1850,56.0,0.0,240.0,1.0,0.0
1851,63.0,0.0,360.0,7.0,0.0
1852,61.0,120.0,120.0,0.0,0.0
1853,68.0,0.0,360.0,6.0,0.0
1854,60.0,40.0,120.0,0.0,0.0
1855,68.0,40.0,30.0,0.0,0.0
1856,67.0,40.0,30.0,0.0,0.0
1857,68.0,40.0,30.0,0.0,0.0
1858,72.0,40.0,30.0,0.0,0.0
1859,71.0,40.0,30.0,0.0,0.0
1860,72.0,40.0,30.0,0.0,0.0
1861,75.0,40.0,30.0,0.0,0.0
1862,74.0,40.0,30.0,0.0,0.0
1863,75.0,40.0,30.0,0.0,0.0
1864,80.0,40.0,30.0,0.0,0.0
1865,79.0,40.0,30.0,0.0,0.0
1866,80.0,40.0,30.0,0.0,0.0
1867,84.0,40.0,30.0,0.0,0.0
1868,83.0,40.0,30.0,0.0,0.0
1869,84.0,40.0,30.0,0.0,0.0
1870,87.0,40.0,30.0,0.0,0.0
1871,86.0,40.0,30.0,0.0,0.0
1872,87.0,120.0,30.0,0.0,0.0
1873,90.0,120.0,120.0,0.0,0.0
1874,89.0,120.0,120.0,0.0,0.0
1875,78.0,0.0,480.0,1.0,0.0
1876,68.0,0.0,480.0,1.0,0.0
1877,72.0,0.0,480.0,1.0,0.0
1878,92.0,120.0,120.0,0.0,0.0
1879,90.0,120.0,120.0,0.0,0.0
1880,89.0,120.0,120.0,0.0,0.0
1881,87.0,60.0,120.0,0.0,0.0
1882,85.0,60.0,60.0,0.0,0.0
1883,84.0,60.0,60.0,0.0,0.0
1884,87.0,60.0,60.0,0.0,0.0
1885,85.0,60.0,60.0,0.0,0.0
1886,84.0,60.0,60.0,0.0,0.0
1887,87.0,60.0,60.0,0.0,0.0
1888,85.0,60.0,60.0,0.0,0.0
1889,82.0,60.0,60.0,0.0,0.0
1890,61.0,0.0,240.0,1.0,0.0
1891,65.0,60.0,60.0,1.0,0.0
1892,80.0,0.0,120.0,0.0,0.0
1893,68.0,60.0,60.0,1.0,0.0
1894,65.0,60.0,60.0,1.0,0.0
1895,68.0,0.0,60.0,1.0,0.0
1896,66.0,60.0,60.0,1.0,0.0
1897,60.0,0.0,240.0,1.0,0.0
1898,63.0,60.0,240.0,1.0,0.0
1899,80.0,60.0,15.0,0.0,0.0
1900,68.0,0.0,60.0,1.0,0.0
1901,80.0,0.0,120.0,0.0,0.0
1902,66.0,60.0,60.0,1.0,0.0
1903,68.0,0.0,60.0,1.0,0.0
1904,80.0,0.0,60.0,0.0,0.0
1905,61.0,0.0,120.0,1.0,0.0
1906,65.0,60.0,60.0,1.0,0.0
1907,85.0,28.0,60.0,0.0,0.0
1908,68.0,0.0,60.0,1.0,0.0
1909,65.0,0.0,30.0,1.0,0.0
1910,61.0,0.0,30.0,1.0,0.0
1911,77.0,60.0,30.0,0.0,0.0
1912,63.0,0.0,30.0,1.0,0.0
1913,66.0,92.0,30.0,1.0,0.0
1914,78.0,0.0,30.0,0.0,0.0
1915,80.0,28.0,120.0,0.0,0.0
1916,68.0,60.0,60.0,1.0,0.0
1917,65.0,0.0,120.0,1.0,0.0
1918,73.0,0.0,60.0,1.0,0.0
1919,65.0,0.0,30.0,1.0,0.0
1920,61.0,60.0,30.0,1.0,0.0
1921,66.0,0.0,30.0,1.0,0.0
1922,63.0,92.0,30.0,1.0,0.0
1923,80.0,60.0,60.0,0.0,0.0
1924,65.0,0.0,120.0,1.0,0.0
1925,68.0,0.0,60.0,1.0,0.0
1926,73.0,0.0,60.0,1.0,0.0
1927,85.0,28.0,60.0,0.0,0.0
1928,61.0,0.0,30.0,1.0,0.0
1929,65.0,60.0,30.0,1.0,0.0
1930,77.0,0.0,30.0,0.0,0.0
1931,78.0,92.0,30.0,0.0,0.0
1932,66.0,0.0,30.0,1.0,0.0
1933,63.0,0.0,30.0,1.0,0.0
1934,68.0,60.0,60.0,1.0,0.0
1935,65.0,0.0,120.0,1.0,0.0
1936,80.0,0.0,60.0,0.0,0.0
1937,85.0,28.0,60.0,0.0,0.0
1938,73.0,0.0,60.0,1.0,0.0
1939,53.0,0.0,30.0,1.0,0.0
1940,61.0,0.0,30.0,1.0,0.0
1941,73.0,60.0,30.0,0.0,0.0
1942,56.0,92.0,30.0,1.0,0.0
1943,63.0,0.0,30.0,1.0,0.0
1944,75.0,0.0,30.0,0.0,0.0
1945,77.0,60.0,60.0,0.0,0.0
1946,65.0,0.0,60.0,1.0,0.0
1947,61.0,60.0,240.0,1.0,0.0
1948,73.0,60.0,60.0,0.0,0.0
1949,68.0,0.0,60.0,1.0,0.0
1950,65.0,0.0,60.0,1.0,0.0
1951,80.0,60.0,60.0,0.0,0.0
1952,68.0,0.0,60.0,1.0,0.0
1953,78.0,0.0,60.0,0.0,0.0
1954,77.0,15.0,90.0,0.0,0.0
1955,61.0,30.0,60.0,1.0,0.0
1956,56.0,0.0,240.0,1.0,0.0
1957,65.0,60.0,60.0,1.0,0.0
1958,78.0,15.0,15.0,0.0,0.0
1959,77.0,0.0,15.0,0.0,0.0
1960,75.0,0.0,120.0,0.0,0.0
1961,60.0,60.0,60.0,1.0,0.0
1962,63.0,60.0,60.0,1.0,0.0
1963,80.0,0.0,120.0,0.0,0.0
1964,61.0,0.0,240.0,1.0,0.0
1965,65.0,60.0,60.0,1.0,0.0
1966,68.0,60.0,60.0,1.0,0.0
1967,65.0,60.0,60.0,1.0,0.0
1968,68.0,0.0,60.0,1.0,0.0
1969,66.0,60.0,60.0,1.0,0.0
1970,60.0,60.0,240.0,1.0,0.0
1971,63.0,0.0,240.0,1.0,0.0
1972,80.0,60.0,15.0,0.0,0.0
1973,68.0,0.0,60.0,1.0,0.0
1974,66.0,60.0,60.0,1.0,0.0
1975,68.0,0.0,60.0,1.0,0.0
1976,80.0,0.0,15.0,0.0,0.0
1977,65.0,60.0,60.0,1.0,0.0
1978,85.0,28.0,60.0,0.0,0.0
1979,68.0,0.0,60.0,1.0,0.0
1980,65.0,0.0,30.0,1.0,0.0
1981,61.0,0.0,15.0,1.0,0.0
1982,77.0,0.0,30.0,0.0,0.0
1983,78.0,0.0,30.0,0.0,0.0
1984,63.0,92.0,30.0,1.0,0.0
1985,66.0,0.0,30.0,1.0,0.0
1986,80.0,0.0,120.0,0.0,0.0
1987,68.0,60.0,60.0,1.0,0.0
1988,73.0,0.0,60.0,1.0,0.0
1989,61.0,60.0,30.0,1.0,0.0
1990,65.0,28.0,15.0,1.0,0.0
1991,63.0,92.0,30.0,1.0,0.0
1992,66.0,0.0,30.0,1.0,0.0
1993,80.0,0.0,60.0,0.0,0.0
1994,68.0,60.0,60.0,1.0,0.0
1995,85.0,0.0,60.0,0.0,0.0
1996,73.0,0.0,60.0,1.0,0.0
1997,77.0,0.0,30.0,0.0,0.0
1998,65.0,28.0,15.0,1.0,0.0
1999,61.0,60.0,30.0,1.0,0.0
2000,78.0,0.0,30.0,0.0,0.0
2001,63.0,0.0,30.0,1.0,0.0
2002,66.0,92.0,30.0,1.0,0.0
2003,65.0,0.0,120.0,1.0,0.0
2004,80.0,60.0,60.0,0.0,0.0
2005,68.0,0.0,120.0,1.0,0.0
2006,85.0,28.0,60.0,0.0,0.0
2007,73.0,60.0,30.0,0.0,0.0
2008,75.0,92.0,30.0,0.0,0.0
2009,77.0,30.0,90.0,0.0,0.0
2010,56.0,120.0,240.0,1.0,0.0
2011,61.0,30.0,60.0,1.0,0.0
2012,65.0,15.0,60.0,1.0,0.0
2013,60.0,5.0,60.0,1.0,0.0
2014,75.0,10.0,15.0,0.0,0.0
2015,77.0,10.0,15.0,0.0,0.0
2016,75.0,10.0,15.0,0.0,0.0
2017,77.0,10.0,15.0,0.0,0.0
2018,75.0,5.0,15.0,0.0,0.0
2019,77.0,10.0,15.0,0.0,0.0
2020,66.0,0.0,60.0,1.0,0.0
2021,75.0,10.0,15.0,0.0,0.0
2022,77.0,10.0,15.0,0.0,0.0
2023,75.0,10.0,15.0,0.0,0.0
2024,73.0,15.0,15.0,0.0,0.0
2025,75.0,0.0,15.0,0.0,0.0
2026,65.0,0.0,120.0,1.0,0.0
2027,73.0,230.0,120.0,0.0,0.0
2028,61.0,10.0,120.0,1.0,0.0
2029,60.0,0.0,120.0,1.0,0.0
2030,75.0,90.0,150.0,0.0,0.0
2031,56.0,0.0,60.0,1.0,0.0
2032,60.0,0.0,120.0,1.0,0.0
2033,63.0,30.0,15.0,1.0,0.0
2034,75.0,0.0,60.0,0.0,0.0
2035,56.0,0.0,60.0,1.0,0.0
2036,77.0,0.0,120.0,0.0,0.0
2037,61.0,120.0,120.0,1.0,0.0
2038,65.0,0.0,120.0,1.0,0.0
2039,56.0,0.0,60.0,1.0,0.0
2040,63.0,0.0,120.0,1.0,0.0
2041,66.0,60.0,120.0,1.0,0.0
2042,78.0,0.0,120.0,0.0,0.0
2043,56.0,0.0,60.0,1.0,0.0
2044,80.0,30.0,60.0,0.0,0.0
2045,56.0,0.0,60.0,1.0,0.0
2046,82.0,30.0,30.0,0.0,0.0
2047,84.0,30.0,30.0,0.0,0.0
2048,68.0,0.0,15.0,1.0,0.0
2049,65.0,0.0,15.0,1.0,0.0
2050,85.0,30.0,30.0,0.0,0.0
2051,87.0,30.0,30.0,0.0,0.0
2052,56.0,120.0,60.0,1.0,0.0
2053,89.0,30.0,30.0,0.0,0.0
2054,90.0,0.0,30.0,0.0,0.0
2055,92.0,120.0,120.0,0.0,0.0
2056,65.0,0.0,15.0,1.0,0.0
2057,68.0,0.0,120.0,1.0,0.0
2058,56.0,0.0,60.0,1.0,0.0
2059,68.0,0.0,120.0,1.0,0.0
2060,65.0,0.0,15.0,1.0,0.0
2061,56.0,0.0,60.0,1.0,0.0
2062,68.0,0.0,120.0,1.0,0.0
2063,85.0,60.0,60.0,0.0,0.0
2064,84.0,60.0,60.0,0.0,0.0
2065,56.0,0.0,60.0,1.0,0.0
2066,65.0,0.0,15.0,1.0,0.0
2067,82.0,60.0,60.0,0.0,0.0
2068,56.0,0.0,60.0,1.0,0.0
2069,80.0,60.0,60.0,0.0,0.0
2070,63.0,60.0,120.0,1.0,0.0
2071,68.0,0.0,15.0,1.0,0.0
2072,79.0,60.0,60.0,0.0,0.0
2073,78.0,0.0,60.0,0.0,0.0
2074,56.0,0.0,60.0,1.0,0.0
2075,77.0,60.0,60.0,0.0,0.0
2076,68.0,0.0,15.0,1.0,0.0
2077,56.0,0.0,60.0,1.0,0.0
2078,80.0,0.0,60.0,0.0,0.0
2079,61.0,0.0,15.0,1.0,0.0
2080,68.0,120.0,15.0,1.0,0.0
2081,78.0,13.0,120.0,0.0,0.0
2082,56.0,0.0,60.0,1.0,0.0
2083,61.0,0.0,15.0,1.0,0.0
2084,68.0,0.0,15.0,1.0,0.0
2085,77.0,11.0,15.0,0.0,0.0
2086,78.0,10.0,15.0,0.0,0.0
2087,77.0,9.0,15.0,0.0,0.0
2088,78.0,11.0,15.0,0.0,0.0
2089,77.0,10.0,15.0,0.0,0.0
2090,78.0,10.0,15.0,0.0,0.0
2091,77.0,10.0,15.0,0.0,0.0
2092,56.0,0.0,60.0,1.0,0.0
2093,78.0,9.0,15.0,0.0,0.0
2094,77.0,13.0,15.0,0.0,0.0
2095,75.0,14.0,15.0,0.0,0.0
2096,77.0,0.0,15.0,0.0,0.0
2097,75.0,10.0,120.0,0.0,0.0
2098,68.0,0.0,15.0,1.0,0.0
2099,56.0,120.0,60.0,1.0,0.0
2100,60.0,0.0,15.0,1.0,0.0
2101,68.0,0.0,120.0,1.0,0.0
2102,56.0,120.0,60.0,1.0,0.0
2103,75.0,90.0,150.0,0.0,0.0
2104,60.0,30.0,120.0,1.0,0.0
2105,56.0,0.0,60.0,1.0,0.0
2106,63.0,0.0,15.0,1.0,0.0
2107,60.0,120.0,120.0,1.0,0.0
2108,75.0,0.0,60.0,0.0,0.0
2109,56.0,0.0,60.0,1.0,0.0
2110,77.0,0.0,120.0,0.0,0.0
2111,61.0,120.0,120.0,1.0,0.0
2112,65.0,0.0,120.0,1.0,0.0
2113,56.0,0.0,60.0,1.0,0.0
2114,63.0,0.0,120.0,1.0,0.0
2115,78.0,15.0,120.0,0.0,0.0
2116,66.0,0.0,120.0,1.0,0.0
2117,56.0,0.0,60.0,1.0,0.0
2118,68.0,0.0,120.0,1.0,0.0
2119,65.0,15.0,120.0,1.0,0.0
2120,82.0,30.0,15.0,0.0,0.0
2121,80.0,30.0,15.0,0.0,0.0
2122,56.0,0.0,60.0,1.0,0.0
2123,78.0,30.0,15.0,0.0,0.0
2124,77.0,15.0,15.0,0.0,0.0
2125,63.0,0.0,120.0,1.0,0.0
2126,78.0,30.0,15.0,0.0,0.0
2127,66.0,0.0,120.0,1.0,0.0
2128,80.0,30.0,15.0,0.0,0.0
2129,56.0,15.0,60.0,1.0,0.0
2130,82.0,30.0,15.0,0.0,0.0
2131,84.0,15.0,15.0,0.0,0.0
2132,85.0,30.0,15.0,0.0,0.0
2133,87.0,30.0,15.0,0.0,0.0
2134,56.0,60.0,60.0,1.0,0.0
2135,89.0,30.0,15.0,0.0,0.0
2136,90.0,15.0,15.0,0.0,0.0
2137,61.0,0.0,15.0,1.0,0.0
2138,92.0,60.0,60.0,0.0,0.0
2139,65.0,0.0,15.0,1.0,0.0
2140,56.0,0.0,60.0,1.0,0.0
2141,85.0,30.0,60.0,0.0,0.0
2142,61.0,60.0,15.0,1.0,0.0
2143,58.0,0.0,360.0,1.0,0.0
2144,67.0,0.0,360.0,1.0,0.0
2145,87.0,30.0,30.0,0.0,0.0
2146,89.0,30.0,30.0,0.0,0.0
2147,87.0,30.0,30.0,0.0,0.0
2148,85.0,30.0,30.0,0.0,0.0
2149,84.0,30.0,30.0,0.0,0.0
2150,82.0,30.0,30.0,0.0,0.0
2151,80.0,30.0,30.0,0.0,0.0
2152,79.0,30.0,30.0,0.0,0.0
2153,85.0,30.0,30.0,0.0,0.0
2154,84.0,30.0,30.0,0.0,0.0
2155,87.0,30.0,30.0,0.0,0.0
2156,85.0,30.0,30.0,0.0,0.0
2157,82.0,30.0,30.0,0.0,0.0
2158,79.0,30.0,30.0,0.0,0.0
2159,68.0,14.0,120.0,1.0,0.0
2160,60.0,0.0,120.0,1.0,0.0
2161,56.0,0.0,120.0,1.0,0.0
2162,80.0,14.0,30.0,0.0,0.0
2163,75.0,30.0,15.0,0.0,0.0
2164,77.0,30.0,15.0,0.0,0.0
2165,79.0,16.0,15.0,0.0,0.0
2166,80.0,30.0,15.0,0.0,0.0
2167,82.0,30.0,15.0,0.0,0.0
2168,84.0,30.0,15.0,0.0,0.0
2169,85.0,46.0,15.0,0.0,0.0
2170,89.0,30.0,30.0,0.0,0.0
2171,87.0,14.0,30.0,0.0,0.0
2172,85.0,30.0,15.0,0.0,0.0
2173,84.0,46.0,15.0,0.0,0.0
2174,63.0,0.0,120.0,1.0,0.0
2175,82.0,15.0,30.0,0.0,0.0
2176,67.0,14.0,120.0,1.0,0.0
2177,73.0,0.0,120.0,1.0,0.0
2178,84.0,10.0,15.0,0.0,0.0
2179,82.0,10.0,15.0,0.0,0.0
2180,80.0,18.0,15.0,0.0,0.0
2181,82.0,21.0,20.0,0.0,0.0
2182,84.0,16.0,15.0,0.0,0.0
2183,80.0,30.0,15.0,0.0,0.0
2184,72.0,14.0,120.0,1.0,0.0
2185,68.0,0.0,120.0,1.0,0.0
2186,75.0,30.0,15.0,0.0,0.0
2187,77.0,30.0,15.0,0.0,0.0
2188,79.0,16.0,15.0,0.0,0.0
2189,80.0,30.0,15.0,0.0,0.0
2190,82.0,30.0,15.0,0.0,0.0
2191,84.0,30.0,15.0,0.0,0.0
2192,85.0,46.0,15.0,0.0,0.0
2193,89.0,30.0,30.0,0.0,0.0
2194,87.0,14.0,30.0,0.0,0.0
2195,85.0,30.0,15.0,0.0,0.0
2196,84.0,46.0,15.0,0.0,0.0
2197,67.0,14.0,120.0,1.0,0.0
2198,73.0,0.0,120.0,1.0,0.0
2199,63.0,0.0,120.0,1.0,0.0
2200,82.0,15.0,30.0,0.0,0.0
2201,84.0,10.0,15.0,0.0,0.0
2202,82.0,10.0,15.0,0.0,0.0
2203,80.0,18.0,15.0,0.0,0.0
2204,82.0,21.0,20.0,0.0,0.0
2205,84.0,16.0,15.0,0.0,0.0
2206,80.0,31.0,15.0,0.0,0.0
2207,72.0,0.0,120.0,1.0,0.0
2208,68.0,14.0,120.0,1.0,0.0
2209,82.0,10.0,15.0,0.0,0.0
2210,80.0,10.0,15.0,0.0,0.0
2211,79.0,25.0,15.0,0.0,0.0
2212,80.0,30.0,30.0,0.0,0.0
2213,82.0,0.0,30.0,0.0,0.0
2214,84.0,31.0,15.0,0.0,0.0
2215,85.0,10.0,15.0,0.0,0.0
2216,84.0,10.0,15.0,0.0,0.0
2217,82.0,25.0,15.0,0.0,0.0
2218,84.0,30.0,30.0,0.0,0.0
2219,85.0,14.0,30.0,0.0,0.0
2220,87.0,31.0,15.0,0.0,0.0
2221,89.0,10.0,15.0,0.0,0.0
2222,87.0,10.0,15.0,0.0,0.0
2223,85.0,25.0,15.0,0.0,0.0
2224,87.0,30.0,30.0,0.0,0.0
2225,89.0,60.0,30.0,0.0,0.0
2226,90.0,60.0,60.0,0.0,0.0
2227,89.0,60.0,60.0,0.0,0.0
2228,78.0,30.0,360.0,1.0,0.0
2229,72.0,0.0,360.0,1.0,0.0
2230,68.0,0.0,360.0,1.0,0.0
2231,92.0,60.0,60.0,0.0,0.0
2232,90.0,60.0,60.0,0.0,0.0
2233,89.0,60.0,60.0,0.0,0.0
2234,87.0,30.0,60.0,0.0,0.0
2235,85.0,30.0,30.0,0.0,0.0
2236,84.0,30.0,30.0,0.0,0.0
2237,87.0,30.0,30.0,0.0,0.0
2238,85.0,0.0,30.0,0.0,0.0
2239,84.0,30.0,30.0,0.0,0.0
2240,87.0,30.0,30.0,0.0,0.0
2241,85.0,30.0,30.0,0.0,0.0
2242,82.0,60.0,30.0,0.0,0.0
2243,61.0,0.0,60.0,8.0,0.0
2244,61.0,0.0,240.0,1.0,0.0
2245,65.0,0.0,60.0,1.0,0.0
2246,65.0,30.0,60.0,7.0,0.0
2247,80.0,30.0,90.0,6.0,0.0
2248,49.0,0.0,180.0,10.0,0.0
2249,61.0,0.0,60.0,7.0,0.0
2250,68.0,0.0,60.0,1.0,0.0
2251,56.0,60.0,60.0,8.0,0.0
2252,61.0,0.0,60.0,8.0,0.0
2253,80.0,0.0,15.0,0.0,0.0
2254,65.0,30.0,60.0,1.0,0.0
2255,80.0,30.0,90.0,6.0,0.0
2256,65.0,0.0,60.0,7.0,0.0
2257,61.0,0.0,60.0,7.0,0.0
2258,56.0,0.0,60.0,8.0,0.0
2259,68.0,60.0,60.0,1.0,0.0
2260,66.0,30.0,60.0,7.0,0.0
2261,48.0,30.0,180.0,10.0,0.0
2262,63.0,0.0,60.0,8.0,0.0
2263,63.0,0.0,240.0,1.0,0.0
2264,60.0,0.0,240.0,1.0,0.0
2265,66.0,0.0,60.0,1.0,0.0
2266,80.0,30.0,90.0,6.0,0.0
2267,68.0,60.0,60.0,1.0,0.0
2268,56.0,0.0,60.0,8.0,0.0
2269,63.0,0.0,60.0,7.0,0.0
2270,80.0,15.0,90.0,6.0,0.0
2271,66.0,0.0,60.0,7.0,0.0
2272,66.0,0.0,60.0,1.0,0.0
2273,80.0,0.0,15.0,0.0,0.0
2274,63.0,0.0,60.0,8.0,0.0
2275,63.0,0.0,60.0,7.0,0.0
2276,56.0,15.0,60.0,8.0,0.0
2277,68.0,0.0,60.0,1.0,0.0
2278,80.0,0.0,60.0,6.0,0.0
2279,61.0,0.0,60.0,8.0,0.0
2280,80.0,60.0,15.0,0.0,0.0
2281,65.0,30.0,60.0,7.0,0.0
2282,65.0,0.0,60.0,1.0,0.0
2283,49.0,15.0,90.0,10.0,0.0
2284,68.0,0.0,60.0,1.0,0.0
2285,65.0,15.0,60.0,8.0,0.0
2286,85.0,0.0,60.0,6.0,0.0
2287,85.0,28.0,60.0,0.0,0.0
2288,68.0,0.0,60.0,7.0,0.0
2289,65.0,0.0,30.0,1.0,0.0
2290,61.0,0.0,15.0,1.0,0.0
2291,77.0,0.0,30.0,6.0,0.0
2292,65.0,0.0,30.0,7.0,0.0
2293,61.0,0.0,30.0,8.0,0.0
2294,77.0,0.0,30.0,0.0,0.0
2295,66.0,0.0,30.0,1.0,0.0
2296,63.0,0.0,30.0,1.0,0.0
2297,63.0,0.0,30.0,8.0,0.0
2298,78.0,92.0,30.0,6.0,0.0
2299,78.0,0.0,30.0,0.0,0.0
2300,66.0,0.0,30.0,7.0,0.0
2301,80.0,28.0,120.0,0.0,0.0
2302,68.0,30.0,60.0,7.0,0.0
2303,65.0,0.0,60.0,8.0,0.0
2304,65.0,0.0,120.0,1.0,0.0
2305,68.0,0.0,60.0,1.0,0.0
2306,80.0,15.0,90.0,6.0,0.0
2307,73.0,15.0,60.0,7.0,0.0
2308,68.0,0.0,60.0,8.0,0.0
2309,73.0,0.0,60.0,1.0,0.0
2310,65.0,0.0,30.0,7.0,0.0
2311,61.0,0.0,30.0,1.0,0.0
2312,65.0,60.0,30.0,1.0,0.0
2313,61.0,0.0,30.0,8.0,0.0
2314,63.0,0.0,30.0,1.0,0.0
2315,66.0,0.0,30.0,7.0,0.0
2316,63.0,92.0,30.0,8.0,0.0
2317,66.0,0.0,30.0,1.0,0.0
2318,80.0,0.0,60.0,6.0,0.0
2319,61.0,15.0,90.0,10.0,0.0
2320,80.0,0.0,60.0,0.0,0.0
2321,65.0,0.0,120.0,1.0,0.0
2322,65.0,0.0,60.0,8.0,0.0
2323,68.0,30.0,60.0,1.0,0.0
2324,68.0,0.0,60.0,7.0,0.0
2325,68.0,0.0,60.0,8.0,0.0
2326,85.0,0.0,60.0,6.0,0.0
2327,85.0,0.0,60.0,0.0,0.0
2328,73.0,15.0,60.0,7.0,0.0
2329,73.0,28.0,60.0,1.0,0.0
2330,61.0,0.0,30.0,1.0,0.0
2331,77.0,0.0,30.0,6.0,0.0
2332,65.0,0.0,30.0,1.0,0.0
2333,61.0,0.0,30.0,8.0,0.0
2334,65.0,60.0,30.0,7.0,0.0
2335,77.0,0.0,30.0,0.0,0.0
2336,63.0,0.0,30.0,8.0,0.0
2337,66.0,0.0,30.0,1.0,0.0
2338,63.0,0.0,30.0,1.0,0.0
2339,66.0,0.0,30.0,7.0,0.0
2340,78.0,92.0,30.0,6.0,0.0
2341,78.0,0.0,30.0,0.0,0.0
2342,68.0,0.0,60.0,7.0,0.0
2343,80.0,0.0,60.0,0.0,0.0
2344,68.0,30.0,60.0,1.0,0.0
2345,80.0,0.0,60.0,6.0,0.0
2346,65.0,0.0,120.0,1.0,0.0
2347,65.0,0.0,60.0,8.0,0.0
2348,61.0,15.0,90.0,10.0,0.0
2349,73.0,0.0,60.0,7.0,0.0
2350,73.0,28.0,60.0,1.0,0.0
2351,85.0,0.0,60.0,6.0,0.0
2352,85.0,0.0,60.0,0.0,0.0
2353,68.0,15.0,60.0,8.0,0.0
2354,73.0,0.0,30.0,6.0,0.0
2355,73.0,0.0,30.0,0.0,0.0
2356,61.0,60.0,30.0,1.0,0.0
2357,53.0,0.0,30.0,1.0,0.0
2358,61.0,0.0,30.0,7.0,0.0
2359,61.0,0.0,30.0,8.0,0.0
2360,75.0,62.0,30.0,6.0,0.0
2361,60.0,0.0,30.0,8.0,0.0
2362,75.0,0.0,30.0,0.0,0.0
2363,56.0,0.0,30.0,1.0,0.0
2364,63.0,0.0,30.0,1.0,0.0
2365,63.0,0.0,30.0,7.0,0.0
2366,65.0,30.0,60.0,7.0,0.0
2367,65.0,0.0,60.0,1.0,0.0
2368,61.0,0.0,240.0,1.0,0.0
2369,61.0,0.0,90.0,10.0,0.0
2370,61.0,0.0,60.0,8.0,0.0
2371,77.0,23.0,90.0,6.0,0.0
2372,77.0,30.0,30.0,0.0,0.0
2373,80.0,0.0,30.0,0.0,0.0
2374,61.0,0.0,60.0,7.0,0.0
2375,85.0,0.0,30.0,0.0,0.0
2376,68.0,0.0,60.0,1.0,0.0
2377,56.0,60.0,60.0,8.0,0.0
2378,73.0,7.0,20.0,6.0,0.0
2379,89.0,0.0,30.0,0.0,0.0
2380,49.0,23.0,90.0,10.0,0.0
2381,80.0,0.0,90.0,6.0,0.0
2382,92.0,0.0,90.0,0.0,0.0
2383,68.0,30.0,60.0,7.0,0.0
2384,65.0,0.0,60.0,1.0,0.0
2385,65.0,0.0,60.0,8.0,0.0
2386,63.0,0.0,60.0,8.0,0.0
2387,68.0,0.0,60.0,1.0,0.0
2388,66.0,60.0,60.0,7.0,0.0
2389,90.0,0.0,30.0,0.0,0.0
2390,78.0,7.0,20.0,6.0,0.0
2391,61.0,0.0,60.0,1.0,0.0
2392,56.0,0.0,240.0,1.0,0.0
2393,65.0,30.0,60.0,7.0,0.0
2394,89.0,15.0,90.0,0.0,0.0
2395,61.0,0.0,60.0,8.0,0.0
2396,77.0,0.0,90.0,6.0,0.0
2397,56.0,0.0,90.0,10.0,0.0
2398,65.0,0.0,60.0,1.0,0.0
2399,65.0,0.0,60.0,8.0,0.0
2400,68.0,45.0,60.0,7.0,0.0
2401,78.0,0.0,15.0,6.0,0.0
2402,90.0,15.0,15.0,0.0,0.0
2403,77.0,0.0,15.0,6.0,0.0
2404,89.0,0.0,15.0,0.0,0.0
2405,87.0,0.0,120.0,0.0,0.0
2406,75.0,15.0,60.0,6.0,0.0
2407,63.0,0.0,60.0,8.0,0.0
2408,60.0,0.0,60.0,1.0,0.0
2409,66.0,45.0,60.0,7.0,0.0
2410,63.0,30.0,60.0,1.0,0.0
2411,60.0,0.0,60.0,8.0,0.0
2412,63.0,15.0,60.0,7.0,0.0
2413,49.0,0.0,240.0,10.0,0.0
2414,80.0,30.0,90.0,6.0,0.0
2415,85.0,30.0,30.0,0.0,0.0
2416,65.0,30.0,60.0,7.0,0.0
2417,61.0,0.0,60.0,8.0,0.0
2418,61.0,0.0,240.0,1.0,0.0
2419,65.0,0.0,60.0,1.0,0.0
2420,84.0,0.0,30.0,0.0,0.0
2421,68.0,60.0,60.0,1.0,0.0
2422,56.0,0.0,60.0,8.0,0.0
2423,82.0,0.0,30.0,0.0,0.0
2424,61.0,0.0,60.0,7.0,0.0
2425,65.0,30.0,60.0,7.0,0.0
2426,80.0,0.0,15.0,0.0,0.0
2427,80.0,30.0,90.0,6.0,0.0
2428,65.0,0.0,60.0,1.0,0.0
2429,61.0,0.0,60.0,8.0,0.0
2430,56.0,20.0,60.0,8.0,0.0
2431,68.0,0.0,60.0,1.0,0.0
2432,61.0,0.0,60.0,7.0,0.0
2433,63.0,0.0,240.0,1.0,0.0
2434,60.0,60.0,240.0,1.0,0.0
2435,66.0,0.0,60.0,1.0,0.0
2436,48.0,0.0,180.0,10.0,0.0
2437,79.0,40.0,20.0,0.0,0.0
2438,66.0,30.0,60.0,7.0,0.0
2439,80.0,30.0,90.0,6.0,0.0
2440,63.0,0.0,60.0,8.0,0.0
2441,80.0,0.0,90.0,0.0,0.0
2442,56.0,20.0,60.0,8.0,0.0
2443,68.0,0.0,60.0,1.0,0.0
2444,63.0,0.0,60.0,7.0,0.0
2445,63.0,30.0,60.0,8.0,0.0
2446,82.0,40.0,20.0,0.0,0.0
2447,66.0,0.0,60.0,7.0,0.0
2448,80.0,15.0,90.0,6.0,0.0
2449,66.0,0.0,60.0,1.0,0.0
2450,68.0,0.0,60.0,1.0,0.0
2451,63.0,0.0,60.0,7.0,0.0
2452,56.0,15.0,60.0,8.0,0.0
2453,61.0,0.0,60.0,8.0,0.0
2454,65.0,30.0,60.0,7.0,0.0
2455,80.0,0.0,15.0,0.0,0.0
2456,49.0,15.0,90.0,10.0,0.0
2457,80.0,0.0,60.0,6.0,0.0
2458,65.0,0.0,60.0,1.0,0.0
2459,85.0,15.0,60.0,6.0,0.0
2460,90.0,0.0,30.0,0.0,0.0
2461,65.0,0.0,60.0,8.0,0.0
2462,68.0,0.0,60.0,1.0,0.0
2463,68.0,0.0,60.0,7.0,0.0
2464,89.0,28.0,30.0,0.0,0.0
2465,65.0,0.0,30.0,7.0,0.0
2466,65.0,0.0,30.0,1.0,0.0
2467,61.0,0.0,15.0,1.0,0.0
2468,77.0,0.0,30.0,6.0,0.0
2469,87.0,30.0,30.0,0.0,0.0
2470,61.0,0.0,30.0,8.0,0.0
2471,85.0,28.0,30.0,0.0,0.0
2472,63.0,0.0,30.0,1.0,0.0
2473,66.0,0.0,30.0,1.0,0.0
2474,78.0,0.0,30.0,6.0,0.0
2475,84.0,30.0,30.0,0.0,0.0
2476,66.0,0.0,30.0,7.0,0.0
2477,63.0,2.0,30.0,8.0,0.0
2478,82.0,60.0,30.0,0.0,0.0
2479,68.0,0.0,60.0,1.0,0.0
2480,68.0,30.0,60.0,7.0,0.0
2481,65.0,0.0,60.0,8.0,0.0
2482,80.0,0.0,90.0,6.0,0.0
2483,80.0,0.0,60.0,0.0,0.0
2484,73.0,0.0,60.0,1.0,0.0
2485,78.0,15.0,30.0,0.0,0.0
2486,68.0,15.0,60.0,8.0,0.0
2487,73.0,0.0,60.0,7.0,0.0
2488,77.0,28.0,30.0,0.0,0.0
2489,65.0,0.0,15.0,1.0,0.0
2490,61.0,0.0,30.0,1.0,0.0
2491,75.0,30.0,30.0,0.0,0.0
2492,61.0,0.0,30.0,8.0,0.0
2493,65.0,0.0,30.0,7.0,0.0
2494,73.0,28.0,30.0,0.0,0.0
2495,72.0,30.0,30.0,0.0,0.0
2496,63.0,0.0,30.0,1.0,0.0
2497,63.0,0.0,30.0,8.0,0.0
2498,66.0,2.0,30.0,7.0,0.0
2499,66.0,0.0,30.0,1.0,0.0
2500,70.0,30.0,30.0,0.0,0.0
2501,61.0,0.0,90.0,10.0,0.0
2502,80.0,30.0,60.0,6.0,0.0
2503,65.0,0.0,60.0,8.0,0.0
2504,68.0,0.0,60.0,7.0,0.0
2505,80.0,30.0,30.0,0.0,0.0
2506,65.0,0.0,120.0,1.0,0.0
2507,68.0,0.0,60.0,1.0,0.0
2508,92.0,0.0,30.0,0.0,0.0
2509,90.0,15.0,30.0,0.0,0.0
2510,68.0,0.0,60.0,8.0,0.0
2511,85.0,15.0,60.0,6.0,0.0
2512,73.0,0.0,60.0,7.0,0.0
2513,73.0,0.0,60.0,1.0,0.0
2514,89.0,28.0,30.0,0.0,0.0
2515,77.0,0.0,30.0,6.0,0.0
2516,61.0,0.0,30.0,1.0,0.0
2517,65.0,0.0,30.0,7.0,0.0
2518,61.0,0.0,30.0,8.0,0.0
2519,65.0,2.0,30.0,1.0,0.0
2520,87.0,30.0,30.0,0.0,0.0
2521,85.0,28.0,30.0,0.0,0.0
2522,78.0,0.0,30.0,6.0,0.0
2523,84.0,30.0,30.0,0.0,0.0
2524,66.0,0.0,30.0,7.0,0.0
2525,63.0,0.0,30.0,8.0,0.0
2526,63.0,0.0,30.0,1.0,0.0
2527,66.0,2.0,30.0,1.0,0.0
2528,82.0,30.0,30.0,0.0,0.0
2529,65.0,30.0,60.0,8.0,0.0
2530,61.0,0.0,90.0,10.0,0.0
2531,68.0,0.0,120.0,1.0,0.0
2532,65.0,28.0,120.0,1.0,0.0
2533,80.0,30.0,30.0,0.0,0.0
2534,68.0,0.0,60.0,7.0,0.0
2535,80.0,0.0,60.0,6.0,0.0
2536,85.0,0.0,30.0,0.0,0.0
2537,73.0,15.0,60.0,7.0,0.0
2538,73.0,0.0,60.0,1.0,0.0
2539,85.0,0.0,60.0,6.0,0.0
2540,84.0,15.0,30.0,0.0,0.0
2541,68.0,0.0,60.0,8.0,0.0
2542,82.0,0.0,30.0,0.0,0.0
2543,73.0,0.0,30.0,6.0,0.0
2544,61.0,0.0,30.0,8.0,0.0
2545,61.0,60.0,30.0,7.0,0.0
2546,80.0,30.0,90.0,0.0,0.0
2547,75.0,0.0,30.0,6.0,0.0
2548,60.0,2.0,30.0,8.0,0.0
2549,63.0,0.0,30.0,7.0,0.0
2550,78.0,60.0,30.0,0.0,0.0
2551,56.0,0.0,90.0,10.0,0.0
2552,61.0,0.0,60.0,8.0,0.0
2553,56.0,0.0,240.0,1.0,0.0
2554,61.0,30.0,60.0,1.0,0.0
2555,77.0,0.0,90.0,0.0,0.0
2556,65.0,0.0,60.0,7.0,0.0
2557,77.0,30.0,90.0,6.0,0.0
2558,65.0,0.0,60.0,1.0,0.0
2559,68.0,0.0,60.0,7.0,0.0
2560,65.0,13.0,60.0,8.0,0.0
2561,63.0,0.0,60.0,8.0,0.0
2562,44.0,3.0,90.0,10.0,0.0
2563,60.0,5.0,60.0,1.0,0.0
2564,66.0,0.0,60.0,7.0,0.0
2565,75.0,10.0,15.0,0.0,0.0
2566,75.0,2.0,15.0,6.0,0.0
2567,77.0,1.0,15.0,0.0,0.0
2568,77.0,9.0,15.0,6.0,0.0
2569,75.0,5.0,15.0,0.0,0.0
2570,75.0,5.0,15.0,6.0,0.0
2571,77.0,8.0,15.0,0.0,0.0
2572,77.0,2.0,15.0,6.0,0.0
2573,75.0,5.0,15.0,0.0,0.0
2574,77.0,1.0,15.0,0.0,0.0
2575,75.0,9.0,15.0,6.0,0.0
2576,75.0,5.0,15.0,0.0,0.0
2577,63.0,0.0,60.0,7.0,0.0
2578,66.0,0.0,60.0,1.0,0.0
2579,60.0,1.0,60.0,8.0,0.0
2580,77.0,5.0,15.0,6.0,0.0
2581,77.0,5.0,15.0,0.0,0.0
2582,75.0,10.0,15.0,0.0,0.0
2583,75.0,2.0,15.0,6.0,0.0
2584,73.0,0.0,15.0,0.0,0.0
2585,73.0,14.0,15.0,6.0,0.0
2586,75.0,0.0,15.0,0.0,0.0
2587,75.0,45.0,15.0,6.0,0.0
2588,61.0,15.0,90.0,7.0,0.0
2589,65.0,10.0,120.0,1.0,0.0
2590,61.0,0.0,120.0,1.0,0.0
2591,73.0,0.0,90.0,6.0,0.0
2592,73.0,35.0,120.0,0.0,0.0
2593,49.0,0.0,60.0,10.0,0.0
2594,61.0,45.0,60.0,8.0,0.0
2595,73.0,15.0,60.0,8.0,0.0
2596,61.0,0.0,60.0,10.0,0.0
2597,73.0,0.0,60.0,5.0,0.0
2598,61.0,0.0,60.0,10.0,0.0
2599,73.0,60.0,60.0,5.0,0.0
2600,73.0,0.0,60.0,8.0,0.0
2601,73.0,0.0,60.0,8.0,0.0
2602,61.0,60.0,60.0,10.0,0.0
2603,73.0,0.0,60.0,5.0,0.0
2604,61.0,0.0,60.0,8.0,0.0
2605,73.0,0.0,840.0,5.0,0.0
2606,78.0,0.0,300.0,6.0,0.0
2607,70.0,0.0,300.0,7.0,0.0
2608,49.0,60.0,60.0,10.0,0.0
2609,58.0,60.0,300.0,4.0,0.0
2610,66.0,0.0,300.0,4.0,0.0
2611,61.0,60.0,60.0,10.0,0.0
2612,73.0,0.0,60.0,8.0,0.0
2613,73.0,0.0,60.0,8.0,0.0
2614,61.0,60.0,60.0,10.0,0.0
2615,73.0,0.0,60.0,8.0,0.0
2616,61.0,60.0,60.0,10.0,0.0
2617,73.0,0.0,60.0,8.0,0.0
2618,61.0,0.0,60.0,10.0,0.0
2619,56.0,0.0,60.0,4.0,0.0
2620,68.0,45.0,60.0,7.0,0.0
2621,73.0,0.0,60.0,8.0,0.0
2622,77.0,0.0,60.0,6.0,0.0
2623,65.0,0.0,60.0,4.0,0.0
2624,61.0,15.0,60.0,10.0,0.0
2625,75.0,0.0,60.0,6.0,0.0
2626,54.0,45.0,60.0,4.0,0.0
2627,66.0,0.0,60.0,7.0,0.0
2628,63.0,0.0,60.0,4.0,0.0
2629,73.0,0.0,60.0,8.0,0.0
2630,61.0,15.0,60.0,10.0,0.0
2631,73.0,0.0,60.0,6.0,0.0
2632,73.0,0.0,60.0,8.0,0.0
2633,53.0,0.0,60.0,4.0,0.0
2634,61.0,0.0,60.0,4.0,0.0
2635,65.0,0.0,60.0,7.0,0.0
2636,61.0,60.0,60.0,10.0,0.0
2637,61.0,0.0,60.0,8.0,0.0
2638,82.0,0.0,300.0,6.0,0.0
2639,49.0,60.0,60.0,10.0,0.0
2640,70.0,60.0,300.0,4.0,0.0
2641,66.0,0.0,300.0,4.0,0.0
2642,78.0,0.0,300.0,7.0,0.0
2643,61.0,0.0,60.0,10.0,0.0
2644,73.0,60.0,60.0,8.0,0.0
2645,73.0,60.0,60.0,8.0,0.0
2646,61.0,0.0,60.0,10.0,0.0
2647,61.0,60.0,60.0,10.0,0.0
2648,73.0,0.0,60.0,8.0,0.0
2649,73.0,0.0,60.0,8.0,0.0
2650,61.0,0.0,60.0,10.0,0.0
2651,80.0,0.0,60.0,6.0,0.0
2652,77.0,0.0,60.0,7.0,0.0
2653,65.0,45.0,60.0,4.0,0.0
2654,73.0,0.0,60.0,8.0,0.0
2655,68.0,0.0,60.0,4.0,0.0
2656,61.0,15.0,60.0,10.0,0.0
2657,63.0,0.0,60.0,4.0,0.0
2658,61.0,0.0,60.0,10.0,0.0
2659,78.0,45.0,60.0,6.0,0.0
2660,75.0,0.0,60.0,7.0,0.0
2661,73.0,15.0,60.0,8.0,0.0
2662,66.0,0.0,60.0,4.0,0.0
2663,73.0,0.0,60.0,7.0,0.0
2664,73.0,0.0,60.0,8.0,0.0
2665,77.0,0.0,60.0,6.0,0.0
2666,61.0,0.0,60.0,10.0,0.0
2667,65.0,60.0,60.0,4.0,0.0
2668,61.0,0.0,60.0,4.0,0.0
2669,84.0,0.0,480.0,3.0,0.0
2670,75.0,0.0,480.0,3.0,0.0
2671,90.0,0.0,480.0,2.0,0.0
2672,73.0,0.0,540.0,5.0,0.0
2673,85.0,0.0,60.0,6.0,0.0
2674,78.0,0.0,60.0,7.0,0.0
2675,66.0,0.0,540.0,4.0,0.0
2676,49.0,0.0,60.0,10.0,0.0
2677,75.0,60.0,60.0,8.0,0.0
2678,63.0,15.0,540.0,4.0,0.0
2679,68.0,0.0,60.0,7.0,0.0
2680,84.0,45.0,60.0,6.0,0.0
2681,78.0,0.0,90.0,7.0,0.0
2682,68.0,0.0,90.0,7.0,0.0
2683,75.0,15.0,90.0,8.0,0.0
2684,61.0,0.0,60.0,10.0,0.0
2685,84.0,15.0,120.0,6.0,0.0
2686,61.0,60.0,60.0,10.0,0.0
2687,78.0,15.0,90.0,7.0,0.0
2688,68.0,0.0,90.0,7.0,0.0
2689,61.0,30.0,60.0,10.0,0.0
2690,75.0,0.0,90.0,8.0,0.0
2691,61.0,38.0,60.0,10.0,0.0
2692,89.0,22.0,20.0,6.0,0.0
2693,78.0,0.0,90.0,7.0,0.0
2694,61.0,8.0,60.0,10.0,0.0
2695,75.0,15.0,90.0,8.0,0.0
2696,68.0,0.0,90.0,7.0,0.0
2697,87.0,30.0,20.0,6.0,0.0
2698,85.0,7.0,20.0,6.0,0.0
2699,61.0,8.0,60.0,10.0,0.0
2700,84.0,30.0,20.0,6.0,0.0
2701,82.0,22.0,20.0,6.0,0.0
2702,61.0,8.0,60.0,10.0,0.0
2703,75.0,45.0,60.0,8.0,0.0
2704,78.0,0.0,60.0,7.0,0.0
2705,80.0,7.0,20.0,6.0,0.0
2706,68.0,0.0,15.0,7.0,0.0
2707,77.0,0.0,60.0,7.0,0.0
2708,89.0,0.0,60.0,2.0,0.0
2709,61.0,30.0,90.0,10.0,0.0
2710,85.0,0.0,60.0,6.0,0.0
2711,77.0,30.0,60.0,3.0,0.0
2712,85.0,0.0,60.0,3.0,0.0
2713,73.0,0.0,120.0,8.0,0.0
2714,85.0,60.0,60.0,6.0,0.0
2715,73.0,0.0,60.0,0.0,0.0
2716,85.0,0.0,30.0,0.0,0.0
2717,72.0,0.0,60.0,0.0,0.0
2718,84.0,0.0,60.0,6.0,0.0
2719,84.0,60.0,30.0,0.0,0.0
2720,83.0,0.0,60.0,6.0,0.0
2721,71.0,0.0,60.0,0.0,0.0
2722,83.0,60.0,30.0,0.0,0.0
2723,70.0,0.0,60.0,0.0,0.0
2724,82.0,60.0,60.0,6.0,0.0
2725,82.0,0.0,30.0,0.0,0.0
2726,69.0,0.0,60.0,0.0,0.0
2727,81.0,0.0,60.0,6.0,0.0
2728,81.0,60.0,30.0,0.0,0.0
2729,80.0,0.0,60.0,6.0,0.0
2730,68.0,0.0,60.0,0.0,0.0
2731,80.0,45.0,30.0,0.0,0.0
2732,79.0,8.0,60.0,6.0,0.0
2733,67.0,23.0,60.0,0.0,0.0
2734,79.0,7.0,20.0,0.0,0.0
2735,56.0,45.0,300.0,1.0,0.0
2736,68.0,21.0,20.0,0.0,0.0
2737,80.0,29.0,120.0,6.0,0.0
2738,72.0,30.0,15.0,0.0,0.0
2739,73.0,30.0,15.0,0.0,0.0
2740,60.0,0.0,60.0,8.0,0.0
2741,64.0,14.0,60.0,7.0,0.0
2742,77.0,16.0,15.0,0.0,0.0
2743,61.0,14.0,60.0,8.0,0.0
2744,56.0,15.0,60.0,10.0,0.0
2745,65.0,0.0,60.0,7.0,0.0
2746,80.0,1.0,15.0,0.0,0.0
2747,84.0,1.0,15.0,0.0,0.0
2748,68.0,0.0,60.0,7.0,0.0
2749,78.0,15.0,15.0,6.0,0.0
2750,85.0,1.0,15.0,0.0,0.0
2751,65.0,0.0,60.0,8.0,0.0
2752,77.0,14.0,15.0,6.0,0.0
2753,75.0,15.0,15.0,6.0,0.0
2754,89.0,1.0,15.0,0.0,0.0
2755,73.0,45.0,15.0,6.0,0.0
2756,73.0,0.0,60.0,7.0,0.0
2757,68.0,15.0,60.0,8.0,0.0
2758,92.0,0.0,60.0,0.0,0.0
2759,77.0,0.0,60.0,6.0,0.0
2760,56.0,0.0,60.0,10.0,0.0
2761,73.0,0.0,60.0,7.0,0.0
2762,68.0,60.0,60.0,8.0,0.0
2763,75.0,0.0,60.0,6.0,0.0
2764,72.0,0.0,60.0,7.0,0.0
2765,57.0,0.0,60.0,10.0,0.0
2766,57.0,45.0,60.0,1.0,0.0
2767,66.0,15.0,60.0,8.0,0.0
2768,72.0,60.0,60.0,7.0,0.0
2769,66.0,0.0,60.0,8.0,0.0
2770,58.0,60.0,120.0,1.0,0.0
2771,58.0,0.0,90.0,10.0,0.0
2772,73.0,45.0,60.0,6.0,0.0
2773,65.0,30.0,90.0,8.0,0.0
2774,73.0,0.0,90.0,7.0,0.0
2775,85.0,0.0,60.0,6.0,0.0
2776,85.0,0.0,60.0,0.0,0.0
2777,73.0,0.0,30.0,0.0,0.0
2778,84.0,0.0,60.0,0.0,0.0
2779,84.0,60.0,60.0,6.0,0.0
2780,72.0,0.0,30.0,0.0,0.0
2781,83.0,60.0,60.0,6.0,0.0
2782,83.0,0.0,60.0,0.0,0.0
2783,71.0,0.0,30.0,0.0,0.0
2784,82.0,60.0,60.0,0.0,0.0
2785,82.0,0.0,60.0,6.0,0.0
2786,70.0,0.0,30.0,0.0,0.0
2787,81.0,0.0,60.0,6.0,0.0
2788,81.0,60.0,60.0,0.0,0.0
2789,69.0,0.0,30.0,0.0,0.0
2790,80.0,45.0,60.0,6.0,0.0
2791,80.0,0.0,60.0,0.0,0.0
2792,68.0,0.0,30.0,0.0,0.0
2793,79.0,120.0,60.0,0.0,0.0
2794,79.0,8.0,60.0,6.0,0.0
2795,67.0,7.0,20.0,0.0,0.0
2796,82.0,45.0,120.0,6.0,0.0
2797,62.0,0.0,60.0,8.0,0.0
2798,65.0,15.0,60.0,7.0,0.0
2799,63.0,0.0,120.0,4.0,0.0
2800,54.0,0.0,120.0,10.0,0.0
2801,66.0,0.0,120.0,4.0,0.0
2802,90.0,0.0,120.0,2.0,0.0
2803,82.0,0.0,120.0,3.0,0.0
2804,63.0,15.0,60.0,8.0,0.0
2805,66.0,0.0,60.0,7.0,0.0
2806,70.0,15.0,60.0,7.0,0.0
2807,66.0,0.0,60.0,8.0,0.0
2808,80.0,15.0,15.0,6.0,0.0
2809,78.0,15.0,15.0,6.0,0.0
2810,77.0,0.0,15.0,6.0,0.0
2811,75.0,45.0,15.0,6.0,0.0
2812,85.0,0.0,60.0,3.0,0.0
2813,56.0,0.0,60.0,10.0,0.0
2814,61.0,0.0,60.0,4.0,0.0
2815,65.0,0.0,60.0,4.0,0.0
2816,80.0,0.0,60.0,6.0,0.0
2817,89.0,0.0,60.0,2.0,0.0
2818,61.0,60.0,60.0,8.0,0.0
2819,65.0,0.0,60.0,7.0,0.0
2820,61.0,0.0,60.0,8.0,0.0
2821,65.0,60.0,60.0,7.0,0.0
2822,44.0,0.0,60.0,10.0,0.0
2823,63.0,60.0,60.0,8.0,0.0
2824,63.0,0.0,60.0,4.0,0.0
2825,60.0,0.0,60.0,4.0,0.0
2826,87.0,0.0,60.0,2.0,0.0
2827,72.0,0.0,60.0,6.0,0.0
2828,66.0,0.0,60.0,7.0,0.0
2829,78.0,0.0,60.0,3.0,0.0
2830,84.0,0.0,60.0,3.0,0.0
2831,66.0,0.0,60.0,7.0,0.0
2832,63.0,60.0,60.0,8.0,0.0
2833,73.0,0.0,120.0,0.0,0.0
2834,61.0,0.0,60.0,8.0,0.0
2835,73.0,0.0,60.0,6.0,0.0
2836,65.0,45.0,60.0,7.0,0.0
2837,85.0,0.0,90.0,2.0,0.0
2838,61.0,0.0,90.0,4.0,0.0
2839,49.0,32.0,120.0,1.0,0.0
2840,85.0,2.0,90.0,3.0,0.0
2841,77.0,0.0,90.0,3.0,0.0
2842,49.0,0.0,90.0,10.0,0.0
2843,61.0,0.0,30.0,8.0,0.0
2844,68.0,28.0,30.0,6.0,0.0
2845,65.0,0.0,30.0,7.0,0.0
2846,61.0,0.0,30.0,8.0,0.0
2847,68.0,0.0,30.0,6.0,0.0
2848,65.0,21.0,30.0,7.0,0.0
2849,73.0,30.0,20.0,0.0,0.0
2850,75.0,9.0,20.0,0.0,0.0
2851,68.0,0.0,30.0,6.0,0.0
2852,61.0,0.0,30.0,8.0,0.0
2853,65.0,21.0,30.0,7.0,0.0
2854,77.0,30.0,20.0,0.0,0.0
2855,61.0,21.0,30.0,8.0,0.0
2856,78.0,9.0,20.0,0.0,0.0
2857,68.0,0.0,30.0,6.0,0.0
2858,65.0,0.0,30.0,7.0,0.0
2859,80.0,30.0,20.0,0.0,0.0
2860,65.0,21.0,30.0,7.0,0.0
2861,68.0,0.0,30.0,6.0,0.0
2862,82.0,9.0,20.0,0.0,0.0
2863,61.0,0.0,30.0,8.0,0.0
2864,84.0,30.0,20.0,0.0,0.0
2865,61.0,0.0,30.0,8.0,0.0
2866,68.0,0.0,30.0,6.0,0.0
2867,65.0,21.0,30.0,7.0,0.0
2868,85.0,9.0,20.0,0.0,0.0
2869,87.0,30.0,20.0,0.0,0.0
2870,65.0,0.0,30.0,7.0,0.0
2871,61.0,0.0,30.0,8.0,0.0
2872,89.0,9.0,20.0,0.0,0.0
2873,68.0,21.0,30.0,6.0,0.0
2874,90.0,26.0,20.0,0.0,0.0
2875,92.0,40.0,20.0,0.0,0.0
2876,56.0,19.0,120.0,1.0,0.0
2877,56.0,2.0,90.0,10.0,0.0
2878,89.0,31.0,20.0,0.0,0.0
2879,65.0,0.0,30.0,7.0,0.0
2880,61.0,0.0,30.0,8.0,0.0
2881,68.0,7.0,30.0,6.0,0.0
2882,85.0,21.0,20.0,0.0,0.0
2883,65.0,0.0,30.0,7.0,0.0
2884,80.0,13.0,20.0,0.0,0.0
2885,61.0,27.0,30.0,8.0,0.0
2886,68.0,0.0,30.0,6.0,0.0
2887,77.0,33.0,20.0,0.0,0.0
2888,68.0,0.0,30.0,6.0,0.0
2889,61.0,0.0,30.0,8.0,0.0
2890,65.0,7.0,30.0,7.0,0.0
2891,73.0,53.0,20.0,0.0,0.0
2892,60.0,0.0,30.0,8.0,0.0
2893,68.0,47.0,60.0,0.0,0.0
2894,68.0,0.0,30.0,6.0,0.0
2895,63.0,13.0,30.0,7.0,0.0
2896,68.0,0.0,30.0,6.0,0.0
2897,63.0,0.0,30.0,7.0,0.0
2898,60.0,60.0,30.0,8.0,0.0
2899,66.0,0.0,30.0,7.0,0.0
2900,72.0,47.0,60.0,0.0,0.0
2901,68.0,0.0,30.0,6.0,0.0
2902,63.0,13.0,30.0,8.0,0.0
2903,68.0,118.0,30.0,6.0,0.0
2904,66.0,0.0,30.0,7.0,0.0
2905,63.0,0.0,30.0,8.0,0.0
2906,49.0,32.0,120.0,1.0,0.0
2907,73.0,2.0,90.0,0.0,0.0
2908,61.0,0.0,90.0,10.0,0.0
2909,65.0,0.0,30.0,7.0,0.0
2910,61.0,28.0,30.0,8.0,0.0
2911,68.0,0.0,30.0,6.0,0.0
2912,65.0,3.0,30.0,7.0,0.0
2913,68.0,0.0,30.0,6.0,0.0
2914,61.0,0.0,30.0,8.0,0.0
2915,61.0,20.0,15.0,0.0,0.0
2916,63.0,20.0,15.0,0.0,0.0
2917,68.0,0.0,30.0,6.0,0.0
2918,61.0,3.0,30.0,8.0,0.0
2919,65.0,0.0,30.0,7.0,0.0
2920,65.0,17.0,15.0,0.0,0.0
2921,66.0,20.0,15.0,0.0,0.0
2922,68.0,20.0,15.0,0.0,0.0
2923,70.0,17.0,15.0,0.0,0.0
2924,68.0,0.0,30.0,6.0,0.0
2925,61.0,0.0,30.0,8.0,0.0
2926,65.0,3.0,30.0,7.0,0.0
2927,72.0,20.0,15.0,0.0,0.0
2928,73.0,20.0,15.0,0.0,0.0
2929,75.0,17.0,15.0,0.0,0.0
2930,61.0,3.0,30.0,8.0,0.0
2931,65.0,0.0,30.0,7.0,0.0
2932,68.0,0.0,30.0,6.0,0.0
2933,77.0,20.0,15.0,0.0,0.0
2934,78.0,20.0,15.0,0.0,0.0
2935,65.0,0.0,30.0,7.0,0.0
2936,61.0,0.0,30.0,8.0,0.0
2937,68.0,3.0,30.0,6.0,0.0
2938,80.0,17.0,15.0,0.0,0.0
2939,82.0,20.0,15.0,0.0,0.0
2940,84.0,16.0,15.0,0.0,0.0
2941,68.0,0.0,30.0,6.0,0.0
2942,61.0,9.0,30.0,8.0,0.0
2943,85.0,15.0,15.0,0.0,0.0
2944,65.0,0.0,30.0,7.0,0.0
2945,87.0,6.0,15.0,0.0,0.0
2946,89.0,15.0,15.0,0.0,0.0
2947,90.0,15.0,15.0,0.0,0.0
2948,56.0,2.0,90.0,10.0,0.0
2949,92.0,15.0,15.0,0.0,0.0
2950,56.0,15.0,120.0,1.0,0.0
2951,90.0,15.0,15.0,0.0,0.0
2952,89.0,15.0,15.0,0.0,0.0
2953,87.0,19.0,15.0,0.0,0.0
2954,68.0,3.0,30.0,6.0,0.0
2955,85.0,15.0,15.0,0.0,0.0
2956,65.0,0.0,30.0,7.0,0.0
2957,61.0,0.0,30.0,8.0,0.0
2958,84.0,20.0,15.0,0.0,0.0
2959,82.0,5.0,15.0,0.0,0.0
2960,68.0,0.0,30.0,6.0,0.0
2961,61.0,0.0,30.0,8.0,0.0
2962,80.0,17.0,15.0,0.0,0.0
2963,65.0,3.0,30.0,7.0,0.0
2964,78.0,20.0,15.0,0.0,0.0
2965,77.0,16.0,15.0,0.0,0.0
2966,68.0,0.0,30.0,6.0,0.0
2967,61.0,9.0,30.0,8.0,0.0
2968,75.0,15.0,15.0,0.0,0.0
2969,65.0,0.0,30.0,7.0,0.0
2970,73.0,6.0,15.0,0.0,0.0
2971,72.0,15.0,15.0,0.0,0.0
2972,70.0,36.0,15.0,0.0,0.0
2973,68.0,47.0,60.0,0.0,0.0
2974,63.0,0.0,30.0,7.0,0.0
2975,60.0,0.0,30.0,8.0,0.0
2976,68.0,13.0,30.0,6.0,0.0
2977,63.0,0.0,30.0,7.0,0.0
2978,68.0,0.0,30.0,6.0,0.0
2979,60.0,60.0,30.0,8.0,0.0
2980,68.0,13.0,30.0,6.0,0.0
2981,56.0,32.0,60.0,1.0,0.0
2982,66.0,0.0,30.0,7.0,0.0
2983,72.0,15.0,60.0,0.0,0.0
2984,63.0,0.0,30.0,8.0,0.0
2985,63.0,0.0,30.0,8.0,0.0
2986,66.0,0.0,30.0,7.0,0.0
2987,68.0,88.0,30.0,6.0,0.0
2988,61.0,120.0,60.0,1.0,0.0
2989,84.0,0.0,240.0,3.0,0.0
2990,87.0,120.0,240.0,2.0,0.0
2991,66.0,0.0,240.0,7.0,0.0
2992,56.0,0.0,240.0,10.0,0.0
2993,66.0,0.0,240.0,4.0,0.0
2994,66.0,0.0,240.0,0.0,0.0
2995,72.0,0.0,240.0,0.0,0.0
2996,75.0,0.0,240.0,0.0,0.0
2997,78.0,0.0,240.0,3.0,0.0
2998,63.0,0.0,240.0,8.0,0.0
2999,60.0,0.0,240.0,4.0,0.0
3000,72.0,0.0,240.0,6.0,0.0
3001,56.0,60.0,60.0,1.0,0.0
3002,65.0,0.0,120.0,0.0,0.0
3003,80.0,0.0,15.0,5.0,0.0
3004,49.0,0.0,120.0,10.0,0.0
3005,68.0,0.0,15.0,0.0,0.0
3006,85.0,0.0,120.0,2.0,0.0
3007,65.0,0.0,120.0,4.0,0.0
3008,61.0,0.0,120.0,4.0,0.0
3009,73.0,0.0,120.0,5.0,0.0
3010,68.0,0.0,15.0,7.0,0.0
3011,61.0,0.0,120.0,8.0,0.0
3012,73.0,0.0,120.0,6.0,0.0
3013,65.0,0.0,120.0,7.0,0.0
3014,77.0,0.0,120.0,3.0,0.0
3015,85.0,0.0,120.0,3.0,0.0
3016,49.0,0.0,120.0,1.0,0.0
3017,73.0,0.0,120.0,0.0,0.0
