,note,step,duration,channel,velocity
0,44.0,30.0,90.0,0.0,0.0
1,32.0,15.0,60.0,0.0,0.0
2,60.0,0.0,30.0,0.0,0.0
3,63.0,30.0,30.0,0.0,0.0
4,56.0,0.0,30.0,0.0,0.0
5,68.0,15.0,30.0,0.0,0.0
6,67.0,0.0,30.0,0.0,0.0
7,68.0,30.0,30.0,0.0,0.0
8,44.0,0.0,60.0,0.0,0.0
9,56.0,15.0,60.0,0.0,0.0
10,70.0,30.0,30.0,0.0,0.0
11,68.0,15.0,30.0,0.0,0.0
12,67.0,15.0,30.0,0.0,0.0
13,56.0,0.0,15.0,0.0,0.0
14,44.0,15.0,15.0,0.0,0.0
15,68.0,30.0,30.0,0.0,0.0
16,56.0,0.0,30.0,0.0,0.0
17,32.0,0.0,30.0,0.0,0.0
18,44.0,30.0,30.0,0.0,0.0
19,68.0,30.0,30.0,0.0,0.0
20,46.0,15.0,40.0,0.0,0.0
21,34.0,0.0,30.0,0.0,0.0
22,58.0,15.0,30.0,0.0,0.0
23,68.0,30.0,30.0,0.0,0.0
24,60.0,0.0,30.0,0.0,0.0
25,36.0,15.0,30.0,0.0,0.0
26,48.0,15.0,40.0,0.0,0.0
27,68.0,30.0,30.0,0.0,0.0
28,37.0,15.0,40.0,0.0,0.0
29,61.0,0.0,30.0,0.0,0.0
30,49.0,15.0,30.0,0.0,0.0
31,68.0,15.0,30.0,0.0,0.0
32,63.0,45.0,15.0,0.0,0.0
33,39.0,15.0,90.0,0.0,0.0
34,51.0,0.0,90.0,0.0,0.0
35,68.0,30.0,30.0,0.0,0.0
36,67.0,15.0,30.0,0.0,0.0
37,68.0,30.0,30.0,0.0,0.0
38,70.0,30.0,30.0,0.0,0.0
39,56.0,15.0,60.0,0.0,0.0
40,44.0,15.0,60.0,0.0,0.0
41,68.0,0.0,30.0,0.0,0.0
42,67.0,15.0,30.0,0.0,0.0
43,68.0,30.0,30.0,0.0,0.0
44,56.0,0.0,15.0,0.0,0.0
45,44.0,15.0,15.0,0.0,0.0
46,60.0,15.0,30.0,0.0,0.0
47,48.0,15.0,40.0,0.0,0.0
48,36.0,0.0,30.0,0.0,0.0
49,68.0,30.0,30.0,0.0,0.0
50,37.0,30.0,30.0,0.0,0.0
51,49.0,0.0,30.0,0.0,0.0
52,61.0,0.0,30.0,0.0,0.0
53,68.0,30.0,30.0,0.0,0.0
54,63.0,0.0,30.0,0.0,0.0
55,39.0,15.0,40.0,0.0,0.0
56,51.0,15.0,30.0,0.0,0.0
57,68.0,30.0,30.0,0.0,0.0
58,65.0,0.0,30.0,0.0,0.0
59,41.0,30.0,30.0,0.0,0.0
60,53.0,0.0,30.0,0.0,0.0
61,68.0,15.0,30.0,0.0,0.0
62,42.0,0.0,90.0,0.0,0.0
63,54.0,15.0,90.0,0.0,0.0
64,66.0,45.0,15.0,0.0,0.0
65,68.0,30.0,30.0,0.0,0.0
66,67.0,15.0,30.0,0.0,0.0
67,68.0,30.0,30.0,0.0,0.0
68,70.0,30.0,30.0,0.0,0.0
69,56.0,15.0,60.0,0.0,0.0
70,44.0,15.0,60.0,0.0,0.0
71,68.0,0.0,30.0,0.0,0.0
72,67.0,15.0,30.0,0.0,0.0
73,68.0,15.0,15.0,0.0,0.0
74,56.0,30.0,30.0,0.0,0.0
75,44.0,0.0,15.0,0.0,0.0
76,42.0,0.0,40.0,0.0,0.0
77,68.0,0.0,30.0,0.0,0.0
78,72.0,15.0,30.0,0.0,0.0
79,54.0,15.0,40.0,0.0,0.0
80,63.0,30.0,30.0,0.0,0.0
81,41.0,0.0,30.0,0.0,0.0
82,53.0,15.0,40.0,0.0,0.0
83,73.0,15.0,30.0,0.0,0.0
84,68.0,0.0,30.0,0.0,0.0
85,65.0,30.0,30.0,0.0,0.0
86,75.0,15.0,30.0,0.0,0.0
87,68.0,0.0,30.0,0.0,0.0
88,51.0,0.0,40.0,0.0,0.0
89,39.0,0.0,40.0,0.0,0.0
90,66.0,45.0,15.0,0.0,0.0
91,49.0,0.0,40.0,0.0,0.0
92,77.0,0.0,30.0,0.0,0.0
93,68.0,15.0,30.0,0.0,0.0
94,37.0,0.0,30.0,0.0,0.0
95,65.0,45.0,15.0,0.0,0.0
96,78.0,30.0,30.0,0.0,0.0
97,48.0,30.0,120.0,0.0,0.0
98,36.0,15.0,90.0,0.0,0.0
99,75.0,30.0,30.0,0.0,0.0
100,68.0,15.0,30.0,0.0,0.0
101,78.0,0.0,30.0,0.0,0.0
102,49.0,15.0,90.0,0.0,0.0
103,77.0,30.0,30.0,0.0,0.0
104,37.0,0.0,90.0,0.0,0.0
105,73.0,30.0,30.0,0.0,0.0
106,68.0,15.0,40.0,0.0,0.0
107,77.0,30.0,30.0,0.0,0.0
108,75.0,15.0,30.0,0.0,0.0
109,48.0,15.0,40.0,0.0,0.0
110,36.0,0.0,40.0,0.0,0.0
111,72.0,30.0,30.0,0.0,0.0
112,75.0,15.0,30.0,0.0,0.0
113,44.0,0.0,60.0,0.0,0.0
114,56.0,15.0,40.0,0.0,0.0
115,72.0,45.0,30.0,0.0,0.0
116,58.0,0.0,40.0,0.0,0.0
117,46.0,15.0,40.0,0.0,0.0
118,73.0,30.0,60.0,0.0,0.0
119,72.0,30.0,30.0,0.0,0.0
120,51.0,0.0,30.0,0.0,0.0
121,39.0,0.0,30.0,0.0,0.0
122,67.0,0.0,30.0,0.0,0.0
123,70.0,15.0,30.0,0.0,0.0
124,44.0,0.0,120.0,0.0,0.0
125,44.0,0.0,90.0,1.0,0.0
126,32.0,30.0,120.0,0.0,0.0
127,68.0,45.0,15.0,0.0,0.0
128,68.0,30.0,90.0,1.0,0.0
129,56.0,0.0,90.0,1.0,0.0
130,68.0,30.0,30.0,0.0,0.0
131,67.0,0.0,30.0,0.0,0.0
132,68.0,0.0,30.0,0.0,0.0
133,68.0,0.0,60.0,1.0,0.0
134,44.0,0.0,60.0,1.0,0.0
135,70.0,30.0,30.0,0.0,0.0
136,56.0,0.0,60.0,1.0,0.0
137,68.0,14.0,30.0,0.0,0.0
138,67.0,18.0,30.0,0.0,0.0
139,44.0,0.0,30.0,1.0,0.0
140,68.0,0.0,30.0,1.0,0.0
141,68.0,30.0,30.0,0.0,0.0
142,56.0,12.0,15.0,1.0,0.0
143,56.0,0.0,15.0,1.0,0.0
144,44.0,0.0,30.0,0.0,0.0
145,68.0,0.0,90.0,1.0,0.0
146,32.0,0.0,30.0,0.0,0.0
147,44.0,2.0,90.0,1.0,0.0
148,56.0,0.0,90.0,1.0,0.0
149,56.0,30.0,30.0,0.0,0.0
150,68.0,30.0,30.0,0.0,0.0
151,46.0,0.0,40.0,0.0,0.0
152,34.0,15.0,40.0,0.0,0.0
153,58.0,0.0,30.0,0.0,0.0
154,68.0,30.0,30.0,0.0,0.0
155,44.0,0.0,90.0,1.0,0.0
156,68.0,0.0,90.0,1.0,0.0
157,60.0,30.0,30.0,0.0,0.0
158,48.0,0.0,30.0,0.0,0.0
159,56.0,2.0,90.0,1.0,0.0
160,36.0,0.0,30.0,0.0,0.0
161,68.0,28.0,30.0,0.0,0.0
162,61.0,30.0,30.0,0.0,0.0
163,37.0,0.0,30.0,0.0,0.0
164,49.0,0.0,30.0,0.0,0.0
165,68.0,15.0,30.0,0.0,0.0
166,51.0,30.0,120.0,0.0,0.0
167,63.0,45.0,15.0,0.0,0.0
168,39.0,0.0,120.0,0.0,0.0
169,44.0,0.0,90.0,1.0,0.0
170,56.0,3.0,90.0,1.0,0.0
171,68.0,0.0,90.0,1.0,0.0
172,68.0,27.0,30.0,0.0,0.0
173,67.0,0.0,30.0,0.0,0.0
174,68.0,0.0,30.0,0.0,0.0
175,44.0,18.0,90.0,1.0,0.0
176,68.0,11.0,60.0,1.0,0.0
177,70.0,30.0,30.0,0.0,0.0
178,56.0,19.0,60.0,1.0,0.0
179,68.0,0.0,30.0,0.0,0.0
180,67.0,0.0,30.0,0.0,0.0
181,56.0,0.0,15.0,1.0,0.0
182,68.0,0.0,30.0,0.0,0.0
183,68.0,30.0,30.0,1.0,0.0
184,44.0,0.0,30.0,1.0,0.0
185,56.0,12.0,15.0,1.0,0.0
186,56.0,0.0,15.0,1.0,0.0
187,44.0,0.0,90.0,1.0,0.0
188,68.0,0.0,90.0,1.0,0.0
189,56.0,9.0,90.0,1.0,0.0
190,36.0,30.0,30.0,0.0,0.0
191,48.0,0.0,30.0,0.0,0.0
192,60.0,0.0,30.0,0.0,0.0
193,68.0,21.0,30.0,0.0,0.0
194,49.0,0.0,30.0,0.0,0.0
195,37.0,0.0,30.0,0.0,0.0
196,61.0,0.0,30.0,0.0,0.0
197,68.0,30.0,30.0,0.0,0.0
198,39.0,0.0,30.0,0.0,0.0
199,44.0,0.0,90.0,1.0,0.0
200,51.0,0.0,30.0,0.0,0.0
201,63.0,30.0,30.0,0.0,0.0
202,56.0,3.0,90.0,1.0,0.0
203,68.0,0.0,90.0,1.0,0.0
204,68.0,27.0,30.0,0.0,0.0
205,53.0,0.0,30.0,0.0,0.0
206,41.0,30.0,30.0,0.0,0.0
207,65.0,0.0,30.0,0.0,0.0
208,68.0,15.0,30.0,0.0,0.0
209,44.0,4.0,90.0,1.0,0.0
210,68.0,0.0,90.0,1.0,0.0
211,66.0,45.0,15.0,0.0,0.0
212,56.0,0.0,90.0,1.0,0.0
213,42.0,0.0,90.0,0.0,0.0
214,54.0,15.0,60.0,0.0,0.0
215,68.0,15.0,30.0,0.0,0.0
216,67.0,0.0,30.0,0.0,0.0
217,68.0,30.0,30.0,0.0,0.0
218,56.0,0.0,90.0,1.0,0.0
219,68.0,2.0,90.0,1.0,0.0
220,70.0,30.0,30.0,0.0,0.0
221,44.0,15.0,60.0,0.0,0.0
222,32.0,15.0,60.0,0.0,0.0
223,44.0,0.0,90.0,1.0,0.0
224,68.0,0.0,30.0,0.0,0.0
225,67.0,0.0,30.0,0.0,0.0
226,68.0,30.0,30.0,0.0,0.0
227,32.0,15.0,15.0,0.0,0.0
228,44.0,0.0,15.0,0.0,0.0
229,60.0,29.0,60.0,1.0,0.0
230,56.0,30.0,120.0,1.0,0.0
231,42.0,0.0,40.0,0.0,0.0
232,54.0,0.0,60.0,1.0,0.0
233,51.0,15.0,40.0,0.0,0.0
234,72.0,15.0,30.0,0.0,0.0
235,68.0,15.0,90.0,1.0,0.0
236,68.0,1.0,30.0,0.0,0.0
237,61.0,1.0,60.0,1.0,0.0
238,53.0,0.0,60.0,1.0,0.0
239,53.0,0.0,30.0,0.0,0.0
240,41.0,14.0,40.0,0.0,0.0
241,73.0,0.0,30.0,0.0,0.0
242,68.0,0.0,30.0,0.0,0.0
243,63.0,1.0,60.0,1.0,0.0
244,68.0,0.0,30.0,1.0,0.0
245,54.0,0.0,40.0,0.0,0.0
246,75.0,15.0,30.0,0.0,0.0
247,51.0,14.0,40.0,0.0,0.0
248,54.0,0.0,60.0,1.0,0.0
249,51.0,30.0,60.0,1.0,0.0
250,68.0,0.0,30.0,0.0,0.0
251,65.0,2.0,60.0,1.0,0.0
252,49.0,0.0,30.0,1.0,0.0
253,77.0,15.0,30.0,0.0,0.0
254,68.0,0.0,30.0,1.0,0.0
255,53.0,0.0,60.0,1.0,0.0
256,53.0,13.0,40.0,0.0,0.0
257,49.0,0.0,30.0,0.0,0.0
258,68.0,30.0,30.0,0.0,0.0
259,66.0,0.0,120.0,1.0,0.0
260,51.0,0.0,120.0,1.0,0.0
261,48.0,45.0,120.0,1.0,0.0
262,48.0,0.0,90.0,0.0,0.0
263,68.0,15.0,90.0,1.0,0.0
264,78.0,30.0,30.0,0.0,0.0
265,51.0,0.0,90.0,0.0,0.0
266,56.0,0.0,90.0,0.0,0.0
267,75.0,30.0,30.0,0.0,0.0
268,68.0,15.0,40.0,0.0,0.0
269,78.0,0.0,30.0,0.0,0.0
270,65.0,5.0,120.0,1.0,0.0
271,56.0,0.0,150.0,0.0,0.0
272,53.0,0.0,90.0,0.0,0.0
273,49.0,10.0,90.0,0.0,0.0
274,49.0,0.0,120.0,1.0,0.0
275,68.0,0.0,90.0,1.0,0.0
276,77.0,15.0,40.0,0.0,0.0
277,73.0,30.0,30.0,0.0,0.0
278,68.0,15.0,30.0,0.0,0.0
279,77.0,0.0,30.0,0.0,0.0
280,63.0,4.0,60.0,1.0,0.0
281,48.0,0.0,40.0,0.0,0.0
282,68.0,15.0,90.0,1.0,0.0
283,51.0,11.0,40.0,0.0,0.0
284,75.0,0.0,30.0,0.0,0.0
285,48.0,30.0,60.0,1.0,0.0
286,51.0,15.0,30.0,1.0,0.0
287,72.0,0.0,30.0,0.0,0.0
288,60.0,7.0,60.0,1.0,0.0
289,44.0,0.0,60.0,1.0,0.0
290,56.0,8.0,40.0,0.0,0.0
291,44.0,0.0,60.0,0.0,0.0
292,56.0,0.0,120.0,1.0,0.0
293,75.0,0.0,30.0,0.0,0.0
294,72.0,45.0,30.0,0.0,0.0
295,65.0,0.0,60.0,1.0,0.0
296,46.0,15.0,40.0,0.0,0.0
297,56.0,0.0,40.0,0.0,0.0
298,73.0,0.0,60.0,0.0,0.0
299,73.0,0.0,120.0,1.0,0.0
300,46.0,30.0,60.0,1.0,0.0
301,63.0,26.0,40.0,1.0,0.0
302,51.0,4.0,30.0,0.0,0.0
303,55.0,0.0,60.0,1.0,0.0
304,39.0,0.0,30.0,0.0,0.0
305,51.0,30.0,60.0,1.0,0.0
306,72.0,0.0,30.0,0.0,0.0
307,67.0,0.0,30.0,0.0,0.0
308,70.0,0.0,30.0,0.0,0.0
309,63.0,19.0,150.0,1.0,0.0
310,44.0,11.0,120.0,1.0,0.0
311,72.0,0.0,60.0,1.0,0.0
312,56.0,0.0,120.0,1.0,0.0
313,32.0,30.0,60.0,0.0,0.0
314,44.0,0.0,60.0,0.0,0.0
315,68.0,30.0,30.0,0.0,0.0
316,63.0,0.0,30.0,0.0,0.0
317,65.0,30.0,30.0,0.0,0.0
318,68.0,0.0,30.0,1.0,0.0
319,56.0,0.0,30.0,0.0,0.0
320,60.0,0.0,30.0,0.0,0.0
321,67.0,0.0,30.0,0.0,0.0
322,60.0,0.0,90.0,0.0,0.0
323,56.0,7.0,90.0,0.0,0.0
324,68.0,30.0,30.0,0.0,0.0
325,72.0,0.0,180.0,1.0,0.0
326,67.0,30.0,30.0,0.0,0.0
327,63.0,8.0,60.0,1.0,0.0
328,68.0,15.0,30.0,0.0,0.0
329,70.0,30.0,30.0,0.0,0.0
330,68.0,5.0,60.0,1.0,0.0
331,44.0,30.0,60.0,0.0,0.0
332,32.0,0.0,60.0,0.0,0.0
333,44.0,0.0,60.0,1.0,0.0
334,72.0,25.0,30.0,0.0,0.0
335,68.0,0.0,30.0,0.0,0.0
336,67.0,8.0,60.0,1.0,0.0
337,34.0,30.0,60.0,0.0,0.0
338,46.0,0.0,60.0,0.0,0.0
339,61.0,0.0,60.0,1.0,0.0
340,67.0,22.0,30.0,0.0,0.0
341,46.0,0.0,60.0,1.0,0.0
342,70.0,0.0,60.0,1.0,0.0
343,70.0,0.0,30.0,0.0,0.0
344,65.0,12.0,60.0,1.0,0.0
345,68.0,30.0,60.0,1.0,0.0
346,60.0,30.0,240.0,1.0,0.0
347,48.0,0.0,40.0,0.0,0.0
348,36.0,3.0,40.0,0.0,0.0
349,48.0,0.0,60.0,1.0,0.0
350,68.0,15.0,30.0,0.0,0.0
351,65.0,0.0,30.0,0.0,0.0
352,64.0,5.0,40.0,1.0,0.0
353,46.0,30.0,60.0,1.0,0.0
354,67.0,0.0,60.0,1.0,0.0
355,46.0,0.0,30.0,0.0,0.0
356,48.0,15.0,40.0,0.0,0.0
357,64.0,10.0,30.0,0.0,0.0
358,67.0,0.0,30.0,0.0,0.0
359,48.0,15.0,90.0,0.0,0.0
360,44.0,0.0,90.0,0.0,0.0
361,65.0,0.0,120.0,1.0,0.0
362,44.0,30.0,150.0,1.0,0.0
363,65.0,30.0,30.0,0.0,0.0
364,76.0,30.0,30.0,0.0,0.0
365,77.0,15.0,30.0,0.0,0.0
366,76.0,0.0,30.0,0.0,0.0
367,56.0,0.0,120.0,0.0,0.0
368,53.0,0.0,120.0,1.0,0.0
369,48.0,0.0,120.0,0.0,0.0
370,77.0,0.0,30.0,0.0,0.0
371,72.0,1.0,120.0,1.0,0.0
372,75.0,30.0,30.0,0.0,0.0
373,74.0,30.0,30.0,0.0,0.0
374,44.0,0.0,60.0,1.0,0.0
375,72.0,0.0,30.0,0.0,0.0
376,67.0,2.0,60.0,1.0,0.0
377,46.0,0.0,60.0,0.0,0.0
378,43.0,0.0,60.0,0.0,0.0
379,70.0,0.0,30.0,0.0,0.0
380,43.0,30.0,60.0,1.0,0.0
381,70.0,28.0,30.0,1.0,0.0
382,67.0,0.0,30.0,0.0,0.0
383,65.0,4.0,60.0,1.0,0.0
384,44.0,0.0,60.0,0.0,0.0
385,60.0,30.0,60.0,1.0,0.0
386,48.0,0.0,60.0,0.0,0.0
387,65.0,26.0,30.0,0.0,0.0
388,44.0,0.0,60.0,1.0,0.0
389,68.0,0.0,60.0,1.0,0.0
390,68.0,0.0,30.0,0.0,0.0
391,63.0,6.0,60.0,1.0,0.0
392,67.0,24.0,30.0,0.0,0.0
393,46.0,0.0,60.0,1.0,0.0
394,58.0,0.0,30.0,1.0,0.0
395,46.0,0.0,60.0,0.0,0.0
396,67.0,30.0,60.0,1.0,0.0
397,51.0,0.0,60.0,0.0,0.0
398,63.0,0.0,30.0,0.0,0.0
399,62.0,15.0,60.0,1.0,0.0
400,44.0,0.0,60.0,0.0,0.0
401,53.0,0.0,60.0,0.0,0.0
402,62.0,15.0,30.0,0.0,0.0
403,58.0,0.0,30.0,1.0,0.0
404,65.0,0.0,60.0,1.0,0.0
405,44.0,0.0,60.0,1.0,0.0
406,65.0,30.0,30.0,0.0,0.0
407,63.0,14.0,120.0,1.0,0.0
408,43.0,30.0,120.0,0.0,0.0
409,51.0,0.0,120.0,0.0,0.0
410,43.0,16.0,90.0,1.0,0.0
411,63.0,30.0,30.0,0.0,0.0
412,74.0,30.0,30.0,0.0,0.0
413,75.0,0.0,30.0,0.0,0.0
414,74.0,0.0,30.0,0.0,0.0
415,58.0,0.0,15.0,1.0,0.0
416,43.0,0.0,120.0,1.0,0.0
417,75.0,30.0,30.0,0.0,0.0
418,70.0,0.0,120.0,1.0,0.0
419,51.0,0.0,120.0,1.0,0.0
420,74.0,30.0,30.0,0.0,0.0
421,72.0,23.0,30.0,0.0,0.0
422,70.0,60.0,30.0,0.0,0.0
423,32.0,0.0,120.0,0.0,0.0
424,44.0,30.0,120.0,0.0,0.0
425,68.0,30.0,60.0,0.0,0.0
426,67.0,15.0,30.0,0.0,0.0
427,68.0,15.0,15.0,0.0,0.0
428,56.0,0.0,60.0,0.0,0.0
429,68.0,30.0,30.0,1.0,0.0
430,68.0,0.0,60.0,0.0,0.0
431,60.0,30.0,60.0,1.0,0.0
432,56.0,0.0,60.0,1.0,0.0
433,60.0,0.0,240.0,0.0,0.0
434,68.0,0.0,30.0,1.0,0.0
435,55.0,0.0,60.0,1.0,0.0
436,67.0,15.0,30.0,0.0,0.0
437,55.0,60.0,60.0,0.0,0.0
438,58.0,0.0,60.0,1.0,0.0
439,68.0,15.0,15.0,0.0,0.0
440,56.0,30.0,60.0,1.0,0.0
441,53.0,0.0,60.0,0.0,0.0
442,68.0,0.0,60.0,0.0,0.0
443,68.0,0.0,90.0,1.0,0.0
444,53.0,0.0,60.0,1.0,0.0
445,60.0,15.0,60.0,1.0,0.0
446,56.0,0.0,60.0,1.0,0.0
447,56.0,0.0,30.0,0.0,0.0
448,67.0,15.0,30.0,0.0,0.0
449,68.0,15.0,15.0,0.0,0.0
450,56.0,0.0,15.0,0.0,0.0
451,68.0,30.0,30.0,1.0,0.0
452,68.0,0.0,60.0,0.0,0.0
453,53.0,15.0,15.0,0.0,0.0
454,53.0,0.0,60.0,1.0,0.0
455,67.0,1.0,60.0,1.0,0.0
456,55.0,15.0,15.0,0.0,0.0
457,51.0,45.0,60.0,1.0,0.0
458,67.0,0.0,30.0,0.0,0.0
459,55.0,0.0,60.0,1.0,0.0
460,68.0,7.0,15.0,1.0,0.0
461,51.0,0.0,15.0,0.0,0.0
462,68.0,14.0,15.0,0.0,0.0
463,65.0,27.0,60.0,1.0,0.0
464,56.0,0.0,120.0,1.0,0.0
465,50.0,3.0,60.0,1.0,0.0
466,53.0,0.0,40.0,0.0,0.0
467,50.0,15.0,40.0,0.0,0.0
468,68.0,0.0,60.0,0.0,0.0
469,53.0,15.0,30.0,0.0,0.0
470,70.0,0.0,30.0,0.0,0.0
471,53.0,15.0,60.0,1.0,0.0
472,68.0,0.0,30.0,1.0,0.0
473,56.0,11.0,40.0,0.0,0.0
474,72.0,0.0,30.0,0.0,0.0
475,65.0,1.0,60.0,1.0,0.0
476,68.0,29.0,30.0,1.0,0.0
477,53.0,0.0,15.0,0.0,0.0
478,50.0,0.0,60.0,1.0,0.0
479,50.0,15.0,15.0,0.0,0.0
480,74.0,0.0,30.0,0.0,0.0
481,75.0,15.0,30.0,0.0,0.0
482,63.0,2.0,60.0,1.0,0.0
483,48.0,0.0,30.0,0.0,0.0
484,77.0,28.0,30.0,0.0,0.0
485,68.0,0.0,30.0,1.0,0.0
486,51.0,30.0,60.0,1.0,0.0
487,51.0,15.0,15.0,0.0,0.0
488,48.0,0.0,60.0,1.0,0.0
489,79.0,0.0,30.0,0.0,0.0
490,46.0,0.0,150.0,1.0,0.0
491,50.0,15.0,60.0,0.0,0.0
492,68.0,15.0,180.0,1.0,0.0
493,46.0,0.0,60.0,0.0,0.0
494,80.0,30.0,30.0,0.0,0.0
495,53.0,0.0,150.0,1.0,0.0
496,62.0,24.0,150.0,1.0,0.0
497,82.0,15.0,30.0,0.0,0.0
498,79.0,30.0,30.0,0.0,0.0
499,80.0,30.0,30.0,0.0,0.0
500,77.0,6.0,30.0,0.0,0.0
501,58.0,15.0,60.0,0.0,0.0
502,56.0,0.0,60.0,0.0,0.0
503,79.0,0.0,30.0,0.0,0.0
504,62.0,12.0,40.0,1.0,0.0
505,46.0,0.0,30.0,1.0,0.0
506,68.0,0.0,30.0,1.0,0.0
507,53.0,3.0,30.0,1.0,0.0
508,75.0,0.0,30.0,0.0,0.0
509,58.0,15.0,15.0,0.0,0.0
510,56.0,0.0,15.0,0.0,0.0
511,77.0,30.0,30.0,0.0,0.0
512,62.0,29.0,120.0,1.0,0.0
513,46.0,0.0,120.0,1.0,0.0
514,68.0,30.0,90.0,1.0,0.0
515,58.0,0.0,90.0,0.0,0.0
516,53.0,0.0,120.0,1.0,0.0
517,74.0,30.0,30.0,0.0,0.0
518,56.0,0.0,90.0,0.0,0.0
519,75.0,30.0,30.0,0.0,0.0
520,72.0,0.0,30.0,0.0,0.0
521,74.0,1.0,30.0,0.0,0.0
522,58.0,0.0,60.0,1.0,0.0
523,46.0,0.0,30.0,1.0,0.0
524,50.0,15.0,60.0,0.0,0.0
525,68.0,0.0,30.0,1.0,0.0
526,70.0,14.0,30.0,0.0,0.0
527,46.0,15.0,40.0,0.0,0.0
528,56.0,15.0,60.0,0.0,0.0
529,62.0,1.0,40.0,1.0,0.0
530,72.0,0.0,30.0,0.0,0.0
531,46.0,0.0,60.0,1.0,0.0
532,68.0,8.0,30.0,0.0,0.0
533,68.0,30.0,60.0,1.0,0.0
534,46.0,15.0,40.0,0.0,0.0
535,58.0,0.0,30.0,1.0,0.0
536,62.0,7.0,40.0,1.0,0.0
537,70.0,0.0,30.0,0.0,0.0
538,63.0,10.0,120.0,1.0,0.0
539,51.0,0.0,120.0,1.0,0.0
540,51.0,0.0,90.0,0.0,0.0
541,55.0,0.0,90.0,0.0,0.0
542,67.0,30.0,120.0,1.0,0.0
543,58.0,0.0,120.0,1.0,0.0
544,67.0,30.0,30.0,0.0,0.0
545,70.0,30.0,30.0,0.0,0.0
546,68.0,20.0,30.0,0.0,0.0
547,67.0,0.0,30.0,0.0,0.0
548,65.0,5.0,120.0,1.0,0.0
549,48.0,10.0,90.0,0.0,0.0
550,53.0,0.0,90.0,0.0,0.0
551,44.0,15.0,90.0,0.0,0.0
552,44.0,0.0,120.0,1.0,0.0
553,60.0,30.0,120.0,1.0,0.0
554,68.0,0.0,120.0,1.0,0.0
555,72.0,30.0,30.0,0.0,0.0
556,68.0,30.0,30.0,0.0,0.0
557,67.0,0.0,30.0,0.0,0.0
558,65.0,0.0,30.0,0.0,0.0
559,63.0,10.0,120.0,1.0,0.0
560,67.0,30.0,120.0,1.0,0.0
561,70.0,30.0,30.0,0.0,0.0
562,58.0,0.0,150.0,1.0,0.0
563,55.0,0.0,90.0,0.0,0.0
564,51.0,0.0,90.0,0.0,0.0
565,46.0,0.0,150.0,1.0,0.0
566,46.0,0.0,90.0,0.0,0.0
567,67.0,30.0,30.0,0.0,0.0
568,65.0,20.0,30.0,0.0,0.0
569,63.0,0.0,30.0,0.0,0.0
570,62.0,19.0,90.0,1.0,0.0
571,46.0,0.0,90.0,0.0,0.0
572,53.0,11.0,90.0,0.0,0.0
573,50.0,0.0,90.0,0.0,0.0
574,65.0,0.0,60.0,1.0,0.0
575,68.0,30.0,30.0,0.0,0.0
576,65.0,11.0,30.0,0.0,0.0
577,58.0,0.0,60.0,1.0,0.0
578,46.0,0.0,60.0,1.0,0.0
579,63.0,15.0,30.0,0.0,0.0
580,65.0,0.0,30.0,1.0,0.0
581,62.0,15.0,30.0,0.0,0.0
582,62.0,4.0,20.0,1.0,0.0
583,51.0,0.0,90.0,0.0,0.0
584,46.0,15.0,90.0,0.0,0.0
585,39.0,0.0,90.0,0.0,0.0
586,39.0,0.0,120.0,1.0,0.0
587,63.0,5.0,120.0,1.0,0.0
588,63.0,45.0,15.0,0.0,0.0
589,58.0,0.0,120.0,1.0,0.0
590,63.0,30.0,30.0,0.0,0.0
591,62.0,15.0,30.0,0.0,0.0
592,63.0,0.0,30.0,0.0,0.0
593,51.0,15.0,60.0,0.0,0.0
594,65.0,30.0,30.0,0.0,0.0
595,63.0,15.0,30.0,0.0,0.0
596,62.0,15.0,30.0,0.0,0.0
597,63.0,30.0,30.0,0.0,0.0
598,51.0,15.0,15.0,0.0,0.0
599,39.0,30.0,30.0,0.0,0.0
600,51.0,0.0,30.0,0.0,0.0
601,63.0,30.0,30.0,0.0,0.0
602,41.0,0.0,30.0,0.0,0.0
603,53.0,30.0,30.0,0.0,0.0
604,63.0,30.0,30.0,0.0,0.0
605,55.0,15.0,30.0,0.0,0.0
606,43.0,15.0,40.0,0.0,0.0
607,63.0,30.0,30.0,0.0,0.0
608,44.0,0.0,30.0,0.0,0.0
609,56.0,30.0,30.0,0.0,0.0
610,63.0,15.0,30.0,0.0,0.0
611,46.0,30.0,120.0,0.0,0.0
612,39.0,0.0,120.0,0.0,0.0
613,58.0,45.0,15.0,0.0,0.0
614,75.0,30.0,30.0,0.0,0.0
615,74.0,30.0,30.0,0.0,0.0
616,75.0,0.0,30.0,0.0,0.0
617,77.0,30.0,30.0,0.0,0.0
618,75.0,30.0,30.0,0.0,0.0
619,74.0,30.0,30.0,0.0,0.0
620,75.0,30.0,30.0,0.0,0.0
621,43.0,30.0,30.0,0.0,0.0
622,55.0,0.0,30.0,0.0,0.0
623,67.0,0.0,30.0,0.0,0.0
624,75.0,30.0,30.0,0.0,0.0
625,68.0,0.0,30.0,0.0,0.0
626,56.0,30.0,30.0,0.0,0.0
627,44.0,0.0,30.0,0.0,0.0
628,75.0,30.0,30.0,0.0,0.0
629,58.0,30.0,30.0,0.0,0.0
630,46.0,0.0,30.0,0.0,0.0
631,70.0,0.0,30.0,0.0,0.0
632,75.0,30.0,30.0,0.0,0.0
633,48.0,0.0,30.0,0.0,0.0
634,60.0,0.0,30.0,0.0,0.0
635,72.0,30.0,30.0,0.0,0.0
636,75.0,30.0,30.0,0.0,0.0
637,49.0,0.0,30.0,0.0,0.0
638,61.0,0.0,30.0,0.0,0.0
639,73.0,30.0,30.0,0.0,0.0
640,75.0,15.0,30.0,0.0,0.0
641,48.0,30.0,30.0,0.0,0.0
642,72.0,0.0,30.0,0.0,0.0
643,60.0,15.0,15.0,0.0,0.0
644,73.0,15.0,30.0,0.0,0.0
645,70.0,0.0,30.0,0.0,0.0
646,46.0,15.0,15.0,0.0,0.0
647,58.0,30.0,30.0,0.0,0.0
648,72.0,30.0,30.0,0.0,0.0
649,56.0,0.0,30.0,0.0,0.0
650,44.0,30.0,30.0,0.0,0.0
651,68.0,0.0,30.0,0.0,0.0
652,70.0,30.0,30.0,0.0,0.0
653,67.0,0.0,30.0,0.0,0.0
654,43.0,0.0,30.0,0.0,0.0
655,55.0,30.0,30.0,0.0,0.0
656,68.0,30.0,30.0,0.0,0.0
657,41.0,0.0,30.0,0.0,0.0
658,53.0,30.0,30.0,0.0,0.0
659,65.0,0.0,30.0,0.0,0.0
660,67.0,30.0,30.0,0.0,0.0
661,39.0,30.0,30.0,0.0,0.0
662,63.0,0.0,30.0,0.0,0.0
663,51.0,0.0,30.0,0.0,0.0
664,65.0,15.0,30.0,0.0,0.0
665,37.0,0.0,30.0,0.0,0.0
666,61.0,30.0,30.0,0.0,0.0
667,49.0,15.0,15.0,0.0,0.0
668,63.0,30.0,30.0,0.0,0.0
669,60.0,10.0,90.0,1.0,0.0
670,48.0,0.0,90.0,1.0,0.0
671,60.0,0.0,30.0,0.0,0.0
672,48.0,30.0,30.0,0.0,0.0
673,36.0,0.0,30.0,0.0,0.0
674,72.0,0.0,90.0,1.0,0.0
675,64.0,20.0,90.0,1.0,0.0
676,64.0,30.0,30.0,0.0,0.0
677,67.0,0.0,30.0,0.0,0.0
678,36.0,0.0,30.0,0.0,0.0
679,48.0,0.0,30.0,0.0,0.0
680,72.0,15.0,30.0,0.0,0.0
681,60.0,30.0,30.0,0.0,0.0
682,72.0,9.0,90.0,1.0,0.0
683,48.0,15.0,15.0,0.0,0.0
684,52.0,15.0,180.0,0.0,0.0
685,55.0,12.0,210.0,0.0,0.0
686,64.0,21.0,90.0,1.0,0.0
687,60.0,0.0,90.0,1.0,0.0
688,48.0,0.0,90.0,1.0,0.0
689,72.0,30.0,30.0,0.0,0.0
690,60.0,0.0,30.0,0.0,0.0
691,48.0,0.0,30.0,0.0,0.0
692,72.0,15.0,30.0,0.0,0.0
693,48.0,15.0,15.0,0.0,0.0
694,60.0,30.0,30.0,0.0,0.0
695,60.0,0.0,90.0,1.0,0.0
696,48.0,0.0,90.0,1.0,0.0
697,72.0,0.0,90.0,1.0,0.0
698,64.0,18.0,90.0,1.0,0.0
699,64.0,15.0,30.0,0.0,0.0
700,67.0,0.0,30.0,0.0,0.0
701,48.0,0.0,30.0,0.0,0.0
702,72.0,30.0,30.0,0.0,0.0
703,48.0,0.0,90.0,1.0,0.0
704,52.0,0.0,60.0,0.0,0.0
705,55.0,15.0,60.0,0.0,0.0
706,72.0,0.0,90.0,1.0,0.0
707,48.0,30.0,30.0,0.0,0.0
708,60.0,0.0,30.0,0.0,0.0
709,60.0,7.0,90.0,1.0,0.0
710,64.0,8.0,90.0,1.0,0.0
711,72.0,15.0,30.0,0.0,0.0
712,48.0,0.0,15.0,0.0,0.0
713,60.0,0.0,30.0,0.0,0.0
714,72.0,45.0,15.0,0.0,0.0
715,48.0,0.0,90.0,1.0,0.0
716,65.0,12.0,90.0,1.0,0.0
717,72.0,0.0,90.0,1.0,0.0
718,48.0,30.0,30.0,0.0,0.0
719,61.0,25.0,90.0,1.0,0.0
720,61.0,15.0,420.0,0.0,0.0
721,53.0,0.0,420.0,0.0,0.0
722,72.0,18.0,60.0,0.0,0.0
723,48.0,0.0,30.0,0.0,0.0
724,77.0,0.0,30.0,0.0,0.0
725,48.0,0.0,30.0,1.0,0.0
726,73.0,15.0,30.0,0.0,0.0
727,72.0,0.0,30.0,1.0,0.0
728,65.0,5.0,15.0,1.0,0.0
729,48.0,2.0,90.0,1.0,0.0
730,70.0,15.0,15.0,0.0,0.0
731,48.0,30.0,30.0,0.0,0.0
732,70.0,0.0,90.0,1.0,0.0
733,61.0,15.0,60.0,1.0,0.0
734,65.0,28.0,90.0,1.0,0.0
735,70.0,15.0,15.0,0.0,0.0
736,48.0,0.0,30.0,0.0,0.0
737,61.0,15.0,30.0,1.0,0.0
738,65.0,14.0,90.0,1.0,0.0
739,48.0,0.0,90.0,1.0,0.0
740,61.0,0.0,90.0,1.0,0.0
741,48.0,30.0,15.0,0.0,0.0
742,70.0,1.0,90.0,1.0,0.0
743,70.0,30.0,40.0,0.0,0.0
744,70.0,45.0,40.0,0.0,0.0
745,48.0,15.0,15.0,0.0,0.0
746,65.0,44.0,120.0,1.0,0.0
747,48.0,15.0,30.0,0.0,0.0
748,61.0,15.0,90.0,1.0,0.0
749,48.0,0.0,90.0,1.0,0.0
750,70.0,15.0,40.0,0.0,0.0
751,70.0,15.0,60.0,1.0,0.0
752,48.0,0.0,15.0,0.0,0.0
753,70.0,1.0,40.0,0.0,0.0
754,63.0,24.0,90.0,1.0,0.0
755,70.0,15.0,60.0,0.0,0.0
756,48.0,6.0,90.0,1.0,0.0
757,70.0,0.0,120.0,1.0,0.0
758,48.0,30.0,30.0,0.0,0.0
759,60.0,0.0,420.0,0.0,0.0
760,51.0,0.0,420.0,0.0,0.0
761,60.0,0.0,90.0,1.0,0.0
762,48.0,15.0,15.0,0.0,0.0
763,75.0,0.0,30.0,0.0,0.0
764,72.0,15.0,30.0,0.0,0.0
765,68.0,3.0,90.0,1.0,0.0
766,48.0,0.0,15.0,0.0,0.0
767,63.0,42.0,90.0,1.0,0.0
768,60.0,0.0,90.0,1.0,0.0
769,48.0,0.0,90.0,1.0,0.0
770,68.0,60.0,15.0,0.0,0.0
771,68.0,0.0,15.0,0.0,0.0
772,48.0,15.0,15.0,0.0,0.0
773,63.0,11.0,90.0,1.0,0.0
774,68.0,30.0,40.0,0.0,0.0
775,60.0,15.0,90.0,1.0,0.0
776,68.0,0.0,90.0,1.0,0.0
777,48.0,30.0,15.0,0.0,0.0
778,48.0,0.0,90.0,1.0,0.0
779,68.0,5.0,40.0,0.0,0.0
780,48.0,4.0,15.0,0.0,0.0
781,63.0,10.0,20.0,1.0,0.0
782,48.0,0.0,30.0,1.0,0.0
783,60.0,15.0,30.0,1.0,0.0
784,63.0,30.0,120.0,1.0,0.0
785,68.0,30.0,40.0,0.0,0.0
786,48.0,0.0,90.0,1.0,0.0
787,48.0,30.0,15.0,0.0,0.0
788,60.0,0.0,90.0,1.0,0.0
789,68.0,15.0,90.0,1.0,0.0
790,48.0,15.0,15.0,0.0,0.0
791,68.0,0.0,40.0,0.0,0.0
792,61.0,27.0,90.0,1.0,0.0
793,48.0,0.0,210.0,1.0,0.0
794,48.0,45.0,15.0,0.0,0.0
795,68.0,15.0,120.0,1.0,0.0
796,49.0,0.0,210.0,0.0,0.0
797,58.0,2.0,210.0,0.0,0.0
798,68.0,15.0,60.0,0.0,0.0
799,58.0,0.0,120.0,1.0,0.0
800,48.0,15.0,15.0,0.0,0.0
801,73.0,3.0,30.0,0.0,0.0
802,70.0,0.0,30.0,0.0,0.0
803,61.0,13.0,90.0,1.0,0.0
804,67.0,30.0,40.0,0.0,0.0
805,67.0,30.0,240.0,1.0,0.0
806,58.0,0.0,90.0,1.0,0.0
807,48.0,30.0,15.0,0.0,0.0
808,67.0,45.0,40.0,0.0,0.0
809,48.0,15.0,15.0,0.0,0.0
810,60.0,25.0,90.0,1.0,0.0
811,48.0,16.0,210.0,1.0,0.0
812,67.0,30.0,60.0,0.0,0.0
813,48.0,30.0,30.0,0.0,0.0
814,56.0,15.0,180.0,0.0,0.0
815,56.0,5.0,90.0,1.0,0.0
816,48.0,0.0,30.0,0.0,0.0
817,72.0,0.0,30.0,0.0,0.0
818,68.0,0.0,30.0,0.0,0.0
819,60.0,14.0,120.0,1.0,0.0
820,56.0,0.0,90.0,1.0,0.0
821,48.0,15.0,30.0,0.0,0.0
822,65.0,0.0,120.0,1.0,0.0
823,65.0,30.0,40.0,0.0,0.0
824,48.0,0.0,30.0,0.0,0.0
825,65.0,30.0,60.0,0.0,0.0
826,58.0,6.0,120.0,1.0,0.0
827,48.0,0.0,150.0,1.0,0.0
828,61.0,0.0,30.0,0.0,0.0
829,64.0,0.0,30.0,0.0,0.0
830,58.0,0.0,30.0,0.0,0.0
831,64.0,0.0,120.0,1.0,0.0
832,55.0,0.0,120.0,1.0,0.0
833,36.0,0.0,30.0,0.0,0.0
834,48.0,60.0,30.0,0.0,0.0
835,73.0,0.0,30.0,0.0,0.0
836,76.0,0.0,30.0,0.0,0.0
837,48.0,24.0,30.0,0.0,0.0
838,36.0,0.0,30.0,0.0,0.0
839,70.0,30.0,30.0,0.0,0.0
840,72.0,0.0,30.0,0.0,0.0
841,77.0,30.0,30.0,0.0,0.0
842,60.0,2.0,240.0,1.0,0.0
843,48.0,0.0,30.0,0.0,0.0
844,65.0,0.0,60.0,1.0,0.0
845,56.0,0.0,60.0,1.0,0.0
846,36.0,0.0,30.0,0.0,0.0
847,68.0,15.0,30.0,0.0,0.0
848,52.0,0.0,60.0,1.0,0.0
849,79.0,30.0,30.0,0.0,0.0
850,48.0,0.0,30.0,0.0,0.0
851,48.0,0.0,30.0,1.0,0.0
852,36.0,0.0,30.0,0.0,0.0
853,70.0,15.0,15.0,0.0,0.0
854,67.0,30.0,60.0,1.0,0.0
855,77.0,0.0,30.0,0.0,0.0
856,48.0,30.0,30.0,0.0,0.0
857,48.0,30.0,120.0,1.0,0.0
858,68.0,0.0,150.0,1.0,0.0
859,53.0,30.0,180.0,1.0,0.0
860,80.0,0.0,30.0,0.0,0.0
861,36.0,0.0,30.0,0.0,0.0
862,68.0,30.0,30.0,0.0,0.0
863,80.0,15.0,30.0,0.0,0.0
864,36.0,13.0,40.0,0.0,0.0
865,48.0,0.0,40.0,0.0,0.0
866,77.0,0.0,30.0,0.0,0.0
867,68.0,0.0,30.0,0.0,0.0
868,47.0,0.0,60.0,1.0,0.0
869,80.0,30.0,30.0,0.0,0.0
870,62.0,5.0,120.0,1.0,0.0
871,35.0,0.0,30.0,0.0,0.0
872,77.0,0.0,30.0,0.0,0.0
873,47.0,0.0,30.0,0.0,0.0
874,68.0,0.0,30.0,0.0,0.0
875,80.0,0.0,30.0,0.0,0.0
876,77.0,0.0,30.0,0.0,0.0
877,68.0,0.0,60.0,1.0,0.0
878,53.0,0.0,60.0,1.0,0.0
879,35.0,25.0,30.0,0.0,0.0
880,47.0,0.0,30.0,0.0,0.0
881,68.0,30.0,30.0,0.0,0.0
882,47.0,0.0,30.0,1.0,0.0
883,55.0,28.0,120.0,1.0,0.0
884,76.0,0.0,30.0,0.0,0.0
885,52.0,0.0,120.0,1.0,0.0
886,48.0,45.0,40.0,0.0,0.0
887,36.0,0.0,40.0,0.0,0.0
888,48.0,0.0,120.0,1.0,0.0
889,67.0,2.0,120.0,1.0,0.0
890,79.0,15.0,30.0,0.0,0.0
891,60.0,0.0,30.0,0.0,0.0
892,48.0,30.0,30.0,0.0,0.0
893,62.0,0.0,30.0,0.0,0.0
894,50.0,0.0,30.0,0.0,0.0
895,52.0,30.0,30.0,0.0,0.0
896,64.0,0.0,30.0,0.0,0.0
897,65.0,0.0,30.0,0.0,0.0
898,53.0,30.0,30.0,0.0,0.0
899,67.0,15.0,30.0,0.0,0.0
900,55.0,0.0,30.0,0.0,0.0
901,64.0,30.0,30.0,0.0,0.0
902,52.0,15.0,15.0,0.0,0.0
903,48.0,0.0,30.0,0.0,0.0
904,55.0,0.0,210.0,0.0,0.0
905,60.0,30.0,30.0,0.0,0.0
906,58.0,15.0,210.0,0.0,0.0
907,72.0,30.0,30.0,0.0,0.0
908,48.0,0.0,30.0,0.0,0.0
909,52.0,0.0,60.0,1.0,0.0
910,72.0,0.0,120.0,1.0,0.0
911,48.0,0.0,60.0,1.0,0.0
912,60.0,30.0,30.0,0.0,0.0
913,72.0,30.0,30.0,0.0,0.0
914,62.0,0.0,30.0,0.0,0.0
915,50.0,0.0,60.0,1.0,0.0
916,53.0,0.0,60.0,1.0,0.0
917,50.0,30.0,30.0,0.0,0.0
918,72.0,30.0,30.0,0.0,0.0
919,52.0,0.0,30.0,1.0,0.0
920,52.0,0.0,30.0,0.0,0.0
921,55.0,15.0,30.0,1.0,0.0
922,64.0,0.0,30.0,0.0,0.0
923,72.0,30.0,60.0,1.0,0.0
924,72.0,0.0,30.0,0.0,0.0
925,68.0,0.0,60.0,1.0,0.0
926,56.0,0.0,60.0,1.0,0.0
927,53.0,0.0,60.0,1.0,0.0
928,56.0,15.0,40.0,0.0,0.0
929,53.0,0.0,40.0,0.0,0.0
930,65.0,15.0,30.0,0.0,0.0
931,72.0,30.0,30.0,0.0,0.0
932,56.0,30.0,30.0,0.0,0.0
933,60.0,0.0,30.0,0.0,0.0
934,65.0,11.0,60.0,1.0,0.0
935,56.0,0.0,60.0,1.0,0.0
936,60.0,0.0,60.0,1.0,0.0
937,68.0,0.0,30.0,0.0,0.0
938,72.0,0.0,30.0,0.0,0.0
939,67.0,25.0,30.0,0.0,0.0
940,58.0,0.0,60.0,1.0,0.0
941,72.0,30.0,150.0,1.0,0.0
942,64.0,0.0,30.0,0.0,0.0
943,55.0,0.0,30.0,0.0,0.0
944,58.0,15.0,15.0,0.0,0.0
945,55.0,0.0,60.0,1.0,0.0
946,64.0,5.0,60.0,1.0,0.0
947,72.0,30.0,30.0,0.0,0.0
948,53.0,30.0,60.0,1.0,0.0
949,53.0,0.0,30.0,0.0,0.0
950,56.0,0.0,30.0,0.0,0.0
951,60.0,0.0,30.0,0.0,0.0
952,56.0,0.0,60.0,1.0,0.0
953,65.0,30.0,30.0,0.0,0.0
954,65.0,0.0,60.0,1.0,0.0
955,72.0,0.0,30.0,0.0,0.0
956,52.0,0.0,60.0,1.0,0.0
957,52.0,0.0,30.0,0.0,0.0
958,55.0,0.0,60.0,1.0,0.0
959,64.0,0.0,30.0,0.0,0.0
960,55.0,0.0,60.0,0.0,0.0
961,58.0,15.0,180.0,0.0,0.0
962,60.0,5.0,390.0,1.0,0.0
963,72.0,30.0,30.0,0.0,0.0
964,72.0,15.0,30.0,1.0,0.0
965,48.0,15.0,60.0,1.0,0.0
966,52.0,0.0,30.0,1.0,0.0
967,48.0,15.0,40.0,0.0,0.0
968,60.0,0.0,30.0,0.0,0.0
969,72.0,0.0,30.0,0.0,0.0
970,62.0,30.0,30.0,0.0,0.0
971,53.0,0.0,60.0,1.0,0.0
972,50.0,15.0,15.0,0.0,0.0
973,72.0,0.0,30.0,1.0,0.0
974,50.0,15.0,60.0,1.0,0.0
975,72.0,0.0,30.0,0.0,0.0
976,52.0,0.0,30.0,0.0,0.0
977,72.0,0.0,60.0,1.0,0.0
978,64.0,30.0,30.0,0.0,0.0
979,52.0,30.0,60.0,1.0,0.0
980,55.0,0.0,60.0,1.0,0.0
981,72.0,0.0,30.0,0.0,0.0
982,53.0,0.0,30.0,0.0,0.0
983,56.0,0.0,60.0,0.0,0.0
984,65.0,30.0,30.0,0.0,0.0
985,53.0,0.0,120.0,1.0,0.0
986,56.0,0.0,120.0,1.0,0.0
987,68.0,0.0,60.0,1.0,0.0
988,72.0,30.0,30.0,0.0,0.0
989,53.0,15.0,40.0,0.0,0.0
990,44.0,0.0,30.0,0.0,0.0
991,60.0,15.0,30.0,0.0,0.0
992,65.0,25.0,60.0,1.0,0.0
993,72.0,0.0,30.0,0.0,0.0
994,55.0,0.0,120.0,1.0,0.0
995,67.0,15.0,30.0,0.0,0.0
996,72.0,30.0,240.0,1.0,0.0
997,52.0,30.0,120.0,1.0,0.0
998,52.0,0.0,40.0,0.0,0.0
999,55.0,15.0,40.0,0.0,0.0
1000,72.0,30.0,30.0,0.0,0.0
1001,60.0,9.0,40.0,1.0,0.0
1002,64.0,0.0,30.0,0.0,0.0
1003,60.0,15.0,40.0,0.0,0.0
1004,48.0,6.0,30.0,0.0,0.0
1005,72.0,0.0,30.0,0.0,0.0
1006,61.0,10.0,240.0,1.0,0.0
1007,53.0,0.0,120.0,1.0,0.0
1008,56.0,0.0,120.0,1.0,0.0
1009,53.0,0.0,90.0,0.0,0.0
1010,60.0,30.0,90.0,0.0,0.0
1011,61.0,0.0,180.0,0.0,0.0
1012,75.0,30.0,30.0,0.0,0.0
1013,73.0,30.0,30.0,0.0,0.0
1014,82.0,0.0,30.0,0.0,0.0
1015,80.0,0.0,30.0,0.0,0.0
1016,58.0,0.0,60.0,0.0,0.0
1017,51.0,15.0,90.0,1.0,0.0
1018,55.0,15.0,120.0,1.0,0.0
1019,55.0,15.0,60.0,0.0,0.0
1020,79.0,30.0,30.0,0.0,0.0
1021,70.0,0.0,180.0,1.0,0.0
1022,77.0,15.0,30.0,0.0,0.0
1023,75.0,0.0,30.0,0.0,0.0
1024,73.0,5.0,15.0,0.0,0.0
1025,60.0,4.0,240.0,1.0,0.0
1026,44.0,0.0,90.0,0.0,0.0
1027,56.0,0.0,60.0,1.0,0.0
1028,73.0,30.0,30.0,0.0,0.0
1029,51.0,0.0,120.0,0.0,0.0
1030,58.0,15.0,90.0,0.0,0.0
1031,51.0,15.0,90.0,1.0,0.0
1032,56.0,15.0,15.0,0.0,0.0
1033,72.0,30.0,30.0,0.0,0.0
1034,63.0,0.0,60.0,1.0,0.0
1035,80.0,0.0,30.0,0.0,0.0
1036,79.0,0.0,30.0,0.0,0.0
1037,51.0,0.0,30.0,1.0,0.0
1038,56.0,30.0,30.0,1.0,0.0
1039,56.0,0.0,90.0,0.0,0.0
1040,51.0,15.0,90.0,1.0,0.0
1041,48.0,30.0,120.0,1.0,0.0
1042,68.0,0.0,150.0,1.0,0.0
1043,77.0,30.0,30.0,0.0,0.0
1044,75.0,30.0,30.0,0.0,0.0
1045,48.0,0.0,30.0,0.0,0.0
1046,73.0,0.0,30.0,0.0,0.0
1047,72.0,11.0,15.0,0.0,0.0
1048,58.0,0.0,90.0,0.0,0.0
1049,50.0,30.0,90.0,0.0,0.0
1050,58.0,24.0,150.0,1.0,0.0
1051,53.0,0.0,120.0,1.0,0.0
1052,50.0,0.0,120.0,1.0,0.0
1053,56.0,0.0,90.0,0.0,0.0
1054,72.0,30.0,30.0,0.0,0.0
1055,70.0,30.0,30.0,0.0,0.0
1056,68.0,0.0,60.0,1.0,0.0
1057,79.0,0.0,30.0,0.0,0.0
1058,77.0,30.0,30.0,0.0,0.0
1059,67.0,0.0,120.0,1.0,0.0
1060,76.0,6.0,30.0,0.0,0.0
1061,60.0,0.0,90.0,0.0,0.0
1062,52.0,0.0,120.0,1.0,0.0
1063,55.0,0.0,90.0,0.0,0.0
1064,60.0,0.0,90.0,1.0,0.0
1065,52.0,15.0,90.0,0.0,0.0
1066,73.0,30.0,30.0,0.0,0.0
1067,58.0,15.0,60.0,1.0,0.0
1068,72.0,0.0,30.0,0.0,0.0
1069,70.0,15.0,15.0,0.0,0.0
1070,56.0,30.0,90.0,0.0,0.0
1071,65.0,0.0,90.0,1.0,0.0
1072,60.0,0.0,60.0,1.0,0.0
1073,53.0,0.0,90.0,0.0,0.0
1074,60.0,0.0,90.0,0.0,0.0
1075,56.0,14.0,60.0,1.0,0.0
1076,70.0,45.0,15.0,0.0,0.0
1077,53.0,0.0,60.0,1.0,0.0
1078,72.0,16.0,30.0,0.0,0.0
1079,77.0,0.0,30.0,0.0,0.0
1080,65.0,0.0,30.0,1.0,0.0
1081,60.0,0.0,30.0,1.0,0.0
1082,53.0,0.0,30.0,1.0,0.0
1083,72.0,5.0,30.0,0.0,0.0
1084,56.0,25.0,30.0,1.0,0.0
1085,58.0,0.0,120.0,1.0,0.0
1086,49.0,0.0,90.0,0.0,0.0
1087,46.0,20.0,90.0,0.0,0.0
1088,55.0,0.0,90.0,0.0,0.0
1089,46.0,0.0,120.0,1.0,0.0
1090,67.0,45.0,120.0,1.0,0.0
1091,73.0,30.0,30.0,0.0,0.0
1092,61.0,10.0,120.0,1.0,0.0
1093,70.0,30.0,30.0,0.0,0.0
1094,68.0,0.0,30.0,0.0,0.0
1095,67.0,0.0,30.0,0.0,0.0
1096,60.0,8.0,210.0,1.0,0.0
1097,48.0,0.0,180.0,1.0,0.0
1098,65.0,0.0,120.0,1.0,0.0
1099,56.0,30.0,120.0,1.0,0.0
1100,48.0,30.0,90.0,0.0,0.0
1101,56.0,0.0,90.0,0.0,0.0
1102,53.0,0.0,90.0,0.0,0.0
1103,72.0,15.0,40.0,0.0,0.0
1104,68.0,30.0,30.0,0.0,0.0
1105,67.0,0.0,30.0,0.0,0.0
1106,65.0,0.0,30.0,0.0,0.0
1107,70.0,15.0,30.0,0.0,0.0
1108,52.0,22.0,60.0,0.0,0.0
1109,48.0,15.0,40.0,0.0,0.0
1110,55.0,0.0,60.0,0.0,0.0
1111,64.0,0.0,90.0,1.0,0.0
1112,55.0,0.0,60.0,1.0,0.0
1113,67.0,0.0,30.0,0.0,0.0
1114,65.0,0.0,30.0,0.0,0.0
1115,48.0,15.0,30.0,0.0,0.0
1116,55.0,0.0,30.0,1.0,0.0
1117,48.0,0.0,30.0,1.0,0.0
1118,64.0,10.0,15.0,0.0,0.0
1119,64.0,15.0,30.0,1.0,0.0
1120,60.0,5.0,15.0,1.0,0.0
1121,65.0,45.0,15.0,0.0,0.0
1122,41.0,0.0,120.0,1.0,0.0
1123,41.0,0.0,120.0,0.0,0.0
1124,48.0,0.0,120.0,0.0,0.0
1125,56.0,0.0,120.0,0.0,0.0
1126,53.0,19.0,90.0,1.0,0.0
1127,65.0,0.0,120.0,1.0,0.0
1128,60.0,11.0,120.0,1.0,0.0
1129,77.0,30.0,30.0,0.0,0.0
1130,76.0,0.0,30.0,0.0,0.0
1131,77.0,30.0,30.0,0.0,0.0
1132,79.0,30.0,30.0,0.0,0.0
1133,77.0,30.0,30.0,0.0,0.0
1134,76.0,30.0,30.0,0.0,0.0
1135,77.0,30.0,30.0,0.0,0.0
1136,65.0,3.0,60.0,1.0,0.0
1137,68.0,0.0,30.0,0.0,0.0
1138,65.0,27.0,30.0,0.0,0.0
1139,80.0,0.0,30.0,0.0,0.0
1140,68.0,30.0,60.0,1.0,0.0
1141,77.0,0.0,30.0,0.0,0.0
1142,63.0,1.0,60.0,1.0,0.0
1143,75.0,29.0,30.0,0.0,0.0
1144,67.0,0.0,30.0,0.0,0.0
1145,67.0,30.0,60.0,1.0,0.0
1146,63.0,0.0,30.0,0.0,0.0
1147,79.0,0.0,30.0,0.0,0.0
1148,62.0,4.0,60.0,1.0,0.0
1149,62.0,0.0,30.0,0.0,0.0
1150,65.0,11.0,40.0,0.0,0.0
1151,77.0,15.0,30.0,0.0,0.0
1152,65.0,0.0,60.0,1.0,0.0
1153,74.0,15.0,30.0,0.0,0.0
1154,60.0,5.0,60.0,1.0,0.0
1155,72.0,25.0,30.0,0.0,0.0
1156,63.0,15.0,15.0,0.0,0.0
1157,63.0,30.0,60.0,1.0,0.0
1158,60.0,0.0,15.0,0.0,0.0
1159,75.0,0.0,30.0,0.0,0.0
1160,59.0,6.0,150.0,1.0,0.0
1161,62.0,0.0,60.0,0.0,0.0
1162,62.0,0.0,180.0,1.0,0.0
1163,65.0,0.0,60.0,0.0,0.0
1164,74.0,30.0,30.0,0.0,0.0
1165,55.0,0.0,60.0,1.0,0.0
1166,55.0,30.0,60.0,0.0,0.0
1167,67.0,0.0,30.0,0.0,0.0
1168,77.0,0.0,30.0,0.0,0.0
1169,53.0,0.0,60.0,1.0,0.0
1170,56.0,30.0,30.0,0.0,0.0
1171,56.0,30.0,60.0,1.0,0.0
1172,65.0,0.0,30.0,0.0,0.0
1173,77.0,9.0,30.0,0.0,0.0
1174,62.0,15.0,60.0,0.0,0.0
1175,59.0,0.0,60.0,0.0,0.0
1176,55.0,15.0,40.0,0.0,0.0
1177,55.0,0.0,30.0,1.0,0.0
1178,74.0,0.0,30.0,0.0,0.0
1179,60.0,5.0,40.0,1.0,0.0
1180,55.0,10.0,30.0,1.0,0.0
1181,55.0,0.0,15.0,0.0,0.0
1182,79.0,13.0,40.0,0.0,0.0
1183,63.0,0.0,30.0,1.0,0.0
1184,53.0,0.0,60.0,1.0,0.0
1185,62.0,2.0,30.0,1.0,0.0
1186,67.0,15.0,30.0,0.0,0.0
1187,65.0,0.0,30.0,1.0,0.0
1188,63.0,3.0,60.0,1.0,0.0
1189,55.0,0.0,60.0,1.0,0.0
1190,67.0,0.0,90.0,1.0,0.0
1191,51.0,5.0,180.0,1.0,0.0
1192,79.0,15.0,15.0,0.0,0.0
1193,51.0,0.0,180.0,0.0,0.0
1194,55.0,0.0,180.0,0.0,0.0
1195,77.0,30.0,30.0,0.0,0.0
1196,65.0,27.0,60.0,1.0,0.0
1197,75.0,30.0,30.0,0.0,0.0
1198,62.0,3.0,60.0,1.0,0.0
1199,77.0,0.0,30.0,0.0,0.0
1200,63.0,10.0,60.0,1.0,0.0
1201,60.0,0.0,60.0,1.0,0.0
1202,75.0,30.0,30.0,0.0,0.0
1203,72.0,0.0,30.0,0.0,0.0
1204,61.0,4.0,60.0,1.0,0.0
1205,58.0,26.0,30.0,1.0,0.0
1206,52.0,30.0,60.0,1.0,0.0
1207,52.0,15.0,15.0,0.0,0.0
1208,70.0,0.0,30.0,0.0,0.0
1209,73.0,0.0,30.0,0.0,0.0
1210,60.0,20.0,180.0,1.0,0.0
1211,51.0,15.0,60.0,0.0,0.0
1212,63.0,0.0,60.0,0.0,0.0
1213,60.0,0.0,60.0,0.0,0.0
1214,53.0,15.0,60.0,1.0,0.0
1215,57.0,0.0,150.0,1.0,0.0
1216,72.0,30.0,30.0,0.0,0.0
1217,65.0,0.0,30.0,0.0,0.0
1218,75.0,15.0,30.0,0.0,0.0
1219,54.0,15.0,40.0,0.0,0.0
1220,69.0,0.0,60.0,1.0,0.0
1221,54.0,0.0,60.0,1.0,0.0
1222,63.0,30.0,30.0,0.0,0.0
1223,60.0,10.0,60.0,0.0,0.0
1224,72.0,0.0,60.0,1.0,0.0
1225,75.0,0.0,30.0,0.0,0.0
1226,57.0,0.0,60.0,0.0,0.0
1227,53.0,30.0,30.0,0.0,0.0
1228,53.0,0.0,60.0,1.0,0.0
1229,72.0,0.0,30.0,0.0,0.0
1230,51.0,0.0,30.0,0.0,0.0
1231,77.0,15.0,40.0,0.0,0.0
1232,51.0,1.0,60.0,1.0,0.0
1233,58.0,13.0,30.0,1.0,0.0
1234,69.0,0.0,60.0,1.0,0.0
1235,61.0,2.0,40.0,1.0,0.0
1236,65.0,0.0,30.0,0.0,0.0
1237,60.0,0.0,30.0,1.0,0.0
1238,63.0,29.0,30.0,1.0,0.0
1239,61.0,0.0,60.0,1.0,0.0
1240,53.0,15.0,150.0,0.0,0.0
1241,77.0,30.0,30.0,0.0,0.0
1242,65.0,20.0,60.0,1.0,0.0
1243,49.0,1.0,180.0,1.0,0.0
1244,49.0,15.0,150.0,0.0,0.0
1245,73.0,10.0,30.0,0.0,0.0
1246,60.0,0.0,60.0,1.0,0.0
1247,72.0,30.0,30.0,0.0,0.0
1248,63.0,29.0,60.0,1.0,0.0
1249,75.0,1.0,30.0,0.0,0.0
1250,65.0,0.0,30.0,1.0,0.0
1251,73.0,0.0,30.0,0.0,0.0
1252,65.0,0.0,120.0,1.0,0.0
1253,61.0,14.0,60.0,1.0,0.0
1254,58.0,0.0,60.0,1.0,0.0
1255,70.0,0.0,30.0,0.0,0.0
1256,59.0,22.0,40.0,1.0,0.0
1257,50.0,15.0,15.0,0.0,0.0
1258,56.0,30.0,60.0,1.0,0.0
1259,50.0,0.0,60.0,1.0,0.0
1260,68.0,8.0,30.0,0.0,0.0
1261,71.0,0.0,30.0,0.0,0.0
1262,58.0,8.0,90.0,1.0,0.0
1263,51.0,30.0,60.0,1.0,0.0
1264,55.0,7.0,150.0,1.0,0.0
1265,51.0,15.0,40.0,0.0,0.0
1266,58.0,0.0,90.0,0.0,0.0
1267,63.0,0.0,90.0,1.0,0.0
1268,70.0,15.0,30.0,0.0,0.0
1269,61.0,0.0,15.0,0.0,0.0
1270,52.0,0.0,40.0,0.0,0.0
1271,73.0,7.0,30.0,0.0,0.0
1272,52.0,0.0,90.0,1.0,0.0
1273,61.0,45.0,15.0,0.0,0.0
1274,73.0,0.0,30.0,0.0,0.0
1275,63.0,0.0,120.0,1.0,0.0
1276,51.0,15.0,40.0,0.0,0.0
1277,55.0,0.0,60.0,0.0,0.0
1278,51.0,0.0,60.0,1.0,0.0
1279,58.0,8.0,40.0,1.0,0.0
1280,61.0,0.0,60.0,0.0,0.0
1281,70.0,30.0,30.0,0.0,0.0
1282,58.0,3.0,60.0,1.0,0.0
1283,75.0,0.0,30.0,0.0,0.0
1284,49.0,0.0,60.0,1.0,0.0
1285,49.0,27.0,30.0,0.0,0.0
1286,55.0,0.0,60.0,1.0,0.0
1287,63.0,30.0,30.0,0.0,0.0
1288,47.0,0.0,60.0,1.0,0.0
1289,47.0,15.0,40.0,0.0,0.0
1290,56.0,0.0,120.0,1.0,0.0
1291,51.0,0.0,60.0,0.0,0.0
1292,68.0,0.0,90.0,1.0,0.0
1293,75.0,15.0,30.0,0.0,0.0
1294,56.0,15.0,180.0,0.0,0.0
1295,63.0,24.0,60.0,1.0,0.0
1296,68.0,6.0,30.0,0.0,0.0
1297,64.0,9.0,60.0,1.0,0.0
1298,52.0,6.0,40.0,0.0,0.0
1299,49.0,0.0,60.0,1.0,0.0
1300,76.0,15.0,30.0,0.0,0.0
1301,49.0,0.0,40.0,0.0,0.0
1302,68.0,30.0,30.0,0.0,0.0
1303,63.0,1.0,60.0,1.0,0.0
1304,68.0,0.0,60.0,1.0,0.0
1305,47.0,0.0,60.0,1.0,0.0
1306,47.0,0.0,30.0,0.0,0.0
1307,51.0,29.0,30.0,0.0,0.0
1308,75.0,0.0,30.0,0.0,0.0
1309,51.0,0.0,30.0,1.0,0.0
1310,68.0,15.0,30.0,0.0,0.0
1311,61.0,5.0,60.0,1.0,0.0
1312,70.0,30.0,60.0,1.0,0.0
1313,46.0,0.0,60.0,1.0,0.0
1314,49.0,0.0,30.0,0.0,0.0
1315,73.0,0.0,30.0,0.0,0.0
1316,51.0,25.0,30.0,1.0,0.0
1317,46.0,0.0,30.0,0.0,0.0
1318,68.0,0.0,30.0,0.0,0.0
1319,59.0,27.0,60.0,1.0,0.0
1320,51.0,30.0,90.0,1.0,0.0
1321,44.0,3.0,60.0,1.0,0.0
1322,44.0,0.0,60.0,0.0,0.0
1323,71.0,0.0,60.0,1.0,0.0
1324,51.0,0.0,360.0,0.0,0.0
1325,71.0,30.0,30.0,0.0,0.0
1326,63.0,0.0,30.0,0.0,0.0
1327,73.0,0.0,30.0,0.0,0.0
1328,46.0,0.0,60.0,0.0,0.0
1329,73.0,0.0,60.0,1.0,0.0
1330,58.0,28.0,60.0,1.0,0.0
1331,46.0,0.0,60.0,1.0,0.0
1332,63.0,2.0,30.0,0.0,0.0
1333,59.0,8.0,60.0,1.0,0.0
1334,44.0,0.0,60.0,0.0,0.0
1335,44.0,0.0,60.0,1.0,0.0
1336,51.0,30.0,90.0,1.0,0.0
1337,71.0,22.0,30.0,0.0,0.0
1338,71.0,0.0,60.0,1.0,0.0
1339,63.0,30.0,30.0,0.0,0.0
1340,63.0,0.0,40.0,1.0,0.0
1341,42.0,0.0,60.0,1.0,0.0
1342,70.0,0.0,60.0,1.0,0.0
1343,42.0,30.0,60.0,0.0,0.0
1344,70.0,0.0,30.0,0.0,0.0
1345,63.0,0.0,30.0,0.0,0.0
1346,63.0,26.0,120.0,1.0,0.0
1347,40.0,15.0,40.0,0.0,0.0
1348,56.0,30.0,240.0,1.0,0.0
1349,40.0,0.0,240.0,1.0,0.0
1350,68.0,15.0,30.0,0.0,0.0
1351,68.0,0.0,240.0,1.0,0.0
1352,56.0,30.0,30.0,0.0,0.0
1353,68.0,15.0,30.0,0.0,0.0
1354,40.0,15.0,40.0,0.0,0.0
1355,56.0,4.0,30.0,0.0,0.0
1356,62.0,10.0,120.0,1.0,0.0
1357,68.0,0.0,30.0,0.0,0.0
1358,40.0,30.0,30.0,0.0,0.0
1359,50.0,5.0,90.0,0.0,0.0
1360,62.0,30.0,30.0,0.0,0.0
1361,40.0,15.0,30.0,0.0,0.0
1362,74.0,0.0,40.0,0.0,0.0
1363,68.0,0.0,30.0,0.0,0.0
1364,62.0,0.0,15.0,0.0,0.0
1365,63.0,14.0,120.0,1.0,0.0
1366,51.0,1.0,90.0,0.0,0.0
1367,39.0,0.0,90.0,0.0,0.0
1368,39.0,0.0,120.0,1.0,0.0
1369,67.0,30.0,120.0,1.0,0.0
1370,58.0,15.0,90.0,1.0,0.0
1371,75.0,30.0,30.0,0.0,0.0
1372,67.0,0.0,30.0,0.0,0.0
1373,63.0,30.0,30.0,0.0,0.0
1374,62.0,0.0,30.0,0.0,0.0
1375,63.0,0.0,30.0,0.0,0.0
1376,65.0,30.0,30.0,0.0,0.0
1377,51.0,15.0,60.0,0.0,0.0
1378,63.0,15.0,30.0,0.0,0.0
1379,62.0,30.0,30.0,0.0,0.0
1380,51.0,0.0,30.0,0.0,0.0
1381,63.0,30.0,30.0,0.0,0.0
1382,51.0,15.0,30.0,0.0,0.0
1383,39.0,15.0,40.0,0.0,0.0
1384,63.0,30.0,30.0,0.0,0.0
1385,41.0,30.0,30.0,0.0,0.0
1386,53.0,0.0,30.0,0.0,0.0
1387,63.0,30.0,30.0,0.0,0.0
1388,55.0,15.0,30.0,0.0,0.0
1389,43.0,15.0,40.0,0.0,0.0
1390,63.0,30.0,30.0,0.0,0.0
1391,56.0,15.0,30.0,0.0,0.0
1392,44.0,15.0,40.0,0.0,0.0
1393,63.0,15.0,30.0,0.0,0.0
1394,51.0,30.0,120.0,0.0,0.0
1395,58.0,45.0,15.0,0.0,0.0
1396,46.0,0.0,120.0,0.0,0.0
1397,63.0,30.0,30.0,0.0,0.0
1398,62.0,30.0,30.0,0.0,0.0
1399,63.0,0.0,30.0,0.0,0.0
1400,65.0,30.0,30.0,0.0,0.0
1401,63.0,30.0,30.0,0.0,0.0
1402,62.0,30.0,30.0,0.0,0.0
1403,63.0,15.0,30.0,0.0,0.0
1404,55.0,30.0,30.0,0.0,0.0
1405,43.0,15.0,15.0,0.0,0.0
1406,63.0,30.0,30.0,0.0,0.0
1407,44.0,30.0,30.0,0.0,0.0
1408,56.0,0.0,30.0,0.0,0.0
1409,63.0,30.0,30.0,0.0,0.0
1410,46.0,30.0,30.0,0.0,0.0
1411,58.0,0.0,30.0,0.0,0.0
1412,63.0,30.0,30.0,0.0,0.0
1413,60.0,30.0,30.0,0.0,0.0
1414,48.0,0.0,30.0,0.0,0.0
1415,63.0,30.0,30.0,0.0,0.0
1416,49.0,15.0,40.0,0.0,0.0
1417,61.0,15.0,30.0,0.0,0.0
1418,63.0,30.0,30.0,0.0,0.0
1419,48.0,30.0,30.0,0.0,0.0
1420,60.0,0.0,30.0,0.0,0.0
1421,61.0,30.0,30.0,0.0,0.0
1422,46.0,30.0,30.0,0.0,0.0
1423,58.0,0.0,30.0,0.0,0.0
1424,61.0,30.0,30.0,0.0,0.0
1425,60.0,30.0,30.0,0.0,0.0
1426,48.0,0.0,30.0,0.0,0.0
1427,63.0,30.0,30.0,0.0,0.0
1428,49.0,30.0,30.0,0.0,0.0
1429,61.0,0.0,30.0,0.0,0.0
1430,65.0,30.0,30.0,0.0,0.0
1431,63.0,0.0,30.0,0.0,0.0
1432,51.0,30.0,30.0,0.0,0.0
1433,67.0,30.0,30.0,0.0,0.0
1434,65.0,15.0,30.0,0.0,0.0
1435,53.0,15.0,40.0,0.0,0.0
1436,68.0,30.0,30.0,0.0,0.0
1437,67.0,0.0,30.0,0.0,0.0
1438,55.0,30.0,30.0,0.0,0.0
1439,70.0,15.0,30.0,0.0,0.0
1440,56.0,0.0,120.0,0.0,0.0
1441,56.0,30.0,150.0,1.0,0.0
1442,44.0,0.0,210.0,1.0,0.0
1443,68.0,0.0,210.0,1.0,0.0
1444,68.0,45.0,15.0,0.0,0.0
1445,48.0,0.0,120.0,0.0,0.0
1446,44.0,15.0,120.0,0.0,0.0
1447,68.0,30.0,30.0,0.0,0.0
1448,67.0,30.0,30.0,0.0,0.0
1449,68.0,15.0,30.0,0.0,0.0
1450,70.0,0.0,30.0,0.0,0.0
1451,68.0,14.0,30.0,0.0,0.0
1452,56.0,16.0,15.0,1.0,0.0
1453,67.0,30.0,30.0,0.0,0.0
1454,68.0,0.0,30.0,1.0,0.0
1455,44.0,0.0,30.0,1.0,0.0
1456,68.0,30.0,30.0,0.0,0.0
1457,68.0,0.0,90.0,1.0,0.0
1458,32.0,0.0,30.0,0.0,0.0
1459,56.0,30.0,30.0,0.0,0.0
1460,56.0,0.0,90.0,1.0,0.0
1461,44.0,0.0,90.0,1.0,0.0
1462,44.0,0.0,30.0,0.0,0.0
1463,68.0,30.0,30.0,0.0,0.0
1464,58.0,0.0,30.0,0.0,0.0
1465,46.0,4.0,30.0,0.0,0.0
1466,34.0,0.0,30.0,0.0,0.0
1467,68.0,30.0,30.0,0.0,0.0
1468,44.0,0.0,90.0,1.0,0.0
1469,48.0,0.0,30.0,0.0,0.0
1470,60.0,0.0,30.0,0.0,0.0
1471,68.0,0.0,90.0,1.0,0.0
1472,36.0,30.0,30.0,0.0,0.0
1473,56.0,5.0,90.0,1.0,0.0
1474,68.0,30.0,30.0,0.0,0.0
1475,61.0,0.0,30.0,0.0,0.0
1476,49.0,0.0,30.0,0.0,0.0
1477,37.0,0.0,30.0,0.0,0.0
1478,68.0,30.0,30.0,0.0,0.0
1479,44.0,0.0,120.0,0.0,0.0
1480,51.0,15.0,120.0,0.0,0.0
1481,39.0,0.0,120.0,0.0,0.0
1482,44.0,0.0,210.0,1.0,0.0
1483,63.0,30.0,30.0,0.0,0.0
1484,68.0,0.0,210.0,1.0,0.0
1485,56.0,0.0,210.0,1.0,0.0
1486,68.0,30.0,30.0,0.0,0.0
1487,67.0,30.0,30.0,0.0,0.0
1488,68.0,15.0,30.0,0.0,0.0
1489,70.0,30.0,30.0,0.0,0.0
1490,68.0,30.0,30.0,0.0,0.0
1491,67.0,3.0,30.0,0.0,0.0
1492,68.0,30.0,30.0,0.0,0.0
1493,68.0,0.0,90.0,1.0,0.0
1494,44.0,0.0,90.0,1.0,0.0
1495,56.0,1.0,90.0,1.0,0.0
1496,36.0,0.0,30.0,0.0,0.0
1497,48.0,30.0,30.0,0.0,0.0
1498,60.0,0.0,30.0,0.0,0.0
1499,68.0,29.0,30.0,0.0,0.0
1500,49.0,45.0,30.0,0.0,0.0
1501,37.0,0.0,30.0,0.0,0.0
1502,61.0,0.0,30.0,0.0,0.0
1503,68.0,15.0,40.0,0.0,0.0
1504,39.0,30.0,30.0,0.0,0.0
1505,51.0,0.0,30.0,0.0,0.0
1506,68.0,0.0,90.0,1.0,0.0
1507,56.0,7.0,90.0,1.0,0.0
1508,63.0,0.0,30.0,0.0,0.0
1509,44.0,0.0,90.0,1.0,0.0
1510,68.0,30.0,30.0,0.0,0.0
1511,65.0,0.0,30.0,0.0,0.0
1512,61.0,0.0,30.0,0.0,0.0
1513,41.0,0.0,30.0,0.0,0.0
1514,53.0,0.0,30.0,0.0,0.0
1515,68.0,15.0,30.0,0.0,0.0
1516,66.0,0.0,15.0,0.0,0.0
1517,60.0,45.0,15.0,0.0,0.0
1518,54.0,0.0,90.0,0.0,0.0
1519,42.0,15.0,90.0,0.0,0.0
1520,44.0,0.0,90.0,1.0,0.0
1521,68.0,0.0,90.0,1.0,0.0
1522,56.0,0.0,90.0,1.0,0.0
1523,68.0,30.0,30.0,0.0,0.0
1524,67.0,8.0,30.0,0.0,0.0
1525,68.0,30.0,30.0,0.0,0.0
1526,56.0,15.0,60.0,0.0,0.0
1527,70.0,30.0,30.0,0.0,0.0
1528,44.0,12.0,90.0,1.0,0.0
1529,68.0,0.0,90.0,1.0,0.0
1530,56.0,3.0,90.0,1.0,0.0
1531,68.0,15.0,30.0,0.0,0.0
1532,67.0,0.0,30.0,0.0,0.0
1533,56.0,15.0,15.0,0.0,0.0
1534,68.0,0.0,15.0,0.0,0.0
1535,60.0,0.0,60.0,1.0,0.0
1536,54.0,0.0,60.0,1.0,0.0
1537,68.0,0.0,150.0,1.0,0.0
1538,54.0,15.0,40.0,0.0,0.0
1539,51.0,0.0,60.0,1.0,0.0
1540,42.0,0.0,40.0,0.0,0.0
1541,68.0,15.0,30.0,0.0,0.0
1542,72.0,0.0,30.0,0.0,0.0
1543,63.0,30.0,30.0,0.0,0.0
1544,61.0,0.0,60.0,1.0,0.0
1545,53.0,15.0,40.0,0.0,0.0
1546,73.0,0.0,30.0,0.0,0.0
1547,68.0,0.0,30.0,0.0,0.0
1548,41.0,15.0,30.0,0.0,0.0
1549,53.0,0.0,60.0,1.0,0.0
1550,65.0,0.0,30.0,0.0,0.0
1551,51.0,9.0,60.0,1.0,0.0
1552,54.0,0.0,60.0,1.0,0.0
1553,68.0,15.0,30.0,0.0,0.0
1554,75.0,0.0,30.0,0.0,0.0
1555,39.0,15.0,40.0,0.0,0.0
1556,51.0,0.0,40.0,0.0,0.0
1557,63.0,21.0,60.0,1.0,0.0
1558,66.0,0.0,30.0,0.0,0.0
1559,65.0,8.0,60.0,1.0,0.0
1560,68.0,0.0,30.0,0.0,0.0
1561,53.0,0.0,60.0,1.0,0.0
1562,49.0,30.0,60.0,1.0,0.0
1563,77.0,15.0,30.0,0.0,0.0
1564,68.0,0.0,30.0,1.0,0.0
1565,37.0,0.0,30.0,0.0,0.0
1566,49.0,7.0,40.0,0.0,0.0
1567,65.0,0.0,15.0,0.0,0.0
1568,66.0,3.0,120.0,1.0,0.0
1569,36.0,0.0,120.0,0.0,0.0
1570,48.0,30.0,120.0,0.0,0.0
1571,68.0,0.0,150.0,1.0,0.0
1572,48.0,0.0,120.0,1.0,0.0
1573,51.0,0.0,120.0,1.0,0.0
1574,78.0,30.0,30.0,0.0,0.0
1575,75.0,45.0,30.0,0.0,0.0
1576,68.0,0.0,40.0,0.0,0.0
1577,78.0,12.0,15.0,0.0,0.0
1578,65.0,8.0,120.0,1.0,0.0
1579,37.0,0.0,120.0,0.0,0.0
1580,49.0,0.0,120.0,1.0,0.0
1581,49.0,0.0,120.0,0.0,0.0
1582,77.0,30.0,30.0,0.0,0.0
1583,73.0,30.0,30.0,0.0,0.0
1584,68.0,0.0,30.0,1.0,0.0
1585,68.0,22.0,30.0,0.0,0.0
1586,77.0,30.0,30.0,0.0,0.0
1587,63.0,6.0,60.0,1.0,0.0
1588,51.0,0.0,60.0,1.0,0.0
1589,48.0,30.0,60.0,1.0,0.0
1590,51.0,0.0,30.0,0.0,0.0
1591,48.0,24.0,30.0,0.0,0.0
1592,75.0,0.0,30.0,0.0,0.0
1593,68.0,0.0,30.0,1.0,0.0
1594,72.0,0.0,30.0,0.0,0.0
1595,60.0,8.0,60.0,1.0,0.0
1596,44.0,22.0,30.0,0.0,0.0
1597,68.0,0.0,60.0,1.0,0.0
1598,56.0,0.0,30.0,0.0,0.0
1599,56.0,0.0,120.0,1.0,0.0
1600,75.0,0.0,30.0,0.0,0.0
1601,44.0,30.0,60.0,1.0,0.0
1602,72.0,0.0,30.0,0.0,0.0
1603,65.0,4.0,60.0,1.0,0.0
1604,73.0,0.0,60.0,0.0,0.0
1605,73.0,0.0,120.0,1.0,0.0
1606,46.0,30.0,60.0,1.0,0.0
1607,56.0,11.0,40.0,0.0,0.0
1608,46.0,15.0,30.0,0.0,0.0
1609,63.0,7.0,40.0,1.0,0.0
1610,51.0,30.0,60.0,1.0,0.0
1611,55.0,0.0,60.0,1.0,0.0
1612,51.0,15.0,40.0,0.0,0.0
1613,39.0,0.0,40.0,0.0,0.0
1614,72.0,0.0,30.0,0.0,0.0
1615,67.0,8.0,30.0,0.0,0.0
1616,70.0,0.0,30.0,0.0,0.0
1617,63.0,4.0,90.0,1.0,0.0
1618,72.0,30.0,30.0,0.0,0.0
1619,32.0,15.0,90.0,0.0,0.0
1620,56.0,11.0,90.0,1.0,0.0
1621,44.0,0.0,120.0,1.0,0.0
1622,44.0,0.0,120.0,0.0,0.0
1623,72.0,0.0,120.0,1.0,0.0
1624,68.0,30.0,30.0,0.0,0.0
1625,80.0,0.0,30.0,0.0,0.0
1626,79.0,30.0,30.0,0.0,0.0
1627,63.0,24.0,40.0,1.0,0.0
1628,56.0,0.0,30.0,1.0,0.0
1629,77.0,0.0,30.0,0.0,0.0
1630,72.0,6.0,30.0,1.0,0.0
1631,60.0,15.0,60.0,0.0,0.0
1632,56.0,15.0,60.0,0.0,0.0
1633,75.0,0.0,30.0,0.0,0.0
1634,63.0,11.0,60.0,1.0,0.0
1635,73.0,15.0,30.0,0.0,0.0
1636,56.0,30.0,60.0,1.0,0.0
1637,44.0,0.0,60.0,0.0,0.0
1638,72.0,0.0,60.0,1.0,0.0
1639,72.0,4.0,15.0,0.0,0.0
1640,65.0,20.0,60.0,1.0,0.0
1641,53.0,0.0,90.0,0.0,0.0
1642,56.0,0.0,90.0,0.0,0.0
1643,70.0,30.0,90.0,1.0,0.0
1644,50.0,10.0,60.0,1.0,0.0
1645,50.0,0.0,90.0,0.0,0.0
1646,56.0,0.0,120.0,1.0,0.0
1647,58.0,0.0,90.0,0.0,0.0
1648,72.0,15.0,30.0,0.0,0.0
1649,70.0,15.0,15.0,0.0,0.0
1650,79.0,0.0,30.0,0.0,0.0
1651,70.0,7.0,30.0,1.0,0.0
1652,77.0,0.0,30.0,0.0,0.0
1653,50.0,0.0,30.0,1.0,0.0
1654,65.0,8.0,30.0,1.0,0.0
1655,76.0,45.0,15.0,0.0,0.0
1656,55.0,30.0,240.0,1.0,0.0
1657,55.0,0.0,90.0,0.0,0.0
1658,52.0,0.0,90.0,0.0,0.0
1659,52.0,30.0,120.0,1.0,0.0
1660,70.0,0.0,120.0,1.0,0.0
1661,58.0,15.0,90.0,0.0,0.0
1662,60.0,4.0,90.0,1.0,0.0
1663,73.0,30.0,30.0,0.0,0.0
1664,72.0,11.0,30.0,0.0,0.0
1665,70.0,0.0,15.0,0.0,0.0
1666,48.0,0.0,120.0,0.0,0.0
1667,70.0,15.0,30.0,0.0,0.0
1668,68.0,0.0,150.0,1.0,0.0
1669,41.0,0.0,90.0,0.0,0.0
1670,55.0,15.0,90.0,0.0,0.0
1671,60.0,26.0,150.0,1.0,0.0
1672,68.0,30.0,15.0,0.0,0.0
1673,77.0,15.0,15.0,0.0,0.0
1674,75.0,15.0,15.0,0.0,0.0
1675,56.0,0.0,60.0,0.0,0.0
1676,53.0,30.0,150.0,1.0,0.0
1677,60.0,15.0,60.0,0.0,0.0
1678,44.0,0.0,30.0,1.0,0.0
1679,73.0,4.0,30.0,0.0,0.0
1680,53.0,0.0,60.0,0.0,0.0
1681,72.0,15.0,30.0,0.0,0.0
1682,44.0,6.0,40.0,0.0,0.0
1683,68.0,0.0,60.0,1.0,0.0
1684,60.0,9.0,60.0,1.0,0.0
1685,70.0,15.0,30.0,0.0,0.0
1686,44.0,30.0,60.0,1.0,0.0
1687,68.0,0.0,15.0,0.0,0.0
1688,61.0,19.0,120.0,1.0,0.0
1689,66.0,0.0,90.0,1.0,0.0
1690,46.0,0.0,90.0,0.0,0.0
1691,53.0,15.0,90.0,0.0,0.0
1692,46.0,15.0,90.0,1.0,0.0
1693,54.0,0.0,90.0,0.0,0.0
1694,68.0,0.0,30.0,0.0,0.0
1695,49.0,0.0,90.0,0.0,0.0
1696,66.0,30.0,30.0,0.0,0.0
1697,53.0,11.0,60.0,1.0,0.0
1698,75.0,0.0,30.0,0.0,0.0
1699,73.0,0.0,30.0,0.0,0.0
1700,46.0,0.0,30.0,1.0,0.0
1701,56.0,0.0,90.0,0.0,0.0
1702,51.0,0.0,90.0,0.0,0.0
1703,48.0,3.0,90.0,0.0,0.0
1704,54.0,0.0,90.0,0.0,0.0
1705,48.0,30.0,120.0,1.0,0.0
1706,72.0,0.0,30.0,0.0,0.0
1707,51.0,0.0,240.0,1.0,0.0
1708,66.0,10.0,30.0,1.0,0.0
1709,56.0,20.0,40.0,1.0,0.0
1710,70.0,30.0,30.0,0.0,0.0
1711,56.0,12.0,30.0,1.0,0.0
1712,66.0,0.0,60.0,1.0,0.0
1713,68.0,0.0,30.0,0.0,0.0
1714,66.0,15.0,15.0,0.0,0.0
1715,56.0,1.0,60.0,1.0,0.0
1716,51.0,6.0,90.0,0.0,0.0
1717,65.0,15.0,90.0,1.0,0.0
1718,66.0,15.0,30.0,0.0,0.0
1719,44.0,0.0,120.0,0.0,0.0
1720,37.0,0.0,120.0,0.0,0.0
1721,65.0,29.0,15.0,0.0,0.0
1722,73.0,15.0,15.0,0.0,0.0
1723,72.0,0.0,30.0,0.0,0.0
1724,65.0,30.0,30.0,1.0,0.0
1725,56.0,9.0,15.0,1.0,0.0
1726,49.0,0.0,240.0,1.0,0.0
1727,65.0,0.0,120.0,1.0,0.0
1728,49.0,0.0,60.0,0.0,0.0
1729,41.0,30.0,30.0,1.0,0.0
1730,70.0,0.0,30.0,0.0,0.0
1731,56.0,8.0,120.0,1.0,0.0
1732,56.0,0.0,60.0,0.0,0.0
1733,53.0,0.0,60.0,0.0,0.0
1734,68.0,30.0,30.0,0.0,0.0
1735,41.0,0.0,40.0,0.0,0.0
1736,41.0,30.0,60.0,1.0,0.0
1737,66.0,15.0,30.0,0.0,0.0
1738,65.0,7.0,15.0,0.0,0.0
1739,58.0,0.0,60.0,1.0,0.0
1740,43.0,0.0,90.0,0.0,0.0
1741,46.0,0.0,90.0,0.0,0.0
1742,63.0,0.0,90.0,1.0,0.0
1743,51.0,0.0,90.0,0.0,0.0
1744,49.0,0.0,90.0,0.0,0.0
1745,65.0,15.0,30.0,0.0,0.0
1746,43.0,15.0,90.0,1.0,0.0
1747,63.0,30.0,15.0,0.0,0.0
1748,72.0,15.0,15.0,0.0,0.0
1749,63.0,6.0,30.0,1.0,0.0
1750,43.0,0.0,30.0,1.0,0.0
1751,70.0,15.0,15.0,0.0,0.0
1752,58.0,24.0,30.0,1.0,0.0
1753,45.0,0.0,90.0,0.0,0.0
1754,63.0,0.0,90.0,1.0,0.0
1755,45.0,0.0,90.0,1.0,0.0
1756,48.0,0.0,90.0,1.0,0.0
1757,69.0,30.0,30.0,0.0,0.0
1758,48.0,12.0,90.0,0.0,0.0
1759,51.0,15.0,90.0,0.0,0.0
1760,53.0,3.0,90.0,1.0,0.0
1761,66.0,30.0,30.0,0.0,0.0
1762,65.0,0.0,30.0,0.0,0.0
1763,63.0,30.0,30.0,0.0,0.0
1764,46.0,0.0,60.0,1.0,0.0
1765,61.0,15.0,30.0,0.0,0.0
1766,46.0,15.0,40.0,0.0,0.0
1767,49.0,0.0,60.0,1.0,0.0
1768,49.0,0.0,40.0,0.0,0.0
1769,61.0,1.0,60.0,1.0,0.0
1770,53.0,13.0,60.0,1.0,0.0
1771,65.0,0.0,30.0,0.0,0.0
1772,56.0,16.0,15.0,1.0,0.0
1773,48.0,0.0,60.0,1.0,0.0
1774,63.0,30.0,60.0,1.0,0.0
1775,48.0,15.0,40.0,0.0,0.0
1776,51.0,0.0,60.0,0.0,0.0
1777,51.0,0.0,60.0,1.0,0.0
1778,63.0,15.0,30.0,0.0,0.0
1779,56.0,12.0,90.0,1.0,0.0
1780,66.0,0.0,30.0,0.0,0.0
1781,49.0,30.0,60.0,1.0,0.0
1782,53.0,0.0,60.0,1.0,0.0
1783,53.0,3.0,40.0,0.0,0.0
1784,49.0,15.0,30.0,0.0,0.0
1785,65.0,0.0,60.0,1.0,0.0
1786,65.0,0.0,30.0,0.0,0.0
1787,68.0,0.0,30.0,0.0,0.0
1788,51.0,0.0,60.0,1.0,0.0
1789,55.0,0.0,60.0,1.0,0.0
1790,67.0,0.0,60.0,1.0,0.0
1791,51.0,10.0,40.0,0.0,0.0
1792,55.0,0.0,60.0,0.0,0.0
1793,67.0,15.0,30.0,0.0,0.0
1794,61.0,5.0,60.0,1.0,0.0
1795,70.0,30.0,30.0,0.0,0.0
1796,60.0,5.0,60.0,1.0,0.0
1797,53.0,10.0,40.0,0.0,0.0
1798,56.0,0.0,30.0,0.0,0.0
1799,53.0,30.0,60.0,1.0,0.0
1800,68.0,15.0,30.0,0.0,0.0
1801,68.0,0.0,60.0,1.0,0.0
1802,56.0,0.0,60.0,1.0,0.0
1803,72.0,0.0,30.0,0.0,0.0
1804,63.0,9.0,120.0,1.0,0.0
1805,70.0,0.0,60.0,1.0,0.0
1806,55.0,15.0,40.0,0.0,0.0
1807,58.0,0.0,30.0,0.0,0.0
1808,55.0,30.0,60.0,1.0,0.0
1809,70.0,15.0,30.0,0.0,0.0
1810,58.0,0.0,60.0,1.0,0.0
1811,73.0,0.0,30.0,0.0,0.0
1812,56.0,30.0,60.0,1.0,0.0
1813,72.0,0.0,30.0,0.0,0.0
1814,60.0,0.0,60.0,0.0,0.0
1815,56.0,21.0,30.0,0.0,0.0
1816,72.0,0.0,60.0,1.0,0.0
1817,60.0,0.0,60.0,1.0,0.0
1818,75.0,0.0,30.0,0.0,0.0
1819,68.0,7.0,60.0,1.0,0.0
1820,74.0,8.0,40.0,0.0,0.0
1821,68.0,0.0,30.0,0.0,0.0
1822,74.0,0.0,60.0,1.0,0.0
1823,56.0,0.0,30.0,0.0,0.0
1824,53.0,15.0,30.0,0.0,0.0
1825,53.0,0.0,60.0,1.0,0.0
1826,56.0,30.0,60.0,1.0,0.0
1827,80.0,0.0,15.0,0.0,0.0
1828,67.0,2.0,120.0,1.0,0.0
1829,70.0,30.0,60.0,0.0,0.0
1830,79.0,30.0,30.0,0.0,0.0
1831,75.0,0.0,120.0,1.0,0.0
1832,58.0,0.0,60.0,1.0,0.0
1833,51.0,0.0,60.0,0.0,0.0
1834,58.0,15.0,90.0,0.0,0.0
1835,75.0,0.0,30.0,0.0,0.0
1836,51.0,0.0,60.0,1.0,0.0
1837,74.0,13.0,40.0,0.0,0.0
1838,75.0,30.0,30.0,0.0,0.0
1839,56.0,0.0,30.0,0.0,0.0
1840,56.0,0.0,180.0,1.0,0.0
1841,48.0,0.0,30.0,0.0,0.0
1842,77.0,30.0,30.0,0.0,0.0
1843,75.0,30.0,30.0,0.0,0.0
1844,68.0,0.0,60.0,1.0,0.0
1845,74.0,30.0,30.0,0.0,0.0
1846,60.0,0.0,30.0,0.0,0.0
1847,56.0,0.0,30.0,0.0,0.0
1848,75.0,30.0,30.0,0.0,0.0
1849,49.0,0.0,60.0,1.0,0.0
1850,65.0,30.0,60.0,1.0,0.0
1851,49.0,15.0,30.0,0.0,0.0
1852,61.0,15.0,40.0,0.0,0.0
1853,77.0,0.0,40.0,0.0,0.0
1854,73.0,0.0,30.0,0.0,0.0
1855,60.0,1.0,60.0,1.0,0.0
1856,51.0,0.0,60.0,1.0,0.0
1857,60.0,14.0,40.0,0.0,0.0
1858,72.0,15.0,30.0,0.0,0.0
1859,51.0,0.0,40.0,0.0,0.0
1860,63.0,0.0,30.0,1.0,0.0
1861,54.0,30.0,60.0,1.0,0.0
1862,75.0,0.0,30.0,0.0,0.0
1863,53.0,0.0,30.0,0.0,0.0
1864,58.0,15.0,40.0,0.0,0.0
1865,73.0,0.0,30.0,0.0,0.0
1866,61.0,2.0,60.0,1.0,0.0
1867,53.0,15.0,30.0,1.0,0.0
1868,58.0,28.0,60.0,1.0,0.0
1869,70.0,0.0,30.0,0.0,0.0
1870,57.0,2.0,60.0,1.0,0.0
1871,60.0,0.0,60.0,1.0,0.0
1872,51.0,0.0,60.0,1.0,0.0
1873,51.0,13.0,40.0,0.0,0.0
1874,57.0,0.0,30.0,0.0,0.0
1875,53.0,30.0,60.0,1.0,0.0
1876,60.0,0.0,30.0,0.0,0.0
1877,69.0,15.0,30.0,0.0,0.0
1878,72.0,0.0,30.0,0.0,0.0
1879,53.0,0.0,90.0,1.0,0.0
1880,70.0,17.0,30.0,0.0,0.0
1881,61.0,0.0,90.0,1.0,0.0
1882,49.0,0.0,60.0,0.0,0.0
1883,58.0,15.0,60.0,0.0,0.0
1884,49.0,0.0,120.0,1.0,0.0
1885,56.0,13.0,30.0,1.0,0.0
1886,69.0,15.0,30.0,0.0,0.0
1887,58.0,14.0,120.0,1.0,0.0
1888,70.0,30.0,30.0,0.0,0.0
1889,72.0,0.0,30.0,0.0,0.0
1890,63.0,0.0,30.0,1.0,0.0
1891,51.0,30.0,30.0,1.0,0.0
1892,58.0,0.0,40.0,0.0,0.0
1893,73.0,15.0,30.0,0.0,0.0
1894,49.0,30.0,60.0,1.0,0.0
1895,65.0,1.0,40.0,0.0,0.0
1896,61.0,0.0,40.0,0.0,0.0
1897,75.0,0.0,30.0,0.0,0.0
1898,46.0,0.0,60.0,1.0,0.0
1899,46.0,30.0,60.0,0.0,0.0
1900,77.0,0.0,30.0,0.0,0.0
1901,61.0,0.0,60.0,1.0,0.0
1902,65.0,27.0,30.0,1.0,0.0
1903,73.0,0.0,30.0,0.0,0.0
1904,63.0,6.0,60.0,1.0,0.0
1905,48.0,0.0,60.0,1.0,0.0
1906,75.0,15.0,30.0,0.0,0.0
1907,56.0,0.0,40.0,0.0,0.0
1908,48.0,9.0,40.0,0.0,0.0
1909,60.0,30.0,60.0,1.0,0.0
1910,72.0,0.0,30.0,0.0,0.0
1911,61.0,14.0,60.0,1.0,0.0
1912,49.0,0.0,30.0,0.0,0.0
1913,65.0,0.0,60.0,1.0,0.0
1914,49.0,0.0,60.0,1.0,0.0
1915,58.0,30.0,60.0,1.0,0.0
1916,70.0,15.0,30.0,0.0,0.0
1917,58.0,1.0,40.0,0.0,0.0
1918,73.0,0.0,30.0,0.0,0.0
1919,60.0,6.0,60.0,1.0,0.0
1920,72.0,24.0,30.0,0.0,0.0
1921,56.0,0.0,60.0,1.0,0.0
1922,51.0,30.0,60.0,1.0,0.0
1923,51.0,0.0,30.0,0.0,0.0
1924,60.0,0.0,30.0,0.0,0.0
1925,56.0,0.0,30.0,0.0,0.0
1926,68.0,0.0,60.0,1.0,0.0
1927,68.0,0.0,30.0,0.0,0.0
1928,58.0,13.0,60.0,1.0,0.0
1929,49.0,0.0,60.0,1.0,0.0
1930,49.0,0.0,30.0,0.0,0.0
1931,58.0,17.0,30.0,0.0,0.0
1932,67.0,0.0,30.0,0.0,0.0
1933,51.0,0.0,30.0,1.0,0.0
1934,51.0,0.0,30.0,0.0,0.0
1935,67.0,30.0,60.0,1.0,0.0
1936,70.0,0.0,30.0,0.0,0.0
1937,63.0,13.0,90.0,1.0,0.0
1938,68.0,30.0,30.0,0.0,0.0
1939,68.0,0.0,90.0,1.0,0.0
1940,51.0,2.0,90.0,1.0,0.0
1941,51.0,0.0,60.0,0.0,0.0
1942,48.0,0.0,60.0,0.0,0.0
1943,48.0,0.0,120.0,1.0,0.0
1944,67.0,30.0,30.0,0.0,0.0
1945,68.0,0.0,30.0,0.0,0.0
1946,70.0,30.0,30.0,0.0,0.0
1947,55.0,9.0,15.0,0.0,0.0
1948,61.0,0.0,15.0,0.0,0.0
1949,55.0,0.0,30.0,1.0,0.0
1950,70.0,0.0,30.0,1.0,0.0
1951,61.0,6.0,20.0,1.0,0.0
1952,60.0,23.0,60.0,1.0,0.0
1953,72.0,15.0,30.0,0.0,0.0
1954,56.0,30.0,120.0,1.0,0.0
1955,56.0,15.0,90.0,0.0,0.0
1956,60.0,15.0,90.0,0.0,0.0
1957,72.0,0.0,30.0,1.0,0.0
1958,73.0,22.0,15.0,0.0,0.0
1959,68.0,0.0,30.0,1.0,0.0
1960,75.0,0.0,30.0,0.0,0.0
1961,72.0,0.0,30.0,0.0,0.0
1962,73.0,15.0,90.0,1.0,0.0
1963,65.0,30.0,30.0,0.0,0.0
1964,73.0,15.0,60.0,0.0,0.0
1965,53.0,0.0,60.0,1.0,0.0
1966,72.0,0.0,30.0,0.0,0.0
1967,53.0,15.0,15.0,0.0,0.0
1968,56.0,30.0,60.0,1.0,0.0
1969,73.0,15.0,15.0,0.0,0.0
1970,49.0,0.0,60.0,1.0,0.0
1971,53.0,0.0,60.0,1.0,0.0
1972,53.0,0.0,60.0,0.0,0.0
1973,49.0,30.0,30.0,0.0,0.0
1974,73.0,30.0,60.0,0.0,0.0
1975,73.0,0.0,90.0,1.0,0.0
1976,48.0,60.0,40.0,0.0,0.0
1977,72.0,0.0,30.0,0.0,0.0
1978,51.0,15.0,30.0,1.0,0.0
1979,48.0,0.0,30.0,1.0,0.0
1980,73.0,0.0,15.0,0.0,0.0
1981,73.0,30.0,60.0,0.0,0.0
1982,46.0,45.0,120.0,1.0,0.0
1983,73.0,0.0,90.0,1.0,0.0
1984,46.0,15.0,40.0,0.0,0.0
1985,49.0,0.0,60.0,1.0,0.0
1986,65.0,0.0,60.0,1.0,0.0
1987,53.0,0.0,60.0,1.0,0.0
1988,61.0,15.0,40.0,0.0,0.0
1989,72.0,15.0,30.0,0.0,0.0
1990,73.0,0.0,15.0,0.0,0.0
1991,61.0,8.0,60.0,1.0,0.0
1992,73.0,0.0,60.0,0.0,0.0
1993,61.0,7.0,40.0,0.0,0.0
1994,73.0,0.0,90.0,1.0,0.0
1995,58.0,30.0,60.0,0.0,0.0
1996,58.0,0.0,60.0,1.0,0.0
1997,60.0,0.0,60.0,0.0,0.0
1998,56.0,30.0,60.0,1.0,0.0
1999,56.0,0.0,60.0,0.0,0.0
2000,60.0,15.0,40.0,1.0,0.0
2001,72.0,15.0,30.0,0.0,0.0
2002,73.0,0.0,15.0,0.0,0.0
2003,55.0,15.0,40.0,0.0,0.0
2004,55.0,30.0,60.0,1.0,0.0
2005,61.0,0.0,120.0,1.0,0.0
2006,73.0,0.0,30.0,0.0,0.0
2007,73.0,0.0,90.0,1.0,0.0
2008,58.0,15.0,30.0,0.0,0.0
2009,70.0,0.0,30.0,0.0,0.0
2010,61.0,15.0,40.0,0.0,0.0
2011,58.0,11.0,30.0,0.0,0.0
2012,79.0,0.0,30.0,0.0,0.0
2013,58.0,4.0,40.0,1.0,0.0
2014,67.0,0.0,30.0,0.0,0.0
2015,79.0,0.0,30.0,0.0,0.0
2016,55.0,0.0,60.0,1.0,0.0
2017,73.0,0.0,30.0,1.0,0.0
2018,58.0,15.0,15.0,0.0,0.0
2019,55.0,30.0,30.0,0.0,0.0
2020,70.0,5.0,60.0,1.0,0.0
2021,75.0,10.0,30.0,0.0,0.0
2022,53.0,15.0,15.0,0.0,0.0
2023,56.0,0.0,15.0,0.0,0.0
2024,73.0,0.0,30.0,1.0,0.0
2025,56.0,5.0,60.0,1.0,0.0
2026,82.0,30.0,30.0,0.0,0.0
2027,53.0,0.0,60.0,1.0,0.0
2028,68.0,10.0,60.0,1.0,0.0
2029,70.0,0.0,30.0,0.0,0.0
2030,51.0,0.0,210.0,1.0,0.0
2031,51.0,15.0,90.0,0.0,0.0
2032,55.0,15.0,90.0,0.0,0.0
2033,73.0,0.0,210.0,1.0,0.0
2034,79.0,45.0,15.0,0.0,0.0
2035,58.0,7.0,210.0,1.0,0.0
2036,61.0,0.0,90.0,0.0,0.0
2037,67.0,8.0,210.0,1.0,0.0
2038,82.0,30.0,30.0,0.0,0.0
2039,80.0,0.0,30.0,0.0,0.0
2040,82.0,30.0,30.0,0.0,0.0
2041,51.0,15.0,60.0,0.0,0.0
2042,79.0,30.0,30.0,0.0,0.0
2043,80.0,15.0,30.0,0.0,0.0
2044,77.0,0.0,30.0,0.0,0.0
2045,79.0,30.0,30.0,0.0,0.0
2046,51.0,15.0,15.0,0.0,0.0
2047,67.0,6.0,180.0,1.0,0.0
2048,51.0,0.0,90.0,0.0,0.0
2049,58.0,0.0,150.0,1.0,0.0
2050,75.0,30.0,30.0,0.0,0.0
2051,55.0,15.0,90.0,0.0,0.0
2052,61.0,30.0,120.0,0.0,0.0
2053,73.0,0.0,150.0,1.0,0.0
2054,51.0,15.0,150.0,1.0,0.0
2055,77.0,30.0,30.0,0.0,0.0
2056,73.0,15.0,30.0,0.0,0.0
2057,75.0,0.0,30.0,0.0,0.0
2058,72.0,0.0,30.0,0.0,0.0
2059,51.0,9.0,40.0,0.0,0.0
2060,73.0,30.0,30.0,0.0,0.0
2061,63.0,13.0,40.0,1.0,0.0
2062,51.0,0.0,60.0,1.0,0.0
2063,51.0,15.0,40.0,0.0,0.0
2064,58.0,0.0,60.0,1.0,0.0
2065,70.0,2.0,30.0,0.0,0.0
2066,73.0,30.0,60.0,1.0,0.0
2067,73.0,0.0,30.0,0.0,0.0
2068,63.0,12.0,120.0,1.0,0.0
2069,60.0,0.0,120.0,1.0,0.0
2070,56.0,30.0,120.0,1.0,0.0
2071,72.0,30.0,30.0,0.0,0.0
2072,60.0,3.0,90.0,0.0,0.0
2073,72.0,0.0,120.0,1.0,0.0
2074,56.0,0.0,90.0,0.0,0.0
2075,75.0,30.0,30.0,0.0,0.0
2076,73.0,15.0,30.0,0.0,0.0
2077,72.0,0.0,30.0,0.0,0.0
2078,65.0,39.0,40.0,1.0,0.0
2079,58.0,3.0,90.0,0.0,0.0
2080,49.0,0.0,90.0,0.0,0.0
2081,61.0,0.0,30.0,1.0,0.0
2082,77.0,0.0,30.0,0.0,0.0
2083,70.0,6.0,30.0,1.0,0.0
2084,53.0,0.0,90.0,0.0,0.0
2085,49.0,0.0,30.0,1.0,0.0
2086,73.0,15.0,40.0,0.0,0.0
2087,65.0,12.0,60.0,1.0,0.0
2088,61.0,30.0,60.0,1.0,0.0
2089,49.0,0.0,60.0,1.0,0.0
2090,72.0,15.0,30.0,0.0,0.0
2091,70.0,0.0,60.0,1.0,0.0
2092,70.0,0.0,30.0,0.0,0.0
2093,63.0,16.0,240.0,1.0,0.0
2094,75.0,30.0,30.0,0.0,0.0
2095,56.0,0.0,90.0,0.0,0.0
2096,60.0,30.0,120.0,1.0,0.0
2097,51.0,0.0,240.0,1.0,0.0
2098,51.0,0.0,90.0,0.0,0.0
2099,60.0,30.0,90.0,0.0,0.0
2100,68.0,0.0,120.0,1.0,0.0
2101,72.0,30.0,30.0,0.0,0.0
2102,70.0,0.0,30.0,0.0,0.0
2103,68.0,0.0,30.0,0.0,0.0
2104,67.0,0.0,120.0,1.0,0.0
2105,58.0,0.0,120.0,0.0,0.0
2106,51.0,30.0,120.0,0.0,0.0
2107,55.0,0.0,120.0,0.0,0.0
2108,58.0,0.0,120.0,1.0,0.0
2109,73.0,30.0,30.0,0.0,0.0
2110,70.0,30.0,30.0,0.0,0.0
2111,68.0,14.0,30.0,0.0,0.0
2112,67.0,0.0,30.0,0.0,0.0
2113,48.0,0.0,120.0,0.0,0.0
2114,44.0,0.0,120.0,0.0,0.0
2115,68.0,30.0,120.0,1.0,0.0
2116,56.0,0.0,120.0,0.0,0.0
2117,44.0,0.0,120.0,1.0,0.0
2118,56.0,16.0,90.0,1.0,0.0
2119,68.0,30.0,30.0,0.0,0.0
2120,63.0,14.0,90.0,1.0,0.0
2121,63.0,30.0,30.0,0.0,0.0
2122,65.0,0.0,30.0,0.0,0.0
2123,67.0,0.0,30.0,0.0,0.0
2124,68.0,30.0,30.0,0.0,0.0
2125,70.0,30.0,30.0,0.0,0.0
2126,72.0,30.0,30.0,0.0,0.0
2127,72.0,0.0,60.0,1.0,0.0
2128,73.0,30.0,30.0,0.0,0.0
2129,75.0,0.0,60.0,1.0,0.0
2130,75.0,30.0,30.0,0.0,0.0
2131,72.0,30.0,30.0,0.0,0.0
2132,73.0,30.0,60.0,1.0,0.0
2133,73.0,30.0,30.0,0.0,0.0
2134,70.0,0.0,30.0,0.0,0.0
2135,72.0,30.0,30.0,0.0,0.0
2136,72.0,30.0,60.0,1.0,0.0
2137,68.0,0.0,30.0,0.0,0.0
2138,63.0,8.0,60.0,1.0,0.0
2139,63.0,0.0,30.0,0.0,0.0
2140,70.0,0.0,30.0,0.0,0.0
2141,70.0,22.0,30.0,1.0,0.0
2142,67.0,30.0,30.0,0.0,0.0
2143,68.0,0.0,60.0,0.0,0.0
2144,68.0,0.0,180.0,1.0,0.0
2145,65.0,29.0,30.0,0.0,0.0
2146,65.0,1.0,60.0,1.0,0.0
2147,67.0,30.0,30.0,0.0,0.0
2148,63.0,6.0,60.0,1.0,0.0
2149,63.0,24.0,30.0,0.0,0.0
2150,65.0,30.0,30.0,0.0,0.0
2151,61.0,12.0,60.0,1.0,0.0
2152,61.0,18.0,30.0,0.0,0.0
2153,63.0,30.0,30.0,0.0,0.0
2154,60.0,9.0,60.0,1.0,0.0
2155,72.0,0.0,30.0,0.0,0.0
2156,72.0,21.0,30.0,1.0,0.0
2157,60.0,0.0,30.0,0.0,0.0
2158,68.0,0.0,30.0,0.0,0.0
2159,68.0,30.0,30.0,1.0,0.0
2160,61.0,0.0,30.0,0.0,0.0
2161,58.0,12.0,180.0,1.0,0.0
2162,58.0,0.0,180.0,0.0,0.0
2163,73.0,30.0,30.0,0.0,0.0
2164,73.0,30.0,60.0,1.0,0.0
2165,75.0,0.0,30.0,0.0,0.0
2166,72.0,30.0,30.0,0.0,0.0
2167,72.0,30.0,60.0,1.0,0.0
2168,73.0,0.0,30.0,0.0,0.0
2169,70.0,18.0,30.0,0.0,0.0
2170,70.0,0.0,60.0,1.0,0.0
2171,72.0,23.0,30.0,0.0,0.0
2172,61.0,7.0,30.0,1.0,0.0
2173,68.0,0.0,60.0,1.0,0.0
2174,61.0,0.0,30.0,0.0,0.0
2175,68.0,23.0,30.0,0.0,0.0
2176,58.0,7.0,30.0,1.0,0.0
2177,58.0,30.0,30.0,0.0,0.0
2178,70.0,0.0,30.0,0.0,0.0
2179,63.0,27.0,60.0,1.0,0.0
2180,67.0,0.0,180.0,1.0,0.0
2181,67.0,0.0,180.0,0.0,0.0
2182,63.0,30.0,30.0,0.0,0.0
2183,65.0,3.0,30.0,0.0,0.0
2184,61.0,3.0,60.0,1.0,0.0
2185,61.0,27.0,30.0,0.0,0.0
2186,63.0,30.0,30.0,0.0,0.0
2187,60.0,6.0,60.0,1.0,0.0
2188,60.0,24.0,30.0,0.0,0.0
2189,61.0,30.0,30.0,0.0,0.0
2190,58.0,0.0,60.0,1.0,0.0
2191,70.0,15.0,30.0,0.0,0.0
2192,70.0,0.0,30.0,1.0,0.0
2193,51.0,15.0,40.0,0.0,0.0
2194,58.0,0.0,30.0,0.0,0.0
2195,51.0,0.0,60.0,1.0,0.0
2196,67.0,0.0,30.0,0.0,0.0
2197,67.0,30.0,30.0,1.0,0.0
2198,60.0,0.0,30.0,0.0,0.0
2199,56.0,0.0,60.0,0.0,0.0
2200,56.0,30.0,60.0,1.0,0.0
2201,72.0,0.0,360.0,1.0,0.0
2202,72.0,30.0,30.0,0.0,0.0
2203,73.0,0.0,30.0,0.0,0.0
2204,70.0,15.0,30.0,0.0,0.0
2205,63.0,12.0,40.0,0.0,0.0
2206,55.0,0.0,30.0,0.0,0.0
2207,55.0,30.0,60.0,1.0,0.0
2208,72.0,0.0,30.0,0.0,0.0
2209,53.0,30.0,60.0,1.0,0.0
2210,56.0,15.0,240.0,0.0,0.0
2211,53.0,15.0,40.0,0.0,0.0
2212,68.0,15.0,30.0,0.0,0.0
2213,80.0,0.0,30.0,0.0,0.0
2214,51.0,0.0,60.0,1.0,0.0
2215,51.0,30.0,60.0,0.0,0.0
2216,56.0,0.0,60.0,1.0,0.0
2217,79.0,30.0,30.0,0.0,0.0
2218,80.0,0.0,30.0,0.0,0.0
2219,49.0,30.0,180.0,0.0,0.0
2220,49.0,0.0,180.0,1.0,0.0
2221,61.0,30.0,60.0,1.0,0.0
2222,77.0,30.0,30.0,0.0,0.0
2223,79.0,0.0,30.0,0.0,0.0
2224,60.0,0.0,60.0,1.0,0.0
2225,75.0,26.0,30.0,0.0,0.0
2226,56.0,4.0,60.0,1.0,0.0
2227,77.0,15.0,30.0,0.0,0.0
2228,73.0,15.0,30.0,0.0,0.0
2229,58.0,15.0,40.0,0.0,0.0
2230,58.0,0.0,60.0,1.0,0.0
2231,73.0,0.0,60.0,1.0,0.0
2232,65.0,3.0,240.0,1.0,0.0
2233,75.0,0.0,30.0,0.0,0.0
2234,53.0,0.0,30.0,1.0,0.0
2235,72.0,0.0,60.0,1.0,0.0
2236,56.0,0.0,30.0,0.0,0.0
2237,56.0,30.0,60.0,1.0,0.0
2238,72.0,30.0,30.0,0.0,0.0
2239,53.0,0.0,30.0,0.0,0.0
2240,73.0,0.0,30.0,0.0,0.0
2241,49.0,0.0,30.0,0.0,0.0
2242,49.0,0.0,30.0,1.0,0.0
2243,70.0,0.0,360.0,1.0,0.0
2244,55.0,15.0,40.0,0.0,0.0
2245,55.0,0.0,60.0,1.0,0.0
2246,70.0,15.0,30.0,0.0,0.0
2247,82.0,30.0,30.0,0.0,0.0
2248,53.0,0.0,30.0,0.0,0.0
2249,63.0,27.0,30.0,0.0,0.0
2250,53.0,0.0,60.0,1.0,0.0
2251,80.0,0.0,30.0,0.0,0.0
2252,82.0,30.0,30.0,0.0,0.0
2253,67.0,5.0,60.0,1.0,0.0
2254,51.0,10.0,40.0,0.0,0.0
2255,58.0,30.0,120.0,0.0,0.0
2256,79.0,15.0,30.0,0.0,0.0
2257,51.0,0.0,60.0,1.0,0.0
2258,80.0,30.0,30.0,0.0,0.0
2259,65.0,4.0,60.0,1.0,0.0
2260,49.0,0.0,30.0,0.0,0.0
2261,58.0,0.0,30.0,1.0,0.0
2262,49.0,0.0,60.0,1.0,0.0
2263,77.0,26.0,30.0,0.0,0.0
2264,79.0,0.0,30.0,0.0,0.0
2265,55.0,0.0,30.0,1.0,0.0
2266,63.0,26.0,360.0,1.0,0.0
2267,48.0,0.0,180.0,1.0,0.0
2268,60.0,0.0,60.0,1.0,0.0
2269,48.0,15.0,150.0,0.0,0.0
2270,60.0,15.0,40.0,0.0,0.0
2271,75.0,15.0,30.0,0.0,0.0
2272,77.0,30.0,30.0,0.0,0.0
2273,58.0,0.0,60.0,1.0,0.0
2274,58.0,15.0,40.0,0.0,0.0
2275,73.0,15.0,30.0,0.0,0.0
2276,75.0,30.0,30.0,0.0,0.0
2277,56.0,0.0,60.0,1.0,0.0
2278,56.0,0.0,40.0,0.0,0.0
2279,72.0,0.0,60.0,1.0,0.0
2280,72.0,15.0,30.0,0.0,0.0
2281,73.0,30.0,30.0,0.0,0.0
2282,55.0,0.0,60.0,1.0,0.0
2283,51.0,0.0,30.0,0.0,0.0
2284,55.0,0.0,30.0,0.0,0.0
2285,51.0,0.0,30.0,1.0,0.0
2286,70.0,15.0,30.0,0.0,0.0
2287,70.0,0.0,60.0,1.0,0.0
2288,48.0,15.0,15.0,0.0,0.0
2289,48.0,30.0,30.0,1.0,0.0
2290,72.0,0.0,30.0,0.0,0.0
2291,68.0,15.0,30.0,0.0,0.0
2292,53.0,15.0,40.0,0.0,0.0
2293,53.0,0.0,60.0,1.0,0.0
2294,68.0,0.0,360.0,1.0,0.0
2295,80.0,30.0,30.0,0.0,0.0
2296,51.0,15.0,40.0,0.0,0.0
2297,60.0,4.0,60.0,0.0,0.0
2298,51.0,0.0,60.0,1.0,0.0
2299,79.0,15.0,30.0,0.0,0.0
2300,80.0,0.0,30.0,0.0,0.0
2301,65.0,0.0,60.0,1.0,0.0
2302,56.0,30.0,210.0,0.0,0.0
2303,49.0,30.0,60.0,1.0,0.0
2304,77.0,15.0,30.0,0.0,0.0
2305,49.0,15.0,40.0,0.0,0.0
2306,79.0,0.0,30.0,0.0,0.0
2307,63.0,8.0,60.0,1.0,0.0
2308,48.0,30.0,60.0,1.0,0.0
2309,48.0,7.0,40.0,0.0,0.0
2310,75.0,15.0,30.0,0.0,0.0
2311,77.0,0.0,30.0,0.0,0.0
2312,61.0,6.0,180.0,1.0,0.0
2313,73.0,15.0,30.0,0.0,0.0
2314,46.0,15.0,40.0,0.0,0.0
2315,46.0,30.0,60.0,1.0,0.0
2316,75.0,0.0,30.0,0.0,0.0
2317,72.0,0.0,30.0,0.0,0.0
2318,44.0,0.0,30.0,0.0,0.0
2319,44.0,0.0,60.0,1.0,0.0
2320,73.0,30.0,30.0,0.0,0.0
2321,43.0,0.0,60.0,1.0,0.0
2322,70.0,0.0,60.0,1.0,0.0
2323,70.0,0.0,30.0,0.0,0.0
2324,55.0,0.0,60.0,1.0,0.0
2325,51.0,30.0,60.0,0.0,0.0
2326,43.0,24.0,30.0,0.0,0.0
2327,72.0,0.0,30.0,0.0,0.0
2328,68.0,25.0,40.0,1.0,0.0
2329,68.0,5.0,30.0,0.0,0.0
2330,44.0,0.0,60.0,0.0,0.0
2331,41.0,0.0,30.0,0.0,0.0
2332,41.0,0.0,60.0,1.0,0.0
2333,56.0,30.0,60.0,1.0,0.0
2334,72.0,0.0,60.0,1.0,0.0
2335,70.0,0.0,30.0,0.0,0.0
2336,67.0,30.0,30.0,0.0,0.0
2337,73.0,0.0,90.0,1.0,0.0
2338,58.0,0.0,120.0,1.0,0.0
2339,67.0,16.0,150.0,1.0,0.0
2340,39.0,0.0,120.0,1.0,0.0
2341,46.0,0.0,90.0,0.0,0.0
2342,49.0,15.0,90.0,0.0,0.0
2343,39.0,0.0,90.0,0.0,0.0
2344,68.0,30.0,30.0,0.0,0.0
2345,70.0,15.0,30.0,0.0,0.0
2346,72.0,30.0,30.0,0.0,0.0
2347,73.0,14.0,30.0,1.0,0.0
2348,46.0,0.0,60.0,0.0,0.0
2349,73.0,0.0,30.0,0.0,0.0
2350,39.0,0.0,60.0,0.0,0.0
2351,51.0,0.0,120.0,1.0,0.0
2352,51.0,15.0,60.0,0.0,0.0
2353,58.0,0.0,30.0,1.0,0.0
2354,75.0,15.0,30.0,0.0,0.0
2355,63.0,7.0,40.0,1.0,0.0
2356,73.0,45.0,60.0,1.0,0.0
2357,58.0,0.0,60.0,1.0,0.0
2358,77.0,8.0,30.0,0.0,0.0
2359,39.0,0.0,15.0,0.0,0.0
2360,46.0,0.0,15.0,0.0,0.0
2361,51.0,0.0,15.0,0.0,0.0
2362,79.0,15.0,15.0,0.0,0.0
2363,63.0,43.0,120.0,1.0,0.0
2364,72.0,0.0,90.0,1.0,0.0
2365,80.0,45.0,40.0,0.0,0.0
2366,51.0,0.0,90.0,0.0,0.0
2367,44.0,0.0,90.0,0.0,0.0
2368,48.0,0.0,90.0,0.0,0.0
2369,56.0,0.0,90.0,1.0,0.0
2370,68.0,0.0,40.0,0.0,0.0
2371,80.0,0.0,40.0,0.0,0.0
2372,72.0,2.0,40.0,0.0,0.0
2373,65.0,52.0,40.0,1.0,0.0
2374,53.0,0.0,30.0,1.0,0.0
2375,56.0,0.0,30.0,1.0,0.0
2376,53.0,0.0,90.0,0.0,0.0
2377,72.0,8.0,30.0,1.0,0.0
2378,41.0,15.0,90.0,0.0,0.0
2379,65.0,0.0,60.0,1.0,0.0
2380,72.0,105.0,60.0,1.0,0.0
2381,56.0,0.0,30.0,1.0,0.0
2382,80.0,15.0,40.0,0.0,0.0
2383,72.0,0.0,40.0,0.0,0.0
2384,68.0,0.0,40.0,0.0,0.0
2385,53.0,0.0,60.0,1.0,0.0
2386,65.0,6.0,120.0,1.0,0.0
2387,49.0,90.0,120.0,1.0,0.0
2388,49.0,0.0,90.0,0.0,0.0
2389,37.0,0.0,90.0,0.0,0.0
2390,56.0,0.0,120.0,1.0,0.0
2391,70.0,0.0,240.0,1.0,0.0
2392,77.0,9.0,40.0,0.0,0.0
2393,70.0,0.0,60.0,0.0,0.0
2394,80.0,0.0,60.0,0.0,0.0
2395,63.0,10.0,90.0,1.0,0.0
2396,55.0,0.0,120.0,1.0,0.0
2397,51.0,30.0,120.0,1.0,0.0
2398,39.0,0.0,90.0,0.0,0.0
2399,51.0,15.0,90.0,0.0,0.0
2400,70.0,5.0,30.0,0.0,0.0
2401,75.0,0.0,40.0,0.0,0.0
2402,79.0,0.0,30.0,0.0,0.0
2403,63.0,7.0,120.0,1.0,0.0
2404,72.0,30.0,30.0,0.0,0.0
2405,68.0,0.0,120.0,1.0,0.0
2406,80.0,0.0,30.0,0.0,0.0
2407,44.0,15.0,90.0,1.0,0.0
2408,56.0,30.0,120.0,1.0,0.0
2409,32.0,8.0,90.0,0.0,0.0
2410,44.0,0.0,90.0,0.0,0.0
2411,68.0,30.0,30.0,0.0,0.0
2412,67.0,0.0,30.0,0.0,0.0
2413,68.0,0.0,30.0,0.0,0.0
2414,56.0,0.0,60.0,0.0,0.0
2415,70.0,30.0,30.0,0.0,0.0
2416,44.0,15.0,60.0,0.0,0.0
2417,68.0,15.0,30.0,0.0,0.0
2418,67.0,15.0,30.0,0.0,0.0
2419,68.0,30.0,30.0,0.0,0.0
2420,56.0,0.0,15.0,0.0,0.0
2421,44.0,15.0,15.0,0.0,0.0
2422,56.0,15.0,30.0,0.0,0.0
2423,44.0,15.0,40.0,0.0,0.0
2424,32.0,0.0,40.0,0.0,0.0
2425,68.0,30.0,30.0,0.0,0.0
2426,58.0,0.0,30.0,0.0,0.0
2427,34.0,30.0,30.0,0.0,0.0
2428,46.0,0.0,30.0,0.0,0.0
2429,68.0,30.0,30.0,0.0,0.0
2430,48.0,0.0,30.0,0.0,0.0
2431,60.0,0.0,30.0,0.0,0.0
2432,36.0,30.0,30.0,0.0,0.0
2433,68.0,30.0,30.0,0.0,0.0
2434,61.0,30.0,30.0,0.0,0.0
2435,37.0,0.0,30.0,0.0,0.0
2436,49.0,0.0,30.0,0.0,0.0
2437,68.0,15.0,30.0,0.0,0.0
2438,63.0,45.0,15.0,0.0,0.0
2439,39.0,30.0,120.0,0.0,0.0
2440,51.0,0.0,120.0,0.0,0.0
2441,68.0,30.0,30.0,0.0,0.0
2442,67.0,30.0,30.0,0.0,0.0
2443,68.0,0.0,30.0,0.0,0.0
2444,44.0,15.0,60.0,0.0,0.0
2445,56.0,0.0,60.0,0.0,0.0
2446,70.0,30.0,30.0,0.0,0.0
2447,68.0,15.0,30.0,0.0,0.0
2448,67.0,15.0,30.0,0.0,0.0
2449,68.0,0.0,30.0,0.0,0.0
2450,44.0,15.0,15.0,0.0,0.0
2451,56.0,30.0,30.0,0.0,0.0
2452,60.0,15.0,30.0,0.0,0.0
2453,36.0,15.0,40.0,0.0,0.0
2454,48.0,0.0,40.0,0.0,0.0
2455,68.0,30.0,30.0,0.0,0.0
2456,49.0,30.0,30.0,0.0,0.0
2457,37.0,0.0,30.0,0.0,0.0
2458,61.0,0.0,30.0,0.0,0.0
2459,68.0,30.0,30.0,0.0,0.0
2460,39.0,15.0,30.0,0.0,0.0
2461,51.0,15.0,40.0,0.0,0.0
2462,63.0,0.0,30.0,0.0,0.0
2463,68.0,30.0,30.0,0.0,0.0
2464,65.0,15.0,30.0,0.0,0.0
2465,53.0,15.0,40.0,0.0,0.0
2466,41.0,0.0,40.0,0.0,0.0
2467,68.0,15.0,30.0,0.0,0.0
2468,54.0,15.0,90.0,0.0,0.0
2469,66.0,45.0,15.0,0.0,0.0
2470,42.0,0.0,90.0,0.0,0.0
2471,68.0,30.0,30.0,0.0,0.0
2472,67.0,15.0,30.0,0.0,0.0
2473,68.0,30.0,30.0,0.0,0.0
2474,44.0,15.0,60.0,0.0,0.0
2475,56.0,0.0,60.0,0.0,0.0
2476,70.0,30.0,30.0,0.0,0.0
2477,68.0,15.0,30.0,0.0,0.0
2478,67.0,15.0,30.0,0.0,0.0
2479,68.0,30.0,30.0,0.0,0.0
2480,56.0,0.0,15.0,0.0,0.0
2481,44.0,15.0,15.0,0.0,0.0
2482,42.0,15.0,40.0,0.0,0.0
2483,54.0,0.0,40.0,0.0,0.0
2484,72.0,15.0,30.0,0.0,0.0
2485,68.0,30.0,30.0,0.0,0.0
2486,41.0,0.0,30.0,0.0,0.0
2487,53.0,15.0,40.0,0.0,0.0
2488,73.0,15.0,30.0,0.0,0.0
2489,68.0,30.0,30.0,0.0,0.0
2490,51.0,30.0,30.0,0.0,0.0
2491,39.0,0.0,30.0,0.0,0.0
2492,72.0,0.0,30.0,0.0,0.0
2493,75.0,0.0,30.0,0.0,0.0
2494,68.0,30.0,30.0,0.0,0.0
2495,37.0,0.0,30.0,0.0,0.0
2496,49.0,0.0,40.0,0.0,0.0
2497,77.0,0.0,30.0,0.0,0.0
2498,73.0,15.0,30.0,0.0,0.0
2499,68.0,113.0,15.0,0.0,0.0
2500,75.0,0.0,120.0,0.0,0.0
2501,78.0,0.0,120.0,0.0,0.0
2502,68.0,38.0,120.0,0.0,0.0
2503,48.0,0.0,120.0,0.0,0.0
2504,36.0,0.0,120.0,0.0,0.0
2505,56.0,5.0,40.0,2.0,0.0
2506,63.0,16.0,40.0,2.0,0.0
2507,48.0,0.0,40.0,2.0,0.0
2508,66.0,1.0,40.0,2.0,0.0
2509,63.0,53.0,40.0,2.0,0.0
2510,56.0,4.0,40.0,2.0,0.0
2511,66.0,0.0,40.0,2.0,0.0
2512,48.0,1.0,40.0,2.0,0.0
2513,63.0,13.0,40.0,2.0,0.0
2514,66.0,0.0,40.0,2.0,0.0
2515,56.0,0.0,40.0,2.0,0.0
2516,48.0,41.0,40.0,2.0,0.0
2517,66.0,2.0,60.0,2.0,0.0
2518,63.0,2.0,60.0,2.0,0.0
2519,49.0,1.0,60.0,2.0,0.0
2520,56.0,10.0,90.0,2.0,0.0
2521,56.0,15.0,210.0,0.0,0.0
2522,75.0,15.0,15.0,0.0,0.0
2523,76.0,15.0,15.0,0.0,0.0
2524,78.0,10.0,15.0,0.0,0.0
2525,80.0,5.0,15.0,0.0,0.0
2526,49.0,0.0,30.0,0.0,0.0
2527,75.0,13.0,15.0,0.0,0.0
2528,49.0,2.0,15.0,2.0,0.0
2529,66.0,2.0,30.0,2.0,0.0
2530,63.0,6.0,20.0,2.0,0.0
2531,76.0,4.0,15.0,0.0,0.0
2532,56.0,3.0,15.0,2.0,0.0
2533,72.0,15.0,15.0,0.0,0.0
2534,61.0,3.0,120.0,2.0,0.0
2535,49.0,1.0,120.0,2.0,0.0
2536,64.0,73.0,120.0,2.0,0.0
2537,49.0,15.0,30.0,0.0,0.0
2538,73.0,15.0,15.0,0.0,0.0
2539,56.0,1.0,120.0,2.0,0.0
2540,67.0,0.0,15.0,0.0,0.0
2541,68.0,15.0,15.0,0.0,0.0
2542,63.0,15.0,15.0,0.0,0.0
2543,64.0,15.0,15.0,0.0,0.0
2544,49.0,0.0,30.0,0.0,0.0
2545,60.0,0.0,15.0,0.0,0.0
2546,61.0,15.0,15.0,0.0,0.0
2547,56.0,2.0,15.0,0.0,0.0
2548,55.0,44.0,120.0,0.0,0.0
2549,52.0,0.0,120.0,0.0,0.0
2550,49.0,0.0,120.0,0.0,0.0
2551,49.0,2.0,40.0,2.0,0.0
2552,64.0,19.0,20.0,2.0,0.0
2553,55.0,2.0,40.0,2.0,0.0
2554,70.0,17.0,40.0,2.0,0.0
2555,64.0,0.0,60.0,2.0,0.0
2556,55.0,4.0,40.0,2.0,0.0
2557,49.0,1.0,40.0,2.0,0.0
2558,70.0,27.0,40.0,2.0,0.0
2559,55.0,2.0,15.0,2.0,0.0
2560,70.0,0.0,15.0,2.0,0.0
2561,64.0,25.0,15.0,2.0,0.0
2562,49.0,1.0,15.0,2.0,0.0
2563,55.0,4.0,15.0,2.0,0.0
2564,64.0,7.0,20.0,2.0,0.0
2565,70.0,3.0,20.0,2.0,0.0
2566,49.0,32.0,30.0,2.0,0.0
2567,55.0,2.0,120.0,2.0,0.0
2568,51.0,1.0,210.0,0.0,0.0
2569,63.0,1.0,90.0,2.0,0.0
2570,70.0,2.0,120.0,2.0,0.0
2571,47.0,3.0,90.0,2.0,0.0
2572,70.0,15.0,15.0,0.0,0.0
2573,71.0,15.0,15.0,0.0,0.0
2574,73.0,15.0,15.0,0.0,0.0
2575,47.0,0.0,30.0,0.0,0.0
2576,75.0,15.0,15.0,0.0,0.0
2577,70.0,11.0,15.0,0.0,0.0
2578,71.0,11.0,15.0,0.0,0.0
2579,67.0,15.0,15.0,0.0,0.0
2580,56.0,4.0,120.0,2.0,0.0
2581,68.0,15.0,15.0,0.0,0.0
2582,47.0,0.0,40.0,0.0,0.0
2583,68.0,9.0,90.0,2.0,0.0
2584,63.0,0.0,90.0,2.0,0.0
2585,47.0,10.0,90.0,2.0,0.0
2586,62.0,15.0,15.0,0.0,0.0
2587,63.0,15.0,15.0,0.0,0.0
2588,58.0,15.0,15.0,0.0,0.0
2589,47.0,0.0,40.0,0.0,0.0
2590,59.0,15.0,15.0,0.0,0.0
2591,55.0,6.0,15.0,0.0,0.0
2592,56.0,0.0,15.0,0.0,0.0
2593,51.0,44.0,15.0,0.0,0.0
2594,47.0,1.0,40.0,2.0,0.0
2595,63.0,0.0,40.0,2.0,0.0
2596,51.0,0.0,120.0,0.0,0.0
2597,47.0,0.0,120.0,0.0,0.0
2598,57.0,29.0,120.0,0.0,0.0
2599,68.0,42.0,60.0,2.0,0.0
2600,57.0,12.0,40.0,2.0,0.0
2601,66.0,2.0,40.0,2.0,0.0
2602,47.0,16.0,40.0,2.0,0.0
2603,63.0,0.0,40.0,2.0,0.0
2604,57.0,3.0,40.0,2.0,0.0
2605,47.0,55.0,40.0,2.0,0.0
2606,63.0,4.0,40.0,2.0,0.0
2607,57.0,5.0,30.0,2.0,0.0
2608,66.0,7.0,40.0,2.0,0.0
2609,66.0,8.0,60.0,2.0,0.0
2610,63.0,3.0,60.0,2.0,0.0
2611,47.0,6.0,40.0,2.0,0.0
2612,57.0,33.0,60.0,2.0,0.0
2613,64.0,8.0,90.0,2.0,0.0
2614,71.0,1.0,90.0,2.0,0.0
2615,56.0,6.0,60.0,2.0,0.0
2616,47.0,10.0,90.0,2.0,0.0
2617,52.0,0.0,210.0,0.0,0.0
2618,66.0,15.0,15.0,0.0,0.0
2619,68.0,15.0,15.0,0.0,0.0
2620,69.0,9.0,15.0,0.0,0.0
2621,71.0,4.0,15.0,0.0,0.0
2622,47.0,6.0,30.0,0.0,0.0
2623,66.0,0.0,15.0,0.0,0.0
2624,68.0,2.0,30.0,2.0,0.0
2625,56.0,9.0,20.0,2.0,0.0
2626,47.0,4.0,15.0,2.0,0.0
2627,68.0,0.0,15.0,0.0,0.0
2628,59.0,1.0,15.0,2.0,0.0
2629,63.0,15.0,15.0,0.0,0.0
2630,59.0,3.0,40.0,2.0,0.0
2631,47.0,1.0,40.0,2.0,0.0
2632,64.0,0.0,40.0,2.0,0.0
2633,47.0,0.0,30.0,0.0,0.0
2634,56.0,6.0,30.0,2.0,0.0
2635,64.0,15.0,15.0,0.0,0.0
2636,58.0,5.0,15.0,0.0,0.0
2637,59.0,15.0,15.0,0.0,0.0
2638,55.0,15.0,15.0,0.0,0.0
2639,59.0,2.0,60.0,2.0,0.0
2640,47.0,3.0,60.0,2.0,0.0
2641,64.0,2.0,40.0,2.0,0.0
2642,56.0,5.0,60.0,2.0,0.0
2643,47.0,13.0,30.0,0.0,0.0
2644,56.0,15.0,15.0,0.0,0.0
2645,51.0,0.0,15.0,0.0,0.0
2646,49.0,0.0,15.0,0.0,0.0
2647,52.0,5.0,15.0,0.0,0.0
2648,56.0,75.0,15.0,0.0,0.0
2649,64.0,1.0,120.0,2.0,0.0
2650,46.0,3.0,120.0,2.0,0.0
2651,61.0,39.0,120.0,2.0,0.0
2652,64.0,0.0,120.0,0.0,0.0
2653,54.0,49.0,150.0,2.0,0.0
2654,54.0,26.0,90.0,0.0,0.0
2655,46.0,15.0,60.0,0.0,0.0
2656,61.0,2.0,120.0,0.0,0.0
2657,47.0,4.0,120.0,2.0,0.0
2658,63.0,1.0,120.0,2.0,0.0
2659,59.0,7.0,90.0,2.0,0.0
2660,59.0,0.0,90.0,0.0,0.0
2661,63.0,0.0,90.0,0.0,0.0
2662,47.0,10.0,90.0,0.0,0.0
2663,54.0,30.0,60.0,2.0,0.0
2664,40.0,3.0,120.0,2.0,0.0
2665,68.0,5.0,180.0,2.0,0.0
2666,59.0,1.0,180.0,2.0,0.0
2667,47.0,0.0,120.0,0.0,0.0
2668,56.0,2.0,210.0,0.0,0.0
2669,52.0,3.0,90.0,2.0,0.0
2670,40.0,12.0,90.0,0.0,0.0
2671,67.0,15.0,15.0,0.0,0.0
2672,68.0,15.0,15.0,0.0,0.0
2673,70.0,15.0,15.0,0.0,0.0
2674,71.0,15.0,15.0,0.0,0.0
2675,67.0,12.0,15.0,0.0,0.0
2676,68.0,0.0,15.0,0.0,0.0
2677,64.0,30.0,15.0,0.0,0.0
2678,41.0,4.0,120.0,2.0,0.0
2679,41.0,0.0,90.0,0.0,0.0
2680,50.0,4.0,120.0,2.0,0.0
2681,50.0,0.0,90.0,0.0,0.0
2682,70.0,15.0,15.0,0.0,0.0
2683,71.0,9.0,15.0,0.0,0.0
2684,73.0,15.0,15.0,0.0,0.0
2685,56.0,4.0,60.0,2.0,0.0
2686,71.0,1.0,60.0,2.0,0.0
2687,74.0,15.0,15.0,0.0,0.0
2688,70.0,15.0,15.0,0.0,0.0
2689,71.0,0.0,15.0,0.0,0.0
2690,68.0,30.0,15.0,0.0,0.0
2691,42.0,4.0,180.0,2.0,0.0
2692,54.0,3.0,150.0,2.0,0.0
2693,59.0,6.0,180.0,2.0,0.0
2694,51.0,9.0,120.0,2.0,0.0
2695,51.0,0.0,30.0,0.0,0.0
2696,54.0,15.0,40.0,0.0,0.0
2697,42.0,0.0,40.0,0.0,0.0
2698,77.0,15.0,15.0,0.0,0.0
2699,78.0,0.0,15.0,0.0,0.0
2700,74.0,15.0,15.0,0.0,0.0
2701,75.0,15.0,15.0,0.0,0.0
2702,42.0,15.0,40.0,0.0,0.0
2703,51.0,0.0,30.0,0.0,0.0
2704,47.0,0.0,30.0,0.0,0.0
2705,70.0,15.0,15.0,0.0,0.0
2706,71.0,0.0,15.0,0.0,0.0
2707,67.0,6.0,15.0,0.0,0.0
2708,68.0,15.0,15.0,0.0,0.0
2709,52.0,0.0,40.0,0.0,0.0
2710,42.0,0.0,40.0,0.0,0.0
2711,49.0,0.0,30.0,0.0,0.0
2712,49.0,7.0,60.0,2.0,0.0
2713,63.0,8.0,15.0,0.0,0.0
2714,64.0,9.0,15.0,0.0,0.0
2715,60.0,0.0,15.0,0.0,0.0
2716,63.0,8.0,15.0,2.0,0.0
2717,61.0,56.0,60.0,2.0,0.0
2718,54.0,2.0,40.0,2.0,0.0
2719,42.0,1.0,60.0,2.0,0.0
2720,61.0,15.0,15.0,0.0,0.0
2721,49.0,13.0,30.0,0.0,0.0
2722,42.0,0.0,30.0,0.0,0.0
2723,46.0,0.0,30.0,0.0,0.0
2724,52.0,4.0,60.0,2.0,0.0
2725,56.0,0.0,15.0,0.0,0.0
2726,58.0,10.0,15.0,0.0,0.0
2727,54.0,7.0,15.0,0.0,0.0
2728,47.0,5.0,120.0,2.0,0.0
2729,54.0,1.0,90.0,2.0,0.0
2730,51.0,10.0,90.0,0.0,0.0
2731,59.0,0.0,90.0,0.0,0.0
2732,47.0,0.0,90.0,0.0,0.0
2733,35.0,0.0,90.0,0.0,0.0
2734,51.0,30.0,60.0,2.0,0.0
2735,59.0,11.0,60.0,2.0,0.0
2736,42.0,0.0,15.0,0.0,0.0
2737,54.0,45.0,15.0,0.0,0.0
2738,35.0,15.0,40.0,0.0,0.0
2739,47.0,0.0,40.0,0.0,0.0
2740,59.0,0.0,40.0,0.0,0.0
2741,51.0,0.0,40.0,0.0,0.0
2742,54.0,45.0,15.0,0.0,0.0
2743,42.0,0.0,15.0,0.0,0.0
2744,59.0,0.0,40.0,0.0,0.0
2745,35.0,0.0,40.0,0.0,0.0
2746,47.0,0.0,40.0,0.0,0.0
2747,51.0,15.0,40.0,0.0,0.0
2748,42.0,30.0,15.0,0.0,0.0
2749,54.0,0.0,15.0,0.0,0.0
2750,47.0,60.0,30.0,0.0,0.0
2751,35.0,0.0,30.0,0.0,0.0
2752,51.0,0.0,120.0,0.0,0.0
2753,59.0,30.0,120.0,0.0,0.0
2754,66.0,0.0,90.0,1.0,0.0
2755,35.0,15.0,30.0,0.0,0.0
2756,47.0,0.0,30.0,0.0,0.0
2757,47.0,0.0,90.0,1.0,0.0
2758,59.0,30.0,120.0,1.0,0.0
2759,63.0,17.0,90.0,1.0,0.0
2760,35.0,0.0,30.0,0.0,0.0
2761,47.0,13.0,30.0,0.0,0.0
2762,63.0,3.0,60.0,1.0,0.0
2763,59.0,30.0,60.0,1.0,0.0
2764,66.0,0.0,60.0,1.0,0.0
2765,47.0,12.0,40.0,1.0,0.0
2766,35.0,15.0,30.0,0.0,0.0
2767,47.0,0.0,30.0,0.0,0.0
2768,64.0,3.0,240.0,1.0,0.0
2769,47.0,15.0,30.0,0.0,0.0
2770,35.0,0.0,30.0,0.0,0.0
2771,67.0,30.0,240.0,1.0,0.0
2772,59.0,0.0,240.0,1.0,0.0
2773,47.0,0.0,240.0,1.0,0.0
2774,75.0,0.0,15.0,0.0,0.0
2775,76.0,15.0,15.0,0.0,0.0
2776,78.0,15.0,15.0,0.0,0.0
2777,59.0,0.0,30.0,0.0,0.0
2778,47.0,15.0,30.0,0.0,0.0
2779,79.0,15.0,15.0,0.0,0.0
2780,55.0,0.0,30.0,0.0,0.0
2781,75.0,0.0,15.0,0.0,0.0
2782,76.0,15.0,15.0,0.0,0.0
2783,70.0,15.0,15.0,0.0,0.0
2784,71.0,15.0,15.0,0.0,0.0
2785,52.0,0.0,30.0,0.0,0.0
2786,47.0,15.0,30.0,0.0,0.0
2787,55.0,0.0,30.0,0.0,0.0
2788,66.0,0.0,15.0,0.0,0.0
2789,67.0,15.0,15.0,0.0,0.0
2790,63.0,15.0,15.0,0.0,0.0
2791,52.0,15.0,30.0,0.0,0.0
2792,47.0,0.0,30.0,0.0,0.0
2793,55.0,0.0,30.0,0.0,0.0
2794,64.0,15.0,15.0,0.0,0.0
2795,58.0,0.0,15.0,0.0,0.0
2796,59.0,12.0,15.0,0.0,0.0
2797,55.0,0.0,15.0,0.0,0.0
2798,63.0,11.0,60.0,1.0,0.0
2799,57.0,30.0,120.0,0.0,0.0
2800,57.0,13.0,60.0,1.0,0.0
2801,54.0,0.0,120.0,0.0,0.0
2802,48.0,0.0,40.0,0.0,0.0
2803,36.0,15.0,30.0,0.0,0.0
2804,48.0,4.0,40.0,1.0,0.0
2805,66.0,0.0,30.0,1.0,0.0
2806,63.0,2.0,15.0,1.0,0.0
2807,57.0,0.0,30.0,1.0,0.0
2808,48.0,0.0,30.0,0.0,0.0
2809,48.0,15.0,15.0,1.0,0.0
2810,66.0,0.0,30.0,1.0,0.0
2811,36.0,15.0,30.0,0.0,0.0
2812,63.0,13.0,20.0,1.0,0.0
2813,48.0,2.0,15.0,1.0,0.0
2814,57.0,0.0,30.0,1.0,0.0
2815,66.0,0.0,30.0,1.0,0.0
2816,63.0,14.0,40.0,1.0,0.0
2817,48.0,1.0,40.0,1.0,0.0
2818,66.0,0.0,60.0,1.0,0.0
2819,57.0,30.0,60.0,1.0,0.0
2820,36.0,15.0,30.0,0.0,0.0
2821,48.0,0.0,30.0,0.0,0.0
2822,63.0,4.0,60.0,1.0,0.0
2823,57.0,0.0,60.0,1.0,0.0
2824,36.0,11.0,40.0,0.0,0.0
2825,66.0,0.0,30.0,1.0,0.0
2826,48.0,30.0,60.0,1.0,0.0
2827,48.0,15.0,30.0,0.0,0.0
2828,61.0,29.0,240.0,1.0,0.0
2829,57.0,0.0,240.0,1.0,0.0
2830,49.0,0.0,30.0,0.0,0.0
2831,66.0,1.0,240.0,1.0,0.0
2832,49.0,0.0,240.0,1.0,0.0
2833,37.0,0.0,40.0,0.0,0.0
2834,77.0,15.0,15.0,0.0,0.0
2835,78.0,15.0,15.0,0.0,0.0
2836,80.0,15.0,15.0,0.0,0.0
2837,49.0,0.0,30.0,0.0,0.0
2838,57.0,0.0,30.0,0.0,0.0
2839,54.0,15.0,30.0,0.0,0.0
2840,81.0,15.0,15.0,0.0,0.0
2841,77.0,0.0,15.0,0.0,0.0
2842,78.0,15.0,15.0,0.0,0.0
2843,72.0,15.0,15.0,0.0,0.0
2844,73.0,15.0,15.0,0.0,0.0
2845,61.0,0.0,30.0,0.0,0.0
2846,49.0,0.0,30.0,0.0,0.0
2847,57.0,0.0,30.0,0.0,0.0
2848,68.0,15.0,15.0,0.0,0.0
2849,69.0,15.0,15.0,0.0,0.0
2850,65.0,15.0,15.0,0.0,0.0
2851,49.0,15.0,40.0,0.0,0.0
2852,54.0,0.0,30.0,0.0,0.0
2853,57.0,15.0,30.0,0.0,0.0
2854,66.0,15.0,15.0,0.0,0.0
2855,60.0,0.0,15.0,0.0,0.0
2856,61.0,0.0,15.0,0.0,0.0
2857,57.0,0.0,15.0,0.0,0.0
2858,38.0,15.0,30.0,0.0,0.0
2859,59.0,5.0,60.0,1.0,0.0
2860,50.0,10.0,40.0,1.0,0.0
2861,65.0,30.0,120.0,0.0,0.0
2862,56.0,0.0,60.0,1.0,0.0
2863,50.0,0.0,40.0,0.0,0.0
2864,56.0,0.0,120.0,0.0,0.0
2865,65.0,43.0,15.0,1.0,0.0
2866,50.0,0.0,40.0,1.0,0.0
2867,38.0,15.0,40.0,0.0,0.0
2868,59.0,0.0,60.0,1.0,0.0
2869,68.0,0.0,60.0,1.0,0.0
2870,50.0,0.0,40.0,0.0,0.0
2871,68.0,7.0,30.0,1.0,0.0
2872,38.0,0.0,30.0,0.0,0.0
2873,50.0,0.0,30.0,1.0,0.0
2874,59.0,0.0,30.0,1.0,0.0
2875,50.0,0.0,30.0,0.0,0.0
2876,65.0,19.0,40.0,1.0,0.0
2877,59.0,15.0,15.0,1.0,0.0
2878,65.0,4.0,15.0,1.0,0.0
2879,50.0,0.0,15.0,1.0,0.0
2880,68.0,0.0,15.0,1.0,0.0
2881,38.0,0.0,40.0,0.0,0.0
2882,68.0,15.0,30.0,1.0,0.0
2883,50.0,1.0,15.0,1.0,0.0
2884,65.0,14.0,15.0,1.0,0.0
2885,59.0,0.0,30.0,1.0,0.0
2886,50.0,0.0,40.0,0.0,0.0
2887,56.0,0.0,15.0,1.0,0.0
2888,50.0,0.0,15.0,1.0,0.0
2889,65.0,29.0,30.0,1.0,0.0
2890,71.0,16.0,15.0,1.0,0.0
2891,56.0,0.0,240.0,1.0,0.0
2892,63.0,1.0,240.0,1.0,0.0
2893,39.0,0.0,40.0,0.0,0.0
2894,51.0,15.0,40.0,0.0,0.0
2895,71.0,0.0,240.0,1.0,0.0
2896,51.0,0.0,240.0,1.0,0.0
2897,79.0,15.0,15.0,0.0,0.0
2898,80.0,0.0,15.0,0.0,0.0
2899,82.0,15.0,15.0,0.0,0.0
2900,83.0,15.0,15.0,0.0,0.0
2901,51.0,15.0,40.0,0.0,0.0
2902,56.0,15.0,30.0,0.0,0.0
2903,79.0,0.0,15.0,0.0,0.0
2904,80.0,0.0,15.0,0.0,0.0
2905,74.0,15.0,15.0,0.0,0.0
2906,56.0,15.0,40.0,0.0,0.0
2907,59.0,0.0,40.0,0.0,0.0
2908,75.0,15.0,15.0,0.0,0.0
2909,51.0,0.0,40.0,0.0,0.0
2910,70.0,15.0,15.0,0.0,0.0
2911,71.0,0.0,15.0,0.0,0.0
2912,67.0,15.0,15.0,0.0,0.0
2913,68.0,15.0,15.0,0.0,0.0
2914,51.0,0.0,40.0,0.0,0.0
2915,59.0,14.0,40.0,0.0,0.0
2916,62.0,15.0,15.0,0.0,0.0
2917,63.0,0.0,15.0,0.0,0.0
2918,59.0,15.0,15.0,0.0,0.0
2919,61.0,8.0,120.0,1.0,0.0
2920,40.0,0.0,120.0,0.0,0.0
2921,67.0,5.0,120.0,1.0,0.0
2922,52.0,0.0,120.0,1.0,0.0
2923,56.0,15.0,120.0,0.0,0.0
2924,55.0,45.0,15.0,0.0,0.0
2925,58.0,0.0,15.0,0.0,0.0
2926,58.0,0.0,120.0,1.0,0.0
2927,52.0,0.0,120.0,0.0,0.0
2928,70.0,30.0,30.0,0.0,0.0
2929,67.0,0.0,30.0,0.0,0.0
2930,73.0,0.0,30.0,0.0,0.0
2931,70.0,17.0,30.0,0.0,0.0
2932,71.0,0.0,30.0,0.0,0.0
2933,68.0,0.0,30.0,0.0,0.0
2934,67.0,0.0,15.0,0.0,0.0
2935,70.0,30.0,15.0,0.0,0.0
2936,52.0,0.0,30.0,0.0,0.0
2937,58.0,30.0,30.0,0.0,0.0
2938,55.0,15.0,15.0,0.0,0.0
2939,56.0,0.0,30.0,0.0,0.0
2940,51.0,30.0,30.0,0.0,0.0
2941,59.0,0.0,30.0,0.0,0.0
2942,58.0,0.0,30.0,0.0,0.0
2943,61.0,15.0,30.0,0.0,0.0
2944,49.0,0.0,30.0,0.0,0.0
2945,68.0,26.0,60.0,1.0,0.0
2946,51.0,0.0,60.0,1.0,0.0
2947,47.0,15.0,120.0,0.0,0.0
2948,51.0,15.0,210.0,0.0,0.0
2949,47.0,30.0,30.0,1.0,0.0
2950,59.0,15.0,15.0,0.0,0.0
2951,63.0,0.0,15.0,0.0,0.0
2952,71.0,4.0,30.0,0.0,0.0
2953,68.0,0.0,30.0,0.0,0.0
2954,56.0,0.0,60.0,1.0,0.0
2955,75.0,22.0,30.0,0.0,0.0
2956,71.0,0.0,30.0,0.0,0.0
2957,59.0,1.0,60.0,1.0,0.0
2958,47.0,0.0,60.0,1.0,0.0
2959,63.0,0.0,15.0,1.0,0.0
2960,73.0,0.0,30.0,0.0,0.0
2961,70.0,0.0,30.0,0.0,0.0
2962,71.0,45.0,15.0,0.0,0.0
2963,68.0,0.0,15.0,0.0,0.0
2964,56.0,30.0,30.0,0.0,0.0
2965,47.0,0.0,30.0,0.0,0.0
2966,46.0,0.0,30.0,0.0,0.0
2967,55.0,15.0,30.0,0.0,0.0
2968,58.0,0.0,30.0,0.0,0.0
2969,56.0,15.0,30.0,0.0,0.0
2970,59.0,0.0,30.0,0.0,0.0
2971,44.0,0.0,30.0,0.0,0.0
2972,43.0,0.0,120.0,0.0,0.0
2973,51.0,45.0,120.0,0.0,0.0
2974,51.0,0.0,60.0,1.0,0.0
2975,70.0,24.0,60.0,1.0,0.0
2976,58.0,0.0,15.0,0.0,0.0
2977,61.0,15.0,15.0,0.0,0.0
2978,43.0,15.0,30.0,1.0,0.0
2979,73.0,15.0,15.0,0.0,0.0
2980,70.0,4.0,30.0,0.0,0.0
2981,73.0,0.0,30.0,0.0,0.0
2982,76.0,27.0,30.0,0.0,0.0
2983,58.0,15.0,60.0,1.0,0.0
2984,63.0,2.0,15.0,1.0,0.0
2985,61.0,2.0,60.0,1.0,0.0
2986,43.0,0.0,60.0,1.0,0.0
2987,75.0,0.0,30.0,0.0,0.0
2988,71.0,0.0,30.0,0.0,0.0
2989,70.0,0.0,15.0,0.0,0.0
2990,73.0,0.0,15.0,0.0,0.0
2991,43.0,0.0,30.0,0.0,0.0
2992,55.0,15.0,30.0,0.0,0.0
2993,41.0,0.0,30.0,0.0,0.0
2994,53.0,15.0,15.0,0.0,0.0
2995,56.0,15.0,30.0,0.0,0.0
2996,39.0,0.0,30.0,0.0,0.0
2997,58.0,15.0,30.0,0.0,0.0
2998,55.0,15.0,15.0,0.0,0.0
2999,51.0,0.0,120.0,1.0,0.0
3000,44.0,0.0,15.0,0.0,0.0
3001,44.0,6.0,120.0,1.0,0.0
3002,59.0,9.0,120.0,1.0,0.0
3003,56.0,15.0,15.0,0.0,0.0
3004,71.0,10.0,120.0,1.0,0.0
3005,59.0,15.0,15.0,0.0,0.0
3006,71.0,0.0,15.0,0.0,0.0
3007,58.0,15.0,15.0,0.0,0.0
3008,70.0,0.0,15.0,0.0,0.0
3009,71.0,15.0,15.0,0.0,0.0
3010,59.0,0.0,15.0,0.0,0.0
3011,61.0,0.0,15.0,0.0,0.0
3012,73.0,15.0,15.0,0.0,0.0
3013,59.0,0.0,15.0,0.0,0.0
3014,71.0,15.0,15.0,0.0,0.0
3015,63.0,5.0,15.0,0.0,0.0
3016,75.0,0.0,15.0,0.0,0.0
3017,59.0,0.0,15.0,0.0,0.0
3018,71.0,0.0,15.0,0.0,0.0
3019,42.0,15.0,15.0,0.0,0.0
3020,71.0,1.0,90.0,1.0,0.0
3021,57.0,0.0,120.0,1.0,0.0
3022,63.0,12.0,120.0,1.0,0.0
3023,42.0,0.0,120.0,1.0,0.0
3024,69.0,15.0,15.0,0.0,0.0
3025,57.0,0.0,15.0,0.0,0.0
3026,56.0,15.0,15.0,0.0,0.0
3027,68.0,0.0,15.0,0.0,0.0
3028,69.0,0.0,15.0,0.0,0.0
3029,57.0,15.0,15.0,0.0,0.0
3030,71.0,15.0,15.0,0.0,0.0
3031,59.0,0.0,15.0,0.0,0.0
3032,69.0,0.0,15.0,0.0,0.0
3033,57.0,14.0,15.0,0.0,0.0
3034,61.0,0.0,15.0,0.0,0.0
3035,73.0,15.0,15.0,0.0,0.0
3036,69.0,0.0,15.0,0.0,0.0
3037,57.0,3.0,15.0,0.0,0.0
3038,40.0,15.0,15.0,0.0,0.0
3039,64.0,9.0,60.0,1.0,0.0
3040,71.0,0.0,90.0,1.0,0.0
3041,56.0,15.0,120.0,1.0,0.0
3042,40.0,0.0,120.0,1.0,0.0
3043,56.0,0.0,15.0,0.0,0.0
3044,68.0,15.0,15.0,0.0,0.0
3045,55.0,0.0,15.0,0.0,0.0
3046,67.0,15.0,15.0,0.0,0.0
3047,68.0,6.0,15.0,0.0,0.0
3048,56.0,0.0,15.0,0.0,0.0
3049,70.0,15.0,15.0,0.0,0.0
3050,58.0,0.0,15.0,0.0,0.0
3051,63.0,10.0,120.0,1.0,0.0
3052,56.0,15.0,15.0,0.0,0.0
3053,68.0,0.0,15.0,0.0,0.0
3054,59.0,15.0,15.0,0.0,0.0
3055,71.0,0.0,15.0,0.0,0.0
3056,68.0,0.0,15.0,0.0,0.0
3057,56.0,0.0,15.0,0.0,0.0
3058,52.0,0.0,120.0,1.0,0.0
3059,52.0,15.0,15.0,0.0,0.0
3060,71.0,1.0,120.0,1.0,0.0
3061,56.0,15.0,120.0,1.0,0.0
3062,68.0,0.0,15.0,0.0,0.0
3063,80.0,15.0,15.0,0.0,0.0
3064,67.0,0.0,15.0,0.0,0.0
3065,79.0,15.0,15.0,0.0,0.0
3066,68.0,0.0,15.0,0.0,0.0
3067,80.0,5.0,15.0,0.0,0.0
3068,70.0,0.0,15.0,0.0,0.0
3069,82.0,15.0,15.0,0.0,0.0
3070,62.0,12.0,40.0,1.0,0.0
3071,80.0,0.0,15.0,0.0,0.0
3072,68.0,15.0,15.0,0.0,0.0
3073,83.0,2.0,15.0,0.0,0.0
3074,71.0,0.0,15.0,0.0,0.0
3075,80.0,0.0,15.0,0.0,0.0
3076,68.0,0.0,15.0,0.0,0.0
3077,71.0,7.0,120.0,1.0,0.0
3078,56.0,13.0,180.0,1.0,0.0
3079,63.0,7.0,120.0,1.0,0.0
3080,51.0,15.0,210.0,1.0,0.0
3081,63.0,15.0,15.0,0.0,0.0
3082,62.0,15.0,15.0,0.0,0.0
3083,74.0,0.0,15.0,0.0,0.0
3084,75.0,0.0,15.0,0.0,0.0
3085,63.0,15.0,15.0,0.0,0.0
3086,70.0,15.0,15.0,0.0,0.0
3087,58.0,0.0,15.0,0.0,0.0
3088,59.0,0.0,15.0,0.0,0.0
3089,71.0,15.0,15.0,0.0,0.0
3090,55.0,0.0,15.0,0.0,0.0
3091,67.0,15.0,15.0,0.0,0.0
3092,56.0,0.0,15.0,0.0,0.0
3093,68.0,8.0,15.0,0.0,0.0
3094,51.0,8.0,15.0,0.0,0.0
3095,63.0,0.0,15.0,0.0,0.0
3096,61.0,2.0,60.0,1.0,0.0
3097,64.0,15.0,15.0,0.0,0.0
3098,70.0,9.0,90.0,1.0,0.0
3099,60.0,15.0,15.0,0.0,0.0
3100,61.0,15.0,15.0,0.0,0.0
3101,57.0,0.0,15.0,0.0,0.0
3102,58.0,6.0,15.0,0.0,0.0
3103,55.0,0.0,60.0,1.0,0.0
3104,53.0,0.0,15.0,0.0,0.0
3105,61.0,1.0,30.0,1.0,0.0
3106,70.0,3.0,30.0,1.0,0.0
3107,55.0,11.0,15.0,0.0,0.0
3108,51.0,30.0,15.0,0.0,0.0
3109,56.0,8.0,30.0,1.0,0.0
3110,44.0,60.0,60.0,0.0,0.0
3111,44.0,0.0,60.0,1.0,0.0
3112,68.0,19.0,40.0,1.0,0.0
3113,59.0,3.0,60.0,1.0,0.0
3114,56.0,0.0,60.0,0.0,0.0
3115,71.0,30.0,120.0,0.0,0.0
3116,70.0,44.0,120.0,0.0,0.0
3117,58.0,56.0,60.0,1.0,0.0
3118,56.0,0.0,30.0,1.0,0.0
3119,49.0,20.0,30.0,1.0,0.0
3120,64.0,10.0,40.0,1.0,0.0
3121,37.0,4.0,60.0,0.0,0.0
3122,73.0,0.0,120.0,0.0,0.0
3123,56.0,4.0,60.0,1.0,0.0
3124,71.0,30.0,120.0,0.0,0.0
3125,39.0,0.0,60.0,0.0,0.0
3126,59.0,41.0,60.0,1.0,0.0
3127,63.0,16.0,40.0,1.0,0.0
3128,68.0,15.0,90.0,0.0,0.0
3129,51.0,0.0,60.0,1.0,0.0
3130,63.0,12.0,40.0,1.0,0.0
3131,70.0,0.0,90.0,0.0,0.0
3132,55.0,18.0,30.0,1.0,0.0
3133,39.0,2.0,60.0,1.0,0.0
3134,67.0,30.0,90.0,0.0,0.0
3135,39.0,0.0,90.0,0.0,0.0
3136,58.0,43.0,60.0,1.0,0.0
3137,56.0,45.0,15.0,0.0,0.0
3138,44.0,0.0,90.0,0.0,0.0
3139,44.0,0.0,120.0,1.0,0.0
3140,32.0,0.0,90.0,0.0,0.0
3141,56.0,6.0,90.0,1.0,0.0
3142,68.0,24.0,30.0,0.0,0.0
3143,67.0,30.0,30.0,0.0,0.0
3144,68.0,22.0,30.0,0.0,0.0
3145,70.0,30.0,30.0,0.0,0.0
3146,56.0,15.0,60.0,0.0,0.0
3147,44.0,0.0,60.0,0.0,0.0
3148,68.0,15.0,30.0,0.0,0.0
3149,67.0,15.0,30.0,0.0,0.0
3150,68.0,30.0,30.0,0.0,0.0
3151,44.0,15.0,15.0,0.0,0.0
3152,56.0,0.0,15.0,0.0,0.0
3153,44.0,15.0,40.0,0.0,0.0
3154,32.0,0.0,30.0,0.0,0.0
3155,56.0,15.0,30.0,0.0,0.0
3156,68.0,30.0,30.0,0.0,0.0
3157,68.0,17.0,40.0,1.0,0.0
3158,58.0,0.0,30.0,0.0,0.0
3159,56.0,0.0,30.0,1.0,0.0
3160,46.0,0.0,30.0,0.0,0.0
3161,34.0,0.0,30.0,0.0,0.0
3162,44.0,1.0,30.0,1.0,0.0
3163,68.0,30.0,30.0,0.0,0.0
3164,44.0,0.0,30.0,1.0,0.0
3165,68.0,18.0,40.0,1.0,0.0
3166,48.0,0.0,30.0,0.0,0.0
3167,36.0,0.0,30.0,0.0,0.0
3168,56.0,0.0,30.0,1.0,0.0
3169,60.0,6.0,30.0,0.0,0.0
3170,68.0,30.0,30.0,0.0,0.0
3171,44.0,0.0,30.0,1.0,0.0
3172,49.0,0.0,30.0,0.0,0.0
3173,37.0,0.0,30.0,0.0,0.0
3174,56.0,1.0,30.0,1.0,0.0
3175,68.0,17.0,40.0,1.0,0.0
3176,61.0,0.0,30.0,0.0,0.0
3177,68.0,15.0,30.0,0.0,0.0
3178,68.0,3.0,90.0,1.0,0.0
3179,51.0,15.0,90.0,0.0,0.0
3180,39.0,0.0,90.0,0.0,0.0
3181,63.0,45.0,15.0,0.0,0.0
3182,44.0,0.0,90.0,1.0,0.0
3183,56.0,4.0,90.0,1.0,0.0
3184,68.0,26.0,30.0,0.0,0.0
3185,67.0,12.0,30.0,0.0,0.0
3186,68.0,30.0,30.0,0.0,0.0
3187,44.0,0.0,90.0,1.0,0.0
3188,68.0,5.0,90.0,1.0,0.0
3189,56.0,0.0,90.0,1.0,0.0
3190,56.0,0.0,60.0,0.0,0.0
3191,70.0,30.0,30.0,0.0,0.0
3192,44.0,15.0,60.0,0.0,0.0
3193,68.0,15.0,30.0,0.0,0.0
3194,67.0,1.0,30.0,0.0,0.0
3195,44.0,0.0,15.0,0.0,0.0
3196,56.0,15.0,15.0,0.0,0.0
3197,68.0,30.0,30.0,0.0,0.0
3198,56.0,1.0,90.0,1.0,0.0
3199,36.0,0.0,40.0,0.0,0.0
3200,60.0,15.0,30.0,0.0,0.0
3201,68.0,12.0,90.0,1.0,0.0
3202,44.0,17.0,60.0,1.0,0.0
3203,48.0,15.0,40.0,0.0,0.0
3204,68.0,0.0,30.0,0.0,0.0
3205,49.0,1.0,40.0,0.0,0.0
3206,61.0,0.0,30.0,0.0,0.0
3207,37.0,0.0,40.0,0.0,0.0
3208,68.0,1.0,15.0,1.0,0.0
3209,44.0,0.0,30.0,1.0,0.0
3210,56.0,14.0,15.0,1.0,0.0
3211,68.0,0.0,30.0,0.0,0.0
3212,63.0,0.0,30.0,0.0,0.0
3213,56.0,1.0,90.0,1.0,0.0
3214,44.0,0.0,90.0,1.0,0.0
3215,51.0,15.0,40.0,0.0,0.0
3216,39.0,15.0,30.0,0.0,0.0
3217,68.0,13.0,90.0,1.0,0.0
3218,68.0,29.0,30.0,0.0,0.0
3219,53.0,15.0,40.0,0.0,0.0
3220,41.0,2.0,30.0,0.0,0.0
3221,65.0,0.0,30.0,0.0,0.0
3222,68.0,15.0,30.0,0.0,0.0
3223,56.0,0.0,90.0,1.0,0.0
3224,44.0,0.0,90.0,1.0,0.0
3225,66.0,45.0,15.0,0.0,0.0
3226,68.0,5.0,90.0,1.0,0.0
3227,54.0,15.0,90.0,0.0,0.0
3228,42.0,0.0,90.0,0.0,0.0
3229,68.0,30.0,30.0,0.0,0.0
3230,67.0,8.0,30.0,0.0,0.0
3231,68.0,29.0,30.0,0.0,0.0
3232,70.0,0.0,30.0,0.0,0.0
3233,56.0,0.0,60.0,0.0,0.0
3234,68.0,24.0,40.0,1.0,0.0
3235,44.0,6.0,30.0,1.0,0.0
3236,44.0,15.0,60.0,0.0,0.0
3237,56.0,1.0,30.0,1.0,0.0
3238,68.0,15.0,30.0,0.0,0.0
3239,68.0,11.0,30.0,1.0,0.0
3240,67.0,0.0,30.0,0.0,0.0
3241,44.0,30.0,60.0,1.0,0.0
3242,56.0,4.0,30.0,1.0,0.0
3243,68.0,0.0,30.0,0.0,0.0
3244,44.0,0.0,15.0,0.0,0.0
3245,56.0,2.0,15.0,0.0,0.0
3246,68.0,6.0,90.0,1.0,0.0
3247,56.0,30.0,120.0,1.0,0.0
3248,60.0,2.0,40.0,1.0,0.0
3249,54.0,30.0,60.0,1.0,0.0
3250,42.0,15.0,40.0,0.0,0.0
3251,54.0,0.0,40.0,0.0,0.0
3252,72.0,13.0,30.0,0.0,0.0
3253,68.0,0.0,30.0,0.0,0.0
3254,61.0,4.0,40.0,1.0,0.0
3255,41.0,5.0,30.0,0.0,0.0
3256,53.0,0.0,60.0,1.0,0.0
3257,73.0,0.0,30.0,0.0,0.0
3258,53.0,15.0,40.0,0.0,0.0
3259,68.0,0.0,30.0,0.0,0.0
3260,75.0,1.0,30.0,0.0,0.0
3261,39.0,0.0,40.0,0.0,0.0
3262,54.0,29.0,60.0,1.0,0.0
3263,63.0,7.0,60.0,1.0,0.0
3264,51.0,8.0,40.0,0.0,0.0
3265,72.0,0.0,30.0,0.0,0.0
3266,68.0,14.0,30.0,1.0,0.0
3267,51.0,0.0,60.0,1.0,0.0
3268,68.0,0.0,30.0,0.0,0.0
3269,68.0,1.0,30.0,1.0,0.0
3270,53.0,0.0,60.0,1.0,0.0
3271,77.0,15.0,30.0,0.0,0.0
3272,49.0,0.0,40.0,0.0,0.0
3273,37.0,1.0,40.0,0.0,0.0
3274,73.0,0.0,30.0,0.0,0.0
3275,49.0,0.0,60.0,1.0,0.0
3276,65.0,14.0,40.0,1.0,0.0
3277,68.0,30.0,30.0,0.0,0.0
3278,48.0,0.0,60.0,0.0,0.0
3279,36.0,0.0,60.0,0.0,0.0
3280,68.0,2.0,90.0,1.0,0.0
3281,78.0,15.0,30.0,0.0,0.0
3282,48.0,0.0,120.0,1.0,0.0
3283,66.0,3.0,90.0,1.0,0.0
3284,51.0,30.0,120.0,1.0,0.0
3285,75.0,30.0,15.0,0.0,0.0
3286,68.0,25.0,15.0,0.0,0.0
3287,78.0,15.0,15.0,0.0,0.0
3288,65.0,10.0,40.0,1.0,0.0
3289,68.0,15.0,30.0,1.0,0.0
3290,49.0,0.0,120.0,0.0,0.0
3291,77.0,0.0,30.0,0.0,0.0
3292,49.0,0.0,30.0,1.0,0.0
3293,37.0,3.0,90.0,0.0,0.0
3294,73.0,30.0,30.0,0.0,0.0
3295,68.0,9.0,40.0,1.0,0.0
3296,49.0,0.0,60.0,1.0,0.0
3297,68.0,6.0,30.0,0.0,0.0
3298,65.0,12.0,40.0,1.0,0.0
3299,77.0,0.0,30.0,0.0,0.0
3300,36.0,0.0,60.0,0.0,0.0
3301,48.0,0.0,60.0,0.0,0.0
3302,63.0,5.0,60.0,1.0,0.0
3303,68.0,3.0,120.0,1.0,0.0
3304,51.0,30.0,60.0,1.0,0.0
3305,75.0,25.0,30.0,0.0,0.0
3306,48.0,0.0,60.0,1.0,0.0
3307,72.0,0.0,30.0,0.0,0.0
3308,44.0,0.0,30.0,0.0,0.0
3309,56.0,0.0,60.0,0.0,0.0
3310,60.0,12.0,40.0,1.0,0.0
3311,75.0,15.0,30.0,0.0,0.0
3312,56.0,0.0,120.0,1.0,0.0
3313,44.0,0.0,60.0,1.0,0.0
3314,72.0,60.0,30.0,0.0,0.0
3315,65.0,25.0,60.0,1.0,0.0
3316,46.0,5.0,60.0,1.0,0.0
3317,73.0,9.0,120.0,1.0,0.0
3318,46.0,0.0,60.0,0.0,0.0
3319,58.0,0.0,60.0,0.0,0.0
3320,73.0,0.0,60.0,0.0,0.0
3321,51.0,30.0,60.0,1.0,0.0
3322,67.0,0.0,30.0,0.0,0.0
3323,72.0,8.0,30.0,0.0,0.0
3324,55.0,0.0,60.0,1.0,0.0
3325,63.0,7.0,40.0,1.0,0.0
3326,51.0,6.0,40.0,0.0,0.0
3327,39.0,0.0,40.0,0.0,0.0
3328,70.0,0.0,30.0,0.0,0.0
3329,56.0,8.0,120.0,1.0,0.0
3330,44.0,0.0,90.0,1.0,0.0
3331,68.0,30.0,30.0,0.0,0.0
3332,72.0,22.0,120.0,1.0,0.0
3333,44.0,0.0,60.0,0.0,0.0
3334,63.0,4.0,120.0,1.0,0.0
3335,63.0,30.0,30.0,0.0,0.0
3336,60.0,0.0,30.0,0.0,0.0
3337,56.0,26.0,30.0,0.0,0.0
3338,65.0,0.0,30.0,0.0,0.0
3339,67.0,0.0,30.0,0.0,0.0
3340,68.0,5.0,30.0,0.0,0.0
3341,68.0,24.0,30.0,1.0,0.0
3342,60.0,0.0,90.0,0.0,0.0
3343,56.0,0.0,90.0,0.0,0.0
3344,60.0,1.0,60.0,1.0,0.0
3345,67.0,30.0,30.0,0.0,0.0
3346,68.0,7.0,60.0,1.0,0.0
3347,56.0,4.0,40.0,1.0,0.0
3348,68.0,19.0,30.0,0.0,0.0
3349,70.0,30.0,30.0,0.0,0.0
3350,68.0,2.0,60.0,1.0,0.0
3351,72.0,15.0,30.0,0.0,0.0
3352,44.0,13.0,40.0,0.0,0.0
3353,32.0,0.0,60.0,0.0,0.0
3354,72.0,0.0,60.0,1.0,0.0
3355,44.0,0.0,60.0,1.0,0.0
3356,68.0,30.0,30.0,0.0,0.0
3357,46.0,0.0,60.0,0.0,0.0
3358,67.0,3.0,60.0,1.0,0.0
3359,70.0,4.0,60.0,1.0,0.0
3360,67.0,23.0,30.0,0.0,0.0
3361,34.0,0.0,60.0,0.0,0.0
3362,61.0,0.0,60.0,1.0,0.0
3363,46.0,0.0,60.0,1.0,0.0
3364,70.0,30.0,30.0,0.0,0.0
3365,48.0,0.0,60.0,1.0,0.0
3366,68.0,27.0,60.0,1.0,0.0
3367,36.0,14.0,40.0,0.0,0.0
3368,68.0,15.0,30.0,0.0,0.0
3369,65.0,1.0,60.0,1.0,0.0
3370,60.0,0.0,240.0,1.0,0.0
3371,48.0,0.0,40.0,0.0,0.0
3372,65.0,3.0,30.0,0.0,0.0
3373,64.0,7.0,30.0,0.0,0.0
3374,67.0,3.0,40.0,1.0,0.0
3375,48.0,0.0,40.0,0.0,0.0
3376,46.0,0.0,60.0,1.0,0.0
3377,46.0,15.0,40.0,0.0,0.0
3378,64.0,5.0,40.0,1.0,0.0
3379,67.0,30.0,30.0,0.0,0.0
3380,48.0,0.0,90.0,0.0,0.0
3381,44.0,0.0,90.0,0.0,0.0
3382,65.0,30.0,30.0,0.0,0.0
3383,65.0,26.0,120.0,1.0,0.0
3384,44.0,4.0,150.0,1.0,0.0
3385,76.0,30.0,30.0,0.0,0.0
3386,77.0,30.0,30.0,0.0,0.0
3387,76.0,4.0,30.0,0.0,0.0
3388,56.0,0.0,60.0,0.0,0.0
3389,60.0,15.0,60.0,0.0,0.0
3390,68.0,2.0,60.0,1.0,0.0
3391,53.0,30.0,90.0,1.0,0.0
3392,77.0,0.0,30.0,0.0,0.0
3393,75.0,15.0,30.0,0.0,0.0
3394,65.0,1.0,60.0,1.0,0.0
3395,44.0,0.0,60.0,1.0,0.0
3396,72.0,29.0,60.0,1.0,0.0
3397,74.0,0.0,30.0,0.0,0.0
3398,72.0,0.0,30.0,0.0,0.0
3399,51.0,0.0,30.0,0.0,0.0
3400,46.0,30.0,30.0,0.0,0.0
3401,43.0,0.0,30.0,0.0,0.0
3402,70.0,29.0,60.0,1.0,0.0
3403,70.0,0.0,30.0,0.0,0.0
3404,67.0,0.0,60.0,1.0,0.0
3405,43.0,1.0,60.0,1.0,0.0
3406,67.0,0.0,30.0,0.0,0.0
3407,53.0,0.0,30.0,0.0,0.0
3408,44.0,0.0,60.0,1.0,0.0
3409,65.0,0.0,30.0,0.0,0.0
3410,68.0,28.0,60.0,1.0,0.0
3411,60.0,2.0,60.0,1.0,0.0
3412,44.0,0.0,30.0,0.0,0.0
3413,48.0,29.0,30.0,0.0,0.0
3414,65.0,1.0,60.0,1.0,0.0
3415,68.0,0.0,30.0,0.0,0.0
3416,58.0,0.0,240.0,1.0,0.0
3417,67.0,5.0,30.0,0.0,0.0
3418,51.0,0.0,40.0,0.0,0.0
3419,46.0,30.0,60.0,1.0,0.0
3420,46.0,0.0,40.0,0.0,0.0
3421,55.0,10.0,40.0,0.0,0.0
3422,63.0,10.0,30.0,1.0,0.0
3423,67.0,5.0,60.0,1.0,0.0
3424,63.0,0.0,30.0,0.0,0.0
3425,53.0,8.0,30.0,0.0,0.0
3426,65.0,3.0,60.0,1.0,0.0
3427,44.0,30.0,60.0,1.0,0.0
3428,62.0,19.0,40.0,1.0,0.0
3429,50.0,0.0,30.0,0.0,0.0
3430,62.0,0.0,30.0,0.0,0.0
3431,44.0,0.0,30.0,0.0,0.0
3432,65.0,0.0,30.0,0.0,0.0
3433,63.0,30.0,30.0,0.0,0.0
3434,43.0,0.0,120.0,1.0,0.0
3435,43.0,0.0,120.0,0.0,0.0
3436,51.0,7.0,120.0,0.0,0.0
3437,63.0,4.0,120.0,1.0,0.0
3438,46.0,0.0,120.0,0.0,0.0
3439,74.0,30.0,30.0,0.0,0.0
3440,75.0,30.0,30.0,0.0,0.0
3441,74.0,0.0,30.0,0.0,0.0
3442,51.0,0.0,120.0,1.0,0.0
3443,75.0,30.0,30.0,0.0,0.0
3444,67.0,29.0,60.0,1.0,0.0
3445,74.0,1.0,30.0,0.0,0.0
3446,70.0,6.0,60.0,1.0,0.0
3447,72.0,24.0,30.0,0.0,0.0
3448,70.0,60.0,30.0,0.0,0.0
3449,68.0,30.0,60.0,0.0,0.0
3450,68.0,1.0,90.0,1.0,0.0
3451,32.0,0.0,90.0,0.0,0.0
3452,44.0,0.0,90.0,0.0,0.0
3453,67.0,14.0,30.0,0.0,0.0
3454,68.0,75.0,15.0,0.0,0.0
3455,56.0,0.0,60.0,1.0,0.0
3456,68.0,15.0,60.0,0.0,0.0
3457,68.0,10.0,90.0,1.0,0.0
3458,60.0,15.0,180.0,0.0,0.0
3459,56.0,15.0,60.0,0.0,0.0
3460,60.0,0.0,60.0,1.0,0.0
3461,58.0,0.0,60.0,1.0,0.0
3462,55.0,60.0,60.0,0.0,0.0
3463,67.0,5.0,30.0,0.0,0.0
3464,55.0,0.0,60.0,1.0,0.0
3465,68.0,15.0,15.0,0.0,0.0
3466,56.0,0.0,60.0,1.0,0.0
3467,53.0,0.0,60.0,1.0,0.0
3468,68.0,0.0,60.0,0.0,0.0
3469,53.0,15.0,60.0,0.0,0.0
3470,67.0,12.0,30.0,0.0,0.0
3471,56.0,0.0,60.0,1.0,0.0
3472,68.0,3.0,40.0,1.0,0.0
3473,56.0,0.0,40.0,0.0,0.0
3474,60.0,30.0,60.0,1.0,0.0
3475,68.0,12.0,15.0,0.0,0.0
3476,68.0,7.0,40.0,1.0,0.0
3477,68.0,6.0,60.0,0.0,0.0
3478,53.0,8.0,30.0,0.0,0.0
3479,53.0,0.0,60.0,1.0,0.0
3480,67.0,24.0,60.0,1.0,0.0
3481,56.0,15.0,40.0,0.0,0.0
3482,55.0,45.0,60.0,1.0,0.0
3483,68.0,14.0,30.0,1.0,0.0
3484,65.0,14.0,40.0,1.0,0.0
3485,67.0,0.0,30.0,0.0,0.0
3486,51.0,0.0,60.0,1.0,0.0
3487,55.0,1.0,30.0,0.0,0.0
3488,51.0,0.0,30.0,0.0,0.0
3489,68.0,1.0,15.0,0.0,0.0
3490,53.0,6.0,40.0,0.0,0.0
3491,56.0,15.0,120.0,1.0,0.0
3492,50.0,0.0,60.0,1.0,0.0
3493,68.0,9.0,60.0,1.0,0.0
3494,68.0,0.0,60.0,0.0,0.0
3495,50.0,30.0,60.0,0.0,0.0
3496,53.0,0.0,60.0,1.0,0.0
3497,70.0,7.0,30.0,0.0,0.0
3498,65.0,8.0,40.0,1.0,0.0
3499,56.0,0.0,40.0,0.0,0.0
3500,53.0,1.0,40.0,0.0,0.0
3501,72.0,0.0,30.0,0.0,0.0
3502,53.0,15.0,15.0,0.0,0.0
3503,65.0,15.0,40.0,1.0,0.0
3504,50.0,0.0,30.0,0.0,0.0
3505,68.0,11.0,30.0,1.0,0.0
3506,50.0,0.0,60.0,1.0,0.0
3507,74.0,4.0,30.0,0.0,0.0
3508,75.0,30.0,30.0,0.0,0.0
3509,77.0,0.0,30.0,0.0,0.0
3510,63.0,4.0,30.0,1.0,0.0
3511,51.0,0.0,30.0,0.0,0.0
3512,51.0,0.0,60.0,1.0,0.0
3513,48.0,0.0,30.0,0.0,0.0
3514,48.0,0.0,60.0,1.0,0.0
3515,68.0,26.0,30.0,1.0,0.0
3516,79.0,30.0,30.0,0.0,0.0
3517,46.0,0.0,90.0,0.0,0.0
3518,46.0,10.0,210.0,1.0,0.0
3519,50.0,0.0,90.0,0.0,0.0
3520,68.0,5.0,210.0,1.0,0.0
3521,53.0,0.0,90.0,0.0,0.0
3522,80.0,30.0,30.0,0.0,0.0
3523,53.0,30.0,240.0,1.0,0.0
3524,62.0,27.0,150.0,1.0,0.0
3525,82.0,30.0,30.0,0.0,0.0
3526,79.0,30.0,30.0,0.0,0.0
3527,80.0,30.0,30.0,0.0,0.0
3528,58.0,15.0,60.0,0.0,0.0
3529,56.0,0.0,60.0,0.0,0.0
3530,77.0,3.0,30.0,0.0,0.0
3531,79.0,15.0,30.0,0.0,0.0
3532,62.0,0.0,30.0,1.0,0.0
3533,75.0,0.0,30.0,0.0,0.0
3534,77.0,0.0,30.0,0.0,0.0
3535,58.0,15.0,15.0,0.0,0.0
3536,56.0,0.0,15.0,0.0,0.0
3537,58.0,0.0,60.0,0.0,0.0
3538,56.0,15.0,60.0,0.0,0.0
3539,53.0,30.0,120.0,1.0,0.0
3540,62.0,19.0,90.0,1.0,0.0
3541,46.0,11.0,150.0,1.0,0.0
3542,68.0,4.0,150.0,1.0,0.0
3543,74.0,30.0,30.0,0.0,0.0
3544,75.0,15.0,30.0,0.0,0.0
3545,72.0,11.0,30.0,0.0,0.0
3546,74.0,0.0,30.0,0.0,0.0
3547,70.0,0.0,30.0,0.0,0.0
3548,58.0,10.0,90.0,1.0,0.0
3549,56.0,0.0,90.0,0.0,0.0
3550,46.0,15.0,40.0,0.0,0.0
3551,50.0,15.0,60.0,0.0,0.0
3552,62.0,13.0,90.0,1.0,0.0
3553,72.0,15.0,30.0,0.0,0.0
3554,68.0,0.0,30.0,0.0,0.0
3555,68.0,7.0,60.0,1.0,0.0
3556,46.0,30.0,60.0,1.0,0.0
3557,46.0,0.0,30.0,0.0,0.0
3558,70.0,0.0,30.0,0.0,0.0
3559,55.0,0.0,90.0,0.0,0.0
3560,67.0,30.0,30.0,0.0,0.0
3561,63.0,16.0,90.0,1.0,0.0
3562,51.0,0.0,120.0,1.0,0.0
3563,58.0,0.0,120.0,1.0,0.0
3564,67.0,29.0,120.0,1.0,0.0
3565,51.0,0.0,90.0,0.0,0.0
3566,70.0,30.0,30.0,0.0,0.0
3567,68.0,14.0,30.0,0.0,0.0
3568,67.0,1.0,30.0,0.0,0.0
3569,48.0,0.0,90.0,0.0,0.0
3570,53.0,0.0,90.0,0.0,0.0
3571,44.0,9.0,90.0,0.0,0.0
3572,65.0,3.0,40.0,1.0,0.0
3573,44.0,0.0,30.0,1.0,0.0
3574,68.0,20.0,40.0,1.0,0.0
3575,72.0,7.0,30.0,0.0,0.0
3576,60.0,0.0,60.0,1.0,0.0
3577,68.0,30.0,30.0,0.0,0.0
3578,68.0,4.0,60.0,1.0,0.0
3579,65.0,2.0,60.0,1.0,0.0
3580,60.0,0.0,60.0,1.0,0.0
3581,44.0,0.0,60.0,1.0,0.0
3582,67.0,15.0,30.0,0.0,0.0
3583,65.0,30.0,30.0,0.0,0.0
3584,46.0,15.0,240.0,1.0,0.0
3585,46.0,14.0,90.0,0.0,0.0
3586,55.0,0.0,90.0,0.0,0.0
3587,67.0,1.0,120.0,1.0,0.0
3588,58.0,15.0,210.0,1.0,0.0
3589,63.0,24.0,120.0,1.0,0.0
3590,51.0,15.0,90.0,0.0,0.0
3591,70.0,30.0,30.0,0.0,0.0
3592,67.0,30.0,30.0,0.0,0.0
3593,65.0,0.0,30.0,0.0,0.0
3594,63.0,6.0,30.0,0.0,0.0
3595,68.0,30.0,30.0,0.0,0.0
3596,46.0,0.0,90.0,0.0,0.0
3597,53.0,0.0,90.0,0.0,0.0
3598,50.0,0.0,90.0,0.0,0.0
3599,62.0,9.0,120.0,1.0,0.0
3600,65.0,4.0,120.0,1.0,0.0
3601,65.0,30.0,30.0,0.0,0.0
3602,63.0,0.0,30.0,0.0,0.0
3603,62.0,2.0,15.0,0.0,0.0
3604,39.0,30.0,120.0,1.0,0.0
3605,46.0,7.0,90.0,0.0,0.0
3606,39.0,0.0,90.0,0.0,0.0
3607,51.0,0.0,90.0,0.0,0.0
3608,63.0,5.0,120.0,1.0,0.0
3609,63.0,45.0,15.0,0.0,0.0
3610,58.0,0.0,120.0,1.0,0.0
3611,63.0,30.0,30.0,0.0,0.0
3612,62.0,15.0,30.0,0.0,0.0
3613,63.0,0.0,30.0,0.0,0.0
3614,51.0,0.0,60.0,0.0,0.0
3615,65.0,30.0,30.0,0.0,0.0
3616,63.0,15.0,30.0,0.0,0.0
3617,62.0,45.0,15.0,0.0,0.0
3618,51.0,30.0,30.0,0.0,0.0
3619,63.0,0.0,30.0,0.0,0.0
3620,39.0,0.0,30.0,0.0,0.0
3621,51.0,30.0,30.0,0.0,0.0
3622,63.0,30.0,30.0,0.0,0.0
3623,41.0,15.0,40.0,0.0,0.0
3624,53.0,15.0,30.0,0.0,0.0
3625,63.0,30.0,30.0,0.0,0.0
3626,55.0,0.0,30.0,0.0,0.0
3627,43.0,30.0,30.0,0.0,0.0
3628,63.0,28.0,30.0,0.0,0.0
3629,56.0,7.0,30.0,0.0,0.0
3630,51.0,0.0,30.0,1.0,0.0
3631,63.0,2.0,30.0,1.0,0.0
3632,44.0,0.0,30.0,0.0,0.0
3633,75.0,23.0,40.0,1.0,0.0
3634,63.0,15.0,30.0,0.0,0.0
3635,46.0,0.0,120.0,0.0,0.0
3636,63.0,4.0,150.0,1.0,0.0
3637,51.0,0.0,150.0,1.0,0.0
3638,75.0,19.0,150.0,1.0,0.0
3639,58.0,45.0,15.0,0.0,0.0
3640,75.0,30.0,30.0,0.0,0.0
3641,74.0,30.0,30.0,0.0,0.0
3642,75.0,30.0,30.0,0.0,0.0
3643,77.0,0.0,30.0,0.0,0.0
3644,75.0,30.0,30.0,0.0,0.0
3645,75.0,25.0,30.0,1.0,0.0
3646,63.0,1.0,30.0,1.0,0.0
3647,74.0,4.0,30.0,0.0,0.0
3648,51.0,0.0,30.0,1.0,0.0
3649,75.0,30.0,30.0,0.0,0.0
3650,63.0,3.0,90.0,1.0,0.0
3651,43.0,30.0,30.0,0.0,0.0
3652,55.0,0.0,30.0,0.0,0.0
3653,51.0,0.0,90.0,1.0,0.0
3654,67.0,0.0,30.0,0.0,0.0
3655,75.0,23.0,90.0,1.0,0.0
3656,75.0,30.0,30.0,0.0,0.0
3657,44.0,0.0,30.0,0.0,0.0
3658,56.0,0.0,30.0,0.0,0.0
3659,68.0,0.0,30.0,0.0,0.0
3660,75.0,30.0,30.0,0.0,0.0
3661,63.0,7.0,90.0,1.0,0.0
3662,51.0,0.0,90.0,1.0,0.0
3663,70.0,30.0,30.0,0.0,0.0
3664,75.0,3.0,90.0,1.0,0.0
3665,58.0,0.0,30.0,0.0,0.0
3666,46.0,0.0,30.0,0.0,0.0
3667,75.0,30.0,30.0,0.0,0.0
3668,48.0,15.0,40.0,0.0,0.0
3669,60.0,5.0,30.0,0.0,0.0
3670,72.0,0.0,30.0,0.0,0.0
3671,75.0,30.0,30.0,0.0,0.0
3672,73.0,7.0,60.0,1.0,0.0
3673,73.0,0.0,30.0,0.0,0.0
3674,61.0,2.0,60.0,1.0,0.0
3675,49.0,0.0,60.0,1.0,0.0
3676,61.0,6.0,40.0,0.0,0.0
3677,49.0,15.0,30.0,0.0,0.0
3678,75.0,30.0,30.0,0.0,0.0
3679,60.0,0.0,30.0,0.0,0.0
3680,48.0,0.0,30.0,0.0,0.0
3681,48.0,0.0,60.0,1.0,0.0
3682,72.0,25.0,30.0,0.0,0.0
3683,72.0,1.0,60.0,1.0,0.0
3684,60.0,4.0,60.0,1.0,0.0
3685,73.0,0.0,30.0,0.0,0.0
3686,58.0,15.0,40.0,0.0,0.0
3687,46.0,0.0,30.0,0.0,0.0
3688,58.0,1.0,40.0,1.0,0.0
3689,70.0,27.0,60.0,1.0,0.0
3690,46.0,0.0,60.0,1.0,0.0
3691,70.0,14.0,30.0,0.0,0.0
3692,72.0,3.0,30.0,0.0,0.0
3693,56.0,24.0,30.0,1.0,0.0
3694,44.0,0.0,30.0,0.0,0.0
3695,56.0,4.0,30.0,0.0,0.0
3696,68.0,0.0,30.0,0.0,0.0
3697,44.0,30.0,60.0,1.0,0.0
3698,68.0,2.0,60.0,1.0,0.0
3699,70.0,0.0,30.0,0.0,0.0
3700,55.0,9.0,40.0,0.0,0.0
3701,67.0,0.0,30.0,0.0,0.0
3702,55.0,6.0,60.0,1.0,0.0
3703,67.0,23.0,60.0,1.0,0.0
3704,43.0,0.0,60.0,1.0,0.0
3705,43.0,15.0,30.0,0.0,0.0
3706,68.0,0.0,30.0,0.0,0.0
3707,41.0,0.0,30.0,0.0,0.0
3708,65.0,2.0,60.0,1.0,0.0
3709,53.0,30.0,30.0,0.0,0.0
3710,65.0,0.0,30.0,0.0,0.0
3711,53.0,0.0,60.0,1.0,0.0
3712,67.0,5.0,30.0,0.0,0.0
3713,51.0,0.0,60.0,1.0,0.0
3714,39.0,0.0,30.0,0.0,0.0
3715,51.0,0.0,30.0,0.0,0.0
3716,63.0,24.0,30.0,0.0,0.0
3717,63.0,4.0,60.0,1.0,0.0
3718,65.0,30.0,30.0,0.0,0.0
3719,49.0,2.0,40.0,0.0,0.0
3720,49.0,0.0,60.0,1.0,0.0
3721,61.0,0.0,30.0,0.0,0.0
3722,37.0,15.0,30.0,0.0,0.0
3723,61.0,11.0,40.0,1.0,0.0
3724,63.0,0.0,30.0,0.0,0.0
3725,48.0,0.0,40.0,0.0,0.0
3726,36.0,15.0,40.0,0.0,0.0
3727,60.0,15.0,30.0,0.0,0.0
3728,60.0,1.0,150.0,1.0,0.0
3729,48.0,0.0,150.0,1.0,0.0
3730,64.0,30.0,30.0,0.0,0.0
3731,67.0,15.0,30.0,0.0,0.0
3732,36.0,15.0,40.0,0.0,0.0
3733,48.0,0.0,40.0,0.0,0.0
3734,72.0,29.0,30.0,0.0,0.0
3735,48.0,0.0,40.0,0.0,0.0
3736,60.0,0.0,30.0,0.0,0.0
3737,36.0,15.0,40.0,0.0,0.0
3738,72.0,30.0,30.0,0.0,0.0
3739,60.0,2.0,30.0,0.0,0.0
3740,36.0,0.0,40.0,0.0,0.0
3741,48.0,30.0,40.0,0.0,0.0
3742,60.0,6.0,30.0,1.0,0.0
3743,48.0,0.0,30.0,1.0,0.0
3744,72.0,15.0,40.0,0.0,0.0
3745,60.0,10.0,120.0,1.0,0.0
3746,48.0,15.0,30.0,0.0,0.0
3747,36.0,15.0,40.0,0.0,0.0
3748,60.0,0.0,30.0,0.0,0.0
3749,48.0,15.0,90.0,1.0,0.0
3750,64.0,30.0,30.0,0.0,0.0
3751,67.0,0.0,30.0,0.0,0.0
3752,48.0,3.0,40.0,0.0,0.0
3753,36.0,0.0,30.0,0.0,0.0
3754,72.0,0.0,30.0,0.0,0.0
3755,48.0,15.0,40.0,0.0,0.0
3756,55.0,15.0,60.0,0.0,0.0
3757,52.0,0.0,60.0,0.0,0.0
3758,60.0,15.0,30.0,0.0,0.0
3759,60.0,8.0,90.0,1.0,0.0
3760,48.0,0.0,90.0,1.0,0.0
3761,72.0,6.0,90.0,1.0,0.0
3762,64.0,1.0,90.0,1.0,0.0
3763,72.0,15.0,30.0,0.0,0.0
3764,60.0,0.0,30.0,0.0,0.0
3765,48.0,0.0,30.0,0.0,0.0
3766,72.0,60.0,15.0,0.0,0.0
3767,72.0,3.0,90.0,1.0,0.0
3768,65.0,7.0,90.0,1.0,0.0
3769,48.0,0.0,90.0,1.0,0.0
3770,61.0,0.0,60.0,1.0,0.0
3771,53.0,15.0,60.0,0.0,0.0
3772,72.0,0.0,60.0,0.0,0.0
3773,48.0,15.0,40.0,0.0,0.0
3774,61.0,30.0,420.0,0.0,0.0
3775,77.0,15.0,30.0,0.0,0.0
3776,53.0,5.0,15.0,0.0,0.0
3777,48.0,2.0,40.0,0.0,0.0
3778,65.0,12.0,15.0,1.0,0.0
3779,61.0,15.0,30.0,1.0,0.0
3780,48.0,0.0,30.0,1.0,0.0
3781,72.0,1.0,15.0,1.0,0.0
3782,73.0,0.0,30.0,0.0,0.0
3783,70.0,49.0,40.0,1.0,0.0
3784,65.0,2.0,90.0,1.0,0.0
3785,48.0,0.0,90.0,1.0,0.0
3786,61.0,0.0,90.0,1.0,0.0
3787,48.0,9.0,30.0,0.0,0.0
3788,70.0,15.0,15.0,0.0,0.0
3789,48.0,60.0,30.0,0.0,0.0
3790,70.0,0.0,30.0,0.0,0.0
3791,61.0,0.0,90.0,1.0,0.0
3792,48.0,0.0,30.0,0.0,0.0
3793,48.0,0.0,90.0,1.0,0.0
3794,70.0,57.0,30.0,0.0,0.0
3795,65.0,51.0,90.0,1.0,0.0
3796,70.0,3.0,90.0,1.0,0.0
3797,70.0,9.0,30.0,0.0,0.0
3798,48.0,0.0,30.0,0.0,0.0
3799,65.0,12.0,90.0,1.0,0.0
3800,61.0,0.0,90.0,1.0,0.0
3801,48.0,0.0,90.0,1.0,0.0
3802,70.0,0.0,30.0,0.0,0.0
3803,48.0,30.0,30.0,0.0,0.0
3804,70.0,2.0,90.0,1.0,0.0
3805,48.0,1.0,30.0,0.0,0.0
3806,70.0,45.0,40.0,0.0,0.0
3807,60.0,15.0,420.0,0.0,0.0
3808,63.0,7.0,90.0,1.0,0.0
3809,70.0,30.0,60.0,0.0,0.0
3810,48.0,30.0,30.0,0.0,0.0
3811,48.0,0.0,90.0,1.0,0.0
3812,60.0,12.0,90.0,1.0,0.0
3813,51.0,0.0,420.0,0.0,0.0
3814,70.0,11.0,120.0,1.0,0.0
3815,75.0,0.0,30.0,0.0,0.0
3816,48.0,0.0,30.0,0.0,0.0
3817,72.0,30.0,30.0,0.0,0.0
3818,48.0,0.0,90.0,1.0,0.0
3819,68.0,45.0,30.0,0.0,0.0
3820,60.0,0.0,90.0,1.0,0.0
3821,68.0,51.0,90.0,1.0,0.0
3822,48.0,0.0,30.0,0.0,0.0
3823,63.0,9.0,90.0,1.0,0.0
3824,68.0,15.0,15.0,0.0,0.0
3825,48.0,0.0,30.0,0.0,0.0
3826,60.0,0.0,90.0,1.0,0.0
3827,48.0,0.0,90.0,1.0,0.0
3828,48.0,15.0,30.0,0.0,0.0
3829,68.0,8.0,90.0,1.0,0.0
3830,68.0,37.0,40.0,0.0,0.0
3831,63.0,8.0,90.0,1.0,0.0
3832,48.0,7.0,30.0,0.0,0.0
3833,68.0,45.0,40.0,0.0,0.0
3834,48.0,0.0,90.0,1.0,0.0
3835,68.0,6.0,90.0,1.0,0.0
3836,68.0,30.0,40.0,0.0,0.0
3837,63.0,6.0,90.0,1.0,0.0
3838,48.0,15.0,30.0,0.0,0.0
3839,60.0,30.0,120.0,1.0,0.0
3840,68.0,15.0,40.0,0.0,0.0
3841,48.0,3.0,30.0,0.0,0.0
3842,61.0,11.0,240.0,1.0,0.0
3843,48.0,15.0,210.0,1.0,0.0
3844,68.0,29.0,120.0,1.0,0.0
3845,48.0,30.0,30.0,0.0,0.0
3846,68.0,30.0,60.0,0.0,0.0
3847,49.0,0.0,210.0,0.0,0.0
3848,58.0,30.0,240.0,1.0,0.0
3849,58.0,15.0,180.0,0.0,0.0
3850,73.0,30.0,30.0,0.0,0.0
3851,48.0,0.0,30.0,0.0,0.0
3852,70.0,1.0,30.0,0.0,0.0
3853,67.0,22.0,240.0,1.0,0.0
3854,67.0,45.0,30.0,0.0,0.0
3855,48.0,0.0,30.0,0.0,0.0
3856,48.0,0.0,30.0,0.0,0.0
3857,67.0,4.0,40.0,0.0,0.0
3858,48.0,0.0,210.0,1.0,0.0
3859,48.0,30.0,30.0,0.0,0.0
3860,56.0,12.0,210.0,0.0,0.0
3861,67.0,30.0,60.0,0.0,0.0
3862,56.0,0.0,210.0,1.0,0.0
3863,60.0,3.0,210.0,1.0,0.0
3864,48.0,0.0,30.0,0.0,0.0
3865,72.0,30.0,30.0,0.0,0.0
3866,68.0,8.0,30.0,0.0,0.0
3867,65.0,45.0,40.0,0.0,0.0
3868,65.0,32.0,120.0,1.0,0.0
3869,48.0,15.0,30.0,0.0,0.0
3870,48.0,0.0,30.0,0.0,0.0
3871,65.0,13.0,40.0,0.0,0.0
3872,48.0,15.0,90.0,1.0,0.0
3873,55.0,30.0,120.0,1.0,0.0
3874,36.0,30.0,60.0,0.0,0.0
3875,64.0,14.0,90.0,1.0,0.0
3876,48.0,0.0,30.0,0.0,0.0
3877,58.0,1.0,120.0,1.0,0.0
3878,64.0,15.0,40.0,0.0,0.0
3879,58.0,0.0,30.0,0.0,0.0
3880,61.0,15.0,30.0,0.0,0.0
3881,48.0,0.0,30.0,0.0,0.0
3882,76.0,0.0,30.0,0.0,0.0
3883,64.0,0.0,30.0,0.0,0.0
3884,60.0,24.0,40.0,1.0,0.0
3885,56.0,0.0,60.0,1.0,0.0
3886,60.0,0.0,30.0,0.0,0.0
3887,56.0,0.0,30.0,0.0,0.0
3888,65.0,23.0,60.0,1.0,0.0
3889,48.0,0.0,30.0,1.0,0.0
3890,48.0,0.0,30.0,0.0,0.0
3891,77.0,6.0,30.0,0.0,0.0
3892,65.0,7.0,30.0,0.0,0.0
3893,60.0,5.0,40.0,1.0,0.0
3894,67.0,19.0,40.0,1.0,0.0
3895,48.0,0.0,30.0,1.0,0.0
3896,52.0,0.0,60.0,1.0,0.0
3897,79.0,0.0,30.0,0.0,0.0
3898,58.0,0.0,30.0,0.0,0.0
3899,55.0,6.0,30.0,0.0,0.0
3900,48.0,0.0,30.0,0.0,0.0
3901,67.0,30.0,30.0,0.0,0.0
3902,53.0,15.0,180.0,1.0,0.0
3903,60.0,0.0,120.0,1.0,0.0
3904,68.0,25.0,150.0,1.0,0.0
3905,48.0,0.0,120.0,1.0,0.0
3906,80.0,0.0,30.0,0.0,0.0
3907,53.0,5.0,180.0,0.0,0.0
3908,56.0,0.0,180.0,0.0,0.0
3909,48.0,30.0,30.0,0.0,0.0
3910,68.0,30.0,30.0,0.0,0.0
3911,80.0,30.0,30.0,0.0,0.0
3912,48.0,0.0,30.0,0.0,0.0
3913,68.0,30.0,30.0,0.0,0.0
3914,47.0,0.0,60.0,1.0,0.0
3915,80.0,5.0,30.0,0.0,0.0
3916,62.0,10.0,90.0,1.0,0.0
3917,47.0,0.0,30.0,0.0,0.0
3918,68.0,0.0,30.0,0.0,0.0
3919,47.0,30.0,30.0,0.0,0.0
3920,80.0,0.0,30.0,0.0,0.0
3921,53.0,0.0,60.0,1.0,0.0
3922,68.0,0.0,60.0,1.0,0.0
3923,62.0,29.0,30.0,1.0,0.0
3924,68.0,1.0,30.0,0.0,0.0
3925,47.0,0.0,30.0,1.0,0.0
3926,52.0,30.0,120.0,1.0,0.0
3927,48.0,0.0,120.0,1.0,0.0
3928,52.0,15.0,40.0,0.0,0.0
3929,48.0,0.0,40.0,0.0,0.0
3930,55.0,9.0,120.0,1.0,0.0
3931,55.0,30.0,60.0,0.0,0.0
3932,79.0,15.0,30.0,0.0,0.0
3933,67.0,2.0,120.0,1.0,0.0
3934,48.0,0.0,30.0,0.0,0.0
3935,60.0,19.0,30.0,0.0,0.0
3936,50.0,0.0,30.0,0.0,0.0
3937,62.0,0.0,30.0,0.0,0.0
3938,64.0,30.0,30.0,0.0,0.0
3939,52.0,0.0,30.0,0.0,0.0
3940,65.0,30.0,30.0,0.0,0.0
3941,53.0,0.0,30.0,0.0,0.0
3942,67.0,15.0,30.0,0.0,0.0
3943,55.0,0.0,30.0,0.0,0.0
3944,52.0,15.0,15.0,0.0,0.0
3945,64.0,30.0,30.0,0.0,0.0
3946,58.0,0.0,210.0,0.0,0.0
3947,48.0,0.0,30.0,0.0,0.0
3948,55.0,15.0,180.0,0.0,0.0
3949,72.0,20.0,150.0,1.0,0.0
3950,60.0,30.0,30.0,0.0,0.0
3951,72.0,30.0,30.0,0.0,0.0
3952,60.0,15.0,30.0,0.0,0.0
3953,48.0,0.0,60.0,1.0,0.0
3954,48.0,15.0,40.0,0.0,0.0
3955,52.0,0.0,60.0,1.0,0.0
3956,72.0,30.0,30.0,0.0,0.0
3957,53.0,0.0,60.0,1.0,0.0
3958,62.0,0.0,30.0,0.0,0.0
3959,50.0,26.0,90.0,1.0,0.0
3960,50.0,10.0,30.0,0.0,0.0
3961,72.0,15.0,30.0,0.0,0.0
3962,72.0,4.0,60.0,1.0,0.0
3963,52.0,0.0,30.0,0.0,0.0
3964,52.0,0.0,60.0,1.0,0.0
3965,55.0,15.0,90.0,1.0,0.0
3966,64.0,0.0,30.0,0.0,0.0
3967,72.0,30.0,30.0,0.0,0.0
3968,53.0,12.0,40.0,0.0,0.0
3969,68.0,3.0,60.0,1.0,0.0
3970,65.0,0.0,30.0,0.0,0.0
3971,56.0,0.0,60.0,1.0,0.0
3972,56.0,0.0,40.0,0.0,0.0
3973,53.0,30.0,60.0,1.0,0.0
3974,72.0,0.0,30.0,0.0,0.0
3975,68.0,0.0,30.0,0.0,0.0
3976,60.0,18.0,30.0,0.0,0.0
3977,56.0,0.0,30.0,0.0,0.0
3978,60.0,9.0,60.0,1.0,0.0
3979,65.0,12.0,40.0,1.0,0.0
3980,56.0,0.0,60.0,1.0,0.0
3981,72.0,0.0,30.0,0.0,0.0
3982,67.0,30.0,30.0,0.0,0.0
3983,64.0,0.0,30.0,0.0,0.0
3984,58.0,0.0,30.0,0.0,0.0
3985,58.0,0.0,60.0,1.0,0.0
3986,55.0,0.0,60.0,1.0,0.0
3987,64.0,0.0,60.0,1.0,0.0
3988,72.0,21.0,120.0,1.0,0.0
3989,55.0,0.0,30.0,0.0,0.0
3990,72.0,30.0,30.0,0.0,0.0
3991,53.0,1.0,60.0,1.0,0.0
3992,65.0,0.0,30.0,0.0,0.0
3993,56.0,0.0,60.0,1.0,0.0
3994,53.0,0.0,30.0,0.0,0.0
3995,60.0,30.0,30.0,0.0,0.0
3996,56.0,0.0,30.0,0.0,0.0
3997,65.0,8.0,60.0,1.0,0.0
3998,72.0,0.0,30.0,0.0,0.0
3999,55.0,0.0,180.0,0.0,0.0
4000,58.0,30.0,180.0,0.0,0.0
4001,52.0,0.0,60.0,1.0,0.0
4002,52.0,30.0,30.0,0.0,0.0
4003,55.0,30.0,60.0,1.0,0.0
4004,60.0,19.0,90.0,1.0,0.0
4005,64.0,0.0,30.0,0.0,0.0
4006,72.0,0.0,30.0,0.0,0.0
4007,72.0,1.0,40.0,1.0,0.0
4008,60.0,10.0,30.0,0.0,0.0
4009,48.0,0.0,30.0,0.0,0.0
4010,52.0,0.0,60.0,1.0,0.0
4011,48.0,0.0,60.0,1.0,0.0
4012,72.0,30.0,30.0,0.0,0.0
4013,60.0,0.0,40.0,1.0,0.0
4014,50.0,7.0,30.0,0.0,0.0
4015,53.0,0.0,60.0,1.0,0.0
4016,72.0,23.0,40.0,1.0,0.0
4017,62.0,0.0,30.0,0.0,0.0
4018,50.0,0.0,60.0,1.0,0.0
4019,72.0,0.0,30.0,0.0,0.0
4020,72.0,5.0,60.0,1.0,0.0
4021,64.0,12.0,30.0,0.0,0.0
4022,52.0,0.0,60.0,1.0,0.0
4023,55.0,30.0,60.0,1.0,0.0
4024,60.0,13.0,40.0,1.0,0.0
4025,52.0,0.0,30.0,0.0,0.0
4026,72.0,0.0,30.0,0.0,0.0
4027,60.0,2.0,150.0,1.0,0.0
4028,65.0,0.0,30.0,0.0,0.0
4029,53.0,15.0,30.0,0.0,0.0
4030,56.0,13.0,40.0,0.0,0.0
4031,68.0,2.0,60.0,1.0,0.0
4032,56.0,28.0,120.0,1.0,0.0
4033,53.0,0.0,120.0,1.0,0.0
4034,72.0,30.0,30.0,0.0,0.0
4035,53.0,0.0,40.0,0.0,0.0
4036,65.0,10.0,40.0,1.0,0.0
4037,60.0,15.0,30.0,0.0,0.0
4038,44.0,5.0,40.0,0.0,0.0
4039,72.0,0.0,30.0,0.0,0.0
4040,67.0,0.0,30.0,0.0,0.0
4041,55.0,0.0,120.0,1.0,0.0
4042,52.0,0.0,30.0,0.0,0.0
4043,52.0,0.0,120.0,1.0,0.0
4044,72.0,9.0,150.0,1.0,0.0
4045,55.0,30.0,30.0,0.0,0.0
4046,72.0,30.0,30.0,0.0,0.0
4047,48.0,0.0,30.0,0.0,0.0
4048,60.0,0.0,30.0,0.0,0.0
4049,60.0,20.0,60.0,1.0,0.0
4050,64.0,30.0,30.0,0.0,0.0
4051,72.0,1.0,30.0,0.0,0.0
4052,53.0,0.0,90.0,0.0,0.0
4053,61.0,26.0,30.0,1.0,0.0
4054,61.0,30.0,240.0,0.0,0.0
4055,75.0,4.0,30.0,0.0,0.0
4056,60.0,15.0,90.0,0.0,0.0
4057,56.0,0.0,120.0,1.0,0.0
4058,53.0,0.0,120.0,1.0,0.0
4059,73.0,30.0,30.0,0.0,0.0
4060,82.0,5.0,30.0,0.0,0.0
4061,61.0,10.0,30.0,1.0,0.0
4062,80.0,30.0,30.0,0.0,0.0
4063,79.0,30.0,30.0,0.0,0.0
4064,72.0,12.0,120.0,1.0,0.0
4065,58.0,0.0,60.0,0.0,0.0
4066,55.0,15.0,60.0,0.0,0.0
4067,61.0,2.0,120.0,1.0,0.0
4068,77.0,15.0,30.0,0.0,0.0
4069,75.0,15.0,30.0,0.0,0.0
4070,73.0,1.0,15.0,0.0,0.0
4071,63.0,29.0,120.0,1.0,0.0
4072,73.0,30.0,30.0,0.0,0.0
4073,56.0,0.0,120.0,1.0,0.0
4074,51.0,0.0,120.0,0.0,0.0
4075,58.0,1.0,120.0,0.0,0.0
4076,44.0,0.0,120.0,0.0,0.0
4077,72.0,15.0,30.0,0.0,0.0
4078,60.0,26.0,30.0,1.0,0.0
4079,80.0,19.0,15.0,0.0,0.0
4080,79.0,0.0,30.0,0.0,0.0
4081,60.0,29.0,30.0,1.0,0.0
4082,56.0,15.0,60.0,0.0,0.0
4083,77.0,1.0,30.0,0.0,0.0
4084,48.0,30.0,120.0,1.0,0.0
4085,75.0,15.0,30.0,0.0,0.0
4086,73.0,11.0,30.0,0.0,0.0
4087,60.0,12.0,40.0,1.0,0.0
4088,68.0,4.0,40.0,1.0,0.0
4089,48.0,0.0,30.0,0.0,0.0
4090,72.0,3.0,15.0,0.0,0.0
4091,68.0,4.0,40.0,1.0,0.0
4092,50.0,0.0,90.0,0.0,0.0
4093,58.0,15.0,90.0,0.0,0.0
4094,56.0,5.0,90.0,0.0,0.0
4095,58.0,4.0,240.0,1.0,0.0
4096,53.0,0.0,30.0,1.0,0.0
4097,72.0,11.0,30.0,0.0,0.0
4098,70.0,45.0,15.0,0.0,0.0
4099,53.0,30.0,60.0,1.0,0.0
4100,68.0,10.0,40.0,1.0,0.0
4101,79.0,0.0,30.0,0.0,0.0
4102,77.0,0.0,30.0,0.0,0.0
4103,52.0,30.0,120.0,1.0,0.0
4104,67.0,3.0,120.0,1.0,0.0
4105,76.0,15.0,30.0,0.0,0.0
4106,60.0,0.0,240.0,1.0,0.0
4107,52.0,0.0,90.0,0.0,0.0
4108,60.0,0.0,90.0,0.0,0.0
4109,55.0,15.0,90.0,0.0,0.0
4110,74.0,45.0,15.0,0.0,0.0
4111,72.0,0.0,30.0,0.0,0.0
4112,70.0,8.0,15.0,0.0,0.0
4113,53.0,3.0,30.0,1.0,0.0
4114,68.0,0.0,30.0,0.0,0.0
4115,56.0,15.0,60.0,0.0,0.0
4116,60.0,0.0,90.0,0.0,0.0
4117,53.0,22.0,90.0,0.0,0.0
4118,65.0,24.0,40.0,1.0,0.0
4119,56.0,3.0,30.0,1.0,0.0
4120,72.0,15.0,30.0,0.0,0.0
4121,77.0,0.0,30.0,0.0,0.0
4122,56.0,29.0,60.0,1.0,0.0
4123,65.0,8.0,60.0,1.0,0.0
4124,53.0,0.0,60.0,1.0,0.0
4125,72.0,1.0,30.0,0.0,0.0
4126,61.0,4.0,30.0,1.0,0.0
4127,73.0,0.0,30.0,0.0,0.0
4128,58.0,30.0,120.0,1.0,0.0
4129,55.0,24.0,90.0,0.0,0.0
4130,49.0,0.0,90.0,0.0,0.0
4131,46.0,0.0,90.0,0.0,0.0
4132,46.0,5.0,30.0,1.0,0.0
4133,67.0,21.0,40.0,1.0,0.0
4134,70.0,30.0,30.0,0.0,0.0
4135,46.0,0.0,30.0,1.0,0.0
4136,61.0,5.0,60.0,1.0,0.0
4137,68.0,0.0,30.0,0.0,0.0
4138,67.0,1.0,60.0,1.0,0.0
4139,67.0,0.0,30.0,0.0,0.0
4140,53.0,0.0,90.0,0.0,0.0
4141,56.0,0.0,90.0,0.0,0.0
4142,48.0,30.0,240.0,1.0,0.0
4143,72.0,30.0,30.0,0.0,0.0
4144,65.0,3.0,120.0,1.0,0.0
4145,56.0,0.0,120.0,1.0,0.0
4146,60.0,10.0,210.0,1.0,0.0
4147,48.0,0.0,90.0,0.0,0.0
4148,68.0,30.0,30.0,0.0,0.0
4149,67.0,27.0,30.0,0.0,0.0
4150,65.0,30.0,30.0,0.0,0.0
4151,55.0,15.0,60.0,0.0,0.0
4152,64.0,5.0,120.0,1.0,0.0
4153,48.0,15.0,40.0,0.0,0.0
4154,52.0,0.0,60.0,0.0,0.0
4155,55.0,0.0,120.0,1.0,0.0
4156,70.0,15.0,30.0,0.0,0.0
4157,67.0,15.0,30.0,0.0,0.0
4158,65.0,5.0,30.0,0.0,0.0
4159,48.0,0.0,40.0,0.0,0.0
4160,64.0,10.0,15.0,0.0,0.0
4161,41.0,0.0,40.0,0.0,0.0
4162,53.0,15.0,30.0,0.0,0.0
4163,48.0,0.0,40.0,0.0,0.0
4164,56.0,0.0,40.0,0.0,0.0
4165,65.0,30.0,40.0,0.0,0.0
4166,53.0,45.0,120.0,1.0,0.0
4167,41.0,0.0,120.0,1.0,0.0
4168,60.0,1.0,120.0,1.0,0.0
4169,65.0,11.0,120.0,1.0,0.0
4170,68.0,0.0,15.0,0.0,0.0
4171,56.0,0.0,15.0,0.0,0.0
4172,53.0,0.0,40.0,0.0,0.0
4173,60.0,30.0,15.0,0.0,0.0
4174,60.0,3.0,15.0,0.0,0.0
4175,68.0,0.0,15.0,0.0,0.0
4176,56.0,0.0,15.0,0.0,0.0
4177,56.0,45.0,40.0,0.0,0.0
4178,68.0,0.0,40.0,0.0,0.0
4179,60.0,0.0,40.0,0.0,0.0
4180,53.0,0.0,40.0,0.0,0.0
4181,56.0,30.0,30.0,0.0,0.0
4182,60.0,0.0,30.0,0.0,0.0
4183,68.0,0.0,30.0,0.0,0.0
4184,53.0,30.0,60.0,0.0,0.0
4185,60.0,0.0,30.0,0.0,0.0
4186,68.0,0.0,30.0,0.0,0.0
4187,51.0,30.0,40.0,0.0,0.0
4188,63.0,15.0,30.0,0.0,0.0
4189,72.0,0.0,15.0,0.0,0.0
4190,39.0,0.0,40.0,0.0,0.0
4191,68.0,30.0,15.0,0.0,0.0
4192,78.0,0.0,15.0,0.0,0.0
4193,51.0,0.0,40.0,0.0,0.0
4194,68.0,45.0,15.0,0.0,0.0
4195,78.0,0.0,15.0,0.0,0.0
4196,72.0,0.0,15.0,0.0,0.0
4197,51.0,45.0,40.0,0.0,0.0
4198,72.0,0.0,30.0,0.0,0.0
4199,78.0,0.0,30.0,0.0,0.0
4200,39.0,0.0,40.0,0.0,0.0
4201,68.0,15.0,30.0,0.0,0.0
4202,51.0,0.0,40.0,0.0,0.0
4203,39.0,120.0,40.0,0.0,0.0
4204,68.0,0.0,30.0,0.0,0.0
4205,78.0,0.0,30.0,0.0,0.0
4206,72.0,15.0,30.0,0.0,0.0
4207,49.0,0.0,90.0,0.0,0.0
4208,37.0,15.0,90.0,0.0,0.0
4209,68.0,128.0,120.0,0.0,0.0
4210,73.0,0.0,120.0,0.0,0.0
4211,77.0,0.0,120.0,0.0,0.0
4212,73.0,236.0,240.0,2.0,0.0
4213,68.0,26.0,240.0,2.0,0.0
4214,75.0,30.0,30.0,0.0,0.0
4215,37.0,15.0,60.0,0.0,0.0
4216,65.0,7.0,90.0,2.0,0.0
4217,73.0,0.0,30.0,0.0,0.0
4218,72.0,23.0,15.0,0.0,0.0
4219,49.0,14.0,40.0,0.0,0.0
4220,66.0,1.0,30.0,2.0,0.0
4221,73.0,30.0,30.0,0.0,0.0
4222,68.0,16.0,120.0,2.0,0.0
4223,70.0,15.0,30.0,0.0,0.0
4224,49.0,0.0,30.0,0.0,0.0
4225,68.0,30.0,15.0,0.0,0.0
4226,67.0,30.0,15.0,0.0,0.0
4227,49.0,14.0,60.0,0.0,0.0
4228,68.0,15.0,15.0,0.0,0.0
4229,66.0,30.0,30.0,0.0,0.0
4230,37.0,0.0,60.0,0.0,0.0
4231,65.0,15.0,30.0,0.0,0.0
4232,49.0,15.0,40.0,0.0,0.0
4233,64.0,30.0,15.0,0.0,0.0
4234,65.0,30.0,30.0,0.0,0.0
4235,68.0,14.0,60.0,2.0,0.0
4236,63.0,0.0,30.0,0.0,0.0
4237,49.0,30.0,30.0,0.0,0.0
4238,61.0,1.0,30.0,0.0,0.0
4239,73.0,0.0,40.0,2.0,0.0
4240,49.0,30.0,60.0,0.0,0.0
4241,60.0,30.0,15.0,0.0,0.0
4242,61.0,15.0,15.0,0.0,0.0
4243,32.0,15.0,40.0,0.0,0.0
4244,39.0,45.0,210.0,0.0,0.0
4245,80.0,15.0,30.0,0.0,0.0
4246,73.0,21.0,120.0,2.0,0.0
4247,78.0,30.0,30.0,0.0,0.0
4248,77.0,0.0,30.0,0.0,0.0
4249,44.0,15.0,30.0,0.0,0.0
4250,78.0,24.0,15.0,0.0,0.0
4251,77.0,0.0,30.0,0.0,0.0
4252,44.0,30.0,30.0,0.0,0.0
4253,72.0,12.0,60.0,2.0,0.0
4254,75.0,3.0,30.0,0.0,0.0
4255,70.0,16.0,30.0,2.0,0.0
4256,74.0,14.0,15.0,0.0,0.0
4257,44.0,0.0,40.0,0.0,0.0
4258,75.0,0.0,15.0,0.0,0.0
4259,70.0,20.0,120.0,2.0,0.0
4260,32.0,15.0,60.0,0.0,0.0
4261,73.0,30.0,30.0,0.0,0.0
4262,72.0,0.0,30.0,0.0,0.0
4263,44.0,0.0,40.0,0.0,0.0
4264,71.0,30.0,15.0,0.0,0.0
4265,72.0,25.0,15.0,0.0,0.0
4266,44.0,15.0,30.0,0.0,0.0
4267,48.0,15.0,40.0,0.0,0.0
4268,70.0,0.0,30.0,0.0,0.0
4269,68.0,12.0,60.0,2.0,0.0
4270,68.0,3.0,30.0,0.0,0.0
4271,67.0,30.0,15.0,0.0,0.0
4272,66.0,29.0,60.0,2.0,0.0
4273,44.0,0.0,40.0,0.0,0.0
4274,68.0,16.0,15.0,0.0,0.0
4275,37.0,30.0,60.0,0.0,0.0
4276,82.0,30.0,30.0,0.0,0.0
4277,44.0,6.0,210.0,0.0,0.0
4278,65.0,8.0,90.0,2.0,0.0
4279,80.0,0.0,30.0,0.0,0.0
4280,79.0,0.0,30.0,0.0,0.0
4281,49.0,7.0,30.0,0.0,0.0
4282,80.0,7.0,15.0,0.0,0.0
4283,66.0,38.0,20.0,2.0,0.0
4284,68.0,39.0,120.0,2.0,0.0
4285,49.0,0.0,30.0,0.0,0.0
4286,78.0,15.0,30.0,0.0,0.0
4287,77.0,30.0,15.0,0.0,0.0
4288,76.0,15.0,15.0,0.0,0.0
4289,49.0,15.0,30.0,0.0,0.0
4290,77.0,0.0,15.0,0.0,0.0
4291,56.0,0.0,180.0,2.0,0.0
4292,75.0,30.0,30.0,0.0,0.0
4293,37.0,0.0,60.0,0.0,0.0
4294,44.0,7.0,210.0,0.0,0.0
4295,73.0,15.0,30.0,0.0,0.0
4296,49.0,15.0,30.0,0.0,0.0
4297,72.0,15.0,15.0,0.0,0.0
4298,73.0,45.0,15.0,0.0,0.0
4299,53.0,0.0,60.0,2.0,0.0
4300,49.0,0.0,30.0,0.0,0.0
4301,70.0,30.0,30.0,0.0,0.0
4302,68.0,15.0,30.0,0.0,0.0
4303,61.0,8.0,40.0,2.0,0.0
4304,49.0,22.0,60.0,2.0,0.0
4305,49.0,0.0,30.0,0.0,0.0
4306,67.0,15.0,15.0,0.0,0.0
4307,68.0,23.0,15.0,0.0,0.0
4308,42.0,10.0,120.0,0.0,0.0
4309,72.0,30.0,30.0,0.0,0.0
4310,49.0,1.0,240.0,0.0,0.0
4311,61.0,4.0,240.0,2.0,0.0
4312,70.0,20.0,120.0,2.0,0.0
4313,54.0,4.0,120.0,2.0,0.0
4314,70.0,15.0,30.0,0.0,0.0
4315,69.0,30.0,15.0,0.0,0.0
4316,70.0,11.0,15.0,0.0,0.0
4317,53.0,5.0,120.0,2.0,0.0
4318,41.0,15.0,90.0,0.0,0.0
4319,70.0,30.0,30.0,0.0,0.0
4320,68.0,20.0,120.0,2.0,0.0
4321,68.0,15.0,30.0,0.0,0.0
4322,67.0,30.0,15.0,0.0,0.0
4323,68.0,0.0,15.0,0.0,0.0
4324,39.0,15.0,90.0,0.0,0.0
4325,48.0,15.0,60.0,0.0,0.0
4326,44.0,0.0,60.0,0.0,0.0
4327,80.0,30.0,30.0,0.0,0.0
4328,60.0,27.0,120.0,2.0,0.0
4329,51.0,2.0,120.0,2.0,0.0
4330,66.0,6.0,120.0,2.0,0.0
4331,78.0,15.0,30.0,0.0,0.0
4332,77.0,0.0,30.0,0.0,0.0
4333,78.0,10.0,15.0,0.0,0.0
4334,65.0,10.0,90.0,2.0,0.0
4335,49.0,89.0,120.0,2.0,0.0
4336,37.0,0.0,90.0,0.0,0.0
4337,49.0,5.0,90.0,0.0,0.0
4338,61.0,0.0,90.0,2.0,0.0
4339,78.0,30.0,30.0,0.0,0.0
4340,44.0,0.0,90.0,0.0,0.0
4341,77.0,15.0,30.0,0.0,0.0
4342,76.0,15.0,15.0,0.0,0.0
4343,77.0,16.0,15.0,0.0,0.0
4344,65.0,2.0,120.0,2.0,0.0
4345,61.0,0.0,120.0,2.0,0.0
4346,44.0,1.0,120.0,0.0,0.0
4347,56.0,85.0,120.0,0.0,0.0
4348,77.0,30.0,90.0,0.0,0.0
4349,73.0,0.0,90.0,0.0,0.0
4350,56.0,12.0,120.0,2.0,0.0
4351,60.0,2.0,90.0,2.0,0.0
4352,72.0,0.0,90.0,0.0,0.0
4353,75.0,9.0,90.0,0.0,0.0
4354,63.0,5.0,120.0,2.0,0.0
4355,44.0,3.0,90.0,2.0,0.0
4356,51.0,29.0,240.0,2.0,0.0
4357,48.0,4.0,90.0,2.0,0.0
4358,32.0,15.0,60.0,0.0,0.0
4359,77.0,30.0,30.0,0.0,0.0
4360,75.0,0.0,30.0,0.0,0.0
4361,44.0,15.0,40.0,0.0,0.0
4362,74.0,26.0,15.0,0.0,0.0
4363,75.0,1.0,30.0,0.0,0.0
4364,49.0,29.0,20.0,2.0,0.0
4365,44.0,0.0,30.0,0.0,0.0
4366,73.0,30.0,30.0,0.0,0.0
4367,51.0,28.0,120.0,2.0,0.0
4368,72.0,15.0,30.0,0.0,0.0
4369,71.0,45.0,15.0,0.0,0.0
4370,44.0,2.0,60.0,0.0,0.0
4371,72.0,0.0,30.0,0.0,0.0
4372,32.0,30.0,60.0,0.0,0.0
4373,70.0,30.0,30.0,0.0,0.0
4374,68.0,15.0,30.0,0.0,0.0
4375,44.0,15.0,40.0,0.0,0.0
4376,67.0,0.0,15.0,0.0,0.0
4377,68.0,30.0,30.0,0.0,0.0
4378,51.0,13.0,90.0,2.0,0.0
4379,44.0,0.0,30.0,0.0,0.0
4380,65.0,30.0,30.0,0.0,0.0
4381,63.0,15.0,30.0,0.0,0.0
4382,62.0,2.0,15.0,0.0,0.0
4383,44.0,12.0,30.0,0.0,0.0
4384,56.0,3.0,15.0,2.0,0.0
4385,63.0,45.0,15.0,0.0,0.0
4386,56.0,28.0,210.0,2.0,0.0
4387,75.0,30.0,30.0,0.0,0.0
4388,39.0,0.0,60.0,0.0,0.0
4389,46.0,15.0,240.0,0.0,0.0
4390,73.0,15.0,30.0,0.0,0.0
4391,51.0,30.0,30.0,0.0,0.0
4392,72.0,15.0,15.0,0.0,0.0
4393,73.0,30.0,30.0,0.0,0.0
4394,51.0,0.0,30.0,0.0,0.0
4395,72.0,30.0,30.0,0.0,0.0
4396,70.0,15.0,30.0,0.0,0.0
4397,69.0,2.0,15.0,0.0,0.0
4398,51.0,3.0,40.0,0.0,0.0
4399,58.0,16.0,40.0,2.0,0.0
4400,70.0,0.0,15.0,0.0,0.0
4401,56.0,11.0,30.0,2.0,0.0
4402,68.0,30.0,30.0,0.0,0.0
4403,39.0,0.0,60.0,0.0,0.0
4404,55.0,12.0,60.0,2.0,0.0
4405,67.0,3.0,30.0,0.0,0.0
4406,53.0,38.0,60.0,2.0,0.0
4407,66.0,15.0,15.0,0.0,0.0
4408,51.0,15.0,30.0,0.0,0.0
4409,67.0,7.0,15.0,0.0,0.0
4410,51.0,2.0,60.0,2.0,0.0
4411,51.0,0.0,30.0,0.0,0.0
4412,55.0,15.0,60.0,0.0,0.0
4413,65.0,28.0,30.0,0.0,0.0
4414,63.0,0.0,30.0,0.0,0.0
4415,49.0,33.0,60.0,2.0,0.0
4416,62.0,15.0,15.0,0.0,0.0
4417,51.0,15.0,30.0,0.0,0.0
4418,63.0,12.0,15.0,0.0,0.0
4419,48.0,1.0,90.0,2.0,0.0
4420,44.0,15.0,40.0,0.0,0.0
4421,82.0,15.0,30.0,0.0,0.0
4422,51.0,15.0,210.0,0.0,0.0
4423,80.0,15.0,30.0,0.0,0.0
4424,79.0,14.0,15.0,0.0,0.0
4425,56.0,30.0,30.0,0.0,0.0
4426,80.0,1.0,30.0,0.0,0.0
4427,49.0,29.0,30.0,2.0,0.0
4428,51.0,25.0,120.0,2.0,0.0
4429,77.0,30.0,30.0,0.0,0.0
4430,56.0,0.0,30.0,0.0,0.0
4431,75.0,15.0,30.0,0.0,0.0
4432,56.0,15.0,30.0,0.0,0.0
4433,74.0,15.0,15.0,0.0,0.0
4434,75.0,5.0,30.0,0.0,0.0
4435,56.0,5.0,90.0,2.0,0.0
4436,60.0,6.0,90.0,2.0,0.0
4437,42.0,0.0,60.0,0.0,0.0
4438,73.0,30.0,30.0,0.0,0.0
4439,75.0,8.0,90.0,2.0,0.0
4440,72.0,15.0,30.0,0.0,0.0
4441,54.0,45.0,40.0,0.0,0.0
4442,71.0,11.0,15.0,0.0,0.0
4443,72.0,0.0,15.0,0.0,0.0
4444,56.0,65.0,120.0,2.0,0.0
4445,54.0,0.0,30.0,0.0,0.0
4446,70.0,30.0,30.0,0.0,0.0
4447,75.0,11.0,60.0,2.0,0.0
4448,60.0,17.0,90.0,2.0,0.0
4449,68.0,15.0,30.0,0.0,0.0
4450,54.0,10.0,40.0,0.0,0.0
4451,67.0,2.0,15.0,0.0,0.0
4452,68.0,0.0,15.0,0.0,0.0
4453,69.0,0.0,60.0,0.0,0.0
4454,72.0,0.0,60.0,0.0,0.0
4455,48.0,4.0,60.0,0.0,0.0
4456,41.0,0.0,60.0,0.0,0.0
4457,75.0,4.0,60.0,2.0,0.0
4458,57.0,4.0,60.0,2.0,0.0
4459,53.0,3.0,40.0,0.0,0.0
4460,75.0,33.0,90.0,0.0,0.0
4461,72.0,0.0,90.0,0.0,0.0
4462,69.0,42.0,40.0,2.0,0.0
4463,60.0,25.0,15.0,2.0,0.0
4464,63.0,4.0,30.0,2.0,0.0
4465,53.0,0.0,30.0,0.0,0.0
4466,60.0,9.0,60.0,2.0,0.0
4467,69.0,3.0,210.0,2.0,0.0
4468,75.0,8.0,120.0,0.0,0.0
4469,53.0,67.0,40.0,0.0,0.0
4470,78.0,0.0,120.0,0.0,0.0
4471,66.0,9.0,30.0,2.0,0.0
4472,63.0,19.0,15.0,2.0,0.0
4473,66.0,8.0,60.0,2.0,0.0
4474,41.0,0.0,60.0,0.0,0.0
4475,63.0,22.0,60.0,2.0,0.0
4476,65.0,8.0,30.0,2.0,0.0
4477,53.0,3.0,30.0,0.0,0.0
4478,73.0,0.0,120.0,0.0,0.0
4479,77.0,7.0,120.0,0.0,0.0
4480,57.0,45.0,40.0,0.0,0.0
4481,61.0,1.0,40.0,2.0,0.0
4482,65.0,1.0,60.0,2.0,0.0
4483,70.0,5.0,60.0,2.0,0.0
4484,53.0,15.0,30.0,0.0,0.0
4485,58.0,14.0,40.0,0.0,0.0
4486,61.0,33.0,60.0,2.0,0.0
4487,72.0,2.0,60.0,2.0,0.0
4488,63.0,3.0,60.0,2.0,0.0
4489,57.0,0.0,40.0,0.0,0.0
4490,53.0,0.0,40.0,0.0,0.0
4491,60.0,0.0,40.0,0.0,0.0
4492,75.0,10.0,40.0,0.0,0.0
4493,72.0,0.0,40.0,0.0,0.0
4494,60.0,75.0,60.0,2.0,0.0
4495,60.0,11.0,90.0,2.0,0.0
4496,75.0,1.0,90.0,2.0,0.0
4497,46.0,10.0,60.0,0.0,0.0
4498,57.0,7.0,90.0,2.0,0.0
4499,72.0,0.0,60.0,0.0,0.0
4500,75.0,30.0,60.0,0.0,0.0
4501,53.0,1.0,40.0,0.0,0.0
4502,57.0,0.0,40.0,0.0,0.0
4503,73.0,1.0,15.0,2.0,0.0
4504,61.0,6.0,15.0,2.0,0.0
4505,58.0,8.0,15.0,2.0,0.0
4506,73.0,24.0,90.0,2.0,0.0
4507,61.0,2.0,90.0,2.0,0.0
4508,58.0,0.0,30.0,0.0,0.0
4509,70.0,0.0,40.0,0.0,0.0
4510,73.0,30.0,40.0,0.0,0.0
4511,58.0,61.0,120.0,2.0,0.0
4512,53.0,15.0,30.0,0.0,0.0
4513,70.0,0.0,15.0,0.0,0.0
4514,53.0,18.0,15.0,0.0,0.0
4515,58.0,0.0,15.0,0.0,0.0
4516,73.0,0.0,15.0,0.0,0.0
4517,73.0,22.0,120.0,2.0,0.0
4518,61.0,27.0,120.0,2.0,0.0
4519,41.0,30.0,60.0,0.0,0.0
4520,68.0,0.0,30.0,0.0,0.0
4521,53.0,0.0,30.0,0.0,0.0
4522,73.0,10.0,30.0,0.0,0.0
4523,73.0,7.0,90.0,2.0,0.0
4524,53.0,15.0,30.0,0.0,0.0
4525,56.0,1.0,15.0,2.0,0.0
4526,73.0,36.0,40.0,0.0,0.0
4527,68.0,0.0,40.0,0.0,0.0
4528,53.0,32.0,120.0,2.0,0.0
4529,73.0,0.0,30.0,0.0,0.0
4530,68.0,0.0,30.0,0.0,0.0
4531,53.0,28.0,30.0,0.0,0.0
4532,70.0,0.0,30.0,0.0,0.0
4533,67.0,40.0,30.0,0.0,0.0
4534,39.0,30.0,60.0,0.0,0.0
4535,73.0,20.0,120.0,2.0,0.0
4536,55.0,2.0,60.0,2.0,0.0
4537,70.0,0.0,90.0,0.0,0.0
4538,51.0,25.0,40.0,0.0,0.0
4539,73.0,13.0,90.0,0.0,0.0
4540,58.0,3.0,15.0,2.0,0.0
4541,51.0,15.0,30.0,0.0,0.0
4542,67.0,26.0,240.0,2.0,0.0
4543,51.0,75.0,30.0,0.0,0.0
4544,73.0,18.0,90.0,0.0,0.0
4545,77.0,0.0,90.0,0.0,0.0
4546,61.0,24.0,15.0,2.0,0.0
4547,65.0,2.0,120.0,2.0,0.0
4548,39.0,15.0,60.0,0.0,0.0
4549,51.0,15.0,30.0,0.0,0.0
4550,75.0,7.0,90.0,0.0,0.0
4551,72.0,0.0,90.0,0.0,0.0
4552,55.0,19.0,40.0,0.0,0.0
4553,63.0,5.0,120.0,2.0,0.0
4554,60.0,10.0,120.0,2.0,0.0
4555,68.0,38.0,60.0,2.0,0.0
4556,56.0,15.0,30.0,0.0,0.0
4557,51.0,0.0,30.0,0.0,0.0
4558,61.0,2.0,60.0,2.0,0.0
4559,70.0,0.0,60.0,2.0,0.0
4560,70.0,1.0,60.0,0.0,0.0
4561,51.0,13.0,40.0,0.0,0.0
4562,58.0,0.0,40.0,0.0,0.0
4563,55.0,0.0,40.0,0.0,0.0
4564,73.0,0.0,60.0,0.0,0.0
4565,58.0,59.0,15.0,2.0,0.0
4566,73.0,4.0,120.0,2.0,0.0
4567,44.0,30.0,60.0,0.0,0.0
4568,55.0,24.0,120.0,2.0,0.0
4569,51.0,26.0,30.0,0.0,0.0
4570,55.0,0.0,30.0,0.0,0.0
4571,70.0,0.0,60.0,0.0,0.0
4572,73.0,1.0,60.0,0.0,0.0
4573,60.0,5.0,120.0,2.0,0.0
4574,72.0,61.0,120.0,2.0,0.0
4575,56.0,15.0,30.0,0.0,0.0
4576,51.0,0.0,30.0,0.0,0.0
4577,68.0,30.0,40.0,0.0,0.0
4578,72.0,0.0,30.0,0.0,0.0
4579,56.0,2.0,120.0,2.0,0.0
4580,72.0,0.0,15.0,0.0,0.0
4581,68.0,37.0,15.0,0.0,0.0
4582,56.0,0.0,15.0,0.0,0.0
4583,51.0,0.0,15.0,0.0,0.0
4584,75.0,21.0,240.0,2.0,0.0
4585,44.0,60.0,60.0,0.0,0.0
4586,56.0,0.0,60.0,0.0,0.0
4587,68.0,30.0,60.0,0.0,0.0
4588,60.0,15.0,30.0,0.0,0.0
4589,72.0,15.0,40.0,0.0,0.0
4590,43.0,0.0,60.0,0.0,0.0
4591,55.0,30.0,60.0,0.0,0.0
4592,60.0,8.0,120.0,2.0,0.0
4593,56.0,12.0,90.0,2.0,0.0
4594,63.0,3.0,30.0,0.0,0.0
4595,75.0,16.0,40.0,0.0,0.0
4596,53.0,0.0,120.0,2.0,0.0
4597,75.0,30.0,30.0,0.0,0.0
4598,68.0,0.0,210.0,0.0,0.0
4599,53.0,0.0,60.0,0.0,0.0
4600,41.0,30.0,60.0,0.0,0.0
4601,61.0,2.0,120.0,2.0,0.0
4602,73.0,15.0,120.0,2.0,0.0
4603,56.0,13.0,120.0,2.0,0.0
4604,73.0,0.0,30.0,0.0,0.0
4605,72.0,15.0,30.0,0.0,0.0
4606,73.0,15.0,15.0,0.0,0.0
4607,72.0,26.0,120.0,2.0,0.0
4608,39.0,0.0,60.0,0.0,0.0
4609,51.0,15.0,60.0,0.0,0.0
4610,77.0,11.0,30.0,0.0,0.0
4611,63.0,0.0,120.0,2.0,0.0
4612,51.0,19.0,40.0,2.0,0.0
4613,55.0,3.0,120.0,2.0,0.0
4614,75.0,0.0,30.0,0.0,0.0
4615,51.0,2.0,60.0,2.0,0.0
4616,74.0,30.0,15.0,0.0,0.0
4617,75.0,14.0,15.0,0.0,0.0
4618,70.0,2.0,120.0,2.0,0.0
4619,65.0,3.0,90.0,2.0,0.0
4620,37.0,15.0,60.0,0.0,0.0
4621,49.0,0.0,60.0,0.0,0.0
4622,72.0,15.0,30.0,0.0,0.0
4623,77.0,0.0,210.0,0.0,0.0
4624,49.0,2.0,120.0,2.0,0.0
4625,53.0,29.0,120.0,2.0,0.0
4626,70.0,15.0,15.0,0.0,0.0
4627,69.0,27.0,15.0,0.0,0.0
4628,70.0,12.0,15.0,0.0,0.0
4629,68.0,1.0,120.0,2.0,0.0
4630,65.0,87.0,120.0,2.0,0.0
4631,50.0,0.0,60.0,0.0,0.0
4632,70.0,30.0,30.0,0.0,0.0
4633,60.0,2.0,90.0,2.0,0.0
4634,38.0,30.0,60.0,0.0,0.0
4635,50.0,12.0,120.0,2.0,0.0
4636,68.0,0.0,30.0,0.0,0.0
4637,67.0,12.0,30.0,0.0,0.0
4638,68.0,12.0,15.0,0.0,0.0
4639,72.0,0.0,120.0,0.0,0.0
4640,39.0,2.0,120.0,0.0,0.0
4641,51.0,0.0,120.0,0.0,0.0
4642,68.0,0.0,120.0,0.0,0.0
4643,51.0,10.0,90.0,2.0,0.0
4644,68.0,1.0,120.0,2.0,0.0
4645,60.0,90.0,120.0,2.0,0.0
4646,63.0,13.0,90.0,2.0,0.0
4647,51.0,11.0,90.0,2.0,0.0
4648,67.0,37.0,120.0,2.0,0.0
4649,67.0,5.0,90.0,0.0,0.0
4650,70.0,0.0,90.0,0.0,0.0
4651,63.0,3.0,120.0,2.0,0.0
4652,58.0,2.0,90.0,2.0,0.0
4653,51.0,3.0,180.0,2.0,0.0
4654,75.0,30.0,30.0,0.0,0.0
4655,39.0,15.0,60.0,0.0,0.0
4656,73.0,0.0,30.0,0.0,0.0
4657,72.0,15.0,15.0,0.0,0.0
4658,51.0,15.0,30.0,0.0,0.0
4659,73.0,45.0,15.0,0.0,0.0
4660,72.0,0.0,30.0,0.0,0.0
4661,51.0,27.0,30.0,0.0,0.0
4662,70.0,15.0,30.0,0.0,0.0
4663,53.0,17.0,30.0,2.0,0.0
4664,51.0,0.0,40.0,0.0,0.0
4665,69.0,8.0,15.0,0.0,0.0
4666,55.0,5.0,20.0,2.0,0.0
4667,70.0,45.0,15.0,0.0,0.0
4668,56.0,23.0,120.0,2.0,0.0
4669,39.0,15.0,40.0,0.0,0.0
4670,73.0,15.0,30.0,0.0,0.0
4671,60.0,4.0,180.0,2.0,0.0
4672,68.0,6.0,180.0,2.0,0.0
4673,72.0,15.0,30.0,0.0,0.0
4674,51.0,15.0,30.0,0.0,0.0
4675,71.0,15.0,15.0,0.0,0.0
4676,72.0,22.0,15.0,0.0,0.0
4677,70.0,0.0,30.0,0.0,0.0
4678,51.0,30.0,30.0,0.0,0.0
4679,51.0,2.0,90.0,2.0,0.0
4680,68.0,5.0,30.0,0.0,0.0
4681,67.0,14.0,15.0,0.0,0.0
4682,70.0,4.0,30.0,2.0,0.0
4683,51.0,0.0,40.0,0.0,0.0
4684,58.0,10.0,30.0,2.0,0.0
4685,72.0,9.0,30.0,2.0,0.0
4686,68.0,14.0,15.0,0.0,0.0
4687,56.0,22.0,30.0,2.0,0.0
4688,73.0,13.0,90.0,2.0,0.0
4689,39.0,15.0,60.0,0.0,0.0
4690,75.0,30.0,30.0,0.0,0.0
4691,51.0,9.0,180.0,2.0,0.0
4692,63.0,0.0,90.0,2.0,0.0
4693,55.0,6.0,90.0,2.0,0.0
4694,73.0,0.0,30.0,0.0,0.0
4695,51.0,2.0,30.0,0.0,0.0
4696,72.0,9.0,15.0,0.0,0.0
4697,73.0,45.0,15.0,0.0,0.0
4698,63.0,13.0,90.0,2.0,0.0
4699,73.0,2.0,120.0,2.0,0.0
4700,51.0,21.0,30.0,0.0,0.0
4701,72.0,0.0,30.0,0.0,0.0
4702,70.0,15.0,30.0,0.0,0.0
4703,69.0,13.0,15.0,0.0,0.0
4704,51.0,3.0,40.0,0.0,0.0
4705,53.0,0.0,20.0,2.0,0.0
4706,55.0,12.0,20.0,2.0,0.0
4707,70.0,0.0,15.0,0.0,0.0
4708,51.0,28.0,20.0,2.0,0.0
4709,63.0,0.0,210.0,2.0,0.0
4710,39.0,15.0,60.0,0.0,0.0
4711,73.0,30.0,30.0,0.0,0.0
4712,72.0,8.0,180.0,2.0,0.0
4713,56.0,32.0,120.0,2.0,0.0
4714,72.0,0.0,30.0,0.0,0.0
4715,51.0,0.0,40.0,0.0,0.0
4716,71.0,30.0,15.0,0.0,0.0
4717,72.0,13.0,15.0,0.0,0.0
4718,51.0,9.0,90.0,2.0,0.0
4719,70.0,0.0,30.0,0.0,0.0
4720,51.0,30.0,30.0,0.0,0.0
4721,68.0,5.0,30.0,0.0,0.0
4722,67.0,11.0,15.0,0.0,0.0
4723,51.0,15.0,40.0,0.0,0.0
4724,58.0,2.0,30.0,2.0,0.0
4725,70.0,8.0,30.0,2.0,0.0
4726,68.0,0.0,15.0,0.0,0.0
4727,60.0,9.0,30.0,2.0,0.0
4728,68.0,21.0,40.0,2.0,0.0
4729,51.0,5.0,180.0,2.0,0.0
4730,39.0,15.0,60.0,0.0,0.0
4731,75.0,30.0,30.0,0.0,0.0
4732,67.0,1.0,180.0,2.0,0.0
4733,61.0,8.0,60.0,2.0,0.0
4734,73.0,0.0,30.0,0.0,0.0
4735,51.0,15.0,30.0,0.0,0.0
4736,72.0,7.0,15.0,0.0,0.0
4737,73.0,45.0,15.0,0.0,0.0
4738,61.0,4.0,60.0,2.0,0.0
4739,72.0,24.0,30.0,0.0,0.0
4740,51.0,0.0,30.0,0.0,0.0
4741,70.0,11.0,30.0,0.0,0.0
4742,53.0,4.0,30.0,2.0,0.0
4743,65.0,6.0,20.0,2.0,0.0
4744,51.0,15.0,30.0,0.0,0.0
4745,69.0,4.0,15.0,0.0,0.0
4746,63.0,1.0,15.0,2.0,0.0
4747,70.0,14.0,15.0,0.0,0.0
4748,55.0,4.0,30.0,2.0,0.0
4749,73.0,15.0,30.0,0.0,0.0
4750,77.0,0.0,30.0,0.0,0.0
4751,32.0,0.0,60.0,0.0,0.0
4752,63.0,27.0,15.0,2.0,0.0
4753,44.0,15.0,60.0,0.0,0.0
4754,56.0,1.0,120.0,2.0,0.0
4755,75.0,5.0,90.0,2.0,0.0
4756,60.0,21.0,120.0,2.0,0.0
4757,75.0,15.0,15.0,0.0,0.0
4758,72.0,0.0,15.0,0.0,0.0
4759,74.0,25.0,15.0,0.0,0.0
4760,71.0,0.0,15.0,0.0,0.0
4761,72.0,11.0,15.0,0.0,0.0
4762,75.0,0.0,15.0,0.0,0.0
4763,49.0,0.0,120.0,2.0,0.0
4764,75.0,9.0,30.0,0.0,0.0
4765,49.0,0.0,60.0,0.0,0.0
4766,72.0,0.0,30.0,0.0,0.0
4767,37.0,15.0,60.0,0.0,0.0
4768,65.0,2.0,40.0,2.0,0.0
4769,73.0,4.0,40.0,2.0,0.0
4770,53.0,14.0,40.0,2.0,0.0
4771,70.0,0.0,15.0,0.0,0.0
4772,73.0,1.0,15.0,0.0,0.0
4773,73.0,5.0,60.0,2.0,0.0
4774,65.0,32.0,60.0,2.0,0.0
4775,72.0,0.0,15.0,0.0,0.0
4776,69.0,30.0,15.0,0.0,0.0
4777,53.0,3.0,60.0,2.0,0.0
4778,73.0,0.0,15.0,0.0,0.0
4779,70.0,5.0,15.0,0.0,0.0
4780,51.0,12.0,240.0,2.0,0.0
4781,72.0,29.0,120.0,2.0,0.0
4782,70.0,0.0,30.0,0.0,0.0
4783,73.0,15.0,30.0,0.0,0.0
4784,39.0,0.0,60.0,0.0,0.0
4785,51.0,30.0,60.0,0.0,0.0
4786,56.0,2.0,120.0,2.0,0.0
4787,63.0,9.0,210.0,2.0,0.0
4788,72.0,0.0,15.0,0.0,0.0
4789,68.0,15.0,15.0,0.0,0.0
4790,67.0,15.0,30.0,0.0,0.0
4791,71.0,0.0,30.0,0.0,0.0
4792,68.0,0.0,15.0,0.0,0.0
4793,72.0,14.0,15.0,0.0,0.0
4794,68.0,15.0,30.0,0.0,0.0
4795,72.0,0.0,30.0,0.0,0.0
4796,39.0,15.0,40.0,0.0,0.0
4797,70.0,3.0,120.0,2.0,0.0
4798,27.0,30.0,60.0,0.0,0.0
4799,55.0,12.0,90.0,2.0,0.0
4800,70.0,0.0,15.0,0.0,0.0
4801,67.0,0.0,15.0,0.0,0.0
4802,65.0,6.0,30.0,0.0,0.0
4803,69.0,0.0,30.0,0.0,0.0
4804,70.0,3.0,15.0,0.0,0.0
4805,67.0,0.0,15.0,0.0,0.0
4806,68.0,28.0,15.0,0.0,0.0
4807,44.0,0.0,90.0,0.0,0.0
4808,32.0,15.0,60.0,0.0,0.0
4809,63.0,3.0,90.0,2.0,0.0
4810,44.0,2.0,120.0,2.0,0.0
4811,68.0,7.0,40.0,2.0,0.0
4812,56.0,10.0,40.0,2.0,0.0
4813,68.0,15.0,30.0,0.0,0.0
4814,56.0,0.0,30.0,1.0,0.0
4815,67.0,8.0,30.0,0.0,0.0
4816,68.0,17.0,40.0,1.0,0.0
4817,68.0,30.0,30.0,0.0,0.0
4818,56.0,0.0,30.0,1.0,0.0
4819,68.0,19.0,40.0,1.0,0.0
4820,44.0,0.0,60.0,0.0,0.0
4821,70.0,11.0,30.0,0.0,0.0
4822,56.0,15.0,60.0,0.0,0.0
4823,68.0,15.0,30.0,0.0,0.0
4824,68.0,6.0,40.0,1.0,0.0
4825,67.0,9.0,30.0,0.0,0.0
4826,56.0,0.0,30.0,1.0,0.0
4827,44.0,0.0,15.0,0.0,0.0
4828,68.0,30.0,30.0,0.0,0.0
4829,56.0,15.0,15.0,0.0,0.0
4830,44.0,5.0,60.0,1.0,0.0
4831,44.0,30.0,30.0,0.0,0.0
4832,56.0,0.0,30.0,0.0,0.0
4833,68.0,23.0,330.0,1.0,0.0
4834,32.0,0.0,30.0,0.0,0.0
4835,56.0,25.0,60.0,1.0,0.0
4836,68.0,0.0,30.0,0.0,0.0
4837,46.0,0.0,30.0,0.0,0.0
4838,46.0,16.0,30.0,1.0,0.0
4839,58.0,0.0,30.0,0.0,0.0
4840,34.0,0.0,30.0,0.0,0.0
4841,58.0,14.0,40.0,1.0,0.0
4842,68.0,30.0,30.0,0.0,0.0
4843,48.0,0.0,30.0,0.0,0.0
4844,60.0,27.0,30.0,0.0,0.0
4845,36.0,0.0,30.0,0.0,0.0
4846,48.0,30.0,60.0,1.0,0.0
4847,60.0,3.0,60.0,1.0,0.0
4848,68.0,0.0,30.0,0.0,0.0
4849,61.0,11.0,30.0,0.0,0.0
4850,49.0,0.0,30.0,0.0,0.0
4851,37.0,0.0,30.0,0.0,0.0
4852,61.0,19.0,40.0,1.0,0.0
4853,49.0,15.0,60.0,1.0,0.0
4854,68.0,0.0,30.0,0.0,0.0
4855,39.0,0.0,90.0,0.0,0.0
4856,63.0,5.0,240.0,1.0,0.0
4857,63.0,45.0,15.0,0.0,0.0
4858,51.0,30.0,240.0,1.0,0.0
4859,51.0,7.0,90.0,0.0,0.0
4860,68.0,30.0,30.0,0.0,0.0
4861,67.0,0.0,30.0,0.0,0.0
4862,68.0,30.0,30.0,0.0,0.0
4863,44.0,15.0,60.0,0.0,0.0
4864,56.0,15.0,60.0,0.0,0.0
4865,56.0,0.0,30.0,1.0,0.0
4866,70.0,10.0,30.0,0.0,0.0
4867,68.0,20.0,40.0,1.0,0.0
4868,68.0,0.0,30.0,0.0,0.0
4869,68.0,5.0,40.0,1.0,0.0
4870,56.0,10.0,30.0,1.0,0.0
4871,67.0,0.0,30.0,0.0,0.0
4872,68.0,10.0,15.0,0.0,0.0
4873,56.0,0.0,15.0,0.0,0.0
4874,44.0,0.0,15.0,0.0,0.0
4875,48.0,5.0,60.0,1.0,0.0
4876,68.0,15.0,300.0,1.0,0.0
4877,36.0,15.0,30.0,0.0,0.0
4878,48.0,15.0,40.0,0.0,0.0
4879,56.0,15.0,330.0,1.0,0.0
4880,60.0,0.0,30.0,0.0,0.0
4881,60.0,25.0,60.0,1.0,0.0
4882,68.0,0.0,15.0,0.0,0.0
4883,49.0,0.0,30.0,0.0,0.0
4884,37.0,20.0,30.0,0.0,0.0
4885,61.0,10.0,40.0,1.0,0.0
4886,61.0,0.0,30.0,0.0,0.0
4887,49.0,30.0,60.0,1.0,0.0
4888,68.0,0.0,30.0,0.0,0.0
4889,51.0,30.0,60.0,1.0,0.0
4890,63.0,25.0,30.0,0.0,0.0
4891,63.0,5.0,60.0,1.0,0.0
4892,51.0,0.0,30.0,0.0,0.0
4893,39.0,0.0,30.0,0.0,0.0
4894,68.0,0.0,30.0,0.0,0.0
4895,65.0,0.0,30.0,0.0,0.0
4896,65.0,4.0,60.0,1.0,0.0
4897,41.0,0.0,30.0,0.0,0.0
4898,53.0,0.0,30.0,0.0,0.0
4899,53.0,26.0,30.0,1.0,0.0
4900,68.0,30.0,30.0,0.0,0.0
4901,66.0,7.0,180.0,1.0,0.0
4902,42.0,0.0,90.0,0.0,0.0
4903,54.0,1.0,90.0,0.0,0.0
4904,54.0,14.0,150.0,1.0,0.0
4905,66.0,30.0,30.0,0.0,0.0
4906,68.0,15.0,30.0,0.0,0.0
4907,67.0,0.0,30.0,0.0,0.0
4908,68.0,30.0,30.0,0.0,0.0
4909,56.0,0.0,30.0,1.0,0.0
4910,68.0,14.0,15.0,1.0,0.0
4911,44.0,0.0,60.0,0.0,0.0
4912,56.0,15.0,60.0,0.0,0.0
4913,68.0,9.0,40.0,1.0,0.0
4914,70.0,0.0,30.0,0.0,0.0
4915,56.0,0.0,30.0,1.0,0.0
4916,68.0,15.0,30.0,0.0,0.0
4917,67.0,1.0,30.0,0.0,0.0
4918,54.0,0.0,30.0,1.0,0.0
4919,63.0,4.0,60.0,1.0,0.0
4920,68.0,14.0,30.0,1.0,0.0
4921,56.0,0.0,60.0,1.0,0.0
4922,68.0,30.0,30.0,0.0,0.0
4923,44.0,11.0,15.0,0.0,0.0
4924,56.0,0.0,15.0,0.0,0.0
4925,72.0,15.0,30.0,0.0,0.0
4926,60.0,4.0,90.0,1.0,0.0
4927,68.0,5.0,90.0,1.0,0.0
4928,51.0,26.0,60.0,1.0,0.0
4929,42.0,0.0,40.0,0.0,0.0
4930,54.0,15.0,40.0,0.0,0.0
4931,54.0,0.0,60.0,1.0,0.0
4932,68.0,0.0,30.0,0.0,0.0
4933,53.0,15.0,40.0,0.0,0.0
4934,41.0,10.0,30.0,0.0,0.0
4935,61.0,26.0,60.0,1.0,0.0
4936,53.0,0.0,60.0,1.0,0.0
4937,73.0,0.0,30.0,0.0,0.0
4938,68.0,0.0,30.0,0.0,0.0
4939,68.0,7.0,90.0,1.0,0.0
4940,54.0,0.0,60.0,1.0,0.0
4941,75.0,0.0,30.0,0.0,0.0
4942,51.0,0.0,40.0,0.0,0.0
4943,39.0,12.0,40.0,0.0,0.0
4944,72.0,15.0,30.0,0.0,0.0
4945,51.0,0.0,60.0,1.0,0.0
4946,63.0,3.0,60.0,1.0,0.0
4947,68.0,30.0,30.0,0.0,0.0
4948,65.0,3.0,60.0,1.0,0.0
4949,37.0,8.0,30.0,0.0,0.0
4950,77.0,0.0,30.0,0.0,0.0
4951,73.0,0.0,30.0,0.0,0.0
4952,49.0,12.0,40.0,0.0,0.0
4953,53.0,0.0,60.0,1.0,0.0
4954,49.0,30.0,60.0,1.0,0.0
4955,68.0,0.0,30.0,0.0,0.0
4956,78.0,30.0,30.0,0.0,0.0
4957,51.0,16.0,60.0,1.0,0.0
4958,48.0,0.0,60.0,1.0,0.0
4959,66.0,14.0,60.0,1.0,0.0
4960,68.0,0.0,150.0,1.0,0.0
4961,36.0,0.0,90.0,0.0,0.0
4962,48.0,12.0,90.0,0.0,0.0
4963,75.0,0.0,30.0,0.0,0.0
4964,68.0,15.0,30.0,0.0,0.0
4965,78.0,0.0,15.0,0.0,0.0
4966,48.0,0.0,30.0,1.0,0.0
4967,51.0,30.0,30.0,1.0,0.0
4968,66.0,3.0,30.0,1.0,0.0
4969,37.0,10.0,90.0,0.0,0.0
4970,49.0,6.0,30.0,1.0,0.0
4971,77.0,0.0,30.0,0.0,0.0
4972,65.0,24.0,40.0,1.0,0.0
4973,49.0,0.0,90.0,0.0,0.0
4974,73.0,15.0,40.0,0.0,0.0
4975,49.0,0.0,60.0,1.0,0.0
4976,68.0,8.0,40.0,1.0,0.0
4977,65.0,5.0,60.0,1.0,0.0
4978,68.0,7.0,30.0,0.0,0.0
4979,77.0,30.0,30.0,0.0,0.0
4980,68.0,16.0,40.0,1.0,0.0
4981,51.0,7.0,30.0,1.0,0.0
4982,48.0,30.0,60.0,1.0,0.0
4983,56.0,0.0,30.0,0.0,0.0
4984,63.0,7.0,60.0,1.0,0.0
4985,48.0,0.0,30.0,0.0,0.0
4986,75.0,0.0,30.0,0.0,0.0
4987,72.0,0.0,30.0,0.0,0.0
4988,75.0,0.0,30.0,0.0,0.0
4989,44.0,30.0,60.0,1.0,0.0
4990,56.0,24.0,30.0,0.0,0.0
4991,56.0,0.0,120.0,1.0,0.0
4992,44.0,0.0,30.0,0.0,0.0
4993,60.0,3.0,60.0,1.0,0.0
4994,68.0,3.0,60.0,1.0,0.0
4995,72.0,0.0,30.0,0.0,0.0
4996,73.0,14.0,60.0,1.0,0.0
4997,65.0,9.0,60.0,1.0,0.0
4998,73.0,0.0,60.0,0.0,0.0
4999,56.0,6.0,40.0,0.0,0.0
5000,46.0,16.0,60.0,1.0,0.0
5001,46.0,15.0,30.0,0.0,0.0
5002,55.0,0.0,60.0,1.0,0.0
5003,51.0,12.0,40.0,0.0,0.0
5004,39.0,13.0,30.0,0.0,0.0
5005,63.0,2.0,40.0,1.0,0.0
5006,67.0,0.0,30.0,0.0,0.0
5007,51.0,15.0,60.0,1.0,0.0
5008,72.0,0.0,30.0,0.0,0.0
5009,73.0,3.0,30.0,1.0,0.0
5010,70.0,0.0,30.0,0.0,0.0
5011,56.0,0.0,90.0,1.0,0.0
5012,72.0,4.0,40.0,1.0,0.0
5013,32.0,8.0,90.0,0.0,0.0
5014,44.0,15.0,90.0,0.0,0.0
5015,63.0,4.0,150.0,1.0,0.0
5016,68.0,26.0,15.0,0.0,0.0
5017,44.0,0.0,120.0,1.0,0.0
5018,67.0,45.0,15.0,0.0,0.0
5019,72.0,7.0,40.0,1.0,0.0
5020,80.0,0.0,30.0,0.0,0.0
5021,79.0,26.0,30.0,0.0,0.0
5022,72.0,6.0,90.0,1.0,0.0
5023,77.0,30.0,30.0,0.0,0.0
5024,60.0,24.0,60.0,0.0,0.0
5025,56.0,0.0,60.0,0.0,0.0
5026,56.0,30.0,240.0,1.0,0.0
5027,75.0,0.0,30.0,0.0,0.0
5028,63.0,1.0,60.0,1.0,0.0
5029,44.0,30.0,60.0,0.0,0.0
5030,73.0,15.0,30.0,0.0,0.0
5031,72.0,11.0,15.0,0.0,0.0
5032,72.0,3.0,30.0,1.0,0.0
5033,70.0,0.0,120.0,1.0,0.0
5034,72.0,15.0,30.0,0.0,0.0
5035,65.0,7.0,60.0,1.0,0.0
5036,58.0,0.0,60.0,0.0,0.0
5037,50.0,0.0,90.0,0.0,0.0
5038,56.0,15.0,60.0,0.0,0.0
5039,53.0,0.0,60.0,0.0,0.0
5040,70.0,23.0,15.0,0.0,0.0
5041,79.0,29.0,30.0,0.0,0.0
5042,50.0,0.0,60.0,1.0,0.0
5043,77.0,0.0,30.0,0.0,0.0
5044,65.0,1.0,30.0,1.0,0.0
5045,52.0,0.0,60.0,0.0,0.0
5046,60.0,0.0,60.0,0.0,0.0
5047,55.0,0.0,60.0,0.0,0.0
5048,58.0,15.0,60.0,0.0,0.0
5049,76.0,30.0,30.0,0.0,0.0
5050,55.0,0.0,180.0,1.0,0.0
5051,60.0,4.0,150.0,1.0,0.0
5052,52.0,15.0,60.0,1.0,0.0
5053,73.0,0.0,30.0,0.0,0.0
5054,72.0,15.0,30.0,0.0,0.0
5055,70.0,6.0,60.0,1.0,0.0
5056,52.0,30.0,30.0,1.0,0.0
5057,70.0,9.0,15.0,0.0,0.0
5058,70.0,10.0,30.0,0.0,0.0
5059,68.0,16.0,40.0,1.0,0.0
5060,55.0,5.0,90.0,0.0,0.0
5061,48.0,15.0,90.0,0.0,0.0
5062,41.0,0.0,90.0,0.0,0.0
5063,68.0,30.0,30.0,0.0,0.0
5064,60.0,7.0,40.0,1.0,0.0
5065,77.0,0.0,30.0,0.0,0.0
5066,68.0,3.0,30.0,1.0,0.0
5067,75.0,30.0,30.0,0.0,0.0
5068,55.0,0.0,30.0,1.0,0.0
5069,60.0,22.0,40.0,1.0,0.0
5070,68.0,16.0,120.0,1.0,0.0
5071,73.0,0.0,30.0,0.0,0.0
5072,60.0,0.0,60.0,0.0,0.0
5073,53.0,0.0,60.0,0.0,0.0
5074,53.0,0.0,30.0,1.0,0.0
5075,56.0,0.0,60.0,0.0,0.0
5076,72.0,30.0,30.0,0.0,0.0
5077,60.0,11.0,40.0,1.0,0.0
5078,53.0,0.0,30.0,1.0,0.0
5079,46.0,15.0,30.0,1.0,0.0
5080,44.0,0.0,60.0,1.0,0.0
5081,44.0,14.0,60.0,0.0,0.0
5082,70.0,0.0,30.0,0.0,0.0
5083,68.0,4.0,15.0,0.0,0.0
5084,53.0,0.0,30.0,1.0,0.0
5085,66.0,21.0,90.0,1.0,0.0
5086,46.0,15.0,30.0,1.0,0.0
5087,61.0,22.0,120.0,1.0,0.0
5088,68.0,0.0,30.0,0.0,0.0
5089,51.0,0.0,90.0,0.0,0.0
5090,48.0,0.0,90.0,0.0,0.0
5091,56.0,9.0,90.0,0.0,0.0
5092,54.0,0.0,90.0,0.0,0.0
5093,66.0,45.0,15.0,0.0,0.0
5094,46.0,0.0,30.0,1.0,0.0
5095,75.0,0.0,30.0,0.0,0.0
5096,53.0,8.0,60.0,1.0,0.0
5097,73.0,0.0,30.0,0.0,0.0
5098,56.0,12.0,90.0,1.0,0.0
5099,72.0,7.0,30.0,0.0,0.0
5100,66.0,23.0,40.0,1.0,0.0
5101,51.0,0.0,90.0,0.0,0.0
5102,48.0,0.0,90.0,0.0,0.0
5103,48.0,30.0,120.0,1.0,0.0
5104,56.0,3.0,90.0,0.0,0.0
5105,51.0,0.0,240.0,1.0,0.0
5106,54.0,0.0,90.0,0.0,0.0
5107,70.0,30.0,30.0,0.0,0.0
5108,68.0,0.0,30.0,0.0,0.0
5109,66.0,10.0,40.0,1.0,0.0
5110,66.0,5.0,15.0,0.0,0.0
5111,65.0,24.0,150.0,1.0,0.0
5112,37.0,1.0,90.0,0.0,0.0
5113,44.0,0.0,90.0,0.0,0.0
5114,51.0,0.0,90.0,0.0,0.0
5115,56.0,18.0,60.0,1.0,0.0
5116,66.0,30.0,30.0,0.0,0.0
5117,49.0,30.0,120.0,1.0,0.0
5118,65.0,12.0,30.0,0.0,0.0
5119,73.0,15.0,30.0,0.0,0.0
5120,56.0,14.0,15.0,1.0,0.0
5121,72.0,0.0,30.0,0.0,0.0
5122,56.0,0.0,40.0,1.0,0.0
5123,70.0,0.0,30.0,0.0,0.0
5124,49.0,15.0,90.0,1.0,0.0
5125,56.0,0.0,60.0,0.0,0.0
5126,53.0,15.0,60.0,0.0,0.0
5127,49.0,15.0,60.0,0.0,0.0
5128,41.0,6.0,30.0,1.0,0.0
5129,68.0,0.0,30.0,0.0,0.0
5130,66.0,0.0,30.0,0.0,0.0
5131,41.0,0.0,40.0,0.0,0.0
5132,56.0,14.0,40.0,1.0,0.0
5133,65.0,1.0,60.0,1.0,0.0
5134,41.0,0.0,60.0,1.0,0.0
5135,65.0,30.0,30.0,0.0,0.0
5136,46.0,15.0,90.0,0.0,0.0
5137,51.0,0.0,90.0,0.0,0.0
5138,43.0,0.0,120.0,1.0,0.0
5139,43.0,0.0,90.0,0.0,0.0
5140,63.0,30.0,30.0,0.0,0.0
5141,58.0,0.0,120.0,1.0,0.0
5142,49.0,0.0,90.0,0.0,0.0
5143,63.0,26.0,150.0,1.0,0.0
5144,49.0,30.0,60.0,1.0,0.0
5145,63.0,0.0,30.0,0.0,0.0
5146,72.0,15.0,30.0,0.0,0.0
5147,70.0,30.0,30.0,0.0,0.0
5148,49.0,0.0,30.0,1.0,0.0
5149,51.0,15.0,90.0,0.0,0.0
5150,48.0,12.0,90.0,0.0,0.0
5151,45.0,0.0,90.0,0.0,0.0
5152,53.0,3.0,90.0,1.0,0.0
5153,45.0,0.0,120.0,1.0,0.0
5154,69.0,4.0,30.0,0.0,0.0
5155,48.0,0.0,30.0,1.0,0.0
5156,66.0,30.0,30.0,0.0,0.0
5157,65.0,0.0,30.0,0.0,0.0
5158,48.0,0.0,30.0,1.0,0.0
5159,63.0,28.0,60.0,1.0,0.0
5160,63.0,2.0,30.0,0.0,0.0
5161,53.0,7.0,90.0,1.0,0.0
5162,61.0,30.0,30.0,0.0,0.0
5163,49.0,0.0,60.0,1.0,0.0
5164,49.0,0.0,30.0,0.0,0.0
5165,46.0,9.0,60.0,1.0,0.0
5166,46.0,0.0,30.0,0.0,0.0
5167,61.0,14.0,60.0,1.0,0.0
5168,65.0,0.0,30.0,0.0,0.0
5169,63.0,15.0,30.0,0.0,0.0
5170,56.0,0.0,90.0,0.0,0.0
5171,51.0,0.0,60.0,1.0,0.0
5172,56.0,14.0,90.0,1.0,0.0
5173,63.0,4.0,60.0,1.0,0.0
5174,51.0,11.0,40.0,0.0,0.0
5175,48.0,0.0,30.0,0.0,0.0
5176,48.0,0.0,60.0,1.0,0.0
5177,66.0,30.0,30.0,0.0,0.0
5178,65.0,11.0,30.0,0.0,0.0
5179,65.0,5.0,60.0,1.0,0.0
5180,49.0,0.0,30.0,0.0,0.0
5181,53.0,0.0,30.0,0.0,0.0
5182,53.0,0.0,60.0,1.0,0.0
5183,49.0,0.0,60.0,1.0,0.0
5184,68.0,30.0,30.0,0.0,0.0
5185,67.0,0.0,30.0,0.0,0.0
5186,51.0,2.0,60.0,1.0,0.0
5187,55.0,15.0,40.0,0.0,0.0
5188,67.0,19.0,60.0,1.0,0.0
5189,51.0,0.0,30.0,0.0,0.0
5190,49.0,0.0,30.0,1.0,0.0
5191,61.0,9.0,60.0,1.0,0.0
5192,55.0,0.0,60.0,1.0,0.0
5193,61.0,15.0,30.0,0.0,0.0
5194,70.0,0.0,30.0,0.0,0.0
5195,68.0,0.0,30.0,0.0,0.0
5196,68.0,0.0,60.0,1.0,0.0
5197,53.0,15.0,60.0,1.0,0.0
5198,56.0,0.0,60.0,1.0,0.0
5199,60.0,2.0,60.0,1.0,0.0
5200,56.0,0.0,30.0,0.0,0.0
5201,60.0,28.0,30.0,0.0,0.0
5202,53.0,0.0,90.0,0.0,0.0
5203,72.0,0.0,30.0,0.0,0.0
5204,58.0,0.0,60.0,1.0,0.0
5205,55.0,0.0,15.0,0.0,0.0
5206,58.0,15.0,15.0,0.0,0.0
5207,70.0,30.0,60.0,1.0,0.0
5208,55.0,0.0,60.0,1.0,0.0
5209,70.0,30.0,30.0,0.0,0.0
5210,63.0,1.0,120.0,1.0,0.0
5211,73.0,0.0,30.0,0.0,0.0
5212,56.0,29.0,30.0,0.0,0.0
5213,60.0,9.0,60.0,1.0,0.0
5214,56.0,0.0,60.0,1.0,0.0
5215,72.0,21.0,60.0,1.0,0.0
5216,72.0,0.0,30.0,0.0,0.0
5217,75.0,0.0,30.0,0.0,0.0
5218,74.0,0.0,60.0,1.0,0.0
5219,74.0,15.0,30.0,0.0,0.0
5220,53.0,0.0,60.0,1.0,0.0
5221,53.0,0.0,40.0,0.0,0.0
5222,56.0,30.0,60.0,1.0,0.0
5223,56.0,0.0,30.0,0.0,0.0
5224,68.0,9.0,60.0,1.0,0.0
5225,80.0,6.0,15.0,0.0,0.0
5226,55.0,15.0,40.0,0.0,0.0
5227,79.0,15.0,30.0,0.0,0.0
5228,58.0,0.0,40.0,0.0,0.0
5229,58.0,0.0,120.0,1.0,0.0
5230,51.0,0.0,40.0,0.0,0.0
5231,51.0,0.0,90.0,1.0,0.0
5232,75.0,29.0,120.0,1.0,0.0
5233,67.0,5.0,120.0,1.0,0.0
5234,75.0,30.0,30.0,0.0,0.0
5235,70.0,15.0,30.0,0.0,0.0
5236,51.0,10.0,40.0,0.0,0.0
5237,39.0,0.0,40.0,0.0,0.0
5238,67.0,1.0,30.0,0.0,0.0
5239,75.0,15.0,30.0,0.0,0.0
5240,39.0,0.0,30.0,0.0,0.0
5241,63.0,8.0,90.0,1.0,0.0
5242,51.0,15.0,40.0,0.0,0.0
5243,51.0,0.0,90.0,1.0,0.0
5244,55.0,0.0,120.0,1.0,0.0
5245,63.0,30.0,30.0,0.0,0.0
5246,39.0,12.0,40.0,0.0,0.0
5247,75.0,7.0,30.0,0.0,0.0
5248,51.0,0.0,40.0,0.0,0.0
5249,63.0,30.0,30.0,0.0,0.0
5250,55.0,0.0,90.0,1.0,0.0
5251,75.0,15.0,40.0,0.0,0.0
5252,75.0,1.0,90.0,1.0,0.0
5253,39.0,0.0,30.0,0.0,0.0
5254,51.0,15.0,30.0,0.0,0.0
5255,51.0,0.0,90.0,1.0,0.0
5256,63.0,14.0,90.0,1.0,0.0
5257,70.0,30.0,30.0,0.0,0.0
5258,67.0,0.0,30.0,0.0,0.0
5259,51.0,0.0,30.0,0.0,0.0
5260,39.0,15.0,40.0,0.0,0.0
5261,63.0,30.0,30.0,0.0,0.0
5262,51.0,11.0,90.0,1.0,0.0
5263,55.0,15.0,60.0,0.0,0.0
5264,51.0,0.0,30.0,0.0,0.0
5265,75.0,30.0,30.0,0.0,0.0
5266,75.0,1.0,90.0,1.0,0.0
5267,58.0,15.0,60.0,0.0,0.0
5268,63.0,3.0,90.0,1.0,0.0
5269,55.0,0.0,90.0,1.0,0.0
5270,63.0,0.0,30.0,0.0,0.0
5271,51.0,0.0,30.0,0.0,0.0
5272,75.0,0.0,30.0,0.0,0.0
5273,63.0,45.0,15.0,0.0,0.0
5274,75.0,15.0,60.0,0.0,0.0
5275,56.0,0.0,420.0,0.0,0.0
5276,75.0,8.0,120.0,1.0,0.0
5277,51.0,30.0,30.0,0.0,0.0
5278,56.0,7.0,120.0,1.0,0.0
5279,51.0,0.0,90.0,1.0,0.0
5280,64.0,14.0,420.0,0.0,0.0
5281,64.0,28.0,90.0,1.0,0.0
5282,51.0,15.0,15.0,0.0,0.0
5283,80.0,2.0,30.0,0.0,0.0
5284,76.0,0.0,30.0,0.0,0.0
5285,51.0,1.0,90.0,1.0,0.0
5286,56.0,0.0,90.0,1.0,0.0
5287,64.0,3.0,90.0,1.0,0.0
5288,73.0,15.0,15.0,0.0,0.0
5289,51.0,45.0,30.0,0.0,0.0
5290,73.0,59.0,90.0,1.0,0.0
5291,51.0,0.0,30.0,0.0,0.0
5292,73.0,12.0,15.0,0.0,0.0
5293,51.0,30.0,30.0,0.0,0.0
5294,73.0,0.0,30.0,0.0,0.0
5295,73.0,15.0,60.0,1.0,0.0
5296,64.0,1.0,60.0,1.0,0.0
5297,51.0,14.0,60.0,1.0,0.0
5298,56.0,14.0,90.0,1.0,0.0
5299,73.0,2.0,40.0,0.0,0.0
5300,51.0,0.0,30.0,0.0,0.0
5301,56.0,0.0,30.0,1.0,0.0
5302,51.0,25.0,30.0,1.0,0.0
5303,64.0,1.0,15.0,1.0,0.0
5304,73.0,13.0,15.0,1.0,0.0
5305,73.0,5.0,20.0,1.0,0.0
5306,73.0,0.0,30.0,0.0,0.0
5307,56.0,0.0,30.0,1.0,0.0
5308,51.0,5.0,30.0,0.0,0.0
5309,51.0,0.0,30.0,1.0,0.0
5310,64.0,40.0,30.0,1.0,0.0
5311,64.0,1.0,30.0,1.0,0.0
5312,51.0,0.0,30.0,0.0,0.0
5313,73.0,12.0,30.0,1.0,0.0
5314,73.0,45.0,40.0,0.0,0.0
5315,56.0,0.0,30.0,1.0,0.0
5316,51.0,3.0,30.0,1.0,0.0
5317,63.0,0.0,420.0,0.0,0.0
5318,54.0,15.0,420.0,0.0,0.0
5319,51.0,30.0,30.0,0.0,0.0
5320,51.0,12.0,90.0,1.0,0.0
5321,54.0,0.0,90.0,1.0,0.0
5322,73.0,11.0,150.0,1.0,0.0
5323,63.0,18.0,90.0,1.0,0.0
5324,73.0,30.0,60.0,0.0,0.0
5325,51.0,0.0,30.0,0.0,0.0
5326,78.0,0.0,30.0,0.0,0.0
5327,75.0,19.0,30.0,0.0,0.0
5328,54.0,3.0,90.0,1.0,0.0
5329,71.0,42.0,90.0,1.0,0.0
5330,63.0,9.0,90.0,1.0,0.0
5331,71.0,45.0,30.0,0.0,0.0
5332,51.0,0.0,90.0,1.0,0.0
5333,51.0,0.0,30.0,0.0,0.0
5334,51.0,6.0,15.0,0.0,0.0
5335,71.0,0.0,30.0,0.0,0.0
5336,51.0,13.0,60.0,1.0,0.0
5337,63.0,5.0,60.0,1.0,0.0
5338,51.0,15.0,15.0,0.0,0.0
5339,54.0,0.0,60.0,1.0,0.0
5340,71.0,12.0,90.0,1.0,0.0
5341,71.0,30.0,30.0,0.0,0.0
5342,51.0,14.0,30.0,0.0,0.0
5343,71.0,0.0,30.0,0.0,0.0
5344,71.0,13.0,15.0,1.0,0.0
5345,63.0,3.0,15.0,1.0,0.0
5346,54.0,0.0,30.0,1.0,0.0
5347,51.0,15.0,30.0,1.0,0.0
5348,51.0,15.0,15.0,0.0,0.0
5349,63.0,33.0,40.0,1.0,0.0
5350,54.0,0.0,30.0,1.0,0.0
5351,51.0,0.0,30.0,1.0,0.0
5352,71.0,5.0,40.0,1.0,0.0
5353,71.0,7.0,30.0,0.0,0.0
5354,63.0,9.0,40.0,1.0,0.0
5355,51.0,6.0,30.0,1.0,0.0
5356,71.0,0.0,40.0,1.0,0.0
5357,71.0,45.0,40.0,0.0,0.0
5358,51.0,0.0,30.0,0.0,0.0
5359,54.0,0.0,30.0,1.0,0.0
5360,71.0,15.0,60.0,0.0,0.0
5361,51.0,15.0,210.0,1.0,0.0
5362,61.0,5.0,240.0,0.0,0.0
5363,51.0,30.0,30.0,0.0,0.0
5364,52.0,0.0,210.0,0.0,0.0
5365,71.0,3.0,120.0,1.0,0.0
5366,52.0,0.0,210.0,1.0,0.0
5367,61.0,25.0,240.0,1.0,0.0
5368,76.0,27.0,30.0,0.0,0.0
5369,51.0,15.0,15.0,0.0,0.0
5370,73.0,15.0,30.0,0.0,0.0
5371,70.0,25.0,240.0,1.0,0.0
5372,51.0,15.0,15.0,0.0,0.0
5373,70.0,45.0,30.0,0.0,0.0
5374,70.0,15.0,40.0,0.0,0.0
5375,51.0,15.0,15.0,0.0,0.0
5376,51.0,15.0,210.0,1.0,0.0
5377,59.0,5.0,120.0,0.0,0.0
5378,51.0,30.0,30.0,0.0,0.0
5379,70.0,30.0,60.0,0.0,0.0
5380,59.0,2.0,240.0,1.0,0.0
5381,75.0,30.0,30.0,0.0,0.0
5382,51.0,0.0,30.0,0.0,0.0
5383,71.0,0.0,30.0,0.0,0.0
5384,68.0,45.0,30.0,0.0,0.0
5385,56.0,0.0,120.0,0.0,0.0
5386,51.0,0.0,30.0,0.0,0.0
5387,68.0,18.0,240.0,1.0,0.0
5388,51.0,15.0,15.0,0.0,0.0
5389,68.0,13.0,40.0,0.0,0.0
5390,39.0,15.0,210.0,1.0,0.0
5391,68.0,30.0,60.0,0.0,0.0
5392,49.0,7.0,240.0,1.0,0.0
5393,39.0,30.0,30.0,0.0,0.0
5394,51.0,0.0,30.0,0.0,0.0
5395,58.0,23.0,240.0,1.0,0.0
5396,51.0,30.0,30.0,0.0,0.0
5397,73.0,0.0,30.0,0.0,0.0
5398,39.0,0.0,30.0,0.0,0.0
5399,70.0,12.0,30.0,0.0,0.0
5400,66.0,28.0,240.0,1.0,0.0
5401,66.0,0.0,30.0,0.0,0.0
5402,51.0,60.0,30.0,0.0,0.0
5403,39.0,0.0,30.0,0.0,0.0
5404,66.0,15.0,40.0,0.0,0.0
5405,51.0,0.0,30.0,0.0,0.0
5406,39.0,0.0,30.0,0.0,0.0
5407,47.0,39.0,210.0,1.0,0.0
5408,56.0,36.0,240.0,1.0,0.0
5409,51.0,30.0,30.0,0.0,0.0
5410,39.0,0.0,30.0,0.0,0.0
5411,39.0,0.0,210.0,1.0,0.0
5412,66.0,15.0,60.0,0.0,0.0
5413,71.0,15.0,15.0,0.0,0.0
5414,39.0,30.0,30.0,0.0,0.0
5415,51.0,0.0,30.0,0.0,0.0
5416,68.0,2.0,30.0,0.0,0.0
5417,39.0,0.0,30.0,0.0,0.0
5418,51.0,60.0,30.0,0.0,0.0
5419,64.0,27.0,240.0,1.0,0.0
5420,64.0,0.0,30.0,0.0,0.0
5421,51.0,0.0,30.0,0.0,0.0
5422,64.0,0.0,30.0,0.0,0.0
5423,39.0,0.0,30.0,0.0,0.0
5424,64.0,30.0,60.0,0.0,0.0
5425,46.0,45.0,240.0,1.0,0.0
5426,51.0,15.0,40.0,0.0,0.0
5427,39.0,0.0,40.0,0.0,0.0
5428,54.0,4.0,240.0,1.0,0.0
5429,39.0,0.0,450.0,1.0,0.0
5430,70.0,30.0,30.0,0.0,0.0
5431,51.0,0.0,30.0,0.0,0.0
5432,39.0,0.0,30.0,0.0,0.0
5433,66.0,3.0,30.0,0.0,0.0
5434,63.0,60.0,30.0,0.0,0.0
5435,51.0,0.0,30.0,0.0,0.0
5436,63.0,1.0,240.0,1.0,0.0
5437,39.0,0.0,30.0,0.0,0.0
5438,39.0,26.0,30.0,0.0,0.0
5439,63.0,0.0,30.0,0.0,0.0
5440,51.0,0.0,30.0,0.0,0.0
5441,63.0,30.0,60.0,0.0,0.0
5442,44.0,1.0,240.0,1.0,0.0
5443,39.0,15.0,40.0,0.0,0.0
5444,52.0,9.0,240.0,1.0,0.0
5445,51.0,0.0,40.0,0.0,0.0
5446,51.0,15.0,30.0,0.0,0.0
5447,68.0,14.0,40.0,0.0,0.0
5448,39.0,0.0,30.0,0.0,0.0
5449,64.0,30.0,30.0,0.0,0.0
5450,39.0,0.0,30.0,0.0,0.0
5451,51.0,0.0,30.0,0.0,0.0
5452,62.0,45.0,30.0,0.0,0.0
5453,62.0,44.0,120.0,1.0,0.0
5454,39.0,0.0,15.0,0.0,0.0
5455,62.0,21.0,30.0,0.0,0.0
5456,51.0,15.0,15.0,0.0,0.0
5457,63.0,30.0,60.0,0.0,0.0
5458,39.0,0.0,40.0,0.0,0.0
5459,43.0,0.0,90.0,1.0,0.0
5460,51.0,10.0,40.0,1.0,0.0
5461,39.0,0.0,120.0,1.0,0.0
5462,51.0,5.0,40.0,0.0,0.0
5463,51.0,8.0,30.0,0.0,0.0
5464,63.0,5.0,40.0,1.0,0.0
5465,39.0,0.0,30.0,0.0,0.0
5466,53.0,30.0,30.0,0.0,0.0
5467,41.0,0.0,30.0,0.0,0.0
5468,63.0,10.0,90.0,1.0,0.0
5469,43.0,0.0,30.0,0.0,0.0
5470,55.0,30.0,30.0,0.0,0.0
5471,44.0,30.0,30.0,0.0,0.0
5472,56.0,0.0,30.0,0.0,0.0
5473,58.0,0.0,30.0,0.0,0.0
5474,46.0,5.0,30.0,0.0,0.0
5475,55.0,30.0,30.0,0.0,0.0
5476,43.0,15.0,15.0,0.0,0.0
5477,46.0,0.0,210.0,0.0,0.0
5478,51.0,15.0,30.0,0.0,0.0
5479,49.0,12.0,210.0,0.0,0.0
5480,63.0,25.0,60.0,1.0,0.0
5481,39.0,15.0,40.0,0.0,0.0
5482,63.0,5.0,30.0,0.0,0.0
5483,61.0,5.0,40.0,1.0,0.0
5484,51.0,0.0,60.0,1.0,0.0
5485,51.0,10.0,30.0,0.0,0.0
5486,39.0,15.0,40.0,0.0,0.0
5487,55.0,30.0,60.0,1.0,0.0
5488,63.0,0.0,30.0,0.0,0.0
5489,61.0,6.0,40.0,1.0,0.0
5490,56.0,30.0,60.0,1.0,0.0
5491,41.0,15.0,40.0,0.0,0.0
5492,53.0,9.0,30.0,0.0,0.0
5493,53.0,0.0,60.0,1.0,0.0
5494,63.0,0.0,30.0,0.0,0.0
5495,55.0,8.0,30.0,1.0,0.0
5496,55.0,0.0,30.0,0.0,0.0
5497,75.0,7.0,40.0,1.0,0.0
5498,61.0,3.0,60.0,1.0,0.0
5499,58.0,30.0,60.0,1.0,0.0
5500,43.0,0.0,30.0,0.0,0.0
5501,63.0,0.0,30.0,0.0,0.0
5502,44.0,0.0,40.0,0.0,0.0
5503,56.0,0.0,60.0,1.0,0.0
5504,56.0,15.0,30.0,0.0,0.0
5505,48.0,9.0,40.0,0.0,0.0
5506,75.0,1.0,120.0,1.0,0.0
5507,60.0,6.0,60.0,1.0,0.0
5508,63.0,0.0,30.0,0.0,0.0
5509,68.0,1.0,60.0,1.0,0.0
5510,51.0,0.0,30.0,0.0,0.0
5511,48.0,28.0,30.0,0.0,0.0
5512,60.0,0.0,30.0,0.0,0.0
5513,63.0,0.0,60.0,1.0,0.0
5514,60.0,30.0,60.0,1.0,0.0
5515,63.0,0.0,30.0,0.0,0.0
5516,46.0,15.0,30.0,0.0,0.0
5517,58.0,0.0,30.0,0.0,0.0
5518,63.0,26.0,90.0,1.0,0.0
5519,61.0,15.0,60.0,1.0,0.0
5520,49.0,0.0,30.0,0.0,0.0
5521,67.0,3.0,60.0,1.0,0.0
5522,58.0,0.0,60.0,1.0,0.0
5523,55.0,12.0,40.0,0.0,0.0
5524,63.0,0.0,30.0,0.0,0.0
5525,60.0,4.0,60.0,1.0,0.0
5526,56.0,0.0,30.0,0.0,0.0
5527,56.0,0.0,60.0,1.0,0.0
5528,51.0,15.0,15.0,0.0,0.0
5529,68.0,26.0,60.0,1.0,0.0
5530,48.0,4.0,30.0,0.0,0.0
5531,44.0,0.0,30.0,0.0,0.0
5532,63.0,0.0,30.0,0.0,0.0
5533,55.0,0.0,60.0,1.0,0.0
5534,55.0,0.0,30.0,0.0,0.0
5535,58.0,30.0,60.0,1.0,0.0
5536,49.0,0.0,210.0,0.0,0.0
5537,46.0,0.0,210.0,0.0,0.0
5538,43.0,30.0,30.0,0.0,0.0
5539,63.0,8.0,150.0,1.0,0.0
5540,63.0,0.0,30.0,0.0,0.0
5541,51.0,0.0,60.0,1.0,0.0
5542,51.0,13.0,30.0,0.0,0.0
5543,73.0,17.0,40.0,1.0,0.0
5544,55.0,30.0,60.0,1.0,0.0
5545,39.0,0.0,30.0,0.0,0.0
5546,63.0,0.0,30.0,0.0,0.0
5547,56.0,0.0,60.0,1.0,0.0
5548,73.0,19.0,40.0,1.0,0.0
5549,53.0,0.0,30.0,0.0,0.0
5550,41.0,3.0,30.0,0.0,0.0
5551,53.0,19.0,60.0,1.0,0.0
5552,63.0,0.0,30.0,0.0,0.0
5553,58.0,30.0,60.0,1.0,0.0
5554,55.0,0.0,30.0,0.0,0.0
5555,63.0,11.0,20.0,1.0,0.0
5556,55.0,0.0,60.0,1.0,0.0
5557,43.0,17.0,30.0,0.0,0.0
5558,73.0,5.0,60.0,1.0,0.0
5559,63.0,8.0,15.0,1.0,0.0
5560,63.0,0.0,30.0,0.0,0.0
5561,48.0,0.0,30.0,0.0,0.0
5562,56.0,15.0,30.0,0.0,0.0
5563,63.0,14.0,90.0,1.0,0.0
5564,56.0,1.0,90.0,1.0,0.0
5565,44.0,10.0,90.0,0.0,0.0
5566,72.0,4.0,90.0,1.0,0.0
5567,60.0,15.0,30.0,1.0,0.0
5568,63.0,15.0,15.0,0.0,0.0
5569,48.0,0.0,40.0,0.0,0.0
5570,51.0,11.0,15.0,0.0,0.0
5571,56.0,30.0,30.0,1.0,0.0
5572,63.0,0.0,15.0,0.0,0.0
5573,68.0,5.0,20.0,1.0,0.0
5574,46.0,0.0,60.0,0.0,0.0
5575,43.0,15.0,60.0,0.0,0.0
5576,55.0,15.0,90.0,1.0,0.0
5577,75.0,3.0,240.0,1.0,0.0
5578,58.0,30.0,120.0,1.0,0.0
5579,63.0,13.0,120.0,1.0,0.0
5580,63.0,30.0,30.0,0.0,0.0
5581,75.0,15.0,30.0,0.0,0.0
5582,51.0,0.0,30.0,0.0,0.0
5583,63.0,0.0,30.0,0.0,0.0
5584,75.0,2.0,15.0,0.0,0.0
5585,45.0,0.0,90.0,0.0,0.0
5586,51.0,15.0,90.0,0.0,0.0
5587,48.0,0.0,90.0,0.0,0.0
5588,65.0,13.0,240.0,1.0,0.0
5589,79.0,30.0,30.0,0.0,0.0
5590,57.0,0.0,120.0,1.0,0.0
5591,60.0,30.0,120.0,1.0,0.0
5592,53.0,0.0,210.0,0.0,0.0
5593,77.0,30.0,30.0,0.0,0.0
5594,76.0,0.0,30.0,0.0,0.0
5595,77.0,12.0,15.0,0.0,0.0
5596,58.0,0.0,120.0,1.0,0.0
5597,61.0,2.0,120.0,1.0,0.0
5598,46.0,0.0,210.0,0.0,0.0
5599,49.0,0.0,210.0,0.0,0.0
5600,77.0,15.0,30.0,0.0,0.0
5601,73.0,1.0,240.0,1.0,0.0
5602,82.0,45.0,15.0,0.0,0.0
5603,70.0,15.0,30.0,0.0,0.0
5604,82.0,15.0,15.0,0.0,0.0
5605,43.0,0.0,90.0,0.0,0.0
5606,51.0,30.0,120.0,0.0,0.0
5607,58.0,0.0,120.0,1.0,0.0
5608,55.0,0.0,120.0,1.0,0.0
5609,63.0,8.0,240.0,1.0,0.0
5610,77.0,30.0,15.0,0.0,0.0
5611,75.0,45.0,15.0,0.0,0.0
5612,74.0,15.0,30.0,0.0,0.0
5613,75.0,14.0,15.0,0.0,0.0
5614,75.0,15.0,30.0,0.0,0.0
5615,48.0,0.0,210.0,0.0,0.0
5616,44.0,30.0,240.0,0.0,0.0
5617,60.0,30.0,120.0,1.0,0.0
5618,72.0,5.0,240.0,1.0,0.0
5619,56.0,0.0,120.0,1.0,0.0
5620,80.0,45.0,15.0,0.0,0.0
5621,68.0,15.0,30.0,0.0,0.0
5622,80.0,7.0,15.0,0.0,0.0
5623,61.0,29.0,240.0,1.0,0.0
5624,41.0,0.0,90.0,0.0,0.0
5625,49.0,0.0,90.0,0.0,0.0
5626,53.0,0.0,120.0,1.0,0.0
5627,56.0,0.0,120.0,1.0,0.0
5628,75.0,30.0,30.0,0.0,0.0
5629,73.0,30.0,30.0,0.0,0.0
5630,72.0,15.0,30.0,0.0,0.0
5631,73.0,10.0,15.0,0.0,0.0
5632,70.0,19.0,240.0,1.0,0.0
5633,73.0,15.0,30.0,0.0,0.0
5634,46.0,15.0,210.0,0.0,0.0
5635,43.0,0.0,210.0,0.0,0.0
5636,55.0,1.0,120.0,1.0,0.0
5637,58.0,0.0,120.0,1.0,0.0
5638,82.0,45.0,15.0,0.0,0.0
5639,70.0,15.0,30.0,0.0,0.0
5640,82.0,15.0,15.0,0.0,0.0
5641,48.0,15.0,90.0,0.0,0.0
5642,40.0,0.0,90.0,0.0,0.0
5643,73.0,30.0,30.0,0.0,0.0
5644,52.0,11.0,120.0,1.0,0.0
5645,60.0,7.0,240.0,1.0,0.0
5646,55.0,0.0,90.0,1.0,0.0
5647,72.0,15.0,30.0,0.0,0.0
5648,71.0,15.0,15.0,0.0,0.0
5649,72.0,0.0,15.0,0.0,0.0
5650,44.0,8.0,90.0,0.0,0.0
5651,41.0,0.0,90.0,0.0,0.0
5652,68.0,5.0,240.0,1.0,0.0
5653,56.0,15.0,120.0,1.0,0.0
5654,72.0,15.0,30.0,0.0,0.0
5655,53.0,0.0,120.0,1.0,0.0
5656,80.0,30.0,15.0,0.0,0.0
5657,68.0,30.0,15.0,0.0,0.0
5658,80.0,0.0,30.0,0.0,0.0
5659,65.0,0.0,120.0,1.0,0.0
5660,50.0,15.0,120.0,1.0,0.0
5661,58.0,30.0,240.0,1.0,0.0
5662,37.0,15.0,15.0,0.0,0.0
5663,44.0,0.0,90.0,0.0,0.0
5664,46.0,10.0,90.0,0.0,0.0
5665,72.0,15.0,30.0,0.0,0.0
5666,38.0,0.0,90.0,0.0,0.0
5667,70.0,30.0,15.0,0.0,0.0
5668,69.0,30.0,15.0,0.0,0.0
5669,70.0,0.0,15.0,0.0,0.0
5670,63.0,4.0,90.0,1.0,0.0
5671,70.0,30.0,15.0,0.0,0.0
5672,67.0,2.0,120.0,1.0,0.0
5673,37.0,0.0,60.0,0.0,0.0
5674,43.0,0.0,60.0,0.0,0.0
5675,40.0,26.0,60.0,0.0,0.0
5676,49.0,0.0,120.0,1.0,0.0
5677,79.0,30.0,15.0,0.0,0.0
5678,67.0,0.0,15.0,0.0,0.0
5679,79.0,13.0,15.0,0.0,0.0
5680,63.0,27.0,120.0,1.0,0.0
5681,48.0,0.0,120.0,1.0,0.0
5682,75.0,0.0,120.0,1.0,0.0
5683,56.0,3.0,120.0,1.0,0.0
5684,80.0,30.0,30.0,0.0,0.0
5685,44.0,0.0,90.0,0.0,0.0
5686,39.0,0.0,90.0,0.0,0.0
5687,36.0,0.0,90.0,0.0,0.0
5688,75.0,30.0,30.0,0.0,0.0
5689,73.0,30.0,30.0,0.0,0.0
5690,72.0,0.0,30.0,0.0,0.0
5691,77.0,30.0,30.0,0.0,0.0
5692,49.0,0.0,90.0,1.0,0.0
5693,56.0,0.0,90.0,1.0,0.0
5694,46.0,0.0,90.0,0.0,0.0
5695,41.0,30.0,90.0,0.0,0.0
5696,37.0,15.0,60.0,0.0,0.0
5697,73.0,24.0,120.0,1.0,0.0
5698,65.0,2.0,120.0,1.0,0.0
5699,73.0,15.0,30.0,0.0,0.0
5700,72.0,0.0,30.0,0.0,0.0
5701,70.0,4.0,30.0,0.0,0.0
5702,51.0,0.0,240.0,1.0,0.0
5703,63.0,9.0,210.0,1.0,0.0
5704,56.0,5.0,120.0,1.0,0.0
5705,75.0,30.0,30.0,0.0,0.0
5706,72.0,25.0,120.0,1.0,0.0
5707,48.0,15.0,90.0,0.0,0.0
5708,39.0,15.0,90.0,0.0,0.0
5709,44.0,0.0,90.0,0.0,0.0
5710,72.0,30.0,30.0,0.0,0.0
5711,70.0,0.0,30.0,0.0,0.0
5712,68.0,0.0,30.0,0.0,0.0
5713,73.0,30.0,30.0,0.0,0.0
5714,55.0,0.0,120.0,1.0,0.0
5715,43.0,0.0,90.0,0.0,0.0
5716,39.0,14.0,90.0,0.0,0.0
5717,46.0,0.0,90.0,0.0,0.0
5718,70.0,1.0,120.0,1.0,0.0
5719,70.0,30.0,30.0,0.0,0.0
5720,68.0,6.0,30.0,0.0,0.0
5721,67.0,30.0,30.0,0.0,0.0
5722,63.0,4.0,120.0,1.0,0.0
5723,56.0,20.0,90.0,1.0,0.0
5724,68.0,6.0,120.0,1.0,0.0
5725,44.0,0.0,120.0,0.0,0.0
5726,32.0,0.0,120.0,0.0,0.0
5727,44.0,30.0,120.0,1.0,0.0
5728,68.0,30.0,30.0,0.0,0.0
5729,63.0,30.0,30.0,0.0,0.0
5730,65.0,0.0,30.0,0.0,0.0
5731,67.0,0.0,30.0,0.0,0.0
5732,68.0,30.0,30.0,0.0,0.0
5733,70.0,30.0,30.0,0.0,0.0
5734,72.0,30.0,30.0,0.0,0.0
5735,72.0,27.0,60.0,1.0,0.0
5736,73.0,3.0,30.0,0.0,0.0
5737,75.0,30.0,30.0,0.0,0.0
5738,75.0,19.0,60.0,1.0,0.0
5739,77.0,11.0,30.0,0.0,0.0
5740,73.0,30.0,30.0,0.0,0.0
5741,73.0,23.0,60.0,1.0,0.0
5742,75.0,7.0,30.0,0.0,0.0
5743,72.0,30.0,30.0,0.0,0.0
5744,72.0,27.0,60.0,1.0,0.0
5745,73.0,3.0,30.0,0.0,0.0
5746,70.0,21.0,30.0,0.0,0.0
5747,70.0,9.0,60.0,1.0,0.0
5748,63.0,27.0,60.0,1.0,0.0
5749,63.0,3.0,60.0,0.0,0.0
5750,72.0,0.0,30.0,0.0,0.0
5751,68.0,30.0,30.0,0.0,0.0
5752,65.0,25.0,60.0,1.0,0.0
5753,65.0,0.0,30.0,0.0,0.0
5754,68.0,27.0,180.0,1.0,0.0
5755,67.0,5.0,30.0,0.0,0.0
5756,63.0,3.0,60.0,1.0,0.0
5757,63.0,27.0,30.0,0.0,0.0
5758,68.0,1.0,120.0,0.0,0.0
5759,65.0,30.0,30.0,0.0,0.0
5760,61.0,30.0,30.0,0.0,0.0
5761,61.0,2.0,60.0,1.0,0.0
5762,63.0,0.0,30.0,0.0,0.0
5763,60.0,0.0,30.0,0.0,0.0
5764,72.0,5.0,30.0,0.0,0.0
5765,60.0,4.0,60.0,1.0,0.0
5766,72.0,16.0,30.0,1.0,0.0
5767,68.0,30.0,30.0,0.0,0.0
5768,68.0,5.0,20.0,1.0,0.0
5769,61.0,0.0,30.0,0.0,0.0
5770,73.0,19.0,60.0,1.0,0.0
5771,58.0,15.0,40.0,0.0,0.0
5772,58.0,0.0,180.0,1.0,0.0
5773,73.0,15.0,30.0,0.0,0.0
5774,75.0,11.0,30.0,0.0,0.0
5775,72.0,30.0,30.0,0.0,0.0
5776,72.0,23.0,60.0,1.0,0.0
5777,58.0,30.0,120.0,0.0,0.0
5778,73.0,7.0,30.0,0.0,0.0
5779,70.0,29.0,30.0,0.0,0.0
5780,70.0,1.0,60.0,1.0,0.0
5781,72.0,0.0,30.0,0.0,0.0
5782,61.0,22.0,30.0,1.0,0.0
5783,68.0,0.0,30.0,0.0,0.0
5784,61.0,2.0,30.0,0.0,0.0
5785,68.0,2.0,60.0,1.0,0.0
5786,58.0,0.0,30.0,0.0,0.0
5787,70.0,30.0,30.0,0.0,0.0
5788,58.0,4.0,30.0,1.0,0.0
5789,63.0,22.0,60.0,1.0,0.0
5790,67.0,20.0,180.0,1.0,0.0
5791,63.0,0.0,30.0,0.0,0.0
5792,67.0,30.0,30.0,0.0,0.0
5793,65.0,8.0,30.0,0.0,0.0
5794,67.0,10.0,120.0,0.0,0.0
5795,61.0,1.0,60.0,1.0,0.0
5796,61.0,29.0,30.0,0.0,0.0
5797,63.0,30.0,30.0,0.0,0.0
5798,60.0,0.0,60.0,1.0,0.0
5799,60.0,30.0,30.0,0.0,0.0
5800,61.0,0.0,30.0,0.0,0.0
5801,70.0,4.0,30.0,0.0,0.0
5802,70.0,15.0,30.0,1.0,0.0
5803,51.0,30.0,60.0,1.0,0.0
5804,58.0,0.0,30.0,0.0,0.0
5805,51.0,0.0,30.0,0.0,0.0
5806,58.0,6.0,40.0,1.0,0.0
5807,67.0,0.0,30.0,0.0,0.0
5808,60.0,0.0,30.0,0.0,0.0
5809,67.0,5.0,20.0,1.0,0.0
5810,72.0,15.0,30.0,0.0,0.0
5811,72.0,1.0,360.0,1.0,0.0
5812,56.0,0.0,60.0,0.0,0.0
5813,56.0,30.0,60.0,1.0,0.0
5814,44.0,15.0,40.0,0.0,0.0
5815,73.0,0.0,30.0,0.0,0.0
5816,55.0,0.0,60.0,1.0,0.0
5817,55.0,0.0,60.0,0.0,0.0
5818,43.0,0.0,60.0,0.0,0.0
5819,70.0,29.0,30.0,0.0,0.0
5820,72.0,30.0,30.0,0.0,0.0
5821,53.0,30.0,60.0,1.0,0.0
5822,53.0,30.0,30.0,0.0,0.0
5823,68.0,0.0,30.0,0.0,0.0
5824,41.0,0.0,60.0,0.0,0.0
5825,80.0,0.0,30.0,0.0,0.0
5826,56.0,30.0,30.0,0.0,0.0
5827,51.0,0.0,60.0,1.0,0.0
5828,51.0,0.0,30.0,0.0,0.0
5829,79.0,0.0,30.0,0.0,0.0
5830,56.0,15.0,60.0,1.0,0.0
5831,80.0,0.0,30.0,0.0,0.0
5832,61.0,30.0,60.0,1.0,0.0
5833,49.0,0.0,180.0,1.0,0.0
5834,61.0,15.0,15.0,0.0,0.0
5835,49.0,0.0,60.0,0.0,0.0
5836,77.0,30.0,30.0,0.0,0.0
5837,79.0,0.0,30.0,0.0,0.0
5838,75.0,15.0,30.0,0.0,0.0
5839,56.0,0.0,60.0,0.0,0.0
5840,60.0,30.0,60.0,1.0,0.0
5841,56.0,7.0,60.0,1.0,0.0
5842,60.0,7.0,40.0,0.0,0.0
5843,77.0,0.0,30.0,0.0,0.0
5844,73.0,30.0,30.0,0.0,0.0
5845,58.0,9.0,60.0,0.0,0.0
5846,65.0,5.0,240.0,1.0,0.0
5847,73.0,21.0,60.0,1.0,0.0
5848,58.0,0.0,60.0,1.0,0.0
5849,75.0,0.0,30.0,0.0,0.0
5850,53.0,0.0,30.0,1.0,0.0
5851,56.0,0.0,30.0,0.0,0.0
5852,72.0,26.0,30.0,0.0,0.0
5853,53.0,0.0,30.0,0.0,0.0
5854,56.0,0.0,60.0,1.0,0.0
5855,72.0,4.0,60.0,1.0,0.0
5856,49.0,0.0,30.0,0.0,0.0
5857,73.0,0.0,30.0,0.0,0.0
5858,49.0,30.0,30.0,1.0,0.0
5859,70.0,30.0,30.0,0.0,0.0
5860,70.0,21.0,360.0,1.0,0.0
5861,55.0,0.0,60.0,1.0,0.0
5862,55.0,0.0,60.0,0.0,0.0
5863,82.0,30.0,30.0,0.0,0.0
5864,53.0,30.0,60.0,1.0,0.0
5865,61.0,10.0,40.0,0.0,0.0
5866,53.0,15.0,30.0,0.0,0.0
5867,80.0,0.0,30.0,0.0,0.0
5868,82.0,0.0,30.0,0.0,0.0
5869,58.0,30.0,120.0,0.0,0.0
5870,51.0,0.0,60.0,1.0,0.0
5871,79.0,15.0,30.0,0.0,0.0
5872,67.0,30.0,60.0,1.0,0.0
5873,51.0,15.0,40.0,0.0,0.0
5874,80.0,0.0,30.0,0.0,0.0
5875,77.0,0.0,30.0,0.0,0.0
5876,49.0,0.0,60.0,1.0,0.0
5877,65.0,1.0,60.0,1.0,0.0
5878,58.0,29.0,30.0,1.0,0.0
5879,49.0,0.0,30.0,0.0,0.0
5880,79.0,0.0,30.0,0.0,0.0
5881,55.0,0.0,30.0,1.0,0.0
5882,63.0,28.0,360.0,1.0,0.0
5883,60.0,15.0,40.0,0.0,0.0
5884,75.0,15.0,30.0,0.0,0.0
5885,48.0,0.0,180.0,1.0,0.0
5886,60.0,30.0,60.0,1.0,0.0
5887,48.0,0.0,180.0,0.0,0.0
5888,77.0,0.0,30.0,0.0,0.0
5889,73.0,15.0,30.0,0.0,0.0
5890,58.0,15.0,40.0,0.0,0.0
5891,58.0,9.0,60.0,1.0,0.0
5892,55.0,0.0,40.0,0.0,0.0
5893,75.0,0.0,30.0,0.0,0.0
5894,72.0,29.0,60.0,1.0,0.0
5895,56.0,0.0,30.0,0.0,0.0
5896,72.0,30.0,30.0,0.0,0.0
5897,56.0,1.0,60.0,1.0,0.0
5898,73.0,0.0,30.0,0.0,0.0
5899,55.0,0.0,30.0,0.0,0.0
5900,70.0,3.0,60.0,1.0,0.0
5901,51.0,0.0,30.0,0.0,0.0
5902,70.0,27.0,30.0,0.0,0.0
5903,51.0,0.0,30.0,1.0,0.0
5904,55.0,30.0,60.0,1.0,0.0
5905,48.0,0.0,30.0,0.0,0.0
5906,72.0,0.0,30.0,0.0,0.0
5907,48.0,0.0,30.0,1.0,0.0
5908,68.0,30.0,30.0,0.0,0.0
5909,53.0,0.0,60.0,1.0,0.0
5910,68.0,19.0,360.0,1.0,0.0
5911,53.0,30.0,60.0,0.0,0.0
5912,80.0,0.0,30.0,0.0,0.0
5913,79.0,0.0,30.0,0.0,0.0
5914,60.0,15.0,40.0,0.0,0.0
5915,51.0,15.0,30.0,0.0,0.0
5916,51.0,0.0,60.0,1.0,0.0
5917,80.0,2.0,30.0,0.0,0.0
5918,77.0,15.0,30.0,0.0,0.0
5919,49.0,0.0,60.0,1.0,0.0
5920,49.0,15.0,40.0,0.0,0.0
5921,56.0,0.0,180.0,0.0,0.0
5922,65.0,28.0,60.0,1.0,0.0
5923,79.0,2.0,30.0,0.0,0.0
5924,48.0,0.0,60.0,1.0,0.0
5925,75.0,30.0,30.0,0.0,0.0
5926,48.0,0.0,30.0,0.0,0.0
5927,63.0,30.0,60.0,1.0,0.0
5928,77.0,0.0,30.0,0.0,0.0
5929,73.0,15.0,30.0,0.0,0.0
5930,61.0,6.0,180.0,1.0,0.0
5931,49.0,30.0,60.0,0.0,0.0
5932,46.0,0.0,60.0,1.0,0.0
5933,46.0,15.0,40.0,0.0,0.0
5934,75.0,0.0,30.0,0.0,0.0
5935,44.0,0.0,60.0,1.0,0.0
5936,72.0,30.0,30.0,0.0,0.0
5937,48.0,0.0,30.0,0.0,0.0
5938,73.0,11.0,30.0,0.0,0.0
5939,51.0,0.0,60.0,0.0,0.0
5940,43.0,0.0,30.0,0.0,0.0
5941,55.0,0.0,60.0,1.0,0.0
5942,70.0,24.0,30.0,0.0,0.0
5943,43.0,2.0,60.0,1.0,0.0
5944,70.0,28.0,60.0,1.0,0.0
5945,72.0,0.0,30.0,0.0,0.0
5946,68.0,15.0,30.0,0.0,0.0
5947,41.0,0.0,60.0,1.0,0.0
5948,41.0,0.0,30.0,0.0,0.0
5949,56.0,0.0,60.0,1.0,0.0
5950,72.0,14.0,60.0,1.0,0.0
5951,44.0,13.0,40.0,0.0,0.0
5952,68.0,2.0,60.0,1.0,0.0
5953,70.0,16.0,30.0,0.0,0.0
5954,67.0,30.0,30.0,0.0,0.0
5955,46.0,15.0,90.0,0.0,0.0
5956,49.0,0.0,210.0,0.0,0.0
5957,73.0,15.0,150.0,1.0,0.0
5958,39.0,0.0,90.0,0.0,0.0
5959,39.0,0.0,150.0,1.0,0.0
5960,58.0,0.0,180.0,1.0,0.0
5961,67.0,18.0,120.0,1.0,0.0
5962,68.0,30.0,30.0,0.0,0.0
5963,70.0,15.0,30.0,0.0,0.0
5964,72.0,12.0,30.0,0.0,0.0
5965,63.0,2.0,90.0,1.0,0.0
5966,39.0,0.0,60.0,0.0,0.0
5967,46.0,13.0,60.0,0.0,0.0
5968,51.0,30.0,120.0,1.0,0.0
5969,73.0,15.0,30.0,0.0,0.0
5970,75.0,15.0,30.0,0.0,0.0
5971,58.0,0.0,30.0,1.0,0.0
5972,77.0,15.0,30.0,0.0,0.0
5973,73.0,2.0,60.0,1.0,0.0
5974,46.0,0.0,15.0,0.0,0.0
5975,39.0,0.0,15.0,0.0,0.0
5976,79.0,13.0,15.0,0.0,0.0
5977,63.0,5.0,120.0,1.0,0.0
5978,56.0,30.0,120.0,1.0,0.0
5979,80.0,45.0,30.0,0.0,0.0
5980,48.0,0.0,60.0,0.0,0.0
5981,44.0,0.0,60.0,0.0,0.0
5982,72.0,1.0,120.0,1.0,0.0
5983,75.0,15.0,40.0,0.0,0.0
5984,73.0,24.0,30.0,0.0,0.0
5985,72.0,0.0,30.0,0.0,0.0
5986,53.0,0.0,90.0,0.0,0.0
5987,56.0,0.0,240.0,0.0,0.0
5988,49.0,0.0,90.0,0.0,0.0
5989,65.0,1.0,120.0,1.0,0.0
5990,58.0,5.0,90.0,0.0,0.0
5991,49.0,30.0,120.0,1.0,0.0
5992,70.0,9.0,120.0,1.0,0.0
5993,77.0,0.0,30.0,0.0,0.0
5994,73.0,30.0,30.0,0.0,0.0
5995,72.0,15.0,30.0,0.0,0.0
5996,58.0,0.0,60.0,1.0,0.0
5997,70.0,0.0,30.0,0.0,0.0
5998,60.0,0.0,120.0,1.0,0.0
5999,63.0,13.0,210.0,1.0,0.0
6000,51.0,30.0,90.0,0.0,0.0
6001,60.0,0.0,90.0,0.0,0.0
6002,51.0,0.0,240.0,1.0,0.0
6003,68.0,25.0,120.0,1.0,0.0
6004,75.0,30.0,30.0,0.0,0.0
6005,72.0,30.0,30.0,0.0,0.0
6006,70.0,0.0,30.0,0.0,0.0
6007,68.0,5.0,30.0,0.0,0.0
6008,55.0,0.0,60.0,0.0,0.0
6009,58.0,30.0,120.0,1.0,0.0
6010,51.0,30.0,60.0,0.0,0.0
6011,58.0,0.0,60.0,0.0,0.0
6012,67.0,5.0,120.0,1.0,0.0
6013,73.0,30.0,30.0,0.0,0.0
6014,70.0,0.0,30.0,0.0,0.0
6015,68.0,12.0,30.0,0.0,0.0
6016,67.0,0.0,30.0,0.0,0.0
6017,63.0,29.0,120.0,1.0,0.0
6018,56.0,0.0,90.0,1.0,0.0
6019,68.0,0.0,30.0,0.0,0.0
6020,48.0,0.0,30.0,0.0,0.0
6021,44.0,0.0,30.0,0.0,0.0
6022,56.0,60.0,30.0,0.0,0.0
6023,68.0,1.0,90.0,1.0,0.0
6024,44.0,0.0,120.0,1.0,0.0
6025,68.0,0.0,30.0,0.0,0.0
6026,56.0,14.0,30.0,0.0,0.0
6027,67.0,1.0,30.0,0.0,0.0
6028,55.0,15.0,15.0,0.0,0.0
6029,65.0,0.0,30.0,0.0,0.0
6030,53.0,30.0,30.0,0.0,0.0
6031,67.0,30.0,30.0,0.0,0.0
6032,51.0,0.0,30.0,0.0,0.0
6033,63.0,30.0,30.0,0.0,0.0
6034,65.0,30.0,30.0,0.0,0.0
6035,49.0,30.0,30.0,0.0,0.0
6036,61.0,0.0,30.0,0.0,0.0
6037,63.0,30.0,30.0,0.0,0.0
6038,60.0,0.0,30.0,0.0,0.0
6039,48.0,30.0,30.0,0.0,0.0
6040,61.0,30.0,30.0,0.0,0.0
6041,51.0,30.0,30.0,0.0,0.0
6042,58.0,0.0,30.0,0.0,0.0
6043,46.0,0.0,30.0,0.0,0.0
6044,55.0,0.0,30.0,0.0,0.0
6045,60.0,30.0,30.0,0.0,0.0
6046,56.0,0.0,30.0,0.0,0.0
6047,44.0,0.0,30.0,0.0,0.0
6048,48.0,30.0,30.0,0.0,0.0
6049,58.0,15.0,30.0,0.0,0.0
6050,63.0,8.0,90.0,1.0,0.0
6051,73.0,2.0,120.0,1.0,0.0
6052,55.0,15.0,15.0,0.0,0.0
6053,58.0,7.0,90.0,1.0,0.0
6054,43.0,0.0,30.0,0.0,0.0
6055,46.0,15.0,30.0,0.0,0.0
6056,49.0,45.0,40.0,0.0,0.0
6057,55.0,60.0,120.0,1.0,0.0
6058,82.0,0.0,40.0,0.0,0.0
6059,70.0,13.0,40.0,0.0,0.0
6060,73.0,0.0,40.0,0.0,0.0
6061,44.0,15.0,60.0,0.0,0.0
6062,56.0,15.0,60.0,0.0,0.0
6063,56.0,15.0,90.0,1.0,0.0
6064,63.0,7.0,120.0,1.0,0.0
6065,72.0,7.0,120.0,1.0,0.0
6066,48.0,0.0,60.0,0.0,0.0
6067,80.0,0.0,40.0,0.0,0.0
6068,68.0,0.0,40.0,0.0,0.0
6069,72.0,1.0,40.0,0.0,0.0
6070,51.0,0.0,90.0,0.0,0.0
6071,56.0,0.0,90.0,0.0,0.0
6072,58.0,0.0,90.0,0.0,0.0
6073,56.0,75.0,120.0,1.0,0.0
6074,70.0,2.0,240.0,1.0,0.0
6075,65.0,11.0,120.0,1.0,0.0
6076,49.0,0.0,120.0,1.0,0.0
6077,70.0,0.0,40.0,0.0,0.0
6078,80.0,0.0,40.0,0.0,0.0
6079,77.0,4.0,40.0,0.0,0.0
6080,51.0,0.0,120.0,1.0,0.0
6081,51.0,0.0,90.0,0.0,0.0
6082,55.0,0.0,90.0,0.0,0.0
6083,58.0,3.0,90.0,0.0,0.0
6084,55.0,45.0,120.0,1.0,0.0
6085,63.0,10.0,120.0,1.0,0.0
6086,70.0,0.0,15.0,0.0,0.0
6087,79.0,15.0,15.0,0.0,0.0
6088,75.0,15.0,30.0,0.0,0.0
6089,80.0,0.0,40.0,0.0,0.0
6090,72.0,0.0,40.0,0.0,0.0
6091,75.0,0.0,40.0,0.0,0.0
6092,63.0,1.0,90.0,1.0,0.0
6093,72.0,5.0,90.0,1.0,0.0
6094,44.0,30.0,120.0,1.0,0.0
6095,44.0,0.0,40.0,0.0,0.0
6096,56.0,15.0,40.0,0.0,0.0
6097,56.0,15.0,60.0,1.0,0.0
6098,68.0,9.0,30.0,0.0,0.0
6099,56.0,15.0,15.0,0.0,0.0
6100,67.0,0.0,30.0,0.0,0.0
6101,55.0,15.0,15.0,0.0,0.0
6102,53.0,0.0,30.0,0.0,0.0
6103,65.0,30.0,30.0,0.0,0.0
6104,67.0,30.0,30.0,0.0,0.0
6105,51.0,30.0,30.0,0.0,0.0
6106,63.0,0.0,30.0,0.0,0.0
6107,65.0,30.0,30.0,0.0,0.0
6108,61.0,15.0,30.0,0.0,0.0
6109,49.0,15.0,40.0,0.0,0.0
6110,63.0,30.0,30.0,0.0,0.0
6111,60.0,0.0,30.0,0.0,0.0
6112,48.0,30.0,30.0,0.0,0.0
6113,61.0,30.0,30.0,0.0,0.0
6114,58.0,0.0,30.0,0.0,0.0
6115,55.0,0.0,30.0,0.0,0.0
6116,46.0,30.0,30.0,0.0,0.0
6117,51.0,0.0,30.0,0.0,0.0
6118,60.0,30.0,30.0,0.0,0.0
6119,56.0,0.0,30.0,0.0,0.0
6120,48.0,30.0,30.0,0.0,0.0
6121,44.0,0.0,30.0,0.0,0.0
6122,58.0,15.0,30.0,0.0,0.0
6123,43.0,0.0,60.0,0.0,0.0
6124,46.0,15.0,60.0,0.0,0.0
6125,58.0,12.0,90.0,1.0,0.0
6126,73.0,3.0,120.0,1.0,0.0
6127,63.0,15.0,90.0,1.0,0.0
6128,49.0,0.0,60.0,0.0,0.0
6129,55.0,60.0,15.0,0.0,0.0
6130,55.0,15.0,120.0,1.0,0.0
6131,73.0,0.0,60.0,0.0,0.0
6132,70.0,0.0,60.0,0.0,0.0
6133,82.0,60.0,60.0,0.0,0.0
6134,72.0,86.0,120.0,1.0,0.0
6135,56.0,15.0,60.0,0.0,0.0
6136,44.0,0.0,60.0,0.0,0.0
6137,48.0,0.0,60.0,0.0,0.0
6138,63.0,14.0,120.0,1.0,0.0
6139,56.0,16.0,90.0,1.0,0.0
6140,80.0,0.0,60.0,0.0,0.0
6141,72.0,0.0,60.0,0.0,0.0
6142,68.0,0.0,60.0,0.0,0.0
6143,56.0,0.0,90.0,0.0,0.0
6144,49.0,25.0,90.0,0.0,0.0
6145,70.0,12.0,240.0,1.0,0.0
6146,49.0,0.0,120.0,1.0,0.0
6147,56.0,0.0,120.0,1.0,0.0
6148,65.0,5.0,120.0,1.0,0.0
6149,58.0,0.0,90.0,0.0,0.0
6150,70.0,90.0,60.0,0.0,0.0
6151,77.0,0.0,60.0,0.0,0.0
6152,80.0,0.0,60.0,0.0,0.0
6153,55.0,0.0,90.0,0.0,0.0
6154,51.0,0.0,90.0,0.0,0.0
6155,51.0,0.0,120.0,1.0,0.0
6156,58.0,14.0,90.0,0.0,0.0
6157,63.0,16.0,90.0,1.0,0.0
6158,55.0,3.0,120.0,1.0,0.0
6159,70.0,0.0,30.0,0.0,0.0
6160,79.0,0.0,30.0,0.0,0.0
6161,75.0,0.0,30.0,0.0,0.0
6162,56.0,0.0,90.0,1.0,0.0
6163,44.0,30.0,120.0,1.0,0.0
6164,63.0,6.0,120.0,1.0,0.0
6165,68.0,8.0,90.0,1.0,0.0
6166,80.0,0.0,15.0,0.0,0.0
6167,56.0,9.0,90.0,0.0,0.0
6168,44.0,0.0,90.0,0.0,0.0
6169,72.0,45.0,15.0,0.0,0.0
6170,68.0,22.0,30.0,0.0,0.0
6171,67.0,15.0,30.0,0.0,0.0
6172,68.0,0.0,30.0,0.0,0.0
6173,70.0,30.0,30.0,0.0,0.0
6174,56.0,15.0,60.0,0.0,0.0
6175,44.0,0.0,60.0,0.0,0.0
6176,68.0,15.0,30.0,0.0,0.0
6177,67.0,15.0,30.0,0.0,0.0
6178,56.0,30.0,30.0,0.0,0.0
6179,44.0,0.0,15.0,0.0,0.0
6180,68.0,15.0,15.0,0.0,0.0
6181,56.0,15.0,30.0,0.0,0.0
6182,32.0,0.0,40.0,0.0,0.0
6183,44.0,15.0,40.0,0.0,0.0
6184,68.0,30.0,30.0,0.0,0.0
6185,46.0,0.0,40.0,0.0,0.0
6186,34.0,15.0,40.0,0.0,0.0
6187,58.0,15.0,30.0,0.0,0.0
6188,68.0,30.0,30.0,0.0,0.0
6189,36.0,15.0,40.0,0.0,0.0
6190,48.0,0.0,30.0,0.0,0.0
6191,60.0,15.0,30.0,0.0,0.0
6192,68.0,30.0,30.0,0.0,0.0
6193,61.0,0.0,30.0,0.0,0.0
6194,49.0,30.0,30.0,0.0,0.0
6195,37.0,0.0,30.0,0.0,0.0
6196,68.0,15.0,30.0,0.0,0.0
6197,39.0,15.0,90.0,0.0,0.0
6198,63.0,45.0,15.0,0.0,0.0
6199,51.0,30.0,120.0,0.0,0.0
6200,68.0,30.0,30.0,0.0,0.0
6201,67.0,15.0,30.0,0.0,0.0
6202,68.0,0.0,30.0,0.0,0.0
6203,56.0,0.0,60.0,0.0,0.0
6204,44.0,15.0,60.0,0.0,0.0
6205,70.0,30.0,30.0,0.0,0.0
6206,68.0,15.0,30.0,0.0,0.0
6207,67.0,15.0,30.0,0.0,0.0
6208,56.0,15.0,15.0,0.0,0.0
6209,44.0,0.0,15.0,0.0,0.0
6210,68.0,30.0,30.0,0.0,0.0
6211,60.0,15.0,30.0,0.0,0.0
6212,48.0,15.0,40.0,0.0,0.0
6213,36.0,0.0,40.0,0.0,0.0
6214,68.0,30.0,30.0,0.0,0.0
6215,61.0,15.0,30.0,0.0,0.0
6216,37.0,0.0,30.0,0.0,0.0
6217,49.0,15.0,40.0,0.0,0.0
6218,68.0,30.0,30.0,0.0,0.0
6219,51.0,15.0,30.0,0.0,0.0
6220,39.0,15.0,40.0,0.0,0.0
6221,63.0,0.0,30.0,0.0,0.0
6222,68.0,30.0,30.0,0.0,0.0
6223,65.0,0.0,30.0,0.0,0.0
6224,41.0,0.0,30.0,0.0,0.0
6225,53.0,15.0,30.0,0.0,0.0
6226,68.0,30.0,15.0,0.0,0.0
6227,63.0,29.0,300.0,1.0,0.0
6228,54.0,0.0,270.0,1.0,0.0
6229,72.0,0.0,300.0,1.0,0.0
6230,54.0,0.0,90.0,0.0,0.0
6231,42.0,15.0,90.0,0.0,0.0
6232,66.0,45.0,15.0,0.0,0.0
6233,56.0,30.0,330.0,1.0,0.0
6234,68.0,30.0,30.0,0.0,0.0
6235,67.0,15.0,30.0,0.0,0.0
6236,68.0,30.0,30.0,0.0,0.0
6237,44.0,15.0,60.0,0.0,0.0
6238,56.0,0.0,60.0,0.0,0.0
6239,70.0,30.0,30.0,0.0,0.0
6240,68.0,15.0,30.0,0.0,0.0
6241,67.0,15.0,30.0,0.0,0.0
6242,68.0,30.0,30.0,0.0,0.0
6243,44.0,0.0,15.0,0.0,0.0
6244,56.0,15.0,15.0,0.0,0.0
6245,72.0,15.0,30.0,0.0,0.0
6246,54.0,0.0,30.0,0.0,0.0
6247,42.0,15.0,40.0,0.0,0.0
6248,68.0,1.0,30.0,0.0,0.0
6249,73.0,19.0,60.0,1.0,0.0
6250,41.0,0.0,30.0,0.0,0.0
6251,53.0,0.0,30.0,0.0,0.0
6252,53.0,9.0,60.0,1.0,0.0
6253,73.0,0.0,30.0,0.0,0.0
6254,65.0,2.0,60.0,1.0,0.0
6255,68.0,0.0,30.0,0.0,0.0
6256,72.0,15.0,30.0,0.0,0.0
6257,51.0,4.0,60.0,1.0,0.0
6258,72.0,22.0,60.0,1.0,0.0
6259,51.0,0.0,30.0,0.0,0.0
6260,39.0,15.0,40.0,0.0,0.0
6261,56.0,0.0,30.0,1.0,0.0
6262,66.0,4.0,60.0,1.0,0.0
6263,75.0,0.0,30.0,0.0,0.0
6264,68.0,0.0,30.0,0.0,0.0
6265,37.0,0.0,30.0,0.0,0.0
6266,49.0,15.0,30.0,0.0,0.0
6267,49.0,15.0,60.0,1.0,0.0
6268,56.0,0.0,30.0,1.0,0.0
6269,73.0,0.0,60.0,1.0,0.0
6270,77.0,0.0,30.0,0.0,0.0
6271,73.0,0.0,30.0,0.0,0.0
6272,65.0,5.0,60.0,1.0,0.0
6273,68.0,10.0,15.0,0.0,0.0
6274,48.0,15.0,120.0,0.0,0.0
6275,75.0,3.0,120.0,1.0,0.0
6276,63.0,3.0,120.0,1.0,0.0
6277,68.0,60.0,30.0,0.0,0.0
6278,78.0,15.0,15.0,0.0,0.0
6279,75.0,0.0,15.0,0.0,0.0
6280,48.0,0.0,120.0,1.0,0.0
6281,36.0,0.0,120.0,0.0,0.0
6282,56.0,24.0,90.0,1.0,0.0
6283,65.0,1.0,120.0,1.0,0.0
6284,49.0,0.0,120.0,0.0,0.0
6285,37.0,5.0,120.0,0.0,0.0
6286,73.0,15.0,15.0,0.0,0.0
6287,49.0,0.0,120.0,1.0,0.0
6288,68.0,0.0,15.0,0.0,0.0
6289,77.0,60.0,30.0,0.0,0.0
6290,73.0,25.0,120.0,1.0,0.0
6291,56.0,29.0,90.0,1.0,0.0
6292,63.0,14.0,240.0,1.0,0.0
6293,72.0,2.0,120.0,1.0,0.0
6294,75.0,0.0,30.0,0.0,0.0
6295,63.0,0.0,90.0,0.0,0.0
6296,72.0,60.0,30.0,0.0,0.0
6297,39.0,13.0,90.0,0.0,0.0
6298,51.0,30.0,120.0,0.0,0.0
6299,51.0,0.0,240.0,1.0,0.0
6300,56.0,0.0,120.0,1.0,0.0
6301,68.0,15.0,30.0,0.0,0.0
6302,72.0,0.0,30.0,0.0,0.0
6303,73.0,30.0,40.0,0.0,0.0
6304,63.0,15.0,90.0,0.0,0.0
6305,70.0,15.0,30.0,0.0,0.0
6306,27.0,0.0,90.0,0.0,0.0
6307,55.0,3.0,120.0,1.0,0.0
6308,70.0,42.0,120.0,1.0,0.0
6309,39.0,1.0,90.0,0.0,0.0
6310,70.0,0.0,30.0,0.0,0.0
6311,67.0,15.0,15.0,0.0,0.0
6312,60.0,0.0,90.0,0.0,0.0
6313,63.0,0.0,120.0,1.0,0.0
6314,63.0,15.0,90.0,0.0,0.0
6315,68.0,0.0,90.0,0.0,0.0
6316,44.0,45.0,40.0,0.0,0.0
6317,32.0,0.0,40.0,0.0,0.0
6318,44.0,0.0,120.0,1.0,0.0
6319,56.0,15.0,90.0,1.0,0.0
6320,68.0,54.0,120.0,1.0,0.0
6321,44.0,0.0,30.0,0.0,0.0
6322,46.0,6.0,30.0,0.0,0.0
6323,48.0,15.0,60.0,0.0,0.0
6324,68.0,30.0,60.0,0.0,0.0
6325,56.0,0.0,60.0,0.0,0.0
6326,46.0,0.0,15.0,0.0,0.0
6327,48.0,0.0,15.0,0.0,0.0
6328,68.0,0.0,15.0,0.0,0.0
6329,56.0,30.0,15.0,0.0,0.0
6330,69.0,45.0,15.0,0.0,0.0
6331,65.0,0.0,90.0,0.0,0.0
6332,68.0,15.0,90.0,0.0,0.0
6333,70.0,0.0,90.0,0.0,0.0
6334,49.0,30.0,60.0,0.0,0.0
6335,48.0,15.0,30.0,0.0,0.0
6336,49.0,30.0,30.0,0.0,0.0
6337,51.0,0.0,120.0,1.0,0.0
6338,67.0,0.0,60.0,0.0,0.0
6339,55.0,0.0,120.0,1.0,0.0
6340,63.0,0.0,60.0,0.0,0.0
6341,63.0,11.0,90.0,1.0,0.0
6342,51.0,30.0,30.0,0.0,0.0
6343,70.0,0.0,60.0,0.0,0.0
6344,70.0,58.0,120.0,1.0,0.0
6345,53.0,30.0,30.0,0.0,0.0
6346,49.0,4.0,30.0,0.0,0.0
6347,51.0,2.0,30.0,0.0,0.0
6348,67.0,0.0,15.0,0.0,0.0
6349,70.0,15.0,15.0,0.0,0.0
6350,63.0,0.0,15.0,0.0,0.0
6351,63.0,0.0,120.0,1.0,0.0
6352,68.0,0.0,90.0,0.0,0.0
6353,63.0,24.0,90.0,0.0,0.0
6354,72.0,6.0,120.0,1.0,0.0
6355,75.0,0.0,90.0,0.0,0.0
6356,56.0,0.0,120.0,1.0,0.0
6357,48.0,30.0,60.0,0.0,0.0
6358,44.0,0.0,30.0,0.0,0.0
6359,46.0,0.0,30.0,0.0,0.0
6360,68.0,0.0,60.0,0.0,0.0
6361,80.0,0.0,60.0,0.0,0.0
6362,48.0,15.0,60.0,0.0,0.0
6363,46.0,30.0,15.0,0.0,0.0
6364,68.0,0.0,15.0,0.0,0.0
6365,80.0,15.0,15.0,0.0,0.0
6366,48.0,60.0,30.0,0.0,0.0
6367,80.0,0.0,90.0,0.0,0.0
6368,77.0,75.0,90.0,0.0,0.0
6369,70.0,0.0,90.0,0.0,0.0
6370,49.0,30.0,60.0,0.0,0.0
6371,48.0,15.0,30.0,0.0,0.0
6372,49.0,0.0,15.0,0.0,0.0
6373,55.0,0.0,120.0,1.0,0.0
6374,51.0,90.0,120.0,1.0,0.0
6375,51.0,15.0,60.0,0.0,0.0
6376,79.0,18.0,60.0,0.0,0.0
6377,70.0,0.0,60.0,0.0,0.0
6378,63.0,12.0,90.0,1.0,0.0
6379,75.0,0.0,60.0,0.0,0.0
6380,70.0,6.0,120.0,1.0,0.0
6381,39.0,0.0,40.0,0.0,0.0
6382,73.0,0.0,15.0,0.0,0.0
6383,79.0,9.0,15.0,0.0,0.0
6384,70.0,0.0,15.0,0.0,0.0
6385,56.0,1.0,120.0,1.0,0.0
6386,68.0,0.0,90.0,0.0,0.0
6387,80.0,15.0,90.0,0.0,0.0
6388,44.0,0.0,120.0,1.0,0.0
6389,72.0,0.0,90.0,0.0,0.0
6390,68.0,74.0,120.0,1.0,0.0
6391,63.0,2.0,120.0,1.0,0.0
6392,44.0,13.0,90.0,0.0,0.0
6393,44.0,0.0,60.0,0.0,0.0
6394,56.0,30.0,60.0,0.0,0.0
6395,32.0,0.0,60.0,0.0,0.0
6396,56.0,0.0,15.0,0.0,0.0
6397,32.0,75.0,15.0,0.0,0.0
6398,44.0,0.0,15.0,0.0,0.0
6399,56.0,30.0,60.0,0.0,0.0
6400,32.0,0.0,90.0,0.0,0.0
6401,44.0,0.0,90.0,0.0,0.0
