,note,step,duration,channel,velocity
0,68.0,31.0,20.0,2.0,0.0
1,73.0,7.0,30.0,2.0,0.0
2,75.0,7.0,15.0,2.0,0.0
3,73.0,6.0,15.0,2.0,0.0
4,72.0,24.0,15.0,2.0,0.0
5,73.0,21.0,20.0,2.0,0.0
6,56.0,2.0,20.0,3.0,0.0
7,75.0,29.0,20.0,2.0,0.0
8,61.0,0.0,30.0,3.0,0.0
9,77.0,7.0,30.0,2.0,0.0
10,63.0,0.0,15.0,3.0,0.0
11,78.0,6.0,15.0,2.0,0.0
12,61.0,1.0,15.0,3.0,0.0
13,77.0,6.0,15.0,2.0,0.0
14,60.0,24.0,15.0,3.0,0.0
15,75.0,0.0,15.0,2.0,0.0
16,77.0,22.0,20.0,2.0,0.0
17,61.0,0.0,20.0,3.0,0.0
18,63.0,0.0,20.0,3.0,0.0
19,78.0,27.0,20.0,2.0,0.0
20,65.0,2.0,30.0,3.0,0.0
21,80.0,46.0,30.0,2.0,0.0
22,65.0,1.0,30.0,3.0,0.0
23,80.0,47.0,30.0,2.0,0.0
24,80.0,47.0,30.0,2.0,0.0
25,65.0,1.0,30.0,3.0,0.0
26,80.0,118.0,30.0,2.0,0.0
27,65.0,1.0,30.0,3.0,0.0
28,46.0,0.0,180.0,7.0,0.0
29,46.0,0.0,180.0,0.0,0.0
30,65.0,0.0,90.0,3.0,0.0
31,58.0,22.0,210.0,4.0,0.0
32,34.0,0.0,180.0,8.0,0.0
33,80.0,96.0,90.0,2.0,0.0
34,77.0,0.0,90.0,2.0,0.0
35,62.0,23.0,90.0,3.0,0.0
36,78.0,1.0,40.0,2.0,0.0
37,63.0,0.0,40.0,3.0,0.0
38,39.0,0.0,40.0,7.0,0.0
39,39.0,2.0,40.0,0.0,0.0
40,27.0,0.0,40.0,8.0,0.0
41,66.0,0.0,20.0,5.0,0.0
42,63.0,24.0,20.0,6.0,0.0
43,70.0,0.0,20.0,5.0,0.0
44,66.0,24.0,20.0,6.0,0.0
45,65.0,0.0,20.0,6.0,0.0
46,68.0,24.0,20.0,5.0,0.0
47,63.0,0.0,20.0,6.0,0.0
48,66.0,24.0,20.0,5.0,0.0
49,65.0,0.0,20.0,5.0,0.0
50,61.0,24.0,20.0,6.0,0.0
51,63.0,0.0,20.0,5.0,0.0
52,60.0,20.0,20.0,6.0,0.0
53,58.0,0.0,20.0,6.0,0.0
54,61.0,2.0,20.0,5.0,0.0
55,68.0,32.0,20.0,2.0,0.0
56,72.0,4.0,30.0,2.0,0.0
57,60.0,0.0,90.0,5.0,0.0
58,56.0,4.0,90.0,6.0,0.0
59,73.0,7.0,15.0,2.0,0.0
60,72.0,7.0,15.0,2.0,0.0
61,70.0,24.0,15.0,2.0,0.0
62,72.0,17.0,20.0,2.0,0.0
63,56.0,1.0,20.0,3.0,0.0
64,73.0,28.0,20.0,2.0,0.0
65,60.0,4.0,30.0,3.0,0.0
66,75.0,2.0,30.0,2.0,0.0
67,61.0,2.0,15.0,3.0,0.0
68,77.0,6.0,15.0,2.0,0.0
69,60.0,1.0,15.0,3.0,0.0
70,75.0,7.0,15.0,2.0,0.0
71,58.0,0.0,15.0,3.0,0.0
72,73.0,24.0,15.0,2.0,0.0
73,75.0,20.0,20.0,2.0,0.0
74,60.0,0.0,20.0,3.0,0.0
75,77.0,27.0,20.0,2.0,0.0
76,61.0,2.0,20.0,3.0,0.0
77,78.0,46.0,30.0,2.0,0.0
78,63.0,2.0,30.0,3.0,0.0
79,63.0,48.0,30.0,3.0,0.0
80,78.0,0.0,30.0,2.0,0.0
81,78.0,0.0,30.0,2.0,0.0
82,63.0,48.0,30.0,3.0,0.0
83,78.0,119.0,30.0,2.0,0.0
84,63.0,0.0,30.0,3.0,0.0
85,32.0,0.0,180.0,8.0,0.0
86,44.0,23.0,180.0,0.0,0.0
87,44.0,0.0,180.0,7.0,0.0
88,63.0,96.0,90.0,3.0,0.0
89,56.0,22.0,210.0,4.0,0.0
90,78.0,0.0,90.0,2.0,0.0
91,75.0,0.0,90.0,2.0,0.0
92,60.0,0.0,90.0,3.0,0.0
93,61.0,0.0,40.0,3.0,0.0
94,37.0,0.0,40.0,7.0,0.0
95,77.0,1.0,40.0,2.0,0.0
96,25.0,2.0,40.0,8.0,0.0
97,37.0,0.0,40.0,0.0,0.0
98,65.0,0.0,20.0,5.0,0.0
99,61.0,24.0,20.0,6.0,0.0
100,68.0,24.0,20.0,5.0,0.0
101,65.0,0.0,20.0,6.0,0.0
102,63.0,24.0,20.0,6.0,0.0
103,66.0,0.0,20.0,5.0,0.0
104,65.0,0.0,20.0,5.0,0.0
105,61.0,24.0,20.0,6.0,0.0
106,60.0,0.0,20.0,6.0,0.0
107,63.0,24.0,20.0,5.0,0.0
108,58.0,20.0,20.0,6.0,0.0
109,61.0,0.0,20.0,5.0,0.0
110,60.0,2.0,20.0,5.0,0.0
111,77.0,1.0,20.0,2.0,0.0
112,56.0,0.0,20.0,6.0,0.0
113,65.0,49.0,20.0,3.0,0.0
114,54.0,45.0,40.0,6.0,0.0
115,58.0,0.0,40.0,5.0,0.0
116,63.0,0.0,40.0,3.0,0.0
117,42.0,0.0,90.0,0.0,0.0
118,75.0,0.0,40.0,2.0,0.0
119,42.0,0.0,90.0,7.0,0.0
120,30.0,39.0,90.0,8.0,0.0
121,60.0,0.0,40.0,3.0,0.0
122,56.0,3.0,40.0,5.0,0.0
123,51.0,0.0,40.0,6.0,0.0
124,72.0,0.0,40.0,2.0,0.0
125,53.0,0.0,40.0,6.0,0.0
126,41.0,2.0,40.0,7.0,0.0
127,29.0,0.0,40.0,8.0,0.0
128,56.0,0.0,40.0,5.0,0.0
129,73.0,50.0,40.0,2.0,0.0
130,61.0,0.0,40.0,3.0,0.0
131,41.0,0.0,40.0,0.0,0.0
132,77.0,2.0,20.0,2.0,0.0
133,65.0,51.0,20.0,3.0,0.0
134,56.0,2.0,120.0,5.0,0.0
135,42.0,0.0,90.0,7.0,0.0
136,75.0,0.0,40.0,2.0,0.0
137,42.0,37.0,90.0,0.0,0.0
138,48.0,45.0,40.0,6.0,0.0
139,63.0,0.0,40.0,3.0,0.0
140,30.0,3.0,90.0,8.0,0.0
141,72.0,0.0,40.0,2.0,0.0
142,60.0,0.0,40.0,3.0,0.0
143,51.0,0.0,40.0,6.0,0.0
144,73.0,0.0,40.0,2.0,0.0
145,29.0,0.0,40.0,8.0,0.0
146,41.0,0.0,40.0,7.0,0.0
147,61.0,49.0,40.0,3.0,0.0
148,41.0,2.0,40.0,0.0,0.0
149,53.0,0.0,40.0,6.0,0.0
150,68.0,5.0,90.0,3.0,0.0
151,77.0,30.0,20.0,2.0,0.0
152,54.0,24.0,40.0,0.0,0.0
153,54.0,0.0,40.0,1.0,0.0
154,75.0,15.0,20.0,2.0,0.0
155,60.0,0.0,20.0,5.0,0.0
156,42.0,0.0,40.0,8.0,0.0
157,72.0,0.0,20.0,2.0,0.0
158,63.0,4.0,20.0,5.0,0.0
159,61.0,9.0,40.0,5.0,0.0
160,53.0,24.0,40.0,0.0,0.0
161,73.0,15.0,20.0,2.0,0.0
162,68.0,3.0,90.0,3.0,0.0
163,53.0,0.0,40.0,1.0,0.0
164,41.0,0.0,40.0,8.0,0.0
165,77.0,0.0,20.0,2.0,0.0
166,54.0,24.0,40.0,1.0,0.0
167,75.0,17.0,20.0,2.0,0.0
168,42.0,0.0,40.0,8.0,0.0
169,60.0,0.0,20.0,5.0,0.0
170,54.0,0.0,40.0,0.0,0.0
171,63.0,4.0,20.0,5.0,0.0
172,72.0,0.0,20.0,2.0,0.0
173,68.0,2.0,40.0,3.0,0.0
174,53.0,0.0,40.0,0.0,0.0
175,41.0,4.0,40.0,8.0,0.0
176,73.0,15.0,20.0,2.0,0.0
177,53.0,0.0,40.0,1.0,0.0
178,61.0,1.0,40.0,5.0,0.0
179,77.0,26.0,20.0,2.0,0.0
180,51.0,1.0,90.0,1.0,0.0
181,51.0,3.0,90.0,0.0,0.0
182,61.0,44.0,40.0,5.0,0.0
183,39.0,0.0,90.0,8.0,0.0
184,80.0,18.0,20.0,2.0,0.0
185,70.0,6.0,90.0,3.0,0.0
186,78.0,0.0,20.0,2.0,0.0
187,78.0,6.0,90.0,2.0,0.0
188,58.0,42.0,40.0,5.0,0.0
189,60.0,4.0,90.0,3.0,0.0
190,44.0,0.0,90.0,7.0,0.0
191,44.0,3.0,90.0,0.0,0.0
192,63.0,24.0,40.0,5.0,0.0
193,54.0,0.0,90.0,6.0,0.0
194,32.0,0.0,90.0,8.0,0.0
195,56.0,0.0,40.0,5.0,0.0
196,77.0,14.0,20.0,2.0,0.0
197,75.0,27.0,20.0,2.0,0.0
198,46.0,0.0,40.0,7.0,0.0
199,61.0,2.0,40.0,3.0,0.0
200,58.0,4.0,90.0,5.0,0.0
201,46.0,2.0,40.0,0.0,0.0
202,53.0,14.0,40.0,6.0,0.0
203,34.0,3.0,40.0,8.0,0.0
204,75.0,15.0,20.0,2.0,0.0
205,73.0,2.0,20.0,2.0,0.0
206,30.0,3.0,40.0,8.0,0.0
207,42.0,0.0,40.0,7.0,0.0
208,54.0,24.0,40.0,6.0,0.0
209,72.0,24.0,15.0,2.0,0.0
210,61.0,0.0,90.0,3.0,0.0
211,42.0,0.0,40.0,0.0,0.0
212,70.0,3.0,15.0,2.0,0.0
213,61.0,0.0,90.0,5.0,0.0
214,41.0,1.0,40.0,0.0,0.0
215,56.0,1.0,40.0,6.0,0.0
216,29.0,17.0,40.0,8.0,0.0
217,70.0,17.0,20.0,2.0,0.0
218,41.0,0.0,40.0,7.0,0.0
219,68.0,2.0,20.0,2.0,0.0
220,37.0,4.0,40.0,0.0,0.0
221,25.0,0.0,40.0,8.0,0.0
222,56.0,2.0,40.0,6.0,0.0
223,66.0,24.0,15.0,2.0,0.0
224,37.0,75.0,40.0,7.0,0.0
225,61.0,0.0,40.0,3.0,0.0
226,65.0,1.0,15.0,2.0,0.0
227,56.0,25.0,120.0,4.0,0.0
228,44.0,0.0,90.0,0.0,0.0
229,65.0,0.0,60.0,3.0,0.0
230,44.0,0.0,90.0,7.0,0.0
231,32.0,6.0,90.0,8.0,0.0
232,68.0,17.0,60.0,2.0,0.0
233,61.0,21.0,20.0,3.0,0.0
234,65.0,0.0,20.0,2.0,0.0
235,63.0,0.0,40.0,2.0,0.0
236,60.0,3.0,40.0,3.0,0.0
237,55.0,24.0,20.0,4.0,0.0
238,54.0,20.0,20.0,4.0,0.0
239,56.0,31.0,20.0,3.0,0.0
240,51.0,1.0,20.0,4.0,0.0
241,49.0,3.0,90.0,4.0,0.0
242,61.0,7.0,30.0,3.0,0.0
243,63.0,7.0,15.0,3.0,0.0
244,61.0,7.0,15.0,3.0,0.0
245,60.0,23.0,15.0,3.0,0.0
246,61.0,17.0,20.0,3.0,0.0
247,63.0,30.0,20.0,3.0,0.0
248,56.0,2.0,20.0,5.0,0.0
249,65.0,2.0,30.0,3.0,0.0
250,61.0,5.0,30.0,5.0,0.0
251,66.0,1.0,15.0,3.0,0.0
252,63.0,6.0,15.0,5.0,0.0
253,65.0,0.0,15.0,3.0,0.0
254,61.0,6.0,15.0,5.0,0.0
255,63.0,23.0,15.0,3.0,0.0
256,60.0,1.0,15.0,5.0,0.0
257,65.0,0.0,20.0,3.0,0.0
258,61.0,20.0,20.0,5.0,0.0
259,68.0,2.0,20.0,2.0,0.0
260,66.0,32.0,20.0,3.0,0.0
261,63.0,0.0,20.0,5.0,0.0
262,65.0,27.0,40.0,4.0,0.0
263,68.0,18.0,30.0,3.0,0.0
264,80.0,0.0,40.0,2.0,0.0
265,63.0,27.0,40.0,6.0,0.0
266,65.0,14.0,30.0,5.0,0.0
267,68.0,7.0,30.0,3.0,0.0
268,78.0,0.0,40.0,2.0,0.0
269,77.0,0.0,40.0,2.0,0.0
270,65.0,14.0,30.0,5.0,0.0
271,61.0,27.0,40.0,6.0,0.0
272,68.0,7.0,30.0,3.0,0.0
273,75.0,48.0,40.0,2.0,0.0
274,65.0,11.0,30.0,5.0,0.0
275,68.0,7.0,30.0,3.0,0.0
276,59.0,3.0,40.0,6.0,0.0
277,68.0,0.0,90.0,3.0,0.0
278,58.0,48.0,240.0,6.0,0.0
279,65.0,0.0,90.0,5.0,0.0
280,74.0,48.0,40.0,2.0,0.0
281,71.0,48.0,40.0,2.0,0.0
282,62.0,0.0,90.0,5.0,0.0
283,65.0,1.0,90.0,3.0,0.0
284,70.0,45.0,40.0,2.0,0.0
285,68.0,47.0,40.0,2.0,0.0
286,66.0,0.0,270.0,1.0,0.0
287,51.0,0.0,40.0,7.0,0.0
288,63.0,3.0,40.0,5.0,0.0
289,39.0,0.0,40.0,8.0,0.0
290,51.0,0.0,40.0,0.0,0.0
291,66.0,3.0,240.0,2.0,0.0
292,37.0,0.0,40.0,8.0,0.0
293,49.0,0.0,40.0,0.0,0.0
294,49.0,48.0,40.0,7.0,0.0
295,65.0,0.0,40.0,6.0,0.0
296,36.0,45.0,40.0,8.0,0.0
297,48.0,0.0,40.0,7.0,0.0
298,48.0,0.0,40.0,0.0,0.0
299,63.0,0.0,40.0,6.0,0.0
300,46.0,0.0,40.0,0.0,0.0
301,46.0,0.0,40.0,7.0,0.0
302,34.0,1.0,40.0,8.0,0.0
303,61.0,0.0,40.0,6.0,0.0
304,56.0,30.0,20.0,3.0,0.0
305,32.0,0.0,90.0,8.0,0.0
306,44.0,0.0,90.0,7.0,0.0
307,60.0,7.0,30.0,3.0,0.0
308,44.0,0.0,90.0,0.0,0.0
309,60.0,0.0,90.0,6.0,0.0
310,61.0,7.0,15.0,3.0,0.0
311,60.0,6.0,15.0,3.0,0.0
312,58.0,24.0,15.0,3.0,0.0
313,60.0,17.0,20.0,3.0,0.0
314,56.0,3.0,20.0,5.0,0.0
315,61.0,31.0,20.0,3.0,0.0
316,60.0,5.0,30.0,5.0,0.0
317,63.0,0.0,30.0,3.0,0.0
318,65.0,1.0,15.0,3.0,0.0
319,61.0,6.0,15.0,5.0,0.0
320,63.0,0.0,15.0,3.0,0.0
321,60.0,6.0,15.0,5.0,0.0
322,61.0,0.0,15.0,3.0,0.0
323,58.0,24.0,15.0,5.0,0.0
324,63.0,0.0,20.0,3.0,0.0
325,60.0,20.0,20.0,5.0,0.0
326,66.0,2.0,20.0,2.0,0.0
327,65.0,30.0,20.0,3.0,0.0
328,61.0,1.0,20.0,5.0,0.0
329,66.0,19.0,30.0,3.0,0.0
330,63.0,25.0,40.0,4.0,0.0
331,78.0,0.0,40.0,2.0,0.0
332,77.0,25.0,40.0,2.0,0.0
333,63.0,14.0,30.0,5.0,0.0
334,66.0,9.0,30.0,3.0,0.0
335,61.0,0.0,40.0,6.0,0.0
336,63.0,14.0,30.0,5.0,0.0
337,75.0,25.0,40.0,2.0,0.0
338,66.0,9.0,30.0,3.0,0.0
339,60.0,0.0,40.0,6.0,0.0
340,66.0,9.0,30.0,3.0,0.0
341,73.0,48.0,40.0,2.0,0.0
342,58.0,3.0,40.0,6.0,0.0
343,63.0,11.0,30.0,5.0,0.0
344,66.0,48.0,90.0,3.0,0.0
345,56.0,4.0,240.0,6.0,0.0
346,63.0,0.0,90.0,5.0,0.0
347,72.0,48.0,40.0,2.0,0.0
348,70.0,0.0,40.0,2.0,0.0
349,68.0,43.0,40.0,2.0,0.0
350,63.0,2.0,90.0,3.0,0.0
351,60.0,1.0,90.0,5.0,0.0
352,66.0,43.0,40.0,2.0,0.0
353,49.0,48.0,40.0,0.0,0.0
354,37.0,0.0,40.0,8.0,0.0
355,49.0,0.0,40.0,7.0,0.0
356,61.0,3.0,40.0,5.0,0.0
357,65.0,4.0,150.0,1.0,0.0
358,65.0,34.0,120.0,2.0,0.0
359,36.0,0.0,40.0,8.0,0.0
360,63.0,0.0,40.0,6.0,0.0
361,48.0,0.0,40.0,7.0,0.0
362,48.0,48.0,40.0,0.0,0.0
363,34.0,0.0,40.0,8.0,0.0
364,46.0,0.0,40.0,7.0,0.0
365,46.0,6.0,40.0,0.0,0.0
366,61.0,0.0,40.0,6.0,0.0
367,44.0,0.0,40.0,0.0,0.0
368,60.0,0.0,40.0,6.0,0.0
369,32.0,0.0,40.0,8.0,0.0
370,44.0,52.0,40.0,7.0,0.0
371,65.0,0.0,20.0,2.0,0.0
372,42.0,0.0,90.0,0.0,0.0
373,58.0,0.0,40.0,6.0,0.0
374,54.0,0.0,90.0,5.0,0.0
375,51.0,0.0,90.0,3.0,0.0
376,30.0,0.0,90.0,8.0,0.0
377,63.0,43.0,40.0,2.0,0.0
378,42.0,0.0,90.0,7.0,0.0
379,60.0,5.0,40.0,2.0,0.0
380,57.0,36.0,40.0,6.0,0.0
381,41.0,0.0,40.0,7.0,0.0
382,41.0,0.0,40.0,0.0,0.0
383,53.0,0.0,40.0,1.0,0.0
384,29.0,53.0,40.0,8.0,0.0
385,56.0,0.0,40.0,6.0,0.0
386,61.0,3.0,40.0,2.0,0.0
387,65.0,28.0,20.0,2.0,0.0
388,30.0,0.0,90.0,8.0,0.0
389,42.0,0.0,90.0,0.0,0.0
390,48.0,24.0,40.0,5.0,0.0
391,54.0,0.0,90.0,6.0,0.0
392,63.0,20.0,20.0,2.0,0.0
393,42.0,32.0,90.0,7.0,0.0
394,57.0,0.0,90.0,3.0,0.0
395,66.0,4.0,20.0,2.0,0.0
396,60.0,19.0,20.0,2.0,0.0
397,51.0,1.0,40.0,5.0,0.0
398,63.0,4.0,20.0,2.0,0.0
399,56.0,1.0,30.0,3.0,0.0
400,53.0,4.0,40.0,4.0,0.0
401,41.0,54.0,40.0,0.0,0.0
402,29.0,0.0,40.0,8.0,0.0
403,61.0,2.0,30.0,2.0,0.0
404,41.0,0.0,40.0,7.0,0.0
405,56.0,6.0,90.0,3.0,0.0
406,65.0,27.0,20.0,2.0,0.0
407,42.0,0.0,40.0,0.0,0.0
408,30.0,0.0,40.0,8.0,0.0
409,48.0,14.0,20.0,5.0,0.0
410,54.0,0.0,40.0,6.0,0.0
411,63.0,0.0,20.0,2.0,0.0
412,42.0,0.0,40.0,7.0,0.0
413,60.0,24.0,20.0,2.0,0.0
414,51.0,4.0,20.0,5.0,0.0
415,41.0,0.0,40.0,7.0,0.0
416,56.0,3.0,90.0,3.0,0.0
417,29.0,0.0,40.0,8.0,0.0
418,41.0,0.0,40.0,0.0,0.0
419,49.0,9.0,40.0,5.0,0.0
420,53.0,24.0,40.0,6.0,0.0
421,61.0,15.0,20.0,2.0,0.0
422,65.0,0.0,20.0,2.0,0.0
423,42.0,0.0,40.0,7.0,0.0
424,63.0,0.0,20.0,2.0,0.0
425,42.0,24.0,40.0,0.0,0.0
426,54.0,0.0,40.0,6.0,0.0
427,48.0,17.0,20.0,5.0,0.0
428,30.0,0.0,40.0,8.0,0.0
429,60.0,0.0,20.0,2.0,0.0
430,51.0,4.0,20.0,5.0,0.0
431,41.0,0.0,40.0,7.0,0.0
432,61.0,10.0,20.0,2.0,0.0
433,56.0,5.0,40.0,3.0,0.0
434,53.0,0.0,40.0,6.0,0.0
435,49.0,5.0,30.0,5.0,0.0
436,29.0,0.0,40.0,8.0,0.0
437,41.0,2.0,40.0,0.0,0.0
438,65.0,26.0,20.0,2.0,0.0
439,39.0,2.0,30.0,0.0,0.0
440,27.0,9.0,30.0,8.0,0.0
441,39.0,0.0,30.0,7.0,0.0
442,68.0,1.0,20.0,2.0,0.0
443,51.0,0.0,30.0,6.0,0.0
444,49.0,0.0,30.0,5.0,0.0
445,58.0,7.0,30.0,3.0,0.0
446,66.0,29.0,20.0,2.0,0.0
447,32.0,82.0,30.0,8.0,0.0
448,66.0,0.0,20.0,2.0,0.0
449,60.0,3.0,30.0,3.0,0.0
450,51.0,1.0,20.0,5.0,0.0
451,44.0,4.0,30.0,1.0,0.0
452,44.0,2.0,30.0,0.0,0.0
453,49.0,8.0,30.0,5.0,0.0
454,61.0,0.0,20.0,3.0,0.0
455,46.0,34.0,30.0,0.0,0.0
456,46.0,0.0,20.0,1.0,0.0
457,65.0,4.0,20.0,2.0,0.0
458,34.0,2.0,20.0,8.0,0.0
459,54.0,8.0,30.0,4.0,0.0
460,58.0,2.0,20.0,3.0,0.0
461,42.0,34.0,30.0,0.0,0.0
462,30.0,0.0,20.0,8.0,0.0
463,42.0,0.0,20.0,7.0,0.0
464,63.0,4.0,20.0,2.0,0.0
465,41.0,0.0,20.0,7.0,0.0
466,41.0,42.0,30.0,0.0,0.0
467,56.0,2.0,20.0,3.0,0.0
468,29.0,0.0,20.0,8.0,0.0
469,61.0,4.0,20.0,2.0,0.0
470,53.0,4.0,30.0,4.0,0.0
471,54.0,4.0,30.0,4.0,0.0
472,30.0,0.0,20.0,8.0,0.0
473,42.0,2.0,20.0,7.0,0.0
474,56.0,0.0,20.0,3.0,0.0
475,65.0,0.0,20.0,2.0,0.0
476,42.0,11.0,30.0,0.0,0.0
477,54.0,23.0,15.0,3.0,0.0
478,63.0,0.0,15.0,2.0,0.0
479,44.0,10.0,30.0,0.0,0.0
480,61.0,7.0,15.0,2.0,0.0
481,32.0,0.0,20.0,8.0,0.0
482,56.0,4.0,30.0,4.0,0.0
483,44.0,2.0,20.0,7.0,0.0
484,53.0,1.0,15.0,3.0,0.0
485,51.0,1.0,15.0,3.0,0.0
486,60.0,29.0,15.0,2.0,0.0
487,46.0,4.0,30.0,7.0,0.0
488,34.0,1.0,30.0,8.0,0.0
489,68.0,1.0,20.0,3.0,0.0
490,80.0,0.0,20.0,2.0,0.0
491,58.0,0.0,30.0,6.0,0.0
492,61.0,12.0,30.0,5.0,0.0
493,46.0,2.0,20.0,0.0,0.0
494,78.0,0.0,20.0,2.0,0.0
495,66.0,28.0,20.0,3.0,0.0
496,48.0,0.0,20.0,0.0,0.0
497,56.0,86.0,30.0,6.0,0.0
498,36.0,1.0,30.0,8.0,0.0
499,66.0,3.0,30.0,3.0,0.0
500,48.0,1.0,30.0,7.0,0.0
501,63.0,0.0,30.0,5.0,0.0
502,78.0,3.0,20.0,2.0,0.0
503,37.0,5.0,30.0,8.0,0.0
504,49.0,36.0,30.0,0.0,0.0
505,56.0,0.0,30.0,6.0,0.0
506,49.0,2.0,30.0,7.0,0.0
507,77.0,4.0,20.0,2.0,0.0
508,65.0,1.0,20.0,3.0,0.0
509,61.0,0.0,30.0,5.0,0.0
510,63.0,1.0,20.0,3.0,0.0
511,58.0,0.0,20.0,5.0,0.0
512,54.0,2.0,30.0,1.0,0.0
513,54.0,36.0,30.0,0.0,0.0
514,75.0,4.0,20.0,2.0,0.0
515,42.0,5.0,30.0,8.0,0.0
516,53.0,40.0,30.0,0.0,0.0
517,53.0,2.0,30.0,1.0,0.0
518,56.0,1.0,20.0,5.0,0.0
519,41.0,5.0,30.0,8.0,0.0
520,73.0,2.0,20.0,2.0,0.0
521,61.0,2.0,20.0,3.0,0.0
522,54.0,9.0,30.0,0.0,0.0
523,65.0,1.0,20.0,3.0,0.0
524,54.0,2.0,30.0,1.0,0.0
525,77.0,0.0,20.0,2.0,0.0
526,56.0,0.0,20.0,5.0,0.0
527,42.0,5.0,30.0,8.0,0.0
528,54.0,0.0,15.0,5.0,0.0
529,75.0,0.0,15.0,2.0,0.0
530,63.0,22.0,15.0,3.0,0.0
531,73.0,1.0,15.0,2.0,0.0
532,56.0,2.0,30.0,1.0,0.0
533,44.0,5.0,30.0,8.0,0.0
534,61.0,1.0,15.0,3.0,0.0
535,56.0,7.0,30.0,0.0,0.0
536,53.0,8.0,15.0,5.0,0.0
537,51.0,19.0,15.0,5.0,0.0
538,72.0,1.0,15.0,2.0,0.0
539,60.0,1.0,15.0,3.0,0.0
540,37.0,5.0,90.0,8.0,0.0
541,53.0,24.0,15.0,5.0,0.0
542,56.0,19.0,90.0,6.0,0.0
543,49.0,0.0,90.0,7.0,0.0
544,61.0,0.0,15.0,3.0,0.0
545,73.0,14.0,40.0,2.0,0.0
546,49.0,0.0,90.0,0.0,0.0
547,65.0,0.0,15.0,3.0,0.0
548,61.0,10.0,15.0,5.0,0.0
549,65.0,0.0,15.0,5.0,0.0
550,68.0,19.0,15.0,3.0,0.0
551,63.0,0.0,15.0,5.0,0.0
552,66.0,5.0,15.0,3.0,0.0
553,65.0,24.0,15.0,3.0,0.0
554,61.0,0.0,15.0,5.0,0.0
555,77.0,0.0,40.0,2.0,0.0
556,66.0,0.0,15.0,3.0,0.0
557,65.0,12.0,15.0,5.0,0.0
558,78.0,12.0,15.0,2.0,0.0
559,66.0,2.0,15.0,3.0,0.0
560,63.0,0.0,15.0,5.0,0.0
561,80.0,22.0,15.0,2.0,0.0
562,65.0,0.0,15.0,3.0,0.0
563,80.0,22.0,15.0,2.0,0.0
564,61.0,2.0,15.0,5.0,0.0
565,56.0,15.0,40.0,6.0,0.0
566,80.0,3.0,40.0,2.0,0.0
567,44.0,2.0,40.0,0.0,0.0
568,60.0,0.0,15.0,5.0,0.0
569,63.0,24.0,15.0,3.0,0.0
570,32.0,0.0,40.0,8.0,0.0
571,44.0,2.0,40.0,7.0,0.0
572,60.0,2.0,15.0,5.0,0.0
573,63.0,0.0,15.0,3.0,0.0
574,58.0,0.0,15.0,5.0,0.0
575,61.0,24.0,15.0,3.0,0.0
576,56.0,0.0,15.0,5.0,0.0
577,60.0,24.0,15.0,3.0,0.0
578,58.0,0.0,15.0,3.0,0.0
579,51.0,2.0,40.0,7.0,0.0
580,39.0,0.0,40.0,8.0,0.0
581,75.0,3.0,40.0,2.0,0.0
582,63.0,15.0,40.0,6.0,0.0
583,51.0,2.0,40.0,0.0,0.0
584,55.0,24.0,15.0,5.0,0.0
585,56.0,0.0,15.0,3.0,0.0
586,53.0,2.0,15.0,5.0,0.0
587,58.0,0.0,15.0,3.0,0.0
588,55.0,24.0,15.0,5.0,0.0
589,55.0,0.0,15.0,3.0,0.0
590,51.0,24.0,15.0,5.0,0.0
591,68.0,2.0,90.0,6.0,0.0
592,56.0,18.0,90.0,0.0,0.0
593,60.0,0.0,15.0,3.0,0.0
594,56.0,24.0,15.0,5.0,0.0
595,44.0,0.0,90.0,8.0,0.0
596,72.0,22.0,40.0,2.0,0.0
597,56.0,4.0,90.0,7.0,0.0
598,61.0,2.0,15.0,3.0,0.0
599,58.0,0.0,15.0,5.0,0.0
600,63.0,18.0,15.0,3.0,0.0
601,60.0,0.0,15.0,5.0,0.0
602,60.0,6.0,15.0,3.0,0.0
603,56.0,0.0,15.0,5.0,0.0
604,65.0,24.0,15.0,3.0,0.0
605,77.0,0.0,40.0,2.0,0.0
606,61.0,0.0,15.0,5.0,0.0
607,65.0,0.0,15.0,5.0,0.0
608,68.0,12.0,15.0,3.0,0.0
609,78.0,12.0,15.0,2.0,0.0
610,66.0,0.0,15.0,3.0,0.0
611,80.0,22.0,15.0,2.0,0.0
612,63.0,2.0,15.0,5.0,0.0
613,80.0,22.0,15.0,2.0,0.0
614,65.0,2.0,15.0,3.0,0.0
615,61.0,0.0,15.0,5.0,0.0
616,60.0,0.0,15.0,5.0,0.0
617,80.0,16.0,20.0,2.0,0.0
618,44.0,2.0,40.0,7.0,0.0
619,32.0,0.0,40.0,8.0,0.0
620,56.0,0.0,40.0,6.0,0.0
621,44.0,15.0,40.0,0.0,0.0
622,63.0,8.0,15.0,3.0,0.0
623,60.0,0.0,15.0,5.0,0.0
624,63.0,7.0,15.0,3.0,0.0
625,58.0,0.0,15.0,5.0,0.0
626,80.0,16.0,20.0,2.0,0.0
627,61.0,8.0,15.0,3.0,0.0
628,56.0,24.0,15.0,5.0,0.0
629,60.0,0.0,15.0,3.0,0.0
630,39.0,0.0,40.0,8.0,0.0
631,75.0,16.0,20.0,2.0,0.0
632,51.0,0.0,40.0,0.0,0.0
633,63.0,15.0,40.0,6.0,0.0
634,58.0,8.0,15.0,3.0,0.0
635,55.0,0.0,15.0,5.0,0.0
636,51.0,2.0,40.0,7.0,0.0
637,53.0,0.0,15.0,5.0,0.0
638,56.0,7.0,15.0,3.0,0.0
639,58.0,8.0,15.0,3.0,0.0
640,75.0,16.0,20.0,2.0,0.0
641,55.0,0.0,15.0,5.0,0.0
642,55.0,0.0,15.0,3.0,0.0
643,51.0,54.0,15.0,5.0,0.0
644,72.0,36.0,40.0,2.0,0.0
645,44.0,4.0,90.0,8.0,0.0
646,56.0,0.0,90.0,7.0,0.0
647,56.0,0.0,90.0,0.0,0.0
648,60.0,14.0,90.0,3.0,0.0
649,56.0,0.0,90.0,5.0,0.0
650,68.0,0.0,90.0,6.0,0.0
651,75.0,24.0,20.0,2.0,0.0
652,77.0,24.0,20.0,2.0,0.0
653,75.0,24.0,20.0,2.0,0.0
654,73.0,17.0,20.0,2.0,0.0
655,72.0,19.0,15.0,2.0,0.0
656,49.0,0.0,15.0,0.0,0.0
657,61.0,0.0,15.0,4.0,0.0
658,70.0,0.0,15.0,2.0,0.0
659,49.0,1.0,15.0,7.0,0.0
660,56.0,23.0,15.0,3.0,0.0
661,37.0,0.0,15.0,8.0,0.0
662,36.0,24.0,15.0,8.0,0.0
663,60.0,0.0,15.0,4.0,0.0
664,48.0,0.0,15.0,0.0,0.0
665,56.0,0.0,15.0,3.0,0.0
666,69.0,0.0,15.0,2.0,0.0
667,48.0,0.0,15.0,7.0,0.0
668,61.0,0.0,15.0,4.0,0.0
669,70.0,0.0,15.0,2.0,0.0
670,49.0,0.0,15.0,0.0,0.0
671,49.0,0.0,15.0,7.0,0.0
672,56.0,24.0,15.0,3.0,0.0
673,37.0,0.0,15.0,8.0,0.0
674,63.0,0.0,15.0,4.0,0.0
675,72.0,0.0,15.0,2.0,0.0
676,51.0,24.0,15.0,0.0,0.0
677,39.0,0.0,15.0,8.0,0.0
678,51.0,0.0,15.0,7.0,0.0
679,56.0,0.0,15.0,3.0,0.0
680,56.0,24.0,15.0,3.0,0.0
681,53.0,0.0,15.0,0.0,0.0
682,41.0,0.0,15.0,8.0,0.0
683,53.0,0.0,15.0,7.0,0.0
684,65.0,0.0,15.0,4.0,0.0
685,73.0,0.0,15.0,2.0,0.0
686,75.0,0.0,15.0,2.0,0.0
687,55.0,0.0,15.0,0.0,0.0
688,43.0,0.0,15.0,8.0,0.0
689,55.0,24.0,15.0,7.0,0.0
690,67.0,0.0,15.0,4.0,0.0
691,56.0,0.0,15.0,3.0,0.0
692,77.0,0.0,15.0,2.0,0.0
693,68.0,0.0,15.0,4.0,0.0
694,56.0,0.0,15.0,7.0,0.0
695,56.0,0.0,15.0,0.0,0.0
696,56.0,0.0,15.0,3.0,0.0
697,44.0,24.0,15.0,8.0,0.0
698,56.0,0.0,15.0,3.0,0.0
699,43.0,0.0,15.0,8.0,0.0
700,55.0,0.0,15.0,7.0,0.0
701,67.0,0.0,15.0,4.0,0.0
702,76.0,0.0,15.0,2.0,0.0
703,55.0,24.0,15.0,0.0,0.0
704,77.0,13.0,20.0,2.0,0.0
705,44.0,0.0,20.0,8.0,0.0
706,56.0,11.0,15.0,3.0,0.0
707,56.0,0.0,20.0,0.0,0.0
708,68.0,0.0,20.0,4.0,0.0
709,56.0,0.0,20.0,7.0,0.0
710,56.0,24.0,15.0,3.0,0.0
711,55.0,0.0,20.0,0.0,0.0
712,43.0,13.0,20.0,8.0,0.0
713,75.0,0.0,20.0,2.0,0.0
714,67.0,0.0,20.0,4.0,0.0
715,56.0,11.0,15.0,3.0,0.0
716,55.0,0.0,20.0,7.0,0.0
717,56.0,24.0,15.0,3.0,0.0
718,41.0,0.0,20.0,8.0,0.0
719,56.0,11.0,15.0,3.0,0.0
720,53.0,0.0,20.0,7.0,0.0
721,53.0,0.0,20.0,0.0,0.0
722,73.0,0.0,20.0,2.0,0.0
723,65.0,13.0,20.0,4.0,0.0
724,56.0,24.0,15.0,3.0,0.0
725,39.0,0.0,20.0,8.0,0.0
726,72.0,0.0,20.0,2.0,0.0
727,56.0,11.0,15.0,3.0,0.0
728,51.0,13.0,20.0,0.0,0.0
729,51.0,0.0,20.0,7.0,0.0
730,63.0,0.0,20.0,4.0,0.0
731,56.0,24.0,15.0,3.0,0.0
732,49.0,0.0,15.0,7.0,0.0
733,37.0,24.0,15.0,8.0,0.0
734,49.0,0.0,15.0,0.0,0.0
735,61.0,0.0,15.0,4.0,0.0
736,70.0,0.0,15.0,2.0,0.0
737,56.0,0.0,15.0,3.0,0.0
738,60.0,0.0,15.0,4.0,0.0
739,56.0,0.0,15.0,3.0,0.0
740,69.0,0.0,15.0,2.0,0.0
741,48.0,24.0,15.0,7.0,0.0
742,36.0,0.0,15.0,8.0,0.0
743,48.0,0.0,15.0,0.0,0.0
744,37.0,0.0,15.0,8.0,0.0
745,49.0,0.0,15.0,0.0,0.0
746,56.0,0.0,15.0,3.0,0.0
747,49.0,24.0,15.0,7.0,0.0
748,70.0,0.0,15.0,2.0,0.0
749,61.0,0.0,15.0,4.0,0.0
750,56.0,0.0,15.0,3.0,0.0
751,63.0,0.0,15.0,4.0,0.0
752,51.0,0.0,15.0,0.0,0.0
753,39.0,0.0,15.0,8.0,0.0
754,51.0,0.0,15.0,7.0,0.0
755,72.0,24.0,15.0,2.0,0.0
756,56.0,0.0,15.0,3.0,0.0
757,41.0,0.0,15.0,8.0,0.0
758,53.0,0.0,15.0,0.0,0.0
759,65.0,0.0,15.0,4.0,0.0
760,73.0,0.0,15.0,2.0,0.0
761,53.0,24.0,15.0,7.0,0.0
762,67.0,0.0,15.0,4.0,0.0
763,75.0,0.0,15.0,2.0,0.0
764,43.0,24.0,15.0,8.0,0.0
765,55.0,0.0,15.0,0.0,0.0
766,55.0,0.0,15.0,7.0,0.0
767,56.0,0.0,15.0,3.0,0.0
768,77.0,24.0,15.0,2.0,0.0
769,44.0,0.0,15.0,8.0,0.0
770,56.0,0.0,15.0,3.0,0.0
771,68.0,0.0,15.0,4.0,0.0
772,56.0,0.0,15.0,0.0,0.0
773,56.0,0.0,15.0,7.0,0.0
774,67.0,0.0,15.0,4.0,0.0
775,56.0,0.0,15.0,3.0,0.0
776,55.0,0.0,15.0,0.0,0.0
777,76.0,0.0,15.0,2.0,0.0
778,55.0,24.0,15.0,7.0,0.0
779,43.0,0.0,15.0,8.0,0.0
780,68.0,0.0,20.0,4.0,0.0
781,77.0,13.0,20.0,2.0,0.0
782,56.0,11.0,15.0,3.0,0.0
783,44.0,0.0,20.0,8.0,0.0
784,56.0,0.0,20.0,7.0,0.0
785,56.0,0.0,20.0,0.0,0.0
786,56.0,24.0,15.0,3.0,0.0
787,67.0,0.0,20.0,4.0,0.0
788,55.0,13.0,20.0,7.0,0.0
789,43.0,0.0,20.0,8.0,0.0
790,75.0,0.0,20.0,2.0,0.0
791,55.0,0.0,20.0,0.0,0.0
792,56.0,11.0,15.0,3.0,0.0
793,56.0,24.0,15.0,3.0,0.0
794,73.0,0.0,20.0,2.0,0.0
795,53.0,0.0,20.0,7.0,0.0
796,41.0,0.0,20.0,8.0,0.0
797,53.0,0.0,20.0,0.0,0.0
798,56.0,11.0,15.0,3.0,0.0
799,65.0,13.0,20.0,4.0,0.0
800,56.0,24.0,15.0,3.0,0.0
801,51.0,0.0,20.0,7.0,0.0
802,72.0,0.0,20.0,2.0,0.0
803,51.0,13.0,20.0,0.0,0.0
804,39.0,0.0,20.0,8.0,0.0
805,63.0,0.0,20.0,4.0,0.0
806,56.0,11.0,15.0,3.0,0.0
807,56.0,36.0,15.0,3.0,0.0
808,72.0,18.0,20.0,2.0,0.0
809,49.0,0.0,90.0,0.0,0.0
810,65.0,48.0,90.0,4.0,0.0
811,56.0,7.0,720.0,3.0,0.0
812,49.0,0.0,90.0,7.0,0.0
813,37.0,0.0,90.0,8.0,0.0
814,70.0,54.0,20.0,2.0,0.0
815,70.0,37.0,90.0,2.0,0.0
816,51.0,0.0,90.0,7.0,0.0
817,39.0,24.0,90.0,8.0,0.0
818,51.0,0.0,90.0,0.0,0.0
819,63.0,0.0,90.0,4.0,0.0
820,72.0,11.0,40.0,2.0,0.0
821,61.0,48.0,90.0,4.0,0.0
822,53.0,0.0,90.0,0.0,0.0
823,72.0,18.0,20.0,2.0,0.0
824,53.0,0.0,90.0,7.0,0.0
825,41.0,0.0,90.0,8.0,0.0
826,70.0,54.0,20.0,2.0,0.0
827,70.0,37.0,90.0,2.0,0.0
828,39.0,0.0,90.0,8.0,0.0
829,51.0,24.0,90.0,0.0,0.0
830,63.0,4.0,90.0,4.0,0.0
831,51.0,3.0,90.0,7.0,0.0
832,72.0,4.0,40.0,2.0,0.0
833,38.0,0.0,90.0,8.0,0.0
834,50.0,0.0,90.0,7.0,0.0
835,50.0,48.0,90.0,0.0,0.0
836,65.0,0.0,90.0,4.0,0.0
837,72.0,18.0,20.0,2.0,0.0
838,70.0,54.0,20.0,2.0,0.0
839,70.0,37.0,90.0,2.0,0.0
840,39.0,0.0,90.0,8.0,0.0
841,63.0,6.0,90.0,4.0,0.0
842,51.0,1.0,90.0,0.0,0.0
843,51.0,24.0,90.0,7.0,0.0
844,72.0,4.0,40.0,2.0,0.0
845,72.0,18.0,20.0,2.0,0.0
846,53.0,0.0,90.0,0.0,0.0
847,41.0,41.0,90.0,8.0,0.0
848,62.0,0.0,180.0,4.0,0.0
849,53.0,0.0,90.0,7.0,0.0
850,70.0,54.0,20.0,2.0,0.0
851,70.0,39.0,90.0,2.0,0.0
852,52.0,0.0,90.0,7.0,0.0
853,40.0,0.0,90.0,8.0,0.0
854,52.0,46.0,90.0,0.0,0.0
855,68.0,33.0,90.0,3.0,0.0
856,71.0,2.0,40.0,2.0,0.0
857,51.0,0.0,270.0,0.0,0.0
858,39.0,0.0,270.0,8.0,0.0
859,51.0,0.0,270.0,7.0,0.0
860,71.0,18.0,60.0,2.0,0.0
861,63.0,0.0,270.0,4.0,0.0
862,68.0,48.0,40.0,3.0,0.0
863,70.0,6.0,20.0,2.0,0.0
864,67.0,45.0,40.0,3.0,0.0
865,70.0,27.0,120.0,2.0,0.0
866,65.0,24.0,40.0,3.0,0.0
867,67.0,7.0,90.0,3.0,0.0
868,72.0,24.0,20.0,2.0,0.0
869,73.0,17.0,20.0,2.0,0.0
870,72.0,26.0,20.0,2.0,0.0
871,75.0,23.0,30.0,2.0,0.0
872,73.0,22.0,20.0,2.0,0.0
873,72.0,22.0,20.0,2.0,0.0
874,70.0,15.0,20.0,2.0,0.0
875,32.0,0.0,90.0,8.0,0.0
876,63.0,19.0,90.0,5.0,0.0
877,60.0,24.0,15.0,3.0,0.0
878,44.0,0.0,90.0,0.0,0.0
879,44.0,0.0,90.0,7.0,0.0
880,68.0,19.0,150.0,2.0,0.0
881,56.0,0.0,90.0,6.0,0.0
882,63.0,24.0,15.0,3.0,0.0
883,68.0,24.0,15.0,3.0,0.0
884,63.0,5.0,15.0,3.0,0.0
885,60.0,24.0,15.0,3.0,0.0
886,63.0,5.0,15.0,3.0,0.0
887,72.0,16.0,15.0,2.0,0.0
888,68.0,4.0,15.0,3.0,0.0
889,70.0,4.0,15.0,2.0,0.0
890,63.0,10.0,15.0,3.0,0.0
891,68.0,14.0,15.0,2.0,0.0
892,73.0,16.0,20.0,2.0,0.0
893,65.0,8.0,15.0,3.0,0.0
894,68.0,24.0,15.0,3.0,0.0
895,72.0,16.0,20.0,2.0,0.0
896,63.0,8.0,15.0,3.0,0.0
897,67.0,24.0,15.0,3.0,0.0
898,61.0,8.0,15.0,3.0,0.0
899,70.0,16.0,20.0,2.0,0.0
900,65.0,24.0,15.0,3.0,0.0
901,60.0,8.0,15.0,3.0,0.0
902,68.0,16.0,20.0,2.0,0.0
903,63.0,36.0,15.0,3.0,0.0
904,44.0,0.0,180.0,0.0,0.0
905,58.0,24.0,20.0,3.0,0.0
906,44.0,0.0,180.0,7.0,0.0
907,32.0,3.0,180.0,8.0,0.0
908,63.0,3.0,150.0,5.0,0.0
909,56.0,0.0,150.0,6.0,0.0
910,67.0,12.0,60.0,2.0,0.0
911,61.0,24.0,20.0,3.0,0.0
912,63.0,0.0,20.0,3.0,0.0
913,61.0,24.0,20.0,3.0,0.0
914,70.0,10.0,15.0,2.0,0.0
915,67.0,2.0,15.0,2.0,0.0
916,68.0,0.0,60.0,2.0,0.0
917,60.0,21.0,20.0,3.0,0.0
918,63.0,24.0,20.0,3.0,0.0
919,68.0,12.0,20.0,3.0,0.0
920,72.0,5.0,15.0,2.0,0.0
921,63.0,2.0,20.0,3.0,0.0
922,68.0,14.0,15.0,2.0,0.0
923,77.0,16.0,20.0,2.0,0.0
924,68.0,8.0,15.0,3.0,0.0
925,72.0,24.0,15.0,3.0,0.0
926,75.0,16.0,20.0,2.0,0.0
927,67.0,8.0,15.0,3.0,0.0
928,70.0,24.0,15.0,3.0,0.0
929,65.0,8.0,15.0,3.0,0.0
930,73.0,16.0,20.0,2.0,0.0
931,68.0,24.0,15.0,3.0,0.0
932,72.0,16.0,20.0,2.0,0.0
933,63.0,8.0,15.0,3.0,0.0
934,67.0,36.0,15.0,3.0,0.0
935,32.0,2.0,180.0,8.0,0.0
936,44.0,0.0,180.0,0.0,0.0
937,56.0,1.0,180.0,6.0,0.0
938,44.0,0.0,180.0,7.0,0.0
939,62.0,24.0,20.0,3.0,0.0
940,71.0,0.0,60.0,2.0,0.0
941,68.0,5.0,570.0,5.0,0.0
942,65.0,24.0,20.0,3.0,0.0
943,68.0,12.0,20.0,3.0,0.0
944,74.0,10.0,15.0,2.0,0.0
945,65.0,24.0,20.0,3.0,0.0
946,71.0,2.0,15.0,2.0,0.0
947,63.0,24.0,20.0,3.0,0.0
948,72.0,12.0,60.0,2.0,0.0
949,68.0,24.0,20.0,3.0,0.0
950,72.0,0.0,20.0,3.0,0.0
951,68.0,2.0,20.0,3.0,0.0
952,75.0,5.0,15.0,2.0,0.0
953,72.0,14.0,15.0,2.0,0.0
954,65.0,8.0,15.0,3.0,0.0
955,80.0,16.0,20.0,2.0,0.0
956,68.0,24.0,15.0,3.0,0.0
957,63.0,8.0,15.0,3.0,0.0
958,79.0,16.0,20.0,2.0,0.0
959,67.0,24.0,15.0,3.0,0.0
960,61.0,8.0,15.0,3.0,0.0
961,77.0,16.0,20.0,2.0,0.0
962,65.0,24.0,15.0,3.0,0.0
963,60.0,8.0,15.0,3.0,0.0
964,75.0,16.0,20.0,2.0,0.0
965,63.0,26.0,15.0,3.0,0.0
966,74.0,14.0,40.0,2.0,0.0
967,59.0,24.0,15.0,3.0,0.0
968,62.0,10.0,15.0,3.0,0.0
969,75.0,14.0,40.0,2.0,0.0
970,60.0,24.0,15.0,3.0,0.0
971,63.0,10.0,15.0,3.0,0.0
972,59.0,24.0,15.0,3.0,0.0
973,74.0,14.0,40.0,2.0,0.0
974,62.0,10.0,15.0,3.0,0.0
975,60.0,19.0,15.0,3.0,0.0
976,75.0,31.0,40.0,2.0,0.0
977,63.0,3.0,15.0,3.0,0.0
978,49.0,2.0,90.0,7.0,0.0
979,37.0,1.0,90.0,8.0,0.0
980,79.0,0.0,20.0,2.0,0.0
981,49.0,54.0,90.0,0.0,0.0
982,63.0,18.0,20.0,3.0,0.0
983,77.0,21.0,20.0,2.0,0.0
984,61.0,0.0,20.0,3.0,0.0
985,75.0,21.0,15.0,2.0,0.0
986,60.0,0.0,15.0,3.0,0.0
987,58.0,3.0,15.0,3.0,0.0
988,73.0,0.0,15.0,2.0,0.0
989,72.0,36.0,40.0,2.0,0.0
990,51.0,4.0,90.0,7.0,0.0
991,56.0,0.0,40.0,3.0,0.0
992,51.0,30.0,90.0,0.0,0.0
993,39.0,1.0,90.0,8.0,0.0
994,70.0,1.0,40.0,2.0,0.0
995,55.0,0.0,40.0,3.0,0.0
996,56.0,0.0,90.0,6.0,0.0
997,32.0,1.0,90.0,8.0,0.0
998,56.0,24.0,20.0,3.0,0.0
999,44.0,3.0,90.0,7.0,0.0
1000,44.0,0.0,90.0,0.0,0.0
1001,68.0,8.0,150.0,2.0,0.0
1002,63.0,7.0,90.0,5.0,0.0
1003,60.0,24.0,20.0,3.0,0.0
1004,63.0,13.0,20.0,3.0,0.0
1005,61.0,24.0,20.0,3.0,0.0
1006,60.0,16.0,20.0,3.0,0.0
1007,63.0,16.0,20.0,3.0,0.0
1008,72.0,8.0,15.0,2.0,0.0
1009,68.0,8.0,20.0,3.0,0.0
1010,70.0,13.0,15.0,2.0,0.0
1011,67.0,2.0,20.0,3.0,0.0
1012,68.0,13.0,15.0,2.0,0.0
1013,73.0,16.0,20.0,2.0,0.0
1014,65.0,8.0,15.0,3.0,0.0
1015,68.0,24.0,15.0,3.0,0.0
1016,63.0,8.0,15.0,3.0,0.0
1017,72.0,16.0,20.0,2.0,0.0
1018,67.0,24.0,15.0,3.0,0.0
1019,61.0,8.0,15.0,3.0,0.0
1020,70.0,16.0,20.0,2.0,0.0
1021,65.0,24.0,15.0,3.0,0.0
1022,60.0,8.0,15.0,3.0,0.0
1023,68.0,16.0,20.0,2.0,0.0
1024,63.0,36.0,15.0,3.0,0.0
1025,32.0,0.0,180.0,8.0,0.0
1026,63.0,3.0,150.0,5.0,0.0
1027,44.0,0.0,180.0,7.0,0.0
1028,67.0,0.0,60.0,2.0,0.0
1029,58.0,24.0,20.0,3.0,0.0
1030,44.0,3.0,180.0,0.0,0.0
1031,56.0,0.0,150.0,6.0,0.0
1032,61.0,24.0,20.0,3.0,0.0
1033,63.0,12.0,20.0,3.0,0.0
1034,61.0,24.0,20.0,3.0,0.0
1035,70.0,10.0,15.0,2.0,0.0
1036,67.0,2.0,15.0,2.0,0.0
1037,60.0,21.0,20.0,3.0,0.0
1038,68.0,12.0,60.0,2.0,0.0
1039,63.0,24.0,20.0,3.0,0.0
1040,68.0,0.0,20.0,3.0,0.0
1041,72.0,5.0,15.0,2.0,0.0
1042,63.0,2.0,20.0,3.0,0.0
1043,68.0,14.0,15.0,2.0,0.0
1044,77.0,16.0,20.0,2.0,0.0
1045,68.0,8.0,15.0,3.0,0.0
1046,72.0,24.0,15.0,3.0,0.0
1047,67.0,8.0,15.0,3.0,0.0
1048,75.0,16.0,20.0,2.0,0.0
1049,70.0,24.0,15.0,3.0,0.0
1050,73.0,16.0,20.0,2.0,0.0
1051,65.0,8.0,15.0,3.0,0.0
1052,68.0,24.0,15.0,3.0,0.0
1053,72.0,16.0,20.0,2.0,0.0
1054,63.0,8.0,15.0,3.0,0.0
1055,67.0,36.0,15.0,3.0,0.0
1056,62.0,24.0,20.0,3.0,0.0
1057,44.0,0.0,180.0,0.0,0.0
1058,44.0,0.0,180.0,7.0,0.0
1059,32.0,3.0,180.0,8.0,0.0
1060,56.0,0.0,180.0,6.0,0.0
1061,71.0,0.0,60.0,2.0,0.0
1062,68.0,3.0,570.0,5.0,0.0
1063,65.0,24.0,20.0,3.0,0.0
1064,68.0,12.0,20.0,3.0,0.0
1065,74.0,10.0,15.0,2.0,0.0
1066,65.0,24.0,20.0,3.0,0.0
1067,71.0,2.0,15.0,2.0,0.0
1068,72.0,0.0,60.0,2.0,0.0
1069,63.0,24.0,20.0,3.0,0.0
1070,68.0,24.0,20.0,3.0,0.0
1071,72.0,12.0,20.0,3.0,0.0
1072,75.0,5.0,15.0,2.0,0.0
1073,68.0,2.0,20.0,3.0,0.0
1074,72.0,14.0,15.0,2.0,0.0
1075,65.0,8.0,15.0,3.0,0.0
1076,80.0,16.0,20.0,2.0,0.0
1077,68.0,24.0,15.0,3.0,0.0
1078,79.0,16.0,20.0,2.0,0.0
1079,63.0,8.0,15.0,3.0,0.0
1080,67.0,24.0,15.0,3.0,0.0
1081,61.0,8.0,15.0,3.0,0.0
1082,77.0,16.0,20.0,2.0,0.0
1083,65.0,24.0,15.0,3.0,0.0
1084,75.0,16.0,20.0,2.0,0.0
1085,60.0,8.0,15.0,3.0,0.0
1086,63.0,24.0,15.0,3.0,0.0
1087,74.0,12.0,40.0,2.0,0.0
1088,59.0,24.0,15.0,3.0,0.0
1089,62.0,12.0,15.0,3.0,0.0
1090,60.0,24.0,15.0,3.0,0.0
1091,75.0,12.0,40.0,2.0,0.0
1092,63.0,12.0,15.0,3.0,0.0
1093,74.0,12.0,40.0,2.0,0.0
1094,59.0,24.0,15.0,3.0,0.0
1095,62.0,12.0,15.0,3.0,0.0
1096,60.0,21.0,15.0,3.0,0.0
1097,75.0,31.0,40.0,2.0,0.0
1098,63.0,5.0,15.0,3.0,0.0
1099,37.0,0.0,90.0,8.0,0.0
1100,49.0,0.0,90.0,7.0,0.0
1101,79.0,17.0,20.0,2.0,0.0
1102,49.0,54.0,90.0,0.0,0.0
1103,63.0,0.0,20.0,3.0,0.0
1104,61.0,1.0,15.0,3.0,0.0
1105,77.0,20.0,20.0,2.0,0.0
1106,75.0,0.0,15.0,2.0,0.0
1107,60.0,24.0,15.0,3.0,0.0
1108,73.0,0.0,15.0,2.0,0.0
1109,58.0,4.0,15.0,3.0,0.0
1110,56.0,33.0,40.0,3.0,0.0
1111,72.0,0.0,40.0,2.0,0.0
1112,51.0,1.0,90.0,7.0,0.0
1113,39.0,3.0,90.0,8.0,0.0
1114,51.0,41.0,90.0,0.0,0.0
1115,55.0,1.0,30.0,3.0,0.0
1116,70.0,4.0,30.0,2.0,0.0
1117,75.0,24.0,15.0,2.0,0.0
1118,75.0,24.0,15.0,2.0,0.0
1119,75.0,37.0,15.0,2.0,0.0
1120,72.0,25.0,20.0,2.0,0.0
1121,73.0,16.0,20.0,2.0,0.0
1122,75.0,22.0,15.0,2.0,0.0
1123,72.0,44.0,15.0,2.0,0.0
1124,68.0,14.0,40.0,2.0,0.0
1125,68.0,1.0,15.0,3.0,0.0
1126,65.0,9.0,15.0,5.0,0.0
1127,68.0,1.0,15.0,3.0,0.0
1128,65.0,23.0,15.0,5.0,0.0
1129,65.0,36.0,15.0,5.0,0.0
1130,68.0,1.0,15.0,3.0,0.0
1131,61.0,0.0,20.0,5.0,0.0
1132,80.0,3.0,40.0,2.0,0.0
1133,65.0,21.0,20.0,3.0,0.0
1134,63.0,0.0,20.0,5.0,0.0
1135,67.0,16.0,20.0,3.0,0.0
1136,68.0,0.0,15.0,3.0,0.0
1137,65.0,23.0,15.0,5.0,0.0
1138,65.0,179.0,15.0,3.0,0.0
1139,61.0,0.0,15.0,5.0,0.0
1140,58.0,8.0,180.0,5.0,0.0
1141,67.0,2.0,180.0,3.0,0.0
1142,77.0,3.0,180.0,2.0,0.0
1143,49.0,2.0,180.0,7.0,0.0
1144,49.0,31.0,180.0,0.0,0.0
1145,37.0,0.0,180.0,8.0,0.0
1146,61.0,0.0,180.0,6.0,0.0
1147,36.0,0.0,30.0,8.0,0.0
1148,60.0,0.0,30.0,6.0,0.0
1149,68.0,1.0,30.0,3.0,0.0
1150,63.0,7.0,30.0,5.0,0.0
1151,48.0,1.0,30.0,7.0,0.0
1152,48.0,3.0,30.0,0.0,0.0
1153,77.0,5.0,20.0,2.0,0.0
1154,75.0,31.0,15.0,2.0,0.0
1155,75.0,5.0,20.0,2.0,0.0
1156,65.0,0.0,30.0,5.0,0.0
1157,70.0,1.0,30.0,3.0,0.0
1158,49.0,1.0,30.0,7.0,0.0
1159,37.0,7.0,30.0,8.0,0.0
1160,49.0,3.0,30.0,0.0,0.0
1161,61.0,0.0,30.0,6.0,0.0
1162,73.0,31.0,15.0,2.0,0.0
1163,63.0,7.0,30.0,4.0,0.0
1164,51.0,1.0,30.0,7.0,0.0
1165,39.0,0.0,30.0,8.0,0.0
1166,73.0,5.0,20.0,2.0,0.0
1167,51.0,4.0,30.0,0.0,0.0
1168,68.0,0.0,30.0,3.0,0.0
1169,72.0,31.0,15.0,2.0,0.0
1170,72.0,5.0,20.0,2.0,0.0
1171,39.0,0.0,30.0,7.0,0.0
1172,63.0,0.0,30.0,5.0,0.0
1173,51.0,6.0,30.0,6.0,0.0
1174,27.0,0.0,30.0,8.0,0.0
1175,39.0,4.0,30.0,0.0,0.0
1176,67.0,1.0,30.0,3.0,0.0
1177,70.0,43.0,15.0,2.0,0.0
1178,75.0,24.0,15.0,2.0,0.0
1179,75.0,24.0,15.0,2.0,0.0
1180,75.0,37.0,15.0,2.0,0.0
1181,72.0,24.0,20.0,2.0,0.0
1182,73.0,18.0,20.0,2.0,0.0
1183,75.0,20.0,20.0,2.0,0.0
1184,72.0,45.0,15.0,2.0,0.0
1185,68.0,1.0,40.0,2.0,0.0
1186,68.0,23.0,15.0,3.0,0.0
1187,65.0,1.0,15.0,5.0,0.0
1188,65.0,1.0,15.0,5.0,0.0
1189,68.0,23.0,15.0,3.0,0.0
1190,68.0,35.0,15.0,3.0,0.0
1191,65.0,1.0,15.0,5.0,0.0
1192,65.0,0.0,20.0,3.0,0.0
1193,61.0,12.0,20.0,5.0,0.0
1194,80.0,12.0,40.0,2.0,0.0
1195,67.0,0.0,20.0,3.0,0.0
1196,63.0,16.0,20.0,5.0,0.0
1197,65.0,1.0,15.0,5.0,0.0
1198,68.0,21.0,15.0,3.0,0.0
1199,65.0,179.0,15.0,3.0,0.0
1200,61.0,1.0,15.0,5.0,0.0
1201,37.0,0.0,180.0,8.0,0.0
1202,49.0,52.0,180.0,7.0,0.0
1203,49.0,0.0,180.0,0.0,0.0
1204,67.0,1.0,180.0,3.0,0.0
1205,61.0,0.0,180.0,6.0,0.0
1206,58.0,0.0,180.0,5.0,0.0
1207,76.0,6.0,180.0,2.0,0.0
1208,63.0,12.0,180.0,5.0,0.0
1209,68.0,26.0,210.0,3.0,0.0
1210,35.0,0.0,180.0,8.0,0.0
1211,59.0,5.0,180.0,6.0,0.0
1212,47.0,0.0,180.0,7.0,0.0
1213,47.0,0.0,180.0,0.0,0.0
1214,75.0,24.0,15.0,2.0,0.0
1215,75.0,24.0,15.0,2.0,0.0
1216,75.0,35.0,15.0,2.0,0.0
1217,80.0,24.0,20.0,2.0,0.0
1218,79.0,24.0,20.0,2.0,0.0
1219,80.0,17.0,20.0,2.0,0.0
1220,76.0,2.0,20.0,2.0,0.0
1221,46.0,0.0,180.0,7.0,0.0
1222,75.0,24.0,90.0,2.0,0.0
1223,46.0,0.0,180.0,0.0,0.0
1224,34.0,37.0,180.0,8.0,0.0
1225,65.0,1.0,180.0,5.0,0.0
1226,58.0,4.0,390.0,6.0,0.0
1227,68.0,24.0,15.0,3.0,0.0
1228,68.0,24.0,15.0,3.0,0.0
1229,68.0,10.0,15.0,3.0,0.0
1230,71.0,24.0,20.0,3.0,0.0
1231,74.0,7.0,90.0,2.0,0.0
1232,70.0,24.0,20.0,3.0,0.0
1233,71.0,10.0,20.0,3.0,0.0
1234,68.0,6.0,20.0,3.0,0.0
1235,63.0,0.0,180.0,5.0,0.0
1236,51.0,18.0,180.0,7.0,0.0
1237,51.0,0.0,180.0,0.0,0.0
1238,39.0,0.0,180.0,8.0,0.0
1239,68.0,24.0,90.0,3.0,0.0
1240,73.0,24.0,15.0,2.0,0.0
1241,73.0,24.0,15.0,2.0,0.0
1242,73.0,11.0,15.0,2.0,0.0
1243,77.0,24.0,20.0,2.0,0.0
1244,67.0,30.0,120.0,3.0,0.0
1245,76.0,24.0,20.0,2.0,0.0
1246,77.0,17.0,20.0,2.0,0.0
1247,73.0,3.0,20.0,2.0,0.0
1248,71.0,5.0,90.0,2.0,0.0
1249,53.0,0.0,180.0,0.0,0.0
1250,65.0,0.0,180.0,5.0,0.0
1251,41.0,0.0,180.0,8.0,0.0
1252,56.0,4.0,180.0,6.0,0.0
1253,53.0,20.0,180.0,7.0,0.0
1254,67.0,24.0,20.0,3.0,0.0
1255,68.0,19.0,20.0,3.0,0.0
1256,67.0,24.0,20.0,3.0,0.0
1257,68.0,24.0,20.0,3.0,0.0
1258,72.0,28.0,120.0,2.0,0.0
1259,67.0,24.0,20.0,3.0,0.0
1260,65.0,17.0,20.0,3.0,0.0
1261,64.0,3.0,20.0,3.0,0.0
1262,65.0,8.0,180.0,3.0,0.0
1263,61.0,0.0,180.0,5.0,0.0
1264,37.0,4.0,180.0,8.0,0.0
1265,49.0,0.0,180.0,7.0,0.0
1266,49.0,0.0,180.0,0.0,0.0
1267,53.0,0.0,180.0,6.0,0.0
1268,69.0,24.0,20.0,2.0,0.0
1269,70.0,24.0,20.0,2.0,0.0
1270,72.0,24.0,20.0,2.0,0.0
1271,75.0,24.0,20.0,2.0,0.0
1272,73.0,24.0,20.0,2.0,0.0
1273,72.0,9.0,20.0,2.0,0.0
1274,70.0,27.0,20.0,2.0,0.0
1275,67.0,8.0,20.0,3.0,0.0
1276,39.0,1.0,30.0,0.0,0.0
1277,39.0,2.0,40.0,7.0,0.0
1278,61.0,0.0,20.0,5.0,0.0
1279,51.0,0.0,40.0,6.0,0.0
1280,27.0,6.0,30.0,8.0,0.0
1281,77.0,0.0,20.0,2.0,0.0
1282,60.0,1.0,15.0,5.0,0.0
1283,68.0,38.0,20.0,3.0,0.0
1284,75.0,0.0,15.0,2.0,0.0
1285,39.0,47.0,30.0,8.0,0.0
1286,51.0,1.0,30.0,0.0,0.0
1287,75.0,21.0,90.0,2.0,0.0
1288,68.0,0.0,90.0,3.0,0.0
1289,60.0,5.0,90.0,5.0,0.0
1290,51.0,0.0,30.0,1.0,0.0
1291,39.0,0.0,30.0,8.0,0.0
1292,51.0,1.0,30.0,1.0,0.0
1293,51.0,1.0,30.0,0.0,0.0
1294,39.0,0.0,30.0,8.0,0.0
1295,51.0,3.0,30.0,1.0,0.0
1296,58.0,20.0,15.0,5.0,0.0
1297,73.0,0.0,15.0,2.0,0.0
1298,51.0,1.0,30.0,0.0,0.0
1299,67.0,0.0,15.0,3.0,0.0
1300,56.0,0.0,15.0,5.0,0.0
1301,72.0,36.0,15.0,2.0,0.0
1302,68.0,0.0,15.0,3.0,0.0
1303,65.0,13.0,30.0,3.0,0.0
1304,51.0,1.0,30.0,0.0,0.0
1305,61.0,0.0,30.0,5.0,0.0
1306,51.0,0.0,30.0,1.0,0.0
1307,39.0,1.0,30.0,8.0,0.0
1308,72.0,8.0,20.0,2.0,0.0
1309,70.0,33.0,20.0,2.0,0.0
1310,68.0,39.0,90.0,2.0,0.0
1311,60.0,0.0,90.0,5.0,0.0
1312,51.0,0.0,30.0,1.0,0.0
1313,39.0,47.0,30.0,8.0,0.0
1314,63.0,0.0,90.0,3.0,0.0
1315,51.0,1.0,30.0,0.0,0.0
1316,51.0,1.0,30.0,0.0,0.0
1317,51.0,8.0,30.0,1.0,0.0
1318,39.0,0.0,30.0,8.0,0.0
1319,58.0,0.0,40.0,5.0,0.0
1320,51.0,1.0,30.0,0.0,0.0
1321,39.0,4.0,30.0,8.0,0.0
1322,61.0,33.0,40.0,3.0,0.0
1323,67.0,2.0,40.0,2.0,0.0
1324,51.0,0.0,30.0,1.0,0.0
1325,39.0,1.0,30.0,0.0,0.0
1326,77.0,0.0,20.0,2.0,0.0
1327,67.0,0.0,20.0,3.0,0.0
1328,39.0,0.0,40.0,7.0,0.0
1329,27.0,6.0,30.0,8.0,0.0
1330,51.0,2.0,40.0,6.0,0.0
1331,61.0,8.0,20.0,5.0,0.0
1332,75.0,1.0,15.0,2.0,0.0
1333,60.0,0.0,15.0,5.0,0.0
1334,68.0,38.0,20.0,3.0,0.0
1335,51.0,1.0,30.0,0.0,0.0
1336,68.0,0.0,90.0,3.0,0.0
1337,39.0,47.0,30.0,8.0,0.0
1338,51.0,0.0,30.0,1.0,0.0
1339,60.0,5.0,90.0,5.0,0.0
1340,75.0,21.0,90.0,2.0,0.0
1341,51.0,1.0,30.0,0.0,0.0
1342,51.0,0.0,30.0,1.0,0.0
1343,39.0,1.0,30.0,8.0,0.0
1344,58.0,0.0,15.0,5.0,0.0
1345,73.0,20.0,15.0,2.0,0.0
1346,39.0,3.0,30.0,8.0,0.0
1347,51.0,1.0,30.0,0.0,0.0
1348,51.0,0.0,30.0,1.0,0.0
1349,67.0,0.0,15.0,3.0,0.0
1350,56.0,0.0,15.0,5.0,0.0
1351,72.0,0.0,15.0,2.0,0.0
1352,68.0,36.0,15.0,3.0,0.0
1353,65.0,11.0,30.0,3.0,0.0
1354,61.0,0.0,30.0,5.0,0.0
1355,51.0,1.0,30.0,0.0,0.0
1356,72.0,8.0,20.0,2.0,0.0
1357,51.0,0.0,30.0,1.0,0.0
1358,39.0,1.0,30.0,8.0,0.0
1359,70.0,35.0,20.0,2.0,0.0
1360,63.0,39.0,90.0,3.0,0.0
1361,51.0,1.0,30.0,0.0,0.0
1362,68.0,0.0,90.0,2.0,0.0
1363,60.0,0.0,90.0,5.0,0.0
1364,51.0,47.0,30.0,1.0,0.0
1365,39.0,0.0,30.0,8.0,0.0
1366,51.0,1.0,30.0,0.0,0.0
1367,39.0,8.0,30.0,8.0,0.0
1368,51.0,0.0,30.0,1.0,0.0
1369,51.0,5.0,30.0,1.0,0.0
1370,61.0,0.0,40.0,3.0,0.0
1371,39.0,1.0,30.0,8.0,0.0
1372,51.0,1.0,30.0,0.0,0.0
1373,67.0,21.0,40.0,2.0,0.0
1374,58.0,0.0,40.0,5.0,0.0
1375,68.0,24.0,15.0,2.0,0.0
1376,51.0,2.0,90.0,6.0,0.0
1377,44.0,0.0,90.0,0.0,0.0
1378,56.0,0.0,90.0,5.0,0.0
1379,32.0,0.0,90.0,8.0,0.0
1380,60.0,0.0,90.0,3.0,0.0
1381,44.0,0.0,90.0,7.0,0.0
1382,63.0,24.0,15.0,2.0,0.0
1383,65.0,22.0,15.0,2.0,0.0
1384,67.0,24.0,15.0,2.0,0.0
1385,68.0,24.0,15.0,2.0,0.0
1386,70.0,24.0,15.0,2.0,0.0
1387,72.0,24.0,15.0,2.0,0.0
1388,73.0,32.0,15.0,2.0,0.0
1389,75.0,48.0,20.0,2.0,0.0
1390,76.0,48.0,20.0,2.0,0.0
1391,77.0,48.0,20.0,2.0,0.0
1392,58.0,0.0,30.0,6.0,0.0
1393,61.0,28.0,30.0,3.0,0.0
1394,51.0,0.0,30.0,0.0,0.0
1395,39.0,0.0,30.0,8.0,0.0
1396,51.0,0.0,30.0,7.0,0.0
1397,67.0,12.0,20.0,2.0,0.0
1398,63.0,0.0,30.0,5.0,0.0
1399,63.0,0.0,90.0,5.0,0.0
1400,44.0,0.0,90.0,7.0,0.0
1401,32.0,0.0,90.0,8.0,0.0
1402,56.0,0.0,90.0,6.0,0.0
1403,44.0,2.0,90.0,0.0,0.0
1404,68.0,24.0,15.0,2.0,0.0
1405,60.0,4.0,90.0,3.0,0.0
1406,63.0,24.0,15.0,2.0,0.0
1407,65.0,18.0,15.0,2.0,0.0
1408,67.0,24.0,15.0,2.0,0.0
1409,68.0,24.0,15.0,2.0,0.0
1410,70.0,24.0,15.0,2.0,0.0
1411,72.0,24.0,15.0,2.0,0.0
1412,73.0,32.0,15.0,2.0,0.0
1413,75.0,48.0,20.0,2.0,0.0
1414,76.0,48.0,20.0,2.0,0.0
1415,77.0,48.0,20.0,2.0,0.0
1416,51.0,42.0,40.0,0.0,0.0
1417,58.0,4.0,30.0,6.0,0.0
1418,39.0,0.0,30.0,8.0,0.0
1419,61.0,0.0,30.0,3.0,0.0
1420,63.0,0.0,30.0,5.0,0.0
1421,51.0,0.0,30.0,7.0,0.0
1422,67.0,12.0,20.0,2.0,0.0
1423,44.0,10.0,90.0,0.0,0.0
1424,32.0,0.0,90.0,8.0,0.0
1425,56.0,0.0,90.0,6.0,0.0
1426,68.0,4.0,30.0,2.0,0.0
1427,44.0,4.0,90.0,7.0,0.0
1428,63.0,0.0,90.0,5.0,0.0
1429,60.0,3.0,40.0,3.0,0.0
1430,70.0,7.0,15.0,2.0,0.0
1431,68.0,4.0,15.0,2.0,0.0
1432,67.0,24.0,15.0,2.0,0.0
1433,68.0,6.0,20.0,2.0,0.0
1434,51.0,34.0,20.0,3.0,0.0
1435,70.0,0.0,20.0,2.0,0.0
1436,56.0,4.0,30.0,3.0,0.0
1437,72.0,0.0,30.0,2.0,0.0
1438,73.0,2.0,15.0,2.0,0.0
1439,58.0,5.0,15.0,3.0,0.0
1440,72.0,1.0,15.0,2.0,0.0
1441,56.0,6.0,15.0,3.0,0.0
1442,70.0,24.0,15.0,2.0,0.0
1443,55.0,0.0,15.0,3.0,0.0
1444,56.0,0.0,20.0,3.0,0.0
1445,72.0,20.0,20.0,2.0,0.0
1446,58.0,0.0,20.0,3.0,0.0
1447,73.0,34.0,20.0,2.0,0.0
1448,75.0,4.0,30.0,2.0,0.0
1449,60.0,0.0,30.0,3.0,0.0
1450,77.0,2.0,15.0,2.0,0.0
1451,61.0,5.0,15.0,3.0,0.0
1452,75.0,1.0,15.0,2.0,0.0
1453,60.0,6.0,15.0,3.0,0.0
1454,73.0,0.0,15.0,2.0,0.0
1455,58.0,24.0,15.0,3.0,0.0
1456,75.0,0.0,20.0,2.0,0.0
1457,60.0,20.0,20.0,3.0,0.0
1458,61.0,34.0,20.0,3.0,0.0
1459,77.0,0.0,20.0,2.0,0.0
1460,78.0,0.0,30.0,2.0,0.0
1461,63.0,4.0,30.0,3.0,0.0
1462,80.0,2.0,15.0,2.0,0.0
1463,65.0,5.0,15.0,3.0,0.0
1464,78.0,1.0,15.0,2.0,0.0
1465,63.0,6.0,15.0,3.0,0.0
1466,77.0,0.0,15.0,2.0,0.0
1467,61.0,24.0,15.0,3.0,0.0
1468,63.0,0.0,20.0,3.0,0.0
1469,78.0,20.0,20.0,2.0,0.0
1470,65.0,196.0,20.0,3.0,0.0
1471,80.0,0.0,20.0,2.0,0.0
1472,60.0,0.0,180.0,5.0,0.0
1473,44.0,4.0,240.0,7.0,0.0
1474,82.0,0.0,180.0,2.0,0.0
1475,51.0,45.0,180.0,6.0,0.0
1476,44.0,0.0,240.0,0.0,0.0
1477,32.0,0.0,240.0,8.0,0.0
1478,66.0,0.0,180.0,3.0,0.0
1479,72.0,140.0,40.0,2.0,0.0
1480,63.0,0.0,40.0,5.0,0.0
1481,54.0,0.0,40.0,6.0,0.0
1482,56.0,0.0,40.0,3.0,0.0
1483,68.0,31.0,20.0,2.0,0.0
1484,73.0,7.0,30.0,2.0,0.0
1485,75.0,7.0,15.0,2.0,0.0
1486,73.0,6.0,15.0,2.0,0.0
1487,72.0,24.0,15.0,2.0,0.0
1488,73.0,21.0,20.0,2.0,0.0
1489,56.0,2.0,20.0,3.0,0.0
1490,75.0,29.0,20.0,2.0,0.0
1491,61.0,0.0,30.0,3.0,0.0
1492,77.0,7.0,30.0,2.0,0.0
1493,63.0,0.0,15.0,3.0,0.0
1494,78.0,6.0,15.0,2.0,0.0
1495,61.0,1.0,15.0,3.0,0.0
1496,77.0,6.0,15.0,2.0,0.0
1497,60.0,24.0,15.0,3.0,0.0
1498,75.0,0.0,15.0,2.0,0.0
1499,77.0,22.0,20.0,2.0,0.0
1500,61.0,0.0,20.0,3.0,0.0
1501,63.0,0.0,20.0,3.0,0.0
1502,78.0,27.0,20.0,2.0,0.0
1503,65.0,2.0,30.0,3.0,0.0
1504,80.0,46.0,30.0,2.0,0.0
1505,65.0,1.0,30.0,3.0,0.0
1506,80.0,47.0,30.0,2.0,0.0
1507,80.0,47.0,30.0,2.0,0.0
1508,65.0,1.0,30.0,3.0,0.0
1509,80.0,118.0,30.0,2.0,0.0
1510,65.0,1.0,30.0,3.0,0.0
1511,58.0,22.0,210.0,4.0,0.0
1512,34.0,0.0,180.0,8.0,0.0
1513,46.0,23.0,180.0,7.0,0.0
1514,46.0,0.0,180.0,0.0,0.0
1515,65.0,96.0,90.0,3.0,0.0
1516,80.0,0.0,90.0,2.0,0.0
1517,77.0,0.0,90.0,2.0,0.0
1518,62.0,0.0,90.0,3.0,0.0
1519,39.0,0.0,40.0,0.0,0.0
1520,78.0,1.0,40.0,2.0,0.0
1521,39.0,0.0,40.0,7.0,0.0
1522,27.0,0.0,40.0,8.0,0.0
1523,63.0,2.0,40.0,3.0,0.0
1524,63.0,24.0,20.0,6.0,0.0
1525,66.0,0.0,20.0,5.0,0.0
1526,70.0,24.0,20.0,5.0,0.0
1527,66.0,0.0,20.0,6.0,0.0
1528,65.0,24.0,20.0,6.0,0.0
1529,68.0,0.0,20.0,5.0,0.0
1530,63.0,24.0,20.0,6.0,0.0
1531,66.0,0.0,20.0,5.0,0.0
1532,65.0,24.0,20.0,5.0,0.0
1533,61.0,0.0,20.0,6.0,0.0
1534,63.0,0.0,20.0,5.0,0.0
1535,60.0,20.0,20.0,6.0,0.0
1536,58.0,2.0,20.0,6.0,0.0
1537,61.0,0.0,20.0,5.0,0.0
1538,68.0,32.0,20.0,2.0,0.0
1539,72.0,4.0,30.0,2.0,0.0
1540,60.0,4.0,90.0,5.0,0.0
1541,56.0,0.0,90.0,6.0,0.0
1542,73.0,7.0,15.0,2.0,0.0
1543,72.0,7.0,15.0,2.0,0.0
1544,70.0,24.0,15.0,2.0,0.0
1545,72.0,17.0,20.0,2.0,0.0
1546,73.0,28.0,20.0,2.0,0.0
1547,56.0,1.0,20.0,3.0,0.0
1548,60.0,4.0,30.0,3.0,0.0
1549,75.0,2.0,30.0,2.0,0.0
1550,61.0,2.0,15.0,3.0,0.0
1551,77.0,6.0,15.0,2.0,0.0
1552,60.0,1.0,15.0,3.0,0.0
1553,75.0,7.0,15.0,2.0,0.0
1554,58.0,0.0,15.0,3.0,0.0
1555,73.0,24.0,15.0,2.0,0.0
1556,75.0,0.0,20.0,2.0,0.0
1557,60.0,20.0,20.0,3.0,0.0
1558,77.0,27.0,20.0,2.0,0.0
1559,61.0,2.0,20.0,3.0,0.0
1560,63.0,2.0,30.0,3.0,0.0
1561,78.0,46.0,30.0,2.0,0.0
1562,78.0,48.0,30.0,2.0,0.0
1563,63.0,0.0,30.0,3.0,0.0
1564,63.0,0.0,30.0,3.0,0.0
1565,78.0,48.0,30.0,2.0,0.0
1566,63.0,119.0,30.0,3.0,0.0
1567,78.0,0.0,30.0,2.0,0.0
1568,56.0,22.0,210.0,4.0,0.0
1569,44.0,0.0,180.0,7.0,0.0
1570,32.0,0.0,180.0,8.0,0.0
1571,63.0,96.0,90.0,3.0,0.0
1572,44.0,0.0,180.0,0.0,0.0
1573,78.0,0.0,90.0,2.0,0.0
1574,60.0,23.0,90.0,3.0,0.0
1575,75.0,0.0,90.0,2.0,0.0
1576,37.0,0.0,40.0,7.0,0.0
1577,25.0,2.0,40.0,8.0,0.0
1578,77.0,1.0,40.0,2.0,0.0
1579,61.0,0.0,40.0,3.0,0.0
1580,37.0,0.0,40.0,0.0,0.0
1581,65.0,24.0,20.0,5.0,0.0
1582,61.0,0.0,20.0,6.0,0.0
1583,65.0,0.0,20.0,6.0,0.0
1584,68.0,24.0,20.0,5.0,0.0
1585,66.0,0.0,20.0,5.0,0.0
1586,63.0,24.0,20.0,6.0,0.0
1587,65.0,0.0,20.0,5.0,0.0
1588,61.0,24.0,20.0,6.0,0.0
1589,63.0,24.0,20.0,5.0,0.0
1590,60.0,0.0,20.0,6.0,0.0
1591,61.0,0.0,20.0,5.0,0.0
1592,58.0,20.0,20.0,6.0,0.0
1593,60.0,2.0,20.0,5.0,0.0
1594,56.0,0.0,20.0,6.0,0.0
1595,77.0,1.0,20.0,2.0,0.0
1596,65.0,49.0,20.0,3.0,0.0
1597,30.0,39.0,90.0,8.0,0.0
1598,42.0,0.0,90.0,7.0,0.0
1599,58.0,0.0,40.0,5.0,0.0
1600,63.0,0.0,40.0,3.0,0.0
1601,75.0,45.0,40.0,2.0,0.0
1602,42.0,0.0,90.0,0.0,0.0
1603,54.0,0.0,40.0,6.0,0.0
1604,51.0,0.0,40.0,6.0,0.0
1605,56.0,3.0,40.0,5.0,0.0
1606,72.0,0.0,40.0,2.0,0.0
1607,60.0,0.0,40.0,3.0,0.0
1608,73.0,50.0,40.0,2.0,0.0
1609,41.0,0.0,40.0,0.0,0.0
1610,61.0,0.0,40.0,3.0,0.0
1611,53.0,0.0,40.0,6.0,0.0
1612,56.0,0.0,40.0,5.0,0.0
1613,41.0,2.0,40.0,7.0,0.0
1614,29.0,0.0,40.0,8.0,0.0
1615,65.0,51.0,20.0,3.0,0.0
1616,77.0,2.0,20.0,2.0,0.0
1617,48.0,0.0,40.0,6.0,0.0
1618,56.0,2.0,120.0,5.0,0.0
1619,42.0,0.0,90.0,7.0,0.0
1620,42.0,0.0,90.0,0.0,0.0
1621,63.0,45.0,40.0,3.0,0.0
1622,30.0,3.0,90.0,8.0,0.0
1623,75.0,0.0,40.0,2.0,0.0
1624,51.0,37.0,40.0,6.0,0.0
1625,72.0,0.0,40.0,2.0,0.0
1626,60.0,0.0,40.0,3.0,0.0
1627,61.0,0.0,40.0,3.0,0.0
1628,41.0,0.0,40.0,0.0,0.0
1629,73.0,49.0,40.0,2.0,0.0
1630,41.0,0.0,40.0,7.0,0.0
1631,53.0,0.0,40.0,6.0,0.0
1632,29.0,2.0,40.0,8.0,0.0
1633,68.0,5.0,90.0,3.0,0.0
1634,77.0,30.0,20.0,2.0,0.0
1635,75.0,15.0,20.0,2.0,0.0
1636,54.0,24.0,40.0,1.0,0.0
1637,42.0,0.0,40.0,8.0,0.0
1638,54.0,0.0,40.0,0.0,0.0
1639,60.0,0.0,20.0,5.0,0.0
1640,63.0,4.0,20.0,5.0,0.0
1641,72.0,0.0,20.0,2.0,0.0
1642,61.0,9.0,40.0,5.0,0.0
1643,53.0,0.0,40.0,1.0,0.0
1644,73.0,15.0,20.0,2.0,0.0
1645,41.0,24.0,40.0,8.0,0.0
1646,68.0,3.0,90.0,3.0,0.0
1647,53.0,0.0,40.0,0.0,0.0
1648,77.0,0.0,20.0,2.0,0.0
1649,54.0,0.0,40.0,0.0,0.0
1650,60.0,17.0,20.0,5.0,0.0
1651,54.0,0.0,40.0,1.0,0.0
1652,75.0,0.0,20.0,2.0,0.0
1653,42.0,24.0,40.0,8.0,0.0
1654,63.0,4.0,20.0,5.0,0.0
1655,72.0,0.0,20.0,2.0,0.0
1656,73.0,15.0,20.0,2.0,0.0
1657,68.0,2.0,40.0,3.0,0.0
1658,53.0,1.0,40.0,0.0,0.0
1659,53.0,0.0,40.0,1.0,0.0
1660,61.0,0.0,40.0,5.0,0.0
1661,41.0,4.0,40.0,8.0,0.0
1662,77.0,26.0,20.0,2.0,0.0
1663,51.0,1.0,90.0,1.0,0.0
1664,61.0,0.0,40.0,5.0,0.0
1665,80.0,18.0,20.0,2.0,0.0
1666,51.0,3.0,90.0,0.0,0.0
1667,39.0,6.0,90.0,8.0,0.0
1668,70.0,0.0,90.0,3.0,0.0
1669,78.0,44.0,20.0,2.0,0.0
1670,78.0,6.0,90.0,2.0,0.0
1671,58.0,42.0,40.0,5.0,0.0
1672,32.0,0.0,90.0,8.0,0.0
1673,44.0,27.0,90.0,7.0,0.0
1674,44.0,3.0,90.0,0.0,0.0
1675,54.0,0.0,90.0,6.0,0.0
1676,63.0,24.0,40.0,5.0,0.0
1677,60.0,4.0,90.0,3.0,0.0
1678,56.0,0.0,40.0,5.0,0.0
1679,77.0,14.0,20.0,2.0,0.0
1680,75.0,0.0,20.0,2.0,0.0
1681,34.0,3.0,40.0,8.0,0.0
1682,46.0,2.0,40.0,0.0,0.0
1683,75.0,15.0,20.0,2.0,0.0
1684,58.0,0.0,90.0,5.0,0.0
1685,61.0,2.0,40.0,3.0,0.0
1686,53.0,14.0,40.0,6.0,0.0
1687,46.0,0.0,40.0,7.0,0.0
1688,73.0,2.0,20.0,2.0,0.0
1689,61.0,1.0,90.0,3.0,0.0
1690,42.0,4.0,40.0,0.0,0.0
1691,54.0,24.0,40.0,6.0,0.0
1692,42.0,0.0,40.0,7.0,0.0
1693,72.0,24.0,15.0,2.0,0.0
1694,30.0,3.0,40.0,8.0,0.0
1695,70.0,3.0,15.0,2.0,0.0
1696,41.0,0.0,40.0,0.0,0.0
1697,29.0,0.0,40.0,8.0,0.0
1698,61.0,4.0,90.0,5.0,0.0
1699,56.0,1.0,40.0,6.0,0.0
1700,70.0,17.0,20.0,2.0,0.0
1701,41.0,17.0,40.0,7.0,0.0
1702,68.0,2.0,20.0,2.0,0.0
1703,37.0,75.0,40.0,7.0,0.0
1704,37.0,0.0,40.0,0.0,0.0
1705,56.0,1.0,40.0,6.0,0.0
1706,25.0,0.0,40.0,8.0,0.0
1707,61.0,0.0,40.0,3.0,0.0
1708,66.0,25.0,15.0,2.0,0.0
1709,65.0,1.0,15.0,2.0,0.0
1710,68.0,17.0,60.0,2.0,0.0
1711,44.0,6.0,90.0,0.0,0.0
1712,56.0,25.0,120.0,4.0,0.0
1713,44.0,0.0,90.0,7.0,0.0
1714,32.0,0.0,90.0,8.0,0.0
1715,65.0,0.0,60.0,3.0,0.0
1716,61.0,0.0,20.0,3.0,0.0
1717,65.0,21.0,20.0,2.0,0.0
1718,63.0,3.0,40.0,2.0,0.0
1719,60.0,0.0,40.0,3.0,0.0
1720,55.0,24.0,20.0,4.0,0.0
1721,54.0,20.0,20.0,4.0,0.0
1722,51.0,1.0,20.0,4.0,0.0
1723,56.0,33.0,20.0,3.0,0.0
1724,49.0,3.0,90.0,4.0,0.0
1725,61.0,4.0,30.0,3.0,0.0
1726,63.0,7.0,15.0,3.0,0.0
1727,61.0,7.0,15.0,3.0,0.0
1728,60.0,24.0,15.0,3.0,0.0
1729,61.0,17.0,20.0,3.0,0.0
1730,56.0,2.0,20.0,5.0,0.0
1731,63.0,32.0,20.0,3.0,0.0
1732,61.0,0.0,30.0,5.0,0.0
1733,65.0,4.0,30.0,3.0,0.0
1734,66.0,2.0,15.0,3.0,0.0
1735,63.0,5.0,15.0,5.0,0.0
1736,65.0,1.0,15.0,3.0,0.0
1737,61.0,6.0,15.0,5.0,0.0
1738,63.0,24.0,15.0,3.0,0.0
1739,60.0,0.0,15.0,5.0,0.0
1740,65.0,0.0,20.0,3.0,0.0
1741,61.0,20.0,20.0,5.0,0.0
1742,66.0,32.0,20.0,3.0,0.0
1743,68.0,1.0,20.0,2.0,0.0
1744,63.0,1.0,20.0,5.0,0.0
1745,68.0,18.0,30.0,3.0,0.0
1746,65.0,30.0,40.0,5.0,0.0
1747,80.0,0.0,40.0,2.0,0.0
1748,78.0,0.0,40.0,2.0,0.0
1749,63.0,30.0,40.0,5.0,0.0
1750,68.0,18.0,30.0,3.0,0.0
1751,61.0,0.0,40.0,5.0,0.0
1752,77.0,30.0,40.0,2.0,0.0
1753,68.0,18.0,30.0,3.0,0.0
1754,59.0,3.0,40.0,5.0,0.0
1755,75.0,39.0,40.0,2.0,0.0
1756,68.0,14.0,30.0,3.0,0.0
1757,53.0,1.0,20.0,6.0,0.0
1758,74.0,0.0,40.0,2.0,0.0
1759,58.0,48.0,40.0,6.0,0.0
1760,58.0,9.0,240.0,5.0,0.0
1761,68.0,9.0,40.0,3.0,0.0
1762,62.0,0.0,90.0,3.0,0.0
1763,56.0,0.0,40.0,6.0,0.0
1764,71.0,48.0,40.0,2.0,0.0
1765,54.0,36.0,40.0,6.0,0.0
1766,70.0,0.0,40.0,2.0,0.0
1767,63.0,5.0,40.0,3.0,0.0
1768,68.0,3.0,40.0,2.0,0.0
1769,53.0,3.0,40.0,6.0,0.0
1770,46.0,0.0,20.0,0.0,0.0
1771,46.0,0.0,20.0,7.0,0.0
1772,34.0,1.0,20.0,8.0,0.0
1773,65.0,39.0,15.0,3.0,0.0
1774,51.0,0.0,270.0,6.0,0.0
1775,66.0,0.0,270.0,1.0,0.0
1776,51.0,0.0,40.0,0.0,0.0
1777,51.0,48.0,40.0,7.0,0.0
1778,39.0,0.0,40.0,8.0,0.0
1779,66.0,0.0,240.0,2.0,0.0
1780,49.0,0.0,40.0,7.0,0.0
1781,37.0,0.0,40.0,8.0,0.0
1782,49.0,48.0,40.0,0.0,0.0
1783,65.0,0.0,40.0,5.0,0.0
1784,63.0,45.0,40.0,5.0,0.0
1785,36.0,0.0,40.0,8.0,0.0
1786,48.0,0.0,40.0,7.0,0.0
1787,48.0,0.0,40.0,0.0,0.0
1788,46.0,33.0,40.0,0.0,0.0
1789,34.0,0.0,40.0,8.0,0.0
1790,46.0,0.0,40.0,7.0,0.0
1791,61.0,0.0,40.0,5.0,0.0
1792,56.0,0.0,20.0,3.0,0.0
1793,44.0,0.0,90.0,0.0,0.0
1794,60.0,1.0,40.0,5.0,0.0
1795,44.0,3.0,90.0,7.0,0.0
1796,60.0,6.0,30.0,3.0,0.0
1797,32.0,0.0,90.0,8.0,0.0
1798,61.0,5.0,15.0,3.0,0.0
1799,60.0,6.0,15.0,3.0,0.0
1800,58.0,24.0,15.0,3.0,0.0
1801,60.0,17.0,20.0,3.0,0.0
1802,61.0,33.0,20.0,3.0,0.0
1803,56.0,1.0,20.0,5.0,0.0
1804,60.0,6.0,30.0,5.0,0.0
1805,63.0,0.0,30.0,3.0,0.0
1806,65.0,6.0,15.0,3.0,0.0
1807,61.0,0.0,15.0,5.0,0.0
1808,60.0,0.0,15.0,5.0,0.0
1809,63.0,6.0,15.0,3.0,0.0
1810,58.0,0.0,15.0,5.0,0.0
1811,61.0,24.0,15.0,3.0,0.0
1812,63.0,0.0,20.0,3.0,0.0
1813,60.0,20.0,20.0,5.0,0.0
1814,65.0,0.0,20.0,3.0,0.0
1815,66.0,35.0,20.0,2.0,0.0
1816,61.0,1.0,20.0,5.0,0.0
1817,78.0,0.0,40.0,2.0,0.0
1818,63.0,30.0,40.0,5.0,0.0
1819,66.0,16.0,30.0,3.0,0.0
1820,66.0,18.0,30.0,3.0,0.0
1821,61.0,30.0,40.0,5.0,0.0
1822,77.0,0.0,40.0,2.0,0.0
1823,60.0,30.0,40.0,5.0,0.0
1824,75.0,0.0,40.0,2.0,0.0
1825,66.0,18.0,30.0,3.0,0.0
1826,73.0,39.0,40.0,2.0,0.0
1827,66.0,14.0,30.0,3.0,0.0
1828,58.0,3.0,40.0,5.0,0.0
1829,51.0,1.0,20.0,6.0,0.0
1830,72.0,0.0,40.0,2.0,0.0
1831,56.0,48.0,40.0,6.0,0.0
1832,66.0,9.0,40.0,3.0,0.0
1833,56.0,7.0,240.0,5.0,0.0
1834,70.0,0.0,40.0,2.0,0.0
1835,60.0,0.0,90.0,3.0,0.0
1836,54.0,48.0,40.0,6.0,0.0
1837,68.0,0.0,40.0,2.0,0.0
1838,53.0,36.0,40.0,6.0,0.0
1839,61.0,8.0,40.0,3.0,0.0
1840,66.0,2.0,40.0,2.0,0.0
1841,51.0,0.0,40.0,6.0,0.0
1842,32.0,0.0,20.0,8.0,0.0
1843,44.0,0.0,20.0,7.0,0.0
1844,44.0,2.0,20.0,0.0,0.0
1845,63.0,41.0,15.0,3.0,0.0
1846,49.0,0.0,40.0,0.0,0.0
1847,49.0,7.0,240.0,6.0,0.0
1848,37.0,0.0,40.0,8.0,0.0
1849,49.0,48.0,40.0,7.0,0.0
1850,65.0,4.0,150.0,1.0,0.0
1851,65.0,34.0,120.0,2.0,0.0
1852,63.0,0.0,40.0,5.0,0.0
1853,48.0,48.0,40.0,0.0,0.0
1854,48.0,0.0,40.0,7.0,0.0
1855,36.0,0.0,40.0,8.0,0.0
1856,61.0,0.0,40.0,5.0,0.0
1857,46.0,0.0,40.0,0.0,0.0
1858,46.0,6.0,40.0,7.0,0.0
1859,34.0,0.0,40.0,8.0,0.0
1860,60.0,0.0,40.0,5.0,0.0
1861,44.0,0.0,40.0,0.0,0.0
1862,32.0,0.0,40.0,8.0,0.0
1863,44.0,0.0,40.0,7.0,0.0
1864,65.0,45.0,20.0,2.0,0.0
1865,42.0,36.0,90.0,7.0,0.0
1866,30.0,0.0,90.0,8.0,0.0
1867,42.0,0.0,90.0,0.0,0.0
1868,63.0,41.0,40.0,2.0,0.0
1869,58.0,0.0,40.0,5.0,0.0
1870,51.0,2.0,90.0,3.0,0.0
1871,54.0,0.0,40.0,6.0,0.0
1872,57.0,0.0,40.0,5.0,0.0
1873,60.0,5.0,40.0,2.0,0.0
1874,41.0,0.0,40.0,7.0,0.0
1875,41.0,0.0,40.0,0.0,0.0
1876,53.0,46.0,40.0,6.0,0.0
1877,61.0,3.0,40.0,2.0,0.0
1878,29.0,6.0,40.0,8.0,0.0
1879,56.0,0.0,40.0,5.0,0.0
1880,53.0,0.0,40.0,1.0,0.0
1881,65.0,29.0,20.0,2.0,0.0
1882,48.0,24.0,40.0,5.0,0.0
1883,54.0,26.0,90.0,6.0,0.0
1884,42.0,0.0,90.0,0.0,0.0
1885,30.0,0.0,90.0,8.0,0.0
1886,42.0,0.0,90.0,7.0,0.0
1887,63.0,20.0,20.0,2.0,0.0
1888,57.0,0.0,40.0,3.0,0.0
1889,66.0,4.0,20.0,2.0,0.0
1890,56.0,5.0,40.0,3.0,0.0
1891,60.0,15.0,20.0,2.0,0.0
1892,51.0,1.0,40.0,5.0,0.0
1893,63.0,3.0,20.0,2.0,0.0
1894,53.0,1.0,40.0,4.0,0.0
1895,29.0,0.0,40.0,8.0,0.0
1896,61.0,8.0,30.0,2.0,0.0
1897,41.0,0.0,40.0,7.0,0.0
1898,56.0,4.0,30.0,3.0,0.0
1899,41.0,54.0,40.0,0.0,0.0
1900,65.0,27.0,20.0,2.0,0.0
1901,54.0,0.0,40.0,6.0,0.0
1902,30.0,24.0,40.0,8.0,0.0
1903,63.0,20.0,20.0,2.0,0.0
1904,60.0,0.0,20.0,5.0,0.0
1905,42.0,0.0,40.0,7.0,0.0
1906,57.0,0.0,40.0,3.0,0.0
1907,42.0,0.0,40.0,0.0,0.0
1908,63.0,4.0,20.0,5.0,0.0
1909,60.0,0.0,20.0,2.0,0.0
1910,41.0,0.0,40.0,7.0,0.0
1911,56.0,0.0,40.0,3.0,0.0
1912,41.0,0.0,40.0,0.0,0.0
1913,53.0,0.0,40.0,6.0,0.0
1914,61.0,6.0,20.0,2.0,0.0
1915,61.0,18.0,30.0,5.0,0.0
1916,29.0,24.0,40.0,8.0,0.0
1917,65.0,0.0,20.0,2.0,0.0
1918,30.0,0.0,40.0,8.0,0.0
1919,42.0,0.0,40.0,0.0,0.0
1920,63.0,20.0,20.0,2.0,0.0
1921,60.0,0.0,20.0,5.0,0.0
1922,57.0,24.0,40.0,3.0,0.0
1923,42.0,0.0,40.0,7.0,0.0
1924,54.0,0.0,40.0,6.0,0.0
1925,63.0,4.0,20.0,5.0,0.0
1926,60.0,0.0,20.0,2.0,0.0
1927,29.0,0.0,40.0,8.0,0.0
1928,41.0,0.0,40.0,7.0,0.0
1929,53.0,0.0,40.0,6.0,0.0
1930,41.0,2.0,40.0,0.0,0.0
1931,56.0,1.0,40.0,3.0,0.0
1932,61.0,11.0,30.0,5.0,0.0
1933,61.0,6.0,20.0,2.0,0.0
1934,65.0,28.0,20.0,2.0,0.0
1935,51.0,0.0,30.0,6.0,0.0
1936,58.0,0.0,30.0,3.0,0.0
1937,27.0,11.0,30.0,8.0,0.0
1938,61.0,0.0,30.0,5.0,0.0
1939,39.0,0.0,30.0,7.0,0.0
1940,39.0,1.0,30.0,0.0,0.0
1941,68.0,6.0,20.0,2.0,0.0
1942,67.0,35.0,20.0,2.0,0.0
1943,44.0,1.0,30.0,0.0,0.0
1944,60.0,0.0,30.0,3.0,0.0
1945,32.0,1.0,30.0,8.0,0.0
1946,44.0,1.0,30.0,1.0,0.0
1947,66.0,87.0,30.0,2.0,0.0
1948,63.0,0.0,30.0,5.0,0.0
1949,46.0,2.0,30.0,0.0,0.0
1950,61.0,3.0,20.0,3.0,0.0
1951,65.0,1.0,20.0,2.0,0.0
1952,61.0,41.0,30.0,5.0,0.0
1953,34.0,1.0,30.0,8.0,0.0
1954,42.0,1.0,30.0,0.0,0.0
1955,58.0,3.0,20.0,3.0,0.0
1956,42.0,1.0,30.0,7.0,0.0
1957,63.0,1.0,20.0,2.0,0.0
1958,54.0,0.0,30.0,4.0,0.0
1959,30.0,42.0,30.0,8.0,0.0
1960,41.0,0.0,30.0,0.0,0.0
1961,53.0,1.0,30.0,4.0,0.0
1962,41.0,1.0,30.0,7.0,0.0
1963,56.0,3.0,20.0,3.0,0.0
1964,61.0,1.0,20.0,2.0,0.0
1965,29.0,43.0,30.0,8.0,0.0
1966,56.0,3.0,20.0,3.0,0.0
1967,54.0,0.0,30.0,4.0,0.0
1968,30.0,12.0,30.0,8.0,0.0
1969,42.0,1.0,30.0,7.0,0.0
1970,65.0,0.0,20.0,2.0,0.0
1971,42.0,1.0,30.0,0.0,0.0
1972,63.0,0.0,15.0,2.0,0.0
1973,54.0,22.0,15.0,3.0,0.0
1974,56.0,0.0,30.0,4.0,0.0
1975,32.0,10.0,30.0,8.0,0.0
1976,44.0,1.0,30.0,0.0,0.0
1977,61.0,10.0,15.0,2.0,0.0
1978,44.0,1.0,30.0,7.0,0.0
1979,53.0,2.0,15.0,3.0,0.0
1980,51.0,2.0,15.0,3.0,0.0
1981,60.0,31.0,15.0,2.0,0.0
1982,80.0,0.0,20.0,2.0,0.0
1983,34.0,1.0,30.0,8.0,0.0
1984,68.0,2.0,20.0,3.0,0.0
1985,58.0,12.0,30.0,6.0,0.0
1986,61.0,3.0,30.0,5.0,0.0
1987,46.0,0.0,30.0,0.0,0.0
1988,46.0,0.0,30.0,7.0,0.0
1989,67.0,32.0,20.0,3.0,0.0
1990,79.0,0.0,20.0,2.0,0.0
1991,48.0,0.0,30.0,0.0,0.0
1992,48.0,0.0,30.0,7.0,0.0
1993,56.0,89.0,30.0,6.0,0.0
1994,36.0,1.0,30.0,8.0,0.0
1995,63.0,0.0,30.0,5.0,0.0
1996,66.0,2.0,30.0,3.0,0.0
1997,78.0,1.0,30.0,2.0,0.0
1998,49.0,0.0,30.0,7.0,0.0
1999,61.0,44.0,30.0,5.0,0.0
2000,77.0,1.0,20.0,2.0,0.0
2001,37.0,0.0,30.0,8.0,0.0
2002,56.0,0.0,30.0,6.0,0.0
2003,65.0,3.0,20.0,3.0,0.0
2004,49.0,0.0,30.0,0.0,0.0
2005,54.0,1.0,30.0,0.0,0.0
2006,58.0,1.0,30.0,5.0,0.0
2007,42.0,43.0,30.0,8.0,0.0
2008,75.0,1.0,20.0,2.0,0.0
2009,63.0,2.0,20.0,3.0,0.0
2010,54.0,0.0,30.0,1.0,0.0
2011,53.0,0.0,30.0,1.0,0.0
2012,56.0,1.0,30.0,5.0,0.0
2013,41.0,44.0,30.0,8.0,0.0
2014,73.0,1.0,20.0,2.0,0.0
2015,53.0,1.0,30.0,0.0,0.0
2016,61.0,2.0,20.0,3.0,0.0
2017,65.0,0.0,20.0,3.0,0.0
2018,42.0,0.0,30.0,8.0,0.0
2019,54.0,1.0,30.0,0.0,0.0
2020,56.0,3.0,20.0,5.0,0.0
2021,54.0,13.0,30.0,1.0,0.0
2022,77.0,0.0,20.0,2.0,0.0
2023,63.0,0.0,15.0,3.0,0.0
2024,75.0,0.0,15.0,2.0,0.0
2025,54.0,20.0,15.0,5.0,0.0
2026,53.0,10.0,15.0,5.0,0.0
2027,73.0,3.0,15.0,2.0,0.0
2028,56.0,1.0,30.0,0.0,0.0
2029,56.0,9.0,30.0,1.0,0.0
2030,44.0,0.0,30.0,8.0,0.0
2031,61.0,1.0,15.0,3.0,0.0
2032,60.0,1.0,15.0,3.0,0.0
2033,72.0,3.0,15.0,2.0,0.0
2034,51.0,19.0,15.0,5.0,0.0
2035,53.0,2.0,15.0,5.0,0.0
2036,37.0,0.0,90.0,8.0,0.0
2037,61.0,22.0,15.0,3.0,0.0
2038,73.0,19.0,40.0,2.0,0.0
2039,49.0,0.0,90.0,0.0,0.0
2040,49.0,14.0,90.0,7.0,0.0
2041,56.0,0.0,90.0,6.0,0.0
2042,63.0,5.0,15.0,3.0,0.0
2043,56.0,0.0,15.0,5.0,0.0
2044,61.0,24.0,15.0,5.0,0.0
2045,65.0,0.0,15.0,3.0,0.0
2046,63.0,5.0,15.0,5.0,0.0
2047,66.0,0.0,15.0,3.0,0.0
2048,68.0,2.0,15.0,3.0,0.0
2049,65.0,0.0,15.0,5.0,0.0
2050,75.0,5.0,15.0,2.0,0.0
2051,73.0,7.0,15.0,2.0,0.0
2052,75.0,7.0,15.0,2.0,0.0
2053,73.0,8.0,15.0,2.0,0.0
2054,63.0,12.0,15.0,5.0,0.0
2055,66.0,0.0,15.0,3.0,0.0
2056,72.0,12.0,20.0,2.0,0.0
2057,68.0,0.0,15.0,3.0,0.0
2058,73.0,20.0,15.0,2.0,0.0
2059,65.0,2.0,15.0,5.0,0.0
2060,73.0,2.0,15.0,2.0,0.0
2061,71.0,0.0,15.0,3.0,0.0
2062,68.0,24.0,15.0,5.0,0.0
2063,66.0,18.0,15.0,5.0,0.0
2064,30.0,0.0,40.0,8.0,0.0
2065,54.0,0.0,40.0,6.0,0.0
2066,70.0,0.0,15.0,3.0,0.0
2067,42.0,19.0,40.0,0.0,0.0
2068,42.0,0.0,40.0,7.0,0.0
2069,73.0,6.0,30.0,2.0,0.0
2070,70.0,0.0,15.0,5.0,0.0
2071,73.0,5.0,15.0,3.0,0.0
2072,71.0,24.0,15.0,3.0,0.0
2073,68.0,0.0,15.0,5.0,0.0
2074,66.0,0.0,15.0,5.0,0.0
2075,70.0,24.0,15.0,3.0,0.0
2076,37.0,19.0,40.0,8.0,0.0
2077,65.0,18.0,15.0,5.0,0.0
2078,68.0,0.0,15.0,3.0,0.0
2079,73.0,6.0,30.0,2.0,0.0
2080,49.0,0.0,40.0,0.0,0.0
2081,61.0,0.0,40.0,6.0,0.0
2082,49.0,0.0,40.0,7.0,0.0
2083,61.0,0.0,15.0,5.0,0.0
2084,65.0,5.0,15.0,3.0,0.0
2085,66.0,0.0,15.0,3.0,0.0
2086,63.0,24.0,15.0,5.0,0.0
2087,68.0,0.0,15.0,3.0,0.0
2088,65.0,24.0,15.0,5.0,0.0
2089,42.0,17.0,90.0,8.0,0.0
2090,66.0,0.0,90.0,6.0,0.0
2091,66.0,24.0,15.0,5.0,0.0
2092,54.0,0.0,90.0,7.0,0.0
2093,54.0,0.0,90.0,0.0,0.0
2094,70.0,15.0,40.0,2.0,0.0
2095,66.0,9.0,15.0,5.0,0.0
2096,70.0,0.0,15.0,3.0,0.0
2097,65.0,24.0,15.0,5.0,0.0
2098,68.0,0.0,15.0,3.0,0.0
2099,66.0,2.0,15.0,3.0,0.0
2100,63.0,0.0,15.0,5.0,0.0
2101,65.0,2.0,15.0,3.0,0.0
2102,62.0,0.0,15.0,5.0,0.0
2103,84.0,5.0,15.0,2.0,0.0
2104,82.0,7.0,15.0,2.0,0.0
2105,84.0,7.0,15.0,2.0,0.0
2106,82.0,8.0,15.0,2.0,0.0
2107,60.0,0.0,15.0,5.0,0.0
2108,63.0,12.0,15.0,3.0,0.0
2109,81.0,12.0,20.0,2.0,0.0
2110,65.0,22.0,15.0,3.0,0.0
2111,82.0,0.0,15.0,2.0,0.0
2112,62.0,0.0,15.0,5.0,0.0
2113,82.0,2.0,15.0,2.0,0.0
2114,58.0,0.0,15.0,5.0,0.0
2115,62.0,24.0,15.0,3.0,0.0
2116,51.0,19.0,40.0,6.0,0.0
2117,39.0,0.0,40.0,0.0,0.0
2118,82.0,16.0,20.0,2.0,0.0
2119,39.0,0.0,40.0,7.0,0.0
2120,27.0,0.0,40.0,8.0,0.0
2121,63.0,0.0,15.0,5.0,0.0
2122,66.0,8.0,15.0,3.0,0.0
2123,66.0,5.0,15.0,5.0,0.0
2124,70.0,0.0,15.0,3.0,0.0
2125,65.0,0.0,15.0,5.0,0.0
2126,82.0,16.0,20.0,2.0,0.0
2127,68.0,8.0,15.0,3.0,0.0
2128,63.0,0.0,15.0,5.0,0.0
2129,66.0,24.0,15.0,3.0,0.0
2130,62.0,8.0,15.0,5.0,0.0
2131,46.0,19.0,40.0,0.0,0.0
2132,46.0,0.0,40.0,7.0,0.0
2133,58.0,0.0,40.0,6.0,0.0
2134,82.0,16.0,20.0,2.0,0.0
2135,65.0,0.0,15.0,3.0,0.0
2136,34.0,0.0,40.0,8.0,0.0
2137,58.0,5.0,15.0,5.0,0.0
2138,62.0,0.0,15.0,3.0,0.0
2139,63.0,0.0,15.0,3.0,0.0
2140,60.0,8.0,15.0,5.0,0.0
2141,82.0,16.0,20.0,2.0,0.0
2142,65.0,24.0,15.0,3.0,0.0
2143,62.0,0.0,15.0,5.0,0.0
2144,51.0,0.0,90.0,7.0,0.0
2145,63.0,0.0,15.0,5.0,0.0
2146,51.0,0.0,90.0,0.0,0.0
2147,78.0,12.0,60.0,2.0,0.0
2148,66.0,24.0,15.0,3.0,0.0
2149,63.0,0.0,90.0,6.0,0.0
2150,39.0,6.0,90.0,8.0,0.0
2151,65.0,0.0,15.0,3.0,0.0
2152,62.0,24.0,15.0,5.0,0.0
2153,66.0,0.0,15.0,3.0,0.0
2154,63.0,12.0,15.0,5.0,0.0
2155,61.0,2.0,15.0,5.0,0.0
2156,79.0,11.0,20.0,2.0,0.0
2157,64.0,0.0,15.0,3.0,0.0
2158,63.0,2.0,15.0,3.0,0.0
2159,82.0,5.0,15.0,2.0,0.0
2160,60.0,0.0,15.0,5.0,0.0
2161,80.0,7.0,15.0,2.0,0.0
2162,82.0,7.0,15.0,2.0,0.0
2163,80.0,8.0,15.0,2.0,0.0
2164,58.0,12.0,15.0,5.0,0.0
2165,61.0,0.0,15.0,3.0,0.0
2166,79.0,12.0,20.0,2.0,0.0
2167,60.0,2.0,15.0,5.0,0.0
2168,63.0,0.0,15.0,3.0,0.0
2169,80.0,22.0,15.0,2.0,0.0
2170,80.0,0.0,15.0,2.0,0.0
2171,56.0,24.0,15.0,1.0,0.0
2172,80.0,16.0,20.0,2.0,0.0
2173,49.0,0.0,40.0,0.0,0.0
2174,61.0,0.0,15.0,5.0,0.0
2175,65.0,8.0,15.0,3.0,0.0
2176,49.0,0.0,40.0,7.0,0.0
2177,61.0,0.0,40.0,6.0,0.0
2178,37.0,19.0,40.0,8.0,0.0
2179,65.0,5.0,15.0,5.0,0.0
2180,68.0,0.0,15.0,3.0,0.0
2181,80.0,16.0,20.0,2.0,0.0
2182,63.0,0.0,15.0,5.0,0.0
2183,66.0,8.0,15.0,3.0,0.0
2184,61.0,24.0,15.0,5.0,0.0
2185,65.0,0.0,15.0,3.0,0.0
2186,80.0,16.0,20.0,2.0,0.0
2187,44.0,0.0,40.0,0.0,0.0
2188,56.0,0.0,40.0,6.0,0.0
2189,32.0,19.0,40.0,8.0,0.0
2190,44.0,0.0,40.0,7.0,0.0
2191,63.0,0.0,15.0,3.0,0.0
2192,60.0,8.0,15.0,5.0,0.0
2193,60.0,5.0,15.0,3.0,0.0
2194,56.0,0.0,15.0,5.0,0.0
2195,80.0,16.0,20.0,2.0,0.0
2196,61.0,8.0,15.0,3.0,0.0
2197,58.0,0.0,15.0,5.0,0.0
2198,63.0,51.0,15.0,3.0,0.0
2199,60.0,0.0,15.0,5.0,0.0
2200,61.0,0.0,90.0,5.0,0.0
2201,37.0,0.0,90.0,0.0,0.0
2202,49.0,0.0,90.0,6.0,0.0
2203,65.0,0.0,90.0,3.0,0.0
2204,37.0,0.0,90.0,7.0,0.0
2205,77.0,47.0,40.0,2.0,0.0
2206,25.0,10.0,90.0,8.0,0.0
2207,68.0,24.0,20.0,2.0,0.0
2208,70.0,24.0,20.0,2.0,0.0
2209,68.0,24.0,20.0,2.0,0.0
2210,66.0,17.0,20.0,2.0,0.0
2211,65.0,19.0,15.0,2.0,0.0
2212,42.0,0.0,15.0,7.0,0.0
2213,61.0,22.0,15.0,3.0,0.0
2214,42.0,0.0,15.0,0.0,0.0
2215,30.0,0.0,15.0,8.0,0.0
2216,54.0,2.0,15.0,4.0,0.0
2217,63.0,0.0,15.0,2.0,0.0
2218,62.0,0.0,15.0,2.0,0.0
2219,53.0,0.0,15.0,4.0,0.0
2220,29.0,0.0,15.0,8.0,0.0
2221,41.0,0.0,15.0,0.0,0.0
2222,61.0,0.0,15.0,3.0,0.0
2223,41.0,24.0,15.0,7.0,0.0
2224,54.0,0.0,15.0,4.0,0.0
2225,42.0,0.0,15.0,0.0,0.0
2226,30.0,24.0,15.0,8.0,0.0
2227,63.0,0.0,15.0,2.0,0.0
2228,42.0,0.0,15.0,7.0,0.0
2229,61.0,0.0,15.0,3.0,0.0
2230,56.0,0.0,15.0,4.0,0.0
2231,61.0,0.0,15.0,3.0,0.0
2232,44.0,0.0,15.0,0.0,0.0
2233,44.0,0.0,15.0,7.0,0.0
2234,65.0,0.0,15.0,2.0,0.0
2235,32.0,24.0,15.0,8.0,0.0
2236,46.0,0.0,15.0,0.0,0.0
2237,66.0,0.0,15.0,2.0,0.0
2238,46.0,0.0,15.0,7.0,0.0
2239,61.0,0.0,15.0,3.0,0.0
2240,34.0,24.0,15.0,8.0,0.0
2241,58.0,0.0,15.0,4.0,0.0
2242,48.0,0.0,15.0,7.0,0.0
2243,68.0,24.0,15.0,2.0,0.0
2244,61.0,0.0,15.0,3.0,0.0
2245,36.0,0.0,15.0,8.0,0.0
2246,60.0,0.0,15.0,4.0,0.0
2247,48.0,0.0,15.0,0.0,0.0
2248,49.0,0.0,15.0,7.0,0.0
2249,37.0,24.0,15.0,8.0,0.0
2250,49.0,0.0,15.0,0.0,0.0
2251,70.0,0.0,15.0,2.0,0.0
2252,61.0,0.0,15.0,3.0,0.0
2253,61.0,0.0,15.0,4.0,0.0
2254,60.0,0.0,15.0,4.0,0.0
2255,48.0,0.0,15.0,0.0,0.0
2256,69.0,0.0,15.0,2.0,0.0
2257,61.0,24.0,15.0,3.0,0.0
2258,36.0,0.0,15.0,8.0,0.0
2259,48.0,0.0,15.0,7.0,0.0
2260,70.0,4.0,20.0,2.0,0.0
2261,61.0,0.0,30.0,4.0,0.0
2262,61.0,11.0,15.0,3.0,0.0
2263,37.0,9.0,30.0,8.0,0.0
2264,49.0,0.0,30.0,0.0,0.0
2265,49.0,0.0,30.0,7.0,0.0
2266,61.0,24.0,15.0,3.0,0.0
2267,48.0,9.0,30.0,7.0,0.0
2268,61.0,11.0,15.0,3.0,0.0
2269,60.0,0.0,30.0,4.0,0.0
2270,48.0,0.0,30.0,0.0,0.0
2271,36.0,0.0,30.0,8.0,0.0
2272,68.0,4.0,20.0,2.0,0.0
2273,61.0,24.0,15.0,3.0,0.0
2274,61.0,11.0,15.0,3.0,0.0
2275,46.0,9.0,30.0,0.0,0.0
2276,34.0,0.0,30.0,8.0,0.0
2277,58.0,0.0,30.0,4.0,0.0
2278,46.0,0.0,30.0,7.0,0.0
2279,66.0,4.0,20.0,2.0,0.0
2280,61.0,24.0,15.0,3.0,0.0
2281,61.0,11.0,15.0,3.0,0.0
2282,44.0,0.0,30.0,0.0,0.0
2283,32.0,0.0,30.0,8.0,0.0
2284,56.0,0.0,30.0,4.0,0.0
2285,65.0,4.0,20.0,2.0,0.0
2286,44.0,9.0,30.0,7.0,0.0
2287,61.0,24.0,15.0,3.0,0.0
2288,54.0,2.0,15.0,1.0,0.0
2289,73.0,22.0,15.0,3.0,0.0
2290,42.0,0.0,15.0,8.0,0.0
2291,54.0,0.0,15.0,0.0,0.0
2292,75.0,0.0,15.0,2.0,0.0
2293,41.0,0.0,15.0,8.0,0.0
2294,53.0,24.0,15.0,1.0,0.0
2295,53.0,0.0,15.0,0.0,0.0
2296,74.0,0.0,15.0,2.0,0.0
2297,73.0,0.0,15.0,3.0,0.0
2298,73.0,24.0,15.0,3.0,0.0
2299,54.0,0.0,15.0,1.0,0.0
2300,54.0,0.0,15.0,0.0,0.0
2301,42.0,0.0,15.0,8.0,0.0
2302,75.0,0.0,15.0,2.0,0.0
2303,44.0,0.0,15.0,8.0,0.0
2304,73.0,0.0,15.0,3.0,0.0
2305,56.0,0.0,15.0,0.0,0.0
2306,77.0,24.0,15.0,2.0,0.0
2307,56.0,0.0,15.0,1.0,0.0
2308,58.0,0.0,15.0,1.0,0.0
2309,46.0,0.0,15.0,8.0,0.0
2310,73.0,0.0,15.0,3.0,0.0
2311,78.0,0.0,15.0,2.0,0.0
2312,58.0,24.0,15.0,0.0,0.0
2313,73.0,0.0,15.0,3.0,0.0
2314,60.0,0.0,15.0,1.0,0.0
2315,60.0,0.0,15.0,0.0,0.0
2316,80.0,0.0,15.0,2.0,0.0
2317,48.0,24.0,15.0,8.0,0.0
2318,73.0,0.0,15.0,3.0,0.0
2319,61.0,0.0,15.0,0.0,0.0
2320,82.0,0.0,15.0,2.0,0.0
2321,61.0,0.0,15.0,1.0,0.0
2322,49.0,24.0,15.0,8.0,0.0
2323,48.0,0.0,15.0,8.0,0.0
2324,73.0,0.0,15.0,3.0,0.0
2325,81.0,0.0,15.0,2.0,0.0
2326,60.0,24.0,15.0,0.0,0.0
2327,60.0,0.0,15.0,1.0,0.0
2328,49.0,0.0,30.0,8.0,0.0
2329,73.0,11.0,15.0,3.0,0.0
2330,82.0,4.0,20.0,2.0,0.0
2331,61.0,9.0,30.0,0.0,0.0
2332,61.0,0.0,30.0,1.0,0.0
2333,73.0,24.0,15.0,3.0,0.0
2334,48.0,0.0,30.0,8.0,0.0
2335,60.0,9.0,30.0,0.0,0.0
2336,80.0,4.0,20.0,2.0,0.0
2337,73.0,11.0,15.0,3.0,0.0
2338,60.0,0.0,30.0,1.0,0.0
2339,73.0,24.0,15.0,3.0,0.0
2340,73.0,11.0,15.0,3.0,0.0
2341,58.0,9.0,30.0,0.0,0.0
2342,58.0,0.0,30.0,1.0,0.0
2343,78.0,4.0,20.0,2.0,0.0
2344,46.0,0.0,30.0,8.0,0.0
2345,73.0,24.0,15.0,3.0,0.0
2346,56.0,0.0,30.0,1.0,0.0
2347,77.0,4.0,20.0,2.0,0.0
2348,44.0,9.0,30.0,8.0,0.0
2349,73.0,11.0,15.0,3.0,0.0
2350,56.0,0.0,30.0,0.0,0.0
2351,73.0,36.0,15.0,3.0,0.0
2352,73.0,38.0,810.0,3.0,0.0
2353,58.0,0.0,90.0,4.0,0.0
2354,54.0,0.0,90.0,0.0,0.0
2355,54.0,48.0,90.0,7.0,0.0
2356,77.0,18.0,20.0,2.0,0.0
2357,42.0,0.0,90.0,8.0,0.0
2358,75.0,54.0,20.0,2.0,0.0
2359,75.0,39.0,90.0,2.0,0.0
2360,56.0,1.0,90.0,1.0,0.0
2361,44.0,24.0,90.0,8.0,0.0
2362,56.0,0.0,90.0,0.0,0.0
2363,77.0,8.0,40.0,2.0,0.0
2364,77.0,18.0,20.0,2.0,0.0
2365,58.0,0.0,90.0,7.0,0.0
2366,54.0,0.0,90.0,4.0,0.0
2367,58.0,0.0,90.0,0.0,0.0
2368,46.0,48.0,90.0,8.0,0.0
2369,75.0,54.0,20.0,2.0,0.0
2370,75.0,39.0,90.0,2.0,0.0
2371,56.0,24.0,90.0,1.0,0.0
2372,56.0,0.0,90.0,0.0,0.0
2373,44.0,0.0,90.0,8.0,0.0
2374,77.0,9.0,40.0,2.0,0.0
2375,58.0,7.0,90.0,4.0,0.0
2376,55.0,0.0,90.0,7.0,0.0
2377,43.0,48.0,90.0,8.0,0.0
2378,77.0,18.0,20.0,2.0,0.0
2379,55.0,0.0,90.0,0.0,0.0
2380,75.0,47.0,20.0,2.0,0.0
2381,75.0,39.0,90.0,2.0,0.0
2382,56.0,9.0,90.0,1.0,0.0
2383,44.0,0.0,90.0,8.0,0.0
2384,56.0,24.0,90.0,0.0,0.0
2385,77.0,0.0,40.0,2.0,0.0
2386,46.0,0.0,90.0,8.0,0.0
2387,77.0,18.0,20.0,2.0,0.0
2388,55.0,7.0,90.0,4.0,0.0
2389,58.0,48.0,90.0,0.0,0.0
2390,58.0,0.0,90.0,7.0,0.0
2391,75.0,47.0,20.0,2.0,0.0
2392,75.0,38.0,90.0,2.0,0.0
2393,57.0,1.0,90.0,7.0,0.0
2394,57.0,0.0,90.0,0.0,0.0
2395,67.0,41.0,90.0,4.0,0.0
2396,45.0,0.0,90.0,8.0,0.0
2397,76.0,2.0,40.0,2.0,0.0
2398,56.0,11.0,180.0,0.0,0.0
2399,44.0,0.0,180.0,8.0,0.0
2400,56.0,24.0,180.0,7.0,0.0
2401,76.0,21.0,60.0,2.0,0.0
2402,68.0,4.0,270.0,4.0,0.0
2403,73.0,48.0,40.0,3.0,0.0
2404,75.0,3.0,20.0,2.0,0.0
2405,72.0,33.0,40.0,3.0,0.0
2406,75.0,24.0,120.0,2.0,0.0
2407,70.0,4.0,40.0,3.0,0.0
2408,32.0,0.0,90.0,8.0,0.0
2409,56.0,0.0,90.0,5.0,0.0
2410,72.0,0.0,20.0,3.0,0.0
2411,44.0,6.0,90.0,0.0,0.0
2412,44.0,0.0,90.0,7.0,0.0
2413,70.0,24.0,20.0,3.0,0.0
2414,73.0,0.0,20.0,2.0,0.0
2415,68.0,14.0,20.0,3.0,0.0
2416,72.0,0.0,20.0,2.0,0.0
2417,70.0,24.0,20.0,2.0,0.0
2418,66.0,0.0,20.0,3.0,0.0
2419,65.0,0.0,20.0,3.0,0.0
2420,68.0,24.0,20.0,2.0,0.0
2421,66.0,24.0,20.0,2.0,0.0
2422,63.0,0.0,20.0,3.0,0.0
2423,61.0,21.0,20.0,3.0,0.0
2424,65.0,0.0,20.0,2.0,0.0
2425,60.0,1.0,20.0,3.0,0.0
2426,63.0,38.0,20.0,2.0,0.0
2427,56.0,0.0,90.0,5.0,0.0
2428,61.0,16.0,60.0,1.0,0.0
2429,49.0,0.0,90.0,7.0,0.0
2430,49.0,18.0,90.0,0.0,0.0
2431,49.0,0.0,90.0,6.0,0.0
2432,37.0,4.0,90.0,8.0,0.0
2433,61.0,20.0,120.0,2.0,0.0
2434,56.0,24.0,15.0,3.0,0.0
2435,53.0,8.0,15.0,3.0,0.0
2436,56.0,2.0,15.0,3.0,0.0
2437,53.0,24.0,15.0,3.0,0.0
2438,56.0,4.0,15.0,3.0,0.0
2439,65.0,16.0,15.0,2.0,0.0
2440,61.0,4.0,15.0,3.0,0.0
2441,63.0,4.0,15.0,2.0,0.0
2442,56.0,9.0,15.0,3.0,0.0
2443,61.0,15.0,15.0,2.0,0.0
2444,66.0,16.0,20.0,2.0,0.0
2445,58.0,8.0,15.0,3.0,0.0
2446,61.0,24.0,15.0,3.0,0.0
2447,65.0,16.0,20.0,2.0,0.0
2448,56.0,8.0,15.0,3.0,0.0
2449,60.0,24.0,15.0,3.0,0.0
2450,63.0,16.0,20.0,2.0,0.0
2451,54.0,8.0,15.0,3.0,0.0
2452,58.0,24.0,15.0,3.0,0.0
2453,53.0,8.0,15.0,3.0,0.0
2454,61.0,16.0,20.0,2.0,0.0
2455,56.0,36.0,15.0,3.0,0.0
2456,51.0,24.0,20.0,3.0,0.0
2457,49.0,3.0,150.0,6.0,0.0
2458,56.0,0.0,150.0,5.0,0.0
2459,60.0,0.0,60.0,2.0,0.0
2460,37.0,5.0,180.0,7.0,0.0
2461,25.0,0.0,180.0,8.0,0.0
2462,37.0,0.0,180.0,0.0,0.0
2463,54.0,24.0,20.0,3.0,0.0
2464,56.0,12.0,20.0,3.0,0.0
2465,63.0,10.0,15.0,2.0,0.0
2466,54.0,24.0,20.0,3.0,0.0
2467,60.0,2.0,15.0,2.0,0.0
2468,53.0,21.0,20.0,3.0,0.0
2469,61.0,12.0,60.0,2.0,0.0
2470,56.0,24.0,20.0,3.0,0.0
2471,61.0,0.0,20.0,3.0,0.0
2472,56.0,0.0,20.0,3.0,0.0
2473,65.0,5.0,15.0,2.0,0.0
2474,61.0,14.0,15.0,2.0,0.0
2475,70.0,16.0,20.0,2.0,0.0
2476,61.0,8.0,15.0,3.0,0.0
2477,65.0,24.0,15.0,3.0,0.0
2478,68.0,16.0,20.0,2.0,0.0
2479,60.0,8.0,15.0,3.0,0.0
2480,63.0,24.0,15.0,3.0,0.0
2481,58.0,8.0,15.0,3.0,0.0
2482,66.0,16.0,20.0,2.0,0.0
2483,61.0,24.0,15.0,3.0,0.0
2484,56.0,8.0,15.0,3.0,0.0
2485,65.0,16.0,20.0,2.0,0.0
2486,60.0,36.0,15.0,3.0,0.0
2487,37.0,0.0,180.0,0.0,0.0
2488,61.0,3.0,570.0,5.0,0.0
2489,49.0,0.0,180.0,6.0,0.0
2490,55.0,24.0,20.0,3.0,0.0
2491,64.0,12.0,60.0,2.0,0.0
2492,25.0,4.0,180.0,8.0,0.0
2493,37.0,0.0,180.0,7.0,0.0
2494,58.0,24.0,20.0,3.0,0.0
2495,61.0,0.0,20.0,3.0,0.0
2496,58.0,24.0,20.0,3.0,0.0
2497,67.0,10.0,15.0,2.0,0.0
2498,64.0,2.0,15.0,2.0,0.0
2499,56.0,24.0,20.0,3.0,0.0
2500,65.0,0.0,60.0,2.0,0.0
2501,61.0,24.0,20.0,3.0,0.0
2502,65.0,12.0,20.0,3.0,0.0
2503,61.0,1.0,20.0,3.0,0.0
2504,68.0,5.0,15.0,2.0,0.0
2505,65.0,14.0,15.0,2.0,0.0
2506,58.0,8.0,15.0,3.0,0.0
2507,73.0,16.0,20.0,2.0,0.0
2508,61.0,24.0,15.0,3.0,0.0
2509,72.0,16.0,20.0,2.0,0.0
2510,56.0,8.0,15.0,3.0,0.0
2511,60.0,24.0,15.0,3.0,0.0
2512,70.0,16.0,20.0,2.0,0.0
2513,54.0,8.0,15.0,3.0,0.0
2514,58.0,24.0,15.0,3.0,0.0
2515,53.0,8.0,15.0,3.0,0.0
2516,68.0,16.0,20.0,2.0,0.0
2517,56.0,24.0,15.0,3.0,0.0
2518,52.0,24.0,15.0,3.0,0.0
2519,67.0,12.0,40.0,2.0,0.0
2520,55.0,12.0,15.0,3.0,0.0
2521,53.0,24.0,15.0,3.0,0.0
2522,68.0,12.0,40.0,2.0,0.0
2523,56.0,12.0,15.0,3.0,0.0
2524,52.0,24.0,15.0,3.0,0.0
2525,67.0,12.0,40.0,2.0,0.0
2526,55.0,12.0,15.0,3.0,0.0
2527,68.0,31.0,40.0,2.0,0.0
2528,53.0,21.0,15.0,3.0,0.0
2529,56.0,5.0,15.0,3.0,0.0
2530,60.0,16.0,20.0,3.0,0.0
2531,42.0,3.0,90.0,0.0,0.0
2532,30.0,1.0,90.0,8.0,0.0
2533,72.0,0.0,20.0,2.0,0.0
2534,56.0,0.0,20.0,5.0,0.0
2535,42.0,0.0,90.0,7.0,0.0
2536,58.0,2.0,15.0,3.0,0.0
2537,54.0,19.0,20.0,5.0,0.0
2538,70.0,0.0,20.0,2.0,0.0
2539,56.0,1.0,15.0,3.0,0.0
2540,68.0,1.0,15.0,2.0,0.0
2541,53.0,19.0,15.0,5.0,0.0
2542,66.0,0.0,15.0,2.0,0.0
2543,51.0,57.0,15.0,5.0,0.0
2544,54.0,1.0,15.0,3.0,0.0
2545,44.0,0.0,90.0,0.0,0.0
2546,32.0,0.0,90.0,8.0,0.0
2547,53.0,0.0,40.0,3.0,0.0
2548,44.0,20.0,90.0,7.0,0.0
2549,49.0,32.0,40.0,5.0,0.0
2550,56.0,0.0,90.0,6.0,0.0
2551,65.0,0.0,40.0,2.0,0.0
2552,63.0,2.0,30.0,2.0,0.0
2553,51.0,0.0,30.0,3.0,0.0
2554,48.0,4.0,30.0,5.0,0.0
2555,61.0,2.0,15.0,2.0,0.0
2556,49.0,0.0,180.0,7.0,0.0
2557,68.0,12.0,15.0,2.0,0.0
2558,53.0,24.0,20.0,3.0,0.0
2559,49.0,3.0,180.0,0.0,0.0
2560,37.0,3.0,180.0,8.0,0.0
2561,49.0,3.0,90.0,4.0,0.0
2562,56.0,2.0,90.0,6.0,0.0
2563,73.0,11.0,120.0,2.0,0.0
2564,56.0,24.0,20.0,3.0,0.0
2565,61.0,15.0,20.0,3.0,0.0
2566,60.0,28.0,20.0,3.0,0.0
2567,61.0,13.0,20.0,3.0,0.0
2568,65.0,16.0,20.0,3.0,0.0
2569,68.0,8.0,20.0,3.0,0.0
2570,77.0,8.0,15.0,2.0,0.0
2571,75.0,6.0,15.0,2.0,0.0
2572,65.0,3.0,20.0,3.0,0.0
2573,73.0,13.0,15.0,2.0,0.0
2574,70.0,7.0,15.0,3.0,0.0
2575,78.0,17.0,20.0,2.0,0.0
2576,73.0,24.0,15.0,3.0,0.0
2577,77.0,17.0,20.0,2.0,0.0
2578,68.0,7.0,15.0,3.0,0.0
2579,72.0,24.0,15.0,3.0,0.0
2580,75.0,17.0,20.0,2.0,0.0
2581,66.0,7.0,15.0,3.0,0.0
2582,70.0,24.0,15.0,3.0,0.0
2583,65.0,8.0,15.0,3.0,0.0
2584,73.0,16.0,20.0,2.0,0.0
2585,68.0,36.0,15.0,3.0,0.0
2586,49.0,3.0,180.0,0.0,0.0
2587,63.0,24.0,20.0,3.0,0.0
2588,37.0,3.0,180.0,8.0,0.0
2589,49.0,3.0,180.0,1.0,0.0
2590,72.0,12.0,60.0,2.0,0.0
2591,56.0,3.0,150.0,4.0,0.0
2592,66.0,24.0,20.0,3.0,0.0
2593,68.0,0.0,20.0,3.0,0.0
2594,66.0,24.0,20.0,3.0,0.0
2595,75.0,9.0,15.0,2.0,0.0
2596,72.0,3.0,15.0,2.0,0.0
2597,73.0,9.0,60.0,2.0,0.0
2598,65.0,21.0,20.0,3.0,0.0
2599,68.0,24.0,20.0,3.0,0.0
2600,73.0,0.0,20.0,3.0,0.0
2601,72.0,1.0,20.0,3.0,0.0
2602,77.0,2.0,15.0,2.0,0.0
2603,73.0,15.0,15.0,2.0,0.0
2604,82.0,17.0,20.0,2.0,0.0
2605,73.0,7.0,15.0,3.0,0.0
2606,77.0,24.0,15.0,3.0,0.0
2607,72.0,7.0,15.0,3.0,0.0
2608,80.0,17.0,20.0,2.0,0.0
2609,75.0,24.0,15.0,3.0,0.0
2610,70.0,7.0,15.0,3.0,0.0
2611,78.0,17.0,20.0,2.0,0.0
2612,73.0,24.0,15.0,3.0,0.0
2613,77.0,16.0,20.0,2.0,0.0
2614,68.0,8.0,15.0,3.0,0.0
2615,72.0,36.0,15.0,3.0,0.0
2616,67.0,24.0,20.0,3.0,0.0
2617,49.0,0.0,180.0,1.0,0.0
2618,37.0,0.0,180.0,8.0,0.0
2619,49.0,3.0,180.0,0.0,0.0
2620,61.0,3.0,570.0,5.0,0.0
2621,76.0,0.0,60.0,2.0,0.0
2622,70.0,24.0,20.0,3.0,0.0
2623,73.0,12.0,20.0,3.0,0.0
2624,79.0,9.0,15.0,2.0,0.0
2625,70.0,24.0,20.0,3.0,0.0
2626,76.0,3.0,15.0,2.0,0.0
2627,68.0,24.0,20.0,3.0,0.0
2628,77.0,0.0,60.0,2.0,0.0
2629,73.0,24.0,20.0,3.0,0.0
2630,77.0,12.0,20.0,3.0,0.0
2631,73.0,1.0,20.0,3.0,0.0
2632,80.0,5.0,15.0,2.0,0.0
2633,77.0,15.0,15.0,2.0,0.0
2634,70.0,8.0,15.0,3.0,0.0
2635,85.0,16.0,20.0,2.0,0.0
2636,73.0,24.0,15.0,3.0,0.0
2637,84.0,16.0,20.0,2.0,0.0
2638,68.0,8.0,15.0,3.0,0.0
2639,72.0,24.0,15.0,3.0,0.0
2640,66.0,8.0,15.0,3.0,0.0
2641,82.0,16.0,20.0,2.0,0.0
2642,70.0,24.0,15.0,3.0,0.0
2643,80.0,16.0,20.0,2.0,0.0
2644,65.0,8.0,15.0,3.0,0.0
2645,68.0,24.0,15.0,3.0,0.0
2646,79.0,12.0,40.0,2.0,0.0
2647,64.0,24.0,15.0,3.0,0.0
2648,67.0,12.0,15.0,3.0,0.0
2649,65.0,24.0,15.0,3.0,0.0
2650,80.0,12.0,40.0,2.0,0.0
2651,68.0,12.0,15.0,3.0,0.0
2652,64.0,24.0,15.0,3.0,0.0
2653,79.0,12.0,40.0,2.0,0.0
2654,67.0,12.0,15.0,3.0,0.0
2655,65.0,21.0,15.0,3.0,0.0
2656,80.0,31.0,40.0,2.0,0.0
2657,68.0,5.0,15.0,3.0,0.0
2658,72.0,0.0,20.0,3.0,0.0
2659,42.0,55.0,90.0,8.0,0.0
2660,54.0,1.0,90.0,0.0,0.0
2661,66.0,0.0,90.0,6.0,0.0
2662,54.0,0.0,90.0,7.0,0.0
2663,84.0,0.0,20.0,2.0,0.0
2664,68.0,16.0,20.0,5.0,0.0
2665,66.0,19.0,20.0,5.0,0.0
2666,70.0,2.0,15.0,3.0,0.0
2667,82.0,0.0,15.0,2.0,0.0
2668,65.0,22.0,15.0,5.0,0.0
2669,68.0,0.0,15.0,3.0,0.0
2670,80.0,2.0,15.0,2.0,0.0
2671,66.0,1.0,15.0,3.0,0.0
2672,78.0,0.0,15.0,2.0,0.0
2673,63.0,2.0,15.0,5.0,0.0
2674,61.0,31.0,40.0,5.0,0.0
2675,68.0,3.0,90.0,6.0,0.0
2676,56.0,0.0,90.0,7.0,0.0
2677,44.0,0.0,90.0,8.0,0.0
2678,77.0,0.0,40.0,2.0,0.0
2679,56.0,0.0,90.0,0.0,0.0
2680,65.0,0.0,40.0,3.0,0.0
2681,63.0,0.0,30.0,3.0,0.0
2682,60.0,43.0,40.0,5.0,0.0
2683,75.0,7.0,30.0,2.0,0.0
2684,80.0,24.0,15.0,2.0,0.0
2685,80.0,24.0,15.0,2.0,0.0
2686,80.0,36.0,15.0,2.0,0.0
2687,77.0,24.0,20.0,2.0,0.0
2688,78.0,16.0,20.0,2.0,0.0
2689,80.0,22.0,15.0,2.0,0.0
2690,77.0,46.0,15.0,2.0,0.0
2691,73.0,19.0,40.0,2.0,0.0
2692,70.0,4.0,15.0,5.0,0.0
2693,73.0,1.0,15.0,3.0,0.0
2694,70.0,24.0,15.0,5.0,0.0
2695,73.0,1.0,15.0,3.0,0.0
2696,73.0,0.0,15.0,3.0,0.0
2697,70.0,35.0,15.0,5.0,0.0
2698,73.0,7.0,40.0,2.0,0.0
2699,70.0,17.0,20.0,3.0,0.0
2700,66.0,0.0,20.0,5.0,0.0
2701,68.0,0.0,20.0,5.0,0.0
2702,72.0,16.0,20.0,3.0,0.0
2703,73.0,22.0,15.0,3.0,0.0
2704,70.0,0.0,15.0,5.0,0.0
2705,66.0,1.0,15.0,5.0,0.0
2706,70.0,179.0,15.0,3.0,0.0
2707,56.0,0.0,180.0,7.0,0.0
2708,66.0,0.0,180.0,6.0,0.0
2709,54.0,1.0,180.0,0.0,0.0
2710,63.0,38.0,180.0,5.0,0.0
2711,82.0,6.0,180.0,2.0,0.0
2712,44.0,0.0,180.0,8.0,0.0
2713,72.0,0.0,180.0,3.0,0.0
2714,82.0,2.0,20.0,2.0,0.0
2715,73.0,1.0,20.0,3.0,0.0
2716,53.0,0.0,30.0,7.0,0.0
2717,68.0,0.0,20.0,5.0,0.0
2718,41.0,0.0,30.0,8.0,0.0
2719,53.0,13.0,30.0,0.0,0.0
2720,65.0,4.0,30.0,6.0,0.0
2721,80.0,28.0,20.0,2.0,0.0
2722,80.0,2.0,20.0,2.0,0.0
2723,70.0,0.0,20.0,5.0,0.0
2724,66.0,0.0,30.0,6.0,0.0
2725,42.0,4.0,30.0,8.0,0.0
2726,54.0,13.0,30.0,0.0,0.0
2727,54.0,0.0,30.0,7.0,0.0
2728,75.0,1.0,20.0,3.0,0.0
2729,78.0,28.0,20.0,2.0,0.0
2730,68.0,0.0,30.0,4.0,0.0
2731,56.0,13.0,30.0,0.0,0.0
2732,78.0,2.0,20.0,2.0,0.0
2733,73.0,1.0,20.0,3.0,0.0
2734,44.0,4.0,30.0,8.0,0.0
2735,56.0,0.0,30.0,7.0,0.0
2736,77.0,28.0,20.0,2.0,0.0
2737,72.0,0.0,20.0,3.0,0.0
2738,44.0,12.0,30.0,0.0,0.0
2739,32.0,0.0,30.0,8.0,0.0
2740,56.0,4.0,30.0,6.0,0.0
2741,68.0,1.0,20.0,5.0,0.0
2742,44.0,0.0,30.0,7.0,0.0
2743,77.0,2.0,20.0,2.0,0.0
2744,75.0,42.0,20.0,2.0,0.0
2745,68.0,24.0,15.0,2.0,0.0
2746,68.0,24.0,15.0,2.0,0.0
2747,68.0,36.0,15.0,2.0,0.0
2748,65.0,24.0,20.0,2.0,0.0
2749,66.0,16.0,20.0,2.0,0.0
2750,68.0,22.0,15.0,2.0,0.0
2751,65.0,43.0,15.0,2.0,0.0
2752,61.0,5.0,30.0,2.0,0.0
2753,61.0,0.0,15.0,3.0,0.0
2754,58.0,24.0,15.0,5.0,0.0
2755,61.0,23.0,15.0,3.0,0.0
2756,58.0,1.0,15.0,5.0,0.0
2757,58.0,2.0,15.0,5.0,0.0
2758,61.0,32.0,15.0,3.0,0.0
2759,54.0,0.0,20.0,5.0,0.0
2760,73.0,16.0,30.0,2.0,0.0
2761,58.0,8.0,20.0,3.0,0.0
2762,60.0,18.0,20.0,3.0,0.0
2763,56.0,0.0,20.0,5.0,0.0
2764,58.0,0.0,20.0,5.0,0.0
2765,61.0,20.0,20.0,3.0,0.0
2766,58.0,183.0,20.0,3.0,0.0
2767,54.0,4.0,15.0,5.0,0.0
2768,69.0,7.0,180.0,2.0,0.0
2769,51.0,0.0,180.0,5.0,0.0
2770,54.0,0.0,180.0,6.0,0.0
2771,42.0,37.0,180.0,7.0,0.0
2772,30.0,0.0,180.0,8.0,0.0
2773,42.0,0.0,180.0,0.0,0.0
2774,60.0,8.0,180.0,3.0,0.0
2775,40.0,2.0,180.0,0.0,0.0
2776,40.0,0.0,180.0,7.0,0.0
2777,52.0,0.0,180.0,6.0,0.0
2778,56.0,12.0,180.0,5.0,0.0
2779,28.0,0.0,180.0,8.0,0.0
2780,61.0,26.0,210.0,3.0,0.0
2781,68.0,24.0,15.0,2.0,0.0
2782,68.0,24.0,15.0,2.0,0.0
2783,68.0,35.0,15.0,2.0,0.0
2784,73.0,24.0,20.0,2.0,0.0
2785,75.0,22.0,20.0,2.0,0.0
2786,76.0,19.0,20.0,2.0,0.0
2787,68.0,5.0,20.0,2.0,0.0
2788,39.0,0.0,180.0,0.0,0.0
2789,39.0,0.0,180.0,7.0,0.0
2790,27.0,38.0,180.0,8.0,0.0
2791,68.0,24.0,90.0,2.0,0.0
2792,58.0,0.0,180.0,5.0,0.0
2793,51.0,2.0,390.0,6.0,0.0
2794,61.0,24.0,15.0,3.0,0.0
2795,61.0,24.0,15.0,3.0,0.0
2796,61.0,10.0,15.0,3.0,0.0
2797,67.0,9.0,90.0,2.0,0.0
2798,70.0,24.0,20.0,3.0,0.0
2799,72.0,21.0,20.0,3.0,0.0
2800,73.0,13.0,20.0,3.0,0.0
2801,61.0,5.0,20.0,3.0,0.0
2802,44.0,0.0,180.0,0.0,0.0
2803,44.0,0.0,180.0,7.0,0.0
2804,56.0,24.0,180.0,5.0,0.0
2805,61.0,29.0,90.0,3.0,0.0
2806,32.0,0.0,180.0,8.0,0.0
2807,66.0,24.0,15.0,2.0,0.0
2808,66.0,24.0,15.0,2.0,0.0
2809,66.0,5.0,15.0,2.0,0.0
2810,75.0,24.0,20.0,2.0,0.0
2811,60.0,24.0,120.0,3.0,0.0
2812,77.0,20.0,20.0,2.0,0.0
2813,78.0,21.0,20.0,2.0,0.0
2814,66.0,5.0,20.0,2.0,0.0
2815,46.0,0.0,180.0,0.0,0.0
2816,46.0,24.0,180.0,7.0,0.0
2817,49.0,0.0,180.0,6.0,0.0
2818,34.0,0.0,180.0,8.0,0.0
2819,58.0,4.0,180.0,5.0,0.0
2820,66.0,24.0,90.0,2.0,0.0
2821,63.0,24.0,20.0,3.0,0.0
2822,61.0,24.0,20.0,3.0,0.0
2823,60.0,0.0,20.0,3.0,0.0
2824,65.0,24.0,120.0,2.0,0.0
2825,61.0,24.0,20.0,3.0,0.0
2826,60.0,24.0,20.0,3.0,0.0
2827,58.0,17.0,20.0,3.0,0.0
2828,57.0,3.0,20.0,3.0,0.0
2829,58.0,3.0,180.0,3.0,0.0
2830,42.0,0.0,180.0,0.0,0.0
2831,54.0,8.0,180.0,5.0,0.0
2832,30.0,0.0,180.0,8.0,0.0
2833,42.0,3.0,180.0,7.0,0.0
2834,51.0,0.0,180.0,6.0,0.0
2835,62.0,24.0,20.0,2.0,0.0
2836,63.0,24.0,20.0,2.0,0.0
2837,65.0,24.0,20.0,2.0,0.0
2838,68.0,24.0,20.0,2.0,0.0
2839,66.0,24.0,20.0,2.0,0.0
2840,65.0,6.0,20.0,2.0,0.0
2841,63.0,28.0,20.0,2.0,0.0
2842,60.0,0.0,20.0,3.0,0.0
2843,70.0,0.0,20.0,2.0,0.0
2844,56.0,9.0,30.0,6.0,0.0
2845,44.0,2.0,40.0,0.0,0.0
2846,32.0,0.0,30.0,8.0,0.0
2847,54.0,6.0,20.0,5.0,0.0
2848,44.0,0.0,30.0,7.0,0.0
2849,68.0,0.0,20.0,2.0,0.0
2850,53.0,1.0,15.0,5.0,0.0
2851,61.0,36.0,20.0,3.0,0.0
2852,44.0,0.0,30.0,7.0,0.0
2853,61.0,0.0,90.0,3.0,0.0
2854,68.0,21.0,90.0,2.0,0.0
2855,32.0,7.0,30.0,8.0,0.0
2856,53.0,3.0,90.0,5.0,0.0
2857,44.0,41.0,40.0,0.0,0.0
2858,56.0,0.0,30.0,6.0,0.0
2859,44.0,2.0,40.0,0.0,0.0
2860,44.0,0.0,30.0,7.0,0.0
2861,56.0,0.0,30.0,6.0,0.0
2862,32.0,4.0,30.0,8.0,0.0
2863,60.0,18.0,15.0,3.0,0.0
2864,32.0,0.0,30.0,8.0,0.0
2865,66.0,0.0,15.0,2.0,0.0
2866,56.0,6.0,30.0,6.0,0.0
2867,44.0,0.0,30.0,7.0,0.0
2868,44.0,35.0,40.0,0.0,0.0
2869,51.0,0.0,15.0,5.0,0.0
2870,61.0,0.0,15.0,3.0,0.0
2871,65.0,1.0,15.0,2.0,0.0
2872,49.0,0.0,15.0,5.0,0.0
2873,65.0,5.0,20.0,2.0,0.0
2874,56.0,0.0,30.0,6.0,0.0
2875,44.0,4.0,30.0,7.0,0.0
2876,54.0,3.0,30.0,5.0,0.0
2877,44.0,6.0,40.0,0.0,0.0
2878,58.0,1.0,30.0,3.0,0.0
2879,32.0,0.0,30.0,8.0,0.0
2880,63.0,35.0,20.0,2.0,0.0
2881,56.0,0.0,30.0,6.0,0.0
2882,56.0,37.0,90.0,3.0,0.0
2883,44.0,41.0,40.0,0.0,0.0
2884,44.0,0.0,30.0,7.0,0.0
2885,53.0,0.0,90.0,5.0,0.0
2886,32.0,7.0,30.0,8.0,0.0
2887,61.0,0.0,90.0,2.0,0.0
2888,44.0,4.0,40.0,0.0,0.0
2889,44.0,0.0,30.0,7.0,0.0
2890,56.0,7.0,30.0,6.0,0.0
2891,32.0,0.0,30.0,8.0,0.0
2892,51.0,33.0,40.0,5.0,0.0
2893,54.0,1.0,40.0,3.0,0.0
2894,60.0,1.0,40.0,2.0,0.0
2895,56.0,0.0,30.0,6.0,0.0
2896,44.0,5.0,30.0,7.0,0.0
2897,32.0,0.0,30.0,8.0,0.0
2898,44.0,2.0,40.0,0.0,0.0
2899,56.0,9.0,30.0,6.0,0.0
2900,44.0,2.0,40.0,0.0,0.0
2901,44.0,0.0,30.0,7.0,0.0
2902,32.0,0.0,30.0,8.0,0.0
2903,66.0,0.0,20.0,5.0,0.0
2904,82.0,6.0,20.0,2.0,0.0
2905,72.0,0.0,20.0,3.0,0.0
2906,73.0,0.0,20.0,3.0,0.0
2907,65.0,1.0,15.0,5.0,0.0
2908,80.0,36.0,20.0,2.0,0.0
2909,56.0,7.0,30.0,7.0,0.0
2910,73.0,3.0,90.0,3.0,0.0
2911,44.0,0.0,30.0,8.0,0.0
2912,65.0,0.0,90.0,5.0,0.0
2913,68.0,0.0,30.0,6.0,0.0
2914,56.0,41.0,40.0,0.0,0.0
2915,80.0,21.0,90.0,2.0,0.0
2916,56.0,2.0,40.0,0.0,0.0
2917,44.0,0.0,30.0,8.0,0.0
2918,56.0,0.0,30.0,7.0,0.0
2919,68.0,4.0,30.0,6.0,0.0
2920,78.0,0.0,15.0,2.0,0.0
2921,56.0,0.0,30.0,7.0,0.0
2922,44.0,0.0,30.0,8.0,0.0
2923,72.0,0.0,15.0,3.0,0.0
2924,56.0,35.0,40.0,0.0,0.0
2925,63.0,18.0,15.0,5.0,0.0
2926,68.0,6.0,30.0,6.0,0.0
2927,73.0,0.0,15.0,3.0,0.0
2928,61.0,0.0,15.0,5.0,0.0
2929,77.0,1.0,15.0,2.0,0.0
2930,66.0,1.0,30.0,5.0,0.0
2931,70.0,1.0,30.0,3.0,0.0
2932,56.0,0.0,30.0,7.0,0.0
2933,44.0,0.0,30.0,8.0,0.0
2934,68.0,7.0,30.0,6.0,0.0
2935,77.0,4.0,20.0,2.0,0.0
2936,56.0,7.0,40.0,0.0,0.0
2937,75.0,34.0,20.0,2.0,0.0
2938,44.0,0.0,30.0,8.0,0.0
2939,65.0,0.0,90.0,5.0,0.0
2940,68.0,0.0,30.0,6.0,0.0
2941,68.0,37.0,90.0,3.0,0.0
2942,73.0,0.0,90.0,2.0,0.0
2943,56.0,7.0,30.0,7.0,0.0
2944,56.0,41.0,40.0,0.0,0.0
2945,44.0,0.0,30.0,8.0,0.0
2946,56.0,4.0,40.0,0.0,0.0
2947,68.0,7.0,30.0,6.0,0.0
2948,56.0,0.0,30.0,7.0,0.0
2949,66.0,4.0,30.0,3.0,0.0
2950,72.0,22.0,40.0,2.0,0.0
2951,56.0,0.0,40.0,0.0,0.0
2952,56.0,0.0,30.0,7.0,0.0
2953,63.0,1.0,40.0,5.0,0.0
2954,68.0,0.0,30.0,6.0,0.0
2955,44.0,2.0,30.0,8.0,0.0
2956,49.0,0.0,90.0,0.0,0.0
2957,73.0,24.0,15.0,2.0,0.0
2958,49.0,0.0,90.0,7.0,0.0
2959,61.0,1.0,90.0,5.0,0.0
2960,68.0,0.0,90.0,6.0,0.0
2961,65.0,0.0,90.0,3.0,0.0
2962,37.0,0.0,90.0,8.0,0.0
2963,68.0,24.0,15.0,2.0,0.0
2964,70.0,23.0,15.0,2.0,0.0
2965,72.0,24.0,15.0,2.0,0.0
2966,73.0,24.0,15.0,2.0,0.0
2967,75.0,24.0,15.0,2.0,0.0
2968,77.0,24.0,15.0,2.0,0.0
2969,78.0,32.0,15.0,2.0,0.0
2970,80.0,48.0,20.0,2.0,0.0
2971,81.0,48.0,20.0,2.0,0.0
2972,82.0,48.0,20.0,2.0,0.0
2973,63.0,27.0,30.0,5.0,0.0
2974,56.0,0.0,30.0,7.0,0.0
2975,72.0,13.0,20.0,2.0,0.0
2976,56.0,0.0,30.0,0.0,0.0
2977,44.0,0.0,30.0,8.0,0.0
2978,66.0,0.0,30.0,3.0,0.0
2979,56.0,0.0,30.0,6.0,0.0
2980,61.0,4.0,90.0,5.0,0.0
2981,49.0,0.0,90.0,7.0,0.0
2982,56.0,0.0,90.0,6.0,0.0
2983,65.0,0.0,90.0,3.0,0.0
2984,49.0,1.0,90.0,0.0,0.0
2985,37.0,0.0,90.0,8.0,0.0
2986,73.0,24.0,15.0,2.0,0.0
2987,56.0,24.0,15.0,2.0,0.0
2988,58.0,19.0,15.0,2.0,0.0
2989,60.0,24.0,15.0,2.0,0.0
2990,61.0,24.0,15.0,2.0,0.0
2991,63.0,24.0,15.0,2.0,0.0
2992,65.0,24.0,15.0,2.0,0.0
2993,66.0,32.0,15.0,2.0,0.0
2994,68.0,48.0,20.0,2.0,0.0
2995,69.0,48.0,20.0,2.0,0.0
2996,70.0,48.0,20.0,2.0,0.0
2997,32.0,0.0,30.0,8.0,0.0
2998,56.0,46.0,40.0,3.0,0.0
2999,44.0,4.0,30.0,7.0,0.0
3000,60.0,13.0,20.0,2.0,0.0
3001,51.0,0.0,30.0,6.0,0.0
3002,44.0,0.0,30.0,0.0,0.0
3003,54.0,0.0,30.0,5.0,0.0
3004,25.0,0.0,90.0,8.0,0.0
3005,49.0,0.0,90.0,6.0,0.0
3006,53.0,0.0,90.0,5.0,0.0
3007,37.0,11.0,90.0,0.0,0.0
3008,37.0,4.0,90.0,7.0,0.0
3009,61.0,0.0,90.0,1.0,0.0
3010,61.0,0.0,60.0,2.0,0.0
3011,63.0,7.0,15.0,3.0,0.0
3012,61.0,7.0,15.0,3.0,0.0
3013,60.0,24.0,15.0,3.0,0.0
3014,61.0,6.0,20.0,3.0,0.0
3015,63.0,33.0,20.0,3.0,0.0
3016,65.0,4.0,30.0,3.0,0.0
3017,66.0,7.0,15.0,3.0,0.0
3018,65.0,7.0,15.0,3.0,0.0
3019,63.0,24.0,15.0,3.0,0.0
3020,65.0,19.0,20.0,3.0,0.0
3021,66.0,29.0,20.0,3.0,0.0
3022,68.0,47.0,20.0,3.0,0.0
3023,68.0,48.0,20.0,3.0,0.0
3024,68.0,50.0,20.0,3.0,0.0
3025,68.0,119.0,30.0,3.0,0.0
3026,42.0,0.0,180.0,8.0,0.0
3027,49.0,0.0,180.0,6.0,0.0
3028,70.0,96.0,90.0,3.0,0.0
3029,58.0,45.0,180.0,5.0,0.0
3030,54.0,0.0,180.0,7.0,0.0
3031,54.0,0.0,180.0,0.0,0.0
3032,73.0,0.0,90.0,3.0,0.0
3033,68.0,141.0,40.0,3.0,0.0
3034,56.0,0.0,40.0,6.0,0.0
3035,53.0,0.0,40.0,0.0,0.0
3036,61.0,0.0,40.0,5.0,0.0
3037,53.0,0.0,40.0,7.0,0.0
3038,41.0,0.0,40.0,8.0,0.0
3039,56.0,2.0,20.0,3.0,0.0
3040,68.0,34.0,20.0,2.0,0.0
3041,61.0,4.0,30.0,3.0,0.0
3042,73.0,0.0,30.0,2.0,0.0
3043,75.0,2.0,15.0,2.0,0.0
3044,63.0,5.0,15.0,3.0,0.0
3045,73.0,1.0,15.0,2.0,0.0
3046,61.0,6.0,15.0,3.0,0.0
3047,72.0,24.0,15.0,2.0,0.0
3048,60.0,0.0,15.0,3.0,0.0
3049,61.0,20.0,20.0,3.0,0.0
3050,73.0,0.0,20.0,2.0,0.0
3051,63.0,1.0,20.0,3.0,0.0
3052,75.0,33.0,20.0,2.0,0.0
3053,65.0,4.0,30.0,3.0,0.0
3054,77.0,0.0,30.0,2.0,0.0
3055,78.0,2.0,15.0,2.0,0.0
3056,66.0,5.0,15.0,3.0,0.0
3057,77.0,1.0,15.0,2.0,0.0
3058,65.0,6.0,15.0,3.0,0.0
3059,75.0,0.0,15.0,2.0,0.0
3060,63.0,24.0,15.0,3.0,0.0
3061,77.0,20.0,20.0,2.0,0.0
3062,65.0,0.0,20.0,3.0,0.0
3063,78.0,0.0,20.0,2.0,0.0
3064,66.0,28.0,20.0,3.0,0.0
3065,80.0,47.0,30.0,2.0,0.0
3066,68.0,1.0,20.0,3.0,0.0
3067,80.0,48.0,20.0,2.0,0.0
3068,68.0,0.0,20.0,3.0,0.0
3069,80.0,0.0,20.0,2.0,0.0
3070,68.0,48.0,20.0,3.0,0.0
3071,80.0,119.0,30.0,2.0,0.0
3072,68.0,1.0,20.0,3.0,0.0
3073,66.0,86.0,90.0,3.0,0.0
3074,78.0,0.0,90.0,2.0,0.0
3075,75.0,0.0,90.0,2.0,0.0
3076,63.0,0.0,90.0,3.0,0.0
3077,32.0,0.0,90.0,8.0,0.0
3078,54.0,0.0,90.0,6.0,0.0
3079,60.0,45.0,90.0,5.0,0.0
3080,44.0,0.0,150.0,1.0,0.0
3081,56.0,0.0,150.0,5.0,0.0
3082,44.0,10.0,90.0,0.0,0.0
3083,37.0,0.0,40.0,8.0,0.0
3084,49.0,2.0,40.0,7.0,0.0
3085,53.0,0.0,40.0,6.0,0.0
3086,61.0,0.0,40.0,5.0,0.0
3087,61.0,337.0,40.0,3.0,0.0
3088,49.0,0.0,40.0,0.0,0.0
3089,73.0,0.0,40.0,2.0,0.0
