,note,step,duration,channel,velocity
0,73.0,0.0,240.0,5.0,0.0
1,64.0,0.0,240.0,6.0,0.0
2,57.0,480.0,240.0,8.0,0.0
3,61.0,0.0,240.0,7.0,0.0
4,45.0,0.0,240.0,10.0,0.0
5,45.0,480.0,240.0,10.0,0.0
6,73.0,0.0,240.0,5.0,0.0
7,64.0,0.0,240.0,6.0,0.0
8,57.0,0.0,240.0,8.0,0.0
9,61.0,0.0,240.0,7.0,0.0
10,73.0,0.0,240.0,5.0,0.0
11,57.0,0.0,240.0,8.0,0.0
12,61.0,1109.0,240.0,7.0,0.0
13,45.0,0.0,240.0,10.0,0.0
14,64.0,0.0,240.0,6.0,0.0
15,56.0,120.0,870.0,7.0,0.0
16,62.0,5.0,1020.0,6.0,0.0
17,52.0,176.0,1020.0,8.0,0.0
18,64.0,284.0,1200.0,7.0,0.0
19,71.0,15.0,870.0,5.0,0.0
20,40.0,0.0,1020.0,10.0,0.0
21,59.0,10.0,180.0,7.0,0.0
22,68.0,5.0,150.0,5.0,0.0
23,45.0,0.0,240.0,8.0,0.0
24,61.0,0.0,240.0,6.0,0.0
25,57.0,0.0,240.0,7.0,0.0
26,52.0,0.0,240.0,7.0,0.0
27,33.0,0.0,240.0,10.0,0.0
28,69.0,0.0,240.0,5.0,0.0
29,69.0,0.0,40.0,6.0,0.0
30,73.0,120.0,40.0,5.0,0.0
31,71.0,0.0,40.0,6.0,0.0
32,74.0,120.0,40.0,5.0,0.0
33,76.0,0.0,40.0,5.0,0.0
34,73.0,120.0,40.0,6.0,0.0
35,78.0,0.0,40.0,5.0,0.0
36,74.0,120.0,40.0,6.0,0.0
37,73.0,0.0,40.0,6.0,0.0
38,76.0,120.0,40.0,5.0,0.0
39,74.0,0.0,40.0,6.0,0.0
40,78.0,120.0,40.0,5.0,0.0
41,71.0,120.0,40.0,6.0,0.0
42,80.0,0.0,40.0,5.0,0.0
43,81.0,120.0,40.0,5.0,0.0
44,73.0,0.0,40.0,6.0,0.0
45,71.0,120.0,40.0,6.0,0.0
46,80.0,0.0,40.0,5.0,0.0
47,81.0,0.0,40.0,5.0,0.0
48,73.0,120.0,40.0,6.0,0.0
49,80.0,0.0,40.0,5.0,0.0
50,71.0,120.0,40.0,6.0,0.0
51,81.0,0.0,40.0,5.0,0.0
52,73.0,935.0,40.0,6.0,0.0
53,66.0,10.0,870.0,6.0,0.0
54,57.0,0.0,1200.0,7.0,0.0
55,69.0,0.0,1200.0,7.0,0.0
56,74.0,50.0,870.0,5.0,0.0
57,45.0,186.0,540.0,10.0,0.0
58,57.0,0.0,540.0,8.0,0.0
59,64.0,21.0,90.0,6.0,0.0
60,76.0,20.0,90.0,5.0,0.0
61,78.0,39.0,60.0,5.0,0.0
62,62.0,15.0,90.0,6.0,0.0
63,61.0,0.0,240.0,6.0,0.0
64,76.0,0.0,240.0,5.0,0.0
65,33.0,0.0,240.0,10.0,0.0
66,45.0,720.0,240.0,8.0,0.0
67,73.0,125.0,750.0,5.0,0.0
68,64.0,274.0,480.0,7.0,0.0
69,57.0,49.0,960.0,7.0,0.0
70,69.0,74.0,1920.0,6.0,0.0
71,66.0,0.0,540.0,8.0,0.0
72,54.0,108.0,540.0,10.0,0.0
73,66.0,0.0,960.0,7.0,0.0
74,74.0,60.0,150.0,5.0,0.0
75,76.0,21.0,90.0,5.0,0.0
76,50.0,0.0,480.0,10.0,0.0
77,59.0,289.0,480.0,7.0,0.0
78,62.0,0.0,480.0,8.0,0.0
79,80.0,120.0,150.0,5.0,0.0
80,78.0,120.0,150.0,5.0,0.0
81,76.0,62.0,150.0,5.0,0.0
82,74.0,21.0,90.0,5.0,0.0
83,64.0,0.0,1440.0,7.0,0.0
84,52.0,145.0,540.0,7.0,0.0
85,73.0,191.0,300.0,5.0,0.0
86,71.0,170.0,450.0,5.0,0.0
87,52.0,0.0,540.0,10.0,0.0
88,64.0,10.0,540.0,8.0,0.0
89,68.0,184.0,1440.0,6.0,0.0
90,59.0,78.0,570.0,7.0,0.0
91,73.0,70.0,150.0,5.0,0.0
92,74.0,90.0,90.0,5.0,0.0
93,57.0,0.0,480.0,7.0,0.0
94,49.0,0.0,480.0,10.0,0.0
95,78.0,120.0,150.0,5.0,0.0
96,61.0,284.0,480.0,8.0,0.0
97,76.0,120.0,150.0,5.0,0.0
98,74.0,52.0,150.0,5.0,0.0
99,73.0,31.0,90.0,5.0,0.0
100,62.0,394.0,1440.0,7.0,0.0
101,71.0,196.0,270.0,5.0,0.0
102,69.0,95.0,420.0,5.0,0.0
103,59.0,55.0,480.0,7.0,0.0
104,62.0,88.0,540.0,8.0,0.0
105,66.0,120.0,270.0,6.0,0.0
106,50.0,0.0,540.0,10.0,0.0
107,68.0,0.0,150.0,6.0,0.0
108,71.0,45.0,150.0,5.0,0.0
109,69.0,35.0,90.0,6.0,0.0
110,73.0,15.0,90.0,5.0,0.0
111,71.0,120.0,150.0,6.0,0.0
112,66.0,0.0,480.0,7.0,0.0
113,59.0,20.0,420.0,8.0,0.0
114,47.0,0.0,420.0,10.0,0.0
115,74.0,0.0,150.0,5.0,0.0
116,76.0,0.0,150.0,5.0,0.0
117,73.0,120.0,150.0,6.0,0.0
118,78.0,32.0,150.0,5.0,0.0
119,74.0,0.0,150.0,6.0,0.0
120,71.0,10.0,90.0,6.0,0.0
121,74.0,21.0,90.0,5.0,0.0
122,64.0,0.0,960.0,8.0,0.0
123,52.0,0.0,1440.0,7.0,0.0
124,52.0,74.0,960.0,10.0,0.0
125,69.0,416.0,540.0,6.0,0.0
126,73.0,55.0,390.0,5.0,0.0
127,71.0,95.0,90.0,5.0,0.0
128,68.0,220.0,540.0,6.0,0.0
129,71.0,140.0,780.0,5.0,0.0
130,45.0,0.0,480.0,10.0,0.0
131,67.0,31.0,450.0,6.0,0.0
132,57.0,0.0,480.0,7.0,0.0
133,57.0,389.0,480.0,8.0,0.0
134,73.0,15.0,180.0,5.0,0.0
135,50.0,0.0,540.0,10.0,0.0
136,66.0,55.0,390.0,6.0,0.0
137,54.0,380.0,540.0,7.0,0.0
138,62.0,10.0,540.0,8.0,0.0
139,74.0,5.0,390.0,5.0,0.0
140,57.0,195.0,1050.0,7.0,0.0
141,64.0,11.0,90.0,6.0,0.0
142,76.0,10.0,90.0,5.0,0.0
143,62.0,0.0,60.0,6.0,0.0
144,78.0,59.0,60.0,5.0,0.0
145,61.0,5.0,510.0,6.0,0.0
146,52.0,20.0,930.0,7.0,0.0
147,64.0,85.0,450.0,8.0,0.0
148,52.0,0.0,450.0,10.0,0.0
149,69.0,40.0,540.0,5.0,0.0
150,73.0,150.0,300.0,5.0,0.0
151,40.0,204.0,480.0,10.0,0.0
152,64.0,5.0,270.0,6.0,0.0
153,52.0,0.0,480.0,8.0,0.0
154,56.0,5.0,450.0,7.0,0.0
155,71.0,16.0,210.0,5.0,0.0
156,62.0,0.0,210.0,6.0,0.0
157,57.0,0.0,480.0,7.0,0.0
158,45.0,159.0,480.0,10.0,0.0
159,57.0,0.0,480.0,8.0,0.0
160,69.0,195.0,210.0,5.0,0.0
161,52.0,0.0,480.0,7.0,0.0
162,61.0,0.0,480.0,6.0,0.0
163,81.0,50.0,150.0,5.0,0.0
164,80.0,31.0,90.0,5.0,0.0
165,80.0,50.0,150.0,5.0,0.0
166,78.0,195.0,90.0,5.0,0.0
167,78.0,45.0,150.0,5.0,0.0
168,76.0,200.0,90.0,5.0,0.0
169,76.0,100.0,180.0,5.0,0.0
170,75.0,135.0,150.0,5.0,0.0
171,78.0,60.0,150.0,5.0,0.0
172,76.0,405.0,90.0,5.0,0.0
173,62.0,0.0,480.0,7.0,0.0
174,54.0,59.0,480.0,7.0,0.0
175,69.0,215.0,1020.0,6.0,0.0
176,57.0,10.0,540.0,7.0,0.0
177,74.0,70.0,390.0,5.0,0.0
178,42.0,360.0,540.0,10.0,0.0
179,54.0,0.0,540.0,8.0,0.0
180,76.0,11.0,90.0,5.0,0.0
181,78.0,10.0,60.0,5.0,0.0
182,61.0,10.0,540.0,7.0,0.0
183,64.0,0.0,1440.0,7.0,0.0
184,52.0,0.0,1440.0,7.0,0.0
185,40.0,100.0,420.0,10.0,0.0
186,69.0,10.0,540.0,5.0,0.0
187,68.0,31.0,450.0,6.0,0.0
188,40.0,209.0,480.0,10.0,0.0
189,62.0,5.0,450.0,7.0,0.0
190,73.0,155.0,270.0,5.0,0.0
191,71.0,5.0,210.0,5.0,0.0
192,69.0,271.0,210.0,5.0,0.0
193,45.0,0.0,480.0,8.0,0.0
194,33.0,49.0,480.0,10.0,0.0
195,61.0,0.0,480.0,7.0,0.0
196,61.0,0.0,300.0,6.0,0.0
197,64.0,225.0,300.0,5.0,0.0
198,66.0,15.0,270.0,5.0,0.0
199,62.0,240.0,300.0,6.0,0.0
200,52.0,5.0,300.0,7.0,0.0
201,64.0,10.0,300.0,6.0,0.0
202,56.0,0.0,300.0,7.0,0.0
203,68.0,220.0,300.0,5.0,0.0
204,69.0,15.0,300.0,5.0,0.0
205,54.0,5.0,300.0,7.0,0.0
206,66.0,5.0,270.0,6.0,0.0
207,57.0,125.0,300.0,7.0,0.0
208,68.0,5.0,210.0,6.0,0.0
209,56.0,10.0,210.0,7.0,0.0
210,71.0,15.0,180.0,5.0,0.0
211,59.0,75.0,210.0,7.0,0.0
212,45.0,101.0,150.0,4.0,0.0
213,57.0,35.0,240.0,4.0,0.0
214,61.0,15.0,240.0,4.0,0.0
215,64.0,10.0,240.0,4.0,0.0
216,69.0,20.0,240.0,4.0,0.0
217,69.0,134.0,480.0,6.0,0.0
218,61.0,0.0,480.0,7.0,0.0
219,57.0,0.0,480.0,7.0,0.0
220,85.0,0.0,240.0,3.0,0.0
221,73.0,240.0,240.0,4.0,0.0
222,73.0,0.0,480.0,5.0,0.0
223,45.0,41.0,210.0,4.0,0.0
224,57.0,15.0,240.0,4.0,0.0
225,61.0,20.0,240.0,4.0,0.0
226,64.0,13.0,240.0,4.0,0.0
227,69.0,17.0,240.0,4.0,0.0
228,85.0,400.0,240.0,3.0,0.0
229,73.0,0.0,240.0,4.0,0.0
230,45.0,6.0,300.0,4.0,0.0
231,57.0,19.0,240.0,4.0,0.0
232,61.0,15.0,240.0,4.0,0.0
233,64.0,20.0,240.0,4.0,0.0
234,69.0,20.0,240.0,4.0,0.0
235,73.0,0.0,240.0,4.0,0.0
236,85.0,480.0,240.0,3.0,0.0
237,40.0,600.0,330.0,4.0,0.0
238,62.0,0.0,330.0,4.0,0.0
239,44.0,0.0,300.0,4.0,0.0
240,64.0,0.0,300.0,4.0,0.0
241,47.0,0.0,300.0,4.0,0.0
242,68.0,0.0,270.0,4.0,0.0
243,50.0,0.0,270.0,4.0,0.0
244,52.0,240.0,960.0,4.0,0.0
245,71.0,39.0,840.0,4.0,0.0
246,83.0,81.0,870.0,3.0,0.0
247,68.0,0.0,120.0,4.0,0.0
248,80.0,0.0,120.0,3.0,0.0
249,69.0,0.0,240.0,4.0,0.0
250,45.0,360.0,240.0,4.0,0.0
251,61.0,0.0,240.0,4.0,0.0
252,81.0,0.0,240.0,3.0,0.0
253,81.0,0.0,1440.0,3.0,0.0
254,69.0,120.0,120.0,4.0,0.0
255,73.0,0.0,120.0,4.0,0.0
256,74.0,0.0,120.0,4.0,0.0
257,71.0,120.0,120.0,4.0,0.0
258,73.0,120.0,120.0,4.0,0.0
259,76.0,0.0,120.0,4.0,0.0
260,74.0,120.0,120.0,4.0,0.0
261,78.0,0.0,120.0,4.0,0.0
262,73.0,120.0,120.0,4.0,0.0
263,76.0,0.0,120.0,4.0,0.0
264,74.0,120.0,120.0,4.0,0.0
265,78.0,0.0,120.0,4.0,0.0
266,71.0,120.0,120.0,4.0,0.0
267,80.0,0.0,120.0,4.0,0.0
268,73.0,0.0,120.0,4.0,0.0
269,81.0,120.0,120.0,4.0,0.0
270,71.0,120.0,120.0,4.0,0.0
271,80.0,0.0,120.0,4.0,0.0
272,73.0,120.0,120.0,4.0,0.0
273,81.0,0.0,120.0,4.0,0.0
274,71.0,120.0,120.0,4.0,0.0
275,80.0,0.0,120.0,4.0,0.0
276,81.0,240.0,120.0,4.0,0.0
277,73.0,0.0,120.0,4.0,0.0
278,69.0,240.0,480.0,4.0,0.0
279,74.0,24.0,840.0,4.0,0.0
280,57.0,0.0,240.0,4.0,0.0
281,66.0,240.0,240.0,4.0,0.0
282,86.0,36.0,870.0,3.0,0.0
283,57.0,0.0,240.0,4.0,0.0
284,62.0,120.0,240.0,4.0,0.0
285,76.0,34.0,60.0,4.0,0.0
286,88.0,26.0,90.0,3.0,0.0
287,78.0,29.0,60.0,4.0,0.0
288,90.0,211.0,90.0,3.0,0.0
289,76.0,0.0,240.0,4.0,0.0
290,57.0,0.0,240.0,4.0,0.0
291,61.0,0.0,240.0,4.0,0.0
292,88.0,300.0,240.0,3.0,0.0
293,57.0,0.0,480.0,7.0,0.0
294,64.0,0.0,480.0,7.0,0.0
295,85.0,10.0,750.0,3.0,0.0
296,69.0,0.0,1920.0,6.0,0.0
297,73.0,26.0,750.0,5.0,0.0
298,45.0,60.0,60.0,4.0,0.0
299,57.0,60.0,60.0,4.0,0.0
300,61.0,60.0,60.0,4.0,0.0
301,64.0,60.0,60.0,4.0,0.0
302,69.0,60.0,60.0,4.0,0.0
303,73.0,60.0,60.0,4.0,0.0
304,69.0,60.0,60.0,4.0,0.0
305,64.0,60.0,60.0,4.0,0.0
306,66.0,0.0,960.0,7.0,0.0
307,42.0,60.0,60.0,4.0,0.0
308,54.0,0.0,480.0,7.0,0.0
309,54.0,60.0,60.0,4.0,0.0
310,61.0,60.0,60.0,4.0,0.0
311,66.0,24.0,60.0,4.0,0.0
312,86.0,12.0,150.0,3.0,0.0
313,69.0,60.0,60.0,4.0,0.0
314,74.0,18.0,150.0,5.0,0.0
315,73.0,30.0,60.0,4.0,0.0
316,69.0,60.0,60.0,4.0,0.0
317,88.0,7.0,150.0,3.0,0.0
318,76.0,23.0,150.0,5.0,0.0
319,64.0,30.0,60.0,4.0,0.0
320,92.0,7.0,150.0,3.0,0.0
321,80.0,23.0,150.0,5.0,0.0
322,62.0,0.0,480.0,7.0,0.0
323,50.0,60.0,60.0,4.0,0.0
324,62.0,30.0,60.0,4.0,0.0
325,90.0,7.0,150.0,3.0,0.0
326,78.0,23.0,150.0,5.0,0.0
327,68.0,60.0,60.0,4.0,0.0
328,69.0,30.0,60.0,4.0,0.0
329,76.0,23.0,150.0,5.0,0.0
330,71.0,60.0,60.0,4.0,0.0
331,88.0,7.0,150.0,3.0,0.0
332,78.0,30.0,60.0,4.0,0.0
333,74.0,26.0,90.0,5.0,0.0
334,71.0,29.0,60.0,4.0,0.0
335,86.0,5.0,90.0,3.0,0.0
336,69.0,60.0,60.0,4.0,0.0
337,64.0,0.0,480.0,7.0,0.0
338,40.0,60.0,60.0,4.0,0.0
339,73.0,5.0,270.0,5.0,0.0
340,85.0,11.0,300.0,3.0,0.0
341,52.0,60.0,60.0,4.0,0.0
342,64.0,60.0,60.0,4.0,0.0
343,69.0,44.0,60.0,4.0,0.0
344,71.0,41.0,450.0,5.0,0.0
345,83.0,36.0,510.0,3.0,0.0
346,71.0,60.0,60.0,4.0,0.0
347,76.0,60.0,60.0,4.0,0.0
348,71.0,60.0,60.0,4.0,0.0
349,69.0,60.0,60.0,4.0,0.0
350,68.0,60.0,960.0,6.0,0.0
351,52.0,0.0,480.0,7.0,0.0
352,52.0,60.0,60.0,4.0,0.0
353,64.0,60.0,15.0,4.0,0.0
354,68.0,24.0,60.0,4.0,0.0
355,85.0,7.0,150.0,3.0,0.0
356,71.0,60.0,60.0,4.0,0.0
357,73.0,23.0,150.0,5.0,0.0
358,76.0,30.0,60.0,4.0,0.0
359,86.0,7.0,150.0,3.0,0.0
360,74.0,23.0,150.0,5.0,0.0
361,71.0,60.0,60.0,4.0,0.0
362,69.0,30.0,60.0,4.0,0.0
363,90.0,7.0,150.0,3.0,0.0
364,57.0,0.0,480.0,7.0,0.0
365,49.0,60.0,60.0,4.0,0.0
366,78.0,23.0,150.0,5.0,0.0
367,61.0,30.0,60.0,4.0,0.0
368,76.0,23.0,150.0,5.0,0.0
369,88.0,7.0,150.0,3.0,0.0
370,64.0,60.0,60.0,4.0,0.0
371,68.0,30.0,60.0,4.0,0.0
372,71.0,60.0,60.0,4.0,0.0
373,86.0,7.0,150.0,3.0,0.0
374,74.0,23.0,150.0,5.0,0.0
375,76.0,30.0,60.0,4.0,0.0
376,73.0,16.0,90.0,5.0,0.0
377,71.0,39.0,60.0,4.0,0.0
378,85.0,5.0,90.0,3.0,0.0
379,69.0,0.0,60.0,4.0,0.0
380,71.0,5.0,300.0,5.0,0.0
381,66.0,24.0,720.0,6.0,0.0
382,62.0,0.0,960.0,7.0,0.0
383,50.0,60.0,60.0,4.0,0.0
384,83.0,6.0,300.0,3.0,0.0
385,62.0,60.0,60.0,4.0,0.0
386,62.0,60.0,60.0,4.0,0.0
387,66.0,49.0,60.0,4.0,0.0
388,69.0,46.0,420.0,5.0,0.0
389,69.0,60.0,60.0,4.0,0.0
390,81.0,36.0,510.0,3.0,0.0
391,74.0,60.0,60.0,4.0,0.0
392,69.0,60.0,60.0,4.0,0.0
393,66.0,60.0,60.0,4.0,0.0
394,50.0,60.0,60.0,4.0,0.0
395,62.0,60.0,15.0,4.0,0.0
396,66.0,0.0,60.0,4.0,0.0
397,83.0,7.0,150.0,3.0,0.0
398,68.0,0.0,150.0,6.0,0.0
399,71.0,23.0,150.0,5.0,0.0
400,71.0,60.0,60.0,4.0,0.0
401,74.0,30.0,60.0,4.0,0.0
402,85.0,7.0,150.0,3.0,0.0
403,71.0,60.0,60.0,4.0,0.0
404,69.0,23.0,150.0,6.0,0.0
405,73.0,0.0,150.0,5.0,0.0
406,66.0,0.0,60.0,4.0,0.0
407,59.0,60.0,480.0,7.0,0.0
408,47.0,60.0,60.0,4.0,0.0
409,71.0,0.0,150.0,6.0,0.0
410,66.0,0.0,480.0,7.0,0.0
411,86.0,7.0,150.0,3.0,0.0
412,74.0,23.0,150.0,5.0,0.0
413,59.0,30.0,60.0,4.0,0.0
414,73.0,0.0,150.0,6.0,0.0
415,88.0,7.0,150.0,3.0,0.0
416,76.0,23.0,150.0,5.0,0.0
417,62.0,60.0,60.0,4.0,0.0
418,66.0,30.0,60.0,4.0,0.0
419,74.0,23.0,150.0,6.0,0.0
420,78.0,0.0,150.0,5.0,0.0
421,71.0,60.0,60.0,4.0,0.0
422,90.0,7.0,150.0,3.0,0.0
423,74.0,30.0,60.0,4.0,0.0
424,71.0,34.0,60.0,4.0,0.0
425,86.0,5.0,90.0,3.0,0.0
426,71.0,0.0,90.0,6.0,0.0
427,74.0,21.0,90.0,5.0,0.0
428,66.0,0.0,60.0,4.0,0.0
429,40.0,60.0,60.0,4.0,0.0
430,73.0,0.0,540.0,5.0,0.0
431,85.0,15.0,540.0,3.0,0.0
432,69.0,176.0,540.0,6.0,0.0
433,64.0,96.0,720.0,7.0,0.0
434,52.0,0.0,960.0,7.0,0.0
435,52.0,60.0,60.0,4.0,0.0
436,61.0,60.0,60.0,4.0,0.0
437,64.0,60.0,60.0,4.0,0.0
438,69.0,60.0,60.0,4.0,0.0
439,73.0,60.0,60.0,4.0,0.0
440,69.0,60.0,60.0,4.0,0.0
441,64.0,49.0,60.0,4.0,0.0
442,83.0,0.0,480.0,3.0,0.0
443,68.0,0.0,480.0,6.0,0.0
444,68.0,0.0,480.0,4.0,0.0
445,71.0,96.0,480.0,5.0,0.0
446,71.0,0.0,480.0,4.0,0.0
447,64.0,0.0,90.0,8.0,0.0
448,52.0,144.0,90.0,10.0,0.0
449,47.0,240.0,90.0,10.0,0.0
450,59.0,0.0,90.0,8.0,0.0
451,56.0,0.0,90.0,8.0,0.0
452,44.0,312.0,90.0,10.0,0.0
453,40.0,0.0,180.0,10.0,0.0
454,68.0,0.0,180.0,6.0,0.0
455,64.0,24.0,180.0,7.0,0.0
456,52.0,216.0,180.0,8.0,0.0
457,71.0,0.0,180.0,5.0,0.0
458,83.0,120.0,750.0,3.0,0.0
459,68.0,240.0,180.0,6.0,0.0
460,71.0,0.0,180.0,5.0,0.0
461,64.0,0.0,180.0,7.0,0.0
462,64.0,0.0,180.0,7.0,0.0
463,71.0,106.0,180.0,5.0,0.0
464,68.0,0.0,180.0,6.0,0.0
465,68.0,0.0,180.0,6.0,0.0
466,71.0,0.0,180.0,5.0,0.0
467,85.0,14.0,150.0,3.0,0.0
468,64.0,61.0,180.0,7.0,0.0
469,83.0,179.0,120.0,3.0,0.0
470,88.0,105.0,180.0,3.0,0.0
471,64.0,0.0,180.0,7.0,0.0
472,71.0,1.0,180.0,5.0,0.0
473,68.0,0.0,180.0,6.0,0.0
474,87.0,120.0,150.0,3.0,0.0
475,64.0,51.0,180.0,7.0,0.0
476,68.0,0.0,180.0,6.0,0.0
477,71.0,0.0,180.0,5.0,0.0
478,85.0,14.0,150.0,3.0,0.0
479,83.0,189.0,90.0,3.0,0.0
480,63.0,0.0,180.0,7.0,0.0
481,83.0,4.0,390.0,3.0,0.0
482,69.0,0.0,180.0,7.0,0.0
483,71.0,236.0,180.0,5.0,0.0
484,66.0,0.0,180.0,6.0,0.0
485,66.0,51.0,180.0,6.0,0.0
486,69.0,0.0,180.0,7.0,0.0
487,71.0,0.0,180.0,5.0,0.0
488,63.0,0.0,180.0,7.0,0.0
489,85.0,189.0,90.0,3.0,0.0
490,83.0,168.0,480.0,3.0,0.0
491,63.0,0.0,180.0,7.0,0.0
492,69.0,0.0,180.0,7.0,0.0
493,66.0,0.0,180.0,6.0,0.0
494,71.0,240.0,180.0,5.0,0.0
495,66.0,0.0,180.0,6.0,0.0
496,69.0,0.0,180.0,7.0,0.0
497,63.0,72.0,180.0,7.0,0.0
498,71.0,0.0,180.0,5.0,0.0
499,63.0,0.0,180.0,7.0,0.0
500,69.0,0.0,180.0,7.0,0.0
501,66.0,240.0,180.0,6.0,0.0
502,71.0,0.0,180.0,5.0,0.0
503,71.0,0.0,180.0,5.0,0.0
504,69.0,0.0,180.0,7.0,0.0
505,63.0,106.0,180.0,7.0,0.0
506,66.0,0.0,180.0,6.0,0.0
507,78.0,134.0,90.0,3.0,0.0
508,71.0,0.0,180.0,5.0,0.0
509,63.0,240.0,180.0,6.0,0.0
510,59.0,0.0,180.0,7.0,0.0
511,69.0,0.0,180.0,7.0,0.0
512,90.0,179.0,480.0,3.0,0.0
513,63.0,0.0,180.0,6.0,0.0
514,69.0,61.0,180.0,7.0,0.0
515,59.0,0.0,180.0,7.0,0.0
516,71.0,0.0,180.0,5.0,0.0
517,69.0,11.0,180.0,7.0,0.0
518,59.0,0.0,180.0,7.0,0.0
519,88.0,90.0,180.0,3.0,0.0
520,63.0,0.0,180.0,6.0,0.0
521,71.0,0.0,180.0,5.0,0.0
522,87.0,120.0,150.0,3.0,0.0
523,59.0,36.0,180.0,7.0,0.0
524,63.0,0.0,180.0,6.0,0.0
525,85.0,19.0,150.0,3.0,0.0
526,71.0,0.0,180.0,5.0,0.0
527,69.0,0.0,180.0,7.0,0.0
528,83.0,132.0,90.0,3.0,0.0
529,63.0,0.0,180.0,6.0,0.0
530,69.0,0.0,180.0,7.0,0.0
531,71.0,168.0,180.0,5.0,0.0
532,59.0,0.0,180.0,7.0,0.0
533,83.0,72.0,90.0,3.0,0.0
534,63.0,0.0,180.0,6.0,0.0
535,83.0,72.0,90.0,3.0,0.0
536,69.0,0.0,180.0,7.0,0.0
537,59.0,471.0,180.0,7.0,0.0
538,71.0,0.0,180.0,5.0,0.0
539,64.0,96.0,960.0,6.0,0.0
540,71.0,0.0,960.0,5.0,0.0
541,68.0,96.0,720.0,7.0,0.0
542,52.0,0.0,960.0,7.0,0.0
543,83.0,65.0,390.0,3.0,0.0
544,80.0,256.0,90.0,3.0,0.0
545,83.0,0.0,480.0,3.0,0.0
546,52.0,144.0,90.0,10.0,0.0
547,64.0,0.0,90.0,8.0,0.0
548,59.0,240.0,90.0,8.0,0.0
549,47.0,0.0,90.0,10.0,0.0
550,44.0,0.0,90.0,10.0,0.0
551,56.0,264.0,90.0,8.0,0.0
552,64.0,0.0,480.0,7.0,0.0
553,64.0,72.0,120.0,4.0,0.0
554,83.0,0.0,720.0,4.0,0.0
555,52.0,0.0,180.0,8.0,0.0
556,40.0,48.0,180.0,10.0,0.0
557,71.0,120.0,120.0,4.0,0.0
558,68.0,120.0,120.0,4.0,0.0
559,71.0,96.0,120.0,4.0,0.0
560,80.0,24.0,90.0,5.0,0.0
561,64.0,120.0,120.0,4.0,0.0
562,76.0,0.0,90.0,6.0,0.0
563,71.0,120.0,120.0,4.0,0.0
564,85.0,0.0,120.0,4.0,0.0
565,68.0,120.0,120.0,4.0,0.0
566,83.0,96.0,120.0,4.0,0.0
567,71.0,0.0,120.0,4.0,0.0
568,88.0,0.0,120.0,4.0,0.0
569,64.0,120.0,120.0,4.0,0.0
570,80.0,0.0,90.0,6.0,0.0
571,83.0,24.0,90.0,5.0,0.0
572,87.0,120.0,120.0,4.0,0.0
573,71.0,0.0,120.0,4.0,0.0
574,68.0,0.0,120.0,4.0,0.0
575,85.0,120.0,120.0,4.0,0.0
576,71.0,120.0,120.0,4.0,0.0
577,83.0,0.0,15.0,4.0,0.0
578,63.0,96.0,480.0,7.0,0.0
579,63.0,120.0,120.0,4.0,0.0
580,69.0,120.0,120.0,4.0,0.0
581,66.0,0.0,120.0,4.0,0.0
582,69.0,0.0,120.0,4.0,0.0
583,85.0,0.0,120.0,4.0,0.0
584,78.0,24.0,90.0,5.0,0.0
585,83.0,81.0,390.0,3.0,0.0
586,71.0,0.0,90.0,6.0,0.0
587,63.0,120.0,120.0,4.0,0.0
588,83.0,0.0,480.0,4.0,0.0
589,69.0,120.0,120.0,4.0,0.0
590,66.0,39.0,120.0,4.0,0.0
591,85.0,96.0,120.0,3.0,0.0
592,69.0,0.0,120.0,4.0,0.0
593,83.0,0.0,480.0,3.0,0.0
594,63.0,120.0,120.0,4.0,0.0
595,78.0,24.0,90.0,6.0,0.0
596,81.0,0.0,90.0,5.0,0.0
597,69.0,120.0,120.0,4.0,0.0
598,66.0,120.0,120.0,4.0,0.0
599,69.0,120.0,120.0,4.0,0.0
600,78.0,0.0,60.0,4.0,0.0
601,59.0,96.0,480.0,7.0,0.0
602,90.0,60.0,720.0,4.0,0.0
603,59.0,120.0,120.0,4.0,0.0
604,69.0,120.0,120.0,4.0,0.0
605,63.0,120.0,120.0,4.0,0.0
606,69.0,0.0,120.0,4.0,0.0
607,59.0,120.0,120.0,4.0,0.0
608,75.0,24.0,90.0,6.0,0.0
609,78.0,0.0,90.0,5.0,0.0
610,69.0,0.0,120.0,4.0,0.0
611,88.0,60.0,60.0,4.0,0.0
612,63.0,0.0,120.0,4.0,0.0
613,87.0,60.0,60.0,4.0,0.0
614,69.0,44.0,120.0,4.0,0.0
615,85.0,60.0,60.0,4.0,0.0
616,83.0,0.0,60.0,4.0,0.0
617,81.0,24.0,90.0,5.0,0.0
618,59.0,44.0,120.0,4.0,0.0
619,83.0,52.0,40.0,4.0,0.0
620,78.0,0.0,90.0,6.0,0.0
621,69.0,44.0,120.0,4.0,0.0
622,83.0,76.0,40.0,4.0,0.0
623,63.0,44.0,120.0,4.0,0.0
624,83.0,76.0,40.0,4.0,0.0
625,83.0,76.0,40.0,4.0,0.0
626,69.0,120.0,120.0,4.0,0.0
627,64.0,0.0,480.0,7.0,0.0
628,83.0,120.0,360.0,4.0,0.0
629,64.0,120.0,120.0,4.0,0.0
630,71.0,120.0,120.0,4.0,0.0
631,68.0,0.0,120.0,4.0,0.0
632,80.0,96.0,120.0,4.0,0.0
633,71.0,0.0,120.0,4.0,0.0
634,64.0,120.0,120.0,4.0,0.0
635,76.0,23.0,90.0,6.0,0.0
636,80.0,1.0,120.0,5.0,0.0
637,83.0,96.0,480.0,4.0,0.0
638,83.0,65.0,390.0,3.0,0.0
639,71.0,120.0,120.0,4.0,0.0
640,68.0,39.0,120.0,4.0,0.0
641,71.0,0.0,120.0,4.0,0.0
642,80.0,16.0,90.0,3.0,0.0
643,83.0,0.0,90.0,3.0,0.0
644,83.0,16.0,90.0,5.0,0.0
645,80.0,8.0,90.0,6.0,0.0
646,64.0,120.0,120.0,4.0,0.0
647,71.0,96.0,120.0,4.0,0.0
648,83.0,24.0,90.0,3.0,0.0
649,68.0,120.0,120.0,4.0,0.0
650,71.0,120.0,120.0,4.0,0.0
651,61.0,120.0,120.0,4.0,0.0
652,82.0,0.0,120.0,4.0,0.0
653,61.0,0.0,480.0,7.0,0.0
654,88.0,96.0,480.0,3.0,0.0
655,66.0,120.0,120.0,4.0,0.0
656,76.0,0.0,120.0,4.0,0.0
657,64.0,120.0,120.0,4.0,0.0
658,78.0,0.0,120.0,4.0,0.0
659,66.0,0.0,120.0,4.0,0.0
660,76.0,0.0,120.0,4.0,0.0
661,76.0,0.0,90.0,5.0,0.0
662,61.0,24.0,120.0,4.0,0.0
663,82.0,0.0,120.0,4.0,0.0
664,70.0,24.0,90.0,6.0,0.0
665,87.0,96.0,150.0,3.0,0.0
666,85.0,81.0,150.0,3.0,0.0
667,66.0,39.0,120.0,4.0,0.0
668,76.0,0.0,120.0,4.0,0.0
669,64.0,0.0,120.0,4.0,0.0
670,78.0,39.0,120.0,4.0,0.0
671,83.0,50.0,150.0,3.0,0.0
672,82.0,31.0,90.0,3.0,0.0
673,66.0,0.0,120.0,4.0,0.0
674,76.0,96.0,120.0,4.0,0.0
675,76.0,24.0,90.0,6.0,0.0
676,82.0,0.0,120.0,4.0,0.0
677,61.0,120.0,120.0,4.0,0.0
678,82.0,0.0,90.0,3.0,0.0
679,82.0,0.0,90.0,5.0,0.0
680,76.0,96.0,120.0,4.0,0.0
681,66.0,0.0,120.0,4.0,0.0
682,64.0,0.0,120.0,4.0,0.0
683,82.0,24.0,90.0,3.0,0.0
684,78.0,120.0,120.0,4.0,0.0
685,66.0,0.0,120.0,4.0,0.0
686,76.0,120.0,120.0,4.0,0.0
687,85.0,55.0,150.0,3.0,0.0
688,59.0,96.0,480.0,7.0,0.0
689,59.0,0.0,120.0,4.0,0.0
690,83.0,39.0,120.0,4.0,0.0
691,83.0,26.0,90.0,3.0,0.0
692,66.0,0.0,120.0,4.0,0.0
693,75.0,120.0,120.0,4.0,0.0
694,83.0,0.0,480.0,3.0,0.0
695,78.0,120.0,120.0,4.0,0.0
696,63.0,0.0,120.0,4.0,0.0
697,75.0,0.0,120.0,4.0,0.0
698,66.0,0.0,120.0,4.0,0.0
699,59.0,0.0,120.0,4.0,0.0
700,83.0,120.0,120.0,4.0,0.0
701,75.0,24.0,90.0,6.0,0.0
702,83.0,0.0,90.0,5.0,0.0
703,75.0,120.0,120.0,4.0,0.0
704,66.0,0.0,120.0,4.0,0.0
705,78.0,39.0,120.0,4.0,0.0
706,87.0,60.0,150.0,3.0,0.0
707,63.0,0.0,120.0,4.0,0.0
708,90.0,21.0,90.0,3.0,0.0
709,75.0,96.0,120.0,4.0,0.0
710,66.0,0.0,120.0,4.0,0.0
711,82.0,29.0,120.0,4.0,0.0
712,61.0,0.0,120.0,4.0,0.0
713,88.0,91.0,150.0,3.0,0.0
714,82.0,24.0,90.0,5.0,0.0
715,76.0,0.0,90.0,6.0,0.0
716,61.0,75.0,480.0,7.0,0.0
717,85.0,71.0,180.0,3.0,0.0
718,76.0,49.0,120.0,4.0,0.0
719,66.0,0.0,120.0,4.0,0.0
720,78.0,59.0,120.0,4.0,0.0
721,83.0,50.0,180.0,3.0,0.0
722,64.0,0.0,120.0,4.0,0.0
723,82.0,11.0,120.0,3.0,0.0
724,76.0,0.0,120.0,4.0,0.0
725,66.0,0.0,120.0,4.0,0.0
726,83.0,15.0,120.0,4.0,0.0
727,59.0,0.0,120.0,4.0,0.0
728,83.0,0.0,480.0,5.0,0.0
729,59.0,15.0,480.0,7.0,0.0
730,85.0,45.0,60.0,3.0,0.0
731,75.0,0.0,480.0,6.0,0.0
732,83.0,20.0,60.0,3.0,0.0
733,85.0,33.0,40.0,3.0,0.0
734,75.0,8.0,120.0,4.0,0.0
735,66.0,0.0,120.0,4.0,0.0
736,83.0,27.0,40.0,3.0,0.0
737,85.0,25.0,40.0,3.0,0.0
738,83.0,27.0,40.0,3.0,0.0
739,85.0,33.0,40.0,3.0,0.0
740,63.0,0.0,120.0,4.0,0.0
741,78.0,8.0,120.0,4.0,0.0
742,83.0,27.0,40.0,3.0,0.0
743,85.0,25.0,40.0,3.0,0.0
744,83.0,67.0,40.0,3.0,0.0
745,75.0,0.0,120.0,4.0,0.0
746,66.0,0.0,120.0,4.0,0.0
747,82.0,45.0,60.0,3.0,0.0
748,83.0,465.0,60.0,3.0,0.0
749,59.0,0.0,480.0,4.0,0.0
750,83.0,0.0,480.0,4.0,0.0
751,71.0,60.0,480.0,3.0,0.0
752,57.0,0.0,300.0,8.0,0.0
753,45.0,0.0,300.0,10.0,0.0
754,63.0,0.0,300.0,7.0,0.0
755,66.0,240.0,300.0,7.0,0.0
756,44.0,139.0,300.0,10.0,0.0
757,56.0,0.0,300.0,8.0,0.0
758,64.0,0.0,300.0,7.0,0.0
759,68.0,0.0,300.0,7.0,0.0
760,66.0,20.0,210.0,7.0,0.0
761,69.0,450.0,210.0,7.0,0.0
762,42.0,0.0,210.0,10.0,0.0
763,54.0,0.0,210.0,8.0,0.0
764,71.0,40.0,510.0,7.0,0.0
765,68.0,95.0,420.0,7.0,0.0
766,83.0,0.0,570.0,5.0,0.0
767,40.0,0.0,960.0,10.0,0.0
768,80.0,156.0,570.0,6.0,0.0
769,52.0,150.0,960.0,8.0,0.0
770,80.0,0.0,240.0,5.0,0.0
771,68.0,0.0,240.0,7.0,0.0
772,64.0,0.0,240.0,7.0,0.0
773,76.0,164.0,240.0,6.0,0.0
774,76.0,0.0,40.0,6.0,0.0
775,80.0,76.0,40.0,5.0,0.0
776,64.0,0.0,40.0,7.0,0.0
777,68.0,0.0,40.0,7.0,0.0
778,78.0,0.0,150.0,6.0,0.0
779,66.0,0.0,150.0,7.0,0.0
780,69.0,0.0,150.0,7.0,0.0
781,81.0,120.0,150.0,5.0,0.0
782,83.0,120.0,150.0,5.0,0.0
783,68.0,0.0,150.0,7.0,0.0
784,71.0,0.0,150.0,7.0,0.0
785,80.0,0.0,150.0,6.0,0.0
786,73.0,0.0,150.0,7.0,0.0
787,69.0,0.0,150.0,7.0,0.0
788,85.0,0.0,150.0,5.0,0.0
789,81.0,59.0,150.0,6.0,0.0
790,71.0,5.0,90.0,7.0,0.0
791,83.0,10.0,90.0,6.0,0.0
792,87.0,0.0,90.0,5.0,0.0
793,75.0,316.0,90.0,7.0,0.0
794,76.0,0.0,300.0,7.0,0.0
795,85.0,240.0,300.0,6.0,0.0
796,73.0,0.0,300.0,7.0,0.0
797,88.0,0.0,300.0,5.0,0.0
798,87.0,0.0,300.0,5.0,0.0
799,75.0,0.0,300.0,7.0,0.0
800,71.0,240.0,300.0,7.0,0.0
801,83.0,0.0,300.0,6.0,0.0
802,85.0,0.0,300.0,5.0,0.0
803,73.0,240.0,300.0,7.0,0.0
804,81.0,0.0,300.0,6.0,0.0
805,69.0,0.0,300.0,7.0,0.0
806,80.0,0.0,300.0,6.0,0.0
807,83.0,0.0,300.0,5.0,0.0
808,68.0,240.0,300.0,7.0,0.0
809,71.0,0.0,300.0,7.0,0.0
810,66.0,0.0,300.0,7.0,0.0
811,69.0,0.0,300.0,7.0,0.0
812,81.0,139.0,300.0,5.0,0.0
813,78.0,0.0,300.0,6.0,0.0
814,68.0,5.0,210.0,7.0,0.0
815,80.0,0.0,210.0,5.0,0.0
816,64.0,5.0,210.0,7.0,0.0
817,76.0,600.0,210.0,6.0,0.0
818,66.0,20.0,1050.0,7.0,0.0
819,63.0,10.0,1020.0,7.0,0.0
820,78.0,0.0,1020.0,5.0,0.0
821,59.0,0.0,570.0,8.0,0.0
822,75.0,5.0,1020.0,6.0,0.0
823,47.0,455.0,570.0,10.0,0.0
824,57.0,0.0,570.0,8.0,0.0
825,45.0,375.0,570.0,10.0,0.0
826,80.0,0.0,480.0,5.0,0.0
827,56.0,395.0,480.0,8.0,0.0
828,44.0,0.0,480.0,10.0,0.0
829,65.0,10.0,480.0,7.0,0.0
830,68.0,0.0,480.0,7.0,0.0
831,65.0,5.0,390.0,7.0,0.0
832,42.0,0.0,690.0,10.0,0.0
833,77.0,5.0,15.0,6.0,0.0
834,54.0,225.0,690.0,8.0,0.0
835,80.0,40.0,420.0,5.0,0.0
836,68.0,0.0,390.0,7.0,0.0
837,66.0,0.0,90.0,7.0,0.0
838,78.0,250.0,90.0,6.0,0.0
839,69.0,0.0,90.0,7.0,0.0
840,81.0,0.0,90.0,5.0,0.0
841,81.0,36.0,450.0,3.0,0.0
842,81.0,0.0,720.0,5.0,0.0
843,78.0,0.0,720.0,6.0,0.0
844,66.0,0.0,480.0,7.0,0.0
845,69.0,0.0,480.0,7.0,0.0
846,54.0,150.0,240.0,8.0,0.0
847,42.0,0.0,240.0,10.0,0.0
848,51.0,30.0,240.0,8.0,0.0
849,39.0,0.0,240.0,10.0,0.0
850,93.0,90.0,150.0,3.0,0.0
851,90.0,120.0,150.0,3.0,0.0
852,87.0,69.0,150.0,3.0,0.0
853,69.0,0.0,240.0,5.0,0.0
854,66.0,0.0,240.0,6.0,0.0
855,35.0,0.0,240.0,10.0,0.0
856,47.0,120.0,240.0,8.0,0.0
857,81.0,21.0,90.0,3.0,0.0
858,40.0,0.0,60.0,4.0,0.0
859,52.0,0.0,480.0,8.0,0.0
860,64.0,120.0,120.0,4.0,0.0
861,52.0,0.0,480.0,4.0,0.0
862,80.0,0.0,480.0,3.0,0.0
863,40.0,0.0,480.0,10.0,0.0
864,68.0,31.0,1050.0,5.0,0.0
865,59.0,5.0,1050.0,7.0,0.0
866,56.0,5.0,1050.0,7.0,0.0
867,64.0,16.0,1020.0,6.0,0.0
868,71.0,120.0,120.0,4.0,0.0
869,68.0,120.0,120.0,4.0,0.0
870,71.0,75.0,120.0,4.0,0.0
871,64.0,15.0,120.0,4.0,0.0
872,81.0,45.0,60.0,3.0,0.0
873,80.0,20.0,60.0,3.0,0.0
874,71.0,8.0,120.0,4.0,0.0
875,81.0,33.0,40.0,3.0,0.0
876,80.0,27.0,40.0,3.0,0.0
877,81.0,25.0,40.0,3.0,0.0
878,80.0,27.0,40.0,3.0,0.0
879,68.0,8.0,120.0,4.0,0.0
880,81.0,33.0,40.0,3.0,0.0
881,80.0,27.0,40.0,3.0,0.0
882,81.0,25.0,40.0,3.0,0.0
883,80.0,67.0,40.0,3.0,0.0
884,78.0,45.0,60.0,3.0,0.0
885,71.0,59.0,120.0,4.0,0.0
886,80.0,0.0,60.0,3.0,0.0
887,83.0,4.0,60.0,3.0,0.0
888,66.0,15.0,120.0,4.0,0.0
889,57.0,21.0,450.0,7.0,0.0
890,66.0,5.0,450.0,6.0,0.0
891,54.0,10.0,450.0,7.0,0.0
892,69.0,0.0,450.0,5.0,0.0
893,81.0,20.0,60.0,3.0,0.0
894,83.0,33.0,40.0,3.0,0.0
895,71.0,8.0,120.0,4.0,0.0
896,81.0,27.0,40.0,3.0,0.0
897,83.0,25.0,40.0,3.0,0.0
898,81.0,27.0,40.0,3.0,0.0
899,83.0,33.0,40.0,3.0,0.0
900,69.0,8.0,120.0,4.0,0.0
901,81.0,27.0,40.0,3.0,0.0
902,83.0,25.0,40.0,3.0,0.0
903,81.0,67.0,40.0,3.0,0.0
904,80.0,9.0,60.0,3.0,0.0
905,71.0,120.0,120.0,4.0,0.0
906,81.0,0.0,60.0,3.0,0.0
907,40.0,0.0,60.0,4.0,0.0
908,68.0,0.0,1440.0,6.0,0.0
909,56.0,0.0,1440.0,7.0,0.0
910,71.0,149.0,1440.0,5.0,0.0
911,52.0,0.0,1440.0,7.0,0.0
912,83.0,40.0,420.0,3.0,0.0
913,52.0,0.0,480.0,4.0,0.0
914,64.0,120.0,120.0,4.0,0.0
915,71.0,120.0,120.0,4.0,0.0
916,68.0,49.0,120.0,4.0,0.0
917,80.0,31.0,90.0,3.0,0.0
918,71.0,120.0,120.0,4.0,0.0
919,64.0,120.0,120.0,4.0,0.0
920,88.0,0.0,720.0,3.0,0.0
921,71.0,120.0,120.0,4.0,0.0
922,68.0,120.0,120.0,4.0,0.0
923,71.0,120.0,120.0,4.0,0.0
924,64.0,120.0,120.0,4.0,0.0
925,71.0,120.0,120.0,4.0,0.0
926,68.0,99.0,120.0,4.0,0.0
927,83.0,21.0,210.0,3.0,0.0
928,71.0,0.0,120.0,4.0,0.0
929,83.0,70.0,150.0,3.0,0.0
930,69.0,0.0,240.0,5.0,0.0
931,66.0,0.0,240.0,6.0,0.0
932,61.0,0.0,240.0,7.0,0.0
933,57.0,0.0,240.0,7.0,0.0
934,57.0,0.0,240.0,4.0,0.0
935,81.0,21.0,90.0,3.0,0.0
936,73.0,44.0,120.0,4.0,0.0
937,85.0,76.0,40.0,3.0,0.0
938,81.0,44.0,120.0,4.0,0.0
939,81.0,76.0,40.0,3.0,0.0
940,78.0,159.0,120.0,4.0,0.0
941,68.0,0.0,240.0,5.0,0.0
942,81.0,60.0,150.0,3.0,0.0
943,59.0,44.0,240.0,7.0,0.0
944,64.0,0.0,240.0,6.0,0.0
945,59.0,0.0,240.0,4.0,0.0
946,71.0,0.0,120.0,4.0,0.0
947,80.0,21.0,90.0,3.0,0.0
948,80.0,44.0,120.0,4.0,0.0
949,83.0,76.0,40.0,3.0,0.0
950,80.0,76.0,40.0,3.0,0.0
951,76.0,154.0,120.0,4.0,0.0
952,80.0,50.0,150.0,3.0,0.0
953,59.0,44.0,240.0,7.0,0.0
954,63.0,0.0,240.0,6.0,0.0
955,66.0,0.0,240.0,5.0,0.0
956,59.0,0.0,240.0,4.0,0.0
957,69.0,0.0,120.0,4.0,0.0
958,78.0,36.0,90.0,3.0,0.0
959,78.0,44.0,120.0,4.0,0.0
960,81.0,76.0,40.0,3.0,0.0
961,78.0,76.0,40.0,3.0,0.0
962,75.0,469.0,120.0,4.0,0.0
963,71.0,0.0,480.0,4.0,0.0
964,76.0,0.0,480.0,3.0,0.0
965,56.0,11.0,480.0,7.0,0.0
966,59.0,30.0,540.0,7.0,0.0
967,40.0,150.0,960.0,10.0,0.0
968,68.0,49.0,480.0,4.0,0.0
969,71.0,0.0,570.0,5.0,0.0
970,52.0,0.0,480.0,4.0,0.0
971,76.0,0.0,480.0,4.0,0.0
972,68.0,161.0,570.0,6.0,0.0
973,52.0,0.0,960.0,8.0,0.0
974,68.0,0.0,240.0,5.0,0.0
975,64.0,0.0,240.0,6.0,0.0
976,52.0,0.0,240.0,7.0,0.0
977,56.0,164.0,240.0,7.0,0.0
978,52.0,76.0,40.0,7.0,0.0
979,68.0,0.0,40.0,5.0,0.0
980,64.0,0.0,40.0,6.0,0.0
981,56.0,0.0,40.0,7.0,0.0
982,69.0,0.0,150.0,5.0,0.0
983,57.0,0.0,150.0,7.0,0.0
984,54.0,120.0,150.0,7.0,0.0
985,66.0,0.0,150.0,6.0,0.0
986,59.0,0.0,150.0,7.0,0.0
987,68.0,120.0,150.0,6.0,0.0
988,56.0,0.0,150.0,7.0,0.0
989,71.0,0.0,150.0,5.0,0.0
990,69.0,59.0,150.0,6.0,0.0
991,73.0,0.0,150.0,5.0,0.0
992,61.0,0.0,150.0,7.0,0.0
993,57.0,0.0,150.0,7.0,0.0
994,63.0,0.0,90.0,7.0,0.0
995,59.0,10.0,90.0,7.0,0.0
996,75.0,316.0,90.0,5.0,0.0
997,71.0,5.0,90.0,6.0,0.0
998,76.0,0.0,300.0,5.0,0.0
999,73.0,0.0,300.0,6.0,0.0
1000,64.0,0.0,300.0,7.0,0.0
1001,61.0,240.0,300.0,7.0,0.0
1002,71.0,0.0,300.0,6.0,0.0
1003,75.0,240.0,300.0,5.0,0.0
1004,63.0,0.0,300.0,7.0,0.0
1005,59.0,0.0,300.0,7.0,0.0
1006,73.0,0.0,300.0,5.0,0.0
1007,57.0,240.0,300.0,7.0,0.0
1008,61.0,0.0,300.0,7.0,0.0
1009,69.0,0.0,300.0,6.0,0.0
1010,59.0,0.0,300.0,7.0,0.0
1011,56.0,0.0,300.0,7.0,0.0
1012,71.0,0.0,300.0,5.0,0.0
1013,68.0,239.0,300.0,6.0,0.0
1014,69.0,139.0,300.0,5.0,0.0
1015,57.0,0.0,300.0,7.0,0.0
1016,54.0,0.0,300.0,7.0,0.0
1017,66.0,1.0,300.0,6.0,0.0
1018,52.0,5.0,210.0,7.0,0.0
1019,56.0,5.0,210.0,7.0,0.0
1020,64.0,0.0,210.0,6.0,0.0
1021,68.0,595.0,210.0,5.0,0.0
1022,45.0,440.0,570.0,8.0,0.0
1023,64.0,0.0,2460.0,6.0,0.0
1024,33.0,0.0,570.0,10.0,0.0
1025,66.0,25.0,990.0,5.0,0.0
1026,54.0,40.0,1020.0,7.0,0.0
1027,52.0,64.0,2400.0,7.0,0.0
1028,34.0,310.0,600.0,10.0,0.0
1029,46.0,0.0,600.0,8.0,0.0
1030,35.0,0.0,450.0,10.0,0.0
1031,68.0,25.0,420.0,5.0,0.0
1032,47.0,445.0,450.0,8.0,0.0
1033,56.0,30.0,900.0,7.0,0.0
1034,37.0,70.0,1050.0,10.0,0.0
1035,71.0,10.0,420.0,5.0,0.0
1036,49.0,0.0,1050.0,8.0,0.0
1037,69.0,310.0,90.0,5.0,0.0
1038,57.0,15.0,90.0,7.0,0.0
1039,69.0,120.0,960.0,5.0,0.0
1040,61.0,25.0,540.0,7.0,0.0
1041,81.0,186.0,300.0,3.0,0.0
1042,93.0,125.0,390.0,3.0,0.0
1043,39.0,0.0,420.0,10.0,0.0
1044,59.0,0.0,480.0,7.0,0.0
1045,63.0,16.0,450.0,7.0,0.0
1046,51.0,20.0,420.0,8.0,0.0
1047,66.0,5.0,450.0,6.0,0.0
1048,90.0,110.0,150.0,3.0,0.0
1049,87.0,35.0,150.0,3.0,0.0
1050,81.0,10.0,90.0,3.0,0.0
1051,64.0,0.0,480.0,6.0,0.0
1052,64.0,0.0,480.0,7.0,0.0
1053,64.0,120.0,120.0,4.0,0.0
1054,59.0,0.0,480.0,7.0,0.0
1055,68.0,75.0,480.0,5.0,0.0
1056,40.0,0.0,480.0,10.0,0.0
1057,52.0,0.0,480.0,8.0,0.0
1058,80.0,0.0,480.0,3.0,0.0
1059,71.0,120.0,120.0,4.0,0.0
1060,68.0,120.0,120.0,4.0,0.0
1061,71.0,0.0,120.0,4.0,0.0
1062,81.0,45.0,60.0,3.0,0.0
1063,64.0,15.0,120.0,4.0,0.0
1064,80.0,20.0,60.0,3.0,0.0
1065,71.0,8.0,120.0,4.0,0.0
1066,81.0,33.0,40.0,3.0,0.0
1067,80.0,27.0,40.0,3.0,0.0
1068,81.0,25.0,40.0,3.0,0.0
1069,80.0,27.0,40.0,3.0,0.0
1070,81.0,33.0,40.0,3.0,0.0
1071,68.0,8.0,120.0,4.0,0.0
1072,80.0,27.0,40.0,3.0,0.0
1073,81.0,25.0,40.0,3.0,0.0
1074,80.0,67.0,40.0,3.0,0.0
1075,78.0,44.0,60.0,3.0,0.0
1076,71.0,75.0,120.0,4.0,0.0
1077,80.0,1.0,60.0,3.0,0.0
1078,66.0,15.0,120.0,4.0,0.0
1079,83.0,45.0,60.0,3.0,0.0
1080,81.0,20.0,60.0,3.0,0.0
1081,71.0,8.0,120.0,4.0,0.0
1082,83.0,33.0,40.0,3.0,0.0
1083,81.0,27.0,40.0,3.0,0.0
1084,83.0,25.0,40.0,3.0,0.0
1085,81.0,27.0,40.0,3.0,0.0
1086,83.0,33.0,40.0,3.0,0.0
1087,69.0,8.0,120.0,4.0,0.0
1088,81.0,27.0,40.0,3.0,0.0
1089,83.0,25.0,40.0,3.0,0.0
1090,81.0,67.0,40.0,3.0,0.0
1091,71.0,0.0,120.0,4.0,0.0
1092,80.0,45.0,60.0,3.0,0.0
1093,81.0,120.0,60.0,3.0,0.0
1094,64.0,120.0,120.0,4.0,0.0
1095,83.0,60.0,480.0,4.0,0.0
1096,83.0,70.0,390.0,3.0,0.0
1097,40.0,120.0,240.0,10.0,0.0
1098,52.0,0.0,240.0,8.0,0.0
1099,71.0,0.0,120.0,4.0,0.0
1100,68.0,24.0,120.0,4.0,0.0
1101,80.0,26.0,90.0,3.0,0.0
1102,71.0,0.0,120.0,4.0,0.0
1103,44.0,0.0,240.0,10.0,0.0
1104,64.0,0.0,120.0,4.0,0.0
1105,85.0,60.0,60.0,4.0,0.0
1106,83.0,0.0,480.0,3.0,0.0
1107,56.0,28.0,240.0,8.0,0.0
1108,83.0,28.0,60.0,4.0,0.0
1109,71.0,0.0,120.0,4.0,0.0
1110,85.0,32.0,30.0,4.0,0.0
1111,83.0,28.0,30.0,4.0,0.0
1112,85.0,32.0,30.0,4.0,0.0
1113,83.0,0.0,30.0,4.0,0.0
1114,85.0,32.0,30.0,4.0,0.0
1115,68.0,0.0,120.0,4.0,0.0
1116,83.0,28.0,30.0,4.0,0.0
1117,85.0,32.0,30.0,4.0,0.0
1118,83.0,60.0,30.0,4.0,0.0
1119,71.0,0.0,120.0,4.0,0.0
1120,81.0,60.0,60.0,4.0,0.0
1121,83.0,60.0,60.0,4.0,0.0
1122,66.0,28.0,120.0,4.0,0.0
1123,88.0,60.0,60.0,4.0,0.0
1124,59.0,0.0,240.0,8.0,0.0
1125,47.0,28.0,240.0,10.0,0.0
1126,87.0,0.0,60.0,4.0,0.0
1127,71.0,0.0,120.0,4.0,0.0
1128,88.0,32.0,30.0,4.0,0.0
1129,87.0,28.0,30.0,4.0,0.0
1130,88.0,32.0,30.0,4.0,0.0
1131,87.0,0.0,30.0,4.0,0.0
1132,88.0,32.0,30.0,4.0,0.0
1133,69.0,0.0,120.0,4.0,0.0
1134,87.0,28.0,30.0,4.0,0.0
1135,88.0,32.0,30.0,4.0,0.0
1136,87.0,60.0,30.0,4.0,0.0
1137,71.0,0.0,120.0,4.0,0.0
1138,85.0,60.0,60.0,4.0,0.0
1139,87.0,120.0,60.0,4.0,0.0
1140,64.0,10.0,1050.0,5.0,0.0
1141,88.0,120.0,360.0,4.0,0.0
1142,64.0,120.0,120.0,4.0,0.0
1143,64.0,10.0,1050.0,6.0,0.0
1144,64.0,75.0,480.0,8.0,0.0
1145,59.0,10.0,1050.0,7.0,0.0
1146,80.0,0.0,480.0,3.0,0.0
1147,56.0,11.0,1080.0,7.0,0.0
1148,52.0,0.0,480.0,10.0,0.0
1149,71.0,120.0,120.0,4.0,0.0
1150,68.0,0.0,120.0,4.0,0.0
1151,83.0,0.0,120.0,4.0,0.0
1152,71.0,0.0,120.0,4.0,0.0
1153,88.0,75.0,480.0,4.0,0.0
1154,81.0,45.0,60.0,3.0,0.0
1155,64.0,15.0,120.0,4.0,0.0
1156,80.0,20.0,60.0,3.0,0.0
1157,71.0,8.0,120.0,4.0,0.0
1158,81.0,33.0,40.0,3.0,0.0
1159,80.0,27.0,40.0,3.0,0.0
1160,81.0,25.0,40.0,3.0,0.0
1161,80.0,27.0,40.0,3.0,0.0
1162,68.0,8.0,120.0,4.0,0.0
1163,81.0,33.0,40.0,3.0,0.0
1164,80.0,27.0,40.0,3.0,0.0
1165,81.0,25.0,40.0,3.0,0.0
1166,80.0,67.0,40.0,3.0,0.0
1167,78.0,45.0,60.0,3.0,0.0
1168,71.0,0.0,120.0,4.0,0.0
1169,80.0,0.0,60.0,3.0,0.0
1170,83.0,4.0,60.0,3.0,0.0
1171,66.0,6.0,420.0,5.0,0.0
1172,57.0,0.0,450.0,7.0,0.0
1173,54.0,41.0,450.0,7.0,0.0
1174,66.0,30.0,390.0,6.0,0.0
1175,66.0,15.0,120.0,4.0,0.0
1176,81.0,20.0,60.0,3.0,0.0
1177,71.0,8.0,120.0,4.0,0.0
1178,83.0,33.0,40.0,3.0,0.0
1179,81.0,27.0,40.0,3.0,0.0
1180,83.0,25.0,40.0,3.0,0.0
1181,81.0,27.0,40.0,3.0,0.0
1182,69.0,8.0,120.0,4.0,0.0
1183,83.0,33.0,40.0,3.0,0.0
1184,81.0,27.0,40.0,3.0,0.0
1185,83.0,25.0,40.0,3.0,0.0
1186,81.0,31.0,40.0,3.0,0.0
1187,80.0,4.0,60.0,3.0,0.0
1188,71.0,0.0,120.0,4.0,0.0
1189,81.0,120.0,60.0,3.0,0.0
1190,83.0,60.0,480.0,4.0,0.0
1191,56.0,0.0,240.0,7.0,0.0
1192,52.0,0.0,240.0,7.0,0.0
1193,40.0,0.0,240.0,10.0,0.0
1194,68.0,0.0,240.0,6.0,0.0
1195,52.0,0.0,240.0,8.0,0.0
1196,68.0,0.0,240.0,5.0,0.0
1197,64.0,29.0,120.0,4.0,0.0
1198,83.0,50.0,150.0,3.0,0.0
1199,71.0,49.0,120.0,4.0,0.0
1200,80.0,41.0,90.0,3.0,0.0
1201,83.0,71.0,40.0,3.0,0.0
1202,68.0,54.0,120.0,4.0,0.0
1203,71.0,0.0,120.0,4.0,0.0
1204,83.0,66.0,60.0,3.0,0.0
1205,44.0,0.0,240.0,10.0,0.0
1206,71.0,0.0,240.0,6.0,0.0
1207,71.0,28.0,240.0,5.0,0.0
1208,83.0,0.0,480.0,3.0,0.0
1209,68.0,0.0,240.0,7.0,0.0
1210,64.0,0.0,240.0,7.0,0.0
1211,56.0,0.0,240.0,8.0,0.0
1212,85.0,60.0,60.0,4.0,0.0
1213,64.0,28.0,120.0,4.0,0.0
1214,83.0,0.0,60.0,4.0,0.0
1215,85.0,32.0,30.0,4.0,0.0
1216,71.0,0.0,120.0,4.0,0.0
1217,83.0,28.0,30.0,4.0,0.0
1218,85.0,32.0,30.0,4.0,0.0
1219,83.0,0.0,30.0,4.0,0.0
1220,85.0,32.0,30.0,4.0,0.0
1221,68.0,0.0,120.0,4.0,0.0
1222,83.0,28.0,30.0,4.0,0.0
1223,85.0,32.0,30.0,4.0,0.0
1224,83.0,60.0,30.0,4.0,0.0
1225,81.0,60.0,60.0,4.0,0.0
1226,71.0,60.0,120.0,4.0,0.0
1227,83.0,0.0,60.0,4.0,0.0
1228,71.0,0.0,240.0,7.0,0.0
1229,66.0,0.0,240.0,7.0,0.0
1230,59.0,0.0,240.0,8.0,0.0
1231,47.0,0.0,240.0,10.0,0.0
1232,75.0,0.0,240.0,6.0,0.0
1233,75.0,28.0,240.0,5.0,0.0
1234,88.0,60.0,60.0,4.0,0.0
1235,66.0,28.0,120.0,4.0,0.0
1236,87.0,0.0,60.0,4.0,0.0
1237,88.0,32.0,30.0,4.0,0.0
1238,71.0,0.0,120.0,4.0,0.0
1239,87.0,28.0,30.0,4.0,0.0
1240,88.0,32.0,30.0,4.0,0.0
1241,87.0,0.0,30.0,4.0,0.0
1242,69.0,60.0,120.0,4.0,0.0
1243,88.0,32.0,30.0,4.0,0.0
1244,87.0,28.0,30.0,4.0,0.0
1245,88.0,32.0,30.0,4.0,0.0
1246,87.0,0.0,30.0,4.0,0.0
1247,85.0,60.0,60.0,4.0,0.0
1248,87.0,284.0,60.0,4.0,0.0
1249,64.0,0.0,480.0,8.0,0.0
1250,71.0,0.0,15.0,4.0,0.0
1251,68.0,0.0,480.0,4.0,0.0
1252,64.0,0.0,480.0,4.0,0.0
1253,88.0,0.0,480.0,4.0,0.0
1254,71.0,0.0,480.0,7.0,0.0
1255,64.0,0.0,480.0,7.0,0.0
1256,76.0,161.0,330.0,5.0,0.0
1257,52.0,34.0,480.0,10.0,0.0
1258,88.0,35.0,270.0,3.0,0.0
1259,78.0,215.0,330.0,5.0,0.0
1260,87.0,45.0,270.0,3.0,0.0
1261,76.0,205.0,330.0,5.0,0.0
1262,85.0,25.0,300.0,3.0,0.0
1263,83.0,35.0,270.0,3.0,0.0
1264,75.0,205.0,330.0,5.0,0.0
1265,73.0,110.0,330.0,5.0,0.0
1266,81.0,35.0,270.0,3.0,0.0
1267,71.0,240.0,240.0,5.0,0.0
1268,80.0,51.0,180.0,3.0,0.0
1269,69.0,0.0,240.0,6.0,0.0
1270,73.0,35.0,240.0,5.0,0.0
1271,78.0,0.0,240.0,3.0,0.0
1272,80.0,33.0,40.0,3.0,0.0
1273,78.0,27.0,40.0,3.0,0.0
1274,77.0,33.0,40.0,3.0,0.0
1275,78.0,112.0,40.0,3.0,0.0
1276,80.0,240.0,120.0,3.0,0.0
1277,69.0,0.0,240.0,6.0,0.0
1278,73.0,35.0,240.0,5.0,0.0
1279,81.0,0.0,240.0,3.0,0.0
1280,83.0,33.0,40.0,3.0,0.0
1281,81.0,27.0,40.0,3.0,0.0
1282,80.0,33.0,40.0,3.0,0.0
1283,81.0,112.0,40.0,3.0,0.0
1284,83.0,240.0,120.0,3.0,0.0
1285,85.0,35.0,240.0,3.0,0.0
1286,78.0,11.0,600.0,5.0,0.0
1287,69.0,10.0,570.0,6.0,0.0
1288,87.0,33.0,40.0,3.0,0.0
1289,85.0,27.0,40.0,3.0,0.0
1290,83.0,33.0,40.0,3.0,0.0
1291,85.0,112.0,40.0,3.0,0.0
1292,87.0,99.0,120.0,3.0,0.0
1293,88.0,69.0,120.0,3.0,0.0
1294,76.0,20.0,180.0,5.0,0.0
1295,68.0,31.0,210.0,6.0,0.0
1296,83.0,60.0,120.0,3.0,0.0
1297,69.0,0.0,90.0,6.0,0.0
1298,87.0,36.0,60.0,3.0,0.0
1299,76.0,24.0,90.0,5.0,0.0
1300,85.0,60.0,60.0,3.0,0.0
1301,83.0,60.0,60.0,3.0,0.0
1302,81.0,240.0,60.0,3.0,0.0
1303,76.0,240.0,240.0,5.0,0.0
1304,80.0,75.0,480.0,3.0,0.0
1305,71.0,0.0,240.0,6.0,0.0
1306,71.0,0.0,240.0,6.0,0.0
1307,76.0,0.0,240.0,5.0,0.0
1308,75.0,0.0,240.0,5.0,0.0
1309,80.0,60.0,60.0,3.0,0.0
1310,78.0,20.0,60.0,3.0,0.0
1311,80.0,33.0,40.0,3.0,0.0
1312,78.0,27.0,40.0,3.0,0.0
1313,80.0,25.0,40.0,3.0,0.0
1314,78.0,27.0,40.0,3.0,0.0
1315,80.0,33.0,40.0,3.0,0.0
1316,59.0,8.0,15.0,6.0,0.0
1317,75.0,0.0,240.0,5.0,0.0
1318,78.0,27.0,40.0,3.0,0.0
1319,80.0,33.0,40.0,3.0,0.0
1320,78.0,67.0,40.0,3.0,0.0
1321,76.0,45.0,60.0,3.0,0.0
1322,78.0,0.0,60.0,3.0,0.0
1323,83.0,0.0,240.0,4.0,0.0
1324,80.0,80.0,240.0,4.0,0.0
1325,88.0,76.0,90.0,4.0,0.0
1326,76.0,80.0,480.0,3.0,0.0
1327,76.0,0.0,480.0,5.0,0.0
1328,64.0,0.0,480.0,6.0,0.0
1329,90.0,84.0,90.0,4.0,0.0
1330,88.0,0.0,90.0,4.0,0.0
1331,87.0,76.0,90.0,4.0,0.0
1332,78.0,0.0,240.0,4.0,0.0
1333,81.0,0.0,240.0,4.0,0.0
1334,88.0,84.0,90.0,4.0,0.0
1335,87.0,0.0,90.0,4.0,0.0
1336,85.0,76.0,90.0,4.0,0.0
1337,76.0,0.0,240.0,4.0,0.0
1338,80.0,0.0,240.0,4.0,0.0
1339,87.0,84.0,90.0,4.0,0.0
1340,85.0,80.0,90.0,4.0,0.0
1341,78.0,0.0,240.0,4.0,0.0
1342,75.0,80.0,240.0,4.0,0.0
1343,83.0,76.0,90.0,4.0,0.0
1344,85.0,84.0,90.0,4.0,0.0
1345,83.0,0.0,90.0,4.0,0.0
1346,81.0,76.0,90.0,4.0,0.0
1347,73.0,80.0,240.0,4.0,0.0
1348,76.0,0.0,240.0,4.0,0.0
1349,83.0,84.0,90.0,4.0,0.0
1350,81.0,0.0,90.0,4.0,0.0
1351,80.0,76.0,90.0,4.0,0.0
1352,71.0,60.0,240.0,4.0,0.0
1353,75.0,0.0,240.0,4.0,0.0
1354,81.0,84.0,90.0,4.0,0.0
1355,80.0,0.0,90.0,4.0,0.0
1356,78.0,60.0,60.0,4.0,0.0
1357,80.0,60.0,60.0,4.0,0.0
1358,78.0,60.0,60.0,4.0,0.0
1359,77.0,60.0,60.0,4.0,0.0
1360,78.0,60.0,60.0,4.0,0.0
1361,80.0,60.0,60.0,4.0,0.0
1362,78.0,60.0,60.0,4.0,0.0
1363,80.0,0.0,60.0,4.0,0.0
1364,73.0,60.0,15.0,4.0,0.0
1365,69.0,0.0,15.0,4.0,0.0
1366,81.0,60.0,60.0,4.0,0.0
1367,83.0,60.0,60.0,4.0,0.0
1368,81.0,60.0,60.0,4.0,0.0
1369,80.0,60.0,60.0,4.0,0.0
1370,81.0,60.0,60.0,4.0,0.0
1371,83.0,60.0,60.0,4.0,0.0
1372,81.0,60.0,60.0,4.0,0.0
1373,83.0,0.0,60.0,4.0,0.0
1374,85.0,60.0,60.0,4.0,0.0
1375,69.0,60.0,240.0,4.0,0.0
1376,73.0,0.0,240.0,4.0,0.0
1377,87.0,60.0,60.0,4.0,0.0
1378,85.0,60.0,60.0,4.0,0.0
1379,83.0,0.0,60.0,4.0,0.0
1380,85.0,60.0,60.0,4.0,0.0
1381,69.0,0.0,240.0,4.0,0.0
1382,87.0,60.0,60.0,4.0,0.0
1383,85.0,60.0,60.0,4.0,0.0
1384,87.0,0.0,60.0,4.0,0.0
1385,71.0,60.0,15.0,4.0,0.0
1386,68.0,0.0,240.0,4.0,0.0
1387,88.0,60.0,60.0,4.0,0.0
1388,87.0,60.0,60.0,4.0,0.0
1389,88.0,60.0,60.0,4.0,0.0
1390,83.0,60.0,60.0,4.0,0.0
1391,76.0,0.0,240.0,4.0,0.0
1392,69.0,0.0,240.0,4.0,0.0
1393,87.0,60.0,60.0,4.0,0.0
1394,85.0,60.0,60.0,4.0,0.0
1395,83.0,60.0,60.0,4.0,0.0
1396,81.0,240.0,60.0,4.0,0.0
1397,80.0,60.0,480.0,4.0,0.0
1398,71.0,240.0,240.0,4.0,0.0
1399,76.0,0.0,240.0,4.0,0.0
1400,71.0,0.0,240.0,4.0,0.0
1401,76.0,0.0,240.0,4.0,0.0
1402,80.0,60.0,60.0,4.0,0.0
1403,71.0,28.0,240.0,4.0,0.0
1404,75.0,0.0,240.0,4.0,0.0
1405,78.0,28.0,60.0,4.0,0.0
1406,80.0,32.0,30.0,4.0,0.0
1407,78.0,28.0,30.0,4.0,0.0
1408,80.0,32.0,30.0,4.0,0.0
1409,78.0,0.0,30.0,4.0,0.0
1410,71.0,80.0,240.0,4.0,0.0
1411,75.0,0.0,240.0,4.0,0.0
1412,80.0,32.0,30.0,4.0,0.0
1413,78.0,28.0,30.0,4.0,0.0
1414,80.0,32.0,30.0,4.0,0.0
1415,78.0,60.0,30.0,4.0,0.0
1416,76.0,60.0,60.0,4.0,0.0
1417,78.0,0.0,60.0,4.0,0.0
1418,64.0,20.0,1560.0,6.0,0.0
1419,52.0,76.0,90.0,4.0,0.0
1420,52.0,0.0,7290.0,8.0,0.0
1421,40.0,141.0,7290.0,10.0,0.0
1422,56.0,0.0,1560.0,7.0,0.0
1423,88.0,36.0,1470.0,3.0,0.0
1424,59.0,10.0,2850.0,7.0,0.0
1425,76.0,27.0,1560.0,5.0,0.0
1426,56.0,84.0,90.0,4.0,0.0
1427,59.0,80.0,90.0,4.0,0.0
1428,64.0,76.0,90.0,4.0,0.0
1429,76.0,0.0,15.0,4.0,0.0
1430,56.0,84.0,90.0,4.0,0.0
1431,59.0,0.0,90.0,4.0,0.0
1432,52.0,76.0,90.0,4.0,0.0
1433,56.0,84.0,90.0,4.0,0.0
1434,76.0,0.0,120.0,4.0,0.0
1435,59.0,80.0,90.0,4.0,0.0
1436,75.0,36.0,120.0,4.0,0.0
1437,64.0,40.0,90.0,4.0,0.0
1438,56.0,84.0,90.0,4.0,0.0
1439,76.0,80.0,120.0,4.0,0.0
1440,59.0,0.0,90.0,4.0,0.0
1441,52.0,40.0,90.0,4.0,0.0
1442,80.0,36.0,120.0,4.0,0.0
1443,56.0,84.0,90.0,4.0,0.0
1444,76.0,0.0,120.0,4.0,0.0
1445,59.0,80.0,90.0,4.0,0.0
1446,83.0,36.0,120.0,4.0,0.0
1447,64.0,40.0,90.0,4.0,0.0
1448,56.0,84.0,90.0,4.0,0.0
1449,80.0,0.0,120.0,4.0,0.0
1450,59.0,44.0,90.0,4.0,0.0
1451,78.0,80.0,240.0,4.0,0.0
1452,52.0,29.0,90.0,4.0,0.0
1453,75.0,20.0,1350.0,5.0,0.0
1454,66.0,40.0,1380.0,6.0,0.0
1455,57.0,11.0,1440.0,7.0,0.0
1456,87.0,0.0,1440.0,3.0,0.0
1457,57.0,84.0,90.0,4.0,0.0
1458,59.0,0.0,90.0,4.0,0.0
1459,63.0,76.0,90.0,4.0,0.0
1460,78.0,0.0,240.0,4.0,0.0
1461,57.0,84.0,90.0,4.0,0.0
1462,59.0,80.0,90.0,4.0,0.0
1463,52.0,76.0,90.0,4.0,0.0
1464,57.0,84.0,90.0,4.0,0.0
1465,78.0,0.0,120.0,4.0,0.0
1466,59.0,80.0,90.0,4.0,0.0
1467,77.0,36.0,120.0,4.0,0.0
1468,63.0,40.0,90.0,4.0,0.0
1469,57.0,84.0,90.0,4.0,0.0
1470,78.0,0.0,120.0,4.0,0.0
1471,59.0,80.0,90.0,4.0,0.0
1472,52.0,40.0,90.0,4.0,0.0
1473,81.0,36.0,120.0,4.0,0.0
1474,57.0,84.0,90.0,4.0,0.0
1475,78.0,80.0,120.0,4.0,0.0
1476,59.0,0.0,90.0,4.0,0.0
1477,85.0,36.0,120.0,4.0,0.0
1478,63.0,40.0,90.0,4.0,0.0
1479,57.0,3.0,90.0,4.0,0.0
1480,59.0,0.0,90.0,4.0,0.0
1481,52.0,40.0,90.0,4.0,0.0
1482,81.0,80.0,15.0,4.0,0.0
1483,74.0,1.0,1560.0,5.0,0.0
1484,64.0,10.0,2880.0,7.0,0.0
1485,59.0,17.0,1590.0,7.0,0.0
1486,86.0,26.0,1500.0,3.0,0.0
1487,68.0,10.0,1560.0,6.0,0.0
1488,56.0,8.0,90.0,4.0,0.0
1489,80.0,76.0,40.0,4.0,0.0
1490,59.0,80.0,90.0,4.0,0.0
1491,62.0,16.0,90.0,4.0,0.0
1492,80.0,60.0,90.0,4.0,0.0
1493,56.0,84.0,90.0,4.0,0.0
1494,59.0,80.0,90.0,4.0,0.0
1495,52.0,76.0,90.0,4.0,0.0
1496,56.0,84.0,90.0,4.0,0.0
1497,80.0,80.0,120.0,4.0,0.0
1498,59.0,0.0,90.0,4.0,0.0
1499,62.0,40.0,90.0,4.0,0.0
1500,81.0,36.0,120.0,4.0,0.0
1501,56.0,84.0,90.0,4.0,0.0
1502,80.0,80.0,120.0,4.0,0.0
1503,59.0,0.0,90.0,4.0,0.0
1504,83.0,36.0,120.0,4.0,0.0
1505,52.0,40.0,90.0,4.0,0.0
1506,56.0,84.0,90.0,4.0,0.0
1507,80.0,80.0,120.0,4.0,0.0
1508,59.0,0.0,90.0,4.0,0.0
1509,86.0,36.0,120.0,4.0,0.0
1510,62.0,40.0,90.0,4.0,0.0
1511,56.0,84.0,90.0,4.0,0.0
1512,83.0,54.0,120.0,4.0,0.0
1513,59.0,0.0,90.0,4.0,0.0
1514,83.0,9.0,120.0,4.0,0.0
1515,73.0,20.0,1380.0,5.0,0.0
1516,52.0,39.0,90.0,4.0,0.0
1517,85.0,80.0,1440.0,3.0,0.0
1518,61.0,1.0,1440.0,7.0,0.0
1519,69.0,40.0,1380.0,6.0,0.0
1520,57.0,8.0,90.0,4.0,0.0
1521,81.0,76.0,40.0,4.0,0.0
1522,61.0,80.0,90.0,4.0,0.0
1523,64.0,16.0,90.0,4.0,0.0
1524,81.0,60.0,90.0,4.0,0.0
1525,57.0,84.0,90.0,4.0,0.0
1526,61.0,80.0,90.0,4.0,0.0
1527,52.0,76.0,90.0,4.0,0.0
1528,57.0,84.0,90.0,4.0,0.0
1529,81.0,80.0,120.0,4.0,0.0
1530,61.0,0.0,90.0,4.0,0.0
1531,80.0,36.0,120.0,4.0,0.0
1532,64.0,40.0,90.0,4.0,0.0
1533,57.0,84.0,90.0,4.0,0.0
1534,81.0,80.0,120.0,4.0,0.0
1535,61.0,0.0,90.0,4.0,0.0
1536,52.0,40.0,90.0,4.0,0.0
1537,85.0,36.0,120.0,4.0,0.0
1538,57.0,84.0,90.0,4.0,0.0
1539,81.0,0.0,120.0,4.0,0.0
1540,61.0,80.0,90.0,4.0,0.0
1541,64.0,40.0,90.0,4.0,0.0
1542,88.0,36.0,120.0,4.0,0.0
1543,57.0,13.0,90.0,4.0,0.0
1544,85.0,0.0,120.0,4.0,0.0
1545,61.0,0.0,90.0,4.0,0.0
1546,86.0,0.0,240.0,4.0,0.0
1547,52.0,76.0,90.0,4.0,0.0
1548,83.0,80.0,240.0,4.0,0.0
1549,52.0,0.0,1680.0,7.0,0.0
1550,59.0,10.0,1530.0,7.0,0.0
1551,68.0,10.0,1530.0,5.0,0.0
1552,62.0,0.0,1530.0,6.0,0.0
1553,86.0,0.0,480.0,3.0,0.0
1554,56.0,84.0,90.0,4.0,0.0
1555,59.0,0.0,90.0,4.0,0.0
1556,83.0,0.0,360.0,4.0,0.0
1557,86.0,20.0,360.0,4.0,0.0
1558,64.0,76.0,90.0,4.0,0.0
1559,56.0,84.0,90.0,4.0,0.0
1560,59.0,80.0,90.0,4.0,0.0
1561,52.0,11.0,480.0,4.0,0.0
1562,88.0,40.0,90.0,3.0,0.0
1563,86.0,60.0,90.0,3.0,0.0
1564,88.0,40.0,90.0,3.0,0.0
1565,85.0,0.0,120.0,4.0,0.0
1566,81.0,20.0,120.0,4.0,0.0
1567,86.0,18.0,90.0,3.0,0.0
1568,88.0,33.0,40.0,3.0,0.0
1569,80.0,11.0,120.0,4.0,0.0
1570,83.0,0.0,120.0,4.0,0.0
1571,86.0,27.0,40.0,3.0,0.0
1572,88.0,22.0,40.0,3.0,0.0
1573,86.0,27.0,40.0,3.0,0.0
1574,78.0,0.0,120.0,4.0,0.0
1575,88.0,33.0,40.0,3.0,0.0
1576,81.0,0.0,120.0,4.0,0.0
1577,86.0,27.0,40.0,3.0,0.0
1578,88.0,22.0,40.0,3.0,0.0
1579,86.0,27.0,40.0,3.0,0.0
1580,76.0,11.0,120.0,4.0,0.0
1581,80.0,0.0,120.0,4.0,0.0
1582,88.0,33.0,40.0,3.0,0.0
1583,86.0,27.0,40.0,3.0,0.0
1584,88.0,22.0,40.0,3.0,0.0
1585,86.0,27.0,40.0,3.0,0.0
1586,88.0,33.0,40.0,3.0,0.0
1587,78.0,11.0,120.0,4.0,0.0
1588,74.0,0.0,120.0,4.0,0.0
1589,86.0,27.0,40.0,3.0,0.0
1590,88.0,22.0,40.0,3.0,0.0
1591,86.0,27.0,40.0,3.0,0.0
1592,76.0,0.0,120.0,4.0,0.0
1593,73.0,11.0,120.0,4.0,0.0
1594,88.0,33.0,40.0,3.0,0.0
1595,86.0,27.0,40.0,3.0,0.0
1596,88.0,22.0,40.0,3.0,0.0
1597,86.0,58.0,40.0,3.0,0.0
1598,85.0,40.0,90.0,3.0,0.0
1599,71.0,5.0,60.0,4.0,0.0
1600,74.0,6.0,60.0,4.0,0.0
1601,61.0,0.0,330.0,4.0,0.0
1602,64.0,0.0,300.0,4.0,0.0
1603,45.0,20.0,60.0,4.0,0.0
1604,86.0,59.0,90.0,3.0,0.0
1605,69.0,0.0,270.0,4.0,0.0
1606,33.0,0.0,240.0,10.0,0.0
1607,45.0,0.0,240.0,8.0,0.0
1608,69.0,0.0,240.0,5.0,0.0
1609,73.0,240.0,240.0,4.0,0.0
1610,85.0,0.0,240.0,3.0,0.0
1611,57.0,0.0,240.0,4.0,0.0
1612,61.0,0.0,240.0,6.0,0.0
1613,57.0,0.0,240.0,7.0,0.0
1614,61.0,240.0,330.0,4.0,0.0
1615,64.0,0.0,300.0,4.0,0.0
1616,45.0,240.0,60.0,4.0,0.0
1617,69.0,0.0,270.0,4.0,0.0
1618,73.0,0.0,240.0,4.0,0.0
1619,85.0,0.0,240.0,3.0,0.0
1620,57.0,0.0,240.0,4.0,0.0
1621,61.0,0.0,330.0,4.0,0.0
1622,45.0,240.0,60.0,4.0,0.0
1623,64.0,0.0,300.0,4.0,0.0
1624,69.0,0.0,270.0,4.0,0.0
1625,57.0,720.0,240.0,4.0,0.0
1626,85.0,0.0,240.0,3.0,0.0
1627,73.0,0.0,240.0,4.0,0.0
1628,40.0,0.0,1050.0,4.0,0.0
1629,62.0,0.0,570.0,4.0,0.0
1630,44.0,0.0,1020.0,4.0,0.0
1631,64.0,360.0,540.0,4.0,0.0
1632,47.0,0.0,1020.0,4.0,0.0
1633,68.0,0.0,510.0,4.0,0.0
1634,50.0,0.0,990.0,4.0,0.0
1635,52.0,0.0,960.0,4.0,0.0
1636,71.0,29.0,840.0,4.0,0.0
1637,83.0,70.0,870.0,3.0,0.0
1638,80.0,21.0,90.0,3.0,0.0
1639,68.0,240.0,120.0,4.0,0.0
1640,61.0,360.0,240.0,4.0,0.0
1641,69.0,0.0,240.0,4.0,0.0
1642,45.0,0.0,240.0,4.0,0.0
1643,81.0,0.0,240.0,3.0,0.0
1644,81.0,0.0,1440.0,3.0,0.0
1645,73.0,120.0,120.0,4.0,0.0
1646,69.0,0.0,120.0,4.0,0.0
1647,71.0,120.0,120.0,4.0,0.0
1648,74.0,0.0,120.0,4.0,0.0
1649,73.0,120.0,120.0,4.0,0.0
1650,76.0,0.0,120.0,4.0,0.0
1651,78.0,0.0,120.0,4.0,0.0
1652,74.0,120.0,120.0,4.0,0.0
1653,76.0,0.0,120.0,4.0,0.0
1654,73.0,120.0,120.0,4.0,0.0
1655,74.0,120.0,120.0,4.0,0.0
1656,78.0,0.0,120.0,4.0,0.0
1657,80.0,120.0,120.0,4.0,0.0
1658,71.0,0.0,120.0,4.0,0.0
1659,81.0,120.0,120.0,4.0,0.0
1660,73.0,0.0,120.0,4.0,0.0
1661,80.0,0.0,120.0,4.0,0.0
1662,71.0,120.0,120.0,4.0,0.0
1663,73.0,0.0,120.0,4.0,0.0
1664,81.0,120.0,120.0,4.0,0.0
1665,80.0,120.0,120.0,4.0,0.0
1666,71.0,0.0,120.0,4.0,0.0
1667,73.0,0.0,120.0,4.0,0.0
1668,81.0,240.0,120.0,4.0,0.0
1669,86.0,31.0,870.0,3.0,0.0
1670,69.0,240.0,480.0,4.0,0.0
1671,57.0,240.0,240.0,4.0,0.0
1672,66.0,0.0,240.0,4.0,0.0
1673,74.0,29.0,840.0,4.0,0.0
1674,57.0,120.0,240.0,4.0,0.0
1675,62.0,0.0,240.0,4.0,0.0
1676,88.0,31.0,90.0,3.0,0.0
1677,76.0,29.0,60.0,4.0,0.0
1678,90.0,211.0,90.0,3.0,0.0
1679,78.0,29.0,60.0,4.0,0.0
1680,88.0,0.0,240.0,3.0,0.0
1681,61.0,0.0,240.0,4.0,0.0
1682,57.0,279.0,240.0,4.0,0.0
1683,76.0,0.0,240.0,4.0,0.0
1684,73.0,21.0,90.0,3.0,0.0
1685,57.0,60.0,480.0,7.0,0.0
1686,69.0,60.0,1920.0,6.0,0.0
1687,64.0,0.0,480.0,7.0,0.0
1688,73.0,1.0,780.0,5.0,0.0
1689,45.0,60.0,60.0,4.0,0.0
1690,85.0,31.0,690.0,3.0,0.0
1691,57.0,60.0,60.0,4.0,0.0
1692,61.0,60.0,60.0,4.0,0.0
1693,64.0,60.0,60.0,4.0,0.0
1694,69.0,60.0,60.0,4.0,0.0
1695,73.0,60.0,60.0,4.0,0.0
1696,69.0,60.0,60.0,4.0,0.0
1697,64.0,0.0,60.0,4.0,0.0
1698,42.0,60.0,60.0,4.0,0.0
1699,54.0,26.0,480.0,7.0,0.0
1700,66.0,60.0,960.0,7.0,0.0
1701,54.0,60.0,60.0,4.0,0.0
1702,61.0,29.0,60.0,4.0,0.0
1703,66.0,59.0,60.0,4.0,0.0
1704,69.0,60.0,60.0,4.0,0.0
1705,74.0,11.0,180.0,5.0,0.0
1706,86.0,23.0,150.0,3.0,0.0
1707,73.0,26.0,60.0,4.0,0.0
1708,76.0,11.0,120.0,5.0,0.0
1709,69.0,49.0,60.0,4.0,0.0
1710,88.0,34.0,150.0,3.0,0.0
1711,66.0,0.0,60.0,4.0,0.0
1712,50.0,60.0,60.0,4.0,0.0
1713,62.0,0.0,480.0,7.0,0.0
1714,92.0,14.0,150.0,3.0,0.0
1715,80.0,20.0,150.0,5.0,0.0
1716,62.0,26.0,60.0,4.0,0.0
1717,66.0,60.0,60.0,4.0,0.0
1718,90.0,14.0,150.0,3.0,0.0
1719,78.0,20.0,150.0,5.0,0.0
1720,69.0,26.0,60.0,4.0,0.0
1721,76.0,20.0,150.0,5.0,0.0
1722,88.0,14.0,150.0,3.0,0.0
1723,71.0,60.0,60.0,4.0,0.0
1724,78.0,26.0,60.0,4.0,0.0
1725,74.0,31.0,90.0,5.0,0.0
1726,71.0,24.0,60.0,4.0,0.0
1727,86.0,5.0,90.0,3.0,0.0
1728,69.0,0.0,60.0,4.0,0.0
1729,40.0,60.0,60.0,4.0,0.0
1730,85.0,1.0,300.0,3.0,0.0
1731,73.0,36.0,330.0,5.0,0.0
1732,64.0,0.0,480.0,7.0,0.0
1733,52.0,60.0,60.0,4.0,0.0
1734,64.0,60.0,60.0,4.0,0.0
1735,69.0,59.0,60.0,4.0,0.0
1736,71.0,24.0,60.0,4.0,0.0
1737,83.0,31.0,510.0,3.0,0.0
1738,71.0,26.0,450.0,5.0,0.0
1739,76.0,60.0,60.0,4.0,0.0
1740,71.0,60.0,60.0,4.0,0.0
1741,69.0,0.0,60.0,4.0,0.0
1742,52.0,0.0,480.0,7.0,0.0
1743,52.0,60.0,60.0,4.0,0.0
1744,68.0,0.0,960.0,6.0,0.0
1745,64.0,60.0,15.0,4.0,0.0
1746,68.0,29.0,60.0,4.0,0.0
1747,73.0,16.0,150.0,5.0,0.0
1748,71.0,60.0,60.0,4.0,0.0
1749,85.0,18.0,150.0,3.0,0.0
1750,76.0,26.0,60.0,4.0,0.0
1751,86.0,34.0,150.0,3.0,0.0
1752,71.0,49.0,60.0,4.0,0.0
1753,74.0,11.0,120.0,5.0,0.0
1754,68.0,26.0,60.0,4.0,0.0
1755,61.0,0.0,480.0,7.0,0.0
1756,90.0,14.0,150.0,3.0,0.0
1757,78.0,20.0,150.0,5.0,0.0
1758,49.0,60.0,60.0,4.0,0.0
1759,61.0,26.0,60.0,4.0,0.0
1760,76.0,20.0,150.0,5.0,0.0
1761,64.0,60.0,60.0,4.0,0.0
1762,88.0,14.0,150.0,3.0,0.0
1763,68.0,26.0,60.0,4.0,0.0
1764,86.0,14.0,150.0,3.0,0.0
1765,74.0,20.0,150.0,5.0,0.0
1766,69.0,60.0,60.0,4.0,0.0
1767,76.0,26.0,60.0,4.0,0.0
1768,85.0,25.0,90.0,3.0,0.0
1769,69.0,24.0,60.0,4.0,0.0
1770,73.0,11.0,120.0,5.0,0.0
1771,68.0,60.0,60.0,4.0,0.0
1772,66.0,0.0,720.0,6.0,0.0
1773,71.0,6.0,300.0,5.0,0.0
1774,83.0,10.0,270.0,3.0,0.0
1775,62.0,26.0,960.0,7.0,0.0
1776,50.0,60.0,60.0,4.0,0.0
1777,62.0,60.0,60.0,4.0,0.0
1778,62.0,60.0,60.0,4.0,0.0
1779,66.0,44.0,60.0,4.0,0.0
1780,69.0,60.0,60.0,4.0,0.0
1781,81.0,10.0,420.0,3.0,0.0
1782,69.0,41.0,450.0,5.0,0.0
1783,74.0,60.0,60.0,4.0,0.0
1784,69.0,60.0,60.0,4.0,0.0
1785,66.0,60.0,60.0,4.0,0.0
1786,50.0,60.0,60.0,4.0,0.0
1787,62.0,60.0,15.0,4.0,0.0
1788,66.0,60.0,60.0,4.0,0.0
1789,71.0,60.0,60.0,4.0,0.0
1790,71.0,10.0,150.0,5.0,0.0
1791,68.0,11.0,180.0,6.0,0.0
1792,83.0,13.0,150.0,3.0,0.0
1793,74.0,26.0,60.0,4.0,0.0
1794,85.0,34.0,150.0,3.0,0.0
1795,69.0,5.0,90.0,6.0,0.0
1796,73.0,21.0,90.0,5.0,0.0
1797,71.0,34.0,60.0,4.0,0.0
1798,66.0,0.0,60.0,4.0,0.0
1799,74.0,0.0,150.0,5.0,0.0
1800,86.0,14.0,150.0,3.0,0.0
1801,66.0,0.0,480.0,7.0,0.0
1802,59.0,60.0,480.0,7.0,0.0
1803,50.0,60.0,60.0,4.0,0.0
1804,71.0,20.0,150.0,6.0,0.0
1805,59.0,26.0,60.0,4.0,0.0
1806,73.0,20.0,150.0,6.0,0.0
1807,76.0,0.0,150.0,5.0,0.0
1808,88.0,14.0,150.0,3.0,0.0
1809,62.0,60.0,60.0,4.0,0.0
1810,66.0,26.0,60.0,4.0,0.0
1811,78.0,20.0,150.0,5.0,0.0
1812,74.0,0.0,150.0,6.0,0.0
1813,71.0,60.0,60.0,4.0,0.0
1814,90.0,14.0,150.0,3.0,0.0
1815,74.0,26.0,60.0,4.0,0.0
1816,71.0,29.0,60.0,4.0,0.0
1817,74.0,0.0,90.0,5.0,0.0
1818,71.0,5.0,90.0,6.0,0.0
1819,86.0,26.0,90.0,3.0,0.0
1820,66.0,0.0,60.0,4.0,0.0
1821,40.0,60.0,60.0,4.0,0.0
1822,69.0,171.0,540.0,6.0,0.0
1823,52.0,96.0,960.0,7.0,0.0
1824,64.0,96.0,720.0,7.0,0.0
1825,73.0,10.0,540.0,5.0,0.0
1826,85.0,25.0,510.0,3.0,0.0
1827,52.0,60.0,60.0,4.0,0.0
1828,61.0,60.0,60.0,4.0,0.0
1829,64.0,60.0,60.0,4.0,0.0
1830,69.0,60.0,60.0,4.0,0.0
1831,73.0,60.0,60.0,4.0,0.0
1832,69.0,60.0,60.0,4.0,0.0
1833,64.0,34.0,60.0,4.0,0.0
1834,71.0,0.0,480.0,4.0,0.0
1835,68.0,0.0,480.0,4.0,0.0
1836,71.0,0.0,480.0,5.0,0.0
1837,83.0,0.0,480.0,3.0,0.0
1838,68.0,0.0,480.0,6.0,0.0
1839,64.0,0.0,90.0,8.0,0.0
1840,52.0,144.0,90.0,10.0,0.0
1841,59.0,0.0,90.0,8.0,0.0
1842,47.0,240.0,90.0,10.0,0.0
1843,56.0,312.0,90.0,8.0,0.0
1844,44.0,0.0,90.0,10.0,0.0
1845,71.0,0.0,180.0,5.0,0.0
1846,40.0,0.0,480.0,10.0,0.0
1847,83.0,110.0,750.0,3.0,0.0
1848,52.0,168.0,480.0,8.0,0.0
1849,64.0,240.0,180.0,7.0,0.0
1850,68.0,0.0,180.0,6.0,0.0
1851,68.0,72.0,180.0,6.0,0.0
1852,71.0,0.0,180.0,5.0,0.0
1853,64.0,0.0,180.0,7.0,0.0
1854,64.0,0.0,180.0,7.0,0.0
1855,71.0,0.0,180.0,5.0,0.0
1856,68.0,106.0,180.0,6.0,0.0
1857,64.0,0.0,180.0,7.0,0.0
1858,71.0,0.0,180.0,5.0,0.0
1859,85.0,24.0,150.0,3.0,0.0
1860,68.0,41.0,180.0,6.0,0.0
1861,83.0,177.0,90.0,3.0,0.0
1862,71.0,0.0,180.0,5.0,0.0
1863,88.0,22.0,150.0,3.0,0.0
1864,68.0,0.0,180.0,6.0,0.0
1865,64.0,98.0,180.0,7.0,0.0
1866,87.0,120.0,150.0,3.0,0.0
1867,85.0,22.0,150.0,3.0,0.0
1868,71.0,46.0,180.0,5.0,0.0
1869,68.0,0.0,180.0,6.0,0.0
1870,64.0,0.0,180.0,7.0,0.0
1871,83.0,194.0,90.0,3.0,0.0
1872,69.0,0.0,180.0,7.0,0.0
1873,66.0,0.0,180.0,6.0,0.0
1874,83.0,19.0,390.0,3.0,0.0
1875,71.0,0.0,180.0,5.0,0.0
1876,63.0,221.0,180.0,7.0,0.0
1877,63.0,0.0,180.0,7.0,0.0
1878,69.0,51.0,180.0,7.0,0.0
1879,71.0,0.0,180.0,5.0,0.0
1880,66.0,0.0,180.0,6.0,0.0
1881,85.0,189.0,90.0,3.0,0.0
1882,83.0,168.0,480.0,3.0,0.0
1883,69.0,0.0,180.0,7.0,0.0
1884,63.0,0.0,180.0,7.0,0.0
1885,71.0,240.0,180.0,5.0,0.0
1886,66.0,0.0,180.0,6.0,0.0
1887,66.0,0.0,180.0,6.0,0.0
1888,71.0,72.0,180.0,5.0,0.0
1889,63.0,0.0,180.0,7.0,0.0
1890,69.0,0.0,180.0,7.0,0.0
1891,69.0,0.0,180.0,7.0,0.0
1892,66.0,240.0,180.0,6.0,0.0
1893,71.0,0.0,180.0,5.0,0.0
1894,63.0,0.0,180.0,7.0,0.0
1895,66.0,101.0,180.0,6.0,0.0
1896,71.0,0.0,180.0,5.0,0.0
1897,69.0,0.0,180.0,7.0,0.0
1898,63.0,0.0,180.0,7.0,0.0
1899,78.0,139.0,90.0,3.0,0.0
1900,59.0,240.0,180.0,7.0,0.0
1901,71.0,0.0,180.0,5.0,0.0
1902,63.0,0.0,180.0,6.0,0.0
1903,69.0,0.0,180.0,7.0,0.0
1904,90.0,146.0,480.0,3.0,0.0
1905,63.0,0.0,180.0,6.0,0.0
1906,69.0,0.0,180.0,7.0,0.0
1907,71.0,0.0,180.0,5.0,0.0
1908,59.0,72.0,180.0,7.0,0.0
1909,88.0,22.0,150.0,3.0,0.0
1910,71.0,98.0,180.0,5.0,0.0
1911,69.0,0.0,180.0,7.0,0.0
1912,59.0,0.0,180.0,7.0,0.0
1913,63.0,0.0,180.0,6.0,0.0
1914,87.0,120.0,150.0,3.0,0.0
1915,85.0,22.0,150.0,3.0,0.0
1916,63.0,0.0,180.0,6.0,0.0
1917,69.0,36.0,180.0,7.0,0.0
1918,59.0,0.0,180.0,7.0,0.0
1919,71.0,0.0,180.0,5.0,0.0
1920,83.0,175.0,90.0,3.0,0.0
1921,83.0,29.0,150.0,3.0,0.0
1922,63.0,0.0,180.0,6.0,0.0
1923,71.0,0.0,180.0,5.0,0.0
1924,59.0,181.0,180.0,7.0,0.0
1925,69.0,0.0,180.0,7.0,0.0
1926,59.0,0.0,180.0,7.0,0.0
1927,71.0,0.0,180.0,5.0,0.0
1928,83.0,59.0,120.0,3.0,0.0
1929,63.0,476.0,180.0,6.0,0.0
1930,69.0,0.0,180.0,7.0,0.0
1931,52.0,0.0,960.0,7.0,0.0
1932,68.0,240.0,720.0,7.0,0.0
1933,83.0,55.0,390.0,3.0,0.0
1934,64.0,0.0,720.0,6.0,0.0
1935,71.0,41.0,690.0,5.0,0.0
1936,80.0,220.0,90.0,3.0,0.0
1937,83.0,49.0,480.0,3.0,0.0
1938,50.0,181.0,300.0,10.0,0.0
1939,62.0,0.0,300.0,8.0,0.0
1940,71.0,10.0,300.0,5.0,0.0
1941,68.0,0.0,240.0,6.0,0.0
1942,61.0,0.0,270.0,8.0,0.0
1943,64.0,29.0,240.0,7.0,0.0
1944,49.0,10.0,270.0,10.0,0.0
1945,73.0,170.0,270.0,5.0,0.0
1946,69.0,0.0,240.0,6.0,0.0
1947,74.0,15.0,210.0,5.0,0.0
1948,71.0,0.0,240.0,6.0,0.0
1949,59.0,0.0,210.0,8.0,0.0
1950,47.0,16.0,210.0,10.0,0.0
1951,62.0,120.0,240.0,7.0,0.0
1952,61.0,0.0,480.0,7.0,0.0
1953,64.0,0.0,480.0,7.0,0.0
1954,45.0,96.0,480.0,10.0,0.0
1955,76.0,0.0,480.0,5.0,0.0
1956,76.0,120.0,720.0,4.0,0.0
1957,57.0,0.0,480.0,8.0,0.0
1958,57.0,120.0,120.0,4.0,0.0
1959,64.0,120.0,120.0,4.0,0.0
1960,61.0,120.0,120.0,4.0,0.0
1961,64.0,0.0,120.0,4.0,0.0
1962,81.0,0.0,90.0,5.0,0.0
1963,73.0,0.0,15.0,6.0,0.0
1964,57.0,120.0,120.0,4.0,0.0
1965,64.0,0.0,120.0,4.0,0.0
1966,78.0,120.0,120.0,4.0,0.0
1967,61.0,0.0,120.0,4.0,0.0
1968,76.0,0.0,120.0,4.0,0.0
1969,64.0,96.0,120.0,4.0,0.0
1970,81.0,120.0,120.0,4.0,0.0
1971,57.0,0.0,120.0,4.0,0.0
1972,85.0,24.0,90.0,5.0,0.0
1973,76.0,0.0,90.0,6.0,0.0
1974,80.0,120.0,120.0,4.0,0.0
1975,64.0,0.0,120.0,4.0,0.0
1976,78.0,0.0,120.0,4.0,0.0
1977,61.0,120.0,120.0,4.0,0.0
1978,76.0,120.0,120.0,4.0,0.0
1979,64.0,0.0,120.0,4.0,0.0
1980,56.0,96.0,480.0,8.0,0.0
1981,76.0,120.0,360.0,4.0,0.0
1982,56.0,120.0,120.0,4.0,0.0
1983,44.0,0.0,480.0,10.0,0.0
1984,62.0,120.0,120.0,4.0,0.0
1985,59.0,0.0,120.0,4.0,0.0
1986,62.0,0.0,120.0,4.0,0.0
1987,78.0,0.0,120.0,4.0,0.0
1988,56.0,120.0,120.0,4.0,0.0
1989,76.0,0.0,480.0,4.0,0.0
1990,76.0,0.0,90.0,6.0,0.0
1991,83.0,24.0,90.0,5.0,0.0
1992,88.0,55.0,390.0,3.0,0.0
1993,62.0,120.0,120.0,4.0,0.0
1994,59.0,44.0,120.0,4.0,0.0
1995,90.0,21.0,90.0,3.0,0.0
1996,62.0,96.0,120.0,4.0,0.0
1997,83.0,24.0,90.0,6.0,0.0
1998,59.0,120.0,120.0,4.0,0.0
1999,86.0,0.0,90.0,5.0,0.0
2000,88.0,120.0,480.0,3.0,0.0
2001,62.0,120.0,120.0,4.0,0.0
2002,59.0,120.0,120.0,4.0,0.0
2003,62.0,0.0,120.0,4.0,0.0
2004,71.0,0.0,60.0,4.0,0.0
2005,83.0,60.0,720.0,4.0,0.0
2006,52.0,120.0,120.0,4.0,0.0
2007,52.0,0.0,480.0,8.0,0.0
2008,40.0,96.0,480.0,10.0,0.0
2009,62.0,120.0,120.0,4.0,0.0
2010,56.0,120.0,120.0,4.0,0.0
2011,62.0,0.0,120.0,4.0,0.0
2012,80.0,0.0,90.0,6.0,0.0
2013,83.0,24.0,90.0,5.0,0.0
2014,52.0,120.0,120.0,4.0,0.0
2015,62.0,0.0,120.0,4.0,0.0
2016,81.0,60.0,60.0,4.0,0.0
2017,56.0,60.0,120.0,4.0,0.0
2018,80.0,0.0,60.0,4.0,0.0
2019,78.0,60.0,60.0,4.0,0.0
2020,62.0,69.0,120.0,4.0,0.0
2021,76.0,0.0,60.0,4.0,0.0
2022,86.0,24.0,90.0,5.0,0.0
2023,76.0,27.0,60.0,4.0,0.0
2024,52.0,64.0,120.0,4.0,0.0
2025,83.0,0.0,90.0,6.0,0.0
2026,62.0,74.0,120.0,4.0,0.0
2027,76.0,56.0,60.0,4.0,0.0
2028,76.0,46.0,60.0,4.0,0.0
2029,56.0,120.0,120.0,4.0,0.0
2030,62.0,0.0,120.0,4.0,0.0
2031,76.0,120.0,120.0,4.0,0.0
2032,76.0,120.0,360.0,4.0,0.0
2033,57.0,120.0,120.0,4.0,0.0
2034,45.0,96.0,480.0,10.0,0.0
2035,57.0,0.0,480.0,8.0,0.0
2036,64.0,120.0,120.0,4.0,0.0
2037,61.0,0.0,120.0,4.0,0.0
2038,73.0,0.0,120.0,4.0,0.0
2039,64.0,0.0,120.0,4.0,0.0
2040,85.0,24.0,90.0,5.0,0.0
2041,76.0,0.0,480.0,4.0,0.0
2042,88.0,65.0,390.0,3.0,0.0
2043,57.0,120.0,120.0,4.0,0.0
2044,81.0,0.0,90.0,6.0,0.0
2045,64.0,120.0,120.0,4.0,0.0
2046,61.0,29.0,120.0,4.0,0.0
2047,64.0,96.0,120.0,4.0,0.0
2048,85.0,26.0,90.0,3.0,0.0
2049,57.0,4.0,120.0,4.0,0.0
2050,88.0,24.0,90.0,5.0,0.0
2051,85.0,0.0,90.0,6.0,0.0
2052,88.0,116.0,120.0,3.0,0.0
2053,64.0,119.0,120.0,4.0,0.0
2054,88.0,1.0,120.0,3.0,0.0
2055,61.0,120.0,120.0,4.0,0.0
2056,64.0,120.0,120.0,4.0,0.0
2057,42.0,96.0,480.0,10.0,0.0
2058,54.0,0.0,480.0,8.0,0.0
2059,81.0,0.0,120.0,4.0,0.0
2060,54.0,49.0,120.0,4.0,0.0
2061,88.0,35.0,180.0,3.0,0.0
2062,87.0,36.0,90.0,3.0,0.0
2063,59.0,120.0,120.0,4.0,0.0
2064,71.0,0.0,120.0,4.0,0.0
2065,75.0,120.0,120.0,4.0,0.0
2066,57.0,0.0,120.0,4.0,0.0
2067,87.0,86.0,390.0,3.0,0.0
2068,71.0,0.0,120.0,4.0,0.0
2069,59.0,0.0,120.0,4.0,0.0
2070,75.0,0.0,90.0,5.0,0.0
2071,81.0,0.0,120.0,4.0,0.0
2072,54.0,34.0,120.0,4.0,0.0
2073,69.0,24.0,90.0,6.0,0.0
2074,88.0,94.0,150.0,3.0,0.0
2075,71.0,0.0,120.0,4.0,0.0
2076,59.0,26.0,120.0,4.0,0.0
2077,90.0,94.0,150.0,3.0,0.0
2078,57.0,26.0,120.0,4.0,0.0
2079,75.0,0.0,120.0,4.0,0.0
2080,88.0,70.0,150.0,3.0,0.0
2081,59.0,26.0,120.0,4.0,0.0
2082,71.0,0.0,120.0,4.0,0.0
2083,81.0,0.0,90.0,5.0,0.0
2084,75.0,24.0,90.0,6.0,0.0
2085,81.0,26.0,120.0,4.0,0.0
2086,87.0,94.0,150.0,3.0,0.0
2087,54.0,0.0,120.0,4.0,0.0
2088,59.0,0.0,120.0,4.0,0.0
2089,85.0,94.0,150.0,3.0,0.0
2090,71.0,26.0,120.0,4.0,0.0
2091,75.0,26.0,120.0,4.0,0.0
2092,57.0,0.0,120.0,4.0,0.0
2093,83.0,53.0,150.0,3.0,0.0
2094,71.0,120.0,120.0,4.0,0.0
2095,59.0,0.0,120.0,4.0,0.0
2096,81.0,41.0,90.0,3.0,0.0
2097,83.0,0.0,120.0,4.0,0.0
2098,52.0,34.0,120.0,4.0,0.0
2099,40.0,96.0,480.0,10.0,0.0
2100,52.0,0.0,480.0,8.0,0.0
2101,81.0,86.0,150.0,3.0,0.0
2102,59.0,29.0,120.0,4.0,0.0
2103,71.0,0.0,120.0,4.0,0.0
2104,80.0,91.0,150.0,3.0,0.0
2105,85.0,74.0,120.0,3.0,0.0
2106,76.0,0.0,120.0,4.0,0.0
2107,56.0,0.0,120.0,4.0,0.0
2108,59.0,0.0,120.0,4.0,0.0
2109,71.0,0.0,120.0,4.0,0.0
2110,83.0,46.0,60.0,3.0,0.0
2111,80.0,120.0,120.0,4.0,0.0
2112,76.0,0.0,90.0,6.0,0.0
2113,52.0,0.0,120.0,4.0,0.0
2114,83.0,76.0,390.0,3.0,0.0
2115,80.0,24.0,90.0,5.0,0.0
2116,59.0,120.0,120.0,4.0,0.0
2117,71.0,0.0,120.0,4.0,0.0
2118,56.0,44.0,120.0,4.0,0.0
2119,76.0,0.0,120.0,4.0,0.0
2120,59.0,0.0,120.0,4.0,0.0
2121,71.0,96.0,120.0,4.0,0.0
2122,87.0,24.0,90.0,5.0,0.0
2123,81.0,0.0,90.0,6.0,0.0
2124,87.0,26.0,120.0,4.0,0.0
2125,66.0,0.0,120.0,4.0,0.0
2126,66.0,0.0,480.0,7.0,0.0
2127,93.0,94.0,150.0,3.0,0.0
2128,81.0,26.0,120.0,4.0,0.0
2129,71.0,0.0,120.0,4.0,0.0
2130,90.0,94.0,150.0,3.0,0.0
2131,83.0,26.0,120.0,4.0,0.0
2132,88.0,94.0,150.0,3.0,0.0
2133,69.0,0.0,120.0,4.0,0.0
2134,87.0,0.0,120.0,3.0,0.0
2135,81.0,0.0,120.0,4.0,0.0
2136,71.0,73.0,120.0,4.0,0.0
2137,88.0,13.0,120.0,4.0,0.0
2138,64.0,0.0,120.0,4.0,0.0
2139,80.0,0.0,480.0,6.0,0.0
2140,64.0,13.0,480.0,7.0,0.0
2141,90.0,47.0,60.0,3.0,0.0
2142,88.0,0.0,480.0,5.0,0.0
2143,88.0,21.0,60.0,3.0,0.0
2144,80.0,7.0,120.0,4.0,0.0
2145,71.0,0.0,120.0,4.0,0.0
2146,90.0,33.0,30.0,3.0,0.0
2147,88.0,27.0,40.0,3.0,0.0
2148,90.0,26.0,30.0,3.0,0.0
2149,88.0,27.0,40.0,3.0,0.0
2150,68.0,7.0,120.0,4.0,0.0
2151,83.0,0.0,120.0,4.0,0.0
2152,90.0,33.0,30.0,3.0,0.0
2153,88.0,27.0,40.0,3.0,0.0
2154,90.0,26.0,30.0,3.0,0.0
2155,88.0,66.0,40.0,3.0,0.0
2156,87.0,47.0,60.0,3.0,0.0
2157,71.0,0.0,120.0,4.0,0.0
2158,80.0,0.0,120.0,4.0,0.0
2159,88.0,467.0,60.0,3.0,0.0
2160,76.0,39.0,480.0,3.0,0.0
2161,64.0,0.0,480.0,4.0,0.0
2162,88.0,0.0,480.0,4.0,0.0
2163,56.0,10.0,270.0,7.0,0.0
2164,50.0,0.0,300.0,10.0,0.0
2165,62.0,220.0,300.0,8.0,0.0
2166,59.0,10.0,300.0,7.0,0.0
2167,49.0,0.0,270.0,10.0,0.0
2168,61.0,0.0,270.0,8.0,0.0
2169,57.0,200.0,270.0,7.0,0.0
2170,62.0,480.0,240.0,7.0,0.0
2171,47.0,1.0,240.0,10.0,0.0
2172,59.0,0.0,240.0,8.0,0.0
2173,45.0,160.0,960.0,10.0,0.0
2174,76.0,0.0,480.0,5.0,0.0
2175,57.0,0.0,960.0,8.0,0.0
2176,61.0,0.0,480.0,7.0,0.0
2177,64.0,191.0,540.0,7.0,0.0
2178,73.0,49.0,480.0,6.0,0.0
2179,73.0,0.0,240.0,5.0,0.0
2180,69.0,164.0,240.0,6.0,0.0
2181,61.0,0.0,240.0,7.0,0.0
2182,57.0,0.0,240.0,7.0,0.0
2183,69.0,0.0,40.0,6.0,0.0
2184,73.0,0.0,40.0,5.0,0.0
2185,61.0,76.0,40.0,7.0,0.0
2186,57.0,0.0,40.0,7.0,0.0
2187,71.0,0.0,150.0,6.0,0.0
2188,62.0,120.0,150.0,7.0,0.0
2189,59.0,0.0,150.0,7.0,0.0
2190,74.0,0.0,150.0,5.0,0.0
2191,76.0,0.0,150.0,5.0,0.0
2192,64.0,120.0,150.0,7.0,0.0
2193,61.0,0.0,150.0,7.0,0.0
2194,73.0,0.0,150.0,6.0,0.0
2195,78.0,0.0,150.0,5.0,0.0
2196,66.0,0.0,150.0,7.0,0.0
2197,74.0,0.0,150.0,6.0,0.0
2198,62.0,80.0,150.0,7.0,0.0
2199,76.0,0.0,120.0,6.0,0.0
2200,80.0,287.0,120.0,5.0,0.0
2201,64.0,0.0,120.0,7.0,0.0
2202,68.0,0.0,120.0,7.0,0.0
2203,81.0,0.0,300.0,5.0,0.0
2204,78.0,240.0,300.0,6.0,0.0
2205,69.0,0.0,300.0,7.0,0.0
2206,66.0,0.0,300.0,7.0,0.0
2207,80.0,0.0,300.0,5.0,0.0
2208,68.0,0.0,300.0,7.0,0.0
2209,64.0,240.0,300.0,7.0,0.0
2210,76.0,0.0,300.0,6.0,0.0
2211,62.0,240.0,300.0,7.0,0.0
2212,66.0,0.0,300.0,7.0,0.0
2213,74.0,0.0,300.0,6.0,0.0
2214,78.0,0.0,300.0,5.0,0.0
2215,73.0,0.0,300.0,6.0,0.0
2216,76.0,240.0,300.0,5.0,0.0
2217,64.0,0.0,300.0,7.0,0.0
2218,61.0,0.0,300.0,7.0,0.0
2219,71.0,0.0,300.0,6.0,0.0
2220,59.0,0.0,300.0,7.0,0.0
2221,62.0,0.0,300.0,7.0,0.0
2222,74.0,193.0,300.0,5.0,0.0
2223,61.0,0.0,240.0,7.0,0.0
2224,57.0,0.0,240.0,7.0,0.0
2225,69.0,480.0,240.0,6.0,0.0
2226,73.0,0.0,240.0,5.0,0.0
2227,52.0,0.0,510.0,10.0,0.0
2228,64.0,500.0,510.0,8.0,0.0
2229,71.0,0.0,480.0,5.0,0.0
2230,59.0,0.0,480.0,7.0,0.0
2231,62.0,39.0,480.0,7.0,0.0
2232,68.0,0.0,480.0,6.0,0.0
2233,50.0,220.0,540.0,10.0,0.0
2234,62.0,0.0,540.0,8.0,0.0
2235,83.0,0.0,780.0,5.0,0.0
2236,68.0,10.0,780.0,7.0,0.0
2237,71.0,145.0,780.0,7.0,0.0
2238,80.0,10.0,750.0,6.0,0.0
2239,49.0,0.0,480.0,10.0,0.0
2240,61.0,0.0,480.0,8.0,0.0
2241,73.0,0.0,240.0,7.0,0.0
2242,70.0,0.0,240.0,7.0,0.0
2243,85.0,36.0,210.0,5.0,0.0
2244,47.0,0.0,720.0,10.0,0.0
2245,70.0,5.0,390.0,7.0,0.0
2246,85.0,55.0,390.0,5.0,0.0
2247,73.0,10.0,390.0,7.0,0.0
2248,82.0,389.0,15.0,6.0,0.0
2249,86.0,0.0,90.0,5.0,0.0
2250,74.0,5.0,90.0,7.0,0.0
2251,71.0,0.0,90.0,7.0,0.0
2252,83.0,256.0,90.0,6.0,0.0
2253,86.0,20.0,750.0,5.0,0.0
2254,71.0,0.0,480.0,7.0,0.0
2255,83.0,97.0,780.0,6.0,0.0
2256,74.0,120.0,600.0,3.0,0.0
2257,74.0,120.0,480.0,7.0,0.0
2258,47.0,0.0,240.0,10.0,0.0
2259,59.0,240.0,15.0,8.0,0.0
2260,44.0,0.0,240.0,10.0,0.0
2261,56.0,26.0,240.0,8.0,0.0
2262,80.0,3.0,150.0,3.0,0.0
2263,71.0,31.0,210.0,6.0,0.0
2264,74.0,0.0,210.0,5.0,0.0
2265,83.0,58.0,150.0,3.0,0.0
2266,40.0,0.0,240.0,10.0,0.0
2267,52.0,0.0,240.0,8.0,0.0
2268,86.0,5.0,90.0,3.0,0.0
2269,45.0,120.0,60.0,4.0,0.0
2270,73.0,15.0,1020.0,5.0,0.0
2271,64.0,0.0,1020.0,7.0,0.0
2272,61.0,0.0,1020.0,7.0,0.0
2273,45.0,0.0,480.0,10.0,0.0
2274,57.0,73.0,480.0,8.0,0.0
2275,85.0,46.0,420.0,3.0,0.0
2276,69.0,9.0,1020.0,6.0,0.0
2277,57.0,0.0,480.0,4.0,0.0
2278,69.0,120.0,120.0,4.0,0.0
2279,76.0,120.0,120.0,4.0,0.0
2280,73.0,74.0,120.0,4.0,0.0
2281,76.0,0.0,120.0,4.0,0.0
2282,86.0,47.0,60.0,3.0,0.0
2283,69.0,13.0,120.0,4.0,0.0
2284,85.0,21.0,60.0,3.0,0.0
2285,86.0,33.0,30.0,3.0,0.0
2286,76.0,7.0,120.0,4.0,0.0
2287,85.0,27.0,40.0,3.0,0.0
2288,86.0,26.0,30.0,3.0,0.0
2289,85.0,27.0,40.0,3.0,0.0
2290,73.0,7.0,120.0,4.0,0.0
2291,86.0,33.0,30.0,3.0,0.0
2292,85.0,27.0,40.0,3.0,0.0
2293,86.0,26.0,30.0,3.0,0.0
2294,85.0,66.0,40.0,3.0,0.0
2295,83.0,47.0,60.0,3.0,0.0
2296,76.0,13.0,120.0,4.0,0.0
2297,85.0,36.0,60.0,3.0,0.0
2298,71.0,13.0,120.0,4.0,0.0
2299,74.0,0.0,480.0,5.0,0.0
2300,88.0,47.0,60.0,3.0,0.0
2301,71.0,13.0,480.0,6.0,0.0
2302,62.0,0.0,480.0,7.0,0.0
2303,59.0,0.0,480.0,7.0,0.0
2304,86.0,21.0,60.0,3.0,0.0
2305,76.0,7.0,120.0,4.0,0.0
2306,88.0,33.0,30.0,3.0,0.0
2307,86.0,27.0,40.0,3.0,0.0
2308,88.0,26.0,30.0,3.0,0.0
2309,86.0,27.0,40.0,3.0,0.0
2310,74.0,7.0,120.0,4.0,0.0
2311,88.0,33.0,30.0,3.0,0.0
2312,86.0,27.0,40.0,3.0,0.0
2313,88.0,26.0,30.0,3.0,0.0
2314,86.0,66.0,40.0,3.0,0.0
2315,76.0,0.0,120.0,4.0,0.0
2316,85.0,47.0,60.0,3.0,0.0
2317,45.0,0.0,60.0,4.0,0.0
2318,86.0,107.0,60.0,3.0,0.0
2319,57.0,0.0,480.0,4.0,0.0
2320,61.0,5.0,1470.0,7.0,0.0
2321,57.0,0.0,1500.0,7.0,0.0
2322,73.0,0.0,1500.0,6.0,0.0
2323,88.0,45.0,390.0,3.0,0.0
2324,69.0,120.0,120.0,4.0,0.0
2325,76.0,105.0,1500.0,5.0,0.0
2326,76.0,120.0,120.0,4.0,0.0
2327,73.0,39.0,120.0,4.0,0.0
2328,85.0,36.0,90.0,3.0,0.0
2329,76.0,120.0,120.0,4.0,0.0
2330,93.0,120.0,720.0,3.0,0.0
2331,69.0,120.0,120.0,4.0,0.0
2332,76.0,120.0,120.0,4.0,0.0
2333,73.0,120.0,120.0,4.0,0.0
2334,76.0,120.0,120.0,4.0,0.0
2335,69.0,120.0,120.0,4.0,0.0
2336,76.0,0.0,120.0,4.0,0.0
2337,88.0,56.0,180.0,3.0,0.0
2338,73.0,64.0,120.0,4.0,0.0
2339,76.0,44.0,120.0,4.0,0.0
2340,74.0,0.0,240.0,5.0,0.0
2341,62.0,0.0,240.0,7.0,0.0
2342,88.0,50.0,150.0,3.0,0.0
2343,62.0,0.0,240.0,4.0,0.0
2344,71.0,44.0,240.0,6.0,0.0
2345,66.0,0.0,240.0,7.0,0.0
2346,78.0,0.0,120.0,4.0,0.0
2347,86.0,36.0,90.0,3.0,0.0
2348,86.0,44.0,120.0,4.0,0.0
2349,90.0,76.0,40.0,3.0,0.0
2350,86.0,76.0,40.0,3.0,0.0
2351,83.0,159.0,120.0,4.0,0.0
2352,86.0,55.0,150.0,3.0,0.0
2353,73.0,0.0,240.0,5.0,0.0
2354,64.0,44.0,240.0,4.0,0.0
2355,64.0,0.0,240.0,7.0,0.0
2356,69.0,0.0,240.0,6.0,0.0
2357,85.0,26.0,90.0,3.0,0.0
2358,76.0,0.0,120.0,4.0,0.0
2359,85.0,44.0,120.0,4.0,0.0
2360,88.0,76.0,40.0,3.0,0.0
2361,85.0,76.0,40.0,3.0,0.0
2362,81.0,164.0,120.0,4.0,0.0
2363,64.0,0.0,240.0,7.0,0.0
2364,85.0,40.0,150.0,3.0,0.0
2365,71.0,44.0,240.0,5.0,0.0
2366,62.0,0.0,240.0,7.0,0.0
2367,68.0,0.0,240.0,6.0,0.0
2368,52.0,0.0,240.0,4.0,0.0
2369,74.0,0.0,120.0,4.0,0.0
2370,83.0,36.0,90.0,3.0,0.0
2371,83.0,44.0,120.0,4.0,0.0
2372,86.0,76.0,40.0,3.0,0.0
2373,80.0,480.0,120.0,4.0,0.0
2374,83.0,76.0,40.0,3.0,0.0
2375,81.0,0.0,480.0,3.0,0.0
2376,64.0,5.0,510.0,7.0,0.0
2377,73.0,0.0,480.0,4.0,0.0
2378,57.0,0.0,960.0,8.0,0.0
2379,76.0,191.0,540.0,5.0,0.0
2380,73.0,0.0,510.0,6.0,0.0
2381,61.0,44.0,480.0,7.0,0.0
2382,57.0,0.0,480.0,4.0,0.0
2383,45.0,160.0,960.0,10.0,0.0
2384,76.0,0.0,480.0,4.0,0.0
2385,81.0,0.0,480.0,4.0,0.0
2386,57.0,0.0,240.0,7.0,0.0
2387,69.0,0.0,240.0,6.0,0.0
2388,73.0,132.0,240.0,5.0,0.0
2389,61.0,0.0,240.0,7.0,0.0
2390,73.0,0.0,40.0,5.0,0.0
2391,57.0,32.0,15.0,7.0,0.0
2392,61.0,76.0,40.0,7.0,0.0
2393,69.0,0.0,40.0,6.0,0.0
2394,71.0,0.0,150.0,6.0,0.0
2395,62.0,120.0,150.0,7.0,0.0
2396,74.0,0.0,150.0,5.0,0.0
2397,59.0,0.0,150.0,7.0,0.0
2398,76.0,0.0,150.0,5.0,0.0
2399,73.0,0.0,150.0,6.0,0.0
2400,64.0,120.0,150.0,7.0,0.0
2401,61.0,0.0,150.0,7.0,0.0
2402,74.0,0.0,150.0,6.0,0.0
2403,66.0,0.0,150.0,7.0,0.0
2404,78.0,0.0,150.0,5.0,0.0
2405,62.0,80.0,150.0,7.0,0.0
2406,68.0,300.0,120.0,7.0,0.0
2407,64.0,0.0,120.0,7.0,0.0
2408,76.0,0.0,120.0,6.0,0.0
2409,80.0,0.0,120.0,5.0,0.0
2410,78.0,0.0,300.0,6.0,0.0
2411,81.0,0.0,300.0,5.0,0.0
2412,69.0,0.0,300.0,7.0,0.0
2413,66.0,240.0,300.0,7.0,0.0
2414,80.0,0.0,300.0,5.0,0.0
2415,76.0,0.0,300.0,6.0,0.0
2416,64.0,240.0,300.0,7.0,0.0
2417,68.0,0.0,300.0,7.0,0.0
2418,78.0,0.0,300.0,5.0,0.0
2419,62.0,0.0,300.0,7.0,0.0
2420,74.0,240.0,300.0,6.0,0.0
2421,66.0,0.0,300.0,7.0,0.0
2422,64.0,0.0,300.0,7.0,0.0
2423,61.0,0.0,300.0,7.0,0.0
2424,73.0,0.0,300.0,6.0,0.0
2425,76.0,240.0,300.0,5.0,0.0
2426,62.0,0.0,300.0,7.0,0.0
2427,74.0,180.0,300.0,5.0,0.0
2428,71.0,0.0,300.0,6.0,0.0
2429,59.0,0.0,300.0,7.0,0.0
2430,73.0,0.0,240.0,5.0,0.0
2431,61.0,0.0,240.0,7.0,0.0
2432,57.0,0.0,240.0,7.0,0.0
2433,69.0,529.0,15.0,6.0,0.0
2434,39.0,10.0,540.0,10.0,0.0
2435,51.0,0.0,540.0,8.0,0.0
2436,71.0,5.0,990.0,5.0,0.0
2437,59.0,0.0,1020.0,7.0,0.0
2438,57.0,460.0,540.0,7.0,0.0
2439,52.0,0.0,540.0,8.0,0.0
2440,68.0,416.0,540.0,6.0,0.0
2441,56.0,0.0,540.0,7.0,0.0
2442,40.0,15.0,540.0,10.0,0.0
2443,33.0,0.0,480.0,10.0,0.0
2444,67.0,0.0,480.0,6.0,0.0
2445,45.0,399.0,480.0,8.0,0.0
2446,73.0,0.0,15.0,5.0,0.0
2447,55.0,0.0,15.0,7.0,0.0
2448,61.0,0.0,15.0,7.0,0.0
2449,50.0,0.0,540.0,8.0,0.0
2450,38.0,480.0,540.0,10.0,0.0
2451,67.0,5.0,390.0,6.0,0.0
2452,54.0,0.0,90.0,7.0,0.0
2453,62.0,75.0,90.0,7.0,0.0
2454,66.0,5.0,90.0,6.0,0.0
2455,74.0,0.0,90.0,5.0,0.0
2456,86.0,146.0,600.0,3.0,0.0
2457,66.0,0.0,540.0,6.0,0.0
2458,35.0,5.0,540.0,10.0,0.0
2459,54.0,56.0,540.0,7.0,0.0
2460,62.0,0.0,540.0,7.0,0.0
2461,47.0,0.0,540.0,8.0,0.0
2462,74.0,0.0,960.0,5.0,0.0
2463,68.0,0.0,480.0,6.0,0.0
2464,40.0,120.0,480.0,10.0,0.0
2465,52.0,0.0,480.0,8.0,0.0
2466,59.0,0.0,480.0,7.0,0.0
2467,83.0,120.0,150.0,3.0,0.0
2468,80.0,63.0,150.0,3.0,0.0
2469,74.0,31.0,90.0,3.0,0.0
2470,52.0,0.0,480.0,7.0,0.0
2471,45.0,80.0,480.0,8.0,0.0
2472,73.0,0.0,480.0,5.0,0.0
2473,57.0,120.0,120.0,4.0,0.0
2474,61.0,0.0,480.0,7.0,0.0
2475,73.0,40.0,570.0,3.0,0.0
2476,33.0,0.0,480.0,10.0,0.0
2477,69.0,0.0,480.0,6.0,0.0
2478,64.0,120.0,120.0,4.0,0.0
2479,61.0,120.0,120.0,4.0,0.0
2480,64.0,0.0,120.0,4.0,0.0
2481,57.0,53.0,120.0,4.0,0.0
2482,76.0,67.0,90.0,3.0,0.0
2483,64.0,18.0,120.0,4.0,0.0
2484,74.0,80.0,90.0,3.0,0.0
2485,73.0,22.0,90.0,3.0,0.0
2486,61.0,53.0,120.0,4.0,0.0
2487,74.0,67.0,90.0,3.0,0.0
2488,64.0,18.0,120.0,4.0,0.0
2489,76.0,26.0,90.0,3.0,0.0
2490,59.0,53.0,120.0,4.0,0.0
2491,74.0,76.0,40.0,3.0,0.0
2492,78.0,67.0,90.0,3.0,0.0
2493,64.0,18.0,120.0,4.0,0.0
2494,76.0,80.0,90.0,3.0,0.0
2495,74.0,22.0,90.0,3.0,0.0
2496,62.0,53.0,120.0,4.0,0.0
2497,76.0,47.0,90.0,3.0,0.0
2498,64.0,120.0,120.0,4.0,0.0
2499,78.0,20.0,60.0,3.0,0.0
2500,76.0,80.0,480.0,3.0,0.0
2501,33.0,0.0,240.0,10.0,0.0
2502,45.0,120.0,240.0,8.0,0.0
2503,76.0,40.0,570.0,4.0,0.0
2504,57.0,120.0,120.0,4.0,0.0
2505,64.0,0.0,120.0,4.0,0.0
2506,61.0,120.0,120.0,4.0,0.0
2507,64.0,0.0,120.0,4.0,0.0
2508,57.0,36.0,120.0,4.0,0.0
2509,37.0,0.0,240.0,10.0,0.0
2510,49.0,80.0,240.0,8.0,0.0
2511,78.0,84.0,90.0,4.0,0.0
2512,64.0,0.0,120.0,4.0,0.0
2513,80.0,0.0,90.0,4.0,0.0
2514,81.0,40.0,90.0,4.0,0.0
2515,61.0,36.0,120.0,4.0,0.0
2516,83.0,84.0,90.0,4.0,0.0
2517,64.0,0.0,120.0,4.0,0.0
2518,85.0,80.0,90.0,4.0,0.0
2519,59.0,36.0,120.0,4.0,0.0
2520,86.0,40.0,90.0,4.0,0.0
2521,52.0,0.0,240.0,8.0,0.0
2522,40.0,0.0,240.0,10.0,0.0
2523,85.0,84.0,90.0,4.0,0.0
2524,64.0,0.0,120.0,4.0,0.0
2525,83.0,80.0,90.0,4.0,0.0
2526,62.0,36.0,120.0,4.0,0.0
2527,81.0,40.0,90.0,4.0,0.0
2528,85.0,84.0,90.0,4.0,0.0
2529,64.0,0.0,120.0,4.0,0.0
2530,80.0,39.0,90.0,4.0,0.0
2531,73.0,81.0,90.0,3.0,0.0
2532,57.0,0.0,480.0,8.0,0.0
2533,85.0,16.0,450.0,3.0,0.0
2534,73.0,0.0,1020.0,5.0,0.0
2535,45.0,0.0,480.0,10.0,0.0
2536,69.0,15.0,1020.0,6.0,0.0
2537,57.0,120.0,120.0,4.0,0.0
2538,81.0,99.0,480.0,4.0,0.0
2539,64.0,30.0,1020.0,7.0,0.0
2540,61.0,0.0,1020.0,7.0,0.0
2541,64.0,120.0,120.0,4.0,0.0
2542,61.0,104.0,120.0,4.0,0.0
2543,64.0,0.0,120.0,4.0,0.0
2544,69.0,99.0,120.0,4.0,0.0
2545,85.0,21.0,90.0,3.0,0.0
2546,76.0,60.0,120.0,4.0,0.0
2547,85.0,21.0,90.0,3.0,0.0
2548,86.0,60.0,60.0,3.0,0.0
2549,73.0,60.0,120.0,4.0,0.0
2550,85.0,0.0,60.0,3.0,0.0
2551,76.0,49.0,120.0,4.0,0.0
2552,83.0,60.0,60.0,3.0,0.0
2553,85.0,0.0,60.0,3.0,0.0
2554,71.0,0.0,480.0,6.0,0.0
2555,86.0,26.0,90.0,3.0,0.0
2556,74.0,0.0,480.0,5.0,0.0
2557,62.0,71.0,540.0,7.0,0.0
2558,59.0,0.0,540.0,7.0,0.0
2559,71.0,109.0,120.0,4.0,0.0
2560,86.0,11.0,120.0,3.0,0.0
2561,76.0,60.0,120.0,4.0,0.0
2562,74.0,0.0,120.0,4.0,0.0
2563,88.0,60.0,60.0,3.0,0.0
2564,86.0,60.0,60.0,3.0,0.0
2565,85.0,60.0,60.0,3.0,0.0
2566,86.0,0.0,60.0,3.0,0.0
2567,76.0,0.0,60.0,4.0,0.0
2568,88.0,55.0,390.0,3.0,0.0
2569,45.0,0.0,240.0,10.0,0.0
2570,73.0,0.0,240.0,6.0,0.0
2571,76.0,0.0,240.0,5.0,0.0
2572,57.0,0.0,240.0,8.0,0.0
2573,57.0,0.0,240.0,7.0,0.0
2574,61.0,0.0,240.0,7.0,0.0
2575,69.0,120.0,120.0,4.0,0.0
2576,88.0,0.0,480.0,4.0,0.0
2577,76.0,120.0,120.0,4.0,0.0
2578,73.0,34.0,120.0,4.0,0.0
2579,85.0,31.0,90.0,3.0,0.0
2580,76.0,120.0,120.0,4.0,0.0
2581,69.0,0.0,120.0,4.0,0.0
2582,88.0,120.0,120.0,4.0,0.0
2583,61.0,60.0,240.0,8.0,0.0
2584,76.0,0.0,240.0,6.0,0.0
2585,81.0,0.0,480.0,3.0,0.0
2586,81.0,0.0,240.0,5.0,0.0
2587,73.0,0.0,240.0,7.0,0.0
2588,69.0,0.0,240.0,7.0,0.0
2589,49.0,0.0,240.0,10.0,0.0
2590,88.0,0.0,120.0,4.0,0.0
2591,76.0,0.0,120.0,4.0,0.0
2592,73.0,60.0,120.0,4.0,0.0
2593,90.0,60.0,60.0,4.0,0.0
2594,88.0,0.0,60.0,4.0,0.0
2595,86.0,60.0,60.0,4.0,0.0
2596,76.0,120.0,120.0,4.0,0.0
2597,88.0,0.0,60.0,4.0,0.0
2598,76.0,0.0,240.0,7.0,0.0
2599,86.0,0.0,240.0,5.0,0.0
2600,64.0,0.0,240.0,8.0,0.0
2601,52.0,0.0,240.0,10.0,0.0
2602,71.0,0.0,240.0,7.0,0.0
2603,92.0,0.0,120.0,4.0,0.0
2604,71.0,120.0,120.0,4.0,0.0
2605,80.0,60.0,240.0,6.0,0.0
2606,92.0,0.0,120.0,4.0,0.0
2607,76.0,0.0,120.0,4.0,0.0
2608,93.0,60.0,60.0,4.0,0.0
2609,74.0,60.0,120.0,4.0,0.0
2610,92.0,0.0,60.0,4.0,0.0
2611,76.0,0.0,120.0,4.0,0.0
2612,90.0,60.0,60.0,4.0,0.0
2613,92.0,29.0,60.0,4.0,0.0
2614,81.0,270.0,90.0,3.0,0.0
2615,76.0,49.0,480.0,7.0,0.0
2616,73.0,0.0,480.0,4.0,0.0
2617,69.0,0.0,480.0,4.0,0.0
2618,93.0,0.0,480.0,4.0,0.0
2619,45.0,0.0,480.0,10.0,0.0
2620,57.0,0.0,480.0,8.0,0.0
2621,69.0,0.0,480.0,7.0,0.0
2622,93.0,1.0,300.0,3.0,0.0
2623,76.0,0.0,480.0,4.0,0.0
2624,85.0,180.0,300.0,5.0,0.0
2625,81.0,0.0,300.0,6.0,0.0
2626,86.0,0.0,300.0,5.0,0.0
2627,92.0,11.0,300.0,3.0,0.0
2628,83.0,229.0,300.0,6.0,0.0
2629,85.0,214.0,300.0,5.0,0.0
2630,81.0,0.0,300.0,6.0,0.0
2631,90.0,11.0,300.0,3.0,0.0
2632,88.0,26.0,270.0,3.0,0.0
2633,83.0,0.0,300.0,5.0,0.0
2634,80.0,229.0,300.0,6.0,0.0
2635,78.0,0.0,300.0,6.0,0.0
2636,86.0,11.0,300.0,3.0,0.0
2637,81.0,154.0,300.0,5.0,0.0
2638,85.0,26.0,210.0,3.0,0.0
2639,76.0,0.0,240.0,6.0,0.0
2640,80.0,159.0,240.0,5.0,0.0
2641,82.0,21.0,150.0,3.0,0.0
2642,78.0,39.0,180.0,5.0,0.0
2643,74.0,0.0,180.0,6.0,0.0
2644,83.0,185.0,90.0,3.0,0.0
2645,78.0,209.0,180.0,5.0,0.0
2646,74.0,0.0,180.0,6.0,0.0
2647,83.0,16.0,40.0,3.0,0.0
2648,78.0,0.0,180.0,5.0,0.0
2649,74.0,34.0,180.0,6.0,0.0
2650,85.0,31.0,150.0,3.0,0.0
2651,86.0,190.0,90.0,3.0,0.0
2652,74.0,0.0,180.0,6.0,0.0
2653,78.0,214.0,180.0,5.0,0.0
2654,86.0,16.0,40.0,3.0,0.0
2655,80.0,39.0,180.0,5.0,0.0
2656,89.0,26.0,150.0,3.0,0.0
2657,74.0,0.0,180.0,6.0,0.0
2658,90.0,185.0,90.0,3.0,0.0
2659,74.0,240.0,180.0,6.0,0.0
2660,80.0,0.0,180.0,5.0,0.0
2661,90.0,16.0,40.0,3.0,0.0
2662,81.0,24.0,180.0,5.0,0.0
2663,88.0,15.0,210.0,3.0,0.0
2664,73.0,0.0,180.0,6.0,0.0
2665,85.0,101.0,40.0,3.0,0.0
2666,81.0,0.0,180.0,5.0,0.0
2667,74.0,20.0,180.0,6.0,0.0
2668,90.0,60.0,90.0,3.0,0.0
2669,86.0,40.0,90.0,3.0,0.0
2670,90.0,40.0,90.0,3.0,0.0
2671,86.0,180.0,60.0,3.0,0.0
2672,76.0,0.0,180.0,6.0,0.0
2673,85.0,80.0,480.0,3.0,0.0
2674,81.0,240.0,180.0,5.0,0.0
2675,76.0,60.0,180.0,6.0,0.0
2676,81.0,0.0,180.0,5.0,0.0
2677,80.0,11.0,180.0,5.0,0.0
2678,85.0,60.0,90.0,3.0,0.0
2679,64.0,0.0,180.0,6.0,0.0
2680,83.0,17.0,90.0,3.0,0.0
2681,85.0,23.0,40.0,3.0,0.0
2682,83.0,26.0,40.0,3.0,0.0
2683,85.0,34.0,40.0,3.0,0.0
2684,83.0,26.0,40.0,3.0,0.0
2685,85.0,34.0,40.0,3.0,0.0
2686,64.0,0.0,180.0,6.0,0.0
2687,80.0,20.0,180.0,5.0,0.0
2688,83.0,26.0,40.0,3.0,0.0
2689,85.0,34.0,40.0,3.0,0.0
2690,83.0,49.0,40.0,3.0,0.0
2691,81.0,60.0,90.0,3.0,0.0
2692,83.0,136.0,90.0,3.0,0.0
2693,81.0,0.0,480.0,3.0,0.0
2694,76.0,0.0,240.0,4.0,0.0
2695,73.0,156.0,240.0,4.0,0.0
2696,69.0,0.0,480.0,6.0,0.0
2697,81.0,0.0,480.0,5.0,0.0
2698,81.0,84.0,90.0,4.0,0.0
2699,93.0,0.0,90.0,4.0,0.0
2700,71.0,0.0,240.0,4.0,0.0
2701,74.0,156.0,240.0,4.0,0.0
2702,80.0,84.0,90.0,4.0,0.0
2703,92.0,0.0,90.0,4.0,0.0
2704,73.0,0.0,240.0,4.0,0.0
2705,69.0,156.0,240.0,4.0,0.0
2706,78.0,84.0,90.0,4.0,0.0
2707,90.0,0.0,90.0,4.0,0.0
2708,68.0,0.0,240.0,4.0,0.0
2709,71.0,156.0,240.0,4.0,0.0
2710,76.0,84.0,90.0,4.0,0.0
2711,88.0,0.0,90.0,4.0,0.0
2712,66.0,156.0,240.0,4.0,0.0
2713,69.0,0.0,240.0,4.0,0.0
2714,74.0,84.0,90.0,4.0,0.0
2715,86.0,0.0,90.0,4.0,0.0
2716,68.0,0.0,240.0,4.0,0.0
2717,64.0,0.0,240.0,4.0,0.0
2718,73.0,84.0,90.0,4.0,0.0
2719,85.0,120.0,90.0,4.0,0.0
2720,71.0,60.0,120.0,4.0,0.0
2721,62.0,60.0,480.0,4.0,0.0
2722,66.0,0.0,480.0,4.0,0.0
2723,73.0,60.0,60.0,4.0,0.0
2724,74.0,60.0,60.0,4.0,0.0
2725,76.0,60.0,60.0,4.0,0.0
2726,78.0,60.0,60.0,4.0,0.0
2727,80.0,60.0,60.0,4.0,0.0
2728,82.0,0.0,60.0,4.0,0.0
2729,83.0,60.0,60.0,4.0,0.0
2730,78.0,60.0,60.0,4.0,0.0
2731,80.0,60.0,60.0,4.0,0.0
2732,82.0,60.0,60.0,4.0,0.0
2733,83.0,60.0,60.0,4.0,0.0
2734,85.0,60.0,60.0,4.0,0.0
2735,86.0,60.0,60.0,4.0,0.0
2736,88.0,0.0,60.0,4.0,0.0
2737,66.0,0.0,15.0,4.0,0.0
2738,62.0,80.0,15.0,4.0,0.0
2739,90.0,76.0,90.0,4.0,0.0
2740,86.0,84.0,90.0,4.0,0.0
2741,83.0,0.0,90.0,4.0,0.0
2742,62.0,80.0,15.0,4.0,0.0
2743,90.0,76.0,90.0,4.0,0.0
2744,68.0,0.0,240.0,4.0,0.0
2745,86.0,84.0,90.0,4.0,0.0
2746,83.0,0.0,90.0,4.0,0.0
2747,81.0,26.0,990.0,3.0,0.0
2748,90.0,60.0,60.0,4.0,0.0
2749,88.0,28.0,60.0,4.0,0.0
2750,90.0,32.0,30.0,4.0,0.0
2751,88.0,28.0,30.0,4.0,0.0
2752,90.0,32.0,30.0,4.0,0.0
2753,88.0,28.0,30.0,4.0,0.0
2754,61.0,0.0,15.0,4.0,0.0
2755,69.0,0.0,15.0,4.0,0.0
2756,90.0,32.0,30.0,4.0,0.0
2757,88.0,28.0,30.0,4.0,0.0
2758,90.0,32.0,30.0,4.0,0.0
2759,88.0,60.0,30.0,4.0,0.0
2760,86.0,60.0,60.0,4.0,0.0
2761,88.0,0.0,60.0,4.0,0.0
2762,69.0,44.0,15.0,4.0,0.0
2763,90.0,196.0,40.0,4.0,0.0
2764,88.0,0.0,120.0,4.0,0.0
2765,69.0,0.0,15.0,4.0,0.0
2766,62.0,28.0,15.0,4.0,0.0
2767,88.0,32.0,30.0,4.0,0.0
2768,86.0,28.0,30.0,4.0,0.0
2769,88.0,32.0,30.0,4.0,0.0
2770,86.0,120.0,30.0,4.0,0.0
2771,85.0,0.0,120.0,4.0,0.0
2772,85.0,6.0,30.0,4.0,0.0
2773,62.0,28.0,15.0,4.0,0.0
2774,66.0,0.0,240.0,4.0,0.0
2775,90.0,41.0,450.0,3.0,0.0
2776,83.0,28.0,30.0,4.0,0.0
2777,85.0,32.0,30.0,4.0,0.0
2778,83.0,120.0,30.0,4.0,0.0
2779,81.0,28.0,120.0,4.0,0.0
2780,81.0,32.0,30.0,4.0,0.0
2781,66.0,0.0,240.0,4.0,0.0
2782,62.0,0.0,240.0,4.0,0.0
2783,80.0,28.0,30.0,4.0,0.0
2784,81.0,32.0,30.0,4.0,0.0
2785,80.0,79.0,30.0,4.0,0.0
2786,78.0,80.0,120.0,4.0,0.0
2787,52.0,76.0,90.0,4.0,0.0
2788,40.0,0.0,240.0,10.0,0.0
2789,64.0,80.0,480.0,3.0,0.0
2790,52.0,80.0,240.0,8.0,0.0
2791,76.0,0.0,240.0,4.0,0.0
2792,57.0,84.0,90.0,4.0,0.0
2793,61.0,0.0,90.0,4.0,0.0
2794,64.0,76.0,90.0,4.0,0.0
2795,52.0,0.0,240.0,7.0,0.0
2796,93.0,0.0,240.0,4.0,0.0
2797,64.0,0.0,240.0,7.0,0.0
2798,73.0,0.0,240.0,5.0,0.0
2799,69.0,0.0,240.0,6.0,0.0
2800,57.0,84.0,90.0,4.0,0.0
2801,61.0,0.0,90.0,4.0,0.0
2802,88.0,0.0,240.0,4.0,0.0
2803,52.0,76.0,90.0,4.0,0.0
2804,93.0,80.0,240.0,3.0,0.0
2805,52.0,0.0,240.0,8.0,0.0
2806,40.0,0.0,240.0,10.0,0.0
2807,57.0,84.0,90.0,4.0,0.0
2808,61.0,0.0,90.0,4.0,0.0
2809,69.0,0.0,240.0,6.0,0.0
2810,64.0,80.0,240.0,7.0,0.0
2811,73.0,0.0,240.0,5.0,0.0
2812,64.0,76.0,90.0,4.0,0.0
2813,85.0,0.0,240.0,4.0,0.0
2814,88.0,0.0,240.0,3.0,0.0
2815,52.0,0.0,240.0,7.0,0.0
2816,57.0,84.0,90.0,4.0,0.0
2817,61.0,0.0,90.0,4.0,0.0
2818,81.0,0.0,240.0,4.0,0.0
2819,52.0,0.0,240.0,8.0,0.0
2820,52.0,76.0,90.0,4.0,0.0
2821,40.0,80.0,240.0,10.0,0.0
2822,85.0,0.0,240.0,3.0,0.0
2823,57.0,84.0,90.0,4.0,0.0
2824,61.0,0.0,90.0,4.0,0.0
2825,76.0,0.0,240.0,4.0,0.0
2826,52.0,0.0,240.0,7.0,0.0
2827,73.0,0.0,240.0,5.0,0.0
2828,69.0,0.0,240.0,6.0,0.0
2829,64.0,80.0,240.0,7.0,0.0
2830,81.0,71.0,180.0,3.0,0.0
2831,64.0,76.0,90.0,4.0,0.0
2832,57.0,13.0,90.0,4.0,0.0
2833,61.0,0.0,90.0,4.0,0.0
2834,52.0,40.0,240.0,8.0,0.0
2835,81.0,36.0,120.0,4.0,0.0
2836,40.0,0.0,240.0,10.0,0.0
2837,85.0,80.0,150.0,3.0,0.0
2838,52.0,40.0,90.0,4.0,0.0
2839,56.0,4.0,90.0,4.0,0.0
2840,83.0,20.0,150.0,3.0,0.0
2841,80.0,0.0,120.0,4.0,0.0
2842,59.0,0.0,90.0,4.0,0.0
2843,62.0,0.0,90.0,4.0,0.0
2844,81.0,20.0,60.0,4.0,0.0
2845,64.0,0.0,240.0,7.0,0.0
2846,52.0,0.0,240.0,7.0,0.0
2847,85.0,40.0,90.0,3.0,0.0
2848,74.0,0.0,240.0,5.0,0.0
2849,56.0,0.0,240.0,7.0,0.0
2850,71.0,20.0,240.0,6.0,0.0
2851,83.0,16.0,90.0,3.0,0.0
2852,80.0,20.0,60.0,4.0,0.0
2853,56.0,24.0,90.0,4.0,0.0
2854,81.0,20.0,60.0,4.0,0.0
2855,85.0,40.0,90.0,3.0,0.0
2856,59.0,0.0,90.0,4.0,0.0
2857,83.0,8.0,90.0,3.0,0.0
2858,80.0,0.0,60.0,4.0,0.0
2859,40.0,11.0,240.0,10.0,0.0
2860,52.0,0.0,240.0,8.0,0.0
2861,52.0,8.0,90.0,4.0,0.0
2862,85.0,23.0,40.0,3.0,0.0
2863,81.0,9.0,30.0,4.0,0.0
2864,83.0,9.0,40.0,3.0,0.0
2865,80.0,11.0,30.0,4.0,0.0
2866,85.0,23.0,40.0,3.0,0.0
2867,81.0,9.0,30.0,4.0,0.0
2868,56.0,1.0,90.0,4.0,0.0
2869,83.0,17.0,40.0,3.0,0.0
2870,80.0,11.0,30.0,4.0,0.0
2871,85.0,23.0,40.0,3.0,0.0
2872,81.0,8.0,30.0,4.0,0.0
2873,80.0,11.0,30.0,4.0,0.0
2874,83.0,17.0,40.0,3.0,0.0
2875,59.0,0.0,90.0,4.0,0.0
2876,81.0,9.0,30.0,4.0,0.0
2877,85.0,23.0,40.0,3.0,0.0
2878,80.0,0.0,30.0,4.0,0.0
2879,83.0,17.0,40.0,3.0,0.0
2880,81.0,9.0,30.0,4.0,0.0
2881,62.0,8.0,90.0,4.0,0.0
2882,64.0,0.0,240.0,7.0,0.0
2883,62.0,0.0,240.0,7.0,0.0
2884,52.0,11.0,240.0,7.0,0.0
2885,68.0,0.0,240.0,6.0,0.0
2886,71.0,0.0,240.0,5.0,0.0
2887,85.0,23.0,40.0,3.0,0.0
2888,80.0,11.0,30.0,4.0,0.0
2889,83.0,9.0,40.0,3.0,0.0
2890,81.0,9.0,30.0,4.0,0.0
2891,85.0,23.0,40.0,3.0,0.0
2892,56.0,1.0,90.0,4.0,0.0
2893,80.0,11.0,30.0,4.0,0.0
2894,83.0,17.0,40.0,3.0,0.0
2895,85.0,23.0,40.0,3.0,0.0
2896,81.0,8.0,30.0,4.0,0.0
2897,83.0,17.0,40.0,3.0,0.0
2898,80.0,11.0,30.0,4.0,0.0
2899,59.0,0.0,90.0,4.0,0.0
2900,85.0,23.0,40.0,3.0,0.0
2901,81.0,9.0,30.0,4.0,0.0
2902,80.0,0.0,30.0,4.0,0.0
2903,83.0,17.0,40.0,3.0,0.0
2904,81.0,9.0,30.0,4.0,0.0
2905,52.0,0.0,240.0,8.0,0.0
2906,52.0,8.0,90.0,4.0,0.0
2907,40.0,0.0,240.0,10.0,0.0
2908,85.0,23.0,40.0,3.0,0.0
2909,83.0,9.0,40.0,3.0,0.0
2910,80.0,11.0,30.0,4.0,0.0
2911,81.0,9.0,30.0,4.0,0.0
2912,85.0,23.0,40.0,3.0,0.0
2913,56.0,1.0,90.0,4.0,0.0
2914,80.0,11.0,30.0,4.0,0.0
2915,83.0,17.0,40.0,3.0,0.0
2916,85.0,23.0,40.0,3.0,0.0
2917,81.0,8.0,30.0,4.0,0.0
2918,83.0,17.0,40.0,3.0,0.0
2919,80.0,11.0,30.0,4.0,0.0
2920,59.0,0.0,90.0,4.0,0.0
2921,81.0,9.0,30.0,4.0,0.0
2922,85.0,23.0,40.0,3.0,0.0
2923,80.0,11.0,30.0,4.0,0.0
2924,83.0,17.0,40.0,3.0,0.0
2925,64.0,0.0,240.0,7.0,0.0
2926,52.0,0.0,240.0,7.0,0.0
2927,59.0,0.0,240.0,7.0,0.0
2928,85.0,23.0,40.0,3.0,0.0
2929,68.0,0.0,240.0,5.0,0.0
2930,62.0,8.0,90.0,4.0,0.0
2931,81.0,9.0,30.0,4.0,0.0
2932,62.0,0.0,240.0,6.0,0.0
2933,83.0,9.0,40.0,3.0,0.0
2934,80.0,11.0,30.0,4.0,0.0
2935,85.0,23.0,40.0,3.0,0.0
2936,81.0,9.0,30.0,4.0,0.0
2937,56.0,24.0,90.0,4.0,0.0
2938,83.0,25.0,40.0,3.0,0.0
2939,80.0,11.0,30.0,4.0,0.0
2940,81.0,40.0,90.0,3.0,0.0
2941,78.0,20.0,60.0,4.0,0.0
2942,59.0,20.0,90.0,4.0,0.0
2943,83.0,220.0,90.0,3.0,0.0
2944,80.0,0.0,60.0,4.0,0.0
2945,45.0,0.0,480.0,8.0,0.0
2946,81.0,0.0,480.0,3.0,0.0
2947,33.0,0.0,480.0,10.0,0.0
2948,69.0,240.0,240.0,5.0,0.0
2949,61.0,60.0,480.0,6.0,0.0
2950,57.0,0.0,480.0,4.0,0.0
2951,57.0,0.0,480.0,7.0,0.0
2952,52.0,0.0,480.0,7.0,0.0
2953,64.0,0.0,480.0,7.0,0.0
2954,81.0,0.0,480.0,4.0,0.0
2955,61.0,0.0,480.0,4.0,0.0
2956,81.0,240.0,300.0,5.0,0.0
2957,80.0,180.0,300.0,5.0,0.0
2958,69.0,0.0,300.0,6.0,0.0
2959,69.0,60.0,240.0,7.0,0.0
2960,78.0,180.0,300.0,5.0,0.0
2961,68.0,180.0,300.0,6.0,0.0
2962,76.0,0.0,300.0,5.0,0.0
2963,68.0,60.0,240.0,7.0,0.0
2964,66.0,0.0,300.0,6.0,0.0
2965,66.0,60.0,240.0,7.0,0.0
2966,74.0,180.0,300.0,5.0,0.0
2967,64.0,0.0,240.0,7.0,0.0
2968,73.0,0.0,240.0,5.0,0.0
2969,64.0,300.0,240.0,6.0,0.0
2970,69.0,240.0,300.0,7.0,0.0
2971,78.0,0.0,300.0,5.0,0.0
2972,73.0,0.0,300.0,6.0,0.0
2973,71.0,0.0,300.0,6.0,0.0
2974,68.0,240.0,300.0,7.0,0.0
2975,76.0,0.0,300.0,5.0,0.0
2976,66.0,0.0,300.0,7.0,0.0
2977,69.0,240.0,300.0,6.0,0.0
2978,74.0,0.0,300.0,5.0,0.0
2979,64.0,240.0,300.0,7.0,0.0
2980,68.0,0.0,300.0,6.0,0.0
2981,73.0,0.0,300.0,5.0,0.0
2982,62.0,144.0,300.0,7.0,0.0
2983,71.0,0.0,300.0,5.0,0.0
2984,66.0,0.0,300.0,6.0,0.0
2985,61.0,36.0,210.0,7.0,0.0
2986,69.0,0.0,240.0,5.0,0.0
2987,64.0,240.0,240.0,6.0,0.0
2988,37.0,0.0,300.0,10.0,0.0
2989,49.0,60.0,240.0,4.0,0.0
2990,61.0,0.0,240.0,4.0,0.0
2991,49.0,0.0,300.0,8.0,0.0
2992,61.0,180.0,300.0,5.0,0.0
2993,62.0,0.0,300.0,5.0,0.0
2994,50.0,180.0,300.0,8.0,0.0
2995,62.0,0.0,240.0,4.0,0.0
2996,38.0,0.0,300.0,10.0,0.0
2997,81.0,0.0,240.0,4.0,0.0
2998,85.0,0.0,240.0,4.0,0.0
2999,50.0,60.0,240.0,4.0,0.0
3000,81.0,0.0,480.0,3.0,0.0
3001,52.0,0.0,300.0,8.0,0.0
3002,64.0,0.0,300.0,5.0,0.0
3003,40.0,180.0,300.0,10.0,0.0
3004,64.0,0.0,240.0,4.0,0.0
3005,85.0,0.0,240.0,4.0,0.0
3006,52.0,60.0,240.0,4.0,0.0
3007,93.0,0.0,480.0,3.0,0.0
3008,81.0,0.0,15.0,4.0,0.0
3009,54.0,60.0,240.0,4.0,0.0
3010,66.0,0.0,240.0,4.0,0.0
3011,66.0,0.0,300.0,5.0,0.0
3012,42.0,180.0,300.0,10.0,0.0
3013,54.0,0.0,300.0,8.0,0.0
3014,39.0,0.0,240.0,10.0,0.0
3015,51.0,484.0,240.0,8.0,0.0
3016,85.0,0.0,15.0,4.0,0.0
3017,51.0,0.0,240.0,4.0,0.0
3018,63.0,0.0,240.0,4.0,0.0
3019,63.0,0.0,240.0,5.0,0.0
3020,81.0,0.0,15.0,4.0,0.0
3021,64.0,180.0,720.0,4.0,0.0
3022,88.0,0.0,690.0,3.0,0.0
3023,52.0,0.0,720.0,4.0,0.0
3024,85.0,0.0,15.0,4.0,0.0
3025,40.0,0.0,480.0,10.0,0.0
3026,64.0,0.0,480.0,5.0,0.0
3027,52.0,220.0,480.0,8.0,0.0
3028,81.0,20.0,60.0,4.0,0.0
3029,81.0,40.0,90.0,3.0,0.0
3030,81.0,20.0,60.0,4.0,0.0
3031,85.0,40.0,90.0,3.0,0.0
3032,83.0,8.0,90.0,3.0,0.0
3033,62.0,0.0,480.0,4.0,0.0
3034,80.0,20.0,60.0,4.0,0.0
3035,52.0,0.0,480.0,4.0,0.0
3036,56.0,0.0,480.0,4.0,0.0
3037,59.0,0.0,480.0,4.0,0.0
3038,81.0,9.0,30.0,4.0,0.0
3039,85.0,23.0,40.0,3.0,0.0
3040,83.0,17.0,40.0,3.0,0.0
3041,80.0,11.0,30.0,4.0,0.0
3042,81.0,9.0,30.0,4.0,0.0
3043,85.0,23.0,40.0,3.0,0.0
3044,80.0,11.0,30.0,4.0,0.0
3045,83.0,17.0,40.0,3.0,0.0
3046,81.0,9.0,30.0,4.0,0.0
3047,85.0,23.0,40.0,3.0,0.0
3048,83.0,17.0,40.0,3.0,0.0
3049,80.0,11.0,30.0,4.0,0.0
3050,81.0,9.0,30.0,4.0,0.0
3051,85.0,23.0,40.0,3.0,0.0
3052,83.0,17.0,40.0,3.0,0.0
3053,80.0,11.0,30.0,4.0,0.0
3054,81.0,9.0,30.0,4.0,0.0
3055,85.0,23.0,40.0,3.0,0.0
3056,83.0,49.0,40.0,3.0,0.0
3057,80.0,11.0,30.0,4.0,0.0
3058,81.0,40.0,90.0,3.0,0.0
3059,78.0,20.0,60.0,4.0,0.0
3060,83.0,220.0,90.0,3.0,0.0
3061,80.0,20.0,60.0,4.0,0.0
3062,57.0,0.0,240.0,7.0,0.0
3063,81.0,240.0,480.0,4.0,0.0
3064,57.0,0.0,480.0,4.0,0.0
3065,61.0,0.0,480.0,4.0,0.0
3066,45.0,0.0,240.0,10.0,0.0
3067,57.0,0.0,240.0,8.0,0.0
3068,73.0,240.0,240.0,5.0,0.0
3069,64.0,0.0,240.0,6.0,0.0
3070,81.0,0.0,480.0,3.0,0.0
3071,61.0,0.0,240.0,7.0,0.0
3072,64.0,0.0,240.0,6.0,0.0
3073,57.0,480.0,240.0,8.0,0.0
3074,73.0,0.0,240.0,5.0,0.0
3075,45.0,0.0,240.0,10.0,0.0
3076,57.0,0.0,240.0,7.0,0.0
3077,61.0,0.0,240.0,7.0,0.0
3078,57.0,0.0,240.0,7.0,0.0
3079,45.0,0.0,240.0,10.0,0.0
3080,61.0,0.0,240.0,7.0,0.0
3081,73.0,0.0,240.0,5.0,0.0
3082,57.0,300.0,240.0,8.0,0.0
3083,64.0,0.0,240.0,6.0,0.0
3084,83.0,0.0,870.0,3.0,0.0
3085,40.0,60.0,60.0,4.0,0.0
3086,62.0,0.0,990.0,6.0,0.0
3087,64.0,0.0,1200.0,7.0,0.0
3088,40.0,191.0,1020.0,10.0,0.0
3089,71.0,21.0,870.0,5.0,0.0
3090,52.0,0.0,1020.0,8.0,0.0
3091,56.0,10.0,870.0,7.0,0.0
3092,44.0,60.0,60.0,4.0,0.0
3093,47.0,60.0,60.0,4.0,0.0
3094,50.0,60.0,60.0,4.0,0.0
3095,64.0,60.0,60.0,4.0,0.0
3096,68.0,60.0,60.0,4.0,0.0
3097,71.0,60.0,60.0,4.0,0.0
3098,74.0,60.0,60.0,4.0,0.0
3099,52.0,60.0,60.0,4.0,0.0
3100,56.0,60.0,60.0,4.0,0.0
3101,59.0,60.0,60.0,4.0,0.0
3102,62.0,60.0,60.0,4.0,0.0
3103,71.0,60.0,60.0,4.0,0.0
3104,74.0,29.0,60.0,4.0,0.0
3105,68.0,5.0,150.0,5.0,0.0
3106,80.0,10.0,150.0,3.0,0.0
3107,59.0,5.0,150.0,7.0,0.0
3108,76.0,60.0,60.0,4.0,0.0
3109,80.0,29.0,60.0,4.0,0.0
3110,69.0,284.0,240.0,4.0,0.0
3111,57.0,0.0,240.0,4.0,0.0
3112,33.0,0.0,240.0,10.0,0.0
3113,81.0,0.0,240.0,3.0,0.0
3114,69.0,0.0,240.0,5.0,0.0
3115,45.0,0.0,240.0,8.0,0.0
3116,57.0,0.0,240.0,7.0,0.0
3117,61.0,0.0,240.0,6.0,0.0
3118,81.0,0.0,240.0,4.0,0.0
3119,73.0,0.0,40.0,5.0,0.0
3120,69.0,120.0,40.0,6.0,0.0
3121,71.0,0.0,40.0,6.0,0.0
3122,74.0,120.0,40.0,5.0,0.0
3123,73.0,0.0,40.0,6.0,0.0
3124,76.0,120.0,40.0,5.0,0.0
3125,74.0,0.0,40.0,6.0,0.0
3126,78.0,120.0,40.0,5.0,0.0
3127,76.0,120.0,40.0,5.0,0.0
3128,73.0,0.0,40.0,6.0,0.0
3129,78.0,0.0,40.0,5.0,0.0
3130,74.0,120.0,40.0,6.0,0.0
3131,80.0,0.0,40.0,5.0,0.0
3132,71.0,120.0,40.0,6.0,0.0
3133,73.0,120.0,40.0,6.0,0.0
3134,81.0,0.0,40.0,5.0,0.0
3135,71.0,0.0,40.0,6.0,0.0
3136,80.0,120.0,40.0,5.0,0.0
3137,73.0,0.0,40.0,6.0,0.0
3138,81.0,120.0,40.0,5.0,0.0
3139,71.0,0.0,40.0,6.0,0.0
3140,80.0,120.0,40.0,5.0,0.0
3141,73.0,76.0,40.0,6.0,0.0
3142,81.0,854.0,120.0,3.0,0.0
3143,81.0,0.0,40.0,5.0,0.0
3144,69.0,720.0,1200.0,7.0,0.0
3145,86.0,10.0,840.0,3.0,0.0
3146,74.0,0.0,870.0,5.0,0.0
3147,66.0,60.0,870.0,6.0,0.0
3148,57.0,0.0,1200.0,7.0,0.0
3149,57.0,0.0,510.0,8.0,0.0
3150,45.0,0.0,510.0,10.0,0.0
3151,64.0,0.0,90.0,6.0,0.0
3152,76.0,55.0,90.0,5.0,0.0
3153,88.0,5.0,90.0,3.0,0.0
3154,62.0,0.0,90.0,6.0,0.0
3155,90.0,10.0,90.0,3.0,0.0
3156,78.0,206.0,90.0,5.0,0.0
3157,33.0,0.0,240.0,10.0,0.0
3158,61.0,0.0,240.0,6.0,0.0
3159,45.0,0.0,240.0,8.0,0.0
3160,88.0,0.0,240.0,3.0,0.0
3161,76.0,0.0,240.0,5.0,0.0
3162,57.0,0.0,960.0,7.0,0.0
3163,85.0,110.0,750.0,3.0,0.0
3164,64.0,269.0,480.0,7.0,0.0
3165,73.0,5.0,750.0,5.0,0.0
3166,69.0,49.0,1920.0,6.0,0.0
3167,69.0,0.0,570.0,4.0,0.0
3168,73.0,0.0,540.0,4.0,0.0
3169,57.0,0.0,540.0,4.0,0.0
3170,61.0,0.0,510.0,4.0,0.0
3171,66.0,101.0,540.0,8.0,0.0
3172,54.0,0.0,540.0,10.0,0.0
3173,66.0,0.0,480.0,4.0,0.0
3174,66.0,0.0,960.0,7.0,0.0
3175,86.0,80.0,150.0,3.0,0.0
3176,74.0,16.0,150.0,5.0,0.0
3177,76.0,40.0,120.0,5.0,0.0
3178,88.0,9.0,150.0,3.0,0.0
3179,50.0,0.0,570.0,4.0,0.0
3180,71.0,0.0,570.0,4.0,0.0
3181,54.0,0.0,60.0,4.0,0.0
3182,74.0,0.0,540.0,4.0,0.0
3183,59.0,0.0,510.0,4.0,0.0
3184,78.0,0.0,30.0,4.0,0.0
3185,80.0,10.0,150.0,5.0,0.0
3186,50.0,0.0,480.0,10.0,0.0
3187,62.0,0.0,480.0,4.0,0.0
3188,81.0,0.0,15.0,4.0,0.0
3189,62.0,0.0,480.0,8.0,0.0
3190,92.0,110.0,150.0,3.0,0.0
3191,59.0,0.0,480.0,7.0,0.0
3192,90.0,110.0,150.0,3.0,0.0
3193,78.0,10.0,150.0,5.0,0.0
3194,76.0,10.0,150.0,5.0,0.0
3195,88.0,39.0,150.0,3.0,0.0
3196,86.0,41.0,90.0,3.0,0.0
3197,74.0,0.0,120.0,5.0,0.0
3198,85.0,206.0,270.0,3.0,0.0
3199,73.0,34.0,240.0,5.0,0.0
3200,52.0,50.0,540.0,7.0,0.0
3201,64.0,0.0,1440.0,7.0,0.0
3202,83.0,175.0,330.0,3.0,0.0
3203,71.0,115.0,510.0,5.0,0.0
3204,68.0,44.0,570.0,4.0,0.0
3205,71.0,0.0,540.0,4.0,0.0
3206,56.0,0.0,540.0,4.0,0.0
3207,59.0,0.0,510.0,4.0,0.0
3208,59.0,5.0,510.0,7.0,0.0
3209,64.0,0.0,480.0,4.0,0.0
3210,68.0,69.0,1440.0,6.0,0.0
3211,52.0,0.0,540.0,10.0,0.0
3212,64.0,101.0,540.0,8.0,0.0
3213,85.0,0.0,150.0,3.0,0.0
3214,73.0,60.0,150.0,5.0,0.0
3215,86.0,31.0,90.0,3.0,0.0
3216,74.0,0.0,120.0,5.0,0.0
3217,69.0,0.0,570.0,4.0,0.0
3218,49.0,0.0,570.0,4.0,0.0
3219,73.0,0.0,540.0,4.0,0.0
3220,52.0,0.0,60.0,4.0,0.0
3221,76.0,0.0,30.0,4.0,0.0
3222,57.0,0.0,510.0,4.0,0.0
3223,90.0,110.0,150.0,3.0,0.0
3224,80.0,0.0,15.0,4.0,0.0
3225,57.0,0.0,480.0,7.0,0.0
3226,49.0,240.0,480.0,10.0,0.0
3227,61.0,0.0,480.0,4.0,0.0
3228,61.0,0.0,480.0,8.0,0.0
3229,78.0,10.0,150.0,5.0,0.0
3230,76.0,10.0,150.0,5.0,0.0
3231,88.0,110.0,150.0,3.0,0.0
3232,86.0,39.0,150.0,3.0,0.0
3233,74.0,10.0,150.0,5.0,0.0
3234,73.0,0.0,120.0,5.0,0.0
3235,85.0,41.0,90.0,3.0,0.0
3236,71.0,29.0,240.0,5.0,0.0
3237,83.0,211.0,270.0,3.0,0.0
3238,62.0,0.0,1440.0,7.0,0.0
3239,69.0,110.0,510.0,5.0,0.0
3240,81.0,195.0,300.0,3.0,0.0
3241,69.0,0.0,540.0,4.0,0.0
3242,57.0,0.0,510.0,4.0,0.0
3243,66.0,10.0,270.0,6.0,0.0
3244,50.0,106.0,510.0,10.0,0.0
3245,62.0,0.0,480.0,4.0,0.0
3246,62.0,0.0,510.0,8.0,0.0
3247,57.0,0.0,480.0,7.0,0.0
3248,68.0,0.0,150.0,6.0,0.0
3249,71.0,5.0,150.0,5.0,0.0
3250,83.0,70.0,150.0,3.0,0.0
3251,73.0,0.0,120.0,5.0,0.0
3252,85.0,21.0,90.0,3.0,0.0
3253,69.0,0.0,120.0,6.0,0.0
3254,66.0,44.0,90.0,4.0,0.0
3255,47.0,0.0,570.0,4.0,0.0
3256,50.0,0.0,60.0,4.0,0.0
3257,71.0,0.0,540.0,4.0,0.0
3258,74.0,0.0,30.0,4.0,0.0
3259,54.0,0.0,30.0,4.0,0.0
3260,74.0,0.0,150.0,5.0,0.0
3261,66.0,0.0,480.0,7.0,0.0
3262,59.0,0.0,480.0,8.0,0.0
3263,47.0,0.0,480.0,10.0,0.0
3264,86.0,110.0,150.0,3.0,0.0
3265,78.0,0.0,15.0,4.0,0.0
3266,59.0,0.0,480.0,4.0,0.0
3267,71.0,10.0,150.0,6.0,0.0
3268,88.0,110.0,150.0,3.0,0.0
3269,73.0,10.0,150.0,6.0,0.0
3270,76.0,0.0,150.0,5.0,0.0
3271,74.0,10.0,150.0,6.0,0.0
3272,78.0,0.0,150.0,5.0,0.0
3273,90.0,44.0,150.0,3.0,0.0
3274,86.0,36.0,90.0,3.0,0.0
3275,74.0,0.0,120.0,5.0,0.0
3276,71.0,0.0,120.0,6.0,0.0
3277,73.0,40.0,390.0,5.0,0.0
3278,52.0,0.0,1020.0,10.0,0.0
3279,85.0,15.0,390.0,3.0,0.0
3280,64.0,0.0,1020.0,8.0,0.0
3281,52.0,389.0,1440.0,7.0,0.0
3282,69.0,485.0,510.0,6.0,0.0
3283,83.0,36.0,90.0,3.0,0.0
3284,71.0,44.0,120.0,5.0,0.0
3285,68.0,225.0,540.0,6.0,0.0
3286,83.0,10.0,750.0,3.0,0.0
3287,71.0,150.0,750.0,5.0,0.0
3288,45.0,0.0,480.0,10.0,0.0
3289,57.0,0.0,480.0,8.0,0.0
3290,67.0,0.0,480.0,6.0,0.0
3291,85.0,46.0,180.0,3.0,0.0
3292,73.0,0.0,240.0,5.0,0.0
3293,50.0,19.0,480.0,4.0,0.0
3294,62.0,10.0,480.0,4.0,0.0
3295,66.0,4.0,480.0,4.0,0.0
3296,69.0,10.0,480.0,4.0,0.0
3297,62.0,0.0,510.0,8.0,0.0
3298,71.0,0.0,480.0,4.0,0.0
3299,74.0,31.0,390.0,5.0,0.0
3300,50.0,375.0,510.0,10.0,0.0
3301,86.0,5.0,390.0,3.0,0.0
3302,57.0,0.0,1020.0,7.0,0.0
3303,66.0,0.0,390.0,6.0,0.0
3304,54.0,5.0,510.0,7.0,0.0
3305,74.0,6.0,450.0,4.0,0.0
3306,88.0,0.0,90.0,3.0,0.0
3307,76.0,5.0,90.0,5.0,0.0
3308,64.0,1.0,90.0,6.0,0.0
3309,90.0,39.0,60.0,3.0,0.0
3310,62.0,0.0,60.0,6.0,0.0
3311,78.0,0.0,60.0,5.0,0.0
3312,52.0,20.0,480.0,4.0,0.0
3313,61.0,9.0,480.0,4.0,0.0
3314,64.0,11.0,420.0,4.0,0.0
3315,64.0,0.0,480.0,8.0,0.0
3316,69.0,5.0,450.0,4.0,0.0
3317,52.0,34.0,480.0,10.0,0.0
3318,61.0,220.0,540.0,6.0,0.0
3319,81.0,5.0,510.0,3.0,0.0
3320,69.0,10.0,510.0,5.0,0.0
3321,73.0,16.0,450.0,4.0,0.0
3322,52.0,15.0,480.0,4.0,0.0
3323,62.0,4.0,480.0,4.0,0.0
3324,64.0,10.0,480.0,4.0,0.0
3325,40.0,0.0,480.0,10.0,0.0
3326,52.0,0.0,480.0,8.0,0.0
3327,68.0,10.0,450.0,4.0,0.0
3328,85.0,146.0,300.0,3.0,0.0
3329,73.0,15.0,270.0,5.0,0.0
3330,56.0,184.0,480.0,7.0,0.0
3331,64.0,5.0,270.0,6.0,0.0
3332,71.0,6.0,420.0,4.0,0.0
3333,83.0,0.0,240.0,3.0,0.0
3334,71.0,0.0,240.0,5.0,0.0
3335,62.0,0.0,240.0,6.0,0.0
3336,61.0,25.0,480.0,4.0,0.0
3337,64.0,25.0,480.0,4.0,0.0
3338,45.0,0.0,480.0,4.0,0.0
3339,57.0,0.0,480.0,8.0,0.0
3340,45.0,0.0,480.0,10.0,0.0
3341,52.0,0.0,15.0,7.0,0.0
3342,81.0,56.0,180.0,3.0,0.0
3343,61.0,0.0,480.0,6.0,0.0
3344,69.0,159.0,240.0,5.0,0.0
3345,57.0,0.0,480.0,7.0,0.0
3346,69.0,134.0,480.0,4.0,0.0
3347,81.0,10.0,150.0,5.0,0.0
3348,93.0,30.0,180.0,3.0,0.0
3349,80.0,1.0,90.0,5.0,0.0
3350,92.0,15.0,90.0,3.0,0.0
3351,92.0,30.0,150.0,3.0,0.0
3352,80.0,5.0,150.0,5.0,0.0
3353,90.0,10.0,60.0,3.0,0.0
3354,78.0,190.0,90.0,5.0,0.0
3355,78.0,50.0,150.0,5.0,0.0
3356,90.0,5.0,150.0,3.0,0.0
3357,76.0,5.0,90.0,5.0,0.0
3358,88.0,180.0,90.0,3.0,0.0
3359,88.0,100.0,150.0,3.0,0.0
3360,76.0,5.0,150.0,5.0,0.0
3361,87.0,5.0,150.0,3.0,0.0
3362,75.0,120.0,150.0,5.0,0.0
3363,78.0,50.0,150.0,5.0,0.0
3364,90.0,15.0,150.0,3.0,0.0
3365,76.0,60.0,120.0,5.0,0.0
3366,88.0,31.0,90.0,3.0,0.0
3367,57.0,0.0,480.0,7.0,0.0
3368,54.0,0.0,360.0,8.0,0.0
3369,54.0,60.0,60.0,4.0,0.0
3370,42.0,24.0,360.0,10.0,0.0
3371,69.0,16.0,990.0,6.0,0.0
3372,86.0,31.0,390.0,3.0,0.0
3373,62.0,0.0,480.0,7.0,0.0
3374,74.0,5.0,390.0,5.0,0.0
3375,57.0,60.0,60.0,4.0,0.0
3376,62.0,60.0,60.0,4.0,0.0
3377,66.0,60.0,60.0,4.0,0.0
3378,69.0,60.0,60.0,4.0,0.0
3379,74.0,0.0,60.0,4.0,0.0
3380,52.0,0.0,60.0,8.0,0.0
3381,76.0,5.0,90.0,5.0,0.0
3382,40.0,19.0,60.0,10.0,0.0
3383,88.0,30.0,90.0,3.0,0.0
3384,69.0,0.0,60.0,4.0,0.0
3385,90.0,6.0,60.0,3.0,0.0
3386,50.0,60.0,60.0,8.0,0.0
3387,66.0,0.0,60.0,4.0,0.0
3388,78.0,0.0,60.0,5.0,0.0
3389,38.0,0.0,60.0,10.0,0.0
3390,52.0,60.0,60.0,4.0,0.0
3391,81.0,10.0,510.0,3.0,0.0
3392,40.0,0.0,480.0,10.0,0.0
3393,64.0,0.0,1440.0,7.0,0.0
3394,61.0,0.0,480.0,7.0,0.0
3395,69.0,5.0,510.0,5.0,0.0
3396,52.0,0.0,480.0,8.0,0.0
3397,57.0,60.0,60.0,4.0,0.0
3398,61.0,60.0,60.0,4.0,0.0
3399,64.0,60.0,60.0,4.0,0.0
3400,69.0,60.0,60.0,4.0,0.0
3401,73.0,60.0,60.0,4.0,0.0
3402,69.0,60.0,60.0,4.0,0.0
3403,64.0,29.0,60.0,4.0,0.0
3404,62.0,0.0,480.0,7.0,0.0
3405,52.0,0.0,480.0,8.0,0.0
3406,40.0,0.0,480.0,10.0,0.0
3407,68.0,0.0,480.0,6.0,0.0
3408,52.0,60.0,60.0,4.0,0.0
3409,73.0,16.0,270.0,5.0,0.0
3410,85.0,15.0,270.0,3.0,0.0
3411,59.0,60.0,60.0,4.0,0.0
3412,62.0,60.0,60.0,4.0,0.0
3413,64.0,29.0,60.0,4.0,0.0
3414,71.0,120.0,240.0,5.0,0.0
3415,68.0,60.0,60.0,4.0,0.0
3416,83.0,31.0,210.0,3.0,0.0
3417,71.0,60.0,60.0,4.0,0.0
3418,68.0,29.0,60.0,4.0,0.0
3419,64.0,0.0,60.0,4.0,0.0
3420,57.0,0.0,480.0,4.0,0.0
3421,69.0,120.0,120.0,4.0,0.0
3422,61.0,0.0,480.0,7.0,0.0
3423,45.0,0.0,480.0,8.0,0.0
3424,69.0,0.0,480.0,6.0,0.0
3425,69.0,80.0,480.0,5.0,0.0
3426,81.0,0.0,240.0,3.0,0.0
3427,33.0,0.0,480.0,10.0,0.0
3428,76.0,120.0,120.0,4.0,0.0
3429,73.0,69.0,120.0,4.0,0.0
3430,85.0,51.0,180.0,3.0,0.0
3431,76.0,0.0,120.0,4.0,0.0
3432,69.0,20.0,120.0,4.0,0.0
3433,86.0,40.0,90.0,3.0,0.0
3434,85.0,17.0,90.0,3.0,0.0
3435,86.0,34.0,40.0,3.0,0.0
3436,76.0,11.0,120.0,4.0,0.0
3437,85.0,26.0,40.0,3.0,0.0
3438,86.0,23.0,40.0,3.0,0.0
3439,85.0,26.0,40.0,3.0,0.0
3440,86.0,34.0,40.0,3.0,0.0
3441,73.0,11.0,120.0,4.0,0.0
3442,85.0,26.0,40.0,3.0,0.0
3443,86.0,23.0,40.0,3.0,0.0
3444,85.0,69.0,40.0,3.0,0.0
3445,76.0,20.0,120.0,4.0,0.0
3446,83.0,40.0,90.0,3.0,0.0
3447,85.0,60.0,90.0,3.0,0.0
3448,71.0,20.0,120.0,4.0,0.0
3449,88.0,40.0,90.0,3.0,0.0
3450,86.0,17.0,90.0,3.0,0.0
3451,76.0,11.0,120.0,4.0,0.0
3452,88.0,34.0,40.0,3.0,0.0
3453,86.0,26.0,40.0,3.0,0.0
3454,88.0,23.0,40.0,3.0,0.0
3455,86.0,26.0,40.0,3.0,0.0
3456,74.0,11.0,120.0,4.0,0.0
3457,88.0,34.0,40.0,3.0,0.0
3458,86.0,26.0,40.0,3.0,0.0
3459,88.0,23.0,40.0,3.0,0.0
3460,86.0,69.0,40.0,3.0,0.0
3461,85.0,40.0,90.0,3.0,0.0
3462,76.0,20.0,120.0,4.0,0.0
3463,86.0,100.0,90.0,3.0,0.0
3464,57.0,0.0,240.0,8.0,0.0
3465,45.0,120.0,240.0,10.0,0.0
3466,88.0,60.0,480.0,3.0,0.0
3467,69.0,120.0,120.0,4.0,0.0
3468,76.0,0.0,120.0,4.0,0.0
3469,88.0,0.0,240.0,4.0,0.0
3470,73.0,120.0,120.0,4.0,0.0
3471,76.0,0.0,120.0,4.0,0.0
3472,90.0,60.0,60.0,4.0,0.0
3473,69.0,0.0,120.0,4.0,0.0
3474,49.0,28.0,240.0,10.0,0.0
3475,61.0,0.0,240.0,8.0,0.0
3476,88.0,28.0,60.0,4.0,0.0
3477,76.0,0.0,120.0,4.0,0.0
3478,90.0,32.0,30.0,4.0,0.0
3479,88.0,28.0,30.0,4.0,0.0
3480,90.0,32.0,30.0,4.0,0.0
3481,88.0,0.0,30.0,4.0,0.0
3482,90.0,32.0,30.0,4.0,0.0
3483,73.0,60.0,120.0,4.0,0.0
3484,88.0,28.0,30.0,4.0,0.0
3485,90.0,32.0,30.0,4.0,0.0
3486,88.0,0.0,30.0,4.0,0.0
3487,76.0,60.0,120.0,4.0,0.0
3488,86.0,60.0,60.0,4.0,0.0
3489,88.0,0.0,60.0,4.0,0.0
3490,52.0,28.0,240.0,10.0,0.0
3491,93.0,60.0,60.0,4.0,0.0
3492,71.0,28.0,120.0,4.0,0.0
3493,64.0,0.0,240.0,8.0,0.0
3494,92.0,0.0,60.0,4.0,0.0
3495,93.0,32.0,30.0,4.0,0.0
3496,76.0,0.0,120.0,4.0,0.0
3497,92.0,28.0,30.0,4.0,0.0
3498,93.0,32.0,30.0,4.0,0.0
3499,92.0,0.0,30.0,4.0,0.0
3500,93.0,32.0,30.0,4.0,0.0
3501,74.0,0.0,120.0,4.0,0.0
3502,92.0,28.0,30.0,4.0,0.0
3503,93.0,32.0,30.0,4.0,0.0
3504,92.0,60.0,30.0,4.0,0.0
3505,90.0,19.0,60.0,4.0,0.0
3506,76.0,41.0,90.0,4.0,0.0
3507,92.0,210.0,60.0,4.0,0.0
3508,69.0,20.0,240.0,4.0,0.0
3509,73.0,10.0,240.0,4.0,0.0
3510,69.0,0.0,2400.0,7.0,0.0
3511,45.0,0.0,330.0,10.0,0.0
3512,61.0,5.0,330.0,6.0,0.0
3513,57.0,20.0,330.0,8.0,0.0
3514,76.0,0.0,240.0,4.0,0.0
3515,93.0,84.0,240.0,4.0,0.0
3516,64.0,279.0,360.0,5.0,0.0
3517,45.0,0.0,240.0,4.0,0.0
3518,64.0,27.0,240.0,4.0,0.0
3519,49.0,5.0,240.0,4.0,0.0
3520,69.0,25.0,240.0,4.0,0.0
3521,52.0,10.0,240.0,4.0,0.0
3522,73.0,25.0,240.0,4.0,0.0
3523,64.0,45.0,330.0,5.0,0.0
3524,57.0,79.0,240.0,4.0,0.0
3525,76.0,0.0,240.0,4.0,0.0
3526,57.0,0.0,360.0,8.0,0.0
3527,81.0,0.0,240.0,3.0,0.0
3528,45.0,5.0,360.0,10.0,0.0
3529,61.0,259.0,360.0,6.0,0.0
3530,45.0,0.0,240.0,4.0,0.0
3531,64.0,27.0,240.0,4.0,0.0
3532,49.0,10.0,240.0,4.0,0.0
3533,69.0,15.0,240.0,4.0,0.0
3534,52.0,10.0,240.0,4.0,0.0
3535,73.0,30.0,240.0,4.0,0.0
3536,57.0,0.0,240.0,4.0,0.0
3537,76.0,89.0,240.0,4.0,0.0
3538,81.0,0.0,240.0,3.0,0.0
3539,57.0,0.0,360.0,8.0,0.0
3540,61.0,504.0,360.0,6.0,0.0
3541,45.0,5.0,360.0,10.0,0.0
3542,64.0,30.0,330.0,5.0,0.0
3543,64.0,0.0,480.0,4.0,0.0
3544,45.0,22.0,480.0,4.0,0.0
3545,69.0,5.0,480.0,4.0,0.0
3546,49.0,25.0,480.0,4.0,0.0
3547,52.0,5.0,480.0,4.0,0.0
3548,73.0,35.0,480.0,4.0,0.0
3549,61.0,284.0,960.0,6.0,0.0
3550,81.0,0.0,960.0,3.0,0.0
3551,76.0,480.0,480.0,4.0,0.0
3552,57.0,0.0,960.0,8.0,0.0
3553,57.0,0.0,480.0,4.0,0.0
3554,45.0,0.0,960.0,10.0,0.0
3555,64.0,0.0,960.0,5.0,0.0
