,note,step,duration,channel,velocity
0,62.0,0.0,780.0,1.0,64.0
1,70.0,0.0,780.0,0.0,64.0
2,46.0,0.0,780.0,3.0,64.0
3,34.0,0.0,780.0,14.0,64.0
4,58.0,0.0,780.0,4.0,64.0
5,46.0,0.0,780.0,4.0,64.0
6,70.0,0.0,780.0,5.0,64.0
7,58.0,576.0,780.0,5.0,64.0
8,46.0,384.0,390.0,6.0,64.0
9,70.0,0.0,780.0,10.0,64.0
10,58.0,0.0,780.0,10.0,64.0
11,58.0,0.0,780.0,11.0,64.0
12,70.0,0.0,780.0,11.0,64.0
13,46.0,0.0,780.0,13.0,64.0
14,53.0,0.0,780.0,2.0,64.0
15,62.0,0.0,780.0,2.0,64.0
16,65.0,0.0,780.0,1.0,64.0
17,58.0,0.0,780.0,12.0,64.0
18,58.0,0.0,390.0,12.0,64.0
19,34.0,480.0,390.0,14.0,64.0
20,58.0,0.0,390.0,5.0,64.0
21,70.0,0.0,390.0,5.0,64.0
22,62.0,0.0,390.0,2.0,64.0
23,70.0,0.0,390.0,11.0,64.0
24,58.0,0.0,390.0,11.0,64.0
25,46.0,0.0,390.0,3.0,64.0
26,46.0,0.0,390.0,4.0,64.0
27,58.0,0.0,390.0,4.0,64.0
28,46.0,0.0,390.0,13.0,64.0
29,53.0,0.0,390.0,2.0,64.0
30,46.0,0.0,390.0,6.0,64.0
31,62.0,0.0,390.0,1.0,64.0
32,65.0,0.0,390.0,1.0,64.0
33,70.0,0.0,390.0,10.0,64.0
34,58.0,0.0,390.0,10.0,64.0
35,70.0,0.0,390.0,0.0,64.0
36,58.0,0.0,390.0,12.0,64.0
37,58.0,0.0,390.0,4.0,64.0
38,46.0,0.0,390.0,4.0,64.0
39,70.0,0.0,390.0,5.0,64.0
40,58.0,0.0,390.0,5.0,64.0
41,46.0,0.0,390.0,6.0,64.0
42,34.0,0.0,390.0,14.0,64.0
43,46.0,0.0,390.0,3.0,64.0
44,62.0,0.0,390.0,1.0,64.0
45,53.0,0.0,390.0,2.0,64.0
46,65.0,0.0,390.0,1.0,64.0
47,70.0,0.0,390.0,11.0,64.0
48,58.0,0.0,390.0,11.0,64.0
49,46.0,0.0,390.0,13.0,64.0
50,62.0,120.0,390.0,2.0,64.0
51,70.0,0.0,390.0,0.0,64.0
52,70.0,0.0,390.0,10.0,64.0
53,58.0,0.0,390.0,10.0,64.0
54,65.0,0.0,1140.0,1.0,64.0
55,58.0,0.0,1140.0,5.0,64.0
56,46.0,18.0,570.0,13.0,64.0
57,58.0,0.0,570.0,12.0,64.0
58,58.0,0.0,1140.0,4.0,64.0
59,46.0,0.0,1140.0,4.0,64.0
60,70.0,0.0,570.0,0.0,64.0
61,62.0,708.0,1140.0,1.0,64.0
62,46.0,0.0,570.0,3.0,64.0
63,70.0,0.0,1140.0,5.0,64.0
64,58.0,0.0,390.0,11.0,64.0
65,34.0,0.0,570.0,14.0,64.0
66,58.0,0.0,390.0,10.0,64.0
67,70.0,0.0,570.0,10.0,64.0
68,46.0,30.0,20.0,6.0,64.0
69,70.0,0.0,570.0,11.0,64.0
70,53.0,0.0,1140.0,2.0,64.0
71,62.0,0.0,1140.0,2.0,64.0
72,46.0,30.0,20.0,6.0,64.0
73,46.0,30.0,20.0,6.0,64.0
74,46.0,30.0,20.0,6.0,64.0
75,46.0,30.0,20.0,6.0,64.0
76,46.0,30.0,20.0,6.0,64.0
77,46.0,30.0,20.0,6.0,64.0
78,46.0,30.0,20.0,6.0,64.0
79,46.0,30.0,20.0,6.0,64.0
80,46.0,30.0,20.0,6.0,64.0
81,46.0,30.0,20.0,6.0,64.0
82,46.0,30.0,20.0,6.0,64.0
83,46.0,30.0,20.0,6.0,64.0
84,46.0,30.0,20.0,6.0,64.0
85,46.0,30.0,20.0,6.0,64.0
86,46.0,30.0,20.0,6.0,64.0
87,46.0,30.0,20.0,6.0,64.0
88,46.0,30.0,20.0,6.0,64.0
89,46.0,12.0,20.0,6.0,64.0
90,46.0,30.0,20.0,6.0,64.0
91,72.0,0.0,60.0,0.0,64.0
92,36.0,0.0,60.0,14.0,64.0
93,48.0,0.0,60.0,13.0,64.0
94,48.0,0.0,60.0,3.0,64.0
95,60.0,0.0,60.0,12.0,64.0
96,46.0,24.0,20.0,6.0,64.0
97,72.0,6.0,60.0,10.0,64.0
98,72.0,0.0,60.0,11.0,64.0
99,46.0,30.0,20.0,6.0,64.0
100,38.0,6.0,60.0,14.0,64.0
101,50.0,0.0,60.0,3.0,64.0
102,74.0,0.0,60.0,10.0,64.0
103,50.0,0.0,60.0,13.0,64.0
104,62.0,0.0,60.0,12.0,64.0
105,74.0,0.0,60.0,0.0,64.0
106,46.0,24.0,20.0,6.0,64.0
107,74.0,0.0,60.0,11.0,64.0
108,46.0,30.0,20.0,6.0,64.0
109,75.0,0.0,60.0,10.0,64.0
110,63.0,0.0,60.0,12.0,64.0
111,51.0,0.0,60.0,13.0,64.0
112,46.0,24.0,20.0,6.0,64.0
113,75.0,6.0,60.0,11.0,64.0
114,39.0,0.0,60.0,14.0,64.0
115,51.0,0.0,60.0,3.0,64.0
116,75.0,0.0,60.0,0.0,64.0
117,46.0,30.0,20.0,6.0,64.0
118,53.0,6.0,60.0,3.0,64.0
119,65.0,0.0,60.0,12.0,64.0
120,77.0,0.0,60.0,10.0,64.0
121,46.0,24.0,20.0,6.0,64.0
122,53.0,0.0,60.0,13.0,64.0
123,77.0,0.0,60.0,0.0,64.0
124,41.0,0.0,60.0,14.0,64.0
125,77.0,0.0,60.0,11.0,64.0
126,46.0,30.0,20.0,6.0,64.0
127,67.0,0.0,60.0,12.0,64.0
128,79.0,0.0,60.0,10.0,64.0
129,46.0,24.0,20.0,6.0,64.0
130,55.0,0.0,60.0,13.0,64.0
131,43.0,0.0,60.0,14.0,64.0
132,79.0,0.0,60.0,0.0,64.0
133,55.0,6.0,60.0,3.0,64.0
134,79.0,0.0,60.0,11.0,64.0
135,46.0,30.0,20.0,6.0,64.0
136,81.0,0.0,60.0,0.0,64.0
137,69.0,0.0,60.0,12.0,64.0
138,57.0,0.0,60.0,13.0,64.0
139,45.0,6.0,60.0,14.0,64.0
140,46.0,24.0,20.0,6.0,64.0
141,57.0,0.0,60.0,3.0,64.0
142,81.0,0.0,60.0,11.0,64.0
143,81.0,0.0,60.0,10.0,64.0
144,46.0,198.0,20.0,6.0,64.0
145,82.0,0.0,180.0,0.0,64.0
146,82.0,0.0,180.0,10.0,64.0
147,46.0,0.0,180.0,14.0,64.0
148,58.0,0.0,180.0,3.0,64.0
149,70.0,0.0,180.0,12.0,64.0
150,58.0,0.0,180.0,13.0,64.0
151,82.0,0.0,180.0,11.0,64.0
152,46.0,0.0,180.0,6.0,64.0
153,82.0,0.0,180.0,10.0,64.0
154,70.0,60.0,180.0,11.0,64.0
155,77.0,240.0,60.0,10.0,64.0
156,65.0,0.0,60.0,11.0,64.0
157,62.0,0.0,240.0,11.0,64.0
158,74.0,180.0,240.0,10.0,64.0
159,79.0,0.0,180.0,10.0,64.0
160,67.0,60.0,180.0,11.0,64.0
161,75.0,192.0,60.0,10.0,64.0
162,63.0,0.0,60.0,11.0,64.0
163,60.0,0.0,180.0,11.0,64.0
164,72.0,228.0,180.0,10.0,64.0
165,65.0,60.0,180.0,11.0,64.0
166,77.0,0.0,180.0,10.0,64.0
167,74.0,240.0,60.0,10.0,64.0
168,62.0,0.0,60.0,11.0,64.0
169,58.0,0.0,240.0,11.0,64.0
170,70.0,180.0,240.0,10.0,64.0
171,63.0,60.0,180.0,11.0,64.0
172,75.0,0.0,180.0,10.0,64.0
173,72.0,0.0,60.0,10.0,64.0
174,60.0,192.0,60.0,11.0,64.0
175,57.0,0.0,180.0,11.0,64.0
176,69.0,228.0,180.0,10.0,64.0
177,74.0,0.0,180.0,10.0,64.0
178,62.0,60.0,180.0,11.0,64.0
179,70.0,72.0,60.0,10.0,64.0
180,58.0,0.0,60.0,11.0,64.0
181,65.0,0.0,780.0,2.0,64.0
182,69.0,24.0,780.0,1.0,64.0
183,60.0,0.0,780.0,4.0,64.0
184,53.0,0.0,780.0,4.0,64.0
185,63.0,0.0,780.0,2.0,64.0
186,57.0,0.0,60.0,11.0,64.0
187,72.0,0.0,780.0,1.0,64.0
188,75.0,0.0,780.0,0.0,64.0
189,77.0,0.0,780.0,0.0,64.0
190,69.0,120.0,60.0,10.0,64.0
191,70.0,0.0,60.0,10.0,64.0
192,58.0,120.0,60.0,11.0,64.0
193,60.0,0.0,60.0,11.0,64.0
194,72.0,120.0,60.0,10.0,64.0
195,62.0,120.0,60.0,11.0,64.0
196,74.0,0.0,60.0,10.0,64.0
197,63.0,0.0,60.0,11.0,64.0
198,75.0,120.0,60.0,10.0,64.0
199,77.0,96.0,60.0,10.0,64.0
200,65.0,0.0,60.0,11.0,64.0
201,67.0,120.0,60.0,11.0,64.0
202,79.0,0.0,60.0,10.0,64.0
203,65.0,0.0,60.0,11.0,64.0
204,77.0,120.0,60.0,10.0,64.0
205,63.0,0.0,60.0,11.0,64.0
206,75.0,120.0,60.0,10.0,64.0
207,63.0,48.0,390.0,2.0,64.0
208,75.0,0.0,390.0,0.0,64.0
209,77.0,0.0,390.0,0.0,64.0
210,60.0,0.0,390.0,4.0,64.0
211,53.0,0.0,390.0,4.0,64.0
212,72.0,0.0,390.0,1.0,64.0
213,69.0,0.0,390.0,1.0,64.0
214,65.0,0.0,390.0,2.0,64.0
215,62.0,120.0,60.0,11.0,64.0
216,74.0,0.0,60.0,10.0,64.0
217,60.0,72.0,60.0,11.0,64.0
218,72.0,0.0,60.0,10.0,64.0
219,58.0,120.0,60.0,11.0,64.0
220,70.0,0.0,60.0,10.0,64.0
221,63.0,0.0,390.0,2.0,64.0
222,60.0,0.0,390.0,4.0,64.0
223,53.0,0.0,390.0,4.0,64.0
224,57.0,0.0,60.0,11.0,64.0
225,75.0,0.0,390.0,0.0,64.0
226,77.0,0.0,390.0,0.0,64.0
227,72.0,48.0,390.0,1.0,64.0
228,69.0,0.0,390.0,1.0,64.0
229,69.0,120.0,60.0,10.0,64.0
230,65.0,0.0,390.0,2.0,64.0
231,70.0,120.0,60.0,10.0,64.0
232,58.0,0.0,60.0,11.0,64.0
233,60.0,72.0,60.0,11.0,64.0
234,72.0,0.0,60.0,10.0,64.0
235,69.0,0.0,60.0,10.0,64.0
236,57.0,432.0,60.0,11.0,64.0
237,58.0,0.0,780.0,11.0,64.0
238,46.0,384.0,390.0,6.0,64.0
239,58.0,0.0,780.0,12.0,64.0
240,46.0,0.0,780.0,13.0,64.0
241,34.0,0.0,780.0,14.0,64.0
242,70.0,0.0,780.0,11.0,64.0
243,58.0,0.0,780.0,10.0,64.0
244,70.0,0.0,780.0,1.0,64.0
245,70.0,0.0,780.0,10.0,64.0
246,70.0,0.0,780.0,0.0,64.0
247,58.0,0.0,780.0,4.0,64.0
248,46.0,0.0,780.0,4.0,64.0
249,70.0,0.0,780.0,5.0,64.0
250,46.0,576.0,780.0,3.0,64.0
251,58.0,0.0,780.0,5.0,64.0
252,65.0,0.0,780.0,2.0,64.0
253,62.0,0.0,780.0,2.0,64.0
254,62.0,0.0,390.0,1.0,64.0
255,46.0,0.0,390.0,3.0,64.0
256,46.0,0.0,390.0,4.0,64.0
257,70.0,0.0,390.0,5.0,64.0
258,58.0,0.0,390.0,5.0,64.0
259,70.0,0.0,390.0,10.0,64.0
260,58.0,0.0,390.0,10.0,64.0
261,53.0,0.0,390.0,2.0,64.0
262,62.0,0.0,390.0,2.0,64.0
263,58.0,0.0,390.0,4.0,64.0
264,34.0,480.0,390.0,14.0,64.0
265,46.0,0.0,390.0,6.0,64.0
266,70.0,0.0,390.0,0.0,64.0
267,65.0,0.0,390.0,1.0,64.0
268,46.0,0.0,390.0,13.0,64.0
269,58.0,0.0,390.0,12.0,64.0
270,58.0,0.0,390.0,11.0,64.0
271,70.0,0.0,390.0,11.0,64.0
272,70.0,0.0,390.0,11.0,64.0
273,58.0,0.0,390.0,11.0,64.0
274,46.0,0.0,390.0,6.0,64.0
275,34.0,0.0,390.0,14.0,64.0
276,62.0,0.0,390.0,2.0,64.0
277,58.0,120.0,390.0,12.0,64.0
278,62.0,0.0,390.0,1.0,64.0
279,65.0,0.0,390.0,1.0,64.0
280,58.0,0.0,390.0,4.0,64.0
281,46.0,0.0,390.0,4.0,64.0
282,46.0,0.0,390.0,3.0,64.0
283,58.0,0.0,390.0,10.0,64.0
284,70.0,0.0,390.0,10.0,64.0
285,70.0,0.0,390.0,0.0,64.0
286,46.0,0.0,390.0,13.0,64.0
287,53.0,0.0,390.0,2.0,64.0
288,58.0,0.0,390.0,5.0,64.0
289,70.0,0.0,390.0,5.0,64.0
290,34.0,0.0,570.0,14.0,64.0
291,46.0,0.0,570.0,3.0,64.0
292,53.0,0.0,1140.0,2.0,64.0
293,65.0,0.0,1140.0,1.0,64.0
294,62.0,708.0,1140.0,1.0,64.0
295,70.0,0.0,1140.0,5.0,64.0
296,58.0,0.0,1140.0,5.0,64.0
297,46.0,0.0,1140.0,4.0,64.0
298,58.0,0.0,1140.0,4.0,64.0
299,58.0,30.0,390.0,10.0,64.0
300,70.0,18.0,570.0,0.0,64.0
301,70.0,0.0,570.0,10.0,64.0
302,58.0,0.0,570.0,12.0,64.0
303,46.0,30.0,20.0,6.0,64.0
304,62.0,0.0,1140.0,2.0,64.0
305,70.0,0.0,570.0,11.0,64.0
306,58.0,0.0,390.0,11.0,64.0
307,46.0,0.0,570.0,13.0,64.0
308,46.0,30.0,20.0,6.0,64.0
309,46.0,30.0,20.0,6.0,64.0
310,46.0,30.0,20.0,6.0,64.0
311,46.0,30.0,20.0,6.0,64.0
312,46.0,30.0,20.0,6.0,64.0
313,46.0,30.0,20.0,6.0,64.0
314,46.0,30.0,20.0,6.0,64.0
315,46.0,30.0,20.0,6.0,64.0
316,46.0,30.0,20.0,6.0,64.0
317,46.0,30.0,20.0,6.0,64.0
318,46.0,30.0,20.0,6.0,64.0
319,46.0,0.0,20.0,6.0,64.0
320,46.0,30.0,20.0,6.0,64.0
321,46.0,30.0,20.0,6.0,64.0
322,46.0,30.0,20.0,6.0,64.0
323,46.0,30.0,20.0,6.0,64.0
324,46.0,30.0,20.0,6.0,64.0
325,46.0,12.0,20.0,6.0,64.0
326,46.0,30.0,20.0,6.0,64.0
327,48.0,0.0,60.0,13.0,64.0
328,72.0,0.0,60.0,11.0,64.0
329,60.0,0.0,60.0,12.0,64.0
330,72.0,0.0,60.0,10.0,64.0
331,72.0,0.0,60.0,0.0,64.0
332,36.0,0.0,60.0,14.0,64.0
333,48.0,6.0,60.0,3.0,64.0
334,46.0,24.0,20.0,6.0,64.0
335,46.0,30.0,20.0,6.0,64.0
336,50.0,0.0,60.0,3.0,64.0
337,50.0,0.0,60.0,13.0,64.0
338,74.0,0.0,60.0,0.0,64.0
339,38.0,0.0,60.0,14.0,64.0
340,74.0,6.0,60.0,10.0,64.0
341,74.0,0.0,60.0,11.0,64.0
342,46.0,24.0,20.0,6.0,64.0
343,62.0,0.0,60.0,12.0,64.0
344,46.0,30.0,20.0,6.0,64.0
345,75.0,0.0,60.0,0.0,64.0
346,51.0,0.0,60.0,3.0,64.0
347,39.0,0.0,60.0,14.0,64.0
348,63.0,0.0,60.0,12.0,64.0
349,75.0,0.0,60.0,10.0,64.0
350,51.0,6.0,60.0,13.0,64.0
351,75.0,0.0,60.0,11.0,64.0
352,46.0,24.0,20.0,6.0,64.0
353,46.0,30.0,20.0,6.0,64.0
354,53.0,6.0,60.0,3.0,64.0
355,77.0,0.0,60.0,10.0,64.0
356,46.0,24.0,20.0,6.0,64.0
357,53.0,0.0,60.0,13.0,64.0
358,65.0,0.0,60.0,12.0,64.0
359,41.0,0.0,60.0,14.0,64.0
360,77.0,0.0,60.0,0.0,64.0
361,77.0,0.0,60.0,11.0,64.0
362,46.0,30.0,20.0,6.0,64.0
363,55.0,0.0,60.0,13.0,64.0
364,43.0,0.0,60.0,14.0,64.0
365,79.0,0.0,60.0,0.0,64.0
366,67.0,0.0,60.0,12.0,64.0
367,46.0,24.0,20.0,6.0,64.0
368,55.0,0.0,60.0,3.0,64.0
369,79.0,6.0,60.0,10.0,64.0
370,79.0,0.0,60.0,11.0,64.0
371,46.0,30.0,20.0,6.0,64.0
372,45.0,0.0,60.0,14.0,64.0
373,57.0,6.0,60.0,13.0,64.0
374,69.0,0.0,60.0,12.0,64.0
375,81.0,0.0,60.0,0.0,64.0
376,46.0,24.0,20.0,6.0,64.0
377,81.0,0.0,60.0,11.0,64.0
378,57.0,0.0,60.0,3.0,64.0
379,81.0,0.0,60.0,10.0,64.0
380,46.0,198.0,20.0,6.0,64.0
381,58.0,0.0,180.0,13.0,64.0
382,82.0,0.0,180.0,0.0,64.0
383,70.0,0.0,180.0,12.0,64.0
384,46.0,0.0,180.0,14.0,64.0
385,46.0,0.0,180.0,6.0,64.0
386,58.0,0.0,180.0,3.0,64.0
387,82.0,0.0,180.0,11.0,64.0
388,82.0,0.0,180.0,10.0,64.0
389,70.0,0.0,180.0,11.0,64.0
390,82.0,60.0,180.0,10.0,64.0
391,65.0,0.0,60.0,11.0,64.0
392,77.0,240.0,60.0,10.0,64.0
393,74.0,180.0,240.0,10.0,64.0
394,62.0,0.0,240.0,11.0,64.0
395,79.0,60.0,180.0,10.0,64.0
396,67.0,0.0,180.0,11.0,64.0
397,63.0,0.0,60.0,11.0,64.0
398,75.0,192.0,60.0,10.0,64.0
399,60.0,228.0,180.0,11.0,64.0
400,72.0,0.0,180.0,10.0,64.0
401,77.0,60.0,180.0,10.0,64.0
402,65.0,0.0,180.0,11.0,64.0
403,74.0,240.0,60.0,10.0,64.0
404,62.0,0.0,60.0,11.0,64.0
405,58.0,180.0,240.0,11.0,64.0
406,70.0,0.0,240.0,10.0,64.0
407,63.0,0.0,180.0,11.0,64.0
408,75.0,60.0,180.0,10.0,64.0
409,60.0,192.0,60.0,11.0,64.0
410,72.0,0.0,60.0,10.0,64.0
411,69.0,0.0,180.0,10.0,64.0
412,57.0,228.0,180.0,11.0,64.0
413,74.0,0.0,180.0,10.0,64.0
414,62.0,60.0,180.0,11.0,64.0
415,58.0,0.0,60.0,11.0,64.0
416,70.0,72.0,60.0,10.0,64.0
417,57.0,0.0,60.0,11.0,64.0
418,65.0,0.0,780.0,2.0,64.0
419,75.0,0.0,780.0,1.0,64.0
420,72.0,0.0,780.0,1.0,64.0
421,53.0,0.0,780.0,4.0,64.0
422,77.0,24.0,780.0,0.0,64.0
423,60.0,0.0,780.0,4.0,64.0
424,69.0,0.0,780.0,2.0,64.0
425,69.0,120.0,60.0,10.0,64.0
426,58.0,120.0,60.0,11.0,64.0
427,70.0,0.0,60.0,10.0,64.0
428,72.0,0.0,60.0,10.0,64.0
429,60.0,120.0,60.0,11.0,64.0
430,62.0,120.0,60.0,11.0,64.0
431,74.0,0.0,60.0,10.0,64.0
432,75.0,0.0,60.0,10.0,64.0
433,63.0,120.0,60.0,11.0,64.0
434,77.0,0.0,60.0,10.0,64.0
435,65.0,96.0,60.0,11.0,64.0
436,79.0,0.0,60.0,10.0,64.0
437,67.0,120.0,60.0,11.0,64.0
438,77.0,0.0,60.0,10.0,64.0
439,65.0,120.0,60.0,11.0,64.0
440,63.0,0.0,60.0,11.0,64.0
441,75.0,120.0,60.0,10.0,64.0
442,69.0,0.0,390.0,2.0,64.0
443,65.0,0.0,390.0,2.0,64.0
444,77.0,0.0,390.0,0.0,64.0
445,72.0,0.0,390.0,1.0,64.0
446,75.0,0.0,390.0,1.0,64.0
447,53.0,48.0,390.0,4.0,64.0
448,60.0,0.0,390.0,4.0,64.0
449,62.0,120.0,60.0,11.0,64.0
450,74.0,0.0,60.0,10.0,64.0
451,60.0,0.0,60.0,11.0,64.0
452,72.0,72.0,60.0,10.0,64.0
453,58.0,120.0,60.0,11.0,64.0
454,70.0,0.0,60.0,10.0,64.0
455,65.0,0.0,390.0,2.0,64.0
456,69.0,0.0,60.0,10.0,64.0
457,77.0,0.0,390.0,0.0,64.0
458,53.0,0.0,390.0,4.0,64.0
459,60.0,0.0,390.0,4.0,64.0
460,57.0,120.0,60.0,11.0,64.0
461,69.0,48.0,390.0,2.0,64.0
462,75.0,0.0,390.0,1.0,64.0
463,72.0,0.0,390.0,1.0,64.0
464,58.0,120.0,60.0,11.0,64.0
465,70.0,0.0,60.0,10.0,64.0
466,72.0,0.0,60.0,10.0,64.0
467,60.0,72.0,60.0,11.0,64.0
468,74.0,0.0,60.0,10.0,64.0
469,62.0,120.0,60.0,11.0,64.0
470,75.0,120.0,60.0,10.0,64.0
471,63.0,0.0,60.0,11.0,64.0
472,77.0,0.0,780.0,0.0,64.0
473,81.0,24.0,780.0,0.0,64.0
474,75.0,0.0,780.0,1.0,64.0
475,53.0,0.0,780.0,4.0,64.0
476,60.0,0.0,780.0,4.0,64.0
477,65.0,0.0,780.0,2.0,64.0
478,69.0,0.0,780.0,2.0,64.0
479,72.0,0.0,780.0,1.0,64.0
480,77.0,120.0,60.0,10.0,64.0
481,65.0,0.0,60.0,11.0,64.0
482,67.0,0.0,60.0,11.0,64.0
483,79.0,120.0,60.0,10.0,64.0
484,65.0,120.0,60.0,11.0,64.0
485,77.0,0.0,60.0,10.0,64.0
486,63.0,120.0,60.0,11.0,64.0
487,75.0,0.0,60.0,10.0,64.0
488,62.0,0.0,60.0,11.0,64.0
489,74.0,96.0,60.0,10.0,64.0
490,72.0,0.0,60.0,10.0,64.0
491,60.0,120.0,60.0,11.0,64.0
492,70.0,0.0,60.0,10.0,64.0
493,58.0,120.0,60.0,11.0,64.0
494,69.0,0.0,390.0,2.0,64.0
495,81.0,48.0,390.0,0.0,64.0
496,57.0,120.0,60.0,11.0,64.0
497,60.0,0.0,390.0,4.0,64.0
498,75.0,0.0,390.0,1.0,64.0
499,53.0,0.0,390.0,4.0,64.0
500,77.0,0.0,390.0,0.0,64.0
501,65.0,0.0,390.0,2.0,64.0
502,69.0,0.0,60.0,10.0,64.0
503,72.0,0.0,390.0,1.0,64.0
504,70.0,0.0,60.0,10.0,64.0
505,58.0,120.0,60.0,11.0,64.0
506,60.0,0.0,60.0,11.0,64.0
507,72.0,72.0,60.0,10.0,64.0
508,62.0,0.0,60.0,11.0,64.0
509,74.0,120.0,60.0,10.0,64.0
510,77.0,0.0,390.0,0.0,64.0
511,81.0,0.0,390.0,0.0,64.0
512,75.0,48.0,390.0,1.0,64.0
513,53.0,0.0,390.0,4.0,64.0
514,63.0,120.0,60.0,11.0,64.0
515,75.0,0.0,60.0,10.0,64.0
516,69.0,0.0,390.0,2.0,64.0
517,65.0,0.0,390.0,2.0,64.0
518,72.0,0.0,390.0,1.0,64.0
519,60.0,0.0,390.0,4.0,64.0
520,62.0,0.0,60.0,11.0,64.0
521,74.0,120.0,60.0,10.0,64.0
522,63.0,0.0,60.0,11.0,64.0
523,75.0,72.0,60.0,10.0,64.0
524,72.0,0.0,60.0,10.0,64.0
525,60.0,126.0,60.0,11.0,64.0
526,77.0,0.0,180.0,0.0,64.0
527,82.0,0.0,180.0,0.0,64.0
528,70.0,0.0,180.0,5.0,64.0
529,58.0,6.0,180.0,10.0,64.0
530,70.0,0.0,180.0,10.0,64.0
531,58.0,0.0,180.0,5.0,64.0
532,58.0,0.0,180.0,4.0,64.0
533,46.0,0.0,180.0,4.0,64.0
534,46.0,0.0,90.0,13.0,64.0
535,34.0,0.0,90.0,14.0,64.0
536,46.0,0.0,180.0,6.0,64.0
537,65.0,0.0,180.0,2.0,64.0
538,46.0,0.0,90.0,3.0,64.0
539,70.0,0.0,180.0,1.0,64.0
540,74.0,0.0,180.0,1.0,64.0
541,70.0,0.0,180.0,2.0,64.0
542,58.0,0.0,180.0,11.0,64.0
543,58.0,114.0,90.0,12.0,64.0
544,48.0,0.0,90.0,3.0,64.0
545,60.0,0.0,90.0,12.0,64.0
546,36.0,0.0,90.0,14.0,64.0
547,48.0,120.0,90.0,13.0,64.0
548,50.0,120.0,90.0,3.0,64.0
549,62.0,0.0,90.0,12.0,64.0
550,50.0,0.0,90.0,13.0,64.0
551,38.0,0.0,90.0,14.0,64.0
552,51.0,0.0,90.0,13.0,64.0
553,51.0,0.0,90.0,3.0,64.0
554,39.0,0.0,90.0,14.0,64.0
555,63.0,30.0,90.0,12.0,64.0
556,77.0,90.0,60.0,10.0,64.0
557,77.0,0.0,60.0,11.0,64.0
558,65.0,114.0,90.0,12.0,64.0
559,65.0,0.0,180.0,10.0,64.0
560,65.0,0.0,180.0,11.0,64.0
561,53.0,0.0,90.0,13.0,64.0
562,41.0,0.0,180.0,6.0,64.0
563,53.0,0.0,90.0,3.0,64.0
564,65.0,6.0,180.0,5.0,64.0
565,41.0,0.0,90.0,14.0,64.0
566,55.0,120.0,90.0,13.0,64.0
567,43.0,0.0,90.0,14.0,64.0
568,55.0,0.0,90.0,3.0,64.0
569,67.0,0.0,90.0,12.0,64.0
570,51.0,0.0,90.0,3.0,64.0
571,65.0,0.0,180.0,5.0,64.0
572,41.0,6.0,180.0,6.0,64.0
573,63.0,114.0,90.0,12.0,64.0
574,51.0,0.0,90.0,13.0,64.0
575,65.0,0.0,180.0,11.0,64.0
576,65.0,0.0,180.0,10.0,64.0
577,39.0,0.0,90.0,14.0,64.0
578,41.0,0.0,90.0,14.0,64.0
579,53.0,0.0,90.0,3.0,64.0
580,53.0,0.0,90.0,13.0,64.0
581,65.0,30.0,90.0,12.0,64.0
582,53.0,0.0,60.0,4.0,64.0
583,65.0,90.0,60.0,1.0,64.0
584,65.0,0.0,60.0,0.0,64.0
585,65.0,0.0,180.0,1.0,64.0
586,62.0,0.0,90.0,12.0,64.0
587,77.0,0.0,150.0,1.0,64.0
588,38.0,0.0,90.0,14.0,64.0
589,50.0,78.0,90.0,3.0,64.0
590,50.0,0.0,180.0,4.0,64.0
591,77.0,36.0,150.0,0.0,64.0
592,41.0,0.0,180.0,6.0,64.0
593,65.0,12.0,780.0,5.0,64.0
594,50.0,0.0,90.0,13.0,64.0
595,65.0,0.0,180.0,11.0,64.0
596,65.0,6.0,180.0,10.0,64.0
597,58.0,0.0,150.0,4.0,64.0
598,51.0,0.0,90.0,3.0,64.0
599,51.0,0.0,90.0,13.0,64.0
600,63.0,120.0,90.0,12.0,64.0
601,39.0,0.0,90.0,14.0,64.0
602,50.0,48.0,390.0,4.0,64.0
603,53.0,0.0,90.0,13.0,64.0
604,77.0,0.0,390.0,1.0,64.0
605,58.0,0.0,390.0,4.0,64.0
606,65.0,0.0,390.0,1.0,64.0
607,77.0,0.0,390.0,0.0,64.0
608,65.0,0.0,90.0,12.0,64.0
609,41.0,120.0,90.0,14.0,64.0
610,53.0,0.0,90.0,3.0,64.0
611,63.0,30.0,90.0,12.0,64.0
612,51.0,0.0,90.0,3.0,64.0
613,51.0,0.0,90.0,13.0,64.0
614,39.0,0.0,90.0,14.0,64.0
615,65.0,0.0,60.0,10.0,64.0
616,65.0,30.0,60.0,11.0,64.0
617,65.0,60.0,90.0,2.0,64.0
618,50.0,0.0,90.0,3.0,64.0
619,62.0,0.0,90.0,12.0,64.0
620,38.0,0.0,90.0,14.0,64.0
621,50.0,66.0,90.0,13.0,64.0
622,77.0,0.0,180.0,10.0,64.0
623,70.0,6.0,180.0,11.0,64.0
624,65.0,72.0,150.0,2.0,64.0
625,51.0,0.0,90.0,3.0,64.0
626,63.0,0.0,90.0,12.0,64.0
627,51.0,18.0,90.0,13.0,64.0
628,39.0,0.0,90.0,14.0,64.0
629,82.0,18.0,60.0,0.0,64.0
630,48.0,0.0,90.0,3.0,64.0
631,82.0,0.0,60.0,10.0,64.0
632,60.0,0.0,90.0,12.0,64.0
633,75.0,0.0,180.0,1.0,64.0
634,69.0,0.0,180.0,1.0,64.0
635,60.0,0.0,180.0,4.0,64.0
636,53.0,0.0,180.0,4.0,64.0
637,36.0,0.0,90.0,14.0,64.0
638,65.0,0.0,180.0,11.0,64.0
639,75.0,6.0,180.0,11.0,64.0
640,48.0,42.0,90.0,13.0,64.0
641,63.0,12.0,150.0,2.0,64.0
642,81.0,0.0,60.0,0.0,64.0
643,65.0,0.0,150.0,2.0,64.0
644,81.0,60.0,60.0,10.0,64.0
645,79.0,0.0,60.0,0.0,64.0
646,62.0,0.0,90.0,12.0,64.0
647,50.0,0.0,90.0,13.0,64.0
648,50.0,0.0,90.0,3.0,64.0
649,79.0,12.0,60.0,10.0,64.0
650,38.0,18.0,90.0,14.0,64.0
651,81.0,90.0,60.0,0.0,64.0
652,81.0,0.0,60.0,10.0,64.0
653,34.0,0.0,90.0,14.0,64.0
654,46.0,0.0,90.0,3.0,64.0
655,58.0,0.0,180.0,4.0,64.0
656,62.0,0.0,180.0,4.0,64.0
657,82.0,0.0,180.0,0.0,64.0
658,70.0,0.0,180.0,5.0,64.0
659,82.0,0.0,180.0,10.0,64.0
660,58.0,0.0,180.0,5.0,64.0
661,62.0,6.0,180.0,2.0,64.0
662,65.0,0.0,180.0,2.0,64.0
663,70.0,0.0,180.0,1.0,64.0
664,58.0,0.0,180.0,11.0,64.0
665,74.0,0.0,180.0,11.0,64.0
666,46.0,0.0,180.0,6.0,64.0
667,65.0,0.0,180.0,11.0,64.0
668,74.0,0.0,180.0,1.0,64.0
669,46.0,0.0,90.0,13.0,64.0
670,58.0,114.0,90.0,12.0,64.0
671,36.0,0.0,90.0,14.0,64.0
672,48.0,0.0,90.0,13.0,64.0
673,60.0,120.0,90.0,12.0,64.0
674,48.0,0.0,90.0,3.0,64.0
675,38.0,0.0,90.0,14.0,64.0
676,62.0,0.0,90.0,12.0,64.0
677,50.0,0.0,90.0,3.0,64.0
678,50.0,120.0,90.0,13.0,64.0
679,51.0,0.0,90.0,13.0,64.0
680,51.0,30.0,90.0,3.0,64.0
681,63.0,0.0,90.0,12.0,64.0
682,39.0,0.0,90.0,14.0,64.0
683,77.0,90.0,60.0,11.0,64.0
684,77.0,0.0,60.0,10.0,64.0
685,53.0,0.0,90.0,13.0,64.0
686,65.0,0.0,180.0,10.0,64.0
687,65.0,6.0,180.0,11.0,64.0
688,41.0,0.0,180.0,6.0,64.0
689,41.0,114.0,90.0,14.0,64.0
690,65.0,0.0,180.0,5.0,64.0
691,53.0,0.0,90.0,3.0,64.0
692,65.0,0.0,90.0,12.0,64.0
693,43.0,120.0,90.0,14.0,64.0
694,55.0,0.0,90.0,3.0,64.0
695,67.0,0.0,90.0,12.0,64.0
696,55.0,0.0,90.0,13.0,64.0
697,65.0,0.0,180.0,5.0,64.0
698,51.0,114.0,90.0,3.0,64.0
699,41.0,0.0,180.0,6.0,64.0
700,65.0,0.0,180.0,10.0,64.0
701,63.0,0.0,90.0,12.0,64.0
702,65.0,6.0,180.0,11.0,64.0
703,51.0,0.0,90.0,13.0,64.0
704,39.0,0.0,90.0,14.0,64.0
705,65.0,30.0,90.0,12.0,64.0
706,53.0,0.0,90.0,3.0,64.0
707,53.0,0.0,90.0,13.0,64.0
708,41.0,0.0,90.0,14.0,64.0
709,53.0,0.0,60.0,4.0,64.0
710,65.0,0.0,60.0,1.0,64.0
711,65.0,90.0,60.0,0.0,64.0
712,65.0,0.0,180.0,11.0,64.0
713,50.0,0.0,180.0,4.0,64.0
714,58.0,0.0,180.0,4.0,64.0
715,38.0,0.0,90.0,14.0,64.0
716,62.0,0.0,90.0,12.0,64.0
717,65.0,0.0,180.0,1.0,64.0
718,77.0,36.0,150.0,1.0,64.0
719,50.0,0.0,90.0,13.0,64.0
720,65.0,6.0,180.0,10.0,64.0
721,50.0,78.0,90.0,3.0,64.0
722,77.0,0.0,150.0,0.0,64.0
723,65.0,12.0,780.0,5.0,64.0
724,41.0,0.0,180.0,6.0,64.0
725,63.0,0.0,90.0,12.0,64.0
726,51.0,120.0,90.0,13.0,64.0
727,39.0,0.0,90.0,14.0,64.0
728,51.0,0.0,90.0,3.0,64.0
729,53.0,0.0,90.0,3.0,64.0
730,77.0,0.0,390.0,0.0,64.0
731,58.0,48.0,390.0,4.0,64.0
732,41.0,0.0,90.0,14.0,64.0
733,50.0,0.0,390.0,4.0,64.0
734,65.0,120.0,90.0,12.0,64.0
735,65.0,0.0,390.0,1.0,64.0
736,77.0,0.0,390.0,1.0,64.0
737,53.0,0.0,90.0,13.0,64.0
738,39.0,0.0,90.0,14.0,64.0
739,63.0,30.0,90.0,12.0,64.0
740,51.0,0.0,90.0,3.0,64.0
741,51.0,0.0,90.0,13.0,64.0
742,65.0,30.0,60.0,10.0,64.0
743,65.0,60.0,90.0,2.0,64.0
744,65.0,0.0,60.0,11.0,64.0
745,38.0,0.0,90.0,14.0,64.0
746,50.0,0.0,90.0,13.0,64.0
747,50.0,66.0,90.0,3.0,64.0
748,62.0,0.0,90.0,12.0,64.0
749,77.0,0.0,180.0,10.0,64.0
750,70.0,6.0,180.0,11.0,64.0
751,65.0,72.0,150.0,2.0,64.0
752,63.0,0.0,90.0,12.0,64.0
753,51.0,0.0,90.0,13.0,64.0
754,39.0,18.0,90.0,14.0,64.0
755,51.0,0.0,90.0,3.0,64.0
756,36.0,0.0,90.0,14.0,64.0
757,60.0,0.0,180.0,4.0,64.0
758,60.0,0.0,90.0,12.0,64.0
759,75.0,0.0,180.0,11.0,64.0
760,82.0,18.0,60.0,10.0,64.0
761,82.0,0.0,60.0,0.0,64.0
762,53.0,6.0,180.0,4.0,64.0
763,48.0,0.0,90.0,3.0,64.0
764,48.0,42.0,90.0,13.0,64.0
765,69.0,0.0,180.0,1.0,64.0
766,65.0,0.0,180.0,11.0,64.0
767,75.0,0.0,180.0,1.0,64.0
768,65.0,12.0,150.0,2.0,64.0
769,63.0,0.0,150.0,2.0,64.0
770,81.0,60.0,60.0,0.0,64.0
771,81.0,0.0,60.0,10.0,64.0
772,38.0,0.0,90.0,14.0,64.0
773,62.0,18.0,90.0,12.0,64.0
774,79.0,0.0,60.0,10.0,64.0
775,79.0,12.0,60.0,0.0,64.0
776,50.0,0.0,90.0,3.0,64.0
777,50.0,0.0,90.0,13.0,64.0
778,81.0,60.0,60.0,10.0,64.0
779,81.0,0.0,60.0,0.0,64.0
780,74.0,24.0,390.0,1.0,64.0
781,46.0,6.0,180.0,6.0,64.0
782,58.0,30.0,90.0,12.0,64.0
783,46.0,0.0,780.0,4.0,64.0
784,58.0,0.0,180.0,5.0,64.0
785,62.0,0.0,390.0,2.0,64.0
786,70.0,24.0,2790.0,1.0,64.0
787,70.0,0.0,180.0,5.0,64.0
788,74.0,30.0,60.0,11.0,64.0
789,65.0,0.0,60.0,11.0,64.0
790,82.0,0.0,330.0,10.0,64.0
791,46.0,0.0,90.0,13.0,64.0
792,46.0,0.0,90.0,3.0,64.0
793,82.0,12.0,330.0,0.0,64.0
794,34.0,0.0,90.0,14.0,64.0
795,65.0,0.0,390.0,2.0,64.0
796,58.0,0.0,780.0,4.0,64.0
797,74.0,60.0,60.0,11.0,64.0
798,65.0,0.0,60.0,11.0,64.0
799,58.0,0.0,90.0,13.0,64.0
800,74.0,0.0,60.0,11.0,64.0
801,65.0,24.0,60.0,11.0,64.0
802,46.0,0.0,90.0,14.0,64.0
803,58.0,0.0,90.0,3.0,64.0
804,70.0,30.0,90.0,12.0,64.0
805,74.0,60.0,60.0,11.0,64.0
806,65.0,0.0,60.0,11.0,64.0
807,65.0,30.0,60.0,11.0,64.0
808,74.0,0.0,60.0,11.0,64.0
809,58.0,0.0,90.0,12.0,64.0
810,34.0,0.0,90.0,14.0,64.0
811,46.0,0.0,90.0,13.0,64.0
812,46.0,18.0,90.0,3.0,64.0
813,65.0,36.0,60.0,11.0,64.0
814,74.0,0.0,60.0,11.0,64.0
815,46.0,0.0,90.0,13.0,64.0
816,34.0,0.0,90.0,14.0,64.0
817,65.0,0.0,60.0,11.0,64.0
818,58.0,30.0,90.0,12.0,64.0
819,74.0,30.0,60.0,11.0,64.0
820,46.0,0.0,90.0,3.0,64.0
821,77.0,0.0,60.0,0.0,64.0
822,65.0,0.0,60.0,11.0,64.0
823,77.0,0.0,60.0,10.0,64.0
824,74.0,60.0,60.0,11.0,64.0
825,67.0,30.0,60.0,11.0,64.0
826,46.0,0.0,90.0,3.0,64.0
827,67.0,24.0,390.0,2.0,64.0
828,79.0,0.0,330.0,10.0,64.0
829,75.0,0.0,390.0,1.0,64.0
830,79.0,12.0,330.0,0.0,64.0
831,63.0,0.0,390.0,2.0,64.0
832,34.0,30.0,90.0,14.0,64.0
833,46.0,0.0,90.0,13.0,64.0
834,58.0,0.0,90.0,12.0,64.0
835,75.0,0.0,60.0,11.0,64.0
836,67.0,0.0,60.0,11.0,64.0
837,75.0,60.0,60.0,11.0,64.0
838,75.0,30.0,60.0,11.0,64.0
839,46.0,0.0,90.0,3.0,64.0
840,67.0,0.0,60.0,11.0,64.0
841,58.0,0.0,90.0,12.0,64.0
842,46.0,0.0,90.0,13.0,64.0
843,34.0,30.0,90.0,14.0,64.0
844,75.0,60.0,60.0,11.0,64.0
845,67.0,0.0,60.0,11.0,64.0
846,75.0,30.0,60.0,11.0,64.0
847,67.0,0.0,60.0,11.0,64.0
848,46.0,0.0,90.0,3.0,64.0
849,58.0,0.0,90.0,12.0,64.0
850,46.0,0.0,90.0,13.0,64.0
851,34.0,18.0,90.0,14.0,64.0
852,75.0,0.0,60.0,11.0,64.0
853,67.0,36.0,60.0,11.0,64.0
854,67.0,30.0,60.0,11.0,64.0
855,75.0,0.0,60.0,11.0,64.0
856,34.0,0.0,90.0,14.0,64.0
857,46.0,0.0,90.0,13.0,64.0
858,46.0,30.0,90.0,3.0,64.0
859,58.0,0.0,90.0,12.0,64.0
860,75.0,0.0,60.0,10.0,64.0
861,75.0,0.0,60.0,11.0,64.0
862,67.0,0.0,60.0,11.0,64.0
863,75.0,60.0,60.0,0.0,64.0
864,46.0,30.0,90.0,13.0,64.0
865,65.0,24.0,390.0,2.0,64.0
866,58.0,0.0,780.0,4.0,64.0
867,34.0,0.0,90.0,14.0,64.0
868,46.0,30.0,780.0,4.0,64.0
869,74.0,0.0,390.0,1.0,64.0
870,58.0,0.0,180.0,5.0,64.0
871,70.0,6.0,180.0,5.0,64.0
872,62.0,0.0,390.0,2.0,64.0
873,58.0,0.0,90.0,12.0,64.0
874,46.0,0.0,180.0,6.0,64.0
875,82.0,0.0,330.0,10.0,64.0
876,74.0,30.0,60.0,11.0,64.0
877,65.0,0.0,60.0,11.0,64.0
878,46.0,0.0,90.0,3.0,64.0
879,82.0,12.0,330.0,0.0,64.0
880,74.0,60.0,60.0,11.0,64.0
881,65.0,0.0,60.0,11.0,64.0
882,74.0,24.0,60.0,11.0,64.0
883,46.0,30.0,90.0,14.0,64.0
884,58.0,0.0,90.0,13.0,64.0
885,65.0,0.0,60.0,11.0,64.0
886,70.0,0.0,90.0,12.0,64.0
887,58.0,0.0,90.0,3.0,64.0
888,74.0,60.0,60.0,11.0,64.0
889,65.0,0.0,60.0,11.0,64.0
890,58.0,0.0,90.0,12.0,64.0
891,46.0,0.0,90.0,13.0,64.0
892,34.0,18.0,90.0,14.0,64.0
893,46.0,0.0,90.0,3.0,64.0
894,74.0,30.0,60.0,11.0,64.0
895,65.0,0.0,60.0,11.0,64.0
896,74.0,36.0,60.0,11.0,64.0
897,65.0,0.0,60.0,11.0,64.0
898,58.0,0.0,90.0,12.0,64.0
899,74.0,30.0,60.0,11.0,64.0
900,46.0,30.0,90.0,13.0,64.0
901,65.0,0.0,60.0,11.0,64.0
902,46.0,0.0,90.0,3.0,64.0
903,34.0,0.0,90.0,14.0,64.0
904,65.0,0.0,60.0,11.0,64.0
905,77.0,60.0,60.0,10.0,64.0
906,77.0,0.0,60.0,0.0,64.0
907,74.0,0.0,60.0,11.0,64.0
908,79.0,12.0,330.0,10.0,64.0
909,67.0,0.0,390.0,2.0,64.0
910,79.0,0.0,330.0,0.0,64.0
911,67.0,30.0,60.0,11.0,64.0
912,58.0,0.0,90.0,12.0,64.0
913,46.0,0.0,90.0,3.0,64.0
914,75.0,0.0,60.0,11.0,64.0
915,63.0,24.0,390.0,2.0,64.0
916,46.0,0.0,90.0,13.0,64.0
917,34.0,30.0,90.0,14.0,64.0
918,75.0,0.0,390.0,1.0,64.0
919,67.0,0.0,60.0,11.0,64.0
920,75.0,60.0,60.0,11.0,64.0
921,67.0,0.0,60.0,11.0,64.0
922,75.0,30.0,60.0,11.0,64.0
923,46.0,0.0,90.0,3.0,64.0
924,58.0,0.0,90.0,12.0,64.0
925,46.0,0.0,90.0,13.0,64.0
926,34.0,30.0,90.0,14.0,64.0
927,75.0,0.0,60.0,11.0,64.0
928,67.0,60.0,60.0,11.0,64.0
929,58.0,0.0,90.0,12.0,64.0
930,75.0,0.0,60.0,11.0,64.0
931,67.0,0.0,60.0,11.0,64.0
932,34.0,0.0,90.0,14.0,64.0
933,46.0,0.0,90.0,13.0,64.0
934,46.0,18.0,90.0,3.0,64.0
935,75.0,0.0,60.0,11.0,64.0
936,67.0,36.0,60.0,11.0,64.0
937,67.0,30.0,60.0,11.0,64.0
938,75.0,0.0,60.0,11.0,64.0
939,34.0,30.0,90.0,14.0,64.0
940,46.0,0.0,90.0,3.0,64.0
941,58.0,0.0,90.0,12.0,64.0
942,46.0,0.0,90.0,13.0,64.0
943,67.0,60.0,60.0,11.0,64.0
944,75.0,0.0,60.0,11.0,64.0
945,75.0,0.0,60.0,0.0,64.0
946,75.0,0.0,60.0,10.0,64.0
947,65.0,24.0,390.0,2.0,64.0
948,62.0,0.0,390.0,2.0,64.0
949,82.0,0.0,330.0,0.0,64.0
950,34.0,30.0,90.0,14.0,64.0
951,46.0,0.0,780.0,4.0,64.0
952,58.0,30.0,780.0,4.0,64.0
953,46.0,0.0,90.0,3.0,64.0
954,58.0,6.0,180.0,5.0,64.0
955,46.0,0.0,180.0,6.0,64.0
956,74.0,0.0,60.0,11.0,64.0
957,70.0,0.0,180.0,5.0,64.0
958,46.0,0.0,90.0,13.0,64.0
959,58.0,0.0,90.0,12.0,64.0
960,65.0,30.0,60.0,11.0,64.0
961,82.0,12.0,330.0,10.0,64.0
962,74.0,0.0,390.0,1.0,64.0
963,74.0,0.0,60.0,11.0,64.0
964,65.0,60.0,60.0,11.0,64.0
965,74.0,0.0,60.0,11.0,64.0
966,65.0,24.0,60.0,11.0,64.0
967,58.0,0.0,90.0,13.0,64.0
968,70.0,0.0,90.0,12.0,64.0
969,46.0,30.0,90.0,14.0,64.0
970,58.0,0.0,90.0,3.0,64.0
971,74.0,60.0,60.0,11.0,64.0
972,65.0,0.0,60.0,11.0,64.0
973,58.0,0.0,90.0,12.0,64.0
974,34.0,0.0,90.0,14.0,64.0
975,46.0,18.0,90.0,3.0,64.0
976,46.0,0.0,90.0,13.0,64.0
977,74.0,0.0,60.0,11.0,64.0
978,65.0,30.0,60.0,11.0,64.0
979,65.0,36.0,60.0,11.0,64.0
980,74.0,0.0,60.0,11.0,64.0
981,46.0,0.0,90.0,3.0,64.0
982,46.0,0.0,90.0,13.0,64.0
983,65.0,30.0,60.0,11.0,64.0
984,74.0,0.0,60.0,11.0,64.0
985,58.0,30.0,90.0,12.0,64.0
986,34.0,0.0,90.0,14.0,64.0
987,65.0,0.0,60.0,11.0,64.0
988,77.0,60.0,60.0,0.0,64.0
989,77.0,0.0,60.0,10.0,64.0
990,74.0,0.0,60.0,11.0,64.0
991,75.0,0.0,390.0,1.0,64.0
992,75.0,30.0,60.0,11.0,64.0
993,79.0,0.0,330.0,10.0,64.0
994,34.0,0.0,90.0,14.0,64.0
995,67.0,0.0,60.0,11.0,64.0
996,67.0,0.0,390.0,2.0,64.0
997,63.0,0.0,390.0,2.0,64.0
998,46.0,0.0,90.0,3.0,64.0
999,79.0,12.0,330.0,0.0,64.0
1000,58.0,0.0,90.0,12.0,64.0
1001,46.0,30.0,90.0,13.0,64.0
1002,75.0,60.0,60.0,11.0,64.0
1003,67.0,0.0,60.0,11.0,64.0
1004,58.0,0.0,90.0,12.0,64.0
1005,46.0,0.0,90.0,3.0,64.0
1006,34.0,30.0,90.0,14.0,64.0
1007,46.0,0.0,90.0,13.0,64.0
1008,75.0,30.0,60.0,11.0,64.0
1009,67.0,0.0,60.0,11.0,64.0
1010,75.0,0.0,60.0,11.0,64.0
1011,67.0,60.0,60.0,11.0,64.0
1012,58.0,0.0,90.0,12.0,64.0
1013,67.0,0.0,60.0,11.0,64.0
1014,46.0,0.0,90.0,3.0,64.0
1015,75.0,0.0,60.0,11.0,64.0
1016,46.0,0.0,90.0,13.0,64.0
1017,34.0,18.0,90.0,14.0,64.0
1018,75.0,0.0,60.0,11.0,64.0
1019,67.0,36.0,60.0,11.0,64.0
1020,46.0,0.0,90.0,13.0,64.0
1021,46.0,30.0,90.0,3.0,64.0
1022,34.0,0.0,90.0,14.0,64.0
1023,67.0,30.0,60.0,11.0,64.0
1024,58.0,0.0,90.0,12.0,64.0
1025,75.0,0.0,60.0,11.0,64.0
1026,75.0,0.0,60.0,11.0,64.0
1027,75.0,0.0,60.0,0.0,64.0
1028,67.0,0.0,60.0,11.0,64.0
1029,75.0,204.0,60.0,10.0,64.0
1030,46.0,0.0,180.0,3.0,64.0
1031,65.0,0.0,180.0,2.0,64.0
1032,58.0,0.0,180.0,5.0,64.0
1033,70.0,0.0,180.0,5.0,64.0
1034,58.0,0.0,180.0,12.0,64.0
1035,74.0,0.0,180.0,1.0,64.0
1036,46.0,0.0,180.0,6.0,64.0
1037,46.0,0.0,180.0,4.0,64.0
1038,58.0,0.0,180.0,4.0,64.0
1039,82.0,0.0,180.0,0.0,64.0
1040,70.0,0.0,180.0,1.0,64.0
1041,74.0,0.0,180.0,11.0,64.0
1042,65.0,0.0,180.0,11.0,64.0
1043,34.0,0.0,180.0,14.0,64.0
1044,46.0,340.0,180.0,13.0,64.0
1045,82.0,0.0,180.0,10.0,64.0
1046,62.0,0.0,180.0,2.0,64.0
1047,62.0,44.0,60.0,11.0,64.0
1048,70.0,36.0,90.0,10.0,64.0
1049,60.0,80.0,60.0,11.0,64.0
1050,58.0,80.0,60.0,11.0,64.0
1051,57.0,44.0,60.0,11.0,64.0
1052,72.0,36.0,90.0,10.0,64.0
1053,55.0,80.0,60.0,11.0,64.0
1054,53.0,58.0,60.0,11.0,64.0
1055,34.0,0.0,90.0,14.0,64.0
1056,46.0,36.0,90.0,3.0,64.0
1057,46.0,0.0,90.0,13.0,64.0
1058,74.0,22.0,30.0,10.0,64.0
1059,58.0,8.0,60.0,11.0,64.0
1060,58.0,0.0,90.0,12.0,64.0
1061,75.0,36.0,30.0,10.0,64.0
1062,77.0,8.0,150.0,10.0,64.0
1063,62.0,72.0,60.0,11.0,64.0
1064,65.0,80.0,60.0,11.0,64.0
1065,62.0,0.0,90.0,12.0,64.0
1066,38.0,0.0,90.0,14.0,64.0
1067,50.0,36.0,90.0,3.0,64.0
1068,50.0,0.0,90.0,13.0,64.0
1069,65.0,44.0,60.0,11.0,64.0
1070,65.0,80.0,60.0,11.0,64.0
1071,65.0,80.0,60.0,11.0,64.0
1072,62.0,44.0,60.0,11.0,64.0
1073,41.0,20.0,180.0,14.0,64.0
1074,65.0,0.0,180.0,12.0,64.0
1075,70.0,36.0,90.0,10.0,64.0
1076,53.0,0.0,180.0,3.0,64.0
1077,53.0,0.0,180.0,13.0,64.0
1078,60.0,60.0,60.0,11.0,64.0
1079,58.0,80.0,60.0,11.0,64.0
1080,72.0,36.0,90.0,10.0,64.0
1081,57.0,44.0,60.0,11.0,64.0
1082,55.0,80.0,60.0,11.0,64.0
1083,53.0,58.0,60.0,11.0,64.0
1084,46.0,0.0,90.0,13.0,64.0
1085,74.0,22.0,30.0,10.0,64.0
1086,34.0,0.0,90.0,14.0,64.0
1087,58.0,36.0,90.0,12.0,64.0
1088,58.0,8.0,60.0,11.0,64.0
1089,46.0,0.0,90.0,3.0,64.0
1090,75.0,36.0,30.0,10.0,64.0
1091,77.0,8.0,150.0,10.0,64.0
1092,62.0,72.0,60.0,11.0,64.0
1093,65.0,80.0,60.0,11.0,64.0
1094,62.0,0.0,90.0,12.0,64.0
1095,65.0,44.0,60.0,11.0,64.0
1096,38.0,0.0,90.0,14.0,64.0
1097,50.0,0.0,90.0,3.0,64.0
1098,50.0,36.0,90.0,13.0,64.0
1099,65.0,80.0,60.0,11.0,64.0
1100,65.0,80.0,60.0,11.0,64.0
1101,53.0,0.0,180.0,13.0,64.0
1102,70.0,36.0,90.0,10.0,64.0
1103,41.0,0.0,180.0,14.0,64.0
1104,53.0,0.0,180.0,3.0,64.0
1105,62.0,44.0,60.0,11.0,64.0
1106,65.0,20.0,180.0,12.0,64.0
1107,60.0,60.0,60.0,11.0,64.0
1108,58.0,80.0,60.0,11.0,64.0
1109,72.0,36.0,90.0,10.0,64.0
1110,57.0,44.0,60.0,11.0,64.0
1111,55.0,80.0,60.0,11.0,64.0
1112,53.0,58.0,60.0,11.0,64.0
1113,74.0,22.0,30.0,10.0,64.0
1114,46.0,0.0,90.0,13.0,64.0
1115,34.0,0.0,90.0,14.0,64.0
1116,58.0,36.0,90.0,12.0,64.0
1117,46.0,0.0,90.0,3.0,64.0
1118,58.0,8.0,60.0,11.0,64.0
1119,75.0,36.0,30.0,10.0,64.0
1120,77.0,8.0,150.0,10.0,64.0
1121,62.0,72.0,60.0,11.0,64.0
1122,65.0,80.0,60.0,11.0,64.0
1123,65.0,44.0,60.0,11.0,64.0
1124,50.0,0.0,90.0,13.0,64.0
1125,70.0,0.0,90.0,10.0,64.0
1126,62.0,36.0,90.0,12.0,64.0
1127,38.0,0.0,90.0,14.0,64.0
1128,50.0,0.0,90.0,3.0,64.0
1129,62.0,80.0,60.0,11.0,64.0
1130,62.0,58.0,60.0,11.0,64.0
1131,72.0,22.0,30.0,10.0,64.0
1132,65.0,0.0,180.0,12.0,64.0
1133,57.0,8.0,60.0,11.0,64.0
1134,41.0,0.0,180.0,14.0,64.0
1135,53.0,12.0,180.0,3.0,64.0
1136,53.0,0.0,180.0,13.0,64.0
1137,74.0,72.0,30.0,10.0,64.0
1138,75.0,8.0,150.0,10.0,64.0
1139,60.0,60.0,60.0,11.0,64.0
1140,62.0,80.0,60.0,11.0,64.0
1141,63.0,44.0,60.0,11.0,64.0
1142,72.0,36.0,90.0,10.0,64.0
1143,60.0,80.0,60.0,11.0,64.0
1144,57.0,58.0,60.0,11.0,64.0
1145,58.0,8.0,60.0,11.0,64.0
1146,46.0,0.0,90.0,4.0,64.0
1147,77.0,0.0,480.0,0.0,64.0
1148,74.0,22.0,30.0,10.0,64.0
1149,74.0,30.0,480.0,0.0,64.0
1150,58.0,36.0,90.0,4.0,64.0
1151,75.0,36.0,30.0,10.0,64.0
1152,77.0,8.0,150.0,10.0,64.0
1153,62.0,72.0,60.0,11.0,64.0
1154,65.0,80.0,60.0,11.0,64.0
1155,70.0,0.0,90.0,10.0,64.0
1156,50.0,36.0,90.0,4.0,64.0
1157,65.0,44.0,60.0,11.0,64.0
1158,62.0,0.0,90.0,4.0,64.0
1159,62.0,80.0,60.0,11.0,64.0
1160,62.0,28.0,60.0,11.0,64.0
1161,53.0,12.0,180.0,4.0,64.0
1162,57.0,8.0,60.0,11.0,64.0
1163,75.0,30.0,480.0,0.0,64.0
1164,72.0,0.0,480.0,0.0,64.0
1165,72.0,22.0,30.0,10.0,64.0
1166,65.0,0.0,180.0,4.0,64.0
1167,74.0,72.0,30.0,10.0,64.0
1168,75.0,8.0,150.0,10.0,64.0
1169,60.0,60.0,60.0,11.0,64.0
1170,62.0,80.0,60.0,11.0,64.0
1171,63.0,44.0,60.0,11.0,64.0
1172,72.0,36.0,90.0,10.0,64.0
1173,60.0,80.0,60.0,11.0,64.0
1174,57.0,28.0,60.0,11.0,64.0
1175,58.0,8.0,60.0,11.0,64.0
1176,74.0,22.0,30.0,10.0,64.0
1177,74.0,0.0,480.0,0.0,64.0
1178,70.0,30.0,480.0,0.0,64.0
1179,46.0,0.0,90.0,3.0,64.0
1180,58.0,0.0,90.0,12.0,64.0
1181,58.0,36.0,90.0,4.0,64.0
1182,46.0,0.0,90.0,4.0,64.0
1183,34.0,0.0,90.0,14.0,64.0
1184,46.0,0.0,90.0,13.0,64.0
1185,75.0,36.0,30.0,10.0,64.0
1186,77.0,8.0,150.0,10.0,64.0
1187,62.0,72.0,60.0,11.0,64.0
1188,65.0,80.0,60.0,11.0,64.0
1189,62.0,0.0,90.0,12.0,64.0
1190,65.0,44.0,60.0,11.0,64.0
1191,50.0,0.0,90.0,3.0,64.0
1192,50.0,0.0,90.0,13.0,64.0
1193,70.0,0.0,90.0,10.0,64.0
1194,38.0,36.0,90.0,14.0,64.0
1195,62.0,0.0,90.0,4.0,64.0
1196,50.0,0.0,90.0,4.0,64.0
1197,62.0,80.0,60.0,11.0,64.0
1198,62.0,28.0,60.0,11.0,64.0
1199,65.0,0.0,90.0,12.0,64.0
1200,72.0,156.0,480.0,0.0,64.0
1201,69.0,0.0,480.0,0.0,64.0
1202,53.0,0.0,90.0,3.0,64.0
1203,72.0,22.0,30.0,10.0,64.0
1204,41.0,36.0,90.0,14.0,64.0
1205,65.0,0.0,180.0,4.0,64.0
1206,53.0,12.0,180.0,4.0,64.0
1207,53.0,0.0,90.0,13.0,64.0
1208,57.0,8.0,60.0,11.0,64.0
1209,74.0,36.0,30.0,10.0,64.0
1210,75.0,8.0,150.0,10.0,64.0
1211,60.0,60.0,60.0,11.0,64.0
1212,62.0,80.0,60.0,11.0,64.0
1213,29.0,0.0,90.0,14.0,64.0
1214,63.0,0.0,60.0,11.0,64.0
1215,41.0,36.0,90.0,13.0,64.0
1216,72.0,44.0,60.0,10.0,64.0
1217,41.0,0.0,90.0,3.0,64.0
1218,53.0,0.0,90.0,12.0,64.0
1219,70.0,80.0,60.0,10.0,64.0
1220,62.0,0.0,60.0,11.0,64.0
1221,60.0,0.0,60.0,11.0,64.0
1222,69.0,28.0,60.0,10.0,64.0
1223,70.0,0.0,150.0,10.0,64.0
1224,58.0,0.0,150.0,11.0,64.0
1225,46.0,0.0,150.0,3.0,64.0
1226,58.0,30.0,780.0,4.0,64.0
1227,46.0,36.0,150.0,13.0,64.0
1228,70.0,126.0,180.0,0.0,64.0
1229,34.0,0.0,150.0,14.0,64.0
1230,58.0,0.0,150.0,12.0,64.0
1231,46.0,0.0,780.0,4.0,64.0
1232,46.0,120.0,90.0,3.0,64.0
1233,34.0,0.0,90.0,14.0,64.0
1234,58.0,0.0,90.0,12.0,64.0
1235,46.0,0.0,90.0,13.0,64.0
1236,58.0,0.0,90.0,10.0,64.0
1237,58.0,0.0,90.0,11.0,64.0
1238,58.0,0.0,90.0,11.0,64.0
1239,58.0,0.0,90.0,10.0,64.0
1240,46.0,0.0,90.0,13.0,64.0
1241,34.0,120.0,90.0,14.0,64.0
1242,58.0,0.0,90.0,12.0,64.0
1243,46.0,0.0,90.0,3.0,64.0
1244,46.0,0.0,90.0,3.0,64.0
1245,58.0,120.0,90.0,12.0,64.0
1246,58.0,0.0,90.0,11.0,64.0
1247,34.0,0.0,90.0,14.0,64.0
1248,46.0,0.0,90.0,13.0,64.0
1249,58.0,0.0,90.0,10.0,64.0
1250,46.0,0.0,90.0,13.0,64.0
1251,34.0,0.0,90.0,14.0,64.0
1252,58.0,0.0,90.0,12.0,64.0
1253,58.0,0.0,90.0,10.0,64.0
1254,46.0,0.0,90.0,3.0,64.0
1255,58.0,90.0,90.0,11.0,64.0
1256,46.0,0.0,90.0,3.0,64.0
1257,58.0,0.0,90.0,11.0,64.0
1258,58.0,0.0,90.0,10.0,64.0
1259,58.0,0.0,90.0,12.0,64.0
1260,46.0,120.0,90.0,13.0,64.0
1261,34.0,0.0,90.0,14.0,64.0
1262,58.0,0.0,90.0,12.0,64.0
1263,58.0,0.0,90.0,11.0,64.0
1264,58.0,0.0,90.0,10.0,64.0
1265,34.0,72.0,90.0,14.0,64.0
1266,46.0,0.0,90.0,13.0,64.0
1267,46.0,0.0,90.0,3.0,64.0
1268,45.0,0.0,30.0,3.0,64.0
1269,57.0,0.0,30.0,11.0,64.0
1270,57.0,0.0,30.0,10.0,64.0
1271,53.0,30.0,780.0,4.0,64.0
1272,33.0,0.0,30.0,14.0,64.0
1273,41.0,0.0,780.0,4.0,64.0
1274,57.0,0.0,30.0,12.0,64.0
1275,45.0,30.0,30.0,13.0,64.0
1276,43.0,0.0,30.0,3.0,64.0
1277,43.0,0.0,30.0,13.0,64.0
1278,55.0,0.0,30.0,12.0,64.0
1279,55.0,0.0,30.0,10.0,64.0
1280,31.0,117.0,30.0,14.0,64.0
1281,55.0,0.0,30.0,11.0,64.0
1282,53.0,0.0,120.0,10.0,64.0
1283,41.0,0.0,120.0,13.0,64.0
1284,53.0,0.0,120.0,12.0,64.0
1285,41.0,0.0,120.0,3.0,64.0
1286,29.0,0.0,120.0,14.0,64.0
1287,53.0,141.0,120.0,11.0,64.0
1288,63.0,0.0,90.0,11.0,64.0
1289,39.0,0.0,90.0,14.0,64.0
1290,63.0,0.0,90.0,10.0,64.0
1291,63.0,0.0,90.0,12.0,64.0
1292,51.0,120.0,90.0,13.0,64.0
1293,51.0,0.0,90.0,3.0,64.0
1294,63.0,0.0,90.0,11.0,64.0
1295,63.0,0.0,90.0,12.0,64.0
1296,51.0,0.0,90.0,13.0,64.0
1297,39.0,0.0,90.0,14.0,64.0
1298,51.0,0.0,90.0,3.0,64.0
1299,63.0,120.0,90.0,10.0,64.0
1300,63.0,0.0,90.0,11.0,64.0
1301,63.0,0.0,90.0,12.0,64.0
1302,51.0,120.0,90.0,3.0,64.0
1303,63.0,0.0,90.0,10.0,64.0
1304,39.0,0.0,90.0,14.0,64.0
1305,51.0,0.0,90.0,13.0,64.0
1306,63.0,0.0,90.0,11.0,64.0
1307,63.0,0.0,90.0,10.0,64.0
1308,63.0,0.0,90.0,12.0,64.0
1309,39.0,0.0,90.0,14.0,64.0
1310,51.0,0.0,90.0,3.0,64.0
1311,51.0,90.0,90.0,13.0,64.0
1312,39.0,0.0,90.0,14.0,64.0
1313,51.0,0.0,90.0,3.0,64.0
1314,63.0,0.0,90.0,10.0,64.0
1315,63.0,120.0,90.0,11.0,64.0
1316,51.0,0.0,90.0,13.0,64.0
1317,63.0,0.0,90.0,12.0,64.0
1318,63.0,72.0,90.0,10.0,64.0
1319,63.0,0.0,90.0,12.0,64.0
1320,51.0,0.0,90.0,3.0,64.0
1321,63.0,0.0,90.0,11.0,64.0
1322,39.0,0.0,90.0,14.0,64.0
1323,51.0,0.0,90.0,13.0,64.0
1324,62.0,0.0,30.0,11.0,64.0
1325,70.0,0.0,780.0,2.0,64.0
1326,50.0,0.0,30.0,3.0,64.0
1327,58.0,0.0,780.0,2.0,64.0
1328,70.0,0.0,150.0,0.0,64.0
1329,62.0,30.0,30.0,12.0,64.0
1330,62.0,0.0,30.0,10.0,64.0
1331,46.0,126.0,180.0,6.0,64.0
1332,70.0,0.0,150.0,1.0,64.0
1333,38.0,0.0,30.0,14.0,64.0
1334,50.0,0.0,30.0,13.0,64.0
1335,50.0,21.0,150.0,4.0,64.0
1336,70.0,0.0,780.0,5.0,64.0
1337,58.0,30.0,780.0,5.0,64.0
1338,60.0,0.0,30.0,10.0,64.0
1339,60.0,0.0,30.0,11.0,64.0
1340,60.0,0.0,30.0,12.0,64.0
1341,48.0,96.0,30.0,3.0,64.0
1342,36.0,0.0,30.0,14.0,64.0
1343,48.0,0.0,30.0,13.0,64.0
1344,58.0,0.0,120.0,10.0,64.0
1345,58.0,15.0,120.0,12.0,64.0
1346,58.0,0.0,120.0,11.0,64.0
1347,46.0,0.0,120.0,13.0,64.0
1348,34.0,0.0,120.0,14.0,64.0
1349,46.0,0.0,120.0,3.0,64.0
1350,46.0,0.0,90.0,13.0,64.0
1351,70.0,0.0,90.0,10.0,64.0
1352,70.0,0.0,90.0,0.0,64.0
1353,46.0,120.0,90.0,4.0,64.0
1354,70.0,0.0,90.0,1.0,64.0
1355,46.0,0.0,90.0,3.0,64.0
1356,58.0,0.0,90.0,12.0,64.0
1357,34.0,0.0,90.0,14.0,64.0
1358,70.0,0.0,90.0,11.0,64.0
1359,60.0,0.0,90.0,12.0,64.0
1360,36.0,0.0,90.0,14.0,64.0
1361,48.0,0.0,90.0,3.0,64.0
1362,48.0,0.0,90.0,13.0,64.0
1363,70.0,0.0,90.0,11.0,64.0
1364,70.0,0.0,90.0,0.0,64.0
1365,70.0,0.0,90.0,1.0,64.0
1366,70.0,0.0,90.0,10.0,64.0
1367,46.0,120.0,90.0,4.0,64.0
1368,70.0,0.0,90.0,11.0,64.0
1369,46.0,42.0,150.0,4.0,64.0
1370,70.0,0.0,90.0,1.0,64.0
1371,38.0,0.0,90.0,14.0,64.0
1372,62.0,0.0,90.0,12.0,64.0
1373,50.0,0.0,90.0,13.0,64.0
1374,70.0,78.0,90.0,0.0,64.0
1375,50.0,0.0,90.0,3.0,64.0
1376,70.0,0.0,90.0,10.0,64.0
1377,60.0,0.0,90.0,12.0,64.0
1378,48.0,90.0,90.0,13.0,64.0
1379,70.0,0.0,90.0,11.0,64.0
1380,70.0,0.0,90.0,1.0,64.0
1381,70.0,0.0,90.0,10.0,64.0
1382,36.0,0.0,90.0,14.0,64.0
1383,48.0,0.0,90.0,3.0,64.0
1384,70.0,0.0,90.0,0.0,64.0
1385,70.0,120.0,90.0,0.0,64.0
1386,70.0,0.0,90.0,11.0,64.0
1387,70.0,0.0,90.0,1.0,64.0
1388,70.0,0.0,90.0,10.0,64.0
1389,50.0,0.0,90.0,13.0,64.0
1390,38.0,0.0,90.0,14.0,64.0
1391,62.0,0.0,90.0,12.0,64.0
1392,50.0,0.0,90.0,3.0,64.0
1393,70.0,0.0,90.0,10.0,64.0
1394,70.0,0.0,90.0,11.0,64.0
1395,52.0,0.0,90.0,3.0,64.0
1396,40.0,0.0,90.0,14.0,64.0
1397,70.0,0.0,90.0,0.0,64.0
1398,52.0,0.0,90.0,13.0,64.0
1399,64.0,72.0,90.0,12.0,64.0
1400,70.0,0.0,90.0,1.0,64.0
1401,69.0,30.0,30.0,11.0,64.0
1402,53.0,0.0,780.0,2.0,64.0
1403,65.0,0.0,780.0,2.0,64.0
1404,41.0,6.0,180.0,6.0,64.0
1405,53.0,78.0,90.0,3.0,64.0
1406,69.0,0.0,30.0,1.0,64.0
1407,65.0,0.0,780.0,5.0,64.0
1408,65.0,0.0,90.0,12.0,64.0
1409,69.0,0.0,30.0,10.0,64.0
1410,53.0,30.0,780.0,5.0,64.0
1411,53.0,0.0,150.0,4.0,64.0
1412,53.0,0.0,90.0,13.0,64.0
1413,41.0,21.0,150.0,4.0,64.0
1414,41.0,0.0,90.0,14.0,64.0
1415,69.0,0.0,30.0,0.0,64.0
1416,67.0,0.0,30.0,0.0,64.0
1417,67.0,18.0,30.0,10.0,64.0
1418,67.0,0.0,30.0,11.0,64.0
1419,67.0,0.0,30.0,1.0,64.0
1420,65.0,0.0,120.0,11.0,64.0
1421,65.0,0.0,120.0,0.0,64.0
1422,65.0,0.0,120.0,1.0,64.0
1423,65.0,15.0,120.0,10.0,64.0
1424,43.0,0.0,90.0,14.0,64.0
1425,67.0,120.0,90.0,12.0,64.0
1426,55.0,0.0,90.0,3.0,64.0
1427,55.0,0.0,90.0,13.0,64.0
1428,57.0,0.0,90.0,3.0,64.0
1429,53.0,0.0,90.0,4.0,64.0
1430,69.0,120.0,90.0,12.0,64.0
1431,57.0,0.0,90.0,13.0,64.0
1432,75.0,0.0,90.0,0.0,64.0
1433,75.0,0.0,90.0,10.0,64.0
1434,75.0,0.0,90.0,11.0,64.0
1435,45.0,0.0,90.0,14.0,64.0
1436,41.0,0.0,90.0,4.0,64.0
1437,75.0,0.0,90.0,1.0,64.0
1438,41.0,0.0,90.0,4.0,64.0
1439,46.0,0.0,90.0,14.0,64.0
1440,75.0,0.0,90.0,0.0,64.0
1441,75.0,0.0,90.0,11.0,64.0
1442,53.0,120.0,90.0,4.0,64.0
1443,75.0,0.0,90.0,10.0,64.0
1444,70.0,0.0,90.0,12.0,64.0
1445,58.0,0.0,90.0,13.0,64.0
1446,58.0,0.0,90.0,3.0,64.0
1447,75.0,0.0,90.0,1.0,64.0
1448,75.0,0.0,90.0,10.0,64.0
1449,75.0,0.0,90.0,0.0,64.0
1450,75.0,0.0,90.0,1.0,64.0
1451,48.0,0.0,90.0,14.0,64.0
1452,60.0,0.0,90.0,3.0,64.0
1453,53.0,42.0,150.0,4.0,64.0
1454,41.0,0.0,150.0,4.0,64.0
1455,60.0,0.0,90.0,13.0,64.0
1456,75.0,78.0,90.0,11.0,64.0
1457,72.0,0.0,90.0,12.0,64.0
1458,58.0,0.0,90.0,3.0,64.0
1459,70.0,90.0,90.0,12.0,64.0
1460,75.0,0.0,90.0,10.0,64.0
1461,46.0,0.0,90.0,14.0,64.0
1462,75.0,0.0,90.0,1.0,64.0
1463,58.0,0.0,90.0,13.0,64.0
1464,75.0,0.0,90.0,11.0,64.0
1465,75.0,0.0,90.0,0.0,64.0
1466,57.0,0.0,90.0,13.0,64.0
1467,75.0,0.0,90.0,11.0,64.0
1468,69.0,0.0,90.0,12.0,64.0
1469,75.0,120.0,90.0,10.0,64.0
1470,57.0,0.0,90.0,3.0,64.0
1471,75.0,0.0,90.0,1.0,64.0
1472,45.0,0.0,90.0,14.0,64.0
1473,75.0,0.0,90.0,0.0,64.0
1474,65.0,0.0,90.0,12.0,64.0
1475,75.0,0.0,90.0,1.0,64.0
1476,41.0,0.0,90.0,14.0,64.0
1477,75.0,0.0,90.0,11.0,64.0
1478,53.0,0.0,90.0,3.0,64.0
1479,75.0,0.0,90.0,10.0,64.0
1480,75.0,0.0,90.0,0.0,64.0
1481,53.0,72.0,90.0,13.0,64.0
1482,58.0,0.0,150.0,4.0,64.0
1483,58.0,0.0,150.0,3.0,64.0
1484,46.0,0.0,150.0,4.0,64.0
1485,46.0,0.0,150.0,14.0,64.0
1486,74.0,30.0,30.0,10.0,64.0
1487,46.0,126.0,180.0,6.0,64.0
1488,62.0,0.0,150.0,5.0,64.0
1489,58.0,0.0,150.0,5.0,64.0
1490,74.0,0.0,30.0,0.0,64.0
1491,58.0,0.0,150.0,13.0,64.0
1492,74.0,0.0,30.0,11.0,64.0
1493,74.0,0.0,30.0,1.0,64.0
1494,70.0,0.0,150.0,12.0,64.0
1495,62.0,21.0,150.0,2.0,64.0
1496,72.0,0.0,30.0,11.0,64.0
1497,72.0,0.0,30.0,1.0,64.0
1498,72.0,96.0,30.0,10.0,64.0
1499,72.0,0.0,30.0,0.0,64.0
1500,70.0,0.0,120.0,11.0,64.0
1501,70.0,15.0,120.0,10.0,64.0
1502,70.0,0.0,120.0,0.0,64.0
1503,70.0,0.0,120.0,1.0,64.0
1504,58.0,0.0,90.0,13.0,64.0
1505,58.0,18.0,90.0,3.0,64.0
1506,58.0,0.0,90.0,4.0,64.0
1507,82.0,0.0,90.0,11.0,64.0
1508,46.0,0.0,90.0,4.0,64.0
1509,82.0,0.0,90.0,0.0,64.0
1510,46.0,0.0,90.0,14.0,64.0
1511,70.0,0.0,90.0,12.0,64.0
1512,70.0,0.0,90.0,1.0,64.0
1513,58.0,0.0,90.0,2.0,64.0
1514,58.0,0.0,90.0,5.0,64.0
1515,46.0,102.0,90.0,6.0,64.0
1516,82.0,0.0,90.0,10.0,64.0
1517,62.0,0.0,90.0,5.0,64.0
1518,82.0,0.0,90.0,0.0,64.0
1519,58.0,0.0,90.0,13.0,64.0
1520,58.0,0.0,90.0,2.0,64.0
1521,82.0,0.0,90.0,10.0,64.0
1522,58.0,0.0,90.0,3.0,64.0
1523,46.0,0.0,90.0,14.0,64.0
1524,62.0,0.0,90.0,5.0,64.0
1525,46.0,102.0,90.0,6.0,64.0
1526,58.0,0.0,90.0,5.0,64.0
1527,70.0,18.0,90.0,1.0,64.0
1528,58.0,0.0,90.0,4.0,64.0
1529,46.0,0.0,90.0,4.0,64.0
1530,70.0,0.0,90.0,12.0,64.0
1531,82.0,0.0,90.0,11.0,64.0
1532,58.0,0.0,150.0,2.0,64.0
1533,58.0,0.0,150.0,5.0,64.0
1534,62.0,0.0,150.0,5.0,64.0
1535,58.0,0.0,90.0,3.0,64.0
1536,70.0,0.0,150.0,1.0,64.0
1537,46.0,6.0,180.0,6.0,64.0
1538,82.0,0.0,90.0,11.0,64.0
1539,70.0,0.0,90.0,12.0,64.0
1540,58.0,0.0,90.0,13.0,64.0
1541,82.0,78.0,90.0,0.0,64.0
1542,58.0,0.0,150.0,4.0,64.0
1543,82.0,0.0,90.0,10.0,64.0
1544,46.0,36.0,150.0,4.0,64.0
1545,46.0,0.0,90.0,14.0,64.0
1546,82.0,0.0,90.0,0.0,64.0
1547,70.0,0.0,90.0,12.0,64.0
1548,58.0,0.0,90.0,13.0,64.0
1549,82.0,0.0,90.0,10.0,64.0
1550,46.0,0.0,90.0,14.0,64.0
1551,82.0,120.0,90.0,11.0,64.0
1552,58.0,0.0,90.0,3.0,64.0
1553,82.0,0.0,90.0,11.0,64.0
1554,82.0,0.0,90.0,0.0,64.0
1555,46.0,18.0,90.0,14.0,64.0
1556,58.0,0.0,90.0,13.0,64.0
1557,70.0,60.0,90.0,2.0,64.0
1558,58.0,0.0,90.0,3.0,64.0
1559,82.0,42.0,150.0,1.0,64.0
1560,70.0,0.0,90.0,12.0,64.0
1561,82.0,0.0,90.0,10.0,64.0
1562,82.0,0.0,90.0,0.0,64.0
1563,46.0,0.0,90.0,14.0,64.0
1564,58.0,0.0,90.0,3.0,64.0
1565,70.0,0.0,90.0,12.0,64.0
1566,58.0,18.0,90.0,13.0,64.0
1567,82.0,0.0,90.0,11.0,64.0
1568,82.0,0.0,90.0,10.0,64.0
1569,70.0,144.0,90.0,2.0,64.0
1570,82.0,0.0,120.0,11.0,64.0
1571,46.0,0.0,120.0,14.0,64.0
1572,82.0,0.0,120.0,1.0,64.0
1573,82.0,0.0,120.0,10.0,64.0
1574,58.0,0.0,120.0,13.0,64.0
1575,70.0,0.0,120.0,12.0,64.0
1576,58.0,0.0,120.0,3.0,64.0
1577,82.0,0.0,120.0,0.0,64.0
1578,70.0,96.0,120.0,2.0,64.0
1579,43.0,0.0,90.0,14.0,64.0
1580,79.0,0.0,90.0,0.0,64.0
1581,79.0,0.0,90.0,1.0,64.0
1582,55.0,0.0,90.0,13.0,64.0
1583,79.0,0.0,90.0,11.0,64.0
1584,67.0,0.0,90.0,12.0,64.0
1585,79.0,0.0,90.0,10.0,64.0
1586,67.0,144.0,90.0,2.0,64.0
1587,55.0,0.0,90.0,3.0,64.0
1588,79.0,0.0,120.0,10.0,64.0
1589,55.0,0.0,120.0,13.0,64.0
1590,67.0,96.0,120.0,2.0,64.0
1591,55.0,0.0,120.0,3.0,64.0
1592,67.0,0.0,120.0,12.0,64.0
1593,43.0,0.0,120.0,14.0,64.0
1594,79.0,0.0,120.0,11.0,64.0
1595,79.0,0.0,120.0,0.0,64.0
1596,79.0,0.0,120.0,1.0,64.0
1597,75.0,144.0,90.0,10.0,64.0
1598,75.0,0.0,90.0,11.0,64.0
1599,51.0,0.0,90.0,3.0,64.0
1600,51.0,0.0,90.0,13.0,64.0
1601,75.0,0.0,90.0,0.0,64.0
1602,63.0,0.0,90.0,2.0,64.0
1603,63.0,0.0,90.0,12.0,64.0
1604,39.0,0.0,90.0,14.0,64.0
1605,75.0,0.0,90.0,1.0,64.0
1606,63.0,0.0,120.0,12.0,64.0
1607,51.0,0.0,120.0,3.0,64.0
1608,63.0,78.0,120.0,2.0,64.0
1609,75.0,0.0,120.0,0.0,64.0
1610,51.0,0.0,120.0,13.0,64.0
1611,75.0,0.0,120.0,10.0,64.0
1612,75.0,0.0,120.0,11.0,64.0
1613,75.0,0.0,120.0,1.0,64.0
1614,39.0,0.0,120.0,14.0,64.0
1615,72.0,0.0,90.0,1.0,64.0
1616,36.0,0.0,90.0,14.0,64.0
1617,48.0,0.0,90.0,3.0,64.0
1618,60.0,120.0,90.0,2.0,64.0
1619,48.0,0.0,90.0,13.0,64.0
1620,60.0,0.0,90.0,12.0,64.0
1621,72.0,0.0,90.0,10.0,64.0
1622,72.0,0.0,90.0,0.0,64.0
1623,72.0,0.0,90.0,11.0,64.0
1624,41.0,120.0,90.0,14.0,64.0
1625,77.0,0.0,90.0,11.0,64.0
1626,77.0,0.0,90.0,10.0,64.0
1627,77.0,0.0,90.0,0.0,64.0
1628,65.0,0.0,90.0,12.0,64.0
1629,53.0,0.0,90.0,3.0,64.0
1630,53.0,0.0,90.0,13.0,64.0
1631,77.0,0.0,90.0,1.0,64.0
1632,65.0,0.0,90.0,2.0,64.0
1633,53.0,0.0,90.0,3.0,64.0
1634,41.0,0.0,90.0,14.0,64.0
1635,77.0,0.0,90.0,10.0,64.0
1636,77.0,162.0,90.0,0.0,64.0
1637,77.0,0.0,90.0,1.0,64.0
1638,53.0,0.0,90.0,13.0,64.0
1639,65.0,0.0,90.0,12.0,64.0
1640,77.0,0.0,90.0,11.0,64.0
1641,65.0,0.0,90.0,2.0,64.0
1642,77.0,0.0,120.0,1.0,64.0
1643,53.0,0.0,120.0,13.0,64.0
1644,41.0,0.0,120.0,14.0,64.0
1645,53.0,0.0,120.0,3.0,64.0
1646,77.0,0.0,120.0,11.0,64.0
1647,65.0,0.0,120.0,2.0,64.0
1648,65.0,0.0,120.0,12.0,64.0
1649,77.0,96.0,120.0,0.0,64.0
1650,77.0,0.0,120.0,10.0,64.0
1651,38.0,0.0,90.0,14.0,64.0
1652,74.0,0.0,90.0,11.0,64.0
1653,50.0,0.0,90.0,3.0,64.0
1654,74.0,0.0,90.0,10.0,64.0
1655,62.0,144.0,90.0,12.0,64.0
1656,62.0,0.0,90.0,2.0,64.0
1657,50.0,0.0,90.0,13.0,64.0
1658,74.0,0.0,90.0,1.0,64.0
1659,74.0,0.0,90.0,0.0,64.0
1660,50.0,0.0,120.0,13.0,64.0
1661,74.0,0.0,120.0,1.0,64.0
1662,38.0,0.0,120.0,14.0,64.0
1663,62.0,96.0,120.0,2.0,64.0
1664,62.0,0.0,120.0,12.0,64.0
1665,74.0,0.0,120.0,0.0,64.0
1666,74.0,0.0,120.0,10.0,64.0
1667,50.0,0.0,120.0,3.0,64.0
1668,74.0,0.0,120.0,11.0,64.0
1669,58.0,0.0,90.0,12.0,64.0
1670,46.0,0.0,90.0,13.0,64.0
1671,70.0,144.0,90.0,11.0,64.0
1672,46.0,0.0,90.0,3.0,64.0
1673,70.0,0.0,90.0,1.0,64.0
1674,58.0,0.0,90.0,2.0,64.0
1675,34.0,0.0,90.0,14.0,64.0
1676,70.0,0.0,90.0,0.0,64.0
1677,70.0,0.0,90.0,10.0,64.0
1678,70.0,0.0,120.0,1.0,64.0
1679,46.0,0.0,120.0,3.0,64.0
1680,58.0,0.0,120.0,12.0,64.0
1681,58.0,78.0,120.0,2.0,64.0
1682,70.0,0.0,120.0,0.0,64.0
1683,34.0,0.0,120.0,14.0,64.0
1684,46.0,0.0,120.0,13.0,64.0
1685,70.0,0.0,120.0,11.0,64.0
1686,70.0,0.0,120.0,10.0,64.0
1687,43.0,0.0,90.0,3.0,64.0
1688,67.0,0.0,90.0,0.0,64.0
1689,67.0,0.0,90.0,11.0,64.0
1690,67.0,0.0,90.0,10.0,64.0
1691,31.0,0.0,90.0,14.0,64.0
1692,55.0,0.0,90.0,12.0,64.0
1693,67.0,120.0,90.0,1.0,64.0
1694,43.0,0.0,90.0,13.0,64.0
1695,55.0,0.0,90.0,2.0,64.0
1696,75.0,0.0,90.0,1.0,64.0
1697,75.0,0.0,90.0,11.0,64.0
1698,75.0,0.0,90.0,10.0,64.0
1699,63.0,0.0,90.0,12.0,64.0
1700,75.0,0.0,90.0,0.0,64.0
1701,39.0,0.0,90.0,14.0,64.0
1702,51.0,0.0,90.0,13.0,64.0
1703,63.0,0.0,90.0,2.0,64.0
1704,51.0,120.0,90.0,3.0,64.0
1705,60.0,0.0,90.0,2.0,64.0
1706,72.0,0.0,90.0,0.0,64.0
1707,48.0,0.0,90.0,13.0,64.0
1708,36.0,0.0,90.0,14.0,64.0
1709,60.0,0.0,90.0,12.0,64.0
1710,72.0,0.0,90.0,10.0,64.0
1711,48.0,0.0,90.0,3.0,64.0
1712,72.0,0.0,90.0,1.0,64.0
1713,72.0,120.0,90.0,11.0,64.0
1714,69.0,0.0,90.0,10.0,64.0
1715,69.0,0.0,90.0,2.0,64.0
1716,81.0,0.0,90.0,0.0,64.0
1717,57.0,0.0,90.0,3.0,64.0
1718,69.0,120.0,90.0,11.0,64.0
1719,69.0,0.0,90.0,1.0,64.0
1720,57.0,0.0,90.0,13.0,64.0
1721,69.0,0.0,90.0,12.0,64.0
1722,45.0,0.0,90.0,14.0,64.0
1723,65.0,0.0,90.0,11.0,64.0
1724,65.0,0.0,90.0,10.0,64.0
1725,41.0,0.0,90.0,14.0,64.0
1726,53.0,0.0,90.0,3.0,64.0
1727,65.0,0.0,90.0,1.0,64.0
1728,77.0,120.0,90.0,0.0,64.0
1729,65.0,0.0,90.0,2.0,64.0
1730,65.0,0.0,90.0,12.0,64.0
1731,53.0,0.0,90.0,13.0,64.0
1732,70.0,0.0,90.0,11.0,64.0
1733,46.0,0.0,90.0,14.0,64.0
1734,70.0,6.0,180.0,1.0,64.0
1735,70.0,0.0,90.0,2.0,64.0
1736,70.0,0.0,90.0,10.0,64.0
1737,70.0,114.0,90.0,12.0,64.0
1738,58.0,0.0,90.0,13.0,64.0
1739,58.0,0.0,90.0,3.0,64.0
1740,82.0,0.0,90.0,0.0,64.0
1741,53.0,0.0,90.0,13.0,64.0
1742,41.0,0.0,90.0,14.0,64.0
1743,65.0,0.0,90.0,11.0,64.0
1744,53.0,120.0,90.0,3.0,64.0
1745,65.0,0.0,90.0,2.0,64.0
1746,65.0,0.0,90.0,12.0,64.0
1747,77.0,0.0,90.0,0.0,64.0
1748,65.0,0.0,90.0,10.0,64.0
1749,63.0,0.0,90.0,11.0,64.0
1750,75.0,0.0,90.0,0.0,64.0
1751,63.0,0.0,90.0,12.0,64.0
1752,39.0,120.0,90.0,14.0,64.0
1753,63.0,0.0,90.0,2.0,64.0
1754,51.0,0.0,90.0,13.0,64.0
1755,51.0,0.0,90.0,3.0,64.0
1756,63.0,0.0,90.0,10.0,64.0
1757,62.0,0.0,90.0,10.0,64.0
1758,38.0,0.0,90.0,14.0,64.0
1759,62.0,0.0,90.0,11.0,64.0
1760,74.0,0.0,90.0,0.0,64.0
1761,62.0,120.0,90.0,12.0,64.0
1762,50.0,0.0,90.0,3.0,64.0
1763,50.0,0.0,90.0,13.0,64.0
1764,62.0,0.0,90.0,2.0,64.0
1765,48.0,0.0,90.0,13.0,64.0
1766,60.0,0.0,90.0,11.0,64.0
1767,72.0,0.0,90.0,0.0,64.0
1768,60.0,0.0,90.0,10.0,64.0
1769,36.0,120.0,90.0,14.0,64.0
1770,60.0,0.0,90.0,2.0,64.0
1771,48.0,0.0,90.0,3.0,64.0
1772,60.0,0.0,90.0,12.0,64.0
1773,58.0,0.0,90.0,10.0,64.0
1774,58.0,0.0,90.0,11.0,64.0
1775,46.0,0.0,90.0,13.0,64.0
1776,58.0,0.0,90.0,2.0,64.0
1777,34.0,0.0,90.0,14.0,64.0
1778,70.0,0.0,90.0,0.0,64.0
1779,58.0,0.0,90.0,12.0,64.0
1780,46.0,72.0,90.0,3.0,64.0
1781,65.0,0.0,7620.0,2.0,64.0
1782,53.0,6.0,7620.0,2.0,64.0
1783,57.0,0.0,30.0,10.0,64.0
1784,65.0,54.0,390.0,5.0,64.0
1785,41.0,36.0,150.0,13.0,64.0
1786,57.0,30.0,30.0,11.0,64.0
1787,69.0,6.0,1860.0,1.0,64.0
1788,72.0,0.0,1860.0,1.0,64.0
1789,53.0,0.0,7620.0,4.0,64.0
1790,41.0,0.0,7620.0,4.0,64.0
1791,77.0,0.0,7620.0,0.0,64.0
1792,29.0,0.0,150.0,14.0,64.0
1793,41.0,0.0,150.0,3.0,64.0
1794,53.0,0.0,150.0,12.0,64.0
1795,41.0,12.0,180.0,6.0,64.0
1796,60.0,96.0,30.0,10.0,64.0
1797,60.0,0.0,30.0,11.0,64.0
1798,65.0,0.0,150.0,10.0,64.0
1799,65.0,114.0,150.0,11.0,64.0
1800,65.0,0.0,90.0,11.0,64.0
1801,65.0,66.0,90.0,10.0,64.0
1802,65.0,21.0,90.0,10.0,64.0
1803,65.0,0.0,90.0,11.0,64.0
1804,60.0,0.0,30.0,3.0,64.0
1805,72.0,51.0,30.0,12.0,64.0
1806,48.0,0.0,30.0,14.0,64.0
1807,60.0,0.0,30.0,13.0,64.0
1808,65.0,0.0,30.0,11.0,64.0
1809,65.0,30.0,30.0,10.0,64.0
1810,65.0,24.0,180.0,5.0,64.0
1811,69.0,0.0,150.0,12.0,64.0
1812,57.0,0.0,150.0,13.0,64.0
1813,45.0,24.0,150.0,14.0,64.0
1814,57.0,0.0,150.0,3.0,64.0
1815,69.0,96.0,30.0,11.0,64.0
1816,69.0,0.0,30.0,10.0,64.0
1817,72.0,0.0,150.0,11.0,64.0
1818,72.0,114.0,150.0,10.0,64.0
1819,72.0,0.0,90.0,10.0,64.0
1820,41.0,24.0,150.0,14.0,64.0
1821,53.0,0.0,150.0,13.0,64.0
1822,65.0,0.0,150.0,12.0,64.0
1823,72.0,78.0,90.0,11.0,64.0
1824,65.0,18.0,180.0,5.0,64.0
1825,53.0,0.0,150.0,3.0,64.0
1826,72.0,72.0,90.0,10.0,64.0
1827,72.0,0.0,90.0,11.0,64.0
1828,51.0,0.0,150.0,3.0,64.0
1829,72.0,30.0,30.0,11.0,64.0
1830,51.0,0.0,150.0,13.0,64.0
1831,72.0,0.0,30.0,10.0,64.0
1832,63.0,0.0,150.0,12.0,64.0
1833,41.0,246.0,180.0,6.0,64.0
1834,39.0,21.0,150.0,14.0,64.0
1835,65.0,12.0,180.0,5.0,64.0
1836,77.0,0.0,30.0,10.0,64.0
1837,77.0,96.0,30.0,11.0,64.0
1838,81.0,3.0,120.0,10.0,64.0
1839,81.0,0.0,120.0,11.0,64.0
1840,81.0,54.0,390.0,10.0,64.0
1841,81.0,0.0,390.0,11.0,64.0
1842,41.0,0.0,90.0,13.0,64.0
1843,53.0,0.0,90.0,12.0,64.0
1844,41.0,120.0,90.0,3.0,64.0
1845,29.0,0.0,90.0,14.0,64.0
1846,45.0,0.0,90.0,13.0,64.0
1847,57.0,0.0,90.0,12.0,64.0
1848,45.0,0.0,90.0,3.0,64.0
1849,33.0,66.0,90.0,14.0,64.0
1850,48.0,0.0,90.0,13.0,64.0
1851,60.0,102.0,90.0,12.0,64.0
1852,36.0,0.0,90.0,14.0,64.0
1853,48.0,0.0,90.0,3.0,64.0
1854,82.0,18.0,60.0,11.0,64.0
1855,41.0,0.0,90.0,14.0,64.0
1856,53.0,42.0,90.0,3.0,64.0
1857,53.0,0.0,90.0,13.0,64.0
1858,82.0,0.0,60.0,10.0,64.0
1859,65.0,0.0,90.0,12.0,64.0
1860,81.0,0.0,60.0,10.0,64.0
1861,81.0,60.0,60.0,11.0,64.0
1862,51.0,0.0,90.0,13.0,64.0
1863,63.0,0.0,90.0,12.0,64.0
1864,51.0,0.0,90.0,3.0,64.0
1865,79.0,0.0,60.0,11.0,64.0
1866,39.0,30.0,90.0,14.0,64.0
1867,79.0,12.0,60.0,10.0,64.0
1868,77.0,132.0,60.0,10.0,64.0
1869,77.0,0.0,60.0,11.0,64.0
1870,50.0,0.0,150.0,13.0,64.0
1871,46.0,6.0,180.0,6.0,64.0
1872,38.0,36.0,150.0,14.0,64.0
1873,82.0,36.0,120.0,10.0,64.0
1874,50.0,0.0,150.0,3.0,64.0
1875,70.0,12.0,390.0,5.0,64.0
1876,74.0,0.0,1860.0,1.0,64.0
1877,82.0,0.0,120.0,11.0,64.0
1878,70.0,6.0,1860.0,1.0,64.0
1879,62.0,0.0,150.0,12.0,64.0
1880,77.0,120.0,90.0,11.0,64.0
1881,77.0,0.0,90.0,10.0,64.0
1882,41.0,0.0,150.0,14.0,64.0
1883,53.0,0.0,150.0,13.0,64.0
1884,77.0,0.0,90.0,10.0,64.0
1885,65.0,0.0,150.0,12.0,64.0
1886,53.0,42.0,150.0,3.0,64.0
1887,77.0,66.0,90.0,11.0,64.0
1888,77.0,162.0,90.0,10.0,64.0
1889,77.0,0.0,90.0,11.0,64.0
1890,46.0,6.0,180.0,6.0,64.0
1891,46.0,0.0,150.0,14.0,64.0
1892,65.0,48.0,390.0,5.0,64.0
1893,77.0,0.0,120.0,11.0,64.0
1894,77.0,36.0,120.0,10.0,64.0
1895,58.0,36.0,150.0,13.0,64.0
1896,70.0,0.0,150.0,12.0,64.0
1897,58.0,0.0,150.0,3.0,64.0
1898,74.0,0.0,90.0,11.0,64.0
1899,74.0,120.0,90.0,10.0,64.0
1900,74.0,0.0,90.0,11.0,64.0
1901,74.0,66.0,90.0,10.0,64.0
1902,46.0,6.0,180.0,6.0,64.0
1903,74.0,0.0,90.0,11.0,64.0
1904,74.0,162.0,90.0,10.0,64.0
1905,46.0,6.0,180.0,6.0,64.0
1906,58.0,36.0,150.0,12.0,64.0
1907,46.0,0.0,150.0,3.0,64.0
1908,74.0,0.0,120.0,10.0,64.0
1909,74.0,36.0,120.0,11.0,64.0
1910,46.0,0.0,150.0,13.0,64.0
1911,34.0,0.0,150.0,14.0,64.0
1912,62.0,12.0,390.0,5.0,64.0
1913,70.0,120.0,90.0,10.0,64.0
1914,70.0,0.0,90.0,11.0,64.0
1915,38.0,0.0,150.0,14.0,64.0
1916,70.0,66.0,90.0,10.0,64.0
1917,50.0,42.0,150.0,3.0,64.0
1918,50.0,0.0,150.0,13.0,64.0
1919,62.0,0.0,150.0,12.0,64.0
1920,70.0,0.0,90.0,11.0,64.0
1921,65.0,0.0,90.0,10.0,64.0
1922,65.0,120.0,90.0,11.0,64.0
1923,62.0,0.0,90.0,11.0,64.0
1924,58.0,48.0,390.0,5.0,64.0
1925,41.0,0.0,150.0,14.0,64.0
1926,53.0,0.0,150.0,13.0,64.0
1927,65.0,0.0,150.0,12.0,64.0
1928,62.0,78.0,90.0,10.0,64.0
1929,46.0,6.0,180.0,6.0,64.0
1930,53.0,36.0,150.0,3.0,64.0
1931,65.0,0.0,90.0,11.0,64.0
1932,65.0,120.0,90.0,10.0,64.0
1933,62.0,66.0,90.0,10.0,64.0
1934,62.0,0.0,90.0,11.0,64.0
1935,46.0,0.0,180.0,6.0,64.0
1936,58.0,0.0,90.0,11.0,64.0
1937,58.0,72.0,90.0,10.0,64.0
1938,41.0,0.0,150.0,3.0,64.0
1939,53.0,0.0,150.0,12.0,64.0
1940,41.0,0.0,150.0,13.0,64.0
1941,72.0,0.0,1860.0,1.0,64.0
1942,57.0,0.0,30.0,11.0,64.0
1943,41.0,12.0,180.0,6.0,64.0
1944,57.0,30.0,30.0,10.0,64.0
1945,65.0,54.0,390.0,5.0,64.0
1946,29.0,36.0,150.0,14.0,64.0
1947,69.0,6.0,1860.0,1.0,64.0
1948,60.0,96.0,30.0,11.0,64.0
1949,60.0,0.0,30.0,10.0,64.0
1950,65.0,114.0,150.0,10.0,64.0
1951,65.0,0.0,150.0,11.0,64.0
1952,65.0,0.0,90.0,10.0,64.0
1953,65.0,66.0,90.0,11.0,64.0
1954,65.0,21.0,90.0,10.0,64.0
1955,65.0,0.0,90.0,11.0,64.0
1956,48.0,0.0,30.0,14.0,64.0
1957,60.0,0.0,30.0,3.0,64.0
1958,72.0,0.0,30.0,12.0,64.0
1959,60.0,51.0,30.0,13.0,64.0
1960,45.0,0.0,150.0,14.0,64.0
1961,57.0,0.0,150.0,13.0,64.0
1962,69.0,24.0,150.0,12.0,64.0
1963,57.0,0.0,150.0,3.0,64.0
1964,65.0,30.0,30.0,11.0,64.0
1965,65.0,0.0,30.0,10.0,64.0
1966,65.0,24.0,180.0,5.0,64.0
1967,69.0,0.0,30.0,11.0,64.0
1968,69.0,96.0,30.0,10.0,64.0
1969,72.0,0.0,150.0,11.0,64.0
1970,72.0,114.0,150.0,10.0,64.0
1971,72.0,78.0,90.0,10.0,64.0
1972,72.0,0.0,90.0,11.0,64.0
1973,53.0,0.0,150.0,13.0,64.0
1974,53.0,0.0,150.0,3.0,64.0
1975,41.0,0.0,150.0,14.0,64.0
1976,65.0,24.0,150.0,12.0,64.0
1977,65.0,18.0,180.0,5.0,64.0
1978,72.0,0.0,90.0,11.0,64.0
1979,72.0,72.0,90.0,10.0,64.0
1980,39.0,0.0,150.0,14.0,64.0
1981,41.0,246.0,180.0,6.0,64.0
1982,65.0,12.0,180.0,5.0,64.0
1983,72.0,0.0,30.0,11.0,64.0
1984,63.0,21.0,150.0,12.0,64.0
1985,72.0,30.0,30.0,10.0,64.0
1986,51.0,0.0,150.0,13.0,64.0
1987,51.0,0.0,150.0,3.0,64.0
1988,77.0,0.0,30.0,11.0,64.0
1989,77.0,96.0,30.0,10.0,64.0
1990,81.0,3.0,120.0,11.0,64.0
1991,81.0,0.0,120.0,10.0,64.0
1992,81.0,0.0,390.0,10.0,64.0
1993,81.0,54.0,390.0,11.0,64.0
1994,29.0,0.0,90.0,14.0,64.0
1995,53.0,0.0,90.0,12.0,64.0
1996,41.0,0.0,90.0,13.0,64.0
1997,41.0,120.0,90.0,3.0,64.0
1998,33.0,66.0,90.0,14.0,64.0
1999,57.0,0.0,90.0,12.0,64.0
2000,45.0,0.0,90.0,13.0,64.0
2001,45.0,0.0,90.0,3.0,64.0
2002,36.0,0.0,90.0,14.0,64.0
2003,48.0,102.0,90.0,13.0,64.0
2004,48.0,0.0,90.0,3.0,64.0
2005,60.0,0.0,90.0,12.0,64.0
2006,65.0,0.0,90.0,12.0,64.0
2007,53.0,0.0,90.0,3.0,64.0
2008,82.0,0.0,60.0,11.0,64.0
2009,82.0,18.0,60.0,10.0,64.0
2010,41.0,42.0,90.0,14.0,64.0
2011,53.0,0.0,90.0,13.0,64.0
2012,81.0,60.0,60.0,10.0,64.0
2013,81.0,0.0,60.0,11.0,64.0
2014,79.0,0.0,60.0,10.0,64.0
2015,39.0,0.0,90.0,14.0,64.0
2016,63.0,0.0,90.0,12.0,64.0
2017,51.0,0.0,90.0,13.0,64.0
2018,51.0,30.0,90.0,3.0,64.0
2019,79.0,12.0,60.0,11.0,64.0
2020,77.0,132.0,60.0,10.0,64.0
2021,77.0,0.0,60.0,11.0,64.0
2022,50.0,0.0,150.0,3.0,64.0
2023,82.0,36.0,120.0,11.0,64.0
2024,74.0,0.0,1860.0,1.0,64.0
2025,70.0,0.0,1860.0,1.0,64.0
2026,82.0,0.0,120.0,10.0,64.0
2027,46.0,6.0,180.0,6.0,64.0
2028,38.0,0.0,150.0,14.0,64.0
2029,50.0,36.0,150.0,13.0,64.0
2030,70.0,12.0,390.0,5.0,64.0
2031,62.0,0.0,150.0,12.0,64.0
2032,77.0,0.0,90.0,11.0,64.0
2033,77.0,120.0,90.0,10.0,64.0
2034,77.0,0.0,90.0,10.0,64.0
2035,41.0,0.0,150.0,14.0,64.0
2036,53.0,0.0,150.0,3.0,64.0
2037,65.0,0.0,150.0,12.0,64.0
2038,77.0,66.0,90.0,11.0,64.0
2039,53.0,42.0,150.0,13.0,64.0
2040,77.0,162.0,90.0,10.0,64.0
2041,77.0,0.0,90.0,11.0,64.0
2042,70.0,0.0,150.0,12.0,64.0
2043,58.0,36.0,150.0,3.0,64.0
2044,65.0,48.0,390.0,5.0,64.0
2045,77.0,36.0,120.0,10.0,64.0
2046,46.0,6.0,180.0,6.0,64.0
2047,77.0,0.0,120.0,11.0,64.0
2048,46.0,0.0,150.0,14.0,64.0
2049,58.0,0.0,150.0,13.0,64.0
2050,74.0,0.0,90.0,10.0,64.0
2051,74.0,120.0,90.0,11.0,64.0
2052,74.0,0.0,90.0,11.0,64.0
2053,46.0,6.0,180.0,6.0,64.0
2054,74.0,66.0,90.0,10.0,64.0
2055,74.0,0.0,90.0,10.0,64.0
2056,74.0,162.0,90.0,11.0,64.0
2057,46.0,0.0,150.0,3.0,64.0
2058,58.0,0.0,150.0,12.0,64.0
2059,46.0,6.0,180.0,6.0,64.0
2060,74.0,36.0,120.0,11.0,64.0
2061,34.0,0.0,150.0,14.0,64.0
2062,74.0,0.0,120.0,10.0,64.0
2063,62.0,12.0,390.0,5.0,64.0
2064,46.0,36.0,150.0,13.0,64.0
2065,70.0,0.0,90.0,10.0,64.0
2066,70.0,120.0,90.0,11.0,64.0
2067,50.0,0.0,150.0,3.0,64.0
2068,70.0,66.0,90.0,11.0,64.0
2069,62.0,0.0,150.0,12.0,64.0
2070,38.0,0.0,150.0,14.0,64.0
2071,70.0,0.0,90.0,10.0,64.0
2072,50.0,42.0,150.0,13.0,64.0
2073,65.0,120.0,90.0,11.0,64.0
2074,65.0,0.0,90.0,10.0,64.0
2075,41.0,36.0,150.0,14.0,64.0
2076,62.0,0.0,90.0,11.0,64.0
2077,53.0,0.0,150.0,3.0,64.0
2078,53.0,0.0,150.0,13.0,64.0
2079,46.0,6.0,180.0,6.0,64.0
2080,62.0,78.0,90.0,10.0,64.0
2081,65.0,0.0,150.0,12.0,64.0
2082,58.0,48.0,390.0,5.0,64.0
2083,65.0,120.0,90.0,11.0,64.0
2084,65.0,0.0,90.0,10.0,64.0
2085,62.0,0.0,90.0,10.0,64.0
2086,46.0,0.0,180.0,6.0,64.0
2087,62.0,66.0,90.0,11.0,64.0
2088,58.0,426.0,90.0,10.0,64.0
2089,58.0,0.0,90.0,11.0,64.0
2090,55.0,0.0,780.0,10.0,64.0
2091,82.0,0.0,780.0,0.0,64.0
2092,58.0,0.0,780.0,4.0,64.0
2093,46.0,0.0,780.0,4.0,64.0
2094,75.0,0.0,780.0,0.0,64.0
2095,43.0,0.0,780.0,3.0,64.0
2096,55.0,0.0,780.0,11.0,64.0
2097,55.0,0.0,780.0,12.0,64.0
2098,70.0,0.0,780.0,2.0,64.0
2099,43.0,0.0,780.0,13.0,64.0
2100,70.0,0.0,780.0,1.0,64.0
2101,75.0,0.0,780.0,1.0,64.0
2102,31.0,0.0,780.0,14.0,64.0
2103,63.0,576.0,780.0,2.0,64.0
2104,46.0,384.0,390.0,6.0,64.0
2105,70.0,0.0,780.0,5.0,64.0
2106,58.0,0.0,780.0,5.0,64.0
2107,70.0,0.0,390.0,5.0,64.0
2108,58.0,0.0,390.0,5.0,64.0
2109,58.0,0.0,390.0,4.0,64.0
2110,46.0,0.0,390.0,4.0,64.0
2111,64.0,0.0,390.0,2.0,64.0
2112,73.0,0.0,390.0,1.0,64.0
2113,42.0,0.0,390.0,13.0,64.0
2114,54.0,0.0,390.0,12.0,64.0
2115,76.0,0.0,390.0,1.0,64.0
2116,42.0,0.0,390.0,3.0,64.0
2117,54.0,0.0,390.0,10.0,64.0
2118,76.0,480.0,390.0,0.0,64.0
2119,46.0,0.0,390.0,6.0,64.0
2120,82.0,0.0,390.0,0.0,64.0
2121,30.0,0.0,390.0,14.0,64.0
2122,70.0,0.0,390.0,2.0,64.0
2123,54.0,0.0,390.0,11.0,64.0
2124,76.0,0.0,390.0,1.0,64.0
2125,54.0,0.0,390.0,11.0,64.0
2126,73.0,0.0,390.0,1.0,64.0
2127,64.0,0.0,390.0,2.0,64.0
2128,58.0,0.0,390.0,5.0,64.0
2129,54.0,0.0,390.0,12.0,64.0
2130,46.0,0.0,390.0,4.0,64.0
2131,58.0,0.0,390.0,4.0,64.0
2132,54.0,0.0,390.0,10.0,64.0
2133,30.0,0.0,390.0,14.0,64.0
2134,42.0,0.0,390.0,3.0,64.0
2135,76.0,0.0,390.0,0.0,64.0
2136,42.0,0.0,390.0,13.0,64.0
2137,82.0,0.0,390.0,0.0,64.0
2138,46.0,120.0,390.0,6.0,64.0
2139,70.0,0.0,390.0,2.0,64.0
2140,70.0,0.0,390.0,5.0,64.0
2141,72.0,0.0,180.0,2.0,64.0
2142,53.0,0.0,570.0,12.0,64.0
2143,77.0,0.0,180.0,0.0,64.0
2144,81.0,0.0,180.0,0.0,64.0
2145,41.0,0.0,570.0,3.0,64.0
2146,29.0,18.0,570.0,14.0,64.0
2147,53.0,0.0,180.0,4.0,64.0
2148,77.0,0.0,180.0,1.0,64.0
2149,69.0,0.0,180.0,1.0,64.0
2150,41.0,30.0,20.0,6.0,64.0
2151,60.0,0.0,180.0,2.0,64.0
2152,53.0,0.0,570.0,11.0,64.0
2153,65.0,12.0,180.0,4.0,64.0
2154,53.0,0.0,1140.0,5.0,64.0
2155,65.0,0.0,1140.0,5.0,64.0
2156,53.0,0.0,570.0,10.0,64.0
2157,41.0,0.0,570.0,13.0,64.0
2158,41.0,30.0,20.0,6.0,64.0
2159,41.0,30.0,20.0,6.0,64.0
2160,41.0,30.0,20.0,6.0,64.0
2161,41.0,30.0,20.0,6.0,64.0
2162,41.0,18.0,20.0,6.0,64.0
2163,41.0,30.0,20.0,6.0,64.0
2164,41.0,30.0,20.0,6.0,64.0
2165,65.0,0.0,180.0,2.0,64.0
2166,41.0,30.0,20.0,6.0,64.0
2167,72.0,0.0,180.0,1.0,64.0
2168,69.0,12.0,180.0,1.0,64.0
2169,60.0,0.0,180.0,4.0,64.0
2170,53.0,0.0,180.0,4.0,64.0
2171,77.0,0.0,180.0,0.0,64.0
2172,41.0,30.0,20.0,6.0,64.0
2173,41.0,30.0,20.0,6.0,64.0
2174,41.0,30.0,20.0,6.0,64.0
2175,41.0,30.0,20.0,6.0,64.0
2176,41.0,18.0,20.0,6.0,64.0
2177,41.0,30.0,20.0,6.0,64.0
2178,41.0,30.0,20.0,6.0,64.0
2179,60.0,0.0,180.0,4.0,64.0
2180,69.0,0.0,180.0,1.0,64.0
2181,72.0,12.0,180.0,1.0,64.0
2182,41.0,30.0,20.0,6.0,64.0
2183,65.0,0.0,180.0,2.0,64.0
2184,53.0,0.0,180.0,4.0,64.0
2185,77.0,0.0,180.0,0.0,64.0
2186,41.0,30.0,20.0,6.0,64.0
2187,41.0,12.0,20.0,6.0,64.0
2188,41.0,30.0,20.0,6.0,64.0
2189,43.0,6.0,60.0,3.0,64.0
2190,55.0,0.0,60.0,11.0,64.0
2191,55.0,0.0,60.0,12.0,64.0
2192,43.0,0.0,60.0,13.0,64.0
2193,55.0,0.0,60.0,10.0,64.0
2194,41.0,24.0,20.0,6.0,64.0
2195,31.0,0.0,60.0,14.0,64.0
2196,41.0,18.0,20.0,6.0,64.0
2197,41.0,24.0,20.0,6.0,64.0
2198,45.0,6.0,60.0,3.0,64.0
2199,57.0,0.0,60.0,12.0,64.0
2200,45.0,0.0,60.0,13.0,64.0
2201,57.0,0.0,60.0,10.0,64.0
2202,57.0,0.0,60.0,11.0,64.0
2203,33.0,0.0,60.0,14.0,64.0
2204,41.0,30.0,20.0,6.0,64.0
2205,58.0,0.0,60.0,10.0,64.0
2206,34.0,0.0,60.0,14.0,64.0
2207,58.0,0.0,60.0,11.0,64.0
2208,72.0,12.0,180.0,1.0,64.0
2209,65.0,0.0,180.0,2.0,64.0
2210,69.0,0.0,180.0,1.0,64.0
2211,53.0,0.0,180.0,4.0,64.0
2212,46.0,0.0,60.0,13.0,64.0
2213,77.0,0.0,180.0,0.0,64.0
2214,60.0,0.0,180.0,4.0,64.0
2215,41.0,24.0,20.0,6.0,64.0
2216,58.0,0.0,60.0,12.0,64.0
2217,46.0,6.0,60.0,3.0,64.0
2218,41.0,30.0,20.0,6.0,64.0
2219,36.0,0.0,60.0,14.0,64.0
2220,41.0,24.0,20.0,6.0,64.0
2221,48.0,0.0,60.0,13.0,64.0
2222,60.0,0.0,60.0,12.0,64.0
2223,48.0,6.0,60.0,3.0,64.0
2224,60.0,0.0,60.0,11.0,64.0
2225,60.0,0.0,60.0,10.0,64.0
2226,41.0,30.0,20.0,6.0,64.0
2227,50.0,0.0,60.0,3.0,64.0
2228,41.0,24.0,20.0,6.0,64.0
2229,38.0,0.0,60.0,14.0,64.0
2230,62.0,6.0,60.0,12.0,64.0
2231,50.0,0.0,60.0,13.0,64.0
2232,62.0,0.0,60.0,10.0,64.0
2233,62.0,0.0,60.0,11.0,64.0
2234,41.0,18.0,20.0,6.0,64.0
2235,52.0,6.0,60.0,3.0,64.0
2236,52.0,0.0,60.0,13.0,64.0
2237,40.0,0.0,60.0,14.0,64.0
2238,41.0,24.0,20.0,6.0,64.0
2239,64.0,0.0,60.0,11.0,64.0
2240,64.0,0.0,60.0,12.0,64.0
2241,64.0,0.0,60.0,10.0,64.0
2242,41.0,198.0,20.0,6.0,64.0
2243,65.0,0.0,180.0,12.0,64.0
2244,72.0,0.0,180.0,1.0,64.0
2245,69.0,0.0,180.0,1.0,64.0
2246,65.0,0.0,180.0,11.0,64.0
2247,65.0,846.0,180.0,10.0,64.0
2248,65.0,0.0,180.0,2.0,64.0
2249,41.0,0.0,180.0,14.0,64.0
2250,53.0,0.0,180.0,3.0,64.0
2251,53.0,0.0,180.0,4.0,64.0
2252,41.0,0.0,180.0,6.0,64.0
2253,77.0,0.0,180.0,0.0,64.0
2254,60.0,0.0,180.0,4.0,64.0
2255,53.0,0.0,180.0,13.0,64.0
2256,65.0,120.0,90.0,12.0,64.0
2257,65.0,120.0,90.0,12.0,64.0
2258,65.0,120.0,90.0,12.0,64.0
2259,65.0,120.0,90.0,12.0,64.0
2260,65.0,120.0,90.0,12.0,64.0
2261,65.0,120.0,90.0,12.0,64.0
2262,65.0,120.0,90.0,12.0,64.0
2263,65.0,72.0,90.0,12.0,64.0
2264,69.0,30.0,30.0,10.0,64.0
2265,65.0,99.0,90.0,12.0,64.0
2266,65.0,0.0,30.0,11.0,64.0
2267,67.0,0.0,30.0,11.0,64.0
2268,70.0,18.0,30.0,10.0,64.0
2269,69.0,21.0,120.0,11.0,64.0
2270,72.0,0.0,120.0,10.0,64.0
2271,65.0,102.0,90.0,12.0,64.0
2272,65.0,120.0,90.0,12.0,64.0
2273,65.0,0.0,60.0,11.0,64.0
2274,69.0,18.0,60.0,10.0,64.0
2275,65.0,72.0,90.0,12.0,64.0
2276,69.0,30.0,30.0,10.0,64.0
2277,65.0,0.0,30.0,11.0,64.0
2278,65.0,99.0,90.0,12.0,64.0
2279,67.0,18.0,30.0,11.0,64.0
2280,70.0,0.0,30.0,10.0,64.0
2281,72.0,0.0,120.0,10.0,64.0
2282,69.0,21.0,120.0,11.0,64.0
2283,65.0,102.0,90.0,12.0,64.0
2284,65.0,120.0,90.0,12.0,64.0
2285,69.0,18.0,60.0,10.0,64.0
2286,65.0,0.0,60.0,11.0,64.0
2287,65.0,72.0,90.0,12.0,64.0
2288,70.0,30.0,30.0,11.0,64.0
2289,74.0,0.0,30.0,10.0,64.0
2290,65.0,99.0,90.0,12.0,64.0
2291,72.0,0.0,30.0,11.0,64.0
2292,76.0,18.0,30.0,10.0,64.0
2293,77.0,21.0,120.0,10.0,64.0
2294,74.0,0.0,120.0,11.0,64.0
2295,65.0,120.0,90.0,12.0,64.0
2296,74.0,78.0,240.0,11.0,64.0
2297,65.0,120.0,90.0,12.0,64.0
2298,65.0,42.0,90.0,12.0,64.0
2299,65.0,120.0,90.0,12.0,64.0
2300,74.0,0.0,570.0,11.0,64.0
2301,65.0,42.0,90.0,12.0,64.0
2302,77.0,78.0,15.0,10.0,64.0
2303,65.0,120.0,90.0,12.0,64.0
2304,65.0,120.0,90.0,12.0,64.0
2305,65.0,42.0,150.0,12.0,64.0
2306,76.0,120.0,90.0,10.0,64.0
2307,72.0,0.0,90.0,11.0,64.0
2308,70.0,0.0,90.0,11.0,64.0
2309,74.0,120.0,90.0,10.0,64.0
2310,72.0,120.0,90.0,10.0,64.0
2311,69.0,0.0,90.0,11.0,64.0
2312,70.0,120.0,90.0,10.0,64.0
2313,67.0,0.0,90.0,11.0,64.0
2314,65.0,0.0,90.0,11.0,64.0
2315,69.0,120.0,90.0,10.0,64.0
2316,64.0,120.0,90.0,11.0,64.0
2317,67.0,0.0,90.0,10.0,64.0
2318,65.0,0.0,90.0,10.0,64.0
2319,62.0,120.0,90.0,11.0,64.0
2320,64.0,0.0,90.0,10.0,64.0
2321,48.0,156.0,480.0,13.0,64.0
2322,36.0,0.0,480.0,14.0,64.0
2323,60.0,120.0,90.0,11.0,64.0
2324,62.0,120.0,90.0,10.0,64.0
2325,58.0,0.0,90.0,11.0,64.0
2326,57.0,0.0,90.0,11.0,64.0
2327,60.0,120.0,90.0,10.0,64.0
2328,58.0,42.0,90.0,10.0,64.0
2329,55.0,0.0,90.0,11.0,64.0
2330,57.0,36.0,150.0,10.0,64.0
2331,53.0,0.0,150.0,11.0,64.0
2332,41.0,0.0,180.0,14.0,64.0
2333,53.0,288.0,180.0,13.0,64.0
2334,57.0,0.0,240.0,3.0,64.0
2335,53.0,0.0,240.0,3.0,64.0
2336,65.0,96.0,240.0,2.0,64.0
2337,69.0,0.0,240.0,2.0,64.0
2338,52.0,384.0,90.0,3.0,64.0
2339,55.0,0.0,90.0,3.0,64.0
2340,67.0,0.0,90.0,2.0,64.0
2341,64.0,0.0,90.0,2.0,64.0
2342,67.0,0.0,240.0,2.0,64.0
2343,70.0,96.0,240.0,2.0,64.0
2344,55.0,0.0,240.0,3.0,64.0
2345,58.0,0.0,240.0,3.0,64.0
2346,57.0,0.0,90.0,3.0,64.0
2347,53.0,204.0,90.0,3.0,64.0
2348,65.0,0.0,90.0,2.0,64.0
2349,69.0,0.0,90.0,2.0,64.0
2350,60.0,0.0,60.0,3.0,64.0
2351,72.0,0.0,60.0,2.0,64.0
2352,69.0,420.0,60.0,2.0,64.0
2353,57.0,0.0,60.0,3.0,64.0
2354,72.0,0.0,240.0,2.0,64.0
2355,69.0,0.0,240.0,2.0,64.0
2356,60.0,0.0,240.0,3.0,64.0
2357,48.0,0.0,120.0,13.0,64.0
2358,50.0,0.0,120.0,13.0,64.0
2359,60.0,30.0,30.0,3.0,64.0
2360,57.0,30.0,15.0,3.0,64.0
2361,72.0,0.0,30.0,2.0,64.0
2362,69.0,0.0,30.0,2.0,64.0
2363,58.0,0.0,30.0,3.0,64.0
2364,55.0,0.0,30.0,3.0,64.0
2365,67.0,0.0,30.0,2.0,64.0
2366,70.0,30.0,30.0,2.0,64.0
2367,60.0,0.0,30.0,3.0,64.0
2368,57.0,0.0,30.0,3.0,64.0
2369,72.0,0.0,30.0,2.0,64.0
2370,69.0,30.0,30.0,2.0,64.0
2371,58.0,0.0,30.0,3.0,64.0
2372,67.0,0.0,30.0,2.0,64.0
2373,70.0,30.0,30.0,2.0,64.0
2374,55.0,0.0,30.0,3.0,64.0
2375,60.0,0.0,30.0,3.0,64.0
2376,57.0,0.0,30.0,3.0,64.0
2377,52.0,0.0,120.0,13.0,64.0
2378,69.0,0.0,30.0,2.0,64.0
2379,72.0,30.0,30.0,2.0,64.0
2380,55.0,0.0,30.0,3.0,64.0
2381,58.0,30.0,30.0,3.0,64.0
2382,67.0,0.0,30.0,2.0,64.0
2383,70.0,0.0,30.0,2.0,64.0
2384,69.0,0.0,30.0,2.0,64.0
2385,72.0,0.0,30.0,2.0,64.0
2386,60.0,0.0,30.0,3.0,64.0
2387,57.0,30.0,30.0,3.0,64.0
2388,67.0,0.0,30.0,2.0,64.0
2389,55.0,0.0,30.0,3.0,64.0
2390,58.0,72.0,30.0,3.0,64.0
2391,70.0,0.0,30.0,2.0,64.0
2392,53.0,120.0,60.0,13.0,64.0
2393,69.0,0.0,180.0,2.0,64.0
2394,53.0,120.0,180.0,3.0,64.0
2395,57.0,0.0,180.0,3.0,64.0
2396,65.0,0.0,180.0,2.0,64.0
2397,57.0,0.0,60.0,13.0,64.0
2398,60.0,120.0,60.0,13.0,64.0
2399,57.0,144.0,60.0,13.0,64.0
2400,53.0,24.0,180.0,13.0,64.0
2401,65.0,96.0,90.0,12.0,64.0
2402,53.0,0.0,2820.0,4.0,64.0
2403,41.0,6.0,2820.0,4.0,64.0
2404,65.0,120.0,90.0,12.0,64.0
2405,65.0,120.0,90.0,12.0,64.0
2406,65.0,120.0,90.0,12.0,64.0
2407,65.0,120.0,90.0,12.0,64.0
2408,65.0,120.0,90.0,12.0,64.0
2409,65.0,120.0,90.0,12.0,64.0
2410,65.0,54.0,90.0,12.0,64.0
2411,69.0,0.0,30.0,10.0,64.0
2412,65.0,99.0,90.0,12.0,64.0
2413,65.0,30.0,30.0,11.0,64.0
2414,70.0,0.0,30.0,10.0,64.0
2415,67.0,18.0,30.0,11.0,64.0
2416,72.0,21.0,120.0,10.0,64.0
2417,69.0,0.0,120.0,11.0,64.0
2418,65.0,120.0,90.0,12.0,64.0
2419,70.0,120.0,90.0,10.0,64.0
2420,65.0,0.0,90.0,12.0,64.0
2421,67.0,0.0,90.0,11.0,64.0
2422,69.0,0.0,90.0,10.0,64.0
2423,65.0,0.0,90.0,12.0,64.0
2424,65.0,72.0,90.0,11.0,64.0
2425,65.0,99.0,90.0,12.0,64.0
2426,65.0,0.0,30.0,11.0,64.0
2427,69.0,30.0,30.0,10.0,64.0
2428,70.0,18.0,30.0,10.0,64.0
2429,67.0,0.0,30.0,11.0,64.0
2430,72.0,21.0,120.0,10.0,64.0
2431,69.0,0.0,120.0,11.0,64.0
2432,65.0,120.0,90.0,12.0,64.0
2433,67.0,0.0,90.0,11.0,64.0
2434,70.0,120.0,90.0,10.0,64.0
2435,65.0,0.0,90.0,12.0,64.0
2436,65.0,0.0,90.0,11.0,64.0
2437,69.0,0.0,90.0,10.0,64.0
2438,65.0,72.0,90.0,12.0,64.0
2439,65.0,99.0,90.0,12.0,64.0
2440,74.0,0.0,30.0,10.0,64.0
2441,70.0,30.0,30.0,11.0,64.0
2442,76.0,0.0,30.0,10.0,64.0
2443,72.0,18.0,30.0,11.0,64.0
2444,77.0,0.0,120.0,10.0,64.0
2445,74.0,21.0,120.0,11.0,64.0
2446,65.0,120.0,90.0,12.0,64.0
2447,74.0,78.0,240.0,11.0,64.0
2448,65.0,120.0,90.0,12.0,64.0
2449,65.0,42.0,90.0,12.0,64.0
2450,74.0,0.0,570.0,11.0,64.0
2451,65.0,120.0,90.0,12.0,64.0
2452,65.0,42.0,90.0,12.0,64.0
2453,65.0,114.0,90.0,12.0,64.0
2454,77.0,78.0,15.0,10.0,64.0
2455,65.0,120.0,90.0,12.0,64.0
2456,65.0,42.0,150.0,12.0,64.0
2457,72.0,120.0,90.0,11.0,64.0
2458,76.0,0.0,90.0,10.0,64.0
2459,74.0,0.0,90.0,10.0,64.0
2460,70.0,120.0,90.0,11.0,64.0
2461,72.0,120.0,90.0,10.0,64.0
2462,69.0,0.0,90.0,11.0,64.0
2463,67.0,0.0,90.0,11.0,64.0
2464,70.0,120.0,90.0,10.0,64.0
2465,69.0,120.0,90.0,10.0,64.0
2466,65.0,0.0,90.0,11.0,64.0
2467,64.0,120.0,90.0,11.0,64.0
2468,67.0,0.0,90.0,10.0,64.0
2469,65.0,120.0,90.0,10.0,64.0
2470,62.0,0.0,90.0,11.0,64.0
2471,60.0,0.0,90.0,11.0,64.0
2472,36.0,156.0,480.0,14.0,64.0
2473,64.0,120.0,90.0,10.0,64.0
2474,48.0,0.0,480.0,13.0,64.0
2475,58.0,0.0,90.0,11.0,64.0
2476,62.0,120.0,90.0,10.0,64.0
2477,60.0,120.0,90.0,10.0,64.0
2478,57.0,0.0,90.0,11.0,64.0
2479,58.0,42.0,90.0,10.0,64.0
2480,55.0,0.0,90.0,11.0,64.0
2481,41.0,0.0,180.0,14.0,64.0
2482,57.0,0.0,150.0,10.0,64.0
2483,53.0,288.0,180.0,13.0,64.0
2484,53.0,36.0,150.0,11.0,64.0
2485,77.0,0.0,240.0,0.0,64.0
2486,81.0,0.0,240.0,0.0,64.0
2487,65.0,96.0,240.0,1.0,64.0
2488,69.0,0.0,240.0,1.0,64.0
2489,76.0,384.0,90.0,0.0,64.0
2490,79.0,0.0,90.0,0.0,64.0
2491,64.0,0.0,90.0,1.0,64.0
2492,67.0,0.0,90.0,1.0,64.0
2493,79.0,96.0,240.0,0.0,64.0
2494,82.0,0.0,240.0,0.0,64.0
2495,70.0,0.0,240.0,1.0,64.0
2496,67.0,0.0,240.0,1.0,64.0
2497,65.0,204.0,90.0,1.0,64.0
2498,69.0,0.0,90.0,1.0,64.0
2499,81.0,0.0,90.0,0.0,64.0
2500,77.0,0.0,90.0,0.0,64.0
2501,81.0,0.0,60.0,0.0,64.0
2502,84.0,378.0,60.0,0.0,64.0
2503,72.0,0.0,60.0,1.0,64.0
2504,69.0,0.0,60.0,1.0,64.0
2505,81.0,0.0,240.0,0.0,64.0
2506,60.0,0.0,90.0,11.0,64.0
2507,48.0,0.0,90.0,12.0,64.0
2508,72.0,42.0,90.0,10.0,64.0
2509,62.0,12.0,90.0,11.0,64.0
2510,72.0,0.0,15.0,1.0,64.0
2511,69.0,0.0,15.0,1.0,64.0
2512,50.0,0.0,90.0,12.0,64.0
2513,74.0,0.0,90.0,10.0,64.0
2514,81.0,0.0,30.0,0.0,64.0
2515,84.0,30.0,15.0,0.0,64.0
2516,67.0,0.0,30.0,1.0,64.0
2517,70.0,18.0,30.0,1.0,64.0
2518,79.0,0.0,30.0,0.0,64.0
2519,82.0,0.0,30.0,0.0,64.0
2520,84.0,0.0,30.0,0.0,64.0
2521,81.0,0.0,30.0,0.0,64.0
2522,69.0,30.0,30.0,1.0,64.0
2523,72.0,0.0,30.0,1.0,64.0
2524,82.0,0.0,30.0,0.0,64.0
2525,79.0,30.0,30.0,0.0,64.0
2526,67.0,0.0,30.0,1.0,64.0
2527,70.0,0.0,30.0,1.0,64.0
2528,52.0,0.0,90.0,12.0,64.0
2529,64.0,12.0,90.0,11.0,64.0
2530,76.0,0.0,90.0,10.0,64.0
2531,69.0,0.0,30.0,1.0,64.0
2532,72.0,30.0,30.0,1.0,64.0
2533,81.0,0.0,30.0,0.0,64.0
2534,84.0,0.0,30.0,0.0,64.0
2535,79.0,0.0,30.0,0.0,64.0
2536,82.0,18.0,30.0,0.0,64.0
2537,70.0,0.0,30.0,1.0,64.0
2538,67.0,0.0,30.0,1.0,64.0
2539,72.0,0.0,30.0,1.0,64.0
2540,69.0,0.0,30.0,1.0,64.0
2541,84.0,0.0,30.0,0.0,64.0
2542,81.0,30.0,30.0,0.0,64.0
2543,67.0,78.0,30.0,1.0,64.0
2544,79.0,0.0,30.0,0.0,64.0
2545,70.0,0.0,30.0,1.0,64.0
2546,82.0,0.0,30.0,0.0,64.0
2547,77.0,114.0,90.0,10.0,64.0
2548,81.0,0.0,180.0,0.0,64.0
2549,53.0,0.0,90.0,12.0,64.0
2550,77.0,0.0,180.0,0.0,64.0
2551,65.0,0.0,180.0,1.0,64.0
2552,65.0,0.0,90.0,11.0,64.0
2553,69.0,6.0,180.0,1.0,64.0
2554,79.0,0.0,90.0,10.0,64.0
2555,55.0,0.0,90.0,12.0,64.0
2556,67.0,120.0,90.0,11.0,64.0
2557,81.0,120.0,90.0,10.0,64.0
2558,57.0,0.0,90.0,12.0,64.0
2559,69.0,0.0,90.0,11.0,64.0
2560,70.0,0.0,90.0,11.0,64.0
2561,82.0,0.0,90.0,10.0,64.0
2562,58.0,138.0,90.0,12.0,64.0
2563,84.0,0.0,120.0,10.0,64.0
2564,72.0,0.0,120.0,11.0,64.0
2565,69.0,0.0,1860.0,1.0,64.0
2566,48.0,24.0,90.0,15.0,64.0
2567,36.0,0.0,90.0,15.0,64.0
2568,72.0,0.0,1860.0,1.0,64.0
2569,84.0,0.0,1860.0,0.0,64.0
2570,81.0,6.0,1860.0,0.0,64.0
2571,60.0,78.0,120.0,12.0,64.0
2572,69.0,138.0,90.0,11.0,64.0
2573,57.0,0.0,90.0,12.0,64.0
2574,81.0,0.0,90.0,10.0,64.0
2575,53.0,102.0,90.0,15.0,64.0
2576,41.0,0.0,90.0,15.0,64.0
2577,57.0,0.0,90.0,12.0,64.0
2578,69.0,0.0,90.0,11.0,64.0
2579,81.0,120.0,90.0,10.0,64.0
2580,45.0,0.0,90.0,15.0,64.0
2581,57.0,102.0,90.0,15.0,64.0
2582,53.0,0.0,90.0,12.0,64.0
2583,65.0,0.0,90.0,11.0,64.0
2584,77.0,18.0,90.0,10.0,64.0
2585,81.0,120.0,90.0,10.0,64.0
2586,57.0,0.0,90.0,12.0,64.0
2587,69.0,0.0,90.0,11.0,64.0
2588,53.0,0.0,90.0,12.0,64.0
2589,65.0,0.0,90.0,11.0,64.0
2590,77.0,120.0,90.0,10.0,64.0
2591,60.0,138.0,90.0,11.0,64.0
2592,72.0,0.0,90.0,10.0,64.0
2593,48.0,0.0,90.0,12.0,64.0
2594,60.0,0.0,120.0,12.0,64.0
2595,72.0,78.0,120.0,11.0,64.0
2596,84.0,0.0,120.0,10.0,64.0
2597,36.0,0.0,90.0,15.0,64.0
2598,48.0,24.0,90.0,15.0,64.0
2599,57.0,138.0,90.0,12.0,64.0
2600,81.0,0.0,90.0,10.0,64.0
2601,69.0,0.0,90.0,11.0,64.0
2602,41.0,102.0,90.0,15.0,64.0
2603,53.0,0.0,90.0,15.0,64.0
2604,57.0,0.0,90.0,12.0,64.0
2605,81.0,0.0,90.0,10.0,64.0
2606,69.0,120.0,90.0,11.0,64.0
2607,77.0,18.0,90.0,10.0,64.0
2608,65.0,0.0,90.0,11.0,64.0
2609,57.0,0.0,90.0,15.0,64.0
2610,45.0,102.0,90.0,15.0,64.0
2611,53.0,0.0,90.0,12.0,64.0
2612,69.0,120.0,90.0,11.0,64.0
2613,57.0,0.0,90.0,12.0,64.0
2614,81.0,0.0,90.0,10.0,64.0
2615,77.0,0.0,90.0,10.0,64.0
2616,53.0,0.0,90.0,12.0,64.0
2617,65.0,114.0,90.0,11.0,64.0
2618,48.0,0.0,90.0,12.0,64.0
2619,72.0,0.0,90.0,10.0,64.0
2620,60.0,138.0,90.0,11.0,64.0
2621,82.0,0.0,120.0,10.0,64.0
2622,48.0,0.0,90.0,15.0,64.0
2623,36.0,24.0,90.0,15.0,64.0
2624,58.0,0.0,120.0,12.0,64.0
2625,70.0,0.0,1860.0,1.0,64.0
2626,67.0,0.0,1860.0,1.0,64.0
2627,70.0,78.0,120.0,11.0,64.0
2628,79.0,6.0,1860.0,0.0,64.0
2629,82.0,0.0,1860.0,0.0,64.0
2630,67.0,0.0,90.0,11.0,64.0
2631,55.0,0.0,90.0,12.0,64.0
2632,79.0,138.0,90.0,10.0,64.0
2633,40.0,0.0,90.0,15.0,64.0
2634,52.0,102.0,90.0,15.0,64.0
2635,67.0,120.0,90.0,11.0,64.0
2636,79.0,0.0,90.0,10.0,64.0
2637,55.0,0.0,90.0,12.0,64.0
2638,43.0,102.0,90.0,15.0,64.0
2639,64.0,0.0,90.0,11.0,64.0
2640,76.0,18.0,90.0,10.0,64.0
2641,52.0,0.0,90.0,12.0,64.0
2642,55.0,0.0,90.0,15.0,64.0
2643,79.0,120.0,90.0,10.0,64.0
2644,67.0,0.0,90.0,11.0,64.0
2645,55.0,0.0,90.0,12.0,64.0
2646,76.0,0.0,90.0,10.0,64.0
2647,52.0,0.0,90.0,12.0,64.0
2648,64.0,120.0,90.0,11.0,64.0
2649,60.0,138.0,90.0,11.0,64.0
2650,48.0,0.0,90.0,12.0,64.0
2651,72.0,0.0,90.0,10.0,64.0
2652,36.0,0.0,90.0,15.0,64.0
2653,70.0,78.0,120.0,11.0,64.0
2654,48.0,24.0,90.0,15.0,64.0
2655,82.0,0.0,120.0,10.0,64.0
2656,58.0,0.0,120.0,12.0,64.0
2657,67.0,0.0,90.0,11.0,64.0
2658,79.0,0.0,90.0,10.0,64.0
2659,55.0,138.0,90.0,12.0,64.0
2660,52.0,102.0,90.0,15.0,64.0
2661,40.0,0.0,90.0,15.0,64.0
2662,55.0,0.0,90.0,12.0,64.0
2663,79.0,120.0,90.0,10.0,64.0
2664,67.0,0.0,90.0,11.0,64.0
2665,55.0,0.0,90.0,15.0,64.0
2666,43.0,102.0,90.0,15.0,64.0
2667,52.0,0.0,90.0,12.0,64.0
2668,64.0,0.0,90.0,11.0,64.0
2669,76.0,18.0,90.0,10.0,64.0
2670,67.0,0.0,90.0,11.0,64.0
2671,79.0,0.0,90.0,10.0,64.0
2672,55.0,120.0,90.0,12.0,64.0
2673,76.0,0.0,90.0,10.0,64.0
2674,52.0,114.0,90.0,12.0,64.0
2675,64.0,0.0,90.0,11.0,64.0
2676,60.0,0.0,90.0,11.0,64.0
2677,72.0,0.0,90.0,10.0,64.0
2678,48.0,138.0,90.0,12.0,64.0
2679,56.0,6.0,1860.0,3.0,64.0
2680,60.0,0.0,1860.0,3.0,64.0
2681,36.0,24.0,90.0,15.0,64.0
2682,48.0,0.0,90.0,15.0,64.0
2683,68.0,0.0,1860.0,2.0,64.0
2684,72.0,0.0,1860.0,2.0,64.0
2685,77.0,0.0,180.0,0.0,64.0
2686,72.0,0.0,120.0,11.0,64.0
2687,60.0,72.0,120.0,12.0,64.0
2688,65.0,0.0,180.0,1.0,64.0
2689,68.0,0.0,180.0,1.0,64.0
2690,84.0,0.0,120.0,10.0,64.0
2691,80.0,6.0,180.0,0.0,64.0
2692,68.0,138.0,90.0,11.0,64.0
2693,80.0,0.0,90.0,10.0,64.0
2694,56.0,0.0,90.0,12.0,64.0
2695,53.0,0.0,90.0,15.0,64.0
2696,41.0,102.0,90.0,15.0,64.0
2697,68.0,0.0,90.0,11.0,64.0
2698,56.0,120.0,90.0,12.0,64.0
2699,80.0,0.0,90.0,10.0,64.0
2700,53.0,18.0,90.0,12.0,64.0
2701,65.0,0.0,90.0,11.0,64.0
2702,56.0,0.0,90.0,15.0,64.0
2703,77.0,0.0,90.0,10.0,64.0
2704,44.0,102.0,90.0,15.0,64.0
2705,68.0,0.0,90.0,11.0,64.0
2706,56.0,120.0,90.0,12.0,64.0
2707,80.0,0.0,90.0,10.0,64.0
2708,77.0,0.0,90.0,10.0,64.0
2709,53.0,0.0,90.0,12.0,64.0
2710,65.0,120.0,90.0,11.0,64.0
2711,72.0,138.0,90.0,10.0,64.0
2712,60.0,0.0,90.0,11.0,64.0
2713,48.0,0.0,90.0,12.0,64.0
2714,36.0,24.0,90.0,15.0,64.0
2715,60.0,0.0,120.0,12.0,64.0
2716,72.0,78.0,120.0,11.0,64.0
2717,48.0,0.0,90.0,15.0,64.0
2718,84.0,0.0,120.0,10.0,64.0
2719,80.0,0.0,90.0,10.0,64.0
2720,68.0,0.0,90.0,11.0,64.0
2721,56.0,138.0,90.0,12.0,64.0
2722,41.0,0.0,90.0,15.0,64.0
2723,53.0,102.0,90.0,15.0,64.0
2724,68.0,0.0,90.0,11.0,64.0
2725,80.0,0.0,90.0,10.0,64.0
2726,56.0,120.0,90.0,12.0,64.0
2727,56.0,0.0,90.0,15.0,64.0
2728,77.0,0.0,90.0,10.0,64.0
2729,53.0,18.0,90.0,12.0,64.0
2730,44.0,102.0,90.0,15.0,64.0
2731,65.0,0.0,90.0,11.0,64.0
2732,80.0,120.0,90.0,10.0,64.0
2733,56.0,0.0,90.0,12.0,64.0
2734,68.0,0.0,90.0,11.0,64.0
2735,77.0,0.0,90.0,10.0,64.0
2736,53.0,0.0,90.0,12.0,64.0
2737,65.0,114.0,90.0,11.0,64.0
2738,48.0,0.0,90.0,12.0,64.0
2739,72.0,138.0,90.0,10.0,64.0
2740,60.0,0.0,90.0,11.0,64.0
2741,58.0,78.0,120.0,12.0,64.0
2742,70.0,0.0,120.0,11.0,64.0
2743,36.0,24.0,90.0,15.0,64.0
2744,48.0,0.0,90.0,15.0,64.0
2745,70.0,6.0,1860.0,2.0,64.0
2746,82.0,0.0,120.0,10.0,64.0
2747,67.0,0.0,1860.0,2.0,64.0
2748,58.0,0.0,1860.0,3.0,64.0
2749,55.0,0.0,1860.0,3.0,64.0
2750,67.0,0.0,90.0,11.0,64.0
2751,55.0,0.0,90.0,12.0,64.0
2752,79.0,138.0,90.0,10.0,64.0
2753,52.0,102.0,90.0,15.0,64.0
2754,40.0,0.0,90.0,15.0,64.0
2755,67.0,0.0,90.0,11.0,64.0
2756,55.0,0.0,90.0,12.0,64.0
2757,79.0,120.0,90.0,10.0,64.0
2758,76.0,18.0,90.0,10.0,64.0
2759,64.0,0.0,90.0,11.0,64.0
2760,55.0,102.0,90.0,15.0,64.0
2761,43.0,0.0,90.0,15.0,64.0
2762,52.0,0.0,90.0,12.0,64.0
2763,55.0,0.0,90.0,12.0,64.0
2764,79.0,0.0,90.0,10.0,64.0
2765,67.0,120.0,90.0,11.0,64.0
2766,64.0,120.0,90.0,11.0,64.0
2767,76.0,0.0,90.0,10.0,64.0
2768,52.0,0.0,90.0,12.0,64.0
2769,60.0,138.0,90.0,11.0,64.0
2770,48.0,0.0,90.0,12.0,64.0
2771,72.0,0.0,90.0,10.0,64.0
2772,58.0,78.0,120.0,12.0,64.0
2773,70.0,0.0,120.0,11.0,64.0
2774,48.0,24.0,90.0,15.0,64.0
2775,82.0,0.0,120.0,10.0,64.0
2776,36.0,0.0,90.0,15.0,64.0
2777,79.0,0.0,90.0,10.0,64.0
2778,55.0,0.0,90.0,12.0,64.0
2779,67.0,138.0,90.0,11.0,64.0
2780,40.0,102.0,90.0,15.0,64.0
2781,52.0,0.0,90.0,15.0,64.0
2782,67.0,0.0,90.0,11.0,64.0
2783,55.0,0.0,90.0,12.0,64.0
2784,79.0,120.0,90.0,10.0,64.0
2785,76.0,0.0,90.0,10.0,64.0
2786,43.0,102.0,90.0,15.0,64.0
2787,52.0,0.0,90.0,12.0,64.0
2788,55.0,0.0,90.0,15.0,64.0
2789,64.0,18.0,90.0,11.0,64.0
2790,67.0,0.0,90.0,11.0,64.0
2791,79.0,0.0,90.0,10.0,64.0
2792,55.0,120.0,90.0,12.0,64.0
2793,76.0,114.0,90.0,10.0,64.0
2794,64.0,0.0,90.0,11.0,64.0
2795,52.0,0.0,90.0,12.0,64.0
2796,72.0,0.0,90.0,10.0,64.0
2797,48.0,90.0,90.0,12.0,64.0
2798,60.0,0.0,90.0,11.0,64.0
2799,65.0,60.0,60.0,11.0,64.0
2800,65.0,0.0,390.0,0.0,64.0
2801,72.0,0.0,60.0,11.0,64.0
2802,60.0,0.0,390.0,4.0,64.0
2803,57.0,0.0,180.0,3.0,64.0
2804,65.0,24.0,390.0,1.0,64.0
2805,53.0,0.0,180.0,3.0,64.0
2806,53.0,0.0,390.0,4.0,64.0
2807,69.0,0.0,60.0,10.0,64.0
2808,77.0,0.0,60.0,10.0,64.0
2809,41.0,36.0,180.0,6.0,64.0
2810,65.0,0.0,180.0,5.0,64.0
2811,45.0,0.0,180.0,12.0,64.0
2812,65.0,12.0,180.0,2.0,64.0
2813,69.0,0.0,180.0,2.0,64.0
2814,65.0,0.0,60.0,11.0,64.0
2815,69.0,0.0,60.0,10.0,64.0
2816,77.0,0.0,60.0,10.0,64.0
2817,72.0,60.0,60.0,11.0,64.0
2818,77.0,0.0,60.0,10.0,64.0
2819,69.0,0.0,60.0,10.0,64.0
2820,72.0,12.0,60.0,11.0,64.0
2821,65.0,0.0,60.0,11.0,64.0
2822,72.0,0.0,60.0,11.0,64.0
2823,69.0,60.0,60.0,10.0,64.0
2824,77.0,0.0,60.0,10.0,64.0
2825,65.0,0.0,60.0,11.0,64.0
2826,65.0,0.0,60.0,11.0,64.0
2827,72.0,0.0,60.0,11.0,64.0
2828,57.0,48.0,180.0,2.0,64.0
2829,65.0,0.0,180.0,2.0,64.0
2830,77.0,60.0,60.0,10.0,64.0
2831,69.0,0.0,60.0,10.0,64.0
2832,72.0,0.0,60.0,11.0,64.0
2833,65.0,36.0,60.0,11.0,64.0
2834,69.0,0.0,60.0,10.0,64.0
2835,77.0,0.0,60.0,10.0,64.0
2836,69.0,0.0,60.0,10.0,64.0
2837,77.0,0.0,60.0,10.0,64.0
2838,65.0,0.0,60.0,11.0,64.0
2839,72.0,12.0,60.0,11.0,64.0
2840,69.0,0.0,60.0,10.0,64.0
2841,77.0,60.0,60.0,10.0,64.0
2842,65.0,0.0,60.0,11.0,64.0
2843,72.0,0.0,60.0,11.0,64.0
2844,60.0,0.0,180.0,4.0,64.0
2845,69.0,0.0,60.0,10.0,64.0
2846,77.0,0.0,60.0,10.0,64.0
2847,72.0,0.0,60.0,11.0,64.0
2848,57.0,12.0,180.0,2.0,64.0
2849,65.0,0.0,180.0,2.0,64.0
2850,53.0,36.0,180.0,4.0,64.0
2851,65.0,60.0,60.0,11.0,64.0
2852,65.0,0.0,180.0,0.0,64.0
2853,65.0,0.0,180.0,1.0,64.0
2854,65.0,0.0,60.0,11.0,64.0
2855,72.0,0.0,60.0,11.0,64.0
2856,69.0,0.0,60.0,10.0,64.0
2857,77.0,60.0,60.0,10.0,64.0
2858,72.0,0.0,60.0,11.0,64.0
2859,69.0,12.0,60.0,10.0,64.0
2860,77.0,0.0,60.0,10.0,64.0
2861,65.0,0.0,60.0,11.0,64.0
2862,69.0,60.0,60.0,10.0,64.0
2863,72.0,0.0,60.0,11.0,64.0
2864,77.0,0.0,60.0,10.0,64.0
2865,65.0,0.0,60.0,11.0,64.0
2866,60.0,0.0,180.0,4.0,64.0
2867,72.0,0.0,60.0,11.0,64.0
2868,65.0,0.0,60.0,11.0,64.0
2869,57.0,12.0,180.0,2.0,64.0
2870,65.0,0.0,180.0,1.0,64.0
2871,65.0,0.0,180.0,2.0,64.0
2872,53.0,36.0,180.0,4.0,64.0
2873,77.0,0.0,60.0,10.0,64.0
2874,69.0,60.0,60.0,10.0,64.0
2875,65.0,0.0,180.0,0.0,64.0
2876,65.0,0.0,60.0,11.0,64.0
2877,77.0,60.0,60.0,10.0,64.0
2878,69.0,0.0,60.0,10.0,64.0
2879,72.0,0.0,60.0,11.0,64.0
2880,72.0,0.0,60.0,11.0,64.0
2881,77.0,0.0,60.0,10.0,64.0
2882,69.0,0.0,60.0,10.0,64.0
2883,65.0,12.0,60.0,11.0,64.0
2884,77.0,0.0,60.0,10.0,64.0
2885,69.0,60.0,60.0,10.0,64.0
2886,72.0,0.0,60.0,11.0,64.0
2887,65.0,0.0,60.0,11.0,64.0
2888,72.0,42.0,60.0,11.0,64.0
2889,65.0,0.0,60.0,11.0,64.0
2890,41.0,0.0,390.0,3.0,64.0
2891,60.0,0.0,780.0,4.0,64.0
2892,65.0,18.0,90.0,0.0,64.0
2893,53.0,0.0,780.0,4.0,64.0
2894,29.0,0.0,390.0,14.0,64.0
2895,65.0,0.0,90.0,1.0,64.0
2896,57.0,0.0,780.0,2.0,64.0
2897,65.0,0.0,780.0,2.0,64.0
2898,41.0,21.0,390.0,13.0,64.0
2899,77.0,0.0,60.0,10.0,64.0
2900,69.0,0.0,60.0,10.0,64.0
2901,53.0,0.0,390.0,12.0,64.0
2902,65.0,0.0,60.0,11.0,64.0
2903,72.0,0.0,60.0,11.0,64.0
2904,77.0,57.0,60.0,10.0,64.0
2905,69.0,0.0,60.0,10.0,64.0
2906,72.0,0.0,60.0,11.0,64.0
2907,69.0,0.0,60.0,10.0,64.0
2908,77.0,0.0,60.0,10.0,64.0
2909,65.0,57.0,60.0,11.0,64.0
2910,67.0,0.0,60.0,1.0,64.0
2911,67.0,3.0,60.0,0.0,64.0
2912,77.0,0.0,60.0,10.0,64.0
2913,65.0,0.0,60.0,11.0,64.0
2914,69.0,0.0,60.0,0.0,64.0
2915,69.0,57.0,60.0,10.0,64.0
2916,69.0,3.0,60.0,1.0,64.0
2917,72.0,0.0,60.0,11.0,64.0
2918,69.0,57.0,60.0,10.0,64.0
2919,77.0,0.0,60.0,10.0,64.0
2920,70.0,3.0,60.0,0.0,64.0
2921,70.0,0.0,60.0,1.0,64.0
2922,72.0,0.0,60.0,11.0,64.0
2923,65.0,0.0,60.0,11.0,64.0
2924,69.0,0.0,60.0,10.0,64.0
2925,77.0,0.0,60.0,10.0,64.0
2926,72.0,0.0,60.0,11.0,64.0
2927,65.0,36.0,60.0,11.0,64.0
2928,72.0,0.0,60.0,0.0,64.0
2929,72.0,3.0,60.0,1.0,64.0
2930,77.0,0.0,60.0,10.0,64.0
2931,72.0,0.0,60.0,11.0,64.0
2932,65.0,57.0,60.0,11.0,64.0
2933,69.0,0.0,60.0,10.0,64.0
2934,74.0,3.0,60.0,1.0,64.0
2935,74.0,0.0,60.0,0.0,64.0
2936,76.0,3.0,60.0,1.0,64.0
2937,77.0,60.0,60.0,10.0,64.0
2938,76.0,0.0,60.0,0.0,64.0
2939,69.0,0.0,60.0,10.0,64.0
2940,72.0,0.0,60.0,11.0,64.0
2941,65.0,0.0,60.0,11.0,64.0
2942,53.0,0.0,180.0,12.0,64.0
2943,77.0,0.0,180.0,0.0,64.0
2944,77.0,0.0,180.0,1.0,64.0
2945,65.0,0.0,60.0,11.0,64.0
2946,72.0,60.0,60.0,11.0,64.0
2947,77.0,0.0,60.0,10.0,64.0
2948,41.0,0.0,180.0,13.0,64.0
2949,41.0,0.0,180.0,3.0,64.0
2950,29.0,48.0,180.0,14.0,64.0
2951,69.0,0.0,60.0,10.0,64.0
2952,69.0,0.0,60.0,10.0,64.0
2953,77.0,60.0,60.0,10.0,64.0
2954,72.0,0.0,60.0,11.0,64.0
2955,65.0,0.0,60.0,11.0,64.0
2956,72.0,0.0,60.0,11.0,64.0
2957,65.0,0.0,60.0,11.0,64.0
2958,69.0,0.0,60.0,10.0,64.0
2959,77.0,12.0,60.0,10.0,64.0
2960,69.0,0.0,60.0,10.0,64.0
2961,72.0,60.0,60.0,11.0,64.0
2962,65.0,0.0,60.0,11.0,64.0
2963,77.0,0.0,60.0,10.0,64.0
2964,69.0,0.0,60.0,10.0,64.0
2965,77.0,0.0,60.0,10.0,64.0
2966,29.0,48.0,180.0,14.0,64.0
2967,41.0,0.0,180.0,13.0,64.0
2968,41.0,0.0,180.0,3.0,64.0
2969,72.0,60.0,60.0,11.0,64.0
2970,65.0,0.0,60.0,11.0,64.0
2971,53.0,0.0,180.0,12.0,64.0
2972,72.0,60.0,60.0,11.0,64.0
2973,65.0,0.0,60.0,11.0,64.0
2974,69.0,0.0,60.0,10.0,64.0
2975,77.0,0.0,60.0,10.0,64.0
2976,65.0,12.0,60.0,11.0,64.0
2977,77.0,0.0,60.0,10.0,64.0
2978,69.0,0.0,60.0,10.0,64.0
2979,72.0,0.0,60.0,11.0,64.0
2980,69.0,0.0,60.0,10.0,64.0
2981,77.0,60.0,60.0,10.0,64.0
2982,65.0,0.0,60.0,11.0,64.0
2983,72.0,0.0,60.0,11.0,64.0
2984,41.0,0.0,90.0,3.0,64.0
2985,72.0,0.0,60.0,11.0,64.0
2986,65.0,0.0,60.0,11.0,64.0
2987,77.0,42.0,60.0,10.0,64.0
2988,69.0,0.0,60.0,10.0,64.0
2989,41.0,18.0,90.0,13.0,64.0
2990,65.0,21.0,390.0,2.0,64.0
2991,57.0,0.0,390.0,2.0,64.0
2992,41.0,0.0,180.0,6.0,64.0
2993,65.0,33.0,180.0,5.0,64.0
2994,53.0,0.0,90.0,12.0,64.0
2995,60.0,0.0,390.0,4.0,64.0
2996,29.0,0.0,90.0,14.0,64.0
2997,53.0,0.0,390.0,4.0,64.0
2998,69.0,0.0,390.0,0.0,64.0
2999,69.0,0.0,390.0,1.0,64.0
3000,77.0,0.0,60.0,10.0,64.0
3001,69.0,57.0,60.0,10.0,64.0
3002,65.0,0.0,60.0,11.0,64.0
3003,72.0,0.0,60.0,11.0,64.0
3004,43.0,0.0,60.0,13.0,64.0
3005,55.0,3.0,60.0,12.0,64.0
3006,65.0,0.0,60.0,11.0,64.0
3007,72.0,24.0,60.0,11.0,64.0
3008,69.0,0.0,60.0,10.0,64.0
3009,77.0,0.0,60.0,10.0,64.0
3010,43.0,0.0,60.0,3.0,64.0
3011,31.0,0.0,60.0,14.0,64.0
3012,33.0,0.0,60.0,14.0,64.0
3013,57.0,0.0,60.0,12.0,64.0
3014,72.0,0.0,60.0,11.0,64.0
3015,45.0,0.0,60.0,3.0,64.0
3016,45.0,3.0,60.0,13.0,64.0
3017,69.0,0.0,60.0,10.0,64.0
3018,77.0,57.0,60.0,10.0,64.0
3019,65.0,0.0,60.0,11.0,64.0
3020,46.0,3.0,60.0,13.0,64.0
3021,58.0,0.0,60.0,12.0,64.0
3022,69.0,0.0,60.0,10.0,64.0
3023,77.0,0.0,60.0,10.0,64.0
3024,65.0,57.0,60.0,11.0,64.0
3025,72.0,0.0,60.0,11.0,64.0
3026,46.0,0.0,60.0,3.0,64.0
3027,34.0,0.0,60.0,14.0,64.0
3028,36.0,0.0,60.0,14.0,64.0
3029,65.0,0.0,60.0,11.0,64.0
3030,60.0,3.0,60.0,12.0,64.0
3031,48.0,0.0,60.0,13.0,64.0
3032,48.0,0.0,60.0,3.0,64.0
3033,72.0,0.0,60.0,11.0,64.0
3034,77.0,36.0,60.0,10.0,64.0
3035,69.0,0.0,60.0,10.0,64.0
3036,72.0,0.0,60.0,11.0,64.0
3037,65.0,57.0,60.0,11.0,64.0
3038,38.0,3.0,60.0,14.0,64.0
3039,62.0,0.0,60.0,12.0,64.0
3040,77.0,0.0,60.0,10.0,64.0
3041,50.0,0.0,60.0,3.0,64.0
3042,69.0,0.0,60.0,10.0,64.0
3043,50.0,0.0,60.0,13.0,64.0
3044,52.0,0.0,60.0,3.0,64.0
3045,77.0,0.0,60.0,10.0,64.0
3046,52.0,0.0,60.0,13.0,64.0
3047,69.0,0.0,60.0,10.0,64.0
3048,40.0,3.0,60.0,14.0,64.0
3049,64.0,0.0,60.0,12.0,64.0
3050,72.0,0.0,60.0,11.0,64.0
3051,65.0,60.0,60.0,11.0,64.0
3052,60.0,0.0,180.0,4.0,64.0
3053,53.0,12.0,180.0,13.0,64.0
3054,69.0,0.0,180.0,0.0,64.0
3055,69.0,0.0,180.0,1.0,64.0
3056,77.0,0.0,60.0,10.0,64.0
3057,69.0,0.0,60.0,10.0,64.0
3058,53.0,36.0,180.0,4.0,64.0
3059,65.0,0.0,180.0,12.0,64.0
3060,41.0,0.0,180.0,14.0,64.0
3061,53.0,0.0,180.0,3.0,64.0
3062,57.0,0.0,180.0,2.0,64.0
3063,65.0,0.0,180.0,2.0,64.0
3064,72.0,0.0,60.0,11.0,64.0
3065,65.0,60.0,60.0,11.0,64.0
3066,69.0,0.0,60.0,10.0,64.0
3067,77.0,60.0,60.0,10.0,64.0
3068,72.0,0.0,60.0,11.0,64.0
3069,65.0,0.0,60.0,11.0,64.0
3070,77.0,0.0,60.0,10.0,64.0
3071,72.0,0.0,60.0,11.0,64.0
3072,65.0,12.0,60.0,11.0,64.0
3073,69.0,0.0,60.0,10.0,64.0
3074,65.0,60.0,60.0,11.0,64.0
3075,72.0,0.0,60.0,11.0,64.0
3076,69.0,0.0,60.0,10.0,64.0
3077,77.0,0.0,60.0,10.0,64.0
3078,65.0,60.0,60.0,11.0,64.0
3079,57.0,0.0,180.0,2.0,64.0
3080,72.0,0.0,60.0,11.0,64.0
3081,65.0,0.0,180.0,2.0,64.0
3082,69.0,0.0,180.0,1.0,64.0
3083,53.0,0.0,180.0,4.0,64.0
3084,60.0,36.0,180.0,4.0,64.0
3085,69.0,0.0,60.0,10.0,64.0
3086,69.0,12.0,180.0,0.0,64.0
3087,77.0,0.0,60.0,10.0,64.0
3088,65.0,0.0,60.0,11.0,64.0
3089,72.0,0.0,60.0,11.0,64.0
3090,69.0,60.0,60.0,10.0,64.0
3091,77.0,0.0,60.0,10.0,64.0
3092,65.0,12.0,60.0,11.0,64.0
3093,72.0,0.0,60.0,11.0,64.0
3094,69.0,0.0,60.0,10.0,64.0
3095,77.0,0.0,60.0,10.0,64.0
3096,69.0,0.0,60.0,10.0,64.0
3097,72.0,60.0,60.0,11.0,64.0
3098,77.0,0.0,60.0,10.0,64.0
3099,65.0,0.0,60.0,11.0,64.0
3100,65.0,0.0,780.0,2.0,64.0
3101,45.0,0.0,390.0,13.0,64.0
3102,69.0,0.0,90.0,1.0,64.0
3103,45.0,21.0,390.0,3.0,64.0
3104,60.0,0.0,780.0,4.0,64.0
3105,69.0,0.0,60.0,10.0,64.0
3106,53.0,0.0,780.0,4.0,64.0
3107,69.0,18.0,90.0,0.0,64.0
3108,65.0,0.0,60.0,11.0,64.0
3109,72.0,42.0,60.0,11.0,64.0
3110,57.0,0.0,390.0,12.0,64.0
3111,33.0,0.0,390.0,14.0,64.0
3112,77.0,0.0,60.0,10.0,64.0
3113,57.0,0.0,780.0,2.0,64.0
3114,77.0,0.0,60.0,10.0,64.0
3115,69.0,57.0,60.0,10.0,64.0
3116,72.0,0.0,60.0,11.0,64.0
3117,65.0,0.0,60.0,11.0,64.0
3118,69.0,0.0,60.0,10.0,64.0
3119,70.0,3.0,60.0,0.0,64.0
3120,72.0,0.0,60.0,11.0,64.0
3121,70.0,0.0,60.0,1.0,64.0
3122,65.0,0.0,60.0,11.0,64.0
3123,77.0,57.0,60.0,10.0,64.0
3124,72.0,0.0,60.0,11.0,64.0
3125,65.0,0.0,60.0,11.0,64.0
3126,77.0,57.0,60.0,10.0,64.0
3127,69.0,0.0,60.0,10.0,64.0
3128,72.0,3.0,60.0,1.0,64.0
3129,72.0,0.0,60.0,0.0,64.0
3130,74.0,0.0,60.0,1.0,64.0
3131,72.0,0.0,60.0,11.0,64.0
3132,65.0,0.0,60.0,11.0,64.0
3133,74.0,3.0,60.0,0.0,64.0
3134,69.0,0.0,60.0,10.0,64.0
3135,77.0,57.0,60.0,10.0,64.0
3136,69.0,0.0,60.0,10.0,64.0
3137,77.0,0.0,60.0,10.0,64.0
3138,76.0,0.0,60.0,0.0,64.0
3139,65.0,36.0,60.0,11.0,64.0
3140,72.0,0.0,60.0,11.0,64.0
3141,76.0,3.0,60.0,1.0,64.0
3142,77.0,0.0,60.0,10.0,64.0
3143,69.0,0.0,60.0,10.0,64.0
3144,65.0,0.0,60.0,11.0,64.0
3145,72.0,57.0,60.0,11.0,64.0
3146,77.0,3.0,60.0,0.0,64.0
3147,77.0,0.0,60.0,1.0,64.0
3148,65.0,0.0,60.0,11.0,64.0
3149,72.0,0.0,60.0,11.0,64.0
3150,79.0,3.0,60.0,0.0,64.0
3151,69.0,60.0,60.0,10.0,64.0
3152,79.0,0.0,60.0,1.0,64.0
3153,77.0,0.0,60.0,10.0,64.0
3154,69.0,0.0,60.0,10.0,64.0
3155,81.0,0.0,180.0,1.0,64.0
3156,65.0,0.0,60.0,11.0,64.0
3157,77.0,0.0,60.0,10.0,64.0
3158,72.0,60.0,60.0,11.0,64.0
3159,45.0,0.0,180.0,13.0,64.0
3160,33.0,0.0,180.0,14.0,64.0
3161,57.0,0.0,180.0,12.0,64.0
3162,45.0,48.0,180.0,3.0,64.0
3163,81.0,0.0,180.0,0.0,64.0
3164,69.0,0.0,60.0,10.0,64.0
3165,65.0,0.0,60.0,11.0,64.0
3166,72.0,60.0,60.0,11.0,64.0
3167,77.0,0.0,60.0,10.0,64.0
3168,65.0,0.0,60.0,11.0,64.0
3169,69.0,0.0,60.0,10.0,64.0
3170,77.0,0.0,60.0,10.0,64.0
3171,72.0,12.0,60.0,11.0,64.0
3172,72.0,0.0,60.0,11.0,64.0
3173,77.0,60.0,60.0,10.0,64.0
3174,65.0,0.0,60.0,11.0,64.0
3175,69.0,0.0,60.0,10.0,64.0
3176,77.0,0.0,60.0,10.0,64.0
3177,69.0,60.0,60.0,10.0,64.0
3178,45.0,0.0,180.0,13.0,64.0
3179,45.0,48.0,180.0,3.0,64.0
3180,33.0,0.0,180.0,14.0,64.0
3181,72.0,0.0,60.0,11.0,64.0
3182,65.0,0.0,60.0,11.0,64.0
3183,57.0,0.0,180.0,12.0,64.0
3184,65.0,60.0,60.0,11.0,64.0
3185,72.0,0.0,60.0,11.0,64.0
3186,77.0,0.0,60.0,10.0,64.0
3187,69.0,0.0,60.0,10.0,64.0
3188,77.0,0.0,60.0,10.0,64.0
3189,69.0,0.0,60.0,10.0,64.0
3190,65.0,12.0,60.0,11.0,64.0
3191,72.0,0.0,60.0,11.0,64.0
3192,69.0,0.0,60.0,10.0,64.0
3193,77.0,0.0,60.0,10.0,64.0
3194,65.0,60.0,60.0,11.0,64.0
3195,72.0,0.0,60.0,11.0,64.0
3196,77.0,0.0,60.0,10.0,64.0
3197,65.0,42.0,60.0,11.0,64.0
3198,45.0,0.0,90.0,3.0,64.0
3199,72.0,0.0,60.0,11.0,64.0
3200,65.0,0.0,180.0,5.0,64.0
3201,33.0,0.0,90.0,14.0,64.0
3202,41.0,33.0,180.0,6.0,64.0
3203,53.0,0.0,390.0,4.0,64.0
3204,69.0,0.0,60.0,10.0,64.0
3205,57.0,0.0,90.0,12.0,64.0
3206,72.0,0.0,390.0,1.0,64.0
3207,45.0,18.0,90.0,13.0,64.0
3208,57.0,21.0,390.0,2.0,64.0
3209,65.0,0.0,390.0,2.0,64.0
3210,60.0,0.0,390.0,4.0,64.0
3211,72.0,0.0,390.0,0.0,64.0
3212,77.0,0.0,60.0,10.0,64.0
3213,69.0,0.0,60.0,10.0,64.0
3214,72.0,0.0,60.0,11.0,64.0
3215,65.0,57.0,60.0,11.0,64.0
3216,46.0,0.0,60.0,3.0,64.0
3217,58.0,0.0,60.0,12.0,64.0
3218,72.0,0.0,60.0,11.0,64.0
3219,69.0,0.0,60.0,10.0,64.0
3220,34.0,3.0,60.0,14.0,64.0
3221,77.0,0.0,60.0,10.0,64.0
3222,46.0,0.0,60.0,13.0,64.0
3223,65.0,24.0,60.0,11.0,64.0
3224,36.0,0.0,60.0,14.0,64.0
3225,72.0,0.0,60.0,11.0,64.0
3226,48.0,3.0,60.0,3.0,64.0
3227,65.0,0.0,60.0,11.0,64.0
3228,77.0,0.0,60.0,10.0,64.0
3229,69.0,57.0,60.0,10.0,64.0
3230,48.0,0.0,60.0,13.0,64.0
3231,60.0,0.0,60.0,12.0,64.0
3232,69.0,0.0,60.0,10.0,64.0
3233,65.0,0.0,60.0,11.0,64.0
3234,50.0,0.0,60.0,3.0,64.0
3235,77.0,57.0,60.0,10.0,64.0
3236,38.0,0.0,60.0,14.0,64.0
3237,50.0,3.0,60.0,13.0,64.0
3238,62.0,0.0,60.0,12.0,64.0
3239,72.0,0.0,60.0,11.0,64.0
3240,52.0,0.0,60.0,3.0,64.0
3241,77.0,36.0,60.0,10.0,64.0
3242,52.0,3.0,60.0,13.0,64.0
3243,40.0,0.0,60.0,14.0,64.0
3244,64.0,0.0,60.0,12.0,64.0
3245,72.0,0.0,60.0,11.0,64.0
3246,65.0,0.0,60.0,11.0,64.0
3247,69.0,0.0,60.0,10.0,64.0
3248,41.0,0.0,60.0,14.0,64.0
3249,72.0,0.0,60.0,11.0,64.0
3250,53.0,3.0,60.0,3.0,64.0
3251,65.0,0.0,60.0,11.0,64.0
3252,53.0,0.0,60.0,13.0,64.0
3253,65.0,0.0,60.0,12.0,64.0
3254,77.0,0.0,60.0,10.0,64.0
3255,69.0,57.0,60.0,10.0,64.0
3256,43.0,0.0,60.0,14.0,64.0
3257,69.0,0.0,60.0,10.0,64.0
3258,77.0,0.0,60.0,10.0,64.0
3259,72.0,0.0,60.0,11.0,64.0
3260,65.0,60.0,60.0,11.0,64.0
3261,67.0,0.0,60.0,12.0,64.0
3262,55.0,3.0,60.0,3.0,64.0
3263,55.0,0.0,60.0,13.0,64.0
3264,72.0,0.0,180.0,0.0,64.0
3265,53.0,0.0,180.0,4.0,64.0
3266,60.0,36.0,180.0,4.0,64.0
3267,65.0,0.0,60.0,11.0,64.0
3268,57.0,0.0,180.0,13.0,64.0
3269,69.0,0.0,60.0,10.0,64.0
3270,77.0,0.0,60.0,10.0,64.0
3271,72.0,0.0,180.0,1.0,64.0
3272,69.0,0.0,180.0,12.0,64.0
3273,65.0,0.0,180.0,2.0,64.0
3274,45.0,12.0,180.0,14.0,64.0
3275,57.0,0.0,180.0,3.0,64.0
3276,72.0,60.0,60.0,11.0,64.0
3277,57.0,0.0,180.0,2.0,64.0
3278,77.0,0.0,60.0,10.0,64.0
3279,69.0,60.0,60.0,10.0,64.0
3280,72.0,0.0,60.0,11.0,64.0
3281,65.0,0.0,60.0,11.0,64.0
3282,72.0,0.0,60.0,11.0,64.0
3283,65.0,0.0,60.0,11.0,64.0
3284,77.0,0.0,60.0,10.0,64.0
3285,69.0,12.0,60.0,10.0,64.0
3286,77.0,0.0,60.0,10.0,64.0
3287,69.0,60.0,60.0,10.0,64.0
3288,65.0,0.0,60.0,11.0,64.0
3289,72.0,0.0,60.0,11.0,64.0
3290,57.0,0.0,180.0,2.0,64.0
3291,72.0,12.0,180.0,0.0,64.0
3292,69.0,0.0,60.0,10.0,64.0
3293,77.0,0.0,60.0,10.0,64.0
3294,60.0,0.0,180.0,4.0,64.0
3295,65.0,0.0,60.0,11.0,64.0
3296,72.0,60.0,60.0,11.0,64.0
3297,65.0,0.0,180.0,2.0,64.0
3298,53.0,36.0,180.0,4.0,64.0
3299,72.0,0.0,180.0,1.0,64.0
3300,65.0,0.0,60.0,11.0,64.0
3301,72.0,60.0,60.0,11.0,64.0
3302,77.0,0.0,60.0,10.0,64.0
3303,69.0,0.0,60.0,10.0,64.0
3304,77.0,0.0,60.0,10.0,64.0
3305,69.0,0.0,60.0,10.0,64.0
3306,65.0,12.0,60.0,11.0,64.0
3307,72.0,0.0,60.0,11.0,64.0
3308,72.0,0.0,60.0,11.0,64.0
3309,69.0,0.0,60.0,10.0,64.0
3310,65.0,0.0,60.0,11.0,64.0
3311,77.0,60.0,60.0,10.0,64.0
3312,36.0,0.0,390.0,14.0,64.0
3313,65.0,0.0,780.0,2.0,64.0
3314,72.0,0.0,90.0,0.0,64.0
3315,72.0,42.0,60.0,11.0,64.0
3316,60.0,0.0,780.0,4.0,64.0
3317,53.0,60.0,780.0,4.0,64.0
3318,57.0,0.0,780.0,2.0,64.0
3319,65.0,0.0,60.0,11.0,64.0
3320,60.0,0.0,390.0,12.0,64.0
3321,72.0,18.0,90.0,1.0,64.0
3322,69.0,0.0,60.0,10.0,64.0
3323,77.0,0.0,60.0,10.0,64.0
3324,48.0,21.0,390.0,13.0,64.0
3325,48.0,0.0,390.0,3.0,64.0
3326,69.0,0.0,60.0,10.0,64.0
3327,77.0,57.0,60.0,10.0,64.0
3328,65.0,0.0,60.0,11.0,64.0
3329,72.0,0.0,60.0,11.0,64.0
3330,72.0,0.0,60.0,11.0,64.0
3331,65.0,0.0,60.0,11.0,64.0
3332,69.0,57.0,60.0,10.0,64.0
3333,77.0,0.0,60.0,10.0,64.0
3334,74.0,0.0,60.0,0.0,64.0
3335,74.0,3.0,60.0,1.0,64.0
3336,65.0,57.0,60.0,11.0,64.0
3337,72.0,0.0,60.0,11.0,64.0
3338,76.0,0.0,60.0,1.0,64.0
3339,76.0,3.0,60.0,0.0,64.0
3340,69.0,0.0,60.0,10.0,64.0
3341,77.0,0.0,60.0,10.0,64.0
3342,72.0,0.0,60.0,11.0,64.0
3343,77.0,3.0,60.0,0.0,64.0
3344,77.0,57.0,60.0,10.0,64.0
3345,77.0,0.0,60.0,1.0,64.0
3346,69.0,0.0,60.0,10.0,64.0
3347,65.0,0.0,60.0,11.0,64.0
3348,79.0,3.0,60.0,0.0,64.0
3349,65.0,0.0,60.0,11.0,64.0
3350,72.0,0.0,60.0,11.0,64.0
3351,79.0,0.0,60.0,1.0,64.0
3352,77.0,0.0,60.0,10.0,64.0
3353,69.0,36.0,60.0,10.0,64.0
3354,72.0,0.0,60.0,11.0,64.0
3355,81.0,3.0,60.0,0.0,64.0
3356,65.0,0.0,60.0,11.0,64.0
3357,81.0,0.0,60.0,1.0,64.0
3358,77.0,57.0,60.0,10.0,64.0
3359,69.0,0.0,60.0,10.0,64.0
3360,69.0,0.0,60.0,10.0,64.0
3361,77.0,0.0,60.0,10.0,64.0
3362,82.0,0.0,60.0,1.0,64.0
3363,82.0,3.0,60.0,0.0,64.0
3364,72.0,0.0,60.0,11.0,64.0
3365,65.0,60.0,60.0,11.0,64.0
3366,69.0,0.0,60.0,10.0,64.0
3367,36.0,0.0,180.0,14.0,64.0
3368,65.0,0.0,60.0,11.0,64.0
3369,72.0,0.0,60.0,11.0,64.0
3370,84.0,0.0,180.0,1.0,64.0
3371,77.0,60.0,60.0,10.0,64.0
3372,84.0,0.0,180.0,0.0,64.0
3373,48.0,0.0,180.0,13.0,64.0
3374,60.0,48.0,180.0,12.0,64.0
3375,48.0,0.0,180.0,3.0,64.0
3376,77.0,0.0,60.0,10.0,64.0
3377,69.0,0.0,60.0,10.0,64.0
3378,65.0,0.0,60.0,11.0,64.0
3379,72.0,60.0,60.0,11.0,64.0
3380,72.0,0.0,60.0,11.0,64.0
3381,69.0,12.0,60.0,10.0,64.0
3382,65.0,0.0,60.0,11.0,64.0
3383,77.0,0.0,60.0,10.0,64.0
3384,65.0,0.0,60.0,11.0,64.0
3385,77.0,0.0,60.0,10.0,64.0
3386,69.0,0.0,60.0,10.0,64.0
3387,72.0,60.0,60.0,11.0,64.0
3388,48.0,0.0,180.0,13.0,64.0
3389,48.0,0.0,180.0,3.0,64.0
3390,65.0,0.0,60.0,11.0,64.0
3391,36.0,0.0,180.0,14.0,64.0
3392,77.0,0.0,60.0,10.0,64.0
3393,72.0,0.0,60.0,11.0,64.0
3394,60.0,48.0,180.0,12.0,64.0
3395,69.0,0.0,60.0,10.0,64.0
3396,69.0,60.0,60.0,10.0,64.0
3397,77.0,0.0,60.0,10.0,64.0
3398,65.0,0.0,60.0,11.0,64.0
3399,72.0,0.0,60.0,11.0,64.0
3400,69.0,12.0,60.0,10.0,64.0
3401,77.0,0.0,60.0,10.0,64.0
3402,72.0,0.0,60.0,11.0,64.0
3403,65.0,0.0,60.0,11.0,64.0
3404,77.0,60.0,60.0,10.0,64.0
3405,69.0,0.0,60.0,10.0,64.0
3406,72.0,0.0,60.0,11.0,64.0
3407,65.0,0.0,60.0,11.0,64.0
3408,77.0,42.0,60.0,11.0,64.0
3409,69.0,0.0,60.0,11.0,64.0
3410,41.0,0.0,180.0,6.0,64.0
3411,36.0,0.0,90.0,14.0,64.0
3412,65.0,33.0,180.0,5.0,64.0
3413,60.0,12.0,390.0,4.0,64.0
3414,84.0,9.0,150.0,0.0,64.0
3415,48.0,0.0,90.0,3.0,64.0
3416,53.0,0.0,390.0,4.0,64.0
3417,48.0,18.0,90.0,13.0,64.0
3418,60.0,0.0,90.0,12.0,64.0
3419,84.0,36.0,120.0,10.0,64.0
3420,69.0,0.0,60.0,11.0,64.0
3421,77.0,12.0,60.0,11.0,64.0
3422,69.0,0.0,60.0,11.0,64.0
3423,38.0,0.0,60.0,14.0,64.0
3424,50.0,0.0,60.0,13.0,64.0
3425,77.0,24.0,60.0,11.0,64.0
3426,62.0,3.0,60.0,12.0,64.0
3427,50.0,0.0,60.0,3.0,64.0
3428,64.0,0.0,60.0,12.0,64.0
3429,77.0,57.0,60.0,11.0,64.0
3430,69.0,0.0,60.0,11.0,64.0
3431,52.0,0.0,60.0,13.0,64.0
3432,40.0,0.0,60.0,14.0,64.0
3433,52.0,3.0,60.0,3.0,64.0
3434,81.0,24.0,120.0,10.0,64.0
3435,53.0,0.0,60.0,3.0,64.0
3436,65.0,0.0,60.0,12.0,64.0
3437,53.0,0.0,60.0,13.0,64.0
3438,41.0,3.0,60.0,14.0,64.0
3439,77.0,0.0,60.0,11.0,64.0
3440,69.0,57.0,60.0,11.0,64.0
3441,81.0,9.0,150.0,0.0,64.0
3442,69.0,12.0,60.0,11.0,64.0
3443,55.0,0.0,60.0,13.0,64.0
3444,43.0,0.0,60.0,14.0,64.0
3445,67.0,3.0,60.0,12.0,64.0
3446,55.0,0.0,60.0,3.0,64.0
3447,77.0,0.0,60.0,11.0,64.0
3448,57.0,0.0,60.0,3.0,64.0
3449,69.0,0.0,60.0,12.0,64.0
3450,45.0,0.0,60.0,14.0,64.0
3451,77.0,57.0,60.0,11.0,64.0
3452,57.0,3.0,60.0,13.0,64.0
3453,69.0,0.0,60.0,11.0,64.0
3454,69.0,60.0,60.0,11.0,64.0
3455,77.0,0.0,60.0,11.0,64.0
3456,70.0,0.0,60.0,12.0,64.0
3457,58.0,0.0,60.0,13.0,64.0
3458,46.0,3.0,60.0,14.0,64.0
3459,58.0,0.0,60.0,3.0,64.0
3460,77.0,36.0,120.0,10.0,64.0
3461,60.0,0.0,180.0,13.0,64.0
3462,72.0,0.0,180.0,12.0,64.0
3463,69.0,60.0,60.0,11.0,64.0
3464,77.0,0.0,60.0,11.0,64.0
3465,60.0,0.0,180.0,4.0,64.0
3466,53.0,0.0,180.0,4.0,64.0
3467,77.0,12.0,150.0,0.0,64.0
3468,48.0,48.0,180.0,14.0,64.0
3469,60.0,0.0,180.0,3.0,64.0
3470,69.0,12.0,60.0,11.0,64.0
3471,77.0,0.0,60.0,11.0,64.0
3472,77.0,0.0,60.0,11.0,64.0
3473,69.0,12.0,60.0,11.0,64.0
3474,77.0,60.0,60.0,11.0,64.0
3475,69.0,0.0,60.0,11.0,64.0
3476,60.0,0.0,180.0,4.0,64.0
3477,69.0,60.0,60.0,11.0,64.0
3478,53.0,48.0,180.0,4.0,64.0
3479,72.0,12.0,150.0,0.0,64.0
3480,72.0,36.0,120.0,10.0,64.0
3481,77.0,0.0,60.0,11.0,64.0
3482,69.0,0.0,60.0,11.0,64.0
3483,77.0,12.0,60.0,11.0,64.0
3484,69.0,0.0,60.0,11.0,64.0
3485,77.0,12.0,60.0,11.0,64.0
3486,77.0,60.0,60.0,11.0,64.0
3487,69.0,0.0,60.0,11.0,64.0
3488,77.0,60.0,60.0,11.0,64.0
3489,69.0,0.0,60.0,11.0,64.0
3490,41.0,0.0,390.0,6.0,64.0
3491,53.0,0.0,390.0,4.0,64.0
3492,81.0,36.0,120.0,10.0,64.0
3493,60.0,0.0,390.0,4.0,64.0
3494,69.0,0.0,120.0,12.0,64.0
3495,81.0,12.0,150.0,0.0,64.0
3496,65.0,12.0,390.0,5.0,64.0
3497,69.0,0.0,150.0,2.0,64.0
3498,69.0,12.0,60.0,11.0,64.0
3499,77.0,0.0,60.0,11.0,64.0
3500,77.0,0.0,60.0,11.0,64.0
3501,69.0,60.0,60.0,11.0,64.0
3502,77.0,60.0,60.0,11.0,64.0
3503,69.0,0.0,60.0,11.0,64.0
3504,65.0,0.0,120.0,12.0,64.0
3505,65.0,0.0,150.0,2.0,64.0
3506,77.0,24.0,120.0,10.0,64.0
3507,77.0,60.0,60.0,11.0,64.0
3508,69.0,0.0,60.0,11.0,64.0
3509,77.0,12.0,150.0,0.0,64.0
3510,69.0,0.0,60.0,11.0,64.0
3511,77.0,12.0,60.0,11.0,64.0
3512,69.0,0.0,60.0,11.0,64.0
3513,77.0,60.0,60.0,11.0,64.0
3514,77.0,60.0,60.0,11.0,64.0
3515,69.0,0.0,60.0,11.0,64.0
3516,65.0,48.0,180.0,5.0,64.0
3517,77.0,60.0,60.0,11.0,64.0
3518,60.0,0.0,120.0,12.0,64.0
3519,69.0,0.0,60.0,11.0,64.0
3520,60.0,12.0,150.0,2.0,64.0
3521,41.0,0.0,180.0,6.0,64.0
3522,72.0,0.0,150.0,0.0,64.0
3523,60.0,12.0,390.0,4.0,64.0
3524,72.0,36.0,120.0,10.0,64.0
3525,53.0,0.0,390.0,4.0,64.0
3526,69.0,12.0,60.0,11.0,64.0
3527,77.0,0.0,60.0,11.0,64.0
3528,77.0,12.0,60.0,11.0,64.0
3529,69.0,0.0,60.0,11.0,64.0
3530,77.0,0.0,60.0,11.0,64.0
3531,69.0,60.0,60.0,11.0,64.0
3532,77.0,60.0,60.0,11.0,64.0
3533,57.0,0.0,150.0,2.0,64.0
3534,41.0,48.0,180.0,6.0,64.0
3535,69.0,12.0,150.0,0.0,64.0
3536,69.0,24.0,120.0,10.0,64.0
3537,69.0,0.0,60.0,11.0,64.0
3538,57.0,0.0,120.0,12.0,64.0
3539,65.0,0.0,180.0,5.0,64.0
3540,69.0,0.0,60.0,11.0,64.0
3541,77.0,12.0,60.0,11.0,64.0
3542,77.0,0.0,60.0,11.0,64.0
3543,69.0,12.0,60.0,11.0,64.0
3544,77.0,60.0,60.0,11.0,64.0
3545,69.0,0.0,60.0,11.0,64.0
3546,77.0,0.0,60.0,11.0,64.0
3547,60.0,0.0,180.0,4.0,64.0
3548,65.0,36.0,180.0,2.0,64.0
3549,77.0,0.0,180.0,0.0,64.0
3550,77.0,0.0,180.0,1.0,64.0
3551,41.0,36.0,120.0,14.0,64.0
3552,53.0,12.0,150.0,3.0,64.0
3553,53.0,12.0,180.0,4.0,64.0
3554,65.0,0.0,180.0,5.0,64.0
3555,65.0,0.0,120.0,12.0,64.0
3556,53.0,0.0,120.0,13.0,64.0
3557,41.0,0.0,180.0,6.0,64.0
3558,77.0,60.0,60.0,10.0,64.0
3559,77.0,0.0,60.0,11.0,64.0
3560,77.0,12.0,60.0,10.0,64.0
3561,77.0,12.0,60.0,11.0,64.0
3562,77.0,0.0,60.0,10.0,64.0
3563,77.0,60.0,60.0,11.0,64.0
3564,77.0,0.0,60.0,10.0,64.0
3565,60.0,36.0,120.0,12.0,64.0
3566,48.0,0.0,120.0,13.0,64.0
3567,72.0,0.0,60.0,10.0,64.0
3568,36.0,0.0,120.0,14.0,64.0
3569,72.0,0.0,150.0,0.0,64.0
3570,53.0,0.0,180.0,4.0,64.0
3571,48.0,12.0,150.0,3.0,64.0
3572,60.0,48.0,180.0,4.0,64.0
3573,60.0,0.0,150.0,2.0,64.0
3574,72.0,60.0,60.0,11.0,64.0
3575,72.0,0.0,150.0,1.0,64.0
3576,72.0,0.0,60.0,11.0,64.0
3577,72.0,12.0,60.0,10.0,64.0
3578,72.0,12.0,60.0,10.0,64.0
3579,72.0,0.0,60.0,11.0,64.0
3580,72.0,0.0,60.0,11.0,64.0
3581,72.0,60.0,60.0,10.0,64.0
3582,57.0,36.0,120.0,12.0,64.0
3583,65.0,36.0,180.0,5.0,64.0
3584,57.0,0.0,150.0,2.0,64.0
3585,69.0,0.0,150.0,0.0,64.0
3586,60.0,0.0,180.0,4.0,64.0
3587,53.0,12.0,180.0,4.0,64.0
3588,69.0,60.0,60.0,11.0,64.0
3589,45.0,0.0,150.0,3.0,64.0
3590,69.0,0.0,60.0,10.0,64.0
3591,69.0,12.0,150.0,1.0,64.0
3592,45.0,0.0,120.0,13.0,64.0
3593,33.0,0.0,120.0,14.0,64.0
3594,41.0,0.0,180.0,6.0,64.0
3595,69.0,12.0,60.0,10.0,64.0
3596,69.0,0.0,60.0,11.0,64.0
3597,69.0,0.0,60.0,10.0,64.0
3598,69.0,12.0,60.0,11.0,64.0
3599,69.0,60.0,60.0,11.0,64.0
3600,69.0,0.0,60.0,10.0,64.0
3601,41.0,0.0,150.0,3.0,64.0
3602,41.0,36.0,120.0,13.0,64.0
3603,29.0,0.0,120.0,14.0,64.0
3604,65.0,60.0,60.0,10.0,64.0
3605,65.0,0.0,150.0,1.0,64.0
3606,65.0,12.0,150.0,0.0,64.0
3607,65.0,0.0,60.0,11.0,64.0
3608,53.0,0.0,120.0,12.0,64.0
3609,53.0,0.0,150.0,2.0,64.0
3610,60.0,0.0,180.0,4.0,64.0
3611,53.0,48.0,180.0,4.0,64.0
3612,65.0,0.0,60.0,11.0,64.0
3613,65.0,12.0,60.0,10.0,64.0
3614,65.0,0.0,60.0,11.0,64.0
3615,65.0,12.0,60.0,10.0,64.0
3616,65.0,0.0,60.0,11.0,64.0
3617,65.0,168.0,60.0,10.0,64.0
3618,48.0,0.0,180.0,13.0,64.0
3619,36.0,0.0,180.0,14.0,64.0
3620,60.0,0.0,180.0,1.0,64.0
3621,48.0,204.0,180.0,3.0,64.0
3622,60.0,0.0,150.0,10.0,64.0
3623,60.0,0.0,180.0,4.0,64.0
3624,60.0,0.0,180.0,12.0,64.0
3625,60.0,0.0,180.0,2.0,64.0
3626,72.0,0.0,180.0,0.0,64.0
3627,60.0,36.0,150.0,11.0,64.0
3628,69.0,0.0,150.0,11.0,64.0
3629,60.0,0.0,150.0,10.0,64.0
3630,69.0,0.0,150.0,10.0,64.0
3631,60.0,0.0,150.0,11.0,64.0
3632,77.0,276.0,150.0,10.0,64.0
3633,77.0,0.0,150.0,11.0,64.0
3634,60.0,0.0,180.0,12.0,64.0
3635,60.0,0.0,180.0,1.0,64.0
3636,48.0,0.0,180.0,3.0,64.0
3637,72.0,0.0,180.0,0.0,64.0
3638,60.0,204.0,180.0,2.0,64.0
3639,60.0,0.0,180.0,4.0,64.0
3640,36.0,0.0,180.0,14.0,64.0
3641,48.0,0.0,180.0,13.0,64.0
3642,60.0,0.0,150.0,10.0,64.0
3643,76.0,0.0,150.0,10.0,64.0
3644,67.0,0.0,150.0,10.0,64.0
3645,76.0,0.0,150.0,11.0,64.0
3646,60.0,282.0,150.0,11.0,64.0
3647,67.0,0.0,150.0,11.0,64.0
3648,48.0,0.0,90.0,12.0,64.0
3649,60.0,0.0,90.0,11.0,64.0
3650,72.0,120.0,90.0,10.0,64.0
3651,74.0,0.0,90.0,10.0,64.0
3652,62.0,0.0,90.0,11.0,64.0
3653,50.0,120.0,90.0,12.0,64.0
3654,52.0,0.0,90.0,12.0,64.0
3655,64.0,0.0,90.0,11.0,64.0
3656,76.0,120.0,90.0,10.0,64.0
3657,53.0,0.0,90.0,12.0,64.0
3658,65.0,120.0,90.0,11.0,64.0
3659,77.0,0.0,90.0,10.0,64.0
3660,79.0,0.0,90.0,10.0,64.0
3661,55.0,120.0,90.0,12.0,64.0
3662,67.0,0.0,90.0,11.0,64.0
3663,81.0,120.0,90.0,10.0,64.0
3664,57.0,0.0,90.0,12.0,64.0
3665,69.0,0.0,90.0,11.0,64.0
3666,82.0,0.0,90.0,10.0,64.0
3667,58.0,0.0,90.0,12.0,64.0
3668,70.0,282.0,90.0,11.0,64.0
3669,60.0,240.0,240.0,12.0,64.0
3670,84.0,0.0,240.0,10.0,64.0
3671,72.0,0.0,240.0,11.0,64.0
3672,57.0,240.0,240.0,12.0,64.0
3673,81.0,0.0,240.0,10.0,64.0
3674,69.0,0.0,240.0,11.0,64.0
3675,65.0,0.0,240.0,11.0,64.0
3676,77.0,0.0,240.0,10.0,64.0
3677,53.0,228.0,240.0,12.0,64.0
3678,62.0,0.0,240.0,11.0,64.0
3679,74.0,0.0,240.0,10.0,64.0
3680,50.0,252.0,240.0,12.0,64.0
3681,60.0,0.0,240.0,11.0,64.0
3682,72.0,0.0,240.0,10.0,64.0
3683,48.0,240.0,240.0,12.0,64.0
3684,71.0,0.0,240.0,10.0,64.0
3685,31.0,240.0,240.0,14.0,64.0
3686,59.0,0.0,240.0,11.0,64.0
3687,47.0,0.0,240.0,12.0,64.0
3688,43.0,0.0,240.0,13.0,64.0
3689,55.0,0.0,240.0,13.0,64.0
3690,46.0,120.0,570.0,12.0,64.0
3691,58.0,0.0,570.0,11.0,64.0
3692,43.0,240.0,240.0,14.0,64.0
3693,70.0,0.0,570.0,10.0,64.0
3694,53.0,78.0,240.0,13.0,64.0
3695,41.0,0.0,240.0,14.0,64.0
3696,40.0,0.0,780.0,14.0,64.0
3697,52.0,30.0,780.0,13.0,64.0
3698,64.0,120.0,90.0,11.0,64.0
3699,52.0,0.0,90.0,12.0,64.0
3700,76.0,0.0,90.0,10.0,64.0
3701,67.0,120.0,90.0,11.0,64.0
3702,79.0,0.0,90.0,10.0,64.0
3703,55.0,0.0,90.0,12.0,64.0
3704,65.0,0.0,90.0,11.0,64.0
3705,53.0,0.0,90.0,12.0,64.0
3706,77.0,120.0,90.0,10.0,64.0
3707,64.0,0.0,90.0,11.0,64.0
3708,76.0,0.0,90.0,10.0,64.0
3709,52.0,120.0,90.0,12.0,64.0
3710,62.0,0.0,90.0,11.0,64.0
3711,74.0,90.0,90.0,10.0,64.0
3712,50.0,0.0,90.0,12.0,64.0
3713,48.0,120.0,90.0,12.0,64.0
3714,60.0,0.0,90.0,11.0,64.0
3715,72.0,0.0,90.0,10.0,64.0
3716,46.0,0.0,90.0,12.0,64.0
3717,70.0,0.0,90.0,10.0,64.0
3718,58.0,120.0,90.0,11.0,64.0
3719,69.0,120.0,90.0,10.0,64.0
3720,57.0,0.0,90.0,11.0,64.0
3721,45.0,0.0,90.0,12.0,64.0
3722,58.0,0.0,90.0,11.0,64.0
3723,46.0,0.0,90.0,12.0,64.0
3724,70.0,120.0,90.0,10.0,64.0
3725,48.0,120.0,90.0,12.0,64.0
3726,53.0,0.0,240.0,13.0,64.0
3727,41.0,240.0,240.0,14.0,64.0
3728,60.0,0.0,90.0,11.0,64.0
3729,72.0,0.0,90.0,10.0,64.0
3730,74.0,42.0,90.0,10.0,64.0
3731,62.0,0.0,90.0,11.0,64.0
3732,50.0,0.0,90.0,12.0,64.0
3733,48.0,240.0,240.0,14.0,64.0
3734,63.0,120.0,570.0,11.0,64.0
3735,75.0,0.0,570.0,10.0,64.0
3736,60.0,0.0,240.0,13.0,64.0
3737,51.0,0.0,570.0,12.0,64.0
3738,46.0,0.0,240.0,14.0,64.0
3739,58.0,78.0,240.0,13.0,64.0
3740,45.0,0.0,960.0,14.0,64.0
3741,57.0,78.0,960.0,13.0,64.0
3742,57.0,120.0,90.0,12.0,64.0
3743,81.0,0.0,90.0,10.0,64.0
3744,69.0,0.0,90.0,11.0,64.0
3745,84.0,0.0,90.0,10.0,64.0
3746,60.0,0.0,90.0,12.0,64.0
3747,72.0,120.0,90.0,11.0,64.0
3748,58.0,0.0,90.0,12.0,64.0
3749,82.0,0.0,90.0,10.0,64.0
3750,70.0,120.0,90.0,11.0,64.0
3751,57.0,120.0,90.0,12.0,64.0
3752,69.0,0.0,90.0,11.0,64.0
3753,81.0,0.0,90.0,10.0,64.0
3754,79.0,0.0,90.0,10.0,64.0
3755,67.0,0.0,90.0,11.0,64.0
3756,55.0,120.0,90.0,12.0,64.0
3757,65.0,0.0,90.0,11.0,64.0
3758,77.0,0.0,90.0,10.0,64.0
3759,53.0,120.0,90.0,12.0,64.0
3760,63.0,42.0,90.0,11.0,64.0
3761,75.0,0.0,90.0,10.0,64.0
3762,51.0,0.0,90.0,12.0,64.0
3763,74.0,114.0,90.0,10.0,64.0
3764,62.0,54.0,870.0,3.0,64.0
3765,50.0,6.0,180.0,12.0,64.0
3766,46.0,0.0,180.0,14.0,64.0
3767,58.0,0.0,180.0,13.0,64.0
3768,62.0,0.0,90.0,11.0,64.0
3769,62.0,0.0,90.0,11.0,64.0
3770,74.0,120.0,90.0,10.0,64.0
3771,64.0,120.0,90.0,11.0,64.0
3772,76.0,0.0,90.0,10.0,64.0
3773,77.0,0.0,90.0,10.0,64.0
3774,65.0,120.0,90.0,11.0,64.0
3775,79.0,114.0,90.0,10.0,64.0
3776,43.0,0.0,180.0,14.0,64.0
3777,58.0,102.0,930.0,3.0,64.0
3778,55.0,6.0,180.0,13.0,64.0
3779,67.0,0.0,90.0,11.0,64.0
3780,81.0,120.0,90.0,10.0,64.0
3781,69.0,0.0,90.0,11.0,64.0
3782,82.0,66.0,90.0,10.0,64.0
3783,70.0,0.0,90.0,11.0,64.0
3784,62.0,120.0,90.0,11.0,64.0
3785,74.0,0.0,90.0,10.0,64.0
3786,57.0,6.0,180.0,13.0,64.0
3787,60.0,102.0,930.0,3.0,64.0
3788,45.0,0.0,180.0,14.0,64.0
3789,72.0,114.0,90.0,10.0,64.0
3790,60.0,0.0,90.0,11.0,64.0
3791,72.0,0.0,90.0,10.0,64.0
3792,60.0,120.0,90.0,11.0,64.0
3793,62.0,0.0,90.0,11.0,64.0
3794,74.0,120.0,90.0,10.0,64.0
3795,64.0,18.0,90.0,11.0,64.0
3796,76.0,0.0,90.0,10.0,64.0
3797,53.0,6.0,180.0,13.0,64.0
3798,65.0,114.0,90.0,11.0,64.0
3799,77.0,0.0,90.0,10.0,64.0
3800,57.0,102.0,930.0,3.0,64.0
3801,41.0,0.0,180.0,14.0,64.0
3802,79.0,0.0,90.0,10.0,64.0
3803,67.0,120.0,90.0,11.0,64.0
3804,81.0,0.0,90.0,10.0,64.0
3805,69.0,120.0,90.0,11.0,64.0
3806,60.0,18.0,90.0,11.0,64.0
3807,72.0,0.0,90.0,10.0,64.0
3808,58.0,0.0,930.0,3.0,64.0
3809,70.0,114.0,90.0,10.0,64.0
3810,43.0,6.0,180.0,14.0,64.0
3811,58.0,0.0,90.0,11.0,64.0
3812,55.0,0.0,180.0,13.0,64.0
3813,58.0,0.0,90.0,11.0,64.0
3814,70.0,120.0,90.0,10.0,64.0
3815,72.0,0.0,90.0,10.0,64.0
3816,60.0,120.0,90.0,11.0,64.0
3817,74.0,18.0,90.0,10.0,64.0
3818,62.0,0.0,90.0,11.0,64.0
3819,64.0,0.0,90.0,11.0,64.0
3820,40.0,6.0,180.0,14.0,64.0
3821,76.0,114.0,90.0,10.0,64.0
3822,55.0,72.0,450.0,3.0,64.0
3823,52.0,0.0,180.0,13.0,64.0
3824,65.0,0.0,90.0,11.0,64.0
3825,77.0,120.0,90.0,10.0,64.0
3826,79.0,0.0,90.0,10.0,64.0
3827,67.0,120.0,90.0,11.0,64.0
3828,58.0,18.0,90.0,11.0,64.0
3829,70.0,0.0,90.0,10.0,64.0
3830,65.0,0.0,390.0,0.0,64.0
3831,41.0,0.0,180.0,6.0,64.0
3832,57.0,0.0,390.0,3.0,64.0
3833,53.0,24.0,390.0,3.0,64.0
3834,53.0,0.0,390.0,4.0,64.0
3835,60.0,0.0,390.0,4.0,64.0
3836,65.0,0.0,390.0,1.0,64.0
3837,69.0,0.0,60.0,10.0,64.0
3838,69.0,0.0,180.0,2.0,64.0
3839,65.0,12.0,180.0,2.0,64.0
3840,77.0,0.0,60.0,10.0,64.0
3841,65.0,0.0,60.0,11.0,64.0
3842,72.0,60.0,60.0,11.0,64.0
3843,65.0,36.0,180.0,5.0,64.0
3844,65.0,0.0,60.0,11.0,64.0
3845,72.0,60.0,60.0,11.0,64.0
3846,77.0,0.0,60.0,10.0,64.0
3847,69.0,0.0,60.0,10.0,64.0
3848,69.0,0.0,60.0,10.0,64.0
3849,72.0,0.0,60.0,11.0,64.0
3850,77.0,12.0,60.0,10.0,64.0
3851,65.0,0.0,60.0,11.0,64.0
3852,69.0,0.0,60.0,10.0,64.0
3853,77.0,0.0,60.0,10.0,64.0
3854,72.0,60.0,60.0,11.0,64.0
3855,65.0,0.0,60.0,11.0,64.0
3856,69.0,0.0,60.0,10.0,64.0
3857,77.0,60.0,60.0,10.0,64.0
3858,65.0,0.0,60.0,11.0,64.0
3859,65.0,0.0,180.0,2.0,64.0
3860,72.0,0.0,60.0,11.0,64.0
3861,57.0,48.0,180.0,2.0,64.0
3862,77.0,0.0,60.0,10.0,64.0
3863,69.0,0.0,60.0,10.0,64.0
3864,65.0,0.0,60.0,11.0,64.0
3865,72.0,36.0,60.0,11.0,64.0
3866,72.0,0.0,60.0,11.0,64.0
3867,65.0,12.0,60.0,11.0,64.0
3868,77.0,0.0,60.0,10.0,64.0
3869,69.0,0.0,60.0,10.0,64.0
3870,77.0,0.0,60.0,10.0,64.0
3871,69.0,0.0,60.0,10.0,64.0
3872,72.0,60.0,60.0,11.0,64.0
3873,65.0,0.0,60.0,11.0,64.0
3874,60.0,36.0,180.0,4.0,64.0
3875,77.0,0.0,60.0,10.0,64.0
3876,69.0,0.0,60.0,10.0,64.0
3877,72.0,0.0,60.0,11.0,64.0
3878,65.0,60.0,60.0,11.0,64.0
3879,53.0,0.0,180.0,4.0,64.0
3880,65.0,0.0,180.0,2.0,64.0
3881,57.0,0.0,180.0,2.0,64.0
3882,65.0,0.0,180.0,1.0,64.0
3883,65.0,12.0,180.0,0.0,64.0
3884,77.0,0.0,60.0,10.0,64.0
3885,65.0,0.0,60.0,11.0,64.0
3886,69.0,60.0,60.0,10.0,64.0
3887,72.0,0.0,60.0,11.0,64.0
3888,65.0,0.0,60.0,11.0,64.0
3889,72.0,0.0,60.0,11.0,64.0
3890,69.0,12.0,60.0,10.0,64.0
3891,77.0,0.0,60.0,10.0,64.0
3892,77.0,0.0,60.0,10.0,64.0
3893,65.0,0.0,60.0,11.0,64.0
3894,72.0,0.0,60.0,11.0,64.0
3895,69.0,60.0,60.0,10.0,64.0
3896,65.0,0.0,180.0,1.0,64.0
3897,53.0,36.0,180.0,4.0,64.0
3898,65.0,12.0,180.0,0.0,64.0
3899,60.0,0.0,180.0,4.0,64.0
3900,72.0,0.0,60.0,11.0,64.0
3901,65.0,60.0,60.0,11.0,64.0
3902,57.0,0.0,180.0,2.0,64.0
3903,65.0,0.0,180.0,2.0,64.0
3904,77.0,0.0,60.0,10.0,64.0
3905,69.0,0.0,60.0,10.0,64.0
3906,77.0,0.0,60.0,10.0,64.0
3907,69.0,0.0,60.0,10.0,64.0
3908,65.0,60.0,60.0,11.0,64.0
3909,72.0,0.0,60.0,11.0,64.0
3910,65.0,0.0,60.0,11.0,64.0
3911,72.0,12.0,60.0,11.0,64.0
3912,69.0,0.0,60.0,10.0,64.0
3913,77.0,0.0,60.0,10.0,64.0
3914,77.0,0.0,60.0,10.0,64.0
3915,69.0,0.0,60.0,10.0,64.0
3916,72.0,0.0,60.0,11.0,64.0
3917,65.0,60.0,60.0,11.0,64.0
3918,69.0,0.0,60.0,10.0,64.0
3919,77.0,0.0,60.0,10.0,64.0
3920,72.0,0.0,60.0,11.0,64.0
3921,65.0,60.0,780.0,2.0,64.0
3922,65.0,42.0,60.0,11.0,64.0
3923,53.0,0.0,390.0,12.0,64.0
3924,65.0,0.0,90.0,1.0,64.0
3925,41.0,0.0,390.0,13.0,64.0
3926,29.0,0.0,390.0,14.0,64.0
3927,60.0,0.0,780.0,4.0,64.0
3928,53.0,0.0,780.0,4.0,64.0
3929,65.0,18.0,90.0,0.0,64.0
3930,41.0,21.0,390.0,3.0,64.0
3931,57.0,0.0,780.0,2.0,64.0
3932,77.0,57.0,60.0,10.0,64.0
3933,69.0,0.0,60.0,10.0,64.0
3934,65.0,0.0,60.0,11.0,64.0
3935,72.0,0.0,60.0,11.0,64.0
3936,67.0,3.0,60.0,0.0,64.0
3937,72.0,0.0,60.0,11.0,64.0
3938,65.0,57.0,60.0,11.0,64.0
3939,67.0,0.0,60.0,1.0,64.0
3940,69.0,0.0,60.0,10.0,64.0
3941,77.0,0.0,60.0,10.0,64.0
3942,69.0,0.0,60.0,10.0,64.0
3943,77.0,0.0,60.0,10.0,64.0
3944,69.0,3.0,60.0,0.0,64.0
3945,72.0,0.0,60.0,11.0,64.0
3946,65.0,57.0,60.0,11.0,64.0
3947,69.0,0.0,60.0,1.0,64.0
3948,70.0,0.0,60.0,0.0,64.0
3949,77.0,57.0,60.0,10.0,64.0
3950,69.0,0.0,60.0,10.0,64.0
3951,72.0,0.0,60.0,11.0,64.0
3952,70.0,3.0,60.0,1.0,64.0
3953,65.0,0.0,60.0,11.0,64.0
3954,72.0,0.0,60.0,0.0,64.0
3955,65.0,36.0,60.0,11.0,64.0
3956,72.0,0.0,60.0,11.0,64.0
3957,72.0,3.0,60.0,1.0,64.0
3958,77.0,0.0,60.0,10.0,64.0
3959,69.0,0.0,60.0,10.0,64.0
3960,65.0,0.0,60.0,11.0,64.0
3961,69.0,0.0,60.0,10.0,64.0
3962,77.0,0.0,60.0,10.0,64.0
3963,72.0,57.0,60.0,11.0,64.0
3964,74.0,3.0,60.0,1.0,64.0
3965,74.0,0.0,60.0,0.0,64.0
3966,76.0,3.0,60.0,0.0,64.0
3967,77.0,0.0,60.0,10.0,64.0
3968,65.0,60.0,60.0,11.0,64.0
3969,72.0,0.0,60.0,11.0,64.0
3970,76.0,0.0,60.0,1.0,64.0
3971,69.0,0.0,60.0,10.0,64.0
3972,65.0,60.0,60.0,11.0,64.0
3973,72.0,0.0,60.0,11.0,64.0
3974,77.0,0.0,180.0,1.0,64.0
3975,77.0,0.0,180.0,0.0,64.0
3976,41.0,0.0,180.0,13.0,64.0
3977,41.0,0.0,180.0,3.0,64.0
3978,69.0,0.0,60.0,10.0,64.0
3979,53.0,0.0,180.0,12.0,64.0
3980,77.0,0.0,60.0,10.0,64.0
3981,29.0,48.0,180.0,14.0,64.0
3982,72.0,0.0,60.0,11.0,64.0
3983,77.0,60.0,60.0,10.0,64.0
3984,65.0,0.0,60.0,11.0,64.0
3985,69.0,0.0,60.0,10.0,64.0
3986,65.0,12.0,60.0,11.0,64.0
3987,77.0,0.0,60.0,10.0,64.0
3988,69.0,0.0,60.0,10.0,64.0
3989,72.0,0.0,60.0,11.0,64.0
3990,77.0,0.0,60.0,10.0,64.0
3991,72.0,60.0,60.0,11.0,64.0
3992,69.0,0.0,60.0,10.0,64.0
3993,65.0,0.0,60.0,11.0,64.0
3994,53.0,0.0,180.0,12.0,64.0
3995,41.0,0.0,180.0,13.0,64.0
3996,29.0,48.0,180.0,14.0,64.0
3997,65.0,0.0,60.0,11.0,64.0
3998,72.0,0.0,60.0,11.0,64.0
3999,69.0,0.0,60.0,10.0,64.0
4000,41.0,0.0,180.0,3.0,64.0
4001,77.0,0.0,60.0,10.0,64.0
4002,69.0,0.0,60.0,10.0,64.0
4003,77.0,0.0,60.0,10.0,64.0
4004,72.0,60.0,60.0,11.0,64.0
4005,65.0,0.0,60.0,11.0,64.0
4006,69.0,0.0,60.0,10.0,64.0
4007,72.0,0.0,60.0,11.0,64.0
4008,65.0,12.0,60.0,11.0,64.0
4009,77.0,0.0,60.0,10.0,64.0
4010,69.0,0.0,60.0,10.0,64.0
4011,72.0,0.0,60.0,11.0,64.0
4012,65.0,60.0,60.0,11.0,64.0
4013,77.0,0.0,60.0,10.0,64.0
4014,60.0,0.0,390.0,4.0,64.0
4015,41.0,18.0,90.0,13.0,64.0
4016,65.0,0.0,60.0,11.0,64.0
4017,41.0,33.0,180.0,6.0,64.0
4018,29.0,0.0,90.0,14.0,64.0
4019,41.0,0.0,90.0,3.0,64.0
4020,53.0,21.0,390.0,4.0,64.0
4021,65.0,0.0,180.0,5.0,64.0
4022,53.0,0.0,90.0,12.0,64.0
4023,69.0,0.0,390.0,1.0,64.0
4024,65.0,0.0,390.0,2.0,64.0
4025,69.0,0.0,390.0,0.0,64.0
4026,77.0,0.0,60.0,10.0,64.0
4027,69.0,0.0,60.0,10.0,64.0
4028,57.0,0.0,390.0,2.0,64.0
4029,72.0,42.0,60.0,11.0,64.0
4030,77.0,0.0,60.0,10.0,64.0
4031,69.0,57.0,60.0,10.0,64.0
4032,72.0,0.0,60.0,11.0,64.0
4033,65.0,0.0,60.0,11.0,64.0
4034,43.0,3.0,60.0,13.0,64.0
4035,65.0,0.0,60.0,11.0,64.0
4036,72.0,0.0,60.0,11.0,64.0
4037,55.0,0.0,60.0,12.0,64.0
4038,77.0,24.0,60.0,10.0,64.0
4039,31.0,0.0,60.0,14.0,64.0
4040,43.0,0.0,60.0,3.0,64.0
4041,69.0,0.0,60.0,10.0,64.0
4042,69.0,57.0,60.0,10.0,64.0
4043,77.0,0.0,60.0,10.0,64.0
4044,33.0,0.0,60.0,14.0,64.0
4045,57.0,0.0,60.0,12.0,64.0
4046,72.0,0.0,60.0,11.0,64.0
4047,65.0,0.0,60.0,11.0,64.0
4048,45.0,3.0,60.0,13.0,64.0
4049,45.0,0.0,60.0,3.0,64.0
4050,72.0,0.0,60.0,11.0,64.0
4051,46.0,0.0,60.0,13.0,64.0
4052,58.0,0.0,60.0,12.0,64.0
4053,46.0,0.0,60.0,3.0,64.0
4054,65.0,0.0,60.0,11.0,64.0
4055,34.0,3.0,60.0,14.0,64.0
4056,77.0,0.0,60.0,10.0,64.0
4057,69.0,57.0,60.0,10.0,64.0
4058,36.0,3.0,60.0,14.0,64.0
4059,72.0,0.0,60.0,11.0,64.0
4060,69.0,36.0,60.0,10.0,64.0
4061,77.0,0.0,60.0,10.0,64.0
4062,48.0,0.0,60.0,3.0,64.0
4063,60.0,0.0,60.0,12.0,64.0
4064,65.0,0.0,60.0,11.0,64.0
4065,48.0,0.0,60.0,13.0,64.0
4066,62.0,0.0,60.0,12.0,64.0
4067,50.0,0.0,60.0,3.0,64.0
4068,72.0,0.0,60.0,11.0,64.0
4069,65.0,57.0,60.0,11.0,64.0
4070,77.0,0.0,60.0,10.0,64.0
4071,50.0,3.0,60.0,13.0,64.0
4072,69.0,0.0,60.0,10.0,64.0
4073,38.0,0.0,60.0,14.0,64.0
4074,52.0,0.0,60.0,13.0,64.0
4075,69.0,0.0,60.0,10.0,64.0
4076,77.0,0.0,60.0,10.0,64.0
4077,64.0,0.0,60.0,12.0,64.0
4078,65.0,60.0,60.0,11.0,64.0
4079,72.0,0.0,60.0,11.0,64.0
4080,40.0,0.0,60.0,14.0,64.0
4081,52.0,3.0,60.0,3.0,64.0
4082,65.0,0.0,180.0,2.0,64.0
4083,69.0,0.0,60.0,10.0,64.0
4084,77.0,0.0,60.0,10.0,64.0
4085,53.0,0.0,180.0,13.0,64.0
4086,57.0,0.0,180.0,2.0,64.0
4087,69.0,12.0,180.0,0.0,64.0
4088,41.0,0.0,180.0,14.0,64.0
4089,69.0,0.0,180.0,1.0,64.0
4090,53.0,0.0,180.0,3.0,64.0
4091,53.0,36.0,180.0,4.0,64.0
4092,60.0,0.0,180.0,4.0,64.0
4093,72.0,60.0,60.0,11.0,64.0
4094,65.0,0.0,60.0,11.0,64.0
4095,65.0,0.0,180.0,12.0,64.0
4096,72.0,0.0,60.0,11.0,64.0
4097,77.0,0.0,60.0,10.0,64.0
4098,69.0,0.0,60.0,10.0,64.0
4099,65.0,60.0,60.0,11.0,64.0
4100,69.0,0.0,60.0,10.0,64.0
4101,77.0,12.0,60.0,10.0,64.0
4102,65.0,0.0,60.0,11.0,64.0
4103,72.0,0.0,60.0,11.0,64.0
4104,72.0,0.0,60.0,11.0,64.0
4105,65.0,0.0,60.0,11.0,64.0
4106,77.0,0.0,60.0,10.0,64.0
4107,69.0,60.0,60.0,10.0,64.0
4108,69.0,0.0,180.0,1.0,64.0
4109,77.0,60.0,60.0,10.0,64.0
4110,65.0,12.0,180.0,2.0,64.0
4111,57.0,0.0,180.0,2.0,64.0
4112,69.0,0.0,180.0,0.0,64.0
4113,69.0,0.0,60.0,10.0,64.0
4114,60.0,36.0,180.0,4.0,64.0
4115,53.0,0.0,180.0,4.0,64.0
4116,65.0,0.0,60.0,11.0,64.0
4117,72.0,0.0,60.0,11.0,64.0
4118,65.0,0.0,60.0,11.0,64.0
4119,69.0,60.0,60.0,10.0,64.0
4120,72.0,0.0,60.0,11.0,64.0
4121,77.0,0.0,60.0,10.0,64.0
4122,69.0,0.0,60.0,10.0,64.0
4123,77.0,0.0,60.0,10.0,64.0
4124,65.0,12.0,60.0,11.0,64.0
4125,72.0,0.0,60.0,11.0,64.0
4126,77.0,0.0,60.0,10.0,64.0
4127,72.0,0.0,60.0,11.0,64.0
4128,69.0,60.0,60.0,10.0,64.0
4129,65.0,0.0,60.0,11.0,64.0
4130,69.0,18.0,90.0,0.0,64.0
4131,57.0,0.0,390.0,12.0,64.0
4132,33.0,0.0,390.0,14.0,64.0
4133,65.0,0.0,780.0,2.0,64.0
4134,45.0,21.0,390.0,13.0,64.0
4135,65.0,42.0,60.0,11.0,64.0
4136,72.0,0.0,60.0,11.0,64.0
4137,77.0,0.0,60.0,10.0,64.0
4138,45.0,0.0,390.0,3.0,64.0
4139,53.0,60.0,780.0,4.0,64.0
4140,60.0,0.0,780.0,4.0,64.0
4141,69.0,0.0,90.0,1.0,64.0
4142,57.0,0.0,780.0,2.0,64.0
4143,69.0,0.0,60.0,10.0,64.0
4144,72.0,0.0,60.0,11.0,64.0
4145,65.0,0.0,60.0,11.0,64.0
4146,77.0,0.0,60.0,10.0,64.0
4147,69.0,57.0,60.0,10.0,64.0
4148,69.0,57.0,60.0,10.0,64.0
4149,77.0,0.0,60.0,10.0,64.0
4150,70.0,0.0,60.0,1.0,64.0
4151,65.0,0.0,60.0,11.0,64.0
4152,70.0,3.0,60.0,0.0,64.0
4153,72.0,0.0,60.0,11.0,64.0
4154,77.0,0.0,60.0,10.0,64.0
4155,65.0,57.0,60.0,11.0,64.0
4156,72.0,0.0,60.0,11.0,64.0
4157,72.0,0.0,60.0,1.0,64.0
4158,69.0,0.0,60.0,10.0,64.0
4159,72.0,3.0,60.0,0.0,64.0
4160,74.0,0.0,60.0,0.0,64.0
4161,69.0,57.0,60.0,10.0,64.0
4162,77.0,0.0,60.0,10.0,64.0
4163,74.0,3.0,60.0,1.0,64.0
4164,72.0,0.0,60.0,11.0,64.0
4165,65.0,0.0,60.0,11.0,64.0
4166,69.0,36.0,60.0,10.0,64.0
4167,76.0,0.0,60.0,1.0,64.0
4168,72.0,0.0,60.0,11.0,64.0
4169,65.0,0.0,60.0,11.0,64.0
4170,76.0,3.0,60.0,0.0,64.0
4171,77.0,0.0,60.0,10.0,64.0
4172,77.0,0.0,60.0,0.0,64.0
4173,65.0,0.0,60.0,11.0,64.0
4174,72.0,0.0,60.0,11.0,64.0
4175,77.0,3.0,60.0,1.0,64.0
4176,69.0,0.0,60.0,10.0,64.0
4177,77.0,57.0,60.0,10.0,64.0
4178,69.0,0.0,60.0,10.0,64.0
4179,79.0,3.0,60.0,0.0,64.0
4180,65.0,0.0,60.0,11.0,64.0
4181,72.0,60.0,60.0,11.0,64.0
4182,79.0,0.0,60.0,1.0,64.0
4183,77.0,0.0,60.0,10.0,64.0
4184,77.0,0.0,60.0,10.0,64.0
4185,69.0,60.0,60.0,10.0,64.0
4186,72.0,0.0,60.0,11.0,64.0
4187,81.0,0.0,180.0,0.0,64.0
4188,33.0,0.0,180.0,14.0,64.0
4189,81.0,0.0,180.0,1.0,64.0
4190,45.0,0.0,180.0,13.0,64.0
4191,57.0,0.0,180.0,12.0,64.0
4192,65.0,0.0,60.0,11.0,64.0
4193,45.0,48.0,180.0,3.0,64.0
4194,65.0,60.0,60.0,11.0,64.0
4195,72.0,0.0,60.0,11.0,64.0
4196,77.0,0.0,60.0,10.0,64.0
4197,69.0,0.0,60.0,10.0,64.0
4198,77.0,0.0,60.0,10.0,64.0
4199,69.0,12.0,60.0,10.0,64.0
4200,65.0,0.0,60.0,11.0,64.0
4201,72.0,0.0,60.0,11.0,64.0
4202,69.0,0.0,60.0,10.0,64.0
4203,77.0,0.0,60.0,10.0,64.0
4204,65.0,60.0,60.0,11.0,64.0
4205,72.0,0.0,60.0,11.0,64.0
4206,45.0,0.0,180.0,3.0,64.0
4207,77.0,0.0,60.0,10.0,64.0
4208,69.0,0.0,60.0,10.0,64.0
4209,33.0,48.0,180.0,14.0,64.0
4210,57.0,0.0,180.0,12.0,64.0
4211,65.0,0.0,60.0,11.0,64.0
4212,72.0,0.0,60.0,11.0,64.0
4213,45.0,0.0,180.0,13.0,64.0
4214,77.0,0.0,60.0,10.0,64.0
4215,69.0,60.0,60.0,10.0,64.0
4216,72.0,0.0,60.0,11.0,64.0
4217,65.0,0.0,60.0,11.0,64.0
4218,72.0,12.0,60.0,11.0,64.0
4219,77.0,0.0,60.0,10.0,64.0
4220,69.0,0.0,60.0,10.0,64.0
4221,65.0,0.0,60.0,11.0,64.0
4222,65.0,0.0,60.0,11.0,64.0
4223,72.0,0.0,60.0,11.0,64.0
4224,77.0,0.0,60.0,10.0,64.0
4225,69.0,60.0,60.0,10.0,64.0
4226,65.0,0.0,60.0,11.0,64.0
4227,60.0,21.0,390.0,4.0,64.0
4228,33.0,0.0,90.0,14.0,64.0
4229,65.0,0.0,390.0,2.0,64.0
4230,57.0,0.0,390.0,2.0,64.0
4231,53.0,0.0,390.0,4.0,64.0
4232,72.0,0.0,60.0,11.0,64.0
4233,45.0,18.0,90.0,13.0,64.0
4234,72.0,0.0,390.0,1.0,64.0
4235,45.0,0.0,90.0,3.0,64.0
4236,57.0,0.0,90.0,12.0,64.0
4237,72.0,0.0,390.0,0.0,64.0
4238,69.0,0.0,60.0,10.0,64.0
4239,77.0,42.0,60.0,10.0,64.0
4240,65.0,0.0,180.0,5.0,64.0
4241,41.0,33.0,180.0,6.0,64.0
4242,69.0,0.0,60.0,10.0,64.0
4243,77.0,0.0,60.0,10.0,64.0
4244,72.0,57.0,60.0,11.0,64.0
4245,65.0,0.0,60.0,11.0,64.0
4246,46.0,3.0,60.0,13.0,64.0
4247,46.0,0.0,60.0,3.0,64.0
4248,58.0,0.0,60.0,12.0,64.0
4249,65.0,24.0,60.0,11.0,64.0
4250,72.0,0.0,60.0,11.0,64.0
4251,34.0,0.0,60.0,14.0,64.0
4252,69.0,0.0,60.0,10.0,64.0
4253,77.0,0.0,60.0,10.0,64.0
4254,48.0,0.0,60.0,3.0,64.0
4255,60.0,0.0,60.0,12.0,64.0
4256,65.0,0.0,60.0,11.0,64.0
4257,48.0,3.0,60.0,13.0,64.0
4258,36.0,0.0,60.0,14.0,64.0
4259,72.0,0.0,60.0,11.0,64.0
4260,77.0,57.0,60.0,10.0,64.0
4261,69.0,0.0,60.0,10.0,64.0
4262,62.0,0.0,60.0,12.0,64.0
4263,50.0,3.0,60.0,13.0,64.0
4264,77.0,0.0,60.0,10.0,64.0
4265,72.0,57.0,60.0,11.0,64.0
4266,65.0,0.0,60.0,11.0,64.0
4267,38.0,0.0,60.0,14.0,64.0
4268,50.0,0.0,60.0,3.0,64.0
4269,69.0,0.0,60.0,10.0,64.0
4270,52.0,0.0,60.0,13.0,64.0
4271,69.0,0.0,60.0,10.0,64.0
4272,77.0,0.0,60.0,10.0,64.0
4273,72.0,36.0,60.0,11.0,64.0
4274,65.0,0.0,60.0,11.0,64.0
4275,64.0,3.0,60.0,12.0,64.0
4276,52.0,0.0,60.0,3.0,64.0
4277,40.0,0.0,60.0,14.0,64.0
4278,77.0,57.0,60.0,10.0,64.0
4279,41.0,0.0,60.0,14.0,64.0
4280,69.0,0.0,60.0,10.0,64.0
4281,65.0,0.0,60.0,11.0,64.0
4282,53.0,0.0,60.0,3.0,64.0
4283,65.0,3.0,60.0,12.0,64.0
4284,72.0,0.0,60.0,11.0,64.0
4285,53.0,0.0,60.0,13.0,64.0
4286,67.0,0.0,60.0,12.0,64.0
4287,77.0,0.0,60.0,10.0,64.0
4288,72.0,0.0,60.0,11.0,64.0
4289,65.0,60.0,60.0,11.0,64.0
4290,69.0,0.0,60.0,10.0,64.0
4291,55.0,0.0,60.0,3.0,64.0
4292,43.0,0.0,60.0,14.0,64.0
4293,55.0,3.0,60.0,13.0,64.0
4294,69.0,0.0,60.0,10.0,64.0
4295,60.0,0.0,180.0,4.0,64.0
4296,53.0,36.0,180.0,4.0,64.0
4297,72.0,0.0,180.0,1.0,64.0
4298,72.0,0.0,60.0,11.0,64.0
4299,57.0,0.0,180.0,3.0,64.0
4300,65.0,60.0,60.0,11.0,64.0
4301,65.0,0.0,180.0,2.0,64.0
4302,57.0,0.0,180.0,13.0,64.0
4303,45.0,0.0,180.0,14.0,64.0
4304,57.0,0.0,180.0,2.0,64.0
4305,77.0,0.0,60.0,10.0,64.0
4306,69.0,12.0,180.0,12.0,64.0
4307,72.0,0.0,180.0,0.0,64.0
4308,69.0,0.0,60.0,10.0,64.0
4309,65.0,0.0,60.0,11.0,64.0
4310,77.0,60.0,60.0,10.0,64.0
4311,72.0,0.0,60.0,11.0,64.0
4312,72.0,12.0,60.0,11.0,64.0
4313,77.0,0.0,60.0,10.0,64.0
4314,65.0,0.0,60.0,11.0,64.0
4315,69.0,0.0,60.0,10.0,64.0
4316,72.0,60.0,60.0,11.0,64.0
4317,65.0,0.0,60.0,11.0,64.0
4318,69.0,0.0,60.0,10.0,64.0
4319,77.0,0.0,60.0,10.0,64.0
4320,53.0,0.0,180.0,4.0,64.0
4321,65.0,0.0,180.0,2.0,64.0
4322,60.0,36.0,180.0,4.0,64.0
4323,72.0,0.0,60.0,11.0,64.0
4324,77.0,0.0,60.0,10.0,64.0
4325,69.0,60.0,60.0,10.0,64.0
4326,65.0,0.0,60.0,11.0,64.0
4327,72.0,0.0,180.0,1.0,64.0
4328,57.0,0.0,180.0,2.0,64.0
4329,72.0,12.0,180.0,0.0,64.0
4330,72.0,0.0,60.0,11.0,64.0
4331,65.0,0.0,60.0,11.0,64.0
4332,77.0,60.0,60.0,10.0,64.0
4333,69.0,0.0,60.0,10.0,64.0
4334,65.0,0.0,60.0,11.0,64.0
4335,69.0,0.0,60.0,10.0,64.0
4336,72.0,12.0,60.0,11.0,64.0
4337,77.0,0.0,60.0,10.0,64.0
4338,77.0,0.0,60.0,10.0,64.0
4339,72.0,0.0,60.0,11.0,64.0
4340,69.0,0.0,60.0,10.0,64.0
4341,65.0,60.0,60.0,11.0,64.0
4342,77.0,0.0,60.0,10.0,64.0
4343,69.0,0.0,60.0,10.0,64.0
4344,36.0,21.0,390.0,14.0,64.0
4345,48.0,0.0,390.0,3.0,64.0
4346,60.0,0.0,780.0,4.0,64.0
4347,72.0,0.0,90.0,1.0,64.0
4348,72.0,42.0,60.0,11.0,64.0
4349,65.0,0.0,60.0,11.0,64.0
4350,65.0,0.0,780.0,2.0,64.0
4351,57.0,0.0,780.0,2.0,64.0
4352,60.0,0.0,390.0,12.0,64.0
4353,53.0,0.0,780.0,4.0,64.0
4354,48.0,0.0,390.0,13.0,64.0
4355,72.0,18.0,90.0,0.0,64.0
4356,72.0,57.0,60.0,11.0,64.0
4357,65.0,0.0,60.0,11.0,64.0
4358,77.0,0.0,60.0,10.0,64.0
4359,69.0,0.0,60.0,10.0,64.0
4360,77.0,0.0,60.0,10.0,64.0
4361,72.0,57.0,60.0,11.0,64.0
4362,69.0,0.0,60.0,10.0,64.0
4363,65.0,0.0,60.0,11.0,64.0
4364,74.0,0.0,60.0,0.0,64.0
4365,74.0,3.0,60.0,1.0,64.0
4366,76.0,0.0,60.0,1.0,64.0
4367,65.0,0.0,60.0,11.0,64.0
4368,72.0,57.0,60.0,11.0,64.0
4369,76.0,3.0,60.0,0.0,64.0
4370,77.0,0.0,60.0,10.0,64.0
4371,69.0,0.0,60.0,10.0,64.0
4372,72.0,0.0,60.0,11.0,64.0
4373,77.0,0.0,60.0,10.0,64.0
4374,69.0,0.0,60.0,10.0,64.0
4375,65.0,57.0,60.0,11.0,64.0
4376,77.0,0.0,60.0,0.0,64.0
4377,77.0,3.0,60.0,1.0,64.0
4378,79.0,0.0,60.0,0.0,64.0
4379,77.0,0.0,60.0,10.0,64.0
4380,79.0,3.0,60.0,1.0,64.0
4381,72.0,0.0,60.0,11.0,64.0
4382,69.0,0.0,60.0,10.0,64.0
4383,65.0,36.0,60.0,11.0,64.0
4384,77.0,0.0,60.0,10.0,64.0
4385,69.0,0.0,60.0,10.0,64.0
4386,81.0,0.0,60.0,0.0,64.0
4387,81.0,3.0,60.0,1.0,64.0
4388,72.0,0.0,60.0,11.0,64.0
4389,65.0,57.0,60.0,11.0,64.0
4390,82.0,0.0,60.0,0.0,64.0
4391,82.0,3.0,60.0,1.0,64.0
4392,72.0,60.0,60.0,11.0,64.0
4393,65.0,0.0,60.0,11.0,64.0
4394,69.0,0.0,60.0,10.0,64.0
4395,77.0,0.0,60.0,10.0,64.0
4396,69.0,0.0,60.0,10.0,64.0
4397,77.0,0.0,60.0,10.0,64.0
4398,48.0,48.0,180.0,3.0,64.0
4399,72.0,60.0,60.0,11.0,64.0
4400,36.0,0.0,180.0,14.0,64.0
4401,84.0,0.0,180.0,1.0,64.0
4402,60.0,0.0,180.0,12.0,64.0
4403,84.0,0.0,180.0,0.0,64.0
4404,48.0,0.0,180.0,13.0,64.0
4405,65.0,0.0,60.0,11.0,64.0
4406,77.0,0.0,60.0,10.0,64.0
4407,65.0,0.0,60.0,11.0,64.0
4408,72.0,0.0,60.0,11.0,64.0
4409,69.0,60.0,60.0,10.0,64.0
4410,65.0,0.0,60.0,11.0,64.0
4411,72.0,0.0,60.0,11.0,64.0
4412,69.0,12.0,60.0,10.0,64.0
4413,77.0,0.0,60.0,10.0,64.0
4414,65.0,0.0,60.0,11.0,64.0
4415,72.0,0.0,60.0,11.0,64.0
4416,69.0,0.0,60.0,10.0,64.0
4417,77.0,60.0,60.0,10.0,64.0
4418,65.0,60.0,60.0,11.0,64.0
4419,36.0,0.0,180.0,14.0,64.0
4420,60.0,0.0,180.0,12.0,64.0
4421,48.0,48.0,180.0,3.0,64.0
4422,72.0,0.0,60.0,11.0,64.0
4423,77.0,0.0,60.0,10.0,64.0
4424,48.0,0.0,180.0,13.0,64.0
4425,69.0,0.0,60.0,10.0,64.0
4426,77.0,0.0,60.0,10.0,64.0
4427,72.0,60.0,60.0,11.0,64.0
4428,69.0,0.0,60.0,10.0,64.0
4429,65.0,0.0,60.0,11.0,64.0
4430,72.0,0.0,60.0,11.0,64.0
4431,65.0,12.0,60.0,11.0,64.0
4432,69.0,0.0,60.0,10.0,64.0
4433,77.0,0.0,60.0,10.0,64.0
4434,65.0,60.0,60.0,11.0,64.0
4435,77.0,0.0,60.0,10.0,64.0
4436,72.0,0.0,60.0,11.0,64.0
4437,69.0,0.0,60.0,10.0,64.0
4438,36.0,0.0,90.0,14.0,64.0
4439,84.0,45.0,120.0,10.0,64.0
4440,60.0,21.0,390.0,4.0,64.0
4441,53.0,0.0,390.0,4.0,64.0
4442,69.0,0.0,60.0,11.0,64.0
4443,84.0,0.0,120.0,0.0,64.0
4444,60.0,0.0,90.0,12.0,64.0
4445,77.0,42.0,60.0,11.0,64.0
4446,48.0,0.0,90.0,3.0,64.0
4447,48.0,18.0,90.0,13.0,64.0
4448,77.0,0.0,60.0,11.0,64.0
4449,69.0,12.0,60.0,11.0,64.0
4450,62.0,3.0,60.0,12.0,64.0
4451,69.0,0.0,60.0,11.0,64.0
4452,77.0,57.0,60.0,11.0,64.0
4453,50.0,0.0,60.0,13.0,64.0
4454,50.0,0.0,60.0,3.0,64.0
4455,38.0,0.0,60.0,14.0,64.0
4456,69.0,0.0,60.0,11.0,64.0
4457,77.0,57.0,60.0,11.0,64.0
4458,64.0,0.0,60.0,12.0,64.0
4459,52.0,3.0,60.0,13.0,64.0
4460,52.0,0.0,60.0,3.0,64.0
4461,40.0,0.0,60.0,14.0,64.0
4462,41.0,0.0,60.0,14.0,64.0
4463,65.0,0.0,60.0,12.0,64.0
4464,53.0,3.0,60.0,13.0,64.0
4465,81.0,24.0,120.0,0.0,64.0
4466,81.0,0.0,120.0,10.0,64.0
4467,77.0,0.0,60.0,11.0,64.0
4468,53.0,0.0,60.0,3.0,64.0
4469,69.0,57.0,60.0,11.0,64.0
4470,77.0,0.0,60.0,11.0,64.0
4471,55.0,0.0,60.0,3.0,64.0
4472,55.0,0.0,60.0,13.0,64.0
4473,43.0,0.0,60.0,14.0,64.0
4474,67.0,3.0,60.0,12.0,64.0
4475,69.0,12.0,60.0,11.0,64.0
4476,57.0,3.0,60.0,13.0,64.0
4477,57.0,0.0,60.0,3.0,64.0
4478,69.0,0.0,60.0,11.0,64.0
4479,77.0,57.0,60.0,11.0,64.0
4480,45.0,0.0,60.0,14.0,64.0
4481,69.0,0.0,60.0,12.0,64.0
4482,46.0,0.0,60.0,14.0,64.0
4483,69.0,60.0,60.0,11.0,64.0
4484,77.0,0.0,60.0,11.0,64.0
4485,58.0,0.0,60.0,3.0,64.0
4486,58.0,0.0,60.0,13.0,64.0
4487,70.0,3.0,60.0,12.0,64.0
4488,77.0,0.0,60.0,11.0,64.0
4489,69.0,60.0,60.0,11.0,64.0
4490,77.0,0.0,120.0,0.0,64.0
4491,77.0,48.0,120.0,10.0,64.0
4492,60.0,0.0,180.0,3.0,64.0
4493,48.0,12.0,180.0,14.0,64.0
4494,60.0,36.0,180.0,4.0,64.0
4495,53.0,0.0,180.0,4.0,64.0
4496,60.0,0.0,180.0,13.0,64.0
4497,72.0,0.0,180.0,12.0,64.0
4498,77.0,12.0,60.0,11.0,64.0
4499,69.0,0.0,60.0,11.0,64.0
4500,69.0,12.0,60.0,11.0,64.0
4501,77.0,0.0,60.0,11.0,64.0
4502,69.0,60.0,60.0,11.0,64.0
4503,77.0,0.0,60.0,11.0,64.0
4504,72.0,0.0,120.0,10.0,64.0
4505,72.0,48.0,120.0,0.0,64.0
4506,53.0,36.0,180.0,4.0,64.0
4507,60.0,0.0,180.0,4.0,64.0
4508,77.0,60.0,60.0,11.0,64.0
4509,69.0,0.0,60.0,11.0,64.0
4510,77.0,0.0,60.0,11.0,64.0
4511,69.0,12.0,60.0,11.0,64.0
4512,77.0,0.0,60.0,11.0,64.0
4513,69.0,24.0,60.0,11.0,64.0
4514,77.0,0.0,60.0,11.0,64.0
4515,69.0,60.0,60.0,11.0,64.0
4516,81.0,0.0,120.0,0.0,64.0
4517,60.0,24.0,390.0,4.0,64.0
4518,69.0,0.0,120.0,2.0,64.0
4519,81.0,48.0,120.0,10.0,64.0
4520,77.0,0.0,60.0,11.0,64.0
4521,53.0,0.0,390.0,4.0,64.0
4522,69.0,0.0,120.0,12.0,64.0
4523,69.0,60.0,60.0,11.0,64.0
4524,69.0,12.0,60.0,11.0,64.0
4525,77.0,0.0,60.0,11.0,64.0
4526,69.0,60.0,60.0,11.0,64.0
4527,77.0,0.0,60.0,11.0,64.0
4528,77.0,60.0,60.0,11.0,64.0
4529,69.0,0.0,60.0,11.0,64.0
4530,77.0,24.0,120.0,10.0,64.0
4531,69.0,60.0,60.0,11.0,64.0
4532,77.0,0.0,60.0,11.0,64.0
4533,77.0,0.0,120.0,0.0,64.0
4534,65.0,0.0,120.0,12.0,64.0
4535,65.0,0.0,120.0,2.0,64.0
4536,69.0,0.0,60.0,11.0,64.0
4537,77.0,12.0,60.0,11.0,64.0
4538,77.0,60.0,60.0,11.0,64.0
4539,69.0,0.0,60.0,11.0,64.0
4540,77.0,60.0,60.0,11.0,64.0
4541,69.0,0.0,60.0,11.0,64.0
4542,69.0,60.0,60.0,11.0,64.0
4543,77.0,0.0,60.0,11.0,64.0
4544,60.0,0.0,180.0,4.0,64.0
4545,72.0,0.0,120.0,10.0,64.0
4546,60.0,48.0,120.0,12.0,64.0
4547,72.0,0.0,120.0,0.0,64.0
4548,53.0,36.0,180.0,4.0,64.0
4549,60.0,0.0,120.0,2.0,64.0
4550,69.0,12.0,60.0,11.0,64.0
4551,77.0,0.0,60.0,11.0,64.0
4552,69.0,0.0,60.0,11.0,64.0
4553,77.0,24.0,60.0,11.0,64.0
4554,77.0,0.0,60.0,11.0,64.0
4555,69.0,60.0,60.0,11.0,64.0
4556,77.0,60.0,60.0,11.0,64.0
4557,69.0,0.0,60.0,11.0,64.0
4558,60.0,0.0,180.0,4.0,64.0
4559,69.0,48.0,120.0,10.0,64.0
4560,57.0,0.0,120.0,12.0,64.0
4561,69.0,0.0,120.0,0.0,64.0
4562,53.0,36.0,180.0,4.0,64.0
4563,57.0,0.0,120.0,2.0,64.0
4564,69.0,12.0,60.0,11.0,64.0
4565,77.0,0.0,60.0,11.0,64.0
4566,69.0,0.0,60.0,11.0,64.0
4567,77.0,24.0,60.0,11.0,64.0
4568,69.0,60.0,60.0,11.0,64.0
4569,77.0,0.0,60.0,11.0,64.0
4570,53.0,0.0,120.0,13.0,64.0
4571,69.0,0.0,780.0,0.0,64.0
4572,77.0,0.0,780.0,0.0,64.0
4573,53.0,0.0,180.0,4.0,64.0
4574,65.0,0.0,780.0,5.0,64.0
4575,60.0,36.0,180.0,4.0,64.0
4576,65.0,0.0,120.0,12.0,64.0
4577,77.0,48.0,120.0,1.0,64.0
4578,41.0,24.0,390.0,6.0,64.0
4579,53.0,0.0,120.0,3.0,64.0
4580,77.0,0.0,60.0,10.0,64.0
4581,41.0,0.0,120.0,14.0,64.0
4582,77.0,60.0,60.0,11.0,64.0
4583,65.0,0.0,120.0,2.0,64.0
4584,77.0,0.0,60.0,10.0,64.0
4585,77.0,12.0,60.0,11.0,64.0
4586,77.0,0.0,60.0,11.0,64.0
4587,77.0,24.0,60.0,10.0,64.0
4588,77.0,0.0,60.0,11.0,64.0
4589,77.0,60.0,60.0,10.0,64.0
4590,72.0,0.0,60.0,10.0,64.0
4591,60.0,0.0,120.0,12.0,64.0
4592,72.0,60.0,60.0,11.0,64.0
4593,72.0,24.0,120.0,1.0,64.0
4594,60.0,0.0,120.0,2.0,64.0
4595,36.0,0.0,120.0,14.0,64.0
4596,48.0,0.0,120.0,3.0,64.0
4597,48.0,0.0,120.0,13.0,64.0
4598,60.0,0.0,180.0,4.0,64.0
4599,53.0,36.0,180.0,4.0,64.0
4600,72.0,12.0,60.0,11.0,64.0
4601,72.0,0.0,60.0,10.0,64.0
4602,72.0,0.0,60.0,10.0,64.0
4603,72.0,24.0,60.0,11.0,64.0
4604,72.0,0.0,60.0,11.0,64.0
4605,72.0,60.0,60.0,10.0,64.0
4606,69.0,60.0,60.0,11.0,64.0
4607,69.0,0.0,60.0,10.0,64.0
4608,45.0,0.0,120.0,3.0,64.0
4609,33.0,48.0,120.0,14.0,64.0
4610,57.0,0.0,120.0,2.0,64.0
4611,69.0,0.0,120.0,1.0,64.0
4612,60.0,0.0,180.0,4.0,64.0
4613,53.0,36.0,180.0,4.0,64.0
4614,57.0,0.0,120.0,12.0,64.0
4615,45.0,0.0,120.0,13.0,64.0
4616,69.0,0.0,60.0,10.0,64.0
4617,69.0,12.0,60.0,11.0,64.0
4618,69.0,24.0,60.0,11.0,64.0
4619,69.0,0.0,60.0,10.0,64.0
4620,69.0,60.0,60.0,10.0,64.0
4621,69.0,0.0,60.0,11.0,64.0
4622,53.0,0.0,180.0,4.0,64.0
4623,65.0,60.0,60.0,10.0,64.0
4624,60.0,0.0,180.0,4.0,64.0
4625,29.0,0.0,120.0,14.0,64.0
4626,65.0,48.0,120.0,1.0,64.0
4627,41.0,0.0,120.0,13.0,64.0
4628,41.0,0.0,120.0,3.0,64.0
4629,53.0,36.0,180.0,2.0,64.0
4630,53.0,0.0,120.0,12.0,64.0
4631,65.0,0.0,60.0,11.0,64.0
4632,65.0,12.0,60.0,10.0,64.0
4633,65.0,0.0,60.0,11.0,64.0
4634,65.0,0.0,60.0,11.0,64.0
4635,65.0,24.0,60.0,10.0,64.0
4636,65.0,60.0,60.0,11.0,64.0
4637,65.0,0.0,60.0,10.0,64.0
4638,74.0,30.0,60.0,10.0,64.0
4639,62.0,0.0,120.0,3.0,64.0
4640,70.0,0.0,900.0,2.0,64.0
4641,65.0,0.0,2370.0,2.0,64.0
4642,53.0,0.0,180.0,4.0,64.0
4643,62.0,30.0,90.0,12.0,64.0
4644,50.0,48.0,120.0,14.0,64.0
4645,65.0,6.0,180.0,4.0,64.0
4646,77.0,0.0,2370.0,0.0,64.0
4647,58.0,30.0,780.0,5.0,64.0
4648,70.0,0.0,780.0,5.0,64.0
4649,46.0,24.0,390.0,6.0,64.0
4650,62.0,0.0,120.0,13.0,64.0
4651,74.0,0.0,120.0,1.0,64.0
4652,86.0,0.0,900.0,0.0,64.0
4653,74.0,0.0,60.0,11.0,64.0
4654,74.0,12.0,60.0,11.0,64.0
4655,74.0,0.0,60.0,10.0,64.0
4656,74.0,24.0,60.0,11.0,64.0
4657,74.0,0.0,60.0,10.0,64.0
4658,62.0,30.0,90.0,12.0,64.0
4659,74.0,60.0,60.0,11.0,64.0
4660,74.0,0.0,60.0,10.0,64.0
4661,70.0,0.0,120.0,1.0,64.0
4662,70.0,30.0,60.0,10.0,64.0
4663,46.0,24.0,120.0,14.0,64.0
4664,70.0,0.0,60.0,11.0,64.0
4665,58.0,0.0,120.0,3.0,64.0
4666,58.0,0.0,120.0,13.0,64.0
4667,58.0,18.0,90.0,12.0,64.0
4668,53.0,12.0,90.0,4.0,64.0
4669,65.0,0.0,90.0,4.0,64.0
4670,70.0,12.0,60.0,11.0,64.0
4671,70.0,0.0,60.0,10.0,64.0
4672,58.0,18.0,90.0,12.0,64.0
4673,70.0,0.0,60.0,10.0,64.0
4674,70.0,30.0,60.0,11.0,64.0
4675,53.0,0.0,90.0,4.0,64.0
4676,65.0,12.0,90.0,4.0,64.0
4677,70.0,0.0,60.0,11.0,64.0
4678,70.0,60.0,60.0,10.0,64.0
4679,41.0,0.0,120.0,14.0,64.0
4680,53.0,48.0,120.0,13.0,64.0
4681,65.0,0.0,60.0,10.0,64.0
4682,53.0,0.0,180.0,4.0,64.0
4683,53.0,30.0,90.0,12.0,64.0
4684,65.0,30.0,60.0,11.0,64.0
4685,65.0,6.0,180.0,4.0,64.0
4686,65.0,0.0,120.0,1.0,64.0
4687,53.0,0.0,120.0,3.0,64.0
4688,65.0,12.0,60.0,10.0,64.0
4689,65.0,0.0,60.0,11.0,64.0
4690,65.0,24.0,60.0,11.0,64.0
4691,65.0,0.0,60.0,10.0,64.0
4692,53.0,30.0,90.0,12.0,64.0
4693,65.0,0.0,60.0,10.0,64.0
4694,65.0,60.0,60.0,11.0,64.0
4695,50.0,30.0,90.0,12.0,64.0
4696,50.0,0.0,120.0,13.0,64.0
4697,53.0,6.0,180.0,4.0,64.0
4698,65.0,0.0,180.0,4.0,64.0
4699,62.0,0.0,60.0,10.0,64.0
4700,38.0,48.0,120.0,14.0,64.0
4701,62.0,0.0,60.0,11.0,64.0
4702,50.0,0.0,120.0,3.0,64.0
4703,62.0,0.0,120.0,1.0,64.0
4704,62.0,0.0,60.0,11.0,64.0
4705,62.0,12.0,60.0,10.0,64.0
4706,62.0,0.0,60.0,10.0,64.0
4707,50.0,30.0,90.0,12.0,64.0
4708,62.0,24.0,60.0,11.0,64.0
4709,62.0,0.0,60.0,11.0,64.0
4710,62.0,168.0,60.0,10.0,64.0
4711,48.0,0.0,150.0,12.0,64.0
4712,48.0,36.0,150.0,3.0,64.0
4713,60.0,0.0,150.0,10.0,64.0
4714,48.0,0.0,150.0,13.0,64.0
4715,36.0,0.0,150.0,14.0,64.0
4716,60.0,192.0,180.0,4.0,64.0
4717,69.0,204.0,900.0,2.0,64.0
4718,60.0,0.0,150.0,11.0,64.0
4719,60.0,12.0,390.0,1.0,64.0
4720,81.0,0.0,900.0,0.0,64.0
4721,69.0,240.0,150.0,11.0,64.0
4722,77.0,0.0,150.0,10.0,64.0
4723,60.0,0.0,150.0,11.0,64.0
4724,77.0,0.0,150.0,11.0,64.0
4725,60.0,0.0,150.0,10.0,64.0
4726,69.0,0.0,150.0,10.0,64.0
4727,50.0,0.0,150.0,3.0,64.0
4728,69.0,12.0,390.0,1.0,64.0
4729,50.0,0.0,150.0,13.0,64.0
4730,62.0,192.0,180.0,4.0,64.0
4731,62.0,0.0,150.0,12.0,64.0
4732,65.0,0.0,390.0,1.0,64.0
4733,38.0,36.0,150.0,14.0,64.0
4734,69.0,0.0,150.0,10.0,64.0
4735,77.0,36.0,150.0,10.0,64.0
4736,62.0,0.0,150.0,10.0,64.0
4737,77.0,0.0,150.0,11.0,64.0
4738,62.0,0.0,150.0,11.0,64.0
4739,69.0,0.0,150.0,11.0,64.0
4740,46.0,0.0,150.0,13.0,64.0
4741,58.0,204.0,180.0,4.0,64.0
4742,62.0,0.0,180.0,4.0,64.0
4743,70.0,0.0,180.0,5.0,64.0
4744,79.0,24.0,450.0,0.0,64.0
4745,74.0,156.0,480.0,1.0,64.0
4746,62.0,36.0,150.0,12.0,64.0
4747,65.0,0.0,480.0,1.0,64.0
4748,67.0,0.0,450.0,2.0,64.0
4749,46.0,0.0,150.0,3.0,64.0
4750,34.0,0.0,150.0,14.0,64.0
4751,67.0,0.0,150.0,10.0,64.0
4752,77.0,0.0,150.0,11.0,64.0
4753,58.0,0.0,150.0,11.0,64.0
4754,67.0,0.0,150.0,11.0,64.0
4755,77.0,0.0,150.0,10.0,64.0
4756,58.0,60.0,150.0,10.0,64.0
4757,67.0,88.0,450.0,2.0,64.0
4758,70.0,12.0,390.0,1.0,64.0
4759,60.0,192.0,180.0,4.0,64.0
4760,36.0,0.0,150.0,14.0,64.0
4761,48.0,36.0,150.0,3.0,64.0
4762,48.0,0.0,150.0,13.0,64.0
4763,72.0,0.0,180.0,5.0,64.0
4764,72.0,0.0,390.0,1.0,64.0
4765,76.0,0.0,450.0,0.0,64.0
4766,79.0,0.0,450.0,0.0,64.0
4767,64.0,0.0,450.0,2.0,64.0
4768,60.0,0.0,150.0,12.0,64.0
4769,67.0,0.0,150.0,11.0,64.0
4770,76.0,0.0,150.0,10.0,64.0
4771,76.0,0.0,150.0,11.0,64.0
4772,67.0,0.0,150.0,10.0,64.0
4773,60.0,60.0,150.0,10.0,64.0
4774,60.0,0.0,150.0,11.0,64.0
4775,77.0,0.0,120.0,11.0,64.0
4776,41.0,0.0,60.0,14.0,64.0
4777,72.0,8.0,450.0,1.0,64.0
4778,69.0,8.0,930.0,1.0,64.0
4779,65.0,32.0,180.0,5.0,64.0
4780,65.0,0.0,4740.0,2.0,64.0
4781,53.0,0.0,60.0,3.0,64.0
4782,53.0,0.0,60.0,13.0,64.0
4783,65.0,12.0,120.0,11.0,64.0
4784,77.0,0.0,4740.0,0.0,64.0
4785,60.0,36.0,150.0,4.0,64.0
4786,41.0,0.0,180.0,6.0,64.0
4787,57.0,68.0,60.0,12.0,64.0
4788,77.0,0.0,120.0,10.0,64.0
4789,53.0,0.0,150.0,4.0,64.0
4790,65.0,0.0,120.0,10.0,64.0
4791,41.0,12.0,60.0,14.0,64.0
4792,53.0,0.0,60.0,3.0,64.0
4793,53.0,0.0,60.0,13.0,64.0
4794,57.0,0.0,60.0,12.0,64.0
4795,53.0,0.0,60.0,3.0,64.0
4796,53.0,0.0,60.0,13.0,64.0
4797,41.0,0.0,60.0,14.0,64.0
4798,57.0,80.0,60.0,12.0,64.0
4799,53.0,0.0,60.0,3.0,64.0
4800,53.0,68.0,60.0,13.0,64.0
4801,81.0,12.0,120.0,10.0,64.0
4802,57.0,0.0,60.0,12.0,64.0
4803,41.0,0.0,60.0,14.0,64.0
4804,58.0,0.0,60.0,12.0,64.0
4805,55.0,0.0,60.0,3.0,64.0
4806,43.0,0.0,60.0,14.0,64.0
4807,55.0,72.0,60.0,13.0,64.0
4808,45.0,80.0,60.0,14.0,64.0
4809,57.0,0.0,60.0,3.0,64.0
4810,60.0,0.0,60.0,12.0,64.0
4811,57.0,0.0,60.0,13.0,64.0
4812,69.0,12.0,120.0,11.0,64.0
4813,84.0,0.0,120.0,10.0,64.0
4814,57.0,0.0,60.0,12.0,64.0
4815,41.0,0.0,60.0,14.0,64.0
4816,53.0,0.0,60.0,3.0,64.0
4817,53.0,0.0,150.0,4.0,64.0
4818,60.0,0.0,120.0,11.0,64.0
4819,53.0,0.0,120.0,11.0,64.0
4820,60.0,68.0,150.0,4.0,64.0
4821,53.0,68.0,60.0,13.0,64.0
4822,77.0,0.0,4260.0,1.0,64.0
4823,41.0,0.0,60.0,14.0,64.0
4824,53.0,0.0,60.0,13.0,64.0
4825,57.0,0.0,60.0,12.0,64.0
4826,53.0,12.0,60.0,3.0,64.0
4827,53.0,0.0,60.0,13.0,64.0
4828,53.0,80.0,60.0,3.0,64.0
4829,41.0,0.0,60.0,14.0,64.0
4830,57.0,0.0,60.0,12.0,64.0
4831,53.0,0.0,60.0,3.0,64.0
4832,57.0,0.0,60.0,12.0,64.0
4833,53.0,60.0,150.0,4.0,64.0
4834,60.0,0.0,150.0,4.0,64.0
4835,41.0,0.0,60.0,14.0,64.0
4836,53.0,68.0,60.0,13.0,64.0
4837,72.0,12.0,120.0,11.0,64.0
4838,43.0,0.0,60.0,14.0,64.0
4839,55.0,0.0,60.0,3.0,64.0
4840,58.0,0.0,60.0,12.0,64.0
4841,55.0,12.0,60.0,13.0,64.0
4842,45.0,0.0,60.0,14.0,64.0
4843,57.0,0.0,60.0,13.0,64.0
4844,60.0,80.0,60.0,12.0,64.0
4845,57.0,0.0,60.0,3.0,64.0
4846,69.0,0.0,900.0,2.0,64.0
4847,84.0,0.0,900.0,0.0,64.0
4848,60.0,0.0,150.0,4.0,64.0
4849,53.0,36.0,150.0,4.0,64.0
4850,53.0,0.0,60.0,3.0,64.0
4851,77.0,0.0,120.0,10.0,64.0
4852,72.0,32.0,900.0,1.0,64.0
4853,65.0,0.0,180.0,5.0,64.0
4854,65.0,0.0,120.0,10.0,64.0
4855,53.0,0.0,60.0,13.0,64.0
4856,57.0,68.0,60.0,12.0,64.0
4857,77.0,12.0,120.0,11.0,64.0
4858,41.0,0.0,60.0,14.0,64.0
4859,41.0,32.0,180.0,6.0,64.0
4860,53.0,0.0,60.0,3.0,64.0
4861,41.0,0.0,60.0,14.0,64.0
4862,57.0,0.0,60.0,12.0,64.0
4863,53.0,12.0,60.0,13.0,64.0
4864,57.0,0.0,60.0,12.0,64.0
4865,53.0,0.0,60.0,13.0,64.0
4866,41.0,80.0,60.0,14.0,64.0
4867,53.0,0.0,60.0,3.0,64.0
4868,53.0,68.0,60.0,3.0,64.0
4869,53.0,0.0,60.0,13.0,64.0
4870,41.0,0.0,60.0,14.0,64.0
4871,57.0,0.0,60.0,12.0,64.0
4872,81.0,12.0,120.0,10.0,64.0
4873,58.0,0.0,60.0,12.0,64.0
4874,43.0,0.0,60.0,14.0,64.0
4875,55.0,80.0,60.0,3.0,64.0
4876,55.0,0.0,60.0,13.0,64.0
4877,57.0,80.0,60.0,13.0,64.0
4878,60.0,0.0,60.0,12.0,64.0
4879,45.0,0.0,60.0,14.0,64.0
4880,57.0,0.0,60.0,3.0,64.0
4881,60.0,0.0,150.0,4.0,64.0
4882,53.0,68.0,150.0,4.0,64.0
4883,41.0,0.0,60.0,14.0,64.0
4884,57.0,68.0,60.0,12.0,64.0
4885,53.0,0.0,60.0,3.0,64.0
4886,84.0,0.0,120.0,10.0,64.0
4887,53.0,0.0,60.0,13.0,64.0
4888,65.0,0.0,120.0,11.0,64.0
4889,77.0,12.0,120.0,11.0,64.0
4890,41.0,0.0,60.0,14.0,64.0
4891,53.0,0.0,60.0,3.0,64.0
4892,53.0,0.0,60.0,13.0,64.0
4893,57.0,12.0,60.0,12.0,64.0
4894,53.0,0.0,60.0,13.0,64.0
4895,41.0,0.0,60.0,14.0,64.0
4896,53.0,80.0,60.0,3.0,64.0
4897,57.0,0.0,60.0,12.0,64.0
4898,60.0,36.0,150.0,4.0,64.0
4899,53.0,0.0,150.0,4.0,64.0
4900,57.0,0.0,60.0,12.0,64.0
4901,53.0,68.0,60.0,3.0,64.0
4902,41.0,0.0,60.0,14.0,64.0
4903,72.0,12.0,120.0,11.0,64.0
4904,53.0,0.0,60.0,13.0,64.0
4905,55.0,0.0,60.0,13.0,64.0
4906,58.0,12.0,60.0,12.0,64.0
4907,43.0,0.0,60.0,14.0,64.0
4908,55.0,0.0,60.0,3.0,64.0
4909,60.0,0.0,60.0,12.0,64.0
4910,45.0,80.0,60.0,14.0,64.0
4911,57.0,0.0,60.0,13.0,64.0
4912,57.0,0.0,60.0,3.0,64.0
4913,81.0,18.0,900.0,0.0,64.0
4914,46.0,0.0,120.0,13.0,64.0
4915,74.0,42.0,90.0,10.0,64.0
4916,70.0,0.0,1860.0,2.0,64.0
4917,70.0,26.0,60.0,11.0,64.0
4918,58.0,36.0,150.0,5.0,64.0
4919,62.0,0.0,60.0,12.0,64.0
4920,62.0,0.0,150.0,4.0,64.0
4921,58.0,0.0,150.0,4.0,64.0
4922,46.0,18.0,180.0,6.0,64.0
4923,46.0,0.0,120.0,3.0,64.0
4924,34.0,12.0,120.0,14.0,64.0
4925,74.0,8.0,1410.0,1.0,64.0
4926,62.0,12.0,60.0,12.0,64.0
4927,70.0,0.0,60.0,11.0,64.0
4928,77.0,14.0,90.0,10.0,64.0
4929,62.0,80.0,60.0,12.0,64.0
4930,70.0,0.0,60.0,11.0,64.0
4931,38.0,0.0,120.0,14.0,64.0
4932,50.0,12.0,120.0,13.0,64.0
4933,70.0,26.0,60.0,11.0,64.0
4934,62.0,54.0,150.0,5.0,64.0
4935,62.0,0.0,60.0,12.0,64.0
4936,82.0,42.0,90.0,10.0,64.0
4937,50.0,0.0,120.0,3.0,64.0
4938,64.0,0.0,60.0,12.0,64.0
4939,72.0,12.0,60.0,11.0,64.0
4940,77.0,14.0,90.0,10.0,64.0
4941,65.0,0.0,60.0,12.0,64.0
4942,74.0,80.0,60.0,11.0,64.0
4943,53.0,0.0,120.0,3.0,64.0
4944,41.0,12.0,120.0,14.0,64.0
4945,53.0,0.0,120.0,13.0,64.0
4946,62.0,0.0,150.0,4.0,64.0
4947,58.0,0.0,150.0,4.0,64.0
4948,62.0,26.0,60.0,12.0,64.0
4949,70.0,0.0,60.0,11.0,64.0
4950,65.0,54.0,150.0,5.0,64.0
4951,74.0,42.0,90.0,10.0,64.0
4952,62.0,0.0,60.0,12.0,64.0
4953,70.0,12.0,60.0,11.0,64.0
4954,77.0,14.0,90.0,10.0,64.0
4955,62.0,0.0,60.0,12.0,64.0
4956,70.0,80.0,60.0,11.0,64.0
4957,58.0,0.0,150.0,4.0,64.0
4958,62.0,0.0,60.0,12.0,64.0
4959,62.0,36.0,150.0,4.0,64.0
4960,82.0,54.0,90.0,10.0,64.0
4961,70.0,26.0,60.0,11.0,64.0
4962,64.0,12.0,60.0,12.0,64.0
4963,72.0,0.0,60.0,11.0,64.0
4964,77.0,14.0,90.0,10.0,64.0
4965,74.0,80.0,60.0,11.0,64.0
4966,65.0,0.0,60.0,12.0,64.0
4967,46.0,32.0,180.0,6.0,64.0
4968,58.0,0.0,120.0,3.0,64.0
4969,58.0,36.0,150.0,4.0,64.0
4970,70.0,0.0,150.0,5.0,64.0
4971,74.0,12.0,120.0,10.0,64.0
4972,62.0,0.0,150.0,4.0,64.0
4973,82.0,24.0,900.0,0.0,64.0
4974,58.0,0.0,120.0,13.0,64.0
4975,46.0,0.0,120.0,14.0,64.0
4976,62.0,0.0,60.0,12.0,64.0
4977,70.0,68.0,60.0,11.0,64.0
4978,70.0,0.0,60.0,11.0,64.0
4979,62.0,12.0,60.0,12.0,64.0
4980,70.0,0.0,60.0,11.0,64.0
4981,62.0,80.0,60.0,12.0,64.0
4982,41.0,0.0,120.0,14.0,64.0
4983,65.0,60.0,150.0,5.0,64.0
4984,70.0,0.0,60.0,11.0,64.0
4985,77.0,12.0,120.0,10.0,64.0
4986,53.0,0.0,120.0,3.0,64.0
4987,53.0,0.0,120.0,13.0,64.0
4988,62.0,68.0,60.0,12.0,64.0
4989,64.0,0.0,60.0,12.0,64.0
4990,72.0,12.0,60.0,11.0,64.0
4991,74.0,80.0,60.0,11.0,64.0
4992,65.0,0.0,60.0,12.0,64.0
4993,50.0,0.0,120.0,13.0,64.0
4994,62.0,0.0,150.0,5.0,64.0
4995,58.0,0.0,150.0,4.0,64.0
4996,62.0,68.0,150.0,4.0,64.0
4997,38.0,0.0,120.0,14.0,64.0
4998,82.0,12.0,120.0,10.0,64.0
4999,70.0,68.0,60.0,11.0,64.0
5000,70.0,8.0,450.0,1.0,64.0
5001,50.0,0.0,120.0,3.0,64.0
5002,62.0,0.0,60.0,12.0,64.0
5003,70.0,12.0,60.0,11.0,64.0
5004,62.0,0.0,60.0,12.0,64.0
5005,70.0,80.0,60.0,11.0,64.0
5006,62.0,0.0,60.0,12.0,64.0
5007,70.0,0.0,60.0,11.0,64.0
5008,62.0,0.0,150.0,4.0,64.0
5009,58.0,36.0,150.0,4.0,64.0
5010,62.0,80.0,60.0,12.0,64.0
5011,72.0,12.0,60.0,11.0,64.0
5012,64.0,0.0,60.0,12.0,64.0
5013,74.0,0.0,60.0,11.0,64.0
5014,65.0,80.0,60.0,12.0,64.0
5015,81.0,0.0,60.0,10.0,64.0
5016,81.0,18.0,900.0,0.0,64.0
5017,72.0,80.0,60.0,10.0,64.0
5018,60.0,0.0,1860.0,4.0,64.0
5019,69.0,0.0,60.0,11.0,64.0
5020,77.0,0.0,60.0,11.0,64.0
5021,48.0,0.0,180.0,13.0,64.0
5022,72.0,0.0,1860.0,5.0,64.0
5023,69.0,0.0,900.0,1.0,64.0
5024,60.0,0.0,60.0,12.0,64.0
5025,72.0,0.0,1860.0,2.0,64.0
5026,48.0,44.0,180.0,3.0,64.0
5027,36.0,0.0,180.0,14.0,64.0
5028,69.0,0.0,60.0,11.0,64.0
5029,72.0,0.0,60.0,10.0,64.0
5030,81.0,36.0,60.0,10.0,64.0
5031,77.0,0.0,60.0,11.0,64.0
5032,60.0,0.0,60.0,12.0,64.0
5033,77.0,80.0,60.0,11.0,64.0
5034,72.0,0.0,60.0,10.0,64.0
5035,81.0,0.0,60.0,10.0,64.0
5036,69.0,0.0,60.0,11.0,64.0
5037,60.0,0.0,60.0,12.0,64.0
5038,69.0,0.0,60.0,11.0,64.0
5039,72.0,0.0,60.0,10.0,64.0
5040,81.0,26.0,60.0,10.0,64.0
5041,53.0,54.0,90.0,13.0,64.0
5042,41.0,0.0,90.0,14.0,64.0
5043,77.0,0.0,60.0,11.0,64.0
5044,60.0,0.0,60.0,12.0,64.0
5045,53.0,0.0,90.0,3.0,64.0
5046,77.0,0.0,60.0,11.0,64.0
5047,60.0,0.0,60.0,12.0,64.0
5048,69.0,0.0,60.0,11.0,64.0
5049,72.0,0.0,60.0,10.0,64.0
5050,81.0,66.0,60.0,10.0,64.0
5051,45.0,14.0,90.0,14.0,64.0
5052,57.0,0.0,90.0,3.0,64.0
5053,57.0,0.0,90.0,13.0,64.0
5054,72.0,0.0,60.0,10.0,64.0
5055,77.0,0.0,60.0,11.0,64.0
5056,60.0,0.0,60.0,12.0,64.0
5057,69.0,0.0,60.0,11.0,64.0
5058,81.0,80.0,60.0,10.0,64.0
5059,60.0,0.0,60.0,12.0,64.0
5060,60.0,44.0,180.0,3.0,64.0
5061,60.0,0.0,180.0,13.0,64.0
5062,48.0,0.0,180.0,14.0,64.0
5063,81.0,0.0,60.0,10.0,64.0
5064,72.0,80.0,60.0,10.0,64.0
5065,77.0,0.0,60.0,11.0,64.0
5066,69.0,0.0,60.0,11.0,64.0
5067,81.0,36.0,60.0,10.0,64.0
5068,69.0,0.0,60.0,11.0,64.0
5069,60.0,0.0,60.0,12.0,64.0
5070,72.0,0.0,60.0,10.0,64.0
5071,77.0,0.0,60.0,11.0,64.0
5072,69.0,80.0,60.0,11.0,64.0
5073,77.0,0.0,60.0,11.0,64.0
5074,72.0,0.0,60.0,10.0,64.0
5075,81.0,0.0,60.0,10.0,64.0
5076,60.0,0.0,60.0,12.0,64.0
5077,77.0,0.0,60.0,11.0,64.0
5078,60.0,26.0,60.0,12.0,64.0
5079,81.0,0.0,60.0,10.0,64.0
5080,57.0,54.0,90.0,13.0,64.0
5081,72.0,0.0,60.0,10.0,64.0
5082,57.0,0.0,90.0,3.0,64.0
5083,69.0,0.0,60.0,11.0,64.0
5084,45.0,0.0,90.0,14.0,64.0
5085,69.0,0.0,60.0,11.0,64.0
5086,77.0,0.0,60.0,11.0,64.0
5087,60.0,0.0,60.0,12.0,64.0
5088,72.0,48.0,60.0,10.0,64.0
5089,81.0,0.0,60.0,10.0,64.0
5090,53.0,14.0,90.0,3.0,64.0
5091,53.0,0.0,90.0,13.0,64.0
5092,41.0,0.0,90.0,14.0,64.0
5093,60.0,0.0,60.0,12.0,64.0
5094,81.0,0.0,60.0,10.0,64.0
5095,77.0,0.0,60.0,11.0,64.0
5096,72.0,0.0,60.0,10.0,64.0
5097,69.0,80.0,60.0,11.0,64.0
5098,76.0,0.0,60.0,11.0,64.0
5099,48.0,44.0,180.0,3.0,64.0
5100,79.0,0.0,60.0,10.0,64.0
5101,67.0,0.0,60.0,11.0,64.0
5102,79.0,0.0,900.0,0.0,64.0
5103,58.0,0.0,60.0,12.0,64.0
5104,67.0,0.0,900.0,2.0,64.0
5105,72.0,80.0,60.0,10.0,64.0
5106,48.0,0.0,180.0,13.0,64.0
5107,36.0,0.0,180.0,14.0,64.0
5108,76.0,0.0,900.0,1.0,64.0
5109,67.0,0.0,900.0,1.0,64.0
5110,76.0,32.0,900.0,0.0,64.0
5111,79.0,0.0,60.0,10.0,64.0
5112,67.0,0.0,60.0,11.0,64.0
5113,76.0,36.0,60.0,11.0,64.0
5114,72.0,0.0,60.0,10.0,64.0
5115,58.0,0.0,60.0,12.0,64.0
5116,76.0,0.0,60.0,11.0,64.0
5117,67.0,0.0,60.0,11.0,64.0
5118,58.0,0.0,60.0,12.0,64.0
5119,79.0,80.0,60.0,10.0,64.0
5120,72.0,0.0,60.0,10.0,64.0
5121,58.0,0.0,60.0,12.0,64.0
5122,52.0,0.0,90.0,13.0,64.0
5123,52.0,0.0,90.0,3.0,64.0
5124,72.0,0.0,60.0,10.0,64.0
5125,79.0,0.0,60.0,10.0,64.0
5126,40.0,54.0,90.0,14.0,64.0
5127,67.0,26.0,60.0,11.0,64.0
5128,76.0,0.0,60.0,11.0,64.0
5129,72.0,0.0,60.0,10.0,64.0
5130,67.0,0.0,60.0,11.0,64.0
5131,76.0,66.0,60.0,11.0,64.0
5132,79.0,0.0,60.0,10.0,64.0
5133,58.0,0.0,60.0,12.0,64.0
5134,43.0,14.0,90.0,14.0,64.0
5135,55.0,0.0,90.0,13.0,64.0
5136,55.0,0.0,90.0,3.0,64.0
5137,67.0,0.0,60.0,11.0,64.0
5138,76.0,80.0,60.0,11.0,64.0
5139,58.0,0.0,60.0,12.0,64.0
5140,79.0,0.0,60.0,10.0,64.0
5141,72.0,0.0,60.0,10.0,64.0
5142,48.0,44.0,180.0,14.0,64.0
5143,60.0,0.0,180.0,13.0,64.0
5144,60.0,0.0,180.0,3.0,64.0
5145,79.0,0.0,60.0,10.0,64.0
5146,67.0,0.0,60.0,11.0,64.0
5147,76.0,0.0,60.0,11.0,64.0
5148,72.0,0.0,60.0,10.0,64.0
5149,58.0,80.0,60.0,12.0,64.0
5150,79.0,0.0,60.0,10.0,64.0
5151,58.0,0.0,60.0,12.0,64.0
5152,76.0,0.0,60.0,11.0,64.0
5153,67.0,36.0,60.0,11.0,64.0
5154,72.0,0.0,60.0,10.0,64.0
5155,58.0,0.0,60.0,12.0,64.0
5156,72.0,0.0,60.0,10.0,64.0
5157,67.0,0.0,60.0,11.0,64.0
5158,79.0,80.0,60.0,10.0,64.0
5159,76.0,0.0,60.0,11.0,64.0
5160,48.0,0.0,180.0,13.0,64.0
5161,48.0,0.0,180.0,3.0,64.0
5162,58.0,0.0,60.0,12.0,64.0
5163,79.0,0.0,60.0,10.0,64.0
5164,76.0,80.0,60.0,11.0,64.0
5165,36.0,12.0,180.0,14.0,64.0
5166,72.0,0.0,60.0,10.0,64.0
5167,67.0,0.0,60.0,11.0,64.0
5168,58.0,0.0,60.0,12.0,64.0
5169,76.0,0.0,60.0,11.0,64.0
5170,67.0,36.0,60.0,11.0,64.0
5171,79.0,0.0,60.0,10.0,64.0
5172,72.0,0.0,60.0,10.0,64.0
5173,72.0,0.0,60.0,10.0,64.0
5174,58.0,80.0,60.0,12.0,64.0
5175,67.0,0.0,60.0,11.0,64.0
5176,79.0,0.0,60.0,10.0,64.0
5177,76.0,0.0,60.0,11.0,64.0
5178,60.0,36.0,150.0,4.0,64.0
5179,77.0,0.0,120.0,10.0,64.0
5180,53.0,68.0,60.0,3.0,64.0
5181,53.0,0.0,60.0,13.0,64.0
5182,41.0,0.0,60.0,14.0,64.0
5183,65.0,0.0,120.0,10.0,64.0
5184,69.0,16.0,780.0,1.0,64.0
5185,77.0,0.0,4740.0,1.0,64.0
5186,57.0,0.0,60.0,12.0,64.0
5187,65.0,12.0,120.0,11.0,64.0
5188,77.0,0.0,4740.0,0.0,64.0
5189,65.0,0.0,4740.0,2.0,64.0
5190,77.0,0.0,120.0,11.0,64.0
5191,41.0,0.0,180.0,6.0,64.0
5192,65.0,32.0,180.0,5.0,64.0
5193,72.0,32.0,900.0,2.0,64.0
5194,41.0,12.0,60.0,14.0,64.0
5195,57.0,0.0,60.0,12.0,64.0
5196,53.0,0.0,60.0,13.0,64.0
5197,53.0,0.0,60.0,3.0,64.0
5198,41.0,0.0,60.0,14.0,64.0
5199,53.0,0.0,60.0,3.0,64.0
5200,57.0,0.0,60.0,12.0,64.0
5201,53.0,80.0,60.0,13.0,64.0
5202,57.0,0.0,60.0,12.0,64.0
5203,53.0,0.0,60.0,13.0,64.0
5204,81.0,12.0,120.0,10.0,64.0
5205,41.0,0.0,60.0,14.0,64.0
5206,53.0,68.0,60.0,3.0,64.0
5207,55.0,0.0,60.0,13.0,64.0
5208,55.0,0.0,60.0,3.0,64.0
5209,43.0,0.0,60.0,14.0,64.0
5210,58.0,80.0,60.0,12.0,64.0
5211,60.0,0.0,60.0,12.0,64.0
5212,57.0,80.0,60.0,13.0,64.0
5213,45.0,0.0,60.0,14.0,64.0
5214,57.0,0.0,60.0,3.0,64.0
5215,60.0,0.0,120.0,11.0,64.0
5216,53.0,0.0,60.0,3.0,64.0
5217,69.0,12.0,120.0,11.0,64.0
5218,53.0,0.0,120.0,11.0,64.0
5219,60.0,68.0,150.0,4.0,64.0
5220,84.0,0.0,120.0,10.0,64.0
5221,53.0,68.0,60.0,13.0,64.0
5222,57.0,0.0,60.0,12.0,64.0
5223,41.0,0.0,60.0,14.0,64.0
5224,57.0,0.0,60.0,12.0,64.0
5225,53.0,12.0,60.0,3.0,64.0
5226,53.0,0.0,60.0,13.0,64.0
5227,41.0,0.0,60.0,14.0,64.0
5228,57.0,64.0,60.0,12.0,64.0
5229,41.0,0.0,60.0,14.0,64.0
5230,53.0,0.0,60.0,13.0,64.0
5231,53.0,0.0,60.0,3.0,64.0
5232,41.0,0.0,60.0,14.0,64.0
5233,53.0,0.0,60.0,13.0,64.0
5234,60.0,36.0,150.0,4.0,64.0
5235,53.0,0.0,60.0,3.0,64.0
5236,72.0,12.0,120.0,11.0,64.0
5237,57.0,68.0,60.0,12.0,64.0
5238,55.0,12.0,60.0,3.0,64.0
5239,43.0,0.0,60.0,14.0,64.0
5240,55.0,0.0,60.0,13.0,64.0
5241,58.0,0.0,60.0,12.0,64.0
5242,60.0,0.0,60.0,12.0,64.0
5243,57.0,80.0,60.0,3.0,64.0
5244,57.0,0.0,60.0,13.0,64.0
5245,45.0,0.0,60.0,14.0,64.0
5246,53.0,0.0,60.0,3.0,64.0
5247,65.0,0.0,180.0,5.0,64.0
5248,53.0,68.0,60.0,13.0,64.0
5249,69.0,0.0,900.0,2.0,64.0
5250,41.0,0.0,60.0,14.0,64.0
5251,77.0,0.0,120.0,11.0,64.0
5252,65.0,0.0,120.0,10.0,64.0
5253,77.0,12.0,120.0,10.0,64.0
5254,84.0,32.0,900.0,0.0,64.0
5255,60.0,36.0,150.0,4.0,64.0
5256,57.0,0.0,60.0,12.0,64.0
5257,41.0,32.0,180.0,6.0,64.0
5258,72.0,0.0,900.0,1.0,64.0
5259,57.0,0.0,60.0,12.0,64.0
5260,53.0,12.0,60.0,3.0,64.0
5261,41.0,0.0,60.0,14.0,64.0
5262,53.0,0.0,60.0,13.0,64.0
5263,41.0,0.0,60.0,14.0,64.0
5264,57.0,0.0,60.0,12.0,64.0
5265,53.0,80.0,60.0,13.0,64.0
5266,53.0,0.0,60.0,3.0,64.0
5267,41.0,0.0,60.0,14.0,64.0
5268,57.0,0.0,60.0,12.0,64.0
5269,53.0,0.0,60.0,13.0,64.0
5270,81.0,12.0,120.0,10.0,64.0
5271,53.0,68.0,60.0,3.0,64.0
5272,55.0,0.0,60.0,3.0,64.0
5273,58.0,80.0,60.0,12.0,64.0
5274,43.0,0.0,60.0,14.0,64.0
5275,55.0,0.0,60.0,13.0,64.0
5276,57.0,80.0,60.0,13.0,64.0
5277,57.0,0.0,60.0,3.0,64.0
5278,60.0,0.0,60.0,12.0,64.0
5279,45.0,0.0,60.0,14.0,64.0
5280,57.0,0.0,60.0,12.0,64.0
5281,77.0,12.0,120.0,11.0,64.0
5282,84.0,0.0,120.0,10.0,64.0
5283,60.0,68.0,150.0,4.0,64.0
5284,65.0,0.0,120.0,11.0,64.0
5285,53.0,0.0,60.0,3.0,64.0
5286,41.0,0.0,60.0,14.0,64.0
5287,53.0,68.0,60.0,13.0,64.0
5288,53.0,12.0,60.0,13.0,64.0
5289,41.0,0.0,60.0,14.0,64.0
5290,57.0,0.0,60.0,12.0,64.0
5291,53.0,0.0,60.0,3.0,64.0
5292,57.0,0.0,60.0,12.0,64.0
5293,53.0,0.0,60.0,3.0,64.0
5294,53.0,0.0,60.0,13.0,64.0
5295,41.0,80.0,60.0,14.0,64.0
5296,60.0,36.0,150.0,4.0,64.0
5297,53.0,0.0,60.0,3.0,64.0
5298,72.0,12.0,120.0,11.0,64.0
5299,53.0,0.0,60.0,13.0,64.0
5300,41.0,0.0,60.0,14.0,64.0
5301,57.0,68.0,60.0,12.0,64.0
5302,55.0,0.0,60.0,3.0,64.0
5303,43.0,12.0,60.0,14.0,64.0
5304,58.0,0.0,60.0,12.0,64.0
5305,55.0,0.0,60.0,13.0,64.0
5306,60.0,0.0,60.0,12.0,64.0
5307,57.0,0.0,60.0,13.0,64.0
5308,57.0,0.0,60.0,3.0,64.0
5309,45.0,80.0,60.0,14.0,64.0
5310,34.0,12.0,120.0,14.0,64.0
5311,74.0,42.0,90.0,10.0,64.0
5312,81.0,18.0,900.0,0.0,64.0
5313,70.0,0.0,1860.0,2.0,64.0
5314,70.0,26.0,60.0,11.0,64.0
5315,74.0,8.0,1410.0,1.0,64.0
5316,46.0,18.0,180.0,6.0,64.0
5317,46.0,0.0,120.0,13.0,64.0
5318,62.0,36.0,150.0,4.0,64.0
5319,58.0,0.0,150.0,5.0,64.0
5320,46.0,0.0,120.0,3.0,64.0
5321,62.0,0.0,60.0,12.0,64.0
5322,70.0,0.0,60.0,11.0,64.0
5323,62.0,12.0,60.0,12.0,64.0
5324,77.0,14.0,90.0,10.0,64.0
5325,62.0,0.0,60.0,12.0,64.0
5326,70.0,80.0,60.0,11.0,64.0
5327,38.0,0.0,120.0,14.0,64.0
5328,50.0,0.0,120.0,3.0,64.0
5329,82.0,42.0,90.0,10.0,64.0
5330,62.0,26.0,60.0,12.0,64.0
5331,62.0,54.0,150.0,5.0,64.0
5332,50.0,12.0,120.0,13.0,64.0
5333,70.0,0.0,60.0,11.0,64.0
5334,72.0,12.0,60.0,11.0,64.0
5335,64.0,0.0,60.0,12.0,64.0
5336,77.0,14.0,90.0,10.0,64.0
5337,65.0,80.0,60.0,12.0,64.0
5338,74.0,0.0,60.0,11.0,64.0
5339,74.0,42.0,90.0,10.0,64.0
5340,70.0,0.0,60.0,11.0,64.0
5341,65.0,54.0,150.0,5.0,64.0
5342,62.0,26.0,60.0,12.0,64.0
5343,41.0,0.0,120.0,14.0,64.0
5344,53.0,0.0,120.0,3.0,64.0
5345,53.0,12.0,120.0,13.0,64.0
5346,62.0,0.0,150.0,4.0,64.0
5347,62.0,0.0,60.0,12.0,64.0
5348,70.0,12.0,60.0,11.0,64.0
5349,77.0,14.0,90.0,10.0,64.0
5350,70.0,80.0,60.0,11.0,64.0
5351,62.0,0.0,60.0,12.0,64.0
5352,62.0,0.0,60.0,12.0,64.0
5353,82.0,54.0,90.0,10.0,64.0
5354,62.0,36.0,150.0,4.0,64.0
5355,70.0,26.0,60.0,11.0,64.0
5356,64.0,12.0,60.0,12.0,64.0
5357,72.0,0.0,60.0,11.0,64.0
5358,77.0,14.0,90.0,10.0,64.0
5359,74.0,80.0,60.0,11.0,64.0
5360,65.0,0.0,60.0,12.0,64.0
5361,62.0,36.0,150.0,4.0,64.0
5362,58.0,0.0,120.0,13.0,64.0
5363,46.0,32.0,180.0,6.0,64.0
5364,58.0,0.0,120.0,3.0,64.0
5365,70.0,0.0,150.0,5.0,64.0
5366,82.0,24.0,900.0,0.0,64.0
5367,46.0,12.0,120.0,14.0,64.0
5368,74.0,0.0,120.0,10.0,64.0
5369,70.0,68.0,60.0,11.0,64.0
5370,62.0,0.0,60.0,12.0,64.0
5371,62.0,0.0,60.0,12.0,64.0
5372,70.0,12.0,60.0,11.0,64.0
5373,62.0,80.0,60.0,12.0,64.0
5374,70.0,0.0,60.0,11.0,64.0
5375,65.0,60.0,150.0,5.0,64.0
5376,62.0,0.0,60.0,12.0,64.0
5377,53.0,0.0,120.0,13.0,64.0
5378,77.0,0.0,120.0,10.0,64.0
5379,53.0,12.0,120.0,3.0,64.0
5380,70.0,68.0,60.0,11.0,64.0
5381,41.0,0.0,120.0,14.0,64.0
5382,64.0,12.0,60.0,12.0,64.0
5383,72.0,0.0,60.0,11.0,64.0
5384,74.0,0.0,60.0,11.0,64.0
5385,65.0,80.0,60.0,12.0,64.0
5386,62.0,68.0,60.0,12.0,64.0
5387,62.0,68.0,150.0,4.0,64.0
5388,38.0,12.0,120.0,14.0,64.0
5389,50.0,0.0,120.0,13.0,64.0
5390,82.0,0.0,120.0,10.0,64.0
5391,50.0,0.0,120.0,3.0,64.0
5392,70.0,8.0,450.0,1.0,64.0
5393,70.0,0.0,60.0,11.0,64.0
5394,62.0,0.0,150.0,5.0,64.0
5395,70.0,0.0,60.0,11.0,64.0
5396,62.0,12.0,60.0,12.0,64.0
5397,62.0,0.0,60.0,12.0,64.0
5398,70.0,80.0,60.0,11.0,64.0
5399,62.0,36.0,150.0,4.0,64.0
5400,70.0,0.0,60.0,11.0,64.0
5401,62.0,80.0,60.0,12.0,64.0
5402,64.0,0.0,60.0,12.0,64.0
5403,72.0,12.0,60.0,11.0,64.0
5404,74.0,80.0,60.0,11.0,64.0
5405,65.0,0.0,60.0,12.0,64.0
5406,69.0,18.0,900.0,1.0,64.0
5407,60.0,0.0,60.0,12.0,64.0
5408,72.0,0.0,1860.0,5.0,64.0
5409,48.0,0.0,180.0,13.0,64.0
5410,60.0,66.0,390.0,4.0,64.0
5411,81.0,0.0,60.0,10.0,64.0
5412,72.0,80.0,60.0,10.0,64.0
5413,81.0,0.0,900.0,0.0,64.0
5414,48.0,0.0,180.0,3.0,64.0
5415,36.0,44.0,180.0,14.0,64.0
5416,69.0,0.0,60.0,11.0,64.0
5417,77.0,0.0,60.0,11.0,64.0
5418,72.0,0.0,2100.0,2.0,64.0
5419,81.0,0.0,60.0,10.0,64.0
5420,72.0,0.0,60.0,10.0,64.0
5421,69.0,36.0,60.0,11.0,64.0
5422,77.0,0.0,60.0,11.0,64.0
5423,60.0,0.0,60.0,12.0,64.0
5424,81.0,0.0,60.0,10.0,64.0
5425,60.0,0.0,60.0,12.0,64.0
5426,77.0,0.0,60.0,11.0,64.0
5427,69.0,0.0,60.0,11.0,64.0
5428,72.0,80.0,60.0,10.0,64.0
5429,53.0,54.0,90.0,13.0,64.0
5430,41.0,0.0,90.0,14.0,64.0
5431,77.0,0.0,60.0,11.0,64.0
5432,69.0,0.0,60.0,11.0,64.0
5433,53.0,0.0,90.0,3.0,64.0
5434,81.0,26.0,60.0,10.0,64.0
5435,60.0,0.0,60.0,12.0,64.0
5436,72.0,0.0,60.0,10.0,64.0
5437,72.0,0.0,60.0,10.0,64.0
5438,77.0,0.0,60.0,11.0,64.0
5439,69.0,0.0,60.0,11.0,64.0
5440,60.0,0.0,60.0,12.0,64.0
5441,81.0,0.0,60.0,10.0,64.0
5442,57.0,0.0,90.0,3.0,64.0
5443,57.0,0.0,90.0,13.0,64.0
5444,45.0,14.0,90.0,14.0,64.0
5445,77.0,80.0,60.0,11.0,64.0
5446,81.0,0.0,60.0,10.0,64.0
5447,60.0,0.0,60.0,12.0,64.0
5448,72.0,0.0,60.0,10.0,64.0
5449,69.0,0.0,60.0,11.0,64.0
5450,48.0,0.0,180.0,14.0,64.0
5451,60.0,0.0,180.0,13.0,64.0
5452,81.0,80.0,60.0,10.0,64.0
5453,60.0,44.0,180.0,4.0,64.0
5454,69.0,0.0,60.0,11.0,64.0
5455,60.0,0.0,60.0,12.0,64.0
5456,60.0,0.0,180.0,3.0,64.0
5457,77.0,0.0,60.0,11.0,64.0
5458,72.0,0.0,60.0,10.0,64.0
5459,72.0,0.0,60.0,10.0,64.0
5460,69.0,0.0,60.0,11.0,64.0
5461,60.0,0.0,60.0,12.0,64.0
5462,81.0,0.0,60.0,10.0,64.0
5463,77.0,36.0,60.0,11.0,64.0
5464,81.0,0.0,60.0,10.0,64.0
5465,77.0,80.0,60.0,11.0,64.0
5466,60.0,0.0,60.0,12.0,64.0
5467,69.0,0.0,60.0,11.0,64.0
5468,72.0,0.0,60.0,10.0,64.0
5469,81.0,0.0,60.0,10.0,64.0
5470,69.0,0.0,60.0,11.0,64.0
5471,77.0,0.0,60.0,11.0,64.0
5472,72.0,0.0,60.0,10.0,64.0
5473,60.0,26.0,60.0,12.0,64.0
5474,57.0,54.0,90.0,13.0,64.0
5475,60.0,12.0,180.0,4.0,64.0
5476,45.0,0.0,90.0,14.0,64.0
5477,57.0,0.0,90.0,3.0,64.0
5478,69.0,0.0,60.0,11.0,64.0
5479,77.0,36.0,60.0,11.0,64.0
5480,60.0,0.0,60.0,12.0,64.0
5481,72.0,0.0,60.0,10.0,64.0
5482,81.0,0.0,60.0,10.0,64.0
5483,41.0,0.0,90.0,14.0,64.0
5484,53.0,14.0,90.0,3.0,64.0
5485,53.0,0.0,90.0,13.0,64.0
5486,60.0,0.0,60.0,12.0,64.0
5487,72.0,0.0,60.0,10.0,64.0
5488,69.0,0.0,60.0,11.0,64.0
5489,77.0,0.0,60.0,11.0,64.0
5490,81.0,80.0,60.0,10.0,64.0
5491,67.0,0.0,900.0,1.0,64.0
5492,76.0,0.0,900.0,1.0,64.0
5493,60.0,0.0,60.0,12.0,64.0
5494,79.0,0.0,60.0,10.0,64.0
5495,72.0,80.0,60.0,10.0,64.0
5496,67.0,0.0,900.0,2.0,64.0
5497,79.0,32.0,900.0,0.0,64.0
5498,67.0,0.0,60.0,11.0,64.0
5499,76.0,0.0,900.0,0.0,64.0
5500,60.0,0.0,390.0,4.0,64.0
5501,48.0,0.0,180.0,13.0,64.0
5502,76.0,0.0,60.0,11.0,64.0
5503,36.0,44.0,180.0,14.0,64.0
5504,48.0,0.0,180.0,3.0,64.0
5505,60.0,0.0,60.0,12.0,64.0
5506,72.0,0.0,60.0,10.0,64.0
5507,79.0,36.0,60.0,10.0,64.0
5508,76.0,0.0,60.0,11.0,64.0
5509,67.0,0.0,60.0,11.0,64.0
5510,79.0,80.0,60.0,10.0,64.0
5511,72.0,0.0,60.0,10.0,64.0
5512,76.0,0.0,60.0,11.0,64.0
5513,67.0,0.0,60.0,11.0,64.0
5514,60.0,0.0,60.0,12.0,64.0
5515,79.0,26.0,60.0,10.0,64.0
5516,72.0,0.0,60.0,10.0,64.0
5517,67.0,0.0,60.0,11.0,64.0
5518,40.0,0.0,90.0,14.0,64.0
5519,60.0,0.0,60.0,12.0,64.0
5520,76.0,0.0,60.0,11.0,64.0
5521,52.0,0.0,90.0,3.0,64.0
5522,52.0,54.0,90.0,13.0,64.0
5523,79.0,0.0,60.0,10.0,64.0
5524,72.0,66.0,60.0,10.0,64.0
5525,67.0,0.0,60.0,11.0,64.0
5526,76.0,0.0,60.0,11.0,64.0
5527,60.0,0.0,60.0,12.0,64.0
5528,43.0,0.0,90.0,14.0,64.0
5529,55.0,0.0,90.0,3.0,64.0
5530,55.0,14.0,90.0,13.0,64.0
5531,76.0,0.0,60.0,11.0,64.0
5532,67.0,0.0,60.0,11.0,64.0
5533,79.0,0.0,60.0,10.0,64.0
5534,72.0,0.0,60.0,10.0,64.0
5535,60.0,80.0,60.0,12.0,64.0
5536,67.0,0.0,60.0,11.0,64.0
5537,76.0,0.0,60.0,11.0,64.0
5538,60.0,0.0,180.0,13.0,64.0
5539,60.0,44.0,180.0,4.0,64.0
5540,60.0,80.0,60.0,12.0,64.0
5541,48.0,0.0,180.0,14.0,64.0
5542,79.0,0.0,60.0,10.0,64.0
5543,60.0,0.0,180.0,3.0,64.0
5544,72.0,0.0,60.0,10.0,64.0
5545,72.0,0.0,60.0,10.0,64.0
5546,79.0,0.0,60.0,10.0,64.0
5547,67.0,0.0,60.0,11.0,64.0
5548,60.0,0.0,60.0,12.0,64.0
5549,76.0,36.0,60.0,11.0,64.0
5550,79.0,0.0,60.0,10.0,64.0
5551,72.0,0.0,60.0,10.0,64.0
5552,60.0,80.0,60.0,12.0,64.0
5553,76.0,0.0,60.0,11.0,64.0
5554,67.0,0.0,60.0,11.0,64.0
5555,79.0,0.0,60.0,10.0,64.0
5556,72.0,0.0,60.0,10.0,64.0
5557,60.0,0.0,60.0,12.0,64.0
5558,48.0,0.0,180.0,3.0,64.0
5559,36.0,0.0,180.0,14.0,64.0
5560,48.0,0.0,180.0,13.0,64.0
5561,60.0,12.0,180.0,4.0,64.0
5562,67.0,80.0,60.0,11.0,64.0
5563,76.0,0.0,60.0,11.0,64.0
5564,76.0,0.0,60.0,11.0,64.0
5565,67.0,0.0,60.0,11.0,64.0
5566,60.0,0.0,60.0,12.0,64.0
5567,72.0,36.0,60.0,10.0,64.0
5568,79.0,0.0,60.0,10.0,64.0
5569,60.0,0.0,60.0,12.0,64.0
5570,76.0,0.0,60.0,11.0,64.0
5571,79.0,80.0,60.0,10.0,64.0
5572,67.0,0.0,60.0,11.0,64.0
5573,72.0,0.0,60.0,10.0,64.0
5574,65.0,0.0,180.0,5.0,64.0
5575,72.0,0.0,180.0,5.0,64.0
5576,41.0,0.0,180.0,14.0,64.0
5577,60.0,0.0,180.0,12.0,64.0
5578,77.0,0.0,60.0,10.0,64.0
5579,77.0,0.0,180.0,0.0,64.0
5580,53.0,0.0,180.0,13.0,64.0
5581,65.0,0.0,180.0,2.0,64.0
5582,41.0,0.0,180.0,6.0,64.0
5583,53.0,0.0,180.0,3.0,64.0
5584,77.0,80.0,60.0,11.0,64.0
5585,77.0,32.0,180.0,1.0,64.0
5586,53.0,0.0,180.0,4.0,64.0
5587,60.0,0.0,180.0,4.0,64.0
5588,69.0,0.0,180.0,1.0,64.0
5589,81.0,0.0,60.0,11.0,64.0
5590,81.0,48.0,60.0,10.0,64.0
5591,79.0,0.0,60.0,11.0,64.0
5592,79.0,80.0,60.0,10.0,64.0
5593,77.0,0.0,60.0,10.0,64.0
5594,77.0,80.0,60.0,11.0,64.0
5595,76.0,0.0,60.0,10.0,64.0
5596,76.0,80.0,60.0,11.0,64.0
5597,74.0,80.0,60.0,10.0,64.0
5598,74.0,0.0,60.0,11.0,64.0
5599,72.0,80.0,60.0,11.0,64.0
5600,72.0,0.0,60.0,10.0,64.0
5601,74.0,80.0,60.0,11.0,64.0
5602,74.0,0.0,60.0,10.0,64.0
5603,72.0,80.0,60.0,10.0,64.0
5604,72.0,0.0,60.0,11.0,64.0
5605,70.0,0.0,60.0,11.0,64.0
5606,70.0,80.0,60.0,10.0,64.0
5607,69.0,80.0,60.0,10.0,64.0
5608,69.0,0.0,60.0,11.0,64.0
5609,67.0,0.0,60.0,11.0,64.0
5610,67.0,80.0,60.0,10.0,64.0
5611,53.0,0.0,60.0,3.0,64.0
5612,53.0,80.0,60.0,13.0,64.0
5613,41.0,0.0,60.0,14.0,64.0
5614,65.0,0.0,60.0,12.0,64.0
5615,77.0,0.0,60.0,0.0,64.0
5616,65.0,0.0,60.0,11.0,64.0
5617,65.0,0.0,60.0,10.0,64.0
5618,57.0,80.0,60.0,3.0,64.0
5619,81.0,0.0,60.0,0.0,64.0
5620,45.0,0.0,60.0,14.0,64.0
5621,69.0,0.0,60.0,10.0,64.0
5622,69.0,0.0,60.0,11.0,64.0
5623,69.0,0.0,60.0,12.0,64.0
5624,57.0,0.0,60.0,13.0,64.0
5625,55.0,80.0,60.0,13.0,64.0
5626,55.0,0.0,60.0,3.0,64.0
5627,43.0,0.0,60.0,14.0,64.0
5628,67.0,0.0,60.0,11.0,64.0
5629,67.0,0.0,60.0,10.0,64.0
5630,79.0,0.0,60.0,0.0,64.0
5631,67.0,0.0,60.0,12.0,64.0
5632,53.0,0.0,60.0,13.0,64.0
5633,53.0,0.0,60.0,3.0,64.0
5634,65.0,0.0,60.0,12.0,64.0
5635,41.0,0.0,60.0,14.0,64.0
5636,65.0,0.0,60.0,10.0,64.0
5637,77.0,80.0,60.0,0.0,64.0
5638,65.0,0.0,60.0,11.0,64.0
5639,40.0,0.0,60.0,14.0,64.0
5640,76.0,0.0,60.0,0.0,64.0
5641,52.0,0.0,60.0,3.0,64.0
5642,64.0,0.0,60.0,10.0,64.0
5643,64.0,0.0,60.0,12.0,64.0
5644,52.0,0.0,60.0,13.0,64.0
5645,64.0,80.0,60.0,11.0,64.0
5646,38.0,80.0,60.0,14.0,64.0
5647,50.0,0.0,60.0,13.0,64.0
5648,62.0,0.0,60.0,11.0,64.0
5649,62.0,0.0,60.0,10.0,64.0
5650,74.0,0.0,60.0,0.0,64.0
5651,62.0,0.0,60.0,12.0,64.0
5652,50.0,0.0,60.0,3.0,64.0
5653,72.0,0.0,60.0,0.0,64.0
5654,60.0,0.0,60.0,12.0,64.0
5655,36.0,0.0,60.0,14.0,64.0
5656,60.0,0.0,60.0,10.0,64.0
5657,48.0,0.0,60.0,3.0,64.0
5658,60.0,80.0,60.0,11.0,64.0
5659,48.0,0.0,60.0,13.0,64.0
5660,50.0,0.0,60.0,3.0,64.0
5661,62.0,0.0,60.0,10.0,64.0
5662,62.0,0.0,60.0,12.0,64.0
5663,62.0,0.0,60.0,11.0,64.0
5664,38.0,0.0,60.0,14.0,64.0
5665,74.0,80.0,60.0,0.0,64.0
5666,50.0,0.0,60.0,13.0,64.0
5667,72.0,0.0,60.0,0.0,64.0
5668,48.0,0.0,60.0,13.0,64.0
5669,60.0,0.0,60.0,11.0,64.0
5670,60.0,0.0,60.0,10.0,64.0
5671,60.0,0.0,60.0,12.0,64.0
5672,36.0,0.0,60.0,14.0,64.0
5673,48.0,80.0,60.0,3.0,64.0
5674,70.0,0.0,60.0,0.0,64.0
5675,58.0,0.0,60.0,10.0,64.0
5676,46.0,80.0,60.0,3.0,64.0
5677,58.0,0.0,60.0,12.0,64.0
5678,34.0,0.0,60.0,14.0,64.0
5679,58.0,0.0,60.0,11.0,64.0
5680,46.0,0.0,60.0,13.0,64.0
5681,45.0,0.0,60.0,13.0,64.0
5682,45.0,80.0,60.0,3.0,64.0
5683,69.0,0.0,60.0,0.0,64.0
5684,33.0,0.0,60.0,14.0,64.0
5685,57.0,0.0,60.0,11.0,64.0
5686,57.0,0.0,60.0,10.0,64.0
5687,57.0,0.0,60.0,12.0,64.0
5688,55.0,0.0,60.0,12.0,64.0
5689,31.0,0.0,60.0,14.0,64.0
5690,67.0,0.0,60.0,0.0,64.0
5691,55.0,400.0,60.0,11.0,64.0
5692,55.0,0.0,60.0,10.0,64.0
5693,43.0,0.0,60.0,3.0,64.0
5694,43.0,0.0,60.0,13.0,64.0
5695,65.0,0.0,780.0,0.0,64.0
5696,41.0,0.0,780.0,13.0,64.0
5697,65.0,0.0,780.0,1.0,64.0
5698,53.0,0.0,780.0,4.0,64.0
5699,65.0,0.0,780.0,5.0,64.0
5700,53.0,0.0,780.0,5.0,64.0
5701,60.0,0.0,780.0,2.0,64.0
5702,57.0,0.0,780.0,2.0,64.0
5703,41.0,0.0,780.0,4.0,64.0
5704,41.0,384.0,390.0,6.0,64.0
5705,29.0,0.0,780.0,14.0,64.0
5706,41.0,0.0,780.0,3.0,64.0
5707,53.0,576.0,780.0,10.0,64.0
5708,53.0,0.0,780.0,11.0,64.0
5709,53.0,0.0,780.0,12.0,64.0
5710,41.0,0.0,390.0,3.0,64.0
5711,41.0,0.0,390.0,6.0,64.0
5712,65.0,0.0,390.0,1.0,64.0
5713,65.0,0.0,390.0,5.0,64.0
5714,53.0,0.0,390.0,5.0,64.0
5715,41.0,0.0,390.0,13.0,64.0
5716,53.0,0.0,390.0,12.0,64.0
5717,53.0,0.0,390.0,10.0,64.0
5718,53.0,0.0,390.0,4.0,64.0
5719,60.0,0.0,390.0,2.0,64.0
5720,65.0,0.0,390.0,0.0,64.0
5721,41.0,480.0,390.0,4.0,64.0
5722,53.0,0.0,390.0,11.0,64.0
5723,57.0,0.0,390.0,2.0,64.0
5724,29.0,0.0,390.0,14.0,64.0
5725,41.0,0.0,390.0,13.0,64.0
5726,53.0,0.0,390.0,11.0,64.0
5727,60.0,0.0,390.0,2.0,64.0
5728,57.0,120.0,390.0,2.0,64.0
5729,53.0,0.0,390.0,5.0,64.0
5730,53.0,0.0,390.0,4.0,64.0
5731,65.0,0.0,390.0,0.0,64.0
5732,53.0,0.0,390.0,12.0,64.0
5733,41.0,0.0,390.0,6.0,64.0
5734,41.0,0.0,390.0,3.0,64.0
5735,41.0,0.0,390.0,4.0,64.0
5736,29.0,0.0,390.0,14.0,64.0
5737,65.0,0.0,390.0,1.0,64.0
5738,65.0,0.0,390.0,5.0,64.0
5739,53.0,0.0,390.0,10.0,64.0
5740,53.0,0.0,1140.0,4.0,64.0
5741,53.0,0.0,570.0,10.0,64.0
5742,41.0,30.0,20.0,6.0,64.0
5743,65.0,6.0,570.0,0.0,64.0
5744,65.0,708.0,1140.0,5.0,64.0
5745,53.0,0.0,570.0,12.0,64.0
5746,29.0,0.0,570.0,14.0,64.0
5747,41.0,0.0,1140.0,4.0,64.0
5748,57.0,0.0,1140.0,2.0,64.0
5749,60.0,0.0,1140.0,2.0,64.0
5750,41.0,0.0,570.0,3.0,64.0
5751,41.0,0.0,570.0,13.0,64.0
5752,53.0,0.0,570.0,11.0,64.0
5753,65.0,0.0,570.0,1.0,64.0
5754,53.0,0.0,1140.0,5.0,64.0
5755,41.0,30.0,20.0,6.0,64.0
5756,41.0,30.0,20.0,6.0,64.0
5757,41.0,30.0,20.0,6.0,64.0
5758,41.0,30.0,20.0,6.0,64.0
5759,41.0,30.0,20.0,6.0,64.0
5760,41.0,30.0,20.0,6.0,64.0
5761,41.0,30.0,20.0,6.0,64.0
5762,41.0,30.0,20.0,6.0,64.0
5763,41.0,30.0,20.0,6.0,64.0
5764,41.0,30.0,20.0,6.0,64.0
5765,41.0,30.0,20.0,6.0,64.0
5766,41.0,30.0,20.0,6.0,64.0
5767,41.0,30.0,20.0,6.0,64.0
5768,41.0,30.0,20.0,6.0,64.0
5769,41.0,30.0,20.0,6.0,64.0
5770,41.0,30.0,20.0,6.0,64.0
5771,41.0,24.0,20.0,6.0,64.0
5772,41.0,30.0,20.0,6.0,64.0
5773,41.0,30.0,20.0,6.0,64.0
5774,55.0,0.0,30.0,11.0,64.0
5775,55.0,0.0,30.0,12.0,64.0
5776,43.0,0.0,30.0,13.0,64.0
5777,31.0,0.0,30.0,14.0,64.0
5778,67.0,15.0,30.0,0.0,64.0
5779,67.0,0.0,30.0,1.0,64.0
5780,43.0,0.0,30.0,3.0,64.0
5781,55.0,0.0,30.0,10.0,64.0
5782,41.0,15.0,20.0,6.0,64.0
5783,41.0,30.0,20.0,6.0,64.0
5784,57.0,0.0,30.0,11.0,64.0
5785,33.0,0.0,30.0,14.0,64.0
5786,69.0,15.0,30.0,1.0,64.0
5787,45.0,0.0,30.0,3.0,64.0
5788,69.0,0.0,30.0,0.0,64.0
5789,45.0,0.0,30.0,13.0,64.0
5790,57.0,0.0,30.0,12.0,64.0
5791,41.0,15.0,20.0,6.0,64.0
5792,57.0,0.0,30.0,10.0,64.0
5793,41.0,30.0,20.0,6.0,64.0
5794,58.0,0.0,30.0,10.0,64.0
5795,70.0,0.0,30.0,1.0,64.0
5796,41.0,15.0,20.0,6.0,64.0
5797,46.0,0.0,30.0,13.0,64.0
5798,58.0,0.0,30.0,12.0,64.0
5799,34.0,15.0,30.0,14.0,64.0
5800,46.0,0.0,30.0,3.0,64.0
5801,70.0,0.0,30.0,0.0,64.0
5802,58.0,0.0,30.0,11.0,64.0
5803,41.0,30.0,20.0,6.0,64.0
5804,72.0,0.0,30.0,1.0,64.0
5805,60.0,0.0,30.0,10.0,64.0
5806,60.0,15.0,30.0,11.0,64.0
5807,48.0,0.0,30.0,13.0,64.0
5808,72.0,0.0,30.0,0.0,64.0
5809,48.0,0.0,30.0,3.0,64.0
5810,60.0,0.0,30.0,12.0,64.0
5811,36.0,0.0,30.0,14.0,64.0
5812,41.0,15.0,20.0,6.0,64.0
5813,41.0,30.0,20.0,6.0,64.0
5814,38.0,0.0,30.0,14.0,64.0
5815,74.0,15.0,30.0,0.0,64.0
5816,62.0,0.0,30.0,11.0,64.0
5817,50.0,0.0,30.0,13.0,64.0
5818,62.0,0.0,30.0,12.0,64.0
5819,41.0,15.0,20.0,6.0,64.0
5820,62.0,0.0,30.0,10.0,64.0
5821,50.0,0.0,30.0,3.0,64.0
5822,74.0,0.0,30.0,1.0,64.0
5823,41.0,30.0,20.0,6.0,64.0
5824,52.0,0.0,30.0,3.0,64.0
5825,41.0,15.0,20.0,6.0,64.0
5826,52.0,0.0,30.0,13.0,64.0
5827,64.0,0.0,30.0,10.0,64.0
5828,64.0,0.0,30.0,11.0,64.0
5829,76.0,15.0,30.0,0.0,64.0
5830,76.0,0.0,30.0,1.0,64.0
5831,64.0,0.0,30.0,12.0,64.0
5832,40.0,0.0,30.0,14.0,64.0
5833,41.0,198.0,20.0,6.0,64.0
5834,65.0,0.0,180.0,11.0,64.0
5835,41.0,0.0,180.0,14.0,64.0
5836,53.0,0.0,180.0,13.0,64.0
5837,77.0,0.0,180.0,1.0,64.0
5838,53.0,0.0,180.0,3.0,64.0
5839,65.0,0.0,180.0,12.0,64.0
5840,77.0,0.0,180.0,0.0,64.0
5841,41.0,0.0,180.0,6.0,64.0
5842,65.0,0.0,180.0,10.0,64.0
5843,65.0,0.0,180.0,11.0,64.0
5844,77.0,60.0,180.0,10.0,64.0
5845,60.0,240.0,60.0,11.0,64.0
5846,72.0,0.0,60.0,10.0,64.0
5847,69.0,0.0,240.0,10.0,64.0
5848,57.0,180.0,240.0,11.0,64.0
5849,74.0,0.0,180.0,10.0,64.0
5850,62.0,60.0,180.0,11.0,64.0
5851,58.0,192.0,60.0,11.0,64.0
5852,70.0,0.0,60.0,10.0,64.0
5853,55.0,0.0,180.0,11.0,64.0
5854,67.0,228.0,180.0,10.0,64.0
5855,60.0,60.0,180.0,11.0,64.0
5856,72.0,0.0,180.0,10.0,64.0
5857,57.0,0.0,60.0,11.0,64.0
5858,69.0,240.0,60.0,10.0,64.0
5859,65.0,0.0,240.0,10.0,64.0
5860,53.0,180.0,240.0,11.0,64.0
5861,58.0,60.0,180.0,11.0,64.0
5862,70.0,0.0,180.0,10.0,64.0
5863,55.0,0.0,60.0,11.0,64.0
5864,67.0,192.0,60.0,10.0,64.0
5865,64.0,228.0,180.0,10.0,64.0
5866,52.0,0.0,180.0,11.0,64.0
5867,57.0,0.0,180.0,11.0,64.0
5868,69.0,60.0,180.0,10.0,64.0
5869,53.0,0.0,60.0,11.0,64.0
5870,65.0,78.0,60.0,10.0,64.0
5871,72.0,0.0,780.0,0.0,64.0
5872,60.0,30.0,780.0,4.0,64.0
5873,64.0,0.0,780.0,2.0,64.0
5874,70.0,0.0,780.0,1.0,64.0
5875,67.0,0.0,780.0,1.0,64.0
5876,64.0,120.0,90.0,10.0,64.0
5877,52.0,0.0,90.0,11.0,64.0
5878,60.0,0.0,780.0,2.0,64.0
5879,65.0,120.0,90.0,10.0,64.0
5880,53.0,0.0,90.0,11.0,64.0
5881,55.0,0.0,90.0,11.0,64.0
5882,67.0,120.0,90.0,10.0,64.0
5883,57.0,120.0,90.0,11.0,64.0
5884,69.0,0.0,90.0,10.0,64.0
5885,70.0,0.0,90.0,10.0,64.0
5886,58.0,120.0,90.0,11.0,64.0
5887,71.0,0.0,90.0,10.0,64.0
5888,59.0,90.0,90.0,11.0,64.0
5889,72.0,120.0,90.0,10.0,64.0
5890,60.0,0.0,90.0,11.0,64.0
5891,62.0,0.0,90.0,11.0,64.0
5892,74.0,120.0,90.0,10.0,64.0
5893,72.0,0.0,390.0,0.0,64.0
5894,64.0,120.0,90.0,11.0,64.0
5895,70.0,0.0,390.0,1.0,64.0
5896,60.0,54.0,390.0,4.0,64.0
5897,60.0,0.0,390.0,2.0,64.0
5898,76.0,0.0,90.0,10.0,64.0
5899,64.0,0.0,390.0,2.0,64.0
5900,67.0,0.0,390.0,1.0,64.0
5901,77.0,0.0,90.0,10.0,64.0
5902,65.0,120.0,90.0,11.0,64.0
5903,67.0,0.0,90.0,11.0,64.0
5904,79.0,66.0,90.0,10.0,64.0
5905,69.0,0.0,90.0,11.0,64.0
5906,81.0,120.0,90.0,10.0,64.0
5907,60.0,54.0,390.0,2.0,64.0
5908,64.0,0.0,390.0,2.0,64.0
5909,60.0,0.0,390.0,4.0,64.0
5910,82.0,0.0,90.0,10.0,64.0
5911,72.0,0.0,390.0,0.0,64.0
5912,70.0,0.0,390.0,1.0,64.0
5913,67.0,0.0,390.0,1.0,64.0
5914,70.0,120.0,90.0,11.0,64.0
5915,69.0,120.0,90.0,11.0,64.0
5916,81.0,0.0,90.0,10.0,64.0
5917,67.0,0.0,90.0,11.0,64.0
5918,79.0,66.0,90.0,10.0,64.0
5919,77.0,120.0,90.0,10.0,64.0
5920,65.0,0.0,90.0,11.0,64.0
5921,67.0,0.0,780.0,1.0,64.0
5922,70.0,0.0,780.0,1.0,64.0
5923,60.0,30.0,780.0,4.0,64.0
5924,64.0,0.0,90.0,11.0,64.0
5925,64.0,0.0,780.0,2.0,64.0
5926,60.0,0.0,780.0,2.0,64.0
5927,76.0,120.0,90.0,10.0,64.0
5928,76.0,0.0,780.0,0.0,64.0
5929,72.0,0.0,780.0,0.0,64.0
5930,62.0,0.0,90.0,11.0,64.0
5931,74.0,120.0,90.0,10.0,64.0
5932,60.0,0.0,90.0,11.0,64.0
5933,72.0,120.0,90.0,10.0,64.0
5934,59.0,120.0,90.0,11.0,64.0
5935,71.0,0.0,90.0,10.0,64.0
5936,70.0,0.0,90.0,10.0,64.0
5937,58.0,120.0,90.0,11.0,64.0
5938,57.0,0.0,90.0,11.0,64.0
5939,69.0,90.0,90.0,10.0,64.0
5940,67.0,0.0,90.0,10.0,64.0
5941,55.0,120.0,90.0,11.0,64.0
5942,65.0,0.0,90.0,10.0,64.0
5943,53.0,120.0,90.0,11.0,64.0
5944,52.0,120.0,90.0,11.0,64.0
5945,64.0,0.0,390.0,2.0,64.0
5946,60.0,0.0,390.0,2.0,64.0
5947,72.0,0.0,390.0,0.0,64.0
5948,76.0,54.0,390.0,0.0,64.0
5949,64.0,0.0,90.0,10.0,64.0
5950,60.0,0.0,390.0,4.0,64.0
5951,67.0,0.0,390.0,1.0,64.0
5952,70.0,0.0,390.0,1.0,64.0
5953,62.0,120.0,90.0,10.0,64.0
5954,62.0,0.0,90.0,11.0,64.0
5955,60.0,66.0,90.0,10.0,64.0
5956,60.0,0.0,90.0,11.0,64.0
5957,59.0,120.0,90.0,11.0,64.0
5958,59.0,0.0,90.0,10.0,64.0
5959,72.0,0.0,390.0,0.0,64.0
5960,70.0,0.0,390.0,1.0,64.0
5961,67.0,0.0,390.0,1.0,64.0
5962,76.0,0.0,390.0,0.0,64.0
5963,58.0,120.0,90.0,10.0,64.0
5964,64.0,0.0,390.0,2.0,64.0
5965,60.0,0.0,390.0,4.0,64.0
5966,60.0,54.0,390.0,2.0,64.0
5967,58.0,0.0,90.0,11.0,64.0
5968,57.0,120.0,90.0,11.0,64.0
5969,57.0,0.0,90.0,10.0,64.0
5970,58.0,66.0,90.0,11.0,64.0
5971,58.0,0.0,90.0,10.0,64.0
5972,55.0,426.0,90.0,11.0,64.0
5973,55.0,0.0,90.0,10.0,64.0
5974,53.0,0.0,780.0,5.0,64.0
5975,69.0,0.0,810.0,1.0,64.0
5976,41.0,0.0,780.0,4.0,64.0
5977,53.0,0.0,780.0,4.0,64.0
5978,53.0,0.0,780.0,12.0,64.0
5979,53.0,0.0,780.0,11.0,64.0
5980,53.0,0.0,780.0,10.0,64.0
5981,41.0,0.0,780.0,13.0,64.0
5982,29.0,0.0,780.0,14.0,64.0
5983,41.0,384.0,390.0,6.0,64.0
5984,65.0,0.0,780.0,5.0,64.0
5985,72.0,0.0,780.0,0.0,64.0
5986,77.0,0.0,780.0,0.0,64.0
5987,41.0,48.0,780.0,3.0,64.0
5988,65.0,0.0,810.0,2.0,64.0
5989,77.0,0.0,750.0,1.0,64.0
5990,72.0,528.0,750.0,2.0,64.0
5991,53.0,0.0,390.0,4.0,64.0
5992,53.0,0.0,390.0,10.0,64.0
5993,72.0,480.0,390.0,2.0,64.0
5994,29.0,0.0,390.0,14.0,64.0
5995,41.0,0.0,390.0,6.0,64.0
5996,53.0,0.0,390.0,11.0,64.0
5997,53.0,0.0,390.0,5.0,64.0
5998,65.0,0.0,390.0,5.0,64.0
5999,41.0,0.0,390.0,4.0,64.0
6000,77.0,0.0,390.0,0.0,64.0
6001,72.0,0.0,390.0,0.0,64.0
6002,77.0,0.0,390.0,1.0,64.0
6003,69.0,0.0,390.0,1.0,64.0
6004,41.0,0.0,390.0,3.0,64.0
6005,41.0,0.0,390.0,13.0,64.0
6006,53.0,0.0,390.0,12.0,64.0
6007,65.0,0.0,390.0,2.0,64.0
6008,65.0,0.0,390.0,2.0,64.0
6009,41.0,0.0,390.0,4.0,64.0
6010,53.0,0.0,390.0,4.0,64.0
6011,53.0,0.0,390.0,11.0,64.0
6012,41.0,0.0,390.0,13.0,64.0
6013,65.0,0.0,390.0,5.0,64.0
6014,53.0,480.0,390.0,12.0,64.0
6015,41.0,0.0,390.0,6.0,64.0
6016,53.0,0.0,390.0,5.0,64.0
6017,72.0,0.0,390.0,2.0,64.0
6018,69.0,0.0,390.0,1.0,64.0
6019,72.0,0.0,390.0,0.0,64.0
6020,77.0,0.0,390.0,1.0,64.0
6021,41.0,0.0,390.0,3.0,64.0
6022,77.0,0.0,390.0,0.0,64.0
6023,29.0,0.0,390.0,14.0,64.0
6024,53.0,0.0,390.0,10.0,64.0
6025,41.0,0.0,540.0,3.0,64.0
6026,53.0,0.0,960.0,4.0,64.0
6027,41.0,0.0,960.0,4.0,64.0
6028,53.0,0.0,540.0,12.0,64.0
6029,41.0,156.0,390.0,6.0,64.0
6030,53.0,0.0,540.0,10.0,64.0
6031,53.0,60.0,540.0,11.0,64.0
6032,41.0,0.0,540.0,13.0,64.0
6033,53.0,0.0,780.0,5.0,64.0
6034,69.0,192.0,960.0,1.0,64.0
6035,65.0,0.0,780.0,5.0,64.0
6036,77.0,240.0,1200.0,1.0,64.0
6037,65.0,0.0,780.0,2.0,64.0
6038,77.0,0.0,780.0,0.0,64.0
6039,72.0,12.0,780.0,0.0,64.0
6040,72.0,0.0,780.0,2.0,64.0
6041,29.0,0.0,540.0,14.0,64.0
6042,31.0,0.0,60.0,14.0,64.0
6043,55.0,0.0,60.0,10.0,64.0
6044,43.0,0.0,60.0,13.0,64.0
6045,43.0,0.0,60.0,3.0,64.0
6046,55.0,60.0,60.0,11.0,64.0
6047,55.0,0.0,60.0,12.0,64.0
6048,45.0,0.0,60.0,3.0,64.0
6049,45.0,0.0,60.0,13.0,64.0
6050,57.0,0.0,60.0,10.0,64.0
6051,57.0,0.0,60.0,12.0,64.0
6052,57.0,0.0,60.0,11.0,64.0
6053,33.0,60.0,60.0,14.0,64.0
6054,34.0,0.0,60.0,14.0,64.0
6055,58.0,0.0,60.0,12.0,64.0
6056,58.0,0.0,60.0,11.0,64.0
6057,46.0,48.0,60.0,3.0,64.0
6058,58.0,0.0,60.0,10.0,64.0
6059,46.0,0.0,60.0,13.0,64.0
6060,60.0,0.0,60.0,11.0,64.0
6061,36.0,0.0,60.0,14.0,64.0
6062,60.0,0.0,60.0,10.0,64.0
6063,60.0,60.0,60.0,12.0,64.0
6064,48.0,0.0,60.0,13.0,64.0
6065,48.0,0.0,60.0,3.0,64.0
6066,50.0,0.0,60.0,13.0,64.0
6067,38.0,60.0,60.0,14.0,64.0
6068,62.0,0.0,60.0,10.0,64.0
6069,62.0,0.0,60.0,11.0,64.0
6070,50.0,0.0,60.0,3.0,64.0
6071,62.0,0.0,60.0,12.0,64.0
6072,52.0,0.0,60.0,3.0,64.0
6073,64.0,0.0,60.0,12.0,64.0
6074,64.0,0.0,60.0,11.0,64.0
6075,64.0,0.0,60.0,10.0,64.0
6076,52.0,0.0,60.0,13.0,64.0
6077,40.0,48.0,60.0,14.0,64.0
6078,65.0,0.0,60.0,12.0,64.0
6079,65.0,12.0,60.0,10.0,64.0
6080,53.0,0.0,60.0,13.0,64.0
6081,65.0,0.0,60.0,11.0,64.0
6082,53.0,0.0,60.0,3.0,64.0
6083,41.0,0.0,60.0,14.0,64.0
6084,66.0,240.0,480.0,11.0,64.0
6085,66.0,0.0,480.0,12.0,64.0
6086,54.0,0.0,480.0,3.0,64.0
6087,58.0,48.0,180.0,4.0,64.0
6088,46.0,0.0,180.0,4.0,64.0
6089,70.0,0.0,480.0,1.0,64.0
6090,66.0,0.0,480.0,10.0,64.0
6091,54.0,0.0,480.0,13.0,64.0
6092,42.0,0.0,480.0,14.0,64.0
6093,75.0,192.0,480.0,1.0,64.0
6094,68.0,0.0,420.0,1.0,64.0
6095,65.0,0.0,450.0,11.0,64.0
6096,53.0,0.0,450.0,3.0,64.0
6097,65.0,0.0,450.0,10.0,64.0
6098,65.0,0.0,450.0,12.0,64.0
6099,41.0,264.0,450.0,14.0,64.0
6100,53.0,0.0,450.0,13.0,64.0
6101,73.0,24.0,180.0,1.0,64.0
6102,51.0,0.0,240.0,3.0,64.0
6103,72.0,0.0,240.0,1.0,64.0
6104,66.0,0.0,240.0,1.0,64.0
6105,39.0,0.0,240.0,14.0,64.0
6106,63.0,0.0,240.0,11.0,64.0
6107,63.0,0.0,240.0,10.0,64.0
6108,63.0,240.0,240.0,12.0,64.0
6109,51.0,0.0,240.0,13.0,64.0
6110,65.0,0.0,240.0,1.0,64.0
6111,70.0,0.0,240.0,1.0,64.0
6112,61.0,0.0,240.0,12.0,64.0
6113,49.0,0.0,240.0,13.0,64.0
6114,61.0,0.0,240.0,11.0,64.0
6115,49.0,0.0,240.0,3.0,64.0
6116,61.0,240.0,240.0,10.0,64.0
6117,37.0,0.0,240.0,14.0,64.0
6118,60.0,0.0,240.0,11.0,64.0
6119,60.0,0.0,240.0,12.0,64.0
6120,48.0,0.0,240.0,13.0,64.0
6121,69.0,0.0,240.0,1.0,64.0
6122,63.0,0.0,240.0,1.0,64.0
6123,48.0,0.0,240.0,3.0,64.0
6124,36.0,0.0,240.0,14.0,64.0
6125,60.0,192.0,240.0,10.0,64.0
6126,58.0,0.0,180.0,10.0,64.0
6127,58.0,0.0,180.0,11.0,64.0
6128,58.0,240.0,180.0,12.0,64.0
6129,78.0,192.0,420.0,0.0,64.0
6130,46.0,0.0,180.0,3.0,64.0
6131,70.0,0.0,180.0,1.0,64.0
6132,61.0,0.0,180.0,1.0,64.0
6133,34.0,0.0,180.0,14.0,64.0
6134,46.0,0.0,180.0,13.0,64.0
6135,57.0,0.0,540.0,10.0,64.0
6136,63.0,156.0,390.0,1.0,64.0
6137,60.0,0.0,390.0,1.0,64.0
6138,45.0,60.0,540.0,3.0,64.0
6139,45.0,0.0,540.0,13.0,64.0
6140,33.0,0.0,540.0,14.0,64.0
6141,57.0,0.0,540.0,11.0,64.0
6142,45.0,0.0,540.0,12.0,64.0
6143,77.0,240.0,1200.0,0.0,64.0
6144,84.0,240.0,720.0,0.0,64.0
6145,77.0,0.0,180.0,1.0,64.0
6146,72.0,48.0,180.0,1.0,64.0
6147,46.0,0.0,60.0,13.0,64.0
6148,34.0,60.0,60.0,14.0,64.0
6149,58.0,0.0,60.0,10.0,64.0
6150,58.0,0.0,60.0,11.0,64.0
6151,46.0,0.0,60.0,3.0,64.0
6152,46.0,0.0,60.0,12.0,64.0
6153,60.0,0.0,60.0,10.0,64.0
6154,48.0,12.0,60.0,3.0,64.0
6155,36.0,0.0,60.0,14.0,64.0
6156,48.0,0.0,60.0,13.0,64.0
6157,48.0,0.0,60.0,12.0,64.0
6158,60.0,0.0,60.0,11.0,64.0
6159,61.0,0.0,60.0,11.0,64.0
6160,49.0,0.0,60.0,12.0,64.0
6161,61.0,60.0,60.0,10.0,64.0
6162,37.0,0.0,60.0,14.0,64.0
6163,49.0,0.0,60.0,13.0,64.0
6164,49.0,0.0,60.0,3.0,64.0
6165,39.0,0.0,60.0,14.0,64.0
6166,63.0,0.0,60.0,11.0,64.0
6167,51.0,0.0,60.0,3.0,64.0
6168,72.0,18.0,180.0,1.0,64.0
6169,69.0,0.0,180.0,1.0,64.0
6170,51.0,0.0,60.0,13.0,64.0
6171,63.0,60.0,60.0,10.0,64.0
6172,51.0,0.0,60.0,12.0,64.0
6173,53.0,0.0,60.0,3.0,64.0
6174,65.0,0.0,60.0,11.0,64.0
6175,53.0,0.0,60.0,12.0,64.0
6176,41.0,30.0,60.0,14.0,64.0
6177,53.0,0.0,60.0,13.0,64.0
6178,65.0,0.0,60.0,10.0,64.0
6179,55.0,0.0,30.0,12.0,64.0
6180,55.0,0.0,30.0,13.0,64.0
6181,67.0,0.0,30.0,10.0,64.0
6182,43.0,0.0,30.0,14.0,64.0
6183,55.0,0.0,30.0,3.0,64.0
6184,67.0,30.0,30.0,11.0,64.0
6185,57.0,0.0,30.0,12.0,64.0
6186,69.0,0.0,30.0,10.0,64.0
6187,57.0,0.0,30.0,3.0,64.0
6188,45.0,12.0,30.0,14.0,64.0
6189,57.0,0.0,30.0,13.0,64.0
6190,69.0,0.0,30.0,11.0,64.0
6191,70.0,0.0,30.0,10.0,64.0
6192,70.0,0.0,30.0,11.0,64.0
6193,58.0,0.0,30.0,3.0,64.0
6194,58.0,0.0,30.0,13.0,64.0
6195,46.0,0.0,30.0,14.0,64.0
6196,58.0,30.0,30.0,12.0,64.0
6197,60.0,0.0,30.0,13.0,64.0
6198,72.0,0.0,30.0,10.0,64.0
6199,48.0,0.0,30.0,14.0,64.0
6200,72.0,0.0,30.0,11.0,64.0
6201,60.0,0.0,30.0,12.0,64.0
6202,60.0,192.0,30.0,3.0,64.0
6203,61.0,0.0,480.0,13.0,64.0
6204,61.0,0.0,480.0,3.0,64.0
6205,61.0,0.0,480.0,12.0,64.0
6206,73.0,0.0,480.0,11.0,64.0
6207,73.0,0.0,480.0,10.0,64.0
6208,49.0,0.0,480.0,14.0,64.0
6209,65.0,0.0,180.0,1.0,64.0
6210,77.0,48.0,180.0,1.0,64.0
6211,82.0,192.0,480.0,0.0,64.0
6212,60.0,0.0,450.0,13.0,64.0
6213,48.0,0.0,450.0,14.0,64.0
6214,72.0,0.0,450.0,10.0,64.0
6215,72.0,0.0,450.0,11.0,64.0
6216,75.0,0.0,420.0,0.0,64.0
6217,60.0,264.0,450.0,3.0,64.0
6218,60.0,0.0,450.0,12.0,64.0
6219,80.0,24.0,180.0,0.0,64.0
6220,70.0,0.0,240.0,10.0,64.0
6221,78.0,0.0,240.0,0.0,64.0
6222,58.0,0.0,240.0,3.0,64.0
6223,73.0,0.0,240.0,0.0,64.0
6224,58.0,240.0,240.0,12.0,64.0
6225,70.0,0.0,240.0,11.0,64.0
6226,58.0,0.0,240.0,13.0,64.0
6227,46.0,0.0,240.0,14.0,64.0
6228,68.0,0.0,240.0,11.0,64.0
6229,56.0,0.0,240.0,13.0,64.0
6230,77.0,0.0,240.0,0.0,64.0
6231,44.0,0.0,240.0,14.0,64.0
6232,68.0,240.0,240.0,10.0,64.0
6233,72.0,0.0,240.0,0.0,64.0
6234,56.0,0.0,240.0,12.0,64.0
6235,56.0,0.0,240.0,3.0,64.0
6236,54.0,0.0,240.0,13.0,64.0
6237,54.0,0.0,240.0,12.0,64.0
6238,70.0,48.0,420.0,0.0,64.0
6239,75.0,0.0,240.0,0.0,64.0
6240,66.0,0.0,240.0,10.0,64.0
6241,42.0,192.0,240.0,14.0,64.0
6242,54.0,0.0,240.0,3.0,64.0
6243,66.0,0.0,240.0,11.0,64.0
6244,55.0,0.0,240.0,13.0,64.0
6245,55.0,0.0,240.0,12.0,64.0
6246,67.0,0.0,240.0,10.0,64.0
6247,73.0,0.0,180.0,0.0,64.0
6248,55.0,0.0,240.0,3.0,64.0
6249,67.0,168.0,240.0,11.0,64.0
6250,43.0,0.0,240.0,14.0,64.0
6251,44.0,0.0,180.0,14.0,64.0
6252,56.0,0.0,180.0,13.0,64.0
6253,68.0,0.0,180.0,10.0,64.0
6254,68.0,24.0,180.0,11.0,64.0
6255,56.0,0.0,180.0,12.0,64.0
6256,56.0,216.0,180.0,3.0,64.0
6257,68.0,0.0,180.0,0.0,64.0
6258,72.0,0.0,180.0,0.0,64.0
6259,56.0,0.0,180.0,11.0,64.0
6260,68.0,0.0,180.0,2.0,64.0
6261,44.0,0.0,180.0,12.0,64.0
6262,56.0,240.0,180.0,2.0,64.0
6263,56.0,240.0,180.0,11.0,64.0
6264,44.0,0.0,180.0,12.0,64.0
6265,68.0,0.0,180.0,2.0,64.0
6266,56.0,0.0,180.0,2.0,64.0
6267,56.0,0.0,180.0,11.0,64.0
6268,68.0,0.0,180.0,2.0,64.0
6269,44.0,102.0,180.0,12.0,64.0
6270,56.0,0.0,180.0,2.0,64.0
6271,68.0,32.0,7620.0,2.0,64.0
6272,77.0,30.0,30.0,10.0,64.0
6273,61.0,0.0,900.0,12.0,64.0
6274,53.0,32.0,900.0,12.0,64.0
6275,41.0,0.0,900.0,3.0,64.0
6276,49.0,0.0,900.0,3.0,64.0
6277,56.0,0.0,7620.0,2.0,64.0
6278,78.0,117.0,30.0,10.0,64.0
6279,80.0,159.0,120.0,10.0,64.0
6280,80.0,180.0,150.0,10.0,64.0
6281,49.0,0.0,90.0,15.0,64.0
6282,37.0,60.0,90.0,15.0,64.0
6283,41.0,224.0,90.0,15.0,64.0
6284,53.0,0.0,90.0,15.0,64.0
6285,37.0,0.0,90.0,15.0,64.0
6286,49.0,64.0,90.0,15.0,64.0
6287,80.0,16.0,90.0,10.0,64.0
6288,77.0,32.0,90.0,10.0,64.0
6289,73.0,46.0,60.0,10.0,64.0
6290,63.0,0.0,900.0,12.0,64.0
6291,72.0,30.0,30.0,10.0,64.0
6292,44.0,0.0,900.0,3.0,64.0
6293,56.0,0.0,900.0,12.0,64.0
6294,51.0,32.0,900.0,3.0,64.0
6295,75.0,117.0,30.0,10.0,64.0
6296,78.0,159.0,120.0,10.0,64.0
6297,44.0,0.0,90.0,15.0,64.0
6298,32.0,60.0,90.0,15.0,64.0
6299,78.0,180.0,150.0,10.0,64.0
6300,48.0,224.0,90.0,15.0,64.0
6301,36.0,0.0,90.0,15.0,64.0
6302,32.0,0.0,90.0,15.0,64.0
6303,78.0,16.0,90.0,10.0,64.0
6304,44.0,64.0,90.0,15.0,64.0
6305,75.0,32.0,90.0,10.0,64.0
6306,72.0,46.0,60.0,10.0,64.0
6307,49.0,81.0,90.0,15.0,64.0
6308,37.0,0.0,90.0,15.0,64.0
6309,65.0,30.0,30.0,11.0,64.0
6310,73.0,12.0,780.0,1.0,64.0
6311,65.0,0.0,780.0,1.0,64.0
6312,65.0,138.0,180.0,12.0,64.0
6313,61.0,0.0,180.0,12.0,64.0
6314,53.0,0.0,180.0,3.0,64.0
6315,49.0,0.0,180.0,3.0,64.0
6316,73.0,6.0,90.0,10.0,64.0
6317,66.0,30.0,30.0,11.0,64.0
6318,68.0,15.0,120.0,11.0,64.0
6319,68.0,114.0,150.0,11.0,64.0
6320,56.0,60.0,90.0,15.0,64.0
6321,44.0,0.0,90.0,15.0,64.0
6322,73.0,6.0,90.0,10.0,64.0
6323,53.0,0.0,90.0,15.0,64.0
6324,41.0,24.0,90.0,15.0,64.0
6325,75.0,30.0,30.0,10.0,64.0
6326,73.0,30.0,30.0,10.0,64.0
6327,75.0,6.0,30.0,10.0,64.0
6328,73.0,30.0,30.0,10.0,64.0
6329,75.0,30.0,30.0,10.0,64.0
6330,73.0,30.0,30.0,10.0,64.0
6331,75.0,30.0,30.0,10.0,64.0
6332,73.0,30.0,30.0,10.0,64.0
6333,37.0,24.0,90.0,15.0,64.0
6334,75.0,18.0,30.0,10.0,64.0
6335,68.0,10.0,90.0,11.0,64.0
6336,49.0,0.0,90.0,15.0,64.0
6337,73.0,20.0,30.0,10.0,64.0
6338,75.0,6.0,30.0,10.0,64.0
6339,65.0,20.0,90.0,11.0,64.0
6340,73.0,40.0,30.0,10.0,64.0
6341,72.0,44.0,60.0,10.0,64.0
6342,61.0,16.0,60.0,11.0,64.0
6343,73.0,30.0,60.0,10.0,64.0
6344,68.0,12.0,780.0,1.0,64.0
6345,36.0,0.0,90.0,15.0,64.0
6346,48.0,0.0,90.0,15.0,64.0
6347,75.0,0.0,780.0,1.0,64.0
6348,60.0,30.0,30.0,11.0,64.0
6349,75.0,81.0,90.0,10.0,64.0
6350,63.0,36.0,30.0,11.0,64.0
6351,66.0,159.0,120.0,11.0,64.0
6352,39.0,0.0,90.0,15.0,64.0
6353,75.0,0.0,90.0,10.0,64.0
6354,66.0,114.0,150.0,11.0,64.0
6355,51.0,60.0,90.0,15.0,64.0
6356,36.0,24.0,90.0,15.0,64.0
6357,77.0,30.0,30.0,10.0,64.0
6358,48.0,0.0,90.0,15.0,64.0
6359,75.0,30.0,30.0,10.0,64.0
6360,77.0,6.0,30.0,10.0,64.0
6361,75.0,30.0,30.0,10.0,64.0
6362,77.0,30.0,30.0,10.0,64.0
6363,75.0,30.0,30.0,10.0,64.0
6364,77.0,30.0,30.0,10.0,64.0
6365,75.0,30.0,30.0,10.0,64.0
6366,77.0,18.0,30.0,10.0,64.0
6367,44.0,0.0,90.0,15.0,64.0
6368,66.0,10.0,90.0,11.0,64.0
6369,32.0,24.0,90.0,15.0,64.0
6370,75.0,20.0,30.0,10.0,64.0
6371,77.0,6.0,30.0,10.0,64.0
6372,63.0,20.0,90.0,11.0,64.0
6373,75.0,40.0,30.0,10.0,64.0
6374,73.0,44.0,60.0,10.0,64.0
6375,60.0,16.0,60.0,11.0,64.0
6376,75.0,30.0,60.0,10.0,64.0
6377,68.0,0.0,3780.0,0.0,64.0
6378,80.0,0.0,3780.0,0.0,64.0
6379,53.0,0.0,900.0,12.0,64.0
6380,61.0,0.0,900.0,12.0,64.0
6381,49.0,32.0,900.0,3.0,64.0
6382,41.0,0.0,900.0,3.0,64.0
6383,73.0,138.0,180.0,1.0,64.0
6384,77.0,0.0,180.0,1.0,64.0
6385,77.0,30.0,30.0,10.0,64.0
6386,61.0,87.0,90.0,11.0,64.0
6387,78.0,30.0,30.0,10.0,64.0
6388,80.0,15.0,120.0,10.0,64.0
6389,61.0,6.0,90.0,11.0,64.0
6390,37.0,60.0,90.0,15.0,64.0
6391,80.0,114.0,150.0,10.0,64.0
6392,49.0,0.0,90.0,15.0,64.0
6393,63.0,30.0,30.0,11.0,64.0
6394,41.0,24.0,90.0,15.0,64.0
6395,53.0,0.0,90.0,15.0,64.0
6396,61.0,30.0,30.0,11.0,64.0
6397,63.0,6.0,30.0,11.0,64.0
6398,61.0,30.0,30.0,11.0,64.0
6399,63.0,30.0,30.0,11.0,64.0
6400,61.0,30.0,30.0,11.0,64.0
6401,63.0,30.0,30.0,11.0,64.0
6402,61.0,30.0,30.0,11.0,64.0
6403,49.0,0.0,90.0,15.0,64.0
6404,37.0,24.0,90.0,15.0,64.0
6405,80.0,10.0,90.0,10.0,64.0
6406,63.0,30.0,30.0,11.0,64.0
6407,61.0,20.0,30.0,11.0,64.0
6408,63.0,6.0,30.0,11.0,64.0
6409,77.0,20.0,90.0,10.0,64.0
6410,61.0,40.0,30.0,11.0,64.0
6411,60.0,12.0,60.0,11.0,64.0
6412,73.0,16.0,60.0,10.0,64.0
6413,61.0,30.0,60.0,11.0,64.0
6414,56.0,0.0,900.0,12.0,64.0
6415,44.0,32.0,900.0,3.0,64.0
6416,51.0,0.0,900.0,3.0,64.0
6417,72.0,30.0,30.0,10.0,64.0
6418,63.0,81.0,90.0,11.0,64.0
6419,63.0,0.0,900.0,12.0,64.0
6420,75.0,36.0,30.0,10.0,64.0
6421,78.0,159.0,120.0,10.0,64.0
6422,78.0,114.0,150.0,10.0,64.0
6423,63.0,0.0,90.0,11.0,64.0
6424,44.0,60.0,90.0,15.0,64.0
6425,32.0,0.0,90.0,15.0,64.0
6426,36.0,24.0,90.0,15.0,64.0
6427,48.0,0.0,90.0,15.0,64.0
6428,65.0,30.0,30.0,11.0,64.0
6429,63.0,30.0,30.0,11.0,64.0
6430,65.0,6.0,30.0,11.0,64.0
6431,63.0,30.0,30.0,11.0,64.0
6432,65.0,30.0,30.0,11.0,64.0
6433,63.0,30.0,30.0,11.0,64.0
6434,65.0,30.0,30.0,11.0,64.0
6435,63.0,30.0,30.0,11.0,64.0
6436,44.0,0.0,90.0,15.0,64.0
6437,32.0,24.0,90.0,15.0,64.0
6438,78.0,10.0,90.0,10.0,64.0
6439,65.0,30.0,30.0,11.0,64.0
6440,63.0,20.0,30.0,11.0,64.0
6441,65.0,6.0,30.0,11.0,64.0
6442,75.0,20.0,90.0,10.0,64.0
6443,63.0,40.0,30.0,11.0,64.0
6444,61.0,12.0,60.0,11.0,64.0
6445,72.0,16.0,60.0,10.0,64.0
6446,63.0,30.0,60.0,11.0,64.0
6447,65.0,0.0,180.0,12.0,64.0
6448,53.0,0.0,180.0,3.0,64.0
6449,61.0,0.0,180.0,12.0,64.0
6450,73.0,6.0,90.0,10.0,64.0
6451,37.0,81.0,90.0,15.0,64.0
6452,49.0,0.0,90.0,15.0,64.0
6453,73.0,0.0,780.0,1.0,64.0
6454,65.0,12.0,780.0,1.0,64.0
6455,49.0,138.0,180.0,3.0,64.0
6456,65.0,30.0,30.0,11.0,64.0
6457,66.0,30.0,30.0,11.0,64.0
6458,68.0,15.0,120.0,11.0,64.0
6459,68.0,114.0,150.0,11.0,64.0
6460,56.0,0.0,90.0,15.0,64.0
6461,73.0,6.0,90.0,10.0,64.0
6462,44.0,60.0,90.0,15.0,64.0
6463,75.0,30.0,30.0,10.0,64.0
6464,41.0,0.0,90.0,15.0,64.0
6465,53.0,24.0,90.0,15.0,64.0
6466,73.0,30.0,30.0,10.0,64.0
6467,75.0,6.0,30.0,10.0,64.0
6468,73.0,30.0,30.0,10.0,64.0
6469,75.0,30.0,30.0,10.0,64.0
6470,73.0,30.0,30.0,10.0,64.0
6471,75.0,30.0,30.0,10.0,64.0
6472,73.0,30.0,30.0,10.0,64.0
6473,49.0,24.0,90.0,15.0,64.0
6474,37.0,0.0,90.0,15.0,64.0
6475,68.0,10.0,90.0,11.0,64.0
6476,75.0,18.0,30.0,10.0,64.0
6477,73.0,20.0,30.0,10.0,64.0
6478,75.0,6.0,30.0,10.0,64.0
6479,65.0,20.0,90.0,11.0,64.0
6480,73.0,40.0,30.0,10.0,64.0
6481,72.0,44.0,60.0,10.0,64.0
6482,61.0,16.0,60.0,11.0,64.0
6483,73.0,30.0,60.0,10.0,64.0
6484,36.0,0.0,90.0,15.0,64.0
6485,75.0,0.0,780.0,1.0,64.0
6486,68.0,12.0,780.0,1.0,64.0
6487,60.0,30.0,30.0,11.0,64.0
6488,48.0,0.0,90.0,15.0,64.0
6489,75.0,81.0,90.0,10.0,64.0
6490,63.0,36.0,30.0,11.0,64.0
6491,66.0,159.0,120.0,11.0,64.0
6492,66.0,114.0,150.0,11.0,64.0
6493,75.0,0.0,90.0,10.0,64.0
6494,39.0,0.0,90.0,15.0,64.0
6495,51.0,60.0,90.0,15.0,64.0
6496,77.0,30.0,30.0,10.0,64.0
6497,36.0,0.0,90.0,15.0,64.0
6498,48.0,24.0,90.0,15.0,64.0
6499,75.0,30.0,30.0,10.0,64.0
6500,77.0,6.0,30.0,10.0,64.0
6501,75.0,30.0,30.0,10.0,64.0
6502,77.0,30.0,30.0,10.0,64.0
6503,75.0,30.0,30.0,10.0,64.0
6504,77.0,30.0,30.0,10.0,64.0
6505,75.0,30.0,30.0,10.0,64.0
6506,44.0,24.0,90.0,15.0,64.0
6507,66.0,10.0,90.0,11.0,64.0
6508,77.0,18.0,30.0,10.0,64.0
6509,32.0,0.0,90.0,15.0,64.0
6510,75.0,20.0,30.0,10.0,64.0
6511,77.0,6.0,30.0,10.0,64.0
6512,63.0,20.0,90.0,11.0,64.0
6513,75.0,40.0,30.0,10.0,64.0
6514,73.0,12.0,60.0,10.0,64.0
6515,60.0,16.0,60.0,11.0,64.0
6516,75.0,192.0,60.0,10.0,64.0
6517,49.0,0.0,180.0,15.0,64.0
6518,80.0,0.0,180.0,0.0,64.0
6519,61.0,0.0,180.0,11.0,64.0
6520,77.0,0.0,180.0,10.0,64.0
6521,56.0,0.0,180.0,12.0,64.0
6522,37.0,0.0,180.0,15.0,64.0
6523,73.0,144.0,180.0,1.0,64.0
6524,61.0,240.0,1860.0,3.0,64.0
6525,56.0,0.0,180.0,2.0,64.0
6526,68.0,0.0,180.0,2.0,64.0
6527,77.0,0.0,180.0,1.0,64.0
6528,68.0,0.0,180.0,0.0,64.0
6529,80.0,0.0,90.0,10.0,64.0
6530,65.0,240.0,90.0,11.0,64.0
6531,66.0,0.0,90.0,11.0,64.0
6532,82.0,240.0,90.0,10.0,64.0
6533,80.0,0.0,90.0,10.0,64.0
6534,65.0,240.0,90.0,11.0,64.0
6535,63.0,0.0,90.0,11.0,64.0
6536,78.0,240.0,90.0,10.0,64.0
6537,77.0,240.0,90.0,10.0,64.0
6538,61.0,0.0,90.0,11.0,64.0
6539,75.0,240.0,90.0,10.0,64.0
6540,60.0,0.0,90.0,11.0,64.0
6541,77.0,0.0,90.0,10.0,64.0
6542,61.0,96.0,90.0,11.0,64.0
6543,63.0,144.0,180.0,11.0,64.0
6544,75.0,0.0,180.0,1.0,64.0
6545,32.0,0.0,180.0,14.0,64.0
6546,44.0,0.0,180.0,13.0,64.0
6547,63.0,0.0,180.0,2.0,64.0
6548,72.0,0.0,180.0,1.0,64.0
6549,78.0,0.0,180.0,0.0,64.0
6550,56.0,240.0,1860.0,3.0,64.0
6551,75.0,0.0,180.0,0.0,64.0
6552,56.0,0.0,180.0,12.0,64.0
6553,66.0,0.0,180.0,2.0,64.0
6554,78.0,0.0,180.0,10.0,64.0
6555,78.0,0.0,90.0,10.0,64.0
6556,63.0,240.0,90.0,11.0,64.0
6557,80.0,0.0,90.0,10.0,64.0
6558,65.0,240.0,90.0,11.0,64.0
6559,63.0,0.0,90.0,11.0,64.0
6560,78.0,240.0,90.0,10.0,64.0
6561,61.0,240.0,90.0,11.0,64.0
6562,77.0,0.0,90.0,10.0,64.0
6563,60.0,0.0,90.0,11.0,64.0
6564,75.0,240.0,90.0,10.0,64.0
6565,58.0,240.0,90.0,11.0,64.0
6566,73.0,0.0,90.0,10.0,64.0
6567,60.0,96.0,90.0,11.0,64.0
6568,75.0,0.0,90.0,10.0,64.0
6569,61.0,0.0,180.0,2.0,64.0
6570,73.0,0.0,180.0,1.0,64.0
6571,56.0,0.0,180.0,12.0,64.0
6572,37.0,0.0,180.0,14.0,64.0
6573,77.0,144.0,180.0,0.0,64.0
6574,61.0,0.0,180.0,11.0,64.0
6575,77.0,0.0,180.0,10.0,64.0
6576,73.0,0.0,180.0,0.0,64.0
6577,53.0,240.0,1860.0,4.0,64.0
6578,68.0,0.0,180.0,1.0,64.0
6579,49.0,0.0,180.0,13.0,64.0
6580,49.0,0.0,180.0,3.0,64.0
6581,65.0,0.0,180.0,2.0,64.0
6582,77.0,0.0,90.0,10.0,64.0
6583,61.0,240.0,90.0,11.0,64.0
6584,63.0,0.0,90.0,11.0,64.0
6585,78.0,240.0,90.0,10.0,64.0
6586,61.0,0.0,90.0,11.0,64.0
6587,77.0,336.0,90.0,10.0,64.0
6588,72.0,0.0,180.0,0.0,64.0
6589,53.0,0.0,180.0,12.0,64.0
6590,45.0,0.0,180.0,13.0,64.0
6591,60.0,0.0,180.0,2.0,64.0
6592,33.0,0.0,180.0,14.0,64.0
6593,65.0,0.0,180.0,1.0,64.0
6594,72.0,0.0,180.0,1.0,64.0
6595,60.0,0.0,180.0,11.0,64.0
6596,65.0,144.0,180.0,10.0,64.0
6597,75.0,0.0,180.0,10.0,64.0
6598,63.0,0.0,180.0,2.0,64.0
6599,75.0,0.0,180.0,0.0,64.0
6600,75.0,240.0,90.0,10.0,64.0
6601,60.0,0.0,90.0,11.0,64.0
6602,61.0,0.0,90.0,11.0,64.0
6603,77.0,240.0,90.0,10.0,64.0
6604,60.0,0.0,90.0,11.0,64.0
6605,75.0,96.0,90.0,10.0,64.0
6606,61.0,0.0,180.0,2.0,64.0
6607,73.0,0.0,180.0,10.0,64.0
6608,53.0,0.0,180.0,12.0,64.0
6609,58.0,0.0,180.0,11.0,64.0
6610,65.0,0.0,180.0,10.0,64.0
6611,73.0,0.0,180.0,0.0,64.0
6612,46.0,48.0,1860.0,4.0,64.0
6613,70.0,0.0,180.0,0.0,64.0
6614,34.0,0.0,180.0,14.0,64.0
6615,70.0,0.0,180.0,1.0,64.0
6616,65.0,0.0,180.0,1.0,64.0
6617,58.0,0.0,180.0,2.0,64.0
6618,46.0,144.0,180.0,13.0,64.0
6619,61.0,0.0,90.0,11.0,64.0
6620,77.0,240.0,90.0,10.0,64.0
6621,60.0,240.0,90.0,11.0,64.0
6622,76.0,0.0,90.0,10.0,64.0
6623,61.0,240.0,90.0,11.0,64.0
6624,77.0,0.0,90.0,10.0,64.0
6625,78.0,240.0,90.0,10.0,64.0
6626,27.0,96.0,720.0,14.0,64.0
6627,39.0,0.0,720.0,13.0,64.0
6628,39.0,0.0,720.0,3.0,64.0
6629,63.0,0.0,90.0,11.0,64.0
6630,77.0,0.0,90.0,10.0,64.0
6631,61.0,240.0,90.0,11.0,64.0
6632,75.0,0.0,90.0,10.0,64.0
6633,60.0,144.0,90.0,11.0,64.0
6634,40.0,0.0,240.0,13.0,64.0
6635,40.0,78.0,240.0,3.0,64.0
6636,73.0,96.0,90.0,10.0,64.0
6637,28.0,0.0,240.0,14.0,64.0
6638,58.0,0.0,90.0,11.0,64.0
6639,29.0,0.0,180.0,14.0,64.0
6640,72.0,0.0,180.0,10.0,64.0
6641,41.0,0.0,180.0,3.0,64.0
6642,41.0,0.0,180.0,4.0,64.0
6643,41.0,48.0,180.0,13.0,64.0
6644,57.0,114.0,90.0,11.0,64.0
6645,52.0,120.0,120.0,11.0,64.0
6646,53.0,72.0,120.0,11.0,64.0
6647,65.0,48.0,180.0,0.0,64.0
6648,77.0,0.0,180.0,0.0,64.0
6649,52.0,120.0,120.0,11.0,64.0
6650,77.0,0.0,180.0,0.0,64.0
6651,53.0,72.0,120.0,11.0,64.0
6652,65.0,48.0,180.0,0.0,64.0
6653,52.0,120.0,120.0,11.0,64.0
6654,65.0,0.0,180.0,0.0,64.0
6655,53.0,72.0,120.0,11.0,64.0
6656,77.0,24.0,180.0,0.0,64.0
6657,52.0,216.0,90.0,11.0,64.0
6658,65.0,0.0,1140.0,0.0,64.0
6659,53.0,48.0,180.0,11.0,64.0
6660,77.0,48.0,1140.0,0.0,64.0
6661,64.0,120.0,120.0,10.0,64.0
6662,39.0,0.0,240.0,14.0,64.0
6663,65.0,0.0,720.0,1.0,64.0
6664,51.0,0.0,240.0,3.0,64.0
6665,65.0,120.0,120.0,10.0,64.0
6666,57.0,0.0,240.0,2.0,64.0
6667,51.0,0.0,240.0,13.0,64.0
6668,69.0,0.0,240.0,1.0,64.0
6669,60.0,120.0,240.0,2.0,64.0
6670,64.0,0.0,120.0,10.0,64.0
6671,49.0,0.0,240.0,13.0,64.0
6672,65.0,120.0,120.0,10.0,64.0
6673,37.0,120.0,240.0,14.0,64.0
6674,70.0,0.0,240.0,1.0,64.0
6675,61.0,0.0,480.0,2.0,64.0
6676,58.0,0.0,480.0,2.0,64.0
6677,49.0,0.0,240.0,3.0,64.0
6678,64.0,0.0,120.0,10.0,64.0
6679,65.0,120.0,120.0,10.0,64.0
6680,46.0,0.0,240.0,3.0,64.0
6681,73.0,0.0,240.0,1.0,64.0
6682,46.0,192.0,240.0,13.0,64.0
6683,34.0,0.0,240.0,14.0,64.0
6684,64.0,0.0,120.0,10.0,64.0
6685,72.0,0.0,180.0,1.0,64.0
6686,53.0,0.0,180.0,3.0,64.0
6687,69.0,0.0,180.0,1.0,64.0
6688,65.0,0.0,180.0,10.0,64.0
6689,60.0,0.0,180.0,2.0,64.0
6690,41.0,0.0,180.0,14.0,64.0
6691,53.0,0.0,180.0,13.0,64.0
6692,57.0,0.0,180.0,2.0,64.0
6693,52.0,120.0,120.0,11.0,64.0
6694,77.0,48.0,180.0,1.0,64.0
6695,65.0,0.0,180.0,1.0,64.0
6696,53.0,72.0,120.0,11.0,64.0
6697,52.0,120.0,120.0,11.0,64.0
6698,53.0,72.0,120.0,11.0,64.0
6699,77.0,48.0,180.0,1.0,64.0
6700,65.0,0.0,180.0,1.0,64.0
6701,52.0,120.0,120.0,11.0,64.0
6702,53.0,72.0,120.0,11.0,64.0
6703,77.0,48.0,180.0,1.0,64.0
6704,65.0,0.0,180.0,1.0,64.0
6705,52.0,192.0,120.0,11.0,64.0
6706,77.0,0.0,1140.0,1.0,64.0
6707,65.0,0.0,1140.0,1.0,64.0
6708,53.0,48.0,180.0,11.0,64.0
6709,64.0,120.0,120.0,10.0,64.0
6710,81.0,0.0,240.0,0.0,64.0
6711,75.0,0.0,240.0,0.0,64.0
6712,48.0,0.0,240.0,3.0,64.0
6713,63.0,0.0,240.0,2.0,64.0
6714,69.0,0.0,240.0,2.0,64.0
6715,65.0,120.0,120.0,10.0,64.0
6716,64.0,120.0,120.0,10.0,64.0
6717,46.0,120.0,240.0,3.0,64.0
6718,70.0,0.0,240.0,2.0,64.0
6719,61.0,0.0,240.0,2.0,64.0
6720,82.0,0.0,240.0,0.0,64.0
6721,65.0,120.0,120.0,10.0,64.0
6722,64.0,0.0,120.0,10.0,64.0
6723,70.0,96.0,240.0,0.0,64.0
6724,73.0,0.0,15.0,0.0,64.0
6725,61.0,0.0,240.0,2.0,64.0
6726,58.0,0.0,240.0,2.0,64.0
6727,65.0,120.0,120.0,10.0,64.0
6728,49.0,0.0,240.0,3.0,64.0
6729,64.0,0.0,120.0,10.0,64.0
6730,53.0,0.0,2100.0,4.0,64.0
6731,41.0,0.0,2100.0,4.0,64.0
6732,65.0,72.0,120.0,10.0,64.0
6733,60.0,48.0,180.0,2.0,64.0
6734,57.0,0.0,180.0,2.0,64.0
6735,53.0,0.0,180.0,3.0,64.0
6736,69.0,0.0,90.0,0.0,64.0
6737,72.0,24.0,90.0,0.0,64.0
6738,64.0,96.0,120.0,11.0,64.0
6739,76.0,0.0,120.0,10.0,64.0
6740,65.0,0.0,90.0,0.0,64.0
6741,65.0,120.0,120.0,11.0,64.0
6742,77.0,24.0,90.0,0.0,64.0
6743,77.0,0.0,120.0,10.0,64.0
6744,64.0,0.0,120.0,11.0,64.0
6745,76.0,96.0,120.0,10.0,64.0
6746,65.0,120.0,120.0,11.0,64.0
6747,77.0,0.0,90.0,0.0,64.0
6748,65.0,24.0,90.0,0.0,64.0
6749,77.0,0.0,120.0,10.0,64.0
6750,76.0,30.0,120.0,10.0,64.0
6751,64.0,0.0,120.0,11.0,64.0
6752,63.0,0.0,30.0,2.0,64.0
6753,75.0,30.0,30.0,1.0,64.0
6754,72.0,0.0,30.0,1.0,64.0
6755,77.0,30.0,120.0,10.0,64.0
6756,65.0,0.0,120.0,11.0,64.0
6757,60.0,0.0,30.0,2.0,64.0
6758,61.0,0.0,30.0,2.0,64.0
6759,58.0,30.0,30.0,2.0,64.0
6760,70.0,0.0,30.0,1.0,64.0
6761,73.0,0.0,30.0,1.0,64.0
6762,75.0,0.0,30.0,1.0,64.0
6763,60.0,0.0,30.0,2.0,64.0
6764,63.0,30.0,30.0,2.0,64.0
6765,72.0,0.0,30.0,1.0,64.0
6766,70.0,0.0,30.0,1.0,64.0
6767,73.0,0.0,30.0,1.0,64.0
6768,58.0,0.0,30.0,2.0,64.0
6769,61.0,0.0,30.0,2.0,64.0
6770,60.0,0.0,30.0,2.0,64.0
6771,75.0,0.0,30.0,1.0,64.0
6772,64.0,120.0,120.0,11.0,64.0
6773,72.0,30.0,30.0,1.0,64.0
6774,63.0,0.0,30.0,2.0,64.0
6775,76.0,18.0,90.0,10.0,64.0
6776,58.0,0.0,30.0,2.0,64.0
6777,61.0,30.0,30.0,2.0,64.0
6778,70.0,0.0,30.0,1.0,64.0
6779,73.0,0.0,30.0,1.0,64.0
6780,72.0,6.0,30.0,1.0,64.0
6781,63.0,0.0,30.0,2.0,64.0
6782,69.0,0.0,30.0,1.0,64.0
6783,60.0,0.0,30.0,2.0,64.0
6784,58.0,0.0,20.0,2.0,64.0
6785,73.0,0.0,20.0,1.0,64.0
6786,70.0,0.0,20.0,1.0,64.0
6787,61.0,6.0,20.0,2.0,64.0
6788,69.0,0.0,180.0,1.0,64.0
6789,77.0,72.0,120.0,10.0,64.0
6790,60.0,48.0,180.0,2.0,64.0
6791,57.0,0.0,180.0,2.0,64.0
6792,65.0,0.0,120.0,11.0,64.0
6793,72.0,0.0,180.0,1.0,64.0
6794,76.0,96.0,120.0,10.0,64.0
6795,64.0,0.0,120.0,11.0,64.0
6796,65.0,0.0,120.0,11.0,64.0
6797,77.0,24.0,90.0,0.0,64.0
6798,65.0,0.0,90.0,0.0,64.0
6799,77.0,120.0,120.0,10.0,64.0
6800,64.0,0.0,120.0,11.0,64.0
6801,76.0,96.0,120.0,10.0,64.0
6802,65.0,24.0,90.0,0.0,64.0
6803,65.0,0.0,120.0,11.0,64.0
6804,77.0,120.0,120.0,10.0,64.0
6805,77.0,0.0,90.0,0.0,64.0
6806,76.0,0.0,120.0,10.0,64.0
6807,64.0,30.0,120.0,11.0,64.0
6808,60.0,0.0,30.0,2.0,64.0
6809,63.0,30.0,30.0,2.0,64.0
6810,77.0,0.0,120.0,10.0,64.0
6811,65.0,30.0,120.0,11.0,64.0
6812,72.0,0.0,30.0,1.0,64.0
6813,75.0,0.0,30.0,1.0,64.0
6814,58.0,0.0,30.0,2.0,64.0
6815,73.0,0.0,30.0,1.0,64.0
6816,61.0,0.0,30.0,2.0,64.0
6817,70.0,30.0,30.0,1.0,64.0
6818,63.0,0.0,30.0,2.0,64.0
6819,60.0,30.0,30.0,2.0,64.0
6820,72.0,0.0,30.0,1.0,64.0
6821,75.0,0.0,30.0,1.0,64.0
6822,58.0,0.0,30.0,2.0,64.0
6823,61.0,0.0,30.0,2.0,64.0
6824,70.0,0.0,30.0,1.0,64.0
6825,73.0,0.0,30.0,1.0,64.0
6826,76.0,0.0,90.0,10.0,64.0
6827,60.0,0.0,30.0,2.0,64.0
6828,63.0,30.0,30.0,2.0,64.0
6829,64.0,18.0,90.0,11.0,64.0
6830,75.0,0.0,30.0,1.0,64.0
6831,72.0,0.0,30.0,1.0,64.0
6832,70.0,30.0,30.0,1.0,64.0
6833,73.0,0.0,30.0,1.0,64.0
6834,58.0,0.0,30.0,2.0,64.0
6835,61.0,0.0,30.0,2.0,64.0
6836,60.0,6.0,30.0,2.0,64.0
6837,63.0,0.0,30.0,2.0,64.0
6838,69.0,0.0,30.0,1.0,64.0
6839,72.0,0.0,30.0,1.0,64.0
6840,73.0,126.0,20.0,1.0,64.0
6841,70.0,0.0,20.0,1.0,64.0
6842,58.0,0.0,20.0,2.0,64.0
6843,61.0,0.0,20.0,2.0,64.0
6844,60.0,0.0,180.0,2.0,64.0
6845,65.0,0.0,120.0,11.0,64.0
6846,72.0,48.0,180.0,1.0,64.0
6847,77.0,72.0,120.0,10.0,64.0
6848,69.0,0.0,180.0,1.0,64.0
6849,57.0,0.0,180.0,2.0,64.0
6850,76.0,0.0,120.0,10.0,64.0
6851,64.0,0.0,120.0,11.0,64.0
6852,64.0,120.0,120.0,12.0,64.0
6853,77.0,0.0,120.0,10.0,64.0
6854,65.0,0.0,120.0,11.0,64.0
6855,77.0,0.0,120.0,0.0,64.0
6856,65.0,120.0,120.0,12.0,64.0
6857,76.0,120.0,120.0,10.0,64.0
6858,64.0,0.0,120.0,12.0,64.0
6859,76.0,0.0,120.0,0.0,64.0
6860,64.0,0.0,120.0,11.0,64.0
6861,65.0,0.0,120.0,12.0,64.0
6862,77.0,0.0,120.0,0.0,64.0
6863,65.0,120.0,120.0,11.0,64.0
6864,77.0,0.0,120.0,10.0,64.0
6865,76.0,0.0,120.0,0.0,64.0
6866,76.0,0.0,120.0,10.0,64.0
6867,64.0,0.0,120.0,12.0,64.0
6868,64.0,120.0,120.0,11.0,64.0
6869,65.0,0.0,120.0,12.0,64.0
6870,77.0,0.0,120.0,0.0,64.0
6871,77.0,0.0,120.0,10.0,64.0
6872,65.0,96.0,120.0,11.0,64.0
6873,76.0,0.0,90.0,0.0,64.0
6874,76.0,24.0,90.0,10.0,64.0
6875,64.0,0.0,90.0,11.0,64.0
6876,64.0,120.0,120.0,12.0,64.0
6877,77.0,120.0,120.0,0.0,64.0
6878,77.0,0.0,120.0,10.0,64.0
6879,65.0,0.0,120.0,11.0,64.0
6880,65.0,0.0,120.0,12.0,64.0
6881,66.0,0.0,120.0,11.0,64.0
6882,54.0,0.0,120.0,13.0,64.0
6883,66.0,0.0,120.0,12.0,64.0
6884,78.0,120.0,120.0,0.0,64.0
6885,78.0,0.0,120.0,10.0,64.0
6886,42.0,0.0,120.0,14.0,64.0
6887,54.0,0.0,120.0,3.0,64.0
6888,67.0,0.0,120.0,2.0,64.0
6889,79.0,120.0,120.0,1.0,64.0
6890,79.0,0.0,120.0,10.0,64.0
6891,55.0,0.0,120.0,13.0,64.0
6892,55.0,0.0,120.0,3.0,64.0
6893,43.0,0.0,120.0,14.0,64.0
6894,79.0,0.0,120.0,0.0,64.0
6895,67.0,0.0,120.0,12.0,64.0
6896,67.0,0.0,120.0,11.0,64.0
6897,66.0,0.0,120.0,12.0,64.0
6898,54.0,0.0,120.0,3.0,64.0
6899,78.0,0.0,120.0,0.0,64.0
6900,66.0,0.0,120.0,11.0,64.0
6901,54.0,0.0,120.0,13.0,64.0
6902,42.0,0.0,120.0,14.0,64.0
6903,66.0,0.0,120.0,2.0,64.0
6904,78.0,120.0,120.0,1.0,64.0
6905,78.0,0.0,120.0,10.0,64.0
6906,79.0,0.0,120.0,10.0,64.0
6907,55.0,0.0,120.0,3.0,64.0
6908,79.0,0.0,120.0,0.0,64.0
6909,67.0,0.0,120.0,2.0,64.0
6910,43.0,0.0,120.0,14.0,64.0
6911,67.0,0.0,120.0,12.0,64.0
6912,55.0,0.0,120.0,13.0,64.0
6913,79.0,0.0,120.0,1.0,64.0
6914,67.0,120.0,120.0,11.0,64.0
6915,78.0,0.0,120.0,1.0,64.0
6916,54.0,0.0,120.0,3.0,64.0
6917,78.0,0.0,120.0,10.0,64.0
6918,54.0,120.0,120.0,13.0,64.0
6919,78.0,0.0,120.0,0.0,64.0
6920,66.0,0.0,120.0,2.0,64.0
6921,66.0,0.0,120.0,11.0,64.0
6922,66.0,0.0,120.0,12.0,64.0
6923,42.0,0.0,120.0,14.0,64.0
6924,55.0,0.0,120.0,3.0,64.0
6925,79.0,96.0,120.0,1.0,64.0
6926,67.0,0.0,120.0,12.0,64.0
6927,43.0,0.0,120.0,14.0,64.0
6928,67.0,0.0,120.0,11.0,64.0
6929,79.0,0.0,120.0,10.0,64.0
6930,67.0,0.0,120.0,2.0,64.0
6931,79.0,0.0,120.0,0.0,64.0
6932,55.0,0.0,120.0,13.0,64.0
6933,54.0,0.0,90.0,3.0,64.0
6934,66.0,0.0,90.0,11.0,64.0
6935,66.0,0.0,90.0,2.0,64.0
6936,42.0,0.0,90.0,14.0,64.0
6937,78.0,0.0,90.0,1.0,64.0
6938,66.0,0.0,90.0,12.0,64.0
6939,78.0,144.0,90.0,0.0,64.0
6940,78.0,0.0,90.0,10.0,64.0
6941,54.0,0.0,90.0,13.0,64.0
6942,67.0,0.0,120.0,11.0,64.0
6943,79.0,0.0,120.0,10.0,64.0
6944,67.0,0.0,120.0,12.0,64.0
6945,55.0,0.0,120.0,3.0,64.0
6946,79.0,0.0,120.0,1.0,64.0
6947,55.0,0.0,120.0,13.0,64.0
6948,43.0,0.0,120.0,14.0,64.0
6949,79.0,0.0,120.0,0.0,64.0
6950,67.0,72.0,120.0,2.0,64.0
6951,75.0,0.0,60.0,1.0,64.0
6952,75.0,0.0,60.0,10.0,64.0
6953,51.0,0.0,60.0,13.0,64.0
6954,63.0,0.0,60.0,11.0,64.0
6955,63.0,0.0,60.0,12.0,64.0
6956,39.0,0.0,60.0,14.0,64.0
6957,51.0,0.0,60.0,3.0,64.0
6958,75.0,0.0,60.0,0.0,64.0
6959,63.0,120.0,60.0,2.0,64.0
6960,48.0,0.0,60.0,13.0,64.0
6961,60.0,0.0,60.0,2.0,64.0
6962,72.0,0.0,60.0,1.0,64.0
6963,60.0,0.0,60.0,12.0,64.0
6964,72.0,0.0,60.0,0.0,64.0
6965,60.0,0.0,60.0,11.0,64.0
6966,72.0,120.0,60.0,10.0,64.0
6967,48.0,0.0,60.0,3.0,64.0
6968,36.0,0.0,60.0,14.0,64.0
6969,48.0,0.0,60.0,3.0,64.0
6970,72.0,0.0,60.0,10.0,64.0
6971,60.0,0.0,60.0,11.0,64.0
6972,72.0,0.0,60.0,0.0,64.0
6973,72.0,0.0,60.0,1.0,64.0
6974,48.0,0.0,60.0,13.0,64.0
6975,60.0,168.0,60.0,12.0,64.0
6976,60.0,0.0,60.0,2.0,64.0
6977,36.0,0.0,60.0,14.0,64.0
6978,43.0,0.0,120.0,14.0,64.0
6979,79.0,0.0,120.0,10.0,64.0
6980,55.0,0.0,120.0,3.0,64.0
6981,79.0,0.0,120.0,0.0,64.0
6982,79.0,0.0,120.0,1.0,64.0
6983,67.0,72.0,120.0,12.0,64.0
6984,55.0,0.0,120.0,13.0,64.0
6985,67.0,0.0,120.0,11.0,64.0
6986,67.0,0.0,120.0,2.0,64.0
6987,51.0,0.0,60.0,3.0,64.0
6988,63.0,0.0,60.0,2.0,64.0
6989,75.0,0.0,60.0,10.0,64.0
6990,63.0,0.0,60.0,11.0,64.0
6991,75.0,120.0,60.0,0.0,64.0
6992,63.0,0.0,60.0,12.0,64.0
6993,75.0,0.0,60.0,1.0,64.0
6994,39.0,0.0,60.0,14.0,64.0
6995,51.0,0.0,60.0,13.0,64.0
6996,48.0,0.0,60.0,3.0,64.0
6997,60.0,0.0,60.0,12.0,64.0
6998,72.0,0.0,60.0,1.0,64.0
6999,60.0,0.0,60.0,2.0,64.0
7000,48.0,0.0,60.0,13.0,64.0
7001,36.0,120.0,60.0,14.0,64.0
7002,60.0,0.0,60.0,11.0,64.0
7003,72.0,0.0,60.0,10.0,64.0
7004,72.0,0.0,60.0,0.0,64.0
7005,60.0,0.0,60.0,12.0,64.0
7006,36.0,0.0,60.0,14.0,64.0
7007,60.0,0.0,60.0,11.0,64.0
7008,72.0,168.0,60.0,10.0,64.0
7009,60.0,0.0,60.0,2.0,64.0
7010,48.0,0.0,60.0,13.0,64.0
7011,72.0,0.0,60.0,0.0,64.0
7012,48.0,0.0,60.0,3.0,64.0
7013,72.0,0.0,60.0,1.0,64.0
7014,75.0,0.0,120.0,10.0,64.0
7015,51.0,0.0,120.0,13.0,64.0
7016,63.0,0.0,120.0,11.0,64.0
7017,39.0,72.0,120.0,14.0,64.0
7018,51.0,0.0,120.0,3.0,64.0
7019,63.0,0.0,120.0,12.0,64.0
7020,75.0,0.0,120.0,0.0,64.0
7021,63.0,0.0,120.0,2.0,64.0
7022,75.0,0.0,120.0,1.0,64.0
7023,60.0,0.0,60.0,11.0,64.0
7024,60.0,0.0,60.0,2.0,64.0
7025,72.0,0.0,60.0,1.0,64.0
7026,48.0,0.0,60.0,3.0,64.0
7027,72.0,0.0,60.0,10.0,64.0
7028,60.0,0.0,60.0,12.0,64.0
7029,72.0,120.0,60.0,0.0,64.0
7030,36.0,0.0,60.0,14.0,64.0
7031,48.0,0.0,60.0,13.0,64.0
7032,69.0,0.0,60.0,0.0,64.0
7033,57.0,0.0,60.0,2.0,64.0
7034,45.0,0.0,60.0,3.0,64.0
7035,33.0,0.0,60.0,14.0,64.0
7036,69.0,0.0,60.0,10.0,64.0
7037,57.0,0.0,60.0,12.0,64.0
7038,45.0,0.0,60.0,13.0,64.0
7039,57.0,0.0,60.0,11.0,64.0
7040,69.0,120.0,60.0,1.0,64.0
7041,57.0,0.0,60.0,11.0,64.0
7042,45.0,0.0,60.0,13.0,64.0
7043,69.0,0.0,60.0,10.0,64.0
7044,33.0,168.0,60.0,14.0,64.0
7045,69.0,0.0,60.0,0.0,64.0
7046,69.0,0.0,60.0,1.0,64.0
7047,57.0,0.0,60.0,2.0,64.0
7048,45.0,0.0,60.0,3.0,64.0
7049,57.0,0.0,60.0,12.0,64.0
7050,63.0,0.0,120.0,12.0,64.0
7051,39.0,0.0,120.0,14.0,64.0
7052,63.0,0.0,120.0,11.0,64.0
7053,51.0,0.0,120.0,3.0,64.0
7054,75.0,0.0,120.0,1.0,64.0
7055,63.0,72.0,120.0,2.0,64.0
7056,75.0,0.0,120.0,0.0,64.0
7057,51.0,0.0,120.0,13.0,64.0
7058,75.0,0.0,120.0,10.0,64.0
7059,60.0,0.0,60.0,12.0,64.0
7060,48.0,0.0,60.0,13.0,64.0
7061,36.0,0.0,60.0,14.0,64.0
7062,60.0,0.0,60.0,2.0,64.0
7063,72.0,0.0,60.0,10.0,64.0
7064,60.0,0.0,60.0,11.0,64.0
7065,72.0,120.0,60.0,1.0,64.0
7066,48.0,0.0,60.0,3.0,64.0
7067,72.0,0.0,60.0,0.0,64.0
7068,69.0,0.0,60.0,10.0,64.0
7069,69.0,0.0,60.0,1.0,64.0
7070,45.0,120.0,60.0,3.0,64.0
7071,57.0,0.0,60.0,12.0,64.0
7072,45.0,0.0,60.0,13.0,64.0
7073,69.0,0.0,60.0,0.0,64.0
7074,57.0,0.0,60.0,11.0,64.0
7075,33.0,0.0,60.0,14.0,64.0
7076,57.0,0.0,60.0,2.0,64.0
7077,45.0,0.0,60.0,13.0,64.0
7078,57.0,0.0,60.0,2.0,64.0
7079,45.0,0.0,60.0,3.0,64.0
7080,69.0,0.0,60.0,10.0,64.0
7081,57.0,0.0,60.0,11.0,64.0
7082,57.0,432.0,60.0,12.0,64.0
7083,33.0,0.0,60.0,14.0,64.0
7084,69.0,0.0,60.0,0.0,64.0
7085,69.0,0.0,60.0,1.0,64.0
7086,70.0,0.0,780.0,10.0,64.0
7087,58.0,0.0,780.0,10.0,64.0
7088,58.0,0.0,780.0,5.0,64.0
7089,46.0,384.0,390.0,6.0,64.0
7090,46.0,0.0,780.0,3.0,64.0
7091,46.0,576.0,780.0,13.0,64.0
7092,58.0,0.0,780.0,4.0,64.0
7093,70.0,0.0,780.0,11.0,64.0
7094,58.0,0.0,780.0,11.0,64.0
7095,70.0,0.0,780.0,0.0,64.0
7096,58.0,0.0,780.0,2.0,64.0
7097,34.0,0.0,780.0,14.0,64.0
7098,70.0,0.0,780.0,1.0,64.0
7099,70.0,0.0,780.0,5.0,64.0
7100,58.0,0.0,780.0,12.0,64.0
7101,46.0,0.0,780.0,4.0,64.0
7102,46.0,0.0,390.0,13.0,64.0
7103,46.0,0.0,390.0,3.0,64.0
7104,65.0,0.0,390.0,1.0,64.0
7105,70.0,0.0,390.0,5.0,64.0
7106,58.0,0.0,390.0,5.0,64.0
7107,34.0,0.0,390.0,14.0,64.0
7108,58.0,480.0,390.0,10.0,64.0
7109,46.0,0.0,390.0,4.0,64.0
7110,58.0,0.0,390.0,4.0,64.0
7111,62.0,0.0,390.0,2.0,64.0
7112,58.0,0.0,390.0,11.0,64.0
7113,70.0,0.0,390.0,11.0,64.0
7114,46.0,0.0,390.0,6.0,64.0
7115,62.0,0.0,390.0,1.0,64.0
7116,70.0,0.0,390.0,0.0,64.0
7117,70.0,0.0,390.0,10.0,64.0
7118,53.0,0.0,390.0,2.0,64.0
7119,58.0,0.0,390.0,12.0,64.0
7120,34.0,0.0,390.0,14.0,64.0
7121,53.0,0.0,390.0,2.0,64.0
7122,46.0,0.0,390.0,4.0,64.0
7123,70.0,0.0,390.0,0.0,64.0
7124,58.0,0.0,390.0,4.0,64.0
7125,58.0,0.0,390.0,5.0,64.0
7126,62.0,0.0,390.0,2.0,64.0
7127,46.0,0.0,390.0,3.0,64.0
7128,58.0,0.0,390.0,10.0,64.0
7129,70.0,0.0,390.0,10.0,64.0
7130,70.0,0.0,390.0,5.0,64.0
7131,65.0,0.0,390.0,1.0,64.0
7132,58.0,0.0,390.0,11.0,64.0
7133,70.0,0.0,390.0,11.0,64.0
7134,46.0,0.0,390.0,13.0,64.0
7135,58.0,0.0,390.0,12.0,64.0
7136,46.0,0.0,390.0,6.0,64.0
7137,62.0,120.0,390.0,1.0,64.0
7138,58.0,0.0,1140.0,5.0,64.0
7139,70.0,0.0,1140.0,5.0,64.0
7140,62.0,0.0,180.0,2.0,64.0
7141,58.0,0.0,390.0,10.0,64.0
7142,70.0,18.0,570.0,0.0,64.0
7143,53.0,0.0,180.0,2.0,64.0
7144,46.0,0.0,570.0,3.0,64.0
7145,70.0,0.0,570.0,11.0,64.0
7146,46.0,30.0,20.0,6.0,64.0
7147,62.0,0.0,180.0,1.0,64.0
7148,65.0,12.0,180.0,1.0,64.0
7149,58.0,30.0,390.0,11.0,64.0
7150,46.0,0.0,570.0,13.0,64.0
7151,58.0,0.0,570.0,12.0,64.0
7152,58.0,0.0,180.0,4.0,64.0
7153,46.0,0.0,180.0,4.0,64.0
7154,34.0,0.0,570.0,14.0,64.0
7155,70.0,0.0,570.0,10.0,64.0
7156,46.0,30.0,20.0,6.0,64.0
7157,46.0,30.0,20.0,6.0,64.0
7158,46.0,30.0,20.0,6.0,64.0
7159,46.0,30.0,20.0,6.0,64.0
7160,46.0,18.0,20.0,6.0,64.0
7161,46.0,30.0,20.0,6.0,64.0
7162,46.0,30.0,20.0,6.0,64.0
7163,58.0,0.0,180.0,4.0,64.0
7164,53.0,0.0,180.0,2.0,64.0
7165,62.0,0.0,180.0,2.0,64.0
7166,46.0,30.0,20.0,6.0,64.0
7167,65.0,0.0,180.0,1.0,64.0
7168,62.0,12.0,180.0,1.0,64.0
7169,46.0,0.0,180.0,4.0,64.0
7170,46.0,30.0,20.0,6.0,64.0
7171,46.0,30.0,20.0,6.0,64.0
7172,46.0,30.0,20.0,6.0,64.0
7173,46.0,0.0,20.0,6.0,64.0
7174,46.0,18.0,20.0,6.0,64.0
7175,46.0,30.0,20.0,6.0,64.0
7176,46.0,30.0,20.0,6.0,64.0
7177,46.0,30.0,20.0,6.0,64.0
7178,46.0,0.0,180.0,4.0,64.0
7179,62.0,0.0,180.0,1.0,64.0
7180,53.0,12.0,180.0,2.0,64.0
7181,65.0,0.0,180.0,1.0,64.0
7182,62.0,0.0,180.0,2.0,64.0
7183,58.0,0.0,180.0,4.0,64.0
7184,46.0,30.0,20.0,6.0,64.0
7185,46.0,12.0,20.0,6.0,64.0
7186,46.0,30.0,20.0,6.0,64.0
7187,60.0,0.0,60.0,12.0,64.0
7188,72.0,0.0,60.0,10.0,64.0
7189,48.0,0.0,60.0,13.0,64.0
7190,72.0,6.0,60.0,0.0,64.0
7191,48.0,0.0,60.0,3.0,64.0
7192,36.0,0.0,60.0,14.0,64.0
7193,72.0,0.0,60.0,11.0,64.0
7194,46.0,24.0,20.0,6.0,64.0
7195,46.0,18.0,20.0,6.0,64.0
7196,38.0,0.0,60.0,14.0,64.0
7197,74.0,0.0,60.0,10.0,64.0
7198,74.0,0.0,60.0,0.0,64.0
7199,74.0,0.0,60.0,11.0,64.0
7200,62.0,0.0,60.0,12.0,64.0
7201,50.0,0.0,60.0,3.0,64.0
7202,50.0,6.0,60.0,13.0,64.0
7203,46.0,24.0,20.0,6.0,64.0
7204,46.0,30.0,20.0,6.0,64.0
7205,75.0,6.0,60.0,10.0,64.0
7206,75.0,0.0,60.0,11.0,64.0
7207,58.0,0.0,180.0,4.0,64.0
7208,65.0,0.0,180.0,1.0,64.0
7209,46.0,24.0,20.0,6.0,64.0
7210,62.0,0.0,180.0,1.0,64.0
7211,46.0,0.0,180.0,4.0,64.0
7212,39.0,0.0,60.0,14.0,64.0
7213,62.0,12.0,180.0,2.0,64.0
7214,53.0,0.0,180.0,2.0,64.0
7215,51.0,0.0,60.0,3.0,64.0
7216,51.0,0.0,60.0,13.0,64.0
7217,63.0,0.0,60.0,12.0,64.0
7218,75.0,0.0,60.0,0.0,64.0
7219,46.0,30.0,20.0,6.0,64.0
7220,46.0,24.0,20.0,6.0,64.0
7221,41.0,0.0,60.0,14.0,64.0
7222,77.0,6.0,60.0,10.0,64.0
7223,53.0,0.0,60.0,3.0,64.0
7224,65.0,0.0,60.0,12.0,64.0
7225,77.0,0.0,60.0,0.0,64.0
7226,53.0,0.0,60.0,13.0,64.0
7227,77.0,0.0,60.0,11.0,64.0
7228,46.0,30.0,20.0,6.0,64.0
7229,67.0,0.0,60.0,12.0,64.0
7230,79.0,0.0,60.0,0.0,64.0
7231,55.0,0.0,60.0,13.0,64.0
7232,79.0,6.0,60.0,10.0,64.0
7233,55.0,0.0,60.0,3.0,64.0
7234,43.0,0.0,60.0,14.0,64.0
7235,79.0,0.0,60.0,11.0,64.0
7236,46.0,24.0,20.0,6.0,64.0
7237,46.0,18.0,20.0,6.0,64.0
7238,81.0,0.0,60.0,10.0,64.0
7239,57.0,0.0,60.0,13.0,64.0
7240,57.0,0.0,60.0,3.0,64.0
7241,45.0,0.0,60.0,14.0,64.0
7242,69.0,0.0,60.0,12.0,64.0
7243,81.0,0.0,60.0,0.0,64.0
7244,81.0,6.0,60.0,11.0,64.0
7245,46.0,24.0,20.0,6.0,64.0
7246,46.0,198.0,20.0,6.0,64.0
7247,62.0,0.0,180.0,2.0,64.0
7248,53.0,0.0,180.0,2.0,64.0
7249,82.0,0.0,180.0,10.0,64.0
7250,46.0,0.0,180.0,6.0,64.0
7251,46.0,0.0,180.0,14.0,64.0
7252,70.0,0.0,180.0,12.0,64.0
7253,58.0,0.0,180.0,13.0,64.0
7254,58.0,0.0,180.0,3.0,64.0
7255,58.0,0.0,180.0,4.0,64.0
7256,82.0,0.0,180.0,0.0,64.0
7257,62.0,0.0,180.0,1.0,64.0
7258,82.0,672.0,180.0,11.0,64.0
7259,65.0,0.0,180.0,1.0,64.0
7260,46.0,0.0,180.0,4.0,64.0
7261,82.0,48.0,180.0,10.0,64.0
7262,70.0,36.0,150.0,11.0,64.0
7263,77.0,240.0,60.0,10.0,64.0
7264,65.0,12.0,60.0,11.0,64.0
7265,62.0,180.0,240.0,11.0,64.0
7266,74.0,0.0,240.0,10.0,64.0
7267,79.0,0.0,180.0,10.0,64.0
7268,67.0,60.0,180.0,11.0,64.0
7269,75.0,0.0,60.0,10.0,64.0
7270,63.0,192.0,60.0,11.0,64.0
7271,72.0,228.0,180.0,10.0,64.0
7272,60.0,0.0,180.0,11.0,64.0
7273,65.0,0.0,180.0,11.0,64.0
7274,77.0,60.0,180.0,10.0,64.0
7275,62.0,240.0,60.0,11.0,64.0
7276,74.0,0.0,60.0,10.0,64.0
7277,70.0,0.0,240.0,10.0,64.0
7278,58.0,180.0,240.0,11.0,64.0
7279,63.0,0.0,180.0,11.0,64.0
7280,75.0,60.0,180.0,10.0,64.0
7281,72.0,0.0,60.0,10.0,64.0
7282,60.0,192.0,60.0,11.0,64.0
7283,69.0,0.0,180.0,10.0,64.0
7284,57.0,228.0,180.0,11.0,64.0
7285,74.0,0.0,180.0,10.0,64.0
7286,62.0,60.0,180.0,11.0,64.0
7287,58.0,78.0,60.0,11.0,64.0
7288,70.0,0.0,60.0,10.0,64.0
7289,75.0,0.0,780.0,1.0,64.0
7290,69.0,0.0,780.0,2.0,64.0
7291,53.0,0.0,780.0,4.0,64.0
7292,60.0,0.0,780.0,4.0,64.0
7293,57.0,0.0,90.0,11.0,64.0
7294,65.0,0.0,780.0,2.0,64.0
7295,69.0,120.0,90.0,10.0,64.0
7296,77.0,0.0,780.0,0.0,64.0
7297,72.0,30.0,780.0,1.0,64.0
7298,70.0,120.0,90.0,10.0,64.0
7299,58.0,0.0,90.0,11.0,64.0
7300,60.0,0.0,90.0,11.0,64.0
7301,72.0,120.0,90.0,10.0,64.0
7302,74.0,120.0,90.0,10.0,64.0
7303,62.0,0.0,90.0,11.0,64.0
7304,63.0,120.0,90.0,11.0,64.0
7305,75.0,0.0,90.0,10.0,64.0
7306,65.0,90.0,90.0,11.0,64.0
7307,77.0,0.0,90.0,10.0,64.0
7308,67.0,120.0,90.0,11.0,64.0
7309,79.0,0.0,90.0,10.0,64.0
7310,77.0,0.0,90.0,10.0,64.0
7311,65.0,120.0,90.0,11.0,64.0
7312,63.0,0.0,90.0,11.0,64.0
7313,65.0,0.0,390.0,2.0,64.0
7314,69.0,0.0,390.0,2.0,64.0
7315,53.0,0.0,390.0,4.0,64.0
7316,72.0,0.0,390.0,1.0,64.0
7317,75.0,120.0,90.0,10.0,64.0
7318,75.0,0.0,390.0,1.0,64.0
7319,77.0,54.0,390.0,0.0,64.0
7320,60.0,0.0,390.0,4.0,64.0
7321,62.0,0.0,90.0,11.0,64.0
7322,74.0,120.0,90.0,10.0,64.0
7323,72.0,66.0,90.0,10.0,64.0
7324,60.0,0.0,90.0,11.0,64.0
7325,70.0,120.0,90.0,10.0,64.0
7326,58.0,0.0,90.0,11.0,64.0
7327,69.0,0.0,90.0,10.0,64.0
7328,65.0,0.0,390.0,2.0,64.0
7329,69.0,0.0,390.0,2.0,64.0
7330,57.0,120.0,90.0,11.0,64.0
7331,77.0,0.0,390.0,0.0,64.0
7332,72.0,54.0,390.0,1.0,64.0
7333,75.0,0.0,390.0,1.0,64.0
7334,60.0,0.0,390.0,4.0,64.0
7335,53.0,0.0,390.0,4.0,64.0
7336,58.0,0.0,90.0,11.0,64.0
7337,70.0,120.0,90.0,10.0,64.0
7338,72.0,66.0,90.0,10.0,64.0
7339,60.0,0.0,90.0,11.0,64.0
7340,62.0,120.0,90.0,11.0,64.0
7341,74.0,0.0,90.0,10.0,64.0
7342,63.0,0.0,90.0,11.0,64.0
7343,53.0,0.0,780.0,4.0,64.0
7344,60.0,0.0,780.0,4.0,64.0
7345,75.0,120.0,90.0,10.0,64.0
7346,75.0,0.0,780.0,1.0,64.0
7347,72.0,0.0,780.0,1.0,64.0
7348,81.0,0.0,780.0,0.0,64.0
7349,77.0,30.0,780.0,0.0,64.0
7350,65.0,0.0,780.0,2.0,64.0
7351,69.0,0.0,780.0,2.0,64.0
7352,65.0,0.0,90.0,11.0,64.0
7353,77.0,120.0,90.0,10.0,64.0
7354,67.0,120.0,90.0,11.0,64.0
7355,79.0,0.0,90.0,10.0,64.0
7356,77.0,0.0,90.0,10.0,64.0
7357,65.0,120.0,90.0,11.0,64.0
7358,75.0,0.0,90.0,10.0,64.0
7359,63.0,120.0,90.0,11.0,64.0
7360,74.0,0.0,90.0,10.0,64.0
7361,62.0,90.0,90.0,11.0,64.0
7362,72.0,0.0,90.0,10.0,64.0
7363,60.0,120.0,90.0,11.0,64.0
7364,58.0,0.0,90.0,11.0,64.0
7365,70.0,120.0,90.0,10.0,64.0
7366,60.0,0.0,390.0,4.0,64.0
7367,53.0,0.0,390.0,4.0,64.0
7368,69.0,120.0,90.0,10.0,64.0
7369,75.0,0.0,390.0,1.0,64.0
7370,77.0,0.0,390.0,0.0,64.0
7371,81.0,0.0,390.0,0.0,64.0
7372,57.0,0.0,90.0,11.0,64.0
7373,65.0,0.0,390.0,2.0,64.0
7374,69.0,0.0,390.0,2.0,64.0
7375,72.0,54.0,390.0,1.0,64.0
7376,58.0,0.0,90.0,11.0,64.0
7377,70.0,120.0,90.0,10.0,64.0
7378,60.0,66.0,90.0,11.0,64.0
7379,72.0,0.0,90.0,10.0,64.0
7380,74.0,120.0,90.0,10.0,64.0
7381,62.0,0.0,90.0,11.0,64.0
7382,77.0,0.0,390.0,0.0,64.0
7383,72.0,0.0,390.0,1.0,64.0
7384,75.0,120.0,90.0,10.0,64.0
7385,53.0,0.0,390.0,4.0,64.0
7386,60.0,0.0,390.0,4.0,64.0
7387,75.0,0.0,390.0,1.0,64.0
7388,65.0,0.0,390.0,2.0,64.0
7389,69.0,0.0,390.0,2.0,64.0
7390,81.0,54.0,390.0,0.0,64.0
7391,63.0,0.0,90.0,11.0,64.0
7392,62.0,0.0,90.0,11.0,64.0
7393,74.0,120.0,90.0,10.0,64.0
7394,63.0,66.0,90.0,11.0,64.0
7395,75.0,0.0,90.0,10.0,64.0
7396,60.0,0.0,90.0,11.0,64.0
7397,72.0,234.0,90.0,10.0,64.0
7398,58.0,576.0,780.0,11.0,64.0
7399,77.0,0.0,180.0,0.0,64.0
7400,82.0,0.0,180.0,0.0,64.0
7401,70.0,0.0,780.0,11.0,64.0
7402,46.0,0.0,780.0,6.0,64.0
7403,58.0,0.0,780.0,5.0,64.0
7404,70.0,0.0,180.0,1.0,64.0
7405,74.0,0.0,180.0,1.0,64.0
7406,58.0,0.0,780.0,12.0,64.0
7407,58.0,0.0,780.0,10.0,64.0
7408,46.0,576.0,180.0,4.0,64.0
7409,46.0,0.0,780.0,3.0,64.0
7410,46.0,0.0,780.0,12.0,64.0
7411,70.0,0.0,780.0,2.0,64.0
7412,62.0,0.0,780.0,2.0,64.0
7413,58.0,0.0,780.0,13.0,64.0
7414,70.0,0.0,780.0,5.0,64.0
7415,58.0,0.0,180.0,4.0,64.0
7416,70.0,0.0,780.0,10.0,64.0
7417,46.0,0.0,390.0,3.0,64.0
7418,70.0,0.0,390.0,5.0,64.0
7419,58.0,0.0,390.0,11.0,64.0
7420,70.0,0.0,390.0,11.0,64.0
7421,58.0,0.0,390.0,10.0,64.0
7422,46.0,0.0,390.0,12.0,64.0
7423,58.0,0.0,390.0,5.0,64.0
7424,46.0,0.0,390.0,6.0,64.0
7425,70.0,480.0,390.0,10.0,64.0
7426,62.0,0.0,390.0,2.0,64.0
7427,65.0,0.0,390.0,2.0,64.0
7428,58.0,0.0,390.0,12.0,64.0
7429,58.0,0.0,390.0,13.0,64.0
7430,58.0,0.0,390.0,13.0,64.0
7431,70.0,0.0,390.0,5.0,64.0
7432,46.0,0.0,390.0,3.0,64.0
7433,58.0,0.0,390.0,5.0,64.0
7434,58.0,120.0,390.0,11.0,64.0
7435,70.0,0.0,390.0,11.0,64.0
7436,58.0,0.0,390.0,12.0,64.0
7437,58.0,0.0,390.0,10.0,64.0
7438,46.0,0.0,390.0,6.0,64.0
7439,70.0,0.0,390.0,10.0,64.0
7440,46.0,0.0,390.0,12.0,64.0
7441,65.0,0.0,390.0,2.0,64.0
7442,62.0,0.0,390.0,2.0,64.0
7443,82.0,0.0,780.0,0.0,64.0
7444,58.0,0.0,780.0,4.0,64.0
7445,46.0,0.0,780.0,4.0,64.0
7446,44.0,6.0,780.0,13.0,64.0
7447,32.0,0.0,780.0,13.0,64.0
7448,32.0,0.0,780.0,14.0,64.0
7449,56.0,0.0,780.0,12.0,64.0
7450,44.0,0.0,780.0,12.0,64.0
7451,53.0,0.0,780.0,2.0,64.0
7452,44.0,0.0,780.0,3.0,64.0
7453,70.0,0.0,780.0,1.0,64.0
7454,65.0,0.0,780.0,1.0,64.0
7455,70.0,0.0,780.0,0.0,64.0
7456,70.0,0.0,1140.0,5.0,64.0
7457,70.0,18.0,570.0,10.0,64.0
7458,58.0,30.0,390.0,10.0,64.0
7459,70.0,0.0,570.0,11.0,64.0
7460,58.0,0.0,1140.0,5.0,64.0
7461,58.0,0.0,390.0,11.0,64.0
7462,46.0,30.0,20.0,6.0,64.0
7463,62.0,0.0,780.0,2.0,64.0
7464,46.0,30.0,20.0,6.0,64.0
7465,46.0,30.0,20.0,6.0,64.0
7466,46.0,30.0,20.0,6.0,64.0
7467,46.0,30.0,20.0,6.0,64.0
7468,46.0,30.0,20.0,6.0,64.0
7469,46.0,30.0,20.0,6.0,64.0
7470,46.0,30.0,20.0,6.0,64.0
7471,46.0,30.0,20.0,6.0,64.0
7472,46.0,30.0,20.0,6.0,64.0
7473,46.0,30.0,20.0,6.0,64.0
7474,46.0,30.0,20.0,6.0,64.0
7475,46.0,0.0,20.0,6.0,64.0
7476,46.0,30.0,20.0,6.0,64.0
7477,46.0,30.0,20.0,6.0,64.0
7478,46.0,30.0,20.0,6.0,64.0
7479,46.0,30.0,20.0,6.0,64.0
7480,46.0,30.0,20.0,6.0,64.0
7481,46.0,12.0,20.0,6.0,64.0
7482,46.0,30.0,20.0,6.0,64.0
7483,72.0,0.0,60.0,11.0,64.0
7484,72.0,6.0,60.0,10.0,64.0
7485,46.0,24.0,20.0,6.0,64.0
7486,46.0,30.0,20.0,6.0,64.0
7487,74.0,6.0,60.0,10.0,64.0
7488,46.0,24.0,20.0,6.0,64.0
7489,74.0,0.0,60.0,11.0,64.0
7490,46.0,30.0,20.0,6.0,64.0
7491,46.0,24.0,20.0,6.0,64.0
7492,75.0,0.0,60.0,10.0,64.0
7493,75.0,0.0,60.0,11.0,64.0
7494,46.0,30.0,20.0,6.0,64.0
7495,77.0,6.0,60.0,11.0,64.0
7496,77.0,0.0,60.0,10.0,64.0
7497,46.0,24.0,20.0,6.0,64.0
7498,46.0,30.0,20.0,6.0,64.0
7499,79.0,0.0,60.0,11.0,64.0
7500,79.0,6.0,60.0,10.0,64.0
7501,46.0,24.0,20.0,6.0,64.0
7502,46.0,30.0,20.0,6.0,64.0
7503,46.0,24.0,20.0,6.0,64.0
7504,81.0,6.0,60.0,11.0,64.0
7505,81.0,0.0,60.0,10.0,64.0
7506,46.0,198.0,20.0,6.0,64.0
7507,70.0,0.0,390.0,1.0,64.0
7508,82.0,0.0,390.0,0.0,64.0
7509,70.0,0.0,390.0,0.0,64.0
7510,44.0,0.0,390.0,12.0,64.0
7511,56.0,0.0,390.0,12.0,64.0
7512,32.0,0.0,390.0,13.0,64.0
7513,62.0,480.0,390.0,2.0,64.0
7514,53.0,0.0,390.0,2.0,64.0
7515,46.0,0.0,390.0,4.0,64.0
7516,65.0,0.0,390.0,1.0,64.0
7517,82.0,192.0,180.0,11.0,64.0
7518,44.0,0.0,390.0,13.0,64.0
7519,58.0,0.0,390.0,4.0,64.0
7520,82.0,0.0,180.0,10.0,64.0
7521,46.0,0.0,180.0,6.0,64.0
7522,32.0,0.0,390.0,14.0,64.0
7523,44.0,0.0,390.0,3.0,64.0
7524,62.0,0.0,390.0,2.0,64.0
7525,44.0,0.0,390.0,13.0,64.0
7526,65.0,0.0,390.0,1.0,64.0
7527,70.0,0.0,390.0,1.0,64.0
7528,32.0,144.0,390.0,13.0,64.0
7529,44.0,0.0,390.0,3.0,64.0
7530,53.0,0.0,390.0,2.0,64.0
7531,32.0,0.0,390.0,14.0,64.0
7532,46.0,0.0,390.0,4.0,64.0
7533,82.0,0.0,390.0,0.0,64.0
7534,70.0,0.0,390.0,0.0,64.0
7535,44.0,0.0,390.0,12.0,64.0
7536,56.0,0.0,390.0,12.0,64.0
7537,58.0,0.0,390.0,4.0,64.0
7538,31.0,0.0,570.0,14.0,64.0
7539,65.0,0.0,1140.0,1.0,64.0
7540,71.0,0.0,1860.0,1.0,64.0
7541,55.0,0.0,780.0,2.0,64.0
7542,77.0,0.0,1140.0,0.0,64.0
7543,50.0,0.0,780.0,4.0,64.0
7544,83.0,0.0,60.0,10.0,64.0
7545,77.0,60.0,60.0,11.0,64.0
7546,43.0,12.0,570.0,13.0,64.0
7547,43.0,0.0,570.0,3.0,64.0
7548,55.0,0.0,780.0,12.0,64.0
7549,74.0,0.0,1140.0,0.0,64.0
7550,74.0,0.0,60.0,10.0,64.0
7551,62.0,24.0,1350.0,4.0,64.0
7552,83.0,0.0,60.0,10.0,64.0
7553,74.0,0.0,60.0,10.0,64.0
7554,77.0,60.0,60.0,11.0,64.0
7555,83.0,0.0,60.0,10.0,64.0
7556,74.0,0.0,60.0,10.0,64.0
7557,77.0,60.0,60.0,11.0,64.0
7558,74.0,60.0,60.0,10.0,64.0
7559,83.0,0.0,60.0,10.0,64.0
7560,77.0,0.0,60.0,11.0,64.0
7561,83.0,0.0,60.0,10.0,64.0
7562,77.0,0.0,60.0,11.0,64.0
7563,74.0,60.0,60.0,10.0,64.0
7564,77.0,0.0,60.0,11.0,64.0
7565,74.0,60.0,60.0,10.0,64.0
7566,83.0,0.0,60.0,10.0,64.0
7567,77.0,0.0,60.0,11.0,64.0
7568,74.0,60.0,60.0,10.0,64.0
7569,83.0,0.0,60.0,10.0,64.0
7570,74.0,0.0,60.0,10.0,64.0
7571,77.0,60.0,60.0,11.0,64.0
7572,83.0,0.0,60.0,10.0,64.0
7573,74.0,48.0,60.0,10.0,64.0
7574,83.0,0.0,60.0,10.0,64.0
7575,77.0,0.0,60.0,11.0,64.0
7576,77.0,0.0,60.0,11.0,64.0
7577,74.0,60.0,60.0,10.0,64.0
7578,83.0,0.0,60.0,10.0,64.0
7579,74.0,0.0,60.0,10.0,64.0
7580,45.0,0.0,60.0,3.0,64.0
7581,77.0,0.0,60.0,11.0,64.0
7582,33.0,0.0,60.0,14.0,64.0
7583,45.0,60.0,60.0,13.0,64.0
7584,83.0,0.0,60.0,10.0,64.0
7585,77.0,0.0,60.0,11.0,64.0
7586,74.0,60.0,60.0,10.0,64.0
7587,47.0,0.0,60.0,13.0,64.0
7588,35.0,0.0,60.0,14.0,64.0
7589,47.0,0.0,60.0,3.0,64.0
7590,83.0,0.0,60.0,10.0,64.0
7591,77.0,0.0,60.0,11.0,64.0
7592,48.0,0.0,60.0,3.0,64.0
7593,36.0,0.0,60.0,14.0,64.0
7594,48.0,0.0,60.0,13.0,64.0
7595,83.0,0.0,60.0,10.0,64.0
7596,74.0,60.0,60.0,10.0,64.0
7597,74.0,0.0,60.0,10.0,64.0
7598,38.0,0.0,60.0,14.0,64.0
7599,50.0,0.0,60.0,3.0,64.0
7600,50.0,60.0,60.0,13.0,64.0
7601,77.0,0.0,60.0,11.0,64.0
7602,83.0,0.0,60.0,10.0,64.0
7603,77.0,0.0,60.0,11.0,64.0
7604,74.0,0.0,60.0,10.0,64.0
7605,83.0,0.0,60.0,10.0,64.0
7606,39.0,60.0,60.0,14.0,64.0
7607,51.0,0.0,60.0,3.0,64.0
7608,51.0,0.0,60.0,13.0,64.0
7609,83.0,0.0,60.0,10.0,64.0
7610,53.0,60.0,60.0,13.0,64.0
7611,74.0,0.0,60.0,10.0,64.0
7612,53.0,0.0,60.0,3.0,64.0
7613,41.0,0.0,60.0,14.0,64.0
7614,77.0,0.0,60.0,11.0,64.0
7615,77.0,44.0,60.0,11.0,64.0
7616,55.0,0.0,390.0,12.0,64.0
7617,55.0,0.0,180.0,13.0,64.0
7618,55.0,0.0,390.0,2.0,64.0
7619,43.0,32.0,180.0,14.0,64.0
7620,83.0,16.0,60.0,10.0,64.0
7621,74.0,0.0,60.0,10.0,64.0
7622,55.0,0.0,180.0,3.0,64.0
7623,83.0,0.0,60.0,10.0,64.0
7624,74.0,36.0,60.0,10.0,64.0
7625,77.0,24.0,60.0,11.0,64.0
7626,83.0,24.0,60.0,10.0,64.0
7627,74.0,0.0,60.0,10.0,64.0
7628,77.0,4.0,60.0,11.0,64.0
7629,74.0,60.0,60.0,10.0,64.0
7630,83.0,0.0,60.0,10.0,64.0
7631,80.0,44.0,60.0,11.0,64.0
7632,68.0,0.0,240.0,1.0,64.0
7633,80.0,0.0,240.0,0.0,64.0
7634,74.0,16.0,60.0,10.0,64.0
7635,83.0,0.0,60.0,10.0,64.0
7636,77.0,48.0,240.0,0.0,64.0
7637,83.0,36.0,60.0,10.0,64.0
7638,74.0,0.0,60.0,10.0,64.0
7639,80.0,0.0,60.0,11.0,64.0
7640,74.0,0.0,60.0,10.0,64.0
7641,83.0,56.0,60.0,10.0,64.0
7642,80.0,4.0,60.0,11.0,64.0
7643,83.0,0.0,60.0,10.0,64.0
7644,74.0,12.0,60.0,10.0,64.0
7645,67.0,48.0,240.0,1.0,64.0
7646,79.0,44.0,60.0,11.0,64.0
7647,55.0,24.0,390.0,2.0,64.0
7648,83.0,16.0,60.0,10.0,64.0
7649,74.0,0.0,60.0,10.0,64.0
7650,75.0,0.0,240.0,0.0,64.0
7651,79.0,0.0,240.0,0.0,64.0
7652,55.0,0.0,390.0,12.0,64.0
7653,62.0,44.0,180.0,4.0,64.0
7654,74.0,0.0,60.0,10.0,64.0
7655,83.0,36.0,60.0,10.0,64.0
7656,79.0,24.0,60.0,11.0,64.0
7657,74.0,0.0,60.0,10.0,64.0
7658,83.0,12.0,60.0,10.0,64.0
7659,79.0,4.0,60.0,11.0,64.0
7660,83.0,0.0,60.0,10.0,64.0
7661,74.0,12.0,60.0,10.0,64.0
7662,74.0,32.0,180.0,0.0,64.0
7663,77.0,0.0,180.0,0.0,64.0
7664,77.0,44.0,60.0,11.0,64.0
7665,62.0,12.0,180.0,4.0,64.0
7666,65.0,0.0,180.0,1.0,64.0
7667,83.0,0.0,60.0,10.0,64.0
7668,74.0,16.0,60.0,10.0,64.0
7669,74.0,0.0,60.0,10.0,64.0
7670,83.0,36.0,60.0,10.0,64.0
7671,77.0,0.0,60.0,11.0,64.0
7672,83.0,12.0,60.0,10.0,64.0
7673,74.0,0.0,60.0,10.0,64.0
7674,77.0,4.0,60.0,11.0,64.0
7675,74.0,60.0,60.0,10.0,64.0
7676,83.0,0.0,60.0,10.0,64.0
7677,48.0,0.0,780.0,3.0,64.0
7678,60.0,0.0,570.0,12.0,64.0
7679,82.0,0.0,60.0,10.0,64.0
7680,76.0,0.0,60.0,11.0,64.0
7681,67.0,0.0,60.0,11.0,64.0
7682,67.0,32.0,1860.0,0.0,64.0
7683,76.0,32.0,1140.0,0.0,64.0
7684,72.0,60.0,60.0,10.0,64.0
7685,36.0,0.0,780.0,14.0,64.0
7686,60.0,12.0,570.0,2.0,64.0
7687,48.0,0.0,780.0,13.0,64.0
7688,60.0,0.0,1350.0,4.0,64.0
7689,64.0,0.0,1140.0,1.0,64.0
7690,70.0,0.0,1860.0,1.0,64.0
7691,76.0,0.0,60.0,11.0,64.0
7692,67.0,60.0,60.0,11.0,64.0
7693,82.0,0.0,60.0,10.0,64.0
7694,72.0,0.0,60.0,10.0,64.0
7695,82.0,0.0,60.0,10.0,64.0
7696,76.0,0.0,60.0,11.0,64.0
7697,67.0,60.0,60.0,11.0,64.0
7698,72.0,0.0,60.0,10.0,64.0
7699,82.0,0.0,60.0,10.0,64.0
7700,67.0,0.0,60.0,11.0,64.0
7701,76.0,0.0,60.0,11.0,64.0
7702,72.0,60.0,60.0,10.0,64.0
7703,76.0,0.0,60.0,11.0,64.0
7704,67.0,0.0,60.0,11.0,64.0
7705,72.0,60.0,60.0,10.0,64.0
7706,82.0,0.0,60.0,10.0,64.0
7707,76.0,0.0,60.0,11.0,64.0
7708,72.0,0.0,60.0,10.0,64.0
7709,67.0,60.0,60.0,11.0,64.0
7710,82.0,0.0,60.0,10.0,64.0
7711,67.0,60.0,60.0,11.0,64.0
7712,76.0,0.0,60.0,11.0,64.0
7713,82.0,0.0,60.0,10.0,64.0
7714,72.0,0.0,60.0,10.0,64.0
7715,67.0,0.0,60.0,11.0,64.0
7716,76.0,0.0,60.0,11.0,64.0
7717,72.0,60.0,60.0,10.0,64.0
7718,82.0,0.0,60.0,10.0,64.0
7719,76.0,0.0,60.0,11.0,64.0
7720,82.0,0.0,60.0,10.0,64.0
7721,72.0,0.0,60.0,10.0,64.0
7722,67.0,48.0,60.0,11.0,64.0
7723,72.0,0.0,60.0,10.0,64.0
7724,82.0,60.0,60.0,10.0,64.0
7725,76.0,0.0,60.0,11.0,64.0
7726,67.0,0.0,60.0,11.0,64.0
7727,62.0,60.0,60.0,12.0,64.0
7728,62.0,0.0,60.0,2.0,64.0
7729,82.0,0.0,60.0,10.0,64.0
7730,72.0,0.0,60.0,10.0,64.0
7731,67.0,0.0,60.0,11.0,64.0
7732,76.0,0.0,60.0,11.0,64.0
7733,64.0,0.0,60.0,12.0,64.0
7734,76.0,0.0,60.0,11.0,64.0
7735,67.0,0.0,60.0,11.0,64.0
7736,82.0,60.0,60.0,10.0,64.0
7737,64.0,0.0,60.0,2.0,64.0
7738,72.0,0.0,60.0,10.0,64.0
7739,72.0,60.0,60.0,10.0,64.0
7740,82.0,0.0,60.0,10.0,64.0
7741,67.0,0.0,60.0,11.0,64.0
7742,65.0,0.0,60.0,12.0,64.0
7743,76.0,0.0,60.0,11.0,64.0
7744,65.0,0.0,60.0,2.0,64.0
7745,82.0,0.0,60.0,10.0,64.0
7746,72.0,0.0,60.0,10.0,64.0
7747,67.0,0.0,60.0,2.0,64.0
7748,67.0,60.0,60.0,11.0,64.0
7749,67.0,0.0,60.0,12.0,64.0
7750,76.0,0.0,60.0,11.0,64.0
7751,67.0,0.0,60.0,11.0,64.0
7752,76.0,0.0,60.0,11.0,64.0
7753,69.0,60.0,60.0,2.0,64.0
7754,72.0,0.0,60.0,10.0,64.0
7755,69.0,0.0,60.0,12.0,64.0
7756,82.0,0.0,60.0,10.0,64.0
7757,82.0,0.0,60.0,10.0,64.0
7758,72.0,0.0,60.0,10.0,64.0
7759,76.0,0.0,60.0,11.0,64.0
7760,71.0,0.0,60.0,12.0,64.0
7761,71.0,60.0,60.0,2.0,64.0
7762,67.0,0.0,60.0,11.0,64.0
7763,76.0,44.0,60.0,11.0,64.0
7764,82.0,16.0,60.0,10.0,64.0
7765,72.0,0.0,180.0,2.0,64.0
7766,36.0,0.0,390.0,14.0,64.0
7767,72.0,0.0,60.0,10.0,64.0
7768,72.0,0.0,180.0,12.0,64.0
7769,48.0,0.0,390.0,3.0,64.0
7770,48.0,0.0,390.0,13.0,64.0
7771,82.0,0.0,60.0,10.0,64.0
7772,72.0,36.0,60.0,10.0,64.0
7773,76.0,24.0,60.0,11.0,64.0
7774,72.0,0.0,60.0,10.0,64.0
7775,82.0,24.0,60.0,10.0,64.0
7776,76.0,4.0,60.0,11.0,64.0
7777,72.0,60.0,60.0,10.0,64.0
7778,82.0,0.0,60.0,10.0,64.0
7779,82.0,16.0,60.0,10.0,64.0
7780,67.0,0.0,240.0,1.0,64.0
7781,79.0,44.0,60.0,11.0,64.0
7782,79.0,48.0,240.0,0.0,64.0
7783,72.0,0.0,60.0,10.0,64.0
7784,82.0,36.0,60.0,10.0,64.0
7785,72.0,0.0,60.0,10.0,64.0
7786,79.0,24.0,60.0,11.0,64.0
7787,82.0,56.0,60.0,10.0,64.0
7788,72.0,0.0,60.0,10.0,64.0
7789,79.0,4.0,60.0,11.0,64.0
7790,72.0,12.0,60.0,10.0,64.0
7791,82.0,0.0,60.0,10.0,64.0
7792,48.0,0.0,390.0,3.0,64.0
7793,60.0,44.0,180.0,4.0,64.0
7794,65.0,48.0,240.0,1.0,64.0
7795,48.0,0.0,390.0,13.0,64.0
7796,77.0,44.0,60.0,11.0,64.0
7797,77.0,0.0,240.0,0.0,64.0
7798,82.0,16.0,60.0,10.0,64.0
7799,72.0,0.0,60.0,10.0,64.0
7800,36.0,24.0,390.0,14.0,64.0
7801,82.0,0.0,60.0,10.0,64.0
7802,72.0,36.0,60.0,10.0,64.0
7803,77.0,24.0,60.0,11.0,64.0
7804,72.0,12.0,60.0,10.0,64.0
7805,82.0,0.0,60.0,10.0,64.0
7806,77.0,4.0,60.0,11.0,64.0
7807,82.0,12.0,60.0,10.0,64.0
7808,72.0,0.0,60.0,10.0,64.0
7809,76.0,0.0,180.0,0.0,64.0
7810,72.0,16.0,60.0,10.0,64.0
7811,60.0,12.0,180.0,4.0,64.0
7812,82.0,0.0,60.0,10.0,64.0
7813,64.0,0.0,180.0,1.0,64.0
7814,76.0,44.0,60.0,11.0,64.0
7815,82.0,36.0,60.0,10.0,64.0
7816,72.0,0.0,60.0,10.0,64.0
7817,76.0,0.0,60.0,11.0,64.0
7818,82.0,12.0,60.0,10.0,64.0
7819,72.0,0.0,60.0,10.0,64.0
7820,76.0,4.0,60.0,11.0,64.0
7821,72.0,60.0,60.0,10.0,64.0
7822,82.0,0.0,60.0,10.0,64.0
7823,41.0,12.0,570.0,13.0,64.0
7824,72.0,0.0,60.0,10.0,64.0
7825,81.0,60.0,60.0,10.0,64.0
7826,53.0,0.0,780.0,12.0,64.0
7827,41.0,0.0,570.0,3.0,64.0
7828,69.0,0.0,1860.0,1.0,64.0
7829,63.0,0.0,1140.0,1.0,64.0
7830,53.0,0.0,1380.0,4.0,64.0
7831,53.0,60.0,780.0,2.0,64.0
7832,29.0,0.0,570.0,14.0,64.0
7833,75.0,0.0,60.0,11.0,64.0
7834,75.0,0.0,1140.0,0.0,64.0
7835,60.0,12.0,1140.0,4.0,64.0
7836,72.0,0.0,1140.0,0.0,64.0
7837,72.0,60.0,60.0,10.0,64.0
7838,75.0,0.0,60.0,11.0,64.0
7839,81.0,0.0,60.0,10.0,64.0
7840,75.0,0.0,60.0,11.0,64.0
7841,72.0,60.0,60.0,10.0,64.0
7842,81.0,0.0,60.0,10.0,64.0
7843,72.0,60.0,60.0,10.0,64.0
7844,75.0,0.0,60.0,11.0,64.0
7845,81.0,0.0,60.0,10.0,64.0
7846,72.0,60.0,60.0,10.0,64.0
7847,75.0,0.0,60.0,11.0,64.0
7848,81.0,0.0,60.0,10.0,64.0
7849,72.0,0.0,60.0,10.0,64.0
7850,75.0,60.0,60.0,11.0,64.0
7851,81.0,0.0,60.0,10.0,64.0
7852,81.0,60.0,60.0,10.0,64.0
7853,72.0,0.0,60.0,10.0,64.0
7854,75.0,0.0,60.0,11.0,64.0
7855,81.0,0.0,60.0,10.0,64.0
7856,72.0,0.0,60.0,10.0,64.0
7857,75.0,60.0,60.0,11.0,64.0
7858,75.0,0.0,60.0,11.0,64.0
7859,72.0,48.0,60.0,10.0,64.0
7860,81.0,0.0,60.0,10.0,64.0
7861,75.0,60.0,60.0,11.0,64.0
7862,72.0,0.0,60.0,10.0,64.0
7863,81.0,0.0,60.0,10.0,64.0
7864,43.0,0.0,60.0,3.0,64.0
7865,31.0,0.0,60.0,14.0,64.0
7866,43.0,60.0,60.0,13.0,64.0
7867,81.0,0.0,60.0,10.0,64.0
7868,72.0,0.0,60.0,10.0,64.0
7869,75.0,0.0,60.0,11.0,64.0
7870,72.0,0.0,60.0,10.0,64.0
7871,81.0,0.0,60.0,10.0,64.0
7872,45.0,0.0,60.0,13.0,64.0
7873,45.0,60.0,60.0,3.0,64.0
7874,33.0,0.0,60.0,14.0,64.0
7875,75.0,0.0,60.0,11.0,64.0
7876,34.0,0.0,60.0,14.0,64.0
7877,46.0,0.0,60.0,3.0,64.0
7878,72.0,0.0,60.0,10.0,64.0
7879,46.0,0.0,60.0,13.0,64.0
7880,81.0,0.0,60.0,10.0,64.0
7881,75.0,0.0,60.0,11.0,64.0
7882,48.0,0.0,60.0,13.0,64.0
7883,81.0,0.0,60.0,10.0,64.0
7884,72.0,0.0,60.0,10.0,64.0
7885,36.0,0.0,60.0,14.0,64.0
7886,75.0,0.0,60.0,11.0,64.0
7887,48.0,60.0,60.0,3.0,64.0
7888,38.0,0.0,60.0,14.0,64.0
7889,75.0,0.0,60.0,11.0,64.0
7890,81.0,0.0,60.0,10.0,64.0
7891,50.0,60.0,60.0,3.0,64.0
7892,72.0,0.0,60.0,10.0,64.0
7893,50.0,0.0,60.0,13.0,64.0
7894,72.0,0.0,60.0,10.0,64.0
7895,51.0,60.0,60.0,13.0,64.0
7896,75.0,0.0,60.0,11.0,64.0
7897,39.0,0.0,60.0,14.0,64.0
7898,51.0,0.0,60.0,3.0,64.0
7899,81.0,0.0,60.0,10.0,64.0
7900,53.0,0.0,390.0,2.0,64.0
7901,53.0,0.0,180.0,13.0,64.0
7902,75.0,44.0,60.0,11.0,64.0
7903,41.0,0.0,180.0,14.0,64.0
7904,53.0,0.0,390.0,12.0,64.0
7905,53.0,32.0,180.0,3.0,64.0
7906,72.0,0.0,60.0,10.0,64.0
7907,81.0,16.0,60.0,10.0,64.0
7908,81.0,0.0,60.0,10.0,64.0
7909,72.0,36.0,60.0,10.0,64.0
7910,75.0,24.0,60.0,11.0,64.0
7911,81.0,12.0,60.0,10.0,64.0
7912,72.0,0.0,60.0,10.0,64.0
7913,75.0,4.0,60.0,11.0,64.0
7914,72.0,60.0,60.0,10.0,64.0
7915,81.0,0.0,60.0,10.0,64.0
7916,63.0,44.0,180.0,4.0,64.0
7917,67.0,48.0,240.0,1.0,64.0
7918,79.0,44.0,60.0,11.0,64.0
7919,72.0,16.0,60.0,10.0,64.0
7920,75.0,0.0,240.0,0.0,64.0
7921,81.0,0.0,60.0,10.0,64.0
7922,79.0,0.0,240.0,0.0,64.0
7923,72.0,0.0,60.0,10.0,64.0
7924,81.0,36.0,60.0,10.0,64.0
7925,79.0,24.0,60.0,11.0,64.0
7926,81.0,12.0,60.0,10.0,64.0
7927,72.0,0.0,60.0,10.0,64.0
7928,79.0,4.0,60.0,11.0,64.0
7929,81.0,0.0,60.0,10.0,64.0
7930,72.0,12.0,60.0,10.0,64.0
7931,77.0,44.0,60.0,11.0,64.0
7932,62.0,44.0,180.0,4.0,64.0
7933,65.0,48.0,240.0,1.0,64.0
7934,77.0,0.0,240.0,0.0,64.0
7935,74.0,0.0,240.0,0.0,64.0
7936,53.0,0.0,180.0,4.0,64.0
7937,81.0,16.0,60.0,10.0,64.0
7938,72.0,0.0,60.0,10.0,64.0
7939,53.0,24.0,390.0,2.0,64.0
7940,53.0,0.0,390.0,12.0,64.0
7941,72.0,36.0,60.0,10.0,64.0
7942,81.0,0.0,60.0,10.0,64.0
7943,77.0,24.0,60.0,11.0,64.0
7944,72.0,0.0,60.0,10.0,64.0
7945,81.0,12.0,60.0,10.0,64.0
7946,77.0,4.0,60.0,11.0,64.0
7947,81.0,0.0,60.0,10.0,64.0
7948,72.0,12.0,60.0,10.0,64.0
7949,81.0,0.0,60.0,10.0,64.0
7950,72.0,16.0,60.0,10.0,64.0
7951,72.0,0.0,180.0,0.0,64.0
7952,75.0,44.0,60.0,11.0,64.0
7953,75.0,0.0,180.0,0.0,64.0
7954,63.0,32.0,180.0,1.0,64.0
7955,60.0,0.0,180.0,4.0,64.0
7956,53.0,12.0,180.0,4.0,64.0
7957,72.0,0.0,60.0,10.0,64.0
7958,81.0,36.0,60.0,10.0,64.0
7959,75.0,0.0,60.0,11.0,64.0
7960,81.0,12.0,60.0,10.0,64.0
7961,72.0,0.0,60.0,10.0,64.0
7962,75.0,4.0,60.0,11.0,64.0
7963,81.0,60.0,60.0,10.0,64.0
7964,72.0,0.0,60.0,10.0,64.0
7965,58.0,0.0,780.0,5.0,64.0
7966,70.0,0.0,780.0,5.0,64.0
7967,46.0,0.0,780.0,13.0,64.0
7968,65.0,0.0,1860.0,0.0,64.0
7969,74.0,0.0,60.0,11.0,64.0
7970,65.0,0.0,60.0,11.0,64.0
7971,58.0,12.0,570.0,2.0,64.0
7972,58.0,0.0,570.0,12.0,64.0
7973,74.0,32.0,1140.0,0.0,64.0
7974,68.0,0.0,1860.0,1.0,64.0
7975,34.0,0.0,780.0,14.0,64.0
7976,80.0,0.0,60.0,10.0,64.0
7977,70.0,60.0,60.0,10.0,64.0
7978,53.0,44.0,1380.0,4.0,64.0
7979,58.0,12.0,1140.0,4.0,64.0
7980,46.0,0.0,780.0,6.0,64.0
7981,62.0,0.0,1140.0,1.0,64.0
7982,46.0,0.0,780.0,3.0,64.0
7983,70.0,60.0,60.0,10.0,64.0
7984,80.0,0.0,60.0,10.0,64.0
7985,65.0,0.0,60.0,11.0,64.0
7986,74.0,0.0,60.0,11.0,64.0
7987,74.0,60.0,60.0,11.0,64.0
7988,65.0,0.0,60.0,11.0,64.0
7989,80.0,0.0,60.0,10.0,64.0
7990,70.0,0.0,60.0,10.0,64.0
7991,70.0,0.0,60.0,10.0,64.0
7992,80.0,0.0,60.0,10.0,64.0
7993,74.0,60.0,60.0,11.0,64.0
7994,65.0,0.0,60.0,11.0,64.0
7995,65.0,0.0,60.0,11.0,64.0
7996,80.0,0.0,60.0,10.0,64.0
7997,74.0,0.0,60.0,11.0,64.0
7998,70.0,60.0,60.0,10.0,64.0
7999,80.0,0.0,60.0,10.0,64.0
8000,65.0,0.0,60.0,11.0,64.0
8001,70.0,0.0,60.0,10.0,64.0
8002,74.0,60.0,60.0,11.0,64.0
8003,65.0,0.0,60.0,11.0,64.0
8004,80.0,60.0,60.0,10.0,64.0
8005,70.0,0.0,60.0,10.0,64.0
8006,74.0,0.0,60.0,11.0,64.0
8007,80.0,0.0,60.0,10.0,64.0
8008,74.0,0.0,60.0,11.0,64.0
8009,65.0,60.0,60.0,11.0,64.0
8010,70.0,0.0,60.0,10.0,64.0
8011,80.0,0.0,60.0,10.0,64.0
8012,70.0,48.0,60.0,10.0,64.0
8013,74.0,0.0,60.0,11.0,64.0
8014,65.0,0.0,60.0,11.0,64.0
8015,80.0,0.0,60.0,10.0,64.0
8016,70.0,60.0,60.0,10.0,64.0
8017,65.0,0.0,60.0,11.0,64.0
8018,74.0,0.0,60.0,11.0,64.0
8019,60.0,0.0,60.0,12.0,64.0
8020,60.0,60.0,60.0,2.0,64.0
8021,80.0,0.0,60.0,10.0,64.0
8022,70.0,0.0,60.0,10.0,64.0
8023,74.0,0.0,60.0,11.0,64.0
8024,65.0,0.0,60.0,11.0,64.0
8025,80.0,0.0,60.0,10.0,64.0
8026,74.0,0.0,60.0,11.0,64.0
8027,65.0,0.0,60.0,11.0,64.0
8028,70.0,60.0,60.0,10.0,64.0
8029,62.0,0.0,60.0,12.0,64.0
8030,62.0,0.0,60.0,2.0,64.0
8031,63.0,0.0,60.0,12.0,64.0
8032,80.0,0.0,60.0,10.0,64.0
8033,65.0,0.0,60.0,11.0,64.0
8034,63.0,60.0,60.0,2.0,64.0
8035,74.0,0.0,60.0,11.0,64.0
8036,70.0,0.0,60.0,10.0,64.0
8037,65.0,60.0,60.0,12.0,64.0
8038,65.0,0.0,60.0,11.0,64.0
8039,74.0,0.0,60.0,11.0,64.0
8040,65.0,0.0,60.0,2.0,64.0
8041,80.0,0.0,60.0,10.0,64.0
8042,70.0,0.0,60.0,10.0,64.0
8043,80.0,0.0,60.0,10.0,64.0
8044,70.0,0.0,60.0,10.0,64.0
8045,67.0,60.0,60.0,12.0,64.0
8046,74.0,0.0,60.0,11.0,64.0
8047,65.0,0.0,60.0,11.0,64.0
8048,67.0,0.0,60.0,2.0,64.0
8049,80.0,0.0,60.0,10.0,64.0
8050,70.0,0.0,60.0,10.0,64.0
8051,74.0,60.0,60.0,11.0,64.0
8052,69.0,0.0,60.0,12.0,64.0
8053,65.0,0.0,60.0,11.0,64.0
8054,69.0,0.0,60.0,2.0,64.0
8055,46.0,0.0,390.0,13.0,64.0
8056,46.0,0.0,390.0,3.0,64.0
8057,80.0,16.0,60.0,10.0,64.0
8058,46.0,24.0,390.0,6.0,64.0
8059,74.0,44.0,60.0,11.0,64.0
8060,58.0,0.0,390.0,5.0,64.0
8061,70.0,0.0,180.0,12.0,64.0
8062,70.0,0.0,390.0,5.0,64.0
8063,70.0,0.0,180.0,2.0,64.0
8064,34.0,0.0,390.0,14.0,64.0
8065,70.0,0.0,60.0,10.0,64.0
8066,70.0,36.0,60.0,10.0,64.0
8067,80.0,0.0,60.0,10.0,64.0
8068,74.0,24.0,60.0,11.0,64.0
8069,70.0,12.0,60.0,10.0,64.0
8070,80.0,0.0,60.0,10.0,64.0
8071,74.0,4.0,60.0,11.0,64.0
8072,80.0,60.0,60.0,10.0,64.0
8073,70.0,0.0,60.0,10.0,64.0
8074,70.0,16.0,60.0,10.0,64.0
8075,80.0,0.0,60.0,10.0,64.0
8076,65.0,48.0,240.0,1.0,64.0
8077,62.0,0.0,180.0,4.0,64.0
8078,77.0,0.0,240.0,0.0,64.0
8079,77.0,44.0,60.0,11.0,64.0
8080,70.0,0.0,60.0,10.0,64.0
8081,80.0,36.0,60.0,10.0,64.0
8082,77.0,0.0,60.0,11.0,64.0
8083,70.0,12.0,60.0,10.0,64.0
8084,80.0,0.0,60.0,10.0,64.0
8085,77.0,4.0,60.0,11.0,64.0
8086,80.0,0.0,60.0,10.0,64.0
8087,70.0,12.0,60.0,10.0,64.0
8088,75.0,0.0,240.0,0.0,64.0
8089,70.0,0.0,390.0,5.0,64.0
8090,80.0,16.0,60.0,10.0,64.0
8091,46.0,0.0,390.0,13.0,64.0
8092,58.0,0.0,390.0,5.0,64.0
8093,75.0,44.0,60.0,11.0,64.0
8094,60.0,44.0,180.0,4.0,64.0
8095,63.0,48.0,240.0,1.0,64.0
8096,70.0,0.0,60.0,10.0,64.0
8097,46.0,24.0,390.0,3.0,64.0
8098,53.0,0.0,420.0,4.0,64.0
8099,46.0,0.0,390.0,6.0,64.0
8100,34.0,0.0,390.0,14.0,64.0
8101,80.0,0.0,60.0,10.0,64.0
8102,70.0,36.0,60.0,10.0,64.0
8103,75.0,24.0,60.0,11.0,64.0
8104,70.0,0.0,60.0,10.0,64.0
8105,80.0,12.0,60.0,10.0,64.0
8106,75.0,4.0,60.0,11.0,64.0
8107,70.0,12.0,60.0,10.0,64.0
8108,80.0,0.0,60.0,10.0,64.0
8109,74.0,44.0,60.0,11.0,64.0
8110,74.0,0.0,180.0,0.0,64.0
8111,58.0,12.0,180.0,4.0,64.0
8112,70.0,0.0,60.0,10.0,64.0
8113,80.0,16.0,60.0,10.0,64.0
8114,62.0,32.0,180.0,1.0,64.0
8115,80.0,0.0,60.0,10.0,64.0
8116,70.0,36.0,60.0,10.0,64.0
8117,74.0,0.0,60.0,11.0,64.0
8118,80.0,0.0,60.0,10.0,64.0
8119,70.0,12.0,60.0,10.0,64.0
8120,74.0,4.0,60.0,11.0,64.0
8121,80.0,0.0,60.0,10.0,64.0
8122,70.0,90.0,60.0,10.0,64.0
8123,70.0,6.0,180.0,5.0,64.0
8124,75.0,0.0,180.0,11.0,64.0
8125,75.0,0.0,180.0,0.0,64.0
8126,67.0,0.0,180.0,1.0,64.0
8127,63.0,0.0,180.0,1.0,64.0
8128,58.0,0.0,180.0,5.0,64.0
8129,67.0,0.0,180.0,0.0,64.0
8130,58.0,0.0,180.0,4.0,64.0
8131,51.0,0.0,90.0,13.0,64.0
8132,63.0,102.0,90.0,12.0,64.0
8133,46.0,0.0,180.0,4.0,64.0
8134,39.0,0.0,90.0,14.0,64.0
8135,51.0,0.0,90.0,3.0,64.0
8136,70.0,0.0,180.0,10.0,64.0
8137,79.0,12.0,180.0,10.0,64.0
8138,46.0,0.0,180.0,6.0,64.0
8139,65.0,0.0,90.0,12.0,64.0
8140,53.0,120.0,90.0,13.0,64.0
8141,53.0,0.0,90.0,3.0,64.0
8142,41.0,0.0,90.0,14.0,64.0
8143,67.0,0.0,90.0,12.0,64.0
8144,55.0,0.0,90.0,13.0,64.0
8145,55.0,0.0,90.0,3.0,64.0
8146,43.0,120.0,90.0,14.0,64.0
8147,56.0,0.0,90.0,3.0,64.0
8148,44.0,27.0,90.0,14.0,64.0
8149,56.0,0.0,90.0,13.0,64.0
8150,68.0,0.0,90.0,12.0,64.0
8151,82.0,93.0,60.0,11.0,64.0
8152,82.0,0.0,60.0,10.0,64.0
8153,46.0,0.0,180.0,6.0,64.0
8154,46.0,0.0,90.0,14.0,64.0
8155,58.0,0.0,90.0,13.0,64.0
8156,70.0,12.0,180.0,11.0,64.0
8157,58.0,0.0,180.0,5.0,64.0
8158,70.0,6.0,180.0,5.0,64.0
8159,70.0,0.0,90.0,12.0,64.0
8160,70.0,0.0,180.0,10.0,64.0
8161,58.0,102.0,90.0,3.0,64.0
8162,72.0,0.0,90.0,12.0,64.0
8163,60.0,0.0,90.0,13.0,64.0
8164,60.0,120.0,90.0,3.0,64.0
8165,48.0,0.0,90.0,14.0,64.0
8166,58.0,0.0,180.0,11.0,64.0
8167,56.0,0.0,90.0,13.0,64.0
8168,70.0,0.0,180.0,11.0,64.0
8169,70.0,0.0,180.0,10.0,64.0
8170,56.0,0.0,90.0,3.0,64.0
8171,58.0,12.0,180.0,10.0,64.0
8172,44.0,102.0,90.0,14.0,64.0
8173,68.0,0.0,90.0,12.0,64.0
8174,70.0,6.0,180.0,5.0,64.0
8175,58.0,0.0,180.0,5.0,64.0
8176,46.0,0.0,180.0,6.0,64.0
8177,70.0,0.0,90.0,12.0,64.0
8178,58.0,0.0,90.0,13.0,64.0
8179,58.0,0.0,90.0,3.0,64.0
8180,46.0,21.0,90.0,14.0,64.0
8181,70.0,90.0,60.0,0.0,64.0
8182,58.0,0.0,30.0,4.0,64.0
8183,58.0,0.0,60.0,1.0,64.0
8184,46.0,9.0,30.0,4.0,64.0
8185,82.0,0.0,150.0,0.0,64.0
8186,58.0,6.0,180.0,5.0,64.0
8187,70.0,0.0,180.0,5.0,64.0
8188,46.0,0.0,150.0,4.0,64.0
8189,58.0,24.0,150.0,4.0,64.0
8190,55.0,0.0,90.0,3.0,64.0
8191,58.0,0.0,180.0,11.0,64.0
8192,70.0,0.0,180.0,11.0,64.0
8193,46.0,0.0,180.0,6.0,64.0
8194,70.0,0.0,150.0,1.0,64.0
8195,70.0,12.0,180.0,10.0,64.0
8196,58.0,0.0,180.0,10.0,64.0
8197,67.0,78.0,90.0,12.0,64.0
8198,55.0,0.0,90.0,13.0,64.0
8199,43.0,0.0,90.0,14.0,64.0
8200,44.0,0.0,90.0,14.0,64.0
8201,56.0,0.0,90.0,13.0,64.0
8202,56.0,0.0,90.0,3.0,64.0
8203,68.0,120.0,90.0,12.0,64.0
8204,82.0,0.0,390.0,0.0,64.0
8205,58.0,120.0,90.0,13.0,64.0
8206,70.0,12.0,390.0,1.0,64.0
8207,46.0,0.0,390.0,4.0,64.0
8208,58.0,0.0,390.0,4.0,64.0
8209,70.0,0.0,90.0,12.0,64.0
8210,46.0,0.0,90.0,14.0,64.0
8211,58.0,0.0,90.0,3.0,64.0
8212,56.0,21.0,90.0,13.0,64.0
8213,44.0,0.0,90.0,14.0,64.0
8214,56.0,0.0,90.0,3.0,64.0
8215,68.0,0.0,90.0,12.0,64.0
8216,70.0,93.0,60.0,10.0,64.0
8217,70.0,6.0,30.0,2.0,64.0
8218,70.0,0.0,60.0,11.0,64.0
8219,58.0,0.0,30.0,2.0,64.0
8220,70.0,24.0,150.0,2.0,64.0
8221,70.0,0.0,180.0,11.0,64.0
8222,58.0,0.0,150.0,2.0,64.0
8223,55.0,0.0,90.0,13.0,64.0
8224,43.0,0.0,90.0,14.0,64.0
8225,75.0,18.0,180.0,10.0,64.0
8226,55.0,0.0,90.0,3.0,64.0
8227,67.0,66.0,90.0,12.0,64.0
8228,56.0,0.0,90.0,13.0,64.0
8229,68.0,0.0,90.0,12.0,64.0
8230,44.0,102.0,90.0,14.0,64.0
8231,56.0,0.0,90.0,3.0,64.0
8232,80.0,0.0,180.0,0.0,64.0
8233,53.0,0.0,90.0,3.0,64.0
8234,58.0,24.0,150.0,2.0,64.0
8235,46.0,0.0,180.0,4.0,64.0
8236,62.0,6.0,180.0,4.0,64.0
8237,65.0,0.0,90.0,12.0,64.0
8238,70.0,0.0,150.0,2.0,64.0
8239,74.0,0.0,180.0,11.0,64.0
8240,53.0,42.0,90.0,13.0,64.0
8241,41.0,0.0,90.0,14.0,64.0
8242,58.0,0.0,180.0,11.0,64.0
8243,68.0,0.0,180.0,11.0,64.0
8244,68.0,0.0,180.0,1.0,64.0
8245,79.0,18.0,60.0,10.0,64.0
8246,77.0,36.0,60.0,10.0,64.0
8247,43.0,0.0,90.0,14.0,64.0
8248,55.0,0.0,90.0,3.0,64.0
8249,75.0,12.0,60.0,10.0,64.0
8250,55.0,0.0,90.0,13.0,64.0
8251,67.0,30.0,90.0,12.0,64.0
8252,77.0,90.0,60.0,10.0,64.0
8253,79.0,18.0,180.0,10.0,64.0
8254,63.0,0.0,150.0,4.0,64.0
8255,39.0,78.0,90.0,14.0,64.0
8256,75.0,0.0,150.0,1.0,64.0
8257,58.0,0.0,180.0,11.0,64.0
8258,46.0,0.0,150.0,4.0,64.0
8259,63.0,0.0,90.0,12.0,64.0
8260,67.0,0.0,150.0,1.0,64.0
8261,79.0,24.0,150.0,0.0,64.0
8262,75.0,0.0,180.0,11.0,64.0
8263,51.0,0.0,90.0,13.0,64.0
8264,70.0,0.0,150.0,2.0,64.0
8265,58.0,0.0,150.0,2.0,64.0
8266,51.0,0.0,90.0,3.0,64.0
8267,67.0,0.0,180.0,11.0,64.0
8268,50.0,120.0,90.0,3.0,64.0
8269,50.0,0.0,90.0,13.0,64.0
8270,62.0,0.0,90.0,12.0,64.0
8271,38.0,0.0,90.0,14.0,64.0
8272,51.0,0.0,90.0,3.0,64.0
8273,63.0,0.0,90.0,12.0,64.0
8274,51.0,0.0,90.0,13.0,64.0
8275,39.0,120.0,90.0,14.0,64.0
8276,41.0,0.0,90.0,14.0,64.0
8277,53.0,0.0,90.0,3.0,64.0
8278,53.0,0.0,90.0,13.0,64.0
8279,65.0,27.0,90.0,12.0,64.0
8280,79.0,0.0,60.0,11.0,64.0
8281,79.0,93.0,60.0,10.0,64.0
8282,67.0,0.0,180.0,11.0,64.0
8283,67.0,18.0,180.0,10.0,64.0
8284,43.0,102.0,90.0,14.0,64.0
8285,55.0,0.0,90.0,3.0,64.0
8286,55.0,0.0,90.0,13.0,64.0
8287,67.0,0.0,90.0,12.0,64.0
8288,56.0,0.0,90.0,3.0,64.0
8289,56.0,0.0,90.0,13.0,64.0
8290,44.0,0.0,90.0,14.0,64.0
8291,68.0,120.0,90.0,12.0,64.0
8292,41.0,0.0,90.0,14.0,64.0
8293,53.0,0.0,90.0,13.0,64.0
8294,67.0,0.0,180.0,11.0,64.0
8295,67.0,18.0,180.0,10.0,64.0
8296,65.0,0.0,90.0,12.0,64.0
8297,53.0,102.0,90.0,3.0,64.0
8298,55.0,0.0,90.0,13.0,64.0
8299,55.0,21.0,90.0,3.0,64.0
8300,67.0,0.0,90.0,12.0,64.0
8301,43.0,0.0,90.0,14.0,64.0
8302,67.0,0.0,30.0,0.0,64.0
8303,67.0,0.0,30.0,1.0,64.0
8304,63.0,99.0,30.0,4.0,64.0
8305,63.0,78.0,90.0,12.0,64.0
8306,51.0,0.0,90.0,3.0,64.0
8307,67.0,18.0,180.0,10.0,64.0
8308,39.0,0.0,90.0,14.0,64.0
8309,79.0,24.0,150.0,0.0,64.0
8310,67.0,0.0,180.0,11.0,64.0
8311,51.0,0.0,90.0,13.0,64.0
8312,63.0,0.0,150.0,4.0,64.0
8313,67.0,0.0,150.0,1.0,64.0
8314,41.0,0.0,90.0,14.0,64.0
8315,53.0,120.0,90.0,3.0,64.0
8316,53.0,0.0,90.0,13.0,64.0
8317,65.0,0.0,90.0,12.0,64.0
8318,67.0,0.0,90.0,12.0,64.0
8319,79.0,0.0,390.0,0.0,64.0
8320,55.0,0.0,90.0,3.0,64.0
8321,55.0,0.0,90.0,13.0,64.0
8322,67.0,0.0,390.0,1.0,64.0
8323,43.0,120.0,90.0,14.0,64.0
8324,63.0,12.0,390.0,4.0,64.0
8325,41.0,0.0,90.0,14.0,64.0
8326,53.0,0.0,90.0,3.0,64.0
8327,53.0,21.0,90.0,13.0,64.0
8328,65.0,0.0,90.0,12.0,64.0
8329,55.0,6.0,30.0,2.0,64.0
8330,67.0,93.0,60.0,10.0,64.0
8331,67.0,0.0,60.0,11.0,64.0
8332,67.0,0.0,30.0,2.0,64.0
8333,39.0,0.0,90.0,14.0,64.0
8334,51.0,0.0,90.0,13.0,64.0
8335,72.0,18.0,180.0,10.0,64.0
8336,67.0,0.0,180.0,11.0,64.0
8337,55.0,24.0,150.0,2.0,64.0
8338,67.0,0.0,150.0,2.0,64.0
8339,51.0,66.0,90.0,3.0,64.0
8340,63.0,0.0,90.0,12.0,64.0
8341,65.0,0.0,90.0,12.0,64.0
8342,53.0,102.0,90.0,13.0,64.0
8343,41.0,0.0,90.0,14.0,64.0
8344,53.0,0.0,90.0,3.0,64.0
8345,38.0,0.0,90.0,14.0,64.0
8346,77.0,0.0,150.0,0.0,64.0
8347,71.0,6.0,180.0,11.0,64.0
8348,55.0,0.0,150.0,2.0,64.0
8349,71.0,0.0,150.0,1.0,64.0
8350,62.0,0.0,150.0,4.0,64.0
8351,62.0,0.0,90.0,12.0,64.0
8352,67.0,0.0,150.0,2.0,64.0
8353,50.0,42.0,90.0,13.0,64.0
8354,65.0,24.0,150.0,1.0,64.0
8355,50.0,0.0,90.0,3.0,64.0
8356,75.0,18.0,60.0,10.0,64.0
8357,74.0,36.0,60.0,10.0,64.0
8358,72.0,12.0,60.0,10.0,64.0
8359,51.0,30.0,90.0,3.0,64.0
8360,51.0,0.0,90.0,13.0,64.0
8361,39.0,0.0,90.0,14.0,64.0
8362,63.0,0.0,90.0,12.0,64.0
8363,74.0,90.0,60.0,10.0,64.0
8364,48.0,78.0,90.0,13.0,64.0
8365,60.0,0.0,90.0,12.0,64.0
8366,75.0,18.0,180.0,10.0,64.0
8367,48.0,0.0,90.0,3.0,64.0
8368,55.0,0.0,150.0,2.0,64.0
8369,60.0,0.0,150.0,4.0,64.0
8370,36.0,0.0,90.0,14.0,64.0
8371,75.0,24.0,150.0,0.0,64.0
8372,63.0,0.0,150.0,1.0,64.0
8373,72.0,0.0,150.0,1.0,64.0
8374,67.0,0.0,150.0,2.0,64.0
8375,72.0,0.0,180.0,11.0,64.0
8376,50.0,0.0,90.0,3.0,64.0
8377,62.0,120.0,90.0,12.0,64.0
8378,38.0,0.0,90.0,14.0,64.0
8379,50.0,0.0,90.0,13.0,64.0
8380,51.0,0.0,90.0,3.0,64.0
8381,39.0,0.0,90.0,14.0,64.0
8382,63.0,0.0,90.0,12.0,64.0
8383,51.0,120.0,90.0,13.0,64.0
8384,60.0,0.0,90.0,12.0,64.0
8385,48.0,0.0,90.0,3.0,64.0
8386,48.0,27.0,90.0,13.0,64.0
8387,36.0,0.0,90.0,14.0,64.0
8388,75.0,0.0,60.0,10.0,64.0
8389,75.0,93.0,60.0,11.0,64.0
8390,65.0,6.0,180.0,5.0,64.0
8391,65.0,12.0,180.0,11.0,64.0
8392,41.0,0.0,180.0,6.0,64.0
8393,65.0,0.0,90.0,12.0,64.0
8394,53.0,0.0,90.0,3.0,64.0
8395,65.0,0.0,180.0,10.0,64.0
8396,53.0,0.0,90.0,13.0,64.0
8397,41.0,102.0,90.0,14.0,64.0
8398,43.0,120.0,90.0,14.0,64.0
8399,55.0,0.0,90.0,3.0,64.0
8400,67.0,0.0,90.0,12.0,64.0
8401,55.0,0.0,90.0,13.0,64.0
8402,63.0,0.0,90.0,12.0,64.0
8403,65.0,0.0,180.0,5.0,64.0
8404,65.0,0.0,180.0,10.0,64.0
8405,41.0,6.0,180.0,6.0,64.0
8406,51.0,0.0,90.0,13.0,64.0
8407,39.0,0.0,90.0,14.0,64.0
8408,65.0,12.0,180.0,11.0,64.0
8409,51.0,102.0,90.0,3.0,64.0
8410,41.0,21.0,90.0,14.0,64.0
8411,53.0,0.0,90.0,13.0,64.0
8412,65.0,0.0,90.0,12.0,64.0
8413,53.0,0.0,90.0,3.0,64.0
8414,53.0,99.0,30.0,4.0,64.0
8415,65.0,0.0,30.0,0.0,64.0
8416,65.0,0.0,30.0,1.0,64.0
8417,77.0,0.0,150.0,0.0,64.0
8418,65.0,0.0,150.0,1.0,64.0
8419,65.0,0.0,180.0,11.0,64.0
8420,58.0,0.0,150.0,4.0,64.0
8421,50.0,24.0,150.0,4.0,64.0
8422,38.0,0.0,90.0,14.0,64.0
8423,50.0,0.0,90.0,13.0,64.0
8424,65.0,12.0,780.0,5.0,64.0
8425,41.0,6.0,180.0,6.0,64.0
8426,65.0,12.0,180.0,10.0,64.0
8427,62.0,0.0,90.0,12.0,64.0
8428,50.0,78.0,90.0,3.0,64.0
8429,39.0,0.0,90.0,14.0,64.0
8430,51.0,0.0,90.0,13.0,64.0
8431,51.0,0.0,90.0,3.0,64.0
8432,63.0,120.0,90.0,12.0,64.0
8433,50.0,0.0,390.0,4.0,64.0
8434,77.0,0.0,390.0,0.0,64.0
8435,58.0,12.0,390.0,4.0,64.0
8436,41.0,0.0,90.0,14.0,64.0
8437,53.0,120.0,90.0,13.0,64.0
8438,65.0,0.0,390.0,1.0,64.0
8439,65.0,0.0,90.0,12.0,64.0
8440,53.0,0.0,90.0,3.0,64.0
8441,63.0,0.0,90.0,12.0,64.0
8442,51.0,21.0,90.0,3.0,64.0
8443,39.0,0.0,90.0,14.0,64.0
8444,51.0,0.0,90.0,13.0,64.0
8445,65.0,93.0,60.0,11.0,64.0
8446,65.0,0.0,60.0,10.0,64.0
8447,53.0,6.0,30.0,2.0,64.0
8448,65.0,0.0,30.0,2.0,64.0
8449,70.0,0.0,180.0,10.0,64.0
8450,65.0,18.0,180.0,11.0,64.0
8451,50.0,0.0,90.0,13.0,64.0
8452,62.0,0.0,90.0,12.0,64.0
8453,53.0,24.0,150.0,2.0,64.0
8454,38.0,66.0,90.0,14.0,64.0
8455,65.0,0.0,150.0,2.0,64.0
8456,50.0,0.0,90.0,3.0,64.0
8457,39.0,0.0,90.0,14.0,64.0
8458,51.0,90.0,90.0,3.0,64.0
8459,51.0,0.0,90.0,13.0,64.0
8460,63.0,0.0,90.0,12.0,64.0
8461,69.0,0.0,150.0,1.0,64.0
8462,63.0,0.0,150.0,1.0,64.0
8463,74.0,18.0,60.0,10.0,64.0
8464,36.0,42.0,90.0,14.0,64.0
8465,48.0,0.0,90.0,13.0,64.0
8466,69.0,6.0,180.0,11.0,64.0
8467,75.0,0.0,150.0,0.0,64.0
8468,48.0,0.0,90.0,3.0,64.0
8469,65.0,24.0,150.0,2.0,64.0
8470,53.0,0.0,150.0,2.0,64.0
8471,53.0,0.0,150.0,4.0,64.0
8472,60.0,0.0,90.0,12.0,64.0
8473,60.0,0.0,180.0,11.0,64.0
8474,53.0,0.0,180.0,11.0,64.0
8475,60.0,0.0,150.0,4.0,64.0
8476,72.0,36.0,60.0,10.0,64.0
8477,50.0,0.0,90.0,13.0,64.0
8478,62.0,0.0,90.0,12.0,64.0
8479,38.0,0.0,90.0,14.0,64.0
8480,70.0,12.0,60.0,10.0,64.0
8481,50.0,30.0,90.0,3.0,64.0
8482,72.0,90.0,60.0,10.0,64.0
8483,74.0,0.0,180.0,10.0,64.0
8484,62.0,0.0,150.0,1.0,64.0
8485,62.0,0.0,150.0,4.0,64.0
8486,58.0,6.0,180.0,5.0,64.0
8487,34.0,78.0,90.0,14.0,64.0
8488,46.0,0.0,90.0,13.0,64.0
8489,62.0,0.0,180.0,11.0,64.0
8490,53.0,12.0,180.0,11.0,64.0
8491,70.0,0.0,180.0,11.0,64.0
8492,70.0,0.0,180.0,5.0,64.0
8493,70.0,24.0,150.0,1.0,64.0
8494,74.0,0.0,150.0,0.0,64.0
8495,58.0,0.0,150.0,4.0,64.0
8496,46.0,0.0,180.0,6.0,64.0
8497,65.0,0.0,150.0,2.0,64.0
8498,53.0,0.0,150.0,2.0,64.0
8499,58.0,0.0,90.0,12.0,64.0
8500,46.0,0.0,90.0,3.0,64.0
8501,48.0,120.0,90.0,13.0,64.0
8502,36.0,0.0,90.0,14.0,64.0
8503,48.0,0.0,90.0,3.0,64.0
8504,60.0,0.0,90.0,12.0,64.0
8505,50.0,0.0,90.0,3.0,64.0
8506,38.0,0.0,90.0,14.0,64.0
8507,62.0,120.0,90.0,12.0,64.0
8508,50.0,0.0,90.0,13.0,64.0
8509,51.0,0.0,90.0,3.0,64.0
8510,39.0,27.0,90.0,14.0,64.0
8511,51.0,0.0,90.0,13.0,64.0
8512,63.0,0.0,90.0,12.0,64.0
8513,77.0,0.0,60.0,11.0,64.0
8514,77.0,93.0,60.0,10.0,64.0
8515,65.0,0.0,180.0,5.0,64.0
8516,53.0,0.0,90.0,13.0,64.0
8517,41.0,6.0,180.0,6.0,64.0
8518,65.0,0.0,90.0,12.0,64.0
8519,65.0,12.0,180.0,11.0,64.0
8520,41.0,0.0,90.0,14.0,64.0
8521,65.0,0.0,180.0,10.0,64.0
8522,53.0,102.0,90.0,3.0,64.0
8523,67.0,120.0,90.0,12.0,64.0
8524,55.0,0.0,90.0,3.0,64.0
8525,43.0,0.0,90.0,14.0,64.0
8526,55.0,0.0,90.0,13.0,64.0
8527,65.0,6.0,180.0,5.0,64.0
8528,39.0,102.0,90.0,14.0,64.0
8529,41.0,0.0,180.0,6.0,64.0
8530,65.0,12.0,180.0,10.0,64.0
8531,63.0,0.0,90.0,12.0,64.0
8532,65.0,0.0,180.0,11.0,64.0
8533,51.0,0.0,90.0,3.0,64.0
8534,51.0,0.0,90.0,13.0,64.0
8535,65.0,0.0,90.0,12.0,64.0
8536,53.0,0.0,90.0,13.0,64.0
8537,41.0,0.0,90.0,14.0,64.0
8538,53.0,21.0,90.0,3.0,64.0
8539,53.0,0.0,30.0,4.0,64.0
8540,65.0,99.0,30.0,0.0,64.0
8541,65.0,0.0,30.0,1.0,64.0
8542,38.0,0.0,90.0,14.0,64.0
8543,58.0,0.0,150.0,4.0,64.0
8544,50.0,0.0,150.0,4.0,64.0
8545,65.0,12.0,180.0,10.0,64.0
8546,77.0,0.0,150.0,0.0,64.0
8547,65.0,12.0,780.0,5.0,64.0
8548,50.0,0.0,90.0,13.0,64.0
8549,65.0,0.0,150.0,1.0,64.0
8550,77.0,24.0,150.0,1.0,64.0
8551,50.0,0.0,90.0,3.0,64.0
8552,41.0,6.0,180.0,6.0,64.0
8553,65.0,0.0,180.0,11.0,64.0
8554,62.0,78.0,90.0,12.0,64.0
8555,51.0,120.0,90.0,3.0,64.0
8556,51.0,0.0,90.0,13.0,64.0
8557,39.0,0.0,90.0,14.0,64.0
8558,63.0,0.0,90.0,12.0,64.0
8559,65.0,0.0,390.0,1.0,64.0
8560,77.0,0.0,390.0,1.0,64.0
8561,65.0,0.0,90.0,12.0,64.0
8562,53.0,0.0,90.0,13.0,64.0
8563,50.0,81.0,120.0,4.0,64.0
8564,41.0,39.0,90.0,14.0,64.0
8565,53.0,0.0,90.0,3.0,64.0
8566,77.0,12.0,390.0,0.0,64.0
8567,58.0,0.0,120.0,4.0,64.0
8568,51.0,0.0,90.0,3.0,64.0
8569,63.0,21.0,90.0,12.0,64.0
8570,39.0,0.0,90.0,14.0,64.0
8571,51.0,0.0,90.0,13.0,64.0
8572,65.0,93.0,60.0,11.0,64.0
8573,53.0,0.0,30.0,2.0,64.0
8574,50.0,6.0,30.0,4.0,64.0
8575,58.0,0.0,30.0,4.0,64.0
8576,65.0,0.0,60.0,10.0,64.0
8577,65.0,0.0,30.0,2.0,64.0
8578,62.0,0.0,90.0,12.0,64.0
8579,38.0,0.0,90.0,14.0,64.0
8580,58.0,0.0,150.0,4.0,64.0
8581,53.0,0.0,150.0,2.0,64.0
8582,70.0,0.0,180.0,11.0,64.0
8583,77.0,18.0,180.0,10.0,64.0
8584,65.0,24.0,150.0,2.0,64.0
8585,50.0,0.0,90.0,3.0,64.0
8586,50.0,0.0,150.0,4.0,64.0
8587,50.0,66.0,90.0,13.0,64.0
8588,51.0,90.0,90.0,13.0,64.0
8589,51.0,0.0,90.0,3.0,64.0
8590,39.0,0.0,90.0,14.0,64.0
8591,63.0,0.0,90.0,12.0,64.0
8592,75.0,0.0,180.0,11.0,64.0
8593,65.0,0.0,180.0,11.0,64.0
8594,41.0,6.0,180.0,6.0,64.0
8595,69.0,0.0,180.0,1.0,64.0
8596,63.0,0.0,150.0,2.0,64.0
8597,65.0,0.0,150.0,2.0,64.0
8598,75.0,0.0,180.0,1.0,64.0
8599,60.0,0.0,90.0,12.0,64.0
8600,60.0,0.0,150.0,4.0,64.0
8601,48.0,0.0,90.0,3.0,64.0
8602,82.0,0.0,60.0,0.0,64.0
8603,36.0,0.0,90.0,14.0,64.0
8604,48.0,42.0,90.0,13.0,64.0
8605,53.0,24.0,150.0,4.0,64.0
8606,82.0,18.0,60.0,10.0,64.0
8607,81.0,36.0,60.0,10.0,64.0
8608,81.0,0.0,60.0,0.0,64.0
8609,38.0,0.0,90.0,14.0,64.0
8610,79.0,0.0,60.0,0.0,64.0
8611,50.0,0.0,90.0,3.0,64.0
8612,79.0,12.0,60.0,10.0,64.0
8613,62.0,30.0,90.0,12.0,64.0
8614,50.0,0.0,90.0,13.0,64.0
8615,81.0,0.0,60.0,0.0,64.0
8616,81.0,168.0,60.0,10.0,64.0
8617,74.0,0.0,180.0,1.0,64.0
8618,58.0,0.0,150.0,12.0,64.0
8619,46.0,36.0,150.0,13.0,64.0
8620,74.0,0.0,150.0,11.0,64.0
8621,82.0,126.0,180.0,0.0,64.0
8622,70.0,0.0,180.0,5.0,64.0
8623,58.0,0.0,180.0,5.0,64.0
8624,70.0,0.0,180.0,1.0,64.0
8625,34.0,0.0,150.0,14.0,64.0
8626,65.0,0.0,150.0,2.0,64.0
8627,62.0,0.0,150.0,2.0,64.0
8628,70.0,0.0,150.0,10.0,64.0
8629,82.0,0.0,150.0,10.0,64.0
8630,65.0,0.0,150.0,11.0,64.0
8631,46.0,30.0,780.0,4.0,64.0
8632,46.0,0.0,150.0,3.0,64.0
8633,46.0,0.0,180.0,6.0,64.0
8634,58.0,0.0,150.0,11.0,64.0
8635,58.0,0.0,780.0,4.0,64.0
8636,46.0,0.0,90.0,3.0,64.0
8637,58.0,0.0,90.0,10.0,64.0
8638,46.0,0.0,90.0,13.0,64.0
8639,34.0,0.0,90.0,14.0,64.0
8640,58.0,120.0,90.0,12.0,64.0
8641,58.0,0.0,90.0,11.0,64.0
8642,34.0,0.0,90.0,14.0,64.0
8643,58.0,0.0,90.0,10.0,64.0
8644,46.0,0.0,90.0,3.0,64.0
8645,46.0,0.0,90.0,13.0,64.0
8646,58.0,0.0,90.0,12.0,64.0
8647,58.0,120.0,90.0,11.0,64.0
8648,58.0,0.0,90.0,11.0,64.0
8649,58.0,0.0,90.0,10.0,64.0
8650,58.0,0.0,90.0,12.0,64.0
8651,46.0,120.0,90.0,13.0,64.0
8652,46.0,0.0,90.0,3.0,64.0
8653,34.0,0.0,90.0,14.0,64.0
8654,58.0,0.0,90.0,12.0,64.0
8655,58.0,90.0,90.0,10.0,64.0
8656,46.0,0.0,90.0,13.0,64.0
8657,58.0,0.0,90.0,11.0,64.0
8658,34.0,0.0,90.0,14.0,64.0
8659,46.0,0.0,90.0,3.0,64.0
8660,58.0,0.0,90.0,12.0,64.0
8661,58.0,0.0,90.0,10.0,64.0
8662,46.0,0.0,90.0,3.0,64.0
8663,58.0,120.0,90.0,11.0,64.0
8664,46.0,0.0,90.0,13.0,64.0
8665,34.0,0.0,90.0,14.0,64.0
8666,46.0,0.0,90.0,3.0,64.0
8667,58.0,72.0,90.0,11.0,64.0
8668,34.0,0.0,90.0,14.0,64.0
8669,58.0,0.0,90.0,12.0,64.0
8670,58.0,0.0,90.0,10.0,64.0
8671,46.0,0.0,90.0,13.0,64.0
8672,45.0,0.0,30.0,3.0,64.0
8673,45.0,0.0,30.0,13.0,64.0
8674,57.0,0.0,30.0,11.0,64.0
8675,41.0,24.0,780.0,4.0,64.0
8676,53.0,0.0,780.0,4.0,64.0
8677,57.0,0.0,30.0,12.0,64.0
8678,33.0,0.0,30.0,14.0,64.0
8679,57.0,30.0,30.0,10.0,64.0
8680,55.0,0.0,30.0,11.0,64.0
8681,43.0,144.0,30.0,13.0,64.0
8682,43.0,0.0,30.0,3.0,64.0
8683,31.0,0.0,30.0,14.0,64.0
8684,55.0,0.0,30.0,12.0,64.0
8685,55.0,0.0,30.0,10.0,64.0
8686,53.0,0.0,150.0,12.0,64.0
8687,53.0,0.0,150.0,11.0,64.0
8688,29.0,0.0,150.0,14.0,64.0
8689,41.0,0.0,150.0,13.0,64.0
8690,53.0,108.0,150.0,10.0,64.0
8691,41.0,0.0,150.0,3.0,64.0
8692,51.0,0.0,60.0,13.0,64.0
8693,63.0,0.0,60.0,12.0,64.0
8694,39.0,0.0,60.0,14.0,64.0
8695,63.0,0.0,60.0,10.0,64.0
8696,63.0,0.0,60.0,11.0,64.0
8697,51.0,120.0,60.0,3.0,64.0
8698,63.0,0.0,60.0,12.0,64.0
8699,39.0,120.0,60.0,14.0,64.0
8700,51.0,0.0,60.0,3.0,64.0
8701,51.0,0.0,60.0,13.0,64.0
8702,63.0,0.0,60.0,11.0,64.0
8703,63.0,0.0,60.0,10.0,64.0
8704,63.0,0.0,60.0,10.0,64.0
8705,63.0,0.0,60.0,12.0,64.0
8706,51.0,0.0,60.0,13.0,64.0
8707,39.0,0.0,60.0,14.0,64.0
8708,51.0,120.0,60.0,3.0,64.0
8709,63.0,0.0,60.0,11.0,64.0
8710,39.0,0.0,60.0,14.0,64.0
8711,63.0,0.0,60.0,10.0,64.0
8712,63.0,96.0,60.0,11.0,64.0
8713,51.0,0.0,60.0,13.0,64.0
8714,51.0,0.0,60.0,3.0,64.0
8715,63.0,0.0,60.0,12.0,64.0
8716,63.0,0.0,60.0,12.0,64.0
8717,63.0,0.0,60.0,10.0,64.0
8718,39.0,0.0,60.0,14.0,64.0
8719,63.0,0.0,60.0,11.0,64.0
8720,51.0,0.0,60.0,3.0,64.0
8721,51.0,120.0,60.0,13.0,64.0
8722,63.0,0.0,60.0,10.0,64.0
8723,51.0,0.0,60.0,13.0,64.0
8724,63.0,0.0,60.0,12.0,64.0
8725,63.0,78.0,60.0,11.0,64.0
8726,39.0,0.0,60.0,14.0,64.0
8727,51.0,0.0,60.0,3.0,64.0
8728,62.0,30.0,30.0,12.0,64.0
8729,50.0,0.0,150.0,4.0,64.0
8730,70.0,36.0,150.0,0.0,64.0
8731,46.0,12.0,180.0,6.0,64.0
8732,70.0,0.0,780.0,2.0,64.0
8733,58.0,0.0,780.0,2.0,64.0
8734,38.0,0.0,30.0,14.0,64.0
8735,70.0,0.0,150.0,1.0,64.0
8736,50.0,0.0,30.0,13.0,64.0
8737,70.0,24.0,780.0,5.0,64.0
8738,58.0,0.0,780.0,5.0,64.0
8739,62.0,0.0,30.0,10.0,64.0
8740,50.0,0.0,30.0,3.0,64.0
8741,62.0,0.0,30.0,11.0,64.0
8742,48.0,0.0,30.0,13.0,64.0
8743,60.0,0.0,30.0,11.0,64.0
8744,60.0,0.0,30.0,10.0,64.0
8745,36.0,0.0,30.0,14.0,64.0
8746,60.0,96.0,30.0,12.0,64.0
8747,48.0,0.0,30.0,3.0,64.0
8748,46.0,0.0,150.0,13.0,64.0
8749,58.0,0.0,150.0,10.0,64.0
8750,58.0,0.0,150.0,11.0,64.0
8751,34.0,0.0,150.0,14.0,64.0
8752,46.0,108.0,150.0,3.0,64.0
8753,58.0,0.0,150.0,12.0,64.0
8754,70.0,0.0,60.0,11.0,64.0
8755,34.0,0.0,90.0,14.0,64.0
8756,70.0,0.0,90.0,0.0,64.0
8757,58.0,0.0,90.0,12.0,64.0
8758,46.0,114.0,90.0,3.0,64.0
8759,70.0,0.0,90.0,1.0,64.0
8760,70.0,6.0,60.0,10.0,64.0
8761,46.0,0.0,90.0,13.0,64.0
8762,46.0,0.0,90.0,4.0,64.0
8763,70.0,6.0,60.0,11.0,64.0
8764,36.0,0.0,90.0,14.0,64.0
8765,70.0,0.0,90.0,0.0,64.0
8766,46.0,0.0,90.0,4.0,64.0
8767,70.0,0.0,60.0,10.0,64.0
8768,48.0,0.0,90.0,3.0,64.0
8769,70.0,114.0,90.0,1.0,64.0
8770,60.0,0.0,90.0,12.0,64.0
8771,48.0,0.0,90.0,13.0,64.0
8772,46.0,36.0,150.0,4.0,64.0
8773,50.0,0.0,90.0,3.0,64.0
8774,62.0,0.0,90.0,12.0,64.0
8775,38.0,0.0,90.0,14.0,64.0
8776,70.0,0.0,60.0,10.0,64.0
8777,70.0,6.0,60.0,11.0,64.0
8778,70.0,78.0,90.0,0.0,64.0
8779,50.0,0.0,90.0,13.0,64.0
8780,70.0,0.0,90.0,1.0,64.0
8781,70.0,0.0,90.0,1.0,64.0
8782,48.0,0.0,90.0,3.0,64.0
8783,70.0,6.0,60.0,11.0,64.0
8784,70.0,0.0,60.0,10.0,64.0
8785,36.0,0.0,90.0,14.0,64.0
8786,70.0,0.0,90.0,0.0,64.0
8787,48.0,90.0,90.0,13.0,64.0
8788,60.0,0.0,90.0,12.0,64.0
8789,38.0,0.0,90.0,14.0,64.0
8790,70.0,0.0,90.0,1.0,64.0
8791,70.0,0.0,90.0,0.0,64.0
8792,62.0,0.0,90.0,12.0,64.0
8793,50.0,114.0,90.0,13.0,64.0
8794,70.0,6.0,60.0,11.0,64.0
8795,70.0,0.0,60.0,10.0,64.0
8796,50.0,0.0,90.0,3.0,64.0
8797,52.0,0.0,90.0,3.0,64.0
8798,70.0,0.0,60.0,11.0,64.0
8799,70.0,0.0,90.0,1.0,64.0
8800,70.0,0.0,90.0,0.0,64.0
8801,64.0,0.0,90.0,12.0,64.0
8802,52.0,0.0,90.0,13.0,64.0
8803,70.0,6.0,60.0,10.0,64.0
8804,40.0,72.0,90.0,14.0,64.0
8805,41.0,0.0,90.0,14.0,64.0
8806,69.0,0.0,30.0,11.0,64.0
8807,41.0,6.0,180.0,6.0,64.0
8808,41.0,0.0,150.0,4.0,64.0
8809,53.0,0.0,780.0,2.0,64.0
8810,69.0,0.0,30.0,0.0,64.0
8811,53.0,78.0,90.0,3.0,64.0
8812,53.0,36.0,150.0,4.0,64.0
8813,53.0,0.0,90.0,13.0,64.0
8814,65.0,24.0,780.0,2.0,64.0
8815,65.0,0.0,780.0,5.0,64.0
8816,65.0,0.0,90.0,12.0,64.0
8817,53.0,0.0,780.0,5.0,64.0
8818,69.0,30.0,30.0,1.0,64.0
8819,69.0,0.0,30.0,10.0,64.0
8820,67.0,18.0,30.0,11.0,64.0
8821,67.0,0.0,30.0,0.0,64.0
8822,67.0,0.0,30.0,10.0,64.0
8823,67.0,0.0,30.0,1.0,64.0
8824,65.0,0.0,150.0,1.0,64.0
8825,65.0,108.0,150.0,0.0,64.0
8826,65.0,0.0,150.0,11.0,64.0
8827,65.0,0.0,150.0,10.0,64.0
8828,55.0,0.0,90.0,13.0,64.0
8829,67.0,0.0,90.0,12.0,64.0
8830,55.0,6.0,90.0,3.0,64.0
8831,43.0,0.0,90.0,14.0,64.0
8832,75.0,0.0,60.0,10.0,64.0
8833,53.0,0.0,90.0,4.0,64.0
8834,75.0,0.0,60.0,0.0,64.0
8835,57.0,0.0,90.0,3.0,64.0
8836,45.0,0.0,90.0,14.0,64.0
8837,75.0,0.0,60.0,11.0,64.0
8838,57.0,0.0,90.0,13.0,64.0
8839,75.0,6.0,60.0,1.0,64.0
8840,69.0,114.0,90.0,12.0,64.0
8841,41.0,0.0,90.0,4.0,64.0
8842,46.0,0.0,90.0,14.0,64.0
8843,75.0,6.0,60.0,1.0,64.0
8844,41.0,0.0,90.0,4.0,64.0
8845,70.0,0.0,90.0,12.0,64.0
8846,58.0,0.0,90.0,3.0,64.0
8847,53.0,114.0,90.0,4.0,64.0
8848,75.0,0.0,60.0,10.0,64.0
8849,75.0,0.0,60.0,0.0,64.0
8850,58.0,0.0,90.0,13.0,64.0
8851,75.0,0.0,60.0,11.0,64.0
8852,75.0,0.0,60.0,1.0,64.0
8853,75.0,6.0,60.0,10.0,64.0
8854,48.0,0.0,90.0,14.0,64.0
8855,53.0,36.0,150.0,4.0,64.0
8856,75.0,0.0,60.0,11.0,64.0
8857,41.0,0.0,150.0,4.0,64.0
8858,60.0,78.0,90.0,3.0,64.0
8859,75.0,0.0,60.0,0.0,64.0
8860,60.0,0.0,90.0,13.0,64.0
8861,72.0,0.0,90.0,12.0,64.0
8862,75.0,6.0,60.0,11.0,64.0
8863,75.0,0.0,60.0,10.0,64.0
8864,75.0,0.0,60.0,1.0,64.0
8865,46.0,0.0,90.0,14.0,64.0
8866,58.0,0.0,90.0,3.0,64.0
8867,70.0,90.0,90.0,12.0,64.0
8868,58.0,0.0,90.0,13.0,64.0
8869,75.0,0.0,60.0,0.0,64.0
8870,69.0,114.0,90.0,12.0,64.0
8871,57.0,0.0,90.0,3.0,64.0
8872,75.0,6.0,60.0,1.0,64.0
8873,45.0,0.0,90.0,14.0,64.0
8874,75.0,0.0,60.0,10.0,64.0
8875,75.0,0.0,60.0,0.0,64.0
8876,75.0,0.0,60.0,11.0,64.0
8877,57.0,0.0,90.0,13.0,64.0
8878,75.0,0.0,60.0,1.0,64.0
8879,55.0,0.0,90.0,13.0,64.0
8880,75.0,6.0,60.0,10.0,64.0
8881,43.0,0.0,90.0,14.0,64.0
8882,75.0,0.0,60.0,0.0,64.0
8883,55.0,72.0,90.0,3.0,64.0
8884,67.0,0.0,90.0,12.0,64.0
8885,75.0,0.0,60.0,11.0,64.0
8886,58.0,0.0,150.0,4.0,64.0
8887,62.0,12.0,180.0,2.0,64.0
8888,74.0,30.0,30.0,0.0,64.0
8889,70.0,0.0,150.0,12.0,64.0
8890,58.0,0.0,150.0,3.0,64.0
8891,74.0,0.0,30.0,10.0,64.0
8892,74.0,0.0,30.0,1.0,64.0
8893,46.0,0.0,150.0,14.0,64.0
8894,58.0,36.0,150.0,5.0,64.0
8895,70.0,0.0,150.0,5.0,64.0
8896,46.0,0.0,150.0,6.0,64.0
8897,74.0,0.0,30.0,11.0,64.0
8898,58.0,0.0,150.0,13.0,64.0
8899,46.0,0.0,150.0,4.0,64.0
8900,72.0,96.0,30.0,1.0,64.0
8901,72.0,0.0,30.0,10.0,64.0
8902,72.0,0.0,30.0,0.0,64.0
8903,72.0,0.0,30.0,11.0,64.0
8904,70.0,108.0,150.0,11.0,64.0
8905,70.0,0.0,150.0,0.0,64.0
8906,70.0,0.0,150.0,10.0,64.0
8907,70.0,0.0,150.0,1.0,64.0
8908,46.0,0.0,90.0,6.0,64.0
8909,70.0,0.0,60.0,1.0,64.0
8910,58.0,96.0,90.0,2.0,64.0
8911,46.0,0.0,90.0,4.0,64.0
8912,70.0,18.0,90.0,5.0,64.0
8913,82.0,6.0,60.0,10.0,64.0
8914,58.0,0.0,90.0,3.0,64.0
8915,58.0,0.0,90.0,13.0,64.0
8916,58.0,0.0,90.0,4.0,64.0
8917,82.0,0.0,60.0,11.0,64.0
8918,46.0,0.0,90.0,14.0,64.0
8919,82.0,0.0,60.0,0.0,64.0
8920,58.0,0.0,90.0,5.0,64.0
8921,70.0,0.0,90.0,12.0,64.0
8922,58.0,96.0,90.0,2.0,64.0
8923,70.0,0.0,60.0,1.0,64.0
8924,46.0,18.0,90.0,4.0,64.0
8925,58.0,0.0,90.0,3.0,64.0
8926,46.0,0.0,90.0,14.0,64.0
8927,46.0,0.0,90.0,6.0,64.0
8928,70.0,0.0,90.0,12.0,64.0
8929,82.0,0.0,60.0,0.0,64.0
8930,58.0,0.0,90.0,4.0,64.0
8931,58.0,0.0,90.0,13.0,64.0
8932,82.0,0.0,60.0,11.0,64.0
8933,70.0,0.0,90.0,5.0,64.0
8934,58.0,0.0,90.0,5.0,64.0
8935,82.0,6.0,60.0,10.0,64.0
8936,46.0,78.0,90.0,14.0,64.0
8937,58.0,0.0,180.0,2.0,64.0
8938,46.0,0.0,180.0,6.0,64.0
8939,82.0,0.0,60.0,11.0,64.0
8940,58.0,0.0,180.0,5.0,64.0
8941,82.0,6.0,60.0,0.0,64.0
8942,58.0,0.0,90.0,3.0,64.0
8943,58.0,0.0,90.0,13.0,64.0
8944,82.0,0.0,60.0,10.0,64.0
8945,70.0,0.0,90.0,12.0,64.0
8946,58.0,0.0,150.0,4.0,64.0
8947,46.0,36.0,150.0,4.0,64.0
8948,70.0,6.0,180.0,1.0,64.0
8949,70.0,0.0,180.0,5.0,64.0
8950,82.0,0.0,60.0,0.0,64.0
8951,70.0,0.0,90.0,12.0,64.0
8952,58.0,0.0,90.0,13.0,64.0
8953,58.0,114.0,90.0,3.0,64.0
8954,82.0,0.0,60.0,11.0,64.0
8955,82.0,0.0,60.0,10.0,64.0
8956,46.0,0.0,90.0,14.0,64.0
8957,46.0,18.0,90.0,14.0,64.0
8958,58.0,0.0,90.0,3.0,64.0
8959,82.0,0.0,60.0,10.0,64.0
8960,82.0,0.0,60.0,0.0,64.0
8961,70.0,0.0,90.0,12.0,64.0
8962,70.0,96.0,90.0,2.0,64.0
8963,82.0,0.0,180.0,1.0,64.0
8964,58.0,0.0,90.0,13.0,64.0
8965,82.0,6.0,60.0,11.0,64.0
8966,82.0,0.0,60.0,10.0,64.0
8967,70.0,18.0,90.0,12.0,64.0
8968,58.0,0.0,90.0,13.0,64.0
8969,82.0,6.0,60.0,0.0,64.0
8970,58.0,0.0,90.0,3.0,64.0
8971,46.0,0.0,90.0,14.0,64.0
8972,82.0,0.0,60.0,11.0,64.0
8973,70.0,144.0,90.0,2.0,64.0
8974,82.0,78.0,120.0,11.0,64.0
8975,58.0,0.0,120.0,3.0,64.0
8976,70.0,0.0,120.0,12.0,64.0
8977,58.0,0.0,120.0,13.0,64.0
8978,46.0,0.0,120.0,14.0,64.0
8979,82.0,0.0,120.0,0.0,64.0
8980,82.0,0.0,120.0,10.0,64.0
8981,82.0,0.0,120.0,1.0,64.0
8982,70.0,0.0,120.0,2.0,64.0
8983,79.0,0.0,90.0,0.0,64.0
8984,67.0,0.0,90.0,2.0,64.0
8985,79.0,0.0,90.0,1.0,64.0
8986,43.0,162.0,90.0,14.0,64.0
8987,55.0,0.0,90.0,3.0,64.0
8988,55.0,0.0,90.0,13.0,64.0
8989,67.0,0.0,90.0,12.0,64.0
8990,79.0,0.0,90.0,10.0,64.0
8991,79.0,0.0,90.0,11.0,64.0
8992,55.0,0.0,120.0,13.0,64.0
8993,55.0,0.0,120.0,3.0,64.0
8994,79.0,0.0,120.0,1.0,64.0
8995,79.0,78.0,120.0,11.0,64.0
8996,67.0,0.0,120.0,12.0,64.0
8997,79.0,0.0,120.0,10.0,64.0
8998,43.0,0.0,120.0,14.0,64.0
8999,67.0,0.0,120.0,2.0,64.0
9000,79.0,0.0,120.0,0.0,64.0
9001,63.0,0.0,90.0,12.0,64.0
9002,51.0,0.0,90.0,3.0,64.0
9003,75.0,0.0,90.0,1.0,64.0
9004,75.0,0.0,90.0,11.0,64.0
9005,63.0,162.0,90.0,2.0,64.0
9006,51.0,0.0,90.0,13.0,64.0
9007,75.0,0.0,90.0,10.0,64.0
9008,75.0,0.0,90.0,0.0,64.0
9009,39.0,0.0,90.0,14.0,64.0
9010,75.0,0.0,120.0,11.0,64.0
9011,75.0,0.0,120.0,1.0,64.0
9012,51.0,0.0,120.0,13.0,64.0
9013,51.0,0.0,120.0,3.0,64.0
9014,63.0,0.0,120.0,2.0,64.0
9015,75.0,0.0,120.0,0.0,64.0
9016,39.0,0.0,120.0,14.0,64.0
9017,63.0,78.0,120.0,12.0,64.0
9018,75.0,0.0,120.0,10.0,64.0
9019,48.0,0.0,90.0,3.0,64.0
9020,72.0,0.0,90.0,0.0,64.0
9021,60.0,0.0,90.0,12.0,64.0
9022,72.0,120.0,90.0,10.0,64.0
9023,48.0,0.0,90.0,13.0,64.0
9024,72.0,0.0,90.0,1.0,64.0
9025,60.0,0.0,90.0,2.0,64.0
9026,72.0,0.0,90.0,11.0,64.0
9027,36.0,0.0,90.0,14.0,64.0
9028,77.0,0.0,90.0,10.0,64.0
9029,53.0,0.0,90.0,3.0,64.0
9030,53.0,0.0,90.0,13.0,64.0
9031,41.0,0.0,90.0,14.0,64.0
9032,77.0,0.0,90.0,0.0,64.0
9033,77.0,0.0,90.0,1.0,64.0
9034,77.0,0.0,90.0,11.0,64.0
9035,65.0,0.0,90.0,2.0,64.0
9036,65.0,120.0,90.0,12.0,64.0
9037,65.0,0.0,90.0,12.0,64.0
9038,77.0,0.0,90.0,11.0,64.0
9039,65.0,0.0,90.0,2.0,64.0
9040,77.0,162.0,90.0,1.0,64.0
9041,41.0,0.0,90.0,14.0,64.0
9042,77.0,0.0,90.0,0.0,64.0
9043,77.0,0.0,90.0,10.0,64.0
9044,53.0,0.0,90.0,3.0,64.0
9045,53.0,0.0,90.0,13.0,64.0
9046,65.0,0.0,120.0,2.0,64.0
9047,77.0,0.0,120.0,11.0,64.0
9048,53.0,0.0,120.0,13.0,64.0
9049,77.0,0.0,120.0,1.0,64.0
9050,65.0,0.0,120.0,12.0,64.0
9051,77.0,78.0,120.0,10.0,64.0
9052,77.0,0.0,120.0,0.0,64.0
9053,41.0,0.0,120.0,14.0,64.0
9054,53.0,0.0,120.0,3.0,64.0
9055,74.0,162.0,90.0,1.0,64.0
9056,50.0,0.0,90.0,3.0,64.0
9057,62.0,0.0,90.0,2.0,64.0
9058,74.0,0.0,90.0,11.0,64.0
9059,74.0,0.0,90.0,10.0,64.0
9060,62.0,0.0,90.0,12.0,64.0
9061,50.0,0.0,90.0,13.0,64.0
9062,74.0,0.0,90.0,0.0,64.0
9063,38.0,0.0,90.0,14.0,64.0
9064,62.0,0.0,120.0,2.0,64.0
9065,62.0,0.0,120.0,12.0,64.0
9066,50.0,0.0,120.0,13.0,64.0
9067,74.0,0.0,120.0,0.0,64.0
9068,38.0,0.0,120.0,14.0,64.0
9069,74.0,78.0,120.0,1.0,64.0
9070,74.0,0.0,120.0,10.0,64.0
9071,50.0,0.0,120.0,3.0,64.0
9072,74.0,0.0,120.0,11.0,64.0
9073,46.0,0.0,90.0,3.0,64.0
9074,58.0,0.0,90.0,12.0,64.0
9075,46.0,0.0,90.0,13.0,64.0
9076,70.0,0.0,90.0,11.0,64.0
9077,70.0,0.0,90.0,10.0,64.0
9078,70.0,0.0,90.0,0.0,64.0
9079,58.0,162.0,90.0,2.0,64.0
9080,34.0,0.0,90.0,14.0,64.0
9081,70.0,0.0,90.0,1.0,64.0
9082,46.0,0.0,120.0,13.0,64.0
9083,70.0,78.0,120.0,10.0,64.0
9084,58.0,0.0,120.0,2.0,64.0
9085,46.0,0.0,120.0,3.0,64.0
9086,34.0,0.0,120.0,14.0,64.0
9087,70.0,0.0,120.0,0.0,64.0
9088,70.0,0.0,120.0,1.0,64.0
9089,58.0,0.0,120.0,12.0,64.0
9090,70.0,0.0,120.0,11.0,64.0
9091,43.0,0.0,90.0,13.0,64.0
9092,55.0,0.0,90.0,12.0,64.0
9093,67.0,0.0,90.0,1.0,64.0
9094,67.0,120.0,90.0,11.0,64.0
9095,55.0,0.0,90.0,2.0,64.0
9096,31.0,0.0,90.0,14.0,64.0
9097,43.0,0.0,90.0,3.0,64.0
9098,67.0,0.0,90.0,0.0,64.0
9099,67.0,0.0,90.0,10.0,64.0
9100,51.0,0.0,90.0,3.0,64.0
9101,63.0,0.0,90.0,12.0,64.0
9102,75.0,0.0,90.0,11.0,64.0
9103,39.0,0.0,90.0,14.0,64.0
9104,75.0,0.0,90.0,1.0,64.0
9105,75.0,120.0,90.0,0.0,64.0
9106,75.0,0.0,90.0,10.0,64.0
9107,51.0,0.0,90.0,13.0,64.0
9108,63.0,0.0,90.0,2.0,64.0
9109,72.0,0.0,90.0,10.0,64.0
9110,48.0,0.0,90.0,3.0,64.0
9111,60.0,0.0,90.0,12.0,64.0
9112,36.0,0.0,90.0,14.0,64.0
9113,48.0,0.0,90.0,13.0,64.0
9114,60.0,120.0,90.0,2.0,64.0
9115,72.0,0.0,90.0,1.0,64.0
9116,72.0,0.0,90.0,11.0,64.0
9117,72.0,0.0,90.0,0.0,64.0
9118,69.0,0.0,90.0,1.0,64.0
9119,69.0,0.0,90.0,12.0,64.0
9120,57.0,0.0,90.0,13.0,64.0
9121,69.0,0.0,90.0,2.0,64.0
9122,81.0,0.0,90.0,0.0,64.0
9123,69.0,0.0,90.0,10.0,64.0
9124,57.0,120.0,90.0,3.0,64.0
9125,45.0,0.0,90.0,14.0,64.0
9126,69.0,0.0,90.0,11.0,64.0
9127,65.0,0.0,90.0,12.0,64.0
9128,53.0,0.0,90.0,3.0,64.0
9129,65.0,0.0,90.0,11.0,64.0
9130,77.0,120.0,90.0,0.0,64.0
9131,65.0,0.0,90.0,1.0,64.0
9132,41.0,0.0,90.0,14.0,64.0
9133,65.0,0.0,90.0,2.0,64.0
9134,53.0,0.0,90.0,13.0,64.0
9135,65.0,0.0,90.0,10.0,64.0
9136,58.0,0.0,90.0,13.0,64.0
9137,70.0,114.0,90.0,11.0,64.0
9138,70.0,0.0,90.0,2.0,64.0
9139,70.0,6.0,180.0,1.0,64.0
9140,70.0,0.0,90.0,12.0,64.0
9141,58.0,0.0,90.0,3.0,64.0
9142,46.0,0.0,90.0,14.0,64.0
9143,70.0,0.0,90.0,10.0,64.0
9144,82.0,0.0,90.0,0.0,64.0
9145,41.0,0.0,90.0,14.0,64.0
9146,65.0,0.0,90.0,11.0,64.0
9147,77.0,0.0,90.0,0.0,64.0
9148,65.0,0.0,90.0,10.0,64.0
9149,65.0,0.0,90.0,2.0,64.0
9150,65.0,0.0,90.0,12.0,64.0
9151,53.0,0.0,90.0,3.0,64.0
9152,53.0,120.0,90.0,13.0,64.0
9153,75.0,0.0,90.0,0.0,64.0
9154,63.0,0.0,90.0,10.0,64.0
9155,63.0,0.0,90.0,2.0,64.0
9156,63.0,0.0,90.0,11.0,64.0
9157,63.0,0.0,90.0,12.0,64.0
9158,51.0,0.0,90.0,3.0,64.0
9159,51.0,120.0,90.0,13.0,64.0
9160,39.0,0.0,90.0,14.0,64.0
9161,38.0,0.0,90.0,14.0,64.0
9162,62.0,0.0,90.0,12.0,64.0
9163,50.0,0.0,90.0,13.0,64.0
9164,50.0,0.0,90.0,3.0,64.0
9165,74.0,0.0,90.0,0.0,64.0
9166,62.0,0.0,90.0,10.0,64.0
9167,62.0,120.0,90.0,11.0,64.0
9168,62.0,0.0,90.0,2.0,64.0
9169,48.0,0.0,90.0,13.0,64.0
9170,60.0,120.0,90.0,2.0,64.0
9171,60.0,0.0,90.0,10.0,64.0
9172,36.0,0.0,90.0,14.0,64.0
9173,60.0,0.0,90.0,12.0,64.0
9174,48.0,0.0,90.0,3.0,64.0
9175,72.0,0.0,90.0,0.0,64.0
9176,60.0,0.0,90.0,11.0,64.0
9177,46.0,426.0,90.0,3.0,64.0
9178,34.0,0.0,90.0,14.0,64.0
9179,58.0,0.0,90.0,11.0,64.0
9180,58.0,0.0,90.0,2.0,64.0
9181,58.0,0.0,90.0,10.0,64.0
9182,70.0,0.0,90.0,0.0,64.0
9183,58.0,0.0,90.0,12.0,64.0
9184,46.0,0.0,90.0,13.0,64.0
9185,63.0,0.0,780.0,2.0,64.0
9186,70.0,0.0,780.0,2.0,64.0
9187,55.0,576.0,780.0,12.0,64.0
9188,55.0,0.0,780.0,11.0,64.0
9189,70.0,0.0,780.0,5.0,64.0
9190,43.0,0.0,780.0,3.0,64.0
9191,43.0,0.0,780.0,13.0,64.0
9192,31.0,0.0,780.0,14.0,64.0
9193,58.0,0.0,780.0,4.0,64.0
9194,46.0,0.0,780.0,4.0,64.0
9195,82.0,0.0,780.0,0.0,64.0
9196,46.0,384.0,390.0,6.0,64.0
9197,75.0,0.0,780.0,0.0,64.0
9198,75.0,0.0,780.0,1.0,64.0
9199,70.0,0.0,780.0,1.0,64.0
9200,58.0,0.0,780.0,5.0,64.0
9201,55.0,0.0,780.0,10.0,64.0
9202,54.0,0.0,390.0,11.0,64.0
9203,64.0,0.0,390.0,2.0,64.0
9204,70.0,0.0,390.0,2.0,64.0
9205,76.0,0.0,390.0,0.0,64.0
9206,82.0,0.0,390.0,0.0,64.0
9207,42.0,480.0,390.0,13.0,64.0
9208,58.0,0.0,390.0,4.0,64.0
9209,46.0,0.0,390.0,4.0,64.0
9210,30.0,0.0,390.0,14.0,64.0
9211,58.0,0.0,390.0,5.0,64.0
9212,70.0,0.0,390.0,5.0,64.0
9213,54.0,0.0,390.0,12.0,64.0
9214,42.0,0.0,390.0,3.0,64.0
9215,73.0,0.0,390.0,1.0,64.0
9216,76.0,0.0,390.0,1.0,64.0
9217,46.0,0.0,390.0,6.0,64.0
9218,54.0,0.0,390.0,10.0,64.0
9219,82.0,0.0,390.0,0.0,64.0
9220,30.0,0.0,390.0,14.0,64.0
9221,54.0,0.0,390.0,12.0,64.0
9222,76.0,0.0,390.0,0.0,64.0
9223,70.0,0.0,390.0,5.0,64.0
9224,64.0,0.0,390.0,2.0,64.0
9225,42.0,0.0,390.0,3.0,64.0
9226,54.0,0.0,390.0,11.0,64.0
9227,58.0,0.0,390.0,5.0,64.0
9228,46.0,120.0,390.0,4.0,64.0
9229,58.0,0.0,390.0,4.0,64.0
9230,46.0,0.0,390.0,6.0,64.0
9231,70.0,0.0,390.0,2.0,64.0
9232,54.0,0.0,390.0,10.0,64.0
9233,42.0,0.0,390.0,13.0,64.0
9234,73.0,0.0,390.0,1.0,64.0
9235,76.0,0.0,390.0,1.0,64.0
9236,77.0,0.0,180.0,1.0,64.0
9237,72.0,0.0,180.0,2.0,64.0
9238,60.0,0.0,180.0,2.0,64.0
9239,53.0,0.0,1140.0,5.0,64.0
9240,53.0,0.0,180.0,4.0,64.0
9241,65.0,0.0,180.0,4.0,64.0
9242,65.0,0.0,1140.0,5.0,64.0
9243,41.0,18.0,570.0,13.0,64.0
9244,77.0,12.0,180.0,0.0,64.0
9245,81.0,0.0,180.0,0.0,64.0
9246,29.0,0.0,570.0,14.0,64.0
9247,53.0,0.0,570.0,10.0,64.0
9248,69.0,0.0,180.0,1.0,64.0
9249,41.0,0.0,570.0,3.0,64.0
9250,53.0,0.0,570.0,12.0,64.0
9251,53.0,0.0,570.0,11.0,64.0
9252,41.0,30.0,20.0,6.0,64.0
9253,41.0,30.0,20.0,6.0,64.0
9254,41.0,30.0,20.0,6.0,64.0
9255,41.0,30.0,20.0,6.0,64.0
9256,41.0,30.0,20.0,6.0,64.0
9257,41.0,18.0,20.0,6.0,64.0
9258,41.0,30.0,20.0,6.0,64.0
9259,41.0,30.0,20.0,6.0,64.0
9260,69.0,0.0,180.0,2.0,64.0
9261,60.0,0.0,180.0,4.0,64.0
9262,72.0,0.0,180.0,1.0,64.0
9263,69.0,0.0,180.0,1.0,64.0
9264,53.0,12.0,180.0,4.0,64.0
9265,77.0,0.0,180.0,0.0,64.0
9266,41.0,30.0,20.0,6.0,64.0
9267,41.0,30.0,20.0,6.0,64.0
9268,41.0,30.0,20.0,6.0,64.0
9269,41.0,30.0,20.0,6.0,64.0
9270,41.0,30.0,20.0,6.0,64.0
9271,41.0,18.0,20.0,6.0,64.0
9272,41.0,30.0,20.0,6.0,64.0
9273,41.0,30.0,20.0,6.0,64.0
9274,53.0,0.0,180.0,4.0,64.0
9275,77.0,0.0,180.0,0.0,64.0
9276,69.0,0.0,180.0,2.0,64.0
9277,60.0,12.0,180.0,4.0,64.0
9278,72.0,0.0,180.0,1.0,64.0
9279,69.0,0.0,180.0,1.0,64.0
9280,41.0,30.0,20.0,6.0,64.0
9281,41.0,30.0,20.0,6.0,64.0
9282,41.0,12.0,20.0,6.0,64.0
9283,41.0,30.0,20.0,6.0,64.0
9284,41.0,24.0,20.0,6.0,64.0
9285,55.0,6.0,60.0,12.0,64.0
9286,55.0,0.0,60.0,10.0,64.0
9287,31.0,0.0,60.0,14.0,64.0
9288,55.0,0.0,60.0,11.0,64.0
9289,43.0,0.0,60.0,13.0,64.0
9290,43.0,0.0,60.0,3.0,64.0
9291,41.0,18.0,20.0,6.0,64.0
9292,57.0,0.0,60.0,11.0,64.0
9293,33.0,0.0,60.0,14.0,64.0
9294,41.0,24.0,20.0,6.0,64.0
9295,45.0,0.0,60.0,13.0,64.0
9296,45.0,6.0,60.0,3.0,64.0
9297,57.0,0.0,60.0,10.0,64.0
9298,57.0,0.0,60.0,12.0,64.0
9299,41.0,30.0,20.0,6.0,64.0
9300,34.0,0.0,60.0,14.0,64.0
9301,77.0,0.0,180.0,0.0,64.0
9302,69.0,0.0,180.0,2.0,64.0
9303,53.0,0.0,180.0,4.0,64.0
9304,58.0,0.0,60.0,12.0,64.0
9305,72.0,0.0,180.0,1.0,64.0
9306,46.0,6.0,60.0,13.0,64.0
9307,58.0,0.0,60.0,10.0,64.0
9308,60.0,0.0,180.0,4.0,64.0
9309,46.0,0.0,60.0,3.0,64.0
9310,58.0,0.0,60.0,11.0,64.0
9311,69.0,12.0,180.0,1.0,64.0
9312,41.0,24.0,20.0,6.0,64.0
9313,41.0,30.0,20.0,6.0,64.0
9314,48.0,0.0,60.0,13.0,64.0
9315,60.0,6.0,60.0,11.0,64.0
9316,60.0,0.0,60.0,10.0,64.0
9317,41.0,24.0,20.0,6.0,64.0
9318,48.0,0.0,60.0,3.0,64.0
9319,36.0,0.0,60.0,14.0,64.0
9320,60.0,0.0,60.0,12.0,64.0
9321,41.0,30.0,20.0,6.0,64.0
9322,50.0,0.0,60.0,3.0,64.0
9323,38.0,0.0,60.0,14.0,64.0
9324,62.0,0.0,60.0,10.0,64.0
9325,41.0,24.0,20.0,6.0,64.0
9326,62.0,0.0,60.0,12.0,64.0
9327,50.0,6.0,60.0,13.0,64.0
9328,62.0,0.0,60.0,11.0,64.0
9329,41.0,18.0,20.0,6.0,64.0
9330,64.0,0.0,60.0,11.0,64.0
9331,52.0,0.0,60.0,3.0,64.0
9332,40.0,0.0,60.0,14.0,64.0
9333,41.0,24.0,20.0,6.0,64.0
9334,52.0,6.0,60.0,13.0,64.0
9335,64.0,0.0,60.0,12.0,64.0
9336,64.0,0.0,60.0,10.0,64.0
9337,41.0,198.0,20.0,6.0,64.0
9338,69.0,0.0,180.0,2.0,64.0
9339,41.0,0.0,180.0,14.0,64.0
9340,53.0,0.0,180.0,3.0,64.0
9341,41.0,0.0,180.0,6.0,64.0
9342,65.0,0.0,180.0,12.0,64.0
9343,77.0,0.0,180.0,0.0,64.0
9344,72.0,0.0,180.0,1.0,64.0
9345,69.0,0.0,180.0,1.0,64.0
9346,65.0,0.0,180.0,11.0,64.0
9347,53.0,0.0,180.0,4.0,64.0
9348,65.0,864.0,180.0,10.0,64.0
9349,60.0,0.0,180.0,4.0,64.0
9350,53.0,0.0,180.0,13.0,64.0
9351,58.0,120.0,90.0,12.0,64.0
9352,58.0,120.0,90.0,12.0,64.0
9353,58.0,120.0,90.0,12.0,64.0
9354,58.0,120.0,90.0,12.0,64.0
9355,58.0,120.0,90.0,12.0,64.0
9356,58.0,120.0,90.0,12.0,64.0
9357,58.0,120.0,90.0,12.0,64.0
9358,58.0,54.0,90.0,12.0,64.0
9359,58.0,108.0,90.0,12.0,64.0
9360,74.0,30.0,30.0,10.0,64.0
9361,70.0,0.0,30.0,11.0,64.0
9362,72.0,0.0,30.0,11.0,64.0
9363,75.0,36.0,30.0,10.0,64.0
9364,74.0,0.0,150.0,11.0,64.0
9365,77.0,12.0,150.0,10.0,64.0
9366,58.0,90.0,90.0,12.0,64.0
9367,70.0,30.0,60.0,11.0,64.0
9368,74.0,0.0,60.0,10.0,64.0
9369,58.0,120.0,90.0,12.0,64.0
9370,58.0,54.0,90.0,12.0,64.0
9371,74.0,0.0,30.0,10.0,64.0
9372,58.0,108.0,90.0,12.0,64.0
9373,70.0,30.0,30.0,11.0,64.0
9374,75.0,36.0,30.0,10.0,64.0
9375,72.0,0.0,30.0,11.0,64.0
9376,77.0,12.0,150.0,10.0,64.0
9377,74.0,0.0,150.0,11.0,64.0
9378,58.0,90.0,90.0,12.0,64.0
9379,74.0,0.0,60.0,10.0,64.0
9380,58.0,120.0,90.0,12.0,64.0
9381,70.0,30.0,60.0,11.0,64.0
9382,58.0,54.0,90.0,12.0,64.0
9383,58.0,81.0,90.0,12.0,64.0
9384,75.0,0.0,30.0,11.0,64.0
9385,79.0,30.0,30.0,10.0,64.0
9386,81.0,0.0,30.0,10.0,64.0
9387,77.0,36.0,30.0,11.0,64.0
9388,82.0,0.0,120.0,10.0,64.0
9389,79.0,39.0,120.0,11.0,64.0
9390,58.0,120.0,90.0,12.0,64.0
9391,82.0,96.0,480.0,10.0,64.0
9392,79.0,96.0,240.0,11.0,64.0
9393,58.0,120.0,90.0,12.0,64.0
9394,58.0,24.0,90.0,12.0,64.0
9395,58.0,120.0,90.0,12.0,64.0
9396,79.0,0.0,570.0,11.0,64.0
9397,58.0,24.0,90.0,12.0,64.0
9398,82.0,96.0,330.0,10.0,64.0
9399,58.0,120.0,90.0,12.0,64.0
9400,58.0,120.0,90.0,12.0,64.0
9401,58.0,24.0,180.0,12.0,64.0
9402,81.0,0.0,90.0,10.0,64.0
9403,77.0,120.0,90.0,11.0,64.0
9404,79.0,120.0,90.0,10.0,64.0
9405,75.0,0.0,90.0,11.0,64.0
9406,77.0,120.0,90.0,10.0,64.0
9407,74.0,0.0,90.0,11.0,64.0
9408,72.0,0.0,90.0,11.0,64.0
9409,75.0,120.0,90.0,10.0,64.0
9410,70.0,120.0,90.0,11.0,64.0
9411,74.0,0.0,90.0,10.0,64.0
9412,69.0,120.0,90.0,11.0,64.0
9413,72.0,0.0,90.0,10.0,64.0
9414,70.0,0.0,90.0,10.0,64.0
9415,67.0,96.0,90.0,11.0,64.0
9416,41.0,0.0,480.0,14.0,64.0
9417,65.0,0.0,60.0,11.0,64.0
9418,69.0,120.0,60.0,10.0,64.0
9419,53.0,144.0,480.0,13.0,64.0
9420,63.0,120.0,60.0,11.0,64.0
9421,67.0,0.0,60.0,10.0,64.0
9422,62.0,120.0,60.0,11.0,64.0
9423,65.0,0.0,60.0,10.0,64.0
9424,63.0,48.0,60.0,10.0,64.0
9425,60.0,0.0,60.0,11.0,64.0
9426,58.0,288.0,180.0,13.0,64.0
9427,46.0,0.0,180.0,14.0,64.0
9428,58.0,0.0,150.0,11.0,64.0
9429,62.0,48.0,150.0,10.0,64.0
9430,46.0,0.0,240.0,3.0,64.0
9431,62.0,0.0,240.0,2.0,64.0
9432,50.0,0.0,240.0,3.0,64.0
9433,58.0,96.0,240.0,2.0,64.0
9434,45.0,0.0,90.0,3.0,64.0
9435,48.0,0.0,90.0,3.0,64.0
9436,60.0,0.0,90.0,2.0,64.0
9437,57.0,384.0,90.0,2.0,64.0
9438,51.0,0.0,240.0,3.0,64.0
9439,48.0,96.0,240.0,3.0,64.0
9440,60.0,0.0,240.0,2.0,64.0
9441,63.0,0.0,240.0,2.0,64.0
9442,62.0,0.0,90.0,2.0,64.0
9443,58.0,204.0,90.0,2.0,64.0
9444,46.0,0.0,90.0,3.0,64.0
9445,50.0,0.0,90.0,3.0,64.0
9446,50.0,384.0,90.0,3.0,64.0
9447,65.0,0.0,60.0,2.0,64.0
9448,53.0,36.0,60.0,3.0,64.0
9449,62.0,0.0,90.0,2.0,64.0
9450,41.0,0.0,120.0,13.0,64.0
9451,43.0,0.0,120.0,13.0,64.0
9452,50.0,0.0,15.0,3.0,64.0
9453,53.0,0.0,15.0,3.0,64.0
9454,65.0,30.0,15.0,2.0,64.0
9455,62.0,0.0,15.0,2.0,64.0
9456,63.0,0.0,30.0,2.0,64.0
9457,48.0,30.0,30.0,3.0,64.0
9458,60.0,0.0,30.0,2.0,64.0
9459,51.0,0.0,30.0,3.0,64.0
9460,50.0,0.0,30.0,3.0,64.0
9461,53.0,30.0,30.0,3.0,64.0
9462,62.0,0.0,30.0,2.0,64.0
9463,65.0,0.0,30.0,2.0,64.0
9464,60.0,30.0,30.0,2.0,64.0
9465,48.0,0.0,30.0,3.0,64.0
9466,51.0,0.0,30.0,3.0,64.0
9467,63.0,0.0,30.0,2.0,64.0
9468,62.0,30.0,30.0,2.0,64.0
9469,45.0,0.0,120.0,13.0,64.0
9470,65.0,0.0,30.0,2.0,64.0
9471,53.0,0.0,30.0,3.0,64.0
9472,50.0,0.0,30.0,3.0,64.0
9473,51.0,0.0,30.0,3.0,64.0
9474,48.0,0.0,30.0,3.0,64.0
9475,63.0,0.0,30.0,2.0,64.0
9476,60.0,30.0,30.0,2.0,64.0
9477,53.0,0.0,30.0,3.0,64.0
9478,65.0,0.0,30.0,2.0,64.0
9479,50.0,0.0,30.0,3.0,64.0
9480,62.0,30.0,30.0,2.0,64.0
9481,48.0,78.0,30.0,3.0,64.0
9482,60.0,0.0,30.0,2.0,64.0
9483,63.0,0.0,30.0,2.0,64.0
9484,51.0,0.0,30.0,3.0,64.0
9485,62.0,0.0,180.0,2.0,64.0
9486,58.0,0.0,180.0,2.0,64.0
9487,46.0,114.0,90.0,13.0,64.0
9488,46.0,6.0,180.0,3.0,64.0
9489,50.0,0.0,180.0,3.0,64.0
9490,50.0,120.0,90.0,13.0,64.0
9491,53.0,120.0,90.0,13.0,64.0
9492,50.0,132.0,90.0,13.0,64.0
9493,46.0,18.0,180.0,13.0,64.0
9494,46.0,0.0,2880.0,4.0,64.0
9495,58.0,96.0,2880.0,4.0,64.0
9496,58.0,102.0,90.0,12.0,64.0
9497,70.0,120.0,90.0,12.0,64.0
9498,58.0,120.0,90.0,12.0,64.0
9499,70.0,120.0,90.0,12.0,64.0
9500,58.0,120.0,90.0,12.0,64.0
9501,70.0,120.0,90.0,12.0,64.0
9502,58.0,120.0,90.0,12.0,64.0
9503,70.0,60.0,90.0,12.0,64.0
9504,70.0,0.0,30.0,11.0,64.0
9505,74.0,30.0,30.0,10.0,64.0
9506,58.0,114.0,90.0,12.0,64.0
9507,75.0,30.0,30.0,10.0,64.0
9508,72.0,0.0,30.0,11.0,64.0
9509,74.0,6.0,150.0,11.0,64.0
9510,77.0,0.0,150.0,10.0,64.0
9511,70.0,108.0,90.0,12.0,64.0
9512,75.0,0.0,90.0,10.0,64.0
9513,72.0,12.0,90.0,11.0,64.0
9514,58.0,108.0,90.0,12.0,64.0
9515,70.0,12.0,90.0,11.0,64.0
9516,74.0,0.0,90.0,10.0,64.0
9517,70.0,60.0,90.0,12.0,64.0
9518,58.0,114.0,90.0,12.0,64.0
9519,74.0,0.0,30.0,10.0,64.0
9520,70.0,30.0,30.0,11.0,64.0
9521,72.0,30.0,30.0,11.0,64.0
9522,75.0,0.0,30.0,10.0,64.0
9523,74.0,0.0,150.0,11.0,64.0
9524,77.0,6.0,150.0,10.0,64.0
9525,70.0,108.0,90.0,12.0,64.0
9526,58.0,108.0,90.0,12.0,64.0
9527,75.0,0.0,90.0,10.0,64.0
9528,72.0,12.0,90.0,11.0,64.0
9529,74.0,0.0,90.0,10.0,64.0
9530,70.0,12.0,90.0,11.0,64.0
9531,70.0,60.0,90.0,12.0,64.0
9532,79.0,30.0,30.0,10.0,64.0
9533,58.0,87.0,90.0,12.0,64.0
9534,75.0,0.0,30.0,11.0,64.0
9535,81.0,0.0,30.0,10.0,64.0
9536,77.0,30.0,30.0,11.0,64.0
9537,82.0,33.0,120.0,10.0,64.0
9538,79.0,0.0,120.0,11.0,64.0
9539,70.0,120.0,90.0,12.0,64.0
9540,58.0,120.0,90.0,12.0,64.0
9541,82.0,96.0,810.0,10.0,64.0
9542,70.0,30.0,90.0,12.0,64.0
9543,79.0,90.0,15.0,11.0,64.0
9544,58.0,120.0,90.0,12.0,64.0
9545,70.0,120.0,90.0,12.0,64.0
9546,58.0,120.0,90.0,12.0,64.0
9547,70.0,30.0,90.0,12.0,64.0
9548,58.0,24.0,180.0,12.0,64.0
9549,77.0,0.0,90.0,11.0,64.0
9550,81.0,120.0,90.0,10.0,64.0
9551,75.0,0.0,90.0,11.0,64.0
9552,79.0,120.0,90.0,10.0,64.0
9553,74.0,0.0,90.0,11.0,64.0
9554,77.0,120.0,90.0,10.0,64.0
9555,72.0,0.0,90.0,11.0,64.0
9556,75.0,120.0,90.0,10.0,64.0
9557,74.0,0.0,90.0,10.0,64.0
9558,70.0,120.0,90.0,11.0,64.0
9559,72.0,0.0,90.0,10.0,64.0
9560,69.0,120.0,90.0,11.0,64.0
9561,67.0,0.0,90.0,11.0,64.0
9562,70.0,96.0,90.0,10.0,64.0
9563,65.0,120.0,60.0,11.0,64.0
9564,53.0,0.0,480.0,13.0,64.0
9565,41.0,144.0,480.0,14.0,64.0
9566,69.0,0.0,60.0,10.0,64.0
9567,63.0,120.0,60.0,11.0,64.0
9568,67.0,0.0,60.0,10.0,64.0
9569,65.0,0.0,60.0,10.0,64.0
9570,62.0,120.0,60.0,11.0,64.0
9571,63.0,48.0,60.0,10.0,64.0
9572,60.0,0.0,60.0,11.0,64.0
9573,58.0,0.0,150.0,11.0,64.0
9574,46.0,288.0,180.0,14.0,64.0
9575,62.0,48.0,150.0,10.0,64.0
9576,58.0,0.0,180.0,13.0,64.0
9577,58.0,96.0,240.0,4.0,64.0
9578,62.0,0.0,240.0,4.0,64.0
9579,74.0,0.0,240.0,1.0,64.0
9580,70.0,0.0,240.0,1.0,64.0
9581,69.0,0.0,90.0,1.0,64.0
9582,72.0,0.0,90.0,1.0,64.0
9583,41.0,288.0,180.0,6.0,64.0
9584,53.0,96.0,90.0,4.0,64.0
9585,60.0,0.0,90.0,4.0,64.0
9586,65.0,0.0,180.0,5.0,64.0
9587,75.0,0.0,240.0,1.0,64.0
9588,72.0,0.0,240.0,1.0,64.0
9589,63.0,96.0,240.0,4.0,64.0
9590,60.0,0.0,240.0,4.0,64.0
9591,58.0,0.0,180.0,5.0,64.0
9592,46.0,0.0,180.0,6.0,64.0
9593,70.0,0.0,90.0,1.0,64.0
9594,74.0,0.0,90.0,1.0,64.0
9595,65.0,108.0,180.0,5.0,64.0
9596,62.0,0.0,90.0,4.0,64.0
9597,58.0,96.0,90.0,4.0,64.0
9598,62.0,336.0,90.0,4.0,64.0
9599,65.0,0.0,60.0,4.0,64.0
9600,77.0,36.0,60.0,1.0,64.0
9601,74.0,0.0,90.0,1.0,64.0
9602,53.0,0.0,180.0,5.0,64.0
9603,65.0,0.0,180.0,5.0,64.0
9604,62.0,0.0,180.0,4.0,64.0
9605,65.0,0.0,240.0,4.0,64.0
9606,41.0,0.0,180.0,6.0,64.0
9607,53.0,0.0,60.0,11.0,64.0
9608,65.0,48.0,60.0,10.0,64.0
9609,55.0,0.0,60.0,11.0,64.0
9610,67.0,18.0,60.0,10.0,64.0
9611,53.0,18.0,180.0,5.0,64.0
9612,41.0,0.0,180.0,6.0,64.0
9613,65.0,0.0,180.0,5.0,64.0
9614,60.0,0.0,180.0,4.0,64.0
9615,77.0,0.0,15.0,1.0,64.0
9616,74.0,30.0,15.0,1.0,64.0
9617,63.0,0.0,180.0,4.0,64.0
9618,75.0,0.0,30.0,1.0,64.0
9619,72.0,12.0,30.0,1.0,64.0
9620,74.0,0.0,30.0,1.0,64.0
9621,77.0,30.0,30.0,1.0,64.0
9622,72.0,30.0,30.0,1.0,64.0
9623,75.0,0.0,30.0,1.0,64.0
9624,77.0,0.0,30.0,1.0,64.0
9625,45.0,0.0,60.0,12.0,64.0
9626,74.0,30.0,30.0,1.0,64.0
9627,57.0,0.0,60.0,11.0,64.0
9628,69.0,0.0,60.0,10.0,64.0
9629,72.0,12.0,30.0,1.0,64.0
9630,75.0,0.0,30.0,1.0,64.0
9631,74.0,30.0,30.0,1.0,64.0
9632,77.0,0.0,30.0,1.0,64.0
9633,72.0,0.0,30.0,1.0,64.0
9634,75.0,72.0,30.0,1.0,64.0
9635,70.0,0.0,60.0,10.0,64.0
9636,58.0,0.0,180.0,4.0,64.0
9637,62.0,0.0,180.0,4.0,64.0
9638,74.0,0.0,180.0,1.0,64.0
9639,70.0,120.0,180.0,1.0,64.0
9640,46.0,0.0,180.0,6.0,64.0
9641,46.0,0.0,60.0,12.0,64.0
9642,65.0,0.0,180.0,5.0,64.0
9643,58.0,0.0,180.0,5.0,64.0
9644,58.0,120.0,60.0,11.0,64.0
9645,72.0,0.0,60.0,10.0,64.0
9646,48.0,0.0,60.0,12.0,64.0
9647,60.0,0.0,60.0,11.0,64.0
9648,50.0,0.0,60.0,12.0,64.0
9649,74.0,0.0,60.0,10.0,64.0
9650,62.0,120.0,60.0,11.0,64.0
9651,75.0,0.0,60.0,10.0,64.0
9652,63.0,0.0,60.0,11.0,64.0
9653,51.0,144.0,60.0,12.0,64.0
9654,77.0,0.0,120.0,10.0,64.0
9655,29.0,24.0,90.0,15.0,64.0
9656,65.0,72.0,120.0,11.0,64.0
9657,74.0,0.0,1860.0,0.0,64.0
9658,77.0,0.0,1860.0,0.0,64.0
9659,62.0,0.0,1860.0,4.0,64.0
9660,65.0,144.0,1860.0,4.0,64.0
9661,74.0,0.0,1860.0,1.0,64.0
9662,41.0,0.0,90.0,7.0,64.0
9663,53.0,0.0,120.0,12.0,64.0
9664,74.0,0.0,60.0,10.0,64.0
9665,62.0,0.0,60.0,11.0,64.0
9666,50.0,144.0,60.0,12.0,64.0
9667,46.0,96.0,90.0,7.0,64.0
9668,34.0,0.0,90.0,15.0,64.0
9669,82.0,120.0,60.0,10.0,64.0
9670,70.0,0.0,60.0,11.0,64.0
9671,58.0,0.0,60.0,12.0,64.0
9672,57.0,0.0,60.0,12.0,64.0
9673,50.0,0.0,90.0,7.0,64.0
9674,69.0,24.0,60.0,11.0,64.0
9675,38.0,96.0,90.0,15.0,64.0
9676,81.0,0.0,60.0,10.0,64.0
9677,58.0,120.0,60.0,12.0,64.0
9678,82.0,0.0,60.0,10.0,64.0
9679,70.0,0.0,60.0,11.0,64.0
9680,77.0,0.0,60.0,10.0,64.0
9681,65.0,120.0,60.0,11.0,64.0
9682,53.0,0.0,60.0,12.0,64.0
9683,74.0,0.0,60.0,10.0,64.0
9684,50.0,144.0,60.0,12.0,64.0
9685,62.0,0.0,60.0,11.0,64.0
9686,65.0,0.0,120.0,11.0,64.0
9687,53.0,0.0,120.0,12.0,64.0
9688,77.0,72.0,120.0,10.0,64.0
9689,53.0,0.0,90.0,7.0,64.0
9690,29.0,24.0,90.0,15.0,64.0
9691,62.0,0.0,60.0,11.0,64.0
9692,50.0,0.0,60.0,12.0,64.0
9693,74.0,144.0,60.0,10.0,64.0
9694,58.0,0.0,90.0,7.0,64.0
9695,34.0,96.0,90.0,15.0,64.0
9696,70.0,0.0,60.0,11.0,64.0
9697,58.0,0.0,60.0,12.0,64.0
9698,82.0,120.0,60.0,10.0,64.0
9699,69.0,0.0,60.0,11.0,64.0
9700,81.0,0.0,60.0,10.0,64.0
9701,38.0,96.0,90.0,15.0,64.0
9702,62.0,0.0,90.0,7.0,64.0
9703,57.0,24.0,60.0,12.0,64.0
9704,58.0,0.0,60.0,12.0,64.0
9705,70.0,120.0,60.0,11.0,64.0
9706,82.0,0.0,60.0,10.0,64.0
9707,65.0,0.0,60.0,11.0,64.0
9708,77.0,0.0,60.0,10.0,64.0
9709,53.0,120.0,60.0,12.0,64.0
9710,74.0,0.0,60.0,10.0,64.0
9711,50.0,0.0,60.0,12.0,64.0
9712,62.0,0.0,60.0,11.0,64.0
9713,65.0,0.0,120.0,11.0,64.0
9714,72.0,72.0,1860.0,0.0,64.0
9715,29.0,0.0,90.0,15.0,64.0
9716,72.0,0.0,1860.0,1.0,64.0
9717,75.0,0.0,1860.0,0.0,64.0
9718,53.0,24.0,90.0,7.0,64.0
9719,77.0,72.0,120.0,10.0,64.0
9720,63.0,0.0,1860.0,4.0,64.0
9721,53.0,0.0,120.0,12.0,64.0
9722,60.0,0.0,1860.0,4.0,64.0
9723,51.0,0.0,60.0,12.0,64.0
9724,75.0,0.0,60.0,10.0,64.0
9725,63.0,144.0,60.0,11.0,64.0
9726,33.0,0.0,90.0,15.0,64.0
9727,57.0,96.0,90.0,7.0,64.0
9728,84.0,0.0,60.0,10.0,64.0
9729,72.0,120.0,60.0,11.0,64.0
9730,60.0,0.0,60.0,12.0,64.0
9731,36.0,0.0,90.0,15.0,64.0
9732,60.0,96.0,90.0,7.0,64.0
9733,71.0,0.0,60.0,11.0,64.0
9734,59.0,0.0,60.0,12.0,64.0
9735,83.0,24.0,60.0,10.0,64.0
9736,60.0,120.0,60.0,12.0,64.0
9737,72.0,0.0,60.0,11.0,64.0
9738,84.0,0.0,60.0,10.0,64.0
9739,81.0,0.0,60.0,10.0,64.0
9740,57.0,120.0,60.0,12.0,64.0
9741,69.0,0.0,60.0,11.0,64.0
9742,77.0,144.0,60.0,10.0,64.0
9743,65.0,0.0,60.0,11.0,64.0
9744,53.0,0.0,60.0,12.0,64.0
9745,53.0,0.0,90.0,7.0,64.0
9746,53.0,0.0,120.0,12.0,64.0
9747,29.0,24.0,90.0,15.0,64.0
9748,77.0,0.0,120.0,10.0,64.0
9749,65.0,72.0,120.0,11.0,64.0
9750,75.0,0.0,60.0,10.0,64.0
9751,51.0,144.0,60.0,12.0,64.0
9752,63.0,0.0,60.0,11.0,64.0
9753,33.0,96.0,90.0,15.0,64.0
9754,57.0,0.0,90.0,7.0,64.0
9755,72.0,0.0,60.0,11.0,64.0
9756,60.0,0.0,60.0,12.0,64.0
9757,84.0,120.0,60.0,10.0,64.0
9758,59.0,24.0,60.0,12.0,64.0
9759,83.0,0.0,60.0,10.0,64.0
9760,36.0,0.0,90.0,15.0,64.0
9761,60.0,96.0,90.0,7.0,64.0
9762,71.0,0.0,60.0,11.0,64.0
9763,84.0,0.0,60.0,10.0,64.0
9764,72.0,0.0,60.0,11.0,64.0
9765,60.0,120.0,60.0,12.0,64.0
9766,57.0,0.0,60.0,12.0,64.0
9767,81.0,0.0,60.0,10.0,64.0
9768,69.0,120.0,60.0,11.0,64.0
9769,65.0,0.0,60.0,11.0,64.0
9770,77.0,0.0,60.0,10.0,64.0
9771,53.0,0.0,60.0,12.0,64.0
9772,65.0,0.0,1860.0,2.0,64.0
9773,61.0,0.0,1860.0,2.0,64.0
9774,65.0,0.0,120.0,11.0,64.0
9775,29.0,18.0,90.0,15.0,64.0
9776,70.0,0.0,180.0,0.0,64.0
9777,41.0,30.0,20.0,6.0,64.0
9778,50.0,0.0,1860.0,3.0,64.0
9779,53.0,0.0,1860.0,3.0,64.0
9780,70.0,12.0,180.0,1.0,64.0
9781,58.0,0.0,180.0,4.0,64.0
9782,53.0,0.0,120.0,12.0,64.0
9783,53.0,0.0,90.0,7.0,64.0
9784,77.0,24.0,120.0,10.0,64.0
9785,53.0,0.0,3780.0,5.0,64.0
9786,65.0,0.0,3780.0,5.0,64.0
9787,73.0,0.0,180.0,0.0,64.0
9788,41.0,30.0,20.0,6.0,64.0
9789,41.0,12.0,20.0,6.0,64.0
9790,41.0,6.0,20.0,6.0,64.0
9791,49.0,0.0,60.0,12.0,64.0
9792,73.0,0.0,60.0,10.0,64.0
9793,41.0,30.0,20.0,6.0,64.0
9794,61.0,0.0,60.0,11.0,64.0
9795,41.0,18.0,20.0,6.0,64.0
9796,41.0,30.0,20.0,6.0,64.0
9797,41.0,30.0,20.0,6.0,64.0
9798,41.0,30.0,20.0,6.0,64.0
9799,58.0,0.0,90.0,7.0,64.0
9800,34.0,18.0,90.0,15.0,64.0
9801,41.0,30.0,20.0,6.0,64.0
9802,41.0,12.0,20.0,6.0,64.0
9803,41.0,30.0,20.0,6.0,64.0
9804,58.0,0.0,60.0,12.0,64.0
9805,41.0,30.0,20.0,6.0,64.0
9806,70.0,0.0,60.0,11.0,64.0
9807,82.0,12.0,60.0,10.0,64.0
9808,41.0,18.0,20.0,6.0,64.0
9809,41.0,30.0,20.0,6.0,64.0
9810,41.0,30.0,20.0,6.0,64.0
9811,69.0,12.0,60.0,11.0,64.0
9812,41.0,30.0,20.0,6.0,64.0
9813,57.0,0.0,60.0,12.0,64.0
9814,81.0,0.0,60.0,10.0,64.0
9815,37.0,18.0,90.0,15.0,64.0
9816,61.0,0.0,90.0,7.0,64.0
9817,41.0,18.0,20.0,6.0,64.0
9818,41.0,12.0,20.0,6.0,64.0
9819,41.0,30.0,20.0,6.0,64.0
9820,82.0,12.0,60.0,10.0,64.0
9821,58.0,0.0,60.0,12.0,64.0
9822,70.0,0.0,60.0,11.0,64.0
9823,41.0,30.0,20.0,6.0,64.0
9824,41.0,18.0,20.0,6.0,64.0
9825,41.0,30.0,20.0,6.0,64.0
9826,41.0,30.0,20.0,6.0,64.0
9827,65.0,12.0,60.0,11.0,64.0
9828,53.0,0.0,60.0,12.0,64.0
9829,77.0,0.0,60.0,10.0,64.0
9830,41.0,30.0,20.0,6.0,64.0
9831,41.0,18.0,20.0,6.0,64.0
9832,41.0,30.0,20.0,6.0,64.0
9833,41.0,30.0,20.0,6.0,64.0
9834,61.0,0.0,60.0,11.0,64.0
9835,49.0,0.0,60.0,12.0,64.0
9836,73.0,12.0,60.0,10.0,64.0
9837,41.0,30.0,20.0,6.0,64.0
9838,41.0,18.0,20.0,6.0,64.0
9839,41.0,30.0,20.0,6.0,64.0
9840,41.0,30.0,20.0,6.0,64.0
9841,41.0,30.0,20.0,6.0,64.0
9842,29.0,0.0,90.0,15.0,64.0
9843,53.0,0.0,120.0,12.0,64.0
9844,53.0,18.0,90.0,7.0,64.0
9845,65.0,0.0,120.0,11.0,64.0
9846,77.0,24.0,120.0,10.0,64.0
9847,41.0,30.0,20.0,6.0,64.0
9848,41.0,12.0,20.0,6.0,64.0
9849,41.0,6.0,20.0,6.0,64.0
9850,49.0,0.0,60.0,12.0,64.0
9851,61.0,12.0,60.0,11.0,64.0
9852,41.0,30.0,20.0,6.0,64.0
9853,73.0,0.0,60.0,10.0,64.0
9854,41.0,18.0,20.0,6.0,64.0
9855,41.0,30.0,20.0,6.0,64.0
9856,41.0,30.0,20.0,6.0,64.0
9857,41.0,30.0,20.0,6.0,64.0
9858,34.0,18.0,90.0,15.0,64.0
9859,58.0,0.0,90.0,7.0,64.0
9860,41.0,30.0,20.0,6.0,64.0
9861,41.0,12.0,20.0,6.0,64.0
9862,41.0,30.0,20.0,6.0,64.0
9863,41.0,30.0,20.0,6.0,64.0
9864,70.0,0.0,60.0,11.0,64.0
9865,58.0,0.0,60.0,12.0,64.0
9866,82.0,12.0,60.0,10.0,64.0
9867,41.0,18.0,20.0,6.0,64.0
9868,41.0,30.0,20.0,6.0,64.0
9869,41.0,30.0,20.0,6.0,64.0
9870,69.0,12.0,60.0,11.0,64.0
9871,41.0,30.0,20.0,6.0,64.0
9872,81.0,0.0,60.0,10.0,64.0
9873,37.0,18.0,90.0,15.0,64.0
9874,61.0,0.0,90.0,7.0,64.0
9875,57.0,0.0,60.0,12.0,64.0
9876,41.0,18.0,20.0,6.0,64.0
9877,41.0,12.0,20.0,6.0,64.0
9878,41.0,30.0,20.0,6.0,64.0
9879,70.0,0.0,60.0,11.0,64.0
9880,41.0,30.0,20.0,6.0,64.0
9881,58.0,12.0,60.0,12.0,64.0
9882,82.0,0.0,60.0,10.0,64.0
9883,41.0,18.0,20.0,6.0,64.0
9884,41.0,30.0,20.0,6.0,64.0
9885,41.0,30.0,20.0,6.0,64.0
9886,77.0,0.0,60.0,10.0,64.0
9887,65.0,0.0,60.0,11.0,64.0
9888,53.0,12.0,60.0,12.0,64.0
9889,41.0,30.0,20.0,6.0,64.0
9890,41.0,18.0,20.0,6.0,64.0
9891,41.0,30.0,20.0,6.0,64.0
9892,41.0,30.0,20.0,6.0,64.0
9893,41.0,30.0,20.0,6.0,64.0
9894,73.0,0.0,60.0,10.0,64.0
9895,61.0,0.0,60.0,11.0,64.0
9896,49.0,12.0,60.0,12.0,64.0
9897,41.0,18.0,20.0,6.0,64.0
9898,41.0,30.0,20.0,6.0,64.0
9899,41.0,30.0,20.0,6.0,64.0
9900,65.0,0.0,120.0,11.0,64.0
9901,60.0,0.0,1860.0,2.0,64.0
9902,63.0,0.0,1860.0,2.0,64.0
9903,53.0,0.0,90.0,7.0,64.0
9904,77.0,24.0,120.0,10.0,64.0
9905,53.0,0.0,120.0,12.0,64.0
9906,48.0,0.0,1860.0,3.0,64.0
9907,41.0,30.0,20.0,6.0,64.0
9908,51.0,0.0,1860.0,3.0,64.0
9909,29.0,18.0,90.0,15.0,64.0
9910,41.0,30.0,20.0,6.0,64.0
9911,41.0,12.0,20.0,6.0,64.0
9912,41.0,6.0,20.0,6.0,64.0
9913,63.0,12.0,60.0,11.0,64.0
9914,75.0,0.0,60.0,10.0,64.0
9915,51.0,0.0,60.0,12.0,64.0
9916,41.0,30.0,20.0,6.0,64.0
9917,41.0,18.0,20.0,6.0,64.0
9918,41.0,30.0,20.0,6.0,64.0
9919,41.0,30.0,20.0,6.0,64.0
9920,41.0,30.0,20.0,6.0,64.0
9921,57.0,18.0,90.0,7.0,64.0
9922,33.0,0.0,90.0,15.0,64.0
9923,41.0,30.0,20.0,6.0,64.0
9924,41.0,12.0,20.0,6.0,64.0
9925,41.0,30.0,20.0,6.0,64.0
9926,41.0,30.0,20.0,6.0,64.0
9927,84.0,0.0,60.0,10.0,64.0
9928,60.0,12.0,60.0,12.0,64.0
9929,72.0,0.0,60.0,11.0,64.0
9930,41.0,18.0,20.0,6.0,64.0
9931,41.0,30.0,20.0,6.0,64.0
9932,41.0,30.0,20.0,6.0,64.0
9933,41.0,30.0,20.0,6.0,64.0
9934,60.0,0.0,90.0,7.0,64.0
9935,71.0,0.0,60.0,11.0,64.0
9936,83.0,0.0,60.0,10.0,64.0
9937,59.0,12.0,60.0,12.0,64.0
9938,36.0,18.0,90.0,15.0,64.0
9939,41.0,18.0,20.0,6.0,64.0
9940,41.0,12.0,20.0,6.0,64.0
9941,41.0,30.0,20.0,6.0,64.0
9942,41.0,30.0,20.0,6.0,64.0
9943,60.0,0.0,60.0,12.0,64.0
9944,72.0,0.0,60.0,11.0,64.0
9945,84.0,12.0,60.0,10.0,64.0
9946,41.0,18.0,20.0,6.0,64.0
9947,41.0,30.0,20.0,6.0,64.0
9948,41.0,30.0,20.0,6.0,64.0
9949,69.0,0.0,60.0,11.0,64.0
9950,81.0,0.0,60.0,10.0,64.0
9951,57.0,12.0,60.0,12.0,64.0
9952,41.0,30.0,20.0,6.0,64.0
9953,41.0,18.0,20.0,6.0,64.0
9954,41.0,30.0,20.0,6.0,64.0
9955,41.0,30.0,20.0,6.0,64.0
9956,65.0,12.0,60.0,11.0,64.0
9957,53.0,0.0,60.0,12.0,64.0
9958,77.0,0.0,60.0,10.0,64.0
9959,41.0,30.0,20.0,6.0,64.0
9960,41.0,18.0,20.0,6.0,64.0
9961,41.0,30.0,20.0,6.0,64.0
9962,41.0,30.0,20.0,6.0,64.0
9963,29.0,0.0,90.0,15.0,64.0
9964,53.0,0.0,120.0,12.0,64.0
9965,41.0,30.0,20.0,6.0,64.0
9966,53.0,18.0,90.0,7.0,64.0
9967,65.0,0.0,120.0,11.0,64.0
9968,77.0,24.0,120.0,10.0,64.0
9969,41.0,30.0,20.0,6.0,64.0
9970,41.0,12.0,20.0,6.0,64.0
9971,41.0,6.0,20.0,6.0,64.0
9972,63.0,0.0,60.0,11.0,64.0
9973,51.0,0.0,60.0,12.0,64.0
9974,75.0,12.0,60.0,10.0,64.0
9975,41.0,30.0,20.0,6.0,64.0
9976,41.0,18.0,20.0,6.0,64.0
9977,41.0,30.0,20.0,6.0,64.0
9978,41.0,30.0,20.0,6.0,64.0
9979,41.0,30.0,20.0,6.0,64.0
9980,57.0,0.0,90.0,7.0,64.0
9981,33.0,18.0,90.0,15.0,64.0
9982,41.0,30.0,20.0,6.0,64.0
9983,41.0,12.0,20.0,6.0,64.0
9984,41.0,30.0,20.0,6.0,64.0
9985,84.0,0.0,60.0,10.0,64.0
9986,41.0,30.0,20.0,6.0,64.0
9987,72.0,12.0,60.0,11.0,64.0
9988,60.0,0.0,60.0,12.0,64.0
9989,41.0,18.0,20.0,6.0,64.0
9990,41.0,30.0,20.0,6.0,64.0
9991,41.0,30.0,20.0,6.0,64.0
9992,71.0,12.0,60.0,11.0,64.0
9993,83.0,0.0,60.0,10.0,64.0
9994,60.0,0.0,90.0,7.0,64.0
9995,36.0,18.0,90.0,15.0,64.0
9996,41.0,30.0,20.0,6.0,64.0
9997,59.0,0.0,60.0,12.0,64.0
9998,41.0,18.0,20.0,6.0,64.0
9999,41.0,12.0,20.0,6.0,64.0
10000,41.0,30.0,20.0,6.0,64.0
10001,72.0,0.0,60.0,11.0,64.0
10002,84.0,0.0,60.0,10.0,64.0
10003,60.0,12.0,60.0,12.0,64.0
10004,41.0,30.0,20.0,6.0,64.0
10005,41.0,18.0,20.0,6.0,64.0
10006,41.0,30.0,20.0,6.0,64.0
10007,41.0,30.0,20.0,6.0,64.0
10008,41.0,30.0,20.0,6.0,64.0
10009,69.0,0.0,60.0,11.0,64.0
10010,81.0,0.0,60.0,10.0,64.0
10011,57.0,12.0,60.0,12.0,64.0
10012,41.0,18.0,20.0,6.0,64.0
10013,41.0,30.0,20.0,6.0,64.0
10014,41.0,30.0,20.0,6.0,64.0
10015,77.0,0.0,60.0,10.0,64.0
10016,65.0,0.0,60.0,11.0,64.0
10017,41.0,30.0,20.0,6.0,64.0
10018,53.0,12.0,60.0,12.0,64.0
10019,41.0,18.0,20.0,6.0,64.0
10020,41.0,30.0,20.0,6.0,64.0
10021,41.0,54.0,20.0,6.0,64.0
10022,70.0,0.0,60.0,11.0,64.0
10023,50.0,0.0,180.0,3.0,64.0
10024,82.0,0.0,60.0,10.0,64.0
10025,58.0,36.0,420.0,2.0,64.0
10026,62.0,48.0,240.0,2.0,64.0
10027,77.0,0.0,60.0,11.0,64.0
10028,70.0,0.0,390.0,0.0,64.0
10029,74.0,60.0,60.0,10.0,64.0
10030,53.0,24.0,390.0,4.0,64.0
10031,50.0,0.0,390.0,4.0,64.0
10032,46.0,0.0,180.0,6.0,64.0
10033,58.0,0.0,390.0,1.0,64.0
10034,58.0,36.0,180.0,12.0,64.0
10035,46.0,0.0,180.0,3.0,64.0
10036,74.0,0.0,60.0,10.0,64.0
10037,70.0,60.0,60.0,11.0,64.0
10038,82.0,0.0,60.0,10.0,64.0
10039,77.0,0.0,60.0,11.0,64.0
10040,70.0,0.0,60.0,11.0,64.0
10041,77.0,0.0,60.0,11.0,64.0
10042,82.0,0.0,60.0,10.0,64.0
10043,74.0,24.0,60.0,10.0,64.0
10044,74.0,0.0,60.0,10.0,64.0
10045,77.0,0.0,60.0,11.0,64.0
10046,70.0,12.0,60.0,11.0,64.0
10047,82.0,0.0,60.0,10.0,64.0
10048,70.0,0.0,60.0,11.0,64.0
10049,82.0,0.0,60.0,10.0,64.0
10050,74.0,0.0,60.0,10.0,64.0
10051,77.0,60.0,60.0,11.0,64.0
10052,77.0,0.0,60.0,11.0,64.0
10053,70.0,36.0,60.0,11.0,64.0
10054,82.0,0.0,60.0,10.0,64.0
10055,74.0,0.0,60.0,10.0,64.0
10056,70.0,0.0,60.0,11.0,64.0
10057,77.0,0.0,60.0,11.0,64.0
10058,82.0,0.0,60.0,10.0,64.0
10059,74.0,24.0,60.0,10.0,64.0
10060,77.0,0.0,60.0,11.0,64.0
10061,70.0,0.0,60.0,11.0,64.0
10062,74.0,0.0,60.0,10.0,64.0
10063,82.0,60.0,60.0,10.0,64.0
10064,58.0,0.0,180.0,2.0,64.0
10065,77.0,0.0,60.0,11.0,64.0
10066,70.0,12.0,150.0,0.0,64.0
10067,70.0,60.0,60.0,11.0,64.0
10068,58.0,36.0,180.0,1.0,64.0
10069,50.0,0.0,150.0,4.0,64.0
10070,53.0,0.0,150.0,4.0,64.0
10071,74.0,0.0,60.0,10.0,64.0
10072,82.0,0.0,60.0,10.0,64.0
10073,82.0,48.0,60.0,10.0,64.0
10074,74.0,0.0,60.0,10.0,64.0
10075,77.0,0.0,60.0,11.0,64.0
10076,70.0,0.0,60.0,11.0,64.0
10077,82.0,0.0,60.0,10.0,64.0
10078,77.0,24.0,60.0,11.0,64.0
10079,70.0,0.0,60.0,11.0,64.0
10080,74.0,0.0,60.0,10.0,64.0
10081,74.0,0.0,60.0,10.0,64.0
10082,82.0,0.0,60.0,10.0,64.0
10083,77.0,60.0,60.0,11.0,64.0
10084,70.0,0.0,60.0,11.0,64.0
10085,82.0,0.0,60.0,10.0,64.0
10086,70.0,12.0,150.0,0.0,64.0
10087,50.0,0.0,150.0,4.0,64.0
10088,53.0,0.0,150.0,4.0,64.0
10089,58.0,0.0,180.0,1.0,64.0
10090,74.0,0.0,60.0,10.0,64.0
10091,77.0,60.0,60.0,11.0,64.0
10092,70.0,0.0,60.0,11.0,64.0
10093,58.0,36.0,180.0,2.0,64.0
10094,82.0,48.0,60.0,10.0,64.0
10095,77.0,0.0,60.0,11.0,64.0
10096,74.0,0.0,60.0,10.0,64.0
10097,70.0,0.0,60.0,11.0,64.0
10098,82.0,24.0,60.0,10.0,64.0
10099,74.0,0.0,60.0,10.0,64.0
10100,70.0,0.0,60.0,11.0,64.0
10101,77.0,0.0,60.0,11.0,64.0
10102,74.0,60.0,60.0,10.0,64.0
10103,70.0,0.0,60.0,11.0,64.0
10104,82.0,0.0,60.0,10.0,64.0
10105,77.0,0.0,60.0,11.0,64.0
10106,70.0,0.0,390.0,5.0,64.0
10107,46.0,0.0,390.0,3.0,64.0
10108,77.0,48.0,60.0,11.0,64.0
10109,70.0,0.0,60.0,11.0,64.0
10110,58.0,12.0,90.0,1.0,64.0
10111,58.0,24.0,390.0,5.0,64.0
10112,34.0,0.0,390.0,14.0,64.0
10113,58.0,0.0,90.0,2.0,64.0
10114,53.0,0.0,780.0,4.0,64.0
10115,46.0,0.0,390.0,6.0,64.0
10116,46.0,0.0,390.0,12.0,64.0
10117,50.0,0.0,780.0,4.0,64.0
10118,70.0,0.0,780.0,0.0,64.0
10119,46.0,0.0,390.0,13.0,64.0
10120,74.0,0.0,60.0,10.0,64.0
10121,82.0,0.0,60.0,10.0,64.0
10122,70.0,0.0,60.0,11.0,64.0
10123,82.0,0.0,60.0,10.0,64.0
10124,74.0,60.0,60.0,10.0,64.0
10125,77.0,0.0,60.0,11.0,64.0
10126,70.0,0.0,60.0,11.0,64.0
10127,60.0,0.0,60.0,1.0,64.0
10128,82.0,0.0,60.0,10.0,64.0
10129,74.0,0.0,60.0,10.0,64.0
10130,77.0,60.0,60.0,11.0,64.0
10131,60.0,0.0,60.0,2.0,64.0
10132,70.0,0.0,60.0,11.0,64.0
10133,62.0,0.0,60.0,1.0,64.0
10134,62.0,60.0,60.0,2.0,64.0
10135,74.0,0.0,60.0,10.0,64.0
10136,82.0,0.0,60.0,10.0,64.0
10137,77.0,0.0,60.0,11.0,64.0
10138,70.0,0.0,60.0,11.0,64.0
10139,77.0,60.0,60.0,11.0,64.0
10140,63.0,0.0,60.0,1.0,64.0
10141,74.0,0.0,60.0,10.0,64.0
10142,82.0,0.0,60.0,10.0,64.0
10143,63.0,0.0,60.0,2.0,64.0
10144,65.0,0.0,60.0,2.0,64.0
10145,74.0,0.0,60.0,10.0,64.0
10146,82.0,0.0,60.0,10.0,64.0
10147,65.0,0.0,60.0,1.0,64.0
10148,70.0,0.0,60.0,11.0,64.0
10149,77.0,36.0,60.0,11.0,64.0
10150,67.0,0.0,60.0,2.0,64.0
10151,70.0,0.0,60.0,11.0,64.0
10152,77.0,60.0,60.0,11.0,64.0
10153,67.0,0.0,60.0,1.0,64.0
10154,82.0,0.0,60.0,10.0,64.0
10155,74.0,0.0,60.0,10.0,64.0
10156,69.0,60.0,60.0,1.0,64.0
10157,70.0,0.0,60.0,11.0,64.0
10158,77.0,0.0,60.0,11.0,64.0
10159,82.0,0.0,60.0,10.0,64.0
10160,74.0,0.0,60.0,10.0,64.0
10161,69.0,0.0,60.0,2.0,64.0
10162,77.0,0.0,60.0,11.0,64.0
10163,70.0,0.0,60.0,11.0,64.0
10164,82.0,60.0,60.0,10.0,64.0
10165,74.0,0.0,60.0,10.0,64.0
10166,46.0,0.0,150.0,13.0,64.0
10167,70.0,0.0,180.0,1.0,64.0
10168,46.0,0.0,150.0,12.0,64.0
10169,58.0,0.0,150.0,5.0,64.0
10170,70.0,0.0,150.0,5.0,64.0
10171,70.0,0.0,180.0,2.0,64.0
10172,46.0,36.0,180.0,6.0,64.0
10173,34.0,0.0,150.0,14.0,64.0
10174,46.0,12.0,150.0,3.0,64.0
10175,77.0,0.0,60.0,11.0,64.0
10176,74.0,0.0,60.0,10.0,64.0
10177,70.0,48.0,60.0,11.0,64.0
10178,82.0,0.0,60.0,10.0,64.0
10179,74.0,0.0,60.0,10.0,64.0
10180,82.0,0.0,60.0,10.0,64.0
10181,70.0,0.0,60.0,11.0,64.0
10182,77.0,24.0,60.0,11.0,64.0
10183,82.0,0.0,60.0,10.0,64.0
10184,74.0,60.0,60.0,10.0,64.0
10185,77.0,0.0,60.0,11.0,64.0
10186,70.0,0.0,60.0,11.0,64.0
10187,46.0,0.0,150.0,12.0,64.0
10188,46.0,36.0,180.0,6.0,64.0
10189,46.0,0.0,150.0,3.0,64.0
10190,77.0,60.0,60.0,11.0,64.0
10191,58.0,0.0,150.0,5.0,64.0
10192,70.0,0.0,150.0,5.0,64.0
10193,82.0,0.0,60.0,10.0,64.0
10194,34.0,12.0,150.0,14.0,64.0
10195,46.0,0.0,150.0,13.0,64.0
10196,74.0,0.0,60.0,10.0,64.0
10197,70.0,0.0,60.0,11.0,64.0
10198,74.0,0.0,60.0,10.0,64.0
10199,82.0,0.0,60.0,10.0,64.0
10200,70.0,0.0,60.0,11.0,64.0
10201,77.0,48.0,60.0,11.0,64.0
10202,82.0,0.0,60.0,10.0,64.0
10203,74.0,24.0,60.0,10.0,64.0
10204,70.0,0.0,60.0,11.0,64.0
10205,77.0,0.0,60.0,11.0,64.0
10206,70.0,0.0,60.0,11.0,64.0
10207,74.0,0.0,60.0,10.0,64.0
10208,82.0,60.0,60.0,10.0,64.0
10209,77.0,0.0,60.0,11.0,64.0
10210,74.0,0.0,390.0,0.0,64.0
10211,62.0,24.0,390.0,1.0,64.0
10212,34.0,12.0,90.0,14.0,64.0
10213,46.0,36.0,180.0,6.0,64.0
10214,46.0,0.0,90.0,3.0,64.0
10215,62.0,0.0,390.0,2.0,64.0
10216,74.0,0.0,60.0,10.0,64.0
10217,77.0,0.0,60.0,11.0,64.0
10218,82.0,48.0,60.0,10.0,64.0
10219,46.0,0.0,90.0,12.0,64.0
10220,70.0,0.0,60.0,11.0,64.0
10221,58.0,0.0,390.0,4.0,64.0
10222,53.0,0.0,390.0,4.0,64.0
10223,58.0,0.0,150.0,5.0,64.0
10224,46.0,0.0,90.0,13.0,64.0
10225,70.0,12.0,150.0,5.0,64.0
10226,77.0,0.0,60.0,11.0,64.0
10227,82.0,0.0,60.0,10.0,64.0
10228,70.0,48.0,60.0,11.0,64.0
10229,74.0,0.0,60.0,10.0,64.0
10230,74.0,0.0,60.0,10.0,64.0
10231,77.0,0.0,60.0,11.0,64.0
10232,70.0,0.0,60.0,11.0,64.0
10233,48.0,0.0,60.0,3.0,64.0
10234,36.0,24.0,60.0,14.0,64.0
10235,82.0,0.0,60.0,10.0,64.0
10236,48.0,0.0,60.0,13.0,64.0
10237,48.0,0.0,60.0,12.0,64.0
10238,50.0,0.0,60.0,3.0,64.0
10239,77.0,60.0,60.0,11.0,64.0
10240,50.0,0.0,60.0,13.0,64.0
10241,38.0,0.0,60.0,14.0,64.0
10242,74.0,0.0,60.0,10.0,64.0
10243,50.0,0.0,60.0,12.0,64.0
10244,70.0,0.0,60.0,11.0,64.0
10245,82.0,0.0,60.0,10.0,64.0
10246,70.0,0.0,60.0,11.0,64.0
10247,51.0,0.0,60.0,3.0,64.0
10248,51.0,0.0,60.0,13.0,64.0
10249,39.0,60.0,60.0,14.0,64.0
10250,82.0,0.0,60.0,10.0,64.0
10251,74.0,0.0,60.0,10.0,64.0
10252,51.0,0.0,60.0,12.0,64.0
10253,77.0,0.0,60.0,11.0,64.0
10254,53.0,0.0,60.0,12.0,64.0
10255,41.0,36.0,60.0,14.0,64.0
10256,53.0,0.0,60.0,13.0,64.0
10257,82.0,0.0,60.0,10.0,64.0
10258,70.0,0.0,60.0,11.0,64.0
10259,77.0,0.0,60.0,11.0,64.0
10260,53.0,0.0,60.0,3.0,64.0
10261,74.0,0.0,60.0,10.0,64.0
10262,70.0,0.0,60.0,11.0,64.0
10263,77.0,0.0,60.0,11.0,64.0
10264,55.0,0.0,60.0,3.0,64.0
10265,82.0,0.0,60.0,10.0,64.0
10266,55.0,0.0,60.0,12.0,64.0
10267,55.0,0.0,60.0,13.0,64.0
10268,74.0,60.0,60.0,10.0,64.0
10269,43.0,0.0,60.0,14.0,64.0
10270,57.0,0.0,60.0,12.0,64.0
10271,57.0,0.0,60.0,13.0,64.0
10272,45.0,0.0,60.0,14.0,64.0
10273,70.0,0.0,60.0,11.0,64.0
10274,82.0,60.0,60.0,10.0,64.0
10275,77.0,0.0,60.0,11.0,64.0
10276,57.0,0.0,60.0,3.0,64.0
10277,74.0,0.0,60.0,10.0,64.0
10278,53.0,0.0,150.0,4.0,64.0
10279,58.0,12.0,150.0,4.0,64.0
10280,74.0,0.0,150.0,0.0,64.0
10281,58.0,0.0,180.0,12.0,64.0
10282,58.0,0.0,180.0,13.0,64.0
10283,74.0,60.0,60.0,10.0,64.0
10284,58.0,0.0,180.0,3.0,64.0
10285,62.0,0.0,180.0,2.0,64.0
10286,62.0,36.0,180.0,1.0,64.0
10287,46.0,0.0,180.0,14.0,64.0
10288,77.0,0.0,60.0,11.0,64.0
10289,70.0,0.0,60.0,11.0,64.0
10290,82.0,0.0,60.0,10.0,64.0
10291,77.0,48.0,60.0,11.0,64.0
10292,70.0,0.0,60.0,11.0,64.0
10293,74.0,0.0,60.0,10.0,64.0
10294,82.0,0.0,60.0,10.0,64.0
10295,70.0,0.0,60.0,11.0,64.0
10296,77.0,0.0,60.0,11.0,64.0
10297,74.0,24.0,60.0,10.0,64.0
10298,82.0,0.0,60.0,10.0,64.0
10299,77.0,0.0,60.0,11.0,64.0
10300,82.0,60.0,60.0,10.0,64.0
10301,70.0,0.0,60.0,11.0,64.0
10302,74.0,0.0,60.0,10.0,64.0
10303,62.0,36.0,180.0,1.0,64.0
10304,58.0,12.0,150.0,4.0,64.0
10305,70.0,60.0,60.0,11.0,64.0
10306,77.0,0.0,60.0,11.0,64.0
10307,74.0,0.0,150.0,0.0,64.0
10308,74.0,0.0,60.0,10.0,64.0
10309,82.0,0.0,60.0,10.0,64.0
10310,62.0,0.0,180.0,2.0,64.0
10311,53.0,0.0,150.0,4.0,64.0
10312,74.0,0.0,60.0,10.0,64.0
10313,70.0,48.0,60.0,11.0,64.0
10314,77.0,0.0,60.0,11.0,64.0
10315,82.0,0.0,60.0,10.0,64.0
10316,70.0,0.0,60.0,11.0,64.0
10317,82.0,0.0,60.0,10.0,64.0
10318,74.0,0.0,60.0,10.0,64.0
10319,77.0,24.0,60.0,11.0,64.0
10320,77.0,0.0,60.0,11.0,64.0
10321,70.0,0.0,60.0,11.0,64.0
10322,74.0,0.0,60.0,10.0,64.0
10323,82.0,60.0,60.0,10.0,64.0
10324,50.0,0.0,390.0,13.0,64.0
10325,74.0,0.0,780.0,0.0,64.0
10326,62.0,12.0,90.0,2.0,64.0
10327,74.0,0.0,60.0,10.0,64.0
10328,82.0,48.0,60.0,10.0,64.0
10329,62.0,0.0,90.0,1.0,64.0
10330,50.0,24.0,390.0,3.0,64.0
10331,70.0,0.0,390.0,5.0,64.0
10332,58.0,0.0,390.0,5.0,64.0
10333,38.0,0.0,390.0,14.0,64.0
10334,58.0,0.0,780.0,4.0,64.0
10335,46.0,0.0,390.0,6.0,64.0
10336,50.0,0.0,390.0,12.0,64.0
10337,70.0,0.0,60.0,11.0,64.0
10338,53.0,0.0,780.0,4.0,64.0
10339,77.0,0.0,60.0,11.0,64.0
10340,70.0,0.0,60.0,11.0,64.0
10341,74.0,0.0,60.0,10.0,64.0
10342,77.0,60.0,60.0,11.0,64.0
10343,82.0,0.0,60.0,10.0,64.0
10344,74.0,0.0,60.0,10.0,64.0
10345,82.0,0.0,60.0,10.0,64.0
10346,63.0,0.0,60.0,1.0,64.0
10347,63.0,0.0,60.0,2.0,64.0
10348,70.0,0.0,60.0,11.0,64.0
10349,77.0,60.0,60.0,11.0,64.0
10350,65.0,0.0,60.0,1.0,64.0
10351,65.0,0.0,60.0,2.0,64.0
10352,82.0,0.0,60.0,10.0,64.0
10353,74.0,0.0,60.0,10.0,64.0
10354,77.0,0.0,60.0,11.0,64.0
10355,70.0,60.0,60.0,11.0,64.0
10356,67.0,0.0,60.0,1.0,64.0
10357,67.0,0.0,60.0,2.0,64.0
10358,70.0,60.0,60.0,11.0,64.0
10359,82.0,0.0,60.0,10.0,64.0
10360,77.0,0.0,60.0,11.0,64.0
10361,74.0,0.0,60.0,10.0,64.0
10362,69.0,0.0,60.0,2.0,64.0
10363,69.0,0.0,60.0,1.0,64.0
10364,70.0,0.0,60.0,11.0,64.0
10365,74.0,36.0,60.0,10.0,64.0
10366,77.0,0.0,60.0,11.0,64.0
10367,82.0,0.0,60.0,10.0,64.0
10368,70.0,0.0,60.0,1.0,64.0
10369,82.0,0.0,60.0,10.0,64.0
10370,77.0,0.0,60.0,11.0,64.0
10371,74.0,0.0,60.0,10.0,64.0
10372,70.0,60.0,60.0,2.0,64.0
10373,70.0,0.0,60.0,11.0,64.0
10374,72.0,0.0,60.0,1.0,64.0
10375,72.0,0.0,60.0,2.0,64.0
10376,74.0,60.0,60.0,10.0,64.0
10377,77.0,0.0,60.0,11.0,64.0
10378,82.0,0.0,60.0,10.0,64.0
10379,70.0,0.0,60.0,11.0,64.0
10380,70.0,0.0,150.0,5.0,64.0
10381,58.0,12.0,150.0,5.0,64.0
10382,77.0,0.0,60.0,11.0,64.0
10383,70.0,60.0,60.0,11.0,64.0
10384,38.0,0.0,150.0,14.0,64.0
10385,50.0,0.0,150.0,13.0,64.0
10386,50.0,0.0,150.0,3.0,64.0
10387,46.0,0.0,180.0,6.0,64.0
10388,50.0,0.0,150.0,12.0,64.0
10389,74.0,0.0,60.0,10.0,64.0
10390,74.0,36.0,180.0,2.0,64.0
10391,82.0,0.0,60.0,10.0,64.0
10392,74.0,0.0,180.0,1.0,64.0
10393,74.0,48.0,60.0,10.0,64.0
10394,82.0,0.0,60.0,10.0,64.0
10395,70.0,0.0,60.0,11.0,64.0
10396,77.0,0.0,60.0,11.0,64.0
10397,70.0,0.0,60.0,11.0,64.0
10398,82.0,24.0,60.0,10.0,64.0
10399,74.0,0.0,60.0,10.0,64.0
10400,77.0,0.0,60.0,11.0,64.0
10401,74.0,0.0,60.0,10.0,64.0
10402,70.0,0.0,60.0,11.0,64.0
10403,77.0,0.0,60.0,11.0,64.0
10404,82.0,60.0,60.0,10.0,64.0
10405,38.0,12.0,150.0,14.0,64.0
10406,46.0,36.0,180.0,6.0,64.0
10407,50.0,0.0,150.0,13.0,64.0
10408,58.0,0.0,150.0,5.0,64.0
10409,50.0,0.0,150.0,3.0,64.0
10410,82.0,60.0,60.0,10.0,64.0
10411,70.0,0.0,150.0,5.0,64.0
10412,70.0,0.0,60.0,11.0,64.0
10413,77.0,0.0,60.0,11.0,64.0
10414,74.0,0.0,60.0,10.0,64.0
10415,50.0,0.0,150.0,12.0,64.0
10416,77.0,48.0,60.0,11.0,64.0
10417,70.0,0.0,60.0,11.0,64.0
10418,82.0,0.0,60.0,10.0,64.0
10419,74.0,0.0,60.0,10.0,64.0
10420,77.0,0.0,60.0,11.0,64.0
10421,70.0,24.0,60.0,11.0,64.0
10422,74.0,0.0,60.0,10.0,64.0
10423,82.0,0.0,60.0,10.0,64.0
10424,70.0,0.0,60.0,11.0,64.0
10425,74.0,0.0,60.0,10.0,64.0
10426,82.0,0.0,60.0,10.0,64.0
10427,77.0,60.0,60.0,11.0,64.0
10428,70.0,48.0,60.0,11.0,64.0
10429,50.0,0.0,90.0,3.0,64.0
10430,50.0,0.0,90.0,13.0,64.0
10431,50.0,0.0,90.0,12.0,64.0
10432,65.0,0.0,390.0,2.0,64.0
10433,77.0,0.0,60.0,11.0,64.0
10434,58.0,0.0,390.0,4.0,64.0
10435,62.0,0.0,390.0,4.0,64.0
10436,77.0,24.0,390.0,0.0,64.0
10437,38.0,12.0,90.0,14.0,64.0
10438,58.0,12.0,150.0,5.0,64.0
10439,70.0,0.0,150.0,5.0,64.0
10440,65.0,0.0,390.0,1.0,64.0
10441,82.0,0.0,60.0,10.0,64.0
10442,74.0,0.0,60.0,10.0,64.0
10443,46.0,36.0,180.0,6.0,64.0
10444,70.0,0.0,60.0,11.0,64.0
10445,77.0,48.0,60.0,11.0,64.0
10446,74.0,0.0,60.0,10.0,64.0
10447,82.0,0.0,60.0,10.0,64.0
10448,74.0,0.0,60.0,10.0,64.0
10449,82.0,24.0,60.0,10.0,64.0
10450,77.0,0.0,60.0,11.0,64.0
10451,70.0,0.0,60.0,11.0,64.0
10452,51.0,0.0,60.0,12.0,64.0
10453,51.0,0.0,60.0,3.0,64.0
10454,51.0,0.0,60.0,13.0,64.0
10455,39.0,0.0,60.0,14.0,64.0
10456,41.0,0.0,60.0,14.0,64.0
10457,53.0,0.0,60.0,13.0,64.0
10458,53.0,0.0,60.0,3.0,64.0
10459,77.0,0.0,60.0,11.0,64.0
10460,74.0,0.0,60.0,10.0,64.0
10461,82.0,0.0,60.0,10.0,64.0
10462,53.0,60.0,60.0,12.0,64.0
10463,70.0,0.0,60.0,11.0,64.0
10464,43.0,0.0,60.0,14.0,64.0
10465,55.0,60.0,60.0,12.0,64.0
10466,74.0,0.0,60.0,10.0,64.0
10467,55.0,0.0,60.0,3.0,64.0
10468,70.0,0.0,60.0,11.0,64.0
10469,82.0,0.0,60.0,10.0,64.0
10470,77.0,0.0,60.0,11.0,64.0
10471,55.0,0.0,60.0,13.0,64.0
10472,45.0,0.0,60.0,14.0,64.0
10473,70.0,36.0,60.0,11.0,64.0
10474,77.0,0.0,60.0,11.0,64.0
10475,57.0,0.0,60.0,3.0,64.0
10476,57.0,0.0,60.0,12.0,64.0
10477,57.0,0.0,60.0,13.0,64.0
10478,82.0,0.0,60.0,10.0,64.0
10479,74.0,0.0,60.0,10.0,64.0
10480,82.0,0.0,60.0,10.0,64.0
10481,74.0,0.0,60.0,10.0,64.0
10482,46.0,60.0,60.0,14.0,64.0
10483,70.0,0.0,60.0,11.0,64.0
10484,77.0,0.0,60.0,11.0,64.0
10485,58.0,0.0,60.0,3.0,64.0
10486,58.0,0.0,60.0,13.0,64.0
10487,58.0,0.0,60.0,12.0,64.0
10488,60.0,60.0,60.0,12.0,64.0
10489,70.0,0.0,60.0,11.0,64.0
10490,77.0,0.0,60.0,11.0,64.0
10491,48.0,0.0,60.0,14.0,64.0
10492,60.0,0.0,60.0,3.0,64.0
10493,60.0,0.0,60.0,13.0,64.0
10494,82.0,0.0,60.0,10.0,64.0
10495,74.0,0.0,60.0,10.0,64.0
10496,50.0,0.0,180.0,14.0,64.0
10497,58.0,0.0,150.0,4.0,64.0
10498,70.0,0.0,60.0,11.0,64.0
10499,62.0,0.0,180.0,13.0,64.0
10500,77.0,0.0,60.0,11.0,64.0
10501,74.0,0.0,60.0,10.0,64.0
10502,62.0,12.0,150.0,4.0,64.0
10503,62.0,0.0,180.0,12.0,64.0
10504,77.0,0.0,150.0,0.0,64.0
10505,82.0,60.0,60.0,10.0,64.0
10506,65.0,0.0,180.0,2.0,64.0
10507,62.0,0.0,180.0,3.0,64.0
10508,65.0,36.0,180.0,1.0,64.0
10509,77.0,0.0,60.0,11.0,64.0
10510,70.0,0.0,60.0,11.0,64.0
10511,74.0,48.0,60.0,10.0,64.0
10512,82.0,0.0,60.0,10.0,64.0
10513,74.0,0.0,60.0,10.0,64.0
10514,70.0,24.0,60.0,11.0,64.0
10515,82.0,0.0,60.0,10.0,64.0
10516,77.0,0.0,60.0,11.0,64.0
10517,82.0,60.0,60.0,10.0,64.0
10518,70.0,0.0,60.0,11.0,64.0
10519,77.0,0.0,60.0,11.0,64.0
10520,74.0,0.0,60.0,10.0,64.0
10521,65.0,0.0,180.0,2.0,64.0
10522,70.0,0.0,60.0,11.0,64.0
10523,82.0,0.0,60.0,10.0,64.0
10524,77.0,0.0,150.0,0.0,64.0
10525,74.0,0.0,60.0,10.0,64.0
10526,77.0,60.0,60.0,11.0,64.0
10527,58.0,0.0,150.0,4.0,64.0
10528,62.0,12.0,150.0,4.0,64.0
10529,65.0,36.0,180.0,1.0,64.0
10530,82.0,0.0,60.0,10.0,64.0
10531,74.0,48.0,60.0,10.0,64.0
10532,70.0,0.0,60.0,11.0,64.0
10533,77.0,0.0,60.0,11.0,64.0
10534,74.0,0.0,60.0,10.0,64.0
10535,82.0,0.0,60.0,10.0,64.0
10536,70.0,24.0,60.0,11.0,64.0
10537,77.0,0.0,60.0,11.0,64.0
10538,74.0,0.0,60.0,10.0,64.0
10539,82.0,0.0,60.0,10.0,64.0
10540,70.0,60.0,60.0,11.0,64.0
10541,77.0,0.0,60.0,11.0,64.0
10542,65.0,0.0,90.0,1.0,64.0
10543,77.0,0.0,60.0,11.0,64.0
10544,58.0,0.0,780.0,4.0,64.0
10545,62.0,60.0,780.0,4.0,64.0
10546,58.0,0.0,390.0,5.0,64.0
10547,74.0,0.0,60.0,10.0,64.0
10548,70.0,0.0,390.0,5.0,64.0
10549,41.0,0.0,390.0,13.0,64.0
10550,29.0,0.0,390.0,14.0,64.0
10551,53.0,0.0,390.0,12.0,64.0
10552,46.0,0.0,390.0,6.0,64.0
10553,65.0,12.0,90.0,2.0,64.0
10554,41.0,24.0,390.0,3.0,64.0
10555,70.0,48.0,60.0,11.0,64.0
10556,82.0,0.0,60.0,10.0,64.0
10557,77.0,0.0,780.0,0.0,64.0
10558,70.0,60.0,60.0,11.0,64.0
10559,74.0,0.0,60.0,10.0,64.0
10560,77.0,0.0,60.0,11.0,64.0
10561,82.0,0.0,60.0,10.0,64.0
10562,67.0,0.0,60.0,2.0,64.0
10563,82.0,0.0,60.0,10.0,64.0
10564,74.0,0.0,60.0,10.0,64.0
10565,67.0,60.0,60.0,1.0,64.0
10566,77.0,0.0,60.0,11.0,64.0
10567,70.0,0.0,60.0,11.0,64.0
10568,77.0,0.0,60.0,11.0,64.0
10569,70.0,0.0,60.0,11.0,64.0
10570,69.0,60.0,60.0,2.0,64.0
10571,69.0,0.0,60.0,1.0,64.0
10572,74.0,0.0,60.0,10.0,64.0
10573,82.0,0.0,60.0,10.0,64.0
10574,82.0,0.0,60.0,10.0,64.0
10575,70.0,0.0,60.0,1.0,64.0
10576,70.0,60.0,60.0,11.0,64.0
10577,77.0,0.0,60.0,11.0,64.0
10578,74.0,0.0,60.0,10.0,64.0
10579,70.0,0.0,60.0,2.0,64.0
10580,72.0,0.0,60.0,2.0,64.0
10581,72.0,0.0,60.0,1.0,64.0
10582,82.0,0.0,60.0,10.0,64.0
10583,74.0,36.0,60.0,10.0,64.0
10584,70.0,0.0,60.0,11.0,64.0
10585,77.0,0.0,60.0,11.0,64.0
10586,82.0,0.0,60.0,10.0,64.0
10587,74.0,0.0,60.0,10.0,64.0
10588,70.0,0.0,60.0,11.0,64.0
10589,77.0,60.0,60.0,11.0,64.0
10590,74.0,0.0,60.0,1.0,64.0
10591,74.0,0.0,60.0,2.0,64.0
10592,82.0,60.0,60.0,10.0,64.0
10593,75.0,0.0,60.0,2.0,64.0
10594,74.0,0.0,60.0,10.0,64.0
10595,75.0,0.0,60.0,1.0,64.0
10596,70.0,0.0,60.0,11.0,64.0
10597,77.0,0.0,60.0,11.0,64.0
10598,29.0,0.0,150.0,14.0,64.0
10599,41.0,0.0,150.0,13.0,64.0
10600,53.0,12.0,150.0,12.0,64.0
10601,77.0,36.0,180.0,2.0,64.0
10602,70.0,0.0,150.0,5.0,64.0
10603,41.0,0.0,150.0,3.0,64.0
10604,58.0,0.0,150.0,5.0,64.0
10605,77.0,60.0,60.0,11.0,64.0
10606,74.0,0.0,60.0,10.0,64.0
10607,82.0,0.0,60.0,10.0,64.0
10608,46.0,0.0,180.0,6.0,64.0
10609,70.0,0.0,60.0,11.0,64.0
10610,77.0,0.0,180.0,1.0,64.0
10611,70.0,0.0,60.0,11.0,64.0
10612,74.0,48.0,60.0,10.0,64.0
10613,77.0,0.0,60.0,11.0,64.0
10614,82.0,0.0,60.0,10.0,64.0
10615,70.0,0.0,60.0,11.0,64.0
10616,77.0,0.0,60.0,11.0,64.0
10617,82.0,24.0,60.0,10.0,64.0
10618,74.0,0.0,60.0,10.0,64.0
10619,82.0,0.0,60.0,10.0,64.0
10620,70.0,60.0,60.0,11.0,64.0
10621,77.0,0.0,60.0,11.0,64.0
10622,74.0,0.0,60.0,10.0,64.0
10623,77.0,0.0,60.0,11.0,64.0
10624,70.0,0.0,60.0,11.0,64.0
10625,53.0,0.0,150.0,12.0,64.0
10626,29.0,0.0,150.0,14.0,64.0
10627,41.0,0.0,150.0,3.0,64.0
10628,70.0,12.0,150.0,5.0,64.0
10629,58.0,0.0,150.0,5.0,64.0
10630,82.0,0.0,60.0,10.0,64.0
10631,74.0,0.0,60.0,10.0,64.0
10632,41.0,0.0,150.0,13.0,64.0
10633,46.0,36.0,180.0,6.0,64.0
10634,74.0,0.0,60.0,10.0,64.0
10635,70.0,0.0,60.0,11.0,64.0
10636,77.0,0.0,60.0,11.0,64.0
10637,82.0,48.0,60.0,10.0,64.0
10638,77.0,0.0,60.0,11.0,64.0
10639,70.0,0.0,60.0,11.0,64.0
10640,82.0,0.0,60.0,10.0,64.0
10641,74.0,24.0,60.0,10.0,64.0
10642,70.0,0.0,60.0,11.0,64.0
10643,82.0,0.0,60.0,10.0,64.0
10644,74.0,36.0,60.0,10.0,64.0
10645,77.0,0.0,60.0,11.0,64.0
10646,77.0,24.0,120.0,1.0,64.0
10647,70.0,0.0,1140.0,5.0,64.0
10648,41.0,0.0,90.0,3.0,64.0
10649,62.0,0.0,60.0,11.0,64.0
10650,46.0,24.0,20.0,6.0,64.0
10651,65.0,36.0,1860.0,2.0,64.0
10652,70.0,6.0,60.0,11.0,64.0
10653,53.0,0.0,90.0,12.0,64.0
10654,41.0,12.0,90.0,13.0,64.0
10655,29.0,0.0,90.0,14.0,64.0
10656,77.0,0.0,120.0,10.0,64.0
10657,58.0,36.0,1140.0,5.0,64.0
10658,46.0,30.0,20.0,6.0,64.0
10659,62.0,0.0,60.0,11.0,64.0
10660,70.0,6.0,60.0,11.0,64.0
10661,46.0,12.0,20.0,6.0,64.0
10662,46.0,6.0,20.0,6.0,64.0
10663,43.0,0.0,60.0,13.0,64.0
10664,46.0,24.0,20.0,6.0,64.0
10665,31.0,6.0,60.0,14.0,64.0
10666,43.0,0.0,60.0,3.0,64.0
10667,55.0,0.0,60.0,12.0,64.0
10668,62.0,0.0,60.0,11.0,64.0
10669,70.0,0.0,60.0,11.0,64.0
10670,46.0,30.0,20.0,6.0,64.0
10671,46.0,24.0,20.0,6.0,64.0
10672,33.0,0.0,60.0,14.0,64.0
10673,45.0,0.0,60.0,3.0,64.0
10674,45.0,0.0,60.0,13.0,64.0
10675,57.0,0.0,60.0,12.0,64.0
10676,62.0,0.0,60.0,11.0,64.0
10677,70.0,6.0,60.0,11.0,64.0
10678,46.0,30.0,20.0,6.0,64.0
10679,58.0,0.0,60.0,12.0,64.0
10680,46.0,24.0,20.0,6.0,64.0
10681,74.0,0.0,120.0,1.0,64.0
10682,46.0,6.0,60.0,3.0,64.0
10683,62.0,0.0,60.0,11.0,64.0
10684,74.0,24.0,120.0,10.0,64.0
10685,46.0,0.0,60.0,13.0,64.0
10686,70.0,0.0,60.0,11.0,64.0
10687,34.0,0.0,60.0,14.0,64.0
10688,46.0,30.0,20.0,6.0,64.0
10689,60.0,0.0,60.0,12.0,64.0
10690,70.0,0.0,60.0,11.0,64.0
10691,62.0,0.0,60.0,11.0,64.0
10692,48.0,0.0,60.0,3.0,64.0
10693,46.0,24.0,20.0,6.0,64.0
10694,48.0,6.0,60.0,13.0,64.0
10695,36.0,0.0,60.0,14.0,64.0
10696,46.0,6.0,20.0,6.0,64.0
10697,38.0,0.0,60.0,14.0,64.0
10698,50.0,0.0,60.0,13.0,64.0
10699,70.0,0.0,60.0,11.0,64.0
10700,62.0,0.0,60.0,11.0,64.0
10701,46.0,24.0,20.0,6.0,64.0
10702,50.0,6.0,60.0,3.0,64.0
10703,62.0,0.0,60.0,12.0,64.0
10704,46.0,30.0,20.0,6.0,64.0
10705,46.0,24.0,20.0,6.0,64.0
10706,62.0,0.0,60.0,11.0,64.0
10707,70.0,0.0,60.0,11.0,64.0
10708,51.0,0.0,60.0,3.0,64.0
10709,51.0,0.0,60.0,13.0,64.0
10710,39.0,0.0,60.0,14.0,64.0
10711,63.0,6.0,60.0,12.0,64.0
10712,46.0,30.0,20.0,6.0,64.0
10713,53.0,0.0,180.0,13.0,64.0
10714,70.0,0.0,60.0,11.0,64.0
10715,62.0,6.0,60.0,11.0,64.0
10716,41.0,0.0,180.0,14.0,64.0
10717,53.0,0.0,180.0,3.0,64.0
10718,70.0,0.0,120.0,10.0,64.0
10719,70.0,24.0,120.0,1.0,64.0
10720,65.0,12.0,180.0,12.0,64.0
10721,46.0,24.0,20.0,6.0,64.0
10722,46.0,30.0,20.0,6.0,64.0
10723,62.0,6.0,60.0,11.0,64.0
10724,70.0,0.0,60.0,11.0,64.0
10725,46.0,24.0,20.0,6.0,64.0
10726,46.0,6.0,20.0,6.0,64.0
10727,62.0,0.0,60.0,11.0,64.0
10728,70.0,6.0,60.0,11.0,64.0
10729,46.0,24.0,20.0,6.0,64.0
10730,46.0,18.0,20.0,6.0,64.0
10731,46.0,24.0,20.0,6.0,64.0
10732,62.0,0.0,60.0,11.0,64.0
10733,70.0,6.0,60.0,11.0,64.0
10734,46.0,30.0,20.0,6.0,64.0
10735,65.0,24.0,120.0,10.0,64.0
10736,62.0,6.0,60.0,11.0,64.0
10737,46.0,24.0,20.0,6.0,64.0
10738,65.0,0.0,120.0,1.0,64.0
10739,70.0,0.0,60.0,11.0,64.0
10740,46.0,30.0,20.0,6.0,64.0
10741,46.0,24.0,20.0,6.0,64.0
10742,70.0,0.0,60.0,11.0,64.0
10743,62.0,6.0,60.0,11.0,64.0
10744,46.0,6.0,20.0,6.0,64.0
10745,46.0,24.0,20.0,6.0,64.0
10746,62.0,6.0,60.0,11.0,64.0
10747,70.0,0.0,60.0,11.0,64.0
10748,46.0,30.0,20.0,6.0,64.0
10749,70.0,0.0,60.0,11.0,64.0
10750,46.0,24.0,20.0,6.0,64.0
10751,62.0,6.0,60.0,11.0,64.0
10752,46.0,54.0,20.0,6.0,64.0
10753,65.0,0.0,60.0,12.0,64.0
10754,58.0,60.0,60.0,12.0,64.0
10755,46.0,0.0,180.0,6.0,64.0
10756,62.0,0.0,60.0,11.0,64.0
10757,70.0,0.0,60.0,11.0,64.0
10758,62.0,48.0,120.0,4.0,64.0
10759,74.0,0.0,120.0,10.0,64.0
10760,74.0,0.0,120.0,1.0,64.0
10761,62.0,12.0,60.0,11.0,64.0
10762,58.0,0.0,60.0,12.0,64.0
10763,65.0,0.0,60.0,12.0,64.0
10764,70.0,0.0,60.0,11.0,64.0
10765,58.0,0.0,60.0,12.0,64.0
10766,65.0,0.0,60.0,12.0,64.0
10767,70.0,0.0,60.0,11.0,64.0
10768,62.0,24.0,60.0,11.0,64.0
10769,62.0,0.0,60.0,11.0,64.0
10770,58.0,0.0,60.0,12.0,64.0
10771,65.0,0.0,60.0,12.0,64.0
10772,70.0,60.0,60.0,11.0,64.0
10773,70.0,0.0,120.0,10.0,64.0
10774,65.0,60.0,60.0,12.0,64.0
10775,58.0,0.0,60.0,12.0,64.0
10776,58.0,0.0,120.0,4.0,64.0
10777,70.0,0.0,60.0,11.0,64.0
10778,70.0,48.0,120.0,1.0,64.0
10779,62.0,0.0,60.0,11.0,64.0
10780,58.0,12.0,60.0,12.0,64.0
10781,65.0,0.0,60.0,12.0,64.0
10782,62.0,0.0,60.0,11.0,64.0
10783,70.0,0.0,60.0,11.0,64.0
10784,58.0,0.0,60.0,12.0,64.0
10785,70.0,0.0,60.0,11.0,64.0
10786,62.0,60.0,60.0,11.0,64.0
10787,65.0,0.0,60.0,12.0,64.0
10788,62.0,0.0,60.0,11.0,64.0
10789,58.0,60.0,60.0,12.0,64.0
10790,70.0,0.0,60.0,11.0,64.0
10791,65.0,0.0,60.0,12.0,64.0
10792,65.0,48.0,120.0,10.0,64.0
10793,53.0,0.0,120.0,4.0,64.0
10794,58.0,0.0,60.0,12.0,64.0
10795,70.0,60.0,60.0,11.0,64.0
10796,65.0,0.0,120.0,1.0,64.0
10797,62.0,0.0,60.0,11.0,64.0
10798,65.0,0.0,60.0,12.0,64.0
10799,65.0,0.0,60.0,12.0,64.0
10800,62.0,0.0,60.0,11.0,64.0
10801,70.0,0.0,60.0,11.0,64.0
10802,58.0,12.0,60.0,12.0,64.0
10803,62.0,0.0,60.0,11.0,64.0
10804,70.0,0.0,60.0,11.0,64.0
10805,65.0,60.0,60.0,12.0,64.0
10806,58.0,0.0,60.0,12.0,64.0
10807,58.0,0.0,60.0,12.0,64.0
10808,62.0,60.0,60.0,11.0,64.0
10809,70.0,0.0,60.0,11.0,64.0
10810,65.0,0.0,60.0,12.0,64.0
10811,62.0,0.0,60.0,11.0,64.0
10812,70.0,0.0,60.0,11.0,64.0
10813,50.0,0.0,120.0,4.0,64.0
10814,65.0,0.0,60.0,12.0,64.0
10815,62.0,0.0,120.0,10.0,64.0
10816,58.0,60.0,60.0,12.0,64.0
10817,62.0,48.0,120.0,1.0,64.0
10818,62.0,12.0,60.0,11.0,64.0
10819,70.0,0.0,60.0,11.0,64.0
10820,58.0,0.0,60.0,12.0,64.0
10821,65.0,0.0,60.0,12.0,64.0
10822,65.0,0.0,60.0,12.0,64.0
10823,58.0,0.0,60.0,12.0,64.0
10824,62.0,0.0,60.0,11.0,64.0
10825,70.0,24.0,60.0,11.0,64.0
10826,65.0,0.0,60.0,12.0,64.0
10827,58.0,60.0,60.0,12.0,64.0
10828,70.0,0.0,60.0,11.0,64.0
10829,62.0,0.0,60.0,11.0,64.0
10830,46.0,24.0,180.0,14.0,64.0
10831,58.0,0.0,180.0,13.0,64.0
10832,58.0,0.0,120.0,3.0,64.0
10833,70.0,48.0,60.0,10.0,64.0
10834,58.0,0.0,120.0,4.0,64.0
10835,46.0,24.0,390.0,6.0,64.0
10836,70.0,36.0,120.0,5.0,64.0
10837,70.0,0.0,120.0,2.0,64.0
10838,82.0,0.0,120.0,0.0,64.0
10839,70.0,12.0,90.0,12.0,64.0
10840,70.0,0.0,60.0,11.0,64.0
10841,70.0,0.0,120.0,1.0,64.0
10842,70.0,24.0,60.0,10.0,64.0
10843,70.0,0.0,60.0,11.0,64.0
10844,70.0,12.0,90.0,12.0,64.0
10845,70.0,0.0,60.0,10.0,64.0
10846,70.0,24.0,60.0,11.0,64.0
10847,70.0,0.0,60.0,11.0,64.0
10848,70.0,60.0,60.0,10.0,64.0
10849,65.0,12.0,90.0,12.0,64.0
10850,77.0,0.0,120.0,0.0,64.0
10851,41.0,0.0,180.0,14.0,64.0
10852,65.0,0.0,120.0,5.0,64.0
10853,53.0,0.0,120.0,3.0,64.0
10854,65.0,0.0,120.0,1.0,64.0
10855,65.0,12.0,120.0,2.0,64.0
10856,65.0,48.0,60.0,11.0,64.0
10857,53.0,0.0,120.0,4.0,64.0
10858,65.0,0.0,60.0,10.0,64.0
10859,53.0,24.0,180.0,13.0,64.0
10860,65.0,24.0,60.0,10.0,64.0
10861,65.0,0.0,60.0,11.0,64.0
10862,65.0,12.0,90.0,12.0,64.0
10863,65.0,0.0,60.0,10.0,64.0
10864,65.0,24.0,60.0,11.0,64.0
10865,65.0,60.0,60.0,10.0,64.0
10866,65.0,0.0,60.0,11.0,64.0
10867,62.0,12.0,90.0,12.0,64.0
10868,38.0,24.0,180.0,14.0,64.0
10869,50.0,0.0,180.0,13.0,64.0
10870,62.0,0.0,60.0,11.0,64.0
10871,50.0,0.0,120.0,4.0,64.0
10872,50.0,0.0,120.0,3.0,64.0
10873,74.0,36.0,120.0,0.0,64.0
10874,62.0,48.0,60.0,10.0,64.0
10875,62.0,0.0,120.0,2.0,64.0
10876,62.0,0.0,120.0,5.0,64.0
10877,62.0,0.0,120.0,1.0,64.0
10878,62.0,0.0,60.0,11.0,64.0
10879,62.0,24.0,60.0,10.0,64.0
10880,62.0,12.0,90.0,12.0,64.0
10881,62.0,24.0,60.0,11.0,64.0
10882,62.0,0.0,60.0,10.0,64.0
10883,62.0,0.0,60.0,10.0,64.0
10884,62.0,60.0,60.0,11.0,64.0
10885,58.0,12.0,90.0,12.0,64.0
10886,58.0,0.0,120.0,2.0,64.0
10887,46.0,0.0,120.0,3.0,64.0
10888,58.0,0.0,120.0,5.0,64.0
10889,46.0,0.0,180.0,13.0,64.0
10890,34.0,24.0,180.0,14.0,64.0
10891,46.0,0.0,120.0,4.0,64.0
10892,58.0,36.0,120.0,1.0,64.0
10893,70.0,0.0,120.0,0.0,64.0
10894,46.0,0.0,90.0,6.0,64.0
10895,58.0,48.0,60.0,10.0,64.0
10896,58.0,0.0,60.0,11.0,64.0
10897,58.0,24.0,60.0,11.0,64.0
10898,58.0,0.0,60.0,10.0,64.0
10899,58.0,24.0,60.0,10.0,64.0
10900,46.0,12.0,90.0,6.0,64.0
10901,58.0,0.0,60.0,11.0,64.0
10902,58.0,0.0,90.0,12.0,64.0
10903,58.0,168.0,60.0,10.0,64.0
10904,58.0,0.0,60.0,11.0,64.0
10905,53.0,0.0,150.0,11.0,64.0
10906,41.0,0.0,180.0,6.0,64.0
10907,41.0,0.0,150.0,14.0,64.0
10908,53.0,0.0,180.0,3.0,64.0
10909,65.0,0.0,180.0,5.0,64.0
10910,77.0,0.0,180.0,0.0,64.0
10911,53.0,0.0,150.0,12.0,64.0
10912,53.0,0.0,150.0,10.0,64.0
10913,65.0,0.0,180.0,1.0,64.0
10914,53.0,204.0,180.0,2.0,64.0
10915,53.0,0.0,180.0,4.0,64.0
10916,65.0,0.0,180.0,2.0,64.0
10917,53.0,36.0,150.0,13.0,64.0
10918,65.0,0.0,150.0,12.0,64.0
10919,65.0,240.0,150.0,11.0,64.0
10920,74.0,0.0,150.0,11.0,64.0
10921,58.0,0.0,150.0,10.0,64.0
10922,74.0,0.0,150.0,10.0,64.0
10923,58.0,0.0,150.0,11.0,64.0
10924,65.0,0.0,150.0,10.0,64.0
10925,41.0,0.0,180.0,3.0,64.0
10926,77.0,0.0,180.0,0.0,64.0
10927,65.0,0.0,180.0,1.0,64.0
10928,53.0,0.0,180.0,2.0,64.0
10929,65.0,0.0,180.0,2.0,64.0
10930,41.0,204.0,180.0,6.0,64.0
10931,41.0,0.0,150.0,13.0,64.0
10932,65.0,0.0,180.0,5.0,64.0
10933,53.0,0.0,180.0,4.0,64.0
10934,29.0,36.0,150.0,14.0,64.0
10935,69.0,0.0,150.0,11.0,64.0
10936,69.0,0.0,150.0,10.0,64.0
10937,72.0,0.0,150.0,11.0,64.0
10938,65.0,282.0,150.0,11.0,64.0
10939,65.0,0.0,150.0,12.0,64.0
10940,72.0,0.0,150.0,10.0,64.0
10941,65.0,0.0,150.0,10.0,64.0
10942,53.0,120.0,90.0,11.0,64.0
10943,65.0,0.0,90.0,10.0,64.0
10944,67.0,120.0,90.0,10.0,64.0
10945,55.0,0.0,90.0,11.0,64.0
10946,45.0,0.0,90.0,12.0,64.0
10947,69.0,120.0,90.0,10.0,64.0
10948,57.0,0.0,90.0,11.0,64.0
10949,58.0,120.0,90.0,11.0,64.0
10950,70.0,0.0,90.0,10.0,64.0
10951,46.0,0.0,90.0,12.0,64.0
10952,60.0,0.0,90.0,11.0,64.0
10953,72.0,120.0,90.0,10.0,64.0
10954,48.0,0.0,90.0,12.0,64.0
10955,62.0,0.0,90.0,11.0,64.0
10956,50.0,120.0,90.0,12.0,64.0
10957,74.0,0.0,90.0,10.0,64.0
10958,75.0,0.0,90.0,10.0,64.0
10959,51.0,282.0,90.0,12.0,64.0
10960,63.0,0.0,90.0,11.0,64.0
10961,77.0,0.0,240.0,10.0,64.0
10962,53.0,0.0,240.0,12.0,64.0
10963,65.0,240.0,240.0,11.0,64.0
10964,50.0,0.0,240.0,12.0,64.0
10965,62.0,240.0,240.0,11.0,64.0
10966,74.0,0.0,240.0,10.0,64.0
10967,70.0,0.0,240.0,11.0,64.0
10968,58.0,240.0,240.0,12.0,64.0
10969,82.0,0.0,240.0,10.0,64.0
10970,67.0,240.0,240.0,11.0,64.0
10971,55.0,0.0,240.0,12.0,64.0
10972,79.0,0.0,240.0,10.0,64.0
10973,53.0,240.0,240.0,12.0,64.0
10974,77.0,0.0,240.0,10.0,64.0
10975,65.0,0.0,240.0,11.0,64.0
10976,48.0,0.0,240.0,3.0,64.0
10977,36.0,240.0,240.0,14.0,64.0
10978,76.0,0.0,240.0,10.0,64.0
10979,48.0,0.0,240.0,13.0,64.0
10980,64.0,0.0,240.0,11.0,64.0
10981,52.0,0.0,240.0,12.0,64.0
10982,60.0,0.0,240.0,13.0,64.0
10983,60.0,0.0,240.0,3.0,64.0
10984,63.0,0.0,570.0,11.0,64.0
10985,75.0,0.0,570.0,10.0,64.0
10986,51.0,120.0,570.0,12.0,64.0
10987,48.0,240.0,240.0,14.0,64.0
10988,46.0,96.0,240.0,14.0,64.0
10989,58.0,0.0,240.0,3.0,64.0
10990,58.0,0.0,240.0,13.0,64.0
10991,57.0,0.0,780.0,3.0,64.0
10992,57.0,48.0,780.0,13.0,64.0
10993,45.0,0.0,780.0,14.0,64.0
10994,74.0,0.0,90.0,10.0,64.0
10995,50.0,120.0,90.0,12.0,64.0
10996,62.0,0.0,90.0,11.0,64.0
10997,72.0,120.0,90.0,10.0,64.0
10998,48.0,0.0,90.0,12.0,64.0
10999,60.0,0.0,90.0,11.0,64.0
11000,50.0,120.0,90.0,12.0,64.0
11001,62.0,0.0,90.0,11.0,64.0
11002,74.0,0.0,90.0,10.0,64.0
11003,51.0,0.0,90.0,12.0,64.0
11004,75.0,0.0,90.0,10.0,64.0
11005,63.0,120.0,90.0,11.0,64.0
11006,79.0,0.0,90.0,10.0,64.0
11007,55.0,0.0,90.0,12.0,64.0
11008,67.0,72.0,90.0,11.0,64.0
11009,77.0,0.0,90.0,10.0,64.0
11010,53.0,0.0,90.0,12.0,64.0
11011,65.0,120.0,90.0,11.0,64.0
11012,75.0,120.0,90.0,10.0,64.0
11013,63.0,0.0,90.0,11.0,64.0
11014,51.0,0.0,90.0,12.0,64.0
11015,50.0,0.0,90.0,12.0,64.0
11016,62.0,0.0,90.0,11.0,64.0
11017,74.0,120.0,90.0,10.0,64.0
11018,51.0,0.0,90.0,12.0,64.0
11019,75.0,0.0,90.0,10.0,64.0
11020,63.0,120.0,90.0,11.0,64.0
11021,53.0,0.0,90.0,12.0,64.0
11022,65.0,120.0,90.0,11.0,64.0
11023,58.0,0.0,240.0,3.0,64.0
11024,58.0,240.0,240.0,13.0,64.0
11025,77.0,0.0,90.0,10.0,64.0
11026,46.0,0.0,240.0,14.0,64.0
11027,67.0,24.0,90.0,11.0,64.0
11028,55.0,0.0,90.0,12.0,64.0
11029,79.0,0.0,90.0,10.0,64.0
11030,68.0,0.0,570.0,11.0,64.0
11031,56.0,0.0,570.0,12.0,64.0
11032,53.0,0.0,240.0,3.0,64.0
11033,41.0,240.0,240.0,14.0,64.0
11034,80.0,120.0,570.0,10.0,64.0
11035,53.0,0.0,240.0,13.0,64.0
11036,51.0,0.0,240.0,13.0,64.0
11037,51.0,0.0,240.0,3.0,64.0
11038,39.0,78.0,240.0,14.0,64.0
11039,38.0,0.0,960.0,14.0,64.0
11040,50.0,78.0,960.0,13.0,64.0
11041,50.0,0.0,960.0,3.0,64.0
11042,67.0,0.0,90.0,11.0,64.0
11043,55.0,0.0,90.0,12.0,64.0
11044,79.0,120.0,90.0,10.0,64.0
11045,65.0,0.0,90.0,11.0,64.0
11046,53.0,0.0,90.0,12.0,64.0
11047,77.0,120.0,90.0,10.0,64.0
11048,51.0,0.0,90.0,12.0,64.0
11049,75.0,120.0,90.0,10.0,64.0
11050,63.0,0.0,90.0,11.0,64.0
11051,50.0,0.0,90.0,12.0,64.0
11052,74.0,120.0,90.0,10.0,64.0
11053,62.0,0.0,90.0,11.0,64.0
11054,72.0,120.0,90.0,10.0,64.0
11055,60.0,0.0,90.0,11.0,64.0
11056,48.0,0.0,90.0,12.0,64.0
11057,46.0,0.0,90.0,12.0,64.0
11058,70.0,120.0,90.0,10.0,64.0
11059,58.0,0.0,90.0,11.0,64.0
11060,68.0,0.0,90.0,11.0,64.0
11061,80.0,0.0,90.0,10.0,64.0
11062,56.0,42.0,90.0,12.0,64.0
11063,39.0,0.0,180.0,14.0,64.0
11064,51.0,6.0,180.0,13.0,64.0
11065,79.0,114.0,90.0,10.0,64.0
11066,51.0,0.0,180.0,3.0,64.0
11067,55.0,0.0,90.0,12.0,64.0
11068,67.0,0.0,90.0,11.0,64.0
11069,54.0,0.0,90.0,12.0,64.0
11070,66.0,120.0,90.0,11.0,64.0
11071,78.0,0.0,90.0,10.0,64.0
11072,55.0,0.0,90.0,12.0,64.0
11073,79.0,120.0,90.0,10.0,64.0
11074,67.0,0.0,90.0,11.0,64.0
11075,78.0,0.0,90.0,10.0,64.0
11076,66.0,120.0,90.0,11.0,64.0
11077,54.0,0.0,90.0,12.0,64.0
11078,55.0,120.0,90.0,12.0,64.0
11079,79.0,0.0,90.0,10.0,64.0
11080,67.0,0.0,90.0,11.0,64.0
11081,74.0,0.0,90.0,10.0,64.0
11082,62.0,120.0,90.0,11.0,64.0
11083,50.0,0.0,90.0,12.0,64.0
11084,51.0,0.0,90.0,12.0,64.0
11085,63.0,0.0,90.0,11.0,64.0
11086,75.0,120.0,90.0,10.0,64.0
11087,62.0,0.0,90.0,11.0,64.0
11088,74.0,120.0,90.0,10.0,64.0
11089,50.0,0.0,90.0,12.0,64.0
11090,75.0,0.0,90.0,10.0,64.0
11091,51.0,0.0,90.0,12.0,64.0
11092,63.0,120.0,90.0,11.0,64.0
11093,47.0,120.0,90.0,12.0,64.0
11094,59.0,0.0,90.0,11.0,64.0
11095,71.0,0.0,90.0,10.0,64.0
11096,60.0,120.0,90.0,11.0,64.0
11097,48.0,0.0,90.0,12.0,64.0
11098,72.0,0.0,90.0,10.0,64.0
11099,71.0,120.0,90.0,10.0,64.0
11100,59.0,0.0,90.0,11.0,64.0
11101,47.0,0.0,90.0,12.0,64.0
11102,48.0,120.0,90.0,12.0,64.0
11103,60.0,0.0,90.0,11.0,64.0
11104,72.0,0.0,90.0,10.0,64.0
11105,50.0,0.0,90.0,12.0,64.0
11106,74.0,120.0,90.0,10.0,64.0
11107,62.0,0.0,90.0,11.0,64.0
11108,63.0,0.0,90.0,11.0,64.0
11109,75.0,0.0,90.0,10.0,64.0
11110,51.0,120.0,90.0,12.0,64.0
11111,62.0,0.0,90.0,11.0,64.0
11112,74.0,0.0,90.0,10.0,64.0
11113,50.0,120.0,90.0,12.0,64.0
11114,75.0,0.0,90.0,10.0,64.0
11115,63.0,0.0,90.0,11.0,64.0
11116,51.0,120.0,90.0,12.0,64.0
11117,66.0,120.0,90.0,11.0,64.0
11118,78.0,0.0,90.0,10.0,64.0
11119,54.0,0.0,90.0,12.0,64.0
11120,55.0,120.0,90.0,12.0,64.0
11121,79.0,0.0,90.0,10.0,64.0
11122,67.0,0.0,90.0,11.0,64.0
11123,53.0,0.0,90.0,12.0,64.0
11124,77.0,120.0,90.0,10.0,64.0
11125,65.0,0.0,90.0,11.0,64.0
11126,79.0,0.0,90.0,10.0,64.0
11127,55.0,0.0,90.0,12.0,64.0
11128,67.0,120.0,90.0,11.0,64.0
11129,69.0,0.0,90.0,11.0,64.0
11130,57.0,0.0,90.0,12.0,64.0
11131,81.0,102.0,90.0,10.0,64.0
11132,82.0,0.0,90.0,10.0,64.0
11133,60.0,12.0,60.0,4.0,64.0
11134,58.0,0.0,90.0,12.0,64.0
11135,63.0,0.0,60.0,2.0,64.0
11136,77.0,6.0,60.0,0.0,64.0
11137,70.0,120.0,90.0,11.0,64.0
11138,72.0,0.0,60.0,1.0,64.0
11139,75.0,0.0,60.0,1.0,64.0
11140,65.0,0.0,60.0,2.0,64.0
11141,81.0,0.0,90.0,10.0,64.0
11142,69.0,0.0,90.0,11.0,64.0
11143,57.0,120.0,90.0,12.0,64.0
11144,62.0,0.0,90.0,4.0,64.0
11145,58.0,0.0,90.0,4.0,64.0
11146,70.0,0.0,90.0,1.0,64.0
11147,74.0,108.0,90.0,1.0,64.0
11148,70.0,0.0,90.0,11.0,64.0
11149,77.0,0.0,90.0,0.0,64.0
11150,65.0,0.0,90.0,2.0,64.0
11151,82.0,12.0,90.0,10.0,64.0
11152,62.0,0.0,90.0,2.0,64.0
11153,58.0,0.0,90.0,12.0,64.0
11154,77.0,0.0,90.0,10.0,64.0
11155,65.0,120.0,90.0,11.0,64.0
11156,53.0,0.0,90.0,12.0,64.0
11157,81.0,0.0,90.0,10.0,64.0
11158,53.0,108.0,90.0,4.0,64.0
11159,72.0,0.0,90.0,1.0,64.0
11160,77.0,0.0,90.0,0.0,64.0
11161,69.0,0.0,90.0,11.0,64.0
11162,65.0,0.0,90.0,2.0,64.0
11163,63.0,0.0,90.0,2.0,64.0
11164,57.0,12.0,90.0,12.0,64.0
11165,60.0,0.0,90.0,4.0,64.0
11166,75.0,0.0,90.0,1.0,64.0
11167,53.0,120.0,90.0,12.0,64.0
11168,65.0,0.0,90.0,11.0,64.0
11169,77.0,0.0,90.0,10.0,64.0
11170,65.0,0.0,90.0,2.0,64.0
11171,62.0,0.0,90.0,2.0,64.0
11172,62.0,0.0,90.0,4.0,64.0
11173,82.0,0.0,90.0,10.0,64.0
11174,70.0,12.0,90.0,11.0,64.0
11175,58.0,0.0,90.0,12.0,64.0
11176,58.0,0.0,90.0,4.0,64.0
11177,77.0,0.0,90.0,0.0,64.0
11178,74.0,0.0,90.0,1.0,64.0
11179,70.0,108.0,90.0,1.0,64.0
11180,65.0,0.0,90.0,11.0,64.0
11181,77.0,120.0,90.0,10.0,64.0
11182,53.0,0.0,90.0,12.0,64.0
11183,60.0,0.0,90.0,4.0,64.0
11184,69.0,12.0,90.0,11.0,64.0
11185,77.0,0.0,90.0,0.0,64.0
11186,53.0,0.0,90.0,4.0,64.0
11187,63.0,108.0,90.0,2.0,64.0
11188,65.0,0.0,90.0,2.0,64.0
11189,57.0,0.0,90.0,12.0,64.0
11190,81.0,0.0,90.0,10.0,64.0
11191,75.0,0.0,90.0,1.0,64.0
11192,72.0,0.0,90.0,1.0,64.0
11193,65.0,0.0,90.0,11.0,64.0
11194,53.0,0.0,90.0,12.0,64.0
11195,77.0,120.0,90.0,10.0,64.0
11196,70.0,12.0,90.0,11.0,64.0
11197,58.0,0.0,90.0,12.0,64.0
11198,70.0,0.0,90.0,1.0,64.0
11199,74.0,0.0,90.0,1.0,64.0
11200,62.0,0.0,90.0,4.0,64.0
11201,77.0,0.0,90.0,0.0,64.0
11202,58.0,108.0,90.0,4.0,64.0
11203,62.0,0.0,90.0,2.0,64.0
11204,82.0,0.0,90.0,10.0,64.0
11205,65.0,0.0,90.0,2.0,64.0
11206,53.0,0.0,90.0,12.0,64.0
11207,77.0,0.0,90.0,10.0,64.0
11208,65.0,120.0,90.0,11.0,64.0
11209,57.0,0.0,90.0,12.0,64.0
11210,63.0,0.0,90.0,2.0,64.0
11211,69.0,12.0,90.0,11.0,64.0
11212,65.0,0.0,90.0,2.0,64.0
11213,81.0,0.0,90.0,10.0,64.0
11214,75.0,0.0,90.0,1.0,64.0
11215,53.0,0.0,90.0,4.0,64.0
11216,72.0,108.0,90.0,1.0,64.0
11217,60.0,0.0,90.0,4.0,64.0
11218,77.0,0.0,90.0,0.0,64.0
11219,65.0,0.0,90.0,11.0,64.0
11220,53.0,120.0,90.0,12.0,64.0
11221,77.0,0.0,90.0,10.0,64.0
11222,74.0,0.0,90.0,1.0,64.0
11223,70.0,12.0,90.0,11.0,64.0
11224,70.0,0.0,90.0,1.0,64.0
11225,58.0,0.0,90.0,12.0,64.0
11226,65.0,0.0,90.0,2.0,64.0
11227,62.0,0.0,90.0,2.0,64.0
11228,82.0,0.0,90.0,10.0,64.0
11229,77.0,0.0,90.0,0.0,64.0
11230,62.0,108.0,90.0,4.0,64.0
11231,58.0,0.0,90.0,4.0,64.0
11232,53.0,0.0,90.0,12.0,64.0
11233,65.0,0.0,90.0,11.0,64.0
11234,77.0,120.0,90.0,10.0,64.0
11235,41.0,102.0,90.0,14.0,64.0
11236,77.0,0.0,90.0,0.0,64.0
11237,53.0,0.0,90.0,13.0,64.0
11238,75.0,0.0,90.0,1.0,64.0
11239,69.0,0.0,90.0,11.0,64.0
11240,57.0,12.0,90.0,12.0,64.0
11241,72.0,0.0,90.0,1.0,64.0
11242,53.0,0.0,90.0,4.0,64.0
11243,81.0,0.0,90.0,10.0,64.0
11244,60.0,6.0,90.0,4.0,64.0
11245,53.0,0.0,90.0,3.0,64.0
11246,63.0,0.0,90.0,2.0,64.0
11247,65.0,0.0,90.0,2.0,64.0
11248,77.0,0.0,90.0,10.0,64.0
11249,53.0,0.0,90.0,12.0,64.0
11250,65.0,120.0,90.0,11.0,64.0
11251,46.0,0.0,90.0,3.0,64.0
11252,82.0,12.0,90.0,10.0,64.0
11253,70.0,0.0,90.0,1.0,64.0
11254,74.0,6.0,90.0,1.0,64.0
11255,58.0,0.0,90.0,4.0,64.0
11256,70.0,0.0,90.0,11.0,64.0
11257,62.0,0.0,90.0,4.0,64.0
11258,58.0,0.0,90.0,12.0,64.0
11259,46.0,102.0,90.0,13.0,64.0
11260,34.0,0.0,90.0,14.0,64.0
11261,65.0,0.0,90.0,2.0,64.0
11262,77.0,0.0,90.0,0.0,64.0
11263,62.0,0.0,90.0,2.0,64.0
11264,65.0,0.0,90.0,11.0,64.0
11265,77.0,120.0,90.0,10.0,64.0
11266,53.0,0.0,90.0,12.0,64.0
11267,77.0,0.0,90.0,0.0,64.0
11268,75.0,0.0,90.0,1.0,64.0
11269,53.0,102.0,90.0,13.0,64.0
11270,57.0,0.0,90.0,12.0,64.0
11271,72.0,0.0,90.0,1.0,64.0
11272,65.0,0.0,90.0,2.0,64.0
11273,69.0,12.0,90.0,11.0,64.0
11274,60.0,0.0,90.0,4.0,64.0
11275,53.0,0.0,90.0,3.0,64.0
11276,63.0,0.0,90.0,2.0,64.0
11277,41.0,0.0,90.0,14.0,64.0
11278,53.0,6.0,90.0,4.0,64.0
11279,81.0,0.0,90.0,10.0,64.0
11280,53.0,0.0,90.0,12.0,64.0
11281,65.0,0.0,90.0,11.0,64.0
11282,77.0,120.0,90.0,10.0,64.0
11283,65.0,0.0,90.0,2.0,64.0
11284,70.0,0.0,90.0,1.0,64.0
11285,70.0,0.0,90.0,11.0,64.0
11286,77.0,0.0,90.0,0.0,64.0
11287,62.0,0.0,90.0,4.0,64.0
11288,74.0,0.0,90.0,1.0,64.0
11289,62.0,0.0,90.0,2.0,64.0
11290,34.0,0.0,90.0,14.0,64.0
11291,58.0,6.0,90.0,4.0,64.0
11292,58.0,0.0,90.0,12.0,64.0
11293,46.0,0.0,90.0,3.0,64.0
11294,46.0,102.0,90.0,13.0,64.0
11295,82.0,12.0,90.0,10.0,64.0
11296,65.0,0.0,90.0,11.0,64.0
11297,53.0,120.0,90.0,12.0,64.0
11298,77.0,0.0,90.0,10.0,64.0
11299,65.0,0.0,90.0,5.0,64.0
11300,69.0,12.0,90.0,11.0,64.0
11301,77.0,0.0,90.0,0.0,64.0
11302,41.0,0.0,90.0,6.0,64.0
11303,57.0,0.0,90.0,12.0,64.0
11304,41.0,102.0,90.0,14.0,64.0
11305,75.0,0.0,90.0,1.0,64.0
11306,72.0,0.0,90.0,1.0,64.0
11307,81.0,0.0,90.0,10.0,64.0
11308,53.0,0.0,90.0,4.0,64.0
11309,60.0,0.0,90.0,4.0,64.0
11310,65.0,6.0,90.0,2.0,64.0
11311,53.0,0.0,90.0,3.0,64.0
11312,63.0,0.0,90.0,2.0,64.0
11313,53.0,0.0,90.0,13.0,64.0
11314,77.0,0.0,90.0,10.0,64.0
11315,53.0,0.0,90.0,12.0,64.0
11316,65.0,120.0,90.0,11.0,64.0
11317,58.0,12.0,90.0,12.0,64.0
11318,65.0,0.0,90.0,2.0,64.0
11319,46.0,0.0,90.0,6.0,64.0
11320,82.0,0.0,90.0,10.0,64.0
11321,58.0,0.0,90.0,5.0,64.0
11322,70.0,102.0,90.0,5.0,64.0
11323,77.0,0.0,90.0,0.0,64.0
11324,34.0,0.0,90.0,14.0,64.0
11325,46.0,0.0,90.0,13.0,64.0
11326,62.0,0.0,90.0,2.0,64.0
11327,70.0,0.0,90.0,1.0,64.0
11328,62.0,0.0,90.0,4.0,64.0
11329,58.0,6.0,90.0,4.0,64.0
11330,70.0,0.0,90.0,11.0,64.0
11331,74.0,0.0,90.0,1.0,64.0
11332,46.0,0.0,90.0,3.0,64.0
11333,53.0,0.0,90.0,12.0,64.0
11334,77.0,120.0,90.0,10.0,64.0
11335,65.0,0.0,90.0,11.0,64.0
11336,75.0,0.0,90.0,1.0,64.0
11337,65.0,0.0,90.0,2.0,64.0
11338,63.0,0.0,90.0,2.0,64.0
11339,57.0,0.0,90.0,12.0,64.0
11340,81.0,12.0,90.0,10.0,64.0
11341,69.0,0.0,90.0,11.0,64.0
11342,60.0,0.0,90.0,4.0,64.0
11343,41.0,102.0,90.0,6.0,64.0
11344,53.0,0.0,90.0,3.0,64.0
11345,65.0,0.0,90.0,5.0,64.0
11346,77.0,0.0,90.0,0.0,64.0
11347,41.0,0.0,90.0,14.0,64.0
11348,53.0,0.0,90.0,13.0,64.0
11349,53.0,0.0,90.0,4.0,64.0
11350,72.0,6.0,90.0,1.0,64.0
11351,77.0,0.0,90.0,10.0,64.0
11352,53.0,120.0,90.0,12.0,64.0
11353,65.0,0.0,90.0,11.0,64.0
11354,58.0,0.0,90.0,12.0,64.0
11355,70.0,12.0,90.0,11.0,64.0
11356,65.0,0.0,90.0,2.0,64.0
11357,62.0,0.0,90.0,2.0,64.0
11358,62.0,0.0,90.0,4.0,64.0
11359,46.0,102.0,90.0,13.0,64.0
11360,58.0,0.0,90.0,4.0,64.0
11361,58.0,0.0,90.0,5.0,64.0
11362,70.0,0.0,90.0,5.0,64.0
11363,46.0,0.0,90.0,3.0,64.0
11364,70.0,6.0,90.0,1.0,64.0
11365,74.0,0.0,90.0,1.0,64.0
11366,46.0,0.0,90.0,6.0,64.0
11367,82.0,0.0,90.0,10.0,64.0
11368,77.0,0.0,90.0,0.0,64.0
11369,34.0,0.0,90.0,14.0,64.0
11370,77.0,0.0,90.0,10.0,64.0
11371,53.0,0.0,90.0,12.0,64.0
11372,65.0,120.0,90.0,11.0,64.0
11373,57.0,12.0,90.0,12.0,64.0
11374,77.0,0.0,90.0,0.0,64.0
11375,65.0,0.0,90.0,5.0,64.0
11376,41.0,0.0,90.0,6.0,64.0
11377,81.0,0.0,90.0,10.0,64.0
11378,53.0,0.0,90.0,3.0,64.0
11379,72.0,6.0,90.0,1.0,64.0
11380,75.0,0.0,90.0,1.0,64.0
11381,53.0,0.0,90.0,13.0,64.0
11382,60.0,0.0,90.0,4.0,64.0
11383,53.0,0.0,90.0,4.0,64.0
11384,69.0,0.0,90.0,11.0,64.0
11385,41.0,102.0,90.0,14.0,64.0
11386,63.0,0.0,90.0,2.0,64.0
11387,65.0,0.0,90.0,2.0,64.0
11388,77.0,0.0,90.0,10.0,64.0
11389,65.0,106.0,90.0,11.0,64.0
11390,53.0,0.0,90.0,12.0,64.0
11391,58.0,32.0,180.0,5.0,64.0
11392,62.0,0.0,60.0,12.0,64.0
11393,34.0,0.0,60.0,14.0,64.0
11394,70.0,0.0,180.0,5.0,64.0
11395,70.0,0.0,150.0,11.0,64.0
11396,46.0,80.0,60.0,3.0,64.0
11397,58.0,0.0,150.0,4.0,64.0
11398,46.0,36.0,150.0,4.0,64.0
11399,82.0,12.0,150.0,10.0,64.0
11400,65.0,0.0,1860.0,2.0,64.0
11401,62.0,0.0,1860.0,2.0,64.0
11402,82.0,0.0,4080.0,0.0,64.0
11403,46.0,0.0,60.0,13.0,64.0
11404,70.0,0.0,4080.0,1.0,64.0
11405,77.0,0.0,1860.0,0.0,64.0
11406,74.0,32.0,1860.0,1.0,64.0
11407,46.0,0.0,180.0,6.0,64.0
11408,46.0,0.0,60.0,3.0,64.0
11409,46.0,0.0,60.0,13.0,64.0
11410,34.0,0.0,60.0,14.0,64.0
11411,62.0,0.0,60.0,12.0,64.0
11412,34.0,0.0,60.0,14.0,64.0
11413,46.0,0.0,60.0,13.0,64.0
11414,62.0,80.0,60.0,12.0,64.0
11415,46.0,0.0,60.0,3.0,64.0
11416,74.0,0.0,150.0,10.0,64.0
11417,34.0,0.0,60.0,14.0,64.0
11418,46.0,0.0,60.0,13.0,64.0
11419,46.0,80.0,60.0,3.0,64.0
11420,62.0,0.0,60.0,12.0,64.0
11421,36.0,0.0,60.0,14.0,64.0
11422,63.0,0.0,60.0,12.0,64.0
11423,48.0,0.0,60.0,3.0,64.0
11424,48.0,80.0,60.0,13.0,64.0
11425,50.0,0.0,60.0,13.0,64.0
11426,65.0,80.0,60.0,12.0,64.0
11427,50.0,0.0,60.0,3.0,64.0
11428,38.0,0.0,60.0,14.0,64.0
11429,77.0,0.0,150.0,10.0,64.0
11430,58.0,0.0,150.0,11.0,64.0
11431,46.0,68.0,150.0,4.0,64.0
11432,46.0,0.0,60.0,3.0,64.0
11433,46.0,0.0,60.0,13.0,64.0
11434,34.0,80.0,60.0,14.0,64.0
11435,58.0,0.0,150.0,4.0,64.0
11436,70.0,0.0,150.0,11.0,64.0
11437,62.0,0.0,60.0,12.0,64.0
11438,62.0,12.0,60.0,12.0,64.0
11439,46.0,0.0,60.0,13.0,64.0
11440,46.0,0.0,60.0,3.0,64.0
11441,34.0,0.0,60.0,14.0,64.0
11442,34.0,80.0,60.0,14.0,64.0
11443,46.0,0.0,60.0,3.0,64.0
11444,46.0,0.0,60.0,13.0,64.0
11445,62.0,0.0,60.0,12.0,64.0
11446,62.0,80.0,60.0,12.0,64.0
11447,74.0,0.0,150.0,11.0,64.0
11448,46.0,0.0,60.0,13.0,64.0
11449,58.0,0.0,150.0,4.0,64.0
11450,34.0,0.0,60.0,14.0,64.0
11451,46.0,0.0,60.0,3.0,64.0
11452,46.0,68.0,150.0,4.0,64.0
11453,48.0,0.0,60.0,13.0,64.0
11454,63.0,12.0,60.0,12.0,64.0
11455,48.0,0.0,60.0,3.0,64.0
11456,36.0,0.0,60.0,14.0,64.0
11457,38.0,0.0,60.0,14.0,64.0
11458,50.0,0.0,60.0,13.0,64.0
11459,65.0,80.0,60.0,12.0,64.0
11460,50.0,0.0,60.0,3.0,64.0
11461,46.0,0.0,60.0,3.0,64.0
11462,77.0,0.0,150.0,11.0,64.0
11463,46.0,0.0,150.0,4.0,64.0
11464,58.0,36.0,150.0,4.0,64.0
11465,46.0,0.0,60.0,13.0,64.0
11466,58.0,0.0,180.0,5.0,64.0
11467,70.0,32.0,180.0,5.0,64.0
11468,46.0,0.0,180.0,6.0,64.0
11469,58.0,0.0,150.0,10.0,64.0
11470,70.0,0.0,150.0,10.0,64.0
11471,34.0,0.0,60.0,14.0,64.0
11472,62.0,80.0,60.0,12.0,64.0
11473,46.0,0.0,60.0,13.0,64.0
11474,46.0,0.0,60.0,3.0,64.0
11475,34.0,0.0,60.0,14.0,64.0
11476,62.0,12.0,60.0,12.0,64.0
11477,62.0,0.0,60.0,12.0,64.0
11478,34.0,0.0,60.0,14.0,64.0
11479,46.0,80.0,60.0,13.0,64.0
11480,46.0,0.0,60.0,3.0,64.0
11481,46.0,0.0,60.0,3.0,64.0
11482,34.0,0.0,60.0,14.0,64.0
11483,74.0,0.0,150.0,10.0,64.0
11484,62.0,0.0,60.0,12.0,64.0
11485,46.0,80.0,60.0,13.0,64.0
11486,36.0,0.0,60.0,14.0,64.0
11487,48.0,80.0,60.0,13.0,64.0
11488,63.0,0.0,60.0,12.0,64.0
11489,48.0,0.0,60.0,3.0,64.0
11490,50.0,0.0,60.0,13.0,64.0
11491,65.0,0.0,60.0,12.0,64.0
11492,38.0,80.0,60.0,14.0,64.0
11493,50.0,0.0,60.0,3.0,64.0
11494,34.0,80.0,60.0,14.0,64.0
11495,46.0,68.0,150.0,4.0,64.0
11496,58.0,0.0,150.0,4.0,64.0
11497,62.0,0.0,60.0,12.0,64.0
11498,70.0,0.0,150.0,11.0,64.0
11499,77.0,0.0,150.0,10.0,64.0
11500,46.0,0.0,60.0,3.0,64.0
11501,46.0,0.0,60.0,13.0,64.0
11502,58.0,0.0,150.0,11.0,64.0
11503,62.0,0.0,60.0,12.0,64.0
11504,46.0,0.0,60.0,3.0,64.0
11505,46.0,0.0,60.0,13.0,64.0
11506,34.0,12.0,60.0,14.0,64.0
11507,34.0,0.0,60.0,14.0,64.0
11508,46.0,0.0,60.0,13.0,64.0
11509,62.0,0.0,60.0,12.0,64.0
11510,46.0,80.0,60.0,3.0,64.0
11511,65.0,0.0,150.0,11.0,64.0
11512,46.0,0.0,60.0,3.0,64.0
11513,46.0,0.0,150.0,4.0,64.0
11514,58.0,36.0,150.0,4.0,64.0
11515,34.0,0.0,60.0,14.0,64.0
11516,62.0,80.0,60.0,12.0,64.0
11517,46.0,0.0,60.0,13.0,64.0
11518,48.0,0.0,60.0,13.0,64.0
11519,48.0,0.0,60.0,3.0,64.0
11520,36.0,0.0,60.0,14.0,64.0
11521,63.0,12.0,60.0,12.0,64.0
11522,38.0,0.0,60.0,14.0,64.0
11523,50.0,0.0,60.0,3.0,64.0
11524,65.0,0.0,60.0,12.0,64.0
11525,50.0,80.0,60.0,13.0,64.0
11526,51.0,12.0,150.0,13.0,64.0
11527,51.0,0.0,150.0,3.0,64.0
11528,67.0,64.0,960.0,2.0,64.0
11529,46.0,36.0,150.0,4.0,64.0
11530,75.0,0.0,1860.0,1.0,64.0
11531,67.0,0.0,60.0,11.0,64.0
11532,63.0,14.0,60.0,12.0,64.0
11533,39.0,0.0,150.0,14.0,64.0
11534,58.0,0.0,150.0,4.0,64.0
11535,63.0,32.0,1860.0,2.0,64.0
11536,46.0,0.0,180.0,6.0,64.0
11537,70.0,0.0,180.0,5.0,64.0
11538,79.0,6.0,900.0,0.0,64.0
11539,58.0,6.0,180.0,5.0,64.0
11540,75.0,66.0,90.0,10.0,64.0
11541,63.0,0.0,60.0,12.0,64.0
11542,67.0,0.0,60.0,11.0,64.0
11543,79.0,26.0,90.0,10.0,64.0
11544,67.0,0.0,60.0,11.0,64.0
11545,63.0,80.0,60.0,12.0,64.0
11546,63.0,0.0,60.0,12.0,64.0
11547,55.0,0.0,150.0,13.0,64.0
11548,82.0,66.0,90.0,10.0,64.0
11549,43.0,0.0,150.0,14.0,64.0
11550,55.0,0.0,150.0,3.0,64.0
11551,67.0,14.0,60.0,11.0,64.0
11552,69.0,54.0,60.0,11.0,64.0
11553,65.0,0.0,60.0,12.0,64.0
11554,79.0,26.0,90.0,10.0,64.0
11555,70.0,0.0,60.0,11.0,64.0
11556,67.0,80.0,60.0,12.0,64.0
11557,75.0,66.0,90.0,10.0,64.0
11558,67.0,14.0,60.0,11.0,64.0
11559,46.0,0.0,150.0,4.0,64.0
11560,58.0,42.0,150.0,4.0,64.0
11561,46.0,0.0,150.0,14.0,64.0
11562,58.0,0.0,150.0,3.0,64.0
11563,63.0,0.0,60.0,12.0,64.0
11564,58.0,0.0,150.0,13.0,64.0
11565,63.0,0.0,60.0,12.0,64.0
11566,67.0,12.0,60.0,11.0,64.0
11567,79.0,26.0,90.0,10.0,64.0
11568,63.0,80.0,60.0,12.0,64.0
11569,67.0,0.0,60.0,11.0,64.0
11570,63.0,14.0,60.0,12.0,64.0
11571,82.0,66.0,90.0,10.0,64.0
11572,67.0,0.0,60.0,11.0,64.0
11573,46.0,0.0,150.0,4.0,64.0
11574,58.0,36.0,150.0,4.0,64.0
11575,65.0,0.0,60.0,12.0,64.0
11576,69.0,12.0,60.0,11.0,64.0
11577,79.0,26.0,90.0,10.0,64.0
11578,67.0,16.0,60.0,12.0,64.0
11579,70.0,0.0,60.0,11.0,64.0
11580,66.0,0.0,900.0,2.0,64.0
11581,58.0,0.0,60.0,12.0,64.0
11582,51.0,12.0,150.0,3.0,64.0
11583,66.0,80.0,60.0,11.0,64.0
11584,39.0,0.0,150.0,14.0,64.0
11585,75.0,0.0,150.0,10.0,64.0
11586,51.0,0.0,150.0,13.0,64.0
11587,46.0,0.0,150.0,4.0,64.0
11588,75.0,0.0,900.0,0.0,64.0
11589,70.0,32.0,180.0,5.0,64.0
11590,58.0,0.0,180.0,5.0,64.0
11591,58.0,36.0,150.0,4.0,64.0
11592,46.0,0.0,180.0,6.0,64.0
11593,66.0,0.0,60.0,11.0,64.0
11594,58.0,0.0,60.0,12.0,64.0
11595,58.0,0.0,60.0,12.0,64.0
11596,66.0,80.0,60.0,11.0,64.0
11597,58.0,80.0,60.0,12.0,64.0
11598,46.0,80.0,150.0,3.0,64.0
11599,46.0,0.0,150.0,13.0,64.0
11600,66.0,0.0,60.0,11.0,64.0
11601,78.0,0.0,150.0,10.0,64.0
11602,34.0,0.0,150.0,14.0,64.0
11603,56.0,0.0,60.0,12.0,64.0
11604,65.0,0.0,60.0,11.0,64.0
11605,63.0,0.0,60.0,11.0,64.0
11606,54.0,80.0,60.0,12.0,64.0
11607,42.0,12.0,150.0,13.0,64.0
11608,30.0,0.0,150.0,14.0,64.0
11609,82.0,0.0,150.0,10.0,64.0
11610,46.0,68.0,150.0,4.0,64.0
11611,58.0,80.0,60.0,12.0,64.0
11612,66.0,0.0,60.0,11.0,64.0
11613,42.0,0.0,150.0,3.0,64.0
11614,58.0,0.0,150.0,4.0,64.0
11615,58.0,0.0,60.0,12.0,64.0
11616,66.0,0.0,60.0,11.0,64.0
11617,58.0,80.0,60.0,12.0,64.0
11618,66.0,0.0,60.0,11.0,64.0
11619,66.0,0.0,60.0,11.0,64.0
11620,58.0,36.0,150.0,4.0,64.0
11621,46.0,0.0,150.0,4.0,64.0
11622,58.0,80.0,60.0,12.0,64.0
11623,56.0,0.0,60.0,12.0,64.0
11624,65.0,12.0,60.0,11.0,64.0
11625,63.0,160.0,60.0,11.0,64.0
11626,54.0,0.0,60.0,12.0,64.0
11627,58.0,0.0,180.0,4.0,64.0
11628,62.0,12.0,180.0,4.0,64.0
11629,41.0,0.0,210.0,13.0,64.0
11630,53.0,48.0,150.0,12.0,64.0
11631,29.0,24.0,210.0,14.0,64.0
11632,74.0,0.0,240.0,1.0,64.0
11633,74.0,216.0,240.0,0.0,64.0
11634,65.0,0.0,180.0,2.0,64.0
11635,62.0,0.0,180.0,2.0,64.0
11636,62.0,0.0,150.0,11.0,64.0
11637,41.0,0.0,210.0,3.0,64.0
11638,70.0,0.0,210.0,11.0,64.0
11639,65.0,27.0,210.0,12.0,64.0
11640,74.0,0.0,210.0,11.0,64.0
11641,74.0,0.0,210.0,10.0,64.0
11642,82.0,0.0,210.0,10.0,64.0
11643,53.0,0.0,60.0,13.0,64.0
11644,41.0,201.0,60.0,14.0,64.0
11645,53.0,0.0,60.0,3.0,64.0
11646,74.0,0.0,180.0,1.0,64.0
11647,70.0,0.0,180.0,1.0,64.0
11648,43.0,0.0,210.0,14.0,64.0
11649,55.0,240.0,210.0,13.0,64.0
11650,74.0,12.0,180.0,0.0,64.0
11651,62.0,0.0,180.0,2.0,64.0
11652,82.0,0.0,180.0,0.0,64.0
11653,67.0,0.0,180.0,2.0,64.0
11654,58.0,0.0,180.0,4.0,64.0
11655,62.0,0.0,180.0,4.0,64.0
11656,55.0,0.0,210.0,3.0,64.0
11657,70.0,27.0,210.0,11.0,64.0
11658,74.0,0.0,210.0,10.0,64.0
11659,82.0,0.0,210.0,10.0,64.0
11660,67.0,0.0,210.0,12.0,64.0
11661,74.0,0.0,210.0,11.0,64.0
11662,43.0,0.0,60.0,14.0,64.0
11663,55.0,0.0,60.0,13.0,64.0
11664,55.0,201.0,60.0,3.0,64.0
11665,46.0,0.0,180.0,6.0,64.0
11666,58.0,12.0,180.0,5.0,64.0
11667,70.0,0.0,180.0,5.0,64.0
11668,58.0,0.0,180.0,4.0,64.0
11669,60.0,0.0,180.0,4.0,64.0
11670,51.0,0.0,210.0,13.0,64.0
11671,51.0,240.0,210.0,3.0,64.0
11672,39.0,0.0,210.0,14.0,64.0
11673,72.0,0.0,180.0,0.0,64.0
11674,82.0,0.0,180.0,0.0,64.0
11675,70.0,0.0,180.0,1.0,64.0
11676,72.0,0.0,180.0,1.0,64.0
11677,67.0,0.0,180.0,2.0,64.0
11678,70.0,0.0,210.0,11.0,64.0
11679,72.0,0.0,210.0,11.0,64.0
11680,67.0,0.0,210.0,12.0,64.0
11681,72.0,0.0,210.0,10.0,64.0
11682,82.0,27.0,210.0,10.0,64.0
11683,51.0,201.0,60.0,3.0,64.0
11684,51.0,0.0,60.0,13.0,64.0
11685,39.0,0.0,60.0,14.0,64.0
11686,53.0,0.0,210.0,3.0,64.0
11687,65.0,0.0,180.0,5.0,64.0
11688,53.0,0.0,180.0,4.0,64.0
11689,60.0,0.0,180.0,4.0,64.0
11690,69.0,0.0,180.0,1.0,64.0
11691,81.0,12.0,180.0,0.0,64.0
11692,72.0,0.0,180.0,1.0,64.0
11693,41.0,240.0,210.0,14.0,64.0
11694,53.0,0.0,210.0,13.0,64.0
11695,41.0,0.0,180.0,6.0,64.0
11696,65.0,0.0,180.0,2.0,64.0
11697,72.0,0.0,180.0,0.0,64.0
11698,65.0,228.0,210.0,12.0,64.0
11699,72.0,0.0,210.0,10.0,64.0
11700,81.0,0.0,210.0,10.0,64.0
11701,69.0,0.0,210.0,11.0,64.0
11702,72.0,0.0,210.0,11.0,64.0
11703,53.0,0.0,60.0,11.0,64.0
11704,65.0,120.0,60.0,10.0,64.0
11705,55.0,0.0,60.0,11.0,64.0
11706,67.0,120.0,60.0,10.0,64.0
11707,57.0,120.0,60.0,11.0,64.0
11708,45.0,0.0,60.0,12.0,64.0
11709,69.0,0.0,60.0,10.0,64.0
11710,46.0,0.0,60.0,12.0,64.0
11711,58.0,120.0,60.0,11.0,64.0
11712,70.0,0.0,60.0,10.0,64.0
11713,60.0,120.0,60.0,11.0,64.0
11714,48.0,0.0,60.0,12.0,64.0
11715,72.0,0.0,60.0,10.0,64.0
11716,74.0,0.0,60.0,10.0,64.0
11717,50.0,120.0,60.0,12.0,64.0
11718,62.0,0.0,60.0,11.0,64.0
11719,75.0,0.0,60.0,10.0,64.0
11720,63.0,0.0,60.0,11.0,64.0
11721,51.0,288.0,60.0,12.0,64.0
11722,77.0,0.0,240.0,10.0,64.0
11723,65.0,240.0,240.0,11.0,64.0
11724,53.0,0.0,240.0,12.0,64.0
11725,70.0,240.0,240.0,11.0,64.0
11726,82.0,0.0,240.0,10.0,64.0
11727,58.0,0.0,240.0,12.0,64.0
11728,57.0,0.0,240.0,12.0,64.0
11729,69.0,192.0,240.0,11.0,64.0
11730,81.0,0.0,240.0,10.0,64.0
11731,55.0,0.0,180.0,12.0,64.0
11732,79.0,288.0,180.0,10.0,64.0
11733,67.0,0.0,180.0,11.0,64.0
11734,53.0,0.0,240.0,12.0,64.0
11735,65.0,0.0,240.0,11.0,64.0
11736,77.0,240.0,240.0,10.0,64.0
11737,52.0,240.0,240.0,12.0,64.0
11738,36.0,0.0,240.0,14.0,64.0
11739,48.0,0.0,240.0,3.0,64.0
11740,64.0,0.0,240.0,11.0,64.0
11741,76.0,0.0,240.0,10.0,64.0
11742,48.0,0.0,240.0,13.0,64.0
11743,48.0,0.0,240.0,14.0,64.0
11744,63.0,0.0,570.0,11.0,64.0
11745,60.0,240.0,240.0,3.0,64.0
11746,51.0,120.0,570.0,12.0,64.0
11747,60.0,0.0,240.0,13.0,64.0
11748,75.0,0.0,570.0,10.0,64.0
11749,58.0,0.0,240.0,3.0,64.0
11750,46.0,0.0,240.0,14.0,64.0
11751,58.0,78.0,240.0,13.0,64.0
11752,45.0,0.0,780.0,14.0,64.0
11753,57.0,30.0,780.0,3.0,64.0
11754,57.0,0.0,780.0,13.0,64.0
11755,57.0,120.0,90.0,12.0,64.0
11756,69.0,0.0,90.0,11.0,64.0
11757,81.0,0.0,90.0,10.0,64.0
11758,60.0,120.0,90.0,12.0,64.0
11759,84.0,0.0,90.0,10.0,64.0
11760,72.0,0.0,90.0,11.0,64.0
11761,70.0,0.0,90.0,11.0,64.0
11762,82.0,0.0,90.0,10.0,64.0
11763,58.0,120.0,90.0,12.0,64.0
11764,57.0,0.0,90.0,12.0,64.0
11765,69.0,120.0,90.0,11.0,64.0
11766,81.0,0.0,90.0,10.0,64.0
11767,79.0,90.0,90.0,10.0,64.0
11768,67.0,0.0,90.0,11.0,64.0
11769,55.0,0.0,90.0,12.0,64.0
11770,65.0,0.0,90.0,11.0,64.0
11771,77.0,0.0,90.0,10.0,64.0
11772,53.0,120.0,90.0,12.0,64.0
11773,51.0,0.0,90.0,12.0,64.0
11774,75.0,120.0,90.0,10.0,64.0
11775,63.0,0.0,90.0,11.0,64.0
11776,50.0,0.0,90.0,12.0,64.0
11777,62.0,120.0,90.0,11.0,64.0
11778,74.0,0.0,90.0,10.0,64.0
11779,51.0,120.0,90.0,12.0,64.0
11780,75.0,0.0,90.0,10.0,64.0
11781,63.0,0.0,90.0,11.0,64.0
11782,46.0,0.0,240.0,14.0,64.0
11783,65.0,0.0,90.0,11.0,64.0
11784,77.0,0.0,90.0,10.0,64.0
11785,58.0,0.0,240.0,13.0,64.0
11786,58.0,240.0,240.0,3.0,64.0
11787,53.0,120.0,90.0,12.0,64.0
11788,67.0,0.0,90.0,11.0,64.0
11789,79.0,42.0,90.0,10.0,64.0
11790,55.0,0.0,90.0,12.0,64.0
11791,56.0,120.0,570.0,12.0,64.0
11792,53.0,240.0,240.0,13.0,64.0
11793,41.0,0.0,240.0,14.0,64.0
11794,68.0,0.0,570.0,11.0,64.0
11795,80.0,0.0,570.0,10.0,64.0
11796,53.0,0.0,240.0,3.0,64.0
11797,51.0,0.0,240.0,3.0,64.0
11798,51.0,78.0,240.0,13.0,64.0
11799,39.0,0.0,240.0,14.0,64.0
11800,38.0,0.0,960.0,14.0,64.0
11801,50.0,78.0,960.0,3.0,64.0
11802,50.0,0.0,960.0,13.0,64.0
11803,55.0,0.0,90.0,12.0,64.0
11804,79.0,0.0,90.0,10.0,64.0
11805,67.0,120.0,90.0,11.0,64.0
11806,53.0,120.0,90.0,12.0,64.0
11807,65.0,0.0,90.0,11.0,64.0
11808,77.0,0.0,90.0,10.0,64.0
11809,51.0,0.0,90.0,12.0,64.0
11810,75.0,0.0,90.0,10.0,64.0
11811,63.0,120.0,90.0,11.0,64.0
11812,74.0,0.0,90.0,10.0,64.0
11813,50.0,0.0,90.0,12.0,64.0
11814,62.0,120.0,90.0,11.0,64.0
11815,72.0,0.0,90.0,10.0,64.0
11816,48.0,120.0,90.0,12.0,64.0
11817,60.0,0.0,90.0,11.0,64.0
11818,58.0,120.0,90.0,11.0,64.0
11819,46.0,0.0,90.0,12.0,64.0
11820,70.0,0.0,90.0,10.0,64.0
11821,68.0,42.0,90.0,11.0,64.0
11822,56.0,0.0,90.0,12.0,64.0
11823,80.0,0.0,90.0,10.0,64.0
11824,55.0,114.0,90.0,12.0,64.0
11825,39.0,6.0,180.0,14.0,64.0
11826,51.0,0.0,180.0,13.0,64.0
11827,51.0,0.0,180.0,3.0,64.0
11828,79.0,0.0,90.0,10.0,64.0
11829,67.0,0.0,90.0,11.0,64.0
11830,66.0,120.0,90.0,11.0,64.0
11831,54.0,0.0,90.0,12.0,64.0
11832,78.0,0.0,90.0,10.0,64.0
11833,79.0,120.0,90.0,10.0,64.0
11834,67.0,0.0,90.0,11.0,64.0
11835,55.0,0.0,90.0,12.0,64.0
11836,66.0,0.0,90.0,11.0,64.0
11837,78.0,120.0,90.0,10.0,64.0
11838,54.0,0.0,90.0,12.0,64.0
11839,67.0,0.0,90.0,11.0,64.0
11840,79.0,0.0,90.0,10.0,64.0
11841,55.0,120.0,90.0,12.0,64.0
11842,62.0,120.0,90.0,11.0,64.0
11843,74.0,0.0,90.0,10.0,64.0
11844,50.0,0.0,90.0,12.0,64.0
11845,51.0,120.0,90.0,12.0,64.0
11846,75.0,0.0,90.0,10.0,64.0
11847,63.0,0.0,90.0,11.0,64.0
11848,62.0,0.0,90.0,11.0,64.0
11849,50.0,120.0,90.0,12.0,64.0
11850,74.0,0.0,90.0,10.0,64.0
11851,75.0,120.0,90.0,10.0,64.0
11852,51.0,0.0,90.0,12.0,64.0
11853,63.0,0.0,90.0,11.0,64.0
11854,47.0,0.0,90.0,12.0,64.0
11855,59.0,120.0,90.0,11.0,64.0
11856,71.0,0.0,90.0,10.0,64.0
11857,60.0,120.0,90.0,11.0,64.0
11858,48.0,0.0,90.0,12.0,64.0
11859,72.0,0.0,90.0,10.0,64.0
11860,47.0,0.0,90.0,12.0,64.0
11861,59.0,120.0,90.0,11.0,64.0
11862,71.0,0.0,90.0,10.0,64.0
11863,72.0,120.0,90.0,10.0,64.0
11864,48.0,0.0,90.0,12.0,64.0
11865,60.0,0.0,90.0,11.0,64.0
11866,62.0,0.0,90.0,11.0,64.0
11867,74.0,0.0,90.0,10.0,64.0
11868,50.0,120.0,90.0,12.0,64.0
11869,63.0,0.0,90.0,11.0,64.0
11870,75.0,0.0,90.0,10.0,64.0
11871,51.0,120.0,90.0,12.0,64.0
11872,50.0,0.0,90.0,12.0,64.0
11873,62.0,0.0,90.0,11.0,64.0
11874,74.0,120.0,90.0,10.0,64.0
11875,63.0,0.0,90.0,11.0,64.0
11876,51.0,0.0,90.0,12.0,64.0
11877,75.0,120.0,90.0,10.0,64.0
11878,78.0,0.0,90.0,10.0,64.0
11879,66.0,120.0,90.0,11.0,64.0
11880,54.0,0.0,90.0,12.0,64.0
11881,79.0,0.0,90.0,10.0,64.0
11882,67.0,120.0,90.0,11.0,64.0
11883,55.0,0.0,90.0,12.0,64.0
11884,77.0,0.0,90.0,10.0,64.0
11885,53.0,0.0,90.0,12.0,64.0
11886,65.0,120.0,90.0,11.0,64.0
11887,79.0,0.0,90.0,10.0,64.0
11888,67.0,0.0,90.0,11.0,64.0
11889,55.0,120.0,90.0,12.0,64.0
11890,81.0,0.0,90.0,10.0,64.0
11891,57.0,0.0,90.0,12.0,64.0
11892,69.0,102.0,90.0,11.0,64.0
11893,70.0,120.0,90.0,11.0,64.0
11894,63.0,0.0,60.0,2.0,64.0
11895,65.0,0.0,60.0,2.0,64.0
11896,82.0,0.0,90.0,10.0,64.0
11897,60.0,12.0,60.0,4.0,64.0
11898,75.0,0.0,60.0,1.0,64.0
11899,72.0,0.0,60.0,1.0,64.0
11900,77.0,6.0,60.0,0.0,64.0
11901,58.0,0.0,90.0,12.0,64.0
11902,57.0,0.0,90.0,12.0,64.0
11903,81.0,0.0,90.0,10.0,64.0
11904,69.0,120.0,90.0,11.0,64.0
11905,74.0,0.0,90.0,1.0,64.0
11906,70.0,0.0,90.0,11.0,64.0
11907,70.0,0.0,90.0,1.0,64.0
11908,62.0,0.0,90.0,4.0,64.0
11909,65.0,0.0,90.0,2.0,64.0
11910,77.0,0.0,90.0,0.0,64.0
11911,62.0,0.0,90.0,2.0,64.0
11912,82.0,12.0,90.0,10.0,64.0
11913,58.0,0.0,90.0,12.0,64.0
11914,58.0,108.0,90.0,4.0,64.0
11915,77.0,0.0,90.0,10.0,64.0
11916,53.0,120.0,90.0,12.0,64.0
11917,65.0,0.0,90.0,11.0,64.0
11918,75.0,0.0,90.0,1.0,64.0
11919,72.0,0.0,90.0,1.0,64.0
11920,57.0,0.0,90.0,12.0,64.0
11921,53.0,0.0,90.0,4.0,64.0
11922,65.0,0.0,90.0,2.0,64.0
11923,63.0,0.0,90.0,2.0,64.0
11924,81.0,0.0,90.0,10.0,64.0
11925,77.0,108.0,90.0,0.0,64.0
11926,69.0,12.0,90.0,11.0,64.0
11927,60.0,0.0,90.0,4.0,64.0
11928,53.0,120.0,90.0,12.0,64.0
11929,77.0,0.0,90.0,10.0,64.0
11930,65.0,0.0,90.0,11.0,64.0
11931,58.0,0.0,90.0,4.0,64.0
11932,82.0,12.0,90.0,10.0,64.0
11933,70.0,0.0,90.0,1.0,64.0
11934,65.0,108.0,90.0,2.0,64.0
11935,62.0,0.0,90.0,2.0,64.0
11936,77.0,0.0,90.0,0.0,64.0
11937,58.0,0.0,90.0,12.0,64.0
11938,70.0,0.0,90.0,11.0,64.0
11939,74.0,0.0,90.0,1.0,64.0
11940,62.0,0.0,90.0,4.0,64.0
11941,77.0,0.0,90.0,10.0,64.0
11942,53.0,0.0,90.0,12.0,64.0
11943,65.0,120.0,90.0,11.0,64.0
11944,77.0,0.0,90.0,0.0,64.0
11945,65.0,0.0,90.0,2.0,64.0
11946,63.0,108.0,90.0,2.0,64.0
11947,57.0,12.0,90.0,12.0,64.0
11948,53.0,0.0,90.0,4.0,64.0
11949,75.0,0.0,90.0,1.0,64.0
11950,72.0,0.0,90.0,1.0,64.0
11951,69.0,0.0,90.0,11.0,64.0
11952,81.0,0.0,90.0,10.0,64.0
11953,60.0,0.0,90.0,4.0,64.0
11954,77.0,0.0,90.0,10.0,64.0
11955,65.0,0.0,90.0,11.0,64.0
11956,53.0,120.0,90.0,12.0,64.0
11957,70.0,12.0,90.0,11.0,64.0
11958,82.0,0.0,90.0,10.0,64.0
11959,74.0,0.0,90.0,1.0,64.0
11960,70.0,0.0,90.0,1.0,64.0
11961,62.0,0.0,90.0,2.0,64.0
11962,65.0,0.0,90.0,2.0,64.0
11963,62.0,0.0,90.0,4.0,64.0
11964,58.0,0.0,90.0,4.0,64.0
11965,58.0,0.0,90.0,12.0,64.0
11966,77.0,108.0,90.0,0.0,64.0
11967,53.0,0.0,90.0,12.0,64.0
11968,65.0,0.0,90.0,11.0,64.0
11969,77.0,120.0,90.0,10.0,64.0
11970,63.0,0.0,90.0,2.0,64.0
11971,57.0,0.0,90.0,12.0,64.0
11972,60.0,0.0,90.0,4.0,64.0
11973,53.0,108.0,90.0,4.0,64.0
11974,65.0,0.0,90.0,2.0,64.0
11975,81.0,0.0,90.0,10.0,64.0
11976,77.0,0.0,90.0,0.0,64.0
11977,69.0,12.0,90.0,11.0,64.0
11978,75.0,0.0,90.0,1.0,64.0
11979,72.0,0.0,90.0,1.0,64.0
11980,65.0,0.0,90.0,11.0,64.0
11981,53.0,0.0,90.0,12.0,64.0
11982,77.0,120.0,90.0,10.0,64.0
11983,58.0,108.0,90.0,4.0,64.0
11984,62.0,0.0,90.0,4.0,64.0
11985,58.0,12.0,90.0,12.0,64.0
11986,70.0,0.0,90.0,11.0,64.0
11987,65.0,0.0,90.0,2.0,64.0
11988,82.0,0.0,90.0,10.0,64.0
11989,74.0,0.0,90.0,1.0,64.0
11990,70.0,0.0,90.0,1.0,64.0
11991,77.0,0.0,90.0,0.0,64.0
11992,62.0,0.0,90.0,2.0,64.0
11993,53.0,0.0,90.0,12.0,64.0
11994,77.0,120.0,90.0,10.0,64.0
11995,65.0,0.0,90.0,11.0,64.0
11996,41.0,102.0,90.0,14.0,64.0
11997,69.0,0.0,90.0,11.0,64.0
11998,53.0,0.0,90.0,4.0,64.0
11999,60.0,0.0,90.0,4.0,64.0
12000,72.0,0.0,90.0,1.0,64.0
12001,75.0,0.0,90.0,1.0,64.0
12002,81.0,12.0,90.0,10.0,64.0
12003,57.0,0.0,90.0,12.0,64.0
12004,53.0,0.0,90.0,3.0,64.0
12005,53.0,0.0,90.0,13.0,64.0
12006,63.0,0.0,90.0,2.0,64.0
12007,77.0,0.0,90.0,0.0,64.0
12008,65.0,6.0,90.0,2.0,64.0
12009,53.0,120.0,90.0,12.0,64.0
12010,65.0,0.0,90.0,11.0,64.0
12011,77.0,0.0,90.0,10.0,64.0
12012,62.0,6.0,90.0,4.0,64.0
12013,65.0,0.0,90.0,2.0,64.0
12014,62.0,0.0,90.0,2.0,64.0
12015,82.0,0.0,90.0,10.0,64.0
12016,46.0,0.0,90.0,13.0,64.0
12017,46.0,0.0,90.0,3.0,64.0
12018,70.0,0.0,90.0,11.0,64.0
12019,77.0,0.0,90.0,0.0,64.0
12020,58.0,12.0,90.0,12.0,64.0
12021,74.0,0.0,90.0,1.0,64.0
12022,70.0,0.0,90.0,1.0,64.0
12023,34.0,102.0,90.0,14.0,64.0
12024,58.0,0.0,90.0,4.0,64.0
12025,65.0,120.0,90.0,11.0,64.0
12026,53.0,0.0,90.0,12.0,64.0
12027,77.0,0.0,90.0,10.0,64.0
12028,63.0,0.0,90.0,2.0,64.0
12029,65.0,0.0,90.0,2.0,64.0
12030,57.0,12.0,90.0,12.0,64.0
12031,53.0,102.0,90.0,13.0,64.0
12032,41.0,0.0,90.0,14.0,64.0
12033,69.0,0.0,90.0,11.0,64.0
12034,75.0,6.0,90.0,1.0,64.0
12035,72.0,0.0,90.0,1.0,64.0
12036,77.0,0.0,90.0,0.0,64.0
12037,60.0,0.0,90.0,4.0,64.0
12038,53.0,0.0,90.0,4.0,64.0
12039,81.0,0.0,90.0,10.0,64.0
12040,53.0,0.0,90.0,3.0,64.0
12041,65.0,0.0,90.0,11.0,64.0
12042,77.0,0.0,90.0,10.0,64.0
12043,53.0,120.0,90.0,12.0,64.0
12044,77.0,0.0,90.0,0.0,64.0
12045,74.0,0.0,90.0,1.0,64.0
12046,62.0,0.0,90.0,4.0,64.0
12047,58.0,0.0,90.0,4.0,64.0
12048,70.0,12.0,90.0,11.0,64.0
12049,70.0,6.0,90.0,1.0,64.0
12050,82.0,0.0,90.0,10.0,64.0
12051,46.0,0.0,90.0,3.0,64.0
12052,34.0,0.0,90.0,14.0,64.0
12053,62.0,0.0,90.0,2.0,64.0
12054,65.0,0.0,90.0,2.0,64.0
12055,46.0,102.0,90.0,13.0,64.0
12056,58.0,0.0,90.0,12.0,64.0
12057,77.0,0.0,90.0,10.0,64.0
12058,53.0,0.0,90.0,12.0,64.0
12059,65.0,120.0,90.0,11.0,64.0
12060,53.0,0.0,90.0,3.0,64.0
12061,65.0,0.0,90.0,2.0,64.0
12062,60.0,0.0,90.0,4.0,64.0
12063,69.0,0.0,90.0,11.0,64.0
12064,63.0,6.0,90.0,2.0,64.0
12065,77.0,0.0,90.0,0.0,64.0
12066,53.0,0.0,90.0,13.0,64.0
12067,65.0,102.0,90.0,5.0,64.0
12068,57.0,0.0,90.0,12.0,64.0
12069,72.0,0.0,90.0,1.0,64.0
12070,41.0,0.0,90.0,6.0,64.0
12071,53.0,0.0,90.0,4.0,64.0
12072,41.0,0.0,90.0,14.0,64.0
12073,75.0,0.0,90.0,1.0,64.0
12074,81.0,12.0,90.0,10.0,64.0
12075,53.0,0.0,90.0,12.0,64.0
12076,77.0,0.0,90.0,10.0,64.0
12077,65.0,120.0,90.0,11.0,64.0
12078,70.0,0.0,90.0,5.0,64.0
12079,70.0,6.0,90.0,1.0,64.0
12080,74.0,0.0,90.0,1.0,64.0
12081,65.0,0.0,90.0,2.0,64.0
12082,46.0,0.0,90.0,13.0,64.0
12083,58.0,0.0,90.0,5.0,64.0
12084,77.0,0.0,90.0,0.0,64.0
12085,70.0,0.0,90.0,11.0,64.0
12086,62.0,0.0,90.0,2.0,64.0
12087,46.0,0.0,90.0,3.0,64.0
12088,82.0,0.0,90.0,10.0,64.0
12089,58.0,0.0,90.0,4.0,64.0
12090,46.0,0.0,90.0,6.0,64.0
12091,58.0,12.0,90.0,12.0,64.0
12092,62.0,0.0,90.0,4.0,64.0
12093,34.0,102.0,90.0,14.0,64.0
12094,53.0,0.0,90.0,12.0,64.0
12095,65.0,120.0,90.0,11.0,64.0
12096,77.0,0.0,90.0,10.0,64.0
12097,65.0,0.0,90.0,2.0,64.0
12098,63.0,0.0,90.0,2.0,64.0
12099,57.0,0.0,90.0,12.0,64.0
12100,81.0,12.0,90.0,10.0,64.0
12101,60.0,0.0,90.0,4.0,64.0
12102,53.0,0.0,90.0,4.0,64.0
12103,69.0,0.0,90.0,11.0,64.0
12104,41.0,0.0,90.0,14.0,64.0
12105,53.0,102.0,90.0,3.0,64.0
12106,72.0,0.0,90.0,1.0,64.0
12107,41.0,0.0,90.0,6.0,64.0
12108,77.0,0.0,90.0,0.0,64.0
12109,53.0,0.0,90.0,13.0,64.0
12110,65.0,0.0,90.0,5.0,64.0
12111,75.0,6.0,90.0,1.0,64.0
12112,65.0,0.0,90.0,11.0,64.0
12113,53.0,0.0,90.0,12.0,64.0
12114,77.0,120.0,90.0,10.0,64.0
12115,70.0,0.0,90.0,5.0,64.0
12116,58.0,0.0,90.0,5.0,64.0
12117,82.0,0.0,90.0,10.0,64.0
12118,46.0,102.0,90.0,3.0,64.0
12119,58.0,0.0,90.0,12.0,64.0
12120,58.0,0.0,90.0,4.0,64.0
12121,62.0,0.0,90.0,4.0,64.0
12122,70.0,12.0,90.0,11.0,64.0
12123,46.0,0.0,90.0,6.0,64.0
12124,77.0,0.0,90.0,0.0,64.0
12125,34.0,0.0,90.0,14.0,64.0
12126,74.0,0.0,90.0,1.0,64.0
12127,46.0,0.0,90.0,13.0,64.0
12128,70.0,0.0,90.0,1.0,64.0
12129,65.0,6.0,90.0,2.0,64.0
12130,62.0,0.0,90.0,2.0,64.0
12131,77.0,120.0,90.0,10.0,64.0
12132,53.0,0.0,90.0,12.0,64.0
12133,65.0,0.0,90.0,11.0,64.0
12134,65.0,0.0,90.0,5.0,64.0
12135,41.0,0.0,90.0,14.0,64.0
12136,81.0,0.0,90.0,10.0,64.0
12137,41.0,102.0,90.0,6.0,64.0
12138,53.0,0.0,90.0,4.0,64.0
12139,60.0,0.0,90.0,4.0,64.0
12140,77.0,6.0,90.0,0.0,64.0
12141,75.0,0.0,90.0,1.0,64.0
12142,53.0,0.0,90.0,13.0,64.0
12143,72.0,0.0,90.0,1.0,64.0
12144,65.0,0.0,90.0,2.0,64.0
12145,63.0,0.0,90.0,2.0,64.0
12146,69.0,12.0,90.0,11.0,64.0
12147,57.0,0.0,90.0,12.0,64.0
12148,53.0,0.0,90.0,3.0,64.0
12149,53.0,0.0,90.0,12.0,64.0
12150,65.0,0.0,90.0,11.0,64.0
12151,77.0,106.0,90.0,10.0,64.0
12152,82.0,64.0,4800.0,0.0,64.0
12153,65.0,0.0,1920.0,2.0,64.0
12154,74.0,0.0,1920.0,1.0,64.0
12155,70.0,0.0,150.0,5.0,64.0
12156,34.0,0.0,60.0,14.0,64.0
12157,70.0,0.0,4800.0,1.0,64.0
12158,46.0,80.0,60.0,13.0,64.0
12159,62.0,0.0,60.0,12.0,64.0
12160,82.0,0.0,150.0,10.0,64.0
12161,58.0,0.0,150.0,5.0,64.0
12162,62.0,0.0,1920.0,2.0,64.0
12163,46.0,32.0,180.0,6.0,64.0
12164,46.0,36.0,150.0,4.0,64.0
12165,58.0,0.0,180.0,11.0,64.0
12166,46.0,0.0,60.0,3.0,64.0
12167,70.0,0.0,180.0,11.0,64.0
12168,58.0,0.0,150.0,4.0,64.0
12169,77.0,64.0,1920.0,0.0,64.0
12170,46.0,0.0,60.0,3.0,64.0
12171,46.0,12.0,60.0,13.0,64.0
12172,62.0,0.0,60.0,12.0,64.0
12173,34.0,0.0,60.0,14.0,64.0
12174,46.0,0.0,60.0,13.0,64.0
12175,62.0,80.0,60.0,12.0,64.0
12176,46.0,0.0,60.0,3.0,64.0
12177,34.0,0.0,60.0,14.0,64.0
12178,62.0,0.0,60.0,12.0,64.0
12179,46.0,0.0,60.0,13.0,64.0
12180,62.0,68.0,150.0,5.0,64.0
12181,34.0,0.0,60.0,14.0,64.0
12182,46.0,80.0,60.0,3.0,64.0
12183,74.0,0.0,150.0,10.0,64.0
12184,63.0,0.0,60.0,12.0,64.0
12185,48.0,12.0,60.0,3.0,64.0
12186,48.0,0.0,60.0,13.0,64.0
12187,36.0,0.0,60.0,14.0,64.0
12188,50.0,0.0,60.0,3.0,64.0
12189,65.0,0.0,60.0,12.0,64.0
12190,38.0,80.0,60.0,14.0,64.0
12191,50.0,0.0,60.0,13.0,64.0
12192,58.0,0.0,150.0,4.0,64.0
12193,46.0,0.0,60.0,13.0,64.0
12194,65.0,0.0,150.0,5.0,64.0
12195,46.0,68.0,150.0,4.0,64.0
12196,77.0,12.0,150.0,10.0,64.0
12197,34.0,80.0,60.0,14.0,64.0
12198,62.0,0.0,60.0,12.0,64.0
12199,70.0,0.0,150.0,11.0,64.0
12200,58.0,0.0,150.0,11.0,64.0
12201,46.0,0.0,60.0,3.0,64.0
12202,46.0,0.0,60.0,3.0,64.0
12203,62.0,0.0,60.0,12.0,64.0
12204,46.0,0.0,60.0,13.0,64.0
12205,34.0,0.0,60.0,14.0,64.0
12206,46.0,0.0,60.0,3.0,64.0
12207,34.0,80.0,60.0,14.0,64.0
12208,62.0,0.0,60.0,12.0,64.0
12209,46.0,0.0,60.0,13.0,64.0
12210,46.0,0.0,150.0,4.0,64.0
12211,34.0,80.0,60.0,14.0,64.0
12212,62.0,0.0,60.0,12.0,64.0
12213,58.0,68.0,150.0,4.0,64.0
12214,46.0,0.0,60.0,13.0,64.0
12215,74.0,0.0,150.0,11.0,64.0
12216,46.0,0.0,60.0,3.0,64.0
12217,48.0,0.0,60.0,13.0,64.0
12218,63.0,0.0,60.0,12.0,64.0
12219,48.0,12.0,60.0,3.0,64.0
12220,36.0,0.0,60.0,14.0,64.0
12221,65.0,80.0,60.0,12.0,64.0
12222,50.0,0.0,60.0,13.0,64.0
12223,38.0,0.0,60.0,14.0,64.0
12224,50.0,0.0,60.0,3.0,64.0
12225,70.0,0.0,150.0,10.0,64.0
12226,46.0,32.0,180.0,6.0,64.0
12227,46.0,0.0,60.0,13.0,64.0
12228,34.0,0.0,60.0,14.0,64.0
12229,58.0,0.0,150.0,10.0,64.0
12230,46.0,80.0,60.0,3.0,64.0
12231,46.0,0.0,150.0,4.0,64.0
12232,62.0,0.0,60.0,12.0,64.0
12233,77.0,0.0,150.0,11.0,64.0
12234,58.0,36.0,150.0,5.0,64.0
12235,58.0,0.0,150.0,4.0,64.0
12236,34.0,0.0,60.0,14.0,64.0
12237,62.0,0.0,60.0,12.0,64.0
12238,46.0,12.0,60.0,13.0,64.0
12239,46.0,0.0,60.0,3.0,64.0
12240,62.0,0.0,60.0,12.0,64.0
12241,46.0,0.0,60.0,3.0,64.0
12242,34.0,80.0,60.0,14.0,64.0
12243,46.0,0.0,60.0,13.0,64.0
12244,62.0,68.0,150.0,5.0,64.0
12245,46.0,80.0,60.0,3.0,64.0
12246,46.0,0.0,60.0,13.0,64.0
12247,62.0,0.0,60.0,12.0,64.0
12248,34.0,0.0,60.0,14.0,64.0
12249,74.0,0.0,150.0,10.0,64.0
12250,63.0,12.0,60.0,12.0,64.0
12251,36.0,0.0,60.0,14.0,64.0
12252,48.0,0.0,60.0,3.0,64.0
12253,48.0,0.0,60.0,13.0,64.0
12254,50.0,0.0,60.0,3.0,64.0
12255,38.0,0.0,60.0,14.0,64.0
12256,50.0,0.0,60.0,13.0,64.0
12257,65.0,80.0,60.0,12.0,64.0
12258,34.0,0.0,60.0,14.0,64.0
12259,77.0,0.0,150.0,10.0,64.0
12260,65.0,0.0,150.0,5.0,64.0
12261,70.0,0.0,150.0,11.0,64.0
12262,58.0,0.0,150.0,11.0,64.0
12263,46.0,0.0,60.0,3.0,64.0
12264,46.0,80.0,60.0,13.0,64.0
12265,62.0,0.0,60.0,12.0,64.0
12266,46.0,0.0,150.0,4.0,64.0
12267,58.0,68.0,150.0,4.0,64.0
12268,62.0,0.0,60.0,12.0,64.0
12269,34.0,0.0,60.0,14.0,64.0
12270,46.0,12.0,60.0,3.0,64.0
12271,46.0,0.0,60.0,13.0,64.0
12272,46.0,0.0,60.0,13.0,64.0
12273,34.0,0.0,60.0,14.0,64.0
12274,46.0,0.0,60.0,3.0,64.0
12275,62.0,80.0,60.0,12.0,64.0
12276,58.0,0.0,150.0,4.0,64.0
12277,46.0,68.0,150.0,4.0,64.0
12278,46.0,80.0,60.0,13.0,64.0
12279,46.0,0.0,60.0,3.0,64.0
12280,65.0,12.0,150.0,11.0,64.0
12281,34.0,0.0,60.0,14.0,64.0
12282,62.0,0.0,60.0,12.0,64.0
12283,48.0,0.0,60.0,3.0,64.0
12284,36.0,0.0,60.0,14.0,64.0
12285,63.0,0.0,60.0,12.0,64.0
12286,48.0,0.0,60.0,13.0,64.0
12287,38.0,16.0,60.0,14.0,64.0
12288,65.0,0.0,60.0,12.0,64.0
12289,50.0,0.0,60.0,3.0,64.0
12290,50.0,0.0,60.0,13.0,64.0
12291,51.0,0.0,150.0,3.0,64.0
12292,75.0,0.0,1920.0,1.0,64.0
12293,46.0,0.0,150.0,4.0,64.0
12294,63.0,64.0,1920.0,2.0,64.0
12295,58.0,36.0,150.0,5.0,64.0
12296,67.0,0.0,960.0,2.0,64.0
12297,39.0,0.0,150.0,14.0,64.0
12298,58.0,0.0,150.0,4.0,64.0
12299,70.0,0.0,150.0,5.0,64.0
12300,79.0,64.0,960.0,0.0,64.0
12301,75.0,66.0,90.0,10.0,64.0
12302,46.0,6.0,180.0,6.0,64.0
12303,67.0,0.0,60.0,11.0,64.0
12304,51.0,0.0,150.0,13.0,64.0
12305,63.0,14.0,60.0,12.0,64.0
12306,67.0,12.0,60.0,11.0,64.0
12307,63.0,0.0,60.0,12.0,64.0
12308,79.0,26.0,90.0,10.0,64.0
12309,67.0,0.0,60.0,11.0,64.0
12310,63.0,80.0,60.0,12.0,64.0
12311,67.0,0.0,60.0,11.0,64.0
12312,55.0,0.0,150.0,3.0,64.0
12313,55.0,0.0,150.0,13.0,64.0
12314,63.0,14.0,60.0,12.0,64.0
12315,82.0,66.0,90.0,10.0,64.0
12316,43.0,54.0,150.0,14.0,64.0
12317,69.0,0.0,60.0,11.0,64.0
12318,65.0,0.0,60.0,12.0,64.0
12319,79.0,26.0,90.0,10.0,64.0
12320,67.0,80.0,60.0,12.0,64.0
12321,70.0,0.0,60.0,11.0,64.0
12322,58.0,0.0,150.0,13.0,64.0
12323,58.0,0.0,150.0,3.0,64.0
12324,67.0,14.0,60.0,11.0,64.0
12325,46.0,12.0,150.0,14.0,64.0
12326,75.0,66.0,90.0,10.0,64.0
12327,63.0,0.0,60.0,12.0,64.0
12328,46.0,42.0,150.0,4.0,64.0
12329,58.0,0.0,150.0,4.0,64.0
12330,63.0,0.0,60.0,12.0,64.0
12331,67.0,0.0,60.0,11.0,64.0
12332,79.0,26.0,90.0,10.0,64.0
12333,67.0,0.0,60.0,11.0,64.0
12334,63.0,80.0,60.0,12.0,64.0
12335,58.0,0.0,90.0,5.0,64.0
12336,70.0,18.0,90.0,5.0,64.0
12337,82.0,0.0,90.0,10.0,64.0
12338,58.0,42.0,150.0,4.0,64.0
12339,46.0,0.0,150.0,4.0,64.0
12340,67.0,14.0,60.0,11.0,64.0
12341,46.0,48.0,90.0,6.0,64.0
12342,63.0,0.0,60.0,12.0,64.0
12343,65.0,0.0,60.0,12.0,64.0
12344,69.0,12.0,60.0,11.0,64.0
12345,58.0,0.0,90.0,5.0,64.0
12346,46.0,8.0,90.0,6.0,64.0
12347,70.0,0.0,90.0,5.0,64.0
12348,79.0,18.0,90.0,10.0,64.0
12349,67.0,16.0,60.0,12.0,64.0
12350,70.0,0.0,60.0,11.0,64.0
12351,46.0,32.0,180.0,6.0,64.0
12352,51.0,0.0,150.0,13.0,64.0
12353,51.0,0.0,150.0,3.0,64.0
12354,70.0,0.0,960.0,2.0,64.0
12355,58.0,36.0,150.0,4.0,64.0
12356,46.0,0.0,150.0,4.0,64.0
12357,66.0,80.0,60.0,12.0,64.0
12358,75.0,0.0,150.0,10.0,64.0
12359,75.0,0.0,60.0,11.0,64.0
12360,39.0,12.0,150.0,14.0,64.0
12361,70.0,0.0,150.0,5.0,64.0
12362,75.0,0.0,960.0,0.0,64.0
12363,58.0,0.0,150.0,5.0,64.0
12364,66.0,0.0,60.0,12.0,64.0
12365,75.0,0.0,60.0,11.0,64.0
12366,75.0,0.0,60.0,11.0,64.0
12367,66.0,80.0,60.0,12.0,64.0
12368,66.0,80.0,60.0,12.0,64.0
12369,78.0,0.0,150.0,10.0,64.0
12370,46.0,80.0,150.0,3.0,64.0
12371,34.0,0.0,150.0,14.0,64.0
12372,46.0,0.0,150.0,13.0,64.0
12373,75.0,0.0,60.0,11.0,64.0
12374,65.0,0.0,60.0,12.0,64.0
12375,77.0,0.0,60.0,11.0,64.0
12376,78.0,80.0,60.0,11.0,64.0
12377,63.0,0.0,60.0,12.0,64.0
12378,42.0,0.0,150.0,3.0,64.0
12379,66.0,0.0,60.0,12.0,64.0
12380,82.0,0.0,150.0,10.0,64.0
12381,58.0,0.0,150.0,4.0,64.0
12382,46.0,68.0,150.0,4.0,64.0
12383,30.0,0.0,150.0,14.0,64.0
12384,75.0,80.0,60.0,11.0,64.0
12385,42.0,12.0,150.0,13.0,64.0
12386,66.0,0.0,60.0,12.0,64.0
12387,75.0,0.0,60.0,11.0,64.0
12388,75.0,0.0,60.0,11.0,64.0
12389,66.0,80.0,60.0,12.0,64.0
12390,58.0,0.0,90.0,5.0,64.0
12391,66.0,0.0,60.0,12.0,64.0
12392,70.0,18.0,90.0,5.0,64.0
12393,46.0,48.0,90.0,6.0,64.0
12394,46.0,0.0,150.0,4.0,64.0
12395,58.0,42.0,150.0,4.0,64.0
12396,75.0,14.0,60.0,11.0,64.0
12397,77.0,12.0,60.0,11.0,64.0
12398,65.0,0.0,60.0,12.0,64.0
12399,58.0,18.0,90.0,5.0,64.0
12400,46.0,8.0,90.0,6.0,64.0
12401,70.0,0.0,90.0,5.0,64.0
12402,78.0,0.0,60.0,11.0,64.0
12403,63.0,16.0,60.0,12.0,64.0
12404,41.0,32.0,180.0,6.0,64.0
12405,41.0,36.0,150.0,3.0,64.0
12406,58.0,0.0,150.0,4.0,64.0
12407,29.0,0.0,150.0,14.0,64.0
12408,62.0,0.0,150.0,4.0,64.0
12409,74.0,0.0,960.0,0.0,64.0
12410,82.0,0.0,60.0,10.0,64.0
12411,74.0,80.0,60.0,10.0,64.0
12412,41.0,0.0,150.0,13.0,64.0
12413,65.0,16.0,1740.0,2.0,64.0
12414,74.0,0.0,60.0,11.0,64.0
12415,65.0,0.0,60.0,12.0,64.0
12416,70.0,0.0,60.0,11.0,64.0
12417,62.0,0.0,960.0,2.0,64.0
12418,74.0,0.0,960.0,1.0,64.0
12419,65.0,0.0,390.0,5.0,64.0
12420,65.0,0.0,60.0,12.0,64.0
12421,74.0,0.0,60.0,10.0,64.0
12422,82.0,0.0,60.0,10.0,64.0
12423,74.0,12.0,60.0,11.0,64.0
12424,70.0,0.0,60.0,11.0,64.0
12425,82.0,0.0,60.0,10.0,64.0
12426,74.0,0.0,60.0,10.0,64.0
12427,74.0,0.0,60.0,11.0,64.0
12428,70.0,0.0,60.0,11.0,64.0
12429,65.0,80.0,60.0,12.0,64.0
12430,74.0,0.0,60.0,10.0,64.0
12431,82.0,0.0,60.0,10.0,64.0
12432,58.0,0.0,90.0,4.0,64.0
12433,46.0,0.0,90.0,13.0,64.0
12434,70.0,0.0,60.0,11.0,64.0
12435,74.0,14.0,60.0,11.0,64.0
12436,34.0,66.0,90.0,14.0,64.0
12437,62.0,0.0,90.0,4.0,64.0
12438,46.0,0.0,90.0,3.0,64.0
12439,65.0,0.0,60.0,12.0,64.0
12440,65.0,0.0,60.0,12.0,64.0
12441,70.0,0.0,60.0,11.0,64.0
12442,74.0,54.0,60.0,10.0,64.0
12443,82.0,0.0,60.0,10.0,64.0
12444,74.0,0.0,60.0,11.0,64.0
12445,62.0,0.0,90.0,4.0,64.0
12446,50.0,0.0,90.0,3.0,64.0
12447,50.0,0.0,90.0,13.0,64.0
12448,58.0,26.0,90.0,4.0,64.0
12449,38.0,0.0,90.0,14.0,64.0
12450,74.0,0.0,60.0,10.0,64.0
12451,74.0,0.0,60.0,11.0,64.0
12452,82.0,0.0,60.0,10.0,64.0
12453,70.0,80.0,60.0,11.0,64.0
12454,65.0,0.0,60.0,12.0,64.0
12455,70.0,0.0,60.0,11.0,64.0
12456,53.0,68.0,150.0,3.0,64.0
12457,74.0,0.0,60.0,11.0,64.0
12458,82.0,0.0,60.0,10.0,64.0
12459,62.0,0.0,150.0,4.0,64.0
12460,53.0,0.0,150.0,13.0,64.0
12461,65.0,0.0,150.0,5.0,64.0
12462,65.0,0.0,60.0,12.0,64.0
12463,74.0,80.0,60.0,10.0,64.0
12464,58.0,0.0,150.0,4.0,64.0
12465,41.0,0.0,150.0,14.0,64.0
12466,65.0,0.0,60.0,12.0,64.0
12467,74.0,0.0,60.0,10.0,64.0
12468,82.0,0.0,60.0,10.0,64.0
12469,70.0,0.0,60.0,11.0,64.0
12470,74.0,12.0,60.0,11.0,64.0
12471,65.0,0.0,60.0,12.0,64.0
12472,74.0,0.0,60.0,10.0,64.0
12473,82.0,80.0,60.0,10.0,64.0
12474,70.0,0.0,60.0,11.0,64.0
12475,74.0,0.0,60.0,11.0,64.0
12476,50.0,0.0,90.0,3.0,64.0
12477,58.0,0.0,150.0,4.0,64.0
12478,50.0,0.0,90.0,13.0,64.0
12479,38.0,66.0,90.0,14.0,64.0
12480,65.0,0.0,60.0,12.0,64.0
12481,62.0,0.0,150.0,4.0,64.0
12482,82.0,0.0,60.0,10.0,64.0
12483,70.0,14.0,60.0,11.0,64.0
12484,74.0,0.0,60.0,11.0,64.0
12485,65.0,42.0,150.0,5.0,64.0
12486,74.0,0.0,60.0,10.0,64.0
12487,70.0,12.0,60.0,11.0,64.0
12488,65.0,0.0,60.0,12.0,64.0
12489,74.0,0.0,60.0,11.0,64.0
12490,82.0,0.0,60.0,10.0,64.0
12491,74.0,0.0,60.0,10.0,64.0
12492,46.0,0.0,90.0,3.0,64.0
12493,46.0,0.0,90.0,13.0,64.0
12494,34.0,26.0,90.0,14.0,64.0
12495,74.0,0.0,60.0,10.0,64.0
12496,74.0,16.0,60.0,11.0,64.0
12497,70.0,0.0,60.0,11.0,64.0
12498,65.0,0.0,60.0,12.0,64.0
12499,82.0,0.0,60.0,10.0,64.0
12500,81.0,0.0,60.0,10.0,64.0
12501,65.0,0.0,60.0,12.0,64.0
12502,63.0,0.0,780.0,2.0,64.0
12503,69.0,80.0,60.0,11.0,64.0
12504,72.0,0.0,60.0,11.0,64.0
12505,65.0,0.0,390.0,5.0,64.0
12506,72.0,0.0,60.0,10.0,64.0
12507,41.0,0.0,390.0,6.0,64.0
12508,81.0,0.0,780.0,0.0,64.0
12509,72.0,0.0,780.0,0.0,64.0
12510,60.0,68.0,150.0,4.0,64.0
12511,69.0,0.0,780.0,1.0,64.0
12512,53.0,0.0,150.0,4.0,64.0
12513,29.0,0.0,150.0,14.0,64.0
12514,72.0,0.0,780.0,1.0,64.0
12515,41.0,0.0,150.0,13.0,64.0
12516,41.0,0.0,150.0,3.0,64.0
12517,81.0,0.0,60.0,10.0,64.0
12518,72.0,0.0,60.0,10.0,64.0
12519,72.0,0.0,60.0,11.0,64.0
12520,69.0,0.0,60.0,11.0,64.0
12521,65.0,12.0,60.0,12.0,64.0
12522,65.0,0.0,60.0,12.0,64.0
12523,72.0,0.0,60.0,11.0,64.0
12524,69.0,0.0,60.0,11.0,64.0
12525,72.0,0.0,60.0,10.0,64.0
12526,81.0,80.0,60.0,10.0,64.0
12527,65.0,0.0,60.0,12.0,64.0
12528,53.0,0.0,90.0,4.0,64.0
12529,45.0,0.0,90.0,3.0,64.0
12530,33.0,66.0,90.0,14.0,64.0
12531,45.0,0.0,90.0,13.0,64.0
12532,72.0,0.0,60.0,11.0,64.0
12533,72.0,14.0,60.0,10.0,64.0
12534,69.0,0.0,60.0,11.0,64.0
12535,60.0,0.0,90.0,4.0,64.0
12536,81.0,0.0,60.0,10.0,64.0
12537,81.0,0.0,60.0,10.0,64.0
12538,72.0,0.0,60.0,11.0,64.0
12539,69.0,0.0,60.0,11.0,64.0
12540,72.0,0.0,60.0,10.0,64.0
12541,65.0,54.0,60.0,12.0,64.0
12542,53.0,0.0,90.0,4.0,64.0
12543,48.0,26.0,90.0,3.0,64.0
12544,60.0,0.0,90.0,4.0,64.0
12545,48.0,0.0,90.0,13.0,64.0
12546,36.0,0.0,90.0,14.0,64.0
12547,69.0,80.0,60.0,11.0,64.0
12548,72.0,0.0,60.0,11.0,64.0
12549,81.0,0.0,60.0,10.0,64.0
12550,72.0,0.0,60.0,10.0,64.0
12551,65.0,0.0,60.0,12.0,64.0
12552,81.0,0.0,60.0,10.0,64.0
12553,72.0,0.0,60.0,11.0,64.0
12554,65.0,0.0,150.0,5.0,64.0
12555,69.0,0.0,60.0,11.0,64.0
12556,72.0,0.0,60.0,10.0,64.0
12557,53.0,0.0,150.0,4.0,64.0
12558,60.0,0.0,150.0,4.0,64.0
12559,41.0,0.0,150.0,14.0,64.0
12560,41.0,32.0,180.0,6.0,64.0
12561,53.0,0.0,150.0,13.0,64.0
12562,65.0,80.0,60.0,12.0,64.0
12563,53.0,36.0,150.0,3.0,64.0
12564,65.0,0.0,60.0,12.0,64.0
12565,81.0,0.0,60.0,10.0,64.0
12566,72.0,0.0,60.0,10.0,64.0
12567,69.0,12.0,60.0,11.0,64.0
12568,72.0,0.0,60.0,11.0,64.0
12569,81.0,0.0,60.0,10.0,64.0
12570,65.0,0.0,60.0,12.0,64.0
12571,69.0,0.0,60.0,11.0,64.0
12572,72.0,0.0,60.0,11.0,64.0
12573,72.0,64.0,60.0,10.0,64.0
12574,81.0,0.0,60.0,10.0,64.0
12575,60.0,0.0,150.0,4.0,64.0
12576,41.0,48.0,90.0,6.0,64.0
12577,65.0,60.0,150.0,5.0,64.0
12578,72.0,0.0,60.0,10.0,64.0
12579,53.0,0.0,150.0,3.0,64.0
12580,65.0,0.0,60.0,12.0,64.0
12581,53.0,0.0,150.0,13.0,64.0
12582,41.0,0.0,150.0,14.0,64.0
12583,53.0,0.0,150.0,4.0,64.0
12584,69.0,0.0,60.0,11.0,64.0
12585,72.0,32.0,60.0,11.0,64.0
12586,69.0,0.0,60.0,11.0,64.0
12587,65.0,12.0,60.0,12.0,64.0
12588,72.0,0.0,60.0,11.0,64.0
12589,81.0,0.0,60.0,10.0,64.0
12590,72.0,0.0,60.0,10.0,64.0
12591,41.0,8.0,90.0,6.0,64.0
12592,72.0,0.0,60.0,10.0,64.0
12593,72.0,0.0,60.0,11.0,64.0
12594,81.0,64.0,60.0,10.0,64.0
12595,69.0,0.0,60.0,11.0,64.0
12596,65.0,0.0,60.0,12.0,64.0
12597,70.0,0.0,330.0,0.0,64.0
12598,70.0,0.0,1890.0,1.0,64.0
12599,74.0,0.0,450.0,1.0,64.0
12600,82.0,0.0,330.0,0.0,64.0
12601,65.0,0.0,60.0,11.0,64.0
12602,34.0,0.0,90.0,14.0,64.0
12603,58.0,0.0,90.0,12.0,64.0
12604,74.0,48.0,60.0,11.0,64.0
12605,46.0,0.0,1740.0,4.0,64.0
12606,65.0,0.0,390.0,2.0,64.0
12607,58.0,48.0,1740.0,4.0,64.0
12608,46.0,12.0,90.0,13.0,64.0
12609,82.0,0.0,330.0,10.0,64.0
12610,70.0,0.0,330.0,10.0,64.0
12611,58.0,0.0,330.0,10.0,64.0
12612,70.0,24.0,180.0,5.0,64.0
12613,58.0,0.0,180.0,5.0,64.0
12614,46.0,0.0,180.0,6.0,64.0
12615,46.0,0.0,90.0,3.0,64.0
12616,62.0,24.0,390.0,2.0,64.0
12617,65.0,0.0,60.0,11.0,64.0
12618,74.0,60.0,60.0,11.0,64.0
12619,58.0,0.0,90.0,3.0,64.0
12620,74.0,24.0,60.0,11.0,64.0
12621,65.0,0.0,60.0,11.0,64.0
12622,58.0,0.0,90.0,13.0,64.0
12623,70.0,0.0,90.0,12.0,64.0
12624,46.0,12.0,90.0,14.0,64.0
12625,65.0,0.0,60.0,11.0,64.0
12626,74.0,60.0,60.0,11.0,64.0
12627,74.0,0.0,60.0,11.0,64.0
12628,70.0,0.0,90.0,12.0,64.0
12629,58.0,0.0,90.0,13.0,64.0
12630,65.0,48.0,60.0,11.0,64.0
12631,58.0,12.0,90.0,3.0,64.0
12632,46.0,0.0,90.0,14.0,64.0
12633,74.0,36.0,60.0,11.0,64.0
12634,65.0,0.0,60.0,11.0,64.0
12635,46.0,0.0,90.0,14.0,64.0
12636,65.0,0.0,60.0,11.0,64.0
12637,58.0,12.0,90.0,3.0,64.0
12638,70.0,0.0,90.0,12.0,64.0
12639,74.0,48.0,60.0,11.0,64.0
12640,58.0,0.0,90.0,13.0,64.0
12641,77.0,0.0,60.0,0.0,64.0
12642,77.0,60.0,60.0,10.0,64.0
12643,65.0,0.0,60.0,11.0,64.0
12644,74.0,0.0,60.0,11.0,64.0
12645,79.0,0.0,330.0,10.0,64.0
12646,58.0,0.0,90.0,3.0,64.0
12647,58.0,0.0,90.0,13.0,64.0
12648,67.0,24.0,390.0,2.0,64.0
12649,63.0,0.0,390.0,2.0,64.0
12650,46.0,12.0,90.0,14.0,64.0
12651,67.0,0.0,60.0,11.0,64.0
12652,75.0,48.0,60.0,11.0,64.0
12653,79.0,0.0,330.0,0.0,64.0
12654,75.0,0.0,450.0,1.0,64.0
12655,70.0,0.0,90.0,12.0,64.0
12656,67.0,60.0,60.0,11.0,64.0
12657,75.0,0.0,60.0,11.0,64.0
12658,67.0,48.0,60.0,11.0,64.0
12659,75.0,0.0,60.0,11.0,64.0
12660,70.0,0.0,90.0,12.0,64.0
12661,58.0,12.0,90.0,13.0,64.0
12662,58.0,0.0,90.0,3.0,64.0
12663,46.0,0.0,90.0,14.0,64.0
12664,67.0,60.0,60.0,11.0,64.0
12665,75.0,0.0,60.0,11.0,64.0
12666,46.0,0.0,90.0,14.0,64.0
12667,70.0,0.0,90.0,12.0,64.0
12668,67.0,0.0,60.0,11.0,64.0
12669,75.0,48.0,60.0,11.0,64.0
12670,58.0,0.0,90.0,13.0,64.0
12671,58.0,12.0,90.0,3.0,64.0
12672,75.0,36.0,60.0,11.0,64.0
12673,67.0,0.0,60.0,11.0,64.0
12674,67.0,48.0,60.0,11.0,64.0
12675,75.0,0.0,60.0,11.0,64.0
12676,58.0,12.0,90.0,3.0,64.0
12677,46.0,0.0,90.0,14.0,64.0
12678,58.0,0.0,90.0,13.0,64.0
12679,70.0,0.0,90.0,12.0,64.0
12680,75.0,0.0,60.0,10.0,64.0
12681,75.0,0.0,60.0,11.0,64.0
12682,67.0,0.0,60.0,11.0,64.0
12683,75.0,60.0,60.0,0.0,64.0
12684,65.0,24.0,390.0,2.0,64.0
12685,34.0,12.0,90.0,14.0,64.0
12686,46.0,0.0,90.0,3.0,64.0
12687,58.0,24.0,180.0,5.0,64.0
12688,70.0,0.0,180.0,5.0,64.0
12689,46.0,0.0,180.0,6.0,64.0
12690,46.0,0.0,90.0,13.0,64.0
12691,58.0,0.0,90.0,12.0,64.0
12692,74.0,0.0,60.0,11.0,64.0
12693,65.0,48.0,60.0,11.0,64.0
12694,62.0,0.0,390.0,2.0,64.0
12695,82.0,0.0,330.0,10.0,64.0
12696,82.0,12.0,330.0,0.0,64.0
12697,74.0,0.0,450.0,1.0,64.0
12698,65.0,0.0,60.0,11.0,64.0
12699,74.0,60.0,60.0,11.0,64.0
12700,58.0,0.0,90.0,3.0,64.0
12701,70.0,12.0,90.0,12.0,64.0
12702,58.0,0.0,90.0,13.0,64.0
12703,65.0,0.0,60.0,11.0,64.0
12704,74.0,24.0,60.0,11.0,64.0
12705,46.0,0.0,90.0,14.0,64.0
12706,65.0,0.0,60.0,11.0,64.0
12707,74.0,60.0,60.0,11.0,64.0
12708,74.0,0.0,60.0,11.0,64.0
12709,46.0,0.0,90.0,14.0,64.0
12710,58.0,0.0,90.0,13.0,64.0
12711,70.0,0.0,90.0,12.0,64.0
12712,65.0,48.0,60.0,11.0,64.0
12713,58.0,0.0,90.0,3.0,64.0
12714,65.0,36.0,60.0,11.0,64.0
12715,74.0,0.0,60.0,11.0,64.0
12716,58.0,0.0,90.0,13.0,64.0
12717,46.0,12.0,90.0,14.0,64.0
12718,65.0,0.0,60.0,11.0,64.0
12719,70.0,0.0,90.0,12.0,64.0
12720,74.0,48.0,60.0,11.0,64.0
12721,58.0,0.0,90.0,3.0,64.0
12722,77.0,60.0,60.0,0.0,64.0
12723,65.0,0.0,60.0,11.0,64.0
12724,74.0,0.0,60.0,11.0,64.0
12725,77.0,0.0,60.0,10.0,64.0
12726,46.0,12.0,90.0,14.0,64.0
12727,58.0,0.0,90.0,13.0,64.0
12728,70.0,0.0,90.0,12.0,64.0
12729,75.0,0.0,60.0,11.0,64.0
12730,67.0,48.0,60.0,11.0,64.0
12731,79.0,0.0,330.0,0.0,64.0
12732,79.0,0.0,330.0,10.0,64.0
12733,58.0,0.0,90.0,3.0,64.0
12734,75.0,0.0,450.0,1.0,64.0
12735,67.0,24.0,390.0,2.0,64.0
12736,63.0,0.0,390.0,2.0,64.0
12737,67.0,0.0,60.0,11.0,64.0
12738,75.0,60.0,60.0,11.0,64.0
12739,58.0,12.0,90.0,13.0,64.0
12740,75.0,0.0,60.0,11.0,64.0
12741,70.0,0.0,90.0,12.0,64.0
12742,67.0,48.0,60.0,11.0,64.0
12743,46.0,0.0,90.0,14.0,64.0
12744,58.0,0.0,90.0,3.0,64.0
12745,67.0,60.0,60.0,11.0,64.0
12746,75.0,0.0,60.0,11.0,64.0
12747,58.0,12.0,90.0,13.0,64.0
12748,58.0,0.0,90.0,3.0,64.0
12749,75.0,0.0,60.0,11.0,64.0
12750,70.0,0.0,90.0,12.0,64.0
12751,46.0,0.0,90.0,14.0,64.0
12752,67.0,0.0,60.0,11.0,64.0
12753,75.0,36.0,60.0,11.0,64.0
12754,67.0,0.0,60.0,11.0,64.0
12755,58.0,0.0,90.0,13.0,64.0
12756,75.0,0.0,60.0,11.0,64.0
12757,70.0,0.0,90.0,12.0,64.0
12758,46.0,0.0,90.0,14.0,64.0
12759,58.0,12.0,90.0,3.0,64.0
12760,67.0,48.0,60.0,11.0,64.0
12761,67.0,76.0,60.0,11.0,64.0
12762,75.0,0.0,60.0,10.0,64.0
12763,75.0,0.0,60.0,0.0,64.0
12764,75.0,0.0,60.0,11.0,64.0
12765,58.0,0.0,60.0,3.0,64.0
12766,65.0,0.0,150.0,11.0,64.0
12767,46.0,0.0,180.0,4.0,64.0
12768,82.0,0.0,150.0,10.0,64.0
12769,58.0,0.0,180.0,4.0,64.0
12770,46.0,0.0,180.0,6.0,64.0
12771,74.0,0.0,180.0,1.0,64.0
12772,70.0,0.0,180.0,1.0,64.0
12773,65.0,0.0,180.0,2.0,64.0
12774,82.0,32.0,180.0,0.0,64.0
12775,58.0,0.0,60.0,13.0,64.0
12776,58.0,0.0,180.0,5.0,64.0
12777,62.0,0.0,180.0,2.0,64.0
12778,46.0,0.0,60.0,14.0,64.0
12779,62.0,80.0,60.0,12.0,64.0
12780,70.0,0.0,180.0,5.0,64.0
12781,74.0,36.0,150.0,11.0,64.0
12782,62.0,0.0,60.0,12.0,64.0
12783,46.0,12.0,60.0,14.0,64.0
12784,58.0,0.0,60.0,3.0,64.0
12785,58.0,0.0,60.0,13.0,64.0
12786,58.0,0.0,60.0,3.0,64.0
12787,62.0,0.0,60.0,12.0,64.0
12788,46.0,80.0,60.0,14.0,64.0
12789,58.0,0.0,60.0,13.0,64.0
12790,70.0,0.0,150.0,10.0,64.0
12791,62.0,0.0,60.0,12.0,64.0
12792,65.0,0.0,150.0,11.0,64.0
12793,58.0,0.0,150.0,11.0,64.0
12794,74.0,0.0,150.0,11.0,64.0
12795,58.0,0.0,60.0,13.0,64.0
12796,46.0,0.0,60.0,14.0,64.0
12797,58.0,80.0,60.0,3.0,64.0
12798,58.0,68.0,150.0,10.0,64.0
12799,82.0,0.0,150.0,10.0,64.0
12800,60.0,0.0,60.0,3.0,64.0
12801,60.0,12.0,60.0,13.0,64.0
12802,48.0,0.0,60.0,14.0,64.0
12803,63.0,0.0,60.0,12.0,64.0
12804,50.0,0.0,60.0,14.0,64.0
12805,65.0,0.0,60.0,12.0,64.0
12806,62.0,0.0,60.0,3.0,64.0
12807,62.0,80.0,60.0,13.0,64.0
12808,58.0,0.0,180.0,5.0,64.0
12809,58.0,0.0,180.0,4.0,64.0
12810,70.0,0.0,180.0,2.0,64.0
12811,46.0,0.0,180.0,4.0,64.0
12812,74.0,32.0,180.0,1.0,64.0
12813,70.0,0.0,180.0,1.0,64.0
12814,46.0,0.0,180.0,6.0,64.0
12815,62.0,0.0,180.0,2.0,64.0
12816,82.0,0.0,180.0,0.0,64.0
12817,70.0,0.0,180.0,5.0,64.0
12818,43.0,0.0,60.0,14.0,64.0
12819,55.0,0.0,60.0,13.0,64.0
12820,58.0,0.0,60.0,12.0,64.0
12821,55.0,80.0,60.0,3.0,64.0
12822,55.0,0.0,60.0,13.0,64.0
12823,58.0,0.0,60.0,12.0,64.0
12824,43.0,48.0,60.0,14.0,64.0
12825,55.0,0.0,60.0,3.0,64.0
12826,43.0,0.0,60.0,14.0,64.0
12827,55.0,0.0,60.0,13.0,64.0
12828,58.0,80.0,60.0,12.0,64.0
12829,55.0,0.0,60.0,3.0,64.0
12830,70.0,0.0,150.0,11.0,64.0
12831,58.0,0.0,150.0,11.0,64.0
12832,43.0,80.0,60.0,14.0,64.0
12833,58.0,0.0,60.0,12.0,64.0
12834,74.0,0.0,150.0,11.0,64.0
12835,82.0,68.0,150.0,10.0,64.0
12836,55.0,0.0,60.0,13.0,64.0
12837,58.0,0.0,150.0,10.0,64.0
12838,55.0,0.0,60.0,3.0,64.0
12839,74.0,0.0,150.0,10.0,64.0
12840,57.0,12.0,60.0,13.0,64.0
12841,57.0,0.0,60.0,3.0,64.0
12842,60.0,0.0,60.0,12.0,64.0
12843,45.0,0.0,60.0,14.0,64.0
12844,46.0,172.0,60.0,14.0,64.0
12845,58.0,0.0,60.0,3.0,64.0
12846,58.0,0.0,60.0,13.0,64.0
12847,62.0,0.0,60.0,12.0,64.0
12848,58.0,0.0,180.0,5.0,64.0
12849,70.0,204.0,180.0,5.0,64.0
12850,70.0,168.0,720.0,1.0,64.0
12851,72.0,180.0,450.0,1.0,64.0
12852,51.0,36.0,150.0,3.0,64.0
12853,51.0,0.0,150.0,2.0,64.0
12854,51.0,0.0,150.0,11.0,64.0
12855,51.0,0.0,150.0,13.0,64.0
12856,55.0,0.0,150.0,12.0,64.0
12857,39.0,0.0,150.0,14.0,64.0
12858,51.0,0.0,150.0,10.0,64.0
12859,39.0,0.0,150.0,14.0,64.0
12860,75.0,0.0,150.0,11.0,64.0
12861,67.0,0.0,150.0,2.0,64.0
12862,63.0,0.0,150.0,2.0,64.0
12863,51.0,0.0,150.0,3.0,64.0
12864,58.0,0.0,150.0,4.0,64.0
12865,79.0,0.0,150.0,0.0,64.0
12866,67.0,0.0,150.0,11.0,64.0
12867,51.0,0.0,150.0,13.0,64.0
12868,63.0,0.0,150.0,12.0,64.0
12869,70.0,0.0,150.0,10.0,64.0
12870,79.0,60.0,150.0,10.0,64.0
12871,58.0,0.0,150.0,10.0,64.0
12872,60.0,0.0,150.0,4.0,64.0
12873,75.0,0.0,150.0,0.0,64.0
12874,58.0,0.0,150.0,11.0,64.0
12875,65.0,0.0,150.0,12.0,64.0
12876,74.0,0.0,240.0,1.0,64.0
12877,58.0,0.0,150.0,11.0,64.0
12878,74.0,0.0,150.0,11.0,64.0
12879,77.0,0.0,150.0,10.0,64.0
12880,58.0,0.0,150.0,10.0,64.0
12881,65.0,0.0,150.0,10.0,64.0
12882,41.0,0.0,150.0,6.0,64.0
12883,70.0,0.0,150.0,11.0,64.0
12884,41.0,0.0,150.0,14.0,64.0
12885,53.0,0.0,150.0,3.0,64.0
12886,77.0,0.0,150.0,0.0,64.0
12887,74.0,0.0,150.0,0.0,64.0
12888,65.0,72.0,150.0,2.0,64.0
12889,53.0,0.0,150.0,13.0,64.0
12890,70.0,0.0,150.0,5.0,64.0
12891,74.0,0.0,150.0,5.0,64.0
12892,62.0,0.0,150.0,2.0,64.0
12893,58.0,0.0,150.0,4.0,64.0
12894,62.0,0.0,150.0,4.0,64.0
12895,72.0,0.0,150.0,5.0,64.0
12896,65.0,0.0,150.0,5.0,64.0
12897,41.0,0.0,150.0,3.0,64.0
12898,69.0,0.0,150.0,10.0,64.0
12899,72.0,0.0,150.0,0.0,64.0
12900,69.0,0.0,150.0,11.0,64.0
12901,75.0,0.0,180.0,1.0,64.0
12902,72.0,96.0,180.0,1.0,64.0
12903,53.0,0.0,150.0,12.0,64.0
12904,69.0,0.0,150.0,2.0,64.0
12905,53.0,0.0,150.0,10.0,64.0
12906,81.0,0.0,150.0,0.0,64.0
12907,65.0,0.0,150.0,11.0,64.0
12908,72.0,0.0,150.0,11.0,64.0
12909,41.0,0.0,150.0,13.0,64.0
12910,41.0,0.0,150.0,6.0,64.0
12911,29.0,0.0,150.0,14.0,64.0
12912,53.0,36.0,150.0,4.0,64.0
12913,60.0,0.0,150.0,4.0,64.0
12914,60.0,0.0,150.0,2.0,64.0
12915,60.0,0.0,150.0,10.0,64.0
12916,82.0,0.0,330.0,10.0,64.0
12917,65.0,48.0,60.0,11.0,64.0
12918,74.0,0.0,60.0,11.0,64.0
12919,46.0,12.0,90.0,13.0,64.0
12920,46.0,0.0,90.0,3.0,64.0
12921,70.0,0.0,1890.0,1.0,64.0
12922,74.0,12.0,450.0,1.0,64.0
12923,34.0,0.0,90.0,14.0,64.0
12924,46.0,0.0,1350.0,4.0,64.0
12925,70.0,24.0,180.0,2.0,64.0
12926,62.0,0.0,420.0,2.0,64.0
12927,58.0,0.0,330.0,10.0,64.0
12928,58.0,0.0,1350.0,4.0,64.0
12929,46.0,12.0,150.0,6.0,64.0
12930,70.0,0.0,150.0,5.0,64.0
12931,58.0,0.0,150.0,5.0,64.0
12932,58.0,0.0,90.0,12.0,64.0
12933,70.0,0.0,330.0,10.0,64.0
12934,70.0,0.0,330.0,0.0,64.0
12935,82.0,0.0,330.0,0.0,64.0
12936,74.0,0.0,60.0,11.0,64.0
12937,65.0,48.0,60.0,11.0,64.0
12938,58.0,0.0,90.0,3.0,64.0
12939,74.0,0.0,60.0,11.0,64.0
12940,70.0,0.0,90.0,12.0,64.0
12941,65.0,24.0,60.0,11.0,64.0
12942,46.0,12.0,90.0,14.0,64.0
12943,58.0,0.0,90.0,13.0,64.0
12944,65.0,0.0,60.0,11.0,64.0
12945,74.0,60.0,60.0,11.0,64.0
12946,46.0,0.0,90.0,14.0,64.0
12947,58.0,12.0,90.0,13.0,64.0
12948,65.0,24.0,180.0,2.0,64.0
12949,74.0,48.0,60.0,11.0,64.0
12950,65.0,0.0,60.0,11.0,64.0
12951,70.0,0.0,90.0,12.0,64.0
12952,58.0,0.0,90.0,3.0,64.0
12953,65.0,60.0,60.0,11.0,64.0
12954,74.0,0.0,60.0,11.0,64.0
12955,74.0,0.0,60.0,11.0,64.0
12956,58.0,0.0,90.0,13.0,64.0
12957,65.0,24.0,60.0,11.0,64.0
12958,70.0,0.0,90.0,12.0,64.0
12959,46.0,0.0,90.0,14.0,64.0
12960,58.0,0.0,90.0,3.0,64.0
12961,77.0,60.0,60.0,0.0,64.0
12962,77.0,0.0,60.0,10.0,64.0
12963,74.0,0.0,60.0,11.0,64.0
12964,65.0,0.0,60.0,11.0,64.0
12965,67.0,24.0,390.0,2.0,64.0
12966,63.0,0.0,390.0,2.0,64.0
12967,67.0,48.0,60.0,11.0,64.0
12968,75.0,0.0,450.0,1.0,64.0
12969,70.0,0.0,90.0,12.0,64.0
12970,46.0,0.0,90.0,14.0,64.0
12971,58.0,12.0,90.0,13.0,64.0
12972,75.0,0.0,60.0,11.0,64.0
12973,79.0,0.0,330.0,10.0,64.0
12974,58.0,0.0,90.0,3.0,64.0
12975,79.0,0.0,330.0,0.0,64.0
12976,75.0,60.0,60.0,11.0,64.0
12977,67.0,0.0,60.0,11.0,64.0
12978,70.0,0.0,90.0,12.0,64.0
12979,67.0,0.0,60.0,11.0,64.0
12980,75.0,48.0,60.0,11.0,64.0
12981,46.0,12.0,90.0,14.0,64.0
12982,58.0,0.0,90.0,13.0,64.0
12983,58.0,0.0,90.0,3.0,64.0
12984,67.0,60.0,60.0,11.0,64.0
12985,75.0,0.0,60.0,11.0,64.0
12986,75.0,30.0,60.0,11.0,64.0
12987,67.0,0.0,60.0,11.0,64.0
12988,58.0,0.0,90.0,3.0,64.0
12989,46.0,0.0,90.0,14.0,64.0
12990,70.0,0.0,90.0,5.0,64.0
12991,58.0,0.0,90.0,5.0,64.0
12992,46.0,18.0,90.0,6.0,64.0
12993,70.0,0.0,90.0,12.0,64.0
12994,58.0,12.0,90.0,13.0,64.0
12995,75.0,0.0,60.0,11.0,64.0
12996,67.0,36.0,60.0,11.0,64.0
12997,67.0,30.0,60.0,11.0,64.0
12998,58.0,0.0,90.0,3.0,64.0
12999,75.0,0.0,60.0,11.0,64.0
13000,58.0,0.0,90.0,13.0,64.0
13001,46.0,0.0,90.0,14.0,64.0
13002,46.0,18.0,90.0,6.0,64.0
13003,70.0,0.0,90.0,5.0,64.0
13004,70.0,12.0,90.0,12.0,64.0
13005,58.0,0.0,90.0,5.0,64.0
13006,67.0,0.0,60.0,11.0,64.0
13007,75.0,0.0,60.0,11.0,64.0
13008,75.0,60.0,60.0,10.0,64.0
13009,75.0,0.0,60.0,0.0,64.0
13010,74.0,0.0,450.0,1.0,64.0
13011,65.0,24.0,390.0,2.0,64.0
13012,34.0,0.0,90.0,14.0,64.0
13013,62.0,0.0,390.0,2.0,64.0
13014,82.0,0.0,330.0,10.0,64.0
13015,74.0,48.0,60.0,11.0,64.0
13016,82.0,0.0,330.0,0.0,64.0
13017,65.0,0.0,60.0,11.0,64.0
13018,58.0,0.0,90.0,12.0,64.0
13019,46.0,0.0,150.0,6.0,64.0
13020,46.0,0.0,90.0,3.0,64.0
13021,46.0,12.0,90.0,13.0,64.0
13022,70.0,12.0,150.0,5.0,64.0
13023,58.0,0.0,150.0,5.0,64.0
13024,74.0,0.0,60.0,11.0,64.0
13025,65.0,48.0,60.0,11.0,64.0
13026,70.0,0.0,90.0,12.0,64.0
13027,65.0,48.0,60.0,11.0,64.0
13028,58.0,12.0,90.0,3.0,64.0
13029,74.0,0.0,60.0,11.0,64.0
13030,58.0,0.0,90.0,13.0,64.0
13031,46.0,0.0,90.0,14.0,64.0
13032,65.0,60.0,60.0,11.0,64.0
13033,74.0,0.0,60.0,11.0,64.0
13034,58.0,12.0,90.0,3.0,64.0
13035,58.0,0.0,90.0,13.0,64.0
13036,65.0,0.0,60.0,11.0,64.0
13037,74.0,48.0,60.0,11.0,64.0
13038,70.0,0.0,90.0,12.0,64.0
13039,46.0,0.0,90.0,14.0,64.0
13040,65.0,36.0,60.0,11.0,64.0
13041,74.0,0.0,60.0,11.0,64.0
13042,65.0,48.0,60.0,11.0,64.0
13043,70.0,12.0,90.0,12.0,64.0
13044,58.0,0.0,90.0,3.0,64.0
13045,58.0,0.0,90.0,13.0,64.0
13046,46.0,0.0,90.0,14.0,64.0
13047,74.0,0.0,60.0,11.0,64.0
13048,77.0,60.0,60.0,0.0,64.0
13049,77.0,0.0,60.0,10.0,64.0
13050,65.0,0.0,60.0,11.0,64.0
13051,74.0,0.0,60.0,11.0,64.0
13052,67.0,12.0,390.0,2.0,64.0
13053,75.0,0.0,450.0,1.0,64.0
13054,63.0,0.0,390.0,2.0,64.0
13055,79.0,0.0,330.0,0.0,64.0
13056,58.0,0.0,90.0,3.0,64.0
13057,75.0,0.0,60.0,11.0,64.0
13058,58.0,0.0,90.0,13.0,64.0
13059,67.0,48.0,60.0,11.0,64.0
13060,46.0,12.0,90.0,14.0,64.0
13061,70.0,0.0,90.0,12.0,64.0
13062,79.0,0.0,330.0,10.0,64.0
13063,58.0,12.0,150.0,4.0,64.0
13064,46.0,0.0,150.0,4.0,64.0
13065,67.0,48.0,60.0,11.0,64.0
13066,75.0,0.0,60.0,11.0,64.0
13067,70.0,0.0,90.0,12.0,64.0
13068,46.0,0.0,90.0,14.0,64.0
13069,75.0,48.0,60.0,11.0,64.0
13070,67.0,0.0,60.0,11.0,64.0
13071,58.0,0.0,90.0,13.0,64.0
13072,58.0,12.0,90.0,3.0,64.0
13073,67.0,0.0,60.0,11.0,64.0
13074,75.0,60.0,60.0,11.0,64.0
13075,58.0,0.0,150.0,4.0,64.0
13076,46.0,12.0,150.0,4.0,64.0
13077,58.0,0.0,90.0,3.0,64.0
13078,58.0,0.0,90.0,5.0,64.0
13079,70.0,18.0,90.0,5.0,64.0
13080,58.0,12.0,90.0,13.0,64.0
13081,75.0,0.0,60.0,11.0,64.0
13082,70.0,0.0,90.0,12.0,64.0
13083,46.0,0.0,90.0,6.0,64.0
13084,67.0,30.0,60.0,11.0,64.0
13085,46.0,0.0,90.0,14.0,64.0
13086,75.0,0.0,60.0,11.0,64.0
13087,67.0,36.0,60.0,11.0,64.0
13088,70.0,0.0,90.0,12.0,64.0
13089,75.0,30.0,60.0,11.0,64.0
13090,70.0,0.0,90.0,5.0,64.0
13091,46.0,0.0,90.0,6.0,64.0
13092,58.0,18.0,90.0,5.0,64.0
13093,67.0,0.0,60.0,11.0,64.0
13094,58.0,12.0,90.0,3.0,64.0
13095,46.0,0.0,90.0,14.0,64.0
13096,58.0,0.0,90.0,13.0,64.0
13097,75.0,0.0,60.0,0.0,64.0
13098,75.0,0.0,60.0,10.0,64.0
13099,67.0,76.0,60.0,11.0,64.0
13100,75.0,0.0,60.0,11.0,64.0
13101,74.0,0.0,180.0,1.0,64.0
13102,70.0,32.0,180.0,1.0,64.0
13103,65.0,0.0,150.0,11.0,64.0
13104,74.0,0.0,150.0,11.0,64.0
13105,58.0,36.0,150.0,5.0,64.0
13106,62.0,0.0,180.0,2.0,64.0
13107,58.0,0.0,180.0,4.0,64.0
13108,70.0,0.0,150.0,5.0,64.0
13109,58.0,0.0,60.0,13.0,64.0
13110,82.0,0.0,180.0,0.0,64.0
13111,46.0,80.0,60.0,14.0,64.0
13112,58.0,0.0,60.0,3.0,64.0
13113,82.0,0.0,150.0,10.0,64.0
13114,46.0,0.0,150.0,6.0,64.0
13115,46.0,0.0,180.0,4.0,64.0
13116,65.0,0.0,180.0,2.0,64.0
13117,62.0,0.0,60.0,12.0,64.0
13118,62.0,0.0,60.0,12.0,64.0
13119,58.0,0.0,60.0,13.0,64.0
13120,58.0,0.0,60.0,3.0,64.0
13121,46.0,12.0,60.0,14.0,64.0
13122,58.0,0.0,60.0,13.0,64.0
13123,58.0,0.0,60.0,3.0,64.0
13124,62.0,0.0,60.0,12.0,64.0
13125,46.0,80.0,60.0,14.0,64.0
13126,74.0,0.0,150.0,11.0,64.0
13127,62.0,0.0,60.0,12.0,64.0
13128,58.0,0.0,60.0,13.0,64.0
13129,58.0,0.0,150.0,10.0,64.0
13130,82.0,68.0,150.0,10.0,64.0
13131,70.0,0.0,150.0,10.0,64.0
13132,58.0,80.0,60.0,3.0,64.0
13133,58.0,0.0,150.0,11.0,64.0
13134,65.0,0.0,150.0,11.0,64.0
13135,46.0,0.0,60.0,14.0,64.0
13136,63.0,0.0,60.0,12.0,64.0
13137,60.0,0.0,60.0,3.0,64.0
13138,48.0,12.0,60.0,14.0,64.0
13139,60.0,0.0,60.0,13.0,64.0
13140,62.0,0.0,60.0,13.0,64.0
13141,50.0,80.0,60.0,14.0,64.0
13142,62.0,0.0,60.0,3.0,64.0
13143,65.0,0.0,60.0,12.0,64.0
13144,70.0,0.0,180.0,2.0,64.0
13145,55.0,0.0,60.0,13.0,64.0
13146,82.0,0.0,180.0,0.0,64.0
13147,70.0,32.0,180.0,1.0,64.0
13148,55.0,80.0,60.0,3.0,64.0
13149,58.0,0.0,60.0,12.0,64.0
13150,62.0,0.0,180.0,2.0,64.0
13151,43.0,0.0,60.0,14.0,64.0
13152,46.0,0.0,180.0,4.0,64.0
13153,70.0,0.0,150.0,5.0,64.0
13154,58.0,0.0,150.0,5.0,64.0
13155,58.0,0.0,180.0,4.0,64.0
13156,74.0,0.0,180.0,1.0,64.0
13157,46.0,36.0,150.0,6.0,64.0
13158,58.0,0.0,60.0,12.0,64.0
13159,55.0,0.0,60.0,3.0,64.0
13160,55.0,0.0,60.0,13.0,64.0
13161,43.0,12.0,60.0,14.0,64.0
13162,58.0,0.0,60.0,12.0,64.0
13163,43.0,0.0,60.0,14.0,64.0
13164,55.0,80.0,60.0,13.0,64.0
13165,55.0,0.0,60.0,3.0,64.0
13166,58.0,0.0,150.0,11.0,64.0
13167,74.0,0.0,150.0,10.0,64.0
13168,58.0,0.0,150.0,10.0,64.0
13169,55.0,0.0,60.0,13.0,64.0
13170,70.0,0.0,150.0,11.0,64.0
13171,58.0,0.0,60.0,12.0,64.0
13172,43.0,0.0,60.0,14.0,64.0
13173,55.0,80.0,60.0,3.0,64.0
13174,74.0,68.0,150.0,11.0,64.0
13175,82.0,0.0,150.0,10.0,64.0
13176,57.0,12.0,60.0,3.0,64.0
13177,60.0,0.0,60.0,12.0,64.0
13178,57.0,0.0,60.0,13.0,64.0
13179,45.0,0.0,60.0,14.0,64.0
13180,46.0,0.0,60.0,14.0,64.0
13181,62.0,0.0,60.0,12.0,64.0
13182,58.0,172.0,60.0,3.0,64.0
13183,58.0,0.0,60.0,13.0,64.0
13184,39.0,0.0,150.0,14.0,64.0
13185,51.0,0.0,150.0,13.0,64.0
13186,72.0,180.0,450.0,1.0,64.0
13187,51.0,0.0,150.0,11.0,64.0
13188,70.0,0.0,720.0,1.0,64.0
13189,51.0,0.0,150.0,3.0,64.0
13190,55.0,0.0,150.0,12.0,64.0
13191,51.0,0.0,150.0,10.0,64.0
13192,51.0,240.0,150.0,2.0,64.0
13193,67.0,0.0,150.0,11.0,64.0
13194,79.0,0.0,150.0,10.0,64.0
13195,58.0,0.0,150.0,10.0,64.0
13196,63.0,0.0,150.0,2.0,64.0
13197,67.0,0.0,150.0,2.0,64.0
13198,58.0,0.0,150.0,4.0,64.0
13199,60.0,0.0,150.0,4.0,64.0
13200,51.0,0.0,150.0,3.0,64.0
13201,63.0,60.0,150.0,12.0,64.0
13202,70.0,0.0,150.0,10.0,64.0
13203,39.0,0.0,150.0,14.0,64.0
13204,75.0,0.0,150.0,11.0,64.0
13205,58.0,0.0,150.0,11.0,64.0
13206,75.0,0.0,150.0,0.0,64.0
13207,79.0,0.0,150.0,0.0,64.0
13208,51.0,0.0,150.0,13.0,64.0
13209,74.0,0.0,150.0,0.0,64.0
13210,77.0,0.0,150.0,0.0,64.0
13211,70.0,0.0,150.0,5.0,64.0
13212,74.0,0.0,150.0,5.0,64.0
13213,65.0,0.0,150.0,10.0,64.0
13214,77.0,72.0,150.0,10.0,64.0
13215,41.0,0.0,150.0,14.0,64.0
13216,58.0,0.0,150.0,4.0,64.0
13217,74.0,168.0,240.0,1.0,64.0
13218,58.0,0.0,150.0,10.0,64.0
13219,70.0,0.0,150.0,11.0,64.0
13220,41.0,0.0,150.0,6.0,64.0
13221,53.0,0.0,150.0,13.0,64.0
13222,62.0,0.0,150.0,4.0,64.0
13223,65.0,0.0,150.0,2.0,64.0
13224,62.0,0.0,150.0,2.0,64.0
13225,53.0,0.0,150.0,3.0,64.0
13226,65.0,0.0,150.0,12.0,64.0
13227,58.0,0.0,150.0,11.0,64.0
13228,74.0,0.0,150.0,11.0,64.0
13229,60.0,0.0,150.0,4.0,64.0
13230,53.0,0.0,150.0,4.0,64.0
13231,65.0,0.0,150.0,5.0,64.0
13232,72.0,0.0,150.0,5.0,64.0
13233,69.0,0.0,180.0,1.0,64.0
13234,63.0,120.0,180.0,1.0,64.0
13235,72.0,36.0,150.0,0.0,64.0
13236,69.0,0.0,150.0,10.0,64.0
13237,69.0,0.0,150.0,11.0,64.0
13238,65.0,0.0,150.0,11.0,64.0
13239,69.0,0.0,150.0,0.0,64.0
13240,53.0,0.0,150.0,12.0,64.0
13241,53.0,0.0,150.0,3.0,64.0
13242,72.0,0.0,150.0,11.0,64.0
13243,53.0,0.0,150.0,13.0,64.0
13244,41.0,0.0,150.0,14.0,64.0
13245,53.0,0.0,150.0,10.0,64.0
13246,60.0,0.0,150.0,10.0,64.0
13247,60.0,0.0,150.0,2.0,64.0
13248,57.0,0.0,150.0,2.0,64.0
13249,41.0,0.0,150.0,6.0,64.0
13250,70.0,0.0,180.0,10.0,64.0
13251,46.0,0.0,180.0,6.0,64.0
13252,70.0,0.0,180.0,11.0,64.0
13253,53.0,0.0,180.0,10.0,64.0
13254,50.0,0.0,150.0,4.0,64.0
13255,58.0,0.0,150.0,4.0,64.0
13256,46.0,84.0,60.0,3.0,64.0
13257,62.0,0.0,180.0,10.0,64.0
13258,70.0,0.0,1860.0,0.0,64.0
13259,70.0,0.0,150.0,5.0,64.0
13260,70.0,0.0,180.0,1.0,64.0
13261,62.0,120.0,180.0,1.0,64.0
13262,46.0,0.0,60.0,13.0,64.0
13263,34.0,0.0,60.0,14.0,64.0
13264,58.0,0.0,60.0,12.0,64.0
13265,58.0,0.0,180.0,11.0,64.0
13266,62.0,36.0,150.0,5.0,64.0
13267,58.0,0.0,4020.0,2.0,64.0
13268,50.0,0.0,60.0,3.0,64.0
13269,50.0,0.0,60.0,13.0,64.0
13270,38.0,0.0,60.0,14.0,64.0
13271,62.0,0.0,60.0,12.0,64.0
13272,53.0,0.0,60.0,13.0,64.0
13273,53.0,0.0,60.0,3.0,64.0
13274,41.0,0.0,60.0,14.0,64.0
13275,65.0,88.0,60.0,12.0,64.0
13276,53.0,32.0,30.0,10.0,64.0
13277,62.0,0.0,60.0,12.0,64.0
13278,50.0,8.0,60.0,13.0,64.0
13279,50.0,0.0,60.0,3.0,64.0
13280,53.0,0.0,30.0,11.0,64.0
13281,38.0,0.0,60.0,14.0,64.0
13282,55.0,0.0,30.0,10.0,64.0
13283,55.0,40.0,30.0,11.0,64.0
13284,57.0,72.0,30.0,11.0,64.0
13285,57.0,0.0,30.0,10.0,64.0
13286,58.0,120.0,180.0,10.0,64.0
13287,58.0,0.0,60.0,12.0,64.0
13288,58.0,0.0,180.0,11.0,64.0
13289,34.0,84.0,60.0,14.0,64.0
13290,58.0,0.0,150.0,5.0,64.0
13291,62.0,0.0,150.0,5.0,64.0
13292,46.0,0.0,60.0,3.0,64.0
13293,50.0,36.0,150.0,4.0,64.0
13294,46.0,0.0,150.0,4.0,64.0
13295,46.0,0.0,60.0,13.0,64.0
13296,50.0,0.0,60.0,3.0,64.0
13297,62.0,0.0,60.0,12.0,64.0
13298,38.0,0.0,60.0,14.0,64.0
13299,50.0,0.0,60.0,13.0,64.0
13300,46.0,84.0,90.0,6.0,64.0
13301,53.0,0.0,60.0,13.0,64.0
13302,65.0,0.0,60.0,12.0,64.0
13303,46.0,0.0,90.0,4.0,64.0
13304,50.0,18.0,90.0,4.0,64.0
13305,53.0,6.0,60.0,3.0,64.0
13306,58.0,0.0,90.0,5.0,64.0
13307,41.0,0.0,60.0,14.0,64.0
13308,62.0,0.0,90.0,5.0,64.0
13309,62.0,0.0,60.0,12.0,64.0
13310,38.0,0.0,60.0,14.0,64.0
13311,58.0,12.0,60.0,10.0,64.0
13312,50.0,6.0,60.0,3.0,64.0
13313,46.0,0.0,90.0,4.0,64.0
13314,46.0,24.0,90.0,6.0,64.0
13315,50.0,0.0,90.0,4.0,64.0
13316,58.0,0.0,60.0,11.0,64.0
13317,58.0,0.0,90.0,5.0,64.0
13318,62.0,18.0,90.0,5.0,64.0
13319,50.0,0.0,60.0,13.0,64.0
13320,60.0,72.0,60.0,11.0,64.0
13321,60.0,0.0,60.0,10.0,64.0
13322,46.0,36.0,390.0,6.0,64.0
13323,62.0,0.0,180.0,11.0,64.0
13324,58.0,36.0,150.0,5.0,64.0
13325,46.0,0.0,60.0,3.0,64.0
13326,50.0,0.0,150.0,4.0,64.0
13327,46.0,0.0,150.0,4.0,64.0
13328,62.0,0.0,150.0,5.0,64.0
13329,62.0,0.0,180.0,10.0,64.0
13330,34.0,0.0,60.0,14.0,64.0
13331,46.0,0.0,60.0,13.0,64.0
13332,58.0,84.0,60.0,12.0,64.0
13333,38.0,0.0,60.0,14.0,64.0
13334,50.0,120.0,60.0,13.0,64.0
13335,50.0,0.0,60.0,3.0,64.0
13336,62.0,0.0,60.0,12.0,64.0
13337,65.0,0.0,60.0,12.0,64.0
13338,53.0,72.0,60.0,13.0,64.0
13339,53.0,0.0,60.0,3.0,64.0
13340,41.0,0.0,60.0,14.0,64.0
13341,62.0,0.0,60.0,12.0,64.0
13342,38.0,0.0,60.0,14.0,64.0
13343,62.0,12.0,60.0,11.0,64.0
13344,50.0,0.0,60.0,13.0,64.0
13345,62.0,0.0,60.0,10.0,64.0
13346,50.0,48.0,60.0,3.0,64.0
13347,63.0,0.0,60.0,10.0,64.0
13348,63.0,72.0,60.0,11.0,64.0
13349,65.0,120.0,180.0,11.0,64.0
13350,34.0,0.0,60.0,14.0,64.0
13351,53.0,0.0,150.0,4.0,64.0
13352,50.0,36.0,150.0,4.0,64.0
13353,58.0,84.0,60.0,12.0,64.0
13354,46.0,0.0,60.0,13.0,64.0
13355,65.0,0.0,180.0,10.0,64.0
13356,65.0,0.0,150.0,5.0,64.0
13357,58.0,0.0,150.0,5.0,64.0
13358,46.0,0.0,60.0,3.0,64.0
13359,50.0,0.0,60.0,3.0,64.0
13360,62.0,0.0,60.0,12.0,64.0
13361,50.0,0.0,60.0,13.0,64.0
13362,38.0,0.0,60.0,14.0,64.0
13363,53.0,18.0,90.0,4.0,64.0
13364,53.0,0.0,60.0,3.0,64.0
13365,53.0,0.0,60.0,13.0,64.0
13366,50.0,0.0,90.0,4.0,64.0
13367,46.0,64.0,90.0,6.0,64.0
13368,41.0,0.0,60.0,14.0,64.0
13369,65.0,6.0,60.0,12.0,64.0
13370,65.0,0.0,90.0,5.0,64.0
13371,58.0,0.0,90.0,5.0,64.0
13372,62.0,0.0,60.0,12.0,64.0
13373,65.0,0.0,30.0,10.0,64.0
13374,58.0,0.0,90.0,5.0,64.0
13375,50.0,0.0,60.0,13.0,64.0
13376,50.0,0.0,60.0,3.0,64.0
13377,65.0,32.0,30.0,11.0,64.0
13378,53.0,0.0,90.0,4.0,64.0
13379,46.0,24.0,90.0,6.0,64.0
13380,65.0,0.0,90.0,5.0,64.0
13381,38.0,6.0,60.0,14.0,64.0
13382,50.0,2.0,90.0,4.0,64.0
13383,67.0,0.0,30.0,11.0,64.0
13384,67.0,16.0,30.0,10.0,64.0
13385,69.0,72.0,30.0,10.0,64.0
13386,69.0,0.0,30.0,11.0,64.0
13387,70.0,0.0,180.0,10.0,64.0
13388,53.0,0.0,150.0,4.0,64.0
13389,70.0,0.0,180.0,11.0,64.0
13390,34.0,0.0,60.0,14.0,64.0
13391,58.0,84.0,60.0,12.0,64.0
13392,70.0,0.0,2100.0,1.0,64.0
13393,50.0,0.0,150.0,4.0,64.0
13394,46.0,0.0,60.0,13.0,64.0
13395,82.0,0.0,2160.0,0.0,64.0
13396,46.0,0.0,60.0,3.0,64.0
13397,65.0,0.0,150.0,5.0,64.0
13398,46.0,36.0,390.0,6.0,64.0
13399,58.0,36.0,150.0,5.0,64.0
13400,38.0,0.0,60.0,14.0,64.0
13401,62.0,0.0,60.0,12.0,64.0
13402,50.0,120.0,60.0,13.0,64.0
13403,50.0,0.0,60.0,3.0,64.0
13404,53.0,0.0,60.0,13.0,64.0
13405,41.0,0.0,60.0,14.0,64.0
13406,53.0,72.0,60.0,3.0,64.0
13407,65.0,0.0,60.0,12.0,64.0
13408,70.0,0.0,60.0,11.0,64.0
13409,50.0,0.0,60.0,3.0,64.0
13410,62.0,48.0,60.0,12.0,64.0
13411,50.0,0.0,60.0,13.0,64.0
13412,38.0,0.0,60.0,14.0,64.0
13413,70.0,12.0,60.0,10.0,64.0
13414,72.0,0.0,60.0,11.0,64.0
13415,72.0,72.0,60.0,10.0,64.0
13416,34.0,0.0,60.0,14.0,64.0
13417,74.0,120.0,180.0,11.0,64.0
13418,74.0,0.0,180.0,10.0,64.0
13419,46.0,0.0,60.0,13.0,64.0
13420,58.0,36.0,150.0,4.0,64.0
13421,53.0,0.0,150.0,4.0,64.0
13422,62.0,0.0,150.0,5.0,64.0
13423,70.0,0.0,150.0,5.0,64.0
13424,46.0,0.0,60.0,3.0,64.0
13425,58.0,84.0,60.0,12.0,64.0
13426,62.0,0.0,60.0,12.0,64.0
13427,50.0,0.0,60.0,3.0,64.0
13428,50.0,0.0,60.0,13.0,64.0
13429,38.0,0.0,60.0,14.0,64.0
13430,41.0,0.0,60.0,14.0,64.0
13431,46.0,84.0,90.0,6.0,64.0
13432,53.0,0.0,60.0,13.0,64.0
13433,58.0,0.0,90.0,4.0,64.0
13434,53.0,18.0,90.0,4.0,64.0
13435,70.0,0.0,90.0,5.0,64.0
13436,62.0,0.0,90.0,5.0,64.0
13437,65.0,0.0,60.0,12.0,64.0
13438,53.0,6.0,60.0,3.0,64.0
13439,38.0,6.0,60.0,14.0,64.0
13440,46.0,24.0,90.0,6.0,64.0
13441,50.0,0.0,60.0,13.0,64.0
13442,50.0,0.0,60.0,3.0,64.0
13443,62.0,0.0,60.0,12.0,64.0
13444,58.0,18.0,90.0,4.0,64.0
13445,74.0,0.0,60.0,11.0,64.0
13446,62.0,0.0,90.0,5.0,64.0
13447,70.0,0.0,90.0,5.0,64.0
13448,53.0,0.0,90.0,4.0,64.0
13449,74.0,12.0,60.0,10.0,64.0
13450,75.0,72.0,60.0,11.0,64.0
13451,75.0,0.0,60.0,10.0,64.0
13452,46.0,0.0,60.0,3.0,64.0
13453,46.0,0.0,60.0,13.0,64.0
13454,77.0,0.0,180.0,10.0,64.0
13455,62.0,0.0,150.0,5.0,64.0
13456,46.0,0.0,180.0,6.0,64.0
13457,70.0,0.0,150.0,5.0,64.0
13458,58.0,36.0,150.0,4.0,64.0
13459,53.0,0.0,150.0,4.0,64.0
13460,34.0,84.0,60.0,14.0,64.0
13461,77.0,0.0,180.0,11.0,64.0
13462,58.0,0.0,60.0,12.0,64.0
13463,50.0,120.0,60.0,13.0,64.0
13464,62.0,0.0,60.0,12.0,64.0
13465,38.0,0.0,60.0,14.0,64.0
13466,50.0,0.0,60.0,3.0,64.0
13467,41.0,0.0,60.0,14.0,64.0
13468,65.0,0.0,60.0,12.0,64.0
13469,53.0,0.0,60.0,13.0,64.0
13470,53.0,88.0,60.0,3.0,64.0
13471,62.0,0.0,60.0,12.0,64.0
13472,50.0,8.0,60.0,13.0,64.0
13473,77.0,0.0,30.0,11.0,64.0
13474,38.0,0.0,60.0,14.0,64.0
13475,50.0,0.0,60.0,3.0,64.0
13476,77.0,32.0,30.0,10.0,64.0
13477,79.0,40.0,30.0,10.0,64.0
13478,79.0,0.0,30.0,11.0,64.0
13479,81.0,72.0,30.0,11.0,64.0
13480,81.0,0.0,30.0,10.0,64.0
13481,46.0,0.0,60.0,3.0,64.0
13482,34.0,0.0,60.0,14.0,64.0
13483,82.0,0.0,90.0,10.0,64.0
13484,58.0,0.0,60.0,12.0,64.0
13485,74.0,0.0,150.0,5.0,64.0
13486,46.0,0.0,180.0,6.0,64.0
13487,46.0,6.0,60.0,13.0,64.0
13488,58.0,0.0,150.0,4.0,64.0
13489,62.0,0.0,150.0,4.0,64.0
13490,82.0,78.0,90.0,11.0,64.0
13491,65.0,36.0,150.0,5.0,64.0
13492,82.0,114.0,90.0,11.0,64.0
13493,50.0,0.0,60.0,13.0,64.0
13494,62.0,0.0,60.0,12.0,64.0
13495,50.0,6.0,60.0,3.0,64.0
13496,82.0,0.0,90.0,10.0,64.0
13497,38.0,0.0,60.0,14.0,64.0
13498,53.0,0.0,60.0,13.0,64.0
13499,65.0,0.0,90.0,5.0,64.0
13500,65.0,0.0,60.0,12.0,64.0
13501,74.0,18.0,90.0,5.0,64.0
13502,46.0,96.0,90.0,6.0,64.0
13503,82.0,0.0,90.0,10.0,64.0
13504,82.0,0.0,90.0,11.0,64.0
13505,41.0,6.0,60.0,14.0,64.0
13506,53.0,0.0,60.0,3.0,64.0
13507,62.0,0.0,90.0,4.0,64.0
13508,58.0,0.0,90.0,4.0,64.0
13509,62.0,0.0,60.0,12.0,64.0
13510,50.0,0.0,60.0,13.0,64.0
13511,50.0,6.0,60.0,3.0,64.0
13512,62.0,0.0,90.0,4.0,64.0
13513,65.0,0.0,90.0,5.0,64.0
13514,82.0,18.0,90.0,11.0,64.0
13515,58.0,0.0,90.0,4.0,64.0
13516,74.0,0.0,90.0,5.0,64.0
13517,46.0,72.0,90.0,6.0,64.0
13518,82.0,0.0,90.0,10.0,64.0
13519,38.0,0.0,60.0,14.0,64.0
13520,34.0,0.0,180.0,14.0,64.0
13521,65.0,0.0,180.0,5.0,64.0
13522,58.0,0.0,180.0,12.0,64.0
13523,74.0,0.0,180.0,5.0,64.0
13524,82.0,60.0,60.0,11.0,64.0
13525,46.0,0.0,180.0,13.0,64.0
13526,46.0,0.0,180.0,3.0,64.0
13527,58.0,0.0,180.0,4.0,64.0
13528,82.0,0.0,60.0,10.0,64.0
13529,46.0,36.0,180.0,6.0,64.0
13530,62.0,0.0,180.0,4.0,64.0
13531,82.0,60.0,60.0,11.0,64.0
13532,82.0,0.0,60.0,10.0,64.0
13533,82.0,0.0,60.0,10.0,64.0
13534,82.0,24.0,60.0,11.0,64.0
13535,82.0,60.0,60.0,10.0,64.0
13536,82.0,0.0,60.0,11.0,64.0
13537,77.0,0.0,60.0,10.0,64.0
13538,77.0,60.0,60.0,11.0,64.0
13539,77.0,0.0,60.0,10.0,64.0
13540,77.0,60.0,60.0,11.0,64.0
13541,77.0,0.0,60.0,10.0,64.0
13542,77.0,60.0,60.0,11.0,64.0
13543,77.0,60.0,60.0,11.0,64.0
13544,77.0,0.0,60.0,10.0,64.0
13545,74.0,0.0,60.0,10.0,64.0
13546,74.0,60.0,60.0,11.0,64.0
13547,74.0,0.0,60.0,10.0,64.0
13548,74.0,60.0,60.0,11.0,64.0
13549,74.0,60.0,60.0,10.0,64.0
13550,74.0,0.0,60.0,11.0,64.0
13551,74.0,0.0,60.0,10.0,64.0
13552,74.0,60.0,60.0,11.0,64.0
13553,70.0,0.0,60.0,11.0,64.0
13554,58.0,0.0,150.0,4.0,64.0
13555,58.0,0.0,150.0,13.0,64.0
13556,46.0,0.0,150.0,14.0,64.0
13557,70.0,60.0,60.0,10.0,64.0
13558,58.0,0.0,120.0,3.0,64.0
13559,58.0,0.0,150.0,12.0,64.0
13560,70.0,12.0,150.0,5.0,64.0
13561,70.0,24.0,120.0,2.0,64.0
13562,70.0,24.0,60.0,10.0,64.0
13563,70.0,0.0,60.0,11.0,64.0
13564,70.0,60.0,60.0,11.0,64.0
13565,70.0,0.0,60.0,10.0,64.0
13566,70.0,0.0,60.0,10.0,64.0
13567,70.0,60.0,60.0,11.0,64.0
13568,50.0,0.0,150.0,14.0,64.0
13569,62.0,0.0,150.0,13.0,64.0
13570,74.0,0.0,60.0,11.0,64.0
13571,74.0,60.0,60.0,10.0,64.0
13572,74.0,0.0,150.0,5.0,64.0
13573,62.0,0.0,150.0,12.0,64.0
13574,62.0,12.0,150.0,4.0,64.0
13575,62.0,0.0,120.0,3.0,64.0
13576,74.0,24.0,120.0,2.0,64.0
13577,74.0,24.0,60.0,10.0,64.0
13578,74.0,0.0,60.0,11.0,64.0
13579,74.0,0.0,60.0,10.0,64.0
13580,74.0,60.0,60.0,11.0,64.0
13581,74.0,60.0,60.0,10.0,64.0
13582,74.0,0.0,60.0,11.0,64.0
13583,70.0,60.0,60.0,10.0,64.0
13584,70.0,0.0,150.0,5.0,64.0
13585,58.0,24.0,120.0,3.0,64.0
13586,70.0,0.0,120.0,2.0,64.0
13587,58.0,0.0,150.0,13.0,64.0
13588,58.0,0.0,150.0,12.0,64.0
13589,70.0,0.0,60.0,11.0,64.0
13590,58.0,0.0,150.0,4.0,64.0
13591,46.0,12.0,150.0,14.0,64.0
13592,70.0,0.0,60.0,11.0,64.0
13593,70.0,24.0,60.0,10.0,64.0
13594,70.0,0.0,60.0,11.0,64.0
13595,70.0,60.0,60.0,10.0,64.0
13596,70.0,60.0,60.0,10.0,64.0
13597,70.0,0.0,60.0,11.0,64.0
13598,65.0,0.0,60.0,10.0,64.0
13599,53.0,0.0,150.0,12.0,64.0
13600,65.0,0.0,120.0,2.0,64.0
13601,65.0,0.0,150.0,5.0,64.0
13602,65.0,60.0,60.0,11.0,64.0
13603,53.0,0.0,150.0,4.0,64.0
13604,53.0,24.0,120.0,3.0,64.0
13605,53.0,12.0,150.0,13.0,64.0
13606,41.0,0.0,150.0,14.0,64.0
13607,65.0,0.0,60.0,10.0,64.0
13608,65.0,24.0,60.0,11.0,64.0
13609,65.0,0.0,60.0,11.0,64.0
13610,65.0,60.0,60.0,10.0,64.0
13611,65.0,60.0,60.0,10.0,64.0
13612,65.0,0.0,60.0,11.0,64.0
13613,50.0,0.0,150.0,13.0,64.0
13614,50.0,0.0,150.0,4.0,64.0
13615,50.0,24.0,120.0,3.0,64.0
13616,38.0,0.0,150.0,14.0,64.0
13617,62.0,12.0,150.0,5.0,64.0
13618,62.0,0.0,60.0,10.0,64.0
13619,62.0,60.0,60.0,11.0,64.0
13620,50.0,0.0,150.0,12.0,64.0
13621,62.0,0.0,120.0,2.0,64.0
13622,62.0,24.0,60.0,11.0,64.0
13623,62.0,0.0,60.0,10.0,64.0
13624,62.0,60.0,60.0,11.0,64.0
13625,62.0,0.0,60.0,10.0,64.0
13626,62.0,0.0,60.0,11.0,64.0
13627,62.0,780.0,60.0,10.0,64.0
13628,70.0,0.0,780.0,0.0,64.0
13629,58.0,576.0,780.0,2.0,64.0
13630,58.0,0.0,780.0,11.0,64.0
13631,46.0,0.0,780.0,3.0,64.0
13632,46.0,0.0,780.0,6.0,64.0
13633,46.0,0.0,780.0,12.0,64.0
13634,70.0,0.0,780.0,11.0,64.0
13635,58.0,0.0,780.0,5.0,64.0
13636,46.0,0.0,780.0,4.0,64.0
13637,34.0,0.0,780.0,14.0,64.0
13638,70.0,0.0,780.0,1.0,64.0
13639,46.0,0.0,780.0,13.0,64.0
13640,58.0,0.0,780.0,10.0,64.0
13641,70.0,0.0,780.0,10.0,64.0
13642,46.0,480.0,390.0,12.0,64.0
13643,70.0,0.0,390.0,10.0,64.0
13644,46.0,0.0,390.0,6.0,64.0
13645,58.0,0.0,390.0,2.0,64.0
13646,70.0,0.0,390.0,1.0,64.0
13647,34.0,0.0,390.0,14.0,64.0
13648,58.0,0.0,390.0,11.0,64.0
13649,70.0,0.0,390.0,11.0,64.0
13650,58.0,0.0,390.0,5.0,64.0
13651,58.0,0.0,390.0,10.0,64.0
13652,46.0,0.0,390.0,4.0,64.0
13653,70.0,0.0,390.0,0.0,64.0
13654,46.0,0.0,390.0,13.0,64.0
13655,46.0,0.0,390.0,3.0,64.0
13656,46.0,0.0,390.0,12.0,64.0
13657,58.0,0.0,390.0,2.0,64.0
13658,46.0,0.0,390.0,4.0,64.0
13659,58.0,0.0,390.0,11.0,64.0
13660,70.0,0.0,390.0,11.0,64.0
13661,34.0,0.0,390.0,14.0,64.0
13662,58.0,0.0,390.0,5.0,64.0
13663,58.0,0.0,390.0,10.0,64.0
13664,46.0,0.0,390.0,13.0,64.0
13665,46.0,0.0,390.0,6.0,64.0
13666,46.0,0.0,390.0,3.0,64.0
13667,70.0,0.0,390.0,10.0,64.0
13668,70.0,120.0,390.0,1.0,64.0
13669,70.0,0.0,390.0,0.0,64.0
13670,46.0,0.0,1110.0,4.0,64.0
13671,70.0,18.0,570.0,10.0,64.0
13672,58.0,0.0,390.0,10.0,64.0
13673,58.0,0.0,570.0,2.0,64.0
13674,70.0,0.0,570.0,11.0,64.0
13675,58.0,30.0,390.0,11.0,64.0
13676,46.0,0.0,570.0,13.0,64.0
13677,70.0,0.0,570.0,1.0,64.0
13678,58.0,0.0,1110.0,5.0,64.0
13679,70.0,0.0,570.0,0.0,64.0
13680,46.0,0.0,570.0,3.0,64.0
13681,46.0,30.0,20.0,6.0,64.0
13682,34.0,0.0,570.0,14.0,64.0
13683,46.0,0.0,570.0,12.0,64.0
13684,46.0,30.0,20.0,6.0,64.0
13685,46.0,30.0,20.0,6.0,64.0
13686,46.0,30.0,20.0,6.0,64.0
13687,46.0,30.0,20.0,6.0,64.0
13688,46.0,30.0,20.0,6.0,64.0
13689,46.0,30.0,20.0,6.0,64.0
13690,46.0,30.0,20.0,6.0,64.0
13691,46.0,30.0,20.0,6.0,64.0
13692,46.0,30.0,20.0,6.0,64.0
13693,46.0,30.0,20.0,6.0,64.0
13694,46.0,30.0,20.0,6.0,64.0
13695,46.0,0.0,20.0,6.0,64.0
13696,46.0,30.0,20.0,6.0,64.0
13697,46.0,30.0,20.0,6.0,64.0
13698,46.0,30.0,20.0,6.0,64.0
13699,46.0,30.0,20.0,6.0,64.0
13700,46.0,30.0,20.0,6.0,64.0
13701,46.0,12.0,20.0,6.0,64.0
13702,46.0,30.0,20.0,6.0,64.0
13703,72.0,0.0,60.0,1.0,64.0
13704,48.0,0.0,60.0,12.0,64.0
13705,46.0,24.0,20.0,6.0,64.0
13706,60.0,6.0,60.0,2.0,64.0
13707,48.0,0.0,60.0,3.0,64.0
13708,36.0,0.0,60.0,14.0,64.0
13709,72.0,0.0,60.0,10.0,64.0
13710,72.0,0.0,60.0,0.0,64.0
13711,48.0,0.0,60.0,13.0,64.0
13712,72.0,0.0,60.0,11.0,64.0
13713,46.0,30.0,20.0,6.0,64.0
13714,74.0,0.0,60.0,0.0,64.0
13715,50.0,0.0,60.0,3.0,64.0
13716,74.0,0.0,60.0,1.0,64.0
13717,50.0,0.0,60.0,12.0,64.0
13718,62.0,0.0,60.0,2.0,64.0
13719,50.0,0.0,60.0,13.0,64.0
13720,74.0,0.0,60.0,10.0,64.0
13721,38.0,0.0,60.0,14.0,64.0
13722,74.0,6.0,60.0,11.0,64.0
13723,46.0,24.0,20.0,6.0,64.0
13724,46.0,30.0,20.0,6.0,64.0
13725,51.0,0.0,60.0,13.0,64.0
13726,75.0,6.0,60.0,0.0,64.0
13727,39.0,0.0,60.0,14.0,64.0
13728,46.0,24.0,20.0,6.0,64.0
13729,75.0,0.0,60.0,11.0,64.0
13730,51.0,0.0,60.0,12.0,64.0
13731,75.0,0.0,60.0,10.0,64.0
13732,63.0,0.0,60.0,2.0,64.0
13733,51.0,0.0,60.0,3.0,64.0
13734,75.0,0.0,60.0,1.0,64.0
13735,46.0,30.0,20.0,6.0,64.0
13736,65.0,0.0,60.0,2.0,64.0
13737,46.0,24.0,20.0,6.0,64.0
13738,77.0,0.0,60.0,11.0,64.0
13739,53.0,0.0,60.0,3.0,64.0
13740,77.0,0.0,60.0,0.0,64.0
13741,77.0,0.0,60.0,10.0,64.0
13742,41.0,0.0,60.0,14.0,64.0
13743,53.0,0.0,60.0,13.0,64.0
13744,77.0,0.0,60.0,1.0,64.0
13745,53.0,6.0,60.0,12.0,64.0
13746,46.0,30.0,20.0,6.0,64.0
13747,79.0,0.0,60.0,10.0,64.0
13748,55.0,0.0,60.0,3.0,64.0
13749,79.0,0.0,60.0,11.0,64.0
13750,55.0,0.0,60.0,12.0,64.0
13751,67.0,6.0,60.0,2.0,64.0
13752,43.0,0.0,60.0,14.0,64.0
13753,79.0,0.0,60.0,0.0,64.0
13754,79.0,0.0,60.0,1.0,64.0
13755,55.0,0.0,60.0,13.0,64.0
13756,46.0,24.0,20.0,6.0,64.0
13757,46.0,30.0,20.0,6.0,64.0
13758,81.0,0.0,60.0,0.0,64.0
13759,45.0,0.0,60.0,14.0,64.0
13760,69.0,0.0,60.0,2.0,64.0
13761,81.0,0.0,60.0,10.0,64.0
13762,81.0,0.0,60.0,11.0,64.0
13763,57.0,6.0,60.0,12.0,64.0
13764,46.0,24.0,20.0,6.0,64.0
13765,81.0,0.0,60.0,1.0,64.0
13766,57.0,0.0,60.0,13.0,64.0
13767,57.0,0.0,60.0,3.0,64.0
13768,46.0,30.0,20.0,6.0,64.0
13769,46.0,30.0,20.0,6.0,64.0
13770,58.0,0.0,150.0,13.0,64.0
13771,82.0,18.0,150.0,1.0,64.0
13772,58.0,0.0,150.0,3.0,64.0
13773,82.0,0.0,150.0,0.0,64.0
13774,70.0,0.0,150.0,2.0,64.0
13775,58.0,0.0,150.0,12.0,64.0
13776,46.0,0.0,150.0,14.0,64.0
13777,82.0,0.0,150.0,10.0,64.0
13778,82.0,0.0,150.0,11.0,64.0
13779,46.0,30.0,20.0,6.0,64.0
13780,46.0,30.0,20.0,6.0,64.0
13781,46.0,30.0,20.0,6.0,64.0
13782,46.0,12.0,20.0,6.0,64.0
13783,46.0,30.0,20.0,6.0,64.0
13784,46.0,30.0,20.0,6.0,64.0
13785,46.0,30.0,20.0,6.0,64.0
13786,65.0,0.0,150.0,11.0,64.0
13787,74.0,0.0,150.0,11.0,64.0
13788,77.0,0.0,150.0,0.0,64.0
13789,46.0,0.0,150.0,14.0,64.0
13790,58.0,0.0,150.0,13.0,64.0
13791,58.0,0.0,150.0,11.0,64.0
13792,58.0,0.0,150.0,3.0,64.0
13793,58.0,0.0,150.0,12.0,64.0
13794,82.0,0.0,150.0,0.0,64.0
13795,58.0,0.0,150.0,4.0,64.0
13796,70.0,0.0,150.0,10.0,64.0
13797,58.0,0.0,150.0,2.0,64.0
13798,74.0,0.0,150.0,1.0,64.0
13799,62.0,18.0,150.0,2.0,64.0
13800,70.0,0.0,150.0,1.0,64.0
13801,46.0,30.0,20.0,6.0,64.0
13802,58.0,0.0,150.0,10.0,64.0
13803,82.0,0.0,150.0,10.0,64.0
13804,46.0,0.0,150.0,4.0,64.0
13805,70.0,0.0,150.0,5.0,64.0
13806,46.0,30.0,20.0,6.0,64.0
13807,46.0,30.0,20.0,6.0,64.0
13808,46.0,30.0,20.0,6.0,64.0
13809,46.0,12.0,20.0,6.0,64.0
13810,46.0,30.0,20.0,6.0,64.0
13811,46.0,30.0,20.0,6.0,64.0
13812,46.0,30.0,20.0,6.0,64.0
13813,62.0,0.0,150.0,2.0,64.0
13814,65.0,0.0,150.0,5.0,64.0
13815,58.0,0.0,150.0,10.0,64.0
13816,41.0,0.0,150.0,14.0,64.0
13817,82.0,0.0,150.0,10.0,64.0
13818,58.0,18.0,150.0,2.0,64.0
13819,74.0,0.0,150.0,11.0,64.0
13820,65.0,0.0,150.0,11.0,64.0
13821,53.0,0.0,150.0,13.0,64.0
13822,46.0,30.0,20.0,6.0,64.0
13823,58.0,0.0,150.0,11.0,64.0
13824,53.0,0.0,150.0,3.0,64.0
13825,74.0,0.0,150.0,1.0,64.0
13826,70.0,0.0,150.0,1.0,64.0
13827,82.0,0.0,150.0,0.0,64.0
13828,77.0,0.0,150.0,0.0,64.0
13829,46.0,0.0,150.0,4.0,64.0
13830,58.0,0.0,150.0,4.0,64.0
13831,70.0,0.0,150.0,10.0,64.0
13832,65.0,0.0,150.0,12.0,64.0
13833,46.0,30.0,20.0,6.0,64.0
13834,46.0,30.0,20.0,6.0,64.0
13835,46.0,30.0,20.0,6.0,64.0
13836,46.0,12.0,20.0,6.0,64.0
13837,46.0,30.0,20.0,6.0,64.0
13838,46.0,30.0,20.0,6.0,64.0
13839,46.0,30.0,20.0,6.0,64.0
13840,46.0,30.0,20.0,6.0,64.0
13841,58.0,0.0,150.0,10.0,64.0
13842,77.0,0.0,150.0,0.0,64.0
13843,70.0,0.0,150.0,1.0,64.0
13844,65.0,0.0,150.0,11.0,64.0
13845,74.0,0.0,150.0,11.0,64.0
13846,58.0,0.0,150.0,11.0,64.0
13847,46.0,0.0,150.0,4.0,64.0
13848,58.0,0.0,150.0,4.0,64.0
13849,82.0,0.0,150.0,0.0,64.0
13850,62.0,0.0,150.0,2.0,64.0
13851,62.0,0.0,150.0,12.0,64.0
13852,74.0,0.0,150.0,1.0,64.0
13853,62.0,0.0,150.0,5.0,64.0
13854,50.0,0.0,150.0,13.0,64.0
13855,50.0,0.0,150.0,3.0,64.0
13856,82.0,0.0,150.0,10.0,64.0
13857,38.0,0.0,150.0,14.0,64.0
13858,70.0,18.0,150.0,10.0,64.0
13859,58.0,0.0,150.0,2.0,64.0
13860,46.0,30.0,20.0,6.0,64.0
13861,46.0,30.0,20.0,6.0,64.0
13862,46.0,30.0,20.0,6.0,64.0
13863,46.0,12.0,20.0,6.0,64.0
13864,46.0,30.0,20.0,6.0,64.0
13865,46.0,30.0,20.0,6.0,64.0
13866,46.0,318.0,20.0,6.0,64.0
13867,62.0,0.0,360.0,2.0,64.0
13868,58.0,0.0,360.0,2.0,64.0
13869,58.0,0.0,360.0,4.0,64.0
13870,46.0,0.0,360.0,3.0,64.0
13871,70.0,0.0,300.0,10.0,64.0
13872,82.0,0.0,300.0,10.0,64.0
13873,70.0,0.0,360.0,1.0,64.0
13874,74.0,0.0,360.0,1.0,64.0
13875,58.0,0.0,300.0,10.0,64.0
13876,46.0,0.0,360.0,4.0,64.0
13877,58.0,0.0,300.0,11.0,64.0
13878,82.0,24.0,360.0,0.0,64.0
13879,58.0,0.0,300.0,12.0,64.0
13880,58.0,0.0,360.0,5.0,64.0
13881,34.0,0.0,300.0,14.0,64.0
13882,74.0,0.0,300.0,11.0,64.0
13883,65.0,48.0,300.0,11.0,64.0
13884,77.0,0.0,360.0,0.0,64.0
13885,46.0,0.0,300.0,13.0,64.0
13886,46.0,408.0,390.0,6.0,64.0
13887,58.0,0.0,300.0,12.0,64.0
13888,46.0,0.0,360.0,3.0,64.0
13889,70.0,0.0,300.0,10.0,64.0
13890,62.0,0.0,360.0,2.0,64.0
13891,58.0,0.0,360.0,2.0,64.0
13892,34.0,0.0,300.0,14.0,64.0
13893,74.0,0.0,300.0,11.0,64.0
13894,58.0,0.0,300.0,11.0,64.0
13895,82.0,0.0,300.0,10.0,64.0
13896,82.0,0.0,360.0,0.0,64.0
13897,77.0,0.0,360.0,0.0,64.0
13898,46.0,48.0,300.0,13.0,64.0
13899,58.0,0.0,360.0,4.0,64.0
13900,46.0,576.0,390.0,6.0,64.0
13901,74.0,0.0,360.0,1.0,64.0
13902,70.0,0.0,360.0,1.0,64.0
13903,46.0,24.0,360.0,4.0,64.0
13904,58.0,0.0,360.0,5.0,64.0
13905,65.0,0.0,300.0,11.0,64.0
13906,58.0,0.0,300.0,10.0,64.0
13907,58.0,0.0,480.0,12.0,64.0
13908,62.0,0.0,480.0,2.0,64.0
13909,34.0,0.0,480.0,14.0,64.0
13910,77.0,0.0,480.0,0.0,64.0
13911,82.0,0.0,480.0,0.0,64.0
13912,58.0,0.0,480.0,2.0,64.0
13913,58.0,0.0,480.0,4.0,64.0
13914,46.0,0.0,480.0,4.0,64.0
13915,46.0,0.0,480.0,13.0,64.0
13916,70.0,0.0,480.0,1.0,64.0
13917,74.0,0.0,480.0,1.0,64.0
13918,70.0,0.0,480.0,10.0,64.0
13919,74.0,0.0,480.0,11.0,64.0
13920,46.0,0.0,480.0,3.0,64.0
13921,58.0,0.0,480.0,5.0,64.0
13922,82.0,0.0,480.0,10.0,64.0
13923,58.0,2784.0,480.0,10.0,64.0
13924,46.0,0.0,480.0,6.0,64.0
13925,22.0,0.0,390.0,14.0,64.0
