,note,step,duration,channel,velocity
0,61.0,0.0,30.0,4.0,0.0
1,61.0,0.0,30.0,5.0,0.0
2,73.0,30.0,240.0,2.0,0.0
3,61.0,0.0,240.0,2.0,0.0
4,61.0,0.0,30.0,6.0,0.0
5,49.0,0.0,30.0,15.0,0.0
6,49.0,0.0,240.0,14.0,0.0
7,49.0,30.0,30.0,7.0,0.0
8,37.0,0.0,30.0,8.0,0.0
9,62.0,0.0,30.0,6.0,0.0
10,38.0,0.0,30.0,8.0,0.0
11,50.0,60.0,30.0,15.0,0.0
12,62.0,0.0,30.0,4.0,0.0
13,62.0,0.0,30.0,5.0,0.0
14,50.0,0.0,30.0,7.0,0.0
15,52.0,0.0,60.0,7.0,0.0
16,64.0,30.0,60.0,4.0,0.0
17,40.0,0.0,60.0,8.0,0.0
18,52.0,0.0,60.0,15.0,0.0
19,64.0,0.0,60.0,6.0,0.0
20,64.0,0.0,60.0,5.0,0.0
21,40.0,0.0,30.0,8.0,0.0
22,64.0,0.0,30.0,5.0,0.0
23,52.0,0.0,30.0,7.0,0.0
24,64.0,0.0,30.0,6.0,0.0
25,52.0,0.0,30.0,15.0,0.0
26,64.0,60.0,30.0,4.0,0.0
27,52.0,0.0,30.0,15.0,0.0
28,64.0,0.0,30.0,5.0,0.0
29,64.0,0.0,30.0,6.0,0.0
30,64.0,0.0,30.0,4.0,0.0
31,52.0,0.0,30.0,7.0,0.0
32,40.0,30.0,30.0,8.0,0.0
33,61.0,0.0,180.0,3.0,0.0
34,61.0,0.0,180.0,1.0,0.0
35,64.0,0.0,30.0,6.0,0.0
36,64.0,0.0,30.0,5.0,0.0
37,61.0,30.0,180.0,13.0,0.0
38,52.0,0.0,30.0,15.0,0.0
39,64.0,0.0,30.0,4.0,0.0
40,40.0,30.0,30.0,8.0,0.0
41,52.0,0.0,30.0,7.0,0.0
42,62.0,0.0,30.0,6.0,0.0
43,50.0,0.0,30.0,7.0,0.0
44,38.0,60.0,30.0,8.0,0.0
45,62.0,0.0,30.0,4.0,0.0
46,62.0,0.0,30.0,5.0,0.0
47,50.0,0.0,30.0,15.0,0.0
48,61.0,0.0,60.0,4.0,0.0
49,37.0,30.0,60.0,8.0,0.0
50,49.0,0.0,60.0,15.0,0.0
51,61.0,0.0,60.0,5.0,0.0
52,49.0,0.0,60.0,7.0,0.0
53,61.0,0.0,60.0,6.0,0.0
54,49.0,30.0,30.0,15.0,0.0
55,49.0,0.0,30.0,7.0,0.0
56,37.0,0.0,30.0,8.0,0.0
57,61.0,0.0,30.0,5.0,0.0
58,61.0,0.0,30.0,6.0,0.0
59,61.0,0.0,30.0,4.0,0.0
60,61.0,0.0,30.0,6.0,0.0
61,56.0,0.0,60.0,1.0,0.0
62,37.0,30.0,30.0,8.0,0.0
63,56.0,0.0,60.0,3.0,0.0
64,61.0,0.0,30.0,4.0,0.0
65,49.0,0.0,30.0,15.0,0.0
66,56.0,30.0,60.0,13.0,0.0
67,49.0,0.0,30.0,7.0,0.0
68,61.0,0.0,30.0,5.0,0.0
69,64.0,0.0,240.0,13.0,0.0
70,49.0,30.0,240.0,14.0,0.0
71,64.0,0.0,240.0,3.0,0.0
72,73.0,0.0,240.0,2.0,0.0
73,61.0,0.0,240.0,2.0,0.0
74,64.0,0.0,240.0,1.0,0.0
75,61.0,0.0,30.0,6.0,0.0
76,61.0,30.0,30.0,4.0,0.0
77,61.0,0.0,30.0,5.0,0.0
78,49.0,0.0,30.0,15.0,0.0
79,37.0,0.0,30.0,8.0,0.0
80,49.0,0.0,30.0,7.0,0.0
81,62.0,0.0,30.0,4.0,0.0
82,50.0,0.0,30.0,15.0,0.0
83,38.0,0.0,30.0,8.0,0.0
84,62.0,0.0,30.0,5.0,0.0
85,62.0,0.0,30.0,6.0,0.0
86,50.0,60.0,30.0,7.0,0.0
87,64.0,30.0,60.0,4.0,0.0
88,52.0,0.0,60.0,7.0,0.0
89,40.0,0.0,60.0,8.0,0.0
90,64.0,0.0,60.0,5.0,0.0
91,52.0,0.0,60.0,15.0,0.0
92,64.0,0.0,60.0,6.0,0.0
93,64.0,0.0,30.0,4.0,0.0
94,64.0,0.0,30.0,6.0,0.0
95,52.0,0.0,30.0,15.0,0.0
96,52.0,0.0,30.0,7.0,0.0
97,40.0,60.0,30.0,8.0,0.0
98,64.0,0.0,30.0,5.0,0.0
99,64.0,0.0,30.0,4.0,0.0
100,40.0,0.0,30.0,8.0,0.0
101,64.0,0.0,30.0,5.0,0.0
102,52.0,0.0,30.0,15.0,0.0
103,64.0,0.0,30.0,6.0,0.0
104,52.0,30.0,30.0,7.0,0.0
105,64.0,0.0,180.0,3.0,0.0
106,64.0,0.0,180.0,1.0,0.0
107,64.0,30.0,180.0,12.0,0.0
108,61.0,0.0,240.0,13.0,0.0
109,64.0,0.0,30.0,6.0,0.0
110,64.0,0.0,30.0,4.0,0.0
111,40.0,30.0,30.0,8.0,0.0
112,52.0,0.0,30.0,15.0,0.0
113,52.0,0.0,30.0,7.0,0.0
114,64.0,0.0,30.0,5.0,0.0
115,38.0,0.0,30.0,8.0,0.0
116,50.0,0.0,30.0,15.0,0.0
117,62.0,0.0,30.0,6.0,0.0
118,62.0,0.0,30.0,5.0,0.0
119,50.0,0.0,30.0,7.0,0.0
120,62.0,60.0,30.0,4.0,0.0
121,37.0,0.0,60.0,8.0,0.0
122,49.0,0.0,60.0,7.0,0.0
123,49.0,0.0,60.0,15.0,0.0
124,61.0,30.0,60.0,6.0,0.0
125,61.0,0.0,60.0,4.0,0.0
126,61.0,0.0,60.0,5.0,0.0
127,49.0,0.0,30.0,7.0,0.0
128,49.0,30.0,30.0,15.0,0.0
129,61.0,0.0,30.0,5.0,0.0
130,37.0,0.0,30.0,8.0,0.0
131,61.0,0.0,30.0,4.0,0.0
132,61.0,0.0,30.0,6.0,0.0
133,49.0,0.0,30.0,7.0,0.0
134,61.0,0.0,60.0,1.0,0.0
135,37.0,0.0,30.0,8.0,0.0
136,61.0,0.0,30.0,4.0,0.0
137,61.0,0.0,60.0,12.0,0.0
138,61.0,0.0,60.0,3.0,0.0
139,61.0,0.0,30.0,6.0,0.0
140,49.0,0.0,30.0,15.0,0.0
141,61.0,30.0,30.0,5.0,0.0
142,51.0,30.0,30.0,7.0,0.0
143,63.0,0.0,30.0,4.0,0.0
144,63.0,0.0,30.0,5.0,0.0
145,51.0,0.0,30.0,15.0,0.0
146,78.0,0.0,240.0,2.0,0.0
147,63.0,0.0,30.0,6.0,0.0
148,54.0,0.0,240.0,14.0,0.0
149,66.0,30.0,240.0,2.0,0.0
150,66.0,0.0,240.0,3.0,0.0
151,66.0,0.0,240.0,1.0,0.0
152,39.0,0.0,30.0,8.0,0.0
153,66.0,0.0,240.0,12.0,0.0
154,52.0,0.0,30.0,15.0,0.0
155,64.0,0.0,30.0,6.0,0.0
156,64.0,60.0,30.0,4.0,0.0
157,52.0,0.0,30.0,7.0,0.0
158,40.0,0.0,30.0,8.0,0.0
159,64.0,0.0,30.0,5.0,0.0
160,66.0,0.0,60.0,5.0,0.0
161,42.0,0.0,60.0,8.0,0.0
162,54.0,0.0,60.0,15.0,0.0
163,54.0,0.0,60.0,7.0,0.0
164,66.0,30.0,60.0,4.0,0.0
165,66.0,0.0,60.0,6.0,0.0
166,42.0,0.0,30.0,8.0,0.0
167,66.0,0.0,30.0,6.0,0.0
168,66.0,0.0,30.0,4.0,0.0
169,54.0,0.0,30.0,7.0,0.0
170,54.0,60.0,30.0,15.0,0.0
171,66.0,0.0,30.0,5.0,0.0
172,54.0,30.0,30.0,7.0,0.0
173,42.0,0.0,30.0,8.0,0.0
174,66.0,0.0,30.0,4.0,0.0
175,54.0,0.0,30.0,15.0,0.0
176,66.0,0.0,30.0,6.0,0.0
177,66.0,0.0,30.0,5.0,0.0
178,42.0,0.0,30.0,8.0,0.0
179,54.0,0.0,30.0,15.0,0.0
180,66.0,0.0,30.0,5.0,0.0
181,66.0,0.0,30.0,6.0,0.0
182,63.0,0.0,180.0,3.0,0.0
183,66.0,0.0,30.0,4.0,0.0
184,63.0,30.0,180.0,1.0,0.0
185,60.0,30.0,240.0,1.0,0.0
186,60.0,0.0,240.0,3.0,0.0
187,60.0,0.0,240.0,12.0,0.0
188,54.0,30.0,30.0,7.0,0.0
189,63.0,0.0,180.0,13.0,0.0
190,40.0,0.0,30.0,8.0,0.0
191,64.0,0.0,30.0,5.0,0.0
192,64.0,0.0,30.0,4.0,0.0
193,64.0,0.0,30.0,6.0,0.0
194,52.0,0.0,30.0,7.0,0.0
195,52.0,60.0,30.0,15.0,0.0
196,39.0,0.0,60.0,8.0,0.0
197,51.0,30.0,60.0,7.0,0.0
198,63.0,0.0,60.0,6.0,0.0
199,63.0,0.0,60.0,5.0,0.0
200,63.0,0.0,60.0,4.0,0.0
201,51.0,0.0,60.0,15.0,0.0
202,63.0,0.0,30.0,5.0,0.0
203,51.0,30.0,30.0,15.0,0.0
204,39.0,0.0,30.0,8.0,0.0
205,51.0,0.0,30.0,7.0,0.0
206,63.0,0.0,30.0,4.0,0.0
207,63.0,0.0,30.0,6.0,0.0
208,63.0,30.0,30.0,4.0,0.0
209,39.0,0.0,30.0,8.0,0.0
210,56.0,0.0,60.0,13.0,0.0
211,63.0,0.0,30.0,5.0,0.0
212,51.0,0.0,30.0,15.0,0.0
213,56.0,0.0,60.0,1.0,0.0
214,51.0,0.0,30.0,7.0,0.0
215,63.0,0.0,30.0,6.0,0.0
216,56.0,0.0,60.0,3.0,0.0
217,78.0,0.0,240.0,2.0,0.0
218,63.0,0.0,30.0,5.0,0.0
219,66.0,30.0,240.0,13.0,0.0
220,66.0,0.0,240.0,2.0,0.0
221,66.0,0.0,240.0,3.0,0.0
222,39.0,0.0,30.0,8.0,0.0
223,51.0,0.0,30.0,15.0,0.0
224,54.0,0.0,240.0,14.0,0.0
225,63.0,0.0,30.0,4.0,0.0
226,51.0,0.0,30.0,7.0,0.0
227,63.0,30.0,30.0,6.0,0.0
228,66.0,0.0,240.0,1.0,0.0
229,40.0,0.0,30.0,8.0,0.0
230,64.0,60.0,30.0,6.0,0.0
231,64.0,0.0,30.0,5.0,0.0
232,52.0,0.0,30.0,7.0,0.0
233,52.0,0.0,30.0,15.0,0.0
234,64.0,0.0,30.0,4.0,0.0
235,42.0,0.0,60.0,8.0,0.0
236,66.0,0.0,60.0,6.0,0.0
237,66.0,0.0,60.0,4.0,0.0
238,66.0,30.0,60.0,5.0,0.0
239,54.0,0.0,60.0,15.0,0.0
240,54.0,0.0,60.0,7.0,0.0
241,66.0,0.0,30.0,6.0,0.0
242,54.0,0.0,30.0,15.0,0.0
243,54.0,0.0,30.0,7.0,0.0
244,66.0,0.0,30.0,5.0,0.0
245,66.0,60.0,30.0,4.0,0.0
246,42.0,0.0,30.0,8.0,0.0
247,66.0,0.0,30.0,6.0,0.0
248,42.0,0.0,30.0,8.0,0.0
249,54.0,0.0,30.0,7.0,0.0
250,66.0,0.0,30.0,5.0,0.0
251,66.0,30.0,30.0,4.0,0.0
252,54.0,0.0,30.0,15.0,0.0
253,42.0,0.0,30.0,8.0,0.0
254,66.0,0.0,30.0,6.0,0.0
255,54.0,0.0,30.0,15.0,0.0
256,66.0,0.0,30.0,5.0,0.0
257,60.0,30.0,240.0,13.0,0.0
258,54.0,0.0,30.0,7.0,0.0
259,66.0,30.0,30.0,4.0,0.0
260,66.0,0.0,180.0,3.0,0.0
261,66.0,0.0,180.0,12.0,0.0
262,60.0,0.0,240.0,3.0,0.0
263,66.0,30.0,180.0,1.0,0.0
264,60.0,0.0,240.0,1.0,0.0
265,52.0,0.0,30.0,15.0,0.0
266,52.0,0.0,30.0,7.0,0.0
267,64.0,0.0,30.0,4.0,0.0
268,40.0,0.0,30.0,8.0,0.0
269,64.0,60.0,30.0,6.0,0.0
270,64.0,0.0,30.0,5.0,0.0
271,63.0,0.0,60.0,4.0,0.0
272,51.0,0.0,60.0,7.0,0.0
273,63.0,0.0,60.0,6.0,0.0
274,39.0,0.0,60.0,8.0,0.0
275,51.0,30.0,60.0,15.0,0.0
276,63.0,0.0,60.0,5.0,0.0
277,51.0,30.0,30.0,7.0,0.0
278,63.0,0.0,30.0,4.0,0.0
279,63.0,0.0,30.0,6.0,0.0
280,39.0,0.0,30.0,8.0,0.0
281,63.0,0.0,30.0,5.0,0.0
282,51.0,0.0,30.0,15.0,0.0
283,63.0,0.0,60.0,1.0,0.0
284,63.0,0.0,30.0,5.0,0.0
285,63.0,0.0,30.0,6.0,0.0
286,63.0,0.0,60.0,12.0,0.0
287,63.0,0.0,30.0,4.0,0.0
288,51.0,0.0,30.0,15.0,0.0
289,51.0,30.0,30.0,7.0,0.0
290,39.0,0.0,30.0,8.0,0.0
291,63.0,0.0,60.0,3.0,0.0
292,49.0,0.0,240.0,14.0,0.0
293,64.0,0.0,30.0,4.0,0.0
294,68.0,0.0,240.0,12.0,0.0
295,52.0,0.0,30.0,7.0,0.0
296,68.0,0.0,240.0,1.0,0.0
297,73.0,0.0,240.0,2.0,0.0
298,80.0,30.0,240.0,2.0,0.0
299,40.0,0.0,30.0,8.0,0.0
300,68.0,0.0,240.0,3.0,0.0
301,64.0,30.0,30.0,5.0,0.0
302,64.0,0.0,30.0,6.0,0.0
303,52.0,0.0,30.0,15.0,0.0
304,65.0,0.0,30.0,5.0,0.0
305,65.0,0.0,30.0,4.0,0.0
306,41.0,0.0,30.0,8.0,0.0
307,53.0,0.0,30.0,15.0,0.0
308,53.0,0.0,30.0,7.0,0.0
309,65.0,60.0,30.0,6.0,0.0
310,68.0,0.0,60.0,6.0,0.0
311,68.0,0.0,60.0,5.0,0.0
312,44.0,0.0,60.0,8.0,0.0
313,68.0,0.0,60.0,4.0,0.0
314,56.0,0.0,60.0,15.0,0.0
315,56.0,30.0,60.0,7.0,0.0
316,56.0,0.0,30.0,7.0,0.0
317,68.0,0.0,30.0,6.0,0.0
318,44.0,0.0,30.0,8.0,0.0
319,68.0,0.0,30.0,4.0,0.0
320,68.0,0.0,30.0,5.0,0.0
321,56.0,60.0,30.0,15.0,0.0
322,56.0,0.0,30.0,15.0,0.0
323,44.0,30.0,30.0,8.0,0.0
324,68.0,0.0,30.0,4.0,0.0
325,56.0,0.0,30.0,7.0,0.0
326,68.0,0.0,30.0,5.0,0.0
327,68.0,0.0,30.0,6.0,0.0
328,68.0,0.0,30.0,6.0,0.0
329,68.0,0.0,30.0,5.0,0.0
330,68.0,30.0,180.0,3.0,0.0
331,56.0,0.0,30.0,7.0,0.0
332,68.0,0.0,30.0,4.0,0.0
333,61.0,0.0,240.0,3.0,0.0
334,68.0,0.0,180.0,13.0,0.0
335,61.0,0.0,240.0,12.0,0.0
336,68.0,0.0,180.0,1.0,0.0
337,56.0,30.0,30.0,15.0,0.0
338,61.0,0.0,240.0,1.0,0.0
339,44.0,0.0,30.0,8.0,0.0
340,65.0,0.0,30.0,6.0,0.0
341,53.0,0.0,30.0,15.0,0.0
342,65.0,0.0,30.0,5.0,0.0
343,41.0,0.0,30.0,8.0,0.0
344,53.0,0.0,30.0,7.0,0.0
345,65.0,60.0,30.0,4.0,0.0
346,64.0,0.0,60.0,4.0,0.0
347,64.0,0.0,60.0,5.0,0.0
348,40.0,0.0,60.0,8.0,0.0
349,52.0,0.0,60.0,15.0,0.0
350,52.0,0.0,60.0,7.0,0.0
351,64.0,30.0,60.0,6.0,0.0
352,64.0,0.0,30.0,4.0,0.0
353,52.0,30.0,30.0,15.0,0.0
354,64.0,0.0,30.0,6.0,0.0
355,52.0,0.0,30.0,7.0,0.0
356,64.0,0.0,30.0,5.0,0.0
357,40.0,0.0,30.0,8.0,0.0
358,64.0,0.0,30.0,4.0,0.0
359,52.0,0.0,30.0,7.0,0.0
360,64.0,0.0,30.0,5.0,0.0
361,66.0,30.0,60.0,3.0,0.0
362,52.0,30.0,30.0,15.0,0.0
363,64.0,0.0,30.0,6.0,0.0
364,66.0,0.0,60.0,1.0,0.0
365,66.0,0.0,60.0,13.0,0.0
366,40.0,0.0,30.0,8.0,0.0
367,52.0,0.0,30.0,7.0,0.0
368,80.0,30.0,240.0,2.0,0.0
369,73.0,0.0,240.0,2.0,0.0
370,64.0,0.0,30.0,5.0,0.0
371,64.0,30.0,30.0,6.0,0.0
372,64.0,0.0,180.0,3.0,0.0
373,64.0,0.0,180.0,13.0,0.0
374,49.0,0.0,240.0,14.0,0.0
375,40.0,0.0,30.0,8.0,0.0
376,52.0,0.0,30.0,15.0,0.0
377,64.0,30.0,180.0,1.0,0.0
378,64.0,0.0,30.0,4.0,0.0
379,65.0,0.0,30.0,4.0,0.0
380,65.0,0.0,30.0,5.0,0.0
381,53.0,0.0,30.0,7.0,0.0
382,53.0,0.0,30.0,15.0,0.0
383,65.0,60.0,30.0,6.0,0.0
384,41.0,0.0,30.0,8.0,0.0
385,44.0,0.0,60.0,8.0,0.0
386,68.0,0.0,60.0,4.0,0.0
387,68.0,0.0,60.0,5.0,0.0
388,68.0,0.0,60.0,6.0,0.0
389,56.0,30.0,60.0,7.0,0.0
390,56.0,0.0,60.0,15.0,0.0
391,68.0,0.0,30.0,4.0,0.0
392,68.0,0.0,30.0,6.0,0.0
393,44.0,30.0,30.0,8.0,0.0
394,68.0,0.0,30.0,5.0,0.0
395,56.0,0.0,30.0,7.0,0.0
396,56.0,0.0,30.0,15.0,0.0
397,56.0,0.0,30.0,7.0,0.0
398,44.0,30.0,30.0,8.0,0.0
399,68.0,0.0,30.0,4.0,0.0
400,68.0,0.0,30.0,6.0,0.0
401,63.0,0.0,60.0,3.0,0.0
402,56.0,0.0,30.0,15.0,0.0
403,68.0,0.0,30.0,5.0,0.0
404,63.0,0.0,60.0,1.0,0.0
405,63.0,0.0,60.0,13.0,0.0
406,44.0,30.0,30.0,8.0,0.0
407,68.0,0.0,30.0,6.0,0.0
408,68.0,0.0,30.0,4.0,0.0
409,61.0,0.0,180.0,13.0,0.0
410,56.0,0.0,30.0,15.0,0.0
411,61.0,30.0,180.0,3.0,0.0
412,68.0,0.0,30.0,5.0,0.0
413,61.0,0.0,180.0,1.0,0.0
414,56.0,0.0,30.0,7.0,0.0
415,65.0,0.0,30.0,4.0,0.0
416,41.0,0.0,30.0,8.0,0.0
417,53.0,0.0,30.0,7.0,0.0
418,65.0,0.0,30.0,5.0,0.0
419,65.0,60.0,30.0,6.0,0.0
420,53.0,0.0,30.0,15.0,0.0
421,40.0,0.0,60.0,8.0,0.0
422,52.0,0.0,60.0,15.0,0.0
423,64.0,30.0,60.0,5.0,0.0
424,52.0,0.0,60.0,7.0,0.0
425,64.0,0.0,60.0,4.0,0.0
426,64.0,0.0,60.0,6.0,0.0
427,64.0,30.0,30.0,4.0,0.0
428,64.0,0.0,30.0,5.0,0.0
429,52.0,0.0,30.0,15.0,0.0
430,52.0,0.0,30.0,7.0,0.0
431,40.0,0.0,30.0,8.0,0.0
432,64.0,0.0,30.0,6.0,0.0
433,64.0,0.0,30.0,6.0,0.0
434,40.0,0.0,30.0,8.0,0.0
435,64.0,0.0,30.0,5.0,0.0
436,59.0,0.0,60.0,3.0,0.0
437,64.0,0.0,30.0,4.0,0.0
438,59.0,0.0,60.0,13.0,0.0
439,52.0,0.0,30.0,7.0,0.0
440,59.0,30.0,60.0,1.0,0.0
441,52.0,30.0,30.0,15.0,0.0
442,54.0,0.0,30.0,15.0,0.0
443,57.0,0.0,240.0,1.0,0.0
444,54.0,0.0,30.0,6.0,0.0
445,78.0,0.0,240.0,2.0,0.0
446,54.0,0.0,240.0,14.0,0.0
447,66.0,0.0,30.0,4.0,0.0
448,66.0,30.0,240.0,2.0,0.0
449,42.0,30.0,30.0,8.0,0.0
450,54.0,0.0,30.0,7.0,0.0
451,57.0,0.0,240.0,13.0,0.0
452,66.0,0.0,30.0,5.0,0.0
453,57.0,0.0,240.0,3.0,0.0
454,67.0,0.0,30.0,4.0,0.0
455,55.0,60.0,30.0,15.0,0.0
456,43.0,0.0,30.0,8.0,0.0
457,55.0,0.0,30.0,6.0,0.0
458,55.0,0.0,30.0,7.0,0.0
459,67.0,0.0,30.0,5.0,0.0
460,57.0,0.0,60.0,15.0,0.0
461,69.0,0.0,60.0,5.0,0.0
462,45.0,0.0,60.0,8.0,0.0
463,69.0,30.0,60.0,4.0,0.0
464,57.0,0.0,60.0,6.0,0.0
465,57.0,0.0,60.0,7.0,0.0
466,57.0,60.0,30.0,15.0,0.0
467,57.0,0.0,30.0,7.0,0.0
468,69.0,0.0,30.0,5.0,0.0
469,57.0,0.0,30.0,6.0,0.0
470,69.0,0.0,30.0,4.0,0.0
471,45.0,0.0,30.0,8.0,0.0
472,57.0,0.0,30.0,6.0,0.0
473,69.0,0.0,30.0,4.0,0.0
474,57.0,0.0,30.0,15.0,0.0
475,69.0,0.0,30.0,5.0,0.0
476,45.0,0.0,30.0,8.0,0.0
477,57.0,30.0,30.0,7.0,0.0
478,69.0,0.0,180.0,1.0,0.0
479,57.0,0.0,30.0,7.0,0.0
480,69.0,0.0,30.0,4.0,0.0
481,57.0,30.0,30.0,6.0,0.0
482,69.0,30.0,180.0,3.0,0.0
483,69.0,0.0,30.0,5.0,0.0
484,45.0,0.0,30.0,8.0,0.0
485,69.0,0.0,180.0,12.0,0.0
486,54.0,30.0,240.0,1.0,0.0
487,57.0,0.0,30.0,15.0,0.0
488,54.0,0.0,240.0,3.0,0.0
489,54.0,0.0,240.0,13.0,0.0
490,67.0,0.0,30.0,5.0,0.0
491,67.0,0.0,30.0,4.0,0.0
492,55.0,0.0,30.0,6.0,0.0
493,43.0,60.0,30.0,8.0,0.0
494,55.0,0.0,30.0,15.0,0.0
495,55.0,0.0,30.0,7.0,0.0
496,54.0,0.0,60.0,15.0,0.0
497,54.0,0.0,60.0,6.0,0.0
498,66.0,0.0,60.0,4.0,0.0
499,66.0,0.0,60.0,5.0,0.0
500,42.0,30.0,60.0,8.0,0.0
501,54.0,0.0,60.0,7.0,0.0
502,54.0,30.0,30.0,15.0,0.0
503,54.0,0.0,30.0,6.0,0.0
504,54.0,0.0,30.0,7.0,0.0
505,42.0,0.0,30.0,8.0,0.0
506,66.0,0.0,30.0,4.0,0.0
507,66.0,0.0,30.0,5.0,0.0
508,54.0,0.0,30.0,15.0,0.0
509,54.0,0.0,30.0,6.0,0.0
510,54.0,0.0,30.0,7.0,0.0
511,68.0,0.0,60.0,1.0,0.0
512,68.0,0.0,60.0,12.0,0.0
513,42.0,0.0,30.0,8.0,0.0
514,68.0,0.0,60.0,3.0,0.0
515,66.0,0.0,30.0,5.0,0.0
516,66.0,30.0,30.0,4.0,0.0
517,66.0,0.0,30.0,4.0,0.0
518,54.0,30.0,30.0,6.0,0.0
519,54.0,0.0,30.0,15.0,0.0
520,54.0,30.0,240.0,14.0,0.0
521,66.0,0.0,240.0,2.0,0.0
522,73.0,0.0,240.0,2.0,0.0
523,66.0,0.0,30.0,5.0,0.0
524,54.0,0.0,30.0,7.0,0.0
525,42.0,0.0,30.0,8.0,0.0
526,66.0,0.0,180.0,3.0,0.0
527,66.0,30.0,180.0,1.0,0.0
528,66.0,0.0,180.0,12.0,0.0
529,55.0,0.0,30.0,15.0,0.0
530,55.0,0.0,30.0,6.0,0.0
531,67.0,0.0,30.0,4.0,0.0
532,55.0,0.0,30.0,7.0,0.0
533,67.0,0.0,30.0,5.0,0.0
534,43.0,60.0,30.0,8.0,0.0
535,45.0,0.0,60.0,8.0,0.0
536,57.0,0.0,60.0,15.0,0.0
537,69.0,0.0,60.0,4.0,0.0
538,57.0,30.0,60.0,6.0,0.0
539,69.0,0.0,60.0,5.0,0.0
540,57.0,0.0,60.0,7.0,0.0
541,57.0,0.0,30.0,6.0,0.0
542,57.0,0.0,30.0,15.0,0.0
543,69.0,0.0,30.0,5.0,0.0
544,45.0,30.0,30.0,8.0,0.0
545,69.0,0.0,30.0,4.0,0.0
546,57.0,0.0,30.0,7.0,0.0
547,64.0,0.0,60.0,12.0,0.0
548,57.0,0.0,30.0,6.0,0.0
549,64.0,0.0,60.0,3.0,0.0
550,57.0,30.0,30.0,15.0,0.0
551,69.0,0.0,30.0,5.0,0.0
552,57.0,0.0,30.0,7.0,0.0
553,45.0,0.0,30.0,8.0,0.0
554,64.0,0.0,60.0,1.0,0.0
555,69.0,0.0,30.0,4.0,0.0
556,63.0,0.0,180.0,12.0,0.0
557,69.0,0.0,30.0,5.0,0.0
558,57.0,0.0,30.0,15.0,0.0
559,57.0,0.0,30.0,6.0,0.0
560,66.0,0.0,180.0,13.0,0.0
561,66.0,0.0,180.0,3.0,0.0
562,66.0,0.0,180.0,1.0,0.0
563,57.0,30.0,30.0,7.0,0.0
564,45.0,0.0,30.0,8.0,0.0
565,69.0,0.0,30.0,4.0,0.0
566,63.0,30.0,180.0,3.0,0.0
567,63.0,0.0,180.0,1.0,0.0
568,55.0,0.0,30.0,15.0,0.0
569,67.0,0.0,30.0,4.0,0.0
570,55.0,0.0,30.0,7.0,0.0
571,67.0,0.0,30.0,5.0,0.0
572,43.0,0.0,30.0,8.0,0.0
573,55.0,60.0,30.0,6.0,0.0
574,66.0,0.0,60.0,5.0,0.0
575,54.0,0.0,60.0,6.0,0.0
576,42.0,0.0,60.0,8.0,0.0
577,54.0,0.0,60.0,7.0,0.0
578,54.0,0.0,60.0,15.0,0.0
579,66.0,30.0,60.0,4.0,0.0
580,54.0,30.0,30.0,7.0,0.0
581,54.0,0.0,30.0,6.0,0.0
582,54.0,0.0,30.0,15.0,0.0
583,66.0,0.0,30.0,5.0,0.0
584,66.0,0.0,30.0,4.0,0.0
585,42.0,0.0,30.0,8.0,0.0
586,54.0,0.0,30.0,6.0,0.0
587,61.0,0.0,60.0,3.0,0.0
588,66.0,0.0,30.0,5.0,0.0
589,54.0,0.0,30.0,7.0,0.0
590,61.0,0.0,60.0,12.0,0.0
591,42.0,0.0,30.0,8.0,0.0
592,66.0,0.0,30.0,4.0,0.0
593,66.0,0.0,60.0,13.0,0.0
594,61.0,0.0,60.0,1.0,0.0
595,66.0,30.0,60.0,1.0,0.0
596,66.0,0.0,60.0,3.0,0.0
597,54.0,30.0,30.0,15.0,0.0
598,56.0,0.0,30.0,7.0,0.0
599,56.0,30.0,30.0,15.0,0.0
600,68.0,0.0,30.0,4.0,0.0
601,66.0,0.0,180.0,1.0,0.0
602,60.0,0.0,180.0,3.0,0.0
603,66.0,30.0,180.0,3.0,0.0
604,80.0,30.0,240.0,2.0,0.0
605,60.0,0.0,180.0,1.0,0.0
606,56.0,0.0,30.0,6.0,0.0
607,68.0,0.0,30.0,5.0,0.0
608,66.0,0.0,180.0,13.0,0.0
609,44.0,0.0,30.0,8.0,0.0
610,60.0,0.0,180.0,12.0,0.0
611,60.0,0.0,30.0,7.0,0.0
612,72.0,0.0,30.0,4.0,0.0
613,72.0,0.0,30.0,5.0,0.0
614,60.0,0.0,30.0,15.0,0.0
615,60.0,0.0,30.0,6.0,0.0
616,48.0,60.0,30.0,8.0,0.0
617,63.0,0.0,60.0,15.0,0.0
618,51.0,0.0,60.0,8.0,0.0
619,63.0,0.0,60.0,6.0,0.0
620,75.0,30.0,60.0,4.0,0.0
621,75.0,0.0,60.0,5.0,0.0
622,63.0,0.0,60.0,7.0,0.0
623,63.0,0.0,30.0,6.0,0.0
624,63.0,0.0,30.0,15.0,0.0
625,75.0,0.0,30.0,4.0,0.0
626,51.0,0.0,30.0,8.0,0.0
627,63.0,0.0,30.0,7.0,0.0
628,75.0,30.0,30.0,5.0,0.0
629,75.0,0.0,30.0,4.0,0.0
630,56.0,0.0,60.0,13.0,0.0
631,63.0,0.0,30.0,7.0,0.0
632,56.0,0.0,60.0,12.0,0.0
633,63.0,30.0,30.0,6.0,0.0
634,63.0,0.0,30.0,15.0,0.0
635,51.0,0.0,30.0,8.0,0.0
636,56.0,0.0,60.0,1.0,0.0
637,75.0,0.0,30.0,5.0,0.0
638,56.0,0.0,60.0,3.0,0.0
639,66.0,0.0,180.0,3.0,0.0
640,60.0,0.0,180.0,3.0,0.0
641,75.0,0.0,30.0,5.0,0.0
642,51.0,0.0,30.0,8.0,0.0
643,63.0,0.0,30.0,15.0,0.0
644,75.0,30.0,30.0,4.0,0.0
645,60.0,30.0,180.0,13.0,0.0
646,66.0,0.0,180.0,1.0,0.0
647,60.0,0.0,180.0,1.0,0.0
648,66.0,0.0,180.0,12.0,0.0
649,63.0,0.0,30.0,7.0,0.0
650,63.0,0.0,30.0,6.0,0.0
651,60.0,60.0,30.0,7.0,0.0
652,48.0,0.0,30.0,8.0,0.0
653,72.0,0.0,30.0,5.0,0.0
654,72.0,0.0,30.0,4.0,0.0
655,60.0,0.0,30.0,15.0,0.0
656,60.0,0.0,30.0,6.0,0.0
657,44.0,30.0,60.0,8.0,0.0
658,56.0,0.0,60.0,15.0,0.0
659,68.0,0.0,60.0,5.0,0.0
660,68.0,0.0,60.0,4.0,0.0
661,56.0,0.0,60.0,7.0,0.0
662,56.0,0.0,60.0,6.0,0.0
663,44.0,0.0,30.0,8.0,0.0
664,68.0,0.0,30.0,4.0,0.0
665,56.0,0.0,30.0,7.0,0.0
666,56.0,0.0,30.0,15.0,0.0
667,68.0,0.0,30.0,5.0,0.0
668,56.0,30.0,30.0,6.0,0.0
669,68.0,30.0,30.0,5.0,0.0
670,44.0,0.0,30.0,8.0,0.0
671,66.0,0.0,60.0,3.0,0.0
672,68.0,0.0,30.0,4.0,0.0
673,56.0,0.0,30.0,6.0,0.0
674,66.0,0.0,60.0,12.0,0.0
675,56.0,0.0,60.0,3.0,0.0
676,56.0,0.0,30.0,7.0,0.0
677,56.0,0.0,30.0,15.0,0.0
678,56.0,0.0,60.0,13.0,0.0
679,66.0,0.0,60.0,1.0,0.0
680,56.0,30.0,60.0,1.0,0.0
681,64.0,0.0,180.0,13.0,0.0
682,49.0,0.0,240.0,14.0,0.0
683,64.0,0.0,180.0,3.0,0.0
684,73.0,0.0,240.0,2.0,0.0
685,56.0,30.0,30.0,7.0,0.0
686,68.0,0.0,30.0,5.0,0.0
687,68.0,0.0,30.0,4.0,0.0
688,67.0,0.0,180.0,12.0,0.0
689,67.0,0.0,180.0,3.0,0.0
690,56.0,0.0,30.0,6.0,0.0
691,56.0,0.0,30.0,15.0,0.0
692,64.0,30.0,180.0,1.0,0.0
693,44.0,0.0,30.0,8.0,0.0
694,67.0,0.0,180.0,1.0,0.0
695,73.0,0.0,30.0,5.0,0.0
696,61.0,0.0,30.0,6.0,0.0
697,61.0,0.0,30.0,7.0,0.0
698,73.0,0.0,30.0,4.0,0.0
699,49.0,0.0,30.0,8.0,0.0
700,61.0,60.0,30.0,15.0,0.0
701,64.0,0.0,60.0,6.0,0.0
702,52.0,0.0,60.0,8.0,0.0
703,64.0,0.0,60.0,15.0,0.0
704,76.0,0.0,60.0,4.0,0.0
705,64.0,30.0,60.0,7.0,0.0
706,76.0,0.0,60.0,5.0,0.0
707,64.0,0.0,30.0,6.0,0.0
708,76.0,0.0,30.0,4.0,0.0
709,76.0,0.0,30.0,5.0,0.0
710,52.0,0.0,30.0,8.0,0.0
711,64.0,0.0,30.0,15.0,0.0
712,64.0,30.0,30.0,7.0,0.0
713,64.0,0.0,30.0,15.0,0.0
714,64.0,0.0,30.0,6.0,0.0
715,76.0,0.0,30.0,4.0,0.0
716,61.0,0.0,60.0,3.0,0.0
717,52.0,30.0,30.0,8.0,0.0
718,67.0,0.0,60.0,3.0,0.0
719,67.0,0.0,60.0,1.0,0.0
720,61.0,30.0,60.0,1.0,0.0
721,64.0,0.0,30.0,7.0,0.0
722,61.0,0.0,60.0,13.0,0.0
723,76.0,0.0,30.0,5.0,0.0
724,67.0,0.0,60.0,12.0,0.0
725,67.0,0.0,180.0,12.0,0.0
726,64.0,0.0,30.0,15.0,0.0
727,67.0,0.0,180.0,3.0,0.0
728,76.0,0.0,30.0,5.0,0.0
729,64.0,30.0,180.0,13.0,0.0
730,64.0,0.0,30.0,6.0,0.0
731,76.0,0.0,30.0,4.0,0.0
732,52.0,30.0,30.0,8.0,0.0
733,64.0,0.0,180.0,3.0,0.0
734,67.0,0.0,180.0,1.0,0.0
735,64.0,0.0,180.0,1.0,0.0
736,64.0,0.0,30.0,7.0,0.0
737,61.0,0.0,30.0,15.0,0.0
738,61.0,60.0,30.0,6.0,0.0
739,73.0,0.0,30.0,5.0,0.0
740,49.0,0.0,30.0,8.0,0.0
741,73.0,0.0,30.0,4.0,0.0
742,61.0,0.0,30.0,7.0,0.0
743,56.0,30.0,60.0,6.0,0.0
744,56.0,0.0,60.0,15.0,0.0
745,44.0,0.0,60.0,8.0,0.0
746,56.0,0.0,60.0,7.0,0.0
747,68.0,0.0,60.0,4.0,0.0
748,68.0,0.0,60.0,5.0,0.0
749,44.0,30.0,30.0,8.0,0.0
750,68.0,0.0,30.0,4.0,0.0
751,56.0,0.0,30.0,7.0,0.0
752,56.0,0.0,30.0,15.0,0.0
753,68.0,0.0,30.0,5.0,0.0
754,56.0,0.0,30.0,6.0,0.0
755,56.0,0.0,30.0,6.0,0.0
756,61.0,0.0,60.0,3.0,0.0
757,68.0,0.0,30.0,5.0,0.0
758,68.0,0.0,30.0,4.0,0.0
759,67.0,120.0,60.0,12.0,0.0
760,61.0,0.0,60.0,1.0,0.0
761,56.0,0.0,30.0,15.0,0.0
762,44.0,0.0,30.0,8.0,0.0
763,67.0,0.0,60.0,1.0,0.0
764,56.0,30.0,30.0,7.0,0.0
765,61.0,0.0,60.0,13.0,0.0
766,67.0,0.0,60.0,3.0,0.0
767,60.0,0.0,240.0,3.0,0.0
768,80.0,0.0,240.0,2.0,0.0
769,75.0,0.0,120.0,4.0,0.0
770,44.0,0.0,120.0,8.0,0.0
771,68.0,0.0,120.0,4.0,0.0
772,75.0,0.0,120.0,5.0,0.0
773,60.0,0.0,120.0,6.0,0.0
774,80.0,0.0,120.0,4.0,0.0
775,60.0,120.0,240.0,1.0,0.0
776,68.0,0.0,240.0,1.0,0.0
777,80.0,0.0,120.0,5.0,0.0
778,68.0,120.0,120.0,5.0,0.0
779,60.0,0.0,240.0,13.0,0.0
780,56.0,0.0,120.0,7.0,0.0
781,68.0,0.0,240.0,3.0,0.0
782,56.0,0.0,120.0,15.0,0.0
783,68.0,0.0,240.0,12.0,0.0
784,68.0,0.0,120.0,6.0,0.0
785,68.0,0.0,120.0,5.0,0.0
786,68.0,0.0,120.0,4.0,0.0
787,44.0,120.0,120.0,8.0,0.0
788,56.0,0.0,120.0,15.0,0.0
789,56.0,0.0,120.0,7.0,0.0
790,71.0,0.0,240.0,0.0,0.0
791,56.0,120.0,240.0,13.0,0.0
792,71.0,0.0,240.0,1.0,0.0
793,56.0,0.0,240.0,12.0,0.0
794,68.0,0.0,240.0,1.0,0.0
795,68.0,0.0,120.0,4.0,0.0
796,68.0,0.0,120.0,5.0,0.0
797,56.0,0.0,120.0,6.0,0.0
798,43.0,120.0,120.0,8.0,0.0
799,55.0,0.0,120.0,7.0,0.0
800,70.0,0.0,240.0,1.0,0.0
801,55.0,0.0,120.0,15.0,0.0
802,73.0,0.0,240.0,0.0,0.0
803,67.0,0.0,240.0,1.0,0.0
804,70.0,0.0,240.0,0.0,0.0
805,55.0,0.0,120.0,6.0,0.0
806,67.0,120.0,120.0,4.0,0.0
807,67.0,0.0,120.0,5.0,0.0
808,42.0,0.0,120.0,8.0,0.0
809,75.0,0.0,240.0,0.0,0.0
810,69.0,0.0,240.0,1.0,0.0
811,54.0,120.0,120.0,7.0,0.0
812,66.0,0.0,240.0,1.0,0.0
813,69.0,0.0,240.0,0.0,0.0
814,54.0,0.0,120.0,15.0,0.0
815,66.0,0.0,120.0,5.0,0.0
816,54.0,120.0,120.0,6.0,0.0
817,66.0,0.0,120.0,4.0,0.0
818,76.0,0.0,240.0,0.0,0.0
819,52.0,0.0,240.0,7.0,0.0
820,52.0,0.0,240.0,15.0,0.0
821,80.0,120.0,840.0,10.0,0.0
822,76.0,0.0,840.0,11.0,0.0
823,64.0,120.0,240.0,1.0,0.0
824,68.0,0.0,240.0,0.0,0.0
825,68.0,0.0,240.0,1.0,0.0
826,64.0,0.0,120.0,4.0,0.0
827,40.0,0.0,240.0,8.0,0.0
828,52.0,0.0,240.0,6.0,0.0
829,64.0,60.0,120.0,5.0,0.0
830,68.0,60.0,60.0,4.0,0.0
831,68.0,0.0,60.0,5.0,0.0
832,71.0,0.0,60.0,4.0,0.0
833,71.0,0.0,60.0,5.0,0.0
834,76.0,120.0,120.0,4.0,0.0
835,76.0,0.0,120.0,5.0,0.0
836,75.0,0.0,120.0,4.0,0.0
837,75.0,120.0,120.0,5.0,0.0
838,73.0,120.0,120.0,5.0,0.0
839,73.0,0.0,120.0,4.0,0.0
840,71.0,0.0,120.0,5.0,0.0
841,71.0,120.0,120.0,4.0,0.0
842,69.0,0.0,120.0,5.0,0.0
843,69.0,0.0,120.0,4.0,0.0
844,80.0,120.0,120.0,10.0,0.0
845,76.0,0.0,120.0,11.0,0.0
846,68.0,0.0,120.0,4.0,0.0
847,68.0,0.0,120.0,5.0,0.0
848,66.0,60.0,120.0,5.0,0.0
849,66.0,0.0,120.0,4.0,0.0
850,81.0,0.0,360.0,10.0,0.0
851,76.0,120.0,240.0,11.0,0.0
852,68.0,60.0,60.0,4.0,0.0
853,68.0,0.0,60.0,5.0,0.0
854,69.0,0.0,60.0,4.0,0.0
855,69.0,0.0,60.0,5.0,0.0
856,75.0,0.0,120.0,11.0,0.0
857,71.0,0.0,120.0,5.0,0.0
858,71.0,120.0,120.0,4.0,0.0
859,81.0,0.0,120.0,10.0,0.0
860,75.0,0.0,120.0,11.0,0.0
861,59.0,120.0,120.0,5.0,0.0
862,59.0,0.0,120.0,4.0,0.0
863,64.0,60.0,120.0,4.0,0.0
864,76.0,0.0,240.0,11.0,0.0
865,80.0,0.0,240.0,10.0,0.0
866,64.0,0.0,120.0,5.0,0.0
867,68.0,0.0,60.0,4.0,0.0
868,68.0,60.0,60.0,5.0,0.0
869,71.0,120.0,60.0,5.0,0.0
870,71.0,0.0,60.0,4.0,0.0
871,76.0,60.0,120.0,5.0,0.0
872,76.0,0.0,120.0,4.0,0.0
873,71.0,60.0,60.0,5.0,0.0
874,71.0,0.0,60.0,4.0,0.0
875,68.0,0.0,60.0,5.0,0.0
876,68.0,120.0,60.0,4.0,0.0
877,64.0,0.0,120.0,5.0,0.0
878,76.0,0.0,360.0,11.0,0.0
879,64.0,60.0,120.0,4.0,0.0
880,80.0,0.0,360.0,10.0,0.0
881,68.0,60.0,60.0,5.0,0.0
882,68.0,0.0,60.0,4.0,0.0
883,71.0,120.0,60.0,4.0,0.0
884,71.0,0.0,60.0,5.0,0.0
885,76.0,0.0,120.0,5.0,0.0
886,76.0,120.0,120.0,4.0,0.0
887,76.0,0.0,120.0,11.0,0.0
888,75.0,0.0,120.0,5.0,0.0
889,75.0,0.0,120.0,4.0,0.0
890,80.0,120.0,120.0,10.0,0.0
891,80.0,120.0,120.0,10.0,0.0
892,73.0,0.0,120.0,5.0,0.0
893,76.0,0.0,120.0,11.0,0.0
894,73.0,0.0,120.0,4.0,0.0
895,71.0,0.0,120.0,4.0,0.0
896,76.0,120.0,120.0,11.0,0.0
897,71.0,0.0,120.0,5.0,0.0
898,80.0,0.0,120.0,10.0,0.0
899,80.0,0.0,120.0,10.0,0.0
900,69.0,120.0,120.0,4.0,0.0
901,69.0,0.0,120.0,5.0,0.0
902,76.0,0.0,120.0,11.0,0.0
903,76.0,0.0,120.0,11.0,0.0
904,68.0,120.0,120.0,4.0,0.0
905,80.0,0.0,120.0,10.0,0.0
906,68.0,0.0,120.0,5.0,0.0
907,66.0,60.0,120.0,5.0,0.0
908,81.0,30.0,480.0,10.0,0.0
909,76.0,0.0,240.0,11.0,0.0
910,66.0,0.0,120.0,4.0,0.0
911,68.0,60.0,60.0,5.0,0.0
912,68.0,0.0,60.0,4.0,0.0
913,69.0,0.0,60.0,5.0,0.0
914,69.0,120.0,60.0,4.0,0.0
915,71.0,0.0,120.0,5.0,0.0
916,71.0,120.0,120.0,4.0,0.0
917,75.0,0.0,240.0,11.0,0.0
918,59.0,0.0,120.0,4.0,0.0
919,59.0,0.0,120.0,5.0,0.0
920,59.0,0.0,360.0,3.0,0.0
921,64.0,30.0,30.0,5.0,0.0
922,52.0,0.0,30.0,15.0,0.0
923,80.0,0.0,240.0,10.0,0.0
924,52.0,0.0,30.0,7.0,0.0
925,40.0,0.0,30.0,8.0,0.0
926,52.0,0.0,480.0,3.0,0.0
927,64.0,0.0,30.0,4.0,0.0
928,64.0,30.0,240.0,3.0,0.0
929,52.0,0.0,30.0,6.0,0.0
930,76.0,0.0,240.0,11.0,0.0
931,54.0,0.0,30.0,6.0,0.0
932,42.0,0.0,30.0,8.0,0.0
933,54.0,0.0,30.0,15.0,0.0
934,66.0,60.0,30.0,5.0,0.0
935,66.0,0.0,30.0,4.0,0.0
936,54.0,0.0,30.0,7.0,0.0
937,44.0,0.0,60.0,8.0,0.0
938,56.0,0.0,60.0,6.0,0.0
939,56.0,0.0,60.0,7.0,0.0
940,68.0,0.0,60.0,4.0,0.0
941,56.0,30.0,60.0,15.0,0.0
942,68.0,0.0,60.0,5.0,0.0
943,56.0,0.0,30.0,6.0,0.0
944,56.0,0.0,30.0,7.0,0.0
945,68.0,0.0,30.0,5.0,0.0
946,68.0,0.0,30.0,4.0,0.0
947,56.0,0.0,30.0,15.0,0.0
948,44.0,60.0,30.0,8.0,0.0
949,56.0,0.0,30.0,7.0,0.0
950,68.0,0.0,30.0,5.0,0.0
951,44.0,0.0,30.0,8.0,0.0
952,68.0,0.0,30.0,4.0,0.0
953,56.0,30.0,30.0,6.0,0.0
954,56.0,0.0,30.0,15.0,0.0
955,55.0,30.0,30.0,7.0,0.0
956,55.0,0.0,30.0,15.0,0.0
957,55.0,0.0,30.0,6.0,0.0
958,43.0,0.0,30.0,8.0,0.0
959,67.0,0.0,240.0,3.0,0.0
960,67.0,0.0,30.0,4.0,0.0
961,59.0,0.0,180.0,13.0,0.0
962,59.0,30.0,180.0,1.0,0.0
963,67.0,0.0,30.0,5.0,0.0
964,54.0,0.0,30.0,7.0,0.0
965,54.0,0.0,30.0,15.0,0.0
966,66.0,0.0,30.0,4.0,0.0
967,42.0,0.0,30.0,8.0,0.0
968,66.0,0.0,30.0,5.0,0.0
969,54.0,60.0,30.0,6.0,0.0
970,64.0,0.0,60.0,4.0,0.0
971,52.0,0.0,60.0,7.0,0.0
972,52.0,0.0,60.0,15.0,0.0
973,64.0,0.0,60.0,5.0,0.0
974,52.0,0.0,60.0,6.0,0.0
975,40.0,30.0,60.0,8.0,0.0
976,40.0,0.0,30.0,8.0,0.0
977,52.0,0.0,30.0,7.0,0.0
978,52.0,0.0,30.0,15.0,0.0
979,64.0,0.0,30.0,5.0,0.0
980,52.0,0.0,30.0,6.0,0.0
981,64.0,30.0,30.0,4.0,0.0
982,64.0,30.0,120.0,3.0,0.0
983,64.0,0.0,30.0,5.0,0.0
984,64.0,0.0,30.0,4.0,0.0
985,52.0,0.0,30.0,7.0,0.0
986,64.0,0.0,60.0,13.0,0.0
987,52.0,0.0,30.0,6.0,0.0
988,40.0,30.0,30.0,8.0,0.0
989,52.0,0.0,30.0,15.0,0.0
990,64.0,0.0,60.0,1.0,0.0
991,59.0,0.0,30.0,7.0,0.0
992,59.0,30.0,30.0,15.0,0.0
993,63.0,30.0,240.0,13.0,0.0
994,66.0,30.0,360.0,3.0,0.0
995,63.0,0.0,240.0,1.0,0.0
996,63.0,0.0,240.0,3.0,0.0
997,59.0,0.0,30.0,4.0,0.0
998,59.0,0.0,30.0,6.0,0.0
999,47.0,0.0,30.0,8.0,0.0
1000,59.0,0.0,480.0,3.0,0.0
1001,59.0,0.0,30.0,5.0,0.0
1002,61.0,0.0,30.0,7.0,0.0
1003,61.0,60.0,30.0,15.0,0.0
1004,49.0,0.0,30.0,8.0,0.0
1005,61.0,0.0,30.0,5.0,0.0
1006,61.0,0.0,30.0,4.0,0.0
1007,61.0,0.0,30.0,6.0,0.0
1008,63.0,0.0,60.0,5.0,0.0
1009,63.0,30.0,60.0,6.0,0.0
1010,63.0,0.0,60.0,15.0,0.0
1011,63.0,0.0,60.0,4.0,0.0
1012,51.0,0.0,60.0,8.0,0.0
1013,63.0,0.0,60.0,7.0,0.0
1014,63.0,0.0,30.0,4.0,0.0
1015,51.0,0.0,30.0,8.0,0.0
1016,63.0,0.0,30.0,5.0,0.0
1017,63.0,0.0,30.0,15.0,0.0
1018,63.0,0.0,30.0,7.0,0.0
1019,63.0,60.0,30.0,6.0,0.0
1020,63.0,0.0,30.0,6.0,0.0
1021,63.0,30.0,30.0,15.0,0.0
1022,63.0,0.0,30.0,5.0,0.0
1023,63.0,0.0,30.0,7.0,0.0
1024,51.0,0.0,30.0,8.0,0.0
1025,63.0,0.0,30.0,4.0,0.0
1026,62.0,0.0,240.0,3.0,0.0
1027,59.0,0.0,240.0,13.0,0.0
1028,62.0,0.0,30.0,4.0,0.0
1029,59.0,30.0,240.0,1.0,0.0
1030,50.0,0.0,30.0,8.0,0.0
1031,62.0,0.0,30.0,6.0,0.0
1032,62.0,30.0,30.0,5.0,0.0
1033,66.0,30.0,180.0,12.0,0.0
1034,66.0,0.0,180.0,1.0,0.0
1035,62.0,0.0,30.0,7.0,0.0
1036,62.0,0.0,30.0,15.0,0.0
1037,49.0,0.0,30.0,8.0,0.0
1038,61.0,0.0,30.0,5.0,0.0
1039,61.0,60.0,30.0,4.0,0.0
1040,61.0,0.0,30.0,6.0,0.0
1041,61.0,0.0,30.0,15.0,0.0
1042,61.0,0.0,30.0,7.0,0.0
1043,59.0,0.0,60.0,7.0,0.0
1044,47.0,0.0,60.0,8.0,0.0
1045,59.0,0.0,60.0,15.0,0.0
1046,59.0,0.0,60.0,5.0,0.0
1047,59.0,0.0,60.0,6.0,0.0
1048,59.0,0.0,60.0,4.0,0.0
1049,59.0,0.0,30.0,15.0,0.0
1050,59.0,0.0,30.0,4.0,0.0
1051,59.0,30.0,30.0,7.0,0.0
1052,59.0,0.0,30.0,5.0,0.0
1053,59.0,0.0,30.0,6.0,0.0
1054,47.0,0.0,30.0,8.0,0.0
1055,71.0,0.0,120.0,3.0,0.0
1056,59.0,0.0,30.0,6.0,0.0
1057,59.0,0.0,30.0,5.0,0.0
1058,59.0,0.0,30.0,4.0,0.0
1059,71.0,0.0,60.0,1.0,0.0
1060,47.0,0.0,30.0,8.0,0.0
1061,71.0,0.0,60.0,12.0,0.0
1062,59.0,0.0,30.0,15.0,0.0
1063,59.0,30.0,30.0,7.0,0.0
1064,70.0,0.0,240.0,1.0,0.0
1065,66.0,30.0,30.0,4.0,0.0
1066,61.0,0.0,360.0,3.0,0.0
1067,78.0,0.0,240.0,2.0,0.0
1068,66.0,30.0,240.0,2.0,0.0
1069,70.0,0.0,240.0,3.0,0.0
1070,70.0,0.0,240.0,12.0,0.0
1071,66.0,0.0,30.0,7.0,0.0
1072,66.0,0.0,30.0,15.0,0.0
1073,66.0,0.0,30.0,5.0,0.0
1074,54.0,0.0,480.0,3.0,0.0
1075,54.0,0.0,30.0,8.0,0.0
1076,54.0,0.0,240.0,14.0,0.0
1077,66.0,0.0,30.0,6.0,0.0
1078,68.0,0.0,30.0,4.0,0.0
1079,68.0,0.0,30.0,7.0,0.0
1080,68.0,0.0,30.0,5.0,0.0
1081,68.0,0.0,30.0,6.0,0.0
1082,56.0,60.0,30.0,8.0,0.0
1083,68.0,0.0,30.0,15.0,0.0
1084,58.0,0.0,60.0,8.0,0.0
1085,70.0,0.0,60.0,4.0,0.0
1086,70.0,30.0,60.0,5.0,0.0
1087,70.0,0.0,60.0,6.0,0.0
1088,70.0,0.0,60.0,7.0,0.0
1089,70.0,0.0,60.0,15.0,0.0
1090,70.0,0.0,30.0,4.0,0.0
1091,70.0,60.0,30.0,15.0,0.0
1092,58.0,0.0,30.0,8.0,0.0
1093,70.0,0.0,30.0,5.0,0.0
1094,70.0,0.0,30.0,6.0,0.0
1095,70.0,0.0,30.0,7.0,0.0
1096,70.0,0.0,30.0,4.0,0.0
1097,58.0,30.0,30.0,8.0,0.0
1098,70.0,0.0,30.0,7.0,0.0
1099,70.0,0.0,30.0,15.0,0.0
1100,70.0,0.0,30.0,5.0,0.0
1101,70.0,0.0,30.0,6.0,0.0
1102,66.0,30.0,240.0,12.0,0.0
1103,69.0,0.0,30.0,7.0,0.0
1104,61.0,30.0,180.0,1.0,0.0
1105,69.0,30.0,30.0,4.0,0.0
1106,69.0,0.0,30.0,6.0,0.0
1107,61.0,0.0,180.0,13.0,0.0
1108,57.0,0.0,30.0,8.0,0.0
1109,69.0,0.0,30.0,15.0,0.0
1110,69.0,0.0,30.0,5.0,0.0
1111,68.0,0.0,30.0,15.0,0.0
1112,68.0,60.0,30.0,5.0,0.0
1113,68.0,0.0,30.0,7.0,0.0
1114,68.0,0.0,30.0,4.0,0.0
1115,56.0,0.0,30.0,8.0,0.0
1116,68.0,0.0,30.0,6.0,0.0
1117,54.0,0.0,60.0,8.0,0.0
1118,66.0,0.0,60.0,15.0,0.0
1119,66.0,0.0,60.0,6.0,0.0
1120,66.0,0.0,60.0,7.0,0.0
1121,66.0,30.0,60.0,4.0,0.0
1122,66.0,0.0,60.0,5.0,0.0
1123,66.0,30.0,30.0,5.0,0.0
1124,54.0,0.0,30.0,8.0,0.0
1125,66.0,0.0,30.0,15.0,0.0
1126,66.0,0.0,120.0,3.0,0.0
1127,66.0,0.0,30.0,4.0,0.0
1128,66.0,0.0,30.0,7.0,0.0
1129,66.0,0.0,30.0,6.0,0.0
1130,66.0,0.0,30.0,15.0,0.0
1131,66.0,0.0,30.0,6.0,0.0
1132,66.0,0.0,60.0,1.0,0.0
1133,66.0,30.0,30.0,7.0,0.0
1134,66.0,0.0,60.0,13.0,0.0
1135,66.0,0.0,30.0,5.0,0.0
1136,66.0,0.0,30.0,4.0,0.0
1137,54.0,0.0,30.0,8.0,0.0
1138,61.0,0.0,480.0,3.0,0.0
1139,73.0,0.0,240.0,2.0,0.0
1140,65.0,0.0,240.0,3.0,0.0
1141,61.0,0.0,30.0,7.0,0.0
1142,65.0,0.0,240.0,1.0,0.0
1143,49.0,30.0,240.0,14.0,0.0
1144,61.0,0.0,30.0,15.0,0.0
1145,69.0,0.0,360.0,3.0,0.0
1146,65.0,0.0,240.0,13.0,0.0
1147,49.0,0.0,30.0,8.0,0.0
1148,61.0,0.0,30.0,4.0,0.0
1149,61.0,30.0,30.0,5.0,0.0
1150,61.0,0.0,30.0,6.0,0.0
1151,61.0,0.0,240.0,2.0,0.0
1152,51.0,0.0,30.0,8.0,0.0
1153,63.0,0.0,30.0,7.0,0.0
1154,63.0,60.0,30.0,15.0,0.0
1155,63.0,0.0,30.0,4.0,0.0
1156,63.0,0.0,30.0,5.0,0.0
1157,63.0,0.0,30.0,6.0,0.0
1158,65.0,0.0,60.0,7.0,0.0
1159,65.0,0.0,60.0,4.0,0.0
1160,65.0,0.0,60.0,15.0,0.0
1161,65.0,30.0,60.0,6.0,0.0
1162,53.0,0.0,60.0,8.0,0.0
1163,65.0,0.0,60.0,5.0,0.0
1164,65.0,0.0,30.0,15.0,0.0
1165,53.0,0.0,30.0,8.0,0.0
1166,65.0,0.0,30.0,5.0,0.0
1167,65.0,0.0,30.0,6.0,0.0
1168,65.0,60.0,30.0,7.0,0.0
1169,65.0,0.0,30.0,4.0,0.0
1170,65.0,0.0,30.0,7.0,0.0
1171,65.0,30.0,30.0,15.0,0.0
1172,65.0,0.0,30.0,6.0,0.0
1173,65.0,0.0,30.0,5.0,0.0
1174,53.0,0.0,30.0,8.0,0.0
1175,65.0,0.0,30.0,4.0,0.0
1176,64.0,0.0,30.0,4.0,0.0
1177,64.0,0.0,30.0,15.0,0.0
1178,64.0,0.0,30.0,5.0,0.0
1179,68.0,30.0,180.0,1.0,0.0
1180,61.0,0.0,240.0,1.0,0.0
1181,52.0,0.0,30.0,8.0,0.0
1182,64.0,30.0,30.0,6.0,0.0
1183,64.0,0.0,30.0,7.0,0.0
1184,68.0,0.0,180.0,12.0,0.0
1185,61.0,0.0,240.0,13.0,0.0
1186,64.0,30.0,240.0,3.0,0.0
1187,51.0,0.0,30.0,8.0,0.0
1188,63.0,0.0,30.0,4.0,0.0
1189,63.0,0.0,30.0,15.0,0.0
1190,63.0,0.0,30.0,5.0,0.0
1191,63.0,60.0,30.0,6.0,0.0
1192,63.0,0.0,30.0,7.0,0.0
1193,49.0,0.0,60.0,8.0,0.0
1194,61.0,0.0,60.0,4.0,0.0
1195,61.0,0.0,60.0,7.0,0.0
1196,61.0,30.0,60.0,6.0,0.0
1197,61.0,0.0,60.0,15.0,0.0
1198,61.0,0.0,60.0,5.0,0.0
1199,61.0,0.0,30.0,4.0,0.0
1200,61.0,30.0,30.0,15.0,0.0
1201,61.0,0.0,30.0,5.0,0.0
1202,73.0,0.0,120.0,3.0,0.0
1203,61.0,0.0,30.0,6.0,0.0
1204,49.0,0.0,30.0,8.0,0.0
1205,61.0,0.0,30.0,7.0,0.0
1206,73.0,0.0,60.0,12.0,0.0
1207,61.0,0.0,30.0,7.0,0.0
1208,61.0,0.0,30.0,15.0,0.0
1209,73.0,0.0,60.0,1.0,0.0
1210,61.0,0.0,30.0,5.0,0.0
1211,61.0,30.0,30.0,6.0,0.0
1212,61.0,0.0,30.0,4.0,0.0
1213,49.0,0.0,30.0,8.0,0.0
1214,68.0,0.0,30.0,6.0,0.0
1215,68.0,0.0,30.0,5.0,0.0
1216,63.0,30.0,360.0,3.0,0.0
1217,68.0,0.0,30.0,15.0,0.0
1218,56.0,0.0,480.0,3.0,0.0
1219,68.0,0.0,30.0,7.0,0.0
1220,56.0,30.0,30.0,8.0,0.0
1221,80.0,0.0,240.0,2.0,0.0
1222,68.0,0.0,30.0,4.0,0.0
1223,72.0,0.0,240.0,3.0,0.0
1224,72.0,30.0,240.0,1.0,0.0
1225,72.0,0.0,240.0,12.0,0.0
1226,70.0,0.0,30.0,15.0,0.0
1227,70.0,0.0,30.0,4.0,0.0
1228,70.0,0.0,30.0,5.0,0.0
1229,58.0,0.0,30.0,8.0,0.0
1230,70.0,0.0,30.0,7.0,0.0
1231,70.0,60.0,30.0,6.0,0.0
1232,72.0,0.0,60.0,7.0,0.0
1233,60.0,0.0,60.0,8.0,0.0
1234,72.0,0.0,60.0,6.0,0.0
1235,72.0,0.0,60.0,15.0,0.0
1236,72.0,0.0,60.0,4.0,0.0
1237,72.0,30.0,60.0,5.0,0.0
1238,72.0,0.0,30.0,7.0,0.0
1239,72.0,60.0,30.0,15.0,0.0
1240,72.0,0.0,30.0,4.0,0.0
1241,60.0,0.0,30.0,8.0,0.0
1242,72.0,0.0,30.0,6.0,0.0
1243,72.0,0.0,30.0,5.0,0.0
1244,60.0,30.0,30.0,8.0,0.0
1245,72.0,0.0,30.0,7.0,0.0
1246,72.0,0.0,30.0,5.0,0.0
1247,72.0,0.0,30.0,4.0,0.0
1248,72.0,0.0,30.0,6.0,0.0
1249,72.0,0.0,30.0,15.0,0.0
1250,63.0,0.0,180.0,1.0,0.0
1251,71.0,30.0,30.0,7.0,0.0
1252,68.0,0.0,240.0,12.0,0.0
1253,71.0,0.0,30.0,6.0,0.0
1254,59.0,0.0,30.0,8.0,0.0
1255,63.0,30.0,180.0,13.0,0.0
1256,71.0,0.0,30.0,15.0,0.0
1257,71.0,0.0,30.0,4.0,0.0
1258,71.0,0.0,30.0,5.0,0.0
1259,70.0,0.0,30.0,15.0,0.0
1260,58.0,0.0,30.0,8.0,0.0
1261,70.0,0.0,30.0,4.0,0.0
1262,70.0,0.0,30.0,6.0,0.0
1263,70.0,0.0,30.0,7.0,0.0
1264,70.0,60.0,30.0,5.0,0.0
1265,68.0,0.0,60.0,15.0,0.0
1266,68.0,0.0,60.0,4.0,0.0
1267,68.0,0.0,60.0,5.0,0.0
1268,68.0,0.0,60.0,6.0,0.0
1269,68.0,0.0,60.0,7.0,0.0
1270,56.0,0.0,60.0,8.0,0.0
1271,68.0,30.0,30.0,4.0,0.0
1272,68.0,0.0,30.0,7.0,0.0
1273,68.0,0.0,30.0,6.0,0.0
1274,68.0,0.0,30.0,5.0,0.0
1275,56.0,0.0,30.0,8.0,0.0
1276,68.0,0.0,30.0,15.0,0.0
1277,68.0,0.0,120.0,3.0,0.0
1278,68.0,0.0,30.0,6.0,0.0
1279,68.0,0.0,30.0,15.0,0.0
1280,68.0,0.0,30.0,4.0,0.0
1281,56.0,30.0,30.0,8.0,0.0
1282,68.0,0.0,30.0,5.0,0.0
1283,68.0,0.0,30.0,7.0,0.0
1284,68.0,0.0,60.0,13.0,0.0
1285,68.0,0.0,60.0,1.0,0.0
1286,61.0,0.0,240.0,2.0,0.0
1287,61.0,0.0,30.0,7.0,0.0
1288,61.0,0.0,30.0,6.0,0.0
1289,68.0,30.0,180.0,1.0,0.0
1290,73.0,30.0,240.0,2.0,0.0
1291,69.0,30.0,360.0,12.0,0.0
1292,69.0,0.0,240.0,1.0,0.0
1293,49.0,0.0,240.0,14.0,0.0
1294,68.0,0.0,180.0,13.0,0.0
1295,68.0,0.0,240.0,3.0,0.0
1296,61.0,0.0,30.0,15.0,0.0
1297,61.0,0.0,30.0,4.0,0.0
1298,49.0,30.0,30.0,8.0,0.0
1299,61.0,0.0,240.0,3.0,0.0
1300,69.0,0.0,360.0,3.0,0.0
1301,61.0,0.0,30.0,5.0,0.0
1302,63.0,60.0,30.0,6.0,0.0
1303,63.0,0.0,30.0,7.0,0.0
1304,63.0,0.0,30.0,5.0,0.0
1305,51.0,0.0,30.0,8.0,0.0
1306,63.0,0.0,30.0,4.0,0.0
1307,63.0,0.0,30.0,15.0,0.0
1308,64.0,0.0,60.0,5.0,0.0
1309,64.0,30.0,60.0,7.0,0.0
1310,64.0,0.0,60.0,15.0,0.0
1311,64.0,0.0,60.0,6.0,0.0
1312,52.0,0.0,60.0,8.0,0.0
1313,64.0,0.0,60.0,4.0,0.0
1314,52.0,0.0,30.0,8.0,0.0
1315,64.0,0.0,30.0,7.0,0.0
1316,64.0,0.0,30.0,15.0,0.0
1317,64.0,0.0,30.0,6.0,0.0
1318,64.0,30.0,30.0,4.0,0.0
1319,64.0,0.0,30.0,5.0,0.0
1320,61.0,0.0,60.0,13.0,0.0
1321,64.0,0.0,30.0,6.0,0.0
1322,52.0,30.0,30.0,8.0,0.0
1323,64.0,0.0,30.0,15.0,0.0
1324,61.0,0.0,60.0,1.0,0.0
1325,64.0,0.0,30.0,5.0,0.0
1326,64.0,0.0,30.0,4.0,0.0
1327,64.0,0.0,30.0,7.0,0.0
1328,63.0,30.0,30.0,4.0,0.0
1329,51.0,0.0,30.0,8.0,0.0
1330,63.0,0.0,30.0,15.0,0.0
1331,63.0,0.0,30.0,7.0,0.0
1332,63.0,0.0,30.0,6.0,0.0
1333,63.0,0.0,240.0,3.0,0.0
1334,66.0,30.0,180.0,13.0,0.0
1335,66.0,0.0,480.0,3.0,0.0
1336,66.0,0.0,180.0,1.0,0.0
1337,63.0,0.0,30.0,5.0,0.0
1338,64.0,60.0,30.0,4.0,0.0
1339,52.0,0.0,30.0,8.0,0.0
1340,64.0,0.0,30.0,7.0,0.0
1341,64.0,0.0,30.0,5.0,0.0
1342,64.0,0.0,30.0,6.0,0.0
1343,64.0,0.0,30.0,15.0,0.0
1344,66.0,0.0,60.0,5.0,0.0
1345,66.0,0.0,60.0,7.0,0.0
1346,66.0,0.0,60.0,6.0,0.0
1347,66.0,0.0,60.0,4.0,0.0
1348,66.0,0.0,60.0,15.0,0.0
1349,54.0,0.0,60.0,8.0,0.0
1350,71.0,0.0,120.0,3.0,0.0
1351,54.0,0.0,30.0,8.0,0.0
1352,66.0,0.0,30.0,4.0,0.0
1353,66.0,30.0,30.0,5.0,0.0
1354,66.0,0.0,30.0,7.0,0.0
1355,71.0,0.0,120.0,1.0,0.0
1356,66.0,0.0,30.0,6.0,0.0
1357,66.0,0.0,30.0,15.0,0.0
1358,71.0,0.0,120.0,12.0,0.0
1359,66.0,0.0,30.0,15.0,0.0
1360,66.0,0.0,30.0,4.0,0.0
1361,66.0,0.0,60.0,13.0,0.0
1362,54.0,0.0,30.0,8.0,0.0
1363,66.0,30.0,30.0,7.0,0.0
1364,66.0,30.0,60.0,1.0,0.0
1365,66.0,0.0,30.0,6.0,0.0
1366,66.0,0.0,30.0,5.0,0.0
1367,64.0,0.0,30.0,5.0,0.0
1368,64.0,0.0,30.0,4.0,0.0
1369,64.0,0.0,240.0,3.0,0.0
1370,66.0,0.0,180.0,13.0,0.0
1371,64.0,0.0,30.0,15.0,0.0
1372,68.0,0.0,360.0,3.0,0.0
1373,64.0,30.0,30.0,7.0,0.0
1374,64.0,0.0,30.0,6.0,0.0
1375,52.0,0.0,30.0,8.0,0.0
1376,68.0,0.0,180.0,1.0,0.0
1377,68.0,30.0,180.0,12.0,0.0
1378,66.0,0.0,180.0,1.0,0.0
1379,66.0,0.0,30.0,5.0,0.0
1380,66.0,0.0,30.0,15.0,0.0
1381,66.0,60.0,30.0,7.0,0.0
1382,54.0,0.0,30.0,8.0,0.0
1383,66.0,0.0,30.0,4.0,0.0
1384,66.0,0.0,30.0,6.0,0.0
1385,56.0,30.0,60.0,8.0,0.0
1386,68.0,0.0,60.0,5.0,0.0
1387,68.0,0.0,60.0,4.0,0.0
1388,68.0,0.0,60.0,7.0,0.0
1389,68.0,0.0,60.0,6.0,0.0
1390,68.0,0.0,60.0,15.0,0.0
1391,68.0,0.0,30.0,4.0,0.0
1392,68.0,0.0,30.0,7.0,0.0
1393,68.0,0.0,30.0,15.0,0.0
1394,56.0,0.0,30.0,8.0,0.0
1395,68.0,30.0,30.0,5.0,0.0
1396,68.0,0.0,30.0,6.0,0.0
1397,68.0,0.0,30.0,5.0,0.0
1398,56.0,0.0,30.0,8.0,0.0
1399,68.0,0.0,60.0,12.0,0.0
1400,68.0,0.0,60.0,1.0,0.0
1401,68.0,0.0,30.0,4.0,0.0
1402,68.0,30.0,30.0,15.0,0.0
1403,68.0,0.0,30.0,6.0,0.0
1404,59.0,30.0,60.0,13.0,0.0
1405,59.0,0.0,60.0,1.0,0.0
1406,68.0,0.0,30.0,7.0,0.0
1407,68.0,0.0,30.0,7.0,0.0
1408,64.0,0.0,180.0,1.0,0.0
1409,68.0,30.0,180.0,1.0,0.0
1410,68.0,0.0,30.0,5.0,0.0
1411,68.0,0.0,180.0,12.0,0.0
1412,68.0,0.0,30.0,15.0,0.0
1413,56.0,30.0,240.0,3.0,0.0
1414,68.0,0.0,30.0,4.0,0.0
1415,56.0,30.0,30.0,8.0,0.0
1416,64.0,0.0,480.0,3.0,0.0
1417,64.0,0.0,180.0,13.0,0.0
1418,68.0,0.0,30.0,6.0,0.0
1419,69.0,0.0,30.0,4.0,0.0
1420,69.0,0.0,30.0,15.0,0.0
1421,69.0,0.0,30.0,7.0,0.0
1422,69.0,60.0,30.0,5.0,0.0
1423,57.0,0.0,30.0,8.0,0.0
1424,69.0,0.0,30.0,6.0,0.0
1425,71.0,0.0,60.0,4.0,0.0
1426,71.0,0.0,60.0,15.0,0.0
1427,71.0,30.0,60.0,6.0,0.0
1428,59.0,0.0,60.0,8.0,0.0
1429,71.0,0.0,60.0,5.0,0.0
1430,71.0,0.0,60.0,7.0,0.0
1431,71.0,0.0,30.0,6.0,0.0
1432,59.0,0.0,30.0,8.0,0.0
1433,71.0,0.0,30.0,4.0,0.0
1434,71.0,0.0,30.0,7.0,0.0
1435,69.0,0.0,120.0,3.0,0.0
1436,71.0,0.0,30.0,15.0,0.0
1437,71.0,30.0,30.0,5.0,0.0
1438,71.0,0.0,30.0,7.0,0.0
1439,71.0,0.0,30.0,4.0,0.0
1440,59.0,0.0,30.0,8.0,0.0
1441,64.0,0.0,60.0,1.0,0.0
1442,71.0,30.0,30.0,6.0,0.0
1443,69.0,0.0,60.0,12.0,0.0
1444,64.0,0.0,60.0,13.0,0.0
1445,71.0,0.0,30.0,15.0,0.0
1446,69.0,0.0,60.0,1.0,0.0
1447,71.0,0.0,30.0,5.0,0.0
1448,66.0,0.0,180.0,12.0,0.0
1449,78.0,0.0,240.0,2.0,0.0
1450,66.0,30.0,240.0,2.0,0.0
1451,58.0,30.0,30.0,15.0,0.0
1452,70.0,0.0,30.0,5.0,0.0
1453,58.0,0.0,240.0,3.0,0.0
1454,54.0,0.0,240.0,14.0,0.0
1455,64.0,30.0,180.0,13.0,0.0
1456,46.0,0.0,30.0,8.0,0.0
1457,70.0,0.0,30.0,4.0,0.0
1458,66.0,0.0,360.0,3.0,0.0
1459,58.0,0.0,30.0,7.0,0.0
1460,58.0,0.0,30.0,6.0,0.0
1461,64.0,0.0,180.0,1.0,0.0
1462,66.0,0.0,180.0,1.0,0.0
1463,71.0,0.0,30.0,4.0,0.0
1464,59.0,0.0,30.0,7.0,0.0
1465,71.0,0.0,30.0,5.0,0.0
1466,47.0,0.0,30.0,8.0,0.0
1467,59.0,0.0,30.0,6.0,0.0
1468,59.0,60.0,30.0,15.0,0.0
1469,49.0,0.0,60.0,8.0,0.0
1470,73.0,0.0,60.0,5.0,0.0
1471,61.0,0.0,60.0,15.0,0.0
1472,73.0,30.0,60.0,4.0,0.0
1473,61.0,0.0,60.0,7.0,0.0
1474,61.0,0.0,60.0,6.0,0.0
1475,61.0,30.0,30.0,15.0,0.0
1476,73.0,0.0,30.0,5.0,0.0
1477,49.0,0.0,30.0,8.0,0.0
1478,73.0,0.0,30.0,4.0,0.0
1479,61.0,0.0,30.0,7.0,0.0
1480,61.0,0.0,30.0,6.0,0.0
1481,58.0,0.0,60.0,1.0,0.0
1482,58.0,0.0,60.0,13.0,0.0
1483,61.0,30.0,30.0,7.0,0.0
1484,66.0,0.0,60.0,1.0,0.0
1485,73.0,0.0,30.0,5.0,0.0
1486,49.0,0.0,30.0,8.0,0.0
1487,61.0,0.0,30.0,15.0,0.0
1488,66.0,0.0,60.0,12.0,0.0
1489,61.0,0.0,30.0,6.0,0.0
1490,73.0,0.0,30.0,4.0,0.0
1491,72.0,0.0,30.0,4.0,0.0
1492,63.0,0.0,180.0,13.0,0.0
1493,60.0,0.0,30.0,15.0,0.0
1494,72.0,0.0,30.0,5.0,0.0
1495,66.0,0.0,180.0,12.0,0.0
1496,60.0,30.0,30.0,7.0,0.0
1497,63.0,0.0,240.0,3.0,0.0
1498,66.0,30.0,180.0,1.0,0.0
1499,60.0,0.0,240.0,3.0,0.0
1500,63.0,0.0,180.0,1.0,0.0
1501,48.0,0.0,30.0,8.0,0.0
1502,60.0,0.0,30.0,6.0,0.0
1503,73.0,0.0,30.0,5.0,0.0
1504,73.0,0.0,30.0,4.0,0.0
1505,61.0,0.0,30.0,6.0,0.0
1506,61.0,60.0,30.0,15.0,0.0
1507,49.0,0.0,30.0,8.0,0.0
1508,61.0,0.0,30.0,7.0,0.0
1509,63.0,0.0,60.0,6.0,0.0
1510,75.0,0.0,60.0,5.0,0.0
1511,63.0,0.0,60.0,15.0,0.0
1512,63.0,0.0,60.0,7.0,0.0
1513,51.0,30.0,60.0,8.0,0.0
1514,75.0,0.0,60.0,4.0,0.0
1515,51.0,0.0,30.0,8.0,0.0
1516,75.0,0.0,30.0,5.0,0.0
1517,75.0,30.0,30.0,4.0,0.0
1518,63.0,0.0,30.0,6.0,0.0
1519,63.0,0.0,30.0,15.0,0.0
1520,68.0,30.0,120.0,3.0,0.0
1521,63.0,0.0,30.0,7.0,0.0
1522,63.0,0.0,30.0,15.0,0.0
1523,68.0,0.0,60.0,1.0,0.0
1524,63.0,0.0,60.0,13.0,0.0
1525,63.0,0.0,30.0,6.0,0.0
1526,75.0,30.0,30.0,4.0,0.0
1527,51.0,0.0,30.0,8.0,0.0
1528,63.0,0.0,30.0,7.0,0.0
1529,63.0,0.0,60.0,1.0,0.0
1530,68.0,0.0,60.0,12.0,0.0
1531,75.0,0.0,30.0,5.0,0.0
1532,73.0,0.0,30.0,4.0,0.0
1533,64.0,0.0,180.0,12.0,0.0
1534,49.0,0.0,240.0,14.0,0.0
1535,61.0,0.0,180.0,1.0,0.0
1536,64.0,0.0,240.0,3.0,0.0
1537,61.0,30.0,180.0,13.0,0.0
1538,61.0,0.0,30.0,6.0,0.0
1539,61.0,0.0,30.0,15.0,0.0
1540,64.0,0.0,180.0,1.0,0.0
1541,61.0,0.0,30.0,7.0,0.0
1542,73.0,30.0,30.0,5.0,0.0
1543,73.0,0.0,240.0,2.0,0.0
1544,61.0,0.0,240.0,3.0,0.0
1545,61.0,0.0,240.0,2.0,0.0
1546,49.0,0.0,30.0,8.0,0.0
1547,63.0,0.0,30.0,15.0,0.0
1548,51.0,0.0,30.0,8.0,0.0
1549,63.0,0.0,30.0,6.0,0.0
1550,75.0,0.0,30.0,4.0,0.0
1551,75.0,0.0,30.0,5.0,0.0
1552,63.0,60.0,30.0,7.0,0.0
1553,64.0,0.0,60.0,7.0,0.0
1554,76.0,0.0,60.0,5.0,0.0
1555,64.0,0.0,60.0,15.0,0.0
1556,52.0,0.0,60.0,8.0,0.0
1557,64.0,30.0,60.0,6.0,0.0
1558,76.0,0.0,60.0,4.0,0.0
1559,64.0,0.0,30.0,15.0,0.0
1560,76.0,0.0,30.0,5.0,0.0
1561,52.0,0.0,30.0,8.0,0.0
1562,76.0,30.0,30.0,4.0,0.0
1563,64.0,0.0,30.0,6.0,0.0
1564,64.0,0.0,30.0,7.0,0.0
1565,76.0,0.0,30.0,5.0,0.0
1566,52.0,30.0,30.0,8.0,0.0
1567,64.0,0.0,60.0,1.0,0.0
1568,61.0,0.0,60.0,1.0,0.0
1569,64.0,30.0,60.0,12.0,0.0
1570,64.0,0.0,30.0,6.0,0.0
1571,76.0,0.0,30.0,4.0,0.0
1572,64.0,0.0,30.0,7.0,0.0
1573,61.0,0.0,60.0,13.0,0.0
1574,64.0,0.0,30.0,15.0,0.0
1575,59.0,0.0,240.0,3.0,0.0
1576,65.0,30.0,180.0,13.0,0.0
1577,62.0,0.0,180.0,1.0,0.0
1578,59.0,0.0,30.0,6.0,0.0
1579,47.0,0.0,30.0,8.0,0.0
1580,59.0,0.0,30.0,15.0,0.0
1581,65.0,0.0,240.0,3.0,0.0
1582,62.0,0.0,180.0,12.0,0.0
1583,64.0,0.0,180.0,1.0,0.0
1584,62.0,30.0,240.0,3.0,0.0
1585,71.0,0.0,30.0,5.0,0.0
1586,71.0,0.0,30.0,4.0,0.0
1587,59.0,30.0,30.0,7.0,0.0
1588,49.0,0.0,30.0,8.0,0.0
1589,61.0,0.0,30.0,6.0,0.0
1590,61.0,0.0,30.0,7.0,0.0
1591,73.0,0.0,30.0,4.0,0.0
1592,61.0,60.0,30.0,15.0,0.0
1593,73.0,0.0,30.0,5.0,0.0
1594,62.0,0.0,60.0,6.0,0.0
1595,50.0,30.0,60.0,8.0,0.0
1596,74.0,0.0,60.0,5.0,0.0
1597,62.0,0.0,60.0,15.0,0.0
1598,62.0,0.0,60.0,7.0,0.0
1599,74.0,0.0,60.0,4.0,0.0
1600,62.0,0.0,30.0,6.0,0.0
1601,74.0,0.0,30.0,5.0,0.0
1602,50.0,0.0,30.0,8.0,0.0
1603,62.0,0.0,30.0,15.0,0.0
1604,62.0,30.0,30.0,7.0,0.0
1605,74.0,0.0,30.0,4.0,0.0
1606,65.0,0.0,60.0,13.0,0.0
1607,50.0,30.0,30.0,8.0,0.0
1608,74.0,0.0,30.0,4.0,0.0
1609,62.0,0.0,30.0,7.0,0.0
1610,62.0,0.0,30.0,15.0,0.0
1611,62.0,0.0,60.0,12.0,0.0
1612,62.0,0.0,60.0,1.0,0.0
1613,64.0,0.0,60.0,1.0,0.0
1614,74.0,0.0,30.0,5.0,0.0
1615,62.0,0.0,30.0,6.0,0.0
1616,78.0,0.0,240.0,2.0,0.0
1617,70.0,0.0,30.0,4.0,0.0
1618,66.0,30.0,180.0,13.0,0.0
1619,70.0,0.0,30.0,5.0,0.0
1620,66.0,0.0,240.0,2.0,0.0
1621,58.0,0.0,30.0,7.0,0.0
1622,66.0,0.0,180.0,1.0,0.0
1623,66.0,30.0,240.0,3.0,0.0
1624,61.0,0.0,180.0,12.0,0.0
1625,61.0,0.0,240.0,3.0,0.0
1626,58.0,0.0,30.0,15.0,0.0
1627,58.0,30.0,30.0,6.0,0.0
1628,54.0,0.0,240.0,14.0,0.0
1629,46.0,0.0,30.0,8.0,0.0
1630,58.0,0.0,480.0,3.0,0.0
1631,61.0,0.0,180.0,1.0,0.0
1632,71.0,60.0,30.0,5.0,0.0
1633,71.0,0.0,30.0,4.0,0.0
1634,59.0,0.0,30.0,7.0,0.0
1635,47.0,0.0,30.0,8.0,0.0
1636,59.0,0.0,30.0,6.0,0.0
1637,59.0,0.0,30.0,15.0,0.0
1638,49.0,0.0,60.0,8.0,0.0
1639,61.0,0.0,60.0,7.0,0.0
1640,61.0,0.0,60.0,15.0,0.0
1641,73.0,0.0,60.0,5.0,0.0
1642,73.0,30.0,60.0,4.0,0.0
1643,61.0,0.0,60.0,6.0,0.0
1644,61.0,0.0,30.0,6.0,0.0
1645,61.0,0.0,30.0,7.0,0.0
1646,73.0,0.0,30.0,5.0,0.0
1647,49.0,0.0,30.0,8.0,0.0
1648,61.0,0.0,30.0,15.0,0.0
1649,73.0,30.0,30.0,4.0,0.0
1650,66.0,0.0,60.0,1.0,0.0
1651,61.0,0.0,30.0,7.0,0.0
1652,61.0,0.0,60.0,12.0,0.0
1653,49.0,0.0,30.0,8.0,0.0
1654,73.0,30.0,30.0,5.0,0.0
1655,61.0,0.0,60.0,1.0,0.0
1656,66.0,0.0,60.0,13.0,0.0
1657,73.0,0.0,30.0,4.0,0.0
1658,61.0,0.0,30.0,6.0,0.0
1659,61.0,0.0,30.0,15.0,0.0
1660,61.0,0.0,180.0,3.0,0.0
1661,61.0,0.0,30.0,15.0,0.0
1662,61.0,0.0,30.0,6.0,0.0
1663,66.0,0.0,180.0,12.0,0.0
1664,66.0,0.0,180.0,1.0,0.0
1665,61.0,30.0,180.0,13.0,0.0
1666,49.0,30.0,30.0,8.0,0.0
1667,61.0,0.0,180.0,1.0,0.0
1668,73.0,0.0,30.0,4.0,0.0
1669,66.0,0.0,240.0,3.0,0.0
1670,61.0,0.0,30.0,7.0,0.0
1671,73.0,0.0,30.0,5.0,0.0
1672,71.0,0.0,30.0,4.0,0.0
1673,71.0,0.0,30.0,5.0,0.0
1674,59.0,0.0,30.0,15.0,0.0
1675,59.0,0.0,30.0,7.0,0.0
1676,59.0,60.0,30.0,6.0,0.0
1677,47.0,0.0,30.0,8.0,0.0
1678,46.0,0.0,60.0,8.0,0.0
1679,58.0,0.0,60.0,7.0,0.0
1680,58.0,0.0,60.0,15.0,0.0
1681,58.0,0.0,60.0,6.0,0.0
1682,70.0,30.0,60.0,4.0,0.0
1683,70.0,0.0,60.0,5.0,0.0
1684,70.0,0.0,30.0,4.0,0.0
1685,70.0,30.0,30.0,5.0,0.0
1686,58.0,0.0,30.0,15.0,0.0
1687,58.0,0.0,30.0,6.0,0.0
1688,58.0,0.0,30.0,7.0,0.0
1689,46.0,0.0,30.0,8.0,0.0
1690,70.0,0.0,30.0,5.0,0.0
1691,63.0,0.0,60.0,13.0,0.0
1692,58.0,0.0,30.0,7.0,0.0
1693,46.0,0.0,30.0,8.0,0.0
1694,58.0,0.0,30.0,6.0,0.0
1695,66.0,0.0,60.0,12.0,0.0
1696,66.0,0.0,60.0,1.0,0.0
1697,61.0,30.0,60.0,1.0,0.0
1698,70.0,0.0,30.0,4.0,0.0
1699,63.0,0.0,60.0,3.0,0.0
1700,58.0,30.0,30.0,15.0,0.0
1701,67.0,0.0,180.0,12.0,0.0
1702,64.0,0.0,180.0,13.0,0.0
1703,64.0,0.0,180.0,1.0,0.0
1704,67.0,30.0,180.0,1.0,0.0
1705,73.0,0.0,240.0,2.0,0.0
1706,64.0,0.0,240.0,3.0,0.0
1707,67.0,0.0,480.0,3.0,0.0
1708,57.0,30.0,30.0,15.0,0.0
1709,69.0,0.0,30.0,4.0,0.0
1710,57.0,0.0,30.0,6.0,0.0
1711,57.0,0.0,480.0,3.0,0.0
1712,45.0,0.0,30.0,8.0,0.0
1713,49.0,0.0,240.0,14.0,0.0
1714,61.0,0.0,240.0,2.0,0.0
1715,69.0,0.0,30.0,5.0,0.0
1716,57.0,0.0,30.0,7.0,0.0
1717,59.0,0.0,30.0,7.0,0.0
1718,71.0,60.0,30.0,5.0,0.0
1719,47.0,0.0,30.0,8.0,0.0
1720,59.0,0.0,30.0,6.0,0.0
1721,71.0,0.0,30.0,4.0,0.0
1722,59.0,0.0,30.0,15.0,0.0
1723,73.0,30.0,60.0,5.0,0.0
1724,61.0,0.0,60.0,15.0,0.0
1725,73.0,0.0,60.0,4.0,0.0
1726,49.0,0.0,60.0,8.0,0.0
1727,61.0,0.0,60.0,7.0,0.0
1728,61.0,0.0,60.0,6.0,0.0
1729,49.0,0.0,30.0,8.0,0.0
1730,61.0,30.0,30.0,7.0,0.0
1731,61.0,0.0,30.0,6.0,0.0
1732,61.0,0.0,30.0,15.0,0.0
1733,73.0,0.0,30.0,5.0,0.0
1734,73.0,0.0,30.0,4.0,0.0
1735,73.0,0.0,30.0,5.0,0.0
1736,61.0,30.0,30.0,7.0,0.0
1737,64.0,0.0,60.0,1.0,0.0
1738,64.0,0.0,60.0,13.0,0.0
1739,73.0,0.0,30.0,4.0,0.0
1740,67.0,30.0,60.0,1.0,0.0
1741,61.0,0.0,30.0,15.0,0.0
1742,67.0,0.0,60.0,12.0,0.0
1743,61.0,0.0,30.0,6.0,0.0
1744,49.0,0.0,30.0,8.0,0.0
1745,49.0,0.0,30.0,8.0,0.0
1746,73.0,30.0,30.0,5.0,0.0
1747,63.0,0.0,180.0,13.0,0.0
1748,61.0,0.0,30.0,15.0,0.0
1749,61.0,0.0,30.0,7.0,0.0
1750,73.0,0.0,30.0,4.0,0.0
1751,67.0,30.0,180.0,12.0,0.0
1752,67.0,0.0,180.0,1.0,0.0
1753,61.0,0.0,30.0,6.0,0.0
1754,63.0,0.0,180.0,3.0,0.0
1755,63.0,0.0,180.0,1.0,0.0
1756,59.0,0.0,30.0,7.0,0.0
1757,47.0,0.0,30.0,8.0,0.0
1758,59.0,60.0,30.0,6.0,0.0
1759,59.0,0.0,30.0,15.0,0.0
1760,71.0,0.0,30.0,5.0,0.0
1761,71.0,0.0,30.0,4.0,0.0
1762,69.0,0.0,60.0,4.0,0.0
1763,45.0,0.0,60.0,8.0,0.0
1764,57.0,0.0,60.0,15.0,0.0
1765,57.0,0.0,60.0,7.0,0.0
1766,57.0,0.0,60.0,6.0,0.0
1767,69.0,30.0,60.0,5.0,0.0
1768,57.0,0.0,30.0,6.0,0.0
1769,69.0,30.0,30.0,4.0,0.0
1770,45.0,0.0,30.0,8.0,0.0
1771,57.0,0.0,30.0,7.0,0.0
1772,57.0,0.0,30.0,15.0,0.0
1773,69.0,0.0,30.0,5.0,0.0
1774,67.0,0.0,60.0,1.0,0.0
1775,57.0,0.0,30.0,7.0,0.0
1776,57.0,30.0,30.0,6.0,0.0
1777,61.0,120.0,60.0,1.0,0.0
1778,69.0,0.0,30.0,4.0,0.0
1779,67.0,0.0,60.0,12.0,0.0
1780,45.0,0.0,30.0,8.0,0.0
1781,57.0,0.0,30.0,15.0,0.0
1782,61.0,0.0,60.0,3.0,0.0
1783,61.0,0.0,60.0,13.0,0.0
1784,69.0,0.0,30.0,5.0,0.0
1785,68.0,0.0,240.0,1.0,0.0
1786,56.0,0.0,240.0,3.0,0.0
1787,60.0,0.0,240.0,13.0,0.0
1788,56.0,0.0,120.0,7.0,0.0
1789,60.0,120.0,240.0,1.0,0.0
1790,56.0,0.0,120.0,6.0,0.0
1791,75.0,90.0,120.0,4.0,0.0
1792,80.0,0.0,120.0,4.0,0.0
1793,56.0,0.0,120.0,15.0,0.0
1794,44.0,0.0,120.0,8.0,0.0
1795,68.0,0.0,240.0,12.0,0.0
1796,60.0,0.0,240.0,3.0,0.0
1797,80.0,0.0,120.0,5.0,0.0
1798,75.0,0.0,120.0,5.0,0.0
1799,68.0,0.0,240.0,3.0,0.0
1800,68.0,0.0,30.0,5.0,0.0
1801,68.0,0.0,30.0,4.0,0.0
1802,68.0,0.0,120.0,6.0,0.0
1803,68.0,0.0,240.0,0.0,0.0
1804,60.0,0.0,240.0,1.0,0.0
1805,63.0,0.0,240.0,1.0,0.0
1806,42.0,0.0,120.0,8.0,0.0
1807,54.0,0.0,120.0,15.0,0.0
1808,56.0,0.0,240.0,12.0,0.0
1809,54.0,120.0,120.0,7.0,0.0
1810,56.0,0.0,240.0,13.0,0.0
1811,66.0,0.0,120.0,4.0,0.0
1812,66.0,120.0,120.0,5.0,0.0
1813,66.0,0.0,120.0,6.0,0.0
1814,67.0,0.0,240.0,0.0,0.0
1815,52.0,120.0,120.0,7.0,0.0
1816,70.0,120.0,240.0,0.0,0.0
1817,61.0,0.0,240.0,1.0,0.0
1818,64.0,0.0,240.0,1.0,0.0
1819,40.0,0.0,120.0,8.0,0.0
1820,52.0,0.0,120.0,15.0,0.0
1821,64.0,0.0,120.0,4.0,0.0
1822,64.0,0.0,120.0,6.0,0.0
1823,64.0,0.0,120.0,5.0,0.0
1824,51.0,0.0,120.0,7.0,0.0
1825,51.0,0.0,120.0,15.0,0.0
1826,72.0,0.0,240.0,0.0,0.0
1827,39.0,120.0,120.0,8.0,0.0
1828,66.0,0.0,240.0,1.0,0.0
1829,63.0,0.0,240.0,1.0,0.0
1830,66.0,0.0,240.0,0.0,0.0
1831,63.0,0.0,120.0,6.0,0.0
1832,63.0,0.0,120.0,4.0,0.0
1833,63.0,120.0,120.0,5.0,0.0
1834,61.0,0.0,240.0,1.0,0.0
1835,68.0,0.0,240.0,1.0,0.0
1836,37.0,0.0,240.0,8.0,0.0
1837,61.0,120.0,240.0,6.0,0.0
1838,73.0,120.0,840.0,11.0,0.0
1839,49.0,0.0,240.0,15.0,0.0
1840,49.0,0.0,240.0,7.0,0.0
1841,73.0,0.0,240.0,0.0,0.0
1842,64.0,0.0,240.0,0.0,0.0
1843,61.0,0.0,120.0,4.0,0.0
1844,61.0,60.0,120.0,5.0,0.0
1845,76.0,0.0,840.0,10.0,0.0
1846,64.0,60.0,60.0,5.0,0.0
1847,64.0,0.0,60.0,4.0,0.0
1848,68.0,0.0,60.0,5.0,0.0
1849,68.0,0.0,60.0,4.0,0.0
1850,73.0,120.0,120.0,5.0,0.0
1851,73.0,0.0,120.0,4.0,0.0
1852,71.0,120.0,120.0,4.0,0.0
1853,71.0,0.0,120.0,5.0,0.0
1854,69.0,0.0,120.0,4.0,0.0
1855,69.0,120.0,120.0,5.0,0.0
1856,68.0,120.0,120.0,5.0,0.0
1857,68.0,0.0,120.0,4.0,0.0
1858,66.0,0.0,120.0,5.0,0.0
1859,66.0,0.0,120.0,4.0,0.0
1860,64.0,0.0,120.0,5.0,0.0
1861,76.0,0.0,120.0,10.0,0.0
1862,73.0,0.0,120.0,11.0,0.0
1863,64.0,120.0,120.0,4.0,0.0
1864,63.0,0.0,120.0,4.0,0.0
1865,73.0,0.0,240.0,11.0,0.0
1866,63.0,60.0,120.0,5.0,0.0
1867,78.0,0.0,360.0,10.0,0.0
1868,64.0,60.0,60.0,4.0,0.0
1869,64.0,0.0,60.0,5.0,0.0
1870,66.0,0.0,60.0,5.0,0.0
1871,66.0,60.0,60.0,4.0,0.0
1872,68.0,0.0,60.0,5.0,0.0
1873,72.0,120.0,120.0,11.0,0.0
1874,68.0,60.0,60.0,4.0,0.0
1875,66.0,0.0,60.0,5.0,0.0
1876,66.0,0.0,60.0,4.0,0.0
1877,78.0,0.0,120.0,10.0,0.0
1878,68.0,0.0,120.0,4.0,0.0
1879,72.0,0.0,120.0,11.0,0.0
1880,68.0,120.0,120.0,5.0,0.0
1881,76.0,0.0,120.0,10.0,0.0
1882,61.0,0.0,120.0,4.0,0.0
1883,61.0,120.0,120.0,5.0,0.0
1884,73.0,120.0,240.0,11.0,0.0
1885,71.0,0.0,120.0,4.0,0.0
1886,77.0,0.0,120.0,10.0,0.0
1887,71.0,0.0,120.0,5.0,0.0
1888,78.0,120.0,120.0,10.0,0.0
1889,69.0,0.0,120.0,4.0,0.0
1890,69.0,0.0,120.0,5.0,0.0
1891,68.0,120.0,120.0,5.0,0.0
1892,68.0,0.0,120.0,4.0,0.0
1893,80.0,0.0,120.0,10.0,0.0
1894,66.0,60.0,120.0,5.0,0.0
1895,81.0,120.0,240.0,10.0,0.0
1896,73.0,0.0,360.0,11.0,0.0
1897,66.0,0.0,120.0,4.0,0.0
1898,69.0,0.0,60.0,4.0,0.0
1899,69.0,60.0,60.0,5.0,0.0
1900,73.0,0.0,60.0,4.0,0.0
1901,73.0,0.0,60.0,5.0,0.0
1902,78.0,0.0,120.0,5.0,0.0
1903,81.0,120.0,120.0,10.0,0.0
1904,78.0,0.0,120.0,4.0,0.0
1905,76.0,0.0,120.0,5.0,0.0
1906,81.0,0.0,120.0,10.0,0.0
1907,73.0,120.0,120.0,11.0,0.0
1908,76.0,0.0,120.0,4.0,0.0
1909,74.0,0.0,120.0,5.0,0.0
1910,74.0,0.0,120.0,4.0,0.0
1911,81.0,0.0,240.0,10.0,0.0
1912,78.0,120.0,120.0,11.0,0.0
1913,73.0,120.0,120.0,5.0,0.0
1914,78.0,0.0,120.0,11.0,0.0
1915,73.0,0.0,120.0,4.0,0.0
1916,71.0,120.0,120.0,4.0,0.0
1917,71.0,0.0,120.0,5.0,0.0
1918,81.0,120.0,240.0,10.0,0.0
1919,78.0,0.0,120.0,11.0,0.0
1920,78.0,0.0,120.0,11.0,0.0
1921,69.0,0.0,120.0,5.0,0.0
1922,69.0,0.0,120.0,4.0,0.0
1923,78.0,120.0,240.0,11.0,0.0
1924,68.0,0.0,120.0,5.0,0.0
1925,68.0,60.0,120.0,4.0,0.0
1926,83.0,120.0,480.0,10.0,0.0
1927,69.0,60.0,60.0,5.0,0.0
1928,69.0,0.0,60.0,4.0,0.0
1929,71.0,0.0,60.0,5.0,0.0
1930,71.0,0.0,60.0,4.0,0.0
1931,77.0,0.0,240.0,11.0,0.0
1932,73.0,120.0,120.0,5.0,0.0
1933,73.0,0.0,120.0,4.0,0.0
1934,61.0,0.0,120.0,4.0,0.0
1935,61.0,0.0,120.0,5.0,0.0
1936,81.0,120.0,240.0,10.0,0.0
1937,66.0,0.0,120.0,4.0,0.0
1938,66.0,60.0,120.0,5.0,0.0
1939,78.0,0.0,240.0,11.0,0.0
1940,69.0,0.0,60.0,5.0,0.0
1941,69.0,60.0,60.0,4.0,0.0
1942,68.0,0.0,60.0,5.0,0.0
1943,68.0,0.0,60.0,4.0,0.0
1944,66.0,60.0,120.0,4.0,0.0
1945,81.0,0.0,600.0,10.0,0.0
1946,66.0,0.0,120.0,5.0,0.0
1947,68.0,0.0,60.0,5.0,0.0
1948,68.0,60.0,60.0,4.0,0.0
1949,69.0,0.0,60.0,4.0,0.0
1950,69.0,120.0,60.0,5.0,0.0
1951,71.0,60.0,120.0,4.0,0.0
1952,71.0,0.0,120.0,5.0,0.0
1953,69.0,0.0,60.0,5.0,0.0
1954,69.0,60.0,60.0,4.0,0.0
1955,71.0,0.0,60.0,5.0,0.0
1956,71.0,120.0,60.0,4.0,0.0
1957,59.0,0.0,120.0,4.0,0.0
1958,59.0,120.0,120.0,5.0,0.0
1959,75.0,0.0,600.0,11.0,0.0
1960,71.0,0.0,120.0,5.0,0.0
1961,81.0,0.0,120.0,10.0,0.0
1962,71.0,120.0,120.0,4.0,0.0
1963,64.0,0.0,120.0,4.0,0.0
1964,80.0,0.0,240.0,10.0,0.0
1965,64.0,60.0,120.0,5.0,0.0
1966,68.0,0.0,60.0,4.0,0.0
1967,68.0,60.0,60.0,5.0,0.0
1968,66.0,0.0,60.0,5.0,0.0
1969,66.0,120.0,60.0,4.0,0.0
1970,64.0,0.0,120.0,5.0,0.0
1971,64.0,60.0,120.0,4.0,0.0
1972,66.0,60.0,60.0,4.0,0.0
1973,66.0,0.0,60.0,5.0,0.0
1974,75.0,0.0,120.0,11.0,0.0
1975,68.0,120.0,60.0,4.0,0.0
1976,68.0,0.0,60.0,5.0,0.0
1977,69.0,0.0,120.0,5.0,0.0
1978,73.0,0.0,240.0,11.0,0.0
1979,80.0,60.0,360.0,10.0,0.0
1980,69.0,60.0,120.0,4.0,0.0
1981,64.0,60.0,60.0,4.0,0.0
1982,64.0,0.0,60.0,5.0,0.0
1983,61.0,60.0,60.0,5.0,0.0
1984,61.0,0.0,60.0,4.0,0.0
1985,69.0,0.0,60.0,4.0,0.0
1986,69.0,60.0,60.0,5.0,0.0
1987,69.0,0.0,60.0,4.0,0.0
1988,69.0,60.0,60.0,5.0,0.0
1989,80.0,120.0,120.0,10.0,0.0
1990,63.0,0.0,120.0,4.0,0.0
1991,78.0,0.0,240.0,10.0,0.0
1992,73.0,0.0,360.0,11.0,0.0
1993,63.0,60.0,120.0,5.0,0.0
1994,66.0,0.0,60.0,4.0,0.0
1995,66.0,60.0,60.0,5.0,0.0
1996,64.0,0.0,60.0,4.0,0.0
1997,64.0,120.0,60.0,5.0,0.0
1998,63.0,0.0,120.0,4.0,0.0
1999,63.0,60.0,120.0,5.0,0.0
2000,73.0,0.0,120.0,11.0,0.0
2001,64.0,0.0,60.0,5.0,0.0
2002,64.0,60.0,60.0,4.0,0.0
2003,66.0,120.0,60.0,4.0,0.0
2004,66.0,0.0,60.0,5.0,0.0
2005,68.0,0.0,120.0,4.0,0.0
2006,68.0,120.0,120.0,5.0,0.0
2007,78.0,0.0,360.0,10.0,0.0
2008,72.0,120.0,240.0,11.0,0.0
2009,66.0,0.0,120.0,5.0,0.0
2010,66.0,0.0,120.0,4.0,0.0
2011,64.0,0.0,120.0,4.0,0.0
2012,64.0,120.0,120.0,5.0,0.0
2013,72.0,0.0,240.0,11.0,0.0
2014,63.0,0.0,120.0,5.0,0.0
2015,63.0,0.0,120.0,4.0,0.0
2016,78.0,120.0,120.0,10.0,0.0
2017,61.0,0.0,120.0,4.0,0.0
2018,61.0,120.0,120.0,5.0,0.0
2019,76.0,0.0,120.0,10.0,0.0
2020,73.0,120.0,240.0,11.0,0.0
2021,76.0,0.0,120.0,10.0,0.0
2022,71.0,0.0,120.0,4.0,0.0
2023,71.0,0.0,120.0,5.0,0.0
2024,78.0,0.0,120.0,10.0,0.0
2025,70.0,120.0,120.0,5.0,0.0
2026,73.0,120.0,240.0,11.0,0.0
2027,70.0,0.0,120.0,4.0,0.0
2028,69.0,0.0,120.0,5.0,0.0
2029,69.0,0.0,120.0,4.0,0.0
2030,78.0,0.0,120.0,10.0,0.0
2031,68.0,60.0,120.0,4.0,0.0
2032,68.0,0.0,120.0,5.0,0.0
2033,78.0,0.0,240.0,10.0,0.0
2034,72.0,0.0,240.0,11.0,0.0
2035,66.0,0.0,60.0,5.0,0.0
2036,66.0,60.0,60.0,4.0,0.0
2037,68.0,120.0,60.0,4.0,0.0
2038,68.0,0.0,60.0,5.0,0.0
2039,69.0,0.0,120.0,5.0,0.0
2040,73.0,0.0,480.0,11.0,0.0
2041,76.0,0.0,240.0,10.0,0.0
2042,69.0,60.0,120.0,4.0,0.0
2043,68.0,60.0,60.0,5.0,0.0
2044,68.0,0.0,60.0,4.0,0.0
2045,69.0,0.0,60.0,5.0,0.0
2046,69.0,120.0,60.0,4.0,0.0
2047,75.0,0.0,480.0,10.0,0.0
2048,66.0,60.0,120.0,5.0,0.0
2049,66.0,0.0,120.0,4.0,0.0
2050,64.0,60.0,60.0,4.0,0.0
2051,64.0,0.0,60.0,5.0,0.0
2052,66.0,120.0,60.0,4.0,0.0
2053,66.0,0.0,60.0,5.0,0.0
2054,72.0,0.0,240.0,11.0,0.0
2055,68.0,0.0,120.0,4.0,0.0
2056,68.0,60.0,120.0,5.0,0.0
2057,66.0,0.0,60.0,4.0,0.0
2058,66.0,60.0,60.0,5.0,0.0
2059,68.0,60.0,60.0,4.0,0.0
2060,68.0,0.0,60.0,5.0,0.0
2061,61.0,0.0,120.0,7.0,0.0
2062,61.0,0.0,960.0,3.0,0.0
2063,61.0,60.0,120.0,15.0,0.0
2064,61.0,0.0,60.0,4.0,0.0
2065,49.0,0.0,120.0,8.0,0.0
2066,64.0,0.0,960.0,3.0,0.0
2067,76.0,120.0,240.0,10.0,0.0
2068,73.0,0.0,240.0,11.0,0.0
2069,68.0,0.0,960.0,0.0,0.0
2070,61.0,60.0,60.0,5.0,0.0
2071,68.0,0.0,960.0,3.0,0.0
2072,73.0,0.0,960.0,0.0,0.0
2073,64.0,0.0,960.0,1.0,0.0
2074,61.0,0.0,960.0,1.0,0.0
2075,73.0,0.0,60.0,4.0,0.0
2076,64.0,0.0,60.0,6.0,0.0
2077,68.0,0.0,60.0,5.0,0.0
2078,68.0,0.0,60.0,5.0,0.0
2079,64.0,60.0,60.0,6.0,0.0
2080,73.0,0.0,60.0,4.0,0.0
2081,73.0,0.0,60.0,4.0,0.0
2082,68.0,0.0,60.0,5.0,0.0
2083,64.0,0.0,60.0,6.0,0.0
2084,49.0,0.0,120.0,8.0,0.0
2085,61.0,0.0,120.0,15.0,0.0
2086,61.0,60.0,120.0,7.0,0.0
2087,68.0,0.0,60.0,6.0,0.0
2088,76.0,0.0,60.0,4.0,0.0
2089,73.0,0.0,60.0,5.0,0.0
2090,73.0,0.0,60.0,5.0,0.0
2091,68.0,0.0,60.0,6.0,0.0
2092,76.0,60.0,60.0,4.0,0.0
2093,76.0,0.0,60.0,4.0,0.0
2094,68.0,120.0,60.0,6.0,0.0
2095,73.0,0.0,60.0,5.0,0.0
2096,61.0,0.0,120.0,15.0,0.0
2097,61.0,0.0,120.0,7.0,0.0
2098,49.0,60.0,120.0,8.0,0.0
2099,73.0,0.0,60.0,6.0,0.0
2100,80.0,0.0,60.0,4.0,0.0
2101,76.0,0.0,60.0,5.0,0.0
2102,80.0,0.0,60.0,4.0,0.0
2103,73.0,0.0,60.0,6.0,0.0
2104,76.0,60.0,60.0,5.0,0.0
2105,73.0,0.0,60.0,6.0,0.0
2106,80.0,0.0,60.0,4.0,0.0
2107,76.0,120.0,60.0,5.0,0.0
2108,61.0,0.0,120.0,15.0,0.0
2109,61.0,60.0,120.0,7.0,0.0
2110,49.0,0.0,120.0,8.0,0.0
2111,85.0,0.0,60.0,4.0,0.0
2112,76.0,0.0,60.0,6.0,0.0
2113,80.0,0.0,60.0,5.0,0.0
2114,85.0,0.0,60.0,4.0,0.0
2115,80.0,0.0,60.0,5.0,0.0
2116,76.0,60.0,60.0,6.0,0.0
2117,76.0,120.0,60.0,6.0,0.0
2118,80.0,0.0,60.0,5.0,0.0
2119,85.0,0.0,60.0,4.0,0.0
2120,43.0,0.0,120.0,8.0,0.0
2121,55.0,0.0,720.0,13.0,0.0
2122,70.0,0.0,960.0,15.0,0.0
2123,55.0,0.0,960.0,3.0,0.0
2124,73.0,0.0,960.0,15.0,0.0
2125,64.0,0.0,960.0,15.0,0.0
2126,55.0,0.0,120.0,7.0,0.0
2127,64.0,0.0,960.0,3.0,0.0
2128,64.0,0.0,960.0,1.0,0.0
2129,55.0,0.0,1920.0,1.0,0.0
2130,70.0,0.0,960.0,3.0,0.0
2131,79.0,120.0,960.0,15.0,0.0
2132,70.0,0.0,960.0,0.0,0.0
2133,73.0,0.0,960.0,0.0,0.0
2134,55.0,0.0,120.0,15.0,0.0
2135,82.0,0.0,60.0,5.0,0.0
2136,88.0,0.0,60.0,4.0,0.0
2137,73.0,60.0,60.0,6.0,0.0
2138,82.0,60.0,60.0,5.0,0.0
2139,73.0,0.0,60.0,6.0,0.0
2140,88.0,0.0,60.0,4.0,0.0
2141,88.0,120.0,60.0,4.0,0.0
2142,73.0,0.0,60.0,6.0,0.0
2143,82.0,0.0,60.0,5.0,0.0
2144,43.0,0.0,120.0,8.0,0.0
2145,55.0,60.0,120.0,15.0,0.0
2146,55.0,0.0,120.0,7.0,0.0
2147,85.0,0.0,60.0,4.0,0.0
2148,82.0,0.0,60.0,5.0,0.0
2149,76.0,0.0,60.0,6.0,0.0
2150,85.0,0.0,60.0,4.0,0.0
2151,76.0,60.0,60.0,6.0,0.0
2152,82.0,0.0,60.0,5.0,0.0
2153,85.0,0.0,60.0,4.0,0.0
2154,82.0,0.0,60.0,5.0,0.0
2155,76.0,120.0,60.0,6.0,0.0
2156,64.0,0.0,240.0,12.0,0.0
2157,55.0,60.0,120.0,15.0,0.0
2158,55.0,0.0,120.0,7.0,0.0
2159,73.0,120.0,240.0,10.0,0.0
2160,70.0,0.0,240.0,11.0,0.0
2161,43.0,0.0,120.0,8.0,0.0
2162,76.0,0.0,60.0,5.0,0.0
2163,82.0,0.0,60.0,4.0,0.0
2164,73.0,0.0,60.0,6.0,0.0
2165,82.0,0.0,60.0,4.0,0.0
2166,76.0,60.0,60.0,5.0,0.0
2167,73.0,0.0,60.0,6.0,0.0
2168,82.0,0.0,60.0,4.0,0.0
2169,73.0,0.0,60.0,6.0,0.0
2170,76.0,0.0,60.0,5.0,0.0
2171,55.0,0.0,240.0,13.0,0.0
2172,55.0,0.0,120.0,7.0,0.0
2173,55.0,0.0,120.0,15.0,0.0
2174,43.0,0.0,120.0,8.0,0.0
2175,64.0,0.0,240.0,12.0,0.0
2176,73.0,0.0,240.0,10.0,0.0
2177,70.0,0.0,240.0,11.0,0.0
2178,73.0,0.0,60.0,5.0,0.0
2179,70.0,60.0,60.0,6.0,0.0
2180,76.0,0.0,60.0,4.0,0.0
2181,73.0,60.0,60.0,5.0,0.0
2182,70.0,0.0,60.0,6.0,0.0
2183,76.0,0.0,60.0,4.0,0.0
2184,70.0,0.0,60.0,6.0,0.0
2185,73.0,0.0,60.0,5.0,0.0
2186,76.0,0.0,60.0,4.0,0.0
2187,55.0,0.0,960.0,3.0,0.0
2188,65.0,120.0,240.0,12.0,0.0
2189,55.0,0.0,120.0,15.0,0.0
2190,71.0,0.0,960.0,15.0,0.0
2191,74.0,0.0,240.0,10.0,0.0
2192,55.0,60.0,120.0,7.0,0.0
2193,74.0,0.0,1200.0,0.0,0.0
2194,74.0,0.0,960.0,15.0,0.0
2195,55.0,0.0,240.0,13.0,0.0
2196,71.0,0.0,1200.0,3.0,0.0
2197,65.0,0.0,960.0,1.0,0.0
2198,71.0,0.0,240.0,11.0,0.0
2199,43.0,0.0,120.0,8.0,0.0
2200,62.0,0.0,960.0,3.0,0.0
2201,71.0,0.0,960.0,0.0,0.0
2202,77.0,0.0,960.0,15.0,0.0
2203,67.0,0.0,60.0,6.0,0.0
2204,77.0,0.0,60.0,4.0,0.0
2205,71.0,0.0,60.0,5.0,0.0
2206,67.0,0.0,60.0,6.0,0.0
2207,77.0,0.0,60.0,4.0,0.0
2208,71.0,60.0,60.0,5.0,0.0
2209,71.0,0.0,60.0,5.0,0.0
2210,77.0,0.0,60.0,4.0,0.0
2211,67.0,0.0,60.0,6.0,0.0
2212,71.0,0.0,240.0,11.0,0.0
2213,55.0,120.0,240.0,13.0,0.0
2214,43.0,0.0,120.0,8.0,0.0
2215,55.0,60.0,120.0,15.0,0.0
2216,55.0,0.0,120.0,7.0,0.0
2217,65.0,0.0,240.0,12.0,0.0
2218,74.0,0.0,240.0,10.0,0.0
2219,71.0,0.0,60.0,5.0,0.0
2220,65.0,0.0,60.0,6.0,0.0
2221,74.0,0.0,60.0,4.0,0.0
2222,74.0,0.0,60.0,4.0,0.0
2223,65.0,60.0,60.0,6.0,0.0
2224,71.0,0.0,60.0,5.0,0.0
2225,65.0,0.0,60.0,6.0,0.0
2226,74.0,0.0,60.0,4.0,0.0
2227,71.0,0.0,60.0,5.0,0.0
2228,65.0,120.0,240.0,12.0,0.0
2229,74.0,0.0,240.0,10.0,0.0
2230,55.0,0.0,120.0,7.0,0.0
2231,55.0,0.0,120.0,15.0,0.0
2232,43.0,60.0,120.0,8.0,0.0
2233,71.0,0.0,240.0,11.0,0.0
2234,55.0,0.0,240.0,13.0,0.0
2235,71.0,0.0,60.0,4.0,0.0
2236,62.0,0.0,60.0,6.0,0.0
2237,65.0,0.0,60.0,5.0,0.0
2238,65.0,0.0,60.0,5.0,0.0
2239,62.0,0.0,60.0,6.0,0.0
2240,71.0,60.0,60.0,4.0,0.0
2241,71.0,0.0,60.0,4.0,0.0
2242,62.0,0.0,60.0,6.0,0.0
2243,65.0,0.0,60.0,5.0,0.0
2244,55.0,0.0,120.0,15.0,0.0
2245,65.0,120.0,240.0,12.0,0.0
2246,43.0,0.0,120.0,8.0,0.0
2247,55.0,0.0,120.0,7.0,0.0
2248,55.0,0.0,240.0,13.0,0.0
2249,71.0,0.0,240.0,11.0,0.0
2250,74.0,0.0,240.0,10.0,0.0
2251,62.0,0.0,60.0,5.0,0.0
2252,59.0,60.0,60.0,6.0,0.0
2253,65.0,0.0,60.0,4.0,0.0
2254,62.0,60.0,60.0,5.0,0.0
2255,59.0,0.0,60.0,6.0,0.0
2256,65.0,0.0,60.0,4.0,0.0
2257,59.0,0.0,60.0,6.0,0.0
2258,65.0,0.0,60.0,4.0,0.0
2259,62.0,0.0,60.0,5.0,0.0
2260,67.0,0.0,960.0,11.0,0.0
2261,43.0,0.0,120.0,8.0,0.0
2262,55.0,0.0,960.0,1.0,0.0
2263,63.0,120.0,480.0,1.0,0.0
2264,63.0,0.0,480.0,3.0,0.0
2265,63.0,0.0,240.0,15.0,0.0
2266,55.0,0.0,120.0,7.0,0.0
2267,74.0,0.0,240.0,10.0,0.0
2268,55.0,0.0,960.0,13.0,0.0
2269,67.0,0.0,960.0,15.0,0.0
2270,74.0,0.0,480.0,15.0,0.0
2271,71.0,0.0,240.0,15.0,0.0
2272,55.0,0.0,120.0,15.0,0.0
2273,67.0,0.0,480.0,0.0,0.0
2274,63.0,0.0,480.0,12.0,0.0
2275,55.0,60.0,960.0,3.0,0.0
2276,62.0,0.0,60.0,5.0,0.0
2277,63.0,60.0,60.0,4.0,0.0
2278,55.0,0.0,60.0,6.0,0.0
2279,62.0,60.0,60.0,5.0,0.0
2280,55.0,0.0,60.0,6.0,0.0
2281,63.0,0.0,60.0,4.0,0.0
2282,55.0,120.0,60.0,6.0,0.0
2283,63.0,0.0,60.0,4.0,0.0
2284,62.0,0.0,60.0,5.0,0.0
2285,43.0,0.0,120.0,8.0,0.0
2286,72.0,0.0,480.0,0.0,0.0
2287,72.0,0.0,480.0,3.0,0.0
2288,55.0,60.0,120.0,15.0,0.0
2289,72.0,0.0,240.0,15.0,0.0
2290,72.0,0.0,480.0,10.0,0.0
2291,55.0,0.0,120.0,7.0,0.0
2292,60.0,0.0,60.0,5.0,0.0
2293,63.0,0.0,60.0,4.0,0.0
2294,55.0,0.0,60.0,6.0,0.0
2295,60.0,0.0,60.0,5.0,0.0
2296,63.0,60.0,60.0,4.0,0.0
2297,55.0,0.0,60.0,6.0,0.0
2298,60.0,0.0,60.0,5.0,0.0
2299,55.0,0.0,60.0,6.0,0.0
2300,63.0,0.0,60.0,4.0,0.0
2301,55.0,0.0,120.0,7.0,0.0
2302,62.0,0.0,480.0,3.0,0.0
2303,55.0,60.0,120.0,15.0,0.0
2304,65.0,0.0,480.0,0.0,0.0
2305,62.0,0.0,480.0,1.0,0.0
2306,43.0,0.0,120.0,8.0,0.0
2307,62.0,0.0,480.0,12.0,0.0
2308,72.0,0.0,480.0,15.0,0.0
2309,74.0,0.0,480.0,15.0,0.0
2310,62.0,0.0,60.0,4.0,0.0
2311,60.0,0.0,60.0,5.0,0.0
2312,55.0,0.0,60.0,6.0,0.0
2313,62.0,0.0,60.0,4.0,0.0
2314,60.0,60.0,60.0,5.0,0.0
2315,55.0,0.0,60.0,6.0,0.0
2316,62.0,0.0,60.0,4.0,0.0
2317,60.0,120.0,60.0,5.0,0.0
2318,55.0,0.0,60.0,6.0,0.0
2319,71.0,0.0,240.0,10.0,0.0
2320,77.0,0.0,240.0,15.0,0.0
2321,43.0,0.0,120.0,8.0,0.0
2322,71.0,0.0,240.0,3.0,0.0
2323,55.0,0.0,120.0,15.0,0.0
2324,71.0,0.0,240.0,0.0,0.0
2325,55.0,0.0,120.0,7.0,0.0
2326,59.0,60.0,60.0,5.0,0.0
2327,55.0,0.0,60.0,6.0,0.0
2328,62.0,0.0,60.0,4.0,0.0
2329,59.0,60.0,60.0,5.0,0.0
2330,55.0,0.0,60.0,6.0,0.0
2331,62.0,0.0,60.0,4.0,0.0
2332,55.0,0.0,60.0,6.0,0.0
2333,59.0,0.0,60.0,5.0,0.0
2334,62.0,0.0,60.0,4.0,0.0
2335,72.0,0.0,960.0,0.0,0.0
2336,67.0,0.0,960.0,0.0,0.0
2337,72.0,0.0,240.0,10.0,0.0
2338,36.0,0.0,120.0,8.0,0.0
2339,60.0,60.0,60.0,4.0,0.0
2340,55.0,0.0,60.0,6.0,0.0
2341,72.0,0.0,960.0,3.0,0.0
2342,60.0,0.0,240.0,12.0,0.0
2343,67.0,0.0,960.0,15.0,0.0
2344,48.0,0.0,120.0,15.0,0.0
2345,75.0,0.0,960.0,15.0,0.0
2346,72.0,0.0,960.0,15.0,0.0
2347,67.0,0.0,240.0,11.0,0.0
2348,48.0,0.0,240.0,13.0,0.0
2349,48.0,0.0,960.0,3.0,0.0
2350,60.0,0.0,960.0,3.0,0.0
2351,63.0,0.0,960.0,1.0,0.0
2352,60.0,120.0,960.0,1.0,0.0
2353,60.0,0.0,60.0,5.0,0.0
2354,48.0,0.0,120.0,7.0,0.0
2355,63.0,0.0,60.0,6.0,0.0
2356,67.0,60.0,60.0,5.0,0.0
2357,72.0,0.0,60.0,4.0,0.0
2358,63.0,60.0,60.0,6.0,0.0
2359,72.0,0.0,60.0,4.0,0.0
2360,67.0,0.0,60.0,5.0,0.0
2361,67.0,0.0,60.0,5.0,0.0
2362,72.0,0.0,60.0,4.0,0.0
2363,63.0,120.0,60.0,6.0,0.0
2364,48.0,0.0,120.0,8.0,0.0
2365,60.0,0.0,120.0,15.0,0.0
2366,60.0,0.0,120.0,7.0,0.0
2367,75.0,0.0,60.0,4.0,0.0
2368,67.0,0.0,60.0,6.0,0.0
2369,72.0,60.0,60.0,5.0,0.0
2370,72.0,0.0,60.0,5.0,0.0
2371,67.0,0.0,60.0,6.0,0.0
2372,75.0,60.0,60.0,4.0,0.0
2373,75.0,0.0,60.0,4.0,0.0
2374,72.0,120.0,60.0,5.0,0.0
2375,67.0,0.0,60.0,6.0,0.0
2376,60.0,0.0,120.0,7.0,0.0
2377,60.0,0.0,120.0,15.0,0.0
2378,48.0,0.0,120.0,8.0,0.0
2379,75.0,60.0,60.0,5.0,0.0
2380,79.0,0.0,60.0,4.0,0.0
2381,72.0,0.0,60.0,6.0,0.0
2382,72.0,0.0,60.0,6.0,0.0
2383,75.0,0.0,60.0,5.0,0.0
2384,79.0,60.0,60.0,4.0,0.0
2385,79.0,120.0,60.0,4.0,0.0
2386,72.0,0.0,60.0,6.0,0.0
2387,75.0,0.0,60.0,5.0,0.0
2388,60.0,0.0,120.0,7.0,0.0
2389,60.0,0.0,120.0,15.0,0.0
2390,48.0,0.0,120.0,8.0,0.0
2391,84.0,0.0,60.0,4.0,0.0
2392,79.0,60.0,60.0,5.0,0.0
2393,75.0,0.0,60.0,6.0,0.0
2394,75.0,0.0,60.0,6.0,0.0
2395,84.0,60.0,60.0,4.0,0.0
2396,79.0,0.0,60.0,5.0,0.0
2397,75.0,0.0,60.0,6.0,0.0
2398,84.0,0.0,60.0,4.0,0.0
2399,79.0,0.0,60.0,5.0,0.0
2400,42.0,60.0,120.0,8.0,0.0
2401,54.0,0.0,960.0,3.0,0.0
2402,54.0,0.0,120.0,7.0,0.0
2403,54.0,0.0,120.0,15.0,0.0
2404,69.0,0.0,960.0,15.0,0.0
2405,72.0,0.0,960.0,15.0,0.0
2406,75.0,0.0,960.0,15.0,0.0
2407,66.0,0.0,960.0,15.0,0.0
2408,54.0,0.0,720.0,13.0,0.0
2409,69.0,0.0,960.0,3.0,0.0
2410,72.0,0.0,960.0,0.0,0.0
2411,69.0,0.0,960.0,0.0,0.0
2412,63.0,0.0,960.0,3.0,0.0
2413,63.0,0.0,960.0,1.0,0.0
2414,54.0,0.0,960.0,1.0,0.0
2415,72.0,0.0,60.0,6.0,0.0
2416,81.0,0.0,60.0,5.0,0.0
2417,87.0,0.0,60.0,4.0,0.0
2418,87.0,0.0,60.0,4.0,0.0
2419,81.0,60.0,60.0,5.0,0.0
2420,72.0,0.0,60.0,6.0,0.0
2421,87.0,0.0,60.0,4.0,0.0
2422,72.0,0.0,60.0,6.0,0.0
2423,81.0,120.0,60.0,5.0,0.0
2424,42.0,0.0,120.0,8.0,0.0
2425,54.0,0.0,120.0,15.0,0.0
2426,54.0,60.0,120.0,7.0,0.0
2427,84.0,0.0,60.0,4.0,0.0
2428,75.0,0.0,60.0,6.0,0.0
2429,81.0,0.0,60.0,5.0,0.0
2430,75.0,60.0,60.0,6.0,0.0
2431,81.0,0.0,60.0,5.0,0.0
2432,84.0,0.0,60.0,4.0,0.0
2433,81.0,0.0,60.0,5.0,0.0
2434,75.0,120.0,60.0,6.0,0.0
2435,84.0,0.0,60.0,4.0,0.0
2436,72.0,0.0,240.0,10.0,0.0
2437,42.0,0.0,120.0,8.0,0.0
2438,69.0,0.0,240.0,11.0,0.0
2439,54.0,60.0,120.0,7.0,0.0
2440,63.0,0.0,240.0,12.0,0.0
2441,54.0,0.0,120.0,15.0,0.0
2442,71.0,0.0,60.0,6.0,0.0
2443,75.0,0.0,60.0,5.0,0.0
2444,81.0,0.0,60.0,4.0,0.0
2445,71.0,0.0,60.0,6.0,0.0
2446,81.0,0.0,60.0,4.0,0.0
2447,75.0,60.0,60.0,5.0,0.0
2448,81.0,120.0,60.0,4.0,0.0
2449,75.0,0.0,60.0,5.0,0.0
2450,71.0,0.0,60.0,6.0,0.0
2451,54.0,0.0,120.0,15.0,0.0
2452,72.0,120.0,240.0,10.0,0.0
2453,54.0,0.0,240.0,13.0,0.0
2454,63.0,0.0,240.0,12.0,0.0
2455,69.0,0.0,240.0,11.0,0.0
2456,54.0,0.0,120.0,7.0,0.0
2457,42.0,60.0,120.0,8.0,0.0
2458,75.0,0.0,60.0,4.0,0.0
2459,69.0,0.0,60.0,6.0,0.0
2460,72.0,0.0,60.0,5.0,0.0
2461,72.0,0.0,60.0,5.0,0.0
2462,75.0,60.0,60.0,4.0,0.0
2463,69.0,0.0,60.0,6.0,0.0
2464,69.0,0.0,60.0,6.0,0.0
2465,72.0,0.0,60.0,5.0,0.0
2466,75.0,0.0,60.0,4.0,0.0
2467,54.0,0.0,240.0,13.0,0.0
2468,64.0,0.0,240.0,12.0,0.0
2469,64.0,0.0,960.0,1.0,0.0
2470,54.0,0.0,960.0,1.0,0.0
2471,70.0,0.0,1200.0,3.0,0.0
2472,70.0,0.0,240.0,11.0,0.0
2473,73.0,0.0,1200.0,0.0,0.0
2474,64.0,0.0,960.0,15.0,0.0
2475,42.0,0.0,120.0,8.0,0.0
2476,73.0,120.0,240.0,10.0,0.0
2477,70.0,0.0,960.0,0.0,0.0
2478,73.0,0.0,960.0,15.0,0.0
2479,70.0,0.0,960.0,15.0,0.0
2480,54.0,0.0,120.0,15.0,0.0
2481,64.0,0.0,960.0,3.0,0.0
2482,54.0,120.0,960.0,3.0,0.0
2483,54.0,60.0,120.0,7.0,0.0
2484,76.0,0.0,60.0,4.0,0.0
2485,73.0,0.0,60.0,5.0,0.0
2486,70.0,0.0,60.0,6.0,0.0
2487,76.0,0.0,60.0,4.0,0.0
2488,70.0,0.0,60.0,6.0,0.0
2489,73.0,60.0,60.0,5.0,0.0
2490,73.0,0.0,60.0,5.0,0.0
2491,76.0,0.0,60.0,4.0,0.0
2492,70.0,0.0,60.0,6.0,0.0
2493,54.0,0.0,120.0,15.0,0.0
2494,64.0,0.0,240.0,12.0,0.0
2495,54.0,120.0,240.0,13.0,0.0
2496,73.0,0.0,240.0,10.0,0.0
2497,70.0,0.0,240.0,11.0,0.0
2498,42.0,0.0,120.0,8.0,0.0
2499,54.0,0.0,120.0,7.0,0.0
2500,64.0,0.0,60.0,6.0,0.0
2501,73.0,60.0,60.0,4.0,0.0
2502,70.0,0.0,60.0,5.0,0.0
2503,70.0,60.0,60.0,5.0,0.0
2504,73.0,0.0,60.0,4.0,0.0
2505,64.0,0.0,60.0,6.0,0.0
2506,73.0,0.0,60.0,4.0,0.0
2507,64.0,0.0,60.0,6.0,0.0
2508,70.0,0.0,60.0,5.0,0.0
2509,42.0,0.0,120.0,8.0,0.0
2510,70.0,0.0,240.0,11.0,0.0
2511,64.0,0.0,240.0,12.0,0.0
2512,54.0,0.0,120.0,15.0,0.0
2513,54.0,0.0,240.0,13.0,0.0
2514,73.0,0.0,240.0,10.0,0.0
2515,54.0,0.0,120.0,7.0,0.0
2516,61.0,0.0,60.0,6.0,0.0
2517,64.0,60.0,60.0,5.0,0.0
2518,70.0,0.0,60.0,4.0,0.0
2519,64.0,0.0,60.0,5.0,0.0
2520,61.0,0.0,60.0,6.0,0.0
2521,70.0,60.0,60.0,4.0,0.0
2522,70.0,0.0,60.0,4.0,0.0
2523,64.0,120.0,60.0,5.0,0.0
2524,61.0,0.0,60.0,6.0,0.0
2525,54.0,0.0,120.0,7.0,0.0
2526,54.0,0.0,120.0,15.0,0.0
2527,42.0,60.0,120.0,8.0,0.0
2528,64.0,0.0,240.0,12.0,0.0
2529,54.0,0.0,240.0,13.0,0.0
2530,73.0,0.0,240.0,10.0,0.0
2531,70.0,0.0,240.0,11.0,0.0
2532,58.0,0.0,60.0,6.0,0.0
2533,64.0,0.0,60.0,4.0,0.0
2534,61.0,0.0,60.0,5.0,0.0
2535,58.0,60.0,60.0,6.0,0.0
2536,61.0,0.0,60.0,5.0,0.0
2537,64.0,0.0,60.0,4.0,0.0
2538,64.0,0.0,60.0,4.0,0.0
2539,58.0,0.0,60.0,6.0,0.0
2540,61.0,0.0,60.0,5.0,0.0
2541,69.0,0.0,240.0,15.0,0.0
2542,54.0,0.0,120.0,15.0,0.0
2543,62.0,0.0,480.0,15.0,0.0
2544,66.0,0.0,960.0,11.0,0.0
2545,54.0,60.0,120.0,7.0,0.0
2546,54.0,0.0,960.0,3.0,0.0
2547,66.0,0.0,960.0,15.0,0.0
2548,73.0,0.0,240.0,15.0,0.0
2549,42.0,0.0,120.0,8.0,0.0
2550,62.0,120.0,480.0,1.0,0.0
2551,54.0,0.0,960.0,1.0,0.0
2552,54.0,0.0,960.0,13.0,0.0
2553,73.0,120.0,240.0,10.0,0.0
2554,62.0,0.0,480.0,12.0,0.0
2555,62.0,0.0,480.0,3.0,0.0
2556,66.0,0.0,960.0,0.0,0.0
2557,61.0,0.0,60.0,5.0,0.0
2558,54.0,0.0,60.0,6.0,0.0
2559,62.0,0.0,60.0,4.0,0.0
2560,62.0,0.0,60.0,4.0,0.0
2561,61.0,60.0,60.0,5.0,0.0
2562,54.0,0.0,60.0,6.0,0.0
2563,54.0,0.0,60.0,6.0,0.0
2564,61.0,0.0,60.0,5.0,0.0
2565,62.0,0.0,60.0,4.0,0.0
2566,71.0,0.0,480.0,3.0,0.0
2567,54.0,60.0,120.0,7.0,0.0
2568,71.0,0.0,720.0,15.0,0.0
2569,71.0,0.0,480.0,10.0,0.0
2570,54.0,0.0,120.0,15.0,0.0
2571,71.0,0.0,480.0,0.0,0.0
2572,42.0,0.0,120.0,8.0,0.0
2573,54.0,0.0,60.0,6.0,0.0
2574,62.0,0.0,60.0,4.0,0.0
2575,59.0,0.0,60.0,5.0,0.0
2576,54.0,60.0,60.0,6.0,0.0
2577,59.0,0.0,60.0,5.0,0.0
2578,62.0,0.0,60.0,4.0,0.0
2579,59.0,0.0,60.0,5.0,0.0
2580,62.0,0.0,60.0,4.0,0.0
2581,54.0,0.0,60.0,6.0,0.0
2582,54.0,60.0,120.0,15.0,0.0
2583,61.0,0.0,480.0,12.0,0.0
2584,61.0,120.0,480.0,3.0,0.0
2585,42.0,0.0,120.0,8.0,0.0
2586,61.0,0.0,480.0,1.0,0.0
2587,54.0,0.0,120.0,7.0,0.0
2588,66.0,0.0,60.0,5.0,0.0
2589,64.0,0.0,60.0,4.0,0.0
2590,61.0,0.0,60.0,6.0,0.0
2591,64.0,0.0,60.0,4.0,0.0
2592,61.0,60.0,60.0,6.0,0.0
2593,66.0,0.0,60.0,5.0,0.0
2594,64.0,0.0,60.0,4.0,0.0
2595,61.0,120.0,60.0,6.0,0.0
2596,66.0,0.0,60.0,5.0,0.0
2597,76.0,0.0,240.0,15.0,0.0
2598,54.0,0.0,120.0,7.0,0.0
2599,70.0,0.0,240.0,15.0,0.0
2600,42.0,0.0,120.0,8.0,0.0
2601,70.0,0.0,240.0,0.0,0.0
2602,54.0,60.0,120.0,15.0,0.0
2603,70.0,0.0,240.0,10.0,0.0
2604,70.0,0.0,240.0,3.0,0.0
2605,64.0,0.0,60.0,5.0,0.0
2606,70.0,0.0,60.0,4.0,0.0
2607,61.0,0.0,60.0,6.0,0.0
2608,64.0,0.0,60.0,5.0,0.0
2609,70.0,60.0,60.0,4.0,0.0
2610,61.0,0.0,60.0,6.0,0.0
2611,61.0,0.0,60.0,6.0,0.0
2612,70.0,0.0,60.0,4.0,0.0
2613,64.0,0.0,60.0,5.0,0.0
2614,47.0,0.0,240.0,13.0,0.0
2615,66.0,0.0,240.0,11.0,0.0
2616,47.0,0.0,960.0,3.0,0.0
2617,68.0,0.0,960.0,15.0,0.0
2618,71.0,0.0,960.0,15.0,0.0
2619,66.0,0.0,960.0,0.0,0.0
2620,47.0,0.0,120.0,15.0,0.0
2621,47.0,0.0,120.0,7.0,0.0
2622,62.0,120.0,960.0,3.0,0.0
2623,35.0,0.0,120.0,8.0,0.0
2624,59.0,0.0,240.0,12.0,0.0
2625,71.0,0.0,960.0,3.0,0.0
2626,62.0,0.0,960.0,1.0,0.0
2627,59.0,0.0,960.0,1.0,0.0
2628,63.0,0.0,960.0,15.0,0.0
2629,71.0,0.0,960.0,0.0,0.0
2630,71.0,0.0,60.0,4.0,0.0
2631,62.0,0.0,60.0,5.0,0.0
2632,59.0,60.0,60.0,6.0,0.0
2633,62.0,0.0,60.0,5.0,0.0
2634,71.0,60.0,60.0,4.0,0.0
2635,59.0,0.0,60.0,6.0,0.0
2636,62.0,120.0,60.0,5.0,0.0
2637,59.0,0.0,60.0,6.0,0.0
2638,71.0,0.0,60.0,4.0,0.0
2639,59.0,0.0,120.0,7.0,0.0
2640,59.0,0.0,120.0,15.0,0.0
2641,47.0,60.0,120.0,8.0,0.0
2642,74.0,0.0,60.0,4.0,0.0
2643,66.0,0.0,60.0,6.0,0.0
2644,71.0,0.0,60.0,5.0,0.0
2645,66.0,0.0,60.0,6.0,0.0
2646,74.0,60.0,60.0,4.0,0.0
2647,71.0,0.0,60.0,5.0,0.0
2648,66.0,0.0,60.0,6.0,0.0
2649,71.0,0.0,60.0,5.0,0.0
2650,74.0,120.0,60.0,4.0,0.0
2651,59.0,0.0,120.0,7.0,0.0
2652,47.0,0.0,120.0,8.0,0.0
2653,59.0,0.0,120.0,15.0,0.0
2654,74.0,0.0,60.0,5.0,0.0
2655,71.0,0.0,60.0,6.0,0.0
2656,78.0,60.0,60.0,4.0,0.0
2657,71.0,0.0,60.0,6.0,0.0
2658,74.0,0.0,60.0,5.0,0.0
2659,78.0,60.0,60.0,4.0,0.0
2660,78.0,0.0,60.0,4.0,0.0
2661,71.0,120.0,60.0,6.0,0.0
2662,74.0,0.0,60.0,5.0,0.0
2663,47.0,0.0,120.0,8.0,0.0
2664,59.0,0.0,120.0,7.0,0.0
2665,59.0,0.0,120.0,15.0,0.0
2666,74.0,0.0,60.0,6.0,0.0
2667,83.0,0.0,60.0,4.0,0.0
2668,78.0,60.0,60.0,5.0,0.0
2669,78.0,0.0,60.0,5.0,0.0
2670,74.0,0.0,60.0,6.0,0.0
2671,83.0,60.0,60.0,4.0,0.0
2672,74.0,0.0,60.0,6.0,0.0
2673,78.0,0.0,60.0,5.0,0.0
2674,83.0,0.0,60.0,4.0,0.0
2675,53.0,0.0,960.0,1.0,0.0
2676,41.0,0.0,120.0,8.0,0.0
2677,71.0,0.0,960.0,15.0,0.0
2678,68.0,0.0,960.0,15.0,0.0
2679,62.0,0.0,960.0,1.0,0.0
2680,53.0,0.0,720.0,13.0,0.0
2681,53.0,60.0,120.0,7.0,0.0
2682,53.0,0.0,960.0,3.0,0.0
2683,53.0,0.0,120.0,15.0,0.0
2684,71.0,0.0,960.0,0.0,0.0
2685,68.0,0.0,960.0,0.0,0.0
2686,68.0,0.0,960.0,3.0,0.0
2687,62.0,0.0,960.0,15.0,0.0
2688,65.0,0.0,960.0,15.0,0.0
2689,62.0,0.0,960.0,3.0,0.0
2690,68.0,0.0,60.0,6.0,0.0
2691,86.0,0.0,60.0,4.0,0.0
2692,83.0,0.0,60.0,5.0,0.0
2693,86.0,0.0,60.0,4.0,0.0
2694,68.0,0.0,60.0,6.0,0.0
2695,83.0,60.0,60.0,5.0,0.0
2696,68.0,120.0,60.0,6.0,0.0
2697,83.0,0.0,60.0,5.0,0.0
2698,86.0,0.0,60.0,4.0,0.0
2699,41.0,0.0,120.0,8.0,0.0
2700,53.0,0.0,120.0,15.0,0.0
2701,53.0,0.0,120.0,7.0,0.0
2702,80.0,60.0,60.0,5.0,0.0
2703,83.0,0.0,60.0,4.0,0.0
2704,74.0,0.0,60.0,6.0,0.0
2705,74.0,60.0,60.0,6.0,0.0
2706,83.0,0.0,60.0,4.0,0.0
2707,80.0,0.0,60.0,5.0,0.0
2708,83.0,120.0,60.0,4.0,0.0
2709,80.0,0.0,60.0,5.0,0.0
2710,74.0,0.0,60.0,6.0,0.0
2711,71.0,120.0,240.0,10.0,0.0
2712,41.0,60.0,120.0,8.0,0.0
2713,68.0,0.0,240.0,11.0,0.0
2714,62.0,0.0,240.0,12.0,0.0
2715,53.0,0.0,120.0,7.0,0.0
2716,53.0,0.0,120.0,15.0,0.0
2717,80.0,0.0,60.0,4.0,0.0
2718,71.0,0.0,60.0,6.0,0.0
2719,74.0,0.0,60.0,5.0,0.0
2720,80.0,0.0,60.0,4.0,0.0
2721,71.0,60.0,60.0,6.0,0.0
2722,74.0,0.0,60.0,5.0,0.0
2723,74.0,0.0,60.0,5.0,0.0
2724,71.0,0.0,60.0,6.0,0.0
2725,80.0,0.0,60.0,4.0,0.0
2726,62.0,0.0,240.0,12.0,0.0
2727,53.0,0.0,240.0,13.0,0.0
2728,53.0,0.0,120.0,15.0,0.0
2729,41.0,0.0,120.0,8.0,0.0
2730,68.0,120.0,240.0,11.0,0.0
2731,53.0,0.0,120.0,7.0,0.0
2732,71.0,0.0,240.0,10.0,0.0
2733,74.0,0.0,60.0,4.0,0.0
2734,71.0,60.0,60.0,5.0,0.0
2735,68.0,0.0,60.0,6.0,0.0
2736,71.0,60.0,60.0,5.0,0.0
2737,74.0,0.0,60.0,4.0,0.0
2738,68.0,0.0,60.0,6.0,0.0
2739,71.0,0.0,60.0,5.0,0.0
2740,74.0,0.0,60.0,4.0,0.0
2741,68.0,0.0,60.0,6.0,0.0
2742,69.0,0.0,480.0,3.0,0.0
2743,63.0,0.0,480.0,1.0,0.0
2744,53.0,0.0,120.0,15.0,0.0
2745,69.0,0.0,480.0,11.0,0.0
2746,69.0,0.0,480.0,15.0,0.0
2747,41.0,60.0,120.0,8.0,0.0
2748,53.0,0.0,960.0,3.0,0.0
2749,72.0,0.0,480.0,15.0,0.0
2750,63.0,0.0,480.0,15.0,0.0
2751,65.0,120.0,960.0,15.0,0.0
2752,72.0,0.0,480.0,10.0,0.0
2753,63.0,0.0,480.0,3.0,0.0
2754,72.0,0.0,480.0,0.0,0.0
2755,69.0,120.0,480.0,0.0,0.0
2756,53.0,0.0,120.0,7.0,0.0
2757,53.0,0.0,960.0,1.0,0.0
2758,63.0,0.0,480.0,12.0,0.0
2759,53.0,0.0,720.0,13.0,0.0
2760,60.0,0.0,60.0,6.0,0.0
2761,69.0,0.0,60.0,5.0,0.0
2762,75.0,0.0,60.0,4.0,0.0
2763,60.0,0.0,60.0,6.0,0.0
2764,69.0,60.0,60.0,5.0,0.0
2765,75.0,0.0,60.0,4.0,0.0
2766,75.0,0.0,60.0,4.0,0.0
2767,60.0,120.0,60.0,6.0,0.0
2768,69.0,0.0,60.0,5.0,0.0
2769,53.0,0.0,120.0,15.0,0.0
2770,53.0,0.0,120.0,7.0,0.0
2771,41.0,60.0,120.0,8.0,0.0
2772,63.0,0.0,60.0,5.0,0.0
2773,60.0,0.0,60.0,6.0,0.0
2774,69.0,0.0,60.0,4.0,0.0
2775,60.0,0.0,60.0,6.0,0.0
2776,69.0,0.0,60.0,4.0,0.0
2777,63.0,60.0,60.0,5.0,0.0
2778,69.0,0.0,60.0,4.0,0.0
2779,60.0,0.0,60.0,6.0,0.0
2780,63.0,0.0,60.0,5.0,0.0
2781,53.0,0.0,120.0,15.0,0.0
2782,61.0,0.0,480.0,3.0,0.0
2783,70.0,0.0,240.0,10.0,0.0
2784,70.0,0.0,480.0,15.0,0.0
2785,65.0,0.0,480.0,0.0,0.0
2786,61.0,0.0,480.0,1.0,0.0
2787,61.0,0.0,240.0,12.0,0.0
2788,53.0,0.0,120.0,7.0,0.0
2789,70.0,0.0,480.0,0.0,0.0
2790,61.0,0.0,480.0,15.0,0.0
2791,70.0,0.0,480.0,3.0,0.0
2792,41.0,0.0,120.0,8.0,0.0
2793,70.0,0.0,240.0,11.0,0.0
2794,58.0,60.0,60.0,6.0,0.0
2795,70.0,0.0,60.0,4.0,0.0
2796,61.0,0.0,60.0,5.0,0.0
2797,58.0,0.0,60.0,6.0,0.0
2798,70.0,0.0,60.0,4.0,0.0
2799,61.0,60.0,60.0,5.0,0.0
2800,61.0,120.0,60.0,5.0,0.0
2801,70.0,0.0,60.0,4.0,0.0
2802,58.0,0.0,60.0,6.0,0.0
2803,53.0,0.0,120.0,15.0,0.0
2804,41.0,0.0,120.0,8.0,0.0
2805,53.0,0.0,120.0,7.0,0.0
2806,53.0,0.0,240.0,13.0,0.0
2807,77.0,0.0,60.0,5.0,0.0
2808,82.0,0.0,60.0,4.0,0.0
2809,73.0,60.0,60.0,6.0,0.0
2810,73.0,0.0,60.0,6.0,0.0
2811,82.0,0.0,60.0,4.0,0.0
2812,77.0,60.0,60.0,5.0,0.0
2813,73.0,0.0,60.0,6.0,0.0
2814,82.0,0.0,60.0,4.0,0.0
2815,77.0,0.0,60.0,5.0,0.0
2816,61.0,0.0,960.0,1.0,0.0
2817,52.0,0.0,960.0,1.0,0.0
2818,52.0,0.0,720.0,13.0,0.0
2819,67.0,0.0,960.0,0.0,0.0
2820,67.0,120.0,960.0,3.0,0.0
2821,70.0,0.0,960.0,0.0,0.0
2822,52.0,0.0,960.0,3.0,0.0
2823,52.0,60.0,120.0,7.0,0.0
2824,61.0,0.0,960.0,3.0,0.0
2825,67.0,0.0,960.0,15.0,0.0
2826,70.0,0.0,960.0,15.0,0.0
2827,61.0,0.0,960.0,15.0,0.0
2828,64.0,0.0,960.0,15.0,0.0
2829,52.0,0.0,120.0,15.0,0.0
2830,40.0,0.0,120.0,8.0,0.0
2831,79.0,0.0,60.0,6.0,0.0
2832,82.0,0.0,60.0,5.0,0.0
2833,85.0,0.0,60.0,4.0,0.0
2834,82.0,60.0,60.0,5.0,0.0
2835,79.0,0.0,60.0,6.0,0.0
2836,85.0,0.0,60.0,4.0,0.0
2837,85.0,120.0,60.0,4.0,0.0
2838,82.0,0.0,60.0,5.0,0.0
2839,79.0,0.0,60.0,6.0,0.0
2840,40.0,0.0,120.0,8.0,0.0
2841,52.0,60.0,120.0,7.0,0.0
2842,52.0,0.0,120.0,15.0,0.0
2843,79.0,0.0,60.0,5.0,0.0
2844,73.0,0.0,60.0,6.0,0.0
2845,82.0,0.0,60.0,4.0,0.0
2846,79.0,0.0,60.0,5.0,0.0
2847,73.0,0.0,60.0,6.0,0.0
2848,82.0,60.0,60.0,4.0,0.0
2849,79.0,0.0,60.0,5.0,0.0
2850,73.0,0.0,60.0,6.0,0.0
2851,82.0,120.0,60.0,4.0,0.0
2852,67.0,0.0,240.0,11.0,0.0
2853,70.0,0.0,240.0,10.0,0.0
2854,40.0,0.0,120.0,8.0,0.0
2855,52.0,0.0,120.0,7.0,0.0
2856,61.0,120.0,240.0,12.0,0.0
2857,52.0,0.0,120.0,15.0,0.0
2858,70.0,0.0,60.0,6.0,0.0
2859,73.0,0.0,60.0,5.0,0.0
2860,79.0,60.0,60.0,4.0,0.0
2861,79.0,0.0,60.0,4.0,0.0
2862,70.0,60.0,60.0,6.0,0.0
2863,73.0,0.0,60.0,5.0,0.0
2864,73.0,0.0,60.0,5.0,0.0
2865,70.0,0.0,60.0,6.0,0.0
2866,79.0,0.0,60.0,4.0,0.0
2867,70.0,0.0,240.0,10.0,0.0
2868,52.0,0.0,120.0,7.0,0.0
2869,40.0,0.0,120.0,8.0,0.0
2870,52.0,60.0,120.0,15.0,0.0
2871,61.0,0.0,240.0,12.0,0.0
2872,67.0,0.0,240.0,11.0,0.0
2873,52.0,0.0,240.0,13.0,0.0
2874,70.0,0.0,60.0,5.0,0.0
2875,73.0,0.0,60.0,4.0,0.0
2876,67.0,0.0,60.0,6.0,0.0
2877,70.0,60.0,60.0,5.0,0.0
2878,73.0,0.0,60.0,4.0,0.0
2879,67.0,0.0,60.0,6.0,0.0
2880,73.0,0.0,60.0,4.0,0.0
2881,70.0,0.0,60.0,5.0,0.0
2882,67.0,0.0,60.0,6.0,0.0
2883,52.0,0.0,120.0,7.0,0.0
2884,62.0,0.0,240.0,12.0,0.0
2885,52.0,0.0,120.0,15.0,0.0
2886,68.0,0.0,480.0,15.0,0.0
2887,71.0,0.0,480.0,15.0,0.0
2888,62.0,0.0,480.0,15.0,0.0
2889,64.0,0.0,480.0,15.0,0.0
2890,40.0,0.0,120.0,8.0,0.0
2891,71.0,0.0,480.0,0.0,0.0
2892,71.0,0.0,240.0,10.0,0.0
2893,52.0,0.0,480.0,13.0,0.0
2894,68.0,0.0,240.0,11.0,0.0
2895,68.0,0.0,480.0,0.0,0.0
2896,62.0,0.0,480.0,3.0,0.0
2897,62.0,0.0,480.0,1.0,0.0
2898,52.0,0.0,480.0,1.0,0.0
2899,68.0,0.0,480.0,3.0,0.0
2900,52.0,0.0,960.0,3.0,0.0
2901,71.0,0.0,60.0,5.0,0.0
2902,74.0,0.0,60.0,4.0,0.0
2903,68.0,60.0,60.0,6.0,0.0
2904,74.0,0.0,60.0,4.0,0.0
2905,68.0,60.0,60.0,6.0,0.0
2906,71.0,0.0,60.0,5.0,0.0
2907,74.0,0.0,60.0,4.0,0.0
2908,68.0,120.0,60.0,6.0,0.0
2909,71.0,0.0,60.0,5.0,0.0
2910,62.0,0.0,240.0,12.0,0.0
2911,52.0,60.0,120.0,15.0,0.0
2912,40.0,0.0,120.0,8.0,0.0
2913,52.0,0.0,120.0,7.0,0.0
2914,71.0,120.0,240.0,10.0,0.0
2915,68.0,0.0,240.0,11.0,0.0
2916,68.0,0.0,60.0,4.0,0.0
2917,59.0,0.0,60.0,6.0,0.0
2918,62.0,0.0,60.0,5.0,0.0
2919,62.0,0.0,60.0,5.0,0.0
2920,59.0,0.0,60.0,6.0,0.0
2921,68.0,60.0,60.0,4.0,0.0
2922,62.0,0.0,60.0,5.0,0.0
2923,68.0,0.0,60.0,4.0,0.0
2924,59.0,0.0,60.0,6.0,0.0
2925,52.0,0.0,480.0,1.0,0.0
2926,64.0,0.0,480.0,15.0,0.0
2927,60.0,0.0,480.0,15.0,0.0
2928,40.0,60.0,120.0,8.0,0.0
2929,60.0,0.0,480.0,1.0,0.0
2930,60.0,0.0,480.0,3.0,0.0
2931,69.0,0.0,240.0,0.0,0.0
2932,52.0,0.0,120.0,15.0,0.0
2933,69.0,0.0,480.0,15.0,0.0
2934,52.0,0.0,120.0,7.0,0.0
2935,69.0,0.0,960.0,3.0,0.0
2936,52.0,0.0,480.0,13.0,0.0
2937,60.0,120.0,240.0,12.0,0.0
2938,69.0,0.0,240.0,10.0,0.0
2939,69.0,0.0,240.0,11.0,0.0
2940,69.0,0.0,60.0,4.0,0.0
2941,60.0,0.0,60.0,5.0,0.0
2942,64.0,0.0,60.0,6.0,0.0
2943,69.0,0.0,60.0,4.0,0.0
2944,64.0,0.0,60.0,6.0,0.0
2945,60.0,60.0,60.0,5.0,0.0
2946,64.0,0.0,60.0,6.0,0.0
2947,69.0,0.0,60.0,4.0,0.0
2948,60.0,0.0,60.0,5.0,0.0
2949,69.0,0.0,240.0,10.0,0.0
2950,52.0,0.0,120.0,15.0,0.0
2951,64.0,0.0,240.0,11.0,0.0
2952,64.0,0.0,240.0,0.0,0.0
2953,52.0,0.0,120.0,7.0,0.0
2954,40.0,0.0,120.0,8.0,0.0
2955,60.0,0.0,240.0,12.0,0.0
2956,64.0,0.0,60.0,5.0,0.0
2957,57.0,60.0,60.0,6.0,0.0
2958,72.0,0.0,60.0,4.0,0.0
2959,72.0,0.0,60.0,4.0,0.0
2960,64.0,0.0,60.0,5.0,0.0
2961,57.0,60.0,60.0,6.0,0.0
2962,57.0,0.0,60.0,6.0,0.0
2963,64.0,0.0,60.0,5.0,0.0
2964,72.0,120.0,60.0,4.0,0.0
2965,40.0,60.0,120.0,8.0,0.0
2966,64.0,0.0,960.0,11.0,0.0
2967,59.0,0.0,960.0,3.0,0.0
2968,64.0,0.0,960.0,0.0,0.0
2969,52.0,0.0,120.0,7.0,0.0
2970,66.0,0.0,960.0,15.0,0.0
2971,59.0,0.0,960.0,15.0,0.0
2972,69.0,0.0,480.0,10.0,0.0
2973,52.0,0.0,120.0,15.0,0.0
2974,59.0,0.0,960.0,1.0,0.0
2975,52.0,0.0,960.0,1.0,0.0
2976,52.0,0.0,960.0,13.0,0.0
2977,52.0,0.0,960.0,3.0,0.0
2978,59.0,0.0,960.0,12.0,0.0
2979,69.0,0.0,480.0,15.0,0.0
2980,64.0,0.0,60.0,5.0,0.0
2981,59.0,0.0,60.0,6.0,0.0
2982,69.0,0.0,60.0,4.0,0.0
2983,59.0,0.0,60.0,6.0,0.0
2984,64.0,60.0,60.0,5.0,0.0
2985,69.0,0.0,60.0,4.0,0.0
2986,69.0,0.0,60.0,4.0,0.0
2987,59.0,0.0,60.0,6.0,0.0
2988,64.0,120.0,60.0,5.0,0.0
2989,52.0,0.0,120.0,7.0,0.0
2990,40.0,0.0,120.0,8.0,0.0
2991,52.0,60.0,120.0,15.0,0.0
2992,71.0,0.0,60.0,4.0,0.0
2993,62.0,0.0,60.0,6.0,0.0
2994,64.0,0.0,60.0,5.0,0.0
2995,64.0,0.0,60.0,5.0,0.0
2996,71.0,60.0,60.0,4.0,0.0
2997,62.0,0.0,60.0,6.0,0.0
2998,62.0,0.0,60.0,6.0,0.0
2999,64.0,0.0,60.0,5.0,0.0
3000,71.0,120.0,60.0,4.0,0.0
3001,68.0,0.0,480.0,15.0,0.0
3002,52.0,0.0,120.0,15.0,0.0
3003,52.0,60.0,120.0,7.0,0.0
3004,68.0,0.0,480.0,10.0,0.0
3005,68.0,0.0,480.0,0.0,0.0
3006,68.0,0.0,480.0,3.0,0.0
3007,40.0,0.0,120.0,8.0,0.0
3008,59.0,0.0,60.0,6.0,0.0
3009,68.0,0.0,60.0,4.0,0.0
3010,64.0,0.0,60.0,5.0,0.0
3011,68.0,0.0,60.0,4.0,0.0
3012,59.0,0.0,60.0,6.0,0.0
3013,64.0,60.0,60.0,5.0,0.0
3014,64.0,0.0,60.0,5.0,0.0
3015,59.0,120.0,60.0,6.0,0.0
3016,68.0,0.0,60.0,4.0,0.0
3017,52.0,0.0,120.0,7.0,0.0
3018,62.0,120.0,240.0,15.0,0.0
3019,40.0,0.0,120.0,8.0,0.0
3020,52.0,60.0,120.0,15.0,0.0
3021,56.0,0.0,60.0,6.0,0.0
3022,62.0,0.0,60.0,5.0,0.0
3023,71.0,0.0,60.0,4.0,0.0
3024,71.0,60.0,60.0,4.0,0.0
3025,56.0,0.0,60.0,6.0,0.0
3026,62.0,0.0,60.0,5.0,0.0
3027,62.0,0.0,60.0,5.0,0.0
3028,71.0,0.0,60.0,4.0,0.0
3029,56.0,0.0,60.0,6.0,0.0
3030,45.0,0.0,120.0,15.0,0.0
3031,45.0,0.0,240.0,13.0,0.0
3032,61.0,0.0,1200.0,1.0,0.0
3033,57.0,0.0,1200.0,1.0,0.0
3034,45.0,0.0,1200.0,3.0,0.0
3035,61.0,0.0,240.0,15.0,0.0
3036,69.0,0.0,240.0,15.0,0.0
3037,69.0,0.0,1200.0,3.0,0.0
3038,45.0,60.0,120.0,7.0,0.0
3039,69.0,0.0,1200.0,0.0,0.0
3040,64.0,120.0,240.0,11.0,0.0
3041,33.0,0.0,120.0,8.0,0.0
3042,61.0,0.0,1200.0,3.0,0.0
3043,64.0,0.0,1200.0,0.0,0.0
3044,64.0,0.0,240.0,15.0,0.0
3045,57.0,0.0,240.0,12.0,0.0
3046,69.0,0.0,240.0,10.0,0.0
3047,61.0,0.0,60.0,5.0,0.0
3048,57.0,0.0,60.0,6.0,0.0
3049,69.0,0.0,60.0,4.0,0.0
3050,61.0,60.0,60.0,5.0,0.0
3051,57.0,0.0,60.0,6.0,0.0
3052,69.0,0.0,60.0,4.0,0.0
3053,57.0,0.0,60.0,6.0,0.0
3054,61.0,0.0,60.0,5.0,0.0
3055,69.0,0.0,60.0,4.0,0.0
3056,45.0,0.0,120.0,7.0,0.0
3057,45.0,0.0,120.0,15.0,0.0
3058,33.0,60.0,120.0,8.0,0.0
3059,61.0,0.0,60.0,5.0,0.0
3060,57.0,0.0,60.0,6.0,0.0
3061,64.0,0.0,60.0,4.0,0.0
3062,64.0,60.0,60.0,4.0,0.0
3063,61.0,0.0,60.0,5.0,0.0
3064,57.0,0.0,60.0,6.0,0.0
3065,61.0,120.0,60.0,5.0,0.0
3066,57.0,0.0,60.0,6.0,0.0
3067,64.0,0.0,60.0,4.0,0.0
3068,45.0,0.0,120.0,15.0,0.0
3069,33.0,0.0,120.0,8.0,0.0
3070,45.0,0.0,120.0,7.0,0.0
3071,57.0,0.0,60.0,6.0,0.0
3072,69.0,0.0,60.0,4.0,0.0
3073,61.0,60.0,60.0,5.0,0.0
3074,61.0,0.0,60.0,5.0,0.0
3075,69.0,60.0,60.0,4.0,0.0
3076,57.0,0.0,60.0,6.0,0.0
3077,57.0,0.0,60.0,6.0,0.0
3078,61.0,0.0,60.0,5.0,0.0
3079,69.0,120.0,60.0,4.0,0.0
3080,45.0,0.0,120.0,15.0,0.0
3081,45.0,0.0,120.0,7.0,0.0
3082,33.0,60.0,120.0,8.0,0.0
3083,57.0,0.0,60.0,6.0,0.0
3084,64.0,0.0,60.0,4.0,0.0
3085,61.0,0.0,60.0,5.0,0.0
3086,64.0,0.0,60.0,4.0,0.0
3087,61.0,0.0,60.0,5.0,0.0
3088,57.0,60.0,60.0,6.0,0.0
3089,57.0,240.0,60.0,6.0,0.0
3090,64.0,0.0,60.0,4.0,0.0
3091,61.0,0.0,60.0,5.0,0.0
3092,45.0,0.0,240.0,7.0,0.0
3093,69.0,0.0,240.0,4.0,0.0
3094,45.0,0.0,240.0,15.0,0.0
3095,57.0,0.0,240.0,6.0,0.0
3096,33.0,0.0,240.0,8.0,0.0
3097,61.0,480.0,240.0,5.0,0.0
3098,61.0,0.0,240.0,6.0,0.0
3099,56.0,0.0,240.0,7.0,0.0
3100,59.0,0.0,240.0,5.0,0.0
3101,56.0,0.0,240.0,15.0,0.0
3102,65.0,0.0,240.0,4.0,0.0
3103,44.0,241.0,240.0,8.0,0.0
