,note,step,duration,channel,velocity
0,61.0,90.0,240.0,5.0,0.0
1,73.0,150.0,90.0,2.0,0.0
2,37.0,0.0,480.0,6.0,0.0
3,61.0,0.0,120.0,2.0,0.0
4,49.0,0.0,240.0,6.0,0.0
5,65.0,60.0,240.0,3.0,0.0
6,56.0,0.0,240.0,5.0,0.0
7,73.0,60.0,30.0,2.0,0.0
8,73.0,60.0,30.0,2.0,0.0
9,73.0,30.0,30.0,2.0,0.0
10,53.0,0.0,240.0,5.0,0.0
11,41.0,60.0,240.0,6.0,0.0
12,72.0,30.0,60.0,2.0,0.0
13,68.0,0.0,240.0,3.0,0.0
14,73.0,60.0,30.0,2.0,0.0
15,73.0,60.0,30.0,2.0,0.0
16,73.0,30.0,30.0,2.0,0.0
17,58.0,90.0,240.0,5.0,0.0
18,72.0,30.0,60.0,2.0,0.0
19,46.0,0.0,240.0,6.0,0.0
20,65.0,0.0,240.0,3.0,0.0
21,73.0,60.0,30.0,2.0,0.0
22,73.0,60.0,30.0,2.0,0.0
23,73.0,30.0,30.0,2.0,0.0
24,75.0,150.0,90.0,2.0,0.0
25,70.0,0.0,240.0,3.0,0.0
26,54.0,0.0,240.0,5.0,0.0
27,42.0,0.0,240.0,6.0,0.0
28,63.0,90.0,120.0,2.0,0.0
29,55.0,0.0,240.0,5.0,0.0
30,43.0,60.0,240.0,6.0,0.0
31,61.0,0.0,240.0,3.0,0.0
32,75.0,60.0,30.0,2.0,0.0
33,75.0,60.0,30.0,2.0,0.0
34,75.0,30.0,30.0,2.0,0.0
35,60.0,60.0,240.0,3.0,0.0
36,56.0,0.0,720.0,5.0,0.0
37,74.0,30.0,60.0,2.0,0.0
38,44.0,0.0,720.0,6.0,0.0
39,75.0,60.0,30.0,2.0,0.0
40,75.0,60.0,30.0,2.0,0.0
41,75.0,30.0,30.0,2.0,0.0
42,74.0,30.0,60.0,2.0,0.0
43,72.0,90.0,240.0,3.0,0.0
44,75.0,60.0,30.0,2.0,0.0
45,75.0,60.0,30.0,2.0,0.0
46,75.0,30.0,30.0,2.0,0.0
47,75.0,90.0,240.0,3.0,0.0
48,77.0,150.0,90.0,2.0,0.0
49,65.0,0.0,120.0,2.0,0.0
50,57.0,0.0,240.0,5.0,0.0
51,45.0,60.0,240.0,6.0,0.0
52,63.0,0.0,240.0,3.0,0.0
53,77.0,60.0,30.0,2.0,0.0
54,77.0,60.0,30.0,2.0,0.0
55,77.0,30.0,30.0,2.0,0.0
56,58.0,90.0,720.0,5.0,0.0
57,61.0,60.0,240.0,3.0,0.0
58,46.0,0.0,720.0,6.0,0.0
59,76.0,30.0,60.0,2.0,0.0
60,77.0,60.0,30.0,2.0,0.0
61,77.0,60.0,30.0,2.0,0.0
62,77.0,30.0,30.0,2.0,0.0
63,73.0,0.0,480.0,3.0,0.0
64,76.0,30.0,60.0,2.0,0.0
65,77.0,60.0,30.0,2.0,0.0
66,77.0,60.0,30.0,2.0,0.0
67,77.0,120.0,30.0,2.0,0.0
68,78.0,150.0,90.0,2.0,0.0
69,66.0,0.0,120.0,2.0,0.0
70,48.0,120.0,240.0,6.0,0.0
71,75.0,0.0,240.0,3.0,0.0
72,60.0,0.0,240.0,5.0,0.0
73,78.0,60.0,30.0,2.0,0.0
74,78.0,60.0,30.0,2.0,0.0
75,78.0,30.0,30.0,2.0,0.0
76,61.0,0.0,120.0,5.0,0.0
77,49.0,120.0,120.0,6.0,0.0
78,68.0,0.0,120.0,3.0,0.0
79,77.0,0.0,240.0,2.0,0.0
80,73.0,0.0,240.0,3.0,0.0
81,46.0,0.0,120.0,6.0,0.0
82,58.0,45.0,120.0,5.0,0.0
83,70.0,0.0,240.0,4.0,0.0
84,54.0,60.0,120.0,5.0,0.0
85,75.0,15.0,60.0,2.0,0.0
86,42.0,0.0,120.0,6.0,0.0
87,77.0,15.0,15.0,2.0,0.0
88,75.0,15.0,15.0,2.0,0.0
89,77.0,15.0,15.0,2.0,0.0
90,75.0,15.0,15.0,2.0,0.0
91,77.0,0.0,15.0,2.0,0.0
92,44.0,0.0,120.0,6.0,0.0
93,68.0,0.0,60.0,4.0,0.0
94,72.0,30.0,120.0,3.0,0.0
95,56.0,0.0,120.0,5.0,0.0
96,75.0,30.0,60.0,2.0,0.0
97,66.0,0.0,60.0,4.0,0.0
98,73.0,30.0,30.0,2.0,0.0
99,75.0,0.0,30.0,2.0,0.0
100,65.0,30.0,120.0,4.0,0.0
101,49.0,0.0,120.0,5.0,0.0
102,73.0,60.0,30.0,2.0,0.0
103,37.0,0.0,120.0,6.0,0.0
104,61.0,0.0,120.0,3.0,0.0
105,73.0,30.0,30.0,2.0,0.0
106,75.0,60.0,30.0,2.0,0.0
107,77.0,0.0,30.0,2.0,0.0
108,73.0,60.0,30.0,3.0,0.0
109,75.0,0.0,30.0,3.0,0.0
110,78.0,60.0,30.0,2.0,0.0
111,73.0,0.0,30.0,3.0,0.0
112,77.0,60.0,30.0,2.0,0.0
113,75.0,0.0,30.0,3.0,0.0
114,78.0,60.0,30.0,2.0,0.0
115,80.0,0.0,30.0,2.0,0.0
116,72.0,60.0,30.0,3.0,0.0
117,73.0,30.0,120.0,3.0,0.0
118,77.0,60.0,30.0,2.0,0.0
119,73.0,30.0,30.0,2.0,0.0
120,75.0,60.0,30.0,2.0,0.0
121,73.0,60.0,30.0,3.0,0.0
122,77.0,0.0,30.0,2.0,0.0
123,78.0,60.0,30.0,2.0,0.0
124,75.0,0.0,30.0,3.0,0.0
125,73.0,0.0,30.0,3.0,0.0
126,77.0,60.0,30.0,2.0,0.0
127,78.0,60.0,30.0,2.0,0.0
128,75.0,0.0,30.0,3.0,0.0
129,80.0,60.0,30.0,2.0,0.0
130,72.0,0.0,30.0,3.0,0.0
131,77.0,60.0,30.0,2.0,0.0
132,73.0,30.0,120.0,3.0,0.0
133,73.0,30.0,30.0,2.0,0.0
134,75.0,60.0,30.0,2.0,0.0
135,77.0,60.0,30.0,2.0,0.0
136,73.0,0.0,30.0,3.0,0.0
137,75.0,60.0,30.0,3.0,0.0
138,78.0,0.0,30.0,2.0,0.0
139,77.0,0.0,30.0,2.0,0.0
140,73.0,60.0,30.0,3.0,0.0
141,78.0,0.0,30.0,2.0,0.0
142,75.0,60.0,30.0,3.0,0.0
143,77.0,0.0,30.0,3.0,0.0
144,80.0,60.0,30.0,2.0,0.0
145,82.0,60.0,30.0,2.0,0.0
146,78.0,0.0,30.0,3.0,0.0
147,77.0,0.0,30.0,3.0,0.0
148,80.0,60.0,30.0,2.0,0.0
149,78.0,60.0,30.0,2.0,0.0
150,75.0,0.0,30.0,3.0,0.0
151,77.0,0.0,30.0,3.0,0.0
152,80.0,60.0,30.0,2.0,0.0
153,82.0,60.0,30.0,2.0,0.0
154,78.0,0.0,30.0,3.0,0.0
155,77.0,0.0,30.0,3.0,0.0
156,80.0,60.0,30.0,2.0,0.0
157,78.0,0.0,30.0,3.0,0.0
158,82.0,60.0,30.0,2.0,0.0
159,84.0,0.0,30.0,2.0,0.0
160,75.0,120.0,30.0,3.0,0.0
161,85.0,0.0,4800.0,0.0,0.0
162,85.0,150.0,90.0,2.0,0.0
163,77.0,0.0,90.0,3.0,0.0
164,49.0,0.0,4320.0,1.0,0.0
165,73.0,30.0,2880.0,0.0,0.0
166,73.0,90.0,120.0,2.0,0.0
167,61.0,0.0,120.0,3.0,0.0
168,53.0,0.0,90.0,6.0,0.0
169,68.0,0.0,90.0,4.0,0.0
170,65.0,60.0,90.0,5.0,0.0
171,73.0,0.0,30.0,3.0,0.0
172,85.0,0.0,30.0,2.0,0.0
173,85.0,0.0,30.0,2.0,0.0
174,53.0,0.0,120.0,5.0,0.0
175,41.0,60.0,120.0,6.0,0.0
176,73.0,60.0,30.0,3.0,0.0
177,56.0,0.0,120.0,4.0,0.0
178,85.0,0.0,30.0,2.0,0.0
179,73.0,30.0,30.0,3.0,0.0
180,72.0,30.0,60.0,3.0,0.0
181,84.0,0.0,60.0,2.0,0.0
182,53.0,0.0,30.0,6.0,0.0
183,68.0,0.0,30.0,4.0,0.0
184,85.0,0.0,30.0,2.0,0.0
185,73.0,60.0,30.0,3.0,0.0
186,65.0,0.0,30.0,5.0,0.0
187,85.0,60.0,30.0,2.0,0.0
188,73.0,0.0,30.0,3.0,0.0
189,65.0,0.0,30.0,5.0,0.0
190,53.0,0.0,30.0,6.0,0.0
191,68.0,0.0,30.0,4.0,0.0
192,68.0,0.0,30.0,4.0,0.0
193,65.0,90.0,30.0,5.0,0.0
194,73.0,0.0,30.0,3.0,0.0
195,53.0,0.0,30.0,6.0,0.0
196,85.0,0.0,30.0,2.0,0.0
197,72.0,0.0,60.0,3.0,0.0
198,84.0,0.0,60.0,2.0,0.0
199,66.0,30.0,60.0,4.0,0.0
200,51.0,0.0,60.0,6.0,0.0
201,63.0,0.0,60.0,5.0,0.0
202,68.0,0.0,30.0,4.0,0.0
203,73.0,0.0,30.0,3.0,0.0
204,65.0,60.0,30.0,5.0,0.0
205,53.0,0.0,30.0,6.0,0.0
206,85.0,0.0,30.0,2.0,0.0
207,53.0,0.0,30.0,6.0,0.0
208,65.0,0.0,30.0,5.0,0.0
209,85.0,0.0,30.0,2.0,0.0
210,68.0,0.0,30.0,4.0,0.0
211,73.0,60.0,30.0,3.0,0.0
212,85.0,0.0,30.0,2.0,0.0
213,73.0,0.0,30.0,3.0,0.0
214,53.0,0.0,30.0,6.0,0.0
215,65.0,0.0,30.0,5.0,0.0
216,68.0,90.0,30.0,4.0,0.0
217,75.0,0.0,90.0,3.0,0.0
218,87.0,0.0,90.0,2.0,0.0
219,65.0,0.0,60.0,5.0,0.0
220,69.0,30.0,60.0,4.0,0.0
221,53.0,0.0,60.0,6.0,0.0
222,54.0,60.0,30.0,6.0,0.0
223,66.0,0.0,30.0,5.0,0.0
224,70.0,0.0,30.0,4.0,0.0
225,70.0,60.0,30.0,4.0,0.0
226,66.0,0.0,30.0,5.0,0.0
227,54.0,0.0,30.0,6.0,0.0
228,63.0,90.0,120.0,3.0,0.0
229,75.0,0.0,120.0,2.0,0.0
230,54.0,0.0,30.0,6.0,0.0
231,70.0,0.0,30.0,4.0,0.0
232,66.0,30.0,30.0,5.0,0.0
233,54.0,0.0,90.0,6.0,0.0
234,66.0,0.0,90.0,5.0,0.0
235,70.0,0.0,90.0,4.0,0.0
236,87.0,60.0,30.0,2.0,0.0
237,75.0,0.0,30.0,3.0,0.0
238,42.0,60.0,120.0,6.0,0.0
239,75.0,0.0,30.0,3.0,0.0
240,58.0,0.0,120.0,4.0,0.0
241,87.0,60.0,30.0,2.0,0.0
242,54.0,0.0,120.0,5.0,0.0
243,75.0,0.0,30.0,3.0,0.0
244,87.0,30.0,30.0,2.0,0.0
245,86.0,30.0,60.0,2.0,0.0
246,74.0,0.0,60.0,3.0,0.0
247,75.0,60.0,30.0,3.0,0.0
248,70.0,0.0,30.0,4.0,0.0
249,66.0,0.0,30.0,5.0,0.0
250,87.0,0.0,30.0,2.0,0.0
251,54.0,0.0,30.0,6.0,0.0
252,66.0,0.0,30.0,5.0,0.0
253,70.0,0.0,30.0,4.0,0.0
254,87.0,0.0,30.0,2.0,0.0
255,75.0,60.0,30.0,3.0,0.0
256,54.0,0.0,30.0,6.0,0.0
257,70.0,0.0,30.0,4.0,0.0
258,75.0,0.0,30.0,3.0,0.0
259,54.0,0.0,30.0,6.0,0.0
260,87.0,90.0,30.0,2.0,0.0
261,66.0,0.0,30.0,5.0,0.0
262,53.0,0.0,60.0,6.0,0.0
263,65.0,0.0,60.0,5.0,0.0
264,86.0,30.0,60.0,2.0,0.0
265,69.0,0.0,60.0,4.0,0.0
266,74.0,0.0,60.0,3.0,0.0
267,66.0,0.0,30.0,5.0,0.0
268,70.0,0.0,30.0,4.0,0.0
269,54.0,0.0,30.0,6.0,0.0
270,87.0,0.0,30.0,2.0,0.0
271,75.0,60.0,30.0,3.0,0.0
272,87.0,0.0,30.0,2.0,0.0
273,54.0,0.0,30.0,6.0,0.0
274,70.0,60.0,30.0,4.0,0.0
275,66.0,0.0,30.0,5.0,0.0
276,75.0,0.0,30.0,3.0,0.0
277,87.0,0.0,30.0,2.0,0.0
278,75.0,0.0,30.0,3.0,0.0
279,66.0,0.0,30.0,5.0,0.0
280,70.0,90.0,30.0,4.0,0.0
281,54.0,0.0,30.0,6.0,0.0
282,89.0,0.0,90.0,2.0,0.0
283,67.0,0.0,60.0,5.0,0.0
284,55.0,0.0,60.0,6.0,0.0
285,77.0,0.0,90.0,3.0,0.0
286,70.0,30.0,60.0,4.0,0.0
287,71.0,0.0,30.0,4.0,0.0
288,56.0,60.0,30.0,6.0,0.0
289,68.0,0.0,30.0,5.0,0.0
290,77.0,90.0,120.0,2.0,0.0
291,71.0,0.0,30.0,4.0,0.0
292,68.0,60.0,30.0,5.0,0.0
293,56.0,0.0,30.0,6.0,0.0
294,65.0,0.0,120.0,3.0,0.0
295,56.0,0.0,30.0,6.0,0.0
296,71.0,0.0,30.0,4.0,0.0
297,68.0,30.0,30.0,5.0,0.0
298,68.0,0.0,90.0,5.0,0.0
299,56.0,0.0,90.0,6.0,0.0
300,71.0,0.0,90.0,4.0,0.0
301,89.0,60.0,30.0,2.0,0.0
302,77.0,0.0,30.0,3.0,0.0
303,44.0,0.0,120.0,6.0,0.0
304,77.0,0.0,30.0,3.0,0.0
305,56.0,0.0,120.0,5.0,0.0
306,59.0,60.0,120.0,4.0,0.0
307,89.0,60.0,30.0,2.0,0.0
308,89.0,30.0,30.0,2.0,0.0
309,77.0,0.0,30.0,3.0,0.0
310,88.0,0.0,60.0,2.0,0.0
311,76.0,30.0,60.0,3.0,0.0
312,71.0,60.0,30.0,4.0,0.0
313,68.0,0.0,30.0,5.0,0.0
314,77.0,0.0,30.0,3.0,0.0
315,89.0,0.0,30.0,2.0,0.0
316,56.0,0.0,30.0,6.0,0.0
317,77.0,60.0,30.0,3.0,0.0
318,68.0,0.0,30.0,5.0,0.0
319,56.0,0.0,30.0,6.0,0.0
320,71.0,0.0,30.0,4.0,0.0
321,89.0,0.0,30.0,2.0,0.0
322,56.0,0.0,30.0,6.0,0.0
323,71.0,0.0,30.0,4.0,0.0
324,77.0,0.0,30.0,3.0,0.0
325,89.0,0.0,30.0,2.0,0.0
326,68.0,90.0,30.0,5.0,0.0
327,67.0,0.0,60.0,5.0,0.0
328,76.0,30.0,60.0,3.0,0.0
329,55.0,0.0,60.0,6.0,0.0
330,70.0,0.0,60.0,4.0,0.0
331,88.0,0.0,60.0,2.0,0.0
332,89.0,0.0,30.0,2.0,0.0
333,56.0,0.0,30.0,6.0,0.0
334,77.0,0.0,30.0,3.0,0.0
335,71.0,0.0,30.0,4.0,0.0
336,68.0,60.0,30.0,5.0,0.0
337,71.0,0.0,30.0,4.0,0.0
338,68.0,60.0,30.0,5.0,0.0
339,77.0,0.0,30.0,3.0,0.0
340,56.0,0.0,30.0,6.0,0.0
341,89.0,0.0,30.0,2.0,0.0
342,68.0,30.0,30.0,5.0,0.0
343,77.0,0.0,30.0,3.0,0.0
344,56.0,0.0,30.0,6.0,0.0
345,89.0,0.0,30.0,2.0,0.0
346,71.0,0.0,30.0,4.0,0.0
347,58.0,0.0,60.0,6.0,0.0
348,78.0,0.0,240.0,0.0,0.0
349,78.0,30.0,30.0,3.0,0.0
350,66.0,0.0,30.0,4.0,0.0
351,70.0,0.0,60.0,5.0,0.0
352,90.0,0.0,30.0,2.0,0.0
353,85.0,0.0,30.0,3.0,0.0
354,66.0,0.0,30.0,4.0,0.0
355,66.0,0.0,30.0,4.0,0.0
356,85.0,0.0,30.0,3.0,0.0
357,90.0,30.0,15.0,2.0,0.0
358,85.0,0.0,30.0,3.0,0.0
359,66.0,0.0,30.0,4.0,0.0
360,90.0,0.0,30.0,2.0,0.0
361,90.0,30.0,30.0,2.0,0.0
362,58.0,0.0,15.0,5.0,0.0
363,46.0,30.0,15.0,6.0,0.0
364,85.0,0.0,30.0,3.0,0.0
365,66.0,0.0,30.0,4.0,0.0
366,66.0,0.0,30.0,4.0,0.0
367,90.0,0.0,30.0,2.0,0.0
368,85.0,30.0,15.0,3.0,0.0
369,58.0,0.0,15.0,5.0,0.0
370,46.0,0.0,15.0,6.0,0.0
371,90.0,0.0,15.0,2.0,0.0
372,66.0,30.0,15.0,4.0,0.0
373,89.0,0.0,30.0,2.0,0.0
374,77.0,30.0,240.0,0.0,0.0
375,85.0,0.0,15.0,3.0,0.0
376,56.0,0.0,60.0,5.0,0.0
377,44.0,0.0,60.0,6.0,0.0
378,85.0,0.0,30.0,3.0,0.0
379,68.0,30.0,15.0,4.0,0.0
380,68.0,0.0,15.0,4.0,0.0
381,44.0,0.0,60.0,6.0,0.0
382,89.0,30.0,15.0,2.0,0.0
383,85.0,0.0,30.0,3.0,0.0
384,85.0,0.0,30.0,3.0,0.0
385,89.0,30.0,15.0,2.0,0.0
386,85.0,0.0,30.0,3.0,0.0
387,68.0,30.0,15.0,4.0,0.0
388,56.0,0.0,15.0,5.0,0.0
389,44.0,0.0,60.0,6.0,0.0
390,89.0,0.0,15.0,2.0,0.0
391,68.0,0.0,15.0,4.0,0.0
392,89.0,30.0,15.0,2.0,0.0
393,44.0,0.0,60.0,6.0,0.0
394,85.0,30.0,15.0,3.0,0.0
395,56.0,0.0,15.0,5.0,0.0
396,89.0,0.0,15.0,2.0,0.0
397,68.0,0.0,15.0,4.0,0.0
398,89.0,0.0,30.0,2.0,0.0
399,85.0,0.0,30.0,3.0,0.0
400,85.0,30.0,30.0,3.0,0.0
401,75.0,0.0,240.0,0.0,0.0
402,54.0,0.0,60.0,5.0,0.0
403,70.0,0.0,30.0,4.0,0.0
404,87.0,0.0,30.0,2.0,0.0
405,70.0,0.0,30.0,4.0,0.0
406,85.0,0.0,30.0,3.0,0.0
407,70.0,30.0,30.0,4.0,0.0
408,87.0,0.0,15.0,2.0,0.0
409,42.0,30.0,15.0,6.0,0.0
410,85.0,0.0,30.0,3.0,0.0
411,70.0,0.0,30.0,4.0,0.0
412,54.0,0.0,15.0,5.0,0.0
413,85.0,0.0,15.0,3.0,0.0
414,87.0,30.0,15.0,2.0,0.0
415,42.0,0.0,15.0,6.0,0.0
416,70.0,0.0,15.0,4.0,0.0
417,85.0,30.0,15.0,3.0,0.0
418,42.0,0.0,15.0,6.0,0.0
419,70.0,0.0,15.0,4.0,0.0
420,87.0,0.0,15.0,2.0,0.0
421,85.0,30.0,15.0,3.0,0.0
422,54.0,30.0,60.0,5.0,0.0
423,70.0,0.0,30.0,4.0,0.0
424,87.0,0.0,30.0,2.0,0.0
425,77.0,0.0,240.0,0.0,0.0
426,85.0,0.0,15.0,3.0,0.0
427,44.0,30.0,60.0,6.0,0.0
428,68.0,0.0,30.0,4.0,0.0
429,89.0,0.0,15.0,2.0,0.0
430,85.0,30.0,15.0,3.0,0.0
431,68.0,0.0,15.0,4.0,0.0
432,56.0,0.0,15.0,5.0,0.0
433,44.0,0.0,60.0,6.0,0.0
434,68.0,0.0,15.0,4.0,0.0
435,85.0,0.0,15.0,3.0,0.0
436,89.0,30.0,15.0,2.0,0.0
437,85.0,0.0,15.0,3.0,0.0
438,56.0,0.0,15.0,5.0,0.0
439,89.0,30.0,15.0,2.0,0.0
440,68.0,0.0,15.0,4.0,0.0
441,85.0,30.0,15.0,3.0,0.0
442,89.0,0.0,30.0,2.0,0.0
443,89.0,0.0,30.0,2.0,0.0
444,44.0,0.0,15.0,6.0,0.0
445,85.0,30.0,15.0,3.0,0.0
446,56.0,0.0,60.0,5.0,0.0
447,68.0,0.0,15.0,4.0,0.0
448,85.0,30.0,15.0,3.0,0.0
449,89.0,0.0,30.0,2.0,0.0
450,90.0,0.0,30.0,2.0,0.0
451,46.0,30.0,60.0,6.0,0.0
452,78.0,30.0,240.0,0.0,0.0
453,66.0,0.0,15.0,4.0,0.0
454,85.0,30.0,15.0,3.0,0.0
455,90.0,0.0,30.0,2.0,0.0
456,58.0,0.0,15.0,5.0,0.0
457,85.0,0.0,30.0,3.0,0.0
458,66.0,0.0,15.0,4.0,0.0
459,90.0,30.0,15.0,2.0,0.0
460,85.0,0.0,30.0,3.0,0.0
461,90.0,0.0,15.0,2.0,0.0
462,66.0,30.0,15.0,4.0,0.0
463,46.0,0.0,15.0,6.0,0.0
464,58.0,0.0,15.0,5.0,0.0
465,85.0,30.0,30.0,3.0,0.0
466,66.0,0.0,30.0,4.0,0.0
467,90.0,0.0,15.0,2.0,0.0
468,85.0,0.0,30.0,3.0,0.0
469,90.0,0.0,15.0,2.0,0.0
470,46.0,0.0,15.0,6.0,0.0
471,66.0,0.0,30.0,4.0,0.0
472,58.0,0.0,60.0,5.0,0.0
473,90.0,0.0,30.0,2.0,0.0
474,66.0,0.0,30.0,4.0,0.0
475,85.0,30.0,15.0,3.0,0.0
476,89.0,30.0,30.0,2.0,0.0
477,85.0,0.0,15.0,3.0,0.0
478,77.0,0.0,240.0,0.0,0.0
479,56.0,0.0,60.0,5.0,0.0
480,68.0,0.0,15.0,4.0,0.0
481,85.0,0.0,30.0,3.0,0.0
482,56.0,0.0,60.0,5.0,0.0
483,44.0,30.0,15.0,6.0,0.0
484,68.0,0.0,15.0,4.0,0.0
485,89.0,0.0,15.0,2.0,0.0
486,89.0,0.0,15.0,2.0,0.0
487,68.0,0.0,30.0,4.0,0.0
488,85.0,30.0,15.0,3.0,0.0
489,85.0,30.0,30.0,3.0,0.0
490,56.0,0.0,60.0,5.0,0.0
491,89.0,0.0,15.0,2.0,0.0
492,44.0,30.0,15.0,6.0,0.0
493,89.0,0.0,15.0,2.0,0.0
494,68.0,0.0,15.0,4.0,0.0
495,85.0,30.0,30.0,3.0,0.0
496,56.0,0.0,60.0,5.0,0.0
497,44.0,0.0,15.0,6.0,0.0
498,68.0,0.0,30.0,4.0,0.0
499,85.0,0.0,30.0,3.0,0.0
500,89.0,30.0,15.0,2.0,0.0
501,68.0,0.0,30.0,4.0,0.0
502,85.0,30.0,30.0,3.0,0.0
503,82.0,0.0,480.0,0.0,0.0
504,63.0,0.0,480.0,1.0,0.0
505,61.0,0.0,15.0,1.0,0.0
506,54.0,0.0,60.0,5.0,0.0
507,87.0,0.0,15.0,2.0,0.0
508,70.0,0.0,15.0,4.0,0.0
509,85.0,30.0,15.0,3.0,0.0
510,70.0,0.0,30.0,4.0,0.0
511,85.0,0.0,15.0,3.0,0.0
512,42.0,30.0,15.0,6.0,0.0
513,87.0,0.0,15.0,2.0,0.0
514,87.0,0.0,15.0,2.0,0.0
515,85.0,30.0,15.0,3.0,0.0
516,70.0,0.0,30.0,4.0,0.0
517,87.0,30.0,15.0,2.0,0.0
518,70.0,0.0,30.0,4.0,0.0
519,54.0,0.0,15.0,5.0,0.0
520,42.0,0.0,15.0,6.0,0.0
521,85.0,30.0,15.0,3.0,0.0
522,85.0,0.0,15.0,3.0,0.0
523,87.0,0.0,15.0,2.0,0.0
524,42.0,0.0,15.0,6.0,0.0
525,54.0,0.0,15.0,5.0,0.0
526,70.0,30.0,15.0,4.0,0.0
527,87.0,0.0,30.0,2.0,0.0
528,70.0,0.0,30.0,4.0,0.0
529,87.0,0.0,30.0,2.0,0.0
530,85.0,0.0,15.0,3.0,0.0
531,55.0,0.0,60.0,5.0,0.0
532,70.0,0.0,30.0,4.0,0.0
533,85.0,30.0,15.0,3.0,0.0
534,87.0,0.0,15.0,2.0,0.0
535,70.0,30.0,15.0,4.0,0.0
536,43.0,0.0,15.0,6.0,0.0
537,55.0,0.0,60.0,5.0,0.0
538,85.0,0.0,30.0,3.0,0.0
539,70.0,0.0,15.0,4.0,0.0
540,87.0,0.0,15.0,2.0,0.0
541,85.0,30.0,15.0,3.0,0.0
542,43.0,0.0,15.0,6.0,0.0
543,70.0,0.0,15.0,4.0,0.0
544,85.0,30.0,15.0,3.0,0.0
545,87.0,0.0,30.0,2.0,0.0
546,55.0,30.0,15.0,5.0,0.0
547,85.0,0.0,15.0,3.0,0.0
548,43.0,0.0,60.0,6.0,0.0
549,70.0,30.0,30.0,4.0,0.0
550,87.0,0.0,15.0,2.0,0.0
551,85.0,0.0,15.0,3.0,0.0
552,70.0,0.0,30.0,4.0,0.0
553,68.0,30.0,30.0,4.0,0.0
554,87.0,0.0,15.0,2.0,0.0
555,44.0,0.0,60.0,6.0,0.0
556,84.0,0.0,60.0,3.0,0.0
557,63.0,30.0,120.0,1.0,0.0
558,56.0,30.0,60.0,5.0,0.0
559,84.0,0.0,120.0,0.0,0.0
560,80.0,0.0,120.0,0.0,0.0
561,56.0,0.0,120.0,1.0,0.0
562,68.0,30.0,30.0,4.0,0.0
563,84.0,0.0,60.0,3.0,0.0
564,80.0,30.0,60.0,2.0,0.0
565,68.0,30.0,30.0,4.0,0.0
566,68.0,60.0,30.0,4.0,0.0
567,68.0,30.0,30.0,4.0,0.0
568,72.0,30.0,60.0,3.0,0.0
569,75.0,0.0,60.0,2.0,0.0
570,68.0,60.0,30.0,4.0,0.0
571,75.0,0.0,60.0,3.0,0.0
572,78.0,30.0,60.0,2.0,0.0
573,68.0,30.0,30.0,4.0,0.0
574,68.0,60.0,30.0,4.0,0.0
575,73.0,0.0,60.0,3.0,0.0
576,77.0,30.0,60.0,2.0,0.0
577,68.0,30.0,30.0,4.0,0.0
578,68.0,60.0,30.0,4.0,0.0
579,80.0,30.0,60.0,2.0,0.0
580,68.0,30.0,30.0,4.0,0.0
581,77.0,0.0,60.0,3.0,0.0
582,68.0,60.0,30.0,4.0,0.0
583,77.0,0.0,120.0,0.0,0.0
584,85.0,0.0,240.0,0.0,0.0
585,44.0,0.0,300.0,1.0,0.0
586,56.0,0.0,300.0,1.0,0.0
587,85.0,0.0,30.0,2.0,0.0
588,77.0,0.0,30.0,3.0,0.0
589,44.0,30.0,60.0,6.0,0.0
590,77.0,0.0,30.0,3.0,0.0
591,68.0,30.0,15.0,4.0,0.0
592,56.0,0.0,15.0,5.0,0.0
593,85.0,0.0,15.0,2.0,0.0
594,68.0,0.0,30.0,4.0,0.0
595,44.0,0.0,60.0,6.0,0.0
596,77.0,0.0,15.0,3.0,0.0
597,85.0,30.0,15.0,2.0,0.0
598,68.0,0.0,30.0,4.0,0.0
599,56.0,0.0,60.0,5.0,0.0
600,79.0,0.0,120.0,0.0,0.0
601,70.0,0.0,30.0,4.0,0.0
602,79.0,0.0,30.0,3.0,0.0
603,79.0,0.0,30.0,3.0,0.0
604,85.0,30.0,15.0,2.0,0.0
605,70.0,0.0,30.0,4.0,0.0
606,44.0,30.0,15.0,6.0,0.0
607,70.0,0.0,30.0,4.0,0.0
608,70.0,30.0,30.0,4.0,0.0
609,85.0,30.0,15.0,2.0,0.0
610,79.0,0.0,15.0,3.0,0.0
611,56.0,0.0,15.0,5.0,0.0
612,44.0,0.0,15.0,6.0,0.0
613,80.0,0.0,60.0,0.0,0.0
614,84.0,0.0,60.0,0.0,0.0
615,80.0,30.0,60.0,3.0,0.0
616,63.0,30.0,30.0,4.0,0.0
617,84.0,0.0,60.0,2.0,0.0
618,68.0,60.0,30.0,4.0,0.0
619,68.0,30.0,30.0,4.0,0.0
620,87.0,30.0,60.0,2.0,0.0
621,84.0,0.0,60.0,3.0,0.0
622,68.0,60.0,30.0,4.0,0.0
623,72.0,30.0,60.0,3.0,0.0
624,68.0,30.0,30.0,4.0,0.0
625,75.0,0.0,60.0,2.0,0.0
626,68.0,60.0,30.0,4.0,0.0
627,78.0,0.0,60.0,2.0,0.0
628,75.0,30.0,60.0,3.0,0.0
629,68.0,30.0,30.0,4.0,0.0
630,68.0,60.0,30.0,4.0,0.0
631,68.0,30.0,30.0,4.0,0.0
632,77.0,0.0,60.0,2.0,0.0
633,73.0,30.0,60.0,3.0,0.0
634,68.0,60.0,30.0,4.0,0.0
635,80.0,0.0,60.0,2.0,0.0
636,68.0,30.0,30.0,4.0,0.0
637,77.0,30.0,60.0,3.0,0.0
638,68.0,60.0,30.0,4.0,0.0
639,44.0,0.0,300.0,1.0,0.0
640,85.0,0.0,30.0,2.0,0.0
641,85.0,0.0,240.0,0.0,0.0
642,77.0,0.0,120.0,0.0,0.0
643,77.0,30.0,30.0,3.0,0.0
644,44.0,0.0,60.0,6.0,0.0
645,68.0,0.0,30.0,4.0,0.0
646,56.0,0.0,300.0,1.0,0.0
647,68.0,0.0,30.0,4.0,0.0
648,56.0,0.0,15.0,5.0,0.0
649,85.0,0.0,15.0,2.0,0.0
650,77.0,30.0,15.0,3.0,0.0
651,44.0,0.0,60.0,6.0,0.0
652,85.0,0.0,30.0,2.0,0.0
653,68.0,30.0,15.0,4.0,0.0
654,77.0,0.0,30.0,3.0,0.0
655,79.0,0.0,30.0,3.0,0.0
656,79.0,0.0,120.0,0.0,0.0
657,70.0,30.0,30.0,4.0,0.0
658,85.0,0.0,15.0,2.0,0.0
659,79.0,0.0,30.0,3.0,0.0
660,56.0,0.0,15.0,5.0,0.0
661,85.0,0.0,15.0,2.0,0.0
662,44.0,30.0,15.0,6.0,0.0
663,70.0,0.0,15.0,4.0,0.0
664,70.0,0.0,30.0,4.0,0.0
665,79.0,0.0,15.0,3.0,0.0
666,85.0,30.0,15.0,2.0,0.0
667,80.0,0.0,60.0,3.0,0.0
668,80.0,0.0,60.0,0.0,0.0
669,84.0,0.0,60.0,0.0,0.0
670,44.0,0.0,15.0,6.0,0.0
671,63.0,0.0,60.0,4.0,0.0
672,84.0,90.0,60.0,2.0,0.0
673,56.0,0.0,60.0,5.0,0.0
674,44.0,0.0,120.0,6.0,0.0
675,80.0,0.0,30.0,2.0,0.0
676,56.0,0.0,120.0,5.0,0.0
677,68.0,30.0,15.0,3.0,0.0
678,80.0,0.0,15.0,2.0,0.0
679,80.0,60.0,30.0,2.0,0.0
680,68.0,30.0,15.0,3.0,0.0
681,36.0,0.0,60.0,6.0,0.0
682,48.0,0.0,60.0,5.0,0.0
683,60.0,0.0,60.0,3.0,0.0
684,72.0,90.0,60.0,2.0,0.0
685,80.0,0.0,30.0,2.0,0.0
686,56.0,0.0,120.0,5.0,0.0
687,44.0,0.0,120.0,6.0,0.0
688,68.0,30.0,15.0,3.0,0.0
689,68.0,0.0,30.0,3.0,0.0
690,80.0,30.0,15.0,2.0,0.0
691,80.0,0.0,30.0,2.0,0.0
692,68.0,60.0,30.0,3.0,0.0
693,37.0,0.0,60.0,6.0,0.0
694,49.0,0.0,60.0,5.0,0.0
695,73.0,0.0,60.0,2.0,0.0
696,61.0,90.0,60.0,3.0,0.0
697,44.0,0.0,120.0,6.0,0.0
698,80.0,30.0,30.0,2.0,0.0
699,56.0,60.0,120.0,5.0,0.0
700,68.0,0.0,30.0,3.0,0.0
701,68.0,0.0,30.0,3.0,0.0
702,80.0,30.0,30.0,2.0,0.0
703,68.0,30.0,30.0,3.0,0.0
704,80.0,0.0,30.0,2.0,0.0
705,80.0,0.0,30.0,2.0,0.0
706,68.0,0.0,30.0,3.0,0.0
707,38.0,90.0,60.0,6.0,0.0
708,74.0,0.0,60.0,2.0,0.0
709,62.0,0.0,60.0,3.0,0.0
710,50.0,0.0,60.0,5.0,0.0
711,68.0,30.0,30.0,3.0,0.0
712,80.0,0.0,30.0,2.0,0.0
713,56.0,0.0,120.0,5.0,0.0
714,44.0,0.0,120.0,6.0,0.0
715,68.0,0.0,30.0,3.0,0.0
716,80.0,30.0,15.0,2.0,0.0
717,80.0,30.0,15.0,2.0,0.0
718,68.0,0.0,15.0,3.0,0.0
719,87.0,0.0,1560.0,0.0,0.0
720,75.0,0.0,1560.0,0.0,0.0
721,63.0,0.0,120.0,5.0,0.0
722,51.0,0.0,120.0,6.0,0.0
723,75.0,30.0,60.0,4.0,0.0
724,67.0,30.0,120.0,3.0,0.0
725,79.0,30.0,30.0,2.0,0.0
726,63.0,0.0,120.0,1.0,0.0
727,77.0,0.0,30.0,2.0,0.0
728,75.0,30.0,30.0,2.0,0.0
729,70.0,0.0,30.0,4.0,0.0
730,43.0,0.0,120.0,6.0,0.0
731,55.0,30.0,120.0,5.0,0.0
732,85.0,30.0,15.0,3.0,0.0
733,70.0,30.0,30.0,4.0,0.0
734,70.0,0.0,15.0,4.0,0.0
735,85.0,30.0,15.0,3.0,0.0
736,68.0,0.0,120.0,4.0,0.0
737,56.0,0.0,120.0,1.0,0.0
738,44.0,30.0,120.0,6.0,0.0
739,63.0,0.0,120.0,1.0,0.0
740,56.0,0.0,120.0,5.0,0.0
741,84.0,30.0,30.0,2.0,0.0
742,72.0,0.0,120.0,3.0,0.0
743,82.0,30.0,30.0,2.0,0.0
744,80.0,30.0,30.0,2.0,0.0
745,60.0,0.0,120.0,5.0,0.0
746,48.0,30.0,120.0,6.0,0.0
747,80.0,30.0,30.0,3.0,0.0
748,75.0,0.0,120.0,4.0,0.0
749,80.0,30.0,30.0,3.0,0.0
750,80.0,30.0,30.0,3.0,0.0
751,80.0,0.0,30.0,3.0,0.0
752,63.0,0.0,120.0,5.0,0.0
753,70.0,0.0,120.0,4.0,0.0
754,63.0,30.0,120.0,1.0,0.0
755,51.0,0.0,120.0,6.0,0.0
756,79.0,30.0,30.0,2.0,0.0
757,75.0,0.0,60.0,3.0,0.0
758,77.0,30.0,30.0,2.0,0.0
759,75.0,30.0,30.0,2.0,0.0
760,43.0,30.0,120.0,6.0,0.0
761,55.0,0.0,120.0,5.0,0.0
762,70.0,30.0,30.0,4.0,0.0
763,85.0,0.0,15.0,3.0,0.0
764,70.0,30.0,30.0,4.0,0.0
765,70.0,30.0,30.0,4.0,0.0
766,85.0,0.0,30.0,3.0,0.0
767,70.0,0.0,30.0,4.0,0.0
768,85.0,0.0,30.0,3.0,0.0
769,84.0,30.0,30.0,2.0,0.0
770,72.0,30.0,120.0,3.0,0.0
771,56.0,0.0,120.0,1.0,0.0
772,63.0,0.0,120.0,1.0,0.0
773,68.0,0.0,120.0,4.0,0.0
774,56.0,0.0,120.0,5.0,0.0
775,44.0,0.0,120.0,6.0,0.0
776,82.0,30.0,30.0,2.0,0.0
777,80.0,30.0,30.0,2.0,0.0
778,60.0,0.0,120.0,5.0,0.0
779,75.0,0.0,120.0,4.0,0.0
780,80.0,30.0,30.0,3.0,0.0
781,48.0,0.0,120.0,6.0,0.0
782,80.0,30.0,30.0,3.0,0.0
783,80.0,30.0,30.0,3.0,0.0
784,80.0,30.0,30.0,3.0,0.0
785,63.0,0.0,120.0,1.0,0.0
786,70.0,30.0,120.0,4.0,0.0
787,63.0,0.0,120.0,5.0,0.0
788,75.0,30.0,60.0,3.0,0.0
789,51.0,0.0,120.0,6.0,0.0
790,79.0,30.0,30.0,2.0,0.0
791,77.0,0.0,30.0,2.0,0.0
792,75.0,30.0,30.0,2.0,0.0
793,55.0,0.0,120.0,5.0,0.0
794,43.0,0.0,120.0,6.0,0.0
795,70.0,0.0,30.0,4.0,0.0
796,85.0,30.0,15.0,3.0,0.0
797,85.0,0.0,15.0,3.0,0.0
798,70.0,30.0,15.0,4.0,0.0
799,70.0,0.0,15.0,4.0,0.0
800,85.0,30.0,15.0,3.0,0.0
801,56.0,0.0,120.0,5.0,0.0
802,72.0,0.0,120.0,3.0,0.0
803,56.0,0.0,120.0,1.0,0.0
804,63.0,30.0,120.0,1.0,0.0
805,68.0,0.0,120.0,4.0,0.0
806,44.0,0.0,120.0,6.0,0.0
807,84.0,30.0,30.0,2.0,0.0
808,82.0,30.0,30.0,2.0,0.0
809,80.0,30.0,30.0,2.0,0.0
810,75.0,0.0,120.0,4.0,0.0
811,48.0,0.0,120.0,6.0,0.0
812,60.0,0.0,120.0,5.0,0.0
813,80.0,30.0,15.0,3.0,0.0
814,80.0,30.0,15.0,3.0,0.0
815,80.0,30.0,15.0,3.0,0.0
816,87.0,0.0,120.0,2.0,0.0
817,51.0,0.0,120.0,6.0,0.0
818,63.0,360.0,120.0,5.0,0.0
819,75.0,0.0,120.0,2.0,0.0
820,79.0,0.0,120.0,3.0,0.0
821,70.0,0.0,120.0,4.0,0.0
822,63.0,0.0,120.0,1.0,0.0
823,75.0,120.0,120.0,2.0,0.0
824,56.0,0.0,120.0,5.0,0.0
825,63.0,0.0,120.0,4.0,0.0
826,75.0,0.0,120.0,2.0,0.0
827,72.0,0.0,120.0,3.0,0.0
828,44.0,120.0,120.0,6.0,0.0
829,55.0,0.0,120.0,5.0,0.0
830,70.0,0.0,120.0,3.0,0.0
831,75.0,120.0,15.0,2.0,0.0
832,43.0,0.0,120.0,6.0,0.0
833,63.0,0.0,120.0,4.0,0.0
834,75.0,60.0,120.0,2.0,0.0
835,63.0,0.0,120.0,4.0,0.0
836,44.0,60.0,120.0,6.0,0.0
837,68.0,0.0,120.0,3.0,0.0
838,56.0,0.0,120.0,5.0,0.0
839,72.0,60.0,60.0,2.0,0.0
840,75.0,0.0,60.0,2.0,0.0
841,80.0,60.0,60.0,2.0,0.0
842,75.0,120.0,60.0,2.0,0.0
843,72.0,120.0,120.0,2.0,0.0
844,75.0,30.0,15.0,2.0,0.0
845,46.0,0.0,120.0,6.0,0.0
846,67.0,0.0,120.0,3.0,0.0
847,63.0,120.0,120.0,4.0,0.0
848,58.0,0.0,120.0,5.0,0.0
849,73.0,0.0,15.0,2.0,0.0
850,56.0,0.0,120.0,5.0,0.0
851,73.0,120.0,15.0,2.0,0.0
852,44.0,0.0,120.0,6.0,0.0
853,68.0,0.0,120.0,3.0,0.0
854,65.0,120.0,120.0,4.0,0.0
855,73.0,60.0,15.0,2.0,0.0
856,43.0,0.0,120.0,6.0,0.0
857,70.0,60.0,120.0,3.0,0.0
858,63.0,0.0,120.0,4.0,0.0
859,55.0,0.0,120.0,5.0,0.0
860,79.0,0.0,60.0,2.0,0.0
861,82.0,60.0,60.0,2.0,0.0
862,79.0,120.0,60.0,2.0,0.0
863,43.0,0.0,120.0,6.0,0.0
864,73.0,0.0,120.0,2.0,0.0
865,55.0,120.0,120.0,5.0,0.0
866,70.0,30.0,120.0,2.0,0.0
867,44.0,30.0,60.0,6.0,0.0
868,56.0,0.0,60.0,5.0,0.0
869,63.0,30.0,30.0,3.0,0.0
870,72.0,30.0,240.0,2.0,0.0
871,63.0,60.0,30.0,3.0,0.0
872,51.0,30.0,60.0,5.0,0.0
873,39.0,0.0,60.0,6.0,0.0
874,63.0,30.0,30.0,3.0,0.0
875,63.0,30.0,30.0,3.0,0.0
876,73.0,15.0,60.0,2.0,0.0
877,63.0,15.0,30.0,3.0,0.0
878,46.0,0.0,60.0,6.0,0.0
879,58.0,0.0,60.0,5.0,0.0
880,75.0,15.0,15.0,2.0,0.0
881,73.0,15.0,15.0,2.0,0.0
882,63.0,15.0,30.0,3.0,0.0
883,75.0,0.0,15.0,2.0,0.0
884,73.0,15.0,15.0,2.0,0.0
885,75.0,30.0,15.0,2.0,0.0
886,63.0,30.0,30.0,3.0,0.0
887,39.0,0.0,60.0,6.0,0.0
888,73.0,30.0,60.0,2.0,0.0
889,51.0,0.0,60.0,5.0,0.0
890,63.0,0.0,30.0,3.0,0.0
891,72.0,30.0,30.0,2.0,0.0
892,73.0,60.0,30.0,2.0,0.0
893,75.0,0.0,120.0,2.0,0.0
894,48.0,0.0,60.0,6.0,0.0
895,60.0,0.0,60.0,5.0,0.0
896,63.0,60.0,60.0,3.0,0.0
897,68.0,60.0,60.0,3.0,0.0
898,80.0,60.0,120.0,2.0,0.0
899,51.0,0.0,60.0,5.0,0.0
900,72.0,0.0,60.0,3.0,0.0
901,39.0,60.0,60.0,6.0,0.0
902,68.0,0.0,60.0,3.0,0.0
903,44.0,60.0,60.0,6.0,0.0
904,56.0,0.0,60.0,5.0,0.0
905,75.0,0.0,60.0,3.0,0.0
906,63.0,0.0,120.0,4.0,0.0
907,72.0,60.0,60.0,3.0,0.0
908,72.0,0.0,120.0,2.0,0.0
909,68.0,30.0,120.0,4.0,0.0
910,39.0,0.0,60.0,6.0,0.0
911,51.0,60.0,60.0,5.0,0.0
912,63.0,0.0,60.0,3.0,0.0
913,70.0,30.0,240.0,2.0,0.0
914,63.0,30.0,30.0,3.0,0.0
915,43.0,30.0,60.0,6.0,0.0
916,55.0,0.0,60.0,5.0,0.0
917,63.0,60.0,30.0,3.0,0.0
918,51.0,0.0,60.0,5.0,0.0
919,63.0,30.0,30.0,3.0,0.0
920,39.0,30.0,60.0,6.0,0.0
921,63.0,30.0,30.0,3.0,0.0
922,56.0,15.0,60.0,5.0,0.0
923,63.0,15.0,30.0,3.0,0.0
924,72.0,15.0,60.0,2.0,0.0
925,44.0,0.0,60.0,6.0,0.0
926,73.0,0.0,15.0,2.0,0.0
927,63.0,15.0,30.0,3.0,0.0
928,72.0,15.0,15.0,2.0,0.0
929,73.0,0.0,15.0,2.0,0.0
930,72.0,15.0,15.0,2.0,0.0
931,73.0,30.0,15.0,2.0,0.0
932,51.0,0.0,60.0,5.0,0.0
933,72.0,30.0,60.0,2.0,0.0
934,63.0,30.0,30.0,3.0,0.0
935,39.0,0.0,60.0,6.0,0.0
936,63.0,30.0,30.0,3.0,0.0
937,70.0,0.0,30.0,2.0,0.0
938,72.0,60.0,30.0,2.0,0.0
939,46.0,60.0,60.0,6.0,0.0
940,58.0,0.0,60.0,5.0,0.0
941,73.0,0.0,120.0,2.0,0.0
942,63.0,0.0,60.0,3.0,0.0
943,70.0,60.0,60.0,3.0,0.0
944,73.0,0.0,60.0,3.0,0.0
945,39.0,0.0,60.0,6.0,0.0
946,82.0,60.0,120.0,2.0,0.0
947,51.0,60.0,60.0,5.0,0.0
948,70.0,0.0,60.0,3.0,0.0
949,75.0,60.0,60.0,3.0,0.0
950,61.0,60.0,120.0,4.0,0.0
951,43.0,0.0,60.0,6.0,0.0
952,55.0,0.0,60.0,5.0,0.0
953,73.0,0.0,60.0,3.0,0.0
954,73.0,0.0,120.0,2.0,0.0
955,39.0,60.0,60.0,6.0,0.0
956,51.0,0.0,60.0,5.0,0.0
957,70.0,30.0,120.0,4.0,0.0
958,56.0,30.0,120.0,5.0,0.0
959,68.0,60.0,30.0,4.0,0.0
960,44.0,0.0,120.0,6.0,0.0
961,63.0,0.0,15.0,3.0,0.0
962,72.0,0.0,120.0,2.0,0.0
963,56.0,30.0,30.0,4.0,0.0
964,56.0,60.0,30.0,4.0,0.0
965,75.0,30.0,120.0,2.0,0.0
966,56.0,30.0,30.0,4.0,0.0
967,56.0,60.0,30.0,4.0,0.0
968,82.0,0.0,30.0,2.0,0.0
969,80.0,30.0,90.0,2.0,0.0
970,56.0,30.0,30.0,4.0,0.0
971,79.0,60.0,30.0,2.0,0.0
972,56.0,0.0,30.0,4.0,0.0
973,56.0,60.0,30.0,4.0,0.0
974,77.0,0.0,30.0,2.0,0.0
975,44.0,30.0,120.0,6.0,0.0
976,56.0,0.0,30.0,4.0,0.0
977,77.0,60.0,30.0,2.0,0.0
978,56.0,0.0,120.0,5.0,0.0
979,75.0,0.0,90.0,2.0,0.0
980,56.0,30.0,30.0,4.0,0.0
981,75.0,30.0,120.0,2.0,0.0
982,56.0,60.0,30.0,4.0,0.0
983,56.0,30.0,30.0,4.0,0.0
984,79.0,0.0,30.0,2.0,0.0
985,70.0,0.0,30.0,3.0,0.0
986,56.0,60.0,30.0,4.0,0.0
987,77.0,30.0,90.0,2.0,0.0
988,68.0,0.0,90.0,3.0,0.0
989,56.0,30.0,30.0,4.0,0.0
990,75.0,0.0,30.0,2.0,0.0
991,67.0,60.0,30.0,3.0,0.0
992,56.0,0.0,30.0,4.0,0.0
993,56.0,0.0,30.0,4.0,0.0
994,65.0,60.0,30.0,3.0,0.0
995,73.0,0.0,30.0,2.0,0.0
996,56.0,30.0,120.0,5.0,0.0
997,44.0,0.0,120.0,6.0,0.0
998,56.0,60.0,30.0,4.0,0.0
999,72.0,0.0,120.0,2.0,0.0
1000,63.0,0.0,120.0,3.0,0.0
1001,56.0,30.0,30.0,4.0,0.0
1002,56.0,60.0,30.0,4.0,0.0
1003,75.0,0.0,120.0,2.0,0.0
1004,60.0,30.0,120.0,3.0,0.0
1005,56.0,30.0,30.0,4.0,0.0
1006,56.0,0.0,30.0,4.0,0.0
1007,82.0,0.0,30.0,2.0,0.0
1008,67.0,60.0,30.0,3.0,0.0
1009,80.0,30.0,90.0,2.0,0.0
1010,65.0,0.0,90.0,3.0,0.0
1011,56.0,30.0,30.0,4.0,0.0
1012,56.0,0.0,30.0,4.0,0.0
1013,63.0,0.0,30.0,3.0,0.0
1014,79.0,60.0,30.0,2.0,0.0
1015,77.0,0.0,30.0,2.0,0.0
1016,61.0,150.0,30.0,3.0,0.0
1017,56.0,0.0,30.0,4.0,0.0
1018,75.0,120.0,120.0,2.0,0.0
1019,56.0,0.0,120.0,4.0,0.0
1020,60.0,0.0,15.0,3.0,0.0
1021,60.0,0.0,120.0,3.0,0.0
1022,75.0,120.0,15.0,2.0,0.0
1023,75.0,120.0,15.0,2.0,0.0
1024,60.0,0.0,120.0,3.0,0.0
1025,85.0,0.0,480.0,0.0,0.0
1026,82.0,0.0,480.0,0.0,0.0
1027,63.0,0.0,480.0,1.0,0.0
1028,85.0,30.0,30.0,2.0,0.0
1029,85.0,30.0,30.0,2.0,0.0
1030,85.0,30.0,15.0,2.0,0.0
1031,63.0,30.0,60.0,5.0,0.0
1032,51.0,0.0,60.0,6.0,0.0
1033,85.0,30.0,15.0,2.0,0.0
1034,85.0,0.0,30.0,2.0,0.0
1035,85.0,30.0,15.0,2.0,0.0
1036,75.0,0.0,120.0,2.0,0.0
1037,67.0,0.0,60.0,5.0,0.0
1038,55.0,0.0,60.0,6.0,0.0
1039,79.0,0.0,15.0,3.0,0.0
1040,70.0,30.0,15.0,4.0,0.0
1041,70.0,30.0,15.0,4.0,0.0
1042,79.0,30.0,15.0,3.0,0.0
1043,70.0,0.0,15.0,4.0,0.0
1044,70.0,30.0,15.0,4.0,0.0
1045,51.0,0.0,60.0,6.0,0.0
1046,85.0,30.0,120.0,2.0,0.0
1047,63.0,0.0,60.0,5.0,0.0
1048,79.0,0.0,15.0,3.0,0.0
1049,70.0,30.0,15.0,4.0,0.0
1050,79.0,0.0,15.0,3.0,0.0
1051,70.0,30.0,15.0,4.0,0.0
1052,79.0,0.0,30.0,3.0,0.0
1053,84.0,0.0,480.0,0.0,0.0
1054,80.0,30.0,120.0,3.0,0.0
1055,80.0,30.0,480.0,0.0,0.0
1056,56.0,0.0,480.0,1.0,0.0
1057,84.0,30.0,30.0,2.0,0.0
1058,68.0,0.0,120.0,4.0,0.0
1059,84.0,30.0,15.0,2.0,0.0
1060,84.0,30.0,15.0,2.0,0.0
1061,44.0,0.0,60.0,6.0,0.0
1062,56.0,0.0,60.0,5.0,0.0
1063,72.0,0.0,120.0,4.0,0.0
1064,75.0,0.0,120.0,3.0,0.0
1065,84.0,30.0,15.0,2.0,0.0
1066,84.0,30.0,15.0,2.0,0.0
1067,68.0,0.0,120.0,2.0,0.0
1068,48.0,0.0,60.0,6.0,0.0
1069,60.0,0.0,60.0,5.0,0.0
1070,72.0,30.0,15.0,3.0,0.0
1071,72.0,30.0,30.0,3.0,0.0
1072,72.0,30.0,15.0,3.0,0.0
1073,56.0,30.0,60.0,5.0,0.0
1074,44.0,0.0,60.0,6.0,0.0
1075,72.0,0.0,30.0,3.0,0.0
1076,68.0,30.0,15.0,4.0,0.0
1077,72.0,0.0,30.0,3.0,0.0
1078,68.0,30.0,30.0,4.0,0.0
1079,72.0,0.0,30.0,3.0,0.0
1080,68.0,0.0,30.0,4.0,0.0
1081,67.0,0.0,120.0,4.0,0.0
1082,63.0,0.0,15.0,1.0,0.0
1083,70.0,30.0,120.0,3.0,0.0
1084,85.0,0.0,480.0,0.0,0.0
1085,82.0,0.0,480.0,0.0,0.0
1086,85.0,30.0,15.0,2.0,0.0
1087,85.0,30.0,15.0,2.0,0.0
1088,85.0,0.0,30.0,2.0,0.0
1089,51.0,0.0,60.0,6.0,0.0
1090,63.0,0.0,60.0,5.0,0.0
1091,85.0,30.0,30.0,2.0,0.0
1092,85.0,30.0,15.0,2.0,0.0
1093,85.0,30.0,30.0,2.0,0.0
1094,75.0,0.0,120.0,2.0,0.0
1095,55.0,30.0,60.0,6.0,0.0
1096,67.0,0.0,60.0,5.0,0.0
1097,79.0,0.0,15.0,3.0,0.0
1098,70.0,30.0,15.0,4.0,0.0
1099,70.0,0.0,15.0,4.0,0.0
1100,79.0,30.0,15.0,3.0,0.0
1101,79.0,0.0,15.0,3.0,0.0
1102,85.0,0.0,120.0,2.0,0.0
1103,63.0,0.0,60.0,5.0,0.0
1104,51.0,30.0,60.0,6.0,0.0
1105,70.0,30.0,15.0,4.0,0.0
1106,70.0,0.0,15.0,4.0,0.0
1107,79.0,0.0,30.0,3.0,0.0
1108,70.0,0.0,15.0,4.0,0.0
1109,79.0,0.0,30.0,3.0,0.0
1110,79.0,30.0,30.0,3.0,0.0
1111,70.0,0.0,30.0,4.0,0.0
1112,56.0,0.0,480.0,1.0,0.0
1113,68.0,0.0,120.0,4.0,0.0
1114,63.0,0.0,480.0,1.0,0.0
1115,84.0,30.0,30.0,2.0,0.0
1116,84.0,0.0,480.0,0.0,0.0
1117,80.0,0.0,120.0,3.0,0.0
1118,84.0,30.0,30.0,2.0,0.0
1119,84.0,30.0,30.0,2.0,0.0
1120,84.0,30.0,30.0,2.0,0.0
1121,56.0,30.0,60.0,5.0,0.0
1122,75.0,0.0,120.0,3.0,0.0
1123,44.0,0.0,60.0,6.0,0.0
1124,72.0,0.0,120.0,4.0,0.0
1125,84.0,30.0,30.0,2.0,0.0
1126,84.0,0.0,30.0,2.0,0.0
1127,84.0,30.0,30.0,2.0,0.0
1128,84.0,30.0,30.0,2.0,0.0
1129,72.0,30.0,30.0,4.0,0.0
1130,75.0,0.0,30.0,3.0,0.0
1131,60.0,0.0,60.0,5.0,0.0
1132,48.0,0.0,60.0,6.0,0.0
1133,68.0,0.0,120.0,2.0,0.0
1134,72.0,0.0,30.0,4.0,0.0
1135,72.0,30.0,30.0,4.0,0.0
1136,75.0,30.0,15.0,3.0,0.0
1137,75.0,0.0,15.0,3.0,0.0
1138,72.0,0.0,30.0,4.0,0.0
1139,56.0,30.0,60.0,5.0,0.0
1140,75.0,30.0,15.0,3.0,0.0
1141,72.0,0.0,30.0,4.0,0.0
1142,44.0,0.0,60.0,6.0,0.0
1143,72.0,0.0,30.0,4.0,0.0
1144,75.0,30.0,15.0,3.0,0.0
1145,75.0,0.0,15.0,3.0,0.0
1146,72.0,0.0,15.0,4.0,0.0
1147,75.0,30.0,15.0,3.0,0.0
1148,89.0,30.0,30.0,2.0,0.0
1149,80.0,0.0,15.0,0.0,0.0
1150,89.0,0.0,480.0,0.0,0.0
1151,61.0,0.0,480.0,1.0,0.0
1152,73.0,0.0,120.0,3.0,0.0
1153,65.0,0.0,480.0,1.0,0.0
1154,68.0,30.0,120.0,4.0,0.0
1155,89.0,30.0,30.0,2.0,0.0
1156,89.0,30.0,15.0,2.0,0.0
1157,89.0,30.0,30.0,2.0,0.0
1158,49.0,0.0,60.0,6.0,0.0
1159,61.0,0.0,60.0,5.0,0.0
1160,89.0,30.0,30.0,2.0,0.0
1161,89.0,30.0,30.0,2.0,0.0
1162,89.0,30.0,30.0,2.0,0.0
1163,73.0,30.0,120.0,2.0,0.0
1164,65.0,30.0,60.0,5.0,0.0
1165,53.0,0.0,60.0,6.0,0.0
1166,80.0,30.0,15.0,3.0,0.0
1167,80.0,30.0,30.0,3.0,0.0
1168,80.0,0.0,30.0,3.0,0.0
1169,80.0,0.0,30.0,3.0,0.0
1170,49.0,0.0,60.0,6.0,0.0
1171,61.0,0.0,60.0,5.0,0.0
1172,89.0,0.0,120.0,2.0,0.0
1173,73.0,30.0,15.0,4.0,0.0
1174,80.0,0.0,30.0,3.0,0.0
1175,73.0,30.0,15.0,4.0,0.0
1176,80.0,0.0,30.0,3.0,0.0
1177,73.0,30.0,15.0,4.0,0.0
1178,80.0,0.0,30.0,3.0,0.0
1179,56.0,0.0,480.0,1.0,0.0
1180,80.0,0.0,120.0,3.0,0.0
1181,72.0,0.0,120.0,4.0,0.0
1182,87.0,30.0,30.0,2.0,0.0
1183,63.0,0.0,480.0,1.0,0.0
1184,80.0,30.0,15.0,0.0,0.0
1185,84.0,0.0,240.0,0.0,0.0
1186,87.0,30.0,15.0,2.0,0.0
1187,87.0,30.0,15.0,2.0,0.0
1188,60.0,30.0,60.0,5.0,0.0
1189,48.0,0.0,60.0,6.0,0.0
1190,87.0,30.0,15.0,2.0,0.0
1191,87.0,0.0,30.0,2.0,0.0
1192,87.0,30.0,30.0,2.0,0.0
1193,87.0,0.0,30.0,2.0,0.0
1194,72.0,0.0,120.0,2.0,0.0
1195,75.0,0.0,120.0,0.0,0.0
1196,56.0,0.0,60.0,5.0,0.0
1197,44.0,0.0,60.0,6.0,0.0
1198,84.0,0.0,240.0,0.0,0.0
1199,75.0,30.0,30.0,3.0,0.0
1200,75.0,30.0,15.0,3.0,0.0
1201,75.0,30.0,30.0,3.0,0.0
1202,80.0,30.0,120.0,2.0,0.0
1203,60.0,0.0,60.0,5.0,0.0
1204,80.0,0.0,360.0,0.0,0.0
1205,48.0,30.0,60.0,6.0,0.0
1206,72.0,0.0,30.0,4.0,0.0
1207,75.0,30.0,30.0,3.0,0.0
1208,72.0,0.0,30.0,4.0,0.0
1209,75.0,0.0,30.0,3.0,0.0
1210,72.0,0.0,15.0,4.0,0.0
1211,75.0,30.0,15.0,3.0,0.0
1212,49.0,0.0,60.0,6.0,0.0
1213,82.0,0.0,240.0,0.0,0.0
1214,61.0,30.0,60.0,5.0,0.0
1215,65.0,30.0,240.0,1.0,0.0
1216,61.0,0.0,240.0,1.0,0.0
1217,73.0,30.0,120.0,2.0,0.0
1218,77.0,30.0,15.0,3.0,0.0
1219,77.0,30.0,30.0,3.0,0.0
1220,77.0,0.0,30.0,3.0,0.0
1221,46.0,0.0,60.0,6.0,0.0
1222,58.0,0.0,60.0,5.0,0.0
1223,77.0,30.0,30.0,3.0,0.0
1224,82.0,0.0,120.0,2.0,0.0
1225,73.0,0.0,15.0,4.0,0.0
1226,77.0,0.0,30.0,3.0,0.0
1227,73.0,30.0,30.0,4.0,0.0
1228,77.0,0.0,30.0,3.0,0.0
1229,77.0,0.0,30.0,3.0,0.0
1230,73.0,0.0,30.0,4.0,0.0
1231,51.0,0.0,60.0,6.0,0.0
1232,79.0,0.0,240.0,0.0,0.0
1233,63.0,0.0,60.0,5.0,0.0
1234,63.0,0.0,120.0,2.0,0.0
1235,63.0,0.0,240.0,1.0,0.0
1236,82.0,0.0,240.0,0.0,0.0
1237,73.0,0.0,15.0,3.0,0.0
1238,70.0,30.0,15.0,4.0,0.0
1239,73.0,0.0,15.0,3.0,0.0
1240,70.0,30.0,15.0,4.0,0.0
1241,73.0,30.0,15.0,3.0,0.0
1242,79.0,0.0,120.0,2.0,0.0
1243,39.0,0.0,60.0,6.0,0.0
1244,73.0,0.0,15.0,3.0,0.0
1245,70.0,30.0,15.0,4.0,0.0
1246,51.0,30.0,60.0,5.0,0.0
1247,70.0,0.0,15.0,4.0,0.0
1248,73.0,30.0,15.0,3.0,0.0
1249,73.0,0.0,15.0,3.0,0.0
1250,70.0,0.0,15.0,4.0,0.0
1251,73.0,30.0,15.0,3.0,0.0
1252,56.0,0.0,120.0,1.0,0.0
1253,80.0,0.0,120.0,0.0,0.0
1254,80.0,30.0,120.0,2.0,0.0
1255,56.0,0.0,120.0,5.0,0.0
1256,44.0,0.0,120.0,6.0,0.0
1257,63.0,0.0,120.0,1.0,0.0
1258,72.0,0.0,120.0,3.0,0.0
1259,68.0,60.0,30.0,4.0,0.0
1260,63.0,30.0,30.0,4.0,0.0
1261,63.0,60.0,30.0,4.0,0.0
1262,63.0,60.0,30.0,4.0,0.0
1263,63.0,60.0,30.0,4.0,0.0
1264,63.0,60.0,30.0,4.0,0.0
1265,63.0,60.0,30.0,4.0,0.0
1266,63.0,60.0,30.0,4.0,0.0
1267,85.0,30.0,240.0,2.0,0.0
1268,63.0,60.0,30.0,4.0,0.0
1269,63.0,60.0,30.0,4.0,0.0
1270,39.0,30.0,60.0,6.0,0.0
1271,63.0,30.0,30.0,4.0,0.0
1272,51.0,0.0,60.0,5.0,0.0
1273,63.0,30.0,30.0,4.0,0.0
1274,79.0,30.0,240.0,2.0,0.0
1275,61.0,0.0,60.0,5.0,0.0
1276,49.0,30.0,60.0,6.0,0.0
1277,63.0,30.0,30.0,4.0,0.0
1278,63.0,60.0,30.0,4.0,0.0
1279,58.0,0.0,60.0,5.0,0.0
1280,63.0,30.0,30.0,4.0,0.0
1281,46.0,30.0,60.0,6.0,0.0
1282,63.0,30.0,30.0,4.0,0.0
1283,75.0,30.0,240.0,3.0,0.0
1284,80.0,0.0,180.0,2.0,0.0
1285,63.0,60.0,30.0,4.0,0.0
1286,63.0,60.0,30.0,4.0,0.0
1287,44.0,30.0,60.0,6.0,0.0
1288,56.0,0.0,60.0,5.0,0.0
1289,63.0,30.0,30.0,4.0,0.0
1290,63.0,0.0,30.0,4.0,0.0
1291,82.0,30.0,30.0,2.0,0.0
1292,84.0,0.0,30.0,2.0,0.0
1293,60.0,0.0,60.0,5.0,0.0
1294,75.0,0.0,180.0,2.0,0.0
1295,63.0,30.0,30.0,4.0,0.0
1296,48.0,30.0,60.0,6.0,0.0
1297,68.0,30.0,240.0,3.0,0.0
1298,63.0,60.0,30.0,4.0,0.0
1299,44.0,30.0,60.0,6.0,0.0
1300,56.0,0.0,60.0,5.0,0.0
1301,63.0,30.0,30.0,4.0,0.0
1302,63.0,30.0,30.0,4.0,0.0
1303,67.0,30.0,180.0,3.0,0.0
1304,63.0,60.0,30.0,4.0,0.0
1305,85.0,0.0,240.0,2.0,0.0
1306,63.0,60.0,30.0,4.0,0.0
1307,63.0,30.0,30.0,4.0,0.0
1308,39.0,0.0,60.0,6.0,0.0
1309,51.0,0.0,60.0,5.0,0.0
1310,68.0,30.0,30.0,3.0,0.0
1311,63.0,0.0,30.0,4.0,0.0
1312,70.0,30.0,30.0,3.0,0.0
1313,63.0,30.0,120.0,3.0,0.0
1314,49.0,30.0,60.0,6.0,0.0
1315,79.0,30.0,240.0,2.0,0.0
1316,61.0,0.0,60.0,5.0,0.0
1317,63.0,30.0,30.0,4.0,0.0
1318,63.0,30.0,30.0,4.0,0.0
1319,58.0,30.0,60.0,5.0,0.0
1320,46.0,0.0,60.0,6.0,0.0
1321,63.0,30.0,30.0,4.0,0.0
1322,63.0,30.0,30.0,4.0,0.0
1323,75.0,0.0,240.0,3.0,0.0
1324,80.0,0.0,180.0,2.0,0.0
1325,63.0,60.0,30.0,4.0,0.0
1326,63.0,60.0,30.0,4.0,0.0
1327,63.0,30.0,30.0,4.0,0.0
1328,44.0,30.0,60.0,6.0,0.0
1329,56.0,0.0,60.0,5.0,0.0
1330,63.0,30.0,30.0,4.0,0.0
1331,82.0,0.0,30.0,2.0,0.0
1332,84.0,30.0,30.0,2.0,0.0
1333,68.0,120.0,240.0,3.0,0.0
1334,75.0,0.0,180.0,2.0,0.0
1335,60.0,0.0,60.0,5.0,0.0
1336,48.0,30.0,60.0,6.0,0.0
1337,63.0,30.0,30.0,4.0,0.0
1338,63.0,60.0,30.0,4.0,0.0
1339,44.0,0.0,60.0,6.0,0.0
1340,56.0,30.0,60.0,5.0,0.0
1341,63.0,30.0,30.0,4.0,0.0
1342,63.0,30.0,30.0,4.0,0.0
1343,65.0,0.0,120.0,3.0,0.0
1344,77.0,0.0,120.0,2.0,0.0
1345,61.0,120.0,120.0,4.0,0.0
1346,49.0,0.0,120.0,6.0,0.0
1347,63.0,0.0,240.0,4.0,0.0
1348,61.0,0.0,120.0,5.0,0.0
1349,79.0,0.0,120.0,2.0,0.0
1350,67.0,120.0,120.0,3.0,0.0
1351,68.0,0.0,120.0,3.0,0.0
1352,80.0,0.0,120.0,2.0,0.0
1353,48.0,0.0,120.0,6.0,0.0
1354,60.0,120.0,120.0,5.0,0.0
1355,81.0,0.0,120.0,2.0,0.0
1356,69.0,0.0,120.0,3.0,0.0
1357,66.0,0.0,120.0,4.0,0.0
1358,51.0,120.0,120.0,6.0,0.0
1359,63.0,0.0,120.0,5.0,0.0
1360,61.0,0.0,120.0,5.0,0.0
1361,70.0,0.0,120.0,3.0,0.0
1362,65.0,0.0,360.0,4.0,0.0
1363,49.0,0.0,120.0,6.0,0.0
1364,82.0,120.0,120.0,2.0,0.0
1365,84.0,0.0,120.0,2.0,0.0
1366,57.0,0.0,120.0,5.0,0.0
1367,72.0,0.0,120.0,3.0,0.0
1368,45.0,120.0,120.0,6.0,0.0
1369,58.0,0.0,120.0,5.0,0.0
1370,85.0,10.0,210.0,2.0,0.0
1371,46.0,100.0,120.0,6.0,0.0
1372,73.0,0.0,210.0,3.0,0.0
1373,67.0,15.0,120.0,4.0,0.0
1374,39.0,0.0,120.0,6.0,0.0
1375,51.0,10.0,120.0,5.0,0.0
1376,87.0,0.0,1920.0,0.0,0.0
1377,68.0,60.0,60.0,4.0,0.0
1378,44.0,0.0,120.0,6.0,0.0
1379,56.0,0.0,120.0,5.0,0.0
1380,84.0,15.0,15.0,2.0,0.0
1381,75.0,0.0,1920.0,0.0,0.0
1382,72.0,0.0,15.0,3.0,0.0
1383,73.0,30.0,15.0,3.0,0.0
1384,85.0,0.0,15.0,2.0,0.0
1385,72.0,0.0,90.0,3.0,0.0
1386,84.0,30.0,90.0,2.0,0.0
1387,63.0,0.0,60.0,4.0,0.0
1388,63.0,0.0,30.0,4.0,0.0
1389,55.0,0.0,30.0,5.0,0.0
1390,43.0,60.0,30.0,6.0,0.0
1391,70.0,0.0,30.0,3.0,0.0
1392,82.0,0.0,30.0,2.0,0.0
1393,80.0,0.0,30.0,2.0,0.0
1394,44.0,0.0,30.0,6.0,0.0
1395,56.0,0.0,30.0,5.0,0.0
1396,63.0,0.0,30.0,4.0,0.0
1397,68.0,90.0,30.0,3.0,0.0
1398,85.0,0.0,60.0,2.0,0.0
1399,43.0,120.0,60.0,6.0,0.0
1400,55.0,0.0,60.0,5.0,0.0
1401,63.0,0.0,60.0,4.0,0.0
1402,70.0,0.0,60.0,3.0,0.0
1403,85.0,0.0,60.0,2.0,0.0
1404,43.0,0.0,60.0,6.0,0.0
1405,55.0,75.0,60.0,5.0,0.0
1406,70.0,0.0,60.0,3.0,0.0
1407,63.0,0.0,60.0,4.0,0.0
1408,44.0,0.0,120.0,6.0,0.0
1409,68.0,15.0,15.0,3.0,0.0
1410,84.0,0.0,15.0,2.0,0.0
1411,56.0,0.0,120.0,5.0,0.0
1412,85.0,90.0,15.0,2.0,0.0
1413,70.0,0.0,15.0,3.0,0.0
1414,68.0,0.0,90.0,3.0,0.0
1415,84.0,30.0,90.0,2.0,0.0
1416,55.0,0.0,30.0,5.0,0.0
1417,70.0,0.0,30.0,3.0,0.0
1418,63.0,0.0,15.0,4.0,0.0
1419,82.0,60.0,30.0,2.0,0.0
1420,43.0,0.0,30.0,6.0,0.0
1421,63.0,0.0,30.0,4.0,0.0
1422,72.0,90.0,30.0,3.0,0.0
1423,80.0,0.0,30.0,2.0,0.0
1424,44.0,0.0,30.0,6.0,0.0
1425,56.0,0.0,30.0,5.0,0.0
1426,79.0,15.0,240.0,2.0,0.0
1427,46.0,120.0,60.0,6.0,0.0
1428,58.0,0.0,60.0,5.0,0.0
1429,73.0,0.0,240.0,3.0,0.0
1430,39.0,60.0,60.0,6.0,0.0
1431,51.0,0.0,60.0,5.0,0.0
1432,63.0,0.0,15.0,4.0,0.0
1433,72.0,0.0,15.0,3.0,0.0
1434,84.0,15.0,15.0,2.0,0.0
1435,56.0,0.0,120.0,5.0,0.0
1436,44.0,0.0,120.0,6.0,0.0
1437,73.0,90.0,15.0,3.0,0.0
1438,85.0,0.0,15.0,2.0,0.0
1439,72.0,0.0,90.0,3.0,0.0
1440,84.0,30.0,90.0,2.0,0.0
1441,63.0,0.0,30.0,4.0,0.0
1442,43.0,0.0,30.0,6.0,0.0
1443,82.0,0.0,30.0,2.0,0.0
1444,55.0,0.0,30.0,5.0,0.0
1445,70.0,60.0,30.0,3.0,0.0
1446,63.0,0.0,30.0,4.0,0.0
1447,80.0,0.0,30.0,2.0,0.0
1448,44.0,0.0,30.0,6.0,0.0
1449,68.0,0.0,30.0,3.0,0.0
1450,56.0,90.0,30.0,5.0,0.0
1451,85.0,0.0,60.0,2.0,0.0
1452,67.0,0.0,60.0,3.0,0.0
1453,58.0,0.0,60.0,5.0,0.0
1454,46.0,120.0,60.0,6.0,0.0
1455,63.0,0.0,60.0,4.0,0.0
1456,67.0,0.0,60.0,3.0,0.0
1457,63.0,0.0,60.0,4.0,0.0
1458,58.0,75.0,60.0,5.0,0.0
1459,85.0,0.0,60.0,2.0,0.0
1460,46.0,0.0,60.0,6.0,0.0
1461,63.0,0.0,120.0,4.0,0.0
1462,44.0,30.0,120.0,6.0,0.0
1463,84.0,0.0,15.0,2.0,0.0
1464,56.0,0.0,120.0,5.0,0.0
1465,68.0,15.0,15.0,3.0,0.0
1466,85.0,90.0,15.0,2.0,0.0
1467,70.0,0.0,15.0,3.0,0.0
1468,84.0,0.0,90.0,2.0,0.0
1469,68.0,0.0,90.0,3.0,0.0
1470,55.0,0.0,30.0,5.0,0.0
1471,70.0,60.0,30.0,3.0,0.0
1472,63.0,0.0,30.0,4.0,0.0
1473,82.0,0.0,30.0,2.0,0.0
1474,43.0,0.0,30.0,6.0,0.0
1475,72.0,0.0,30.0,3.0,0.0
1476,80.0,90.0,30.0,2.0,0.0
1477,44.0,0.0,30.0,6.0,0.0
1478,56.0,0.0,30.0,5.0,0.0
1479,63.0,0.0,30.0,4.0,0.0
1480,58.0,0.0,60.0,5.0,0.0
1481,79.0,0.0,240.0,2.0,0.0
1482,73.0,30.0,240.0,3.0,0.0
1483,63.0,0.0,240.0,4.0,0.0
1484,46.0,120.0,60.0,6.0,0.0
1485,51.0,0.0,60.0,5.0,0.0
1486,39.0,60.0,60.0,6.0,0.0
1487,80.0,0.0,960.0,0.0,0.0
1488,56.0,0.0,960.0,1.0,0.0
1489,72.0,0.0,60.0,4.0,0.0
1490,75.0,30.0,15.0,3.0,0.0
1491,87.0,0.0,15.0,2.0,0.0
1492,48.0,30.0,15.0,6.0,0.0
1493,75.0,0.0,15.0,3.0,0.0
1494,60.0,0.0,15.0,5.0,0.0
1495,87.0,30.0,30.0,2.0,0.0
1496,87.0,0.0,30.0,2.0,0.0
1497,48.0,0.0,15.0,6.0,0.0
1498,75.0,0.0,15.0,3.0,0.0
1499,72.0,30.0,15.0,4.0,0.0
1500,60.0,0.0,60.0,5.0,0.0
1501,87.0,0.0,15.0,2.0,0.0
1502,75.0,30.0,30.0,3.0,0.0
1503,72.0,0.0,15.0,4.0,0.0
1504,75.0,0.0,30.0,3.0,0.0
1505,87.0,30.0,15.0,2.0,0.0
1506,75.0,0.0,30.0,3.0,0.0
1507,88.0,0.0,30.0,2.0,0.0
1508,60.0,0.0,15.0,5.0,0.0
1509,48.0,30.0,15.0,6.0,0.0
1510,76.0,30.0,15.0,3.0,0.0
1511,60.0,0.0,15.0,5.0,0.0
1512,72.0,0.0,15.0,4.0,0.0
1513,88.0,30.0,15.0,2.0,0.0
1514,76.0,30.0,30.0,3.0,0.0
1515,48.0,0.0,15.0,6.0,0.0
1516,88.0,0.0,15.0,2.0,0.0
1517,76.0,0.0,30.0,3.0,0.0
1518,48.0,0.0,15.0,6.0,0.0
1519,60.0,30.0,15.0,5.0,0.0
1520,88.0,0.0,15.0,2.0,0.0
1521,76.0,0.0,30.0,3.0,0.0
1522,72.0,0.0,60.0,4.0,0.0
1523,88.0,30.0,15.0,2.0,0.0
1524,76.0,0.0,15.0,3.0,0.0
1525,72.0,0.0,60.0,4.0,0.0
1526,48.0,0.0,60.0,6.0,0.0
1527,60.0,0.0,60.0,5.0,0.0
1528,88.0,30.0,15.0,2.0,0.0
1529,76.0,0.0,15.0,3.0,0.0
1530,88.0,30.0,15.0,2.0,0.0
1531,61.0,0.0,60.0,5.0,0.0
1532,49.0,0.0,60.0,6.0,0.0
1533,89.0,0.0,15.0,2.0,0.0
1534,77.0,30.0,15.0,3.0,0.0
1535,77.0,0.0,30.0,3.0,0.0
1536,73.0,0.0,15.0,4.0,0.0
1537,49.0,30.0,60.0,6.0,0.0
1538,89.0,30.0,30.0,2.0,0.0
1539,61.0,0.0,60.0,5.0,0.0
1540,89.0,0.0,30.0,2.0,0.0
1541,77.0,0.0,15.0,3.0,0.0
1542,73.0,0.0,15.0,4.0,0.0
1543,49.0,0.0,60.0,6.0,0.0
1544,89.0,30.0,15.0,2.0,0.0
1545,77.0,0.0,30.0,3.0,0.0
1546,49.0,0.0,60.0,6.0,0.0
1547,61.0,0.0,15.0,5.0,0.0
1548,77.0,0.0,30.0,3.0,0.0
1549,73.0,30.0,15.0,4.0,0.0
1550,89.0,30.0,15.0,2.0,0.0
1551,77.0,0.0,30.0,3.0,0.0
1552,59.0,30.0,60.0,5.0,0.0
1553,47.0,0.0,60.0,6.0,0.0
1554,71.0,0.0,60.0,4.0,0.0
1555,86.0,0.0,15.0,2.0,0.0
1556,74.0,30.0,15.0,3.0,0.0
1557,74.0,0.0,30.0,3.0,0.0
1558,59.0,0.0,60.0,5.0,0.0
1559,86.0,30.0,15.0,2.0,0.0
1560,47.0,30.0,15.0,6.0,0.0
1561,86.0,0.0,30.0,2.0,0.0
1562,71.0,0.0,15.0,4.0,0.0
1563,74.0,0.0,15.0,3.0,0.0
1564,74.0,30.0,15.0,3.0,0.0
1565,47.0,0.0,60.0,6.0,0.0
1566,59.0,30.0,15.0,5.0,0.0
1567,86.0,0.0,15.0,2.0,0.0
1568,71.0,0.0,60.0,4.0,0.0
1569,74.0,30.0,15.0,3.0,0.0
1570,86.0,0.0,15.0,2.0,0.0
1571,48.0,0.0,60.0,6.0,0.0
1572,75.0,0.0,1200.0,0.0,0.0
1573,63.0,0.0,960.0,1.0,0.0
1574,75.0,30.0,15.0,3.0,0.0
1575,87.0,0.0,15.0,2.0,0.0
1576,75.0,0.0,15.0,3.0,0.0
1577,72.0,0.0,15.0,4.0,0.0
1578,87.0,30.0,30.0,2.0,0.0
1579,60.0,30.0,15.0,5.0,0.0
1580,87.0,0.0,30.0,2.0,0.0
1581,48.0,30.0,15.0,6.0,0.0
1582,72.0,0.0,60.0,4.0,0.0
1583,75.0,0.0,15.0,3.0,0.0
1584,75.0,0.0,15.0,3.0,0.0
1585,87.0,30.0,15.0,2.0,0.0
1586,60.0,30.0,15.0,5.0,0.0
1587,48.0,0.0,60.0,6.0,0.0
1588,72.0,0.0,60.0,4.0,0.0
1589,75.0,0.0,30.0,3.0,0.0
1590,75.0,0.0,30.0,3.0,0.0
1591,87.0,30.0,15.0,2.0,0.0
1592,72.0,30.0,30.0,3.0,0.0
1593,45.0,0.0,60.0,6.0,0.0
1594,69.0,0.0,60.0,4.0,0.0
1595,84.0,0.0,15.0,2.0,0.0
1596,72.0,0.0,30.0,3.0,0.0
1597,69.0,0.0,60.0,4.0,0.0
1598,57.0,0.0,15.0,5.0,0.0
1599,45.0,0.0,60.0,6.0,0.0
1600,72.0,0.0,30.0,3.0,0.0
1601,84.0,30.0,15.0,2.0,0.0
1602,84.0,30.0,15.0,2.0,0.0
1603,57.0,0.0,60.0,5.0,0.0
1604,72.0,30.0,15.0,3.0,0.0
1605,84.0,30.0,15.0,2.0,0.0
1606,72.0,0.0,15.0,3.0,0.0
1607,69.0,0.0,15.0,4.0,0.0
1608,57.0,0.0,60.0,5.0,0.0
1609,84.0,0.0,30.0,2.0,0.0
1610,45.0,30.0,15.0,6.0,0.0
1611,72.0,30.0,30.0,3.0,0.0
1612,84.0,30.0,30.0,2.0,0.0
1613,72.0,0.0,30.0,3.0,0.0
1614,58.0,0.0,60.0,5.0,0.0
1615,70.0,0.0,60.0,4.0,0.0
1616,73.0,0.0,30.0,3.0,0.0
1617,73.0,30.0,30.0,3.0,0.0
1618,85.0,30.0,15.0,2.0,0.0
1619,46.0,0.0,15.0,6.0,0.0
1620,85.0,0.0,15.0,2.0,0.0
1621,73.0,30.0,15.0,3.0,0.0
1622,85.0,0.0,30.0,2.0,0.0
1623,70.0,30.0,15.0,4.0,0.0
1624,73.0,0.0,15.0,3.0,0.0
1625,46.0,0.0,15.0,6.0,0.0
1626,58.0,0.0,15.0,5.0,0.0
1627,85.0,0.0,30.0,2.0,0.0
1628,85.0,0.0,30.0,2.0,0.0
1629,73.0,0.0,30.0,3.0,0.0
1630,70.0,0.0,60.0,4.0,0.0
1631,46.0,0.0,15.0,6.0,0.0
1632,58.0,30.0,15.0,5.0,0.0
1633,73.0,30.0,15.0,3.0,0.0
1634,85.0,0.0,15.0,2.0,0.0
1635,70.0,0.0,30.0,3.0,0.0
1636,67.0,0.0,60.0,4.0,0.0
1637,82.0,30.0,15.0,2.0,0.0
1638,55.0,0.0,15.0,5.0,0.0
1639,70.0,0.0,15.0,3.0,0.0
1640,43.0,30.0,15.0,6.0,0.0
1641,70.0,0.0,15.0,3.0,0.0
1642,82.0,30.0,15.0,2.0,0.0
1643,70.0,0.0,15.0,3.0,0.0
1644,67.0,0.0,15.0,4.0,0.0
1645,82.0,0.0,15.0,2.0,0.0
1646,55.0,0.0,15.0,5.0,0.0
1647,43.0,0.0,60.0,6.0,0.0
1648,82.0,30.0,15.0,2.0,0.0
1649,55.0,0.0,15.0,5.0,0.0
1650,67.0,30.0,60.0,4.0,0.0
1651,43.0,0.0,60.0,6.0,0.0
1652,70.0,30.0,15.0,3.0,0.0
1653,82.0,30.0,15.0,2.0,0.0
1654,70.0,0.0,30.0,3.0,0.0
1655,84.0,0.0,30.0,2.0,0.0
1656,63.0,0.0,240.0,1.0,0.0
1657,68.0,30.0,60.0,4.0,0.0
1658,56.0,0.0,480.0,1.0,0.0
1659,72.0,30.0,30.0,3.0,0.0
1660,84.0,0.0,30.0,2.0,0.0
1661,72.0,0.0,15.0,3.0,0.0
1662,44.0,0.0,15.0,6.0,0.0
1663,56.0,0.0,15.0,5.0,0.0
1664,68.0,0.0,60.0,4.0,0.0
1665,84.0,0.0,30.0,2.0,0.0
1666,72.0,0.0,30.0,3.0,0.0
1667,56.0,0.0,15.0,5.0,0.0
1668,72.0,30.0,30.0,3.0,0.0
1669,84.0,30.0,15.0,2.0,0.0
1670,72.0,0.0,30.0,3.0,0.0
1671,84.0,0.0,30.0,2.0,0.0
1672,68.0,0.0,15.0,4.0,0.0
1673,44.0,0.0,15.0,6.0,0.0
1674,84.0,30.0,30.0,2.0,0.0
1675,56.0,30.0,15.0,5.0,0.0
1676,72.0,0.0,15.0,3.0,0.0
1677,84.0,0.0,30.0,2.0,0.0
1678,65.0,0.0,60.0,5.0,0.0
1679,65.0,30.0,480.0,1.0,0.0
1680,68.0,0.0,30.0,3.0,0.0
1681,80.0,0.0,240.0,0.0,0.0
1682,72.0,0.0,240.0,0.0,0.0
1683,80.0,0.0,15.0,2.0,0.0
1684,72.0,30.0,15.0,4.0,0.0
1685,68.0,0.0,30.0,3.0,0.0
1686,80.0,0.0,15.0,2.0,0.0
1687,72.0,0.0,15.0,4.0,0.0
1688,53.0,30.0,15.0,6.0,0.0
1689,68.0,0.0,30.0,3.0,0.0
1690,72.0,0.0,30.0,4.0,0.0
1691,68.0,0.0,30.0,3.0,0.0
1692,65.0,30.0,15.0,5.0,0.0
1693,53.0,0.0,15.0,6.0,0.0
1694,80.0,0.0,15.0,2.0,0.0
1695,68.0,0.0,15.0,3.0,0.0
1696,72.0,0.0,15.0,4.0,0.0
1697,68.0,0.0,15.0,3.0,0.0
1698,72.0,0.0,15.0,4.0,0.0
1699,53.0,30.0,15.0,6.0,0.0
1700,80.0,0.0,15.0,2.0,0.0
1701,65.0,0.0,60.0,5.0,0.0
1702,72.0,0.0,15.0,4.0,0.0
1703,80.0,30.0,30.0,2.0,0.0
1704,68.0,30.0,15.0,3.0,0.0
1705,61.0,0.0,60.0,5.0,0.0
1706,56.0,0.0,240.0,1.0,0.0
1707,49.0,30.0,60.0,6.0,0.0
1708,70.0,0.0,30.0,3.0,0.0
1709,82.0,0.0,240.0,0.0,0.0
1710,73.0,0.0,240.0,0.0,0.0
1711,82.0,0.0,15.0,2.0,0.0
1712,73.0,30.0,15.0,4.0,0.0
1713,73.0,0.0,15.0,4.0,0.0
1714,70.0,0.0,15.0,3.0,0.0
1715,61.0,0.0,60.0,5.0,0.0
1716,82.0,0.0,30.0,2.0,0.0
1717,73.0,30.0,15.0,4.0,0.0
1718,70.0,0.0,30.0,3.0,0.0
1719,82.0,0.0,30.0,2.0,0.0
1720,49.0,0.0,15.0,6.0,0.0
1721,82.0,0.0,30.0,2.0,0.0
1722,70.0,0.0,30.0,3.0,0.0
1723,61.0,0.0,60.0,5.0,0.0
1724,73.0,30.0,15.0,4.0,0.0
1725,82.0,0.0,30.0,2.0,0.0
1726,70.0,30.0,15.0,3.0,0.0
1727,61.0,0.0,60.0,5.0,0.0
1728,49.0,0.0,60.0,6.0,0.0
1729,73.0,0.0,30.0,4.0,0.0
1730,82.0,0.0,30.0,2.0,0.0
1731,73.0,0.0,30.0,4.0,0.0
1732,70.0,30.0,15.0,3.0,0.0
1733,82.0,0.0,30.0,2.0,0.0
1734,70.0,0.0,240.0,0.0,0.0
1735,79.0,0.0,240.0,0.0,0.0
1736,70.0,0.0,30.0,4.0,0.0
1737,51.0,0.0,60.0,6.0,0.0
1738,67.0,30.0,30.0,3.0,0.0
1739,79.0,0.0,15.0,2.0,0.0
1740,67.0,0.0,30.0,3.0,0.0
1741,79.0,0.0,15.0,2.0,0.0
1742,67.0,30.0,30.0,3.0,0.0
1743,70.0,30.0,15.0,4.0,0.0
1744,63.0,0.0,15.0,5.0,0.0
1745,51.0,0.0,60.0,6.0,0.0
1746,79.0,0.0,15.0,2.0,0.0
1747,67.0,0.0,30.0,3.0,0.0
1748,51.0,0.0,60.0,6.0,0.0
1749,67.0,30.0,30.0,3.0,0.0
1750,63.0,0.0,15.0,5.0,0.0
1751,79.0,0.0,15.0,2.0,0.0
1752,70.0,30.0,15.0,4.0,0.0
1753,79.0,0.0,15.0,2.0,0.0
1754,70.0,0.0,15.0,4.0,0.0
1755,67.0,0.0,30.0,3.0,0.0
1756,67.0,0.0,30.0,3.0,0.0
1757,63.0,0.0,60.0,5.0,0.0
1758,79.0,0.0,15.0,2.0,0.0
1759,70.0,30.0,15.0,4.0,0.0
1760,51.0,0.0,60.0,6.0,0.0
1761,67.0,0.0,30.0,3.0,0.0
1762,70.0,30.0,15.0,4.0,0.0
1763,79.0,30.0,30.0,2.0,0.0
1764,63.0,0.0,15.0,1.0,0.0
1765,56.0,0.0,120.0,1.0,0.0
1766,80.0,30.0,120.0,0.0,0.0
1767,63.0,30.0,30.0,4.0,0.0
1768,72.0,0.0,120.0,0.0,0.0
1769,56.0,0.0,120.0,5.0,0.0
1770,80.0,0.0,60.0,2.0,0.0
1771,44.0,0.0,120.0,6.0,0.0
1772,63.0,30.0,30.0,4.0,0.0
1773,75.0,0.0,60.0,2.0,0.0
1774,63.0,30.0,15.0,4.0,0.0
1775,72.0,30.0,60.0,2.0,0.0
1776,63.0,30.0,15.0,4.0,0.0
1777,63.0,0.0,15.0,4.0,0.0
1778,75.0,0.0,60.0,2.0,0.0
1779,63.0,30.0,15.0,4.0,0.0
1780,72.0,30.0,60.0,2.0,0.0
1781,63.0,30.0,15.0,4.0,0.0
1782,63.0,0.0,30.0,4.0,0.0
1783,63.0,30.0,30.0,4.0,0.0
1784,75.0,0.0,60.0,2.0,0.0
1785,80.0,30.0,60.0,2.0,0.0
1786,63.0,30.0,15.0,4.0,0.0
1787,63.0,30.0,15.0,4.0,0.0
1788,63.0,0.0,15.0,4.0,0.0
1789,84.0,0.0,60.0,2.0,0.0
1790,63.0,30.0,30.0,4.0,0.0
1791,56.0,0.0,240.0,1.0,0.0
1792,63.0,0.0,240.0,1.0,0.0
1793,84.0,0.0,240.0,0.0,0.0
1794,80.0,0.0,240.0,0.0,0.0
1795,63.0,30.0,30.0,4.0,0.0
1796,63.0,0.0,30.0,4.0,0.0
1797,87.0,30.0,15.0,2.0,0.0
1798,63.0,30.0,15.0,4.0,0.0
1799,84.0,30.0,60.0,2.0,0.0
1800,63.0,30.0,15.0,4.0,0.0
1801,56.0,30.0,120.0,5.0,0.0
1802,44.0,0.0,120.0,6.0,0.0
1803,63.0,0.0,30.0,4.0,0.0
1804,80.0,0.0,60.0,2.0,0.0
1805,63.0,30.0,30.0,4.0,0.0
1806,63.0,0.0,30.0,4.0,0.0
1807,51.0,0.0,120.0,6.0,0.0
1808,79.0,0.0,240.0,0.0,0.0
1809,82.0,0.0,240.0,0.0,0.0
1810,63.0,30.0,15.0,4.0,0.0
1811,85.0,30.0,15.0,2.0,0.0
1812,63.0,0.0,15.0,4.0,0.0
1813,82.0,0.0,60.0,2.0,0.0
1814,63.0,30.0,15.0,4.0,0.0
1815,51.0,0.0,120.0,5.0,0.0
1816,39.0,0.0,120.0,6.0,0.0
1817,63.0,30.0,30.0,4.0,0.0
1818,63.0,30.0,30.0,4.0,0.0
1819,79.0,0.0,60.0,2.0,0.0
1820,63.0,0.0,30.0,4.0,0.0
1821,80.0,30.0,60.0,2.0,0.0
1822,56.0,0.0,120.0,5.0,0.0
1823,44.0,30.0,120.0,6.0,0.0
1824,56.0,0.0,120.0,1.0,0.0
1825,63.0,30.0,15.0,1.0,0.0
1826,80.0,0.0,120.0,0.0,0.0
1827,63.0,30.0,30.0,4.0,0.0
1828,63.0,0.0,30.0,4.0,0.0
1829,63.0,30.0,30.0,4.0,0.0
1830,75.0,0.0,60.0,2.0,0.0
1831,63.0,0.0,15.0,4.0,0.0
1832,72.0,0.0,60.0,2.0,0.0
1833,63.0,30.0,15.0,4.0,0.0
1834,75.0,0.0,60.0,2.0,0.0
1835,63.0,30.0,15.0,4.0,0.0
1836,72.0,0.0,60.0,2.0,0.0
1837,63.0,30.0,15.0,4.0,0.0
1838,63.0,30.0,30.0,4.0,0.0
1839,75.0,0.0,60.0,2.0,0.0
1840,63.0,30.0,15.0,4.0,0.0
1841,80.0,30.0,60.0,2.0,0.0
1842,63.0,30.0,30.0,4.0,0.0
1843,63.0,0.0,30.0,4.0,0.0
1844,63.0,30.0,30.0,4.0,0.0
1845,84.0,30.0,60.0,2.0,0.0
1846,63.0,0.0,15.0,4.0,0.0
1847,84.0,0.0,240.0,0.0,0.0
1848,80.0,0.0,240.0,0.0,0.0
1849,56.0,0.0,240.0,1.0,0.0
1850,63.0,0.0,240.0,1.0,0.0
1851,63.0,30.0,15.0,4.0,0.0
1852,87.0,30.0,15.0,2.0,0.0
1853,63.0,30.0,15.0,4.0,0.0
1854,56.0,0.0,120.0,5.0,0.0
1855,84.0,0.0,60.0,2.0,0.0
1856,44.0,0.0,120.0,6.0,0.0
1857,63.0,30.0,15.0,4.0,0.0
1858,63.0,30.0,15.0,4.0,0.0
1859,80.0,30.0,60.0,2.0,0.0
1860,63.0,30.0,30.0,4.0,0.0
1861,79.0,0.0,240.0,0.0,0.0
1862,82.0,60.0,240.0,0.0,0.0
1863,63.0,0.0,15.0,4.0,0.0
1864,85.0,0.0,60.0,2.0,0.0
1865,51.0,0.0,120.0,6.0,0.0
1866,63.0,30.0,15.0,4.0,0.0
1867,63.0,30.0,15.0,4.0,0.0
1868,85.0,0.0,60.0,2.0,0.0
1869,63.0,30.0,15.0,4.0,0.0
1870,39.0,0.0,120.0,6.0,0.0
1871,51.0,0.0,120.0,5.0,0.0
1872,82.0,0.0,60.0,2.0,0.0
1873,63.0,30.0,15.0,4.0,0.0
1874,63.0,30.0,30.0,4.0,0.0
1875,79.0,0.0,60.0,2.0,0.0
1876,63.0,30.0,30.0,4.0,0.0
1877,63.0,0.0,30.0,4.0,0.0
1878,80.0,0.0,120.0,0.0,0.0
1879,80.0,0.0,60.0,2.0,0.0
1880,68.0,0.0,60.0,4.0,0.0
1881,63.0,0.0,15.0,1.0,0.0
1882,56.0,0.0,120.0,1.0,0.0
1883,56.0,60.0,60.0,6.0,0.0
1884,63.0,0.0,60.0,4.0,0.0
1885,75.0,0.0,60.0,2.0,0.0
1886,51.0,60.0,60.0,6.0,0.0
1887,60.0,0.0,60.0,4.0,0.0
1888,48.0,60.0,60.0,6.0,0.0
1889,72.0,0.0,60.0,2.0,0.0
1890,75.0,60.0,60.0,2.0,0.0
1891,51.0,0.0,60.0,6.0,0.0
1892,63.0,0.0,60.0,4.0,0.0
1893,56.0,60.0,360.0,1.0,0.0
1894,80.0,0.0,60.0,2.0,0.0
1895,80.0,0.0,360.0,0.0,0.0
1896,56.0,0.0,15.0,6.0,0.0
1897,68.0,60.0,15.0,4.0,0.0
1898,80.0,0.0,60.0,2.0,0.0
1899,56.0,60.0,60.0,6.0,0.0
1900,80.0,0.0,60.0,2.0,0.0
1901,68.0,0.0,15.0,4.0,0.0
1902,68.0,0.0,60.0,4.0,0.0
1903,80.0,0.0,15.0,2.0,0.0
1904,56.0,60.0,15.0,6.0,0.0
1905,63.0,0.0,60.0,4.0,0.0
1906,75.0,0.0,60.0,2.0,0.0
1907,51.0,0.0,60.0,6.0,0.0
1908,48.0,60.0,60.0,6.0,0.0
1909,60.0,0.0,60.0,4.0,0.0
1910,72.0,0.0,60.0,2.0,0.0
1911,75.0,60.0,60.0,2.0,0.0
1912,63.0,0.0,60.0,4.0,0.0
1913,51.0,0.0,60.0,6.0,0.0
1914,56.0,0.0,60.0,6.0,0.0
1915,80.0,90.0,360.0,0.0,0.0
1916,80.0,0.0,60.0,2.0,0.0
1917,68.0,60.0,60.0,4.0,0.0
1918,56.0,0.0,360.0,1.0,0.0
1919,80.0,0.0,60.0,2.0,0.0
1920,68.0,60.0,60.0,4.0,0.0
1921,56.0,0.0,15.0,6.0,0.0
1922,80.0,0.0,60.0,2.0,0.0
1923,68.0,60.0,15.0,4.0,0.0
1924,80.0,0.0,60.0,2.0,0.0
1925,56.0,0.0,15.0,6.0,0.0
1926,80.0,30.0,210.0,2.0,0.0
1927,68.0,0.0,120.0,4.0,0.0
1928,81.0,210.0,30.0,2.0,0.0
1929,82.0,30.0,210.0,2.0,0.0
1930,80.0,210.0,30.0,2.0,0.0
1931,78.0,30.0,210.0,2.0,0.0
1932,77.0,240.0,30.0,2.0,0.0
1933,75.0,90.0,240.0,2.0,0.0
1934,37.0,60.0,480.0,6.0,0.0
1935,61.0,0.0,240.0,5.0,0.0
1936,73.0,150.0,90.0,2.0,0.0
1937,61.0,90.0,120.0,2.0,0.0
1938,56.0,0.0,240.0,5.0,0.0
1939,49.0,0.0,240.0,6.0,0.0
1940,65.0,0.0,240.0,3.0,0.0
1941,73.0,60.0,30.0,2.0,0.0
1942,73.0,60.0,30.0,2.0,0.0
1943,73.0,30.0,30.0,2.0,0.0
1944,68.0,0.0,240.0,3.0,0.0
1945,53.0,60.0,240.0,5.0,0.0
1946,41.0,0.0,240.0,6.0,0.0
1947,72.0,30.0,60.0,2.0,0.0
1948,73.0,60.0,30.0,2.0,0.0
1949,73.0,60.0,30.0,2.0,0.0
1950,73.0,30.0,30.0,2.0,0.0
1951,65.0,0.0,240.0,3.0,0.0
1952,72.0,30.0,60.0,2.0,0.0
1953,58.0,0.0,240.0,5.0,0.0
1954,46.0,90.0,240.0,6.0,0.0
1955,73.0,60.0,30.0,2.0,0.0
1956,73.0,60.0,30.0,2.0,0.0
1957,73.0,30.0,30.0,2.0,0.0
1958,54.0,90.0,240.0,5.0,0.0
1959,70.0,0.0,240.0,3.0,0.0
1960,42.0,0.0,240.0,6.0,0.0
1961,75.0,150.0,90.0,2.0,0.0
1962,63.0,0.0,120.0,2.0,0.0
1963,43.0,60.0,240.0,6.0,0.0
1964,55.0,0.0,240.0,5.0,0.0
1965,61.0,0.0,240.0,3.0,0.0
1966,75.0,60.0,30.0,2.0,0.0
1967,75.0,60.0,30.0,2.0,0.0
1968,75.0,30.0,30.0,2.0,0.0
1969,56.0,90.0,720.0,5.0,0.0
1970,60.0,60.0,240.0,3.0,0.0
1971,44.0,0.0,720.0,6.0,0.0
1972,74.0,30.0,60.0,2.0,0.0
1973,75.0,60.0,30.0,2.0,0.0
1974,75.0,60.0,30.0,2.0,0.0
1975,75.0,30.0,30.0,2.0,0.0
1976,72.0,90.0,240.0,3.0,0.0
1977,74.0,30.0,60.0,2.0,0.0
1978,75.0,60.0,30.0,2.0,0.0
1979,75.0,60.0,30.0,2.0,0.0
1980,75.0,30.0,30.0,2.0,0.0
1981,77.0,150.0,90.0,2.0,0.0
1982,75.0,0.0,240.0,3.0,0.0
1983,65.0,0.0,120.0,2.0,0.0
1984,63.0,60.0,240.0,3.0,0.0
1985,57.0,0.0,240.0,5.0,0.0
1986,45.0,0.0,240.0,6.0,0.0
1987,77.0,60.0,30.0,2.0,0.0
1988,77.0,60.0,30.0,2.0,0.0
1989,77.0,30.0,30.0,2.0,0.0
1990,58.0,0.0,720.0,5.0,0.0
1991,46.0,90.0,720.0,6.0,0.0
1992,61.0,60.0,240.0,3.0,0.0
1993,76.0,30.0,60.0,2.0,0.0
1994,77.0,60.0,30.0,2.0,0.0
1995,77.0,60.0,30.0,2.0,0.0
1996,77.0,30.0,30.0,2.0,0.0
1997,76.0,30.0,60.0,2.0,0.0
1998,73.0,0.0,480.0,3.0,0.0
1999,77.0,60.0,30.0,2.0,0.0
2000,77.0,60.0,30.0,2.0,0.0
2001,77.0,120.0,30.0,2.0,0.0
2002,78.0,150.0,90.0,2.0,0.0
2003,66.0,0.0,120.0,2.0,0.0
2004,60.0,0.0,240.0,5.0,0.0
2005,75.0,120.0,240.0,3.0,0.0
2006,48.0,0.0,240.0,6.0,0.0
2007,78.0,60.0,30.0,2.0,0.0
2008,78.0,60.0,30.0,2.0,0.0
2009,78.0,30.0,30.0,2.0,0.0
2010,61.0,0.0,120.0,5.0,0.0
2011,49.0,120.0,120.0,6.0,0.0
2012,68.0,0.0,120.0,3.0,0.0
2013,77.0,0.0,240.0,2.0,0.0
2014,58.0,0.0,120.0,5.0,0.0
2015,70.0,60.0,240.0,4.0,0.0
2016,46.0,45.0,120.0,6.0,0.0
2017,73.0,0.0,240.0,3.0,0.0
2018,75.0,15.0,60.0,2.0,0.0
2019,42.0,0.0,120.0,6.0,0.0
2020,54.0,0.0,120.0,5.0,0.0
2021,77.0,15.0,15.0,2.0,0.0
2022,75.0,15.0,15.0,2.0,0.0
2023,77.0,15.0,15.0,2.0,0.0
2024,75.0,15.0,15.0,2.0,0.0
2025,77.0,0.0,15.0,2.0,0.0
2026,56.0,0.0,120.0,5.0,0.0
2027,72.0,0.0,120.0,3.0,0.0
2028,68.0,30.0,60.0,4.0,0.0
2029,75.0,0.0,60.0,2.0,0.0
2030,44.0,0.0,120.0,6.0,0.0
2031,73.0,30.0,30.0,2.0,0.0
2032,66.0,0.0,60.0,4.0,0.0
2033,75.0,30.0,30.0,2.0,0.0
2034,49.0,0.0,120.0,5.0,0.0
2035,73.0,60.0,30.0,2.0,0.0
2036,37.0,0.0,120.0,6.0,0.0
2037,65.0,30.0,120.0,4.0,0.0
2038,61.0,0.0,120.0,3.0,0.0
2039,73.0,30.0,30.0,2.0,0.0
2040,75.0,60.0,30.0,2.0,0.0
2041,77.0,0.0,30.0,2.0,0.0
2042,73.0,60.0,30.0,3.0,0.0
2043,75.0,0.0,30.0,3.0,0.0
2044,78.0,60.0,30.0,2.0,0.0
2045,77.0,60.0,30.0,2.0,0.0
2046,73.0,0.0,30.0,3.0,0.0
2047,75.0,0.0,30.0,3.0,0.0
2048,78.0,60.0,30.0,2.0,0.0
2049,80.0,60.0,30.0,2.0,0.0
2050,72.0,0.0,30.0,3.0,0.0
2051,73.0,30.0,120.0,3.0,0.0
2052,77.0,60.0,30.0,2.0,0.0
2053,73.0,30.0,30.0,2.0,0.0
2054,75.0,60.0,30.0,2.0,0.0
2055,77.0,60.0,30.0,2.0,0.0
2056,73.0,0.0,30.0,3.0,0.0
2057,78.0,0.0,30.0,2.0,0.0
2058,75.0,60.0,30.0,3.0,0.0
2059,77.0,0.0,30.0,2.0,0.0
2060,73.0,60.0,30.0,3.0,0.0
2061,75.0,0.0,30.0,3.0,0.0
2062,78.0,60.0,30.0,2.0,0.0
2063,72.0,0.0,30.0,3.0,0.0
2064,80.0,60.0,30.0,2.0,0.0
2065,77.0,60.0,30.0,2.0,0.0
2066,73.0,30.0,120.0,3.0,0.0
2067,73.0,30.0,30.0,2.0,0.0
2068,75.0,60.0,30.0,2.0,0.0
2069,73.0,60.0,30.0,3.0,0.0
2070,77.0,0.0,30.0,2.0,0.0
2071,75.0,0.0,30.0,3.0,0.0
2072,78.0,60.0,30.0,2.0,0.0
2073,77.0,0.0,30.0,2.0,0.0
2074,73.0,60.0,30.0,3.0,0.0
2075,78.0,60.0,30.0,2.0,0.0
2076,75.0,0.0,30.0,3.0,0.0
2077,80.0,0.0,30.0,2.0,0.0
2078,77.0,60.0,30.0,3.0,0.0
2079,82.0,60.0,30.0,2.0,0.0
2080,78.0,0.0,30.0,3.0,0.0
2081,77.0,60.0,30.0,3.0,0.0
2082,80.0,0.0,30.0,2.0,0.0
2083,78.0,0.0,30.0,2.0,0.0
2084,75.0,60.0,30.0,3.0,0.0
2085,80.0,60.0,30.0,2.0,0.0
2086,77.0,0.0,30.0,3.0,0.0
2087,82.0,60.0,30.0,2.0,0.0
2088,78.0,0.0,30.0,3.0,0.0
2089,80.0,60.0,30.0,2.0,0.0
2090,77.0,0.0,30.0,3.0,0.0
2091,78.0,0.0,30.0,3.0,0.0
2092,82.0,60.0,30.0,2.0,0.0
2093,84.0,0.0,30.0,2.0,0.0
2094,75.0,120.0,30.0,3.0,0.0
2095,49.0,0.0,4320.0,1.0,0.0
2096,73.0,30.0,2880.0,0.0,0.0
2097,61.0,0.0,4320.0,1.0,0.0
2098,77.0,0.0,90.0,3.0,0.0
2099,85.0,0.0,4800.0,0.0,0.0
2100,85.0,150.0,90.0,2.0,0.0
2101,73.0,0.0,120.0,2.0,0.0
2102,61.0,90.0,120.0,3.0,0.0
2103,65.0,0.0,90.0,5.0,0.0
2104,68.0,0.0,90.0,4.0,0.0
2105,53.0,0.0,90.0,6.0,0.0
2106,85.0,60.0,30.0,2.0,0.0
2107,73.0,0.0,30.0,3.0,0.0
2108,41.0,0.0,120.0,6.0,0.0
2109,56.0,0.0,120.0,4.0,0.0
2110,53.0,60.0,120.0,5.0,0.0
2111,73.0,60.0,30.0,3.0,0.0
2112,85.0,0.0,30.0,2.0,0.0
2113,85.0,0.0,30.0,2.0,0.0
2114,73.0,30.0,30.0,3.0,0.0
2115,72.0,30.0,60.0,3.0,0.0
2116,84.0,0.0,60.0,2.0,0.0
2117,68.0,0.0,30.0,4.0,0.0
2118,65.0,0.0,30.0,5.0,0.0
2119,73.0,0.0,30.0,3.0,0.0
2120,53.0,0.0,30.0,6.0,0.0
2121,85.0,60.0,30.0,2.0,0.0
2122,53.0,0.0,30.0,6.0,0.0
2123,68.0,0.0,30.0,4.0,0.0
2124,73.0,60.0,30.0,3.0,0.0
2125,85.0,0.0,30.0,2.0,0.0
2126,65.0,0.0,30.0,5.0,0.0
2127,65.0,0.0,30.0,5.0,0.0
2128,73.0,0.0,30.0,3.0,0.0
2129,85.0,0.0,30.0,2.0,0.0
2130,68.0,90.0,30.0,4.0,0.0
2131,53.0,0.0,30.0,6.0,0.0
2132,72.0,30.0,60.0,3.0,0.0
2133,84.0,0.0,60.0,2.0,0.0
2134,66.0,0.0,60.0,4.0,0.0
2135,63.0,0.0,60.0,5.0,0.0
2136,51.0,0.0,60.0,6.0,0.0
2137,85.0,0.0,30.0,2.0,0.0
2138,65.0,60.0,30.0,5.0,0.0
2139,53.0,0.0,30.0,6.0,0.0
2140,73.0,0.0,30.0,3.0,0.0
2141,68.0,0.0,30.0,4.0,0.0
2142,85.0,0.0,30.0,2.0,0.0
2143,73.0,0.0,30.0,3.0,0.0
2144,68.0,60.0,30.0,4.0,0.0
2145,65.0,0.0,30.0,5.0,0.0
2146,53.0,0.0,30.0,6.0,0.0
2147,73.0,0.0,30.0,3.0,0.0
2148,53.0,0.0,30.0,6.0,0.0
2149,68.0,0.0,30.0,4.0,0.0
2150,65.0,0.0,30.0,5.0,0.0
2151,85.0,90.0,30.0,2.0,0.0
2152,87.0,0.0,90.0,2.0,0.0
2153,75.0,0.0,90.0,3.0,0.0
2154,53.0,0.0,60.0,6.0,0.0
2155,65.0,0.0,60.0,5.0,0.0
2156,69.0,30.0,60.0,4.0,0.0
2157,66.0,60.0,30.0,5.0,0.0
2158,54.0,0.0,30.0,6.0,0.0
2159,70.0,0.0,30.0,4.0,0.0
2160,70.0,0.0,30.0,4.0,0.0
2161,66.0,60.0,30.0,5.0,0.0
2162,75.0,90.0,120.0,2.0,0.0
2163,63.0,0.0,120.0,3.0,0.0
2164,54.0,0.0,30.0,6.0,0.0
2165,70.0,0.0,30.0,4.0,0.0
2166,66.0,30.0,30.0,5.0,0.0
2167,54.0,0.0,30.0,6.0,0.0
2168,66.0,0.0,90.0,5.0,0.0
2169,54.0,0.0,90.0,6.0,0.0
2170,70.0,0.0,90.0,4.0,0.0
2171,87.0,0.0,30.0,2.0,0.0
2172,75.0,60.0,30.0,3.0,0.0
2173,58.0,0.0,120.0,4.0,0.0
2174,75.0,60.0,30.0,3.0,0.0
2175,87.0,0.0,30.0,2.0,0.0
2176,54.0,60.0,120.0,5.0,0.0
2177,42.0,0.0,120.0,6.0,0.0
2178,87.0,0.0,30.0,2.0,0.0
2179,75.0,30.0,30.0,3.0,0.0
2180,86.0,30.0,60.0,2.0,0.0
2181,74.0,0.0,60.0,3.0,0.0
2182,87.0,0.0,30.0,2.0,0.0
2183,70.0,0.0,30.0,4.0,0.0
2184,54.0,0.0,30.0,6.0,0.0
2185,75.0,60.0,30.0,3.0,0.0
2186,66.0,0.0,30.0,5.0,0.0
2187,66.0,0.0,30.0,5.0,0.0
2188,70.0,60.0,30.0,4.0,0.0
2189,54.0,0.0,30.0,6.0,0.0
2190,75.0,0.0,30.0,3.0,0.0
2191,87.0,0.0,30.0,2.0,0.0
2192,70.0,0.0,30.0,4.0,0.0
2193,66.0,0.0,30.0,5.0,0.0
2194,54.0,0.0,30.0,6.0,0.0
2195,87.0,0.0,30.0,2.0,0.0
2196,75.0,90.0,30.0,3.0,0.0
2197,69.0,0.0,60.0,4.0,0.0
2198,74.0,0.0,60.0,3.0,0.0
2199,86.0,30.0,60.0,2.0,0.0
2200,53.0,0.0,60.0,6.0,0.0
2201,65.0,0.0,60.0,5.0,0.0
2202,75.0,0.0,30.0,3.0,0.0
2203,54.0,60.0,30.0,6.0,0.0
2204,66.0,0.0,30.0,5.0,0.0
2205,70.0,0.0,30.0,4.0,0.0
2206,87.0,0.0,30.0,2.0,0.0
2207,70.0,0.0,30.0,4.0,0.0
2208,75.0,0.0,30.0,3.0,0.0
2209,54.0,0.0,30.0,6.0,0.0
2210,66.0,60.0,30.0,5.0,0.0
2211,87.0,0.0,30.0,2.0,0.0
2212,87.0,90.0,30.0,2.0,0.0
2213,75.0,0.0,30.0,3.0,0.0
2214,70.0,0.0,30.0,4.0,0.0
2215,66.0,0.0,30.0,5.0,0.0
2216,54.0,0.0,30.0,6.0,0.0
2217,67.0,0.0,60.0,5.0,0.0
2218,55.0,0.0,60.0,6.0,0.0
2219,77.0,0.0,90.0,3.0,0.0
2220,70.0,30.0,60.0,4.0,0.0
2221,89.0,0.0,90.0,2.0,0.0
2222,68.0,0.0,30.0,5.0,0.0
2223,56.0,0.0,30.0,6.0,0.0
2224,71.0,60.0,30.0,4.0,0.0
2225,77.0,90.0,120.0,2.0,0.0
2226,56.0,60.0,30.0,6.0,0.0
2227,68.0,0.0,30.0,5.0,0.0
2228,65.0,0.0,120.0,3.0,0.0
2229,71.0,0.0,30.0,4.0,0.0
2230,56.0,0.0,30.0,6.0,0.0
2231,68.0,30.0,30.0,5.0,0.0
2232,71.0,0.0,30.0,4.0,0.0
2233,71.0,0.0,90.0,4.0,0.0
2234,56.0,0.0,90.0,6.0,0.0
2235,68.0,0.0,90.0,5.0,0.0
2236,77.0,0.0,30.0,3.0,0.0
2237,89.0,60.0,30.0,2.0,0.0
2238,89.0,0.0,30.0,2.0,0.0
2239,77.0,60.0,30.0,3.0,0.0
2240,44.0,60.0,120.0,6.0,0.0
2241,59.0,0.0,120.0,4.0,0.0
2242,56.0,0.0,120.0,5.0,0.0
2243,77.0,30.0,30.0,3.0,0.0
2244,89.0,0.0,30.0,2.0,0.0
2245,88.0,0.0,60.0,2.0,0.0
2246,76.0,30.0,60.0,3.0,0.0
2247,89.0,0.0,30.0,2.0,0.0
2248,77.0,60.0,30.0,3.0,0.0
2249,71.0,0.0,30.0,4.0,0.0
2250,68.0,0.0,30.0,5.0,0.0
2251,56.0,0.0,30.0,6.0,0.0
2252,68.0,0.0,30.0,5.0,0.0
2253,71.0,0.0,30.0,4.0,0.0
2254,77.0,0.0,30.0,3.0,0.0
2255,56.0,60.0,30.0,6.0,0.0
2256,89.0,0.0,30.0,2.0,0.0
2257,71.0,90.0,30.0,4.0,0.0
2258,89.0,0.0,30.0,2.0,0.0
2259,77.0,0.0,30.0,3.0,0.0
2260,68.0,0.0,30.0,5.0,0.0
2261,56.0,0.0,30.0,6.0,0.0
2262,55.0,0.0,60.0,6.0,0.0
2263,88.0,30.0,60.0,2.0,0.0
2264,70.0,0.0,60.0,4.0,0.0
2265,76.0,0.0,60.0,3.0,0.0
2266,67.0,0.0,60.0,5.0,0.0
2267,68.0,0.0,30.0,5.0,0.0
2268,71.0,0.0,30.0,4.0,0.0
2269,89.0,60.0,30.0,2.0,0.0
2270,56.0,0.0,30.0,6.0,0.0
2271,77.0,0.0,30.0,3.0,0.0
2272,89.0,0.0,30.0,2.0,0.0
2273,68.0,0.0,30.0,5.0,0.0
2274,71.0,0.0,30.0,4.0,0.0
2275,77.0,0.0,30.0,3.0,0.0
2276,56.0,60.0,30.0,6.0,0.0
2277,71.0,30.0,30.0,4.0,0.0
2278,89.0,0.0,30.0,2.0,0.0
2279,68.0,0.0,30.0,5.0,0.0
2280,56.0,0.0,30.0,6.0,0.0
2281,77.0,0.0,30.0,3.0,0.0
2282,66.0,0.0,30.0,4.0,0.0
2283,78.0,30.0,30.0,3.0,0.0
2284,90.0,0.0,30.0,2.0,0.0
2285,70.0,0.0,60.0,5.0,0.0
2286,78.0,0.0,240.0,0.0,0.0
2287,58.0,0.0,60.0,6.0,0.0
2288,90.0,0.0,30.0,2.0,0.0
2289,66.0,0.0,30.0,4.0,0.0
2290,85.0,30.0,15.0,3.0,0.0
2291,58.0,0.0,60.0,5.0,0.0
2292,46.0,0.0,60.0,6.0,0.0
2293,90.0,0.0,30.0,2.0,0.0
2294,66.0,30.0,30.0,4.0,0.0
2295,85.0,0.0,30.0,3.0,0.0
2296,90.0,0.0,30.0,2.0,0.0
2297,66.0,30.0,15.0,4.0,0.0
2298,85.0,0.0,30.0,3.0,0.0
2299,58.0,0.0,60.0,5.0,0.0
2300,85.0,0.0,30.0,3.0,0.0
2301,90.0,0.0,15.0,2.0,0.0
2302,66.0,30.0,15.0,4.0,0.0
2303,46.0,0.0,15.0,6.0,0.0
2304,58.0,0.0,60.0,5.0,0.0
2305,66.0,0.0,30.0,4.0,0.0
2306,85.0,0.0,30.0,3.0,0.0
2307,90.0,30.0,30.0,2.0,0.0
2308,85.0,30.0,30.0,3.0,0.0
2309,66.0,0.0,30.0,4.0,0.0
2310,90.0,0.0,30.0,2.0,0.0
2311,68.0,0.0,30.0,4.0,0.0
2312,77.0,0.0,240.0,0.0,0.0
2313,89.0,30.0,15.0,2.0,0.0
2314,85.0,0.0,15.0,3.0,0.0
2315,85.0,0.0,15.0,3.0,0.0
2316,56.0,0.0,15.0,5.0,0.0
2317,44.0,0.0,15.0,6.0,0.0
2318,68.0,30.0,15.0,4.0,0.0
2319,89.0,0.0,15.0,2.0,0.0
2320,68.0,0.0,15.0,4.0,0.0
2321,85.0,0.0,15.0,3.0,0.0
2322,89.0,30.0,15.0,2.0,0.0
2323,56.0,0.0,15.0,5.0,0.0
2324,44.0,0.0,15.0,6.0,0.0
2325,89.0,30.0,15.0,2.0,0.0
2326,68.0,0.0,15.0,4.0,0.0
2327,68.0,0.0,15.0,4.0,0.0
2328,89.0,0.0,30.0,2.0,0.0
2329,85.0,30.0,15.0,3.0,0.0
2330,68.0,0.0,15.0,4.0,0.0
2331,44.0,30.0,15.0,6.0,0.0
2332,56.0,0.0,15.0,5.0,0.0
2333,89.0,30.0,15.0,2.0,0.0
2334,85.0,0.0,15.0,3.0,0.0
2335,68.0,0.0,30.0,4.0,0.0
2336,70.0,0.0,30.0,4.0,0.0
2337,75.0,0.0,240.0,0.0,0.0
2338,85.0,30.0,15.0,3.0,0.0
2339,85.0,30.0,15.0,3.0,0.0
2340,87.0,0.0,15.0,2.0,0.0
2341,42.0,30.0,15.0,6.0,0.0
2342,87.0,0.0,15.0,2.0,0.0
2343,70.0,0.0,15.0,4.0,0.0
2344,85.0,0.0,15.0,3.0,0.0
2345,54.0,0.0,15.0,5.0,0.0
2346,70.0,0.0,15.0,4.0,0.0
2347,87.0,30.0,30.0,2.0,0.0
2348,70.0,0.0,15.0,4.0,0.0
2349,85.0,0.0,15.0,3.0,0.0
2350,54.0,0.0,15.0,5.0,0.0
2351,87.0,0.0,30.0,2.0,0.0
2352,42.0,0.0,60.0,6.0,0.0
2353,70.0,0.0,30.0,4.0,0.0
2354,87.0,0.0,30.0,2.0,0.0
2355,85.0,0.0,30.0,3.0,0.0
2356,54.0,30.0,15.0,5.0,0.0
2357,87.0,0.0,30.0,2.0,0.0
2358,42.0,0.0,60.0,6.0,0.0
2359,85.0,0.0,30.0,3.0,0.0
2360,70.0,30.0,30.0,4.0,0.0
2361,70.0,0.0,30.0,4.0,0.0
2362,85.0,0.0,30.0,3.0,0.0
2363,87.0,0.0,30.0,2.0,0.0
2364,44.0,0.0,60.0,6.0,0.0
2365,85.0,0.0,30.0,3.0,0.0
2366,89.0,0.0,30.0,2.0,0.0
2367,68.0,30.0,30.0,4.0,0.0
2368,77.0,0.0,240.0,0.0,0.0
2369,89.0,0.0,30.0,2.0,0.0
2370,56.0,0.0,15.0,5.0,0.0
2371,85.0,0.0,15.0,3.0,0.0
2372,68.0,30.0,15.0,4.0,0.0
2373,68.0,0.0,15.0,4.0,0.0
2374,89.0,30.0,15.0,2.0,0.0
2375,89.0,0.0,30.0,2.0,0.0
2376,56.0,30.0,15.0,5.0,0.0
2377,85.0,0.0,15.0,3.0,0.0
2378,68.0,0.0,30.0,4.0,0.0
2379,44.0,0.0,15.0,6.0,0.0
2380,68.0,0.0,30.0,4.0,0.0
2381,85.0,0.0,30.0,3.0,0.0
2382,56.0,30.0,15.0,5.0,0.0
2383,44.0,30.0,60.0,6.0,0.0
2384,85.0,30.0,30.0,3.0,0.0
2385,89.0,0.0,15.0,2.0,0.0
2386,68.0,0.0,15.0,4.0,0.0
2387,89.0,0.0,15.0,2.0,0.0
2388,66.0,30.0,30.0,4.0,0.0
2389,85.0,0.0,15.0,3.0,0.0
2390,78.0,0.0,240.0,0.0,0.0
2391,90.0,0.0,15.0,2.0,0.0
2392,90.0,0.0,15.0,2.0,0.0
2393,66.0,30.0,15.0,4.0,0.0
2394,46.0,0.0,15.0,6.0,0.0
2395,85.0,0.0,15.0,3.0,0.0
2396,58.0,0.0,15.0,5.0,0.0
2397,90.0,30.0,30.0,2.0,0.0
2398,85.0,30.0,15.0,3.0,0.0
2399,66.0,0.0,15.0,4.0,0.0
2400,85.0,0.0,15.0,3.0,0.0
2401,58.0,0.0,60.0,5.0,0.0
2402,90.0,30.0,30.0,2.0,0.0
2403,66.0,0.0,30.0,4.0,0.0
2404,46.0,0.0,60.0,6.0,0.0
2405,66.0,0.0,30.0,4.0,0.0
2406,85.0,0.0,15.0,3.0,0.0
2407,90.0,30.0,30.0,2.0,0.0
2408,58.0,0.0,60.0,5.0,0.0
2409,46.0,0.0,60.0,6.0,0.0
2410,85.0,0.0,30.0,3.0,0.0
2411,66.0,0.0,30.0,4.0,0.0
2412,66.0,30.0,30.0,4.0,0.0
2413,90.0,30.0,15.0,2.0,0.0
2414,77.0,0.0,240.0,0.0,0.0
2415,56.0,30.0,60.0,5.0,0.0
2416,44.0,0.0,60.0,6.0,0.0
2417,85.0,0.0,15.0,3.0,0.0
2418,68.0,30.0,30.0,4.0,0.0
2419,89.0,0.0,15.0,2.0,0.0
2420,68.0,0.0,30.0,4.0,0.0
2421,85.0,0.0,15.0,3.0,0.0
2422,89.0,30.0,30.0,2.0,0.0
2423,68.0,0.0,30.0,4.0,0.0
2424,68.0,0.0,30.0,4.0,0.0
2425,68.0,0.0,30.0,4.0,0.0
2426,56.0,0.0,15.0,5.0,0.0
2427,44.0,0.0,15.0,6.0,0.0
2428,85.0,30.0,15.0,3.0,0.0
2429,89.0,0.0,15.0,2.0,0.0
2430,89.0,0.0,15.0,2.0,0.0
2431,85.0,30.0,15.0,3.0,0.0
2432,85.0,0.0,15.0,3.0,0.0
2433,89.0,0.0,15.0,2.0,0.0
2434,44.0,0.0,60.0,6.0,0.0
2435,68.0,0.0,15.0,4.0,0.0
2436,56.0,0.0,60.0,5.0,0.0
2437,68.0,30.0,15.0,4.0,0.0
2438,89.0,0.0,30.0,2.0,0.0
2439,85.0,30.0,15.0,3.0,0.0
2440,82.0,0.0,480.0,0.0,0.0
2441,61.0,0.0,480.0,1.0,0.0
2442,42.0,0.0,60.0,6.0,0.0
2443,85.0,0.0,15.0,3.0,0.0
2444,70.0,0.0,15.0,4.0,0.0
2445,87.0,30.0,15.0,2.0,0.0
2446,87.0,0.0,15.0,2.0,0.0
2447,85.0,0.0,15.0,3.0,0.0
2448,54.0,30.0,15.0,5.0,0.0
2449,42.0,0.0,60.0,6.0,0.0
2450,87.0,0.0,15.0,2.0,0.0
2451,85.0,30.0,15.0,3.0,0.0
2452,70.0,0.0,15.0,4.0,0.0
2453,87.0,30.0,15.0,2.0,0.0
2454,70.0,0.0,15.0,4.0,0.0
2455,70.0,0.0,15.0,4.0,0.0
2456,87.0,30.0,15.0,2.0,0.0
2457,85.0,0.0,15.0,3.0,0.0
2458,70.0,0.0,15.0,4.0,0.0
2459,85.0,0.0,15.0,3.0,0.0
2460,54.0,0.0,15.0,5.0,0.0
2461,42.0,30.0,15.0,6.0,0.0
2462,87.0,30.0,30.0,2.0,0.0
2463,85.0,30.0,30.0,3.0,0.0
2464,87.0,0.0,15.0,2.0,0.0
2465,43.0,0.0,60.0,6.0,0.0
2466,70.0,0.0,15.0,4.0,0.0
2467,55.0,0.0,60.0,5.0,0.0
2468,85.0,0.0,15.0,3.0,0.0
2469,87.0,0.0,15.0,2.0,0.0
2470,87.0,0.0,15.0,2.0,0.0
2471,43.0,0.0,60.0,6.0,0.0
2472,70.0,30.0,15.0,4.0,0.0
2473,55.0,0.0,60.0,5.0,0.0
2474,85.0,0.0,30.0,3.0,0.0
2475,87.0,0.0,15.0,2.0,0.0
2476,85.0,30.0,30.0,3.0,0.0
2477,87.0,0.0,15.0,2.0,0.0
2478,70.0,0.0,15.0,4.0,0.0
2479,85.0,30.0,30.0,3.0,0.0
2480,87.0,0.0,15.0,2.0,0.0
2481,70.0,0.0,15.0,4.0,0.0
2482,85.0,0.0,15.0,3.0,0.0
2483,43.0,0.0,15.0,6.0,0.0
2484,87.0,0.0,15.0,2.0,0.0
2485,55.0,0.0,15.0,5.0,0.0
2486,70.0,0.0,30.0,4.0,0.0
2487,85.0,0.0,30.0,3.0,0.0
2488,70.0,0.0,30.0,4.0,0.0
2489,87.0,30.0,15.0,2.0,0.0
2490,56.0,0.0,120.0,1.0,0.0
2491,80.0,30.0,120.0,0.0,0.0
2492,84.0,0.0,120.0,0.0,0.0
2493,68.0,30.0,30.0,4.0,0.0
2494,84.0,0.0,60.0,3.0,0.0
2495,63.0,0.0,15.0,1.0,0.0
2496,56.0,0.0,60.0,5.0,0.0
2497,44.0,0.0,60.0,6.0,0.0
2498,87.0,30.0,60.0,2.0,0.0
2499,68.0,30.0,30.0,4.0,0.0
2500,68.0,30.0,30.0,4.0,0.0
2501,80.0,0.0,60.0,2.0,0.0
2502,84.0,30.0,60.0,3.0,0.0
2503,68.0,60.0,30.0,4.0,0.0
2504,72.0,0.0,60.0,3.0,0.0
2505,75.0,30.0,60.0,2.0,0.0
2506,68.0,30.0,30.0,4.0,0.0
2507,68.0,60.0,30.0,4.0,0.0
2508,78.0,30.0,60.0,2.0,0.0
2509,75.0,0.0,60.0,3.0,0.0
2510,68.0,30.0,30.0,4.0,0.0
2511,68.0,60.0,30.0,4.0,0.0
2512,77.0,30.0,60.0,2.0,0.0
2513,68.0,30.0,30.0,4.0,0.0
2514,73.0,0.0,60.0,3.0,0.0
2515,68.0,60.0,30.0,4.0,0.0
2516,68.0,30.0,30.0,4.0,0.0
2517,80.0,0.0,60.0,2.0,0.0
2518,77.0,30.0,60.0,3.0,0.0
2519,68.0,60.0,30.0,4.0,0.0
2520,44.0,0.0,300.0,1.0,0.0
2521,56.0,0.0,300.0,1.0,0.0
2522,77.0,0.0,30.0,3.0,0.0
2523,77.0,0.0,120.0,0.0,0.0
2524,85.0,0.0,240.0,0.0,0.0
2525,68.0,0.0,30.0,4.0,0.0
2526,56.0,0.0,60.0,5.0,0.0
2527,85.0,30.0,15.0,2.0,0.0
2528,68.0,0.0,30.0,4.0,0.0
2529,68.0,0.0,30.0,4.0,0.0
2530,77.0,0.0,15.0,3.0,0.0
2531,44.0,30.0,15.0,6.0,0.0
2532,85.0,0.0,15.0,2.0,0.0
2533,77.0,30.0,15.0,3.0,0.0
2534,85.0,0.0,15.0,2.0,0.0
2535,68.0,0.0,30.0,4.0,0.0
2536,79.0,0.0,120.0,0.0,0.0
2537,85.0,0.0,15.0,2.0,0.0
2538,44.0,0.0,15.0,6.0,0.0
2539,70.0,0.0,30.0,4.0,0.0
2540,56.0,30.0,15.0,5.0,0.0
2541,79.0,30.0,15.0,3.0,0.0
2542,85.0,0.0,30.0,2.0,0.0
2543,70.0,0.0,30.0,4.0,0.0
2544,56.0,0.0,15.0,5.0,0.0
2545,79.0,0.0,15.0,3.0,0.0
2546,85.0,0.0,15.0,2.0,0.0
2547,70.0,30.0,15.0,4.0,0.0
2548,80.0,0.0,60.0,3.0,0.0
2549,44.0,0.0,15.0,6.0,0.0
2550,56.0,30.0,60.0,5.0,0.0
2551,63.0,30.0,30.0,4.0,0.0
2552,84.0,0.0,60.0,2.0,0.0
2553,84.0,0.0,60.0,0.0,0.0
2554,80.0,0.0,60.0,0.0,0.0
2555,68.0,60.0,30.0,4.0,0.0
2556,68.0,30.0,30.0,4.0,0.0
2557,87.0,0.0,60.0,2.0,0.0
2558,84.0,30.0,60.0,3.0,0.0
2559,68.0,60.0,30.0,4.0,0.0
2560,68.0,30.0,30.0,4.0,0.0
2561,75.0,30.0,60.0,2.0,0.0
2562,72.0,0.0,60.0,3.0,0.0
2563,68.0,60.0,30.0,4.0,0.0
2564,68.0,30.0,30.0,4.0,0.0
2565,78.0,0.0,60.0,2.0,0.0
2566,75.0,30.0,60.0,3.0,0.0
2567,68.0,60.0,30.0,4.0,0.0
2568,68.0,30.0,30.0,4.0,0.0
2569,77.0,30.0,60.0,2.0,0.0
2570,73.0,0.0,60.0,3.0,0.0
2571,68.0,60.0,30.0,4.0,0.0
2572,77.0,0.0,60.0,3.0,0.0
2573,80.0,30.0,60.0,2.0,0.0
2574,68.0,30.0,30.0,4.0,0.0
2575,68.0,60.0,30.0,4.0,0.0
2576,68.0,0.0,30.0,4.0,0.0
2577,56.0,0.0,300.0,1.0,0.0
2578,44.0,0.0,300.0,1.0,0.0
2579,85.0,30.0,30.0,2.0,0.0
2580,44.0,0.0,60.0,6.0,0.0
2581,77.0,0.0,120.0,0.0,0.0
2582,85.0,0.0,240.0,0.0,0.0
2583,77.0,0.0,15.0,3.0,0.0
2584,56.0,0.0,15.0,5.0,0.0
2585,85.0,0.0,15.0,2.0,0.0
2586,68.0,30.0,15.0,4.0,0.0
2587,77.0,0.0,15.0,3.0,0.0
2588,77.0,0.0,15.0,3.0,0.0
2589,68.0,0.0,30.0,4.0,0.0
2590,85.0,0.0,15.0,2.0,0.0
2591,56.0,0.0,15.0,5.0,0.0
2592,79.0,60.0,120.0,0.0,0.0
2593,44.0,0.0,15.0,6.0,0.0
2594,70.0,0.0,30.0,4.0,0.0
2595,85.0,0.0,15.0,2.0,0.0
2596,79.0,30.0,15.0,3.0,0.0
2597,79.0,0.0,15.0,3.0,0.0
2598,70.0,0.0,15.0,4.0,0.0
2599,56.0,0.0,15.0,5.0,0.0
2600,44.0,30.0,15.0,6.0,0.0
2601,70.0,0.0,30.0,4.0,0.0
2602,85.0,30.0,15.0,2.0,0.0
2603,79.0,0.0,30.0,3.0,0.0
2604,80.0,0.0,60.0,0.0,0.0
2605,84.0,0.0,60.0,0.0,0.0
2606,44.0,0.0,60.0,6.0,0.0
2607,80.0,0.0,60.0,3.0,0.0
2608,56.0,0.0,15.0,5.0,0.0
2609,63.0,90.0,60.0,4.0,0.0
2610,84.0,0.0,60.0,2.0,0.0
2611,44.0,0.0,120.0,6.0,0.0
2612,68.0,0.0,30.0,3.0,0.0
2613,56.0,60.0,120.0,5.0,0.0
2614,80.0,30.0,15.0,2.0,0.0
2615,80.0,0.0,15.0,2.0,0.0
2616,68.0,30.0,15.0,3.0,0.0
2617,68.0,30.0,15.0,3.0,0.0
2618,80.0,0.0,30.0,2.0,0.0
2619,60.0,90.0,60.0,3.0,0.0
2620,72.0,0.0,60.0,2.0,0.0
2621,48.0,0.0,60.0,5.0,0.0
2622,36.0,0.0,60.0,6.0,0.0
2623,68.0,30.0,30.0,3.0,0.0
2624,56.0,0.0,120.0,5.0,0.0
2625,44.0,0.0,120.0,6.0,0.0
2626,80.0,0.0,15.0,2.0,0.0
2627,68.0,30.0,30.0,3.0,0.0
2628,68.0,0.0,30.0,3.0,0.0
2629,80.0,30.0,15.0,2.0,0.0
2630,68.0,60.0,30.0,3.0,0.0
2631,73.0,0.0,60.0,2.0,0.0
2632,61.0,90.0,60.0,3.0,0.0
2633,49.0,0.0,60.0,5.0,0.0
2634,37.0,0.0,60.0,6.0,0.0
2635,56.0,0.0,120.0,5.0,0.0
2636,44.0,0.0,120.0,6.0,0.0
2637,68.0,0.0,15.0,3.0,0.0
2638,80.0,30.0,15.0,2.0,0.0
2639,80.0,0.0,15.0,2.0,0.0
2640,68.0,30.0,30.0,3.0,0.0
2641,80.0,0.0,30.0,2.0,0.0
2642,68.0,60.0,30.0,3.0,0.0
2643,74.0,0.0,60.0,2.0,0.0
2644,62.0,90.0,60.0,3.0,0.0
2645,50.0,0.0,60.0,5.0,0.0
2646,38.0,0.0,60.0,6.0,0.0
2647,56.0,0.0,120.0,5.0,0.0
2648,44.0,0.0,120.0,6.0,0.0
2649,80.0,30.0,30.0,2.0,0.0
2650,68.0,0.0,15.0,3.0,0.0
2651,80.0,0.0,30.0,2.0,0.0
2652,68.0,30.0,15.0,3.0,0.0
2653,80.0,0.0,30.0,2.0,0.0
2654,68.0,30.0,15.0,3.0,0.0
2655,80.0,30.0,30.0,2.0,0.0
2656,67.0,0.0,120.0,3.0,0.0
2657,75.0,0.0,1560.0,0.0,0.0
2658,79.0,30.0,30.0,2.0,0.0
2659,63.0,30.0,120.0,1.0,0.0
2660,75.0,30.0,60.0,4.0,0.0
2661,51.0,0.0,120.0,6.0,0.0
2662,63.0,0.0,120.0,5.0,0.0
2663,87.0,0.0,1560.0,0.0,0.0
2664,77.0,0.0,30.0,2.0,0.0
2665,75.0,30.0,30.0,2.0,0.0
2666,43.0,0.0,120.0,6.0,0.0
2667,55.0,0.0,120.0,5.0,0.0
2668,85.0,30.0,30.0,3.0,0.0
2669,70.0,0.0,15.0,4.0,0.0
2670,85.0,0.0,15.0,3.0,0.0
2671,70.0,30.0,30.0,4.0,0.0
2672,70.0,30.0,30.0,4.0,0.0
2673,85.0,0.0,30.0,3.0,0.0
2674,63.0,30.0,120.0,1.0,0.0
2675,56.0,0.0,120.0,1.0,0.0
2676,84.0,30.0,30.0,2.0,0.0
2677,56.0,0.0,120.0,5.0,0.0
2678,68.0,0.0,120.0,4.0,0.0
2679,44.0,0.0,120.0,6.0,0.0
2680,72.0,0.0,120.0,3.0,0.0
2681,82.0,30.0,30.0,2.0,0.0
2682,80.0,30.0,30.0,2.0,0.0
2683,75.0,0.0,120.0,4.0,0.0
2684,60.0,0.0,120.0,5.0,0.0
2685,48.0,30.0,120.0,6.0,0.0
2686,80.0,30.0,15.0,3.0,0.0
2687,80.0,30.0,15.0,3.0,0.0
2688,80.0,30.0,15.0,3.0,0.0
2689,79.0,30.0,30.0,2.0,0.0
2690,75.0,30.0,60.0,3.0,0.0
2691,63.0,0.0,120.0,5.0,0.0
2692,51.0,30.0,120.0,6.0,0.0
2693,63.0,0.0,120.0,1.0,0.0
2694,77.0,0.0,30.0,2.0,0.0
2695,75.0,30.0,30.0,2.0,0.0
2696,70.0,0.0,15.0,4.0,0.0
2697,55.0,0.0,120.0,5.0,0.0
2698,43.0,0.0,120.0,6.0,0.0
2699,70.0,0.0,15.0,4.0,0.0
2700,85.0,30.0,15.0,3.0,0.0
2701,85.0,30.0,15.0,3.0,0.0
2702,70.0,30.0,30.0,4.0,0.0
2703,85.0,0.0,15.0,3.0,0.0
2704,70.0,30.0,30.0,4.0,0.0
2705,44.0,0.0,120.0,6.0,0.0
2706,56.0,0.0,120.0,5.0,0.0
2707,68.0,0.0,120.0,4.0,0.0
2708,84.0,30.0,30.0,2.0,0.0
2709,72.0,30.0,120.0,3.0,0.0
2710,63.0,0.0,120.0,1.0,0.0
2711,56.0,0.0,120.0,1.0,0.0
2712,82.0,30.0,30.0,2.0,0.0
2713,80.0,30.0,30.0,2.0,0.0
2714,80.0,30.0,30.0,3.0,0.0
2715,60.0,0.0,120.0,5.0,0.0
2716,48.0,0.0,120.0,6.0,0.0
2717,75.0,30.0,120.0,4.0,0.0
2718,80.0,30.0,30.0,3.0,0.0
2719,80.0,30.0,15.0,3.0,0.0
2720,51.0,30.0,120.0,6.0,0.0
2721,63.0,0.0,120.0,1.0,0.0
2722,63.0,0.0,120.0,5.0,0.0
2723,79.0,30.0,30.0,2.0,0.0
2724,75.0,30.0,60.0,3.0,0.0
2725,77.0,0.0,30.0,2.0,0.0
2726,75.0,30.0,30.0,2.0,0.0
2727,55.0,0.0,120.0,5.0,0.0
2728,85.0,0.0,30.0,3.0,0.0
2729,43.0,0.0,120.0,6.0,0.0
2730,70.0,0.0,15.0,4.0,0.0
2731,70.0,0.0,30.0,4.0,0.0
2732,85.0,30.0,15.0,3.0,0.0
2733,85.0,0.0,15.0,3.0,0.0
2734,70.0,30.0,15.0,4.0,0.0
2735,68.0,30.0,120.0,4.0,0.0
2736,44.0,0.0,120.0,6.0,0.0
2737,56.0,0.0,120.0,1.0,0.0
2738,72.0,0.0,120.0,3.0,0.0
2739,56.0,0.0,120.0,5.0,0.0
2740,84.0,30.0,30.0,2.0,0.0
2741,63.0,0.0,120.0,1.0,0.0
2742,82.0,30.0,30.0,2.0,0.0
2743,80.0,30.0,30.0,2.0,0.0
2744,48.0,0.0,120.0,6.0,0.0
2745,60.0,0.0,120.0,5.0,0.0
2746,75.0,0.0,120.0,4.0,0.0
2747,80.0,30.0,15.0,3.0,0.0
2748,80.0,30.0,30.0,3.0,0.0
2749,80.0,120.0,30.0,3.0,0.0
2750,70.0,0.0,120.0,4.0,0.0
2751,75.0,0.0,120.0,2.0,0.0
2752,63.0,0.0,120.0,5.0,0.0
2753,87.0,0.0,120.0,2.0,0.0
2754,51.0,0.0,120.0,6.0,0.0
2755,79.0,0.0,120.0,3.0,0.0
2756,63.0,360.0,120.0,1.0,0.0
2757,44.0,0.0,120.0,6.0,0.0
2758,72.0,120.0,120.0,3.0,0.0
2759,75.0,120.0,15.0,2.0,0.0
2760,56.0,0.0,120.0,5.0,0.0
2761,63.0,0.0,120.0,4.0,0.0
2762,75.0,0.0,15.0,2.0,0.0
2763,75.0,0.0,120.0,2.0,0.0
2764,55.0,0.0,120.0,5.0,0.0
2765,63.0,0.0,120.0,4.0,0.0
2766,43.0,120.0,120.0,6.0,0.0
2767,70.0,0.0,120.0,3.0,0.0
2768,75.0,60.0,120.0,2.0,0.0
2769,68.0,0.0,120.0,3.0,0.0
2770,44.0,0.0,120.0,6.0,0.0
2771,63.0,0.0,120.0,4.0,0.0
2772,56.0,0.0,120.0,5.0,0.0
2773,72.0,60.0,60.0,2.0,0.0
2774,75.0,60.0,60.0,2.0,0.0
2775,80.0,60.0,60.0,2.0,0.0
2776,75.0,120.0,60.0,2.0,0.0
2777,72.0,120.0,120.0,2.0,0.0
2778,46.0,0.0,120.0,6.0,0.0
2779,75.0,30.0,15.0,2.0,0.0
2780,67.0,0.0,120.0,3.0,0.0
2781,63.0,0.0,120.0,4.0,0.0
2782,58.0,0.0,120.0,5.0,0.0
2783,73.0,120.0,90.0,2.0,0.0
2784,65.0,0.0,120.0,4.0,0.0
2785,73.0,120.0,15.0,2.0,0.0
2786,56.0,0.0,120.0,5.0,0.0
2787,44.0,0.0,120.0,6.0,0.0
2788,68.0,120.0,120.0,3.0,0.0
2789,43.0,0.0,120.0,6.0,0.0
2790,70.0,0.0,120.0,3.0,0.0
2791,63.0,0.0,120.0,4.0,0.0
2792,73.0,60.0,15.0,2.0,0.0
2793,55.0,0.0,120.0,5.0,0.0
2794,79.0,60.0,60.0,2.0,0.0
2795,82.0,60.0,60.0,2.0,0.0
2796,79.0,120.0,60.0,2.0,0.0
2797,73.0,0.0,120.0,2.0,0.0
2798,55.0,120.0,120.0,5.0,0.0
2799,43.0,0.0,120.0,6.0,0.0
2800,70.0,30.0,120.0,2.0,0.0
2801,56.0,0.0,60.0,5.0,0.0
2802,63.0,30.0,30.0,3.0,0.0
2803,44.0,30.0,60.0,6.0,0.0
2804,72.0,30.0,240.0,2.0,0.0
2805,63.0,60.0,30.0,3.0,0.0
2806,51.0,0.0,60.0,5.0,0.0
2807,63.0,30.0,30.0,3.0,0.0
2808,39.0,30.0,60.0,6.0,0.0
2809,63.0,30.0,30.0,3.0,0.0
2810,73.0,15.0,60.0,2.0,0.0
2811,46.0,0.0,60.0,6.0,0.0
2812,58.0,15.0,60.0,5.0,0.0
2813,63.0,15.0,30.0,3.0,0.0
2814,75.0,0.0,15.0,2.0,0.0
2815,73.0,15.0,15.0,2.0,0.0
2816,63.0,15.0,30.0,3.0,0.0
2817,75.0,0.0,15.0,2.0,0.0
2818,73.0,15.0,15.0,2.0,0.0
2819,75.0,30.0,15.0,2.0,0.0
2820,73.0,30.0,60.0,2.0,0.0
2821,63.0,30.0,30.0,3.0,0.0
2822,51.0,0.0,60.0,5.0,0.0
2823,39.0,0.0,60.0,6.0,0.0
2824,63.0,30.0,30.0,3.0,0.0
2825,72.0,0.0,30.0,2.0,0.0
2826,73.0,60.0,30.0,2.0,0.0
2827,48.0,0.0,60.0,6.0,0.0
2828,75.0,0.0,120.0,2.0,0.0
2829,63.0,0.0,60.0,3.0,0.0
2830,60.0,60.0,60.0,5.0,0.0
2831,68.0,60.0,60.0,3.0,0.0
2832,51.0,0.0,60.0,5.0,0.0
2833,39.0,60.0,60.0,6.0,0.0
2834,72.0,0.0,60.0,3.0,0.0
2835,80.0,0.0,120.0,2.0,0.0
2836,68.0,60.0,60.0,3.0,0.0
2837,56.0,60.0,60.0,5.0,0.0
2838,63.0,0.0,120.0,4.0,0.0
2839,44.0,0.0,60.0,6.0,0.0
2840,75.0,0.0,60.0,3.0,0.0
2841,72.0,60.0,60.0,3.0,0.0
2842,51.0,0.0,60.0,5.0,0.0
2843,39.0,60.0,60.0,6.0,0.0
2844,72.0,30.0,120.0,2.0,0.0
2845,68.0,0.0,120.0,4.0,0.0
2846,63.0,0.0,60.0,3.0,0.0
2847,63.0,30.0,30.0,3.0,0.0
2848,55.0,0.0,60.0,5.0,0.0
2849,70.0,30.0,240.0,2.0,0.0
2850,43.0,30.0,60.0,6.0,0.0
2851,63.0,60.0,30.0,3.0,0.0
2852,51.0,0.0,60.0,5.0,0.0
2853,63.0,30.0,30.0,3.0,0.0
2854,39.0,30.0,60.0,6.0,0.0
2855,63.0,30.0,30.0,3.0,0.0
2856,44.0,0.0,60.0,6.0,0.0
2857,63.0,15.0,30.0,3.0,0.0
2858,72.0,15.0,60.0,2.0,0.0
2859,56.0,15.0,60.0,5.0,0.0
2860,73.0,0.0,15.0,2.0,0.0
2861,72.0,15.0,15.0,2.0,0.0
2862,63.0,15.0,30.0,3.0,0.0
2863,73.0,0.0,15.0,2.0,0.0
2864,72.0,15.0,15.0,2.0,0.0
2865,73.0,30.0,15.0,2.0,0.0
2866,72.0,0.0,60.0,2.0,0.0
2867,51.0,30.0,60.0,5.0,0.0
2868,39.0,0.0,60.0,6.0,0.0
2869,63.0,30.0,30.0,3.0,0.0
2870,70.0,30.0,30.0,2.0,0.0
2871,63.0,0.0,30.0,3.0,0.0
2872,72.0,60.0,30.0,2.0,0.0
2873,58.0,0.0,60.0,5.0,0.0
2874,46.0,0.0,60.0,6.0,0.0
2875,73.0,0.0,120.0,2.0,0.0
2876,63.0,60.0,60.0,3.0,0.0
2877,70.0,60.0,60.0,3.0,0.0
2878,51.0,0.0,60.0,5.0,0.0
2879,39.0,0.0,60.0,6.0,0.0
2880,82.0,60.0,120.0,2.0,0.0
2881,73.0,60.0,60.0,3.0,0.0
2882,70.0,0.0,60.0,3.0,0.0
2883,75.0,60.0,60.0,3.0,0.0
2884,43.0,0.0,60.0,6.0,0.0
2885,55.0,0.0,60.0,5.0,0.0
2886,61.0,60.0,120.0,4.0,0.0
2887,73.0,0.0,60.0,3.0,0.0
2888,73.0,30.0,120.0,2.0,0.0
2889,51.0,60.0,60.0,5.0,0.0
2890,70.0,0.0,120.0,4.0,0.0
2891,39.0,0.0,60.0,6.0,0.0
2892,56.0,0.0,120.0,5.0,0.0
2893,44.0,0.0,120.0,6.0,0.0
2894,68.0,60.0,30.0,4.0,0.0
2895,63.0,0.0,15.0,3.0,0.0
2896,72.0,0.0,120.0,2.0,0.0
2897,56.0,30.0,30.0,4.0,0.0
2898,75.0,30.0,120.0,2.0,0.0
2899,56.0,60.0,30.0,4.0,0.0
2900,56.0,30.0,30.0,4.0,0.0
2901,82.0,0.0,30.0,2.0,0.0
2902,56.0,60.0,30.0,4.0,0.0
2903,80.0,30.0,90.0,2.0,0.0
2904,56.0,30.0,30.0,4.0,0.0
2905,56.0,60.0,30.0,4.0,0.0
2906,79.0,0.0,30.0,2.0,0.0
2907,77.0,60.0,30.0,2.0,0.0
2908,56.0,0.0,30.0,4.0,0.0
2909,77.0,0.0,30.0,2.0,0.0
2910,44.0,0.0,120.0,6.0,0.0
2911,56.0,30.0,120.0,5.0,0.0
2912,56.0,60.0,30.0,4.0,0.0
2913,75.0,0.0,90.0,2.0,0.0
2914,56.0,30.0,30.0,4.0,0.0
2915,75.0,30.0,120.0,2.0,0.0
2916,56.0,60.0,30.0,4.0,0.0
2917,56.0,30.0,30.0,4.0,0.0
2918,70.0,0.0,30.0,3.0,0.0
2919,56.0,60.0,30.0,4.0,0.0
2920,79.0,0.0,30.0,2.0,0.0
2921,68.0,30.0,90.0,3.0,0.0
2922,77.0,0.0,90.0,2.0,0.0
2923,56.0,30.0,30.0,4.0,0.0
2924,67.0,0.0,30.0,3.0,0.0
2925,75.0,0.0,30.0,2.0,0.0
2926,56.0,60.0,30.0,4.0,0.0
2927,73.0,0.0,30.0,2.0,0.0
2928,56.0,60.0,30.0,4.0,0.0
2929,65.0,0.0,30.0,3.0,0.0
2930,63.0,0.0,120.0,3.0,0.0
2931,72.0,0.0,120.0,2.0,0.0
2932,44.0,0.0,120.0,6.0,0.0
2933,56.0,30.0,120.0,5.0,0.0
2934,56.0,60.0,30.0,4.0,0.0
2935,56.0,30.0,30.0,4.0,0.0
2936,60.0,30.0,120.0,3.0,0.0
2937,75.0,0.0,120.0,2.0,0.0
2938,56.0,60.0,30.0,4.0,0.0
2939,56.0,30.0,30.0,4.0,0.0
2940,67.0,0.0,30.0,3.0,0.0
2941,56.0,60.0,30.0,4.0,0.0
2942,82.0,0.0,30.0,2.0,0.0
2943,65.0,0.0,90.0,3.0,0.0
2944,80.0,30.0,90.0,2.0,0.0
2945,56.0,30.0,30.0,4.0,0.0
2946,56.0,0.0,30.0,4.0,0.0
2947,79.0,60.0,30.0,2.0,0.0
2948,63.0,0.0,30.0,3.0,0.0
2949,56.0,0.0,30.0,4.0,0.0
2950,77.0,150.0,30.0,2.0,0.0
2951,61.0,0.0,30.0,3.0,0.0
2952,56.0,0.0,120.0,4.0,0.0
2953,75.0,0.0,120.0,2.0,0.0
2954,60.0,120.0,15.0,3.0,0.0
2955,75.0,120.0,15.0,2.0,0.0
2956,75.0,0.0,120.0,2.0,0.0
2957,60.0,120.0,15.0,3.0,0.0
2958,82.0,0.0,480.0,0.0,0.0
2959,85.0,0.0,480.0,0.0,0.0
2960,63.0,0.0,480.0,1.0,0.0
2961,85.0,30.0,15.0,2.0,0.0
2962,85.0,30.0,15.0,2.0,0.0
2963,51.0,0.0,60.0,6.0,0.0
2964,63.0,0.0,60.0,5.0,0.0
2965,85.0,30.0,30.0,2.0,0.0
2966,85.0,30.0,15.0,2.0,0.0
2967,85.0,30.0,30.0,2.0,0.0
2968,67.0,0.0,60.0,5.0,0.0
2969,75.0,0.0,120.0,2.0,0.0
2970,55.0,30.0,60.0,6.0,0.0
2971,70.0,0.0,30.0,4.0,0.0
2972,70.0,0.0,30.0,4.0,0.0
2973,79.0,30.0,15.0,3.0,0.0
2974,70.0,0.0,30.0,4.0,0.0
2975,79.0,30.0,30.0,3.0,0.0
2976,70.0,30.0,30.0,4.0,0.0
2977,79.0,0.0,30.0,3.0,0.0
2978,85.0,0.0,120.0,2.0,0.0
2979,79.0,0.0,30.0,3.0,0.0
2980,51.0,0.0,60.0,6.0,0.0
2981,63.0,0.0,60.0,5.0,0.0
2982,70.0,30.0,30.0,4.0,0.0
2983,70.0,0.0,30.0,4.0,0.0
2984,79.0,30.0,15.0,3.0,0.0
2985,79.0,0.0,30.0,3.0,0.0
2986,70.0,30.0,15.0,4.0,0.0
2987,84.0,30.0,30.0,2.0,0.0
2988,80.0,30.0,120.0,3.0,0.0
2989,80.0,0.0,480.0,0.0,0.0
2990,56.0,0.0,480.0,1.0,0.0
2991,84.0,0.0,480.0,0.0,0.0
2992,68.0,0.0,120.0,4.0,0.0
2993,84.0,30.0,30.0,2.0,0.0
2994,84.0,30.0,15.0,2.0,0.0
2995,56.0,0.0,60.0,5.0,0.0
2996,72.0,0.0,120.0,4.0,0.0
2997,75.0,30.0,120.0,3.0,0.0
2998,44.0,30.0,60.0,6.0,0.0
2999,84.0,30.0,15.0,2.0,0.0
3000,84.0,0.0,15.0,2.0,0.0
3001,84.0,0.0,30.0,2.0,0.0
3002,60.0,0.0,60.0,5.0,0.0
3003,68.0,30.0,120.0,2.0,0.0
3004,48.0,0.0,60.0,6.0,0.0
3005,72.0,30.0,15.0,3.0,0.0
3006,72.0,30.0,30.0,3.0,0.0
3007,72.0,0.0,30.0,3.0,0.0
3008,56.0,0.0,60.0,5.0,0.0
3009,44.0,0.0,60.0,6.0,0.0
3010,72.0,30.0,15.0,3.0,0.0
3011,68.0,0.0,15.0,4.0,0.0
3012,72.0,0.0,30.0,3.0,0.0
3013,68.0,30.0,30.0,4.0,0.0
3014,72.0,0.0,30.0,3.0,0.0
3015,68.0,30.0,30.0,4.0,0.0
3016,63.0,0.0,15.0,1.0,0.0
3017,70.0,30.0,120.0,3.0,0.0
3018,85.0,0.0,480.0,0.0,0.0
3019,82.0,30.0,480.0,0.0,0.0
3020,67.0,0.0,120.0,4.0,0.0
3021,85.0,30.0,15.0,2.0,0.0
3022,85.0,30.0,30.0,2.0,0.0
3023,85.0,0.0,30.0,2.0,0.0
3024,85.0,30.0,30.0,2.0,0.0
3025,51.0,0.0,60.0,6.0,0.0
3026,63.0,0.0,60.0,5.0,0.0
3027,85.0,30.0,15.0,2.0,0.0
3028,85.0,30.0,15.0,2.0,0.0
3029,75.0,30.0,120.0,2.0,0.0
3030,67.0,30.0,60.0,5.0,0.0
3031,79.0,0.0,30.0,3.0,0.0
3032,70.0,30.0,30.0,4.0,0.0
3033,55.0,0.0,60.0,6.0,0.0
3034,79.0,0.0,30.0,3.0,0.0
3035,70.0,0.0,15.0,4.0,0.0
3036,79.0,0.0,15.0,3.0,0.0
3037,70.0,30.0,15.0,4.0,0.0
3038,63.0,0.0,60.0,5.0,0.0
3039,70.0,0.0,15.0,4.0,0.0
3040,85.0,0.0,120.0,2.0,0.0
3041,79.0,0.0,30.0,3.0,0.0
3042,51.0,0.0,60.0,6.0,0.0
3043,70.0,30.0,15.0,4.0,0.0
3044,79.0,0.0,15.0,3.0,0.0
3045,70.0,30.0,15.0,4.0,0.0
3046,79.0,0.0,30.0,3.0,0.0
3047,70.0,0.0,30.0,4.0,0.0
3048,68.0,30.0,120.0,4.0,0.0
3049,84.0,0.0,480.0,0.0,0.0
3050,80.0,0.0,480.0,0.0,0.0
3051,63.0,0.0,15.0,1.0,0.0
3052,56.0,0.0,480.0,1.0,0.0
3053,80.0,0.0,120.0,3.0,0.0
3054,84.0,30.0,15.0,2.0,0.0
3055,84.0,30.0,15.0,2.0,0.0
3056,84.0,30.0,15.0,2.0,0.0
3057,75.0,0.0,120.0,3.0,0.0
3058,44.0,30.0,60.0,6.0,0.0
3059,84.0,30.0,30.0,2.0,0.0
3060,56.0,0.0,60.0,5.0,0.0
3061,84.0,0.0,15.0,2.0,0.0
3062,84.0,30.0,15.0,2.0,0.0
3063,72.0,0.0,15.0,4.0,0.0
3064,68.0,0.0,120.0,2.0,0.0
3065,60.0,30.0,60.0,5.0,0.0
3066,48.0,0.0,60.0,6.0,0.0
3067,75.0,30.0,30.0,3.0,0.0
3068,72.0,0.0,30.0,4.0,0.0
3069,75.0,0.0,15.0,3.0,0.0
3070,72.0,0.0,30.0,4.0,0.0
3071,72.0,0.0,30.0,4.0,0.0
3072,75.0,30.0,15.0,3.0,0.0
3073,44.0,0.0,60.0,6.0,0.0
3074,75.0,30.0,15.0,3.0,0.0
3075,56.0,0.0,60.0,5.0,0.0
3076,75.0,0.0,15.0,3.0,0.0
3077,72.0,30.0,15.0,4.0,0.0
3078,75.0,30.0,15.0,3.0,0.0
3079,72.0,0.0,15.0,4.0,0.0
3080,75.0,0.0,30.0,3.0,0.0
3081,72.0,30.0,30.0,4.0,0.0
3082,61.0,30.0,480.0,1.0,0.0
3083,65.0,0.0,480.0,1.0,0.0
3084,73.0,0.0,120.0,3.0,0.0
3085,89.0,30.0,30.0,2.0,0.0
3086,89.0,0.0,480.0,0.0,0.0
3087,68.0,0.0,120.0,4.0,0.0
3088,89.0,30.0,30.0,2.0,0.0
3089,89.0,30.0,30.0,2.0,0.0
3090,89.0,30.0,15.0,2.0,0.0
3091,61.0,30.0,60.0,5.0,0.0
3092,49.0,0.0,60.0,6.0,0.0
3093,89.0,0.0,15.0,2.0,0.0
3094,89.0,30.0,30.0,2.0,0.0
3095,53.0,30.0,60.0,6.0,0.0
3096,65.0,0.0,60.0,5.0,0.0
3097,73.0,0.0,120.0,2.0,0.0
3098,80.0,30.0,30.0,3.0,0.0
3099,80.0,0.0,15.0,3.0,0.0
3100,80.0,30.0,15.0,3.0,0.0
3101,89.0,0.0,120.0,2.0,0.0
3102,49.0,0.0,60.0,6.0,0.0
3103,80.0,0.0,30.0,3.0,0.0
3104,61.0,30.0,60.0,5.0,0.0
3105,73.0,30.0,15.0,4.0,0.0
3106,73.0,0.0,15.0,4.0,0.0
3107,80.0,0.0,15.0,3.0,0.0
3108,80.0,0.0,15.0,3.0,0.0
3109,73.0,0.0,30.0,4.0,0.0
3110,72.0,30.0,120.0,4.0,0.0
3111,80.0,0.0,120.0,3.0,0.0
3112,87.0,30.0,30.0,2.0,0.0
3113,63.0,0.0,480.0,1.0,0.0
3114,80.0,0.0,15.0,0.0,0.0
3115,56.0,0.0,480.0,1.0,0.0
3116,87.0,30.0,15.0,2.0,0.0
3117,87.0,0.0,15.0,2.0,0.0
3118,60.0,30.0,60.0,5.0,0.0
3119,48.0,0.0,60.0,6.0,0.0
3120,87.0,0.0,15.0,2.0,0.0
3121,87.0,30.0,15.0,2.0,0.0
3122,56.0,0.0,60.0,5.0,0.0
3123,72.0,0.0,120.0,2.0,0.0
3124,84.0,0.0,15.0,0.0,0.0
3125,75.0,30.0,120.0,0.0,0.0
3126,75.0,30.0,30.0,3.0,0.0
3127,44.0,30.0,60.0,6.0,0.0
3128,75.0,0.0,30.0,3.0,0.0
3129,75.0,30.0,15.0,3.0,0.0
3130,48.0,0.0,60.0,6.0,0.0
3131,72.0,30.0,30.0,4.0,0.0
3132,60.0,0.0,60.0,5.0,0.0
3133,80.0,30.0,120.0,2.0,0.0
3134,80.0,0.0,360.0,0.0,0.0
3135,75.0,0.0,30.0,3.0,0.0
3136,75.0,0.0,15.0,3.0,0.0
3137,72.0,30.0,15.0,4.0,0.0
3138,75.0,30.0,15.0,3.0,0.0
3139,72.0,0.0,30.0,4.0,0.0
3140,61.0,30.0,60.0,5.0,0.0
3141,61.0,0.0,240.0,1.0,0.0
3142,65.0,0.0,240.0,1.0,0.0
3143,77.0,30.0,30.0,3.0,0.0
3144,49.0,0.0,60.0,6.0,0.0
3145,73.0,30.0,120.0,2.0,0.0
3146,77.0,0.0,30.0,3.0,0.0
3147,77.0,30.0,30.0,3.0,0.0
3148,77.0,0.0,30.0,3.0,0.0
3149,58.0,0.0,60.0,5.0,0.0
3150,82.0,0.0,120.0,2.0,0.0
3151,46.0,30.0,60.0,6.0,0.0
3152,77.0,0.0,15.0,3.0,0.0
3153,73.0,30.0,15.0,4.0,0.0
3154,77.0,30.0,30.0,3.0,0.0
3155,73.0,0.0,30.0,4.0,0.0
3156,73.0,30.0,30.0,4.0,0.0
3157,77.0,0.0,30.0,3.0,0.0
3158,82.0,0.0,15.0,0.0,0.0
3159,79.0,0.0,240.0,0.0,0.0
3160,63.0,0.0,120.0,2.0,0.0
3161,51.0,0.0,60.0,6.0,0.0
3162,63.0,0.0,240.0,1.0,0.0
3163,63.0,0.0,60.0,5.0,0.0
3164,70.0,30.0,15.0,4.0,0.0
3165,73.0,0.0,15.0,3.0,0.0
3166,73.0,0.0,15.0,3.0,0.0
3167,73.0,0.0,15.0,3.0,0.0
3168,70.0,30.0,15.0,4.0,0.0
3169,51.0,30.0,60.0,5.0,0.0
3170,79.0,0.0,120.0,2.0,0.0
3171,39.0,0.0,60.0,6.0,0.0
3172,70.0,30.0,15.0,4.0,0.0
3173,73.0,0.0,15.0,3.0,0.0
3174,73.0,0.0,15.0,3.0,0.0
3175,70.0,0.0,30.0,4.0,0.0
3176,70.0,30.0,30.0,4.0,0.0
3177,73.0,0.0,30.0,3.0,0.0
3178,56.0,0.0,120.0,5.0,0.0
3179,72.0,30.0,120.0,3.0,0.0
3180,63.0,0.0,120.0,1.0,0.0
3181,56.0,0.0,120.0,1.0,0.0
3182,44.0,0.0,120.0,6.0,0.0
3183,80.0,0.0,120.0,2.0,0.0
3184,80.0,0.0,120.0,0.0,0.0
3185,68.0,60.0,30.0,4.0,0.0
3186,63.0,30.0,30.0,4.0,0.0
3187,63.0,60.0,30.0,4.0,0.0
3188,63.0,60.0,30.0,4.0,0.0
3189,63.0,60.0,30.0,4.0,0.0
3190,63.0,60.0,30.0,4.0,0.0
3191,63.0,60.0,30.0,4.0,0.0
3192,63.0,60.0,30.0,4.0,0.0
3193,85.0,30.0,240.0,2.0,0.0
3194,63.0,60.0,30.0,4.0,0.0
3195,63.0,60.0,30.0,4.0,0.0
3196,39.0,30.0,60.0,6.0,0.0
3197,63.0,30.0,30.0,4.0,0.0
3198,51.0,0.0,60.0,5.0,0.0
3199,63.0,30.0,30.0,4.0,0.0
3200,49.0,0.0,60.0,6.0,0.0
3201,79.0,30.0,240.0,2.0,0.0
3202,61.0,30.0,60.0,5.0,0.0
3203,63.0,30.0,30.0,4.0,0.0
3204,63.0,60.0,30.0,4.0,0.0
3205,46.0,0.0,60.0,6.0,0.0
3206,58.0,30.0,60.0,5.0,0.0
3207,63.0,30.0,30.0,4.0,0.0
3208,63.0,30.0,30.0,4.0,0.0
3209,80.0,30.0,180.0,2.0,0.0
3210,63.0,60.0,30.0,4.0,0.0
3211,75.0,30.0,240.0,3.0,0.0
3212,63.0,60.0,30.0,4.0,0.0
3213,44.0,0.0,60.0,6.0,0.0
3214,56.0,0.0,60.0,5.0,0.0
3215,63.0,30.0,30.0,4.0,0.0
3216,82.0,0.0,30.0,2.0,0.0
3217,63.0,30.0,30.0,4.0,0.0
3218,84.0,0.0,30.0,2.0,0.0
3219,75.0,30.0,180.0,2.0,0.0
3220,60.0,30.0,60.0,5.0,0.0
3221,68.0,30.0,240.0,3.0,0.0
3222,48.0,0.0,60.0,6.0,0.0
3223,63.0,30.0,30.0,4.0,0.0
3224,63.0,60.0,30.0,4.0,0.0
3225,44.0,0.0,60.0,6.0,0.0
3226,56.0,0.0,60.0,5.0,0.0
3227,63.0,30.0,30.0,4.0,0.0
3228,63.0,30.0,30.0,4.0,0.0
3229,67.0,30.0,180.0,3.0,0.0
3230,63.0,60.0,30.0,4.0,0.0
3231,85.0,30.0,240.0,2.0,0.0
3232,63.0,60.0,30.0,4.0,0.0
3233,63.0,30.0,30.0,4.0,0.0
3234,51.0,0.0,60.0,5.0,0.0
3235,39.0,0.0,60.0,6.0,0.0
3236,63.0,30.0,30.0,4.0,0.0
3237,68.0,0.0,30.0,3.0,0.0
3238,70.0,0.0,30.0,3.0,0.0
3239,49.0,0.0,60.0,6.0,0.0
3240,61.0,30.0,60.0,5.0,0.0
3241,63.0,30.0,30.0,4.0,0.0
3242,79.0,30.0,240.0,2.0,0.0
3243,63.0,30.0,120.0,3.0,0.0
3244,63.0,30.0,30.0,4.0,0.0
3245,46.0,30.0,60.0,6.0,0.0
3246,58.0,0.0,60.0,5.0,0.0
3247,63.0,30.0,30.0,4.0,0.0
3248,63.0,30.0,30.0,4.0,0.0
3249,80.0,0.0,180.0,2.0,0.0
3250,63.0,60.0,30.0,4.0,0.0
3251,75.0,0.0,240.0,3.0,0.0
3252,63.0,60.0,30.0,4.0,0.0
3253,56.0,30.0,60.0,5.0,0.0
3254,44.0,0.0,60.0,6.0,0.0
3255,63.0,30.0,30.0,4.0,0.0
3256,82.0,0.0,30.0,2.0,0.0
3257,63.0,30.0,30.0,4.0,0.0
3258,84.0,30.0,30.0,2.0,0.0
3259,63.0,30.0,30.0,4.0,0.0
3260,60.0,0.0,60.0,5.0,0.0
3261,68.0,120.0,240.0,3.0,0.0
3262,75.0,30.0,180.0,2.0,0.0
3263,48.0,30.0,60.0,6.0,0.0
3264,63.0,60.0,30.0,4.0,0.0
3265,56.0,0.0,60.0,5.0,0.0
3266,44.0,0.0,60.0,6.0,0.0
3267,63.0,30.0,30.0,4.0,0.0
3268,63.0,30.0,30.0,4.0,0.0
3269,77.0,120.0,120.0,2.0,0.0
3270,61.0,0.0,120.0,4.0,0.0
3271,65.0,0.0,120.0,3.0,0.0
3272,63.0,0.0,240.0,4.0,0.0
3273,49.0,0.0,120.0,6.0,0.0
3274,79.0,0.0,120.0,2.0,0.0
3275,61.0,120.0,120.0,5.0,0.0
3276,67.0,0.0,120.0,3.0,0.0
3277,80.0,0.0,120.0,2.0,0.0
3278,68.0,0.0,120.0,3.0,0.0
3279,48.0,120.0,120.0,6.0,0.0
3280,60.0,0.0,120.0,5.0,0.0
3281,63.0,0.0,120.0,5.0,0.0
3282,81.0,0.0,120.0,2.0,0.0
3283,66.0,0.0,120.0,4.0,0.0
3284,69.0,120.0,120.0,3.0,0.0
3285,51.0,0.0,120.0,6.0,0.0
3286,65.0,90.0,360.0,4.0,0.0
3287,49.0,0.0,120.0,6.0,0.0
3288,82.0,0.0,120.0,2.0,0.0
3289,61.0,120.0,120.0,5.0,0.0
3290,70.0,0.0,120.0,3.0,0.0
3291,84.0,120.0,120.0,2.0,0.0
3292,72.0,0.0,120.0,3.0,0.0
3293,57.0,0.0,120.0,5.0,0.0
3294,45.0,0.0,120.0,6.0,0.0
3295,46.0,0.0,120.0,6.0,0.0
3296,73.0,0.0,210.0,3.0,0.0
3297,85.0,0.0,210.0,2.0,0.0
3298,58.0,0.0,120.0,5.0,0.0
3299,67.0,15.0,120.0,4.0,0.0
3300,39.0,30.0,90.0,6.0,0.0
3301,51.0,0.0,90.0,5.0,0.0
3302,44.0,0.0,120.0,6.0,0.0
3303,84.0,0.0,15.0,2.0,0.0
3304,72.0,15.0,15.0,3.0,0.0
3305,68.0,60.0,60.0,4.0,0.0
3306,56.0,0.0,120.0,5.0,0.0
3307,75.0,0.0,1920.0,0.0,0.0
3308,87.0,0.0,1920.0,0.0,0.0
3309,85.0,0.0,15.0,2.0,0.0
3310,73.0,30.0,15.0,3.0,0.0
3311,84.0,30.0,90.0,2.0,0.0
3312,72.0,0.0,90.0,3.0,0.0
3313,63.0,0.0,60.0,4.0,0.0
3314,55.0,0.0,30.0,5.0,0.0
3315,63.0,60.0,30.0,4.0,0.0
3316,43.0,0.0,30.0,6.0,0.0
3317,82.0,0.0,30.0,2.0,0.0
3318,70.0,0.0,30.0,3.0,0.0
3319,68.0,90.0,30.0,3.0,0.0
3320,44.0,0.0,30.0,6.0,0.0
3321,63.0,0.0,30.0,4.0,0.0
3322,80.0,0.0,30.0,2.0,0.0
3323,56.0,0.0,30.0,5.0,0.0
3324,63.0,0.0,60.0,4.0,0.0
3325,85.0,120.0,60.0,2.0,0.0
3326,43.0,0.0,60.0,6.0,0.0
3327,70.0,0.0,60.0,3.0,0.0
3328,55.0,0.0,60.0,5.0,0.0
3329,55.0,0.0,60.0,5.0,0.0
3330,63.0,0.0,60.0,4.0,0.0
3331,70.0,0.0,60.0,3.0,0.0
3332,85.0,75.0,60.0,2.0,0.0
3333,43.0,0.0,60.0,6.0,0.0
3334,84.0,0.0,15.0,2.0,0.0
3335,44.0,30.0,120.0,6.0,0.0
3336,68.0,15.0,15.0,3.0,0.0
3337,56.0,0.0,120.0,5.0,0.0
3338,63.0,0.0,120.0,4.0,0.0
3339,85.0,0.0,15.0,2.0,0.0
3340,70.0,90.0,15.0,3.0,0.0
3341,68.0,0.0,90.0,3.0,0.0
3342,84.0,0.0,90.0,2.0,0.0
3343,63.0,60.0,30.0,4.0,0.0
3344,70.0,0.0,30.0,3.0,0.0
3345,55.0,0.0,30.0,5.0,0.0
3346,82.0,0.0,30.0,2.0,0.0
3347,43.0,0.0,30.0,6.0,0.0
3348,56.0,90.0,30.0,5.0,0.0
3349,44.0,0.0,30.0,6.0,0.0
3350,72.0,0.0,30.0,3.0,0.0
3351,80.0,0.0,30.0,2.0,0.0
3352,63.0,0.0,30.0,4.0,0.0
3353,63.0,0.0,240.0,4.0,0.0
3354,46.0,120.0,60.0,6.0,0.0
3355,73.0,0.0,240.0,3.0,0.0
3356,79.0,15.0,240.0,2.0,0.0
3357,58.0,0.0,60.0,5.0,0.0
3358,39.0,0.0,60.0,6.0,0.0
3359,51.0,60.0,60.0,5.0,0.0
3360,72.0,15.0,15.0,3.0,0.0
3361,56.0,0.0,120.0,5.0,0.0
3362,44.0,30.0,120.0,6.0,0.0
3363,84.0,0.0,15.0,2.0,0.0
3364,85.0,0.0,15.0,2.0,0.0
3365,73.0,90.0,15.0,3.0,0.0
3366,72.0,0.0,90.0,3.0,0.0
3367,84.0,0.0,90.0,2.0,0.0
3368,55.0,0.0,30.0,5.0,0.0
3369,82.0,0.0,30.0,2.0,0.0
3370,63.0,0.0,15.0,4.0,0.0
3371,70.0,60.0,30.0,3.0,0.0
3372,43.0,0.0,30.0,6.0,0.0
3373,63.0,0.0,30.0,4.0,0.0
3374,56.0,90.0,30.0,5.0,0.0
3375,44.0,0.0,30.0,6.0,0.0
3376,80.0,0.0,30.0,2.0,0.0
3377,68.0,0.0,30.0,3.0,0.0
3378,67.0,0.0,60.0,3.0,0.0
3379,85.0,0.0,60.0,2.0,0.0
3380,46.0,120.0,60.0,6.0,0.0
3381,63.0,0.0,60.0,4.0,0.0
3382,58.0,0.0,60.0,5.0,0.0
3383,63.0,0.0,60.0,4.0,0.0
3384,58.0,0.0,60.0,5.0,0.0
3385,46.0,0.0,60.0,6.0,0.0
3386,85.0,75.0,60.0,2.0,0.0
3387,67.0,0.0,60.0,3.0,0.0
3388,44.0,0.0,120.0,6.0,0.0
3389,63.0,0.0,120.0,4.0,0.0
3390,84.0,0.0,15.0,2.0,0.0
3391,68.0,15.0,15.0,3.0,0.0
3392,56.0,0.0,120.0,5.0,0.0
3393,70.0,0.0,15.0,3.0,0.0
3394,85.0,90.0,15.0,2.0,0.0
3395,68.0,30.0,90.0,3.0,0.0
3396,84.0,0.0,90.0,2.0,0.0
3397,82.0,60.0,30.0,2.0,0.0
3398,55.0,0.0,30.0,5.0,0.0
3399,70.0,0.0,30.0,3.0,0.0
3400,43.0,0.0,30.0,6.0,0.0
3401,63.0,0.0,30.0,4.0,0.0
3402,44.0,0.0,30.0,6.0,0.0
3403,56.0,90.0,30.0,5.0,0.0
3404,63.0,0.0,30.0,4.0,0.0
3405,72.0,0.0,30.0,3.0,0.0
3406,80.0,0.0,30.0,2.0,0.0
3407,46.0,120.0,60.0,6.0,0.0
3408,63.0,30.0,240.0,4.0,0.0
3409,73.0,0.0,240.0,3.0,0.0
3410,79.0,0.0,240.0,2.0,0.0
3411,58.0,0.0,60.0,5.0,0.0
3412,51.0,0.0,60.0,5.0,0.0
3413,39.0,60.0,60.0,6.0,0.0
3414,56.0,0.0,960.0,1.0,0.0
3415,80.0,0.0,960.0,0.0,0.0
3416,75.0,0.0,30.0,3.0,0.0
3417,75.0,0.0,30.0,3.0,0.0
3418,87.0,30.0,15.0,2.0,0.0
3419,48.0,0.0,15.0,6.0,0.0
3420,75.0,0.0,30.0,3.0,0.0
3421,72.0,30.0,15.0,4.0,0.0
3422,87.0,0.0,15.0,2.0,0.0
3423,60.0,0.0,15.0,5.0,0.0
3424,87.0,30.0,15.0,2.0,0.0
3425,75.0,0.0,15.0,3.0,0.0
3426,87.0,0.0,15.0,2.0,0.0
3427,60.0,0.0,15.0,5.0,0.0
3428,48.0,30.0,15.0,6.0,0.0
3429,87.0,30.0,15.0,2.0,0.0
3430,72.0,30.0,15.0,4.0,0.0
3431,60.0,0.0,15.0,5.0,0.0
3432,75.0,0.0,15.0,3.0,0.0
3433,87.0,30.0,30.0,2.0,0.0
3434,75.0,0.0,15.0,3.0,0.0
3435,87.0,0.0,30.0,2.0,0.0
3436,48.0,30.0,15.0,6.0,0.0
3437,72.0,0.0,15.0,4.0,0.0
3438,88.0,30.0,30.0,2.0,0.0
3439,76.0,0.0,15.0,3.0,0.0
3440,88.0,0.0,30.0,2.0,0.0
3441,72.0,0.0,15.0,4.0,0.0
3442,60.0,30.0,15.0,5.0,0.0
3443,76.0,0.0,15.0,3.0,0.0
3444,88.0,30.0,15.0,2.0,0.0
3445,72.0,0.0,15.0,4.0,0.0
3446,76.0,0.0,15.0,3.0,0.0
3447,88.0,0.0,15.0,2.0,0.0
3448,60.0,0.0,60.0,5.0,0.0
3449,48.0,30.0,15.0,6.0,0.0
3450,88.0,30.0,15.0,2.0,0.0
3451,76.0,0.0,30.0,3.0,0.0
3452,72.0,0.0,15.0,4.0,0.0
3453,88.0,0.0,15.0,2.0,0.0
3454,60.0,30.0,60.0,5.0,0.0
3455,48.0,30.0,15.0,6.0,0.0
3456,76.0,30.0,15.0,3.0,0.0
3457,88.0,0.0,30.0,2.0,0.0
3458,61.0,30.0,60.0,5.0,0.0
3459,77.0,30.0,30.0,3.0,0.0
3460,89.0,0.0,30.0,2.0,0.0
3461,73.0,0.0,60.0,4.0,0.0
3462,49.0,0.0,60.0,6.0,0.0
3463,89.0,0.0,30.0,2.0,0.0
3464,89.0,30.0,30.0,2.0,0.0
3465,77.0,0.0,15.0,3.0,0.0
3466,61.0,0.0,60.0,5.0,0.0
3467,77.0,0.0,15.0,3.0,0.0
3468,89.0,0.0,30.0,2.0,0.0
3469,73.0,0.0,15.0,4.0,0.0
3470,77.0,30.0,15.0,3.0,0.0
3471,61.0,0.0,60.0,5.0,0.0
3472,49.0,0.0,15.0,6.0,0.0
3473,77.0,0.0,15.0,3.0,0.0
3474,89.0,30.0,15.0,2.0,0.0
3475,61.0,0.0,60.0,5.0,0.0
3476,77.0,0.0,15.0,3.0,0.0
3477,49.0,0.0,15.0,6.0,0.0
3478,89.0,30.0,15.0,2.0,0.0
3479,73.0,0.0,60.0,4.0,0.0
3480,77.0,30.0,15.0,3.0,0.0
3481,89.0,30.0,30.0,2.0,0.0
3482,47.0,0.0,60.0,6.0,0.0
3483,86.0,30.0,15.0,2.0,0.0
3484,74.0,0.0,15.0,3.0,0.0
3485,59.0,0.0,15.0,5.0,0.0
3486,86.0,30.0,30.0,2.0,0.0
3487,71.0,30.0,15.0,4.0,0.0
3488,74.0,0.0,30.0,3.0,0.0
3489,47.0,0.0,60.0,6.0,0.0
3490,86.0,0.0,30.0,2.0,0.0
3491,71.0,0.0,15.0,4.0,0.0
3492,74.0,0.0,15.0,3.0,0.0
3493,59.0,30.0,15.0,5.0,0.0
3494,86.0,0.0,30.0,2.0,0.0
3495,59.0,0.0,15.0,5.0,0.0
3496,74.0,0.0,15.0,3.0,0.0
3497,71.0,0.0,15.0,4.0,0.0
3498,47.0,0.0,15.0,6.0,0.0
3499,86.0,30.0,15.0,2.0,0.0
3500,86.0,30.0,30.0,2.0,0.0
3501,74.0,30.0,15.0,3.0,0.0
3502,75.0,0.0,1200.0,0.0,0.0
3503,48.0,0.0,60.0,6.0,0.0
3504,72.0,0.0,60.0,4.0,0.0
3505,63.0,0.0,960.0,1.0,0.0
3506,60.0,0.0,60.0,5.0,0.0
3507,87.0,30.0,15.0,2.0,0.0
3508,75.0,0.0,15.0,3.0,0.0
3509,75.0,0.0,15.0,3.0,0.0
3510,48.0,0.0,60.0,6.0,0.0
3511,87.0,30.0,15.0,2.0,0.0
3512,60.0,0.0,60.0,5.0,0.0
3513,87.0,0.0,30.0,2.0,0.0
3514,72.0,0.0,15.0,4.0,0.0
3515,75.0,30.0,15.0,3.0,0.0
3516,87.0,30.0,15.0,2.0,0.0
3517,48.0,0.0,15.0,6.0,0.0
3518,87.0,0.0,15.0,2.0,0.0
3519,72.0,0.0,15.0,4.0,0.0
3520,75.0,30.0,15.0,3.0,0.0
3521,60.0,0.0,15.0,5.0,0.0
3522,87.0,0.0,15.0,2.0,0.0
3523,75.0,0.0,30.0,3.0,0.0
3524,84.0,30.0,30.0,2.0,0.0
3525,57.0,30.0,60.0,5.0,0.0
3526,69.0,0.0,60.0,4.0,0.0
3527,72.0,0.0,15.0,3.0,0.0
3528,45.0,0.0,15.0,6.0,0.0
3529,72.0,30.0,30.0,3.0,0.0
3530,69.0,0.0,60.0,4.0,0.0
3531,84.0,0.0,15.0,2.0,0.0
3532,57.0,30.0,60.0,5.0,0.0
3533,72.0,0.0,30.0,3.0,0.0
3534,84.0,0.0,30.0,2.0,0.0
3535,45.0,0.0,60.0,6.0,0.0
3536,84.0,0.0,15.0,2.0,0.0
3537,72.0,30.0,15.0,3.0,0.0
3538,69.0,0.0,15.0,4.0,0.0
3539,57.0,30.0,15.0,5.0,0.0
3540,84.0,0.0,15.0,2.0,0.0
3541,72.0,0.0,30.0,3.0,0.0
3542,45.0,0.0,60.0,6.0,0.0
3543,72.0,0.0,30.0,3.0,0.0
3544,84.0,0.0,30.0,2.0,0.0
3545,46.0,0.0,60.0,6.0,0.0
3546,58.0,0.0,60.0,5.0,0.0
3547,85.0,0.0,15.0,2.0,0.0
3548,73.0,30.0,15.0,3.0,0.0
3549,85.0,0.0,15.0,2.0,0.0
3550,70.0,0.0,15.0,4.0,0.0
3551,46.0,0.0,60.0,6.0,0.0
3552,58.0,0.0,60.0,5.0,0.0
3553,73.0,30.0,15.0,3.0,0.0
3554,85.0,30.0,30.0,2.0,0.0
3555,70.0,0.0,15.0,4.0,0.0
3556,46.0,0.0,60.0,6.0,0.0
3557,73.0,0.0,15.0,3.0,0.0
3558,85.0,30.0,15.0,2.0,0.0
3559,58.0,0.0,15.0,5.0,0.0
3560,46.0,0.0,60.0,6.0,0.0
3561,73.0,30.0,15.0,3.0,0.0
3562,85.0,30.0,30.0,2.0,0.0
3563,70.0,0.0,60.0,4.0,0.0
3564,73.0,0.0,30.0,3.0,0.0
3565,85.0,0.0,30.0,2.0,0.0
3566,70.0,30.0,30.0,3.0,0.0
3567,67.0,0.0,60.0,4.0,0.0
3568,82.0,0.0,30.0,2.0,0.0
3569,70.0,0.0,15.0,3.0,0.0
3570,43.0,0.0,15.0,6.0,0.0
3571,82.0,30.0,15.0,2.0,0.0
3572,55.0,0.0,15.0,5.0,0.0
3573,70.0,30.0,15.0,3.0,0.0
3574,82.0,0.0,30.0,2.0,0.0
3575,43.0,30.0,15.0,6.0,0.0
3576,70.0,0.0,30.0,3.0,0.0
3577,67.0,0.0,15.0,4.0,0.0
3578,55.0,0.0,15.0,5.0,0.0
3579,82.0,30.0,15.0,2.0,0.0
3580,55.0,0.0,60.0,5.0,0.0
3581,43.0,0.0,15.0,6.0,0.0
3582,82.0,30.0,15.0,2.0,0.0
3583,67.0,30.0,60.0,4.0,0.0
3584,70.0,0.0,15.0,3.0,0.0
3585,82.0,0.0,30.0,2.0,0.0
3586,70.0,30.0,15.0,3.0,0.0
3587,84.0,0.0,30.0,2.0,0.0
3588,56.0,0.0,480.0,1.0,0.0
3589,44.0,0.0,60.0,6.0,0.0
3590,63.0,0.0,240.0,1.0,0.0
3591,56.0,0.0,60.0,5.0,0.0
3592,72.0,30.0,15.0,3.0,0.0
3593,68.0,30.0,15.0,4.0,0.0
3594,56.0,0.0,60.0,5.0,0.0
3595,84.0,0.0,15.0,2.0,0.0
3596,72.0,0.0,15.0,3.0,0.0
3597,84.0,30.0,30.0,2.0,0.0
3598,68.0,0.0,15.0,4.0,0.0
3599,44.0,0.0,15.0,6.0,0.0
3600,84.0,0.0,30.0,2.0,0.0
3601,72.0,30.0,15.0,3.0,0.0
3602,72.0,0.0,15.0,3.0,0.0
3603,56.0,0.0,15.0,5.0,0.0
3604,68.0,30.0,60.0,4.0,0.0
3605,84.0,0.0,15.0,2.0,0.0
3606,44.0,0.0,60.0,6.0,0.0
3607,72.0,0.0,30.0,3.0,0.0
3608,84.0,0.0,30.0,2.0,0.0
3609,65.0,0.0,60.0,5.0,0.0
3610,72.0,0.0,240.0,0.0,0.0
3611,80.0,30.0,240.0,0.0,0.0
3612,80.0,30.0,30.0,2.0,0.0
3613,65.0,0.0,480.0,1.0,0.0
3614,72.0,0.0,30.0,4.0,0.0
3615,68.0,0.0,15.0,3.0,0.0
3616,80.0,0.0,30.0,2.0,0.0
3617,53.0,0.0,15.0,6.0,0.0
3618,68.0,0.0,15.0,3.0,0.0
3619,65.0,0.0,60.0,5.0,0.0
3620,72.0,30.0,15.0,4.0,0.0
3621,80.0,0.0,15.0,2.0,0.0
3622,68.0,0.0,30.0,3.0,0.0
3623,72.0,30.0,15.0,4.0,0.0
3624,65.0,0.0,60.0,5.0,0.0
3625,68.0,0.0,30.0,3.0,0.0
3626,80.0,30.0,15.0,2.0,0.0
3627,68.0,0.0,15.0,3.0,0.0
3628,53.0,30.0,15.0,6.0,0.0
3629,80.0,0.0,15.0,2.0,0.0
3630,72.0,0.0,15.0,4.0,0.0
3631,65.0,0.0,60.0,5.0,0.0
3632,80.0,0.0,15.0,2.0,0.0
3633,72.0,0.0,15.0,4.0,0.0
3634,68.0,0.0,30.0,3.0,0.0
3635,49.0,0.0,60.0,6.0,0.0
3636,56.0,0.0,240.0,1.0,0.0
3637,82.0,0.0,240.0,0.0,0.0
3638,73.0,0.0,240.0,0.0,0.0
3639,73.0,0.0,15.0,4.0,0.0
3640,82.0,0.0,15.0,2.0,0.0
3641,70.0,30.0,15.0,3.0,0.0
3642,61.0,0.0,15.0,5.0,0.0
3643,73.0,0.0,15.0,4.0,0.0
3644,82.0,30.0,15.0,2.0,0.0
3645,70.0,0.0,15.0,3.0,0.0
3646,82.0,30.0,15.0,2.0,0.0
3647,61.0,30.0,15.0,5.0,0.0
3648,49.0,0.0,15.0,6.0,0.0
3649,82.0,30.0,30.0,2.0,0.0
3650,73.0,0.0,15.0,4.0,0.0
3651,70.0,0.0,15.0,3.0,0.0
3652,73.0,0.0,15.0,4.0,0.0
3653,70.0,0.0,30.0,3.0,0.0
3654,82.0,0.0,30.0,2.0,0.0
3655,73.0,0.0,30.0,4.0,0.0
3656,61.0,30.0,15.0,5.0,0.0
3657,49.0,0.0,15.0,6.0,0.0
3658,82.0,30.0,15.0,2.0,0.0
3659,73.0,0.0,30.0,4.0,0.0
3660,70.0,0.0,15.0,3.0,0.0
3661,63.0,0.0,60.0,5.0,0.0
3662,79.0,0.0,30.0,2.0,0.0
3663,63.0,0.0,240.0,1.0,0.0
3664,79.0,0.0,240.0,0.0,0.0
3665,70.0,0.0,240.0,0.0,0.0
3666,51.0,0.0,60.0,6.0,0.0
3667,70.0,0.0,15.0,4.0,0.0
3668,67.0,30.0,15.0,3.0,0.0
3669,79.0,0.0,30.0,2.0,0.0
3670,51.0,0.0,60.0,6.0,0.0
3671,70.0,30.0,15.0,4.0,0.0
3672,67.0,0.0,15.0,3.0,0.0
3673,79.0,30.0,15.0,2.0,0.0
3674,67.0,0.0,30.0,3.0,0.0
3675,63.0,0.0,15.0,5.0,0.0
3676,70.0,0.0,15.0,4.0,0.0
3677,79.0,0.0,30.0,2.0,0.0
3678,67.0,0.0,30.0,3.0,0.0
3679,70.0,0.0,15.0,4.0,0.0
3680,51.0,0.0,15.0,6.0,0.0
3681,63.0,30.0,60.0,5.0,0.0
3682,79.0,30.0,15.0,2.0,0.0
3683,79.0,0.0,30.0,2.0,0.0
3684,67.0,30.0,15.0,3.0,0.0
3685,70.0,0.0,30.0,4.0,0.0
3686,72.0,0.0,120.0,0.0,0.0
3687,80.0,0.0,120.0,0.0,0.0
3688,44.0,0.0,120.0,6.0,0.0
3689,80.0,30.0,60.0,2.0,0.0
3690,63.0,30.0,120.0,1.0,0.0
3691,56.0,0.0,120.0,1.0,0.0
3692,56.0,0.0,120.0,5.0,0.0
3693,63.0,30.0,15.0,4.0,0.0
3694,75.0,0.0,60.0,2.0,0.0
3695,63.0,30.0,15.0,4.0,0.0
3696,72.0,0.0,60.0,2.0,0.0
3697,63.0,30.0,30.0,4.0,0.0
3698,63.0,30.0,15.0,4.0,0.0
3699,75.0,0.0,60.0,2.0,0.0
3700,63.0,30.0,30.0,4.0,0.0
3701,72.0,0.0,60.0,2.0,0.0
3702,63.0,30.0,15.0,4.0,0.0
3703,75.0,0.0,60.0,2.0,0.0
3704,63.0,30.0,15.0,4.0,0.0
3705,80.0,30.0,60.0,2.0,0.0
3706,63.0,30.0,15.0,4.0,0.0
3707,63.0,30.0,15.0,4.0,0.0
3708,84.0,0.0,60.0,2.0,0.0
3709,63.0,30.0,30.0,4.0,0.0
3710,84.0,0.0,240.0,0.0,0.0
3711,80.0,0.0,240.0,0.0,0.0
3712,87.0,30.0,60.0,2.0,0.0
3713,63.0,30.0,15.0,4.0,0.0
3714,56.0,0.0,240.0,1.0,0.0
3715,63.0,30.0,15.0,4.0,0.0
3716,63.0,0.0,15.0,4.0,0.0
3717,87.0,0.0,60.0,2.0,0.0
3718,63.0,30.0,15.0,4.0,0.0
3719,84.0,30.0,60.0,2.0,0.0
3720,56.0,0.0,120.0,5.0,0.0
3721,44.0,0.0,120.0,6.0,0.0
3722,63.0,30.0,15.0,4.0,0.0
3723,80.0,30.0,60.0,2.0,0.0
3724,63.0,0.0,15.0,4.0,0.0
3725,63.0,30.0,15.0,4.0,0.0
3726,63.0,0.0,15.0,1.0,0.0
3727,85.0,0.0,60.0,2.0,0.0
3728,82.0,0.0,240.0,0.0,0.0
3729,51.0,0.0,120.0,6.0,0.0
3730,63.0,0.0,15.0,4.0,0.0
3731,79.0,0.0,240.0,0.0,0.0
3732,63.0,30.0,15.0,4.0,0.0
3733,85.0,0.0,60.0,2.0,0.0
3734,63.0,30.0,15.0,4.0,0.0
3735,39.0,30.0,120.0,6.0,0.0
3736,51.0,0.0,120.0,5.0,0.0
3737,82.0,0.0,60.0,2.0,0.0
3738,63.0,30.0,15.0,4.0,0.0
3739,79.0,0.0,60.0,2.0,0.0
3740,63.0,30.0,30.0,4.0,0.0
3741,80.0,0.0,120.0,0.0,0.0
3742,56.0,30.0,120.0,1.0,0.0
3743,56.0,0.0,120.0,5.0,0.0
3744,63.0,0.0,15.0,4.0,0.0
3745,63.0,0.0,15.0,1.0,0.0
3746,44.0,0.0,120.0,6.0,0.0
3747,80.0,0.0,60.0,2.0,0.0
3748,63.0,30.0,15.0,4.0,0.0
3749,75.0,0.0,60.0,2.0,0.0
3750,63.0,0.0,15.0,4.0,0.0
3751,72.0,0.0,60.0,2.0,0.0
3752,63.0,30.0,15.0,4.0,0.0
3753,63.0,30.0,15.0,4.0,0.0
3754,75.0,30.0,60.0,2.0,0.0
3755,63.0,30.0,15.0,4.0,0.0
3756,63.0,30.0,30.0,4.0,0.0
3757,72.0,30.0,60.0,2.0,0.0
3758,63.0,0.0,30.0,4.0,0.0
3759,63.0,30.0,30.0,4.0,0.0
3760,75.0,30.0,60.0,2.0,0.0
3761,63.0,0.0,30.0,4.0,0.0
3762,80.0,0.0,60.0,2.0,0.0
3763,63.0,30.0,15.0,4.0,0.0
3764,84.0,0.0,60.0,2.0,0.0
3765,63.0,30.0,30.0,4.0,0.0
3766,84.0,30.0,240.0,0.0,0.0
3767,80.0,0.0,240.0,0.0,0.0
3768,56.0,0.0,240.0,1.0,0.0
3769,63.0,0.0,240.0,1.0,0.0
3770,63.0,30.0,15.0,4.0,0.0
3771,63.0,0.0,15.0,4.0,0.0
3772,87.0,30.0,15.0,2.0,0.0
3773,63.0,0.0,30.0,4.0,0.0
3774,56.0,0.0,120.0,5.0,0.0
3775,84.0,30.0,60.0,2.0,0.0
3776,44.0,0.0,120.0,6.0,0.0
3777,63.0,30.0,15.0,4.0,0.0
3778,63.0,30.0,30.0,4.0,0.0
3779,80.0,0.0,60.0,2.0,0.0
3780,63.0,0.0,30.0,4.0,0.0
3781,51.0,0.0,120.0,6.0,0.0
3782,63.0,0.0,240.0,1.0,0.0
3783,85.0,30.0,60.0,2.0,0.0
3784,79.0,0.0,240.0,0.0,0.0
3785,82.0,0.0,240.0,0.0,0.0
3786,63.0,30.0,15.0,4.0,0.0
3787,63.0,30.0,30.0,4.0,0.0
3788,85.0,0.0,60.0,2.0,0.0
3789,63.0,30.0,15.0,4.0,0.0
3790,39.0,0.0,120.0,6.0,0.0
3791,82.0,0.0,60.0,2.0,0.0
3792,51.0,0.0,120.0,5.0,0.0
3793,63.0,30.0,15.0,4.0,0.0
3794,79.0,0.0,60.0,2.0,0.0
3795,63.0,30.0,15.0,4.0,0.0
3796,63.0,30.0,15.0,4.0,0.0
3797,56.0,60.0,60.0,6.0,0.0
3798,68.0,0.0,60.0,4.0,0.0
3799,56.0,0.0,120.0,1.0,0.0
3800,63.0,0.0,120.0,1.0,0.0
3801,80.0,0.0,120.0,0.0,0.0
3802,80.0,0.0,60.0,2.0,0.0
3803,75.0,0.0,60.0,2.0,0.0
3804,63.0,60.0,60.0,4.0,0.0
3805,51.0,0.0,60.0,6.0,0.0
3806,48.0,0.0,60.0,6.0,0.0
3807,72.0,60.0,60.0,2.0,0.0
3808,60.0,0.0,60.0,4.0,0.0
3809,75.0,0.0,60.0,2.0,0.0
3810,51.0,0.0,60.0,6.0,0.0
3811,63.0,60.0,60.0,4.0,0.0
3812,80.0,0.0,60.0,2.0,0.0
3813,56.0,0.0,360.0,1.0,0.0
3814,56.0,0.0,60.0,6.0,0.0
3815,80.0,0.0,360.0,0.0,0.0
3816,80.0,60.0,60.0,2.0,0.0
3817,56.0,0.0,60.0,6.0,0.0
3818,68.0,60.0,15.0,4.0,0.0
3819,56.0,0.0,60.0,6.0,0.0
3820,68.0,0.0,15.0,4.0,0.0
3821,68.0,0.0,15.0,4.0,0.0
3822,80.0,60.0,15.0,2.0,0.0
3823,80.0,0.0,15.0,2.0,0.0
3824,56.0,60.0,15.0,6.0,0.0
3825,68.0,0.0,60.0,4.0,0.0
3826,75.0,0.0,60.0,2.0,0.0
3827,63.0,60.0,60.0,4.0,0.0
3828,51.0,0.0,60.0,6.0,0.0
3829,72.0,0.0,60.0,2.0,0.0
3830,48.0,0.0,60.0,6.0,0.0
3831,60.0,60.0,60.0,4.0,0.0
3832,51.0,60.0,60.0,6.0,0.0
3833,63.0,0.0,60.0,4.0,0.0
3834,75.0,0.0,60.0,2.0,0.0
3835,56.0,0.0,60.0,6.0,0.0
3836,56.0,90.0,360.0,1.0,0.0
3837,80.0,60.0,60.0,2.0,0.0
3838,68.0,0.0,60.0,4.0,0.0
3839,80.0,0.0,360.0,0.0,0.0
3840,80.0,60.0,60.0,2.0,0.0
3841,68.0,0.0,60.0,4.0,0.0
3842,56.0,0.0,60.0,6.0,0.0
3843,56.0,0.0,60.0,6.0,0.0
3844,68.0,0.0,15.0,4.0,0.0
3845,56.0,0.0,60.0,6.0,0.0
3846,80.0,60.0,15.0,2.0,0.0
3847,56.0,0.0,120.0,6.0,0.0
3848,80.0,120.0,15.0,2.0,0.0
3849,68.0,0.0,15.0,4.0,0.0
3850,81.0,210.0,30.0,2.0,0.0
3851,82.0,30.0,210.0,2.0,0.0
3852,80.0,210.0,30.0,2.0,0.0
3853,78.0,30.0,210.0,2.0,0.0
3854,77.0,240.0,30.0,2.0,0.0
3855,75.0,210.0,240.0,2.0,0.0
3856,73.0,0.0,210.0,2.0,0.0
3857,85.0,0.0,210.0,0.0,0.0
3858,49.0,0.0,210.0,6.0,0.0
3859,61.0,30.0,210.0,5.0,0.0
3860,74.0,210.0,30.0,2.0,0.0
3861,86.0,0.0,30.0,0.0,0.0
3862,50.0,0.0,30.0,6.0,0.0
3863,62.0,0.0,30.0,5.0,0.0
3864,87.0,0.0,210.0,0.0,0.0
3865,63.0,0.0,210.0,5.0,0.0
3866,51.0,30.0,210.0,6.0,0.0
3867,75.0,0.0,210.0,2.0,0.0
3868,61.0,0.0,30.0,5.0,0.0
3869,73.0,0.0,30.0,2.0,0.0
3870,49.0,0.0,30.0,6.0,0.0
3871,85.0,210.0,30.0,0.0,0.0
3872,71.0,0.0,210.0,2.0,0.0
3873,47.0,0.0,210.0,6.0,0.0
3874,59.0,30.0,210.0,5.0,0.0
3875,83.0,0.0,210.0,0.0,0.0
3876,70.0,0.0,30.0,2.0,0.0
3877,82.0,0.0,30.0,0.0,0.0
3878,46.0,0.0,30.0,6.0,0.0
3879,58.0,240.0,30.0,5.0,0.0
3880,80.0,0.0,240.0,0.0,0.0
3881,44.0,0.0,240.0,6.0,0.0
3882,68.0,0.0,240.0,2.0,0.0
3883,56.0,90.0,240.0,5.0,0.0
3884,42.0,0.0,120.0,6.0,0.0
3885,66.0,0.0,90.0,2.0,0.0
3886,54.0,0.0,120.0,5.0,0.0
3887,78.0,30.0,120.0,0.0,0.0
3888,65.0,30.0,30.0,3.0,0.0
3889,66.0,60.0,30.0,3.0,0.0
3890,61.0,30.0,120.0,2.0,0.0
3891,68.0,30.0,30.0,3.0,0.0
3892,70.0,60.0,30.0,3.0,0.0
3893,66.0,0.0,30.0,4.0,0.0
3894,71.0,0.0,30.0,3.0,0.0
3895,68.0,45.0,30.0,4.0,0.0
3896,73.0,0.0,30.0,3.0,0.0
3897,78.0,15.0,15.0,2.0,0.0
3898,70.0,0.0,30.0,4.0,0.0
3899,80.0,60.0,15.0,2.0,0.0
3900,78.0,0.0,60.0,2.0,0.0
3901,70.0,15.0,30.0,3.0,0.0
3902,66.0,0.0,30.0,4.0,0.0
3903,77.0,15.0,15.0,2.0,0.0
3904,78.0,30.0,15.0,2.0,0.0
3905,49.0,30.0,120.0,5.0,0.0
3906,71.0,0.0,120.0,4.0,0.0
3907,68.0,0.0,30.0,3.0,0.0
3908,77.0,60.0,30.0,2.0,0.0
3909,37.0,0.0,120.0,6.0,0.0
3910,70.0,30.0,30.0,3.0,0.0
3911,78.0,0.0,30.0,2.0,0.0
3912,71.0,0.0,30.0,3.0,0.0
3913,80.0,60.0,30.0,2.0,0.0
3914,65.0,30.0,120.0,4.0,0.0
3915,82.0,0.0,30.0,2.0,0.0
3916,73.0,30.0,30.0,3.0,0.0
3917,75.0,60.0,30.0,3.0,0.0
3918,83.0,0.0,30.0,2.0,0.0
3919,77.0,60.0,30.0,3.0,0.0
3920,85.0,0.0,30.0,2.0,0.0
3921,87.0,0.0,30.0,2.0,0.0
3922,78.0,60.0,30.0,3.0,0.0
3923,61.0,30.0,120.0,4.0,0.0
3924,89.0,0.0,30.0,2.0,0.0
3925,80.0,30.0,30.0,3.0,0.0
3926,42.0,30.0,120.0,6.0,0.0
3927,82.0,30.0,90.0,3.0,0.0
3928,90.0,0.0,90.0,2.0,0.0
3929,54.0,0.0,120.0,5.0,0.0
3930,54.0,60.0,30.0,4.0,0.0
3931,56.0,0.0,30.0,4.0,0.0
3932,78.0,30.0,120.0,2.0,0.0
3933,70.0,0.0,120.0,3.0,0.0
3934,58.0,60.0,30.0,4.0,0.0
3935,59.0,30.0,30.0,4.0,0.0
3936,61.0,60.0,30.0,4.0,0.0
3937,63.0,45.0,30.0,4.0,0.0
3938,70.0,0.0,15.0,3.0,0.0
3939,78.0,15.0,15.0,2.0,0.0
3940,65.0,0.0,30.0,4.0,0.0
3941,72.0,0.0,15.0,3.0,0.0
3942,80.0,60.0,15.0,2.0,0.0
3943,70.0,0.0,60.0,3.0,0.0
3944,78.0,0.0,60.0,2.0,0.0
3945,66.0,15.0,30.0,4.0,0.0
3946,77.0,15.0,15.0,2.0,0.0
3947,68.0,0.0,15.0,3.0,0.0
3948,78.0,30.0,15.0,2.0,0.0
3949,70.0,0.0,15.0,3.0,0.0
3950,68.0,60.0,30.0,3.0,0.0
3951,49.0,0.0,120.0,5.0,0.0
3952,77.0,0.0,30.0,2.0,0.0
3953,71.0,0.0,120.0,4.0,0.0
3954,37.0,30.0,120.0,6.0,0.0
3955,70.0,0.0,30.0,3.0,0.0
3956,78.0,30.0,30.0,2.0,0.0
3957,65.0,30.0,120.0,4.0,0.0
3958,71.0,0.0,30.0,3.0,0.0
3959,80.0,60.0,30.0,2.0,0.0
3960,73.0,30.0,30.0,3.0,0.0
3961,82.0,0.0,30.0,2.0,0.0
3962,75.0,0.0,30.0,3.0,0.0
3963,83.0,60.0,30.0,2.0,0.0
3964,77.0,0.0,30.0,3.0,0.0
3965,85.0,60.0,30.0,2.0,0.0
3966,78.0,60.0,30.0,3.0,0.0
3967,61.0,0.0,120.0,4.0,0.0
3968,49.0,30.0,120.0,5.0,0.0
3969,87.0,0.0,30.0,2.0,0.0
3970,37.0,0.0,120.0,6.0,0.0
3971,89.0,0.0,30.0,2.0,0.0
3972,80.0,30.0,30.0,3.0,0.0
3973,73.0,0.0,120.0,4.0,0.0
3974,42.0,0.0,30.0,6.0,0.0
3975,82.0,0.0,30.0,3.0,0.0
3976,54.0,30.0,30.0,5.0,0.0
3977,90.0,0.0,15.0,2.0,0.0
3978,44.0,0.0,30.0,6.0,0.0
3979,82.0,0.0,15.0,3.0,0.0
3980,56.0,0.0,30.0,5.0,0.0
3981,82.0,0.0,15.0,3.0,0.0
3982,90.0,30.0,15.0,2.0,0.0
3983,90.0,30.0,15.0,2.0,0.0
3984,70.0,30.0,120.0,4.0,0.0
3985,58.0,0.0,30.0,5.0,0.0
3986,46.0,0.0,30.0,6.0,0.0
3987,90.0,30.0,15.0,2.0,0.0
3988,82.0,0.0,15.0,3.0,0.0
3989,82.0,30.0,15.0,3.0,0.0
3990,47.0,30.0,30.0,6.0,0.0
3991,59.0,0.0,30.0,5.0,0.0
3992,82.0,0.0,15.0,3.0,0.0
3993,90.0,0.0,15.0,2.0,0.0
3994,49.0,0.0,30.0,6.0,0.0
3995,61.0,30.0,30.0,5.0,0.0
3996,82.0,0.0,15.0,3.0,0.0
3997,90.0,0.0,30.0,2.0,0.0
3998,66.0,30.0,120.0,4.0,0.0
3999,82.0,30.0,30.0,3.0,0.0
4000,90.0,0.0,30.0,2.0,0.0
4001,63.0,0.0,30.0,5.0,0.0
4002,51.0,0.0,30.0,6.0,0.0
4003,82.0,0.0,30.0,3.0,0.0
4004,90.0,30.0,15.0,2.0,0.0
4005,82.0,0.0,30.0,3.0,0.0
4006,65.0,30.0,30.0,5.0,0.0
4007,53.0,0.0,30.0,6.0,0.0
4008,90.0,0.0,15.0,2.0,0.0
4009,82.0,0.0,15.0,3.0,0.0
4010,90.0,0.0,15.0,2.0,0.0
4011,90.0,30.0,15.0,2.0,0.0
4012,82.0,0.0,15.0,3.0,0.0
4013,66.0,0.0,30.0,5.0,0.0
4014,54.0,0.0,30.0,6.0,0.0
4015,82.0,30.0,30.0,3.0,0.0
4016,90.0,30.0,15.0,2.0,0.0
4017,48.0,0.0,120.0,6.0,0.0
4018,87.0,30.0,960.0,0.0,0.0
4019,78.0,0.0,960.0,0.0,0.0
4020,60.0,30.0,120.0,5.0,0.0
4021,75.0,30.0,30.0,4.0,0.0
4022,90.0,0.0,15.0,2.0,0.0
4023,82.0,0.0,15.0,3.0,0.0
4024,82.0,0.0,15.0,3.0,0.0
4025,73.0,30.0,30.0,4.0,0.0
4026,90.0,30.0,15.0,2.0,0.0
4027,82.0,0.0,15.0,3.0,0.0
4028,90.0,0.0,30.0,2.0,0.0
4029,42.0,0.0,120.0,6.0,0.0
4030,54.0,30.0,120.0,5.0,0.0
4031,72.0,30.0,30.0,4.0,0.0
4032,90.0,0.0,30.0,2.0,0.0
4033,82.0,0.0,15.0,3.0,0.0
4034,90.0,0.0,30.0,2.0,0.0
4035,90.0,0.0,30.0,2.0,0.0
4036,70.0,0.0,30.0,4.0,0.0
4037,82.0,30.0,15.0,3.0,0.0
4038,90.0,0.0,30.0,2.0,0.0
4039,36.0,0.0,120.0,6.0,0.0
4040,82.0,0.0,15.0,3.0,0.0
4041,68.0,30.0,30.0,4.0,0.0
4042,48.0,0.0,120.0,5.0,0.0
4043,90.0,0.0,15.0,2.0,0.0
4044,82.0,30.0,30.0,3.0,0.0
4045,82.0,0.0,30.0,3.0,0.0
4046,66.0,30.0,30.0,4.0,0.0
4047,90.0,0.0,30.0,2.0,0.0
4048,90.0,0.0,30.0,2.0,0.0
4049,82.0,30.0,30.0,3.0,0.0
4050,65.0,0.0,30.0,4.0,0.0
4051,82.0,0.0,30.0,3.0,0.0
4052,82.0,0.0,30.0,3.0,0.0
4053,90.0,30.0,15.0,2.0,0.0
4054,36.0,0.0,30.0,6.0,0.0
4055,82.0,0.0,30.0,3.0,0.0
4056,90.0,30.0,15.0,2.0,0.0
4057,48.0,0.0,30.0,5.0,0.0
4058,63.0,30.0,30.0,4.0,0.0
4059,90.0,0.0,15.0,2.0,0.0
4060,82.0,30.0,30.0,3.0,0.0
4061,72.0,0.0,120.0,4.0,0.0
4062,41.0,0.0,30.0,6.0,0.0
4063,53.0,30.0,30.0,5.0,0.0
4064,80.0,0.0,30.0,3.0,0.0
4065,90.0,0.0,15.0,2.0,0.0
4066,80.0,30.0,15.0,3.0,0.0
4067,54.0,0.0,30.0,5.0,0.0
4068,42.0,0.0,30.0,6.0,0.0
4069,90.0,0.0,15.0,2.0,0.0
4070,80.0,0.0,30.0,3.0,0.0
4071,90.0,30.0,15.0,2.0,0.0
4072,56.0,0.0,30.0,5.0,0.0
4073,44.0,30.0,30.0,6.0,0.0
4074,68.0,0.0,120.0,4.0,0.0
4075,90.0,0.0,15.0,2.0,0.0
4076,80.0,0.0,15.0,3.0,0.0
4077,46.0,0.0,30.0,6.0,0.0
4078,58.0,0.0,30.0,5.0,0.0
4079,80.0,0.0,30.0,3.0,0.0
4080,80.0,0.0,30.0,3.0,0.0
4081,90.0,30.0,15.0,2.0,0.0
4082,90.0,30.0,15.0,2.0,0.0
4083,48.0,0.0,30.0,6.0,0.0
4084,60.0,0.0,30.0,5.0,0.0
4085,65.0,0.0,120.0,4.0,0.0
4086,80.0,0.0,30.0,3.0,0.0
4087,90.0,30.0,30.0,2.0,0.0
4088,80.0,0.0,30.0,3.0,0.0
4089,61.0,0.0,30.0,5.0,0.0
4090,49.0,0.0,30.0,6.0,0.0
4091,80.0,0.0,30.0,3.0,0.0
4092,90.0,30.0,30.0,2.0,0.0
4093,80.0,0.0,30.0,3.0,0.0
4094,90.0,30.0,15.0,2.0,0.0
4095,80.0,0.0,30.0,3.0,0.0
4096,51.0,0.0,30.0,6.0,0.0
4097,63.0,0.0,30.0,5.0,0.0
4098,80.0,0.0,30.0,3.0,0.0
4099,90.0,30.0,15.0,2.0,0.0
4100,80.0,0.0,30.0,3.0,0.0
4101,90.0,30.0,15.0,2.0,0.0
4102,65.0,30.0,30.0,5.0,0.0
4103,53.0,0.0,30.0,6.0,0.0
4104,90.0,0.0,15.0,2.0,0.0
4105,80.0,0.0,30.0,3.0,0.0
4106,89.0,0.0,30.0,2.0,0.0
4107,77.0,0.0,960.0,0.0,0.0
4108,85.0,30.0,960.0,0.0,0.0
4109,58.0,0.0,120.0,5.0,0.0
4110,46.0,0.0,120.0,6.0,0.0
4111,73.0,30.0,30.0,4.0,0.0
4112,80.0,0.0,15.0,3.0,0.0
4113,89.0,30.0,30.0,2.0,0.0
4114,80.0,0.0,15.0,3.0,0.0
4115,89.0,0.0,30.0,2.0,0.0
4116,72.0,30.0,30.0,4.0,0.0
4117,89.0,0.0,30.0,2.0,0.0
4118,53.0,30.0,120.0,5.0,0.0
4119,89.0,0.0,30.0,2.0,0.0
4120,70.0,30.0,30.0,4.0,0.0
4121,80.0,30.0,15.0,3.0,0.0
4122,41.0,0.0,120.0,6.0,0.0
4123,89.0,0.0,30.0,2.0,0.0
4124,89.0,0.0,30.0,2.0,0.0
4125,80.0,30.0,15.0,3.0,0.0
4126,68.0,30.0,30.0,4.0,0.0
4127,80.0,0.0,15.0,3.0,0.0
4128,66.0,0.0,30.0,4.0,0.0
4129,80.0,0.0,15.0,3.0,0.0
4130,34.0,30.0,120.0,6.0,0.0
4131,89.0,0.0,15.0,2.0,0.0
4132,46.0,0.0,120.0,5.0,0.0
4133,89.0,0.0,15.0,2.0,0.0
4134,80.0,0.0,30.0,3.0,0.0
4135,89.0,30.0,15.0,2.0,0.0
4136,65.0,0.0,30.0,4.0,0.0
4137,80.0,0.0,15.0,3.0,0.0
4138,89.0,0.0,30.0,2.0,0.0
4139,63.0,0.0,30.0,4.0,0.0
4140,80.0,0.0,30.0,3.0,0.0
4141,89.0,30.0,15.0,2.0,0.0
4142,80.0,30.0,30.0,3.0,0.0
4143,89.0,0.0,30.0,2.0,0.0
4144,46.0,30.0,60.0,5.0,0.0
4145,34.0,0.0,60.0,6.0,0.0
4146,80.0,0.0,30.0,3.0,0.0
4147,61.0,30.0,30.0,4.0,0.0
4148,80.0,0.0,30.0,3.0,0.0
4149,89.0,0.0,30.0,2.0,0.0
4150,51.0,0.0,30.0,5.0,0.0
4151,39.0,0.0,30.0,6.0,0.0
4152,70.0,30.0,120.0,4.0,0.0
4153,78.0,0.0,30.0,3.0,0.0
4154,78.0,0.0,30.0,3.0,0.0
4155,89.0,30.0,15.0,2.0,0.0
4156,41.0,0.0,30.0,6.0,0.0
4157,53.0,0.0,30.0,5.0,0.0
4158,89.0,30.0,15.0,2.0,0.0
4159,89.0,0.0,30.0,2.0,0.0
4160,78.0,30.0,15.0,3.0,0.0
4161,54.0,0.0,30.0,5.0,0.0
4162,66.0,0.0,120.0,4.0,0.0
4163,42.0,30.0,30.0,6.0,0.0
4164,78.0,0.0,15.0,3.0,0.0
4165,89.0,0.0,15.0,2.0,0.0
4166,44.0,30.0,30.0,6.0,0.0
4167,89.0,0.0,30.0,2.0,0.0
4168,56.0,0.0,30.0,5.0,0.0
4169,89.0,0.0,30.0,2.0,0.0
4170,78.0,0.0,15.0,3.0,0.0
4171,63.0,0.0,120.0,4.0,0.0
4172,89.0,0.0,30.0,2.0,0.0
4173,58.0,0.0,30.0,5.0,0.0
4174,46.0,0.0,30.0,6.0,0.0
4175,78.0,30.0,15.0,3.0,0.0
4176,89.0,30.0,30.0,2.0,0.0
4177,78.0,30.0,15.0,3.0,0.0
4178,60.0,0.0,30.0,5.0,0.0
4179,78.0,0.0,15.0,3.0,0.0
4180,48.0,0.0,30.0,6.0,0.0
4181,89.0,0.0,15.0,2.0,0.0
4182,78.0,30.0,30.0,3.0,0.0
4183,89.0,0.0,15.0,2.0,0.0
4184,49.0,0.0,30.0,6.0,0.0
4185,61.0,0.0,30.0,5.0,0.0
4186,78.0,30.0,15.0,3.0,0.0
4187,89.0,30.0,30.0,2.0,0.0
4188,89.0,30.0,30.0,2.0,0.0
4189,63.0,0.0,30.0,5.0,0.0
4190,51.0,0.0,30.0,6.0,0.0
4191,78.0,0.0,30.0,3.0,0.0
4192,78.0,0.0,30.0,3.0,0.0
4193,89.0,0.0,30.0,2.0,0.0
4194,51.0,0.0,60.0,5.0,0.0
4195,87.0,0.0,30.0,2.0,0.0
4196,84.0,0.0,120.0,0.0,0.0
4197,75.0,0.0,120.0,0.0,0.0
4198,87.0,0.0,30.0,2.0,0.0
4199,63.0,0.0,15.0,4.0,0.0
4200,78.0,30.0,15.0,3.0,0.0
4201,78.0,0.0,30.0,3.0,0.0
4202,39.0,0.0,15.0,6.0,0.0
4203,63.0,0.0,30.0,4.0,0.0
4204,78.0,0.0,30.0,3.0,0.0
4205,87.0,30.0,15.0,2.0,0.0
4206,63.0,0.0,30.0,4.0,0.0
4207,51.0,30.0,15.0,5.0,0.0
4208,77.0,0.0,30.0,3.0,0.0
4209,85.0,0.0,120.0,0.0,0.0
4210,39.0,0.0,15.0,6.0,0.0
4211,65.0,30.0,30.0,4.0,0.0
4212,77.0,0.0,120.0,0.0,0.0
4213,85.0,0.0,15.0,2.0,0.0
4214,65.0,0.0,30.0,4.0,0.0
4215,85.0,0.0,15.0,2.0,0.0
4216,77.0,0.0,15.0,3.0,0.0
4217,51.0,30.0,15.0,5.0,0.0
4218,65.0,0.0,30.0,4.0,0.0
4219,77.0,30.0,15.0,3.0,0.0
4220,65.0,30.0,30.0,4.0,0.0
4221,85.0,0.0,30.0,2.0,0.0
4222,39.0,0.0,15.0,6.0,0.0
4223,75.0,0.0,30.0,3.0,0.0
4224,84.0,0.0,30.0,2.0,0.0
4225,51.0,0.0,15.0,5.0,0.0
4226,75.0,30.0,120.0,0.0,0.0
4227,84.0,0.0,120.0,0.0,0.0
4228,75.0,0.0,30.0,3.0,0.0
4229,66.0,30.0,15.0,4.0,0.0
4230,84.0,0.0,15.0,2.0,0.0
4231,39.0,0.0,15.0,6.0,0.0
4232,51.0,30.0,15.0,5.0,0.0
4233,84.0,0.0,30.0,2.0,0.0
4234,66.0,30.0,15.0,4.0,0.0
4235,75.0,0.0,15.0,3.0,0.0
4236,40.0,30.0,60.0,6.0,0.0
4237,73.0,0.0,30.0,3.0,0.0
4238,73.0,0.0,120.0,0.0,0.0
4239,82.0,0.0,120.0,0.0,0.0
4240,82.0,30.0,15.0,2.0,0.0
4241,73.0,0.0,30.0,3.0,0.0
4242,67.0,0.0,15.0,4.0,0.0
4243,82.0,0.0,15.0,2.0,0.0
4244,52.0,0.0,15.0,5.0,0.0
4245,73.0,0.0,30.0,3.0,0.0
4246,67.0,0.0,30.0,4.0,0.0
4247,40.0,0.0,60.0,6.0,0.0
4248,67.0,0.0,30.0,4.0,0.0
4249,82.0,30.0,15.0,2.0,0.0
4250,73.0,0.0,30.0,3.0,0.0
4251,72.0,0.0,120.0,0.0,0.0
4252,81.0,30.0,120.0,0.0,0.0
4253,72.0,0.0,30.0,3.0,0.0
4254,41.0,0.0,120.0,6.0,0.0
4255,53.0,0.0,120.0,5.0,0.0
4256,81.0,0.0,30.0,2.0,0.0
4257,72.0,0.0,30.0,3.0,0.0
4258,65.0,30.0,15.0,4.0,0.0
4259,81.0,0.0,30.0,2.0,0.0
4260,65.0,30.0,15.0,4.0,0.0
4261,81.0,0.0,30.0,2.0,0.0
4262,65.0,0.0,30.0,4.0,0.0
4263,81.0,0.0,30.0,2.0,0.0
4264,72.0,30.0,15.0,3.0,0.0
4265,54.0,0.0,120.0,6.0,0.0
4266,78.0,0.0,120.0,0.0,0.0
4267,78.0,0.0,15.0,2.0,0.0
4268,66.0,30.0,15.0,4.0,0.0
4269,66.0,30.0,15.0,4.0,0.0
4270,78.0,0.0,30.0,2.0,0.0
4271,78.0,0.0,30.0,2.0,0.0
4272,66.0,30.0,15.0,4.0,0.0
4273,77.0,30.0,30.0,2.0,0.0
4274,77.0,0.0,120.0,0.0,0.0
4275,53.0,0.0,120.0,6.0,0.0
4276,65.0,0.0,15.0,4.0,0.0
4277,77.0,30.0,15.0,2.0,0.0
4278,65.0,0.0,15.0,4.0,0.0
4279,65.0,30.0,15.0,4.0,0.0
4280,77.0,0.0,30.0,2.0,0.0
4281,76.0,30.0,120.0,0.0,0.0
4282,76.0,0.0,30.0,2.0,0.0
4283,52.0,0.0,120.0,6.0,0.0
4284,64.0,30.0,15.0,4.0,0.0
4285,76.0,0.0,15.0,2.0,0.0
4286,64.0,30.0,30.0,4.0,0.0
4287,76.0,0.0,15.0,2.0,0.0
4288,64.0,0.0,30.0,4.0,0.0
4289,77.0,0.0,30.0,2.0,0.0
4290,53.0,30.0,120.0,6.0,0.0
4291,77.0,0.0,120.0,0.0,0.0
4292,65.0,30.0,15.0,4.0,0.0
4293,77.0,0.0,15.0,2.0,0.0
4294,65.0,30.0,15.0,4.0,0.0
4295,65.0,0.0,30.0,4.0,0.0
4296,77.0,30.0,15.0,2.0,0.0
4297,75.0,30.0,120.0,0.0,0.0
4298,51.0,0.0,120.0,6.0,0.0
4299,63.0,0.0,30.0,4.0,0.0
4300,75.0,30.0,15.0,2.0,0.0
4301,63.0,30.0,15.0,4.0,0.0
4302,75.0,30.0,15.0,2.0,0.0
4303,63.0,0.0,30.0,4.0,0.0
4304,73.0,30.0,120.0,0.0,0.0
4305,49.0,0.0,120.0,6.0,0.0
4306,73.0,0.0,30.0,2.0,0.0
4307,61.0,30.0,15.0,4.0,0.0
4308,73.0,0.0,30.0,2.0,0.0
4309,73.0,30.0,30.0,2.0,0.0
4310,61.0,0.0,15.0,4.0,0.0
4311,73.0,0.0,30.0,2.0,0.0
4312,60.0,0.0,30.0,4.0,0.0
4313,48.0,0.0,120.0,6.0,0.0
4314,72.0,0.0,120.0,0.0,0.0
4315,72.0,30.0,15.0,2.0,0.0
4316,72.0,0.0,30.0,2.0,0.0
4317,60.0,30.0,15.0,4.0,0.0
4318,60.0,30.0,15.0,4.0,0.0
4319,72.0,120.0,30.0,2.0,0.0
4320,58.0,0.0,120.0,4.0,0.0
4321,70.0,120.0,120.0,0.0,0.0
4322,46.0,0.0,120.0,6.0,0.0
4323,70.0,0.0,120.0,2.0,0.0
4324,61.0,0.0,120.0,4.0,0.0
4325,65.0,120.0,120.0,3.0,0.0
4326,37.0,0.0,120.0,6.0,0.0
4327,49.0,120.0,120.0,5.0,0.0
4328,70.0,0.0,120.0,2.0,0.0
4329,61.0,0.0,120.0,4.0,0.0
4330,65.0,120.0,120.0,3.0,0.0
4331,39.0,120.0,120.0,6.0,0.0
4332,72.0,30.0,300.0,2.0,0.0
4333,51.0,0.0,120.0,5.0,0.0
4334,66.0,0.0,120.0,3.0,0.0
4335,58.0,60.0,120.0,4.0,0.0
4336,53.0,30.0,120.0,5.0,0.0
4337,41.0,0.0,120.0,6.0,0.0
4338,78.0,30.0,30.0,2.0,0.0
4339,60.0,0.0,120.0,3.0,0.0
4340,57.0,30.0,120.0,4.0,0.0
4341,77.0,60.0,30.0,2.0,0.0
4342,75.0,30.0,30.0,2.0,0.0
4343,58.0,0.0,120.0,5.0,0.0
4344,46.0,60.0,120.0,6.0,0.0
4345,73.0,60.0,30.0,2.0,0.0
4346,72.0,30.0,30.0,2.0,0.0
4347,70.0,60.0,60.0,2.0,0.0
4348,58.0,0.0,120.0,4.0,0.0
4349,61.0,120.0,120.0,3.0,0.0
4350,53.0,0.0,120.0,5.0,0.0
4351,41.0,120.0,120.0,6.0,0.0
4352,68.0,0.0,120.0,3.0,0.0
4353,61.0,0.0,120.0,4.0,0.0
4354,73.0,120.0,120.0,2.0,0.0
4355,75.0,30.0,300.0,2.0,0.0
4356,42.0,120.0,120.0,6.0,0.0
4357,54.0,0.0,120.0,5.0,0.0
4358,70.0,60.0,120.0,3.0,0.0
4359,61.0,0.0,120.0,4.0,0.0
4360,44.0,30.0,120.0,6.0,0.0
4361,56.0,0.0,120.0,5.0,0.0
4362,82.0,30.0,30.0,2.0,0.0
4363,80.0,60.0,30.0,2.0,0.0
4364,60.0,30.0,120.0,4.0,0.0
4365,63.0,0.0,120.0,3.0,0.0
4366,78.0,30.0,30.0,2.0,0.0
4367,77.0,60.0,30.0,2.0,0.0
4368,61.0,60.0,120.0,5.0,0.0
4369,49.0,0.0,120.0,6.0,0.0
4370,75.0,30.0,30.0,2.0,0.0
4371,65.0,120.0,120.0,3.0,0.0
4372,73.0,60.0,60.0,2.0,0.0
4373,61.0,0.0,120.0,4.0,0.0
4374,56.0,120.0,120.0,5.0,0.0
4375,44.0,0.0,120.0,6.0,0.0
4376,65.0,120.0,120.0,4.0,0.0
4377,72.0,0.0,120.0,3.0,0.0
4378,77.0,0.0,120.0,2.0,0.0
4379,79.0,30.0,300.0,2.0,0.0
4380,58.0,0.0,120.0,5.0,0.0
4381,46.0,120.0,120.0,6.0,0.0
4382,73.0,0.0,120.0,3.0,0.0
4383,65.0,60.0,120.0,4.0,0.0
4384,60.0,0.0,120.0,5.0,0.0
4385,48.0,30.0,120.0,6.0,0.0
4386,85.0,30.0,30.0,2.0,0.0
4387,67.0,30.0,120.0,3.0,0.0
4388,84.0,60.0,30.0,2.0,0.0
4389,64.0,0.0,120.0,4.0,0.0
4390,82.0,30.0,30.0,2.0,0.0
4391,53.0,60.0,120.0,6.0,0.0
4392,80.0,60.0,30.0,2.0,0.0
4393,65.0,0.0,120.0,5.0,0.0
4394,79.0,30.0,30.0,2.0,0.0
4395,77.0,60.0,60.0,2.0,0.0
4396,68.0,120.0,120.0,3.0,0.0
4397,65.0,0.0,120.0,4.0,0.0
4398,60.0,0.0,120.0,5.0,0.0
4399,48.0,120.0,120.0,6.0,0.0
4400,68.0,0.0,120.0,4.0,0.0
4401,80.0,120.0,120.0,2.0,0.0
4402,75.0,0.0,120.0,3.0,0.0
4403,49.0,120.0,120.0,6.0,0.0
4404,82.0,30.0,300.0,2.0,0.0
4405,61.0,0.0,120.0,5.0,0.0
4406,77.0,0.0,120.0,3.0,0.0
4407,68.0,60.0,120.0,4.0,0.0
4408,63.0,0.0,120.0,5.0,0.0
4409,51.0,30.0,120.0,6.0,0.0
4410,89.0,30.0,30.0,2.0,0.0
4411,87.0,60.0,30.0,2.0,0.0
4412,70.0,0.0,120.0,3.0,0.0
4413,67.0,30.0,120.0,4.0,0.0
4414,85.0,30.0,30.0,2.0,0.0
4415,56.0,0.0,3000.0,1.0,0.0
4416,72.0,0.0,30.0,3.0,0.0
4417,56.0,30.0,60.0,5.0,0.0
4418,80.0,30.0,480.0,0.0,0.0
4419,44.0,0.0,60.0,6.0,0.0
4420,84.0,30.0,30.0,2.0,0.0
4421,44.0,0.0,3000.0,1.0,0.0
4422,68.0,0.0,30.0,4.0,0.0
4423,82.0,0.0,30.0,2.0,0.0
4424,70.0,0.0,30.0,4.0,0.0
4425,73.0,30.0,30.0,3.0,0.0
4426,56.0,0.0,60.0,5.0,0.0
4427,80.0,60.0,60.0,2.0,0.0
4428,72.0,0.0,60.0,4.0,0.0
4429,44.0,60.0,15.0,6.0,0.0
4430,75.0,0.0,60.0,3.0,0.0
4431,56.0,0.0,15.0,5.0,0.0
4432,44.0,0.0,15.0,6.0,0.0
4433,44.0,0.0,60.0,6.0,0.0
4434,56.0,60.0,15.0,5.0,0.0
4435,56.0,30.0,15.0,5.0,0.0
4436,68.0,30.0,30.0,3.0,0.0
4437,72.0,0.0,30.0,2.0,0.0
4438,72.0,30.0,30.0,3.0,0.0
4439,44.0,30.0,15.0,6.0,0.0
4440,73.0,0.0,30.0,2.0,0.0
4441,56.0,0.0,60.0,5.0,0.0
4442,75.0,0.0,30.0,2.0,0.0
4443,73.0,30.0,30.0,3.0,0.0
4444,56.0,0.0,30.0,4.0,0.0
4445,82.0,0.0,480.0,0.0,0.0
4446,79.0,0.0,480.0,0.0,0.0
4447,58.0,0.0,30.0,4.0,0.0
4448,73.0,30.0,30.0,2.0,0.0
4449,72.0,0.0,30.0,3.0,0.0
4450,72.0,0.0,30.0,2.0,0.0
4451,44.0,0.0,15.0,6.0,0.0
4452,70.0,0.0,30.0,3.0,0.0
4453,56.0,30.0,15.0,5.0,0.0
4454,60.0,30.0,30.0,4.0,0.0
4455,61.0,0.0,60.0,4.0,0.0
4456,44.0,0.0,15.0,6.0,0.0
4457,70.0,60.0,60.0,2.0,0.0
4458,67.0,0.0,60.0,3.0,0.0
4459,56.0,0.0,15.0,5.0,0.0
4460,44.0,0.0,15.0,6.0,0.0
4461,56.0,60.0,15.0,5.0,0.0
4462,56.0,0.0,15.0,5.0,0.0
4463,44.0,30.0,15.0,6.0,0.0
4464,70.0,0.0,30.0,3.0,0.0
4465,73.0,30.0,30.0,2.0,0.0
4466,56.0,30.0,15.0,5.0,0.0
4467,72.0,0.0,30.0,3.0,0.0
4468,75.0,30.0,30.0,2.0,0.0
4469,44.0,0.0,60.0,6.0,0.0
4470,77.0,0.0,30.0,2.0,0.0
4471,44.0,0.0,60.0,6.0,0.0
4472,58.0,30.0,30.0,4.0,0.0
4473,73.0,0.0,30.0,3.0,0.0
4474,75.0,0.0,30.0,2.0,0.0
4475,72.0,30.0,30.0,3.0,0.0
4476,60.0,0.0,30.0,4.0,0.0
4477,78.0,0.0,480.0,0.0,0.0
4478,84.0,0.0,480.0,0.0,0.0
4479,56.0,30.0,15.0,5.0,0.0
4480,56.0,0.0,15.0,5.0,0.0
4481,70.0,0.0,30.0,3.0,0.0
4482,73.0,0.0,30.0,2.0,0.0
4483,61.0,30.0,30.0,4.0,0.0
4484,44.0,30.0,15.0,6.0,0.0
4485,72.0,0.0,60.0,2.0,0.0
4486,68.0,0.0,60.0,3.0,0.0
4487,56.0,60.0,15.0,5.0,0.0
4488,63.0,60.0,60.0,4.0,0.0
4489,44.0,0.0,15.0,6.0,0.0
4490,56.0,0.0,60.0,5.0,0.0
4491,75.0,0.0,30.0,2.0,0.0
4492,44.0,30.0,15.0,6.0,0.0
4493,60.0,30.0,30.0,3.0,0.0
4494,56.0,0.0,15.0,5.0,0.0
4495,61.0,30.0,30.0,3.0,0.0
4496,44.0,30.0,15.0,6.0,0.0
4497,77.0,0.0,30.0,2.0,0.0
4498,63.0,0.0,30.0,3.0,0.0
4499,60.0,0.0,30.0,4.0,0.0
4500,78.0,30.0,30.0,2.0,0.0
4501,56.0,30.0,15.0,5.0,0.0
4502,65.0,30.0,30.0,3.0,0.0
4503,61.0,0.0,30.0,4.0,0.0
4504,56.0,0.0,15.0,5.0,0.0
4505,77.0,0.0,30.0,2.0,0.0
4506,77.0,60.0,480.0,0.0,0.0
4507,44.0,30.0,15.0,6.0,0.0
4508,85.0,0.0,480.0,0.0,0.0
4509,66.0,0.0,30.0,3.0,0.0
4510,56.0,30.0,15.0,5.0,0.0
4511,63.0,30.0,30.0,4.0,0.0
4512,44.0,60.0,60.0,6.0,0.0
4513,75.0,0.0,30.0,2.0,0.0
4514,73.0,0.0,60.0,2.0,0.0
4515,56.0,0.0,15.0,5.0,0.0
4516,65.0,0.0,60.0,4.0,0.0
4517,68.0,0.0,60.0,3.0,0.0
4518,44.0,0.0,15.0,6.0,0.0
4519,56.0,60.0,60.0,5.0,0.0
4520,44.0,0.0,15.0,6.0,0.0
4521,56.0,0.0,60.0,5.0,0.0
4522,77.0,0.0,30.0,2.0,0.0
4523,73.0,30.0,30.0,3.0,0.0
4524,56.0,0.0,60.0,5.0,0.0
4525,44.0,30.0,15.0,6.0,0.0
4526,56.0,0.0,60.0,5.0,0.0
4527,75.0,0.0,30.0,3.0,0.0
4528,78.0,30.0,30.0,2.0,0.0
4529,56.0,0.0,60.0,5.0,0.0
4530,77.0,0.0,30.0,3.0,0.0
4531,44.0,30.0,15.0,6.0,0.0
4532,80.0,30.0,30.0,2.0,0.0
4533,68.0,0.0,30.0,4.0,0.0
4534,75.0,0.0,60.0,3.0,0.0
4535,90.0,0.0,1080.0,0.0,0.0
4536,84.0,0.0,1080.0,0.0,0.0
4537,44.0,0.0,60.0,6.0,0.0
4538,56.0,0.0,60.0,5.0,0.0
4539,68.0,120.0,60.0,4.0,0.0
4540,78.0,0.0,60.0,2.0,0.0
4541,87.0,0.0,120.0,2.0,0.0
4542,78.0,0.0,120.0,2.0,0.0
4543,75.0,0.0,120.0,3.0,0.0
4544,56.0,120.0,60.0,4.0,0.0
4545,44.0,0.0,60.0,6.0,0.0
4546,84.0,0.0,15.0,3.0,0.0
4547,75.0,0.0,120.0,3.0,0.0
4548,48.0,0.0,60.0,6.0,0.0
4549,60.0,0.0,60.0,4.0,0.0
4550,87.0,0.0,15.0,2.0,0.0
4551,84.0,0.0,15.0,3.0,0.0
4552,78.0,120.0,15.0,2.0,0.0
4553,75.0,0.0,120.0,3.0,0.0
4554,51.0,0.0,60.0,6.0,0.0
4555,63.0,0.0,60.0,4.0,0.0
4556,87.0,0.0,15.0,2.0,0.0
4557,78.0,0.0,15.0,2.0,0.0
4558,68.0,0.0,60.0,4.0,0.0
4559,56.0,0.0,60.0,6.0,0.0
4560,84.0,0.0,15.0,3.0,0.0
4561,75.0,120.0,15.0,3.0,0.0
4562,63.0,0.0,60.0,4.0,0.0
4563,51.0,0.0,60.0,6.0,0.0
4564,78.0,120.0,15.0,2.0,0.0
4565,87.0,0.0,15.0,2.0,0.0
4566,48.0,0.0,60.0,6.0,0.0
4567,60.0,0.0,60.0,4.0,0.0
4568,84.0,0.0,15.0,3.0,0.0
4569,75.0,0.0,15.0,3.0,0.0
4570,87.0,0.0,120.0,2.0,0.0
4571,63.0,0.0,60.0,4.0,0.0
4572,51.0,0.0,60.0,6.0,0.0
4573,78.0,180.0,15.0,2.0,0.0
4574,75.0,0.0,180.0,3.0,0.0
4575,84.0,0.0,180.0,3.0,0.0
4576,87.0,0.0,180.0,2.0,0.0
4577,56.0,120.0,120.0,4.0,0.0
4578,44.0,0.0,120.0,6.0,0.0
4579,77.0,120.0,30.0,3.0,0.0
4580,85.0,0.0,30.0,2.0,0.0
4581,75.0,0.0,120.0,3.0,0.0
4582,84.0,120.0,120.0,2.0,0.0
4583,82.0,120.0,30.0,2.0,0.0
4584,73.0,0.0,30.0,3.0,0.0
4585,80.0,120.0,120.0,2.0,0.0
4586,72.0,0.0,120.0,3.0,0.0
4587,70.0,0.0,30.0,3.0,0.0
4588,78.0,120.0,30.0,2.0,0.0
4589,68.0,120.0,120.0,3.0,0.0
4590,77.0,0.0,120.0,2.0,0.0
4591,75.0,0.0,30.0,2.0,0.0
4592,66.0,90.0,30.0,3.0,0.0
4593,61.0,0.0,240.0,5.0,0.0
4594,73.0,150.0,90.0,2.0,0.0
4595,37.0,0.0,480.0,6.0,0.0
4596,61.0,90.0,120.0,2.0,0.0
4597,65.0,60.0,240.0,3.0,0.0
4598,49.0,0.0,240.0,6.0,0.0
4599,56.0,0.0,240.0,5.0,0.0
4600,73.0,60.0,30.0,2.0,0.0
4601,73.0,60.0,30.0,2.0,0.0
4602,73.0,30.0,30.0,2.0,0.0
4603,72.0,30.0,60.0,2.0,0.0
4604,41.0,0.0,240.0,6.0,0.0
4605,53.0,60.0,240.0,5.0,0.0
4606,68.0,0.0,240.0,3.0,0.0
4607,73.0,60.0,30.0,2.0,0.0
4608,73.0,60.0,30.0,2.0,0.0
4609,73.0,30.0,30.0,2.0,0.0
4610,58.0,90.0,240.0,5.0,0.0
4611,46.0,0.0,240.0,6.0,0.0
4612,65.0,0.0,240.0,3.0,0.0
4613,72.0,30.0,60.0,2.0,0.0
4614,73.0,60.0,30.0,2.0,0.0
4615,73.0,60.0,30.0,2.0,0.0
4616,73.0,30.0,30.0,2.0,0.0
4617,75.0,150.0,90.0,2.0,0.0
4618,70.0,0.0,240.0,3.0,0.0
4619,42.0,90.0,240.0,6.0,0.0
4620,54.0,0.0,240.0,5.0,0.0
4621,63.0,0.0,120.0,2.0,0.0
4622,55.0,60.0,240.0,5.0,0.0
4623,61.0,0.0,240.0,3.0,0.0
4624,43.0,0.0,240.0,6.0,0.0
4625,75.0,60.0,30.0,2.0,0.0
4626,75.0,60.0,30.0,2.0,0.0
4627,75.0,30.0,30.0,2.0,0.0
4628,44.0,0.0,720.0,6.0,0.0
4629,56.0,0.0,720.0,5.0,0.0
4630,74.0,30.0,60.0,2.0,0.0
4631,60.0,60.0,240.0,3.0,0.0
4632,75.0,60.0,30.0,2.0,0.0
4633,75.0,60.0,30.0,2.0,0.0
4634,75.0,30.0,30.0,2.0,0.0
4635,74.0,30.0,60.0,2.0,0.0
4636,72.0,90.0,240.0,3.0,0.0
4637,75.0,60.0,30.0,2.0,0.0
4638,75.0,60.0,30.0,2.0,0.0
4639,75.0,30.0,30.0,2.0,0.0
4640,75.0,90.0,240.0,3.0,0.0
4641,77.0,150.0,90.0,2.0,0.0
4642,65.0,0.0,120.0,2.0,0.0
4643,45.0,0.0,240.0,6.0,0.0
4644,57.0,60.0,240.0,5.0,0.0
4645,63.0,0.0,240.0,3.0,0.0
4646,77.0,60.0,30.0,2.0,0.0
4647,77.0,60.0,30.0,2.0,0.0
4648,77.0,30.0,30.0,2.0,0.0
4649,76.0,30.0,60.0,2.0,0.0
4650,46.0,90.0,720.0,6.0,0.0
4651,58.0,0.0,720.0,5.0,0.0
4652,61.0,60.0,240.0,3.0,0.0
4653,77.0,60.0,30.0,2.0,0.0
4654,77.0,60.0,30.0,2.0,0.0
4655,77.0,30.0,30.0,2.0,0.0
4656,73.0,0.0,480.0,3.0,0.0
4657,76.0,30.0,60.0,2.0,0.0
4658,77.0,60.0,30.0,2.0,0.0
4659,77.0,60.0,30.0,2.0,0.0
4660,77.0,120.0,30.0,2.0,0.0
4661,78.0,150.0,90.0,2.0,0.0
4662,66.0,0.0,120.0,2.0,0.0
4663,75.0,0.0,240.0,3.0,0.0
4664,60.0,120.0,240.0,5.0,0.0
4665,48.0,0.0,240.0,6.0,0.0
4666,78.0,60.0,30.0,2.0,0.0
4667,78.0,60.0,30.0,2.0,0.0
4668,78.0,30.0,30.0,2.0,0.0
4669,68.0,120.0,120.0,3.0,0.0
4670,77.0,0.0,240.0,2.0,0.0
4671,49.0,0.0,120.0,6.0,0.0
4672,61.0,0.0,120.0,5.0,0.0
4673,58.0,0.0,120.0,5.0,0.0
4674,46.0,45.0,120.0,6.0,0.0
4675,73.0,0.0,240.0,3.0,0.0
4676,70.0,60.0,240.0,4.0,0.0
4677,42.0,0.0,120.0,6.0,0.0
4678,54.0,0.0,120.0,5.0,0.0
4679,75.0,15.0,60.0,2.0,0.0
4680,77.0,15.0,15.0,2.0,0.0
4681,75.0,15.0,15.0,2.0,0.0
4682,77.0,15.0,15.0,2.0,0.0
4683,75.0,15.0,15.0,2.0,0.0
4684,77.0,0.0,15.0,2.0,0.0
4685,72.0,0.0,120.0,3.0,0.0
4686,44.0,0.0,120.0,6.0,0.0
4687,75.0,30.0,60.0,2.0,0.0
4688,56.0,0.0,120.0,5.0,0.0
4689,68.0,0.0,60.0,4.0,0.0
4690,66.0,0.0,60.0,4.0,0.0
4691,73.0,30.0,30.0,2.0,0.0
4692,75.0,30.0,30.0,2.0,0.0
4693,65.0,0.0,120.0,4.0,0.0
4694,61.0,0.0,120.0,3.0,0.0
4695,49.0,30.0,120.0,5.0,0.0
4696,37.0,0.0,120.0,6.0,0.0
4697,73.0,60.0,30.0,2.0,0.0
4698,73.0,30.0,30.0,2.0,0.0
4699,75.0,60.0,30.0,2.0,0.0
4700,77.0,60.0,30.0,2.0,0.0
4701,73.0,0.0,30.0,3.0,0.0
4702,78.0,60.0,30.0,2.0,0.0
4703,75.0,0.0,30.0,3.0,0.0
4704,77.0,60.0,30.0,2.0,0.0
4705,73.0,0.0,30.0,3.0,0.0
4706,75.0,60.0,30.0,3.0,0.0
4707,78.0,0.0,30.0,2.0,0.0
4708,80.0,0.0,30.0,2.0,0.0
4709,72.0,60.0,30.0,3.0,0.0
4710,77.0,60.0,30.0,2.0,0.0
4711,73.0,30.0,120.0,3.0,0.0
4712,73.0,30.0,30.0,2.0,0.0
4713,75.0,60.0,30.0,2.0,0.0
4714,73.0,0.0,30.0,3.0,0.0
4715,77.0,60.0,30.0,2.0,0.0
4716,75.0,60.0,30.0,3.0,0.0
4717,78.0,0.0,30.0,2.0,0.0
4718,73.0,0.0,30.0,3.0,0.0
4719,77.0,60.0,30.0,2.0,0.0
4720,78.0,60.0,30.0,2.0,0.0
4721,75.0,0.0,30.0,3.0,0.0
4722,72.0,0.0,30.0,3.0,0.0
4723,80.0,60.0,30.0,2.0,0.0
4724,77.0,60.0,30.0,2.0,0.0
4725,73.0,30.0,120.0,3.0,0.0
4726,73.0,30.0,30.0,2.0,0.0
4727,75.0,60.0,30.0,2.0,0.0
4728,77.0,0.0,30.0,2.0,0.0
4729,73.0,60.0,30.0,3.0,0.0
4730,78.0,0.0,30.0,2.0,0.0
4731,75.0,60.0,30.0,3.0,0.0
4732,77.0,60.0,30.0,2.0,0.0
4733,73.0,0.0,30.0,3.0,0.0
4734,75.0,0.0,30.0,3.0,0.0
4735,78.0,60.0,30.0,2.0,0.0
4736,80.0,60.0,30.0,2.0,0.0
4737,77.0,0.0,30.0,3.0,0.0
4738,82.0,0.0,30.0,2.0,0.0
4739,78.0,60.0,30.0,3.0,0.0
4740,77.0,0.0,30.0,3.0,0.0
4741,80.0,60.0,30.0,2.0,0.0
4742,75.0,60.0,30.0,3.0,0.0
4743,78.0,0.0,30.0,2.0,0.0
4744,80.0,0.0,30.0,2.0,0.0
4745,77.0,60.0,30.0,3.0,0.0
4746,82.0,60.0,30.0,2.0,0.0
4747,78.0,0.0,30.0,3.0,0.0
4748,80.0,0.0,30.0,2.0,0.0
4749,77.0,60.0,30.0,3.0,0.0
4750,82.0,0.0,30.0,2.0,0.0
4751,78.0,60.0,30.0,3.0,0.0
4752,75.0,120.0,30.0,3.0,0.0
4753,84.0,0.0,30.0,2.0,0.0
4754,73.0,30.0,2880.0,0.0,0.0
4755,85.0,150.0,90.0,2.0,0.0
4756,85.0,0.0,4800.0,0.0,0.0
4757,49.0,0.0,4320.0,1.0,0.0
4758,77.0,0.0,90.0,3.0,0.0
4759,73.0,0.0,120.0,2.0,0.0
4760,61.0,90.0,120.0,3.0,0.0
4761,53.0,0.0,90.0,6.0,0.0
4762,68.0,60.0,90.0,4.0,0.0
4763,65.0,0.0,90.0,5.0,0.0
4764,85.0,0.0,30.0,2.0,0.0
4765,73.0,0.0,30.0,3.0,0.0
4766,85.0,0.0,30.0,2.0,0.0
4767,73.0,60.0,30.0,3.0,0.0
4768,53.0,60.0,120.0,5.0,0.0
4769,41.0,0.0,120.0,6.0,0.0
4770,56.0,0.0,120.0,4.0,0.0
4771,85.0,0.0,30.0,2.0,0.0
4772,73.0,30.0,30.0,3.0,0.0
4773,84.0,30.0,60.0,2.0,0.0
4774,72.0,0.0,60.0,3.0,0.0
4775,53.0,0.0,30.0,6.0,0.0
4776,65.0,0.0,30.0,5.0,0.0
4777,73.0,60.0,30.0,3.0,0.0
4778,68.0,0.0,30.0,4.0,0.0
4779,85.0,0.0,30.0,2.0,0.0
4780,68.0,0.0,30.0,4.0,0.0
4781,73.0,0.0,30.0,3.0,0.0
4782,85.0,0.0,30.0,2.0,0.0
4783,53.0,60.0,30.0,6.0,0.0
4784,65.0,0.0,30.0,5.0,0.0
4785,53.0,0.0,30.0,6.0,0.0
4786,68.0,0.0,30.0,4.0,0.0
4787,85.0,0.0,30.0,2.0,0.0
4788,65.0,90.0,30.0,5.0,0.0
4789,73.0,0.0,30.0,3.0,0.0
4790,63.0,0.0,60.0,5.0,0.0
4791,84.0,30.0,60.0,2.0,0.0
4792,51.0,0.0,60.0,6.0,0.0
4793,72.0,0.0,60.0,3.0,0.0
4794,66.0,0.0,60.0,4.0,0.0
4795,73.0,60.0,30.0,3.0,0.0
4796,68.0,0.0,30.0,4.0,0.0
4797,85.0,0.0,30.0,2.0,0.0
4798,65.0,0.0,30.0,5.0,0.0
4799,53.0,0.0,30.0,6.0,0.0
4800,68.0,60.0,30.0,4.0,0.0
4801,85.0,0.0,30.0,2.0,0.0
4802,65.0,0.0,30.0,5.0,0.0
4803,73.0,0.0,30.0,3.0,0.0
4804,53.0,0.0,30.0,6.0,0.0
4805,65.0,0.0,30.0,5.0,0.0
4806,73.0,0.0,30.0,3.0,0.0
4807,53.0,90.0,30.0,6.0,0.0
4808,68.0,0.0,30.0,4.0,0.0
4809,85.0,0.0,30.0,2.0,0.0
4810,53.0,30.0,60.0,6.0,0.0
4811,87.0,0.0,90.0,2.0,0.0
4812,69.0,0.0,60.0,4.0,0.0
4813,65.0,0.0,60.0,5.0,0.0
4814,75.0,0.0,90.0,3.0,0.0
4815,70.0,0.0,30.0,4.0,0.0
4816,66.0,0.0,30.0,5.0,0.0
4817,54.0,60.0,30.0,6.0,0.0
4818,66.0,0.0,30.0,5.0,0.0
4819,75.0,0.0,120.0,2.0,0.0
4820,63.0,90.0,120.0,3.0,0.0
4821,70.0,60.0,30.0,4.0,0.0
4822,54.0,0.0,30.0,6.0,0.0
4823,54.0,0.0,30.0,6.0,0.0
4824,66.0,30.0,30.0,5.0,0.0
4825,70.0,0.0,30.0,4.0,0.0
4826,66.0,60.0,90.0,5.0,0.0
4827,54.0,0.0,90.0,6.0,0.0
4828,70.0,0.0,90.0,4.0,0.0
4829,75.0,0.0,30.0,3.0,0.0
4830,87.0,0.0,30.0,2.0,0.0
4831,87.0,60.0,30.0,2.0,0.0
4832,58.0,0.0,120.0,4.0,0.0
4833,75.0,0.0,30.0,3.0,0.0
4834,54.0,60.0,120.0,5.0,0.0
4835,42.0,0.0,120.0,6.0,0.0
4836,87.0,0.0,30.0,2.0,0.0
4837,75.0,30.0,30.0,3.0,0.0
4838,74.0,0.0,60.0,3.0,0.0
4839,86.0,30.0,60.0,2.0,0.0
4840,70.0,0.0,30.0,4.0,0.0
4841,87.0,0.0,30.0,2.0,0.0
4842,66.0,0.0,30.0,5.0,0.0
4843,54.0,60.0,30.0,6.0,0.0
4844,75.0,0.0,30.0,3.0,0.0
4845,54.0,60.0,30.0,6.0,0.0
4846,75.0,0.0,30.0,3.0,0.0
4847,87.0,0.0,30.0,2.0,0.0
4848,66.0,0.0,30.0,5.0,0.0
4849,70.0,0.0,30.0,4.0,0.0
4850,87.0,0.0,30.0,2.0,0.0
4851,66.0,0.0,30.0,5.0,0.0
4852,70.0,0.0,30.0,4.0,0.0
4853,75.0,90.0,30.0,3.0,0.0
4854,54.0,0.0,30.0,6.0,0.0
4855,53.0,30.0,60.0,6.0,0.0
4856,65.0,0.0,60.0,5.0,0.0
4857,86.0,0.0,60.0,2.0,0.0
4858,69.0,0.0,60.0,4.0,0.0
4859,74.0,0.0,60.0,3.0,0.0
4860,75.0,0.0,30.0,3.0,0.0
4861,87.0,0.0,30.0,2.0,0.0
4862,66.0,60.0,30.0,5.0,0.0
4863,70.0,0.0,30.0,4.0,0.0
4864,54.0,0.0,30.0,6.0,0.0
4865,70.0,60.0,30.0,4.0,0.0
4866,87.0,0.0,30.0,2.0,0.0
4867,75.0,0.0,30.0,3.0,0.0
4868,66.0,0.0,30.0,5.0,0.0
4869,54.0,0.0,30.0,6.0,0.0
4870,54.0,0.0,30.0,6.0,0.0
4871,87.0,0.0,30.0,2.0,0.0
4872,75.0,0.0,30.0,3.0,0.0
4873,66.0,90.0,30.0,5.0,0.0
4874,70.0,0.0,30.0,4.0,0.0
4875,67.0,30.0,60.0,5.0,0.0
4876,70.0,0.0,60.0,4.0,0.0
4877,77.0,0.0,90.0,3.0,0.0
4878,55.0,0.0,60.0,6.0,0.0
4879,89.0,0.0,90.0,2.0,0.0
4880,71.0,0.0,30.0,4.0,0.0
4881,56.0,0.0,30.0,6.0,0.0
4882,68.0,60.0,30.0,5.0,0.0
4883,77.0,0.0,120.0,2.0,0.0
4884,68.0,0.0,30.0,5.0,0.0
4885,56.0,60.0,30.0,6.0,0.0
4886,65.0,90.0,120.0,3.0,0.0
4887,71.0,0.0,30.0,4.0,0.0
4888,68.0,30.0,30.0,5.0,0.0
4889,56.0,0.0,30.0,6.0,0.0
4890,71.0,0.0,30.0,4.0,0.0
4891,71.0,0.0,90.0,4.0,0.0
4892,68.0,0.0,90.0,5.0,0.0
4893,56.0,0.0,90.0,6.0,0.0
4894,89.0,60.0,30.0,2.0,0.0
4895,77.0,0.0,30.0,3.0,0.0
4896,59.0,60.0,120.0,4.0,0.0
4897,44.0,0.0,120.0,6.0,0.0
4898,56.0,0.0,120.0,5.0,0.0
4899,77.0,60.0,30.0,3.0,0.0
4900,89.0,0.0,30.0,2.0,0.0
4901,89.0,0.0,30.0,2.0,0.0
4902,77.0,30.0,30.0,3.0,0.0
4903,88.0,0.0,60.0,2.0,0.0
4904,76.0,30.0,60.0,3.0,0.0
4905,68.0,0.0,30.0,5.0,0.0
4906,56.0,0.0,30.0,6.0,0.0
4907,89.0,0.0,30.0,2.0,0.0
4908,71.0,0.0,30.0,4.0,0.0
4909,77.0,60.0,30.0,3.0,0.0
4910,71.0,60.0,30.0,4.0,0.0
4911,56.0,0.0,30.0,6.0,0.0
4912,68.0,0.0,30.0,5.0,0.0
4913,89.0,0.0,30.0,2.0,0.0
4914,77.0,0.0,30.0,3.0,0.0
4915,71.0,0.0,30.0,4.0,0.0
4916,89.0,0.0,30.0,2.0,0.0
4917,77.0,90.0,30.0,3.0,0.0
4918,68.0,0.0,30.0,5.0,0.0
4919,56.0,0.0,30.0,6.0,0.0
4920,88.0,0.0,60.0,2.0,0.0
4921,70.0,0.0,60.0,4.0,0.0
4922,55.0,30.0,60.0,6.0,0.0
4923,76.0,0.0,60.0,3.0,0.0
4924,67.0,0.0,60.0,5.0,0.0
4925,89.0,0.0,30.0,2.0,0.0
4926,68.0,60.0,30.0,5.0,0.0
4927,56.0,0.0,30.0,6.0,0.0
4928,77.0,0.0,30.0,3.0,0.0
4929,71.0,0.0,30.0,4.0,0.0
4930,89.0,60.0,30.0,2.0,0.0
4931,68.0,0.0,30.0,5.0,0.0
4932,77.0,0.0,30.0,3.0,0.0
4933,56.0,0.0,30.0,6.0,0.0
4934,71.0,0.0,30.0,4.0,0.0
4935,89.0,0.0,30.0,2.0,0.0
4936,71.0,0.0,30.0,4.0,0.0
4937,56.0,30.0,30.0,6.0,0.0
4938,68.0,0.0,30.0,5.0,0.0
4939,77.0,0.0,30.0,3.0,0.0
4940,70.0,0.0,60.0,5.0,0.0
4941,78.0,30.0,240.0,0.0,0.0
4942,66.0,0.0,30.0,4.0,0.0
4943,78.0,0.0,30.0,3.0,0.0
4944,58.0,0.0,60.0,6.0,0.0
4945,90.0,30.0,30.0,2.0,0.0
4946,90.0,0.0,30.0,2.0,0.0
4947,58.0,0.0,60.0,5.0,0.0
4948,90.0,0.0,30.0,2.0,0.0
4949,66.0,0.0,15.0,4.0,0.0
4950,85.0,30.0,15.0,3.0,0.0
4951,46.0,0.0,60.0,6.0,0.0
4952,66.0,0.0,15.0,4.0,0.0
4953,85.0,30.0,15.0,3.0,0.0
4954,85.0,0.0,15.0,3.0,0.0
4955,90.0,0.0,15.0,2.0,0.0
4956,66.0,30.0,15.0,4.0,0.0
4957,85.0,30.0,15.0,3.0,0.0
4958,90.0,0.0,15.0,2.0,0.0
4959,66.0,0.0,30.0,4.0,0.0
4960,58.0,0.0,15.0,5.0,0.0
4961,85.0,0.0,15.0,3.0,0.0
4962,46.0,0.0,15.0,6.0,0.0
4963,66.0,0.0,30.0,4.0,0.0
4964,90.0,30.0,15.0,2.0,0.0
4965,66.0,0.0,30.0,4.0,0.0
4966,85.0,0.0,15.0,3.0,0.0
4967,90.0,30.0,15.0,2.0,0.0
4968,85.0,0.0,15.0,3.0,0.0
4969,89.0,0.0,30.0,2.0,0.0
4970,77.0,0.0,240.0,0.0,0.0
4971,56.0,0.0,60.0,5.0,0.0
4972,68.0,0.0,15.0,4.0,0.0
4973,89.0,0.0,15.0,2.0,0.0
4974,56.0,0.0,60.0,5.0,0.0
4975,44.0,0.0,15.0,6.0,0.0
4976,85.0,30.0,15.0,3.0,0.0
4977,85.0,0.0,15.0,3.0,0.0
4978,89.0,30.0,15.0,2.0,0.0
4979,68.0,0.0,15.0,4.0,0.0
4980,89.0,30.0,15.0,2.0,0.0
4981,44.0,0.0,15.0,6.0,0.0
4982,68.0,0.0,15.0,4.0,0.0
4983,85.0,30.0,15.0,3.0,0.0
4984,89.0,0.0,30.0,2.0,0.0
4985,56.0,0.0,15.0,5.0,0.0
4986,68.0,30.0,15.0,4.0,0.0
4987,44.0,0.0,60.0,6.0,0.0
4988,89.0,0.0,30.0,2.0,0.0
4989,85.0,0.0,15.0,3.0,0.0
4990,89.0,30.0,30.0,2.0,0.0
4991,68.0,30.0,15.0,4.0,0.0
4992,75.0,0.0,240.0,0.0,0.0
4993,42.0,0.0,60.0,6.0,0.0
4994,54.0,30.0,60.0,5.0,0.0
4995,70.0,0.0,30.0,4.0,0.0
4996,85.0,30.0,30.0,3.0,0.0
4997,87.0,0.0,15.0,2.0,0.0
4998,87.0,0.0,15.0,2.0,0.0
4999,70.0,0.0,15.0,4.0,0.0
5000,85.0,0.0,15.0,3.0,0.0
5001,54.0,30.0,60.0,5.0,0.0
5002,87.0,0.0,15.0,2.0,0.0
5003,85.0,0.0,30.0,3.0,0.0
5004,87.0,0.0,15.0,2.0,0.0
5005,42.0,0.0,15.0,6.0,0.0
5006,70.0,0.0,15.0,4.0,0.0
5007,54.0,0.0,60.0,5.0,0.0
5008,85.0,0.0,15.0,3.0,0.0
5009,87.0,0.0,15.0,2.0,0.0
5010,70.0,30.0,15.0,4.0,0.0
5011,85.0,0.0,15.0,3.0,0.0
5012,42.0,0.0,15.0,6.0,0.0
5013,87.0,0.0,15.0,2.0,0.0
5014,54.0,0.0,60.0,5.0,0.0
5015,70.0,30.0,15.0,4.0,0.0
5016,85.0,30.0,15.0,3.0,0.0
5017,87.0,0.0,30.0,2.0,0.0
5018,70.0,0.0,30.0,4.0,0.0
5019,77.0,0.0,240.0,0.0,0.0
5020,44.0,0.0,60.0,6.0,0.0
5021,89.0,0.0,30.0,2.0,0.0
5022,85.0,30.0,30.0,3.0,0.0
5023,68.0,0.0,15.0,4.0,0.0
5024,89.0,0.0,30.0,2.0,0.0
5025,85.0,30.0,15.0,3.0,0.0
5026,56.0,0.0,15.0,5.0,0.0
5027,89.0,30.0,30.0,2.0,0.0
5028,68.0,0.0,15.0,4.0,0.0
5029,85.0,30.0,30.0,3.0,0.0
5030,89.0,0.0,30.0,2.0,0.0
5031,56.0,0.0,15.0,5.0,0.0
5032,44.0,0.0,15.0,6.0,0.0
5033,68.0,30.0,30.0,4.0,0.0
5034,89.0,0.0,30.0,2.0,0.0
5035,85.0,0.0,30.0,3.0,0.0
5036,89.0,0.0,30.0,2.0,0.0
5037,85.0,0.0,30.0,3.0,0.0
5038,68.0,0.0,30.0,4.0,0.0
5039,56.0,30.0,15.0,5.0,0.0
5040,44.0,0.0,60.0,6.0,0.0
5041,89.0,0.0,30.0,2.0,0.0
5042,68.0,0.0,30.0,4.0,0.0
5043,89.0,30.0,30.0,2.0,0.0
5044,68.0,0.0,30.0,4.0,0.0
5045,85.0,30.0,15.0,3.0,0.0
5046,78.0,30.0,240.0,0.0,0.0
5047,46.0,0.0,60.0,6.0,0.0
5048,85.0,0.0,30.0,3.0,0.0
5049,66.0,0.0,15.0,4.0,0.0
5050,90.0,30.0,15.0,2.0,0.0
5051,85.0,0.0,30.0,3.0,0.0
5052,58.0,30.0,15.0,5.0,0.0
5053,85.0,0.0,30.0,3.0,0.0
5054,46.0,30.0,60.0,6.0,0.0
5055,66.0,30.0,15.0,4.0,0.0
5056,85.0,0.0,30.0,3.0,0.0
5057,90.0,0.0,15.0,2.0,0.0
5058,90.0,0.0,30.0,2.0,0.0
5059,85.0,0.0,30.0,3.0,0.0
5060,46.0,0.0,60.0,6.0,0.0
5061,58.0,0.0,60.0,5.0,0.0
5062,90.0,0.0,30.0,2.0,0.0
5063,66.0,30.0,15.0,4.0,0.0
5064,85.0,0.0,30.0,3.0,0.0
5065,46.0,0.0,60.0,6.0,0.0
5066,66.0,30.0,15.0,4.0,0.0
5067,90.0,30.0,30.0,2.0,0.0
5068,58.0,0.0,60.0,5.0,0.0
5069,85.0,0.0,15.0,3.0,0.0
5070,66.0,0.0,30.0,4.0,0.0
5071,90.0,0.0,30.0,2.0,0.0
5072,85.0,0.0,30.0,3.0,0.0
5073,56.0,0.0,60.0,5.0,0.0
5074,77.0,0.0,240.0,0.0,0.0
5075,68.0,0.0,15.0,4.0,0.0
5076,89.0,30.0,15.0,2.0,0.0
5077,85.0,0.0,30.0,3.0,0.0
5078,68.0,0.0,15.0,4.0,0.0
5079,89.0,0.0,15.0,2.0,0.0
5080,44.0,30.0,15.0,6.0,0.0
5081,85.0,0.0,30.0,3.0,0.0
5082,89.0,30.0,15.0,2.0,0.0
5083,85.0,0.0,30.0,3.0,0.0
5084,68.0,0.0,30.0,4.0,0.0
5085,44.0,30.0,15.0,6.0,0.0
5086,89.0,0.0,30.0,2.0,0.0
5087,56.0,0.0,15.0,5.0,0.0
5088,85.0,0.0,30.0,3.0,0.0
5089,85.0,0.0,30.0,3.0,0.0
5090,68.0,30.0,15.0,4.0,0.0
5091,89.0,0.0,30.0,2.0,0.0
5092,56.0,0.0,60.0,5.0,0.0
5093,44.0,0.0,60.0,6.0,0.0
5094,85.0,0.0,30.0,3.0,0.0
5095,68.0,30.0,15.0,4.0,0.0
5096,89.0,0.0,15.0,2.0,0.0
5097,85.0,0.0,30.0,3.0,0.0
5098,42.0,0.0,60.0,6.0,0.0
5099,82.0,0.0,480.0,0.0,0.0
5100,61.0,30.0,15.0,1.0,0.0
5101,70.0,0.0,30.0,4.0,0.0
5102,85.0,0.0,30.0,3.0,0.0
5103,87.0,30.0,15.0,2.0,0.0
5104,85.0,0.0,15.0,3.0,0.0
5105,87.0,0.0,30.0,2.0,0.0
5106,54.0,0.0,15.0,5.0,0.0
5107,70.0,30.0,15.0,4.0,0.0
5108,85.0,0.0,15.0,3.0,0.0
5109,70.0,30.0,15.0,4.0,0.0
5110,87.0,0.0,30.0,2.0,0.0
5111,85.0,30.0,15.0,3.0,0.0
5112,54.0,0.0,60.0,5.0,0.0
5113,70.0,0.0,30.0,4.0,0.0
5114,42.0,0.0,15.0,6.0,0.0
5115,87.0,30.0,15.0,2.0,0.0
5116,70.0,0.0,15.0,4.0,0.0
5117,42.0,30.0,60.0,6.0,0.0
5118,87.0,0.0,15.0,2.0,0.0
5119,54.0,0.0,60.0,5.0,0.0
5120,85.0,30.0,15.0,3.0,0.0
5121,70.0,0.0,30.0,4.0,0.0
5122,55.0,0.0,60.0,5.0,0.0
5123,87.0,0.0,15.0,2.0,0.0
5124,85.0,0.0,15.0,3.0,0.0
5125,43.0,0.0,60.0,6.0,0.0
5126,70.0,30.0,15.0,4.0,0.0
5127,87.0,0.0,30.0,2.0,0.0
5128,85.0,0.0,15.0,3.0,0.0
5129,70.0,30.0,15.0,4.0,0.0
5130,87.0,30.0,15.0,2.0,0.0
5131,70.0,0.0,15.0,4.0,0.0
5132,55.0,0.0,15.0,5.0,0.0
5133,87.0,0.0,15.0,2.0,0.0
5134,43.0,0.0,15.0,6.0,0.0
5135,85.0,0.0,15.0,3.0,0.0
5136,70.0,30.0,15.0,4.0,0.0
5137,70.0,0.0,15.0,4.0,0.0
5138,87.0,0.0,30.0,2.0,0.0
5139,85.0,0.0,30.0,3.0,0.0
5140,70.0,30.0,15.0,4.0,0.0
5141,43.0,0.0,60.0,6.0,0.0
5142,55.0,0.0,60.0,5.0,0.0
5143,87.0,0.0,15.0,2.0,0.0
5144,70.0,0.0,30.0,4.0,0.0
5145,85.0,30.0,15.0,3.0,0.0
5146,63.0,0.0,15.0,1.0,0.0
5147,56.0,0.0,120.0,1.0,0.0
5148,87.0,30.0,15.0,2.0,0.0
5149,56.0,0.0,60.0,5.0,0.0
5150,44.0,0.0,60.0,6.0,0.0
5151,84.0,30.0,60.0,3.0,0.0
5152,80.0,0.0,120.0,0.0,0.0
5153,84.0,30.0,120.0,0.0,0.0
5154,68.0,30.0,30.0,4.0,0.0
5155,68.0,30.0,30.0,4.0,0.0
5156,84.0,0.0,60.0,3.0,0.0
5157,68.0,30.0,30.0,4.0,0.0
5158,80.0,30.0,60.0,2.0,0.0
5159,68.0,60.0,30.0,4.0,0.0
5160,68.0,30.0,30.0,4.0,0.0
5161,75.0,30.0,60.0,2.0,0.0
5162,72.0,0.0,60.0,3.0,0.0
5163,68.0,60.0,30.0,4.0,0.0
5164,75.0,0.0,60.0,3.0,0.0
5165,68.0,30.0,30.0,4.0,0.0
5166,78.0,30.0,60.0,2.0,0.0
5167,68.0,60.0,30.0,4.0,0.0
5168,73.0,0.0,60.0,3.0,0.0
5169,68.0,30.0,30.0,4.0,0.0
5170,77.0,30.0,60.0,2.0,0.0
5171,68.0,60.0,30.0,4.0,0.0
5172,80.0,0.0,60.0,2.0,0.0
5173,77.0,30.0,60.0,3.0,0.0
5174,68.0,30.0,30.0,4.0,0.0
5175,68.0,60.0,30.0,4.0,0.0
5176,77.0,30.0,120.0,0.0,0.0
5177,56.0,0.0,60.0,5.0,0.0
5178,85.0,0.0,240.0,0.0,0.0
5179,44.0,0.0,300.0,1.0,0.0
5180,56.0,0.0,300.0,1.0,0.0
5181,85.0,30.0,15.0,2.0,0.0
5182,68.0,0.0,15.0,4.0,0.0
5183,77.0,0.0,15.0,3.0,0.0
5184,68.0,30.0,30.0,4.0,0.0
5185,56.0,0.0,60.0,5.0,0.0
5186,77.0,0.0,30.0,3.0,0.0
5187,44.0,30.0,15.0,6.0,0.0
5188,85.0,0.0,15.0,2.0,0.0
5189,77.0,0.0,30.0,3.0,0.0
5190,68.0,0.0,30.0,4.0,0.0
5191,44.0,0.0,15.0,6.0,0.0
5192,79.0,0.0,120.0,0.0,0.0
5193,56.0,30.0,60.0,5.0,0.0
5194,79.0,0.0,30.0,3.0,0.0
5195,79.0,0.0,30.0,3.0,0.0
5196,70.0,0.0,15.0,4.0,0.0
5197,85.0,30.0,15.0,2.0,0.0
5198,70.0,0.0,30.0,4.0,0.0
5199,79.0,0.0,15.0,3.0,0.0
5200,85.0,30.0,15.0,2.0,0.0
5201,70.0,0.0,30.0,4.0,0.0
5202,56.0,0.0,15.0,5.0,0.0
5203,80.0,30.0,60.0,3.0,0.0
5204,80.0,0.0,60.0,0.0,0.0
5205,84.0,0.0,60.0,2.0,0.0
5206,84.0,0.0,60.0,0.0,0.0
5207,63.0,30.0,30.0,4.0,0.0
5208,44.0,30.0,15.0,6.0,0.0
5209,68.0,60.0,30.0,4.0,0.0
5210,87.0,0.0,60.0,2.0,0.0
5211,68.0,30.0,30.0,4.0,0.0
5212,84.0,30.0,60.0,3.0,0.0
5213,68.0,60.0,30.0,4.0,0.0
5214,75.0,0.0,60.0,2.0,0.0
5215,68.0,30.0,30.0,4.0,0.0
5216,72.0,30.0,60.0,3.0,0.0
5217,68.0,60.0,30.0,4.0,0.0
5218,78.0,30.0,60.0,2.0,0.0
5219,75.0,0.0,60.0,3.0,0.0
5220,68.0,30.0,30.0,4.0,0.0
5221,68.0,60.0,30.0,4.0,0.0
5222,68.0,30.0,30.0,4.0,0.0
5223,77.0,0.0,60.0,2.0,0.0
5224,73.0,30.0,60.0,3.0,0.0
5225,68.0,60.0,30.0,4.0,0.0
5226,80.0,30.0,60.0,2.0,0.0
5227,68.0,30.0,30.0,4.0,0.0
5228,77.0,0.0,60.0,3.0,0.0
5229,68.0,60.0,30.0,4.0,0.0
5230,77.0,0.0,120.0,0.0,0.0
5231,85.0,30.0,30.0,2.0,0.0
5232,85.0,0.0,240.0,0.0,0.0
5233,56.0,0.0,300.0,1.0,0.0
5234,44.0,0.0,300.0,1.0,0.0
5235,56.0,0.0,60.0,5.0,0.0
5236,77.0,0.0,15.0,3.0,0.0
5237,68.0,0.0,15.0,4.0,0.0
5238,85.0,0.0,30.0,2.0,0.0
5239,68.0,0.0,30.0,4.0,0.0
5240,44.0,30.0,15.0,6.0,0.0
5241,56.0,0.0,60.0,5.0,0.0
5242,77.0,0.0,15.0,3.0,0.0
5243,85.0,30.0,15.0,2.0,0.0
5244,68.0,30.0,30.0,4.0,0.0
5245,44.0,0.0,60.0,6.0,0.0
5246,56.0,0.0,60.0,5.0,0.0
5247,85.0,0.0,30.0,2.0,0.0
5248,79.0,0.0,120.0,0.0,0.0
5249,70.0,0.0,15.0,4.0,0.0
5250,79.0,30.0,15.0,3.0,0.0
5251,85.0,0.0,15.0,2.0,0.0
5252,70.0,30.0,15.0,4.0,0.0
5253,79.0,0.0,30.0,3.0,0.0
5254,44.0,0.0,60.0,6.0,0.0
5255,85.0,0.0,30.0,2.0,0.0
5256,79.0,0.0,30.0,3.0,0.0
5257,70.0,60.0,30.0,4.0,0.0
5258,84.0,0.0,60.0,2.0,0.0
5259,44.0,0.0,60.0,6.0,0.0
5260,63.0,0.0,60.0,4.0,0.0
5261,84.0,90.0,60.0,0.0,0.0
5262,80.0,0.0,60.0,0.0,0.0
5263,80.0,0.0,60.0,3.0,0.0
5264,56.0,0.0,15.0,5.0,0.0
5265,56.0,60.0,120.0,5.0,0.0
5266,44.0,0.0,120.0,6.0,0.0
5267,68.0,30.0,15.0,2.0,0.0
5268,68.0,30.0,15.0,2.0,0.0
5269,68.0,0.0,30.0,2.0,0.0
5270,66.0,0.0,60.0,2.0,0.0
5271,42.0,0.0,60.0,6.0,0.0
5272,54.0,90.0,60.0,5.0,0.0
5273,56.0,0.0,120.0,5.0,0.0
5274,68.0,30.0,30.0,2.0,0.0
5275,44.0,0.0,120.0,6.0,0.0
5276,68.0,30.0,30.0,2.0,0.0
5277,68.0,30.0,30.0,2.0,0.0
5278,68.0,60.0,30.0,2.0,0.0
5279,53.0,0.0,60.0,5.0,0.0
5280,41.0,0.0,60.0,6.0,0.0
5281,65.0,90.0,60.0,2.0,0.0
5282,49.0,0.0,120.0,6.0,0.0
5283,61.0,60.0,120.0,5.0,0.0
5284,73.0,30.0,30.0,2.0,0.0
5285,73.0,30.0,30.0,2.0,0.0
5286,73.0,30.0,30.0,2.0,0.0
5287,73.0,0.0,30.0,2.0,0.0
5288,67.0,90.0,60.0,2.0,0.0
5289,55.0,0.0,60.0,5.0,0.0
5290,43.0,0.0,60.0,6.0,0.0
5291,61.0,0.0,120.0,5.0,0.0
5292,49.0,0.0,120.0,6.0,0.0
5293,73.0,30.0,15.0,2.0,0.0
5294,73.0,30.0,30.0,2.0,0.0
5295,73.0,30.0,30.0,2.0,0.0
5296,56.0,0.0,120.0,5.0,0.0
5297,44.0,0.0,120.0,6.0,0.0
5298,80.0,0.0,1560.0,0.0,0.0
5299,68.0,0.0,1560.0,0.0,0.0
5300,60.0,0.0,120.0,3.0,0.0
5301,72.0,30.0,30.0,2.0,0.0
5302,68.0,30.0,60.0,4.0,0.0
5303,56.0,30.0,120.0,1.0,0.0
5304,70.0,0.0,30.0,2.0,0.0
5305,68.0,30.0,30.0,2.0,0.0
5306,48.0,0.0,120.0,5.0,0.0
5307,36.0,0.0,120.0,6.0,0.0
5308,66.0,0.0,30.0,3.0,0.0
5309,63.0,30.0,15.0,4.0,0.0
5310,63.0,30.0,30.0,4.0,0.0
5311,66.0,30.0,15.0,3.0,0.0
5312,63.0,0.0,30.0,4.0,0.0
5313,66.0,30.0,30.0,3.0,0.0
5314,61.0,0.0,60.0,4.0,0.0
5315,49.0,0.0,120.0,1.0,0.0
5316,56.0,30.0,120.0,1.0,0.0
5317,37.0,0.0,120.0,6.0,0.0
5318,49.0,0.0,120.0,5.0,0.0
5319,65.0,30.0,30.0,2.0,0.0
5320,63.0,30.0,30.0,2.0,0.0
5321,61.0,30.0,30.0,2.0,0.0
5322,53.0,0.0,15.0,5.0,0.0
5323,68.0,0.0,120.0,4.0,0.0
5324,41.0,30.0,120.0,6.0,0.0
5325,73.0,30.0,30.0,3.0,0.0
5326,73.0,30.0,15.0,3.0,0.0
5327,73.0,30.0,15.0,3.0,0.0
5328,68.0,30.0,60.0,3.0,0.0
5329,72.0,30.0,30.0,2.0,0.0
5330,44.0,0.0,120.0,6.0,0.0
5331,63.0,0.0,120.0,4.0,0.0
5332,56.0,30.0,120.0,5.0,0.0
5333,56.0,0.0,120.0,1.0,0.0
5334,70.0,0.0,30.0,2.0,0.0
5335,68.0,30.0,30.0,2.0,0.0
5336,48.0,0.0,120.0,6.0,0.0
5337,78.0,0.0,30.0,3.0,0.0
5338,60.0,0.0,120.0,5.0,0.0
5339,78.0,30.0,30.0,3.0,0.0
5340,75.0,30.0,15.0,4.0,0.0
5341,75.0,0.0,15.0,4.0,0.0
5342,78.0,0.0,30.0,3.0,0.0
5343,78.0,30.0,30.0,3.0,0.0
5344,75.0,0.0,30.0,4.0,0.0
5345,61.0,30.0,120.0,5.0,0.0
5346,49.0,0.0,120.0,6.0,0.0
5347,73.0,30.0,60.0,4.0,0.0
5348,77.0,30.0,30.0,2.0,0.0
5349,49.0,0.0,120.0,1.0,0.0
5350,56.0,0.0,120.0,1.0,0.0
5351,65.0,0.0,120.0,3.0,0.0
5352,75.0,0.0,30.0,2.0,0.0
5353,73.0,30.0,30.0,2.0,0.0
5354,68.0,0.0,120.0,4.0,0.0
5355,53.0,30.0,120.0,6.0,0.0
5356,85.0,30.0,30.0,3.0,0.0
5357,65.0,0.0,120.0,5.0,0.0
5358,85.0,30.0,30.0,3.0,0.0
5359,85.0,30.0,30.0,3.0,0.0
5360,85.0,0.0,30.0,3.0,0.0
5361,80.0,30.0,60.0,3.0,0.0
5362,84.0,30.0,30.0,2.0,0.0
5363,68.0,0.0,120.0,5.0,0.0
5364,56.0,0.0,120.0,6.0,0.0
5365,63.0,0.0,120.0,4.0,0.0
5366,63.0,30.0,120.0,1.0,0.0
5367,56.0,0.0,120.0,1.0,0.0
5368,82.0,0.0,30.0,2.0,0.0
5369,80.0,30.0,30.0,2.0,0.0
5370,75.0,0.0,30.0,4.0,0.0
5371,60.0,0.0,120.0,5.0,0.0
5372,48.0,0.0,120.0,6.0,0.0
5373,90.0,30.0,15.0,3.0,0.0
5374,90.0,0.0,15.0,3.0,0.0
5375,75.0,30.0,15.0,4.0,0.0
5376,90.0,0.0,30.0,3.0,0.0
5377,75.0,30.0,30.0,4.0,0.0
5378,65.0,0.0,120.0,1.0,0.0
5379,49.0,0.0,120.0,6.0,0.0
5380,77.0,0.0,120.0,3.0,0.0
5381,61.0,0.0,120.0,1.0,0.0
5382,61.0,30.0,120.0,5.0,0.0
5383,89.0,30.0,30.0,2.0,0.0
5384,73.0,0.0,60.0,4.0,0.0
5385,87.0,30.0,30.0,2.0,0.0
5386,85.0,30.0,30.0,2.0,0.0
5387,80.0,0.0,120.0,4.0,0.0
5388,53.0,0.0,120.0,6.0,0.0
5389,65.0,0.0,120.0,5.0,0.0
5390,85.0,30.0,15.0,3.0,0.0
5391,85.0,30.0,15.0,3.0,0.0
5392,85.0,30.0,15.0,3.0,0.0
5393,56.0,0.0,120.0,5.0,0.0
5394,92.0,360.0,120.0,2.0,0.0
5395,44.0,0.0,120.0,6.0,0.0
5396,75.0,0.0,120.0,4.0,0.0
5397,56.0,0.0,120.0,1.0,0.0
5398,84.0,0.0,120.0,3.0,0.0
5399,63.0,0.0,120.0,1.0,0.0
5400,68.0,0.0,120.0,4.0,0.0
5401,80.0,120.0,15.0,2.0,0.0
5402,77.0,120.0,120.0,3.0,0.0
5403,49.0,0.0,120.0,6.0,0.0
5404,61.0,0.0,120.0,5.0,0.0
5405,80.0,0.0,15.0,2.0,0.0
5406,48.0,0.0,120.0,6.0,0.0
5407,75.0,0.0,120.0,3.0,0.0
5408,80.0,120.0,120.0,2.0,0.0
5409,60.0,0.0,120.0,5.0,0.0
5410,68.0,0.0,120.0,4.0,0.0
5411,80.0,60.0,120.0,2.0,0.0
5412,73.0,0.0,120.0,3.0,0.0
5413,61.0,0.0,120.0,5.0,0.0
5414,49.0,0.0,120.0,6.0,0.0
5415,68.0,0.0,120.0,4.0,0.0
5416,77.0,60.0,60.0,2.0,0.0
5417,80.0,60.0,60.0,2.0,0.0
5418,85.0,60.0,60.0,2.0,0.0
5419,80.0,120.0,60.0,2.0,0.0
5420,77.0,120.0,120.0,2.0,0.0
5421,80.0,30.0,120.0,2.0,0.0
5422,68.0,120.0,120.0,4.0,0.0
5423,80.0,90.0,30.0,2.0,0.0
5424,72.0,0.0,120.0,3.0,0.0
5425,63.0,0.0,120.0,5.0,0.0
5426,51.0,0.0,120.0,6.0,0.0
5427,78.0,0.0,90.0,2.0,0.0
5428,78.0,120.0,120.0,2.0,0.0
5429,70.0,0.0,120.0,4.0,0.0
5430,49.0,0.0,120.0,6.0,0.0
5431,73.0,0.0,120.0,3.0,0.0
5432,61.0,120.0,120.0,5.0,0.0
5433,78.0,0.0,15.0,2.0,0.0
5434,75.0,0.0,120.0,3.0,0.0
5435,68.0,0.0,120.0,4.0,0.0
5436,60.0,0.0,120.0,5.0,0.0
5437,48.0,60.0,120.0,6.0,0.0
5438,78.0,60.0,60.0,2.0,0.0
5439,84.0,0.0,60.0,2.0,0.0
5440,87.0,60.0,60.0,2.0,0.0
5441,84.0,120.0,60.0,2.0,0.0
5442,78.0,120.0,120.0,2.0,0.0
5443,75.0,0.0,120.0,2.0,0.0
5444,48.0,0.0,120.0,6.0,0.0
5445,60.0,30.0,120.0,5.0,0.0
5446,61.0,0.0,60.0,5.0,0.0
5447,77.0,30.0,240.0,2.0,0.0
5448,68.0,30.0,30.0,3.0,0.0
5449,49.0,30.0,60.0,6.0,0.0
5450,68.0,60.0,30.0,3.0,0.0
5451,68.0,30.0,30.0,3.0,0.0
5452,44.0,0.0,60.0,6.0,0.0
5453,56.0,30.0,60.0,5.0,0.0
5454,68.0,30.0,30.0,3.0,0.0
5455,68.0,15.0,30.0,3.0,0.0
5456,51.0,15.0,60.0,6.0,0.0
5457,78.0,15.0,60.0,2.0,0.0
5458,63.0,0.0,60.0,5.0,0.0
5459,80.0,0.0,15.0,2.0,0.0
5460,78.0,15.0,15.0,2.0,0.0
5461,68.0,15.0,30.0,3.0,0.0
5462,80.0,0.0,15.0,2.0,0.0
5463,78.0,15.0,15.0,2.0,0.0
5464,80.0,30.0,15.0,2.0,0.0
5465,44.0,0.0,60.0,6.0,0.0
5466,78.0,0.0,60.0,2.0,0.0
5467,68.0,30.0,30.0,3.0,0.0
5468,56.0,30.0,60.0,5.0,0.0
5469,77.0,0.0,30.0,2.0,0.0
5470,68.0,30.0,30.0,3.0,0.0
5471,78.0,60.0,30.0,2.0,0.0
5472,80.0,60.0,120.0,2.0,0.0
5473,68.0,0.0,60.0,3.0,0.0
5474,53.0,60.0,60.0,6.0,0.0
5475,65.0,0.0,60.0,5.0,0.0
5476,73.0,0.0,60.0,3.0,0.0
5477,85.0,0.0,120.0,2.0,0.0
5478,56.0,0.0,60.0,5.0,0.0
5479,44.0,0.0,60.0,6.0,0.0
5480,77.0,60.0,60.0,3.0,0.0
5481,73.0,60.0,60.0,3.0,0.0
5482,68.0,60.0,120.0,4.0,0.0
5483,80.0,60.0,60.0,3.0,0.0
5484,61.0,0.0,60.0,5.0,0.0
5485,49.0,0.0,60.0,6.0,0.0
5486,77.0,0.0,60.0,3.0,0.0
5487,44.0,60.0,60.0,6.0,0.0
5488,77.0,0.0,120.0,2.0,0.0
5489,56.0,0.0,60.0,5.0,0.0
5490,73.0,30.0,120.0,4.0,0.0
5491,68.0,0.0,60.0,3.0,0.0
5492,48.0,0.0,60.0,6.0,0.0
5493,60.0,30.0,60.0,5.0,0.0
5494,68.0,30.0,30.0,3.0,0.0
5495,75.0,30.0,240.0,2.0,0.0
5496,68.0,60.0,30.0,3.0,0.0
5497,68.0,30.0,30.0,3.0,0.0
5498,56.0,0.0,60.0,5.0,0.0
5499,44.0,30.0,60.0,6.0,0.0
5500,68.0,30.0,30.0,3.0,0.0
5501,61.0,15.0,60.0,5.0,0.0
5502,77.0,15.0,60.0,2.0,0.0
5503,49.0,0.0,60.0,6.0,0.0
5504,68.0,15.0,30.0,3.0,0.0
5505,78.0,0.0,15.0,2.0,0.0
5506,68.0,15.0,30.0,3.0,0.0
5507,77.0,15.0,15.0,2.0,0.0
5508,78.0,0.0,15.0,2.0,0.0
5509,77.0,15.0,15.0,2.0,0.0
5510,78.0,30.0,15.0,2.0,0.0
5511,68.0,30.0,30.0,3.0,0.0
5512,56.0,0.0,60.0,5.0,0.0
5513,44.0,30.0,60.0,6.0,0.0
5514,77.0,0.0,60.0,2.0,0.0
5515,68.0,0.0,30.0,3.0,0.0
5516,75.0,30.0,30.0,2.0,0.0
5517,77.0,60.0,30.0,2.0,0.0
5518,68.0,0.0,60.0,3.0,0.0
5519,51.0,0.0,60.0,6.0,0.0
5520,78.0,60.0,120.0,2.0,0.0
5521,63.0,60.0,60.0,5.0,0.0
5522,75.0,0.0,60.0,3.0,0.0
5523,78.0,60.0,60.0,3.0,0.0
5524,87.0,0.0,120.0,2.0,0.0
5525,44.0,0.0,60.0,6.0,0.0
5526,56.0,0.0,60.0,5.0,0.0
5527,75.0,60.0,60.0,3.0,0.0
5528,48.0,60.0,60.0,6.0,0.0
5529,60.0,0.0,60.0,5.0,0.0
5530,66.0,0.0,120.0,4.0,0.0
5531,80.0,0.0,60.0,3.0,0.0
5532,78.0,60.0,60.0,3.0,0.0
5533,75.0,0.0,120.0,4.0,0.0
5534,56.0,60.0,60.0,5.0,0.0
5535,44.0,0.0,60.0,6.0,0.0
5536,78.0,0.0,120.0,2.0,0.0
5537,68.0,30.0,60.0,3.0,0.0
5538,61.0,0.0,120.0,5.0,0.0
5539,73.0,60.0,30.0,4.0,0.0
5540,49.0,0.0,120.0,6.0,0.0
5541,77.0,30.0,120.0,2.0,0.0
5542,68.0,0.0,120.0,3.0,0.0
5543,61.0,30.0,30.0,4.0,0.0
5544,80.0,15.0,120.0,2.0,0.0
5545,61.0,60.0,30.0,4.0,0.0
5546,61.0,30.0,30.0,4.0,0.0
5547,61.0,60.0,30.0,4.0,0.0
5548,87.0,15.0,15.0,2.0,0.0
5549,85.0,30.0,120.0,2.0,0.0
5550,61.0,30.0,30.0,4.0,0.0
5551,84.0,0.0,30.0,2.0,0.0
5552,61.0,60.0,30.0,4.0,0.0
5553,61.0,45.0,30.0,4.0,0.0
5554,82.0,0.0,30.0,2.0,0.0
5555,37.0,30.0,120.0,6.0,0.0
5556,49.0,0.0,120.0,5.0,0.0
5557,61.0,60.0,30.0,4.0,0.0
5558,82.0,15.0,15.0,2.0,0.0
5559,61.0,30.0,30.0,4.0,0.0
5560,80.0,0.0,15.0,2.0,0.0
5561,61.0,60.0,30.0,4.0,0.0
5562,61.0,30.0,30.0,4.0,0.0
5563,84.0,15.0,15.0,2.0,0.0
5564,61.0,60.0,30.0,4.0,0.0
5565,75.0,0.0,15.0,3.0,0.0
5566,82.0,30.0,120.0,2.0,0.0
5567,73.0,0.0,120.0,3.0,0.0
5568,61.0,30.0,30.0,4.0,0.0
5569,61.0,60.0,30.0,4.0,0.0
5570,72.0,0.0,30.0,3.0,0.0
5571,80.0,0.0,30.0,2.0,0.0
5572,78.0,0.0,30.0,2.0,0.0
5573,61.0,0.0,30.0,4.0,0.0
5574,70.0,60.0,30.0,3.0,0.0
5575,68.0,0.0,120.0,3.0,0.0
5576,61.0,60.0,30.0,4.0,0.0
5577,49.0,30.0,120.0,5.0,0.0
5578,77.0,0.0,120.0,2.0,0.0
5579,37.0,0.0,120.0,6.0,0.0
5580,61.0,30.0,30.0,4.0,0.0
5581,80.0,15.0,120.0,2.0,0.0
5582,61.0,60.0,30.0,4.0,0.0
5583,65.0,0.0,120.0,3.0,0.0
5584,61.0,30.0,30.0,4.0,0.0
5585,72.0,15.0,15.0,3.0,0.0
5586,61.0,60.0,30.0,4.0,0.0
5587,87.0,0.0,15.0,2.0,0.0
5588,85.0,30.0,120.0,2.0,0.0
5589,70.0,0.0,120.0,3.0,0.0
5590,61.0,30.0,30.0,4.0,0.0
5591,84.0,0.0,30.0,2.0,0.0
5592,68.0,0.0,30.0,3.0,0.0
5593,61.0,60.0,30.0,4.0,0.0
5594,82.0,0.0,30.0,2.0,0.0
5595,61.0,0.0,30.0,4.0,0.0
5596,66.0,150.0,30.0,3.0,0.0
5597,61.0,120.0,120.0,4.0,0.0
5598,65.0,0.0,120.0,3.0,0.0
5599,80.0,0.0,15.0,2.0,0.0
5600,65.0,0.0,15.0,3.0,0.0
5601,80.0,120.0,15.0,2.0,0.0
5602,80.0,0.0,15.0,2.0,0.0
5603,65.0,30.0,120.0,3.0,0.0
5604,78.0,0.0,480.0,0.0,0.0
5605,84.0,0.0,480.0,0.0,0.0
5606,56.0,30.0,480.0,1.0,0.0
5607,63.0,0.0,480.0,1.0,0.0
5608,90.0,30.0,15.0,2.0,0.0
5609,90.0,30.0,30.0,2.0,0.0
5610,90.0,30.0,30.0,2.0,0.0
5611,56.0,0.0,60.0,5.0,0.0
5612,44.0,30.0,60.0,6.0,0.0
5613,90.0,30.0,15.0,2.0,0.0
5614,90.0,30.0,30.0,2.0,0.0
5615,90.0,30.0,30.0,2.0,0.0
5616,60.0,0.0,60.0,5.0,0.0
5617,48.0,30.0,60.0,6.0,0.0
5618,75.0,0.0,30.0,4.0,0.0
5619,80.0,30.0,120.0,2.0,0.0
5620,84.0,30.0,30.0,3.0,0.0
5621,84.0,0.0,30.0,3.0,0.0
5622,75.0,0.0,15.0,4.0,0.0
5623,84.0,30.0,15.0,3.0,0.0
5624,44.0,30.0,60.0,6.0,0.0
5625,84.0,0.0,15.0,3.0,0.0
5626,90.0,0.0,120.0,2.0,0.0
5627,75.0,0.0,15.0,4.0,0.0
5628,56.0,0.0,60.0,5.0,0.0
5629,84.0,30.0,15.0,3.0,0.0
5630,75.0,0.0,15.0,4.0,0.0
5631,84.0,0.0,15.0,3.0,0.0
5632,84.0,0.0,30.0,3.0,0.0
5633,75.0,30.0,15.0,4.0,0.0
5634,85.0,0.0,120.0,3.0,0.0
5635,73.0,0.0,120.0,4.0,0.0
5636,53.0,30.0,480.0,1.0,0.0
5637,61.0,0.0,480.0,1.0,0.0
5638,85.0,0.0,480.0,0.0,0.0
5639,77.0,0.0,480.0,0.0,0.0
5640,89.0,30.0,15.0,2.0,0.0
5641,89.0,30.0,15.0,2.0,0.0
5642,77.0,0.0,120.0,4.0,0.0
5643,89.0,30.0,15.0,2.0,0.0
5644,80.0,0.0,120.0,3.0,0.0
5645,61.0,0.0,60.0,5.0,0.0
5646,49.0,30.0,60.0,6.0,0.0
5647,89.0,30.0,15.0,2.0,0.0
5648,89.0,0.0,15.0,2.0,0.0
5649,89.0,30.0,15.0,2.0,0.0
5650,53.0,0.0,60.0,6.0,0.0
5651,77.0,30.0,30.0,3.0,0.0
5652,73.0,30.0,120.0,2.0,0.0
5653,65.0,30.0,60.0,5.0,0.0
5654,77.0,0.0,15.0,3.0,0.0
5655,77.0,0.0,30.0,3.0,0.0
5656,77.0,0.0,30.0,3.0,0.0
5657,73.0,30.0,30.0,4.0,0.0
5658,49.0,30.0,60.0,6.0,0.0
5659,61.0,0.0,60.0,5.0,0.0
5660,73.0,0.0,30.0,4.0,0.0
5661,77.0,0.0,15.0,3.0,0.0
5662,73.0,30.0,15.0,4.0,0.0
5663,77.0,0.0,30.0,3.0,0.0
5664,63.0,0.0,480.0,1.0,0.0
5665,84.0,30.0,480.0,0.0,0.0
5666,75.0,30.0,120.0,3.0,0.0
5667,72.0,0.0,120.0,4.0,0.0
5668,78.0,0.0,480.0,0.0,0.0
5669,56.0,0.0,480.0,1.0,0.0
5670,90.0,30.0,15.0,2.0,0.0
5671,90.0,30.0,30.0,2.0,0.0
5672,90.0,0.0,30.0,2.0,0.0
5673,90.0,30.0,30.0,2.0,0.0
5674,44.0,0.0,60.0,6.0,0.0
5675,56.0,30.0,60.0,5.0,0.0
5676,90.0,0.0,30.0,2.0,0.0
5677,90.0,30.0,30.0,2.0,0.0
5678,90.0,30.0,30.0,2.0,0.0
5679,80.0,30.0,120.0,2.0,0.0
5680,60.0,30.0,60.0,5.0,0.0
5681,84.0,0.0,30.0,3.0,0.0
5682,48.0,0.0,60.0,6.0,0.0
5683,75.0,30.0,15.0,4.0,0.0
5684,84.0,0.0,15.0,3.0,0.0
5685,75.0,0.0,15.0,4.0,0.0
5686,84.0,0.0,30.0,3.0,0.0
5687,56.0,0.0,60.0,5.0,0.0
5688,75.0,0.0,15.0,4.0,0.0
5689,44.0,0.0,60.0,6.0,0.0
5690,90.0,0.0,120.0,2.0,0.0
5691,84.0,0.0,30.0,3.0,0.0
5692,75.0,30.0,15.0,4.0,0.0
5693,84.0,30.0,30.0,3.0,0.0
5694,75.0,0.0,15.0,4.0,0.0
5695,84.0,30.0,30.0,3.0,0.0
5696,84.0,0.0,30.0,3.0,0.0
5697,75.0,0.0,30.0,4.0,0.0
5698,73.0,0.0,120.0,4.0,0.0
5699,89.0,30.0,30.0,2.0,0.0
5700,61.0,0.0,480.0,1.0,0.0
5701,85.0,0.0,120.0,3.0,0.0
5702,53.0,0.0,480.0,1.0,0.0
5703,77.0,0.0,480.0,0.0,0.0
5704,89.0,0.0,480.0,0.0,0.0
5705,89.0,30.0,30.0,2.0,0.0
5706,89.0,30.0,30.0,2.0,0.0
5707,89.0,30.0,30.0,2.0,0.0
5708,61.0,0.0,60.0,5.0,0.0
5709,49.0,30.0,60.0,6.0,0.0
5710,77.0,30.0,120.0,4.0,0.0
5711,80.0,0.0,120.0,3.0,0.0
5712,89.0,30.0,30.0,2.0,0.0
5713,89.0,0.0,30.0,2.0,0.0
5714,89.0,30.0,15.0,2.0,0.0
5715,53.0,0.0,60.0,6.0,0.0
5716,73.0,30.0,120.0,2.0,0.0
5717,77.0,30.0,30.0,3.0,0.0
5718,65.0,30.0,60.0,5.0,0.0
5719,77.0,0.0,15.0,3.0,0.0
5720,49.0,0.0,60.0,6.0,0.0
5721,77.0,0.0,15.0,3.0,0.0
5722,61.0,30.0,60.0,5.0,0.0
5723,77.0,0.0,15.0,3.0,0.0
5724,73.0,30.0,15.0,4.0,0.0
5725,73.0,0.0,15.0,4.0,0.0
5726,77.0,30.0,30.0,3.0,0.0
5727,73.0,0.0,15.0,4.0,0.0
5728,77.0,30.0,30.0,3.0,0.0
5729,73.0,0.0,120.0,4.0,0.0
5730,82.0,30.0,30.0,2.0,0.0
5731,78.0,0.0,480.0,0.0,0.0
5732,78.0,0.0,120.0,3.0,0.0
5733,85.0,30.0,480.0,0.0,0.0
5734,82.0,30.0,30.0,2.0,0.0
5735,82.0,30.0,30.0,2.0,0.0
5736,82.0,30.0,15.0,2.0,0.0
5737,42.0,30.0,60.0,6.0,0.0
5738,54.0,0.0,60.0,5.0,0.0
5739,82.0,0.0,30.0,2.0,0.0
5740,82.0,30.0,30.0,2.0,0.0
5741,82.0,30.0,30.0,2.0,0.0
5742,78.0,30.0,30.0,3.0,0.0
5743,58.0,0.0,60.0,5.0,0.0
5744,66.0,0.0,120.0,2.0,0.0
5745,46.0,30.0,60.0,6.0,0.0
5746,73.0,0.0,15.0,4.0,0.0
5747,78.0,0.0,30.0,3.0,0.0
5748,73.0,0.0,15.0,4.0,0.0
5749,78.0,0.0,30.0,3.0,0.0
5750,42.0,0.0,60.0,6.0,0.0
5751,78.0,30.0,15.0,3.0,0.0
5752,82.0,0.0,120.0,2.0,0.0
5753,73.0,0.0,15.0,4.0,0.0
5754,54.0,30.0,60.0,5.0,0.0
5755,73.0,0.0,15.0,4.0,0.0
5756,78.0,0.0,15.0,3.0,0.0
5757,73.0,0.0,15.0,4.0,0.0
5758,78.0,30.0,15.0,3.0,0.0
5759,73.0,0.0,15.0,4.0,0.0
5760,77.0,30.0,120.0,3.0,0.0
5761,49.0,0.0,15.0,1.0,0.0
5762,61.0,0.0,15.0,1.0,0.0
5763,77.0,30.0,240.0,0.0,0.0
5764,80.0,0.0,480.0,0.0,0.0
5765,80.0,30.0,30.0,2.0,0.0
5766,80.0,30.0,30.0,2.0,0.0
5767,80.0,30.0,15.0,2.0,0.0
5768,80.0,0.0,15.0,2.0,0.0
5769,61.0,0.0,60.0,5.0,0.0
5770,49.0,30.0,60.0,6.0,0.0
5771,80.0,30.0,15.0,2.0,0.0
5772,80.0,30.0,15.0,2.0,0.0
5773,73.0,0.0,120.0,2.0,0.0
5774,73.0,0.0,120.0,0.0,0.0
5775,53.0,30.0,60.0,6.0,0.0
5776,68.0,30.0,30.0,4.0,0.0
5777,65.0,0.0,60.0,5.0,0.0
5778,68.0,0.0,30.0,4.0,0.0
5779,68.0,30.0,30.0,4.0,0.0
5780,68.0,30.0,30.0,4.0,0.0
5781,61.0,30.0,60.0,5.0,0.0
5782,85.0,30.0,120.0,2.0,0.0
5783,77.0,0.0,120.0,0.0,0.0
5784,49.0,0.0,60.0,6.0,0.0
5785,73.0,0.0,30.0,3.0,0.0
5786,65.0,30.0,15.0,4.0,0.0
5787,73.0,0.0,30.0,3.0,0.0
5788,65.0,30.0,15.0,4.0,0.0
5789,73.0,0.0,15.0,3.0,0.0
5790,49.0,0.0,15.0,1.0,0.0
5791,61.0,0.0,15.0,1.0,0.0
5792,70.0,30.0,30.0,3.0,0.0
5793,82.0,0.0,240.0,0.0,0.0
5794,78.0,0.0,240.0,0.0,0.0
5795,54.0,30.0,60.0,6.0,0.0
5796,66.0,30.0,120.0,2.0,0.0
5797,70.0,0.0,15.0,3.0,0.0
5798,70.0,30.0,15.0,3.0,0.0
5799,63.0,0.0,60.0,5.0,0.0
5800,70.0,0.0,30.0,3.0,0.0
5801,51.0,0.0,60.0,6.0,0.0
5802,82.0,60.0,120.0,2.0,0.0
5803,66.0,30.0,30.0,4.0,0.0
5804,70.0,0.0,30.0,3.0,0.0
5805,70.0,0.0,30.0,3.0,0.0
5806,66.0,30.0,15.0,4.0,0.0
5807,70.0,0.0,30.0,3.0,0.0
5808,66.0,0.0,30.0,4.0,0.0
5809,63.0,30.0,120.0,2.0,0.0
5810,84.0,0.0,240.0,0.0,0.0
5811,75.0,30.0,240.0,0.0,0.0
5812,68.0,0.0,60.0,5.0,0.0
5813,56.0,60.0,60.0,6.0,0.0
5814,44.0,0.0,60.0,6.0,0.0
5815,56.0,30.0,60.0,5.0,0.0
5816,63.0,0.0,30.0,4.0,0.0
5817,72.0,0.0,120.0,2.0,0.0
5818,66.0,30.0,15.0,3.0,0.0
5819,66.0,0.0,15.0,3.0,0.0
5820,63.0,0.0,15.0,4.0,0.0
5821,63.0,0.0,15.0,4.0,0.0
5822,66.0,0.0,30.0,3.0,0.0
5823,61.0,0.0,120.0,5.0,0.0
5824,49.0,0.0,120.0,1.0,0.0
5825,56.0,0.0,15.0,1.0,0.0
5826,73.0,0.0,120.0,2.0,0.0
5827,49.0,0.0,120.0,6.0,0.0
5828,61.0,60.0,30.0,4.0,0.0
5829,85.0,0.0,120.0,0.0,0.0
5830,77.0,30.0,120.0,0.0,0.0
5831,65.0,0.0,120.0,3.0,0.0
5832,56.0,30.0,30.0,4.0,0.0
5833,56.0,60.0,30.0,4.0,0.0
5834,56.0,60.0,30.0,4.0,0.0
5835,56.0,60.0,30.0,4.0,0.0
5836,56.0,60.0,30.0,4.0,0.0
5837,56.0,60.0,30.0,4.0,0.0
5838,56.0,60.0,30.0,4.0,0.0
5839,56.0,60.0,30.0,4.0,0.0
5840,90.0,30.0,240.0,2.0,0.0
5841,56.0,60.0,30.0,4.0,0.0
5842,44.0,30.0,60.0,6.0,0.0
5843,56.0,30.0,30.0,4.0,0.0
5844,56.0,30.0,30.0,4.0,0.0
5845,56.0,30.0,30.0,4.0,0.0
5846,84.0,30.0,240.0,2.0,0.0
5847,54.0,0.0,60.0,6.0,0.0
5848,66.0,30.0,60.0,5.0,0.0
5849,56.0,60.0,30.0,4.0,0.0
5850,56.0,30.0,30.0,4.0,0.0
5851,51.0,0.0,60.0,6.0,0.0
5852,63.0,30.0,60.0,5.0,0.0
5853,56.0,30.0,30.0,4.0,0.0
5854,85.0,0.0,180.0,2.0,0.0
5855,80.0,30.0,240.0,3.0,0.0
5856,56.0,60.0,30.0,4.0,0.0
5857,56.0,60.0,30.0,4.0,0.0
5858,49.0,30.0,60.0,6.0,0.0
5859,56.0,30.0,30.0,4.0,0.0
5860,61.0,0.0,60.0,5.0,0.0
5861,56.0,30.0,30.0,4.0,0.0
5862,87.0,0.0,30.0,2.0,0.0
5863,89.0,0.0,30.0,2.0,0.0
5864,56.0,30.0,30.0,4.0,0.0
5865,53.0,30.0,60.0,6.0,0.0
5866,80.0,30.0,180.0,2.0,0.0
5867,65.0,0.0,60.0,5.0,0.0
5868,73.0,30.0,240.0,3.0,0.0
5869,56.0,60.0,30.0,4.0,0.0
5870,56.0,30.0,30.0,4.0,0.0
5871,61.0,0.0,60.0,5.0,0.0
5872,49.0,0.0,60.0,6.0,0.0
5873,56.0,30.0,30.0,4.0,0.0
5874,72.0,30.0,180.0,3.0,0.0
5875,90.0,0.0,240.0,2.0,0.0
5876,56.0,60.0,30.0,4.0,0.0
5877,56.0,60.0,30.0,4.0,0.0
5878,56.0,30.0,30.0,4.0,0.0
5879,44.0,0.0,60.0,6.0,0.0
5880,73.0,0.0,30.0,3.0,0.0
5881,56.0,30.0,30.0,4.0,0.0
5882,75.0,30.0,30.0,3.0,0.0
5883,68.0,30.0,120.0,3.0,0.0
5884,56.0,30.0,30.0,4.0,0.0
5885,84.0,30.0,240.0,2.0,0.0
5886,54.0,30.0,60.0,6.0,0.0
5887,66.0,0.0,60.0,5.0,0.0
5888,56.0,30.0,30.0,4.0,0.0
5889,63.0,30.0,60.0,5.0,0.0
5890,56.0,30.0,30.0,4.0,0.0
5891,51.0,0.0,60.0,6.0,0.0
5892,56.0,30.0,30.0,4.0,0.0
5893,80.0,0.0,240.0,3.0,0.0
5894,56.0,60.0,30.0,4.0,0.0
5895,85.0,0.0,180.0,2.0,0.0
5896,56.0,60.0,30.0,4.0,0.0
5897,56.0,30.0,30.0,4.0,0.0
5898,49.0,30.0,60.0,6.0,0.0
5899,61.0,0.0,60.0,5.0,0.0
5900,87.0,0.0,30.0,2.0,0.0
5901,56.0,30.0,30.0,4.0,0.0
5902,89.0,30.0,30.0,2.0,0.0
5903,65.0,0.0,60.0,5.0,0.0
5904,73.0,120.0,240.0,3.0,0.0
5905,56.0,30.0,30.0,4.0,0.0
5906,80.0,0.0,180.0,2.0,0.0
5907,53.0,30.0,60.0,6.0,0.0
5908,56.0,60.0,30.0,4.0,0.0
5909,49.0,0.0,60.0,6.0,0.0
5910,61.0,30.0,60.0,5.0,0.0
5911,56.0,30.0,30.0,4.0,0.0
5912,56.0,30.0,30.0,4.0,0.0
5913,61.0,0.0,120.0,4.0,0.0
5914,70.0,120.0,120.0,2.0,0.0
5915,66.0,0.0,120.0,3.0,0.0
5916,68.0,0.0,240.0,3.0,0.0
5917,42.0,120.0,120.0,6.0,0.0
5918,54.0,0.0,120.0,5.0,0.0
5919,72.0,0.0,120.0,2.0,0.0
5920,63.0,0.0,120.0,4.0,0.0
5921,53.0,120.0,120.0,5.0,0.0
5922,73.0,0.0,120.0,2.0,0.0
5923,41.0,0.0,120.0,6.0,0.0
5924,65.0,0.0,120.0,4.0,0.0
5925,44.0,0.0,120.0,6.0,0.0
5926,74.0,0.0,120.0,2.0,0.0
5927,70.0,0.0,120.0,3.0,0.0
5928,56.0,120.0,120.0,5.0,0.0
5929,72.0,0.0,120.0,3.0,0.0
5930,42.0,0.0,120.0,6.0,0.0
5931,75.0,0.0,120.0,2.0,0.0
5932,54.0,0.0,120.0,5.0,0.0
5933,73.0,120.0,120.0,3.0,0.0
5934,53.0,0.0,120.0,5.0,0.0
5935,68.0,120.0,15.0,4.0,0.0
5936,41.0,0.0,120.0,6.0,0.0
5937,77.0,0.0,120.0,2.0,0.0
5938,39.0,0.0,120.0,6.0,0.0
5939,51.0,90.0,120.0,5.0,0.0
5940,78.0,44.0,210.0,2.0,0.0
5941,72.0,0.0,210.0,3.0,0.0
5942,44.0,0.0,90.0,6.0,0.0
5943,56.0,1.0,90.0,5.0,0.0
5944,68.0,0.0,240.0,4.0,0.0
5945,68.0,0.0,1920.0,0.0,0.0
5946,80.0,0.0,1920.0,0.0,0.0
5947,49.0,0.0,120.0,6.0,0.0
5948,65.0,15.0,15.0,3.0,0.0
5949,77.0,0.0,15.0,2.0,0.0
5950,61.0,30.0,120.0,5.0,0.0
5951,66.0,0.0,15.0,3.0,0.0
5952,78.0,90.0,15.0,2.0,0.0
5953,77.0,0.0,90.0,2.0,0.0
5954,65.0,0.0,90.0,3.0,0.0
5955,63.0,0.0,30.0,3.0,0.0
5956,56.0,0.0,30.0,4.0,0.0
5957,75.0,0.0,30.0,2.0,0.0
5958,60.0,0.0,30.0,5.0,0.0
5959,48.0,60.0,30.0,6.0,0.0
5960,73.0,0.0,30.0,2.0,0.0
5961,61.0,0.0,30.0,3.0,0.0
5962,56.0,0.0,30.0,4.0,0.0
5963,49.0,90.0,30.0,6.0,0.0
5964,78.0,0.0,60.0,2.0,0.0
5965,63.0,0.0,60.0,3.0,0.0
5966,56.0,120.0,60.0,4.0,0.0
5967,60.0,0.0,60.0,5.0,0.0
5968,48.0,0.0,60.0,6.0,0.0
5969,78.0,0.0,60.0,2.0,0.0
5970,63.0,0.0,60.0,3.0,0.0
5971,60.0,75.0,60.0,5.0,0.0
5972,56.0,0.0,60.0,4.0,0.0
5973,48.0,0.0,60.0,6.0,0.0
5974,77.0,0.0,15.0,2.0,0.0
5975,61.0,15.0,15.0,3.0,0.0
5976,61.0,0.0,120.0,5.0,0.0
5977,49.0,0.0,120.0,6.0,0.0
5978,63.0,90.0,15.0,3.0,0.0
5979,78.0,0.0,15.0,2.0,0.0
5980,77.0,0.0,90.0,2.0,0.0
5981,61.0,0.0,90.0,3.0,0.0
5982,48.0,60.0,30.0,6.0,0.0
5983,75.0,0.0,30.0,2.0,0.0
5984,60.0,0.0,30.0,5.0,0.0
5985,63.0,0.0,30.0,3.0,0.0
5986,56.0,30.0,15.0,4.0,0.0
5987,61.0,0.0,30.0,5.0,0.0
5988,65.0,0.0,30.0,3.0,0.0
5989,73.0,0.0,30.0,2.0,0.0
5990,56.0,0.0,30.0,4.0,0.0
5991,49.0,90.0,30.0,6.0,0.0
5992,51.0,0.0,60.0,6.0,0.0
5993,66.0,0.0,240.0,3.0,0.0
5994,72.0,0.0,240.0,2.0,0.0
5995,56.0,15.0,240.0,4.0,0.0
5996,63.0,120.0,60.0,5.0,0.0
5997,44.0,60.0,60.0,6.0,0.0
5998,49.0,0.0,120.0,6.0,0.0
5999,61.0,30.0,120.0,5.0,0.0
6000,65.0,15.0,15.0,3.0,0.0
6001,77.0,0.0,15.0,2.0,0.0
6002,66.0,0.0,15.0,3.0,0.0
6003,78.0,90.0,15.0,2.0,0.0
6004,77.0,0.0,90.0,2.0,0.0
6005,65.0,0.0,90.0,3.0,0.0
6006,75.0,0.0,30.0,2.0,0.0
6007,56.0,0.0,15.0,4.0,0.0
6008,63.0,0.0,30.0,3.0,0.0
6009,48.0,0.0,30.0,6.0,0.0
6010,60.0,0.0,30.0,5.0,0.0
6011,73.0,0.0,30.0,2.0,0.0
6012,49.0,0.0,30.0,6.0,0.0
6013,56.0,0.0,30.0,4.0,0.0
6014,61.0,0.0,30.0,5.0,0.0
6015,61.0,90.0,30.0,3.0,0.0
6016,60.0,120.0,60.0,3.0,0.0
6017,63.0,0.0,60.0,5.0,0.0
6018,78.0,0.0,60.0,2.0,0.0
6019,56.0,0.0,60.0,4.0,0.0
6020,51.0,0.0,60.0,6.0,0.0
6021,56.0,0.0,60.0,4.0,0.0
6022,78.0,75.0,60.0,2.0,0.0
6023,51.0,0.0,60.0,6.0,0.0
6024,63.0,0.0,60.0,5.0,0.0
6025,60.0,0.0,60.0,3.0,0.0
6026,61.0,15.0,15.0,3.0,0.0
6027,77.0,0.0,15.0,2.0,0.0
6028,61.0,0.0,120.0,5.0,0.0
6029,49.0,0.0,120.0,6.0,0.0
6030,78.0,90.0,15.0,2.0,0.0
6031,63.0,0.0,15.0,3.0,0.0
6032,77.0,0.0,90.0,2.0,0.0
6033,61.0,30.0,90.0,3.0,0.0
6034,60.0,0.0,30.0,5.0,0.0
6035,63.0,0.0,30.0,3.0,0.0
6036,56.0,0.0,15.0,4.0,0.0
6037,48.0,60.0,30.0,6.0,0.0
6038,75.0,0.0,30.0,2.0,0.0
6039,65.0,0.0,30.0,3.0,0.0
6040,73.0,0.0,30.0,2.0,0.0
6041,56.0,0.0,30.0,4.0,0.0
6042,61.0,0.0,30.0,5.0,0.0
6043,49.0,90.0,30.0,6.0,0.0
6044,72.0,30.0,240.0,2.0,0.0
6045,63.0,120.0,60.0,5.0,0.0
6046,56.0,0.0,240.0,4.0,0.0
6047,66.0,0.0,240.0,3.0,0.0
6048,51.0,0.0,60.0,6.0,0.0
6049,44.0,60.0,60.0,6.0,0.0
6050,49.0,0.0,960.0,1.0,0.0
6051,73.0,0.0,960.0,0.0,0.0
6052,65.0,0.0,60.0,4.0,0.0
6053,61.0,0.0,960.0,1.0,0.0
6054,68.0,0.0,30.0,3.0,0.0
6055,80.0,30.0,15.0,2.0,0.0
6056,68.0,0.0,30.0,3.0,0.0
6057,53.0,0.0,15.0,6.0,0.0
6058,68.0,0.0,30.0,3.0,0.0
6059,65.0,0.0,60.0,4.0,0.0
6060,80.0,30.0,15.0,2.0,0.0
6061,80.0,30.0,15.0,2.0,0.0
6062,53.0,0.0,15.0,6.0,0.0
6063,68.0,30.0,15.0,3.0,0.0
6064,80.0,30.0,15.0,2.0,0.0
6065,68.0,30.0,30.0,3.0,0.0
6066,65.0,0.0,15.0,4.0,0.0
6067,80.0,0.0,30.0,2.0,0.0
6068,53.0,30.0,60.0,6.0,0.0
6069,80.0,0.0,30.0,2.0,0.0
6070,68.0,30.0,15.0,3.0,0.0
6071,69.0,30.0,30.0,3.0,0.0
6072,81.0,0.0,30.0,2.0,0.0
6073,65.0,0.0,60.0,4.0,0.0
6074,81.0,0.0,30.0,2.0,0.0
6075,65.0,0.0,60.0,4.0,0.0
6076,69.0,0.0,15.0,3.0,0.0
6077,53.0,30.0,15.0,6.0,0.0
6078,81.0,0.0,15.0,2.0,0.0
6079,81.0,0.0,15.0,2.0,0.0
6080,65.0,0.0,60.0,4.0,0.0
6081,69.0,30.0,15.0,3.0,0.0
6082,69.0,0.0,15.0,3.0,0.0
6083,81.0,0.0,15.0,2.0,0.0
6084,53.0,30.0,15.0,6.0,0.0
6085,65.0,30.0,60.0,4.0,0.0
6086,81.0,30.0,15.0,2.0,0.0
6087,69.0,0.0,30.0,3.0,0.0
6088,54.0,30.0,60.0,6.0,0.0
6089,70.0,0.0,30.0,3.0,0.0
6090,82.0,30.0,30.0,2.0,0.0
6091,66.0,0.0,60.0,4.0,0.0
6092,70.0,0.0,30.0,3.0,0.0
6093,82.0,0.0,15.0,2.0,0.0
6094,70.0,30.0,30.0,3.0,0.0
6095,70.0,0.0,30.0,3.0,0.0
6096,82.0,0.0,30.0,2.0,0.0
6097,70.0,30.0,30.0,3.0,0.0
6098,66.0,0.0,15.0,4.0,0.0
6099,54.0,30.0,15.0,6.0,0.0
6100,82.0,0.0,15.0,2.0,0.0
6101,70.0,0.0,30.0,3.0,0.0
6102,82.0,30.0,15.0,2.0,0.0
6103,54.0,0.0,60.0,6.0,0.0
6104,66.0,0.0,60.0,4.0,0.0
6105,82.0,0.0,30.0,2.0,0.0
6106,70.0,30.0,15.0,3.0,0.0
6107,79.0,0.0,30.0,2.0,0.0
6108,67.0,30.0,15.0,3.0,0.0
6109,64.0,0.0,15.0,4.0,0.0
6110,52.0,30.0,15.0,6.0,0.0
6111,79.0,0.0,15.0,2.0,0.0
6112,79.0,0.0,15.0,2.0,0.0
6113,67.0,30.0,15.0,3.0,0.0
6114,67.0,30.0,15.0,3.0,0.0
6115,79.0,0.0,15.0,2.0,0.0
6116,52.0,0.0,60.0,6.0,0.0
6117,79.0,0.0,30.0,2.0,0.0
6118,52.0,0.0,60.0,6.0,0.0
6119,64.0,0.0,15.0,4.0,0.0
6120,67.0,30.0,15.0,3.0,0.0
6121,67.0,0.0,15.0,3.0,0.0
6122,79.0,30.0,15.0,2.0,0.0
6123,80.0,30.0,30.0,2.0,0.0
6124,68.0,30.0,1200.0,0.0,0.0
6125,80.0,0.0,1200.0,0.0,0.0
6126,56.0,0.0,960.0,1.0,0.0
6127,44.0,0.0,960.0,1.0,0.0
6128,68.0,0.0,15.0,3.0,0.0
6129,80.0,0.0,30.0,2.0,0.0
6130,68.0,0.0,15.0,3.0,0.0
6131,53.0,30.0,15.0,6.0,0.0
6132,65.0,0.0,15.0,4.0,0.0
6133,80.0,0.0,15.0,2.0,0.0
6134,68.0,0.0,30.0,3.0,0.0
6135,80.0,0.0,30.0,2.0,0.0
6136,53.0,0.0,60.0,6.0,0.0
6137,68.0,30.0,15.0,3.0,0.0
6138,80.0,0.0,15.0,2.0,0.0
6139,65.0,0.0,15.0,4.0,0.0
6140,53.0,30.0,60.0,6.0,0.0
6141,68.0,30.0,15.0,3.0,0.0
6142,80.0,0.0,30.0,2.0,0.0
6143,77.0,0.0,30.0,3.0,0.0
6144,50.0,0.0,60.0,6.0,0.0
6145,74.0,0.0,60.0,4.0,0.0
6146,62.0,0.0,60.0,5.0,0.0
6147,89.0,30.0,15.0,2.0,0.0
6148,89.0,30.0,30.0,2.0,0.0
6149,62.0,0.0,60.0,5.0,0.0
6150,50.0,0.0,60.0,6.0,0.0
6151,77.0,30.0,15.0,3.0,0.0
6152,77.0,0.0,15.0,3.0,0.0
6153,89.0,30.0,30.0,2.0,0.0
6154,62.0,0.0,60.0,5.0,0.0
6155,74.0,0.0,15.0,4.0,0.0
6156,77.0,0.0,15.0,3.0,0.0
6157,89.0,0.0,30.0,2.0,0.0
6158,77.0,30.0,15.0,3.0,0.0
6159,89.0,0.0,30.0,2.0,0.0
6160,74.0,0.0,15.0,4.0,0.0
6161,62.0,0.0,60.0,5.0,0.0
6162,50.0,30.0,15.0,6.0,0.0
6163,77.0,0.0,15.0,3.0,0.0
6164,89.0,30.0,15.0,2.0,0.0
6165,77.0,0.0,30.0,3.0,0.0
6166,51.0,0.0,60.0,6.0,0.0
6167,90.0,0.0,30.0,2.0,0.0
6168,78.0,30.0,15.0,3.0,0.0
6169,90.0,0.0,30.0,2.0,0.0
6170,75.0,0.0,15.0,4.0,0.0
6171,63.0,0.0,15.0,5.0,0.0
6172,90.0,0.0,15.0,2.0,0.0
6173,78.0,30.0,15.0,3.0,0.0
6174,78.0,30.0,15.0,3.0,0.0
6175,51.0,0.0,15.0,6.0,0.0
6176,75.0,0.0,60.0,4.0,0.0
6177,90.0,0.0,15.0,2.0,0.0
6178,90.0,0.0,15.0,2.0,0.0
6179,78.0,30.0,15.0,3.0,0.0
6180,63.0,30.0,15.0,5.0,0.0
6181,78.0,0.0,15.0,3.0,0.0
6182,51.0,0.0,60.0,6.0,0.0
6183,75.0,0.0,60.0,4.0,0.0
6184,90.0,0.0,15.0,2.0,0.0
6185,90.0,30.0,15.0,2.0,0.0
6186,78.0,0.0,30.0,3.0,0.0
6187,72.0,0.0,60.0,4.0,0.0
6188,75.0,0.0,30.0,3.0,0.0
6189,87.0,30.0,15.0,2.0,0.0
6190,75.0,0.0,30.0,3.0,0.0
6191,48.0,0.0,15.0,6.0,0.0
6192,75.0,0.0,30.0,3.0,0.0
6193,60.0,0.0,15.0,5.0,0.0
6194,87.0,30.0,15.0,2.0,0.0
6195,75.0,0.0,30.0,3.0,0.0
6196,87.0,30.0,15.0,2.0,0.0
6197,87.0,0.0,15.0,2.0,0.0
6198,72.0,0.0,15.0,4.0,0.0
6199,48.0,30.0,15.0,6.0,0.0
6200,87.0,30.0,15.0,2.0,0.0
6201,75.0,0.0,15.0,3.0,0.0
6202,75.0,0.0,15.0,3.0,0.0
6203,48.0,0.0,15.0,6.0,0.0
6204,87.0,30.0,15.0,2.0,0.0
6205,60.0,0.0,15.0,5.0,0.0
6206,72.0,0.0,60.0,4.0,0.0
6207,87.0,30.0,15.0,2.0,0.0
6208,75.0,0.0,30.0,3.0,0.0
6209,56.0,0.0,240.0,1.0,0.0
6210,49.0,0.0,60.0,6.0,0.0
6211,49.0,0.0,720.0,1.0,0.0
6212,77.0,0.0,30.0,3.0,0.0
6213,61.0,0.0,60.0,5.0,0.0
6214,73.0,0.0,60.0,4.0,0.0
6215,89.0,30.0,15.0,2.0,0.0
6216,77.0,30.0,30.0,3.0,0.0
6217,49.0,0.0,60.0,6.0,0.0
6218,61.0,0.0,60.0,5.0,0.0
6219,77.0,0.0,15.0,3.0,0.0
6220,89.0,30.0,15.0,2.0,0.0
6221,77.0,0.0,15.0,3.0,0.0
6222,73.0,30.0,15.0,4.0,0.0
6223,61.0,0.0,60.0,5.0,0.0
6224,89.0,30.0,15.0,2.0,0.0
6225,77.0,0.0,30.0,3.0,0.0
6226,49.0,30.0,15.0,6.0,0.0
6227,61.0,0.0,60.0,5.0,0.0
6228,73.0,0.0,60.0,4.0,0.0
6229,77.0,0.0,30.0,3.0,0.0
6230,89.0,30.0,30.0,2.0,0.0
6231,89.0,0.0,30.0,2.0,0.0
6232,77.0,0.0,30.0,3.0,0.0
6233,73.0,0.0,30.0,3.0,0.0
6234,61.0,0.0,480.0,1.0,0.0
6235,58.0,30.0,60.0,5.0,0.0
6236,77.0,0.0,240.0,0.0,0.0
6237,85.0,0.0,240.0,0.0,0.0
6238,85.0,30.0,15.0,2.0,0.0
6239,77.0,0.0,15.0,4.0,0.0
6240,77.0,0.0,30.0,4.0,0.0
6241,46.0,0.0,15.0,6.0,0.0
6242,73.0,0.0,15.0,3.0,0.0
6243,85.0,0.0,30.0,2.0,0.0
6244,77.0,0.0,30.0,4.0,0.0
6245,85.0,30.0,30.0,2.0,0.0
6246,73.0,0.0,30.0,3.0,0.0
6247,58.0,0.0,15.0,5.0,0.0
6248,85.0,0.0,30.0,2.0,0.0
6249,77.0,0.0,15.0,4.0,0.0
6250,73.0,30.0,15.0,3.0,0.0
6251,77.0,0.0,15.0,4.0,0.0
6252,73.0,0.0,15.0,3.0,0.0
6253,58.0,0.0,15.0,5.0,0.0
6254,85.0,0.0,15.0,2.0,0.0
6255,46.0,30.0,15.0,6.0,0.0
6256,73.0,0.0,15.0,3.0,0.0
6257,85.0,0.0,15.0,2.0,0.0
6258,77.0,30.0,30.0,4.0,0.0
6259,78.0,30.0,240.0,0.0,0.0
6260,87.0,0.0,240.0,0.0,0.0
6261,54.0,30.0,60.0,5.0,0.0
6262,78.0,0.0,30.0,4.0,0.0
6263,78.0,0.0,30.0,4.0,0.0
6264,87.0,0.0,15.0,2.0,0.0
6265,75.0,30.0,15.0,3.0,0.0
6266,42.0,0.0,15.0,6.0,0.0
6267,75.0,0.0,15.0,3.0,0.0
6268,78.0,0.0,30.0,4.0,0.0
6269,54.0,0.0,60.0,5.0,0.0
6270,87.0,30.0,30.0,2.0,0.0
6271,75.0,0.0,15.0,3.0,0.0
6272,78.0,0.0,30.0,4.0,0.0
6273,87.0,0.0,30.0,2.0,0.0
6274,75.0,0.0,15.0,3.0,0.0
6275,78.0,0.0,30.0,4.0,0.0
6276,42.0,30.0,15.0,6.0,0.0
6277,54.0,0.0,60.0,5.0,0.0
6278,87.0,30.0,15.0,2.0,0.0
6279,75.0,0.0,15.0,3.0,0.0
6280,42.0,0.0,15.0,6.0,0.0
6281,87.0,0.0,30.0,2.0,0.0
6282,54.0,0.0,60.0,5.0,0.0
6283,78.0,0.0,15.0,4.0,0.0
6284,78.0,0.0,15.0,4.0,0.0
6285,75.0,30.0,15.0,3.0,0.0
6286,87.0,0.0,30.0,2.0,0.0
6287,44.0,0.0,60.0,6.0,0.0
6288,84.0,0.0,240.0,0.0,0.0
6289,63.0,30.0,240.0,1.0,0.0
6290,56.0,0.0,240.0,1.0,0.0
6291,75.0,0.0,240.0,0.0,0.0
6292,84.0,0.0,30.0,2.0,0.0
6293,72.0,0.0,15.0,3.0,0.0
6294,84.0,0.0,30.0,2.0,0.0
6295,75.0,30.0,15.0,4.0,0.0
6296,75.0,0.0,15.0,4.0,0.0
6297,44.0,0.0,60.0,6.0,0.0
6298,56.0,0.0,15.0,5.0,0.0
6299,84.0,0.0,30.0,2.0,0.0
6300,72.0,30.0,15.0,3.0,0.0
6301,84.0,30.0,30.0,2.0,0.0
6302,72.0,0.0,30.0,3.0,0.0
6303,75.0,0.0,30.0,4.0,0.0
6304,72.0,0.0,30.0,3.0,0.0
6305,75.0,0.0,30.0,4.0,0.0
6306,56.0,0.0,60.0,5.0,0.0
6307,84.0,30.0,30.0,2.0,0.0
6308,84.0,0.0,15.0,2.0,0.0
6309,44.0,0.0,15.0,6.0,0.0
6310,72.0,0.0,15.0,3.0,0.0
6311,56.0,0.0,60.0,5.0,0.0
6312,75.0,30.0,15.0,4.0,0.0
6313,72.0,0.0,15.0,3.0,0.0
6314,75.0,30.0,15.0,4.0,0.0
6315,84.0,0.0,30.0,2.0,0.0
6316,61.0,0.0,120.0,1.0,0.0
6317,73.0,0.0,60.0,3.0,0.0
6318,77.0,0.0,120.0,0.0,0.0
6319,85.0,30.0,120.0,0.0,0.0
6320,85.0,0.0,60.0,2.0,0.0
6321,49.0,0.0,120.0,5.0,0.0
6322,49.0,0.0,120.0,1.0,0.0
6323,37.0,0.0,120.0,6.0,0.0
6324,68.0,30.0,15.0,4.0,0.0
6325,68.0,30.0,15.0,4.0,0.0
6326,80.0,0.0,60.0,2.0,0.0
6327,68.0,30.0,15.0,4.0,0.0
6328,68.0,0.0,15.0,4.0,0.0
6329,77.0,30.0,60.0,2.0,0.0
6330,68.0,30.0,15.0,4.0,0.0
6331,68.0,0.0,15.0,4.0,0.0
6332,80.0,0.0,60.0,2.0,0.0
6333,68.0,30.0,15.0,4.0,0.0
6334,68.0,30.0,15.0,4.0,0.0
6335,77.0,0.0,60.0,2.0,0.0
6336,68.0,30.0,15.0,4.0,0.0
6337,68.0,30.0,15.0,4.0,0.0
6338,80.0,0.0,60.0,2.0,0.0
6339,68.0,30.0,15.0,4.0,0.0
6340,68.0,30.0,15.0,4.0,0.0
6341,85.0,0.0,60.0,2.0,0.0
6342,68.0,30.0,15.0,4.0,0.0
6343,68.0,30.0,15.0,4.0,0.0
6344,89.0,30.0,60.0,2.0,0.0
6345,68.0,30.0,15.0,4.0,0.0
6346,89.0,0.0,240.0,0.0,0.0
6347,80.0,30.0,240.0,0.0,0.0
6348,68.0,0.0,15.0,4.0,0.0
6349,61.0,0.0,240.0,1.0,0.0
6350,92.0,30.0,15.0,2.0,0.0
6351,68.0,0.0,15.0,4.0,0.0
6352,68.0,30.0,15.0,4.0,0.0
6353,68.0,30.0,30.0,4.0,0.0
6354,61.0,0.0,120.0,5.0,0.0
6355,49.0,0.0,120.0,6.0,0.0
6356,89.0,30.0,60.0,2.0,0.0
6357,68.0,0.0,15.0,4.0,0.0
6358,85.0,0.0,60.0,2.0,0.0
6359,68.0,0.0,30.0,4.0,0.0
6360,56.0,0.0,240.0,1.0,0.0
6361,68.0,30.0,30.0,4.0,0.0
6362,87.0,0.0,240.0,0.0,0.0
6363,78.0,0.0,240.0,0.0,0.0
6364,56.0,0.0,120.0,6.0,0.0
6365,90.0,30.0,60.0,2.0,0.0
6366,68.0,0.0,15.0,4.0,0.0
6367,90.0,30.0,60.0,2.0,0.0
6368,68.0,30.0,15.0,4.0,0.0
6369,87.0,30.0,60.0,2.0,0.0
6370,44.0,0.0,120.0,6.0,0.0
6371,56.0,0.0,120.0,5.0,0.0
6372,68.0,30.0,15.0,4.0,0.0
6373,68.0,0.0,15.0,4.0,0.0
6374,84.0,0.0,60.0,2.0,0.0
6375,68.0,30.0,15.0,4.0,0.0
6376,85.0,30.0,60.0,2.0,0.0
6377,61.0,30.0,120.0,5.0,0.0
6378,49.0,0.0,120.0,1.0,0.0
6379,49.0,0.0,120.0,6.0,0.0
6380,77.0,0.0,120.0,0.0,0.0
6381,85.0,0.0,120.0,0.0,0.0
6382,68.0,30.0,15.0,4.0,0.0
6383,80.0,0.0,60.0,2.0,0.0
6384,68.0,30.0,15.0,4.0,0.0
6385,77.0,0.0,60.0,2.0,0.0
6386,68.0,30.0,15.0,4.0,0.0
6387,80.0,0.0,60.0,2.0,0.0
6388,68.0,30.0,15.0,4.0,0.0
6389,68.0,30.0,15.0,4.0,0.0
6390,77.0,30.0,60.0,2.0,0.0
6391,68.0,30.0,15.0,4.0,0.0
6392,68.0,0.0,30.0,4.0,0.0
6393,68.0,30.0,30.0,4.0,0.0
6394,80.0,30.0,60.0,2.0,0.0
6395,85.0,30.0,60.0,2.0,0.0
6396,68.0,0.0,15.0,4.0,0.0
6397,68.0,30.0,15.0,4.0,0.0
6398,68.0,0.0,15.0,4.0,0.0
6399,89.0,30.0,60.0,2.0,0.0
6400,68.0,30.0,15.0,4.0,0.0
6401,68.0,0.0,15.0,4.0,0.0
6402,77.0,0.0,240.0,0.0,0.0
6403,85.0,0.0,240.0,0.0,0.0
6404,61.0,0.0,240.0,1.0,0.0
6405,68.0,0.0,15.0,4.0,0.0
6406,92.0,30.0,15.0,2.0,0.0
6407,68.0,30.0,15.0,4.0,0.0
6408,68.0,0.0,15.0,4.0,0.0
6409,89.0,0.0,60.0,2.0,0.0
6410,49.0,30.0,120.0,6.0,0.0
6411,61.0,0.0,120.0,5.0,0.0
6412,68.0,30.0,15.0,4.0,0.0
6413,68.0,30.0,15.0,4.0,0.0
6414,85.0,0.0,60.0,2.0,0.0
6415,68.0,30.0,15.0,4.0,0.0
6416,56.0,0.0,240.0,1.0,0.0
6417,75.0,0.0,240.0,0.0,0.0
6418,84.0,0.0,240.0,0.0,0.0
6419,68.0,30.0,30.0,4.0,0.0
6420,56.0,30.0,120.0,6.0,0.0
6421,68.0,0.0,15.0,4.0,0.0
6422,90.0,30.0,15.0,2.0,0.0
6423,68.0,30.0,15.0,4.0,0.0
6424,56.0,0.0,120.0,5.0,0.0
6425,87.0,30.0,60.0,2.0,0.0
6426,44.0,0.0,120.0,6.0,0.0
6427,68.0,30.0,15.0,4.0,0.0
6428,68.0,30.0,30.0,4.0,0.0
6429,84.0,60.0,60.0,2.0,0.0
6430,49.0,0.0,60.0,1.0,0.0
6431,85.0,0.0,60.0,0.0,0.0
6432,77.0,0.0,60.0,0.0,0.0
6433,61.0,0.0,120.0,5.0,0.0
6434,68.0,0.0,15.0,4.0,0.0
6435,85.0,60.0,60.0,2.0,0.0
6436,61.0,60.0,120.0,5.0,0.0
6437,49.0,30.0,15.0,6.0,0.0
6438,73.0,30.0,30.0,2.0,0.0
6439,73.0,30.0,30.0,2.0,0.0
6440,73.0,30.0,30.0,2.0,0.0
6441,73.0,0.0,30.0,2.0,0.0
6442,41.0,30.0,120.0,6.0,0.0
6443,65.0,60.0,60.0,2.0,0.0
6444,53.0,0.0,120.0,5.0,0.0
6445,49.0,0.0,120.0,6.0,0.0
6446,61.0,0.0,120.0,5.0,0.0
6447,73.0,30.0,30.0,2.0,0.0
6448,73.0,30.0,30.0,2.0,0.0
6449,73.0,30.0,30.0,2.0,0.0
6450,73.0,60.0,30.0,2.0,0.0
6451,42.0,30.0,120.0,6.0,0.0
6452,66.0,60.0,60.0,2.0,0.0
6453,54.0,0.0,120.0,5.0,0.0
6454,49.0,0.0,120.0,6.0,0.0
6455,61.0,0.0,120.0,5.0,0.0
6456,73.0,30.0,30.0,2.0,0.0
6457,73.0,30.0,15.0,2.0,0.0
6458,73.0,60.0,30.0,2.0,0.0
6459,43.0,0.0,120.0,6.0,0.0
6460,55.0,30.0,120.0,5.0,0.0
6461,67.0,60.0,60.0,2.0,0.0
6462,73.0,30.0,30.0,2.0,0.0
6463,49.0,0.0,120.0,6.0,0.0
6464,61.0,0.0,120.0,5.0,0.0
6465,73.0,30.0,15.0,2.0,0.0
6466,73.0,60.0,30.0,2.0,0.0
6467,60.0,0.0,60.0,5.0,0.0
6468,48.0,0.0,60.0,6.0,0.0
6469,72.0,60.0,60.0,2.0,0.0
6470,75.0,60.0,60.0,2.0,0.0
6471,63.0,0.0,60.0,4.0,0.0
6472,51.0,0.0,60.0,6.0,0.0
6473,72.0,60.0,60.0,2.0,0.0
6474,60.0,0.0,60.0,4.0,0.0
6475,48.0,0.0,60.0,6.0,0.0
6476,63.0,0.0,60.0,4.0,0.0
6477,51.0,60.0,60.0,6.0,0.0
6478,75.0,0.0,60.0,2.0,0.0
6479,68.0,60.0,60.0,4.0,0.0
6480,80.0,0.0,60.0,2.0,0.0
6481,80.0,0.0,360.0,0.0,0.0
6482,56.0,0.0,360.0,1.0,0.0
6483,56.0,0.0,15.0,6.0,0.0
6484,80.0,0.0,60.0,2.0,0.0
6485,68.0,60.0,15.0,4.0,0.0
6486,56.0,0.0,15.0,6.0,0.0
6487,80.0,0.0,60.0,2.0,0.0
6488,56.0,0.0,15.0,6.0,0.0
6489,68.0,60.0,15.0,4.0,0.0
6490,80.0,0.0,60.0,2.0,0.0
6491,68.0,0.0,60.0,4.0,0.0
6492,56.0,60.0,15.0,6.0,0.0
6493,80.0,0.0,60.0,2.0,0.0
6494,63.0,0.0,60.0,4.0,0.0
6495,75.0,60.0,60.0,2.0,0.0
6496,51.0,0.0,60.0,6.0,0.0
6497,72.0,60.0,60.0,2.0,0.0
6498,48.0,0.0,60.0,6.0,0.0
6499,60.0,0.0,60.0,4.0,0.0
6500,51.0,60.0,60.0,6.0,0.0
6501,63.0,0.0,60.0,4.0,0.0
6502,75.0,0.0,60.0,2.0,0.0
6503,56.0,0.0,360.0,1.0,0.0
6504,80.0,60.0,60.0,2.0,0.0
6505,80.0,90.0,360.0,0.0,0.0
6506,68.0,0.0,15.0,4.0,0.0
6507,56.0,0.0,15.0,6.0,0.0
6508,80.0,0.0,60.0,2.0,0.0
6509,56.0,60.0,15.0,6.0,0.0
6510,68.0,0.0,15.0,4.0,0.0
6511,80.0,0.0,60.0,2.0,0.0
6512,56.0,60.0,15.0,6.0,0.0
6513,68.0,0.0,60.0,4.0,0.0
6514,80.0,120.0,60.0,2.0,0.0
6515,56.0,0.0,120.0,6.0,0.0
6516,80.0,30.0,210.0,2.0,0.0
6517,68.0,0.0,120.0,4.0,0.0
6518,81.0,210.0,30.0,2.0,0.0
6519,82.0,30.0,210.0,2.0,0.0
6520,80.0,210.0,30.0,2.0,0.0
6521,78.0,30.0,210.0,2.0,0.0
6522,77.0,240.0,30.0,2.0,0.0
6523,75.0,120.0,240.0,2.0,0.0
6524,61.0,0.0,120.0,3.0,0.0
6525,73.0,120.0,120.0,2.0,0.0
6526,60.0,240.0,120.0,3.0,0.0
6527,72.0,0.0,120.0,2.0,0.0
6528,44.0,0.0,240.0,6.0,0.0
6529,72.0,0.0,240.0,0.0,0.0
6530,78.0,120.0,240.0,0.0,0.0
6531,56.0,0.0,240.0,1.0,0.0
6532,63.0,0.0,240.0,1.0,0.0
6533,60.0,0.0,240.0,4.0,0.0
6534,56.0,0.0,240.0,5.0,0.0
6535,62.0,0.0,120.0,3.0,0.0
6536,74.0,120.0,120.0,2.0,0.0
6537,63.0,240.0,120.0,3.0,0.0
6538,75.0,0.0,120.0,2.0,0.0
6539,60.0,0.0,240.0,4.0,0.0
6540,63.0,120.0,240.0,1.0,0.0
6541,56.0,0.0,240.0,1.0,0.0
6542,78.0,0.0,240.0,0.0,0.0
6543,56.0,0.0,240.0,5.0,0.0
6544,72.0,0.0,240.0,0.0,0.0
6545,44.0,0.0,240.0,6.0,0.0
6546,77.0,0.0,120.0,2.0,0.0
6547,65.0,120.0,120.0,3.0,0.0
6548,78.0,120.0,120.0,2.0,0.0
6549,66.0,0.0,120.0,3.0,0.0
6550,73.0,0.0,120.0,3.0,0.0
6551,85.0,120.0,120.0,2.0,0.0
6552,72.0,120.0,120.0,3.0,0.0
6553,84.0,0.0,120.0,2.0,0.0
6554,77.0,120.0,120.0,3.0,0.0
6555,89.0,0.0,120.0,2.0,0.0
6556,90.0,0.0,120.0,2.0,0.0
6557,78.0,270.0,120.0,3.0,0.0
6558,85.0,30.0,90.0,2.0,0.0
6559,85.0,0.0,2880.0,0.0,0.0
6560,65.0,30.0,30.0,3.0,0.0
6561,65.0,30.0,30.0,3.0,0.0
6562,65.0,0.0,15.0,3.0,0.0
6563,68.0,30.0,30.0,3.0,0.0
6564,73.0,30.0,120.0,2.0,0.0
6565,68.0,30.0,30.0,3.0,0.0
6566,68.0,30.0,15.0,3.0,0.0
6567,73.0,30.0,30.0,3.0,0.0
6568,65.0,0.0,90.0,5.0,0.0
6569,53.0,30.0,90.0,6.0,0.0
6570,73.0,30.0,30.0,3.0,0.0
6571,85.0,0.0,30.0,2.0,0.0
6572,73.0,0.0,30.0,3.0,0.0
6573,73.0,30.0,30.0,3.0,0.0
6574,85.0,0.0,30.0,2.0,0.0
6575,53.0,30.0,120.0,5.0,0.0
6576,77.0,30.0,30.0,3.0,0.0
6577,41.0,0.0,120.0,6.0,0.0
6578,77.0,30.0,15.0,3.0,0.0
6579,85.0,0.0,30.0,2.0,0.0
6580,77.0,30.0,15.0,3.0,0.0
6581,80.0,30.0,30.0,3.0,0.0
6582,61.0,0.0,120.0,1.0,0.0
6583,84.0,0.0,60.0,2.0,0.0
6584,80.0,30.0,30.0,3.0,0.0
6585,53.0,0.0,30.0,6.0,0.0
6586,85.0,30.0,30.0,2.0,0.0
6587,80.0,0.0,30.0,3.0,0.0
6588,65.0,0.0,30.0,5.0,0.0
6589,80.0,30.0,30.0,3.0,0.0
6590,53.0,0.0,120.0,1.0,0.0
6591,85.0,0.0,30.0,2.0,0.0
6592,53.0,0.0,30.0,6.0,0.0
6593,65.0,30.0,30.0,5.0,0.0
6594,77.0,0.0,15.0,3.0,0.0
6595,65.0,0.0,30.0,5.0,0.0
6596,77.0,30.0,15.0,3.0,0.0
6597,85.0,0.0,30.0,2.0,0.0
6598,53.0,30.0,30.0,6.0,0.0
6599,77.0,0.0,15.0,3.0,0.0
6600,68.0,30.0,90.0,4.0,0.0
6601,84.0,0.0,60.0,2.0,0.0
6602,51.0,0.0,60.0,6.0,0.0
6603,63.0,0.0,60.0,5.0,0.0
6604,73.0,30.0,15.0,3.0,0.0
6605,85.0,0.0,30.0,2.0,0.0
6606,53.0,0.0,30.0,6.0,0.0
6607,65.0,0.0,30.0,5.0,0.0
6608,73.0,30.0,15.0,3.0,0.0
6609,73.0,0.0,15.0,3.0,0.0
6610,65.0,0.0,30.0,5.0,0.0
6611,56.0,0.0,120.0,4.0,0.0
6612,85.0,0.0,30.0,2.0,0.0
6613,61.0,30.0,15.0,1.0,0.0
6614,53.0,0.0,30.0,6.0,0.0
6615,68.0,30.0,15.0,3.0,0.0
6616,68.0,0.0,15.0,3.0,0.0
6617,61.0,30.0,15.0,1.0,0.0
6618,53.0,30.0,30.0,6.0,0.0
6619,65.0,0.0,30.0,5.0,0.0
6620,85.0,0.0,30.0,2.0,0.0
6621,68.0,0.0,30.0,3.0,0.0
6622,87.0,0.0,90.0,2.0,0.0
6623,65.0,0.0,60.0,5.0,0.0
6624,61.0,30.0,120.0,1.0,0.0
6625,87.0,0.0,960.0,0.0,0.0
6626,53.0,0.0,60.0,6.0,0.0
6627,66.0,30.0,15.0,3.0,0.0
6628,66.0,30.0,15.0,3.0,0.0
6629,66.0,0.0,30.0,5.0,0.0
6630,70.0,0.0,30.0,4.0,0.0
6631,54.0,0.0,30.0,6.0,0.0
6632,66.0,30.0,15.0,3.0,0.0
6633,54.0,30.0,30.0,6.0,0.0
6634,75.0,30.0,120.0,2.0,0.0
6635,70.0,0.0,30.0,4.0,0.0
6636,61.0,0.0,60.0,1.0,0.0
6637,66.0,0.0,30.0,5.0,0.0
6638,70.0,30.0,30.0,3.0,0.0
6639,61.0,0.0,60.0,1.0,0.0
6640,54.0,0.0,30.0,6.0,0.0
6641,70.0,0.0,30.0,4.0,0.0
6642,66.0,30.0,30.0,5.0,0.0
6643,70.0,0.0,30.0,3.0,0.0
6644,54.0,30.0,90.0,6.0,0.0
6645,69.0,30.0,60.0,4.0,0.0
6646,75.0,30.0,30.0,3.0,0.0
6647,66.0,0.0,90.0,5.0,0.0
6648,61.0,0.0,120.0,1.0,0.0
6649,87.0,0.0,30.0,2.0,0.0
6650,75.0,0.0,15.0,3.0,0.0
6651,70.0,0.0,30.0,4.0,0.0
6652,75.0,30.0,30.0,3.0,0.0
6653,70.0,0.0,30.0,4.0,0.0
6654,54.0,0.0,120.0,5.0,0.0
6655,61.0,0.0,60.0,1.0,0.0
6656,42.0,0.0,120.0,6.0,0.0
6657,87.0,0.0,30.0,2.0,0.0
6658,78.0,30.0,15.0,3.0,0.0
6659,87.0,0.0,30.0,2.0,0.0
6660,70.0,30.0,30.0,4.0,0.0
6661,78.0,0.0,15.0,3.0,0.0
6662,61.0,30.0,15.0,1.0,0.0
6663,86.0,30.0,60.0,2.0,0.0
6664,69.0,0.0,60.0,4.0,0.0
6665,82.0,30.0,15.0,3.0,0.0
6666,70.0,30.0,30.0,4.0,0.0
6667,66.0,0.0,30.0,5.0,0.0
6668,87.0,0.0,30.0,2.0,0.0
6669,54.0,0.0,30.0,6.0,0.0
6670,82.0,0.0,30.0,3.0,0.0
6671,82.0,30.0,30.0,3.0,0.0
6672,87.0,30.0,30.0,2.0,0.0
6673,70.0,0.0,30.0,4.0,0.0
6674,49.0,30.0,120.0,1.0,0.0
6675,66.0,0.0,30.0,5.0,0.0
6676,78.0,0.0,30.0,3.0,0.0
6677,54.0,0.0,30.0,6.0,0.0
6678,78.0,30.0,30.0,3.0,0.0
6679,66.0,0.0,30.0,5.0,0.0
6680,87.0,0.0,30.0,2.0,0.0
6681,70.0,30.0,30.0,4.0,0.0
6682,54.0,0.0,30.0,6.0,0.0
6683,78.0,0.0,30.0,3.0,0.0
6684,78.0,0.0,30.0,3.0,0.0
6685,53.0,0.0,60.0,6.0,0.0
6686,86.0,0.0,60.0,2.0,0.0
6687,70.0,0.0,90.0,4.0,0.0
6688,75.0,30.0,30.0,3.0,0.0
6689,65.0,30.0,60.0,5.0,0.0
6690,75.0,0.0,15.0,3.0,0.0
6691,87.0,30.0,30.0,2.0,0.0
6692,66.0,0.0,30.0,5.0,0.0
6693,61.0,30.0,60.0,1.0,0.0
6694,54.0,0.0,30.0,6.0,0.0
6695,75.0,0.0,15.0,3.0,0.0
6696,61.0,30.0,60.0,1.0,0.0
6697,58.0,0.0,120.0,4.0,0.0
6698,54.0,30.0,30.0,6.0,0.0
6699,87.0,0.0,30.0,2.0,0.0
6700,66.0,0.0,30.0,5.0,0.0
6701,70.0,0.0,15.0,3.0,0.0
6702,70.0,0.0,15.0,3.0,0.0
6703,66.0,30.0,30.0,5.0,0.0
6704,54.0,0.0,30.0,6.0,0.0
6705,87.0,0.0,30.0,2.0,0.0
6706,70.0,0.0,15.0,3.0,0.0
6707,67.0,0.0,60.0,5.0,0.0
6708,55.0,0.0,60.0,6.0,0.0
6709,89.0,0.0,90.0,2.0,0.0
6710,89.0,60.0,960.0,0.0,0.0
6711,61.0,30.0,15.0,1.0,0.0
6712,68.0,30.0,15.0,3.0,0.0
6713,56.0,0.0,30.0,6.0,0.0
6714,71.0,30.0,30.0,4.0,0.0
6715,68.0,0.0,30.0,5.0,0.0
6716,68.0,30.0,15.0,3.0,0.0
6717,68.0,30.0,30.0,3.0,0.0
6718,71.0,0.0,30.0,3.0,0.0
6719,77.0,30.0,120.0,2.0,0.0
6720,56.0,30.0,30.0,6.0,0.0
6721,68.0,0.0,30.0,5.0,0.0
6722,61.0,30.0,15.0,1.0,0.0
6723,56.0,0.0,30.0,6.0,0.0
6724,68.0,0.0,30.0,5.0,0.0
6725,71.0,0.0,15.0,3.0,0.0
6726,71.0,30.0,15.0,3.0,0.0
6727,70.0,30.0,60.0,4.0,0.0
6728,56.0,0.0,90.0,6.0,0.0
6729,68.0,0.0,90.0,5.0,0.0
6730,77.0,30.0,15.0,3.0,0.0
6731,77.0,0.0,30.0,3.0,0.0
6732,71.0,0.0,30.0,4.0,0.0
6733,89.0,30.0,30.0,2.0,0.0
6734,77.0,0.0,30.0,3.0,0.0
6735,71.0,30.0,30.0,4.0,0.0
6736,89.0,0.0,30.0,2.0,0.0
6737,61.0,30.0,15.0,1.0,0.0
6738,56.0,0.0,120.0,5.0,0.0
6739,44.0,0.0,120.0,6.0,0.0
6740,80.0,0.0,15.0,3.0,0.0
6741,89.0,0.0,30.0,2.0,0.0
6742,80.0,0.0,15.0,3.0,0.0
6743,61.0,30.0,15.0,1.0,0.0
6744,71.0,30.0,30.0,4.0,0.0
6745,80.0,0.0,15.0,3.0,0.0
6746,70.0,0.0,60.0,4.0,0.0
6747,61.0,0.0,120.0,1.0,0.0
6748,88.0,30.0,60.0,2.0,0.0
6749,83.0,30.0,15.0,3.0,0.0
6750,83.0,0.0,15.0,3.0,0.0
6751,68.0,0.0,30.0,5.0,0.0
6752,56.0,0.0,30.0,6.0,0.0
6753,71.0,0.0,30.0,4.0,0.0
6754,89.0,0.0,30.0,2.0,0.0
6755,83.0,30.0,15.0,3.0,0.0
6756,56.0,0.0,30.0,6.0,0.0
6757,80.0,0.0,30.0,3.0,0.0
6758,68.0,0.0,30.0,5.0,0.0
6759,89.0,0.0,30.0,2.0,0.0
6760,49.0,0.0,120.0,1.0,0.0
6761,71.0,30.0,30.0,4.0,0.0
6762,80.0,30.0,30.0,3.0,0.0
6763,68.0,0.0,30.0,5.0,0.0
6764,56.0,0.0,30.0,6.0,0.0
6765,89.0,0.0,30.0,2.0,0.0
6766,71.0,0.0,30.0,4.0,0.0
6767,80.0,30.0,15.0,3.0,0.0
6768,88.0,0.0,60.0,2.0,0.0
6769,67.0,0.0,60.0,5.0,0.0
6770,55.0,0.0,60.0,6.0,0.0
6771,71.0,0.0,90.0,4.0,0.0
6772,77.0,30.0,15.0,3.0,0.0
6773,68.0,0.0,30.0,5.0,0.0
6774,56.0,0.0,30.0,6.0,0.0
6775,89.0,30.0,30.0,2.0,0.0
6776,77.0,0.0,30.0,3.0,0.0
6777,77.0,30.0,30.0,3.0,0.0
6778,59.0,0.0,120.0,4.0,0.0
6779,61.0,0.0,15.0,1.0,0.0
6780,56.0,0.0,30.0,6.0,0.0
6781,89.0,0.0,30.0,2.0,0.0
6782,68.0,0.0,30.0,5.0,0.0
6783,71.0,30.0,15.0,3.0,0.0
6784,61.0,0.0,60.0,1.0,0.0
6785,71.0,0.0,30.0,3.0,0.0
6786,68.0,30.0,30.0,5.0,0.0
6787,56.0,0.0,30.0,6.0,0.0
6788,89.0,0.0,30.0,2.0,0.0
6789,71.0,0.0,30.0,3.0,0.0
6790,89.0,30.0,60.0,2.0,0.0
6791,69.0,0.0,60.0,4.0,0.0
6792,57.0,0.0,60.0,6.0,0.0
6793,61.0,30.0,120.0,1.0,0.0
6794,72.0,0.0,60.0,3.0,0.0
6795,70.0,0.0,30.0,4.0,0.0
6796,58.0,0.0,30.0,6.0,0.0
6797,90.0,0.0,30.0,2.0,0.0
6798,73.0,30.0,30.0,3.0,0.0
6799,58.0,0.0,30.0,6.0,0.0
6800,73.0,0.0,30.0,3.0,0.0
6801,70.0,0.0,30.0,4.0,0.0
6802,90.0,60.0,30.0,2.0,0.0
6803,73.0,0.0,30.0,3.0,0.0
6804,90.0,0.0,30.0,2.0,0.0
6805,58.0,90.0,30.0,6.0,0.0
6806,70.0,0.0,30.0,4.0,0.0
6807,88.0,0.0,60.0,2.0,0.0
6808,70.0,0.0,60.0,3.0,0.0
6809,67.0,30.0,60.0,4.0,0.0
6810,55.0,0.0,60.0,6.0,0.0
6811,56.0,60.0,30.0,6.0,0.0
6812,72.0,0.0,30.0,3.0,0.0
6813,89.0,0.0,30.0,2.0,0.0
6814,68.0,0.0,30.0,4.0,0.0
6815,72.0,0.0,30.0,3.0,0.0
6816,89.0,0.0,30.0,2.0,0.0
6817,56.0,60.0,30.0,6.0,0.0
6818,68.0,0.0,30.0,4.0,0.0
6819,56.0,0.0,30.0,6.0,0.0
6820,72.0,90.0,30.0,3.0,0.0
6821,89.0,0.0,30.0,2.0,0.0
6822,68.0,0.0,30.0,4.0,0.0
6823,53.0,30.0,60.0,6.0,0.0
6824,68.0,0.0,60.0,3.0,0.0
6825,65.0,0.0,60.0,4.0,0.0
6826,86.0,0.0,60.0,2.0,0.0
6827,66.0,60.0,30.0,4.0,0.0
6828,70.0,0.0,30.0,3.0,0.0
6829,54.0,0.0,30.0,6.0,0.0
6830,87.0,0.0,30.0,2.0,0.0
6831,87.0,0.0,30.0,2.0,0.0
6832,66.0,60.0,30.0,4.0,0.0
6833,54.0,0.0,30.0,6.0,0.0
6834,70.0,0.0,30.0,3.0,0.0
6835,70.0,0.0,30.0,3.0,0.0
6836,54.0,0.0,30.0,6.0,0.0
6837,66.0,90.0,30.0,4.0,0.0
6838,87.0,0.0,30.0,2.0,0.0
6839,63.0,0.0,60.0,4.0,0.0
6840,66.0,30.0,60.0,3.0,0.0
6841,51.0,0.0,60.0,6.0,0.0
6842,84.0,0.0,60.0,2.0,0.0
6843,65.0,0.0,30.0,4.0,0.0
6844,85.0,0.0,30.0,2.0,0.0
6845,53.0,0.0,30.0,6.0,0.0
6846,68.0,60.0,30.0,3.0,0.0
6847,65.0,0.0,30.0,4.0,0.0
6848,68.0,0.0,30.0,3.0,0.0
6849,85.0,0.0,30.0,2.0,0.0
6850,53.0,60.0,30.0,6.0,0.0
6851,53.0,0.0,30.0,6.0,0.0
6852,68.0,60.0,30.0,3.0,0.0
6853,85.0,0.0,30.0,2.0,0.0
6854,65.0,0.0,30.0,4.0,0.0
6855,87.0,30.0,120.0,0.0,0.0
6856,82.0,0.0,120.0,0.0,0.0
6857,70.0,0.0,30.0,3.0,0.0
6858,54.0,0.0,120.0,6.0,0.0
6859,66.0,30.0,15.0,4.0,0.0
6860,87.0,0.0,15.0,2.0,0.0
6861,70.0,0.0,30.0,3.0,0.0
6862,87.0,0.0,15.0,2.0,0.0
6863,70.0,0.0,30.0,3.0,0.0
6864,66.0,30.0,15.0,4.0,0.0
6865,87.0,0.0,15.0,2.0,0.0
6866,70.0,0.0,30.0,3.0,0.0
6867,66.0,0.0,30.0,4.0,0.0
6868,68.0,0.0,30.0,3.0,0.0
6869,53.0,0.0,120.0,6.0,0.0
6870,85.0,0.0,30.0,2.0,0.0
6871,85.0,0.0,120.0,0.0,0.0
6872,80.0,0.0,120.0,0.0,0.0
6873,65.0,30.0,30.0,4.0,0.0
6874,85.0,30.0,30.0,2.0,0.0
6875,68.0,0.0,30.0,3.0,0.0
6876,65.0,0.0,30.0,4.0,0.0
6877,65.0,30.0,30.0,4.0,0.0
6878,85.0,0.0,30.0,2.0,0.0
6879,68.0,0.0,15.0,3.0,0.0
6880,65.0,0.0,30.0,4.0,0.0
6881,78.0,0.0,120.0,0.0,0.0
6882,51.0,0.0,120.0,6.0,0.0
6883,84.0,0.0,120.0,0.0,0.0
6884,66.0,0.0,30.0,3.0,0.0
6885,85.0,30.0,15.0,2.0,0.0
6886,63.0,30.0,15.0,4.0,0.0
6887,66.0,0.0,15.0,3.0,0.0
6888,63.0,0.0,30.0,4.0,0.0
6889,84.0,30.0,15.0,2.0,0.0
6890,66.0,0.0,15.0,3.0,0.0
6891,84.0,30.0,15.0,2.0,0.0
6892,63.0,30.0,30.0,4.0,0.0
6893,49.0,0.0,120.0,6.0,0.0
6894,82.0,0.0,120.0,0.0,0.0
6895,77.0,0.0,120.0,0.0,0.0
6896,65.0,0.0,30.0,3.0,0.0
6897,65.0,30.0,30.0,3.0,0.0
6898,82.0,0.0,15.0,2.0,0.0
6899,61.0,30.0,15.0,4.0,0.0
6900,61.0,30.0,30.0,4.0,0.0
6901,65.0,0.0,30.0,3.0,0.0
6902,82.0,0.0,15.0,2.0,0.0
6903,65.0,30.0,30.0,3.0,0.0
6904,61.0,0.0,30.0,4.0,0.0
6905,60.0,0.0,30.0,4.0,0.0
6906,80.0,30.0,120.0,0.0,0.0
6907,75.0,0.0,120.0,0.0,0.0
6908,80.0,30.0,30.0,2.0,0.0
6909,48.0,0.0,120.0,6.0,0.0
6910,63.0,0.0,15.0,3.0,0.0
6911,60.0,0.0,30.0,4.0,0.0
6912,63.0,0.0,15.0,3.0,0.0
6913,60.0,0.0,30.0,4.0,0.0
6914,80.0,30.0,15.0,2.0,0.0
6915,80.0,30.0,15.0,2.0,0.0
6916,63.0,0.0,15.0,3.0,0.0
6917,60.0,0.0,30.0,4.0,0.0
6918,61.0,0.0,30.0,3.0,0.0
6919,46.0,0.0,120.0,6.0,0.0
6920,73.0,0.0,120.0,0.0,0.0
6921,78.0,0.0,120.0,0.0,0.0
6922,58.0,0.0,15.0,4.0,0.0
6923,78.0,30.0,15.0,2.0,0.0
6924,61.0,0.0,15.0,3.0,0.0
6925,78.0,0.0,15.0,2.0,0.0
6926,58.0,0.0,30.0,4.0,0.0
6927,61.0,0.0,30.0,3.0,0.0
6928,58.0,30.0,30.0,4.0,0.0
6929,78.0,0.0,30.0,2.0,0.0
6930,60.0,30.0,30.0,3.0,0.0
6931,72.0,0.0,120.0,0.0,0.0
6932,77.0,30.0,120.0,0.0,0.0
6933,44.0,0.0,120.0,6.0,0.0
6934,56.0,0.0,15.0,4.0,0.0
6935,77.0,0.0,15.0,2.0,0.0
6936,60.0,30.0,30.0,3.0,0.0
6937,56.0,0.0,15.0,4.0,0.0
6938,77.0,0.0,15.0,2.0,0.0
6939,56.0,0.0,15.0,4.0,0.0
6940,60.0,30.0,15.0,3.0,0.0
6941,77.0,0.0,30.0,2.0,0.0
6942,54.0,0.0,30.0,4.0,0.0
6943,70.0,0.0,120.0,0.0,0.0
6944,75.0,0.0,120.0,0.0,0.0
6945,42.0,60.0,120.0,6.0,0.0
6946,75.0,0.0,15.0,2.0,0.0
6947,70.0,30.0,15.0,3.0,0.0
6948,75.0,0.0,15.0,2.0,0.0
6949,70.0,0.0,30.0,3.0,0.0
6950,54.0,30.0,15.0,4.0,0.0
6951,54.0,0.0,15.0,4.0,0.0
6952,75.0,0.0,30.0,2.0,0.0
6953,70.0,0.0,30.0,3.0,0.0
6954,68.0,0.0,60.0,3.0,0.0
6955,68.0,0.0,60.0,0.0,0.0
6956,73.0,180.0,60.0,0.0,0.0
6957,73.0,0.0,60.0,2.0,0.0
6958,53.0,0.0,60.0,4.0,0.0
6959,41.0,0.0,60.0,6.0,0.0
6960,77.0,0.0,120.0,3.0,0.0
6961,70.0,0.0,120.0,4.0,0.0
6962,85.0,0.0,120.0,2.0,0.0
6963,49.0,0.0,120.0,1.0,0.0
6964,85.0,0.0,120.0,0.0,0.0
6965,46.0,0.0,120.0,6.0,0.0
6966,58.0,120.0,120.0,5.0,0.0
6967,77.0,0.0,120.0,0.0,0.0
6968,54.0,0.0,120.0,5.0,0.0
6969,42.0,0.0,120.0,6.0,0.0
6970,78.0,120.0,120.0,3.0,0.0
6971,61.0,0.0,15.0,1.0,0.0
6972,70.0,0.0,120.0,4.0,0.0
6973,87.0,0.0,120.0,2.0,0.0
6974,87.0,0.0,120.0,0.0,0.0
6975,78.0,0.0,120.0,0.0,0.0
6976,49.0,0.0,120.0,1.0,0.0
6977,56.0,0.0,120.0,1.0,0.0
6978,56.0,0.0,120.0,5.0,0.0
6979,44.0,0.0,120.0,6.0,0.0
6980,68.0,0.0,120.0,4.0,0.0
6981,84.0,0.0,120.0,2.0,0.0
6982,75.0,120.0,120.0,3.0,0.0
6983,75.0,0.0,120.0,0.0,0.0
6984,84.0,0.0,120.0,0.0,0.0
6985,53.0,120.0,120.0,1.0,0.0
6986,85.0,0.0,120.0,2.0,0.0
6987,68.0,0.0,120.0,4.0,0.0
6988,53.0,0.0,120.0,5.0,0.0
6989,49.0,0.0,120.0,1.0,0.0
6990,80.0,0.0,120.0,3.0,0.0
6991,85.0,0.0,120.0,0.0,0.0
6992,73.0,0.0,120.0,3.0,0.0
6993,80.0,0.0,120.0,0.0,0.0
6994,41.0,0.0,120.0,6.0,0.0
6995,61.0,0.0,120.0,1.0,0.0
6996,89.0,0.0,120.0,0.0,0.0
6997,85.0,0.0,120.0,3.0,0.0
6998,65.0,0.0,120.0,1.0,0.0
6999,58.0,120.0,120.0,5.0,0.0
7000,89.0,0.0,120.0,2.0,0.0
7001,70.0,0.0,120.0,4.0,0.0
7002,46.0,0.0,120.0,6.0,0.0
7003,85.0,0.0,120.0,0.0,0.0
7004,90.0,0.0,120.0,2.0,0.0
7005,87.0,0.0,120.0,3.0,0.0
7006,70.0,0.0,120.0,4.0,0.0
7007,42.0,0.0,120.0,6.0,0.0
7008,63.0,0.0,120.0,1.0,0.0
7009,66.0,0.0,120.0,1.0,0.0
7010,54.0,0.0,120.0,5.0,0.0
7011,90.0,0.0,120.0,0.0,0.0
7012,56.0,0.0,120.0,1.0,0.0
7013,56.0,60.0,120.0,5.0,0.0
7014,87.0,0.0,120.0,2.0,0.0
7015,84.0,0.0,120.0,3.0,0.0
7016,84.0,0.0,120.0,0.0,0.0
7017,87.0,120.0,15.0,0.0,0.0
7018,44.0,0.0,120.0,6.0,0.0
7019,63.0,0.0,120.0,1.0,0.0
7020,85.0,0.0,60.0,2.0,0.0
7021,37.0,60.0,60.0,6.0,0.0
7022,85.0,60.0,120.0,0.0,0.0
7023,68.0,0.0,15.0,4.0,0.0
7024,53.0,0.0,120.0,1.0,0.0
7025,61.0,0.0,120.0,1.0,0.0
7026,49.0,0.0,60.0,5.0,0.0
7027,68.0,0.0,60.0,2.0,0.0
7028,56.0,0.0,60.0,5.0,0.0
7029,44.0,0.0,60.0,6.0,0.0
7030,58.0,60.0,60.0,5.0,0.0
7031,70.0,0.0,60.0,2.0,0.0
7032,46.0,0.0,60.0,6.0,0.0
7033,60.0,0.0,60.0,5.0,0.0
7034,48.0,0.0,60.0,6.0,0.0
7035,72.0,60.0,60.0,2.0,0.0
7036,73.0,0.0,60.0,2.0,0.0
7037,49.0,60.0,60.0,6.0,0.0
7038,61.0,0.0,60.0,5.0,0.0
7039,65.0,0.0,60.0,2.0,0.0
7040,41.0,0.0,60.0,6.0,0.0
7041,53.0,60.0,60.0,5.0,0.0
7042,54.0,0.0,60.0,5.0,0.0
7043,42.0,0.0,60.0,6.0,0.0
7044,66.0,60.0,60.0,2.0,0.0
7045,44.0,0.0,60.0,6.0,0.0
7046,68.0,0.0,60.0,2.0,0.0
7047,56.0,60.0,60.0,5.0,0.0
7048,70.0,0.0,60.0,2.0,0.0
7049,58.0,60.0,60.0,5.0,0.0
7050,46.0,0.0,60.0,6.0,0.0
7051,63.0,0.0,60.0,2.0,0.0
7052,51.0,60.0,60.0,5.0,0.0
7053,39.0,0.0,60.0,6.0,0.0
7054,53.0,60.0,60.0,5.0,0.0
7055,41.0,0.0,60.0,6.0,0.0
7056,65.0,0.0,60.0,2.0,0.0
7057,42.0,0.0,60.0,6.0,0.0
7058,66.0,0.0,60.0,2.0,0.0
7059,54.0,60.0,60.0,5.0,0.0
7060,44.0,60.0,60.0,6.0,0.0
7061,68.0,0.0,60.0,2.0,0.0
7062,56.0,0.0,60.0,5.0,0.0
7063,42.0,60.0,60.0,6.0,0.0
7064,54.0,0.0,60.0,5.0,0.0
7065,66.0,0.0,60.0,4.0,0.0
7066,65.0,60.0,60.0,4.0,0.0
7067,41.0,0.0,60.0,6.0,0.0
7068,56.0,0.0,120.0,1.0,0.0
7069,63.0,0.0,120.0,1.0,0.0
7070,75.0,0.0,120.0,0.0,0.0
7071,84.0,0.0,120.0,0.0,0.0
7072,75.0,0.0,120.0,3.0,0.0
7073,53.0,0.0,60.0,5.0,0.0
7074,84.0,60.0,120.0,2.0,0.0
7075,63.0,0.0,60.0,4.0,0.0
7076,39.0,0.0,60.0,6.0,0.0
7077,51.0,0.0,60.0,5.0,0.0
7078,65.0,60.0,120.0,1.0,0.0
7079,85.0,0.0,120.0,0.0,0.0
7080,77.0,0.0,120.0,0.0,0.0
7081,61.0,0.0,120.0,1.0,0.0
7082,49.0,60.0,60.0,5.0,0.0
7083,37.0,0.0,60.0,6.0,0.0
7084,68.0,0.0,15.0,3.0,0.0
7085,61.0,0.0,60.0,4.0,0.0
7086,85.0,0.0,60.0,2.0,0.0
7087,77.0,0.0,60.0,3.0,0.0
7088,68.0,0.0,60.0,2.0,0.0
7089,56.0,0.0,60.0,5.0,0.0
7090,44.0,0.0,60.0,6.0,0.0
7091,70.0,0.0,60.0,2.0,0.0
7092,58.0,60.0,60.0,5.0,0.0
7093,46.0,0.0,60.0,6.0,0.0
7094,60.0,0.0,60.0,5.0,0.0
7095,72.0,60.0,60.0,2.0,0.0
7096,48.0,0.0,60.0,6.0,0.0
7097,49.0,0.0,60.0,6.0,0.0
7098,61.0,60.0,60.0,5.0,0.0
7099,73.0,0.0,60.0,2.0,0.0
7100,65.0,0.0,60.0,2.0,0.0
7101,41.0,0.0,60.0,6.0,0.0
7102,53.0,60.0,60.0,5.0,0.0
7103,66.0,60.0,60.0,2.0,0.0
7104,42.0,0.0,60.0,6.0,0.0
7105,54.0,0.0,60.0,5.0,0.0
7106,44.0,0.0,60.0,6.0,0.0
7107,56.0,60.0,60.0,5.0,0.0
7108,68.0,0.0,60.0,2.0,0.0
7109,70.0,0.0,60.0,2.0,0.0
7110,46.0,0.0,60.0,6.0,0.0
7111,58.0,60.0,60.0,5.0,0.0
7112,63.0,60.0,60.0,2.0,0.0
7113,39.0,0.0,60.0,6.0,0.0
7114,51.0,0.0,60.0,5.0,0.0
7115,53.0,60.0,60.0,5.0,0.0
7116,41.0,0.0,60.0,6.0,0.0
7117,65.0,0.0,60.0,2.0,0.0
7118,42.0,0.0,60.0,6.0,0.0
7119,66.0,0.0,60.0,2.0,0.0
7120,54.0,60.0,60.0,5.0,0.0
7121,68.0,0.0,60.0,2.0,0.0
7122,44.0,0.0,60.0,6.0,0.0
7123,56.0,60.0,60.0,5.0,0.0
7124,66.0,60.0,60.0,4.0,0.0
7125,42.0,0.0,60.0,6.0,0.0
7126,54.0,0.0,60.0,5.0,0.0
7127,75.0,0.0,120.0,0.0,0.0
7128,56.0,0.0,120.0,1.0,0.0
7129,53.0,0.0,60.0,5.0,0.0
7130,84.0,0.0,120.0,0.0,0.0
7131,75.0,0.0,120.0,3.0,0.0
7132,65.0,0.0,60.0,4.0,0.0
7133,84.0,0.0,120.0,2.0,0.0
7134,41.0,60.0,60.0,6.0,0.0
7135,63.0,0.0,120.0,1.0,0.0
7136,39.0,0.0,60.0,6.0,0.0
7137,51.0,0.0,60.0,5.0,0.0
7138,63.0,0.0,60.0,4.0,0.0
7139,49.0,0.0,120.0,5.0,0.0
7140,77.0,150.0,120.0,0.0,0.0
7141,85.0,0.0,120.0,0.0,0.0
7142,77.0,0.0,120.0,3.0,0.0
7143,68.0,120.0,15.0,3.0,0.0
7144,85.0,0.0,120.0,2.0,0.0
7145,53.0,0.0,120.0,1.0,0.0
7146,61.0,0.0,120.0,1.0,0.0
7147,37.0,0.0,120.0,6.0,0.0
7148,61.0,0.0,120.0,4.0,0.0
7149,73.0,0.0,360.0,0.0,0.0
7150,49.0,0.0,120.0,5.0,0.0
7151,61.0,30.0,30.0,2.0,0.0
7152,49.0,720.0,360.0,1.0,0.0
7153,37.0,30.0,120.0,6.0,0.0
7154,61.0,30.0,15.0,2.0,0.0
7155,61.0,0.0,30.0,2.0,0.0
7156,61.0,30.0,15.0,2.0,0.0
7157,61.0,30.0,15.0,2.0,0.0
7158,49.0,0.0,15.0,5.0,0.0
7159,37.0,0.0,15.0,6.0,0.0
7160,61.0,120.0,15.0,2.0,0.0
