,note,step,duration,channel,velocity
0,88.0,29.0,30.0,12.0,0.0
1,64.0,1.0,30.0,13.0,0.0
2,63.0,30.0,30.0,13.0,0.0
3,64.0,30.0,30.0,13.0,0.0
4,88.0,16.0,60.0,12.0,0.0
5,66.0,0.0,30.0,13.0,0.0
6,68.0,30.0,15.0,13.0,0.0
7,52.0,15.0,120.0,15.0,0.0
8,83.0,16.0,60.0,12.0,0.0
9,64.0,14.0,15.0,13.0,0.0
10,83.0,1.0,60.0,12.0,0.0
11,68.0,30.0,15.0,13.0,0.0
12,64.0,14.0,15.0,13.0,0.0
13,71.0,30.0,15.0,13.0,0.0
14,85.0,16.0,60.0,12.0,0.0
15,64.0,15.0,120.0,14.0,0.0
16,64.0,14.0,15.0,13.0,0.0
17,85.0,1.0,60.0,12.0,0.0
18,71.0,30.0,15.0,13.0,0.0
19,64.0,14.0,15.0,13.0,0.0
20,80.0,16.0,60.0,12.0,0.0
21,64.0,0.0,120.0,14.0,0.0
22,52.0,15.0,120.0,15.0,0.0
23,73.0,30.0,15.0,13.0,0.0
24,64.0,14.0,15.0,13.0,0.0
25,73.0,30.0,15.0,13.0,0.0
26,80.0,1.0,60.0,12.0,0.0
27,64.0,14.0,15.0,13.0,0.0
28,81.0,16.0,60.0,12.0,0.0
29,75.0,30.0,15.0,13.0,0.0
30,64.0,14.0,15.0,13.0,0.0
31,75.0,30.0,15.0,13.0,0.0
32,81.0,30.0,60.0,12.0,0.0
33,64.0,14.0,15.0,13.0,0.0
34,64.0,29.0,120.0,14.0,0.0
35,52.0,0.0,120.0,15.0,0.0
36,83.0,30.0,30.0,12.0,0.0
37,68.0,0.0,30.0,13.0,0.0
38,64.0,0.0,30.0,13.0,0.0
39,80.0,30.0,30.0,12.0,0.0
40,68.0,0.0,30.0,13.0,0.0
41,83.0,30.0,30.0,12.0,0.0
42,64.0,0.0,30.0,13.0,0.0
43,80.0,1.0,30.0,12.0,0.0
44,64.0,0.0,120.0,15.0,0.0
45,76.0,0.0,240.0,14.0,0.0
46,69.0,0.0,30.0,13.0,0.0
47,85.0,30.0,30.0,12.0,0.0
48,83.0,30.0,30.0,12.0,0.0
49,68.0,0.0,30.0,13.0,0.0
50,66.0,0.0,30.0,13.0,0.0
51,81.0,30.0,30.0,12.0,0.0
52,80.0,0.0,30.0,12.0,0.0
53,64.0,30.0,30.0,13.0,0.0
54,62.0,30.0,30.0,13.0,0.0
55,77.0,0.0,30.0,12.0,0.0
56,59.0,30.0,120.0,15.0,0.0
57,78.0,0.0,30.0,12.0,0.0
58,63.0,60.0,30.0,13.0,0.0
59,78.0,0.0,60.0,12.0,0.0
60,63.0,0.0,60.0,13.0,0.0
61,71.0,15.0,120.0,14.0,0.0
62,88.0,29.0,30.0,12.0,0.0
63,64.0,1.0,30.0,13.0,0.0
64,63.0,30.0,30.0,13.0,0.0
65,61.0,30.0,30.0,13.0,0.0
66,88.0,0.0,60.0,12.0,0.0
67,63.0,1.0,30.0,13.0,0.0
68,83.0,16.0,60.0,12.0,0.0
69,52.0,15.0,120.0,15.0,0.0
70,68.0,30.0,15.0,13.0,0.0
71,64.0,14.0,15.0,13.0,0.0
72,83.0,1.0,60.0,12.0,0.0
73,68.0,30.0,15.0,13.0,0.0
74,64.0,14.0,15.0,13.0,0.0
75,85.0,16.0,60.0,12.0,0.0
76,69.0,30.0,15.0,13.0,0.0
77,64.0,15.0,120.0,14.0,0.0
78,64.0,14.0,15.0,13.0,0.0
79,69.0,30.0,15.0,13.0,0.0
80,85.0,1.0,60.0,12.0,0.0
81,64.0,14.0,15.0,13.0,0.0
82,71.0,30.0,15.0,13.0,0.0
83,52.0,15.0,120.0,15.0,0.0
84,80.0,16.0,60.0,12.0,0.0
85,64.0,14.0,15.0,13.0,0.0
86,80.0,1.0,60.0,12.0,0.0
87,71.0,30.0,15.0,13.0,0.0
88,64.0,14.0,15.0,13.0,0.0
89,81.0,16.0,60.0,12.0,0.0
90,73.0,30.0,15.0,13.0,0.0
91,64.0,29.0,120.0,14.0,0.0
92,64.0,14.0,15.0,13.0,0.0
93,73.0,30.0,15.0,13.0,0.0
94,81.0,1.0,60.0,12.0,0.0
95,64.0,14.0,15.0,13.0,0.0
96,83.0,0.0,30.0,12.0,0.0
97,64.0,0.0,60.0,14.0,0.0
98,52.0,30.0,60.0,15.0,0.0
99,68.0,30.0,30.0,13.0,0.0
100,64.0,0.0,30.0,13.0,0.0
101,80.0,0.0,30.0,12.0,0.0
102,57.0,0.0,60.0,15.0,0.0
103,85.0,30.0,30.0,12.0,0.0
104,69.0,60.0,60.0,14.0,0.0
105,69.0,0.0,30.0,13.0,0.0
106,81.0,0.0,30.0,12.0,0.0
107,66.0,0.0,30.0,13.0,0.0
108,59.0,0.0,60.0,15.0,0.0
109,80.0,60.0,60.0,12.0,0.0
110,71.0,0.0,60.0,14.0,0.0
111,64.0,0.0,60.0,13.0,0.0
112,78.0,0.0,60.0,12.0,0.0
113,59.0,0.0,60.0,14.0,0.0
114,63.0,0.0,60.0,13.0,0.0
115,47.0,120.0,60.0,15.0,0.0
116,64.0,0.0,120.0,14.0,0.0
117,52.0,0.0,120.0,15.0,0.0
118,64.0,0.0,120.0,13.0,0.0
119,76.0,31.0,120.0,12.0,0.0
120,88.0,0.0,30.0,3.0,0.0
121,76.0,0.0,30.0,6.0,0.0
122,71.0,0.0,30.0,6.0,0.0
123,76.0,60.0,30.0,7.0,0.0
124,68.0,0.0,30.0,7.0,0.0
125,68.0,119.0,30.0,7.0,0.0
126,76.0,0.0,30.0,7.0,0.0
127,76.0,0.0,30.0,6.0,0.0
128,71.0,0.0,30.0,6.0,0.0
129,88.0,0.0,30.0,3.0,0.0
130,88.0,30.0,90.0,3.0,0.0
131,76.0,0.0,90.0,7.0,0.0
132,68.0,0.0,90.0,7.0,0.0
133,76.0,0.0,90.0,6.0,0.0
134,71.0,0.0,90.0,6.0,0.0
135,75.0,0.0,30.0,6.0,0.0
136,78.0,0.0,30.0,7.0,0.0
137,71.0,0.0,30.0,7.0,0.0
138,90.0,0.0,30.0,3.0,0.0
139,78.0,60.0,30.0,6.0,0.0
140,92.0,60.0,60.0,3.0,0.0
141,76.0,0.0,60.0,6.0,0.0
142,76.0,0.0,60.0,7.0,0.0
143,80.0,0.0,60.0,6.0,0.0
144,80.0,0.0,60.0,7.0,0.0
145,81.0,0.0,60.0,6.0,0.0
146,93.0,0.0,60.0,3.0,0.0
147,78.0,0.0,60.0,7.0,0.0
148,81.0,0.0,60.0,7.0,0.0
149,78.0,60.0,60.0,6.0,0.0
150,71.0,0.0,60.0,7.0,0.0
151,78.0,60.0,60.0,7.0,0.0
152,78.0,0.0,60.0,1.0,0.0
153,71.0,0.0,60.0,1.0,0.0
154,47.0,0.0,60.0,4.0,0.0
155,75.0,0.0,60.0,6.0,0.0
156,78.0,0.0,60.0,6.0,0.0
157,59.0,0.0,60.0,0.0,0.0
158,90.0,0.0,60.0,3.0,0.0
159,47.0,0.0,60.0,4.0,0.0
160,47.0,0.0,60.0,0.0,0.0
161,78.0,31.0,60.0,1.0,0.0
162,71.0,0.0,60.0,1.0,0.0
163,71.0,0.0,30.0,7.0,0.0
164,90.0,60.0,30.0,3.0,0.0
165,75.0,0.0,30.0,6.0,0.0
166,78.0,0.0,30.0,6.0,0.0
167,78.0,0.0,30.0,7.0,0.0
168,71.0,0.0,30.0,7.0,0.0
169,78.0,0.0,30.0,7.0,0.0
170,90.0,119.0,30.0,3.0,0.0
171,78.0,0.0,30.0,6.0,0.0
172,75.0,0.0,30.0,6.0,0.0
173,75.0,0.0,90.0,6.0,0.0
174,78.0,0.0,90.0,6.0,0.0
175,90.0,30.0,90.0,3.0,0.0
176,71.0,0.0,90.0,7.0,0.0
177,78.0,0.0,90.0,7.0,0.0
178,76.0,0.0,30.0,6.0,0.0
179,92.0,60.0,30.0,3.0,0.0
180,76.0,0.0,30.0,7.0,0.0
181,80.0,0.0,30.0,7.0,0.0
182,80.0,0.0,30.0,6.0,0.0
183,93.0,0.0,60.0,3.0,0.0
184,78.0,0.0,60.0,7.0,0.0
185,78.0,0.0,60.0,6.0,0.0
186,81.0,0.0,60.0,7.0,0.0
187,81.0,60.0,60.0,6.0,0.0
188,71.0,0.0,60.0,7.0,0.0
189,95.0,60.0,60.0,3.0,0.0
190,78.0,0.0,60.0,7.0,0.0
191,83.0,0.0,60.0,6.0,0.0
192,75.0,0.0,60.0,6.0,0.0
193,76.0,60.0,60.0,7.0,0.0
194,80.0,0.0,60.0,7.0,0.0
195,52.0,0.0,60.0,4.0,0.0
196,92.0,0.0,60.0,3.0,0.0
197,76.0,0.0,60.0,1.0,0.0
198,80.0,0.0,60.0,6.0,0.0
199,76.0,0.0,60.0,6.0,0.0
200,64.0,0.0,60.0,0.0,0.0
201,80.0,0.0,60.0,1.0,0.0
202,52.0,0.0,60.0,0.0,0.0
203,76.0,0.0,60.0,1.0,0.0
204,80.0,31.0,60.0,1.0,0.0
205,52.0,0.0,60.0,4.0,0.0
206,88.0,89.0,30.0,12.0,0.0
207,88.0,60.0,60.0,12.0,0.0
208,83.0,60.0,60.0,12.0,0.0
209,83.0,60.0,60.0,12.0,0.0
210,85.0,60.0,60.0,12.0,0.0
211,85.0,60.0,60.0,12.0,0.0
212,80.0,60.0,60.0,12.0,0.0
213,64.0,0.0,240.0,7.0,0.0
214,61.0,0.0,240.0,15.0,0.0
215,76.0,60.0,240.0,7.0,0.0
216,80.0,31.0,60.0,12.0,0.0
217,82.0,0.0,60.0,12.0,0.0
218,64.0,29.0,30.0,14.0,0.0
219,76.0,31.0,60.0,13.0,0.0
220,64.0,29.0,30.0,14.0,0.0
221,82.0,0.0,60.0,12.0,0.0
222,76.0,0.0,60.0,13.0,0.0
223,59.0,29.0,60.0,15.0,0.0
224,83.0,1.0,60.0,12.0,0.0
225,76.0,0.0,90.0,13.0,0.0
226,76.0,0.0,180.0,7.0,0.0
227,80.0,0.0,180.0,7.0,0.0
228,64.0,30.0,90.0,14.0,0.0
229,80.0,0.0,30.0,12.0,0.0
230,78.0,0.0,30.0,13.0,0.0
231,66.0,30.0,30.0,14.0,0.0
232,80.0,0.0,30.0,13.0,0.0
233,68.0,30.0,30.0,14.0,0.0
234,47.0,29.0,60.0,15.0,0.0
235,83.0,1.0,60.0,12.0,0.0
236,81.0,0.0,30.0,13.0,0.0
237,69.0,0.0,30.0,14.0,0.0
238,78.0,0.0,60.0,7.0,0.0
239,71.0,60.0,60.0,7.0,0.0
240,78.0,30.0,30.0,13.0,0.0
241,66.0,0.0,30.0,14.0,0.0
242,75.0,0.0,30.0,12.0,0.0
243,80.0,0.0,30.0,13.0,0.0
244,68.0,0.0,30.0,14.0,0.0
245,52.0,59.0,60.0,15.0,0.0
246,76.0,60.0,120.0,12.0,0.0
247,76.0,0.0,120.0,13.0,0.0
248,76.0,1.0,60.0,7.0,0.0
249,64.0,0.0,120.0,14.0,0.0
250,68.0,0.0,60.0,7.0,0.0
251,64.0,60.0,60.0,15.0,0.0
252,64.0,60.0,60.0,15.0,0.0
253,59.0,60.0,60.0,15.0,0.0
254,59.0,60.0,60.0,15.0,0.0
255,60.0,60.0,60.0,15.0,0.0
256,60.0,60.0,60.0,15.0,0.0
257,64.0,0.0,240.0,7.0,0.0
258,76.0,90.0,240.0,7.0,0.0
259,55.0,60.0,60.0,15.0,0.0
260,55.0,60.0,60.0,15.0,0.0
261,67.0,0.0,60.0,13.0,0.0
262,72.0,60.0,60.0,14.0,0.0
263,57.0,0.0,60.0,15.0,0.0
264,76.0,0.0,60.0,12.0,0.0
265,67.0,0.0,60.0,13.0,0.0
266,76.0,0.0,60.0,12.0,0.0
267,57.0,0.0,60.0,15.0,0.0
268,72.0,0.0,60.0,14.0,0.0
269,71.0,0.0,240.0,7.0,0.0
270,59.0,0.0,240.0,7.0,0.0
271,71.0,30.0,180.0,14.0,0.0
272,76.0,30.0,90.0,12.0,0.0
273,59.0,0.0,240.0,15.0,0.0
274,67.0,0.0,90.0,13.0,0.0
275,78.0,30.0,30.0,12.0,0.0
276,69.0,0.0,30.0,13.0,0.0
277,71.0,0.0,30.0,13.0,0.0
278,79.0,30.0,30.0,12.0,0.0
279,72.0,0.0,30.0,13.0,0.0
280,81.0,0.0,30.0,12.0,0.0
281,78.0,0.0,30.0,12.0,0.0
282,63.0,60.0,60.0,14.0,0.0
283,69.0,30.0,30.0,13.0,0.0
284,79.0,0.0,30.0,12.0,0.0
285,71.0,0.0,30.0,13.0,0.0
286,76.0,0.0,240.0,7.0,0.0
287,64.0,0.0,240.0,7.0,0.0
288,64.0,0.0,120.0,14.0,0.0
289,60.0,0.0,240.0,15.0,0.0
290,76.0,30.0,120.0,12.0,0.0
291,67.0,30.0,330.0,13.0,0.0
292,75.0,0.0,30.0,6.0,0.0
293,63.0,30.0,30.0,0.0,0.0
294,76.0,30.0,30.0,6.0,0.0
295,64.0,0.0,30.0,0.0,0.0
296,78.0,0.0,30.0,6.0,0.0
297,66.0,0.0,30.0,0.0,0.0
298,79.0,30.0,30.0,6.0,0.0
299,76.0,0.0,60.0,12.0,0.0
300,67.0,0.0,30.0,0.0,0.0
301,60.0,0.0,120.0,14.0,0.0
302,80.0,0.0,30.0,6.0,0.0
303,68.0,30.0,30.0,0.0,0.0
304,76.0,90.0,60.0,12.0,0.0
305,81.0,0.0,30.0,6.0,0.0
306,69.0,30.0,30.0,0.0,0.0
307,70.0,0.0,30.0,0.0,0.0
308,82.0,0.0,30.0,6.0,0.0
309,59.0,0.0,240.0,15.0,0.0
310,71.0,0.0,240.0,7.0,0.0
311,76.0,0.0,90.0,12.0,0.0
312,83.0,60.0,240.0,6.0,0.0
313,59.0,0.0,240.0,14.0,0.0
314,71.0,0.0,240.0,0.0,0.0
315,59.0,0.0,240.0,7.0,0.0
316,66.0,0.0,30.0,13.0,0.0
317,78.0,30.0,30.0,12.0,0.0
318,64.0,0.0,60.0,13.0,0.0
319,79.0,30.0,30.0,12.0,0.0
320,81.0,30.0,30.0,12.0,0.0
321,78.0,30.0,30.0,12.0,0.0
322,63.0,0.0,60.0,13.0,0.0
323,79.0,0.0,30.0,12.0,0.0
324,58.0,0.0,240.0,14.0,0.0
325,76.0,0.0,240.0,7.0,0.0
326,64.0,0.0,240.0,7.0,0.0
327,61.0,0.0,120.0,13.0,0.0
328,76.0,0.0,120.0,12.0,0.0
329,58.0,0.0,240.0,15.0,0.0
330,67.0,0.0,30.0,0.0,0.0
331,79.0,30.0,30.0,6.0,0.0
332,91.0,0.0,30.0,3.0,0.0
333,66.0,0.0,30.0,0.0,0.0
334,78.0,0.0,30.0,6.0,0.0
335,90.0,30.0,30.0,3.0,0.0
336,88.0,30.0,30.0,3.0,0.0
337,64.0,0.0,30.0,0.0,0.0
338,76.0,0.0,30.0,6.0,0.0
339,67.0,0.0,60.0,13.0,0.0
340,63.0,0.0,30.0,0.0,0.0
341,87.0,30.0,30.0,3.0,0.0
342,76.0,30.0,60.0,12.0,0.0
343,75.0,0.0,30.0,6.0,0.0
344,62.0,0.0,30.0,0.0,0.0
345,74.0,0.0,30.0,6.0,0.0
346,86.0,0.0,30.0,3.0,0.0
347,76.0,61.0,60.0,12.0,0.0
348,67.0,0.0,60.0,13.0,0.0
349,61.0,0.0,30.0,0.0,0.0
350,85.0,0.0,30.0,3.0,0.0
351,73.0,30.0,30.0,6.0,0.0
352,84.0,0.0,30.0,3.0,0.0
353,72.0,0.0,30.0,6.0,0.0
354,60.0,0.0,30.0,0.0,0.0
355,59.0,0.0,180.0,0.0,0.0
356,68.0,0.0,90.0,13.0,0.0
357,71.0,0.0,180.0,6.0,0.0
358,59.0,29.0,60.0,15.0,0.0
359,76.0,30.0,90.0,12.0,0.0
360,59.0,0.0,240.0,14.0,0.0
361,59.0,0.0,240.0,7.0,0.0
362,71.0,0.0,240.0,7.0,0.0
363,83.0,1.0,180.0,3.0,0.0
364,78.0,30.0,30.0,12.0,0.0
365,69.0,0.0,30.0,13.0,0.0
366,80.0,30.0,30.0,12.0,0.0
367,71.0,0.0,60.0,13.0,0.0
368,47.0,9.0,60.0,15.0,0.0
369,81.0,0.0,30.0,12.0,0.0
370,69.0,0.0,60.0,0.0,0.0
371,78.0,15.0,30.0,12.0,0.0
372,81.0,0.0,60.0,6.0,0.0
373,78.0,0.0,60.0,6.0,0.0
374,75.0,10.0,15.0,13.0,0.0
375,66.0,0.0,60.0,0.0,0.0
376,87.0,20.0,60.0,3.0,0.0
377,76.0,10.0,15.0,13.0,0.0
378,75.0,0.0,15.0,13.0,0.0
379,73.0,15.0,15.0,13.0,0.0
380,80.0,0.0,30.0,12.0,0.0
381,75.0,0.0,15.0,13.0,0.0
382,64.0,0.0,120.0,0.0,0.0
383,52.0,0.0,120.0,15.0,0.0
384,76.0,20.0,20.0,13.0,0.0
385,80.0,0.0,120.0,6.0,0.0
386,76.0,0.0,120.0,6.0,0.0
387,76.0,0.0,120.0,7.0,0.0
388,68.0,0.0,120.0,0.0,0.0
389,64.0,0.0,120.0,14.0,0.0
390,76.0,0.0,20.0,12.0,0.0
391,52.0,0.0,120.0,4.0,0.0
392,68.0,0.0,120.0,1.0,0.0
393,76.0,0.0,120.0,1.0,0.0
394,64.0,0.0,120.0,7.0,0.0
395,88.0,20.0,120.0,3.0,0.0
396,80.0,0.0,20.0,13.0,0.0
397,80.0,20.0,20.0,12.0,0.0
398,83.0,0.0,20.0,12.0,0.0
399,83.0,20.0,20.0,13.0,0.0
400,83.0,0.0,20.0,12.0,0.0
401,83.0,20.0,20.0,13.0,0.0
402,83.0,0.0,20.0,12.0,0.0
403,83.0,20.0,20.0,13.0,0.0
404,83.0,0.0,20.0,13.0,0.0
405,83.0,0.0,20.0,12.0,0.0
406,83.0,20.0,20.0,13.0,0.0
407,83.0,0.0,20.0,12.0,0.0
408,83.0,0.0,20.0,12.0,0.0
409,83.0,20.0,20.0,13.0,0.0
410,83.0,0.0,20.0,13.0,0.0
411,83.0,20.0,20.0,12.0,0.0
412,75.0,0.0,60.0,6.0,0.0
413,83.0,0.0,60.0,6.0,0.0
414,71.0,0.0,60.0,7.0,0.0
415,71.0,0.0,60.0,1.0,0.0
416,87.0,0.0,20.0,13.0,0.0
417,59.0,20.0,60.0,0.0,0.0
418,78.0,0.0,60.0,7.0,0.0
419,78.0,0.0,60.0,1.0,0.0
420,59.0,0.0,60.0,15.0,0.0
421,87.0,20.0,20.0,12.0,0.0
422,90.0,0.0,60.0,3.0,0.0
423,47.0,0.0,60.0,4.0,0.0
424,71.0,0.0,60.0,14.0,0.0
425,85.0,0.0,20.0,13.0,0.0
426,85.0,20.0,20.0,12.0,0.0
427,83.0,0.0,20.0,12.0,0.0
428,83.0,0.0,20.0,13.0,0.0
429,76.0,0.0,60.0,7.0,0.0
430,80.0,0.0,60.0,1.0,0.0
431,76.0,0.0,60.0,1.0,0.0
432,76.0,0.0,60.0,6.0,0.0
433,88.0,20.0,20.0,12.0,0.0
434,64.0,19.0,60.0,15.0,0.0
435,83.0,0.0,60.0,6.0,0.0
436,80.0,0.0,60.0,7.0,0.0
437,92.0,0.0,60.0,3.0,0.0
438,64.0,0.0,60.0,0.0,0.0
439,88.0,0.0,20.0,13.0,0.0
440,76.0,0.0,60.0,14.0,0.0
441,52.0,0.0,60.0,4.0,0.0
442,83.0,20.0,20.0,13.0,0.0
443,83.0,0.0,20.0,12.0,0.0
444,80.0,0.0,20.0,12.0,0.0
445,80.0,1.0,20.0,13.0,0.0
446,76.0,20.0,20.0,12.0,0.0
447,76.0,0.0,20.0,13.0,0.0
448,78.0,20.0,20.0,13.0,0.0
449,78.0,0.0,20.0,12.0,0.0
450,80.0,0.0,20.0,13.0,0.0
451,80.0,20.0,20.0,12.0,0.0
452,78.0,0.0,60.0,7.0,0.0
453,47.0,0.0,60.0,4.0,0.0
454,71.0,0.0,60.0,1.0,0.0
455,78.0,0.0,60.0,1.0,0.0
456,59.0,19.0,60.0,15.0,0.0
457,59.0,0.0,60.0,0.0,0.0
458,90.0,0.0,60.0,3.0,0.0
459,71.0,0.0,60.0,7.0,0.0
460,81.0,20.0,20.0,13.0,0.0
461,83.0,0.0,60.0,6.0,0.0
462,81.0,0.0,20.0,12.0,0.0
463,75.0,0.0,60.0,6.0,0.0
464,71.0,0.0,60.0,14.0,0.0
465,78.0,0.0,20.0,12.0,0.0
466,78.0,20.0,20.0,13.0,0.0
467,75.0,0.0,20.0,13.0,0.0
468,75.0,1.0,20.0,12.0,0.0
469,71.0,20.0,20.0,12.0,0.0
470,71.0,0.0,20.0,13.0,0.0
471,73.0,0.0,20.0,13.0,0.0
472,73.0,20.0,20.0,12.0,0.0
473,75.0,0.0,20.0,13.0,0.0
474,75.0,20.0,20.0,12.0,0.0
475,76.0,20.0,20.0,12.0,0.0
476,52.0,0.0,120.0,0.0,0.0
477,80.0,0.0,120.0,6.0,0.0
478,83.0,0.0,120.0,6.0,0.0
479,76.0,0.0,120.0,7.0,0.0
480,68.0,0.0,120.0,7.0,0.0
481,64.0,0.0,120.0,14.0,0.0
482,52.0,0.0,120.0,4.0,0.0
483,52.0,0.0,120.0,15.0,0.0
484,76.0,0.0,120.0,1.0,0.0
485,68.0,0.0,120.0,1.0,0.0
486,88.0,0.0,120.0,3.0,0.0
487,76.0,0.0,20.0,13.0,0.0
488,80.0,0.0,20.0,12.0,0.0
489,80.0,20.0,20.0,13.0,0.0
490,83.0,20.0,20.0,12.0,0.0
491,83.0,0.0,20.0,13.0,0.0
492,83.0,0.0,20.0,13.0,0.0
493,83.0,20.0,20.0,12.0,0.0
494,83.0,0.0,20.0,13.0,0.0
495,83.0,20.0,20.0,12.0,0.0
496,83.0,0.0,20.0,13.0,0.0
497,83.0,20.0,20.0,12.0,0.0
498,83.0,0.0,20.0,12.0,0.0
499,83.0,20.0,20.0,13.0,0.0
500,83.0,0.0,20.0,12.0,0.0
501,83.0,20.0,20.0,13.0,0.0
502,83.0,0.0,20.0,13.0,0.0
503,83.0,20.0,20.0,12.0,0.0
504,71.0,0.0,60.0,14.0,0.0
505,47.0,0.0,60.0,4.0,0.0
506,75.0,0.0,60.0,6.0,0.0
507,90.0,0.0,60.0,3.0,0.0
508,71.0,0.0,60.0,7.0,0.0
509,87.0,20.0,20.0,12.0,0.0
510,78.0,0.0,60.0,1.0,0.0
511,87.0,0.0,20.0,13.0,0.0
512,59.0,0.0,60.0,15.0,0.0
513,83.0,0.0,60.0,6.0,0.0
514,59.0,0.0,60.0,0.0,0.0
515,78.0,20.0,60.0,7.0,0.0
516,71.0,0.0,60.0,1.0,0.0
517,85.0,0.0,20.0,13.0,0.0
518,85.0,20.0,20.0,12.0,0.0
519,83.0,0.0,20.0,13.0,0.0
520,83.0,0.0,20.0,12.0,0.0
521,80.0,1.0,60.0,7.0,0.0
522,76.0,0.0,60.0,7.0,0.0
523,83.0,0.0,60.0,6.0,0.0
524,64.0,0.0,60.0,0.0,0.0
525,52.0,0.0,60.0,4.0,0.0
526,76.0,0.0,60.0,14.0,0.0
527,76.0,0.0,60.0,1.0,0.0
528,80.0,0.0,60.0,1.0,0.0
529,88.0,0.0,20.0,12.0,0.0
530,88.0,20.0,20.0,13.0,0.0
531,64.0,19.0,60.0,15.0,0.0
532,92.0,0.0,60.0,3.0,0.0
533,76.0,0.0,60.0,6.0,0.0
534,83.0,0.0,20.0,12.0,0.0
535,83.0,20.0,20.0,13.0,0.0
536,80.0,0.0,20.0,13.0,0.0
537,80.0,0.0,20.0,12.0,0.0
538,80.0,0.0,60.0,7.0,0.0
539,83.0,0.0,60.0,6.0,0.0
540,52.0,0.0,60.0,4.0,0.0
541,76.0,0.0,60.0,6.0,0.0
542,80.0,20.0,60.0,1.0,0.0
543,76.0,0.0,60.0,1.0,0.0
544,76.0,0.0,60.0,7.0,0.0
545,76.0,0.0,20.0,12.0,0.0
546,92.0,0.0,60.0,3.0,0.0
547,76.0,20.0,20.0,13.0,0.0
548,78.0,0.0,20.0,12.0,0.0
549,78.0,20.0,20.0,13.0,0.0
550,80.0,0.0,20.0,12.0,0.0
551,80.0,0.0,20.0,13.0,0.0
552,59.0,19.0,60.0,0.0,0.0
553,47.0,1.0,60.0,4.0,0.0
554,71.0,0.0,60.0,14.0,0.0
555,78.0,0.0,60.0,1.0,0.0
556,59.0,0.0,60.0,15.0,0.0
557,81.0,20.0,20.0,13.0,0.0
558,75.0,0.0,60.0,6.0,0.0
559,78.0,0.0,60.0,7.0,0.0
560,71.0,0.0,60.0,7.0,0.0
561,90.0,0.0,60.0,3.0,0.0
562,81.0,0.0,20.0,12.0,0.0
563,71.0,0.0,60.0,1.0,0.0
564,83.0,0.0,60.0,6.0,0.0
565,78.0,20.0,20.0,12.0,0.0
566,78.0,0.0,20.0,13.0,0.0
567,75.0,0.0,20.0,12.0,0.0
568,75.0,0.0,20.0,13.0,0.0
569,75.0,0.0,60.0,6.0,0.0
570,47.0,0.0,60.0,4.0,0.0
571,78.0,0.0,60.0,7.0,0.0
572,83.0,0.0,60.0,6.0,0.0
573,71.0,20.0,20.0,13.0,0.0
574,90.0,0.0,60.0,3.0,0.0
575,78.0,0.0,60.0,1.0,0.0
576,71.0,0.0,20.0,12.0,0.0
577,71.0,0.0,60.0,1.0,0.0
578,71.0,0.0,60.0,7.0,0.0
579,73.0,0.0,20.0,12.0,0.0
580,73.0,20.0,20.0,13.0,0.0
581,75.0,20.0,20.0,13.0,0.0
582,75.0,0.0,20.0,12.0,0.0
583,64.0,0.0,20.0,0.0,0.0
584,76.0,0.0,20.0,12.0,0.0
585,88.0,0.0,60.0,3.0,0.0
586,64.0,20.0,20.0,15.0,0.0
587,76.0,0.0,20.0,13.0,0.0
588,52.0,19.0,60.0,4.0,0.0
589,76.0,0.0,60.0,6.0,0.0
590,76.0,20.0,120.0,1.0,0.0
591,76.0,0.0,120.0,7.0,0.0
592,88.0,0.0,20.0,6.0,0.0
593,59.0,0.0,20.0,0.0,0.0
594,83.0,20.0,20.0,6.0,0.0
595,71.0,0.0,20.0,13.0,0.0
596,59.0,0.0,20.0,15.0,0.0
597,71.0,0.0,20.0,12.0,0.0
598,68.0,1.0,20.0,13.0,0.0
599,68.0,0.0,20.0,12.0,0.0
600,56.0,0.0,20.0,15.0,0.0
601,56.0,0.0,20.0,0.0,0.0
602,80.0,0.0,20.0,6.0,0.0
603,52.0,0.0,20.0,15.0,0.0
604,52.0,0.0,20.0,0.0,0.0
605,64.0,0.0,20.0,12.0,0.0
606,64.0,0.0,20.0,13.0,0.0
607,76.0,20.0,20.0,6.0,0.0
608,54.0,20.0,20.0,15.0,0.0
609,54.0,0.0,20.0,0.0,0.0
610,78.0,0.0,20.0,6.0,0.0
611,66.0,0.0,20.0,13.0,0.0
612,66.0,0.0,20.0,12.0,0.0
613,68.0,0.0,20.0,12.0,0.0
614,80.0,0.0,20.0,6.0,0.0
615,56.0,0.0,20.0,15.0,0.0
616,56.0,0.0,20.0,0.0,0.0
617,68.0,0.0,20.0,13.0,0.0
618,69.0,0.0,20.0,12.0,0.0
619,47.0,19.0,60.0,4.0,0.0
620,93.0,0.0,20.0,3.0,0.0
621,69.0,0.0,20.0,13.0,0.0
622,71.0,20.0,120.0,7.0,0.0
623,71.0,0.0,120.0,1.0,0.0
624,81.0,0.0,20.0,6.0,0.0
625,57.0,20.0,20.0,0.0,0.0
626,57.0,0.0,20.0,15.0,0.0
627,90.0,0.0,20.0,3.0,0.0
628,66.0,0.0,20.0,13.0,0.0
629,78.0,0.0,20.0,6.0,0.0
630,54.0,20.0,20.0,15.0,0.0
631,66.0,0.0,20.0,12.0,0.0
632,54.0,0.0,20.0,0.0,0.0
633,63.0,1.0,20.0,13.0,0.0
634,87.0,0.0,20.0,3.0,0.0
635,63.0,0.0,20.0,12.0,0.0
636,51.0,0.0,20.0,15.0,0.0
637,51.0,0.0,20.0,0.0,0.0
638,75.0,0.0,20.0,6.0,0.0
639,59.0,0.0,20.0,12.0,0.0
640,47.0,0.0,20.0,0.0,0.0
641,47.0,20.0,20.0,15.0,0.0
642,59.0,0.0,20.0,13.0,0.0
643,71.0,0.0,20.0,6.0,0.0
644,83.0,0.0,20.0,3.0,0.0
645,49.0,0.0,20.0,0.0,0.0
646,61.0,20.0,20.0,13.0,0.0
647,85.0,0.0,20.0,3.0,0.0
648,73.0,0.0,20.0,6.0,0.0
649,61.0,0.0,20.0,12.0,0.0
650,49.0,0.0,20.0,15.0,0.0
651,51.0,0.0,20.0,0.0,0.0
652,51.0,0.0,20.0,15.0,0.0
653,75.0,0.0,20.0,6.0,0.0
654,63.0,0.0,20.0,13.0,0.0
655,87.0,0.0,20.0,3.0,0.0
656,63.0,0.0,20.0,12.0,0.0
657,76.0,0.0,60.0,7.0,0.0
658,64.0,0.0,60.0,7.0,0.0
659,52.0,0.0,20.0,0.0,0.0
660,76.0,0.0,20.0,6.0,0.0
661,88.0,20.0,20.0,3.0,0.0
662,64.0,0.0,20.0,12.0,0.0
663,52.0,20.0,60.0,4.0,0.0
664,64.0,0.0,20.0,13.0,0.0
665,64.0,0.0,60.0,1.0,0.0
666,52.0,0.0,20.0,15.0,0.0
667,76.0,0.0,60.0,1.0,0.0
668,75.0,20.0,20.0,6.0,0.0
669,51.0,0.0,20.0,0.0,0.0
670,63.0,0.0,20.0,13.0,0.0
671,63.0,0.0,20.0,12.0,0.0
672,51.0,0.0,20.0,15.0,0.0
673,87.0,0.0,20.0,3.0,0.0
674,73.0,0.0,20.0,6.0,0.0
675,49.0,0.0,20.0,0.0,0.0
676,61.0,0.0,20.0,12.0,0.0
677,61.0,0.0,20.0,13.0,0.0
678,85.0,0.0,20.0,3.0,0.0
679,49.0,0.0,20.0,15.0,0.0
680,47.0,10.0,20.0,15.0,0.0
681,59.0,0.0,20.0,12.0,0.0
682,71.0,0.0,30.0,7.0,0.0
683,59.0,0.0,30.0,7.0,0.0
684,47.0,0.0,20.0,0.0,0.0
685,47.0,10.0,30.0,4.0,0.0
686,59.0,0.0,30.0,1.0,0.0
687,71.0,0.0,20.0,6.0,0.0
688,71.0,0.0,30.0,1.0,0.0
689,59.0,0.0,20.0,13.0,0.0
690,83.0,0.0,20.0,3.0,0.0
691,85.0,0.0,20.0,3.0,0.0
692,61.0,0.0,20.0,13.0,0.0
693,73.0,0.0,20.0,6.0,0.0
694,49.0,0.0,20.0,0.0,0.0
695,49.0,20.0,20.0,15.0,0.0
696,61.0,0.0,20.0,12.0,0.0
697,59.0,0.0,30.0,1.0,0.0
698,71.0,0.0,30.0,1.0,0.0
699,71.0,0.0,30.0,7.0,0.0
700,59.0,0.0,30.0,7.0,0.0
701,47.0,0.0,30.0,4.0,0.0
702,51.0,0.0,20.0,0.0,0.0
703,87.0,0.0,20.0,3.0,0.0
704,75.0,0.0,20.0,6.0,0.0
705,63.0,20.0,20.0,12.0,0.0
706,63.0,0.0,20.0,13.0,0.0
707,51.0,0.0,20.0,15.0,0.0
708,47.0,0.0,60.0,4.0,0.0
709,64.0,20.0,20.0,12.0,0.0
710,88.0,0.0,20.0,3.0,0.0
711,59.0,0.0,60.0,1.0,0.0
712,71.0,0.0,60.0,1.0,0.0
713,76.0,0.0,20.0,6.0,0.0
714,59.0,0.0,60.0,7.0,0.0
715,71.0,0.0,60.0,7.0,0.0
716,64.0,0.0,20.0,13.0,0.0
717,52.0,0.0,20.0,0.0,0.0
718,52.0,0.0,20.0,15.0,0.0
719,90.0,20.0,20.0,3.0,0.0
720,78.0,0.0,20.0,6.0,0.0
721,54.0,0.0,20.0,15.0,0.0
722,66.0,0.0,20.0,13.0,0.0
723,54.0,0.0,20.0,0.0,0.0
724,66.0,0.0,20.0,12.0,0.0
725,68.0,0.0,20.0,13.0,0.0
726,56.0,20.0,20.0,0.0,0.0
727,92.0,0.0,20.0,3.0,0.0
728,56.0,0.0,20.0,15.0,0.0
729,80.0,0.0,20.0,6.0,0.0
730,68.0,0.0,20.0,12.0,0.0
731,81.0,0.0,20.0,6.0,0.0
732,69.0,0.0,20.0,13.0,0.0
733,69.0,0.0,20.0,12.0,0.0
734,57.0,0.0,20.0,15.0,0.0
735,47.0,20.0,60.0,4.0,0.0
736,59.0,0.0,60.0,1.0,0.0
737,57.0,20.0,20.0,0.0,0.0
738,59.0,0.0,60.0,7.0,0.0
739,71.0,0.0,60.0,1.0,0.0
740,93.0,0.0,20.0,3.0,0.0
741,71.0,0.0,60.0,7.0,0.0
742,80.0,0.0,20.0,6.0,0.0
743,68.0,0.0,20.0,13.0,0.0
744,56.0,0.0,20.0,15.0,0.0
745,56.0,0.0,20.0,0.0,0.0
746,68.0,0.0,20.0,12.0,0.0
747,92.0,20.0,20.0,3.0,0.0
748,54.0,0.0,20.0,15.0,0.0
749,78.0,0.0,20.0,6.0,0.0
750,54.0,0.0,20.0,0.0,0.0
751,66.0,0.0,20.0,13.0,0.0
752,66.0,0.0,20.0,12.0,0.0
753,90.0,0.0,20.0,3.0,0.0
754,52.0,0.0,60.0,4.0,0.0
755,52.0,0.0,20.0,15.0,0.0
756,76.0,20.0,20.0,6.0,0.0
757,64.0,0.0,20.0,12.0,0.0
758,52.0,0.0,20.0,0.0,0.0
759,76.0,0.0,60.0,1.0,0.0
760,64.0,0.0,20.0,13.0,0.0
761,64.0,0.0,60.0,7.0,0.0
762,76.0,0.0,60.0,7.0,0.0
763,88.0,0.0,20.0,3.0,0.0
764,64.0,0.0,60.0,1.0,0.0
765,63.0,0.0,20.0,12.0,0.0
766,87.0,0.0,20.0,3.0,0.0
767,51.0,0.0,20.0,0.0,0.0
768,75.0,0.0,20.0,6.0,0.0
769,63.0,20.0,20.0,13.0,0.0
770,51.0,0.0,20.0,15.0,0.0
771,49.0,0.0,20.0,0.0,0.0
772,73.0,0.0,20.0,6.0,0.0
773,85.0,0.0,20.0,3.0,0.0
774,61.0,0.0,20.0,13.0,0.0
775,61.0,20.0,20.0,12.0,0.0
776,49.0,0.0,20.0,15.0,0.0
777,59.0,10.0,30.0,1.0,0.0
778,59.0,0.0,20.0,13.0,0.0
779,71.0,0.0,20.0,6.0,0.0
780,47.0,0.0,30.0,4.0,0.0
781,71.0,0.0,30.0,7.0,0.0
782,47.0,10.0,20.0,0.0,0.0
783,47.0,0.0,20.0,15.0,0.0
784,59.0,0.0,30.0,7.0,0.0
785,83.0,0.0,20.0,3.0,0.0
786,71.0,0.0,30.0,1.0,0.0
787,59.0,0.0,20.0,12.0,0.0
788,61.0,0.0,20.0,12.0,0.0
789,49.0,20.0,20.0,15.0,0.0
790,61.0,0.0,20.0,13.0,0.0
791,49.0,0.0,20.0,0.0,0.0
792,73.0,0.0,20.0,6.0,0.0
793,85.0,0.0,20.0,3.0,0.0
794,59.0,0.0,30.0,1.0,0.0
795,59.0,0.0,30.0,7.0,0.0
796,71.0,0.0,30.0,7.0,0.0
797,47.0,0.0,30.0,4.0,0.0
798,71.0,0.0,30.0,1.0,0.0
799,63.0,0.0,20.0,13.0,0.0
800,87.0,0.0,20.0,3.0,0.0
801,63.0,0.0,20.0,12.0,0.0
802,51.0,20.0,20.0,15.0,0.0
803,51.0,0.0,20.0,0.0,0.0
804,75.0,0.0,20.0,6.0,0.0
805,64.0,0.0,20.0,13.0,0.0
806,64.0,0.0,20.0,12.0,0.0
807,52.0,0.0,20.0,15.0,0.0
808,76.0,0.0,20.0,6.0,0.0
809,59.0,0.0,60.0,1.0,0.0
810,71.0,0.0,60.0,1.0,0.0
811,71.0,0.0,60.0,7.0,0.0
812,52.0,0.0,20.0,0.0,0.0
813,59.0,0.0,60.0,7.0,0.0
814,47.0,0.0,60.0,4.0,0.0
815,88.0,20.0,20.0,3.0,0.0
816,66.0,0.0,20.0,12.0,0.0
817,78.0,0.0,20.0,6.0,0.0
818,90.0,20.0,20.0,3.0,0.0
819,66.0,0.0,20.0,13.0,0.0
820,54.0,0.0,20.0,15.0,0.0
821,54.0,0.0,20.0,0.0,0.0
822,56.0,0.0,20.0,0.0,0.0
823,80.0,0.0,20.0,6.0,0.0
824,68.0,0.0,20.0,13.0,0.0
825,56.0,20.0,20.0,15.0,0.0
826,92.0,0.0,20.0,3.0,0.0
827,68.0,0.0,20.0,12.0,0.0
828,69.0,0.0,20.0,13.0,0.0
829,57.0,0.0,20.0,15.0,0.0
830,81.0,0.0,20.0,6.0,0.0
831,47.0,0.0,60.0,4.0,0.0
832,71.0,0.0,60.0,1.0,0.0
833,57.0,0.0,20.0,0.0,0.0
834,59.0,0.0,60.0,7.0,0.0
835,71.0,0.0,60.0,7.0,0.0
836,93.0,20.0,20.0,3.0,0.0
837,69.0,0.0,20.0,12.0,0.0
838,59.0,0.0,60.0,1.0,0.0
839,80.0,0.0,20.0,6.0,0.0
840,56.0,0.0,20.0,15.0,0.0
841,56.0,0.0,20.0,0.0,0.0
842,68.0,0.0,20.0,13.0,0.0
843,68.0,20.0,20.0,12.0,0.0
844,92.0,0.0,20.0,3.0,0.0
845,54.0,0.0,20.0,0.0,0.0
846,78.0,0.0,20.0,6.0,0.0
847,66.0,0.0,20.0,13.0,0.0
848,90.0,0.0,20.0,3.0,0.0
849,54.0,0.0,20.0,15.0,0.0
850,66.0,120.0,20.0,12.0,0.0
851,64.0,0.0,120.0,12.0,0.0
852,52.0,0.0,120.0,15.0,0.0
853,52.0,15.0,120.0,4.0,0.0
854,76.0,0.0,120.0,6.0,0.0
855,64.0,0.0,120.0,13.0,0.0
856,76.0,0.0,120.0,7.0,0.0
857,64.0,0.0,120.0,7.0,0.0
858,88.0,0.0,120.0,3.0,0.0
859,52.0,0.0,120.0,0.0,0.0
860,76.0,0.0,120.0,1.0,0.0
861,64.0,0.0,120.0,1.0,0.0
862,52.0,0.0,120.0,0.0,0.0
863,59.0,15.0,15.0,13.0,0.0
864,64.0,0.0,120.0,14.0,0.0
865,92.0,0.0,120.0,3.0,0.0
866,80.0,0.0,120.0,7.0,0.0
867,52.0,0.0,120.0,4.0,0.0
868,80.0,0.0,120.0,6.0,0.0
869,83.0,0.0,120.0,6.0,0.0
870,52.0,0.0,120.0,15.0,0.0
871,71.0,15.0,120.0,1.0,0.0
872,80.0,0.0,120.0,1.0,0.0
873,71.0,0.0,120.0,7.0,0.0
874,68.0,0.0,15.0,12.0,0.0
875,76.0,90.0,15.0,12.0,0.0
876,68.0,0.0,15.0,13.0,0.0
877,83.0,0.0,90.0,12.0,0.0
878,76.0,0.0,90.0,13.0,0.0
879,83.0,0.0,120.0,6.0,0.0
880,76.0,0.0,120.0,1.0,0.0
881,68.0,0.0,120.0,1.0,0.0
882,80.0,0.0,120.0,6.0,0.0
883,52.0,0.0,120.0,0.0,0.0
884,52.0,0.0,120.0,4.0,0.0
885,68.0,0.0,120.0,7.0,0.0
886,76.0,0.0,120.0,7.0,0.0
887,52.0,98.0,120.0,15.0,0.0
888,88.0,0.0,120.0,3.0,0.0
889,64.0,0.0,120.0,14.0,0.0
890,71.0,15.0,15.0,12.0,0.0
891,59.0,0.0,15.0,13.0,0.0
892,68.0,0.0,15.0,13.0,0.0
893,80.0,90.0,15.0,12.0,0.0
894,76.0,0.0,90.0,13.0,0.0
895,88.0,0.0,90.0,12.0,0.0
896,73.0,8.0,15.0,5.0,0.0
897,71.0,7.0,15.0,5.0,0.0
898,70.0,7.0,15.0,5.0,0.0
899,71.0,60.0,15.0,5.0,0.0
900,76.0,38.0,60.0,5.0,0.0
901,78.0,8.0,15.0,5.0,0.0
902,76.0,7.0,15.0,5.0,0.0
903,75.0,8.0,15.0,5.0,0.0
904,76.0,60.0,15.0,5.0,0.0
905,80.0,37.0,60.0,5.0,0.0
906,81.0,8.0,15.0,5.0,0.0
907,80.0,7.0,15.0,5.0,0.0
908,78.0,8.0,15.0,5.0,0.0
909,80.0,29.0,15.0,5.0,0.0
910,68.0,30.0,30.0,5.0,0.0
911,64.0,0.0,240.0,5.0,0.0
912,83.0,0.0,60.0,5.0,0.0
913,71.0,30.0,30.0,5.0,0.0
914,83.0,7.0,120.0,5.0,0.0
915,68.0,30.0,30.0,5.0,0.0
916,71.0,30.0,30.0,5.0,0.0
917,68.0,16.0,30.0,5.0,0.0
918,71.0,30.0,30.0,5.0,0.0
919,85.0,7.0,15.0,5.0,0.0
920,83.0,0.0,15.0,5.0,0.0
921,81.0,0.0,30.0,5.0,0.0
922,68.0,30.0,30.0,5.0,0.0
923,80.0,30.0,30.0,5.0,0.0
924,71.0,0.0,30.0,5.0,0.0
925,69.0,0.0,30.0,5.0,0.0
926,64.0,0.0,240.0,5.0,0.0
927,77.0,30.0,30.0,5.0,0.0
928,71.0,0.0,30.0,5.0,0.0
929,78.0,30.0,30.0,5.0,0.0
930,69.0,30.0,30.0,5.0,0.0
931,78.0,0.0,60.0,5.0,0.0
932,71.0,15.0,30.0,5.0,0.0
933,69.0,0.0,30.0,5.0,0.0
934,80.0,15.0,15.0,5.0,0.0
935,78.0,15.0,15.0,5.0,0.0
936,71.0,0.0,30.0,5.0,0.0
937,77.0,15.0,15.0,5.0,0.0
938,78.0,30.0,15.0,5.0,0.0
939,69.0,0.0,30.0,5.0,0.0
940,81.0,30.0,30.0,5.0,0.0
941,71.0,0.0,30.0,5.0,0.0
942,75.0,15.0,30.0,5.0,0.0
943,64.0,0.0,240.0,5.0,0.0
944,68.0,15.0,30.0,5.0,0.0
945,76.0,15.0,15.0,5.0,0.0
946,78.0,0.0,15.0,5.0,0.0
947,71.0,15.0,30.0,5.0,0.0
948,76.0,15.0,15.0,5.0,0.0
949,75.0,0.0,15.0,5.0,0.0
950,68.0,0.0,30.0,5.0,0.0
951,76.0,15.0,15.0,5.0,0.0
952,78.0,15.0,15.0,5.0,0.0
953,71.0,0.0,30.0,5.0,0.0
954,80.0,15.0,15.0,5.0,0.0
955,81.0,15.0,15.0,5.0,0.0
956,83.0,15.0,15.0,5.0,0.0
957,68.0,0.0,30.0,5.0,0.0
958,85.0,15.0,15.0,5.0,0.0
959,71.0,15.0,30.0,5.0,0.0
960,87.0,15.0,15.0,5.0,0.0
961,88.0,0.0,15.0,5.0,0.0
962,90.0,15.0,15.0,5.0,0.0
963,68.0,0.0,30.0,5.0,0.0
964,92.0,15.0,15.0,5.0,0.0
965,90.0,15.0,15.0,5.0,0.0
966,71.0,0.0,30.0,5.0,0.0
967,88.0,20.0,15.0,5.0,0.0
968,64.0,0.0,240.0,5.0,0.0
969,69.0,10.0,30.0,5.0,0.0
970,87.0,10.0,20.0,5.0,0.0
971,90.0,20.0,20.0,5.0,0.0
972,71.0,0.0,30.0,5.0,0.0
973,93.0,20.0,20.0,5.0,0.0
974,69.0,10.0,30.0,5.0,0.0
975,92.0,10.0,20.0,5.0,0.0
976,90.0,20.0,20.0,5.0,0.0
977,71.0,0.0,30.0,5.0,0.0
978,88.0,20.0,20.0,5.0,0.0
979,69.0,10.0,30.0,5.0,0.0
980,87.0,10.0,20.0,5.0,0.0
981,85.0,20.0,20.0,5.0,0.0
982,71.0,0.0,30.0,5.0,0.0
983,83.0,20.0,20.0,5.0,0.0
984,81.0,10.0,20.0,5.0,0.0
985,69.0,10.0,30.0,5.0,0.0
986,80.0,20.0,20.0,5.0,0.0
987,71.0,0.0,30.0,5.0,0.0
988,78.0,15.0,20.0,5.0,0.0
989,68.0,0.0,120.0,5.0,0.0
990,64.0,0.0,120.0,5.0,0.0
991,76.0,15.0,15.0,5.0,0.0
992,80.0,15.0,15.0,5.0,0.0
993,78.0,15.0,15.0,5.0,0.0
994,81.0,15.0,15.0,5.0,0.0
995,80.0,15.0,15.0,5.0,0.0
996,83.0,15.0,15.0,5.0,0.0
997,81.0,15.0,15.0,5.0,0.0
998,85.0,16.0,15.0,5.0,0.0
999,83.0,30.0,15.0,5.0,0.0
1000,85.0,30.0,15.0,5.0,0.0
1001,87.0,30.0,15.0,5.0,0.0
1002,88.0,74.0,15.0,5.0,0.0
1003,69.0,0.0,60.0,5.0,0.0
1004,57.0,60.0,60.0,5.0,0.0
1005,85.0,0.0,60.0,5.0,0.0
1006,76.0,0.0,60.0,5.0,0.0
1007,81.0,0.0,60.0,5.0,0.0
1008,80.0,45.0,60.0,5.0,0.0
1009,83.0,0.0,60.0,5.0,0.0
1010,64.0,0.0,60.0,5.0,0.0
1011,52.0,0.0,60.0,5.0,0.0
1012,76.0,0.0,60.0,5.0,0.0
1013,92.0,15.0,15.0,5.0,0.0
1014,90.0,15.0,15.0,5.0,0.0
1015,88.0,15.0,15.0,5.0,0.0
1016,87.0,15.0,15.0,5.0,0.0
1017,85.0,15.0,15.0,5.0,0.0
1018,83.0,31.0,15.0,5.0,0.0
1019,59.0,31.0,60.0,5.0,0.0
1020,63.0,0.0,60.0,5.0,0.0
1021,81.0,29.0,30.0,5.0,0.0
1022,80.0,29.0,30.0,5.0,0.0
1023,52.0,60.0,60.0,5.0,0.0
1024,64.0,0.0,60.0,5.0,0.0
1025,76.0,30.0,120.0,5.0,0.0
1026,80.0,30.0,30.0,5.0,0.0
1027,83.0,30.0,30.0,5.0,0.0
1028,92.0,0.0,30.0,5.0,0.0
1029,80.0,30.0,30.0,5.0,0.0
1030,73.0,30.0,120.0,5.0,0.0
1031,81.0,60.0,30.0,5.0,0.0
1032,92.0,30.0,90.0,5.0,0.0
1033,75.0,30.0,120.0,5.0,0.0
1034,78.0,30.0,30.0,5.0,0.0
1035,81.0,30.0,30.0,5.0,0.0
1036,90.0,0.0,30.0,5.0,0.0
1037,78.0,30.0,30.0,5.0,0.0
1038,71.0,30.0,120.0,5.0,0.0
1039,80.0,60.0,30.0,5.0,0.0
1040,90.0,30.0,90.0,5.0,0.0
1041,73.0,0.0,120.0,5.0,0.0
1042,76.0,30.0,30.0,5.0,0.0
1043,80.0,30.0,30.0,5.0,0.0
1044,88.0,30.0,30.0,5.0,0.0
1045,76.0,30.0,30.0,5.0,0.0
1046,69.0,30.0,120.0,5.0,0.0
1047,78.0,60.0,30.0,5.0,0.0
1048,88.0,30.0,90.0,5.0,0.0
1049,71.0,60.0,120.0,5.0,0.0
1050,75.0,30.0,30.0,5.0,0.0
1051,78.0,30.0,30.0,5.0,0.0
1052,87.0,0.0,30.0,5.0,0.0
1053,64.0,20.0,120.0,5.0,0.0
1054,90.0,60.0,60.0,5.0,0.0
1055,88.0,0.0,60.0,5.0,0.0
1056,52.0,20.0,20.0,5.0,0.0
1057,64.0,0.0,120.0,15.0,0.0
1058,71.0,1.0,120.0,14.0,0.0
1059,80.0,1.0,240.0,13.0,0.0
1060,83.0,0.0,120.0,12.0,0.0
1061,56.0,20.0,20.0,5.0,0.0
1062,59.0,20.0,20.0,5.0,0.0
1063,92.0,19.0,60.0,5.0,0.0
1064,64.0,20.0,20.0,5.0,0.0
1065,88.0,0.0,60.0,5.0,0.0
1066,83.0,0.0,60.0,5.0,0.0
1067,68.0,20.0,20.0,5.0,0.0
1068,71.0,0.0,20.0,5.0,0.0
1069,61.0,0.0,120.0,15.0,0.0
1070,49.0,20.0,20.0,5.0,0.0
1071,81.0,1.0,240.0,12.0,0.0
1072,76.0,0.0,120.0,14.0,0.0
1073,52.0,20.0,20.0,5.0,0.0
1074,57.0,20.0,20.0,5.0,0.0
1075,92.0,0.0,60.0,5.0,0.0
1076,88.0,0.0,60.0,5.0,0.0
1077,81.0,19.0,60.0,5.0,0.0
1078,61.0,20.0,20.0,5.0,0.0
1079,64.0,20.0,20.0,5.0,0.0
1080,61.0,0.0,20.0,5.0,0.0
1081,69.0,0.0,120.0,14.0,0.0
1082,51.0,20.0,20.0,5.0,0.0
1083,78.0,0.0,240.0,13.0,0.0
1084,63.0,0.0,120.0,15.0,0.0
1085,54.0,20.0,20.0,5.0,0.0
1086,57.0,20.0,20.0,5.0,0.0
1087,90.0,0.0,60.0,5.0,0.0
1088,87.0,0.0,60.0,5.0,0.0
1089,63.0,20.0,20.0,5.0,0.0
1090,81.0,19.0,60.0,5.0,0.0
1091,66.0,20.0,20.0,5.0,0.0
1092,69.0,0.0,20.0,5.0,0.0
1093,48.0,20.0,20.0,5.0,0.0
1094,80.0,0.0,240.0,12.0,0.0
1095,60.0,0.0,120.0,15.0,0.0
1096,75.0,1.0,120.0,14.0,0.0
1097,51.0,20.0,20.0,5.0,0.0
1098,56.0,20.0,20.0,5.0,0.0
1099,60.0,20.0,20.0,5.0,0.0
1100,80.0,0.0,60.0,5.0,0.0
1101,87.0,0.0,60.0,5.0,0.0
1102,90.0,19.0,60.0,5.0,0.0
1103,63.0,20.0,20.0,5.0,0.0
1104,60.0,0.0,20.0,5.0,0.0
1105,61.0,0.0,120.0,15.0,0.0
1106,68.0,0.0,120.0,14.0,0.0
1107,49.0,20.0,20.0,5.0,0.0
1108,76.0,1.0,120.0,13.0,0.0
1109,52.0,20.0,20.0,5.0,0.0
1110,56.0,20.0,20.0,5.0,0.0
1111,85.0,0.0,60.0,5.0,0.0
1112,88.0,0.0,60.0,5.0,0.0
1113,80.0,19.0,60.0,5.0,0.0
1114,61.0,20.0,20.0,5.0,0.0
1115,64.0,20.0,20.0,5.0,0.0
1116,61.0,0.0,20.0,5.0,0.0
1117,73.0,19.0,60.0,13.0,0.0
1118,57.0,0.0,60.0,5.0,0.0
1119,45.0,0.0,60.0,5.0,0.0
1120,69.0,0.0,60.0,14.0,0.0
1121,57.0,0.0,60.0,15.0,0.0
1122,78.0,0.0,60.0,12.0,0.0
1123,85.0,20.0,20.0,5.0,0.0
1124,83.0,20.0,20.0,5.0,0.0
1125,81.0,1.0,20.0,5.0,0.0
1126,80.0,20.0,20.0,5.0,0.0
1127,78.0,20.0,20.0,5.0,0.0
1128,76.0,20.0,20.0,5.0,0.0
1129,75.0,20.0,20.0,5.0,0.0
1130,75.0,0.0,60.0,12.0,0.0
1131,47.0,0.0,60.0,5.0,0.0
1132,59.0,0.0,60.0,15.0,0.0
1133,69.0,0.0,60.0,13.0,0.0
1134,66.0,0.0,60.0,14.0,0.0
1135,59.0,19.0,60.0,5.0,0.0
1136,73.0,20.0,20.0,5.0,0.0
1137,71.0,1.0,20.0,5.0,0.0
1138,69.0,20.0,20.0,5.0,0.0
1139,68.0,20.0,20.0,5.0,0.0
1140,66.0,20.0,20.0,5.0,0.0
1141,64.0,20.0,20.0,5.0,0.0
1142,64.0,0.0,120.0,14.0,0.0
1143,52.0,0.0,120.0,15.0,0.0
1144,40.0,0.0,120.0,5.0,0.0
1145,52.0,0.0,120.0,5.0,0.0
1146,68.0,20.0,120.0,13.0,0.0
1147,76.0,0.0,120.0,12.0,0.0
1148,59.0,20.0,20.0,5.0,0.0
1149,68.0,20.0,20.0,5.0,0.0
1150,66.0,20.0,20.0,5.0,0.0
1151,59.0,20.0,20.0,5.0,0.0
1152,69.0,0.0,20.0,5.0,0.0
1153,68.0,20.0,20.0,5.0,0.0
1154,59.0,20.0,20.0,5.0,0.0
1155,71.0,20.0,20.0,5.0,0.0
1156,35.0,0.0,60.0,5.0,0.0
1157,47.0,20.0,60.0,5.0,0.0
1158,69.0,20.0,20.0,5.0,0.0
1159,66.0,20.0,20.0,5.0,0.0
1160,63.0,0.0,20.0,5.0,0.0
1161,52.0,0.0,120.0,5.0,0.0
1162,64.0,20.0,20.0,5.0,0.0
1163,40.0,0.0,120.0,5.0,0.0
1164,59.0,20.0,20.0,5.0,0.0
1165,68.0,20.0,20.0,5.0,0.0
1166,66.0,20.0,20.0,5.0,0.0
1167,59.0,20.0,20.0,5.0,0.0
1168,69.0,20.0,20.0,5.0,0.0
1169,68.0,20.0,20.0,5.0,0.0
1170,59.0,20.0,20.0,5.0,0.0
1171,71.0,20.0,20.0,5.0,0.0
1172,69.0,20.0,20.0,5.0,0.0
1173,35.0,0.0,60.0,5.0,0.0
1174,47.0,0.0,60.0,5.0,0.0
1175,66.0,20.0,20.0,5.0,0.0
1176,63.0,20.0,20.0,5.0,0.0
1177,52.0,20.0,120.0,5.0,0.0
1178,40.0,0.0,120.0,5.0,0.0
1179,68.0,20.0,20.0,5.0,0.0
1180,64.0,20.0,20.0,5.0,0.0
1181,76.0,20.0,20.0,5.0,0.0
1182,69.0,20.0,20.0,5.0,0.0
1183,66.0,20.0,20.0,5.0,0.0
1184,78.0,0.0,20.0,5.0,0.0
1185,71.0,20.0,20.0,5.0,0.0
1186,68.0,20.0,20.0,5.0,0.0
1187,80.0,20.0,20.0,5.0,0.0
1188,73.0,20.0,20.0,5.0,0.0
1189,69.0,20.0,20.0,5.0,0.0
1190,81.0,20.0,20.0,5.0,0.0
1191,75.0,20.0,20.0,5.0,0.0
1192,71.0,20.0,20.0,5.0,0.0
1193,83.0,20.0,20.0,5.0,0.0
1194,76.0,20.0,20.0,5.0,0.0
1195,73.0,20.0,20.0,5.0,0.0
1196,85.0,20.0,20.0,5.0,0.0
1197,78.0,20.0,20.0,5.0,0.0
1198,75.0,20.0,20.0,5.0,0.0
1199,87.0,20.0,20.0,5.0,0.0
1200,80.0,20.0,20.0,5.0,0.0
1201,76.0,20.0,20.0,5.0,0.0
1202,88.0,20.0,20.0,5.0,0.0
1203,59.0,0.0,120.0,5.0,0.0
1204,47.0,0.0,120.0,5.0,0.0
1205,71.0,20.0,20.0,5.0,0.0
1206,66.0,20.0,20.0,5.0,0.0
1207,75.0,20.0,20.0,5.0,0.0
1208,73.0,20.0,20.0,5.0,0.0
1209,66.0,20.0,20.0,5.0,0.0
1210,76.0,20.0,20.0,5.0,0.0
1211,75.0,20.0,20.0,5.0,0.0
1212,66.0,20.0,20.0,5.0,0.0
1213,78.0,20.0,20.0,5.0,0.0
1214,42.0,20.0,60.0,5.0,0.0
1215,54.0,0.0,60.0,5.0,0.0
1216,76.0,20.0,20.0,5.0,0.0
1217,73.0,20.0,20.0,5.0,0.0
1218,70.0,0.0,20.0,5.0,0.0
1219,71.0,20.0,20.0,5.0,0.0
1220,59.0,0.0,120.0,5.0,0.0
1221,47.0,20.0,120.0,5.0,0.0
1222,66.0,20.0,20.0,5.0,0.0
1223,75.0,20.0,20.0,5.0,0.0
1224,73.0,20.0,20.0,5.0,0.0
1225,66.0,20.0,20.0,5.0,0.0
1226,76.0,0.0,20.0,5.0,0.0
1227,75.0,20.0,20.0,5.0,0.0
1228,66.0,20.0,20.0,5.0,0.0
1229,78.0,20.0,20.0,5.0,0.0
1230,42.0,0.0,60.0,5.0,0.0
1231,76.0,20.0,20.0,5.0,0.0
1232,54.0,20.0,60.0,5.0,0.0
1233,73.0,20.0,20.0,5.0,0.0
1234,70.0,0.0,20.0,5.0,0.0
1235,59.0,0.0,120.0,5.0,0.0
1236,47.0,0.0,120.0,5.0,0.0
1237,75.0,20.0,20.0,5.0,0.0
1238,71.0,20.0,20.0,5.0,0.0
1239,83.0,20.0,20.0,5.0,0.0
1240,76.0,20.0,20.0,5.0,0.0
1241,73.0,20.0,20.0,5.0,0.0
1242,85.0,20.0,20.0,5.0,0.0
1243,78.0,20.0,20.0,5.0,0.0
1244,75.0,20.0,20.0,5.0,0.0
1245,87.0,20.0,20.0,5.0,0.0
1246,80.0,20.0,20.0,5.0,0.0
1247,76.0,20.0,20.0,5.0,0.0
1248,88.0,20.0,20.0,5.0,0.0
1249,81.0,20.0,20.0,5.0,0.0
1250,78.0,20.0,20.0,5.0,0.0
1251,90.0,20.0,20.0,5.0,0.0
1252,83.0,20.0,20.0,5.0,0.0
1253,80.0,20.0,20.0,5.0,0.0
1254,92.0,20.0,20.0,5.0,0.0
1255,85.0,20.0,20.0,5.0,0.0
1256,81.0,20.0,20.0,5.0,0.0
1257,93.0,20.0,20.0,5.0,0.0
1258,87.0,20.0,20.0,5.0,0.0
1259,83.0,20.0,20.0,5.0,0.0
1260,95.0,20.0,20.0,5.0,0.0
1261,71.0,0.0,480.0,13.0,0.0
1262,80.0,0.0,480.0,12.0,0.0
1263,64.0,0.0,480.0,5.0,0.0
1264,64.0,0.0,480.0,14.0,0.0
1265,92.0,20.0,20.0,5.0,0.0
1266,68.0,20.0,480.0,5.0,0.0
1267,64.0,0.0,480.0,15.0,0.0
1268,88.0,20.0,20.0,5.0,0.0
1269,87.0,20.0,20.0,5.0,0.0
1270,88.0,20.0,20.0,5.0,0.0
1271,83.0,20.0,20.0,5.0,0.0
1272,82.0,20.0,20.0,5.0,0.0
1273,83.0,20.0,20.0,5.0,0.0
1274,80.0,20.0,20.0,5.0,0.0
1275,79.0,20.0,20.0,5.0,0.0
1276,80.0,20.0,20.0,5.0,0.0
1277,76.0,20.0,20.0,5.0,0.0
1278,75.0,20.0,20.0,5.0,0.0
1279,76.0,20.0,20.0,5.0,0.0
1280,80.0,20.0,20.0,5.0,0.0
1281,79.0,20.0,20.0,5.0,0.0
1282,80.0,20.0,20.0,5.0,0.0
1283,83.0,20.0,20.0,5.0,0.0
1284,82.0,20.0,20.0,5.0,0.0
1285,83.0,20.0,20.0,5.0,0.0
1286,88.0,20.0,20.0,5.0,0.0
1287,87.0,20.0,20.0,5.0,0.0
1288,88.0,20.0,20.0,5.0,0.0
1289,92.0,20.0,20.0,5.0,0.0
1290,88.0,0.0,20.0,5.0,0.0
1291,63.0,0.0,480.0,15.0,0.0
1292,90.0,20.0,20.0,5.0,0.0
1293,78.0,0.0,480.0,12.0,0.0
1294,63.0,0.0,480.0,5.0,0.0
1295,66.0,0.0,480.0,5.0,0.0
1296,66.0,0.0,480.0,14.0,0.0
1297,71.0,20.0,480.0,13.0,0.0
1298,59.0,0.0,480.0,5.0,0.0
1299,87.0,20.0,20.0,5.0,0.0
1300,86.0,20.0,20.0,5.0,0.0
1301,87.0,20.0,20.0,5.0,0.0
1302,83.0,20.0,20.0,5.0,0.0
1303,82.0,20.0,20.0,5.0,0.0
1304,83.0,20.0,20.0,5.0,0.0
1305,78.0,20.0,20.0,5.0,0.0
1306,77.0,20.0,20.0,5.0,0.0
1307,78.0,20.0,20.0,5.0,0.0
1308,75.0,20.0,20.0,5.0,0.0
1309,74.0,20.0,20.0,5.0,0.0
1310,75.0,20.0,20.0,5.0,0.0
1311,78.0,20.0,20.0,5.0,0.0
1312,77.0,20.0,20.0,5.0,0.0
1313,78.0,20.0,20.0,5.0,0.0
1314,83.0,20.0,20.0,5.0,0.0
1315,82.0,20.0,20.0,5.0,0.0
1316,83.0,20.0,20.0,5.0,0.0
1317,87.0,20.0,20.0,5.0,0.0
1318,86.0,20.0,20.0,5.0,0.0
1319,87.0,20.0,20.0,5.0,0.0
1320,90.0,20.0,20.0,5.0,0.0
1321,87.0,0.0,20.0,5.0,0.0
1322,88.0,20.0,20.0,5.0,0.0
1323,61.0,0.0,240.0,15.0,0.0
1324,71.0,15.0,240.0,13.0,0.0
1325,76.0,0.0,300.0,12.0,0.0
1326,61.0,0.0,480.0,5.0,0.0
1327,64.0,0.0,480.0,5.0,0.0
1328,54.0,0.0,480.0,5.0,0.0
1329,68.0,0.0,240.0,14.0,0.0
1330,58.0,0.0,480.0,5.0,0.0
1331,90.0,20.0,20.0,5.0,0.0
1332,92.0,20.0,20.0,5.0,0.0
1333,90.0,20.0,20.0,5.0,0.0
1334,88.0,20.0,20.0,5.0,0.0
1335,87.0,20.0,20.0,5.0,0.0
1336,85.0,20.0,20.0,5.0,0.0
1337,87.0,20.0,20.0,5.0,0.0
1338,88.0,20.0,20.0,5.0,0.0
1339,87.0,20.0,20.0,5.0,0.0
1340,85.0,20.0,20.0,5.0,0.0
1341,83.0,0.0,20.0,5.0,0.0
1342,66.0,0.0,60.0,14.0,0.0
1343,54.0,0.0,240.0,15.0,0.0
1344,82.0,10.0,20.0,5.0,0.0
1345,71.0,5.0,15.0,13.0,0.0
1346,70.0,10.0,15.0,13.0,0.0
1347,85.0,5.0,20.0,5.0,0.0
1348,71.0,15.0,15.0,13.0,0.0
1349,82.0,0.0,20.0,5.0,0.0
1350,70.0,15.0,15.0,13.0,0.0
1351,71.0,5.0,15.0,13.0,0.0
1352,64.0,0.0,60.0,14.0,0.0
1353,80.0,10.0,20.0,5.0,0.0
1354,80.0,0.0,60.0,12.0,0.0
1355,70.0,10.0,15.0,13.0,0.0
1356,85.0,5.0,20.0,5.0,0.0
1357,71.0,15.0,15.0,13.0,0.0
1358,80.0,0.0,20.0,5.0,0.0
1359,70.0,15.0,15.0,13.0,0.0
1360,71.0,5.0,15.0,13.0,0.0
1361,78.0,0.0,60.0,12.0,0.0
1362,63.0,0.0,60.0,14.0,0.0
1363,78.0,10.0,20.0,5.0,0.0
1364,70.0,10.0,15.0,13.0,0.0
1365,85.0,5.0,20.0,5.0,0.0
1366,71.0,15.0,15.0,13.0,0.0
1367,78.0,20.0,20.0,5.0,0.0
1368,70.0,0.0,15.0,13.0,0.0
1369,68.0,10.0,30.0,13.0,0.0
1370,76.0,10.0,20.0,5.0,0.0
1371,76.0,0.0,60.0,12.0,0.0
1372,61.0,0.0,60.0,14.0,0.0
1373,85.0,20.0,20.0,5.0,0.0
1374,70.0,0.0,30.0,13.0,0.0
1375,76.0,20.0,20.0,5.0,0.0
1376,47.0,0.0,240.0,15.0,0.0
1377,75.0,0.0,120.0,5.0,0.0
1378,71.0,0.0,300.0,13.0,0.0
1379,75.0,20.0,60.0,12.0,0.0
1380,47.0,20.0,20.0,5.0,0.0
1381,59.0,20.0,120.0,14.0,0.0
1382,51.0,20.0,20.0,5.0,0.0
1383,52.0,0.0,20.0,5.0,0.0
1384,78.0,0.0,60.0,12.0,0.0
1385,54.0,20.0,20.0,5.0,0.0
1386,56.0,20.0,20.0,5.0,0.0
1387,58.0,0.0,20.0,5.0,0.0
1388,75.0,20.0,60.0,12.0,0.0
1389,59.0,20.0,20.0,5.0,0.0
1390,61.0,20.0,20.0,5.0,0.0
1391,63.0,0.0,20.0,5.0,0.0
1392,47.0,20.0,20.0,5.0,0.0
1393,71.0,0.0,60.0,12.0,0.0
1394,75.0,0.0,60.0,5.0,0.0
1395,83.0,20.0,120.0,5.0,0.0
1396,68.0,20.0,60.0,14.0,0.0
1397,49.0,20.0,20.0,5.0,0.0
1398,51.0,0.0,20.0,5.0,0.0
1399,49.0,20.0,20.0,5.0,0.0
1400,49.0,0.0,240.0,15.0,0.0
1401,64.0,0.0,60.0,14.0,0.0
1402,76.0,0.0,120.0,5.0,0.0
1403,52.0,20.0,20.0,5.0,0.0
1404,54.0,0.0,20.0,5.0,0.0
1405,56.0,20.0,20.0,5.0,0.0
1406,70.0,20.0,120.0,13.0,0.0
1407,61.0,0.0,60.0,14.0,0.0
1408,82.0,0.0,60.0,5.0,0.0
1409,88.0,0.0,60.0,12.0,0.0
1410,58.0,20.0,20.0,5.0,0.0
1411,59.0,20.0,20.0,5.0,0.0
1412,85.0,0.0,60.0,12.0,0.0
1413,61.0,20.0,20.0,5.0,0.0
1414,63.0,20.0,20.0,5.0,0.0
1415,64.0,0.0,20.0,5.0,0.0
1416,85.0,0.0,120.0,5.0,0.0
1417,76.0,20.0,60.0,5.0,0.0
1418,73.0,0.0,120.0,13.0,0.0
1419,82.0,0.0,60.0,12.0,0.0
1420,49.0,20.0,20.0,5.0,0.0
1421,70.0,0.0,60.0,14.0,0.0
1422,51.0,20.0,20.0,5.0,0.0
1423,52.0,0.0,20.0,5.0,0.0
1424,66.0,20.0,60.0,14.0,0.0
1425,78.0,0.0,120.0,5.0,0.0
1426,51.0,0.0,240.0,15.0,0.0
1427,51.0,20.0,20.0,5.0,0.0
1428,54.0,20.0,20.0,5.0,0.0
1429,56.0,0.0,20.0,5.0,0.0
1430,71.0,0.0,120.0,13.0,0.0
1431,90.0,0.0,60.0,12.0,0.0
1432,83.0,0.0,60.0,5.0,0.0
1433,63.0,0.0,60.0,14.0,0.0
1434,58.0,20.0,20.0,5.0,0.0
1435,59.0,20.0,20.0,5.0,0.0
1436,61.0,20.0,20.0,5.0,0.0
1437,63.0,20.0,20.0,5.0,0.0
1438,87.0,20.0,60.0,12.0,0.0
1439,64.0,20.0,20.0,5.0,0.0
1440,66.0,0.0,20.0,5.0,0.0
1441,75.0,20.0,120.0,13.0,0.0
1442,66.0,0.0,60.0,14.0,0.0
1443,51.0,20.0,20.0,5.0,0.0
1444,87.0,0.0,120.0,5.0,0.0
1445,83.0,0.0,60.0,12.0,0.0
1446,78.0,0.0,60.0,5.0,0.0
1447,52.0,20.0,20.0,5.0,0.0
1448,54.0,20.0,20.0,5.0,0.0
1449,52.0,20.0,20.0,5.0,0.0
1450,52.0,0.0,120.0,15.0,0.0
1451,80.0,0.0,120.0,5.0,0.0
1452,80.0,0.0,120.0,12.0,0.0
1453,64.0,20.0,120.0,14.0,0.0
1454,56.0,20.0,20.0,5.0,0.0
1455,61.0,0.0,20.0,5.0,0.0
1456,73.0,0.0,120.0,13.0,0.0
1457,85.0,20.0,120.0,5.0,0.0
1458,64.0,20.0,20.0,5.0,0.0
1459,63.0,20.0,20.0,5.0,0.0
1460,64.0,0.0,20.0,5.0,0.0
1461,53.0,20.0,20.0,5.0,0.0
1462,73.0,0.0,120.0,5.0,0.0
1463,80.0,0.0,120.0,5.0,0.0
1464,53.0,0.0,120.0,15.0,0.0
1465,73.0,0.0,240.0,12.0,0.0
1466,68.0,0.0,120.0,14.0,0.0
1467,56.0,20.0,20.0,5.0,0.0
1468,61.0,0.0,20.0,5.0,0.0
1469,71.0,0.0,60.0,13.0,0.0
1470,83.0,20.0,60.0,5.0,0.0
1471,65.0,20.0,20.0,5.0,0.0
1472,63.0,20.0,20.0,5.0,0.0
1473,65.0,0.0,20.0,5.0,0.0
1474,90.0,0.0,240.0,3.0,0.0
1475,54.0,20.0,120.0,15.0,0.0
1476,78.0,20.0,240.0,6.0,0.0
1477,70.0,0.0,120.0,13.0,0.0
1478,61.0,0.0,120.0,14.0,0.0
1479,82.0,20.0,20.0,5.0,0.0
1480,66.0,0.0,1080.0,0.0,0.0
1481,54.0,0.0,240.0,5.0,0.0
1482,78.0,20.0,20.0,5.0,0.0
1483,77.0,20.0,20.0,5.0,0.0
1484,75.0,20.0,20.0,5.0,0.0
1485,73.0,20.0,20.0,5.0,0.0
1486,71.0,0.0,20.0,5.0,0.0
1487,70.0,20.0,20.0,5.0,0.0
1488,68.0,20.0,20.0,5.0,0.0
1489,66.0,20.0,20.0,5.0,0.0
1490,82.0,20.0,20.0,5.0,0.0
1491,80.0,20.0,20.0,5.0,0.0
1492,78.0,0.0,20.0,5.0,0.0
1493,89.0,20.0,240.0,3.0,0.0
1494,65.0,0.0,240.0,5.0,0.0
1495,54.0,0.0,240.0,5.0,0.0
1496,80.0,0.0,240.0,6.0,0.0
1497,83.0,20.0,20.0,5.0,0.0
1498,80.0,20.0,20.0,5.0,0.0
1499,78.0,20.0,20.0,5.0,0.0
1500,77.0,20.0,20.0,5.0,0.0
1501,75.0,20.0,20.0,5.0,0.0
1502,73.0,20.0,20.0,5.0,0.0
1503,71.0,20.0,20.0,5.0,0.0
1504,70.0,20.0,20.0,5.0,0.0
1505,68.0,20.0,20.0,5.0,0.0
1506,83.0,20.0,20.0,5.0,0.0
1507,82.0,20.0,20.0,5.0,0.0
1508,80.0,0.0,20.0,5.0,0.0
1509,85.0,20.0,20.0,5.0,0.0
1510,88.0,0.0,240.0,3.0,0.0
1511,64.0,20.0,240.0,5.0,0.0
1512,54.0,0.0,240.0,5.0,0.0
1513,82.0,0.0,240.0,6.0,0.0
1514,82.0,20.0,20.0,5.0,0.0
1515,80.0,20.0,20.0,5.0,0.0
1516,78.0,20.0,20.0,5.0,0.0
1517,76.0,20.0,20.0,5.0,0.0
1518,75.0,20.0,20.0,5.0,0.0
1519,73.0,20.0,20.0,5.0,0.0
1520,71.0,20.0,20.0,5.0,0.0
1521,70.0,20.0,20.0,5.0,0.0
1522,85.0,20.0,20.0,5.0,0.0
1523,83.0,20.0,20.0,5.0,0.0
1524,82.0,0.0,20.0,5.0,0.0
1525,87.0,20.0,20.0,5.0,0.0
1526,83.0,0.0,240.0,6.0,0.0
1527,63.0,0.0,240.0,5.0,0.0
1528,87.0,20.0,240.0,3.0,0.0
1529,54.0,0.0,240.0,5.0,0.0
1530,83.0,20.0,20.0,5.0,0.0
1531,82.0,20.0,20.0,5.0,0.0
1532,80.0,20.0,20.0,5.0,0.0
1533,78.0,20.0,20.0,5.0,0.0
1534,76.0,20.0,20.0,5.0,0.0
1535,75.0,20.0,20.0,5.0,0.0
1536,73.0,20.0,20.0,5.0,0.0
1537,71.0,20.0,20.0,5.0,0.0
1538,87.0,20.0,20.0,5.0,0.0
1539,85.0,20.0,20.0,5.0,0.0
1540,83.0,0.0,20.0,5.0,0.0
1541,88.0,20.0,20.0,5.0,0.0
1542,70.0,0.0,60.0,14.0,0.0
1543,85.0,0.0,120.0,3.0,0.0
1544,58.0,0.0,60.0,5.0,0.0
1545,73.0,0.0,60.0,13.0,0.0
1546,54.0,0.0,60.0,5.0,0.0
1547,61.0,0.0,60.0,5.0,0.0
1548,66.0,20.0,60.0,15.0,0.0
1549,82.0,0.0,120.0,6.0,0.0
1550,76.0,0.0,60.0,12.0,0.0
1551,87.0,20.0,20.0,5.0,0.0
1552,85.0,0.0,20.0,5.0,0.0
1553,83.0,20.0,20.0,5.0,0.0
1554,82.0,20.0,20.0,5.0,0.0
1555,80.0,20.0,20.0,5.0,0.0
1556,73.0,0.0,60.0,5.0,0.0
1557,73.0,0.0,60.0,13.0,0.0
1558,70.0,0.0,60.0,5.0,0.0
1559,76.0,0.0,60.0,12.0,0.0
1560,70.0,0.0,60.0,14.0,0.0
1561,66.0,0.0,60.0,5.0,0.0
1562,66.0,0.0,60.0,15.0,0.0
1563,78.0,20.0,20.0,5.0,0.0
1564,80.0,20.0,20.0,5.0,0.0
1565,82.0,20.0,20.0,5.0,0.0
1566,73.0,0.0,60.0,5.0,0.0
1567,70.0,0.0,60.0,5.0,0.0
1568,66.0,20.0,60.0,5.0,0.0
1569,83.0,20.0,20.0,5.0,0.0
1570,70.0,0.0,60.0,14.0,0.0
1571,76.0,0.0,60.0,12.0,0.0
1572,66.0,0.0,60.0,15.0,0.0
1573,73.0,0.0,60.0,13.0,0.0
1574,85.0,20.0,20.0,5.0,0.0
1575,87.0,0.0,20.0,5.0,0.0
1576,76.0,0.0,60.0,12.0,0.0
1577,88.0,20.0,20.0,5.0,0.0
1578,70.0,0.0,60.0,5.0,0.0
1579,73.0,20.0,60.0,13.0,0.0
1580,70.0,0.0,60.0,14.0,0.0
1581,66.0,0.0,60.0,5.0,0.0
1582,73.0,0.0,60.0,5.0,0.0
1583,66.0,0.0,60.0,15.0,0.0
1584,87.0,20.0,20.0,5.0,0.0
1585,85.0,0.0,20.0,5.0,0.0
1586,83.0,20.0,20.0,5.0,0.0
1587,82.0,20.0,20.0,5.0,0.0
1588,80.0,20.0,20.0,5.0,0.0
1589,70.0,0.0,60.0,5.0,0.0
1590,66.0,20.0,60.0,5.0,0.0
1591,70.0,0.0,60.0,14.0,0.0
1592,78.0,20.0,20.0,5.0,0.0
1593,66.0,0.0,60.0,15.0,0.0
1594,76.0,0.0,60.0,12.0,0.0
1595,73.0,0.0,60.0,5.0,0.0
1596,73.0,0.0,60.0,13.0,0.0
1597,80.0,20.0,20.0,5.0,0.0
1598,82.0,0.0,20.0,5.0,0.0
1599,66.0,0.0,60.0,15.0,0.0
1600,76.0,0.0,60.0,12.0,0.0
1601,83.0,20.0,20.0,5.0,0.0
1602,73.0,0.0,60.0,13.0,0.0
1603,66.0,0.0,60.0,5.0,0.0
1604,70.0,0.0,60.0,5.0,0.0
1605,70.0,0.0,60.0,14.0,0.0
1606,73.0,20.0,60.0,5.0,0.0
1607,85.0,20.0,20.0,5.0,0.0
1608,87.0,0.0,20.0,5.0,0.0
1609,70.0,0.0,60.0,14.0,0.0
1610,66.0,0.0,60.0,15.0,0.0
1611,70.0,20.0,60.0,5.0,0.0
1612,73.0,0.0,60.0,13.0,0.0
1613,76.0,0.0,60.0,12.0,0.0
1614,88.0,20.0,20.0,5.0,0.0
1615,73.0,0.0,60.0,5.0,0.0
1616,66.0,0.0,60.0,5.0,0.0
1617,84.0,20.0,20.0,5.0,0.0
1618,85.0,0.0,20.0,5.0,0.0
1619,66.0,0.0,60.0,5.0,0.0
1620,73.0,0.0,60.0,5.0,0.0
1621,76.0,0.0,60.0,12.0,0.0
1622,70.0,0.0,60.0,5.0,0.0
1623,66.0,0.0,60.0,15.0,0.0
1624,88.0,40.0,20.0,5.0,0.0
1625,73.0,0.0,60.0,13.0,0.0
1626,70.0,20.0,60.0,14.0,0.0
1627,85.0,0.0,20.0,5.0,0.0
1628,73.0,0.0,60.0,13.0,0.0
1629,90.0,0.0,20.0,5.0,0.0
1630,88.0,20.0,20.0,5.0,0.0
1631,66.0,0.0,60.0,15.0,0.0
1632,76.0,0.0,60.0,12.0,0.0
1633,70.0,0.0,60.0,14.0,0.0
1634,66.0,0.0,60.0,5.0,0.0
1635,70.0,20.0,60.0,5.0,0.0
1636,73.0,0.0,60.0,5.0,0.0
1637,84.0,20.0,20.0,5.0,0.0
1638,85.0,0.0,20.0,5.0,0.0
1639,88.0,20.0,20.0,5.0,0.0
1640,73.0,0.0,60.0,5.0,0.0
1641,73.0,0.0,60.0,13.0,0.0
1642,76.0,0.0,60.0,12.0,0.0
1643,70.0,0.0,60.0,14.0,0.0
1644,66.0,0.0,60.0,5.0,0.0
1645,70.0,0.0,60.0,5.0,0.0
1646,66.0,60.0,60.0,15.0,0.0
1647,84.0,20.0,20.0,5.0,0.0
1648,85.0,0.0,20.0,5.0,0.0
1649,66.0,0.0,60.0,5.0,0.0
1650,76.0,0.0,120.0,12.0,0.0
1651,73.0,0.0,120.0,13.0,0.0
1652,66.0,0.0,120.0,15.0,0.0
1653,70.0,0.0,120.0,14.0,0.0
1654,70.0,39.0,60.0,5.0,0.0
1655,88.0,1.0,60.0,5.0,0.0
1656,73.0,0.0,60.0,5.0,0.0
1657,84.0,20.0,20.0,5.0,0.0
1658,85.0,60.0,20.0,5.0,0.0
1659,66.0,0.0,60.0,5.0,0.0
1660,73.0,39.0,60.0,5.0,0.0
1661,88.0,1.0,60.0,5.0,0.0
1662,70.0,0.0,60.0,5.0,0.0
1663,84.0,20.0,20.0,5.0,0.0
1664,85.0,61.0,20.0,5.0,0.0
1665,70.0,0.0,60.0,5.0,0.0
1666,66.0,0.0,60.0,5.0,0.0
1667,73.0,0.0,60.0,5.0,0.0
1668,88.0,120.0,60.0,5.0,0.0
1669,88.0,120.0,60.0,5.0,0.0
1670,88.0,119.0,60.0,5.0,0.0
1671,88.0,60.0,60.0,5.0,0.0
1672,88.0,30.0,60.0,5.0,0.0
1673,59.0,0.0,30.0,5.0,0.0
1674,88.0,30.0,30.0,5.0,0.0
1675,87.0,30.0,30.0,5.0,0.0
1676,66.0,0.0,30.0,5.0,0.0
1677,63.0,30.0,30.0,5.0,0.0
1678,85.0,0.0,30.0,5.0,0.0
1679,83.0,0.0,30.0,5.0,0.0
1680,66.0,30.0,30.0,5.0,0.0
1681,82.0,30.0,30.0,5.0,0.0
1682,61.0,0.0,30.0,5.0,0.0
1683,83.0,0.0,30.0,5.0,0.0
1684,66.0,30.0,30.0,5.0,0.0
1685,85.0,0.0,30.0,5.0,0.0
1686,64.0,30.0,30.0,5.0,0.0
1687,66.0,30.0,30.0,5.0,0.0
1688,82.0,0.0,30.0,5.0,0.0
1689,78.0,0.0,120.0,5.0,0.0
1690,63.0,30.0,30.0,5.0,0.0
1691,66.0,30.0,30.0,5.0,0.0
1692,59.0,30.0,30.0,5.0,0.0
1693,66.0,30.0,30.0,5.0,0.0
1694,76.0,0.0,30.0,5.0,0.0
1695,61.0,30.0,30.0,5.0,0.0
1696,78.0,30.0,30.0,5.0,0.0
1697,66.0,0.0,30.0,5.0,0.0
1698,58.0,30.0,30.0,5.0,0.0
1699,80.0,0.0,30.0,5.0,0.0
1700,66.0,30.0,30.0,5.0,0.0
1701,76.0,0.0,30.0,5.0,0.0
1702,59.0,30.0,30.0,5.0,0.0
1703,75.0,0.0,30.0,5.0,0.0
1704,76.0,30.0,30.0,5.0,0.0
1705,66.0,0.0,30.0,5.0,0.0
1706,51.0,30.0,30.0,5.0,0.0
1707,78.0,0.0,30.0,5.0,0.0
1708,75.0,0.0,30.0,5.0,0.0
1709,54.0,30.0,30.0,5.0,0.0
1710,52.0,30.0,30.0,5.0,0.0
1711,73.0,0.0,30.0,5.0,0.0
1712,75.0,0.0,30.0,5.0,0.0
1713,56.0,30.0,30.0,5.0,0.0
1714,76.0,0.0,30.0,5.0,0.0
1715,49.0,30.0,30.0,5.0,0.0
1716,73.0,0.0,30.0,5.0,0.0
1717,52.0,30.0,30.0,5.0,0.0
1718,71.0,0.0,30.0,5.0,0.0
1719,78.0,0.0,600.0,12.0,0.0
1720,54.0,30.0,30.0,5.0,0.0
1721,70.0,0.0,30.0,5.0,0.0
1722,58.0,30.0,30.0,5.0,0.0
1723,68.0,0.0,30.0,5.0,0.0
1724,56.0,30.0,30.0,5.0,0.0
1725,59.0,0.0,30.0,5.0,0.0
1726,66.0,30.0,30.0,5.0,0.0
1727,88.0,30.0,60.0,5.0,0.0
1728,58.0,30.0,30.0,5.0,0.0
1729,61.0,0.0,30.0,5.0,0.0
1730,88.0,30.0,60.0,5.0,0.0
1731,54.0,30.0,30.0,5.0,0.0
1732,58.0,0.0,30.0,5.0,0.0
1733,88.0,0.0,30.0,5.0,0.0
1734,75.0,0.0,120.0,14.0,0.0
1735,47.0,30.0,30.0,5.0,0.0
1736,59.0,0.0,120.0,15.0,0.0
1737,78.0,0.0,120.0,13.0,0.0
1738,87.0,0.0,30.0,5.0,0.0
1739,51.0,30.0,30.0,5.0,0.0
1740,54.0,0.0,30.0,5.0,0.0
1741,85.0,30.0,30.0,5.0,0.0
1742,83.0,0.0,30.0,5.0,0.0
1743,59.0,30.0,30.0,5.0,0.0
1744,49.0,0.0,30.0,5.0,0.0
1745,73.0,0.0,120.0,14.0,0.0
1746,61.0,30.0,120.0,15.0,0.0
1747,76.0,0.0,120.0,13.0,0.0
1748,82.0,30.0,30.0,5.0,0.0
1749,52.0,30.0,30.0,5.0,0.0
1750,83.0,0.0,30.0,5.0,0.0
1751,85.0,0.0,30.0,5.0,0.0
1752,58.0,30.0,30.0,5.0,0.0
1753,82.0,0.0,30.0,5.0,0.0
1754,61.0,0.0,30.0,5.0,0.0
1755,71.0,0.0,180.0,14.0,0.0
1756,63.0,30.0,60.0,15.0,0.0
1757,78.0,0.0,120.0,5.0,0.0
1758,75.0,0.0,180.0,13.0,0.0
1759,51.0,30.0,30.0,5.0,0.0
1760,63.0,0.0,30.0,5.0,0.0
1761,59.0,0.0,60.0,15.0,0.0
1762,47.0,30.0,30.0,5.0,0.0
1763,59.0,30.0,30.0,5.0,0.0
1764,76.0,0.0,30.0,5.0,0.0
1765,56.0,0.0,60.0,15.0,0.0
1766,76.0,0.0,120.0,12.0,0.0
1767,44.0,30.0,30.0,5.0,0.0
1768,78.0,0.0,30.0,5.0,0.0
1769,56.0,30.0,30.0,5.0,0.0
1770,46.0,0.0,30.0,5.0,0.0
1771,80.0,30.0,30.0,5.0,0.0
1772,66.0,30.0,180.0,14.0,0.0
1773,58.0,0.0,60.0,15.0,0.0
1774,73.0,0.0,120.0,13.0,0.0
1775,58.0,30.0,30.0,5.0,0.0
1776,76.0,0.0,30.0,5.0,0.0
1777,75.0,0.0,120.0,12.0,0.0
1778,75.0,30.0,30.0,5.0,0.0
1779,47.0,0.0,30.0,5.0,0.0
1780,59.0,30.0,60.0,15.0,0.0
1781,59.0,0.0,30.0,5.0,0.0
1782,76.0,0.0,30.0,5.0,0.0
1783,71.0,0.0,120.0,13.0,0.0
1784,51.0,0.0,30.0,5.0,0.0
1785,78.0,30.0,30.0,5.0,0.0
1786,51.0,0.0,60.0,15.0,0.0
1787,75.0,0.0,30.0,5.0,0.0
1788,39.0,0.0,30.0,5.0,0.0
1789,73.0,30.0,30.0,5.0,0.0
1790,52.0,0.0,60.0,15.0,0.0
1791,40.0,0.0,30.0,5.0,0.0
1792,73.0,0.0,120.0,12.0,0.0
1793,68.0,0.0,60.0,14.0,0.0
1794,75.0,30.0,30.0,5.0,0.0
1795,52.0,0.0,30.0,5.0,0.0
1796,42.0,30.0,30.0,5.0,0.0
1797,70.0,20.0,60.0,13.0,0.0
1798,64.0,0.0,60.0,14.0,0.0
1799,76.0,0.0,30.0,5.0,0.0
1800,54.0,0.0,60.0,15.0,0.0
1801,54.0,0.0,30.0,5.0,0.0
1802,73.0,0.0,30.0,5.0,0.0
1803,47.0,0.0,60.0,5.0,0.0
1804,63.0,0.0,30.0,14.0,0.0
1805,71.0,10.0,20.0,5.0,0.0
1806,71.0,1.0,30.0,12.0,0.0
1807,47.0,9.0,30.0,15.0,0.0
1808,71.0,20.0,60.0,13.0,0.0
1809,78.0,20.0,20.0,5.0,0.0
1810,75.0,0.0,30.0,12.0,0.0
1811,59.0,0.0,30.0,14.0,0.0
1812,76.0,0.0,20.0,5.0,0.0
1813,51.0,9.0,30.0,15.0,0.0
1814,78.0,0.0,1440.0,12.0,0.0
1815,54.0,0.0,1440.0,14.0,0.0
1816,75.0,11.0,20.0,5.0,0.0
1817,66.0,0.0,1440.0,13.0,0.0
1818,73.0,20.0,20.0,5.0,0.0
1819,71.0,20.0,20.0,5.0,0.0
1820,70.0,11.0,20.0,5.0,0.0
1821,76.0,20.0,60.0,6.0,0.0
1822,54.0,9.0,30.0,15.0,0.0
1823,88.0,0.0,60.0,3.0,0.0
1824,68.0,20.0,20.0,5.0,0.0
1825,66.0,0.0,20.0,5.0,0.0
1826,58.0,9.0,30.0,15.0,0.0
1827,88.0,0.0,60.0,3.0,0.0
1828,64.0,11.0,20.0,5.0,0.0
1829,76.0,20.0,60.0,6.0,0.0
1830,63.0,20.0,20.0,5.0,0.0
1831,61.0,0.0,20.0,5.0,0.0
1832,59.0,10.0,20.0,5.0,0.0
1833,76.0,0.0,30.0,6.0,0.0
1834,59.0,9.0,30.0,15.0,0.0
1835,88.0,1.0,30.0,3.0,0.0
1836,66.0,20.0,20.0,5.0,0.0
1837,75.0,0.0,30.0,6.0,0.0
1838,87.0,0.0,30.0,3.0,0.0
1839,64.0,20.0,20.0,5.0,0.0
1840,85.0,1.0,30.0,3.0,0.0
1841,73.0,0.0,30.0,6.0,0.0
1842,63.0,10.0,20.0,5.0,0.0
1843,63.0,9.0,30.0,15.0,0.0
1844,61.0,20.0,20.0,5.0,0.0
1845,83.0,0.0,30.0,3.0,0.0
1846,71.0,0.0,30.0,6.0,0.0
1847,59.0,20.0,20.0,5.0,0.0
1848,82.0,0.0,30.0,3.0,0.0
1849,66.0,9.0,30.0,15.0,0.0
1850,70.0,1.0,30.0,6.0,0.0
1851,58.0,10.0,20.0,5.0,0.0
1852,56.0,20.0,20.0,5.0,0.0
1853,83.0,20.0,30.0,3.0,0.0
1854,71.0,0.0,30.0,6.0,0.0
1855,54.0,0.0,20.0,5.0,0.0
1856,85.0,0.0,30.0,3.0,0.0
1857,64.0,9.0,30.0,15.0,0.0
1858,73.0,1.0,30.0,6.0,0.0
1859,52.0,10.0,20.0,5.0,0.0
1860,51.0,20.0,20.0,5.0,0.0
1861,82.0,20.0,30.0,3.0,0.0
1862,70.0,0.0,30.0,6.0,0.0
1863,49.0,0.0,20.0,5.0,0.0
1864,47.0,11.0,20.0,5.0,0.0
1865,63.0,9.0,30.0,15.0,0.0
1866,78.0,20.0,120.0,3.0,0.0
1867,66.0,0.0,120.0,6.0,0.0
1868,54.0,20.0,20.0,5.0,0.0
1869,52.0,20.0,20.0,5.0,0.0
1870,51.0,11.0,20.0,5.0,0.0
1871,59.0,9.0,30.0,15.0,0.0
1872,49.0,20.0,20.0,5.0,0.0
1873,47.0,0.0,20.0,5.0,0.0
1874,46.0,10.0,20.0,5.0,0.0
1875,64.0,0.0,30.0,0.0,0.0
1876,61.0,9.0,30.0,15.0,0.0
1877,76.0,1.0,30.0,6.0,0.0
1878,44.0,20.0,20.0,5.0,0.0
1879,78.0,0.0,30.0,6.0,0.0
1880,66.0,0.0,30.0,0.0,0.0
1881,42.0,20.0,20.0,5.0,0.0
1882,40.0,10.0,20.0,5.0,0.0
1883,80.0,0.0,30.0,6.0,0.0
1884,68.0,1.0,30.0,0.0,0.0
1885,58.0,9.0,30.0,15.0,0.0
1886,39.0,20.0,20.0,5.0,0.0
1887,64.0,0.0,30.0,0.0,0.0
1888,76.0,0.0,30.0,6.0,0.0
1889,37.0,20.0,20.0,5.0,0.0
1890,63.0,0.0,30.0,0.0,0.0
1891,35.0,10.0,20.0,5.0,0.0
1892,59.0,9.0,30.0,15.0,0.0
1893,75.0,1.0,30.0,6.0,0.0
1894,39.0,20.0,20.0,5.0,0.0
1895,76.0,0.0,30.0,6.0,0.0
1896,64.0,0.0,30.0,0.0,0.0
1897,42.0,20.0,20.0,5.0,0.0
1898,78.0,0.0,30.0,6.0,0.0
1899,51.0,9.0,30.0,15.0,0.0
1900,66.0,1.0,30.0,0.0,0.0
1901,47.0,10.0,20.0,5.0,0.0
1902,46.0,20.0,20.0,5.0,0.0
1903,75.0,0.0,30.0,6.0,0.0
1904,63.0,20.0,30.0,0.0,0.0
1905,47.0,0.0,20.0,5.0,0.0
1906,40.0,10.0,20.0,5.0,0.0
1907,73.0,0.0,30.0,6.0,0.0
1908,52.0,9.0,30.0,15.0,0.0
1909,61.0,1.0,30.0,0.0,0.0
1910,44.0,20.0,20.0,5.0,0.0
1911,75.0,0.0,30.0,6.0,0.0
1912,63.0,0.0,30.0,0.0,0.0
1913,49.0,20.0,20.0,5.0,0.0
1914,49.0,9.0,30.0,15.0,0.0
1915,52.0,10.0,20.0,5.0,0.0
1916,76.0,1.0,30.0,6.0,0.0
1917,64.0,0.0,30.0,0.0,0.0
1918,51.0,20.0,20.0,5.0,0.0
1919,73.0,0.0,30.0,6.0,0.0
1920,61.0,20.0,30.0,0.0,0.0
1921,52.0,0.0,20.0,5.0,0.0
1922,54.0,9.0,30.0,15.0,0.0
1923,42.0,10.0,20.0,5.0,0.0
1924,59.0,1.0,30.0,0.0,0.0
1925,71.0,0.0,30.0,6.0,0.0
1926,46.0,20.0,20.0,5.0,0.0
1927,58.0,0.0,30.0,0.0,0.0
1928,70.0,0.0,30.0,6.0,0.0
1929,49.0,20.0,20.0,5.0,0.0
1930,56.0,1.0,30.0,0.0,0.0
1931,58.0,9.0,30.0,15.0,0.0
1932,68.0,0.0,30.0,6.0,0.0
1933,54.0,10.0,20.0,5.0,0.0
1934,53.0,20.0,20.0,5.0,0.0
1935,54.0,0.0,30.0,0.0,0.0
1936,66.0,0.0,30.0,6.0,0.0
1937,54.0,20.0,20.0,5.0,0.0
1938,76.0,0.0,60.0,6.0,0.0
1939,66.0,11.0,20.0,5.0,0.0
1940,88.0,20.0,60.0,3.0,0.0
1941,61.0,9.0,30.0,15.0,0.0
1942,70.0,20.0,20.0,5.0,0.0
1943,73.0,0.0,20.0,5.0,0.0
1944,78.0,11.0,20.0,5.0,0.0
1945,58.0,9.0,30.0,15.0,0.0
1946,88.0,0.0,60.0,3.0,0.0
1947,76.0,20.0,60.0,6.0,0.0
1948,82.0,20.0,20.0,5.0,0.0
1949,85.0,0.0,20.0,5.0,0.0
1950,66.0,10.0,20.0,5.0,0.0
1951,59.0,9.0,30.0,15.0,0.0
1952,88.0,1.0,30.0,3.0,0.0
1953,76.0,0.0,30.0,6.0,0.0
1954,71.0,20.0,20.0,5.0,0.0
1955,75.0,0.0,30.0,6.0,0.0
1956,87.0,0.0,30.0,3.0,0.0
1957,75.0,20.0,20.0,5.0,0.0
1958,78.0,10.0,20.0,5.0,0.0
1959,85.0,0.0,30.0,3.0,0.0
1960,63.0,9.0,30.0,15.0,0.0
1961,73.0,1.0,30.0,6.0,0.0
1962,83.0,20.0,20.0,5.0,0.0
1963,71.0,20.0,30.0,6.0,0.0
1964,83.0,0.0,30.0,3.0,0.0
1965,87.0,0.0,20.0,5.0,0.0
1966,66.0,9.0,30.0,15.0,0.0
1967,70.0,1.0,30.0,6.0,0.0
1968,70.0,10.0,20.0,5.0,0.0
1969,82.0,0.0,30.0,3.0,0.0
1970,73.0,20.0,20.0,5.0,0.0
1971,83.0,0.0,30.0,3.0,0.0
1972,71.0,0.0,30.0,6.0,0.0
1973,76.0,20.0,20.0,5.0,0.0
1974,64.0,9.0,30.0,15.0,0.0
1975,73.0,1.0,30.0,6.0,0.0
1976,85.0,0.0,30.0,3.0,0.0
1977,82.0,10.0,20.0,5.0,0.0
1978,85.0,20.0,20.0,5.0,0.0
1979,82.0,20.0,30.0,3.0,0.0
1980,70.0,0.0,30.0,6.0,0.0
1981,88.0,0.0,20.0,5.0,0.0
1982,63.0,9.0,30.0,15.0,0.0
1983,78.0,1.0,120.0,6.0,0.0
1984,90.0,0.0,120.0,3.0,0.0
1985,71.0,11.0,20.0,5.0,0.0
1986,66.0,0.0,120.0,0.0,0.0
1987,75.0,20.0,20.0,5.0,0.0
1988,78.0,20.0,20.0,5.0,0.0
1989,87.0,0.0,60.0,12.0,0.0
1990,83.0,11.0,20.0,5.0,0.0
1991,71.0,0.0,60.0,14.0,0.0
1992,78.0,19.0,60.0,13.0,0.0
1993,59.0,9.0,30.0,15.0,0.0
1994,87.0,20.0,20.0,5.0,0.0
1995,90.0,0.0,20.0,5.0,0.0
1996,76.0,1.0,30.0,6.0,0.0
1997,56.0,9.0,30.0,15.0,0.0
1998,64.0,0.0,30.0,0.0,0.0
1999,76.0,10.0,20.0,5.0,0.0
2000,88.0,0.0,30.0,3.0,0.0
2001,56.0,0.0,60.0,5.0,0.0
2002,88.0,20.0,20.0,5.0,0.0
2003,78.0,0.0,30.0,6.0,0.0
2004,66.0,0.0,30.0,0.0,0.0
2005,90.0,20.0,30.0,3.0,0.0
2006,87.0,0.0,20.0,5.0,0.0
2007,68.0,0.0,30.0,0.0,0.0
2008,80.0,1.0,30.0,6.0,0.0
2009,58.0,9.0,30.0,15.0,0.0
2010,85.0,19.0,60.0,12.0,0.0
2011,92.0,0.0,30.0,3.0,0.0
2012,58.0,1.0,60.0,5.0,0.0
2013,66.0,0.0,60.0,14.0,0.0
2014,76.0,0.0,60.0,13.0,0.0
2015,88.0,10.0,20.0,5.0,0.0
2016,76.0,20.0,20.0,5.0,0.0
2017,88.0,0.0,30.0,3.0,0.0
2018,64.0,0.0,30.0,0.0,0.0
2019,76.0,0.0,30.0,6.0,0.0
2020,85.0,0.0,20.0,5.0,0.0
2021,75.0,10.0,20.0,5.0,0.0
2022,87.0,0.0,30.0,3.0,0.0
2023,59.0,9.0,30.0,15.0,0.0
2024,59.0,0.0,60.0,5.0,0.0
2025,75.0,0.0,30.0,6.0,0.0
2026,63.0,1.0,30.0,0.0,0.0
2027,87.0,20.0,20.0,5.0,0.0
2028,76.0,0.0,30.0,6.0,0.0
2029,88.0,20.0,30.0,3.0,0.0
2030,64.0,0.0,30.0,0.0,0.0
2031,85.0,0.0,20.0,5.0,0.0
2032,66.0,0.0,30.0,0.0,0.0
2033,90.0,1.0,30.0,3.0,0.0
2034,75.0,19.0,60.0,13.0,0.0
2035,68.0,0.0,60.0,14.0,0.0
2036,56.0,9.0,30.0,15.0,0.0
2037,83.0,0.0,60.0,12.0,0.0
2038,56.0,0.0,60.0,5.0,0.0
2039,78.0,0.0,30.0,6.0,0.0
2040,75.0,10.0,20.0,5.0,0.0
2041,87.0,20.0,20.0,5.0,0.0
2042,87.0,0.0,30.0,3.0,0.0
2043,75.0,1.0,30.0,6.0,0.0
2044,63.0,0.0,30.0,0.0,0.0
2045,83.0,0.0,20.0,5.0,0.0
2046,85.0,0.0,30.0,3.0,0.0
2047,73.0,10.0,20.0,5.0,0.0
2048,52.0,0.0,60.0,5.0,0.0
2049,61.0,0.0,30.0,0.0,0.0
2050,52.0,9.0,30.0,15.0,0.0
2051,73.0,1.0,30.0,6.0,0.0
2052,85.0,20.0,20.0,5.0,0.0
2053,63.0,20.0,30.0,0.0,0.0
2054,75.0,0.0,30.0,6.0,0.0
2055,87.0,0.0,30.0,3.0,0.0
2056,83.0,0.0,20.0,5.0,0.0
2057,54.0,9.0,30.0,15.0,0.0
2058,64.0,1.0,30.0,0.0,0.0
2059,88.0,0.0,30.0,3.0,0.0
2060,76.0,0.0,30.0,6.0,0.0
2061,82.0,19.0,60.0,12.0,0.0
2062,64.0,1.0,60.0,14.0,0.0
2063,73.0,0.0,60.0,13.0,0.0
2064,73.0,10.0,20.0,5.0,0.0
2065,54.0,0.0,60.0,5.0,0.0
2066,85.0,20.0,20.0,5.0,0.0
2067,61.0,0.0,30.0,0.0,0.0
2068,73.0,0.0,30.0,6.0,0.0
2069,85.0,0.0,30.0,3.0,0.0
2070,82.0,0.0,20.0,5.0,0.0
2071,47.0,0.0,960.0,15.0,0.0
2072,71.0,20.0,120.0,6.0,0.0
2073,83.0,0.0,120.0,3.0,0.0
2074,47.0,0.0,240.0,5.0,0.0
2075,59.0,0.0,5160.0,7.0,0.0
2076,71.0,0.0,5160.0,7.0,0.0
2077,63.0,0.0,240.0,14.0,0.0
2078,59.0,0.0,240.0,5.0,0.0
2079,83.0,20.0,20.0,5.0,0.0
2080,71.0,0.0,240.0,13.0,0.0
2081,71.0,0.0,240.0,12.0,0.0
2082,59.0,0.0,120.0,0.0,0.0
2083,71.0,20.0,20.0,5.0,0.0
2084,70.0,20.0,20.0,5.0,0.0
2085,71.0,20.0,20.0,5.0,0.0
2086,73.0,20.0,20.0,5.0,0.0
2087,75.0,0.0,20.0,5.0,0.0
2088,76.0,20.0,20.0,5.0,0.0
2089,78.0,20.0,20.0,5.0,0.0
2090,80.0,20.0,20.0,5.0,0.0
2091,81.0,20.0,20.0,5.0,0.0
2092,82.0,20.0,20.0,5.0,0.0
2093,83.0,20.0,20.0,5.0,0.0
2094,73.0,0.0,240.0,12.0,0.0
2095,70.0,0.0,240.0,13.0,0.0
2096,85.0,20.0,20.0,5.0,0.0
2097,59.0,0.0,240.0,5.0,0.0
2098,70.0,0.0,240.0,5.0,0.0
2099,64.0,20.0,240.0,14.0,0.0
2100,73.0,20.0,20.0,5.0,0.0
2101,72.0,20.0,20.0,5.0,0.0
2102,73.0,20.0,20.0,5.0,0.0
2103,75.0,20.0,20.0,5.0,0.0
2104,76.0,20.0,20.0,5.0,0.0
2105,78.0,20.0,20.0,5.0,0.0
2106,80.0,20.0,20.0,5.0,0.0
2107,82.0,20.0,20.0,5.0,0.0
2108,83.0,20.0,20.0,5.0,0.0
2109,85.0,20.0,20.0,5.0,0.0
2110,86.0,0.0,20.0,5.0,0.0
2111,66.0,0.0,240.0,14.0,0.0
2112,69.0,0.0,240.0,5.0,0.0
2113,59.0,20.0,240.0,5.0,0.0
2114,87.0,20.0,20.0,5.0,0.0
2115,75.0,0.0,240.0,12.0,0.0
2116,69.0,0.0,240.0,13.0,0.0
2117,75.0,20.0,20.0,5.0,0.0
2118,74.0,20.0,20.0,5.0,0.0
2119,75.0,20.0,20.0,5.0,0.0
2120,76.0,20.0,20.0,5.0,0.0
2121,78.0,20.0,20.0,5.0,0.0
2122,80.0,20.0,20.0,5.0,0.0
2123,81.0,20.0,20.0,5.0,0.0
2124,83.0,20.0,20.0,5.0,0.0
2125,85.0,20.0,20.0,5.0,0.0
2126,86.0,20.0,20.0,5.0,0.0
2127,87.0,0.0,20.0,5.0,0.0
2128,88.0,20.0,20.0,5.0,0.0
2129,68.0,0.0,240.0,13.0,0.0
2130,68.0,0.0,240.0,5.0,0.0
2131,59.0,20.0,240.0,5.0,0.0
2132,64.0,0.0,240.0,14.0,0.0
2133,76.0,0.0,240.0,12.0,0.0
2134,76.0,20.0,20.0,5.0,0.0
2135,75.0,20.0,20.0,5.0,0.0
2136,76.0,20.0,20.0,5.0,0.0
2137,78.0,20.0,20.0,5.0,0.0
2138,80.0,20.0,20.0,5.0,0.0
2139,81.0,20.0,20.0,5.0,0.0
2140,83.0,20.0,20.0,5.0,0.0
2141,85.0,20.0,20.0,5.0,0.0
2142,87.0,20.0,20.0,5.0,0.0
2143,88.0,20.0,20.0,5.0,0.0
2144,89.0,0.0,20.0,5.0,0.0
2145,69.0,20.0,60.0,14.0,0.0
2146,89.0,20.0,20.0,5.0,0.0
2147,59.0,0.0,120.0,15.0,0.0
2148,47.0,0.0,120.0,5.0,0.0
2149,78.0,0.0,60.0,13.0,0.0
2150,90.0,20.0,20.0,5.0,0.0
2151,93.0,0.0,20.0,5.0,0.0
2152,76.0,0.0,60.0,13.0,0.0
2153,88.0,20.0,20.0,5.0,0.0
2154,68.0,20.0,60.0,14.0,0.0
2155,69.0,0.0,60.0,12.0,0.0
2156,90.0,20.0,20.0,5.0,0.0
2157,93.0,0.0,20.0,5.0,0.0
2158,66.0,0.0,60.0,14.0,0.0
2159,75.0,20.0,60.0,13.0,0.0
2160,87.0,20.0,20.0,5.0,0.0
2161,81.0,0.0,60.0,12.0,0.0
2162,90.0,20.0,20.0,5.0,0.0
2163,93.0,0.0,20.0,5.0,0.0
2164,85.0,11.0,20.0,5.0,0.0
2165,81.0,9.0,30.0,12.0,0.0
2166,64.0,20.0,60.0,14.0,0.0
2167,73.0,0.0,60.0,13.0,0.0
2168,90.0,20.0,20.0,5.0,0.0
2169,93.0,0.0,20.0,5.0,0.0
2170,63.0,0.0,60.0,14.0,0.0
2171,81.0,0.0,300.0,12.0,0.0
2172,71.0,20.0,60.0,13.0,0.0
2173,83.0,20.0,20.0,5.0,0.0
2174,90.0,20.0,20.0,5.0,0.0
2175,93.0,0.0,20.0,5.0,0.0
2176,64.0,0.0,60.0,14.0,0.0
2177,85.0,20.0,20.0,5.0,0.0
2178,73.0,0.0,60.0,13.0,0.0
2179,90.0,20.0,20.0,5.0,0.0
2180,93.0,20.0,20.0,5.0,0.0
2181,75.0,0.0,60.0,13.0,0.0
2182,66.0,0.0,60.0,14.0,0.0
2183,87.0,20.0,20.0,5.0,0.0
2184,90.0,20.0,20.0,5.0,0.0
2185,93.0,20.0,20.0,5.0,0.0
2186,76.0,0.0,60.0,13.0,0.0
2187,68.0,20.0,60.0,14.0,0.0
2188,88.0,20.0,20.0,5.0,0.0
2189,90.0,20.0,20.0,5.0,0.0
2190,93.0,0.0,20.0,5.0,0.0
2191,78.0,0.0,60.0,13.0,0.0
2192,59.0,0.0,120.0,15.0,0.0
2193,89.0,20.0,20.0,5.0,0.0
2194,69.0,0.0,60.0,14.0,0.0
2195,47.0,0.0,120.0,5.0,0.0
2196,90.0,20.0,20.0,5.0,0.0
2197,93.0,20.0,20.0,5.0,0.0
2198,76.0,0.0,60.0,13.0,0.0
2199,71.0,0.0,60.0,6.0,0.0
2200,88.0,20.0,20.0,5.0,0.0
2201,68.0,20.0,60.0,14.0,0.0
2202,69.0,0.0,60.0,12.0,0.0
2203,90.0,20.0,20.0,5.0,0.0
2204,93.0,0.0,20.0,5.0,0.0
2205,81.0,0.0,60.0,12.0,0.0
2206,75.0,0.0,60.0,13.0,0.0
2207,66.0,0.0,60.0,14.0,0.0
2208,83.0,0.0,60.0,6.0,0.0
2209,87.0,20.0,20.0,5.0,0.0
2210,90.0,20.0,20.0,5.0,0.0
2211,93.0,20.0,20.0,5.0,0.0
2212,64.0,20.0,60.0,14.0,0.0
2213,81.0,0.0,60.0,12.0,0.0
2214,83.0,0.0,60.0,6.0,0.0
2215,73.0,0.0,60.0,13.0,0.0
2216,85.0,20.0,20.0,5.0,0.0
2217,90.0,20.0,20.0,5.0,0.0
2218,93.0,0.0,20.0,5.0,0.0
2219,83.0,20.0,20.0,5.0,0.0
2220,81.0,0.0,300.0,12.0,0.0
2221,83.0,0.0,300.0,6.0,0.0
2222,71.0,0.0,60.0,13.0,0.0
2223,63.0,20.0,60.0,14.0,0.0
2224,90.0,20.0,20.0,5.0,0.0
2225,93.0,0.0,20.0,5.0,0.0
2226,85.0,20.0,20.0,5.0,0.0
2227,64.0,20.0,60.0,14.0,0.0
2228,73.0,0.0,60.0,13.0,0.0
2229,90.0,20.0,20.0,5.0,0.0
2230,93.0,0.0,20.0,5.0,0.0
2231,87.0,20.0,20.0,5.0,0.0
2232,75.0,0.0,60.0,13.0,0.0
2233,66.0,20.0,60.0,14.0,0.0
2234,90.0,20.0,20.0,5.0,0.0
2235,93.0,0.0,20.0,5.0,0.0
2236,88.0,20.0,20.0,5.0,0.0
2237,68.0,20.0,60.0,14.0,0.0
2238,76.0,0.0,60.0,13.0,0.0
2239,90.0,20.0,20.0,5.0,0.0
2240,93.0,0.0,20.0,5.0,0.0
2241,78.0,0.0,60.0,13.0,0.0
2242,47.0,0.0,120.0,5.0,0.0
2243,89.0,20.0,20.0,5.0,0.0
2244,59.0,0.0,120.0,15.0,0.0
2245,69.0,20.0,60.0,14.0,0.0
2246,90.0,20.0,20.0,5.0,0.0
2247,93.0,0.0,20.0,5.0,0.0
2248,69.0,0.0,60.0,12.0,0.0
2249,88.0,20.0,20.0,5.0,0.0
2250,71.0,20.0,60.0,6.0,0.0
2251,68.0,0.0,60.0,14.0,0.0
2252,76.0,0.0,60.0,13.0,0.0
2253,90.0,20.0,20.0,5.0,0.0
2254,93.0,0.0,20.0,5.0,0.0
2255,81.0,0.0,60.0,12.0,0.0
2256,83.0,0.0,60.0,6.0,0.0
2257,87.0,20.0,20.0,5.0,0.0
2258,66.0,0.0,60.0,14.0,0.0
2259,75.0,20.0,60.0,13.0,0.0
2260,90.0,20.0,20.0,5.0,0.0
2261,93.0,0.0,20.0,5.0,0.0
2262,64.0,0.0,60.0,14.0,0.0
2263,81.0,0.0,120.0,12.0,0.0
2264,85.0,20.0,20.0,5.0,0.0
2265,73.0,20.0,60.0,13.0,0.0
2266,83.0,0.0,60.0,6.0,0.0
2267,90.0,20.0,20.0,5.0,0.0
2268,93.0,0.0,20.0,5.0,0.0
2269,83.0,0.0,600.0,6.0,0.0
2270,63.0,0.0,60.0,14.0,0.0
2271,83.0,20.0,20.0,5.0,0.0
2272,71.0,0.0,360.0,13.0,0.0
2273,90.0,20.0,20.0,5.0,0.0
2274,93.0,20.0,20.0,5.0,0.0
2275,83.0,20.0,20.0,5.0,0.0
2276,80.0,20.0,60.0,12.0,0.0
2277,64.0,0.0,60.0,14.0,0.0
2278,88.0,20.0,20.0,5.0,0.0
2279,92.0,0.0,20.0,5.0,0.0
2280,69.0,0.0,60.0,14.0,0.0
2281,81.0,20.0,20.0,5.0,0.0
2282,78.0,0.0,60.0,12.0,0.0
2283,83.0,20.0,20.0,5.0,0.0
2284,90.0,20.0,20.0,5.0,0.0
2285,68.0,20.0,60.0,14.0,0.0
2286,76.0,20.0,120.0,12.0,0.0
2287,80.0,20.0,20.0,5.0,0.0
2288,83.0,20.0,20.0,5.0,0.0
2289,88.0,0.0,20.0,5.0,0.0
2290,78.0,20.0,20.0,5.0,0.0
2291,59.0,20.0,480.0,15.0,0.0
2292,47.0,0.0,480.0,5.0,0.0
2293,66.0,0.0,120.0,14.0,0.0
2294,59.0,0.0,480.0,5.0,0.0
2295,83.0,20.0,20.0,5.0,0.0
2296,88.0,0.0,20.0,5.0,0.0
2297,75.0,20.0,120.0,12.0,0.0
2298,87.0,20.0,20.0,5.0,0.0
2299,83.0,20.0,20.0,5.0,0.0
2300,78.0,20.0,20.0,5.0,0.0
2301,55.0,0.0,120.0,0.0,0.0
2302,67.0,0.0,120.0,0.0,0.0
2303,64.0,20.0,120.0,14.0,0.0
2304,70.0,0.0,120.0,13.0,0.0
2305,76.0,20.0,20.0,5.0,0.0
2306,82.0,20.0,20.0,5.0,0.0
2307,87.0,0.0,20.0,5.0,0.0
2308,85.0,20.0,20.0,5.0,0.0
2309,73.0,0.0,120.0,12.0,0.0
2310,82.0,20.0,20.0,5.0,0.0
2311,76.0,0.0,20.0,5.0,0.0
2312,75.0,20.0,20.0,5.0,0.0
2313,54.0,20.0,60.0,0.0,0.0
2314,66.0,0.0,60.0,0.0,0.0
2315,63.0,20.0,120.0,14.0,0.0
2316,66.0,0.0,240.0,13.0,0.0
2317,78.0,20.0,20.0,5.0,0.0
2318,85.0,0.0,20.0,5.0,0.0
2319,83.0,20.0,20.0,5.0,0.0
2320,71.0,0.0,120.0,12.0,0.0
2321,78.0,20.0,20.0,5.0,0.0
2322,75.0,0.0,20.0,5.0,0.0
2323,87.0,0.0,120.0,3.0,0.0
2324,75.0,0.0,120.0,6.0,0.0
2325,60.0,0.0,120.0,14.0,0.0
2326,72.0,20.0,20.0,5.0,0.0
2327,78.0,20.0,20.0,5.0,0.0
2328,83.0,20.0,20.0,5.0,0.0
2329,81.0,20.0,20.0,5.0,0.0
2330,69.0,0.0,120.0,12.0,0.0
2331,78.0,20.0,20.0,5.0,0.0
2332,72.0,0.0,20.0,5.0,0.0
2333,71.0,20.0,20.0,5.0,0.0
2334,59.0,0.0,120.0,14.0,0.0
2335,76.0,0.0,60.0,6.0,0.0
2336,88.0,0.0,60.0,3.0,0.0
2337,47.0,15.0,2280.0,15.0,0.0
2338,59.0,0.0,720.0,5.0,0.0
2339,64.0,20.0,120.0,13.0,0.0
2340,47.0,0.0,720.0,5.0,0.0
2341,76.0,20.0,20.0,5.0,0.0
2342,81.0,20.0,20.0,5.0,0.0
2343,68.0,0.0,60.0,12.0,0.0
2344,80.0,20.0,20.0,5.0,0.0
2345,76.0,20.0,20.0,5.0,0.0
2346,71.0,0.0,20.0,5.0,0.0
2347,63.0,0.0,120.0,0.0,0.0
2348,51.0,0.0,120.0,0.0,0.0
2349,57.0,20.0,120.0,14.0,0.0
2350,60.0,0.0,120.0,13.0,0.0
2351,67.0,20.0,60.0,12.0,0.0
2352,69.0,20.0,20.0,5.0,0.0
2353,72.0,20.0,20.0,5.0,0.0
2354,79.0,0.0,20.0,5.0,0.0
2355,66.0,20.0,120.0,12.0,0.0
2356,78.0,20.0,20.0,5.0,0.0
2357,72.0,20.0,20.0,5.0,0.0
2358,69.0,0.0,20.0,5.0,0.0
2359,52.0,0.0,60.0,0.0,0.0
2360,64.0,0.0,60.0,0.0,0.0
2361,68.0,20.0,20.0,5.0,0.0
2362,56.0,20.0,120.0,14.0,0.0
2363,59.0,0.0,240.0,13.0,0.0
2364,71.0,20.0,20.0,5.0,0.0
2365,78.0,0.0,20.0,5.0,0.0
2366,76.0,20.0,20.0,5.0,0.0
2367,64.0,20.0,120.0,12.0,0.0
2368,71.0,20.0,20.0,5.0,0.0
2369,68.0,0.0,20.0,5.0,0.0
2370,66.0,20.0,20.0,5.0,0.0
2371,54.0,0.0,120.0,14.0,0.0
2372,83.0,20.0,120.0,3.0,0.0
2373,71.0,0.0,120.0,6.0,0.0
2374,71.0,20.0,20.0,5.0,0.0
2375,76.0,0.0,20.0,5.0,0.0
2376,63.0,0.0,120.0,12.0,0.0
2377,75.0,20.0,20.0,5.0,0.0
2378,71.0,20.0,20.0,5.0,0.0
2379,66.0,0.0,20.0,5.0,0.0
2380,52.0,0.0,120.0,14.0,0.0
2381,64.0,20.0,20.0,5.0,0.0
2382,88.0,0.0,120.0,3.0,0.0
2383,79.0,0.0,120.0,6.0,0.0
2384,64.0,20.0,120.0,13.0,0.0
2385,70.0,20.0,20.0,5.0,0.0
2386,75.0,20.0,20.0,5.0,0.0
2387,61.0,20.0,120.0,12.0,0.0
2388,73.0,20.0,20.0,5.0,0.0
2389,70.0,20.0,20.0,5.0,0.0
2390,64.0,0.0,20.0,5.0,0.0
2391,78.0,0.0,120.0,6.0,0.0
2392,59.0,0.0,120.0,14.0,0.0
2393,66.0,0.0,120.0,13.0,0.0
2394,63.0,20.0,20.0,5.0,0.0
2395,87.0,0.0,120.0,3.0,0.0
2396,66.0,20.0,20.0,5.0,0.0
2397,73.0,0.0,20.0,5.0,0.0
2398,71.0,20.0,20.0,5.0,0.0
2399,59.0,0.0,60.0,12.0,0.0
2400,66.0,20.0,20.0,5.0,0.0
2401,63.0,20.0,20.0,5.0,0.0
2402,64.0,0.0,60.0,0.0,0.0
2403,82.0,16.0,960.0,6.0,0.0
2404,79.0,20.0,60.0,6.0,0.0
2405,61.0,20.0,20.0,5.0,0.0
2406,88.0,0.0,60.0,3.0,0.0
2407,64.0,20.0,20.0,5.0,0.0
2408,70.0,0.0,20.0,5.0,0.0
2409,63.0,20.0,20.0,5.0,0.0
2410,90.0,0.0,60.0,3.0,0.0
2411,63.0,0.0,60.0,0.0,0.0
2412,78.0,20.0,60.0,6.0,0.0
2413,66.0,20.0,20.0,5.0,0.0
2414,70.0,0.0,20.0,5.0,0.0
2415,76.0,20.0,60.0,6.0,0.0
2416,61.0,0.0,60.0,0.0,0.0
2417,91.0,0.0,60.0,3.0,0.0
2418,64.0,20.0,20.0,5.0,0.0
2419,67.0,20.0,20.0,5.0,0.0
2420,70.0,0.0,20.0,5.0,0.0
2421,78.0,0.0,60.0,6.0,0.0
2422,63.0,20.0,60.0,0.0,0.0
2423,63.0,20.0,20.0,5.0,0.0
2424,90.0,0.0,60.0,3.0,0.0
2425,66.0,20.0,20.0,5.0,0.0
2426,70.0,0.0,20.0,5.0,0.0
2427,88.0,0.0,60.0,3.0,0.0
2428,61.0,20.0,20.0,5.0,0.0
2429,79.0,0.0,60.0,6.0,0.0
2430,64.0,20.0,60.0,0.0,0.0
2431,64.0,20.0,20.0,5.0,0.0
2432,70.0,0.0,20.0,5.0,0.0
2433,63.0,0.0,60.0,0.0,0.0
2434,90.0,0.0,60.0,3.0,0.0
2435,78.0,0.0,60.0,6.0,0.0
2436,63.0,20.0,20.0,5.0,0.0
2437,66.0,20.0,20.0,5.0,0.0
2438,70.0,20.0,20.0,5.0,0.0
2439,61.0,20.0,60.0,0.0,0.0
2440,64.0,20.0,20.0,5.0,0.0
2441,76.0,0.0,60.0,6.0,0.0
2442,91.0,0.0,60.0,3.0,0.0
2443,67.0,20.0,20.0,5.0,0.0
2444,70.0,0.0,20.0,5.0,0.0
2445,63.0,20.0,20.0,5.0,0.0
2446,63.0,0.0,60.0,0.0,0.0
2447,78.0,0.0,60.0,6.0,0.0
2448,90.0,0.0,60.0,3.0,0.0
2449,66.0,20.0,20.0,5.0,0.0
2450,70.0,20.0,20.0,5.0,0.0
2451,64.0,0.0,60.0,0.0,0.0
2452,88.0,20.0,60.0,3.0,0.0
2453,79.0,0.0,60.0,6.0,0.0
2454,61.0,20.0,20.0,5.0,0.0
2455,64.0,20.0,20.0,5.0,0.0
2456,70.0,0.0,20.0,5.0,0.0
2457,78.0,0.0,60.0,6.0,0.0
2458,90.0,0.0,60.0,3.0,0.0
2459,63.0,0.0,60.0,0.0,0.0
2460,63.0,20.0,20.0,5.0,0.0
2461,66.0,20.0,20.0,5.0,0.0
2462,70.0,20.0,20.0,5.0,0.0
2463,91.0,19.0,60.0,3.0,0.0
2464,76.0,0.0,60.0,6.0,0.0
2465,61.0,0.0,60.0,0.0,0.0
2466,64.0,20.0,20.0,5.0,0.0
2467,67.0,20.0,20.0,5.0,0.0
2468,70.0,0.0,20.0,5.0,0.0
2469,63.0,20.0,20.0,5.0,0.0
2470,63.0,0.0,60.0,0.0,0.0
2471,78.0,19.0,60.0,6.0,0.0
2472,90.0,0.0,60.0,3.0,0.0
2473,66.0,20.0,20.0,5.0,0.0
2474,70.0,1.0,20.0,5.0,0.0
2475,64.0,20.0,20.0,5.0,0.0
2476,76.0,18.0,60.0,6.0,0.0
2477,61.0,0.0,60.0,0.0,0.0
2478,91.0,0.0,60.0,3.0,0.0
2479,67.0,19.0,20.0,5.0,0.0
2480,70.0,2.0,20.0,5.0,0.0
2481,63.0,20.0,20.0,5.0,0.0
2482,63.0,0.0,60.0,0.0,0.0
2483,78.0,18.0,60.0,6.0,0.0
2484,90.0,0.0,60.0,3.0,0.0
2485,66.0,20.0,20.0,5.0,0.0
2486,70.0,2.0,20.0,5.0,0.0
2487,64.0,19.0,20.0,5.0,0.0
2488,61.0,17.0,60.0,0.0,0.0
2489,91.0,0.0,60.0,3.0,0.0
2490,76.0,0.0,60.0,6.0,0.0
2491,67.0,20.0,20.0,5.0,0.0
2492,70.0,3.0,20.0,5.0,0.0
2493,61.0,20.0,20.0,5.0,0.0
2494,79.0,0.0,60.0,6.0,0.0
2495,64.0,0.0,60.0,0.0,0.0
2496,88.0,0.0,60.0,3.0,0.0
2497,64.0,20.0,20.0,5.0,0.0
2498,70.0,3.0,20.0,5.0,0.0
2499,63.0,20.0,20.0,5.0,0.0
2500,78.0,0.0,600.0,6.0,0.0
2501,90.0,0.0,600.0,3.0,0.0
2502,63.0,0.0,600.0,0.0,0.0
2503,59.0,0.0,600.0,0.0,0.0
2504,69.0,0.0,600.0,13.0,0.0
2505,66.0,0.0,600.0,14.0,0.0
2506,75.0,0.0,600.0,12.0,0.0
2507,81.0,0.0,600.0,6.0,0.0
2508,69.0,20.0,20.0,5.0,0.0
2509,68.0,20.0,20.0,5.0,0.0
2510,66.0,20.0,20.0,5.0,0.0
2511,75.0,19.0,20.0,5.0,0.0
2512,73.0,20.0,20.0,5.0,0.0
2513,71.0,20.0,20.0,5.0,0.0
2514,78.0,20.0,20.0,5.0,0.0
2515,76.0,20.0,20.0,5.0,0.0
2516,75.0,19.0,20.0,5.0,0.0
2517,81.0,20.0,20.0,5.0,0.0
2518,80.0,20.0,20.0,5.0,0.0
2519,78.0,20.0,20.0,5.0,0.0
2520,87.0,20.0,20.0,5.0,0.0
2521,85.0,19.0,20.0,5.0,0.0
2522,83.0,20.0,20.0,5.0,0.0
2523,93.0,20.0,20.0,5.0,0.0
2524,92.0,20.0,20.0,5.0,0.0
2525,90.0,20.0,20.0,5.0,0.0
2526,93.0,19.0,20.0,5.0,0.0
2527,92.0,20.0,20.0,5.0,0.0
2528,91.0,20.0,20.0,5.0,0.0
2529,90.0,20.0,20.0,5.0,0.0
2530,89.0,23.0,20.0,5.0,0.0
2531,88.0,15.0,15.0,5.0,0.0
2532,87.0,15.0,15.0,5.0,0.0
2533,86.0,15.0,15.0,5.0,0.0
2534,85.0,15.0,15.0,5.0,0.0
2535,84.0,15.0,15.0,5.0,0.0
2536,83.0,15.0,15.0,5.0,0.0
2537,82.0,15.0,15.0,5.0,0.0
2538,81.0,0.0,15.0,5.0,0.0
2539,80.0,15.0,15.0,5.0,0.0
2540,79.0,15.0,15.0,5.0,0.0
2541,78.0,15.0,15.0,5.0,0.0
2542,77.0,15.0,15.0,5.0,0.0
2543,78.0,15.0,15.0,5.0,0.0
2544,79.0,15.0,15.0,5.0,0.0
2545,80.0,15.0,15.0,5.0,0.0
2546,81.0,20.0,15.0,5.0,0.0
2547,82.0,20.0,20.0,5.0,0.0
2548,83.0,20.0,20.0,5.0,0.0
2549,84.0,20.0,20.0,5.0,0.0
2550,85.0,20.0,20.0,5.0,0.0
2551,86.0,20.0,20.0,5.0,0.0
2552,87.0,60.0,20.0,5.0,0.0
2553,88.0,60.0,60.0,5.0,0.0
2554,88.0,59.0,60.0,5.0,0.0
2555,83.0,29.0,60.0,5.0,0.0
2556,68.0,1.0,60.0,5.0,0.0
2557,64.0,30.0,60.0,5.0,0.0
2558,68.0,1.0,60.0,5.0,0.0
2559,83.0,29.0,60.0,5.0,0.0
2560,64.0,30.0,60.0,5.0,0.0
2561,85.0,29.0,60.0,5.0,0.0
2562,69.0,1.0,60.0,5.0,0.0
2563,64.0,30.0,60.0,5.0,0.0
2564,85.0,29.0,60.0,5.0,0.0
2565,69.0,1.0,60.0,5.0,0.0
2566,64.0,30.0,60.0,5.0,0.0
2567,71.0,1.0,60.0,5.0,0.0
2568,80.0,29.0,60.0,5.0,0.0
2569,64.0,30.0,60.0,5.0,0.0
2570,80.0,29.0,60.0,5.0,0.0
2571,71.0,1.0,60.0,5.0,0.0
2572,64.0,30.0,60.0,5.0,0.0
2573,73.0,1.0,60.0,5.0,0.0
2574,81.0,29.0,60.0,5.0,0.0
2575,64.0,30.0,60.0,5.0,0.0
2576,81.0,29.0,60.0,5.0,0.0
2577,73.0,1.0,60.0,5.0,0.0
2578,64.0,1.0,60.0,5.0,0.0
2579,68.0,1.0,60.0,5.0,0.0
2580,83.0,29.0,30.0,5.0,0.0
2581,64.0,1.0,60.0,5.0,0.0
2582,80.0,29.0,30.0,5.0,0.0
2583,68.0,1.0,60.0,5.0,0.0
2584,83.0,29.0,30.0,5.0,0.0
2585,80.0,29.0,30.0,5.0,0.0
2586,64.0,1.0,60.0,5.0,0.0
2587,85.0,29.0,30.0,5.0,0.0
2588,69.0,1.0,60.0,5.0,0.0
2589,83.0,29.0,30.0,5.0,0.0
2590,68.0,1.0,60.0,5.0,0.0
2591,66.0,1.0,60.0,5.0,0.0
2592,81.0,29.0,30.0,5.0,0.0
2593,64.0,1.0,60.0,5.0,0.0
2594,80.0,29.0,30.0,5.0,0.0
2595,62.0,0.0,30.0,5.0,0.0
2596,59.0,0.0,120.0,5.0,0.0
2597,77.0,30.0,30.0,5.0,0.0
2598,78.0,0.0,30.0,5.0,0.0
2599,63.0,60.0,30.0,5.0,0.0
2600,78.0,60.0,60.0,5.0,0.0
2601,63.0,0.0,60.0,5.0,0.0
2602,88.0,60.0,60.0,5.0,0.0
2603,88.0,59.0,60.0,5.0,0.0
2604,83.0,29.0,60.0,5.0,0.0
2605,68.0,1.0,60.0,5.0,0.0
2606,64.0,30.0,60.0,5.0,0.0
2607,83.0,29.0,60.0,5.0,0.0
2608,68.0,1.0,60.0,5.0,0.0
2609,64.0,30.0,60.0,5.0,0.0
2610,85.0,29.0,60.0,5.0,0.0
2611,69.0,1.0,60.0,5.0,0.0
2612,64.0,30.0,60.0,5.0,0.0
2613,85.0,29.0,60.0,5.0,0.0
2614,69.0,1.0,60.0,5.0,0.0
2615,64.0,30.0,60.0,5.0,0.0
2616,80.0,29.0,60.0,5.0,0.0
2617,71.0,1.0,60.0,5.0,0.0
2618,64.0,30.0,60.0,5.0,0.0
2619,80.0,29.0,60.0,5.0,0.0
2620,71.0,1.0,60.0,5.0,0.0
2621,64.0,30.0,60.0,5.0,0.0
2622,73.0,1.0,60.0,5.0,0.0
2623,81.0,29.0,60.0,5.0,0.0
2624,64.0,30.0,60.0,5.0,0.0
2625,73.0,1.0,60.0,5.0,0.0
2626,81.0,29.0,60.0,5.0,0.0
2627,64.0,1.0,60.0,5.0,0.0
2628,68.0,1.0,60.0,5.0,0.0
2629,83.0,29.0,30.0,5.0,0.0
2630,80.0,29.0,30.0,5.0,0.0
2631,64.0,1.0,60.0,5.0,0.0
2632,85.0,29.0,30.0,5.0,0.0
2633,69.0,1.0,60.0,5.0,0.0
2634,66.0,31.0,60.0,5.0,0.0
2635,81.0,29.0,30.0,5.0,0.0
2636,59.0,0.0,60.0,5.0,0.0
2637,64.0,0.0,60.0,5.0,0.0
2638,80.0,60.0,60.0,5.0,0.0
2639,59.0,60.0,60.0,5.0,0.0
2640,78.0,0.0,60.0,5.0,0.0
2641,63.0,0.0,60.0,5.0,0.0
2642,64.0,60.0,60.0,5.0,0.0
2643,76.0,30.0,120.0,5.0,0.0
2644,52.0,0.0,60.0,5.0,0.0
2645,88.0,0.0,120.0,6.0,0.0
2646,88.0,0.0,60.0,3.0,0.0
2647,64.0,30.0,120.0,6.0,0.0
2648,88.0,0.0,60.0,12.0,0.0
2649,64.0,30.0,30.0,13.0,0.0
2650,63.0,30.0,30.0,13.0,0.0
2651,88.0,0.0,60.0,12.0,0.0
2652,64.0,30.0,30.0,13.0,0.0
2653,88.0,0.0,60.0,3.0,0.0
2654,66.0,0.0,30.0,13.0,0.0
2655,52.0,0.0,120.0,4.0,0.0
2656,64.0,0.0,120.0,1.0,0.0
2657,64.0,0.0,120.0,14.0,0.0
2658,68.0,30.0,30.0,13.0,0.0
2659,76.0,29.0,120.0,1.0,0.0
2660,83.0,0.0,60.0,12.0,0.0
2661,52.0,0.0,120.0,15.0,0.0
2662,68.0,0.0,120.0,6.0,0.0
2663,83.0,0.0,120.0,6.0,0.0
2664,76.0,30.0,240.0,7.0,0.0
2665,64.0,0.0,240.0,7.0,0.0
2666,52.0,0.0,120.0,0.0,0.0
2667,83.0,30.0,60.0,3.0,0.0
2668,64.0,0.0,30.0,13.0,0.0
2669,83.0,0.0,60.0,12.0,0.0
2670,68.0,30.0,30.0,13.0,0.0
2671,83.0,1.0,60.0,3.0,0.0
2672,64.0,0.0,30.0,13.0,0.0
2673,85.0,0.0,120.0,6.0,0.0
2674,85.0,0.0,60.0,12.0,0.0
2675,69.0,30.0,30.0,13.0,0.0
2676,69.0,0.0,120.0,6.0,0.0
2677,85.0,30.0,60.0,3.0,0.0
2678,64.0,0.0,30.0,13.0,0.0
2679,85.0,0.0,60.0,3.0,0.0
2680,85.0,0.0,60.0,12.0,0.0
2681,69.0,30.0,30.0,13.0,0.0
2682,64.0,0.0,30.0,13.0,0.0
2683,71.0,0.0,120.0,6.0,0.0
2684,76.0,29.0,120.0,1.0,0.0
2685,52.0,0.0,120.0,15.0,0.0
2686,71.0,30.0,30.0,13.0,0.0
2687,80.0,30.0,60.0,12.0,0.0
2688,76.0,0.0,240.0,7.0,0.0
2689,64.0,0.0,240.0,7.0,0.0
2690,80.0,0.0,120.0,6.0,0.0
2691,64.0,0.0,120.0,1.0,0.0
2692,52.0,0.0,120.0,4.0,0.0
2693,64.0,0.0,120.0,14.0,0.0
2694,80.0,0.0,60.0,3.0,0.0
2695,52.0,0.0,120.0,0.0,0.0
2696,64.0,0.0,30.0,13.0,0.0
2697,71.0,30.0,30.0,13.0,0.0
2698,80.0,1.0,60.0,12.0,0.0
2699,80.0,0.0,60.0,3.0,0.0
2700,64.0,0.0,30.0,13.0,0.0
2701,73.0,30.0,30.0,13.0,0.0
2702,73.0,0.0,120.0,6.0,0.0
2703,81.0,0.0,60.0,3.0,0.0
2704,81.0,0.0,60.0,12.0,0.0
2705,81.0,0.0,120.0,6.0,0.0
2706,64.0,30.0,30.0,13.0,0.0
2707,81.0,0.0,60.0,12.0,0.0
2708,73.0,30.0,30.0,13.0,0.0
2709,81.0,30.0,60.0,3.0,0.0
2710,64.0,0.0,30.0,13.0,0.0
2711,52.0,0.0,120.0,4.0,0.0
2712,83.0,0.0,30.0,12.0,0.0
2713,68.0,0.0,30.0,13.0,0.0
2714,76.0,0.0,180.0,7.0,0.0
2715,64.0,0.0,120.0,1.0,0.0
2716,76.0,0.0,120.0,1.0,0.0
2717,83.0,0.0,30.0,3.0,0.0
2718,80.0,0.0,30.0,6.0,0.0
2719,64.0,0.0,120.0,14.0,0.0
2720,64.0,0.0,180.0,7.0,0.0
2721,52.0,0.0,120.0,0.0,0.0
2722,52.0,0.0,120.0,15.0,0.0
2723,83.0,30.0,30.0,6.0,0.0
2724,64.0,0.0,30.0,13.0,0.0
2725,80.0,0.0,30.0,6.0,0.0
2726,80.0,0.0,30.0,3.0,0.0
2727,80.0,0.0,30.0,12.0,0.0
2728,76.0,30.0,30.0,6.0,0.0
2729,80.0,0.0,30.0,6.0,0.0
2730,83.0,30.0,30.0,6.0,0.0
2731,83.0,0.0,30.0,3.0,0.0
2732,68.0,0.0,30.0,13.0,0.0
2733,83.0,0.0,30.0,12.0,0.0
2734,64.0,0.0,30.0,13.0,0.0
2735,80.0,0.0,30.0,6.0,0.0
2736,80.0,0.0,30.0,12.0,0.0
2737,76.0,0.0,30.0,6.0,0.0
2738,80.0,30.0,30.0,3.0,0.0
2739,85.0,0.0,30.0,12.0,0.0
2740,64.0,0.0,120.0,15.0,0.0
2741,81.0,0.0,30.0,6.0,0.0
2742,69.0,0.0,30.0,13.0,0.0
2743,64.0,0.0,120.0,1.0,0.0
2744,85.0,0.0,30.0,3.0,0.0
2745,52.0,0.0,120.0,4.0,0.0
2746,76.0,0.0,120.0,1.0,0.0
2747,64.0,0.0,120.0,0.0,0.0
2748,76.0,0.0,120.0,14.0,0.0
2749,85.0,30.0,30.0,6.0,0.0
2750,83.0,0.0,30.0,12.0,0.0
2751,68.0,0.0,30.0,13.0,0.0
2752,80.0,0.0,30.0,6.0,0.0
2753,83.0,0.0,30.0,3.0,0.0
2754,83.0,30.0,30.0,6.0,0.0
2755,76.0,0.0,60.0,7.0,0.0
2756,64.0,0.0,60.0,7.0,0.0
2757,78.0,0.0,30.0,6.0,0.0
2758,81.0,30.0,30.0,3.0,0.0
2759,81.0,0.0,30.0,6.0,0.0
2760,66.0,0.0,30.0,13.0,0.0
2761,81.0,0.0,30.0,12.0,0.0
2762,80.0,0.0,30.0,6.0,0.0
2763,80.0,0.0,30.0,3.0,0.0
2764,80.0,30.0,30.0,12.0,0.0
2765,64.0,0.0,30.0,13.0,0.0
2766,76.0,0.0,30.0,6.0,0.0
2767,47.0,0.0,120.0,4.0,0.0
2768,71.0,0.0,120.0,1.0,0.0
2769,65.0,0.0,30.0,13.0,0.0
2770,59.0,0.0,120.0,15.0,0.0
2771,59.0,60.0,120.0,0.0,0.0
2772,74.0,30.0,30.0,6.0,0.0
2773,71.0,0.0,120.0,14.0,0.0
2774,77.0,0.0,30.0,6.0,0.0
2775,77.0,0.0,30.0,12.0,0.0
2776,77.0,0.0,30.0,3.0,0.0
2777,59.0,0.0,120.0,1.0,0.0
2778,59.0,0.0,120.0,7.0,0.0
2779,71.0,0.0,120.0,7.0,0.0
2780,78.0,0.0,30.0,3.0,0.0
2781,75.0,0.0,30.0,6.0,0.0
2782,78.0,0.0,30.0,6.0,0.0
2783,78.0,0.0,30.0,12.0,0.0
2784,66.0,60.0,30.0,13.0,0.0
2785,78.0,0.0,60.0,3.0,0.0
2786,66.0,0.0,60.0,13.0,0.0
2787,75.0,0.0,60.0,6.0,0.0
2788,78.0,0.0,60.0,12.0,0.0
2789,78.0,0.0,60.0,6.0,0.0
2790,64.0,0.0,120.0,6.0,0.0
2791,88.0,0.0,60.0,12.0,0.0
2792,88.0,0.0,60.0,3.0,0.0
2793,76.0,0.0,60.0,7.0,0.0
2794,64.0,0.0,60.0,7.0,0.0
2795,88.0,60.0,120.0,6.0,0.0
2796,64.0,30.0,60.0,13.0,0.0
2797,88.0,0.0,30.0,3.0,0.0
2798,88.0,0.0,30.0,12.0,0.0
2799,64.0,0.0,30.0,13.0,0.0
2800,64.0,0.0,30.0,7.0,0.0
2801,76.0,30.0,30.0,7.0,0.0
2802,64.0,0.0,30.0,13.0,0.0
2803,64.0,0.0,30.0,7.0,0.0
2804,76.0,0.0,30.0,7.0,0.0
2805,88.0,0.0,30.0,3.0,0.0
2806,88.0,0.0,30.0,12.0,0.0
2807,52.0,30.0,60.0,0.0,0.0
2808,76.0,0.0,60.0,7.0,0.0
2809,64.0,0.0,60.0,7.0,0.0
2810,83.0,60.0,120.0,6.0,0.0
2811,68.0,0.0,120.0,6.0,0.0
2812,52.0,0.0,120.0,4.0,0.0
2813,76.0,0.0,120.0,1.0,0.0
2814,83.0,0.0,60.0,12.0,0.0
2815,83.0,0.0,60.0,3.0,0.0
2816,64.0,0.0,60.0,14.0,0.0
2817,64.0,0.0,120.0,1.0,0.0
2818,52.0,0.0,60.0,15.0,0.0
2819,68.0,0.0,60.0,13.0,0.0
2820,64.0,0.0,30.0,14.0,0.0
2821,83.0,0.0,30.0,3.0,0.0
2822,83.0,0.0,30.0,12.0,0.0
2823,64.0,0.0,30.0,0.0,0.0
2824,76.0,0.0,30.0,7.0,0.0
2825,64.0,0.0,30.0,7.0,0.0
2826,64.0,0.0,30.0,15.0,0.0
2827,68.0,30.0,30.0,13.0,0.0
2828,68.0,0.0,30.0,13.0,0.0
2829,83.0,0.0,30.0,3.0,0.0
2830,64.0,0.0,30.0,14.0,0.0
2831,83.0,0.0,30.0,12.0,0.0
2832,64.0,0.0,30.0,0.0,0.0
2833,76.0,0.0,30.0,7.0,0.0
2834,64.0,0.0,30.0,7.0,0.0
2835,64.0,0.0,30.0,15.0,0.0
2836,64.0,0.0,120.0,1.0,0.0
2837,52.0,0.0,120.0,4.0,0.0
2838,64.0,0.0,60.0,0.0,0.0
2839,69.0,0.0,120.0,6.0,0.0
2840,85.0,0.0,120.0,6.0,0.0
2841,69.0,0.0,60.0,13.0,0.0
2842,85.0,0.0,60.0,3.0,0.0
2843,64.0,30.0,60.0,15.0,0.0
2844,76.0,0.0,60.0,7.0,0.0
2845,64.0,0.0,60.0,14.0,0.0
2846,85.0,0.0,60.0,12.0,0.0
2847,76.0,0.0,120.0,1.0,0.0
2848,64.0,0.0,60.0,7.0,0.0
2849,64.0,30.0,30.0,15.0,0.0
2850,64.0,0.0,30.0,0.0,0.0
2851,69.0,0.0,30.0,13.0,0.0
2852,64.0,0.0,30.0,14.0,0.0
2853,76.0,0.0,30.0,7.0,0.0
2854,85.0,0.0,30.0,12.0,0.0
2855,64.0,0.0,30.0,7.0,0.0
2856,85.0,0.0,30.0,3.0,0.0
2857,85.0,0.0,30.0,12.0,0.0
2858,64.0,0.0,30.0,7.0,0.0
2859,64.0,0.0,30.0,15.0,0.0
2860,85.0,0.0,30.0,3.0,0.0
2861,76.0,0.0,30.0,7.0,0.0
2862,64.0,60.0,30.0,14.0,0.0
2863,69.0,0.0,30.0,13.0,0.0
2864,64.0,0.0,30.0,0.0,0.0
2865,64.0,0.0,120.0,1.0,0.0
2866,76.0,0.0,60.0,7.0,0.0
2867,64.0,0.0,60.0,0.0,0.0
2868,64.0,0.0,60.0,7.0,0.0
2869,76.0,0.0,120.0,1.0,0.0
2870,64.0,30.0,60.0,14.0,0.0
2871,80.0,0.0,60.0,12.0,0.0
2872,80.0,0.0,60.0,3.0,0.0
2873,52.0,0.0,120.0,4.0,0.0
2874,71.0,0.0,60.0,13.0,0.0
2875,80.0,0.0,120.0,6.0,0.0
2876,71.0,0.0,120.0,6.0,0.0
2877,64.0,0.0,60.0,15.0,0.0
2878,76.0,0.0,30.0,7.0,0.0
2879,71.0,0.0,30.0,13.0,0.0
2880,64.0,0.0,30.0,0.0,0.0
2881,80.0,0.0,30.0,3.0,0.0
2882,64.0,0.0,30.0,15.0,0.0
2883,64.0,0.0,30.0,14.0,0.0
2884,64.0,30.0,30.0,7.0,0.0
2885,80.0,0.0,30.0,12.0,0.0
2886,80.0,0.0,30.0,3.0,0.0
2887,71.0,0.0,30.0,13.0,0.0
2888,64.0,0.0,30.0,14.0,0.0
2889,64.0,0.0,30.0,15.0,0.0
2890,64.0,0.0,30.0,7.0,0.0
2891,80.0,0.0,30.0,12.0,0.0
2892,64.0,60.0,30.0,0.0,0.0
2893,76.0,0.0,30.0,7.0,0.0
2894,73.0,0.0,60.0,13.0,0.0
2895,64.0,0.0,60.0,7.0,0.0
2896,73.0,0.0,120.0,6.0,0.0
2897,64.0,30.0,60.0,14.0,0.0
2898,64.0,0.0,60.0,15.0,0.0
2899,81.0,0.0,60.0,12.0,0.0
2900,81.0,0.0,120.0,6.0,0.0
2901,76.0,30.0,120.0,1.0,0.0
2902,64.0,0.0,120.0,1.0,0.0
2903,76.0,0.0,60.0,7.0,0.0
2904,52.0,0.0,120.0,4.0,0.0
2905,64.0,0.0,60.0,0.0,0.0
2906,81.0,0.0,60.0,3.0,0.0
2907,76.0,30.0,30.0,7.0,0.0
2908,81.0,0.0,30.0,3.0,0.0
2909,81.0,0.0,30.0,12.0,0.0
2910,73.0,0.0,30.0,13.0,0.0
2911,64.0,0.0,30.0,15.0,0.0
2912,64.0,0.0,30.0,14.0,0.0
2913,64.0,0.0,30.0,0.0,0.0
2914,64.0,0.0,30.0,7.0,0.0
2915,64.0,0.0,30.0,7.0,0.0
2916,76.0,0.0,30.0,7.0,0.0
2917,64.0,0.0,30.0,14.0,0.0
2918,81.0,0.0,30.0,12.0,0.0
2919,64.0,0.0,30.0,15.0,0.0
2920,64.0,0.0,30.0,0.0,0.0
2921,81.0,0.0,30.0,3.0,0.0
2922,73.0,0.0,30.0,13.0,0.0
2923,52.0,0.0,120.0,4.0,0.0
2924,83.0,0.0,60.0,3.0,0.0
2925,83.0,0.0,30.0,12.0,0.0
2926,64.0,0.0,60.0,14.0,0.0
2927,76.0,0.0,120.0,1.0,0.0
2928,64.0,0.0,60.0,0.0,0.0
2929,68.0,0.0,30.0,13.0,0.0
2930,76.0,0.0,120.0,7.0,0.0
2931,64.0,0.0,60.0,15.0,0.0
2932,64.0,0.0,120.0,7.0,0.0
2933,83.0,30.0,30.0,6.0,0.0
2934,80.0,0.0,30.0,6.0,0.0
2935,64.0,0.0,120.0,1.0,0.0
2936,80.0,30.0,30.0,6.0,0.0
2937,71.0,0.0,30.0,13.0,0.0
2938,80.0,0.0,30.0,12.0,0.0
2939,76.0,0.0,30.0,6.0,0.0
2940,85.0,0.0,30.0,12.0,0.0
2941,85.0,30.0,30.0,3.0,0.0
2942,69.0,0.0,30.0,13.0,0.0
2943,57.0,60.0,60.0,15.0,0.0
2944,69.0,0.0,60.0,14.0,0.0
2945,57.0,0.0,60.0,0.0,0.0
2946,80.0,0.0,30.0,6.0,0.0
2947,83.0,0.0,30.0,6.0,0.0
2948,90.0,0.0,30.0,3.0,0.0
2949,78.0,0.0,30.0,6.0,0.0
2950,81.0,0.0,30.0,6.0,0.0
2951,81.0,0.0,30.0,12.0,0.0
2952,66.0,0.0,30.0,13.0,0.0
2953,76.0,0.0,60.0,1.0,0.0
2954,59.0,0.0,60.0,0.0,0.0
2955,80.0,60.0,60.0,1.0,0.0
2956,71.0,0.0,60.0,14.0,0.0
2957,76.0,0.0,60.0,7.0,0.0
2958,80.0,0.0,60.0,7.0,0.0
2959,47.0,0.0,60.0,4.0,0.0
2960,64.0,0.0,60.0,13.0,0.0
2961,59.0,0.0,60.0,15.0,0.0
2962,88.0,0.0,60.0,3.0,0.0
2963,80.0,0.0,60.0,12.0,0.0
2964,80.0,0.0,60.0,6.0,0.0
2965,76.0,0.0,60.0,6.0,0.0
2966,59.0,0.0,60.0,14.0,0.0
2967,87.0,0.0,60.0,3.0,0.0
2968,75.0,0.0,60.0,6.0,0.0
2969,78.0,0.0,60.0,12.0,0.0
2970,47.0,0.0,60.0,4.0,0.0
2971,63.0,0.0,60.0,13.0,0.0
2972,78.0,0.0,60.0,6.0,0.0
2973,78.0,0.0,60.0,7.0,0.0
2974,71.0,120.0,60.0,7.0,0.0
2975,47.0,0.0,60.0,15.0,0.0
2976,47.0,0.0,60.0,0.0,0.0
2977,71.0,0.0,60.0,1.0,0.0
2978,78.0,0.0,60.0,1.0,0.0
2979,52.0,0.0,120.0,0.0,0.0
2980,88.0,31.0,120.0,3.0,0.0
2981,64.0,0.0,120.0,13.0,0.0
2982,64.0,0.0,120.0,14.0,0.0
2983,76.0,0.0,120.0,12.0,0.0
2984,68.0,0.0,120.0,1.0,0.0
2985,76.0,0.0,120.0,1.0,0.0
2986,68.0,0.0,120.0,7.0,0.0
2987,76.0,0.0,120.0,7.0,0.0
2988,52.0,0.0,120.0,15.0,0.0
2989,76.0,0.0,120.0,6.0,0.0
2990,52.0,0.0,120.0,4.0,0.0
2991,76.0,0.0,30.0,7.0,0.0
2992,68.0,0.0,30.0,7.0,0.0
2993,76.0,0.0,30.0,6.0,0.0
2994,71.0,60.0,30.0,6.0,0.0
2995,88.0,0.0,30.0,3.0,0.0
2996,76.0,0.0,30.0,6.0,0.0
2997,71.0,119.0,30.0,6.0,0.0
2998,68.0,0.0,30.0,7.0,0.0
2999,88.0,0.0,30.0,3.0,0.0
3000,76.0,0.0,30.0,7.0,0.0
3001,88.0,0.0,90.0,3.0,0.0
3002,68.0,0.0,90.0,7.0,0.0
3003,71.0,0.0,90.0,6.0,0.0
3004,76.0,0.0,90.0,6.0,0.0
3005,76.0,30.0,90.0,7.0,0.0
3006,78.0,60.0,30.0,6.0,0.0
3007,78.0,0.0,30.0,7.0,0.0
3008,71.0,0.0,30.0,7.0,0.0
3009,90.0,0.0,30.0,3.0,0.0
3010,75.0,0.0,30.0,6.0,0.0
3011,80.0,0.0,60.0,6.0,0.0
3012,76.0,0.0,60.0,6.0,0.0
3013,76.0,0.0,60.0,7.0,0.0
3014,92.0,0.0,60.0,3.0,0.0
3015,80.0,60.0,60.0,7.0,0.0
3016,78.0,0.0,60.0,6.0,0.0
3017,81.0,0.0,60.0,6.0,0.0
3018,93.0,0.0,60.0,3.0,0.0
3019,81.0,31.0,60.0,7.0,0.0
3020,78.0,0.0,60.0,7.0,0.0
3021,78.0,0.0,60.0,7.0,0.0
3022,78.0,0.0,60.0,6.0,0.0
3023,75.0,0.0,60.0,6.0,0.0
3024,78.0,0.0,60.0,1.0,0.0
3025,71.0,0.0,60.0,1.0,0.0
3026,71.0,31.0,60.0,7.0,0.0
3027,59.0,0.0,60.0,0.0,0.0
3028,90.0,0.0,60.0,3.0,0.0
3029,47.0,29.0,30.0,4.0,0.0
3030,71.0,0.0,60.0,1.0,0.0
3031,78.0,0.0,60.0,1.0,0.0
3032,47.0,29.0,30.0,4.0,0.0
3033,47.0,31.0,60.0,0.0,0.0
3034,78.0,0.0,30.0,7.0,0.0
3035,75.0,60.0,30.0,6.0,0.0
3036,78.0,0.0,30.0,6.0,0.0
3037,90.0,0.0,30.0,3.0,0.0
3038,71.0,0.0,30.0,7.0,0.0
3039,78.0,0.0,30.0,7.0,0.0
3040,71.0,0.0,30.0,7.0,0.0
3041,75.0,0.0,30.0,6.0,0.0
3042,78.0,0.0,30.0,6.0,0.0
3043,90.0,119.0,30.0,3.0,0.0
3044,75.0,0.0,90.0,6.0,0.0
3045,78.0,0.0,90.0,6.0,0.0
3046,71.0,0.0,90.0,7.0,0.0
3047,78.0,30.0,90.0,7.0,0.0
3048,90.0,0.0,90.0,3.0,0.0
3049,92.0,0.0,30.0,3.0,0.0
3050,80.0,0.0,30.0,6.0,0.0
3051,76.0,0.0,30.0,7.0,0.0
3052,80.0,0.0,30.0,7.0,0.0
3053,76.0,60.0,30.0,6.0,0.0
3054,93.0,60.0,60.0,3.0,0.0
3055,78.0,0.0,60.0,7.0,0.0
3056,81.0,0.0,60.0,7.0,0.0
3057,78.0,0.0,60.0,6.0,0.0
3058,81.0,0.0,60.0,6.0,0.0
3059,75.0,0.0,60.0,6.0,0.0
3060,95.0,0.0,60.0,3.0,0.0
3061,83.0,0.0,60.0,6.0,0.0
3062,78.0,0.0,60.0,7.0,0.0
3063,71.0,31.0,60.0,7.0,0.0
3064,80.0,0.0,60.0,7.0,0.0
3065,76.0,0.0,60.0,7.0,0.0
3066,76.0,0.0,60.0,1.0,0.0
3067,80.0,0.0,60.0,1.0,0.0
3068,64.0,0.0,60.0,0.0,0.0
3069,52.0,29.0,30.0,4.0,0.0
3070,92.0,31.0,60.0,3.0,0.0
3071,80.0,0.0,60.0,6.0,0.0
3072,76.0,0.0,60.0,6.0,0.0
3073,52.0,29.0,30.0,4.0,0.0
3074,80.0,0.0,60.0,1.0,0.0
3075,76.0,31.0,60.0,1.0,0.0
3076,52.0,0.0,60.0,0.0,0.0
3077,88.0,89.0,30.0,12.0,0.0
3078,88.0,60.0,60.0,12.0,0.0
3079,83.0,60.0,60.0,12.0,0.0
3080,83.0,60.0,60.0,12.0,0.0
3081,85.0,60.0,60.0,12.0,0.0
3082,85.0,60.0,60.0,12.0,0.0
3083,64.0,0.0,240.0,7.0,0.0
3084,80.0,60.0,60.0,12.0,0.0
3085,76.0,0.0,240.0,7.0,0.0
3086,61.0,60.0,240.0,15.0,0.0
3087,80.0,60.0,60.0,12.0,0.0
3088,64.0,0.0,60.0,14.0,0.0
3089,76.0,0.0,60.0,13.0,0.0
3090,82.0,60.0,60.0,12.0,0.0
3091,64.0,0.0,60.0,14.0,0.0
3092,82.0,0.0,60.0,12.0,0.0
3093,76.0,0.0,60.0,13.0,0.0
3094,64.0,0.0,90.0,14.0,0.0
3095,76.0,0.0,180.0,13.0,0.0
3096,80.0,0.0,180.0,7.0,0.0
3097,76.0,0.0,180.0,7.0,0.0
3098,83.0,1.0,60.0,12.0,0.0
3099,59.0,29.0,60.0,15.0,0.0
3100,80.0,30.0,30.0,12.0,0.0
3101,66.0,30.0,30.0,14.0,0.0
3102,78.0,0.0,30.0,13.0,0.0
3103,80.0,30.0,30.0,13.0,0.0
3104,47.0,29.0,60.0,15.0,0.0
3105,83.0,0.0,60.0,12.0,0.0
3106,68.0,0.0,30.0,14.0,0.0
3107,81.0,0.0,30.0,13.0,0.0
3108,69.0,1.0,30.0,14.0,0.0
3109,66.0,0.0,30.0,14.0,0.0
3110,78.0,0.0,60.0,7.0,0.0
3111,78.0,0.0,30.0,13.0,0.0
3112,75.0,30.0,30.0,12.0,0.0
3113,71.0,0.0,60.0,7.0,0.0
3114,80.0,0.0,30.0,13.0,0.0
3115,68.0,61.0,30.0,14.0,0.0
3116,76.0,60.0,120.0,7.0,0.0
3117,68.0,0.0,120.0,7.0,0.0
3118,52.0,59.0,60.0,15.0,0.0
3119,76.0,0.0,120.0,12.0,0.0
3120,64.0,0.0,120.0,14.0,0.0
3121,76.0,0.0,120.0,13.0,0.0
3122,64.0,60.0,60.0,15.0,0.0
3123,64.0,60.0,60.0,15.0,0.0
3124,59.0,60.0,60.0,15.0,0.0
3125,59.0,60.0,60.0,15.0,0.0
3126,61.0,60.0,60.0,15.0,0.0
3127,61.0,60.0,60.0,15.0,0.0
3128,52.0,60.0,60.0,15.0,0.0
3129,52.0,60.0,60.0,15.0,0.0
3130,69.0,0.0,120.0,14.0,0.0
3131,73.0,60.0,60.0,12.0,0.0
3132,54.0,0.0,60.0,15.0,0.0
3133,64.0,0.0,60.0,13.0,0.0
3134,64.0,0.0,60.0,13.0,0.0
3135,54.0,0.0,60.0,15.0,0.0
3136,73.0,90.0,60.0,12.0,0.0
3137,73.0,30.0,90.0,12.0,0.0
3138,56.0,0.0,240.0,15.0,0.0
3139,68.0,0.0,180.0,14.0,0.0
3140,64.0,0.0,90.0,13.0,0.0
3141,68.0,0.0,240.0,7.0,0.0
3142,80.0,0.0,240.0,7.0,0.0
3143,75.0,0.0,30.0,12.0,0.0
3144,66.0,30.0,30.0,13.0,0.0
3145,68.0,30.0,30.0,13.0,0.0
3146,76.0,0.0,30.0,12.0,0.0
3147,78.0,0.0,30.0,12.0,0.0
3148,69.0,30.0,30.0,13.0,0.0
3149,66.0,0.0,30.0,13.0,0.0
3150,60.0,0.0,60.0,14.0,0.0
3151,75.0,30.0,30.0,12.0,0.0
3152,68.0,0.0,30.0,13.0,0.0
3153,76.0,60.0,30.0,12.0,0.0
3154,64.0,0.0,180.0,13.0,0.0
3155,73.0,30.0,120.0,12.0,0.0
3156,57.0,0.0,240.0,15.0,0.0
3157,64.0,0.0,240.0,7.0,0.0
3158,76.0,90.0,240.0,7.0,0.0
3159,61.0,0.0,120.0,14.0,0.0
3160,72.0,30.0,30.0,6.0,0.0
3161,60.0,0.0,30.0,0.0,0.0
3162,73.0,0.0,30.0,6.0,0.0
3163,61.0,30.0,30.0,0.0,0.0
3164,75.0,0.0,30.0,6.0,0.0
3165,63.0,0.0,30.0,0.0,0.0
3166,64.0,0.0,30.0,0.0,0.0
3167,64.0,0.0,60.0,14.0,0.0
3168,76.0,30.0,30.0,6.0,0.0
3169,73.0,0.0,60.0,12.0,0.0
3170,65.0,30.0,30.0,0.0,0.0
3171,77.0,0.0,30.0,6.0,0.0
3172,73.0,0.0,60.0,12.0,0.0
3173,78.0,0.0,30.0,6.0,0.0
3174,64.0,0.0,60.0,14.0,0.0
3175,61.0,0.0,60.0,13.0,0.0
3176,66.0,30.0,30.0,0.0,0.0
3177,79.0,0.0,30.0,6.0,0.0
3178,67.0,0.0,30.0,0.0,0.0
3179,56.0,0.0,240.0,15.0,0.0
3180,73.0,30.0,90.0,12.0,0.0
3181,68.0,0.0,240.0,13.0,0.0
3182,68.0,0.0,240.0,0.0,0.0
3183,64.0,0.0,90.0,14.0,0.0
3184,68.0,60.0,240.0,7.0,0.0
3185,80.0,0.0,240.0,6.0,0.0
3186,80.0,0.0,240.0,7.0,0.0
3187,63.0,30.0,30.0,14.0,0.0
3188,75.0,0.0,30.0,12.0,0.0
3189,61.0,30.0,60.0,14.0,0.0
3190,76.0,30.0,30.0,12.0,0.0
3191,78.0,0.0,30.0,12.0,0.0
3192,75.0,30.0,30.0,12.0,0.0
3193,60.0,0.0,60.0,14.0,0.0
3194,76.0,0.0,30.0,12.0,0.0
3195,64.0,0.0,120.0,13.0,0.0
3196,64.0,0.0,240.0,7.0,0.0
3197,58.0,0.0,120.0,14.0,0.0
3198,73.0,0.0,120.0,12.0,0.0
3199,55.0,0.0,240.0,15.0,0.0
3200,76.0,0.0,240.0,7.0,0.0
3201,88.0,0.0,30.0,3.0,0.0
3202,64.0,0.0,30.0,0.0,0.0
3203,76.0,30.0,30.0,6.0,0.0
3204,87.0,0.0,30.0,3.0,0.0
3205,63.0,0.0,30.0,0.0,0.0
3206,75.0,30.0,30.0,6.0,0.0
3207,61.0,30.0,30.0,0.0,0.0
3208,73.0,0.0,30.0,6.0,0.0
3209,85.0,0.0,30.0,3.0,0.0
3210,72.0,30.0,30.0,6.0,0.0
3211,64.0,0.0,60.0,13.0,0.0
3212,60.0,0.0,30.0,0.0,0.0
3213,73.0,0.0,60.0,12.0,0.0
3214,55.0,0.0,120.0,14.0,0.0
3215,84.0,0.0,30.0,3.0,0.0
3216,83.0,30.0,30.0,3.0,0.0
3217,59.0,0.0,30.0,0.0,0.0
3218,71.0,0.0,30.0,6.0,0.0
3219,64.0,61.0,60.0,13.0,0.0
3220,73.0,0.0,60.0,12.0,0.0
3221,58.0,30.0,30.0,0.0,0.0
3222,82.0,0.0,30.0,3.0,0.0
3223,70.0,0.0,30.0,6.0,0.0
3224,69.0,0.0,30.0,6.0,0.0
3225,57.0,0.0,30.0,0.0,0.0
3226,81.0,0.0,30.0,3.0,0.0
3227,68.0,0.0,360.0,7.0,0.0
3228,64.0,0.0,90.0,13.0,0.0
3229,56.0,29.0,60.0,15.0,0.0
3230,68.0,0.0,180.0,6.0,0.0
3231,80.0,0.0,360.0,7.0,0.0
3232,73.0,30.0,90.0,12.0,0.0
3233,56.0,0.0,180.0,0.0,0.0
3234,80.0,0.0,180.0,3.0,0.0
3235,56.0,0.0,240.0,14.0,0.0
3236,66.0,0.0,30.0,13.0,0.0
3237,75.0,30.0,30.0,12.0,0.0
3238,76.0,30.0,30.0,12.0,0.0
3239,56.0,9.0,60.0,15.0,0.0
3240,68.0,0.0,60.0,13.0,0.0
3241,78.0,1.0,30.0,12.0,0.0
3242,75.0,0.0,60.0,6.0,0.0
3243,84.0,0.0,60.0,3.0,0.0
3244,63.0,90.0,60.0,0.0,0.0
3245,78.0,0.0,60.0,6.0,0.0
3246,85.0,0.0,15.0,5.0,0.0
3247,72.0,10.0,15.0,13.0,0.0
3248,75.0,0.0,30.0,12.0,0.0
3249,66.0,0.0,60.0,0.0,0.0
3250,84.0,0.0,15.0,5.0,0.0
3251,73.0,10.0,15.0,13.0,0.0
3252,85.0,10.0,15.0,5.0,0.0
3253,72.0,0.0,15.0,13.0,0.0
3254,84.0,5.0,15.0,5.0,0.0
3255,76.0,0.0,30.0,12.0,0.0
3256,70.0,5.0,15.0,13.0,0.0
3257,82.0,10.0,15.0,5.0,0.0
3258,72.0,0.0,15.0,13.0,0.0
3259,84.0,0.0,15.0,5.0,0.0
3260,49.0,0.0,120.0,15.0,0.0
3261,85.0,1.0,120.0,3.0,0.0
3262,73.0,0.0,120.0,6.0,0.0
3263,76.0,0.0,120.0,6.0,0.0
3264,49.0,89.0,120.0,5.0,0.0
3265,56.0,0.0,120.0,14.0,0.0
3266,64.0,0.0,120.0,0.0,0.0
3267,73.0,0.0,120.0,13.0,0.0
3268,76.0,0.0,90.0,13.0,0.0
3269,61.0,0.0,120.0,0.0,0.0
3270,73.0,0.0,120.0,12.0,0.0
3271,85.0,30.0,90.0,5.0,0.0
3272,80.0,0.0,30.0,5.0,0.0
3273,88.0,30.0,90.0,5.0,0.0
3274,85.0,121.0,30.0,5.0,0.0
3275,73.0,0.0,120.0,5.0,0.0
3276,92.0,15.0,150.0,5.0,0.0
3277,76.0,29.0,120.0,5.0,0.0
3278,93.0,15.0,15.0,5.0,0.0
3279,92.0,15.0,15.0,5.0,0.0
3280,90.0,15.0,15.0,5.0,0.0
3281,88.0,15.0,15.0,5.0,0.0
3282,87.0,15.0,15.0,5.0,0.0
3283,85.0,60.0,15.0,5.0,0.0
3284,78.0,0.0,60.0,5.0,0.0
3285,81.0,0.0,60.0,5.0,0.0
3286,75.0,0.0,60.0,5.0,0.0
3287,84.0,60.0,60.0,5.0,0.0
3288,84.0,0.0,60.0,5.0,0.0
3289,81.0,0.0,60.0,5.0,0.0
3290,75.0,60.0,60.0,5.0,0.0
3291,78.0,0.0,60.0,5.0,0.0
3292,81.0,60.0,60.0,5.0,0.0
3293,73.0,0.0,60.0,5.0,0.0
3294,78.0,0.0,60.0,5.0,0.0
3295,85.0,0.0,60.0,5.0,0.0
3296,85.0,0.0,60.0,5.0,0.0
3297,81.0,0.0,60.0,5.0,0.0
3298,73.0,0.0,60.0,5.0,0.0
3299,78.0,120.0,60.0,5.0,0.0
3300,72.0,0.0,120.0,5.0,0.0
3301,81.0,0.0,120.0,5.0,0.0
3302,78.0,60.0,120.0,5.0,0.0
3303,87.0,0.0,120.0,5.0,0.0
3304,81.0,30.0,30.0,5.0,0.0
3305,80.0,30.0,30.0,5.0,0.0
3306,78.0,30.0,30.0,5.0,0.0
3307,76.0,30.0,30.0,5.0,0.0
3308,91.0,60.0,30.0,5.0,0.0
3309,73.0,30.0,60.0,5.0,0.0
3310,76.0,0.0,60.0,5.0,0.0
3311,92.0,30.0,90.0,5.0,0.0
3312,75.0,0.0,60.0,5.0,0.0
3313,72.0,0.0,60.0,5.0,0.0
3314,81.0,30.0,30.0,5.0,0.0
3315,80.0,30.0,30.0,5.0,0.0
3316,78.0,30.0,30.0,5.0,0.0
3317,76.0,30.0,30.0,5.0,0.0
3318,91.0,60.0,30.0,5.0,0.0
3319,73.0,0.0,60.0,5.0,0.0
3320,76.0,30.0,60.0,5.0,0.0
3321,92.0,30.0,90.0,5.0,0.0
3322,75.0,0.0,60.0,5.0,0.0
3323,72.0,0.0,60.0,5.0,0.0
3324,81.0,30.0,30.0,5.0,0.0
3325,80.0,30.0,30.0,5.0,0.0
3326,78.0,30.0,30.0,5.0,0.0
3327,76.0,30.0,30.0,5.0,0.0
3328,61.0,0.0,120.0,5.0,0.0
3329,49.0,0.0,120.0,5.0,0.0
3330,75.0,30.0,30.0,5.0,0.0
3331,73.0,30.0,30.0,5.0,0.0
3332,85.0,15.0,180.0,5.0,0.0
3333,75.0,30.0,30.0,5.0,0.0
3334,76.0,30.0,30.0,5.0,0.0
3335,45.0,15.0,120.0,5.0,0.0
3336,57.0,0.0,120.0,5.0,0.0
3337,77.0,30.0,30.0,5.0,0.0
3338,78.0,30.0,30.0,5.0,0.0
3339,79.0,0.0,30.0,5.0,0.0
3340,56.0,0.0,60.0,5.0,0.0
3341,44.0,0.0,60.0,5.0,0.0
3342,80.0,15.0,30.0,5.0,0.0
3343,84.0,0.0,15.0,5.0,0.0
3344,87.0,15.0,15.0,5.0,0.0
3345,85.0,15.0,15.0,5.0,0.0
3346,84.0,15.0,15.0,5.0,0.0
3347,81.0,15.0,15.0,5.0,0.0
3348,80.0,15.0,15.0,5.0,0.0
3349,79.0,15.0,15.0,5.0,0.0
3350,80.0,15.0,15.0,5.0,0.0
3351,79.0,15.0,15.0,5.0,0.0
3352,80.0,15.0,15.0,5.0,0.0
3353,81.0,15.0,15.0,5.0,0.0
3354,80.0,15.0,15.0,5.0,0.0
3355,78.0,15.0,15.0,5.0,0.0
3356,76.0,15.0,15.0,5.0,0.0
3357,75.0,10.0,15.0,5.0,0.0
3358,49.0,0.0,120.0,5.0,0.0
3359,73.0,10.0,15.0,5.0,0.0
3360,64.0,0.0,60.0,13.0,0.0
3361,73.0,0.0,60.0,12.0,0.0
3362,61.0,10.0,120.0,5.0,0.0
3363,68.0,0.0,60.0,13.0,0.0
3364,61.0,0.0,60.0,14.0,0.0
3365,49.0,59.0,60.0,15.0,0.0
3366,76.0,10.0,15.0,5.0,0.0
3367,80.0,31.0,15.0,5.0,0.0
3368,85.0,0.0,90.0,5.0,0.0
3369,68.0,0.0,60.0,13.0,0.0
3370,64.0,0.0,60.0,13.0,0.0
3371,61.0,0.0,60.0,15.0,0.0
3372,61.0,59.0,60.0,14.0,0.0
3373,49.0,10.0,120.0,5.0,0.0
3374,76.0,10.0,15.0,5.0,0.0
3375,73.0,0.0,60.0,12.0,0.0
3376,61.0,0.0,120.0,5.0,0.0
3377,80.0,10.0,15.0,5.0,0.0
3378,85.0,31.0,15.0,5.0,0.0
3379,88.0,0.0,90.0,5.0,0.0
3380,68.0,0.0,120.0,13.0,0.0
3381,49.0,0.0,120.0,5.0,0.0
3382,49.0,0.0,120.0,15.0,0.0
3383,61.0,30.0,120.0,5.0,0.0
3384,80.0,10.0,15.0,5.0,0.0
3385,64.0,0.0,120.0,13.0,0.0
3386,73.0,0.0,120.0,12.0,0.0
3387,61.0,0.0,120.0,14.0,0.0
3388,85.0,10.0,15.0,5.0,0.0
3389,88.0,90.0,15.0,5.0,0.0
3390,92.0,15.0,120.0,5.0,0.0
3391,93.0,15.0,15.0,5.0,0.0
3392,92.0,15.0,15.0,5.0,0.0
3393,90.0,15.0,15.0,5.0,0.0
3394,88.0,15.0,15.0,5.0,0.0
3395,87.0,15.0,15.0,5.0,0.0
3396,85.0,60.0,15.0,5.0,0.0
3397,84.0,0.0,60.0,5.0,0.0
3398,81.0,60.0,60.0,5.0,0.0
3399,75.0,0.0,60.0,5.0,0.0
3400,78.0,0.0,60.0,5.0,0.0
3401,75.0,0.0,60.0,5.0,0.0
3402,81.0,60.0,60.0,5.0,0.0
3403,78.0,0.0,60.0,5.0,0.0
3404,84.0,0.0,60.0,5.0,0.0
3405,85.0,0.0,60.0,5.0,0.0
3406,78.0,60.0,60.0,5.0,0.0
3407,81.0,0.0,60.0,5.0,0.0
3408,73.0,0.0,60.0,5.0,0.0
3409,85.0,0.0,60.0,5.0,0.0
3410,78.0,0.0,60.0,5.0,0.0
3411,81.0,120.0,60.0,5.0,0.0
3412,73.0,0.0,60.0,5.0,0.0
3413,78.0,60.0,120.0,5.0,0.0
3414,81.0,0.0,120.0,5.0,0.0
3415,87.0,0.0,120.0,5.0,0.0
3416,72.0,0.0,120.0,5.0,0.0
3417,81.0,30.0,30.0,5.0,0.0
3418,80.0,30.0,30.0,5.0,0.0
3419,78.0,30.0,30.0,5.0,0.0
3420,76.0,30.0,30.0,5.0,0.0
3421,91.0,60.0,30.0,5.0,0.0
3422,76.0,0.0,60.0,12.0,0.0
3423,92.0,30.0,90.0,5.0,0.0
3424,68.0,0.0,60.0,14.0,0.0
3425,61.0,0.0,60.0,15.0,0.0
3426,61.0,30.0,60.0,5.0,0.0
3427,73.0,0.0,60.0,13.0,0.0
3428,64.0,0.0,60.0,5.0,0.0
3429,75.0,0.0,60.0,13.0,0.0
3430,78.0,0.0,60.0,12.0,0.0
3431,60.0,0.0,60.0,15.0,0.0
3432,60.0,0.0,60.0,5.0,0.0
3433,68.0,0.0,60.0,14.0,0.0
3434,63.0,30.0,60.0,5.0,0.0
3435,81.0,0.0,30.0,5.0,0.0
3436,80.0,30.0,30.0,5.0,0.0
3437,78.0,30.0,30.0,5.0,0.0
3438,76.0,30.0,30.0,5.0,0.0
3439,91.0,60.0,30.0,5.0,0.0
3440,56.0,0.0,60.0,14.0,0.0
3441,92.0,30.0,90.0,5.0,0.0
3442,64.0,0.0,60.0,5.0,0.0
3443,61.0,0.0,60.0,13.0,0.0
3444,64.0,0.0,60.0,12.0,0.0
3445,49.0,0.0,60.0,15.0,0.0
3446,61.0,30.0,60.0,5.0,0.0
3447,66.0,0.0,60.0,12.0,0.0
3448,48.0,0.0,60.0,15.0,0.0
3449,63.0,0.0,60.0,13.0,0.0
3450,56.0,0.0,60.0,14.0,0.0
3451,60.0,30.0,60.0,5.0,0.0
3452,63.0,0.0,60.0,5.0,0.0
3453,81.0,0.0,30.0,5.0,0.0
3454,80.0,16.0,30.0,5.0,0.0
3455,78.0,30.0,15.0,5.0,0.0
3456,80.0,16.0,120.0,12.0,0.0
3457,73.0,0.0,120.0,14.0,0.0
3458,61.0,0.0,120.0,5.0,0.0
3459,64.0,0.0,120.0,5.0,0.0
3460,76.0,44.0,15.0,5.0,0.0
3461,76.0,0.0,120.0,13.0,0.0
3462,91.0,30.0,30.0,5.0,0.0
3463,92.0,16.0,30.0,5.0,0.0
3464,76.0,14.0,15.0,5.0,0.0
3465,78.0,0.0,120.0,12.0,0.0
3466,72.0,0.0,120.0,13.0,0.0
3467,56.0,16.0,120.0,5.0,0.0
3468,60.0,0.0,120.0,5.0,0.0
3469,75.0,44.0,15.0,5.0,0.0
3470,68.0,0.0,120.0,14.0,0.0
3471,89.0,30.0,30.0,5.0,0.0
3472,90.0,16.0,30.0,5.0,0.0
3473,75.0,14.0,15.0,5.0,0.0
3474,73.0,0.0,120.0,13.0,0.0
3475,57.0,0.0,120.0,5.0,0.0
3476,69.0,40.0,120.0,14.0,0.0
3477,76.0,0.0,120.0,12.0,0.0
3478,73.0,44.0,15.0,5.0,0.0
3479,61.0,0.0,120.0,5.0,0.0
3480,87.0,30.0,30.0,5.0,0.0
3481,88.0,16.0,30.0,5.0,0.0
3482,73.0,14.0,15.0,5.0,0.0
3483,66.0,0.0,120.0,14.0,0.0
3484,54.0,0.0,120.0,15.0,0.0
3485,69.0,0.0,120.0,13.0,0.0
3486,74.0,40.0,120.0,12.0,0.0
3487,54.0,0.0,60.0,5.0,0.0
3488,66.0,20.0,60.0,5.0,0.0
3489,69.0,20.0,20.0,5.0,0.0
3490,74.0,0.0,20.0,5.0,0.0
3491,78.0,20.0,20.0,5.0,0.0
3492,81.0,20.0,20.0,5.0,0.0
3493,86.0,0.0,20.0,5.0,0.0
3494,73.0,0.0,120.0,12.0,0.0
3495,68.0,40.0,120.0,13.0,0.0
3496,56.0,19.0,60.0,5.0,0.0
3497,64.0,0.0,60.0,5.0,0.0
3498,64.0,0.0,120.0,14.0,0.0
3499,56.0,0.0,240.0,15.0,0.0
3500,68.0,20.0,20.0,5.0,0.0
3501,73.0,1.0,20.0,5.0,0.0
3502,76.0,20.0,20.0,5.0,0.0
3503,80.0,20.0,20.0,5.0,0.0
3504,85.0,0.0,20.0,5.0,0.0
3505,72.0,0.0,120.0,12.0,0.0
3506,63.0,19.0,60.0,5.0,0.0
3507,56.0,0.0,60.0,5.0,0.0
3508,63.0,0.0,120.0,14.0,0.0
3509,66.0,61.0,120.0,13.0,0.0
3510,66.0,20.0,20.0,5.0,0.0
3511,72.0,1.0,20.0,5.0,0.0
3512,75.0,20.0,20.0,5.0,0.0
3513,78.0,20.0,20.0,5.0,0.0
3514,84.0,0.0,20.0,5.0,0.0
3515,61.0,0.0,60.0,5.0,0.0
3516,73.0,0.0,60.0,12.0,0.0
3517,49.0,0.0,60.0,15.0,0.0
3518,85.0,31.0,120.0,5.0,0.0
3519,64.0,0.0,60.0,13.0,0.0
3520,49.0,0.0,60.0,5.0,0.0
3521,63.0,59.0,60.0,14.0,0.0
3522,64.0,0.0,30.0,7.0,0.0
3523,88.0,0.0,30.0,6.0,0.0
3524,80.0,0.0,30.0,6.0,0.0
3525,76.0,0.0,30.0,12.0,0.0
3526,61.0,0.0,30.0,15.0,0.0
3527,88.0,0.0,30.0,3.0,0.0
3528,76.0,29.0,30.0,1.0,0.0
3529,64.0,0.0,30.0,0.0,0.0
3530,68.0,0.0,30.0,0.0,0.0
3531,76.0,0.0,30.0,13.0,0.0
3532,76.0,0.0,30.0,7.0,0.0
3533,64.0,0.0,30.0,1.0,0.0
3534,73.0,0.0,30.0,14.0,0.0
3535,61.0,31.0,60.0,5.0,0.0
3536,52.0,0.0,30.0,4.0,0.0
3537,76.0,0.0,30.0,1.0,0.0
3538,59.0,59.0,60.0,5.0,0.0
3539,64.0,0.0,30.0,1.0,0.0
3540,80.0,0.0,30.0,12.0,0.0
3541,68.0,0.0,30.0,0.0,0.0
3542,62.0,0.0,30.0,0.0,0.0
3543,80.0,0.0,30.0,6.0,0.0
3544,76.0,0.0,30.0,7.0,0.0
3545,74.0,29.0,30.0,12.0,0.0
3546,80.0,0.0,30.0,13.0,0.0
3547,74.0,0.0,30.0,13.0,0.0
3548,71.0,0.0,30.0,14.0,0.0
3549,64.0,0.0,30.0,7.0,0.0
3550,59.0,0.0,30.0,15.0,0.0
3551,92.0,0.0,30.0,3.0,0.0
3552,86.0,0.0,30.0,6.0,0.0
3553,52.0,0.0,30.0,4.0,0.0
3554,57.0,30.0,60.0,5.0,0.0
3555,73.0,0.0,120.0,13.0,0.0
3556,81.0,0.0,120.0,13.0,0.0
3557,93.0,0.0,120.0,3.0,0.0
3558,52.0,0.0,120.0,4.0,0.0
3559,64.0,0.0,120.0,1.0,0.0
3560,85.0,0.0,120.0,6.0,0.0
3561,76.0,0.0,120.0,7.0,0.0
3562,69.0,0.0,120.0,14.0,0.0
3563,61.0,0.0,120.0,0.0,0.0
3564,57.0,0.0,480.0,15.0,0.0
3565,76.0,0.0,120.0,1.0,0.0
3566,64.0,0.0,120.0,7.0,0.0
3567,81.0,0.0,120.0,6.0,0.0
3568,73.0,0.0,120.0,12.0,0.0
3569,81.0,0.0,120.0,12.0,0.0
3570,81.0,29.0,180.0,5.0,0.0
3571,69.0,29.0,120.0,0.0,0.0
3572,64.0,30.0,60.0,5.0,0.0
3573,61.0,1.0,60.0,5.0,0.0
3574,64.0,30.0,60.0,5.0,0.0
3575,69.0,1.0,60.0,5.0,0.0
3576,64.0,30.0,60.0,5.0,0.0
3577,85.0,29.0,60.0,5.0,0.0
3578,61.0,1.0,60.0,5.0,0.0
3579,64.0,30.0,60.0,5.0,0.0
3580,83.0,29.0,60.0,5.0,0.0
3581,57.0,1.0,60.0,5.0,0.0
3582,64.0,30.0,60.0,5.0,0.0
3583,81.0,29.0,120.0,5.0,0.0
3584,61.0,30.0,60.0,5.0,0.0
3585,64.0,30.0,60.0,5.0,0.0
3586,69.0,1.0,60.0,5.0,0.0
3587,64.0,30.0,60.0,5.0,0.0
3588,85.0,29.0,60.0,5.0,0.0
3589,61.0,1.0,60.0,5.0,0.0
3590,64.0,30.0,60.0,5.0,0.0
3591,57.0,1.0,60.0,5.0,0.0
3592,83.0,29.0,60.0,5.0,0.0
3593,54.0,29.0,240.0,15.0,0.0
3594,66.0,30.0,60.0,5.0,0.0
3595,81.0,29.0,120.0,5.0,0.0
3596,61.0,30.0,60.0,5.0,0.0
3597,66.0,30.0,60.0,5.0,0.0
3598,69.0,1.0,60.0,5.0,0.0
3599,66.0,30.0,60.0,5.0,0.0
3600,61.0,1.0,60.0,5.0,0.0
3601,86.0,0.0,60.0,5.0,0.0
3602,66.0,30.0,60.0,5.0,0.0
3603,85.0,29.0,60.0,5.0,0.0
3604,57.0,1.0,60.0,5.0,0.0
3605,50.0,29.0,240.0,15.0,0.0
3606,66.0,30.0,60.0,5.0,0.0
3607,83.0,29.0,120.0,5.0,0.0
3608,59.0,30.0,60.0,5.0,0.0
3609,66.0,30.0,60.0,5.0,0.0
3610,69.0,1.0,60.0,5.0,0.0
3611,66.0,30.0,60.0,5.0,0.0
3612,59.0,1.0,60.0,5.0,0.0
3613,66.0,30.0,60.0,5.0,0.0
3614,47.0,0.0,240.0,15.0,0.0
3615,83.0,29.0,180.0,5.0,0.0
3616,57.0,30.0,60.0,5.0,0.0
3617,66.0,30.0,60.0,5.0,0.0
3618,62.0,30.0,60.0,5.0,0.0
3619,66.0,30.0,60.0,5.0,0.0
3620,69.0,1.0,60.0,5.0,0.0
3621,66.0,30.0,60.0,5.0,0.0
3622,86.0,29.0,60.0,5.0,0.0
3623,62.0,1.0,60.0,5.0,0.0
3624,66.0,30.0,60.0,5.0,0.0
3625,85.0,29.0,60.0,5.0,0.0
3626,50.0,29.0,240.0,15.0,0.0
3627,57.0,1.0,60.0,5.0,0.0
3628,66.0,30.0,60.0,5.0,0.0
3629,83.0,29.0,120.0,5.0,0.0
3630,59.0,30.0,60.0,5.0,0.0
3631,66.0,30.0,60.0,5.0,0.0
3632,69.0,1.0,60.0,5.0,0.0
3633,66.0,30.0,60.0,5.0,0.0
3634,59.0,1.0,60.0,5.0,0.0
3635,86.0,0.0,60.0,5.0,0.0
3636,66.0,31.0,60.0,5.0,0.0
3637,90.0,1.0,60.0,5.0,0.0
3638,59.0,30.0,60.0,5.0,0.0
3639,52.0,1.0,240.0,15.0,0.0
3640,64.0,30.0,60.0,5.0,0.0
3641,62.0,30.0,60.0,5.0,0.0
3642,88.0,1.0,120.0,5.0,0.0
3643,71.0,30.0,60.0,5.0,0.0
3644,64.0,29.0,15.0,5.0,0.0
3645,62.0,29.0,60.0,5.0,0.0
3646,80.0,0.0,60.0,5.0,0.0
3647,64.0,29.0,15.0,5.0,0.0
3648,61.0,0.0,120.0,5.0,0.0
3649,45.0,30.0,120.0,15.0,0.0
3650,83.0,1.0,30.0,5.0,0.0
3651,57.0,0.0,120.0,5.0,0.0
3652,81.0,30.0,30.0,5.0,0.0
3653,80.0,30.0,30.0,5.0,0.0
3654,78.0,0.0,30.0,5.0,0.0
3655,75.0,30.0,30.0,5.0,0.0
3656,76.0,30.0,30.0,5.0,0.0
3657,74.0,30.0,30.0,5.0,0.0
3658,71.0,61.0,30.0,5.0,0.0
3659,57.0,1.0,240.0,15.0,0.0
3660,57.0,0.0,240.0,5.0,0.0
3661,81.0,15.0,120.0,6.0,0.0
3662,61.0,30.0,60.0,5.0,0.0
3663,69.0,30.0,60.0,5.0,0.0
3664,64.0,14.0,60.0,5.0,0.0
3665,69.0,14.0,60.0,5.0,0.0
3666,73.0,29.0,60.0,5.0,0.0
3667,83.0,1.0,15.0,6.0,0.0
3668,81.0,15.0,15.0,6.0,0.0
3669,80.0,1.0,15.0,6.0,0.0
3670,64.0,30.0,60.0,5.0,0.0
3671,81.0,1.0,30.0,6.0,0.0
3672,69.0,29.0,15.0,5.0,0.0
3673,85.0,0.0,30.0,6.0,0.0
3674,83.0,1.0,60.0,6.0,0.0
3675,61.0,30.0,60.0,5.0,0.0
3676,54.0,0.0,240.0,5.0,0.0
3677,54.0,0.0,240.0,15.0,0.0
3678,66.0,30.0,60.0,5.0,0.0
3679,81.0,1.0,120.0,6.0,0.0
3680,69.0,30.0,15.0,5.0,0.0
3681,73.0,30.0,60.0,5.0,0.0
3682,69.0,29.0,15.0,5.0,0.0
3683,66.0,30.0,60.0,5.0,0.0
3684,85.0,1.0,60.0,6.0,0.0
3685,61.0,30.0,60.0,5.0,0.0
3686,52.0,1.0,240.0,15.0,0.0
3687,52.0,0.0,240.0,5.0,0.0
3688,83.0,1.0,60.0,6.0,0.0
3689,69.0,29.0,15.0,5.0,0.0
3690,81.0,1.0,120.0,6.0,0.0
3691,66.0,30.0,60.0,5.0,0.0
3692,69.0,30.0,15.0,5.0,0.0
3693,73.0,30.0,60.0,5.0,0.0
3694,66.0,30.0,60.0,5.0,0.0
3695,86.0,0.0,60.0,6.0,0.0
3696,69.0,29.0,15.0,5.0,0.0
3697,85.0,1.0,60.0,6.0,0.0
3698,50.0,0.0,240.0,5.0,0.0
3699,50.0,1.0,240.0,15.0,0.0
3700,59.0,30.0,60.0,5.0,0.0
3701,69.0,30.0,60.0,5.0,0.0
3702,83.0,0.0,180.0,6.0,0.0
3703,66.0,30.0,60.0,5.0,0.0
3704,71.0,30.0,60.0,5.0,0.0
3705,69.0,30.0,15.0,5.0,0.0
3706,66.0,30.0,60.0,5.0,0.0
3707,69.0,30.0,60.0,5.0,0.0
3708,62.0,30.0,60.0,5.0,0.0
3709,47.0,0.0,240.0,5.0,0.0
3710,47.0,0.0,240.0,15.0,0.0
3711,83.0,15.0,120.0,3.0,0.0
3712,69.0,30.0,60.0,5.0,0.0
3713,66.0,14.0,60.0,5.0,0.0
3714,71.0,29.0,60.0,5.0,0.0
3715,85.0,1.0,15.0,3.0,0.0
3716,69.0,14.0,15.0,5.0,0.0
3717,83.0,15.0,15.0,3.0,0.0
3718,82.0,1.0,15.0,3.0,0.0
3719,83.0,1.0,30.0,3.0,0.0
3720,66.0,30.0,60.0,5.0,0.0
3721,86.0,1.0,30.0,3.0,0.0
3722,69.0,29.0,60.0,5.0,0.0
3723,51.0,0.0,240.0,15.0,0.0
3724,85.0,1.0,60.0,3.0,0.0
3725,51.0,1.0,240.0,5.0,0.0
3726,59.0,30.0,60.0,5.0,0.0
3727,69.0,30.0,60.0,5.0,0.0
3728,66.0,30.0,60.0,5.0,0.0
3729,83.0,1.0,120.0,3.0,0.0
3730,69.0,29.0,60.0,5.0,0.0
3731,71.0,30.0,60.0,5.0,0.0
3732,66.0,29.0,60.0,5.0,0.0
3733,83.0,0.0,60.0,3.0,0.0
3734,69.0,29.0,15.0,5.0,0.0
3735,52.0,0.0,240.0,5.0,0.0
3736,61.0,1.0,30.0,5.0,0.0
3737,52.0,30.0,240.0,15.0,0.0
3738,90.0,0.0,60.0,3.0,0.0
3739,69.0,30.0,30.0,5.0,0.0
3740,88.0,0.0,120.0,3.0,0.0
3741,64.0,30.0,30.0,5.0,0.0
3742,69.0,30.0,30.0,5.0,0.0
3743,62.0,30.0,30.0,5.0,0.0
3744,71.0,30.0,30.0,5.0,0.0
3745,80.0,0.0,60.0,3.0,0.0
3746,64.0,30.0,30.0,5.0,0.0
3747,71.0,0.0,30.0,5.0,0.0
3748,45.0,0.0,120.0,5.0,0.0
3749,83.0,30.0,60.0,3.0,0.0
3750,45.0,0.0,120.0,15.0,0.0
3751,61.0,30.0,30.0,5.0,0.0
3752,64.0,0.0,30.0,5.0,0.0
3753,69.0,30.0,30.0,5.0,0.0
3754,81.0,0.0,60.0,3.0,0.0
3755,73.0,30.0,30.0,5.0,0.0
3756,76.0,30.0,30.0,5.0,0.0
3757,81.0,30.0,30.0,5.0,0.0
3758,85.0,30.0,30.0,5.0,0.0
3759,88.0,61.0,30.0,5.0,0.0
3760,56.0,20.0,60.0,5.0,0.0
3761,56.0,20.0,180.0,15.0,0.0
3762,86.0,1.0,180.0,5.0,0.0
3763,59.0,20.0,60.0,5.0,0.0
3764,64.0,20.0,60.0,5.0,0.0
3765,62.0,20.0,20.0,5.0,0.0
3766,56.0,0.0,60.0,5.0,0.0
3767,59.0,19.0,20.0,5.0,0.0
3768,57.0,20.0,60.0,15.0,0.0
3769,57.0,0.0,60.0,5.0,0.0
3770,85.0,1.0,60.0,5.0,0.0
3771,61.0,20.0,60.0,5.0,0.0
3772,64.0,19.0,15.0,5.0,0.0
3773,62.0,20.0,60.0,5.0,0.0
3774,82.0,1.0,60.0,5.0,0.0
3775,62.0,20.0,180.0,15.0,0.0
3776,64.0,19.0,20.0,5.0,0.0
3777,71.0,20.0,60.0,5.0,0.0
3778,83.0,1.0,120.0,5.0,0.0
3779,68.0,20.0,20.0,5.0,0.0
3780,62.0,0.0,60.0,5.0,0.0
3781,64.0,19.0,20.0,5.0,0.0
3782,68.0,19.0,60.0,5.0,0.0
3783,61.0,20.0,60.0,15.0,0.0
3784,81.0,1.0,60.0,5.0,0.0
3785,61.0,0.0,60.0,5.0,0.0
3786,64.0,20.0,60.0,5.0,0.0
3787,69.0,19.0,60.0,5.0,0.0
3788,56.0,20.0,180.0,15.0,0.0
3789,88.0,1.0,60.0,5.0,0.0
3790,56.0,20.0,60.0,5.0,0.0
3791,59.0,20.0,60.0,5.0,0.0
3792,64.0,20.0,60.0,5.0,0.0
3793,87.0,1.0,60.0,5.0,0.0
3794,62.0,19.0,20.0,5.0,0.0
3795,56.0,0.0,60.0,5.0,0.0
3796,86.0,1.0,60.0,5.0,0.0
3797,59.0,19.0,20.0,5.0,0.0
3798,57.0,0.0,60.0,5.0,0.0
3799,85.0,1.0,60.0,5.0,0.0
3800,57.0,20.0,60.0,15.0,0.0
3801,61.0,20.0,60.0,5.0,0.0
3802,64.0,19.0,15.0,5.0,0.0
3803,82.0,1.0,60.0,5.0,0.0
3804,62.0,20.0,180.0,15.0,0.0
3805,62.0,20.0,60.0,5.0,0.0
3806,64.0,19.0,20.0,5.0,0.0
3807,71.0,20.0,60.0,5.0,0.0
3808,83.0,1.0,120.0,5.0,0.0
3809,68.0,20.0,20.0,5.0,0.0
3810,62.0,0.0,60.0,5.0,0.0
3811,64.0,19.0,20.0,5.0,0.0
3812,68.0,19.0,60.0,5.0,0.0
3813,61.0,0.0,60.0,5.0,0.0
3814,81.0,1.0,60.0,5.0,0.0
3815,61.0,20.0,60.0,15.0,0.0
3816,64.0,20.0,15.0,5.0,0.0
3817,69.0,20.0,60.0,5.0,0.0
3818,62.0,20.0,180.0,15.0,0.0
3819,90.0,1.0,180.0,5.0,0.0
3820,62.0,20.0,60.0,5.0,0.0
3821,66.0,20.0,60.0,5.0,0.0
3822,74.0,20.0,60.0,5.0,0.0
3823,69.0,20.0,20.0,5.0,0.0
3824,62.0,0.0,60.0,5.0,0.0
3825,66.0,19.0,20.0,5.0,0.0
3826,69.0,19.0,60.0,5.0,0.0
3827,61.0,0.0,60.0,15.0,0.0
3828,61.0,20.0,60.0,5.0,0.0
3829,88.0,1.0,60.0,5.0,0.0
3830,66.0,20.0,15.0,5.0,0.0
3831,70.0,19.0,60.0,5.0,0.0
3832,59.0,1.0,60.0,15.0,0.0
3833,59.0,20.0,60.0,5.0,0.0
3834,87.0,0.0,60.0,5.0,0.0
3835,66.0,20.0,60.0,5.0,0.0
3836,69.0,19.0,60.0,5.0,0.0
3837,65.0,20.0,60.0,5.0,0.0
3838,53.0,0.0,60.0,15.0,0.0
3839,86.0,1.0,60.0,5.0,0.0
3840,68.0,20.0,60.0,5.0,0.0
3841,71.0,19.0,60.0,5.0,0.0
3842,54.0,0.0,60.0,15.0,0.0
3843,66.0,20.0,60.0,5.0,0.0
3844,85.0,1.0,60.0,5.0,0.0
3845,69.0,20.0,60.0,5.0,0.0
3846,73.0,19.0,60.0,5.0,0.0
3847,51.0,1.0,60.0,15.0,0.0
3848,63.0,20.0,60.0,5.0,0.0
3849,83.0,0.0,60.0,5.0,0.0
3850,66.0,20.0,60.0,5.0,0.0
3851,71.0,20.0,60.0,5.0,0.0
3852,64.0,20.0,60.0,5.0,0.0
3853,52.0,1.0,120.0,15.0,0.0
3854,81.0,0.0,120.0,5.0,0.0
3855,69.0,20.0,60.0,5.0,0.0
3856,76.0,14.0,60.0,5.0,0.0
3857,73.0,19.0,20.0,5.0,0.0
3858,69.0,4.0,60.0,5.0,0.0
3859,40.0,1.0,120.0,15.0,0.0
3860,83.0,6.0,15.0,5.0,0.0
3861,64.0,20.0,60.0,5.0,0.0
3862,81.0,11.0,15.0,5.0,0.0
3863,71.0,9.0,60.0,5.0,0.0
3864,80.0,15.0,15.0,5.0,0.0
3865,81.0,1.0,15.0,5.0,0.0
3866,76.0,20.0,60.0,5.0,0.0
3867,85.0,11.0,30.0,5.0,0.0
3868,80.0,0.0,30.0,5.0,0.0
3869,74.0,19.0,20.0,5.0,0.0
3870,83.0,0.0,30.0,5.0,0.0
3871,71.0,20.0,60.0,5.0,0.0
3872,69.0,0.0,120.0,5.0,0.0
3873,73.0,0.0,120.0,5.0,0.0
3874,45.0,1.0,120.0,15.0,0.0
3875,81.0,20.0,60.0,5.0,0.0
3876,85.0,20.0,60.0,5.0,0.0
3877,83.0,19.0,60.0,5.0,0.0
3878,81.0,20.0,60.0,5.0,0.0
3879,80.0,20.0,60.0,5.0,0.0
3880,78.0,20.0,60.0,5.0,0.0
3881,76.0,20.0,60.0,5.0,0.0
3882,75.0,20.0,60.0,5.0,0.0
3883,74.0,20.0,60.0,5.0,0.0
3884,73.0,20.0,60.0,5.0,0.0
3885,69.0,20.0,60.0,5.0,0.0
3886,40.0,0.0,960.0,15.0,0.0
3887,59.0,13.0,180.0,0.0,0.0
3888,86.0,1.0,180.0,6.0,0.0
3889,52.0,0.0,960.0,15.0,0.0
3890,40.0,0.0,960.0,5.0,0.0
3891,52.0,0.0,960.0,5.0,0.0
3892,71.0,20.0,15.0,5.0,0.0
3893,68.0,20.0,20.0,5.0,0.0
3894,68.0,20.0,20.0,5.0,0.0
3895,64.0,20.0,20.0,5.0,0.0
3896,59.0,7.0,60.0,5.0,0.0
3897,64.0,19.0,20.0,5.0,0.0
3898,68.0,19.0,60.0,5.0,0.0
3899,61.0,7.0,60.0,5.0,0.0
3900,85.0,1.0,60.0,6.0,0.0
3901,61.0,13.0,60.0,0.0,0.0
3902,64.0,20.0,60.0,5.0,0.0
3903,69.0,19.0,60.0,5.0,0.0
3904,82.0,1.0,60.0,6.0,0.0
3905,62.0,20.0,60.0,5.0,0.0
3906,62.0,13.0,180.0,0.0,0.0
3907,64.0,20.0,60.0,5.0,0.0
3908,71.0,20.0,60.0,5.0,0.0
3909,83.0,1.0,120.0,6.0,0.0
3910,68.0,20.0,20.0,5.0,0.0
3911,62.0,7.0,60.0,5.0,0.0
3912,64.0,19.0,20.0,5.0,0.0
3913,68.0,19.0,60.0,5.0,0.0
3914,81.0,1.0,60.0,6.0,0.0
3915,61.0,7.0,60.0,5.0,0.0
3916,61.0,13.0,60.0,0.0,0.0
3917,64.0,20.0,60.0,5.0,0.0
3918,69.0,19.0,60.0,5.0,0.0
3919,88.0,1.0,60.0,6.0,0.0
3920,59.0,20.0,60.0,5.0,0.0
3921,59.0,13.0,180.0,0.0,0.0
3922,64.0,20.0,60.0,5.0,0.0
3923,71.0,20.0,60.0,5.0,0.0
3924,87.0,1.0,60.0,6.0,0.0
3925,68.0,19.0,20.0,5.0,0.0
3926,86.0,1.0,60.0,6.0,0.0
3927,59.0,7.0,60.0,5.0,0.0
3928,64.0,19.0,20.0,5.0,0.0
3929,68.0,19.0,60.0,5.0,0.0
3930,85.0,1.0,60.0,6.0,0.0
3931,61.0,7.0,60.0,5.0,0.0
3932,61.0,13.0,60.0,0.0,0.0
3933,69.0,19.0,60.0,5.0,0.0
3934,82.0,1.0,60.0,6.0,0.0
3935,62.0,20.0,60.0,5.0,0.0
3936,62.0,13.0,180.0,0.0,0.0
3937,64.0,20.0,15.0,5.0,0.0
3938,71.0,20.0,60.0,5.0,0.0
3939,83.0,1.0,120.0,6.0,0.0
3940,68.0,20.0,20.0,5.0,0.0
3941,62.0,7.0,60.0,5.0,0.0
3942,64.0,19.0,20.0,5.0,0.0
3943,68.0,19.0,60.0,5.0,0.0
3944,81.0,1.0,60.0,6.0,0.0
3945,61.0,7.0,60.0,5.0,0.0
3946,61.0,13.0,60.0,0.0,0.0
3947,64.0,20.0,60.0,5.0,0.0
3948,69.0,20.0,60.0,5.0,0.0
3949,90.0,0.0,180.0,3.0,0.0
3950,57.0,20.0,60.0,5.0,0.0
3951,50.0,1.0,180.0,5.0,0.0
3952,62.0,13.0,180.0,0.0,0.0
3953,62.0,20.0,60.0,5.0,0.0
3954,69.0,20.0,60.0,5.0,0.0
3955,66.0,20.0,20.0,5.0,0.0
3956,57.0,7.0,60.0,5.0,0.0
3957,62.0,19.0,20.0,5.0,0.0
3958,69.0,19.0,60.0,5.0,0.0
3959,88.0,0.0,60.0,3.0,0.0
3960,49.0,1.0,60.0,5.0,0.0
3961,57.0,7.0,60.0,5.0,0.0
3962,61.0,13.0,60.0,0.0,0.0
3963,64.0,20.0,60.0,5.0,0.0
3964,69.0,19.0,60.0,5.0,0.0
3965,47.0,0.0,60.0,5.0,0.0
3966,87.0,1.0,60.0,3.0,0.0
3967,59.0,13.0,60.0,0.0,0.0
3968,66.0,20.0,60.0,5.0,0.0
3969,69.0,19.0,60.0,5.0,0.0
3970,59.0,7.0,15.0,5.0,0.0
3971,41.0,1.0,60.0,5.0,0.0
3972,86.0,0.0,60.0,3.0,0.0
3973,53.0,13.0,60.0,0.0,0.0
3974,62.0,20.0,60.0,5.0,0.0
3975,68.0,19.0,60.0,5.0,0.0
3976,57.0,7.0,60.0,5.0,0.0
3977,42.0,0.0,60.0,5.0,0.0
3978,85.0,1.0,60.0,3.0,0.0
3979,54.0,13.0,60.0,0.0,0.0
3980,61.0,20.0,60.0,5.0,0.0
3981,69.0,19.0,60.0,5.0,0.0
3982,59.0,7.0,60.0,5.0,0.0
3983,39.0,1.0,60.0,5.0,0.0
3984,83.0,0.0,60.0,3.0,0.0
3985,51.0,13.0,60.0,0.0,0.0
3986,66.0,20.0,60.0,5.0,0.0
3987,71.0,20.0,60.0,5.0,0.0
3988,61.0,20.0,60.0,5.0,0.0
3989,81.0,0.0,120.0,3.0,0.0
3990,40.0,1.0,120.0,5.0,0.0
3991,52.0,13.0,120.0,0.0,0.0
3992,64.0,20.0,60.0,5.0,0.0
3993,73.0,7.0,60.0,5.0,0.0
3994,69.0,19.0,20.0,5.0,0.0
3995,64.0,20.0,60.0,5.0,0.0
3996,62.0,20.0,60.0,5.0,0.0
3997,41.0,0.0,120.0,5.0,0.0
3998,85.0,11.0,30.0,3.0,0.0
3999,53.0,13.0,120.0,0.0,0.0
4000,68.0,20.0,60.0,5.0,0.0
4001,83.0,1.0,90.0,3.0,0.0
4002,74.0,7.0,60.0,5.0,0.0
4003,71.0,19.0,20.0,5.0,0.0
4004,68.0,19.0,60.0,5.0,0.0
4005,81.0,1.0,300.0,6.0,0.0
4006,42.0,1.0,60.0,5.0,0.0
4007,81.0,0.0,60.0,3.0,0.0
4008,61.0,7.0,60.0,5.0,0.0
4009,54.0,13.0,60.0,0.0,0.0
4010,66.0,20.0,60.0,5.0,0.0
4011,62.0,0.0,120.0,15.0,0.0
4012,90.0,0.0,120.0,3.0,0.0
4013,50.0,0.0,120.0,5.0,0.0
4014,62.0,20.0,60.0,5.0,0.0
4015,74.0,1.0,120.0,6.0,0.0
4016,66.0,13.0,120.0,0.0,0.0
4017,66.0,20.0,60.0,5.0,0.0
4018,69.0,20.0,15.0,5.0,0.0
4019,62.0,7.0,60.0,5.0,0.0
4020,66.0,20.0,60.0,5.0,0.0
4021,69.0,19.0,15.0,5.0,0.0
4022,88.0,0.0,60.0,3.0,0.0
4023,60.0,0.0,60.0,15.0,0.0
4024,76.0,1.0,60.0,6.0,0.0
4025,64.0,7.0,60.0,5.0,0.0
4026,48.0,0.0,60.0,5.0,0.0
4027,64.0,13.0,60.0,0.0,0.0
4028,69.0,19.0,20.0,5.0,0.0
4029,76.0,19.0,60.0,5.0,0.0
4030,47.0,0.0,60.0,5.0,0.0
4031,78.0,0.0,60.0,6.0,0.0
4032,63.0,0.0,60.0,0.0,0.0
4033,66.0,20.0,60.0,5.0,0.0
4034,87.0,0.0,60.0,3.0,0.0
4035,59.0,0.0,60.0,15.0,0.0
4036,69.0,20.0,15.0,5.0,0.0
4037,75.0,19.0,60.0,5.0,0.0
4038,83.0,0.0,60.0,6.0,0.0
4039,62.0,1.0,60.0,0.0,0.0
4040,80.0,0.0,60.0,6.0,0.0
4041,52.0,0.0,60.0,5.0,0.0
4042,52.0,0.0,60.0,15.0,0.0
4043,86.0,0.0,60.0,3.0,0.0
4044,68.0,20.0,60.0,5.0,0.0
4045,71.0,20.0,60.0,5.0,0.0
4046,74.0,19.0,60.0,5.0,0.0
4047,57.0,0.0,120.0,15.0,0.0
4048,61.0,1.0,60.0,0.0,0.0
4049,45.0,0.0,120.0,5.0,0.0
4050,64.0,20.0,60.0,5.0,0.0
4051,85.0,1.0,120.0,3.0,0.0
4052,81.0,0.0,60.0,6.0,0.0
4053,69.0,20.0,60.0,5.0,0.0
4054,73.0,0.0,60.0,6.0,0.0
4055,79.0,0.0,60.0,6.0,0.0
4056,61.0,20.0,60.0,5.0,0.0
4057,67.0,20.0,60.0,5.0,0.0
4058,73.0,19.0,15.0,5.0,0.0
4059,84.0,0.0,60.0,3.0,0.0
4060,44.0,0.0,60.0,5.0,0.0
4061,56.0,0.0,60.0,15.0,0.0
4062,63.0,20.0,60.0,5.0,0.0
4063,75.0,0.0,60.0,6.0,0.0
4064,66.0,20.0,60.0,5.0,0.0
4065,72.0,19.0,60.0,5.0,0.0
4066,49.0,0.0,60.0,5.0,0.0
4067,73.0,0.0,120.0,6.0,0.0
4068,77.0,0.0,60.0,6.0,0.0
4069,49.0,1.0,60.0,15.0,0.0
4070,83.0,0.0,60.0,3.0,0.0
4071,65.0,20.0,60.0,5.0,0.0
4072,68.0,20.0,60.0,5.0,0.0
4073,71.0,19.0,60.0,5.0,0.0
4074,64.0,20.0,60.0,5.0,0.0
4075,42.0,0.0,60.0,5.0,0.0
4076,76.0,0.0,60.0,6.0,0.0
4077,82.0,0.0,60.0,3.0,0.0
4078,54.0,1.0,60.0,15.0,0.0
4079,70.0,20.0,60.0,5.0,0.0
4080,73.0,19.0,60.0,5.0,0.0
4081,71.0,1.0,60.0,0.0,0.0
4082,83.0,0.0,60.0,6.0,0.0
4083,56.0,0.0,60.0,15.0,0.0
4084,76.0,0.0,120.0,6.0,0.0
4085,81.0,0.0,60.0,3.0,0.0
4086,44.0,0.0,60.0,5.0,0.0
4087,64.0,20.0,60.0,5.0,0.0
4088,71.0,20.0,60.0,5.0,0.0
4089,42.0,0.0,60.0,5.0,0.0
4090,82.0,0.0,60.0,6.0,0.0
4091,54.0,0.0,60.0,15.0,0.0
4092,85.0,1.0,60.0,3.0,0.0
4093,70.0,0.0,60.0,0.0,0.0
4094,70.0,20.0,60.0,5.0,0.0
4095,76.0,19.0,15.0,5.0,0.0
4096,66.0,20.0,15.0,5.0,0.0
4097,87.0,0.0,60.0,3.0,0.0
4098,78.0,1.0,60.0,6.0,0.0
4099,81.0,0.0,60.0,6.0,0.0
4100,69.0,0.0,60.0,0.0,0.0
4101,47.0,0.0,60.0,15.0,0.0
4102,47.0,0.0,60.0,5.0,0.0
4103,69.0,20.0,60.0,5.0,0.0
4104,75.0,19.0,60.0,5.0,0.0
4105,88.0,0.0,60.0,3.0,0.0
4106,52.0,0.0,60.0,15.0,0.0
4107,68.0,0.0,60.0,0.0,0.0
4108,52.0,20.0,60.0,5.0,0.0
4109,76.0,1.0,60.0,6.0,0.0
4110,80.0,0.0,60.0,6.0,0.0
4111,76.0,0.0,60.0,5.0,0.0
4112,56.0,10.0,60.0,5.0,0.0
4113,59.0,19.0,60.0,5.0,0.0
4114,76.0,0.0,60.0,5.0,0.0
4115,64.0,10.0,30.0,15.0,0.0
4116,91.0,0.0,60.0,3.0,0.0
4117,71.0,1.0,60.0,5.0,0.0
4118,79.0,0.0,60.0,5.0,0.0
4119,79.0,0.0,60.0,6.0,0.0
4120,76.0,0.0,60.0,6.0,0.0
4121,67.0,0.0,60.0,0.0,0.0
4122,63.0,20.0,60.0,5.0,0.0
4123,64.0,20.0,20.0,5.0,0.0
4124,66.0,1.0,60.0,0.0,0.0
4125,50.0,0.0,60.0,5.0,0.0
4126,66.0,0.0,60.0,14.0,0.0
4127,71.0,0.0,60.0,13.0,0.0
4128,83.0,20.0,60.0,12.0,0.0
4129,62.0,20.0,120.0,15.0,0.0
4130,71.0,0.0,120.0,6.0,0.0
4131,78.0,0.0,60.0,6.0,0.0
4132,90.0,0.0,120.0,3.0,0.0
4133,54.0,20.0,60.0,5.0,0.0
4134,59.0,19.0,60.0,5.0,0.0
4135,74.0,0.0,60.0,5.0,0.0
4136,83.0,0.0,60.0,5.0,0.0
4137,78.0,0.0,60.0,5.0,0.0
4138,60.0,0.0,120.0,15.0,0.0
4139,83.0,1.0,120.0,6.0,0.0
4140,50.0,1.0,60.0,0.0,0.0
4141,61.0,20.0,60.0,5.0,0.0
4142,62.0,0.0,20.0,5.0,0.0
4143,88.0,20.0,60.0,12.0,0.0
4144,48.0,0.0,60.0,0.0,0.0
4145,88.0,0.0,120.0,3.0,0.0
4146,72.0,0.0,60.0,14.0,0.0
4147,59.0,0.0,120.0,15.0,0.0
4148,79.0,0.0,60.0,13.0,0.0
4149,48.0,0.0,60.0,5.0,0.0
4150,52.0,20.0,60.0,5.0,0.0
4151,55.0,19.0,60.0,5.0,0.0
4152,76.0,20.0,60.0,5.0,0.0
4153,81.0,0.0,60.0,5.0,0.0
4154,88.0,0.0,60.0,5.0,0.0
4155,64.0,1.0,60.0,0.0,0.0
4156,57.0,0.0,120.0,15.0,0.0
4157,81.0,0.0,120.0,6.0,0.0
4158,59.0,20.0,60.0,5.0,0.0
4159,60.0,0.0,20.0,5.0,0.0
4160,74.0,0.0,60.0,12.0,0.0
4161,55.0,0.0,120.0,15.0,0.0
4162,62.0,0.0,60.0,14.0,0.0
4163,62.0,1.0,60.0,0.0,0.0
4164,86.0,0.0,120.0,3.0,0.0
4165,47.0,0.0,60.0,5.0,0.0
4166,71.0,20.0,60.0,13.0,0.0
4167,50.0,20.0,60.0,5.0,0.0
4168,55.0,19.0,60.0,5.0,0.0
4169,79.0,20.0,60.0,5.0,0.0
4170,47.0,1.0,60.0,0.0,0.0
4171,74.0,0.0,60.0,5.0,0.0
4172,79.0,1.0,120.0,6.0,0.0
4173,71.0,0.0,60.0,5.0,0.0
4174,54.0,0.0,120.0,15.0,0.0
4175,57.0,20.0,60.0,5.0,0.0
4176,59.0,0.0,20.0,5.0,0.0
4177,52.0,0.0,120.0,15.0,0.0
4178,76.0,0.0,60.0,13.0,0.0
4179,69.0,0.0,60.0,14.0,0.0
4180,45.0,0.0,60.0,0.0,0.0
4181,84.0,0.0,120.0,3.0,0.0
4182,45.0,0.0,60.0,5.0,0.0
4183,84.0,20.0,60.0,12.0,0.0
4184,48.0,20.0,60.0,5.0,0.0
4185,54.0,19.0,60.0,5.0,0.0
4186,50.0,0.0,120.0,15.0,0.0
4187,72.0,0.0,60.0,5.0,0.0
4188,84.0,20.0,60.0,5.0,0.0
4189,78.0,0.0,60.0,5.0,0.0
4190,60.0,1.0,60.0,0.0,0.0
4191,78.0,0.0,120.0,6.0,0.0
4192,56.0,20.0,60.0,5.0,0.0
4193,57.0,0.0,20.0,5.0,0.0
4194,59.0,0.0,60.0,14.0,0.0
4195,59.0,1.0,60.0,0.0,0.0
4196,71.0,20.0,60.0,12.0,0.0
4197,48.0,1.0,960.0,15.0,0.0
4198,83.0,1.0,120.0,3.0,0.0
4199,67.0,0.0,60.0,13.0,0.0
4200,43.0,0.0,60.0,5.0,0.0
4201,47.0,20.0,60.0,5.0,0.0
4202,52.0,19.0,60.0,5.0,0.0
4203,43.0,0.0,60.0,0.0,0.0
4204,71.0,0.0,60.0,5.0,0.0
4205,67.0,0.0,60.0,5.0,0.0
4206,76.0,0.0,60.0,5.0,0.0
4207,76.0,0.0,120.0,6.0,0.0
4208,54.0,20.0,60.0,5.0,0.0
4209,55.0,20.0,20.0,5.0,0.0
4210,69.0,0.0,60.0,13.0,0.0
4211,81.0,1.0,60.0,3.0,0.0
4212,66.0,0.0,60.0,14.0,0.0
4213,42.0,0.0,60.0,0.0,0.0
4214,42.0,0.0,60.0,5.0,0.0
4215,81.0,20.0,60.0,12.0,0.0
4216,45.0,20.0,60.0,5.0,0.0
4217,51.0,19.0,60.0,5.0,0.0
4218,75.0,1.0,60.0,6.0,0.0
4219,81.0,0.0,60.0,5.0,0.0
4220,69.0,0.0,60.0,5.0,0.0
4221,75.0,0.0,60.0,5.0,0.0
4222,93.0,1.0,120.0,3.0,0.0
4223,57.0,0.0,60.0,0.0,0.0
4224,52.0,20.0,60.0,5.0,0.0
4225,54.0,20.0,20.0,5.0,0.0
4226,40.0,0.0,60.0,0.0,0.0
4227,59.0,0.0,60.0,13.0,0.0
4228,64.0,0.0,60.0,12.0,0.0
4229,52.0,0.0,60.0,14.0,0.0
4230,40.0,20.0,60.0,5.0,0.0
4231,76.0,1.0,120.0,6.0,0.0
4232,43.0,20.0,60.0,5.0,0.0
4233,47.0,19.0,60.0,5.0,0.0
4234,79.0,0.0,60.0,5.0,0.0
4235,52.0,0.0,60.0,0.0,0.0
4236,91.0,0.0,120.0,3.0,0.0
4237,76.0,0.0,60.0,5.0,0.0
4238,71.0,20.0,60.0,5.0,0.0
4239,51.0,20.0,60.0,5.0,0.0
4240,52.0,0.0,20.0,5.0,0.0
4241,71.0,0.0,60.0,14.0,0.0
4242,38.0,20.0,60.0,5.0,0.0
4243,83.0,1.0,840.0,6.0,0.0
4244,50.0,1.0,60.0,0.0,0.0
4245,74.0,0.0,60.0,13.0,0.0
4246,83.0,0.0,60.0,12.0,0.0
4247,42.0,20.0,60.0,5.0,0.0
4248,47.0,19.0,60.0,5.0,0.0
4249,90.0,1.0,60.0,3.0,0.0
4250,62.0,0.0,60.0,0.0,0.0
4251,66.0,0.0,60.0,5.0,0.0
4252,78.0,0.0,60.0,5.0,0.0
4253,71.0,0.0,60.0,5.0,0.0
4254,48.0,20.0,60.0,5.0,0.0
4255,50.0,20.0,20.0,5.0,0.0
4256,64.0,0.0,960.0,13.0,0.0
4257,88.0,1.0,180.0,3.0,0.0
4258,76.0,20.0,60.0,5.0,0.0
4259,48.0,1.0,120.0,0.0,0.0
4260,36.0,0.0,60.0,5.0,0.0
4261,71.0,0.0,720.0,12.0,0.0
4262,55.0,0.0,840.0,14.0,0.0
4263,71.0,20.0,60.0,5.0,0.0
4264,40.0,0.0,60.0,5.0,0.0
4265,67.0,19.0,60.0,5.0,0.0
4266,48.0,0.0,60.0,5.0,0.0
4267,43.0,0.0,20.0,5.0,0.0
4268,63.0,0.0,60.0,5.0,0.0
4269,64.0,20.0,20.0,5.0,0.0
4270,36.0,0.0,60.0,5.0,0.0
4271,76.0,20.0,60.0,5.0,0.0
4272,71.0,20.0,60.0,5.0,0.0
4273,40.0,0.0,20.0,5.0,0.0
4274,67.0,19.0,60.0,5.0,0.0
4275,48.0,20.0,60.0,5.0,0.0
4276,91.0,1.0,60.0,3.0,0.0
4277,63.0,20.0,60.0,5.0,0.0
4278,43.0,0.0,20.0,5.0,0.0
4279,64.0,0.0,20.0,5.0,0.0
4280,64.0,1.0,180.0,0.0,0.0
4281,76.0,20.0,60.0,5.0,0.0
4282,36.0,0.0,60.0,5.0,0.0
4283,90.0,1.0,60.0,3.0,0.0
4284,71.0,20.0,60.0,5.0,0.0
4285,40.0,19.0,20.0,5.0,0.0
4286,67.0,0.0,60.0,5.0,0.0
4287,48.0,20.0,60.0,5.0,0.0
4288,88.0,1.0,60.0,3.0,0.0
4289,43.0,19.0,20.0,5.0,0.0
4290,63.0,20.0,60.0,5.0,0.0
4291,64.0,0.0,20.0,5.0,0.0
4292,76.0,0.0,60.0,5.0,0.0
4293,36.0,20.0,60.0,5.0,0.0
4294,71.0,20.0,60.0,5.0,0.0
4295,40.0,0.0,20.0,5.0,0.0
4296,67.0,0.0,60.0,5.0,0.0
4297,48.0,20.0,60.0,5.0,0.0
4298,67.0,0.0,60.0,0.0,0.0
4299,63.0,0.0,60.0,5.0,0.0
4300,43.0,19.0,20.0,5.0,0.0
4301,64.0,0.0,20.0,5.0,0.0
4302,76.0,0.0,60.0,5.0,0.0
4303,88.0,1.0,180.0,3.0,0.0
4304,36.0,20.0,60.0,5.0,0.0
4305,47.0,1.0,120.0,15.0,0.0
4306,66.0,1.0,60.0,0.0,0.0
4307,71.0,0.0,60.0,5.0,0.0
4308,40.0,19.0,20.0,5.0,0.0
4309,67.0,0.0,60.0,5.0,0.0
4310,64.0,0.0,60.0,0.0,0.0
4311,48.0,20.0,60.0,5.0,0.0
4312,43.0,19.0,20.0,5.0,0.0
4313,63.0,0.0,60.0,5.0,0.0
4314,64.0,0.0,20.0,5.0,0.0
4315,76.0,0.0,60.0,5.0,0.0
4316,36.0,20.0,60.0,5.0,0.0
4317,40.0,19.0,20.0,5.0,0.0
4318,71.0,0.0,60.0,5.0,0.0
4319,67.0,19.0,60.0,5.0,0.0
4320,91.0,0.0,60.0,3.0,0.0
4321,43.0,0.0,20.0,5.0,0.0
4322,63.0,0.0,60.0,5.0,0.0
4323,64.0,20.0,20.0,5.0,0.0
4324,40.0,0.0,60.0,5.0,0.0
4325,48.0,0.0,15.0,5.0,0.0
4326,36.0,0.0,240.0,5.0,0.0
4327,82.0,1.0,120.0,6.0,0.0
4328,90.0,1.0,60.0,3.0,0.0
4329,88.0,20.0,60.0,5.0,0.0
4330,70.0,0.0,240.0,12.0,0.0
4331,88.0,0.0,120.0,3.0,0.0
4332,67.0,0.0,60.0,0.0,0.0
4333,82.0,20.0,20.0,5.0,0.0
4334,76.0,19.0,20.0,5.0,0.0
4335,66.0,1.0,60.0,0.0,0.0
4336,54.0,3.0,120.0,14.0,0.0
4337,76.0,0.0,120.0,6.0,0.0
4338,76.0,20.0,20.0,5.0,0.0
4339,70.0,19.0,20.0,5.0,0.0
4340,82.0,0.0,60.0,3.0,0.0
4341,70.0,20.0,20.0,5.0,0.0
4342,64.0,0.0,60.0,0.0,0.0
4343,64.0,16.0,20.0,5.0,0.0
4344,58.0,20.0,60.0,5.0,0.0
4345,71.0,0.0,120.0,12.0,0.0
4346,59.0,1.0,2400.0,7.0,0.0
4347,71.0,0.0,2400.0,7.0,0.0
4348,59.0,20.0,60.0,5.0,0.0
4349,78.0,1.0,180.0,6.0,0.0
4350,35.0,0.0,120.0,5.0,0.0
4351,47.0,0.0,120.0,5.0,0.0
4352,83.0,0.0,120.0,3.0,0.0
4353,54.0,0.0,120.0,14.0,0.0
4354,63.0,0.0,120.0,0.0,0.0
4355,63.0,1.0,120.0,13.0,0.0
4356,63.0,20.0,60.0,5.0,0.0
4357,66.0,19.0,60.0,5.0,0.0
4358,71.0,20.0,60.0,5.0,0.0
4359,75.0,20.0,60.0,5.0,0.0
4360,83.0,20.0,60.0,5.0,0.0
4361,78.0,19.0,20.0,5.0,0.0
4362,75.0,19.0,60.0,5.0,0.0
4363,71.0,20.0,60.0,5.0,0.0
4364,83.0,1.0,60.0,6.0,0.0
4365,66.0,20.0,60.0,5.0,0.0
4366,63.0,19.0,60.0,5.0,0.0
4367,35.0,0.0,120.0,5.0,0.0
4368,47.0,20.0,120.0,15.0,0.0
4369,81.0,1.0,60.0,6.0,0.0
4370,59.0,20.0,60.0,5.0,0.0
4371,83.0,1.0,180.0,3.0,0.0
4372,47.0,0.0,120.0,5.0,0.0
4373,64.0,20.0,60.0,5.0,0.0
4374,67.0,19.0,60.0,5.0,0.0
4375,71.0,0.0,60.0,5.0,0.0
4376,79.0,1.0,60.0,6.0,0.0
4377,76.0,20.0,60.0,5.0,0.0
4378,83.0,20.0,60.0,5.0,0.0
4379,79.0,19.0,20.0,5.0,0.0
4380,76.0,19.0,60.0,5.0,0.0
4381,71.0,20.0,60.0,5.0,0.0
4382,88.0,1.0,60.0,3.0,0.0
4383,67.0,20.0,60.0,5.0,0.0
4384,64.0,19.0,60.0,5.0,0.0
4385,87.0,1.0,60.0,3.0,0.0
4386,47.0,0.0,120.0,5.0,0.0
4387,78.0,1.0,180.0,6.0,0.0
4388,35.0,0.0,120.0,5.0,0.0
4389,59.0,20.0,60.0,5.0,0.0
4390,47.0,20.0,120.0,15.0,0.0
4391,63.0,20.0,60.0,5.0,0.0
4392,66.0,19.0,60.0,5.0,0.0
4393,71.0,0.0,60.0,5.0,0.0
4394,83.0,1.0,60.0,3.0,0.0
4395,75.0,20.0,60.0,5.0,0.0
4396,83.0,20.0,60.0,5.0,0.0
4397,78.0,19.0,20.0,5.0,0.0
4398,75.0,19.0,60.0,5.0,0.0
4399,83.0,1.0,60.0,6.0,0.0
4400,71.0,20.0,60.0,5.0,0.0
4401,66.0,20.0,60.0,5.0,0.0
4402,63.0,19.0,60.0,5.0,0.0
4403,47.0,0.0,120.0,5.0,0.0
4404,35.0,0.0,120.0,5.0,0.0
4405,47.0,20.0,120.0,15.0,0.0
4406,81.0,1.0,60.0,6.0,0.0
4407,59.0,20.0,60.0,5.0,0.0
4408,83.0,1.0,180.0,3.0,0.0
4409,64.0,20.0,60.0,5.0,0.0
4410,67.0,19.0,60.0,5.0,0.0
4411,71.0,0.0,60.0,5.0,0.0
4412,79.0,1.0,60.0,6.0,0.0
4413,76.0,20.0,60.0,5.0,0.0
4414,83.0,20.0,60.0,5.0,0.0
4415,79.0,19.0,20.0,5.0,0.0
4416,76.0,19.0,60.0,5.0,0.0
4417,88.0,1.0,60.0,3.0,0.0
4418,71.0,20.0,60.0,5.0,0.0
4419,67.0,20.0,60.0,5.0,0.0
4420,64.0,19.0,60.0,5.0,0.0
4421,59.0,20.0,60.0,5.0,0.0
4422,87.0,1.0,60.0,3.0,0.0
4423,59.0,1.0,180.0,0.0,0.0
4424,47.0,20.0,120.0,15.0,0.0
4425,35.0,0.0,240.0,5.0,0.0
4426,47.0,1.0,240.0,5.0,0.0
4427,63.0,20.0,60.0,5.0,0.0
4428,66.0,19.0,60.0,5.0,0.0
4429,71.0,0.0,60.0,5.0,0.0
4430,83.0,1.0,60.0,3.0,0.0
4431,75.0,20.0,60.0,5.0,0.0
4432,83.0,20.0,60.0,5.0,0.0
4433,78.0,19.0,20.0,5.0,0.0
4434,75.0,19.0,60.0,5.0,0.0
4435,71.0,20.0,60.0,5.0,0.0
4436,71.0,0.0,60.0,0.0,0.0
4437,66.0,20.0,60.0,5.0,0.0
4438,63.0,19.0,60.0,5.0,0.0
4439,71.0,1.0,60.0,0.0,0.0
4440,61.0,20.0,60.0,5.0,0.0
4441,47.0,20.0,120.0,15.0,0.0
4442,76.0,1.0,180.0,6.0,0.0
4443,47.0,0.0,240.0,5.0,0.0
4444,35.0,1.0,240.0,5.0,0.0
4445,64.0,20.0,60.0,5.0,0.0
4446,70.0,19.0,60.0,5.0,0.0
4447,73.0,0.0,60.0,5.0,0.0
4448,70.0,1.0,60.0,0.0,0.0
4449,76.0,20.0,60.0,5.0,0.0
4450,85.0,20.0,60.0,5.0,0.0
4451,82.0,19.0,20.0,5.0,0.0
4452,76.0,19.0,60.0,5.0,0.0
4453,73.0,20.0,60.0,5.0,0.0
4454,88.0,0.0,60.0,6.0,0.0
4455,70.0,20.0,60.0,5.0,0.0
4456,64.0,19.0,60.0,5.0,0.0
4457,35.0,0.0,240.0,5.0,0.0
4458,47.0,0.0,240.0,5.0,0.0
4459,88.0,1.0,60.0,6.0,0.0
4460,47.0,0.0,120.0,15.0,0.0
4461,78.0,1.0,180.0,3.0,0.0
4462,63.0,20.0,60.0,5.0,0.0
4463,66.0,20.0,60.0,5.0,0.0
4464,69.0,19.0,60.0,5.0,0.0
4465,75.0,20.0,60.0,5.0,0.0
4466,87.0,1.0,60.0,6.0,0.0
4467,78.0,20.0,60.0,5.0,0.0
4468,87.0,20.0,60.0,5.0,0.0
4469,81.0,19.0,20.0,5.0,0.0
4470,78.0,19.0,60.0,5.0,0.0
4471,75.0,20.0,60.0,5.0,0.0
4472,90.0,1.0,60.0,3.0,0.0
4473,69.0,20.0,60.0,5.0,0.0
4474,66.0,19.0,60.0,5.0,0.0
4475,35.0,0.0,240.0,5.0,0.0
4476,47.0,1.0,240.0,5.0,0.0
4477,90.0,1.0,60.0,3.0,0.0
4478,47.0,0.0,120.0,15.0,0.0
4479,56.0,1.0,180.0,0.0,0.0
4480,64.0,20.0,60.0,5.0,0.0
4481,68.0,20.0,60.0,5.0,0.0
4482,71.0,19.0,60.0,5.0,0.0
4483,88.0,1.0,60.0,3.0,0.0
4484,76.0,20.0,60.0,5.0,0.0
4485,80.0,20.0,60.0,5.0,0.0
4486,88.0,20.0,60.0,5.0,0.0
4487,83.0,19.0,20.0,5.0,0.0
4488,80.0,19.0,60.0,5.0,0.0
4489,76.0,20.0,60.0,5.0,0.0
4490,68.0,0.0,60.0,0.0,0.0
4491,71.0,20.0,60.0,5.0,0.0
4492,68.0,19.0,60.0,5.0,0.0
4493,69.0,1.0,180.0,6.0,0.0
4494,35.0,1.0,240.0,5.0,0.0
4495,47.0,0.0,240.0,5.0,0.0
4496,47.0,0.0,120.0,15.0,0.0
4497,66.0,20.0,60.0,5.0,0.0
4498,68.0,1.0,60.0,0.0,0.0
4499,69.0,20.0,60.0,5.0,0.0
4500,75.0,19.0,60.0,5.0,0.0
4501,78.0,20.0,60.0,5.0,0.0
4502,66.0,1.0,60.0,0.0,0.0
4503,81.0,20.0,60.0,5.0,0.0
4504,90.0,20.0,60.0,5.0,0.0
4505,87.0,19.0,20.0,5.0,0.0
4506,81.0,19.0,60.0,5.0,0.0
4507,78.0,20.0,60.0,5.0,0.0
4508,81.0,0.0,60.0,6.0,0.0
4509,75.0,20.0,60.0,5.0,0.0
4510,69.0,19.0,60.0,5.0,0.0
4511,81.0,1.0,60.0,6.0,0.0
4512,59.0,1.0,180.0,0.0,0.0
4513,47.0,0.0,120.0,15.0,0.0
4514,68.0,20.0,60.0,5.0,0.0
4515,35.0,0.0,240.0,5.0,0.0
4516,47.0,0.0,240.0,5.0,0.0
4517,71.0,20.0,60.0,5.0,0.0
4518,76.0,19.0,60.0,5.0,0.0
4519,80.0,20.0,60.0,5.0,0.0
4520,80.0,1.0,60.0,6.0,0.0
4521,83.0,20.0,60.0,5.0,0.0
4522,92.0,20.0,60.0,5.0,0.0
4523,88.0,19.0,20.0,5.0,0.0
4524,83.0,19.0,60.0,5.0,0.0
4525,68.0,0.0,60.0,0.0,0.0
4526,80.0,20.0,60.0,5.0,0.0
4527,76.0,20.0,60.0,5.0,0.0
4528,71.0,19.0,60.0,5.0,0.0
4529,59.0,1.0,180.0,14.0,0.0
4530,93.0,0.0,180.0,3.0,0.0
4531,63.0,0.0,300.0,13.0,0.0
4532,59.0,0.0,180.0,5.0,0.0
4533,59.0,0.0,180.0,15.0,0.0
4534,68.0,1.0,60.0,0.0,0.0
4535,47.0,0.0,180.0,5.0,0.0
4536,66.0,0.0,300.0,12.0,0.0
4537,69.0,20.0,60.0,5.0,0.0
4538,75.0,20.0,60.0,5.0,0.0
4539,78.0,19.0,60.0,5.0,0.0
4540,81.0,20.0,60.0,5.0,0.0
4541,66.0,1.0,60.0,0.0,0.0
4542,87.0,20.0,60.0,5.0,0.0
4543,93.0,20.0,60.0,5.0,0.0
4544,81.0,1.0,180.0,6.0,0.0
4545,90.0,19.0,20.0,5.0,0.0
4546,87.0,19.0,60.0,5.0,0.0
4547,90.0,0.0,60.0,3.0,0.0
4548,60.0,0.0,60.0,15.0,0.0
4549,60.0,1.0,60.0,14.0,0.0
4550,60.0,0.0,60.0,5.0,0.0
4551,48.0,0.0,60.0,5.0,0.0
4552,81.0,20.0,60.0,5.0,0.0
4553,78.0,20.0,60.0,5.0,0.0
4554,69.0,20.0,60.0,5.0,0.0
4555,59.0,0.0,180.0,5.0,0.0
4556,47.0,0.0,180.0,5.0,0.0
4557,69.0,0.0,180.0,0.0,0.0
4558,59.0,0.0,180.0,14.0,0.0
4559,88.0,0.0,60.0,3.0,0.0
4560,59.0,0.0,180.0,15.0,0.0
4561,75.0,19.0,20.0,5.0,0.0
4562,78.0,19.0,60.0,5.0,0.0
4563,87.0,0.0,60.0,3.0,0.0
4564,69.0,1.0,60.0,12.0,0.0
4565,81.0,20.0,60.0,5.0,0.0
4566,66.0,0.0,60.0,13.0,0.0
4567,78.0,0.0,60.0,6.0,0.0
4568,87.0,20.0,60.0,5.0,0.0
4569,76.0,1.0,60.0,6.0,0.0
4570,66.0,0.0,60.0,13.0,0.0
4571,93.0,20.0,60.0,5.0,0.0
4572,69.0,0.0,60.0,12.0,0.0
4573,90.0,19.0,20.0,5.0,0.0
4574,87.0,19.0,60.0,5.0,0.0
4575,60.0,1.0,60.0,5.0,0.0
4576,48.0,0.0,60.0,5.0,0.0
4577,60.0,0.0,60.0,14.0,0.0
4578,60.0,0.0,60.0,15.0,0.0
4579,66.0,0.0,60.0,0.0,0.0
4580,81.0,20.0,60.0,5.0,0.0
4581,75.0,0.0,60.0,6.0,0.0
4582,78.0,20.0,60.0,5.0,0.0
4583,59.0,0.0,180.0,15.0,0.0
4584,47.0,0.0,180.0,5.0,0.0
4585,59.0,0.0,180.0,5.0,0.0
4586,59.0,0.0,60.0,14.0,0.0
4587,93.0,0.0,180.0,3.0,0.0
4588,69.0,20.0,60.0,5.0,0.0
4589,64.0,1.0,60.0,0.0,0.0
4590,75.0,19.0,20.0,5.0,0.0
4591,78.0,19.0,60.0,5.0,0.0
4592,78.0,0.0,60.0,12.0,0.0
4593,71.0,0.0,120.0,14.0,0.0
4594,63.0,0.0,60.0,0.0,0.0
4595,75.0,1.0,60.0,13.0,0.0
4596,81.0,20.0,60.0,5.0,0.0
4597,87.0,20.0,60.0,5.0,0.0
4598,78.0,1.0,60.0,12.0,0.0
4599,75.0,0.0,60.0,13.0,0.0
4600,81.0,0.0,180.0,6.0,0.0
4601,93.0,20.0,60.0,5.0,0.0
4602,90.0,19.0,20.0,5.0,0.0
4603,87.0,19.0,60.0,5.0,0.0
4604,90.0,0.0,60.0,3.0,0.0
4605,78.0,1.0,60.0,12.0,0.0
4606,60.0,0.0,60.0,15.0,0.0
4607,72.0,0.0,60.0,14.0,0.0
4608,48.0,0.0,60.0,5.0,0.0
4609,75.0,0.0,60.0,13.0,0.0
4610,81.0,20.0,60.0,5.0,0.0
4611,60.0,0.0,60.0,5.0,0.0
4612,78.0,20.0,60.0,5.0,0.0
4613,59.0,0.0,180.0,5.0,0.0
4614,78.0,1.0,60.0,12.0,0.0
4615,47.0,1.0,180.0,5.0,0.0
4616,88.0,0.0,60.0,3.0,0.0
4617,75.0,0.0,60.0,13.0,0.0
4618,69.0,0.0,180.0,0.0,0.0
4619,69.0,20.0,60.0,5.0,0.0
4620,59.0,0.0,180.0,15.0,0.0
4621,71.0,0.0,180.0,14.0,0.0
4622,75.0,19.0,20.0,5.0,0.0
4623,78.0,19.0,60.0,5.0,0.0
4624,81.0,0.0,60.0,12.0,0.0
4625,78.0,0.0,60.0,6.0,0.0
4626,87.0,0.0,60.0,3.0,0.0
4627,78.0,1.0,60.0,13.0,0.0
4628,81.0,20.0,60.0,5.0,0.0
4629,87.0,20.0,60.0,5.0,0.0
4630,76.0,0.0,60.0,6.0,0.0
4631,81.0,0.0,60.0,12.0,0.0
4632,78.0,0.0,60.0,13.0,0.0
4633,93.0,20.0,60.0,5.0,0.0
4634,90.0,19.0,20.0,5.0,0.0
4635,87.0,19.0,60.0,5.0,0.0
4636,72.0,0.0,60.0,14.0,0.0
4637,75.0,0.0,60.0,6.0,0.0
4638,60.0,0.0,60.0,5.0,0.0
4639,48.0,0.0,60.0,5.0,0.0
4640,60.0,0.0,60.0,15.0,0.0
4641,66.0,1.0,60.0,0.0,0.0
4642,81.0,20.0,60.0,5.0,0.0
4643,78.0,20.0,60.0,5.0,0.0
4644,69.0,20.0,60.0,5.0,0.0
4645,59.0,1.0,480.0,5.0,0.0
4646,64.0,1.0,60.0,0.0,0.0
4647,47.0,0.0,480.0,5.0,0.0
4648,71.0,1.0,120.0,14.0,0.0
4649,59.0,1.0,600.0,15.0,0.0
4650,75.0,19.0,20.0,5.0,0.0
4651,78.0,19.0,60.0,5.0,0.0
4652,63.0,0.0,60.0,0.0,0.0
4653,81.0,20.0,60.0,5.0,0.0
4654,87.0,20.0,60.0,5.0,0.0
4655,89.0,20.0,60.0,5.0,0.0
4656,90.0,20.0,20.0,5.0,0.0
4657,93.0,20.0,60.0,5.0,0.0
4658,87.0,20.0,60.0,5.0,0.0
4659,88.0,20.0,60.0,5.0,0.0
4660,92.0,20.0,60.0,5.0,0.0
4661,86.0,20.0,60.0,5.0,0.0
4662,87.0,20.0,60.0,5.0,0.0
4663,90.0,20.0,60.0,5.0,0.0
4664,84.0,20.0,60.0,5.0,0.0
4665,85.0,20.0,60.0,5.0,0.0
4666,88.0,20.0,60.0,5.0,0.0
4667,82.0,20.0,60.0,5.0,0.0
4668,83.0,20.0,60.0,5.0,0.0
4669,87.0,19.0,60.0,5.0,0.0
4670,80.0,20.0,60.0,5.0,0.0
4671,81.0,20.0,60.0,5.0,0.0
4672,85.0,20.0,60.0,5.0,0.0
4673,88.0,20.0,60.0,5.0,0.0
4674,80.0,20.0,20.0,5.0,0.0
4675,87.0,20.0,60.0,5.0,0.0
4676,78.0,20.0,20.0,5.0,0.0
4677,85.0,20.0,60.0,5.0,0.0
4678,76.0,20.0,20.0,5.0,0.0
4679,83.0,20.0,60.0,5.0,0.0
4680,75.0,20.0,20.0,5.0,0.0
4681,81.0,20.0,60.0,5.0,0.0
4682,73.0,20.0,20.0,5.0,0.0
4683,80.0,20.0,60.0,5.0,0.0
4684,71.0,20.0,20.0,5.0,0.0
4685,78.0,20.0,60.0,5.0,0.0
4686,69.0,20.0,20.0,5.0,0.0
4687,76.0,20.0,60.0,5.0,0.0
4688,68.0,20.0,20.0,5.0,0.0
4689,75.0,20.0,60.0,5.0,0.0
4690,66.0,20.0,20.0,5.0,0.0
4691,73.0,20.0,60.0,5.0,0.0
4692,64.0,20.0,20.0,5.0,0.0
4693,71.0,20.0,60.0,5.0,0.0
4694,63.0,20.0,20.0,5.0,0.0
4695,69.0,20.0,60.0,5.0,0.0
4696,61.0,20.0,20.0,5.0,0.0
4697,68.0,20.0,60.0,5.0,0.0
4698,59.0,20.0,20.0,5.0,0.0
4699,66.0,20.0,60.0,5.0,0.0
4700,57.0,20.0,20.0,5.0,0.0
4701,64.0,20.0,60.0,5.0,0.0
4702,56.0,20.0,20.0,5.0,0.0
4703,63.0,20.0,60.0,5.0,0.0
4704,54.0,20.0,20.0,5.0,0.0
4705,64.0,20.0,60.0,5.0,0.0
4706,56.0,20.0,20.0,5.0,0.0
4707,66.0,20.0,60.0,5.0,0.0
4708,57.0,20.0,20.0,5.0,0.0
4709,68.0,20.0,60.0,5.0,0.0
4710,59.0,20.0,20.0,5.0,0.0
4711,69.0,20.0,60.0,5.0,0.0
4712,61.0,20.0,20.0,5.0,0.0
4713,71.0,20.0,60.0,5.0,0.0
4714,63.0,20.0,20.0,5.0,0.0
4715,73.0,20.0,60.0,5.0,0.0
4716,64.0,20.0,20.0,5.0,0.0
4717,75.0,20.0,60.0,5.0,0.0
4718,66.0,20.0,20.0,5.0,0.0
4719,76.0,20.0,60.0,5.0,0.0
4720,68.0,20.0,20.0,5.0,0.0
4721,78.0,20.0,60.0,5.0,0.0
4722,69.0,20.0,20.0,5.0,0.0
4723,80.0,20.0,60.0,5.0,0.0
4724,71.0,20.0,20.0,5.0,0.0
4725,81.0,20.0,60.0,5.0,0.0
4726,73.0,20.0,20.0,5.0,0.0
4727,83.0,20.0,60.0,5.0,0.0
4728,75.0,20.0,20.0,5.0,0.0
4729,85.0,20.0,60.0,5.0,0.0
4730,76.0,20.0,20.0,5.0,0.0
4731,87.0,20.0,60.0,5.0,0.0
4732,78.0,14.0,20.0,5.0,0.0
4733,80.0,6.0,15.0,5.0,0.0
4734,88.0,59.0,60.0,5.0,0.0
4735,88.0,59.0,60.0,5.0,0.0
4736,83.0,29.0,60.0,5.0,0.0
4737,68.0,1.0,60.0,5.0,0.0
4738,64.0,30.0,60.0,5.0,0.0
4739,68.0,1.0,60.0,5.0,0.0
4740,83.0,29.0,60.0,5.0,0.0
4741,64.0,30.0,60.0,5.0,0.0
4742,69.0,1.0,60.0,5.0,0.0
4743,85.0,29.0,60.0,5.0,0.0
4744,64.0,30.0,60.0,5.0,0.0
4745,85.0,29.0,60.0,5.0,0.0
4746,69.0,1.0,60.0,5.0,0.0
4747,64.0,30.0,60.0,5.0,0.0
4748,71.0,1.0,60.0,5.0,0.0
4749,80.0,29.0,60.0,5.0,0.0
4750,64.0,30.0,60.0,5.0,0.0
4751,80.0,29.0,60.0,5.0,0.0
4752,71.0,1.0,60.0,5.0,0.0
4753,64.0,30.0,60.0,5.0,0.0
4754,73.0,1.0,60.0,5.0,0.0
4755,81.0,29.0,60.0,5.0,0.0
4756,64.0,30.0,60.0,5.0,0.0
4757,81.0,29.0,60.0,5.0,0.0
4758,73.0,1.0,60.0,5.0,0.0
4759,64.0,1.0,60.0,5.0,0.0
4760,83.0,29.0,30.0,5.0,0.0
4761,68.0,1.0,60.0,5.0,0.0
4762,64.0,1.0,60.0,5.0,0.0
4763,80.0,29.0,30.0,5.0,0.0
4764,68.0,1.0,60.0,5.0,0.0
4765,83.0,29.0,30.0,5.0,0.0
4766,80.0,29.0,30.0,5.0,0.0
4767,64.0,1.0,60.0,5.0,0.0
4768,69.0,1.0,60.0,5.0,0.0
4769,85.0,29.0,30.0,5.0,0.0
4770,68.0,1.0,60.0,5.0,0.0
4771,83.0,29.0,30.0,5.0,0.0
4772,66.0,1.0,60.0,5.0,0.0
4773,81.0,29.0,30.0,5.0,0.0
4774,64.0,1.0,60.0,5.0,0.0
4775,80.0,29.0,30.0,5.0,0.0
4776,77.0,29.0,30.0,5.0,0.0
4777,62.0,1.0,60.0,5.0,0.0
4778,59.0,1.0,240.0,5.0,0.0
4779,78.0,29.0,30.0,5.0,0.0
4780,78.0,59.0,60.0,5.0,0.0
4781,63.0,31.0,30.0,5.0,0.0
4782,88.0,59.0,60.0,5.0,0.0
4783,88.0,59.0,60.0,5.0,0.0
4784,83.0,29.0,60.0,5.0,0.0
4785,68.0,1.0,60.0,5.0,0.0
4786,64.0,30.0,60.0,5.0,0.0
4787,68.0,1.0,60.0,5.0,0.0
4788,83.0,29.0,60.0,5.0,0.0
4789,64.0,30.0,60.0,5.0,0.0
4790,85.0,29.0,60.0,5.0,0.0
4791,69.0,1.0,60.0,5.0,0.0
4792,64.0,30.0,60.0,5.0,0.0
4793,85.0,29.0,60.0,5.0,0.0
4794,69.0,1.0,60.0,5.0,0.0
4795,64.0,30.0,60.0,5.0,0.0
4796,71.0,1.0,60.0,5.0,0.0
4797,80.0,29.0,60.0,5.0,0.0
4798,64.0,30.0,60.0,5.0,0.0
4799,80.0,29.0,60.0,5.0,0.0
4800,71.0,1.0,60.0,5.0,0.0
4801,64.0,30.0,60.0,5.0,0.0
4802,81.0,29.0,60.0,5.0,0.0
4803,73.0,1.0,60.0,5.0,0.0
4804,64.0,30.0,60.0,5.0,0.0
4805,81.0,29.0,60.0,5.0,0.0
4806,73.0,1.0,60.0,5.0,0.0
4807,64.0,1.0,60.0,5.0,0.0
4808,83.0,29.0,30.0,5.0,0.0
4809,68.0,1.0,60.0,5.0,0.0
4810,80.0,29.0,30.0,5.0,0.0
4811,64.0,1.0,60.0,5.0,0.0
4812,69.0,1.0,60.0,5.0,0.0
4813,85.0,29.0,30.0,5.0,0.0
4814,81.0,29.0,30.0,5.0,0.0
4815,66.0,31.0,60.0,5.0,0.0
4816,80.0,59.0,60.0,5.0,0.0
4817,64.0,0.0,120.0,5.0,0.0
4818,59.0,1.0,60.0,5.0,0.0
4819,63.0,60.0,120.0,5.0,0.0
4820,78.0,59.0,60.0,5.0,0.0
4821,64.0,1.0,120.0,5.0,0.0
4822,76.0,30.0,120.0,5.0,0.0
4823,52.0,1.0,120.0,5.0,0.0
4824,64.0,0.0,120.0,6.0,0.0
4825,88.0,0.0,60.0,12.0,0.0
4826,88.0,30.0,60.0,3.0,0.0
4827,64.0,29.0,30.0,13.0,0.0
4828,88.0,0.0,120.0,6.0,0.0
4829,63.0,0.0,30.0,13.0,0.0
4830,64.0,30.0,30.0,13.0,0.0
4831,88.0,0.0,60.0,3.0,0.0
4832,88.0,0.0,60.0,12.0,0.0
4833,66.0,30.0,30.0,13.0,0.0
4834,68.0,30.0,30.0,13.0,0.0
4835,83.0,0.0,60.0,12.0,0.0
4836,83.0,30.0,60.0,3.0,0.0
4837,64.0,0.0,240.0,7.0,0.0
4838,52.0,0.0,120.0,0.0,0.0
4839,52.0,0.0,120.0,4.0,0.0
4840,83.0,0.0,120.0,6.0,0.0
4841,64.0,0.0,120.0,14.0,0.0
4842,76.0,0.0,120.0,1.0,0.0
4843,64.0,29.0,120.0,1.0,0.0
4844,52.0,0.0,120.0,15.0,0.0
4845,68.0,1.0,120.0,6.0,0.0
4846,76.0,30.0,240.0,7.0,0.0
4847,64.0,0.0,30.0,13.0,0.0
4848,83.0,0.0,60.0,12.0,0.0
4849,68.0,30.0,30.0,13.0,0.0
4850,83.0,0.0,60.0,3.0,0.0
4851,64.0,0.0,30.0,13.0,0.0
4852,69.0,0.0,120.0,6.0,0.0
4853,85.0,0.0,120.0,6.0,0.0
4854,69.0,30.0,30.0,13.0,0.0
4855,85.0,0.0,60.0,12.0,0.0
4856,85.0,30.0,60.0,3.0,0.0
4857,64.0,0.0,30.0,13.0,0.0
4858,69.0,30.0,30.0,13.0,0.0
4859,85.0,0.0,60.0,3.0,0.0
4860,85.0,0.0,60.0,12.0,0.0
4861,64.0,0.0,30.0,13.0,0.0
4862,71.0,30.0,30.0,13.0,0.0
4863,52.0,0.0,120.0,15.0,0.0
4864,80.0,30.0,60.0,12.0,0.0
4865,64.0,29.0,120.0,14.0,0.0
4866,52.0,0.0,120.0,0.0,0.0
4867,64.0,0.0,240.0,7.0,0.0
4868,71.0,0.0,120.0,6.0,0.0
4869,80.0,1.0,120.0,6.0,0.0
4870,76.0,0.0,240.0,7.0,0.0
4871,76.0,0.0,120.0,1.0,0.0
4872,64.0,0.0,120.0,1.0,0.0
4873,52.0,0.0,120.0,4.0,0.0
4874,80.0,0.0,60.0,3.0,0.0
4875,64.0,0.0,30.0,13.0,0.0
4876,80.0,0.0,60.0,12.0,0.0
4877,80.0,0.0,60.0,3.0,0.0
4878,71.0,30.0,30.0,13.0,0.0
4879,64.0,0.0,30.0,13.0,0.0
4880,81.0,0.0,120.0,6.0,0.0
4881,73.0,30.0,30.0,13.0,0.0
4882,73.0,0.0,120.0,6.0,0.0
4883,81.0,0.0,60.0,12.0,0.0
4884,81.0,0.0,60.0,3.0,0.0
4885,64.0,30.0,30.0,13.0,0.0
4886,73.0,30.0,30.0,13.0,0.0
4887,81.0,30.0,60.0,12.0,0.0
4888,81.0,0.0,60.0,3.0,0.0
4889,64.0,0.0,30.0,13.0,0.0
4890,52.0,0.0,120.0,4.0,0.0
4891,68.0,0.0,30.0,13.0,0.0
4892,83.0,0.0,30.0,3.0,0.0
4893,52.0,0.0,120.0,0.0,0.0
4894,76.0,0.0,120.0,1.0,0.0
4895,64.0,30.0,120.0,1.0,0.0
4896,80.0,30.0,30.0,6.0,0.0
4897,83.0,0.0,30.0,12.0,0.0
4898,64.0,0.0,180.0,7.0,0.0
4899,83.0,0.0,30.0,6.0,0.0
4900,64.0,0.0,120.0,14.0,0.0
4901,52.0,0.0,120.0,15.0,0.0
4902,76.0,30.0,180.0,7.0,0.0
4903,80.0,0.0,30.0,12.0,0.0
4904,64.0,30.0,30.0,13.0,0.0
4905,76.0,0.0,30.0,6.0,0.0
4906,80.0,0.0,30.0,6.0,0.0
4907,80.0,0.0,30.0,3.0,0.0
4908,68.0,0.0,30.0,13.0,0.0
4909,83.0,0.0,30.0,3.0,0.0
4910,80.0,30.0,30.0,6.0,0.0
4911,83.0,0.0,30.0,12.0,0.0
4912,83.0,0.0,30.0,6.0,0.0
4913,80.0,0.0,30.0,6.0,0.0
4914,80.0,0.0,30.0,3.0,0.0
4915,80.0,0.0,30.0,12.0,0.0
4916,64.0,0.0,30.0,13.0,0.0
4917,76.0,0.0,30.0,6.0,0.0
4918,85.0,0.0,30.0,12.0,0.0
4919,69.0,30.0,30.0,13.0,0.0
4920,64.0,0.0,120.0,1.0,0.0
4921,64.0,0.0,120.0,0.0,0.0
4922,64.0,0.0,120.0,15.0,0.0
4923,85.0,0.0,30.0,6.0,0.0
4924,52.0,0.0,120.0,4.0,0.0
4925,85.0,0.0,30.0,3.0,0.0
4926,76.0,0.0,120.0,14.0,0.0
4927,81.0,0.0,30.0,6.0,0.0
4928,76.0,0.0,120.0,1.0,0.0
4929,83.0,0.0,30.0,12.0,0.0
4930,68.0,0.0,30.0,13.0,0.0
4931,80.0,0.0,30.0,6.0,0.0
4932,83.0,0.0,30.0,6.0,0.0
4933,83.0,0.0,30.0,3.0,0.0
4934,76.0,0.0,60.0,7.0,0.0
4935,78.0,30.0,30.0,6.0,0.0
4936,64.0,30.0,60.0,7.0,0.0
4937,81.0,0.0,30.0,12.0,0.0
4938,81.0,0.0,30.0,3.0,0.0
4939,81.0,0.0,30.0,6.0,0.0
4940,66.0,0.0,30.0,13.0,0.0
4941,64.0,0.0,30.0,13.0,0.0
4942,80.0,0.0,30.0,12.0,0.0
4943,76.0,0.0,30.0,6.0,0.0
4944,80.0,0.0,30.0,6.0,0.0
4945,80.0,0.0,30.0,3.0,0.0
4946,71.0,0.0,120.0,7.0,0.0
4947,77.0,0.0,30.0,12.0,0.0
4948,65.0,0.0,30.0,13.0,0.0
4949,59.0,60.0,120.0,7.0,0.0
4950,47.0,0.0,120.0,4.0,0.0
4951,77.0,0.0,30.0,3.0,0.0
4952,71.0,0.0,120.0,1.0,0.0
4953,59.0,0.0,120.0,0.0,0.0
4954,71.0,0.0,120.0,14.0,0.0
4955,59.0,0.0,120.0,1.0,0.0
4956,74.0,30.0,30.0,6.0,0.0
4957,77.0,0.0,30.0,6.0,0.0
4958,59.0,0.0,120.0,15.0,0.0
4959,78.0,0.0,30.0,3.0,0.0
4960,78.0,0.0,30.0,12.0,0.0
4961,66.0,0.0,30.0,13.0,0.0
4962,75.0,0.0,30.0,6.0,0.0
4963,78.0,60.0,30.0,6.0,0.0
4964,78.0,0.0,60.0,3.0,0.0
4965,66.0,0.0,60.0,13.0,0.0
4966,78.0,0.0,60.0,6.0,0.0
4967,78.0,0.0,60.0,12.0,0.0
4968,75.0,0.0,60.0,6.0,0.0
4969,64.0,0.0,60.0,13.0,0.0
4970,76.0,0.0,60.0,7.0,0.0
4971,64.0,0.0,60.0,7.0,0.0
4972,88.0,0.0,120.0,6.0,0.0
4973,64.0,60.0,120.0,6.0,0.0
4974,88.0,0.0,60.0,3.0,0.0
4975,88.0,30.0,60.0,12.0,0.0
4976,64.0,0.0,30.0,13.0,0.0
4977,76.0,0.0,30.0,7.0,0.0
4978,64.0,30.0,30.0,7.0,0.0
4979,88.0,0.0,30.0,3.0,0.0
4980,88.0,0.0,30.0,12.0,0.0
4981,88.0,0.0,30.0,12.0,0.0
4982,64.0,0.0,30.0,7.0,0.0
4983,76.0,0.0,30.0,7.0,0.0
4984,64.0,0.0,30.0,13.0,0.0
4985,88.0,0.0,30.0,3.0,0.0
4986,52.0,0.0,120.0,4.0,0.0
4987,68.0,0.0,120.0,6.0,0.0
4988,52.0,30.0,60.0,15.0,0.0
4989,83.0,0.0,120.0,6.0,0.0
4990,64.0,0.0,120.0,1.0,0.0
4991,76.0,0.0,120.0,1.0,0.0
4992,83.0,0.0,60.0,12.0,0.0
4993,64.0,0.0,60.0,7.0,0.0
4994,83.0,0.0,60.0,3.0,0.0
4995,64.0,0.0,60.0,14.0,0.0
4996,76.0,0.0,60.0,7.0,0.0
4997,52.0,0.0,60.0,0.0,0.0
4998,68.0,0.0,60.0,13.0,0.0
4999,68.0,30.0,30.0,13.0,0.0
5000,83.0,0.0,30.0,12.0,0.0
5001,64.0,0.0,30.0,15.0,0.0
5002,64.0,0.0,30.0,7.0,0.0
5003,76.0,0.0,30.0,7.0,0.0
5004,64.0,0.0,30.0,14.0,0.0
5005,64.0,0.0,30.0,0.0,0.0
5006,83.0,0.0,30.0,3.0,0.0
5007,64.0,0.0,30.0,0.0,0.0
5008,68.0,0.0,30.0,13.0,0.0
5009,83.0,0.0,30.0,3.0,0.0
5010,76.0,0.0,30.0,7.0,0.0
5011,64.0,60.0,30.0,15.0,0.0
5012,83.0,0.0,30.0,12.0,0.0
5013,64.0,0.0,30.0,7.0,0.0
5014,64.0,0.0,30.0,14.0,0.0
5015,64.0,0.0,60.0,0.0,0.0
5016,69.0,0.0,120.0,6.0,0.0
5017,52.0,0.0,120.0,4.0,0.0
5018,76.0,0.0,120.0,1.0,0.0
5019,64.0,0.0,120.0,1.0,0.0
5020,85.0,0.0,60.0,12.0,0.0
5021,64.0,0.0,60.0,14.0,0.0
5022,64.0,0.0,60.0,15.0,0.0
5023,85.0,30.0,60.0,3.0,0.0
5024,69.0,0.0,60.0,13.0,0.0
5025,64.0,0.0,60.0,7.0,0.0
5026,76.0,0.0,60.0,7.0,0.0
5027,85.0,0.0,120.0,6.0,0.0
5028,64.0,0.0,30.0,7.0,0.0
5029,64.0,0.0,30.0,14.0,0.0
5030,85.0,0.0,30.0,12.0,0.0
5031,64.0,30.0,30.0,15.0,0.0
5032,76.0,0.0,30.0,7.0,0.0
5033,69.0,0.0,30.0,13.0,0.0
5034,85.0,0.0,30.0,3.0,0.0
5035,64.0,0.0,30.0,0.0,0.0
5036,69.0,0.0,30.0,13.0,0.0
5037,76.0,0.0,30.0,7.0,0.0
5038,85.0,0.0,30.0,3.0,0.0
5039,64.0,0.0,30.0,14.0,0.0
5040,64.0,0.0,30.0,0.0,0.0
5041,64.0,60.0,30.0,15.0,0.0
5042,85.0,0.0,30.0,12.0,0.0
5043,64.0,0.0,30.0,7.0,0.0
5044,64.0,0.0,60.0,14.0,0.0
5045,64.0,0.0,60.0,15.0,0.0
5046,80.0,0.0,60.0,3.0,0.0
5047,64.0,0.0,60.0,7.0,0.0
5048,76.0,0.0,60.0,7.0,0.0
5049,71.0,30.0,60.0,13.0,0.0
5050,71.0,0.0,120.0,6.0,0.0
5051,76.0,0.0,120.0,1.0,0.0
5052,64.0,0.0,60.0,0.0,0.0
5053,80.0,60.0,120.0,6.0,0.0
5054,64.0,0.0,120.0,1.0,0.0
5055,80.0,0.0,60.0,12.0,0.0
5056,52.0,0.0,120.0,4.0,0.0
5057,80.0,0.0,30.0,12.0,0.0
5058,80.0,0.0,30.0,3.0,0.0
5059,64.0,0.0,30.0,0.0,0.0
5060,71.0,0.0,30.0,13.0,0.0
5061,64.0,0.0,30.0,14.0,0.0
5062,76.0,0.0,30.0,7.0,0.0
5063,64.0,30.0,30.0,15.0,0.0
5064,64.0,0.0,30.0,7.0,0.0
5065,64.0,0.0,30.0,0.0,0.0
5066,76.0,0.0,30.0,7.0,0.0
5067,71.0,0.0,30.0,13.0,0.0
5068,64.0,0.0,30.0,14.0,0.0
5069,64.0,0.0,30.0,15.0,0.0
5070,80.0,0.0,30.0,3.0,0.0
5071,64.0,0.0,30.0,7.0,0.0
5072,80.0,0.0,30.0,12.0,0.0
5073,73.0,0.0,60.0,13.0,0.0
5074,73.0,0.0,120.0,6.0,0.0
5075,64.0,0.0,120.0,1.0,0.0
5076,76.0,0.0,120.0,1.0,0.0
5077,81.0,0.0,120.0,6.0,0.0
5078,52.0,0.0,120.0,4.0,0.0
5079,81.0,0.0,60.0,3.0,0.0
5080,81.0,0.0,60.0,12.0,0.0
5081,64.0,0.0,60.0,0.0,0.0
5082,64.0,0.0,60.0,14.0,0.0
5083,64.0,0.0,60.0,15.0,0.0
5084,76.0,0.0,60.0,7.0,0.0
5085,64.0,30.0,60.0,7.0,0.0
5086,81.0,30.0,30.0,12.0,0.0
5087,81.0,0.0,30.0,3.0,0.0
5088,64.0,0.0,30.0,7.0,0.0
5089,64.0,0.0,30.0,0.0,0.0
5090,64.0,0.0,30.0,15.0,0.0
5091,73.0,0.0,30.0,13.0,0.0
5092,64.0,0.0,30.0,14.0,0.0
5093,76.0,0.0,30.0,7.0,0.0
5094,64.0,30.0,30.0,7.0,0.0
5095,64.0,0.0,30.0,14.0,0.0
5096,64.0,0.0,30.0,0.0,0.0
5097,64.0,0.0,30.0,15.0,0.0
5098,73.0,0.0,30.0,13.0,0.0
5099,81.0,0.0,30.0,12.0,0.0
5100,81.0,0.0,30.0,3.0,0.0
5101,76.0,0.0,30.0,7.0,0.0
5102,76.0,0.0,120.0,7.0,0.0
5103,64.0,0.0,120.0,7.0,0.0
5104,52.0,0.0,120.0,4.0,0.0
5105,68.0,30.0,30.0,13.0,0.0
5106,83.0,30.0,60.0,3.0,0.0
5107,76.0,0.0,120.0,1.0,0.0
5108,64.0,0.0,60.0,0.0,0.0
5109,64.0,0.0,120.0,1.0,0.0
5110,64.0,0.0,60.0,14.0,0.0
5111,83.0,0.0,30.0,12.0,0.0
5112,64.0,0.0,60.0,15.0,0.0
5113,83.0,0.0,30.0,6.0,0.0
5114,80.0,0.0,30.0,6.0,0.0
5115,80.0,0.0,30.0,12.0,0.0
5116,76.0,0.0,30.0,6.0,0.0
5117,80.0,0.0,30.0,6.0,0.0
5118,71.0,0.0,30.0,13.0,0.0
5119,85.0,0.0,30.0,3.0,0.0
5120,85.0,30.0,30.0,12.0,0.0
5121,83.0,0.0,30.0,6.0,0.0
5122,69.0,0.0,30.0,13.0,0.0
5123,57.0,60.0,60.0,0.0,0.0
5124,80.0,0.0,30.0,6.0,0.0
5125,57.0,0.0,60.0,15.0,0.0
5126,69.0,0.0,60.0,14.0,0.0
5127,81.0,0.0,30.0,12.0,0.0
5128,78.0,0.0,30.0,6.0,0.0
5129,66.0,0.0,30.0,13.0,0.0
5130,90.0,0.0,30.0,3.0,0.0
5131,81.0,0.0,30.0,6.0,0.0
5132,80.0,0.0,60.0,12.0,0.0
5133,80.0,0.0,60.0,7.0,0.0
5134,76.0,0.0,60.0,6.0,0.0
5135,59.0,0.0,60.0,15.0,0.0
5136,71.0,0.0,60.0,14.0,0.0
5137,80.0,0.0,60.0,6.0,0.0
5138,76.0,0.0,60.0,7.0,0.0
5139,80.0,0.0,60.0,1.0,0.0
5140,88.0,60.0,60.0,3.0,0.0
5141,59.0,0.0,60.0,0.0,0.0
5142,64.0,0.0,60.0,13.0,0.0
5143,76.0,0.0,60.0,1.0,0.0
5144,47.0,0.0,60.0,4.0,0.0
5145,59.0,0.0,60.0,14.0,0.0
5146,63.0,0.0,60.0,13.0,0.0
5147,47.0,0.0,60.0,4.0,0.0
5148,78.0,0.0,60.0,12.0,0.0
5149,87.0,0.0,60.0,3.0,0.0
5150,75.0,0.0,60.0,6.0,0.0
5151,78.0,0.0,60.0,1.0,0.0
5152,47.0,0.0,60.0,0.0,0.0
5153,78.0,0.0,60.0,6.0,0.0
5154,71.0,61.0,60.0,7.0,0.0
5155,47.0,0.0,60.0,15.0,0.0
5156,78.0,0.0,60.0,7.0,0.0
5157,71.0,0.0,60.0,1.0,0.0
5158,68.0,0.0,120.0,7.0,0.0
5159,76.0,0.0,120.0,7.0,0.0
5160,64.0,0.0,120.0,14.0,0.0
5161,52.0,0.0,120.0,4.0,0.0
5162,64.0,20.0,60.0,5.0,0.0
5163,76.0,0.0,120.0,1.0,0.0
5164,68.0,0.0,120.0,1.0,0.0
5165,52.0,0.0,120.0,0.0,0.0
5166,52.0,0.0,120.0,15.0,0.0
5167,64.0,0.0,120.0,13.0,0.0
5168,88.0,0.0,120.0,3.0,0.0
5169,76.0,0.0,120.0,6.0,0.0
5170,40.0,1.0,120.0,5.0,0.0
5171,52.0,0.0,120.0,5.0,0.0
5172,76.0,0.0,120.0,12.0,0.0
5173,68.0,19.0,60.0,5.0,0.0
5174,66.0,20.0,60.0,5.0,0.0
5175,59.0,20.0,15.0,5.0,0.0
5176,69.0,20.0,60.0,5.0,0.0
5177,68.0,20.0,60.0,5.0,0.0
5178,59.0,20.0,15.0,5.0,0.0
5179,71.0,19.0,60.0,5.0,0.0
5180,69.0,20.0,60.0,5.0,0.0
5181,66.0,0.0,60.0,14.0,0.0
5182,47.0,0.0,60.0,5.0,0.0
5183,35.0,0.0,60.0,5.0,0.0
5184,69.0,0.0,60.0,13.0,0.0
5185,75.0,0.0,60.0,12.0,0.0
5186,59.0,1.0,60.0,15.0,0.0
5187,66.0,20.0,60.0,5.0,0.0
5188,63.0,20.0,60.0,5.0,0.0
5189,52.0,0.0,120.0,5.0,0.0
5190,64.0,20.0,60.0,5.0,0.0
5191,40.0,0.0,120.0,5.0,0.0
5192,68.0,0.0,120.0,13.0,0.0
5193,52.0,0.0,120.0,15.0,0.0
5194,64.0,1.0,120.0,14.0,0.0
5195,76.0,0.0,120.0,12.0,0.0
5196,68.0,19.0,60.0,5.0,0.0
5197,66.0,20.0,60.0,5.0,0.0
5198,59.0,20.0,15.0,5.0,0.0
5199,69.0,20.0,60.0,5.0,0.0
5200,68.0,20.0,60.0,5.0,0.0
5201,59.0,20.0,60.0,5.0,0.0
5202,71.0,19.0,60.0,5.0,0.0
5203,47.0,0.0,60.0,5.0,0.0
5204,35.0,0.0,60.0,5.0,0.0
5205,59.0,1.0,60.0,15.0,0.0
5206,69.0,20.0,60.0,5.0,0.0
5207,75.0,0.0,60.0,12.0,0.0
5208,69.0,0.0,60.0,13.0,0.0
5209,66.0,0.0,60.0,14.0,0.0
5210,66.0,10.0,60.0,5.0,0.0
5211,63.0,20.0,60.0,5.0,0.0
5212,64.0,1.0,120.0,14.0,0.0
5213,52.0,0.0,30.0,0.0,0.0
5214,76.0,0.0,30.0,6.0,0.0
5215,40.0,0.0,120.0,5.0,0.0
5216,68.0,20.0,60.0,5.0,0.0
5217,76.0,0.0,120.0,12.0,0.0
5218,52.0,0.0,120.0,5.0,0.0
5219,52.0,0.0,120.0,15.0,0.0
5220,68.0,0.0,120.0,13.0,0.0
5221,76.0,10.0,30.0,3.0,0.0
5222,64.0,10.0,60.0,5.0,0.0
5223,76.0,19.0,60.0,5.0,0.0
5224,51.0,0.0,30.0,0.0,0.0
5225,54.0,0.0,30.0,0.0,0.0
5226,69.0,20.0,60.0,5.0,0.0
5227,75.0,10.0,30.0,6.0,0.0
5228,78.0,0.0,30.0,3.0,0.0
5229,66.0,10.0,60.0,5.0,0.0
5230,78.0,20.0,60.0,5.0,0.0
5231,56.0,0.0,30.0,0.0,0.0
5232,52.0,0.0,30.0,0.0,0.0
5233,71.0,20.0,60.0,5.0,0.0
5234,80.0,0.0,30.0,3.0,0.0
5235,76.0,10.0,30.0,6.0,0.0
5236,68.0,10.0,60.0,5.0,0.0
5237,80.0,20.0,60.0,5.0,0.0
5238,54.0,0.0,30.0,0.0,0.0
5239,57.0,10.0,30.0,0.0,0.0
5240,81.0,0.0,30.0,3.0,0.0
5241,73.0,20.0,60.0,5.0,0.0
5242,78.0,0.0,30.0,6.0,0.0
5243,69.0,10.0,60.0,5.0,0.0
5244,81.0,20.0,60.0,5.0,0.0
5245,78.0,20.0,60.0,5.0,0.0
5246,80.0,0.0,30.0,6.0,0.0
5247,83.0,0.0,30.0,3.0,0.0
5248,56.0,10.0,30.0,0.0,0.0
5249,59.0,0.0,30.0,0.0,0.0
5250,75.0,10.0,60.0,5.0,0.0
5251,83.0,20.0,60.0,5.0,0.0
5252,81.0,0.0,30.0,6.0,0.0
5253,85.0,0.0,30.0,3.0,0.0
5254,57.0,10.0,30.0,0.0,0.0
5255,76.0,20.0,60.0,5.0,0.0
5256,61.0,0.0,30.0,0.0,0.0
5257,73.0,10.0,60.0,5.0,0.0
5258,85.0,20.0,60.0,5.0,0.0
5259,87.0,0.0,30.0,3.0,0.0
5260,54.0,10.0,30.0,0.0,0.0
5261,63.0,0.0,30.0,0.0,0.0
5262,78.0,20.0,60.0,5.0,0.0
5263,78.0,0.0,30.0,6.0,0.0
5264,75.0,10.0,60.0,5.0,0.0
5265,87.0,20.0,60.0,5.0,0.0
5266,64.0,0.0,30.0,0.0,0.0
5267,80.0,0.0,30.0,6.0,0.0
5268,88.0,10.0,30.0,3.0,0.0
5269,54.0,0.0,30.0,0.0,0.0
5270,80.0,20.0,60.0,5.0,0.0
5271,76.0,20.0,60.0,5.0,0.0
5272,88.0,20.0,60.0,5.0,0.0
5273,59.0,0.0,120.0,5.0,0.0
5274,71.0,0.0,120.0,14.0,0.0
5275,63.0,0.0,120.0,0.0,0.0
5276,59.0,0.0,120.0,0.0,0.0
5277,83.0,0.0,120.0,12.0,0.0
5278,47.0,0.0,120.0,5.0,0.0
5279,71.0,20.0,60.0,5.0,0.0
5280,59.0,1.0,120.0,15.0,0.0
5281,75.0,0.0,120.0,13.0,0.0
5282,75.0,0.0,120.0,6.0,0.0
5283,83.0,0.0,120.0,3.0,0.0
5284,75.0,19.0,60.0,5.0,0.0
5285,73.0,20.0,60.0,5.0,0.0
5286,66.0,20.0,15.0,5.0,0.0
5287,76.0,20.0,60.0,5.0,0.0
5288,75.0,20.0,60.0,5.0,0.0
5289,66.0,20.0,60.0,5.0,0.0
5290,78.0,19.0,60.0,5.0,0.0
5291,73.0,0.0,60.0,14.0,0.0
5292,82.0,0.0,60.0,12.0,0.0
5293,42.0,0.0,60.0,5.0,0.0
5294,54.0,0.0,60.0,5.0,0.0
5295,76.0,20.0,60.0,5.0,0.0
5296,76.0,0.0,60.0,13.0,0.0
5297,54.0,1.0,60.0,15.0,0.0
5298,73.0,20.0,60.0,5.0,0.0
5299,70.0,20.0,60.0,5.0,0.0
5300,59.0,0.0,120.0,15.0,0.0
5301,71.0,20.0,60.0,5.0,0.0
5302,83.0,1.0,120.0,12.0,0.0
5303,75.0,0.0,120.0,13.0,0.0
5304,59.0,0.0,120.0,5.0,0.0
5305,47.0,0.0,120.0,5.0,0.0
5306,71.0,0.0,120.0,14.0,0.0
5307,75.0,19.0,60.0,5.0,0.0
5308,73.0,20.0,60.0,5.0,0.0
5309,66.0,20.0,15.0,5.0,0.0
5310,76.0,20.0,60.0,5.0,0.0
5311,75.0,20.0,60.0,5.0,0.0
5312,66.0,20.0,60.0,5.0,0.0
5313,78.0,19.0,60.0,5.0,0.0
5314,54.0,0.0,60.0,5.0,0.0
5315,42.0,1.0,60.0,5.0,0.0
5316,54.0,0.0,60.0,15.0,0.0
5317,76.0,0.0,60.0,13.0,0.0
5318,82.0,0.0,60.0,12.0,0.0
5319,76.0,20.0,60.0,5.0,0.0
5320,73.0,0.0,60.0,14.0,0.0
5321,73.0,10.0,60.0,5.0,0.0
5322,70.0,20.0,60.0,5.0,0.0
5323,75.0,20.0,60.0,5.0,0.0
5324,59.0,0.0,120.0,5.0,0.0
5325,59.0,0.0,120.0,15.0,0.0
5326,59.0,10.0,30.0,0.0,0.0
5327,75.0,0.0,120.0,13.0,0.0
5328,83.0,0.0,30.0,3.0,0.0
5329,83.0,1.0,120.0,12.0,0.0
5330,51.0,0.0,30.0,0.0,0.0
5331,47.0,0.0,120.0,5.0,0.0
5332,75.0,0.0,30.0,6.0,0.0
5333,71.0,0.0,30.0,6.0,0.0
5334,71.0,0.0,120.0,14.0,0.0
5335,71.0,10.0,60.0,5.0,0.0
5336,83.0,19.0,60.0,5.0,0.0
5337,61.0,0.0,30.0,0.0,0.0
5338,73.0,0.0,30.0,6.0,0.0
5339,76.0,20.0,60.0,5.0,0.0
5340,85.0,0.0,30.0,3.0,0.0
5341,52.0,0.0,30.0,0.0,0.0
5342,76.0,10.0,30.0,6.0,0.0
5343,73.0,10.0,60.0,5.0,0.0
5344,85.0,20.0,60.0,5.0,0.0
5345,54.0,10.0,30.0,0.0,0.0
5346,63.0,0.0,30.0,0.0,0.0
5347,78.0,20.0,60.0,5.0,0.0
5348,87.0,0.0,30.0,3.0,0.0
5349,78.0,0.0,30.0,6.0,0.0
5350,75.0,0.0,30.0,6.0,0.0
5351,75.0,10.0,60.0,5.0,0.0
5352,87.0,20.0,60.0,5.0,0.0
5353,64.0,10.0,30.0,0.0,0.0
5354,80.0,0.0,30.0,6.0,0.0
5355,80.0,20.0,60.0,5.0,0.0
5356,88.0,0.0,30.0,3.0,0.0
5357,56.0,0.0,30.0,0.0,0.0
5358,76.0,0.0,30.0,6.0,0.0
5359,76.0,10.0,60.0,5.0,0.0
5360,88.0,20.0,60.0,5.0,0.0
5361,81.0,20.0,60.0,5.0,0.0
5362,57.0,0.0,30.0,0.0,0.0
5363,66.0,0.0,30.0,0.0,0.0
5364,90.0,0.0,30.0,3.0,0.0
5365,78.0,0.0,30.0,6.0,0.0
5366,81.0,10.0,30.0,6.0,0.0
5367,78.0,10.0,60.0,5.0,0.0
5368,90.0,20.0,60.0,5.0,0.0
5369,59.0,10.0,30.0,0.0,0.0
5370,92.0,0.0,30.0,3.0,0.0
5371,83.0,20.0,60.0,5.0,0.0
5372,68.0,0.0,30.0,0.0,0.0
5373,80.0,0.0,30.0,6.0,0.0
5374,83.0,0.0,30.0,6.0,0.0
5375,80.0,20.0,60.0,5.0,0.0
5376,92.0,19.0,60.0,5.0,0.0
5377,69.0,1.0,60.0,0.0,0.0
5378,85.0,20.0,60.0,5.0,0.0
5379,93.0,0.0,120.0,3.0,0.0
5380,61.0,0.0,60.0,0.0,0.0
5381,81.0,0.0,60.0,6.0,0.0
5382,85.0,0.0,60.0,6.0,0.0
5383,81.0,20.0,60.0,5.0,0.0
5384,93.0,19.0,60.0,5.0,0.0
5385,87.0,20.0,60.0,5.0,0.0
5386,66.0,0.0,60.0,0.0,0.0
5387,63.0,0.0,60.0,0.0,0.0
5388,87.0,1.0,60.0,6.0,0.0
5389,78.0,0.0,60.0,6.0,0.0
5390,83.0,20.0,60.0,5.0,0.0
5391,93.0,19.0,60.0,5.0,0.0
5392,88.0,0.0,60.0,6.0,0.0
5393,92.0,0.0,120.0,5.0,0.0
5394,80.0,0.0,60.0,6.0,0.0
5395,64.0,0.0,300.0,13.0,0.0
5396,92.0,1.0,60.0,3.0,0.0
5397,52.0,20.0,60.0,5.0,0.0
5398,52.0,0.0,120.0,14.0,0.0
5399,68.0,0.0,60.0,0.0,0.0
5400,64.0,0.0,60.0,0.0,0.0
5401,52.0,0.0,240.0,15.0,0.0
5402,56.0,20.0,60.0,5.0,0.0
5403,57.0,19.0,60.0,5.0,0.0
5404,71.0,1.0,60.0,12.0,0.0
5405,59.0,20.0,60.0,5.0,0.0
5406,61.0,20.0,60.0,5.0,0.0
5407,63.0,19.0,60.0,5.0,0.0
5408,64.0,20.0,60.0,5.0,0.0
5409,68.0,1.0,60.0,12.0,0.0
5410,66.0,20.0,60.0,5.0,0.0
5411,68.0,19.0,60.0,5.0,0.0
5412,52.0,0.0,60.0,5.0,0.0
5413,64.0,0.0,60.0,12.0,0.0
5414,88.0,1.0,120.0,5.0,0.0
5415,61.0,1.0,60.0,14.0,0.0
5416,80.0,20.0,60.0,5.0,0.0
5417,56.0,19.0,60.0,5.0,0.0
5418,57.0,0.0,60.0,14.0,0.0
5419,54.0,1.0,240.0,15.0,0.0
5420,54.0,20.0,20.0,5.0,0.0
5421,81.0,20.0,120.0,5.0,0.0
5422,57.0,20.0,60.0,5.0,0.0
5423,59.0,19.0,60.0,5.0,0.0
5424,54.0,1.0,60.0,14.0,0.0
5425,61.0,0.0,60.0,5.0,0.0
5426,87.0,0.0,60.0,5.0,0.0
5427,81.0,0.0,60.0,12.0,0.0
5428,63.0,1.0,120.0,13.0,0.0
5429,63.0,20.0,60.0,5.0,0.0
5430,64.0,19.0,60.0,5.0,0.0
5431,66.0,20.0,60.0,5.0,0.0
5432,78.0,0.0,60.0,12.0,0.0
5433,68.0,20.0,60.0,5.0,0.0
5434,69.0,19.0,60.0,5.0,0.0
5435,90.0,0.0,120.0,5.0,0.0
5436,75.0,0.0,60.0,12.0,0.0
5437,63.0,0.0,60.0,14.0,0.0
5438,66.0,1.0,120.0,13.0,0.0
5439,54.0,0.0,60.0,5.0,0.0
5440,81.0,20.0,60.0,5.0,0.0
5441,57.0,19.0,60.0,5.0,0.0
5442,83.0,20.0,120.0,5.0,0.0
5443,56.0,20.0,20.0,5.0,0.0
5444,59.0,0.0,60.0,14.0,0.0
5445,56.0,0.0,240.0,15.0,0.0
5446,59.0,20.0,60.0,5.0,0.0
5447,61.0,19.0,60.0,5.0,0.0
5448,83.0,1.0,60.0,12.0,0.0
5449,56.0,0.0,60.0,14.0,0.0
5450,64.0,0.0,120.0,13.0,0.0
5451,88.0,0.0,60.0,5.0,0.0
5452,63.0,0.0,60.0,5.0,0.0
5453,64.0,20.0,60.0,5.0,0.0
5454,66.0,0.0,30.0,5.0,0.0
5455,68.0,20.0,60.0,5.0,0.0
5456,80.0,1.0,60.0,12.0,0.0
5457,69.0,20.0,60.0,5.0,0.0
5458,71.0,19.0,60.0,5.0,0.0
5459,56.0,20.0,60.0,5.0,0.0
5460,83.0,0.0,60.0,5.0,0.0
5461,80.0,1.0,120.0,13.0,0.0
5462,76.0,1.0,60.0,12.0,0.0
5463,92.0,0.0,120.0,5.0,0.0
5464,71.0,0.0,60.0,14.0,0.0
5465,59.0,19.0,60.0,5.0,0.0
5466,69.0,0.0,120.0,14.0,0.0
5467,85.0,0.0,120.0,5.0,0.0
5468,85.0,1.0,120.0,12.0,0.0
5469,57.0,0.0,120.0,15.0,0.0
5470,57.0,20.0,20.0,5.0,0.0
5471,61.0,20.0,60.0,5.0,0.0
5472,66.0,19.0,60.0,5.0,0.0
5473,90.0,1.0,120.0,5.0,0.0
5474,78.0,0.0,120.0,13.0,0.0
5475,68.0,20.0,60.0,5.0,0.0
5476,69.0,20.0,20.0,5.0,0.0
5477,73.0,1.0,120.0,14.0,0.0
5478,78.0,1.0,240.0,12.0,0.0
5479,58.0,0.0,60.0,5.0,0.0
5480,85.0,20.0,60.0,5.0,0.0
5481,58.0,0.0,120.0,15.0,0.0
5482,78.0,20.0,120.0,5.0,0.0
5483,61.0,20.0,60.0,5.0,0.0
5484,66.0,19.0,60.0,5.0,0.0
5485,76.0,0.0,60.0,13.0,0.0
5486,88.0,0.0,60.0,5.0,0.0
5487,68.0,20.0,60.0,5.0,0.0
5488,70.0,0.0,20.0,5.0,0.0
5489,71.0,0.0,120.0,14.0,0.0
5490,95.0,1.0,240.0,3.0,0.0
5491,83.0,1.0,1080.0,6.0,0.0
5492,59.0,0.0,240.0,0.0,0.0
5493,63.0,0.0,240.0,0.0,0.0
5494,59.0,0.0,120.0,15.0,0.0
5495,59.0,0.0,1080.0,7.0,0.0
5496,71.0,0.0,120.0,5.0,0.0
5497,75.0,0.0,120.0,13.0,0.0
5498,87.0,20.0,60.0,5.0,0.0
5499,71.0,0.0,1080.0,7.0,0.0
5500,83.0,20.0,60.0,5.0,0.0
5501,82.0,19.0,60.0,5.0,0.0
5502,80.0,20.0,60.0,5.0,0.0
5503,78.0,20.0,60.0,5.0,0.0
5504,76.0,20.0,60.0,5.0,0.0
5505,75.0,20.0,60.0,5.0,0.0
5506,73.0,20.0,60.0,5.0,0.0
5507,71.0,19.0,30.0,5.0,0.0
5508,59.0,0.0,60.0,5.0,0.0
5509,87.0,20.0,60.0,5.0,0.0
5510,85.0,20.0,60.0,5.0,0.0
5511,83.0,20.0,60.0,5.0,0.0
5512,70.0,0.0,180.0,5.0,0.0
5513,64.0,0.0,240.0,0.0,0.0
5514,61.0,0.0,240.0,0.0,0.0
5515,94.0,0.0,240.0,3.0,0.0
5516,88.0,20.0,60.0,5.0,0.0
5517,59.0,1.0,180.0,5.0,0.0
5518,85.0,20.0,60.0,5.0,0.0
5519,83.0,20.0,60.0,5.0,0.0
5520,82.0,20.0,60.0,5.0,0.0
5521,80.0,20.0,60.0,5.0,0.0
5522,78.0,19.0,60.0,5.0,0.0
5523,76.0,20.0,60.0,5.0,0.0
5524,75.0,20.0,60.0,5.0,0.0
5525,73.0,19.0,60.0,5.0,0.0
5526,88.0,20.0,60.0,5.0,0.0
5527,70.0,1.0,60.0,5.0,0.0
5528,59.0,0.0,60.0,5.0,0.0
5529,87.0,20.0,60.0,5.0,0.0
5530,85.0,20.0,60.0,5.0,0.0
5531,66.0,0.0,240.0,0.0,0.0
5532,69.0,0.0,180.0,5.0,0.0
5533,63.0,0.0,240.0,0.0,0.0
5534,90.0,20.0,60.0,5.0,0.0
5535,59.0,1.0,180.0,5.0,0.0
5536,93.0,1.0,240.0,3.0,0.0
5537,87.0,20.0,60.0,5.0,0.0
5538,85.0,20.0,60.0,5.0,0.0
5539,83.0,20.0,60.0,5.0,0.0
5540,81.0,20.0,60.0,5.0,0.0
5541,80.0,19.0,60.0,5.0,0.0
5542,78.0,20.0,60.0,5.0,0.0
5543,76.0,20.0,60.0,5.0,0.0
5544,75.0,19.0,60.0,5.0,0.0
5545,90.0,20.0,60.0,5.0,0.0
5546,59.0,0.0,60.0,5.0,0.0
5547,69.0,0.0,60.0,5.0,0.0
5548,87.0,20.0,60.0,5.0,0.0
5549,64.0,0.0,240.0,0.0,0.0
5550,92.0,20.0,60.0,5.0,0.0
5551,68.0,1.0,240.0,0.0,0.0
5552,59.0,1.0,180.0,5.0,0.0
5553,68.0,0.0,180.0,5.0,0.0
5554,92.0,0.0,240.0,3.0,0.0
5555,88.0,20.0,15.0,5.0,0.0
5556,87.0,20.0,60.0,5.0,0.0
5557,85.0,20.0,60.0,5.0,0.0
5558,83.0,20.0,60.0,5.0,0.0
5559,81.0,19.0,60.0,5.0,0.0
5560,80.0,20.0,60.0,5.0,0.0
5561,78.0,20.0,60.0,5.0,0.0
5562,76.0,19.0,60.0,5.0,0.0
5563,64.0,0.0,60.0,5.0,0.0
5564,59.0,0.0,60.0,5.0,0.0
5565,92.0,20.0,60.0,5.0,0.0
5566,90.0,20.0,60.0,5.0,0.0
5567,88.0,19.0,60.0,5.0,0.0
5568,69.0,0.0,120.0,0.0,0.0
5569,63.0,0.0,60.0,5.0,0.0
5570,66.0,0.0,60.0,5.0,0.0
5571,59.0,0.0,60.0,5.0,0.0
5572,71.0,0.0,60.0,14.0,0.0
5573,75.0,0.0,60.0,14.0,0.0
5574,81.0,1.0,60.0,12.0,0.0
5575,93.0,20.0,60.0,5.0,0.0
5576,66.0,0.0,120.0,0.0,0.0
5577,90.0,0.0,120.0,3.0,0.0
5578,78.0,0.0,60.0,13.0,0.0
5579,71.0,0.0,60.0,15.0,0.0
5580,92.0,20.0,60.0,5.0,0.0
5581,90.0,19.0,60.0,5.0,0.0
5582,88.0,20.0,60.0,5.0,0.0
5583,87.0,20.0,60.0,5.0,0.0
5584,71.0,0.0,60.0,14.0,0.0
5585,75.0,0.0,60.0,5.0,0.0
5586,78.0,1.0,60.0,5.0,0.0
5587,83.0,20.0,60.0,5.0,0.0
5588,71.0,0.0,60.0,15.0,0.0
5589,75.0,0.0,60.0,14.0,0.0
5590,71.0,0.0,60.0,5.0,0.0
5591,78.0,0.0,60.0,13.0,0.0
5592,81.0,0.0,60.0,12.0,0.0
5593,85.0,19.0,20.0,5.0,0.0
5594,87.0,19.0,60.0,5.0,0.0
5595,71.0,0.0,60.0,15.0,0.0
5596,88.0,20.0,60.0,5.0,0.0
5597,71.0,0.0,60.0,14.0,0.0
5598,81.0,0.0,60.0,12.0,0.0
5599,78.0,1.0,60.0,13.0,0.0
5600,75.0,0.0,60.0,14.0,0.0
5601,71.0,0.0,60.0,5.0,0.0
5602,78.0,0.0,60.0,5.0,0.0
5603,75.0,0.0,60.0,5.0,0.0
5604,90.0,20.0,60.0,5.0,0.0
5605,71.0,0.0,60.0,14.0,0.0
5606,75.0,0.0,60.0,14.0,0.0
5607,93.0,20.0,60.0,5.0,0.0
5608,75.0,0.0,60.0,5.0,0.0
5609,71.0,1.0,60.0,15.0,0.0
5610,78.0,0.0,60.0,13.0,0.0
5611,81.0,0.0,60.0,12.0,0.0
5612,71.0,0.0,60.0,5.0,0.0
5613,78.0,0.0,60.0,5.0,0.0
5614,92.0,19.0,20.0,5.0,0.0
5615,90.0,20.0,60.0,5.0,0.0
5616,88.0,20.0,60.0,5.0,0.0
5617,87.0,20.0,60.0,5.0,0.0
5618,75.0,0.0,60.0,5.0,0.0
5619,78.0,0.0,60.0,5.0,0.0
5620,71.0,0.0,60.0,5.0,0.0
5621,83.0,20.0,60.0,5.0,0.0
5622,81.0,0.0,60.0,12.0,0.0
5623,71.0,1.0,60.0,15.0,0.0
5624,75.0,0.0,60.0,14.0,0.0
5625,71.0,0.0,60.0,14.0,0.0
5626,78.0,0.0,60.0,13.0,0.0
5627,85.0,19.0,20.0,5.0,0.0
5628,87.0,19.0,60.0,5.0,0.0
5629,71.0,0.0,60.0,14.0,0.0
5630,75.0,0.0,60.0,14.0,0.0
5631,88.0,20.0,60.0,5.0,0.0
5632,75.0,0.0,60.0,5.0,0.0
5633,71.0,0.0,60.0,5.0,0.0
5634,71.0,1.0,60.0,15.0,0.0
5635,78.0,0.0,60.0,13.0,0.0
5636,78.0,0.0,60.0,5.0,0.0
5637,81.0,0.0,60.0,12.0,0.0
5638,90.0,20.0,60.0,5.0,0.0
5639,92.0,19.0,60.0,5.0,0.0
5640,81.0,0.0,60.0,12.0,0.0
5641,78.0,0.0,60.0,13.0,0.0
5642,75.0,0.0,60.0,5.0,0.0
5643,71.0,0.0,60.0,5.0,0.0
5644,71.0,0.0,60.0,15.0,0.0
5645,78.0,0.0,60.0,5.0,0.0
5646,71.0,0.0,60.0,14.0,0.0
5647,75.0,1.0,60.0,14.0,0.0
5648,89.0,20.0,60.0,5.0,0.0
5649,90.0,19.0,60.0,5.0,0.0
5650,71.0,0.0,60.0,5.0,0.0
5651,75.0,0.0,60.0,5.0,0.0
5652,78.0,0.0,60.0,5.0,0.0
5653,93.0,20.0,15.0,5.0,0.0
5654,81.0,0.0,60.0,12.0,0.0
5655,71.0,1.0,60.0,15.0,0.0
5656,75.0,0.0,60.0,14.0,0.0
5657,78.0,0.0,60.0,13.0,0.0
5658,71.0,0.0,60.0,14.0,0.0
5659,89.0,20.0,60.0,5.0,0.0
5660,90.0,19.0,60.0,5.0,0.0
5661,75.0,0.0,60.0,14.0,0.0
5662,75.0,0.0,60.0,5.0,0.0
5663,71.0,0.0,60.0,5.0,0.0
5664,78.0,0.0,60.0,5.0,0.0
5665,81.0,1.0,60.0,12.0,0.0
5666,93.0,20.0,60.0,5.0,0.0
5667,78.0,0.0,60.0,13.0,0.0
5668,71.0,0.0,60.0,14.0,0.0
5669,71.0,0.0,60.0,15.0,0.0
5670,89.0,20.0,60.0,5.0,0.0
5671,90.0,19.0,60.0,5.0,0.0
5672,75.0,0.0,60.0,14.0,0.0
5673,81.0,1.0,60.0,12.0,0.0
5674,78.0,0.0,60.0,5.0,0.0
5675,71.0,0.0,60.0,5.0,0.0
5676,75.0,0.0,60.0,5.0,0.0
5677,78.0,0.0,60.0,13.0,0.0
5678,71.0,0.0,60.0,15.0,0.0
5679,71.0,0.0,60.0,14.0,0.0
5680,93.0,20.0,60.0,5.0,0.0
5681,89.0,20.0,60.0,5.0,0.0
5682,90.0,19.0,60.0,5.0,0.0
5683,93.0,1.0,60.0,5.0,0.0
5684,71.0,0.0,120.0,15.0,0.0
5685,78.0,59.0,120.0,13.0,0.0
5686,71.0,0.0,60.0,5.0,0.0
5687,78.0,39.0,60.0,5.0,0.0
5688,75.0,0.0,60.0,5.0,0.0
5689,71.0,0.0,120.0,14.0,0.0
5690,75.0,0.0,120.0,14.0,0.0
5691,81.0,0.0,120.0,12.0,0.0
5692,89.0,20.0,20.0,5.0,0.0
5693,90.0,1.0,20.0,5.0,0.0
5694,93.0,40.0,60.0,5.0,0.0
5695,77.0,20.0,20.0,5.0,0.0
5696,78.0,60.0,20.0,5.0,0.0
5697,66.0,0.0,120.0,13.0,0.0
5698,59.0,0.0,60.0,5.0,0.0
5699,63.0,39.0,60.0,5.0,0.0
5700,63.0,0.0,120.0,13.0,0.0
5701,59.0,59.0,120.0,14.0,0.0
5702,59.0,0.0,120.0,15.0,0.0
5703,66.0,0.0,60.0,5.0,0.0
5704,69.0,0.0,120.0,12.0,0.0
5705,81.0,1.0,60.0,5.0,0.0
5706,65.0,20.0,20.0,5.0,0.0
5707,66.0,1.0,20.0,5.0,0.0
5708,69.0,40.0,60.0,5.0,0.0
5709,65.0,20.0,20.0,5.0,0.0
5710,66.0,20.0,20.0,5.0,0.0
5711,68.0,20.0,20.0,5.0,0.0
5712,69.0,20.0,20.0,5.0,0.0
5713,74.0,20.0,20.0,5.0,0.0
5714,75.0,20.0,20.0,5.0,0.0
5715,77.0,20.0,20.0,5.0,0.0
5716,78.0,20.0,20.0,5.0,0.0
5717,80.0,20.0,20.0,5.0,0.0
5718,81.0,20.0,20.0,5.0,0.0
5719,86.0,20.0,20.0,5.0,0.0
5720,87.0,20.0,20.0,5.0,0.0
5721,89.0,20.0,20.0,5.0,0.0
5722,90.0,60.0,20.0,5.0,0.0
5723,75.0,179.0,60.0,5.0,0.0
5724,93.0,1.0,60.0,5.0,0.0
5725,71.0,0.0,60.0,5.0,0.0
5726,78.0,0.0,60.0,5.0,0.0
5727,81.0,60.0,15.0,5.0,0.0
5728,78.0,0.0,60.0,5.0,0.0
5729,71.0,59.0,60.0,5.0,0.0
5730,75.0,0.0,60.0,5.0,0.0
5731,93.0,1.0,60.0,5.0,0.0
5732,81.0,60.0,15.0,5.0,0.0
5733,93.0,1.0,60.0,5.0,0.0
5734,71.0,0.0,60.0,5.0,0.0
5735,78.0,0.0,60.0,5.0,0.0
5736,75.0,59.0,60.0,5.0,0.0
5737,81.0,60.0,15.0,5.0,0.0
5738,75.0,119.0,60.0,5.0,0.0
5739,78.0,0.0,60.0,5.0,0.0
5740,71.0,0.0,60.0,5.0,0.0
5741,93.0,1.0,60.0,5.0,0.0
5742,93.0,60.0,60.0,5.0,0.0
5743,93.0,30.0,60.0,5.0,0.0
5744,64.0,29.0,60.0,5.0,0.0
5745,93.0,30.0,30.0,5.0,0.0
5746,92.0,1.0,30.0,5.0,0.0
5747,71.0,29.0,60.0,5.0,0.0
5748,68.0,29.0,60.0,5.0,0.0
5749,90.0,1.0,30.0,5.0,0.0
5750,88.0,1.0,30.0,5.0,0.0
5751,66.0,29.0,60.0,5.0,0.0
5752,87.0,1.0,30.0,5.0,0.0
5753,71.0,29.0,15.0,5.0,0.0
5754,88.0,1.0,30.0,5.0,0.0
5755,90.0,1.0,30.0,5.0,0.0
5756,69.0,30.0,60.0,5.0,0.0
5757,87.0,1.0,30.0,5.0,0.0
5758,71.0,29.0,15.0,5.0,0.0
5759,68.0,30.0,60.0,5.0,0.0
5760,83.0,1.0,120.0,5.0,0.0
5761,71.0,29.0,60.0,5.0,0.0
5762,64.0,29.0,60.0,5.0,0.0
5763,81.0,1.0,30.0,5.0,0.0
5764,66.0,29.0,60.0,5.0,0.0
5765,71.0,29.0,15.0,5.0,0.0
5766,83.0,1.0,30.0,5.0,0.0
5767,85.0,1.0,30.0,5.0,0.0
5768,63.0,29.0,60.0,5.0,0.0
5769,71.0,29.0,60.0,5.0,0.0
5770,81.0,1.0,30.0,5.0,0.0
5771,64.0,29.0,60.0,5.0,0.0
5772,80.0,1.0,30.0,5.0,0.0
5773,71.0,29.0,60.0,5.0,0.0
5774,81.0,1.0,30.0,5.0,0.0
5775,56.0,29.0,60.0,5.0,0.0
5776,83.0,1.0,30.0,5.0,0.0
5777,80.0,1.0,30.0,5.0,0.0
5778,59.0,29.0,60.0,5.0,0.0
5779,57.0,29.0,60.0,5.0,0.0
5780,78.0,1.0,30.0,5.0,0.0
5781,80.0,1.0,30.0,5.0,0.0
5782,61.0,29.0,60.0,5.0,0.0
5783,54.0,29.0,60.0,5.0,0.0
5784,81.0,1.0,30.0,5.0,0.0
5785,78.0,1.0,30.0,5.0,0.0
5786,57.0,29.0,60.0,5.0,0.0
5787,59.0,29.0,60.0,5.0,0.0
5788,76.0,1.0,30.0,5.0,0.0
5789,83.0,0.0,600.0,12.0,0.0
5790,63.0,29.0,60.0,5.0,0.0
5791,75.0,1.0,30.0,5.0,0.0
5792,73.0,1.0,30.0,5.0,0.0
5793,61.0,30.0,60.0,5.0,0.0
5794,71.0,1.0,30.0,5.0,0.0
5795,64.0,29.0,60.0,5.0,0.0
5796,63.0,30.0,60.0,5.0,0.0
5797,93.0,1.0,60.0,5.0,0.0
5798,66.0,29.0,60.0,5.0,0.0
5799,93.0,1.0,60.0,5.0,0.0
5800,59.0,29.0,60.0,5.0,0.0
5801,63.0,29.0,60.0,5.0,0.0
5802,64.0,0.0,120.0,15.0,0.0
5803,93.0,1.0,30.0,5.0,0.0
5804,83.0,0.0,120.0,13.0,0.0
5805,52.0,29.0,60.0,5.0,0.0
5806,80.0,0.0,120.0,14.0,0.0
5807,92.0,1.0,30.0,5.0,0.0
5808,56.0,29.0,60.0,5.0,0.0
5809,90.0,1.0,30.0,5.0,0.0
5810,59.0,29.0,60.0,5.0,0.0
5811,88.0,1.0,30.0,5.0,0.0
5812,64.0,29.0,60.0,5.0,0.0
5813,54.0,29.0,60.0,5.0,0.0
5814,78.0,0.0,120.0,14.0,0.0
5815,66.0,1.0,120.0,15.0,0.0
5816,81.0,0.0,120.0,13.0,0.0
5817,87.0,1.0,30.0,5.0,0.0
5818,88.0,1.0,30.0,5.0,0.0
5819,57.0,29.0,60.0,5.0,0.0
5820,90.0,1.0,30.0,5.0,0.0
5821,63.0,30.0,60.0,5.0,0.0
5822,66.0,29.0,60.0,5.0,0.0
5823,87.0,0.0,30.0,5.0,0.0
5824,80.0,1.0,180.0,13.0,0.0
5825,56.0,30.0,60.0,5.0,0.0
5826,68.0,1.0,60.0,15.0,0.0
5827,76.0,0.0,180.0,14.0,0.0
5828,83.0,0.0,120.0,5.0,0.0
5829,68.0,29.0,60.0,5.0,0.0
5830,52.0,29.0,60.0,5.0,0.0
5831,64.0,1.0,60.0,15.0,0.0
5832,64.0,29.0,60.0,5.0,0.0
5833,81.0,1.0,30.0,5.0,0.0
5834,81.0,0.0,120.0,12.0,0.0
5835,61.0,0.0,60.0,15.0,0.0
5836,49.0,29.0,60.0,5.0,0.0
5837,61.0,29.0,60.0,5.0,0.0
5838,83.0,0.0,30.0,5.0,0.0
5839,63.0,0.0,60.0,15.0,0.0
5840,47.0,29.0,60.0,5.0,0.0
5841,78.0,0.0,120.0,13.0,0.0
5842,71.0,0.0,180.0,14.0,0.0
5843,85.0,1.0,30.0,5.0,0.0
5844,81.0,1.0,30.0,5.0,0.0
5845,59.0,29.0,60.0,5.0,0.0
5846,80.0,1.0,30.0,5.0,0.0
5847,52.0,29.0,60.0,5.0,0.0
5848,64.0,0.0,60.0,15.0,0.0
5849,80.0,1.0,120.0,12.0,0.0
5850,81.0,1.0,30.0,5.0,0.0
5851,64.0,29.0,60.0,5.0,0.0
5852,83.0,1.0,30.0,5.0,0.0
5853,44.0,29.0,60.0,5.0,0.0
5854,56.0,0.0,60.0,15.0,0.0
5855,76.0,1.0,120.0,13.0,0.0
5856,80.0,0.0,30.0,5.0,0.0
5857,56.0,29.0,60.0,5.0,0.0
5858,45.0,29.0,60.0,5.0,0.0
5859,57.0,0.0,60.0,15.0,0.0
5860,78.0,0.0,120.0,12.0,0.0
5861,73.0,0.0,60.0,14.0,0.0
5862,78.0,1.0,30.0,5.0,0.0
5863,80.0,0.0,30.0,5.0,0.0
5864,57.0,29.0,60.0,5.0,0.0
5865,81.0,1.0,30.0,5.0,0.0
5866,47.0,19.0,60.0,5.0,0.0
5867,59.0,0.0,60.0,15.0,0.0
5868,75.0,0.0,60.0,13.0,0.0
5869,69.0,0.0,60.0,14.0,0.0
5870,78.0,1.0,30.0,5.0,0.0
5871,59.0,9.0,60.0,5.0,0.0
5872,68.0,1.0,30.0,14.0,0.0
5873,76.0,10.0,20.0,5.0,0.0
5874,76.0,0.0,60.0,13.0,0.0
5875,52.0,0.0,30.0,15.0,0.0
5876,52.0,20.0,120.0,5.0,0.0
5877,76.0,0.0,30.0,12.0,0.0
5878,83.0,20.0,20.0,5.0,0.0
5879,64.0,20.0,30.0,14.0,0.0
5880,80.0,0.0,30.0,12.0,0.0
5881,81.0,0.0,20.0,5.0,0.0
5882,59.0,20.0,1440.0,14.0,0.0
5883,56.0,9.0,30.0,15.0,0.0
5884,71.0,0.0,1440.0,13.0,0.0
5885,80.0,11.0,20.0,5.0,0.0
5886,83.0,0.0,1440.0,12.0,0.0
5887,78.0,20.0,20.0,5.0,0.0
5888,76.0,0.0,20.0,5.0,0.0
5889,69.0,0.0,60.0,0.0,0.0
5890,81.0,0.0,60.0,6.0,0.0
5891,75.0,11.0,20.0,5.0,0.0
5892,59.0,9.0,30.0,15.0,0.0
5893,73.0,20.0,20.0,5.0,0.0
5894,71.0,20.0,20.0,5.0,0.0
5895,63.0,9.0,30.0,15.0,0.0
5896,81.0,20.0,60.0,6.0,0.0
5897,69.0,0.0,60.0,0.0,0.0
5898,69.0,11.0,20.0,5.0,0.0
5899,68.0,20.0,20.0,5.0,0.0
5900,66.0,0.0,20.0,5.0,0.0
5901,64.0,10.0,20.0,5.0,0.0
5902,81.0,1.0,30.0,6.0,0.0
5903,69.0,0.0,30.0,0.0,0.0
5904,64.0,9.0,30.0,15.0,0.0
5905,71.0,20.0,20.0,5.0,0.0
5906,80.0,20.0,30.0,6.0,0.0
5907,68.0,0.0,30.0,0.0,0.0
5908,69.0,0.0,20.0,5.0,0.0
5909,68.0,10.0,20.0,5.0,0.0
5910,78.0,0.0,30.0,6.0,0.0
5911,56.0,9.0,30.0,15.0,0.0
5912,66.0,1.0,30.0,0.0,0.0
5913,66.0,20.0,20.0,5.0,0.0
5914,64.0,20.0,30.0,0.0,0.0
5915,76.0,0.0,30.0,6.0,0.0
5916,64.0,0.0,20.0,5.0,0.0
5917,59.0,9.0,30.0,15.0,0.0
5918,63.0,10.0,20.0,5.0,0.0
5919,75.0,1.0,30.0,6.0,0.0
5920,63.0,0.0,30.0,0.0,0.0
5921,61.0,20.0,20.0,5.0,0.0
5922,64.0,20.0,30.0,0.0,0.0
5923,76.0,0.0,30.0,6.0,0.0
5924,59.0,0.0,20.0,5.0,0.0
5925,57.0,10.0,20.0,5.0,0.0
5926,66.0,0.0,30.0,0.0,0.0
5927,57.0,9.0,30.0,15.0,0.0
5928,78.0,1.0,30.0,6.0,0.0
5929,56.0,20.0,20.0,5.0,0.0
5930,63.0,20.0,30.0,0.0,0.0
5931,75.0,0.0,30.0,6.0,0.0
5932,54.0,0.0,20.0,5.0,0.0
5933,71.0,20.0,120.0,6.0,0.0
5934,59.0,0.0,120.0,0.0,0.0
5935,56.0,9.0,30.0,15.0,0.0
5936,52.0,11.0,20.0,5.0,0.0
5937,59.0,20.0,20.0,5.0,0.0
5938,57.0,20.0,20.0,5.0,0.0
5939,56.0,11.0,20.0,5.0,0.0
5940,52.0,9.0,30.0,15.0,0.0
5941,54.0,20.0,20.0,5.0,0.0
5942,52.0,0.0,20.0,5.0,0.0
5943,81.0,0.0,30.0,6.0,0.0
5944,54.0,9.0,30.0,15.0,0.0
5945,51.0,10.0,20.0,5.0,0.0
5946,69.0,1.0,30.0,0.0,0.0
5947,49.0,20.0,20.0,5.0,0.0
5948,83.0,0.0,30.0,6.0,0.0
5949,71.0,20.0,30.0,0.0,0.0
5950,47.0,0.0,20.0,5.0,0.0
5951,45.0,10.0,20.0,5.0,0.0
5952,73.0,0.0,30.0,0.0,0.0
5953,51.0,9.0,30.0,15.0,0.0
5954,85.0,1.0,30.0,6.0,0.0
5955,44.0,20.0,20.0,5.0,0.0
5956,81.0,0.0,30.0,6.0,0.0
5957,69.0,0.0,30.0,0.0,0.0
5958,42.0,20.0,20.0,5.0,0.0
5959,40.0,10.0,20.0,5.0,0.0
5960,52.0,9.0,30.0,15.0,0.0
5961,80.0,0.0,30.0,6.0,0.0
5962,68.0,1.0,30.0,0.0,0.0
5963,44.0,20.0,20.0,5.0,0.0
5964,81.0,0.0,30.0,6.0,0.0
5965,69.0,0.0,30.0,0.0,0.0
5966,47.0,20.0,20.0,5.0,0.0
5967,52.0,10.0,20.0,5.0,0.0
5968,71.0,0.0,30.0,0.0,0.0
5969,83.0,1.0,30.0,6.0,0.0
5970,56.0,9.0,30.0,15.0,0.0
5971,51.0,20.0,20.0,5.0,0.0
5972,80.0,0.0,30.0,6.0,0.0
5973,68.0,0.0,30.0,0.0,0.0
5974,52.0,20.0,20.0,5.0,0.0
5975,66.0,0.0,30.0,0.0,0.0
5976,78.0,1.0,30.0,6.0,0.0
5977,57.0,9.0,30.0,15.0,0.0
5978,45.0,10.0,20.0,5.0,0.0
5979,49.0,20.0,20.0,5.0,0.0
5980,80.0,0.0,30.0,6.0,0.0
5981,68.0,20.0,30.0,0.0,0.0
5982,54.0,0.0,20.0,5.0,0.0
5983,69.0,1.0,30.0,0.0,0.0
5984,81.0,0.0,30.0,6.0,0.0
5985,54.0,9.0,30.0,15.0,0.0
5986,57.0,10.0,20.0,5.0,0.0
5987,56.0,20.0,20.0,5.0,0.0
5988,78.0,0.0,30.0,6.0,0.0
5989,66.0,20.0,30.0,0.0,0.0
5990,57.0,0.0,20.0,5.0,0.0
5991,64.0,0.0,30.0,0.0,0.0
5992,47.0,10.0,20.0,5.0,0.0
5993,76.0,10.0,30.0,6.0,0.0
5994,59.0,0.0,60.0,15.0,0.0
5995,51.0,20.0,20.0,5.0,0.0
5996,63.0,0.0,30.0,0.0,0.0
5997,75.0,0.0,30.0,6.0,0.0
5998,54.0,16.0,20.0,5.0,0.0
5999,73.0,10.0,30.0,6.0,0.0
6000,61.0,0.0,30.0,0.0,0.0
6001,59.0,10.0,20.0,5.0,0.0
6002,59.0,4.0,15.0,15.0,0.0
6003,58.0,6.0,20.0,5.0,0.0
6004,59.0,0.0,30.0,0.0,0.0
6005,71.0,0.0,30.0,6.0,0.0
6006,61.0,14.0,15.0,15.0,0.0
6007,59.0,16.0,20.0,5.0,0.0
6008,81.0,0.0,30.0,6.0,0.0
6009,59.0,11.0,20.0,5.0,0.0
6010,93.0,0.0,30.0,3.0,0.0
6011,63.0,4.0,15.0,15.0,0.0
6012,69.0,9.0,30.0,0.0,0.0
6013,47.0,20.0,120.0,5.0,0.0
6014,63.0,6.0,20.0,5.0,0.0
6015,64.0,14.0,15.0,15.0,0.0
6016,66.0,16.0,20.0,5.0,0.0
6017,71.0,11.0,20.0,5.0,0.0
6018,93.0,9.0,30.0,3.0,0.0
6019,69.0,0.0,30.0,0.0,0.0
6020,66.0,4.0,15.0,15.0,0.0
6021,81.0,0.0,30.0,6.0,0.0
6022,75.0,6.0,20.0,5.0,0.0
6023,63.0,14.0,15.0,15.0,0.0
6024,78.0,0.0,20.0,5.0,0.0
6025,93.0,1.0,30.0,3.0,0.0
6026,59.0,10.0,20.0,5.0,0.0
6027,81.0,0.0,30.0,6.0,0.0
6028,64.0,9.0,30.0,15.0,0.0
6029,69.0,0.0,30.0,0.0,0.0
6030,64.0,20.0,20.0,5.0,0.0
6031,68.0,0.0,30.0,0.0,0.0
6032,80.0,0.0,30.0,6.0,0.0
6033,92.0,20.0,30.0,3.0,0.0
6034,68.0,0.0,20.0,5.0,0.0
6035,66.0,1.0,30.0,0.0,0.0
6036,78.0,0.0,30.0,6.0,0.0
6037,71.0,10.0,20.0,5.0,0.0
6038,90.0,0.0,30.0,3.0,0.0
6039,56.0,9.0,30.0,15.0,0.0
6040,76.0,20.0,20.0,5.0,0.0
6041,76.0,0.0,30.0,6.0,0.0
6042,88.0,0.0,30.0,3.0,0.0
6043,64.0,20.0,30.0,0.0,0.0
6044,80.0,0.0,20.0,5.0,0.0
6045,63.0,10.0,20.0,5.0,0.0
6046,75.0,1.0,30.0,6.0,0.0
6047,59.0,9.0,30.0,15.0,0.0
6048,63.0,0.0,30.0,0.0,0.0
6049,87.0,0.0,30.0,3.0,0.0
6050,66.0,20.0,20.0,5.0,0.0
6051,88.0,20.0,30.0,3.0,0.0
6052,64.0,0.0,30.0,0.0,0.0
6053,76.0,0.0,30.0,6.0,0.0
6054,69.0,0.0,20.0,5.0,0.0
6055,75.0,10.0,20.0,5.0,0.0
6056,90.0,0.0,30.0,3.0,0.0
6057,57.0,9.0,30.0,15.0,0.0
6058,66.0,0.0,30.0,0.0,0.0
6059,78.0,1.0,30.0,6.0,0.0
6060,78.0,20.0,20.0,5.0,0.0
6061,87.0,0.0,30.0,3.0,0.0
6062,75.0,20.0,30.0,6.0,0.0
6063,63.0,0.0,30.0,0.0,0.0
6064,81.0,0.0,20.0,5.0,0.0
6065,95.0,0.0,120.0,3.0,0.0
6066,64.0,11.0,20.0,5.0,0.0
6067,56.0,9.0,30.0,15.0,0.0
6068,59.0,20.0,120.0,0.0,0.0
6069,71.0,0.0,120.0,0.0,0.0
6070,83.0,0.0,120.0,6.0,0.0
6071,68.0,20.0,20.0,5.0,0.0
6072,71.0,0.0,20.0,5.0,0.0
6073,76.0,11.0,20.0,5.0,0.0
6074,71.0,0.0,30.0,13.0,0.0
6075,64.0,9.0,30.0,14.0,0.0
6076,80.0,0.0,30.0,12.0,0.0
6077,52.0,0.0,30.0,15.0,0.0
6078,80.0,20.0,20.0,5.0,0.0
6079,83.0,0.0,20.0,5.0,0.0
6080,49.0,9.0,30.0,15.0,0.0
6081,69.0,10.0,20.0,5.0,0.0
6082,81.0,0.0,30.0,6.0,0.0
6083,49.0,0.0,60.0,5.0,0.0
6084,93.0,0.0,120.0,3.0,0.0
6085,57.0,0.0,30.0,0.0,0.0
6086,69.0,1.0,30.0,0.0,0.0
6087,81.0,20.0,20.0,5.0,0.0
6088,83.0,0.0,30.0,6.0,0.0
6089,59.0,0.0,30.0,0.0,0.0
6090,71.0,0.0,30.0,0.0,0.0
6091,80.0,20.0,20.0,5.0,0.0
6092,69.0,10.0,20.0,5.0,0.0
6093,51.0,0.0,60.0,5.0,0.0
6094,78.0,0.0,60.0,12.0,0.0
6095,73.0,0.0,30.0,0.0,0.0
6096,69.0,19.0,60.0,13.0,0.0
6097,51.0,9.0,30.0,15.0,0.0
6098,59.0,0.0,60.0,14.0,0.0
6099,61.0,1.0,30.0,0.0,0.0
6100,85.0,0.0,30.0,6.0,0.0
6101,81.0,20.0,20.0,5.0,0.0
6102,57.0,0.0,30.0,0.0,0.0
6103,81.0,1.0,30.0,6.0,0.0
6104,69.0,0.0,30.0,0.0,0.0
6105,78.0,0.0,20.0,5.0,0.0
6106,52.0,20.0,60.0,5.0,0.0
6107,56.0,0.0,30.0,0.0,0.0
6108,68.0,0.0,30.0,0.0,0.0
6109,80.0,1.0,30.0,6.0,0.0
6110,52.0,9.0,30.0,15.0,0.0
6111,68.0,10.0,20.0,5.0,0.0
6112,92.0,0.0,30.0,3.0,0.0
6113,80.0,20.0,20.0,5.0,0.0
6114,69.0,0.0,30.0,0.0,0.0
6115,57.0,0.0,30.0,0.0,0.0
6116,93.0,0.0,30.0,3.0,0.0
6117,81.0,0.0,30.0,6.0,0.0
6118,78.0,0.0,20.0,5.0,0.0
6119,61.0,1.0,60.0,5.0,0.0
6120,68.0,0.0,60.0,13.0,0.0
6121,95.0,1.0,30.0,3.0,0.0
6122,71.0,0.0,30.0,0.0,0.0
6123,61.0,9.0,30.0,15.0,0.0
6124,61.0,19.0,60.0,14.0,0.0
6125,76.0,0.0,60.0,12.0,0.0
6126,68.0,10.0,20.0,5.0,0.0
6127,83.0,0.0,30.0,6.0,0.0
6128,59.0,0.0,30.0,0.0,0.0
6129,80.0,20.0,20.0,5.0,0.0
6130,92.0,0.0,30.0,3.0,0.0
6131,56.0,0.0,30.0,0.0,0.0
6132,80.0,0.0,30.0,6.0,0.0
6133,68.0,0.0,30.0,0.0,0.0
6134,76.0,0.0,20.0,5.0,0.0
6135,90.0,0.0,30.0,3.0,0.0
6136,57.0,9.0,30.0,15.0,0.0
6137,78.0,0.0,30.0,6.0,0.0
6138,66.0,10.0,20.0,5.0,0.0
6139,54.0,0.0,30.0,0.0,0.0
6140,66.0,1.0,30.0,0.0,0.0
6141,57.0,0.0,60.0,5.0,0.0
6142,78.0,20.0,20.0,5.0,0.0
6143,80.0,0.0,30.0,6.0,0.0
6144,92.0,0.0,30.0,3.0,0.0
6145,68.0,0.0,30.0,0.0,0.0
6146,56.0,0.0,30.0,0.0,0.0
6147,76.0,20.0,20.0,5.0,0.0
6148,57.0,0.0,30.0,0.0,0.0
6149,57.0,19.0,60.0,14.0,0.0
6150,66.0,0.0,60.0,13.0,0.0
6151,75.0,0.0,60.0,12.0,0.0
6152,69.0,1.0,30.0,0.0,0.0
6153,66.0,10.0,20.0,5.0,0.0
6154,59.0,9.0,30.0,15.0,0.0
6155,81.0,0.0,30.0,6.0,0.0
6156,59.0,0.0,60.0,5.0,0.0
6157,93.0,0.0,30.0,3.0,0.0
6158,78.0,20.0,20.0,5.0,0.0
6159,78.0,0.0,30.0,6.0,0.0
6160,54.0,0.0,30.0,0.0,0.0
6161,66.0,1.0,30.0,0.0,0.0
6162,90.0,0.0,30.0,3.0,0.0
6163,75.0,0.0,20.0,5.0,0.0
6164,64.0,20.0,20.0,5.0,0.0
6165,88.0,0.0,120.0,3.0,0.0
6166,52.0,0.0,60.0,15.0,0.0
6167,76.0,0.0,60.0,12.0,0.0
6168,64.0,0.0,60.0,13.0,0.0
6169,76.0,0.0,120.0,6.0,0.0
6170,52.0,0.0,120.0,0.0,0.0
6171,56.0,0.0,60.0,14.0,0.0
6172,52.0,20.0,60.0,5.0,0.0
6173,64.0,0.0,120.0,0.0,0.0
6174,68.0,20.0,20.0,5.0,0.0
6175,71.0,0.0,20.0,5.0,0.0
6176,80.0,0.0,120.0,13.0,0.0
6177,76.0,20.0,20.0,5.0,0.0
6178,83.0,20.0,60.0,12.0,0.0
6179,76.0,0.0,120.0,14.0,0.0
6180,80.0,20.0,20.0,5.0,0.0
6181,83.0,0.0,20.0,5.0,0.0
6182,61.0,20.0,20.0,5.0,0.0
6183,81.0,0.0,20.0,5.0,0.0
6184,81.0,20.0,120.0,12.0,0.0
6185,73.0,0.0,60.0,15.0,0.0
6186,64.0,0.0,20.0,5.0,0.0
6187,93.0,20.0,20.0,5.0,0.0
6188,73.0,20.0,20.0,5.0,0.0
6189,92.0,0.0,20.0,5.0,0.0
6190,78.0,0.0,120.0,13.0,0.0
6191,75.0,0.0,60.0,15.0,0.0
6192,75.0,20.0,120.0,14.0,0.0
6193,63.0,20.0,20.0,5.0,0.0
6194,81.0,0.0,20.0,5.0,0.0
6195,66.0,20.0,20.0,5.0,0.0
6196,93.0,0.0,20.0,5.0,0.0
6197,90.0,0.0,20.0,5.0,0.0
6198,75.0,0.0,20.0,5.0,0.0
6199,59.0,0.0,20.0,5.0,0.0
6200,80.0,0.0,120.0,12.0,0.0
6201,80.0,20.0,20.0,5.0,0.0
6202,71.0,0.0,60.0,15.0,0.0
6203,63.0,0.0,20.0,5.0,0.0
6204,92.0,20.0,20.0,5.0,0.0
6205,71.0,0.0,20.0,5.0,0.0
6206,90.0,0.0,20.0,5.0,0.0
6207,73.0,0.0,60.0,15.0,0.0
6208,76.0,0.0,120.0,13.0,0.0
6209,73.0,20.0,120.0,14.0,0.0
6210,80.0,20.0,20.0,5.0,0.0
6211,61.0,0.0,20.0,5.0,0.0
6212,64.0,0.0,20.0,5.0,0.0
6213,92.0,20.0,20.0,5.0,0.0
6214,73.0,0.0,20.0,5.0,0.0
6215,88.0,20.0,20.0,5.0,0.0
6216,78.0,20.0,20.0,5.0,0.0
6217,78.0,20.0,120.0,12.0,0.0
6218,69.0,0.0,60.0,15.0,0.0
6219,57.0,0.0,20.0,5.0,0.0
6220,90.0,0.0,20.0,5.0,0.0
6221,61.0,20.0,20.0,5.0,0.0
6222,69.0,0.0,20.0,5.0,0.0
6223,88.0,0.0,20.0,5.0,0.0
6224,71.0,0.0,120.0,14.0,0.0
6225,78.0,0.0,20.0,5.0,0.0
6226,71.0,0.0,60.0,15.0,0.0
6227,75.0,0.0,120.0,13.0,0.0
6228,59.0,20.0,20.0,5.0,0.0
6229,90.0,0.0,20.0,5.0,0.0
6230,63.0,20.0,20.0,5.0,0.0
6231,71.0,0.0,20.0,5.0,0.0
6232,87.0,0.0,20.0,5.0,0.0
6233,76.0,20.0,20.0,5.0,0.0
6234,68.0,0.0,60.0,15.0,0.0
6235,56.0,0.0,20.0,5.0,0.0
6236,76.0,0.0,120.0,12.0,0.0
6237,59.0,20.0,20.0,5.0,0.0
6238,88.0,0.0,20.0,5.0,0.0
6239,68.0,0.0,20.0,5.0,0.0
6240,87.0,20.0,20.0,5.0,0.0
6241,69.0,0.0,60.0,15.0,0.0
6242,73.0,0.0,120.0,13.0,0.0
6243,76.0,20.0,20.0,5.0,0.0
6244,69.0,0.0,120.0,14.0,0.0
6245,57.0,0.0,20.0,5.0,0.0
6246,88.0,0.0,20.0,5.0,0.0
6247,61.0,20.0,20.0,5.0,0.0
6248,85.0,0.0,20.0,5.0,0.0
6249,69.0,20.0,20.0,5.0,0.0
6250,75.0,0.0,120.0,12.0,0.0
6251,66.0,0.0,60.0,15.0,0.0
6252,75.0,0.0,20.0,5.0,0.0
6253,54.0,20.0,20.0,5.0,0.0
6254,87.0,0.0,20.0,5.0,0.0
6255,57.0,20.0,20.0,5.0,0.0
6256,85.0,0.0,20.0,5.0,0.0
6257,66.0,20.0,20.0,5.0,0.0
6258,75.0,0.0,20.0,5.0,0.0
6259,68.0,0.0,60.0,15.0,0.0
6260,68.0,20.0,120.0,14.0,0.0
6261,56.0,20.0,20.0,5.0,0.0
6262,71.0,0.0,120.0,13.0,0.0
6263,59.0,0.0,20.0,5.0,0.0
6264,87.0,20.0,20.0,5.0,0.0
6265,68.0,0.0,20.0,5.0,0.0
6266,83.0,20.0,20.0,5.0,0.0
6267,64.0,0.0,60.0,15.0,0.0
6268,73.0,20.0,120.0,12.0,0.0
6269,52.0,20.0,20.0,5.0,0.0
6270,73.0,0.0,20.0,5.0,0.0
6271,85.0,20.0,20.0,5.0,0.0
6272,56.0,0.0,20.0,5.0,0.0
6273,83.0,0.0,20.0,5.0,0.0
6274,64.0,0.0,20.0,5.0,0.0
6275,54.0,20.0,20.0,5.0,0.0
6276,66.0,0.0,60.0,15.0,0.0
6277,66.0,0.0,120.0,14.0,0.0
6278,73.0,0.0,20.0,5.0,0.0
6279,69.0,0.0,120.0,13.0,0.0
6280,57.0,20.0,20.0,5.0,0.0
6281,85.0,0.0,20.0,5.0,0.0
6282,81.0,0.0,20.0,5.0,0.0
6283,66.0,0.0,20.0,5.0,0.0
6284,51.0,0.0,20.0,5.0,0.0
6285,71.0,20.0,20.0,5.0,0.0
6286,63.0,0.0,60.0,15.0,0.0
6287,71.0,20.0,120.0,12.0,0.0
6288,54.0,20.0,20.0,5.0,0.0
6289,83.0,0.0,20.0,5.0,0.0
6290,81.0,0.0,20.0,5.0,0.0
6291,63.0,20.0,20.0,5.0,0.0
6292,64.0,0.0,60.0,15.0,0.0
6293,68.0,0.0,120.0,13.0,0.0
6294,71.0,0.0,20.0,5.0,0.0
6295,64.0,0.0,120.0,14.0,0.0
6296,52.0,20.0,20.0,5.0,0.0
6297,83.0,20.0,20.0,5.0,0.0
6298,56.0,0.0,20.0,5.0,0.0
6299,64.0,0.0,20.0,5.0,0.0
6300,80.0,0.0,20.0,5.0,0.0
6301,69.0,0.0,20.0,5.0,0.0
6302,49.0,20.0,20.0,5.0,0.0
6303,69.0,20.0,120.0,12.0,0.0
6304,61.0,0.0,60.0,15.0,0.0
6305,52.0,0.0,20.0,5.0,0.0
6306,81.0,20.0,20.0,5.0,0.0
6307,61.0,0.0,20.0,5.0,0.0
6308,80.0,20.0,20.0,5.0,0.0
6309,66.0,0.0,120.0,13.0,0.0
6310,69.0,0.0,20.0,5.0,0.0
6311,63.0,20.0,120.0,14.0,0.0
6312,63.0,0.0,60.0,15.0,0.0
6313,51.0,20.0,20.0,5.0,0.0
6314,81.0,0.0,20.0,5.0,0.0
6315,54.0,20.0,20.0,5.0,0.0
6316,78.0,0.0,20.0,5.0,0.0
6317,63.0,0.0,20.0,5.0,0.0
6318,68.0,0.0,120.0,12.0,0.0
6319,47.0,0.0,20.0,5.0,0.0
6320,59.0,0.0,60.0,15.0,0.0
6321,68.0,20.0,20.0,5.0,0.0
6322,80.0,20.0,20.0,5.0,0.0
6323,51.0,0.0,20.0,5.0,0.0
6324,59.0,0.0,20.0,5.0,0.0
6325,78.0,0.0,20.0,5.0,0.0
6326,49.0,20.0,20.0,5.0,0.0
6327,64.0,20.0,60.0,13.0,0.0
6328,68.0,0.0,20.0,5.0,0.0
6329,61.0,0.0,60.0,15.0,0.0
6330,61.0,0.0,120.0,14.0,0.0
6331,80.0,20.0,20.0,5.0,0.0
6332,52.0,0.0,20.0,5.0,0.0
6333,76.0,0.0,20.0,5.0,0.0
6334,61.0,0.0,20.0,5.0,0.0
6335,66.0,0.0,60.0,12.0,0.0
6336,64.0,0.0,660.0,13.0,0.0
6337,45.0,20.0,20.0,5.0,0.0
6338,66.0,0.0,20.0,5.0,0.0
6339,45.0,0.0,60.0,15.0,0.0
6340,52.0,20.0,20.0,5.0,0.0
6341,78.0,0.0,20.0,5.0,0.0
6342,76.0,20.0,20.0,5.0,0.0
6343,57.0,0.0,20.0,5.0,0.0
6344,68.0,20.0,20.0,5.0,0.0
6345,59.0,0.0,60.0,14.0,0.0
6346,47.0,0.0,60.0,15.0,0.0
6347,68.0,0.0,60.0,12.0,0.0
6348,47.0,0.0,20.0,5.0,0.0
6349,80.0,20.0,20.0,5.0,0.0
6350,52.0,0.0,20.0,5.0,0.0
6351,76.0,20.0,20.0,5.0,0.0
6352,59.0,0.0,20.0,5.0,0.0
6353,57.0,0.0,60.0,14.0,0.0
6354,69.0,0.0,20.0,5.0,0.0
6355,49.0,0.0,60.0,15.0,0.0
6356,69.0,0.0,60.0,12.0,0.0
6357,49.0,20.0,20.0,5.0,0.0
6358,81.0,0.0,20.0,5.0,0.0
6359,52.0,20.0,20.0,5.0,0.0
6360,61.0,20.0,20.0,5.0,0.0
6361,76.0,0.0,20.0,5.0,0.0
6362,47.0,0.0,20.0,5.0,0.0
6363,59.0,20.0,60.0,14.0,0.0
6364,47.0,0.0,60.0,15.0,0.0
6365,68.0,0.0,60.0,12.0,0.0
6366,68.0,20.0,20.0,5.0,0.0
6367,80.0,20.0,20.0,5.0,0.0
6368,52.0,0.0,20.0,5.0,0.0
6369,76.0,0.0,20.0,5.0,0.0
6370,59.0,0.0,20.0,5.0,0.0
6371,45.0,20.0,20.0,5.0,0.0
6372,45.0,0.0,60.0,15.0,0.0
6373,66.0,0.0,20.0,5.0,0.0
6374,66.0,0.0,60.0,12.0,0.0
6375,61.0,0.0,60.0,14.0,0.0
6376,52.0,0.0,20.0,5.0,0.0
6377,78.0,20.0,20.0,5.0,0.0
6378,76.0,20.0,20.0,5.0,0.0
6379,57.0,0.0,20.0,5.0,0.0
6380,47.0,0.0,60.0,15.0,0.0
6381,68.0,0.0,20.0,5.0,0.0
6382,68.0,0.0,60.0,12.0,0.0
6383,59.0,0.0,60.0,14.0,0.0
6384,47.0,20.0,20.0,5.0,0.0
6385,80.0,20.0,20.0,5.0,0.0
6386,52.0,0.0,20.0,5.0,0.0
6387,59.0,0.0,20.0,5.0,0.0
6388,76.0,20.0,20.0,5.0,0.0
6389,69.0,0.0,60.0,12.0,0.0
6390,49.0,20.0,20.0,5.0,0.0
6391,69.0,0.0,20.0,5.0,0.0
6392,49.0,0.0,60.0,15.0,0.0
6393,57.0,20.0,60.0,14.0,0.0
6394,52.0,20.0,20.0,5.0,0.0
6395,81.0,0.0,20.0,5.0,0.0
6396,76.0,0.0,20.0,5.0,0.0
6397,61.0,0.0,20.0,5.0,0.0
6398,47.0,0.0,60.0,15.0,0.0
6399,47.0,0.0,20.0,5.0,0.0
6400,59.0,20.0,60.0,14.0,0.0
6401,68.0,0.0,60.0,12.0,0.0
6402,68.0,20.0,20.0,5.0,0.0
6403,52.0,0.0,20.0,5.0,0.0
6404,80.0,20.0,20.0,5.0,0.0
6405,76.0,0.0,20.0,5.0,0.0
6406,59.0,0.0,20.0,5.0,0.0
6407,46.0,0.0,60.0,15.0,0.0
6408,66.0,20.0,20.0,5.0,0.0
6409,61.0,0.0,60.0,14.0,0.0
6410,46.0,0.0,20.0,5.0,0.0
6411,66.0,20.0,60.0,12.0,0.0
6412,52.0,20.0,20.0,5.0,0.0
6413,78.0,0.0,20.0,5.0,0.0
6414,58.0,0.0,20.0,5.0,0.0
6415,76.0,0.0,20.0,5.0,0.0
6416,47.0,20.0,20.0,5.0,0.0
6417,68.0,20.0,60.0,12.0,0.0
6418,47.0,0.0,60.0,15.0,0.0
6419,59.0,0.0,60.0,14.0,0.0
6420,68.0,0.0,20.0,5.0,0.0
6421,52.0,20.0,20.0,5.0,0.0
6422,80.0,0.0,20.0,5.0,0.0
6423,76.0,0.0,20.0,5.0,0.0
6424,59.0,0.0,20.0,5.0,0.0
6425,49.0,0.0,60.0,15.0,0.0
6426,49.0,0.0,20.0,5.0,0.0
6427,61.0,0.0,60.0,14.0,0.0
6428,70.0,20.0,20.0,5.0,0.0
6429,70.0,0.0,60.0,12.0,0.0
6430,52.0,0.0,20.0,5.0,0.0
6431,82.0,20.0,20.0,5.0,0.0
6432,76.0,16.0,20.0,5.0,0.0
6433,61.0,0.0,20.0,5.0,0.0
6434,66.0,0.0,15.0,13.0,0.0
6435,51.0,9.0,30.0,15.0,0.0
6436,51.0,0.0,20.0,5.0,0.0
6437,71.0,4.0,15.0,12.0,0.0
6438,71.0,11.0,20.0,5.0,0.0
6439,63.0,0.0,15.0,14.0,0.0
6440,83.0,0.0,20.0,5.0,0.0
6441,54.0,6.0,20.0,5.0,0.0
6442,66.0,0.0,15.0,13.0,0.0
6443,71.0,0.0,15.0,12.0,0.0
6444,63.0,14.0,15.0,14.0,0.0
6445,63.0,16.0,20.0,5.0,0.0
6446,78.0,0.0,20.0,5.0,0.0
6447,73.0,0.0,15.0,12.0,0.0
6448,68.0,0.0,15.0,13.0,0.0
6449,52.0,9.0,30.0,15.0,0.0
6450,73.0,11.0,20.0,5.0,0.0
6451,64.0,4.0,15.0,14.0,0.0
6452,52.0,0.0,20.0,5.0,0.0
6453,56.0,6.0,20.0,5.0,0.0
6454,85.0,0.0,20.0,5.0,0.0
6455,64.0,0.0,15.0,14.0,0.0
6456,68.0,14.0,15.0,13.0,0.0
6457,73.0,0.0,15.0,12.0,0.0
6458,64.0,16.0,20.0,5.0,0.0
6459,80.0,0.0,20.0,5.0,0.0
6460,70.0,0.0,15.0,13.0,0.0
6461,75.0,0.0,20.0,5.0,0.0
6462,54.0,11.0,20.0,5.0,0.0
6463,66.0,4.0,15.0,14.0,0.0
6464,75.0,0.0,15.0,12.0,0.0
6465,54.0,9.0,30.0,15.0,0.0
6466,87.0,6.0,20.0,5.0,0.0
6467,58.0,0.0,20.0,5.0,0.0
6468,75.0,0.0,15.0,12.0,0.0
6469,66.0,0.0,15.0,14.0,0.0
6470,70.0,14.0,15.0,13.0,0.0
6471,82.0,0.0,20.0,5.0,0.0
6472,66.0,16.0,20.0,5.0,0.0
6473,56.0,9.0,30.0,15.0,0.0
6474,76.0,0.0,15.0,12.0,0.0
6475,76.0,0.0,20.0,5.0,0.0
6476,56.0,11.0,20.0,5.0,0.0
6477,71.0,0.0,15.0,13.0,0.0
6478,68.0,4.0,15.0,14.0,0.0
6479,59.0,0.0,20.0,5.0,0.0
6480,88.0,6.0,20.0,5.0,0.0
6481,68.0,14.0,15.0,14.0,0.0
6482,76.0,0.0,15.0,12.0,0.0
6483,71.0,0.0,15.0,13.0,0.0
6484,68.0,16.0,20.0,5.0,0.0
6485,83.0,0.0,20.0,5.0,0.0
6486,58.0,9.0,30.0,15.0,0.0
6487,58.0,0.0,20.0,5.0,0.0
6488,70.0,0.0,15.0,14.0,0.0
6489,78.0,11.0,20.0,5.0,0.0
6490,73.0,4.0,15.0,13.0,0.0
6491,78.0,0.0,15.0,12.0,0.0
6492,61.0,0.0,20.0,5.0,0.0
6493,90.0,6.0,20.0,5.0,0.0
6494,73.0,0.0,15.0,13.0,0.0
6495,70.0,0.0,15.0,14.0,0.0
6496,78.0,14.0,15.0,12.0,0.0
6497,85.0,20.0,20.0,5.0,0.0
6498,70.0,0.0,20.0,5.0,0.0
6499,71.0,0.0,60.0,14.0,0.0
6500,71.0,0.0,120.0,5.0,0.0
6501,71.0,0.0,60.0,13.0,0.0
6502,75.0,0.0,60.0,12.0,0.0
6503,59.0,0.0,60.0,15.0,0.0
6504,87.0,40.0,20.0,5.0,0.0
6505,93.0,20.0,15.0,5.0,0.0
6506,86.0,20.0,20.0,5.0,0.0
6507,87.0,20.0,20.0,5.0,0.0
6508,90.0,20.0,20.0,5.0,0.0
6509,82.0,20.0,20.0,5.0,0.0
6510,83.0,20.0,20.0,5.0,0.0
6511,87.0,20.0,20.0,5.0,0.0
6512,77.0,20.0,20.0,5.0,0.0
6513,78.0,20.0,20.0,5.0,0.0
6514,83.0,20.0,20.0,5.0,0.0
6515,74.0,20.0,20.0,5.0,0.0
6516,75.0,20.0,20.0,5.0,0.0
6517,78.0,20.0,20.0,5.0,0.0
6518,70.0,20.0,20.0,5.0,0.0
6519,71.0,20.0,20.0,5.0,0.0
6520,75.0,20.0,20.0,5.0,0.0
6521,65.0,20.0,20.0,5.0,0.0
6522,66.0,20.0,20.0,5.0,0.0
6523,71.0,20.0,20.0,5.0,0.0
6524,62.0,20.0,20.0,5.0,0.0
6525,63.0,20.0,20.0,5.0,0.0
6526,66.0,20.0,20.0,5.0,0.0
6527,59.0,20.0,20.0,5.0,0.0
6528,42.0,0.0,20.0,5.0,0.0
6529,54.0,20.0,20.0,5.0,0.0
6530,56.0,20.0,20.0,5.0,0.0
6531,44.0,0.0,20.0,5.0,0.0
6532,46.0,0.0,20.0,5.0,0.0
6533,58.0,20.0,20.0,5.0,0.0
6534,47.0,0.0,20.0,5.0,0.0
6535,59.0,20.0,20.0,5.0,0.0
6536,49.0,20.0,20.0,5.0,0.0
6537,61.0,0.0,20.0,5.0,0.0
6538,51.0,0.0,20.0,5.0,0.0
6539,63.0,20.0,20.0,5.0,0.0
6540,58.0,0.0,20.0,5.0,0.0
6541,46.0,20.0,20.0,5.0,0.0
6542,47.0,0.0,20.0,5.0,0.0
6543,59.0,20.0,20.0,5.0,0.0
6544,49.0,0.0,20.0,5.0,0.0
6545,61.0,20.0,20.0,5.0,0.0
6546,51.0,0.0,20.0,5.0,0.0
6547,63.0,20.0,20.0,5.0,0.0
6548,52.0,0.0,20.0,5.0,0.0
6549,64.0,20.0,20.0,5.0,0.0
6550,54.0,20.0,20.0,5.0,0.0
6551,66.0,0.0,20.0,5.0,0.0
6552,63.0,0.0,20.0,5.0,0.0
6553,51.0,20.0,20.0,5.0,0.0
6554,64.0,0.0,20.0,5.0,0.0
6555,52.0,20.0,20.0,5.0,0.0
6556,66.0,0.0,20.0,5.0,0.0
6557,54.0,20.0,20.0,5.0,0.0
6558,68.0,0.0,20.0,5.0,0.0
6559,56.0,20.0,20.0,5.0,0.0
6560,58.0,0.0,20.0,5.0,0.0
6561,70.0,20.0,20.0,5.0,0.0
6562,59.0,0.0,20.0,5.0,0.0
6563,71.0,20.0,20.0,5.0,0.0
6564,54.0,20.0,20.0,5.0,0.0
6565,66.0,0.0,20.0,5.0,0.0
6566,56.0,0.0,20.0,5.0,0.0
6567,68.0,20.0,20.0,5.0,0.0
6568,58.0,0.0,20.0,5.0,0.0
6569,70.0,20.0,20.0,5.0,0.0
6570,59.0,0.0,20.0,5.0,0.0
6571,71.0,20.0,20.0,5.0,0.0
6572,73.0,0.0,20.0,5.0,0.0
6573,61.0,20.0,20.0,5.0,0.0
6574,63.0,20.0,20.0,5.0,0.0
6575,75.0,0.0,20.0,5.0,0.0
6576,58.0,0.0,20.0,5.0,0.0
6577,70.0,20.0,20.0,5.0,0.0
6578,59.0,0.0,20.0,5.0,0.0
6579,71.0,20.0,20.0,5.0,0.0
6580,61.0,0.0,20.0,5.0,0.0
6581,73.0,20.0,20.0,5.0,0.0
6582,75.0,20.0,20.0,5.0,0.0
6583,63.0,0.0,20.0,5.0,0.0
6584,76.0,0.0,20.0,5.0,0.0
6585,64.0,20.0,20.0,5.0,0.0
6586,78.0,0.0,20.0,5.0,0.0
6587,66.0,20.0,20.0,5.0,0.0
6588,63.0,20.0,20.0,5.0,0.0
6589,75.0,0.0,20.0,5.0,0.0
6590,76.0,0.0,20.0,5.0,0.0
6591,64.0,20.0,20.0,5.0,0.0
6592,66.0,0.0,20.0,5.0,0.0
6593,78.0,20.0,20.0,5.0,0.0
6594,68.0,0.0,20.0,5.0,0.0
6595,80.0,20.0,20.0,5.0,0.0
6596,70.0,20.0,20.0,5.0,0.0
6597,82.0,0.0,20.0,5.0,0.0
6598,71.0,0.0,20.0,5.0,0.0
6599,83.0,20.0,20.0,5.0,0.0
6600,78.0,0.0,20.0,5.0,0.0
6601,66.0,20.0,20.0,5.0,0.0
6602,68.0,20.0,20.0,5.0,0.0
6603,80.0,0.0,20.0,5.0,0.0
6604,82.0,20.0,20.0,5.0,0.0
6605,70.0,0.0,20.0,5.0,0.0
6606,71.0,20.0,20.0,5.0,0.0
6607,83.0,0.0,20.0,5.0,0.0
6608,73.0,0.0,20.0,5.0,0.0
6609,85.0,20.0,20.0,5.0,0.0
6610,75.0,20.0,20.0,5.0,0.0
6611,87.0,0.0,20.0,5.0,0.0
6612,82.0,20.0,20.0,5.0,0.0
6613,70.0,0.0,20.0,5.0,0.0
6614,71.0,20.0,20.0,5.0,0.0
6615,83.0,0.0,20.0,5.0,0.0
6616,85.0,0.0,20.0,5.0,0.0
6617,73.0,20.0,20.0,5.0,0.0
6618,87.0,20.0,20.0,5.0,0.0
6619,75.0,0.0,20.0,5.0,0.0
6620,88.0,20.0,20.0,5.0,0.0
6621,76.0,0.0,20.0,5.0,0.0
6622,78.0,20.0,20.0,5.0,0.0
6623,90.0,0.0,20.0,5.0,0.0
6624,75.0,20.0,20.0,5.0,0.0
6625,87.0,0.0,20.0,5.0,0.0
6626,76.0,20.0,20.0,5.0,0.0
6627,88.0,0.0,20.0,5.0,0.0
6628,78.0,20.0,20.0,5.0,0.0
6629,90.0,0.0,20.0,5.0,0.0
6630,91.0,20.0,20.0,5.0,0.0
6631,79.0,0.0,20.0,5.0,0.0
6632,92.0,0.0,20.0,5.0,0.0
6633,80.0,30.0,20.0,5.0,0.0
6634,81.0,0.0,30.0,5.0,0.0
6635,93.0,30.0,30.0,5.0,0.0
6636,78.0,0.0,30.0,5.0,0.0
6637,90.0,30.0,30.0,5.0,0.0
6638,75.0,0.0,30.0,5.0,0.0
6639,87.0,30.0,30.0,5.0,0.0
6640,83.0,30.0,30.0,5.0,0.0
6641,71.0,0.0,30.0,5.0,0.0
6642,84.0,0.0,30.0,5.0,0.0
6643,72.0,30.0,30.0,5.0,0.0
6644,81.0,30.0,30.0,5.0,0.0
6645,69.0,0.0,30.0,5.0,0.0
6646,66.0,30.0,30.0,5.0,0.0
6647,78.0,0.0,30.0,5.0,0.0
6648,76.0,0.0,30.0,5.0,0.0
6649,64.0,30.0,30.0,5.0,0.0
6650,63.0,0.0,30.0,5.0,0.0
6651,75.0,30.0,30.0,5.0,0.0
6652,66.0,30.0,30.0,5.0,0.0
6653,78.0,0.0,30.0,5.0,0.0
6654,69.0,30.0,60.0,0.0,0.0
6655,81.0,0.0,60.0,6.0,0.0
6656,69.0,30.0,30.0,5.0,0.0
6657,93.0,0.0,60.0,3.0,0.0
6658,57.0,0.0,60.0,0.0,0.0
6659,57.0,0.0,30.0,5.0,0.0
6660,60.0,0.0,30.0,5.0,0.0
6661,72.0,0.0,30.0,5.0,0.0
6662,90.0,0.0,60.0,3.0,0.0
6663,78.0,0.0,60.0,6.0,0.0
6664,54.0,0.0,60.0,5.0,0.0
6665,66.0,30.0,60.0,0.0,0.0
6666,54.0,0.0,60.0,0.0,0.0
6667,66.0,30.0,30.0,5.0,0.0
6668,69.0,0.0,30.0,5.0,0.0
6669,50.0,0.0,60.0,5.0,0.0
6670,38.0,0.0,60.0,5.0,0.0
6671,62.0,0.0,60.0,0.0,0.0
6672,50.0,0.0,60.0,0.0,0.0
6673,86.0,0.0,60.0,3.0,0.0
6674,74.0,0.0,60.0,6.0,0.0
6675,62.0,30.0,30.0,5.0,0.0
6676,69.0,30.0,30.0,5.0,0.0
6677,61.0,30.0,30.0,5.0,0.0
6678,85.0,0.0,60.0,3.0,0.0
6679,73.0,0.0,60.0,6.0,0.0
6680,49.0,0.0,60.0,5.0,0.0
6681,37.0,30.0,60.0,5.0,0.0
6682,49.0,0.0,60.0,0.0,0.0
6683,61.0,0.0,60.0,0.0,0.0
6684,69.0,0.0,30.0,5.0,0.0
6685,48.0,0.0,60.0,0.0,0.0
6686,72.0,20.0,60.0,6.0,0.0
6687,60.0,0.0,60.0,0.0,0.0
6688,60.0,30.0,30.0,5.0,0.0
6689,36.0,0.0,60.0,5.0,0.0
6690,84.0,0.0,60.0,3.0,0.0
6691,48.0,0.0,60.0,5.0,0.0
6692,69.0,0.0,30.0,5.0,0.0
6693,59.0,0.0,180.0,0.0,0.0
6694,71.0,0.0,180.0,6.0,0.0
6695,35.0,0.0,180.0,5.0,0.0
6696,47.0,0.0,180.0,5.0,0.0
6697,47.0,0.0,180.0,0.0,0.0
6698,59.0,20.0,20.0,5.0,0.0
6699,83.0,0.0,180.0,3.0,0.0
6700,63.0,20.0,20.0,5.0,0.0
6701,66.0,20.0,20.0,5.0,0.0
6702,69.0,20.0,20.0,5.0,0.0
6703,66.0,20.0,20.0,5.0,0.0
6704,63.0,20.0,20.0,5.0,0.0
6705,59.0,20.0,20.0,5.0,0.0
6706,66.0,20.0,20.0,5.0,0.0
6707,69.0,20.0,20.0,5.0,0.0
6708,36.0,0.0,60.0,5.0,0.0
6709,84.0,0.0,60.0,3.0,0.0
6710,60.0,20.0,20.0,5.0,0.0
6711,48.0,0.0,60.0,0.0,0.0
6712,60.0,0.0,60.0,0.0,0.0
6713,72.0,20.0,60.0,6.0,0.0
6714,48.0,0.0,60.0,5.0,0.0
6715,66.0,20.0,20.0,5.0,0.0
6716,69.0,0.0,20.0,5.0,0.0
6717,59.0,0.0,180.0,0.0,0.0
6718,47.0,0.0,180.0,0.0,0.0
6719,83.0,20.0,180.0,3.0,0.0
6720,59.0,20.0,20.0,5.0,0.0
6721,47.0,0.0,180.0,5.0,0.0
6722,35.0,0.0,180.0,5.0,0.0
6723,71.0,0.0,180.0,6.0,0.0
6724,63.0,20.0,20.0,5.0,0.0
6725,66.0,20.0,20.0,5.0,0.0
6726,69.0,20.0,20.0,5.0,0.0
6727,66.0,20.0,20.0,5.0,0.0
6728,63.0,20.0,20.0,5.0,0.0
6729,59.0,20.0,20.0,5.0,0.0
6730,66.0,20.0,20.0,5.0,0.0
6731,69.0,0.0,20.0,5.0,0.0
6732,60.0,20.0,20.0,5.0,0.0
6733,72.0,0.0,60.0,6.0,0.0
6734,84.0,0.0,60.0,3.0,0.0
6735,60.0,0.0,60.0,0.0,0.0
6736,48.0,20.0,60.0,0.0,0.0
6737,36.0,0.0,60.0,5.0,0.0
6738,48.0,0.0,60.0,5.0,0.0
6739,66.0,20.0,20.0,5.0,0.0
6740,69.0,0.0,20.0,5.0,0.0
6741,59.0,0.0,60.0,0.0,0.0
6742,47.0,0.0,60.0,0.0,0.0
6743,71.0,20.0,60.0,6.0,0.0
6744,35.0,0.0,60.0,5.0,0.0
6745,47.0,0.0,60.0,5.0,0.0
6746,83.0,0.0,60.0,3.0,0.0
6747,59.0,20.0,20.0,5.0,0.0
6748,66.0,20.0,20.0,5.0,0.0
6749,69.0,0.0,20.0,5.0,0.0
6750,60.0,0.0,60.0,0.0,0.0
6751,48.0,0.0,60.0,0.0,0.0
6752,48.0,0.0,60.0,5.0,0.0
6753,36.0,0.0,60.0,5.0,0.0
6754,84.0,20.0,60.0,3.0,0.0
6755,60.0,20.0,20.0,5.0,0.0
6756,72.0,0.0,60.0,6.0,0.0
6757,66.0,20.0,20.0,5.0,0.0
6758,69.0,0.0,20.0,5.0,0.0
6759,83.0,0.0,60.0,3.0,0.0
6760,47.0,0.0,60.0,5.0,0.0
6761,59.0,20.0,20.0,5.0,0.0
6762,47.0,0.0,60.0,0.0,0.0
6763,59.0,0.0,60.0,0.0,0.0
6764,35.0,0.0,60.0,5.0,0.0
6765,71.0,0.0,60.0,6.0,0.0
6766,66.0,20.0,20.0,5.0,0.0
6767,69.0,20.0,20.0,5.0,0.0
6768,48.0,0.0,60.0,5.0,0.0
6769,36.0,0.0,60.0,5.0,0.0
6770,84.0,0.0,60.0,3.0,0.0
6771,60.0,20.0,20.0,5.0,0.0
6772,72.0,0.0,60.0,6.0,0.0
6773,48.0,0.0,60.0,0.0,0.0
6774,60.0,45.0,60.0,0.0,0.0
6775,66.0,20.0,20.0,5.0,0.0
6776,69.0,0.0,20.0,5.0,0.0
6777,47.0,0.0,120.0,5.0,0.0
6778,35.0,15.0,120.0,5.0,0.0
6779,71.0,0.0,120.0,6.0,0.0
6780,47.0,0.0,120.0,0.0,0.0
6781,59.0,0.0,120.0,0.0,0.0
6782,83.0,0.0,120.0,3.0,0.0
6783,58.0,15.0,15.0,5.0,0.0
6784,70.0,15.0,15.0,5.0,0.0
6785,59.0,15.0,15.0,5.0,0.0
6786,71.0,15.0,15.0,5.0,0.0
6787,61.0,15.0,15.0,5.0,0.0
6788,73.0,0.0,15.0,5.0,0.0
6789,63.0,15.0,15.0,5.0,0.0
6790,75.0,15.0,15.0,5.0,0.0
6791,64.0,15.0,15.0,5.0,0.0
6792,76.0,15.0,15.0,5.0,0.0
6793,66.0,15.0,15.0,5.0,0.0
6794,78.0,15.0,15.0,5.0,0.0
6795,68.0,15.0,15.0,5.0,0.0
6796,80.0,15.0,15.0,5.0,0.0
6797,69.0,15.0,15.0,5.0,0.0
6798,81.0,15.0,15.0,5.0,0.0
6799,71.0,15.0,15.0,5.0,0.0
6800,83.0,15.0,15.0,5.0,0.0
6801,73.0,15.0,15.0,5.0,0.0
6802,85.0,15.0,15.0,5.0,0.0
6803,75.0,15.0,15.0,5.0,0.0
6804,87.0,15.0,15.0,5.0,0.0
6805,76.0,45.0,15.0,5.0,0.0
6806,88.0,60.0,30.0,5.0,0.0
6807,88.0,60.0,60.0,5.0,0.0
6808,83.0,1.0,60.0,5.0,0.0
6809,68.0,30.0,15.0,5.0,0.0
6810,83.0,1.0,60.0,5.0,0.0
6811,64.0,29.0,15.0,5.0,0.0
6812,85.0,1.0,60.0,5.0,0.0
6813,69.0,30.0,60.0,5.0,0.0
6814,64.0,29.0,15.0,5.0,0.0
6815,69.0,30.0,60.0,5.0,0.0
6816,85.0,1.0,60.0,5.0,0.0
6817,80.0,1.0,60.0,5.0,0.0
6818,71.0,30.0,60.0,5.0,0.0
6819,64.0,29.0,15.0,5.0,0.0
6820,80.0,1.0,60.0,5.0,0.0
6821,71.0,30.0,60.0,5.0,0.0
6822,64.0,29.0,60.0,5.0,0.0
6823,73.0,30.0,60.0,5.0,0.0
6824,81.0,1.0,60.0,5.0,0.0
6825,73.0,29.0,60.0,5.0,0.0
6826,81.0,1.0,60.0,5.0,0.0
6827,64.0,29.0,15.0,5.0,0.0
6828,68.0,29.0,60.0,5.0,0.0
6829,83.0,1.0,30.0,5.0,0.0
6830,64.0,29.0,15.0,5.0,0.0
6831,80.0,1.0,30.0,5.0,0.0
6832,68.0,29.0,60.0,5.0,0.0
6833,83.0,1.0,30.0,5.0,0.0
6834,64.0,29.0,15.0,5.0,0.0
6835,80.0,1.0,30.0,5.0,0.0
6836,85.0,1.0,30.0,5.0,0.0
6837,69.0,29.0,60.0,5.0,0.0
6838,83.0,1.0,30.0,5.0,0.0
6839,68.0,29.0,60.0,5.0,0.0
6840,81.0,1.0,30.0,5.0,0.0
6841,66.0,29.0,60.0,5.0,0.0
6842,80.0,1.0,30.0,5.0,0.0
6843,64.0,29.0,60.0,5.0,0.0
6844,77.0,1.0,30.0,5.0,0.0
6845,59.0,0.0,120.0,5.0,0.0
6846,62.0,0.0,30.0,5.0,0.0
6847,78.0,60.0,30.0,5.0,0.0
6848,63.0,0.0,30.0,5.0,0.0
6849,78.0,0.0,60.0,5.0,0.0
6850,63.0,60.0,60.0,5.0,0.0
6851,88.0,60.0,60.0,5.0,0.0
6852,88.0,60.0,60.0,5.0,0.0
6853,68.0,30.0,60.0,5.0,0.0
6854,83.0,1.0,60.0,5.0,0.0
6855,64.0,29.0,60.0,5.0,0.0
6856,83.0,1.0,60.0,5.0,0.0
6857,68.0,30.0,60.0,5.0,0.0
6858,64.0,29.0,60.0,5.0,0.0
6859,85.0,1.0,60.0,5.0,0.0
6860,69.0,30.0,60.0,5.0,0.0
6861,85.0,1.0,60.0,5.0,0.0
6862,69.0,30.0,60.0,5.0,0.0
6863,64.0,29.0,15.0,5.0,0.0
6864,71.0,30.0,60.0,5.0,0.0
6865,80.0,1.0,60.0,5.0,0.0
6866,64.0,29.0,15.0,5.0,0.0
6867,71.0,30.0,60.0,5.0,0.0
6868,80.0,1.0,60.0,5.0,0.0
6869,64.0,29.0,15.0,5.0,0.0
6870,81.0,1.0,60.0,5.0,0.0
6871,64.0,29.0,15.0,5.0,0.0
6872,73.0,30.0,15.0,5.0,0.0
6873,81.0,1.0,60.0,5.0,0.0
6874,64.0,29.0,60.0,5.0,0.0
6875,83.0,1.0,30.0,5.0,0.0
6876,68.0,29.0,60.0,5.0,0.0
6877,80.0,1.0,30.0,5.0,0.0
6878,64.0,29.0,60.0,5.0,0.0
6879,85.0,1.0,30.0,5.0,0.0
6880,69.0,30.0,60.0,5.0,0.0
6881,81.0,1.0,30.0,5.0,0.0
6882,66.0,29.0,60.0,5.0,0.0
6883,64.0,0.0,60.0,5.0,0.0
6884,59.0,0.0,60.0,5.0,0.0
6885,80.0,60.0,60.0,5.0,0.0
6886,59.0,60.0,60.0,5.0,0.0
6887,63.0,0.0,60.0,5.0,0.0
6888,78.0,0.0,60.0,5.0,0.0
6889,64.0,60.0,60.0,5.0,0.0
6890,76.0,0.0,120.0,5.0,0.0
6891,52.0,31.0,60.0,5.0,0.0
6892,68.0,0.0,30.0,7.0,0.0
6893,76.0,0.0,30.0,7.0,0.0
6894,71.0,0.0,30.0,6.0,0.0
6895,88.0,60.0,30.0,3.0,0.0
6896,76.0,0.0,30.0,6.0,0.0
6897,68.0,0.0,30.0,7.0,0.0
6898,76.0,0.0,30.0,7.0,0.0
6899,88.0,0.0,30.0,3.0,0.0
6900,76.0,119.0,30.0,6.0,0.0
6901,71.0,0.0,30.0,6.0,0.0
6902,68.0,0.0,90.0,7.0,0.0
6903,76.0,30.0,90.0,7.0,0.0
6904,76.0,0.0,90.0,6.0,0.0
6905,71.0,0.0,90.0,6.0,0.0
6906,88.0,0.0,90.0,3.0,0.0
6907,90.0,0.0,30.0,3.0,0.0
6908,75.0,0.0,30.0,6.0,0.0
6909,78.0,0.0,30.0,6.0,0.0
6910,71.0,60.0,30.0,7.0,0.0
6911,78.0,0.0,30.0,7.0,0.0
6912,76.0,0.0,60.0,7.0,0.0
6913,80.0,60.0,60.0,7.0,0.0
6914,80.0,0.0,60.0,6.0,0.0
6915,92.0,0.0,60.0,3.0,0.0
6916,76.0,0.0,60.0,6.0,0.0
6917,81.0,60.0,60.0,7.0,0.0
6918,78.0,0.0,60.0,7.0,0.0
6919,93.0,0.0,60.0,3.0,0.0
6920,81.0,0.0,60.0,6.0,0.0
6921,78.0,0.0,60.0,6.0,0.0
6922,90.0,0.0,60.0,3.0,0.0
6923,47.0,60.0,60.0,4.0,0.0
6924,78.0,0.0,60.0,6.0,0.0
6925,78.0,0.0,60.0,7.0,0.0
6926,59.0,0.0,60.0,0.0,0.0
6927,71.0,0.0,60.0,1.0,0.0
6928,78.0,0.0,60.0,1.0,0.0
6929,71.0,0.0,60.0,7.0,0.0
6930,75.0,0.0,60.0,6.0,0.0
6931,78.0,31.0,60.0,1.0,0.0
6932,71.0,0.0,60.0,1.0,0.0
6933,47.0,0.0,60.0,0.0,0.0
6934,47.0,0.0,60.0,4.0,0.0
6935,78.0,60.0,30.0,7.0,0.0
6936,71.0,0.0,30.0,7.0,0.0
6937,90.0,0.0,30.0,3.0,0.0
6938,75.0,0.0,30.0,6.0,0.0
6939,78.0,0.0,30.0,6.0,0.0
6940,90.0,119.0,30.0,3.0,0.0
6941,75.0,0.0,30.0,6.0,0.0
6942,71.0,0.0,30.0,7.0,0.0
6943,78.0,0.0,30.0,6.0,0.0
6944,78.0,0.0,30.0,7.0,0.0
6945,71.0,30.0,90.0,7.0,0.0
6946,78.0,0.0,90.0,7.0,0.0
6947,90.0,0.0,90.0,3.0,0.0
6948,75.0,0.0,90.0,6.0,0.0
6949,78.0,0.0,90.0,6.0,0.0
6950,92.0,60.0,30.0,3.0,0.0
6951,76.0,0.0,30.0,6.0,0.0
6952,80.0,0.0,30.0,7.0,0.0
6953,80.0,0.0,30.0,6.0,0.0
6954,76.0,0.0,30.0,7.0,0.0
6955,93.0,0.0,60.0,3.0,0.0
6956,81.0,0.0,60.0,7.0,0.0
6957,81.0,0.0,60.0,6.0,0.0
6958,78.0,0.0,60.0,6.0,0.0
6959,78.0,60.0,60.0,7.0,0.0
6960,95.0,0.0,60.0,3.0,0.0
6961,75.0,0.0,60.0,6.0,0.0
6962,71.0,0.0,60.0,7.0,0.0
6963,78.0,0.0,60.0,7.0,0.0
6964,83.0,60.0,60.0,6.0,0.0
6965,80.0,0.0,60.0,1.0,0.0
6966,76.0,0.0,60.0,1.0,0.0
6967,52.0,60.0,60.0,4.0,0.0
6968,76.0,0.0,60.0,6.0,0.0
6969,80.0,0.0,60.0,6.0,0.0
6970,64.0,0.0,60.0,0.0,0.0
6971,92.0,0.0,60.0,3.0,0.0
6972,80.0,0.0,60.0,7.0,0.0
6973,76.0,0.0,60.0,7.0,0.0
6974,80.0,0.0,60.0,1.0,0.0
6975,52.0,0.0,60.0,0.0,0.0
6976,76.0,0.0,60.0,1.0,0.0
6977,52.0,31.0,60.0,4.0,0.0
6978,88.0,44.0,30.0,5.0,0.0
6979,90.0,15.0,15.0,5.0,0.0
6980,88.0,15.0,15.0,5.0,0.0
6981,87.0,15.0,15.0,5.0,0.0
6982,88.0,60.0,15.0,5.0,0.0
6983,83.0,15.0,60.0,5.0,0.0
6984,85.0,15.0,15.0,5.0,0.0
6985,83.0,15.0,15.0,5.0,0.0
6986,82.0,15.0,15.0,5.0,0.0
6987,83.0,60.0,15.0,5.0,0.0
6988,85.0,15.0,60.0,5.0,0.0
6989,87.0,15.0,15.0,5.0,0.0
6990,85.0,15.0,15.0,5.0,0.0
6991,84.0,15.0,15.0,5.0,0.0
6992,85.0,60.0,15.0,5.0,0.0
6993,76.0,0.0,240.0,7.0,0.0
6994,64.0,0.0,240.0,7.0,0.0
6995,61.0,0.0,240.0,15.0,0.0
6996,80.0,15.0,60.0,5.0,0.0
6997,81.0,15.0,15.0,5.0,0.0
6998,80.0,15.0,15.0,5.0,0.0
6999,78.0,15.0,15.0,5.0,0.0
7000,80.0,60.0,15.0,5.0,0.0
7001,67.0,0.0,120.0,14.0,0.0
7002,64.0,0.0,60.0,13.0,0.0
7003,76.0,0.0,60.0,12.0,0.0
7004,82.0,15.0,60.0,5.0,0.0
7005,76.0,60.0,60.0,12.0,0.0
7006,64.0,0.0,60.0,13.0,0.0
7007,83.0,15.0,15.0,5.0,0.0
7008,82.0,15.0,15.0,5.0,0.0
7009,80.0,15.0,15.0,5.0,0.0
7010,82.0,0.0,15.0,5.0,0.0
7011,64.0,0.0,90.0,13.0,0.0
7012,59.0,29.0,60.0,15.0,0.0
7013,68.0,0.0,90.0,14.0,0.0
7014,80.0,0.0,180.0,7.0,0.0
7015,76.0,0.0,180.0,7.0,0.0
7016,76.0,30.0,90.0,12.0,0.0
7017,83.0,1.0,60.0,5.0,0.0
7018,80.0,0.0,30.0,5.0,0.0
7019,78.0,0.0,30.0,12.0,0.0
7020,69.0,0.0,30.0,14.0,0.0
7021,66.0,30.0,30.0,13.0,0.0
7022,80.0,30.0,30.0,12.0,0.0
7023,68.0,0.0,30.0,13.0,0.0
7024,83.0,0.0,60.0,5.0,0.0
7025,47.0,29.0,60.0,15.0,0.0
7026,71.0,0.0,30.0,14.0,0.0
7027,73.0,0.0,30.0,14.0,0.0
7028,69.0,0.0,30.0,13.0,0.0
7029,81.0,1.0,30.0,12.0,0.0
7030,78.0,30.0,30.0,12.0,0.0
7031,69.0,0.0,30.0,14.0,0.0
7032,75.0,0.0,30.0,5.0,0.0
7033,78.0,0.0,60.0,7.0,0.0
7034,71.0,0.0,60.0,7.0,0.0
7035,66.0,0.0,30.0,13.0,0.0
7036,80.0,0.0,30.0,12.0,0.0
7037,68.0,60.0,30.0,13.0,0.0
7038,71.0,0.0,30.0,14.0,0.0
7039,76.0,0.0,120.0,5.0,0.0
7040,68.0,60.0,120.0,14.0,0.0
7041,68.0,1.0,60.0,7.0,0.0
7042,52.0,59.0,60.0,15.0,0.0
7043,76.0,0.0,120.0,12.0,0.0
7044,64.0,0.0,120.0,13.0,0.0
7045,76.0,0.0,60.0,7.0,0.0
7046,64.0,15.0,60.0,5.0,0.0
7047,64.0,0.0,120.0,15.0,0.0
7048,66.0,15.0,15.0,5.0,0.0
7049,64.0,15.0,15.0,5.0,0.0
7050,63.0,15.0,15.0,5.0,0.0
7051,64.0,60.0,15.0,5.0,0.0
7052,59.0,0.0,120.0,15.0,0.0
7053,59.0,15.0,60.0,5.0,0.0
7054,60.0,15.0,15.0,5.0,0.0
7055,59.0,15.0,15.0,5.0,0.0
7056,57.0,15.0,15.0,5.0,0.0
7057,59.0,60.0,15.0,5.0,0.0
7058,60.0,15.0,60.0,5.0,0.0
7059,60.0,0.0,120.0,15.0,0.0
7060,62.0,15.0,15.0,5.0,0.0
7061,60.0,15.0,15.0,5.0,0.0
7062,59.0,15.0,15.0,5.0,0.0
7063,60.0,60.0,15.0,5.0,0.0
7064,55.0,0.0,120.0,15.0,0.0
7065,76.0,0.0,240.0,7.0,0.0
7066,55.0,15.0,60.0,5.0,0.0
7067,64.0,0.0,240.0,7.0,0.0
7068,57.0,15.0,15.0,5.0,0.0
7069,55.0,15.0,15.0,5.0,0.0
7070,54.0,15.0,15.0,5.0,0.0
7071,55.0,60.0,15.0,5.0,0.0
7072,57.0,90.0,120.0,15.0,0.0
7073,57.0,0.0,60.0,5.0,0.0
7074,67.0,0.0,60.0,14.0,0.0
7075,64.0,0.0,60.0,13.0,0.0
7076,76.0,15.0,60.0,12.0,0.0
7077,64.0,0.0,60.0,13.0,0.0
7078,59.0,15.0,15.0,5.0,0.0
7079,67.0,1.0,60.0,14.0,0.0
7080,76.0,0.0,60.0,12.0,0.0
7081,57.0,15.0,15.0,5.0,0.0
7082,55.0,14.0,15.0,5.0,0.0
7083,57.0,0.0,15.0,5.0,0.0
7084,64.0,30.0,90.0,13.0,0.0
7085,76.0,0.0,90.0,12.0,0.0
7086,59.0,0.0,240.0,15.0,0.0
7087,67.0,0.0,90.0,14.0,0.0
7088,71.0,0.0,240.0,7.0,0.0
7089,59.0,0.0,240.0,7.0,0.0
7090,59.0,0.0,120.0,5.0,0.0
7091,69.0,0.0,30.0,14.0,0.0
7092,78.0,30.0,30.0,12.0,0.0
7093,66.0,0.0,30.0,13.0,0.0
7094,79.0,30.0,30.0,12.0,0.0
7095,67.0,0.0,30.0,13.0,0.0
7096,71.0,0.0,30.0,14.0,0.0
7097,81.0,0.0,30.0,12.0,0.0
7098,69.0,0.0,30.0,13.0,0.0
7099,72.0,30.0,30.0,14.0,0.0
7100,78.0,0.0,30.0,12.0,0.0
7101,66.0,0.0,30.0,13.0,0.0
7102,69.0,30.0,30.0,14.0,0.0
7103,67.0,0.0,30.0,13.0,0.0
7104,79.0,0.0,30.0,12.0,0.0
7105,71.0,60.0,30.0,14.0,0.0
7106,64.0,0.0,120.0,13.0,0.0
7107,60.0,0.0,240.0,5.0,0.0
7108,67.0,0.0,120.0,14.0,0.0
7109,76.0,0.0,240.0,7.0,0.0
7110,76.0,0.0,120.0,12.0,0.0
7111,60.0,0.0,240.0,15.0,0.0
7112,64.0,90.0,240.0,7.0,0.0
7113,75.0,30.0,30.0,5.0,0.0
7114,76.0,30.0,30.0,5.0,0.0
7115,78.0,30.0,30.0,5.0,0.0
7116,64.0,30.0,60.0,13.0,0.0
7117,67.0,0.0,60.0,14.0,0.0
7118,79.0,30.0,30.0,5.0,0.0
7119,76.0,0.0,60.0,12.0,0.0
7120,80.0,0.0,30.0,5.0,0.0
7121,67.0,0.0,60.0,14.0,0.0
7122,81.0,30.0,30.0,5.0,0.0
7123,76.0,0.0,60.0,12.0,0.0
7124,64.0,0.0,60.0,13.0,0.0
7125,82.0,0.0,30.0,5.0,0.0
7126,76.0,0.0,90.0,12.0,0.0
7127,59.0,0.0,240.0,5.0,0.0
7128,71.0,0.0,240.0,7.0,0.0
7129,59.0,0.0,240.0,15.0,0.0
7130,67.0,0.0,90.0,14.0,0.0
7131,83.0,0.0,120.0,5.0,0.0
7132,64.0,30.0,90.0,13.0,0.0
7133,59.0,0.0,240.0,7.0,0.0
7134,78.0,0.0,30.0,12.0,0.0
7135,66.0,30.0,30.0,14.0,0.0
7136,66.0,0.0,30.0,13.0,0.0
7137,67.0,0.0,30.0,13.0,0.0
7138,79.0,30.0,30.0,12.0,0.0
7139,64.0,30.0,60.0,14.0,0.0
7140,81.0,0.0,30.0,12.0,0.0
7141,69.0,0.0,30.0,13.0,0.0
7142,66.0,0.0,30.0,13.0,0.0
7143,78.0,30.0,30.0,12.0,0.0
7144,63.0,60.0,60.0,14.0,0.0
7145,79.0,0.0,30.0,12.0,0.0
7146,67.0,0.0,30.0,13.0,0.0
7147,64.0,0.0,120.0,13.0,0.0
7148,76.0,0.0,240.0,7.0,0.0
7149,64.0,0.0,240.0,7.0,0.0
7150,58.0,61.0,240.0,15.0,0.0
7151,58.0,0.0,240.0,5.0,0.0
7152,76.0,0.0,120.0,12.0,0.0
7153,61.0,30.0,120.0,14.0,0.0
7154,91.0,0.0,30.0,5.0,0.0
7155,79.0,30.0,30.0,5.0,0.0
7156,78.0,0.0,30.0,5.0,0.0
7157,90.0,30.0,30.0,5.0,0.0
7158,88.0,0.0,30.0,5.0,0.0
7159,76.0,0.0,30.0,5.0,0.0
7160,87.0,30.0,30.0,5.0,0.0
7161,75.0,0.0,30.0,5.0,0.0
7162,64.0,0.0,60.0,14.0,0.0
7163,76.0,0.0,60.0,12.0,0.0
7164,64.0,30.0,60.0,13.0,0.0
7165,74.0,0.0,30.0,5.0,0.0
7166,86.0,0.0,30.0,5.0,0.0
7167,73.0,0.0,30.0,5.0,0.0
7168,67.0,0.0,60.0,14.0,0.0
7169,64.0,0.0,60.0,13.0,0.0
7170,85.0,30.0,30.0,5.0,0.0
7171,76.0,0.0,60.0,12.0,0.0
7172,84.0,0.0,30.0,5.0,0.0
7173,72.0,0.0,30.0,5.0,0.0
7174,59.0,29.0,60.0,5.0,0.0
7175,71.0,0.0,120.0,5.0,0.0
7176,59.0,0.0,60.0,15.0,0.0
7177,68.0,30.0,90.0,14.0,0.0
7178,76.0,0.0,90.0,12.0,0.0
7179,71.0,0.0,240.0,7.0,0.0
7180,59.0,0.0,240.0,7.0,0.0
7181,64.0,0.0,90.0,13.0,0.0
7182,83.0,0.0,120.0,5.0,0.0
7183,66.0,0.0,30.0,13.0,0.0
7184,78.0,0.0,30.0,12.0,0.0
7185,69.0,30.0,30.0,14.0,0.0
7186,80.0,30.0,30.0,12.0,0.0
7187,47.0,29.0,60.0,5.0,0.0
7188,71.0,0.0,60.0,14.0,0.0
7189,47.0,0.0,60.0,15.0,0.0
7190,68.0,0.0,30.0,13.0,0.0
7191,81.0,0.0,30.0,12.0,0.0
7192,69.0,1.0,30.0,13.0,0.0
7193,78.0,0.0,30.0,12.0,0.0
7194,66.0,30.0,30.0,13.0,0.0
7195,63.0,20.0,60.0,14.0,0.0
7196,68.0,0.0,30.0,13.0,0.0
7197,80.0,0.0,30.0,12.0,0.0
7198,76.0,20.0,60.0,12.0,0.0
7199,64.0,0.0,120.0,13.0,0.0
7200,76.0,0.0,1020.0,7.0,0.0
7201,64.0,0.0,1020.0,7.0,0.0
7202,64.0,0.0,60.0,14.0,0.0
7203,40.0,0.0,480.0,5.0,0.0
7204,64.0,20.0,20.0,5.0,0.0
7205,52.0,0.0,1020.0,15.0,0.0
7206,59.0,20.0,20.0,5.0,0.0
7207,56.0,0.0,20.0,5.0,0.0
7208,52.0,20.0,20.0,5.0,0.0
7209,56.0,0.0,60.0,14.0,0.0
7210,64.0,20.0,60.0,12.0,0.0
7211,68.0,20.0,20.0,5.0,0.0
7212,64.0,0.0,20.0,5.0,0.0
7213,66.0,0.0,120.0,12.0,0.0
7214,57.0,0.0,120.0,14.0,0.0
7215,54.0,0.0,120.0,13.0,0.0
7216,63.0,0.0,120.0,13.0,0.0
7217,66.0,20.0,20.0,5.0,0.0
7218,63.0,20.0,20.0,5.0,0.0
7219,57.0,20.0,20.0,5.0,0.0
7220,54.0,20.0,20.0,5.0,0.0
7221,69.0,20.0,20.0,5.0,0.0
7222,66.0,20.0,20.0,5.0,0.0
7223,68.0,20.0,20.0,5.0,0.0
7224,64.0,0.0,120.0,13.0,0.0
7225,59.0,0.0,120.0,14.0,0.0
7226,68.0,20.0,120.0,12.0,0.0
7227,64.0,20.0,20.0,5.0,0.0
7228,59.0,20.0,20.0,5.0,0.0
7229,56.0,20.0,20.0,5.0,0.0
7230,71.0,20.0,20.0,5.0,0.0
7231,68.0,0.0,20.0,5.0,0.0
7232,54.0,0.0,120.0,14.0,0.0
7233,69.0,0.0,120.0,12.0,0.0
7234,63.0,20.0,120.0,13.0,0.0
7235,69.0,20.0,20.0,5.0,0.0
7236,66.0,20.0,20.0,5.0,0.0
7237,63.0,20.0,20.0,5.0,0.0
7238,75.0,20.0,20.0,5.0,0.0
7239,69.0,20.0,20.0,5.0,0.0
7240,66.0,0.0,20.0,5.0,0.0
7241,64.0,0.0,60.0,13.0,0.0
7242,76.0,20.0,20.0,5.0,0.0
7243,68.0,20.0,60.0,12.0,0.0
7244,52.0,0.0,60.0,14.0,0.0
7245,52.0,0.0,480.0,5.0,0.0
7246,71.0,20.0,20.0,5.0,0.0
7247,68.0,0.0,20.0,5.0,0.0
7248,76.0,0.0,60.0,13.0,0.0
7249,64.0,20.0,20.0,5.0,0.0
7250,68.0,0.0,60.0,14.0,0.0
7251,76.0,0.0,60.0,12.0,0.0
7252,80.0,20.0,20.0,5.0,0.0
7253,76.0,20.0,20.0,5.0,0.0
7254,69.0,0.0,120.0,14.0,0.0
7255,75.0,20.0,120.0,13.0,0.0
7256,78.0,0.0,120.0,12.0,0.0
7257,78.0,20.0,20.0,5.0,0.0
7258,75.0,20.0,20.0,5.0,0.0
7259,69.0,20.0,20.0,5.0,0.0
7260,66.0,20.0,20.0,5.0,0.0
7261,81.0,20.0,20.0,5.0,0.0
7262,78.0,0.0,20.0,5.0,0.0
7263,71.0,0.0,120.0,14.0,0.0
7264,80.0,20.0,120.0,12.0,0.0
7265,80.0,20.0,20.0,5.0,0.0
7266,76.0,0.0,120.0,13.0,0.0
7267,76.0,20.0,20.0,5.0,0.0
7268,71.0,20.0,20.0,5.0,0.0
7269,68.0,20.0,20.0,5.0,0.0
7270,83.0,20.0,20.0,5.0,0.0
7271,80.0,0.0,20.0,5.0,0.0
7272,81.0,0.0,120.0,12.0,0.0
7273,66.0,0.0,120.0,14.0,0.0
7274,75.0,0.0,120.0,13.0,0.0
7275,81.0,20.0,20.0,5.0,0.0
7276,78.0,20.0,20.0,5.0,0.0
7277,75.0,10.0,20.0,5.0,0.0
7278,87.0,0.0,20.0,5.0,0.0
7279,87.0,10.0,15.0,3.0,0.0
7280,88.0,10.0,15.0,3.0,0.0
7281,81.0,5.0,20.0,5.0,0.0
7282,87.0,10.0,15.0,3.0,0.0
7283,85.0,15.0,15.0,3.0,0.0
7284,78.0,20.0,20.0,5.0,0.0
7285,87.0,0.0,15.0,3.0,0.0
7286,80.0,0.0,60.0,12.0,0.0
7287,59.0,0.0,780.0,0.0,0.0
7288,71.0,0.0,780.0,0.0,0.0
7289,80.0,0.0,120.0,5.0,0.0
7290,76.0,0.0,60.0,1.0,0.0
7291,68.0,0.0,60.0,1.0,0.0
7292,88.0,0.0,60.0,3.0,0.0
7293,76.0,0.0,120.0,6.0,0.0
7294,76.0,0.0,60.0,13.0,0.0
7295,80.0,20.0,120.0,6.0,0.0
7296,40.0,20.0,20.0,5.0,0.0
7297,64.0,0.0,60.0,14.0,0.0
7298,52.0,19.0,60.0,4.0,0.0
7299,88.0,0.0,60.0,5.0,0.0
7300,44.0,20.0,20.0,5.0,0.0
7301,47.0,1.0,20.0,5.0,0.0
7302,83.0,1.0,120.0,5.0,0.0
7303,83.0,0.0,120.0,3.0,0.0
7304,52.0,20.0,20.0,5.0,0.0
7305,56.0,20.0,20.0,5.0,0.0
7306,59.0,0.0,20.0,5.0,0.0
7307,81.0,0.0,120.0,5.0,0.0
7308,78.0,0.0,120.0,5.0,0.0
7309,47.0,0.0,60.0,4.0,0.0
7310,78.0,0.0,60.0,1.0,0.0
7311,78.0,0.0,120.0,6.0,0.0
7312,71.0,0.0,60.0,7.0,0.0
7313,81.0,0.0,120.0,6.0,0.0
7314,71.0,9.0,60.0,1.0,0.0
7315,78.0,0.0,60.0,7.0,0.0
7316,47.0,20.0,20.0,5.0,0.0
7317,51.0,20.0,20.0,5.0,0.0
7318,54.0,0.0,20.0,5.0,0.0
7319,87.0,0.0,60.0,5.0,0.0
7320,59.0,10.0,20.0,5.0,0.0
7321,87.0,10.0,15.0,3.0,0.0
7322,88.0,0.0,15.0,3.0,0.0
7323,63.0,5.0,20.0,5.0,0.0
7324,87.0,10.0,15.0,3.0,0.0
7325,87.0,15.0,15.0,3.0,0.0
7326,66.0,0.0,20.0,5.0,0.0
7327,87.0,20.0,15.0,3.0,0.0
7328,80.0,0.0,120.0,6.0,0.0
7329,52.0,19.0,60.0,4.0,0.0
7330,76.0,0.0,120.0,6.0,0.0
7331,80.0,0.0,120.0,5.0,0.0
7332,68.0,0.0,60.0,7.0,0.0
7333,88.0,0.0,60.0,3.0,0.0
7334,88.0,1.0,60.0,5.0,0.0
7335,68.0,0.0,60.0,1.0,0.0
7336,76.0,0.0,60.0,1.0,0.0
7337,40.0,20.0,20.0,5.0,0.0
7338,76.0,0.0,60.0,7.0,0.0
7339,44.0,20.0,20.0,5.0,0.0
7340,47.0,0.0,20.0,5.0,0.0
7341,83.0,0.0,120.0,3.0,0.0
7342,83.0,1.0,120.0,5.0,0.0
7343,52.0,20.0,20.0,5.0,0.0
7344,56.0,20.0,20.0,5.0,0.0
7345,59.0,20.0,20.0,5.0,0.0
7346,78.0,0.0,60.0,1.0,0.0
7347,81.0,0.0,120.0,5.0,0.0
7348,81.0,0.0,120.0,6.0,0.0
7349,78.0,0.0,120.0,6.0,0.0
7350,47.0,20.0,20.0,5.0,0.0
7351,78.0,0.0,120.0,5.0,0.0
7352,71.0,0.0,60.0,1.0,0.0
7353,47.0,0.0,60.0,4.0,0.0
7354,71.0,0.0,60.0,7.0,0.0
7355,78.0,9.0,60.0,7.0,0.0
7356,51.0,20.0,20.0,5.0,0.0
7357,54.0,0.0,20.0,5.0,0.0
7358,87.0,20.0,60.0,5.0,0.0
7359,87.0,10.0,15.0,3.0,0.0
7360,59.0,10.0,20.0,5.0,0.0
7361,88.0,0.0,15.0,3.0,0.0
7362,87.0,10.0,15.0,3.0,0.0
7363,63.0,5.0,20.0,5.0,0.0
7364,85.0,15.0,15.0,3.0,0.0
7365,66.0,0.0,20.0,5.0,0.0
7366,87.0,0.0,15.0,3.0,0.0
7367,88.0,0.0,60.0,3.0,0.0
7368,80.0,20.0,120.0,5.0,0.0
7369,76.0,0.0,120.0,6.0,0.0
7370,68.0,0.0,60.0,1.0,0.0
7371,76.0,19.0,60.0,1.0,0.0
7372,52.0,20.0,20.0,5.0,0.0
7373,88.0,1.0,60.0,5.0,0.0
7374,80.0,0.0,120.0,6.0,0.0
7375,76.0,0.0,60.0,7.0,0.0
7376,68.0,0.0,60.0,7.0,0.0
7377,52.0,0.0,60.0,4.0,0.0
7378,56.0,20.0,20.0,5.0,0.0
7379,59.0,0.0,20.0,5.0,0.0
7380,83.0,1.0,120.0,5.0,0.0
7381,64.0,20.0,20.0,5.0,0.0
7382,83.0,0.0,120.0,3.0,0.0
7383,68.0,20.0,20.0,5.0,0.0
7384,71.0,0.0,20.0,5.0,0.0
7385,81.0,0.0,120.0,5.0,0.0
7386,47.0,0.0,60.0,4.0,0.0
7387,78.0,0.0,60.0,1.0,0.0
7388,71.0,0.0,60.0,7.0,0.0
7389,71.0,9.0,60.0,1.0,0.0
7390,59.0,20.0,20.0,5.0,0.0
7391,78.0,0.0,60.0,7.0,0.0
7392,78.0,0.0,120.0,6.0,0.0
7393,81.0,0.0,120.0,6.0,0.0
7394,63.0,20.0,20.0,5.0,0.0
7395,66.0,0.0,20.0,5.0,0.0
7396,71.0,10.0,20.0,5.0,0.0
7397,87.0,0.0,60.0,5.0,0.0
7398,87.0,10.0,15.0,3.0,0.0
7399,88.0,0.0,15.0,3.0,0.0
7400,87.0,10.0,15.0,3.0,0.0
7401,75.0,5.0,20.0,5.0,0.0
7402,85.0,15.0,15.0,3.0,0.0
7403,78.0,0.0,20.0,5.0,0.0
7404,87.0,20.0,15.0,3.0,0.0
7405,80.0,0.0,60.0,6.0,0.0
7406,64.0,11.0,20.0,5.0,0.0
7407,80.0,9.0,30.0,12.0,0.0
7408,68.0,0.0,30.0,14.0,0.0
7409,64.0,0.0,30.0,14.0,0.0
7410,76.0,0.0,60.0,6.0,0.0
7411,76.0,0.0,60.0,7.0,0.0
7412,88.0,1.0,60.0,3.0,0.0
7413,80.0,0.0,60.0,7.0,0.0
7414,80.0,19.0,60.0,1.0,0.0
7415,52.0,0.0,60.0,4.0,0.0
7416,80.0,0.0,20.0,5.0,0.0
7417,76.0,0.0,30.0,13.0,0.0
7418,76.0,0.0,60.0,1.0,0.0
7419,91.0,20.0,20.0,5.0,0.0
7420,75.0,0.0,20.0,5.0,0.0
7421,92.0,0.0,20.0,5.0,0.0
7422,76.0,0.0,20.0,5.0,0.0
7423,78.0,0.0,30.0,12.0,0.0
7424,66.0,0.0,30.0,14.0,0.0
7425,78.0,11.0,20.0,5.0,0.0
7426,75.0,0.0,30.0,13.0,0.0
7427,63.0,0.0,20.0,5.0,0.0
7428,63.0,9.0,30.0,14.0,0.0
7429,89.0,20.0,20.0,5.0,0.0
7430,74.0,0.0,20.0,5.0,0.0
7431,75.0,20.0,20.0,5.0,0.0
7432,90.0,0.0,20.0,5.0,0.0
7433,73.0,0.0,30.0,13.0,0.0
7434,61.0,11.0,20.0,5.0,0.0
7435,76.0,0.0,30.0,12.0,0.0
7436,64.0,9.0,30.0,14.0,0.0
7437,61.0,0.0,30.0,14.0,0.0
7438,76.0,0.0,20.0,5.0,0.0
7439,72.0,20.0,20.0,5.0,0.0
7440,87.0,0.0,20.0,5.0,0.0
7441,73.0,0.0,20.0,5.0,0.0
7442,88.0,20.0,20.0,5.0,0.0
7443,75.0,0.0,30.0,12.0,0.0
7444,59.0,0.0,20.0,5.0,0.0
7445,63.0,0.0,30.0,14.0,0.0
7446,75.0,11.0,20.0,5.0,0.0
7447,71.0,9.0,30.0,13.0,0.0
7448,59.0,0.0,30.0,14.0,0.0
7449,70.0,20.0,20.0,5.0,0.0
7450,86.0,0.0,20.0,5.0,0.0
7451,87.0,0.0,20.0,5.0,0.0
7452,71.0,20.0,20.0,5.0,0.0
7453,57.0,0.0,30.0,14.0,0.0
7454,61.0,0.0,30.0,14.0,0.0
7455,73.0,9.0,30.0,12.0,0.0
7456,57.0,0.0,20.0,5.0,0.0
7457,73.0,11.0,20.0,5.0,0.0
7458,69.0,0.0,30.0,13.0,0.0
7459,68.0,20.0,20.0,5.0,0.0
7460,84.0,0.0,20.0,5.0,0.0
7461,85.0,0.0,20.0,5.0,0.0
7462,69.0,20.0,20.0,5.0,0.0
7463,56.0,11.0,20.0,5.0,0.0
7464,59.0,0.0,30.0,14.0,0.0
7465,56.0,0.0,30.0,14.0,0.0
7466,68.0,9.0,30.0,13.0,0.0
7467,71.0,0.0,30.0,12.0,0.0
7468,71.0,0.0,20.0,5.0,0.0
7469,67.0,0.0,20.0,5.0,0.0
7470,82.0,20.0,20.0,5.0,0.0
7471,68.0,20.0,20.0,5.0,0.0
7472,83.0,0.0,20.0,5.0,0.0
7473,54.0,0.0,20.0,5.0,0.0
7474,54.0,0.0,30.0,14.0,0.0
7475,69.0,0.0,30.0,12.0,0.0
7476,69.0,11.0,20.0,5.0,0.0
7477,57.0,9.0,30.0,14.0,0.0
7478,66.0,0.0,30.0,13.0,0.0
7479,80.0,0.0,20.0,5.0,0.0
7480,65.0,20.0,20.0,5.0,0.0
7481,81.0,20.0,20.0,5.0,0.0
7482,66.0,0.0,20.0,5.0,0.0
7483,68.0,0.0,30.0,12.0,0.0
7484,52.0,11.0,20.0,5.0,0.0
7485,68.0,0.0,20.0,5.0,0.0
7486,64.0,0.0,30.0,13.0,0.0
7487,52.0,0.0,30.0,14.0,0.0
7488,56.0,9.0,30.0,14.0,0.0
7489,79.0,20.0,20.0,5.0,0.0
7490,63.0,0.0,20.0,5.0,0.0
7491,80.0,60.0,20.0,5.0,0.0
7492,64.0,0.0,20.0,5.0,0.0
7493,57.0,15.0,60.0,14.0,0.0
7494,66.0,0.0,60.0,13.0,0.0
7495,54.0,0.0,60.0,14.0,0.0
7496,69.0,0.0,60.0,12.0,0.0
7497,69.0,0.0,60.0,5.0,0.0
7498,81.0,0.0,60.0,5.0,0.0
7499,66.0,0.0,60.0,5.0,0.0
7500,54.0,0.0,60.0,5.0,0.0
7501,56.0,15.0,15.0,5.0,0.0
7502,71.0,0.0,15.0,5.0,0.0
7503,68.0,0.0,15.0,5.0,0.0
7504,83.0,15.0,15.0,5.0,0.0
7505,73.0,0.0,15.0,5.0,0.0
7506,57.0,15.0,15.0,5.0,0.0
7507,85.0,0.0,15.0,5.0,0.0
7508,69.0,15.0,15.0,5.0,0.0
7509,75.0,0.0,15.0,5.0,0.0
7510,59.0,15.0,15.0,5.0,0.0
7511,87.0,15.0,15.0,5.0,0.0
7512,71.0,0.0,15.0,5.0,0.0
7513,61.0,0.0,15.0,5.0,0.0
7514,76.0,15.0,15.0,5.0,0.0
7515,88.0,0.0,15.0,5.0,0.0
7516,73.0,15.0,15.0,5.0,0.0
7517,78.0,15.0,15.0,5.0,0.0
7518,63.0,0.0,15.0,5.0,0.0
7519,75.0,15.0,15.0,5.0,0.0
7520,90.0,0.0,15.0,5.0,0.0
7521,80.0,0.0,15.0,5.0,0.0
7522,64.0,15.0,15.0,5.0,0.0
7523,92.0,0.0,15.0,5.0,0.0
7524,76.0,16.0,15.0,5.0,0.0
7525,66.0,0.0,60.0,5.0,0.0
7526,78.0,0.0,60.0,5.0,0.0
7527,66.0,30.0,15.0,0.0,0.0
7528,81.0,16.0,60.0,5.0,0.0
7529,93.0,0.0,15.0,3.0,0.0
7530,93.0,0.0,60.0,5.0,0.0
7531,92.0,0.0,15.0,3.0,0.0
7532,64.0,14.0,15.0,0.0,0.0
7533,90.0,0.0,15.0,3.0,0.0
7534,63.0,30.0,15.0,0.0,0.0
7535,61.0,0.0,15.0,0.0,0.0
7536,88.0,29.0,15.0,3.0,0.0
7537,69.0,0.0,120.0,12.0,0.0
7538,63.0,0.0,120.0,13.0,0.0
7539,88.0,1.0,15.0,5.0,0.0
7540,59.0,14.0,15.0,0.0,0.0
7541,87.0,0.0,15.0,3.0,0.0
7542,59.0,0.0,120.0,15.0,0.0
7543,66.0,0.0,120.0,14.0,0.0
7544,66.0,0.0,120.0,5.0,0.0
7545,59.0,0.0,120.0,5.0,0.0
7546,69.0,0.0,120.0,5.0,0.0
7547,87.0,15.0,15.0,5.0,0.0
7548,57.0,0.0,15.0,0.0,0.0
7549,88.0,1.0,15.0,5.0,0.0
7550,85.0,14.0,15.0,3.0,0.0
7551,87.0,15.0,15.0,5.0,0.0
7552,83.0,14.0,15.0,3.0,0.0
7553,64.0,59.0,60.0,14.0,0.0
7554,88.0,1.0,15.0,5.0,0.0
7555,56.0,0.0,15.0,0.0,0.0
7556,87.0,15.0,15.0,5.0,0.0
7557,54.0,14.0,15.0,0.0,0.0
7558,85.0,1.0,15.0,5.0,0.0
7559,81.0,0.0,15.0,3.0,0.0
7560,87.0,1.0,15.0,5.0,0.0
7561,61.0,0.0,60.0,15.0,0.0
7562,80.0,0.0,60.0,3.0,0.0
7563,88.0,0.0,60.0,5.0,0.0
7564,68.0,0.0,60.0,5.0,0.0
7565,52.0,0.0,60.0,0.0,0.0
7566,61.0,0.0,60.0,5.0,0.0
7567,64.0,0.0,60.0,13.0,0.0
7568,64.0,0.0,60.0,5.0,0.0
7569,68.0,150.0,60.0,12.0,0.0
7570,57.0,0.0,120.0,15.0,0.0
7571,64.0,0.0,120.0,5.0,0.0
7572,61.0,29.0,120.0,14.0,0.0
7573,69.0,0.0,120.0,13.0,0.0
7574,69.0,0.0,120.0,12.0,0.0
7575,57.0,0.0,120.0,5.0,0.0
7576,85.0,15.0,90.0,5.0,0.0
7577,66.0,1.0,120.0,5.0,0.0
7578,87.0,15.0,15.0,5.0,0.0
7579,88.0,0.0,15.0,5.0,0.0
7580,59.0,29.0,120.0,14.0,0.0
7581,88.0,30.0,30.0,5.0,0.0
7582,68.0,1.0,120.0,13.0,0.0
7583,68.0,0.0,120.0,12.0,0.0
7584,59.0,0.0,120.0,15.0,0.0
7585,64.0,60.0,60.0,5.0,0.0
7586,68.0,0.0,60.0,5.0,0.0
7587,59.0,0.0,60.0,5.0,0.0
7588,80.0,0.0,30.0,5.0,0.0
7589,83.0,30.0,30.0,5.0,0.0
7590,57.0,19.0,120.0,14.0,0.0
7591,66.0,0.0,60.0,5.0,0.0
7592,66.0,0.0,120.0,13.0,0.0
7593,47.0,0.0,120.0,15.0,0.0
7594,66.0,1.0,120.0,12.0,0.0
7595,59.0,0.0,60.0,5.0,0.0
7596,69.0,60.0,60.0,5.0,0.0
7597,75.0,0.0,30.0,5.0,0.0
7598,64.0,20.0,120.0,12.0,0.0
7599,64.0,0.0,120.0,13.0,0.0
7600,76.0,0.0,1020.0,7.0,0.0
7601,52.0,0.0,1020.0,15.0,0.0
7602,40.0,0.0,480.0,5.0,0.0
7603,64.0,20.0,20.0,5.0,0.0
7604,56.0,0.0,120.0,14.0,0.0
7605,64.0,0.0,1020.0,7.0,0.0
7606,59.0,20.0,20.0,5.0,0.0
7607,56.0,20.0,20.0,5.0,0.0
7608,52.0,20.0,20.0,5.0,0.0
7609,68.0,20.0,20.0,5.0,0.0
7610,64.0,0.0,20.0,5.0,0.0
7611,66.0,0.0,120.0,12.0,0.0
7612,57.0,0.0,120.0,14.0,0.0
7613,63.0,20.0,120.0,13.0,0.0
7614,54.0,0.0,120.0,13.0,0.0
7615,66.0,20.0,20.0,5.0,0.0
7616,63.0,20.0,20.0,5.0,0.0
7617,57.0,20.0,20.0,5.0,0.0
7618,54.0,20.0,20.0,5.0,0.0
7619,69.0,20.0,20.0,5.0,0.0
7620,66.0,0.0,20.0,5.0,0.0
7621,68.0,0.0,120.0,12.0,0.0
7622,64.0,0.0,120.0,13.0,0.0
7623,59.0,0.0,120.0,14.0,0.0
7624,68.0,20.0,20.0,5.0,0.0
7625,64.0,20.0,20.0,5.0,0.0
7626,59.0,20.0,20.0,5.0,0.0
7627,56.0,20.0,20.0,5.0,0.0
7628,71.0,20.0,20.0,5.0,0.0
7629,68.0,20.0,20.0,5.0,0.0
7630,54.0,20.0,120.0,14.0,0.0
7631,69.0,0.0,120.0,12.0,0.0
7632,63.0,0.0,120.0,13.0,0.0
7633,69.0,20.0,20.0,5.0,0.0
7634,66.0,20.0,20.0,5.0,0.0
7635,63.0,20.0,20.0,5.0,0.0
7636,75.0,20.0,20.0,5.0,0.0
7637,69.0,20.0,20.0,5.0,0.0
7638,66.0,0.0,20.0,5.0,0.0
7639,64.0,10.0,30.0,13.0,0.0
7640,52.0,0.0,60.0,14.0,0.0
7641,68.0,20.0,60.0,12.0,0.0
7642,52.0,0.0,480.0,5.0,0.0
7643,76.0,10.0,20.0,5.0,0.0
7644,71.0,20.0,20.0,5.0,0.0
7645,68.0,0.0,20.0,5.0,0.0
7646,76.0,0.0,60.0,13.0,0.0
7647,64.0,10.0,20.0,5.0,0.0
7648,68.0,0.0,30.0,14.0,0.0
7649,76.0,10.0,30.0,12.0,0.0
7650,80.0,20.0,20.0,5.0,0.0
7651,76.0,20.0,20.0,5.0,0.0
7652,75.0,0.0,120.0,13.0,0.0
7653,78.0,20.0,20.0,5.0,0.0
7654,78.0,0.0,120.0,12.0,0.0
7655,69.0,20.0,120.0,14.0,0.0
7656,75.0,20.0,20.0,5.0,0.0
7657,69.0,20.0,20.0,5.0,0.0
7658,66.0,20.0,20.0,5.0,0.0
7659,81.0,20.0,20.0,5.0,0.0
7660,78.0,0.0,20.0,5.0,0.0
7661,76.0,20.0,120.0,13.0,0.0
7662,80.0,20.0,20.0,5.0,0.0
7663,80.0,0.0,120.0,12.0,0.0
7664,71.0,0.0,120.0,14.0,0.0
7665,76.0,20.0,20.0,5.0,0.0
7666,71.0,20.0,20.0,5.0,0.0
7667,68.0,20.0,20.0,5.0,0.0
7668,83.0,20.0,20.0,5.0,0.0
7669,80.0,0.0,20.0,5.0,0.0
7670,81.0,20.0,20.0,5.0,0.0
7671,66.0,0.0,120.0,14.0,0.0
7672,75.0,20.0,120.0,13.0,0.0
7673,81.0,0.0,120.0,12.0,0.0
7674,78.0,20.0,20.0,5.0,0.0
7675,75.0,10.0,20.0,5.0,0.0
7676,87.0,10.0,15.0,3.0,0.0
7677,87.0,10.0,20.0,5.0,0.0
7678,88.0,0.0,15.0,3.0,0.0
7679,87.0,10.0,15.0,3.0,0.0
7680,81.0,5.0,20.0,5.0,0.0
7681,85.0,15.0,15.0,3.0,0.0
7682,78.0,0.0,20.0,5.0,0.0
7683,87.0,0.0,15.0,3.0,0.0
7684,88.0,0.0,60.0,5.0,0.0
7685,64.0,1.0,60.0,14.0,0.0
7686,52.0,19.0,60.0,4.0,0.0
7687,71.0,0.0,780.0,0.0,0.0
7688,40.0,20.0,20.0,5.0,0.0
7689,68.0,0.0,60.0,1.0,0.0
7690,76.0,20.0,120.0,6.0,0.0
7691,80.0,0.0,120.0,5.0,0.0
7692,88.0,0.0,60.0,3.0,0.0
7693,76.0,0.0,60.0,13.0,0.0
7694,80.0,0.0,60.0,12.0,0.0
7695,80.0,0.0,120.0,6.0,0.0
7696,76.0,0.0,60.0,1.0,0.0
7697,59.0,1.0,780.0,0.0,0.0
7698,44.0,20.0,20.0,5.0,0.0
7699,47.0,0.0,20.0,5.0,0.0
7700,83.0,0.0,120.0,3.0,0.0
7701,52.0,20.0,20.0,5.0,0.0
7702,83.0,1.0,120.0,5.0,0.0
7703,56.0,20.0,20.0,5.0,0.0
7704,59.0,0.0,20.0,5.0,0.0
7705,81.0,0.0,120.0,5.0,0.0
7706,47.0,20.0,20.0,5.0,0.0
7707,71.0,0.0,60.0,1.0,0.0
7708,78.0,0.0,60.0,7.0,0.0
7709,78.0,0.0,120.0,6.0,0.0
7710,81.0,0.0,120.0,6.0,0.0
7711,78.0,0.0,120.0,5.0,0.0
7712,47.0,0.0,60.0,4.0,0.0
7713,71.0,0.0,60.0,7.0,0.0
7714,78.0,9.0,60.0,1.0,0.0
7715,51.0,20.0,20.0,5.0,0.0
7716,54.0,0.0,20.0,5.0,0.0
7717,87.0,10.0,15.0,3.0,0.0
7718,87.0,20.0,60.0,5.0,0.0
7719,59.0,0.0,20.0,5.0,0.0
7720,88.0,10.0,15.0,3.0,0.0
7721,63.0,5.0,20.0,5.0,0.0
7722,87.0,10.0,15.0,3.0,0.0
7723,87.0,15.0,15.0,3.0,0.0
7724,66.0,0.0,20.0,5.0,0.0
7725,87.0,0.0,15.0,3.0,0.0
7726,80.0,20.0,120.0,5.0,0.0
7727,52.0,0.0,60.0,4.0,0.0
7728,80.0,0.0,120.0,6.0,0.0
7729,76.0,0.0,120.0,6.0,0.0
7730,68.0,19.0,60.0,7.0,0.0
7731,68.0,0.0,60.0,1.0,0.0
7732,76.0,0.0,60.0,1.0,0.0
7733,88.0,1.0,60.0,3.0,0.0
7734,76.0,0.0,60.0,7.0,0.0
7735,88.0,0.0,60.0,5.0,0.0
7736,40.0,20.0,20.0,5.0,0.0
7737,44.0,20.0,20.0,5.0,0.0
7738,47.0,0.0,20.0,5.0,0.0
7739,83.0,1.0,120.0,5.0,0.0
7740,52.0,20.0,20.0,5.0,0.0
7741,83.0,0.0,120.0,3.0,0.0
7742,56.0,20.0,20.0,5.0,0.0
7743,59.0,0.0,20.0,5.0,0.0
7744,78.0,0.0,60.0,7.0,0.0
7745,71.0,0.0,60.0,7.0,0.0
7746,81.0,0.0,120.0,6.0,0.0
7747,78.0,0.0,60.0,1.0,0.0
7748,47.0,9.0,60.0,4.0,0.0
7749,47.0,20.0,20.0,5.0,0.0
7750,78.0,0.0,120.0,5.0,0.0
7751,78.0,20.0,120.0,6.0,0.0
7752,71.0,0.0,60.0,1.0,0.0
7753,81.0,0.0,120.0,5.0,0.0
7754,51.0,20.0,20.0,5.0,0.0
7755,54.0,0.0,20.0,5.0,0.0
7756,59.0,10.0,20.0,5.0,0.0
7757,87.0,10.0,15.0,3.0,0.0
7758,87.0,0.0,60.0,5.0,0.0
7759,88.0,0.0,15.0,3.0,0.0
7760,87.0,10.0,15.0,3.0,0.0
7761,63.0,5.0,20.0,5.0,0.0
7762,85.0,15.0,15.0,3.0,0.0
7763,66.0,0.0,20.0,5.0,0.0
7764,87.0,0.0,15.0,3.0,0.0
7765,88.0,0.0,60.0,5.0,0.0
7766,80.0,20.0,120.0,6.0,0.0
7767,76.0,0.0,120.0,6.0,0.0
7768,52.0,20.0,20.0,5.0,0.0
7769,52.0,0.0,60.0,4.0,0.0
7770,68.0,0.0,60.0,1.0,0.0
7771,76.0,19.0,60.0,1.0,0.0
7772,76.0,0.0,60.0,7.0,0.0
7773,68.0,0.0,60.0,7.0,0.0
7774,88.0,0.0,60.0,3.0,0.0
7775,80.0,0.0,120.0,5.0,0.0
7776,56.0,20.0,20.0,5.0,0.0
7777,59.0,1.0,20.0,5.0,0.0
7778,83.0,0.0,120.0,5.0,0.0
7779,83.0,0.0,120.0,3.0,0.0
7780,64.0,20.0,20.0,5.0,0.0
7781,68.0,20.0,20.0,5.0,0.0
7782,71.0,0.0,20.0,5.0,0.0
7783,71.0,0.0,60.0,7.0,0.0
7784,78.0,0.0,120.0,6.0,0.0
7785,78.0,9.0,60.0,7.0,0.0
7786,81.0,0.0,120.0,5.0,0.0
7787,47.0,0.0,60.0,4.0,0.0
7788,71.0,0.0,60.0,1.0,0.0
7789,78.0,0.0,60.0,1.0,0.0
7790,81.0,0.0,120.0,6.0,0.0
7791,59.0,20.0,20.0,5.0,0.0
7792,63.0,20.0,20.0,5.0,0.0
7793,66.0,1.0,20.0,5.0,0.0
7794,87.0,20.0,60.0,5.0,0.0
7795,87.0,10.0,15.0,3.0,0.0
7796,71.0,10.0,20.0,5.0,0.0
7797,88.0,0.0,15.0,3.0,0.0
7798,87.0,10.0,15.0,3.0,0.0
7799,75.0,5.0,20.0,5.0,0.0
7800,85.0,15.0,15.0,3.0,0.0
7801,78.0,0.0,20.0,5.0,0.0
7802,87.0,0.0,15.0,3.0,0.0
7803,52.0,0.0,60.0,4.0,0.0
7804,68.0,9.0,30.0,14.0,0.0
7805,76.0,0.0,30.0,13.0,0.0
7806,80.0,0.0,20.0,5.0,0.0
7807,80.0,0.0,30.0,12.0,0.0
7808,76.0,0.0,60.0,1.0,0.0
7809,76.0,19.0,60.0,7.0,0.0
7810,80.0,0.0,60.0,6.0,0.0
7811,80.0,0.0,60.0,7.0,0.0
7812,64.0,0.0,30.0,14.0,0.0
7813,76.0,0.0,60.0,6.0,0.0
7814,64.0,11.0,20.0,5.0,0.0
7815,88.0,0.0,60.0,3.0,0.0
7816,80.0,0.0,60.0,1.0,0.0
7817,91.0,20.0,20.0,5.0,0.0
7818,75.0,0.0,20.0,5.0,0.0
7819,76.0,0.0,20.0,5.0,0.0
7820,92.0,0.0,20.0,5.0,0.0
7821,75.0,0.0,30.0,13.0,0.0
7822,78.0,11.0,20.0,5.0,0.0
7823,78.0,9.0,30.0,12.0,0.0
7824,66.0,0.0,30.0,14.0,0.0
7825,63.0,0.0,30.0,14.0,0.0
7826,63.0,0.0,20.0,5.0,0.0
7827,89.0,20.0,20.0,5.0,0.0
7828,74.0,0.0,20.0,5.0,0.0
7829,90.0,20.0,20.0,5.0,0.0
7830,75.0,0.0,20.0,5.0,0.0
7831,76.0,0.0,20.0,5.0,0.0
7832,64.0,0.0,30.0,14.0,0.0
7833,61.0,0.0,30.0,14.0,0.0
7834,61.0,11.0,20.0,5.0,0.0
7835,73.0,0.0,30.0,13.0,0.0
7836,76.0,9.0,30.0,12.0,0.0
7837,87.0,20.0,20.0,5.0,0.0
7838,72.0,0.0,20.0,5.0,0.0
7839,88.0,20.0,20.0,5.0,0.0
7840,73.0,0.0,20.0,5.0,0.0
7841,75.0,9.0,30.0,12.0,0.0
7842,63.0,0.0,30.0,14.0,0.0
7843,59.0,0.0,20.0,5.0,0.0
7844,75.0,11.0,20.0,5.0,0.0
7845,71.0,0.0,30.0,13.0,0.0
7846,59.0,0.0,30.0,14.0,0.0
7847,86.0,0.0,20.0,5.0,0.0
7848,70.0,20.0,20.0,5.0,0.0
7849,87.0,20.0,20.0,5.0,0.0
7850,71.0,0.0,20.0,5.0,0.0
7851,73.0,0.0,20.0,5.0,0.0
7852,73.0,0.0,30.0,12.0,0.0
7853,57.0,11.0,20.0,5.0,0.0
7854,57.0,9.0,30.0,14.0,0.0
7855,69.0,0.0,30.0,13.0,0.0
7856,61.0,0.0,30.0,14.0,0.0
7857,84.0,0.0,20.0,5.0,0.0
7858,68.0,20.0,20.0,5.0,0.0
7859,85.0,20.0,20.0,5.0,0.0
7860,69.0,0.0,20.0,5.0,0.0
7861,56.0,0.0,20.0,5.0,0.0
7862,71.0,0.0,30.0,12.0,0.0
7863,59.0,0.0,30.0,14.0,0.0
7864,56.0,9.0,30.0,14.0,0.0
7865,68.0,0.0,30.0,13.0,0.0
7866,71.0,11.0,20.0,5.0,0.0
7867,82.0,0.0,20.0,5.0,0.0
7868,67.0,20.0,20.0,5.0,0.0
7869,83.0,0.0,20.0,5.0,0.0
7870,68.0,20.0,20.0,5.0,0.0
7871,54.0,11.0,20.0,5.0,0.0
7872,66.0,0.0,30.0,13.0,0.0
7873,69.0,0.0,20.0,5.0,0.0
7874,54.0,9.0,30.0,14.0,0.0
7875,57.0,0.0,30.0,14.0,0.0
7876,69.0,0.0,30.0,12.0,0.0
7877,80.0,0.0,20.0,5.0,0.0
7878,65.0,20.0,20.0,5.0,0.0
7879,81.0,0.0,20.0,5.0,0.0
7880,66.0,20.0,20.0,5.0,0.0
7881,56.0,0.0,30.0,14.0,0.0
7882,68.0,9.0,30.0,12.0,0.0
7883,52.0,0.0,30.0,14.0,0.0
7884,68.0,0.0,20.0,5.0,0.0
7885,64.0,0.0,30.0,13.0,0.0
7886,52.0,11.0,20.0,5.0,0.0
7887,79.0,20.0,20.0,5.0,0.0
7888,63.0,0.0,20.0,5.0,0.0
7889,80.0,60.0,20.0,5.0,0.0
7890,64.0,0.0,20.0,5.0,0.0
7891,66.0,0.0,60.0,13.0,0.0
7892,69.0,0.0,60.0,5.0,0.0
7893,54.0,0.0,60.0,14.0,0.0
7894,57.0,0.0,60.0,14.0,0.0
7895,81.0,15.0,60.0,5.0,0.0
7896,54.0,0.0,60.0,5.0,0.0
7897,66.0,0.0,60.0,5.0,0.0
7898,69.0,0.0,60.0,12.0,0.0
7899,56.0,0.0,15.0,5.0,0.0
7900,71.0,15.0,15.0,5.0,0.0
7901,83.0,0.0,15.0,5.0,0.0
7902,68.0,15.0,15.0,5.0,0.0
7903,73.0,0.0,15.0,5.0,0.0
7904,57.0,15.0,15.0,5.0,0.0
7905,85.0,15.0,15.0,5.0,0.0
7906,69.0,0.0,15.0,5.0,0.0
7907,75.0,15.0,15.0,5.0,0.0
7908,59.0,0.0,15.0,5.0,0.0
7909,71.0,15.0,15.0,5.0,0.0
7910,87.0,0.0,15.0,5.0,0.0
7911,76.0,15.0,15.0,5.0,0.0
7912,61.0,0.0,15.0,5.0,0.0
7913,88.0,0.0,15.0,5.0,0.0
7914,73.0,15.0,15.0,5.0,0.0
7915,78.0,0.0,15.0,5.0,0.0
7916,63.0,15.0,15.0,5.0,0.0
7917,90.0,15.0,15.0,5.0,0.0
7918,75.0,0.0,15.0,5.0,0.0
7919,64.0,0.0,15.0,5.0,0.0
7920,80.0,15.0,15.0,5.0,0.0
7921,76.0,0.0,15.0,5.0,0.0
7922,92.0,16.0,15.0,5.0,0.0
7923,93.0,0.0,15.0,3.0,0.0
7924,81.0,16.0,60.0,5.0,0.0
7925,66.0,0.0,60.0,5.0,0.0
7926,93.0,0.0,60.0,5.0,0.0
7927,78.0,0.0,60.0,5.0,0.0
7928,66.0,30.0,15.0,0.0,0.0
7929,92.0,0.0,15.0,3.0,0.0
7930,64.0,14.0,15.0,0.0,0.0
7931,90.0,30.0,15.0,3.0,0.0
7932,63.0,0.0,15.0,0.0,0.0
7933,88.0,29.0,15.0,3.0,0.0
7934,61.0,0.0,15.0,0.0,0.0
7935,66.0,0.0,120.0,14.0,0.0
7936,88.0,1.0,15.0,5.0,0.0
7937,69.0,0.0,120.0,12.0,0.0
7938,87.0,0.0,15.0,3.0,0.0
7939,63.0,0.0,120.0,13.0,0.0
7940,59.0,1.0,120.0,5.0,0.0
7941,59.0,14.0,15.0,0.0,0.0
7942,69.0,0.0,120.0,5.0,0.0
7943,66.0,0.0,120.0,5.0,0.0
7944,59.0,0.0,120.0,15.0,0.0
7945,87.0,15.0,15.0,5.0,0.0
7946,57.0,0.0,15.0,0.0,0.0
7947,88.0,1.0,15.0,5.0,0.0
7948,85.0,14.0,15.0,3.0,0.0
7949,87.0,15.0,15.0,5.0,0.0
7950,88.0,1.0,15.0,5.0,0.0
7951,64.0,59.0,60.0,14.0,0.0
7952,83.0,14.0,15.0,3.0,0.0
7953,56.0,0.0,15.0,0.0,0.0
7954,87.0,15.0,15.0,5.0,0.0
7955,85.0,1.0,15.0,5.0,0.0
7956,81.0,0.0,15.0,3.0,0.0
7957,54.0,14.0,15.0,0.0,0.0
7958,87.0,0.0,15.0,5.0,0.0
7959,61.0,0.0,60.0,5.0,0.0
7960,52.0,0.0,60.0,0.0,0.0
7961,64.0,0.0,60.0,13.0,0.0
7962,64.0,0.0,60.0,5.0,0.0
7963,88.0,150.0,60.0,5.0,0.0
7964,80.0,0.0,60.0,3.0,0.0
7965,61.0,0.0,60.0,15.0,0.0
7966,68.0,0.0,60.0,12.0,0.0
7967,68.0,0.0,60.0,5.0,0.0
7968,66.0,0.0,120.0,13.0,0.0
7969,61.0,60.0,120.0,14.0,0.0
7970,85.0,15.0,90.0,5.0,0.0
7971,57.0,0.0,120.0,15.0,0.0
7972,64.0,0.0,120.0,5.0,0.0
7973,57.0,1.0,120.0,5.0,0.0
7974,69.0,0.0,120.0,12.0,0.0
7975,66.0,0.0,120.0,5.0,0.0
7976,87.0,15.0,15.0,5.0,0.0
7977,88.0,0.0,15.0,5.0,0.0
7978,59.0,0.0,120.0,5.0,0.0
7979,68.0,0.0,120.0,5.0,0.0
7980,64.0,0.0,120.0,13.0,0.0
7981,88.0,29.0,60.0,5.0,0.0
7982,68.0,0.0,120.0,12.0,0.0
7983,59.0,0.0,120.0,15.0,0.0
7984,59.0,0.0,360.0,14.0,0.0
7985,64.0,60.0,120.0,5.0,0.0
7986,80.0,30.0,30.0,5.0,0.0
7987,63.0,0.0,120.0,13.0,0.0
7988,66.0,0.0,120.0,12.0,0.0
7989,57.0,60.0,120.0,15.0,0.0
7990,83.0,30.0,60.0,5.0,0.0
7991,66.0,0.0,120.0,5.0,0.0
7992,57.0,0.0,120.0,5.0,0.0
7993,59.0,0.0,120.0,5.0,0.0
7994,75.0,30.0,30.0,5.0,0.0
7995,64.0,1.0,120.0,13.0,0.0
7996,83.0,1.0,60.0,5.0,0.0
7997,71.0,0.0,120.0,12.0,0.0
7998,56.0,0.0,120.0,15.0,0.0
7999,56.0,30.0,60.0,5.0,0.0
8000,64.0,29.0,60.0,5.0,0.0
8001,59.0,29.0,60.0,5.0,0.0
8002,88.0,0.0,30.0,5.0,0.0
8003,64.0,29.0,60.0,5.0,0.0
8004,69.0,0.0,120.0,12.0,0.0
8005,61.0,0.0,120.0,14.0,0.0
8006,57.0,30.0,60.0,5.0,0.0
8007,87.0,1.0,30.0,5.0,0.0
8008,57.0,1.0,120.0,15.0,0.0
8009,66.0,0.0,120.0,13.0,0.0
8010,85.0,1.0,30.0,5.0,0.0
8011,64.0,29.0,60.0,5.0,0.0
8012,88.0,0.0,30.0,5.0,0.0
8013,66.0,29.0,15.0,5.0,0.0
8014,85.0,1.0,30.0,5.0,0.0
8015,59.0,1.0,180.0,14.0,0.0
8016,64.0,0.0,120.0,13.0,0.0
8017,59.0,30.0,60.0,5.0,0.0
8018,68.0,0.0,120.0,12.0,0.0
8019,59.0,0.0,240.0,15.0,0.0
8020,83.0,1.0,30.0,5.0,0.0
8021,64.0,29.0,60.0,5.0,0.0
8022,68.0,29.0,15.0,5.0,0.0
8023,88.0,1.0,30.0,5.0,0.0
8024,80.0,1.0,30.0,5.0,0.0
8025,59.0,30.0,60.0,5.0,0.0
8026,69.0,0.0,60.0,12.0,0.0
8027,63.0,0.0,60.0,13.0,0.0
8028,78.0,0.0,30.0,5.0,0.0
8029,63.0,29.0,60.0,5.0,0.0
8030,75.0,0.0,60.0,12.0,0.0
8031,69.0,0.0,60.0,13.0,0.0
8032,66.0,1.0,60.0,14.0,0.0
8033,83.0,0.0,30.0,5.0,0.0
8034,69.0,29.0,15.0,5.0,0.0
8035,64.0,0.0,120.0,14.0,0.0
8036,68.0,1.0,120.0,13.0,0.0
8037,76.0,1.0,360.0,12.0,0.0
8038,61.0,0.0,120.0,15.0,0.0
8039,81.0,1.0,30.0,5.0,0.0
8040,61.0,30.0,60.0,5.0,0.0
8041,80.0,1.0,30.0,5.0,0.0
8042,68.0,14.0,60.0,5.0,0.0
8043,64.0,29.0,60.0,5.0,0.0
8044,90.0,15.0,30.0,5.0,0.0
8045,68.0,29.0,60.0,5.0,0.0
8046,88.0,0.0,15.0,5.0,0.0
8047,57.0,30.0,60.0,5.0,0.0
8048,87.0,1.0,30.0,5.0,0.0
8049,73.0,0.0,120.0,13.0,0.0
8050,57.0,1.0,120.0,15.0,0.0
8051,66.0,0.0,120.0,14.0,0.0
8052,85.0,1.0,30.0,5.0,0.0
8053,66.0,14.0,60.0,5.0,0.0
8054,90.0,15.0,30.0,5.0,0.0
8055,64.0,29.0,60.0,5.0,0.0
8056,66.0,29.0,60.0,5.0,0.0
8057,88.0,0.0,15.0,5.0,0.0
8058,68.0,0.0,120.0,14.0,0.0
8059,71.0,0.0,120.0,13.0,0.0
8060,85.0,1.0,30.0,5.0,0.0
8061,59.0,0.0,240.0,15.0,0.0
8062,59.0,30.0,60.0,5.0,0.0
8063,83.0,1.0,30.0,5.0,0.0
8064,64.0,15.0,60.0,5.0,0.0
8065,93.0,15.0,30.0,5.0,0.0
8066,68.0,14.0,15.0,5.0,0.0
8067,92.0,0.0,15.0,5.0,0.0
8068,78.0,15.0,15.0,5.0,0.0
8069,69.0,1.0,120.0,13.0,0.0
8070,59.0,14.0,60.0,5.0,0.0
8071,75.0,0.0,120.0,12.0,0.0
8072,66.0,0.0,120.0,14.0,0.0
8073,69.0,14.0,60.0,5.0,0.0
8074,81.0,15.0,15.0,5.0,0.0
8075,80.0,1.0,15.0,5.0,0.0
8076,83.0,15.0,15.0,5.0,0.0
8077,63.0,29.0,60.0,5.0,0.0
8078,81.0,1.0,15.0,5.0,0.0
8079,85.0,15.0,15.0,5.0,0.0
8080,69.0,29.0,60.0,5.0,0.0
8081,83.0,0.0,15.0,5.0,0.0
8082,61.0,0.0,60.0,5.0,0.0
8083,64.0,0.0,60.0,5.0,0.0
8084,76.0,0.0,60.0,12.0,0.0
8085,61.0,0.0,60.0,15.0,0.0
8086,81.0,1.0,30.0,5.0,0.0
8087,68.0,0.0,60.0,13.0,0.0
8088,64.0,0.0,60.0,14.0,0.0
8089,80.0,90.0,30.0,5.0,0.0
8090,79.0,0.0,180.0,6.0,0.0
8091,76.0,0.0,240.0,6.0,0.0
8092,58.0,0.0,180.0,5.0,0.0
8093,67.0,0.0,180.0,5.0,0.0
8094,85.0,15.0,90.0,5.0,0.0
8095,64.0,30.0,180.0,5.0,0.0
8096,61.0,0.0,180.0,5.0,0.0
8097,70.0,0.0,180.0,0.0,0.0
8098,85.0,0.0,180.0,3.0,0.0
8099,58.0,0.0,180.0,0.0,0.0
8100,88.0,15.0,15.0,5.0,0.0
8101,87.0,15.0,15.0,5.0,0.0
8102,90.0,15.0,15.0,5.0,0.0
8103,88.0,15.0,15.0,5.0,0.0
8104,87.0,15.0,15.0,5.0,0.0
8105,85.0,0.0,15.0,5.0,0.0
8106,71.0,0.0,60.0,0.0,0.0
8107,64.0,0.0,60.0,5.0,0.0
8108,80.0,0.0,60.0,6.0,0.0
8109,59.0,0.0,60.0,5.0,0.0
8110,83.0,0.0,60.0,3.0,0.0
8111,59.0,14.0,60.0,0.0,0.0
8112,68.0,0.0,60.0,5.0,0.0
8113,83.0,15.0,30.0,5.0,0.0
8114,88.0,15.0,15.0,5.0,0.0
8115,87.0,1.0,15.0,5.0,0.0
8116,90.0,15.0,15.0,5.0,0.0
8117,88.0,15.0,15.0,5.0,0.0
8118,87.0,15.0,15.0,5.0,0.0
8119,85.0,30.0,15.0,5.0,0.0
8120,80.0,14.0,60.0,6.0,0.0
8121,76.0,0.0,60.0,6.0,0.0
8122,59.0,0.0,60.0,5.0,0.0
8123,64.0,0.0,60.0,5.0,0.0
8124,68.0,0.0,60.0,5.0,0.0
8125,83.0,0.0,60.0,3.0,0.0
8126,59.0,0.0,60.0,0.0,0.0
8127,71.0,0.0,60.0,0.0,0.0
8128,83.0,15.0,30.0,5.0,0.0
8129,88.0,15.0,15.0,5.0,0.0
8130,87.0,1.0,15.0,5.0,0.0
8131,90.0,15.0,15.0,5.0,0.0
8132,88.0,15.0,15.0,5.0,0.0
8133,87.0,15.0,15.0,5.0,0.0
8134,85.0,20.0,15.0,5.0,0.0
8135,59.0,19.0,60.0,0.0,0.0
8136,59.0,0.0,1080.0,7.0,0.0
8137,71.0,0.0,1080.0,7.0,0.0
8138,83.0,0.0,60.0,3.0,0.0
8139,71.0,0.0,60.0,0.0,0.0
8140,76.0,0.0,60.0,6.0,0.0
8141,64.0,0.0,60.0,5.0,0.0
8142,68.0,0.0,60.0,5.0,0.0
8143,59.0,0.0,60.0,5.0,0.0
8144,80.0,0.0,60.0,6.0,0.0
8145,83.0,20.0,20.0,5.0,0.0
8146,76.0,20.0,20.0,5.0,0.0
8147,78.0,1.0,20.0,5.0,0.0
8148,80.0,20.0,20.0,5.0,0.0
8149,81.0,20.0,20.0,5.0,0.0
8150,83.0,20.0,20.0,5.0,0.0
8151,85.0,20.0,20.0,5.0,0.0
8152,64.0,20.0,20.0,5.0,0.0
8153,80.0,0.0,20.0,5.0,0.0
8154,81.0,20.0,20.0,5.0,0.0
8155,66.0,0.0,20.0,5.0,0.0
8156,83.0,0.0,20.0,5.0,0.0
8157,68.0,20.0,20.0,5.0,0.0
8158,85.0,0.0,20.0,5.0,0.0
8159,69.0,20.0,20.0,5.0,0.0
8160,71.0,20.0,20.0,5.0,0.0
8161,87.0,0.0,20.0,5.0,0.0
8162,73.0,20.0,20.0,5.0,0.0
8163,88.0,0.0,20.0,5.0,0.0
8164,68.0,0.0,20.0,5.0,0.0
8165,83.0,20.0,20.0,5.0,0.0
8166,85.0,20.0,20.0,5.0,0.0
8167,69.0,0.0,20.0,5.0,0.0
8168,87.0,20.0,20.0,5.0,0.0
8169,71.0,0.0,20.0,5.0,0.0
8170,73.0,20.0,20.0,5.0,0.0
8171,88.0,0.0,20.0,5.0,0.0
8172,90.0,20.0,20.0,5.0,0.0
8173,75.0,0.0,20.0,5.0,0.0
8174,92.0,20.0,20.0,5.0,0.0
8175,76.0,0.0,20.0,5.0,0.0
8176,93.0,20.0,20.0,5.0,0.0
8177,78.0,0.0,20.0,5.0,0.0
8178,90.0,0.0,20.0,5.0,0.0
8179,75.0,20.0,20.0,5.0,0.0
8180,92.0,0.0,20.0,5.0,0.0
8181,76.0,20.0,20.0,5.0,0.0
8182,78.0,20.0,20.0,5.0,0.0
8183,93.0,0.0,20.0,5.0,0.0
8184,75.0,0.0,20.0,5.0,0.0
8185,90.0,20.0,20.0,5.0,0.0
8186,59.0,0.0,60.0,1.0,0.0
8187,71.0,0.0,60.0,1.0,0.0
8188,47.0,19.0,60.0,4.0,0.0
8189,92.0,20.0,20.0,5.0,0.0
8190,76.0,0.0,60.0,5.0,0.0
8191,92.0,20.0,20.0,5.0,0.0
8192,90.0,1.0,20.0,5.0,0.0
8193,88.0,20.0,20.0,5.0,0.0
8194,87.0,20.0,20.0,5.0,0.0
8195,85.0,20.0,20.0,5.0,0.0
8196,83.0,20.0,20.0,5.0,0.0
8197,76.0,20.0,20.0,5.0,0.0
8198,92.0,0.0,20.0,5.0,0.0
8199,90.0,20.0,20.0,5.0,0.0
8200,75.0,0.0,20.0,5.0,0.0
8201,73.0,20.0,20.0,5.0,0.0
8202,88.0,0.0,20.0,5.0,0.0
8203,87.0,20.0,20.0,5.0,0.0
8204,71.0,0.0,20.0,5.0,0.0
8205,69.0,20.0,20.0,5.0,0.0
8206,85.0,0.0,20.0,5.0,0.0
8207,68.0,20.0,20.0,5.0,0.0
8208,71.0,0.0,60.0,1.0,0.0
8209,47.0,19.0,60.0,4.0,0.0
8210,83.0,0.0,20.0,5.0,0.0
8211,59.0,0.0,60.0,1.0,0.0
8212,92.0,20.0,20.0,5.0,0.0
8213,76.0,0.0,20.0,5.0,0.0
8214,75.0,0.0,20.0,5.0,0.0
8215,90.0,1.0,20.0,5.0,0.0
8216,73.0,20.0,20.0,5.0,0.0
8217,88.0,0.0,20.0,5.0,0.0
8218,87.0,20.0,20.0,5.0,0.0
8219,71.0,0.0,20.0,5.0,0.0
8220,69.0,0.0,20.0,5.0,0.0
8221,85.0,20.0,20.0,5.0,0.0
8222,68.0,0.0,20.0,5.0,0.0
8223,83.0,20.0,20.0,5.0,0.0
8224,59.0,0.0,60.0,1.0,0.0
8225,71.0,0.0,60.0,1.0,0.0
8226,47.0,19.0,60.0,4.0,0.0
8227,92.0,0.0,20.0,5.0,0.0
8228,76.0,20.0,20.0,5.0,0.0
8229,90.0,0.0,20.0,5.0,0.0
8230,75.0,1.0,20.0,5.0,0.0
8231,73.0,20.0,20.0,5.0,0.0
8232,88.0,0.0,20.0,5.0,0.0
8233,87.0,0.0,20.0,5.0,0.0
8234,71.0,20.0,20.0,5.0,0.0
8235,85.0,0.0,20.0,5.0,0.0
8236,69.0,30.0,20.0,5.0,0.0
8237,83.0,15.0,30.0,5.0,0.0
8238,47.0,15.0,120.0,4.0,0.0
8239,71.0,0.0,120.0,1.0,0.0
8240,59.0,0.0,120.0,1.0,0.0
8241,76.0,14.0,15.0,6.0,0.0
8242,80.0,0.0,15.0,3.0,0.0
8243,68.0,1.0,15.0,5.0,0.0
8244,80.0,15.0,15.0,5.0,0.0
8245,69.0,1.0,15.0,5.0,0.0
8246,78.0,0.0,15.0,6.0,0.0
8247,81.0,14.0,15.0,3.0,0.0
8248,81.0,15.0,15.0,5.0,0.0
8249,71.0,1.0,15.0,5.0,0.0
8250,83.0,14.0,15.0,3.0,0.0
8251,80.0,0.0,15.0,6.0,0.0
8252,83.0,0.0,15.0,5.0,0.0
8253,85.0,0.0,15.0,3.0,0.0
8254,81.0,14.0,15.0,6.0,0.0
8255,73.0,1.0,15.0,5.0,0.0
8256,85.0,15.0,15.0,5.0,0.0
8257,75.0,1.0,15.0,5.0,0.0
8258,87.0,14.0,15.0,3.0,0.0
8259,83.0,0.0,15.0,6.0,0.0
8260,87.0,15.0,15.0,5.0,0.0
8261,76.0,1.0,15.0,5.0,0.0
8262,85.0,14.0,15.0,6.0,0.0
8263,88.0,0.0,15.0,3.0,0.0
8264,88.0,15.0,15.0,5.0,0.0
8265,87.0,0.0,15.0,6.0,0.0
8266,90.0,14.0,15.0,3.0,0.0
8267,78.0,1.0,15.0,5.0,0.0
8268,90.0,15.0,15.0,5.0,0.0
8269,88.0,0.0,15.0,6.0,0.0
8270,80.0,1.0,15.0,5.0,0.0
8271,92.0,14.0,15.0,3.0,0.0
8272,92.0,15.0,15.0,5.0,0.0
8273,87.0,0.0,15.0,6.0,0.0
8274,78.0,1.0,15.0,5.0,0.0
8275,90.0,14.0,15.0,3.0,0.0
8276,90.0,15.0,15.0,5.0,0.0
8277,85.0,14.0,15.0,6.0,0.0
8278,76.0,1.0,15.0,5.0,0.0
8279,88.0,0.0,15.0,3.0,0.0
8280,88.0,15.0,15.0,5.0,0.0
8281,75.0,1.0,15.0,5.0,0.0
8282,87.0,0.0,15.0,3.0,0.0
8283,83.0,14.0,15.0,6.0,0.0
8284,87.0,15.0,15.0,5.0,0.0
8285,73.0,1.0,15.0,5.0,0.0
8286,85.0,14.0,15.0,3.0,0.0
8287,81.0,0.0,15.0,6.0,0.0
8288,85.0,15.0,15.0,5.0,0.0
8289,71.0,1.0,15.0,5.0,0.0
8290,83.0,14.0,15.0,3.0,0.0
8291,80.0,0.0,15.0,6.0,0.0
8292,83.0,15.0,15.0,5.0,0.0
8293,81.0,14.0,15.0,3.0,0.0
8294,78.0,0.0,15.0,6.0,0.0
8295,69.0,1.0,15.0,5.0,0.0
8296,81.0,15.0,15.0,5.0,0.0
8297,76.0,0.0,15.0,6.0,0.0
8298,80.0,14.0,15.0,3.0,0.0
8299,68.0,1.0,15.0,5.0,0.0
8300,80.0,15.0,15.0,5.0,0.0
8301,75.0,15.0,720.0,6.0,0.0
8302,80.0,15.0,15.0,5.0,0.0
8303,78.0,15.0,60.0,3.0,0.0
8304,71.0,0.0,780.0,7.0,0.0
8305,59.0,1.0,780.0,7.0,0.0
8306,78.0,15.0,15.0,5.0,0.0
8307,46.0,0.0,15.0,5.0,0.0
8308,46.0,0.0,30.0,0.0,0.0
8309,80.0,15.0,15.0,5.0,0.0
8310,58.0,0.0,15.0,5.0,0.0
8311,78.0,0.0,15.0,5.0,0.0
8312,47.0,15.0,30.0,0.0,0.0
8313,47.0,15.0,15.0,5.0,0.0
8314,80.0,0.0,15.0,5.0,0.0
8315,78.0,0.0,15.0,5.0,0.0
8316,59.0,0.0,15.0,5.0,0.0
8317,49.0,1.0,15.0,5.0,0.0
8318,49.0,14.0,15.0,0.0,0.0
8319,80.0,0.0,15.0,5.0,0.0
8320,78.0,15.0,15.0,5.0,0.0
8321,61.0,0.0,15.0,5.0,0.0
8322,80.0,1.0,15.0,5.0,0.0
8323,51.0,14.0,15.0,0.0,0.0
8324,51.0,0.0,15.0,5.0,0.0
8325,78.0,0.0,15.0,5.0,0.0
8326,63.0,15.0,15.0,5.0,0.0
8327,80.0,1.0,15.0,5.0,0.0
8328,52.0,14.0,15.0,0.0,0.0
8329,52.0,0.0,15.0,5.0,0.0
8330,78.0,0.0,15.0,5.0,0.0
8331,64.0,15.0,15.0,5.0,0.0
8332,80.0,0.0,15.0,5.0,0.0
8333,54.0,1.0,15.0,5.0,0.0
8334,54.0,14.0,15.0,0.0,0.0
8335,66.0,15.0,15.0,5.0,0.0
8336,78.0,0.0,15.0,5.0,0.0
8337,56.0,0.0,15.0,5.0,0.0
8338,56.0,14.0,15.0,0.0,0.0
8339,80.0,1.0,15.0,5.0,0.0
8340,78.0,0.0,15.0,5.0,0.0
8341,68.0,15.0,15.0,5.0,0.0
8342,57.0,0.0,30.0,0.0,0.0
8343,47.0,0.0,60.0,4.0,0.0
8344,80.0,15.0,15.0,5.0,0.0
8345,59.0,15.0,60.0,1.0,0.0
8346,57.0,0.0,15.0,5.0,0.0
8347,71.0,0.0,60.0,1.0,0.0
8348,69.0,0.0,15.0,5.0,0.0
8349,78.0,15.0,15.0,5.0,0.0
8350,58.0,15.0,15.0,5.0,0.0
8351,58.0,0.0,30.0,0.0,0.0
8352,80.0,0.0,15.0,5.0,0.0
8353,69.0,0.0,15.0,5.0,0.0
8354,78.0,0.0,15.0,5.0,0.0
8355,59.0,15.0,30.0,0.0,0.0
8356,80.0,0.0,15.0,5.0,0.0
8357,59.0,15.0,15.0,5.0,0.0
8358,69.0,0.0,15.0,5.0,0.0
8359,78.0,0.0,15.0,5.0,0.0
8360,60.0,15.0,30.0,0.0,0.0
8361,80.0,15.0,15.0,5.0,0.0
8362,60.0,0.0,15.0,5.0,0.0
8363,78.0,0.0,15.0,5.0,0.0
8364,69.0,0.0,15.0,5.0,0.0
8365,80.0,0.0,15.0,5.0,0.0
8366,61.0,15.0,15.0,5.0,0.0
8367,61.0,15.0,30.0,0.0,0.0
8368,78.0,0.0,15.0,5.0,0.0
8369,69.0,0.0,15.0,5.0,0.0
8370,62.0,0.0,30.0,0.0,0.0
8371,80.0,15.0,15.0,5.0,0.0
8372,62.0,0.0,15.0,5.0,0.0
8373,69.0,0.0,15.0,5.0,0.0
8374,78.0,15.0,15.0,5.0,0.0
8375,63.0,0.0,30.0,0.0,0.0
8376,63.0,15.0,15.0,5.0,0.0
8377,80.0,0.0,15.0,5.0,0.0
8378,78.0,0.0,15.0,5.0,0.0
8379,69.0,15.0,15.0,5.0,0.0
8380,64.0,15.0,15.0,5.0,0.0
8381,80.0,0.0,15.0,5.0,0.0
8382,64.0,0.0,30.0,0.0,0.0
8383,78.0,0.0,15.0,5.0,0.0
8384,69.0,15.0,15.0,5.0,0.0
8385,65.0,0.0,30.0,0.0,0.0
8386,80.0,0.0,15.0,5.0,0.0
8387,71.0,14.0,60.0,1.0,0.0
8388,65.0,15.0,15.0,5.0,0.0
8389,59.0,0.0,60.0,1.0,0.0
8390,47.0,0.0,60.0,4.0,0.0
8391,78.0,0.0,15.0,5.0,0.0
8392,69.0,15.0,15.0,5.0,0.0
8393,80.0,15.0,15.0,5.0,0.0
8394,66.0,0.0,15.0,5.0,0.0
8395,66.0,1.0,30.0,0.0,0.0
8396,78.0,0.0,15.0,5.0,0.0
8397,69.0,0.0,15.0,5.0,0.0
8398,65.0,15.0,30.0,0.0,0.0
8399,80.0,15.0,15.0,5.0,0.0
8400,65.0,0.0,15.0,5.0,0.0
8401,78.0,0.0,15.0,5.0,0.0
8402,69.0,0.0,15.0,5.0,0.0
8403,64.0,0.0,15.0,5.0,0.0
8404,80.0,15.0,15.0,5.0,0.0
8405,64.0,0.0,30.0,0.0,0.0
8406,78.0,0.0,15.0,5.0,0.0
8407,69.0,15.0,15.0,5.0,0.0
8408,63.0,0.0,30.0,0.0,0.0
8409,80.0,0.0,15.0,5.0,0.0
8410,63.0,15.0,15.0,5.0,0.0
8411,78.0,0.0,15.0,5.0,0.0
8412,69.0,15.0,15.0,5.0,0.0
8413,62.0,0.0,30.0,0.0,0.0
8414,62.0,0.0,15.0,5.0,0.0
8415,80.0,15.0,15.0,5.0,0.0
8416,69.0,15.0,15.0,5.0,0.0
8417,78.0,0.0,15.0,5.0,0.0
8418,80.0,15.0,15.0,5.0,0.0
8419,61.0,0.0,30.0,0.0,0.0
8420,61.0,0.0,15.0,5.0,0.0
8421,78.0,15.0,15.0,5.0,0.0
8422,69.0,0.0,15.0,5.0,0.0
8423,60.0,0.0,30.0,0.0,0.0
8424,80.0,0.0,15.0,5.0,0.0
8425,60.0,15.0,15.0,5.0,0.0
8426,69.0,0.0,15.0,5.0,0.0
8427,78.0,0.0,15.0,5.0,0.0
8428,59.0,10.0,20.0,5.0,0.0
8429,47.0,0.0,60.0,4.0,0.0
8430,71.0,0.0,60.0,1.0,0.0
8431,59.0,14.0,60.0,1.0,0.0
8432,76.0,1.0,15.0,6.0,0.0
8433,59.0,4.0,15.0,0.0,0.0
8434,80.0,0.0,15.0,5.0,0.0
8435,78.0,10.0,15.0,5.0,0.0
8436,75.0,0.0,15.0,6.0,0.0
8437,63.0,5.0,20.0,5.0,0.0
8438,66.0,14.0,15.0,0.0,0.0
8439,76.0,0.0,15.0,6.0,0.0
8440,80.0,1.0,15.0,5.0,0.0
8441,69.0,0.0,20.0,5.0,0.0
8442,78.0,0.0,15.0,5.0,0.0
8443,75.0,0.0,15.0,6.0,0.0
8444,71.0,0.0,60.0,7.0,0.0
8445,59.0,0.0,60.0,7.0,0.0
8446,59.0,10.0,20.0,5.0,0.0
8447,63.0,4.0,15.0,0.0,0.0
8448,80.0,1.0,15.0,5.0,0.0
8449,76.0,0.0,15.0,6.0,0.0
8450,75.0,10.0,15.0,6.0,0.0
8451,78.0,0.0,15.0,5.0,0.0
8452,63.0,5.0,20.0,5.0,0.0
8453,76.0,0.0,15.0,6.0,0.0
8454,59.0,14.0,15.0,0.0,0.0
8455,80.0,1.0,15.0,5.0,0.0
8456,69.0,0.0,20.0,5.0,0.0
8457,78.0,15.0,15.0,5.0,0.0
8458,75.0,0.0,15.0,6.0,0.0
8459,76.0,1.0,15.0,6.0,0.0
8460,80.0,0.0,15.0,5.0,0.0
8461,47.0,0.0,90.0,4.0,0.0
8462,59.0,0.0,90.0,1.0,0.0
8463,71.0,0.0,90.0,1.0,0.0
8464,71.0,0.0,60.0,7.0,0.0
8465,59.0,10.0,20.0,5.0,0.0
8466,54.0,4.0,15.0,0.0,0.0
8467,59.0,0.0,60.0,7.0,0.0
8468,75.0,10.0,15.0,6.0,0.0
8469,78.0,0.0,15.0,5.0,0.0
8470,63.0,5.0,20.0,5.0,0.0
8471,59.0,14.0,15.0,0.0,0.0
8472,76.0,0.0,15.0,6.0,0.0
8473,80.0,1.0,15.0,5.0,0.0
8474,69.0,0.0,20.0,5.0,0.0
8475,75.0,0.0,15.0,6.0,0.0
8476,78.0,15.0,15.0,5.0,0.0
8477,76.0,0.0,15.0,6.0,0.0
8478,51.0,4.0,15.0,0.0,0.0
8479,59.0,10.0,20.0,5.0,0.0
8480,59.0,0.0,60.0,7.0,0.0
8481,71.0,0.0,60.0,7.0,0.0
8482,80.0,1.0,15.0,5.0,0.0
8483,78.0,10.0,15.0,5.0,0.0
8484,75.0,0.0,15.0,6.0,0.0
8485,63.0,5.0,20.0,5.0,0.0
8486,73.0,0.0,15.0,6.0,0.0
8487,59.0,0.0,30.0,1.0,0.0
8488,71.0,0.0,30.0,1.0,0.0
8489,80.0,1.0,15.0,5.0,0.0
8490,54.0,14.0,15.0,0.0,0.0
8491,47.0,0.0,30.0,4.0,0.0
8492,69.0,15.0,20.0,5.0,0.0
8493,75.0,0.0,15.0,6.0,0.0
8494,78.0,0.0,15.0,5.0,0.0
8495,47.0,14.0,60.0,4.0,0.0
8496,88.0,5.0,15.0,3.0,0.0
8497,59.0,0.0,60.0,13.0,0.0
8498,83.0,0.0,15.0,6.0,0.0
8499,59.0,0.0,60.0,12.0,0.0
8500,59.0,0.0,60.0,7.0,0.0
8501,59.0,0.0,60.0,1.0,0.0
8502,71.0,0.0,60.0,1.0,0.0
8503,59.0,10.0,20.0,5.0,0.0
8504,71.0,0.0,60.0,7.0,0.0
8505,59.0,0.0,60.0,14.0,0.0
8506,92.0,0.0,15.0,5.0,0.0
8507,47.0,0.0,60.0,15.0,0.0
8508,47.0,0.0,60.0,0.0,0.0
8509,81.0,0.0,15.0,6.0,0.0
8510,87.0,0.0,15.0,3.0,0.0
8511,90.0,10.0,15.0,5.0,0.0
8512,63.0,5.0,20.0,5.0,0.0
8513,88.0,0.0,15.0,3.0,0.0
8514,83.0,0.0,15.0,6.0,0.0
8515,92.0,15.0,15.0,5.0,0.0
8516,69.0,0.0,20.0,5.0,0.0
8517,81.0,0.0,15.0,6.0,0.0
8518,90.0,0.0,15.0,5.0,0.0
8519,87.0,1.0,15.0,3.0,0.0
8520,59.0,0.0,60.0,7.0,0.0
8521,71.0,0.0,60.0,7.0,0.0
8522,59.0,10.0,20.0,5.0,0.0
8523,92.0,5.0,15.0,5.0,0.0
8524,88.0,0.0,15.0,3.0,0.0
8525,83.0,0.0,15.0,6.0,0.0
8526,81.0,0.0,15.0,6.0,0.0
8527,90.0,0.0,15.0,5.0,0.0
8528,87.0,10.0,15.0,3.0,0.0
8529,63.0,5.0,20.0,5.0,0.0
8530,88.0,0.0,15.0,3.0,0.0
8531,83.0,15.0,15.0,6.0,0.0
8532,92.0,0.0,15.0,5.0,0.0
8533,69.0,0.0,20.0,5.0,0.0
8534,90.0,0.0,15.0,5.0,0.0
8535,81.0,0.0,15.0,6.0,0.0
8536,87.0,10.0,15.0,3.0,0.0
8537,83.0,5.0,15.0,6.0,0.0
8538,47.0,0.0,60.0,4.0,0.0
8539,66.0,5.0,15.0,13.0,0.0
8540,88.0,0.0,15.0,3.0,0.0
8541,59.0,14.0,60.0,1.0,0.0
8542,59.0,0.0,60.0,15.0,0.0
8543,59.0,0.0,60.0,7.0,0.0
8544,92.0,0.0,15.0,5.0,0.0
8545,71.0,0.0,60.0,7.0,0.0
8546,59.0,0.0,60.0,0.0,0.0
8547,71.0,0.0,60.0,14.0,0.0
8548,59.0,0.0,20.0,5.0,0.0
8549,71.0,0.0,60.0,1.0,0.0
8550,66.0,0.0,15.0,12.0,0.0
8551,75.0,0.0,15.0,12.0,0.0
8552,75.0,10.0,15.0,13.0,0.0
8553,87.0,10.0,15.0,3.0,0.0
8554,81.0,0.0,15.0,6.0,0.0
8555,90.0,0.0,15.0,5.0,0.0
8556,63.0,5.0,20.0,5.0,0.0
8557,83.0,0.0,30.0,13.0,0.0
8558,83.0,0.0,30.0,12.0,0.0
8559,92.0,0.0,15.0,5.0,0.0
8560,83.0,15.0,15.0,6.0,0.0
8561,88.0,0.0,15.0,3.0,0.0
8562,69.0,0.0,20.0,5.0,0.0
8563,90.0,1.0,15.0,5.0,0.0
8564,81.0,0.0,15.0,6.0,0.0
8565,87.0,0.0,15.0,3.0,0.0
8566,88.0,0.0,15.0,3.0,0.0
8567,59.0,10.0,20.0,5.0,0.0
8568,71.0,0.0,60.0,7.0,0.0
8569,59.0,0.0,60.0,7.0,0.0
8570,83.0,5.0,15.0,6.0,0.0
8571,92.0,0.0,15.0,5.0,0.0
8572,90.0,0.0,15.0,5.0,0.0
8573,81.0,0.0,15.0,6.0,0.0
8574,87.0,10.0,15.0,3.0,0.0
8575,63.0,5.0,20.0,5.0,0.0
8576,88.0,0.0,15.0,5.0,0.0
8577,85.0,15.0,15.0,3.0,0.0
8578,80.0,0.0,15.0,6.0,0.0
8579,69.0,0.0,20.0,5.0,0.0
8580,87.0,0.0,15.0,3.0,0.0
8581,81.0,0.0,15.0,6.0,0.0
8582,90.0,20.0,15.0,5.0,0.0
8583,52.0,0.0,120.0,15.0,0.0
8584,76.0,0.0,120.0,6.0,0.0
8585,64.0,0.0,120.0,14.0,0.0
8586,52.0,0.0,120.0,4.0,0.0
8587,76.0,20.0,20.0,13.0,0.0
8588,68.0,0.0,120.0,5.0,0.0
8589,64.0,0.0,120.0,5.0,0.0
8590,88.0,20.0,120.0,3.0,0.0
8591,52.0,0.0,120.0,0.0,0.0
8592,88.0,0.0,120.0,5.0,0.0
8593,64.0,0.0,120.0,7.0,0.0
8594,80.0,0.0,120.0,6.0,0.0
8595,64.0,0.0,120.0,1.0,0.0
8596,76.0,0.0,120.0,7.0,0.0
8597,76.0,0.0,20.0,12.0,0.0
8598,68.0,0.0,120.0,1.0,0.0
8599,80.0,0.0,20.0,12.0,0.0
8600,80.0,20.0,20.0,13.0,0.0
8601,83.0,0.0,20.0,12.0,0.0
8602,83.0,20.0,20.0,13.0,0.0
8603,83.0,0.0,20.0,12.0,0.0
8604,83.0,20.0,20.0,13.0,0.0
8605,83.0,20.0,20.0,13.0,0.0
8606,83.0,0.0,20.0,12.0,0.0
8607,83.0,0.0,20.0,13.0,0.0
8608,83.0,0.0,20.0,12.0,0.0
8609,83.0,0.0,20.0,12.0,0.0
8610,83.0,20.0,20.0,13.0,0.0
8611,83.0,0.0,20.0,12.0,0.0
8612,83.0,20.0,20.0,13.0,0.0
8613,83.0,20.0,20.0,12.0,0.0
8614,83.0,0.0,20.0,13.0,0.0
8615,87.0,0.0,20.0,13.0,0.0
8616,87.0,20.0,20.0,12.0,0.0
8617,59.0,0.0,60.0,15.0,0.0
8618,71.0,0.0,60.0,14.0,0.0
8619,71.0,0.0,60.0,7.0,0.0
8620,78.0,0.0,60.0,1.0,0.0
8621,78.0,0.0,60.0,7.0,0.0
8622,71.0,0.0,60.0,1.0,0.0
8623,47.0,0.0,60.0,4.0,0.0
8624,83.0,0.0,60.0,6.0,0.0
8625,75.0,0.0,60.0,6.0,0.0
8626,59.0,0.0,60.0,0.0,0.0
8627,93.0,20.0,60.0,3.0,0.0
8628,85.0,0.0,20.0,13.0,0.0
8629,85.0,20.0,20.0,12.0,0.0
8630,83.0,0.0,20.0,12.0,0.0
8631,83.0,0.0,20.0,13.0,0.0
8632,80.0,0.0,60.0,1.0,0.0
8633,76.0,0.0,60.0,1.0,0.0
8634,76.0,0.0,60.0,6.0,0.0
8635,83.0,0.0,60.0,6.0,0.0
8636,88.0,0.0,20.0,12.0,0.0
8637,92.0,0.0,60.0,3.0,0.0
8638,64.0,0.0,60.0,15.0,0.0
8639,52.0,0.0,60.0,4.0,0.0
8640,88.0,20.0,20.0,13.0,0.0
8641,76.0,0.0,60.0,14.0,0.0
8642,64.0,0.0,60.0,0.0,0.0
8643,80.0,0.0,60.0,7.0,0.0
8644,76.0,19.0,60.0,7.0,0.0
8645,83.0,20.0,20.0,12.0,0.0
8646,83.0,0.0,20.0,13.0,0.0
8647,80.0,0.0,20.0,13.0,0.0
8648,80.0,1.0,20.0,12.0,0.0
8649,76.0,0.0,20.0,12.0,0.0
8650,76.0,20.0,20.0,13.0,0.0
8651,78.0,0.0,20.0,13.0,0.0
8652,78.0,20.0,20.0,12.0,0.0
8653,80.0,0.0,20.0,12.0,0.0
8654,80.0,20.0,20.0,13.0,0.0
8655,71.0,0.0,60.0,7.0,0.0
8656,78.0,0.0,60.0,7.0,0.0
8657,59.0,0.0,60.0,15.0,0.0
8658,71.0,1.0,60.0,14.0,0.0
8659,71.0,19.0,60.0,1.0,0.0
8660,83.0,0.0,60.0,6.0,0.0
8661,81.0,0.0,20.0,13.0,0.0
8662,47.0,0.0,60.0,4.0,0.0
8663,78.0,0.0,60.0,1.0,0.0
8664,90.0,0.0,60.0,3.0,0.0
8665,75.0,0.0,60.0,6.0,0.0
8666,59.0,0.0,60.0,0.0,0.0
8667,81.0,20.0,20.0,12.0,0.0
8668,78.0,20.0,20.0,13.0,0.0
8669,78.0,0.0,20.0,12.0,0.0
8670,75.0,0.0,20.0,12.0,0.0
8671,75.0,0.0,20.0,13.0,0.0
8672,71.0,20.0,20.0,12.0,0.0
8673,71.0,0.0,20.0,13.0,0.0
8674,73.0,0.0,20.0,12.0,0.0
8675,73.0,20.0,20.0,13.0,0.0
8676,75.0,20.0,20.0,13.0,0.0
8677,75.0,0.0,20.0,12.0,0.0
8678,68.0,0.0,120.0,1.0,0.0
8679,52.0,0.0,60.0,15.0,0.0
8680,52.0,0.0,120.0,4.0,0.0
8681,76.0,0.0,120.0,1.0,0.0
8682,76.0,0.0,20.0,12.0,0.0
8683,68.0,0.0,120.0,7.0,0.0
8684,64.0,0.0,60.0,14.0,0.0
8685,76.0,20.0,20.0,13.0,0.0
8686,88.0,0.0,120.0,3.0,0.0
8687,80.0,0.0,120.0,6.0,0.0
8688,76.0,20.0,120.0,7.0,0.0
8689,52.0,19.0,60.0,0.0,0.0
8690,83.0,0.0,120.0,6.0,0.0
8691,80.0,20.0,20.0,13.0,0.0
8692,80.0,0.0,20.0,12.0,0.0
8693,83.0,0.0,20.0,12.0,0.0
8694,83.0,1.0,20.0,13.0,0.0
8695,83.0,0.0,20.0,13.0,0.0
8696,83.0,20.0,20.0,12.0,0.0
8697,83.0,0.0,20.0,13.0,0.0
8698,83.0,20.0,20.0,12.0,0.0
8699,83.0,0.0,20.0,13.0,0.0
8700,83.0,0.0,20.0,12.0,0.0
8701,59.0,0.0,60.0,0.0,0.0
8702,71.0,19.0,60.0,14.0,0.0
8703,59.0,0.0,60.0,15.0,0.0
8704,83.0,20.0,20.0,12.0,0.0
8705,83.0,0.0,20.0,13.0,0.0
8706,83.0,0.0,20.0,13.0,0.0
8707,83.0,20.0,20.0,12.0,0.0
8708,83.0,0.0,20.0,13.0,0.0
8709,83.0,1.0,20.0,12.0,0.0
8710,71.0,0.0,60.0,7.0,0.0
8711,78.0,20.0,60.0,1.0,0.0
8712,78.0,0.0,60.0,7.0,0.0
8713,75.0,0.0,60.0,6.0,0.0
8714,83.0,0.0,60.0,6.0,0.0
8715,87.0,20.0,20.0,12.0,0.0
8716,87.0,0.0,20.0,13.0,0.0
8717,90.0,0.0,60.0,3.0,0.0
8718,47.0,0.0,60.0,4.0,0.0
8719,71.0,0.0,60.0,1.0,0.0
8720,85.0,20.0,20.0,13.0,0.0
8721,85.0,0.0,20.0,12.0,0.0
8722,83.0,0.0,20.0,13.0,0.0
8723,83.0,0.0,20.0,12.0,0.0
8724,76.0,19.0,60.0,14.0,0.0
8725,64.0,0.0,60.0,15.0,0.0
8726,80.0,0.0,60.0,7.0,0.0
8727,76.0,0.0,60.0,6.0,0.0
8728,76.0,0.0,60.0,1.0,0.0
8729,76.0,0.0,60.0,7.0,0.0
8730,64.0,0.0,60.0,0.0,0.0
8731,88.0,20.0,20.0,12.0,0.0
8732,83.0,0.0,60.0,6.0,0.0
8733,92.0,0.0,60.0,3.0,0.0
8734,52.0,1.0,60.0,4.0,0.0
8735,80.0,0.0,60.0,1.0,0.0
8736,88.0,0.0,20.0,13.0,0.0
8737,83.0,0.0,20.0,12.0,0.0
8738,83.0,20.0,20.0,13.0,0.0
8739,80.0,0.0,20.0,12.0,0.0
8740,80.0,0.0,20.0,13.0,0.0
8741,76.0,20.0,20.0,13.0,0.0
8742,76.0,0.0,60.0,7.0,0.0
8743,52.0,0.0,60.0,4.0,0.0
8744,76.0,0.0,60.0,6.0,0.0
8745,83.0,0.0,60.0,6.0,0.0
8746,76.0,0.0,20.0,12.0,0.0
8747,92.0,0.0,60.0,3.0,0.0
8748,76.0,0.0,60.0,1.0,0.0
8749,80.0,20.0,60.0,1.0,0.0
8750,80.0,0.0,60.0,7.0,0.0
8751,78.0,20.0,20.0,13.0,0.0
8752,78.0,0.0,20.0,12.0,0.0
8753,80.0,0.0,20.0,12.0,0.0
8754,80.0,0.0,20.0,13.0,0.0
8755,78.0,0.0,60.0,7.0,0.0
8756,71.0,0.0,60.0,7.0,0.0
8757,81.0,20.0,20.0,13.0,0.0
8758,59.0,0.0,60.0,0.0,0.0
8759,78.0,0.0,60.0,1.0,0.0
8760,90.0,0.0,60.0,3.0,0.0
8761,71.0,0.0,60.0,14.0,0.0
8762,47.0,0.0,60.0,4.0,0.0
8763,71.0,0.0,60.0,1.0,0.0
8764,81.0,0.0,20.0,12.0,0.0
8765,59.0,19.0,60.0,15.0,0.0
8766,75.0,0.0,60.0,6.0,0.0
8767,83.0,0.0,60.0,6.0,0.0
8768,78.0,0.0,20.0,12.0,0.0
8769,78.0,20.0,20.0,13.0,0.0
8770,75.0,0.0,20.0,12.0,0.0
8771,75.0,1.0,20.0,13.0,0.0
8772,71.0,20.0,20.0,12.0,0.0
8773,83.0,0.0,60.0,6.0,0.0
8774,78.0,0.0,60.0,1.0,0.0
8775,90.0,0.0,60.0,3.0,0.0
8776,71.0,0.0,20.0,13.0,0.0
8777,75.0,0.0,60.0,6.0,0.0
8778,47.0,0.0,60.0,4.0,0.0
8779,78.0,0.0,60.0,7.0,0.0
8780,71.0,0.0,60.0,7.0,0.0
8781,71.0,0.0,60.0,1.0,0.0
8782,73.0,20.0,20.0,13.0,0.0
8783,73.0,0.0,20.0,12.0,0.0
8784,75.0,20.0,20.0,12.0,0.0
8785,75.0,0.0,20.0,13.0,0.0
8786,76.0,0.0,20.0,12.0,0.0
8787,76.0,0.0,120.0,1.0,0.0
8788,52.0,19.0,60.0,4.0,0.0
8789,64.0,0.0,20.0,15.0,0.0
8790,88.0,0.0,20.0,6.0,0.0
8791,76.0,0.0,60.0,6.0,0.0
8792,76.0,0.0,120.0,7.0,0.0
8793,64.0,0.0,20.0,0.0,0.0
8794,88.0,1.0,60.0,3.0,0.0
8795,76.0,20.0,20.0,13.0,0.0
8796,71.0,0.0,20.0,13.0,0.0
8797,59.0,0.0,20.0,15.0,0.0
8798,59.0,0.0,20.0,0.0,0.0
8799,83.0,0.0,20.0,6.0,0.0
8800,71.0,20.0,20.0,12.0,0.0
8801,80.0,0.0,20.0,6.0,0.0
8802,68.0,0.0,20.0,12.0,0.0
8803,56.0,0.0,20.0,0.0,0.0
8804,68.0,0.0,20.0,13.0,0.0
8805,56.0,0.0,20.0,15.0,0.0
8806,52.0,20.0,20.0,0.0,0.0
8807,52.0,0.0,20.0,15.0,0.0
8808,76.0,0.0,20.0,6.0,0.0
8809,64.0,0.0,20.0,13.0,0.0
8810,64.0,0.0,20.0,12.0,0.0
8811,66.0,0.0,20.0,12.0,0.0
8812,78.0,20.0,20.0,6.0,0.0
8813,54.0,0.0,20.0,15.0,0.0
8814,66.0,0.0,20.0,13.0,0.0
8815,54.0,0.0,20.0,0.0,0.0
8816,68.0,20.0,20.0,13.0,0.0
8817,56.0,0.0,20.0,15.0,0.0
8818,68.0,0.0,20.0,12.0,0.0
8819,56.0,0.0,20.0,0.0,0.0
8820,80.0,0.0,20.0,6.0,0.0
8821,57.0,0.0,20.0,15.0,0.0
8822,93.0,0.0,20.0,3.0,0.0
8823,69.0,20.0,20.0,12.0,0.0
8824,81.0,0.0,20.0,6.0,0.0
8825,71.0,0.0,120.0,7.0,0.0
8826,47.0,19.0,60.0,4.0,0.0
8827,71.0,0.0,120.0,1.0,0.0
8828,69.0,0.0,20.0,13.0,0.0
8829,57.0,0.0,20.0,0.0,0.0
8830,78.0,0.0,20.0,6.0,0.0
8831,66.0,0.0,20.0,13.0,0.0
8832,54.0,0.0,20.0,15.0,0.0
8833,66.0,0.0,20.0,12.0,0.0
8834,54.0,20.0,20.0,0.0,0.0
8835,90.0,0.0,20.0,3.0,0.0
8836,63.0,0.0,20.0,13.0,0.0
8837,63.0,0.0,20.0,12.0,0.0
8838,51.0,0.0,20.0,15.0,0.0
8839,87.0,1.0,20.0,3.0,0.0
8840,75.0,0.0,20.0,6.0,0.0
8841,51.0,0.0,20.0,0.0,0.0
8842,47.0,0.0,20.0,15.0,0.0
8843,83.0,20.0,20.0,3.0,0.0
8844,71.0,0.0,20.0,6.0,0.0
8845,59.0,0.0,20.0,13.0,0.0
8846,47.0,0.0,20.0,0.0,0.0
8847,59.0,0.0,20.0,12.0,0.0
8848,61.0,20.0,20.0,12.0,0.0
8849,73.0,0.0,20.0,6.0,0.0
8850,61.0,0.0,20.0,13.0,0.0
8851,49.0,0.0,20.0,0.0,0.0
8852,49.0,0.0,20.0,15.0,0.0
8853,85.0,0.0,20.0,3.0,0.0
8854,75.0,0.0,20.0,6.0,0.0
8855,51.0,0.0,20.0,15.0,0.0
8856,63.0,0.0,20.0,13.0,0.0
8857,51.0,0.0,20.0,0.0,0.0
8858,63.0,20.0,20.0,12.0,0.0
8859,87.0,0.0,20.0,3.0,0.0
8860,52.0,20.0,20.0,0.0,0.0
8861,88.0,0.0,20.0,3.0,0.0
8862,64.0,0.0,20.0,13.0,0.0
8863,52.0,0.0,60.0,4.0,0.0
8864,76.0,0.0,60.0,1.0,0.0
8865,64.0,20.0,60.0,1.0,0.0
8866,52.0,0.0,20.0,15.0,0.0
8867,76.0,0.0,60.0,7.0,0.0
8868,76.0,0.0,20.0,6.0,0.0
8869,64.0,0.0,60.0,7.0,0.0
8870,64.0,0.0,20.0,12.0,0.0
8871,63.0,0.0,20.0,13.0,0.0
8872,87.0,0.0,20.0,3.0,0.0
8873,51.0,0.0,20.0,0.0,0.0
8874,75.0,20.0,20.0,6.0,0.0
8875,51.0,0.0,20.0,15.0,0.0
8876,63.0,0.0,20.0,12.0,0.0
8877,73.0,0.0,20.0,6.0,0.0
8878,49.0,0.0,20.0,0.0,0.0
8879,61.0,0.0,20.0,12.0,0.0
8880,49.0,0.0,20.0,15.0,0.0
8881,61.0,0.0,20.0,13.0,0.0
8882,85.0,0.0,20.0,3.0,0.0
8883,83.0,0.0,20.0,3.0,0.0
8884,47.0,0.0,20.0,15.0,0.0
8885,47.0,0.0,20.0,0.0,0.0
8886,47.0,0.0,30.0,4.0,0.0
8887,71.0,10.0,30.0,7.0,0.0
8888,59.0,10.0,20.0,13.0,0.0
8889,59.0,0.0,30.0,1.0,0.0
8890,71.0,0.0,30.0,1.0,0.0
8891,71.0,0.0,20.0,6.0,0.0
8892,59.0,0.0,30.0,7.0,0.0
8893,59.0,0.0,20.0,12.0,0.0
8894,61.0,0.0,20.0,12.0,0.0
8895,61.0,20.0,20.0,13.0,0.0
8896,73.0,0.0,20.0,6.0,0.0
8897,85.0,0.0,20.0,3.0,0.0
8898,49.0,0.0,20.0,0.0,0.0
8899,49.0,0.0,20.0,15.0,0.0
8900,47.0,0.0,30.0,4.0,0.0
8901,71.0,0.0,30.0,1.0,0.0
8902,59.0,20.0,30.0,7.0,0.0
8903,71.0,0.0,30.0,7.0,0.0
8904,59.0,0.0,30.0,1.0,0.0
8905,51.0,0.0,20.0,0.0,0.0
8906,51.0,0.0,20.0,15.0,0.0
8907,63.0,0.0,20.0,12.0,0.0
8908,87.0,0.0,20.0,3.0,0.0
8909,63.0,0.0,20.0,13.0,0.0
8910,75.0,0.0,20.0,6.0,0.0
8911,71.0,0.0,60.0,7.0,0.0
8912,59.0,0.0,60.0,7.0,0.0
8913,64.0,0.0,20.0,13.0,0.0
8914,52.0,20.0,20.0,0.0,0.0
8915,59.0,0.0,60.0,1.0,0.0
8916,71.0,0.0,60.0,1.0,0.0
8917,52.0,0.0,20.0,15.0,0.0
8918,47.0,0.0,60.0,4.0,0.0
8919,88.0,0.0,20.0,3.0,0.0
8920,64.0,0.0,20.0,12.0,0.0
8921,76.0,0.0,20.0,6.0,0.0
8922,54.0,0.0,20.0,15.0,0.0
8923,78.0,0.0,20.0,6.0,0.0
8924,66.0,20.0,20.0,13.0,0.0
8925,90.0,0.0,20.0,3.0,0.0
8926,66.0,0.0,20.0,12.0,0.0
8927,54.0,0.0,20.0,0.0,0.0
8928,92.0,20.0,20.0,3.0,0.0
8929,68.0,0.0,20.0,13.0,0.0
8930,80.0,0.0,20.0,6.0,0.0
8931,56.0,0.0,20.0,0.0,0.0
8932,68.0,0.0,20.0,12.0,0.0
8933,56.0,0.0,20.0,15.0,0.0
8934,59.0,0.0,60.0,7.0,0.0
8935,71.0,0.0,60.0,7.0,0.0
8936,57.0,0.0,20.0,15.0,0.0
8937,69.0,20.0,20.0,13.0,0.0
8938,81.0,0.0,20.0,6.0,0.0
8939,57.0,0.0,20.0,0.0,0.0
8940,71.0,0.0,60.0,1.0,0.0
8941,59.0,0.0,60.0,1.0,0.0
8942,93.0,0.0,20.0,3.0,0.0
8943,69.0,0.0,20.0,12.0,0.0
8944,47.0,20.0,60.0,4.0,0.0
8945,68.0,0.0,20.0,12.0,0.0
8946,56.0,0.0,20.0,0.0,0.0
8947,56.0,20.0,20.0,15.0,0.0
8948,92.0,0.0,20.0,3.0,0.0
8949,80.0,0.0,20.0,6.0,0.0
8950,68.0,0.0,20.0,13.0,0.0
8951,54.0,0.0,20.0,15.0,0.0
8952,54.0,0.0,20.0,0.0,0.0
8953,66.0,0.0,20.0,13.0,0.0
8954,66.0,0.0,20.0,12.0,0.0
8955,78.0,0.0,20.0,6.0,0.0
8956,90.0,0.0,20.0,3.0,0.0
8957,52.0,0.0,20.0,15.0,0.0
8958,64.0,0.0,20.0,12.0,0.0
8959,76.0,0.0,20.0,6.0,0.0
8960,64.0,0.0,60.0,7.0,0.0
8961,76.0,0.0,60.0,7.0,0.0
8962,64.0,20.0,20.0,13.0,0.0
8963,52.0,0.0,20.0,0.0,0.0
8964,64.0,0.0,60.0,1.0,0.0
8965,76.0,0.0,60.0,1.0,0.0
8966,88.0,0.0,20.0,3.0,0.0
8967,52.0,0.0,60.0,4.0,0.0
8968,51.0,0.0,20.0,0.0,0.0
8969,63.0,0.0,20.0,12.0,0.0
8970,87.0,0.0,20.0,3.0,0.0
8971,51.0,0.0,20.0,15.0,0.0
8972,75.0,20.0,20.0,6.0,0.0
8973,63.0,0.0,20.0,13.0,0.0
8974,61.0,0.0,20.0,13.0,0.0
8975,49.0,0.0,20.0,15.0,0.0
8976,61.0,0.0,20.0,12.0,0.0
8977,85.0,0.0,20.0,3.0,0.0
8978,49.0,0.0,20.0,0.0,0.0
8979,73.0,20.0,20.0,6.0,0.0
8980,71.0,0.0,20.0,6.0,0.0
8981,71.0,0.0,30.0,1.0,0.0
8982,47.0,0.0,20.0,0.0,0.0
8983,47.0,0.0,20.0,15.0,0.0
8984,59.0,0.0,30.0,1.0,0.0
8985,71.0,10.0,30.0,7.0,0.0
8986,59.0,0.0,30.0,7.0,0.0
8987,47.0,0.0,30.0,4.0,0.0
8988,59.0,0.0,20.0,12.0,0.0
8989,83.0,0.0,20.0,3.0,0.0
8990,59.0,10.0,20.0,13.0,0.0
8991,49.0,20.0,20.0,15.0,0.0
8992,73.0,0.0,20.0,6.0,0.0
8993,61.0,0.0,20.0,13.0,0.0
8994,49.0,0.0,20.0,0.0,0.0
8995,85.0,0.0,20.0,3.0,0.0
8996,61.0,0.0,20.0,12.0,0.0
8997,71.0,0.0,30.0,1.0,0.0
8998,71.0,0.0,30.0,7.0,0.0
8999,59.0,0.0,30.0,7.0,0.0
9000,47.0,0.0,30.0,4.0,0.0
9001,59.0,0.0,30.0,1.0,0.0
9002,51.0,0.0,20.0,15.0,0.0
9003,51.0,0.0,20.0,0.0,0.0
9004,75.0,20.0,20.0,6.0,0.0
9005,63.0,0.0,20.0,13.0,0.0
9006,63.0,0.0,20.0,12.0,0.0
9007,87.0,0.0,20.0,3.0,0.0
9008,64.0,0.0,20.0,13.0,0.0
9009,71.0,0.0,60.0,1.0,0.0
9010,76.0,0.0,20.0,6.0,0.0
9011,52.0,0.0,20.0,0.0,0.0
9012,47.0,0.0,60.0,4.0,0.0
9013,88.0,0.0,20.0,3.0,0.0
9014,59.0,0.0,60.0,1.0,0.0
9015,64.0,0.0,20.0,12.0,0.0
9016,71.0,0.0,60.0,7.0,0.0
9017,59.0,20.0,60.0,7.0,0.0
9018,52.0,20.0,20.0,15.0,0.0
9019,90.0,0.0,20.0,3.0,0.0
9020,78.0,20.0,20.0,6.0,0.0
9021,66.0,0.0,20.0,13.0,0.0
9022,54.0,0.0,20.0,15.0,0.0
9023,66.0,0.0,20.0,12.0,0.0
9024,54.0,0.0,20.0,0.0,0.0
9025,92.0,0.0,20.0,3.0,0.0
9026,80.0,0.0,20.0,6.0,0.0
9027,56.0,0.0,20.0,0.0,0.0
9028,68.0,0.0,20.0,12.0,0.0
9029,56.0,0.0,20.0,15.0,0.0
9030,68.0,0.0,20.0,13.0,0.0
9031,57.0,0.0,20.0,0.0,0.0
9032,71.0,0.0,60.0,7.0,0.0
9033,59.0,0.0,60.0,7.0,0.0
9034,47.0,0.0,60.0,4.0,0.0
9035,57.0,0.0,20.0,15.0,0.0
9036,69.0,0.0,20.0,12.0,0.0
9037,69.0,20.0,20.0,13.0,0.0
9038,71.0,120.0,60.0,1.0,0.0
9039,59.0,0.0,60.0,1.0,0.0
9040,81.0,0.0,20.0,6.0,0.0
9041,93.0,0.0,20.0,3.0,0.0
9042,80.0,0.0,20.0,6.0,0.0
9043,56.0,0.0,20.0,15.0,0.0
9044,68.0,0.0,20.0,12.0,0.0
9045,68.0,0.0,20.0,13.0,0.0
9046,92.0,20.0,20.0,3.0,0.0
9047,56.0,0.0,20.0,0.0,0.0
9048,54.0,0.0,20.0,0.0,0.0
9049,66.0,0.0,20.0,13.0,0.0
9050,54.0,0.0,20.0,15.0,0.0
9051,78.0,0.0,20.0,6.0,0.0
9052,90.0,0.0,20.0,3.0,0.0
9053,66.0,0.0,20.0,12.0,0.0
9054,52.0,0.0,120.0,4.0,0.0
9055,64.0,0.0,120.0,7.0,0.0
9056,76.0,0.0,120.0,7.0,0.0
9057,76.0,0.0,120.0,6.0,0.0
9058,52.0,0.0,120.0,15.0,0.0
9059,64.0,10.0,120.0,13.0,0.0
9060,64.0,0.0,120.0,1.0,0.0
9061,76.0,0.0,120.0,1.0,0.0
9062,88.0,0.0,120.0,3.0,0.0
9063,52.0,0.0,120.0,0.0,0.0
9064,64.0,0.0,120.0,12.0,0.0
9065,71.0,0.0,120.0,7.0,0.0
9066,80.0,0.0,120.0,7.0,0.0
9067,52.0,10.0,120.0,15.0,0.0
9068,59.0,10.0,15.0,13.0,0.0
9069,80.0,0.0,120.0,6.0,0.0
9070,52.0,0.0,120.0,4.0,0.0
9071,68.0,0.0,15.0,12.0,0.0
9072,64.0,0.0,120.0,14.0,0.0
9073,71.0,0.0,120.0,1.0,0.0
9074,80.0,0.0,120.0,1.0,0.0
9075,52.0,0.0,120.0,0.0,0.0
9076,92.0,0.0,120.0,3.0,0.0
9077,83.0,0.0,120.0,6.0,0.0
9078,76.0,0.0,15.0,12.0,0.0
9079,68.0,100.0,15.0,13.0,0.0
9080,83.0,0.0,90.0,12.0,0.0
9081,76.0,0.0,90.0,13.0,0.0
9082,64.0,0.0,120.0,14.0,0.0
9083,80.0,0.0,120.0,6.0,0.0
9084,83.0,0.0,120.0,6.0,0.0
9085,59.0,10.0,15.0,13.0,0.0
9086,76.0,0.0,120.0,1.0,0.0
9087,52.0,0.0,120.0,15.0,0.0
9088,71.0,0.0,15.0,12.0,0.0
9089,68.0,0.0,120.0,7.0,0.0
9090,88.0,0.0,120.0,3.0,0.0
9091,52.0,0.0,120.0,4.0,0.0
9092,52.0,0.0,120.0,0.0,0.0
9093,76.0,0.0,120.0,7.0,0.0
9094,68.0,0.0,120.0,1.0,0.0
9095,68.0,0.0,15.0,13.0,0.0
9096,80.0,100.0,15.0,12.0,0.0
9097,88.0,0.0,90.0,12.0,0.0
9098,76.0,0.0,90.0,13.0,0.0
