,note,step,duration,channel,velocity
0,73.0,336.0,150.0,10.0,0.0
1,72.0,240.0,240.0,10.0,0.0
2,73.0,144.0,240.0,10.0,0.0
3,75.0,240.0,150.0,10.0,0.0
4,73.0,336.0,150.0,10.0,0.0
5,75.0,240.0,240.0,10.0,0.0
6,77.0,144.0,240.0,10.0,0.0
7,78.0,240.0,150.0,10.0,0.0
8,73.0,336.0,150.0,11.0,0.0
9,77.0,0.0,150.0,10.0,0.0
10,75.0,0.0,240.0,10.0,0.0
11,72.0,240.0,240.0,11.0,0.0
12,77.0,0.0,240.0,10.0,0.0
13,73.0,144.0,240.0,11.0,0.0
14,75.0,0.0,150.0,11.0,0.0
15,78.0,240.0,150.0,10.0,0.0
16,73.0,0.0,150.0,11.0,0.0
17,77.0,336.0,150.0,10.0,0.0
18,75.0,240.0,240.0,11.0,0.0
19,78.0,0.0,240.0,10.0,0.0
20,80.0,144.0,240.0,10.0,0.0
21,77.0,0.0,240.0,11.0,0.0
22,78.0,0.0,150.0,11.0,0.0
23,82.0,240.0,150.0,10.0,0.0
24,77.0,0.0,150.0,11.0,0.0
25,49.0,0.0,150.0,14.0,0.0
26,80.0,0.0,150.0,10.0,0.0
27,61.0,0.0,150.0,12.0,0.0
28,61.0,336.0,150.0,13.0,0.0
29,75.0,240.0,240.0,11.0,0.0
30,60.0,0.0,240.0,12.0,0.0
31,60.0,0.0,240.0,13.0,0.0
32,48.0,0.0,240.0,14.0,0.0
33,80.0,156.0,690.0,10.0,0.0
34,61.0,0.0,240.0,13.0,0.0
35,49.0,0.0,240.0,14.0,0.0
36,77.0,0.0,240.0,11.0,0.0
37,61.0,144.0,240.0,12.0,0.0
38,63.0,0.0,150.0,12.0,0.0
39,78.0,0.0,150.0,11.0,0.0
40,63.0,0.0,150.0,13.0,0.0
41,51.0,60.0,150.0,14.0,0.0
42,61.0,0.0,150.0,13.0,0.0
43,77.0,0.0,150.0,11.0,0.0
44,61.0,0.0,150.0,12.0,0.0
45,85.0,24.0,120.0,10.0,0.0
46,49.0,90.0,150.0,14.0,0.0
47,73.0,246.0,120.0,10.0,0.0
48,51.0,0.0,240.0,14.0,0.0
49,63.0,0.0,240.0,12.0,0.0
50,73.0,156.0,690.0,10.0,0.0
51,78.0,240.0,240.0,11.0,0.0
52,63.0,0.0,240.0,13.0,0.0
53,65.0,0.0,240.0,13.0,0.0
54,65.0,144.0,240.0,12.0,0.0
55,53.0,0.0,240.0,14.0,0.0
56,80.0,0.0,240.0,11.0,0.0
57,54.0,0.0,150.0,14.0,0.0
58,66.0,0.0,150.0,12.0,0.0
59,82.0,0.0,150.0,11.0,0.0
60,66.0,60.0,150.0,13.0,0.0
61,65.0,0.0,150.0,12.0,0.0
62,80.0,0.0,150.0,11.0,0.0
63,53.0,90.0,150.0,14.0,0.0
64,65.0,0.0,150.0,13.0,0.0
65,85.0,24.0,120.0,10.0,0.0
66,73.0,198.0,120.0,10.0,0.0
67,65.0,0.0,240.0,12.0,0.0
68,73.0,48.0,180.0,10.0,0.0
69,81.0,120.0,240.0,11.0,0.0
70,65.0,0.0,240.0,13.0,0.0
71,53.0,0.0,240.0,14.0,0.0
72,82.0,24.0,180.0,11.0,0.0
73,66.0,0.0,180.0,12.0,0.0
74,66.0,0.0,180.0,13.0,0.0
75,54.0,0.0,180.0,14.0,0.0
76,85.0,72.0,120.0,10.0,0.0
77,73.0,216.0,90.0,10.0,0.0
78,64.0,120.0,240.0,13.0,0.0
79,64.0,0.0,240.0,12.0,0.0
80,52.0,0.0,240.0,14.0,0.0
81,73.0,48.0,180.0,10.0,0.0
82,79.0,0.0,240.0,11.0,0.0
83,80.0,0.0,180.0,11.0,0.0
84,65.0,0.0,180.0,12.0,0.0
85,85.0,72.0,120.0,10.0,0.0
86,53.0,0.0,180.0,14.0,0.0
87,65.0,24.0,180.0,13.0,0.0
88,73.0,264.0,90.0,10.0,0.0
89,66.0,0.0,360.0,12.0,0.0
90,63.0,72.0,360.0,13.0,0.0
91,51.0,0.0,360.0,14.0,0.0
92,73.0,120.0,240.0,10.0,0.0
93,78.0,180.0,690.0,11.0,0.0
94,72.0,0.0,120.0,10.0,0.0
95,65.0,180.0,90.0,12.0,0.0
96,70.0,24.0,60.0,10.0,0.0
97,49.0,0.0,90.0,14.0,0.0
98,61.0,0.0,90.0,13.0,0.0
99,68.0,36.0,150.0,10.0,0.0
100,63.0,12.0,180.0,12.0,0.0
101,60.0,0.0,180.0,13.0,0.0
102,48.0,0.0,180.0,14.0,0.0
103,44.0,0.0,180.0,14.0,0.0
104,56.0,0.0,180.0,13.0,0.0
105,78.0,48.0,150.0,10.0,0.0
106,72.0,0.0,180.0,11.0,0.0
107,63.0,128.0,180.0,12.0,0.0
108,49.0,4.0,150.0,14.0,0.0
109,73.0,0.0,330.0,11.0,0.0
110,61.0,0.0,150.0,13.0,0.0
111,77.0,0.0,90.0,10.0,0.0
112,61.0,76.0,90.0,12.0,0.0
113,78.0,80.0,90.0,10.0,0.0
114,63.0,0.0,90.0,12.0,0.0
115,65.0,80.0,90.0,12.0,0.0
116,80.0,0.0,90.0,10.0,0.0
117,54.0,0.0,150.0,13.0,0.0
118,66.0,0.0,150.0,12.0,0.0
119,42.0,4.0,150.0,14.0,0.0
120,82.0,76.0,90.0,10.0,0.0
121,70.0,0.0,90.0,11.0,0.0
122,78.0,64.0,90.0,10.0,0.0
123,66.0,0.0,60.0,11.0,0.0
124,70.0,0.0,60.0,12.0,0.0
125,75.0,172.0,60.0,10.0,0.0
126,65.0,0.0,180.0,11.0,0.0
127,56.0,0.0,150.0,13.0,0.0
128,68.0,204.0,180.0,12.0,0.0
129,44.0,24.0,150.0,14.0,0.0
130,73.0,12.0,180.0,10.0,0.0
131,32.0,24.0,150.0,14.0,0.0
132,72.0,12.0,180.0,10.0,0.0
133,66.0,0.0,180.0,12.0,0.0
134,44.0,0.0,150.0,13.0,0.0
135,63.0,228.0,180.0,11.0,0.0
136,37.0,0.0,390.0,14.0,0.0
137,73.0,204.0,180.0,10.0,0.0
138,49.0,12.0,390.0,13.0,0.0
139,65.0,0.0,390.0,12.0,0.0
140,61.0,0.0,390.0,11.0,0.0
141,61.0,384.0,150.0,10.0,0.0
142,89.0,0.0,480.0,10.0,0.0
143,49.0,0.0,240.0,14.0,0.0
144,82.0,120.0,60.0,11.0,0.0
145,73.0,0.0,240.0,12.0,0.0
146,61.0,192.0,240.0,13.0,0.0
147,80.0,48.0,120.0,11.0,0.0
148,79.0,12.0,40.0,11.0,0.0
149,80.0,0.0,180.0,11.0,0.0
150,72.0,0.0,180.0,12.0,0.0
151,48.0,192.0,180.0,14.0,0.0
152,60.0,0.0,180.0,13.0,0.0
153,87.0,0.0,180.0,10.0,0.0
154,80.0,0.0,480.0,11.0,0.0
155,60.0,0.0,240.0,13.0,0.0
156,48.0,240.0,240.0,14.0,0.0
157,80.0,96.0,150.0,10.0,0.0
158,75.0,0.0,240.0,12.0,0.0
159,82.0,60.0,360.0,10.0,0.0
160,77.0,120.0,240.0,12.0,0.0
161,61.0,0.0,240.0,13.0,0.0
162,49.0,0.0,240.0,14.0,0.0
163,63.0,0.0,240.0,13.0,0.0
164,51.0,0.0,240.0,14.0,0.0
165,75.0,0.0,240.0,12.0,0.0
166,79.0,0.0,240.0,11.0,0.0
167,84.0,60.0,60.0,10.0,0.0
168,85.0,240.0,60.0,10.0,0.0
169,77.0,432.0,420.0,12.0,0.0
170,53.0,0.0,420.0,14.0,0.0
171,85.0,192.0,240.0,10.0,0.0
172,65.0,0.0,420.0,13.0,0.0
173,80.0,0.0,420.0,11.0,0.0
174,84.0,0.0,180.0,10.0,0.0
175,77.0,96.0,390.0,10.0,0.0
176,49.0,120.0,240.0,13.0,0.0
177,58.0,0.0,240.0,12.0,0.0
178,37.0,0.0,240.0,14.0,0.0
179,67.0,0.0,240.0,11.0,0.0
180,60.0,0.0,180.0,12.0,0.0
181,75.0,72.0,120.0,10.0,0.0
182,36.0,0.0,180.0,14.0,0.0
183,68.0,0.0,180.0,11.0,0.0
184,48.0,24.0,180.0,13.0,0.0
185,80.0,144.0,90.0,10.0,0.0
186,53.0,0.0,240.0,13.0,0.0
187,41.0,144.0,240.0,14.0,0.0
188,68.0,96.0,120.0,10.0,0.0
189,61.0,0.0,240.0,12.0,0.0
190,68.0,0.0,480.0,11.0,0.0
191,73.0,24.0,90.0,10.0,0.0
192,63.0,30.0,240.0,12.0,0.0
193,51.0,48.0,150.0,13.0,0.0
194,72.0,48.0,180.0,10.0,0.0
195,39.0,0.0,150.0,14.0,0.0
196,61.0,0.0,240.0,12.0,0.0
197,39.0,6.0,150.0,14.0,0.0
198,51.0,0.0,150.0,13.0,0.0
199,72.0,30.0,30.0,10.0,0.0
200,67.0,0.0,240.0,11.0,0.0
201,70.0,30.0,30.0,10.0,0.0
202,72.0,30.0,30.0,10.0,0.0
203,70.0,24.0,30.0,10.0,0.0
204,72.0,30.0,30.0,10.0,0.0
205,70.0,30.0,30.0,10.0,0.0
206,72.0,30.0,30.0,10.0,0.0
207,70.0,192.0,30.0,10.0,0.0
208,32.0,0.0,390.0,14.0,0.0
209,68.0,0.0,390.0,11.0,0.0
210,60.0,0.0,390.0,12.0,0.0
211,44.0,48.0,390.0,13.0,0.0
212,68.0,192.0,180.0,10.0,0.0
213,80.0,348.0,180.0,10.0,0.0
214,89.0,192.0,480.0,10.0,0.0
215,61.0,0.0,240.0,13.0,0.0
216,49.0,0.0,240.0,14.0,0.0
217,82.0,120.0,60.0,11.0,0.0
218,73.0,0.0,240.0,12.0,0.0
219,80.0,48.0,120.0,11.0,0.0
220,79.0,12.0,40.0,11.0,0.0
221,48.0,192.0,180.0,14.0,0.0
222,80.0,0.0,180.0,11.0,0.0
223,60.0,0.0,180.0,13.0,0.0
224,87.0,0.0,180.0,10.0,0.0
225,72.0,0.0,180.0,12.0,0.0
226,80.0,96.0,150.0,10.0,0.0
227,60.0,240.0,240.0,13.0,0.0
228,75.0,0.0,240.0,12.0,0.0
229,80.0,120.0,480.0,11.0,0.0
230,48.0,0.0,240.0,14.0,0.0
231,82.0,60.0,360.0,10.0,0.0
232,61.0,0.0,240.0,13.0,0.0
233,77.0,0.0,240.0,12.0,0.0
234,49.0,0.0,240.0,14.0,0.0
235,75.0,0.0,180.0,12.0,0.0
236,51.0,36.0,180.0,14.0,0.0
237,63.0,0.0,180.0,13.0,0.0
238,84.0,12.0,60.0,10.0,0.0
239,85.0,12.0,40.0,10.0,0.0
240,79.0,96.0,15.0,11.0,0.0
241,56.0,96.0,450.0,13.0,0.0
242,75.0,120.0,90.0,12.0,0.0
243,85.0,96.0,240.0,10.0,0.0
244,44.0,0.0,450.0,14.0,0.0
245,63.0,24.0,90.0,12.0,0.0
246,63.0,96.0,90.0,12.0,0.0
247,80.0,24.0,180.0,11.0,0.0
248,84.0,0.0,180.0,10.0,0.0
249,63.0,0.0,90.0,12.0,0.0
250,70.0,24.0,360.0,10.0,0.0
251,63.0,72.0,60.0,11.0,0.0
252,43.0,0.0,150.0,14.0,0.0
253,63.0,120.0,180.0,12.0,0.0
254,55.0,48.0,150.0,13.0,0.0
255,63.0,0.0,60.0,11.0,0.0
256,39.0,0.0,150.0,14.0,0.0
257,63.0,48.0,60.0,11.0,0.0
258,51.0,36.0,150.0,13.0,0.0
259,63.0,36.0,60.0,11.0,0.0
260,72.0,12.0,60.0,10.0,0.0
261,73.0,84.0,40.0,10.0,0.0
262,56.0,36.0,690.0,12.0,0.0
263,63.0,48.0,60.0,11.0,0.0
264,56.0,48.0,150.0,13.0,0.0
265,72.0,24.0,120.0,10.0,0.0
266,44.0,0.0,150.0,14.0,0.0
267,63.0,48.0,60.0,11.0,0.0
268,73.0,72.0,120.0,10.0,0.0
269,39.0,48.0,150.0,14.0,0.0
270,51.0,0.0,150.0,13.0,0.0
271,63.0,48.0,60.0,11.0,0.0
272,75.0,24.0,120.0,10.0,0.0
273,77.0,96.0,90.0,10.0,0.0
274,63.0,24.0,60.0,11.0,0.0
275,75.0,24.0,120.0,10.0,0.0
276,60.0,0.0,150.0,13.0,0.0
277,48.0,48.0,150.0,14.0,0.0
278,63.0,48.0,60.0,11.0,0.0
279,63.0,12.0,60.0,11.0,0.0
280,77.0,72.0,120.0,10.0,0.0
281,63.0,48.0,60.0,11.0,0.0
282,51.0,48.0,150.0,13.0,0.0
283,39.0,0.0,150.0,14.0,0.0
284,72.0,24.0,180.0,12.0,0.0
285,79.0,24.0,120.0,10.0,0.0
286,80.0,96.0,90.0,10.0,0.0
287,63.0,0.0,60.0,11.0,0.0
288,63.0,72.0,60.0,11.0,0.0
289,58.0,0.0,150.0,13.0,0.0
290,73.0,108.0,690.0,12.0,0.0
291,46.0,48.0,150.0,14.0,0.0
292,80.0,72.0,240.0,10.0,0.0
293,63.0,48.0,60.0,11.0,0.0
294,51.0,48.0,150.0,13.0,0.0
295,63.0,72.0,60.0,11.0,0.0
296,79.0,0.0,180.0,10.0,0.0
297,39.0,0.0,150.0,14.0,0.0
298,63.0,120.0,60.0,11.0,0.0
299,70.0,24.0,360.0,10.0,0.0
300,55.0,0.0,150.0,13.0,0.0
301,63.0,72.0,60.0,11.0,0.0
302,43.0,48.0,150.0,14.0,0.0
303,63.0,12.0,60.0,11.0,0.0
304,63.0,48.0,60.0,11.0,0.0
305,55.0,0.0,180.0,12.0,0.0
306,51.0,0.0,150.0,13.0,0.0
307,39.0,36.0,150.0,14.0,0.0
308,63.0,48.0,60.0,11.0,0.0
309,72.0,12.0,60.0,10.0,0.0
310,73.0,72.0,60.0,10.0,0.0
311,44.0,0.0,150.0,14.0,0.0
312,72.0,0.0,60.0,10.0,0.0
313,56.0,108.0,690.0,12.0,0.0
314,63.0,72.0,60.0,11.0,0.0
315,56.0,48.0,150.0,13.0,0.0
316,73.0,0.0,60.0,10.0,0.0
317,63.0,120.0,60.0,11.0,0.0
318,75.0,72.0,60.0,10.0,0.0
319,51.0,0.0,150.0,13.0,0.0
320,39.0,48.0,150.0,14.0,0.0
321,63.0,0.0,60.0,11.0,0.0
322,77.0,0.0,60.0,10.0,0.0
323,63.0,120.0,60.0,11.0,0.0
324,75.0,72.0,60.0,10.0,0.0
325,63.0,0.0,60.0,11.0,0.0
326,48.0,48.0,150.0,14.0,0.0
327,60.0,0.0,150.0,13.0,0.0
328,63.0,12.0,60.0,11.0,0.0
329,77.0,0.0,60.0,10.0,0.0
330,72.0,0.0,180.0,12.0,0.0
331,39.0,0.0,150.0,14.0,0.0
332,51.0,48.0,150.0,13.0,0.0
333,79.0,72.0,60.0,10.0,0.0
334,63.0,0.0,60.0,11.0,0.0
335,80.0,0.0,60.0,10.0,0.0
336,63.0,120.0,60.0,11.0,0.0
337,80.0,72.0,240.0,10.0,0.0
338,46.0,48.0,150.0,14.0,0.0
339,73.0,108.0,690.0,12.0,0.0
340,58.0,0.0,150.0,13.0,0.0
341,63.0,72.0,60.0,11.0,0.0
342,63.0,48.0,60.0,11.0,0.0
343,63.0,72.0,60.0,11.0,0.0
344,51.0,48.0,150.0,13.0,0.0
345,79.0,0.0,180.0,10.0,0.0
346,39.0,0.0,150.0,14.0,0.0
347,63.0,120.0,60.0,11.0,0.0
348,63.0,72.0,60.0,11.0,0.0
349,70.0,24.0,360.0,10.0,0.0
350,43.0,48.0,150.0,14.0,0.0
351,55.0,0.0,150.0,13.0,0.0
352,63.0,12.0,60.0,11.0,0.0
353,63.0,48.0,60.0,11.0,0.0
354,51.0,0.0,150.0,13.0,0.0
355,55.0,0.0,180.0,12.0,0.0
356,39.0,36.0,150.0,14.0,0.0
357,63.0,48.0,60.0,11.0,0.0
358,72.0,12.0,60.0,10.0,0.0
359,73.0,192.0,60.0,10.0,0.0
360,44.0,0.0,390.0,14.0,0.0
361,72.0,108.0,180.0,10.0,0.0
362,63.0,0.0,390.0,11.0,0.0
363,56.0,0.0,390.0,13.0,0.0
364,56.0,36.0,390.0,12.0,0.0
365,87.0,60.0,60.0,10.0,0.0
366,84.0,24.0,60.0,10.0,0.0
367,87.0,60.0,60.0,10.0,0.0
368,84.0,144.0,60.0,10.0,0.0
369,80.0,240.0,150.0,10.0,0.0
370,75.0,396.0,150.0,11.0,0.0
371,60.0,0.0,150.0,12.0,0.0
372,60.0,0.0,150.0,13.0,0.0
373,48.0,0.0,150.0,14.0,0.0
374,77.0,0.0,390.0,11.0,0.0
375,61.0,0.0,390.0,12.0,0.0
376,61.0,0.0,390.0,13.0,0.0
377,49.0,36.0,390.0,14.0,0.0
378,87.0,60.0,60.0,10.0,0.0
379,84.0,24.0,60.0,10.0,0.0
380,87.0,60.0,60.0,10.0,0.0
381,84.0,144.0,60.0,10.0,0.0
382,80.0,240.0,150.0,10.0,0.0
383,63.0,0.0,150.0,13.0,0.0
384,51.0,0.0,150.0,14.0,0.0
385,63.0,0.0,150.0,12.0,0.0
386,72.0,288.0,150.0,11.0,0.0
387,65.0,0.0,180.0,12.0,0.0
388,73.0,0.0,180.0,11.0,0.0
389,65.0,0.0,180.0,13.0,0.0
390,53.0,108.0,180.0,14.0,0.0
391,87.0,60.0,60.0,10.0,0.0
392,84.0,60.0,60.0,10.0,0.0
393,87.0,60.0,60.0,10.0,0.0
394,84.0,144.0,60.0,10.0,0.0
395,60.0,0.0,180.0,12.0,0.0
396,60.0,0.0,180.0,13.0,0.0
397,80.0,48.0,150.0,10.0,0.0
398,75.0,0.0,180.0,11.0,0.0
399,48.0,108.0,180.0,14.0,0.0
400,87.0,60.0,60.0,10.0,0.0
401,84.0,60.0,60.0,10.0,0.0
402,87.0,60.0,60.0,10.0,0.0
403,84.0,120.0,60.0,10.0,0.0
404,77.0,0.0,120.0,11.0,0.0
405,80.0,96.0,120.0,10.0,0.0
406,85.0,84.0,90.0,11.0,0.0
407,89.0,0.0,90.0,10.0,0.0
408,61.0,0.0,60.0,13.0,0.0
409,85.0,0.0,450.0,11.0,0.0
410,49.0,60.0,60.0,14.0,0.0
411,89.0,24.0,450.0,10.0,0.0
412,77.0,0.0,60.0,12.0,0.0
413,73.0,0.0,60.0,12.0,0.0
414,58.0,60.0,60.0,13.0,0.0
415,46.0,0.0,60.0,14.0,0.0
416,77.0,0.0,60.0,12.0,0.0
417,49.0,60.0,60.0,14.0,0.0
418,61.0,0.0,60.0,13.0,0.0
419,46.0,0.0,60.0,14.0,0.0
420,58.0,0.0,60.0,13.0,0.0
421,73.0,216.0,60.0,12.0,0.0
422,55.0,48.0,390.0,13.0,0.0
423,70.0,120.0,240.0,12.0,0.0
424,43.0,0.0,390.0,14.0,0.0
425,84.0,0.0,120.0,11.0,0.0
426,75.0,24.0,180.0,12.0,0.0
427,87.0,24.0,120.0,10.0,0.0
428,85.0,0.0,90.0,10.0,0.0
429,82.0,168.0,90.0,11.0,0.0
430,84.0,0.0,150.0,10.0,0.0
431,56.0,240.0,150.0,13.0,0.0
432,44.0,0.0,150.0,14.0,0.0
433,75.0,0.0,150.0,12.0,0.0
434,80.0,0.0,150.0,11.0,0.0
435,37.0,0.0,150.0,14.0,0.0
436,85.0,0.0,150.0,10.0,0.0
437,73.0,0.0,150.0,12.0,0.0
438,77.0,816.0,150.0,11.0,0.0
439,49.0,0.0,150.0,13.0,0.0
440,68.0,0.0,240.0,12.0,0.0
441,84.0,0.0,240.0,10.0,0.0
442,56.0,0.0,240.0,13.0,0.0
443,75.0,72.0,240.0,11.0,0.0
444,44.0,0.0,240.0,14.0,0.0
445,85.0,120.0,60.0,10.0,0.0
446,65.0,0.0,180.0,12.0,0.0
447,49.0,0.0,180.0,14.0,0.0
448,61.0,0.0,180.0,13.0,0.0
449,77.0,192.0,240.0,11.0,0.0
450,82.0,48.0,60.0,10.0,0.0
451,46.0,192.0,240.0,14.0,0.0
452,73.0,48.0,180.0,11.0,0.0
453,70.0,0.0,180.0,12.0,0.0
454,77.0,0.0,240.0,10.0,0.0
455,58.0,0.0,240.0,13.0,0.0
456,73.0,240.0,240.0,11.0,0.0
457,63.0,0.0,180.0,13.0,0.0
458,51.0,0.0,180.0,14.0,0.0
459,70.0,36.0,180.0,12.0,0.0
460,79.0,12.0,240.0,10.0,0.0
461,44.0,0.0,240.0,14.0,0.0
462,80.0,48.0,390.0,10.0,0.0
463,56.0,0.0,240.0,13.0,0.0
464,68.0,0.0,240.0,12.0,0.0
465,72.0,72.0,240.0,11.0,0.0
466,65.0,0.0,180.0,12.0,0.0
467,37.0,0.0,180.0,14.0,0.0
468,49.0,288.0,180.0,13.0,0.0
469,73.0,72.0,60.0,11.0,0.0
470,70.0,0.0,60.0,11.0,0.0
471,34.0,0.0,240.0,14.0,0.0
472,65.0,0.0,240.0,11.0,0.0
473,61.0,192.0,240.0,12.0,0.0
474,46.0,0.0,240.0,13.0,0.0
475,39.0,0.0,180.0,14.0,0.0
476,58.0,36.0,180.0,12.0,0.0
477,67.0,204.0,240.0,11.0,0.0
478,51.0,0.0,180.0,13.0,0.0
479,75.0,0.0,240.0,10.0,0.0
480,56.0,0.0,240.0,13.0,0.0
481,60.0,48.0,180.0,12.0,0.0
482,68.0,192.0,720.0,11.0,0.0
483,44.0,72.0,240.0,14.0,0.0
484,49.0,192.0,180.0,13.0,0.0
485,77.0,120.0,60.0,10.0,0.0
486,37.0,0.0,180.0,14.0,0.0
487,61.0,96.0,390.0,12.0,0.0
488,73.0,0.0,60.0,10.0,0.0
489,42.0,0.0,240.0,14.0,0.0
490,70.0,0.0,240.0,10.0,0.0
491,54.0,0.0,240.0,13.0,0.0
492,75.0,12.0,240.0,10.0,0.0
493,39.0,0.0,180.0,14.0,0.0
494,63.0,36.0,180.0,12.0,0.0
495,66.0,480.0,240.0,11.0,0.0
496,51.0,0.0,180.0,13.0,0.0
497,73.0,0.0,480.0,10.0,0.0
498,65.0,0.0,480.0,11.0,0.0
499,55.0,0.0,240.0,12.0,0.0
500,43.0,0.0,240.0,14.0,0.0
501,55.0,144.0,240.0,13.0,0.0
502,44.0,0.0,180.0,14.0,0.0
503,72.0,48.0,150.0,10.0,0.0
504,56.0,0.0,180.0,13.0,0.0
505,56.0,0.0,180.0,12.0,0.0
506,63.0,192.0,180.0,11.0,0.0
507,73.0,336.0,150.0,10.0,0.0
508,72.0,240.0,240.0,10.0,0.0
509,73.0,144.0,240.0,10.0,0.0
510,75.0,240.0,150.0,10.0,0.0
511,73.0,336.0,150.0,10.0,0.0
512,75.0,240.0,240.0,10.0,0.0
513,77.0,144.0,240.0,10.0,0.0
514,78.0,240.0,150.0,10.0,0.0
515,77.0,0.0,150.0,10.0,0.0
516,73.0,336.0,150.0,11.0,0.0
517,75.0,0.0,240.0,10.0,0.0
518,72.0,240.0,240.0,11.0,0.0
519,73.0,144.0,240.0,11.0,0.0
520,77.0,0.0,240.0,10.0,0.0
521,75.0,240.0,150.0,11.0,0.0
522,78.0,0.0,150.0,10.0,0.0
523,77.0,0.0,150.0,10.0,0.0
524,73.0,336.0,150.0,11.0,0.0
525,75.0,240.0,240.0,11.0,0.0
526,78.0,0.0,240.0,10.0,0.0
527,77.0,0.0,240.0,11.0,0.0
528,80.0,144.0,240.0,10.0,0.0
529,78.0,0.0,150.0,11.0,0.0
530,82.0,240.0,150.0,10.0,0.0
531,80.0,0.0,150.0,10.0,0.0
532,61.0,336.0,150.0,13.0,0.0
533,49.0,0.0,150.0,14.0,0.0
534,61.0,0.0,150.0,12.0,0.0
535,77.0,0.0,150.0,11.0,0.0
536,80.0,156.0,690.0,10.0,0.0
537,60.0,0.0,240.0,13.0,0.0
538,75.0,240.0,240.0,11.0,0.0
539,60.0,0.0,240.0,12.0,0.0
540,48.0,0.0,240.0,14.0,0.0
541,61.0,0.0,240.0,12.0,0.0
542,61.0,0.0,240.0,13.0,0.0
543,49.0,144.0,240.0,14.0,0.0
544,77.0,0.0,240.0,11.0,0.0
545,51.0,0.0,150.0,14.0,0.0
546,63.0,0.0,150.0,12.0,0.0
547,78.0,0.0,150.0,11.0,0.0
548,63.0,60.0,150.0,13.0,0.0
549,61.0,90.0,150.0,12.0,0.0
550,61.0,0.0,150.0,13.0,0.0
551,77.0,0.0,150.0,11.0,0.0
552,49.0,0.0,150.0,14.0,0.0
553,85.0,24.0,120.0,10.0,0.0
554,73.0,246.0,120.0,10.0,0.0
555,78.0,0.0,240.0,11.0,0.0
556,63.0,0.0,240.0,12.0,0.0
557,63.0,240.0,240.0,13.0,0.0
558,51.0,0.0,240.0,14.0,0.0
559,73.0,156.0,690.0,10.0,0.0
560,53.0,144.0,240.0,14.0,0.0
561,65.0,0.0,240.0,12.0,0.0
562,65.0,0.0,240.0,13.0,0.0
563,80.0,0.0,240.0,11.0,0.0
564,66.0,0.0,150.0,12.0,0.0
565,66.0,0.0,150.0,13.0,0.0
566,54.0,0.0,150.0,14.0,0.0
567,82.0,60.0,150.0,11.0,0.0
568,80.0,0.0,150.0,11.0,0.0
569,53.0,0.0,150.0,14.0,0.0
570,85.0,24.0,120.0,10.0,0.0
571,65.0,90.0,150.0,13.0,0.0
572,65.0,0.0,150.0,12.0,0.0
573,73.0,198.0,120.0,10.0,0.0
574,73.0,48.0,180.0,10.0,0.0
575,65.0,0.0,240.0,12.0,0.0
576,81.0,120.0,240.0,11.0,0.0
577,53.0,0.0,240.0,14.0,0.0
578,65.0,0.0,240.0,13.0,0.0
579,66.0,0.0,180.0,12.0,0.0
580,54.0,0.0,180.0,14.0,0.0
581,66.0,0.0,180.0,13.0,0.0
582,82.0,24.0,180.0,11.0,0.0
583,85.0,72.0,120.0,10.0,0.0
584,73.0,216.0,90.0,10.0,0.0
585,64.0,0.0,240.0,12.0,0.0
586,73.0,48.0,180.0,10.0,0.0
587,79.0,0.0,240.0,11.0,0.0
588,64.0,120.0,240.0,13.0,0.0
589,52.0,0.0,240.0,14.0,0.0
590,80.0,24.0,180.0,11.0,0.0
591,65.0,0.0,180.0,12.0,0.0
592,65.0,0.0,180.0,13.0,0.0
593,53.0,0.0,180.0,14.0,0.0
594,85.0,72.0,120.0,10.0,0.0
595,73.0,264.0,90.0,10.0,0.0
596,73.0,120.0,240.0,10.0,0.0
597,78.0,180.0,690.0,11.0,0.0
598,66.0,0.0,360.0,12.0,0.0
599,63.0,0.0,360.0,13.0,0.0
600,51.0,0.0,360.0,14.0,0.0
601,72.0,72.0,120.0,10.0,0.0
602,61.0,0.0,90.0,13.0,0.0
603,65.0,180.0,90.0,12.0,0.0
604,49.0,0.0,90.0,14.0,0.0
605,70.0,24.0,60.0,10.0,0.0
606,60.0,0.0,180.0,13.0,0.0
607,48.0,0.0,180.0,14.0,0.0
608,63.0,12.0,180.0,12.0,0.0
609,68.0,36.0,150.0,10.0,0.0
610,44.0,0.0,180.0,14.0,0.0
611,63.0,0.0,180.0,12.0,0.0
612,78.0,48.0,150.0,10.0,0.0
613,72.0,128.0,180.0,11.0,0.0
614,56.0,0.0,180.0,13.0,0.0
615,49.0,4.0,150.0,14.0,0.0
616,73.0,76.0,330.0,11.0,0.0
617,61.0,0.0,150.0,13.0,0.0
618,61.0,76.0,90.0,12.0,0.0
619,77.0,0.0,90.0,10.0,0.0
620,78.0,80.0,90.0,10.0,0.0
621,63.0,0.0,90.0,12.0,0.0
622,80.0,80.0,90.0,10.0,0.0
623,65.0,0.0,90.0,12.0,0.0
624,66.0,0.0,150.0,12.0,0.0
625,54.0,4.0,150.0,13.0,0.0
626,82.0,0.0,90.0,10.0,0.0
627,42.0,0.0,150.0,14.0,0.0
628,78.0,0.0,90.0,10.0,0.0
629,70.0,64.0,90.0,11.0,0.0
630,75.0,0.0,60.0,10.0,0.0
631,66.0,172.0,60.0,11.0,0.0
632,70.0,0.0,60.0,12.0,0.0
633,73.0,12.0,180.0,10.0,0.0
634,68.0,0.0,180.0,12.0,0.0
635,56.0,24.0,150.0,13.0,0.0
636,65.0,204.0,180.0,11.0,0.0
637,44.0,0.0,150.0,14.0,0.0
638,66.0,0.0,180.0,12.0,0.0
639,72.0,12.0,180.0,10.0,0.0
640,44.0,24.0,150.0,13.0,0.0
641,63.0,228.0,180.0,11.0,0.0
642,32.0,0.0,150.0,14.0,0.0
643,65.0,12.0,390.0,12.0,0.0
644,73.0,204.0,180.0,10.0,0.0
645,61.0,0.0,390.0,11.0,0.0
646,37.0,0.0,390.0,14.0,0.0
647,49.0,0.0,390.0,13.0,0.0
648,61.0,384.0,150.0,10.0,0.0
649,89.0,0.0,480.0,10.0,0.0
650,82.0,120.0,60.0,11.0,0.0
651,61.0,0.0,240.0,13.0,0.0
652,49.0,0.0,240.0,14.0,0.0
653,73.0,192.0,240.0,12.0,0.0
654,80.0,48.0,120.0,11.0,0.0
655,79.0,12.0,40.0,11.0,0.0
656,87.0,0.0,180.0,10.0,0.0
657,72.0,192.0,180.0,12.0,0.0
658,48.0,0.0,180.0,14.0,0.0
659,60.0,0.0,180.0,13.0,0.0
660,80.0,0.0,180.0,11.0,0.0
661,80.0,96.0,150.0,10.0,0.0
662,48.0,240.0,240.0,14.0,0.0
663,60.0,0.0,240.0,13.0,0.0
664,80.0,0.0,480.0,11.0,0.0
665,75.0,0.0,240.0,12.0,0.0
666,49.0,0.0,240.0,14.0,0.0
667,82.0,60.0,360.0,10.0,0.0
668,77.0,0.0,240.0,12.0,0.0
669,61.0,120.0,240.0,13.0,0.0
670,63.0,0.0,240.0,13.0,0.0
671,51.0,0.0,240.0,14.0,0.0
672,75.0,0.0,240.0,12.0,0.0
673,79.0,240.0,240.0,11.0,0.0
674,84.0,60.0,60.0,10.0,0.0
675,85.0,0.0,60.0,10.0,0.0
676,65.0,0.0,420.0,13.0,0.0
677,77.0,0.0,420.0,12.0,0.0
678,80.0,432.0,420.0,11.0,0.0
679,85.0,192.0,240.0,10.0,0.0
680,53.0,0.0,420.0,14.0,0.0
681,84.0,0.0,180.0,10.0,0.0
682,77.0,96.0,390.0,10.0,0.0
683,58.0,0.0,240.0,12.0,0.0
684,49.0,120.0,240.0,13.0,0.0
685,37.0,0.0,240.0,14.0,0.0
686,67.0,0.0,240.0,11.0,0.0
687,68.0,0.0,180.0,11.0,0.0
688,75.0,72.0,120.0,10.0,0.0
689,48.0,0.0,180.0,13.0,0.0
690,36.0,0.0,180.0,14.0,0.0
691,60.0,24.0,180.0,12.0,0.0
692,80.0,144.0,90.0,10.0,0.0
693,41.0,144.0,240.0,14.0,0.0
694,68.0,0.0,480.0,11.0,0.0
695,53.0,0.0,240.0,13.0,0.0
696,68.0,96.0,120.0,10.0,0.0
697,61.0,0.0,240.0,12.0,0.0
698,73.0,24.0,90.0,10.0,0.0
699,72.0,48.0,180.0,10.0,0.0
700,51.0,0.0,150.0,13.0,0.0
701,39.0,48.0,150.0,14.0,0.0
702,63.0,30.0,240.0,12.0,0.0
703,72.0,30.0,30.0,10.0,0.0
704,39.0,0.0,150.0,14.0,0.0
705,51.0,6.0,150.0,13.0,0.0
706,67.0,0.0,240.0,11.0,0.0
707,61.0,0.0,240.0,12.0,0.0
708,70.0,30.0,30.0,10.0,0.0
709,72.0,30.0,30.0,10.0,0.0
710,70.0,24.0,30.0,10.0,0.0
711,72.0,30.0,30.0,10.0,0.0
712,70.0,30.0,30.0,10.0,0.0
713,72.0,30.0,30.0,10.0,0.0
714,70.0,192.0,30.0,10.0,0.0
715,68.0,0.0,390.0,11.0,0.0
716,32.0,0.0,390.0,14.0,0.0
717,60.0,0.0,390.0,12.0,0.0
718,44.0,48.0,390.0,13.0,0.0
719,68.0,192.0,180.0,10.0,0.0
720,80.0,348.0,180.0,10.0,0.0
721,89.0,0.0,480.0,10.0,0.0
722,61.0,192.0,240.0,13.0,0.0
723,82.0,120.0,60.0,11.0,0.0
724,73.0,0.0,240.0,12.0,0.0
725,49.0,0.0,240.0,14.0,0.0
726,80.0,48.0,120.0,11.0,0.0
727,79.0,12.0,40.0,11.0,0.0
728,48.0,0.0,180.0,14.0,0.0
729,72.0,0.0,180.0,12.0,0.0
730,60.0,0.0,180.0,13.0,0.0
731,80.0,0.0,180.0,11.0,0.0
732,87.0,192.0,180.0,10.0,0.0
733,48.0,0.0,240.0,14.0,0.0
734,75.0,240.0,240.0,12.0,0.0
735,80.0,96.0,150.0,10.0,0.0
736,80.0,0.0,480.0,11.0,0.0
737,60.0,0.0,240.0,13.0,0.0
738,77.0,0.0,240.0,12.0,0.0
739,49.0,0.0,240.0,14.0,0.0
740,82.0,60.0,360.0,10.0,0.0
741,61.0,120.0,240.0,13.0,0.0
742,79.0,96.0,240.0,11.0,0.0
743,75.0,36.0,180.0,12.0,0.0
744,63.0,0.0,180.0,13.0,0.0
745,51.0,0.0,180.0,14.0,0.0
746,84.0,12.0,60.0,10.0,0.0
747,85.0,12.0,40.0,10.0,0.0
748,44.0,0.0,450.0,14.0,0.0
749,75.0,120.0,90.0,12.0,0.0
750,79.0,0.0,240.0,11.0,0.0
751,56.0,0.0,450.0,13.0,0.0
752,85.0,96.0,240.0,10.0,0.0
753,63.0,24.0,90.0,12.0,0.0
754,63.0,96.0,90.0,12.0,0.0
755,80.0,0.0,180.0,11.0,0.0
756,84.0,24.0,180.0,10.0,0.0
757,63.0,96.0,90.0,12.0,0.0
758,63.0,0.0,180.0,12.0,0.0
759,70.0,24.0,360.0,10.0,0.0
760,63.0,72.0,60.0,11.0,0.0
761,55.0,0.0,150.0,13.0,0.0
762,43.0,48.0,150.0,14.0,0.0
763,63.0,120.0,60.0,11.0,0.0
764,63.0,48.0,60.0,11.0,0.0
765,39.0,36.0,150.0,14.0,0.0
766,51.0,0.0,150.0,13.0,0.0
767,72.0,12.0,60.0,10.0,0.0
768,63.0,36.0,60.0,11.0,0.0
769,73.0,84.0,40.0,10.0,0.0
770,56.0,36.0,690.0,12.0,0.0
771,44.0,0.0,150.0,14.0,0.0
772,72.0,24.0,120.0,10.0,0.0
773,63.0,48.0,60.0,11.0,0.0
774,56.0,48.0,150.0,13.0,0.0
775,63.0,48.0,60.0,11.0,0.0
776,73.0,72.0,120.0,10.0,0.0
777,75.0,24.0,120.0,10.0,0.0
778,51.0,0.0,150.0,13.0,0.0
779,63.0,48.0,60.0,11.0,0.0
780,39.0,48.0,150.0,14.0,0.0
781,77.0,96.0,90.0,10.0,0.0
782,63.0,24.0,60.0,11.0,0.0
783,60.0,0.0,150.0,13.0,0.0
784,63.0,48.0,60.0,11.0,0.0
785,75.0,24.0,120.0,10.0,0.0
786,48.0,48.0,150.0,14.0,0.0
787,77.0,72.0,120.0,10.0,0.0
788,63.0,12.0,60.0,11.0,0.0
789,79.0,24.0,120.0,10.0,0.0
790,72.0,0.0,180.0,12.0,0.0
791,51.0,0.0,150.0,13.0,0.0
792,39.0,48.0,150.0,14.0,0.0
793,63.0,48.0,60.0,11.0,0.0
794,63.0,24.0,60.0,11.0,0.0
795,80.0,96.0,90.0,10.0,0.0
796,73.0,108.0,690.0,12.0,0.0
797,63.0,72.0,60.0,11.0,0.0
798,58.0,48.0,150.0,13.0,0.0
799,46.0,0.0,150.0,14.0,0.0
800,80.0,72.0,240.0,10.0,0.0
801,63.0,48.0,60.0,11.0,0.0
802,39.0,48.0,150.0,14.0,0.0
803,63.0,72.0,60.0,11.0,0.0
804,79.0,120.0,180.0,10.0,0.0
805,51.0,0.0,150.0,13.0,0.0
806,63.0,0.0,60.0,11.0,0.0
807,70.0,24.0,360.0,10.0,0.0
808,55.0,0.0,150.0,13.0,0.0
809,43.0,48.0,150.0,14.0,0.0
810,63.0,72.0,60.0,11.0,0.0
811,63.0,12.0,60.0,11.0,0.0
812,55.0,0.0,180.0,12.0,0.0
813,51.0,0.0,150.0,13.0,0.0
814,63.0,48.0,60.0,11.0,0.0
815,39.0,36.0,150.0,14.0,0.0
816,63.0,48.0,60.0,11.0,0.0
817,72.0,12.0,60.0,10.0,0.0
818,73.0,72.0,60.0,10.0,0.0
819,72.0,0.0,60.0,10.0,0.0
820,56.0,48.0,150.0,13.0,0.0
821,56.0,108.0,690.0,12.0,0.0
822,44.0,0.0,150.0,14.0,0.0
823,63.0,72.0,60.0,11.0,0.0
824,63.0,0.0,60.0,11.0,0.0
825,73.0,120.0,60.0,10.0,0.0
826,75.0,0.0,60.0,10.0,0.0
827,39.0,48.0,150.0,14.0,0.0
828,51.0,0.0,150.0,13.0,0.0
829,63.0,72.0,60.0,11.0,0.0
830,77.0,0.0,60.0,10.0,0.0
831,63.0,120.0,60.0,11.0,0.0
832,60.0,0.0,150.0,13.0,0.0
833,63.0,72.0,60.0,11.0,0.0
834,48.0,48.0,150.0,14.0,0.0
835,75.0,0.0,60.0,10.0,0.0
836,77.0,0.0,60.0,10.0,0.0
837,63.0,12.0,60.0,11.0,0.0
838,72.0,120.0,180.0,12.0,0.0
839,39.0,0.0,150.0,14.0,0.0
840,63.0,72.0,60.0,11.0,0.0
841,79.0,0.0,60.0,10.0,0.0
842,51.0,48.0,150.0,13.0,0.0
843,80.0,0.0,60.0,10.0,0.0
844,63.0,0.0,60.0,11.0,0.0
845,63.0,72.0,60.0,11.0,0.0
846,80.0,72.0,240.0,10.0,0.0
847,58.0,0.0,150.0,13.0,0.0
848,73.0,108.0,690.0,12.0,0.0
849,46.0,48.0,150.0,14.0,0.0
850,63.0,48.0,60.0,11.0,0.0
851,39.0,48.0,150.0,14.0,0.0
852,63.0,72.0,60.0,11.0,0.0
853,79.0,0.0,180.0,10.0,0.0
854,51.0,0.0,150.0,13.0,0.0
855,63.0,120.0,60.0,11.0,0.0
856,63.0,72.0,60.0,11.0,0.0
857,43.0,0.0,150.0,14.0,0.0
858,70.0,24.0,360.0,10.0,0.0
859,55.0,48.0,150.0,13.0,0.0
860,63.0,12.0,60.0,11.0,0.0
861,55.0,48.0,180.0,12.0,0.0
862,51.0,36.0,150.0,13.0,0.0
863,39.0,0.0,150.0,14.0,0.0
864,63.0,48.0,60.0,11.0,0.0
865,72.0,12.0,60.0,10.0,0.0
866,63.0,0.0,60.0,11.0,0.0
867,73.0,192.0,60.0,10.0,0.0
868,63.0,0.0,390.0,11.0,0.0
869,56.0,0.0,390.0,13.0,0.0
870,72.0,108.0,180.0,10.0,0.0
871,44.0,0.0,390.0,14.0,0.0
872,56.0,36.0,390.0,12.0,0.0
873,87.0,60.0,60.0,10.0,0.0
874,84.0,24.0,60.0,10.0,0.0
875,87.0,60.0,60.0,10.0,0.0
876,84.0,144.0,60.0,10.0,0.0
877,80.0,240.0,150.0,10.0,0.0
878,60.0,396.0,150.0,12.0,0.0
879,60.0,0.0,150.0,13.0,0.0
880,48.0,0.0,150.0,14.0,0.0
881,75.0,0.0,150.0,11.0,0.0
882,61.0,36.0,390.0,12.0,0.0
883,77.0,0.0,390.0,11.0,0.0
884,61.0,0.0,390.0,13.0,0.0
885,49.0,0.0,390.0,14.0,0.0
886,87.0,60.0,60.0,10.0,0.0
887,84.0,24.0,60.0,10.0,0.0
888,87.0,60.0,60.0,10.0,0.0
889,84.0,144.0,60.0,10.0,0.0
890,80.0,240.0,150.0,10.0,0.0
891,63.0,0.0,150.0,12.0,0.0
892,51.0,0.0,150.0,14.0,0.0
893,63.0,0.0,150.0,13.0,0.0
894,72.0,288.0,150.0,11.0,0.0
895,53.0,108.0,180.0,14.0,0.0
896,65.0,0.0,180.0,12.0,0.0
897,73.0,0.0,180.0,11.0,0.0
898,65.0,0.0,180.0,13.0,0.0
899,87.0,60.0,60.0,10.0,0.0
900,84.0,60.0,60.0,10.0,0.0
901,87.0,60.0,60.0,10.0,0.0
902,84.0,144.0,60.0,10.0,0.0
903,80.0,48.0,150.0,10.0,0.0
904,60.0,108.0,180.0,13.0,0.0
905,60.0,0.0,180.0,12.0,0.0
906,75.0,0.0,180.0,11.0,0.0
907,48.0,0.0,180.0,14.0,0.0
908,87.0,60.0,60.0,10.0,0.0
909,84.0,60.0,60.0,10.0,0.0
910,87.0,60.0,60.0,10.0,0.0
911,84.0,120.0,60.0,10.0,0.0
912,80.0,0.0,120.0,10.0,0.0
913,77.0,96.0,120.0,11.0,0.0
914,85.0,84.0,90.0,11.0,0.0
915,89.0,0.0,90.0,10.0,0.0
916,49.0,0.0,60.0,14.0,0.0
917,85.0,0.0,450.0,11.0,0.0
918,89.0,24.0,450.0,10.0,0.0
919,61.0,0.0,60.0,13.0,0.0
920,77.0,60.0,60.0,12.0,0.0
921,46.0,60.0,60.0,14.0,0.0
922,58.0,0.0,60.0,13.0,0.0
923,73.0,0.0,60.0,12.0,0.0
924,61.0,0.0,60.0,13.0,0.0
925,77.0,60.0,60.0,12.0,0.0
926,49.0,0.0,60.0,14.0,0.0
927,58.0,0.0,60.0,13.0,0.0
928,73.0,0.0,60.0,12.0,0.0
929,46.0,216.0,60.0,14.0,0.0
930,43.0,48.0,390.0,14.0,0.0
931,55.0,0.0,390.0,13.0,0.0
932,70.0,120.0,240.0,12.0,0.0
933,84.0,0.0,120.0,11.0,0.0
934,87.0,24.0,120.0,10.0,0.0
935,75.0,24.0,180.0,12.0,0.0
936,85.0,168.0,90.0,10.0,0.0
937,82.0,0.0,90.0,11.0,0.0
938,84.0,0.0,150.0,10.0,0.0
939,56.0,0.0,150.0,13.0,0.0
940,80.0,0.0,150.0,11.0,0.0
941,75.0,0.0,150.0,12.0,0.0
942,44.0,240.0,150.0,14.0,0.0
943,85.0,0.0,150.0,10.0,0.0
944,77.0,0.0,150.0,11.0,0.0
945,73.0,816.0,150.0,12.0,0.0
946,49.0,0.0,150.0,13.0,0.0
947,37.0,0.0,150.0,14.0,0.0
948,56.0,0.0,240.0,13.0,0.0
949,44.0,72.0,240.0,14.0,0.0
950,68.0,0.0,240.0,12.0,0.0
951,75.0,0.0,240.0,11.0,0.0
952,84.0,0.0,240.0,10.0,0.0
953,77.0,192.0,240.0,11.0,0.0
954,85.0,120.0,60.0,10.0,0.0
955,65.0,0.0,180.0,12.0,0.0
956,61.0,0.0,180.0,13.0,0.0
957,49.0,0.0,180.0,14.0,0.0
958,82.0,48.0,60.0,10.0,0.0
959,73.0,0.0,180.0,11.0,0.0
960,70.0,48.0,180.0,12.0,0.0
961,77.0,192.0,240.0,10.0,0.0
962,46.0,0.0,240.0,14.0,0.0
963,58.0,0.0,240.0,13.0,0.0
964,79.0,12.0,240.0,10.0,0.0
965,73.0,240.0,240.0,11.0,0.0
966,63.0,0.0,180.0,13.0,0.0
967,51.0,36.0,180.0,14.0,0.0
968,70.0,0.0,180.0,12.0,0.0
969,68.0,0.0,240.0,12.0,0.0
970,80.0,48.0,390.0,10.0,0.0
971,44.0,0.0,240.0,14.0,0.0
972,72.0,0.0,240.0,11.0,0.0
973,56.0,72.0,240.0,13.0,0.0
974,37.0,0.0,180.0,14.0,0.0
975,73.0,72.0,60.0,11.0,0.0
976,49.0,288.0,180.0,13.0,0.0
977,65.0,0.0,180.0,12.0,0.0
978,70.0,0.0,60.0,11.0,0.0
979,46.0,0.0,240.0,13.0,0.0
980,65.0,0.0,240.0,11.0,0.0
981,34.0,192.0,240.0,14.0,0.0
982,61.0,0.0,240.0,12.0,0.0
983,58.0,0.0,180.0,12.0,0.0
984,39.0,0.0,180.0,14.0,0.0
985,51.0,36.0,180.0,13.0,0.0
986,67.0,204.0,240.0,11.0,0.0
987,60.0,48.0,180.0,12.0,0.0
988,75.0,0.0,240.0,10.0,0.0
989,44.0,72.0,240.0,14.0,0.0
990,56.0,0.0,240.0,13.0,0.0
991,68.0,0.0,720.0,11.0,0.0
992,49.0,0.0,180.0,13.0,0.0
993,77.0,120.0,60.0,10.0,0.0
994,61.0,96.0,390.0,12.0,0.0
995,37.0,192.0,180.0,14.0,0.0
996,73.0,0.0,60.0,10.0,0.0
997,54.0,0.0,240.0,13.0,0.0
998,70.0,0.0,240.0,10.0,0.0
999,42.0,192.0,240.0,14.0,0.0
1000,75.0,12.0,240.0,10.0,0.0
1001,51.0,0.0,180.0,13.0,0.0
1002,63.0,0.0,180.0,12.0,0.0
1003,66.0,480.0,240.0,11.0,0.0
1004,39.0,36.0,180.0,14.0,0.0
1005,65.0,0.0,480.0,11.0,0.0
1006,73.0,0.0,480.0,10.0,0.0
1007,55.0,144.0,240.0,13.0,0.0
1008,43.0,0.0,240.0,14.0,0.0
1009,55.0,0.0,240.0,12.0,0.0
1010,44.0,0.0,180.0,14.0,0.0
1011,63.0,0.0,180.0,11.0,0.0
1012,56.0,0.0,180.0,13.0,0.0
1013,72.0,48.0,150.0,10.0,0.0
1014,56.0,192.0,180.0,12.0,0.0
1015,53.0,0.0,150.0,13.0,0.0
1016,73.0,0.0,150.0,10.0,0.0
1017,65.0,0.0,150.0,12.0,0.0
1018,68.0,528.0,150.0,11.0,0.0
1019,41.0,0.0,150.0,14.0,0.0
1020,70.0,432.0,480.0,10.0,0.0
1021,61.0,0.0,180.0,12.0,0.0
1022,54.0,0.0,180.0,13.0,0.0
1023,66.0,0.0,180.0,11.0,0.0
1024,42.0,48.0,180.0,14.0,0.0
1025,78.0,480.0,480.0,10.0,0.0
1026,63.0,0.0,180.0,12.0,0.0
1027,70.0,0.0,180.0,11.0,0.0
1028,51.0,0.0,180.0,13.0,0.0
1029,39.0,48.0,180.0,14.0,0.0
1030,70.0,0.0,480.0,10.0,0.0
1031,40.0,144.0,240.0,14.0,0.0
1032,67.0,0.0,240.0,12.0,0.0
1033,52.0,0.0,240.0,13.0,0.0
1034,61.0,0.0,240.0,11.0,0.0
1035,53.0,0.0,180.0,13.0,0.0
1036,60.0,0.0,180.0,11.0,0.0
1037,69.0,48.0,150.0,10.0,0.0
1038,41.0,192.0,180.0,14.0,0.0
1039,65.0,0.0,180.0,12.0,0.0
1040,65.0,528.0,150.0,10.0,0.0
1041,77.0,144.0,450.0,10.0,0.0
1042,58.0,0.0,180.0,12.0,0.0
1043,37.0,0.0,180.0,14.0,0.0
1044,65.0,0.0,180.0,11.0,0.0
1045,49.0,24.0,180.0,13.0,0.0
1046,75.0,114.0,120.0,10.0,0.0
1047,73.0,126.0,120.0,10.0,0.0
1048,72.0,72.0,120.0,10.0,0.0
1049,46.0,0.0,180.0,13.0,0.0
1050,65.0,0.0,180.0,11.0,0.0
1051,61.0,0.0,180.0,12.0,0.0
1052,34.0,42.0,180.0,14.0,0.0
1053,70.0,486.0,120.0,10.0,0.0
1054,68.0,0.0,480.0,10.0,0.0
1055,59.0,144.0,240.0,12.0,0.0
1056,50.0,0.0,240.0,13.0,0.0
1057,38.0,0.0,240.0,14.0,0.0
1058,65.0,0.0,240.0,11.0,0.0
1059,63.0,0.0,180.0,11.0,0.0
1060,51.0,0.0,180.0,13.0,0.0
1061,67.0,48.0,150.0,10.0,0.0
1062,39.0,0.0,180.0,14.0,0.0
1063,58.0,192.0,180.0,12.0,0.0
1064,63.0,408.0,180.0,11.0,0.0
1065,63.0,48.0,150.0,10.0,0.0
1066,72.0,36.0,360.0,11.0,0.0
1067,75.0,0.0,360.0,10.0,0.0
1068,44.0,0.0,150.0,14.0,0.0
1069,56.0,0.0,150.0,13.0,0.0
1070,68.0,60.0,150.0,12.0,0.0
1071,73.0,168.0,90.0,11.0,0.0
1072,77.0,0.0,90.0,10.0,0.0
1073,56.0,0.0,150.0,12.0,0.0
1074,44.0,144.0,150.0,14.0,0.0
1075,78.0,0.0,150.0,10.0,0.0
1076,56.0,0.0,150.0,13.0,0.0
1077,75.0,12.0,150.0,11.0,0.0
1078,60.0,0.0,240.0,11.0,0.0
1079,56.0,24.0,150.0,12.0,0.0
1080,66.0,0.0,240.0,10.0,0.0
1081,56.0,0.0,60.0,13.0,0.0
1082,44.0,60.0,60.0,14.0,0.0
1083,54.0,36.0,60.0,13.0,0.0
1084,42.0,0.0,60.0,14.0,0.0
1085,53.0,0.0,60.0,13.0,0.0
1086,41.0,60.0,60.0,14.0,0.0
1087,51.0,0.0,60.0,13.0,0.0
1088,39.0,156.0,60.0,14.0,0.0
1089,65.0,0.0,150.0,10.0,0.0
1090,49.0,0.0,390.0,13.0,0.0
1091,56.0,12.0,390.0,12.0,0.0
1092,61.0,228.0,150.0,11.0,0.0
1093,37.0,0.0,390.0,14.0,0.0
1094,77.0,0.0,150.0,11.0,0.0
1095,80.0,240.0,150.0,10.0,0.0
1096,77.0,144.0,150.0,11.0,0.0
1097,80.0,0.0,150.0,10.0,0.0
1098,61.0,60.0,60.0,13.0,0.0
1099,77.0,24.0,150.0,11.0,0.0
1100,49.0,0.0,60.0,14.0,0.0
1101,80.0,0.0,150.0,10.0,0.0
1102,65.0,0.0,60.0,12.0,0.0
1103,48.0,0.0,60.0,14.0,0.0
1104,63.0,0.0,60.0,12.0,0.0
1105,60.0,36.0,60.0,13.0,0.0
1106,61.0,0.0,60.0,12.0,0.0
1107,46.0,0.0,60.0,14.0,0.0
1108,58.0,60.0,60.0,13.0,0.0
1109,60.0,0.0,60.0,12.0,0.0
1110,44.0,156.0,60.0,14.0,0.0
1111,56.0,0.0,60.0,13.0,0.0
1112,58.0,0.0,390.0,12.0,0.0
1113,61.0,228.0,150.0,11.0,0.0
1114,42.0,12.0,390.0,14.0,0.0
1115,54.0,0.0,390.0,13.0,0.0
1116,66.0,0.0,150.0,10.0,0.0
1117,73.0,0.0,150.0,11.0,0.0
1118,82.0,240.0,150.0,10.0,0.0
1119,73.0,144.0,150.0,11.0,0.0
1120,82.0,0.0,150.0,10.0,0.0
1121,73.0,24.0,150.0,11.0,0.0
1122,58.0,0.0,60.0,12.0,0.0
1123,54.0,60.0,60.0,13.0,0.0
1124,82.0,0.0,150.0,10.0,0.0
1125,42.0,0.0,60.0,14.0,0.0
1126,56.0,36.0,60.0,12.0,0.0
1127,41.0,0.0,60.0,14.0,0.0
1128,53.0,0.0,60.0,13.0,0.0
1129,42.0,0.0,60.0,14.0,0.0
1130,54.0,60.0,60.0,13.0,0.0
1131,58.0,0.0,60.0,12.0,0.0
1132,39.0,0.0,60.0,14.0,0.0
1133,51.0,156.0,60.0,13.0,0.0
1134,54.0,0.0,60.0,12.0,0.0
1135,65.0,144.0,480.0,11.0,0.0
1136,56.0,0.0,150.0,12.0,0.0
1137,56.0,0.0,150.0,13.0,0.0
1138,73.0,0.0,480.0,10.0,0.0
1139,44.0,240.0,150.0,14.0,0.0
1140,68.0,0.0,150.0,12.0,0.0
1141,68.0,84.0,150.0,13.0,0.0
1142,56.0,0.0,150.0,14.0,0.0
1143,56.0,228.0,150.0,12.0,0.0
1144,63.0,0.0,150.0,11.0,0.0
1145,56.0,0.0,150.0,13.0,0.0
1146,44.0,0.0,150.0,14.0,0.0
1147,72.0,12.0,150.0,10.0,0.0
1148,73.0,336.0,150.0,10.0,0.0
1149,72.0,240.0,240.0,10.0,0.0
1150,73.0,144.0,240.0,10.0,0.0
1151,75.0,240.0,150.0,10.0,0.0
1152,73.0,336.0,150.0,10.0,0.0
1153,75.0,240.0,240.0,10.0,0.0
1154,77.0,144.0,240.0,10.0,0.0
1155,78.0,240.0,150.0,10.0,0.0
1156,77.0,0.0,150.0,10.0,0.0
1157,73.0,336.0,150.0,11.0,0.0
1158,72.0,240.0,240.0,11.0,0.0
1159,75.0,0.0,240.0,10.0,0.0
1160,73.0,0.0,240.0,11.0,0.0
1161,77.0,144.0,240.0,10.0,0.0
1162,78.0,240.0,150.0,10.0,0.0
1163,75.0,0.0,150.0,11.0,0.0
1164,73.0,0.0,150.0,11.0,0.0
1165,77.0,336.0,150.0,10.0,0.0
1166,78.0,0.0,240.0,10.0,0.0
1167,75.0,240.0,240.0,11.0,0.0
1168,80.0,0.0,240.0,10.0,0.0
1169,77.0,144.0,240.0,11.0,0.0
1170,82.0,0.0,150.0,10.0,0.0
1171,78.0,240.0,150.0,11.0,0.0
1172,77.0,0.0,150.0,11.0,0.0
1173,61.0,0.0,150.0,12.0,0.0
1174,49.0,0.0,150.0,14.0,0.0
1175,80.0,0.0,150.0,10.0,0.0
1176,61.0,336.0,150.0,13.0,0.0
1177,75.0,0.0,240.0,11.0,0.0
1178,48.0,240.0,240.0,14.0,0.0
1179,60.0,0.0,240.0,13.0,0.0
1180,80.0,156.0,690.0,10.0,0.0
1181,60.0,0.0,240.0,12.0,0.0
1182,77.0,0.0,240.0,11.0,0.0
1183,61.0,0.0,240.0,12.0,0.0
1184,61.0,144.0,240.0,13.0,0.0
1185,49.0,0.0,240.0,14.0,0.0
1186,63.0,0.0,150.0,13.0,0.0
1187,63.0,0.0,150.0,12.0,0.0
1188,78.0,0.0,150.0,11.0,0.0
1189,51.0,60.0,150.0,14.0,0.0
1190,77.0,0.0,150.0,11.0,0.0
1191,49.0,90.0,150.0,14.0,0.0
1192,61.0,0.0,150.0,12.0,0.0
1193,85.0,24.0,120.0,10.0,0.0
1194,61.0,0.0,150.0,13.0,0.0
1195,73.0,246.0,120.0,10.0,0.0
1196,78.0,0.0,240.0,11.0,0.0
1197,63.0,240.0,240.0,13.0,0.0
1198,63.0,0.0,240.0,12.0,0.0
1199,73.0,156.0,690.0,10.0,0.0
1200,51.0,0.0,240.0,14.0,0.0
1201,65.0,0.0,240.0,12.0,0.0
1202,53.0,144.0,240.0,14.0,0.0
1203,80.0,0.0,240.0,11.0,0.0
1204,65.0,0.0,240.0,13.0,0.0
1205,82.0,0.0,150.0,11.0,0.0
1206,66.0,0.0,150.0,12.0,0.0
1207,66.0,0.0,150.0,13.0,0.0
1208,54.0,60.0,150.0,14.0,0.0
1209,85.0,24.0,120.0,10.0,0.0
1210,80.0,0.0,150.0,11.0,0.0
1211,65.0,0.0,150.0,12.0,0.0
1212,65.0,0.0,150.0,13.0,0.0
1213,53.0,90.0,150.0,14.0,0.0
1214,73.0,234.0,120.0,10.0,0.0
1215,65.0,0.0,240.0,13.0,0.0
1216,65.0,0.0,240.0,12.0,0.0
1217,53.0,120.0,240.0,14.0,0.0
1218,81.0,0.0,240.0,11.0,0.0
1219,73.0,12.0,240.0,10.0,0.0
1220,82.0,0.0,180.0,11.0,0.0
1221,66.0,0.0,180.0,12.0,0.0
1222,66.0,0.0,180.0,13.0,0.0
1223,85.0,72.0,120.0,10.0,0.0
1224,54.0,42.0,180.0,14.0,0.0
1225,73.0,234.0,120.0,10.0,0.0
1226,79.0,120.0,240.0,11.0,0.0
1227,64.0,0.0,240.0,13.0,0.0
1228,73.0,12.0,240.0,10.0,0.0
1229,52.0,0.0,240.0,14.0,0.0
1230,64.0,0.0,240.0,12.0,0.0
1231,80.0,42.0,180.0,11.0,0.0
1232,65.0,0.0,180.0,12.0,0.0
1233,85.0,72.0,120.0,10.0,0.0
1234,65.0,0.0,180.0,13.0,0.0
1235,53.0,0.0,180.0,14.0,0.0
1236,73.0,246.0,120.0,10.0,0.0
1237,66.0,0.0,300.0,12.0,0.0
1238,78.0,180.0,690.0,11.0,0.0
1239,51.0,24.0,300.0,14.0,0.0
1240,73.0,48.0,240.0,10.0,0.0
1241,63.0,0.0,300.0,13.0,0.0
1242,72.0,120.0,60.0,10.0,0.0
1243,61.0,168.0,90.0,13.0,0.0
1244,65.0,0.0,90.0,12.0,0.0
1245,49.0,0.0,90.0,14.0,0.0
1246,70.0,24.0,60.0,10.0,0.0
1247,48.0,0.0,150.0,14.0,0.0
1248,68.0,0.0,150.0,10.0,0.0
1249,63.0,0.0,150.0,12.0,0.0
1250,60.0,60.0,150.0,13.0,0.0
1251,44.0,0.0,150.0,14.0,0.0
1252,78.0,0.0,150.0,10.0,0.0
1253,56.0,0.0,150.0,13.0,0.0
1254,63.0,0.0,150.0,12.0,0.0
1255,72.0,176.0,150.0,11.0,0.0
1256,49.0,0.0,150.0,14.0,0.0
1257,61.0,4.0,150.0,13.0,0.0
1258,61.0,76.0,90.0,12.0,0.0
1259,73.0,76.0,330.0,11.0,0.0
1260,77.0,0.0,90.0,10.0,0.0
1261,78.0,80.0,90.0,10.0,0.0
1262,63.0,0.0,90.0,12.0,0.0
1263,80.0,0.0,90.0,10.0,0.0
1264,65.0,80.0,90.0,12.0,0.0
1265,82.0,0.0,90.0,10.0,0.0
1266,42.0,0.0,150.0,14.0,0.0
1267,66.0,60.0,180.0,12.0,0.0
1268,54.0,4.0,150.0,13.0,0.0
1269,78.0,0.0,90.0,10.0,0.0
1270,70.0,20.0,90.0,11.0,0.0
1271,75.0,0.0,90.0,10.0,0.0
1272,66.0,0.0,90.0,11.0,0.0
1273,70.0,144.0,60.0,12.0,0.0
1274,68.0,0.0,150.0,12.0,0.0
1275,73.0,0.0,150.0,10.0,0.0
1276,65.0,12.0,150.0,11.0,0.0
1277,56.0,228.0,150.0,13.0,0.0
1278,44.0,0.0,150.0,14.0,0.0
1279,63.0,12.0,150.0,11.0,0.0
1280,44.0,0.0,150.0,13.0,0.0
1281,66.0,0.0,150.0,12.0,0.0
1282,32.0,0.0,150.0,14.0,0.0
1283,72.0,240.0,150.0,10.0,0.0
1284,49.0,0.0,390.0,13.0,0.0
1285,73.0,228.0,150.0,10.0,0.0
1286,61.0,0.0,390.0,11.0,0.0
1287,65.0,0.0,390.0,12.0,0.0
1288,37.0,12.0,390.0,14.0,0.0
1289,61.0,384.0,150.0,10.0,0.0
1290,89.0,0.0,480.0,10.0,0.0
1291,82.0,120.0,60.0,11.0,0.0
1292,61.0,0.0,240.0,13.0,0.0
1293,73.0,0.0,240.0,12.0,0.0
1294,49.0,0.0,240.0,14.0,0.0
1295,80.0,60.0,120.0,11.0,0.0
1296,79.0,144.0,60.0,11.0,0.0
1297,87.0,48.0,150.0,10.0,0.0
1298,48.0,0.0,180.0,14.0,0.0
1299,72.0,0.0,180.0,12.0,0.0
1300,60.0,192.0,180.0,13.0,0.0
1301,80.0,0.0,180.0,11.0,0.0
1302,80.0,120.0,480.0,11.0,0.0
1303,60.0,0.0,240.0,13.0,0.0
1304,75.0,0.0,240.0,12.0,0.0
1305,48.0,240.0,240.0,14.0,0.0
1306,80.0,96.0,150.0,10.0,0.0
1307,61.0,0.0,240.0,13.0,0.0
1308,82.0,60.0,360.0,10.0,0.0
1309,77.0,0.0,240.0,12.0,0.0
1310,49.0,0.0,240.0,14.0,0.0
1311,51.0,0.0,240.0,14.0,0.0
1312,75.0,0.0,240.0,12.0,0.0
1313,63.0,0.0,240.0,13.0,0.0
1314,79.0,240.0,240.0,11.0,0.0
1315,84.0,48.0,60.0,10.0,0.0
1316,85.0,12.0,40.0,10.0,0.0
1317,53.0,48.0,390.0,14.0,0.0
1318,65.0,0.0,390.0,13.0,0.0
1319,80.0,0.0,390.0,11.0,0.0
1320,77.0,0.0,390.0,12.0,0.0
1321,85.0,144.0,240.0,10.0,0.0
1322,84.0,504.0,180.0,10.0,0.0
1323,77.0,24.0,450.0,10.0,0.0
1324,49.0,0.0,240.0,13.0,0.0
1325,37.0,0.0,240.0,14.0,0.0
1326,67.0,120.0,240.0,11.0,0.0
1327,58.0,0.0,240.0,12.0,0.0
1328,36.0,0.0,180.0,14.0,0.0
1329,60.0,0.0,180.0,12.0,0.0
1330,68.0,24.0,180.0,11.0,0.0
1331,48.0,0.0,180.0,13.0,0.0
1332,75.0,72.0,120.0,10.0,0.0
1333,80.0,144.0,90.0,10.0,0.0
1334,41.0,0.0,240.0,14.0,0.0
1335,68.0,96.0,120.0,10.0,0.0
1336,61.0,144.0,240.0,12.0,0.0
1337,53.0,0.0,240.0,13.0,0.0
1338,68.0,30.0,480.0,11.0,0.0
1339,73.0,24.0,90.0,10.0,0.0
1340,72.0,48.0,180.0,10.0,0.0
1341,39.0,0.0,150.0,14.0,0.0
1342,63.0,0.0,240.0,12.0,0.0
1343,51.0,48.0,150.0,13.0,0.0
1344,61.0,144.0,240.0,12.0,0.0
1345,39.0,6.0,150.0,14.0,0.0
1346,67.0,0.0,240.0,11.0,0.0
1347,51.0,0.0,150.0,13.0,0.0
1348,72.0,30.0,30.0,10.0,0.0
1349,70.0,30.0,30.0,10.0,0.0
1350,72.0,30.0,30.0,10.0,0.0
1351,70.0,24.0,30.0,10.0,0.0
1352,72.0,30.0,30.0,10.0,0.0
1353,70.0,30.0,30.0,10.0,0.0
1354,72.0,30.0,30.0,10.0,0.0
1355,70.0,0.0,30.0,10.0,0.0
1356,68.0,0.0,390.0,11.0,0.0
1357,60.0,396.0,390.0,12.0,0.0
1358,68.0,240.0,150.0,10.0,0.0
1359,56.0,0.0,390.0,13.0,0.0
1360,44.0,0.0,390.0,14.0,0.0
1361,80.0,0.0,150.0,10.0,0.0
1362,82.0,0.0,480.0,10.0,0.0
1363,54.0,0.0,240.0,14.0,0.0
1364,66.0,144.0,240.0,13.0,0.0
1365,75.0,120.0,60.0,11.0,0.0
1366,66.0,0.0,240.0,12.0,0.0
1367,73.0,60.0,120.0,11.0,0.0
1368,72.0,0.0,60.0,11.0,0.0
1369,65.0,192.0,180.0,12.0,0.0
1370,53.0,0.0,180.0,14.0,0.0
1371,80.0,48.0,150.0,10.0,0.0
1372,73.0,0.0,180.0,11.0,0.0
1373,65.0,0.0,180.0,13.0,0.0
1374,73.0,96.0,150.0,10.0,0.0
1375,41.0,240.0,240.0,14.0,0.0
1376,53.0,0.0,240.0,13.0,0.0
1377,68.0,0.0,240.0,12.0,0.0
1378,73.0,0.0,480.0,11.0,0.0
1379,70.0,0.0,240.0,12.0,0.0
1380,54.0,120.0,240.0,13.0,0.0
1381,75.0,60.0,360.0,10.0,0.0
1382,42.0,0.0,240.0,14.0,0.0
1383,44.0,0.0,240.0,14.0,0.0
1384,56.0,0.0,240.0,13.0,0.0
1385,68.0,72.0,240.0,12.0,0.0
1386,77.0,48.0,60.0,10.0,0.0
1387,78.0,12.0,40.0,10.0,0.0
1388,49.0,48.0,390.0,13.0,0.0
1389,72.0,0.0,15.0,11.0,0.0
1390,37.0,0.0,390.0,14.0,0.0
1391,68.0,120.0,60.0,12.0,0.0
1392,78.0,72.0,240.0,10.0,0.0
1393,56.0,48.0,60.0,12.0,0.0
1394,56.0,72.0,60.0,12.0,0.0
1395,73.0,0.0,180.0,11.0,0.0
1396,77.0,120.0,180.0,10.0,0.0
1397,56.0,0.0,60.0,12.0,0.0
1398,48.0,60.0,120.0,14.0,0.0
1399,60.0,0.0,120.0,13.0,0.0
1400,56.0,60.0,60.0,12.0,0.0
1401,63.0,12.0,360.0,10.0,0.0
1402,56.0,120.0,60.0,12.0,0.0
1403,56.0,48.0,60.0,12.0,0.0
1404,44.0,0.0,120.0,14.0,0.0
1405,56.0,48.0,120.0,13.0,0.0
1406,56.0,36.0,60.0,12.0,0.0
1407,65.0,12.0,60.0,10.0,0.0
1408,66.0,84.0,40.0,10.0,0.0
1409,65.0,12.0,120.0,10.0,0.0
1410,61.0,60.0,120.0,13.0,0.0
1411,49.0,0.0,120.0,14.0,0.0
1412,56.0,48.0,60.0,12.0,0.0
1413,61.0,36.0,690.0,11.0,0.0
1414,66.0,72.0,120.0,10.0,0.0
1415,56.0,48.0,60.0,12.0,0.0
1416,56.0,48.0,60.0,12.0,0.0
1417,44.0,60.0,120.0,14.0,0.0
1418,56.0,0.0,120.0,13.0,0.0
1419,68.0,12.0,120.0,10.0,0.0
1420,70.0,72.0,120.0,10.0,0.0
1421,56.0,48.0,60.0,12.0,0.0
1422,68.0,12.0,120.0,10.0,0.0
1423,65.0,0.0,120.0,13.0,0.0
1424,53.0,60.0,120.0,14.0,0.0
1425,56.0,48.0,60.0,12.0,0.0
1426,56.0,12.0,60.0,12.0,0.0
1427,70.0,72.0,120.0,10.0,0.0
1428,56.0,48.0,60.0,12.0,0.0
1429,56.0,24.0,120.0,13.0,0.0
1430,77.0,36.0,150.0,11.0,0.0
1431,44.0,0.0,120.0,14.0,0.0
1432,72.0,12.0,120.0,10.0,0.0
1433,56.0,24.0,60.0,12.0,0.0
1434,73.0,96.0,90.0,10.0,0.0
1435,73.0,72.0,240.0,10.0,0.0
1436,51.0,0.0,120.0,14.0,0.0
1437,78.0,108.0,690.0,11.0,0.0
1438,63.0,60.0,120.0,13.0,0.0
1439,56.0,60.0,60.0,12.0,0.0
1440,56.0,48.0,60.0,12.0,0.0
1441,44.0,0.0,120.0,14.0,0.0
1442,56.0,60.0,120.0,13.0,0.0
1443,56.0,60.0,60.0,12.0,0.0
1444,72.0,120.0,180.0,10.0,0.0
1445,56.0,0.0,60.0,12.0,0.0
1446,60.0,60.0,120.0,13.0,0.0
1447,48.0,0.0,120.0,14.0,0.0
1448,63.0,12.0,360.0,10.0,0.0
1449,56.0,60.0,60.0,12.0,0.0
1450,56.0,12.0,60.0,12.0,0.0
1451,44.0,0.0,120.0,14.0,0.0
1452,56.0,48.0,60.0,12.0,0.0
1453,56.0,24.0,120.0,13.0,0.0
1454,60.0,24.0,150.0,11.0,0.0
1455,65.0,12.0,60.0,10.0,0.0
1456,56.0,36.0,60.0,12.0,0.0
1457,66.0,84.0,40.0,10.0,0.0
1458,56.0,0.0,60.0,12.0,0.0
1459,61.0,60.0,120.0,13.0,0.0
1460,49.0,0.0,120.0,14.0,0.0
1461,61.0,108.0,690.0,11.0,0.0
1462,65.0,60.0,60.0,10.0,0.0
1463,66.0,0.0,60.0,10.0,0.0
1464,56.0,120.0,60.0,12.0,0.0
1465,44.0,0.0,120.0,14.0,0.0
1466,56.0,0.0,60.0,12.0,0.0
1467,68.0,60.0,60.0,10.0,0.0
1468,56.0,60.0,120.0,13.0,0.0
1469,56.0,0.0,60.0,12.0,0.0
1470,70.0,120.0,60.0,10.0,0.0
1471,68.0,0.0,60.0,10.0,0.0
1472,65.0,60.0,120.0,13.0,0.0
1473,53.0,0.0,120.0,14.0,0.0
1474,56.0,60.0,60.0,12.0,0.0
1475,70.0,12.0,60.0,10.0,0.0
1476,56.0,0.0,60.0,12.0,0.0
1477,44.0,0.0,120.0,14.0,0.0
1478,77.0,36.0,150.0,11.0,0.0
1479,72.0,60.0,60.0,10.0,0.0
1480,56.0,24.0,120.0,13.0,0.0
1481,56.0,0.0,60.0,12.0,0.0
1482,56.0,120.0,60.0,12.0,0.0
1483,73.0,0.0,60.0,10.0,0.0
1484,73.0,72.0,240.0,10.0,0.0
1485,51.0,60.0,120.0,14.0,0.0
1486,78.0,108.0,690.0,11.0,0.0
1487,63.0,0.0,120.0,13.0,0.0
1488,56.0,60.0,60.0,12.0,0.0
1489,56.0,48.0,60.0,12.0,0.0
1490,56.0,60.0,120.0,13.0,0.0
1491,56.0,60.0,60.0,12.0,0.0
1492,44.0,0.0,120.0,14.0,0.0
1493,72.0,120.0,180.0,10.0,0.0
1494,56.0,0.0,60.0,12.0,0.0
1495,60.0,60.0,120.0,13.0,0.0
1496,63.0,12.0,360.0,10.0,0.0
1497,56.0,60.0,60.0,12.0,0.0
1498,48.0,0.0,120.0,14.0,0.0
1499,56.0,12.0,60.0,12.0,0.0
1500,44.0,0.0,120.0,14.0,0.0
1501,56.0,24.0,120.0,13.0,0.0
1502,56.0,48.0,60.0,12.0,0.0
1503,60.0,24.0,150.0,11.0,0.0
1504,65.0,12.0,60.0,10.0,0.0
1505,56.0,36.0,60.0,12.0,0.0
1506,66.0,204.0,40.0,10.0,0.0
1507,37.0,0.0,390.0,14.0,0.0
1508,56.0,0.0,390.0,12.0,0.0
1509,61.0,36.0,390.0,11.0,0.0
1510,65.0,108.0,180.0,10.0,0.0
1511,49.0,0.0,390.0,13.0,0.0
1512,80.0,60.0,60.0,10.0,0.0
1513,77.0,24.0,60.0,10.0,0.0
1514,80.0,60.0,60.0,10.0,0.0
1515,77.0,144.0,60.0,10.0,0.0
1516,73.0,240.0,150.0,10.0,0.0
1517,41.0,0.0,150.0,14.0,0.0
1518,65.0,396.0,150.0,12.0,0.0
1519,68.0,0.0,150.0,11.0,0.0
1520,53.0,0.0,150.0,13.0,0.0
1521,70.0,0.0,390.0,11.0,0.0
1522,54.0,0.0,390.0,13.0,0.0
1523,66.0,0.0,390.0,12.0,0.0
1524,42.0,36.0,390.0,14.0,0.0
1525,80.0,60.0,60.0,10.0,0.0
1526,77.0,24.0,60.0,10.0,0.0
1527,80.0,60.0,60.0,10.0,0.0
1528,77.0,144.0,60.0,10.0,0.0
1529,73.0,240.0,150.0,10.0,0.0
1530,56.0,288.0,150.0,12.0,0.0
1531,44.0,0.0,150.0,14.0,0.0
1532,65.0,0.0,150.0,11.0,0.0
1533,56.0,0.0,150.0,13.0,0.0
1534,58.0,108.0,180.0,12.0,0.0
1535,58.0,0.0,180.0,13.0,0.0
1536,46.0,0.0,180.0,14.0,0.0
1537,66.0,0.0,180.0,11.0,0.0
1538,80.0,60.0,60.0,10.0,0.0
1539,77.0,60.0,60.0,10.0,0.0
1540,80.0,60.0,60.0,10.0,0.0
1541,77.0,144.0,60.0,10.0,0.0
1542,41.0,0.0,180.0,14.0,0.0
1543,68.0,0.0,180.0,11.0,0.0
1544,65.0,108.0,180.0,12.0,0.0
1545,53.0,0.0,180.0,13.0,0.0
1546,73.0,48.0,150.0,10.0,0.0
1547,80.0,60.0,60.0,10.0,0.0
1548,77.0,60.0,60.0,10.0,0.0
1549,80.0,60.0,60.0,10.0,0.0
1550,77.0,120.0,60.0,10.0,0.0
1551,70.0,102.0,120.0,11.0,0.0
1552,73.0,0.0,120.0,10.0,0.0
1553,82.0,78.0,90.0,10.0,0.0
1554,78.0,0.0,90.0,11.0,0.0
1555,66.0,0.0,60.0,13.0,0.0
1556,70.0,0.0,60.0,12.0,0.0
1557,54.0,60.0,60.0,14.0,0.0
1558,78.0,0.0,450.0,11.0,0.0
1559,82.0,24.0,450.0,10.0,0.0
1560,51.0,60.0,60.0,14.0,0.0
1561,63.0,0.0,60.0,13.0,0.0
1562,66.0,0.0,60.0,12.0,0.0
1563,66.0,60.0,60.0,13.0,0.0
1564,70.0,0.0,60.0,12.0,0.0
1565,54.0,0.0,60.0,14.0,0.0
1566,66.0,0.0,60.0,12.0,0.0
1567,63.0,216.0,60.0,13.0,0.0
1568,51.0,0.0,60.0,14.0,0.0
1569,63.0,120.0,240.0,12.0,0.0
1570,48.0,0.0,450.0,14.0,0.0
1571,60.0,6.0,450.0,13.0,0.0
1572,80.0,96.0,120.0,10.0,0.0
1573,68.0,152.0,240.0,12.0,0.0
1574,77.0,0.0,120.0,11.0,0.0
1575,75.0,6.0,90.0,11.0,0.0
1576,78.0,0.0,90.0,10.0,0.0
1577,68.0,0.0,150.0,12.0,0.0
1578,73.0,0.0,150.0,11.0,0.0
1579,61.0,0.0,150.0,13.0,0.0
1580,77.0,0.0,150.0,10.0,0.0
1581,49.0,240.0,150.0,14.0,0.0
1582,70.0,0.0,150.0,11.0,0.0
1583,42.0,0.0,150.0,14.0,0.0
1584,78.0,0.0,150.0,10.0,0.0
1585,54.0,0.0,150.0,13.0,0.0
1586,66.0,820.0,150.0,12.0,0.0
1587,77.0,72.0,240.0,10.0,0.0
1588,37.0,0.0,240.0,14.0,0.0
1589,68.0,0.0,240.0,11.0,0.0
1590,49.0,0.0,240.0,13.0,0.0
1591,61.0,0.0,240.0,12.0,0.0
1592,78.0,120.0,60.0,10.0,0.0
1593,70.0,192.0,240.0,11.0,0.0
1594,42.0,0.0,180.0,14.0,0.0
1595,54.0,0.0,180.0,13.0,0.0
1596,58.0,0.0,240.0,12.0,0.0
1597,75.0,48.0,60.0,10.0,0.0
1598,66.0,0.0,180.0,11.0,0.0
1599,63.0,48.0,180.0,12.0,0.0
1600,51.0,0.0,240.0,13.0,0.0
1601,70.0,192.0,240.0,10.0,0.0
1602,39.0,0.0,240.0,14.0,0.0
1603,63.0,0.0,180.0,12.0,0.0
1604,72.0,0.0,180.0,10.0,0.0
1605,44.0,0.0,180.0,14.0,0.0
1606,56.0,48.0,180.0,13.0,0.0
1607,66.0,192.0,240.0,11.0,0.0
1608,65.0,48.0,180.0,11.0,0.0
1609,61.0,0.0,240.0,12.0,0.0
1610,37.0,72.0,240.0,14.0,0.0
1611,49.0,0.0,240.0,13.0,0.0
1612,73.0,48.0,390.0,10.0,0.0
1613,65.0,0.0,180.0,12.0,0.0
1614,73.0,72.0,60.0,11.0,0.0
1615,49.0,288.0,180.0,14.0,0.0
1616,61.0,0.0,180.0,13.0,0.0
1617,70.0,0.0,60.0,11.0,0.0
1618,61.0,0.0,240.0,12.0,0.0
1619,58.0,0.0,240.0,13.0,0.0
1620,46.0,192.0,240.0,14.0,0.0
1621,65.0,0.0,240.0,11.0,0.0
1622,67.0,192.0,240.0,11.0,0.0
1623,58.0,48.0,180.0,12.0,0.0
1624,51.0,0.0,180.0,14.0,0.0
1625,63.0,0.0,180.0,13.0,0.0
1626,68.0,144.0,570.0,11.0,0.0
1627,75.0,0.0,240.0,10.0,0.0
1628,56.0,0.0,240.0,13.0,0.0
1629,44.0,72.0,240.0,14.0,0.0
1630,60.0,48.0,180.0,12.0,0.0
1631,49.0,0.0,180.0,13.0,0.0
1632,61.0,0.0,480.0,12.0,0.0
1633,77.0,120.0,60.0,10.0,0.0
1634,37.0,144.0,180.0,14.0,0.0
1635,73.0,0.0,60.0,10.0,0.0
1636,54.0,0.0,240.0,13.0,0.0
1637,70.0,0.0,240.0,10.0,0.0
1638,42.0,192.0,240.0,14.0,0.0
1639,63.0,480.0,240.0,12.0,0.0
1640,39.0,0.0,180.0,14.0,0.0
1641,66.0,48.0,180.0,11.0,0.0
1642,75.0,0.0,180.0,10.0,0.0
1643,51.0,0.0,180.0,13.0,0.0
1644,65.0,0.0,480.0,11.0,0.0
1645,73.0,0.0,480.0,10.0,0.0
1646,55.0,192.0,240.0,12.0,0.0
1647,43.0,0.0,240.0,14.0,0.0
1648,55.0,0.0,240.0,13.0,0.0
1649,72.0,0.0,180.0,10.0,0.0
1650,44.0,0.0,180.0,14.0,0.0
1651,56.0,192.0,180.0,12.0,0.0
1652,56.0,0.0,180.0,13.0,0.0
1653,63.0,0.0,180.0,11.0,0.0
1654,82.0,0.0,150.0,10.0,0.0
1655,78.0,576.0,150.0,11.0,0.0
1656,75.0,0.0,480.0,11.0,0.0
1657,78.0,0.0,480.0,10.0,0.0
1658,36.0,0.0,240.0,14.0,0.0
1659,60.0,192.0,240.0,12.0,0.0
1660,48.0,0.0,240.0,13.0,0.0
1661,61.0,0.0,180.0,12.0,0.0
1662,37.0,168.0,180.0,14.0,0.0
1663,77.0,0.0,180.0,10.0,0.0
1664,73.0,0.0,180.0,11.0,0.0
1665,49.0,0.0,180.0,13.0,0.0
1666,71.0,0.0,240.0,11.0,0.0
1667,85.0,96.0,120.0,10.0,0.0
1668,53.0,0.0,240.0,13.0,0.0
1669,68.0,0.0,240.0,12.0,0.0
1670,41.0,192.0,240.0,14.0,0.0
1671,73.0,24.0,90.0,10.0,0.0
1672,66.0,0.0,180.0,12.0,0.0
1673,73.0,0.0,180.0,10.0,0.0
1674,70.0,0.0,180.0,11.0,0.0
1675,54.0,0.0,180.0,13.0,0.0
1676,42.0,168.0,180.0,14.0,0.0
1677,55.0,192.0,240.0,13.0,0.0
1678,43.0,0.0,240.0,14.0,0.0
1679,87.0,96.0,120.0,10.0,0.0
1680,73.0,0.0,240.0,11.0,0.0
1681,70.0,0.0,240.0,12.0,0.0
1682,75.0,24.0,90.0,10.0,0.0
1683,44.0,0.0,180.0,14.0,0.0
1684,56.0,0.0,180.0,13.0,0.0
1685,75.0,0.0,180.0,10.0,0.0
1686,68.0,168.0,180.0,12.0,0.0
1687,72.0,0.0,180.0,11.0,0.0
1688,75.0,192.0,240.0,11.0,0.0
1689,72.0,0.0,240.0,12.0,0.0
1690,57.0,0.0,240.0,13.0,0.0
1691,45.0,0.0,240.0,14.0,0.0
1692,89.0,96.0,120.0,10.0,0.0
1693,77.0,24.0,90.0,10.0,0.0
1694,46.0,0.0,180.0,14.0,0.0
1695,73.0,0.0,180.0,11.0,0.0
1696,70.0,0.0,180.0,12.0,0.0
1697,58.0,0.0,180.0,13.0,0.0
1698,77.0,168.0,180.0,10.0,0.0
1699,51.0,36.0,180.0,14.0,0.0
1700,72.0,0.0,180.0,11.0,0.0
1701,68.0,0.0,180.0,12.0,0.0
1702,90.0,60.0,120.0,10.0,0.0
1703,63.0,0.0,180.0,13.0,0.0
1704,78.0,12.0,90.0,10.0,0.0
1705,73.0,0.0,40.0,11.0,0.0
1706,49.0,0.0,40.0,14.0,0.0
1707,70.0,156.0,40.0,12.0,0.0
1708,61.0,0.0,40.0,13.0,0.0
1709,75.0,0.0,150.0,11.0,0.0
1710,68.0,0.0,150.0,12.0,0.0
1711,78.0,12.0,150.0,10.0,0.0
1712,48.0,0.0,150.0,14.0,0.0
1713,60.0,228.0,150.0,13.0,0.0
1714,68.0,0.0,150.0,11.0,0.0
1715,48.0,0.0,150.0,14.0,0.0
1716,60.0,164.0,150.0,13.0,0.0
1717,75.0,12.0,150.0,10.0,0.0
1718,68.0,0.0,150.0,12.0,0.0
1719,73.0,76.0,330.0,11.0,0.0
1720,61.0,0.0,150.0,13.0,0.0
1721,68.0,76.0,90.0,12.0,0.0
1722,49.0,4.0,150.0,14.0,0.0
1723,77.0,0.0,90.0,10.0,0.0
1724,78.0,80.0,90.0,10.0,0.0
1725,66.0,0.0,90.0,12.0,0.0
1726,65.0,0.0,90.0,12.0,0.0
1727,80.0,80.0,90.0,10.0,0.0
1728,63.0,0.0,90.0,12.0,0.0
1729,54.0,0.0,150.0,13.0,0.0
1730,42.0,4.0,150.0,14.0,0.0
1731,82.0,0.0,90.0,10.0,0.0
1732,66.0,0.0,90.0,12.0,0.0
1733,78.0,64.0,90.0,10.0,0.0
1734,70.0,0.0,90.0,11.0,0.0
1735,70.0,172.0,60.0,12.0,0.0
1736,66.0,0.0,60.0,11.0,0.0
1737,75.0,0.0,60.0,10.0,0.0
1738,68.0,114.0,150.0,12.0,0.0
1739,65.0,0.0,150.0,11.0,0.0
1740,44.0,0.0,150.0,14.0,0.0
1741,56.0,0.0,150.0,13.0,0.0
1742,73.0,0.0,150.0,10.0,0.0
1743,68.0,0.0,30.0,12.0,0.0
1744,65.0,30.0,30.0,11.0,0.0
1745,32.0,0.0,150.0,14.0,0.0
1746,73.0,0.0,30.0,10.0,0.0
1747,44.0,24.0,150.0,13.0,0.0
1748,66.0,30.0,30.0,12.0,0.0
1749,63.0,0.0,30.0,11.0,0.0
1750,72.0,0.0,30.0,10.0,0.0
1751,73.0,0.0,30.0,10.0,0.0
1752,65.0,30.0,30.0,11.0,0.0
1753,68.0,0.0,30.0,12.0,0.0
1754,72.0,0.0,30.0,10.0,0.0
1755,66.0,30.0,30.0,12.0,0.0
1756,63.0,0.0,30.0,11.0,0.0
1757,73.0,6.0,30.0,10.0,0.0
1758,65.0,0.0,30.0,11.0,0.0
1759,68.0,0.0,30.0,12.0,0.0
1760,63.0,30.0,30.0,11.0,0.0
1761,66.0,0.0,30.0,12.0,0.0
1762,72.0,0.0,30.0,10.0,0.0
1763,73.0,0.0,30.0,10.0,0.0
1764,68.0,30.0,30.0,12.0,0.0
1765,65.0,0.0,30.0,11.0,0.0
1766,63.0,0.0,30.0,11.0,0.0
1767,66.0,0.0,30.0,12.0,0.0
1768,72.0,144.0,30.0,10.0,0.0
1769,61.0,0.0,390.0,11.0,0.0
1770,49.0,0.0,390.0,13.0,0.0
1771,65.0,96.0,390.0,12.0,0.0
1772,73.0,240.0,150.0,10.0,0.0
1773,37.0,0.0,390.0,14.0,0.0
1774,68.0,144.0,240.0,10.0,0.0
1775,77.0,240.0,150.0,10.0,0.0
1776,44.0,0.0,150.0,14.0,0.0
1777,63.0,0.0,150.0,12.0,0.0
1778,56.0,240.0,150.0,13.0,0.0
1779,72.0,0.0,150.0,10.0,0.0
1780,66.0,0.0,150.0,11.0,0.0
1781,65.0,336.0,150.0,11.0,0.0
1782,61.0,0.0,150.0,12.0,0.0
1783,73.0,0.0,150.0,10.0,0.0
1784,49.0,0.0,150.0,14.0,0.0
1785,61.0,0.0,150.0,13.0,0.0
1786,68.0,144.0,240.0,10.0,0.0
1787,80.0,240.0,150.0,10.0,0.0
1788,72.0,0.0,150.0,10.0,0.0
1789,66.0,228.0,150.0,11.0,0.0
1790,63.0,0.0,150.0,12.0,0.0
1791,56.0,0.0,150.0,13.0,0.0
1792,44.0,0.0,150.0,14.0,0.0
1793,37.0,0.0,150.0,14.0,0.0
1794,73.0,12.0,120.0,10.0,0.0
1795,65.0,0.0,120.0,11.0,0.0
1796,49.0,228.0,150.0,13.0,0.0
1797,61.0,0.0,120.0,12.0,0.0
1798,66.0,12.0,120.0,11.0,0.0
1799,56.0,228.0,150.0,13.0,0.0
1800,63.0,0.0,120.0,12.0,0.0
1801,72.0,0.0,120.0,10.0,0.0
1802,44.0,0.0,150.0,14.0,0.0
1803,65.0,12.0,120.0,11.0,0.0
1804,73.0,0.0,120.0,10.0,0.0
1805,61.0,0.0,120.0,12.0,0.0
1806,49.0,0.0,150.0,14.0,0.0
1807,61.0,228.0,150.0,13.0,0.0
1808,72.0,12.0,120.0,10.0,0.0
1809,56.0,288.0,150.0,13.0,0.0
1810,66.0,0.0,120.0,11.0,0.0
1811,44.0,0.0,150.0,14.0,0.0
1812,63.0,0.0,120.0,12.0,0.0
1813,37.0,0.0,180.0,14.0,0.0
1814,73.0,0.0,180.0,10.0,0.0
1815,65.0,0.0,180.0,11.0,0.0
1816,61.0,0.0,180.0,12.0,0.0
1817,49.0,2112.0,180.0,13.0,0.0
1818,37.0,0.0,390.0,14.0,0.0
