,note,step,duration,channel,velocity
0,75.0,120.0,120.0,0.0,0.0
1,73.0,120.0,120.0,0.0,0.0
2,71.0,120.0,120.0,0.0,0.0
3,70.0,240.0,120.0,0.0,0.0
4,68.0,240.0,240.0,0.0,0.0
5,66.0,0.0,240.0,0.0,0.0
6,54.0,240.0,240.0,0.0,0.0
7,58.0,240.0,240.0,0.0,0.0
8,66.0,240.0,720.0,0.0,0.0
9,61.0,240.0,240.0,0.0,0.0
10,58.0,0.0,240.0,0.0,0.0
11,54.0,0.0,240.0,0.0,0.0
12,70.0,240.0,240.0,0.0,0.0
13,75.0,0.0,240.0,0.0,0.0
14,58.0,240.0,240.0,0.0,0.0
15,70.0,480.0,240.0,0.0,0.0
16,63.0,0.0,240.0,0.0,0.0
17,73.0,240.0,480.0,0.0,0.0
18,56.0,0.0,240.0,0.0,0.0
19,71.0,0.0,720.0,0.0,0.0
20,59.0,240.0,240.0,0.0,0.0
21,63.0,240.0,240.0,0.0,0.0
22,59.0,120.0,240.0,0.0,0.0
23,73.0,120.0,120.0,0.0,0.0
24,56.0,120.0,240.0,0.0,0.0
25,75.0,0.0,120.0,0.0,0.0
26,73.0,120.0,120.0,0.0,0.0
27,59.0,120.0,240.0,0.0,0.0
28,71.0,0.0,120.0,0.0,0.0
29,63.0,480.0,240.0,0.0,0.0
30,70.0,120.0,120.0,0.0,0.0
31,68.0,0.0,120.0,0.0,0.0
32,66.0,0.0,480.0,0.0,0.0
33,49.0,240.0,240.0,0.0,0.0
34,65.0,0.0,720.0,0.0,0.0
35,56.0,240.0,240.0,0.0,0.0
36,59.0,240.0,240.0,0.0,0.0
37,56.0,240.0,240.0,0.0,0.0
38,49.0,240.0,240.0,0.0,0.0
39,65.0,0.0,240.0,0.0,0.0
40,66.0,240.0,240.0,0.0,0.0
41,56.0,0.0,240.0,0.0,0.0
42,59.0,480.0,240.0,0.0,0.0
43,68.0,0.0,240.0,0.0,0.0
44,68.0,0.0,480.0,0.0,0.0
45,65.0,240.0,480.0,0.0,0.0
46,54.0,0.0,240.0,0.0,0.0
47,70.0,240.0,480.0,0.0,0.0
48,58.0,240.0,240.0,0.0,0.0
49,66.0,0.0,480.0,0.0,0.0
50,61.0,0.0,240.0,0.0,0.0
51,58.0,120.0,240.0,0.0,0.0
52,54.0,120.0,240.0,0.0,0.0
53,73.0,120.0,120.0,0.0,0.0
54,72.0,0.0,120.0,0.0,0.0
55,75.0,120.0,120.0,0.0,0.0
56,58.0,120.0,240.0,0.0,0.0
57,73.0,0.0,120.0,0.0,0.0
58,61.0,0.0,240.0,0.0,0.0
59,71.0,120.0,120.0,0.0,0.0
60,70.0,240.0,120.0,0.0,0.0
61,59.0,0.0,240.0,0.0,0.0
62,70.0,240.0,240.0,0.0,0.0
63,63.0,240.0,240.0,0.0,0.0
64,68.0,240.0,480.0,0.0,0.0
65,58.0,0.0,240.0,0.0,0.0
66,61.0,240.0,240.0,0.0,0.0
67,66.0,0.0,240.0,0.0,0.0
68,70.0,0.0,240.0,0.0,0.0
69,59.0,240.0,240.0,0.0,0.0
70,63.0,240.0,240.0,0.0,0.0
71,68.0,240.0,480.0,0.0,0.0
72,56.0,0.0,240.0,0.0,0.0
73,65.0,120.0,240.0,0.0,0.0
74,59.0,0.0,240.0,0.0,0.0
75,66.0,120.0,120.0,0.0,0.0
76,61.0,120.0,480.0,0.0,0.0
77,58.0,0.0,480.0,0.0,0.0
78,68.0,120.0,120.0,0.0,0.0
79,66.0,120.0,120.0,0.0,0.0
80,65.0,0.0,120.0,0.0,0.0
81,66.0,120.0,120.0,0.0,0.0
82,68.0,120.0,120.0,0.0,0.0
83,70.0,120.0,120.0,0.0,0.0
84,71.0,120.0,120.0,0.0,0.0
85,72.0,120.0,120.0,0.0,0.0
86,73.0,120.0,120.0,0.0,0.0
87,72.0,120.0,120.0,0.0,0.0
88,73.0,120.0,120.0,0.0,0.0
89,75.0,120.0,120.0,0.0,0.0
90,73.0,120.0,120.0,0.0,0.0
91,71.0,120.0,120.0,0.0,0.0
92,70.0,240.0,120.0,0.0,0.0
93,70.0,240.0,240.0,0.0,0.0
94,59.0,0.0,240.0,0.0,0.0
95,63.0,240.0,240.0,0.0,0.0
96,68.0,0.0,15.0,0.0,0.0
97,58.0,240.0,240.0,0.0,0.0
98,61.0,0.0,240.0,0.0,0.0
99,66.0,240.0,240.0,0.0,0.0
100,59.0,240.0,240.0,0.0,0.0
101,70.0,0.0,240.0,0.0,0.0
102,63.0,0.0,240.0,0.0,0.0
103,56.0,0.0,240.0,0.0,0.0
104,68.0,240.0,15.0,0.0,0.0
105,59.0,0.0,240.0,0.0,0.0
106,65.0,240.0,240.0,0.0,0.0
107,61.0,0.0,480.0,0.0,0.0
108,58.0,120.0,480.0,0.0,0.0
109,66.0,120.0,240.0,0.0,0.0
110,68.0,120.0,120.0,0.0,0.0
111,70.0,0.0,120.0,0.0,0.0
112,71.0,120.0,120.0,0.0,0.0
113,73.0,120.0,120.0,0.0,0.0
114,75.0,120.0,120.0,0.0,0.0
115,77.0,120.0,120.0,0.0,0.0
116,78.0,120.0,120.0,0.0,0.0
117,80.0,120.0,120.0,0.0,0.0
118,82.0,120.0,120.0,0.0,0.0
119,83.0,120.0,120.0,0.0,0.0
120,85.0,240.0,120.0,0.0,0.0
121,85.0,360.0,120.0,0.0,0.0
122,73.0,120.0,1200.0,0.0,0.0
123,53.0,240.0,480.0,0.0,0.0
124,85.0,240.0,240.0,0.0,0.0
125,83.0,240.0,480.0,0.0,0.0
126,54.0,0.0,480.0,0.0,0.0
127,47.0,120.0,480.0,0.0,0.0
128,82.0,240.0,15.0,0.0,0.0
129,71.0,120.0,120.0,0.0,0.0
130,80.0,0.0,120.0,0.0,0.0
131,49.0,240.0,480.0,0.0,0.0
132,70.0,240.0,120.0,0.0,0.0
133,78.0,0.0,120.0,0.0,0.0
134,68.0,120.0,120.0,0.0,0.0
135,77.0,0.0,120.0,0.0,0.0
136,70.0,120.0,240.0,0.0,0.0
137,78.0,0.0,240.0,0.0,0.0
138,42.0,240.0,120.0,0.0,0.0
139,46.0,120.0,120.0,0.0,0.0
140,66.0,120.0,240.0,0.0,0.0
141,49.0,600.0,120.0,0.0,0.0
142,54.0,120.0,480.0,0.0,0.0
143,63.0,120.0,120.0,0.0,0.0
144,61.0,120.0,120.0,0.0,0.0
145,59.0,120.0,120.0,0.0,0.0
146,58.0,240.0,120.0,0.0,0.0
147,56.0,240.0,240.0,0.0,0.0
148,42.0,0.0,240.0,0.0,0.0
149,46.0,240.0,240.0,0.0,0.0
150,54.0,240.0,15.0,0.0,0.0
151,49.0,240.0,240.0,0.0,0.0
152,46.0,0.0,240.0,0.0,0.0
153,66.0,0.0,240.0,0.0,0.0
154,42.0,240.0,240.0,0.0,0.0
155,46.0,0.0,240.0,0.0,0.0
156,65.0,240.0,240.0,0.0,0.0
157,63.0,0.0,240.0,0.0,0.0
158,49.0,480.0,240.0,0.0,0.0
159,61.0,0.0,480.0,0.0,0.0
160,44.0,240.0,240.0,0.0,0.0
161,60.0,120.0,600.0,0.0,0.0
162,51.0,240.0,240.0,0.0,0.0
163,54.0,120.0,240.0,0.0,0.0
164,51.0,120.0,240.0,0.0,0.0
165,63.0,0.0,120.0,0.0,0.0
166,61.0,120.0,120.0,0.0,0.0
167,44.0,120.0,240.0,0.0,0.0
168,65.0,0.0,120.0,0.0,0.0
169,63.0,120.0,120.0,0.0,0.0
170,51.0,0.0,240.0,0.0,0.0
171,66.0,120.0,120.0,0.0,0.0
172,54.0,120.0,240.0,0.0,0.0
173,65.0,120.0,120.0,0.0,0.0
174,68.0,0.0,120.0,0.0,0.0
175,66.0,120.0,120.0,0.0,0.0
176,63.0,120.0,120.0,0.0,0.0
177,72.0,120.0,120.0,0.0,0.0
178,48.0,120.0,240.0,0.0,0.0
179,68.0,0.0,120.0,0.0,0.0
180,75.0,120.0,120.0,0.0,0.0
181,51.0,0.0,240.0,0.0,0.0
182,72.0,120.0,120.0,0.0,0.0
183,78.0,120.0,120.0,0.0,0.0
184,56.0,0.0,240.0,0.0,0.0
185,77.0,120.0,120.0,0.0,0.0
186,51.0,120.0,240.0,0.0,0.0
187,78.0,120.0,120.0,0.0,0.0
188,77.0,0.0,120.0,0.0,0.0
189,48.0,0.0,240.0,0.0,0.0
190,75.0,120.0,120.0,0.0,0.0
191,73.0,120.0,120.0,0.0,0.0
192,51.0,0.0,240.0,0.0,0.0
193,72.0,120.0,120.0,0.0,0.0
194,70.0,120.0,120.0,0.0,0.0
195,68.0,120.0,120.0,0.0,0.0
196,56.0,120.0,240.0,0.0,0.0
197,66.0,0.0,120.0,0.0,0.0
198,66.0,120.0,120.0,0.0,0.0
199,65.0,120.0,120.0,0.0,0.0
200,70.0,120.0,120.0,0.0,0.0
201,49.0,0.0,240.0,0.0,0.0
202,68.0,240.0,120.0,0.0,0.0
203,53.0,240.0,240.0,0.0,0.0
204,68.0,240.0,480.0,0.0,0.0
205,56.0,0.0,240.0,0.0,0.0
206,53.0,240.0,240.0,0.0,0.0
207,49.0,120.0,240.0,0.0,0.0
208,82.0,120.0,120.0,0.0,0.0
209,53.0,120.0,240.0,0.0,0.0
210,80.0,0.0,120.0,0.0,0.0
211,56.0,0.0,240.0,0.0,0.0
212,78.0,120.0,120.0,0.0,0.0
213,77.0,240.0,120.0,0.0,0.0
214,75.0,0.0,720.0,0.0,0.0
215,54.0,240.0,240.0,0.0,0.0
216,56.0,240.0,240.0,0.0,0.0
217,54.0,240.0,240.0,0.0,0.0
218,72.0,0.0,240.0,0.0,0.0
219,56.0,60.0,240.0,0.0,0.0
220,53.0,120.0,240.0,0.0,0.0
221,73.0,180.0,60.0,0.0,0.0
222,80.0,0.0,120.0,0.0,0.0
223,79.0,120.0,120.0,0.0,0.0
224,56.0,120.0,240.0,0.0,0.0
225,80.0,0.0,120.0,0.0,0.0
226,82.0,120.0,120.0,0.0,0.0
227,53.0,0.0,240.0,0.0,0.0
228,80.0,120.0,120.0,0.0,0.0
229,56.0,120.0,240.0,0.0,0.0
230,78.0,120.0,120.0,0.0,0.0
231,77.0,0.0,120.0,0.0,0.0
232,75.0,120.0,120.0,0.0,0.0
233,54.0,240.0,240.0,0.0,0.0
234,75.0,240.0,480.0,0.0,0.0
235,56.0,240.0,240.0,0.0,0.0
236,54.0,0.0,240.0,0.0,0.0
237,56.0,0.0,240.0,0.0,0.0
238,72.0,60.0,240.0,0.0,0.0
239,53.0,120.0,240.0,0.0,0.0
240,73.0,180.0,60.0,0.0,0.0
241,80.0,0.0,120.0,0.0,0.0
242,79.0,120.0,120.0,0.0,0.0
243,56.0,0.0,240.0,0.0,0.0
244,80.0,120.0,120.0,0.0,0.0
245,82.0,120.0,120.0,0.0,0.0
246,53.0,120.0,240.0,0.0,0.0
247,80.0,0.0,120.0,0.0,0.0
248,56.0,0.0,240.0,0.0,0.0
249,78.0,120.0,120.0,0.0,0.0
250,77.0,240.0,120.0,0.0,0.0
251,54.0,0.0,240.0,0.0,0.0
252,77.0,240.0,240.0,0.0,0.0
253,58.0,0.0,240.0,0.0,0.0
254,75.0,240.0,240.0,0.0,0.0
255,54.0,240.0,240.0,0.0,0.0
256,75.0,0.0,240.0,0.0,0.0
257,58.0,240.0,240.0,0.0,0.0
258,75.0,240.0,240.0,0.0,0.0
259,55.0,0.0,240.0,0.0,0.0
260,73.0,0.0,240.0,0.0,0.0
261,58.0,240.0,240.0,0.0,0.0
262,55.0,240.0,240.0,0.0,0.0
263,58.0,0.0,240.0,0.0,0.0
264,73.0,120.0,240.0,0.0,0.0
265,56.0,120.0,480.0,0.0,0.0
266,72.0,120.0,120.0,0.0,0.0
267,73.0,120.0,120.0,0.0,0.0
268,72.0,120.0,120.0,0.0,0.0
269,68.0,0.0,120.0,0.0,0.0
270,73.0,120.0,120.0,0.0,0.0
271,58.0,120.0,480.0,0.0,0.0
272,75.0,120.0,120.0,0.0,0.0
273,73.0,120.0,120.0,0.0,0.0
274,68.0,0.0,120.0,0.0,0.0
275,60.0,120.0,480.0,0.0,0.0
276,75.0,120.0,120.0,0.0,0.0
277,77.0,120.0,120.0,0.0,0.0
278,75.0,120.0,120.0,0.0,0.0
279,68.0,0.0,120.0,0.0,0.0
280,77.0,120.0,120.0,0.0,0.0
281,61.0,120.0,480.0,0.0,0.0
282,78.0,120.0,120.0,0.0,0.0
283,77.0,120.0,120.0,0.0,0.0
284,68.0,0.0,120.0,0.0,0.0
285,63.0,120.0,240.0,0.0,0.0
286,78.0,120.0,120.0,0.0,0.0
287,68.0,240.0,240.0,0.0,0.0
288,78.0,120.0,120.0,0.0,0.0
289,60.0,120.0,240.0,0.0,0.0
290,68.0,240.0,240.0,0.0,0.0
291,75.0,120.0,120.0,0.0,0.0
292,78.0,120.0,240.0,0.0,0.0
293,61.0,0.0,240.0,0.0,0.0
294,68.0,120.0,240.0,0.0,0.0
295,77.0,120.0,120.0,0.0,0.0
296,58.0,120.0,240.0,0.0,0.0
297,75.0,120.0,120.0,0.0,0.0
298,73.0,120.0,120.0,0.0,0.0
299,68.0,120.0,240.0,0.0,0.0
300,72.0,120.0,120.0,0.0,0.0
301,56.0,120.0,480.0,0.0,0.0
302,68.0,120.0,120.0,0.0,0.0
303,79.0,120.0,120.0,0.0,0.0
304,80.0,0.0,120.0,0.0,0.0
305,73.0,120.0,120.0,0.0,0.0
306,58.0,0.0,480.0,0.0,0.0
307,68.0,120.0,120.0,0.0,0.0
308,79.0,120.0,120.0,0.0,0.0
309,80.0,120.0,120.0,0.0,0.0
310,60.0,0.0,480.0,0.0,0.0
311,75.0,120.0,120.0,0.0,0.0
312,68.0,120.0,120.0,0.0,0.0
313,79.0,120.0,120.0,0.0,0.0
314,80.0,120.0,120.0,0.0,0.0
315,61.0,120.0,480.0,0.0,0.0
316,77.0,120.0,120.0,0.0,0.0
317,68.0,120.0,120.0,0.0,0.0
318,79.0,120.0,120.0,0.0,0.0
319,80.0,0.0,120.0,0.0,0.0
320,63.0,120.0,120.0,0.0,0.0
321,78.0,0.0,120.0,0.0,0.0
322,68.0,120.0,120.0,0.0,0.0
323,78.0,0.0,120.0,0.0,0.0
324,67.0,120.0,120.0,0.0,0.0
325,68.0,120.0,120.0,0.0,0.0
326,60.0,120.0,120.0,0.0,0.0
327,68.0,60.0,120.0,0.0,0.0
328,77.0,60.0,60.0,0.0,0.0
329,67.0,0.0,120.0,0.0,0.0
330,75.0,60.0,60.0,0.0,0.0
331,68.0,0.0,120.0,0.0,0.0
332,74.0,60.0,60.0,0.0,0.0
333,75.0,120.0,60.0,0.0,0.0
334,61.0,120.0,120.0,0.0,0.0
335,78.0,0.0,240.0,0.0,0.0
336,68.0,120.0,120.0,0.0,0.0
337,77.0,0.0,120.0,0.0,0.0
338,67.0,120.0,120.0,0.0,0.0
339,68.0,120.0,120.0,0.0,0.0
340,58.0,0.0,120.0,0.0,0.0
341,75.0,120.0,120.0,0.0,0.0
342,67.0,120.0,120.0,0.0,0.0
343,73.0,0.0,120.0,0.0,0.0
344,65.0,120.0,120.0,0.0,0.0
345,67.0,120.0,120.0,0.0,0.0
346,56.0,0.0,480.0,0.0,0.0
347,72.0,120.0,120.0,0.0,0.0
348,80.0,120.0,120.0,0.0,0.0
349,75.0,120.0,120.0,0.0,0.0
350,72.0,0.0,120.0,0.0,0.0
351,68.0,120.0,15.0,0.0,0.0
352,63.0,120.0,120.0,0.0,0.0
353,60.0,120.0,120.0,0.0,0.0
354,56.0,240.0,120.0,0.0,0.0
355,44.0,1440.0,240.0,0.0,0.0
356,32.0,0.0,240.0,0.0,0.0
357,49.0,120.0,960.0,0.0,0.0
358,61.0,0.0,720.0,0.0,0.0
359,65.0,0.0,720.0,0.0,0.0
360,37.0,0.0,960.0,0.0,0.0
361,56.0,120.0,720.0,0.0,0.0
362,68.0,0.0,720.0,0.0,0.0
363,70.0,120.0,120.0,0.0,0.0
364,68.0,0.0,120.0,0.0,0.0
365,66.0,240.0,120.0,0.0,0.0
366,65.0,240.0,120.0,0.0,0.0
367,63.0,240.0,120.0,0.0,0.0
368,61.0,360.0,120.0,0.0,0.0
369,61.0,240.0,240.0,0.0,0.0
370,70.0,720.0,240.0,0.0,0.0
371,61.0,0.0,720.0,0.0,0.0
372,70.0,240.0,720.0,0.0,0.0
373,42.0,0.0,960.0,0.0,0.0
374,54.0,0.0,960.0,0.0,0.0
375,68.0,240.0,240.0,0.0,0.0
376,53.0,0.0,480.0,0.0,0.0
377,72.0,240.0,240.0,0.0,0.0
378,55.0,0.0,480.0,0.0,0.0
379,58.0,240.0,480.0,0.0,0.0
380,73.0,240.0,15.0,0.0,0.0
381,63.0,240.0,480.0,0.0,0.0
382,56.0,240.0,480.0,0.0,0.0
383,65.0,0.0,240.0,0.0,0.0
384,55.0,240.0,480.0,0.0,0.0
385,73.0,240.0,240.0,0.0,0.0
386,58.0,0.0,480.0,0.0,0.0
387,63.0,240.0,480.0,0.0,0.0
388,56.0,0.0,480.0,0.0,0.0
389,65.0,480.0,240.0,0.0,0.0
390,58.0,0.0,480.0,0.0,0.0
391,68.0,60.0,15.0,0.0,0.0
392,60.0,0.0,480.0,0.0,0.0
393,66.0,60.0,60.0,0.0,0.0
394,68.0,60.0,60.0,0.0,0.0
395,66.0,60.0,60.0,0.0,0.0
396,68.0,60.0,60.0,0.0,0.0
397,66.0,60.0,60.0,0.0,0.0
398,65.0,60.0,60.0,0.0,0.0
399,66.0,120.0,60.0,0.0,0.0
400,65.0,360.0,120.0,0.0,0.0
401,61.0,240.0,480.0,0.0,0.0
402,65.0,0.0,240.0,0.0,0.0
403,66.0,240.0,240.0,0.0,0.0
404,68.0,240.0,240.0,0.0,0.0
405,69.0,240.0,240.0,0.0,0.0
406,70.0,0.0,480.0,0.0,0.0
407,42.0,240.0,240.0,0.0,0.0
408,46.0,120.0,240.0,0.0,0.0
409,68.0,120.0,120.0,0.0,0.0
410,51.0,240.0,240.0,0.0,0.0
411,66.0,0.0,120.0,0.0,0.0
412,65.0,240.0,240.0,0.0,0.0
413,54.0,0.0,480.0,0.0,0.0
414,63.0,240.0,240.0,0.0,0.0
415,65.0,240.0,240.0,0.0,0.0
416,66.0,240.0,240.0,0.0,0.0
417,70.0,240.0,240.0,0.0,0.0
418,68.0,120.0,480.0,0.0,0.0
419,41.0,240.0,240.0,0.0,0.0
420,44.0,0.0,240.0,0.0,0.0
421,66.0,120.0,120.0,0.0,0.0
422,49.0,240.0,240.0,0.0,0.0
423,65.0,0.0,120.0,0.0,0.0
424,63.0,240.0,240.0,0.0,0.0
425,53.0,240.0,480.0,0.0,0.0
426,61.0,0.0,240.0,0.0,0.0
427,63.0,240.0,240.0,0.0,0.0
428,65.0,240.0,240.0,0.0,0.0
429,51.0,240.0,480.0,0.0,0.0
430,68.0,240.0,240.0,0.0,0.0
431,66.0,240.0,480.0,0.0,0.0
432,48.0,240.0,480.0,0.0,0.0
433,63.0,0.0,240.0,0.0,0.0
434,66.0,240.0,240.0,0.0,0.0
435,49.0,240.0,480.0,0.0,0.0
436,65.0,240.0,480.0,0.0,0.0
437,46.0,120.0,480.0,0.0,0.0
438,61.0,0.0,240.0,0.0,0.0
439,60.0,120.0,120.0,0.0,0.0
440,44.0,120.0,480.0,0.0,0.0
441,61.0,120.0,120.0,0.0,0.0
442,60.0,120.0,120.0,0.0,0.0
443,61.0,0.0,120.0,0.0,0.0
444,67.0,120.0,120.0,0.0,0.0
445,68.0,120.0,120.0,0.0,0.0
446,67.0,120.0,120.0,0.0,0.0
447,68.0,120.0,120.0,0.0,0.0
448,56.0,120.0,480.0,0.0,0.0
449,44.0,120.0,120.0,0.0,0.0
450,46.0,120.0,120.0,0.0,0.0
451,42.0,120.0,120.0,0.0,0.0
452,44.0,0.0,120.0,0.0,0.0
453,41.0,120.0,120.0,0.0,0.0
454,42.0,120.0,120.0,0.0,0.0
455,39.0,120.0,120.0,0.0,0.0
456,41.0,480.0,120.0,0.0,0.0
457,68.0,0.0,720.0,0.0,0.0
458,37.0,240.0,480.0,0.0,0.0
459,65.0,120.0,720.0,0.0,0.0
460,49.0,0.0,480.0,0.0,0.0
461,70.0,120.0,120.0,0.0,0.0
462,68.0,120.0,120.0,0.0,0.0
463,66.0,240.0,120.0,0.0,0.0
464,65.0,240.0,120.0,0.0,0.0
465,63.0,240.0,120.0,0.0,0.0
466,61.0,360.0,120.0,0.0,0.0
467,61.0,240.0,240.0,0.0,0.0
468,70.0,720.0,240.0,0.0,0.0
469,54.0,0.0,960.0,0.0,0.0
470,42.0,0.0,960.0,0.0,0.0
471,70.0,240.0,720.0,0.0,0.0
472,61.0,0.0,720.0,0.0,0.0
473,68.0,240.0,240.0,0.0,0.0
474,53.0,240.0,480.0,0.0,0.0
475,72.0,240.0,240.0,0.0,0.0
476,73.0,240.0,480.0,0.0,0.0
477,58.0,0.0,480.0,0.0,0.0
478,55.0,240.0,480.0,0.0,0.0
479,63.0,0.0,240.0,0.0,0.0
480,65.0,240.0,240.0,0.0,0.0
481,56.0,240.0,480.0,0.0,0.0
482,73.0,240.0,480.0,0.0,0.0
483,58.0,240.0,480.0,0.0,0.0
484,55.0,0.0,480.0,0.0,0.0
485,63.0,0.0,240.0,0.0,0.0
486,65.0,120.0,240.0,0.0,0.0
487,56.0,480.0,480.0,0.0,0.0
488,73.0,120.0,120.0,0.0,0.0
489,61.0,0.0,480.0,0.0,0.0
490,58.0,0.0,480.0,0.0,0.0
491,68.0,240.0,480.0,0.0,0.0
492,63.0,120.0,480.0,0.0,0.0
493,60.0,0.0,480.0,0.0,0.0
494,67.0,240.0,240.0,0.0,0.0
495,66.0,0.0,240.0,0.0,0.0
496,65.0,360.0,120.0,0.0,0.0
497,61.0,240.0,480.0,0.0,0.0
498,65.0,0.0,240.0,0.0,0.0
499,66.0,240.0,240.0,0.0,0.0
500,68.0,240.0,240.0,0.0,0.0
501,69.0,240.0,240.0,0.0,0.0
502,46.0,120.0,240.0,0.0,0.0
503,70.0,120.0,480.0,0.0,0.0
504,58.0,120.0,120.0,0.0,0.0
505,72.0,0.0,120.0,0.0,0.0
506,56.0,120.0,120.0,0.0,0.0
507,74.0,120.0,120.0,0.0,0.0
508,75.0,120.0,120.0,0.0,0.0
509,54.0,0.0,120.0,0.0,0.0
510,77.0,120.0,120.0,0.0,0.0
511,42.0,0.0,240.0,0.0,0.0
512,78.0,120.0,120.0,0.0,0.0
513,77.0,120.0,120.0,0.0,0.0
514,54.0,0.0,120.0,0.0,0.0
515,75.0,120.0,120.0,0.0,0.0
516,77.0,120.0,120.0,0.0,0.0
517,53.0,120.0,120.0,0.0,0.0
518,73.0,0.0,120.0,0.0,0.0
519,75.0,120.0,120.0,0.0,0.0
520,72.0,120.0,120.0,0.0,0.0
521,51.0,0.0,240.0,0.0,0.0
522,73.0,120.0,120.0,0.0,0.0
523,70.0,120.0,120.0,0.0,0.0
524,49.0,120.0,240.0,0.0,0.0
525,72.0,0.0,120.0,0.0,0.0
526,48.0,0.0,240.0,0.0,0.0
527,68.0,120.0,120.0,0.0,0.0
528,70.0,120.0,120.0,0.0,0.0
529,44.0,120.0,240.0,0.0,0.0
530,66.0,120.0,120.0,0.0,0.0
531,68.0,0.0,120.0,0.0,0.0
532,65.0,120.0,120.0,0.0,0.0
533,49.0,0.0,480.0,0.0,0.0
534,66.0,120.0,120.0,0.0,0.0
535,68.0,120.0,120.0,0.0,0.0
536,70.0,120.0,120.0,0.0,0.0
537,72.0,120.0,120.0,0.0,0.0
538,41.0,120.0,480.0,0.0,0.0
539,73.0,120.0,120.0,0.0,0.0
540,72.0,120.0,120.0,0.0,0.0
541,73.0,0.0,120.0,0.0,0.0
542,42.0,0.0,480.0,0.0,0.0
543,75.0,120.0,120.0,0.0,0.0
544,73.0,120.0,120.0,0.0,0.0
545,72.0,120.0,120.0,0.0,0.0
546,70.0,120.0,120.0,0.0,0.0
547,72.0,120.0,120.0,0.0,0.0
548,54.0,480.0,480.0,0.0,0.0
549,70.0,120.0,120.0,0.0,0.0
550,68.0,120.0,120.0,0.0,0.0
551,66.0,0.0,120.0,0.0,0.0
552,65.0,0.0,480.0,0.0,0.0
553,56.0,60.0,480.0,0.0,0.0
554,65.0,60.0,60.0,0.0,0.0
555,60.0,0.0,480.0,0.0,0.0
556,44.0,120.0,480.0,0.0,0.0
557,63.0,60.0,60.0,0.0,0.0
558,65.0,60.0,60.0,0.0,0.0
559,63.0,60.0,60.0,0.0,0.0
560,65.0,60.0,60.0,0.0,0.0
561,63.0,60.0,60.0,0.0,0.0
562,61.0,60.0,60.0,0.0,0.0
563,63.0,0.0,60.0,0.0,0.0
564,61.0,0.0,480.0,0.0,0.0
565,49.0,120.0,120.0,0.0,0.0
566,56.0,120.0,120.0,0.0,0.0
567,55.0,120.0,120.0,0.0,0.0
568,56.0,120.0,120.0,0.0,0.0
569,58.0,120.0,120.0,0.0,0.0
570,56.0,120.0,120.0,0.0,0.0
571,55.0,120.0,120.0,0.0,0.0
572,56.0,120.0,120.0,0.0,0.0
573,54.0,120.0,120.0,0.0,0.0
574,56.0,120.0,120.0,0.0,0.0
575,53.0,120.0,120.0,0.0,0.0
576,54.0,120.0,120.0,0.0,0.0
577,51.0,120.0,120.0,0.0,0.0
578,56.0,120.0,120.0,0.0,0.0
579,49.0,120.0,120.0,0.0,0.0
580,56.0,120.0,120.0,0.0,0.0
581,78.0,0.0,240.0,0.0,0.0
582,48.0,120.0,120.0,0.0,0.0
583,56.0,120.0,120.0,0.0,0.0
584,75.0,120.0,120.0,0.0,0.0
585,51.0,0.0,120.0,0.0,0.0
586,56.0,120.0,120.0,0.0,0.0
587,54.0,120.0,120.0,0.0,0.0
588,72.0,0.0,120.0,0.0,0.0
589,56.0,120.0,120.0,0.0,0.0
590,72.0,120.0,120.0,0.0,0.0
591,54.0,0.0,120.0,0.0,0.0
592,56.0,120.0,120.0,0.0,0.0
593,78.0,120.0,240.0,0.0,0.0
594,48.0,120.0,120.0,0.0,0.0
595,56.0,0.0,120.0,0.0,0.0
596,75.0,0.0,120.0,0.0,0.0
597,54.0,120.0,120.0,0.0,0.0
598,56.0,120.0,120.0,0.0,0.0
599,72.0,120.0,120.0,0.0,0.0
600,54.0,0.0,120.0,0.0,0.0
601,56.0,120.0,120.0,0.0,0.0
602,72.0,120.0,120.0,0.0,0.0
603,54.0,0.0,120.0,0.0,0.0
604,56.0,120.0,120.0,0.0,0.0
605,53.0,0.0,120.0,0.0,0.0
606,73.0,120.0,120.0,0.0,0.0
607,56.0,120.0,120.0,0.0,0.0
608,48.0,0.0,120.0,0.0,0.0
609,75.0,120.0,120.0,0.0,0.0
610,56.0,120.0,120.0,0.0,0.0
611,49.0,0.0,120.0,0.0,0.0
612,77.0,120.0,120.0,0.0,0.0
613,56.0,120.0,120.0,0.0,0.0
614,78.0,120.0,120.0,0.0,0.0
615,51.0,0.0,120.0,0.0,0.0
616,56.0,120.0,120.0,0.0,0.0
617,79.0,0.0,240.0,0.0,0.0
618,52.0,120.0,120.0,0.0,0.0
619,56.0,120.0,120.0,0.0,0.0
620,53.0,120.0,120.0,0.0,0.0
621,80.0,0.0,240.0,0.0,0.0
622,56.0,120.0,120.0,0.0,0.0
623,79.0,0.0,240.0,0.0,0.0
624,52.0,120.0,120.0,0.0,0.0
625,56.0,120.0,120.0,0.0,0.0
626,53.0,120.0,120.0,0.0,0.0
627,80.0,0.0,240.0,0.0,0.0
628,56.0,120.0,120.0,0.0,0.0
629,78.0,0.0,240.0,0.0,0.0
630,48.0,120.0,120.0,0.0,0.0
631,56.0,120.0,120.0,0.0,0.0
632,51.0,0.0,120.0,0.0,0.0
633,75.0,120.0,120.0,0.0,0.0
634,56.0,120.0,120.0,0.0,0.0
635,54.0,0.0,120.0,0.0,0.0
636,72.0,120.0,120.0,0.0,0.0
637,56.0,120.0,120.0,0.0,0.0
638,54.0,0.0,120.0,0.0,0.0
639,72.0,120.0,120.0,0.0,0.0
640,56.0,120.0,120.0,0.0,0.0
641,78.0,120.0,240.0,0.0,0.0
642,48.0,120.0,120.0,0.0,0.0
643,56.0,0.0,120.0,0.0,0.0
644,54.0,120.0,120.0,0.0,0.0
645,75.0,0.0,120.0,0.0,0.0
646,56.0,120.0,120.0,0.0,0.0
647,72.0,0.0,120.0,0.0,0.0
648,54.0,120.0,120.0,0.0,0.0
649,56.0,120.0,120.0,0.0,0.0
650,72.0,0.0,120.0,0.0,0.0
651,54.0,120.0,120.0,0.0,0.0
652,56.0,120.0,120.0,0.0,0.0
653,53.0,0.0,120.0,0.0,0.0
654,73.0,120.0,120.0,0.0,0.0
655,56.0,120.0,120.0,0.0,0.0
656,48.0,0.0,120.0,0.0,0.0
657,75.0,120.0,120.0,0.0,0.0
658,56.0,120.0,120.0,0.0,0.0
659,77.0,0.0,120.0,0.0,0.0
660,49.0,120.0,120.0,0.0,0.0
661,56.0,120.0,120.0,0.0,0.0
662,78.0,120.0,120.0,0.0,0.0
663,51.0,0.0,120.0,0.0,0.0
664,56.0,120.0,120.0,0.0,0.0
665,79.0,0.0,240.0,0.0,0.0
666,52.0,120.0,120.0,0.0,0.0
667,56.0,120.0,120.0,0.0,0.0
668,80.0,120.0,240.0,0.0,0.0
669,53.0,120.0,120.0,0.0,0.0
670,56.0,0.0,120.0,0.0,0.0
671,79.0,0.0,240.0,0.0,0.0
672,52.0,120.0,120.0,0.0,0.0
673,56.0,120.0,120.0,0.0,0.0
674,80.0,0.0,240.0,0.0,0.0
675,53.0,120.0,120.0,0.0,0.0
676,56.0,480.0,120.0,0.0,0.0
677,70.0,0.0,960.0,0.0,0.0
678,82.0,480.0,960.0,0.0,0.0
679,54.0,240.0,240.0,0.0,0.0
680,53.0,240.0,240.0,0.0,0.0
681,54.0,0.0,240.0,0.0,0.0
682,60.0,0.0,960.0,0.0,0.0
683,72.0,480.0,960.0,0.0,0.0
684,56.0,240.0,240.0,0.0,0.0
685,55.0,240.0,240.0,0.0,0.0
686,56.0,0.0,240.0,0.0,0.0
687,66.0,0.0,960.0,0.0,0.0
688,78.0,0.0,960.0,0.0,0.0
689,57.0,240.0,240.0,0.0,0.0
690,55.0,240.0,240.0,0.0,0.0
691,57.0,480.0,240.0,0.0,0.0
692,65.0,0.0,960.0,0.0,0.0
693,58.0,240.0,240.0,0.0,0.0
694,57.0,240.0,240.0,0.0,0.0
695,58.0,0.0,240.0,0.0,0.0
696,77.0,120.0,15.0,0.0,0.0
697,75.0,120.0,120.0,0.0,0.0
698,78.0,120.0,120.0,0.0,0.0
699,77.0,120.0,120.0,0.0,0.0
700,80.0,120.0,120.0,0.0,0.0
701,63.0,0.0,480.0,0.0,0.0
702,54.0,480.0,480.0,0.0,0.0
703,78.0,120.0,120.0,0.0,0.0
704,77.0,120.0,120.0,0.0,0.0
705,75.0,0.0,120.0,0.0,0.0
706,65.0,0.0,480.0,0.0,0.0
707,73.0,480.0,480.0,0.0,0.0
708,56.0,0.0,960.0,0.0,0.0
709,66.0,480.0,480.0,0.0,0.0
710,72.0,0.0,480.0,0.0,0.0
711,73.0,240.0,240.0,0.0,0.0
712,72.0,240.0,240.0,0.0,0.0
713,73.0,0.0,240.0,0.0,0.0
714,61.0,480.0,15.0,0.0,0.0
715,65.0,0.0,15.0,0.0,0.0
716,71.0,240.0,240.0,0.0,0.0
717,70.0,240.0,240.0,0.0,0.0
718,71.0,480.0,240.0,0.0,0.0
719,50.0,480.0,960.0,0.0,0.0
720,53.0,0.0,960.0,0.0,0.0
721,56.0,0.0,960.0,0.0,0.0
722,70.0,240.0,240.0,0.0,0.0
723,82.0,120.0,240.0,0.0,0.0
724,82.0,120.0,120.0,0.0,0.0
725,51.0,0.0,960.0,0.0,0.0
726,82.0,240.0,240.0,0.0,0.0
727,70.0,120.0,240.0,0.0,0.0
728,70.0,120.0,120.0,0.0,0.0
729,54.0,480.0,15.0,0.0,0.0
730,48.0,480.0,960.0,0.0,0.0
731,51.0,0.0,960.0,0.0,0.0
732,68.0,240.0,240.0,0.0,0.0
733,80.0,120.0,240.0,0.0,0.0
734,80.0,120.0,120.0,0.0,0.0
735,53.0,0.0,960.0,0.0,0.0
736,49.0,240.0,960.0,0.0,0.0
737,80.0,240.0,240.0,0.0,0.0
738,68.0,120.0,240.0,0.0,0.0
739,68.0,120.0,120.0,0.0,0.0
740,69.0,240.0,240.0,0.0,0.0
741,70.0,240.0,240.0,0.0,0.0
742,72.0,240.0,240.0,0.0,0.0
743,43.0,0.0,480.0,0.0,0.0
744,51.0,480.0,480.0,0.0,0.0
745,73.0,0.0,240.0,0.0,0.0
746,61.0,0.0,480.0,0.0,0.0
747,53.0,240.0,480.0,0.0,0.0
748,44.0,0.0,960.0,0.0,0.0
749,54.0,0.0,480.0,0.0,0.0
750,60.0,120.0,480.0,0.0,0.0
751,65.0,240.0,240.0,0.0,0.0
752,63.0,0.0,240.0,0.0,0.0
753,53.0,0.0,120.0,0.0,0.0
754,61.0,240.0,120.0,0.0,0.0
755,49.0,0.0,120.0,0.0,0.0
756,61.0,120.0,120.0,0.0,0.0
757,65.0,120.0,120.0,0.0,0.0
758,60.0,120.0,240.0,0.0,0.0
759,63.0,120.0,120.0,0.0,0.0
760,66.0,0.0,120.0,0.0,0.0
761,65.0,120.0,120.0,0.0,0.0
762,59.0,0.0,240.0,0.0,0.0
763,68.0,120.0,120.0,0.0,0.0
764,66.0,240.0,120.0,0.0,0.0
765,58.0,0.0,120.0,0.0,0.0
766,49.0,0.0,120.0,0.0,0.0
767,61.0,120.0,120.0,0.0,0.0
768,65.0,120.0,120.0,0.0,0.0
769,60.0,0.0,240.0,0.0,0.0
770,63.0,120.0,120.0,0.0,0.0
771,66.0,120.0,120.0,0.0,0.0
772,59.0,0.0,240.0,0.0,0.0
773,65.0,120.0,120.0,0.0,0.0
774,68.0,120.0,120.0,0.0,0.0
775,58.0,0.0,120.0,0.0,0.0
776,49.0,0.0,120.0,0.0,0.0
777,66.0,240.0,120.0,0.0,0.0
778,61.0,120.0,120.0,0.0,0.0
779,65.0,120.0,120.0,0.0,0.0
780,60.0,120.0,240.0,0.0,0.0
781,63.0,120.0,120.0,0.0,0.0
782,66.0,0.0,120.0,0.0,0.0
783,65.0,120.0,120.0,0.0,0.0
784,59.0,0.0,240.0,0.0,0.0
785,68.0,120.0,120.0,0.0,0.0
786,66.0,120.0,120.0,0.0,0.0
787,58.0,120.0,240.0,0.0,0.0
788,70.0,0.0,120.0,0.0,0.0
789,53.0,0.0,240.0,0.0,0.0
790,68.0,120.0,120.0,0.0,0.0
791,71.0,120.0,120.0,0.0,0.0
792,54.0,120.0,240.0,0.0,0.0
793,70.0,120.0,120.0,0.0,0.0
794,73.0,0.0,120.0,0.0,0.0
795,72.0,120.0,120.0,0.0,0.0
796,51.0,0.0,240.0,0.0,0.0
797,75.0,120.0,120.0,0.0,0.0
798,53.0,120.0,480.0,0.0,0.0
799,73.0,120.0,120.0,0.0,0.0
800,75.0,120.0,120.0,0.0,0.0
801,77.0,120.0,120.0,0.0,0.0
802,75.0,0.0,120.0,0.0,0.0
803,73.0,120.0,120.0,0.0,0.0
804,71.0,120.0,120.0,0.0,0.0
805,70.0,120.0,120.0,0.0,0.0
806,69.0,120.0,120.0,0.0,0.0
807,54.0,120.0,480.0,0.0,0.0
808,70.0,120.0,120.0,0.0,0.0
809,68.0,120.0,120.0,0.0,0.0
810,66.0,120.0,120.0,0.0,0.0
811,65.0,0.0,120.0,0.0,0.0
812,63.0,120.0,120.0,0.0,0.0
813,61.0,120.0,120.0,0.0,0.0
814,59.0,120.0,120.0,0.0,0.0
815,58.0,120.0,120.0,0.0,0.0
816,44.0,0.0,240.0,0.0,0.0
817,56.0,120.0,120.0,0.0,0.0
818,61.0,120.0,120.0,0.0,0.0
819,65.0,120.0,120.0,0.0,0.0
820,49.0,120.0,240.0,0.0,0.0
821,68.0,0.0,120.0,0.0,0.0
822,73.0,120.0,120.0,0.0,0.0
823,53.0,120.0,240.0,0.0,0.0
824,49.0,240.0,240.0,0.0,0.0
825,61.0,120.0,120.0,0.0,0.0
826,65.0,0.0,120.0,0.0,0.0
827,65.0,0.0,240.0,0.0,0.0
828,68.0,0.0,240.0,0.0,0.0
829,44.0,120.0,240.0,0.0,0.0
830,51.0,120.0,240.0,0.0,0.0
831,66.0,120.0,120.0,0.0,0.0
832,63.0,0.0,120.0,0.0,0.0
833,54.0,120.0,240.0,0.0,0.0
834,61.0,120.0,120.0,0.0,0.0
835,65.0,0.0,120.0,0.0,0.0
836,51.0,120.0,240.0,0.0,0.0
837,60.0,0.0,120.0,0.0,0.0
838,63.0,120.0,120.0,0.0,0.0
839,53.0,0.0,120.0,0.0,0.0
840,49.0,240.0,120.0,0.0,0.0
841,61.0,0.0,120.0,0.0,0.0
842,61.0,120.0,240.0,0.0,0.0
843,73.0,120.0,120.0,0.0,0.0
844,77.0,0.0,120.0,0.0,0.0
845,75.0,120.0,120.0,0.0,0.0
846,60.0,120.0,240.0,0.0,0.0
847,78.0,0.0,120.0,0.0,0.0
848,77.0,120.0,120.0,0.0,0.0
849,59.0,0.0,240.0,0.0,0.0
850,80.0,120.0,120.0,0.0,0.0
851,49.0,0.0,120.0,0.0,0.0
852,58.0,240.0,120.0,0.0,0.0
853,78.0,0.0,120.0,0.0,0.0
854,73.0,120.0,120.0,0.0,0.0
855,61.0,120.0,240.0,0.0,0.0
856,77.0,0.0,120.0,0.0,0.0
857,60.0,0.0,240.0,0.0,0.0
858,75.0,120.0,120.0,0.0,0.0
859,78.0,120.0,120.0,0.0,0.0
860,59.0,0.0,240.0,0.0,0.0
861,77.0,120.0,120.0,0.0,0.0
862,80.0,120.0,120.0,0.0,0.0
863,58.0,0.0,120.0,0.0,0.0
864,49.0,240.0,120.0,0.0,0.0
865,78.0,0.0,120.0,0.0,0.0
866,73.0,120.0,120.0,0.0,0.0
867,61.0,0.0,240.0,0.0,0.0
868,77.0,120.0,120.0,0.0,0.0
869,60.0,120.0,240.0,0.0,0.0
870,75.0,120.0,120.0,0.0,0.0
871,78.0,0.0,120.0,0.0,0.0
872,59.0,120.0,240.0,0.0,0.0
873,77.0,120.0,120.0,0.0,0.0
874,80.0,0.0,120.0,0.0,0.0
875,58.0,120.0,240.0,0.0,0.0
876,78.0,120.0,120.0,0.0,0.0
877,73.0,0.0,120.0,0.0,0.0
878,80.0,120.0,120.0,0.0,0.0
879,53.0,0.0,240.0,0.0,0.0
880,73.0,120.0,120.0,0.0,0.0
881,82.0,120.0,120.0,0.0,0.0
882,54.0,0.0,240.0,0.0,0.0
883,73.0,120.0,120.0,0.0,0.0
884,51.0,0.0,240.0,0.0,0.0
885,84.0,120.0,120.0,0.0,0.0
886,73.0,120.0,120.0,0.0,0.0
887,85.0,120.0,120.0,0.0,0.0
888,41.0,0.0,480.0,0.0,0.0
889,53.0,120.0,480.0,0.0,0.0
890,84.0,120.0,120.0,0.0,0.0
891,82.0,120.0,120.0,0.0,0.0
892,80.0,0.0,120.0,0.0,0.0
893,78.0,120.0,120.0,0.0,0.0
894,77.0,120.0,120.0,0.0,0.0
895,75.0,120.0,120.0,0.0,0.0
896,73.0,120.0,120.0,0.0,0.0
897,42.0,120.0,480.0,0.0,0.0
898,82.0,120.0,120.0,0.0,0.0
899,54.0,0.0,480.0,0.0,0.0
900,80.0,120.0,120.0,0.0,0.0
901,78.0,120.0,120.0,0.0,0.0
902,77.0,0.0,120.0,0.0,0.0
903,75.0,120.0,120.0,0.0,0.0
904,73.0,120.0,120.0,0.0,0.0
905,72.0,120.0,120.0,0.0,0.0
906,70.0,120.0,120.0,0.0,0.0
907,68.0,120.0,240.0,0.0,0.0
908,44.0,120.0,120.0,0.0,0.0
909,53.0,0.0,120.0,0.0,0.0
910,49.0,120.0,120.0,0.0,0.0
911,80.0,0.0,120.0,0.0,0.0
912,53.0,120.0,120.0,0.0,0.0
913,80.0,120.0,120.0,0.0,0.0
914,44.0,0.0,120.0,0.0,0.0
915,53.0,120.0,120.0,0.0,0.0
916,80.0,120.0,120.0,0.0,0.0
917,49.0,0.0,120.0,0.0,0.0
918,53.0,120.0,120.0,0.0,0.0
919,44.0,0.0,120.0,0.0,0.0
920,80.0,120.0,120.0,0.0,0.0
921,77.0,120.0,120.0,0.0,0.0
922,53.0,0.0,120.0,0.0,0.0
923,49.0,0.0,120.0,0.0,0.0
924,73.0,120.0,120.0,0.0,0.0
925,53.0,120.0,120.0,0.0,0.0
926,68.0,0.0,120.0,0.0,0.0
927,44.0,120.0,120.0,0.0,0.0
928,73.0,0.0,120.0,0.0,0.0
929,53.0,0.0,120.0,0.0,0.0
930,68.0,120.0,120.0,0.0,0.0
931,65.0,0.0,120.0,0.0,0.0
932,49.0,120.0,120.0,0.0,0.0
933,61.0,0.0,120.0,0.0,0.0
934,53.0,80.0,120.0,0.0,0.0
935,65.0,40.0,90.0,0.0,0.0
936,44.0,40.0,120.0,0.0,0.0
937,63.0,80.0,90.0,0.0,0.0
938,54.0,0.0,120.0,0.0,0.0
939,65.0,80.0,90.0,0.0,0.0
940,48.0,40.0,120.0,0.0,0.0
941,63.0,40.0,90.0,0.0,0.0
942,65.0,80.0,90.0,0.0,0.0
943,54.0,0.0,120.0,0.0,0.0
944,63.0,80.0,90.0,0.0,0.0
945,65.0,40.0,90.0,0.0,0.0
946,44.0,40.0,120.0,0.0,0.0
947,63.0,80.0,90.0,0.0,0.0
948,54.0,80.0,120.0,0.0,0.0
949,65.0,0.0,90.0,0.0,0.0
950,63.0,40.0,90.0,0.0,0.0
951,48.0,40.0,120.0,0.0,0.0
952,65.0,80.0,90.0,0.0,0.0
953,54.0,80.0,120.0,0.0,0.0
954,63.0,0.0,90.0,0.0,0.0
955,65.0,40.0,90.0,0.0,0.0
956,44.0,40.0,120.0,0.0,0.0
957,63.0,80.0,90.0,0.0,0.0
958,54.0,0.0,120.0,0.0,0.0
959,65.0,80.0,90.0,0.0,0.0
960,48.0,40.0,120.0,0.0,0.0
961,63.0,40.0,90.0,0.0,0.0
962,54.0,0.0,120.0,0.0,0.0
963,65.0,80.0,15.0,0.0,0.0
964,44.0,60.0,120.0,0.0,0.0
965,65.0,60.0,15.0,0.0,0.0
966,63.0,0.0,60.0,0.0,0.0
967,54.0,60.0,120.0,0.0,0.0
968,65.0,60.0,60.0,0.0,0.0
969,63.0,0.0,60.0,0.0,0.0
970,65.0,60.0,60.0,0.0,0.0
971,48.0,60.0,120.0,0.0,0.0
972,63.0,0.0,60.0,0.0,0.0
973,54.0,0.0,120.0,0.0,0.0
974,61.0,60.0,60.0,0.0,0.0
975,63.0,240.0,60.0,0.0,0.0
976,49.0,240.0,240.0,0.0,0.0
977,73.0,240.0,240.0,0.0,0.0
978,61.0,0.0,15.0,0.0,0.0
979,60.0,240.0,240.0,0.0,0.0
980,73.0,0.0,240.0,0.0,0.0
981,61.0,240.0,240.0,0.0,0.0
982,72.0,0.0,240.0,0.0,0.0
983,63.0,240.0,240.0,0.0,0.0
984,73.0,0.0,240.0,0.0,0.0
985,61.0,240.0,240.0,0.0,0.0
986,75.0,240.0,240.0,0.0,0.0
987,60.0,0.0,240.0,0.0,0.0
988,77.0,0.0,240.0,0.0,0.0
989,59.0,120.0,240.0,0.0,0.0
990,58.0,0.0,240.0,0.0,0.0
991,78.0,120.0,120.0,0.0,0.0
992,80.0,120.0,120.0,0.0,0.0
993,49.0,0.0,240.0,0.0,0.0
994,82.0,120.0,120.0,0.0,0.0
995,80.0,120.0,120.0,0.0,0.0
996,57.0,120.0,240.0,0.0,0.0
997,78.0,120.0,120.0,0.0,0.0
998,76.0,0.0,120.0,0.0,0.0
999,75.0,120.0,120.0,0.0,0.0
1000,49.0,120.0,240.0,0.0,0.0
1001,73.0,0.0,120.0,0.0,0.0
1002,72.0,120.0,120.0,0.0,0.0
1003,56.0,0.0,240.0,0.0,0.0
1004,73.0,120.0,120.0,0.0,0.0
1005,75.0,120.0,120.0,0.0,0.0
1006,49.0,120.0,240.0,0.0,0.0
1007,73.0,0.0,120.0,0.0,0.0
1008,72.0,120.0,120.0,0.0,0.0
1009,60.0,0.0,240.0,0.0,0.0
1010,70.0,120.0,120.0,0.0,0.0
1011,49.0,120.0,240.0,0.0,0.0
1012,68.0,120.0,120.0,0.0,0.0
1013,66.0,0.0,120.0,0.0,0.0
1014,61.0,0.0,120.0,0.0,0.0
1015,65.0,240.0,120.0,0.0,0.0
1016,65.0,120.0,120.0,0.0,0.0
1017,49.0,240.0,240.0,0.0,0.0
1018,48.0,240.0,240.0,0.0,0.0
1019,61.0,240.0,240.0,0.0,0.0
1020,49.0,0.0,240.0,0.0,0.0
1021,51.0,240.0,240.0,0.0,0.0
1022,60.0,0.0,240.0,0.0,0.0
1023,49.0,0.0,240.0,0.0,0.0
1024,61.0,240.0,240.0,0.0,0.0
1025,48.0,0.0,240.0,0.0,0.0
1026,63.0,240.0,240.0,0.0,0.0
1027,65.0,120.0,240.0,0.0,0.0
1028,47.0,0.0,240.0,0.0,0.0
1029,46.0,0.0,480.0,0.0,0.0
1030,66.0,180.0,120.0,0.0,0.0
1031,68.0,60.0,60.0,0.0,0.0
1032,66.0,60.0,60.0,0.0,0.0
1033,65.0,60.0,60.0,0.0,0.0
1034,66.0,240.0,60.0,0.0,0.0
1035,68.0,240.0,240.0,0.0,0.0
1036,42.0,240.0,480.0,0.0,0.0
1037,70.0,0.0,240.0,0.0,0.0
1038,66.0,0.0,240.0,0.0,0.0
1039,70.0,240.0,240.0,0.0,0.0
1040,65.0,480.0,240.0,0.0,0.0
1041,68.0,0.0,240.0,0.0,0.0
1042,44.0,0.0,15.0,0.0,0.0
1043,60.0,0.0,240.0,0.0,0.0
1044,54.0,0.0,240.0,0.0,0.0
1045,54.0,360.0,960.0,0.0,0.0
1046,63.0,0.0,960.0,0.0,0.0
1047,49.0,480.0,480.0,0.0,0.0
1048,44.0,0.0,480.0,0.0,0.0
1049,37.0,240.0,360.0,0.0,0.0
1050,53.0,0.0,360.0,0.0,0.0
1051,61.0,0.0,360.0,0.0,0.0
1052,75.0,120.0,120.0,0.0,0.0
1053,73.0,120.0,120.0,0.0,0.0
1054,71.0,120.0,120.0,0.0,0.0
1055,70.0,240.0,120.0,0.0,0.0
1056,68.0,240.0,240.0,0.0,0.0
1057,54.0,0.0,240.0,0.0,0.0
1058,58.0,240.0,240.0,0.0,0.0
1059,66.0,240.0,15.0,0.0,0.0
1060,61.0,240.0,240.0,0.0,0.0
1061,58.0,0.0,240.0,0.0,0.0
1062,70.0,240.0,240.0,0.0,0.0
1063,54.0,0.0,240.0,0.0,0.0
1064,58.0,0.0,240.0,0.0,0.0
1065,75.0,240.0,240.0,0.0,0.0
1066,63.0,480.0,240.0,0.0,0.0
1067,70.0,0.0,240.0,0.0,0.0
1068,73.0,0.0,480.0,0.0,0.0
1069,56.0,240.0,240.0,0.0,0.0
1070,71.0,0.0,720.0,0.0,0.0
1071,59.0,240.0,240.0,0.0,0.0
1072,63.0,240.0,240.0,0.0,0.0
1073,59.0,120.0,240.0,0.0,0.0
1074,56.0,0.0,240.0,0.0,0.0
1075,73.0,120.0,120.0,0.0,0.0
1076,75.0,120.0,120.0,0.0,0.0
1077,73.0,120.0,120.0,0.0,0.0
1078,59.0,120.0,240.0,0.0,0.0
1079,71.0,0.0,120.0,0.0,0.0
1080,70.0,120.0,120.0,0.0,0.0
1081,63.0,480.0,240.0,0.0,0.0
1082,68.0,0.0,120.0,0.0,0.0
1083,66.0,0.0,480.0,0.0,0.0
1084,49.0,240.0,240.0,0.0,0.0
1085,65.0,0.0,720.0,0.0,0.0
1086,56.0,240.0,240.0,0.0,0.0
1087,59.0,240.0,240.0,0.0,0.0
1088,56.0,240.0,240.0,0.0,0.0
1089,49.0,0.0,240.0,0.0,0.0
1090,65.0,240.0,240.0,0.0,0.0
1091,56.0,0.0,240.0,0.0,0.0
1092,66.0,240.0,240.0,0.0,0.0
1093,59.0,0.0,240.0,0.0,0.0
1094,68.0,480.0,15.0,0.0,0.0
1095,65.0,0.0,480.0,0.0,0.0
1096,54.0,240.0,240.0,0.0,0.0
1097,66.0,240.0,480.0,0.0,0.0
1098,70.0,0.0,480.0,0.0,0.0
1099,58.0,240.0,240.0,0.0,0.0
1100,61.0,0.0,240.0,0.0,0.0
1101,58.0,120.0,240.0,0.0,0.0
1102,73.0,120.0,120.0,0.0,0.0
1103,54.0,0.0,240.0,0.0,0.0
1104,72.0,120.0,120.0,0.0,0.0
1105,58.0,120.0,240.0,0.0,0.0
1106,75.0,120.0,120.0,0.0,0.0
1107,73.0,0.0,120.0,0.0,0.0
1108,71.0,120.0,120.0,0.0,0.0
1109,61.0,0.0,240.0,0.0,0.0
1110,70.0,240.0,15.0,0.0,0.0
1111,59.0,240.0,240.0,0.0,0.0
1112,68.0,240.0,480.0,0.0,0.0
1113,63.0,240.0,240.0,0.0,0.0
1114,58.0,0.0,240.0,0.0,0.0
1115,66.0,240.0,240.0,0.0,0.0
1116,61.0,0.0,240.0,0.0,0.0
1117,70.0,0.0,240.0,0.0,0.0
1118,59.0,240.0,240.0,0.0,0.0
1119,63.0,240.0,240.0,0.0,0.0
1120,68.0,0.0,480.0,0.0,0.0
1121,56.0,240.0,240.0,0.0,0.0
1122,59.0,120.0,240.0,0.0,0.0
1123,65.0,0.0,240.0,0.0,0.0
1124,66.0,120.0,120.0,0.0,0.0
1125,61.0,120.0,480.0,0.0,0.0
1126,58.0,0.0,480.0,0.0,0.0
1127,68.0,120.0,120.0,0.0,0.0
1128,66.0,120.0,120.0,0.0,0.0
1129,65.0,0.0,120.0,0.0,0.0
1130,66.0,120.0,120.0,0.0,0.0
1131,68.0,120.0,120.0,0.0,0.0
1132,70.0,120.0,120.0,0.0,0.0
1133,71.0,120.0,120.0,0.0,0.0
1134,72.0,120.0,120.0,0.0,0.0
1135,73.0,120.0,120.0,0.0,0.0
1136,72.0,120.0,120.0,0.0,0.0
1137,73.0,120.0,120.0,0.0,0.0
1138,75.0,120.0,120.0,0.0,0.0
1139,73.0,120.0,120.0,0.0,0.0
1140,71.0,120.0,120.0,0.0,0.0
1141,70.0,240.0,120.0,0.0,0.0
1142,70.0,240.0,240.0,0.0,0.0
1143,59.0,0.0,240.0,0.0,0.0
1144,63.0,240.0,240.0,0.0,0.0
1145,68.0,0.0,240.0,0.0,0.0
1146,58.0,240.0,240.0,0.0,0.0
1147,68.0,0.0,240.0,0.0,0.0
1148,66.0,0.0,240.0,0.0,0.0
1149,61.0,240.0,240.0,0.0,0.0
1150,70.0,0.0,240.0,0.0,0.0
1151,59.0,240.0,240.0,0.0,0.0
1152,68.0,240.0,240.0,0.0,0.0
1153,63.0,0.0,240.0,0.0,0.0
1154,56.0,0.0,240.0,0.0,0.0
1155,68.0,240.0,240.0,0.0,0.0
1156,65.0,0.0,240.0,0.0,0.0
1157,59.0,240.0,240.0,0.0,0.0
1158,66.0,120.0,240.0,0.0,0.0
1159,58.0,120.0,480.0,0.0,0.0
1160,61.0,0.0,480.0,0.0,0.0
1161,68.0,120.0,120.0,0.0,0.0
1162,70.0,0.0,120.0,0.0,0.0
1163,71.0,120.0,120.0,0.0,0.0
1164,73.0,120.0,120.0,0.0,0.0
1165,75.0,120.0,120.0,0.0,0.0
1166,77.0,120.0,120.0,0.0,0.0
1167,78.0,120.0,120.0,0.0,0.0
1168,80.0,120.0,120.0,0.0,0.0
1169,82.0,120.0,120.0,0.0,0.0
1170,83.0,120.0,120.0,0.0,0.0
1171,85.0,240.0,120.0,0.0,0.0
1172,85.0,360.0,120.0,0.0,0.0
1173,73.0,120.0,1200.0,0.0,0.0
1174,85.0,240.0,240.0,0.0,0.0
1175,53.0,240.0,480.0,0.0,0.0
1176,83.0,240.0,480.0,0.0,0.0
1177,54.0,0.0,480.0,0.0,0.0
1178,82.0,240.0,240.0,0.0,0.0
1179,47.0,120.0,480.0,0.0,0.0
1180,82.0,0.0,240.0,0.0,0.0
1181,80.0,120.0,120.0,0.0,0.0
1182,71.0,0.0,120.0,0.0,0.0
1183,49.0,240.0,480.0,0.0,0.0
1184,70.0,0.0,120.0,0.0,0.0
1185,78.0,240.0,120.0,0.0,0.0
1186,77.0,0.0,120.0,0.0,0.0
1187,68.0,120.0,120.0,0.0,0.0
1188,78.0,0.0,240.0,0.0,0.0
1189,70.0,120.0,240.0,0.0,0.0
1190,42.0,240.0,120.0,0.0,0.0
1191,66.0,120.0,240.0,0.0,0.0
1192,46.0,120.0,120.0,0.0,0.0
1193,49.0,600.0,120.0,0.0,0.0
1194,54.0,120.0,480.0,0.0,0.0
1195,63.0,120.0,120.0,0.0,0.0
1196,61.0,120.0,120.0,0.0,0.0
1197,59.0,120.0,120.0,0.0,0.0
1198,58.0,240.0,120.0,0.0,0.0
1199,56.0,240.0,240.0,0.0,0.0
1200,42.0,0.0,240.0,0.0,0.0
1201,54.0,240.0,15.0,0.0,0.0
1202,46.0,240.0,240.0,0.0,0.0
1203,49.0,240.0,240.0,0.0,0.0
1204,46.0,240.0,240.0,0.0,0.0
1205,66.0,0.0,240.0,0.0,0.0
1206,42.0,240.0,240.0,0.0,0.0
1207,65.0,240.0,240.0,0.0,0.0
1208,46.0,0.0,240.0,0.0,0.0
1209,49.0,480.0,240.0,0.0,0.0
1210,63.0,0.0,240.0,0.0,0.0
1211,61.0,240.0,480.0,0.0,0.0
1212,44.0,0.0,240.0,0.0,0.0
1213,51.0,240.0,240.0,0.0,0.0
1214,60.0,120.0,600.0,0.0,0.0
1215,54.0,120.0,240.0,0.0,0.0
1216,51.0,120.0,240.0,0.0,0.0
1217,63.0,0.0,120.0,0.0,0.0
1218,61.0,120.0,120.0,0.0,0.0
1219,44.0,0.0,240.0,0.0,0.0
1220,65.0,120.0,120.0,0.0,0.0
1221,63.0,120.0,120.0,0.0,0.0
1222,51.0,0.0,240.0,0.0,0.0
1223,66.0,120.0,120.0,0.0,0.0
1224,65.0,120.0,120.0,0.0,0.0
1225,54.0,0.0,240.0,0.0,0.0
1226,68.0,120.0,120.0,0.0,0.0
1227,66.0,120.0,120.0,0.0,0.0
1228,63.0,120.0,120.0,0.0,0.0
1229,48.0,0.0,240.0,0.0,0.0
1230,72.0,120.0,120.0,0.0,0.0
1231,68.0,120.0,120.0,0.0,0.0
1232,75.0,120.0,120.0,0.0,0.0
1233,51.0,120.0,240.0,0.0,0.0
1234,72.0,0.0,120.0,0.0,0.0
1235,78.0,120.0,120.0,0.0,0.0
1236,56.0,120.0,240.0,0.0,0.0
1237,77.0,0.0,120.0,0.0,0.0
1238,78.0,120.0,120.0,0.0,0.0
1239,51.0,120.0,240.0,0.0,0.0
1240,77.0,0.0,120.0,0.0,0.0
1241,48.0,120.0,240.0,0.0,0.0
1242,75.0,120.0,120.0,0.0,0.0
1243,73.0,0.0,120.0,0.0,0.0
1244,72.0,120.0,120.0,0.0,0.0
1245,51.0,0.0,240.0,0.0,0.0
1246,70.0,120.0,120.0,0.0,0.0
1247,68.0,120.0,120.0,0.0,0.0
1248,56.0,120.0,240.0,0.0,0.0
1249,66.0,0.0,15.0,0.0,0.0
1250,65.0,120.0,120.0,0.0,0.0
1251,70.0,120.0,120.0,0.0,0.0
1252,49.0,240.0,240.0,0.0,0.0
1253,68.0,0.0,15.0,0.0,0.0
1254,53.0,240.0,240.0,0.0,0.0
1255,56.0,240.0,240.0,0.0,0.0
1256,53.0,240.0,240.0,0.0,0.0
1257,49.0,120.0,240.0,0.0,0.0
1258,82.0,120.0,120.0,0.0,0.0
1259,53.0,0.0,240.0,0.0,0.0
1260,80.0,120.0,120.0,0.0,0.0
1261,78.0,120.0,120.0,0.0,0.0
1262,56.0,240.0,240.0,0.0,0.0
1263,77.0,0.0,120.0,0.0,0.0
1264,75.0,0.0,720.0,0.0,0.0
1265,54.0,240.0,240.0,0.0,0.0
1266,56.0,240.0,240.0,0.0,0.0
1267,54.0,240.0,240.0,0.0,0.0
1268,72.0,0.0,240.0,0.0,0.0
1269,56.0,60.0,240.0,0.0,0.0
1270,53.0,120.0,240.0,0.0,0.0
1271,73.0,180.0,60.0,0.0,0.0
1272,80.0,0.0,120.0,0.0,0.0
1273,79.0,120.0,120.0,0.0,0.0
1274,56.0,0.0,240.0,0.0,0.0
1275,80.0,120.0,120.0,0.0,0.0
1276,53.0,0.0,240.0,0.0,0.0
1277,82.0,120.0,120.0,0.0,0.0
1278,80.0,120.0,120.0,0.0,0.0
1279,56.0,120.0,240.0,0.0,0.0
1280,78.0,120.0,120.0,0.0,0.0
1281,77.0,0.0,120.0,0.0,0.0
1282,54.0,240.0,240.0,0.0,0.0
1283,75.0,120.0,120.0,0.0,0.0
1284,56.0,240.0,240.0,0.0,0.0
1285,75.0,240.0,480.0,0.0,0.0
1286,54.0,0.0,240.0,0.0,0.0
1287,56.0,0.0,240.0,0.0,0.0
1288,72.0,60.0,240.0,0.0,0.0
1289,73.0,180.0,60.0,0.0,0.0
1290,53.0,0.0,240.0,0.0,0.0
1291,80.0,120.0,120.0,0.0,0.0
1292,56.0,120.0,240.0,0.0,0.0
1293,79.0,120.0,120.0,0.0,0.0
1294,80.0,0.0,120.0,0.0,0.0
1295,53.0,120.0,240.0,0.0,0.0
1296,82.0,120.0,120.0,0.0,0.0
1297,80.0,0.0,120.0,0.0,0.0
1298,78.0,120.0,120.0,0.0,0.0
1299,56.0,0.0,240.0,0.0,0.0
1300,77.0,240.0,15.0,0.0,0.0
1301,54.0,240.0,240.0,0.0,0.0
1302,75.0,0.0,240.0,0.0,0.0
1303,58.0,240.0,240.0,0.0,0.0
1304,54.0,240.0,240.0,0.0,0.0
1305,58.0,0.0,240.0,0.0,0.0
1306,55.0,0.0,240.0,0.0,0.0
1307,75.0,240.0,15.0,0.0,0.0
1308,58.0,0.0,240.0,0.0,0.0
1309,73.0,240.0,240.0,0.0,0.0
1310,55.0,240.0,240.0,0.0,0.0
1311,73.0,0.0,240.0,0.0,0.0
1312,58.0,120.0,240.0,0.0,0.0
1313,72.0,120.0,120.0,0.0,0.0
1314,56.0,0.0,480.0,0.0,0.0
1315,73.0,120.0,120.0,0.0,0.0
1316,72.0,120.0,120.0,0.0,0.0
1317,68.0,120.0,120.0,0.0,0.0
1318,73.0,120.0,120.0,0.0,0.0
1319,58.0,0.0,480.0,0.0,0.0
1320,75.0,120.0,120.0,0.0,0.0
1321,73.0,120.0,120.0,0.0,0.0
1322,68.0,120.0,120.0,0.0,0.0
1323,75.0,120.0,120.0,0.0,0.0
1324,60.0,120.0,480.0,0.0,0.0
1325,77.0,120.0,120.0,0.0,0.0
1326,75.0,120.0,120.0,0.0,0.0
1327,68.0,0.0,120.0,0.0,0.0
1328,77.0,120.0,120.0,0.0,0.0
1329,61.0,120.0,480.0,0.0,0.0
1330,78.0,120.0,120.0,0.0,0.0
1331,77.0,120.0,120.0,0.0,0.0
1332,68.0,0.0,120.0,0.0,0.0
1333,78.0,120.0,120.0,0.0,0.0
1334,63.0,120.0,240.0,0.0,0.0
1335,68.0,240.0,240.0,0.0,0.0
1336,78.0,120.0,120.0,0.0,0.0
1337,60.0,120.0,240.0,0.0,0.0
1338,68.0,240.0,240.0,0.0,0.0
1339,75.0,120.0,120.0,0.0,0.0
1340,78.0,0.0,240.0,0.0,0.0
1341,61.0,120.0,240.0,0.0,0.0
1342,77.0,120.0,120.0,0.0,0.0
1343,68.0,120.0,240.0,0.0,0.0
1344,75.0,120.0,120.0,0.0,0.0
1345,58.0,120.0,240.0,0.0,0.0
1346,73.0,120.0,120.0,0.0,0.0
1347,68.0,120.0,240.0,0.0,0.0
1348,56.0,0.0,480.0,0.0,0.0
1349,72.0,120.0,120.0,0.0,0.0
1350,68.0,120.0,120.0,0.0,0.0
1351,79.0,120.0,120.0,0.0,0.0
1352,80.0,120.0,120.0,0.0,0.0
1353,58.0,0.0,480.0,0.0,0.0
1354,73.0,120.0,120.0,0.0,0.0
1355,68.0,120.0,120.0,0.0,0.0
1356,79.0,120.0,120.0,0.0,0.0
1357,80.0,120.0,120.0,0.0,0.0
1358,60.0,120.0,480.0,0.0,0.0
1359,75.0,120.0,120.0,0.0,0.0
1360,68.0,120.0,120.0,0.0,0.0
1361,79.0,120.0,120.0,0.0,0.0
1362,80.0,0.0,120.0,0.0,0.0
1363,77.0,120.0,120.0,0.0,0.0
1364,61.0,120.0,480.0,0.0,0.0
1365,68.0,120.0,120.0,0.0,0.0
1366,79.0,120.0,120.0,0.0,0.0
1367,80.0,0.0,120.0,0.0,0.0
1368,63.0,0.0,120.0,0.0,0.0
1369,78.0,120.0,120.0,0.0,0.0
1370,68.0,120.0,120.0,0.0,0.0
1371,78.0,0.0,120.0,0.0,0.0
1372,67.0,120.0,120.0,0.0,0.0
1373,68.0,120.0,120.0,0.0,0.0
1374,60.0,120.0,120.0,0.0,0.0
1375,68.0,60.0,120.0,0.0,0.0
1376,67.0,60.0,120.0,0.0,0.0
1377,77.0,60.0,60.0,0.0,0.0
1378,75.0,0.0,60.0,0.0,0.0
1379,68.0,120.0,120.0,0.0,0.0
1380,74.0,60.0,60.0,0.0,0.0
1381,75.0,0.0,60.0,0.0,0.0
1382,78.0,120.0,240.0,0.0,0.0
1383,61.0,120.0,120.0,0.0,0.0
1384,68.0,0.0,120.0,0.0,0.0
1385,77.0,0.0,120.0,0.0,0.0
1386,67.0,120.0,120.0,0.0,0.0
1387,68.0,120.0,120.0,0.0,0.0
1388,58.0,0.0,120.0,0.0,0.0
1389,75.0,120.0,120.0,0.0,0.0
1390,67.0,120.0,120.0,0.0,0.0
1391,65.0,120.0,120.0,0.0,0.0
1392,73.0,0.0,120.0,0.0,0.0
1393,67.0,120.0,120.0,0.0,0.0
1394,56.0,0.0,480.0,0.0,0.0
1395,72.0,120.0,120.0,0.0,0.0
1396,80.0,120.0,120.0,0.0,0.0
1397,75.0,120.0,120.0,0.0,0.0
1398,72.0,0.0,120.0,0.0,0.0
1399,68.0,120.0,15.0,0.0,0.0
1400,63.0,120.0,120.0,0.0,0.0
1401,60.0,120.0,120.0,0.0,0.0
1402,56.0,240.0,120.0,0.0,0.0
1403,32.0,1440.0,240.0,0.0,0.0
1404,44.0,0.0,240.0,0.0,0.0
1405,65.0,0.0,720.0,0.0,0.0
1406,68.0,0.0,720.0,0.0,0.0
1407,56.0,0.0,720.0,0.0,0.0
1408,61.0,120.0,720.0,0.0,0.0
1409,49.0,0.0,960.0,0.0,0.0
1410,37.0,0.0,960.0,0.0,0.0
1411,70.0,120.0,120.0,0.0,0.0
1412,68.0,120.0,120.0,0.0,0.0
1413,66.0,240.0,120.0,0.0,0.0
1414,65.0,240.0,120.0,0.0,0.0
1415,63.0,240.0,120.0,0.0,0.0
1416,61.0,360.0,120.0,0.0,0.0
1417,61.0,240.0,240.0,0.0,0.0
1418,70.0,720.0,240.0,0.0,0.0
1419,54.0,0.0,960.0,0.0,0.0
1420,42.0,240.0,960.0,0.0,0.0
1421,70.0,240.0,720.0,0.0,0.0
1422,61.0,0.0,720.0,0.0,0.0
1423,68.0,0.0,240.0,0.0,0.0
1424,72.0,240.0,240.0,0.0,0.0
1425,53.0,240.0,480.0,0.0,0.0
1426,73.0,0.0,240.0,0.0,0.0
1427,58.0,240.0,480.0,0.0,0.0
1428,55.0,0.0,480.0,0.0,0.0
1429,73.0,240.0,240.0,0.0,0.0
1430,63.0,240.0,480.0,0.0,0.0
1431,56.0,0.0,480.0,0.0,0.0
1432,65.0,240.0,240.0,0.0,0.0
1433,73.0,240.0,240.0,0.0,0.0
1434,55.0,240.0,480.0,0.0,0.0
1435,58.0,0.0,480.0,0.0,0.0
1436,63.0,240.0,480.0,0.0,0.0
1437,56.0,0.0,480.0,0.0,0.0
1438,65.0,480.0,240.0,0.0,0.0
1439,68.0,0.0,480.0,0.0,0.0
1440,58.0,60.0,480.0,0.0,0.0
1441,60.0,120.0,480.0,0.0,0.0
1442,68.0,60.0,60.0,0.0,0.0
1443,66.0,60.0,60.0,0.0,0.0
1444,68.0,60.0,60.0,0.0,0.0
1445,66.0,60.0,60.0,0.0,0.0
1446,68.0,60.0,60.0,0.0,0.0
1447,66.0,60.0,60.0,0.0,0.0
1448,65.0,60.0,60.0,0.0,0.0
1449,66.0,0.0,60.0,0.0,0.0
1450,65.0,360.0,120.0,0.0,0.0
1451,61.0,0.0,480.0,0.0,0.0
1452,65.0,240.0,240.0,0.0,0.0
1453,66.0,240.0,240.0,0.0,0.0
1454,68.0,240.0,240.0,0.0,0.0
1455,69.0,240.0,240.0,0.0,0.0
1456,70.0,0.0,480.0,0.0,0.0
1457,42.0,240.0,240.0,0.0,0.0
1458,46.0,120.0,240.0,0.0,0.0
1459,51.0,0.0,240.0,0.0,0.0
1460,68.0,120.0,120.0,0.0,0.0
1461,66.0,240.0,120.0,0.0,0.0
1462,54.0,0.0,480.0,0.0,0.0
1463,65.0,240.0,240.0,0.0,0.0
1464,63.0,240.0,240.0,0.0,0.0
1465,65.0,240.0,240.0,0.0,0.0
1466,66.0,240.0,240.0,0.0,0.0
1467,70.0,240.0,240.0,0.0,0.0
1468,68.0,120.0,480.0,0.0,0.0
1469,41.0,240.0,240.0,0.0,0.0
1470,44.0,0.0,240.0,0.0,0.0
1471,49.0,0.0,240.0,0.0,0.0
1472,66.0,120.0,120.0,0.0,0.0
1473,65.0,240.0,120.0,0.0,0.0
1474,63.0,240.0,240.0,0.0,0.0
1475,53.0,240.0,480.0,0.0,0.0
1476,61.0,0.0,240.0,0.0,0.0
1477,63.0,240.0,240.0,0.0,0.0
1478,65.0,240.0,240.0,0.0,0.0
1479,51.0,240.0,480.0,0.0,0.0
1480,68.0,240.0,240.0,0.0,0.0
1481,66.0,240.0,480.0,0.0,0.0
1482,48.0,0.0,480.0,0.0,0.0
1483,63.0,240.0,240.0,0.0,0.0
1484,66.0,240.0,240.0,0.0,0.0
1485,49.0,240.0,480.0,0.0,0.0
1486,65.0,240.0,480.0,0.0,0.0
1487,46.0,0.0,480.0,0.0,0.0
1488,61.0,120.0,240.0,0.0,0.0
1489,44.0,120.0,480.0,0.0,0.0
1490,60.0,120.0,120.0,0.0,0.0
1491,61.0,120.0,120.0,0.0,0.0
1492,60.0,120.0,120.0,0.0,0.0
1493,61.0,0.0,120.0,0.0,0.0
1494,67.0,120.0,120.0,0.0,0.0
1495,68.0,120.0,120.0,0.0,0.0
1496,67.0,120.0,120.0,0.0,0.0
1497,68.0,120.0,120.0,0.0,0.0
1498,44.0,120.0,120.0,0.0,0.0
1499,56.0,120.0,480.0,0.0,0.0
1500,46.0,120.0,120.0,0.0,0.0
1501,42.0,120.0,120.0,0.0,0.0
1502,44.0,0.0,120.0,0.0,0.0
1503,41.0,120.0,120.0,0.0,0.0
1504,42.0,120.0,120.0,0.0,0.0
1505,39.0,120.0,120.0,0.0,0.0
1506,41.0,480.0,120.0,0.0,0.0
1507,65.0,0.0,720.0,0.0,0.0
1508,37.0,240.0,480.0,0.0,0.0
1509,68.0,120.0,720.0,0.0,0.0
1510,49.0,120.0,480.0,0.0,0.0
1511,70.0,120.0,120.0,0.0,0.0
1512,68.0,0.0,120.0,0.0,0.0
1513,66.0,240.0,120.0,0.0,0.0
1514,65.0,240.0,120.0,0.0,0.0
1515,63.0,240.0,120.0,0.0,0.0
1516,61.0,360.0,120.0,0.0,0.0
1517,61.0,240.0,240.0,0.0,0.0
1518,70.0,720.0,15.0,0.0,0.0
1519,61.0,0.0,720.0,0.0,0.0
1520,54.0,0.0,960.0,0.0,0.0
1521,42.0,240.0,960.0,0.0,0.0
1522,68.0,0.0,240.0,0.0,0.0
1523,72.0,240.0,240.0,0.0,0.0
1524,53.0,240.0,480.0,0.0,0.0
1525,73.0,240.0,480.0,0.0,0.0
1526,55.0,0.0,480.0,0.0,0.0
1527,58.0,0.0,480.0,0.0,0.0
1528,63.0,240.0,240.0,0.0,0.0
1529,56.0,240.0,480.0,0.0,0.0
1530,65.0,240.0,240.0,0.0,0.0
1531,73.0,240.0,480.0,0.0,0.0
1532,55.0,0.0,480.0,0.0,0.0
1533,58.0,240.0,480.0,0.0,0.0
1534,63.0,0.0,240.0,0.0,0.0
1535,56.0,480.0,480.0,0.0,0.0
1536,65.0,120.0,240.0,0.0,0.0
1537,73.0,120.0,120.0,0.0,0.0
1538,58.0,0.0,480.0,0.0,0.0
1539,61.0,240.0,480.0,0.0,0.0
1540,68.0,0.0,480.0,0.0,0.0
1541,67.0,240.0,240.0,0.0,0.0
1542,60.0,0.0,480.0,0.0,0.0
1543,63.0,120.0,480.0,0.0,0.0
1544,66.0,0.0,240.0,0.0,0.0
1545,65.0,360.0,120.0,0.0,0.0
1546,61.0,240.0,480.0,0.0,0.0
1547,65.0,0.0,240.0,0.0,0.0
1548,66.0,240.0,240.0,0.0,0.0
1549,68.0,240.0,240.0,0.0,0.0
1550,69.0,240.0,240.0,0.0,0.0
1551,70.0,120.0,480.0,0.0,0.0
1552,46.0,120.0,240.0,0.0,0.0
1553,58.0,120.0,120.0,0.0,0.0
1554,72.0,120.0,120.0,0.0,0.0
1555,56.0,0.0,120.0,0.0,0.0
1556,74.0,120.0,120.0,0.0,0.0
1557,54.0,120.0,120.0,0.0,0.0
1558,75.0,0.0,120.0,0.0,0.0
1559,77.0,120.0,120.0,0.0,0.0
1560,78.0,120.0,120.0,0.0,0.0
1561,42.0,0.0,240.0,0.0,0.0
1562,77.0,120.0,120.0,0.0,0.0
1563,75.0,0.0,120.0,0.0,0.0
1564,54.0,120.0,120.0,0.0,0.0
1565,77.0,120.0,120.0,0.0,0.0
1566,73.0,120.0,120.0,0.0,0.0
1567,53.0,0.0,120.0,0.0,0.0
1568,75.0,120.0,120.0,0.0,0.0
1569,51.0,0.0,240.0,0.0,0.0
1570,72.0,120.0,120.0,0.0,0.0
1571,73.0,120.0,120.0,0.0,0.0
1572,70.0,120.0,120.0,0.0,0.0
1573,49.0,120.0,240.0,0.0,0.0
1574,72.0,0.0,120.0,0.0,0.0
1575,48.0,0.0,240.0,0.0,0.0
1576,68.0,120.0,120.0,0.0,0.0
1577,70.0,120.0,120.0,0.0,0.0
1578,66.0,120.0,120.0,0.0,0.0
1579,44.0,0.0,240.0,0.0,0.0
1580,68.0,120.0,120.0,0.0,0.0
1581,49.0,0.0,480.0,0.0,0.0
1582,65.0,120.0,120.0,0.0,0.0
1583,66.0,120.0,120.0,0.0,0.0
1584,68.0,120.0,120.0,0.0,0.0
1585,70.0,120.0,120.0,0.0,0.0
1586,72.0,120.0,120.0,0.0,0.0
1587,41.0,120.0,480.0,0.0,0.0
1588,73.0,120.0,120.0,0.0,0.0
1589,72.0,120.0,120.0,0.0,0.0
1590,73.0,0.0,120.0,0.0,0.0
1591,42.0,0.0,480.0,0.0,0.0
1592,75.0,120.0,120.0,0.0,0.0
1593,73.0,120.0,120.0,0.0,0.0
1594,72.0,120.0,120.0,0.0,0.0
1595,70.0,120.0,120.0,0.0,0.0
1596,72.0,120.0,120.0,0.0,0.0
1597,54.0,480.0,480.0,0.0,0.0
1598,70.0,120.0,120.0,0.0,0.0
1599,68.0,120.0,120.0,0.0,0.0
1600,66.0,0.0,120.0,0.0,0.0
1601,56.0,60.0,480.0,0.0,0.0
1602,44.0,0.0,480.0,0.0,0.0
1603,65.0,0.0,15.0,0.0,0.0
1604,60.0,0.0,480.0,0.0,0.0
1605,63.0,60.0,60.0,0.0,0.0
1606,65.0,60.0,60.0,0.0,0.0
1607,63.0,60.0,60.0,0.0,0.0
1608,65.0,60.0,60.0,0.0,0.0
1609,63.0,60.0,60.0,0.0,0.0
1610,61.0,60.0,60.0,0.0,0.0
1611,63.0,120.0,60.0,0.0,0.0
1612,49.0,120.0,120.0,0.0,0.0
1613,61.0,0.0,480.0,0.0,0.0
1614,56.0,120.0,120.0,0.0,0.0
1615,55.0,120.0,120.0,0.0,0.0
1616,56.0,120.0,120.0,0.0,0.0
1617,58.0,120.0,120.0,0.0,0.0
1618,56.0,120.0,120.0,0.0,0.0
1619,55.0,120.0,120.0,0.0,0.0
1620,56.0,120.0,120.0,0.0,0.0
1621,54.0,120.0,120.0,0.0,0.0
1622,56.0,120.0,120.0,0.0,0.0
1623,53.0,120.0,120.0,0.0,0.0
1624,54.0,120.0,120.0,0.0,0.0
1625,51.0,120.0,120.0,0.0,0.0
1626,56.0,120.0,120.0,0.0,0.0
1627,49.0,120.0,120.0,0.0,0.0
1628,56.0,120.0,120.0,0.0,0.0
1629,48.0,120.0,120.0,0.0,0.0
1630,78.0,120.0,240.0,0.0,0.0
1631,56.0,0.0,120.0,0.0,0.0
1632,51.0,120.0,120.0,0.0,0.0
1633,75.0,0.0,120.0,0.0,0.0
1634,56.0,120.0,120.0,0.0,0.0
1635,54.0,120.0,120.0,0.0,0.0
1636,72.0,0.0,120.0,0.0,0.0
1637,56.0,120.0,120.0,0.0,0.0
1638,72.0,120.0,120.0,0.0,0.0
1639,54.0,0.0,120.0,0.0,0.0
1640,56.0,120.0,120.0,0.0,0.0
1641,48.0,120.0,120.0,0.0,0.0
1642,78.0,120.0,240.0,0.0,0.0
1643,56.0,0.0,120.0,0.0,0.0
1644,54.0,0.0,120.0,0.0,0.0
1645,75.0,120.0,120.0,0.0,0.0
1646,56.0,120.0,120.0,0.0,0.0
1647,72.0,0.0,120.0,0.0,0.0
1648,54.0,120.0,120.0,0.0,0.0
1649,56.0,120.0,120.0,0.0,0.0
1650,54.0,0.0,120.0,0.0,0.0
1651,72.0,120.0,120.0,0.0,0.0
1652,56.0,120.0,120.0,0.0,0.0
1653,53.0,120.0,120.0,0.0,0.0
1654,73.0,0.0,120.0,0.0,0.0
1655,56.0,120.0,120.0,0.0,0.0
1656,48.0,120.0,120.0,0.0,0.0
1657,75.0,0.0,120.0,0.0,0.0
1658,56.0,120.0,120.0,0.0,0.0
1659,77.0,0.0,120.0,0.0,0.0
1660,49.0,120.0,120.0,0.0,0.0
1661,56.0,120.0,120.0,0.0,0.0
1662,78.0,120.0,120.0,0.0,0.0
1663,51.0,0.0,120.0,0.0,0.0
1664,56.0,120.0,120.0,0.0,0.0
1665,52.0,120.0,120.0,0.0,0.0
1666,79.0,0.0,240.0,0.0,0.0
1667,56.0,120.0,120.0,0.0,0.0
1668,53.0,120.0,120.0,0.0,0.0
1669,80.0,120.0,240.0,0.0,0.0
1670,56.0,0.0,120.0,0.0,0.0
1671,52.0,120.0,120.0,0.0,0.0
1672,79.0,0.0,240.0,0.0,0.0
1673,56.0,120.0,120.0,0.0,0.0
1674,80.0,0.0,240.0,0.0,0.0
1675,53.0,120.0,120.0,0.0,0.0
1676,56.0,120.0,120.0,0.0,0.0
1677,78.0,120.0,240.0,0.0,0.0
1678,48.0,120.0,120.0,0.0,0.0
1679,56.0,0.0,120.0,0.0,0.0
1680,51.0,120.0,120.0,0.0,0.0
1681,75.0,0.0,120.0,0.0,0.0
1682,56.0,120.0,120.0,0.0,0.0
1683,72.0,0.0,120.0,0.0,0.0
1684,54.0,120.0,120.0,0.0,0.0
1685,56.0,120.0,120.0,0.0,0.0
1686,54.0,120.0,120.0,0.0,0.0
1687,72.0,0.0,120.0,0.0,0.0
1688,56.0,120.0,120.0,0.0,0.0
1689,78.0,120.0,240.0,0.0,0.0
1690,48.0,120.0,120.0,0.0,0.0
1691,56.0,0.0,120.0,0.0,0.0
1692,75.0,120.0,120.0,0.0,0.0
1693,54.0,0.0,120.0,0.0,0.0
1694,56.0,120.0,120.0,0.0,0.0
1695,54.0,120.0,120.0,0.0,0.0
1696,72.0,0.0,120.0,0.0,0.0
1697,56.0,120.0,120.0,0.0,0.0
1698,54.0,120.0,120.0,0.0,0.0
1699,72.0,0.0,120.0,0.0,0.0
1700,56.0,120.0,120.0,0.0,0.0
1701,53.0,120.0,120.0,0.0,0.0
1702,73.0,0.0,120.0,0.0,0.0
1703,56.0,120.0,120.0,0.0,0.0
1704,75.0,0.0,120.0,0.0,0.0
1705,48.0,120.0,120.0,0.0,0.0
1706,56.0,120.0,120.0,0.0,0.0
1707,77.0,0.0,120.0,0.0,0.0
1708,49.0,120.0,120.0,0.0,0.0
1709,56.0,120.0,120.0,0.0,0.0
1710,78.0,0.0,120.0,0.0,0.0
1711,51.0,120.0,120.0,0.0,0.0
1712,56.0,120.0,120.0,0.0,0.0
1713,79.0,0.0,240.0,0.0,0.0
1714,52.0,120.0,120.0,0.0,0.0
1715,56.0,120.0,120.0,0.0,0.0
1716,80.0,120.0,240.0,0.0,0.0
1717,53.0,120.0,120.0,0.0,0.0
1718,56.0,0.0,120.0,0.0,0.0
1719,52.0,120.0,120.0,0.0,0.0
1720,79.0,120.0,240.0,0.0,0.0
1721,56.0,0.0,120.0,0.0,0.0
1722,53.0,120.0,120.0,0.0,0.0
1723,80.0,480.0,240.0,0.0,0.0
1724,56.0,0.0,120.0,0.0,0.0
1725,70.0,0.0,960.0,0.0,0.0
1726,82.0,0.0,960.0,0.0,0.0
1727,54.0,240.0,240.0,0.0,0.0
1728,53.0,240.0,240.0,0.0,0.0
1729,54.0,480.0,240.0,0.0,0.0
1730,60.0,0.0,960.0,0.0,0.0
1731,72.0,480.0,960.0,0.0,0.0
1732,56.0,240.0,240.0,0.0,0.0
1733,55.0,240.0,240.0,0.0,0.0
1734,56.0,0.0,240.0,0.0,0.0
1735,66.0,0.0,960.0,0.0,0.0
1736,78.0,0.0,960.0,0.0,0.0
1737,57.0,240.0,240.0,0.0,0.0
1738,55.0,240.0,240.0,0.0,0.0
1739,57.0,480.0,240.0,0.0,0.0
1740,77.0,0.0,960.0,0.0,0.0
1741,65.0,0.0,960.0,0.0,0.0
1742,58.0,240.0,240.0,0.0,0.0
1743,57.0,240.0,240.0,0.0,0.0
1744,58.0,120.0,240.0,0.0,0.0
1745,77.0,120.0,120.0,0.0,0.0
1746,75.0,120.0,120.0,0.0,0.0
1747,78.0,120.0,120.0,0.0,0.0
1748,77.0,120.0,120.0,0.0,0.0
1749,80.0,120.0,120.0,0.0,0.0
1750,63.0,0.0,480.0,0.0,0.0
1751,54.0,480.0,480.0,0.0,0.0
1752,78.0,120.0,120.0,0.0,0.0
1753,77.0,120.0,120.0,0.0,0.0
1754,75.0,0.0,120.0,0.0,0.0
1755,56.0,480.0,960.0,0.0,0.0
1756,65.0,480.0,480.0,0.0,0.0
1757,73.0,0.0,480.0,0.0,0.0
1758,66.0,0.0,480.0,0.0,0.0
1759,72.0,0.0,480.0,0.0,0.0
1760,65.0,480.0,960.0,0.0,0.0
1761,73.0,240.0,240.0,0.0,0.0
1762,72.0,240.0,240.0,0.0,0.0
1763,73.0,0.0,240.0,0.0,0.0
1764,61.0,0.0,15.0,0.0,0.0
1765,65.0,480.0,960.0,0.0,0.0
1766,71.0,240.0,240.0,0.0,0.0
1767,70.0,240.0,240.0,0.0,0.0
1768,71.0,0.0,240.0,0.0,0.0
1769,53.0,0.0,960.0,0.0,0.0
1770,56.0,480.0,960.0,0.0,0.0
1771,50.0,0.0,960.0,0.0,0.0
1772,70.0,240.0,240.0,0.0,0.0
1773,82.0,120.0,15.0,0.0,0.0
1774,54.0,0.0,960.0,0.0,0.0
1775,82.0,240.0,240.0,0.0,0.0
1776,70.0,120.0,15.0,0.0,0.0
1777,54.0,0.0,960.0,0.0,0.0
1778,51.0,480.0,15.0,0.0,0.0
1779,48.0,480.0,960.0,0.0,0.0
1780,68.0,240.0,240.0,0.0,0.0
1781,80.0,120.0,240.0,0.0,0.0
1782,80.0,120.0,120.0,0.0,0.0
1783,49.0,0.0,960.0,0.0,0.0
1784,53.0,240.0,960.0,0.0,0.0
1785,80.0,240.0,240.0,0.0,0.0
1786,68.0,120.0,240.0,0.0,0.0
1787,68.0,120.0,120.0,0.0,0.0
1788,69.0,240.0,240.0,0.0,0.0
1789,70.0,240.0,240.0,0.0,0.0
1790,43.0,480.0,480.0,0.0,0.0
1791,51.0,0.0,480.0,0.0,0.0
1792,72.0,240.0,240.0,0.0,0.0
1793,73.0,0.0,240.0,0.0,0.0
1794,53.0,0.0,480.0,0.0,0.0
1795,61.0,240.0,480.0,0.0,0.0
1796,44.0,0.0,960.0,0.0,0.0
1797,65.0,240.0,240.0,0.0,0.0
1798,60.0,0.0,480.0,0.0,0.0
1799,54.0,0.0,480.0,0.0,0.0
1800,63.0,120.0,240.0,0.0,0.0
1801,61.0,0.0,120.0,0.0,0.0
1802,49.0,240.0,120.0,0.0,0.0
1803,53.0,0.0,120.0,0.0,0.0
1804,61.0,120.0,120.0,0.0,0.0
1805,65.0,120.0,120.0,0.0,0.0
1806,60.0,120.0,240.0,0.0,0.0
1807,63.0,120.0,120.0,0.0,0.0
1808,66.0,0.0,120.0,0.0,0.0
1809,65.0,120.0,120.0,0.0,0.0
1810,59.0,120.0,240.0,0.0,0.0
1811,68.0,0.0,120.0,0.0,0.0
1812,66.0,240.0,120.0,0.0,0.0
1813,58.0,0.0,120.0,0.0,0.0
1814,49.0,0.0,120.0,0.0,0.0
1815,61.0,120.0,120.0,0.0,0.0
1816,65.0,120.0,120.0,0.0,0.0
1817,60.0,120.0,240.0,0.0,0.0
1818,63.0,120.0,120.0,0.0,0.0
1819,66.0,0.0,120.0,0.0,0.0
1820,59.0,120.0,240.0,0.0,0.0
1821,65.0,120.0,120.0,0.0,0.0
1822,68.0,0.0,120.0,0.0,0.0
1823,49.0,0.0,120.0,0.0,0.0
1824,58.0,240.0,120.0,0.0,0.0
1825,66.0,0.0,120.0,0.0,0.0
1826,61.0,120.0,120.0,0.0,0.0
1827,65.0,120.0,120.0,0.0,0.0
1828,60.0,120.0,240.0,0.0,0.0
1829,63.0,120.0,120.0,0.0,0.0
1830,66.0,0.0,120.0,0.0,0.0
1831,59.0,0.0,240.0,0.0,0.0
1832,65.0,120.0,120.0,0.0,0.0
1833,68.0,120.0,120.0,0.0,0.0
1834,58.0,0.0,240.0,0.0,0.0
1835,66.0,120.0,120.0,0.0,0.0
1836,70.0,120.0,120.0,0.0,0.0
1837,53.0,0.0,240.0,0.0,0.0
1838,68.0,120.0,120.0,0.0,0.0
1839,71.0,120.0,120.0,0.0,0.0
1840,54.0,0.0,240.0,0.0,0.0
1841,70.0,120.0,120.0,0.0,0.0
1842,73.0,120.0,120.0,0.0,0.0
1843,72.0,120.0,120.0,0.0,0.0
1844,51.0,0.0,240.0,0.0,0.0
1845,75.0,120.0,120.0,0.0,0.0
1846,73.0,120.0,120.0,0.0,0.0
1847,53.0,120.0,480.0,0.0,0.0
1848,75.0,120.0,120.0,0.0,0.0
1849,77.0,120.0,120.0,0.0,0.0
1850,75.0,0.0,120.0,0.0,0.0
1851,73.0,120.0,120.0,0.0,0.0
1852,71.0,120.0,120.0,0.0,0.0
1853,70.0,120.0,120.0,0.0,0.0
1854,69.0,120.0,120.0,0.0,0.0
1855,54.0,0.0,480.0,0.0,0.0
1856,70.0,120.0,120.0,0.0,0.0
1857,68.0,120.0,120.0,0.0,0.0
1858,66.0,120.0,120.0,0.0,0.0
1859,65.0,120.0,120.0,0.0,0.0
1860,63.0,120.0,120.0,0.0,0.0
1861,61.0,120.0,120.0,0.0,0.0
1862,59.0,120.0,120.0,0.0,0.0
1863,58.0,120.0,120.0,0.0,0.0
1864,56.0,120.0,120.0,0.0,0.0
1865,44.0,0.0,240.0,0.0,0.0
1866,61.0,120.0,120.0,0.0,0.0
1867,49.0,120.0,240.0,0.0,0.0
1868,65.0,120.0,120.0,0.0,0.0
1869,68.0,0.0,120.0,0.0,0.0
1870,73.0,120.0,120.0,0.0,0.0
1871,53.0,120.0,240.0,0.0,0.0
1872,49.0,240.0,240.0,0.0,0.0
1873,65.0,0.0,120.0,0.0,0.0
1874,61.0,120.0,120.0,0.0,0.0
1875,44.0,120.0,240.0,0.0,0.0
1876,65.0,0.0,240.0,0.0,0.0
1877,68.0,0.0,240.0,0.0,0.0
1878,63.0,120.0,120.0,0.0,0.0
1879,66.0,0.0,120.0,0.0,0.0
1880,51.0,120.0,240.0,0.0,0.0
1881,61.0,0.0,120.0,0.0,0.0
1882,65.0,120.0,120.0,0.0,0.0
1883,54.0,120.0,240.0,0.0,0.0
1884,63.0,120.0,120.0,0.0,0.0
1885,60.0,0.0,120.0,0.0,0.0
1886,51.0,120.0,240.0,0.0,0.0
1887,53.0,0.0,120.0,0.0,0.0
1888,49.0,240.0,120.0,0.0,0.0
1889,61.0,0.0,120.0,0.0,0.0
1890,61.0,120.0,240.0,0.0,0.0
1891,73.0,120.0,120.0,0.0,0.0
1892,77.0,0.0,120.0,0.0,0.0
1893,75.0,120.0,120.0,0.0,0.0
1894,60.0,0.0,240.0,0.0,0.0
1895,78.0,120.0,120.0,0.0,0.0
1896,77.0,120.0,120.0,0.0,0.0
1897,59.0,0.0,240.0,0.0,0.0
1898,80.0,120.0,120.0,0.0,0.0
1899,58.0,0.0,120.0,0.0,0.0
1900,49.0,0.0,120.0,0.0,0.0
1901,78.0,240.0,120.0,0.0,0.0
1902,61.0,120.0,240.0,0.0,0.0
1903,73.0,120.0,120.0,0.0,0.0
1904,77.0,0.0,120.0,0.0,0.0
1905,60.0,120.0,240.0,0.0,0.0
1906,75.0,120.0,120.0,0.0,0.0
1907,78.0,0.0,120.0,0.0,0.0
1908,77.0,120.0,120.0,0.0,0.0
1909,59.0,0.0,240.0,0.0,0.0
1910,80.0,120.0,120.0,0.0,0.0
1911,49.0,0.0,120.0,0.0,0.0
1912,58.0,240.0,120.0,0.0,0.0
1913,78.0,0.0,120.0,0.0,0.0
1914,61.0,0.0,240.0,0.0,0.0
1915,73.0,120.0,120.0,0.0,0.0
1916,77.0,120.0,120.0,0.0,0.0
1917,60.0,120.0,240.0,0.0,0.0
1918,75.0,120.0,120.0,0.0,0.0
1919,78.0,0.0,120.0,0.0,0.0
1920,59.0,120.0,240.0,0.0,0.0
1921,77.0,120.0,120.0,0.0,0.0
1922,80.0,0.0,120.0,0.0,0.0
1923,78.0,120.0,120.0,0.0,0.0
1924,58.0,120.0,240.0,0.0,0.0
1925,73.0,0.0,120.0,0.0,0.0
1926,80.0,120.0,120.0,0.0,0.0
1927,53.0,0.0,240.0,0.0,0.0
1928,73.0,120.0,120.0,0.0,0.0
1929,82.0,120.0,120.0,0.0,0.0
1930,54.0,120.0,240.0,0.0,0.0
1931,73.0,0.0,120.0,0.0,0.0
1932,51.0,0.0,240.0,0.0,0.0
1933,84.0,120.0,120.0,0.0,0.0
1934,73.0,120.0,120.0,0.0,0.0
1935,53.0,0.0,480.0,0.0,0.0
1936,41.0,120.0,480.0,0.0,0.0
1937,85.0,120.0,120.0,0.0,0.0
1938,84.0,120.0,120.0,0.0,0.0
1939,82.0,120.0,120.0,0.0,0.0
1940,80.0,0.0,120.0,0.0,0.0
1941,78.0,120.0,120.0,0.0,0.0
1942,77.0,120.0,120.0,0.0,0.0
1943,75.0,120.0,120.0,0.0,0.0
1944,73.0,120.0,120.0,0.0,0.0
1945,82.0,120.0,120.0,0.0,0.0
1946,54.0,0.0,480.0,0.0,0.0
1947,42.0,120.0,480.0,0.0,0.0
1948,80.0,120.0,120.0,0.0,0.0
1949,78.0,120.0,120.0,0.0,0.0
1950,77.0,0.0,120.0,0.0,0.0
1951,75.0,120.0,120.0,0.0,0.0
1952,73.0,120.0,120.0,0.0,0.0
1953,72.0,120.0,120.0,0.0,0.0
1954,70.0,120.0,120.0,0.0,0.0
1955,44.0,120.0,120.0,0.0,0.0
1956,68.0,0.0,240.0,0.0,0.0
1957,53.0,120.0,120.0,0.0,0.0
1958,49.0,120.0,120.0,0.0,0.0
1959,80.0,0.0,120.0,0.0,0.0
1960,53.0,120.0,120.0,0.0,0.0
1961,44.0,120.0,120.0,0.0,0.0
1962,80.0,0.0,120.0,0.0,0.0
1963,53.0,120.0,120.0,0.0,0.0
1964,80.0,120.0,120.0,0.0,0.0
1965,49.0,0.0,120.0,0.0,0.0
1966,53.0,120.0,120.0,0.0,0.0
1967,80.0,120.0,120.0,0.0,0.0
1968,44.0,0.0,120.0,0.0,0.0
1969,77.0,0.0,120.0,0.0,0.0
1970,53.0,120.0,120.0,0.0,0.0
1971,73.0,0.0,120.0,0.0,0.0
1972,49.0,120.0,120.0,0.0,0.0
1973,53.0,0.0,120.0,0.0,0.0
1974,68.0,120.0,120.0,0.0,0.0
1975,44.0,120.0,120.0,0.0,0.0
1976,73.0,0.0,120.0,0.0,0.0
1977,53.0,0.0,120.0,0.0,0.0
1978,68.0,120.0,120.0,0.0,0.0
1979,49.0,0.0,120.0,0.0,0.0
1980,65.0,120.0,120.0,0.0,0.0
1981,53.0,0.0,120.0,0.0,0.0
1982,61.0,80.0,120.0,0.0,0.0
1983,44.0,40.0,120.0,0.0,0.0
1984,65.0,40.0,90.0,0.0,0.0
1985,63.0,80.0,90.0,0.0,0.0
1986,54.0,0.0,120.0,0.0,0.0
1987,65.0,80.0,90.0,0.0,0.0
1988,63.0,40.0,90.0,0.0,0.0
1989,48.0,40.0,120.0,0.0,0.0
1990,65.0,80.0,90.0,0.0,0.0
1991,54.0,80.0,120.0,0.0,0.0
1992,63.0,0.0,90.0,0.0,0.0
1993,65.0,40.0,90.0,0.0,0.0
1994,44.0,40.0,120.0,0.0,0.0
1995,63.0,80.0,90.0,0.0,0.0
1996,54.0,0.0,120.0,0.0,0.0
1997,65.0,80.0,90.0,0.0,0.0
1998,48.0,40.0,120.0,0.0,0.0
1999,63.0,40.0,90.0,0.0,0.0
2000,65.0,80.0,90.0,0.0,0.0
2001,54.0,0.0,120.0,0.0,0.0
2002,63.0,80.0,90.0,0.0,0.0
2003,44.0,40.0,120.0,0.0,0.0
2004,65.0,40.0,90.0,0.0,0.0
2005,63.0,80.0,90.0,0.0,0.0
2006,54.0,80.0,120.0,0.0,0.0
2007,65.0,0.0,90.0,0.0,0.0
2008,63.0,40.0,90.0,0.0,0.0
2009,48.0,40.0,120.0,0.0,0.0
2010,65.0,80.0,90.0,0.0,0.0
2011,54.0,0.0,120.0,0.0,0.0
2012,65.0,60.0,15.0,0.0,0.0
2013,44.0,0.0,120.0,0.0,0.0
2014,63.0,60.0,60.0,0.0,0.0
2015,65.0,60.0,60.0,0.0,0.0
2016,54.0,60.0,120.0,0.0,0.0
2017,63.0,0.0,60.0,0.0,0.0
2018,48.0,60.0,120.0,0.0,0.0
2019,65.0,60.0,60.0,0.0,0.0
2020,63.0,0.0,60.0,0.0,0.0
2021,61.0,60.0,60.0,0.0,0.0
2022,54.0,0.0,120.0,0.0,0.0
2023,63.0,240.0,60.0,0.0,0.0
2024,49.0,0.0,240.0,0.0,0.0
2025,61.0,240.0,15.0,0.0,0.0
2026,73.0,240.0,240.0,0.0,0.0
2027,60.0,240.0,240.0,0.0,0.0
2028,73.0,240.0,240.0,0.0,0.0
2029,61.0,0.0,240.0,0.0,0.0
2030,72.0,240.0,240.0,0.0,0.0
2031,63.0,0.0,240.0,0.0,0.0
2032,61.0,0.0,240.0,0.0,0.0
2033,73.0,240.0,240.0,0.0,0.0
2034,60.0,240.0,240.0,0.0,0.0
2035,75.0,0.0,240.0,0.0,0.0
2036,77.0,0.0,240.0,0.0,0.0
2037,59.0,120.0,240.0,0.0,0.0
2038,78.0,120.0,120.0,0.0,0.0
2039,58.0,0.0,240.0,0.0,0.0
2040,80.0,120.0,120.0,0.0,0.0
2041,49.0,120.0,240.0,0.0,0.0
2042,82.0,120.0,120.0,0.0,0.0
2043,80.0,0.0,120.0,0.0,0.0
2044,57.0,120.0,240.0,0.0,0.0
2045,78.0,120.0,120.0,0.0,0.0
2046,76.0,0.0,120.0,0.0,0.0
2047,49.0,120.0,240.0,0.0,0.0
2048,75.0,120.0,120.0,0.0,0.0
2049,73.0,0.0,120.0,0.0,0.0
2050,56.0,0.0,240.0,0.0,0.0
2051,72.0,120.0,120.0,0.0,0.0
2052,73.0,120.0,120.0,0.0,0.0
2053,49.0,120.0,240.0,0.0,0.0
2054,75.0,120.0,120.0,0.0,0.0
2055,73.0,0.0,120.0,0.0,0.0
2056,72.0,120.0,120.0,0.0,0.0
2057,60.0,120.0,240.0,0.0,0.0
2058,70.0,0.0,120.0,0.0,0.0
2059,49.0,0.0,240.0,0.0,0.0
2060,68.0,120.0,120.0,0.0,0.0
2061,66.0,120.0,120.0,0.0,0.0
2062,65.0,0.0,120.0,0.0,0.0
2063,61.0,240.0,120.0,0.0,0.0
2064,65.0,120.0,120.0,0.0,0.0
2065,49.0,240.0,240.0,0.0,0.0
2066,48.0,240.0,240.0,0.0,0.0
2067,61.0,240.0,240.0,0.0,0.0
2068,49.0,0.0,240.0,0.0,0.0
2069,51.0,0.0,240.0,0.0,0.0
2070,60.0,240.0,240.0,0.0,0.0
2071,49.0,0.0,240.0,0.0,0.0
2072,61.0,240.0,240.0,0.0,0.0
2073,48.0,0.0,240.0,0.0,0.0
2074,63.0,240.0,240.0,0.0,0.0
2075,47.0,120.0,240.0,0.0,0.0
2076,65.0,0.0,240.0,0.0,0.0
2077,46.0,0.0,480.0,0.0,0.0
2078,66.0,180.0,120.0,0.0,0.0
2079,68.0,60.0,60.0,0.0,0.0
2080,66.0,60.0,60.0,0.0,0.0
2081,65.0,60.0,60.0,0.0,0.0
2082,66.0,240.0,60.0,0.0,0.0
2083,42.0,0.0,480.0,0.0,0.0
2084,68.0,240.0,240.0,0.0,0.0
2085,70.0,240.0,240.0,0.0,0.0
2086,66.0,0.0,240.0,0.0,0.0
2087,70.0,240.0,240.0,0.0,0.0
2088,65.0,480.0,240.0,0.0,0.0
2089,68.0,0.0,240.0,0.0,0.0
2090,44.0,0.0,15.0,0.0,0.0
2091,60.0,0.0,240.0,0.0,0.0
2092,54.0,0.0,240.0,0.0,0.0
2093,54.0,0.0,960.0,0.0,0.0
2094,63.0,360.0,960.0,0.0,0.0
2095,49.0,480.0,480.0,0.0,0.0
2096,44.0,0.0,480.0,0.0,0.0
2097,37.0,240.0,360.0,0.0,0.0
2098,61.0,0.0,360.0,0.0,0.0
2099,53.0,0.0,360.0,0.0,0.0
2100,70.0,120.0,120.0,0.0,0.0
2101,68.0,120.0,120.0,0.0,0.0
2102,66.0,120.0,120.0,0.0,0.0
2103,65.0,240.0,120.0,0.0,0.0
2104,63.0,240.0,240.0,0.0,0.0
2105,61.0,240.0,240.0,0.0,0.0
2106,37.0,0.0,240.0,0.0,0.0
2107,41.0,240.0,240.0,0.0,0.0
2108,61.0,240.0,720.0,0.0,0.0
2109,44.0,240.0,240.0,0.0,0.0
2110,41.0,0.0,240.0,0.0,0.0
2111,37.0,0.0,240.0,0.0,0.0
2112,73.0,240.0,240.0,0.0,0.0
2113,41.0,240.0,240.0,0.0,0.0
2114,75.0,0.0,240.0,0.0,0.0
2115,44.0,360.0,240.0,0.0,0.0
2116,77.0,0.0,240.0,0.0,0.0
2117,72.0,0.0,60.0,0.0,0.0
2118,78.0,120.0,360.0,0.0,0.0
2119,51.0,0.0,240.0,0.0,0.0
2120,75.0,240.0,120.0,0.0,0.0
2121,54.0,240.0,240.0,0.0,0.0
2122,72.0,0.0,480.0,0.0,0.0
2123,60.0,240.0,240.0,0.0,0.0
2124,54.0,240.0,240.0,0.0,0.0
2125,51.0,120.0,240.0,0.0,0.0
2126,54.0,0.0,240.0,0.0,0.0
2127,68.0,120.0,120.0,0.0,0.0
2128,66.0,120.0,120.0,0.0,0.0
2129,60.0,0.0,240.0,0.0,0.0
2130,65.0,120.0,120.0,0.0,0.0
2131,63.0,240.0,120.0,0.0,0.0
2132,61.0,240.0,240.0,0.0,0.0
2133,39.0,240.0,240.0,0.0,0.0
2134,60.0,0.0,15.0,0.0,0.0
2135,42.0,240.0,240.0,0.0,0.0
2136,48.0,240.0,240.0,0.0,0.0
2137,42.0,0.0,240.0,0.0,0.0
2138,75.0,240.0,240.0,0.0,0.0
2139,39.0,0.0,240.0,0.0,0.0
2140,42.0,240.0,240.0,0.0,0.0
2141,77.0,0.0,240.0,0.0,0.0
2142,48.0,0.0,240.0,0.0,0.0
2143,78.0,0.0,240.0,0.0,0.0
2144,74.0,360.0,60.0,0.0,0.0
2145,80.0,120.0,360.0,0.0,0.0
2146,53.0,240.0,240.0,0.0,0.0
2147,77.0,0.0,120.0,0.0,0.0
2148,74.0,240.0,480.0,0.0,0.0
2149,56.0,240.0,240.0,0.0,0.0
2150,59.0,0.0,240.0,0.0,0.0
2151,56.0,240.0,240.0,0.0,0.0
2152,77.0,240.0,240.0,0.0,0.0
2153,53.0,0.0,240.0,0.0,0.0
2154,78.0,0.0,240.0,0.0,0.0
2155,56.0,240.0,240.0,0.0,0.0
2156,80.0,0.0,240.0,0.0,0.0
2157,59.0,0.0,240.0,0.0,0.0
2158,75.0,360.0,60.0,0.0,0.0
2159,82.0,120.0,360.0,0.0,0.0
2160,42.0,240.0,240.0,0.0,0.0
2161,78.0,0.0,120.0,0.0,0.0
2162,75.0,0.0,240.0,0.0,0.0
2163,46.0,240.0,240.0,0.0,0.0
2164,51.0,0.0,240.0,0.0,0.0
2165,72.0,360.0,60.0,0.0,0.0
2166,78.0,120.0,360.0,0.0,0.0
2167,44.0,0.0,240.0,0.0,0.0
2168,75.0,240.0,120.0,0.0,0.0
2169,51.0,240.0,240.0,0.0,0.0
2170,72.0,0.0,240.0,0.0,0.0
2171,54.0,360.0,240.0,0.0,0.0
2172,67.0,0.0,60.0,0.0,0.0
2173,73.0,120.0,360.0,0.0,0.0
2174,46.0,240.0,240.0,0.0,0.0
2175,70.0,0.0,120.0,0.0,0.0
2176,67.0,240.0,480.0,0.0,0.0
2177,49.0,240.0,240.0,0.0,0.0
2178,52.0,0.0,240.0,0.0,0.0
2179,49.0,240.0,240.0,0.0,0.0
2180,46.0,0.0,240.0,0.0,0.0
2181,67.0,240.0,240.0,0.0,0.0
2182,49.0,0.0,240.0,0.0,0.0
2183,67.0,240.0,240.0,0.0,0.0
2184,52.0,120.0,240.0,0.0,0.0
2185,67.0,0.0,240.0,0.0,0.0
2186,68.0,120.0,120.0,0.0,0.0
2187,53.0,240.0,960.0,0.0,0.0
2188,44.0,0.0,960.0,0.0,0.0
2189,77.0,120.0,120.0,0.0,0.0
2190,73.0,120.0,120.0,0.0,0.0
2191,68.0,120.0,120.0,0.0,0.0
2192,65.0,120.0,120.0,0.0,0.0
2193,73.0,120.0,120.0,0.0,0.0
2194,68.0,120.0,120.0,0.0,0.0
2195,65.0,0.0,120.0,0.0,0.0
2196,56.0,0.0,480.0,0.0,0.0
2197,65.0,0.0,240.0,0.0,0.0
2198,68.0,240.0,240.0,0.0,0.0
2199,66.0,120.0,240.0,0.0,0.0
2200,63.0,0.0,240.0,0.0,0.0
2201,65.0,0.0,120.0,0.0,0.0
2202,61.0,240.0,120.0,0.0,0.0
2203,44.0,120.0,480.0,0.0,0.0
2204,60.0,0.0,120.0,0.0,0.0
2205,63.0,120.0,120.0,0.0,0.0
2206,61.0,0.0,480.0,0.0,0.0
2207,49.0,120.0,120.0,0.0,0.0
2208,56.0,120.0,120.0,0.0,0.0
2209,52.0,120.0,120.0,0.0,0.0
2210,56.0,120.0,120.0,0.0,0.0
2211,49.0,120.0,120.0,0.0,0.0
2212,56.0,120.0,120.0,0.0,0.0
2213,52.0,120.0,120.0,0.0,0.0
2214,56.0,120.0,120.0,0.0,0.0
2215,49.0,120.0,120.0,0.0,0.0
2216,61.0,0.0,120.0,0.0,0.0
2217,56.0,120.0,120.0,0.0,0.0
2218,52.0,0.0,120.0,0.0,0.0
2219,63.0,120.0,120.0,0.0,0.0
2220,56.0,0.0,120.0,0.0,0.0
2221,64.0,120.0,120.0,0.0,0.0
2222,49.0,120.0,120.0,0.0,0.0
2223,66.0,0.0,120.0,0.0,0.0
2224,68.0,120.0,120.0,0.0,0.0
2225,56.0,0.0,120.0,0.0,0.0
2226,70.0,0.0,120.0,0.0,0.0
2227,52.0,120.0,120.0,0.0,0.0
2228,72.0,120.0,120.0,0.0,0.0
2229,56.0,0.0,120.0,0.0,0.0
2230,73.0,120.0,120.0,0.0,0.0
2231,49.0,0.0,120.0,0.0,0.0
2232,68.0,120.0,120.0,0.0,0.0
2233,56.0,0.0,120.0,0.0,0.0
2234,76.0,120.0,120.0,0.0,0.0
2235,52.0,0.0,120.0,0.0,0.0
2236,56.0,0.0,120.0,0.0,0.0
2237,75.0,120.0,120.0,0.0,0.0
2238,49.0,120.0,120.0,0.0,0.0
2239,73.0,0.0,120.0,0.0,0.0
2240,68.0,0.0,120.0,0.0,0.0
2241,56.0,120.0,120.0,0.0,0.0
2242,76.0,0.0,120.0,0.0,0.0
2243,52.0,120.0,120.0,0.0,0.0
2244,75.0,120.0,120.0,0.0,0.0
2245,56.0,0.0,120.0,0.0,0.0
2246,73.0,0.0,120.0,0.0,0.0
2247,49.0,120.0,120.0,0.0,0.0
2248,75.0,0.0,120.0,0.0,0.0
2249,58.0,120.0,120.0,0.0,0.0
2250,71.0,0.0,120.0,0.0,0.0
2251,52.0,120.0,120.0,0.0,0.0
2252,73.0,120.0,120.0,0.0,0.0
2253,58.0,0.0,120.0,0.0,0.0
2254,49.0,120.0,120.0,0.0,0.0
2255,70.0,0.0,120.0,0.0,0.0
2256,71.0,0.0,120.0,0.0,0.0
2257,58.0,120.0,120.0,0.0,0.0
2258,52.0,0.0,120.0,0.0,0.0
2259,68.0,120.0,120.0,0.0,0.0
2260,58.0,120.0,120.0,0.0,0.0
2261,70.0,0.0,120.0,0.0,0.0
2262,67.0,0.0,240.0,0.0,0.0
2263,51.0,120.0,120.0,0.0,0.0
2264,61.0,120.0,120.0,0.0,0.0
2265,85.0,120.0,480.0,0.0,0.0
2266,58.0,120.0,120.0,0.0,0.0
2267,61.0,120.0,120.0,0.0,0.0
2268,51.0,120.0,120.0,0.0,0.0
2269,61.0,0.0,120.0,0.0,0.0
2270,58.0,120.0,120.0,0.0,0.0
2271,83.0,0.0,480.0,0.0,0.0
2272,61.0,120.0,120.0,0.0,0.0
2273,51.0,120.0,120.0,0.0,0.0
2274,61.0,120.0,120.0,0.0,0.0
2275,82.0,120.0,480.0,0.0,0.0
2276,58.0,120.0,120.0,0.0,0.0
2277,61.0,120.0,120.0,0.0,0.0
2278,51.0,120.0,120.0,0.0,0.0
2279,61.0,0.0,120.0,0.0,0.0
2280,58.0,120.0,120.0,0.0,0.0
2281,80.0,0.0,480.0,0.0,0.0
2282,61.0,120.0,120.0,0.0,0.0
2283,51.0,120.0,120.0,0.0,0.0
2284,61.0,120.0,120.0,0.0,0.0
2285,79.0,0.0,480.0,0.0,0.0
2286,58.0,120.0,120.0,0.0,0.0
2287,61.0,120.0,120.0,0.0,0.0
2288,51.0,120.0,120.0,0.0,0.0
2289,61.0,120.0,120.0,0.0,0.0
2290,76.0,120.0,480.0,0.0,0.0
2291,58.0,120.0,120.0,0.0,0.0
2292,61.0,120.0,120.0,0.0,0.0
2293,51.0,120.0,120.0,0.0,0.0
2294,58.0,0.0,120.0,0.0,0.0
2295,55.0,120.0,120.0,0.0,0.0
2296,75.0,120.0,480.0,0.0,0.0
2297,58.0,120.0,120.0,0.0,0.0
2298,51.0,120.0,120.0,0.0,0.0
2299,58.0,0.0,120.0,0.0,0.0
2300,73.0,0.0,240.0,0.0,0.0
2301,55.0,120.0,120.0,0.0,0.0
2302,58.0,120.0,120.0,0.0,0.0
2303,73.0,0.0,240.0,0.0,0.0
2304,51.0,120.0,120.0,0.0,0.0
2305,60.0,120.0,120.0,0.0,0.0
2306,56.0,120.0,120.0,0.0,0.0
2307,72.0,120.0,240.0,0.0,0.0
2308,60.0,0.0,120.0,0.0,0.0
2309,71.0,120.0,480.0,0.0,0.0
2310,51.0,120.0,120.0,0.0,0.0
2311,59.0,120.0,120.0,0.0,0.0
2312,56.0,120.0,120.0,0.0,0.0
2313,59.0,0.0,120.0,0.0,0.0
2314,51.0,120.0,120.0,0.0,0.0
2315,71.0,0.0,120.0,0.0,0.0
2316,59.0,120.0,120.0,0.0,0.0
2317,70.0,0.0,120.0,0.0,0.0
2318,56.0,120.0,120.0,0.0,0.0
2319,59.0,0.0,120.0,0.0,0.0
2320,71.0,120.0,120.0,0.0,0.0
2321,51.0,0.0,120.0,0.0,0.0
2322,73.0,120.0,120.0,0.0,0.0
2323,71.0,0.0,120.0,0.0,0.0
2324,59.0,120.0,120.0,0.0,0.0
2325,70.0,0.0,120.0,0.0,0.0
2326,56.0,120.0,120.0,0.0,0.0
2327,71.0,120.0,120.0,0.0,0.0
2328,59.0,0.0,120.0,0.0,0.0
2329,74.0,120.0,360.0,0.0,0.0
2330,50.0,120.0,120.0,0.0,0.0
2331,59.0,120.0,120.0,0.0,0.0
2332,54.0,0.0,120.0,0.0,0.0
2333,59.0,60.0,120.0,0.0,0.0
2334,71.0,0.0,120.0,0.0,0.0
2335,50.0,0.0,120.0,0.0,0.0
2336,73.0,60.0,60.0,0.0,0.0
2337,71.0,60.0,60.0,0.0,0.0
2338,59.0,60.0,120.0,0.0,0.0
2339,73.0,60.0,60.0,0.0,0.0
2340,71.0,0.0,60.0,0.0,0.0
2341,73.0,60.0,60.0,0.0,0.0
2342,54.0,0.0,120.0,0.0,0.0
2343,71.0,60.0,60.0,0.0,0.0
2344,59.0,120.0,120.0,0.0,0.0
2345,70.0,60.0,60.0,0.0,0.0
2346,71.0,0.0,60.0,0.0,0.0
2347,78.0,0.0,360.0,0.0,0.0
2348,50.0,120.0,120.0,0.0,0.0
2349,59.0,120.0,120.0,0.0,0.0
2350,54.0,120.0,120.0,0.0,0.0
2351,71.0,0.0,120.0,0.0,0.0
2352,59.0,60.0,120.0,0.0,0.0
2353,50.0,60.0,120.0,0.0,0.0
2354,73.0,60.0,60.0,0.0,0.0
2355,71.0,0.0,60.0,0.0,0.0
2356,73.0,60.0,60.0,0.0,0.0
2357,59.0,60.0,120.0,0.0,0.0
2358,71.0,0.0,60.0,0.0,0.0
2359,54.0,60.0,120.0,0.0,0.0
2360,73.0,60.0,60.0,0.0,0.0
2361,71.0,0.0,60.0,0.0,0.0
2362,70.0,60.0,60.0,0.0,0.0
2363,59.0,0.0,120.0,0.0,0.0
2364,71.0,120.0,60.0,0.0,0.0
2365,49.0,0.0,120.0,0.0,0.0
2366,77.0,120.0,120.0,0.0,0.0
2367,59.0,120.0,120.0,0.0,0.0
2368,80.0,0.0,120.0,0.0,0.0
2369,56.0,120.0,120.0,0.0,0.0
2370,59.0,120.0,120.0,0.0,0.0
2371,83.0,0.0,600.0,0.0,0.0
2372,49.0,120.0,120.0,0.0,0.0
2373,59.0,120.0,120.0,0.0,0.0
2374,56.0,120.0,120.0,0.0,0.0
2375,59.0,120.0,120.0,0.0,0.0
2376,49.0,120.0,120.0,0.0,0.0
2377,85.0,0.0,120.0,0.0,0.0
2378,59.0,120.0,120.0,0.0,0.0
2379,82.0,120.0,120.0,0.0,0.0
2380,56.0,0.0,120.0,0.0,0.0
2381,83.0,120.0,120.0,0.0,0.0
2382,59.0,0.0,120.0,0.0,0.0
2383,49.0,0.0,120.0,0.0,0.0
2384,80.0,120.0,120.0,0.0,0.0
2385,59.0,120.0,120.0,0.0,0.0
2386,82.0,0.0,120.0,0.0,0.0
2387,78.0,120.0,120.0,0.0,0.0
2388,56.0,0.0,120.0,0.0,0.0
2389,59.0,0.0,120.0,0.0,0.0
2390,80.0,120.0,120.0,0.0,0.0
2391,49.0,0.0,120.0,0.0,0.0
2392,77.0,120.0,120.0,0.0,0.0
2393,78.0,0.0,120.0,0.0,0.0
2394,59.0,120.0,120.0,0.0,0.0
2395,80.0,0.0,120.0,0.0,0.0
2396,56.0,120.0,120.0,0.0,0.0
2397,78.0,120.0,120.0,0.0,0.0
2398,59.0,0.0,120.0,0.0,0.0
2399,77.0,120.0,120.0,0.0,0.0
2400,49.0,0.0,120.0,0.0,0.0
2401,59.0,120.0,120.0,0.0,0.0
2402,78.0,0.0,120.0,0.0,0.0
2403,80.0,120.0,120.0,0.0,0.0
2404,56.0,0.0,120.0,0.0,0.0
2405,82.0,0.0,120.0,0.0,0.0
2406,59.0,120.0,120.0,0.0,0.0
2407,83.0,120.0,120.0,0.0,0.0
2408,49.0,0.0,120.0,0.0,0.0
2409,56.0,0.0,120.0,0.0,0.0
2410,82.0,120.0,120.0,0.0,0.0
2411,53.0,120.0,120.0,0.0,0.0
2412,80.0,0.0,120.0,0.0,0.0
2413,56.0,0.0,120.0,0.0,0.0
2414,78.0,120.0,120.0,0.0,0.0
2415,77.0,0.0,120.0,0.0,0.0
2416,49.0,120.0,120.0,0.0,0.0
2417,75.0,120.0,120.0,0.0,0.0
2418,56.0,0.0,120.0,0.0,0.0
2419,53.0,0.0,120.0,0.0,0.0
2420,73.0,120.0,120.0,0.0,0.0
2421,56.0,0.0,120.0,0.0,0.0
2422,71.0,60.0,120.0,0.0,0.0
2423,50.0,0.0,120.0,0.0,0.0
2424,71.0,60.0,60.0,0.0,0.0
2425,73.0,120.0,60.0,0.0,0.0
2426,56.0,0.0,120.0,0.0,0.0
2427,71.0,120.0,120.0,0.0,0.0
2428,53.0,120.0,120.0,0.0,0.0
2429,70.0,0.0,240.0,0.0,0.0
2430,56.0,120.0,120.0,0.0,0.0
2431,50.0,120.0,120.0,0.0,0.0
2432,56.0,120.0,120.0,0.0,0.0
2433,53.0,120.0,120.0,0.0,0.0
2434,56.0,120.0,120.0,0.0,0.0
2435,50.0,120.0,120.0,0.0,0.0
2436,56.0,120.0,120.0,0.0,0.0
2437,70.0,0.0,15.0,0.0,0.0
2438,53.0,120.0,120.0,0.0,0.0
2439,56.0,0.0,120.0,0.0,0.0
2440,50.0,120.0,120.0,0.0,0.0
2441,82.0,120.0,240.0,0.0,0.0
2442,58.0,0.0,120.0,0.0,0.0
2443,53.0,120.0,120.0,0.0,0.0
2444,80.0,0.0,480.0,0.0,0.0
2445,58.0,120.0,120.0,0.0,0.0
2446,51.0,120.0,120.0,0.0,0.0
2447,58.0,120.0,120.0,0.0,0.0
2448,78.0,0.0,480.0,0.0,0.0
2449,54.0,120.0,120.0,0.0,0.0
2450,58.0,120.0,120.0,0.0,0.0
2451,49.0,120.0,120.0,0.0,0.0
2452,58.0,120.0,120.0,0.0,0.0
2453,77.0,0.0,360.0,0.0,0.0
2454,53.0,120.0,120.0,0.0,0.0
2455,58.0,120.0,120.0,0.0,0.0
2456,48.0,120.0,120.0,0.0,0.0
2457,75.0,0.0,120.0,0.0,0.0
2458,58.0,120.0,120.0,0.0,0.0
2459,78.0,120.0,120.0,0.0,0.0
2460,51.0,0.0,120.0,0.0,0.0
2461,58.0,0.0,120.0,0.0,0.0
2462,77.0,120.0,120.0,0.0,0.0
2463,47.0,120.0,120.0,0.0,0.0
2464,80.0,0.0,120.0,0.0,0.0
2465,78.0,0.0,120.0,0.0,0.0
2466,57.0,120.0,120.0,0.0,0.0
2467,77.0,0.0,120.0,0.0,0.0
2468,51.0,120.0,120.0,0.0,0.0
2469,57.0,0.0,120.0,0.0,0.0
2470,75.0,60.0,120.0,0.0,0.0
2471,46.0,0.0,480.0,0.0,0.0
2472,58.0,0.0,480.0,0.0,0.0
2473,74.0,180.0,60.0,0.0,0.0
2474,70.0,120.0,120.0,0.0,0.0
2475,82.0,120.0,120.0,0.0,0.0
2476,81.0,120.0,120.0,0.0,0.0
2477,82.0,120.0,120.0,0.0,0.0
2478,81.0,120.0,120.0,0.0,0.0
2479,82.0,120.0,120.0,0.0,0.0
2480,81.0,120.0,120.0,0.0,0.0
2481,82.0,120.0,120.0,0.0,0.0
2482,83.0,120.0,120.0,0.0,0.0
2483,80.0,120.0,120.0,0.0,0.0
2484,82.0,120.0,120.0,0.0,0.0
2485,62.0,120.0,480.0,0.0,0.0
2486,78.0,120.0,120.0,0.0,0.0
2487,58.0,0.0,480.0,0.0,0.0
2488,80.0,120.0,120.0,0.0,0.0
2489,77.0,120.0,120.0,0.0,0.0
2490,78.0,0.0,120.0,0.0,0.0
2491,75.0,120.0,120.0,0.0,0.0
2492,59.0,0.0,480.0,0.0,0.0
2493,63.0,120.0,480.0,0.0,0.0
2494,77.0,120.0,120.0,0.0,0.0
2495,73.0,120.0,120.0,0.0,0.0
2496,75.0,0.0,120.0,0.0,0.0
2497,71.0,120.0,120.0,0.0,0.0
2498,73.0,120.0,120.0,0.0,0.0
2499,70.0,120.0,120.0,0.0,0.0
2500,71.0,120.0,120.0,0.0,0.0
2501,69.0,360.0,120.0,0.0,0.0
2502,78.0,240.0,240.0,0.0,0.0
2503,47.0,0.0,480.0,0.0,0.0
2504,57.0,0.0,480.0,0.0,0.0
2505,77.0,240.0,240.0,0.0,0.0
2506,75.0,60.0,240.0,0.0,0.0
2507,74.0,180.0,60.0,0.0,0.0
2508,58.0,120.0,480.0,0.0,0.0
2509,46.0,0.0,480.0,0.0,0.0
2510,69.0,120.0,120.0,0.0,0.0
2511,70.0,120.0,120.0,0.0,0.0
2512,69.0,0.0,120.0,0.0,0.0
2513,70.0,120.0,120.0,0.0,0.0
2514,69.0,120.0,120.0,0.0,0.0
2515,70.0,120.0,120.0,0.0,0.0
2516,69.0,120.0,120.0,0.0,0.0
2517,70.0,120.0,120.0,0.0,0.0
2518,71.0,120.0,120.0,0.0,0.0
2519,68.0,120.0,120.0,0.0,0.0
2520,70.0,120.0,120.0,0.0,0.0
2521,66.0,120.0,120.0,0.0,0.0
2522,46.0,0.0,480.0,0.0,0.0
2523,56.0,0.0,480.0,0.0,0.0
2524,68.0,120.0,120.0,0.0,0.0
2525,65.0,120.0,120.0,0.0,0.0
2526,66.0,120.0,120.0,0.0,0.0
2527,54.0,120.0,480.0,0.0,0.0
2528,47.0,0.0,480.0,0.0,0.0
2529,63.0,120.0,120.0,0.0,0.0
2530,65.0,120.0,120.0,0.0,0.0
2531,61.0,120.0,120.0,0.0,0.0
2532,63.0,0.0,120.0,0.0,0.0
2533,59.0,120.0,120.0,0.0,0.0
2534,61.0,120.0,120.0,0.0,0.0
2535,58.0,120.0,120.0,0.0,0.0
2536,59.0,120.0,120.0,0.0,0.0
2537,57.0,360.0,120.0,0.0,0.0
2538,63.0,240.0,240.0,0.0,0.0
2539,47.0,0.0,480.0,0.0,0.0
2540,66.0,240.0,240.0,0.0,0.0
2541,51.0,0.0,480.0,0.0,0.0
2542,57.0,120.0,240.0,0.0,0.0
2543,50.0,120.0,240.0,0.0,0.0
2544,46.0,0.0,240.0,0.0,0.0
2545,58.0,120.0,120.0,0.0,0.0
2546,70.0,360.0,120.0,0.0,0.0
2547,54.0,0.0,240.0,0.0,0.0
2548,46.0,240.0,240.0,0.0,0.0
2549,51.0,0.0,240.0,0.0,0.0
2550,70.0,240.0,240.0,0.0,0.0
2551,46.0,0.0,240.0,0.0,0.0
2552,50.0,0.0,240.0,0.0,0.0
2553,53.0,240.0,240.0,0.0,0.0
2554,70.0,240.0,240.0,0.0,0.0
2555,51.0,0.0,240.0,0.0,0.0
2556,46.0,240.0,240.0,0.0,0.0
2557,54.0,0.0,240.0,0.0,0.0
2558,70.0,480.0,240.0,0.0,0.0
2559,46.0,0.0,480.0,0.0,0.0
2560,50.0,240.0,480.0,0.0,0.0
2561,53.0,0.0,480.0,0.0,0.0
2562,70.0,0.0,240.0,0.0,0.0
2563,69.0,240.0,240.0,0.0,0.0
2564,70.0,240.0,240.0,0.0,0.0
2565,69.0,240.0,240.0,0.0,0.0
2566,70.0,240.0,240.0,0.0,0.0
2567,69.0,240.0,240.0,0.0,0.0
2568,70.0,480.0,240.0,0.0,0.0
2569,73.0,0.0,480.0,0.0,0.0
2570,56.0,240.0,240.0,0.0,0.0
2571,61.0,0.0,240.0,0.0,0.0
2572,65.0,0.0,240.0,0.0,0.0
2573,71.0,240.0,480.0,0.0,0.0
2574,65.0,0.0,240.0,0.0,0.0
2575,56.0,240.0,240.0,0.0,0.0
2576,61.0,0.0,240.0,0.0,0.0
2577,56.0,0.0,240.0,0.0,0.0
2578,61.0,0.0,240.0,0.0,0.0
2579,65.0,0.0,240.0,0.0,0.0
2580,61.0,0.0,480.0,0.0,0.0
2581,65.0,0.0,480.0,0.0,0.0
2582,56.0,0.0,480.0,0.0,0.0
2583,71.0,120.0,120.0,0.0,0.0
2584,70.0,120.0,120.0,0.0,0.0
2585,71.0,120.0,120.0,0.0,0.0
2586,70.0,120.0,120.0,0.0,0.0
2587,71.0,120.0,120.0,0.0,0.0
2588,70.0,120.0,120.0,0.0,0.0
2589,71.0,480.0,120.0,0.0,0.0
2590,78.0,240.0,480.0,0.0,0.0
2591,61.0,0.0,240.0,0.0,0.0
2592,68.0,0.0,240.0,0.0,0.0
2593,71.0,0.0,240.0,0.0,0.0
2594,77.0,0.0,480.0,0.0,0.0
2595,71.0,240.0,240.0,0.0,0.0
2596,68.0,0.0,15.0,0.0,0.0
2597,61.0,0.0,15.0,0.0,0.0
2598,68.0,0.0,15.0,0.0,0.0
2599,71.0,0.0,15.0,0.0,0.0
2600,61.0,240.0,15.0,0.0,0.0
2601,77.0,120.0,120.0,0.0,0.0
2602,75.0,120.0,120.0,0.0,0.0
2603,77.0,0.0,120.0,0.0,0.0
2604,78.0,120.0,120.0,0.0,0.0
2605,77.0,120.0,120.0,0.0,0.0
2606,75.0,120.0,120.0,0.0,0.0
2607,77.0,480.0,120.0,0.0,0.0
2608,85.0,0.0,480.0,0.0,0.0
2609,61.0,240.0,240.0,0.0,0.0
2610,83.0,240.0,480.0,0.0,0.0
2611,71.0,240.0,240.0,0.0,0.0
2612,75.0,0.0,240.0,0.0,0.0
2613,62.0,480.0,960.0,0.0,0.0
2614,83.0,120.0,120.0,0.0,0.0
2615,82.0,120.0,120.0,0.0,0.0
2616,83.0,120.0,120.0,0.0,0.0
2617,85.0,120.0,120.0,0.0,0.0
2618,83.0,120.0,120.0,0.0,0.0
2619,81.0,120.0,120.0,0.0,0.0
2620,80.0,0.0,120.0,0.0,0.0
2621,78.0,0.0,480.0,0.0,0.0
2622,61.0,240.0,240.0,0.0,0.0
2623,77.0,0.0,480.0,0.0,0.0
2624,68.0,240.0,240.0,0.0,0.0
2625,71.0,240.0,240.0,0.0,0.0
2626,62.0,120.0,960.0,0.0,0.0
2627,83.0,120.0,120.0,0.0,0.0
2628,82.0,120.0,120.0,0.0,0.0
2629,83.0,120.0,120.0,0.0,0.0
2630,85.0,120.0,120.0,0.0,0.0
2631,83.0,120.0,120.0,0.0,0.0
2632,81.0,120.0,120.0,0.0,0.0
2633,80.0,0.0,120.0,0.0,0.0
2634,61.0,120.0,240.0,0.0,0.0
2635,78.0,120.0,120.0,0.0,0.0
2636,77.0,0.0,120.0,0.0,0.0
2637,83.0,120.0,120.0,0.0,0.0
2638,82.0,120.0,120.0,0.0,0.0
2639,68.0,0.0,960.0,0.0,0.0
2640,62.0,120.0,480.0,0.0,0.0
2641,71.0,0.0,960.0,0.0,0.0
2642,85.0,120.0,120.0,0.0,0.0
2643,83.0,120.0,120.0,0.0,0.0
2644,81.0,120.0,120.0,0.0,0.0
2645,80.0,0.0,120.0,0.0,0.0
2646,61.0,120.0,480.0,0.0,0.0
2647,78.0,120.0,120.0,0.0,0.0
2648,77.0,120.0,120.0,0.0,0.0
2649,83.0,120.0,120.0,0.0,0.0
2650,82.0,0.0,120.0,0.0,0.0
2651,71.0,0.0,960.0,0.0,0.0
2652,62.0,0.0,480.0,0.0,0.0
2653,85.0,120.0,120.0,0.0,0.0
2654,68.0,120.0,960.0,0.0,0.0
2655,83.0,120.0,120.0,0.0,0.0
2656,81.0,120.0,120.0,0.0,0.0
2657,80.0,120.0,120.0,0.0,0.0
2658,61.0,0.0,480.0,0.0,0.0
2659,78.0,120.0,120.0,0.0,0.0
2660,77.0,120.0,120.0,0.0,0.0
2661,80.0,120.0,120.0,0.0,0.0
2662,79.0,0.0,120.0,0.0,0.0
2663,82.0,120.0,120.0,0.0,0.0
2664,80.0,120.0,120.0,0.0,0.0
2665,78.0,120.0,120.0,0.0,0.0
2666,77.0,120.0,120.0,0.0,0.0
2667,75.0,120.0,120.0,0.0,0.0
2668,73.0,120.0,120.0,0.0,0.0
2669,75.0,120.0,120.0,0.0,0.0
2670,74.0,120.0,120.0,0.0,0.0
2671,77.0,120.0,120.0,0.0,0.0
2672,75.0,120.0,120.0,0.0,0.0
2673,73.0,120.0,120.0,0.0,0.0
2674,71.0,240.0,120.0,0.0,0.0
2675,70.0,240.0,240.0,0.0,0.0
2676,68.0,120.0,240.0,0.0,0.0
2677,70.0,240.0,120.0,0.0,0.0
2678,71.0,240.0,120.0,0.0,0.0
2679,72.0,240.0,120.0,0.0,0.0
2680,73.0,240.0,120.0,0.0,0.0
2681,75.0,120.0,120.0,0.0,0.0
2682,73.0,120.0,120.0,0.0,0.0
2683,71.0,120.0,120.0,0.0,0.0
2684,70.0,240.0,120.0,0.0,0.0
2685,68.0,240.0,240.0,0.0,0.0
2686,66.0,240.0,240.0,0.0,0.0
2687,54.0,0.0,240.0,0.0,0.0
2688,66.0,0.0,720.0,0.0,0.0
2689,58.0,240.0,240.0,0.0,0.0
2690,61.0,240.0,240.0,0.0,0.0
2691,58.0,240.0,240.0,0.0,0.0
2692,70.0,240.0,240.0,0.0,0.0
2693,54.0,0.0,240.0,0.0,0.0
2694,75.0,240.0,240.0,0.0,0.0
2695,58.0,0.0,240.0,0.0,0.0
2696,63.0,0.0,240.0,0.0,0.0
2697,70.0,480.0,240.0,0.0,0.0
2698,73.0,240.0,480.0,0.0,0.0
2699,56.0,0.0,240.0,0.0,0.0
2700,71.0,0.0,720.0,0.0,0.0
2701,59.0,240.0,240.0,0.0,0.0
2702,63.0,240.0,240.0,0.0,0.0
2703,59.0,120.0,240.0,0.0,0.0
2704,73.0,120.0,120.0,0.0,0.0
2705,56.0,120.0,240.0,0.0,0.0
2706,75.0,0.0,120.0,0.0,0.0
2707,73.0,120.0,120.0,0.0,0.0
2708,59.0,0.0,240.0,0.0,0.0
2709,71.0,120.0,120.0,0.0,0.0
2710,63.0,480.0,240.0,0.0,0.0
2711,70.0,120.0,120.0,0.0,0.0
2712,68.0,0.0,120.0,0.0,0.0
2713,66.0,240.0,480.0,0.0,0.0
2714,49.0,0.0,240.0,0.0,0.0
2715,56.0,240.0,240.0,0.0,0.0
2716,65.0,0.0,720.0,0.0,0.0
2717,59.0,240.0,240.0,0.0,0.0
2718,56.0,240.0,240.0,0.0,0.0
2719,65.0,0.0,240.0,0.0,0.0
2720,49.0,240.0,240.0,0.0,0.0
2721,66.0,0.0,240.0,0.0,0.0
2722,56.0,240.0,240.0,0.0,0.0
2723,68.0,480.0,240.0,0.0,0.0
2724,59.0,0.0,240.0,0.0,0.0
2725,65.0,0.0,480.0,0.0,0.0
2726,68.0,0.0,480.0,0.0,0.0
2727,54.0,240.0,240.0,0.0,0.0
2728,70.0,0.0,480.0,0.0,0.0
2729,66.0,0.0,480.0,0.0,0.0
2730,58.0,240.0,240.0,0.0,0.0
2731,61.0,240.0,240.0,0.0,0.0
2732,58.0,120.0,240.0,0.0,0.0
2733,73.0,120.0,120.0,0.0,0.0
2734,54.0,0.0,240.0,0.0,0.0
2735,72.0,120.0,120.0,0.0,0.0
2736,58.0,0.0,240.0,0.0,0.0
2737,75.0,120.0,120.0,0.0,0.0
2738,73.0,120.0,120.0,0.0,0.0
2739,71.0,120.0,120.0,0.0,0.0
2740,61.0,240.0,240.0,0.0,0.0
2741,70.0,0.0,120.0,0.0,0.0
2742,70.0,0.0,240.0,0.0,0.0
2743,59.0,240.0,240.0,0.0,0.0
2744,68.0,240.0,480.0,0.0,0.0
2745,63.0,240.0,240.0,0.0,0.0
2746,58.0,0.0,240.0,0.0,0.0
2747,61.0,240.0,240.0,0.0,0.0
2748,66.0,0.0,240.0,0.0,0.0
2749,59.0,240.0,240.0,0.0,0.0
2750,70.0,0.0,240.0,0.0,0.0
2751,68.0,0.0,480.0,0.0,0.0
2752,63.0,240.0,240.0,0.0,0.0
2753,56.0,240.0,240.0,0.0,0.0
2754,65.0,120.0,240.0,0.0,0.0
2755,59.0,0.0,240.0,0.0,0.0
2756,58.0,0.0,480.0,0.0,0.0
2757,61.0,0.0,480.0,0.0,0.0
2758,66.0,120.0,120.0,0.0,0.0
2759,68.0,120.0,120.0,0.0,0.0
2760,66.0,120.0,120.0,0.0,0.0
2761,65.0,120.0,120.0,0.0,0.0
2762,66.0,120.0,120.0,0.0,0.0
2763,68.0,120.0,120.0,0.0,0.0
2764,70.0,120.0,120.0,0.0,0.0
2765,71.0,120.0,120.0,0.0,0.0
2766,72.0,120.0,120.0,0.0,0.0
2767,73.0,120.0,120.0,0.0,0.0
2768,72.0,120.0,120.0,0.0,0.0
2769,73.0,120.0,120.0,0.0,0.0
2770,75.0,120.0,120.0,0.0,0.0
2771,73.0,120.0,120.0,0.0,0.0
2772,71.0,120.0,120.0,0.0,0.0
2773,70.0,240.0,120.0,0.0,0.0
2774,70.0,0.0,240.0,0.0,0.0
2775,59.0,240.0,240.0,0.0,0.0
2776,63.0,0.0,240.0,0.0,0.0
2777,58.0,0.0,240.0,0.0,0.0
2778,68.0,240.0,15.0,0.0,0.0
2779,61.0,0.0,240.0,0.0,0.0
2780,66.0,240.0,240.0,0.0,0.0
2781,59.0,240.0,240.0,0.0,0.0
2782,70.0,0.0,240.0,0.0,0.0
2783,63.0,0.0,240.0,0.0,0.0
2784,56.0,0.0,240.0,0.0,0.0
2785,68.0,240.0,15.0,0.0,0.0
2786,59.0,240.0,240.0,0.0,0.0
2787,65.0,0.0,240.0,0.0,0.0
2788,58.0,120.0,480.0,0.0,0.0
2789,61.0,0.0,480.0,0.0,0.0
2790,66.0,120.0,240.0,0.0,0.0
2791,68.0,120.0,120.0,0.0,0.0
2792,70.0,0.0,120.0,0.0,0.0
2793,71.0,120.0,120.0,0.0,0.0
2794,73.0,120.0,120.0,0.0,0.0
2795,75.0,120.0,120.0,0.0,0.0
2796,77.0,120.0,120.0,0.0,0.0
2797,78.0,120.0,120.0,0.0,0.0
2798,80.0,120.0,120.0,0.0,0.0
2799,82.0,120.0,120.0,0.0,0.0
2800,83.0,120.0,120.0,0.0,0.0
2801,85.0,240.0,120.0,0.0,0.0
2802,85.0,360.0,120.0,0.0,0.0
2803,53.0,240.0,480.0,0.0,0.0
2804,73.0,0.0,1200.0,0.0,0.0
2805,85.0,240.0,240.0,0.0,0.0
2806,83.0,240.0,480.0,0.0,0.0
2807,54.0,0.0,480.0,0.0,0.0
2808,82.0,240.0,240.0,0.0,0.0
2809,47.0,120.0,480.0,0.0,0.0
2810,82.0,120.0,240.0,0.0,0.0
2811,80.0,0.0,120.0,0.0,0.0
2812,71.0,120.0,120.0,0.0,0.0
2813,49.0,240.0,480.0,0.0,0.0
2814,70.0,240.0,120.0,0.0,0.0
2815,78.0,0.0,120.0,0.0,0.0
2816,68.0,0.0,120.0,0.0,0.0
2817,77.0,120.0,120.0,0.0,0.0
2818,78.0,0.0,240.0,0.0,0.0
2819,70.0,120.0,240.0,0.0,0.0
2820,42.0,240.0,120.0,0.0,0.0
2821,66.0,120.0,240.0,0.0,0.0
2822,46.0,120.0,120.0,0.0,0.0
2823,49.0,600.0,120.0,0.0,0.0
2824,54.0,120.0,480.0,0.0,0.0
2825,63.0,120.0,120.0,0.0,0.0
2826,61.0,120.0,120.0,0.0,0.0
2827,59.0,120.0,120.0,0.0,0.0
2828,58.0,240.0,120.0,0.0,0.0
2829,56.0,240.0,240.0,0.0,0.0
2830,42.0,0.0,240.0,0.0,0.0
2831,46.0,240.0,240.0,0.0,0.0
2832,54.0,240.0,15.0,0.0,0.0
2833,49.0,240.0,240.0,0.0,0.0
2834,46.0,0.0,240.0,0.0,0.0
2835,42.0,240.0,240.0,0.0,0.0
2836,66.0,120.0,120.0,0.0,0.0
2837,66.0,0.0,240.0,0.0,0.0
2838,46.0,240.0,240.0,0.0,0.0
2839,49.0,0.0,240.0,0.0,0.0
2840,68.0,240.0,240.0,0.0,0.0
2841,66.0,240.0,240.0,0.0,0.0
2842,65.0,240.0,240.0,0.0,0.0
2843,42.0,0.0,240.0,0.0,0.0
2844,46.0,240.0,240.0,0.0,0.0
2845,49.0,240.0,240.0,0.0,0.0
2846,46.0,240.0,240.0,0.0,0.0
2847,64.0,0.0,15.0,0.0,0.0
2848,42.0,0.0,240.0,0.0,0.0
2849,46.0,0.0,240.0,0.0,0.0
2850,64.0,240.0,15.0,0.0,0.0
2851,64.0,240.0,15.0,0.0,0.0
2852,49.0,0.0,240.0,0.0,0.0
2853,76.0,120.0,120.0,0.0,0.0
2854,78.0,120.0,120.0,0.0,0.0
2855,42.0,0.0,240.0,0.0,0.0
2856,75.0,120.0,120.0,0.0,0.0
2857,76.0,120.0,120.0,0.0,0.0
2858,73.0,120.0,120.0,0.0,0.0
2859,46.0,0.0,240.0,0.0,0.0
2860,75.0,120.0,120.0,0.0,0.0
2861,71.0,120.0,120.0,0.0,0.0
2862,49.0,120.0,240.0,0.0,0.0
2863,73.0,0.0,120.0,0.0,0.0
2864,70.0,120.0,120.0,0.0,0.0
2865,52.0,0.0,240.0,0.0,0.0
2866,71.0,120.0,120.0,0.0,0.0
2867,49.0,0.0,240.0,0.0,0.0
2868,68.0,120.0,120.0,0.0,0.0
2869,70.0,120.0,120.0,0.0,0.0
2870,66.0,120.0,120.0,0.0,0.0
2871,46.0,0.0,240.0,0.0,0.0
2872,68.0,120.0,120.0,0.0,0.0
2873,42.0,240.0,240.0,0.0,0.0
2874,64.0,120.0,120.0,0.0,0.0
2875,66.0,0.0,120.0,0.0,0.0
2876,64.0,240.0,240.0,0.0,0.0
2877,43.0,0.0,240.0,0.0,0.0
2878,63.0,240.0,240.0,0.0,0.0
2879,46.0,240.0,240.0,0.0,0.0
2880,63.0,0.0,720.0,0.0,0.0
2881,49.0,240.0,240.0,0.0,0.0
2882,51.0,120.0,240.0,0.0,0.0
2883,49.0,240.0,240.0,0.0,0.0
2884,75.0,120.0,120.0,0.0,0.0
2885,75.0,240.0,240.0,0.0,0.0
2886,46.0,0.0,240.0,0.0,0.0
2887,43.0,240.0,240.0,0.0,0.0
2888,73.0,0.0,15.0,0.0,0.0
2889,54.0,0.0,240.0,0.0,0.0
2890,72.0,240.0,15.0,0.0,0.0
2891,57.0,240.0,240.0,0.0,0.0
2892,60.0,240.0,240.0,0.0,0.0
2893,63.0,240.0,480.0,0.0,0.0
2894,81.0,120.0,120.0,0.0,0.0
2895,81.0,240.0,240.0,0.0,0.0
2896,72.0,240.0,240.0,0.0,0.0
2897,75.0,240.0,240.0,0.0,0.0
2898,53.0,240.0,240.0,0.0,0.0
2899,73.0,0.0,15.0,0.0,0.0
2900,56.0,240.0,240.0,0.0,0.0
2901,61.0,240.0,240.0,0.0,0.0
2902,65.0,240.0,480.0,0.0,0.0
2903,74.0,0.0,240.0,0.0,0.0
2904,75.0,240.0,240.0,0.0,0.0
2905,71.0,240.0,240.0,0.0,0.0
2906,69.0,240.0,240.0,0.0,0.0
2907,70.0,0.0,240.0,0.0,0.0
2908,54.0,240.0,240.0,0.0,0.0
2909,58.0,240.0,240.0,0.0,0.0
2910,70.0,0.0,480.0,0.0,0.0
2911,61.0,480.0,240.0,0.0,0.0
2912,66.0,0.0,480.0,0.0,0.0
2913,73.0,120.0,240.0,0.0,0.0
2914,75.0,120.0,120.0,0.0,0.0
2915,73.0,120.0,120.0,0.0,0.0
2916,71.0,120.0,120.0,0.0,0.0
2917,70.0,240.0,120.0,0.0,0.0
2918,59.0,240.0,240.0,0.0,0.0
2919,68.0,240.0,720.0,0.0,0.0
2920,63.0,240.0,240.0,0.0,0.0
2921,59.0,0.0,240.0,0.0,0.0
2922,61.0,0.0,240.0,0.0,0.0
2923,65.0,60.0,240.0,0.0,0.0
2924,66.0,180.0,60.0,0.0,0.0
2925,58.0,120.0,240.0,0.0,0.0
2926,73.0,0.0,120.0,0.0,0.0
2927,72.0,120.0,120.0,0.0,0.0
2928,61.0,0.0,240.0,0.0,0.0
2929,73.0,120.0,120.0,0.0,0.0
2930,58.0,0.0,240.0,0.0,0.0
2931,75.0,120.0,120.0,0.0,0.0
2932,73.0,120.0,120.0,0.0,0.0
2933,61.0,0.0,240.0,0.0,0.0
2934,71.0,120.0,120.0,0.0,0.0
2935,70.0,120.0,120.0,0.0,0.0
2936,68.0,120.0,120.0,0.0,0.0
2937,59.0,240.0,240.0,0.0,0.0
2938,68.0,0.0,480.0,0.0,0.0
2939,61.0,240.0,240.0,0.0,0.0
2940,59.0,240.0,240.0,0.0,0.0
2941,65.0,60.0,240.0,0.0,0.0
2942,61.0,0.0,240.0,0.0,0.0
2943,58.0,120.0,240.0,0.0,0.0
2944,66.0,180.0,60.0,0.0,0.0
2945,73.0,0.0,120.0,0.0,0.0
2946,61.0,120.0,240.0,0.0,0.0
2947,72.0,120.0,120.0,0.0,0.0
2948,73.0,0.0,120.0,0.0,0.0
2949,75.0,120.0,120.0,0.0,0.0
2950,58.0,120.0,240.0,0.0,0.0
2951,73.0,0.0,120.0,0.0,0.0
2952,61.0,0.0,240.0,0.0,0.0
2953,71.0,120.0,120.0,0.0,0.0
2954,70.0,240.0,120.0,0.0,0.0
2955,59.0,240.0,240.0,0.0,0.0
2956,70.0,0.0,240.0,0.0,0.0
2957,63.0,240.0,240.0,0.0,0.0
2958,68.0,0.0,240.0,0.0,0.0
2959,59.0,240.0,240.0,0.0,0.0
2960,63.0,240.0,240.0,0.0,0.0
2961,68.0,0.0,240.0,0.0,0.0
2962,68.0,0.0,240.0,0.0,0.0
2963,60.0,240.0,240.0,0.0,0.0
2964,63.0,240.0,240.0,0.0,0.0
2965,66.0,0.0,240.0,0.0,0.0
2966,60.0,240.0,240.0,0.0,0.0
2967,63.0,120.0,240.0,0.0,0.0
2968,66.0,0.0,240.0,0.0,0.0
2969,49.0,120.0,480.0,0.0,0.0
2970,65.0,120.0,120.0,0.0,0.0
2971,66.0,120.0,120.0,0.0,0.0
2972,65.0,120.0,120.0,0.0,0.0
2973,61.0,0.0,120.0,0.0,0.0
2974,51.0,120.0,480.0,0.0,0.0
2975,66.0,120.0,120.0,0.0,0.0
2976,68.0,120.0,120.0,0.0,0.0
2977,66.0,120.0,120.0,0.0,0.0
2978,61.0,0.0,120.0,0.0,0.0
2979,68.0,120.0,120.0,0.0,0.0
2980,53.0,0.0,480.0,0.0,0.0
2981,70.0,120.0,120.0,0.0,0.0
2982,68.0,120.0,120.0,0.0,0.0
2983,61.0,120.0,120.0,0.0,0.0
2984,54.0,0.0,480.0,0.0,0.0
2985,70.0,120.0,120.0,0.0,0.0
2986,71.0,120.0,120.0,0.0,0.0
2987,70.0,120.0,120.0,0.0,0.0
2988,61.0,120.0,120.0,0.0,0.0
2989,56.0,120.0,240.0,0.0,0.0
2990,71.0,120.0,120.0,0.0,0.0
2991,71.0,120.0,120.0,0.0,0.0
2992,61.0,240.0,240.0,0.0,0.0
2993,53.0,120.0,240.0,0.0,0.0
2994,61.0,240.0,240.0,0.0,0.0
2995,68.0,120.0,120.0,0.0,0.0
2996,54.0,0.0,240.0,0.0,0.0
2997,71.0,120.0,240.0,0.0,0.0
2998,61.0,120.0,240.0,0.0,0.0
2999,70.0,120.0,120.0,0.0,0.0
3000,68.0,120.0,120.0,0.0,0.0
3001,51.0,120.0,240.0,0.0,0.0
3002,66.0,120.0,120.0,0.0,0.0
3003,61.0,120.0,240.0,0.0,0.0
3004,65.0,120.0,120.0,0.0,0.0
3005,49.0,0.0,480.0,0.0,0.0
3006,61.0,120.0,120.0,0.0,0.0
3007,72.0,120.0,120.0,0.0,0.0
3008,73.0,120.0,120.0,0.0,0.0
3009,51.0,120.0,480.0,0.0,0.0
3010,66.0,120.0,120.0,0.0,0.0
3011,61.0,120.0,120.0,0.0,0.0
3012,72.0,120.0,120.0,0.0,0.0
3013,73.0,0.0,120.0,0.0,0.0
3014,68.0,120.0,120.0,0.0,0.0
3015,53.0,0.0,480.0,0.0,0.0
3016,61.0,120.0,120.0,0.0,0.0
3017,72.0,120.0,120.0,0.0,0.0
3018,73.0,120.0,120.0,0.0,0.0
3019,54.0,0.0,480.0,0.0,0.0
3020,70.0,120.0,120.0,0.0,0.0
3021,61.0,120.0,120.0,0.0,0.0
3022,72.0,120.0,120.0,0.0,0.0
3023,73.0,120.0,120.0,0.0,0.0
3024,71.0,120.0,120.0,0.0,0.0
3025,56.0,0.0,120.0,0.0,0.0
3026,61.0,120.0,120.0,0.0,0.0
3027,60.0,0.0,120.0,0.0,0.0
3028,71.0,120.0,120.0,0.0,0.0
3029,61.0,120.0,120.0,0.0,0.0
3030,53.0,120.0,120.0,0.0,0.0
3031,61.0,60.0,120.0,0.0,0.0
3032,60.0,0.0,120.0,0.0,0.0
3033,70.0,60.0,60.0,0.0,0.0
3034,68.0,60.0,60.0,0.0,0.0
3035,61.0,0.0,120.0,0.0,0.0
3036,67.0,60.0,60.0,0.0,0.0
3037,68.0,120.0,60.0,0.0,0.0
3038,71.0,120.0,240.0,0.0,0.0
3039,54.0,120.0,120.0,0.0,0.0
3040,61.0,0.0,120.0,0.0,0.0
3041,70.0,120.0,120.0,0.0,0.0
3042,60.0,0.0,120.0,0.0,0.0
3043,61.0,120.0,120.0,0.0,0.0
3044,68.0,120.0,120.0,0.0,0.0
3045,51.0,0.0,120.0,0.0,0.0
3046,60.0,120.0,120.0,0.0,0.0
3047,58.0,120.0,120.0,0.0,0.0
3048,66.0,0.0,120.0,0.0,0.0
3049,60.0,120.0,120.0,0.0,0.0
3050,49.0,120.0,480.0,0.0,0.0
3051,65.0,120.0,120.0,0.0,0.0
3052,73.0,120.0,120.0,0.0,0.0
3053,68.0,120.0,120.0,0.0,0.0
3054,65.0,0.0,120.0,0.0,0.0
3055,61.0,0.0,15.0,0.0,0.0
3056,56.0,120.0,120.0,0.0,0.0
3057,53.0,120.0,120.0,0.0,0.0
3058,49.0,240.0,120.0,0.0,0.0
3059,25.0,0.0,240.0,0.0,0.0
3060,37.0,1440.0,240.0,0.0,0.0
3061,49.0,0.0,720.0,0.0,0.0
3062,54.0,120.0,720.0,0.0,0.0
3063,58.0,0.0,720.0,0.0,0.0
3064,61.0,0.0,720.0,0.0,0.0
3065,42.0,0.0,960.0,0.0,0.0
3066,30.0,0.0,960.0,0.0,0.0
3067,63.0,120.0,120.0,0.0,0.0
3068,61.0,120.0,120.0,0.0,0.0
3069,59.0,240.0,120.0,0.0,0.0
3070,58.0,240.0,120.0,0.0,0.0
3071,56.0,240.0,120.0,0.0,0.0
3072,54.0,360.0,120.0,0.0,0.0
3073,54.0,240.0,240.0,0.0,0.0
3074,47.0,0.0,960.0,0.0,0.0
3075,63.0,720.0,15.0,0.0,0.0
3076,54.0,0.0,720.0,0.0,0.0
3077,35.0,240.0,960.0,0.0,0.0
3078,61.0,0.0,240.0,0.0,0.0
3079,65.0,240.0,240.0,0.0,0.0
3080,46.0,0.0,480.0,0.0,0.0
3081,66.0,240.0,240.0,0.0,0.0
3082,48.0,240.0,480.0,0.0,0.0
3083,51.0,0.0,480.0,0.0,0.0
3084,66.0,240.0,240.0,0.0,0.0
3085,56.0,240.0,480.0,0.0,0.0
3086,49.0,240.0,480.0,0.0,0.0
3087,58.0,0.0,240.0,0.0,0.0
3088,66.0,240.0,240.0,0.0,0.0
3089,51.0,240.0,480.0,0.0,0.0
3090,48.0,0.0,480.0,0.0,0.0
3091,56.0,240.0,480.0,0.0,0.0
3092,49.0,0.0,480.0,0.0,0.0
3093,58.0,480.0,240.0,0.0,0.0
3094,51.0,0.0,480.0,0.0,0.0
3095,53.0,0.0,480.0,0.0,0.0
3096,61.0,60.0,15.0,0.0,0.0
3097,59.0,60.0,60.0,0.0,0.0
3098,61.0,60.0,60.0,0.0,0.0
3099,59.0,60.0,60.0,0.0,0.0
3100,61.0,60.0,60.0,0.0,0.0
3101,59.0,60.0,60.0,0.0,0.0
3102,58.0,60.0,60.0,0.0,0.0
3103,59.0,120.0,60.0,0.0,0.0
3104,54.0,240.0,480.0,0.0,0.0
3105,58.0,360.0,120.0,0.0,0.0
3106,58.0,0.0,240.0,0.0,0.0
3107,59.0,240.0,240.0,0.0,0.0
3108,61.0,240.0,240.0,0.0,0.0
3109,62.0,240.0,240.0,0.0,0.0
3110,63.0,120.0,480.0,0.0,0.0
3111,35.0,240.0,240.0,0.0,0.0
3112,39.0,0.0,240.0,0.0,0.0
3113,61.0,120.0,120.0,0.0,0.0
3114,44.0,0.0,240.0,0.0,0.0
3115,59.0,240.0,120.0,0.0,0.0
3116,47.0,240.0,480.0,0.0,0.0
3117,58.0,240.0,240.0,0.0,0.0
3118,56.0,0.0,240.0,0.0,0.0
3119,58.0,240.0,240.0,0.0,0.0
3120,59.0,240.0,240.0,0.0,0.0
3121,63.0,240.0,240.0,0.0,0.0
3122,61.0,120.0,480.0,0.0,0.0
3123,34.0,240.0,240.0,0.0,0.0
3124,37.0,0.0,240.0,0.0,0.0
3125,42.0,0.0,240.0,0.0,0.0
3126,59.0,120.0,120.0,0.0,0.0
3127,58.0,240.0,120.0,0.0,0.0
3128,56.0,240.0,240.0,0.0,0.0
3129,46.0,240.0,480.0,0.0,0.0
3130,54.0,0.0,240.0,0.0,0.0
3131,56.0,240.0,240.0,0.0,0.0
3132,58.0,240.0,240.0,0.0,0.0
3133,61.0,240.0,240.0,0.0,0.0
3134,44.0,240.0,480.0,0.0,0.0
3135,59.0,240.0,480.0,0.0,0.0
3136,41.0,0.0,480.0,0.0,0.0
3137,56.0,240.0,240.0,0.0,0.0
3138,42.0,240.0,480.0,0.0,0.0
3139,59.0,240.0,240.0,0.0,0.0
3140,58.0,240.0,480.0,0.0,0.0
3141,39.0,120.0,480.0,0.0,0.0
3142,54.0,0.0,240.0,0.0,0.0
3143,53.0,120.0,120.0,0.0,0.0
3144,37.0,120.0,480.0,0.0,0.0
3145,54.0,120.0,120.0,0.0,0.0
3146,55.0,120.0,120.0,0.0,0.0
3147,56.0,0.0,120.0,0.0,0.0
3148,57.0,120.0,120.0,0.0,0.0
3149,58.0,120.0,120.0,0.0,0.0
3150,59.0,120.0,120.0,0.0,0.0
3151,60.0,120.0,120.0,0.0,0.0
3152,49.0,120.0,120.0,0.0,0.0
3153,61.0,120.0,480.0,0.0,0.0
3154,51.0,120.0,120.0,0.0,0.0
3155,47.0,120.0,120.0,0.0,0.0
3156,49.0,0.0,120.0,0.0,0.0
3157,46.0,120.0,120.0,0.0,0.0
3158,47.0,120.0,120.0,0.0,0.0
3159,44.0,120.0,120.0,0.0,0.0
3160,46.0,480.0,120.0,0.0,0.0
3161,61.0,0.0,720.0,0.0,0.0
3162,66.0,0.0,720.0,0.0,0.0
3163,70.0,0.0,720.0,0.0,0.0
3164,73.0,120.0,720.0,0.0,0.0
3165,42.0,240.0,480.0,0.0,0.0
3166,54.0,0.0,480.0,0.0,0.0
3167,75.0,120.0,120.0,0.0,0.0
3168,73.0,120.0,120.0,0.0,0.0
3169,71.0,240.0,120.0,0.0,0.0
3170,70.0,240.0,120.0,0.0,0.0
3171,68.0,240.0,120.0,0.0,0.0
3172,66.0,360.0,120.0,0.0,0.0
3173,66.0,240.0,240.0,0.0,0.0
3174,66.0,240.0,720.0,0.0,0.0
3175,75.0,720.0,15.0,0.0,0.0
3176,47.0,240.0,960.0,0.0,0.0
3177,59.0,0.0,960.0,0.0,0.0
3178,73.0,0.0,240.0,0.0,0.0
3179,58.0,240.0,480.0,0.0,0.0
3180,77.0,240.0,240.0,0.0,0.0
3181,78.0,240.0,480.0,0.0,0.0
3182,60.0,0.0,480.0,0.0,0.0
3183,63.0,0.0,480.0,0.0,0.0
3184,68.0,240.0,240.0,0.0,0.0
3185,70.0,240.0,240.0,0.0,0.0
3186,61.0,240.0,480.0,0.0,0.0
3187,78.0,240.0,480.0,0.0,0.0
3188,60.0,240.0,480.0,0.0,0.0
3189,63.0,0.0,480.0,0.0,0.0
3190,68.0,0.0,240.0,0.0,0.0
3191,61.0,480.0,480.0,0.0,0.0
3192,70.0,120.0,240.0,0.0,0.0
3193,78.0,120.0,120.0,0.0,0.0
3194,63.0,0.0,480.0,0.0,0.0
3195,66.0,240.0,480.0,0.0,0.0
3196,73.0,0.0,480.0,0.0,0.0
3197,65.0,0.0,480.0,0.0,0.0
3198,72.0,240.0,240.0,0.0,0.0
3199,68.0,0.0,480.0,0.0,0.0
3200,71.0,120.0,240.0,0.0,0.0
3201,66.0,240.0,480.0,0.0,0.0
3202,70.0,360.0,120.0,0.0,0.0
3203,70.0,0.0,240.0,0.0,0.0
3204,71.0,240.0,240.0,0.0,0.0
3205,73.0,240.0,240.0,0.0,0.0
3206,74.0,240.0,240.0,0.0,0.0
3207,51.0,120.0,240.0,0.0,0.0
3208,75.0,120.0,480.0,0.0,0.0
3209,63.0,120.0,120.0,0.0,0.0
3210,61.0,0.0,120.0,0.0,0.0
3211,77.0,120.0,120.0,0.0,0.0
3212,79.0,120.0,120.0,0.0,0.0
3213,59.0,0.0,120.0,0.0,0.0
3214,80.0,120.0,120.0,0.0,0.0
3215,82.0,120.0,120.0,0.0,0.0
3216,83.0,120.0,120.0,0.0,0.0
3217,47.0,120.0,240.0,0.0,0.0
3218,82.0,0.0,120.0,0.0,0.0
3219,80.0,0.0,120.0,0.0,0.0
3220,59.0,120.0,120.0,0.0,0.0
3221,82.0,120.0,120.0,0.0,0.0
3222,78.0,0.0,120.0,0.0,0.0
3223,58.0,120.0,120.0,0.0,0.0
3224,80.0,120.0,120.0,0.0,0.0
3225,77.0,120.0,120.0,0.0,0.0
3226,56.0,120.0,240.0,0.0,0.0
3227,78.0,0.0,120.0,0.0,0.0
3228,75.0,120.0,120.0,0.0,0.0
3229,54.0,120.0,240.0,0.0,0.0
3230,77.0,0.0,120.0,0.0,0.0
3231,73.0,120.0,120.0,0.0,0.0
3232,53.0,0.0,240.0,0.0,0.0
3233,75.0,120.0,120.0,0.0,0.0
3234,49.0,120.0,240.0,0.0,0.0
3235,71.0,120.0,120.0,0.0,0.0
3236,73.0,0.0,120.0,0.0,0.0
3237,70.0,120.0,120.0,0.0,0.0
3238,54.0,0.0,480.0,0.0,0.0
3239,71.0,120.0,120.0,0.0,0.0
3240,73.0,120.0,120.0,0.0,0.0
3241,75.0,120.0,120.0,0.0,0.0
3242,77.0,120.0,120.0,0.0,0.0
3243,46.0,0.0,480.0,0.0,0.0
3244,78.0,120.0,120.0,0.0,0.0
3245,77.0,120.0,120.0,0.0,0.0
3246,78.0,120.0,120.0,0.0,0.0
3247,80.0,120.0,120.0,0.0,0.0
3248,47.0,0.0,480.0,0.0,0.0
3249,78.0,120.0,120.0,0.0,0.0
3250,77.0,120.0,120.0,0.0,0.0
3251,75.0,120.0,120.0,0.0,0.0
3252,59.0,0.0,480.0,0.0,0.0
3253,77.0,120.0,120.0,0.0,0.0
3254,75.0,120.0,120.0,0.0,0.0
3255,73.0,120.0,120.0,0.0,0.0
3256,71.0,480.0,120.0,0.0,0.0
3257,61.0,0.0,480.0,0.0,0.0
3258,65.0,0.0,480.0,0.0,0.0
3259,70.0,60.0,15.0,0.0,0.0
3260,49.0,0.0,480.0,0.0,0.0
3261,68.0,60.0,60.0,0.0,0.0
3262,70.0,60.0,60.0,0.0,0.0
3263,68.0,60.0,60.0,0.0,0.0
3264,70.0,60.0,60.0,0.0,0.0
3265,68.0,60.0,60.0,0.0,0.0
3266,66.0,60.0,60.0,0.0,0.0
3267,68.0,120.0,60.0,0.0,0.0
3268,54.0,120.0,120.0,0.0,0.0
3269,66.0,0.0,480.0,0.0,0.0
3270,61.0,120.0,120.0,0.0,0.0
3271,60.0,120.0,120.0,0.0,0.0
3272,61.0,120.0,120.0,0.0,0.0
3273,63.0,120.0,120.0,0.0,0.0
3274,61.0,120.0,120.0,0.0,0.0
3275,60.0,120.0,120.0,0.0,0.0
3276,61.0,120.0,120.0,0.0,0.0
3277,59.0,120.0,120.0,0.0,0.0
3278,61.0,120.0,120.0,0.0,0.0
3279,58.0,120.0,120.0,0.0,0.0
3280,59.0,120.0,120.0,0.0,0.0
3281,56.0,120.0,120.0,0.0,0.0
3282,61.0,120.0,120.0,0.0,0.0
3283,54.0,120.0,120.0,0.0,0.0
3284,61.0,120.0,120.0,0.0,0.0
3285,71.0,0.0,240.0,0.0,0.0
3286,53.0,120.0,120.0,0.0,0.0
3287,61.0,120.0,120.0,0.0,0.0
3288,68.0,120.0,120.0,0.0,0.0
3289,56.0,0.0,120.0,0.0,0.0
3290,61.0,120.0,120.0,0.0,0.0
3291,59.0,120.0,120.0,0.0,0.0
3292,65.0,0.0,120.0,0.0,0.0
3293,61.0,120.0,120.0,0.0,0.0
3294,59.0,120.0,120.0,0.0,0.0
3295,65.0,0.0,120.0,0.0,0.0
3296,61.0,120.0,120.0,0.0,0.0
3297,71.0,120.0,240.0,0.0,0.0
3298,53.0,120.0,120.0,0.0,0.0
3299,61.0,0.0,120.0,0.0,0.0
3300,59.0,0.0,120.0,0.0,0.0
3301,68.0,120.0,120.0,0.0,0.0
3302,61.0,120.0,120.0,0.0,0.0
3303,65.0,120.0,120.0,0.0,0.0
3304,59.0,0.0,120.0,0.0,0.0
3305,61.0,120.0,120.0,0.0,0.0
3306,65.0,0.0,120.0,0.0,0.0
3307,59.0,120.0,120.0,0.0,0.0
3308,61.0,120.0,120.0,0.0,0.0
3309,58.0,0.0,120.0,0.0,0.0
3310,66.0,120.0,120.0,0.0,0.0
3311,61.0,120.0,120.0,0.0,0.0
3312,68.0,0.0,120.0,0.0,0.0
3313,53.0,120.0,120.0,0.0,0.0
3314,61.0,120.0,120.0,0.0,0.0
3315,70.0,0.0,120.0,0.0,0.0
3316,54.0,120.0,120.0,0.0,0.0
3317,61.0,120.0,120.0,0.0,0.0
3318,71.0,120.0,120.0,0.0,0.0
3319,56.0,0.0,120.0,0.0,0.0
3320,61.0,120.0,120.0,0.0,0.0
3321,72.0,120.0,240.0,0.0,0.0
3322,57.0,120.0,120.0,0.0,0.0
3323,61.0,0.0,120.0,0.0,0.0
3324,58.0,120.0,120.0,0.0,0.0
3325,73.0,0.0,240.0,0.0,0.0
3326,61.0,120.0,120.0,0.0,0.0
3327,57.0,120.0,120.0,0.0,0.0
3328,72.0,0.0,240.0,0.0,0.0
3329,61.0,120.0,120.0,0.0,0.0
3330,73.0,120.0,240.0,0.0,0.0
3331,58.0,120.0,120.0,0.0,0.0
3332,61.0,0.0,120.0,0.0,0.0
3333,83.0,0.0,240.0,0.0,0.0
3334,53.0,120.0,120.0,0.0,0.0
3335,71.0,0.0,240.0,0.0,0.0
3336,61.0,120.0,120.0,0.0,0.0
3337,56.0,120.0,120.0,0.0,0.0
3338,80.0,0.0,120.0,0.0,0.0
3339,68.0,0.0,120.0,0.0,0.0
3340,61.0,120.0,120.0,0.0,0.0
3341,77.0,120.0,120.0,0.0,0.0
3342,65.0,0.0,120.0,0.0,0.0
3343,59.0,0.0,120.0,0.0,0.0
3344,61.0,120.0,120.0,0.0,0.0
3345,65.0,120.0,120.0,0.0,0.0
3346,77.0,0.0,120.0,0.0,0.0
3347,59.0,0.0,120.0,0.0,0.0
3348,61.0,120.0,120.0,0.0,0.0
3349,53.0,120.0,120.0,0.0,0.0
3350,71.0,0.0,240.0,0.0,0.0
3351,83.0,0.0,240.0,0.0,0.0
3352,61.0,120.0,120.0,0.0,0.0
3353,68.0,0.0,120.0,0.0,0.0
3354,80.0,120.0,120.0,0.0,0.0
3355,59.0,0.0,120.0,0.0,0.0
3356,61.0,120.0,120.0,0.0,0.0
3357,59.0,0.0,120.0,0.0,0.0
3358,77.0,120.0,120.0,0.0,0.0
3359,65.0,0.0,120.0,0.0,0.0
3360,61.0,120.0,120.0,0.0,0.0
3361,77.0,120.0,120.0,0.0,0.0
3362,59.0,0.0,120.0,0.0,0.0
3363,65.0,0.0,120.0,0.0,0.0
3364,61.0,120.0,120.0,0.0,0.0
3365,78.0,0.0,120.0,0.0,0.0
3366,58.0,120.0,120.0,0.0,0.0
3367,66.0,0.0,120.0,0.0,0.0
3368,61.0,120.0,120.0,0.0,0.0
3369,68.0,0.0,120.0,0.0,0.0
3370,80.0,0.0,120.0,0.0,0.0
3371,53.0,120.0,120.0,0.0,0.0
3372,61.0,120.0,120.0,0.0,0.0
3373,82.0,120.0,120.0,0.0,0.0
3374,70.0,0.0,120.0,0.0,0.0
3375,54.0,0.0,120.0,0.0,0.0
3376,61.0,120.0,120.0,0.0,0.0
3377,71.0,0.0,120.0,0.0,0.0
3378,56.0,120.0,120.0,0.0,0.0
3379,83.0,0.0,120.0,0.0,0.0
3380,61.0,120.0,120.0,0.0,0.0
3381,57.0,120.0,120.0,0.0,0.0
3382,72.0,0.0,240.0,0.0,0.0
3383,84.0,0.0,240.0,0.0,0.0
3384,61.0,120.0,120.0,0.0,0.0
3385,85.0,0.0,240.0,0.0,0.0
3386,73.0,0.0,240.0,0.0,0.0
3387,58.0,120.0,120.0,0.0,0.0
3388,61.0,120.0,120.0,0.0,0.0
3389,57.0,120.0,120.0,0.0,0.0
3390,72.0,0.0,240.0,0.0,0.0
3391,84.0,0.0,240.0,0.0,0.0
3392,61.0,120.0,120.0,0.0,0.0
3393,73.0,0.0,240.0,0.0,0.0
3394,58.0,120.0,120.0,0.0,0.0
3395,85.0,0.0,240.0,0.0,0.0
3396,61.0,480.0,120.0,0.0,0.0
3397,63.0,0.0,960.0,0.0,0.0
3398,75.0,0.0,960.0,0.0,0.0
3399,47.0,240.0,240.0,0.0,0.0
3400,46.0,240.0,240.0,0.0,0.0
3401,47.0,480.0,240.0,0.0,0.0
3402,53.0,0.0,960.0,0.0,0.0
3403,65.0,480.0,960.0,0.0,0.0
3404,49.0,240.0,240.0,0.0,0.0
3405,48.0,240.0,240.0,0.0,0.0
3406,49.0,0.0,240.0,0.0,0.0
3407,83.0,0.0,960.0,0.0,0.0
3408,71.0,0.0,960.0,0.0,0.0
3409,50.0,240.0,240.0,0.0,0.0
3410,48.0,240.0,240.0,0.0,0.0
3411,50.0,480.0,240.0,0.0,0.0
3412,82.0,0.0,960.0,0.0,0.0
3413,70.0,120.0,960.0,0.0,0.0
3414,51.0,240.0,240.0,0.0,0.0
3415,50.0,240.0,240.0,0.0,0.0
3416,51.0,0.0,240.0,0.0,0.0
3417,82.0,120.0,120.0,0.0,0.0
3418,80.0,120.0,120.0,0.0,0.0
3419,83.0,120.0,120.0,0.0,0.0
3420,82.0,120.0,120.0,0.0,0.0
3421,59.0,0.0,480.0,0.0,0.0
3422,68.0,0.0,480.0,0.0,0.0
3423,85.0,120.0,120.0,0.0,0.0
3424,83.0,120.0,120.0,0.0,0.0
3425,82.0,120.0,120.0,0.0,0.0
3426,80.0,480.0,120.0,0.0,0.0
3427,78.0,480.0,480.0,0.0,0.0
3428,61.0,0.0,960.0,0.0,0.0
3429,70.0,0.0,480.0,0.0,0.0
3430,71.0,0.0,480.0,0.0,0.0
3431,77.0,480.0,480.0,0.0,0.0
3432,78.0,240.0,240.0,0.0,0.0
3433,77.0,240.0,240.0,0.0,0.0
3434,78.0,0.0,240.0,0.0,0.0
3435,66.0,480.0,15.0,0.0,0.0
3436,70.0,0.0,15.0,0.0,0.0
3437,76.0,240.0,240.0,0.0,0.0
3438,75.0,240.0,240.0,0.0,0.0
3439,76.0,0.0,240.0,0.0,0.0
3440,73.0,480.0,960.0,0.0,0.0
3441,66.0,0.0,960.0,0.0,0.0
3442,70.0,0.0,960.0,0.0,0.0
3443,75.0,240.0,240.0,0.0,0.0
3444,74.0,240.0,240.0,0.0,0.0
3445,75.0,0.0,240.0,0.0,0.0
3446,68.0,480.0,960.0,0.0,0.0
3447,71.0,0.0,960.0,0.0,0.0
3448,75.0,240.0,240.0,0.0,0.0
3449,87.0,120.0,15.0,0.0,0.0
3450,68.0,480.0,960.0,0.0,0.0
3451,71.0,0.0,960.0,0.0,0.0
3452,65.0,0.0,960.0,0.0,0.0
3453,87.0,240.0,240.0,0.0,0.0
3454,73.0,120.0,15.0,0.0,0.0
3455,70.0,0.0,960.0,0.0,0.0
3456,73.0,240.0,240.0,0.0,0.0
3457,82.0,120.0,15.0,0.0,0.0
3458,66.0,480.0,15.0,0.0,0.0
3459,70.0,0.0,960.0,0.0,0.0
3460,63.0,0.0,960.0,0.0,0.0
3461,82.0,240.0,240.0,0.0,0.0
3462,71.0,120.0,240.0,0.0,0.0
3463,71.0,120.0,120.0,0.0,0.0
3464,71.0,240.0,240.0,0.0,0.0
3465,80.0,120.0,15.0,0.0,0.0
3466,68.0,480.0,15.0,0.0,0.0
3467,65.0,0.0,15.0,0.0,0.0
3468,62.0,0.0,960.0,0.0,0.0
3469,80.0,240.0,240.0,0.0,0.0
3470,70.0,120.0,15.0,0.0,0.0
3471,66.0,240.0,960.0,0.0,0.0
3472,63.0,0.0,960.0,0.0,0.0
3473,70.0,240.0,240.0,0.0,0.0
3474,78.0,120.0,15.0,0.0,0.0
3475,78.0,120.0,240.0,0.0,0.0
3476,66.0,0.0,240.0,0.0,0.0
3477,60.0,240.0,240.0,0.0,0.0
3478,68.0,119.0,120.0,0.0,0.0
3479,60.0,240.0,240.0,0.0,0.0
3480,66.0,1.0,240.0,0.0,0.0
3481,60.0,240.0,240.0,0.0,0.0
3482,66.0,0.0,240.0,0.0,0.0
3483,78.0,120.0,240.0,0.0,0.0
3484,70.0,120.0,120.0,0.0,0.0
3485,61.0,240.0,240.0,0.0,0.0
3486,66.0,0.0,240.0,0.0,0.0
3487,61.0,240.0,240.0,0.0,0.0
3488,66.0,0.0,240.0,0.0,0.0
3489,61.0,0.0,240.0,0.0,0.0
3490,66.0,240.0,240.0,0.0,0.0
3491,78.0,120.0,240.0,0.0,0.0
3492,63.0,240.0,240.0,0.0,0.0
3493,66.0,0.0,240.0,0.0,0.0
3494,71.0,120.0,120.0,0.0,0.0
3495,63.0,240.0,240.0,0.0,0.0
3496,66.0,0.0,240.0,0.0,0.0
3497,63.0,240.0,240.0,0.0,0.0
3498,66.0,0.0,240.0,0.0,0.0
3499,78.0,120.0,240.0,0.0,0.0
3500,72.0,120.0,120.0,0.0,0.0
3501,66.0,0.0,15.0,0.0,0.0
3502,62.0,240.0,15.0,0.0,0.0
3503,62.0,0.0,240.0,0.0,0.0
3504,66.0,240.0,240.0,0.0,0.0
3505,78.0,120.0,240.0,0.0,0.0
3506,61.0,0.0,480.0,0.0,0.0
3507,66.0,240.0,480.0,0.0,0.0
3508,73.0,120.0,120.0,0.0,0.0
3509,78.0,120.0,240.0,0.0,0.0
3510,58.0,0.0,480.0,0.0,0.0
3511,74.0,120.0,120.0,0.0,0.0
3512,78.0,240.0,240.0,0.0,0.0
3513,66.0,240.0,15.0,0.0,0.0
3514,59.0,240.0,480.0,0.0,0.0
3515,75.0,0.0,240.0,0.0,0.0
3516,83.0,240.0,240.0,0.0,0.0
3517,56.0,0.0,480.0,0.0,0.0
3518,61.0,0.0,480.0,0.0,0.0
3519,77.0,60.0,240.0,0.0,0.0
3520,83.0,60.0,60.0,0.0,0.0
3521,61.0,0.0,480.0,0.0,0.0
3522,54.0,0.0,480.0,0.0,0.0
3523,82.0,60.0,60.0,0.0,0.0
3524,80.0,60.0,60.0,0.0,0.0
3525,82.0,240.0,60.0,0.0,0.0
3526,85.0,60.0,240.0,0.0,0.0
3527,49.0,0.0,480.0,0.0,0.0
3528,80.0,60.0,60.0,0.0,0.0
3529,46.0,60.0,480.0,0.0,0.0
3530,78.0,60.0,60.0,0.0,0.0
3531,77.0,60.0,60.0,0.0,0.0
3532,78.0,240.0,60.0,0.0,0.0
3533,82.0,0.0,240.0,0.0,0.0
3534,77.0,60.0,60.0,0.0,0.0
3535,54.0,0.0,480.0,0.0,0.0
3536,75.0,60.0,60.0,0.0,0.0
3537,74.0,60.0,60.0,0.0,0.0
3538,75.0,240.0,60.0,0.0,0.0
3539,78.0,0.0,240.0,0.0,0.0
3540,47.0,60.0,15.0,0.0,0.0
3541,70.0,60.0,60.0,0.0,0.0
3542,51.0,60.0,480.0,0.0,0.0
3543,68.0,60.0,60.0,0.0,0.0
3544,67.0,60.0,60.0,0.0,0.0
3545,68.0,240.0,60.0,0.0,0.0
3546,70.0,0.0,240.0,0.0,0.0
3547,61.0,180.0,60.0,0.0,0.0
3548,73.0,120.0,120.0,0.0,0.0
3549,75.0,120.0,120.0,0.0,0.0
3550,73.0,120.0,120.0,0.0,0.0
3551,71.0,120.0,120.0,0.0,0.0
3552,54.0,0.0,960.0,0.0,0.0
3553,46.0,0.0,480.0,0.0,0.0
3554,70.0,120.0,120.0,0.0,0.0
3555,68.0,120.0,120.0,0.0,0.0
3556,66.0,60.0,120.0,0.0,0.0
3557,47.0,60.0,480.0,0.0,0.0
3558,70.0,60.0,60.0,0.0,0.0
3559,68.0,60.0,60.0,0.0,0.0
3560,70.0,60.0,60.0,0.0,0.0
3561,68.0,60.0,60.0,0.0,0.0
3562,70.0,60.0,60.0,0.0,0.0
3563,68.0,60.0,60.0,0.0,0.0
3564,70.0,60.0,60.0,0.0,0.0
3565,68.0,0.0,60.0,0.0,0.0
3566,53.0,0.0,480.0,0.0,0.0
3567,49.0,0.0,480.0,0.0,0.0
3568,70.0,60.0,60.0,0.0,0.0
3569,68.0,60.0,60.0,0.0,0.0
3570,70.0,60.0,60.0,0.0,0.0
3571,68.0,60.0,60.0,0.0,0.0
3572,70.0,60.0,60.0,0.0,0.0
3573,68.0,60.0,60.0,0.0,0.0
3574,66.0,60.0,60.0,0.0,0.0
3575,68.0,120.0,60.0,0.0,0.0
3576,54.0,240.0,120.0,0.0,0.0
3577,42.0,0.0,120.0,0.0,0.0
3578,66.0,0.0,120.0,0.0,0.0
3579,54.0,120.0,120.0,0.0,0.0
3580,58.0,120.0,120.0,0.0,0.0
3581,56.0,120.0,120.0,0.0,0.0
3582,53.0,120.0,240.0,0.0,0.0
3583,59.0,0.0,120.0,0.0,0.0
3584,52.0,0.0,240.0,0.0,0.0
3585,58.0,120.0,120.0,0.0,0.0
3586,61.0,120.0,120.0,0.0,0.0
3587,42.0,240.0,120.0,0.0,0.0
3588,51.0,0.0,120.0,0.0,0.0
3589,59.0,0.0,120.0,0.0,0.0
3590,54.0,120.0,120.0,0.0,0.0
3591,58.0,120.0,120.0,0.0,0.0
3592,56.0,120.0,120.0,0.0,0.0
3593,53.0,0.0,240.0,0.0,0.0
3594,59.0,120.0,120.0,0.0,0.0
3595,52.0,0.0,240.0,0.0,0.0
3596,58.0,120.0,120.0,0.0,0.0
3597,61.0,120.0,120.0,0.0,0.0
3598,59.0,240.0,120.0,0.0,0.0
3599,42.0,0.0,120.0,0.0,0.0
3600,51.0,0.0,120.0,0.0,0.0
3601,54.0,120.0,120.0,0.0,0.0
3602,58.0,120.0,120.0,0.0,0.0
3603,53.0,120.0,240.0,0.0,0.0
3604,56.0,120.0,120.0,0.0,0.0
3605,59.0,0.0,120.0,0.0,0.0
3606,58.0,120.0,120.0,0.0,0.0
3607,52.0,0.0,240.0,0.0,0.0
3608,61.0,120.0,120.0,0.0,0.0
3609,51.0,120.0,240.0,0.0,0.0
3610,59.0,120.0,120.0,0.0,0.0
3611,63.0,0.0,120.0,0.0,0.0
3612,61.0,120.0,120.0,0.0,0.0
3613,46.0,0.0,240.0,0.0,0.0
3614,64.0,120.0,120.0,0.0,0.0
3615,47.0,120.0,240.0,0.0,0.0
3616,63.0,120.0,120.0,0.0,0.0
3617,66.0,0.0,120.0,0.0,0.0
3618,65.0,120.0,120.0,0.0,0.0
3619,44.0,0.0,240.0,0.0,0.0
3620,68.0,120.0,120.0,0.0,0.0
3621,46.0,0.0,480.0,0.0,0.0
3622,66.0,120.0,120.0,0.0,0.0
3623,68.0,120.0,120.0,0.0,0.0
3624,70.0,120.0,120.0,0.0,0.0
3625,68.0,120.0,120.0,0.0,0.0
3626,66.0,120.0,120.0,0.0,0.0
3627,64.0,120.0,120.0,0.0,0.0
3628,63.0,120.0,120.0,0.0,0.0
3629,62.0,120.0,120.0,0.0,0.0
3630,47.0,120.0,480.0,0.0,0.0
3631,63.0,120.0,120.0,0.0,0.0
3632,68.0,120.0,120.0,0.0,0.0
3633,71.0,120.0,120.0,0.0,0.0
3634,70.0,0.0,120.0,0.0,0.0
3635,68.0,120.0,120.0,0.0,0.0
3636,66.0,120.0,120.0,0.0,0.0
3637,65.0,120.0,120.0,0.0,0.0
3638,63.0,120.0,120.0,0.0,0.0
3639,61.0,120.0,120.0,0.0,0.0
3640,49.0,120.0,240.0,0.0,0.0
3641,66.0,0.0,120.0,0.0,0.0
3642,54.0,120.0,240.0,0.0,0.0
3643,70.0,120.0,120.0,0.0,0.0
3644,73.0,0.0,120.0,0.0,0.0
3645,58.0,120.0,240.0,0.0,0.0
3646,78.0,120.0,120.0,0.0,0.0
3647,66.0,0.0,120.0,0.0,0.0
3648,70.0,120.0,120.0,0.0,0.0
3649,54.0,240.0,240.0,0.0,0.0
3650,49.0,120.0,240.0,0.0,0.0
3651,73.0,0.0,240.0,0.0,0.0
3652,70.0,0.0,240.0,0.0,0.0
3653,56.0,120.0,240.0,0.0,0.0
3654,68.0,120.0,120.0,0.0,0.0
3655,71.0,0.0,120.0,0.0,0.0
3656,70.0,0.0,120.0,0.0,0.0
3657,59.0,120.0,240.0,0.0,0.0
3658,66.0,120.0,120.0,0.0,0.0
3659,56.0,120.0,240.0,0.0,0.0
3660,65.0,120.0,120.0,0.0,0.0
3661,68.0,0.0,120.0,0.0,0.0
3662,66.0,240.0,120.0,0.0,0.0
3663,54.0,0.0,120.0,0.0,0.0
3664,58.0,0.0,120.0,0.0,0.0
3665,66.0,120.0,120.0,0.0,0.0
3666,70.0,120.0,120.0,0.0,0.0
3667,68.0,120.0,120.0,0.0,0.0
3668,65.0,120.0,240.0,0.0,0.0
3669,71.0,0.0,120.0,0.0,0.0
3670,70.0,120.0,120.0,0.0,0.0
3671,64.0,120.0,240.0,0.0,0.0
3672,73.0,0.0,120.0,0.0,0.0
3673,63.0,0.0,120.0,0.0,0.0
3674,54.0,0.0,120.0,0.0,0.0
3675,71.0,240.0,120.0,0.0,0.0
3676,78.0,120.0,120.0,0.0,0.0
3677,66.0,120.0,240.0,0.0,0.0
3678,82.0,0.0,120.0,0.0,0.0
3679,80.0,120.0,120.0,0.0,0.0
3680,65.0,120.0,240.0,0.0,0.0
3681,83.0,0.0,120.0,0.0,0.0
3682,82.0,120.0,120.0,0.0,0.0
3683,64.0,0.0,240.0,0.0,0.0
3684,85.0,120.0,120.0,0.0,0.0
3685,83.0,0.0,120.0,0.0,0.0
3686,63.0,240.0,120.0,0.0,0.0
3687,54.0,0.0,120.0,0.0,0.0
3688,66.0,120.0,120.0,0.0,0.0
3689,70.0,0.0,120.0,0.0,0.0
3690,68.0,120.0,120.0,0.0,0.0
3691,65.0,120.0,240.0,0.0,0.0
3692,71.0,0.0,120.0,0.0,0.0
3693,64.0,0.0,240.0,0.0,0.0
3694,70.0,120.0,120.0,0.0,0.0
3695,73.0,120.0,120.0,0.0,0.0
3696,71.0,120.0,120.0,0.0,0.0
3697,63.0,120.0,240.0,0.0,0.0
3698,66.0,0.0,120.0,0.0,0.0
3699,58.0,120.0,240.0,0.0,0.0
3700,73.0,120.0,120.0,0.0,0.0
3701,66.0,0.0,120.0,0.0,0.0
3702,75.0,120.0,120.0,0.0,0.0
3703,59.0,120.0,240.0,0.0,0.0
3704,66.0,0.0,120.0,0.0,0.0
3705,56.0,120.0,240.0,0.0,0.0
3706,77.0,120.0,120.0,0.0,0.0
3707,66.0,0.0,120.0,0.0,0.0
3708,46.0,0.0,480.0,0.0,0.0
3709,58.0,0.0,480.0,0.0,0.0
3710,78.0,120.0,120.0,0.0,0.0
3711,80.0,120.0,120.0,0.0,0.0
3712,82.0,120.0,120.0,0.0,0.0
3713,80.0,120.0,120.0,0.0,0.0
3714,78.0,120.0,120.0,0.0,0.0
3715,76.0,120.0,120.0,0.0,0.0
3716,75.0,120.0,120.0,0.0,0.0
3717,74.0,120.0,120.0,0.0,0.0
3718,47.0,0.0,480.0,0.0,0.0
3719,59.0,120.0,480.0,0.0,0.0
3720,75.0,120.0,120.0,0.0,0.0
3721,73.0,120.0,120.0,0.0,0.0
3722,71.0,120.0,120.0,0.0,0.0
3723,70.0,0.0,120.0,0.0,0.0
3724,68.0,120.0,120.0,0.0,0.0
3725,66.0,120.0,120.0,0.0,0.0
3726,65.0,120.0,120.0,0.0,0.0
3727,63.0,120.0,120.0,0.0,0.0
3728,49.0,120.0,120.0,0.0,0.0
3729,61.0,0.0,240.0,0.0,0.0
3730,58.0,120.0,120.0,0.0,0.0
3731,85.0,0.0,120.0,0.0,0.0
3732,54.0,120.0,120.0,0.0,0.0
3733,58.0,120.0,120.0,0.0,0.0
3734,85.0,0.0,120.0,0.0,0.0
3735,49.0,120.0,120.0,0.0,0.0
3736,58.0,120.0,120.0,0.0,0.0
3737,85.0,0.0,120.0,0.0,0.0
3738,54.0,120.0,120.0,0.0,0.0
3739,58.0,120.0,120.0,0.0,0.0
3740,49.0,120.0,120.0,0.0,0.0
3741,85.0,0.0,120.0,0.0,0.0
3742,82.0,0.0,120.0,0.0,0.0
3743,58.0,120.0,120.0,0.0,0.0
3744,78.0,120.0,120.0,0.0,0.0
3745,54.0,0.0,120.0,0.0,0.0
3746,58.0,0.0,120.0,0.0,0.0
3747,73.0,120.0,120.0,0.0,0.0
3748,78.0,0.0,120.0,0.0,0.0
3749,49.0,120.0,120.0,0.0,0.0
3750,73.0,120.0,120.0,0.0,0.0
3751,58.0,0.0,120.0,0.0,0.0
3752,54.0,120.0,120.0,0.0,0.0
3753,70.0,0.0,120.0,0.0,0.0
3754,58.0,80.0,120.0,0.0,0.0
3755,66.0,0.0,120.0,0.0,0.0
3756,70.0,40.0,90.0,0.0,0.0
3757,49.0,40.0,120.0,0.0,0.0
3758,68.0,80.0,90.0,0.0,0.0
3759,59.0,0.0,120.0,0.0,0.0
3760,70.0,80.0,90.0,0.0,0.0
3761,68.0,40.0,90.0,0.0,0.0
3762,53.0,40.0,120.0,0.0,0.0
3763,70.0,80.0,90.0,0.0,0.0
3764,59.0,80.0,120.0,0.0,0.0
3765,68.0,0.0,90.0,0.0,0.0
3766,70.0,40.0,90.0,0.0,0.0
3767,49.0,40.0,120.0,0.0,0.0
3768,68.0,80.0,90.0,0.0,0.0
3769,59.0,0.0,120.0,0.0,0.0
3770,70.0,80.0,90.0,0.0,0.0
3771,53.0,40.0,120.0,0.0,0.0
3772,68.0,40.0,90.0,0.0,0.0
3773,70.0,80.0,90.0,0.0,0.0
3774,59.0,0.0,120.0,0.0,0.0
3775,68.0,80.0,90.0,0.0,0.0
3776,49.0,40.0,120.0,0.0,0.0
3777,70.0,40.0,90.0,0.0,0.0
3778,68.0,80.0,90.0,0.0,0.0
3779,59.0,0.0,120.0,0.0,0.0
3780,70.0,80.0,90.0,0.0,0.0
3781,53.0,40.0,120.0,0.0,0.0
3782,68.0,40.0,90.0,0.0,0.0
3783,70.0,80.0,90.0,0.0,0.0
3784,59.0,60.0,120.0,0.0,0.0
3785,68.0,0.0,90.0,0.0,0.0
3786,49.0,60.0,120.0,0.0,0.0
3787,70.0,60.0,60.0,0.0,0.0
3788,68.0,0.0,60.0,0.0,0.0
3789,59.0,60.0,120.0,0.0,0.0
3790,70.0,60.0,60.0,0.0,0.0
3791,68.0,0.0,60.0,0.0,0.0
3792,53.0,0.0,120.0,0.0,0.0
3793,70.0,60.0,60.0,0.0,0.0
3794,68.0,60.0,60.0,0.0,0.0
3795,59.0,240.0,120.0,0.0,0.0
3796,66.0,60.0,60.0,0.0,0.0
3797,68.0,0.0,60.0,0.0,0.0
3798,66.0,240.0,240.0,0.0,0.0
3799,54.0,0.0,240.0,0.0,0.0
3800,78.0,0.0,240.0,0.0,0.0
3801,66.0,240.0,240.0,0.0,0.0
3802,65.0,240.0,240.0,0.0,0.0
3803,66.0,0.0,240.0,0.0,0.0
3804,78.0,240.0,240.0,0.0,0.0
3805,77.0,0.0,240.0,0.0,0.0
3806,68.0,240.0,240.0,0.0,0.0
3807,66.0,0.0,240.0,0.0,0.0
3808,78.0,240.0,240.0,0.0,0.0
3809,65.0,240.0,240.0,0.0,0.0
3810,80.0,0.0,240.0,0.0,0.0
3811,64.0,0.0,240.0,0.0,0.0
3812,82.0,120.0,240.0,0.0,0.0
3813,63.0,120.0,240.0,0.0,0.0
3814,83.0,120.0,120.0,0.0,0.0
3815,82.0,0.0,120.0,0.0,0.0
3816,83.0,120.0,120.0,0.0,0.0
3817,54.0,120.0,240.0,0.0,0.0
3818,82.0,0.0,120.0,0.0,0.0
3819,62.0,120.0,240.0,0.0,0.0
3820,83.0,120.0,120.0,0.0,0.0
3821,81.0,0.0,120.0,0.0,0.0
3822,54.0,0.0,240.0,0.0,0.0
3823,80.0,120.0,120.0,0.0,0.0
3824,78.0,120.0,120.0,0.0,0.0
3825,77.0,120.0,120.0,0.0,0.0
3826,61.0,120.0,240.0,0.0,0.0
3827,78.0,0.0,120.0,0.0,0.0
3828,80.0,120.0,120.0,0.0,0.0
3829,54.0,0.0,240.0,0.0,0.0
3830,78.0,120.0,120.0,0.0,0.0
3831,77.0,120.0,120.0,0.0,0.0
3832,65.0,0.0,240.0,0.0,0.0
3833,75.0,120.0,120.0,0.0,0.0
3834,73.0,120.0,120.0,0.0,0.0
3835,54.0,0.0,240.0,0.0,0.0
3836,71.0,120.0,120.0,0.0,0.0
3837,66.0,0.0,120.0,0.0,0.0
3838,70.0,240.0,120.0,0.0,0.0
3839,54.0,240.0,240.0,0.0,0.0
3840,70.0,120.0,120.0,0.0,0.0
3841,53.0,240.0,240.0,0.0,0.0
3842,66.0,240.0,240.0,0.0,0.0
3843,54.0,0.0,240.0,0.0,0.0
3844,56.0,240.0,240.0,0.0,0.0
3845,65.0,0.0,240.0,0.0,0.0
3846,54.0,240.0,240.0,0.0,0.0
3847,66.0,0.0,240.0,0.0,0.0
3848,68.0,240.0,240.0,0.0,0.0
3849,53.0,0.0,240.0,0.0,0.0
3850,52.0,0.0,240.0,0.0,0.0
3851,70.0,120.0,240.0,0.0,0.0
3852,51.0,0.0,480.0,0.0,0.0
3853,71.0,180.0,120.0,0.0,0.0
3854,73.0,60.0,60.0,0.0,0.0
3855,71.0,60.0,60.0,0.0,0.0
3856,70.0,60.0,60.0,0.0,0.0
3857,71.0,240.0,60.0,0.0,0.0
3858,47.0,0.0,480.0,0.0,0.0
3859,73.0,240.0,240.0,0.0,0.0
3860,75.0,240.0,240.0,0.0,0.0
3861,71.0,240.0,240.0,0.0,0.0
3862,75.0,0.0,240.0,0.0,0.0
3863,73.0,480.0,240.0,0.0,0.0
3864,70.0,0.0,240.0,0.0,0.0
3865,49.0,0.0,15.0,0.0,0.0
3866,65.0,0.0,240.0,0.0,0.0
3867,68.0,0.0,960.0,0.0,0.0
3868,59.0,480.0,15.0,0.0,0.0
3869,54.0,480.0,480.0,0.0,0.0
3870,49.0,360.0,480.0,0.0,0.0
3871,66.0,0.0,360.0,0.0,0.0
3872,42.0,0.0,360.0,0.0,0.0
3873,58.0,240.0,360.0,0.0,0.0
3874,70.0,120.0,120.0,0.0,0.0
3875,68.0,120.0,120.0,0.0,0.0
3876,66.0,120.0,120.0,0.0,0.0
3877,65.0,240.0,120.0,0.0,0.0
3878,63.0,240.0,240.0,0.0,0.0
3879,61.0,0.0,240.0,0.0,0.0
3880,37.0,240.0,240.0,0.0,0.0
3881,41.0,240.0,240.0,0.0,0.0
3882,61.0,0.0,720.0,0.0,0.0
3883,44.0,240.0,240.0,0.0,0.0
3884,41.0,240.0,240.0,0.0,0.0
3885,73.0,240.0,240.0,0.0,0.0
3886,37.0,0.0,240.0,0.0,0.0
3887,75.0,240.0,240.0,0.0,0.0
3888,41.0,0.0,240.0,0.0,0.0
3889,44.0,360.0,240.0,0.0,0.0
3890,77.0,0.0,240.0,0.0,0.0
3891,72.0,0.0,60.0,0.0,0.0
3892,78.0,120.0,360.0,0.0,0.0
3893,51.0,240.0,240.0,0.0,0.0
3894,75.0,0.0,120.0,0.0,0.0
3895,72.0,240.0,480.0,0.0,0.0
3896,54.0,240.0,240.0,0.0,0.0
3897,60.0,0.0,240.0,0.0,0.0
3898,54.0,240.0,240.0,0.0,0.0
3899,51.0,120.0,240.0,0.0,0.0
3900,54.0,120.0,240.0,0.0,0.0
3901,68.0,120.0,120.0,0.0,0.0
3902,66.0,0.0,120.0,0.0,0.0
3903,65.0,120.0,120.0,0.0,0.0
3904,60.0,240.0,240.0,0.0,0.0
3905,63.0,0.0,120.0,0.0,0.0
3906,61.0,240.0,240.0,0.0,0.0
3907,39.0,0.0,240.0,0.0,0.0
3908,60.0,240.0,240.0,0.0,0.0
3909,42.0,240.0,240.0,0.0,0.0
3910,60.0,240.0,720.0,0.0,0.0
3911,48.0,240.0,240.0,0.0,0.0
3912,42.0,0.0,240.0,0.0,0.0
3913,39.0,0.0,240.0,0.0,0.0
3914,75.0,240.0,240.0,0.0,0.0
3915,77.0,240.0,240.0,0.0,0.0
3916,42.0,0.0,240.0,0.0,0.0
3917,48.0,360.0,240.0,0.0,0.0
3918,78.0,0.0,240.0,0.0,0.0
3919,74.0,0.0,60.0,0.0,0.0
3920,80.0,120.0,360.0,0.0,0.0
3921,53.0,240.0,240.0,0.0,0.0
3922,77.0,0.0,120.0,0.0,0.0
3923,56.0,240.0,240.0,0.0,0.0
3924,74.0,240.0,480.0,0.0,0.0
3925,59.0,0.0,240.0,0.0,0.0
3926,56.0,240.0,240.0,0.0,0.0
3927,53.0,0.0,240.0,0.0,0.0
3928,77.0,240.0,240.0,0.0,0.0
3929,56.0,240.0,240.0,0.0,0.0
3930,78.0,0.0,240.0,0.0,0.0
3931,80.0,0.0,240.0,0.0,0.0
3932,59.0,0.0,240.0,0.0,0.0
3933,75.0,360.0,60.0,0.0,0.0
3934,82.0,120.0,360.0,0.0,0.0
3935,42.0,240.0,240.0,0.0,0.0
3936,78.0,0.0,120.0,0.0,0.0
3937,46.0,240.0,240.0,0.0,0.0
3938,75.0,0.0,240.0,0.0,0.0
3939,51.0,360.0,240.0,0.0,0.0
3940,72.0,0.0,60.0,0.0,0.0
3941,78.0,120.0,360.0,0.0,0.0
3942,44.0,240.0,240.0,0.0,0.0
3943,75.0,0.0,120.0,0.0,0.0
3944,72.0,240.0,240.0,0.0,0.0
3945,51.0,0.0,240.0,0.0,0.0
3946,54.0,0.0,240.0,0.0,0.0
3947,67.0,360.0,60.0,0.0,0.0
3948,73.0,120.0,360.0,0.0,0.0
3949,46.0,240.0,240.0,0.0,0.0
3950,70.0,0.0,120.0,0.0,0.0
3951,67.0,240.0,480.0,0.0,0.0
3952,49.0,240.0,240.0,0.0,0.0
3953,52.0,0.0,240.0,0.0,0.0
3954,49.0,240.0,240.0,0.0,0.0
3955,46.0,0.0,240.0,0.0,0.0
3956,67.0,240.0,15.0,0.0,0.0
3957,49.0,240.0,240.0,0.0,0.0
3958,52.0,0.0,240.0,0.0,0.0
3959,67.0,120.0,240.0,0.0,0.0
3960,53.0,240.0,960.0,0.0,0.0
3961,44.0,0.0,960.0,0.0,0.0
3962,68.0,120.0,120.0,0.0,0.0
3963,77.0,120.0,120.0,0.0,0.0
3964,73.0,120.0,120.0,0.0,0.0
3965,68.0,120.0,120.0,0.0,0.0
3966,65.0,120.0,120.0,0.0,0.0
3967,73.0,120.0,120.0,0.0,0.0
3968,68.0,120.0,120.0,0.0,0.0
3969,65.0,0.0,120.0,0.0,0.0
3970,56.0,0.0,480.0,0.0,0.0
3971,68.0,0.0,240.0,0.0,0.0
3972,65.0,240.0,240.0,0.0,0.0
3973,63.0,0.0,240.0,0.0,0.0
3974,66.0,120.0,240.0,0.0,0.0
3975,44.0,120.0,480.0,0.0,0.0
3976,65.0,0.0,120.0,0.0,0.0
3977,61.0,240.0,120.0,0.0,0.0
3978,60.0,120.0,120.0,0.0,0.0
3979,63.0,0.0,120.0,0.0,0.0
3980,49.0,120.0,120.0,0.0,0.0
3981,61.0,0.0,480.0,0.0,0.0
3982,56.0,120.0,120.0,0.0,0.0
3983,52.0,120.0,120.0,0.0,0.0
3984,56.0,120.0,120.0,0.0,0.0
3985,49.0,120.0,120.0,0.0,0.0
3986,56.0,120.0,120.0,0.0,0.0
3987,52.0,120.0,120.0,0.0,0.0
3988,56.0,120.0,120.0,0.0,0.0
3989,49.0,120.0,120.0,0.0,0.0
3990,56.0,0.0,120.0,0.0,0.0
3991,61.0,120.0,120.0,0.0,0.0
3992,63.0,0.0,120.0,0.0,0.0
3993,52.0,120.0,120.0,0.0,0.0
3994,64.0,120.0,120.0,0.0,0.0
3995,56.0,0.0,120.0,0.0,0.0
3996,49.0,120.0,120.0,0.0,0.0
3997,66.0,0.0,120.0,0.0,0.0
3998,56.0,120.0,120.0,0.0,0.0
3999,68.0,0.0,120.0,0.0,0.0
4000,70.0,0.0,120.0,0.0,0.0
4001,52.0,120.0,120.0,0.0,0.0
4002,72.0,0.0,120.0,0.0,0.0
4003,56.0,120.0,120.0,0.0,0.0
4004,49.0,0.0,120.0,0.0,0.0
4005,73.0,120.0,120.0,0.0,0.0
4006,56.0,120.0,120.0,0.0,0.0
4007,68.0,0.0,120.0,0.0,0.0
4008,52.0,120.0,120.0,0.0,0.0
4009,76.0,0.0,120.0,0.0,0.0
4010,56.0,120.0,120.0,0.0,0.0
4011,75.0,0.0,120.0,0.0,0.0
4012,73.0,120.0,120.0,0.0,0.0
4013,49.0,0.0,120.0,0.0,0.0
4014,56.0,0.0,120.0,0.0,0.0
4015,68.0,120.0,120.0,0.0,0.0
4016,52.0,0.0,120.0,0.0,0.0
4017,76.0,120.0,120.0,0.0,0.0
4018,56.0,120.0,120.0,0.0,0.0
4019,75.0,0.0,120.0,0.0,0.0
4020,49.0,0.0,120.0,0.0,0.0
4021,73.0,120.0,120.0,0.0,0.0
4022,58.0,0.0,120.0,0.0,0.0
4023,75.0,120.0,120.0,0.0,0.0
4024,71.0,120.0,120.0,0.0,0.0
4025,52.0,0.0,120.0,0.0,0.0
4026,73.0,0.0,120.0,0.0,0.0
4027,58.0,120.0,120.0,0.0,0.0
4028,70.0,120.0,120.0,0.0,0.0
4029,49.0,0.0,120.0,0.0,0.0
4030,71.0,0.0,120.0,0.0,0.0
4031,58.0,120.0,120.0,0.0,0.0
4032,68.0,0.0,120.0,0.0,0.0
4033,52.0,120.0,120.0,0.0,0.0
4034,70.0,0.0,120.0,0.0,0.0
4035,58.0,120.0,120.0,0.0,0.0
4036,51.0,120.0,120.0,0.0,0.0
4037,67.0,120.0,240.0,0.0,0.0
4038,61.0,0.0,120.0,0.0,0.0
4039,58.0,120.0,120.0,0.0,0.0
4040,85.0,120.0,480.0,0.0,0.0
4041,61.0,120.0,120.0,0.0,0.0
4042,51.0,120.0,120.0,0.0,0.0
4043,61.0,0.0,120.0,0.0,0.0
4044,58.0,120.0,120.0,0.0,0.0
4045,83.0,0.0,480.0,0.0,0.0
4046,61.0,120.0,120.0,0.0,0.0
4047,51.0,120.0,120.0,0.0,0.0
4048,61.0,120.0,120.0,0.0,0.0
4049,82.0,120.0,480.0,0.0,0.0
4050,58.0,120.0,120.0,0.0,0.0
4051,61.0,120.0,120.0,0.0,0.0
4052,51.0,120.0,120.0,0.0,0.0
4053,61.0,0.0,120.0,0.0,0.0
4054,58.0,120.0,120.0,0.0,0.0
4055,80.0,0.0,480.0,0.0,0.0
4056,61.0,120.0,120.0,0.0,0.0
4057,51.0,120.0,120.0,0.0,0.0
4058,61.0,120.0,120.0,0.0,0.0
4059,58.0,120.0,120.0,0.0,0.0
4060,79.0,120.0,480.0,0.0,0.0
4061,61.0,120.0,120.0,0.0,0.0
4062,51.0,120.0,120.0,0.0,0.0
4063,61.0,0.0,120.0,0.0,0.0
4064,58.0,120.0,120.0,0.0,0.0
4065,76.0,120.0,480.0,0.0,0.0
4066,61.0,120.0,120.0,0.0,0.0
4067,51.0,120.0,120.0,0.0,0.0
4068,58.0,0.0,120.0,0.0,0.0
4069,75.0,0.0,480.0,0.0,0.0
4070,55.0,120.0,120.0,0.0,0.0
4071,58.0,120.0,120.0,0.0,0.0
4072,51.0,120.0,120.0,0.0,0.0
4073,58.0,120.0,120.0,0.0,0.0
4074,55.0,120.0,120.0,0.0,0.0
4075,58.0,120.0,120.0,0.0,0.0
4076,51.0,120.0,120.0,0.0,0.0
4077,73.0,0.0,15.0,0.0,0.0
4078,60.0,0.0,120.0,0.0,0.0
4079,72.0,120.0,240.0,0.0,0.0
4080,56.0,120.0,120.0,0.0,0.0
4081,60.0,0.0,120.0,0.0,0.0
4082,71.0,0.0,480.0,0.0,0.0
4083,51.0,120.0,120.0,0.0,0.0
4084,59.0,120.0,120.0,0.0,0.0
4085,56.0,120.0,120.0,0.0,0.0
4086,59.0,120.0,120.0,0.0,0.0
4087,51.0,120.0,120.0,0.0,0.0
4088,71.0,120.0,120.0,0.0,0.0
4089,59.0,0.0,120.0,0.0,0.0
4090,56.0,120.0,120.0,0.0,0.0
4091,70.0,0.0,120.0,0.0,0.0
4092,71.0,0.0,120.0,0.0,0.0
4093,59.0,120.0,120.0,0.0,0.0
4094,51.0,0.0,120.0,0.0,0.0
4095,73.0,120.0,120.0,0.0,0.0
4096,59.0,0.0,120.0,0.0,0.0
4097,71.0,120.0,120.0,0.0,0.0
4098,56.0,120.0,120.0,0.0,0.0
4099,70.0,0.0,120.0,0.0,0.0
4100,71.0,120.0,120.0,0.0,0.0
4101,59.0,0.0,120.0,0.0,0.0
4102,50.0,120.0,120.0,0.0,0.0
4103,74.0,0.0,360.0,0.0,0.0
4104,59.0,120.0,120.0,0.0,0.0
4105,54.0,120.0,120.0,0.0,0.0
4106,59.0,60.0,120.0,0.0,0.0
4107,71.0,0.0,120.0,0.0,0.0
4108,73.0,60.0,60.0,0.0,0.0
4109,50.0,0.0,120.0,0.0,0.0
4110,71.0,60.0,60.0,0.0,0.0
4111,73.0,60.0,60.0,0.0,0.0
4112,59.0,60.0,120.0,0.0,0.0
4113,71.0,0.0,60.0,0.0,0.0
4114,73.0,60.0,60.0,0.0,0.0
4115,54.0,0.0,120.0,0.0,0.0
4116,71.0,60.0,60.0,0.0,0.0
4117,59.0,0.0,120.0,0.0,0.0
4118,70.0,60.0,60.0,0.0,0.0
4119,71.0,120.0,60.0,0.0,0.0
4120,78.0,120.0,360.0,0.0,0.0
4121,50.0,120.0,120.0,0.0,0.0
4122,59.0,120.0,120.0,0.0,0.0
4123,54.0,0.0,120.0,0.0,0.0
4124,59.0,60.0,120.0,0.0,0.0
4125,71.0,0.0,120.0,0.0,0.0
4126,73.0,60.0,60.0,0.0,0.0
4127,50.0,60.0,120.0,0.0,0.0
4128,71.0,0.0,60.0,0.0,0.0
4129,59.0,0.0,120.0,0.0,0.0
4130,73.0,60.0,60.0,0.0,0.0
4131,71.0,60.0,60.0,0.0,0.0
4132,54.0,60.0,120.0,0.0,0.0
4133,73.0,60.0,60.0,0.0,0.0
4134,71.0,0.0,60.0,0.0,0.0
4135,70.0,60.0,60.0,0.0,0.0
4136,59.0,0.0,120.0,0.0,0.0
4137,71.0,120.0,60.0,0.0,0.0
4138,49.0,0.0,120.0,0.0,0.0
4139,77.0,120.0,120.0,0.0,0.0
4140,59.0,120.0,120.0,0.0,0.0
4141,80.0,0.0,120.0,0.0,0.0
4142,56.0,120.0,120.0,0.0,0.0
4143,59.0,120.0,120.0,0.0,0.0
4144,83.0,0.0,600.0,0.0,0.0
4145,49.0,120.0,120.0,0.0,0.0
4146,59.0,120.0,120.0,0.0,0.0
4147,56.0,120.0,120.0,0.0,0.0
4148,59.0,120.0,120.0,0.0,0.0
4149,49.0,120.0,120.0,0.0,0.0
4150,85.0,120.0,120.0,0.0,0.0
4151,59.0,0.0,120.0,0.0,0.0
4152,82.0,0.0,120.0,0.0,0.0
4153,56.0,120.0,120.0,0.0,0.0
4154,83.0,120.0,120.0,0.0,0.0
4155,59.0,0.0,120.0,0.0,0.0
4156,49.0,120.0,120.0,0.0,0.0
4157,80.0,0.0,120.0,0.0,0.0
4158,59.0,120.0,120.0,0.0,0.0
4159,82.0,0.0,120.0,0.0,0.0
4160,56.0,0.0,120.0,0.0,0.0
4161,78.0,120.0,120.0,0.0,0.0
4162,59.0,0.0,120.0,0.0,0.0
4163,80.0,120.0,120.0,0.0,0.0
4164,49.0,120.0,120.0,0.0,0.0
4165,77.0,0.0,120.0,0.0,0.0
4166,78.0,0.0,120.0,0.0,0.0
4167,59.0,120.0,120.0,0.0,0.0
4168,80.0,120.0,120.0,0.0,0.0
4169,56.0,0.0,120.0,0.0,0.0
4170,59.0,0.0,120.0,0.0,0.0
4171,78.0,120.0,120.0,0.0,0.0
4172,49.0,0.0,120.0,0.0,0.0
4173,77.0,120.0,120.0,0.0,0.0
4174,78.0,0.0,120.0,0.0,0.0
4175,59.0,120.0,120.0,0.0,0.0
4176,56.0,120.0,120.0,0.0,0.0
4177,80.0,0.0,120.0,0.0,0.0
4178,82.0,120.0,120.0,0.0,0.0
4179,59.0,0.0,120.0,0.0,0.0
4180,49.0,120.0,120.0,0.0,0.0
4181,83.0,0.0,120.0,0.0,0.0
4182,82.0,0.0,120.0,0.0,0.0
4183,56.0,120.0,120.0,0.0,0.0
4184,80.0,120.0,120.0,0.0,0.0
4185,53.0,0.0,120.0,0.0,0.0
4186,56.0,0.0,120.0,0.0,0.0
4187,78.0,120.0,120.0,0.0,0.0
4188,49.0,0.0,120.0,0.0,0.0
4189,77.0,120.0,120.0,0.0,0.0
4190,56.0,120.0,120.0,0.0,0.0
4191,75.0,0.0,120.0,0.0,0.0
4192,53.0,0.0,120.0,0.0,0.0
4193,73.0,120.0,120.0,0.0,0.0
4194,71.0,0.0,120.0,0.0,0.0
4195,56.0,60.0,120.0,0.0,0.0
4196,71.0,60.0,60.0,0.0,0.0
4197,50.0,120.0,120.0,0.0,0.0
4198,73.0,0.0,60.0,0.0,0.0
4199,71.0,0.0,120.0,0.0,0.0
4200,56.0,120.0,120.0,0.0,0.0
4201,70.0,0.0,240.0,0.0,0.0
4202,53.0,120.0,120.0,0.0,0.0
4203,56.0,120.0,120.0,0.0,0.0
4204,50.0,120.0,120.0,0.0,0.0
4205,70.0,0.0,720.0,0.0,0.0
4206,56.0,120.0,120.0,0.0,0.0
4207,53.0,120.0,120.0,0.0,0.0
4208,56.0,120.0,120.0,0.0,0.0
4209,50.0,120.0,120.0,0.0,0.0
4210,56.0,120.0,120.0,0.0,0.0
4211,53.0,120.0,120.0,0.0,0.0
4212,70.0,120.0,240.0,0.0,0.0
4213,56.0,0.0,120.0,0.0,0.0
4214,50.0,120.0,120.0,0.0,0.0
4215,82.0,120.0,240.0,0.0,0.0
4216,58.0,0.0,120.0,0.0,0.0
4217,53.0,120.0,120.0,0.0,0.0
4218,80.0,120.0,480.0,0.0,0.0
4219,58.0,120.0,120.0,0.0,0.0
4220,51.0,120.0,120.0,0.0,0.0
4221,58.0,0.0,120.0,0.0,0.0
4222,54.0,120.0,120.0,0.0,0.0
4223,78.0,0.0,480.0,0.0,0.0
4224,58.0,120.0,120.0,0.0,0.0
4225,49.0,120.0,120.0,0.0,0.0
4226,58.0,120.0,120.0,0.0,0.0
4227,77.0,0.0,360.0,0.0,0.0
4228,53.0,120.0,120.0,0.0,0.0
4229,58.0,120.0,120.0,0.0,0.0
4230,48.0,120.0,120.0,0.0,0.0
4231,58.0,0.0,120.0,0.0,0.0
4232,75.0,120.0,120.0,0.0,0.0
4233,51.0,0.0,120.0,0.0,0.0
4234,78.0,120.0,120.0,0.0,0.0
4235,58.0,0.0,120.0,0.0,0.0
4236,77.0,120.0,120.0,0.0,0.0
4237,47.0,120.0,120.0,0.0,0.0
4238,80.0,0.0,120.0,0.0,0.0
4239,57.0,120.0,120.0,0.0,0.0
4240,78.0,0.0,120.0,0.0,0.0
4241,51.0,0.0,120.0,0.0,0.0
4242,77.0,120.0,120.0,0.0,0.0
4243,57.0,60.0,120.0,0.0,0.0
4244,75.0,0.0,120.0,0.0,0.0
4245,46.0,0.0,480.0,0.0,0.0
4246,58.0,120.0,480.0,0.0,0.0
4247,74.0,180.0,60.0,0.0,0.0
4248,70.0,120.0,120.0,0.0,0.0
4249,82.0,120.0,120.0,0.0,0.0
4250,81.0,0.0,120.0,0.0,0.0
4251,82.0,120.0,120.0,0.0,0.0
4252,81.0,120.0,120.0,0.0,0.0
4253,82.0,120.0,120.0,0.0,0.0
4254,81.0,120.0,120.0,0.0,0.0
4255,82.0,120.0,120.0,0.0,0.0
4256,83.0,120.0,120.0,0.0,0.0
4257,80.0,120.0,120.0,0.0,0.0
4258,82.0,120.0,120.0,0.0,0.0
4259,78.0,120.0,120.0,0.0,0.0
4260,58.0,0.0,480.0,0.0,0.0
4261,62.0,120.0,480.0,0.0,0.0
4262,80.0,120.0,120.0,0.0,0.0
4263,77.0,120.0,120.0,0.0,0.0
4264,78.0,0.0,120.0,0.0,0.0
4265,59.0,0.0,480.0,0.0,0.0
4266,63.0,120.0,480.0,0.0,0.0
4267,75.0,120.0,120.0,0.0,0.0
4268,77.0,120.0,120.0,0.0,0.0
4269,73.0,120.0,120.0,0.0,0.0
4270,75.0,0.0,120.0,0.0,0.0
4271,71.0,120.0,120.0,0.0,0.0
4272,73.0,120.0,120.0,0.0,0.0
4273,70.0,120.0,120.0,0.0,0.0
4274,71.0,120.0,120.0,0.0,0.0
4275,69.0,360.0,120.0,0.0,0.0
4276,78.0,240.0,240.0,0.0,0.0
4277,47.0,0.0,480.0,0.0,0.0
4278,77.0,240.0,240.0,0.0,0.0
4279,57.0,0.0,480.0,0.0,0.0
4280,75.0,60.0,240.0,0.0,0.0
4281,46.0,120.0,480.0,0.0,0.0
4282,58.0,0.0,480.0,0.0,0.0
4283,74.0,180.0,60.0,0.0,0.0
4284,69.0,120.0,120.0,0.0,0.0
4285,70.0,120.0,120.0,0.0,0.0
4286,69.0,0.0,120.0,0.0,0.0
4287,70.0,120.0,120.0,0.0,0.0
4288,69.0,120.0,120.0,0.0,0.0
4289,70.0,120.0,120.0,0.0,0.0
4290,69.0,120.0,120.0,0.0,0.0
4291,70.0,120.0,120.0,0.0,0.0
4292,71.0,120.0,120.0,0.0,0.0
4293,68.0,120.0,120.0,0.0,0.0
4294,70.0,120.0,120.0,0.0,0.0
4295,46.0,0.0,480.0,0.0,0.0
4296,56.0,0.0,480.0,0.0,0.0
4297,66.0,120.0,120.0,0.0,0.0
4298,68.0,120.0,120.0,0.0,0.0
4299,65.0,120.0,120.0,0.0,0.0
4300,66.0,120.0,120.0,0.0,0.0
4301,47.0,0.0,480.0,0.0,0.0
4302,54.0,120.0,480.0,0.0,0.0
4303,63.0,120.0,120.0,0.0,0.0
4304,65.0,120.0,120.0,0.0,0.0
4305,61.0,120.0,120.0,0.0,0.0
4306,63.0,0.0,120.0,0.0,0.0
4307,59.0,120.0,120.0,0.0,0.0
4308,61.0,120.0,120.0,0.0,0.0
4309,58.0,120.0,120.0,0.0,0.0
4310,59.0,120.0,120.0,0.0,0.0
4311,57.0,360.0,120.0,0.0,0.0
4312,63.0,240.0,240.0,0.0,0.0
4313,66.0,240.0,240.0,0.0,0.0
4314,51.0,0.0,480.0,0.0,0.0
4315,47.0,0.0,480.0,0.0,0.0
4316,57.0,120.0,240.0,0.0,0.0
4317,58.0,120.0,120.0,0.0,0.0
4318,46.0,0.0,240.0,0.0,0.0
4319,50.0,120.0,240.0,0.0,0.0
4320,70.0,360.0,120.0,0.0,0.0
4321,54.0,240.0,240.0,0.0,0.0
4322,51.0,0.0,240.0,0.0,0.0
4323,46.0,0.0,240.0,0.0,0.0
4324,70.0,240.0,240.0,0.0,0.0
4325,46.0,240.0,240.0,0.0,0.0
4326,50.0,0.0,240.0,0.0,0.0
4327,53.0,0.0,240.0,0.0,0.0
4328,70.0,240.0,240.0,0.0,0.0
4329,46.0,0.0,240.0,0.0,0.0
4330,51.0,240.0,240.0,0.0,0.0
4331,54.0,0.0,240.0,0.0,0.0
4332,70.0,480.0,240.0,0.0,0.0
4333,50.0,240.0,480.0,0.0,0.0
4334,53.0,0.0,480.0,0.0,0.0
4335,46.0,0.0,480.0,0.0,0.0
4336,70.0,0.0,240.0,0.0,0.0
4337,69.0,240.0,240.0,0.0,0.0
4338,70.0,240.0,240.0,0.0,0.0
4339,69.0,240.0,240.0,0.0,0.0
4340,70.0,240.0,240.0,0.0,0.0
4341,69.0,240.0,240.0,0.0,0.0
4342,70.0,480.0,240.0,0.0,0.0
4343,73.0,0.0,480.0,0.0,0.0
4344,61.0,0.0,240.0,0.0,0.0
4345,65.0,0.0,240.0,0.0,0.0
4346,56.0,240.0,15.0,0.0,0.0
4347,65.0,0.0,240.0,0.0,0.0
4348,61.0,0.0,240.0,0.0,0.0
4349,71.0,0.0,480.0,0.0,0.0
4350,61.0,0.0,240.0,0.0,0.0
4351,65.0,240.0,240.0,0.0,0.0
4352,61.0,0.0,480.0,0.0,0.0
4353,56.0,0.0,15.0,0.0,0.0
4354,65.0,120.0,480.0,0.0,0.0
4355,71.0,120.0,120.0,0.0,0.0
4356,70.0,120.0,120.0,0.0,0.0
4357,71.0,0.0,120.0,0.0,0.0
4358,70.0,120.0,120.0,0.0,0.0
4359,71.0,120.0,120.0,0.0,0.0
4360,70.0,120.0,120.0,0.0,0.0
4361,71.0,480.0,120.0,0.0,0.0
4362,78.0,240.0,480.0,0.0,0.0
4363,61.0,0.0,240.0,0.0,0.0
4364,71.0,0.0,240.0,0.0,0.0
4365,68.0,0.0,240.0,0.0,0.0
4366,68.0,0.0,240.0,0.0,0.0
4367,77.0,0.0,480.0,0.0,0.0
4368,71.0,240.0,15.0,0.0,0.0
4369,61.0,0.0,15.0,0.0,0.0
4370,68.0,0.0,240.0,0.0,0.0
4371,61.0,240.0,15.0,0.0,0.0
4372,71.0,0.0,15.0,0.0,0.0
4373,68.0,0.0,480.0,0.0,0.0
4374,77.0,120.0,120.0,0.0,0.0
4375,75.0,120.0,120.0,0.0,0.0
4376,77.0,0.0,120.0,0.0,0.0
4377,78.0,120.0,120.0,0.0,0.0
4378,77.0,120.0,120.0,0.0,0.0
4379,75.0,120.0,120.0,0.0,0.0
4380,77.0,480.0,120.0,0.0,0.0
4381,85.0,0.0,480.0,0.0,0.0
4382,61.0,240.0,240.0,0.0,0.0
4383,83.0,240.0,480.0,0.0,0.0
4384,71.0,240.0,240.0,0.0,0.0
4385,75.0,0.0,240.0,0.0,0.0
4386,62.0,480.0,960.0,0.0,0.0
4387,83.0,120.0,120.0,0.0,0.0
4388,82.0,120.0,120.0,0.0,0.0
4389,83.0,120.0,120.0,0.0,0.0
4390,85.0,120.0,120.0,0.0,0.0
4391,83.0,120.0,120.0,0.0,0.0
4392,81.0,120.0,120.0,0.0,0.0
4393,80.0,0.0,120.0,0.0,0.0
4394,78.0,240.0,480.0,0.0,0.0
4395,61.0,0.0,240.0,0.0,0.0
4396,68.0,240.0,240.0,0.0,0.0
4397,77.0,240.0,480.0,0.0,0.0
4398,71.0,0.0,240.0,0.0,0.0
4399,62.0,120.0,960.0,0.0,0.0
4400,83.0,120.0,120.0,0.0,0.0
4401,82.0,120.0,120.0,0.0,0.0
4402,83.0,120.0,120.0,0.0,0.0
4403,85.0,120.0,120.0,0.0,0.0
4404,83.0,120.0,120.0,0.0,0.0
4405,81.0,120.0,120.0,0.0,0.0
4406,80.0,0.0,120.0,0.0,0.0
4407,61.0,120.0,240.0,0.0,0.0
4408,78.0,120.0,120.0,0.0,0.0
4409,77.0,0.0,120.0,0.0,0.0
4410,83.0,120.0,120.0,0.0,0.0
4411,82.0,120.0,120.0,0.0,0.0
4412,62.0,120.0,480.0,0.0,0.0
4413,85.0,120.0,120.0,0.0,0.0
4414,83.0,120.0,120.0,0.0,0.0
4415,81.0,120.0,120.0,0.0,0.0
4416,80.0,0.0,120.0,0.0,0.0
4417,61.0,120.0,480.0,0.0,0.0
4418,78.0,120.0,120.0,0.0,0.0
4419,77.0,120.0,120.0,0.0,0.0
4420,83.0,120.0,120.0,0.0,0.0
4421,82.0,0.0,120.0,0.0,0.0
4422,62.0,0.0,480.0,0.0,0.0
4423,71.0,0.0,15.0,0.0,0.0
4424,68.0,0.0,15.0,0.0,0.0
4425,85.0,120.0,120.0,0.0,0.0
4426,83.0,120.0,120.0,0.0,0.0
4427,81.0,120.0,120.0,0.0,0.0
4428,80.0,120.0,120.0,0.0,0.0
4429,78.0,120.0,120.0,0.0,0.0
4430,61.0,0.0,480.0,0.0,0.0
4431,77.0,120.0,120.0,0.0,0.0
4432,80.0,120.0,120.0,0.0,0.0
4433,79.0,120.0,120.0,0.0,0.0
4434,82.0,120.0,120.0,0.0,0.0
4435,80.0,120.0,120.0,0.0,0.0
4436,78.0,120.0,120.0,0.0,0.0
4437,77.0,120.0,120.0,0.0,0.0
4438,75.0,120.0,120.0,0.0,0.0
4439,73.0,120.0,120.0,0.0,0.0
4440,75.0,120.0,120.0,0.0,0.0
4441,74.0,120.0,120.0,0.0,0.0
4442,77.0,120.0,120.0,0.0,0.0
4443,75.0,120.0,120.0,0.0,0.0
4444,73.0,120.0,120.0,0.0,0.0
4445,71.0,240.0,120.0,0.0,0.0
4446,70.0,240.0,240.0,0.0,0.0
4447,68.0,120.0,240.0,0.0,0.0
4448,70.0,240.0,120.0,0.0,0.0
4449,71.0,240.0,120.0,0.0,0.0
4450,72.0,240.0,120.0,0.0,0.0
4451,73.0,240.0,120.0,0.0,0.0
4452,75.0,120.0,120.0,0.0,0.0
4453,73.0,120.0,120.0,0.0,0.0
4454,71.0,120.0,120.0,0.0,0.0
4455,70.0,240.0,120.0,0.0,0.0
4456,68.0,240.0,240.0,0.0,0.0
4457,66.0,0.0,240.0,0.0,0.0
4458,54.0,240.0,240.0,0.0,0.0
4459,58.0,240.0,240.0,0.0,0.0
4460,66.0,240.0,720.0,0.0,0.0
4461,61.0,240.0,240.0,0.0,0.0
4462,58.0,0.0,240.0,0.0,0.0
4463,70.0,0.0,240.0,0.0,0.0
4464,54.0,240.0,240.0,0.0,0.0
4465,58.0,0.0,240.0,0.0,0.0
4466,75.0,240.0,240.0,0.0,0.0
4467,70.0,0.0,240.0,0.0,0.0
4468,63.0,480.0,240.0,0.0,0.0
4469,73.0,240.0,480.0,0.0,0.0
4470,56.0,0.0,240.0,0.0,0.0
4471,59.0,240.0,240.0,0.0,0.0
4472,71.0,0.0,720.0,0.0,0.0
4473,63.0,240.0,240.0,0.0,0.0
4474,59.0,120.0,240.0,0.0,0.0
4475,73.0,120.0,120.0,0.0,0.0
4476,56.0,120.0,240.0,0.0,0.0
4477,75.0,0.0,120.0,0.0,0.0
4478,73.0,120.0,120.0,0.0,0.0
4479,59.0,0.0,240.0,0.0,0.0
4480,71.0,120.0,120.0,0.0,0.0
4481,63.0,0.0,240.0,0.0,0.0
4482,70.0,120.0,120.0,0.0,0.0
4483,68.0,480.0,120.0,0.0,0.0
4484,66.0,0.0,480.0,0.0,0.0
4485,49.0,240.0,240.0,0.0,0.0
4486,56.0,240.0,240.0,0.0,0.0
4487,59.0,240.0,240.0,0.0,0.0
4488,56.0,0.0,240.0,0.0,0.0
4489,65.0,240.0,15.0,0.0,0.0
4490,49.0,240.0,240.0,0.0,0.0
4491,56.0,0.0,240.0,0.0,0.0
4492,66.0,240.0,240.0,0.0,0.0
4493,59.0,0.0,240.0,0.0,0.0
4494,65.0,240.0,480.0,0.0,0.0
4495,68.0,480.0,15.0,0.0,0.0
4496,54.0,0.0,240.0,0.0,0.0
4497,58.0,240.0,240.0,0.0,0.0
4498,70.0,240.0,480.0,0.0,0.0
4499,66.0,0.0,480.0,0.0,0.0
4500,61.0,0.0,240.0,0.0,0.0
4501,58.0,120.0,240.0,0.0,0.0
4502,73.0,120.0,120.0,0.0,0.0
4503,54.0,120.0,240.0,0.0,0.0
4504,72.0,0.0,120.0,0.0,0.0
4505,75.0,120.0,120.0,0.0,0.0
4506,58.0,120.0,240.0,0.0,0.0
4507,73.0,0.0,120.0,0.0,0.0
4508,61.0,240.0,240.0,0.0,0.0
4509,71.0,120.0,120.0,0.0,0.0
4510,70.0,0.0,15.0,0.0,0.0
4511,59.0,0.0,240.0,0.0,0.0
4512,68.0,240.0,480.0,0.0,0.0
4513,63.0,240.0,240.0,0.0,0.0
4514,58.0,0.0,240.0,0.0,0.0
4515,66.0,240.0,240.0,0.0,0.0
4516,61.0,0.0,240.0,0.0,0.0
4517,59.0,240.0,240.0,0.0,0.0
4518,70.0,0.0,240.0,0.0,0.0
4519,68.0,240.0,480.0,0.0,0.0
4520,63.0,240.0,240.0,0.0,0.0
4521,56.0,0.0,240.0,0.0,0.0
4522,59.0,0.0,240.0,0.0,0.0
4523,65.0,120.0,240.0,0.0,0.0
4524,61.0,0.0,480.0,0.0,0.0
4525,58.0,0.0,480.0,0.0,0.0
4526,66.0,120.0,120.0,0.0,0.0
4527,68.0,120.0,120.0,0.0,0.0
4528,66.0,120.0,120.0,0.0,0.0
4529,65.0,120.0,120.0,0.0,0.0
4530,66.0,120.0,120.0,0.0,0.0
4531,68.0,120.0,120.0,0.0,0.0
4532,70.0,120.0,120.0,0.0,0.0
4533,71.0,120.0,120.0,0.0,0.0
4534,72.0,120.0,120.0,0.0,0.0
4535,73.0,120.0,120.0,0.0,0.0
4536,72.0,120.0,120.0,0.0,0.0
4537,73.0,120.0,120.0,0.0,0.0
4538,75.0,120.0,120.0,0.0,0.0
4539,73.0,120.0,120.0,0.0,0.0
4540,71.0,120.0,120.0,0.0,0.0
4541,59.0,240.0,240.0,0.0,0.0
4542,70.0,240.0,15.0,0.0,0.0
4543,63.0,240.0,240.0,0.0,0.0
4544,68.0,0.0,15.0,0.0,0.0
4545,58.0,0.0,240.0,0.0,0.0
4546,61.0,240.0,240.0,0.0,0.0
4547,66.0,0.0,240.0,0.0,0.0
4548,59.0,240.0,240.0,0.0,0.0
4549,70.0,0.0,240.0,0.0,0.0
4550,63.0,0.0,240.0,0.0,0.0
4551,68.0,240.0,15.0,0.0,0.0
4552,56.0,240.0,240.0,0.0,0.0
4553,65.0,240.0,240.0,0.0,0.0
4554,59.0,0.0,240.0,0.0,0.0
4555,61.0,120.0,480.0,0.0,0.0
4556,58.0,0.0,480.0,0.0,0.0
4557,66.0,120.0,240.0,0.0,0.0
4558,68.0,120.0,120.0,0.0,0.0
4559,70.0,0.0,120.0,0.0,0.0
4560,71.0,120.0,120.0,0.0,0.0
4561,73.0,120.0,120.0,0.0,0.0
4562,75.0,120.0,120.0,0.0,0.0
4563,77.0,120.0,120.0,0.0,0.0
4564,78.0,120.0,120.0,0.0,0.0
4565,80.0,120.0,120.0,0.0,0.0
4566,82.0,120.0,120.0,0.0,0.0
4567,83.0,120.0,120.0,0.0,0.0
4568,85.0,240.0,120.0,0.0,0.0
4569,85.0,360.0,120.0,0.0,0.0
4570,53.0,240.0,480.0,0.0,0.0
4571,85.0,240.0,240.0,0.0,0.0
4572,73.0,0.0,1200.0,0.0,0.0
4573,83.0,240.0,480.0,0.0,0.0
4574,54.0,240.0,480.0,0.0,0.0
4575,82.0,0.0,240.0,0.0,0.0
4576,47.0,120.0,480.0,0.0,0.0
4577,82.0,120.0,240.0,0.0,0.0
4578,71.0,120.0,120.0,0.0,0.0
4579,80.0,0.0,120.0,0.0,0.0
4580,78.0,0.0,120.0,0.0,0.0
4581,49.0,240.0,480.0,0.0,0.0
4582,70.0,240.0,120.0,0.0,0.0
4583,68.0,0.0,120.0,0.0,0.0
4584,77.0,120.0,120.0,0.0,0.0
4585,78.0,0.0,240.0,0.0,0.0
4586,70.0,120.0,240.0,0.0,0.0
4587,42.0,240.0,120.0,0.0,0.0
4588,46.0,120.0,120.0,0.0,0.0
4589,66.0,120.0,240.0,0.0,0.0
4590,49.0,600.0,120.0,0.0,0.0
4591,54.0,120.0,480.0,0.0,0.0
4592,63.0,120.0,120.0,0.0,0.0
4593,61.0,120.0,120.0,0.0,0.0
4594,59.0,120.0,120.0,0.0,0.0
4595,58.0,240.0,120.0,0.0,0.0
4596,56.0,240.0,240.0,0.0,0.0
4597,54.0,0.0,240.0,0.0,0.0
4598,42.0,240.0,240.0,0.0,0.0
4599,54.0,0.0,720.0,0.0,0.0
4600,46.0,240.0,240.0,0.0,0.0
4601,49.0,240.0,240.0,0.0,0.0
4602,46.0,120.0,240.0,0.0,0.0
4603,42.0,240.0,240.0,0.0,0.0
4604,66.0,120.0,120.0,0.0,0.0
4605,66.0,240.0,240.0,0.0,0.0
4606,46.0,0.0,240.0,0.0,0.0
4607,49.0,240.0,240.0,0.0,0.0
4608,68.0,0.0,240.0,0.0,0.0
4609,66.0,240.0,240.0,0.0,0.0
4610,42.0,240.0,240.0,0.0,0.0
4611,65.0,0.0,240.0,0.0,0.0
4612,46.0,240.0,240.0,0.0,0.0
4613,64.0,240.0,720.0,0.0,0.0
4614,49.0,240.0,240.0,0.0,0.0
4615,46.0,0.0,240.0,0.0,0.0
4616,42.0,240.0,240.0,0.0,0.0
4617,64.0,0.0,15.0,0.0,0.0
4618,46.0,240.0,240.0,0.0,0.0
4619,64.0,0.0,15.0,0.0,0.0
4620,49.0,120.0,240.0,0.0,0.0
4621,76.0,120.0,120.0,0.0,0.0
4622,78.0,120.0,120.0,0.0,0.0
4623,75.0,120.0,120.0,0.0,0.0
4624,42.0,120.0,240.0,0.0,0.0
4625,76.0,0.0,120.0,0.0,0.0
4626,73.0,120.0,120.0,0.0,0.0
4627,46.0,0.0,240.0,0.0,0.0
4628,75.0,120.0,120.0,0.0,0.0
4629,49.0,120.0,240.0,0.0,0.0
4630,71.0,120.0,120.0,0.0,0.0
4631,73.0,0.0,120.0,0.0,0.0
4632,70.0,120.0,120.0,0.0,0.0
4633,52.0,120.0,240.0,0.0,0.0
4634,71.0,0.0,120.0,0.0,0.0
4635,68.0,120.0,120.0,0.0,0.0
4636,49.0,0.0,240.0,0.0,0.0
4637,70.0,120.0,120.0,0.0,0.0
4638,66.0,120.0,120.0,0.0,0.0
4639,46.0,0.0,240.0,0.0,0.0
4640,68.0,120.0,120.0,0.0,0.0
4641,42.0,240.0,240.0,0.0,0.0
4642,64.0,120.0,120.0,0.0,0.0
4643,66.0,0.0,120.0,0.0,0.0
4644,64.0,240.0,240.0,0.0,0.0
4645,43.0,0.0,240.0,0.0,0.0
4646,46.0,240.0,240.0,0.0,0.0
4647,63.0,240.0,15.0,0.0,0.0
4648,49.0,240.0,240.0,0.0,0.0
4649,51.0,120.0,240.0,0.0,0.0
4650,75.0,120.0,120.0,0.0,0.0
4651,49.0,240.0,240.0,0.0,0.0
4652,75.0,0.0,240.0,0.0,0.0
4653,46.0,240.0,240.0,0.0,0.0
4654,43.0,240.0,240.0,0.0,0.0
4655,73.0,0.0,15.0,0.0,0.0
4656,72.0,0.0,240.0,0.0,0.0
4657,54.0,240.0,240.0,0.0,0.0
4658,57.0,240.0,240.0,0.0,0.0
4659,72.0,120.0,720.0,0.0,0.0
4660,60.0,240.0,240.0,0.0,0.0
4661,63.0,240.0,480.0,0.0,0.0
4662,81.0,120.0,120.0,0.0,0.0
4663,81.0,240.0,240.0,0.0,0.0
4664,72.0,240.0,240.0,0.0,0.0
4665,75.0,240.0,240.0,0.0,0.0
4666,53.0,0.0,240.0,0.0,0.0
4667,73.0,240.0,240.0,0.0,0.0
4668,56.0,240.0,240.0,0.0,0.0
4669,73.0,240.0,720.0,0.0,0.0
4670,61.0,240.0,240.0,0.0,0.0
4671,65.0,0.0,480.0,0.0,0.0
4672,74.0,240.0,240.0,0.0,0.0
4673,75.0,240.0,240.0,0.0,0.0
4674,71.0,240.0,240.0,0.0,0.0
4675,69.0,240.0,240.0,0.0,0.0
4676,54.0,240.0,240.0,0.0,0.0
4677,70.0,0.0,240.0,0.0,0.0
4678,70.0,0.0,480.0,0.0,0.0
4679,58.0,240.0,240.0,0.0,0.0
4680,61.0,480.0,240.0,0.0,0.0
4681,66.0,0.0,480.0,0.0,0.0
4682,73.0,120.0,240.0,0.0,0.0
4683,75.0,120.0,120.0,0.0,0.0
4684,73.0,120.0,120.0,0.0,0.0
4685,71.0,120.0,120.0,0.0,0.0
4686,70.0,240.0,120.0,0.0,0.0
4687,68.0,0.0,720.0,0.0,0.0
4688,59.0,240.0,240.0,0.0,0.0
4689,63.0,240.0,240.0,0.0,0.0
4690,59.0,240.0,240.0,0.0,0.0
4691,65.0,60.0,240.0,0.0,0.0
4692,61.0,0.0,240.0,0.0,0.0
4693,66.0,180.0,60.0,0.0,0.0
4694,58.0,120.0,240.0,0.0,0.0
4695,73.0,0.0,120.0,0.0,0.0
4696,61.0,0.0,240.0,0.0,0.0
4697,72.0,120.0,120.0,0.0,0.0
4698,73.0,120.0,120.0,0.0,0.0
4699,58.0,120.0,240.0,0.0,0.0
4700,75.0,120.0,120.0,0.0,0.0
4701,73.0,0.0,120.0,0.0,0.0
4702,61.0,0.0,240.0,0.0,0.0
4703,71.0,120.0,120.0,0.0,0.0
4704,70.0,120.0,120.0,0.0,0.0
4705,59.0,240.0,240.0,0.0,0.0
4706,68.0,120.0,120.0,0.0,0.0
4707,68.0,240.0,480.0,0.0,0.0
4708,61.0,240.0,240.0,0.0,0.0
4709,59.0,0.0,240.0,0.0,0.0
4710,61.0,60.0,240.0,0.0,0.0
4711,65.0,0.0,240.0,0.0,0.0
4712,58.0,120.0,240.0,0.0,0.0
4713,66.0,180.0,60.0,0.0,0.0
4714,73.0,0.0,120.0,0.0,0.0
4715,61.0,0.0,240.0,0.0,0.0
4716,72.0,120.0,120.0,0.0,0.0
4717,73.0,120.0,120.0,0.0,0.0
4718,58.0,120.0,240.0,0.0,0.0
4719,75.0,120.0,120.0,0.0,0.0
4720,73.0,0.0,120.0,0.0,0.0
4721,61.0,240.0,240.0,0.0,0.0
4722,71.0,120.0,120.0,0.0,0.0
4723,70.0,0.0,120.0,0.0,0.0
4724,59.0,240.0,240.0,0.0,0.0
4725,70.0,0.0,240.0,0.0,0.0
4726,68.0,0.0,240.0,0.0,0.0
4727,63.0,240.0,240.0,0.0,0.0
4728,59.0,240.0,240.0,0.0,0.0
4729,63.0,240.0,240.0,0.0,0.0
4730,68.0,0.0,240.0,0.0,0.0
4731,68.0,240.0,240.0,0.0,0.0
4732,60.0,0.0,240.0,0.0,0.0
4733,63.0,240.0,240.0,0.0,0.0
4734,66.0,0.0,240.0,0.0,0.0
4735,60.0,240.0,240.0,0.0,0.0
4736,63.0,0.0,240.0,0.0,0.0
4737,66.0,120.0,240.0,0.0,0.0
4738,65.0,120.0,120.0,0.0,0.0
4739,49.0,120.0,480.0,0.0,0.0
4740,66.0,120.0,120.0,0.0,0.0
4741,65.0,120.0,120.0,0.0,0.0
4742,61.0,0.0,120.0,0.0,0.0
4743,51.0,120.0,480.0,0.0,0.0
4744,66.0,120.0,120.0,0.0,0.0
4745,68.0,120.0,120.0,0.0,0.0
4746,66.0,120.0,120.0,0.0,0.0
4747,61.0,0.0,120.0,0.0,0.0
4748,53.0,120.0,480.0,0.0,0.0
4749,68.0,120.0,120.0,0.0,0.0
4750,70.0,120.0,120.0,0.0,0.0
4751,68.0,120.0,120.0,0.0,0.0
4752,61.0,0.0,120.0,0.0,0.0
4753,70.0,120.0,120.0,0.0,0.0
4754,54.0,0.0,480.0,0.0,0.0
4755,71.0,120.0,120.0,0.0,0.0
4756,70.0,120.0,120.0,0.0,0.0
4757,61.0,120.0,120.0,0.0,0.0
4758,71.0,120.0,120.0,0.0,0.0
4759,56.0,120.0,240.0,0.0,0.0
4760,71.0,120.0,120.0,0.0,0.0
4761,61.0,240.0,240.0,0.0,0.0
4762,53.0,120.0,240.0,0.0,0.0
4763,68.0,120.0,120.0,0.0,0.0
4764,61.0,240.0,240.0,0.0,0.0
4765,71.0,0.0,240.0,0.0,0.0
4766,54.0,120.0,240.0,0.0,0.0
4767,70.0,120.0,120.0,0.0,0.0
4768,61.0,120.0,240.0,0.0,0.0
4769,68.0,120.0,120.0,0.0,0.0
4770,51.0,120.0,240.0,0.0,0.0
4771,66.0,120.0,120.0,0.0,0.0
4772,61.0,120.0,240.0,0.0,0.0
4773,65.0,120.0,120.0,0.0,0.0
4774,49.0,0.0,480.0,0.0,0.0
4775,61.0,120.0,120.0,0.0,0.0
4776,72.0,120.0,120.0,0.0,0.0
4777,73.0,120.0,120.0,0.0,0.0
4778,51.0,0.0,480.0,0.0,0.0
4779,66.0,120.0,120.0,0.0,0.0
4780,61.0,120.0,120.0,0.0,0.0
4781,72.0,120.0,120.0,0.0,0.0
4782,73.0,120.0,120.0,0.0,0.0
4783,53.0,0.0,480.0,0.0,0.0
4784,68.0,120.0,120.0,0.0,0.0
4785,61.0,120.0,120.0,0.0,0.0
4786,72.0,120.0,120.0,0.0,0.0
4787,73.0,120.0,120.0,0.0,0.0
4788,70.0,120.0,120.0,0.0,0.0
4789,54.0,0.0,480.0,0.0,0.0
4790,61.0,120.0,120.0,0.0,0.0
4791,72.0,120.0,120.0,0.0,0.0
4792,73.0,120.0,120.0,0.0,0.0
4793,71.0,120.0,120.0,0.0,0.0
4794,56.0,0.0,120.0,0.0,0.0
4795,61.0,120.0,120.0,0.0,0.0
4796,71.0,120.0,120.0,0.0,0.0
4797,60.0,0.0,120.0,0.0,0.0
4798,61.0,120.0,120.0,0.0,0.0
4799,53.0,120.0,120.0,0.0,0.0
4800,61.0,60.0,120.0,0.0,0.0
4801,60.0,60.0,120.0,0.0,0.0
4802,70.0,60.0,60.0,0.0,0.0
4803,68.0,0.0,60.0,0.0,0.0
4804,61.0,120.0,120.0,0.0,0.0
4805,67.0,60.0,60.0,0.0,0.0
4806,68.0,0.0,60.0,0.0,0.0
4807,71.0,120.0,240.0,0.0,0.0
4808,54.0,120.0,120.0,0.0,0.0
4809,61.0,0.0,120.0,0.0,0.0
4810,60.0,120.0,120.0,0.0,0.0
4811,70.0,0.0,120.0,0.0,0.0
4812,61.0,120.0,120.0,0.0,0.0
4813,68.0,0.0,120.0,0.0,0.0
4814,51.0,120.0,120.0,0.0,0.0
4815,60.0,120.0,120.0,0.0,0.0
4816,66.0,0.0,120.0,0.0,0.0
4817,58.0,120.0,120.0,0.0,0.0
4818,60.0,120.0,120.0,0.0,0.0
4819,49.0,0.0,480.0,0.0,0.0
4820,65.0,120.0,120.0,0.0,0.0
4821,73.0,120.0,120.0,0.0,0.0
4822,68.0,120.0,120.0,0.0,0.0
4823,65.0,0.0,120.0,0.0,0.0
4824,61.0,120.0,15.0,0.0,0.0
4825,56.0,120.0,120.0,0.0,0.0
4826,53.0,120.0,120.0,0.0,0.0
4827,49.0,240.0,120.0,0.0,0.0
4828,25.0,1440.0,240.0,0.0,0.0
4829,37.0,0.0,240.0,0.0,0.0
4830,30.0,0.0,960.0,0.0,0.0
4831,49.0,120.0,720.0,0.0,0.0
4832,54.0,0.0,720.0,0.0,0.0
4833,58.0,0.0,720.0,0.0,0.0
4834,61.0,0.0,720.0,0.0,0.0
4835,42.0,120.0,960.0,0.0,0.0
4836,63.0,120.0,120.0,0.0,0.0
4837,61.0,0.0,120.0,0.0,0.0
4838,59.0,240.0,120.0,0.0,0.0
4839,58.0,240.0,120.0,0.0,0.0
4840,56.0,240.0,120.0,0.0,0.0
4841,54.0,360.0,120.0,0.0,0.0
4842,54.0,240.0,240.0,0.0,0.0
4843,63.0,720.0,240.0,0.0,0.0
4844,35.0,0.0,960.0,0.0,0.0
4845,47.0,0.0,960.0,0.0,0.0
4846,54.0,240.0,720.0,0.0,0.0
4847,63.0,0.0,720.0,0.0,0.0
4848,61.0,240.0,240.0,0.0,0.0
4849,46.0,240.0,480.0,0.0,0.0
4850,65.0,240.0,240.0,0.0,0.0
4851,66.0,0.0,240.0,0.0,0.0
4852,51.0,240.0,480.0,0.0,0.0
4853,48.0,0.0,480.0,0.0,0.0
4854,66.0,240.0,240.0,0.0,0.0
4855,56.0,240.0,480.0,0.0,0.0
4856,49.0,240.0,480.0,0.0,0.0
4857,58.0,0.0,240.0,0.0,0.0
4858,48.0,0.0,480.0,0.0,0.0
4859,51.0,240.0,480.0,0.0,0.0
4860,66.0,240.0,240.0,0.0,0.0
4861,56.0,240.0,480.0,0.0,0.0
4862,49.0,0.0,480.0,0.0,0.0
4863,58.0,480.0,240.0,0.0,0.0
4864,51.0,60.0,480.0,0.0,0.0
4865,61.0,0.0,480.0,0.0,0.0
4866,53.0,120.0,480.0,0.0,0.0
4867,61.0,60.0,60.0,0.0,0.0
4868,59.0,60.0,60.0,0.0,0.0
4869,61.0,60.0,60.0,0.0,0.0
4870,59.0,60.0,60.0,0.0,0.0
4871,61.0,60.0,60.0,0.0,0.0
4872,59.0,60.0,60.0,0.0,0.0
4873,58.0,60.0,60.0,0.0,0.0
4874,59.0,0.0,60.0,0.0,0.0
4875,54.0,240.0,480.0,0.0,0.0
4876,58.0,360.0,120.0,0.0,0.0
4877,58.0,0.0,240.0,0.0,0.0
4878,59.0,240.0,240.0,0.0,0.0
4879,61.0,240.0,240.0,0.0,0.0
4880,62.0,240.0,240.0,0.0,0.0
4881,63.0,120.0,480.0,0.0,0.0
4882,35.0,240.0,240.0,0.0,0.0
4883,39.0,0.0,240.0,0.0,0.0
4884,61.0,120.0,120.0,0.0,0.0
4885,44.0,240.0,240.0,0.0,0.0
4886,59.0,0.0,120.0,0.0,0.0
4887,58.0,240.0,240.0,0.0,0.0
4888,47.0,0.0,480.0,0.0,0.0
4889,56.0,240.0,240.0,0.0,0.0
4890,58.0,240.0,240.0,0.0,0.0
4891,59.0,240.0,240.0,0.0,0.0
4892,63.0,240.0,240.0,0.0,0.0
4893,34.0,240.0,240.0,0.0,0.0
4894,61.0,0.0,480.0,0.0,0.0
4895,37.0,120.0,240.0,0.0,0.0
4896,59.0,120.0,120.0,0.0,0.0
4897,42.0,0.0,240.0,0.0,0.0
4898,58.0,240.0,120.0,0.0,0.0
4899,46.0,240.0,480.0,0.0,0.0
4900,56.0,240.0,240.0,0.0,0.0
4901,54.0,0.0,240.0,0.0,0.0
4902,56.0,240.0,240.0,0.0,0.0
4903,58.0,240.0,240.0,0.0,0.0
4904,61.0,240.0,240.0,0.0,0.0
4905,44.0,240.0,480.0,0.0,0.0
4906,59.0,240.0,480.0,0.0,0.0
4907,41.0,240.0,480.0,0.0,0.0
4908,56.0,0.0,240.0,0.0,0.0
4909,59.0,240.0,240.0,0.0,0.0
4910,42.0,240.0,480.0,0.0,0.0
4911,58.0,240.0,480.0,0.0,0.0
4912,39.0,0.0,480.0,0.0,0.0
4913,54.0,120.0,240.0,0.0,0.0
4914,37.0,0.0,480.0,0.0,0.0
4915,53.0,120.0,120.0,0.0,0.0
4916,54.0,120.0,120.0,0.0,0.0
4917,55.0,120.0,120.0,0.0,0.0
4918,56.0,120.0,120.0,0.0,0.0
4919,57.0,120.0,120.0,0.0,0.0
4920,58.0,120.0,120.0,0.0,0.0
4921,59.0,120.0,120.0,0.0,0.0
4922,60.0,120.0,120.0,0.0,0.0
4923,49.0,120.0,120.0,0.0,0.0
4924,61.0,120.0,480.0,0.0,0.0
4925,51.0,120.0,120.0,0.0,0.0
4926,47.0,120.0,120.0,0.0,0.0
4927,49.0,0.0,120.0,0.0,0.0
4928,46.0,120.0,120.0,0.0,0.0
4929,47.0,120.0,120.0,0.0,0.0
4930,44.0,120.0,120.0,0.0,0.0
4931,46.0,480.0,120.0,0.0,0.0
4932,42.0,240.0,480.0,0.0,0.0
4933,66.0,0.0,720.0,0.0,0.0
4934,70.0,120.0,720.0,0.0,0.0
4935,73.0,0.0,720.0,0.0,0.0
4936,61.0,0.0,720.0,0.0,0.0
4937,54.0,0.0,480.0,0.0,0.0
4938,75.0,120.0,120.0,0.0,0.0
4939,73.0,120.0,120.0,0.0,0.0
4940,71.0,240.0,120.0,0.0,0.0
4941,70.0,240.0,120.0,0.0,0.0
4942,68.0,240.0,120.0,0.0,0.0
4943,66.0,360.0,120.0,0.0,0.0
4944,66.0,240.0,240.0,0.0,0.0
4945,47.0,0.0,960.0,0.0,0.0
4946,59.0,240.0,960.0,0.0,0.0
4947,66.0,0.0,720.0,0.0,0.0
4948,75.0,720.0,15.0,0.0,0.0
4949,73.0,0.0,240.0,0.0,0.0
4950,77.0,240.0,240.0,0.0,0.0
4951,58.0,240.0,480.0,0.0,0.0
4952,78.0,240.0,480.0,0.0,0.0
4953,63.0,0.0,480.0,0.0,0.0
4954,60.0,0.0,480.0,0.0,0.0
4955,68.0,240.0,240.0,0.0,0.0
4956,61.0,240.0,480.0,0.0,0.0
4957,70.0,240.0,240.0,0.0,0.0
4958,78.0,240.0,480.0,0.0,0.0
4959,60.0,240.0,480.0,0.0,0.0
4960,63.0,0.0,480.0,0.0,0.0
4961,68.0,0.0,240.0,0.0,0.0
4962,70.0,120.0,240.0,0.0,0.0
4963,61.0,480.0,480.0,0.0,0.0
4964,78.0,120.0,120.0,0.0,0.0
4965,66.0,0.0,480.0,0.0,0.0
4966,63.0,0.0,480.0,0.0,0.0
4967,73.0,240.0,480.0,0.0,0.0
4968,68.0,0.0,480.0,0.0,0.0
4969,72.0,240.0,240.0,0.0,0.0
4970,65.0,0.0,480.0,0.0,0.0
4971,71.0,120.0,240.0,0.0,0.0
4972,70.0,360.0,120.0,0.0,0.0
4973,66.0,240.0,480.0,0.0,0.0
4974,70.0,0.0,240.0,0.0,0.0
4975,71.0,240.0,240.0,0.0,0.0
4976,73.0,240.0,240.0,0.0,0.0
4977,74.0,240.0,240.0,0.0,0.0
4978,75.0,120.0,480.0,0.0,0.0
4979,51.0,120.0,240.0,0.0,0.0
4980,63.0,120.0,120.0,0.0,0.0
4981,77.0,120.0,120.0,0.0,0.0
4982,61.0,0.0,120.0,0.0,0.0
4983,79.0,120.0,120.0,0.0,0.0
4984,80.0,0.0,120.0,0.0,0.0
4985,59.0,120.0,120.0,0.0,0.0
4986,82.0,120.0,120.0,0.0,0.0
4987,83.0,120.0,120.0,0.0,0.0
4988,47.0,120.0,240.0,0.0,0.0
4989,82.0,0.0,120.0,0.0,0.0
4990,59.0,120.0,120.0,0.0,0.0
4991,80.0,0.0,120.0,0.0,0.0
4992,82.0,120.0,120.0,0.0,0.0
4993,58.0,0.0,120.0,0.0,0.0
4994,78.0,120.0,120.0,0.0,0.0
4995,80.0,120.0,120.0,0.0,0.0
4996,56.0,120.0,240.0,0.0,0.0
4997,77.0,120.0,120.0,0.0,0.0
4998,78.0,0.0,120.0,0.0,0.0
4999,75.0,120.0,120.0,0.0,0.0
5000,54.0,0.0,240.0,0.0,0.0
5001,77.0,120.0,120.0,0.0,0.0
5002,53.0,120.0,240.0,0.0,0.0
5003,73.0,120.0,120.0,0.0,0.0
5004,75.0,0.0,120.0,0.0,0.0
5005,49.0,0.0,240.0,0.0,0.0
5006,71.0,120.0,120.0,0.0,0.0
5007,73.0,120.0,120.0,0.0,0.0
5008,54.0,0.0,480.0,0.0,0.0
5009,70.0,120.0,120.0,0.0,0.0
5010,71.0,120.0,120.0,0.0,0.0
5011,73.0,120.0,120.0,0.0,0.0
5012,75.0,120.0,120.0,0.0,0.0
5013,77.0,120.0,120.0,0.0,0.0
5014,46.0,120.0,480.0,0.0,0.0
5015,78.0,120.0,120.0,0.0,0.0
5016,77.0,120.0,120.0,0.0,0.0
5017,78.0,0.0,120.0,0.0,0.0
5018,80.0,120.0,120.0,0.0,0.0
5019,47.0,120.0,480.0,0.0,0.0
5020,78.0,120.0,120.0,0.0,0.0
5021,77.0,120.0,120.0,0.0,0.0
5022,75.0,0.0,120.0,0.0,0.0
5023,77.0,120.0,120.0,0.0,0.0
5024,59.0,0.0,480.0,0.0,0.0
5025,75.0,120.0,120.0,0.0,0.0
5026,73.0,120.0,120.0,0.0,0.0
5027,71.0,480.0,120.0,0.0,0.0
5028,61.0,0.0,480.0,0.0,0.0
5029,49.0,120.0,480.0,0.0,0.0
5030,65.0,0.0,480.0,0.0,0.0
5031,70.0,60.0,15.0,0.0,0.0
5032,68.0,60.0,60.0,0.0,0.0
5033,70.0,60.0,60.0,0.0,0.0
5034,68.0,60.0,60.0,0.0,0.0
5035,70.0,60.0,60.0,0.0,0.0
5036,68.0,60.0,60.0,0.0,0.0
5037,66.0,60.0,60.0,0.0,0.0
5038,68.0,0.0,60.0,0.0,0.0
5039,66.0,120.0,480.0,0.0,0.0
5040,54.0,120.0,120.0,0.0,0.0
5041,61.0,120.0,120.0,0.0,0.0
5042,60.0,120.0,120.0,0.0,0.0
5043,61.0,0.0,120.0,0.0,0.0
5044,63.0,120.0,120.0,0.0,0.0
5045,61.0,120.0,120.0,0.0,0.0
5046,60.0,120.0,120.0,0.0,0.0
5047,61.0,120.0,120.0,0.0,0.0
5048,59.0,120.0,120.0,0.0,0.0
5049,61.0,120.0,120.0,0.0,0.0
5050,58.0,120.0,120.0,0.0,0.0
5051,59.0,120.0,120.0,0.0,0.0
5052,56.0,120.0,120.0,0.0,0.0
5053,61.0,120.0,120.0,0.0,0.0
5054,54.0,120.0,120.0,0.0,0.0
5055,61.0,120.0,120.0,0.0,0.0
5056,53.0,120.0,120.0,0.0,0.0
5057,71.0,0.0,240.0,0.0,0.0
5058,61.0,120.0,120.0,0.0,0.0
5059,56.0,120.0,120.0,0.0,0.0
5060,68.0,0.0,120.0,0.0,0.0
5061,61.0,120.0,120.0,0.0,0.0
5062,65.0,0.0,120.0,0.0,0.0
5063,59.0,120.0,120.0,0.0,0.0
5064,61.0,120.0,120.0,0.0,0.0
5065,65.0,0.0,120.0,0.0,0.0
5066,59.0,120.0,120.0,0.0,0.0
5067,61.0,120.0,120.0,0.0,0.0
5068,71.0,120.0,240.0,0.0,0.0
5069,53.0,120.0,120.0,0.0,0.0
5070,61.0,0.0,120.0,0.0,0.0
5071,59.0,0.0,120.0,0.0,0.0
5072,68.0,120.0,120.0,0.0,0.0
5073,61.0,120.0,120.0,0.0,0.0
5074,65.0,0.0,120.0,0.0,0.0
5075,59.0,120.0,120.0,0.0,0.0
5076,61.0,120.0,120.0,0.0,0.0
5077,59.0,0.0,120.0,0.0,0.0
5078,65.0,120.0,120.0,0.0,0.0
5079,61.0,120.0,120.0,0.0,0.0
5080,58.0,0.0,120.0,0.0,0.0
5081,66.0,120.0,120.0,0.0,0.0
5082,61.0,120.0,120.0,0.0,0.0
5083,53.0,120.0,120.0,0.0,0.0
5084,68.0,0.0,120.0,0.0,0.0
5085,61.0,120.0,120.0,0.0,0.0
5086,70.0,120.0,120.0,0.0,0.0
5087,54.0,0.0,120.0,0.0,0.0
5088,61.0,120.0,120.0,0.0,0.0
5089,71.0,120.0,120.0,0.0,0.0
5090,56.0,0.0,120.0,0.0,0.0
5091,61.0,120.0,120.0,0.0,0.0
5092,57.0,120.0,120.0,0.0,0.0
5093,72.0,120.0,240.0,0.0,0.0
5094,61.0,0.0,120.0,0.0,0.0
5095,58.0,120.0,120.0,0.0,0.0
5096,73.0,0.0,240.0,0.0,0.0
5097,61.0,120.0,120.0,0.0,0.0
5098,72.0,120.0,240.0,0.0,0.0
5099,57.0,120.0,120.0,0.0,0.0
5100,61.0,0.0,120.0,0.0,0.0
5101,58.0,120.0,120.0,0.0,0.0
5102,73.0,120.0,240.0,0.0,0.0
5103,61.0,0.0,120.0,0.0,0.0
5104,71.0,0.0,240.0,0.0,0.0
5105,83.0,0.0,240.0,0.0,0.0
5106,53.0,120.0,120.0,0.0,0.0
5107,61.0,120.0,120.0,0.0,0.0
5108,80.0,0.0,120.0,0.0,0.0
5109,68.0,0.0,120.0,0.0,0.0
5110,56.0,120.0,120.0,0.0,0.0
5111,61.0,120.0,120.0,0.0,0.0
5112,65.0,0.0,120.0,0.0,0.0
5113,59.0,120.0,120.0,0.0,0.0
5114,77.0,0.0,120.0,0.0,0.0
5115,61.0,120.0,120.0,0.0,0.0
5116,77.0,0.0,120.0,0.0,0.0
5117,59.0,120.0,120.0,0.0,0.0
5118,65.0,0.0,120.0,0.0,0.0
5119,61.0,120.0,120.0,0.0,0.0
5120,71.0,0.0,240.0,0.0,0.0
5121,83.0,0.0,240.0,0.0,0.0
5122,53.0,120.0,120.0,0.0,0.0
5123,61.0,120.0,120.0,0.0,0.0
5124,80.0,0.0,120.0,0.0,0.0
5125,68.0,0.0,120.0,0.0,0.0
5126,59.0,120.0,120.0,0.0,0.0
5127,61.0,120.0,120.0,0.0,0.0
5128,77.0,120.0,120.0,0.0,0.0
5129,65.0,0.0,120.0,0.0,0.0
5130,59.0,0.0,120.0,0.0,0.0
5131,61.0,120.0,120.0,0.0,0.0
5132,77.0,120.0,120.0,0.0,0.0
5133,65.0,0.0,120.0,0.0,0.0
5134,59.0,0.0,120.0,0.0,0.0
5135,61.0,120.0,120.0,0.0,0.0
5136,78.0,0.0,120.0,0.0,0.0
5137,58.0,120.0,120.0,0.0,0.0
5138,66.0,0.0,120.0,0.0,0.0
5139,61.0,120.0,120.0,0.0,0.0
5140,80.0,0.0,120.0,0.0,0.0
5141,68.0,0.0,120.0,0.0,0.0
5142,53.0,120.0,120.0,0.0,0.0
5143,61.0,120.0,120.0,0.0,0.0
5144,70.0,0.0,120.0,0.0,0.0
5145,82.0,0.0,120.0,0.0,0.0
5146,54.0,120.0,120.0,0.0,0.0
5147,61.0,120.0,120.0,0.0,0.0
5148,83.0,0.0,120.0,0.0,0.0
5149,56.0,0.0,120.0,0.0,0.0
5150,71.0,120.0,120.0,0.0,0.0
5151,61.0,120.0,120.0,0.0,0.0
5152,84.0,0.0,240.0,0.0,0.0
5153,72.0,0.0,240.0,0.0,0.0
5154,57.0,120.0,120.0,0.0,0.0
5155,61.0,120.0,120.0,0.0,0.0
5156,58.0,120.0,120.0,0.0,0.0
5157,73.0,0.0,240.0,0.0,0.0
5158,85.0,0.0,240.0,0.0,0.0
5159,61.0,120.0,120.0,0.0,0.0
5160,84.0,120.0,240.0,0.0,0.0
5161,72.0,0.0,240.0,0.0,0.0
5162,57.0,120.0,120.0,0.0,0.0
5163,61.0,0.0,120.0,0.0,0.0
5164,58.0,120.0,120.0,0.0,0.0
5165,85.0,0.0,240.0,0.0,0.0
5166,73.0,480.0,240.0,0.0,0.0
5167,61.0,0.0,120.0,0.0,0.0
5168,63.0,0.0,960.0,0.0,0.0
5169,75.0,480.0,960.0,0.0,0.0
5170,47.0,240.0,240.0,0.0,0.0
5171,46.0,240.0,240.0,0.0,0.0
5172,47.0,0.0,240.0,0.0,0.0
5173,65.0,480.0,960.0,0.0,0.0
5174,53.0,0.0,960.0,0.0,0.0
5175,49.0,240.0,240.0,0.0,0.0
5176,48.0,240.0,240.0,0.0,0.0
5177,49.0,0.0,240.0,0.0,0.0
5178,83.0,0.0,960.0,0.0,0.0
5179,71.0,0.0,960.0,0.0,0.0
5180,50.0,240.0,240.0,0.0,0.0
5181,48.0,240.0,240.0,0.0,0.0
5182,50.0,480.0,240.0,0.0,0.0
5183,70.0,0.0,960.0,0.0,0.0
5184,51.0,240.0,240.0,0.0,0.0
5185,50.0,240.0,240.0,0.0,0.0
5186,51.0,120.0,240.0,0.0,0.0
5187,82.0,0.0,15.0,0.0,0.0
5188,80.0,120.0,120.0,0.0,0.0
5189,83.0,120.0,120.0,0.0,0.0
5190,82.0,120.0,120.0,0.0,0.0
5191,68.0,0.0,480.0,0.0,0.0
5192,59.0,0.0,480.0,0.0,0.0
5193,85.0,120.0,120.0,0.0,0.0
5194,83.0,120.0,120.0,0.0,0.0
5195,82.0,120.0,120.0,0.0,0.0
5196,80.0,480.0,120.0,0.0,0.0
5197,70.0,0.0,480.0,0.0,0.0
5198,61.0,0.0,960.0,0.0,0.0
5199,78.0,480.0,480.0,0.0,0.0
5200,71.0,0.0,480.0,0.0,0.0
5201,77.0,480.0,480.0,0.0,0.0
5202,78.0,240.0,240.0,0.0,0.0
5203,77.0,240.0,240.0,0.0,0.0
5204,78.0,0.0,240.0,0.0,0.0
5205,70.0,0.0,15.0,0.0,0.0
5206,66.0,480.0,15.0,0.0,0.0
5207,76.0,240.0,240.0,0.0,0.0
5208,75.0,240.0,240.0,0.0,0.0
5209,76.0,0.0,240.0,0.0,0.0
5210,73.0,0.0,960.0,0.0,0.0
5211,66.0,0.0,15.0,0.0,0.0
5212,70.0,0.0,960.0,0.0,0.0
5213,75.0,240.0,240.0,0.0,0.0
5214,74.0,240.0,240.0,0.0,0.0
5215,75.0,0.0,240.0,0.0,0.0
5216,75.0,240.0,240.0,0.0,0.0
5217,87.0,120.0,15.0,0.0,0.0
5218,71.0,0.0,15.0,0.0,0.0
5219,68.0,480.0,15.0,0.0,0.0
5220,65.0,0.0,960.0,0.0,0.0
5221,87.0,240.0,240.0,0.0,0.0
5222,73.0,120.0,240.0,0.0,0.0
5223,73.0,120.0,120.0,0.0,0.0
5224,73.0,240.0,240.0,0.0,0.0
5225,82.0,120.0,240.0,0.0,0.0
5226,82.0,120.0,120.0,0.0,0.0
5227,70.0,0.0,15.0,0.0,0.0
5228,63.0,0.0,960.0,0.0,0.0
5229,66.0,480.0,15.0,0.0,0.0
5230,82.0,240.0,240.0,0.0,0.0
5231,71.0,120.0,15.0,0.0,0.0
5232,68.0,0.0,960.0,0.0,0.0
5233,71.0,240.0,240.0,0.0,0.0
5234,80.0,120.0,15.0,0.0,0.0
5235,65.0,480.0,15.0,0.0,0.0
5236,62.0,0.0,960.0,0.0,0.0
5237,68.0,480.0,960.0,0.0,0.0
5238,80.0,240.0,240.0,0.0,0.0
5239,70.0,120.0,240.0,0.0,0.0
5240,70.0,120.0,120.0,0.0,0.0
5241,66.0,240.0,960.0,0.0,0.0
5242,63.0,0.0,960.0,0.0,0.0
5243,70.0,240.0,240.0,0.0,0.0
5244,78.0,120.0,240.0,0.0,0.0
5245,78.0,120.0,120.0,0.0,0.0
5246,78.0,120.0,240.0,0.0,0.0
5247,66.0,0.0,240.0,0.0,0.0
5248,68.0,119.0,120.0,0.0,0.0
5249,60.0,240.0,240.0,0.0,0.0
5250,60.0,240.0,240.0,0.0,0.0
5251,66.0,1.0,240.0,0.0,0.0
5252,66.0,0.0,240.0,0.0,0.0
5253,60.0,240.0,240.0,0.0,0.0
5254,78.0,120.0,240.0,0.0,0.0
5255,70.0,120.0,120.0,0.0,0.0
5256,61.0,0.0,240.0,0.0,0.0
5257,61.0,240.0,240.0,0.0,0.0
5258,66.0,240.0,15.0,0.0,0.0
5259,66.0,0.0,15.0,0.0,0.0
5260,61.0,240.0,240.0,0.0,0.0
5261,78.0,120.0,240.0,0.0,0.0
5262,71.0,120.0,120.0,0.0,0.0
5263,63.0,240.0,240.0,0.0,0.0
5264,66.0,0.0,240.0,0.0,0.0
5265,63.0,240.0,240.0,0.0,0.0
5266,66.0,0.0,240.0,0.0,0.0
5267,66.0,240.0,240.0,0.0,0.0
5268,63.0,0.0,240.0,0.0,0.0
5269,78.0,120.0,240.0,0.0,0.0
5270,62.0,240.0,240.0,0.0,0.0
5271,72.0,120.0,120.0,0.0,0.0
5272,66.0,0.0,240.0,0.0,0.0
5273,62.0,0.0,15.0,0.0,0.0
5274,66.0,240.0,15.0,0.0,0.0
5275,66.0,240.0,15.0,0.0,0.0
5276,61.0,0.0,480.0,0.0,0.0
5277,78.0,120.0,240.0,0.0,0.0
5278,73.0,120.0,120.0,0.0,0.0
5279,78.0,120.0,240.0,0.0,0.0
5280,58.0,0.0,480.0,0.0,0.0
5281,74.0,120.0,120.0,0.0,0.0
5282,59.0,0.0,480.0,0.0,0.0
5283,66.0,240.0,15.0,0.0,0.0
5284,78.0,240.0,240.0,0.0,0.0
5285,75.0,0.0,240.0,0.0,0.0
5286,83.0,240.0,240.0,0.0,0.0
5287,61.0,0.0,480.0,0.0,0.0
5288,56.0,60.0,480.0,0.0,0.0
5289,77.0,0.0,240.0,0.0,0.0
5290,54.0,0.0,480.0,0.0,0.0
5291,61.0,0.0,480.0,0.0,0.0
5292,83.0,60.0,60.0,0.0,0.0
5293,82.0,60.0,60.0,0.0,0.0
5294,80.0,60.0,60.0,0.0,0.0
5295,82.0,240.0,60.0,0.0,0.0
5296,85.0,60.0,240.0,0.0,0.0
5297,46.0,0.0,480.0,0.0,0.0
5298,49.0,60.0,480.0,0.0,0.0
5299,80.0,60.0,60.0,0.0,0.0
5300,78.0,60.0,60.0,0.0,0.0
5301,77.0,60.0,60.0,0.0,0.0
5302,78.0,240.0,60.0,0.0,0.0
5303,82.0,0.0,240.0,0.0,0.0
5304,54.0,60.0,480.0,0.0,0.0
5305,77.0,60.0,60.0,0.0,0.0
5306,47.0,0.0,480.0,0.0,0.0
5307,75.0,60.0,60.0,0.0,0.0
5308,74.0,60.0,60.0,0.0,0.0
5309,75.0,240.0,60.0,0.0,0.0
5310,78.0,0.0,240.0,0.0,0.0
5311,47.0,0.0,480.0,0.0,0.0
5312,51.0,0.0,480.0,0.0,0.0
5313,70.0,60.0,60.0,0.0,0.0
5314,68.0,60.0,60.0,0.0,0.0
5315,67.0,60.0,60.0,0.0,0.0
5316,68.0,240.0,60.0,0.0,0.0
5317,70.0,60.0,240.0,0.0,0.0
5318,61.0,180.0,60.0,0.0,0.0
5319,73.0,120.0,120.0,0.0,0.0
5320,75.0,120.0,120.0,0.0,0.0
5321,73.0,120.0,120.0,0.0,0.0
5322,71.0,120.0,120.0,0.0,0.0
5323,46.0,60.0,480.0,0.0,0.0
5324,54.0,0.0,960.0,0.0,0.0
5325,70.0,120.0,120.0,0.0,0.0
5326,68.0,120.0,120.0,0.0,0.0
5327,66.0,0.0,120.0,0.0,0.0
5328,70.0,60.0,60.0,0.0,0.0
5329,47.0,60.0,480.0,0.0,0.0
5330,68.0,60.0,60.0,0.0,0.0
5331,70.0,60.0,60.0,0.0,0.0
5332,68.0,60.0,60.0,0.0,0.0
5333,70.0,60.0,60.0,0.0,0.0
5334,68.0,60.0,60.0,0.0,0.0
5335,70.0,60.0,60.0,0.0,0.0
5336,68.0,0.0,60.0,0.0,0.0
5337,70.0,60.0,60.0,0.0,0.0
5338,49.0,0.0,480.0,0.0,0.0
5339,53.0,0.0,480.0,0.0,0.0
5340,68.0,60.0,60.0,0.0,0.0
5341,70.0,60.0,60.0,0.0,0.0
5342,68.0,60.0,60.0,0.0,0.0
5343,70.0,60.0,60.0,0.0,0.0
5344,68.0,60.0,60.0,0.0,0.0
5345,66.0,60.0,60.0,0.0,0.0
5346,68.0,120.0,60.0,0.0,0.0
5347,54.0,0.0,120.0,0.0,0.0
5348,42.0,240.0,120.0,0.0,0.0
5349,66.0,0.0,120.0,0.0,0.0
5350,54.0,120.0,120.0,0.0,0.0
5351,58.0,120.0,120.0,0.0,0.0
5352,53.0,0.0,240.0,0.0,0.0
5353,56.0,120.0,120.0,0.0,0.0
5354,59.0,120.0,120.0,0.0,0.0
5355,52.0,0.0,240.0,0.0,0.0
5356,58.0,120.0,120.0,0.0,0.0
5357,61.0,120.0,120.0,0.0,0.0
5358,51.0,0.0,120.0,0.0,0.0
5359,42.0,240.0,120.0,0.0,0.0
5360,59.0,0.0,120.0,0.0,0.0
5361,54.0,120.0,120.0,0.0,0.0
5362,58.0,120.0,120.0,0.0,0.0
5363,53.0,120.0,240.0,0.0,0.0
5364,56.0,120.0,120.0,0.0,0.0
5365,59.0,0.0,120.0,0.0,0.0
5366,58.0,120.0,120.0,0.0,0.0
5367,52.0,120.0,240.0,0.0,0.0
5368,61.0,0.0,120.0,0.0,0.0
5369,59.0,0.0,120.0,0.0,0.0
5370,42.0,240.0,120.0,0.0,0.0
5371,51.0,0.0,120.0,0.0,0.0
5372,54.0,120.0,120.0,0.0,0.0
5373,58.0,120.0,120.0,0.0,0.0
5374,53.0,0.0,240.0,0.0,0.0
5375,56.0,120.0,120.0,0.0,0.0
5376,59.0,120.0,120.0,0.0,0.0
5377,58.0,120.0,120.0,0.0,0.0
5378,52.0,0.0,240.0,0.0,0.0
5379,61.0,120.0,120.0,0.0,0.0
5380,51.0,0.0,240.0,0.0,0.0
5381,59.0,120.0,120.0,0.0,0.0
5382,63.0,120.0,120.0,0.0,0.0
5383,46.0,0.0,240.0,0.0,0.0
5384,61.0,120.0,120.0,0.0,0.0
5385,64.0,120.0,120.0,0.0,0.0
5386,47.0,120.0,240.0,0.0,0.0
5387,63.0,120.0,120.0,0.0,0.0
5388,66.0,0.0,120.0,0.0,0.0
5389,65.0,120.0,120.0,0.0,0.0
5390,44.0,0.0,240.0,0.0,0.0
5391,68.0,120.0,120.0,0.0,0.0
5392,46.0,0.0,480.0,0.0,0.0
5393,66.0,120.0,120.0,0.0,0.0
5394,68.0,120.0,120.0,0.0,0.0
5395,70.0,120.0,120.0,0.0,0.0
5396,68.0,120.0,120.0,0.0,0.0
5397,66.0,120.0,120.0,0.0,0.0
5398,64.0,120.0,120.0,0.0,0.0
5399,63.0,120.0,120.0,0.0,0.0
5400,62.0,120.0,120.0,0.0,0.0
5401,47.0,120.0,480.0,0.0,0.0
5402,63.0,120.0,120.0,0.0,0.0
5403,68.0,120.0,120.0,0.0,0.0
5404,71.0,120.0,120.0,0.0,0.0
5405,70.0,0.0,120.0,0.0,0.0
5406,68.0,120.0,120.0,0.0,0.0
5407,66.0,120.0,120.0,0.0,0.0
5408,65.0,120.0,120.0,0.0,0.0
5409,63.0,120.0,120.0,0.0,0.0
5410,61.0,120.0,120.0,0.0,0.0
5411,49.0,120.0,240.0,0.0,0.0
5412,66.0,0.0,120.0,0.0,0.0
5413,70.0,120.0,120.0,0.0,0.0
5414,54.0,120.0,240.0,0.0,0.0
5415,73.0,0.0,120.0,0.0,0.0
5416,78.0,120.0,120.0,0.0,0.0
5417,58.0,120.0,240.0,0.0,0.0
5418,54.0,240.0,240.0,0.0,0.0
5419,70.0,120.0,120.0,0.0,0.0
5420,66.0,0.0,120.0,0.0,0.0
5421,49.0,0.0,240.0,0.0,0.0
5422,73.0,120.0,240.0,0.0,0.0
5423,70.0,0.0,240.0,0.0,0.0
5424,56.0,120.0,240.0,0.0,0.0
5425,71.0,0.0,120.0,0.0,0.0
5426,68.0,120.0,120.0,0.0,0.0
5427,66.0,120.0,120.0,0.0,0.0
5428,70.0,0.0,120.0,0.0,0.0
5429,59.0,120.0,240.0,0.0,0.0
5430,56.0,120.0,240.0,0.0,0.0
5431,68.0,120.0,120.0,0.0,0.0
5432,65.0,0.0,120.0,0.0,0.0
5433,54.0,0.0,120.0,0.0,0.0
5434,58.0,240.0,120.0,0.0,0.0
5435,66.0,0.0,120.0,0.0,0.0
5436,66.0,120.0,120.0,0.0,0.0
5437,70.0,120.0,120.0,0.0,0.0
5438,68.0,120.0,120.0,0.0,0.0
5439,65.0,0.0,240.0,0.0,0.0
5440,71.0,120.0,120.0,0.0,0.0
5441,70.0,120.0,120.0,0.0,0.0
5442,64.0,0.0,240.0,0.0,0.0
5443,73.0,120.0,120.0,0.0,0.0
5444,54.0,0.0,120.0,0.0,0.0
5445,63.0,240.0,120.0,0.0,0.0
5446,71.0,0.0,120.0,0.0,0.0
5447,66.0,0.0,240.0,0.0,0.0
5448,78.0,120.0,120.0,0.0,0.0
5449,82.0,120.0,120.0,0.0,0.0
5450,80.0,120.0,120.0,0.0,0.0
5451,65.0,0.0,240.0,0.0,0.0
5452,83.0,120.0,120.0,0.0,0.0
5453,64.0,120.0,240.0,0.0,0.0
5454,82.0,120.0,120.0,0.0,0.0
5455,85.0,0.0,120.0,0.0,0.0
5456,83.0,0.0,120.0,0.0,0.0
5457,54.0,240.0,120.0,0.0,0.0
5458,63.0,0.0,120.0,0.0,0.0
5459,66.0,120.0,120.0,0.0,0.0
5460,70.0,0.0,120.0,0.0,0.0
5461,68.0,120.0,120.0,0.0,0.0
5462,65.0,120.0,240.0,0.0,0.0
5463,71.0,0.0,120.0,0.0,0.0
5464,70.0,120.0,120.0,0.0,0.0
5465,64.0,120.0,240.0,0.0,0.0
5466,73.0,0.0,120.0,0.0,0.0
5467,71.0,120.0,120.0,0.0,0.0
5468,63.0,120.0,240.0,0.0,0.0
5469,66.0,0.0,120.0,0.0,0.0
5470,73.0,120.0,120.0,0.0,0.0
5471,58.0,0.0,240.0,0.0,0.0
5472,66.0,120.0,120.0,0.0,0.0
5473,59.0,120.0,240.0,0.0,0.0
5474,75.0,120.0,120.0,0.0,0.0
5475,66.0,0.0,120.0,0.0,0.0
5476,77.0,120.0,120.0,0.0,0.0
5477,56.0,0.0,240.0,0.0,0.0
5478,66.0,120.0,120.0,0.0,0.0
5479,46.0,120.0,480.0,0.0,0.0
5480,58.0,0.0,480.0,0.0,0.0
5481,78.0,120.0,120.0,0.0,0.0
5482,80.0,120.0,120.0,0.0,0.0
5483,82.0,120.0,120.0,0.0,0.0
5484,80.0,0.0,120.0,0.0,0.0
5485,78.0,120.0,120.0,0.0,0.0
5486,76.0,120.0,120.0,0.0,0.0
5487,75.0,120.0,120.0,0.0,0.0
5488,74.0,120.0,120.0,0.0,0.0
5489,59.0,120.0,480.0,0.0,0.0
5490,47.0,0.0,480.0,0.0,0.0
5491,75.0,120.0,120.0,0.0,0.0
5492,73.0,120.0,120.0,0.0,0.0
5493,71.0,120.0,120.0,0.0,0.0
5494,70.0,0.0,120.0,0.0,0.0
5495,68.0,120.0,120.0,0.0,0.0
5496,66.0,120.0,120.0,0.0,0.0
5497,65.0,120.0,120.0,0.0,0.0
5498,63.0,120.0,120.0,0.0,0.0
5499,49.0,120.0,120.0,0.0,0.0
5500,61.0,120.0,240.0,0.0,0.0
5501,58.0,0.0,120.0,0.0,0.0
5502,54.0,120.0,120.0,0.0,0.0
5503,85.0,0.0,120.0,0.0,0.0
5504,58.0,120.0,120.0,0.0,0.0
5505,49.0,120.0,120.0,0.0,0.0
5506,85.0,0.0,120.0,0.0,0.0
5507,58.0,120.0,120.0,0.0,0.0
5508,85.0,120.0,120.0,0.0,0.0
5509,54.0,0.0,120.0,0.0,0.0
5510,58.0,120.0,120.0,0.0,0.0
5511,49.0,0.0,120.0,0.0,0.0
5512,85.0,120.0,120.0,0.0,0.0
5513,58.0,120.0,120.0,0.0,0.0
5514,82.0,0.0,120.0,0.0,0.0
5515,78.0,0.0,120.0,0.0,0.0
5516,54.0,120.0,120.0,0.0,0.0
5517,73.0,0.0,120.0,0.0,0.0
5518,58.0,120.0,120.0,0.0,0.0
5519,78.0,0.0,120.0,0.0,0.0
5520,49.0,120.0,120.0,0.0,0.0
5521,73.0,0.0,120.0,0.0,0.0
5522,58.0,120.0,120.0,0.0,0.0
5523,70.0,120.0,120.0,0.0,0.0
5524,54.0,0.0,120.0,0.0,0.0
5525,58.0,0.0,120.0,0.0,0.0
5526,66.0,80.0,120.0,0.0,0.0
5527,49.0,40.0,120.0,0.0,0.0
5528,70.0,40.0,90.0,0.0,0.0
5529,68.0,80.0,90.0,0.0,0.0
5530,59.0,0.0,120.0,0.0,0.0
5531,70.0,80.0,90.0,0.0,0.0
5532,53.0,40.0,120.0,0.0,0.0
5533,68.0,40.0,90.0,0.0,0.0
5534,70.0,80.0,90.0,0.0,0.0
5535,59.0,80.0,120.0,0.0,0.0
5536,68.0,0.0,90.0,0.0,0.0
5537,70.0,40.0,90.0,0.0,0.0
5538,49.0,40.0,120.0,0.0,0.0
5539,68.0,80.0,90.0,0.0,0.0
5540,59.0,80.0,120.0,0.0,0.0
5541,70.0,0.0,90.0,0.0,0.0
5542,53.0,40.0,120.0,0.0,0.0
5543,68.0,40.0,90.0,0.0,0.0
5544,70.0,80.0,90.0,0.0,0.0
5545,59.0,0.0,120.0,0.0,0.0
5546,68.0,80.0,90.0,0.0,0.0
5547,49.0,40.0,120.0,0.0,0.0
5548,70.0,40.0,90.0,0.0,0.0
5549,68.0,80.0,90.0,0.0,0.0
5550,59.0,80.0,120.0,0.0,0.0
5551,70.0,0.0,90.0,0.0,0.0
5552,68.0,40.0,90.0,0.0,0.0
5553,53.0,40.0,120.0,0.0,0.0
5554,70.0,80.0,90.0,0.0,0.0
5555,59.0,60.0,120.0,0.0,0.0
5556,68.0,0.0,90.0,0.0,0.0
5557,70.0,60.0,60.0,0.0,0.0
5558,49.0,60.0,120.0,0.0,0.0
5559,68.0,0.0,60.0,0.0,0.0
5560,59.0,0.0,120.0,0.0,0.0
5561,70.0,60.0,60.0,0.0,0.0
5562,68.0,60.0,60.0,0.0,0.0
5563,70.0,60.0,60.0,0.0,0.0
5564,53.0,60.0,120.0,0.0,0.0
5565,68.0,0.0,60.0,0.0,0.0
5566,59.0,0.0,120.0,0.0,0.0
5567,66.0,60.0,60.0,0.0,0.0
5568,68.0,240.0,60.0,0.0,0.0
5569,54.0,240.0,240.0,0.0,0.0
5570,66.0,0.0,240.0,0.0,0.0
5571,78.0,0.0,240.0,0.0,0.0
5572,66.0,240.0,240.0,0.0,0.0
5573,65.0,240.0,240.0,0.0,0.0
5574,66.0,240.0,240.0,0.0,0.0
5575,78.0,0.0,240.0,0.0,0.0
5576,77.0,240.0,240.0,0.0,0.0
5577,68.0,0.0,240.0,0.0,0.0
5578,78.0,240.0,240.0,0.0,0.0
5579,66.0,0.0,240.0,0.0,0.0
5580,65.0,240.0,240.0,0.0,0.0
5581,80.0,0.0,240.0,0.0,0.0
5582,82.0,0.0,240.0,0.0,0.0
5583,64.0,120.0,240.0,0.0,0.0
5584,83.0,120.0,120.0,0.0,0.0
5585,63.0,0.0,240.0,0.0,0.0
5586,82.0,120.0,120.0,0.0,0.0
5587,54.0,0.0,240.0,0.0,0.0
5588,83.0,120.0,120.0,0.0,0.0
5589,82.0,120.0,120.0,0.0,0.0
5590,62.0,120.0,240.0,0.0,0.0
5591,83.0,120.0,120.0,0.0,0.0
5592,81.0,0.0,120.0,0.0,0.0
5593,80.0,120.0,120.0,0.0,0.0
5594,54.0,0.0,240.0,0.0,0.0
5595,78.0,120.0,120.0,0.0,0.0
5596,61.0,0.0,240.0,0.0,0.0
5597,77.0,120.0,120.0,0.0,0.0
5598,78.0,120.0,120.0,0.0,0.0
5599,80.0,120.0,120.0,0.0,0.0
5600,54.0,0.0,240.0,0.0,0.0
5601,78.0,120.0,120.0,0.0,0.0
5602,65.0,120.0,240.0,0.0,0.0
5603,77.0,120.0,120.0,0.0,0.0
5604,75.0,0.0,120.0,0.0,0.0
5605,73.0,120.0,120.0,0.0,0.0
5606,54.0,0.0,240.0,0.0,0.0
5607,71.0,120.0,120.0,0.0,0.0
5608,66.0,240.0,120.0,0.0,0.0
5609,70.0,0.0,120.0,0.0,0.0
5610,70.0,120.0,120.0,0.0,0.0
5611,54.0,240.0,240.0,0.0,0.0
5612,53.0,240.0,240.0,0.0,0.0
5613,66.0,240.0,240.0,0.0,0.0
5614,54.0,0.0,240.0,0.0,0.0
5615,56.0,240.0,240.0,0.0,0.0
5616,65.0,0.0,240.0,0.0,0.0
5617,54.0,0.0,240.0,0.0,0.0
5618,66.0,240.0,240.0,0.0,0.0
5619,68.0,240.0,240.0,0.0,0.0
5620,53.0,0.0,240.0,0.0,0.0
5621,70.0,0.0,240.0,0.0,0.0
5622,52.0,120.0,240.0,0.0,0.0
5623,71.0,180.0,120.0,0.0,0.0
5624,51.0,240.0,480.0,0.0,0.0
5625,73.0,60.0,60.0,0.0,0.0
5626,71.0,60.0,60.0,0.0,0.0
5627,70.0,60.0,60.0,0.0,0.0
5628,71.0,0.0,60.0,0.0,0.0
5629,73.0,240.0,240.0,0.0,0.0
5630,47.0,240.0,480.0,0.0,0.0
5631,75.0,0.0,15.0,0.0,0.0
5632,71.0,0.0,240.0,0.0,0.0
5633,73.0,480.0,240.0,0.0,0.0
5634,70.0,0.0,240.0,0.0,0.0
5635,49.0,0.0,15.0,0.0,0.0
5636,65.0,0.0,240.0,0.0,0.0
5637,59.0,0.0,15.0,0.0,0.0
5638,54.0,480.0,480.0,0.0,0.0
5639,68.0,0.0,960.0,0.0,0.0
5640,49.0,360.0,480.0,0.0,0.0
5641,58.0,0.0,360.0,0.0,0.0
5642,42.0,120.0,360.0,0.0,0.0
5643,66.0,0.0,360.0,0.0,0.0
