,note,step,duration,channel,velocity
0,64.0,144.0,1740.0,7.0,0.0
1,76.0,0.0,780.0,5.0,0.0
2,64.0,240.0,180.0,10.0,0.0
3,68.0,144.0,780.0,6.0,0.0
4,64.0,240.0,180.0,10.0,0.0
5,64.0,96.0,180.0,10.0,0.0
6,64.0,240.0,180.0,10.0,0.0
7,81.0,0.0,720.0,5.0,0.0
8,73.0,48.0,720.0,6.0,0.0
9,64.0,240.0,180.0,10.0,0.0
10,64.0,240.0,180.0,10.0,0.0
11,64.0,48.0,180.0,10.0,0.0
12,64.0,0.0,180.0,10.0,0.0
13,71.0,0.0,180.0,6.0,0.0
14,80.0,108.0,180.0,5.0,0.0
15,80.0,132.0,60.0,5.0,0.0
16,64.0,48.0,180.0,10.0,0.0
17,73.0,144.0,1740.0,7.0,0.0
18,71.0,0.0,60.0,6.0,0.0
19,69.0,0.0,180.0,6.0,0.0
20,78.0,192.0,180.0,5.0,0.0
21,68.0,108.0,180.0,6.0,0.0
22,64.0,0.0,180.0,10.0,0.0
23,77.0,0.0,180.0,5.0,0.0
24,71.0,0.0,60.0,6.0,0.0
25,64.0,48.0,180.0,10.0,0.0
26,80.0,132.0,60.0,5.0,0.0
27,78.0,192.0,180.0,5.0,0.0
28,69.0,0.0,180.0,6.0,0.0
29,68.0,0.0,180.0,6.0,0.0
30,64.0,240.0,180.0,10.0,0.0
31,77.0,0.0,180.0,5.0,0.0
32,69.0,48.0,390.0,6.0,0.0
33,78.0,0.0,390.0,5.0,0.0
34,64.0,192.0,180.0,10.0,0.0
35,64.0,240.0,180.0,10.0,0.0
36,64.0,96.0,180.0,10.0,0.0
37,64.0,288.0,180.0,10.0,0.0
38,66.0,192.0,1920.0,7.0,0.0
39,71.0,240.0,2100.0,6.0,0.0
40,63.0,144.0,1740.0,10.0,0.0
41,78.0,240.0,240.0,5.0,0.0
42,80.0,240.0,240.0,5.0,0.0
43,81.0,192.0,240.0,5.0,0.0
44,82.0,288.0,180.0,5.0,0.0
45,83.0,240.0,240.0,5.0,0.0
46,84.0,240.0,240.0,5.0,0.0
47,85.0,48.0,240.0,5.0,0.0
48,81.0,48.0,180.0,5.0,0.0
49,80.0,0.0,180.0,5.0,0.0
50,64.0,0.0,180.0,7.0,0.0
51,64.0,0.0,180.0,10.0,0.0
52,76.0,0.0,180.0,6.0,0.0
53,71.0,168.0,180.0,7.0,0.0
54,64.0,0.0,180.0,10.0,0.0
55,80.0,0.0,180.0,5.0,0.0
56,71.0,48.0,180.0,7.0,0.0
57,64.0,0.0,180.0,10.0,0.0
58,83.0,72.0,120.0,5.0,0.0
59,78.0,0.0,120.0,6.0,0.0
60,76.0,0.0,120.0,6.0,0.0
61,81.0,120.0,120.0,5.0,0.0
62,71.0,0.0,180.0,7.0,0.0
63,64.0,24.0,180.0,10.0,0.0
64,75.0,72.0,120.0,6.0,0.0
65,80.0,0.0,120.0,5.0,0.0
66,81.0,0.0,90.0,5.0,0.0
67,76.0,408.0,90.0,6.0,0.0
68,71.0,0.0,390.0,7.0,0.0
69,64.0,1296.0,390.0,10.0,0.0
70,83.0,0.0,390.0,5.0,0.0
71,80.0,0.0,390.0,6.0,0.0
72,52.0,0.0,780.0,2.0,0.0
73,64.0,0.0,720.0,7.0,0.0
74,52.0,0.0,720.0,10.0,0.0
75,64.0,72.0,780.0,2.0,0.0
76,40.0,0.0,720.0,11.0,0.0
77,52.0,0.0,720.0,1.0,0.0
78,64.0,0.0,720.0,5.0,0.0
79,64.0,48.0,720.0,6.0,0.0
80,40.0,0.0,720.0,12.0,0.0
81,76.0,0.0,720.0,0.0,0.0
82,54.0,0.0,120.0,10.0,0.0
83,66.0,0.0,120.0,7.0,0.0
84,78.0,0.0,120.0,0.0,0.0
85,42.0,0.0,120.0,11.0,0.0
86,42.0,0.0,120.0,12.0,0.0
87,54.0,96.0,120.0,1.0,0.0
88,66.0,0.0,120.0,6.0,0.0
89,66.0,0.0,120.0,5.0,0.0
90,56.0,0.0,90.0,10.0,0.0
91,68.0,192.0,90.0,7.0,0.0
92,80.0,0.0,90.0,0.0,0.0
93,68.0,0.0,90.0,5.0,0.0
94,68.0,0.0,90.0,6.0,0.0
95,56.0,0.0,90.0,1.0,0.0
96,44.0,0.0,90.0,11.0,0.0
97,44.0,0.0,90.0,12.0,0.0
98,57.0,0.0,180.0,1.0,0.0
99,57.0,0.0,180.0,10.0,0.0
100,45.0,0.0,180.0,12.0,0.0
101,69.0,0.0,180.0,6.0,0.0
102,81.0,0.0,180.0,0.0,0.0
103,69.0,0.0,180.0,5.0,0.0
104,69.0,0.0,180.0,7.0,0.0
105,45.0,240.0,180.0,11.0,0.0
106,69.0,0.0,180.0,6.0,0.0
107,45.0,0.0,180.0,12.0,0.0
108,57.0,0.0,180.0,1.0,0.0
109,45.0,0.0,180.0,11.0,0.0
110,57.0,0.0,180.0,10.0,0.0
111,69.0,0.0,180.0,7.0,0.0
112,81.0,0.0,180.0,0.0,0.0
113,69.0,192.0,180.0,5.0,0.0
114,57.0,0.0,180.0,1.0,0.0
115,45.0,0.0,180.0,12.0,0.0
116,69.0,48.0,120.0,6.0,0.0
117,69.0,0.0,120.0,5.0,0.0
118,81.0,0.0,180.0,0.0,0.0
119,69.0,0.0,180.0,7.0,0.0
120,57.0,72.0,180.0,10.0,0.0
121,45.0,0.0,180.0,11.0,0.0
122,71.0,120.0,120.0,5.0,0.0
123,71.0,0.0,120.0,6.0,0.0
124,68.0,48.0,120.0,5.0,0.0
125,80.0,0.0,180.0,0.0,0.0
126,56.0,0.0,180.0,1.0,0.0
127,68.0,0.0,120.0,6.0,0.0
128,56.0,0.0,180.0,10.0,0.0
129,68.0,48.0,180.0,7.0,0.0
130,44.0,0.0,180.0,12.0,0.0
131,44.0,0.0,180.0,11.0,0.0
132,69.0,0.0,90.0,6.0,0.0
133,69.0,192.0,90.0,5.0,0.0
134,66.0,120.0,240.0,6.0,0.0
135,66.0,72.0,180.0,2.0,0.0
136,66.0,0.0,240.0,5.0,0.0
137,54.0,0.0,240.0,1.0,0.0
138,42.0,0.0,240.0,11.0,0.0
139,78.0,0.0,240.0,0.0,0.0
140,42.0,0.0,240.0,12.0,0.0
141,54.0,0.0,240.0,10.0,0.0
142,66.0,0.0,240.0,7.0,0.0
143,44.0,0.0,120.0,11.0,0.0
144,44.0,0.0,120.0,12.0,0.0
145,80.0,0.0,120.0,0.0,0.0
146,68.0,0.0,120.0,6.0,0.0
147,56.0,48.0,120.0,1.0,0.0
148,56.0,0.0,120.0,10.0,0.0
149,68.0,0.0,120.0,7.0,0.0
150,66.0,48.0,180.0,2.0,0.0
151,68.0,0.0,120.0,5.0,0.0
152,45.0,0.0,90.0,11.0,0.0
153,69.0,0.0,90.0,5.0,0.0
154,45.0,0.0,90.0,12.0,0.0
155,69.0,0.0,90.0,7.0,0.0
156,69.0,144.0,90.0,6.0,0.0
157,81.0,0.0,90.0,0.0,0.0
158,57.0,0.0,90.0,10.0,0.0
159,57.0,0.0,90.0,1.0,0.0
160,71.0,0.0,120.0,5.0,0.0
161,59.0,0.0,180.0,1.0,0.0
162,47.0,24.0,180.0,12.0,0.0
163,71.0,48.0,120.0,6.0,0.0
164,47.0,0.0,180.0,11.0,0.0
165,71.0,0.0,180.0,7.0,0.0
166,59.0,0.0,180.0,10.0,0.0
167,66.0,0.0,180.0,2.0,0.0
168,59.0,0.0,180.0,2.0,0.0
169,83.0,48.0,180.0,0.0,0.0
170,73.0,120.0,120.0,5.0,0.0
171,73.0,0.0,120.0,6.0,0.0
172,45.0,0.0,180.0,12.0,0.0
173,69.0,48.0,120.0,6.0,0.0
174,69.0,0.0,180.0,7.0,0.0
175,57.0,24.0,180.0,1.0,0.0
176,59.0,0.0,180.0,2.0,0.0
177,66.0,0.0,180.0,2.0,0.0
178,57.0,0.0,180.0,10.0,0.0
179,69.0,0.0,120.0,5.0,0.0
180,81.0,0.0,180.0,0.0,0.0
181,45.0,24.0,180.0,11.0,0.0
182,71.0,0.0,90.0,6.0,0.0
183,71.0,408.0,90.0,5.0,0.0
184,80.0,0.0,390.0,0.0,0.0
185,68.0,0.0,390.0,7.0,0.0
186,64.0,0.0,390.0,2.0,0.0
187,68.0,0.0,390.0,5.0,0.0
188,44.0,0.0,390.0,11.0,0.0
189,56.0,744.0,390.0,1.0,0.0
190,56.0,0.0,390.0,10.0,0.0
191,44.0,0.0,390.0,12.0,0.0
192,68.0,0.0,390.0,2.0,0.0
193,68.0,0.0,390.0,6.0,0.0
194,83.0,168.0,720.0,5.0,0.0
195,76.0,144.0,1200.0,6.0,0.0
196,68.0,240.0,180.0,7.0,0.0
197,68.0,240.0,180.0,7.0,0.0
198,68.0,72.0,180.0,7.0,0.0
199,68.0,24.0,180.0,7.0,0.0
200,88.0,216.0,180.0,5.0,0.0
201,69.0,72.0,180.0,7.0,0.0
202,87.0,0.0,240.0,5.0,0.0
203,85.0,0.0,150.0,5.0,0.0
204,69.0,216.0,180.0,7.0,0.0
205,81.0,24.0,150.0,6.0,0.0
206,83.0,24.0,150.0,5.0,0.0
207,69.0,216.0,180.0,7.0,0.0
208,80.0,0.0,150.0,6.0,0.0
209,81.0,24.0,150.0,5.0,0.0
210,78.0,0.0,150.0,6.0,0.0
211,69.0,240.0,180.0,7.0,0.0
212,71.0,72.0,180.0,7.0,0.0
213,81.0,144.0,240.0,5.0,0.0
214,78.0,0.0,240.0,6.0,0.0
215,76.0,0.0,150.0,6.0,0.0
216,80.0,24.0,150.0,5.0,0.0
217,71.0,240.0,180.0,7.0,0.0
218,71.0,72.0,180.0,7.0,0.0
219,76.0,0.0,240.0,6.0,0.0
220,80.0,144.0,240.0,5.0,0.0
221,78.0,0.0,150.0,5.0,0.0
222,71.0,456.0,180.0,7.0,0.0
223,75.0,24.0,150.0,6.0,0.0
224,64.0,96.0,390.0,7.0,0.0
225,79.0,192.0,480.0,5.0,0.0
226,75.0,0.0,480.0,6.0,0.0
227,76.0,0.0,180.0,6.0,0.0
228,80.0,1008.0,180.0,5.0,0.0
229,52.0,0.0,720.0,10.0,0.0
230,64.0,0.0,720.0,7.0,0.0
231,64.0,0.0,720.0,6.0,0.0
232,64.0,48.0,720.0,5.0,0.0
233,64.0,72.0,780.0,2.0,0.0
234,52.0,0.0,780.0,2.0,0.0
235,76.0,0.0,720.0,0.0,0.0
236,40.0,0.0,720.0,11.0,0.0
237,52.0,0.0,720.0,1.0,0.0
238,40.0,0.0,720.0,12.0,0.0
239,54.0,0.0,120.0,1.0,0.0
240,54.0,0.0,120.0,10.0,0.0
241,66.0,0.0,120.0,5.0,0.0
242,42.0,0.0,120.0,12.0,0.0
243,42.0,96.0,120.0,11.0,0.0
244,66.0,0.0,120.0,6.0,0.0
245,66.0,0.0,120.0,7.0,0.0
246,78.0,0.0,120.0,0.0,0.0
247,68.0,0.0,90.0,5.0,0.0
248,68.0,0.0,90.0,7.0,0.0
249,56.0,0.0,90.0,10.0,0.0
250,80.0,192.0,90.0,0.0,0.0
251,56.0,0.0,90.0,1.0,0.0
252,44.0,0.0,90.0,12.0,0.0
253,68.0,0.0,90.0,6.0,0.0
254,44.0,0.0,90.0,11.0,0.0
255,69.0,0.0,180.0,7.0,0.0
256,57.0,0.0,180.0,10.0,0.0
257,57.0,0.0,180.0,1.0,0.0
258,81.0,240.0,180.0,0.0,0.0
259,69.0,0.0,180.0,6.0,0.0
260,69.0,0.0,180.0,5.0,0.0
261,45.0,0.0,180.0,12.0,0.0
262,45.0,0.0,180.0,11.0,0.0
263,69.0,0.0,180.0,6.0,0.0
264,45.0,0.0,180.0,12.0,0.0
265,69.0,0.0,180.0,5.0,0.0
266,57.0,0.0,180.0,10.0,0.0
267,69.0,0.0,180.0,7.0,0.0
268,57.0,0.0,180.0,1.0,0.0
269,45.0,192.0,180.0,11.0,0.0
270,81.0,0.0,180.0,0.0,0.0
271,81.0,0.0,180.0,0.0,0.0
272,69.0,0.0,120.0,7.0,0.0
273,45.0,0.0,180.0,11.0,0.0
274,69.0,0.0,120.0,6.0,0.0
275,57.0,0.0,180.0,1.0,0.0
276,45.0,0.0,180.0,12.0,0.0
277,69.0,48.0,120.0,5.0,0.0
278,57.0,72.0,180.0,10.0,0.0
279,71.0,120.0,120.0,6.0,0.0
280,71.0,0.0,120.0,7.0,0.0
281,71.0,0.0,120.0,5.0,0.0
282,44.0,0.0,180.0,12.0,0.0
283,68.0,0.0,120.0,7.0,0.0
284,56.0,0.0,180.0,10.0,0.0
285,68.0,0.0,120.0,6.0,0.0
286,44.0,0.0,180.0,11.0,0.0
287,56.0,0.0,180.0,1.0,0.0
288,68.0,48.0,120.0,5.0,0.0
289,80.0,48.0,180.0,0.0,0.0
290,69.0,0.0,90.0,7.0,0.0
291,69.0,192.0,90.0,6.0,0.0
292,69.0,0.0,90.0,5.0,0.0
293,66.0,0.0,240.0,7.0,0.0
294,42.0,0.0,240.0,12.0,0.0
295,66.0,0.0,240.0,5.0,0.0
296,54.0,0.0,240.0,10.0,0.0
297,42.0,0.0,240.0,11.0,0.0
298,66.0,72.0,180.0,2.0,0.0
299,66.0,120.0,240.0,6.0,0.0
300,54.0,0.0,240.0,1.0,0.0
301,78.0,0.0,240.0,0.0,0.0
302,68.0,0.0,120.0,5.0,0.0
303,56.0,0.0,120.0,1.0,0.0
304,56.0,0.0,120.0,10.0,0.0
305,68.0,0.0,120.0,7.0,0.0
306,68.0,0.0,120.0,6.0,0.0
307,44.0,48.0,120.0,12.0,0.0
308,44.0,0.0,120.0,11.0,0.0
309,66.0,48.0,180.0,2.0,0.0
310,80.0,0.0,120.0,0.0,0.0
311,57.0,0.0,90.0,10.0,0.0
312,45.0,0.0,90.0,11.0,0.0
313,81.0,0.0,90.0,0.0,0.0
314,69.0,144.0,90.0,7.0,0.0
315,57.0,0.0,90.0,1.0,0.0
316,69.0,0.0,90.0,5.0,0.0
317,45.0,0.0,90.0,12.0,0.0
318,69.0,0.0,90.0,6.0,0.0
319,47.0,0.0,180.0,12.0,0.0
320,71.0,0.0,120.0,7.0,0.0
321,59.0,48.0,180.0,1.0,0.0
322,59.0,0.0,180.0,2.0,0.0
323,59.0,24.0,180.0,10.0,0.0
324,47.0,0.0,180.0,11.0,0.0
325,66.0,0.0,180.0,2.0,0.0
326,71.0,48.0,120.0,5.0,0.0
327,71.0,0.0,120.0,6.0,0.0
328,83.0,0.0,180.0,0.0,0.0
329,73.0,0.0,120.0,7.0,0.0
330,73.0,120.0,120.0,6.0,0.0
331,73.0,0.0,120.0,5.0,0.0
332,57.0,24.0,180.0,1.0,0.0
333,45.0,24.0,180.0,12.0,0.0
334,69.0,48.0,120.0,5.0,0.0
335,69.0,0.0,120.0,7.0,0.0
336,66.0,0.0,180.0,2.0,0.0
337,59.0,0.0,180.0,2.0,0.0
338,69.0,0.0,120.0,6.0,0.0
339,81.0,0.0,180.0,0.0,0.0
340,45.0,0.0,180.0,11.0,0.0
341,57.0,0.0,180.0,10.0,0.0
342,71.0,0.0,90.0,6.0,0.0
343,71.0,408.0,90.0,5.0,0.0
344,71.0,0.0,90.0,7.0,0.0
345,64.0,0.0,390.0,2.0,0.0
346,68.0,0.0,390.0,6.0,0.0
347,56.0,0.0,390.0,1.0,0.0
348,56.0,0.0,390.0,10.0,0.0
349,68.0,0.0,390.0,2.0,0.0
350,44.0,792.0,390.0,12.0,0.0
351,68.0,0.0,390.0,7.0,0.0
352,80.0,0.0,390.0,0.0,0.0
353,68.0,0.0,390.0,5.0,0.0
354,44.0,0.0,390.0,11.0,0.0
355,76.0,0.0,210.0,6.0,0.0
356,68.0,240.0,210.0,7.0,0.0
357,83.0,192.0,720.0,5.0,0.0
358,68.0,0.0,210.0,7.0,0.0
359,76.0,240.0,210.0,6.0,0.0
360,68.0,24.0,210.0,7.0,0.0
361,76.0,0.0,210.0,6.0,0.0
362,88.0,24.0,180.0,5.0,0.0
363,76.0,240.0,210.0,6.0,0.0
364,68.0,0.0,210.0,7.0,0.0
365,69.0,0.0,210.0,7.0,0.0
366,76.0,240.0,210.0,6.0,0.0
367,88.0,192.0,720.0,5.0,0.0
368,69.0,240.0,210.0,7.0,0.0
369,76.0,0.0,210.0,6.0,0.0
370,76.0,24.0,210.0,6.0,0.0
371,69.0,0.0,210.0,7.0,0.0
372,69.0,240.0,210.0,7.0,0.0
373,85.0,24.0,180.0,5.0,0.0
374,76.0,0.0,210.0,6.0,0.0
375,69.0,0.0,210.0,7.0,0.0
376,76.0,24.0,210.0,6.0,0.0
377,85.0,216.0,240.0,5.0,0.0
378,76.0,0.0,210.0,6.0,0.0
379,69.0,24.0,210.0,7.0,0.0
380,76.0,216.0,240.0,5.0,0.0
381,76.0,0.0,210.0,6.0,0.0
382,69.0,24.0,210.0,7.0,0.0
383,85.0,192.0,240.0,5.0,0.0
384,69.0,240.0,210.0,7.0,0.0
385,88.0,24.0,180.0,5.0,0.0
386,76.0,0.0,210.0,6.0,0.0
387,88.0,192.0,720.0,5.0,0.0
388,76.0,0.0,210.0,6.0,0.0
389,68.0,240.0,210.0,7.0,0.0
390,76.0,0.0,210.0,6.0,0.0
391,68.0,240.0,210.0,7.0,0.0
392,76.0,0.0,210.0,6.0,0.0
393,68.0,24.0,210.0,7.0,0.0
394,83.0,24.0,180.0,5.0,0.0
395,68.0,216.0,210.0,7.0,0.0
396,76.0,0.0,210.0,6.0,0.0
397,83.0,192.0,240.0,5.0,0.0
398,68.0,0.0,180.0,7.0,0.0
399,76.0,48.0,180.0,6.0,0.0
400,76.0,0.0,180.0,6.0,0.0
401,68.0,48.0,180.0,7.0,0.0
402,76.0,192.0,240.0,5.0,0.0
403,76.0,48.0,180.0,6.0,0.0
404,68.0,0.0,180.0,7.0,0.0
405,83.0,192.0,240.0,5.0,0.0
406,76.0,108.0,180.0,6.0,0.0
407,88.0,0.0,180.0,5.0,0.0
408,68.0,0.0,180.0,7.0,0.0
409,76.0,48.0,180.0,6.0,0.0
410,85.0,60.0,60.0,5.0,0.0
411,69.0,0.0,180.0,7.0,0.0
412,87.0,72.0,60.0,5.0,0.0
413,88.0,300.0,120.0,5.0,0.0
414,73.0,0.0,180.0,6.0,0.0
415,57.0,48.0,180.0,7.0,0.0
416,78.0,60.0,60.0,5.0,0.0
417,80.0,72.0,60.0,5.0,0.0
418,81.0,300.0,120.0,5.0,0.0
419,59.0,48.0,180.0,7.0,0.0
420,64.0,60.0,60.0,6.0,0.0
421,80.0,0.0,60.0,5.0,0.0
422,81.0,72.0,60.0,5.0,0.0
423,66.0,0.0,60.0,6.0,0.0
424,68.0,300.0,120.0,6.0,0.0
425,83.0,0.0,120.0,5.0,0.0
426,66.0,60.0,60.0,6.0,0.0
427,75.0,0.0,60.0,5.0,0.0
428,59.0,48.0,180.0,7.0,0.0
429,68.0,0.0,60.0,6.0,0.0
430,76.0,72.0,60.0,5.0,0.0
431,78.0,432.0,120.0,5.0,0.0
432,69.0,0.0,120.0,6.0,0.0
433,76.0,0.0,780.0,5.0,0.0
434,68.0,0.0,780.0,6.0,0.0
435,52.0,48.0,390.0,4.0,0.0
436,52.0,0.0,180.0,11.0,0.0
437,76.0,0.0,780.0,6.0,0.0
438,64.0,0.0,180.0,10.0,0.0
439,64.0,192.0,180.0,1.0,0.0
440,76.0,0.0,780.0,0.0,0.0
441,64.0,0.0,780.0,2.0,0.0
442,64.0,144.0,780.0,3.0,0.0
443,52.0,0.0,180.0,12.0,0.0
444,76.0,0.0,780.0,3.0,0.0
445,52.0,0.0,780.0,2.0,0.0
446,64.0,0.0,780.0,7.0,0.0
447,52.0,0.0,180.0,11.0,0.0
448,64.0,0.0,180.0,1.0,0.0
449,64.0,0.0,180.0,10.0,0.0
450,52.0,240.0,180.0,12.0,0.0
451,64.0,0.0,180.0,10.0,0.0
452,52.0,96.0,180.0,11.0,0.0
453,64.0,0.0,180.0,1.0,0.0
454,52.0,0.0,180.0,12.0,0.0
455,64.0,0.0,180.0,10.0,0.0
456,52.0,240.0,180.0,11.0,0.0
457,52.0,0.0,180.0,12.0,0.0
458,64.0,0.0,180.0,1.0,0.0
459,68.0,0.0,570.0,7.0,0.0
460,80.0,0.0,570.0,3.0,0.0
461,68.0,96.0,570.0,3.0,0.0
462,80.0,0.0,570.0,0.0,0.0
463,80.0,0.0,570.0,5.0,0.0
464,56.0,0.0,180.0,11.0,0.0
465,56.0,192.0,180.0,12.0,0.0
466,68.0,0.0,180.0,10.0,0.0
467,68.0,0.0,180.0,1.0,0.0
468,68.0,0.0,570.0,2.0,0.0
469,56.0,0.0,570.0,2.0,0.0
470,80.0,0.0,570.0,6.0,0.0
471,52.0,48.0,390.0,4.0,0.0
472,68.0,0.0,180.0,1.0,0.0
473,56.0,0.0,180.0,11.0,0.0
474,56.0,0.0,180.0,12.0,0.0
475,68.0,144.0,180.0,10.0,0.0
476,56.0,0.0,180.0,12.0,0.0
477,68.0,0.0,180.0,1.0,0.0
478,68.0,0.0,180.0,10.0,0.0
479,56.0,216.0,180.0,11.0,0.0
480,71.0,0.0,180.0,5.0,0.0
481,71.0,0.0,180.0,0.0,0.0
482,59.0,240.0,180.0,10.0,0.0
483,47.0,0.0,180.0,12.0,0.0
484,59.0,0.0,180.0,7.0,0.0
485,47.0,0.0,180.0,11.0,0.0
486,59.0,0.0,180.0,2.0,0.0
487,59.0,0.0,180.0,1.0,0.0
488,71.0,0.0,180.0,3.0,0.0
489,71.0,24.0,180.0,6.0,0.0
490,76.0,0.0,570.0,6.0,0.0
491,64.0,0.0,180.0,1.0,0.0
492,52.0,48.0,390.0,4.0,0.0
493,76.0,0.0,570.0,0.0,0.0
494,64.0,0.0,180.0,10.0,0.0
495,64.0,0.0,570.0,2.0,0.0
496,76.0,96.0,570.0,5.0,0.0
497,52.0,0.0,180.0,11.0,0.0
498,64.0,0.0,570.0,7.0,0.0
499,52.0,192.0,180.0,12.0,0.0
500,76.0,0.0,570.0,3.0,0.0
501,64.0,144.0,180.0,10.0,0.0
502,52.0,0.0,180.0,11.0,0.0
503,52.0,0.0,180.0,12.0,0.0
504,64.0,0.0,180.0,1.0,0.0
505,64.0,0.0,180.0,1.0,0.0
506,52.0,0.0,180.0,11.0,0.0
507,64.0,0.0,180.0,10.0,0.0
508,52.0,216.0,180.0,12.0,0.0
509,44.0,0.0,180.0,12.0,0.0
510,68.0,0.0,180.0,2.0,0.0
511,56.0,0.0,180.0,2.0,0.0
512,68.0,0.0,180.0,5.0,0.0
513,44.0,0.0,180.0,11.0,0.0
514,68.0,24.0,180.0,0.0,0.0
515,68.0,0.0,180.0,3.0,0.0
516,68.0,0.0,180.0,6.0,0.0
517,56.0,0.0,180.0,10.0,0.0
518,56.0,216.0,180.0,1.0,0.0
519,56.0,0.0,180.0,7.0,0.0
520,47.0,192.0,180.0,12.0,0.0
521,59.0,0.0,180.0,2.0,0.0
522,71.0,0.0,180.0,2.0,0.0
523,47.0,0.0,180.0,11.0,0.0
524,71.0,0.0,180.0,3.0,0.0
525,59.0,0.0,180.0,10.0,0.0
526,59.0,0.0,180.0,1.0,0.0
527,71.0,0.0,180.0,0.0,0.0
528,71.0,24.0,180.0,6.0,0.0
529,59.0,0.0,180.0,7.0,0.0
530,47.0,24.0,390.0,4.0,0.0
531,71.0,0.0,180.0,5.0,0.0
532,40.0,0.0,180.0,12.0,0.0
533,64.0,0.0,180.0,2.0,0.0
534,52.0,0.0,180.0,2.0,0.0
535,40.0,216.0,180.0,11.0,0.0
536,64.0,0.0,180.0,0.0,0.0
537,64.0,0.0,180.0,3.0,0.0
538,52.0,0.0,180.0,7.0,0.0
539,52.0,0.0,180.0,10.0,0.0
540,64.0,0.0,180.0,5.0,0.0
541,52.0,0.0,180.0,1.0,0.0
542,64.0,24.0,180.0,6.0,0.0
543,56.0,0.0,180.0,7.0,0.0
544,56.0,192.0,180.0,10.0,0.0
545,68.0,0.0,180.0,3.0,0.0
546,56.0,0.0,180.0,1.0,0.0
547,56.0,24.0,180.0,2.0,0.0
548,68.0,0.0,180.0,6.0,0.0
549,44.0,0.0,180.0,11.0,0.0
550,68.0,0.0,180.0,0.0,0.0
551,47.0,24.0,390.0,4.0,0.0
552,44.0,0.0,180.0,12.0,0.0
553,68.0,0.0,180.0,2.0,0.0
554,68.0,0.0,180.0,5.0,0.0
555,47.0,0.0,180.0,1.0,0.0
556,59.0,24.0,180.0,2.0,0.0
557,47.0,0.0,180.0,2.0,0.0
558,71.0,0.0,180.0,3.0,0.0
559,59.0,0.0,180.0,3.0,0.0
560,59.0,0.0,180.0,6.0,0.0
561,71.0,0.0,180.0,0.0,0.0
562,59.0,0.0,180.0,5.0,0.0
563,35.0,0.0,180.0,12.0,0.0
564,47.0,0.0,180.0,10.0,0.0
565,35.0,144.0,180.0,11.0,0.0
566,59.0,0.0,180.0,7.0,0.0
567,64.0,0.0,390.0,7.0,0.0
568,76.0,0.0,420.0,0.0,0.0
569,40.0,0.0,390.0,12.0,0.0
570,52.0,0.0,390.0,10.0,0.0
571,64.0,120.0,90.0,5.0,0.0
572,40.0,0.0,390.0,11.0,0.0
573,64.0,0.0,390.0,2.0,0.0
574,52.0,0.0,390.0,2.0,0.0
575,68.0,0.0,390.0,3.0,0.0
576,64.0,0.0,390.0,3.0,0.0
577,52.0,0.0,390.0,4.0,0.0
578,52.0,24.0,390.0,1.0,0.0
579,64.0,0.0,90.0,6.0,0.0
580,64.0,0.0,90.0,6.0,0.0
581,64.0,120.0,90.0,5.0,0.0
582,59.0,48.0,90.0,5.0,0.0
583,71.0,48.0,180.0,0.0,0.0
584,59.0,0.0,90.0,6.0,0.0
585,59.0,0.0,90.0,6.0,0.0
586,59.0,120.0,90.0,5.0,0.0
587,61.0,0.0,90.0,5.0,0.0
588,73.0,48.0,180.0,0.0,0.0
589,61.0,72.0,90.0,6.0,0.0
590,61.0,0.0,90.0,5.0,0.0
591,61.0,120.0,90.0,6.0,0.0
592,63.0,0.0,90.0,5.0,0.0
593,75.0,48.0,180.0,0.0,0.0
594,63.0,72.0,90.0,6.0,0.0
595,63.0,120.0,90.0,6.0,0.0
596,63.0,0.0,90.0,5.0,0.0
597,76.0,0.0,390.0,0.0,0.0
598,52.0,0.0,390.0,4.0,0.0
599,64.0,0.0,390.0,1.0,0.0
600,68.0,0.0,390.0,3.0,0.0
601,52.0,0.0,390.0,11.0,0.0
602,64.0,72.0,390.0,10.0,0.0
603,64.0,0.0,90.0,5.0,0.0
604,64.0,120.0,90.0,6.0,0.0
605,56.0,0.0,390.0,7.0,0.0
606,52.0,0.0,390.0,12.0,0.0
607,76.0,0.0,390.0,3.0,0.0
608,56.0,0.0,390.0,2.0,0.0
609,64.0,0.0,390.0,2.0,0.0
610,64.0,120.0,90.0,6.0,0.0
611,64.0,0.0,90.0,5.0,0.0
612,59.0,0.0,90.0,6.0,0.0
613,59.0,48.0,90.0,5.0,0.0
614,59.0,0.0,90.0,5.0,0.0
615,59.0,120.0,90.0,6.0,0.0
616,66.0,0.0,390.0,2.0,0.0
617,47.0,0.0,390.0,11.0,0.0
618,47.0,0.0,390.0,4.0,0.0
619,59.0,72.0,390.0,7.0,0.0
620,63.0,0.0,90.0,6.0,0.0
621,71.0,0.0,390.0,3.0,0.0
622,47.0,0.0,390.0,12.0,0.0
623,59.0,0.0,390.0,2.0,0.0
624,78.0,0.0,390.0,0.0,0.0
625,59.0,0.0,390.0,10.0,0.0
626,78.0,0.0,390.0,3.0,0.0
627,66.0,120.0,90.0,5.0,0.0
628,59.0,0.0,390.0,1.0,0.0
629,63.0,0.0,90.0,6.0,0.0
630,66.0,120.0,90.0,5.0,0.0
631,59.0,0.0,90.0,5.0,0.0
632,59.0,48.0,90.0,6.0,0.0
633,59.0,0.0,90.0,6.0,0.0
634,59.0,120.0,90.0,5.0,0.0
635,52.0,48.0,390.0,4.0,0.0
636,76.0,0.0,180.0,0.0,0.0
637,68.0,0.0,390.0,2.0,0.0
638,40.0,0.0,390.0,12.0,0.0
639,76.0,0.0,390.0,3.0,0.0
640,64.0,0.0,390.0,2.0,0.0
641,80.0,24.0,180.0,0.0,0.0
642,68.0,0.0,90.0,5.0,0.0
643,64.0,96.0,90.0,6.0,0.0
644,52.0,0.0,390.0,10.0,0.0
645,80.0,0.0,390.0,3.0,0.0
646,52.0,0.0,390.0,1.0,0.0
647,40.0,0.0,390.0,11.0,0.0
648,59.0,0.0,390.0,7.0,0.0
649,68.0,0.0,90.0,5.0,0.0
650,64.0,120.0,90.0,6.0,0.0
651,71.0,0.0,180.0,0.0,0.0
652,75.0,24.0,180.0,0.0,0.0
653,59.0,48.0,90.0,6.0,0.0
654,63.0,0.0,90.0,5.0,0.0
655,59.0,0.0,90.0,6.0,0.0
656,63.0,120.0,90.0,5.0,0.0
657,64.0,0.0,90.0,5.0,0.0
658,76.0,24.0,180.0,0.0,0.0
659,73.0,0.0,180.0,0.0,0.0
660,61.0,96.0,90.0,6.0,0.0
661,61.0,0.0,90.0,6.0,0.0
662,64.0,120.0,90.0,5.0,0.0
663,75.0,24.0,180.0,0.0,0.0
664,78.0,0.0,180.0,0.0,0.0
665,63.0,0.0,90.0,6.0,0.0
666,66.0,96.0,90.0,5.0,0.0
667,63.0,0.0,90.0,6.0,0.0
668,66.0,120.0,90.0,5.0,0.0
669,52.0,72.0,390.0,4.0,0.0
670,64.0,0.0,90.0,6.0,0.0
671,76.0,0.0,390.0,0.0,0.0
672,80.0,0.0,390.0,0.0,0.0
673,52.0,0.0,390.0,1.0,0.0
674,76.0,0.0,390.0,3.0,0.0
675,64.0,0.0,390.0,3.0,0.0
676,64.0,0.0,390.0,2.0,0.0
677,59.0,0.0,390.0,7.0,0.0
678,52.0,0.0,390.0,2.0,0.0
679,68.0,120.0,90.0,5.0,0.0
680,40.0,0.0,390.0,12.0,0.0
681,52.0,0.0,390.0,10.0,0.0
682,40.0,0.0,390.0,11.0,0.0
683,68.0,0.0,90.0,5.0,0.0
684,64.0,120.0,90.0,6.0,0.0
685,64.0,48.0,90.0,5.0,0.0
686,59.0,0.0,90.0,6.0,0.0
687,59.0,120.0,90.0,6.0,0.0
688,64.0,0.0,90.0,5.0,0.0
689,59.0,0.0,390.0,7.0,0.0
690,52.0,0.0,390.0,12.0,0.0
691,52.0,0.0,390.0,11.0,0.0
692,81.0,0.0,390.0,0.0,0.0
693,64.0,0.0,390.0,1.0,0.0
694,64.0,0.0,390.0,2.0,0.0
695,52.0,0.0,390.0,2.0,0.0
696,52.0,72.0,390.0,4.0,0.0
697,64.0,0.0,390.0,10.0,0.0
698,76.0,0.0,390.0,3.0,0.0
699,64.0,0.0,390.0,3.0,0.0
700,69.0,0.0,90.0,5.0,0.0
701,78.0,0.0,390.0,0.0,0.0
702,66.0,120.0,90.0,6.0,0.0
703,69.0,0.0,90.0,5.0,0.0
704,66.0,120.0,90.0,6.0,0.0
705,66.0,48.0,90.0,5.0,0.0
706,59.0,0.0,90.0,6.0,0.0
707,66.0,0.0,90.0,5.0,0.0
708,59.0,120.0,90.0,6.0,0.0
709,52.0,0.0,390.0,10.0,0.0
710,59.0,0.0,390.0,7.0,0.0
711,71.0,120.0,90.0,5.0,0.0
712,76.0,0.0,390.0,3.0,0.0
713,64.0,0.0,390.0,3.0,0.0
714,52.0,144.0,1740.0,2.0,0.0
715,64.0,0.0,1740.0,2.0,0.0
716,83.0,0.0,1740.0,0.0,0.0
717,40.0,0.0,390.0,11.0,0.0
718,52.0,0.0,390.0,4.0,0.0
719,80.0,0.0,1740.0,0.0,0.0
720,52.0,0.0,390.0,1.0,0.0
721,68.0,0.0,90.0,6.0,0.0
722,40.0,72.0,390.0,12.0,0.0
723,64.0,0.0,90.0,6.0,0.0
724,64.0,120.0,90.0,5.0,0.0
725,66.0,0.0,90.0,5.0,0.0
726,66.0,48.0,90.0,6.0,0.0
727,68.0,120.0,90.0,6.0,0.0
728,68.0,0.0,90.0,5.0,0.0
729,69.0,120.0,90.0,5.0,0.0
730,69.0,0.0,90.0,6.0,0.0
731,71.0,0.0,90.0,6.0,0.0
732,71.0,120.0,90.0,5.0,0.0
733,73.0,120.0,90.0,5.0,0.0
734,73.0,0.0,90.0,6.0,0.0
735,75.0,120.0,90.0,6.0,0.0
736,75.0,0.0,90.0,5.0,0.0
737,76.0,0.0,90.0,5.0,0.0
738,76.0,120.0,90.0,6.0,0.0
739,78.0,120.0,90.0,5.0,0.0
740,78.0,0.0,90.0,6.0,0.0
741,80.0,120.0,90.0,6.0,0.0
742,80.0,0.0,90.0,5.0,0.0
743,81.0,0.0,90.0,6.0,0.0
744,81.0,216.0,90.0,5.0,0.0
745,83.0,0.0,180.0,5.0,0.0
746,83.0,96.0,180.0,6.0,0.0
747,76.0,0.0,180.0,5.0,0.0
748,76.0,312.0,180.0,6.0,0.0
749,85.0,0.0,270.0,0.0,0.0
750,81.0,0.0,270.0,0.0,0.0
751,52.0,0.0,270.0,2.0,0.0
752,69.0,0.0,270.0,5.0,0.0
753,76.0,0.0,270.0,5.0,0.0
754,45.0,0.0,270.0,11.0,0.0
755,57.0,0.0,270.0,10.0,0.0
756,57.0,0.0,270.0,1.0,0.0
757,64.0,0.0,270.0,3.0,0.0
758,45.0,0.0,270.0,12.0,0.0
759,64.0,0.0,270.0,2.0,0.0
760,85.0,0.0,270.0,5.0,0.0
761,76.0,0.0,270.0,3.0,0.0
762,69.0,0.0,270.0,7.0,0.0
763,52.0,0.0,270.0,4.0,0.0
764,69.0,0.0,270.0,6.0,0.0
765,76.0,480.0,270.0,6.0,0.0
766,85.0,0.0,270.0,6.0,0.0
767,52.0,0.0,270.0,4.0,0.0
768,83.0,0.0,270.0,6.0,0.0
769,76.0,0.0,270.0,6.0,0.0
770,68.0,0.0,270.0,6.0,0.0
771,64.0,0.0,270.0,3.0,0.0
772,83.0,0.0,270.0,5.0,0.0
773,80.0,0.0,270.0,0.0,0.0
774,40.0,0.0,270.0,12.0,0.0
775,52.0,0.0,270.0,10.0,0.0
776,76.0,0.0,270.0,5.0,0.0
777,68.0,0.0,270.0,5.0,0.0
778,52.0,0.0,270.0,1.0,0.0
779,83.0,0.0,270.0,0.0,0.0
780,76.0,0.0,270.0,3.0,0.0
781,64.0,816.0,270.0,7.0,0.0
782,52.0,0.0,270.0,2.0,0.0
783,64.0,0.0,270.0,2.0,0.0
784,40.0,0.0,270.0,11.0,0.0
785,85.0,120.0,120.0,5.0,0.0
786,83.0,120.0,120.0,5.0,0.0
787,81.0,96.0,120.0,5.0,0.0
788,80.0,216.0,90.0,5.0,0.0
789,80.0,192.0,240.0,5.0,0.0
790,69.0,0.0,180.0,7.0,0.0
791,76.0,48.0,180.0,6.0,0.0
792,78.0,0.0,180.0,5.0,0.0
793,69.0,240.0,180.0,7.0,0.0
794,76.0,0.0,180.0,6.0,0.0
795,76.0,0.0,180.0,6.0,0.0
796,78.0,192.0,720.0,5.0,0.0
797,69.0,240.0,180.0,7.0,0.0
798,69.0,240.0,180.0,7.0,0.0
799,76.0,0.0,180.0,6.0,0.0
800,75.0,48.0,180.0,6.0,0.0
801,71.0,0.0,180.0,7.0,0.0
802,79.0,192.0,240.0,5.0,0.0
803,75.0,48.0,180.0,6.0,0.0
804,71.0,0.0,180.0,7.0,0.0
805,75.0,48.0,180.0,6.0,0.0
806,71.0,0.0,240.0,7.0,0.0
807,80.0,192.0,240.0,5.0,0.0
808,72.0,192.0,240.0,7.0,0.0
809,68.0,48.0,180.0,6.0,0.0
810,75.0,0.0,180.0,5.0,0.0
811,68.0,0.0,180.0,6.0,0.0
812,73.0,48.0,180.0,7.0,0.0
813,78.0,192.0,240.0,5.0,0.0
814,77.0,192.0,240.0,5.0,0.0
815,68.0,0.0,180.0,6.0,0.0
816,61.0,48.0,180.0,7.0,0.0
817,68.0,240.0,180.0,6.0,0.0
818,61.0,0.0,180.0,7.0,0.0
819,76.0,120.0,720.0,5.0,0.0
820,68.0,0.0,180.0,6.0,0.0
821,61.0,240.0,180.0,7.0,0.0
822,73.0,0.0,240.0,6.0,0.0
823,58.0,48.0,180.0,7.0,0.0
824,70.0,48.0,180.0,7.0,0.0
825,78.0,72.0,120.0,5.0,0.0
826,75.0,0.0,120.0,6.0,0.0
827,80.0,0.0,120.0,5.0,0.0
828,76.0,144.0,120.0,6.0,0.0
829,75.0,0.0,150.0,6.0,0.0
830,78.0,48.0,150.0,5.0,0.0
831,70.0,192.0,180.0,7.0,0.0
832,76.0,0.0,150.0,5.0,0.0
833,73.0,48.0,150.0,6.0,0.0
834,70.0,288.0,180.0,7.0,0.0
835,75.0,0.0,240.0,5.0,0.0
836,71.0,192.0,240.0,6.0,0.0
837,71.0,96.0,780.0,7.0,0.0
838,78.0,288.0,180.0,5.0,0.0
839,75.0,0.0,180.0,6.0,0.0
840,75.0,48.0,390.0,6.0,0.0
841,78.0,48.0,240.0,5.0,0.0
842,83.0,168.0,180.0,5.0,0.0
843,83.0,120.0,120.0,5.0,0.0
844,68.0,96.0,780.0,7.0,0.0
845,75.0,144.0,480.0,6.0,0.0
846,82.0,120.0,120.0,5.0,0.0
847,83.0,120.0,120.0,5.0,0.0
848,82.0,0.0,120.0,5.0,0.0
849,83.0,144.0,150.0,5.0,0.0
850,71.0,192.0,390.0,6.0,0.0
851,77.0,0.0,150.0,5.0,0.0
852,66.0,0.0,90.0,7.0,0.0
853,78.0,72.0,390.0,5.0,0.0
854,70.0,120.0,90.0,6.0,0.0
855,66.0,120.0,90.0,7.0,0.0
856,66.0,0.0,90.0,6.0,0.0
857,66.0,0.0,90.0,6.0,0.0
858,66.0,48.0,90.0,7.0,0.0
859,66.0,0.0,90.0,6.0,0.0
860,66.0,120.0,90.0,7.0,0.0
861,66.0,120.0,90.0,7.0,0.0
862,66.0,0.0,90.0,6.0,0.0
863,66.0,0.0,90.0,7.0,0.0
864,66.0,120.0,90.0,6.0,0.0
865,66.0,0.0,90.0,6.0,0.0
866,66.0,120.0,90.0,7.0,0.0
867,66.0,0.0,90.0,6.0,0.0
868,66.0,120.0,90.0,7.0,0.0
869,66.0,0.0,180.0,2.0,0.0
870,76.0,0.0,180.0,0.0,0.0
871,42.0,0.0,180.0,11.0,0.0
872,66.0,72.0,90.0,6.0,0.0
873,82.0,24.0,180.0,0.0,0.0
874,66.0,0.0,90.0,7.0,0.0
875,66.0,0.0,330.0,5.0,0.0
876,54.0,0.0,180.0,10.0,0.0
877,42.0,0.0,180.0,12.0,0.0
878,58.0,0.0,180.0,1.0,0.0
879,78.0,0.0,330.0,3.0,0.0
880,61.0,24.0,180.0,1.0,0.0
881,73.0,0.0,330.0,5.0,0.0
882,82.0,0.0,330.0,5.0,0.0
883,66.0,120.0,90.0,6.0,0.0
884,66.0,0.0,90.0,7.0,0.0
885,54.0,0.0,180.0,12.0,0.0
886,58.0,0.0,180.0,1.0,0.0
887,61.0,24.0,180.0,1.0,0.0
888,54.0,0.0,180.0,11.0,0.0
889,66.0,72.0,90.0,7.0,0.0
890,66.0,0.0,180.0,2.0,0.0
891,66.0,0.0,90.0,6.0,0.0
892,76.0,0.0,180.0,0.0,0.0
893,82.0,0.0,180.0,0.0,0.0
894,66.0,24.0,180.0,10.0,0.0
895,66.0,120.0,90.0,7.0,0.0
896,66.0,0.0,90.0,6.0,0.0
897,73.0,72.0,330.0,5.0,0.0
898,82.0,0.0,330.0,5.0,0.0
899,66.0,0.0,330.0,5.0,0.0
900,42.0,0.0,180.0,11.0,0.0
901,76.0,0.0,180.0,0.0,0.0
902,78.0,0.0,330.0,3.0,0.0
903,66.0,72.0,90.0,6.0,0.0
904,66.0,0.0,90.0,7.0,0.0
905,42.0,24.0,180.0,12.0,0.0
906,61.0,0.0,180.0,1.0,0.0
907,58.0,0.0,180.0,1.0,0.0
908,54.0,0.0,180.0,10.0,0.0
909,82.0,0.0,180.0,0.0,0.0
910,66.0,24.0,180.0,2.0,0.0
911,66.0,120.0,90.0,7.0,0.0
912,66.0,0.0,90.0,6.0,0.0
913,66.0,24.0,180.0,2.0,0.0
914,66.0,0.0,90.0,7.0,0.0
915,66.0,24.0,180.0,10.0,0.0
916,66.0,0.0,90.0,6.0,0.0
917,58.0,0.0,180.0,1.0,0.0
918,76.0,0.0,180.0,0.0,0.0
919,54.0,0.0,180.0,11.0,0.0
920,82.0,0.0,180.0,0.0,0.0
921,61.0,0.0,180.0,1.0,0.0
922,54.0,0.0,180.0,12.0,0.0
923,66.0,120.0,90.0,7.0,0.0
924,66.0,0.0,90.0,6.0,0.0
925,66.0,120.0,90.0,7.0,0.0
926,59.0,0.0,390.0,1.0,0.0
927,63.0,0.0,390.0,1.0,0.0
928,78.0,72.0,390.0,3.0,0.0
929,66.0,0.0,90.0,6.0,0.0
930,42.0,0.0,390.0,11.0,0.0
931,66.0,0.0,390.0,5.0,0.0
932,83.0,0.0,390.0,5.0,0.0
933,75.0,0.0,390.0,5.0,0.0
934,75.0,0.0,390.0,0.0,0.0
935,83.0,0.0,390.0,0.0,0.0
936,66.0,0.0,390.0,2.0,0.0
937,54.0,0.0,390.0,10.0,0.0
938,42.0,0.0,390.0,12.0,0.0
939,66.0,0.0,90.0,7.0,0.0
940,66.0,120.0,90.0,6.0,0.0
941,66.0,48.0,90.0,7.0,0.0
942,66.0,0.0,90.0,6.0,0.0
943,66.0,0.0,90.0,7.0,0.0
944,66.0,120.0,90.0,6.0,0.0
945,66.0,120.0,90.0,7.0,0.0
946,66.0,0.0,90.0,6.0,0.0
947,66.0,0.0,90.0,7.0,0.0
948,66.0,120.0,90.0,6.0,0.0
949,66.0,0.0,90.0,7.0,0.0
950,66.0,120.0,90.0,6.0,0.0
951,66.0,120.0,90.0,6.0,0.0
952,66.0,0.0,90.0,7.0,0.0
953,54.0,0.0,180.0,10.0,0.0
954,83.0,0.0,180.0,0.0,0.0
955,42.0,24.0,180.0,11.0,0.0
956,63.0,24.0,180.0,1.0,0.0
957,66.0,0.0,330.0,5.0,0.0
958,42.0,0.0,180.0,12.0,0.0
959,83.0,0.0,330.0,5.0,0.0
960,75.0,0.0,330.0,5.0,0.0
961,66.0,72.0,90.0,7.0,0.0
962,75.0,0.0,180.0,0.0,0.0
963,78.0,0.0,330.0,3.0,0.0
964,66.0,0.0,180.0,2.0,0.0
965,59.0,0.0,180.0,1.0,0.0
966,66.0,0.0,90.0,6.0,0.0
967,66.0,0.0,90.0,7.0,0.0
968,66.0,120.0,90.0,6.0,0.0
969,54.0,0.0,180.0,11.0,0.0
970,66.0,0.0,180.0,2.0,0.0
971,66.0,24.0,180.0,10.0,0.0
972,83.0,0.0,180.0,0.0,0.0
973,54.0,0.0,180.0,12.0,0.0
974,66.0,72.0,90.0,7.0,0.0
975,66.0,0.0,90.0,6.0,0.0
976,75.0,0.0,180.0,0.0,0.0
977,59.0,24.0,180.0,1.0,0.0
978,63.0,0.0,180.0,1.0,0.0
979,66.0,0.0,90.0,7.0,0.0
980,66.0,120.0,90.0,6.0,0.0
981,75.0,0.0,330.0,5.0,0.0
982,66.0,0.0,330.0,5.0,0.0
983,83.0,0.0,330.0,5.0,0.0
984,42.0,0.0,180.0,11.0,0.0
985,54.0,0.0,180.0,10.0,0.0
986,75.0,0.0,180.0,0.0,0.0
987,83.0,0.0,180.0,0.0,0.0
988,66.0,0.0,90.0,6.0,0.0
989,63.0,0.0,180.0,1.0,0.0
990,59.0,0.0,180.0,1.0,0.0
991,42.0,24.0,180.0,12.0,0.0
992,78.0,0.0,330.0,3.0,0.0
993,66.0,72.0,90.0,7.0,0.0
994,66.0,24.0,180.0,2.0,0.0
995,66.0,0.0,90.0,6.0,0.0
996,66.0,120.0,90.0,7.0,0.0
997,54.0,0.0,180.0,11.0,0.0
998,54.0,0.0,180.0,12.0,0.0
999,66.0,72.0,90.0,6.0,0.0
1000,66.0,24.0,180.0,2.0,0.0
1001,59.0,0.0,180.0,1.0,0.0
1002,63.0,0.0,180.0,1.0,0.0
1003,66.0,24.0,180.0,10.0,0.0
1004,66.0,0.0,90.0,7.0,0.0
1005,75.0,0.0,180.0,0.0,0.0
1006,83.0,0.0,180.0,0.0,0.0
1007,66.0,120.0,90.0,7.0,0.0
1008,66.0,0.0,90.0,6.0,0.0
1009,66.0,0.0,90.0,6.0,0.0
1010,54.0,0.0,390.0,10.0,0.0
1011,82.0,0.0,390.0,5.0,0.0
1012,66.0,0.0,390.0,5.0,0.0
1013,85.0,0.0,390.0,5.0,0.0
1014,64.0,0.0,390.0,1.0,0.0
1015,61.0,0.0,390.0,1.0,0.0
1016,78.0,72.0,390.0,3.0,0.0
1017,66.0,120.0,90.0,7.0,0.0
1018,66.0,0.0,390.0,2.0,0.0
1019,85.0,0.0,390.0,0.0,0.0
1020,82.0,0.0,390.0,0.0,0.0
1021,42.0,0.0,390.0,11.0,0.0
1022,42.0,0.0,390.0,12.0,0.0
1023,66.0,120.0,90.0,6.0,0.0
1024,66.0,0.0,90.0,7.0,0.0
1025,66.0,0.0,90.0,7.0,0.0
1026,66.0,48.0,90.0,6.0,0.0
1027,66.0,0.0,90.0,7.0,0.0
1028,66.0,120.0,90.0,6.0,0.0
1029,66.0,0.0,90.0,6.0,0.0
1030,66.0,120.0,90.0,7.0,0.0
1031,66.0,0.0,90.0,6.0,0.0
1032,66.0,120.0,90.0,7.0,0.0
1033,66.0,120.0,90.0,7.0,0.0
1034,66.0,0.0,90.0,6.0,0.0
1035,66.0,120.0,90.0,7.0,0.0
1036,66.0,0.0,90.0,6.0,0.0
1037,61.0,0.0,180.0,1.0,0.0
1038,54.0,0.0,180.0,10.0,0.0
1039,82.0,0.0,180.0,0.0,0.0
1040,85.0,0.0,180.0,0.0,0.0
1041,78.0,72.0,330.0,3.0,0.0
1042,42.0,24.0,180.0,11.0,0.0
1043,64.0,0.0,180.0,1.0,0.0
1044,66.0,0.0,90.0,7.0,0.0
1045,42.0,0.0,180.0,12.0,0.0
1046,82.0,0.0,330.0,5.0,0.0
1047,66.0,0.0,330.0,5.0,0.0
1048,66.0,24.0,180.0,2.0,0.0
1049,66.0,72.0,90.0,6.0,0.0
1050,85.0,0.0,330.0,5.0,0.0
1051,66.0,0.0,90.0,7.0,0.0
1052,66.0,120.0,90.0,6.0,0.0
1053,66.0,0.0,180.0,2.0,0.0
1054,54.0,24.0,180.0,11.0,0.0
1055,66.0,0.0,180.0,10.0,0.0
1056,66.0,0.0,90.0,6.0,0.0
1057,85.0,0.0,180.0,0.0,0.0
1058,82.0,0.0,180.0,0.0,0.0
1059,64.0,0.0,180.0,1.0,0.0
1060,54.0,0.0,180.0,12.0,0.0
1061,66.0,0.0,90.0,7.0,0.0
1062,61.0,24.0,180.0,1.0,0.0
1063,66.0,0.0,90.0,7.0,0.0
1064,66.0,120.0,90.0,6.0,0.0
1065,42.0,24.0,180.0,11.0,0.0
1066,85.0,72.0,330.0,5.0,0.0
1067,66.0,0.0,90.0,6.0,0.0
1068,66.0,0.0,330.0,5.0,0.0
1069,82.0,0.0,330.0,5.0,0.0
1070,61.0,0.0,180.0,1.0,0.0
1071,66.0,24.0,180.0,2.0,0.0
1072,64.0,0.0,180.0,1.0,0.0
1073,66.0,72.0,90.0,7.0,0.0
1074,42.0,0.0,180.0,12.0,0.0
1075,78.0,0.0,330.0,3.0,0.0
1076,85.0,0.0,180.0,0.0,0.0
1077,82.0,0.0,180.0,0.0,0.0
1078,54.0,0.0,180.0,10.0,0.0
1079,66.0,0.0,90.0,7.0,0.0
1080,66.0,120.0,90.0,6.0,0.0
1081,66.0,24.0,180.0,10.0,0.0
1082,54.0,0.0,180.0,12.0,0.0
1083,66.0,0.0,180.0,2.0,0.0
1084,54.0,0.0,180.0,11.0,0.0
1085,85.0,0.0,180.0,0.0,0.0
1086,66.0,0.0,90.0,6.0,0.0
1087,82.0,0.0,180.0,0.0,0.0
1088,64.0,24.0,180.0,1.0,0.0
1089,61.0,0.0,180.0,1.0,0.0
1090,66.0,0.0,90.0,7.0,0.0
1091,66.0,120.0,90.0,6.0,0.0
1092,66.0,0.0,90.0,7.0,0.0
1093,42.0,0.0,390.0,12.0,0.0
1094,83.0,0.0,390.0,5.0,0.0
1095,54.0,0.0,390.0,10.0,0.0
1096,59.0,0.0,390.0,1.0,0.0
1097,66.0,0.0,390.0,2.0,0.0
1098,87.0,0.0,390.0,0.0,0.0
1099,83.0,0.0,390.0,0.0,0.0
1100,66.0,0.0,90.0,7.0,0.0
1101,42.0,72.0,390.0,11.0,0.0
1102,63.0,0.0,390.0,1.0,0.0
1103,87.0,0.0,390.0,5.0,0.0
1104,78.0,0.0,390.0,3.0,0.0
1105,66.0,0.0,390.0,5.0,0.0
1106,66.0,120.0,90.0,6.0,0.0
1107,66.0,0.0,90.0,7.0,0.0
1108,66.0,120.0,90.0,6.0,0.0
1109,66.0,48.0,90.0,7.0,0.0
1110,66.0,0.0,90.0,6.0,0.0
1111,66.0,0.0,90.0,6.0,0.0
1112,66.0,120.0,90.0,7.0,0.0
1113,66.0,0.0,90.0,6.0,0.0
1114,66.0,120.0,90.0,7.0,0.0
1115,66.0,120.0,90.0,7.0,0.0
1116,66.0,0.0,90.0,6.0,0.0
1117,66.0,120.0,90.0,7.0,0.0
1118,66.0,0.0,90.0,6.0,0.0
1119,66.0,0.0,90.0,7.0,0.0
1120,66.0,120.0,90.0,6.0,0.0
1121,66.0,0.0,90.0,6.0,0.0
1122,59.0,0.0,180.0,1.0,0.0
1123,83.0,0.0,330.0,5.0,0.0
1124,66.0,0.0,330.0,5.0,0.0
1125,87.0,0.0,330.0,5.0,0.0
1126,66.0,24.0,180.0,2.0,0.0
1127,63.0,0.0,180.0,1.0,0.0
1128,78.0,0.0,330.0,3.0,0.0
1129,87.0,0.0,180.0,0.0,0.0
1130,66.0,72.0,90.0,7.0,0.0
1131,54.0,24.0,180.0,10.0,0.0
1132,42.0,0.0,180.0,11.0,0.0
1133,42.0,0.0,180.0,12.0,0.0
1134,83.0,0.0,180.0,0.0,0.0
1135,66.0,120.0,90.0,7.0,0.0
1136,66.0,0.0,90.0,6.0,0.0
1137,54.0,0.0,180.0,11.0,0.0
1138,54.0,0.0,180.0,12.0,0.0
1139,66.0,0.0,90.0,6.0,0.0
1140,66.0,72.0,90.0,7.0,0.0
1141,87.0,0.0,180.0,0.0,0.0
1142,66.0,24.0,180.0,10.0,0.0
1143,83.0,24.0,180.0,0.0,0.0
1144,59.0,0.0,180.0,1.0,0.0
1145,66.0,0.0,180.0,2.0,0.0
1146,63.0,0.0,180.0,1.0,0.0
1147,66.0,120.0,90.0,6.0,0.0
1148,66.0,0.0,90.0,7.0,0.0
1149,83.0,0.0,330.0,5.0,0.0
1150,87.0,0.0,330.0,5.0,0.0
1151,66.0,72.0,330.0,5.0,0.0
1152,78.0,0.0,330.0,3.0,0.0
1153,42.0,0.0,180.0,12.0,0.0
1154,59.0,0.0,180.0,1.0,0.0
1155,66.0,72.0,90.0,6.0,0.0
1156,54.0,0.0,180.0,10.0,0.0
1157,63.0,0.0,180.0,1.0,0.0
1158,42.0,24.0,180.0,11.0,0.0
1159,66.0,0.0,90.0,7.0,0.0
1160,66.0,0.0,180.0,2.0,0.0
1161,83.0,24.0,180.0,0.0,0.0
1162,87.0,0.0,180.0,0.0,0.0
1163,66.0,0.0,90.0,7.0,0.0
1164,66.0,120.0,90.0,6.0,0.0
1165,66.0,0.0,90.0,6.0,0.0
1166,87.0,0.0,180.0,0.0,0.0
1167,63.0,0.0,180.0,1.0,0.0
1168,59.0,0.0,180.0,1.0,0.0
1169,54.0,0.0,180.0,11.0,0.0
1170,83.0,24.0,180.0,0.0,0.0
1171,66.0,0.0,180.0,2.0,0.0
1172,66.0,0.0,180.0,10.0,0.0
1173,66.0,0.0,90.0,7.0,0.0
1174,54.0,24.0,180.0,12.0,0.0
1175,66.0,408.0,90.0,7.0,0.0
1176,66.0,0.0,90.0,6.0,0.0
1177,54.0,0.0,390.0,10.0,0.0
1178,42.0,336.0,390.0,11.0,0.0
1179,88.0,0.0,390.0,0.0,0.0
1180,85.0,0.0,390.0,0.0,0.0
1181,61.0,0.0,390.0,1.0,0.0
1182,42.0,0.0,390.0,12.0,0.0
1183,58.0,0.0,390.0,1.0,0.0
1184,61.0,0.0,390.0,7.0,0.0
1185,78.0,0.0,390.0,3.0,0.0
1186,88.0,0.0,720.0,5.0,0.0
1187,70.0,0.0,390.0,7.0,0.0
1188,66.0,0.0,390.0,2.0,0.0
1189,76.0,240.0,720.0,6.0,0.0
1190,73.0,0.0,240.0,6.0,0.0
1191,85.0,240.0,240.0,5.0,0.0
1192,83.0,240.0,240.0,5.0,0.0
1193,71.0,0.0,240.0,6.0,0.0
1194,70.0,240.0,240.0,6.0,0.0
1195,82.0,0.0,240.0,5.0,0.0
1196,80.0,228.0,240.0,5.0,0.0
1197,68.0,0.0,240.0,6.0,0.0
1198,66.0,0.0,240.0,6.0,0.0
1199,78.0,252.0,240.0,5.0,0.0
1200,65.0,240.0,240.0,6.0,0.0
1201,77.0,0.0,240.0,5.0,0.0
1202,78.0,0.0,240.0,5.0,0.0
1203,66.0,240.0,240.0,6.0,0.0
1204,80.0,0.0,240.0,5.0,0.0
1205,68.0,228.0,240.0,6.0,0.0
1206,78.0,0.0,240.0,5.0,0.0
1207,66.0,252.0,240.0,6.0,0.0
1208,78.0,0.0,240.0,5.0,0.0
1209,66.0,240.0,240.0,6.0,0.0
1210,77.0,0.0,240.0,5.0,0.0
1211,65.0,240.0,240.0,6.0,0.0
1212,64.0,0.0,240.0,6.0,0.0
1213,76.0,192.0,240.0,5.0,0.0
1214,61.0,0.0,180.0,6.0,0.0
1215,73.0,816.0,180.0,5.0,0.0
1216,59.0,0.0,3780.0,10.0,0.0
1217,47.0,0.0,3780.0,11.0,0.0
1218,59.0,0.0,3780.0,7.0,0.0
1219,47.0,288.0,3780.0,12.0,0.0
1220,71.0,252.0,780.0,5.0,0.0
1221,63.0,0.0,780.0,6.0,0.0
1222,66.0,0.0,60.0,6.0,0.0
1223,75.0,180.0,60.0,5.0,0.0
1224,64.0,0.0,180.0,6.0,0.0
1225,73.0,240.0,180.0,5.0,0.0
1226,63.0,0.0,240.0,6.0,0.0
1227,71.0,240.0,240.0,5.0,0.0
1228,64.0,0.0,240.0,6.0,0.0
1229,73.0,192.0,240.0,5.0,0.0
1230,75.0,0.0,180.0,5.0,0.0
1231,66.0,336.0,180.0,6.0,0.0
1232,63.0,1152.0,300.0,6.0,0.0
1233,71.0,0.0,300.0,5.0,0.0
1234,76.0,0.0,960.0,5.0,0.0
1235,68.0,384.0,960.0,6.0,0.0
1236,75.0,0.0,390.0,5.0,0.0
1237,66.0,48.0,390.0,6.0,0.0
1238,64.0,144.0,300.0,10.0,0.0
1239,52.0,0.0,300.0,12.0,0.0
1240,68.0,0.0,300.0,7.0,0.0
1241,75.0,48.0,240.0,5.0,0.0
1242,52.0,0.0,300.0,11.0,0.0
1243,68.0,0.0,300.0,6.0,0.0
1244,73.0,288.0,180.0,5.0,0.0
1245,73.0,192.0,240.0,5.0,0.0
1246,51.0,0.0,480.0,11.0,0.0
1247,51.0,0.0,480.0,12.0,0.0
1248,66.0,0.0,480.0,7.0,0.0
1249,69.0,240.0,480.0,6.0,0.0
1250,63.0,0.0,480.0,10.0,0.0
1251,72.0,48.0,180.0,5.0,0.0
1252,64.0,0.0,300.0,10.0,0.0
1253,75.0,48.0,240.0,5.0,0.0
1254,52.0,0.0,300.0,12.0,0.0
1255,68.0,0.0,300.0,6.0,0.0
1256,68.0,144.0,300.0,7.0,0.0
1257,52.0,0.0,300.0,11.0,0.0
1258,73.0,288.0,180.0,5.0,0.0
1259,66.0,0.0,480.0,7.0,0.0
1260,73.0,192.0,240.0,5.0,0.0
1261,63.0,0.0,480.0,10.0,0.0
1262,69.0,0.0,480.0,6.0,0.0
1263,51.0,0.0,480.0,12.0,0.0
1264,51.0,240.0,480.0,11.0,0.0
1265,72.0,48.0,180.0,5.0,0.0
1266,52.0,0.0,300.0,11.0,0.0
1267,68.0,144.0,300.0,7.0,0.0
1268,52.0,0.0,300.0,12.0,0.0
1269,68.0,0.0,960.0,6.0,0.0
1270,64.0,0.0,300.0,10.0,0.0
1271,75.0,48.0,240.0,5.0,0.0
1272,73.0,288.0,180.0,5.0,0.0
1273,64.0,0.0,480.0,10.0,0.0
1274,52.0,0.0,480.0,11.0,0.0
1275,52.0,240.0,480.0,12.0,0.0
1276,61.0,0.0,870.0,7.0,0.0
1277,73.0,192.0,240.0,5.0,0.0
1278,71.0,48.0,180.0,5.0,0.0
1279,54.0,0.0,390.0,11.0,0.0
1280,71.0,144.0,240.0,5.0,0.0
1281,66.0,0.0,390.0,10.0,0.0
1282,54.0,0.0,390.0,12.0,0.0
1283,66.0,48.0,390.0,6.0,0.0
1284,70.0,288.0,180.0,5.0,0.0
1285,68.0,192.0,240.0,5.0,0.0
1286,66.0,816.0,180.0,5.0,0.0
1287,71.0,0.0,780.0,5.0,0.0
1288,59.0,0.0,3780.0,7.0,0.0
1289,47.0,96.0,3270.0,2.0,0.0
1290,47.0,288.0,3780.0,11.0,0.0
1291,59.0,0.0,3270.0,2.0,0.0
1292,83.0,252.0,780.0,0.0,0.0
1293,63.0,0.0,780.0,6.0,0.0
1294,59.0,0.0,3780.0,10.0,0.0
1295,47.0,0.0,3780.0,12.0,0.0
1296,63.0,0.0,780.0,1.0,0.0
1297,75.0,180.0,60.0,5.0,0.0
1298,87.0,0.0,60.0,0.0,0.0
1299,66.0,0.0,60.0,1.0,0.0
1300,66.0,0.0,60.0,6.0,0.0
1301,85.0,0.0,180.0,0.0,0.0
1302,64.0,0.0,180.0,1.0,0.0
1303,64.0,240.0,180.0,6.0,0.0
1304,73.0,0.0,180.0,5.0,0.0
1305,63.0,240.0,240.0,1.0,0.0
1306,71.0,0.0,240.0,5.0,0.0
1307,83.0,0.0,240.0,0.0,0.0
1308,63.0,0.0,240.0,6.0,0.0
1309,64.0,0.0,240.0,6.0,0.0
1310,73.0,0.0,240.0,5.0,0.0
1311,64.0,192.0,240.0,1.0,0.0
1312,85.0,0.0,240.0,0.0,0.0
1313,66.0,0.0,180.0,6.0,0.0
1314,87.0,0.0,180.0,0.0,0.0
1315,75.0,0.0,180.0,5.0,0.0
1316,66.0,336.0,180.0,1.0,0.0
1317,63.0,0.0,300.0,1.0,0.0
1318,63.0,0.0,300.0,6.0,0.0
1319,83.0,0.0,300.0,0.0,0.0
1320,71.0,1056.0,300.0,5.0,0.0
1321,68.0,384.0,960.0,1.0,0.0
1322,76.0,0.0,960.0,5.0,0.0
1323,88.0,0.0,960.0,0.0,0.0
1324,68.0,0.0,960.0,6.0,0.0
1325,66.0,48.0,390.0,6.0,0.0
1326,66.0,0.0,390.0,1.0,0.0
1327,75.0,0.0,390.0,5.0,0.0
1328,87.0,0.0,390.0,0.0,0.0
1329,75.0,192.0,240.0,5.0,0.0
1330,42.0,0.0,480.0,11.0,0.0
1331,64.0,0.0,480.0,1.0,0.0
1332,87.0,0.0,240.0,0.0,0.0
1333,64.0,0.0,480.0,7.0,0.0
1334,42.0,240.0,480.0,12.0,0.0
1335,70.0,0.0,480.0,6.0,0.0
1336,54.0,0.0,480.0,10.0,0.0
1337,85.0,0.0,180.0,0.0,0.0
1338,73.0,48.0,180.0,5.0,0.0
1339,56.0,0.0,450.0,10.0,0.0
1340,85.0,0.0,240.0,0.0,0.0
1341,44.0,0.0,450.0,11.0,0.0
1342,63.0,0.0,450.0,7.0,0.0
1343,63.0,0.0,450.0,1.0,0.0
1344,71.0,0.0,450.0,6.0,0.0
1345,44.0,264.0,450.0,12.0,0.0
1346,73.0,192.0,240.0,5.0,0.0
1347,83.0,0.0,180.0,0.0,0.0
1348,71.0,24.0,180.0,5.0,0.0
1349,64.0,0.0,480.0,1.0,0.0
1350,52.0,0.0,480.0,10.0,0.0
1351,64.0,240.0,480.0,7.0,0.0
1352,75.0,192.0,240.0,5.0,0.0
1353,87.0,0.0,240.0,0.0,0.0
1354,68.0,0.0,480.0,6.0,0.0
1355,40.0,0.0,480.0,11.0,0.0
1356,40.0,0.0,480.0,12.0,0.0
1357,85.0,0.0,180.0,0.0,0.0
1358,73.0,48.0,180.0,5.0,0.0
1359,85.0,0.0,240.0,0.0,0.0
1360,42.0,0.0,450.0,11.0,0.0
1361,73.0,192.0,240.0,5.0,0.0
1362,42.0,0.0,450.0,12.0,0.0
1363,64.0,0.0,450.0,6.0,0.0
1364,54.0,168.0,450.0,10.0,0.0
1365,61.0,0.0,450.0,1.0,0.0
1366,61.0,0.0,450.0,7.0,0.0
1367,82.0,24.0,180.0,0.0,0.0
1368,70.0,0.0,180.0,5.0,0.0
1369,63.0,0.0,390.0,1.0,0.0
1370,59.0,0.0,390.0,7.0,0.0
1371,35.0,0.0,390.0,11.0,0.0
1372,63.0,0.0,390.0,6.0,0.0
1373,35.0,0.0,390.0,12.0,0.0
1374,71.0,240.0,150.0,5.0,0.0
1375,47.0,96.0,390.0,10.0,0.0
1376,83.0,0.0,390.0,0.0,0.0
1377,71.0,240.0,240.0,5.0,0.0
1378,70.0,192.0,240.0,5.0,0.0
1379,71.0,432.0,180.0,5.0,0.0
1380,59.0,0.0,1920.0,1.0,0.0
1381,51.0,0.0,390.0,11.0,0.0
1382,71.0,384.0,1920.0,7.0,0.0
1383,63.0,96.0,390.0,10.0,0.0
1384,51.0,0.0,390.0,12.0,0.0
1385,71.0,240.0,240.0,5.0,0.0
1386,73.0,192.0,240.0,5.0,0.0
1387,75.0,432.0,180.0,5.0,0.0
1388,61.0,96.0,390.0,10.0,0.0
1389,49.0,0.0,390.0,12.0,0.0
1390,49.0,0.0,390.0,11.0,0.0
1391,76.0,240.0,240.0,5.0,0.0
1392,75.0,192.0,240.0,5.0,0.0
1393,76.0,48.0,180.0,5.0,0.0
1394,58.0,384.0,960.0,1.0,0.0
1395,42.0,0.0,390.0,12.0,0.0
1396,42.0,0.0,390.0,11.0,0.0
1397,70.0,0.0,960.0,7.0,0.0
1398,54.0,96.0,390.0,10.0,0.0
1399,80.0,240.0,240.0,5.0,0.0
1400,78.0,192.0,240.0,5.0,0.0
1401,76.0,48.0,180.0,5.0,0.0
1402,59.0,144.0,780.0,1.0,0.0
1403,59.0,0.0,390.0,10.0,0.0
1404,47.0,0.0,390.0,11.0,0.0
1405,47.0,96.0,390.0,12.0,0.0
1406,71.0,0.0,780.0,7.0,0.0
1407,75.0,240.0,240.0,5.0,0.0
1408,73.0,48.0,240.0,5.0,0.0
1409,71.0,432.0,180.0,5.0,0.0
1410,58.0,96.0,390.0,10.0,0.0
1411,46.0,0.0,390.0,11.0,0.0
1412,46.0,0.0,390.0,12.0,0.0
1413,73.0,384.0,960.0,7.0,0.0
1414,78.0,0.0,1920.0,5.0,0.0
1415,66.0,0.0,1920.0,1.0,0.0
1416,78.0,240.0,240.0,6.0,0.0
1417,80.0,192.0,240.0,6.0,0.0
1418,82.0,48.0,180.0,6.0,0.0
1419,75.0,384.0,960.0,7.0,0.0
1420,44.0,0.0,390.0,12.0,0.0
1421,44.0,96.0,390.0,11.0,0.0
1422,56.0,0.0,390.0,10.0,0.0
1423,83.0,240.0,240.0,6.0,0.0
1424,82.0,192.0,240.0,6.0,0.0
1425,83.0,48.0,180.0,6.0,0.0
1426,77.0,384.0,960.0,5.0,0.0
1427,65.0,0.0,960.0,1.0,0.0
1428,37.0,0.0,390.0,12.0,0.0
1429,37.0,0.0,390.0,11.0,0.0
1430,73.0,0.0,1740.0,7.0,0.0
1431,49.0,96.0,390.0,10.0,0.0
1432,87.0,240.0,240.0,6.0,0.0
1433,85.0,192.0,240.0,6.0,0.0
1434,83.0,48.0,180.0,6.0,0.0
1435,42.0,96.0,390.0,12.0,0.0
1436,66.0,144.0,780.0,1.0,0.0
1437,54.0,0.0,390.0,10.0,0.0
1438,42.0,0.0,390.0,11.0,0.0
1439,76.0,0.0,780.0,5.0,0.0
1440,82.0,240.0,240.0,6.0,0.0
1441,80.0,48.0,240.0,6.0,0.0
1442,78.0,432.0,180.0,6.0,0.0
1443,44.0,96.0,390.0,11.0,0.0
1444,83.0,0.0,1920.0,6.0,0.0
1445,71.0,384.0,1920.0,0.0,0.0
1446,75.0,144.0,780.0,5.0,0.0
1447,56.0,0.0,390.0,10.0,0.0
1448,44.0,0.0,390.0,12.0,0.0
1449,59.0,240.0,240.0,7.0,0.0
1450,61.0,48.0,240.0,7.0,0.0
1451,63.0,432.0,180.0,7.0,0.0
1452,37.0,96.0,390.0,11.0,0.0
1453,49.0,0.0,390.0,10.0,0.0
1454,37.0,0.0,390.0,12.0,0.0
1455,73.0,0.0,1920.0,5.0,0.0
1456,64.0,240.0,240.0,7.0,0.0
1457,63.0,192.0,240.0,7.0,0.0
1458,64.0,48.0,180.0,7.0,0.0
1459,82.0,0.0,960.0,6.0,0.0
1460,42.0,0.0,390.0,11.0,0.0
1461,70.0,384.0,960.0,0.0,0.0
1462,42.0,96.0,390.0,12.0,0.0
1463,54.0,0.0,390.0,10.0,0.0
1464,68.0,240.0,240.0,7.0,0.0
1465,66.0,192.0,240.0,7.0,0.0
1466,64.0,48.0,180.0,7.0,0.0
1467,71.0,0.0,780.0,5.0,0.0
1468,35.0,0.0,390.0,12.0,0.0
1469,83.0,0.0,780.0,6.0,0.0
1470,47.0,0.0,390.0,10.0,0.0
1471,71.0,144.0,780.0,0.0,0.0
1472,35.0,96.0,390.0,11.0,0.0
1473,63.0,240.0,240.0,7.0,0.0
1474,61.0,48.0,240.0,7.0,0.0
1475,59.0,528.0,180.0,7.0,0.0
1476,82.0,0.0,960.0,6.0,0.0
1477,78.0,0.0,1920.0,0.0,0.0
1478,66.0,0.0,1920.0,7.0,0.0
1479,73.0,0.0,960.0,5.0,0.0
1480,42.0,0.0,240.0,11.0,0.0
1481,54.0,240.0,240.0,10.0,0.0
1482,42.0,0.0,240.0,12.0,0.0
1483,44.0,192.0,240.0,12.0,0.0
1484,44.0,0.0,240.0,11.0,0.0
1485,56.0,0.0,240.0,10.0,0.0
1486,46.0,0.0,180.0,11.0,0.0
1487,46.0,48.0,180.0,12.0,0.0
1488,58.0,480.0,240.0,10.0,0.0
1489,80.0,0.0,1920.0,6.0,0.0
1490,75.0,0.0,960.0,5.0,0.0
1491,47.0,0.0,240.0,11.0,0.0
1492,59.0,0.0,240.0,10.0,0.0
1493,47.0,240.0,240.0,12.0,0.0
1494,58.0,0.0,240.0,10.0,0.0
1495,46.0,0.0,240.0,11.0,0.0
1496,46.0,192.0,240.0,12.0,0.0
1497,59.0,480.0,240.0,10.0,0.0
1498,47.0,0.0,180.0,11.0,0.0
1499,47.0,48.0,180.0,12.0,0.0
1500,77.0,480.0,960.0,0.0,0.0
1501,65.0,0.0,960.0,7.0,0.0
1502,68.0,0.0,960.0,5.0,0.0
1503,51.0,240.0,240.0,11.0,0.0
1504,63.0,0.0,240.0,10.0,0.0
1505,51.0,0.0,240.0,12.0,0.0
1506,49.0,192.0,240.0,12.0,0.0
1507,49.0,0.0,240.0,11.0,0.0
1508,61.0,0.0,240.0,10.0,0.0
1509,59.0,0.0,240.0,10.0,0.0
1510,47.0,0.0,180.0,11.0,0.0
1511,47.0,48.0,180.0,12.0,0.0
1512,73.0,0.0,780.0,5.0,0.0
1513,78.0,0.0,780.0,0.0,0.0
1514,66.0,144.0,780.0,7.0,0.0
1515,78.0,0.0,780.0,6.0,0.0
1516,46.0,0.0,240.0,12.0,0.0
1517,58.0,0.0,240.0,10.0,0.0
1518,46.0,240.0,240.0,11.0,0.0
1519,56.0,48.0,240.0,10.0,0.0
1520,44.0,0.0,240.0,12.0,0.0
1521,44.0,0.0,240.0,11.0,0.0
1522,54.0,480.0,240.0,10.0,0.0
1523,42.0,48.0,180.0,11.0,0.0
1524,42.0,0.0,180.0,12.0,0.0
1525,59.0,144.0,780.0,2.0,0.0
1526,71.0,0.0,1860.0,0.0,0.0
1527,83.0,0.0,1860.0,0.0,0.0
1528,51.0,0.0,960.0,12.0,0.0
1529,71.0,0.0,1860.0,7.0,0.0
1530,51.0,0.0,960.0,11.0,0.0
1531,66.0,0.0,780.0,2.0,0.0
1532,63.0,0.0,960.0,1.0,0.0
1533,63.0,480.0,960.0,10.0,0.0
1534,83.0,0.0,240.0,5.0,0.0
1535,71.0,240.0,240.0,6.0,0.0
1536,85.0,0.0,240.0,5.0,0.0
1537,73.0,48.0,240.0,6.0,0.0
1538,87.0,48.0,180.0,5.0,0.0
1539,75.0,0.0,180.0,6.0,0.0
1540,61.0,0.0,900.0,10.0,0.0
1541,49.0,0.0,900.0,11.0,0.0
1542,64.0,0.0,780.0,2.0,0.0
1543,68.0,144.0,780.0,2.0,0.0
1544,49.0,0.0,900.0,12.0,0.0
1545,61.0,0.0,900.0,1.0,0.0
1546,76.0,0.0,240.0,6.0,0.0
1547,88.0,240.0,240.0,5.0,0.0
1548,87.0,0.0,240.0,5.0,0.0
1549,75.0,48.0,240.0,6.0,0.0
1550,88.0,528.0,180.0,5.0,0.0
1551,76.0,0.0,180.0,6.0,0.0
1552,70.0,0.0,960.0,0.0,0.0
1553,70.0,0.0,960.0,7.0,0.0
1554,54.0,0.0,960.0,10.0,0.0
1555,42.0,0.0,960.0,12.0,0.0
1556,42.0,0.0,960.0,11.0,0.0
1557,82.0,0.0,960.0,0.0,0.0
1558,54.0,480.0,960.0,1.0,0.0
1559,66.0,144.0,780.0,2.0,0.0
1560,92.0,0.0,240.0,5.0,0.0
1561,80.0,240.0,240.0,6.0,0.0
1562,90.0,48.0,240.0,5.0,0.0
1563,78.0,0.0,240.0,6.0,0.0
1564,76.0,0.0,180.0,6.0,0.0
1565,88.0,48.0,180.0,5.0,0.0
1566,59.0,0.0,780.0,2.0,0.0
1567,66.0,0.0,780.0,2.0,0.0
1568,71.0,0.0,780.0,0.0,0.0
1569,47.0,0.0,780.0,11.0,0.0
1570,83.0,144.0,780.0,0.0,0.0
1571,59.0,0.0,780.0,1.0,0.0
1572,71.0,0.0,780.0,7.0,0.0
1573,47.0,0.0,780.0,12.0,0.0
1574,59.0,0.0,780.0,10.0,0.0
1575,87.0,240.0,240.0,5.0,0.0
1576,75.0,0.0,240.0,6.0,0.0
1577,85.0,48.0,240.0,5.0,0.0
1578,73.0,0.0,240.0,6.0,0.0
1579,71.0,0.0,180.0,6.0,0.0
1580,83.0,528.0,180.0,5.0,0.0
1581,90.0,0.0,1860.0,0.0,0.0
1582,78.0,0.0,900.0,0.0,0.0
1583,66.0,0.0,1860.0,1.0,0.0
1584,90.0,0.0,570.0,5.0,0.0
1585,90.0,144.0,570.0,6.0,0.0
1586,47.0,0.0,240.0,12.0,0.0
1587,47.0,0.0,240.0,11.0,0.0
1588,71.0,0.0,240.0,7.0,0.0
1589,59.0,96.0,240.0,10.0,0.0
1590,73.0,0.0,240.0,7.0,0.0
1591,49.0,168.0,240.0,11.0,0.0
1592,49.0,0.0,240.0,12.0,0.0
1593,61.0,0.0,240.0,10.0,0.0
1594,75.0,0.0,180.0,7.0,0.0
1595,51.0,528.0,180.0,12.0,0.0
1596,90.0,0.0,180.0,5.0,0.0
1597,63.0,0.0,180.0,10.0,0.0
1598,51.0,0.0,180.0,11.0,0.0
1599,90.0,24.0,180.0,6.0,0.0
1600,80.0,144.0,570.0,6.0,0.0
1601,68.0,528.0,1860.0,1.0,0.0
1602,80.0,0.0,1860.0,0.0,0.0
1603,80.0,0.0,570.0,5.0,0.0
1604,64.0,0.0,240.0,10.0,0.0
1605,52.0,0.0,240.0,12.0,0.0
1606,52.0,96.0,240.0,11.0,0.0
1607,76.0,0.0,240.0,7.0,0.0
1608,75.0,0.0,240.0,7.0,0.0
1609,51.0,60.0,240.0,11.0,0.0
1610,63.0,0.0,240.0,10.0,0.0
1611,51.0,0.0,240.0,12.0,0.0
1612,82.0,0.0,60.0,5.0,0.0
1613,76.0,0.0,180.0,7.0,0.0
1614,64.0,0.0,180.0,10.0,0.0
1615,52.0,48.0,180.0,12.0,0.0
1616,82.0,60.0,60.0,6.0,0.0
1617,52.0,0.0,180.0,11.0,0.0
1618,83.0,60.0,60.0,6.0,0.0
1619,83.0,0.0,60.0,5.0,0.0
1620,85.0,12.0,60.0,5.0,0.0
1621,85.0,0.0,60.0,6.0,0.0
1622,87.0,0.0,60.0,5.0,0.0
1623,87.0,312.0,60.0,6.0,0.0
1624,88.0,0.0,300.0,5.0,0.0
1625,88.0,0.0,1860.0,0.0,0.0
1626,64.0,0.0,1860.0,1.0,0.0
1627,88.0,168.0,300.0,6.0,0.0
1628,58.0,0.0,240.0,10.0,0.0
1629,46.0,0.0,240.0,11.0,0.0
1630,70.0,0.0,240.0,7.0,0.0
1631,46.0,240.0,240.0,12.0,0.0
1632,47.0,0.0,240.0,12.0,0.0
1633,71.0,0.0,240.0,7.0,0.0
1634,59.0,72.0,240.0,10.0,0.0
1635,88.0,0.0,300.0,5.0,0.0
1636,47.0,0.0,240.0,11.0,0.0
1637,88.0,120.0,300.0,6.0,0.0
1638,61.0,0.0,180.0,10.0,0.0
1639,49.0,0.0,180.0,12.0,0.0
1640,49.0,0.0,180.0,11.0,0.0
1641,73.0,0.0,180.0,7.0,0.0
1642,67.0,0.0,900.0,1.0,0.0
1643,88.0,0.0,480.0,6.0,0.0
1644,79.0,0.0,900.0,0.0,0.0
1645,88.0,0.0,480.0,5.0,0.0
1646,63.0,0.0,240.0,10.0,0.0
1647,51.0,0.0,240.0,12.0,0.0
1648,51.0,192.0,240.0,11.0,0.0
1649,75.0,0.0,240.0,7.0,0.0
1650,78.0,0.0,180.0,5.0,0.0
1651,49.0,0.0,240.0,12.0,0.0
1652,73.0,0.0,240.0,7.0,0.0
1653,78.0,48.0,180.0,6.0,0.0
1654,61.0,0.0,240.0,10.0,0.0
1655,49.0,192.0,240.0,11.0,0.0
1656,75.0,0.0,180.0,7.0,0.0
1657,63.0,528.0,180.0,10.0,0.0
1658,51.0,0.0,180.0,12.0,0.0
1659,51.0,0.0,180.0,11.0,0.0
1660,63.0,0.0,1860.0,1.0,0.0
1661,78.0,0.0,900.0,0.0,0.0
1662,87.0,144.0,570.0,5.0,0.0
1663,66.0,0.0,900.0,1.0,0.0
1664,87.0,0.0,1860.0,0.0,0.0
1665,87.0,0.0,570.0,6.0,0.0
1666,44.0,0.0,240.0,12.0,0.0
1667,44.0,0.0,240.0,11.0,0.0
1668,68.0,96.0,240.0,7.0,0.0
1669,56.0,0.0,240.0,10.0,0.0
1670,46.0,180.0,240.0,11.0,0.0
1671,46.0,0.0,240.0,12.0,0.0
1672,58.0,0.0,240.0,10.0,0.0
1673,70.0,0.0,240.0,7.0,0.0
1674,87.0,12.0,180.0,5.0,0.0
1675,72.0,0.0,180.0,7.0,0.0
1676,48.0,528.0,180.0,12.0,0.0
1677,60.0,0.0,180.0,10.0,0.0
1678,48.0,0.0,180.0,11.0,0.0
1679,87.0,0.0,180.0,6.0,0.0
1680,77.0,0.0,900.0,0.0,0.0
1681,65.0,0.0,900.0,1.0,0.0
1682,77.0,144.0,570.0,6.0,0.0
1683,77.0,0.0,570.0,5.0,0.0
1684,73.0,0.0,240.0,7.0,0.0
1685,49.0,0.0,240.0,12.0,0.0
1686,61.0,96.0,240.0,10.0,0.0
1687,49.0,0.0,240.0,11.0,0.0
1688,72.0,0.0,240.0,7.0,0.0
1689,48.0,0.0,240.0,11.0,0.0
1690,48.0,60.0,240.0,12.0,0.0
1691,60.0,0.0,240.0,10.0,0.0
1692,49.0,0.0,180.0,12.0,0.0
1693,78.0,60.0,60.0,5.0,0.0
1694,49.0,48.0,180.0,11.0,0.0
1695,78.0,0.0,60.0,6.0,0.0
1696,73.0,0.0,180.0,7.0,0.0
1697,61.0,0.0,180.0,10.0,0.0
1698,80.0,60.0,60.0,6.0,0.0
1699,80.0,0.0,60.0,5.0,0.0
1700,82.0,12.0,60.0,5.0,0.0
1701,82.0,0.0,60.0,6.0,0.0
1702,84.0,312.0,60.0,6.0,0.0
1703,84.0,0.0,60.0,5.0,0.0
1704,85.0,0.0,300.0,5.0,0.0
1705,85.0,432.0,1860.0,0.0,0.0
1706,76.0,528.0,900.0,0.0,0.0
1707,64.0,0.0,900.0,1.0,0.0
1708,61.0,0.0,1860.0,1.0,0.0
1709,85.0,168.0,300.0,6.0,0.0
1710,54.0,0.0,240.0,10.0,0.0
1711,66.0,240.0,240.0,7.0,0.0
1712,42.0,0.0,240.0,11.0,0.0
1713,42.0,0.0,240.0,12.0,0.0
1714,44.0,0.0,240.0,11.0,0.0
1715,85.0,0.0,300.0,5.0,0.0
1716,44.0,72.0,240.0,12.0,0.0
1717,68.0,0.0,240.0,7.0,0.0
1718,85.0,120.0,300.0,6.0,0.0
1719,56.0,0.0,240.0,10.0,0.0
1720,58.0,0.0,180.0,10.0,0.0
1721,46.0,0.0,180.0,12.0,0.0
1722,70.0,0.0,180.0,7.0,0.0
1723,46.0,0.0,180.0,11.0,0.0
1724,85.0,0.0,480.0,5.0,0.0
1725,85.0,192.0,480.0,6.0,0.0
1726,75.0,0.0,1860.0,0.0,0.0
1727,63.0,0.0,1860.0,1.0,0.0
1728,47.0,0.0,240.0,12.0,0.0
1729,59.0,0.0,240.0,10.0,0.0
1730,71.0,0.0,240.0,7.0,0.0
1731,47.0,0.0,240.0,11.0,0.0
1732,46.0,0.0,240.0,12.0,0.0
1733,75.0,0.0,180.0,5.0,0.0
1734,75.0,48.0,180.0,6.0,0.0
1735,58.0,0.0,240.0,10.0,0.0
1736,70.0,192.0,240.0,7.0,0.0
1737,46.0,0.0,240.0,11.0,0.0
1738,47.0,0.0,180.0,12.0,0.0
1739,59.0,0.0,180.0,10.0,0.0
1740,71.0,0.0,180.0,7.0,0.0
1741,47.0,0.0,180.0,11.0,0.0
1742,83.0,144.0,570.0,6.0,0.0
1743,83.0,0.0,570.0,5.0,0.0
1744,71.0,96.0,390.0,3.0,0.0
1745,80.0,0.0,390.0,3.0,0.0
1746,56.0,120.0,780.0,2.0,0.0
1747,59.0,0.0,1860.0,1.0,0.0
1748,68.0,0.0,780.0,2.0,0.0
1749,83.0,0.0,1860.0,0.0,0.0
1750,44.0,0.0,240.0,11.0,0.0
1751,44.0,0.0,240.0,12.0,0.0
1752,68.0,96.0,240.0,7.0,0.0
1753,56.0,0.0,240.0,10.0,0.0
1754,55.0,0.0,240.0,10.0,0.0
1755,43.0,48.0,240.0,12.0,0.0
1756,67.0,0.0,240.0,7.0,0.0
1757,43.0,0.0,240.0,11.0,0.0
1758,68.0,0.0,180.0,7.0,0.0
1759,56.0,0.0,180.0,10.0,0.0
1760,83.0,24.0,180.0,5.0,0.0
1761,44.0,432.0,180.0,12.0,0.0
1762,83.0,0.0,180.0,6.0,0.0
1763,44.0,0.0,180.0,11.0,0.0
1764,73.0,0.0,570.0,6.0,0.0
1765,52.0,0.0,780.0,2.0,0.0
1766,64.0,120.0,780.0,2.0,0.0
1767,61.0,0.0,1860.0,1.0,0.0
1768,80.0,0.0,390.0,3.0,0.0
1769,76.0,96.0,390.0,3.0,0.0
1770,73.0,144.0,570.0,5.0,0.0
1771,73.0,0.0,900.0,0.0,0.0
1772,52.0,0.0,240.0,10.0,0.0
1773,64.0,96.0,240.0,7.0,0.0
1774,40.0,0.0,240.0,12.0,0.0
1775,40.0,0.0,240.0,11.0,0.0
1776,51.0,0.0,240.0,10.0,0.0
1777,39.0,48.0,240.0,12.0,0.0
1778,39.0,0.0,240.0,11.0,0.0
1779,63.0,0.0,240.0,7.0,0.0
1780,73.0,0.0,180.0,5.0,0.0
1781,73.0,24.0,180.0,6.0,0.0
1782,64.0,0.0,180.0,7.0,0.0
1783,40.0,432.0,180.0,11.0,0.0
1784,52.0,0.0,180.0,10.0,0.0
1785,40.0,0.0,180.0,12.0,0.0
1786,82.0,0.0,570.0,6.0,0.0
1787,66.0,120.0,780.0,2.0,0.0
1788,82.0,144.0,570.0,5.0,0.0
1789,78.0,96.0,390.0,3.0,0.0
1790,76.0,0.0,900.0,0.0,0.0
1791,82.0,0.0,900.0,0.0,0.0
1792,58.0,0.0,900.0,1.0,0.0
1793,42.0,0.0,240.0,12.0,0.0
1794,54.0,0.0,240.0,10.0,0.0
1795,66.0,96.0,240.0,7.0,0.0
1796,42.0,0.0,240.0,11.0,0.0
1797,65.0,0.0,240.0,7.0,0.0
1798,41.0,48.0,240.0,12.0,0.0
1799,53.0,0.0,240.0,10.0,0.0
1800,41.0,0.0,240.0,11.0,0.0
1801,82.0,0.0,180.0,5.0,0.0
1802,42.0,0.0,180.0,11.0,0.0
1803,42.0,0.0,180.0,12.0,0.0
1804,66.0,192.0,180.0,7.0,0.0
1805,54.0,0.0,180.0,10.0,0.0
1806,82.0,24.0,180.0,6.0,0.0
1807,35.0,0.0,4740.0,12.0,0.0
1808,59.0,432.0,4740.0,7.0,0.0
1809,59.0,0.0,5190.0,2.0,0.0
1810,47.0,96.0,5190.0,2.0,0.0
1811,47.0,0.0,4740.0,10.0,0.0
1812,83.0,0.0,390.0,0.0,0.0
1813,75.0,0.0,390.0,0.0,0.0
1814,35.0,0.0,4740.0,11.0,0.0
1815,78.0,96.0,390.0,3.0,0.0
1816,83.0,0.0,150.0,6.0,0.0
1817,71.0,0.0,390.0,3.0,0.0
1818,83.0,240.0,150.0,5.0,0.0
1819,47.0,0.0,390.0,4.0,0.0
1820,59.0,0.0,390.0,1.0,0.0
1821,83.0,240.0,240.0,5.0,0.0
1822,71.0,0.0,240.0,6.0,0.0
1823,70.0,0.0,240.0,6.0,0.0
1824,82.0,192.0,240.0,5.0,0.0
1825,71.0,528.0,180.0,6.0,0.0
1826,83.0,0.0,180.0,5.0,0.0
1827,66.0,528.0,1860.0,1.0,0.0
1828,90.0,240.0,240.0,5.0,0.0
1829,78.0,0.0,240.0,6.0,0.0
1830,77.0,0.0,240.0,6.0,0.0
1831,89.0,192.0,240.0,5.0,0.0
1832,90.0,528.0,180.0,5.0,0.0
1833,78.0,0.0,180.0,6.0,0.0
1834,67.0,528.0,1860.0,1.0,0.0
1835,67.0,0.0,240.0,6.0,0.0
1836,79.0,240.0,240.0,5.0,0.0
1837,78.0,0.0,240.0,5.0,0.0
1838,66.0,192.0,240.0,6.0,0.0
1839,79.0,0.0,180.0,5.0,0.0
1840,67.0,0.0,180.0,6.0,0.0
1841,64.0,0.0,1860.0,1.0,0.0
1842,67.0,0.0,240.0,6.0,0.0
1843,79.0,144.0,240.0,5.0,0.0
1844,88.0,240.0,150.0,5.0,0.0
1845,76.0,0.0,150.0,6.0,0.0
1846,76.0,48.0,150.0,6.0,0.0
1847,88.0,0.0,150.0,5.0,0.0
1848,66.0,0.0,1860.0,1.0,0.0
1849,76.0,144.0,240.0,6.0,0.0
1850,88.0,0.0,240.0,5.0,0.0
1851,66.0,240.0,150.0,6.0,0.0
1852,78.0,0.0,150.0,5.0,0.0
1853,78.0,48.0,150.0,5.0,0.0
1854,66.0,0.0,150.0,6.0,0.0
1855,47.0,0.0,1920.0,11.0,0.0
1856,71.0,480.0,960.0,7.0,0.0
1857,59.0,0.0,1920.0,10.0,0.0
1858,62.0,0.0,1860.0,1.0,0.0
1859,86.0,0.0,1860.0,0.0,0.0
1860,78.0,48.0,900.0,0.0,0.0
1861,47.0,480.0,1920.0,12.0,0.0
1862,74.0,0.0,240.0,6.0,0.0
1863,86.0,240.0,240.0,5.0,0.0
1864,73.0,192.0,240.0,6.0,0.0
1865,85.0,0.0,240.0,5.0,0.0
1866,86.0,0.0,180.0,5.0,0.0
1867,74.0,0.0,180.0,6.0,0.0
1868,65.0,0.0,900.0,1.0,0.0
1869,77.0,48.0,900.0,0.0,0.0
1870,68.0,0.0,960.0,7.0,0.0
1871,65.0,0.0,240.0,6.0,0.0
1872,77.0,240.0,240.0,5.0,0.0
1873,63.0,0.0,240.0,6.0,0.0
1874,75.0,192.0,240.0,5.0,0.0
1875,65.0,0.0,180.0,6.0,0.0
1876,77.0,0.0,180.0,5.0,0.0
1877,67.0,480.0,960.0,7.0,0.0
1878,46.0,96.0,780.0,11.0,0.0
1879,61.0,0.0,1860.0,1.0,0.0
1880,64.0,48.0,900.0,1.0,0.0
1881,58.0,0.0,780.0,10.0,0.0
1882,76.0,0.0,900.0,0.0,0.0
1883,46.0,0.0,780.0,12.0,0.0
1884,85.0,0.0,1860.0,0.0,0.0
1885,76.0,144.0,240.0,5.0,0.0
1886,64.0,0.0,240.0,6.0,0.0
1887,73.0,0.0,150.0,6.0,0.0
1888,85.0,144.0,150.0,5.0,0.0
1889,73.0,0.0,150.0,6.0,0.0
1890,85.0,48.0,150.0,5.0,0.0
1891,59.0,96.0,780.0,10.0,0.0
1892,75.0,0.0,900.0,0.0,0.0
1893,47.0,0.0,900.0,11.0,0.0
1894,66.0,480.0,960.0,7.0,0.0
1895,47.0,0.0,900.0,12.0,0.0
1896,63.0,48.0,900.0,1.0,0.0
1897,85.0,144.0,240.0,5.0,0.0
1898,73.0,0.0,240.0,6.0,0.0
1899,75.0,0.0,150.0,5.0,0.0
1900,63.0,144.0,150.0,6.0,0.0
1901,63.0,0.0,150.0,6.0,0.0
1902,75.0,48.0,150.0,5.0,0.0
1903,43.0,480.0,960.0,12.0,0.0
1904,83.0,0.0,1860.0,0.0,0.0
1905,74.0,0.0,900.0,0.0,0.0
1906,43.0,0.0,960.0,11.0,0.0
1907,59.0,48.0,1860.0,1.0,0.0
1908,62.0,48.0,900.0,1.0,0.0
1909,55.0,0.0,960.0,10.0,0.0
1910,67.0,0.0,1920.0,7.0,0.0
1911,71.0,240.0,240.0,6.0,0.0
1912,83.0,0.0,240.0,5.0,0.0
1913,70.0,0.0,240.0,6.0,0.0
1914,82.0,192.0,240.0,5.0,0.0
1915,83.0,0.0,180.0,5.0,0.0
1916,71.0,0.0,180.0,6.0,0.0
1917,73.0,0.0,1920.0,0.0,0.0
1918,61.0,96.0,1920.0,1.0,0.0
1919,40.0,0.0,960.0,12.0,0.0
1920,40.0,480.0,960.0,11.0,0.0
1921,52.0,0.0,960.0,10.0,0.0
1922,73.0,0.0,240.0,5.0,0.0
1923,61.0,240.0,240.0,6.0,0.0
1924,72.0,0.0,240.0,5.0,0.0
1925,60.0,192.0,240.0,6.0,0.0
1926,73.0,0.0,180.0,5.0,0.0
1927,61.0,0.0,180.0,6.0,0.0
1928,54.0,0.0,900.0,10.0,0.0
1929,66.0,48.0,900.0,7.0,0.0
1930,82.0,0.0,960.0,0.0,0.0
1931,58.0,0.0,960.0,1.0,0.0
1932,42.0,0.0,900.0,12.0,0.0
1933,42.0,0.0,900.0,11.0,0.0
1934,78.0,0.0,240.0,5.0,0.0
1935,66.0,240.0,240.0,6.0,0.0
1936,77.0,192.0,240.0,5.0,0.0
1937,65.0,0.0,240.0,6.0,0.0
1938,78.0,0.0,180.0,5.0,0.0
1939,66.0,0.0,180.0,6.0,0.0
1940,83.0,0.0,390.0,0.0,0.0
1941,35.0,0.0,390.0,12.0,0.0
1942,59.0,0.0,390.0,1.0,0.0
1943,63.0,0.0,390.0,7.0,0.0
1944,59.0,0.0,390.0,6.0,0.0
1945,71.0,0.0,390.0,0.0,0.0
1946,47.0,72.0,390.0,10.0,0.0
1947,71.0,120.0,90.0,5.0,0.0
1948,35.0,0.0,390.0,11.0,0.0
1949,71.0,120.0,90.0,5.0,0.0
1950,66.0,48.0,90.0,5.0,0.0
1951,66.0,120.0,90.0,5.0,0.0
1952,68.0,120.0,90.0,5.0,0.0
1953,68.0,120.0,90.0,5.0,0.0
1954,70.0,120.0,90.0,5.0,0.0
1955,70.0,120.0,90.0,5.0,0.0
1956,71.0,120.0,90.0,5.0,0.0
1957,71.0,120.0,90.0,5.0,0.0
1958,70.0,120.0,90.0,5.0,0.0
1959,70.0,120.0,90.0,5.0,0.0
1960,71.0,120.0,90.0,5.0,0.0
1961,71.0,120.0,90.0,5.0,0.0
1962,72.0,120.0,90.0,5.0,0.0
1963,72.0,120.0,90.0,5.0,0.0
1964,73.0,120.0,90.0,5.0,0.0
1965,73.0,120.0,90.0,5.0,0.0
1966,66.0,120.0,90.0,5.0,0.0
1967,66.0,120.0,90.0,5.0,0.0
1968,70.0,120.0,90.0,5.0,0.0
1969,70.0,120.0,90.0,5.0,0.0
1970,71.0,120.0,90.0,5.0,0.0
1971,71.0,120.0,90.0,5.0,0.0
1972,73.0,120.0,90.0,5.0,0.0
1973,73.0,120.0,90.0,5.0,0.0
1974,72.0,120.0,90.0,5.0,0.0
1975,72.0,120.0,90.0,5.0,0.0
1976,73.0,120.0,90.0,5.0,0.0
1977,73.0,120.0,90.0,5.0,0.0
1978,74.0,120.0,90.0,5.0,0.0
1979,74.0,120.0,90.0,5.0,0.0
1980,75.0,72.0,390.0,5.0,0.0
1981,71.0,120.0,90.0,6.0,0.0
1982,71.0,120.0,90.0,6.0,0.0
1983,66.0,48.0,90.0,6.0,0.0
1984,66.0,120.0,90.0,6.0,0.0
1985,68.0,120.0,90.0,6.0,0.0
1986,75.0,48.0,300.0,5.0,0.0
1987,68.0,72.0,90.0,6.0,0.0
1988,70.0,120.0,90.0,6.0,0.0
1989,70.0,0.0,90.0,6.0,0.0
1990,75.0,84.0,90.0,5.0,0.0
1991,71.0,24.0,90.0,6.0,0.0
1992,76.0,36.0,60.0,5.0,0.0
1993,75.0,60.0,60.0,5.0,0.0
1994,76.0,36.0,60.0,5.0,0.0
1995,71.0,24.0,90.0,6.0,0.0
1996,75.0,60.0,60.0,5.0,0.0
1997,70.0,24.0,90.0,6.0,0.0
1998,76.0,36.0,60.0,5.0,0.0
1999,75.0,60.0,60.0,5.0,0.0
2000,76.0,36.0,60.0,5.0,0.0
2001,70.0,24.0,90.0,6.0,0.0
2002,75.0,60.0,60.0,5.0,0.0
2003,76.0,36.0,60.0,5.0,0.0
2004,71.0,24.0,90.0,6.0,0.0
2005,75.0,60.0,60.0,5.0,0.0
2006,76.0,36.0,60.0,5.0,0.0
2007,71.0,24.0,90.0,6.0,0.0
2008,75.0,96.0,60.0,5.0,0.0
2009,72.0,24.0,90.0,6.0,0.0
2010,73.0,96.0,120.0,5.0,0.0
2011,75.0,120.0,90.0,5.0,0.0
2012,72.0,0.0,90.0,6.0,0.0
2013,76.0,96.0,720.0,5.0,0.0
2014,73.0,120.0,90.0,6.0,0.0
2015,73.0,120.0,90.0,6.0,0.0
2016,66.0,120.0,90.0,6.0,0.0
2017,66.0,120.0,90.0,6.0,0.0
2018,70.0,120.0,90.0,6.0,0.0
2019,70.0,24.0,90.0,6.0,0.0
2020,71.0,96.0,90.0,6.0,0.0
2021,75.0,24.0,180.0,5.0,0.0
2022,71.0,120.0,90.0,6.0,0.0
2023,76.0,96.0,240.0,5.0,0.0
2024,73.0,120.0,90.0,6.0,0.0
2025,73.0,24.0,90.0,6.0,0.0
2026,75.0,96.0,240.0,5.0,0.0
2027,72.0,120.0,90.0,6.0,0.0
2028,72.0,24.0,90.0,6.0,0.0
2029,76.0,96.0,240.0,5.0,0.0
2030,73.0,120.0,90.0,6.0,0.0
2031,73.0,24.0,90.0,6.0,0.0
2032,74.0,96.0,90.0,6.0,0.0
2033,77.0,24.0,180.0,5.0,0.0
2034,74.0,120.0,90.0,6.0,0.0
2035,59.0,96.0,240.0,10.0,0.0
2036,78.0,0.0,390.0,5.0,0.0
2037,59.0,0.0,240.0,1.0,0.0
2038,75.0,0.0,390.0,6.0,0.0
2039,47.0,72.0,390.0,4.0,0.0
2040,47.0,0.0,240.0,12.0,0.0
2041,47.0,0.0,240.0,11.0,0.0
2042,71.0,120.0,90.0,7.0,0.0
2043,66.0,0.0,3660.0,2.0,0.0
2044,78.0,48.0,3660.0,3.0,0.0
2045,71.0,24.0,90.0,7.0,0.0
2046,42.0,0.0,240.0,12.0,0.0
2047,42.0,96.0,240.0,11.0,0.0
2048,54.0,0.0,240.0,1.0,0.0
2049,66.0,48.0,90.0,7.0,0.0
2050,54.0,0.0,240.0,10.0,0.0
2051,66.0,24.0,90.0,7.0,0.0
2052,56.0,0.0,240.0,1.0,0.0
2053,44.0,96.0,240.0,12.0,0.0
2054,68.0,120.0,90.0,7.0,0.0
2055,56.0,0.0,240.0,10.0,0.0
2056,44.0,0.0,240.0,11.0,0.0
2057,68.0,24.0,90.0,7.0,0.0
2058,46.0,24.0,180.0,12.0,0.0
2059,70.0,96.0,90.0,7.0,0.0
2060,58.0,0.0,180.0,1.0,0.0
2061,58.0,0.0,180.0,10.0,0.0
2062,46.0,0.0,180.0,11.0,0.0
2063,70.0,120.0,90.0,7.0,0.0
2064,59.0,0.0,240.0,1.0,0.0
2065,87.0,0.0,900.0,0.0,0.0
2066,47.0,0.0,240.0,12.0,0.0
2067,78.0,120.0,90.0,6.0,0.0
2068,71.0,0.0,90.0,7.0,0.0
2069,59.0,0.0,240.0,10.0,0.0
2070,66.0,0.0,90.0,6.0,0.0
2071,47.0,96.0,240.0,11.0,0.0
2072,87.0,0.0,90.0,5.0,0.0
2073,87.0,24.0,90.0,5.0,0.0
2074,66.0,0.0,90.0,6.0,0.0
2075,71.0,0.0,90.0,7.0,0.0
2076,78.0,0.0,90.0,6.0,0.0
2077,87.0,0.0,90.0,5.0,0.0
2078,78.0,0.0,90.0,6.0,0.0
2079,66.0,0.0,90.0,6.0,0.0
2080,58.0,0.0,240.0,1.0,0.0
2081,46.0,0.0,240.0,12.0,0.0
2082,58.0,0.0,240.0,10.0,0.0
2083,70.0,120.0,90.0,7.0,0.0
2084,46.0,96.0,240.0,11.0,0.0
2085,78.0,0.0,90.0,6.0,0.0
2086,70.0,0.0,90.0,7.0,0.0
2087,66.0,24.0,90.0,6.0,0.0
2088,87.0,0.0,90.0,5.0,0.0
2089,71.0,0.0,90.0,7.0,0.0
2090,78.0,0.0,90.0,6.0,0.0
2091,87.0,0.0,90.0,5.0,0.0
2092,59.0,0.0,240.0,1.0,0.0
2093,47.0,0.0,240.0,12.0,0.0
2094,59.0,0.0,240.0,10.0,0.0
2095,47.0,96.0,240.0,11.0,0.0
2096,66.0,120.0,90.0,6.0,0.0
2097,87.0,0.0,90.0,5.0,0.0
2098,71.0,0.0,90.0,7.0,0.0
2099,66.0,24.0,90.0,6.0,0.0
2100,78.0,0.0,90.0,6.0,0.0
2101,72.0,0.0,90.0,7.0,0.0
2102,48.0,24.0,180.0,12.0,0.0
2103,60.0,0.0,180.0,1.0,0.0
2104,78.0,0.0,90.0,6.0,0.0
2105,66.0,0.0,90.0,6.0,0.0
2106,48.0,0.0,180.0,11.0,0.0
2107,87.0,96.0,90.0,5.0,0.0
2108,60.0,0.0,180.0,10.0,0.0
2109,72.0,0.0,90.0,7.0,0.0
2110,87.0,0.0,90.0,5.0,0.0
2111,66.0,120.0,90.0,6.0,0.0
2112,78.0,0.0,90.0,6.0,0.0
2113,66.0,0.0,390.0,6.0,0.0
2114,78.0,72.0,390.0,6.0,0.0
2115,88.0,0.0,1200.0,0.0,0.0
2116,61.0,96.0,240.0,10.0,0.0
2117,61.0,0.0,240.0,1.0,0.0
2118,88.0,0.0,390.0,5.0,0.0
2119,73.0,120.0,90.0,7.0,0.0
2120,49.0,0.0,240.0,12.0,0.0
2121,49.0,0.0,240.0,11.0,0.0
2122,73.0,24.0,90.0,7.0,0.0
2123,42.0,0.0,240.0,11.0,0.0
2124,54.0,0.0,240.0,1.0,0.0
2125,42.0,0.0,240.0,12.0,0.0
2126,66.0,48.0,90.0,7.0,0.0
2127,54.0,96.0,240.0,10.0,0.0
2128,66.0,24.0,90.0,7.0,0.0
2129,46.0,0.0,240.0,12.0,0.0
2130,46.0,96.0,240.0,11.0,0.0
2131,58.0,0.0,240.0,1.0,0.0
2132,58.0,0.0,240.0,10.0,0.0
2133,70.0,120.0,90.0,7.0,0.0
2134,70.0,24.0,90.0,7.0,0.0
2135,71.0,96.0,90.0,7.0,0.0
2136,59.0,0.0,180.0,1.0,0.0
2137,47.0,0.0,180.0,11.0,0.0
2138,47.0,24.0,180.0,12.0,0.0
2139,59.0,0.0,180.0,10.0,0.0
2140,71.0,120.0,90.0,7.0,0.0
2141,61.0,0.0,240.0,1.0,0.0
2142,49.0,0.0,240.0,11.0,0.0
2143,88.0,0.0,90.0,5.0,0.0
2144,66.0,120.0,90.0,6.0,0.0
2145,73.0,0.0,90.0,7.0,0.0
2146,49.0,0.0,240.0,12.0,0.0
2147,61.0,96.0,240.0,10.0,0.0
2148,78.0,0.0,90.0,6.0,0.0
2149,88.0,0.0,90.0,5.0,0.0
2150,73.0,24.0,90.0,7.0,0.0
2151,78.0,0.0,90.0,6.0,0.0
2152,66.0,0.0,90.0,6.0,0.0
2153,48.0,0.0,240.0,11.0,0.0
2154,66.0,0.0,90.0,6.0,0.0
2155,78.0,0.0,90.0,6.0,0.0
2156,87.0,0.0,90.0,5.0,0.0
2157,60.0,0.0,240.0,1.0,0.0
2158,87.0,0.0,240.0,0.0,0.0
2159,72.0,120.0,90.0,7.0,0.0
2160,60.0,0.0,240.0,10.0,0.0
2161,48.0,96.0,240.0,12.0,0.0
2162,87.0,0.0,90.0,5.0,0.0
2163,66.0,24.0,90.0,6.0,0.0
2164,78.0,0.0,90.0,6.0,0.0
2165,72.0,0.0,90.0,7.0,0.0
2166,88.0,0.0,240.0,0.0,0.0
2167,73.0,0.0,90.0,7.0,0.0
2168,61.0,48.0,240.0,1.0,0.0
2169,78.0,0.0,90.0,6.0,0.0
2170,49.0,0.0,240.0,11.0,0.0
2171,88.0,120.0,90.0,5.0,0.0
2172,49.0,0.0,240.0,12.0,0.0
2173,61.0,0.0,240.0,10.0,0.0
2174,66.0,0.0,90.0,6.0,0.0
2175,78.0,0.0,90.0,6.0,0.0
2176,73.0,0.0,90.0,7.0,0.0
2177,66.0,24.0,90.0,6.0,0.0
2178,88.0,0.0,90.0,5.0,0.0
2179,78.0,0.0,90.0,6.0,0.0
2180,66.0,0.0,90.0,6.0,0.0
2181,74.0,0.0,90.0,7.0,0.0
2182,89.0,96.0,90.0,5.0,0.0
2183,62.0,0.0,180.0,10.0,0.0
2184,89.0,0.0,240.0,0.0,0.0
2185,62.0,24.0,180.0,1.0,0.0
2186,50.0,0.0,180.0,11.0,0.0
2187,50.0,0.0,180.0,12.0,0.0
2188,66.0,0.0,90.0,6.0,0.0
2189,74.0,0.0,90.0,7.0,0.0
2190,78.0,0.0,90.0,6.0,0.0
2191,89.0,24.0,90.0,5.0,0.0
2192,90.0,0.0,330.0,0.0,0.0
2193,59.0,0.0,330.0,2.0,0.0
2194,71.0,0.0,330.0,3.0,0.0
2195,75.0,204.0,330.0,7.0,0.0
2196,63.0,0.0,330.0,1.0,0.0
2197,66.0,0.0,330.0,2.0,0.0
2198,63.0,0.0,330.0,10.0,0.0
2199,78.0,0.0,330.0,3.0,0.0
2200,90.0,0.0,330.0,5.0,0.0
2201,78.0,336.0,15.0,0.0,0.0
2202,78.0,0.0,330.0,6.0,0.0
2203,66.0,0.0,330.0,6.0,0.0
2204,51.0,0.0,330.0,12.0,0.0
2205,51.0,0.0,330.0,11.0,0.0
2206,56.0,0.0,330.0,12.0,0.0
2207,68.0,0.0,330.0,1.0,0.0
2208,68.0,0.0,330.0,10.0,0.0
2209,68.0,0.0,330.0,2.0,0.0
2210,80.0,24.0,330.0,3.0,0.0
2211,68.0,0.0,330.0,3.0,0.0
2212,88.0,60.0,60.0,5.0,0.0
2213,56.0,0.0,330.0,11.0,0.0
2214,87.0,0.0,480.0,0.0,0.0
2215,84.0,0.0,480.0,0.0,0.0
2216,78.0,336.0,480.0,7.0,0.0
2217,85.0,0.0,60.0,6.0,0.0
2218,84.0,60.0,60.0,6.0,0.0
2219,87.0,0.0,60.0,5.0,0.0
2220,88.0,0.0,60.0,5.0,0.0
2221,85.0,60.0,60.0,6.0,0.0
2222,87.0,60.0,60.0,5.0,0.0
2223,84.0,0.0,60.0,6.0,0.0
2224,88.0,0.0,60.0,5.0,0.0
2225,85.0,36.0,60.0,6.0,0.0
2226,84.0,0.0,60.0,6.0,0.0
2227,87.0,60.0,60.0,5.0,0.0
2228,85.0,60.0,60.0,5.0,0.0
2229,82.0,0.0,60.0,6.0,0.0
2230,84.0,0.0,60.0,6.0,0.0
2231,87.0,0.0,60.0,5.0,0.0
2232,85.0,0.0,330.0,0.0,0.0
2233,88.0,0.0,330.0,0.0,0.0
2234,80.0,0.0,330.0,3.0,0.0
2235,68.0,0.0,330.0,3.0,0.0
2236,88.0,0.0,330.0,5.0,0.0
2237,49.0,0.0,330.0,12.0,0.0
2238,61.0,204.0,330.0,10.0,0.0
2239,49.0,0.0,330.0,11.0,0.0
2240,61.0,0.0,330.0,1.0,0.0
2241,85.0,0.0,330.0,6.0,0.0
2242,64.0,0.0,330.0,2.0,0.0
2243,76.0,0.0,330.0,7.0,0.0
2244,68.0,0.0,330.0,2.0,0.0
2245,78.0,0.0,330.0,3.0,0.0
2246,87.0,0.0,60.0,5.0,0.0
2247,66.0,0.0,330.0,2.0,0.0
2248,66.0,0.0,330.0,1.0,0.0
2249,76.0,0.0,480.0,7.0,0.0
2250,54.0,0.0,330.0,12.0,0.0
2251,83.0,60.0,60.0,6.0,0.0
2252,85.0,0.0,480.0,0.0,0.0
2253,66.0,0.0,330.0,10.0,0.0
2254,82.0,336.0,480.0,0.0,0.0
2255,54.0,24.0,330.0,11.0,0.0
2256,82.0,60.0,60.0,6.0,0.0
2257,85.0,0.0,60.0,5.0,0.0
2258,87.0,60.0,60.0,5.0,0.0
2259,83.0,0.0,60.0,6.0,0.0
2260,82.0,0.0,60.0,6.0,0.0
2261,85.0,60.0,60.0,5.0,0.0
2262,83.0,36.0,60.0,6.0,0.0
2263,87.0,0.0,60.0,5.0,0.0
2264,82.0,0.0,60.0,6.0,0.0
2265,85.0,60.0,60.0,5.0,0.0
2266,83.0,0.0,60.0,5.0,0.0
2267,80.0,60.0,60.0,6.0,0.0
2268,85.0,0.0,60.0,5.0,0.0
2269,82.0,0.0,60.0,6.0,0.0
2270,47.0,0.0,330.0,11.0,0.0
2271,47.0,0.0,330.0,12.0,0.0
2272,75.0,0.0,330.0,7.0,0.0
2273,59.0,0.0,330.0,1.0,0.0
2274,83.0,0.0,330.0,6.0,0.0
2275,59.0,0.0,330.0,10.0,0.0
2276,87.0,0.0,330.0,5.0,0.0
2277,59.0,0.0,330.0,2.0,0.0
2278,66.0,0.0,330.0,2.0,0.0
2279,78.0,0.0,330.0,3.0,0.0
2280,71.0,0.0,330.0,3.0,0.0
2281,87.0,312.0,330.0,0.0,0.0
2282,83.0,0.0,330.0,0.0,0.0
2283,68.0,0.0,180.0,2.0,0.0
2284,68.0,168.0,180.0,7.0,0.0
2285,83.0,0.0,180.0,6.0,0.0
2286,75.0,0.0,180.0,6.0,0.0
2287,56.0,0.0,180.0,10.0,0.0
2288,87.0,0.0,180.0,0.0,0.0
2289,83.0,0.0,180.0,5.0,0.0
2290,83.0,0.0,180.0,0.0,0.0
2291,75.0,0.0,180.0,5.0,0.0
2292,80.0,72.0,330.0,3.0,0.0
2293,44.0,0.0,180.0,12.0,0.0
2294,71.0,0.0,330.0,3.0,0.0
2295,44.0,0.0,180.0,11.0,0.0
2296,56.0,0.0,180.0,1.0,0.0
2297,83.0,0.0,180.0,0.0,0.0
2298,87.0,0.0,180.0,0.0,0.0
2299,44.0,0.0,180.0,11.0,0.0
2300,56.0,240.0,180.0,10.0,0.0
2301,75.0,0.0,180.0,6.0,0.0
2302,56.0,0.0,180.0,1.0,0.0
2303,83.0,0.0,180.0,6.0,0.0
2304,44.0,0.0,180.0,12.0,0.0
2305,68.0,0.0,180.0,2.0,0.0
2306,75.0,0.0,180.0,5.0,0.0
2307,83.0,0.0,180.0,5.0,0.0
2308,68.0,0.0,180.0,7.0,0.0
2309,76.0,0.0,330.0,3.0,0.0
2310,85.0,0.0,180.0,5.0,0.0
2311,52.0,0.0,180.0,10.0,0.0
2312,40.0,0.0,180.0,11.0,0.0
2313,64.0,0.0,180.0,7.0,0.0
2314,64.0,168.0,180.0,2.0,0.0
2315,40.0,0.0,180.0,12.0,0.0
2316,80.0,72.0,330.0,3.0,0.0
2317,85.0,0.0,180.0,0.0,0.0
2318,76.0,0.0,180.0,5.0,0.0
2319,68.0,0.0,180.0,2.0,0.0
2320,85.0,0.0,180.0,6.0,0.0
2321,76.0,0.0,180.0,6.0,0.0
2322,88.0,0.0,180.0,0.0,0.0
2323,52.0,0.0,180.0,1.0,0.0
2324,64.0,0.0,180.0,7.0,0.0
2325,85.0,0.0,180.0,6.0,0.0
2326,40.0,0.0,180.0,12.0,0.0
2327,76.0,0.0,180.0,6.0,0.0
2328,85.0,240.0,180.0,0.0,0.0
2329,40.0,0.0,180.0,11.0,0.0
2330,85.0,0.0,180.0,5.0,0.0
2331,88.0,0.0,180.0,0.0,0.0
2332,52.0,0.0,180.0,10.0,0.0
2333,76.0,0.0,180.0,5.0,0.0
2334,52.0,0.0,180.0,1.0,0.0
2335,64.0,0.0,180.0,2.0,0.0
2336,68.0,0.0,180.0,2.0,0.0
2337,42.0,0.0,180.0,12.0,0.0
2338,73.0,0.0,180.0,6.0,0.0
2339,82.0,0.0,180.0,5.0,0.0
2340,54.0,0.0,180.0,10.0,0.0
2341,82.0,0.0,180.0,6.0,0.0
2342,54.0,0.0,180.0,1.0,0.0
2343,73.0,0.0,180.0,5.0,0.0
2344,85.0,0.0,180.0,0.0,0.0
2345,42.0,0.0,180.0,11.0,0.0
2346,82.0,0.0,180.0,0.0,0.0
2347,66.0,168.0,180.0,7.0,0.0
2348,66.0,0.0,180.0,2.0,0.0
2349,78.0,72.0,330.0,3.0,0.0
2350,82.0,0.0,180.0,0.0,0.0
2351,54.0,0.0,180.0,10.0,0.0
2352,66.0,0.0,180.0,7.0,0.0
2353,85.0,240.0,180.0,0.0,0.0
2354,42.0,0.0,180.0,12.0,0.0
2355,42.0,0.0,180.0,11.0,0.0
2356,82.0,0.0,180.0,6.0,0.0
2357,66.0,0.0,180.0,2.0,0.0
2358,54.0,0.0,180.0,1.0,0.0
2359,73.0,0.0,180.0,6.0,0.0
2360,73.0,0.0,180.0,5.0,0.0
2361,82.0,0.0,180.0,5.0,0.0
2362,71.0,0.0,390.0,3.0,0.0
2363,66.0,0.0,390.0,2.0,0.0
2364,59.0,0.0,390.0,2.0,0.0
2365,83.0,0.0,390.0,0.0,0.0
2366,47.0,0.0,180.0,10.0,0.0
2367,35.0,24.0,390.0,11.0,0.0
2368,47.0,0.0,390.0,1.0,0.0
2369,78.0,0.0,390.0,3.0,0.0
2370,83.0,0.0,390.0,5.0,0.0
2371,75.0,0.0,390.0,6.0,0.0
2372,83.0,0.0,390.0,6.0,0.0
2373,35.0,0.0,390.0,12.0,0.0
2374,75.0,0.0,390.0,5.0,0.0
2375,59.0,216.0,180.0,7.0,0.0
2376,66.0,240.0,180.0,7.0,0.0
2377,63.0,0.0,180.0,7.0,0.0
2378,59.0,0.0,180.0,10.0,0.0
2379,59.0,0.0,180.0,10.0,0.0
2380,63.0,0.0,180.0,7.0,0.0
2381,66.0,240.0,180.0,7.0,0.0
2382,66.0,0.0,180.0,7.0,0.0
2383,63.0,0.0,180.0,7.0,0.0
2384,59.0,192.0,180.0,10.0,0.0
2385,64.0,48.0,120.0,6.0,0.0
2386,76.0,0.0,120.0,5.0,0.0
2387,64.0,0.0,180.0,7.0,0.0
2388,66.0,12.0,180.0,7.0,0.0
2389,61.0,60.0,180.0,10.0,0.0
2390,42.0,0.0,390.0,11.0,0.0
2391,42.0,24.0,390.0,12.0,0.0
2392,75.0,120.0,120.0,5.0,0.0
2393,63.0,0.0,120.0,6.0,0.0
2394,61.0,24.0,120.0,6.0,0.0
2395,73.0,0.0,120.0,5.0,0.0
2396,61.0,60.0,180.0,10.0,0.0
2397,66.0,12.0,180.0,7.0,0.0
2398,64.0,0.0,180.0,7.0,0.0
2399,75.0,0.0,120.0,5.0,0.0
2400,63.0,120.0,120.0,6.0,0.0
2401,64.0,48.0,120.0,6.0,0.0
2402,64.0,12.0,180.0,7.0,0.0
2403,66.0,0.0,180.0,7.0,0.0
2404,61.0,60.0,180.0,10.0,0.0
2405,76.0,0.0,120.0,5.0,0.0
2406,78.0,0.0,120.0,5.0,0.0
2407,66.0,120.0,120.0,6.0,0.0
2408,80.0,0.0,120.0,5.0,0.0
2409,61.0,60.0,180.0,10.0,0.0
2410,66.0,12.0,180.0,7.0,0.0
2411,68.0,48.0,120.0,6.0,0.0
2412,64.0,0.0,180.0,7.0,0.0
2413,82.0,120.0,120.0,5.0,0.0
2414,70.0,0.0,120.0,6.0,0.0
2415,47.0,24.0,390.0,12.0,0.0
2416,59.0,60.0,180.0,10.0,0.0
2417,66.0,0.0,180.0,7.0,0.0
2418,63.0,12.0,180.0,7.0,0.0
2419,71.0,0.0,120.0,6.0,0.0
2420,47.0,0.0,390.0,11.0,0.0
2421,83.0,48.0,120.0,5.0,0.0
2422,73.0,120.0,120.0,6.0,0.0
2423,85.0,0.0,120.0,5.0,0.0
2424,75.0,0.0,120.0,6.0,0.0
2425,63.0,0.0,180.0,7.0,0.0
2426,66.0,12.0,180.0,7.0,0.0
2427,87.0,24.0,120.0,5.0,0.0
2428,59.0,60.0,180.0,10.0,0.0
2429,73.0,0.0,120.0,6.0,0.0
2430,85.0,120.0,120.0,5.0,0.0
2431,66.0,0.0,180.0,7.0,0.0
2432,63.0,12.0,180.0,7.0,0.0
2433,71.0,48.0,120.0,6.0,0.0
2434,59.0,60.0,180.0,10.0,0.0
2435,83.0,0.0,120.0,5.0,0.0
2436,70.0,120.0,120.0,6.0,0.0
2437,82.0,0.0,120.0,5.0,0.0
2438,63.0,12.0,180.0,7.0,0.0
2439,66.0,0.0,180.0,7.0,0.0
2440,80.0,0.0,120.0,5.0,0.0
2441,68.0,48.0,120.0,6.0,0.0
2442,59.0,36.0,180.0,10.0,0.0
2443,66.0,0.0,90.0,6.0,0.0
2444,78.0,144.0,90.0,5.0,0.0
2445,66.0,12.0,180.0,7.0,0.0
2446,64.0,0.0,180.0,7.0,0.0
2447,61.0,60.0,180.0,10.0,0.0
2448,64.0,0.0,120.0,6.0,0.0
2449,42.0,0.0,390.0,11.0,0.0
2450,42.0,24.0,390.0,12.0,0.0
2451,76.0,48.0,120.0,5.0,0.0
2452,75.0,0.0,120.0,5.0,0.0
2453,63.0,120.0,120.0,6.0,0.0
2454,64.0,0.0,180.0,7.0,0.0
2455,66.0,12.0,180.0,7.0,0.0
2456,61.0,60.0,180.0,10.0,0.0
2457,73.0,0.0,120.0,5.0,0.0
2458,61.0,24.0,120.0,6.0,0.0
2459,63.0,120.0,120.0,6.0,0.0
2460,75.0,0.0,120.0,5.0,0.0
2461,76.0,48.0,120.0,5.0,0.0
2462,64.0,12.0,180.0,7.0,0.0
2463,61.0,60.0,180.0,10.0,0.0
2464,64.0,0.0,120.0,6.0,0.0
2465,66.0,0.0,180.0,7.0,0.0
2466,78.0,120.0,120.0,5.0,0.0
2467,66.0,0.0,120.0,6.0,0.0
2468,61.0,60.0,180.0,10.0,0.0
2469,66.0,0.0,180.0,7.0,0.0
2470,80.0,48.0,120.0,5.0,0.0
2471,68.0,0.0,120.0,6.0,0.0
2472,64.0,12.0,180.0,7.0,0.0
2473,70.0,0.0,120.0,6.0,0.0
2474,82.0,120.0,120.0,5.0,0.0
2475,59.0,60.0,180.0,10.0,0.0
2476,66.0,0.0,180.0,7.0,0.0
2477,63.0,12.0,180.0,7.0,0.0
2478,78.0,0.0,5580.0,0.0,0.0
2479,66.0,72.0,5580.0,0.0,0.0
2480,35.0,24.0,390.0,12.0,0.0
2481,35.0,0.0,390.0,11.0,0.0
2482,73.0,48.0,120.0,6.0,0.0
2483,85.0,0.0,120.0,5.0,0.0
2484,83.0,120.0,120.0,5.0,0.0
2485,71.0,0.0,120.0,6.0,0.0
2486,70.0,0.0,120.0,6.0,0.0
2487,59.0,60.0,180.0,10.0,0.0
2488,63.0,0.0,180.0,7.0,0.0
2489,66.0,12.0,180.0,7.0,0.0
2490,82.0,24.0,120.0,5.0,0.0
2491,83.0,168.0,120.0,5.0,0.0
2492,71.0,0.0,120.0,6.0,0.0
2493,66.0,12.0,180.0,7.0,0.0
2494,59.0,12.0,180.0,10.0,0.0
2495,78.0,0.0,180.0,5.0,0.0
2496,63.0,0.0,180.0,7.0,0.0
2497,66.0,216.0,180.0,6.0,0.0
2498,59.0,180.0,180.0,10.0,0.0
2499,63.0,0.0,180.0,7.0,0.0
2500,66.0,12.0,180.0,7.0,0.0
2501,76.0,0.0,120.0,5.0,0.0
2502,42.0,24.0,390.0,12.0,0.0
2503,61.0,60.0,180.0,10.0,0.0
2504,66.0,12.0,180.0,7.0,0.0
2505,64.0,0.0,180.0,7.0,0.0
2506,64.0,48.0,120.0,6.0,0.0
2507,42.0,0.0,390.0,11.0,0.0
2508,75.0,0.0,120.0,5.0,0.0
2509,63.0,120.0,120.0,6.0,0.0
2510,61.0,24.0,120.0,6.0,0.0
2511,73.0,0.0,120.0,5.0,0.0
2512,64.0,12.0,180.0,7.0,0.0
2513,61.0,60.0,180.0,10.0,0.0
2514,66.0,0.0,180.0,7.0,0.0
2515,75.0,120.0,120.0,5.0,0.0
2516,63.0,0.0,120.0,6.0,0.0
2517,61.0,60.0,180.0,10.0,0.0
2518,66.0,0.0,180.0,7.0,0.0
2519,64.0,48.0,120.0,6.0,0.0
2520,76.0,0.0,120.0,5.0,0.0
2521,64.0,12.0,180.0,7.0,0.0
2522,78.0,0.0,120.0,5.0,0.0
2523,66.0,120.0,120.0,6.0,0.0
2524,61.0,60.0,180.0,10.0,0.0
2525,68.0,48.0,120.0,6.0,0.0
2526,66.0,12.0,180.0,7.0,0.0
2527,80.0,0.0,120.0,5.0,0.0
2528,64.0,0.0,180.0,7.0,0.0
2529,70.0,120.0,120.0,6.0,0.0
2530,82.0,0.0,120.0,5.0,0.0
2531,47.0,24.0,390.0,12.0,0.0
2532,59.0,60.0,180.0,10.0,0.0
2533,47.0,0.0,390.0,11.0,0.0
2534,83.0,0.0,120.0,5.0,0.0
2535,71.0,48.0,120.0,6.0,0.0
2536,66.0,12.0,180.0,7.0,0.0
2537,63.0,0.0,180.0,7.0,0.0
2538,85.0,120.0,120.0,5.0,0.0
2539,73.0,0.0,120.0,6.0,0.0
2540,75.0,0.0,120.0,6.0,0.0
2541,66.0,12.0,180.0,7.0,0.0
2542,87.0,24.0,120.0,5.0,0.0
2543,59.0,60.0,180.0,10.0,0.0
2544,63.0,0.0,180.0,7.0,0.0
2545,73.0,0.0,120.0,6.0,0.0
2546,85.0,120.0,120.0,5.0,0.0
2547,71.0,48.0,120.0,6.0,0.0
2548,63.0,12.0,180.0,7.0,0.0
2549,66.0,0.0,180.0,7.0,0.0
2550,59.0,60.0,180.0,10.0,0.0
2551,83.0,0.0,120.0,5.0,0.0
2552,82.0,0.0,120.0,5.0,0.0
2553,70.0,120.0,120.0,6.0,0.0
2554,80.0,48.0,120.0,5.0,0.0
2555,63.0,0.0,180.0,7.0,0.0
2556,66.0,12.0,180.0,7.0,0.0
2557,59.0,36.0,180.0,10.0,0.0
2558,68.0,0.0,120.0,6.0,0.0
2559,66.0,144.0,90.0,6.0,0.0
2560,78.0,0.0,90.0,5.0,0.0
2561,76.0,48.0,120.0,5.0,0.0
2562,42.0,24.0,390.0,11.0,0.0
2563,42.0,0.0,390.0,12.0,0.0
2564,61.0,60.0,180.0,10.0,0.0
2565,64.0,0.0,120.0,6.0,0.0
2566,64.0,0.0,180.0,7.0,0.0
2567,66.0,12.0,180.0,7.0,0.0
2568,63.0,120.0,120.0,6.0,0.0
2569,75.0,0.0,120.0,5.0,0.0
2570,66.0,0.0,180.0,7.0,0.0
2571,61.0,60.0,180.0,10.0,0.0
2572,73.0,24.0,120.0,5.0,0.0
2573,61.0,0.0,120.0,6.0,0.0
2574,64.0,12.0,180.0,7.0,0.0
2575,63.0,120.0,120.0,6.0,0.0
2576,75.0,0.0,120.0,5.0,0.0
2577,61.0,60.0,180.0,10.0,0.0
2578,76.0,48.0,120.0,5.0,0.0
2579,64.0,0.0,120.0,6.0,0.0
2580,66.0,12.0,180.0,7.0,0.0
2581,64.0,0.0,180.0,7.0,0.0
2582,66.0,0.0,120.0,6.0,0.0
2583,78.0,120.0,120.0,5.0,0.0
2584,64.0,12.0,180.0,7.0,0.0
2585,61.0,60.0,180.0,10.0,0.0
2586,66.0,0.0,180.0,7.0,0.0
2587,80.0,0.0,120.0,5.0,0.0
2588,68.0,48.0,120.0,6.0,0.0
2589,82.0,120.0,120.0,5.0,0.0
2590,70.0,0.0,120.0,6.0,0.0
2591,59.0,60.0,180.0,10.0,0.0
2592,66.0,12.0,180.0,7.0,0.0
2593,73.0,48.0,120.0,6.0,0.0
2594,85.0,0.0,120.0,5.0,0.0
2595,63.0,0.0,180.0,7.0,0.0
2596,35.0,0.0,390.0,11.0,0.0
2597,35.0,24.0,390.0,12.0,0.0
2598,71.0,0.0,120.0,6.0,0.0
2599,83.0,120.0,120.0,5.0,0.0
2600,70.0,24.0,120.0,6.0,0.0
2601,63.0,0.0,180.0,7.0,0.0
2602,66.0,12.0,180.0,7.0,0.0
2603,82.0,0.0,120.0,5.0,0.0
2604,59.0,60.0,180.0,10.0,0.0
2605,83.0,0.0,120.0,5.0,0.0
2606,71.0,168.0,120.0,6.0,0.0
2607,78.0,216.0,180.0,5.0,0.0
2608,66.0,0.0,180.0,6.0,0.0
2609,63.0,12.0,180.0,7.0,0.0
2610,59.0,12.0,180.0,10.0,0.0
2611,66.0,0.0,180.0,7.0,0.0
2612,59.0,180.0,180.0,10.0,0.0
2613,66.0,12.0,180.0,7.0,0.0
2614,63.0,0.0,180.0,7.0,0.0
2615,66.0,12.0,180.0,7.0,0.0
2616,64.0,0.0,180.0,7.0,0.0
2617,61.0,60.0,180.0,10.0,0.0
2618,76.0,0.0,120.0,5.0,0.0
2619,64.0,48.0,120.0,6.0,0.0
2620,42.0,0.0,390.0,11.0,0.0
2621,42.0,24.0,390.0,12.0,0.0
2622,75.0,120.0,120.0,5.0,0.0
2623,63.0,0.0,120.0,6.0,0.0
2624,66.0,12.0,180.0,7.0,0.0
2625,61.0,60.0,180.0,10.0,0.0
2626,61.0,24.0,120.0,6.0,0.0
2627,64.0,0.0,180.0,7.0,0.0
2628,73.0,0.0,120.0,5.0,0.0
2629,75.0,120.0,120.0,5.0,0.0
2630,63.0,0.0,120.0,6.0,0.0
2631,64.0,12.0,180.0,7.0,0.0
2632,66.0,0.0,180.0,7.0,0.0
2633,76.0,0.0,120.0,5.0,0.0
2634,61.0,60.0,180.0,10.0,0.0
2635,64.0,48.0,120.0,6.0,0.0
2636,78.0,0.0,120.0,5.0,0.0
2637,66.0,48.0,120.0,6.0,0.0
2638,68.0,0.0,120.0,6.0,0.0
2639,61.0,48.0,180.0,10.0,0.0
2640,80.0,48.0,120.0,5.0,0.0
2641,66.0,0.0,180.0,7.0,0.0
2642,64.0,12.0,180.0,7.0,0.0
2643,70.0,0.0,120.0,6.0,0.0
2644,82.0,132.0,120.0,5.0,0.0
2645,59.0,0.0,780.0,2.0,0.0
2646,71.0,72.0,780.0,2.0,0.0
2647,83.0,0.0,600.0,0.0,0.0
2648,63.0,0.0,360.0,7.0,0.0
2649,47.0,0.0,390.0,4.0,0.0
2650,83.0,120.0,120.0,5.0,0.0
2651,66.0,0.0,360.0,7.0,0.0
2652,83.0,0.0,390.0,3.0,0.0
2653,47.0,120.0,600.0,11.0,0.0
2654,71.0,72.0,390.0,3.0,0.0
2655,59.0,0.0,600.0,10.0,0.0
2656,71.0,24.0,360.0,6.0,0.0
2657,47.0,0.0,600.0,12.0,0.0
2658,59.0,0.0,600.0,1.0,0.0
2659,85.0,120.0,120.0,5.0,0.0
2660,87.0,0.0,120.0,5.0,0.0
2661,85.0,144.0,90.0,5.0,0.0
2662,71.0,0.0,120.0,7.0,0.0
2663,83.0,0.0,120.0,5.0,0.0
2664,83.0,0.0,120.0,6.0,0.0
2665,58.0,0.0,120.0,1.0,0.0
2666,58.0,0.0,120.0,10.0,0.0
2667,46.0,0.0,120.0,12.0,0.0
2668,82.0,0.0,120.0,0.0,0.0
2669,82.0,0.0,120.0,5.0,0.0
2670,46.0,0.0,120.0,11.0,0.0
2671,70.0,0.0,120.0,7.0,0.0
2672,82.0,48.0,120.0,6.0,0.0
2673,56.0,0.0,120.0,10.0,0.0
2674,80.0,0.0,120.0,0.0,0.0
2675,80.0,0.0,120.0,5.0,0.0
2676,44.0,0.0,120.0,11.0,0.0
2677,56.0,0.0,120.0,1.0,0.0
2678,68.0,0.0,120.0,7.0,0.0
2679,80.0,96.0,120.0,6.0,0.0
2680,44.0,0.0,120.0,12.0,0.0
2681,79.0,0.0,90.0,5.0,0.0
2682,79.0,0.0,90.0,6.0,0.0
2683,67.0,0.0,90.0,7.0,0.0
2684,79.0,144.0,90.0,0.0,0.0
2685,43.0,0.0,90.0,11.0,0.0
2686,43.0,0.0,90.0,12.0,0.0
2687,55.0,0.0,90.0,10.0,0.0
2688,55.0,0.0,90.0,1.0,0.0
2689,44.0,0.0,600.0,11.0,0.0
2690,68.0,0.0,390.0,3.0,0.0
2691,80.0,72.0,390.0,3.0,0.0
2692,68.0,0.0,600.0,7.0,0.0
2693,80.0,120.0,120.0,6.0,0.0
2694,56.0,0.0,600.0,1.0,0.0
2695,56.0,0.0,780.0,2.0,0.0
2696,68.0,72.0,780.0,2.0,0.0
2697,44.0,120.0,600.0,12.0,0.0
2698,80.0,0.0,600.0,0.0,0.0
2699,80.0,0.0,120.0,5.0,0.0
2700,47.0,0.0,390.0,4.0,0.0
2701,56.0,0.0,600.0,10.0,0.0
2702,82.0,120.0,120.0,5.0,0.0
2703,82.0,0.0,120.0,6.0,0.0
2704,83.0,24.0,120.0,5.0,0.0
2705,83.0,0.0,120.0,6.0,0.0
2706,82.0,144.0,90.0,5.0,0.0
2707,82.0,0.0,90.0,6.0,0.0
2708,80.0,0.0,120.0,5.0,0.0
2709,80.0,0.0,120.0,6.0,0.0
2710,78.0,0.0,120.0,5.0,0.0
2711,54.0,0.0,120.0,1.0,0.0
2712,78.0,0.0,120.0,0.0,0.0
2713,66.0,0.0,120.0,7.0,0.0
2714,42.0,0.0,120.0,11.0,0.0
2715,42.0,0.0,120.0,12.0,0.0
2716,54.0,48.0,120.0,10.0,0.0
2717,78.0,0.0,120.0,6.0,0.0
2718,52.0,0.0,120.0,1.0,0.0
2719,76.0,0.0,120.0,0.0,0.0
2720,76.0,0.0,120.0,6.0,0.0
2721,76.0,0.0,120.0,5.0,0.0
2722,64.0,96.0,120.0,7.0,0.0
2723,40.0,0.0,120.0,11.0,0.0
2724,52.0,0.0,120.0,10.0,0.0
2725,40.0,0.0,120.0,12.0,0.0
2726,39.0,0.0,90.0,12.0,0.0
2727,51.0,0.0,90.0,1.0,0.0
2728,39.0,0.0,90.0,11.0,0.0
2729,75.0,0.0,90.0,0.0,0.0
2730,75.0,0.0,90.0,5.0,0.0
2731,75.0,0.0,90.0,6.0,0.0
2732,51.0,144.0,90.0,10.0,0.0
2733,63.0,0.0,90.0,7.0,0.0
2734,40.0,120.0,480.0,12.0,0.0
2735,40.0,0.0,480.0,11.0,0.0
2736,88.0,0.0,600.0,0.0,0.0
2737,52.0,0.0,480.0,1.0,0.0
2738,76.0,0.0,120.0,6.0,0.0
2739,52.0,72.0,780.0,2.0,0.0
2740,64.0,0.0,390.0,3.0,0.0
2741,52.0,0.0,600.0,10.0,0.0
2742,64.0,0.0,780.0,2.0,0.0
2743,76.0,120.0,120.0,5.0,0.0
2744,76.0,0.0,390.0,3.0,0.0
2745,64.0,0.0,600.0,7.0,0.0
2746,52.0,72.0,390.0,4.0,0.0
2747,78.0,120.0,120.0,5.0,0.0
2748,78.0,0.0,120.0,6.0,0.0
2749,80.0,0.0,120.0,6.0,0.0
2750,80.0,24.0,120.0,5.0,0.0
2751,78.0,24.0,90.0,6.0,0.0
2752,78.0,0.0,90.0,5.0,0.0
2753,64.0,0.0,120.0,1.0,0.0
2754,76.0,120.0,120.0,6.0,0.0
2755,76.0,0.0,120.0,5.0,0.0
2756,52.0,0.0,120.0,11.0,0.0
2757,52.0,0.0,120.0,12.0,0.0
2758,87.0,0.0,120.0,0.0,0.0
2759,75.0,0.0,120.0,6.0,0.0
2760,63.0,48.0,120.0,7.0,0.0
2761,75.0,0.0,120.0,5.0,0.0
2762,63.0,0.0,120.0,1.0,0.0
2763,51.0,0.0,120.0,11.0,0.0
2764,51.0,0.0,120.0,12.0,0.0
2765,51.0,0.0,120.0,10.0,0.0
2766,61.0,0.0,120.0,1.0,0.0
2767,49.0,96.0,120.0,11.0,0.0
2768,61.0,0.0,120.0,7.0,0.0
2769,49.0,0.0,120.0,12.0,0.0
2770,49.0,0.0,120.0,10.0,0.0
2771,85.0,0.0,120.0,0.0,0.0
2772,73.0,0.0,120.0,5.0,0.0
2773,73.0,0.0,120.0,6.0,0.0
2774,60.0,0.0,90.0,7.0,0.0
2775,48.0,0.0,90.0,11.0,0.0
2776,72.0,144.0,90.0,6.0,0.0
2777,48.0,0.0,90.0,10.0,0.0
2778,48.0,0.0,90.0,12.0,0.0
2779,60.0,0.0,90.0,1.0,0.0
2780,72.0,0.0,90.0,5.0,0.0
2781,84.0,0.0,90.0,0.0,0.0
2782,49.0,0.0,600.0,12.0,0.0
2783,73.0,0.0,120.0,6.0,0.0
2784,49.0,0.0,600.0,11.0,0.0
2785,61.0,0.0,600.0,1.0,0.0
2786,73.0,120.0,120.0,5.0,0.0
2787,49.0,0.0,600.0,10.0,0.0
2788,61.0,0.0,600.0,7.0,0.0
2789,85.0,120.0,600.0,0.0,0.0
2790,75.0,0.0,120.0,6.0,0.0
2791,75.0,120.0,120.0,5.0,0.0
2792,76.0,0.0,120.0,6.0,0.0
2793,76.0,96.0,120.0,5.0,0.0
2794,75.0,0.0,90.0,6.0,0.0
2795,75.0,144.0,90.0,5.0,0.0
2796,73.0,0.0,120.0,6.0,0.0
2797,73.0,0.0,120.0,5.0,0.0
2798,47.0,0.0,120.0,12.0,0.0
2799,71.0,0.0,120.0,5.0,0.0
2800,47.0,0.0,120.0,10.0,0.0
2801,47.0,0.0,120.0,11.0,0.0
2802,71.0,120.0,120.0,6.0,0.0
2803,59.0,0.0,120.0,7.0,0.0
2804,83.0,0.0,120.0,0.0,0.0
2805,59.0,0.0,120.0,1.0,0.0
2806,46.0,0.0,120.0,12.0,0.0
2807,46.0,96.0,120.0,10.0,0.0
2808,70.0,0.0,120.0,5.0,0.0
2809,58.0,0.0,120.0,7.0,0.0
2810,82.0,0.0,120.0,0.0,0.0
2811,46.0,0.0,120.0,11.0,0.0
2812,70.0,0.0,120.0,6.0,0.0
2813,58.0,0.0,120.0,1.0,0.0
2814,80.0,0.0,90.0,0.0,0.0
2815,56.0,0.0,90.0,1.0,0.0
2816,44.0,192.0,90.0,12.0,0.0
2817,68.0,0.0,90.0,5.0,0.0
2818,44.0,0.0,90.0,11.0,0.0
2819,56.0,0.0,90.0,7.0,0.0
2820,68.0,0.0,90.0,6.0,0.0
2821,44.0,0.0,90.0,10.0,0.0
2822,66.0,156.0,180.0,6.0,0.0
2823,54.0,0.0,330.0,1.0,0.0
2824,78.0,0.0,330.0,0.0,0.0
2825,42.0,0.0,330.0,11.0,0.0
2826,54.0,72.0,330.0,10.0,0.0
2827,66.0,0.0,180.0,5.0,0.0
2828,54.0,12.0,180.0,7.0,0.0
2829,42.0,0.0,330.0,12.0,0.0
2830,66.0,72.0,180.0,7.0,0.0
2831,82.0,168.0,240.0,5.0,0.0
2832,82.0,0.0,240.0,6.0,0.0
2833,59.0,0.0,330.0,2.0,0.0
2834,68.0,0.0,330.0,2.0,0.0
2835,68.0,12.0,180.0,7.0,0.0
2836,83.0,72.0,330.0,0.0,0.0
2837,75.0,0.0,330.0,0.0,0.0
2838,56.0,0.0,330.0,10.0,0.0
2839,71.0,0.0,330.0,3.0,0.0
2840,83.0,0.0,180.0,5.0,0.0
2841,83.0,156.0,180.0,6.0,0.0
2842,44.0,0.0,330.0,12.0,0.0
2843,44.0,0.0,330.0,11.0,0.0
2844,56.0,0.0,330.0,1.0,0.0
2845,80.0,0.0,330.0,3.0,0.0
2846,68.0,12.0,180.0,7.0,0.0
2847,68.0,0.0,180.0,6.0,0.0
2848,68.0,228.0,180.0,5.0,0.0
2849,40.0,0.0,330.0,11.0,0.0
2850,64.0,12.0,180.0,7.0,0.0
2851,76.0,0.0,330.0,0.0,0.0
2852,52.0,72.0,330.0,10.0,0.0
2853,64.0,0.0,180.0,5.0,0.0
2854,64.0,156.0,180.0,6.0,0.0
2855,80.0,0.0,330.0,3.0,0.0
2856,40.0,0.0,330.0,12.0,0.0
2857,52.0,0.0,330.0,1.0,0.0
2858,76.0,0.0,330.0,3.0,0.0
2859,85.0,0.0,330.0,0.0,0.0
2860,68.0,0.0,330.0,2.0,0.0
2861,64.0,0.0,330.0,2.0,0.0
2862,85.0,0.0,180.0,6.0,0.0
2863,64.0,12.0,180.0,7.0,0.0
2864,85.0,228.0,180.0,5.0,0.0
2865,66.0,156.0,180.0,6.0,0.0
2866,78.0,0.0,330.0,3.0,0.0
2867,42.0,72.0,330.0,12.0,0.0
2868,66.0,12.0,180.0,7.0,0.0
2869,54.0,0.0,330.0,10.0,0.0
2870,66.0,0.0,180.0,5.0,0.0
2871,54.0,0.0,330.0,1.0,0.0
2872,73.0,0.0,330.0,0.0,0.0
2873,66.0,0.0,330.0,2.0,0.0
2874,82.0,0.0,330.0,0.0,0.0
2875,42.0,0.0,330.0,11.0,0.0
2876,66.0,12.0,180.0,7.0,0.0
2877,82.0,252.0,180.0,5.0,0.0
2878,82.0,0.0,180.0,6.0,0.0
2879,83.0,144.0,780.0,0.0,0.0
2880,83.0,0.0,180.0,6.0,0.0
2881,59.0,0.0,180.0,10.0,0.0
2882,71.0,0.0,2310.0,3.0,0.0
2883,59.0,192.0,180.0,1.0,0.0
2884,71.0,0.0,780.0,0.0,0.0
2885,47.0,0.0,180.0,12.0,0.0
2886,59.0,0.0,180.0,7.0,0.0
2887,83.0,0.0,780.0,5.0,0.0
2888,59.0,0.0,180.0,2.0,0.0
2889,47.0,0.0,180.0,2.0,0.0
2890,47.0,0.0,180.0,11.0,0.0
2891,47.0,48.0,390.0,4.0,0.0
2892,47.0,0.0,180.0,11.0,0.0
2893,47.0,0.0,180.0,2.0,0.0
2894,59.0,0.0,180.0,7.0,0.0
2895,83.0,48.0,390.0,6.0,0.0
2896,59.0,192.0,180.0,2.0,0.0
2897,47.0,0.0,180.0,12.0,0.0
2898,59.0,0.0,180.0,10.0,0.0
2899,59.0,0.0,180.0,1.0,0.0
2900,47.0,0.0,180.0,11.0,0.0
2901,59.0,0.0,180.0,10.0,0.0
2902,59.0,96.0,180.0,1.0,0.0
2903,59.0,0.0,180.0,2.0,0.0
2904,59.0,0.0,180.0,7.0,0.0
2905,47.0,0.0,180.0,12.0,0.0
2906,47.0,0.0,180.0,2.0,0.0
2907,59.0,240.0,180.0,1.0,0.0
2908,83.0,0.0,420.0,6.0,0.0
2909,47.0,0.0,180.0,12.0,0.0
2910,47.0,0.0,180.0,11.0,0.0
2911,59.0,0.0,180.0,2.0,0.0
2912,59.0,0.0,180.0,10.0,0.0
2913,47.0,0.0,180.0,2.0,0.0
2914,59.0,0.0,180.0,7.0,0.0
2915,88.0,0.0,720.0,5.0,0.0
2916,47.0,0.0,180.0,2.0,0.0
2917,68.0,192.0,180.0,10.0,0.0
2918,56.0,0.0,180.0,12.0,0.0
2919,76.0,192.0,720.0,0.0,0.0
2920,68.0,0.0,180.0,1.0,0.0
2921,56.0,0.0,180.0,11.0,0.0
2922,47.0,48.0,390.0,4.0,0.0
2923,68.0,0.0,180.0,7.0,0.0
2924,59.0,0.0,180.0,2.0,0.0
2925,47.0,0.0,180.0,2.0,0.0
2926,68.0,0.0,180.0,10.0,0.0
2927,56.0,0.0,180.0,11.0,0.0
2928,68.0,192.0,180.0,7.0,0.0
2929,68.0,0.0,180.0,1.0,0.0
2930,83.0,48.0,390.0,6.0,0.0
2931,56.0,0.0,180.0,12.0,0.0
2932,59.0,0.0,180.0,2.0,0.0
2933,56.0,0.0,180.0,12.0,0.0
2934,56.0,0.0,180.0,11.0,0.0
2935,68.0,48.0,180.0,1.0,0.0
2936,59.0,0.0,180.0,2.0,0.0
2937,47.0,0.0,180.0,2.0,0.0
2938,68.0,0.0,180.0,7.0,0.0
2939,68.0,0.0,180.0,10.0,0.0
2940,66.0,108.0,180.0,1.0,0.0
2941,87.0,0.0,180.0,5.0,0.0
2942,75.0,0.0,180.0,0.0,0.0
2943,54.0,0.0,180.0,12.0,0.0
2944,83.0,0.0,420.0,6.0,0.0
2945,66.0,0.0,180.0,7.0,0.0
2946,59.0,0.0,180.0,2.0,0.0
2947,66.0,0.0,180.0,10.0,0.0
2948,54.0,0.0,180.0,11.0,0.0
2949,47.0,0.0,180.0,2.0,0.0
2950,59.0,0.0,180.0,2.0,0.0
2951,47.0,48.0,390.0,4.0,0.0
2952,52.0,0.0,180.0,12.0,0.0
2953,87.0,132.0,60.0,5.0,0.0
2954,47.0,48.0,180.0,2.0,0.0
2955,64.0,0.0,180.0,1.0,0.0
2956,64.0,0.0,180.0,7.0,0.0
2957,64.0,0.0,180.0,10.0,0.0
2958,75.0,0.0,60.0,0.0,0.0
2959,52.0,0.0,180.0,11.0,0.0
2960,85.0,144.0,180.0,5.0,0.0
2961,73.0,0.0,180.0,0.0,0.0
2962,83.0,48.0,390.0,6.0,0.0
2963,51.0,0.0,180.0,12.0,0.0
2964,72.0,0.0,180.0,0.0,0.0
2965,84.0,0.0,180.0,5.0,0.0
2966,63.0,108.0,180.0,7.0,0.0
2967,59.0,0.0,180.0,2.0,0.0
2968,63.0,0.0,180.0,10.0,0.0
2969,47.0,0.0,180.0,2.0,0.0
2970,51.0,0.0,180.0,11.0,0.0
2971,63.0,0.0,180.0,1.0,0.0
2972,75.0,0.0,60.0,0.0,0.0
2973,64.0,0.0,180.0,1.0,0.0
2974,64.0,0.0,180.0,7.0,0.0
2975,71.0,48.0,390.0,3.0,0.0
2976,52.0,0.0,180.0,11.0,0.0
2977,87.0,84.0,60.0,5.0,0.0
2978,47.0,0.0,180.0,2.0,0.0
2979,59.0,48.0,180.0,2.0,0.0
2980,52.0,0.0,180.0,12.0,0.0
2981,47.0,0.0,390.0,4.0,0.0
2982,64.0,0.0,180.0,10.0,0.0
2983,73.0,0.0,180.0,0.0,0.0
2984,85.0,144.0,180.0,5.0,0.0
2985,83.0,0.0,420.0,6.0,0.0
2986,63.0,0.0,180.0,7.0,0.0
2987,59.0,0.0,180.0,2.0,0.0
2988,51.0,240.0,180.0,11.0,0.0
2989,47.0,0.0,180.0,2.0,0.0
2990,72.0,0.0,180.0,0.0,0.0
2991,63.0,0.0,180.0,10.0,0.0
2992,63.0,0.0,180.0,1.0,0.0
2993,84.0,0.0,180.0,5.0,0.0
2994,51.0,0.0,180.0,12.0,0.0
2995,85.0,192.0,720.0,5.0,0.0
2996,64.0,192.0,180.0,7.0,0.0
2997,52.0,0.0,180.0,12.0,0.0
2998,52.0,0.0,180.0,11.0,0.0
2999,64.0,0.0,180.0,1.0,0.0
3000,47.0,0.0,180.0,2.0,0.0
3001,71.0,48.0,390.0,3.0,0.0
3002,47.0,0.0,390.0,4.0,0.0
3003,59.0,0.0,180.0,2.0,0.0
3004,64.0,0.0,180.0,10.0,0.0
3005,73.0,0.0,720.0,0.0,0.0
3006,59.0,192.0,180.0,2.0,0.0
3007,47.0,0.0,180.0,2.0,0.0
3008,52.0,0.0,180.0,12.0,0.0
3009,52.0,0.0,180.0,11.0,0.0
3010,83.0,48.0,390.0,6.0,0.0
3011,64.0,0.0,180.0,7.0,0.0
3012,64.0,0.0,180.0,1.0,0.0
3013,64.0,0.0,180.0,10.0,0.0
3014,64.0,0.0,180.0,7.0,0.0
3015,52.0,0.0,180.0,12.0,0.0
3016,64.0,0.0,180.0,10.0,0.0
3017,47.0,0.0,180.0,2.0,0.0
3018,59.0,0.0,180.0,2.0,0.0
3019,52.0,0.0,180.0,11.0,0.0
3020,64.0,48.0,180.0,1.0,0.0
3021,66.0,0.0,180.0,1.0,0.0
3022,54.0,0.0,180.0,12.0,0.0
3023,83.0,0.0,420.0,6.0,0.0
3024,54.0,0.0,180.0,11.0,0.0
3025,66.0,0.0,180.0,10.0,0.0
3026,66.0,0.0,180.0,7.0,0.0
3027,47.0,0.0,180.0,2.0,0.0
3028,75.0,108.0,180.0,0.0,0.0
3029,59.0,0.0,180.0,2.0,0.0
3030,87.0,0.0,180.0,5.0,0.0
3031,68.0,48.0,180.0,10.0,0.0
3032,71.0,0.0,390.0,3.0,0.0
3033,56.0,0.0,180.0,11.0,0.0
3034,56.0,0.0,180.0,12.0,0.0
3035,68.0,0.0,180.0,1.0,0.0
3036,68.0,0.0,180.0,7.0,0.0
3037,47.0,48.0,390.0,4.0,0.0
3038,47.0,0.0,180.0,2.0,0.0
3039,78.0,132.0,60.0,0.0,0.0
3040,90.0,0.0,60.0,5.0,0.0
3041,59.0,0.0,180.0,2.0,0.0
3042,88.0,0.0,180.0,5.0,0.0
3043,76.0,144.0,180.0,0.0,0.0
3044,87.0,0.0,180.0,5.0,0.0
3045,59.0,0.0,180.0,2.0,0.0
3046,67.0,0.0,180.0,7.0,0.0
3047,47.0,0.0,180.0,2.0,0.0
3048,55.0,108.0,180.0,11.0,0.0
3049,75.0,0.0,180.0,0.0,0.0
3050,67.0,0.0,180.0,1.0,0.0
3051,67.0,0.0,180.0,10.0,0.0
3052,83.0,48.0,390.0,6.0,0.0
3053,55.0,0.0,180.0,12.0,0.0
3054,47.0,0.0,180.0,2.0,0.0
3055,68.0,0.0,180.0,1.0,0.0
3056,59.0,0.0,180.0,2.0,0.0
3057,90.0,0.0,60.0,5.0,0.0
3058,56.0,0.0,180.0,11.0,0.0
3059,71.0,48.0,390.0,3.0,0.0
3060,47.0,0.0,390.0,4.0,0.0
3061,56.0,0.0,180.0,12.0,0.0
3062,68.0,0.0,180.0,10.0,0.0
3063,68.0,48.0,180.0,7.0,0.0
3064,78.0,84.0,60.0,0.0,0.0
3065,88.0,0.0,180.0,5.0,0.0
3066,76.0,144.0,180.0,0.0,0.0
3067,67.0,0.0,180.0,10.0,0.0
3068,83.0,0.0,420.0,6.0,0.0
3069,47.0,240.0,180.0,2.0,0.0
3070,59.0,0.0,180.0,2.0,0.0
3071,55.0,0.0,180.0,12.0,0.0
3072,75.0,0.0,180.0,0.0,0.0
3073,67.0,0.0,180.0,7.0,0.0
3074,87.0,0.0,180.0,5.0,0.0
3075,67.0,0.0,180.0,1.0,0.0
3076,55.0,0.0,180.0,11.0,0.0
3077,76.0,192.0,720.0,0.0,0.0
3078,88.0,0.0,720.0,5.0,0.0
3079,68.0,0.0,180.0,7.0,0.0
3080,47.0,0.0,180.0,2.0,0.0
3081,56.0,0.0,180.0,11.0,0.0
3082,71.0,48.0,390.0,3.0,0.0
3083,68.0,0.0,180.0,1.0,0.0
3084,68.0,0.0,180.0,10.0,0.0
3085,47.0,0.0,390.0,4.0,0.0
3086,59.0,192.0,180.0,2.0,0.0
3087,56.0,0.0,180.0,12.0,0.0
3088,83.0,48.0,390.0,6.0,0.0
3089,47.0,192.0,180.0,2.0,0.0
3090,68.0,0.0,180.0,7.0,0.0
3091,56.0,0.0,180.0,11.0,0.0
3092,56.0,0.0,180.0,12.0,0.0
3093,68.0,0.0,180.0,10.0,0.0
3094,59.0,0.0,180.0,2.0,0.0
3095,68.0,0.0,180.0,1.0,0.0
3096,59.0,0.0,180.0,2.0,0.0
3097,68.0,0.0,180.0,10.0,0.0
3098,56.0,0.0,180.0,11.0,0.0
3099,47.0,48.0,180.0,2.0,0.0
3100,68.0,0.0,180.0,7.0,0.0
3101,56.0,0.0,180.0,12.0,0.0
3102,68.0,0.0,180.0,1.0,0.0
3103,89.0,0.0,180.0,5.0,0.0
3104,68.0,0.0,180.0,1.0,0.0
3105,77.0,0.0,180.0,0.0,0.0
3106,59.0,0.0,180.0,2.0,0.0
3107,56.0,0.0,180.0,11.0,0.0
3108,47.0,0.0,180.0,2.0,0.0
3109,68.0,0.0,180.0,7.0,0.0
3110,68.0,0.0,180.0,10.0,0.0
3111,83.0,0.0,420.0,6.0,0.0
3112,56.0,108.0,180.0,12.0,0.0
3113,63.0,0.0,180.0,7.0,0.0
3114,71.0,48.0,390.0,3.0,0.0
3115,63.0,0.0,180.0,1.0,0.0
3116,80.0,132.0,60.0,0.0,0.0
3117,47.0,0.0,180.0,2.0,0.0
3118,92.0,0.0,60.0,5.0,0.0
3119,51.0,0.0,180.0,12.0,0.0
3120,63.0,48.0,180.0,10.0,0.0
3121,47.0,0.0,390.0,4.0,0.0
3122,59.0,0.0,180.0,2.0,0.0
3123,51.0,0.0,180.0,11.0,0.0
3124,90.0,0.0,180.0,5.0,0.0
3125,78.0,144.0,180.0,0.0,0.0
3126,83.0,48.0,390.0,6.0,0.0
3127,47.0,0.0,180.0,2.0,0.0
3128,59.0,108.0,180.0,2.0,0.0
3129,62.0,0.0,180.0,7.0,0.0
3130,77.0,0.0,180.0,0.0,0.0
3131,89.0,0.0,180.0,5.0,0.0
3132,62.0,0.0,180.0,10.0,0.0
3133,50.0,0.0,180.0,11.0,0.0
3134,50.0,0.0,180.0,12.0,0.0
3135,62.0,0.0,180.0,1.0,0.0
3136,92.0,0.0,60.0,5.0,0.0
3137,80.0,84.0,60.0,0.0,0.0
3138,47.0,0.0,180.0,2.0,0.0
3139,63.0,0.0,180.0,1.0,0.0
3140,59.0,0.0,180.0,2.0,0.0
3141,47.0,0.0,390.0,4.0,0.0
3142,71.0,48.0,390.0,3.0,0.0
3143,63.0,48.0,180.0,10.0,0.0
3144,63.0,0.0,180.0,7.0,0.0
3145,51.0,0.0,180.0,12.0,0.0
3146,51.0,0.0,180.0,11.0,0.0
3147,90.0,144.0,180.0,5.0,0.0
3148,78.0,0.0,180.0,0.0,0.0
3149,50.0,0.0,180.0,11.0,0.0
3150,47.0,0.0,180.0,2.0,0.0
3151,59.0,0.0,180.0,2.0,0.0
3152,50.0,0.0,180.0,12.0,0.0
3153,83.0,0.0,420.0,6.0,0.0
3154,89.0,0.0,180.0,5.0,0.0
3155,62.0,0.0,180.0,10.0,0.0
3156,62.0,0.0,180.0,7.0,0.0
3157,77.0,0.0,180.0,0.0,0.0
3158,62.0,240.0,180.0,1.0,0.0
3159,71.0,48.0,390.0,3.0,0.0
3160,47.0,0.0,390.0,4.0,0.0
3161,51.0,0.0,180.0,11.0,0.0
3162,63.0,0.0,180.0,1.0,0.0
3163,51.0,0.0,180.0,12.0,0.0
3164,90.0,120.0,720.0,5.0,0.0
3165,63.0,168.0,180.0,10.0,0.0
3166,78.0,0.0,840.0,0.0,0.0
3167,47.0,24.0,360.0,2.0,0.0
3168,59.0,0.0,360.0,2.0,0.0
3169,63.0,0.0,180.0,7.0,0.0
3170,63.0,0.0,180.0,7.0,0.0
3171,63.0,192.0,180.0,10.0,0.0
3172,83.0,48.0,390.0,6.0,0.0
3173,51.0,0.0,180.0,12.0,0.0
3174,51.0,0.0,180.0,11.0,0.0
3175,63.0,0.0,180.0,1.0,0.0
3176,66.0,0.0,360.0,2.0,0.0
3177,59.0,0.0,360.0,2.0,0.0
3178,83.0,72.0,360.0,0.0,0.0
3179,51.0,0.0,180.0,11.0,0.0
3180,51.0,0.0,180.0,12.0,0.0
3181,63.0,0.0,180.0,1.0,0.0
3182,63.0,0.0,180.0,10.0,0.0
3183,63.0,48.0,180.0,7.0,0.0
3184,63.0,0.0,180.0,10.0,0.0
3185,51.0,0.0,180.0,12.0,0.0
3186,66.0,0.0,180.0,7.0,0.0
3187,63.0,0.0,180.0,1.0,0.0
3188,83.0,24.0,180.0,6.0,0.0
3189,88.0,0.0,120.0,5.0,0.0
3190,51.0,0.0,180.0,11.0,0.0
3191,87.0,216.0,90.0,5.0,0.0
3192,85.0,0.0,720.0,5.0,0.0
3193,52.0,0.0,180.0,12.0,0.0
3194,64.0,0.0,180.0,10.0,0.0
3195,85.0,0.0,780.0,0.0,0.0
3196,64.0,0.0,180.0,1.0,0.0
3197,68.0,240.0,180.0,7.0,0.0
3198,80.0,0.0,780.0,0.0,0.0
3199,80.0,0.0,780.0,3.0,0.0
3200,76.0,0.0,780.0,3.0,0.0
3201,52.0,0.0,180.0,11.0,0.0
3202,85.0,48.0,720.0,6.0,0.0
3203,68.0,0.0,780.0,2.0,0.0
3204,64.0,72.0,780.0,2.0,0.0
3205,52.0,240.0,180.0,12.0,0.0
3206,64.0,0.0,180.0,1.0,0.0
3207,52.0,0.0,180.0,11.0,0.0
3208,68.0,0.0,180.0,7.0,0.0
3209,64.0,0.0,180.0,10.0,0.0
3210,68.0,0.0,180.0,7.0,0.0
3211,52.0,48.0,180.0,12.0,0.0
3212,64.0,0.0,180.0,1.0,0.0
3213,64.0,0.0,180.0,10.0,0.0
3214,52.0,0.0,180.0,11.0,0.0
3215,52.0,0.0,180.0,11.0,0.0
3216,64.0,0.0,180.0,1.0,0.0
3217,64.0,24.0,180.0,10.0,0.0
3218,68.0,0.0,180.0,7.0,0.0
3219,87.0,0.0,120.0,5.0,0.0
3220,52.0,0.0,180.0,12.0,0.0
3221,87.0,72.0,120.0,6.0,0.0
3222,88.0,0.0,90.0,5.0,0.0
3223,88.0,216.0,90.0,6.0,0.0
3224,78.0,0.0,720.0,6.0,0.0
3225,54.0,0.0,180.0,11.0,0.0
3226,54.0,0.0,180.0,12.0,0.0
3227,70.0,96.0,570.0,7.0,0.0
3228,78.0,48.0,720.0,5.0,0.0
3229,66.0,240.0,180.0,1.0,0.0
3230,78.0,0.0,780.0,3.0,0.0
3231,66.0,0.0,180.0,10.0,0.0
3232,66.0,0.0,780.0,2.0,0.0
3233,73.0,0.0,780.0,0.0,0.0
3234,82.0,48.0,780.0,0.0,0.0
3235,54.0,0.0,180.0,12.0,0.0
3236,66.0,144.0,180.0,1.0,0.0
3237,66.0,0.0,180.0,10.0,0.0
3238,54.0,0.0,180.0,11.0,0.0
3239,66.0,48.0,180.0,1.0,0.0
3240,54.0,0.0,180.0,12.0,0.0
3241,66.0,0.0,180.0,10.0,0.0
3242,54.0,0.0,180.0,11.0,0.0
3243,54.0,0.0,180.0,12.0,0.0
3244,80.0,72.0,120.0,5.0,0.0
3245,71.0,24.0,90.0,7.0,0.0
3246,80.0,0.0,120.0,6.0,0.0
3247,66.0,0.0,180.0,1.0,0.0
3248,66.0,24.0,180.0,10.0,0.0
3249,54.0,0.0,180.0,11.0,0.0
3250,82.0,0.0,90.0,6.0,0.0
3251,73.0,0.0,90.0,7.0,0.0
3252,82.0,336.0,90.0,5.0,0.0
3253,66.0,0.0,300.0,2.0,0.0
3254,75.0,0.0,300.0,0.0,0.0
3255,59.0,0.0,300.0,1.0,0.0
3256,59.0,0.0,390.0,10.0,0.0
3257,78.0,72.0,300.0,3.0,0.0
3258,71.0,0.0,300.0,3.0,0.0
3259,83.0,0.0,300.0,0.0,0.0
3260,83.0,0.0,300.0,5.0,0.0
3261,47.0,216.0,390.0,12.0,0.0
3262,59.0,0.0,300.0,2.0,0.0
3263,47.0,0.0,390.0,4.0,0.0
3264,75.0,0.0,390.0,7.0,0.0
3265,83.0,0.0,300.0,6.0,0.0
3266,47.0,0.0,390.0,11.0,0.0
3267,71.0,6.0,240.0,0.0,0.0
3268,83.0,114.0,120.0,6.0,0.0
3269,83.0,0.0,120.0,5.0,0.0
3270,78.0,120.0,120.0,5.0,0.0
3271,78.0,0.0,120.0,6.0,0.0
3272,75.0,0.0,120.0,6.0,0.0
3273,75.0,78.0,120.0,5.0,0.0
3274,71.0,336.0,90.0,5.0,0.0
3275,71.0,18.0,90.0,0.0,0.0
3276,71.0,0.0,90.0,6.0,0.0
3277,66.0,0.0,300.0,6.0,0.0
3278,66.0,0.0,300.0,2.0,0.0
3279,66.0,480.0,300.0,0.0,0.0
3280,66.0,0.0,300.0,5.0,0.0
3281,42.0,408.0,390.0,12.0,0.0
3282,78.0,0.0,300.0,5.0,0.0
3283,85.0,0.0,300.0,5.0,0.0
3284,66.0,0.0,300.0,5.0,0.0
3285,42.0,0.0,390.0,11.0,0.0
3286,82.0,0.0,300.0,0.0,0.0
3287,66.0,0.0,390.0,7.0,0.0
3288,85.0,0.0,300.0,0.0,0.0
3289,73.0,0.0,300.0,6.0,0.0
3290,82.0,0.0,300.0,6.0,0.0
3291,54.0,0.0,390.0,10.0,0.0
3292,54.0,0.0,300.0,1.0,0.0
3293,66.0,0.0,300.0,6.0,0.0
3294,78.0,0.0,300.0,3.0,0.0
3295,66.0,72.0,300.0,2.0,0.0
3296,78.0,0.0,300.0,3.0,0.0
3297,47.0,0.0,390.0,11.0,0.0
3298,47.0,0.0,390.0,4.0,0.0
3299,66.0,0.0,300.0,5.0,0.0
3300,78.0,0.0,300.0,5.0,0.0
3301,71.0,0.0,300.0,3.0,0.0
3302,87.0,0.0,300.0,5.0,0.0
3303,59.0,0.0,390.0,10.0,0.0
3304,66.0,0.0,300.0,6.0,0.0
3305,83.0,0.0,300.0,6.0,0.0
3306,87.0,0.0,300.0,0.0,0.0
3307,83.0,0.0,300.0,0.0,0.0
3308,71.0,0.0,390.0,7.0,0.0
3309,66.0,0.0,300.0,2.0,0.0
3310,59.0,72.0,300.0,2.0,0.0
3311,59.0,0.0,300.0,1.0,0.0
3312,75.0,0.0,300.0,6.0,0.0
3313,47.0,216.0,390.0,12.0,0.0
3314,83.0,0.0,120.0,5.0,0.0
3315,83.0,114.0,120.0,6.0,0.0
3316,71.0,6.0,240.0,0.0,0.0
3317,78.0,0.0,120.0,5.0,0.0
3318,78.0,120.0,120.0,6.0,0.0
3319,75.0,0.0,120.0,5.0,0.0
3320,75.0,78.0,120.0,6.0,0.0
3321,71.0,0.0,90.0,5.0,0.0
3322,71.0,336.0,90.0,6.0,0.0
3323,71.0,18.0,90.0,0.0,0.0
3324,66.0,0.0,300.0,2.0,0.0
3325,66.0,480.0,300.0,6.0,0.0
3326,66.0,0.0,300.0,0.0,0.0
3327,66.0,0.0,300.0,5.0,0.0
3328,78.0,0.0,300.0,3.0,0.0
3329,73.0,0.0,300.0,5.0,0.0
3330,66.0,0.0,300.0,5.0,0.0
3331,82.0,0.0,300.0,5.0,0.0
3332,42.0,0.0,300.0,12.0,0.0
3333,76.0,0.0,300.0,0.0,0.0
3334,82.0,0.0,300.0,0.0,0.0
3335,54.0,324.0,300.0,10.0,0.0
3336,54.0,0.0,300.0,1.0,0.0
3337,42.0,0.0,300.0,11.0,0.0
3338,66.0,0.0,300.0,2.0,0.0
3339,76.0,0.0,300.0,6.0,0.0
3340,66.0,0.0,300.0,7.0,0.0
3341,66.0,0.0,300.0,6.0,0.0
3342,59.0,0.0,150.0,1.0,0.0
3343,83.0,0.0,150.0,0.0,0.0
3344,75.0,0.0,150.0,0.0,0.0
3345,59.0,0.0,150.0,10.0,0.0
3346,47.0,0.0,150.0,12.0,0.0
3347,66.0,0.0,150.0,5.0,0.0
3348,83.0,0.0,150.0,5.0,0.0
3349,75.0,0.0,150.0,5.0,0.0
3350,47.0,12.0,390.0,4.0,0.0
3351,66.0,0.0,150.0,2.0,0.0
3352,71.0,0.0,150.0,7.0,0.0
3353,59.0,0.0,150.0,2.0,0.0
3354,47.0,0.0,150.0,11.0,0.0
3355,75.0,0.0,150.0,6.0,0.0
3356,66.0,0.0,150.0,6.0,0.0
3357,71.0,228.0,150.0,3.0,0.0
3358,35.0,0.0,150.0,12.0,0.0
3359,59.0,0.0,150.0,6.0,0.0
3360,47.0,0.0,150.0,10.0,0.0
3361,71.0,240.0,150.0,6.0,0.0
3362,35.0,0.0,150.0,11.0,0.0
3363,47.0,0.0,150.0,2.0,0.0
3364,71.0,0.0,150.0,0.0,0.0
3365,47.0,0.0,150.0,1.0,0.0
3366,59.0,0.0,150.0,7.0,0.0
3367,59.0,0.0,150.0,2.0,0.0
3368,71.0,0.0,150.0,3.0,0.0
3369,71.0,0.0,150.0,5.0,0.0
3370,59.0,0.0,150.0,5.0,0.0
3371,71.0,228.0,150.0,6.0,0.0
3372,59.0,0.0,150.0,6.0,0.0
3373,35.0,0.0,150.0,12.0,0.0
3374,59.0,0.0,150.0,7.0,0.0
3375,47.0,0.0,150.0,1.0,0.0
3376,59.0,0.0,150.0,2.0,0.0
3377,47.0,0.0,150.0,2.0,0.0
3378,71.0,0.0,150.0,3.0,0.0
3379,71.0,0.0,150.0,0.0,0.0
3380,35.0,0.0,150.0,11.0,0.0
3381,59.0,0.0,150.0,5.0,0.0
3382,47.0,0.0,150.0,10.0,0.0
3383,71.0,0.0,150.0,5.0,0.0
3384,47.0,12.0,390.0,4.0,0.0
3385,59.0,0.0,150.0,7.0,0.0
3386,59.0,0.0,150.0,2.0,0.0
3387,47.0,0.0,150.0,2.0,0.0
3388,47.0,468.0,150.0,10.0,0.0
3389,71.0,0.0,150.0,5.0,0.0
3390,59.0,0.0,150.0,5.0,0.0
3391,35.0,0.0,150.0,11.0,0.0
3392,47.0,0.0,150.0,1.0,0.0
3393,71.0,0.0,150.0,3.0,0.0
3394,35.0,0.0,150.0,12.0,0.0
3395,71.0,0.0,150.0,0.0,0.0
3396,59.0,0.0,150.0,6.0,0.0
3397,71.0,0.0,150.0,6.0,0.0
3398,59.0,0.0,390.0,7.0,0.0
3399,59.0,0.0,390.0,6.0,0.0
3400,47.0,0.0,390.0,4.0,0.0
3401,71.0,0.0,390.0,0.0,0.0
3402,71.0,0.0,390.0,6.0,0.0
3403,59.0,0.0,390.0,5.0,0.0
3404,35.0,0.0,390.0,12.0,0.0
3405,59.0,0.0,390.0,2.0,0.0
3406,35.0,768.0,390.0,11.0,0.0
3407,71.0,0.0,390.0,5.0,0.0
3408,71.0,0.0,390.0,3.0,0.0
3409,47.0,0.0,390.0,10.0,0.0
3410,47.0,0.0,390.0,1.0,0.0
3411,47.0,0.0,390.0,2.0,0.0
3412,68.0,0.0,780.0,6.0,0.0
3413,64.0,240.0,180.0,10.0,0.0
3414,76.0,144.0,780.0,5.0,0.0
3415,64.0,144.0,1740.0,7.0,0.0
3416,64.0,240.0,180.0,10.0,0.0
3417,64.0,96.0,180.0,10.0,0.0
3418,64.0,240.0,180.0,10.0,0.0
3419,73.0,0.0,720.0,6.0,0.0
3420,81.0,48.0,720.0,5.0,0.0
3421,64.0,240.0,180.0,10.0,0.0
3422,64.0,240.0,180.0,10.0,0.0
3423,64.0,48.0,180.0,10.0,0.0
3424,71.0,108.0,180.0,6.0,0.0
3425,80.0,0.0,180.0,5.0,0.0
3426,64.0,0.0,180.0,10.0,0.0
3427,80.0,132.0,60.0,5.0,0.0
3428,73.0,144.0,1740.0,7.0,0.0
3429,64.0,48.0,180.0,10.0,0.0
3430,71.0,0.0,60.0,6.0,0.0
3431,78.0,0.0,180.0,5.0,0.0
3432,69.0,192.0,180.0,6.0,0.0
3433,77.0,108.0,180.0,5.0,0.0
3434,64.0,0.0,180.0,10.0,0.0
3435,68.0,0.0,180.0,6.0,0.0
3436,80.0,132.0,60.0,5.0,0.0
3437,64.0,48.0,180.0,10.0,0.0
3438,71.0,0.0,60.0,6.0,0.0
3439,69.0,192.0,180.0,6.0,0.0
3440,78.0,0.0,180.0,5.0,0.0
3441,77.0,0.0,180.0,5.0,0.0
3442,68.0,240.0,180.0,6.0,0.0
3443,64.0,0.0,180.0,10.0,0.0
3444,69.0,0.0,390.0,6.0,0.0
3445,78.0,48.0,390.0,5.0,0.0
3446,64.0,192.0,180.0,10.0,0.0
3447,64.0,240.0,180.0,10.0,0.0
3448,64.0,96.0,180.0,10.0,0.0
3449,64.0,288.0,180.0,10.0,0.0
3450,71.0,0.0,2100.0,6.0,0.0
3451,78.0,240.0,240.0,5.0,0.0
3452,66.0,192.0,1920.0,7.0,0.0
3453,63.0,144.0,1740.0,10.0,0.0
3454,80.0,240.0,240.0,5.0,0.0
3455,81.0,192.0,240.0,5.0,0.0
3456,82.0,288.0,180.0,5.0,0.0
3457,83.0,240.0,240.0,5.0,0.0
3458,84.0,240.0,240.0,5.0,0.0
3459,85.0,48.0,240.0,5.0,0.0
3460,81.0,48.0,180.0,5.0,0.0
3461,64.0,0.0,180.0,10.0,0.0
3462,80.0,240.0,180.0,5.0,0.0
3463,64.0,0.0,180.0,7.0,0.0
3464,64.0,0.0,180.0,10.0,0.0
3465,76.0,0.0,180.0,6.0,0.0
3466,80.0,168.0,180.0,5.0,0.0
3467,71.0,0.0,180.0,7.0,0.0
3468,78.0,0.0,120.0,6.0,0.0
3469,83.0,72.0,120.0,5.0,0.0
3470,71.0,0.0,180.0,7.0,0.0
3471,64.0,48.0,180.0,10.0,0.0
3472,76.0,120.0,120.0,6.0,0.0
3473,81.0,0.0,120.0,5.0,0.0
3474,64.0,0.0,180.0,10.0,0.0
3475,80.0,0.0,120.0,5.0,0.0
3476,71.0,24.0,180.0,7.0,0.0
3477,75.0,72.0,120.0,6.0,0.0
3478,81.0,0.0,90.0,5.0,0.0
3479,76.0,408.0,90.0,6.0,0.0
3480,64.0,0.0,390.0,10.0,0.0
3481,83.0,0.0,390.0,5.0,0.0
3482,80.0,1296.0,390.0,6.0,0.0
3483,71.0,0.0,390.0,7.0,0.0
3484,52.0,0.0,720.0,1.0,0.0
3485,40.0,0.0,720.0,12.0,0.0
3486,40.0,0.0,720.0,11.0,0.0
3487,52.0,0.0,720.0,10.0,0.0
3488,64.0,0.0,720.0,6.0,0.0
3489,76.0,0.0,720.0,0.0,0.0
3490,64.0,48.0,720.0,5.0,0.0
3491,64.0,0.0,720.0,7.0,0.0
3492,52.0,72.0,780.0,2.0,0.0
3493,64.0,0.0,780.0,2.0,0.0
3494,54.0,0.0,120.0,1.0,0.0
3495,66.0,0.0,120.0,6.0,0.0
3496,66.0,0.0,120.0,7.0,0.0
3497,42.0,96.0,120.0,12.0,0.0
3498,42.0,0.0,120.0,11.0,0.0
3499,54.0,0.0,120.0,10.0,0.0
3500,66.0,0.0,120.0,5.0,0.0
3501,78.0,0.0,120.0,0.0,0.0
3502,56.0,0.0,90.0,10.0,0.0
3503,80.0,0.0,90.0,0.0,0.0
3504,68.0,0.0,90.0,5.0,0.0
3505,44.0,192.0,90.0,11.0,0.0
3506,68.0,0.0,90.0,7.0,0.0
3507,44.0,0.0,90.0,12.0,0.0
3508,56.0,0.0,90.0,1.0,0.0
3509,68.0,0.0,90.0,6.0,0.0
3510,45.0,0.0,180.0,12.0,0.0
3511,45.0,0.0,180.0,11.0,0.0
3512,57.0,0.0,180.0,1.0,0.0
3513,57.0,0.0,180.0,10.0,0.0
3514,69.0,0.0,180.0,5.0,0.0
3515,69.0,0.0,180.0,7.0,0.0
3516,69.0,240.0,180.0,6.0,0.0
3517,81.0,0.0,180.0,0.0,0.0
3518,69.0,0.0,180.0,7.0,0.0
3519,57.0,0.0,180.0,10.0,0.0
3520,45.0,0.0,180.0,12.0,0.0
3521,69.0,192.0,180.0,5.0,0.0
3522,57.0,0.0,180.0,1.0,0.0
3523,81.0,0.0,180.0,0.0,0.0
3524,45.0,0.0,180.0,11.0,0.0
3525,69.0,0.0,180.0,6.0,0.0
3526,81.0,0.0,180.0,0.0,0.0
3527,69.0,0.0,180.0,7.0,0.0
3528,57.0,0.0,180.0,1.0,0.0
3529,69.0,48.0,120.0,5.0,0.0
3530,69.0,0.0,120.0,6.0,0.0
3531,57.0,0.0,180.0,10.0,0.0
3532,45.0,0.0,180.0,12.0,0.0
3533,45.0,72.0,180.0,11.0,0.0
3534,71.0,0.0,120.0,6.0,0.0
3535,71.0,120.0,120.0,5.0,0.0
3536,44.0,0.0,180.0,12.0,0.0
3537,80.0,0.0,180.0,0.0,0.0
3538,68.0,48.0,120.0,6.0,0.0
3539,44.0,0.0,180.0,11.0,0.0
3540,56.0,48.0,180.0,10.0,0.0
3541,68.0,0.0,120.0,5.0,0.0
3542,68.0,0.0,180.0,7.0,0.0
3543,56.0,0.0,180.0,1.0,0.0
3544,69.0,0.0,90.0,5.0,0.0
3545,69.0,192.0,90.0,6.0,0.0
3546,66.0,0.0,240.0,7.0,0.0
3547,42.0,0.0,240.0,12.0,0.0
3548,54.0,0.0,240.0,1.0,0.0
3549,78.0,0.0,240.0,0.0,0.0
3550,66.0,120.0,240.0,6.0,0.0
3551,66.0,0.0,240.0,5.0,0.0
3552,54.0,0.0,240.0,10.0,0.0
3553,42.0,0.0,240.0,11.0,0.0
3554,66.0,72.0,180.0,2.0,0.0
3555,68.0,0.0,120.0,7.0,0.0
3556,68.0,0.0,120.0,5.0,0.0
3557,68.0,0.0,120.0,6.0,0.0
3558,44.0,0.0,120.0,12.0,0.0
3559,56.0,0.0,120.0,10.0,0.0
3560,56.0,0.0,120.0,1.0,0.0
3561,80.0,0.0,120.0,0.0,0.0
3562,44.0,48.0,120.0,11.0,0.0
3563,66.0,48.0,180.0,2.0,0.0
3564,69.0,0.0,90.0,5.0,0.0
3565,57.0,0.0,90.0,10.0,0.0
3566,45.0,144.0,90.0,12.0,0.0
3567,57.0,0.0,90.0,1.0,0.0
3568,69.0,0.0,90.0,6.0,0.0
3569,45.0,0.0,90.0,11.0,0.0
3570,81.0,0.0,90.0,0.0,0.0
3571,69.0,0.0,90.0,7.0,0.0
3572,83.0,48.0,180.0,0.0,0.0
3573,47.0,0.0,180.0,11.0,0.0
3574,66.0,0.0,180.0,2.0,0.0
3575,59.0,0.0,180.0,2.0,0.0
3576,47.0,0.0,180.0,12.0,0.0
3577,59.0,0.0,180.0,1.0,0.0
3578,71.0,0.0,180.0,7.0,0.0
3579,59.0,24.0,180.0,10.0,0.0
3580,71.0,0.0,120.0,6.0,0.0
3581,71.0,48.0,120.0,5.0,0.0
3582,73.0,120.0,120.0,6.0,0.0
3583,73.0,0.0,120.0,5.0,0.0
3584,66.0,0.0,180.0,2.0,0.0
3585,59.0,0.0,180.0,2.0,0.0
3586,81.0,24.0,180.0,0.0,0.0
3587,69.0,0.0,120.0,6.0,0.0
3588,57.0,0.0,180.0,1.0,0.0
3589,69.0,48.0,120.0,5.0,0.0
3590,57.0,0.0,180.0,10.0,0.0
3591,69.0,0.0,180.0,7.0,0.0
3592,45.0,0.0,180.0,12.0,0.0
3593,45.0,24.0,180.0,11.0,0.0
3594,71.0,408.0,90.0,6.0,0.0
3595,71.0,0.0,90.0,5.0,0.0
3596,68.0,0.0,390.0,5.0,0.0
3597,68.0,0.0,390.0,7.0,0.0
3598,56.0,0.0,390.0,10.0,0.0
3599,68.0,0.0,390.0,2.0,0.0
3600,80.0,0.0,390.0,0.0,0.0
3601,56.0,0.0,390.0,1.0,0.0
3602,44.0,744.0,390.0,12.0,0.0
3603,64.0,0.0,390.0,2.0,0.0
3604,68.0,0.0,390.0,6.0,0.0
3605,44.0,0.0,390.0,11.0,0.0
3606,83.0,168.0,720.0,5.0,0.0
3607,68.0,240.0,180.0,7.0,0.0
3608,76.0,144.0,1200.0,6.0,0.0
3609,68.0,240.0,180.0,7.0,0.0
3610,68.0,72.0,180.0,7.0,0.0
3611,68.0,24.0,180.0,7.0,0.0
3612,88.0,216.0,180.0,5.0,0.0
3613,87.0,0.0,240.0,5.0,0.0
3614,69.0,72.0,180.0,7.0,0.0
3615,85.0,24.0,150.0,5.0,0.0
3616,81.0,0.0,150.0,6.0,0.0
3617,69.0,216.0,180.0,7.0,0.0
3618,69.0,216.0,180.0,7.0,0.0
3619,83.0,0.0,150.0,5.0,0.0
3620,80.0,24.0,150.0,6.0,0.0
3621,69.0,240.0,180.0,7.0,0.0
3622,81.0,0.0,150.0,5.0,0.0
3623,78.0,24.0,150.0,6.0,0.0
3624,78.0,0.0,240.0,6.0,0.0
3625,71.0,72.0,180.0,7.0,0.0
3626,81.0,144.0,240.0,5.0,0.0
3627,76.0,0.0,150.0,6.0,0.0
3628,80.0,24.0,150.0,5.0,0.0
3629,71.0,240.0,180.0,7.0,0.0
3630,76.0,144.0,240.0,6.0,0.0
3631,80.0,0.0,240.0,5.0,0.0
3632,71.0,72.0,180.0,7.0,0.0
3633,71.0,456.0,180.0,7.0,0.0
3634,75.0,0.0,150.0,6.0,0.0
3635,78.0,24.0,150.0,5.0,0.0
3636,79.0,0.0,480.0,5.0,0.0
3637,64.0,96.0,390.0,7.0,0.0
3638,75.0,192.0,480.0,6.0,0.0
3639,80.0,0.0,180.0,5.0,0.0
3640,76.0,1008.0,180.0,6.0,0.0
3641,52.0,0.0,720.0,10.0,0.0
3642,40.0,48.0,720.0,12.0,0.0
3643,64.0,0.0,720.0,7.0,0.0
3644,64.0,0.0,720.0,5.0,0.0
3645,52.0,0.0,720.0,1.0,0.0
3646,64.0,0.0,720.0,6.0,0.0
3647,76.0,0.0,720.0,0.0,0.0
3648,40.0,0.0,720.0,11.0,0.0
3649,64.0,72.0,780.0,2.0,0.0
3650,52.0,0.0,780.0,2.0,0.0
3651,66.0,0.0,120.0,7.0,0.0
3652,42.0,0.0,120.0,11.0,0.0
3653,54.0,0.0,120.0,10.0,0.0
3654,78.0,0.0,120.0,0.0,0.0
3655,54.0,0.0,120.0,1.0,0.0
3656,42.0,96.0,120.0,12.0,0.0
3657,66.0,0.0,120.0,6.0,0.0
3658,66.0,0.0,120.0,5.0,0.0
3659,80.0,0.0,90.0,0.0,0.0
3660,56.0,0.0,90.0,1.0,0.0
3661,44.0,192.0,90.0,11.0,0.0
3662,68.0,0.0,90.0,6.0,0.0
3663,68.0,0.0,90.0,5.0,0.0
3664,68.0,0.0,90.0,7.0,0.0
3665,44.0,0.0,90.0,12.0,0.0
3666,56.0,0.0,90.0,10.0,0.0
3667,69.0,240.0,180.0,6.0,0.0
3668,57.0,0.0,180.0,10.0,0.0
3669,69.0,0.0,180.0,5.0,0.0
3670,45.0,0.0,180.0,12.0,0.0
3671,81.0,0.0,180.0,0.0,0.0
3672,69.0,0.0,180.0,7.0,0.0
3673,45.0,0.0,180.0,11.0,0.0
3674,57.0,0.0,180.0,1.0,0.0
3675,45.0,0.0,180.0,12.0,0.0
3676,45.0,0.0,180.0,11.0,0.0
3677,57.0,0.0,180.0,10.0,0.0
3678,69.0,0.0,180.0,7.0,0.0
3679,57.0,0.0,180.0,1.0,0.0
3680,69.0,0.0,180.0,5.0,0.0
3681,81.0,192.0,180.0,0.0,0.0
3682,69.0,0.0,180.0,6.0,0.0
3683,69.0,0.0,120.0,7.0,0.0
3684,57.0,0.0,180.0,1.0,0.0
3685,69.0,48.0,120.0,5.0,0.0
3686,57.0,0.0,180.0,10.0,0.0
3687,81.0,72.0,180.0,0.0,0.0
3688,69.0,0.0,120.0,6.0,0.0
3689,45.0,0.0,180.0,11.0,0.0
3690,45.0,0.0,180.0,12.0,0.0
3691,71.0,0.0,120.0,7.0,0.0
3692,71.0,0.0,120.0,5.0,0.0
3693,71.0,120.0,120.0,6.0,0.0
3694,44.0,48.0,180.0,11.0,0.0
3695,56.0,0.0,180.0,1.0,0.0
3696,68.0,0.0,120.0,5.0,0.0
3697,68.0,48.0,120.0,7.0,0.0
3698,68.0,0.0,120.0,6.0,0.0
3699,44.0,0.0,180.0,12.0,0.0
3700,80.0,0.0,180.0,0.0,0.0
3701,56.0,0.0,180.0,10.0,0.0
3702,69.0,0.0,90.0,5.0,0.0
3703,69.0,0.0,90.0,7.0,0.0
3704,69.0,192.0,90.0,6.0,0.0
3705,66.0,72.0,180.0,2.0,0.0
3706,54.0,0.0,240.0,10.0,0.0
3707,66.0,120.0,240.0,5.0,0.0
3708,54.0,0.0,240.0,1.0,0.0
3709,78.0,0.0,240.0,0.0,0.0
3710,66.0,0.0,240.0,6.0,0.0
3711,42.0,0.0,240.0,12.0,0.0
3712,66.0,0.0,240.0,7.0,0.0
3713,42.0,0.0,240.0,11.0,0.0
3714,44.0,48.0,120.0,12.0,0.0
3715,56.0,0.0,120.0,10.0,0.0
3716,68.0,0.0,120.0,5.0,0.0
3717,66.0,48.0,180.0,2.0,0.0
3718,68.0,0.0,120.0,7.0,0.0
3719,56.0,0.0,120.0,1.0,0.0
3720,80.0,0.0,120.0,0.0,0.0
3721,44.0,0.0,120.0,11.0,0.0
3722,68.0,0.0,120.0,6.0,0.0
3723,69.0,0.0,90.0,7.0,0.0
3724,57.0,0.0,90.0,10.0,0.0
3725,45.0,0.0,90.0,11.0,0.0
3726,69.0,0.0,90.0,6.0,0.0
3727,81.0,0.0,90.0,0.0,0.0
3728,57.0,0.0,90.0,1.0,0.0
3729,69.0,0.0,90.0,5.0,0.0
3730,45.0,144.0,90.0,12.0,0.0
3731,59.0,0.0,180.0,1.0,0.0
3732,83.0,48.0,180.0,0.0,0.0
3733,71.0,0.0,120.0,7.0,0.0
3734,59.0,0.0,180.0,10.0,0.0
3735,47.0,0.0,180.0,11.0,0.0
3736,71.0,48.0,120.0,6.0,0.0
3737,71.0,0.0,120.0,5.0,0.0
3738,59.0,0.0,180.0,2.0,0.0
3739,47.0,0.0,180.0,12.0,0.0
3740,66.0,24.0,180.0,2.0,0.0
3741,73.0,0.0,120.0,6.0,0.0
3742,73.0,120.0,120.0,7.0,0.0
3743,73.0,0.0,120.0,5.0,0.0
3744,69.0,0.0,120.0,5.0,0.0
3745,81.0,0.0,180.0,0.0,0.0
3746,57.0,24.0,180.0,1.0,0.0
3747,45.0,0.0,180.0,12.0,0.0
3748,69.0,48.0,120.0,6.0,0.0
3749,69.0,0.0,120.0,7.0,0.0
3750,66.0,0.0,180.0,2.0,0.0
3751,59.0,0.0,180.0,2.0,0.0
3752,57.0,0.0,180.0,10.0,0.0
3753,45.0,24.0,180.0,11.0,0.0
3754,71.0,0.0,90.0,5.0,0.0
3755,71.0,408.0,90.0,6.0,0.0
3756,71.0,0.0,90.0,7.0,0.0
3757,80.0,0.0,390.0,0.0,0.0
3758,68.0,0.0,390.0,7.0,0.0
3759,68.0,0.0,390.0,5.0,0.0
3760,56.0,0.0,390.0,10.0,0.0
3761,44.0,792.0,390.0,11.0,0.0
3762,56.0,0.0,390.0,1.0,0.0
3763,68.0,0.0,390.0,6.0,0.0
3764,68.0,0.0,390.0,2.0,0.0
3765,64.0,0.0,390.0,2.0,0.0
3766,44.0,0.0,390.0,12.0,0.0
3767,76.0,0.0,210.0,6.0,0.0
3768,68.0,240.0,210.0,7.0,0.0
3769,83.0,192.0,720.0,5.0,0.0
3770,76.0,240.0,210.0,6.0,0.0
3771,68.0,0.0,210.0,7.0,0.0
3772,76.0,0.0,210.0,6.0,0.0
3773,68.0,24.0,210.0,7.0,0.0
3774,88.0,24.0,180.0,5.0,0.0
3775,68.0,240.0,210.0,7.0,0.0
3776,76.0,0.0,210.0,6.0,0.0
3777,76.0,0.0,210.0,6.0,0.0
3778,88.0,192.0,720.0,5.0,0.0
3779,69.0,240.0,210.0,7.0,0.0
3780,76.0,0.0,210.0,6.0,0.0
3781,69.0,240.0,210.0,7.0,0.0
3782,76.0,0.0,210.0,6.0,0.0
3783,69.0,24.0,210.0,7.0,0.0
3784,85.0,24.0,180.0,5.0,0.0
3785,69.0,240.0,210.0,7.0,0.0
3786,76.0,0.0,210.0,6.0,0.0
3787,76.0,0.0,210.0,6.0,0.0
3788,69.0,24.0,210.0,7.0,0.0
3789,85.0,216.0,240.0,5.0,0.0
3790,69.0,0.0,210.0,7.0,0.0
3791,76.0,216.0,240.0,5.0,0.0
3792,76.0,24.0,210.0,6.0,0.0
3793,76.0,0.0,210.0,6.0,0.0
3794,69.0,24.0,210.0,7.0,0.0
3795,85.0,192.0,240.0,5.0,0.0
3796,69.0,240.0,210.0,7.0,0.0
3797,88.0,24.0,180.0,5.0,0.0
3798,76.0,0.0,210.0,6.0,0.0
3799,88.0,192.0,720.0,5.0,0.0
3800,76.0,0.0,210.0,6.0,0.0
3801,68.0,240.0,210.0,7.0,0.0
3802,68.0,240.0,210.0,7.0,0.0
3803,76.0,0.0,210.0,6.0,0.0
3804,76.0,0.0,210.0,6.0,0.0
3805,68.0,24.0,210.0,7.0,0.0
3806,76.0,0.0,210.0,6.0,0.0
3807,68.0,216.0,210.0,7.0,0.0
3808,83.0,24.0,180.0,5.0,0.0
3809,68.0,0.0,180.0,7.0,0.0
3810,76.0,48.0,180.0,6.0,0.0
3811,83.0,192.0,240.0,5.0,0.0
3812,76.0,48.0,180.0,6.0,0.0
3813,76.0,192.0,240.0,5.0,0.0
3814,68.0,0.0,180.0,7.0,0.0
3815,83.0,192.0,240.0,5.0,0.0
3816,68.0,0.0,180.0,7.0,0.0
3817,76.0,48.0,180.0,6.0,0.0
3818,88.0,0.0,180.0,5.0,0.0
3819,68.0,0.0,180.0,7.0,0.0
3820,76.0,108.0,180.0,6.0,0.0
3821,76.0,0.0,180.0,6.0,0.0
3822,85.0,60.0,60.0,5.0,0.0
3823,69.0,48.0,180.0,7.0,0.0
3824,87.0,72.0,60.0,5.0,0.0
3825,88.0,300.0,120.0,5.0,0.0
3826,73.0,48.0,180.0,6.0,0.0
3827,78.0,60.0,60.0,5.0,0.0
3828,57.0,0.0,180.0,7.0,0.0
3829,80.0,72.0,60.0,5.0,0.0
3830,81.0,300.0,120.0,5.0,0.0
3831,80.0,0.0,60.0,5.0,0.0
3832,59.0,48.0,180.0,7.0,0.0
3833,64.0,60.0,60.0,6.0,0.0
3834,66.0,0.0,60.0,6.0,0.0
3835,81.0,72.0,60.0,5.0,0.0
3836,83.0,300.0,120.0,5.0,0.0
3837,68.0,0.0,120.0,6.0,0.0
3838,66.0,60.0,60.0,6.0,0.0
3839,59.0,48.0,180.0,7.0,0.0
3840,75.0,0.0,60.0,5.0,0.0
3841,76.0,0.0,60.0,5.0,0.0
3842,68.0,72.0,60.0,6.0,0.0
3843,69.0,432.0,120.0,6.0,0.0
3844,78.0,0.0,120.0,5.0,0.0
3845,64.0,0.0,780.0,2.0,0.0
3846,52.0,192.0,180.0,11.0,0.0
3847,52.0,0.0,780.0,2.0,0.0
3848,64.0,0.0,180.0,1.0,0.0
3849,76.0,0.0,780.0,5.0,0.0
3850,64.0,0.0,780.0,3.0,0.0
3851,76.0,144.0,780.0,3.0,0.0
3852,52.0,0.0,180.0,12.0,0.0
3853,76.0,0.0,780.0,0.0,0.0
3854,64.0,0.0,180.0,10.0,0.0
3855,76.0,0.0,780.0,6.0,0.0
3856,68.0,0.0,780.0,6.0,0.0
3857,64.0,0.0,780.0,7.0,0.0
3858,52.0,48.0,390.0,4.0,0.0
3859,64.0,0.0,180.0,1.0,0.0
3860,52.0,0.0,180.0,12.0,0.0
3861,52.0,0.0,180.0,11.0,0.0
3862,64.0,240.0,180.0,10.0,0.0
3863,52.0,0.0,180.0,12.0,0.0
3864,52.0,0.0,180.0,11.0,0.0
3865,64.0,0.0,180.0,1.0,0.0
3866,64.0,96.0,180.0,10.0,0.0
3867,64.0,240.0,180.0,10.0,0.0
3868,52.0,0.0,180.0,11.0,0.0
3869,64.0,0.0,180.0,1.0,0.0
3870,52.0,0.0,180.0,12.0,0.0
3871,68.0,0.0,180.0,1.0,0.0
3872,68.0,96.0,570.0,3.0,0.0
3873,80.0,0.0,570.0,3.0,0.0
3874,80.0,0.0,570.0,0.0,0.0
3875,68.0,0.0,570.0,7.0,0.0
3876,52.0,48.0,390.0,4.0,0.0
3877,80.0,0.0,570.0,5.0,0.0
3878,68.0,0.0,570.0,2.0,0.0
3879,56.0,0.0,570.0,2.0,0.0
3880,56.0,0.0,180.0,12.0,0.0
3881,68.0,0.0,180.0,10.0,0.0
3882,56.0,192.0,180.0,11.0,0.0
3883,80.0,0.0,570.0,6.0,0.0
3884,68.0,0.0,180.0,10.0,0.0
3885,56.0,144.0,180.0,12.0,0.0
3886,68.0,0.0,180.0,1.0,0.0
3887,56.0,0.0,180.0,11.0,0.0
3888,68.0,216.0,180.0,10.0,0.0
3889,56.0,0.0,180.0,11.0,0.0
3890,56.0,0.0,180.0,12.0,0.0
3891,68.0,0.0,180.0,1.0,0.0
3892,71.0,0.0,180.0,3.0,0.0
3893,47.0,240.0,180.0,11.0,0.0
3894,71.0,0.0,180.0,6.0,0.0
3895,71.0,0.0,180.0,0.0,0.0
3896,59.0,0.0,180.0,1.0,0.0
3897,59.0,24.0,180.0,7.0,0.0
3898,47.0,0.0,180.0,12.0,0.0
3899,59.0,0.0,180.0,10.0,0.0
3900,71.0,0.0,180.0,5.0,0.0
3901,59.0,0.0,180.0,2.0,0.0
3902,64.0,0.0,570.0,7.0,0.0
3903,52.0,48.0,390.0,4.0,0.0
3904,64.0,0.0,570.0,2.0,0.0
3905,64.0,0.0,180.0,10.0,0.0
3906,76.0,0.0,570.0,5.0,0.0
3907,64.0,192.0,180.0,1.0,0.0
3908,76.0,0.0,570.0,0.0,0.0
3909,52.0,0.0,180.0,11.0,0.0
3910,52.0,0.0,180.0,12.0,0.0
3911,76.0,0.0,570.0,6.0,0.0
3912,76.0,96.0,570.0,3.0,0.0
3913,52.0,0.0,180.0,12.0,0.0
3914,64.0,0.0,180.0,1.0,0.0
3915,64.0,0.0,180.0,10.0,0.0
3916,52.0,144.0,180.0,11.0,0.0
3917,64.0,216.0,180.0,1.0,0.0
3918,52.0,0.0,180.0,11.0,0.0
3919,52.0,0.0,180.0,12.0,0.0
3920,64.0,0.0,180.0,10.0,0.0
3921,44.0,0.0,180.0,12.0,0.0
3922,56.0,0.0,180.0,7.0,0.0
3923,68.0,0.0,180.0,3.0,0.0
3924,56.0,216.0,180.0,10.0,0.0
3925,68.0,0.0,180.0,0.0,0.0
3926,68.0,0.0,180.0,2.0,0.0
3927,68.0,0.0,180.0,5.0,0.0
3928,68.0,24.0,180.0,6.0,0.0
3929,56.0,0.0,180.0,2.0,0.0
3930,44.0,0.0,180.0,11.0,0.0
3931,56.0,0.0,180.0,1.0,0.0
3932,59.0,0.0,180.0,1.0,0.0
3933,71.0,0.0,180.0,6.0,0.0
3934,47.0,192.0,180.0,11.0,0.0
3935,47.0,24.0,390.0,4.0,0.0
3936,47.0,0.0,180.0,12.0,0.0
3937,71.0,0.0,180.0,0.0,0.0
3938,71.0,0.0,180.0,5.0,0.0
3939,71.0,24.0,180.0,3.0,0.0
3940,59.0,0.0,180.0,7.0,0.0
3941,71.0,0.0,180.0,2.0,0.0
3942,59.0,0.0,180.0,10.0,0.0
3943,59.0,0.0,180.0,2.0,0.0
3944,52.0,0.0,180.0,2.0,0.0
3945,52.0,0.0,180.0,10.0,0.0
3946,64.0,0.0,180.0,2.0,0.0
3947,64.0,0.0,180.0,5.0,0.0
3948,40.0,0.0,180.0,12.0,0.0
3949,64.0,0.0,180.0,6.0,0.0
3950,52.0,0.0,180.0,7.0,0.0
3951,52.0,0.0,180.0,1.0,0.0
3952,40.0,216.0,180.0,11.0,0.0
3953,64.0,0.0,180.0,3.0,0.0
3954,64.0,24.0,180.0,0.0,0.0
3955,44.0,0.0,180.0,11.0,0.0
3956,68.0,0.0,180.0,6.0,0.0
3957,44.0,0.0,180.0,12.0,0.0
3958,56.0,24.0,180.0,2.0,0.0
3959,68.0,0.0,180.0,2.0,0.0
3960,56.0,192.0,180.0,10.0,0.0
3961,68.0,0.0,180.0,3.0,0.0
3962,68.0,0.0,180.0,0.0,0.0
3963,56.0,0.0,180.0,1.0,0.0
3964,47.0,24.0,390.0,4.0,0.0
3965,68.0,0.0,180.0,5.0,0.0
3966,56.0,0.0,180.0,7.0,0.0
3967,35.0,144.0,180.0,12.0,0.0
3968,59.0,0.0,180.0,5.0,0.0
3969,59.0,0.0,180.0,3.0,0.0
3970,71.0,0.0,180.0,0.0,0.0
3971,71.0,0.0,180.0,3.0,0.0
3972,59.0,0.0,180.0,7.0,0.0
3973,35.0,0.0,180.0,11.0,0.0
3974,47.0,0.0,180.0,1.0,0.0
3975,59.0,0.0,180.0,6.0,0.0
3976,47.0,0.0,180.0,10.0,0.0
3977,47.0,24.0,180.0,2.0,0.0
3978,59.0,0.0,180.0,2.0,0.0
3979,40.0,0.0,390.0,12.0,0.0
3980,64.0,24.0,390.0,2.0,0.0
3981,64.0,0.0,390.0,3.0,0.0
3982,52.0,0.0,390.0,1.0,0.0
3983,40.0,0.0,390.0,11.0,0.0
3984,52.0,0.0,390.0,4.0,0.0
3985,64.0,0.0,90.0,6.0,0.0
3986,64.0,120.0,90.0,5.0,0.0
3987,64.0,0.0,390.0,7.0,0.0
3988,52.0,0.0,390.0,2.0,0.0
3989,68.0,0.0,390.0,3.0,0.0
3990,76.0,48.0,420.0,0.0,0.0
3991,52.0,0.0,390.0,10.0,0.0
3992,64.0,0.0,90.0,5.0,0.0
3993,64.0,120.0,90.0,6.0,0.0
3994,71.0,0.0,180.0,0.0,0.0
3995,59.0,48.0,90.0,5.0,0.0
3996,59.0,0.0,90.0,6.0,0.0
3997,59.0,120.0,90.0,6.0,0.0
3998,59.0,0.0,90.0,5.0,0.0
3999,61.0,0.0,90.0,6.0,0.0
4000,73.0,48.0,180.0,0.0,0.0
4001,61.0,72.0,90.0,5.0,0.0
4002,61.0,0.0,90.0,5.0,0.0
4003,61.0,120.0,90.0,6.0,0.0
4004,63.0,72.0,90.0,6.0,0.0
4005,63.0,0.0,90.0,5.0,0.0
4006,75.0,48.0,180.0,0.0,0.0
4007,63.0,0.0,90.0,5.0,0.0
4008,63.0,120.0,90.0,6.0,0.0
4009,56.0,0.0,390.0,2.0,0.0
4010,64.0,0.0,390.0,2.0,0.0
4011,56.0,0.0,390.0,7.0,0.0
4012,68.0,0.0,390.0,3.0,0.0
4013,64.0,120.0,90.0,6.0,0.0
4014,52.0,0.0,390.0,12.0,0.0
4015,64.0,0.0,90.0,5.0,0.0
4016,52.0,0.0,390.0,4.0,0.0
4017,64.0,0.0,390.0,1.0,0.0
4018,52.0,0.0,390.0,11.0,0.0
4019,76.0,0.0,390.0,0.0,0.0
4020,76.0,0.0,390.0,3.0,0.0
4021,64.0,72.0,390.0,10.0,0.0
4022,64.0,120.0,90.0,6.0,0.0
4023,64.0,0.0,90.0,5.0,0.0
4024,59.0,0.0,90.0,6.0,0.0
4025,59.0,48.0,90.0,5.0,0.0
4026,59.0,120.0,90.0,6.0,0.0
4027,59.0,0.0,90.0,5.0,0.0
4028,47.0,0.0,390.0,4.0,0.0
4029,59.0,0.0,390.0,7.0,0.0
4030,59.0,0.0,390.0,2.0,0.0
4031,66.0,0.0,390.0,2.0,0.0
4032,47.0,0.0,390.0,12.0,0.0
4033,59.0,72.0,390.0,10.0,0.0
4034,63.0,0.0,90.0,6.0,0.0
4035,78.0,0.0,390.0,3.0,0.0
4036,66.0,120.0,90.0,5.0,0.0
4037,71.0,0.0,390.0,3.0,0.0
4038,59.0,0.0,390.0,1.0,0.0
4039,47.0,0.0,390.0,11.0,0.0
4040,78.0,0.0,390.0,0.0,0.0
4041,63.0,0.0,90.0,6.0,0.0
4042,66.0,120.0,90.0,5.0,0.0
4043,59.0,0.0,90.0,6.0,0.0
4044,59.0,48.0,90.0,5.0,0.0
4045,59.0,120.0,90.0,5.0,0.0
4046,59.0,0.0,90.0,6.0,0.0
4047,40.0,0.0,390.0,11.0,0.0
4048,40.0,0.0,390.0,12.0,0.0
4049,64.0,0.0,390.0,2.0,0.0
4050,68.0,0.0,390.0,2.0,0.0
4051,59.0,0.0,390.0,7.0,0.0
4052,52.0,0.0,390.0,10.0,0.0
4053,68.0,0.0,90.0,5.0,0.0
4054,52.0,0.0,390.0,4.0,0.0
4055,76.0,24.0,180.0,0.0,0.0
4056,64.0,96.0,90.0,6.0,0.0
4057,80.0,0.0,180.0,0.0,0.0
4058,52.0,0.0,390.0,1.0,0.0
4059,76.0,0.0,390.0,3.0,0.0
4060,80.0,48.0,390.0,3.0,0.0
4061,68.0,0.0,90.0,5.0,0.0
4062,64.0,120.0,90.0,6.0,0.0
4063,63.0,48.0,90.0,5.0,0.0
4064,75.0,24.0,180.0,0.0,0.0
4065,71.0,0.0,180.0,0.0,0.0
4066,59.0,0.0,90.0,6.0,0.0
4067,59.0,0.0,90.0,6.0,0.0
4068,63.0,120.0,90.0,5.0,0.0
4069,73.0,0.0,180.0,0.0,0.0
4070,76.0,24.0,180.0,0.0,0.0
4071,64.0,0.0,90.0,5.0,0.0
4072,61.0,96.0,90.0,6.0,0.0
4073,61.0,0.0,90.0,6.0,0.0
4074,64.0,120.0,90.0,5.0,0.0
4075,66.0,0.0,90.0,5.0,0.0
4076,63.0,96.0,90.0,6.0,0.0
4077,75.0,0.0,180.0,0.0,0.0
4078,78.0,24.0,180.0,0.0,0.0
4079,63.0,120.0,90.0,6.0,0.0
4080,66.0,0.0,90.0,5.0,0.0
4081,52.0,0.0,390.0,1.0,0.0
4082,40.0,0.0,390.0,11.0,0.0
4083,64.0,0.0,390.0,3.0,0.0
4084,76.0,0.0,390.0,3.0,0.0
4085,52.0,72.0,390.0,10.0,0.0
4086,59.0,0.0,390.0,7.0,0.0
4087,52.0,0.0,390.0,4.0,0.0
4088,76.0,0.0,390.0,0.0,0.0
4089,80.0,0.0,390.0,0.0,0.0
4090,40.0,0.0,390.0,12.0,0.0
4091,64.0,0.0,390.0,2.0,0.0
4092,64.0,0.0,90.0,6.0,0.0
4093,68.0,120.0,90.0,5.0,0.0
4094,52.0,0.0,390.0,2.0,0.0
4095,64.0,0.0,90.0,6.0,0.0
4096,68.0,120.0,90.0,5.0,0.0
4097,59.0,0.0,90.0,6.0,0.0
4098,64.0,48.0,90.0,5.0,0.0
4099,59.0,120.0,90.0,6.0,0.0
4100,64.0,0.0,90.0,5.0,0.0
4101,52.0,0.0,390.0,11.0,0.0
4102,64.0,0.0,390.0,10.0,0.0
4103,52.0,0.0,390.0,12.0,0.0
4104,64.0,0.0,390.0,3.0,0.0
4105,64.0,0.0,390.0,1.0,0.0
4106,66.0,0.0,90.0,6.0,0.0
4107,64.0,0.0,390.0,2.0,0.0
4108,76.0,0.0,390.0,3.0,0.0
4109,59.0,0.0,390.0,7.0,0.0
4110,52.0,0.0,390.0,4.0,0.0
4111,52.0,72.0,390.0,2.0,0.0
4112,69.0,120.0,90.0,5.0,0.0
4113,81.0,0.0,390.0,0.0,0.0
4114,78.0,0.0,390.0,0.0,0.0
4115,69.0,120.0,90.0,5.0,0.0
4116,66.0,0.0,90.0,6.0,0.0
4117,66.0,0.0,90.0,5.0,0.0
4118,59.0,48.0,90.0,6.0,0.0
4119,59.0,0.0,90.0,6.0,0.0
4120,66.0,120.0,90.0,5.0,0.0
4121,71.0,0.0,90.0,5.0,0.0
4122,40.0,0.0,390.0,11.0,0.0
4123,52.0,0.0,1740.0,2.0,0.0
4124,64.0,144.0,1740.0,2.0,0.0
4125,40.0,0.0,390.0,12.0,0.0
4126,52.0,0.0,390.0,10.0,0.0
4127,52.0,0.0,390.0,4.0,0.0
4128,59.0,72.0,390.0,7.0,0.0
4129,83.0,0.0,1740.0,0.0,0.0
4130,64.0,0.0,390.0,3.0,0.0
4131,52.0,0.0,390.0,1.0,0.0
4132,68.0,120.0,90.0,6.0,0.0
4133,76.0,0.0,390.0,3.0,0.0
4134,80.0,0.0,1740.0,0.0,0.0
4135,64.0,0.0,90.0,6.0,0.0
4136,64.0,120.0,90.0,5.0,0.0
4137,66.0,48.0,90.0,5.0,0.0
4138,66.0,0.0,90.0,6.0,0.0
4139,68.0,120.0,90.0,6.0,0.0
4140,68.0,0.0,90.0,5.0,0.0
4141,69.0,120.0,90.0,5.0,0.0
4142,69.0,0.0,90.0,6.0,0.0
4143,71.0,0.0,90.0,5.0,0.0
4144,71.0,120.0,90.0,6.0,0.0
4145,73.0,120.0,90.0,5.0,0.0
4146,73.0,0.0,90.0,6.0,0.0
4147,75.0,0.0,90.0,6.0,0.0
4148,75.0,120.0,90.0,5.0,0.0
4149,76.0,0.0,90.0,5.0,0.0
4150,76.0,120.0,90.0,6.0,0.0
4151,78.0,0.0,90.0,6.0,0.0
4152,78.0,120.0,90.0,5.0,0.0
4153,80.0,120.0,90.0,5.0,0.0
4154,80.0,0.0,90.0,6.0,0.0
4155,81.0,216.0,90.0,6.0,0.0
4156,81.0,0.0,90.0,5.0,0.0
4157,83.0,0.0,180.0,6.0,0.0
4158,83.0,96.0,180.0,5.0,0.0
4159,76.0,0.0,180.0,6.0,0.0
4160,76.0,312.0,180.0,5.0,0.0
4161,69.0,0.0,270.0,6.0,0.0
4162,76.0,0.0,270.0,6.0,0.0
4163,85.0,0.0,270.0,6.0,0.0
4164,76.0,0.0,270.0,3.0,0.0
4165,64.0,0.0,270.0,3.0,0.0
4166,57.0,0.0,270.0,10.0,0.0
4167,45.0,0.0,270.0,12.0,0.0
4168,64.0,0.0,270.0,2.0,0.0
4169,69.0,0.0,270.0,5.0,0.0
4170,76.0,480.0,270.0,5.0,0.0
4171,52.0,0.0,270.0,2.0,0.0
4172,52.0,0.0,270.0,4.0,0.0
4173,81.0,0.0,270.0,0.0,0.0
4174,85.0,0.0,270.0,0.0,0.0
4175,69.0,0.0,270.0,7.0,0.0
4176,45.0,0.0,270.0,11.0,0.0
4177,85.0,0.0,270.0,5.0,0.0
4178,57.0,0.0,270.0,1.0,0.0
4179,68.0,0.0,270.0,6.0,0.0
4180,83.0,0.0,270.0,5.0,0.0
4181,52.0,0.0,270.0,10.0,0.0
4182,64.0,0.0,270.0,3.0,0.0
4183,68.0,0.0,270.0,5.0,0.0
4184,40.0,0.0,270.0,12.0,0.0
4185,40.0,0.0,270.0,11.0,0.0
4186,76.0,0.0,270.0,5.0,0.0
4187,52.0,0.0,270.0,1.0,0.0
4188,64.0,816.0,270.0,7.0,0.0
4189,80.0,0.0,270.0,0.0,0.0
4190,76.0,0.0,270.0,3.0,0.0
4191,83.0,0.0,270.0,0.0,0.0
4192,64.0,0.0,270.0,2.0,0.0
4193,83.0,0.0,270.0,6.0,0.0
4194,76.0,0.0,270.0,6.0,0.0
4195,52.0,0.0,270.0,4.0,0.0
4196,52.0,0.0,270.0,2.0,0.0
4197,85.0,120.0,120.0,5.0,0.0
4198,83.0,120.0,120.0,5.0,0.0
4199,81.0,96.0,120.0,5.0,0.0
4200,80.0,216.0,90.0,5.0,0.0
4201,76.0,48.0,180.0,6.0,0.0
4202,80.0,192.0,240.0,5.0,0.0
4203,69.0,0.0,180.0,7.0,0.0
4204,69.0,0.0,180.0,7.0,0.0
4205,76.0,0.0,180.0,6.0,0.0
4206,78.0,240.0,180.0,5.0,0.0
4207,76.0,0.0,180.0,6.0,0.0
4208,69.0,240.0,180.0,7.0,0.0
4209,78.0,192.0,720.0,5.0,0.0
4210,76.0,240.0,180.0,6.0,0.0
4211,69.0,0.0,180.0,7.0,0.0
4212,71.0,0.0,180.0,7.0,0.0
4213,75.0,48.0,180.0,6.0,0.0
4214,75.0,0.0,180.0,6.0,0.0
4215,79.0,192.0,240.0,5.0,0.0
4216,71.0,48.0,180.0,7.0,0.0
4217,80.0,192.0,240.0,5.0,0.0
4218,75.0,48.0,180.0,6.0,0.0
4219,71.0,0.0,240.0,7.0,0.0
4220,68.0,48.0,180.0,6.0,0.0
4221,75.0,0.0,180.0,5.0,0.0
4222,72.0,192.0,240.0,7.0,0.0
4223,78.0,192.0,240.0,5.0,0.0
4224,73.0,0.0,180.0,7.0,0.0
4225,68.0,48.0,180.0,6.0,0.0
4226,77.0,192.0,240.0,5.0,0.0
4227,61.0,0.0,180.0,7.0,0.0
4228,68.0,48.0,180.0,6.0,0.0
4229,61.0,240.0,180.0,7.0,0.0
4230,76.0,0.0,720.0,5.0,0.0
4231,68.0,0.0,180.0,6.0,0.0
4232,61.0,240.0,180.0,7.0,0.0
4233,68.0,0.0,180.0,6.0,0.0
4234,58.0,48.0,180.0,7.0,0.0
4235,73.0,120.0,240.0,6.0,0.0
4236,70.0,48.0,180.0,7.0,0.0
4237,78.0,0.0,120.0,5.0,0.0
4238,75.0,72.0,120.0,6.0,0.0
4239,80.0,0.0,120.0,5.0,0.0
4240,76.0,144.0,120.0,6.0,0.0
4241,70.0,192.0,180.0,7.0,0.0
4242,78.0,0.0,150.0,5.0,0.0
4243,75.0,48.0,150.0,6.0,0.0
4244,70.0,288.0,180.0,7.0,0.0
4245,73.0,0.0,150.0,6.0,0.0
4246,76.0,48.0,150.0,5.0,0.0
4247,75.0,192.0,240.0,5.0,0.0
4248,71.0,0.0,240.0,6.0,0.0
4249,71.0,96.0,780.0,7.0,0.0
4250,75.0,288.0,180.0,6.0,0.0
4251,78.0,0.0,180.0,5.0,0.0
4252,75.0,48.0,390.0,6.0,0.0
4253,78.0,48.0,240.0,5.0,0.0
4254,83.0,168.0,180.0,5.0,0.0
4255,75.0,144.0,480.0,6.0,0.0
4256,83.0,120.0,120.0,5.0,0.0
4257,68.0,96.0,780.0,7.0,0.0
4258,82.0,120.0,120.0,5.0,0.0
4259,83.0,120.0,120.0,5.0,0.0
4260,82.0,0.0,120.0,5.0,0.0
4261,83.0,144.0,150.0,5.0,0.0
4262,71.0,192.0,390.0,6.0,0.0
4263,77.0,0.0,150.0,5.0,0.0
4264,70.0,120.0,90.0,6.0,0.0
4265,78.0,72.0,390.0,5.0,0.0
4266,66.0,0.0,90.0,7.0,0.0
4267,66.0,0.0,90.0,7.0,0.0
4268,66.0,120.0,90.0,6.0,0.0
4269,66.0,48.0,90.0,7.0,0.0
4270,66.0,0.0,90.0,6.0,0.0
4271,66.0,0.0,90.0,7.0,0.0
4272,66.0,120.0,90.0,6.0,0.0
4273,66.0,0.0,90.0,6.0,0.0
4274,66.0,120.0,90.0,7.0,0.0
4275,66.0,0.0,90.0,6.0,0.0
4276,66.0,120.0,90.0,7.0,0.0
4277,66.0,0.0,90.0,6.0,0.0
4278,66.0,120.0,90.0,7.0,0.0
4279,66.0,0.0,90.0,6.0,0.0
4280,66.0,120.0,90.0,7.0,0.0
4281,66.0,0.0,330.0,5.0,0.0
4282,73.0,0.0,330.0,5.0,0.0
4283,78.0,0.0,330.0,3.0,0.0
4284,42.0,24.0,180.0,11.0,0.0
4285,42.0,0.0,180.0,12.0,0.0
4286,54.0,0.0,180.0,10.0,0.0
4287,66.0,0.0,90.0,7.0,0.0
4288,82.0,0.0,330.0,5.0,0.0
4289,66.0,72.0,90.0,6.0,0.0
4290,76.0,0.0,180.0,0.0,0.0
4291,61.0,0.0,180.0,1.0,0.0
4292,66.0,24.0,180.0,2.0,0.0
4293,58.0,0.0,180.0,1.0,0.0
4294,82.0,0.0,180.0,0.0,0.0
4295,66.0,120.0,90.0,7.0,0.0
4296,66.0,0.0,90.0,6.0,0.0
4297,54.0,24.0,180.0,12.0,0.0
4298,76.0,0.0,180.0,0.0,0.0
4299,54.0,0.0,180.0,11.0,0.0
4300,66.0,0.0,180.0,10.0,0.0
4301,66.0,0.0,90.0,7.0,0.0
4302,58.0,24.0,180.0,1.0,0.0
4303,61.0,0.0,180.0,1.0,0.0
4304,82.0,0.0,180.0,0.0,0.0
4305,66.0,72.0,90.0,6.0,0.0
4306,66.0,0.0,180.0,2.0,0.0
4307,66.0,0.0,90.0,6.0,0.0
4308,66.0,120.0,90.0,7.0,0.0
4309,66.0,24.0,180.0,2.0,0.0
4310,58.0,0.0,180.0,1.0,0.0
4311,82.0,0.0,330.0,5.0,0.0
4312,54.0,24.0,180.0,10.0,0.0
4313,73.0,0.0,330.0,5.0,0.0
4314,66.0,0.0,330.0,5.0,0.0
4315,78.0,0.0,330.0,3.0,0.0
4316,82.0,0.0,180.0,0.0,0.0
4317,42.0,0.0,180.0,12.0,0.0
4318,66.0,0.0,90.0,6.0,0.0
4319,66.0,72.0,90.0,7.0,0.0
4320,76.0,0.0,180.0,0.0,0.0
4321,61.0,0.0,180.0,1.0,0.0
4322,42.0,0.0,180.0,11.0,0.0
4323,66.0,120.0,90.0,7.0,0.0
4324,66.0,0.0,90.0,6.0,0.0
4325,66.0,0.0,90.0,6.0,0.0
4326,66.0,72.0,90.0,7.0,0.0
4327,66.0,0.0,180.0,2.0,0.0
4328,61.0,24.0,180.0,1.0,0.0
4329,58.0,0.0,180.0,1.0,0.0
4330,54.0,24.0,180.0,12.0,0.0
4331,66.0,0.0,180.0,10.0,0.0
4332,54.0,0.0,180.0,11.0,0.0
4333,76.0,0.0,180.0,0.0,0.0
4334,82.0,0.0,180.0,0.0,0.0
4335,66.0,0.0,90.0,6.0,0.0
4336,66.0,120.0,90.0,7.0,0.0
4337,54.0,0.0,390.0,10.0,0.0
4338,63.0,0.0,390.0,1.0,0.0
4339,59.0,0.0,390.0,1.0,0.0
4340,42.0,0.0,390.0,12.0,0.0
4341,66.0,0.0,390.0,2.0,0.0
4342,42.0,0.0,390.0,11.0,0.0
4343,66.0,120.0,90.0,7.0,0.0
4344,66.0,0.0,90.0,6.0,0.0
4345,75.0,0.0,390.0,5.0,0.0
4346,78.0,72.0,390.0,3.0,0.0
4347,75.0,0.0,390.0,0.0,0.0
4348,83.0,0.0,390.0,5.0,0.0
4349,83.0,0.0,390.0,0.0,0.0
4350,66.0,0.0,390.0,5.0,0.0
4351,66.0,120.0,90.0,7.0,0.0
4352,66.0,0.0,90.0,6.0,0.0
4353,66.0,0.0,90.0,7.0,0.0
4354,66.0,48.0,90.0,6.0,0.0
4355,66.0,120.0,90.0,7.0,0.0
4356,66.0,0.0,90.0,6.0,0.0
4357,66.0,120.0,90.0,7.0,0.0
4358,66.0,0.0,90.0,6.0,0.0
4359,66.0,0.0,90.0,7.0,0.0
4360,66.0,120.0,90.0,6.0,0.0
4361,66.0,0.0,90.0,7.0,0.0
4362,66.0,120.0,90.0,6.0,0.0
4363,66.0,120.0,90.0,7.0,0.0
4364,66.0,0.0,90.0,6.0,0.0
4365,75.0,24.0,180.0,0.0,0.0
4366,63.0,0.0,180.0,1.0,0.0
4367,66.0,0.0,180.0,2.0,0.0
4368,66.0,0.0,330.0,5.0,0.0
4369,83.0,0.0,330.0,5.0,0.0
4370,42.0,0.0,180.0,11.0,0.0
4371,66.0,0.0,90.0,6.0,0.0
4372,59.0,0.0,180.0,1.0,0.0
4373,75.0,0.0,330.0,5.0,0.0
4374,42.0,0.0,180.0,12.0,0.0
4375,83.0,0.0,180.0,0.0,0.0
4376,66.0,72.0,90.0,7.0,0.0
4377,54.0,24.0,180.0,10.0,0.0
4378,78.0,0.0,330.0,3.0,0.0
4379,66.0,0.0,90.0,6.0,0.0
4380,66.0,120.0,90.0,7.0,0.0
4381,54.0,24.0,180.0,11.0,0.0
4382,54.0,0.0,180.0,12.0,0.0
4383,66.0,72.0,90.0,7.0,0.0
4384,66.0,0.0,90.0,6.0,0.0
4385,83.0,0.0,180.0,0.0,0.0
4386,75.0,24.0,180.0,0.0,0.0
4387,66.0,0.0,180.0,2.0,0.0
4388,66.0,0.0,180.0,10.0,0.0
4389,59.0,0.0,180.0,1.0,0.0
4390,63.0,0.0,180.0,1.0,0.0
4391,66.0,120.0,90.0,7.0,0.0
4392,66.0,0.0,90.0,6.0,0.0
4393,78.0,72.0,330.0,3.0,0.0
4394,75.0,0.0,180.0,0.0,0.0
4395,59.0,0.0,180.0,1.0,0.0
4396,66.0,72.0,90.0,7.0,0.0
4397,42.0,24.0,180.0,12.0,0.0
4398,83.0,0.0,180.0,0.0,0.0
4399,63.0,24.0,180.0,1.0,0.0
4400,83.0,0.0,330.0,5.0,0.0
4401,42.0,0.0,180.0,11.0,0.0
4402,66.0,0.0,90.0,6.0,0.0
4403,66.0,0.0,330.0,5.0,0.0
4404,54.0,0.0,180.0,10.0,0.0
4405,66.0,0.0,180.0,2.0,0.0
4406,75.0,0.0,330.0,5.0,0.0
4407,66.0,120.0,90.0,7.0,0.0
4408,66.0,0.0,90.0,6.0,0.0
4409,66.0,0.0,90.0,6.0,0.0
4410,66.0,0.0,90.0,7.0,0.0
4411,54.0,0.0,180.0,11.0,0.0
4412,75.0,0.0,180.0,0.0,0.0
4413,83.0,24.0,180.0,0.0,0.0
4414,54.0,24.0,180.0,12.0,0.0
4415,66.0,0.0,180.0,10.0,0.0
4416,66.0,0.0,180.0,2.0,0.0
4417,63.0,0.0,180.0,1.0,0.0
4418,59.0,0.0,180.0,1.0,0.0
4419,66.0,120.0,90.0,6.0,0.0
4420,66.0,0.0,90.0,7.0,0.0
4421,85.0,0.0,390.0,5.0,0.0
4422,54.0,0.0,390.0,10.0,0.0
4423,42.0,0.0,390.0,11.0,0.0
4424,66.0,0.0,90.0,6.0,0.0
4425,42.0,0.0,390.0,12.0,0.0
4426,66.0,0.0,390.0,2.0,0.0
4427,78.0,0.0,390.0,3.0,0.0
4428,66.0,120.0,90.0,7.0,0.0
4429,64.0,0.0,390.0,1.0,0.0
4430,61.0,0.0,390.0,1.0,0.0
4431,85.0,0.0,390.0,0.0,0.0
4432,82.0,0.0,390.0,0.0,0.0
4433,82.0,72.0,390.0,5.0,0.0
4434,66.0,0.0,390.0,5.0,0.0
4435,66.0,120.0,90.0,7.0,0.0
4436,66.0,0.0,90.0,6.0,0.0
4437,66.0,48.0,90.0,7.0,0.0
4438,66.0,0.0,90.0,6.0,0.0
4439,66.0,120.0,90.0,6.0,0.0
4440,66.0,0.0,90.0,7.0,0.0
4441,66.0,0.0,90.0,6.0,0.0
4442,66.0,120.0,90.0,7.0,0.0
4443,66.0,0.0,90.0,7.0,0.0
4444,66.0,120.0,90.0,6.0,0.0
4445,66.0,120.0,90.0,6.0,0.0
4446,66.0,0.0,90.0,7.0,0.0
4447,66.0,120.0,90.0,7.0,0.0
4448,66.0,0.0,90.0,6.0,0.0
4449,64.0,0.0,180.0,1.0,0.0
4450,42.0,0.0,180.0,11.0,0.0
4451,85.0,0.0,330.0,5.0,0.0
4452,66.0,72.0,330.0,5.0,0.0
4453,82.0,0.0,330.0,5.0,0.0
4454,82.0,0.0,180.0,0.0,0.0
4455,66.0,72.0,90.0,7.0,0.0
4456,85.0,0.0,180.0,0.0,0.0
4457,66.0,0.0,90.0,6.0,0.0
4458,78.0,0.0,330.0,3.0,0.0
4459,54.0,0.0,180.0,10.0,0.0
4460,66.0,24.0,180.0,2.0,0.0
4461,42.0,24.0,180.0,12.0,0.0
4462,61.0,0.0,180.0,1.0,0.0
4463,66.0,0.0,90.0,7.0,0.0
4464,66.0,120.0,90.0,6.0,0.0
4465,85.0,24.0,180.0,0.0,0.0
4466,82.0,0.0,180.0,0.0,0.0
4467,66.0,0.0,180.0,2.0,0.0
4468,54.0,0.0,180.0,12.0,0.0
4469,66.0,0.0,90.0,6.0,0.0
4470,54.0,24.0,180.0,11.0,0.0
4471,64.0,0.0,180.0,1.0,0.0
4472,61.0,0.0,180.0,1.0,0.0
4473,66.0,0.0,90.0,7.0,0.0
4474,66.0,0.0,180.0,10.0,0.0
4475,66.0,120.0,90.0,6.0,0.0
4476,66.0,0.0,90.0,7.0,0.0
4477,82.0,0.0,330.0,5.0,0.0
4478,85.0,24.0,180.0,0.0,0.0
4479,82.0,0.0,180.0,0.0,0.0
4480,66.0,72.0,90.0,6.0,0.0
4481,66.0,0.0,180.0,2.0,0.0
4482,78.0,72.0,330.0,3.0,0.0
4483,54.0,0.0,180.0,10.0,0.0
4484,61.0,0.0,180.0,1.0,0.0
4485,66.0,0.0,90.0,7.0,0.0
4486,85.0,0.0,330.0,5.0,0.0
4487,66.0,0.0,330.0,5.0,0.0
4488,42.0,0.0,180.0,11.0,0.0
4489,64.0,0.0,180.0,1.0,0.0
4490,42.0,24.0,180.0,12.0,0.0
4491,66.0,0.0,90.0,6.0,0.0
4492,66.0,120.0,90.0,7.0,0.0
4493,66.0,0.0,90.0,7.0,0.0
4494,66.0,0.0,90.0,6.0,0.0
4495,85.0,0.0,180.0,0.0,0.0
4496,66.0,0.0,180.0,2.0,0.0
4497,54.0,0.0,180.0,11.0,0.0
4498,66.0,24.0,180.0,10.0,0.0
4499,54.0,0.0,180.0,12.0,0.0
4500,61.0,0.0,180.0,1.0,0.0
4501,64.0,24.0,180.0,1.0,0.0
4502,82.0,0.0,180.0,0.0,0.0
4503,66.0,0.0,90.0,6.0,0.0
4504,66.0,120.0,90.0,7.0,0.0
4505,42.0,0.0,390.0,12.0,0.0
4506,66.0,0.0,90.0,7.0,0.0
4507,87.0,0.0,390.0,5.0,0.0
4508,87.0,0.0,390.0,0.0,0.0
4509,54.0,0.0,390.0,10.0,0.0
4510,66.0,120.0,90.0,6.0,0.0
4511,78.0,0.0,390.0,3.0,0.0
4512,42.0,0.0,390.0,11.0,0.0
4513,66.0,72.0,390.0,2.0,0.0
4514,63.0,0.0,390.0,1.0,0.0
4515,59.0,0.0,390.0,1.0,0.0
4516,66.0,0.0,390.0,5.0,0.0
4517,83.0,0.0,390.0,5.0,0.0
4518,83.0,0.0,390.0,0.0,0.0
4519,66.0,0.0,90.0,6.0,0.0
4520,66.0,120.0,90.0,7.0,0.0
4521,66.0,0.0,90.0,6.0,0.0
4522,66.0,48.0,90.0,7.0,0.0
4523,66.0,0.0,90.0,6.0,0.0
4524,66.0,120.0,90.0,7.0,0.0
4525,66.0,120.0,90.0,6.0,0.0
4526,66.0,0.0,90.0,7.0,0.0
4527,66.0,120.0,90.0,6.0,0.0
4528,66.0,0.0,90.0,7.0,0.0
4529,66.0,0.0,90.0,6.0,0.0
4530,66.0,120.0,90.0,7.0,0.0
4531,66.0,0.0,90.0,6.0,0.0
4532,66.0,120.0,90.0,7.0,0.0
4533,42.0,0.0,180.0,12.0,0.0
4534,87.0,0.0,180.0,0.0,0.0
4535,83.0,0.0,180.0,0.0,0.0
4536,87.0,0.0,330.0,5.0,0.0
4537,66.0,0.0,330.0,5.0,0.0
4538,83.0,0.0,330.0,5.0,0.0
4539,63.0,24.0,180.0,1.0,0.0
4540,59.0,0.0,180.0,1.0,0.0
4541,66.0,0.0,180.0,2.0,0.0
4542,42.0,24.0,180.0,11.0,0.0
4543,78.0,0.0,330.0,3.0,0.0
4544,66.0,0.0,90.0,6.0,0.0
4545,66.0,72.0,90.0,7.0,0.0
4546,54.0,0.0,180.0,10.0,0.0
4547,66.0,120.0,90.0,6.0,0.0
4548,66.0,0.0,90.0,7.0,0.0
4549,54.0,0.0,180.0,11.0,0.0
4550,54.0,0.0,180.0,12.0,0.0
4551,66.0,72.0,90.0,6.0,0.0
4552,66.0,0.0,90.0,7.0,0.0
4553,87.0,0.0,180.0,0.0,0.0
4554,63.0,24.0,180.0,1.0,0.0
4555,59.0,0.0,180.0,1.0,0.0
4556,66.0,0.0,180.0,2.0,0.0
4557,83.0,0.0,180.0,0.0,0.0
4558,66.0,24.0,180.0,10.0,0.0
4559,66.0,120.0,90.0,7.0,0.0
4560,66.0,0.0,90.0,6.0,0.0
4561,78.0,72.0,330.0,3.0,0.0
4562,87.0,24.0,180.0,0.0,0.0
4563,83.0,0.0,180.0,0.0,0.0
4564,42.0,0.0,180.0,12.0,0.0
4565,66.0,72.0,90.0,7.0,0.0
4566,59.0,0.0,180.0,1.0,0.0
4567,54.0,0.0,180.0,10.0,0.0
4568,66.0,0.0,90.0,6.0,0.0
4569,66.0,0.0,180.0,2.0,0.0
4570,66.0,0.0,330.0,5.0,0.0
4571,83.0,0.0,330.0,5.0,0.0
4572,87.0,0.0,330.0,5.0,0.0
4573,42.0,24.0,180.0,11.0,0.0
4574,63.0,0.0,180.0,1.0,0.0
4575,66.0,120.0,90.0,7.0,0.0
4576,66.0,0.0,90.0,6.0,0.0
4577,59.0,0.0,180.0,1.0,0.0
4578,66.0,0.0,180.0,10.0,0.0
4579,83.0,0.0,180.0,0.0,0.0
4580,66.0,0.0,90.0,7.0,0.0
4581,66.0,0.0,90.0,6.0,0.0
4582,54.0,0.0,180.0,12.0,0.0
4583,63.0,24.0,180.0,1.0,0.0
4584,54.0,24.0,180.0,11.0,0.0
4585,66.0,0.0,180.0,2.0,0.0
4586,87.0,0.0,180.0,0.0,0.0
4587,66.0,0.0,90.0,7.0,0.0
4588,66.0,408.0,90.0,6.0,0.0
4589,88.0,0.0,390.0,0.0,0.0
4590,61.0,0.0,390.0,7.0,0.0
4591,85.0,336.0,390.0,0.0,0.0
4592,58.0,0.0,390.0,1.0,0.0
4593,70.0,0.0,390.0,7.0,0.0
4594,66.0,0.0,390.0,2.0,0.0
4595,42.0,0.0,390.0,11.0,0.0
4596,76.0,240.0,720.0,6.0,0.0
4597,88.0,0.0,720.0,5.0,0.0
4598,78.0,0.0,390.0,3.0,0.0
4599,54.0,0.0,390.0,10.0,0.0
4600,42.0,0.0,390.0,12.0,0.0
4601,61.0,0.0,390.0,1.0,0.0
4602,73.0,0.0,240.0,6.0,0.0
4603,85.0,240.0,240.0,5.0,0.0
4604,71.0,0.0,240.0,6.0,0.0
4605,83.0,240.0,240.0,5.0,0.0
4606,70.0,240.0,240.0,6.0,0.0
4607,82.0,0.0,240.0,5.0,0.0
4608,80.0,0.0,240.0,5.0,0.0
4609,68.0,228.0,240.0,6.0,0.0
4610,78.0,0.0,240.0,5.0,0.0
4611,66.0,252.0,240.0,6.0,0.0
4612,77.0,240.0,240.0,5.0,0.0
4613,65.0,0.0,240.0,6.0,0.0
4614,66.0,0.0,240.0,6.0,0.0
4615,78.0,240.0,240.0,5.0,0.0
4616,80.0,228.0,240.0,5.0,0.0
4617,68.0,0.0,240.0,6.0,0.0
4618,78.0,252.0,240.0,5.0,0.0
4619,66.0,0.0,240.0,6.0,0.0
4620,66.0,0.0,240.0,6.0,0.0
4621,78.0,240.0,240.0,5.0,0.0
4622,65.0,0.0,240.0,6.0,0.0
4623,77.0,240.0,240.0,5.0,0.0
4624,76.0,192.0,240.0,5.0,0.0
4625,64.0,0.0,240.0,6.0,0.0
4626,61.0,0.0,180.0,6.0,0.0
4627,73.0,816.0,180.0,5.0,0.0
4628,47.0,0.0,3780.0,11.0,0.0
4629,47.0,288.0,3780.0,12.0,0.0
4630,63.0,0.0,780.0,6.0,0.0
4631,59.0,0.0,3780.0,10.0,0.0
4632,71.0,252.0,780.0,5.0,0.0
4633,59.0,0.0,3780.0,7.0,0.0
4634,66.0,180.0,60.0,6.0,0.0
4635,75.0,0.0,60.0,5.0,0.0
4636,64.0,0.0,180.0,6.0,0.0
4637,73.0,240.0,180.0,5.0,0.0
4638,63.0,0.0,240.0,6.0,0.0
4639,71.0,240.0,240.0,5.0,0.0
4640,73.0,0.0,240.0,5.0,0.0
4641,64.0,192.0,240.0,6.0,0.0
4642,75.0,0.0,180.0,5.0,0.0
4643,66.0,336.0,180.0,6.0,0.0
4644,71.0,1152.0,300.0,5.0,0.0
4645,63.0,0.0,300.0,6.0,0.0
4646,68.0,0.0,960.0,6.0,0.0
4647,76.0,384.0,960.0,5.0,0.0
4648,66.0,0.0,390.0,6.0,0.0
4649,75.0,48.0,390.0,5.0,0.0
4650,75.0,48.0,240.0,5.0,0.0
4651,68.0,144.0,300.0,6.0,0.0
4652,68.0,0.0,300.0,7.0,0.0
4653,64.0,0.0,300.0,10.0,0.0
4654,52.0,0.0,300.0,11.0,0.0
4655,52.0,0.0,300.0,12.0,0.0
4656,73.0,288.0,180.0,5.0,0.0
4657,51.0,240.0,480.0,12.0,0.0
4658,51.0,0.0,480.0,11.0,0.0
4659,69.0,0.0,480.0,6.0,0.0
4660,73.0,192.0,240.0,5.0,0.0
4661,63.0,0.0,480.0,10.0,0.0
4662,66.0,0.0,480.0,7.0,0.0
4663,72.0,48.0,180.0,5.0,0.0
4664,52.0,0.0,300.0,11.0,0.0
4665,68.0,0.0,300.0,6.0,0.0
4666,64.0,0.0,300.0,10.0,0.0
4667,52.0,144.0,300.0,12.0,0.0
4668,75.0,48.0,240.0,5.0,0.0
4669,68.0,0.0,300.0,7.0,0.0
4670,73.0,288.0,180.0,5.0,0.0
4671,69.0,240.0,480.0,6.0,0.0
4672,51.0,0.0,480.0,11.0,0.0
4673,51.0,0.0,480.0,12.0,0.0
4674,66.0,0.0,480.0,7.0,0.0
4675,63.0,0.0,480.0,10.0,0.0
4676,73.0,192.0,240.0,5.0,0.0
4677,72.0,48.0,180.0,5.0,0.0
4678,68.0,0.0,300.0,7.0,0.0
4679,52.0,144.0,300.0,11.0,0.0
4680,64.0,0.0,300.0,10.0,0.0
4681,52.0,0.0,300.0,12.0,0.0
4682,75.0,48.0,240.0,5.0,0.0
4683,68.0,0.0,960.0,6.0,0.0
4684,73.0,288.0,180.0,5.0,0.0
4685,52.0,0.0,480.0,12.0,0.0
4686,64.0,240.0,480.0,10.0,0.0
4687,61.0,0.0,870.0,7.0,0.0
4688,52.0,0.0,480.0,11.0,0.0
4689,73.0,192.0,240.0,5.0,0.0
4690,71.0,48.0,180.0,5.0,0.0
4691,71.0,144.0,240.0,5.0,0.0
4692,66.0,0.0,390.0,6.0,0.0
4693,54.0,48.0,390.0,11.0,0.0
4694,54.0,0.0,390.0,12.0,0.0
4695,66.0,0.0,390.0,10.0,0.0
4696,70.0,288.0,180.0,5.0,0.0
4697,68.0,192.0,240.0,5.0,0.0
4698,66.0,816.0,180.0,5.0,0.0
4699,59.0,288.0,3780.0,10.0,0.0
4700,47.0,0.0,3780.0,12.0,0.0
4701,47.0,0.0,3780.0,11.0,0.0
4702,47.0,96.0,3270.0,2.0,0.0
4703,63.0,0.0,780.0,1.0,0.0
4704,83.0,252.0,780.0,0.0,0.0
4705,71.0,0.0,780.0,5.0,0.0
4706,59.0,0.0,3780.0,7.0,0.0
4707,63.0,0.0,780.0,6.0,0.0
4708,59.0,0.0,3270.0,2.0,0.0
4709,75.0,0.0,60.0,5.0,0.0
4710,66.0,0.0,60.0,6.0,0.0
4711,66.0,0.0,60.0,1.0,0.0
4712,87.0,180.0,60.0,0.0,0.0
4713,73.0,240.0,180.0,5.0,0.0
4714,64.0,0.0,180.0,6.0,0.0
4715,64.0,0.0,180.0,1.0,0.0
4716,85.0,0.0,180.0,0.0,0.0
4717,83.0,0.0,240.0,0.0,0.0
4718,63.0,0.0,240.0,1.0,0.0
4719,71.0,0.0,240.0,5.0,0.0
4720,63.0,240.0,240.0,6.0,0.0
4721,64.0,192.0,240.0,6.0,0.0
4722,64.0,0.0,240.0,1.0,0.0
4723,85.0,0.0,240.0,0.0,0.0
4724,73.0,0.0,240.0,5.0,0.0
4725,66.0,0.0,180.0,1.0,0.0
4726,75.0,0.0,180.0,5.0,0.0
4727,87.0,0.0,180.0,0.0,0.0
4728,66.0,336.0,180.0,6.0,0.0
4729,63.0,0.0,300.0,6.0,0.0
4730,71.0,1056.0,300.0,5.0,0.0
4731,83.0,0.0,300.0,0.0,0.0
4732,63.0,0.0,300.0,1.0,0.0
4733,76.0,0.0,960.0,5.0,0.0
4734,68.0,0.0,960.0,1.0,0.0
4735,88.0,0.0,960.0,0.0,0.0
4736,68.0,384.0,960.0,6.0,0.0
4737,66.0,48.0,390.0,1.0,0.0
4738,75.0,0.0,390.0,5.0,0.0
4739,87.0,0.0,390.0,0.0,0.0
4740,66.0,0.0,390.0,6.0,0.0
4741,42.0,0.0,480.0,12.0,0.0
4742,64.0,0.0,480.0,7.0,0.0
4743,42.0,0.0,480.0,11.0,0.0
4744,70.0,0.0,480.0,6.0,0.0
4745,75.0,0.0,240.0,5.0,0.0
4746,87.0,192.0,240.0,0.0,0.0
4747,54.0,240.0,480.0,10.0,0.0
4748,64.0,0.0,480.0,1.0,0.0
4749,73.0,48.0,180.0,5.0,0.0
4750,85.0,0.0,180.0,0.0,0.0
4751,63.0,264.0,450.0,1.0,0.0
4752,63.0,0.0,450.0,7.0,0.0
4753,44.0,0.0,450.0,12.0,0.0
4754,73.0,192.0,240.0,5.0,0.0
4755,56.0,0.0,450.0,10.0,0.0
4756,44.0,0.0,450.0,11.0,0.0
4757,71.0,0.0,450.0,6.0,0.0
4758,85.0,0.0,240.0,0.0,0.0
4759,83.0,0.0,180.0,0.0,0.0
4760,71.0,24.0,180.0,5.0,0.0
4761,40.0,0.0,480.0,11.0,0.0
4762,75.0,192.0,240.0,5.0,0.0
4763,64.0,240.0,480.0,1.0,0.0
4764,40.0,0.0,480.0,12.0,0.0
4765,52.0,0.0,480.0,10.0,0.0
4766,87.0,0.0,240.0,0.0,0.0
4767,64.0,0.0,480.0,7.0,0.0
4768,68.0,0.0,480.0,6.0,0.0
4769,85.0,48.0,180.0,0.0,0.0
4770,73.0,0.0,180.0,5.0,0.0
4771,61.0,0.0,450.0,7.0,0.0
4772,42.0,168.0,450.0,12.0,0.0
4773,54.0,0.0,450.0,10.0,0.0
4774,73.0,192.0,240.0,5.0,0.0
4775,64.0,0.0,450.0,6.0,0.0
4776,61.0,0.0,450.0,1.0,0.0
4777,42.0,0.0,450.0,11.0,0.0
4778,85.0,0.0,240.0,0.0,0.0
4779,82.0,24.0,180.0,0.0,0.0
4780,70.0,0.0,180.0,5.0,0.0
4781,35.0,0.0,390.0,12.0,0.0
4782,63.0,0.0,390.0,1.0,0.0
4783,47.0,0.0,390.0,10.0,0.0
4784,59.0,96.0,390.0,7.0,0.0
4785,71.0,240.0,150.0,5.0,0.0
4786,83.0,0.0,390.0,0.0,0.0
4787,35.0,0.0,390.0,11.0,0.0
4788,63.0,0.0,390.0,6.0,0.0
4789,71.0,240.0,240.0,5.0,0.0
4790,70.0,192.0,240.0,5.0,0.0
4791,71.0,432.0,180.0,5.0,0.0
4792,59.0,384.0,1920.0,1.0,0.0
4793,63.0,0.0,390.0,10.0,0.0
4794,51.0,0.0,390.0,12.0,0.0
4795,71.0,0.0,1920.0,7.0,0.0
4796,51.0,96.0,390.0,11.0,0.0
4797,71.0,240.0,240.0,5.0,0.0
4798,73.0,192.0,240.0,5.0,0.0
4799,75.0,432.0,180.0,5.0,0.0
4800,49.0,0.0,390.0,11.0,0.0
4801,49.0,96.0,390.0,12.0,0.0
4802,61.0,0.0,390.0,10.0,0.0
4803,76.0,240.0,240.0,5.0,0.0
4804,75.0,192.0,240.0,5.0,0.0
4805,76.0,48.0,180.0,5.0,0.0
4806,42.0,96.0,390.0,12.0,0.0
4807,58.0,0.0,960.0,1.0,0.0
4808,54.0,0.0,390.0,10.0,0.0
4809,42.0,0.0,390.0,11.0,0.0
4810,70.0,384.0,960.0,7.0,0.0
4811,80.0,240.0,240.0,5.0,0.0
4812,78.0,192.0,240.0,5.0,0.0
4813,76.0,48.0,180.0,5.0,0.0
4814,47.0,96.0,390.0,11.0,0.0
4815,47.0,0.0,390.0,12.0,0.0
4816,59.0,0.0,780.0,1.0,0.0
4817,59.0,0.0,390.0,10.0,0.0
4818,71.0,144.0,780.0,7.0,0.0
4819,75.0,240.0,240.0,5.0,0.0
4820,73.0,48.0,240.0,5.0,0.0
4821,71.0,432.0,180.0,5.0,0.0
4822,78.0,0.0,1920.0,5.0,0.0
4823,73.0,384.0,960.0,7.0,0.0
4824,66.0,0.0,1920.0,1.0,0.0
4825,58.0,96.0,390.0,10.0,0.0
4826,46.0,0.0,390.0,11.0,0.0
4827,46.0,0.0,390.0,12.0,0.0
4828,78.0,240.0,240.0,6.0,0.0
4829,80.0,192.0,240.0,6.0,0.0
4830,82.0,48.0,180.0,6.0,0.0
4831,75.0,384.0,960.0,7.0,0.0
4832,56.0,0.0,390.0,10.0,0.0
4833,44.0,0.0,390.0,11.0,0.0
4834,44.0,96.0,390.0,12.0,0.0
4835,83.0,240.0,240.0,6.0,0.0
4836,82.0,192.0,240.0,6.0,0.0
4837,83.0,48.0,180.0,6.0,0.0
4838,77.0,384.0,960.0,5.0,0.0
4839,49.0,96.0,390.0,10.0,0.0
4840,73.0,144.0,1740.0,7.0,0.0
4841,37.0,0.0,390.0,12.0,0.0
4842,37.0,0.0,390.0,11.0,0.0
4843,65.0,0.0,960.0,1.0,0.0
4844,87.0,240.0,240.0,6.0,0.0
4845,85.0,192.0,240.0,6.0,0.0
4846,83.0,48.0,180.0,6.0,0.0
4847,76.0,0.0,780.0,5.0,0.0
4848,66.0,0.0,780.0,1.0,0.0
4849,42.0,0.0,390.0,11.0,0.0
4850,54.0,0.0,390.0,10.0,0.0
4851,42.0,96.0,390.0,12.0,0.0
4852,82.0,240.0,240.0,6.0,0.0
4853,80.0,48.0,240.0,6.0,0.0
4854,78.0,432.0,180.0,6.0,0.0
4855,83.0,0.0,1920.0,6.0,0.0
4856,44.0,96.0,390.0,12.0,0.0
4857,75.0,144.0,780.0,5.0,0.0
4858,71.0,384.0,1920.0,0.0,0.0
4859,44.0,0.0,390.0,11.0,0.0
4860,56.0,0.0,390.0,10.0,0.0
4861,59.0,240.0,240.0,7.0,0.0
4862,61.0,48.0,240.0,7.0,0.0
4863,63.0,432.0,180.0,7.0,0.0
4864,37.0,0.0,390.0,11.0,0.0
4865,37.0,0.0,390.0,12.0,0.0
4866,49.0,96.0,390.0,10.0,0.0
4867,73.0,0.0,1920.0,5.0,0.0
4868,64.0,240.0,240.0,7.0,0.0
4869,63.0,192.0,240.0,7.0,0.0
4870,64.0,48.0,180.0,7.0,0.0
4871,54.0,0.0,390.0,10.0,0.0
4872,70.0,0.0,960.0,0.0,0.0
4873,42.0,96.0,390.0,11.0,0.0
4874,42.0,0.0,390.0,12.0,0.0
4875,82.0,384.0,960.0,6.0,0.0
4876,68.0,240.0,240.0,7.0,0.0
4877,66.0,192.0,240.0,7.0,0.0
4878,64.0,48.0,180.0,7.0,0.0
4879,71.0,144.0,780.0,0.0,0.0
4880,35.0,0.0,390.0,12.0,0.0
4881,71.0,0.0,780.0,5.0,0.0
4882,47.0,0.0,390.0,10.0,0.0
4883,35.0,96.0,390.0,11.0,0.0
4884,83.0,0.0,780.0,6.0,0.0
4885,63.0,240.0,240.0,7.0,0.0
4886,61.0,48.0,240.0,7.0,0.0
4887,59.0,528.0,180.0,7.0,0.0
4888,82.0,480.0,960.0,6.0,0.0
4889,66.0,480.0,1920.0,7.0,0.0
4890,73.0,0.0,960.0,5.0,0.0
4891,78.0,0.0,1920.0,0.0,0.0
4892,42.0,0.0,240.0,12.0,0.0
4893,42.0,0.0,240.0,11.0,0.0
4894,54.0,240.0,240.0,10.0,0.0
4895,56.0,0.0,240.0,10.0,0.0
4896,44.0,0.0,240.0,11.0,0.0
4897,44.0,192.0,240.0,12.0,0.0
4898,58.0,0.0,240.0,10.0,0.0
4899,46.0,48.0,180.0,11.0,0.0
4900,46.0,0.0,180.0,12.0,0.0
4901,75.0,0.0,960.0,5.0,0.0
4902,80.0,0.0,1920.0,6.0,0.0
4903,47.0,0.0,240.0,11.0,0.0
4904,59.0,240.0,240.0,10.0,0.0
4905,47.0,0.0,240.0,12.0,0.0
4906,46.0,0.0,240.0,11.0,0.0
4907,58.0,0.0,240.0,10.0,0.0
4908,46.0,192.0,240.0,12.0,0.0
4909,47.0,48.0,180.0,11.0,0.0
4910,59.0,0.0,240.0,10.0,0.0
4911,47.0,0.0,180.0,12.0,0.0
4912,68.0,0.0,960.0,5.0,0.0
4913,77.0,0.0,960.0,0.0,0.0
4914,65.0,0.0,960.0,7.0,0.0
4915,63.0,0.0,240.0,10.0,0.0
4916,51.0,240.0,240.0,11.0,0.0
4917,51.0,0.0,240.0,12.0,0.0
4918,61.0,192.0,240.0,10.0,0.0
4919,49.0,0.0,240.0,12.0,0.0
4920,49.0,0.0,240.0,11.0,0.0
4921,59.0,480.0,240.0,10.0,0.0
4922,47.0,48.0,180.0,11.0,0.0
4923,47.0,0.0,180.0,12.0,0.0
4924,73.0,144.0,780.0,5.0,0.0
4925,78.0,0.0,780.0,0.0,0.0
4926,66.0,0.0,780.0,7.0,0.0
4927,78.0,0.0,780.0,6.0,0.0
4928,58.0,240.0,240.0,10.0,0.0
4929,46.0,0.0,240.0,12.0,0.0
4930,46.0,0.0,240.0,11.0,0.0
4931,44.0,0.0,240.0,12.0,0.0
4932,44.0,0.0,240.0,11.0,0.0
4933,56.0,48.0,240.0,10.0,0.0
4934,42.0,48.0,180.0,12.0,0.0
4935,42.0,0.0,180.0,11.0,0.0
4936,54.0,480.0,240.0,10.0,0.0
4937,71.0,528.0,1860.0,7.0,0.0
4938,51.0,0.0,960.0,11.0,0.0
4939,83.0,0.0,1860.0,0.0,0.0
4940,71.0,0.0,1860.0,0.0,0.0
4941,51.0,0.0,960.0,12.0,0.0
4942,59.0,0.0,780.0,2.0,0.0
4943,63.0,0.0,960.0,1.0,0.0
4944,66.0,144.0,780.0,2.0,0.0
4945,63.0,480.0,960.0,10.0,0.0
4946,71.0,240.0,240.0,6.0,0.0
4947,83.0,0.0,240.0,5.0,0.0
4948,85.0,0.0,240.0,5.0,0.0
4949,73.0,48.0,240.0,6.0,0.0
4950,87.0,0.0,180.0,5.0,0.0
4951,75.0,48.0,180.0,6.0,0.0
4952,61.0,0.0,900.0,1.0,0.0
4953,49.0,0.0,900.0,11.0,0.0
4954,64.0,0.0,780.0,2.0,0.0
4955,49.0,0.0,900.0,12.0,0.0
4956,68.0,144.0,780.0,2.0,0.0
4957,61.0,0.0,900.0,10.0,0.0
4958,76.0,0.0,240.0,6.0,0.0
4959,88.0,240.0,240.0,5.0,0.0
4960,75.0,48.0,240.0,6.0,0.0
4961,87.0,0.0,240.0,5.0,0.0
4962,76.0,0.0,180.0,6.0,0.0
4963,88.0,0.0,180.0,5.0,0.0
4964,66.0,144.0,780.0,2.0,0.0
4965,42.0,480.0,960.0,12.0,0.0
4966,54.0,0.0,960.0,10.0,0.0
4967,70.0,0.0,960.0,0.0,0.0
4968,82.0,0.0,960.0,0.0,0.0
4969,70.0,0.0,960.0,7.0,0.0
4970,54.0,0.0,960.0,1.0,0.0
4971,42.0,0.0,960.0,11.0,0.0
4972,92.0,0.0,240.0,5.0,0.0
4973,80.0,240.0,240.0,6.0,0.0
4974,90.0,0.0,240.0,5.0,0.0
4975,78.0,48.0,240.0,6.0,0.0
4976,76.0,0.0,180.0,6.0,0.0
4977,88.0,48.0,180.0,5.0,0.0
4978,59.0,0.0,780.0,2.0,0.0
4979,59.0,0.0,780.0,10.0,0.0
4980,71.0,0.0,780.0,7.0,0.0
4981,47.0,0.0,780.0,11.0,0.0
4982,66.0,0.0,780.0,2.0,0.0
4983,59.0,0.0,780.0,1.0,0.0
4984,47.0,144.0,780.0,12.0,0.0
4985,71.0,0.0,780.0,0.0,0.0
4986,83.0,0.0,780.0,0.0,0.0
4987,87.0,0.0,240.0,5.0,0.0
4988,75.0,240.0,240.0,6.0,0.0
4989,85.0,0.0,240.0,5.0,0.0
4990,73.0,48.0,240.0,6.0,0.0
4991,83.0,528.0,180.0,5.0,0.0
4992,71.0,0.0,180.0,6.0,0.0
4993,66.0,0.0,1860.0,1.0,0.0
4994,90.0,144.0,570.0,5.0,0.0
4995,90.0,0.0,1860.0,0.0,0.0
4996,78.0,0.0,900.0,0.0,0.0
4997,90.0,0.0,570.0,6.0,0.0
4998,59.0,0.0,240.0,10.0,0.0
4999,71.0,96.0,240.0,7.0,0.0
5000,47.0,0.0,240.0,12.0,0.0
5001,47.0,0.0,240.0,11.0,0.0
5002,49.0,0.0,240.0,12.0,0.0
5003,49.0,0.0,240.0,11.0,0.0
5004,61.0,168.0,240.0,10.0,0.0
5005,73.0,0.0,240.0,7.0,0.0
5006,90.0,0.0,180.0,6.0,0.0
5007,90.0,24.0,180.0,5.0,0.0
5008,51.0,0.0,180.0,12.0,0.0
5009,75.0,0.0,180.0,7.0,0.0
5010,63.0,528.0,180.0,10.0,0.0
5011,51.0,0.0,180.0,11.0,0.0
5012,80.0,0.0,570.0,6.0,0.0
5013,80.0,144.0,570.0,5.0,0.0
5014,80.0,0.0,1860.0,0.0,0.0
5015,68.0,0.0,1860.0,1.0,0.0
5016,64.0,0.0,240.0,10.0,0.0
5017,76.0,0.0,240.0,7.0,0.0
5018,52.0,0.0,240.0,12.0,0.0
5019,52.0,96.0,240.0,11.0,0.0
5020,51.0,0.0,240.0,12.0,0.0
5021,63.0,60.0,240.0,10.0,0.0
5022,75.0,0.0,240.0,7.0,0.0
5023,51.0,0.0,240.0,11.0,0.0
5024,82.0,0.0,60.0,6.0,0.0
5025,52.0,0.0,180.0,12.0,0.0
5026,76.0,0.0,180.0,7.0,0.0
5027,82.0,60.0,60.0,5.0,0.0
5028,52.0,0.0,180.0,11.0,0.0
5029,64.0,48.0,180.0,10.0,0.0
5030,83.0,60.0,60.0,6.0,0.0
5031,83.0,0.0,60.0,5.0,0.0
5032,85.0,0.0,60.0,6.0,0.0
5033,85.0,12.0,60.0,5.0,0.0
5034,87.0,312.0,60.0,6.0,0.0
5035,87.0,0.0,60.0,5.0,0.0
5036,88.0,0.0,1860.0,0.0,0.0
5037,88.0,168.0,300.0,5.0,0.0
5038,64.0,0.0,1860.0,1.0,0.0
5039,88.0,0.0,300.0,6.0,0.0
5040,70.0,0.0,240.0,7.0,0.0
5041,46.0,0.0,240.0,12.0,0.0
5042,46.0,0.0,240.0,11.0,0.0
5043,58.0,240.0,240.0,10.0,0.0
5044,88.0,120.0,300.0,5.0,0.0
5045,47.0,0.0,240.0,11.0,0.0
5046,88.0,0.0,300.0,6.0,0.0
5047,47.0,0.0,240.0,12.0,0.0
5048,71.0,0.0,240.0,7.0,0.0
5049,59.0,72.0,240.0,10.0,0.0
5050,73.0,0.0,180.0,7.0,0.0
5051,49.0,528.0,180.0,11.0,0.0
5052,61.0,0.0,180.0,10.0,0.0
5053,49.0,0.0,180.0,12.0,0.0
5054,79.0,0.0,900.0,0.0,0.0
5055,88.0,0.0,480.0,5.0,0.0
5056,67.0,0.0,900.0,1.0,0.0
5057,88.0,192.0,480.0,6.0,0.0
5058,51.0,0.0,240.0,11.0,0.0
5059,51.0,0.0,240.0,12.0,0.0
5060,75.0,0.0,240.0,7.0,0.0
5061,63.0,0.0,240.0,10.0,0.0
5062,49.0,0.0,240.0,12.0,0.0
5063,49.0,0.0,240.0,11.0,0.0
5064,73.0,192.0,240.0,7.0,0.0
5065,61.0,0.0,240.0,10.0,0.0
5066,78.0,0.0,180.0,6.0,0.0
5067,78.0,48.0,180.0,5.0,0.0
5068,51.0,0.0,180.0,11.0,0.0
5069,75.0,0.0,180.0,7.0,0.0
5070,63.0,0.0,180.0,10.0,0.0
5071,51.0,528.0,180.0,12.0,0.0
5072,63.0,0.0,1860.0,1.0,0.0
5073,66.0,0.0,900.0,1.0,0.0
5074,78.0,0.0,900.0,0.0,0.0
5075,87.0,0.0,1860.0,0.0,0.0
5076,87.0,0.0,570.0,6.0,0.0
5077,87.0,144.0,570.0,5.0,0.0
5078,44.0,0.0,240.0,12.0,0.0
5079,56.0,96.0,240.0,10.0,0.0
5080,44.0,0.0,240.0,11.0,0.0
5081,68.0,0.0,240.0,7.0,0.0
5082,46.0,0.0,240.0,12.0,0.0
5083,70.0,180.0,240.0,7.0,0.0
5084,46.0,0.0,240.0,11.0,0.0
5085,58.0,0.0,240.0,10.0,0.0
5086,87.0,12.0,180.0,6.0,0.0
5087,48.0,528.0,180.0,11.0,0.0
5088,72.0,0.0,180.0,7.0,0.0
5089,60.0,0.0,180.0,10.0,0.0
5090,87.0,0.0,180.0,5.0,0.0
5091,48.0,0.0,180.0,12.0,0.0
5092,65.0,0.0,900.0,1.0,0.0
5093,77.0,0.0,900.0,0.0,0.0
5094,77.0,144.0,570.0,5.0,0.0
5095,77.0,0.0,570.0,6.0,0.0
5096,49.0,0.0,240.0,11.0,0.0
5097,61.0,0.0,240.0,10.0,0.0
5098,73.0,0.0,240.0,7.0,0.0
5099,49.0,96.0,240.0,12.0,0.0
5100,48.0,0.0,240.0,11.0,0.0
5101,72.0,0.0,240.0,7.0,0.0
5102,60.0,0.0,240.0,10.0,0.0
5103,48.0,60.0,240.0,12.0,0.0
5104,61.0,0.0,180.0,10.0,0.0
5105,78.0,0.0,60.0,5.0,0.0
5106,78.0,60.0,60.0,6.0,0.0
5107,73.0,0.0,180.0,7.0,0.0
5108,49.0,48.0,180.0,12.0,0.0
5109,49.0,0.0,180.0,11.0,0.0
5110,80.0,0.0,60.0,5.0,0.0
5111,80.0,60.0,60.0,6.0,0.0
5112,82.0,0.0,60.0,5.0,0.0
5113,82.0,12.0,60.0,6.0,0.0
5114,84.0,312.0,60.0,5.0,0.0
5115,84.0,0.0,60.0,6.0,0.0
5116,85.0,0.0,1860.0,0.0,0.0
5117,76.0,528.0,900.0,0.0,0.0
5118,85.0,0.0,300.0,5.0,0.0
5119,64.0,0.0,900.0,1.0,0.0
5120,61.0,0.0,1860.0,1.0,0.0
5121,85.0,168.0,300.0,6.0,0.0
5122,54.0,0.0,240.0,10.0,0.0
5123,42.0,0.0,240.0,12.0,0.0
5124,42.0,0.0,240.0,11.0,0.0
5125,66.0,240.0,240.0,7.0,0.0
5126,85.0,0.0,300.0,6.0,0.0
5127,44.0,0.0,240.0,11.0,0.0
5128,44.0,72.0,240.0,12.0,0.0
5129,68.0,0.0,240.0,7.0,0.0
5130,85.0,120.0,300.0,5.0,0.0
5131,56.0,0.0,240.0,10.0,0.0
5132,46.0,0.0,180.0,11.0,0.0
5133,58.0,0.0,180.0,10.0,0.0
5134,70.0,0.0,180.0,7.0,0.0
5135,46.0,0.0,180.0,12.0,0.0
5136,75.0,0.0,1860.0,0.0,0.0
5137,85.0,0.0,480.0,5.0,0.0
5138,85.0,0.0,480.0,6.0,0.0
5139,63.0,0.0,1860.0,1.0,0.0
5140,47.0,0.0,240.0,12.0,0.0
5141,71.0,192.0,240.0,7.0,0.0
5142,59.0,0.0,240.0,10.0,0.0
5143,47.0,0.0,240.0,11.0,0.0
5144,46.0,0.0,240.0,11.0,0.0
5145,46.0,192.0,240.0,12.0,0.0
5146,75.0,48.0,180.0,6.0,0.0
5147,58.0,0.0,240.0,10.0,0.0
5148,70.0,0.0,240.0,7.0,0.0
5149,75.0,0.0,180.0,5.0,0.0
5150,59.0,432.0,180.0,10.0,0.0
5151,47.0,0.0,180.0,11.0,0.0
5152,71.0,0.0,180.0,7.0,0.0
5153,47.0,0.0,180.0,12.0,0.0
5154,83.0,0.0,570.0,5.0,0.0
5155,80.0,0.0,390.0,3.0,0.0
5156,71.0,96.0,390.0,3.0,0.0
5157,68.0,0.0,780.0,2.0,0.0
5158,56.0,120.0,780.0,2.0,0.0
5159,83.0,144.0,570.0,6.0,0.0
5160,59.0,0.0,1860.0,1.0,0.0
5161,83.0,432.0,1860.0,0.0,0.0
5162,44.0,0.0,240.0,11.0,0.0
5163,56.0,0.0,240.0,10.0,0.0
5164,68.0,96.0,240.0,7.0,0.0
5165,44.0,0.0,240.0,12.0,0.0
5166,55.0,0.0,240.0,10.0,0.0
5167,67.0,0.0,240.0,7.0,0.0
5168,43.0,48.0,240.0,12.0,0.0
5169,43.0,0.0,240.0,11.0,0.0
5170,44.0,0.0,180.0,11.0,0.0
5171,83.0,0.0,180.0,6.0,0.0
5172,68.0,0.0,180.0,7.0,0.0
5173,83.0,24.0,180.0,5.0,0.0
5174,56.0,0.0,180.0,10.0,0.0
5175,44.0,432.0,180.0,12.0,0.0
5176,73.0,144.0,570.0,6.0,0.0
5177,52.0,0.0,780.0,2.0,0.0
5178,80.0,96.0,390.0,3.0,0.0
5179,64.0,120.0,780.0,2.0,0.0
5180,61.0,0.0,1860.0,1.0,0.0
5181,73.0,0.0,570.0,5.0,0.0
5182,76.0,0.0,390.0,3.0,0.0
5183,73.0,0.0,900.0,0.0,0.0
5184,52.0,96.0,240.0,10.0,0.0
5185,64.0,0.0,240.0,7.0,0.0
5186,40.0,0.0,240.0,11.0,0.0
5187,40.0,0.0,240.0,12.0,0.0
5188,39.0,0.0,240.0,12.0,0.0
5189,39.0,0.0,240.0,11.0,0.0
5190,51.0,0.0,240.0,10.0,0.0
5191,63.0,48.0,240.0,7.0,0.0
5192,52.0,0.0,180.0,10.0,0.0
5193,40.0,0.0,180.0,12.0,0.0
5194,73.0,24.0,180.0,5.0,0.0
5195,64.0,0.0,180.0,7.0,0.0
5196,40.0,0.0,180.0,11.0,0.0
5197,73.0,0.0,180.0,6.0,0.0
5198,82.0,0.0,570.0,5.0,0.0
5199,82.0,144.0,570.0,6.0,0.0
5200,58.0,0.0,900.0,1.0,0.0
5201,82.0,0.0,900.0,0.0,0.0
5202,78.0,96.0,390.0,3.0,0.0
5203,66.0,120.0,780.0,2.0,0.0
5204,76.0,0.0,900.0,0.0,0.0
5205,42.0,0.0,240.0,12.0,0.0
5206,66.0,96.0,240.0,7.0,0.0
5207,54.0,0.0,240.0,10.0,0.0
5208,42.0,0.0,240.0,11.0,0.0
5209,53.0,48.0,240.0,10.0,0.0
5210,65.0,0.0,240.0,7.0,0.0
5211,41.0,0.0,240.0,11.0,0.0
5212,41.0,0.0,240.0,12.0,0.0
5213,42.0,192.0,180.0,11.0,0.0
5214,82.0,24.0,180.0,5.0,0.0
5215,42.0,0.0,180.0,12.0,0.0
5216,82.0,0.0,180.0,6.0,0.0
5217,54.0,0.0,180.0,10.0,0.0
5218,66.0,0.0,180.0,7.0,0.0
5219,35.0,0.0,4740.0,11.0,0.0
5220,59.0,0.0,390.0,1.0,0.0
5221,35.0,0.0,4740.0,12.0,0.0
5222,47.0,0.0,390.0,4.0,0.0
5223,83.0,0.0,390.0,0.0,0.0
5224,75.0,96.0,390.0,0.0,0.0
5225,59.0,0.0,4740.0,7.0,0.0
5226,83.0,0.0,150.0,6.0,0.0
5227,47.0,96.0,5190.0,2.0,0.0
5228,71.0,0.0,390.0,3.0,0.0
5229,78.0,0.0,390.0,3.0,0.0
5230,47.0,0.0,4740.0,10.0,0.0
5231,83.0,240.0,150.0,5.0,0.0
5232,59.0,0.0,5190.0,2.0,0.0
5233,83.0,240.0,240.0,5.0,0.0
5234,71.0,0.0,240.0,6.0,0.0
5235,70.0,192.0,240.0,6.0,0.0
5236,82.0,0.0,240.0,5.0,0.0
5237,71.0,528.0,180.0,6.0,0.0
5238,83.0,0.0,180.0,5.0,0.0
5239,66.0,528.0,1860.0,1.0,0.0
5240,78.0,240.0,240.0,6.0,0.0
5241,90.0,0.0,240.0,5.0,0.0
5242,89.0,192.0,240.0,5.0,0.0
5243,77.0,0.0,240.0,6.0,0.0
5244,90.0,0.0,180.0,5.0,0.0
5245,78.0,528.0,180.0,6.0,0.0
5246,67.0,528.0,1860.0,1.0,0.0
5247,79.0,0.0,240.0,5.0,0.0
5248,67.0,240.0,240.0,6.0,0.0
5249,78.0,0.0,240.0,5.0,0.0
5250,66.0,192.0,240.0,6.0,0.0
5251,79.0,0.0,180.0,5.0,0.0
5252,67.0,0.0,180.0,6.0,0.0
5253,64.0,432.0,1860.0,1.0,0.0
5254,67.0,0.0,240.0,6.0,0.0
5255,79.0,144.0,240.0,5.0,0.0
5256,76.0,240.0,150.0,6.0,0.0
5257,88.0,0.0,150.0,5.0,0.0
5258,88.0,0.0,150.0,5.0,0.0
5259,76.0,48.0,150.0,6.0,0.0
5260,66.0,0.0,1860.0,1.0,0.0
5261,76.0,144.0,240.0,6.0,0.0
5262,88.0,0.0,240.0,5.0,0.0
5263,78.0,0.0,150.0,5.0,0.0
5264,66.0,240.0,150.0,6.0,0.0
5265,66.0,0.0,150.0,6.0,0.0
5266,78.0,48.0,150.0,5.0,0.0
5267,71.0,480.0,960.0,7.0,0.0
5268,47.0,0.0,1920.0,11.0,0.0
5269,47.0,0.0,1920.0,12.0,0.0
5270,78.0,0.0,900.0,0.0,0.0
5271,86.0,0.0,1860.0,0.0,0.0
5272,59.0,0.0,1920.0,10.0,0.0
5273,62.0,0.0,1860.0,1.0,0.0
5274,86.0,0.0,240.0,5.0,0.0
5275,74.0,240.0,240.0,6.0,0.0
5276,73.0,192.0,240.0,6.0,0.0
5277,85.0,0.0,240.0,5.0,0.0
5278,86.0,48.0,180.0,5.0,0.0
5279,74.0,0.0,180.0,6.0,0.0
5280,68.0,480.0,960.0,7.0,0.0
5281,65.0,48.0,900.0,1.0,0.0
5282,77.0,0.0,900.0,0.0,0.0
5283,77.0,240.0,240.0,5.0,0.0
5284,65.0,0.0,240.0,6.0,0.0
5285,75.0,0.0,240.0,5.0,0.0
5286,63.0,192.0,240.0,6.0,0.0
5287,77.0,0.0,180.0,5.0,0.0
5288,65.0,0.0,180.0,6.0,0.0
5289,58.0,0.0,780.0,10.0,0.0
5290,46.0,0.0,780.0,12.0,0.0
5291,46.0,96.0,780.0,11.0,0.0
5292,61.0,0.0,1860.0,1.0,0.0
5293,64.0,0.0,900.0,1.0,0.0
5294,85.0,0.0,1860.0,0.0,0.0
5295,76.0,48.0,900.0,0.0,0.0
5296,67.0,480.0,960.0,7.0,0.0
5297,76.0,0.0,240.0,5.0,0.0
5298,64.0,144.0,240.0,6.0,0.0
5299,85.0,0.0,150.0,5.0,0.0
5300,73.0,144.0,150.0,6.0,0.0
5301,85.0,0.0,150.0,5.0,0.0
5302,73.0,48.0,150.0,6.0,0.0
5303,47.0,0.0,900.0,12.0,0.0
5304,59.0,96.0,780.0,10.0,0.0
5305,66.0,480.0,960.0,7.0,0.0
5306,47.0,0.0,900.0,11.0,0.0
5307,63.0,48.0,900.0,1.0,0.0
5308,75.0,0.0,900.0,0.0,0.0
5309,73.0,0.0,240.0,6.0,0.0
5310,85.0,144.0,240.0,5.0,0.0
5311,75.0,144.0,150.0,5.0,0.0
5312,63.0,0.0,150.0,6.0,0.0
5313,63.0,0.0,150.0,6.0,0.0
5314,75.0,48.0,150.0,5.0,0.0
5315,83.0,0.0,1860.0,0.0,0.0
5316,74.0,0.0,900.0,0.0,0.0
5317,62.0,0.0,900.0,1.0,0.0
5318,59.0,0.0,1860.0,1.0,0.0
5319,43.0,0.0,960.0,11.0,0.0
5320,55.0,480.0,960.0,10.0,0.0
5321,67.0,480.0,1920.0,7.0,0.0
5322,43.0,0.0,960.0,12.0,0.0
5323,71.0,0.0,240.0,6.0,0.0
5324,83.0,240.0,240.0,5.0,0.0
5325,70.0,192.0,240.0,6.0,0.0
5326,82.0,0.0,240.0,5.0,0.0
5327,71.0,0.0,180.0,6.0,0.0
5328,83.0,48.0,180.0,5.0,0.0
5329,61.0,96.0,1920.0,1.0,0.0
5330,73.0,0.0,1920.0,0.0,0.0
5331,40.0,0.0,960.0,12.0,0.0
5332,40.0,0.0,960.0,11.0,0.0
5333,52.0,0.0,960.0,10.0,0.0
5334,61.0,240.0,240.0,6.0,0.0
5335,73.0,0.0,240.0,5.0,0.0
5336,60.0,0.0,240.0,6.0,0.0
5337,72.0,192.0,240.0,5.0,0.0
5338,73.0,48.0,180.0,5.0,0.0
5339,61.0,0.0,180.0,6.0,0.0
5340,82.0,0.0,960.0,0.0,0.0
5341,58.0,0.0,960.0,1.0,0.0
5342,42.0,0.0,900.0,12.0,0.0
5343,42.0,0.0,900.0,11.0,0.0
5344,54.0,0.0,900.0,10.0,0.0
5345,66.0,0.0,900.0,7.0,0.0
5346,78.0,240.0,240.0,5.0,0.0
5347,66.0,0.0,240.0,6.0,0.0
5348,77.0,0.0,240.0,5.0,0.0
5349,65.0,192.0,240.0,6.0,0.0
5350,78.0,48.0,180.0,5.0,0.0
5351,66.0,0.0,180.0,6.0,0.0
5352,35.0,0.0,390.0,12.0,0.0
5353,47.0,0.0,390.0,10.0,0.0
5354,59.0,0.0,390.0,6.0,0.0
5355,71.0,0.0,390.0,0.0,0.0
5356,83.0,0.0,390.0,0.0,0.0
5357,59.0,72.0,390.0,1.0,0.0
5358,71.0,120.0,90.0,5.0,0.0
5359,63.0,0.0,390.0,7.0,0.0
5360,35.0,0.0,390.0,11.0,0.0
5361,71.0,120.0,90.0,5.0,0.0
5362,66.0,48.0,90.0,5.0,0.0
5363,66.0,120.0,90.0,5.0,0.0
5364,68.0,120.0,90.0,5.0,0.0
5365,68.0,120.0,90.0,5.0,0.0
5366,70.0,120.0,90.0,5.0,0.0
5367,70.0,120.0,90.0,5.0,0.0
5368,71.0,120.0,90.0,5.0,0.0
5369,71.0,120.0,90.0,5.0,0.0
5370,70.0,120.0,90.0,5.0,0.0
5371,70.0,120.0,90.0,5.0,0.0
5372,71.0,120.0,90.0,5.0,0.0
5373,71.0,120.0,90.0,5.0,0.0
5374,72.0,120.0,90.0,5.0,0.0
5375,72.0,120.0,90.0,5.0,0.0
5376,73.0,120.0,90.0,5.0,0.0
5377,73.0,120.0,90.0,5.0,0.0
5378,66.0,120.0,90.0,5.0,0.0
5379,66.0,120.0,90.0,5.0,0.0
5380,70.0,120.0,90.0,5.0,0.0
5381,70.0,120.0,90.0,5.0,0.0
5382,71.0,120.0,90.0,5.0,0.0
5383,71.0,120.0,90.0,5.0,0.0
5384,73.0,120.0,90.0,5.0,0.0
5385,73.0,120.0,90.0,5.0,0.0
5386,72.0,120.0,90.0,5.0,0.0
5387,72.0,120.0,90.0,5.0,0.0
5388,73.0,120.0,90.0,5.0,0.0
5389,73.0,120.0,90.0,5.0,0.0
5390,74.0,120.0,90.0,5.0,0.0
5391,74.0,120.0,90.0,5.0,0.0
5392,75.0,72.0,390.0,5.0,0.0
5393,71.0,120.0,90.0,6.0,0.0
5394,71.0,120.0,90.0,6.0,0.0
5395,66.0,48.0,90.0,6.0,0.0
5396,66.0,120.0,90.0,6.0,0.0
5397,68.0,120.0,90.0,6.0,0.0
5398,75.0,48.0,300.0,5.0,0.0
5399,68.0,72.0,90.0,6.0,0.0
5400,70.0,120.0,90.0,6.0,0.0
5401,75.0,0.0,90.0,5.0,0.0
5402,70.0,84.0,90.0,6.0,0.0
5403,76.0,36.0,60.0,5.0,0.0
5404,71.0,24.0,90.0,6.0,0.0
5405,75.0,60.0,60.0,5.0,0.0
5406,76.0,36.0,60.0,5.0,0.0
5407,71.0,24.0,90.0,6.0,0.0
5408,75.0,60.0,60.0,5.0,0.0
5409,76.0,36.0,60.0,5.0,0.0
5410,70.0,24.0,90.0,6.0,0.0
5411,75.0,60.0,60.0,5.0,0.0
5412,70.0,24.0,90.0,6.0,0.0
5413,76.0,36.0,60.0,5.0,0.0
5414,75.0,60.0,60.0,5.0,0.0
5415,76.0,36.0,60.0,5.0,0.0
5416,71.0,24.0,90.0,6.0,0.0
5417,75.0,60.0,60.0,5.0,0.0
5418,71.0,24.0,90.0,6.0,0.0
5419,76.0,36.0,60.0,5.0,0.0
5420,75.0,96.0,60.0,5.0,0.0
5421,72.0,24.0,90.0,6.0,0.0
5422,73.0,96.0,120.0,5.0,0.0
5423,75.0,0.0,90.0,5.0,0.0
5424,72.0,120.0,90.0,6.0,0.0
5425,76.0,96.0,720.0,5.0,0.0
5426,73.0,120.0,90.0,6.0,0.0
5427,73.0,120.0,90.0,6.0,0.0
5428,66.0,120.0,90.0,6.0,0.0
5429,66.0,120.0,90.0,6.0,0.0
5430,70.0,120.0,90.0,6.0,0.0
5431,70.0,24.0,90.0,6.0,0.0
5432,75.0,24.0,180.0,5.0,0.0
5433,71.0,96.0,90.0,6.0,0.0
5434,71.0,120.0,90.0,6.0,0.0
5435,73.0,120.0,90.0,6.0,0.0
5436,76.0,96.0,240.0,5.0,0.0
5437,73.0,24.0,90.0,6.0,0.0
5438,75.0,96.0,240.0,5.0,0.0
5439,72.0,120.0,90.0,6.0,0.0
5440,72.0,24.0,90.0,6.0,0.0
5441,73.0,120.0,90.0,6.0,0.0
5442,76.0,96.0,240.0,5.0,0.0
5443,73.0,24.0,90.0,6.0,0.0
5444,74.0,96.0,90.0,6.0,0.0
5445,77.0,24.0,180.0,5.0,0.0
5446,74.0,120.0,90.0,6.0,0.0
5447,78.0,48.0,3660.0,3.0,0.0
5448,59.0,0.0,240.0,1.0,0.0
5449,66.0,0.0,3660.0,2.0,0.0
5450,75.0,0.0,390.0,6.0,0.0
5451,47.0,0.0,240.0,11.0,0.0
5452,78.0,0.0,390.0,5.0,0.0
5453,59.0,96.0,240.0,10.0,0.0
5454,71.0,120.0,90.0,7.0,0.0
5455,47.0,0.0,240.0,12.0,0.0
5456,47.0,72.0,390.0,4.0,0.0
5457,71.0,24.0,90.0,7.0,0.0
5458,54.0,0.0,240.0,10.0,0.0
5459,42.0,0.0,240.0,11.0,0.0
5460,66.0,48.0,90.0,7.0,0.0
5461,54.0,96.0,240.0,1.0,0.0
5462,42.0,0.0,240.0,12.0,0.0
5463,66.0,24.0,90.0,7.0,0.0
5464,44.0,0.0,240.0,11.0,0.0
5465,56.0,96.0,240.0,10.0,0.0
5466,68.0,120.0,90.0,7.0,0.0
5467,44.0,0.0,240.0,12.0,0.0
5468,56.0,0.0,240.0,1.0,0.0
5469,68.0,24.0,90.0,7.0,0.0
5470,58.0,0.0,180.0,1.0,0.0
5471,70.0,96.0,90.0,7.0,0.0
5472,46.0,0.0,180.0,12.0,0.0
5473,46.0,0.0,180.0,11.0,0.0
5474,58.0,24.0,180.0,10.0,0.0
5475,70.0,120.0,90.0,7.0,0.0
5476,71.0,0.0,90.0,7.0,0.0
5477,78.0,120.0,90.0,6.0,0.0
5478,66.0,0.0,90.0,6.0,0.0
5479,59.0,96.0,240.0,1.0,0.0
5480,59.0,0.0,240.0,10.0,0.0
5481,47.0,0.0,240.0,12.0,0.0
5482,87.0,24.0,900.0,0.0,0.0
5483,87.0,0.0,90.0,5.0,0.0
5484,47.0,0.0,240.0,11.0,0.0
5485,87.0,0.0,90.0,5.0,0.0
5486,66.0,0.0,90.0,6.0,0.0
5487,78.0,0.0,90.0,6.0,0.0
5488,71.0,24.0,90.0,7.0,0.0
5489,87.0,0.0,90.0,5.0,0.0
5490,46.0,96.0,240.0,12.0,0.0
5491,70.0,0.0,90.0,7.0,0.0
5492,58.0,0.0,240.0,1.0,0.0
5493,58.0,0.0,240.0,10.0,0.0
5494,78.0,120.0,90.0,6.0,0.0
5495,66.0,0.0,90.0,6.0,0.0
5496,46.0,0.0,240.0,11.0,0.0
5497,70.0,24.0,90.0,7.0,0.0
5498,66.0,0.0,90.0,6.0,0.0
5499,78.0,0.0,90.0,6.0,0.0
5500,87.0,0.0,90.0,5.0,0.0
5501,59.0,96.0,240.0,1.0,0.0
5502,59.0,0.0,240.0,10.0,0.0
5503,47.0,0.0,240.0,11.0,0.0
5504,66.0,120.0,90.0,6.0,0.0
5505,47.0,0.0,240.0,12.0,0.0
5506,71.0,0.0,90.0,7.0,0.0
5507,78.0,0.0,90.0,6.0,0.0
5508,87.0,0.0,90.0,5.0,0.0
5509,78.0,0.0,90.0,6.0,0.0
5510,66.0,0.0,90.0,6.0,0.0
5511,87.0,0.0,90.0,5.0,0.0
5512,71.0,24.0,90.0,7.0,0.0
5513,48.0,0.0,180.0,12.0,0.0
5514,78.0,96.0,90.0,6.0,0.0
5515,60.0,0.0,180.0,10.0,0.0
5516,87.0,0.0,90.0,5.0,0.0
5517,60.0,0.0,180.0,1.0,0.0
5518,48.0,0.0,180.0,11.0,0.0
5519,72.0,0.0,90.0,7.0,0.0
5520,66.0,0.0,90.0,6.0,0.0
5521,87.0,0.0,90.0,5.0,0.0
5522,66.0,0.0,90.0,6.0,0.0
5523,72.0,120.0,90.0,7.0,0.0
5524,78.0,0.0,90.0,6.0,0.0
5525,49.0,96.0,240.0,12.0,0.0
5526,73.0,120.0,90.0,7.0,0.0
5527,88.0,0.0,1200.0,0.0,0.0
5528,61.0,0.0,240.0,10.0,0.0
5529,66.0,0.0,390.0,6.0,0.0
5530,61.0,0.0,240.0,1.0,0.0
5531,49.0,0.0,240.0,11.0,0.0
5532,88.0,0.0,390.0,5.0,0.0
5533,78.0,72.0,390.0,6.0,0.0
5534,73.0,24.0,90.0,7.0,0.0
5535,54.0,96.0,240.0,1.0,0.0
5536,42.0,0.0,240.0,11.0,0.0
5537,54.0,0.0,240.0,10.0,0.0
5538,66.0,48.0,90.0,7.0,0.0
5539,42.0,0.0,240.0,12.0,0.0
5540,66.0,24.0,90.0,7.0,0.0
5541,46.0,0.0,240.0,12.0,0.0
5542,70.0,120.0,90.0,7.0,0.0
5543,46.0,0.0,240.0,11.0,0.0
5544,58.0,0.0,240.0,1.0,0.0
5545,58.0,96.0,240.0,10.0,0.0
5546,70.0,24.0,90.0,7.0,0.0
5547,47.0,0.0,180.0,11.0,0.0
5548,71.0,96.0,90.0,7.0,0.0
5549,47.0,24.0,180.0,12.0,0.0
5550,59.0,0.0,180.0,10.0,0.0
5551,59.0,0.0,180.0,1.0,0.0
5552,71.0,120.0,90.0,7.0,0.0
5553,49.0,0.0,240.0,11.0,0.0
5554,73.0,0.0,90.0,7.0,0.0
5555,61.0,96.0,240.0,1.0,0.0
5556,66.0,0.0,90.0,6.0,0.0
5557,88.0,0.0,90.0,5.0,0.0
5558,49.0,0.0,240.0,12.0,0.0
5559,78.0,120.0,90.0,6.0,0.0
5560,61.0,0.0,240.0,10.0,0.0
5561,66.0,24.0,90.0,6.0,0.0
5562,88.0,0.0,90.0,5.0,0.0
5563,78.0,0.0,90.0,6.0,0.0
5564,73.0,0.0,90.0,7.0,0.0
5565,87.0,0.0,240.0,0.0,0.0
5566,48.0,0.0,240.0,11.0,0.0
5567,87.0,120.0,90.0,5.0,0.0
5568,66.0,0.0,90.0,6.0,0.0
5569,60.0,96.0,240.0,1.0,0.0
5570,72.0,0.0,90.0,7.0,0.0
5571,48.0,0.0,240.0,12.0,0.0
5572,60.0,0.0,240.0,10.0,0.0
5573,78.0,0.0,90.0,6.0,0.0
5574,72.0,24.0,90.0,7.0,0.0
5575,66.0,0.0,90.0,6.0,0.0
5576,87.0,0.0,90.0,5.0,0.0
5577,78.0,0.0,90.0,6.0,0.0
5578,88.0,48.0,240.0,0.0,0.0
5579,49.0,0.0,240.0,12.0,0.0
5580,88.0,0.0,90.0,5.0,0.0
5581,61.0,0.0,240.0,10.0,0.0
5582,78.0,120.0,90.0,6.0,0.0
5583,61.0,0.0,240.0,1.0,0.0
5584,66.0,0.0,90.0,6.0,0.0
5585,73.0,0.0,90.0,7.0,0.0
5586,49.0,0.0,240.0,11.0,0.0
5587,73.0,24.0,90.0,7.0,0.0
5588,88.0,0.0,90.0,5.0,0.0
5589,78.0,0.0,90.0,6.0,0.0
5590,66.0,0.0,90.0,6.0,0.0
5591,50.0,0.0,180.0,12.0,0.0
5592,62.0,0.0,180.0,10.0,0.0
5593,89.0,96.0,90.0,5.0,0.0
5594,74.0,0.0,90.0,7.0,0.0
5595,50.0,0.0,180.0,11.0,0.0
5596,62.0,24.0,180.0,1.0,0.0
5597,89.0,0.0,240.0,0.0,0.0
5598,66.0,0.0,90.0,6.0,0.0
5599,78.0,0.0,90.0,6.0,0.0
5600,78.0,0.0,90.0,6.0,0.0
5601,66.0,0.0,90.0,6.0,0.0
5602,89.0,0.0,90.0,5.0,0.0
5603,74.0,24.0,90.0,7.0,0.0
5604,51.0,0.0,330.0,12.0,0.0
5605,63.0,0.0,330.0,10.0,0.0
5606,63.0,0.0,330.0,1.0,0.0
5607,78.0,336.0,15.0,0.0,0.0
5608,78.0,0.0,330.0,3.0,0.0
5609,90.0,0.0,330.0,0.0,0.0
5610,75.0,0.0,330.0,7.0,0.0
5611,71.0,0.0,330.0,3.0,0.0
5612,78.0,0.0,330.0,6.0,0.0
5613,66.0,204.0,330.0,6.0,0.0
5614,59.0,0.0,330.0,2.0,0.0
5615,66.0,0.0,330.0,2.0,0.0
5616,51.0,0.0,330.0,11.0,0.0
5617,90.0,0.0,330.0,5.0,0.0
5618,56.0,0.0,330.0,11.0,0.0
5619,78.0,0.0,480.0,7.0,0.0
5620,80.0,0.0,330.0,3.0,0.0
5621,68.0,24.0,330.0,3.0,0.0
5622,87.0,0.0,480.0,0.0,0.0
5623,84.0,336.0,480.0,0.0,0.0
5624,56.0,0.0,330.0,12.0,0.0
5625,85.0,60.0,60.0,6.0,0.0
5626,88.0,0.0,60.0,5.0,0.0
5627,68.0,0.0,330.0,1.0,0.0
5628,68.0,0.0,330.0,2.0,0.0
5629,68.0,0.0,330.0,10.0,0.0
5630,84.0,60.0,60.0,6.0,0.0
5631,87.0,0.0,60.0,5.0,0.0
5632,85.0,0.0,60.0,6.0,0.0
5633,88.0,60.0,60.0,5.0,0.0
5634,87.0,60.0,60.0,5.0,0.0
5635,84.0,0.0,60.0,6.0,0.0
5636,85.0,36.0,60.0,6.0,0.0
5637,88.0,0.0,60.0,5.0,0.0
5638,84.0,60.0,60.0,6.0,0.0
5639,87.0,0.0,60.0,5.0,0.0
5640,85.0,0.0,60.0,5.0,0.0
5641,82.0,60.0,60.0,6.0,0.0
5642,84.0,0.0,60.0,6.0,0.0
5643,87.0,0.0,60.0,5.0,0.0
5644,85.0,0.0,330.0,6.0,0.0
5645,88.0,0.0,330.0,5.0,0.0
5646,61.0,0.0,330.0,10.0,0.0
5647,76.0,204.0,330.0,7.0,0.0
5648,88.0,0.0,330.0,0.0,0.0
5649,49.0,0.0,330.0,11.0,0.0
5650,85.0,0.0,330.0,0.0,0.0
5651,61.0,0.0,330.0,1.0,0.0
5652,68.0,0.0,330.0,3.0,0.0
5653,80.0,0.0,330.0,3.0,0.0
5654,64.0,0.0,330.0,2.0,0.0
5655,68.0,0.0,330.0,2.0,0.0
5656,49.0,0.0,330.0,12.0,0.0
5657,78.0,0.0,330.0,3.0,0.0
5658,66.0,0.0,330.0,1.0,0.0
5659,82.0,0.0,480.0,0.0,0.0
5660,76.0,0.0,480.0,7.0,0.0
5661,87.0,60.0,60.0,5.0,0.0
5662,85.0,0.0,480.0,0.0,0.0
5663,54.0,0.0,330.0,12.0,0.0
5664,66.0,0.0,330.0,10.0,0.0
5665,83.0,0.0,60.0,6.0,0.0
5666,54.0,0.0,330.0,11.0,0.0
5667,66.0,24.0,330.0,2.0,0.0
5668,82.0,0.0,60.0,6.0,0.0
5669,85.0,60.0,60.0,5.0,0.0
5670,83.0,60.0,60.0,6.0,0.0
5671,87.0,0.0,60.0,5.0,0.0
5672,85.0,0.0,60.0,5.0,0.0
5673,82.0,60.0,60.0,6.0,0.0
5674,83.0,36.0,60.0,6.0,0.0
5675,87.0,0.0,60.0,5.0,0.0
5676,82.0,0.0,60.0,6.0,0.0
5677,85.0,60.0,60.0,5.0,0.0
5678,83.0,60.0,60.0,5.0,0.0
5679,80.0,0.0,60.0,6.0,0.0
5680,82.0,0.0,60.0,6.0,0.0
5681,85.0,336.0,60.0,5.0,0.0
5682,47.0,0.0,330.0,11.0,0.0
5683,59.0,312.0,330.0,1.0,0.0
5684,83.0,0.0,330.0,0.0,0.0
5685,87.0,0.0,330.0,0.0,0.0
5686,75.0,0.0,330.0,7.0,0.0
5687,71.0,0.0,330.0,3.0,0.0
5688,66.0,0.0,330.0,2.0,0.0
5689,59.0,0.0,330.0,2.0,0.0
5690,59.0,0.0,330.0,10.0,0.0
5691,47.0,0.0,330.0,12.0,0.0
5692,83.0,0.0,330.0,6.0,0.0
5693,87.0,0.0,330.0,5.0,0.0
5694,78.0,0.0,330.0,3.0,0.0
5695,83.0,0.0,180.0,0.0,0.0
5696,87.0,0.0,180.0,0.0,0.0
5697,56.0,0.0,180.0,10.0,0.0
5698,68.0,0.0,180.0,7.0,0.0
5699,44.0,0.0,180.0,12.0,0.0
5700,56.0,0.0,180.0,1.0,0.0
5701,75.0,0.0,180.0,6.0,0.0
5702,44.0,0.0,180.0,11.0,0.0
5703,83.0,0.0,180.0,6.0,0.0
5704,75.0,0.0,180.0,5.0,0.0
5705,83.0,168.0,180.0,5.0,0.0
5706,68.0,0.0,180.0,2.0,0.0
5707,80.0,72.0,330.0,3.0,0.0
5708,71.0,0.0,330.0,3.0,0.0
5709,83.0,0.0,180.0,0.0,0.0
5710,87.0,0.0,180.0,0.0,0.0
5711,56.0,0.0,180.0,10.0,0.0
5712,68.0,0.0,180.0,2.0,0.0
5713,68.0,0.0,180.0,7.0,0.0
5714,44.0,0.0,180.0,12.0,0.0
5715,75.0,0.0,180.0,5.0,0.0
5716,83.0,0.0,180.0,5.0,0.0
5717,44.0,0.0,180.0,11.0,0.0
5718,83.0,0.0,180.0,6.0,0.0
5719,75.0,0.0,180.0,6.0,0.0
5720,56.0,240.0,180.0,1.0,0.0
5721,64.0,0.0,180.0,2.0,0.0
5722,76.0,72.0,330.0,3.0,0.0
5723,80.0,0.0,330.0,3.0,0.0
5724,40.0,0.0,180.0,11.0,0.0
5725,52.0,0.0,180.0,10.0,0.0
5726,88.0,0.0,180.0,0.0,0.0
5727,85.0,0.0,180.0,0.0,0.0
5728,68.0,0.0,180.0,2.0,0.0
5729,64.0,0.0,180.0,7.0,0.0
5730,85.0,0.0,180.0,6.0,0.0
5731,76.0,0.0,180.0,6.0,0.0
5732,52.0,168.0,180.0,1.0,0.0
5733,40.0,0.0,180.0,12.0,0.0
5734,76.0,0.0,180.0,5.0,0.0
5735,85.0,0.0,180.0,5.0,0.0
5736,85.0,0.0,180.0,0.0,0.0
5737,64.0,0.0,180.0,2.0,0.0
5738,68.0,240.0,180.0,2.0,0.0
5739,40.0,0.0,180.0,12.0,0.0
5740,88.0,0.0,180.0,0.0,0.0
5741,40.0,0.0,180.0,11.0,0.0
5742,52.0,0.0,180.0,10.0,0.0
5743,76.0,0.0,180.0,5.0,0.0
5744,85.0,0.0,180.0,5.0,0.0
5745,76.0,0.0,180.0,6.0,0.0
5746,85.0,0.0,180.0,6.0,0.0
5747,52.0,0.0,180.0,1.0,0.0
5748,64.0,0.0,180.0,7.0,0.0
5749,78.0,72.0,330.0,3.0,0.0
5750,54.0,0.0,180.0,10.0,0.0
5751,42.0,0.0,180.0,11.0,0.0
5752,66.0,0.0,180.0,7.0,0.0
5753,85.0,0.0,180.0,0.0,0.0
5754,82.0,0.0,180.0,0.0,0.0
5755,66.0,0.0,180.0,2.0,0.0
5756,73.0,0.0,180.0,6.0,0.0
5757,82.0,0.0,180.0,5.0,0.0
5758,42.0,0.0,180.0,12.0,0.0
5759,73.0,0.0,180.0,5.0,0.0
5760,82.0,168.0,180.0,6.0,0.0
5761,54.0,0.0,180.0,1.0,0.0
5762,42.0,0.0,180.0,11.0,0.0
5763,66.0,0.0,180.0,7.0,0.0
5764,82.0,240.0,180.0,6.0,0.0
5765,54.0,0.0,180.0,1.0,0.0
5766,66.0,0.0,180.0,2.0,0.0
5767,73.0,0.0,180.0,6.0,0.0
5768,82.0,0.0,180.0,0.0,0.0
5769,85.0,0.0,180.0,0.0,0.0
5770,73.0,0.0,180.0,5.0,0.0
5771,42.0,0.0,180.0,12.0,0.0
5772,82.0,0.0,180.0,5.0,0.0
5773,54.0,0.0,180.0,10.0,0.0
5774,47.0,216.0,180.0,10.0,0.0
5775,75.0,0.0,390.0,5.0,0.0
5776,35.0,0.0,390.0,11.0,0.0
5777,66.0,0.0,390.0,2.0,0.0
5778,47.0,0.0,390.0,1.0,0.0
5779,83.0,24.0,390.0,0.0,0.0
5780,78.0,0.0,390.0,3.0,0.0
5781,71.0,0.0,390.0,3.0,0.0
5782,35.0,0.0,390.0,12.0,0.0
5783,59.0,0.0,390.0,2.0,0.0
5784,83.0,0.0,390.0,5.0,0.0
5785,83.0,0.0,390.0,6.0,0.0
5786,59.0,0.0,180.0,7.0,0.0
5787,75.0,0.0,390.0,6.0,0.0
5788,59.0,240.0,180.0,10.0,0.0
5789,66.0,0.0,180.0,7.0,0.0
5790,63.0,0.0,180.0,7.0,0.0
5791,63.0,240.0,180.0,7.0,0.0
5792,66.0,0.0,180.0,7.0,0.0
5793,59.0,0.0,180.0,10.0,0.0
5794,66.0,0.0,180.0,7.0,0.0
5795,59.0,192.0,180.0,10.0,0.0
5796,63.0,0.0,180.0,7.0,0.0
5797,64.0,48.0,120.0,6.0,0.0
5798,66.0,12.0,180.0,7.0,0.0
5799,42.0,24.0,390.0,11.0,0.0
5800,61.0,60.0,180.0,10.0,0.0
5801,42.0,0.0,390.0,12.0,0.0
5802,64.0,0.0,180.0,7.0,0.0
5803,76.0,0.0,120.0,5.0,0.0
5804,75.0,0.0,120.0,5.0,0.0
5805,63.0,120.0,120.0,6.0,0.0
5806,66.0,12.0,180.0,7.0,0.0
5807,64.0,0.0,180.0,7.0,0.0
5808,61.0,60.0,180.0,10.0,0.0
5809,73.0,0.0,120.0,5.0,0.0
5810,61.0,24.0,120.0,6.0,0.0
5811,75.0,120.0,120.0,5.0,0.0
5812,63.0,0.0,120.0,6.0,0.0
5813,61.0,60.0,180.0,10.0,0.0
5814,64.0,48.0,120.0,6.0,0.0
5815,76.0,0.0,120.0,5.0,0.0
5816,64.0,0.0,180.0,7.0,0.0
5817,66.0,12.0,180.0,7.0,0.0
5818,78.0,120.0,120.0,5.0,0.0
5819,66.0,0.0,120.0,6.0,0.0
5820,66.0,12.0,180.0,7.0,0.0
5821,64.0,0.0,180.0,7.0,0.0
5822,61.0,60.0,180.0,10.0,0.0
5823,68.0,48.0,120.0,6.0,0.0
5824,80.0,0.0,120.0,5.0,0.0
5825,70.0,0.0,120.0,6.0,0.0
5826,82.0,120.0,120.0,5.0,0.0
5827,47.0,0.0,390.0,12.0,0.0
5828,71.0,48.0,120.0,6.0,0.0
5829,83.0,0.0,120.0,5.0,0.0
5830,66.0,12.0,180.0,7.0,0.0
5831,63.0,0.0,180.0,7.0,0.0
5832,47.0,24.0,390.0,11.0,0.0
5833,59.0,60.0,180.0,10.0,0.0
5834,73.0,0.0,120.0,6.0,0.0
5835,85.0,120.0,120.0,5.0,0.0
5836,59.0,60.0,180.0,10.0,0.0
5837,75.0,0.0,120.0,6.0,0.0
5838,66.0,12.0,180.0,7.0,0.0
5839,63.0,0.0,180.0,7.0,0.0
5840,87.0,24.0,120.0,5.0,0.0
5841,85.0,0.0,120.0,5.0,0.0
5842,73.0,120.0,120.0,6.0,0.0
5843,83.0,48.0,120.0,5.0,0.0
5844,71.0,0.0,120.0,6.0,0.0
5845,63.0,0.0,180.0,7.0,0.0
5846,66.0,12.0,180.0,7.0,0.0
5847,59.0,60.0,180.0,10.0,0.0
5848,70.0,120.0,120.0,6.0,0.0
5849,82.0,0.0,120.0,5.0,0.0
5850,80.0,48.0,120.0,5.0,0.0
5851,66.0,12.0,180.0,7.0,0.0
5852,63.0,0.0,180.0,7.0,0.0
5853,68.0,0.0,120.0,6.0,0.0
5854,59.0,36.0,180.0,10.0,0.0
5855,78.0,144.0,90.0,5.0,0.0
5856,66.0,0.0,90.0,6.0,0.0
5857,61.0,60.0,180.0,10.0,0.0
5858,64.0,48.0,120.0,6.0,0.0
5859,66.0,12.0,180.0,7.0,0.0
5860,64.0,0.0,180.0,7.0,0.0
5861,76.0,0.0,120.0,5.0,0.0
5862,42.0,24.0,390.0,12.0,0.0
5863,42.0,0.0,390.0,11.0,0.0
5864,75.0,0.0,120.0,5.0,0.0
5865,63.0,120.0,120.0,6.0,0.0
5866,73.0,0.0,120.0,5.0,0.0
5867,61.0,60.0,180.0,10.0,0.0
5868,64.0,12.0,180.0,7.0,0.0
5869,66.0,0.0,180.0,7.0,0.0
5870,61.0,24.0,120.0,6.0,0.0
5871,75.0,120.0,120.0,5.0,0.0
5872,63.0,0.0,120.0,6.0,0.0
5873,64.0,0.0,120.0,6.0,0.0
5874,76.0,48.0,120.0,5.0,0.0
5875,61.0,60.0,180.0,10.0,0.0
5876,64.0,0.0,180.0,7.0,0.0
5877,66.0,12.0,180.0,7.0,0.0
5878,78.0,0.0,120.0,5.0,0.0
5879,66.0,120.0,120.0,6.0,0.0
5880,80.0,48.0,120.0,5.0,0.0
5881,68.0,0.0,120.0,6.0,0.0
5882,66.0,0.0,180.0,7.0,0.0
5883,64.0,12.0,180.0,7.0,0.0
5884,61.0,60.0,180.0,10.0,0.0
5885,70.0,120.0,120.0,6.0,0.0
5886,82.0,0.0,120.0,5.0,0.0
5887,78.0,0.0,5580.0,0.0,0.0
5888,63.0,12.0,180.0,7.0,0.0
5889,85.0,48.0,120.0,5.0,0.0
5890,35.0,0.0,390.0,12.0,0.0
5891,59.0,60.0,180.0,10.0,0.0
5892,66.0,0.0,180.0,7.0,0.0
5893,35.0,24.0,390.0,11.0,0.0
5894,66.0,72.0,5580.0,0.0,0.0
5895,73.0,0.0,120.0,6.0,0.0
5896,83.0,120.0,120.0,5.0,0.0
5897,71.0,0.0,120.0,6.0,0.0
5898,59.0,60.0,180.0,10.0,0.0
5899,63.0,12.0,180.0,7.0,0.0
5900,66.0,0.0,180.0,7.0,0.0
5901,82.0,24.0,120.0,5.0,0.0
5902,70.0,0.0,120.0,6.0,0.0
5903,83.0,168.0,120.0,5.0,0.0
5904,71.0,0.0,120.0,6.0,0.0
5905,66.0,0.0,180.0,6.0,0.0
5906,66.0,12.0,180.0,7.0,0.0
5907,59.0,12.0,180.0,10.0,0.0
5908,63.0,0.0,180.0,7.0,0.0
5909,78.0,216.0,180.0,5.0,0.0
5910,59.0,180.0,180.0,10.0,0.0
5911,63.0,12.0,180.0,7.0,0.0
5912,66.0,0.0,180.0,7.0,0.0
5913,42.0,0.0,390.0,12.0,0.0
5914,76.0,48.0,120.0,5.0,0.0
5915,64.0,12.0,180.0,7.0,0.0
5916,66.0,0.0,180.0,7.0,0.0
5917,64.0,0.0,120.0,6.0,0.0
5918,42.0,24.0,390.0,11.0,0.0
5919,61.0,60.0,180.0,10.0,0.0
5920,63.0,120.0,120.0,6.0,0.0
5921,75.0,0.0,120.0,5.0,0.0
5922,73.0,0.0,120.0,5.0,0.0
5923,61.0,24.0,120.0,6.0,0.0
5924,66.0,12.0,180.0,7.0,0.0
5925,64.0,0.0,180.0,7.0,0.0
5926,61.0,60.0,180.0,10.0,0.0
5927,75.0,0.0,120.0,5.0,0.0
5928,63.0,120.0,120.0,6.0,0.0
5929,64.0,0.0,180.0,7.0,0.0
5930,64.0,0.0,120.0,6.0,0.0
5931,76.0,48.0,120.0,5.0,0.0
5932,61.0,60.0,180.0,10.0,0.0
5933,66.0,12.0,180.0,7.0,0.0
5934,66.0,0.0,120.0,6.0,0.0
5935,78.0,120.0,120.0,5.0,0.0
5936,66.0,0.0,180.0,7.0,0.0
5937,64.0,12.0,180.0,7.0,0.0
5938,61.0,60.0,180.0,10.0,0.0
5939,80.0,0.0,120.0,5.0,0.0
5940,68.0,48.0,120.0,6.0,0.0
5941,82.0,120.0,120.0,5.0,0.0
5942,70.0,0.0,120.0,6.0,0.0
5943,63.0,0.0,180.0,7.0,0.0
5944,66.0,12.0,180.0,7.0,0.0
5945,71.0,48.0,120.0,6.0,0.0
5946,47.0,0.0,390.0,11.0,0.0
5947,47.0,24.0,390.0,12.0,0.0
5948,59.0,60.0,180.0,10.0,0.0
5949,83.0,0.0,120.0,5.0,0.0
5950,73.0,120.0,120.0,6.0,0.0
5951,85.0,0.0,120.0,5.0,0.0
5952,87.0,0.0,120.0,5.0,0.0
5953,59.0,60.0,180.0,10.0,0.0
5954,63.0,0.0,180.0,7.0,0.0
5955,66.0,12.0,180.0,7.0,0.0
5956,75.0,24.0,120.0,6.0,0.0
5957,85.0,120.0,120.0,5.0,0.0
5958,73.0,0.0,120.0,6.0,0.0
5959,71.0,0.0,120.0,6.0,0.0
5960,59.0,60.0,180.0,10.0,0.0
5961,83.0,48.0,120.0,5.0,0.0
5962,63.0,12.0,180.0,7.0,0.0
5963,66.0,0.0,180.0,7.0,0.0
5964,70.0,0.0,120.0,6.0,0.0
5965,82.0,120.0,120.0,5.0,0.0
5966,63.0,0.0,180.0,7.0,0.0
5967,66.0,12.0,180.0,7.0,0.0
5968,68.0,0.0,120.0,6.0,0.0
5969,59.0,36.0,180.0,10.0,0.0
5970,80.0,48.0,120.0,5.0,0.0
5971,66.0,0.0,90.0,6.0,0.0
5972,78.0,144.0,90.0,5.0,0.0
5973,42.0,0.0,390.0,12.0,0.0
5974,42.0,24.0,390.0,11.0,0.0
5975,64.0,12.0,180.0,7.0,0.0
5976,76.0,48.0,120.0,5.0,0.0
5977,64.0,0.0,120.0,6.0,0.0
5978,66.0,0.0,180.0,7.0,0.0
5979,61.0,60.0,180.0,10.0,0.0
5980,75.0,120.0,120.0,5.0,0.0
5981,63.0,0.0,120.0,6.0,0.0
5982,66.0,0.0,180.0,7.0,0.0
5983,61.0,24.0,120.0,6.0,0.0
5984,73.0,0.0,120.0,5.0,0.0
5985,61.0,60.0,180.0,10.0,0.0
5986,64.0,12.0,180.0,7.0,0.0
5987,63.0,120.0,120.0,6.0,0.0
5988,75.0,0.0,120.0,5.0,0.0
5989,64.0,0.0,180.0,7.0,0.0
5990,66.0,12.0,180.0,7.0,0.0
5991,61.0,60.0,180.0,10.0,0.0
5992,64.0,48.0,120.0,6.0,0.0
5993,76.0,0.0,120.0,5.0,0.0
5994,66.0,120.0,120.0,6.0,0.0
5995,78.0,0.0,120.0,5.0,0.0
5996,68.0,48.0,120.0,6.0,0.0
5997,66.0,12.0,180.0,7.0,0.0
5998,80.0,0.0,120.0,5.0,0.0
5999,61.0,60.0,180.0,10.0,0.0
6000,64.0,0.0,180.0,7.0,0.0
6001,70.0,0.0,120.0,6.0,0.0
6002,82.0,120.0,120.0,5.0,0.0
6003,35.0,0.0,390.0,12.0,0.0
6004,35.0,24.0,390.0,11.0,0.0
6005,85.0,48.0,120.0,5.0,0.0
6006,63.0,12.0,180.0,7.0,0.0
6007,66.0,0.0,180.0,7.0,0.0
6008,59.0,60.0,180.0,10.0,0.0
6009,73.0,0.0,120.0,6.0,0.0
6010,83.0,120.0,120.0,5.0,0.0
6011,71.0,0.0,120.0,6.0,0.0
6012,70.0,0.0,120.0,6.0,0.0
6013,82.0,24.0,120.0,5.0,0.0
6014,59.0,60.0,180.0,10.0,0.0
6015,63.0,12.0,180.0,7.0,0.0
6016,66.0,0.0,180.0,7.0,0.0
6017,83.0,0.0,120.0,5.0,0.0
6018,71.0,168.0,120.0,6.0,0.0
6019,59.0,12.0,180.0,10.0,0.0
6020,66.0,12.0,180.0,7.0,0.0
6021,63.0,0.0,180.0,7.0,0.0
6022,66.0,0.0,180.0,6.0,0.0
6023,78.0,216.0,180.0,5.0,0.0
6024,59.0,180.0,180.0,10.0,0.0
6025,63.0,12.0,180.0,7.0,0.0
6026,66.0,0.0,180.0,7.0,0.0
6027,76.0,48.0,120.0,5.0,0.0
6028,66.0,0.0,180.0,7.0,0.0
6029,64.0,12.0,180.0,7.0,0.0
6030,42.0,0.0,390.0,11.0,0.0
6031,64.0,0.0,120.0,6.0,0.0
6032,42.0,24.0,390.0,12.0,0.0
6033,61.0,60.0,180.0,10.0,0.0
6034,63.0,120.0,120.0,6.0,0.0
6035,75.0,0.0,120.0,5.0,0.0
6036,64.0,0.0,180.0,7.0,0.0
6037,73.0,24.0,120.0,5.0,0.0
6038,66.0,12.0,180.0,7.0,0.0
6039,61.0,0.0,120.0,6.0,0.0
6040,61.0,60.0,180.0,10.0,0.0
6041,75.0,120.0,120.0,5.0,0.0
6042,63.0,0.0,120.0,6.0,0.0
6043,61.0,60.0,180.0,10.0,0.0
6044,64.0,0.0,180.0,7.0,0.0
6045,66.0,12.0,180.0,7.0,0.0
6046,64.0,0.0,120.0,6.0,0.0
6047,76.0,48.0,120.0,5.0,0.0
6048,66.0,48.0,120.0,6.0,0.0
6049,78.0,0.0,120.0,5.0,0.0
6050,80.0,0.0,120.0,5.0,0.0
6051,64.0,0.0,180.0,7.0,0.0
6052,66.0,12.0,180.0,7.0,0.0
6053,61.0,48.0,180.0,10.0,0.0
6054,68.0,48.0,120.0,6.0,0.0
6055,82.0,132.0,120.0,5.0,0.0
6056,70.0,0.0,120.0,6.0,0.0
6057,66.0,0.0,360.0,7.0,0.0
6058,71.0,0.0,780.0,2.0,0.0
6059,59.0,72.0,780.0,2.0,0.0
6060,47.0,0.0,390.0,4.0,0.0
6061,59.0,0.0,600.0,10.0,0.0
6062,83.0,0.0,600.0,0.0,0.0
6063,83.0,0.0,390.0,3.0,0.0
6064,83.0,120.0,120.0,5.0,0.0
6065,59.0,0.0,600.0,1.0,0.0
6066,63.0,0.0,360.0,7.0,0.0
6067,71.0,72.0,390.0,3.0,0.0
6068,47.0,0.0,600.0,12.0,0.0
6069,71.0,24.0,360.0,6.0,0.0
6070,47.0,120.0,600.0,11.0,0.0
6071,85.0,120.0,120.0,5.0,0.0
6072,87.0,0.0,120.0,5.0,0.0
6073,85.0,144.0,90.0,5.0,0.0
6074,83.0,0.0,120.0,5.0,0.0
6075,71.0,0.0,120.0,7.0,0.0
6076,83.0,0.0,120.0,6.0,0.0
6077,82.0,0.0,120.0,0.0,0.0
6078,82.0,0.0,120.0,6.0,0.0
6079,58.0,0.0,120.0,1.0,0.0
6080,58.0,0.0,120.0,10.0,0.0
6081,70.0,0.0,120.0,7.0,0.0
6082,46.0,0.0,120.0,11.0,0.0
6083,46.0,0.0,120.0,12.0,0.0
6084,82.0,48.0,120.0,5.0,0.0
6085,68.0,0.0,120.0,7.0,0.0
6086,56.0,0.0,120.0,1.0,0.0
6087,44.0,0.0,120.0,11.0,0.0
6088,56.0,0.0,120.0,10.0,0.0
6089,80.0,0.0,120.0,6.0,0.0
6090,44.0,96.0,120.0,12.0,0.0
6091,80.0,0.0,120.0,5.0,0.0
6092,80.0,0.0,120.0,0.0,0.0
6093,43.0,144.0,90.0,11.0,0.0
6094,79.0,0.0,90.0,0.0,0.0
6095,79.0,0.0,90.0,5.0,0.0
6096,67.0,0.0,90.0,7.0,0.0
6097,79.0,0.0,90.0,6.0,0.0
6098,55.0,0.0,90.0,10.0,0.0
6099,43.0,0.0,90.0,12.0,0.0
6100,55.0,0.0,90.0,1.0,0.0
6101,56.0,0.0,600.0,1.0,0.0
6102,44.0,0.0,600.0,12.0,0.0
6103,80.0,0.0,390.0,3.0,0.0
6104,80.0,120.0,120.0,5.0,0.0
6105,44.0,120.0,600.0,11.0,0.0
6106,47.0,0.0,390.0,4.0,0.0
6107,68.0,0.0,600.0,7.0,0.0
6108,56.0,0.0,780.0,2.0,0.0
6109,56.0,0.0,600.0,10.0,0.0
6110,80.0,0.0,120.0,6.0,0.0
6111,80.0,0.0,600.0,0.0,0.0
6112,68.0,72.0,780.0,2.0,0.0
6113,68.0,72.0,390.0,3.0,0.0
6114,82.0,0.0,120.0,6.0,0.0
6115,82.0,120.0,120.0,5.0,0.0
6116,83.0,0.0,120.0,5.0,0.0
6117,83.0,24.0,120.0,6.0,0.0
6118,82.0,0.0,90.0,5.0,0.0
6119,82.0,144.0,90.0,6.0,0.0
6120,80.0,0.0,120.0,5.0,0.0
6121,80.0,0.0,120.0,6.0,0.0
6122,78.0,0.0,120.0,0.0,0.0
6123,54.0,0.0,120.0,10.0,0.0
6124,66.0,0.0,120.0,7.0,0.0
6125,42.0,0.0,120.0,11.0,0.0
6126,54.0,48.0,120.0,1.0,0.0
6127,78.0,0.0,120.0,5.0,0.0
6128,78.0,0.0,120.0,6.0,0.0
6129,42.0,0.0,120.0,12.0,0.0
6130,76.0,0.0,120.0,5.0,0.0
6131,40.0,0.0,120.0,11.0,0.0
6132,76.0,0.0,120.0,0.0,0.0
6133,52.0,0.0,120.0,10.0,0.0
6134,64.0,0.0,120.0,7.0,0.0
6135,40.0,0.0,120.0,12.0,0.0
6136,76.0,96.0,120.0,6.0,0.0
6137,52.0,0.0,120.0,1.0,0.0
6138,75.0,0.0,90.0,0.0,0.0
6139,51.0,0.0,90.0,1.0,0.0
6140,39.0,0.0,90.0,12.0,0.0
6141,75.0,144.0,90.0,5.0,0.0
6142,51.0,0.0,90.0,10.0,0.0
6143,63.0,0.0,90.0,7.0,0.0
6144,39.0,0.0,90.0,11.0,0.0
6145,75.0,0.0,90.0,6.0,0.0
6146,40.0,0.0,480.0,11.0,0.0
6147,52.0,0.0,480.0,1.0,0.0
6148,76.0,0.0,120.0,5.0,0.0
6149,64.0,0.0,600.0,7.0,0.0
6150,76.0,0.0,390.0,3.0,0.0
6151,64.0,72.0,390.0,3.0,0.0
6152,52.0,0.0,780.0,2.0,0.0
6153,64.0,72.0,780.0,2.0,0.0
6154,88.0,0.0,600.0,0.0,0.0
6155,52.0,0.0,600.0,10.0,0.0
6156,76.0,120.0,120.0,6.0,0.0
6157,52.0,0.0,390.0,4.0,0.0
6158,40.0,120.0,480.0,12.0,0.0
6159,78.0,0.0,120.0,6.0,0.0
6160,78.0,120.0,120.0,5.0,0.0
6161,80.0,24.0,120.0,5.0,0.0
6162,80.0,0.0,120.0,6.0,0.0
6163,78.0,0.0,90.0,6.0,0.0
6164,78.0,24.0,90.0,5.0,0.0
6165,64.0,0.0,120.0,1.0,0.0
6166,76.0,0.0,120.0,6.0,0.0
6167,76.0,0.0,120.0,5.0,0.0
6168,52.0,120.0,120.0,11.0,0.0
6169,52.0,0.0,120.0,12.0,0.0
6170,63.0,0.0,120.0,7.0,0.0
6171,51.0,0.0,120.0,12.0,0.0
6172,75.0,0.0,120.0,6.0,0.0
6173,75.0,0.0,120.0,5.0,0.0
6174,51.0,0.0,120.0,10.0,0.0
6175,63.0,0.0,120.0,1.0,0.0
6176,51.0,48.0,120.0,11.0,0.0
6177,87.0,0.0,120.0,0.0,0.0
6178,61.0,96.0,120.0,1.0,0.0
6179,49.0,0.0,120.0,12.0,0.0
6180,61.0,0.0,120.0,7.0,0.0
6181,85.0,0.0,120.0,0.0,0.0
6182,73.0,0.0,120.0,6.0,0.0
6183,73.0,0.0,120.0,5.0,0.0
6184,49.0,0.0,120.0,11.0,0.0
6185,49.0,0.0,120.0,10.0,0.0
6186,48.0,0.0,90.0,11.0,0.0
6187,72.0,0.0,90.0,6.0,0.0
6188,84.0,0.0,90.0,0.0,0.0
6189,48.0,0.0,90.0,10.0,0.0
6190,48.0,0.0,90.0,12.0,0.0
6191,60.0,0.0,90.0,1.0,0.0
6192,72.0,144.0,90.0,5.0,0.0
6193,60.0,0.0,90.0,7.0,0.0
6194,49.0,0.0,600.0,10.0,0.0
6195,49.0,0.0,600.0,11.0,0.0
6196,73.0,0.0,120.0,6.0,0.0
6197,61.0,0.0,600.0,7.0,0.0
6198,61.0,120.0,600.0,1.0,0.0
6199,73.0,120.0,120.0,5.0,0.0
6200,49.0,0.0,600.0,12.0,0.0
6201,85.0,0.0,600.0,0.0,0.0
6202,75.0,120.0,120.0,5.0,0.0
6203,75.0,0.0,120.0,6.0,0.0
6204,76.0,96.0,120.0,6.0,0.0
6205,76.0,0.0,120.0,5.0,0.0
6206,75.0,0.0,90.0,5.0,0.0
6207,75.0,144.0,90.0,6.0,0.0
6208,73.0,0.0,120.0,6.0,0.0
6209,73.0,0.0,120.0,5.0,0.0
6210,47.0,120.0,120.0,11.0,0.0
6211,59.0,0.0,120.0,7.0,0.0
6212,83.0,0.0,120.0,0.0,0.0
6213,47.0,0.0,120.0,10.0,0.0
6214,71.0,0.0,120.0,5.0,0.0
6215,47.0,0.0,120.0,12.0,0.0
6216,71.0,0.0,120.0,6.0,0.0
6217,59.0,0.0,120.0,1.0,0.0
6218,46.0,0.0,120.0,10.0,0.0
6219,70.0,0.0,120.0,6.0,0.0
6220,58.0,0.0,120.0,1.0,0.0
6221,58.0,0.0,120.0,7.0,0.0
6222,46.0,0.0,120.0,12.0,0.0
6223,70.0,96.0,120.0,5.0,0.0
6224,82.0,0.0,120.0,0.0,0.0
6225,46.0,0.0,120.0,11.0,0.0
6226,56.0,0.0,90.0,7.0,0.0
6227,44.0,0.0,90.0,11.0,0.0
6228,44.0,0.0,90.0,10.0,0.0
6229,56.0,0.0,90.0,1.0,0.0
6230,44.0,0.0,90.0,12.0,0.0
6231,68.0,0.0,90.0,5.0,0.0
6232,68.0,192.0,90.0,6.0,0.0
6233,80.0,0.0,90.0,0.0,0.0
6234,78.0,0.0,330.0,0.0,0.0
6235,42.0,0.0,330.0,12.0,0.0
6236,66.0,0.0,180.0,5.0,0.0
6237,54.0,0.0,330.0,10.0,0.0
6238,42.0,0.0,330.0,11.0,0.0
6239,54.0,72.0,330.0,1.0,0.0
6240,66.0,156.0,180.0,6.0,0.0
6241,54.0,12.0,180.0,7.0,0.0
6242,82.0,0.0,240.0,6.0,0.0
6243,82.0,168.0,240.0,5.0,0.0
6244,66.0,72.0,180.0,7.0,0.0
6245,80.0,0.0,330.0,3.0,0.0
6246,83.0,0.0,330.0,0.0,0.0
6247,83.0,0.0,180.0,6.0,0.0
6248,44.0,0.0,330.0,12.0,0.0
6249,56.0,0.0,330.0,1.0,0.0
6250,71.0,0.0,330.0,3.0,0.0
6251,56.0,0.0,330.0,10.0,0.0
6252,75.0,72.0,330.0,0.0,0.0
6253,44.0,0.0,330.0,11.0,0.0
6254,59.0,0.0,330.0,2.0,0.0
6255,68.0,0.0,330.0,2.0,0.0
6256,68.0,12.0,180.0,7.0,0.0
6257,83.0,156.0,180.0,5.0,0.0
6258,68.0,12.0,180.0,7.0,0.0
6259,68.0,0.0,180.0,5.0,0.0
6260,68.0,228.0,180.0,6.0,0.0
6261,85.0,0.0,330.0,0.0,0.0
6262,40.0,0.0,330.0,12.0,0.0
6263,64.0,156.0,180.0,5.0,0.0
6264,64.0,0.0,330.0,2.0,0.0
6265,76.0,0.0,330.0,3.0,0.0
6266,80.0,0.0,330.0,3.0,0.0
6267,52.0,0.0,330.0,10.0,0.0
6268,64.0,0.0,180.0,6.0,0.0
6269,76.0,0.0,330.0,0.0,0.0
6270,68.0,0.0,330.0,2.0,0.0
6271,52.0,72.0,330.0,1.0,0.0
6272,64.0,12.0,180.0,7.0,0.0
6273,40.0,0.0,330.0,11.0,0.0
6274,85.0,228.0,180.0,5.0,0.0
6275,64.0,12.0,180.0,7.0,0.0
6276,85.0,0.0,180.0,6.0,0.0
6277,54.0,0.0,330.0,1.0,0.0
6278,42.0,0.0,330.0,12.0,0.0
6279,66.0,12.0,180.0,7.0,0.0
6280,66.0,0.0,330.0,2.0,0.0
6281,42.0,0.0,330.0,11.0,0.0
6282,66.0,0.0,180.0,5.0,0.0
6283,78.0,0.0,330.0,3.0,0.0
6284,73.0,72.0,330.0,0.0,0.0
6285,82.0,0.0,330.0,0.0,0.0
6286,54.0,0.0,330.0,10.0,0.0
6287,66.0,156.0,180.0,6.0,0.0
6288,66.0,12.0,180.0,7.0,0.0
6289,82.0,252.0,180.0,6.0,0.0
6290,82.0,0.0,180.0,5.0,0.0
6291,47.0,0.0,180.0,11.0,0.0
6292,47.0,0.0,180.0,2.0,0.0
6293,59.0,0.0,180.0,2.0,0.0
6294,71.0,0.0,780.0,0.0,0.0
6295,83.0,144.0,780.0,0.0,0.0
6296,71.0,0.0,2310.0,3.0,0.0
6297,47.0,0.0,180.0,12.0,0.0
6298,83.0,0.0,780.0,5.0,0.0
6299,47.0,48.0,390.0,4.0,0.0
6300,83.0,192.0,180.0,6.0,0.0
6301,59.0,0.0,180.0,10.0,0.0
6302,59.0,0.0,180.0,7.0,0.0
6303,59.0,0.0,180.0,1.0,0.0
6304,47.0,0.0,180.0,2.0,0.0
6305,47.0,0.0,180.0,12.0,0.0
6306,59.0,0.0,180.0,1.0,0.0
6307,59.0,0.0,180.0,10.0,0.0
6308,47.0,0.0,180.0,11.0,0.0
6309,59.0,192.0,180.0,2.0,0.0
6310,59.0,0.0,180.0,7.0,0.0
6311,83.0,48.0,390.0,6.0,0.0
6312,47.0,96.0,180.0,11.0,0.0
6313,59.0,0.0,180.0,1.0,0.0
6314,59.0,0.0,180.0,2.0,0.0
6315,47.0,0.0,180.0,12.0,0.0
6316,59.0,0.0,180.0,10.0,0.0
6317,59.0,0.0,180.0,7.0,0.0
6318,47.0,0.0,180.0,2.0,0.0
6319,59.0,0.0,180.0,2.0,0.0
6320,59.0,0.0,180.0,10.0,0.0
6321,59.0,0.0,180.0,7.0,0.0
6322,59.0,0.0,180.0,1.0,0.0
6323,47.0,0.0,180.0,12.0,0.0
6324,47.0,0.0,180.0,11.0,0.0
6325,47.0,240.0,180.0,2.0,0.0
6326,83.0,0.0,420.0,6.0,0.0
6327,47.0,0.0,180.0,2.0,0.0
6328,76.0,192.0,720.0,0.0,0.0
6329,59.0,0.0,180.0,2.0,0.0
6330,47.0,48.0,390.0,4.0,0.0
6331,68.0,0.0,180.0,10.0,0.0
6332,56.0,0.0,180.0,12.0,0.0
6333,68.0,0.0,180.0,1.0,0.0
6334,68.0,192.0,180.0,7.0,0.0
6335,88.0,0.0,720.0,5.0,0.0
6336,56.0,0.0,180.0,11.0,0.0
6337,56.0,0.0,180.0,12.0,0.0
6338,83.0,48.0,390.0,6.0,0.0
6339,56.0,192.0,180.0,11.0,0.0
6340,68.0,0.0,180.0,10.0,0.0
6341,59.0,0.0,180.0,2.0,0.0
6342,68.0,0.0,180.0,1.0,0.0
6343,47.0,0.0,180.0,2.0,0.0
6344,68.0,0.0,180.0,7.0,0.0
6345,47.0,0.0,180.0,2.0,0.0
6346,56.0,0.0,180.0,12.0,0.0
6347,68.0,0.0,180.0,7.0,0.0
6348,68.0,0.0,180.0,1.0,0.0
6349,56.0,48.0,180.0,11.0,0.0
6350,68.0,0.0,180.0,10.0,0.0
6351,59.0,0.0,180.0,2.0,0.0
6352,59.0,0.0,180.0,2.0,0.0
6353,47.0,0.0,180.0,2.0,0.0
6354,54.0,0.0,180.0,12.0,0.0
6355,83.0,48.0,420.0,6.0,0.0
6356,75.0,0.0,180.0,0.0,0.0
6357,87.0,0.0,180.0,5.0,0.0
6358,54.0,0.0,180.0,11.0,0.0
6359,66.0,108.0,180.0,7.0,0.0
6360,66.0,0.0,180.0,1.0,0.0
6361,66.0,0.0,180.0,10.0,0.0
6362,87.0,132.0,60.0,5.0,0.0
6363,75.0,0.0,60.0,0.0,0.0
6364,52.0,0.0,180.0,12.0,0.0
6365,64.0,0.0,180.0,10.0,0.0
6366,64.0,0.0,180.0,7.0,0.0
6367,52.0,0.0,180.0,11.0,0.0
6368,47.0,48.0,390.0,4.0,0.0
6369,64.0,0.0,180.0,1.0,0.0
6370,47.0,0.0,180.0,2.0,0.0
6371,59.0,0.0,180.0,2.0,0.0
6372,85.0,0.0,180.0,5.0,0.0
6373,73.0,144.0,180.0,0.0,0.0
6374,84.0,0.0,180.0,5.0,0.0
6375,59.0,0.0,180.0,2.0,0.0
6376,51.0,0.0,180.0,12.0,0.0
6377,63.0,108.0,180.0,10.0,0.0
6378,63.0,0.0,180.0,1.0,0.0
6379,51.0,0.0,180.0,11.0,0.0
6380,72.0,0.0,180.0,0.0,0.0
6381,63.0,0.0,180.0,7.0,0.0
6382,83.0,48.0,390.0,6.0,0.0
6383,47.0,0.0,180.0,2.0,0.0
6384,64.0,48.0,180.0,10.0,0.0
6385,47.0,48.0,390.0,4.0,0.0
6386,64.0,0.0,180.0,7.0,0.0
6387,52.0,0.0,180.0,11.0,0.0
6388,75.0,84.0,60.0,0.0,0.0
6389,52.0,0.0,180.0,12.0,0.0
6390,59.0,0.0,180.0,2.0,0.0
6391,47.0,0.0,180.0,2.0,0.0
6392,64.0,0.0,180.0,1.0,0.0
6393,71.0,0.0,390.0,3.0,0.0
6394,87.0,0.0,60.0,5.0,0.0
6395,73.0,144.0,180.0,0.0,0.0
6396,85.0,0.0,180.0,5.0,0.0
6397,63.0,0.0,180.0,7.0,0.0
6398,63.0,0.0,180.0,10.0,0.0
6399,84.0,240.0,180.0,5.0,0.0
6400,51.0,0.0,180.0,11.0,0.0
6401,72.0,0.0,180.0,0.0,0.0
6402,63.0,0.0,180.0,1.0,0.0
6403,83.0,0.0,420.0,6.0,0.0
6404,47.0,0.0,180.0,2.0,0.0
6405,59.0,0.0,180.0,2.0,0.0
6406,51.0,0.0,180.0,12.0,0.0
6407,64.0,0.0,180.0,10.0,0.0
6408,52.0,0.0,180.0,11.0,0.0
6409,64.0,0.0,180.0,7.0,0.0
6410,52.0,192.0,180.0,12.0,0.0
6411,71.0,0.0,390.0,3.0,0.0
6412,85.0,192.0,720.0,5.0,0.0
6413,64.0,0.0,180.0,1.0,0.0
6414,47.0,48.0,390.0,4.0,0.0
6415,59.0,0.0,180.0,2.0,0.0
6416,73.0,0.0,720.0,0.0,0.0
6417,47.0,0.0,180.0,2.0,0.0
6418,64.0,0.0,180.0,10.0,0.0
6419,83.0,48.0,390.0,6.0,0.0
6420,59.0,0.0,180.0,2.0,0.0
6421,47.0,0.0,180.0,2.0,0.0
6422,52.0,0.0,180.0,11.0,0.0
6423,64.0,192.0,180.0,7.0,0.0
6424,52.0,0.0,180.0,12.0,0.0
6425,64.0,0.0,180.0,1.0,0.0
6426,64.0,0.0,180.0,10.0,0.0
6427,64.0,0.0,180.0,1.0,0.0
6428,64.0,0.0,180.0,7.0,0.0
6429,52.0,0.0,180.0,11.0,0.0
6430,47.0,0.0,180.0,2.0,0.0
6431,52.0,0.0,180.0,12.0,0.0
6432,59.0,48.0,180.0,2.0,0.0
6433,54.0,0.0,180.0,12.0,0.0
6434,83.0,0.0,420.0,6.0,0.0
6435,47.0,108.0,180.0,2.0,0.0
6436,59.0,0.0,180.0,2.0,0.0
6437,66.0,0.0,180.0,1.0,0.0
6438,75.0,0.0,180.0,0.0,0.0
6439,66.0,0.0,180.0,10.0,0.0
6440,66.0,0.0,180.0,7.0,0.0
6441,54.0,0.0,180.0,11.0,0.0
6442,87.0,0.0,180.0,5.0,0.0
6443,68.0,0.0,180.0,10.0,0.0
6444,56.0,0.0,180.0,11.0,0.0
6445,68.0,0.0,180.0,1.0,0.0
6446,71.0,0.0,390.0,3.0,0.0
6447,68.0,48.0,180.0,7.0,0.0
6448,47.0,48.0,390.0,4.0,0.0
6449,56.0,0.0,180.0,12.0,0.0
6450,78.0,0.0,60.0,0.0,0.0
6451,90.0,132.0,60.0,5.0,0.0
6452,59.0,0.0,180.0,2.0,0.0
6453,47.0,0.0,180.0,2.0,0.0
6454,88.0,0.0,180.0,5.0,0.0
6455,76.0,144.0,180.0,0.0,0.0
6456,55.0,0.0,180.0,11.0,0.0
6457,67.0,0.0,180.0,1.0,0.0
6458,59.0,0.0,180.0,2.0,0.0
6459,87.0,108.0,180.0,5.0,0.0
6460,47.0,0.0,180.0,2.0,0.0
6461,75.0,0.0,180.0,0.0,0.0
6462,67.0,0.0,180.0,7.0,0.0
6463,55.0,0.0,180.0,12.0,0.0
6464,67.0,0.0,180.0,10.0,0.0
6465,83.0,48.0,390.0,6.0,0.0
6466,90.0,0.0,60.0,5.0,0.0
6467,56.0,0.0,180.0,12.0,0.0
6468,47.0,0.0,180.0,2.0,0.0
6469,59.0,48.0,180.0,2.0,0.0
6470,68.0,0.0,180.0,10.0,0.0
6471,71.0,48.0,390.0,3.0,0.0
6472,47.0,0.0,390.0,4.0,0.0
6473,78.0,84.0,60.0,0.0,0.0
6474,68.0,0.0,180.0,1.0,0.0
6475,56.0,0.0,180.0,11.0,0.0
6476,68.0,0.0,180.0,7.0,0.0
6477,76.0,144.0,180.0,0.0,0.0
6478,88.0,0.0,180.0,5.0,0.0
6479,67.0,0.0,180.0,1.0,0.0
6480,67.0,0.0,180.0,10.0,0.0
6481,87.0,0.0,180.0,5.0,0.0
6482,55.0,0.0,180.0,11.0,0.0
6483,67.0,0.0,180.0,7.0,0.0
6484,83.0,0.0,420.0,6.0,0.0
6485,55.0,0.0,180.0,12.0,0.0
6486,59.0,0.0,180.0,2.0,0.0
6487,47.0,240.0,180.0,2.0,0.0
6488,75.0,0.0,180.0,0.0,0.0
6489,68.0,0.0,180.0,10.0,0.0
6490,68.0,0.0,180.0,1.0,0.0
6491,68.0,192.0,180.0,7.0,0.0
6492,71.0,48.0,390.0,3.0,0.0
6493,88.0,192.0,720.0,5.0,0.0
6494,56.0,0.0,180.0,12.0,0.0
6495,76.0,0.0,720.0,0.0,0.0
6496,56.0,0.0,180.0,11.0,0.0
6497,59.0,0.0,180.0,2.0,0.0
6498,47.0,0.0,390.0,4.0,0.0
6499,47.0,0.0,180.0,2.0,0.0
6500,56.0,0.0,180.0,12.0,0.0
6501,47.0,0.0,180.0,2.0,0.0
6502,56.0,0.0,180.0,11.0,0.0
6503,83.0,48.0,390.0,6.0,0.0
6504,59.0,0.0,180.0,2.0,0.0
6505,68.0,0.0,180.0,7.0,0.0
6506,68.0,0.0,180.0,1.0,0.0
6507,68.0,192.0,180.0,10.0,0.0
6508,56.0,48.0,180.0,12.0,0.0
6509,59.0,0.0,180.0,2.0,0.0
6510,47.0,0.0,180.0,2.0,0.0
6511,68.0,0.0,180.0,10.0,0.0
6512,56.0,0.0,180.0,11.0,0.0
6513,68.0,0.0,180.0,7.0,0.0
6514,68.0,0.0,180.0,1.0,0.0
6515,68.0,0.0,180.0,10.0,0.0
6516,56.0,108.0,180.0,12.0,0.0
6517,77.0,0.0,180.0,0.0,0.0
6518,68.0,0.0,180.0,7.0,0.0
6519,68.0,0.0,180.0,1.0,0.0
6520,59.0,0.0,180.0,2.0,0.0
6521,89.0,0.0,180.0,5.0,0.0
6522,83.0,0.0,420.0,6.0,0.0
6523,56.0,0.0,180.0,11.0,0.0
6524,47.0,0.0,180.0,2.0,0.0
6525,47.0,0.0,390.0,4.0,0.0
6526,63.0,0.0,180.0,7.0,0.0
6527,47.0,0.0,180.0,2.0,0.0
6528,63.0,0.0,180.0,1.0,0.0
6529,51.0,0.0,180.0,12.0,0.0
6530,92.0,0.0,60.0,5.0,0.0
6531,51.0,0.0,180.0,11.0,0.0
6532,71.0,48.0,390.0,3.0,0.0
6533,80.0,132.0,60.0,0.0,0.0
6534,63.0,48.0,180.0,10.0,0.0
6535,59.0,0.0,180.0,2.0,0.0
6536,90.0,0.0,180.0,5.0,0.0
6537,78.0,144.0,180.0,0.0,0.0
6538,50.0,108.0,180.0,12.0,0.0
6539,62.0,0.0,180.0,1.0,0.0
6540,50.0,0.0,180.0,11.0,0.0
6541,89.0,0.0,180.0,5.0,0.0
6542,47.0,0.0,180.0,2.0,0.0
6543,62.0,0.0,180.0,7.0,0.0
6544,59.0,0.0,180.0,2.0,0.0
6545,83.0,48.0,390.0,6.0,0.0
6546,77.0,0.0,180.0,0.0,0.0
6547,62.0,0.0,180.0,10.0,0.0
6548,92.0,0.0,60.0,5.0,0.0
6549,63.0,48.0,180.0,7.0,0.0
6550,47.0,0.0,390.0,4.0,0.0
6551,71.0,48.0,390.0,3.0,0.0
6552,59.0,0.0,180.0,2.0,0.0
6553,63.0,0.0,180.0,10.0,0.0
6554,47.0,0.0,180.0,2.0,0.0
6555,51.0,0.0,180.0,11.0,0.0
6556,63.0,0.0,180.0,1.0,0.0
6557,51.0,0.0,180.0,12.0,0.0
6558,80.0,84.0,60.0,0.0,0.0
6559,78.0,144.0,180.0,0.0,0.0
6560,90.0,0.0,180.0,5.0,0.0
6561,47.0,0.0,180.0,2.0,0.0
6562,62.0,0.0,180.0,10.0,0.0
6563,50.0,0.0,180.0,11.0,0.0
6564,89.0,240.0,180.0,5.0,0.0
6565,59.0,0.0,180.0,2.0,0.0
6566,62.0,0.0,180.0,7.0,0.0
6567,77.0,0.0,180.0,0.0,0.0
6568,83.0,0.0,420.0,6.0,0.0
6569,50.0,0.0,180.0,12.0,0.0
6570,62.0,0.0,180.0,1.0,0.0
6571,71.0,0.0,390.0,3.0,0.0
6572,51.0,0.0,180.0,12.0,0.0
6573,47.0,48.0,390.0,4.0,0.0
6574,63.0,0.0,180.0,7.0,0.0
6575,78.0,72.0,840.0,0.0,0.0
6576,63.0,0.0,180.0,1.0,0.0
6577,47.0,24.0,360.0,2.0,0.0
6578,90.0,120.0,720.0,5.0,0.0
6579,63.0,168.0,180.0,10.0,0.0
6580,59.0,0.0,360.0,2.0,0.0
6581,51.0,0.0,180.0,11.0,0.0
6582,51.0,0.0,180.0,12.0,0.0
6583,83.0,48.0,390.0,6.0,0.0
6584,63.0,0.0,180.0,1.0,0.0
6585,63.0,0.0,180.0,7.0,0.0
6586,63.0,0.0,180.0,10.0,0.0
6587,51.0,192.0,180.0,11.0,0.0
6588,63.0,0.0,180.0,7.0,0.0
6589,51.0,0.0,180.0,12.0,0.0
6590,83.0,0.0,360.0,0.0,0.0
6591,51.0,0.0,180.0,11.0,0.0
6592,59.0,0.0,360.0,2.0,0.0
6593,63.0,48.0,180.0,1.0,0.0
6594,63.0,0.0,180.0,10.0,0.0
6595,66.0,0.0,360.0,2.0,0.0
6596,83.0,24.0,180.0,6.0,0.0
6597,63.0,0.0,180.0,10.0,0.0
6598,51.0,0.0,180.0,12.0,0.0
6599,66.0,0.0,180.0,7.0,0.0
6600,51.0,0.0,180.0,11.0,0.0
6601,88.0,0.0,120.0,5.0,0.0
6602,63.0,0.0,180.0,1.0,0.0
6603,87.0,216.0,90.0,5.0,0.0
6604,52.0,240.0,180.0,11.0,0.0
6605,64.0,0.0,180.0,1.0,0.0
6606,85.0,0.0,780.0,0.0,0.0
6607,85.0,48.0,720.0,6.0,0.0
6608,80.0,0.0,780.0,3.0,0.0
6609,76.0,0.0,780.0,3.0,0.0
6610,85.0,0.0,720.0,5.0,0.0
6611,52.0,0.0,180.0,12.0,0.0
6612,80.0,0.0,780.0,0.0,0.0
6613,68.0,0.0,780.0,2.0,0.0
6614,64.0,0.0,180.0,10.0,0.0
6615,64.0,72.0,780.0,2.0,0.0
6616,68.0,0.0,180.0,7.0,0.0
6617,52.0,0.0,180.0,12.0,0.0
6618,52.0,0.0,180.0,11.0,0.0
6619,64.0,240.0,180.0,1.0,0.0
6620,64.0,0.0,180.0,10.0,0.0
6621,68.0,0.0,180.0,7.0,0.0
6622,52.0,0.0,180.0,12.0,0.0
6623,68.0,0.0,180.0,7.0,0.0
6624,52.0,48.0,180.0,11.0,0.0
6625,64.0,0.0,180.0,10.0,0.0
6626,64.0,0.0,180.0,1.0,0.0
6627,64.0,0.0,180.0,1.0,0.0
6628,68.0,0.0,180.0,7.0,0.0
6629,64.0,24.0,180.0,10.0,0.0
6630,87.0,0.0,120.0,6.0,0.0
6631,52.0,0.0,180.0,12.0,0.0
6632,87.0,72.0,120.0,5.0,0.0
6633,52.0,0.0,180.0,11.0,0.0
6634,88.0,216.0,90.0,5.0,0.0
6635,88.0,0.0,90.0,6.0,0.0
6636,73.0,48.0,780.0,0.0,0.0
6637,82.0,0.0,780.0,0.0,0.0
6638,70.0,96.0,570.0,7.0,0.0
6639,66.0,0.0,180.0,10.0,0.0
6640,78.0,48.0,720.0,6.0,0.0
6641,54.0,0.0,180.0,11.0,0.0
6642,66.0,0.0,780.0,2.0,0.0
6643,78.0,0.0,720.0,5.0,0.0
6644,66.0,240.0,180.0,1.0,0.0
6645,54.0,0.0,180.0,12.0,0.0
6646,78.0,0.0,780.0,3.0,0.0
6647,66.0,0.0,180.0,10.0,0.0
6648,54.0,0.0,180.0,12.0,0.0
6649,66.0,0.0,180.0,1.0,0.0
6650,54.0,144.0,180.0,11.0,0.0
6651,54.0,0.0,180.0,12.0,0.0
6652,66.0,0.0,180.0,1.0,0.0
6653,54.0,48.0,180.0,11.0,0.0
6654,66.0,0.0,180.0,10.0,0.0
6655,54.0,0.0,180.0,12.0,0.0
6656,66.0,0.0,180.0,10.0,0.0
6657,71.0,24.0,90.0,7.0,0.0
6658,80.0,0.0,120.0,5.0,0.0
6659,66.0,0.0,180.0,1.0,0.0
6660,54.0,24.0,180.0,11.0,0.0
6661,80.0,72.0,120.0,6.0,0.0
6662,82.0,0.0,90.0,6.0,0.0
6663,82.0,0.0,90.0,5.0,0.0
6664,73.0,336.0,90.0,7.0,0.0
6665,47.0,0.0,390.0,4.0,0.0
6666,83.0,0.0,300.0,6.0,0.0
6667,66.0,0.0,300.0,2.0,0.0
6668,59.0,0.0,300.0,2.0,0.0
6669,71.0,0.0,300.0,3.0,0.0
6670,83.0,0.0,300.0,0.0,0.0
6671,59.0,0.0,300.0,1.0,0.0
6672,78.0,0.0,300.0,3.0,0.0
6673,75.0,72.0,300.0,0.0,0.0
6674,83.0,0.0,300.0,5.0,0.0
6675,47.0,0.0,390.0,12.0,0.0
6676,75.0,0.0,390.0,7.0,0.0
6677,59.0,0.0,390.0,10.0,0.0
6678,47.0,216.0,390.0,11.0,0.0
6679,83.0,114.0,120.0,6.0,0.0
6680,83.0,0.0,120.0,5.0,0.0
6681,71.0,6.0,240.0,0.0,0.0
6682,78.0,120.0,120.0,5.0,0.0
6683,78.0,0.0,120.0,6.0,0.0
6684,75.0,0.0,120.0,6.0,0.0
6685,75.0,78.0,120.0,5.0,0.0
6686,71.0,18.0,90.0,0.0,0.0
6687,71.0,0.0,90.0,6.0,0.0
6688,71.0,336.0,90.0,5.0,0.0
6689,66.0,0.0,300.0,5.0,0.0
6690,66.0,0.0,300.0,0.0,0.0
6691,66.0,480.0,300.0,2.0,0.0
6692,66.0,0.0,300.0,6.0,0.0
6693,54.0,0.0,300.0,1.0,0.0
6694,78.0,0.0,300.0,3.0,0.0
6695,66.0,408.0,390.0,7.0,0.0
6696,42.0,0.0,390.0,11.0,0.0
6697,73.0,0.0,300.0,6.0,0.0
6698,42.0,0.0,390.0,12.0,0.0
6699,66.0,0.0,300.0,6.0,0.0
6700,85.0,0.0,300.0,0.0,0.0
6701,82.0,0.0,300.0,0.0,0.0
6702,66.0,0.0,300.0,2.0,0.0
6703,82.0,0.0,300.0,6.0,0.0
6704,78.0,0.0,300.0,5.0,0.0
6705,54.0,0.0,390.0,10.0,0.0
6706,66.0,0.0,300.0,5.0,0.0
6707,85.0,72.0,300.0,5.0,0.0
6708,87.0,0.0,300.0,5.0,0.0
6709,47.0,0.0,390.0,4.0,0.0
6710,78.0,72.0,300.0,5.0,0.0
6711,66.0,0.0,300.0,5.0,0.0
6712,83.0,0.0,300.0,0.0,0.0
6713,87.0,0.0,300.0,0.0,0.0
6714,71.0,0.0,300.0,3.0,0.0
6715,78.0,0.0,300.0,3.0,0.0
6716,71.0,0.0,390.0,7.0,0.0
6717,47.0,216.0,390.0,12.0,0.0
6718,66.0,0.0,300.0,2.0,0.0
6719,47.0,0.0,390.0,11.0,0.0
6720,59.0,0.0,300.0,2.0,0.0
6721,66.0,0.0,300.0,6.0,0.0
6722,75.0,0.0,300.0,6.0,0.0
6723,83.0,0.0,300.0,6.0,0.0
6724,59.0,0.0,300.0,1.0,0.0
6725,59.0,0.0,390.0,10.0,0.0
6726,83.0,0.0,120.0,6.0,0.0
6727,71.0,6.0,240.0,0.0,0.0
6728,83.0,114.0,120.0,5.0,0.0
6729,78.0,0.0,120.0,6.0,0.0
6730,78.0,120.0,120.0,5.0,0.0
6731,75.0,78.0,120.0,6.0,0.0
6732,75.0,0.0,120.0,5.0,0.0
6733,71.0,18.0,90.0,0.0,0.0
6734,71.0,0.0,90.0,6.0,0.0
6735,71.0,336.0,90.0,5.0,0.0
6736,66.0,0.0,300.0,6.0,0.0
6737,66.0,0.0,300.0,0.0,0.0
6738,66.0,0.0,300.0,2.0,0.0
6739,66.0,480.0,300.0,5.0,0.0
6740,42.0,0.0,300.0,12.0,0.0
6741,54.0,0.0,300.0,1.0,0.0
6742,42.0,0.0,300.0,11.0,0.0
6743,66.0,0.0,300.0,6.0,0.0
6744,82.0,0.0,300.0,0.0,0.0
6745,66.0,0.0,300.0,2.0,0.0
6746,66.0,0.0,300.0,7.0,0.0
6747,76.0,0.0,300.0,0.0,0.0
6748,54.0,0.0,300.0,10.0,0.0
6749,73.0,0.0,300.0,5.0,0.0
6750,82.0,0.0,300.0,5.0,0.0
6751,78.0,324.0,300.0,3.0,0.0
6752,66.0,0.0,300.0,5.0,0.0
6753,76.0,0.0,300.0,6.0,0.0
6754,59.0,0.0,150.0,10.0,0.0
6755,66.0,0.0,150.0,2.0,0.0
6756,59.0,0.0,150.0,2.0,0.0
6757,66.0,0.0,150.0,6.0,0.0
6758,75.0,0.0,150.0,5.0,0.0
6759,83.0,0.0,150.0,5.0,0.0
6760,75.0,0.0,150.0,6.0,0.0
6761,66.0,0.0,150.0,5.0,0.0
6762,47.0,0.0,150.0,12.0,0.0
6763,75.0,0.0,150.0,0.0,0.0
6764,83.0,0.0,150.0,0.0,0.0
6765,47.0,12.0,390.0,4.0,0.0
6766,71.0,0.0,150.0,3.0,0.0
6767,71.0,228.0,150.0,7.0,0.0
6768,59.0,0.0,150.0,1.0,0.0
6769,47.0,0.0,150.0,11.0,0.0
6770,71.0,0.0,150.0,3.0,0.0
6771,59.0,0.0,150.0,7.0,0.0
6772,47.0,0.0,150.0,1.0,0.0
6773,47.0,0.0,150.0,10.0,0.0
6774,59.0,0.0,150.0,5.0,0.0
6775,71.0,0.0,150.0,0.0,0.0
6776,59.0,0.0,150.0,2.0,0.0
6777,47.0,0.0,150.0,2.0,0.0
6778,35.0,240.0,150.0,11.0,0.0
6779,59.0,0.0,150.0,6.0,0.0
6780,71.0,0.0,150.0,6.0,0.0
6781,71.0,0.0,150.0,5.0,0.0
6782,35.0,0.0,150.0,12.0,0.0
6783,59.0,0.0,150.0,5.0,0.0
6784,71.0,0.0,150.0,5.0,0.0
6785,59.0,0.0,150.0,6.0,0.0
6786,71.0,0.0,150.0,6.0,0.0
6787,47.0,0.0,150.0,2.0,0.0
6788,59.0,0.0,150.0,2.0,0.0
6789,59.0,0.0,150.0,7.0,0.0
6790,35.0,0.0,150.0,11.0,0.0
6791,35.0,0.0,150.0,12.0,0.0
6792,71.0,228.0,150.0,0.0,0.0
6793,47.0,0.0,150.0,10.0,0.0
6794,47.0,0.0,150.0,1.0,0.0
6795,47.0,12.0,390.0,4.0,0.0
6796,71.0,0.0,150.0,3.0,0.0
6797,47.0,468.0,150.0,2.0,0.0
6798,59.0,0.0,150.0,2.0,0.0
6799,71.0,0.0,150.0,3.0,0.0
6800,35.0,0.0,150.0,11.0,0.0
6801,35.0,0.0,150.0,12.0,0.0
6802,71.0,0.0,150.0,0.0,0.0
6803,47.0,0.0,150.0,10.0,0.0
6804,59.0,0.0,150.0,5.0,0.0
6805,71.0,0.0,150.0,5.0,0.0
6806,59.0,0.0,150.0,7.0,0.0
6807,59.0,0.0,150.0,6.0,0.0
6808,71.0,0.0,150.0,6.0,0.0
6809,47.0,0.0,150.0,1.0,0.0
6810,59.0,0.0,390.0,7.0,0.0
6811,47.0,1344.0,390.0,1.0,0.0
6812,47.0,0.0,390.0,2.0,0.0
6813,71.0,0.0,390.0,5.0,0.0
6814,47.0,0.0,390.0,4.0,0.0
6815,35.0,0.0,390.0,11.0,0.0
6816,47.0,0.0,390.0,10.0,0.0
6817,59.0,0.0,390.0,5.0,0.0
6818,59.0,0.0,390.0,2.0,0.0
6819,71.0,0.0,390.0,3.0,0.0
6820,35.0,0.0,390.0,12.0,0.0
6821,71.0,0.0,390.0,0.0,0.0
6822,71.0,0.0,390.0,6.0,0.0
6823,59.0,0.0,390.0,6.0,0.0
6824,83.0,768.0,780.0,5.0,0.0
6825,87.0,300.0,570.0,5.0,0.0
6826,78.0,240.0,150.0,5.0,0.0
6827,83.0,240.0,150.0,5.0,0.0
6828,75.0,240.0,150.0,5.0,0.0
6829,78.0,240.0,150.0,5.0,0.0
6830,71.0,240.0,150.0,5.0,0.0
6831,75.0,240.0,150.0,5.0,0.0
6832,66.0,240.0,150.0,5.0,0.0
6833,71.0,240.0,150.0,5.0,0.0
6834,59.0,1044.0,150.0,5.0,0.0
6835,69.0,240.0,1440.0,5.0,0.0
6836,66.0,0.0,1440.0,6.0,0.0
6837,63.0,96.0,1350.0,7.0,0.0
6838,47.0,0.0,480.0,12.0,0.0
6839,59.0,384.0,480.0,10.0,0.0
6840,47.0,0.0,480.0,11.0,0.0
6841,60.0,0.0,480.0,10.0,0.0
6842,48.0,0.0,480.0,11.0,0.0
6843,48.0,0.0,480.0,12.0,0.0
6844,64.0,0.0,390.0,6.0,0.0
6845,58.0,0.0,390.0,10.0,0.0
6846,46.0,48.0,390.0,11.0,0.0
6847,46.0,0.0,390.0,12.0,0.0
6848,64.0,144.0,240.0,7.0,0.0
6849,67.0,0.0,390.0,5.0,0.0
6850,61.0,108.0,180.0,7.0,0.0
6851,69.0,0.0,60.0,5.0,0.0
6852,66.0,60.0,60.0,6.0,0.0
6853,59.0,24.0,150.0,10.0,0.0
6854,59.0,0.0,150.0,7.0,0.0
6855,47.0,0.0,150.0,11.0,0.0
6856,47.0,0.0,150.0,12.0,0.0
6857,64.0,36.0,60.0,6.0,0.0
6858,67.0,0.0,60.0,5.0,0.0
6859,66.0,60.0,60.0,6.0,0.0
6860,69.0,0.0,60.0,5.0,0.0
6861,67.0,156.0,60.0,5.0,0.0
6862,64.0,0.0,60.0,6.0,0.0
6863,66.0,0.0,150.0,5.0,0.0
6864,47.0,240.0,150.0,12.0,0.0
6865,63.0,0.0,150.0,6.0,0.0
6866,59.0,0.0,150.0,7.0,0.0
6867,47.0,0.0,150.0,11.0,0.0
6868,59.0,0.0,150.0,10.0,0.0
6869,47.0,0.0,150.0,12.0,0.0
6870,59.0,0.0,150.0,7.0,0.0
6871,47.0,0.0,150.0,11.0,0.0
6872,63.0,240.0,150.0,6.0,0.0
6873,59.0,0.0,150.0,10.0,0.0
6874,66.0,0.0,150.0,5.0,0.0
6875,47.0,0.0,150.0,12.0,0.0
6876,47.0,0.0,150.0,11.0,0.0
6877,59.0,0.0,150.0,7.0,0.0
6878,63.0,468.0,150.0,6.0,0.0
6879,66.0,0.0,150.0,5.0,0.0
6880,59.0,0.0,150.0,10.0,0.0
6881,47.0,1344.0,390.0,12.0,0.0
6882,59.0,0.0,390.0,7.0,0.0
6883,66.0,0.0,390.0,5.0,0.0
6884,59.0,0.0,390.0,10.0,0.0
6885,63.0,0.0,390.0,6.0,0.0
6886,47.0,0.0,390.0,11.0,0.0
6887,83.0,768.0,780.0,5.0,0.0
6888,87.0,300.0,570.0,5.0,0.0
6889,78.0,240.0,150.0,5.0,0.0
6890,83.0,240.0,150.0,5.0,0.0
6891,75.0,240.0,150.0,5.0,0.0
6892,78.0,240.0,150.0,5.0,0.0
6893,71.0,240.0,150.0,5.0,0.0
6894,75.0,240.0,150.0,5.0,0.0
6895,66.0,240.0,150.0,5.0,0.0
6896,71.0,240.0,150.0,5.0,0.0
6897,59.0,1044.0,150.0,5.0,0.0
6898,63.0,0.0,1440.0,6.0,0.0
6899,60.0,96.0,1350.0,7.0,0.0
6900,66.0,0.0,1440.0,5.0,0.0
6901,44.0,0.0,480.0,12.0,0.0
6902,56.0,0.0,480.0,10.0,0.0
6903,44.0,384.0,480.0,11.0,0.0
6904,45.0,192.0,480.0,12.0,0.0
6905,45.0,0.0,480.0,11.0,0.0
6906,57.0,0.0,480.0,10.0,0.0
6907,43.0,0.0,390.0,11.0,0.0
6908,64.0,0.0,390.0,5.0,0.0
6909,55.0,0.0,390.0,10.0,0.0
6910,43.0,0.0,390.0,12.0,0.0
6911,61.0,192.0,180.0,7.0,0.0
6912,61.0,48.0,390.0,6.0,0.0
6913,58.0,108.0,180.0,7.0,0.0
6914,44.0,0.0,150.0,11.0,0.0
6915,66.0,60.0,60.0,5.0,0.0
6916,56.0,0.0,150.0,7.0,0.0
6917,56.0,0.0,150.0,10.0,0.0
6918,44.0,24.0,150.0,12.0,0.0
6919,63.0,0.0,60.0,6.0,0.0
6920,64.0,0.0,60.0,5.0,0.0
6921,61.0,36.0,60.0,6.0,0.0
6922,66.0,0.0,60.0,5.0,0.0
6923,63.0,60.0,60.0,6.0,0.0
6924,64.0,0.0,60.0,5.0,0.0
6925,61.0,144.0,60.0,6.0,0.0
6926,44.0,0.0,150.0,11.0,0.0
6927,44.0,228.0,150.0,12.0,0.0
6928,63.0,12.0,150.0,5.0,0.0
6929,60.0,0.0,150.0,6.0,0.0
6930,56.0,0.0,150.0,7.0,0.0
6931,56.0,0.0,150.0,10.0,0.0
6932,44.0,0.0,150.0,11.0,0.0
6933,60.0,12.0,150.0,6.0,0.0
6934,56.0,0.0,150.0,10.0,0.0
6935,63.0,0.0,150.0,5.0,0.0
6936,44.0,0.0,150.0,12.0,0.0
6937,56.0,228.0,150.0,7.0,0.0
6938,60.0,0.0,150.0,6.0,0.0
6939,44.0,468.0,150.0,11.0,0.0
6940,56.0,0.0,150.0,7.0,0.0
6941,56.0,0.0,150.0,10.0,0.0
6942,63.0,12.0,150.0,5.0,0.0
6943,44.0,0.0,150.0,12.0,0.0
6944,44.0,672.0,390.0,11.0,0.0
6945,63.0,0.0,390.0,5.0,0.0
6946,56.0,0.0,390.0,10.0,0.0
6947,60.0,0.0,390.0,6.0,0.0
6948,44.0,0.0,390.0,12.0,0.0
6949,56.0,0.0,390.0,7.0,0.0
6950,73.0,0.0,90.0,6.0,0.0
6951,68.0,0.0,90.0,6.0,0.0
6952,64.0,0.0,90.0,7.0,0.0
6953,61.0,120.0,90.0,7.0,0.0
6954,85.0,48.0,780.0,5.0,0.0
6955,64.0,0.0,3660.0,2.0,0.0
6956,68.0,0.0,3660.0,2.0,0.0
6957,47.0,0.0,3660.0,1.0,0.0
6958,61.0,0.0,3660.0,1.0,0.0
6959,76.0,0.0,3660.0,0.0,0.0
6960,80.0,48.0,3660.0,0.0,0.0
6961,73.0,0.0,90.0,6.0,0.0
6962,64.0,0.0,90.0,7.0,0.0
6963,61.0,0.0,90.0,7.0,0.0
6964,68.0,120.0,90.0,6.0,0.0
6965,64.0,0.0,90.0,7.0,0.0
6966,61.0,0.0,90.0,7.0,0.0
6967,73.0,120.0,90.0,6.0,0.0
6968,68.0,0.0,90.0,6.0,0.0
6969,68.0,0.0,90.0,6.0,0.0
6970,64.0,120.0,90.0,7.0,0.0
6971,73.0,0.0,90.0,6.0,0.0
6972,61.0,0.0,90.0,7.0,0.0
6973,73.0,0.0,90.0,6.0,0.0
6974,64.0,0.0,90.0,7.0,0.0
6975,61.0,0.0,90.0,7.0,0.0
6976,68.0,120.0,90.0,6.0,0.0
6977,64.0,0.0,90.0,7.0,0.0
6978,61.0,0.0,90.0,7.0,0.0
6979,73.0,0.0,90.0,6.0,0.0
6980,68.0,72.0,90.0,6.0,0.0
6981,64.0,120.0,90.0,7.0,0.0
6982,61.0,0.0,90.0,7.0,0.0
6983,73.0,0.0,90.0,6.0,0.0
6984,68.0,0.0,90.0,6.0,0.0
6985,68.0,0.0,90.0,6.0,0.0
6986,64.0,120.0,90.0,7.0,0.0
6987,61.0,0.0,90.0,7.0,0.0
6988,73.0,0.0,90.0,6.0,0.0
6989,88.0,0.0,570.0,5.0,0.0
6990,64.0,120.0,90.0,7.0,0.0
6991,61.0,0.0,90.0,7.0,0.0
6992,73.0,0.0,90.0,6.0,0.0
6993,68.0,0.0,90.0,6.0,0.0
6994,68.0,0.0,90.0,6.0,0.0
6995,73.0,0.0,90.0,6.0,0.0
6996,61.0,0.0,90.0,7.0,0.0
6997,64.0,120.0,90.0,7.0,0.0
6998,73.0,0.0,90.0,6.0,0.0
6999,68.0,0.0,90.0,6.0,0.0
7000,64.0,0.0,90.0,7.0,0.0
7001,61.0,120.0,90.0,7.0,0.0
7002,61.0,0.0,90.0,7.0,0.0
7003,64.0,0.0,90.0,7.0,0.0
7004,73.0,120.0,90.0,6.0,0.0
7005,68.0,0.0,90.0,6.0,0.0
7006,68.0,0.0,90.0,6.0,0.0
7007,61.0,120.0,90.0,7.0,0.0
7008,64.0,0.0,90.0,7.0,0.0
7009,73.0,0.0,90.0,6.0,0.0
7010,61.0,0.0,90.0,7.0,0.0
7011,68.0,120.0,90.0,6.0,0.0
7012,73.0,0.0,90.0,6.0,0.0
7013,64.0,0.0,90.0,7.0,0.0
7014,80.0,60.0,150.0,5.0,0.0
7015,61.0,0.0,90.0,7.0,0.0
7016,73.0,0.0,90.0,6.0,0.0
7017,64.0,0.0,90.0,7.0,0.0
7018,68.0,60.0,90.0,6.0,0.0
7019,68.0,0.0,90.0,6.0,0.0
7020,64.0,0.0,90.0,7.0,0.0
7021,73.0,0.0,90.0,6.0,0.0
7022,61.0,120.0,90.0,7.0,0.0
7023,85.0,0.0,570.0,5.0,0.0
7024,68.0,0.0,90.0,6.0,0.0
7025,64.0,0.0,90.0,7.0,0.0
7026,61.0,0.0,90.0,7.0,0.0
7027,73.0,120.0,90.0,6.0,0.0
7028,73.0,0.0,90.0,6.0,0.0
7029,68.0,120.0,90.0,6.0,0.0
7030,61.0,0.0,90.0,7.0,0.0
7031,64.0,0.0,90.0,7.0,0.0
7032,73.0,0.0,90.0,6.0,0.0
7033,68.0,0.0,90.0,6.0,0.0
7034,61.0,120.0,90.0,7.0,0.0
7035,64.0,0.0,90.0,7.0,0.0
7036,68.0,0.0,90.0,6.0,0.0
7037,73.0,0.0,90.0,6.0,0.0
7038,61.0,0.0,90.0,7.0,0.0
7039,64.0,120.0,90.0,7.0,0.0
7040,64.0,0.0,90.0,7.0,0.0
7041,61.0,0.0,90.0,7.0,0.0
7042,68.0,0.0,90.0,6.0,0.0
7043,73.0,120.0,90.0,6.0,0.0
7044,73.0,0.0,90.0,6.0,0.0
7045,61.0,120.0,90.0,7.0,0.0
7046,64.0,0.0,90.0,7.0,0.0
7047,68.0,0.0,90.0,6.0,0.0
7048,68.0,0.0,90.0,6.0,0.0
7049,76.0,60.0,150.0,5.0,0.0
7050,73.0,60.0,90.0,6.0,0.0
7051,61.0,0.0,90.0,7.0,0.0
7052,64.0,0.0,90.0,7.0,0.0
7053,64.0,0.0,90.0,7.0,0.0
7054,73.0,120.0,90.0,6.0,0.0
7055,68.0,0.0,90.0,6.0,0.0
7056,61.0,0.0,90.0,7.0,0.0
7057,80.0,60.0,150.0,5.0,0.0
7058,61.0,0.0,90.0,7.0,0.0
7059,68.0,60.0,90.0,6.0,0.0
7060,73.0,0.0,90.0,6.0,0.0
7061,64.0,0.0,90.0,7.0,0.0
7062,61.0,0.0,90.0,7.0,0.0
7063,64.0,0.0,90.0,7.0,0.0
7064,68.0,120.0,90.0,6.0,0.0
7065,73.0,0.0,90.0,6.0,0.0
7066,64.0,0.0,90.0,7.0,0.0
7067,61.0,0.0,90.0,7.0,0.0
7068,73.0,60.0,150.0,5.0,0.0
7069,73.0,60.0,90.0,6.0,0.0
7070,68.0,0.0,90.0,6.0,0.0
7071,61.0,0.0,90.0,7.0,0.0
7072,68.0,0.0,90.0,6.0,0.0
7073,64.0,120.0,90.0,7.0,0.0
7074,73.0,0.0,90.0,6.0,0.0
7075,61.0,60.0,90.0,7.0,0.0
7076,73.0,0.0,90.0,6.0,0.0
7077,68.0,0.0,90.0,6.0,0.0
7078,76.0,60.0,150.0,5.0,0.0
7079,64.0,0.0,90.0,7.0,0.0
7080,68.0,0.0,90.0,6.0,0.0
7081,64.0,0.0,90.0,7.0,0.0
7082,73.0,72.0,90.0,6.0,0.0
7083,61.0,0.0,90.0,7.0,0.0
7084,68.0,0.0,90.0,6.0,0.0
7085,73.0,60.0,90.0,6.0,0.0
7086,68.0,60.0,150.0,5.0,0.0
7087,64.0,0.0,90.0,7.0,0.0
7088,61.0,0.0,90.0,7.0,0.0
7089,61.0,0.0,90.0,7.0,0.0
7090,68.0,0.0,90.0,6.0,0.0
7091,73.0,0.0,90.0,6.0,0.0
7092,64.0,120.0,90.0,7.0,0.0
7093,69.0,48.0,3660.0,2.0,0.0
7094,69.0,0.0,90.0,6.0,0.0
7095,73.0,60.0,90.0,6.0,0.0
7096,66.0,0.0,3660.0,2.0,0.0
7097,54.0,0.0,780.0,11.0,0.0
7098,69.0,60.0,150.0,5.0,0.0
7099,54.0,0.0,3660.0,1.0,0.0
7100,81.0,0.0,3660.0,0.0,0.0
7101,54.0,48.0,780.0,12.0,0.0
7102,73.0,0.0,3660.0,0.0,0.0
7103,78.0,0.0,3660.0,3.0,0.0
7104,66.0,0.0,780.0,10.0,0.0
7105,42.0,0.0,3660.0,1.0,0.0
7106,66.0,0.0,90.0,7.0,0.0
7107,61.0,0.0,90.0,7.0,0.0
7108,61.0,0.0,90.0,7.0,0.0
7109,69.0,0.0,90.0,6.0,0.0
7110,66.0,120.0,90.0,7.0,0.0
7111,73.0,0.0,90.0,6.0,0.0
7112,73.0,0.0,90.0,6.0,0.0
7113,69.0,60.0,90.0,6.0,0.0
7114,61.0,0.0,90.0,7.0,0.0
7115,66.0,60.0,150.0,5.0,0.0
7116,66.0,0.0,90.0,7.0,0.0
7117,69.0,120.0,90.0,6.0,0.0
7118,61.0,0.0,90.0,7.0,0.0
7119,73.0,0.0,90.0,6.0,0.0
7120,66.0,0.0,90.0,7.0,0.0
7121,73.0,0.0,90.0,6.0,0.0
7122,66.0,0.0,90.0,7.0,0.0
7123,69.0,0.0,90.0,6.0,0.0
7124,73.0,60.0,630.0,5.0,0.0
7125,61.0,120.0,90.0,7.0,0.0
7126,66.0,0.0,90.0,7.0,0.0
7127,61.0,0.0,90.0,7.0,0.0
7128,69.0,0.0,90.0,6.0,0.0
7129,73.0,72.0,90.0,6.0,0.0
7130,73.0,0.0,90.0,6.0,0.0
7131,69.0,0.0,90.0,6.0,0.0
7132,66.0,0.0,90.0,7.0,0.0
7133,61.0,120.0,90.0,7.0,0.0
7134,61.0,0.0,90.0,7.0,0.0
7135,66.0,0.0,90.0,7.0,0.0
7136,73.0,120.0,90.0,6.0,0.0
7137,69.0,0.0,90.0,6.0,0.0
7138,69.0,0.0,90.0,6.0,0.0
7139,61.0,0.0,90.0,7.0,0.0
7140,73.0,0.0,90.0,6.0,0.0
7141,57.0,0.0,570.0,11.0,0.0
7142,57.0,120.0,570.0,12.0,0.0
7143,66.0,60.0,90.0,7.0,0.0
7144,69.0,0.0,570.0,10.0,0.0
7145,73.0,120.0,90.0,6.0,0.0
7146,61.0,0.0,90.0,7.0,0.0
7147,66.0,0.0,90.0,7.0,0.0
7148,69.0,0.0,90.0,6.0,0.0
7149,73.0,0.0,90.0,6.0,0.0
7150,69.0,60.0,90.0,6.0,0.0
7151,69.0,60.0,150.0,5.0,0.0
7152,66.0,0.0,90.0,7.0,0.0
7153,61.0,0.0,90.0,7.0,0.0
7154,61.0,120.0,90.0,7.0,0.0
7155,66.0,0.0,90.0,7.0,0.0
7156,73.0,0.0,90.0,6.0,0.0
7157,69.0,0.0,90.0,6.0,0.0
7158,69.0,0.0,90.0,6.0,0.0
7159,78.0,60.0,630.0,5.0,0.0
7160,73.0,0.0,90.0,6.0,0.0
7161,66.0,0.0,90.0,7.0,0.0
7162,61.0,0.0,90.0,7.0,0.0
7163,73.0,0.0,90.0,6.0,0.0
7164,69.0,0.0,90.0,6.0,0.0
7165,61.0,0.0,90.0,7.0,0.0
7166,66.0,120.0,90.0,7.0,0.0
7167,61.0,0.0,150.0,10.0,0.0
7168,69.0,0.0,90.0,6.0,0.0
7169,73.0,0.0,90.0,6.0,0.0
7170,49.0,0.0,150.0,11.0,0.0
7171,49.0,60.0,150.0,12.0,0.0
7172,66.0,0.0,90.0,7.0,0.0
7173,61.0,60.0,90.0,7.0,0.0
7174,61.0,0.0,90.0,7.0,0.0
7175,66.0,120.0,90.0,7.0,0.0
7176,73.0,0.0,90.0,6.0,0.0
7177,69.0,0.0,90.0,6.0,0.0
7178,54.0,0.0,570.0,12.0,0.0
7179,66.0,0.0,570.0,10.0,0.0
7180,61.0,0.0,90.0,7.0,0.0
7181,54.0,0.0,570.0,11.0,0.0
7182,69.0,0.0,90.0,6.0,0.0
7183,73.0,60.0,90.0,6.0,0.0
7184,66.0,0.0,90.0,7.0,0.0
7185,69.0,0.0,90.0,6.0,0.0
7186,73.0,0.0,90.0,6.0,0.0
7187,61.0,120.0,90.0,7.0,0.0
7188,66.0,0.0,90.0,7.0,0.0
7189,73.0,60.0,150.0,5.0,0.0
7190,61.0,0.0,90.0,7.0,0.0
7191,73.0,0.0,90.0,6.0,0.0
7192,69.0,0.0,90.0,6.0,0.0
7193,66.0,60.0,90.0,7.0,0.0
7194,66.0,0.0,90.0,7.0,0.0
7195,61.0,0.0,90.0,7.0,0.0
7196,69.0,0.0,90.0,6.0,0.0
7197,73.0,120.0,90.0,6.0,0.0
7198,61.0,0.0,90.0,7.0,0.0
7199,81.0,0.0,630.0,5.0,0.0
7200,69.0,0.0,90.0,6.0,0.0
7201,73.0,0.0,90.0,6.0,0.0
7202,66.0,120.0,90.0,7.0,0.0
7203,73.0,0.0,90.0,6.0,0.0
7204,69.0,0.0,90.0,6.0,0.0
7205,61.0,120.0,90.0,7.0,0.0
7206,66.0,0.0,90.0,7.0,0.0
7207,45.0,0.0,150.0,12.0,0.0
7208,66.0,0.0,90.0,7.0,0.0
7209,61.0,0.0,90.0,7.0,0.0
7210,69.0,0.0,90.0,6.0,0.0
7211,57.0,0.0,150.0,10.0,0.0
7212,73.0,60.0,90.0,6.0,0.0
7213,45.0,60.0,150.0,11.0,0.0
7214,73.0,0.0,90.0,6.0,0.0
7215,69.0,0.0,90.0,6.0,0.0
7216,61.0,0.0,90.0,7.0,0.0
7217,66.0,120.0,90.0,7.0,0.0
7218,73.0,60.0,90.0,6.0,0.0
7219,61.0,0.0,150.0,10.0,0.0
7220,69.0,0.0,90.0,6.0,0.0
7221,61.0,0.0,90.0,7.0,0.0
7222,49.0,60.0,150.0,12.0,0.0
7223,66.0,0.0,90.0,7.0,0.0
7224,49.0,0.0,150.0,11.0,0.0
7225,69.0,0.0,90.0,6.0,0.0
7226,73.0,120.0,90.0,6.0,0.0
7227,61.0,0.0,90.0,7.0,0.0
7228,66.0,0.0,90.0,7.0,0.0
7229,61.0,0.0,90.0,7.0,0.0
7230,54.0,60.0,150.0,10.0,0.0
7231,66.0,0.0,90.0,7.0,0.0
7232,69.0,60.0,90.0,6.0,0.0
7233,42.0,0.0,150.0,12.0,0.0
7234,78.0,0.0,150.0,5.0,0.0
7235,73.0,0.0,90.0,6.0,0.0
7236,42.0,0.0,150.0,11.0,0.0
7237,66.0,0.0,90.0,7.0,0.0
7238,73.0,120.0,90.0,6.0,0.0
7239,69.0,0.0,90.0,6.0,0.0
7240,61.0,0.0,90.0,7.0,0.0
7241,61.0,0.0,90.0,7.0,0.0
7242,66.0,60.0,90.0,7.0,0.0
7243,45.0,60.0,150.0,11.0,0.0
7244,45.0,0.0,150.0,12.0,0.0
7245,85.0,0.0,150.0,5.0,0.0
7246,73.0,0.0,90.0,6.0,0.0
7247,69.0,0.0,90.0,6.0,0.0
7248,57.0,0.0,150.0,10.0,0.0
7249,69.0,0.0,90.0,6.0,0.0
7250,73.0,0.0,90.0,6.0,0.0
7251,61.0,0.0,90.0,7.0,0.0
7252,66.0,72.0,90.0,7.0,0.0
7253,66.0,60.0,90.0,7.0,0.0
7254,61.0,0.0,90.0,7.0,0.0
7255,49.0,0.0,150.0,10.0,0.0
7256,37.0,0.0,150.0,11.0,0.0
7257,73.0,0.0,90.0,6.0,0.0
7258,69.0,0.0,90.0,6.0,0.0
7259,37.0,60.0,150.0,12.0,0.0
7260,81.0,0.0,150.0,5.0,0.0
7261,66.0,120.0,90.0,7.0,0.0
7262,61.0,0.0,90.0,7.0,0.0
7263,69.0,0.0,90.0,6.0,0.0
7264,73.0,0.0,90.0,6.0,0.0
7265,71.0,0.0,3660.0,3.0,0.0
7266,78.0,0.0,3660.0,3.0,0.0
7267,47.0,12.0,390.0,4.0,0.0
7268,47.0,0.0,150.0,10.0,0.0
7269,81.0,0.0,3660.0,0.0,0.0
7270,75.0,48.0,3660.0,0.0,0.0
7271,66.0,0.0,90.0,7.0,0.0
7272,63.0,60.0,90.0,7.0,0.0
7273,47.0,0.0,3660.0,1.0,0.0
7274,69.0,0.0,90.0,6.0,0.0
7275,75.0,0.0,90.0,6.0,0.0
7276,35.0,60.0,150.0,12.0,0.0
7277,66.0,0.0,3660.0,2.0,0.0
7278,35.0,0.0,150.0,11.0,0.0
7279,59.0,0.0,3660.0,1.0,0.0
7280,69.0,0.0,3660.0,2.0,0.0
7281,87.0,48.0,780.0,5.0,0.0
7282,69.0,0.0,90.0,6.0,0.0
7283,75.0,0.0,90.0,6.0,0.0
7284,66.0,120.0,90.0,7.0,0.0
7285,63.0,0.0,90.0,7.0,0.0
7286,75.0,48.0,90.0,6.0,0.0
7287,42.0,60.0,150.0,11.0,0.0
7288,54.0,0.0,150.0,10.0,0.0
7289,63.0,0.0,90.0,7.0,0.0
7290,66.0,0.0,90.0,7.0,0.0
7291,42.0,0.0,150.0,12.0,0.0
7292,69.0,0.0,90.0,6.0,0.0
7293,63.0,120.0,90.0,7.0,0.0
7294,69.0,0.0,90.0,6.0,0.0
7295,66.0,0.0,90.0,7.0,0.0
7296,75.0,0.0,90.0,6.0,0.0
7297,47.0,60.0,630.0,11.0,0.0
7298,59.0,0.0,630.0,10.0,0.0
7299,69.0,0.0,90.0,6.0,0.0
7300,47.0,0.0,630.0,12.0,0.0
7301,75.0,0.0,90.0,6.0,0.0
7302,66.0,0.0,90.0,7.0,0.0
7303,63.0,120.0,90.0,7.0,0.0
7304,75.0,72.0,90.0,6.0,0.0
7305,69.0,0.0,90.0,6.0,0.0
7306,63.0,0.0,90.0,7.0,0.0
7307,66.0,0.0,90.0,7.0,0.0
7308,63.0,0.0,90.0,7.0,0.0
7309,75.0,120.0,90.0,6.0,0.0
7310,69.0,0.0,90.0,6.0,0.0
7311,66.0,0.0,90.0,7.0,0.0
7312,63.0,0.0,90.0,7.0,0.0
7313,75.0,0.0,90.0,6.0,0.0
7314,69.0,120.0,90.0,6.0,0.0
7315,66.0,0.0,90.0,7.0,0.0
7316,69.0,0.0,90.0,6.0,0.0
7317,47.0,12.0,390.0,4.0,0.0
7318,63.0,60.0,90.0,7.0,0.0
7319,90.0,0.0,570.0,5.0,0.0
7320,66.0,0.0,90.0,7.0,0.0
7321,75.0,0.0,90.0,6.0,0.0
7322,66.0,0.0,90.0,7.0,0.0
7323,63.0,0.0,90.0,7.0,0.0
7324,69.0,0.0,90.0,6.0,0.0
7325,75.0,120.0,90.0,6.0,0.0
7326,66.0,0.0,90.0,7.0,0.0
7327,63.0,48.0,90.0,7.0,0.0
7328,42.0,0.0,150.0,12.0,0.0
7329,42.0,60.0,150.0,11.0,0.0
7330,75.0,0.0,90.0,6.0,0.0
7331,54.0,0.0,150.0,10.0,0.0
7332,69.0,0.0,90.0,6.0,0.0
7333,66.0,0.0,90.0,7.0,0.0
7334,63.0,120.0,90.0,7.0,0.0
7335,75.0,0.0,90.0,6.0,0.0
7336,69.0,0.0,90.0,6.0,0.0
7337,66.0,0.0,90.0,7.0,0.0
7338,63.0,120.0,90.0,7.0,0.0
7339,63.0,0.0,630.0,10.0,0.0
7340,51.0,60.0,630.0,12.0,0.0
7341,75.0,0.0,90.0,6.0,0.0
7342,51.0,0.0,630.0,11.0,0.0
7343,69.0,0.0,90.0,6.0,0.0
7344,63.0,0.0,90.0,7.0,0.0
7345,75.0,120.0,90.0,6.0,0.0
7346,69.0,0.0,90.0,6.0,0.0
7347,66.0,0.0,90.0,7.0,0.0
7348,75.0,0.0,90.0,6.0,0.0
7349,81.0,24.0,180.0,5.0,0.0
7350,69.0,96.0,90.0,6.0,0.0
7351,66.0,0.0,90.0,7.0,0.0
7352,63.0,0.0,90.0,7.0,0.0
7353,63.0,0.0,90.0,7.0,0.0
7354,69.0,0.0,90.0,6.0,0.0
7355,75.0,0.0,90.0,6.0,0.0
7356,66.0,120.0,90.0,7.0,0.0
7357,75.0,0.0,90.0,6.0,0.0
7358,69.0,60.0,90.0,6.0,0.0
7359,87.0,120.0,570.0,5.0,0.0
7360,47.0,12.0,390.0,4.0,0.0
7361,63.0,0.0,90.0,7.0,0.0
7362,66.0,0.0,90.0,7.0,0.0
7363,69.0,120.0,90.0,6.0,0.0
7364,75.0,0.0,90.0,6.0,0.0
7365,66.0,0.0,90.0,7.0,0.0
7366,63.0,0.0,90.0,7.0,0.0
7367,75.0,0.0,90.0,6.0,0.0
7368,69.0,48.0,90.0,6.0,0.0
7369,59.0,0.0,150.0,10.0,0.0
7370,47.0,60.0,150.0,12.0,0.0
7371,63.0,0.0,90.0,7.0,0.0
7372,66.0,0.0,90.0,7.0,0.0
7373,47.0,0.0,150.0,11.0,0.0
7374,66.0,0.0,90.0,7.0,0.0
7375,75.0,0.0,90.0,6.0,0.0
7376,69.0,0.0,90.0,6.0,0.0
7377,63.0,120.0,90.0,7.0,0.0
7378,66.0,0.0,630.0,10.0,0.0
7379,75.0,0.0,90.0,6.0,0.0
7380,66.0,0.0,90.0,7.0,0.0
7381,69.0,0.0,90.0,6.0,0.0
7382,54.0,36.0,630.0,11.0,0.0
7383,63.0,0.0,90.0,7.0,0.0
7384,54.0,0.0,630.0,12.0,0.0
7385,75.0,0.0,90.0,6.0,0.0
7386,69.0,0.0,90.0,6.0,0.0
7387,66.0,0.0,90.0,7.0,0.0
7388,63.0,120.0,90.0,7.0,0.0
7389,66.0,96.0,90.0,7.0,0.0
7390,75.0,0.0,90.0,6.0,0.0
7391,69.0,0.0,90.0,6.0,0.0
7392,63.0,0.0,90.0,7.0,0.0
7393,78.0,24.0,180.0,5.0,0.0
7394,69.0,0.0,90.0,6.0,0.0
7395,63.0,120.0,90.0,7.0,0.0
7396,75.0,0.0,90.0,6.0,0.0
7397,66.0,0.0,90.0,7.0,0.0
7398,63.0,60.0,90.0,7.0,0.0
7399,66.0,0.0,90.0,7.0,0.0
7400,81.0,24.0,180.0,5.0,0.0
7401,69.0,0.0,90.0,6.0,0.0
7402,75.0,0.0,90.0,6.0,0.0
7403,63.0,0.0,90.0,7.0,0.0
7404,66.0,0.0,90.0,7.0,0.0
7405,75.0,0.0,90.0,6.0,0.0
7406,69.0,120.0,90.0,6.0,0.0
7407,75.0,0.0,90.0,6.0,0.0
7408,69.0,60.0,90.0,6.0,0.0
7409,51.0,36.0,150.0,11.0,0.0
7410,63.0,0.0,90.0,7.0,0.0
7411,51.0,0.0,150.0,12.0,0.0
7412,75.0,24.0,180.0,5.0,0.0
7413,63.0,0.0,150.0,10.0,0.0
7414,66.0,0.0,90.0,7.0,0.0
7415,63.0,0.0,90.0,7.0,0.0
7416,66.0,0.0,90.0,7.0,0.0
7417,69.0,120.0,90.0,6.0,0.0
7418,75.0,0.0,90.0,6.0,0.0
7419,69.0,0.0,90.0,6.0,0.0
7420,75.0,60.0,90.0,6.0,0.0
7421,57.0,36.0,150.0,12.0,0.0
7422,66.0,0.0,90.0,7.0,0.0
7423,63.0,0.0,90.0,7.0,0.0
7424,69.0,0.0,150.0,10.0,0.0
7425,78.0,24.0,180.0,5.0,0.0
7426,57.0,0.0,150.0,11.0,0.0
7427,69.0,0.0,90.0,6.0,0.0
7428,63.0,0.0,90.0,7.0,0.0
7429,66.0,0.0,90.0,7.0,0.0
7430,75.0,72.0,90.0,6.0,0.0
7431,75.0,0.0,90.0,6.0,0.0
7432,69.0,60.0,90.0,6.0,0.0
7433,54.0,0.0,150.0,12.0,0.0
7434,63.0,0.0,90.0,7.0,0.0
7435,66.0,0.0,90.0,7.0,0.0
7436,54.0,36.0,150.0,11.0,0.0
7437,66.0,0.0,150.0,10.0,0.0
7438,69.0,24.0,180.0,5.0,0.0
7439,75.0,0.0,90.0,6.0,0.0
7440,66.0,0.0,90.0,7.0,0.0
7441,63.0,0.0,90.0,7.0,0.0
7442,69.0,120.0,90.0,6.0,0.0
7443,64.0,0.0,780.0,10.0,0.0
7444,80.0,0.0,3660.0,0.0,0.0
7445,71.0,0.0,3660.0,0.0,0.0
7446,64.0,0.0,3660.0,3.0,0.0
7447,76.0,0.0,3660.0,3.0,0.0
7448,52.0,12.0,390.0,4.0,0.0
7449,64.0,0.0,3660.0,1.0,0.0
7450,76.0,0.0,90.0,6.0,0.0
7451,52.0,0.0,780.0,12.0,0.0
7452,68.0,60.0,150.0,5.0,0.0
7453,59.0,0.0,90.0,7.0,0.0
7454,68.0,0.0,90.0,7.0,0.0
7455,68.0,60.0,90.0,6.0,0.0
7456,68.0,0.0,3660.0,2.0,0.0
7457,52.0,0.0,3660.0,1.0,0.0
7458,52.0,48.0,780.0,11.0,0.0
7459,64.0,48.0,3660.0,2.0,0.0
7460,68.0,120.0,90.0,7.0,0.0
7461,59.0,0.0,90.0,7.0,0.0
7462,68.0,0.0,90.0,6.0,0.0
7463,76.0,0.0,90.0,6.0,0.0
7464,76.0,0.0,90.0,6.0,0.0
7465,64.0,60.0,150.0,5.0,0.0
7466,68.0,0.0,90.0,6.0,0.0
7467,68.0,48.0,90.0,7.0,0.0
7468,59.0,0.0,90.0,7.0,0.0
7469,59.0,0.0,90.0,7.0,0.0
7470,68.0,120.0,90.0,6.0,0.0
7471,76.0,0.0,90.0,6.0,0.0
7472,68.0,0.0,90.0,7.0,0.0
7473,71.0,60.0,630.0,5.0,0.0
7474,76.0,0.0,90.0,6.0,0.0
7475,68.0,120.0,90.0,6.0,0.0
7476,68.0,0.0,90.0,7.0,0.0
7477,59.0,0.0,90.0,7.0,0.0
7478,68.0,0.0,90.0,7.0,0.0
7479,59.0,0.0,90.0,7.0,0.0
7480,68.0,0.0,90.0,6.0,0.0
7481,76.0,72.0,90.0,6.0,0.0
7482,59.0,0.0,90.0,7.0,0.0
7483,68.0,0.0,90.0,7.0,0.0
7484,76.0,0.0,90.0,6.0,0.0
7485,68.0,120.0,90.0,6.0,0.0
7486,68.0,0.0,90.0,6.0,0.0
7487,76.0,0.0,90.0,6.0,0.0
7488,68.0,120.0,90.0,7.0,0.0
7489,59.0,0.0,90.0,7.0,0.0
7490,52.0,12.0,390.0,4.0,0.0
7491,68.0,0.0,570.0,10.0,0.0
7492,56.0,0.0,570.0,12.0,0.0
7493,68.0,0.0,90.0,6.0,0.0
7494,76.0,0.0,90.0,6.0,0.0
7495,68.0,60.0,90.0,7.0,0.0
7496,59.0,0.0,90.0,7.0,0.0
7497,56.0,0.0,570.0,11.0,0.0
7498,68.0,0.0,90.0,6.0,0.0
7499,68.0,0.0,90.0,7.0,0.0
7500,59.0,0.0,90.0,7.0,0.0
7501,76.0,120.0,90.0,6.0,0.0
7502,68.0,60.0,150.0,5.0,0.0
7503,68.0,0.0,90.0,6.0,0.0
7504,68.0,48.0,90.0,7.0,0.0
7505,59.0,0.0,90.0,7.0,0.0
7506,76.0,0.0,90.0,6.0,0.0
7507,59.0,0.0,90.0,7.0,0.0
7508,68.0,0.0,90.0,7.0,0.0
7509,76.0,120.0,90.0,6.0,0.0
7510,68.0,0.0,90.0,6.0,0.0
7511,76.0,60.0,630.0,5.0,0.0
7512,59.0,0.0,90.0,7.0,0.0
7513,76.0,120.0,90.0,6.0,0.0
7514,68.0,0.0,90.0,6.0,0.0
7515,68.0,0.0,90.0,7.0,0.0
7516,76.0,0.0,90.0,6.0,0.0
7517,59.0,120.0,90.0,7.0,0.0
7518,68.0,0.0,90.0,7.0,0.0
7519,68.0,0.0,90.0,6.0,0.0
7520,76.0,0.0,90.0,6.0,0.0
7521,68.0,60.0,90.0,6.0,0.0
7522,47.0,0.0,150.0,11.0,0.0
7523,59.0,60.0,150.0,10.0,0.0
7524,47.0,0.0,150.0,12.0,0.0
7525,59.0,0.0,90.0,7.0,0.0
7526,68.0,0.0,90.0,7.0,0.0
7527,59.0,0.0,90.0,7.0,0.0
7528,76.0,120.0,90.0,6.0,0.0
7529,68.0,0.0,90.0,6.0,0.0
7530,68.0,0.0,90.0,7.0,0.0
7531,68.0,60.0,90.0,6.0,0.0
7532,52.0,0.0,570.0,12.0,0.0
7533,68.0,0.0,90.0,7.0,0.0
7534,52.0,12.0,390.0,4.0,0.0
7535,52.0,0.0,570.0,11.0,0.0
7536,59.0,0.0,90.0,7.0,0.0
7537,64.0,0.0,570.0,10.0,0.0
7538,76.0,0.0,90.0,6.0,0.0
7539,76.0,120.0,90.0,6.0,0.0
7540,68.0,0.0,90.0,6.0,0.0
7541,59.0,0.0,90.0,7.0,0.0
7542,68.0,0.0,90.0,7.0,0.0
7543,71.0,60.0,150.0,5.0,0.0
7544,68.0,48.0,90.0,6.0,0.0
7545,76.0,0.0,90.0,6.0,0.0
7546,68.0,0.0,90.0,7.0,0.0
7547,59.0,0.0,90.0,7.0,0.0
7548,68.0,0.0,90.0,7.0,0.0
7549,59.0,0.0,90.0,7.0,0.0
7550,76.0,120.0,90.0,6.0,0.0
7551,68.0,0.0,90.0,6.0,0.0
7552,80.0,0.0,630.0,5.0,0.0
7553,59.0,0.0,90.0,7.0,0.0
7554,68.0,0.0,90.0,7.0,0.0
7555,76.0,120.0,90.0,6.0,0.0
7556,68.0,0.0,90.0,6.0,0.0
7557,76.0,0.0,90.0,6.0,0.0
7558,68.0,0.0,90.0,6.0,0.0
7559,59.0,0.0,90.0,7.0,0.0
7560,68.0,120.0,90.0,7.0,0.0
7561,59.0,0.0,90.0,7.0,0.0
7562,68.0,60.0,90.0,7.0,0.0
7563,68.0,0.0,90.0,6.0,0.0
7564,76.0,0.0,90.0,6.0,0.0
7565,44.0,0.0,150.0,12.0,0.0
7566,44.0,0.0,150.0,11.0,0.0
7567,56.0,60.0,150.0,10.0,0.0
7568,59.0,120.0,90.0,7.0,0.0
7569,68.0,0.0,90.0,7.0,0.0
7570,76.0,0.0,90.0,6.0,0.0
7571,68.0,0.0,90.0,6.0,0.0
7572,76.0,0.0,90.0,6.0,0.0
7573,59.0,60.0,90.0,7.0,0.0
7574,47.0,0.0,150.0,12.0,0.0
7575,47.0,60.0,150.0,11.0,0.0
7576,68.0,0.0,90.0,7.0,0.0
7577,59.0,0.0,150.0,10.0,0.0
7578,68.0,0.0,90.0,6.0,0.0
7579,76.0,120.0,90.0,6.0,0.0
7580,68.0,0.0,90.0,6.0,0.0
7581,59.0,0.0,90.0,7.0,0.0
7582,68.0,0.0,90.0,7.0,0.0
7583,71.0,0.0,150.0,5.0,0.0
7584,76.0,0.0,90.0,6.0,0.0
7585,68.0,0.0,90.0,6.0,0.0
7586,68.0,60.0,90.0,7.0,0.0
7587,59.0,0.0,90.0,7.0,0.0
7588,40.0,0.0,150.0,11.0,0.0
7589,40.0,0.0,150.0,12.0,0.0
7590,52.0,60.0,150.0,10.0,0.0
7591,76.0,0.0,90.0,6.0,0.0
7592,68.0,120.0,90.0,6.0,0.0
7593,68.0,0.0,90.0,7.0,0.0
7594,59.0,0.0,90.0,7.0,0.0
7595,44.0,0.0,150.0,11.0,0.0
7596,56.0,0.0,150.0,10.0,0.0
7597,59.0,60.0,90.0,7.0,0.0
7598,68.0,0.0,90.0,7.0,0.0
7599,44.0,0.0,150.0,12.0,0.0
7600,76.0,60.0,150.0,5.0,0.0
7601,76.0,0.0,90.0,6.0,0.0
7602,68.0,0.0,90.0,6.0,0.0
7603,76.0,0.0,90.0,6.0,0.0
7604,68.0,0.0,90.0,7.0,0.0
7605,59.0,72.0,90.0,7.0,0.0
7606,68.0,0.0,90.0,6.0,0.0
7607,68.0,60.0,90.0,7.0,0.0
7608,76.0,0.0,90.0,6.0,0.0
7609,68.0,0.0,90.0,6.0,0.0
7610,47.0,0.0,150.0,10.0,0.0
7611,35.0,0.0,150.0,12.0,0.0
7612,35.0,60.0,150.0,11.0,0.0
7613,80.0,0.0,150.0,5.0,0.0
7614,59.0,0.0,90.0,7.0,0.0
7615,68.0,0.0,90.0,7.0,0.0
7616,59.0,0.0,90.0,7.0,0.0
7617,68.0,0.0,90.0,6.0,0.0
7618,76.0,120.0,90.0,6.0,0.0
7619,86.0,0.0,3660.0,0.0,0.0
7620,52.0,12.0,390.0,4.0,0.0
7621,64.0,0.0,4230.0,2.0,0.0
7622,40.0,48.0,3660.0,1.0,0.0
7623,52.0,0.0,150.0,10.0,0.0
7624,71.0,0.0,90.0,6.0,0.0
7625,74.0,60.0,90.0,6.0,0.0
7626,64.0,0.0,90.0,7.0,0.0
7627,68.0,0.0,90.0,7.0,0.0
7628,52.0,36.0,4230.0,2.0,0.0
7629,80.0,0.0,3660.0,0.0,0.0
7630,40.0,60.0,150.0,11.0,0.0
7631,76.0,0.0,4230.0,3.0,0.0
7632,40.0,0.0,150.0,12.0,0.0
7633,64.0,0.0,4230.0,3.0,0.0
7634,52.0,0.0,3660.0,1.0,0.0
7635,83.0,48.0,780.0,5.0,0.0
7636,74.0,0.0,90.0,6.0,0.0
7637,68.0,0.0,90.0,7.0,0.0
7638,71.0,120.0,90.0,6.0,0.0
7639,64.0,0.0,90.0,7.0,0.0
7640,35.0,0.0,150.0,11.0,0.0
7641,35.0,0.0,150.0,12.0,0.0
7642,74.0,0.0,90.0,6.0,0.0
7643,47.0,60.0,150.0,10.0,0.0
7644,71.0,0.0,90.0,6.0,0.0
7645,68.0,0.0,90.0,7.0,0.0
7646,64.0,48.0,90.0,7.0,0.0
7647,64.0,0.0,90.0,7.0,0.0
7648,68.0,120.0,90.0,7.0,0.0
7649,74.0,0.0,90.0,6.0,0.0
7650,71.0,0.0,90.0,6.0,0.0
7651,68.0,0.0,90.0,7.0,0.0
7652,71.0,0.0,90.0,6.0,0.0
7653,74.0,120.0,90.0,6.0,0.0
7654,44.0,0.0,630.0,12.0,0.0
7655,44.0,60.0,630.0,11.0,0.0
7656,64.0,0.0,90.0,7.0,0.0
7657,56.0,0.0,630.0,10.0,0.0
7658,74.0,0.0,90.0,6.0,0.0
7659,71.0,72.0,90.0,6.0,0.0
7660,64.0,0.0,90.0,7.0,0.0
7661,68.0,0.0,90.0,7.0,0.0
7662,64.0,120.0,90.0,7.0,0.0
7663,71.0,0.0,90.0,6.0,0.0
7664,74.0,0.0,90.0,6.0,0.0
7665,68.0,0.0,90.0,7.0,0.0
7666,71.0,0.0,90.0,6.0,0.0
7667,74.0,0.0,90.0,6.0,0.0
7668,68.0,0.0,90.0,7.0,0.0
7669,64.0,120.0,90.0,7.0,0.0
7670,68.0,0.0,90.0,7.0,0.0
7671,52.0,12.0,390.0,4.0,0.0
7672,74.0,0.0,90.0,6.0,0.0
7673,64.0,60.0,90.0,7.0,0.0
7674,86.0,120.0,570.0,5.0,0.0
7675,71.0,0.0,90.0,6.0,0.0
7676,74.0,0.0,90.0,6.0,0.0
7677,64.0,120.0,90.0,7.0,0.0
7678,68.0,0.0,90.0,7.0,0.0
7679,71.0,0.0,90.0,6.0,0.0
7680,71.0,0.0,90.0,6.0,0.0
7681,74.0,0.0,90.0,6.0,0.0
7682,52.0,60.0,150.0,10.0,0.0
7683,64.0,48.0,90.0,7.0,0.0
7684,40.0,0.0,150.0,12.0,0.0
7685,40.0,0.0,150.0,11.0,0.0
7686,68.0,0.0,90.0,7.0,0.0
7687,68.0,0.0,90.0,7.0,0.0
7688,64.0,120.0,90.0,7.0,0.0
7689,71.0,0.0,90.0,6.0,0.0
7690,74.0,0.0,90.0,6.0,0.0
7691,47.0,0.0,630.0,12.0,0.0
7692,74.0,0.0,90.0,6.0,0.0
7693,71.0,0.0,90.0,6.0,0.0
7694,59.0,60.0,630.0,10.0,0.0
7695,64.0,0.0,90.0,7.0,0.0
7696,47.0,0.0,630.0,11.0,0.0
7697,68.0,0.0,90.0,7.0,0.0
7698,74.0,120.0,90.0,6.0,0.0
7699,64.0,0.0,90.0,7.0,0.0
7700,71.0,0.0,90.0,6.0,0.0
7701,68.0,0.0,90.0,7.0,0.0
7702,80.0,60.0,150.0,5.0,0.0
7703,64.0,60.0,90.0,7.0,0.0
7704,71.0,0.0,90.0,6.0,0.0
7705,68.0,0.0,90.0,7.0,0.0
7706,74.0,0.0,90.0,6.0,0.0
7707,68.0,120.0,90.0,7.0,0.0
7708,64.0,0.0,90.0,7.0,0.0
7709,74.0,0.0,90.0,6.0,0.0
7710,71.0,0.0,90.0,6.0,0.0
7711,68.0,0.0,90.0,7.0,0.0
7712,74.0,0.0,90.0,6.0,0.0
7713,52.0,12.0,390.0,4.0,0.0
7714,83.0,0.0,570.0,5.0,0.0
7715,64.0,0.0,90.0,7.0,0.0
7716,71.0,60.0,90.0,6.0,0.0
7717,71.0,0.0,90.0,6.0,0.0
7718,74.0,0.0,90.0,6.0,0.0
7719,68.0,0.0,90.0,7.0,0.0
7720,64.0,120.0,90.0,7.0,0.0
7721,71.0,0.0,90.0,6.0,0.0
7722,44.0,60.0,150.0,12.0,0.0
7723,44.0,0.0,150.0,11.0,0.0
7724,56.0,0.0,150.0,10.0,0.0
7725,68.0,48.0,90.0,7.0,0.0
7726,74.0,0.0,90.0,6.0,0.0
7727,64.0,0.0,90.0,7.0,0.0
7728,64.0,120.0,90.0,7.0,0.0
7729,74.0,0.0,90.0,6.0,0.0
7730,68.0,0.0,90.0,7.0,0.0
7731,71.0,0.0,90.0,6.0,0.0
7732,50.0,0.0,630.0,12.0,0.0
7733,74.0,120.0,90.0,6.0,0.0
7734,50.0,0.0,630.0,11.0,0.0
7735,68.0,0.0,90.0,7.0,0.0
7736,64.0,0.0,90.0,7.0,0.0
7737,71.0,0.0,90.0,6.0,0.0
7738,62.0,0.0,630.0,10.0,0.0
7739,64.0,0.0,90.0,7.0,0.0
7740,71.0,0.0,90.0,6.0,0.0
7741,74.0,120.0,90.0,6.0,0.0
7742,68.0,0.0,90.0,7.0,0.0
7743,71.0,60.0,150.0,5.0,0.0
7744,71.0,0.0,90.0,6.0,0.0
7745,68.0,60.0,90.0,7.0,0.0
7746,64.0,0.0,90.0,7.0,0.0
7747,74.0,0.0,90.0,6.0,0.0
7748,68.0,0.0,90.0,7.0,0.0
7749,64.0,0.0,90.0,7.0,0.0
7750,74.0,0.0,90.0,6.0,0.0
7751,71.0,120.0,90.0,6.0,0.0
7752,74.0,60.0,90.0,6.0,0.0
7753,68.0,0.0,90.0,7.0,0.0
7754,64.0,0.0,90.0,7.0,0.0
7755,74.0,60.0,150.0,5.0,0.0
7756,52.0,12.0,390.0,4.0,0.0
7757,71.0,0.0,90.0,6.0,0.0
7758,64.0,120.0,90.0,7.0,0.0
7759,71.0,0.0,90.0,6.0,0.0
7760,68.0,0.0,90.0,7.0,0.0
7761,74.0,0.0,90.0,6.0,0.0
7762,74.0,0.0,90.0,6.0,0.0
7763,47.0,0.0,150.0,12.0,0.0
7764,64.0,48.0,90.0,7.0,0.0
7765,71.0,0.0,90.0,6.0,0.0
7766,68.0,0.0,90.0,7.0,0.0
7767,47.0,0.0,150.0,11.0,0.0
7768,59.0,0.0,150.0,10.0,0.0
7769,68.0,60.0,150.0,5.0,0.0
7770,64.0,120.0,90.0,7.0,0.0
7771,68.0,0.0,90.0,7.0,0.0
7772,71.0,0.0,90.0,6.0,0.0
7773,74.0,0.0,90.0,6.0,0.0
7774,44.0,60.0,150.0,11.0,0.0
7775,44.0,0.0,150.0,12.0,0.0
7776,68.0,0.0,90.0,7.0,0.0
7777,64.0,0.0,90.0,7.0,0.0
7778,52.0,12.0,390.0,4.0,0.0
7779,56.0,0.0,150.0,10.0,0.0
7780,74.0,0.0,90.0,6.0,0.0
7781,71.0,0.0,150.0,5.0,0.0
7782,71.0,60.0,90.0,6.0,0.0
7783,74.0,72.0,90.0,6.0,0.0
7784,68.0,0.0,90.0,7.0,0.0
7785,64.0,0.0,90.0,7.0,0.0
7786,71.0,0.0,90.0,6.0,0.0
7787,68.0,0.0,90.0,7.0,0.0
7788,64.0,0.0,90.0,7.0,0.0
7789,40.0,0.0,150.0,12.0,0.0
7790,74.0,48.0,90.0,6.0,0.0
7791,71.0,0.0,90.0,6.0,0.0
7792,40.0,0.0,150.0,11.0,0.0
7793,52.0,0.0,150.0,10.0,0.0
7794,64.0,60.0,150.0,5.0,0.0
7795,68.0,204.0,90.0,7.0,0.0
7796,74.0,0.0,90.0,6.0,0.0
7797,64.0,0.0,90.0,7.0,0.0
7798,71.0,0.0,90.0,6.0,0.0
7799,64.0,0.0,180.0,7.0,0.0
7800,69.0,0.0,180.0,7.0,0.0
7801,45.0,192.0,180.0,1.0,0.0
7802,64.0,36.0,870.0,1.0,0.0
7803,73.0,0.0,180.0,5.0,0.0
7804,57.0,12.0,180.0,10.0,0.0
7805,52.0,0.0,390.0,4.0,0.0
7806,85.0,0.0,390.0,0.0,0.0
7807,69.0,0.0,180.0,6.0,0.0
7808,81.0,0.0,390.0,0.0,0.0
7809,45.0,0.0,390.0,11.0,0.0
7810,45.0,0.0,390.0,12.0,0.0
7811,69.0,0.0,180.0,6.0,0.0
7812,57.0,0.0,180.0,10.0,0.0
7813,73.0,240.0,180.0,5.0,0.0
7814,64.0,0.0,180.0,7.0,0.0
7815,73.0,0.0,180.0,5.0,0.0
7816,64.0,0.0,180.0,7.0,0.0
7817,57.0,0.0,180.0,10.0,0.0
7818,69.0,204.0,180.0,6.0,0.0
7819,57.0,0.0,180.0,10.0,0.0
7820,73.0,0.0,180.0,5.0,0.0
7821,64.0,0.0,180.0,7.0,0.0
7822,69.0,240.0,180.0,6.0,0.0
7823,69.0,84.0,570.0,1.0,0.0
7824,69.0,0.0,180.0,6.0,0.0
7825,57.0,0.0,180.0,10.0,0.0
7826,73.0,0.0,180.0,5.0,0.0
7827,64.0,240.0,180.0,7.0,0.0
7828,64.0,0.0,180.0,7.0,0.0
7829,57.0,0.0,180.0,10.0,0.0
7830,69.0,156.0,180.0,6.0,0.0
7831,73.0,0.0,180.0,5.0,0.0
7832,64.0,0.0,180.0,7.0,0.0
7833,73.0,0.0,180.0,5.0,0.0
7834,57.0,204.0,180.0,10.0,0.0
7835,69.0,0.0,180.0,6.0,0.0
7836,64.0,0.0,180.0,7.0,0.0
7837,61.0,36.0,150.0,1.0,0.0
7838,57.0,204.0,180.0,10.0,0.0
7839,69.0,0.0,180.0,6.0,0.0
7840,73.0,0.0,180.0,5.0,0.0
7841,64.0,0.0,180.0,7.0,0.0
7842,57.0,0.0,180.0,10.0,0.0
7843,73.0,0.0,180.0,5.0,0.0
7844,64.0,36.0,150.0,1.0,0.0
7845,69.0,204.0,180.0,6.0,0.0
7846,73.0,204.0,180.0,5.0,0.0
7847,57.0,36.0,150.0,1.0,0.0
7848,69.0,0.0,180.0,6.0,0.0
7849,57.0,0.0,180.0,10.0,0.0
7850,64.0,0.0,180.0,7.0,0.0
7851,73.0,0.0,180.0,5.0,0.0
7852,61.0,36.0,150.0,1.0,0.0
7853,57.0,0.0,180.0,10.0,0.0
7854,69.0,0.0,180.0,6.0,0.0
7855,64.0,204.0,180.0,7.0,0.0
7856,69.0,0.0,180.0,6.0,0.0
7857,52.0,36.0,150.0,1.0,0.0
7858,73.0,204.0,180.0,5.0,0.0
7859,57.0,0.0,180.0,10.0,0.0
7860,64.0,0.0,180.0,7.0,0.0
7861,69.0,0.0,180.0,6.0,0.0
7862,57.0,0.0,180.0,10.0,0.0
7863,73.0,204.0,180.0,5.0,0.0
7864,57.0,36.0,150.0,1.0,0.0
7865,64.0,0.0,180.0,7.0,0.0
7866,49.0,36.0,150.0,1.0,0.0
7867,64.0,0.0,180.0,7.0,0.0
7868,73.0,204.0,180.0,5.0,0.0
7869,69.0,0.0,180.0,6.0,0.0
7870,57.0,0.0,180.0,10.0,0.0
7871,57.0,0.0,180.0,10.0,0.0
7872,73.0,204.0,180.0,5.0,0.0
7873,52.0,36.0,150.0,1.0,0.0
7874,69.0,0.0,180.0,6.0,0.0
7875,64.0,0.0,180.0,7.0,0.0
7876,69.0,0.0,180.0,6.0,0.0
7877,64.0,0.0,180.0,7.0,0.0
7878,57.0,0.0,180.0,10.0,0.0
7879,45.0,36.0,150.0,1.0,0.0
7880,73.0,240.0,180.0,5.0,0.0
7881,44.0,0.0,390.0,12.0,0.0
7882,44.0,0.0,390.0,11.0,0.0
7883,74.0,0.0,180.0,5.0,0.0
7884,56.0,0.0,180.0,10.0,0.0
7885,71.0,0.0,180.0,6.0,0.0
7886,65.0,204.0,180.0,7.0,0.0
7887,44.0,36.0,390.0,1.0,0.0
7888,83.0,132.0,780.0,0.0,0.0
7889,56.0,0.0,180.0,10.0,0.0
7890,74.0,0.0,180.0,5.0,0.0
7891,71.0,0.0,180.0,6.0,0.0
7892,65.0,240.0,180.0,7.0,0.0
7893,56.0,0.0,180.0,10.0,0.0
7894,71.0,0.0,180.0,6.0,0.0
7895,65.0,0.0,180.0,7.0,0.0
7896,74.0,108.0,180.0,5.0,0.0
7897,56.0,0.0,180.0,10.0,0.0
7898,65.0,0.0,180.0,7.0,0.0
7899,74.0,0.0,180.0,5.0,0.0
7900,71.0,240.0,180.0,6.0,0.0
7901,65.0,0.0,180.0,7.0,0.0
7902,74.0,0.0,180.0,5.0,0.0
7903,56.0,240.0,180.0,10.0,0.0
7904,86.0,84.0,570.0,0.0,0.0
7905,71.0,0.0,180.0,6.0,0.0
7906,65.0,0.0,180.0,7.0,0.0
7907,71.0,0.0,180.0,6.0,0.0
7908,74.0,0.0,180.0,5.0,0.0
7909,56.0,156.0,180.0,10.0,0.0
7910,65.0,0.0,180.0,7.0,0.0
7911,74.0,0.0,180.0,5.0,0.0
7912,71.0,204.0,180.0,6.0,0.0
7913,56.0,0.0,180.0,10.0,0.0
7914,71.0,0.0,180.0,6.0,0.0
7915,74.0,0.0,180.0,5.0,0.0
7916,65.0,240.0,180.0,7.0,0.0
7917,80.0,36.0,150.0,0.0,0.0
7918,56.0,0.0,180.0,10.0,0.0
7919,71.0,0.0,180.0,5.0,0.0
7920,65.0,0.0,180.0,6.0,0.0
7921,56.0,240.0,180.0,10.0,0.0
7922,83.0,84.0,570.0,0.0,0.0
7923,59.0,0.0,180.0,7.0,0.0
7924,56.0,0.0,180.0,10.0,0.0
7925,71.0,0.0,180.0,5.0,0.0
7926,59.0,0.0,180.0,7.0,0.0
7927,65.0,156.0,180.0,6.0,0.0
7928,65.0,204.0,180.0,6.0,0.0
7929,71.0,0.0,180.0,5.0,0.0
7930,59.0,0.0,180.0,7.0,0.0
7931,56.0,0.0,180.0,10.0,0.0
7932,65.0,204.0,180.0,6.0,0.0
7933,71.0,0.0,180.0,5.0,0.0
7934,59.0,0.0,180.0,7.0,0.0
7935,77.0,36.0,150.0,0.0,0.0
7936,56.0,0.0,180.0,10.0,0.0
7937,56.0,0.0,180.0,10.0,0.0
7938,80.0,36.0,150.0,0.0,0.0
7939,65.0,0.0,180.0,6.0,0.0
7940,71.0,204.0,180.0,5.0,0.0
7941,59.0,0.0,180.0,7.0,0.0
7942,71.0,0.0,180.0,5.0,0.0
7943,65.0,0.0,180.0,6.0,0.0
7944,71.0,36.0,150.0,0.0,0.0
7945,56.0,204.0,180.0,10.0,0.0
7946,59.0,0.0,180.0,7.0,0.0
7947,56.0,0.0,180.0,10.0,0.0
7948,59.0,204.0,180.0,7.0,0.0
7949,71.0,0.0,180.0,5.0,0.0
7950,74.0,36.0,150.0,0.0,0.0
7951,65.0,0.0,180.0,6.0,0.0
7952,65.0,0.0,180.0,6.0,0.0
7953,56.0,0.0,180.0,10.0,0.0
7954,59.0,240.0,180.0,7.0,0.0
7955,68.0,36.0,150.0,0.0,0.0
7956,71.0,0.0,180.0,5.0,0.0
7957,42.0,0.0,390.0,11.0,0.0
7958,66.0,0.0,180.0,6.0,0.0
7959,69.0,36.0,390.0,0.0,0.0
7960,54.0,0.0,180.0,10.0,0.0
7961,69.0,204.0,180.0,5.0,0.0
7962,42.0,0.0,390.0,12.0,0.0
7963,73.0,132.0,780.0,7.0,0.0
7964,66.0,240.0,180.0,6.0,0.0
7965,54.0,0.0,180.0,10.0,0.0
7966,69.0,0.0,180.0,5.0,0.0
7967,69.0,0.0,180.0,5.0,0.0
7968,54.0,0.0,180.0,10.0,0.0
7969,66.0,108.0,180.0,6.0,0.0
7970,69.0,240.0,180.0,5.0,0.0
7971,54.0,0.0,180.0,10.0,0.0
7972,66.0,0.0,180.0,6.0,0.0
7973,78.0,84.0,570.0,7.0,0.0
7974,66.0,0.0,180.0,6.0,0.0
7975,69.0,0.0,180.0,5.0,0.0
7976,54.0,240.0,180.0,10.0,0.0
7977,54.0,156.0,180.0,10.0,0.0
7978,69.0,0.0,180.0,5.0,0.0
7979,66.0,0.0,180.0,6.0,0.0
7980,54.0,0.0,180.0,10.0,0.0
7981,66.0,0.0,180.0,6.0,0.0
7982,69.0,216.0,180.0,5.0,0.0
7983,66.0,216.0,180.0,6.0,0.0
7984,69.0,24.0,150.0,7.0,0.0
7985,54.0,0.0,180.0,10.0,0.0
7986,69.0,0.0,180.0,5.0,0.0
7987,73.0,24.0,150.0,7.0,0.0
7988,69.0,0.0,180.0,5.0,0.0
7989,54.0,216.0,180.0,10.0,0.0
7990,61.0,0.0,180.0,6.0,0.0
7991,54.0,0.0,180.0,10.0,0.0
7992,66.0,24.0,150.0,7.0,0.0
7993,69.0,0.0,180.0,5.0,0.0
7994,61.0,216.0,180.0,6.0,0.0
7995,69.0,24.0,150.0,7.0,0.0
7996,54.0,216.0,180.0,10.0,0.0
7997,69.0,0.0,180.0,5.0,0.0
7998,61.0,0.0,180.0,6.0,0.0
7999,69.0,216.0,180.0,5.0,0.0
8000,61.0,24.0,150.0,7.0,0.0
8001,61.0,0.0,180.0,6.0,0.0
8002,54.0,0.0,180.0,10.0,0.0
8003,66.0,24.0,150.0,7.0,0.0
8004,61.0,0.0,180.0,6.0,0.0
8005,54.0,0.0,180.0,10.0,0.0
8006,69.0,216.0,180.0,5.0,0.0
8007,69.0,0.0,180.0,5.0,0.0
8008,57.0,24.0,150.0,7.0,0.0
8009,54.0,0.0,180.0,10.0,0.0
8010,61.0,216.0,180.0,6.0,0.0
8011,61.0,24.0,150.0,7.0,0.0
8012,61.0,0.0,180.0,6.0,0.0
8013,54.0,216.0,180.0,10.0,0.0
8014,69.0,0.0,180.0,5.0,0.0
8015,54.0,24.0,150.0,7.0,0.0
8016,61.0,0.0,180.0,6.0,0.0
8017,54.0,240.0,180.0,10.0,0.0
8018,69.0,0.0,180.0,5.0,0.0
8019,42.0,36.0,390.0,11.0,0.0
8020,54.0,204.0,180.0,10.0,0.0
8021,42.0,0.0,390.0,12.0,0.0
8022,81.0,132.0,780.0,6.0,0.0
8023,72.0,0.0,180.0,5.0,0.0
8024,63.0,0.0,180.0,7.0,0.0
8025,63.0,0.0,180.0,7.0,0.0
8026,54.0,0.0,180.0,10.0,0.0
8027,72.0,240.0,180.0,5.0,0.0
8028,72.0,0.0,180.0,5.0,0.0
8029,63.0,0.0,180.0,7.0,0.0
8030,54.0,108.0,180.0,10.0,0.0
8031,54.0,0.0,180.0,10.0,0.0
8032,63.0,240.0,180.0,7.0,0.0
8033,72.0,0.0,180.0,5.0,0.0
8034,63.0,0.0,180.0,7.0,0.0
8035,72.0,0.0,180.0,5.0,0.0
8036,84.0,84.0,570.0,6.0,0.0
8037,54.0,240.0,180.0,10.0,0.0
8038,72.0,156.0,180.0,5.0,0.0
8039,54.0,0.0,180.0,10.0,0.0
8040,63.0,0.0,180.0,7.0,0.0
8041,72.0,0.0,180.0,5.0,0.0
8042,54.0,216.0,180.0,10.0,0.0
8043,63.0,0.0,180.0,7.0,0.0
8044,54.0,0.0,180.0,10.0,0.0
8045,63.0,0.0,180.0,7.0,0.0
8046,78.0,24.0,150.0,6.0,0.0
8047,72.0,240.0,180.0,5.0,0.0
8048,72.0,0.0,180.0,5.0,0.0
8049,54.0,240.0,180.0,10.0,0.0
8050,63.0,0.0,180.0,7.0,0.0
8051,81.0,84.0,570.0,6.0,0.0
8052,72.0,0.0,180.0,5.0,0.0
8053,54.0,156.0,180.0,10.0,0.0
8054,63.0,0.0,180.0,7.0,0.0
8055,63.0,0.0,180.0,7.0,0.0
8056,54.0,0.0,180.0,10.0,0.0
8057,72.0,216.0,180.0,5.0,0.0
8058,75.0,24.0,150.0,6.0,0.0
8059,54.0,216.0,180.0,10.0,0.0
8060,63.0,0.0,180.0,7.0,0.0
8061,72.0,0.0,180.0,5.0,0.0
8062,54.0,0.0,180.0,10.0,0.0
8063,78.0,24.0,150.0,6.0,0.0
8064,72.0,216.0,180.0,5.0,0.0
8065,63.0,0.0,180.0,7.0,0.0
8066,72.0,216.0,180.0,5.0,0.0
8067,63.0,0.0,180.0,7.0,0.0
8068,69.0,24.0,150.0,6.0,0.0
8069,54.0,0.0,180.0,10.0,0.0
8070,63.0,0.0,180.0,7.0,0.0
8071,72.0,0.0,180.0,5.0,0.0
8072,54.0,216.0,180.0,10.0,0.0
8073,72.0,24.0,150.0,6.0,0.0
8074,63.0,0.0,180.0,7.0,0.0
8075,54.0,240.0,180.0,10.0,0.0
8076,66.0,24.0,150.0,6.0,0.0
8077,72.0,0.0,180.0,5.0,0.0
8078,43.0,0.0,390.0,11.0,0.0
8079,43.0,36.0,390.0,12.0,0.0
8080,64.0,0.0,180.0,7.0,0.0
8081,83.0,132.0,780.0,5.0,0.0
8082,55.0,204.0,180.0,10.0,0.0
8083,71.0,0.0,180.0,6.0,0.0
8084,71.0,240.0,180.0,6.0,0.0
8085,55.0,0.0,180.0,10.0,0.0
8086,64.0,0.0,180.0,7.0,0.0
8087,71.0,0.0,180.0,6.0,0.0
8088,55.0,0.0,180.0,10.0,0.0
8089,64.0,108.0,180.0,7.0,0.0
8090,64.0,0.0,180.0,7.0,0.0
8091,71.0,240.0,180.0,6.0,0.0
8092,55.0,0.0,180.0,10.0,0.0
8093,55.0,0.0,180.0,10.0,0.0
8094,88.0,84.0,570.0,5.0,0.0
8095,64.0,0.0,180.0,7.0,0.0
8096,71.0,240.0,180.0,6.0,0.0
8097,71.0,156.0,180.0,6.0,0.0
8098,55.0,0.0,180.0,10.0,0.0
8099,64.0,0.0,180.0,7.0,0.0
8100,71.0,216.0,180.0,6.0,0.0
8101,55.0,0.0,180.0,10.0,0.0
8102,64.0,0.0,180.0,7.0,0.0
8103,64.0,0.0,180.0,7.0,0.0
8104,71.0,0.0,180.0,6.0,0.0
8105,55.0,216.0,180.0,10.0,0.0
8106,79.0,24.0,150.0,5.0,0.0
8107,55.0,0.0,180.0,10.0,0.0
8108,64.0,0.0,180.0,7.0,0.0
8109,83.0,24.0,150.0,5.0,0.0
8110,71.0,216.0,180.0,6.0,0.0
8111,64.0,216.0,180.0,7.0,0.0
8112,76.0,24.0,150.0,5.0,0.0
8113,71.0,0.0,180.0,6.0,0.0
8114,55.0,0.0,180.0,10.0,0.0
8115,71.0,0.0,180.0,6.0,0.0
8116,79.0,24.0,150.0,5.0,0.0
8117,55.0,216.0,180.0,10.0,0.0
8118,64.0,0.0,180.0,7.0,0.0
8119,64.0,216.0,180.0,7.0,0.0
8120,71.0,24.0,150.0,5.0,0.0
8121,71.0,0.0,180.0,6.0,0.0
8122,55.0,0.0,180.0,10.0,0.0
8123,76.0,24.0,150.0,5.0,0.0
8124,64.0,0.0,180.0,7.0,0.0
8125,55.0,216.0,180.0,10.0,0.0
8126,71.0,0.0,180.0,6.0,0.0
8127,64.0,0.0,180.0,7.0,0.0
8128,71.0,216.0,180.0,6.0,0.0
8129,55.0,0.0,180.0,10.0,0.0
8130,67.0,24.0,150.0,5.0,0.0
8131,64.0,0.0,180.0,7.0,0.0
8132,71.0,0.0,180.0,6.0,0.0
8133,71.0,24.0,150.0,5.0,0.0
8134,55.0,216.0,180.0,10.0,0.0
8135,64.0,0.0,180.0,7.0,0.0
8136,71.0,0.0,180.0,6.0,0.0
8137,64.0,24.0,150.0,5.0,0.0
8138,55.0,300.0,180.0,10.0,0.0
8139,48.0,0.0,780.0,12.0,0.0
8140,67.0,228.0,240.0,6.0,0.0
8141,60.0,432.0,780.0,10.0,0.0
8142,70.0,36.0,2310.0,7.0,0.0
8143,48.0,0.0,780.0,11.0,0.0
8144,76.0,0.0,240.0,5.0,0.0
8145,66.0,300.0,240.0,6.0,0.0
8146,75.0,0.0,240.0,5.0,0.0
8147,76.0,0.0,720.0,5.0,0.0
8148,67.0,228.0,720.0,6.0,0.0
8149,52.0,0.0,570.0,12.0,0.0
8150,52.0,324.0,570.0,11.0,0.0
8151,64.0,0.0,570.0,10.0,0.0
8152,75.0,108.0,240.0,5.0,0.0
8153,66.0,0.0,240.0,6.0,0.0
8154,67.0,0.0,720.0,6.0,0.0
8155,76.0,144.0,720.0,5.0,0.0
8156,43.0,0.0,180.0,12.0,0.0
8157,55.0,240.0,180.0,10.0,0.0
8158,43.0,0.0,180.0,11.0,0.0
8159,60.0,60.0,180.0,10.0,0.0
8160,48.0,0.0,180.0,11.0,0.0
8161,48.0,0.0,180.0,12.0,0.0
8162,40.0,0.0,180.0,12.0,0.0
8163,40.0,0.0,180.0,11.0,0.0
8164,66.0,0.0,240.0,6.0,0.0
8165,75.0,180.0,240.0,5.0,0.0
8166,52.0,60.0,180.0,10.0,0.0
8167,67.0,180.0,240.0,6.0,0.0
8168,76.0,0.0,240.0,5.0,0.0
8169,43.0,0.0,180.0,11.0,0.0
8170,55.0,60.0,180.0,10.0,0.0
8171,43.0,0.0,180.0,12.0,0.0
8172,75.0,0.0,180.0,5.0,0.0
8173,36.0,0.0,180.0,12.0,0.0
8174,48.0,12.0,180.0,10.0,0.0
8175,36.0,0.0,180.0,11.0,0.0
8176,66.0,288.0,180.0,6.0,0.0
8177,67.0,240.0,240.0,6.0,0.0
8178,34.0,0.0,960.0,12.0,0.0
8179,46.0,0.0,960.0,10.0,0.0
8180,76.0,0.0,240.0,5.0,0.0
8181,34.0,0.0,960.0,11.0,0.0
8182,64.0,0.0,240.0,6.0,0.0
8183,79.0,240.0,240.0,5.0,0.0
8184,63.0,0.0,240.0,6.0,0.0
8185,66.0,168.0,300.0,7.0,0.0
8186,78.0,72.0,240.0,5.0,0.0
8187,61.0,132.0,240.0,6.0,0.0
8188,76.0,0.0,240.0,5.0,0.0
8189,47.0,0.0,390.0,10.0,0.0
8190,66.0,96.0,390.0,7.0,0.0
8191,35.0,0.0,390.0,11.0,0.0
8192,35.0,0.0,390.0,12.0,0.0
8193,75.0,0.0,120.0,5.0,0.0
8194,59.0,252.0,120.0,6.0,0.0
8195,83.0,240.0,240.0,5.0,0.0
8196,71.0,0.0,240.0,6.0,0.0
8197,73.0,0.0,240.0,6.0,0.0
8198,82.0,240.0,240.0,5.0,0.0
8199,75.0,240.0,240.0,6.0,0.0
8200,81.0,0.0,240.0,5.0,0.0
8201,76.0,240.0,480.0,6.0,0.0
8202,80.0,240.0,240.0,5.0,0.0
8203,79.0,0.0,240.0,5.0,0.0
8204,70.0,132.0,480.0,7.0,0.0
8205,78.0,240.0,240.0,5.0,0.0
8206,75.0,0.0,240.0,6.0,0.0
8207,73.0,0.0,240.0,6.0,0.0
8208,76.0,0.0,240.0,5.0,0.0
8209,75.0,0.0,120.0,5.0,0.0
8210,71.0,252.0,120.0,6.0,0.0
8211,71.0,96.0,390.0,7.0,0.0
8212,59.0,240.0,240.0,6.0,0.0
8213,83.0,0.0,240.0,0.0,0.0
8214,71.0,0.0,240.0,5.0,0.0
8215,82.0,240.0,240.0,0.0,0.0
8216,70.0,0.0,240.0,5.0,0.0
8217,61.0,0.0,240.0,6.0,0.0
8218,63.0,0.0,240.0,6.0,0.0
8219,81.0,0.0,240.0,0.0,0.0
8220,69.0,240.0,240.0,5.0,0.0
8221,64.0,240.0,480.0,6.0,0.0
8222,80.0,240.0,240.0,0.0,0.0
8223,68.0,0.0,240.0,5.0,0.0
8224,79.0,0.0,240.0,0.0,0.0
8225,67.0,0.0,240.0,5.0,0.0
8226,58.0,156.0,480.0,7.0,0.0
8227,78.0,0.0,240.0,0.0,0.0
8228,66.0,0.0,240.0,5.0,0.0
8229,63.0,192.0,240.0,6.0,0.0
8230,64.0,0.0,180.0,5.0,0.0
8231,76.0,48.0,180.0,0.0,0.0
8232,61.0,0.0,180.0,6.0,0.0
8233,59.0,0.0,180.0,7.0,0.0
8234,59.0,204.0,180.0,6.0,0.0
8235,83.0,0.0,180.0,0.0,0.0
8236,71.0,36.0,150.0,5.0,0.0
8237,71.0,276.0,150.0,5.0,0.0
8238,64.0,0.0,180.0,6.0,0.0
8239,67.0,0.0,180.0,6.0,0.0
8240,64.0,240.0,180.0,7.0,0.0
8241,83.0,0.0,180.0,0.0,0.0
8242,71.0,240.0,180.0,5.0,0.0
8243,63.0,240.0,180.0,6.0,0.0
8244,83.0,0.0,180.0,0.0,0.0
8245,66.0,0.0,180.0,6.0,0.0
8246,59.0,0.0,180.0,7.0,0.0
8247,71.0,240.0,180.0,5.0,0.0
8248,67.0,0.0,180.0,6.0,0.0
8249,83.0,0.0,180.0,0.0,0.0
8250,64.0,240.0,180.0,6.0,0.0
8251,64.0,0.0,180.0,7.0,0.0
8252,71.0,432.0,180.0,5.0,0.0
8253,59.0,0.0,390.0,7.0,0.0
8254,83.0,0.0,390.0,0.0,0.0
8255,66.0,96.0,390.0,6.0,0.0
8256,63.0,0.0,390.0,6.0,0.0
8257,71.0,240.0,240.0,5.0,0.0
8258,70.0,240.0,240.0,5.0,0.0
8259,71.0,240.0,240.0,5.0,0.0
8260,72.0,240.0,240.0,5.0,0.0
8261,73.0,240.0,240.0,5.0,0.0
8262,74.0,192.0,240.0,5.0,0.0
8263,75.0,240.0,180.0,5.0,0.0
8264,64.0,144.0,1740.0,7.0,0.0
8265,68.0,144.0,780.0,6.0,0.0
8266,64.0,240.0,180.0,10.0,0.0
8267,76.0,0.0,780.0,5.0,0.0
8268,64.0,240.0,180.0,10.0,0.0
8269,64.0,96.0,180.0,10.0,0.0
8270,64.0,240.0,180.0,10.0,0.0
8271,64.0,240.0,180.0,10.0,0.0
8272,73.0,48.0,720.0,6.0,0.0
8273,81.0,0.0,720.0,5.0,0.0
8274,64.0,240.0,180.0,10.0,0.0
8275,64.0,48.0,180.0,10.0,0.0
8276,64.0,0.0,180.0,10.0,0.0
8277,80.0,0.0,180.0,5.0,0.0
8278,71.0,108.0,180.0,6.0,0.0
8279,80.0,132.0,60.0,5.0,0.0
8280,64.0,48.0,180.0,10.0,0.0
8281,71.0,0.0,60.0,6.0,0.0
8282,73.0,144.0,1740.0,7.0,0.0
8283,69.0,0.0,180.0,6.0,0.0
8284,78.0,192.0,180.0,5.0,0.0
8285,68.0,108.0,180.0,6.0,0.0
8286,77.0,0.0,180.0,5.0,0.0
8287,64.0,0.0,180.0,10.0,0.0
8288,80.0,0.0,60.0,5.0,0.0
8289,71.0,132.0,60.0,6.0,0.0
8290,64.0,48.0,180.0,10.0,0.0
8291,78.0,0.0,180.0,5.0,0.0
8292,69.0,192.0,180.0,6.0,0.0
8293,68.0,240.0,180.0,6.0,0.0
8294,64.0,0.0,180.0,10.0,0.0
8295,77.0,0.0,180.0,5.0,0.0
8296,78.0,48.0,390.0,5.0,0.0
8297,69.0,0.0,390.0,6.0,0.0
8298,64.0,192.0,180.0,10.0,0.0
8299,64.0,240.0,180.0,10.0,0.0
8300,64.0,96.0,180.0,10.0,0.0
8301,64.0,288.0,180.0,10.0,0.0
8302,78.0,240.0,240.0,5.0,0.0
8303,63.0,144.0,1740.0,10.0,0.0
8304,71.0,0.0,2070.0,6.0,0.0
8305,66.0,156.0,1920.0,7.0,0.0
8306,80.0,240.0,240.0,5.0,0.0
8307,81.0,192.0,240.0,5.0,0.0
8308,82.0,288.0,180.0,5.0,0.0
8309,83.0,240.0,240.0,5.0,0.0
8310,84.0,240.0,240.0,5.0,0.0
8311,85.0,48.0,240.0,5.0,0.0
8312,81.0,48.0,180.0,5.0,0.0
8313,64.0,204.0,180.0,10.0,0.0
8314,80.0,36.0,150.0,5.0,0.0
8315,64.0,0.0,180.0,7.0,0.0
8316,71.0,0.0,180.0,7.0,0.0
8317,80.0,0.0,150.0,5.0,0.0
8318,64.0,168.0,180.0,10.0,0.0
8319,76.0,36.0,150.0,6.0,0.0
8320,78.0,0.0,120.0,6.0,0.0
8321,83.0,72.0,120.0,5.0,0.0
8322,64.0,0.0,180.0,10.0,0.0
8323,71.0,48.0,180.0,7.0,0.0
8324,81.0,0.0,120.0,5.0,0.0
8325,76.0,120.0,120.0,6.0,0.0
8326,80.0,72.0,120.0,5.0,0.0
8327,75.0,0.0,120.0,6.0,0.0
8328,71.0,0.0,180.0,7.0,0.0
8329,64.0,24.0,180.0,10.0,0.0
8330,81.0,0.0,90.0,5.0,0.0
8331,76.0,408.0,90.0,6.0,0.0
8332,80.0,0.0,390.0,6.0,0.0
8333,64.0,0.0,390.0,10.0,0.0
8334,83.0,1296.0,390.0,5.0,0.0
8335,71.0,0.0,390.0,7.0,0.0
8336,64.0,0.0,720.0,5.0,0.0
8337,52.0,0.0,780.0,2.0,0.0
8338,52.0,48.0,720.0,10.0,0.0
8339,64.0,72.0,780.0,2.0,0.0
8340,40.0,0.0,720.0,11.0,0.0
8341,52.0,0.0,720.0,1.0,0.0
8342,64.0,0.0,720.0,6.0,0.0
8343,76.0,0.0,720.0,0.0,0.0
8344,64.0,0.0,720.0,7.0,0.0
8345,40.0,0.0,720.0,12.0,0.0
8346,66.0,0.0,120.0,6.0,0.0
8347,54.0,0.0,120.0,1.0,0.0
8348,42.0,0.0,120.0,11.0,0.0
8349,66.0,0.0,120.0,7.0,0.0
8350,54.0,0.0,120.0,10.0,0.0
8351,42.0,96.0,120.0,12.0,0.0
8352,66.0,0.0,120.0,5.0,0.0
8353,78.0,0.0,120.0,0.0,0.0
8354,56.0,0.0,90.0,10.0,0.0
8355,68.0,0.0,90.0,5.0,0.0
8356,44.0,0.0,90.0,11.0,0.0
8357,80.0,0.0,90.0,0.0,0.0
8358,68.0,0.0,90.0,7.0,0.0
8359,68.0,192.0,90.0,6.0,0.0
8360,44.0,0.0,90.0,12.0,0.0
8361,56.0,0.0,90.0,1.0,0.0
8362,45.0,0.0,180.0,11.0,0.0
8363,45.0,0.0,180.0,12.0,0.0
8364,57.0,0.0,180.0,1.0,0.0
8365,69.0,0.0,180.0,6.0,0.0
8366,57.0,0.0,180.0,10.0,0.0
8367,69.0,240.0,180.0,7.0,0.0
8368,69.0,0.0,180.0,5.0,0.0
8369,81.0,0.0,180.0,0.0,0.0
8370,69.0,0.0,180.0,7.0,0.0
8371,45.0,0.0,180.0,12.0,0.0
8372,57.0,0.0,180.0,1.0,0.0
8373,57.0,0.0,180.0,10.0,0.0
8374,69.0,0.0,180.0,5.0,0.0
8375,81.0,0.0,180.0,0.0,0.0
8376,45.0,192.0,180.0,11.0,0.0
8377,69.0,0.0,180.0,6.0,0.0
8378,57.0,0.0,180.0,10.0,0.0
8379,57.0,0.0,180.0,1.0,0.0
8380,69.0,48.0,120.0,5.0,0.0
8381,69.0,0.0,180.0,7.0,0.0
8382,45.0,0.0,180.0,12.0,0.0
8383,45.0,0.0,180.0,11.0,0.0
8384,69.0,0.0,120.0,6.0,0.0
8385,81.0,72.0,180.0,0.0,0.0
8386,71.0,120.0,120.0,6.0,0.0
8387,71.0,0.0,120.0,5.0,0.0
8388,68.0,0.0,180.0,7.0,0.0
8389,56.0,0.0,180.0,1.0,0.0
8390,68.0,0.0,120.0,5.0,0.0
8391,68.0,48.0,120.0,6.0,0.0
8392,80.0,0.0,180.0,0.0,0.0
8393,56.0,48.0,180.0,10.0,0.0
8394,44.0,0.0,180.0,11.0,0.0
8395,44.0,0.0,180.0,12.0,0.0
8396,69.0,0.0,90.0,5.0,0.0
8397,69.0,192.0,90.0,6.0,0.0
8398,42.0,0.0,240.0,12.0,0.0
8399,66.0,0.0,240.0,6.0,0.0
8400,66.0,120.0,240.0,7.0,0.0
8401,66.0,72.0,180.0,2.0,0.0
8402,54.0,0.0,240.0,1.0,0.0
8403,78.0,0.0,240.0,0.0,0.0
8404,54.0,0.0,240.0,10.0,0.0
8405,66.0,0.0,240.0,5.0,0.0
8406,42.0,0.0,240.0,11.0,0.0
8407,68.0,0.0,120.0,5.0,0.0
8408,80.0,0.0,120.0,0.0,0.0
8409,68.0,0.0,120.0,6.0,0.0
8410,44.0,0.0,120.0,12.0,0.0
8411,44.0,0.0,120.0,11.0,0.0
8412,66.0,48.0,180.0,2.0,0.0
8413,56.0,0.0,120.0,1.0,0.0
8414,56.0,48.0,120.0,10.0,0.0
8415,68.0,0.0,120.0,7.0,0.0
8416,45.0,144.0,90.0,11.0,0.0
8417,81.0,0.0,90.0,0.0,0.0
8418,69.0,0.0,90.0,5.0,0.0
8419,69.0,0.0,90.0,7.0,0.0
8420,69.0,0.0,90.0,6.0,0.0
8421,45.0,0.0,90.0,12.0,0.0
8422,57.0,0.0,90.0,1.0,0.0
8423,57.0,0.0,90.0,10.0,0.0
8424,71.0,0.0,120.0,6.0,0.0
8425,71.0,24.0,180.0,7.0,0.0
8426,59.0,48.0,180.0,1.0,0.0
8427,47.0,0.0,180.0,12.0,0.0
8428,66.0,0.0,180.0,2.0,0.0
8429,59.0,0.0,180.0,2.0,0.0
8430,83.0,0.0,180.0,0.0,0.0
8431,47.0,0.0,180.0,11.0,0.0
8432,59.0,0.0,180.0,10.0,0.0
8433,71.0,48.0,120.0,5.0,0.0
8434,73.0,120.0,120.0,6.0,0.0
8435,73.0,0.0,120.0,5.0,0.0
8436,66.0,0.0,180.0,2.0,0.0
8437,69.0,0.0,180.0,7.0,0.0
8438,57.0,24.0,180.0,10.0,0.0
8439,57.0,24.0,180.0,1.0,0.0
8440,69.0,48.0,120.0,6.0,0.0
8441,81.0,0.0,180.0,0.0,0.0
8442,59.0,0.0,180.0,2.0,0.0
8443,69.0,0.0,120.0,5.0,0.0
8444,45.0,0.0,180.0,11.0,0.0
8445,45.0,0.0,180.0,12.0,0.0
8446,71.0,0.0,90.0,5.0,0.0
8447,71.0,408.0,90.0,6.0,0.0
8448,80.0,0.0,390.0,0.0,0.0
8449,44.0,0.0,390.0,11.0,0.0
8450,56.0,0.0,390.0,10.0,0.0
8451,68.0,0.0,390.0,5.0,0.0
8452,68.0,744.0,390.0,7.0,0.0
8453,56.0,0.0,390.0,1.0,0.0
8454,68.0,0.0,390.0,6.0,0.0
8455,44.0,0.0,390.0,12.0,0.0
8456,64.0,0.0,390.0,2.0,0.0
8457,68.0,0.0,390.0,2.0,0.0
8458,83.0,168.0,720.0,5.0,0.0
8459,68.0,240.0,180.0,7.0,0.0
8460,76.0,144.0,1200.0,6.0,0.0
8461,68.0,240.0,180.0,7.0,0.0
8462,68.0,72.0,180.0,7.0,0.0
8463,88.0,216.0,180.0,5.0,0.0
8464,68.0,24.0,180.0,7.0,0.0
8465,87.0,0.0,240.0,5.0,0.0
8466,69.0,72.0,180.0,7.0,0.0
8467,85.0,0.0,150.0,5.0,0.0
8468,69.0,216.0,180.0,7.0,0.0
8469,81.0,24.0,150.0,6.0,0.0
8470,80.0,0.0,150.0,6.0,0.0
8471,69.0,216.0,180.0,7.0,0.0
8472,83.0,24.0,150.0,5.0,0.0
8473,78.0,24.0,150.0,6.0,0.0
8474,69.0,240.0,180.0,7.0,0.0
8475,81.0,0.0,150.0,5.0,0.0
8476,78.0,144.0,240.0,6.0,0.0
8477,81.0,0.0,240.0,5.0,0.0
8478,71.0,72.0,180.0,7.0,0.0
8479,80.0,24.0,150.0,5.0,0.0
8480,71.0,240.0,180.0,7.0,0.0
8481,76.0,0.0,150.0,6.0,0.0
8482,80.0,0.0,240.0,5.0,0.0
8483,76.0,144.0,240.0,6.0,0.0
8484,71.0,72.0,180.0,7.0,0.0
8485,78.0,0.0,150.0,5.0,0.0
8486,75.0,24.0,150.0,6.0,0.0
8487,71.0,456.0,180.0,7.0,0.0
8488,64.0,96.0,390.0,7.0,0.0
8489,79.0,0.0,480.0,5.0,0.0
8490,75.0,192.0,480.0,6.0,0.0
8491,80.0,1008.0,180.0,5.0,0.0
8492,76.0,0.0,180.0,6.0,0.0
8493,76.0,0.0,720.0,0.0,0.0
8494,52.0,0.0,720.0,1.0,0.0
8495,52.0,0.0,720.0,10.0,0.0
8496,64.0,0.0,720.0,6.0,0.0
8497,40.0,0.0,720.0,12.0,0.0
8498,64.0,48.0,720.0,7.0,0.0
8499,64.0,0.0,780.0,2.0,0.0
8500,52.0,72.0,780.0,2.0,0.0
8501,40.0,0.0,720.0,11.0,0.0
8502,64.0,0.0,720.0,5.0,0.0
8503,54.0,0.0,120.0,1.0,0.0
8504,78.0,0.0,120.0,0.0,0.0
8505,42.0,0.0,120.0,12.0,0.0
8506,54.0,0.0,120.0,10.0,0.0
8507,66.0,0.0,120.0,5.0,0.0
8508,42.0,96.0,120.0,11.0,0.0
8509,66.0,0.0,120.0,6.0,0.0
8510,66.0,0.0,120.0,7.0,0.0
8511,44.0,0.0,90.0,12.0,0.0
8512,80.0,0.0,90.0,0.0,0.0
8513,56.0,0.0,90.0,1.0,0.0
8514,56.0,0.0,90.0,10.0,0.0
8515,68.0,0.0,90.0,6.0,0.0
8516,44.0,0.0,90.0,11.0,0.0
8517,68.0,0.0,90.0,7.0,0.0
8518,68.0,192.0,90.0,5.0,0.0
8519,57.0,0.0,180.0,10.0,0.0
8520,57.0,0.0,180.0,1.0,0.0
8521,69.0,0.0,180.0,6.0,0.0
8522,45.0,0.0,180.0,12.0,0.0
8523,81.0,0.0,180.0,0.0,0.0
8524,69.0,0.0,180.0,5.0,0.0
8525,45.0,0.0,180.0,11.0,0.0
8526,69.0,240.0,180.0,7.0,0.0
8527,69.0,0.0,180.0,6.0,0.0
8528,57.0,0.0,180.0,10.0,0.0
8529,45.0,0.0,180.0,11.0,0.0
8530,69.0,0.0,180.0,5.0,0.0
8531,69.0,0.0,180.0,7.0,0.0
8532,81.0,192.0,180.0,0.0,0.0
8533,45.0,0.0,180.0,12.0,0.0
8534,57.0,0.0,180.0,1.0,0.0
8535,81.0,72.0,180.0,0.0,0.0
8536,45.0,0.0,180.0,11.0,0.0
8537,69.0,48.0,120.0,6.0,0.0
8538,45.0,0.0,180.0,12.0,0.0
8539,57.0,0.0,180.0,10.0,0.0
8540,69.0,0.0,120.0,5.0,0.0
8541,57.0,0.0,180.0,1.0,0.0
8542,69.0,0.0,120.0,7.0,0.0
8543,71.0,0.0,120.0,6.0,0.0
8544,71.0,120.0,120.0,5.0,0.0
8545,71.0,0.0,120.0,7.0,0.0
8546,80.0,0.0,180.0,0.0,0.0
8547,68.0,0.0,120.0,7.0,0.0
8548,68.0,48.0,120.0,6.0,0.0
8549,44.0,0.0,180.0,11.0,0.0
8550,56.0,0.0,180.0,1.0,0.0
8551,68.0,0.0,120.0,5.0,0.0
8552,44.0,0.0,180.0,12.0,0.0
8553,56.0,48.0,180.0,10.0,0.0
8554,69.0,0.0,90.0,6.0,0.0
8555,69.0,192.0,90.0,5.0,0.0
8556,69.0,0.0,90.0,7.0,0.0
8557,66.0,72.0,180.0,2.0,0.0
8558,66.0,0.0,240.0,5.0,0.0
8559,42.0,0.0,240.0,12.0,0.0
8560,42.0,0.0,240.0,11.0,0.0
8561,78.0,120.0,240.0,0.0,0.0
8562,54.0,0.0,240.0,10.0,0.0
8563,54.0,0.0,240.0,1.0,0.0
8564,66.0,0.0,240.0,6.0,0.0
8565,66.0,0.0,240.0,7.0,0.0
8566,68.0,0.0,120.0,7.0,0.0
8567,44.0,0.0,120.0,12.0,0.0
8568,44.0,0.0,120.0,11.0,0.0
8569,56.0,48.0,120.0,1.0,0.0
8570,56.0,0.0,120.0,10.0,0.0
8571,68.0,0.0,120.0,6.0,0.0
8572,66.0,48.0,180.0,2.0,0.0
8573,68.0,0.0,120.0,5.0,0.0
8574,80.0,0.0,120.0,0.0,0.0
8575,45.0,0.0,90.0,11.0,0.0
8576,45.0,0.0,90.0,12.0,0.0
8577,69.0,0.0,90.0,5.0,0.0
8578,69.0,0.0,90.0,7.0,0.0
8579,57.0,0.0,90.0,1.0,0.0
8580,69.0,144.0,90.0,6.0,0.0
8581,57.0,0.0,90.0,10.0,0.0
8582,81.0,0.0,90.0,0.0,0.0
8583,71.0,48.0,120.0,6.0,0.0
8584,66.0,24.0,180.0,2.0,0.0
8585,59.0,0.0,180.0,2.0,0.0
8586,47.0,0.0,180.0,11.0,0.0
8587,47.0,0.0,180.0,12.0,0.0
8588,83.0,0.0,180.0,0.0,0.0
8589,71.0,0.0,120.0,7.0,0.0
8590,59.0,0.0,180.0,10.0,0.0
8591,59.0,48.0,180.0,1.0,0.0
8592,71.0,0.0,120.0,5.0,0.0
8593,73.0,120.0,120.0,5.0,0.0
8594,73.0,0.0,120.0,6.0,0.0
8595,73.0,0.0,120.0,7.0,0.0
8596,57.0,24.0,180.0,1.0,0.0
8597,81.0,0.0,180.0,0.0,0.0
8598,69.0,0.0,120.0,7.0,0.0
8599,66.0,24.0,180.0,2.0,0.0
8600,45.0,0.0,180.0,12.0,0.0
8601,69.0,0.0,120.0,6.0,0.0
8602,57.0,0.0,180.0,10.0,0.0
8603,69.0,48.0,120.0,5.0,0.0
8604,59.0,0.0,180.0,2.0,0.0
8605,45.0,0.0,180.0,11.0,0.0
8606,71.0,408.0,90.0,7.0,0.0
8607,71.0,0.0,90.0,6.0,0.0
8608,71.0,0.0,90.0,5.0,0.0
8609,68.0,0.0,390.0,2.0,0.0
8610,64.0,0.0,390.0,2.0,0.0
8611,56.0,0.0,390.0,10.0,0.0
8612,68.0,792.0,390.0,7.0,0.0
8613,44.0,0.0,390.0,11.0,0.0
8614,68.0,0.0,390.0,6.0,0.0
8615,56.0,0.0,390.0,1.0,0.0
8616,44.0,0.0,390.0,12.0,0.0
8617,68.0,0.0,390.0,5.0,0.0
8618,80.0,0.0,390.0,0.0,0.0
8619,76.0,0.0,210.0,6.0,0.0
8620,68.0,240.0,210.0,7.0,0.0
8621,83.0,192.0,720.0,5.0,0.0
8622,76.0,0.0,210.0,6.0,0.0
8623,68.0,240.0,210.0,7.0,0.0
8624,76.0,24.0,210.0,6.0,0.0
8625,68.0,0.0,210.0,7.0,0.0
8626,88.0,24.0,180.0,5.0,0.0
8627,68.0,0.0,210.0,7.0,0.0
8628,76.0,240.0,210.0,6.0,0.0
8629,69.0,240.0,210.0,7.0,0.0
8630,88.0,192.0,720.0,5.0,0.0
8631,76.0,0.0,210.0,6.0,0.0
8632,69.0,240.0,210.0,7.0,0.0
8633,76.0,0.0,210.0,6.0,0.0
8634,76.0,0.0,210.0,6.0,0.0
8635,69.0,24.0,210.0,7.0,0.0
8636,76.0,0.0,210.0,6.0,0.0
8637,85.0,24.0,180.0,5.0,0.0
8638,69.0,240.0,210.0,7.0,0.0
8639,76.0,24.0,210.0,6.0,0.0
8640,69.0,0.0,210.0,7.0,0.0
8641,85.0,216.0,240.0,5.0,0.0
8642,76.0,216.0,240.0,5.0,0.0
8643,69.0,24.0,210.0,7.0,0.0
8644,76.0,0.0,210.0,6.0,0.0
8645,69.0,0.0,210.0,7.0,0.0
8646,85.0,192.0,240.0,5.0,0.0
8647,76.0,24.0,210.0,6.0,0.0
8648,69.0,0.0,210.0,7.0,0.0
8649,88.0,24.0,180.0,5.0,0.0
8650,76.0,240.0,210.0,6.0,0.0
8651,88.0,192.0,720.0,5.0,0.0
8652,68.0,240.0,210.0,7.0,0.0
8653,76.0,0.0,210.0,6.0,0.0
8654,68.0,240.0,210.0,7.0,0.0
8655,76.0,0.0,210.0,6.0,0.0
8656,68.0,24.0,210.0,7.0,0.0
8657,76.0,0.0,210.0,6.0,0.0
8658,76.0,0.0,210.0,6.0,0.0
8659,83.0,24.0,180.0,5.0,0.0
8660,68.0,216.0,210.0,7.0,0.0
8661,76.0,0.0,180.0,6.0,0.0
8662,83.0,192.0,240.0,5.0,0.0
8663,68.0,48.0,180.0,7.0,0.0
8664,76.0,0.0,180.0,6.0,0.0
8665,68.0,48.0,180.0,7.0,0.0
8666,76.0,192.0,240.0,5.0,0.0
8667,68.0,48.0,180.0,7.0,0.0
8668,76.0,0.0,180.0,6.0,0.0
8669,83.0,192.0,240.0,5.0,0.0
8670,88.0,0.0,180.0,5.0,0.0
8671,68.0,108.0,180.0,7.0,0.0
8672,76.0,0.0,180.0,6.0,0.0
8673,76.0,48.0,180.0,6.0,0.0
8674,69.0,0.0,180.0,7.0,0.0
8675,85.0,60.0,60.0,5.0,0.0
8676,87.0,72.0,60.0,5.0,0.0
8677,88.0,300.0,120.0,5.0,0.0
8678,73.0,0.0,180.0,6.0,0.0
8679,78.0,60.0,60.0,5.0,0.0
8680,57.0,48.0,180.0,7.0,0.0
8681,80.0,72.0,60.0,5.0,0.0
8682,81.0,300.0,120.0,5.0,0.0
8683,59.0,48.0,180.0,7.0,0.0
8684,80.0,0.0,60.0,5.0,0.0
8685,64.0,60.0,60.0,6.0,0.0
8686,81.0,72.0,60.0,5.0,0.0
8687,66.0,0.0,60.0,6.0,0.0
8688,83.0,0.0,120.0,5.0,0.0
8689,68.0,300.0,120.0,6.0,0.0
8690,75.0,60.0,60.0,5.0,0.0
8691,66.0,0.0,60.0,6.0,0.0
8692,59.0,48.0,180.0,7.0,0.0
8693,68.0,0.0,60.0,6.0,0.0
8694,76.0,72.0,60.0,5.0,0.0
8695,69.0,432.0,120.0,6.0,0.0
8696,78.0,0.0,120.0,5.0,0.0
8697,76.0,0.0,780.0,6.0,0.0
8698,64.0,0.0,780.0,3.0,0.0
8699,64.0,0.0,780.0,2.0,0.0
8700,64.0,0.0,180.0,10.0,0.0
8701,64.0,0.0,180.0,1.0,0.0
8702,52.0,0.0,780.0,2.0,0.0
8703,64.0,0.0,780.0,7.0,0.0
8704,52.0,192.0,180.0,12.0,0.0
8705,76.0,0.0,780.0,5.0,0.0
8706,76.0,0.0,780.0,3.0,0.0
8707,52.0,48.0,390.0,4.0,0.0
8708,52.0,0.0,180.0,11.0,0.0
8709,68.0,0.0,780.0,6.0,0.0
8710,76.0,144.0,780.0,0.0,0.0
8711,52.0,0.0,180.0,12.0,0.0
8712,64.0,0.0,180.0,1.0,0.0
8713,52.0,240.0,180.0,11.0,0.0
8714,64.0,0.0,180.0,10.0,0.0
8715,64.0,0.0,180.0,10.0,0.0
8716,64.0,0.0,180.0,1.0,0.0
8717,52.0,96.0,180.0,12.0,0.0
8718,52.0,0.0,180.0,11.0,0.0
8719,64.0,0.0,180.0,10.0,0.0
8720,52.0,240.0,180.0,11.0,0.0
8721,52.0,0.0,180.0,12.0,0.0
8722,64.0,0.0,180.0,1.0,0.0
8723,80.0,0.0,570.0,0.0,0.0
8724,68.0,0.0,180.0,10.0,0.0
8725,80.0,0.0,570.0,5.0,0.0
8726,56.0,192.0,180.0,11.0,0.0
8727,68.0,96.0,570.0,7.0,0.0
8728,68.0,0.0,180.0,1.0,0.0
8729,56.0,0.0,570.0,2.0,0.0
8730,56.0,0.0,180.0,12.0,0.0
8731,68.0,0.0,570.0,2.0,0.0
8732,52.0,48.0,390.0,4.0,0.0
8733,80.0,0.0,570.0,6.0,0.0
8734,68.0,0.0,570.0,3.0,0.0
8735,80.0,0.0,570.0,3.0,0.0
8736,68.0,0.0,180.0,10.0,0.0
8737,68.0,0.0,180.0,1.0,0.0
8738,56.0,0.0,180.0,12.0,0.0
8739,56.0,144.0,180.0,11.0,0.0
8740,68.0,216.0,180.0,10.0,0.0
8741,68.0,0.0,180.0,1.0,0.0
8742,56.0,0.0,180.0,12.0,0.0
8743,56.0,0.0,180.0,11.0,0.0
8744,47.0,0.0,180.0,12.0,0.0
8745,59.0,0.0,180.0,1.0,0.0
8746,59.0,0.0,180.0,2.0,0.0
8747,71.0,24.0,180.0,6.0,0.0
8748,71.0,0.0,180.0,5.0,0.0
8749,59.0,0.0,180.0,7.0,0.0
8750,71.0,0.0,180.0,0.0,0.0
8751,71.0,0.0,180.0,3.0,0.0
8752,47.0,240.0,180.0,11.0,0.0
8753,59.0,0.0,180.0,10.0,0.0
8754,64.0,0.0,570.0,7.0,0.0
8755,76.0,0.0,570.0,5.0,0.0
8756,64.0,0.0,180.0,1.0,0.0
8757,64.0,192.0,180.0,10.0,0.0
8758,64.0,96.0,570.0,2.0,0.0
8759,76.0,0.0,570.0,6.0,0.0
8760,76.0,0.0,570.0,3.0,0.0
8761,52.0,48.0,390.0,4.0,0.0
8762,52.0,0.0,180.0,12.0,0.0
8763,52.0,0.0,180.0,11.0,0.0
8764,76.0,0.0,570.0,0.0,0.0
8765,64.0,144.0,180.0,1.0,0.0
8766,52.0,0.0,180.0,12.0,0.0
8767,52.0,0.0,180.0,11.0,0.0
8768,64.0,0.0,180.0,10.0,0.0
8769,52.0,0.0,180.0,11.0,0.0
8770,64.0,0.0,180.0,1.0,0.0
8771,52.0,0.0,180.0,12.0,0.0
8772,64.0,216.0,180.0,10.0,0.0
8773,68.0,0.0,180.0,5.0,0.0
8774,68.0,0.0,180.0,3.0,0.0
8775,44.0,0.0,180.0,12.0,0.0
8776,68.0,24.0,180.0,6.0,0.0
8777,44.0,216.0,180.0,11.0,0.0
8778,56.0,0.0,180.0,7.0,0.0
8779,56.0,0.0,180.0,10.0,0.0
8780,68.0,0.0,180.0,2.0,0.0
8781,68.0,0.0,180.0,0.0,0.0
8782,56.0,0.0,180.0,1.0,0.0
8783,56.0,0.0,180.0,2.0,0.0
8784,71.0,0.0,180.0,5.0,0.0
8785,71.0,0.0,180.0,3.0,0.0
8786,59.0,24.0,180.0,7.0,0.0
8787,47.0,24.0,390.0,4.0,0.0
8788,71.0,0.0,180.0,6.0,0.0
8789,47.0,0.0,180.0,12.0,0.0
8790,59.0,192.0,180.0,10.0,0.0
8791,71.0,0.0,180.0,0.0,0.0
8792,59.0,0.0,180.0,2.0,0.0
8793,59.0,0.0,180.0,1.0,0.0
8794,47.0,0.0,180.0,11.0,0.0
8795,71.0,0.0,180.0,2.0,0.0
8796,64.0,0.0,180.0,0.0,0.0
8797,64.0,0.0,180.0,2.0,0.0
8798,64.0,0.0,180.0,6.0,0.0
8799,52.0,24.0,180.0,2.0,0.0
8800,52.0,0.0,180.0,1.0,0.0
8801,52.0,0.0,180.0,10.0,0.0
8802,64.0,0.0,180.0,3.0,0.0
8803,40.0,0.0,180.0,11.0,0.0
8804,52.0,0.0,180.0,7.0,0.0
8805,40.0,216.0,180.0,12.0,0.0
8806,64.0,0.0,180.0,5.0,0.0
8807,47.0,24.0,390.0,4.0,0.0
8808,56.0,192.0,180.0,10.0,0.0
8809,68.0,0.0,180.0,0.0,0.0
8810,44.0,0.0,180.0,11.0,0.0
8811,68.0,0.0,180.0,3.0,0.0
8812,56.0,0.0,180.0,7.0,0.0
8813,68.0,0.0,180.0,5.0,0.0
8814,56.0,0.0,180.0,1.0,0.0
8815,44.0,0.0,180.0,12.0,0.0
8816,68.0,0.0,180.0,2.0,0.0
8817,68.0,0.0,180.0,6.0,0.0
8818,56.0,24.0,180.0,2.0,0.0
8819,71.0,0.0,180.0,0.0,0.0
8820,59.0,0.0,180.0,6.0,0.0
8821,35.0,0.0,180.0,11.0,0.0
8822,59.0,0.0,180.0,3.0,0.0
8823,71.0,24.0,180.0,3.0,0.0
8824,59.0,0.0,180.0,2.0,0.0
8825,47.0,0.0,180.0,10.0,0.0
8826,59.0,0.0,180.0,7.0,0.0
8827,35.0,144.0,180.0,12.0,0.0
8828,59.0,0.0,180.0,5.0,0.0
8829,47.0,0.0,180.0,2.0,0.0
8830,47.0,0.0,180.0,1.0,0.0
8831,76.0,48.0,420.0,0.0,0.0
8832,40.0,0.0,390.0,11.0,0.0
8833,52.0,0.0,390.0,2.0,0.0
8834,64.0,0.0,390.0,7.0,0.0
8835,64.0,0.0,90.0,6.0,0.0
8836,64.0,0.0,390.0,2.0,0.0
8837,64.0,0.0,390.0,3.0,0.0
8838,52.0,0.0,390.0,4.0,0.0
8839,40.0,0.0,390.0,12.0,0.0
8840,52.0,24.0,390.0,10.0,0.0
8841,64.0,120.0,90.0,5.0,0.0
8842,52.0,0.0,390.0,1.0,0.0
8843,68.0,0.0,390.0,3.0,0.0
8844,64.0,120.0,90.0,5.0,0.0
8845,64.0,0.0,90.0,6.0,0.0
8846,59.0,0.0,90.0,5.0,0.0
8847,71.0,0.0,180.0,0.0,0.0
8848,59.0,48.0,90.0,6.0,0.0
8849,59.0,120.0,90.0,6.0,0.0
8850,59.0,0.0,90.0,5.0,0.0
8851,61.0,0.0,90.0,5.0,0.0
8852,73.0,48.0,180.0,0.0,0.0
8853,61.0,72.0,90.0,6.0,0.0
8854,61.0,120.0,90.0,6.0,0.0
8855,61.0,0.0,90.0,5.0,0.0
8856,63.0,0.0,90.0,6.0,0.0
8857,63.0,72.0,90.0,5.0,0.0
8858,75.0,48.0,180.0,0.0,0.0
8859,63.0,120.0,90.0,5.0,0.0
8860,63.0,0.0,90.0,6.0,0.0
8861,68.0,0.0,390.0,3.0,0.0
8862,52.0,0.0,390.0,12.0,0.0
8863,64.0,72.0,390.0,1.0,0.0
8864,56.0,0.0,390.0,2.0,0.0
8865,64.0,120.0,90.0,6.0,0.0
8866,64.0,0.0,390.0,10.0,0.0
8867,56.0,0.0,390.0,7.0,0.0
8868,64.0,0.0,390.0,2.0,0.0
8869,52.0,0.0,390.0,4.0,0.0
8870,52.0,0.0,390.0,11.0,0.0
8871,64.0,0.0,90.0,5.0,0.0
8872,76.0,0.0,390.0,0.0,0.0
8873,76.0,0.0,390.0,3.0,0.0
8874,64.0,120.0,90.0,6.0,0.0
8875,64.0,0.0,90.0,5.0,0.0
8876,59.0,0.0,90.0,5.0,0.0
8877,59.0,48.0,90.0,6.0,0.0
8878,59.0,0.0,90.0,5.0,0.0
8879,59.0,120.0,90.0,6.0,0.0
8880,59.0,72.0,390.0,2.0,0.0
8881,66.0,0.0,390.0,2.0,0.0
8882,78.0,0.0,390.0,3.0,0.0
8883,66.0,0.0,90.0,5.0,0.0
8884,47.0,0.0,390.0,12.0,0.0
8885,47.0,0.0,390.0,4.0,0.0
8886,63.0,120.0,90.0,6.0,0.0
8887,59.0,0.0,390.0,10.0,0.0
8888,78.0,0.0,390.0,0.0,0.0
8889,47.0,0.0,390.0,11.0,0.0
8890,59.0,0.0,390.0,7.0,0.0
8891,59.0,0.0,390.0,1.0,0.0
8892,71.0,0.0,390.0,3.0,0.0
8893,63.0,120.0,90.0,6.0,0.0
8894,66.0,0.0,90.0,5.0,0.0
8895,59.0,0.0,90.0,5.0,0.0
8896,59.0,48.0,90.0,6.0,0.0
8897,59.0,0.0,90.0,5.0,0.0
8898,59.0,120.0,90.0,6.0,0.0
8899,52.0,0.0,390.0,4.0,0.0
8900,80.0,0.0,390.0,3.0,0.0
8901,76.0,48.0,390.0,3.0,0.0
8902,64.0,0.0,390.0,2.0,0.0
8903,68.0,0.0,90.0,5.0,0.0
8904,68.0,0.0,390.0,2.0,0.0
8905,40.0,0.0,390.0,11.0,0.0
8906,40.0,0.0,390.0,12.0,0.0
8907,64.0,96.0,90.0,6.0,0.0
8908,52.0,0.0,390.0,1.0,0.0
8909,52.0,0.0,390.0,10.0,0.0
8910,59.0,0.0,390.0,7.0,0.0
8911,76.0,0.0,180.0,0.0,0.0
8912,80.0,24.0,180.0,0.0,0.0
8913,64.0,0.0,90.0,6.0,0.0
8914,68.0,120.0,90.0,5.0,0.0
8915,71.0,24.0,180.0,0.0,0.0
8916,75.0,0.0,180.0,0.0,0.0
8917,59.0,48.0,90.0,6.0,0.0
8918,63.0,0.0,90.0,5.0,0.0
8919,59.0,120.0,90.0,6.0,0.0
8920,63.0,0.0,90.0,5.0,0.0
8921,64.0,0.0,90.0,5.0,0.0
8922,61.0,96.0,90.0,6.0,0.0
8923,73.0,24.0,180.0,0.0,0.0
8924,76.0,0.0,180.0,0.0,0.0
8925,64.0,0.0,90.0,5.0,0.0
8926,61.0,120.0,90.0,6.0,0.0
8927,63.0,0.0,90.0,6.0,0.0
8928,66.0,96.0,90.0,5.0,0.0
8929,75.0,24.0,180.0,0.0,0.0
8930,78.0,0.0,180.0,0.0,0.0
8931,63.0,120.0,90.0,6.0,0.0
8932,66.0,0.0,90.0,5.0,0.0
8933,52.0,0.0,390.0,10.0,0.0
8934,40.0,0.0,390.0,12.0,0.0
8935,52.0,0.0,390.0,2.0,0.0
8936,64.0,0.0,390.0,2.0,0.0
8937,64.0,0.0,90.0,6.0,0.0
8938,80.0,0.0,390.0,0.0,0.0
8939,76.0,0.0,390.0,0.0,0.0
8940,76.0,72.0,390.0,3.0,0.0
8941,40.0,0.0,390.0,11.0,0.0
8942,64.0,0.0,390.0,3.0,0.0
8943,52.0,0.0,390.0,4.0,0.0
8944,59.0,0.0,390.0,7.0,0.0
8945,52.0,0.0,390.0,1.0,0.0
8946,68.0,120.0,90.0,5.0,0.0
8947,68.0,120.0,90.0,5.0,0.0
8948,64.0,0.0,90.0,6.0,0.0
8949,64.0,48.0,90.0,5.0,0.0
8950,59.0,0.0,90.0,6.0,0.0
8951,59.0,0.0,90.0,6.0,0.0
8952,64.0,120.0,90.0,5.0,0.0
8953,52.0,72.0,390.0,4.0,0.0
8954,76.0,0.0,390.0,3.0,0.0
8955,64.0,0.0,390.0,2.0,0.0
8956,52.0,0.0,390.0,2.0,0.0
8957,78.0,0.0,390.0,0.0,0.0
8958,81.0,0.0,390.0,0.0,0.0
8959,64.0,0.0,390.0,10.0,0.0
8960,64.0,0.0,390.0,3.0,0.0
8961,52.0,0.0,390.0,11.0,0.0
8962,66.0,0.0,90.0,6.0,0.0
8963,52.0,0.0,390.0,12.0,0.0
8964,59.0,0.0,390.0,7.0,0.0
8965,64.0,0.0,390.0,1.0,0.0
8966,69.0,120.0,90.0,5.0,0.0
8967,69.0,0.0,90.0,5.0,0.0
8968,66.0,120.0,90.0,6.0,0.0
8969,66.0,48.0,90.0,5.0,0.0
8970,59.0,0.0,90.0,6.0,0.0
8971,66.0,120.0,90.0,5.0,0.0
8972,59.0,0.0,90.0,6.0,0.0
8973,52.0,0.0,390.0,10.0,0.0
8974,64.0,0.0,1740.0,2.0,0.0
8975,52.0,0.0,390.0,1.0,0.0
8976,83.0,144.0,1740.0,0.0,0.0
8977,80.0,0.0,1740.0,0.0,0.0
8978,59.0,0.0,390.0,7.0,0.0
8979,68.0,0.0,90.0,6.0,0.0
8980,40.0,0.0,390.0,11.0,0.0
8981,52.0,0.0,1740.0,2.0,0.0
8982,64.0,0.0,390.0,3.0,0.0
8983,40.0,72.0,390.0,12.0,0.0
8984,76.0,0.0,390.0,3.0,0.0
8985,71.0,120.0,90.0,5.0,0.0
8986,52.0,0.0,390.0,4.0,0.0
8987,64.0,0.0,90.0,6.0,0.0
8988,64.0,120.0,90.0,5.0,0.0
8989,66.0,48.0,90.0,6.0,0.0
8990,66.0,0.0,90.0,5.0,0.0
8991,68.0,0.0,90.0,6.0,0.0
8992,68.0,120.0,90.0,5.0,0.0
8993,69.0,0.0,90.0,6.0,0.0
8994,69.0,120.0,90.0,5.0,0.0
8995,71.0,0.0,90.0,5.0,0.0
8996,71.0,120.0,90.0,6.0,0.0
8997,73.0,0.0,90.0,5.0,0.0
8998,73.0,120.0,90.0,6.0,0.0
8999,75.0,0.0,90.0,5.0,0.0
9000,75.0,120.0,90.0,6.0,0.0
9001,76.0,120.0,90.0,5.0,0.0
9002,76.0,0.0,90.0,6.0,0.0
9003,78.0,0.0,90.0,6.0,0.0
9004,78.0,120.0,90.0,5.0,0.0
9005,80.0,120.0,90.0,6.0,0.0
9006,80.0,0.0,90.0,5.0,0.0
9007,81.0,0.0,90.0,6.0,0.0
9008,81.0,216.0,90.0,5.0,0.0
9009,83.0,0.0,180.0,6.0,0.0
9010,83.0,96.0,180.0,5.0,0.0
9011,76.0,0.0,180.0,5.0,0.0
9012,76.0,312.0,180.0,6.0,0.0
9013,85.0,0.0,270.0,5.0,0.0
9014,76.0,0.0,270.0,6.0,0.0
9015,64.0,0.0,270.0,2.0,0.0
9016,85.0,0.0,270.0,6.0,0.0
9017,52.0,0.0,270.0,4.0,0.0
9018,64.0,0.0,270.0,3.0,0.0
9019,76.0,0.0,270.0,5.0,0.0
9020,69.0,0.0,270.0,7.0,0.0
9021,69.0,0.0,270.0,5.0,0.0
9022,45.0,0.0,270.0,12.0,0.0
9023,45.0,0.0,270.0,11.0,0.0
9024,52.0,0.0,270.0,2.0,0.0
9025,81.0,0.0,270.0,0.0,0.0
9026,69.0,0.0,270.0,6.0,0.0
9027,76.0,480.0,270.0,3.0,0.0
9028,57.0,0.0,270.0,10.0,0.0
9029,57.0,0.0,270.0,1.0,0.0
9030,85.0,0.0,270.0,0.0,0.0
9031,83.0,0.0,270.0,6.0,0.0
9032,76.0,0.0,270.0,5.0,0.0
9033,64.0,0.0,270.0,7.0,0.0
9034,64.0,0.0,270.0,2.0,0.0
9035,52.0,0.0,270.0,2.0,0.0
9036,68.0,0.0,270.0,5.0,0.0
9037,83.0,0.0,270.0,5.0,0.0
9038,52.0,0.0,270.0,1.0,0.0
9039,76.0,0.0,270.0,6.0,0.0
9040,64.0,0.0,270.0,3.0,0.0
9041,83.0,0.0,270.0,0.0,0.0
9042,80.0,0.0,270.0,0.0,0.0
9043,76.0,0.0,270.0,3.0,0.0
9044,40.0,0.0,270.0,11.0,0.0
9045,68.0,0.0,270.0,6.0,0.0
9046,40.0,0.0,270.0,12.0,0.0
9047,52.0,0.0,270.0,10.0,0.0
9048,52.0,816.0,270.0,4.0,0.0
9049,85.0,120.0,120.0,5.0,0.0
9050,83.0,120.0,120.0,5.0,0.0
9051,81.0,96.0,120.0,5.0,0.0
9052,80.0,204.0,90.0,5.0,0.0
9053,76.0,0.0,180.0,6.0,0.0
9054,70.0,60.0,180.0,7.0,0.0
9055,80.0,180.0,240.0,5.0,0.0
9056,76.0,0.0,180.0,6.0,0.0
9057,70.0,12.0,180.0,7.0,0.0
9058,78.0,228.0,180.0,5.0,0.0
9059,78.0,36.0,870.0,5.0,0.0
9060,76.0,240.0,180.0,6.0,0.0
9061,70.0,0.0,180.0,7.0,0.0
9062,70.0,240.0,180.0,7.0,0.0
9063,76.0,0.0,180.0,6.0,0.0
9064,70.0,204.0,180.0,7.0,0.0
9065,76.0,0.0,180.0,6.0,0.0
9066,70.0,0.0,180.0,7.0,0.0
9067,76.0,240.0,180.0,6.0,0.0
9068,76.0,240.0,180.0,6.0,0.0
9069,80.0,180.0,720.0,5.0,0.0
9070,71.0,0.0,180.0,7.0,0.0
9071,71.0,0.0,180.0,7.0,0.0
9072,76.0,240.0,180.0,6.0,0.0
9073,76.0,60.0,180.0,6.0,0.0
9074,73.0,0.0,180.0,7.0,0.0
9075,81.0,228.0,180.0,5.0,0.0
9076,76.0,0.0,180.0,6.0,0.0
9077,73.0,12.0,180.0,7.0,0.0
9078,76.0,0.0,180.0,6.0,0.0
9079,73.0,240.0,180.0,7.0,0.0
9080,81.0,36.0,870.0,5.0,0.0
9081,73.0,240.0,180.0,7.0,0.0
9082,76.0,0.0,180.0,6.0,0.0
9083,73.0,204.0,180.0,7.0,0.0
9084,76.0,0.0,180.0,6.0,0.0
9085,76.0,0.0,180.0,6.0,0.0
9086,73.0,240.0,180.0,7.0,0.0
9087,83.0,180.0,720.0,5.0,0.0
9088,76.0,0.0,180.0,6.0,0.0
9089,68.0,240.0,180.0,7.0,0.0
9090,76.0,0.0,180.0,6.0,0.0
9091,68.0,240.0,180.0,7.0,0.0
9092,69.0,0.0,180.0,7.0,0.0
9093,76.0,60.0,180.0,6.0,0.0
9094,84.0,228.0,180.0,5.0,0.0
9095,69.0,12.0,180.0,7.0,0.0
9096,76.0,0.0,180.0,6.0,0.0
9097,84.0,36.0,870.0,5.0,0.0
9098,76.0,0.0,180.0,6.0,0.0
9099,69.0,240.0,180.0,7.0,0.0
9100,69.0,0.0,180.0,7.0,0.0
9101,76.0,240.0,180.0,6.0,0.0
9102,69.0,204.0,180.0,7.0,0.0
9103,76.0,0.0,180.0,6.0,0.0
9104,76.0,0.0,180.0,6.0,0.0
9105,69.0,240.0,180.0,7.0,0.0
9106,83.0,180.0,720.0,5.0,0.0
9107,67.0,0.0,180.0,7.0,0.0
9108,76.0,240.0,180.0,6.0,0.0
9109,67.0,0.0,180.0,7.0,0.0
9110,76.0,240.0,180.0,6.0,0.0
9111,66.0,0.0,180.0,7.0,0.0
9112,76.0,60.0,180.0,6.0,0.0
9113,66.0,0.0,180.0,7.0,0.0
9114,82.0,228.0,180.0,5.0,0.0
9115,76.0,12.0,180.0,6.0,0.0
9116,76.0,240.0,180.0,6.0,0.0
9117,82.0,36.0,870.0,5.0,0.0
9118,66.0,0.0,180.0,7.0,0.0
9119,66.0,240.0,180.0,7.0,0.0
9120,76.0,0.0,180.0,6.0,0.0
9121,76.0,204.0,180.0,6.0,0.0
9122,66.0,0.0,180.0,7.0,0.0
9123,76.0,240.0,180.0,6.0,0.0
9124,66.0,0.0,180.0,7.0,0.0
9125,81.0,192.0,720.0,5.0,0.0
9126,75.0,0.0,180.0,6.0,0.0
9127,59.0,240.0,180.0,7.0,0.0
9128,59.0,0.0,180.0,7.0,0.0
9129,75.0,300.0,180.0,6.0,0.0
9130,64.0,96.0,780.0,7.0,0.0
9131,76.0,240.0,480.0,6.0,0.0
9132,80.0,48.0,180.0,5.0,0.0
9133,71.0,48.0,390.0,6.0,0.0
9134,80.0,48.0,240.0,5.0,0.0
9135,79.0,288.0,180.0,5.0,0.0
9136,79.0,192.0,240.0,5.0,0.0
9137,73.0,144.0,780.0,6.0,0.0
9138,58.0,0.0,780.0,7.0,0.0
9139,78.0,288.0,180.0,5.0,0.0
9140,78.0,48.0,240.0,5.0,0.0
9141,76.0,144.0,180.0,5.0,0.0
9142,71.0,120.0,90.0,6.0,0.0
9143,75.0,72.0,390.0,5.0,0.0
9144,59.0,0.0,90.0,6.0,0.0
9145,71.0,0.0,90.0,7.0,0.0
9146,59.0,0.0,90.0,7.0,0.0
9147,59.0,120.0,90.0,6.0,0.0
9148,59.0,0.0,90.0,7.0,0.0
9149,71.0,0.0,90.0,7.0,0.0
9150,71.0,0.0,90.0,6.0,0.0
9151,71.0,0.0,90.0,6.0,0.0
9152,59.0,0.0,90.0,6.0,0.0
9153,59.0,48.0,90.0,7.0,0.0
9154,71.0,0.0,90.0,7.0,0.0
9155,71.0,0.0,90.0,7.0,0.0
9156,59.0,0.0,90.0,7.0,0.0
9157,71.0,0.0,90.0,6.0,0.0
9158,59.0,120.0,90.0,6.0,0.0
9159,71.0,0.0,90.0,7.0,0.0
9160,71.0,120.0,90.0,6.0,0.0
9161,59.0,0.0,90.0,6.0,0.0
9162,59.0,0.0,90.0,7.0,0.0
9163,59.0,0.0,90.0,7.0,0.0
9164,71.0,0.0,90.0,7.0,0.0
9165,59.0,120.0,90.0,6.0,0.0
9166,71.0,0.0,90.0,6.0,0.0
9167,59.0,0.0,90.0,6.0,0.0
9168,71.0,0.0,90.0,7.0,0.0
9169,71.0,120.0,90.0,6.0,0.0
9170,59.0,0.0,90.0,7.0,0.0
9171,59.0,0.0,90.0,6.0,0.0
9172,59.0,120.0,90.0,7.0,0.0
9173,71.0,0.0,90.0,7.0,0.0
9174,71.0,0.0,90.0,6.0,0.0
9175,71.0,0.0,90.0,7.0,0.0
9176,59.0,60.0,90.0,7.0,0.0
9177,47.0,12.0,150.0,10.0,0.0
9178,35.0,24.0,180.0,12.0,0.0
9179,47.0,12.0,390.0,4.0,0.0
9180,47.0,0.0,180.0,1.0,0.0
9181,59.0,0.0,90.0,6.0,0.0
9182,75.0,0.0,180.0,0.0,0.0
9183,59.0,0.0,180.0,2.0,0.0
9184,66.0,0.0,180.0,2.0,0.0
9185,71.0,24.0,180.0,3.0,0.0
9186,71.0,0.0,90.0,6.0,0.0
9187,35.0,0.0,180.0,11.0,0.0
9188,75.0,0.0,330.0,5.0,0.0
9189,69.0,0.0,180.0,0.0,0.0
9190,59.0,0.0,330.0,5.0,0.0
9191,66.0,0.0,330.0,5.0,0.0
9192,59.0,0.0,90.0,6.0,0.0
9193,71.0,0.0,90.0,6.0,0.0
9194,71.0,120.0,90.0,7.0,0.0
9195,59.0,0.0,90.0,7.0,0.0
9196,47.0,24.0,180.0,11.0,0.0
9197,66.0,0.0,180.0,2.0,0.0
9198,59.0,0.0,180.0,2.0,0.0
9199,59.0,12.0,150.0,10.0,0.0
9200,71.0,24.0,180.0,3.0,0.0
9201,71.0,0.0,90.0,7.0,0.0
9202,59.0,48.0,90.0,7.0,0.0
9203,59.0,0.0,180.0,1.0,0.0
9204,71.0,0.0,90.0,6.0,0.0
9205,59.0,0.0,90.0,6.0,0.0
9206,47.0,0.0,180.0,12.0,0.0
9207,75.0,0.0,180.0,0.0,0.0
9208,69.0,0.0,180.0,0.0,0.0
9209,59.0,0.0,90.0,7.0,0.0
9210,71.0,0.0,90.0,7.0,0.0
9211,59.0,0.0,90.0,6.0,0.0
9212,71.0,120.0,90.0,6.0,0.0
9213,71.0,0.0,180.0,3.0,0.0
9214,71.0,0.0,90.0,7.0,0.0
9215,47.0,12.0,390.0,4.0,0.0
9216,66.0,0.0,180.0,2.0,0.0
9217,59.0,0.0,180.0,2.0,0.0
9218,71.0,0.0,90.0,6.0,0.0
9219,35.0,24.0,180.0,12.0,0.0
9220,59.0,0.0,330.0,5.0,0.0
9221,75.0,0.0,330.0,5.0,0.0
9222,66.0,0.0,330.0,5.0,0.0
9223,47.0,0.0,180.0,1.0,0.0
9224,59.0,0.0,90.0,6.0,0.0
9225,35.0,0.0,180.0,11.0,0.0
9226,47.0,12.0,150.0,10.0,0.0
9227,69.0,0.0,180.0,0.0,0.0
9228,59.0,60.0,90.0,7.0,0.0
9229,75.0,24.0,180.0,0.0,0.0
9230,59.0,0.0,90.0,6.0,0.0
9231,71.0,0.0,90.0,7.0,0.0
9232,59.0,120.0,90.0,7.0,0.0
9233,71.0,0.0,90.0,6.0,0.0
9234,71.0,0.0,90.0,6.0,0.0
9235,75.0,0.0,180.0,0.0,0.0
9236,47.0,0.0,180.0,12.0,0.0
9237,71.0,0.0,180.0,3.0,0.0
9238,59.0,0.0,180.0,1.0,0.0
9239,59.0,12.0,150.0,10.0,0.0
9240,59.0,0.0,90.0,6.0,0.0
9241,69.0,24.0,180.0,0.0,0.0
9242,47.0,24.0,180.0,11.0,0.0
9243,66.0,0.0,180.0,2.0,0.0
9244,59.0,48.0,90.0,7.0,0.0
9245,59.0,0.0,180.0,2.0,0.0
9246,71.0,0.0,90.0,7.0,0.0
9247,71.0,0.0,90.0,7.0,0.0
9248,71.0,0.0,90.0,6.0,0.0
9249,59.0,0.0,90.0,6.0,0.0
9250,59.0,120.0,90.0,7.0,0.0
9251,71.0,0.0,90.0,7.0,0.0
9252,68.0,0.0,390.0,2.0,0.0
9253,64.0,0.0,390.0,2.0,0.0
9254,35.0,0.0,390.0,12.0,0.0
9255,71.0,0.0,90.0,6.0,0.0
9256,35.0,0.0,390.0,11.0,0.0
9257,68.0,0.0,390.0,0.0,0.0
9258,47.0,0.0,390.0,10.0,0.0
9259,76.0,0.0,390.0,0.0,0.0
9260,59.0,120.0,90.0,6.0,0.0
9261,59.0,0.0,90.0,7.0,0.0
9262,47.0,0.0,390.0,1.0,0.0
9263,71.0,0.0,390.0,3.0,0.0
9264,47.0,72.0,390.0,4.0,0.0
9265,59.0,0.0,390.0,5.0,0.0
9266,68.0,0.0,390.0,5.0,0.0
9267,76.0,0.0,390.0,5.0,0.0
9268,71.0,0.0,90.0,7.0,0.0
9269,59.0,0.0,90.0,7.0,0.0
9270,71.0,120.0,90.0,6.0,0.0
9271,59.0,0.0,90.0,6.0,0.0
9272,71.0,0.0,90.0,6.0,0.0
9273,59.0,48.0,90.0,6.0,0.0
9274,71.0,0.0,90.0,7.0,0.0
9275,59.0,0.0,90.0,7.0,0.0
9276,71.0,0.0,90.0,6.0,0.0
9277,59.0,0.0,90.0,6.0,0.0
9278,71.0,120.0,90.0,7.0,0.0
9279,59.0,0.0,90.0,7.0,0.0
9280,59.0,0.0,90.0,7.0,0.0
9281,71.0,0.0,90.0,7.0,0.0
9282,59.0,0.0,90.0,6.0,0.0
9283,71.0,120.0,90.0,6.0,0.0
9284,59.0,0.0,90.0,7.0,0.0
9285,71.0,0.0,90.0,7.0,0.0
9286,71.0,0.0,90.0,6.0,0.0
9287,59.0,120.0,90.0,6.0,0.0
9288,71.0,0.0,90.0,7.0,0.0
9289,59.0,120.0,90.0,7.0,0.0
9290,59.0,0.0,90.0,6.0,0.0
9291,71.0,0.0,90.0,6.0,0.0
9292,71.0,120.0,90.0,6.0,0.0
9293,71.0,0.0,90.0,7.0,0.0
9294,59.0,0.0,90.0,7.0,0.0
9295,59.0,0.0,90.0,6.0,0.0
9296,35.0,24.0,180.0,11.0,0.0
9297,71.0,0.0,90.0,7.0,0.0
9298,59.0,0.0,90.0,7.0,0.0
9299,35.0,0.0,180.0,12.0,0.0
9300,47.0,12.0,390.0,4.0,0.0
9301,59.0,60.0,90.0,6.0,0.0
9302,47.0,0.0,180.0,1.0,0.0
9303,76.0,0.0,180.0,0.0,0.0
9304,68.0,24.0,180.0,0.0,0.0
9305,47.0,12.0,150.0,10.0,0.0
9306,76.0,0.0,330.0,5.0,0.0
9307,68.0,0.0,330.0,5.0,0.0
9308,71.0,0.0,180.0,3.0,0.0
9309,59.0,0.0,330.0,5.0,0.0
9310,68.0,0.0,180.0,2.0,0.0
9311,64.0,0.0,180.0,2.0,0.0
9312,71.0,0.0,90.0,6.0,0.0
9313,59.0,0.0,90.0,6.0,0.0
9314,71.0,0.0,90.0,7.0,0.0
9315,71.0,120.0,90.0,6.0,0.0
9316,59.0,0.0,90.0,7.0,0.0
9317,68.0,0.0,180.0,2.0,0.0
9318,71.0,0.0,180.0,3.0,0.0
9319,59.0,0.0,180.0,1.0,0.0
9320,64.0,24.0,180.0,2.0,0.0
9321,71.0,48.0,90.0,7.0,0.0
9322,59.0,0.0,90.0,6.0,0.0
9323,47.0,24.0,180.0,11.0,0.0
9324,71.0,0.0,90.0,6.0,0.0
9325,76.0,0.0,180.0,0.0,0.0
9326,68.0,0.0,180.0,0.0,0.0
9327,47.0,0.0,180.0,12.0,0.0
9328,59.0,0.0,90.0,7.0,0.0
9329,59.0,12.0,150.0,10.0,0.0
9330,71.0,0.0,90.0,6.0,0.0
9331,59.0,0.0,90.0,6.0,0.0
9332,71.0,120.0,90.0,7.0,0.0
9333,59.0,0.0,90.0,7.0,0.0
9334,47.0,12.0,390.0,4.0,0.0
9335,71.0,0.0,180.0,3.0,0.0
9336,71.0,60.0,90.0,6.0,0.0
9337,64.0,0.0,180.0,2.0,0.0
9338,35.0,0.0,180.0,11.0,0.0
9339,68.0,0.0,180.0,0.0,0.0
9340,76.0,0.0,180.0,0.0,0.0
9341,59.0,0.0,90.0,7.0,0.0
9342,71.0,0.0,90.0,7.0,0.0
9343,68.0,0.0,180.0,2.0,0.0
9344,59.0,0.0,90.0,6.0,0.0
9345,59.0,0.0,330.0,5.0,0.0
9346,76.0,0.0,330.0,5.0,0.0
9347,35.0,24.0,180.0,12.0,0.0
9348,47.0,24.0,180.0,1.0,0.0
9349,68.0,0.0,330.0,5.0,0.0
9350,47.0,12.0,150.0,10.0,0.0
9351,59.0,120.0,90.0,7.0,0.0
9352,71.0,0.0,90.0,7.0,0.0
9353,59.0,0.0,90.0,6.0,0.0
9354,71.0,0.0,90.0,6.0,0.0
9355,59.0,0.0,90.0,6.0,0.0
9356,47.0,24.0,180.0,11.0,0.0
9357,59.0,12.0,150.0,10.0,0.0
9358,68.0,0.0,180.0,2.0,0.0
9359,64.0,24.0,180.0,2.0,0.0
9360,59.0,0.0,180.0,1.0,0.0
9361,47.0,0.0,180.0,12.0,0.0
9362,71.0,0.0,180.0,3.0,0.0
9363,76.0,0.0,180.0,0.0,0.0
9364,68.0,0.0,180.0,0.0,0.0
9365,59.0,0.0,90.0,7.0,0.0
9366,71.0,48.0,90.0,7.0,0.0
9367,71.0,0.0,90.0,6.0,0.0
9368,59.0,0.0,90.0,7.0,0.0
9369,71.0,0.0,90.0,7.0,0.0
9370,59.0,0.0,90.0,6.0,0.0
9371,71.0,120.0,90.0,6.0,0.0
9372,75.0,0.0,390.0,0.0,0.0
9373,35.0,0.0,390.0,12.0,0.0
9374,78.0,72.0,390.0,0.0,0.0
9375,59.0,0.0,390.0,5.0,0.0
9376,47.0,0.0,390.0,1.0,0.0
9377,71.0,120.0,90.0,7.0,0.0
9378,59.0,0.0,90.0,6.0,0.0
9379,71.0,0.0,390.0,5.0,0.0
9380,66.0,0.0,390.0,2.0,0.0
9381,69.0,0.0,390.0,2.0,0.0
9382,59.0,0.0,90.0,7.0,0.0
9383,71.0,0.0,90.0,6.0,0.0
9384,47.0,0.0,390.0,10.0,0.0
9385,71.0,0.0,390.0,3.0,0.0
9386,35.0,0.0,390.0,11.0,0.0
9387,47.0,0.0,390.0,4.0,0.0
9388,78.0,0.0,390.0,5.0,0.0
9389,59.0,0.0,90.0,7.0,0.0
9390,71.0,120.0,90.0,7.0,0.0
9391,59.0,0.0,90.0,6.0,0.0
9392,71.0,0.0,90.0,6.0,0.0
9393,59.0,48.0,90.0,6.0,0.0
9394,71.0,0.0,90.0,7.0,0.0
9395,71.0,0.0,90.0,6.0,0.0
9396,59.0,0.0,90.0,7.0,0.0
9397,71.0,0.0,90.0,6.0,0.0
9398,59.0,0.0,90.0,6.0,0.0
9399,59.0,120.0,90.0,7.0,0.0
9400,71.0,0.0,90.0,7.0,0.0
9401,59.0,0.0,90.0,7.0,0.0
9402,71.0,0.0,90.0,7.0,0.0
9403,71.0,0.0,90.0,6.0,0.0
9404,59.0,120.0,90.0,6.0,0.0
9405,59.0,120.0,90.0,6.0,0.0
9406,71.0,0.0,90.0,7.0,0.0
9407,71.0,0.0,90.0,6.0,0.0
9408,59.0,0.0,90.0,7.0,0.0
9409,59.0,120.0,90.0,7.0,0.0
9410,59.0,0.0,90.0,6.0,0.0
9411,71.0,0.0,90.0,6.0,0.0
9412,71.0,0.0,90.0,7.0,0.0
9413,59.0,0.0,90.0,7.0,0.0
9414,71.0,120.0,90.0,7.0,0.0
9415,71.0,0.0,90.0,6.0,0.0
9416,59.0,0.0,90.0,6.0,0.0
9417,47.0,12.0,150.0,10.0,0.0
9418,66.0,0.0,180.0,2.0,0.0
9419,69.0,0.0,180.0,2.0,0.0
9420,47.0,12.0,390.0,4.0,0.0
9421,35.0,0.0,180.0,11.0,0.0
9422,71.0,0.0,180.0,3.0,0.0
9423,75.0,0.0,180.0,0.0,0.0
9424,78.0,24.0,180.0,0.0,0.0
9425,71.0,0.0,90.0,6.0,0.0
9426,59.0,0.0,330.0,5.0,0.0
9427,71.0,0.0,330.0,5.0,0.0
9428,47.0,0.0,180.0,1.0,0.0
9429,78.0,0.0,330.0,5.0,0.0
9430,71.0,60.0,90.0,7.0,0.0
9431,59.0,0.0,90.0,7.0,0.0
9432,35.0,24.0,180.0,12.0,0.0
9433,59.0,0.0,90.0,6.0,0.0
9434,59.0,0.0,90.0,6.0,0.0
9435,71.0,0.0,90.0,6.0,0.0
9436,71.0,0.0,90.0,7.0,0.0
9437,59.0,120.0,90.0,7.0,0.0
9438,78.0,0.0,180.0,0.0,0.0
9439,59.0,48.0,90.0,6.0,0.0
9440,71.0,0.0,90.0,6.0,0.0
9441,59.0,12.0,150.0,10.0,0.0
9442,69.0,0.0,180.0,2.0,0.0
9443,66.0,0.0,180.0,2.0,0.0
9444,71.0,24.0,180.0,3.0,0.0
9445,75.0,0.0,180.0,0.0,0.0
9446,47.0,0.0,180.0,11.0,0.0
9447,59.0,0.0,180.0,1.0,0.0
9448,71.0,0.0,90.0,7.0,0.0
9449,59.0,0.0,90.0,7.0,0.0
9450,47.0,24.0,180.0,12.0,0.0
9451,71.0,120.0,90.0,6.0,0.0
9452,59.0,0.0,90.0,7.0,0.0
9453,71.0,0.0,90.0,7.0,0.0
9454,59.0,0.0,90.0,6.0,0.0
9455,78.0,0.0,330.0,5.0,0.0
9456,35.0,24.0,180.0,12.0,0.0
9457,47.0,12.0,150.0,10.0,0.0
9458,71.0,0.0,180.0,3.0,0.0
9459,71.0,48.0,330.0,5.0,0.0
9460,59.0,0.0,90.0,6.0,0.0
9461,59.0,0.0,330.0,5.0,0.0
9462,71.0,60.0,90.0,6.0,0.0
9463,66.0,0.0,180.0,2.0,0.0
9464,35.0,0.0,180.0,11.0,0.0
9465,71.0,0.0,90.0,7.0,0.0
9466,59.0,0.0,90.0,7.0,0.0
9467,75.0,0.0,180.0,0.0,0.0
9468,78.0,0.0,180.0,0.0,0.0
9469,47.0,0.0,180.0,1.0,0.0
9470,47.0,12.0,390.0,4.0,0.0
9471,69.0,24.0,180.0,2.0,0.0
9472,59.0,0.0,90.0,7.0,0.0
9473,59.0,0.0,90.0,6.0,0.0
9474,71.0,0.0,90.0,6.0,0.0
9475,71.0,120.0,90.0,7.0,0.0
9476,59.0,0.0,90.0,7.0,0.0
9477,66.0,0.0,180.0,2.0,0.0
9478,69.0,0.0,180.0,2.0,0.0
9479,59.0,0.0,90.0,6.0,0.0
9480,71.0,0.0,90.0,6.0,0.0
9481,75.0,0.0,180.0,0.0,0.0
9482,78.0,0.0,180.0,0.0,0.0
9483,59.0,0.0,180.0,1.0,0.0
9484,71.0,24.0,180.0,3.0,0.0
9485,59.0,12.0,150.0,10.0,0.0
9486,47.0,0.0,180.0,11.0,0.0
9487,71.0,0.0,90.0,7.0,0.0
9488,47.0,24.0,180.0,12.0,0.0
9489,59.0,120.0,90.0,7.0,0.0
9490,71.0,0.0,90.0,7.0,0.0
9491,71.0,0.0,90.0,6.0,0.0
9492,59.0,0.0,90.0,6.0,0.0
9493,64.0,0.0,390.0,2.0,0.0
9494,71.0,120.0,90.0,6.0,0.0
9495,59.0,0.0,90.0,6.0,0.0
9496,71.0,0.0,90.0,7.0,0.0
9497,47.0,0.0,390.0,4.0,0.0
9498,68.0,72.0,390.0,2.0,0.0
9499,47.0,0.0,390.0,1.0,0.0
9500,35.0,0.0,390.0,12.0,0.0
9501,71.0,0.0,390.0,5.0,0.0
9502,59.0,0.0,390.0,5.0,0.0
9503,80.0,0.0,390.0,5.0,0.0
9504,47.0,0.0,390.0,10.0,0.0
9505,35.0,0.0,390.0,11.0,0.0
9506,80.0,0.0,390.0,0.0,0.0
9507,76.0,0.0,390.0,0.0,0.0
9508,71.0,0.0,390.0,3.0,0.0
9509,59.0,0.0,90.0,7.0,0.0
9510,76.0,0.0,390.0,5.0,0.0
9511,59.0,0.0,90.0,6.0,0.0
9512,71.0,0.0,90.0,7.0,0.0
9513,59.0,0.0,90.0,7.0,0.0
9514,71.0,120.0,90.0,6.0,0.0
9515,71.0,0.0,90.0,6.0,0.0
9516,59.0,48.0,90.0,6.0,0.0
9517,59.0,0.0,90.0,7.0,0.0
9518,71.0,0.0,90.0,7.0,0.0
9519,59.0,0.0,90.0,6.0,0.0
9520,71.0,0.0,90.0,6.0,0.0
9521,59.0,0.0,90.0,7.0,0.0
9522,71.0,120.0,90.0,7.0,0.0
9523,71.0,0.0,90.0,6.0,0.0
9524,59.0,0.0,90.0,6.0,0.0
9525,71.0,0.0,90.0,7.0,0.0
9526,59.0,120.0,90.0,7.0,0.0
9527,59.0,120.0,90.0,6.0,0.0
9528,59.0,0.0,90.0,7.0,0.0
9529,71.0,0.0,90.0,7.0,0.0
9530,71.0,0.0,90.0,6.0,0.0
9531,59.0,0.0,90.0,7.0,0.0
9532,71.0,0.0,90.0,7.0,0.0
9533,71.0,0.0,90.0,6.0,0.0
9534,59.0,120.0,90.0,6.0,0.0
9535,71.0,0.0,90.0,7.0,0.0
9536,59.0,0.0,90.0,7.0,0.0
9537,59.0,0.0,90.0,6.0,0.0
9538,71.0,120.0,90.0,6.0,0.0
9539,68.0,24.0,180.0,2.0,0.0
9540,71.0,60.0,90.0,7.0,0.0
9541,59.0,0.0,90.0,7.0,0.0
9542,47.0,0.0,180.0,1.0,0.0
9543,47.0,12.0,150.0,10.0,0.0
9544,80.0,0.0,330.0,5.0,0.0
9545,76.0,0.0,330.0,5.0,0.0
9546,71.0,0.0,330.0,5.0,0.0
9547,59.0,0.0,330.0,5.0,0.0
9548,71.0,0.0,180.0,3.0,0.0
9549,35.0,24.0,180.0,11.0,0.0
9550,71.0,0.0,90.0,6.0,0.0
9551,59.0,0.0,90.0,6.0,0.0
9552,64.0,0.0,180.0,2.0,0.0
9553,80.0,0.0,180.0,0.0,0.0
9554,47.0,12.0,390.0,4.0,0.0
9555,35.0,0.0,180.0,12.0,0.0
9556,76.0,0.0,180.0,0.0,0.0
9557,59.0,0.0,90.0,6.0,0.0
9558,71.0,120.0,90.0,6.0,0.0
9559,59.0,0.0,90.0,7.0,0.0
9560,71.0,0.0,90.0,7.0,0.0
9561,71.0,48.0,90.0,7.0,0.0
9562,59.0,0.0,90.0,7.0,0.0
9563,59.0,12.0,150.0,10.0,0.0
9564,80.0,0.0,180.0,0.0,0.0
9565,47.0,24.0,180.0,11.0,0.0
9566,71.0,0.0,180.0,3.0,0.0
9567,71.0,0.0,90.0,6.0,0.0
9568,59.0,0.0,90.0,6.0,0.0
9569,68.0,0.0,180.0,2.0,0.0
9570,64.0,0.0,180.0,2.0,0.0
9571,59.0,0.0,180.0,1.0,0.0
9572,76.0,24.0,180.0,0.0,0.0
9573,47.0,0.0,180.0,12.0,0.0
9574,59.0,0.0,90.0,6.0,0.0
9575,71.0,0.0,90.0,6.0,0.0
9576,71.0,0.0,90.0,7.0,0.0
9577,59.0,120.0,90.0,7.0,0.0
9578,47.0,0.0,180.0,1.0,0.0
9579,64.0,0.0,180.0,2.0,0.0
9580,68.0,0.0,180.0,2.0,0.0
9581,71.0,0.0,90.0,6.0,0.0
9582,71.0,24.0,180.0,3.0,0.0
9583,35.0,24.0,180.0,11.0,0.0
9584,35.0,0.0,180.0,12.0,0.0
9585,59.0,60.0,90.0,6.0,0.0
9586,76.0,0.0,180.0,0.0,0.0
9587,80.0,0.0,180.0,0.0,0.0
9588,71.0,0.0,330.0,5.0,0.0
9589,71.0,0.0,90.0,7.0,0.0
9590,47.0,12.0,390.0,4.0,0.0
9591,80.0,0.0,330.0,5.0,0.0
9592,59.0,0.0,90.0,7.0,0.0
9593,76.0,0.0,330.0,5.0,0.0
9594,47.0,12.0,150.0,10.0,0.0
9595,59.0,0.0,330.0,5.0,0.0
9596,71.0,0.0,90.0,6.0,0.0
9597,59.0,0.0,90.0,6.0,0.0
9598,59.0,120.0,90.0,7.0,0.0
9599,71.0,0.0,90.0,7.0,0.0
9600,59.0,0.0,180.0,1.0,0.0
9601,47.0,24.0,180.0,12.0,0.0
9602,64.0,24.0,180.0,2.0,0.0
9603,71.0,48.0,90.0,7.0,0.0
9604,68.0,0.0,180.0,2.0,0.0
9605,71.0,0.0,180.0,3.0,0.0
9606,59.0,0.0,90.0,6.0,0.0
9607,71.0,0.0,90.0,6.0,0.0
9608,76.0,0.0,180.0,0.0,0.0
9609,59.0,12.0,150.0,10.0,0.0
9610,59.0,0.0,90.0,7.0,0.0
9611,80.0,0.0,180.0,0.0,0.0
9612,47.0,0.0,180.0,11.0,0.0
9613,71.0,0.0,90.0,7.0,0.0
9614,59.0,0.0,90.0,6.0,0.0
9615,59.0,408.0,90.0,7.0,0.0
9616,71.0,0.0,90.0,6.0,0.0
9617,69.0,192.0,720.0,6.0,0.0
9618,66.0,0.0,390.0,2.0,0.0
9619,59.0,336.0,390.0,2.0,0.0
9620,75.0,0.0,390.0,0.0,0.0
9621,35.0,0.0,390.0,11.0,0.0
9622,47.0,0.0,390.0,10.0,0.0
9623,81.0,0.0,390.0,0.0,0.0
9624,35.0,0.0,390.0,12.0,0.0
9625,47.0,0.0,390.0,4.0,0.0
9626,66.0,0.0,390.0,7.0,0.0
9627,81.0,0.0,720.0,5.0,0.0
9628,71.0,0.0,390.0,3.0,0.0
9629,47.0,0.0,390.0,1.0,0.0
9630,63.0,0.0,390.0,7.0,0.0
9631,78.0,0.0,180.0,6.0,0.0
9632,90.0,288.0,180.0,5.0,0.0
9633,76.0,0.0,240.0,6.0,0.0
9634,88.0,240.0,240.0,5.0,0.0
9635,75.0,0.0,240.0,6.0,0.0
9636,87.0,240.0,240.0,5.0,0.0
9637,85.0,228.0,240.0,5.0,0.0
9638,73.0,0.0,240.0,6.0,0.0
9639,83.0,0.0,240.0,5.0,0.0
9640,71.0,252.0,240.0,6.0,0.0
9641,82.0,240.0,240.0,5.0,0.0
9642,70.0,0.0,240.0,6.0,0.0
9643,71.0,240.0,240.0,6.0,0.0
9644,83.0,0.0,240.0,5.0,0.0
9645,85.0,0.0,240.0,5.0,0.0
9646,73.0,228.0,240.0,6.0,0.0
9647,71.0,252.0,240.0,6.0,0.0
9648,83.0,0.0,240.0,5.0,0.0
9649,71.0,240.0,240.0,6.0,0.0
9650,83.0,0.0,240.0,5.0,0.0
9651,70.0,0.0,240.0,6.0,0.0
9652,82.0,240.0,240.0,5.0,0.0
9653,69.0,228.0,240.0,6.0,0.0
9654,81.0,0.0,240.0,5.0,0.0
9655,66.0,0.0,240.0,6.0,0.0
9656,78.0,780.0,240.0,5.0,0.0
9657,76.0,252.0,780.0,5.0,0.0
9658,64.0,240.0,3840.0,7.0,0.0
9659,40.0,0.0,3780.0,12.0,0.0
9660,68.0,0.0,780.0,6.0,0.0
9661,52.0,48.0,3780.0,10.0,0.0
9662,40.0,0.0,3780.0,11.0,0.0
9663,71.0,0.0,60.0,6.0,0.0
9664,80.0,180.0,60.0,5.0,0.0
9665,69.0,0.0,180.0,6.0,0.0
9666,78.0,240.0,180.0,5.0,0.0
9667,76.0,240.0,240.0,5.0,0.0
9668,68.0,0.0,240.0,6.0,0.0
9669,78.0,192.0,240.0,5.0,0.0
9670,69.0,0.0,240.0,6.0,0.0
9671,71.0,0.0,180.0,6.0,0.0
9672,80.0,384.0,180.0,5.0,0.0
9673,68.0,0.0,330.0,6.0,0.0
9674,76.0,1104.0,330.0,5.0,0.0
9675,73.0,0.0,960.0,6.0,0.0
9676,81.0,384.0,960.0,5.0,0.0
9677,71.0,48.0,390.0,6.0,0.0
9678,80.0,72.0,720.0,5.0,0.0
9679,45.0,0.0,300.0,11.0,0.0
9680,73.0,0.0,300.0,6.0,0.0
9681,57.0,0.0,300.0,10.0,0.0
9682,45.0,120.0,300.0,12.0,0.0
9683,61.0,0.0,300.0,7.0,0.0
9684,78.0,288.0,180.0,5.0,0.0
9685,47.0,0.0,480.0,12.0,0.0
9686,47.0,240.0,480.0,11.0,0.0
9687,78.0,192.0,240.0,5.0,0.0
9688,74.0,0.0,480.0,6.0,0.0
9689,59.0,0.0,480.0,10.0,0.0
9690,68.0,0.0,480.0,7.0,0.0
9691,77.0,48.0,180.0,5.0,0.0
9692,45.0,0.0,300.0,12.0,0.0
9693,80.0,72.0,240.0,5.0,0.0
9694,73.0,0.0,300.0,6.0,0.0
9695,57.0,0.0,300.0,10.0,0.0
9696,69.0,144.0,300.0,7.0,0.0
9697,45.0,0.0,300.0,11.0,0.0
9698,78.0,264.0,210.0,5.0,0.0
9699,47.0,240.0,480.0,11.0,0.0
9700,47.0,0.0,480.0,12.0,0.0
9701,78.0,192.0,240.0,5.0,0.0
9702,59.0,0.0,480.0,10.0,0.0
9703,68.0,0.0,480.0,7.0,0.0
9704,74.0,0.0,480.0,6.0,0.0
9705,77.0,48.0,180.0,5.0,0.0
9706,69.0,48.0,390.0,7.0,0.0
9707,45.0,0.0,300.0,12.0,0.0
9708,73.0,0.0,960.0,6.0,0.0
9709,80.0,72.0,240.0,5.0,0.0
9710,57.0,0.0,300.0,10.0,0.0
9711,45.0,72.0,300.0,11.0,0.0
9712,78.0,288.0,180.0,5.0,0.0
9713,66.0,0.0,870.0,7.0,0.0
9714,58.0,0.0,480.0,10.0,0.0
9715,46.0,240.0,480.0,12.0,0.0
9716,46.0,0.0,480.0,11.0,0.0
9717,78.0,192.0,240.0,5.0,0.0
9718,76.0,48.0,180.0,5.0,0.0
9719,59.0,96.0,390.0,10.0,0.0
9720,71.0,0.0,390.0,6.0,0.0
9721,47.0,0.0,390.0,11.0,0.0
9722,76.0,144.0,240.0,5.0,0.0
9723,47.0,0.0,390.0,12.0,0.0
9724,75.0,240.0,240.0,5.0,0.0
9725,73.0,192.0,240.0,5.0,0.0
9726,71.0,816.0,180.0,5.0,0.0
9727,52.0,0.0,3780.0,10.0,0.0
9728,76.0,0.0,780.0,5.0,0.0
9729,40.0,144.0,3660.0,11.0,0.0
9730,64.0,0.0,780.0,1.0,0.0
9731,68.0,252.0,780.0,6.0,0.0
9732,40.0,0.0,3660.0,12.0,0.0
9733,80.0,0.0,780.0,0.0,0.0
9734,64.0,288.0,3780.0,7.0,0.0
9735,64.0,0.0,3270.0,2.0,0.0
9736,52.0,96.0,3270.0,2.0,0.0
9737,80.0,180.0,60.0,5.0,0.0
9738,68.0,0.0,60.0,1.0,0.0
9739,71.0,0.0,60.0,6.0,0.0
9740,83.0,0.0,60.0,0.0,0.0
9741,78.0,0.0,180.0,5.0,0.0
9742,69.0,240.0,180.0,6.0,0.0
9743,66.0,0.0,180.0,1.0,0.0
9744,81.0,0.0,180.0,0.0,0.0
9745,68.0,0.0,240.0,6.0,0.0
9746,64.0,0.0,240.0,1.0,0.0
9747,80.0,240.0,240.0,0.0,0.0
9748,76.0,0.0,240.0,5.0,0.0
9749,78.0,0.0,240.0,5.0,0.0
9750,66.0,0.0,240.0,1.0,0.0
9751,81.0,192.0,240.0,0.0,0.0
9752,69.0,0.0,240.0,6.0,0.0
9753,80.0,0.0,180.0,5.0,0.0
9754,83.0,0.0,180.0,0.0,0.0
9755,71.0,0.0,180.0,6.0,0.0
9756,68.0,360.0,180.0,1.0,0.0
9757,68.0,0.0,300.0,6.0,0.0
9758,76.0,72.0,300.0,5.0,0.0
9759,80.0,960.0,390.0,0.0,0.0
9760,64.0,0.0,390.0,1.0,0.0
9761,69.0,0.0,960.0,1.0,0.0
9762,85.0,0.0,960.0,0.0,0.0
9763,73.0,0.0,960.0,6.0,0.0
9764,81.0,288.0,960.0,5.0,0.0
9765,83.0,0.0,720.0,0.0,0.0
9766,80.0,192.0,720.0,5.0,0.0
9767,68.0,0.0,720.0,1.0,0.0
9768,71.0,0.0,720.0,6.0,0.0
9769,47.0,0.0,480.0,11.0,0.0
9770,47.0,0.0,480.0,12.0,0.0
9771,59.0,240.0,480.0,10.0,0.0
9772,63.0,0.0,480.0,7.0,0.0
9773,66.0,0.0,180.0,1.0,0.0
9774,78.0,0.0,180.0,5.0,0.0
9775,81.0,0.0,180.0,0.0,0.0
9776,69.0,48.0,180.0,6.0,0.0
9777,78.0,0.0,240.0,5.0,0.0
9778,61.0,0.0,390.0,10.0,0.0
9779,69.0,144.0,240.0,6.0,0.0
9780,49.0,0.0,390.0,12.0,0.0
9781,49.0,48.0,390.0,11.0,0.0
9782,81.0,0.0,240.0,0.0,0.0
9783,66.0,0.0,240.0,1.0,0.0
9784,64.0,0.0,390.0,7.0,0.0
9785,76.0,288.0,180.0,5.0,0.0
9786,80.0,0.0,180.0,0.0,0.0
9787,64.0,0.0,180.0,1.0,0.0
9788,68.0,0.0,180.0,6.0,0.0
9789,71.0,0.0,240.0,6.0,0.0
9790,45.0,240.0,480.0,12.0,0.0
9791,57.0,0.0,480.0,10.0,0.0
9792,45.0,0.0,480.0,11.0,0.0
9793,83.0,192.0,240.0,0.0,0.0
9794,80.0,0.0,240.0,5.0,0.0
9795,68.0,0.0,240.0,1.0,0.0
9796,61.0,0.0,480.0,7.0,0.0
9797,69.0,0.0,180.0,6.0,0.0
9798,66.0,48.0,180.0,1.0,0.0
9799,78.0,0.0,180.0,5.0,0.0
9800,81.0,0.0,180.0,0.0,0.0
9801,69.0,0.0,240.0,6.0,0.0
9802,59.0,48.0,390.0,10.0,0.0
9803,59.0,0.0,390.0,7.0,0.0
9804,66.0,0.0,240.0,1.0,0.0
9805,47.0,0.0,390.0,11.0,0.0
9806,81.0,144.0,240.0,0.0,0.0
9807,47.0,0.0,390.0,12.0,0.0
9808,78.0,0.0,240.0,5.0,0.0
9809,75.0,0.0,180.0,5.0,0.0
9810,63.0,180.0,180.0,1.0,0.0
9811,66.0,0.0,180.0,6.0,0.0
9812,78.0,0.0,180.0,0.0,0.0
9813,40.0,0.0,390.0,12.0,0.0
9814,76.0,0.0,390.0,0.0,0.0
9815,40.0,0.0,390.0,11.0,0.0
9816,76.0,252.0,120.0,5.0,0.0
9817,59.0,0.0,390.0,7.0,0.0
9818,52.0,96.0,390.0,10.0,0.0
9819,64.0,0.0,390.0,1.0,0.0
9820,68.0,0.0,390.0,6.0,0.0
9821,64.0,240.0,240.0,5.0,0.0
9822,63.0,192.0,240.0,5.0,0.0
9823,64.0,432.0,180.0,5.0,0.0
9824,44.0,96.0,390.0,11.0,0.0
9825,64.0,384.0,1920.0,7.0,0.0
9826,44.0,0.0,390.0,12.0,0.0
9827,56.0,0.0,390.0,10.0,0.0
9828,76.0,0.0,1920.0,0.0,0.0
9829,64.0,240.0,240.0,5.0,0.0
9830,66.0,192.0,240.0,5.0,0.0
9831,68.0,432.0,180.0,5.0,0.0
9832,42.0,0.0,390.0,12.0,0.0
9833,54.0,96.0,390.0,10.0,0.0
9834,42.0,0.0,390.0,11.0,0.0
9835,69.0,240.0,240.0,5.0,0.0
9836,68.0,192.0,240.0,5.0,0.0
9837,69.0,48.0,180.0,5.0,0.0
9838,47.0,0.0,390.0,12.0,0.0
9839,75.0,384.0,960.0,0.0,0.0
9840,63.0,0.0,960.0,7.0,0.0
9841,59.0,0.0,390.0,10.0,0.0
9842,47.0,96.0,390.0,11.0,0.0
9843,73.0,240.0,240.0,5.0,0.0
9844,71.0,192.0,240.0,5.0,0.0
9845,69.0,48.0,180.0,5.0,0.0
9846,52.0,0.0,390.0,10.0,0.0
9847,64.0,144.0,780.0,7.0,0.0
9848,40.0,0.0,390.0,11.0,0.0
9849,76.0,96.0,390.0,0.0,0.0
9850,40.0,0.0,390.0,12.0,0.0
9851,68.0,240.0,240.0,5.0,0.0
9852,66.0,48.0,240.0,5.0,0.0
9853,64.0,432.0,180.0,5.0,0.0
9854,51.0,96.0,390.0,10.0,0.0
9855,39.0,0.0,390.0,12.0,0.0
9856,39.0,0.0,390.0,11.0,0.0
9857,59.0,384.0,1920.0,1.0,0.0
9858,66.0,384.0,960.0,7.0,0.0
9859,71.0,0.0,1920.0,5.0,0.0
9860,71.0,240.0,240.0,6.0,0.0
9861,73.0,192.0,240.0,6.0,0.0
9862,75.0,48.0,180.0,6.0,0.0
9863,68.0,0.0,960.0,7.0,0.0
9864,37.0,96.0,390.0,11.0,0.0
9865,49.0,0.0,390.0,10.0,0.0
9866,37.0,0.0,390.0,12.0,0.0
9867,76.0,240.0,240.0,6.0,0.0
9868,75.0,192.0,240.0,6.0,0.0
9869,76.0,48.0,180.0,6.0,0.0
9870,42.0,0.0,390.0,11.0,0.0
9871,42.0,0.0,390.0,12.0,0.0
9872,54.0,96.0,390.0,10.0,0.0
9873,70.0,0.0,960.0,5.0,0.0
9874,66.0,0.0,1740.0,7.0,0.0
9875,58.0,384.0,960.0,1.0,0.0
9876,80.0,240.0,240.0,6.0,0.0
9877,78.0,192.0,240.0,6.0,0.0
9878,76.0,48.0,180.0,6.0,0.0
9879,35.0,0.0,390.0,11.0,0.0
9880,59.0,0.0,390.0,1.0,0.0
9881,47.0,96.0,390.0,10.0,0.0
9882,35.0,0.0,390.0,12.0,0.0
9883,69.0,144.0,780.0,5.0,0.0
9884,75.0,240.0,240.0,6.0,0.0
9885,73.0,48.0,240.0,6.0,0.0
9886,71.0,432.0,180.0,6.0,0.0
9887,49.0,96.0,390.0,10.0,0.0
9888,76.0,384.0,1920.0,6.0,0.0
9889,64.0,0.0,1920.0,1.0,0.0
9890,68.0,384.0,960.0,5.0,0.0
9891,37.0,0.0,390.0,12.0,0.0
9892,37.0,0.0,390.0,11.0,0.0
9893,52.0,240.0,240.0,7.0,0.0
9894,54.0,192.0,240.0,7.0,0.0
9895,56.0,48.0,180.0,7.0,0.0
9896,42.0,0.0,390.0,12.0,0.0
9897,42.0,96.0,390.0,11.0,0.0
9898,54.0,0.0,390.0,10.0,0.0
9899,66.0,0.0,1920.0,5.0,0.0
9900,57.0,240.0,240.0,7.0,0.0
9901,56.0,192.0,240.0,7.0,0.0
9902,57.0,48.0,180.0,7.0,0.0
9903,63.0,0.0,960.0,1.0,0.0
9904,35.0,0.0,390.0,11.0,0.0
9905,35.0,96.0,390.0,12.0,0.0
9906,47.0,0.0,390.0,10.0,0.0
9907,75.0,384.0,960.0,6.0,0.0
9908,61.0,240.0,240.0,7.0,0.0
9909,59.0,192.0,240.0,7.0,0.0
9910,57.0,48.0,180.0,7.0,0.0
9911,76.0,0.0,780.0,6.0,0.0
9912,64.0,144.0,780.0,5.0,0.0
9913,64.0,0.0,780.0,1.0,0.0
9914,52.0,0.0,390.0,10.0,0.0
9915,40.0,0.0,390.0,11.0,0.0
9916,40.0,96.0,390.0,12.0,0.0
9917,56.0,240.0,240.0,7.0,0.0
9918,54.0,48.0,240.0,7.0,0.0
9919,52.0,528.0,180.0,7.0,0.0
9920,75.0,480.0,960.0,6.0,0.0
9921,59.0,0.0,1920.0,7.0,0.0
9922,66.0,0.0,960.0,5.0,0.0
9923,83.0,0.0,1920.0,0.0,0.0
9924,47.0,0.0,240.0,10.0,0.0
9925,35.0,240.0,240.0,12.0,0.0
9926,35.0,0.0,240.0,11.0,0.0
9927,49.0,192.0,240.0,10.0,0.0
9928,37.0,0.0,240.0,12.0,0.0
9929,37.0,0.0,240.0,11.0,0.0
9930,39.0,48.0,180.0,11.0,0.0
9931,39.0,0.0,180.0,12.0,0.0
9932,51.0,0.0,180.0,10.0,0.0
9933,68.0,480.0,960.0,5.0,0.0
9934,73.0,0.0,1920.0,6.0,0.0
9935,52.0,0.0,240.0,10.0,0.0
9936,40.0,240.0,240.0,11.0,0.0
9937,40.0,0.0,240.0,12.0,0.0
9938,39.0,0.0,240.0,12.0,0.0
9939,51.0,192.0,240.0,10.0,0.0
9940,39.0,0.0,240.0,11.0,0.0
9941,52.0,0.0,180.0,10.0,0.0
9942,40.0,48.0,180.0,12.0,0.0
9943,40.0,0.0,180.0,11.0,0.0
9944,58.0,0.0,960.0,7.0,0.0
9945,61.0,0.0,960.0,5.0,0.0
9946,82.0,480.0,960.0,0.0,0.0
9947,44.0,0.0,240.0,12.0,0.0
9948,44.0,240.0,240.0,11.0,0.0
9949,56.0,0.0,240.0,10.0,0.0
9950,42.0,0.0,240.0,11.0,0.0
9951,42.0,0.0,240.0,12.0,0.0
9952,54.0,192.0,240.0,10.0,0.0
9953,40.0,0.0,180.0,12.0,0.0
9954,40.0,0.0,180.0,11.0,0.0
9955,52.0,48.0,180.0,10.0,0.0
9956,59.0,144.0,780.0,7.0,0.0
9957,66.0,0.0,780.0,5.0,0.0
9958,71.0,0.0,780.0,6.0,0.0
9959,83.0,0.0,780.0,0.0,0.0
9960,51.0,0.0,240.0,10.0,0.0
9961,39.0,0.0,240.0,12.0,0.0
9962,39.0,240.0,240.0,11.0,0.0
9963,37.0,0.0,240.0,12.0,0.0
9964,49.0,48.0,240.0,10.0,0.0
9965,37.0,0.0,240.0,11.0,0.0
9966,35.0,0.0,180.0,12.0,0.0
9967,35.0,0.0,180.0,11.0,0.0
9968,47.0,528.0,180.0,10.0,0.0
9969,71.0,0.0,960.0,2.0,0.0
9970,68.0,480.0,960.0,2.0,0.0
9971,44.0,0.0,960.0,12.0,0.0
9972,76.0,0.0,1830.0,0.0,0.0
9973,44.0,0.0,960.0,11.0,0.0
9974,64.0,0.0,960.0,7.0,0.0
9975,56.0,0.0,960.0,1.0,0.0
9976,56.0,0.0,960.0,10.0,0.0
9977,88.0,0.0,1830.0,0.0,0.0
9978,76.0,240.0,240.0,5.0,0.0
9979,64.0,0.0,240.0,6.0,0.0
9980,66.0,0.0,240.0,6.0,0.0
9981,78.0,192.0,240.0,5.0,0.0
9982,68.0,48.0,180.0,6.0,0.0
9983,80.0,0.0,180.0,5.0,0.0
9984,69.0,0.0,870.0,2.0,0.0
9985,42.0,0.0,780.0,11.0,0.0
9986,42.0,0.0,780.0,12.0,0.0
9987,54.0,96.0,780.0,10.0,0.0
9988,54.0,0.0,870.0,1.0,0.0
9989,66.0,48.0,870.0,2.0,0.0
9990,64.0,0.0,780.0,7.0,0.0
9991,69.0,0.0,240.0,6.0,0.0
9992,81.0,240.0,240.0,5.0,0.0
9993,80.0,0.0,240.0,5.0,0.0
9994,68.0,48.0,240.0,6.0,0.0
9995,81.0,528.0,180.0,5.0,0.0
9996,69.0,0.0,180.0,6.0,0.0
9997,59.0,0.0,960.0,1.0,0.0
9998,75.0,0.0,960.0,0.0,0.0
9999,66.0,0.0,960.0,2.0,0.0
10000,59.0,0.0,960.0,2.0,0.0
10001,47.0,0.0,960.0,11.0,0.0
10002,87.0,0.0,960.0,0.0,0.0
10003,63.0,0.0,960.0,7.0,0.0
10004,47.0,480.0,960.0,12.0,0.0
10005,59.0,0.0,960.0,10.0,0.0
10006,73.0,240.0,240.0,6.0,0.0
10007,85.0,0.0,240.0,5.0,0.0
10008,71.0,0.0,240.0,6.0,0.0
10009,83.0,192.0,240.0,5.0,0.0
10010,81.0,48.0,180.0,5.0,0.0
10011,69.0,0.0,180.0,6.0,0.0
10012,64.0,0.0,780.0,7.0,0.0
10013,68.0,0.0,780.0,2.0,0.0
10014,88.0,0.0,780.0,0.0,0.0
10015,76.0,0.0,780.0,0.0,0.0
10016,40.0,144.0,780.0,12.0,0.0
10017,52.0,0.0,780.0,10.0,0.0
10018,40.0,0.0,780.0,11.0,0.0
10019,64.0,0.0,780.0,2.0,0.0
10020,52.0,0.0,780.0,1.0,0.0
10021,80.0,0.0,240.0,5.0,0.0
10022,68.0,240.0,240.0,6.0,0.0
10023,66.0,48.0,240.0,6.0,0.0
10024,78.0,0.0,240.0,5.0,0.0
10025,64.0,0.0,180.0,6.0,0.0
10026,76.0,528.0,180.0,5.0,0.0
10027,83.0,144.0,570.0,5.0,0.0
10028,83.0,0.0,570.0,6.0,0.0
10029,71.0,0.0,1740.0,1.0,0.0
10030,59.0,108.0,780.0,1.0,0.0
10031,83.0,12.0,1740.0,0.0,0.0
10032,52.0,0.0,240.0,11.0,0.0
10033,64.0,0.0,240.0,10.0,0.0
10034,64.0,96.0,240.0,7.0,0.0
10035,52.0,0.0,240.0,12.0,0.0
10036,66.0,0.0,240.0,7.0,0.0
10037,66.0,0.0,240.0,10.0,0.0
10038,54.0,0.0,240.0,12.0,0.0
10039,54.0,48.0,240.0,11.0,0.0
10040,68.0,0.0,180.0,10.0,0.0
10041,68.0,528.0,180.0,7.0,0.0
10042,56.0,0.0,180.0,11.0,0.0
10043,83.0,36.0,150.0,6.0,0.0
10044,56.0,0.0,180.0,12.0,0.0
10045,83.0,0.0,150.0,5.0,0.0
10046,85.0,24.0,1740.0,0.0,0.0
10047,61.0,0.0,1740.0,1.0,0.0
10048,73.0,144.0,570.0,5.0,0.0
10049,73.0,0.0,570.0,6.0,0.0
10050,69.0,0.0,240.0,10.0,0.0
10051,69.0,0.0,240.0,7.0,0.0
10052,57.0,0.0,240.0,11.0,0.0
10053,57.0,96.0,240.0,12.0,0.0
10054,68.0,0.0,240.0,7.0,0.0
10055,68.0,0.0,240.0,10.0,0.0
10056,56.0,0.0,240.0,12.0,0.0
10057,56.0,48.0,240.0,11.0,0.0
10058,69.0,0.0,180.0,7.0,0.0
10059,75.0,60.0,60.0,6.0,0.0
10060,57.0,0.0,180.0,12.0,0.0
10061,69.0,36.0,180.0,10.0,0.0
10062,75.0,0.0,60.0,5.0,0.0
10063,57.0,0.0,180.0,11.0,0.0
10064,76.0,60.0,60.0,6.0,0.0
10065,76.0,0.0,60.0,5.0,0.0
10066,78.0,12.0,60.0,5.0,0.0
10067,78.0,0.0,60.0,6.0,0.0
10068,80.0,324.0,60.0,6.0,0.0
10069,80.0,0.0,60.0,5.0,0.0
10070,81.0,168.0,300.0,5.0,0.0
10071,81.0,144.0,1740.0,0.0,0.0
10072,69.0,0.0,1740.0,1.0,0.0
10073,81.0,0.0,300.0,6.0,0.0
10074,51.0,0.0,240.0,12.0,0.0
10075,63.0,240.0,240.0,10.0,0.0
10076,63.0,0.0,240.0,7.0,0.0
10077,51.0,0.0,240.0,11.0,0.0
10078,81.0,120.0,300.0,5.0,0.0
10079,81.0,0.0,300.0,6.0,0.0
10080,64.0,0.0,240.0,7.0,0.0
10081,52.0,0.0,240.0,11.0,0.0
10082,52.0,0.0,240.0,12.0,0.0
10083,64.0,48.0,240.0,10.0,0.0
10084,54.0,528.0,180.0,12.0,0.0
10085,54.0,0.0,180.0,11.0,0.0
10086,66.0,0.0,180.0,7.0,0.0
10087,66.0,0.0,180.0,10.0,0.0
10088,81.0,0.0,480.0,6.0,0.0
10089,81.0,0.0,480.0,5.0,0.0
10090,83.0,0.0,1740.0,0.0,0.0
10091,59.0,108.0,1740.0,1.0,0.0
10092,68.0,0.0,240.0,7.0,0.0
10093,68.0,0.0,240.0,10.0,0.0
10094,56.0,192.0,240.0,11.0,0.0
10095,56.0,0.0,240.0,12.0,0.0
10096,66.0,0.0,240.0,7.0,0.0
10097,71.0,48.0,180.0,6.0,0.0
10098,66.0,0.0,240.0,10.0,0.0
10099,54.0,0.0,240.0,12.0,0.0
10100,71.0,0.0,180.0,5.0,0.0
10101,54.0,48.0,240.0,11.0,0.0
10102,68.0,0.0,180.0,7.0,0.0
10103,56.0,0.0,180.0,12.0,0.0
10104,68.0,0.0,180.0,10.0,0.0
10105,56.0,528.0,180.0,11.0,0.0
10106,80.0,0.0,570.0,6.0,0.0
10107,68.0,12.0,1740.0,1.0,0.0
10108,80.0,0.0,1740.0,0.0,0.0
10109,92.0,144.0,570.0,5.0,0.0
10110,61.0,0.0,240.0,10.0,0.0
10111,73.0,0.0,240.0,7.0,0.0
10112,49.0,0.0,240.0,11.0,0.0
10113,49.0,96.0,240.0,12.0,0.0
10114,51.0,0.0,240.0,11.0,0.0
10115,63.0,0.0,240.0,10.0,0.0
10116,75.0,48.0,240.0,7.0,0.0
10117,51.0,0.0,240.0,12.0,0.0
10118,65.0,528.0,180.0,10.0,0.0
10119,53.0,0.0,180.0,11.0,0.0
10120,77.0,0.0,180.0,7.0,0.0
10121,92.0,36.0,150.0,5.0,0.0
10122,53.0,0.0,180.0,12.0,0.0
10123,80.0,0.0,150.0,6.0,0.0
10124,81.0,144.0,570.0,5.0,0.0
10125,81.0,0.0,1740.0,0.0,0.0
10126,57.0,24.0,1740.0,1.0,0.0
10127,69.0,0.0,570.0,6.0,0.0
10128,54.0,0.0,240.0,12.0,0.0
10129,54.0,0.0,240.0,11.0,0.0
10130,66.0,0.0,240.0,10.0,0.0
10131,78.0,96.0,240.0,7.0,0.0
10132,53.0,48.0,240.0,12.0,0.0
10133,53.0,0.0,240.0,11.0,0.0
10134,65.0,0.0,240.0,10.0,0.0
10135,77.0,0.0,240.0,7.0,0.0
10136,66.0,0.0,180.0,10.0,0.0
10137,54.0,48.0,180.0,11.0,0.0
10138,83.0,0.0,60.0,5.0,0.0
10139,78.0,0.0,180.0,7.0,0.0
10140,71.0,60.0,60.0,6.0,0.0
10141,54.0,0.0,180.0,12.0,0.0
10142,85.0,0.0,60.0,5.0,0.0
10143,73.0,60.0,60.0,6.0,0.0
10144,87.0,0.0,60.0,5.0,0.0
10145,75.0,12.0,60.0,6.0,0.0
10146,88.0,0.0,60.0,5.0,0.0
10147,76.0,312.0,60.0,6.0,0.0
10148,90.0,0.0,300.0,5.0,0.0
10149,66.0,144.0,1740.0,1.0,0.0
10150,78.0,0.0,1740.0,0.0,0.0
10151,78.0,168.0,300.0,6.0,0.0
10152,47.0,240.0,240.0,11.0,0.0
10153,59.0,0.0,240.0,10.0,0.0
10154,47.0,0.0,240.0,12.0,0.0
10155,71.0,0.0,240.0,7.0,0.0
10156,78.0,120.0,300.0,6.0,0.0
10157,49.0,48.0,240.0,12.0,0.0
10158,49.0,0.0,240.0,11.0,0.0
10159,73.0,0.0,240.0,7.0,0.0
10160,90.0,0.0,300.0,5.0,0.0
10161,61.0,0.0,240.0,10.0,0.0
10162,51.0,528.0,180.0,11.0,0.0
10163,63.0,0.0,180.0,10.0,0.0
10164,75.0,0.0,180.0,7.0,0.0
10165,51.0,0.0,180.0,12.0,0.0
10166,90.0,192.0,480.0,5.0,0.0
10167,56.0,0.0,1740.0,1.0,0.0
10168,80.0,0.0,1740.0,0.0,0.0
10169,78.0,0.0,480.0,6.0,0.0
10170,64.0,0.0,240.0,10.0,0.0
10171,52.0,0.0,240.0,11.0,0.0
10172,76.0,0.0,240.0,7.0,0.0
10173,52.0,0.0,240.0,12.0,0.0
10174,63.0,0.0,240.0,10.0,0.0
10175,51.0,48.0,240.0,11.0,0.0
10176,75.0,0.0,240.0,7.0,0.0
10177,51.0,0.0,240.0,12.0,0.0
10178,80.0,0.0,180.0,5.0,0.0
10179,68.0,48.0,180.0,6.0,0.0
10180,52.0,0.0,180.0,11.0,0.0
10181,76.0,0.0,180.0,7.0,0.0
10182,52.0,432.0,180.0,12.0,0.0
10183,64.0,0.0,180.0,10.0,0.0
10184,76.0,0.0,570.0,6.0,0.0
10185,64.0,108.0,1740.0,1.0,0.0
10186,88.0,144.0,570.0,5.0,0.0
10187,68.0,108.0,780.0,2.0,0.0
10188,64.0,0.0,1740.0,2.0,0.0
10189,80.0,0.0,390.0,3.0,0.0
10190,76.0,96.0,390.0,3.0,0.0
10191,76.0,0.0,1740.0,0.0,0.0
10192,52.0,0.0,390.0,4.0,0.0
10193,49.0,0.0,240.0,12.0,0.0
10194,61.0,0.0,240.0,10.0,0.0
10195,73.0,96.0,240.0,7.0,0.0
10196,49.0,0.0,240.0,11.0,0.0
10197,60.0,0.0,240.0,10.0,0.0
10198,72.0,0.0,240.0,7.0,0.0
10199,48.0,0.0,240.0,12.0,0.0
10200,48.0,48.0,240.0,11.0,0.0
10201,61.0,0.0,180.0,10.0,0.0
10202,88.0,0.0,150.0,5.0,0.0
10203,73.0,432.0,180.0,7.0,0.0
10204,49.0,0.0,180.0,12.0,0.0
10205,49.0,0.0,180.0,11.0,0.0
10206,76.0,36.0,150.0,6.0,0.0
10207,76.0,0.0,390.0,3.0,0.0
10208,78.0,0.0,1860.0,0.0,0.0
10209,66.0,144.0,570.0,6.0,0.0
10210,52.0,96.0,390.0,4.0,0.0
10211,66.0,108.0,1740.0,2.0,0.0
10212,54.0,0.0,1860.0,1.0,0.0
10213,78.0,0.0,570.0,5.0,0.0
10214,78.0,0.0,390.0,3.0,0.0
10215,69.0,0.0,240.0,7.0,0.0
10216,45.0,0.0,240.0,12.0,0.0
10217,57.0,0.0,240.0,10.0,0.0
10218,45.0,96.0,240.0,11.0,0.0
10219,68.0,48.0,240.0,7.0,0.0
10220,44.0,0.0,240.0,11.0,0.0
10221,44.0,0.0,240.0,12.0,0.0
10222,56.0,0.0,240.0,10.0,0.0
10223,66.0,36.0,150.0,6.0,0.0
10224,45.0,0.0,180.0,11.0,0.0
10225,78.0,0.0,150.0,5.0,0.0
10226,57.0,0.0,180.0,10.0,0.0
10227,69.0,0.0,180.0,7.0,0.0
10228,45.0,432.0,180.0,12.0,0.0
10229,87.0,144.0,570.0,5.0,0.0
10230,75.0,0.0,570.0,6.0,0.0
10231,71.0,96.0,390.0,3.0,0.0
10232,78.0,0.0,390.0,3.0,0.0
10233,47.0,0.0,390.0,4.0,0.0
10234,75.0,0.0,900.0,0.0,0.0
10235,59.0,0.0,780.0,2.0,0.0
10236,63.0,0.0,900.0,1.0,0.0
10237,47.0,0.0,240.0,11.0,0.0
10238,47.0,0.0,240.0,12.0,0.0
10239,71.0,0.0,240.0,7.0,0.0
10240,59.0,96.0,240.0,10.0,0.0
10241,70.0,0.0,240.0,7.0,0.0
10242,46.0,0.0,240.0,12.0,0.0
10243,46.0,0.0,240.0,11.0,0.0
10244,58.0,48.0,240.0,10.0,0.0
10245,47.0,0.0,180.0,12.0,0.0
10246,87.0,0.0,150.0,5.0,0.0
10247,71.0,180.0,180.0,7.0,0.0
10248,59.0,0.0,180.0,10.0,0.0
10249,75.0,36.0,150.0,6.0,0.0
10250,47.0,0.0,180.0,11.0,0.0
10251,64.0,144.0,5580.0,7.0,0.0
10252,52.0,0.0,4800.0,10.0,0.0
10253,40.0,480.0,4800.0,12.0,0.0
10254,52.0,0.0,390.0,4.0,0.0
10255,68.0,0.0,390.0,3.0,0.0
10256,88.0,0.0,120.0,5.0,0.0
10257,64.0,0.0,450.0,1.0,0.0
10258,76.0,72.0,390.0,3.0,0.0
10259,52.0,48.0,4740.0,2.0,0.0
10260,64.0,0.0,4740.0,2.0,0.0
10261,40.0,0.0,4800.0,11.0,0.0
10262,76.0,24.0,450.0,0.0,0.0
10263,76.0,252.0,120.0,6.0,0.0
10264,52.0,0.0,450.0,1.0,0.0
10265,64.0,0.0,240.0,6.0,0.0
10266,76.0,240.0,240.0,5.0,0.0
10267,75.0,192.0,240.0,5.0,0.0
10268,63.0,0.0,240.0,6.0,0.0
10269,76.0,0.0,180.0,5.0,0.0
10270,64.0,528.0,180.0,6.0,0.0
10271,59.0,0.0,1860.0,1.0,0.0
10272,71.0,0.0,240.0,6.0,0.0
10273,83.0,240.0,240.0,5.0,0.0
10274,82.0,0.0,240.0,5.0,0.0
10275,70.0,192.0,240.0,6.0,0.0
10276,83.0,0.0,180.0,5.0,0.0
10277,71.0,528.0,180.0,6.0,0.0
10278,60.0,528.0,1860.0,1.0,0.0
10279,72.0,0.0,240.0,5.0,0.0
10280,60.0,240.0,240.0,6.0,0.0
10281,71.0,192.0,240.0,5.0,0.0
10282,59.0,0.0,240.0,6.0,0.0
10283,60.0,0.0,180.0,6.0,0.0
10284,72.0,528.0,180.0,5.0,0.0
10285,57.0,0.0,1860.0,1.0,0.0
10286,72.0,0.0,240.0,5.0,0.0
10287,60.0,144.0,240.0,6.0,0.0
10288,81.0,0.0,150.0,5.0,0.0
10289,69.0,240.0,150.0,6.0,0.0
10290,69.0,48.0,150.0,6.0,0.0
10291,81.0,0.0,150.0,5.0,0.0
10292,59.0,0.0,1860.0,1.0,0.0
10293,81.0,0.0,240.0,5.0,0.0
10294,69.0,144.0,240.0,6.0,0.0
10295,71.0,240.0,150.0,5.0,0.0
10296,59.0,0.0,150.0,6.0,0.0
10297,71.0,48.0,150.0,5.0,0.0
10298,59.0,0.0,150.0,6.0,0.0
10299,64.0,0.0,1860.0,10.0,0.0
10300,83.0,528.0,900.0,0.0,0.0
10301,52.0,0.0,1860.0,11.0,0.0
10302,52.0,0.0,1860.0,12.0,0.0
10303,79.0,0.0,1860.0,0.0,0.0
10304,55.0,0.0,1860.0,1.0,0.0
10305,79.0,0.0,240.0,6.0,0.0
10306,91.0,240.0,240.0,5.0,0.0
10307,78.0,48.0,240.0,6.0,0.0
10308,90.0,0.0,240.0,5.0,0.0
10309,79.0,0.0,180.0,6.0,0.0
10310,91.0,0.0,180.0,5.0,0.0
10311,73.0,480.0,960.0,7.0,0.0
10312,82.0,0.0,900.0,0.0,0.0
10313,58.0,0.0,900.0,1.0,0.0
10314,82.0,0.0,240.0,5.0,0.0
10315,70.0,240.0,240.0,6.0,0.0
10316,80.0,192.0,240.0,5.0,0.0
10317,68.0,0.0,240.0,6.0,0.0
10318,70.0,48.0,180.0,6.0,0.0
10319,82.0,0.0,180.0,5.0,0.0
10320,72.0,48.0,900.0,7.0,0.0
10321,51.0,0.0,960.0,12.0,0.0
10322,63.0,480.0,960.0,10.0,0.0
10323,54.0,0.0,1860.0,1.0,0.0
10324,57.0,0.0,900.0,1.0,0.0
10325,51.0,0.0,960.0,11.0,0.0
10326,78.0,0.0,1860.0,0.0,0.0
10327,81.0,0.0,900.0,0.0,0.0
10328,69.0,0.0,240.0,6.0,0.0
10329,81.0,156.0,240.0,5.0,0.0
10330,78.0,240.0,150.0,6.0,0.0
10331,90.0,0.0,150.0,5.0,0.0
10332,78.0,0.0,150.0,6.0,0.0
10333,90.0,36.0,150.0,5.0,0.0
10334,64.0,0.0,900.0,10.0,0.0
10335,71.0,0.0,900.0,7.0,0.0
10336,52.0,0.0,900.0,11.0,0.0
10337,52.0,0.0,900.0,12.0,0.0
10338,80.0,0.0,900.0,0.0,0.0
10339,56.0,528.0,900.0,1.0,0.0
10340,90.0,156.0,240.0,5.0,0.0
10341,78.0,0.0,240.0,6.0,0.0
10342,68.0,0.0,150.0,6.0,0.0
10343,80.0,240.0,150.0,5.0,0.0
10344,80.0,0.0,150.0,5.0,0.0
10345,68.0,36.0,150.0,6.0,0.0
10346,52.0,0.0,1860.0,1.0,0.0
10347,48.0,0.0,900.0,11.0,0.0
10348,60.0,0.0,900.0,10.0,0.0
10349,76.0,0.0,1860.0,0.0,0.0
10350,79.0,0.0,900.0,0.0,0.0
10351,72.0,0.0,1860.0,7.0,0.0
10352,48.0,0.0,900.0,12.0,0.0
10353,55.0,0.0,900.0,1.0,0.0
10354,76.0,0.0,240.0,6.0,0.0
10355,88.0,240.0,240.0,5.0,0.0
10356,87.0,0.0,240.0,5.0,0.0
10357,75.0,192.0,240.0,6.0,0.0
10358,88.0,0.0,180.0,5.0,0.0
10359,76.0,528.0,180.0,6.0,0.0
10360,45.0,0.0,900.0,12.0,0.0
10361,45.0,0.0,900.0,11.0,0.0
10362,57.0,0.0,900.0,10.0,0.0
10363,54.0,0.0,1860.0,1.0,0.0
10364,78.0,0.0,1860.0,0.0,0.0
10365,78.0,240.0,240.0,5.0,0.0
10366,66.0,0.0,240.0,6.0,0.0
10367,65.0,0.0,240.0,6.0,0.0
10368,77.0,192.0,240.0,5.0,0.0
10369,66.0,528.0,180.0,6.0,0.0
10370,78.0,0.0,180.0,5.0,0.0
10371,59.0,0.0,900.0,10.0,0.0
10372,51.0,0.0,900.0,1.0,0.0
10373,75.0,144.0,900.0,0.0,0.0
10374,71.0,0.0,900.0,7.0,0.0
10375,47.0,0.0,900.0,12.0,0.0
10376,47.0,0.0,900.0,11.0,0.0
10377,71.0,0.0,240.0,6.0,0.0
10378,83.0,240.0,240.0,5.0,0.0
10379,70.0,192.0,240.0,6.0,0.0
10380,82.0,0.0,240.0,5.0,0.0
10381,71.0,0.0,180.0,6.0,0.0
10382,83.0,0.0,180.0,5.0,0.0
10383,68.0,0.0,390.0,7.0,0.0
10384,52.0,0.0,390.0,10.0,0.0
10385,64.0,0.0,390.0,6.0,0.0
10386,52.0,0.0,390.0,1.0,0.0
10387,76.0,96.0,1200.0,0.0,0.0
10388,40.0,0.0,390.0,12.0,0.0
10389,64.0,120.0,90.0,5.0,0.0
10390,40.0,72.0,390.0,11.0,0.0
10391,64.0,120.0,90.0,5.0,0.0
10392,59.0,48.0,90.0,5.0,0.0
10393,59.0,120.0,90.0,5.0,0.0
10394,61.0,120.0,90.0,5.0,0.0
10395,61.0,120.0,90.0,5.0,0.0
10396,63.0,120.0,90.0,5.0,0.0
10397,63.0,120.0,90.0,5.0,0.0
10398,64.0,120.0,90.0,5.0,0.0
10399,64.0,24.0,90.0,5.0,0.0
10400,75.0,96.0,240.0,0.0,0.0
10401,63.0,120.0,90.0,5.0,0.0
10402,63.0,24.0,90.0,5.0,0.0
10403,76.0,96.0,240.0,0.0,0.0
10404,64.0,120.0,90.0,5.0,0.0
10405,64.0,24.0,90.0,5.0,0.0
10406,65.0,96.0,90.0,5.0,0.0
10407,77.0,24.0,180.0,0.0,0.0
10408,65.0,120.0,90.0,5.0,0.0
10409,66.0,120.0,90.0,5.0,0.0
10410,78.0,96.0,1200.0,0.0,0.0
10411,66.0,120.0,90.0,5.0,0.0
10412,59.0,120.0,90.0,5.0,0.0
10413,59.0,120.0,90.0,5.0,0.0
10414,63.0,120.0,90.0,5.0,0.0
10415,63.0,120.0,90.0,5.0,0.0
10416,64.0,120.0,90.0,5.0,0.0
10417,64.0,120.0,90.0,5.0,0.0
10418,66.0,120.0,90.0,5.0,0.0
10419,66.0,24.0,90.0,5.0,0.0
10420,77.0,96.0,240.0,0.0,0.0
10421,65.0,120.0,90.0,5.0,0.0
10422,65.0,24.0,90.0,5.0,0.0
10423,78.0,96.0,240.0,0.0,0.0
10424,66.0,120.0,90.0,5.0,0.0
10425,66.0,24.0,90.0,5.0,0.0
10426,67.0,96.0,90.0,5.0,0.0
10427,79.0,24.0,180.0,0.0,0.0
10428,67.0,120.0,90.0,5.0,0.0
10429,76.0,60.0,1200.0,0.0,0.0
10430,64.0,120.0,90.0,6.0,0.0
10431,80.0,48.0,780.0,0.0,0.0
10432,68.0,24.0,300.0,5.0,0.0
10433,64.0,96.0,90.0,6.0,0.0
10434,59.0,120.0,90.0,6.0,0.0
10435,59.0,120.0,90.0,6.0,0.0
10436,61.0,120.0,90.0,6.0,0.0
10437,68.0,54.0,240.0,5.0,0.0
10438,61.0,18.0,90.0,6.0,0.0
10439,63.0,102.0,90.0,6.0,0.0
10440,63.0,84.0,90.0,6.0,0.0
10441,68.0,18.0,90.0,5.0,0.0
10442,64.0,24.0,90.0,6.0,0.0
10443,80.0,24.0,900.0,0.0,0.0
10444,69.0,36.0,60.0,5.0,0.0
10445,68.0,60.0,60.0,5.0,0.0
10446,64.0,24.0,90.0,6.0,0.0
10447,69.0,36.0,60.0,5.0,0.0
10448,68.0,0.0,60.0,5.0,0.0
10449,63.0,24.0,90.0,6.0,0.0
10450,69.0,36.0,60.0,5.0,0.0
10451,75.0,0.0,240.0,0.0,0.0
10452,68.0,60.0,60.0,5.0,0.0
10453,69.0,36.0,60.0,5.0,0.0
10454,63.0,24.0,90.0,6.0,0.0
10455,68.0,60.0,60.0,5.0,0.0
10456,76.0,0.0,240.0,0.0,0.0
10457,64.0,24.0,90.0,6.0,0.0
10458,69.0,36.0,60.0,5.0,0.0
10459,68.0,60.0,60.0,5.0,0.0
10460,64.0,24.0,90.0,6.0,0.0
10461,69.0,36.0,60.0,5.0,0.0
10462,68.0,96.0,60.0,5.0,0.0
10463,66.0,72.0,120.0,5.0,0.0
10464,77.0,0.0,180.0,0.0,0.0
10465,65.0,24.0,90.0,6.0,0.0
10466,65.0,120.0,90.0,6.0,0.0
10467,68.0,0.0,90.0,5.0,0.0
10468,78.0,0.0,720.0,0.0,0.0
10469,81.0,96.0,720.0,0.0,0.0
10470,69.0,0.0,720.0,5.0,0.0
10471,66.0,120.0,90.0,6.0,0.0
10472,66.0,120.0,90.0,6.0,0.0
10473,59.0,120.0,90.0,6.0,0.0
10474,59.0,120.0,90.0,6.0,0.0
10475,63.0,120.0,90.0,6.0,0.0
10476,63.0,24.0,90.0,6.0,0.0
10477,76.0,0.0,180.0,0.0,0.0
10478,64.0,96.0,90.0,6.0,0.0
10479,68.0,0.0,180.0,5.0,0.0
10480,80.0,24.0,180.0,0.0,0.0
10481,64.0,120.0,90.0,6.0,0.0
10482,69.0,0.0,240.0,5.0,0.0
10483,78.0,96.0,240.0,0.0,0.0
10484,81.0,0.0,240.0,0.0,0.0
10485,66.0,120.0,90.0,6.0,0.0
10486,66.0,24.0,90.0,6.0,0.0
10487,68.0,96.0,240.0,5.0,0.0
10488,65.0,120.0,90.0,6.0,0.0
10489,77.0,0.0,240.0,0.0,0.0
10490,80.0,0.0,240.0,0.0,0.0
10491,65.0,24.0,90.0,6.0,0.0
10492,78.0,96.0,240.0,0.0,0.0
10493,81.0,0.0,240.0,0.0,0.0
10494,69.0,0.0,240.0,5.0,0.0
10495,66.0,120.0,90.0,6.0,0.0
10496,66.0,24.0,90.0,6.0,0.0
10497,70.0,0.0,180.0,5.0,0.0
10498,79.0,24.0,180.0,0.0,0.0
10499,82.0,0.0,180.0,0.0,0.0
10500,67.0,96.0,90.0,6.0,0.0
10501,67.0,120.0,90.0,6.0,0.0
10502,83.0,0.0,390.0,0.0,0.0
10503,80.0,0.0,390.0,0.0,0.0
10504,59.0,12.0,4230.0,2.0,0.0
10505,47.0,0.0,4230.0,2.0,0.0
10506,71.0,0.0,4230.0,3.0,0.0
10507,59.0,0.0,4230.0,3.0,0.0
10508,47.0,0.0,390.0,4.0,0.0
10509,64.0,120.0,90.0,7.0,0.0
10510,64.0,96.0,240.0,1.0,0.0
10511,64.0,0.0,240.0,10.0,0.0
10512,52.0,0.0,240.0,12.0,0.0
10513,71.0,0.0,390.0,5.0,0.0
10514,68.0,72.0,390.0,6.0,0.0
10515,52.0,0.0,240.0,11.0,0.0
10516,64.0,24.0,90.0,7.0,0.0
10517,59.0,0.0,240.0,1.0,0.0
10518,59.0,0.0,240.0,10.0,0.0
10519,47.0,0.0,240.0,11.0,0.0
10520,47.0,96.0,240.0,12.0,0.0
10521,59.0,48.0,90.0,7.0,0.0
10522,59.0,24.0,90.0,7.0,0.0
10523,61.0,0.0,240.0,1.0,0.0
10524,61.0,0.0,240.0,10.0,0.0
10525,49.0,0.0,240.0,12.0,0.0
10526,49.0,96.0,240.0,11.0,0.0
10527,61.0,120.0,90.0,7.0,0.0
10528,61.0,24.0,90.0,7.0,0.0
10529,63.0,0.0,180.0,10.0,0.0
10530,51.0,24.0,180.0,11.0,0.0
10531,63.0,0.0,180.0,1.0,0.0
10532,63.0,96.0,90.0,7.0,0.0
10533,51.0,0.0,180.0,12.0,0.0
10534,63.0,120.0,90.0,7.0,0.0
10535,59.0,120.0,90.0,6.0,0.0
10536,71.0,48.0,780.0,0.0,0.0
10537,52.0,96.0,240.0,11.0,0.0
10538,71.0,0.0,90.0,6.0,0.0
10539,80.0,0.0,780.0,0.0,0.0
10540,80.0,0.0,90.0,5.0,0.0
10541,64.0,0.0,240.0,10.0,0.0
10542,64.0,0.0,240.0,1.0,0.0
10543,64.0,0.0,90.0,7.0,0.0
10544,52.0,0.0,240.0,12.0,0.0
10545,71.0,0.0,90.0,6.0,0.0
10546,59.0,0.0,90.0,6.0,0.0
10547,64.0,24.0,90.0,7.0,0.0
10548,80.0,0.0,90.0,5.0,0.0
10549,51.0,96.0,240.0,12.0,0.0
10550,80.0,0.0,90.0,5.0,0.0
10551,59.0,120.0,90.0,6.0,0.0
10552,71.0,0.0,90.0,6.0,0.0
10553,63.0,0.0,240.0,1.0,0.0
10554,51.0,0.0,240.0,11.0,0.0
10555,63.0,0.0,90.0,7.0,0.0
10556,63.0,0.0,240.0,10.0,0.0
10557,59.0,0.0,90.0,6.0,0.0
10558,63.0,0.0,90.0,7.0,0.0
10559,71.0,0.0,90.0,6.0,0.0
10560,80.0,24.0,90.0,5.0,0.0
10561,64.0,120.0,90.0,7.0,0.0
10562,80.0,0.0,90.0,5.0,0.0
10563,52.0,0.0,240.0,11.0,0.0
10564,59.0,0.0,90.0,6.0,0.0
10565,64.0,48.0,240.0,1.0,0.0
10566,71.0,0.0,90.0,6.0,0.0
10567,52.0,0.0,240.0,12.0,0.0
10568,64.0,0.0,240.0,10.0,0.0
10569,71.0,0.0,90.0,6.0,0.0
10570,64.0,0.0,90.0,7.0,0.0
10571,80.0,0.0,90.0,5.0,0.0
10572,59.0,24.0,90.0,6.0,0.0
10573,80.0,96.0,90.0,5.0,0.0
10574,53.0,0.0,180.0,12.0,0.0
10575,59.0,0.0,90.0,6.0,0.0
10576,71.0,0.0,90.0,6.0,0.0
10577,53.0,24.0,180.0,11.0,0.0
10578,65.0,0.0,90.0,7.0,0.0
10579,65.0,0.0,180.0,10.0,0.0
10580,65.0,0.0,180.0,1.0,0.0
10581,71.0,0.0,90.0,6.0,0.0
10582,59.0,0.0,90.0,6.0,0.0
10583,80.0,0.0,90.0,5.0,0.0
10584,65.0,120.0,90.0,7.0,0.0
10585,54.0,0.0,240.0,12.0,0.0
10586,59.0,0.0,390.0,6.0,0.0
10587,47.0,0.0,390.0,4.0,0.0
10588,71.0,0.0,390.0,6.0,0.0
10589,66.0,120.0,90.0,7.0,0.0
10590,54.0,0.0,240.0,11.0,0.0
10591,66.0,96.0,240.0,1.0,0.0
10592,66.0,0.0,240.0,10.0,0.0
10593,71.0,24.0,1860.0,0.0,0.0
10594,81.0,72.0,390.0,5.0,0.0
10595,81.0,96.0,1200.0,0.0,0.0
10596,66.0,24.0,90.0,7.0,0.0
10597,47.0,0.0,240.0,11.0,0.0
10598,59.0,48.0,90.0,7.0,0.0
10599,59.0,0.0,240.0,10.0,0.0
10600,47.0,96.0,240.0,12.0,0.0
10601,59.0,0.0,240.0,1.0,0.0
10602,59.0,24.0,90.0,7.0,0.0
10603,63.0,0.0,240.0,1.0,0.0
10604,63.0,96.0,240.0,10.0,0.0
10605,51.0,0.0,240.0,11.0,0.0
10606,63.0,120.0,90.0,7.0,0.0
10607,51.0,0.0,240.0,12.0,0.0
10608,63.0,24.0,90.0,7.0,0.0
10609,64.0,96.0,90.0,7.0,0.0
10610,64.0,24.0,180.0,1.0,0.0
10611,64.0,0.0,180.0,10.0,0.0
10612,52.0,0.0,180.0,12.0,0.0
10613,52.0,0.0,180.0,11.0,0.0
10614,64.0,120.0,90.0,7.0,0.0
10615,81.0,0.0,90.0,5.0,0.0
10616,66.0,0.0,90.0,7.0,0.0
10617,54.0,0.0,240.0,12.0,0.0
10618,59.0,120.0,90.0,6.0,0.0
10619,54.0,0.0,240.0,11.0,0.0
10620,66.0,0.0,240.0,10.0,0.0
10621,66.0,0.0,240.0,1.0,0.0
10622,71.0,0.0,90.0,6.0,0.0
10623,71.0,0.0,90.0,6.0,0.0
10624,59.0,0.0,90.0,6.0,0.0
10625,66.0,0.0,90.0,7.0,0.0
10626,81.0,24.0,90.0,5.0,0.0
10627,59.0,0.0,90.0,6.0,0.0
10628,53.0,0.0,240.0,11.0,0.0
10629,71.0,0.0,90.0,6.0,0.0
10630,80.0,0.0,240.0,0.0,0.0
10631,65.0,0.0,240.0,10.0,0.0
10632,65.0,120.0,90.0,7.0,0.0
10633,65.0,0.0,240.0,1.0,0.0
10634,80.0,0.0,90.0,5.0,0.0
10635,53.0,96.0,240.0,12.0,0.0
10636,80.0,0.0,90.0,5.0,0.0
10637,59.0,24.0,90.0,6.0,0.0
10638,65.0,0.0,90.0,7.0,0.0
10639,71.0,0.0,90.0,6.0,0.0
10640,81.0,0.0,240.0,0.0,0.0
10641,81.0,0.0,90.0,5.0,0.0
10642,66.0,0.0,240.0,1.0,0.0
10643,71.0,0.0,90.0,6.0,0.0
10644,54.0,96.0,240.0,11.0,0.0
10645,54.0,0.0,240.0,12.0,0.0
10646,66.0,0.0,240.0,10.0,0.0
10647,66.0,0.0,90.0,7.0,0.0
10648,59.0,120.0,90.0,6.0,0.0
10649,81.0,0.0,90.0,5.0,0.0
10650,66.0,0.0,90.0,7.0,0.0
10651,59.0,24.0,90.0,6.0,0.0
10652,71.0,0.0,90.0,6.0,0.0
10653,67.0,0.0,90.0,7.0,0.0
10654,82.0,96.0,90.0,5.0,0.0
10655,67.0,0.0,180.0,1.0,0.0
10656,55.0,0.0,180.0,12.0,0.0
10657,82.0,0.0,180.0,0.0,0.0
10658,55.0,0.0,180.0,11.0,0.0
10659,67.0,0.0,180.0,10.0,0.0
10660,71.0,0.0,90.0,6.0,0.0
10661,59.0,0.0,90.0,6.0,0.0
10662,67.0,0.0,90.0,7.0,0.0
10663,82.0,0.0,90.0,5.0,0.0
10664,71.0,0.0,90.0,6.0,0.0
10665,59.0,180.0,90.0,6.0,0.0
10666,56.0,0.0,240.0,12.0,0.0
10667,71.0,0.0,150.0,6.0,0.0
10668,59.0,72.0,150.0,6.0,0.0
10669,68.0,84.0,240.0,1.0,0.0
10670,56.0,0.0,240.0,11.0,0.0
10671,68.0,0.0,240.0,10.0,0.0
10672,83.0,0.0,360.0,0.0,0.0
10673,71.0,24.0,360.0,0.0,0.0
10674,68.0,48.0,300.0,7.0,0.0
10675,83.0,0.0,150.0,5.0,0.0
10676,80.0,312.0,150.0,6.0,0.0
10677,83.0,0.0,150.0,5.0,0.0
10678,77.0,0.0,360.0,0.0,0.0
10679,71.0,156.0,480.0,7.0,0.0
10680,49.0,0.0,240.0,12.0,0.0
10681,80.0,0.0,360.0,0.0,0.0
10682,68.0,36.0,360.0,2.0,0.0
10683,71.0,0.0,360.0,2.0,0.0
10684,49.0,0.0,240.0,11.0,0.0
10685,61.0,0.0,240.0,1.0,0.0
10686,61.0,132.0,240.0,10.0,0.0
10687,80.0,84.0,150.0,5.0,0.0
10688,77.0,0.0,150.0,6.0,0.0
10689,54.0,0.0,240.0,12.0,0.0
10690,78.0,0.0,360.0,0.0,0.0
10691,81.0,0.0,360.0,0.0,0.0
10692,81.0,0.0,150.0,5.0,0.0
10693,69.0,48.0,300.0,7.0,0.0
10694,69.0,0.0,360.0,2.0,0.0
10695,66.0,0.0,240.0,10.0,0.0
10696,66.0,0.0,240.0,1.0,0.0
10697,54.0,84.0,240.0,11.0,0.0
10698,66.0,36.0,360.0,2.0,0.0
10699,78.0,72.0,150.0,6.0,0.0
10700,81.0,312.0,150.0,5.0,0.0
10701,78.0,0.0,150.0,6.0,0.0
10702,59.0,0.0,360.0,2.0,0.0
10703,69.0,48.0,300.0,7.0,0.0
10704,75.0,0.0,360.0,0.0,0.0
10705,78.0,0.0,360.0,3.0,0.0
10706,71.0,24.0,360.0,3.0,0.0
10707,47.0,12.0,390.0,4.0,0.0
10708,59.0,84.0,240.0,1.0,0.0
10709,78.0,0.0,360.0,0.0,0.0
10710,59.0,0.0,240.0,10.0,0.0
10711,66.0,0.0,360.0,2.0,0.0
10712,47.0,0.0,240.0,11.0,0.0
10713,47.0,0.0,240.0,12.0,0.0
10714,78.0,240.0,150.0,5.0,0.0
10715,75.0,0.0,150.0,6.0,0.0
10716,68.0,0.0,150.0,7.0,0.0
10717,52.0,0.0,150.0,12.0,0.0
10718,76.0,156.0,150.0,6.0,0.0
10719,76.0,72.0,300.0,0.0,0.0
10720,76.0,12.0,390.0,3.0,0.0
10721,52.0,0.0,150.0,11.0,0.0
10722,64.0,0.0,150.0,10.0,0.0
10723,64.0,0.0,300.0,2.0,0.0
10724,68.0,0.0,300.0,2.0,0.0
10725,64.0,0.0,150.0,1.0,0.0
10726,80.0,0.0,390.0,3.0,0.0
10727,80.0,0.0,150.0,5.0,0.0
10728,52.0,0.0,390.0,4.0,0.0
10729,80.0,0.0,300.0,0.0,0.0
10730,68.0,240.0,150.0,7.0,0.0
10731,64.0,0.0,150.0,10.0,0.0
10732,64.0,0.0,150.0,1.0,0.0
10733,52.0,0.0,150.0,11.0,0.0
10734,76.0,0.0,150.0,6.0,0.0
10735,52.0,0.0,150.0,12.0,0.0
10736,80.0,0.0,150.0,5.0,0.0
10737,68.0,0.0,150.0,2.0,0.0
10738,49.0,0.0,150.0,12.0,0.0
10739,61.0,0.0,150.0,1.0,0.0
10740,64.0,240.0,150.0,2.0,0.0
10741,80.0,0.0,150.0,5.0,0.0
10742,49.0,0.0,150.0,11.0,0.0
10743,73.0,0.0,150.0,7.0,0.0
10744,88.0,0.0,150.0,5.0,0.0
10745,61.0,0.0,150.0,10.0,0.0
10746,76.0,0.0,150.0,6.0,0.0
10747,80.0,0.0,150.0,6.0,0.0
10748,76.0,0.0,150.0,0.0,0.0
10749,80.0,0.0,150.0,0.0,0.0
10750,49.0,0.0,150.0,12.0,0.0
10751,68.0,0.0,150.0,2.0,0.0
10752,80.0,0.0,150.0,6.0,0.0
10753,76.0,0.0,150.0,6.0,0.0
10754,49.0,0.0,150.0,11.0,0.0
10755,64.0,240.0,150.0,2.0,0.0
10756,80.0,0.0,150.0,5.0,0.0
10757,73.0,0.0,150.0,7.0,0.0
10758,61.0,0.0,150.0,10.0,0.0
10759,88.0,0.0,150.0,5.0,0.0
10760,80.0,0.0,150.0,0.0,0.0
10761,76.0,0.0,150.0,0.0,0.0
10762,61.0,0.0,150.0,1.0,0.0
10763,78.0,0.0,150.0,0.0,0.0
10764,81.0,0.0,150.0,0.0,0.0
10765,66.0,0.0,150.0,2.0,0.0
10766,69.0,0.0,150.0,2.0,0.0
10767,73.0,240.0,150.0,7.0,0.0
10768,90.0,0.0,150.0,5.0,0.0
10769,81.0,0.0,150.0,5.0,0.0
10770,57.0,0.0,150.0,10.0,0.0
10771,78.0,0.0,150.0,6.0,0.0
10772,81.0,0.0,150.0,6.0,0.0
10773,57.0,0.0,150.0,1.0,0.0
10774,45.0,0.0,150.0,12.0,0.0
10775,45.0,0.0,150.0,11.0,0.0
10776,45.0,240.0,150.0,11.0,0.0
10777,90.0,0.0,150.0,5.0,0.0
10778,81.0,0.0,150.0,5.0,0.0
10779,81.0,0.0,150.0,0.0,0.0
10780,57.0,0.0,150.0,1.0,0.0
10781,78.0,0.0,150.0,0.0,0.0
10782,57.0,0.0,150.0,10.0,0.0
10783,66.0,0.0,150.0,2.0,0.0
10784,45.0,0.0,150.0,12.0,0.0
10785,78.0,0.0,150.0,6.0,0.0
10786,69.0,0.0,150.0,2.0,0.0
10787,73.0,0.0,150.0,7.0,0.0
10788,81.0,0.0,150.0,6.0,0.0
10789,47.0,0.0,150.0,11.0,0.0
10790,47.0,0.0,150.0,12.0,0.0
10791,78.0,0.0,150.0,6.0,0.0
10792,71.0,0.0,150.0,6.0,0.0
10793,59.0,0.0,150.0,10.0,0.0
10794,78.0,0.0,360.0,3.0,0.0
10795,59.0,0.0,150.0,2.0,0.0
10796,78.0,0.0,150.0,0.0,0.0
10797,59.0,0.0,150.0,1.0,0.0
10798,47.0,12.0,390.0,4.0,0.0
10799,75.0,0.0,150.0,0.0,0.0
10800,87.0,204.0,150.0,5.0,0.0
10801,71.0,0.0,150.0,7.0,0.0
10802,78.0,0.0,150.0,5.0,0.0
10803,71.0,24.0,360.0,3.0,0.0
10804,66.0,0.0,150.0,2.0,0.0
10805,78.0,0.0,150.0,0.0,0.0
10806,75.0,0.0,150.0,0.0,0.0
10807,66.0,0.0,150.0,2.0,0.0
10808,59.0,0.0,150.0,2.0,0.0
10809,59.0,0.0,150.0,10.0,0.0
10810,78.0,0.0,150.0,5.0,0.0
10811,87.0,0.0,150.0,5.0,0.0
10812,78.0,0.0,150.0,6.0,0.0
10813,71.0,0.0,150.0,6.0,0.0
10814,59.0,0.0,150.0,1.0,0.0
10815,71.0,0.0,150.0,7.0,0.0
10816,47.0,0.0,150.0,12.0,0.0
10817,47.0,240.0,150.0,11.0,0.0
10818,52.0,0.0,390.0,1.0,0.0
10819,56.0,0.0,390.0,2.0,0.0
10820,64.0,0.0,390.0,2.0,0.0
10821,76.0,0.0,390.0,6.0,0.0
10822,52.0,0.0,150.0,10.0,0.0
10823,40.0,0.0,390.0,12.0,0.0
10824,71.0,228.0,150.0,7.0,0.0
10825,52.0,0.0,390.0,4.0,0.0
10826,68.0,0.0,390.0,3.0,0.0
10827,88.0,0.0,390.0,5.0,0.0
10828,80.0,0.0,390.0,5.0,0.0
10829,80.0,0.0,390.0,6.0,0.0
10830,40.0,12.0,390.0,11.0,0.0
10831,76.0,0.0,390.0,0.0,0.0
10832,76.0,0.0,390.0,3.0,0.0
10833,68.0,0.0,150.0,7.0,0.0
10834,64.0,240.0,150.0,10.0,0.0
10835,71.0,0.0,150.0,7.0,0.0
10836,64.0,0.0,150.0,10.0,0.0
10837,71.0,240.0,150.0,7.0,0.0
10838,68.0,0.0,150.0,7.0,0.0
10839,68.0,0.0,150.0,7.0,0.0
10840,64.0,0.0,150.0,10.0,0.0
10841,71.0,204.0,150.0,7.0,0.0
10842,71.0,60.0,180.0,7.0,0.0
10843,47.0,36.0,390.0,12.0,0.0
10844,66.0,0.0,180.0,10.0,0.0
10845,47.0,0.0,390.0,11.0,0.0
10846,69.0,60.0,120.0,6.0,0.0
10847,81.0,0.0,120.0,5.0,0.0
10848,69.0,0.0,180.0,7.0,0.0
10849,68.0,120.0,120.0,6.0,0.0
10850,80.0,0.0,120.0,5.0,0.0
10851,69.0,0.0,180.0,7.0,0.0
10852,66.0,0.0,180.0,10.0,0.0
10853,66.0,24.0,120.0,6.0,0.0
10854,71.0,60.0,180.0,7.0,0.0
10855,78.0,0.0,120.0,5.0,0.0
10856,68.0,120.0,120.0,6.0,0.0
10857,80.0,0.0,120.0,5.0,0.0
10858,66.0,0.0,180.0,10.0,0.0
10859,69.0,0.0,180.0,7.0,0.0
10860,81.0,60.0,120.0,5.0,0.0
10861,69.0,0.0,120.0,6.0,0.0
10862,71.0,60.0,180.0,7.0,0.0
10863,71.0,120.0,120.0,6.0,0.0
10864,83.0,0.0,120.0,5.0,0.0
10865,66.0,36.0,180.0,10.0,0.0
10866,85.0,0.0,120.0,5.0,0.0
10867,73.0,60.0,120.0,6.0,0.0
10868,69.0,0.0,180.0,7.0,0.0
10869,71.0,0.0,180.0,7.0,0.0
10870,87.0,0.0,90.0,5.0,0.0
10871,75.0,144.0,90.0,6.0,0.0
10872,52.0,0.0,390.0,12.0,0.0
10873,88.0,60.0,120.0,5.0,0.0
10874,76.0,0.0,120.0,6.0,0.0
10875,52.0,36.0,390.0,11.0,0.0
10876,68.0,60.0,180.0,7.0,0.0
10877,71.0,0.0,180.0,7.0,0.0
10878,64.0,0.0,180.0,10.0,0.0
10879,87.0,120.0,120.0,5.0,0.0
10880,75.0,0.0,120.0,6.0,0.0
10881,76.0,0.0,120.0,6.0,0.0
10882,88.0,24.0,120.0,5.0,0.0
10883,71.0,0.0,180.0,7.0,0.0
10884,68.0,60.0,180.0,7.0,0.0
10885,64.0,0.0,180.0,10.0,0.0
10886,75.0,0.0,120.0,6.0,0.0
10887,87.0,120.0,120.0,5.0,0.0
10888,88.0,0.0,120.0,5.0,0.0
10889,76.0,60.0,120.0,6.0,0.0
10890,64.0,60.0,180.0,10.0,0.0
10891,68.0,0.0,180.0,7.0,0.0
10892,71.0,0.0,180.0,7.0,0.0
10893,75.0,0.0,120.0,6.0,0.0
10894,87.0,120.0,120.0,5.0,0.0
10895,73.0,0.0,120.0,6.0,0.0
10896,68.0,0.0,180.0,7.0,0.0
10897,71.0,36.0,180.0,7.0,0.0
10898,64.0,0.0,180.0,10.0,0.0
10899,85.0,60.0,120.0,5.0,0.0
10900,71.0,0.0,90.0,6.0,0.0
10901,83.0,144.0,90.0,5.0,0.0
10902,69.0,0.0,120.0,6.0,0.0
10903,66.0,0.0,180.0,10.0,0.0
10904,81.0,60.0,120.0,5.0,0.0
10905,47.0,36.0,390.0,11.0,0.0
10906,69.0,60.0,180.0,7.0,0.0
10907,71.0,0.0,180.0,7.0,0.0
10908,47.0,0.0,390.0,12.0,0.0
10909,80.0,120.0,120.0,5.0,0.0
10910,68.0,0.0,120.0,6.0,0.0
10911,78.0,0.0,120.0,5.0,0.0
10912,66.0,0.0,180.0,10.0,0.0
10913,71.0,60.0,180.0,7.0,0.0
10914,66.0,24.0,120.0,6.0,0.0
10915,69.0,0.0,180.0,7.0,0.0
10916,80.0,0.0,120.0,5.0,0.0
10917,68.0,120.0,120.0,6.0,0.0
10918,69.0,0.0,180.0,7.0,0.0
10919,71.0,60.0,180.0,7.0,0.0
10920,81.0,0.0,120.0,5.0,0.0
10921,69.0,60.0,120.0,6.0,0.0
10922,66.0,0.0,180.0,10.0,0.0
10923,83.0,0.0,120.0,5.0,0.0
10924,71.0,120.0,120.0,6.0,0.0
10925,71.0,0.0,180.0,7.0,0.0
10926,85.0,0.0,120.0,5.0,0.0
10927,69.0,0.0,180.0,7.0,0.0
10928,66.0,36.0,180.0,10.0,0.0
10929,73.0,60.0,120.0,6.0,0.0
10930,75.0,0.0,90.0,6.0,0.0
10931,87.0,204.0,90.0,5.0,0.0
10932,40.0,36.0,390.0,11.0,0.0
10933,71.0,0.0,5700.0,0.0,0.0
10934,40.0,0.0,390.0,12.0,0.0
10935,87.0,0.0,240.0,5.0,0.0
10936,83.0,24.0,5700.0,0.0,0.0
10937,75.0,144.0,240.0,6.0,0.0
10938,64.0,0.0,180.0,10.0,0.0
10939,68.0,60.0,180.0,7.0,0.0
10940,71.0,0.0,180.0,7.0,0.0
10941,88.0,0.0,240.0,5.0,0.0
10942,76.0,180.0,240.0,6.0,0.0
10943,68.0,0.0,180.0,7.0,0.0
10944,64.0,60.0,180.0,10.0,0.0
10945,71.0,0.0,180.0,7.0,0.0
10946,68.0,0.0,180.0,7.0,0.0
10947,71.0,0.0,180.0,7.0,0.0
10948,83.0,0.0,180.0,5.0,0.0
10949,64.0,12.0,180.0,10.0,0.0
10950,71.0,228.0,180.0,6.0,0.0
10951,68.0,0.0,180.0,7.0,0.0
10952,71.0,0.0,180.0,7.0,0.0
10953,64.0,180.0,180.0,10.0,0.0
10954,81.0,60.0,120.0,5.0,0.0
10955,69.0,0.0,120.0,6.0,0.0
10956,47.0,0.0,390.0,12.0,0.0
10957,47.0,36.0,390.0,11.0,0.0
10958,71.0,0.0,180.0,7.0,0.0
10959,69.0,60.0,180.0,7.0,0.0
10960,66.0,0.0,180.0,10.0,0.0
10961,80.0,0.0,120.0,5.0,0.0
10962,68.0,120.0,120.0,6.0,0.0
10963,66.0,60.0,180.0,10.0,0.0
10964,71.0,0.0,180.0,7.0,0.0
10965,69.0,0.0,180.0,7.0,0.0
10966,66.0,24.0,120.0,6.0,0.0
10967,78.0,0.0,120.0,5.0,0.0
10968,80.0,0.0,120.0,5.0,0.0
10969,68.0,120.0,120.0,6.0,0.0
10970,81.0,0.0,120.0,5.0,0.0
10971,71.0,60.0,180.0,7.0,0.0
10972,69.0,0.0,180.0,7.0,0.0
10973,66.0,0.0,180.0,10.0,0.0
10974,69.0,60.0,120.0,6.0,0.0
10975,83.0,120.0,120.0,5.0,0.0
10976,71.0,0.0,120.0,6.0,0.0
10977,66.0,36.0,180.0,10.0,0.0
10978,73.0,0.0,120.0,6.0,0.0
10979,85.0,60.0,120.0,5.0,0.0
10980,71.0,0.0,180.0,7.0,0.0
10981,69.0,0.0,180.0,7.0,0.0
10982,87.0,0.0,90.0,5.0,0.0
10983,75.0,144.0,90.0,6.0,0.0
10984,88.0,60.0,120.0,5.0,0.0
10985,76.0,0.0,120.0,6.0,0.0
10986,52.0,0.0,390.0,12.0,0.0
10987,52.0,36.0,390.0,11.0,0.0
10988,71.0,60.0,180.0,7.0,0.0
10989,68.0,0.0,180.0,7.0,0.0
10990,64.0,0.0,180.0,10.0,0.0
10991,87.0,120.0,120.0,5.0,0.0
10992,75.0,0.0,120.0,6.0,0.0
10993,88.0,0.0,120.0,5.0,0.0
10994,64.0,60.0,180.0,10.0,0.0
10995,76.0,24.0,120.0,6.0,0.0
10996,71.0,0.0,180.0,7.0,0.0
10997,68.0,0.0,180.0,7.0,0.0
10998,87.0,0.0,120.0,5.0,0.0
10999,75.0,120.0,120.0,6.0,0.0
11000,71.0,0.0,180.0,7.0,0.0
11001,68.0,0.0,180.0,7.0,0.0
11002,76.0,60.0,120.0,6.0,0.0
11003,64.0,60.0,180.0,10.0,0.0
11004,88.0,0.0,120.0,5.0,0.0
11005,75.0,120.0,120.0,6.0,0.0
11006,87.0,0.0,120.0,5.0,0.0
11007,85.0,60.0,120.0,5.0,0.0
11008,68.0,36.0,180.0,7.0,0.0
11009,64.0,0.0,180.0,10.0,0.0
11010,73.0,0.0,120.0,6.0,0.0
11011,71.0,0.0,180.0,7.0,0.0
11012,83.0,0.0,90.0,5.0,0.0
11013,71.0,144.0,90.0,6.0,0.0
11014,81.0,60.0,120.0,5.0,0.0
11015,47.0,0.0,390.0,12.0,0.0
11016,71.0,60.0,180.0,7.0,0.0
11017,69.0,0.0,180.0,7.0,0.0
11018,66.0,0.0,180.0,10.0,0.0
11019,47.0,36.0,390.0,11.0,0.0
11020,69.0,0.0,120.0,6.0,0.0
11021,80.0,0.0,120.0,5.0,0.0
11022,68.0,120.0,120.0,6.0,0.0
11023,78.0,0.0,120.0,5.0,0.0
11024,66.0,24.0,120.0,6.0,0.0
11025,69.0,0.0,180.0,7.0,0.0
11026,71.0,0.0,180.0,7.0,0.0
11027,66.0,60.0,180.0,10.0,0.0
11028,80.0,0.0,120.0,5.0,0.0
11029,68.0,120.0,120.0,6.0,0.0
11030,66.0,0.0,180.0,10.0,0.0
11031,81.0,60.0,120.0,5.0,0.0
11032,69.0,0.0,180.0,7.0,0.0
11033,69.0,0.0,120.0,6.0,0.0
11034,71.0,60.0,180.0,7.0,0.0
11035,83.0,0.0,120.0,5.0,0.0
11036,71.0,120.0,120.0,6.0,0.0
11037,85.0,0.0,120.0,5.0,0.0
11038,66.0,36.0,180.0,10.0,0.0
11039,69.0,0.0,180.0,7.0,0.0
11040,71.0,0.0,180.0,7.0,0.0
11041,73.0,60.0,120.0,6.0,0.0
11042,75.0,204.0,90.0,6.0,0.0
11043,87.0,0.0,90.0,5.0,0.0
11044,40.0,0.0,390.0,11.0,0.0
11045,75.0,0.0,240.0,6.0,0.0
11046,87.0,144.0,240.0,5.0,0.0
11047,40.0,36.0,390.0,12.0,0.0
11048,68.0,60.0,180.0,7.0,0.0
11049,64.0,0.0,180.0,10.0,0.0
11050,71.0,0.0,180.0,7.0,0.0
11051,71.0,60.0,180.0,7.0,0.0
11052,64.0,0.0,180.0,10.0,0.0
11053,76.0,180.0,240.0,6.0,0.0
11054,68.0,0.0,180.0,7.0,0.0
11055,88.0,0.0,240.0,5.0,0.0
11056,71.0,0.0,180.0,7.0,0.0
11057,83.0,228.0,180.0,5.0,0.0
11058,71.0,0.0,180.0,6.0,0.0
11059,64.0,12.0,180.0,10.0,0.0
11060,68.0,0.0,180.0,7.0,0.0
11061,64.0,180.0,180.0,10.0,0.0
11062,68.0,0.0,180.0,7.0,0.0
11063,71.0,0.0,180.0,7.0,0.0
11064,69.0,0.0,180.0,7.0,0.0
11065,71.0,60.0,180.0,7.0,0.0
11066,47.0,0.0,390.0,11.0,0.0
11067,81.0,60.0,120.0,5.0,0.0
11068,47.0,36.0,390.0,12.0,0.0
11069,66.0,0.0,180.0,10.0,0.0
11070,69.0,0.0,120.0,6.0,0.0
11071,80.0,120.0,120.0,5.0,0.0
11072,68.0,0.0,120.0,6.0,0.0
11073,78.0,0.0,120.0,5.0,0.0
11074,66.0,24.0,120.0,6.0,0.0
11075,66.0,0.0,180.0,10.0,0.0
11076,71.0,0.0,180.0,7.0,0.0
11077,69.0,60.0,180.0,7.0,0.0
11078,68.0,120.0,120.0,6.0,0.0
11079,80.0,0.0,120.0,5.0,0.0
11080,81.0,60.0,120.0,5.0,0.0
11081,69.0,0.0,180.0,7.0,0.0
11082,69.0,0.0,120.0,6.0,0.0
11083,66.0,60.0,180.0,10.0,0.0
11084,71.0,0.0,180.0,7.0,0.0
11085,71.0,120.0,120.0,6.0,0.0
11086,83.0,0.0,120.0,5.0,0.0
11087,66.0,12.0,180.0,10.0,0.0
11088,69.0,0.0,180.0,7.0,0.0
11089,71.0,0.0,180.0,7.0,0.0
11090,85.0,0.0,120.0,5.0,0.0
11091,73.0,60.0,120.0,6.0,0.0
11092,75.0,0.0,90.0,6.0,0.0
11093,87.0,144.0,90.0,5.0,0.0
11094,52.0,0.0,780.0,2.0,0.0
11095,76.0,0.0,360.0,6.0,0.0
11096,76.0,0.0,390.0,3.0,0.0
11097,64.0,72.0,780.0,2.0,0.0
11098,64.0,96.0,390.0,3.0,0.0
11099,68.0,0.0,360.0,7.0,0.0
11100,71.0,24.0,360.0,7.0,0.0
11101,52.0,0.0,600.0,11.0,0.0
11102,64.0,0.0,600.0,1.0,0.0
11103,88.0,0.0,600.0,0.0,0.0
11104,64.0,0.0,600.0,10.0,0.0
11105,52.0,0.0,600.0,12.0,0.0
11106,88.0,120.0,120.0,5.0,0.0
11107,52.0,0.0,390.0,4.0,0.0
11108,87.0,120.0,120.0,5.0,0.0
11109,88.0,0.0,120.0,5.0,0.0
11110,87.0,120.0,120.0,5.0,0.0
11111,88.0,0.0,120.0,6.0,0.0
11112,88.0,120.0,120.0,5.0,0.0
11113,76.0,0.0,120.0,7.0,0.0
11114,51.0,0.0,120.0,12.0,0.0
11115,87.0,0.0,120.0,0.0,0.0
11116,63.0,0.0,120.0,1.0,0.0
11117,87.0,0.0,120.0,6.0,0.0
11118,75.0,48.0,120.0,7.0,0.0
11119,51.0,0.0,120.0,11.0,0.0
11120,63.0,0.0,120.0,10.0,0.0
11121,87.0,0.0,120.0,5.0,0.0
11122,61.0,0.0,120.0,1.0,0.0
11123,49.0,0.0,120.0,12.0,0.0
11124,85.0,0.0,120.0,0.0,0.0
11125,85.0,0.0,120.0,5.0,0.0
11126,85.0,0.0,120.0,6.0,0.0
11127,73.0,96.0,120.0,7.0,0.0
11128,61.0,0.0,120.0,10.0,0.0
11129,49.0,0.0,120.0,11.0,0.0
11130,48.0,0.0,90.0,11.0,0.0
11131,84.0,144.0,90.0,0.0,0.0
11132,84.0,0.0,90.0,6.0,0.0
11133,60.0,0.0,90.0,1.0,0.0
11134,48.0,0.0,90.0,12.0,0.0
11135,84.0,0.0,90.0,5.0,0.0
11136,60.0,0.0,90.0,10.0,0.0
11137,72.0,0.0,90.0,7.0,0.0
11138,85.0,120.0,120.0,6.0,0.0
11139,52.0,0.0,780.0,2.0,0.0
11140,85.0,0.0,120.0,5.0,0.0
11141,85.0,120.0,600.0,0.0,0.0
11142,76.0,0.0,390.0,3.0,0.0
11143,49.0,0.0,600.0,11.0,0.0
11144,61.0,0.0,600.0,10.0,0.0
11145,64.0,0.0,390.0,3.0,0.0
11146,64.0,72.0,780.0,2.0,0.0
11147,61.0,0.0,600.0,1.0,0.0
11148,52.0,96.0,390.0,4.0,0.0
11149,49.0,0.0,600.0,12.0,0.0
11150,73.0,0.0,600.0,7.0,0.0
11151,84.0,0.0,120.0,5.0,0.0
11152,84.0,120.0,120.0,6.0,0.0
11153,85.0,0.0,120.0,5.0,0.0
11154,85.0,24.0,120.0,6.0,0.0
11155,84.0,0.0,120.0,5.0,0.0
11156,84.0,120.0,120.0,6.0,0.0
11157,85.0,0.0,120.0,6.0,0.0
11158,85.0,0.0,120.0,5.0,0.0
11159,59.0,0.0,120.0,1.0,0.0
11160,83.0,0.0,120.0,0.0,0.0
11161,47.0,0.0,120.0,12.0,0.0
11162,59.0,48.0,120.0,10.0,0.0
11163,83.0,0.0,120.0,5.0,0.0
11164,47.0,0.0,120.0,11.0,0.0
11165,83.0,0.0,120.0,6.0,0.0
11166,71.0,0.0,120.0,7.0,0.0
11167,45.0,0.0,120.0,12.0,0.0
11168,69.0,0.0,120.0,7.0,0.0
11169,81.0,0.0,120.0,5.0,0.0
11170,57.0,0.0,120.0,1.0,0.0
11171,45.0,96.0,120.0,11.0,0.0
11172,57.0,0.0,120.0,10.0,0.0
11173,81.0,0.0,120.0,0.0,0.0
11174,81.0,0.0,120.0,6.0,0.0
11175,80.0,0.0,90.0,5.0,0.0
11176,44.0,0.0,90.0,11.0,0.0
11177,44.0,0.0,90.0,12.0,0.0
11178,68.0,0.0,90.0,7.0,0.0
11179,56.0,0.0,90.0,1.0,0.0
11180,80.0,144.0,90.0,6.0,0.0
11181,80.0,0.0,90.0,0.0,0.0
11182,56.0,0.0,90.0,10.0,0.0
11183,69.0,0.0,600.0,7.0,0.0
11184,81.0,120.0,120.0,5.0,0.0
11185,57.0,0.0,600.0,1.0,0.0
11186,57.0,0.0,600.0,10.0,0.0
11187,81.0,120.0,600.0,0.0,0.0
11188,45.0,0.0,600.0,12.0,0.0
11189,81.0,0.0,120.0,6.0,0.0
11190,45.0,0.0,600.0,11.0,0.0
11191,80.0,120.0,120.0,6.0,0.0
11192,80.0,0.0,120.0,5.0,0.0
11193,81.0,0.0,120.0,5.0,0.0
11194,81.0,120.0,120.0,6.0,0.0
11195,80.0,0.0,120.0,6.0,0.0
11196,80.0,120.0,120.0,5.0,0.0
11197,81.0,0.0,120.0,6.0,0.0
11198,81.0,0.0,120.0,5.0,0.0
11199,80.0,0.0,120.0,5.0,0.0
11200,56.0,0.0,120.0,10.0,0.0
11201,80.0,0.0,120.0,6.0,0.0
11202,68.0,0.0,120.0,7.0,0.0
11203,56.0,120.0,120.0,1.0,0.0
11204,44.0,0.0,120.0,12.0,0.0
11205,44.0,0.0,120.0,11.0,0.0
11206,80.0,0.0,120.0,0.0,0.0
11207,78.0,0.0,120.0,0.0,0.0
11208,42.0,0.0,120.0,12.0,0.0
11209,78.0,0.0,120.0,6.0,0.0
11210,54.0,0.0,120.0,10.0,0.0
11211,54.0,96.0,120.0,1.0,0.0
11212,78.0,0.0,120.0,5.0,0.0
11213,66.0,0.0,120.0,7.0,0.0
11214,42.0,0.0,120.0,11.0,0.0
11215,77.0,0.0,90.0,5.0,0.0
11216,53.0,0.0,90.0,10.0,0.0
11217,77.0,144.0,90.0,6.0,0.0
11218,53.0,0.0,90.0,1.0,0.0
11219,41.0,0.0,90.0,12.0,0.0
11220,41.0,0.0,90.0,11.0,0.0
11221,77.0,0.0,90.0,0.0,0.0
11222,65.0,0.0,90.0,7.0,0.0
11223,78.0,0.0,120.0,5.0,0.0
11224,78.0,96.0,390.0,3.0,0.0
11225,78.0,120.0,120.0,6.0,0.0
11226,54.0,0.0,600.0,10.0,0.0
11227,66.0,0.0,600.0,7.0,0.0
11228,66.0,72.0,780.0,2.0,0.0
11229,42.0,0.0,600.0,12.0,0.0
11230,42.0,0.0,600.0,11.0,0.0
11231,78.0,0.0,600.0,0.0,0.0
11232,54.0,0.0,600.0,1.0,0.0
11233,77.0,120.0,120.0,6.0,0.0
11234,77.0,0.0,120.0,5.0,0.0
11235,78.0,24.0,120.0,5.0,0.0
11236,78.0,0.0,120.0,6.0,0.0
11237,77.0,0.0,120.0,5.0,0.0
11238,77.0,120.0,120.0,6.0,0.0
11239,78.0,0.0,120.0,6.0,0.0
11240,78.0,120.0,120.0,5.0,0.0
11241,76.0,0.0,120.0,5.0,0.0
11242,40.0,48.0,120.0,11.0,0.0
11243,40.0,0.0,120.0,12.0,0.0
11244,64.0,0.0,120.0,7.0,0.0
11245,76.0,0.0,120.0,0.0,0.0
11246,52.0,0.0,120.0,1.0,0.0
11247,76.0,0.0,120.0,6.0,0.0
11248,52.0,0.0,120.0,10.0,0.0
11249,75.0,0.0,120.0,6.0,0.0
11250,75.0,0.0,120.0,5.0,0.0
11251,75.0,0.0,120.0,0.0,0.0
11252,63.0,0.0,120.0,7.0,0.0
11253,51.0,0.0,120.0,1.0,0.0
11254,39.0,0.0,120.0,11.0,0.0
11255,39.0,0.0,120.0,12.0,0.0
11256,51.0,96.0,120.0,10.0,0.0
11257,61.0,192.0,90.0,7.0,0.0
11258,73.0,0.0,90.0,0.0,0.0
11259,73.0,0.0,90.0,5.0,0.0
11260,49.0,0.0,90.0,10.0,0.0
11261,49.0,0.0,90.0,1.0,0.0
11262,37.0,0.0,90.0,11.0,0.0
11263,73.0,0.0,90.0,6.0,0.0
11264,37.0,0.0,90.0,12.0,0.0
11265,71.0,0.0,180.0,6.0,0.0
11266,47.0,0.0,180.0,1.0,0.0
11267,71.0,0.0,330.0,3.0,0.0
11268,71.0,48.0,330.0,0.0,0.0
11269,35.0,0.0,180.0,11.0,0.0
11270,59.0,0.0,180.0,7.0,0.0
11271,47.0,0.0,180.0,10.0,0.0
11272,35.0,168.0,180.0,12.0,0.0
11273,71.0,0.0,180.0,5.0,0.0
11274,59.0,0.0,330.0,2.0,0.0
11275,47.0,24.0,390.0,4.0,0.0
11276,47.0,0.0,180.0,11.0,0.0
11277,87.0,168.0,240.0,5.0,0.0
11278,59.0,72.0,180.0,1.0,0.0
11279,47.0,0.0,180.0,12.0,0.0
11280,59.0,0.0,180.0,10.0,0.0
11281,87.0,0.0,240.0,6.0,0.0
11282,71.0,0.0,180.0,7.0,0.0
11283,88.0,0.0,180.0,6.0,0.0
11284,52.0,24.0,390.0,4.0,0.0
11285,80.0,48.0,330.0,3.0,0.0
11286,76.0,0.0,810.0,3.0,0.0
11287,61.0,168.0,180.0,1.0,0.0
11288,61.0,0.0,180.0,10.0,0.0
11289,76.0,0.0,810.0,0.0,0.0
11290,68.0,0.0,330.0,2.0,0.0
11291,49.0,0.0,180.0,12.0,0.0
11292,49.0,0.0,180.0,11.0,0.0
11293,88.0,0.0,180.0,5.0,0.0
11294,64.0,0.0,810.0,2.0,0.0
11295,73.0,0.0,180.0,7.0,0.0
11296,80.0,0.0,330.0,0.0,0.0
11297,49.0,0.0,180.0,11.0,0.0
11298,61.0,0.0,180.0,1.0,0.0
11299,76.0,0.0,180.0,5.0,0.0
11300,73.0,0.0,180.0,7.0,0.0
11301,61.0,240.0,180.0,10.0,0.0
11302,76.0,0.0,180.0,6.0,0.0
11303,49.0,0.0,180.0,12.0,0.0
11304,45.0,0.0,180.0,11.0,0.0
11305,57.0,0.0,180.0,10.0,0.0
11306,69.0,168.0,180.0,5.0,0.0
11307,69.0,0.0,180.0,7.0,0.0
11308,57.0,0.0,180.0,1.0,0.0
11309,66.0,48.0,330.0,2.0,0.0
11310,78.0,0.0,330.0,3.0,0.0
11311,45.0,0.0,180.0,12.0,0.0
11312,69.0,0.0,180.0,6.0,0.0
11313,78.0,0.0,330.0,0.0,0.0
11314,52.0,24.0,390.0,4.0,0.0
11315,85.0,0.0,180.0,6.0,0.0
11316,69.0,0.0,180.0,7.0,0.0
11317,57.0,0.0,180.0,1.0,0.0
11318,45.0,0.0,180.0,11.0,0.0
11319,57.0,240.0,180.0,10.0,0.0
11320,85.0,0.0,180.0,5.0,0.0
11321,45.0,0.0,180.0,12.0,0.0
11322,47.0,0.0,180.0,11.0,0.0
11323,66.0,0.0,330.0,2.0,0.0
11324,47.0,24.0,390.0,4.0,0.0
11325,78.0,0.0,330.0,0.0,0.0
11326,75.0,0.0,330.0,0.0,0.0
11327,71.0,168.0,180.0,7.0,0.0
11328,78.0,48.0,330.0,3.0,0.0
11329,47.0,0.0,180.0,12.0,0.0
11330,71.0,0.0,330.0,3.0,0.0
11331,59.0,0.0,330.0,2.0,0.0
11332,59.0,0.0,180.0,6.0,0.0
11333,59.0,0.0,180.0,10.0,0.0
11334,59.0,0.0,180.0,1.0,0.0
11335,59.0,0.0,180.0,5.0,0.0
11336,75.0,0.0,180.0,6.0,0.0
11337,47.0,0.0,180.0,11.0,0.0
11338,71.0,0.0,180.0,7.0,0.0
11339,47.0,0.0,180.0,12.0,0.0
11340,59.0,0.0,180.0,1.0,0.0
11341,75.0,0.0,180.0,5.0,0.0
11342,59.0,252.0,180.0,10.0,0.0
11343,76.0,132.0,1740.0,3.0,0.0
11344,76.0,132.0,780.0,0.0,0.0
11345,64.0,0.0,1740.0,3.0,0.0
11346,52.0,0.0,180.0,10.0,0.0
11347,64.0,0.0,180.0,7.0,0.0
11348,40.0,0.0,180.0,11.0,0.0
11349,64.0,0.0,180.0,2.0,0.0
11350,52.0,192.0,180.0,2.0,0.0
11351,76.0,0.0,780.0,5.0,0.0
11352,76.0,0.0,180.0,6.0,0.0
11353,52.0,0.0,180.0,1.0,0.0
11354,40.0,12.0,180.0,12.0,0.0
11355,52.0,36.0,390.0,4.0,0.0
11356,52.0,192.0,180.0,2.0,0.0
11357,64.0,0.0,180.0,2.0,0.0
11358,52.0,0.0,180.0,1.0,0.0
11359,64.0,0.0,180.0,7.0,0.0
11360,40.0,0.0,180.0,11.0,0.0
11361,76.0,36.0,390.0,6.0,0.0
11362,40.0,0.0,180.0,12.0,0.0
11363,52.0,12.0,180.0,10.0,0.0
11364,52.0,0.0,180.0,2.0,0.0
11365,64.0,96.0,180.0,2.0,0.0
11366,64.0,12.0,180.0,7.0,0.0
11367,52.0,0.0,180.0,1.0,0.0
11368,40.0,0.0,180.0,12.0,0.0
11369,40.0,0.0,180.0,11.0,0.0
11370,52.0,0.0,180.0,10.0,0.0
11371,52.0,0.0,180.0,10.0,0.0
11372,40.0,12.0,180.0,12.0,0.0
11373,64.0,0.0,180.0,7.0,0.0
11374,40.0,0.0,180.0,11.0,0.0
11375,76.0,0.0,420.0,6.0,0.0
11376,52.0,228.0,180.0,2.0,0.0
11377,64.0,0.0,180.0,2.0,0.0
11378,52.0,0.0,180.0,1.0,0.0
11379,81.0,0.0,720.0,0.0,0.0
11380,61.0,0.0,180.0,10.0,0.0
11381,73.0,0.0,180.0,7.0,0.0
11382,64.0,192.0,180.0,2.0,0.0
11383,81.0,48.0,720.0,5.0,0.0
11384,52.0,0.0,180.0,2.0,0.0
11385,52.0,36.0,390.0,4.0,0.0
11386,61.0,0.0,180.0,1.0,0.0
11387,49.0,12.0,180.0,11.0,0.0
11388,49.0,0.0,180.0,12.0,0.0
11389,76.0,36.0,390.0,6.0,0.0
11390,61.0,0.0,180.0,1.0,0.0
11391,52.0,0.0,180.0,2.0,0.0
11392,61.0,0.0,180.0,10.0,0.0
11393,49.0,0.0,180.0,12.0,0.0
11394,49.0,0.0,180.0,11.0,0.0
11395,64.0,192.0,180.0,2.0,0.0
11396,73.0,12.0,180.0,7.0,0.0
11397,64.0,48.0,180.0,2.0,0.0
11398,52.0,0.0,180.0,2.0,0.0
11399,49.0,12.0,180.0,12.0,0.0
11400,61.0,0.0,180.0,1.0,0.0
11401,49.0,0.0,180.0,11.0,0.0
11402,61.0,0.0,180.0,10.0,0.0
11403,73.0,0.0,180.0,7.0,0.0
11404,47.0,0.0,180.0,11.0,0.0
11405,80.0,0.0,180.0,0.0,0.0
11406,59.0,0.0,180.0,10.0,0.0
11407,80.0,0.0,180.0,5.0,0.0
11408,59.0,0.0,180.0,1.0,0.0
11409,71.0,0.0,180.0,7.0,0.0
11410,76.0,0.0,420.0,6.0,0.0
11411,64.0,108.0,180.0,2.0,0.0
11412,52.0,0.0,180.0,2.0,0.0
11413,47.0,12.0,180.0,12.0,0.0
11414,45.0,12.0,180.0,12.0,0.0
11415,80.0,120.0,60.0,0.0,0.0
11416,45.0,0.0,180.0,11.0,0.0
11417,64.0,36.0,390.0,3.0,0.0
11418,57.0,0.0,180.0,10.0,0.0
11419,64.0,0.0,180.0,2.0,0.0
11420,52.0,48.0,180.0,2.0,0.0
11421,52.0,0.0,390.0,4.0,0.0
11422,69.0,0.0,180.0,7.0,0.0
11423,57.0,0.0,180.0,1.0,0.0
11424,80.0,0.0,60.0,5.0,0.0
11425,76.0,0.0,390.0,3.0,0.0
11426,78.0,144.0,180.0,5.0,0.0
11427,78.0,0.0,180.0,0.0,0.0
11428,44.0,12.0,180.0,12.0,0.0
11429,68.0,0.0,180.0,7.0,0.0
11430,77.0,108.0,180.0,0.0,0.0
11431,44.0,0.0,180.0,11.0,0.0
11432,64.0,0.0,180.0,2.0,0.0
11433,77.0,0.0,180.0,5.0,0.0
11434,56.0,0.0,180.0,10.0,0.0
11435,76.0,36.0,390.0,6.0,0.0
11436,56.0,0.0,180.0,1.0,0.0
11437,52.0,0.0,180.0,2.0,0.0
11438,52.0,0.0,390.0,4.0,0.0
11439,57.0,0.0,180.0,10.0,0.0
11440,76.0,36.0,390.0,3.0,0.0
11441,80.0,0.0,60.0,0.0,0.0
11442,64.0,48.0,180.0,2.0,0.0
11443,64.0,0.0,390.0,3.0,0.0
11444,45.0,12.0,180.0,11.0,0.0
11445,57.0,0.0,180.0,1.0,0.0
11446,69.0,0.0,180.0,7.0,0.0
11447,80.0,84.0,60.0,5.0,0.0
11448,45.0,0.0,180.0,12.0,0.0
11449,52.0,0.0,180.0,2.0,0.0
11450,78.0,144.0,180.0,0.0,0.0
11451,78.0,0.0,180.0,5.0,0.0
11452,68.0,0.0,180.0,7.0,0.0
11453,44.0,0.0,180.0,11.0,0.0
11454,56.0,0.0,180.0,1.0,0.0
11455,44.0,12.0,180.0,12.0,0.0
11456,77.0,0.0,180.0,0.0,0.0
11457,77.0,228.0,180.0,5.0,0.0
11458,64.0,0.0,180.0,2.0,0.0
11459,76.0,0.0,420.0,6.0,0.0
11460,56.0,0.0,180.0,10.0,0.0
11461,52.0,0.0,180.0,2.0,0.0
11462,45.0,0.0,180.0,12.0,0.0
11463,76.0,0.0,390.0,3.0,0.0
11464,78.0,180.0,720.0,0.0,0.0
11465,52.0,0.0,180.0,2.0,0.0
11466,64.0,36.0,390.0,3.0,0.0
11467,78.0,0.0,720.0,5.0,0.0
11468,69.0,0.0,180.0,7.0,0.0
11469,64.0,192.0,180.0,2.0,0.0
11470,45.0,0.0,180.0,11.0,0.0
11471,52.0,0.0,390.0,4.0,0.0
11472,57.0,0.0,180.0,10.0,0.0
11473,57.0,12.0,180.0,1.0,0.0
11474,45.0,12.0,180.0,11.0,0.0
11475,69.0,0.0,180.0,7.0,0.0
11476,76.0,36.0,390.0,6.0,0.0
11477,45.0,0.0,180.0,12.0,0.0
11478,57.0,0.0,180.0,10.0,0.0
11479,52.0,192.0,180.0,2.0,0.0
11480,57.0,0.0,180.0,1.0,0.0
11481,64.0,0.0,180.0,2.0,0.0
11482,45.0,0.0,180.0,12.0,0.0
11483,45.0,0.0,180.0,11.0,0.0
11484,64.0,48.0,180.0,2.0,0.0
11485,52.0,0.0,180.0,2.0,0.0
11486,57.0,0.0,180.0,10.0,0.0
11487,69.0,0.0,180.0,7.0,0.0
11488,57.0,12.0,180.0,1.0,0.0
11489,47.0,0.0,180.0,12.0,0.0
11490,80.0,0.0,180.0,5.0,0.0
11491,80.0,0.0,180.0,0.0,0.0
11492,76.0,48.0,420.0,6.0,0.0
11493,71.0,0.0,180.0,7.0,0.0
11494,47.0,0.0,180.0,11.0,0.0
11495,64.0,0.0,180.0,2.0,0.0
11496,52.0,108.0,180.0,2.0,0.0
11497,59.0,0.0,180.0,1.0,0.0
11498,59.0,12.0,180.0,10.0,0.0
11499,49.0,0.0,180.0,11.0,0.0
11500,83.0,0.0,60.0,0.0,0.0
11501,83.0,120.0,60.0,5.0,0.0
11502,61.0,0.0,180.0,1.0,0.0
11503,61.0,0.0,180.0,10.0,0.0
11504,64.0,0.0,180.0,2.0,0.0
11505,52.0,0.0,180.0,2.0,0.0
11506,49.0,0.0,180.0,12.0,0.0
11507,64.0,0.0,390.0,3.0,0.0
11508,76.0,0.0,390.0,3.0,0.0
11509,52.0,36.0,390.0,4.0,0.0
11510,73.0,12.0,180.0,7.0,0.0
11511,81.0,144.0,180.0,5.0,0.0
11512,81.0,0.0,180.0,0.0,0.0
11513,52.0,0.0,180.0,2.0,0.0
11514,80.0,0.0,180.0,0.0,0.0
11515,76.0,36.0,390.0,6.0,0.0
11516,48.0,0.0,180.0,11.0,0.0
11517,60.0,0.0,180.0,10.0,0.0
11518,60.0,0.0,180.0,1.0,0.0
11519,64.0,108.0,180.0,2.0,0.0
11520,48.0,0.0,180.0,12.0,0.0
11521,72.0,12.0,180.0,7.0,0.0
11522,80.0,0.0,180.0,5.0,0.0
11523,83.0,84.0,60.0,5.0,0.0
11524,52.0,48.0,180.0,2.0,0.0
11525,61.0,0.0,180.0,1.0,0.0
11526,52.0,0.0,390.0,4.0,0.0
11527,64.0,0.0,180.0,2.0,0.0
11528,49.0,0.0,180.0,12.0,0.0
11529,73.0,12.0,180.0,7.0,0.0
11530,61.0,0.0,180.0,10.0,0.0
11531,49.0,0.0,180.0,11.0,0.0
11532,64.0,36.0,390.0,3.0,0.0
11533,76.0,0.0,390.0,3.0,0.0
11534,83.0,0.0,60.0,0.0,0.0
11535,81.0,144.0,180.0,5.0,0.0
11536,81.0,0.0,180.0,0.0,0.0
11537,80.0,0.0,180.0,5.0,0.0
11538,80.0,228.0,180.0,0.0,0.0
11539,72.0,0.0,180.0,7.0,0.0
11540,76.0,0.0,420.0,6.0,0.0
11541,48.0,0.0,180.0,12.0,0.0
11542,60.0,12.0,180.0,10.0,0.0
11543,52.0,0.0,180.0,2.0,0.0
11544,64.0,0.0,180.0,2.0,0.0
11545,60.0,0.0,180.0,1.0,0.0
11546,48.0,0.0,180.0,11.0,0.0
11547,73.0,0.0,180.0,7.0,0.0
11548,52.0,36.0,390.0,4.0,0.0
11549,61.0,0.0,180.0,10.0,0.0
11550,49.0,0.0,180.0,12.0,0.0
11551,81.0,180.0,720.0,5.0,0.0
11552,49.0,0.0,180.0,11.0,0.0
11553,61.0,12.0,180.0,1.0,0.0
11554,64.0,192.0,180.0,2.0,0.0
11555,52.0,0.0,180.0,2.0,0.0
11556,64.0,0.0,390.0,3.0,0.0
11557,76.0,0.0,390.0,3.0,0.0
11558,81.0,0.0,720.0,0.0,0.0
11559,61.0,0.0,180.0,10.0,0.0
11560,73.0,0.0,180.0,7.0,0.0
11561,52.0,192.0,180.0,2.0,0.0
11562,61.0,0.0,180.0,1.0,0.0
11563,76.0,36.0,390.0,6.0,0.0
11564,49.0,12.0,180.0,12.0,0.0
11565,49.0,0.0,180.0,11.0,0.0
11566,64.0,0.0,180.0,2.0,0.0
11567,49.0,0.0,180.0,12.0,0.0
11568,49.0,0.0,180.0,11.0,0.0
11569,52.0,0.0,180.0,2.0,0.0
11570,61.0,12.0,180.0,1.0,0.0
11571,64.0,48.0,180.0,2.0,0.0
11572,73.0,0.0,180.0,7.0,0.0
11573,61.0,0.0,180.0,10.0,0.0
11574,61.0,0.0,180.0,1.0,0.0
11575,49.0,0.0,180.0,12.0,0.0
11576,64.0,0.0,180.0,2.0,0.0
11577,52.0,0.0,180.0,2.0,0.0
11578,49.0,0.0,180.0,11.0,0.0
11579,73.0,0.0,180.0,7.0,0.0
11580,82.0,0.0,180.0,0.0,0.0
11581,61.0,12.0,180.0,10.0,0.0
11582,76.0,0.0,420.0,6.0,0.0
11583,82.0,108.0,180.0,5.0,0.0
11584,85.0,0.0,60.0,0.0,0.0
11585,76.0,36.0,390.0,3.0,0.0
11586,56.0,0.0,180.0,10.0,0.0
11587,52.0,48.0,180.0,2.0,0.0
11588,44.0,0.0,180.0,11.0,0.0
11589,64.0,0.0,390.0,3.0,0.0
11590,64.0,0.0,180.0,2.0,0.0
11591,56.0,12.0,180.0,1.0,0.0
11592,52.0,0.0,390.0,4.0,0.0
11593,85.0,120.0,60.0,5.0,0.0
11594,68.0,0.0,180.0,7.0,0.0
11595,44.0,0.0,180.0,12.0,0.0
11596,83.0,0.0,180.0,0.0,0.0
11597,83.0,144.0,180.0,5.0,0.0
11598,82.0,108.0,180.0,5.0,0.0
11599,67.0,0.0,180.0,7.0,0.0
11600,43.0,0.0,180.0,11.0,0.0
11601,52.0,0.0,180.0,2.0,0.0
11602,82.0,0.0,180.0,0.0,0.0
11603,64.0,0.0,180.0,2.0,0.0
11604,76.0,36.0,390.0,6.0,0.0
11605,55.0,12.0,180.0,1.0,0.0
11606,55.0,0.0,180.0,10.0,0.0
11607,43.0,0.0,180.0,12.0,0.0
11608,85.0,0.0,60.0,0.0,0.0
11609,68.0,0.0,180.0,7.0,0.0
11610,76.0,0.0,390.0,3.0,0.0
11611,64.0,36.0,390.0,3.0,0.0
11612,56.0,0.0,180.0,10.0,0.0
11613,44.0,12.0,180.0,12.0,0.0
11614,56.0,0.0,180.0,1.0,0.0
11615,44.0,0.0,180.0,11.0,0.0
11616,64.0,0.0,180.0,2.0,0.0
11617,52.0,48.0,180.0,2.0,0.0
11618,52.0,0.0,390.0,4.0,0.0
11619,85.0,84.0,60.0,5.0,0.0
11620,83.0,0.0,180.0,0.0,0.0
11621,83.0,144.0,180.0,5.0,0.0
11622,43.0,0.0,180.0,11.0,0.0
11623,64.0,0.0,180.0,2.0,0.0
11624,55.0,0.0,180.0,10.0,0.0
11625,76.0,192.0,420.0,6.0,0.0
11626,82.0,228.0,180.0,5.0,0.0
11627,67.0,12.0,180.0,7.0,0.0
11628,55.0,0.0,180.0,1.0,0.0
11629,43.0,0.0,180.0,12.0,0.0
11630,52.0,0.0,180.0,2.0,0.0
11631,82.0,0.0,180.0,0.0,0.0
11632,56.0,0.0,180.0,10.0,0.0
11633,52.0,0.0,180.0,2.0,0.0
11634,83.0,120.0,720.0,5.0,0.0
11635,52.0,36.0,390.0,4.0,0.0
11636,44.0,0.0,180.0,11.0,0.0
11637,64.0,0.0,390.0,3.0,0.0
11638,76.0,0.0,390.0,3.0,0.0
11639,68.0,0.0,180.0,7.0,0.0
11640,56.0,0.0,180.0,1.0,0.0
11641,64.0,0.0,180.0,2.0,0.0
11642,83.0,0.0,720.0,0.0,0.0
11643,44.0,12.0,180.0,12.0,0.0
11644,44.0,0.0,180.0,11.0,0.0
11645,76.0,36.0,390.0,6.0,0.0
11646,64.0,0.0,180.0,2.0,0.0
11647,52.0,192.0,180.0,2.0,0.0
11648,44.0,0.0,180.0,12.0,0.0
11649,56.0,0.0,180.0,1.0,0.0
11650,68.0,12.0,180.0,7.0,0.0
11651,56.0,0.0,180.0,10.0,0.0
11652,52.0,0.0,180.0,2.0,0.0
11653,56.0,0.0,180.0,10.0,0.0
11654,64.0,48.0,180.0,2.0,0.0
11655,68.0,12.0,180.0,7.0,0.0
11656,44.0,0.0,180.0,11.0,0.0
11657,44.0,0.0,180.0,12.0,0.0
11658,56.0,0.0,180.0,1.0,0.0
11659,71.0,0.0,180.0,7.0,0.0
11660,64.0,0.0,180.0,2.0,0.0
11661,44.0,0.0,180.0,12.0,0.0
11662,81.0,60.0,120.0,0.0,0.0
11663,56.0,0.0,180.0,1.0,0.0
11664,52.0,24.0,180.0,2.0,0.0
11665,76.0,0.0,180.0,6.0,0.0
11666,81.0,0.0,120.0,5.0,0.0
11667,56.0,12.0,180.0,10.0,0.0
11668,44.0,0.0,180.0,11.0,0.0
11669,80.0,0.0,90.0,0.0,0.0
11670,80.0,204.0,90.0,5.0,0.0
11671,66.0,0.0,780.0,2.0,0.0
11672,78.0,48.0,720.0,6.0,0.0
11673,69.0,72.0,780.0,2.0,0.0
11674,57.0,0.0,180.0,1.0,0.0
11675,73.0,0.0,900.0,0.0,0.0
11676,85.0,0.0,900.0,0.0,0.0
11677,78.0,0.0,720.0,5.0,0.0
11678,73.0,228.0,180.0,7.0,0.0
11679,57.0,12.0,180.0,10.0,0.0
11680,45.0,0.0,180.0,11.0,0.0
11681,45.0,0.0,180.0,12.0,0.0
11682,73.0,228.0,180.0,7.0,0.0
11683,45.0,0.0,180.0,12.0,0.0
11684,57.0,0.0,180.0,1.0,0.0
11685,45.0,0.0,180.0,11.0,0.0
11686,57.0,12.0,180.0,10.0,0.0
11687,73.0,48.0,180.0,7.0,0.0
11688,57.0,0.0,180.0,10.0,0.0
11689,45.0,12.0,180.0,12.0,0.0
11690,45.0,0.0,180.0,11.0,0.0
11691,57.0,0.0,180.0,1.0,0.0
11692,45.0,0.0,180.0,11.0,0.0
11693,80.0,0.0,120.0,5.0,0.0
11694,73.0,24.0,180.0,7.0,0.0
11695,57.0,0.0,180.0,10.0,0.0
11696,57.0,0.0,180.0,1.0,0.0
11697,80.0,60.0,120.0,6.0,0.0
11698,45.0,12.0,180.0,12.0,0.0
11699,81.0,0.0,90.0,6.0,0.0
11700,81.0,204.0,90.0,5.0,0.0
11701,47.0,0.0,180.0,11.0,0.0
11702,47.0,36.0,390.0,4.0,0.0
11703,75.0,0.0,900.0,0.0,0.0
11704,59.0,0.0,180.0,1.0,0.0
11705,71.0,0.0,720.0,5.0,0.0
11706,59.0,204.0,180.0,10.0,0.0
11707,71.0,0.0,780.0,3.0,0.0
11708,66.0,0.0,780.0,2.0,0.0
11709,59.0,72.0,780.0,2.0,0.0
11710,63.0,0.0,720.0,7.0,0.0
11711,71.0,48.0,720.0,6.0,0.0
11712,47.0,0.0,180.0,12.0,0.0
11713,69.0,24.0,900.0,0.0,0.0
11714,47.0,0.0,180.0,12.0,0.0
11715,47.0,0.0,180.0,11.0,0.0
11716,59.0,240.0,180.0,10.0,0.0
11717,59.0,0.0,180.0,1.0,0.0
11718,47.0,0.0,180.0,12.0,0.0
11719,59.0,0.0,180.0,10.0,0.0
11720,59.0,0.0,180.0,1.0,0.0
11721,47.0,60.0,180.0,11.0,0.0
11722,73.0,0.0,120.0,6.0,0.0
11723,73.0,0.0,120.0,5.0,0.0
11724,59.0,12.0,180.0,1.0,0.0
11725,64.0,60.0,120.0,7.0,0.0
11726,59.0,0.0,180.0,10.0,0.0
11727,47.0,0.0,180.0,12.0,0.0
11728,47.0,0.0,180.0,11.0,0.0
11729,75.0,0.0,90.0,5.0,0.0
11730,75.0,204.0,90.0,6.0,0.0
11731,66.0,0.0,90.0,7.0,0.0
11732,76.0,0.0,180.0,5.0,0.0
11733,52.0,0.0,180.0,10.0,0.0
11734,40.0,12.0,180.0,12.0,0.0
11735,40.0,0.0,180.0,11.0,0.0
11736,68.0,144.0,480.0,0.0,0.0
11737,76.0,96.0,780.0,6.0,0.0
11738,68.0,0.0,180.0,7.0,0.0
11739,52.0,0.0,180.0,2.0,0.0
11740,52.0,0.0,180.0,1.0,0.0
11741,64.0,192.0,180.0,2.0,0.0
11742,64.0,132.0,1740.0,3.0,0.0
11743,52.0,36.0,390.0,4.0,0.0
11744,76.0,0.0,1740.0,3.0,0.0
11745,76.0,36.0,870.0,0.0,0.0
11746,40.0,0.0,180.0,11.0,0.0
11747,64.0,0.0,180.0,2.0,0.0
11748,52.0,48.0,180.0,2.0,0.0
11749,40.0,12.0,180.0,12.0,0.0
11750,88.0,36.0,390.0,5.0,0.0
11751,52.0,0.0,180.0,1.0,0.0
11752,64.0,0.0,180.0,7.0,0.0
11753,52.0,0.0,180.0,10.0,0.0
11754,40.0,0.0,180.0,11.0,0.0
11755,52.0,12.0,180.0,10.0,0.0
11756,52.0,96.0,180.0,2.0,0.0
11757,52.0,0.0,180.0,1.0,0.0
11758,64.0,0.0,180.0,7.0,0.0
11759,64.0,0.0,180.0,2.0,0.0
11760,40.0,0.0,180.0,12.0,0.0
11761,52.0,0.0,180.0,10.0,0.0
11762,52.0,0.0,180.0,2.0,0.0
11763,64.0,228.0,180.0,2.0,0.0
11764,88.0,0.0,420.0,5.0,0.0
11765,40.0,0.0,180.0,11.0,0.0
11766,52.0,0.0,180.0,1.0,0.0
11767,40.0,0.0,180.0,12.0,0.0
11768,64.0,12.0,180.0,7.0,0.0
11769,49.0,0.0,180.0,12.0,0.0
11770,81.0,0.0,720.0,6.0,0.0
11771,52.0,36.0,390.0,4.0,0.0
11772,64.0,0.0,180.0,2.0,0.0
11773,81.0,48.0,720.0,0.0,0.0
11774,52.0,192.0,180.0,2.0,0.0
11775,49.0,0.0,180.0,11.0,0.0
11776,61.0,0.0,180.0,1.0,0.0
11777,61.0,12.0,180.0,10.0,0.0
11778,73.0,0.0,180.0,7.0,0.0
11779,49.0,0.0,180.0,12.0,0.0
11780,61.0,12.0,180.0,1.0,0.0
11781,64.0,0.0,180.0,2.0,0.0
11782,52.0,192.0,180.0,2.0,0.0
11783,49.0,0.0,180.0,11.0,0.0
11784,88.0,36.0,390.0,5.0,0.0
11785,73.0,0.0,180.0,7.0,0.0
11786,61.0,0.0,180.0,10.0,0.0
11787,49.0,12.0,180.0,11.0,0.0
11788,61.0,0.0,180.0,10.0,0.0
11789,61.0,0.0,180.0,1.0,0.0
11790,73.0,0.0,180.0,7.0,0.0
11791,49.0,0.0,180.0,12.0,0.0
11792,52.0,0.0,180.0,2.0,0.0
11793,64.0,48.0,180.0,2.0,0.0
11794,71.0,0.0,180.0,7.0,0.0
11795,80.0,0.0,180.0,0.0,0.0
11796,80.0,0.0,180.0,6.0,0.0
11797,64.0,108.0,180.0,2.0,0.0
11798,59.0,12.0,180.0,10.0,0.0
11799,52.0,0.0,180.0,2.0,0.0
11800,47.0,0.0,180.0,11.0,0.0
11801,59.0,0.0,180.0,1.0,0.0
11802,47.0,0.0,180.0,12.0,0.0
11803,88.0,48.0,420.0,5.0,0.0
11804,57.0,12.0,180.0,10.0,0.0
11805,52.0,0.0,180.0,2.0,0.0
11806,64.0,0.0,390.0,3.0,0.0
11807,69.0,0.0,180.0,7.0,0.0
11808,80.0,0.0,60.0,0.0,0.0
11809,45.0,0.0,180.0,12.0,0.0
11810,57.0,0.0,180.0,1.0,0.0
11811,80.0,120.0,60.0,6.0,0.0
11812,45.0,0.0,180.0,11.0,0.0
11813,64.0,0.0,180.0,2.0,0.0
11814,76.0,0.0,390.0,3.0,0.0
11815,52.0,36.0,390.0,4.0,0.0
11816,78.0,144.0,180.0,0.0,0.0
11817,78.0,0.0,180.0,6.0,0.0
11818,52.0,0.0,180.0,2.0,0.0
11819,56.0,0.0,180.0,10.0,0.0
11820,56.0,0.0,180.0,1.0,0.0
11821,44.0,0.0,180.0,12.0,0.0
11822,44.0,12.0,180.0,11.0,0.0
11823,88.0,36.0,390.0,5.0,0.0
11824,64.0,0.0,180.0,2.0,0.0
11825,77.0,0.0,180.0,6.0,0.0
11826,77.0,108.0,180.0,0.0,0.0
11827,68.0,0.0,180.0,7.0,0.0
11828,80.0,84.0,60.0,6.0,0.0
11829,45.0,0.0,180.0,12.0,0.0
11830,69.0,0.0,180.0,7.0,0.0
11831,64.0,36.0,390.0,3.0,0.0
11832,57.0,12.0,180.0,10.0,0.0
11833,52.0,48.0,180.0,2.0,0.0
11834,64.0,0.0,180.0,2.0,0.0
11835,52.0,0.0,390.0,4.0,0.0
11836,76.0,0.0,390.0,3.0,0.0
11837,45.0,0.0,180.0,11.0,0.0
11838,57.0,0.0,180.0,1.0,0.0
11839,80.0,0.0,60.0,0.0,0.0
11840,78.0,144.0,180.0,6.0,0.0
11841,78.0,0.0,180.0,0.0,0.0
11842,68.0,0.0,180.0,7.0,0.0
11843,77.0,228.0,180.0,0.0,0.0
11844,56.0,0.0,180.0,1.0,0.0
11845,56.0,12.0,180.0,10.0,0.0
11846,44.0,0.0,180.0,12.0,0.0
11847,88.0,0.0,420.0,5.0,0.0
11848,52.0,0.0,180.0,2.0,0.0
11849,64.0,0.0,180.0,2.0,0.0
11850,77.0,0.0,180.0,6.0,0.0
11851,44.0,0.0,180.0,11.0,0.0
11852,57.0,0.0,180.0,10.0,0.0
11853,76.0,0.0,390.0,3.0,0.0
11854,64.0,0.0,390.0,3.0,0.0
11855,78.0,180.0,720.0,0.0,0.0
11856,52.0,36.0,390.0,4.0,0.0
11857,45.0,0.0,180.0,12.0,0.0
11858,78.0,0.0,720.0,6.0,0.0
11859,69.0,0.0,180.0,7.0,0.0
11860,52.0,0.0,180.0,2.0,0.0
11861,64.0,192.0,180.0,2.0,0.0
11862,57.0,0.0,180.0,1.0,0.0
11863,45.0,12.0,180.0,11.0,0.0
11864,57.0,0.0,180.0,10.0,0.0
11865,45.0,0.0,180.0,12.0,0.0
11866,69.0,0.0,180.0,7.0,0.0
11867,64.0,0.0,180.0,2.0,0.0
11868,52.0,192.0,180.0,2.0,0.0
11869,57.0,0.0,180.0,1.0,0.0
11870,88.0,36.0,390.0,5.0,0.0
11871,45.0,12.0,180.0,11.0,0.0
11872,57.0,0.0,180.0,1.0,0.0
11873,52.0,0.0,180.0,2.0,0.0
11874,64.0,48.0,180.0,2.0,0.0
11875,69.0,0.0,180.0,7.0,0.0
11876,45.0,12.0,180.0,12.0,0.0
11877,45.0,0.0,180.0,11.0,0.0
11878,57.0,0.0,180.0,10.0,0.0
11879,59.0,0.0,180.0,10.0,0.0
11880,59.0,0.0,180.0,1.0,0.0
11881,88.0,48.0,420.0,5.0,0.0
11882,80.0,108.0,180.0,6.0,0.0
11883,80.0,0.0,180.0,0.0,0.0
11884,47.0,0.0,180.0,11.0,0.0
11885,52.0,0.0,180.0,2.0,0.0
11886,64.0,0.0,180.0,2.0,0.0
11887,71.0,0.0,180.0,7.0,0.0
11888,47.0,12.0,180.0,12.0,0.0
11889,52.0,36.0,390.0,4.0,0.0
11890,83.0,120.0,60.0,6.0,0.0
11891,49.0,0.0,180.0,11.0,0.0
11892,83.0,0.0,60.0,0.0,0.0
11893,73.0,12.0,180.0,7.0,0.0
11894,49.0,0.0,180.0,12.0,0.0
11895,64.0,0.0,390.0,3.0,0.0
11896,64.0,0.0,180.0,2.0,0.0
11897,52.0,0.0,180.0,2.0,0.0
11898,61.0,0.0,180.0,10.0,0.0
11899,76.0,0.0,390.0,3.0,0.0
11900,61.0,0.0,180.0,1.0,0.0
11901,81.0,0.0,180.0,0.0,0.0
11902,81.0,144.0,180.0,6.0,0.0
11903,60.0,0.0,180.0,1.0,0.0
11904,48.0,0.0,180.0,12.0,0.0
11905,80.0,0.0,180.0,0.0,0.0
11906,60.0,0.0,180.0,10.0,0.0
11907,64.0,108.0,180.0,2.0,0.0
11908,72.0,12.0,180.0,7.0,0.0
11909,88.0,36.0,390.0,5.0,0.0
11910,48.0,0.0,180.0,11.0,0.0
11911,52.0,0.0,180.0,2.0,0.0
11912,80.0,0.0,180.0,6.0,0.0
11913,73.0,0.0,180.0,7.0,0.0
11914,83.0,0.0,60.0,6.0,0.0
11915,64.0,36.0,390.0,3.0,0.0
11916,76.0,0.0,390.0,3.0,0.0
11917,49.0,0.0,180.0,12.0,0.0
11918,61.0,0.0,180.0,10.0,0.0
11919,49.0,12.0,180.0,11.0,0.0
11920,83.0,84.0,60.0,0.0,0.0
11921,61.0,0.0,180.0,1.0,0.0
11922,64.0,48.0,180.0,2.0,0.0
11923,52.0,0.0,390.0,4.0,0.0
11924,52.0,0.0,180.0,2.0,0.0
11925,81.0,144.0,180.0,6.0,0.0
11926,81.0,0.0,180.0,0.0,0.0
11927,88.0,192.0,420.0,5.0,0.0
11928,52.0,0.0,180.0,2.0,0.0
11929,80.0,0.0,180.0,6.0,0.0
11930,72.0,0.0,180.0,7.0,0.0
11931,48.0,0.0,180.0,12.0,0.0
11932,64.0,228.0,180.0,2.0,0.0
11933,48.0,12.0,180.0,11.0,0.0
11934,60.0,0.0,180.0,1.0,0.0
11935,60.0,0.0,180.0,10.0,0.0
11936,80.0,0.0,180.0,0.0,0.0
11937,81.0,180.0,720.0,6.0,0.0
11938,61.0,0.0,180.0,10.0,0.0
11939,61.0,0.0,180.0,1.0,0.0
11940,49.0,0.0,180.0,11.0,0.0
11941,81.0,0.0,720.0,0.0,0.0
11942,76.0,0.0,390.0,3.0,0.0
11943,64.0,0.0,390.0,3.0,0.0
11944,52.0,0.0,180.0,2.0,0.0
11945,64.0,0.0,180.0,2.0,0.0
11946,49.0,0.0,180.0,12.0,0.0
11947,52.0,36.0,390.0,4.0,0.0
11948,73.0,12.0,180.0,7.0,0.0
11949,73.0,0.0,180.0,7.0,0.0
11950,52.0,0.0,180.0,2.0,0.0
11951,64.0,192.0,180.0,2.0,0.0
11952,88.0,36.0,390.0,5.0,0.0
11953,61.0,0.0,180.0,10.0,0.0
11954,49.0,0.0,180.0,12.0,0.0
11955,49.0,0.0,180.0,11.0,0.0
11956,61.0,12.0,180.0,1.0,0.0
11957,52.0,0.0,180.0,2.0,0.0
11958,49.0,0.0,180.0,11.0,0.0
11959,64.0,48.0,180.0,2.0,0.0
11960,49.0,0.0,180.0,12.0,0.0
11961,73.0,0.0,180.0,7.0,0.0
11962,61.0,0.0,180.0,10.0,0.0
11963,61.0,12.0,180.0,1.0,0.0
11964,88.0,0.0,420.0,5.0,0.0
11965,61.0,0.0,180.0,10.0,0.0
11966,82.0,108.0,180.0,0.0,0.0
11967,64.0,0.0,180.0,2.0,0.0
11968,52.0,0.0,180.0,2.0,0.0
11969,82.0,0.0,180.0,6.0,0.0
11970,73.0,0.0,180.0,7.0,0.0
11971,49.0,0.0,180.0,11.0,0.0
11972,49.0,12.0,180.0,12.0,0.0
11973,61.0,0.0,180.0,1.0,0.0
11974,56.0,0.0,180.0,1.0,0.0
11975,44.0,0.0,180.0,12.0,0.0
11976,44.0,0.0,180.0,11.0,0.0
11977,68.0,12.0,180.0,7.0,0.0
11978,52.0,0.0,180.0,2.0,0.0
11979,64.0,48.0,180.0,2.0,0.0
11980,52.0,0.0,390.0,4.0,0.0
11981,76.0,0.0,390.0,3.0,0.0
11982,56.0,0.0,180.0,10.0,0.0
11983,85.0,0.0,60.0,0.0,0.0
11984,64.0,36.0,390.0,3.0,0.0
11985,85.0,120.0,60.0,6.0,0.0
11986,83.0,144.0,180.0,0.0,0.0
11987,83.0,0.0,180.0,6.0,0.0
11988,67.0,0.0,180.0,7.0,0.0
11989,82.0,0.0,180.0,6.0,0.0
11990,82.0,0.0,180.0,0.0,0.0
11991,43.0,0.0,180.0,11.0,0.0
11992,55.0,0.0,180.0,1.0,0.0
11993,88.0,36.0,390.0,5.0,0.0
11994,43.0,12.0,180.0,12.0,0.0
11995,52.0,108.0,180.0,2.0,0.0
11996,64.0,0.0,180.0,2.0,0.0
11997,55.0,0.0,180.0,10.0,0.0
11998,64.0,48.0,180.0,2.0,0.0
11999,52.0,0.0,180.0,2.0,0.0
12000,56.0,0.0,180.0,10.0,0.0
12001,56.0,0.0,180.0,1.0,0.0
12002,64.0,0.0,390.0,3.0,0.0
12003,76.0,36.0,390.0,3.0,0.0
12004,52.0,0.0,390.0,4.0,0.0
12005,68.0,12.0,180.0,7.0,0.0
12006,85.0,0.0,60.0,6.0,0.0
12007,85.0,84.0,60.0,0.0,0.0
12008,44.0,0.0,180.0,11.0,0.0
12009,44.0,0.0,180.0,12.0,0.0
12010,83.0,144.0,180.0,0.0,0.0
12011,83.0,0.0,180.0,6.0,0.0
12012,43.0,0.0,180.0,11.0,0.0
12013,64.0,0.0,180.0,2.0,0.0
12014,82.0,228.0,180.0,6.0,0.0
12015,55.0,12.0,180.0,1.0,0.0
12016,88.0,0.0,420.0,5.0,0.0
12017,82.0,0.0,180.0,0.0,0.0
12018,52.0,0.0,180.0,2.0,0.0
12019,43.0,0.0,180.0,12.0,0.0
12020,67.0,0.0,180.0,7.0,0.0
12021,55.0,0.0,180.0,10.0,0.0
12022,56.0,0.0,180.0,10.0,0.0
12023,44.0,0.0,180.0,12.0,0.0
12024,68.0,0.0,180.0,7.0,0.0
12025,56.0,0.0,180.0,1.0,0.0
12026,76.0,0.0,390.0,3.0,0.0
12027,52.0,36.0,390.0,4.0,0.0
12028,44.0,12.0,180.0,11.0,0.0
12029,64.0,0.0,390.0,3.0,0.0
12030,64.0,0.0,180.0,2.0,0.0
12031,52.0,192.0,180.0,2.0,0.0
12032,83.0,180.0,720.0,0.0,0.0
12033,83.0,0.0,720.0,6.0,0.0
12034,44.0,0.0,180.0,12.0,0.0
12035,44.0,0.0,180.0,11.0,0.0
12036,56.0,12.0,180.0,1.0,0.0
12037,52.0,192.0,180.0,2.0,0.0
12038,64.0,0.0,180.0,2.0,0.0
12039,68.0,0.0,180.0,7.0,0.0
12040,56.0,0.0,180.0,10.0,0.0
12041,88.0,36.0,390.0,5.0,0.0
12042,64.0,48.0,180.0,2.0,0.0
12043,44.0,0.0,180.0,11.0,0.0
12044,68.0,0.0,180.0,7.0,0.0
12045,52.0,0.0,180.0,2.0,0.0
12046,56.0,12.0,180.0,10.0,0.0
12047,44.0,0.0,180.0,12.0,0.0
12048,56.0,0.0,180.0,1.0,0.0
12049,44.0,0.0,180.0,12.0,0.0
12050,84.0,0.0,180.0,6.0,0.0
12051,44.0,0.0,180.0,11.0,0.0
12052,56.0,0.0,180.0,1.0,0.0
12053,84.0,0.0,180.0,5.0,0.0
12054,84.0,0.0,180.0,0.0,0.0
12055,56.0,0.0,180.0,10.0,0.0
12056,52.0,0.0,180.0,2.0,0.0
12057,64.0,108.0,180.0,2.0,0.0
12058,68.0,12.0,180.0,7.0,0.0
12059,76.0,72.0,570.0,3.0,0.0
12060,52.0,24.0,390.0,4.0,0.0
12061,69.0,192.0,180.0,7.0,0.0
12062,87.0,120.0,60.0,5.0,0.0
12063,64.0,0.0,570.0,3.0,0.0
12064,45.0,6.0,180.0,11.0,0.0
12065,52.0,0.0,180.0,2.0,0.0
12066,64.0,0.0,180.0,2.0,0.0
12067,57.0,0.0,180.0,1.0,0.0
12068,87.0,0.0,60.0,6.0,0.0
12069,45.0,0.0,180.0,12.0,0.0
12070,57.0,0.0,180.0,10.0,0.0
12071,87.0,0.0,60.0,0.0,0.0
12072,85.0,0.0,120.0,6.0,0.0
12073,85.0,0.0,120.0,5.0,0.0
12074,85.0,6.0,120.0,0.0,0.0
12075,44.0,0.0,180.0,12.0,0.0
12076,84.0,0.0,180.0,6.0,0.0
12077,56.0,0.0,180.0,1.0,0.0
12078,84.0,0.0,180.0,0.0,0.0
12079,56.0,12.0,180.0,10.0,0.0
12080,84.0,12.0,180.0,5.0,0.0
12081,44.0,0.0,180.0,11.0,0.0
12082,64.0,0.0,180.0,2.0,0.0
12083,68.0,144.0,180.0,7.0,0.0
12084,52.0,0.0,180.0,2.0,0.0
12085,85.0,12.0,180.0,5.0,0.0
12086,85.0,0.0,180.0,6.0,0.0
12087,69.0,216.0,180.0,7.0,0.0
12088,57.0,0.0,180.0,10.0,0.0
12089,64.0,0.0,180.0,2.0,0.0
12090,45.0,0.0,180.0,11.0,0.0
12091,52.0,0.0,180.0,2.0,0.0
12092,45.0,12.0,180.0,12.0,0.0
12093,85.0,0.0,180.0,0.0,0.0
12094,57.0,0.0,180.0,1.0,0.0
12095,42.0,12.0,180.0,11.0,0.0
12096,54.0,0.0,180.0,10.0,0.0
12097,66.0,108.0,180.0,7.0,0.0
12098,47.0,0.0,180.0,4.0,0.0
12099,54.0,0.0,180.0,1.0,0.0
12100,75.0,0.0,180.0,6.0,0.0
12101,71.0,0.0,180.0,3.0,0.0
12102,75.0,12.0,180.0,0.0,0.0
12103,42.0,0.0,180.0,12.0,0.0
12104,87.0,0.0,180.0,5.0,0.0
12105,59.0,0.0,180.0,2.0,0.0
12106,44.0,0.0,180.0,11.0,0.0
12107,90.0,0.0,60.0,5.0,0.0
12108,68.0,192.0,180.0,7.0,0.0
12109,78.0,120.0,60.0,6.0,0.0
12110,78.0,0.0,60.0,0.0,0.0
12111,56.0,6.0,180.0,10.0,0.0
12112,59.0,0.0,180.0,2.0,0.0
12113,71.0,0.0,180.0,3.0,0.0
12114,47.0,24.0,390.0,4.0,0.0
12115,44.0,0.0,180.0,12.0,0.0
12116,56.0,0.0,180.0,1.0,0.0
12117,76.0,6.0,120.0,0.0,0.0
12118,88.0,0.0,120.0,5.0,0.0
12119,76.0,0.0,120.0,6.0,0.0
12120,42.0,12.0,180.0,11.0,0.0
12121,75.0,12.0,180.0,6.0,0.0
12122,87.0,0.0,180.0,5.0,0.0
12123,71.0,0.0,180.0,3.0,0.0
12124,54.0,0.0,180.0,1.0,0.0
12125,42.0,0.0,180.0,12.0,0.0
12126,66.0,216.0,180.0,7.0,0.0
12127,59.0,0.0,180.0,2.0,0.0
12128,75.0,0.0,180.0,0.0,0.0
12129,54.0,0.0,180.0,10.0,0.0
12130,76.0,0.0,180.0,6.0,0.0
12131,44.0,0.0,180.0,12.0,0.0
12132,68.0,216.0,180.0,7.0,0.0
12133,71.0,0.0,180.0,3.0,0.0
12134,76.0,0.0,180.0,0.0,0.0
12135,44.0,0.0,180.0,11.0,0.0
12136,56.0,0.0,180.0,10.0,0.0
12137,59.0,0.0,180.0,2.0,0.0
12138,88.0,12.0,180.0,5.0,0.0
12139,56.0,12.0,180.0,1.0,0.0
12140,71.0,0.0,180.0,3.0,0.0
12141,78.0,0.0,180.0,0.0,0.0
12142,47.0,0.0,180.0,4.0,0.0
12143,51.0,0.0,180.0,1.0,0.0
12144,39.0,0.0,180.0,12.0,0.0
12145,51.0,0.0,180.0,10.0,0.0
12146,78.0,0.0,180.0,6.0,0.0
12147,90.0,12.0,180.0,5.0,0.0
12148,59.0,0.0,180.0,2.0,0.0
12149,63.0,228.0,180.0,7.0,0.0
12150,39.0,12.0,180.0,11.0,0.0
12151,52.0,0.0,180.0,10.0,0.0
12152,52.0,0.0,180.0,1.0,0.0
12153,76.0,0.0,180.0,6.0,0.0
12154,40.0,0.0,180.0,12.0,0.0
12155,92.0,48.0,330.0,5.0,0.0
12156,80.0,0.0,780.0,0.0,0.0
12157,52.0,36.0,390.0,4.0,0.0
12158,68.0,0.0,1740.0,3.0,0.0
12159,71.0,48.0,1740.0,3.0,0.0
12160,40.0,12.0,180.0,11.0,0.0
12161,64.0,0.0,1740.0,2.0,0.0
12162,64.0,144.0,180.0,7.0,0.0
12163,56.0,0.0,1740.0,2.0,0.0
12164,52.0,0.0,180.0,1.0,0.0
12165,71.0,36.0,390.0,7.0,0.0
12166,40.0,0.0,180.0,11.0,0.0
12167,52.0,0.0,180.0,10.0,0.0
12168,40.0,204.0,180.0,12.0,0.0
12169,80.0,0.0,390.0,6.0,0.0
12170,76.0,0.0,390.0,6.0,0.0
12171,52.0,0.0,180.0,1.0,0.0
12172,52.0,108.0,180.0,10.0,0.0
12173,40.0,0.0,180.0,11.0,0.0
12174,88.0,84.0,330.0,5.0,0.0
12175,40.0,0.0,180.0,12.0,0.0
12176,52.0,48.0,300.0,4.0,0.0
12177,76.0,0.0,420.0,6.0,0.0
12178,40.0,0.0,180.0,11.0,0.0
12179,80.0,0.0,420.0,6.0,0.0
12180,71.0,24.0,180.0,7.0,0.0
12181,52.0,12.0,180.0,10.0,0.0
12182,40.0,0.0,180.0,12.0,0.0
12183,52.0,0.0,180.0,1.0,0.0
12184,52.0,204.0,90.0,4.0,0.0
12185,52.0,0.0,180.0,1.0,0.0
12186,88.0,0.0,780.0,0.0,0.0
12187,52.0,36.0,390.0,4.0,0.0
12188,40.0,0.0,180.0,12.0,0.0
12189,71.0,144.0,180.0,7.0,0.0
12190,52.0,12.0,180.0,10.0,0.0
12191,83.0,48.0,330.0,5.0,0.0
12192,40.0,0.0,180.0,11.0,0.0
12193,40.0,0.0,180.0,11.0,0.0
12194,52.0,0.0,180.0,10.0,0.0
12195,40.0,0.0,180.0,12.0,0.0
12196,71.0,36.0,390.0,7.0,0.0
12197,80.0,0.0,390.0,6.0,0.0
12198,76.0,0.0,390.0,6.0,0.0
12199,52.0,204.0,180.0,1.0,0.0
12200,52.0,108.0,180.0,10.0,0.0
12201,40.0,0.0,180.0,12.0,0.0
12202,80.0,84.0,330.0,5.0,0.0
12203,40.0,0.0,180.0,11.0,0.0
12204,52.0,0.0,180.0,1.0,0.0
12205,40.0,0.0,180.0,11.0,0.0
12206,52.0,0.0,180.0,10.0,0.0
12207,40.0,12.0,180.0,12.0,0.0
12208,71.0,228.0,180.0,7.0,0.0
12209,80.0,0.0,180.0,6.0,0.0
12210,52.0,0.0,180.0,1.0,0.0
12211,76.0,0.0,180.0,6.0,0.0
12212,45.0,0.0,180.0,11.0,0.0
12213,78.0,0.0,720.0,5.0,0.0
12214,78.0,120.0,720.0,6.0,0.0
12215,57.0,240.0,180.0,1.0,0.0
12216,57.0,0.0,180.0,10.0,0.0
12217,45.0,0.0,180.0,12.0,0.0
12218,85.0,0.0,720.0,0.0,0.0
12219,73.0,0.0,720.0,7.0,0.0
12220,45.0,240.0,180.0,12.0,0.0
12221,57.0,0.0,180.0,1.0,0.0
12222,45.0,0.0,180.0,11.0,0.0
12223,57.0,0.0,180.0,10.0,0.0
12224,45.0,0.0,180.0,11.0,0.0
12225,57.0,0.0,180.0,10.0,0.0
12226,57.0,60.0,180.0,1.0,0.0
12227,45.0,0.0,180.0,12.0,0.0
12228,81.0,60.0,120.0,5.0,0.0
12229,78.0,0.0,180.0,0.0,0.0
12230,81.0,0.0,15.0,0.0,0.0
12231,57.0,0.0,180.0,10.0,0.0
12232,69.0,24.0,180.0,7.0,0.0
12233,45.0,12.0,180.0,11.0,0.0
12234,57.0,0.0,180.0,1.0,0.0
12235,45.0,0.0,180.0,12.0,0.0
12236,81.0,0.0,120.0,6.0,0.0
12237,85.0,204.0,90.0,5.0,0.0
12238,85.0,0.0,90.0,6.0,0.0
12239,59.0,0.0,180.0,1.0,0.0
12240,80.0,180.0,480.0,0.0,0.0
12241,76.0,0.0,480.0,0.0,0.0
12242,47.0,0.0,180.0,12.0,0.0
12243,68.0,36.0,390.0,2.0,0.0
12244,64.0,0.0,390.0,2.0,0.0
12245,76.0,0.0,480.0,6.0,0.0
12246,76.0,0.0,480.0,5.0,0.0
12247,59.0,0.0,180.0,10.0,0.0
12248,68.0,0.0,480.0,7.0,0.0
12249,47.0,204.0,180.0,11.0,0.0
12250,47.0,0.0,180.0,12.0,0.0
12251,47.0,0.0,180.0,11.0,0.0
12252,59.0,0.0,180.0,1.0,0.0
12253,59.0,60.0,180.0,10.0,0.0
12254,59.0,0.0,180.0,10.0,0.0
12255,75.0,0.0,390.0,0.0,0.0
12256,78.0,0.0,390.0,0.0,0.0
12257,59.0,0.0,180.0,1.0,0.0
12258,75.0,0.0,390.0,5.0,0.0
12259,75.0,36.0,390.0,6.0,0.0
12260,47.0,204.0,180.0,11.0,0.0
12261,47.0,0.0,180.0,12.0,0.0
12262,59.0,0.0,390.0,2.0,0.0
12263,66.0,0.0,390.0,2.0,0.0
12264,66.0,0.0,390.0,7.0,0.0
12265,59.0,0.0,180.0,10.0,0.0
12266,47.0,240.0,180.0,11.0,0.0
12267,47.0,0.0,180.0,12.0,0.0
12268,59.0,0.0,180.0,1.0,0.0
12269,71.0,0.0,1740.0,3.0,0.0
12270,80.0,0.0,780.0,0.0,0.0
12271,52.0,0.0,180.0,10.0,0.0
12272,68.0,0.0,1740.0,3.0,0.0
12273,52.0,0.0,180.0,1.0,0.0
12274,52.0,36.0,390.0,4.0,0.0
12275,92.0,48.0,330.0,5.0,0.0
12276,40.0,12.0,180.0,11.0,0.0
12277,56.0,48.0,1740.0,2.0,0.0
12278,64.0,0.0,1740.0,2.0,0.0
12279,40.0,0.0,180.0,12.0,0.0
12280,64.0,144.0,180.0,7.0,0.0
12281,76.0,0.0,180.0,6.0,0.0
12282,76.0,36.0,390.0,6.0,0.0
12283,52.0,0.0,180.0,1.0,0.0
12284,40.0,0.0,180.0,11.0,0.0
12285,40.0,204.0,180.0,12.0,0.0
12286,71.0,0.0,390.0,7.0,0.0
12287,52.0,0.0,180.0,10.0,0.0
12288,80.0,0.0,390.0,6.0,0.0
12289,40.0,0.0,180.0,12.0,0.0
12290,40.0,0.0,180.0,11.0,0.0
12291,52.0,48.0,300.0,4.0,0.0
12292,52.0,108.0,180.0,1.0,0.0
12293,88.0,84.0,330.0,5.0,0.0
12294,52.0,0.0,180.0,10.0,0.0
12295,76.0,144.0,420.0,6.0,0.0
12296,52.0,0.0,180.0,1.0,0.0
12297,52.0,0.0,180.0,10.0,0.0
12298,40.0,12.0,180.0,12.0,0.0
12299,71.0,24.0,180.0,7.0,0.0
12300,80.0,0.0,420.0,6.0,0.0
12301,40.0,0.0,180.0,11.0,0.0
12302,52.0,204.0,90.0,4.0,0.0
12303,40.0,0.0,180.0,12.0,0.0
12304,83.0,48.0,330.0,5.0,0.0
12305,52.0,36.0,390.0,4.0,0.0
12306,71.0,0.0,180.0,7.0,0.0
12307,88.0,0.0,780.0,0.0,0.0
12308,52.0,0.0,180.0,1.0,0.0
12309,52.0,12.0,180.0,10.0,0.0
12310,40.0,0.0,180.0,11.0,0.0
12311,52.0,0.0,180.0,1.0,0.0
12312,71.0,0.0,390.0,7.0,0.0
12313,40.0,0.0,180.0,11.0,0.0
12314,80.0,0.0,390.0,6.0,0.0
12315,76.0,36.0,390.0,6.0,0.0
12316,52.0,0.0,180.0,10.0,0.0
12317,40.0,204.0,180.0,12.0,0.0
12318,80.0,84.0,330.0,5.0,0.0
12319,40.0,0.0,180.0,12.0,0.0
12320,52.0,0.0,180.0,1.0,0.0
12321,52.0,108.0,180.0,10.0,0.0
12322,40.0,0.0,180.0,11.0,0.0
12323,76.0,0.0,180.0,6.0,0.0
12324,80.0,228.0,180.0,6.0,0.0
12325,52.0,0.0,180.0,1.0,0.0
12326,71.0,0.0,180.0,7.0,0.0
12327,40.0,0.0,180.0,12.0,0.0
12328,40.0,12.0,180.0,11.0,0.0
12329,52.0,0.0,180.0,10.0,0.0
12330,45.0,0.0,180.0,12.0,0.0
12331,57.0,0.0,180.0,10.0,0.0
12332,73.0,0.0,720.0,7.0,0.0
12333,85.0,0.0,720.0,0.0,0.0
12334,78.0,120.0,720.0,6.0,0.0
12335,57.0,0.0,180.0,1.0,0.0
12336,45.0,240.0,180.0,11.0,0.0
12337,81.0,0.0,720.0,0.0,0.0
12338,78.0,0.0,720.0,5.0,0.0
12339,45.0,0.0,180.0,11.0,0.0
12340,45.0,0.0,180.0,12.0,0.0
12341,57.0,240.0,180.0,10.0,0.0
12342,57.0,0.0,180.0,1.0,0.0
12343,45.0,0.0,180.0,11.0,0.0
12344,57.0,0.0,180.0,1.0,0.0
12345,57.0,0.0,180.0,10.0,0.0
12346,45.0,60.0,180.0,12.0,0.0
12347,81.0,60.0,120.0,5.0,0.0
12348,81.0,0.0,120.0,6.0,0.0
12349,45.0,0.0,180.0,11.0,0.0
12350,45.0,0.0,180.0,12.0,0.0
12351,78.0,0.0,180.0,0.0,0.0
12352,57.0,0.0,180.0,10.0,0.0
12353,69.0,24.0,180.0,7.0,0.0
12354,81.0,0.0,180.0,0.0,0.0
12355,57.0,12.0,180.0,1.0,0.0
12356,85.0,204.0,90.0,6.0,0.0
12357,85.0,0.0,90.0,5.0,0.0
12358,68.0,36.0,390.0,2.0,0.0
12359,59.0,0.0,180.0,1.0,0.0
12360,64.0,0.0,390.0,2.0,0.0
12361,68.0,0.0,480.0,7.0,0.0
12362,47.0,0.0,180.0,11.0,0.0
12363,80.0,0.0,480.0,0.0,0.0
12364,76.0,180.0,480.0,0.0,0.0
12365,47.0,0.0,180.0,12.0,0.0
12366,76.0,0.0,480.0,5.0,0.0
12367,76.0,0.0,480.0,6.0,0.0
12368,59.0,204.0,180.0,10.0,0.0
12369,47.0,0.0,180.0,12.0,0.0
12370,59.0,0.0,180.0,1.0,0.0
12371,47.0,0.0,180.0,11.0,0.0
12372,59.0,60.0,180.0,10.0,0.0
12373,47.0,0.0,180.0,11.0,0.0
12374,47.0,204.0,180.0,12.0,0.0
12375,59.0,0.0,180.0,1.0,0.0
12376,78.0,0.0,390.0,0.0,0.0
12377,66.0,36.0,390.0,7.0,0.0
12378,59.0,0.0,180.0,10.0,0.0
12379,75.0,0.0,390.0,0.0,0.0
12380,59.0,0.0,390.0,2.0,0.0
12381,75.0,0.0,390.0,6.0,0.0
12382,75.0,0.0,390.0,5.0,0.0
12383,66.0,0.0,390.0,2.0,0.0
12384,59.0,0.0,180.0,10.0,0.0
12385,47.0,0.0,180.0,12.0,0.0
12386,59.0,0.0,180.0,1.0,0.0
12387,47.0,372.0,180.0,11.0,0.0
12388,52.0,0.0,300.0,1.0,0.0
12389,56.0,0.0,300.0,2.0,0.0
12390,76.0,48.0,330.0,6.0,0.0
12391,64.0,0.0,300.0,2.0,0.0
12392,76.0,0.0,300.0,3.0,0.0
12393,40.0,0.0,330.0,11.0,0.0
12394,76.0,0.0,330.0,5.0,0.0
12395,76.0,24.0,300.0,0.0,0.0
12396,64.0,0.0,330.0,7.0,0.0
12397,52.0,216.0,390.0,4.0,0.0
12398,40.0,0.0,330.0,12.0,0.0
12399,52.0,0.0,330.0,10.0,0.0
12400,68.0,0.0,300.0,3.0,0.0
12401,76.0,0.0,120.0,6.0,0.0
12402,76.0,6.0,240.0,0.0,0.0
12403,52.0,0.0,240.0,2.0,0.0
12404,64.0,0.0,240.0,2.0,0.0
12405,76.0,114.0,120.0,5.0,0.0
12406,71.0,0.0,120.0,6.0,0.0
12407,71.0,120.0,120.0,5.0,0.0
12408,68.0,0.0,120.0,6.0,0.0
12409,68.0,78.0,120.0,5.0,0.0
12410,52.0,0.0,90.0,2.0,0.0
12411,64.0,342.0,90.0,6.0,0.0
12412,64.0,0.0,90.0,5.0,0.0
12413,64.0,12.0,90.0,2.0,0.0
12414,76.0,0.0,90.0,0.0,0.0
12415,71.0,48.0,300.0,0.0,0.0
12416,59.0,432.0,360.0,5.0,0.0
12417,59.0,0.0,360.0,6.0,0.0
12418,59.0,0.0,300.0,2.0,0.0
12419,47.0,0.0,300.0,2.0,0.0
12420,78.0,0.0,300.0,0.0,0.0
12421,87.0,0.0,330.0,5.0,0.0
12422,47.0,0.0,330.0,12.0,0.0
12423,71.0,0.0,330.0,5.0,0.0
12424,47.0,408.0,390.0,4.0,0.0
12425,87.0,0.0,300.0,0.0,0.0
12426,71.0,0.0,300.0,3.0,0.0
12427,59.0,0.0,330.0,10.0,0.0
12428,66.0,48.0,330.0,6.0,0.0
12429,75.0,0.0,330.0,6.0,0.0
12430,78.0,0.0,300.0,3.0,0.0
12431,78.0,0.0,330.0,5.0,0.0
12432,59.0,0.0,300.0,1.0,0.0
12433,71.0,0.0,330.0,7.0,0.0
12434,47.0,0.0,330.0,11.0,0.0
12435,59.0,24.0,300.0,2.0,0.0
12436,83.0,0.0,330.0,6.0,0.0
12437,66.0,0.0,300.0,2.0,0.0
12438,88.0,24.0,330.0,5.0,0.0
12439,80.0,0.0,330.0,5.0,0.0
12440,76.0,0.0,330.0,7.0,0.0
12441,71.0,0.0,330.0,5.0,0.0
12442,52.0,216.0,390.0,4.0,0.0
12443,52.0,0.0,330.0,11.0,0.0
12444,80.0,0.0,300.0,3.0,0.0
12445,68.0,0.0,300.0,2.0,0.0
12446,64.0,24.0,300.0,1.0,0.0
12447,52.0,0.0,330.0,12.0,0.0
12448,64.0,0.0,300.0,2.0,0.0
12449,80.0,0.0,330.0,6.0,0.0
12450,76.0,0.0,330.0,6.0,0.0
12451,64.0,0.0,330.0,10.0,0.0
12452,80.0,0.0,300.0,0.0,0.0
12453,88.0,24.0,360.0,0.0,0.0
12454,76.0,0.0,300.0,3.0,0.0
12455,76.0,0.0,240.0,0.0,0.0
12456,76.0,114.0,120.0,6.0,0.0
12457,76.0,0.0,120.0,5.0,0.0
12458,64.0,0.0,240.0,2.0,0.0
12459,52.0,6.0,240.0,2.0,0.0
12460,71.0,120.0,120.0,5.0,0.0
12461,71.0,0.0,120.0,6.0,0.0
12462,68.0,78.0,120.0,6.0,0.0
12463,68.0,0.0,120.0,5.0,0.0
12464,64.0,0.0,90.0,5.0,0.0
12465,76.0,0.0,90.0,0.0,0.0
12466,52.0,0.0,90.0,2.0,0.0
12467,64.0,12.0,90.0,2.0,0.0
12468,64.0,342.0,90.0,6.0,0.0
12469,59.0,0.0,360.0,5.0,0.0
12470,59.0,0.0,300.0,2.0,0.0
12471,47.0,0.0,300.0,2.0,0.0
12472,59.0,432.0,360.0,6.0,0.0
12473,71.0,48.0,300.0,0.0,0.0
12474,78.0,0.0,300.0,3.0,0.0
12475,59.0,0.0,300.0,2.0,0.0
12476,66.0,0.0,300.0,2.0,0.0
12477,47.0,0.0,330.0,12.0,0.0
12478,83.0,0.0,330.0,6.0,0.0
12479,71.0,0.0,300.0,3.0,0.0
12480,59.0,48.0,330.0,10.0,0.0
12481,59.0,24.0,300.0,1.0,0.0
12482,87.0,0.0,330.0,5.0,0.0
12483,78.0,0.0,330.0,5.0,0.0
12484,71.0,0.0,330.0,5.0,0.0
12485,47.0,0.0,330.0,11.0,0.0
12486,75.0,0.0,330.0,6.0,0.0
12487,66.0,0.0,330.0,6.0,0.0
12488,87.0,0.0,300.0,0.0,0.0
12489,47.0,408.0,390.0,4.0,0.0
12490,71.0,0.0,330.0,7.0,0.0
12491,52.0,0.0,330.0,12.0,0.0
12492,88.0,0.0,360.0,0.0,0.0
12493,52.0,354.0,360.0,4.0,0.0
12494,68.0,0.0,300.0,3.0,0.0
12495,88.0,0.0,330.0,5.0,0.0
12496,56.0,0.0,300.0,2.0,0.0
12497,80.0,0.0,300.0,0.0,0.0
12498,64.0,0.0,300.0,2.0,0.0
12499,71.0,0.0,330.0,5.0,0.0
12500,76.0,24.0,330.0,7.0,0.0
12501,76.0,0.0,330.0,6.0,0.0
12502,76.0,24.0,300.0,3.0,0.0
12503,52.0,0.0,330.0,11.0,0.0
12504,80.0,0.0,330.0,6.0,0.0
12505,64.0,0.0,300.0,1.0,0.0
12506,64.0,0.0,330.0,10.0,0.0
12507,80.0,0.0,330.0,5.0,0.0
12508,64.0,0.0,240.0,6.0,0.0
12509,52.0,150.0,300.0,4.0,0.0
12510,76.0,54.0,240.0,0.0,0.0
12511,64.0,0.0,240.0,7.0,0.0
12512,40.0,0.0,240.0,12.0,0.0
12513,52.0,0.0,240.0,1.0,0.0
12514,64.0,0.0,240.0,3.0,0.0
12515,64.0,0.0,240.0,5.0,0.0
12516,64.0,0.0,240.0,2.0,0.0
12517,52.0,0.0,240.0,10.0,0.0
12518,76.0,0.0,240.0,3.0,0.0
12519,52.0,0.0,240.0,2.0,0.0
12520,40.0,0.0,240.0,11.0,0.0
12521,52.0,18.0,90.0,10.0,0.0
12522,76.0,0.0,90.0,0.0,0.0
12523,52.0,0.0,90.0,1.0,0.0
12524,64.0,0.0,90.0,6.0,0.0
12525,64.0,0.0,90.0,3.0,0.0
12526,64.0,0.0,90.0,2.0,0.0
12527,64.0,0.0,90.0,7.0,0.0
12528,52.0,408.0,90.0,4.0,0.0
12529,40.0,0.0,90.0,12.0,0.0
12530,76.0,0.0,90.0,3.0,0.0
12531,64.0,0.0,90.0,5.0,0.0
12532,52.0,0.0,90.0,2.0,0.0
12533,40.0,0.0,90.0,11.0,0.0
12534,76.0,3264.0,390.0,0.0,0.0
12535,40.0,0.0,390.0,12.0,0.0
12536,40.0,0.0,390.0,11.0,0.0
12537,64.0,0.0,390.0,7.0,0.0
12538,64.0,0.0,390.0,6.0,0.0
12539,52.0,0.0,390.0,1.0,0.0
12540,76.0,0.0,390.0,3.0,0.0
12541,64.0,0.0,390.0,3.0,0.0
12542,52.0,0.0,390.0,2.0,0.0
12543,52.0,0.0,390.0,4.0,0.0
12544,64.0,0.0,390.0,5.0,0.0
12545,52.0,0.0,390.0,10.0,0.0
12546,64.0,0.0,390.0,2.0,0.0
12547,23.0,0.0,780.0,11.0,0.0
