,note,step,duration,channel,velocity
0,44.0,160.0,150.0,1.0,0.0
1,68.0,0.0,150.0,0.0,0.0
2,39.0,0.0,30.0,1.0,0.0
3,63.0,224.0,30.0,0.0,0.0
4,68.0,160.0,150.0,0.0,0.0
5,44.0,0.0,150.0,1.0,0.0
6,63.0,96.0,30.0,0.0,0.0
7,39.0,0.0,30.0,1.0,0.0
8,44.0,96.0,30.0,1.0,0.0
9,68.0,0.0,30.0,0.0,0.0
10,48.0,96.0,30.0,1.0,0.0
11,72.0,0.0,30.0,0.0,0.0
12,51.0,96.0,30.0,1.0,0.0
13,75.0,0.0,30.0,0.0,0.0
14,72.0,224.0,30.0,0.0,0.0
15,48.0,0.0,30.0,1.0,0.0
16,44.0,272.0,150.0,1.0,0.0
17,68.0,0.0,150.0,0.0,0.0
18,63.0,0.0,60.0,0.0,0.0
19,72.0,528.0,60.0,0.0,0.0
20,73.0,160.0,390.0,0.0,0.0
21,65.0,0.0,390.0,0.0,0.0
22,63.0,128.0,150.0,0.0,0.0
23,72.0,0.0,150.0,0.0,0.0
24,51.0,30.0,150.0,1.0,0.0
25,63.0,0.0,90.0,0.0,0.0
26,72.0,64.0,90.0,0.0,0.0
27,70.0,98.0,90.0,0.0,0.0
28,61.0,0.0,90.0,0.0,0.0
29,51.0,30.0,150.0,1.0,0.0
30,70.0,64.0,90.0,0.0,0.0
31,61.0,0.0,150.0,0.0,0.0
32,67.0,34.0,90.0,0.0,0.0
33,56.0,128.0,30.0,1.0,0.0
34,68.0,0.0,150.0,0.0,0.0
35,60.0,32.0,150.0,0.0,0.0
36,44.0,96.0,90.0,1.0,0.0
37,48.0,94.0,90.0,1.0,0.0
38,51.0,50.0,90.0,1.0,0.0
39,72.0,0.0,60.0,0.0,0.0
40,75.0,112.0,60.0,0.0,0.0
41,56.0,416.0,150.0,1.0,0.0
42,77.0,160.0,390.0,0.0,0.0
43,73.0,0.0,390.0,0.0,0.0
44,75.0,128.0,150.0,0.0,0.0
45,72.0,0.0,150.0,0.0,0.0
46,72.0,0.0,90.0,0.0,0.0
47,75.0,64.0,90.0,0.0,0.0
48,51.0,30.0,150.0,1.0,0.0
49,70.0,98.0,90.0,0.0,0.0
50,73.0,0.0,90.0,0.0,0.0
51,73.0,0.0,90.0,0.0,0.0
52,51.0,30.0,150.0,1.0,0.0
53,67.0,0.0,90.0,0.0,0.0
54,70.0,64.0,15.0,0.0,0.0
55,68.0,0.0,150.0,0.0,0.0
56,72.0,32.0,150.0,0.0,0.0
57,56.0,128.0,30.0,1.0,0.0
58,44.0,96.0,90.0,1.0,0.0
59,48.0,94.0,90.0,1.0,0.0
60,51.0,34.0,90.0,1.0,0.0
61,80.0,94.0,90.0,0.0,0.0
62,68.0,46.0,720.0,0.0,0.0
63,56.0,64.0,30.0,1.0,0.0
64,75.0,2.0,90.0,0.0,0.0
65,48.0,32.0,90.0,1.0,0.0
66,60.0,34.0,90.0,1.0,0.0
67,75.0,62.0,30.0,0.0,0.0
68,75.0,96.0,30.0,0.0,0.0
69,60.0,0.0,30.0,1.0,0.0
70,60.0,96.0,30.0,1.0,0.0
71,75.0,32.0,300.0,0.0,0.0
72,60.0,96.0,30.0,1.0,0.0
73,60.0,64.0,30.0,1.0,0.0
74,60.0,16.0,30.0,1.0,0.0
75,76.0,98.0,90.0,0.0,0.0
76,68.0,80.0,330.0,0.0,0.0
77,77.0,94.0,90.0,0.0,0.0
78,70.0,2.0,90.0,0.0,0.0
79,49.0,32.0,90.0,1.0,0.0
80,70.0,62.0,30.0,0.0,0.0
81,61.0,34.0,90.0,1.0,0.0
82,61.0,0.0,30.0,1.0,0.0
83,70.0,16.0,30.0,0.0,0.0
84,61.0,96.0,30.0,1.0,0.0
85,70.0,0.0,330.0,0.0,0.0
86,67.0,80.0,330.0,0.0,0.0
87,61.0,96.0,30.0,1.0,0.0
88,61.0,96.0,30.0,1.0,0.0
89,61.0,16.0,30.0,1.0,0.0
90,60.0,112.0,30.0,1.0,0.0
91,68.0,0.0,150.0,0.0,0.0
92,75.0,46.0,150.0,0.0,0.0
93,77.0,34.0,60.0,0.0,0.0
94,70.0,0.0,150.0,0.0,0.0
95,73.0,46.0,150.0,0.0,0.0
96,61.0,112.0,30.0,1.0,0.0
97,75.0,34.0,60.0,0.0,0.0
98,68.0,46.0,150.0,0.0,0.0
99,63.0,112.0,30.0,1.0,0.0
100,72.0,0.0,150.0,0.0,0.0
101,73.0,34.0,60.0,0.0,0.0
102,51.0,112.0,30.0,1.0,0.0
103,67.0,46.0,150.0,0.0,0.0
104,70.0,0.0,150.0,0.0,0.0
105,72.0,162.0,60.0,0.0,0.0
106,68.0,64.0,150.0,0.0,0.0
107,56.0,0.0,150.0,1.0,0.0
108,60.0,96.0,30.0,1.0,0.0
109,56.0,224.0,30.0,1.0,0.0
110,53.0,64.0,150.0,1.0,0.0
111,72.0,0.0,150.0,0.0,0.0
112,68.0,192.0,150.0,0.0,0.0
113,56.0,96.0,30.0,1.0,0.0
114,53.0,32.0,30.0,1.0,0.0
115,68.0,16.0,540.0,0.0,0.0
116,49.0,32.0,150.0,1.0,0.0
117,70.0,32.0,180.0,0.0,0.0
118,70.0,144.0,180.0,0.0,0.0
119,53.0,96.0,30.0,1.0,0.0
120,49.0,64.0,30.0,1.0,0.0
121,51.0,32.0,150.0,1.0,0.0
122,72.0,32.0,180.0,0.0,0.0
123,55.0,96.0,30.0,1.0,0.0
124,73.0,192.0,150.0,0.0,0.0
125,70.0,0.0,150.0,0.0,0.0
126,51.0,32.0,30.0,1.0,0.0
127,73.0,0.0,180.0,0.0,0.0
128,56.0,32.0,150.0,1.0,0.0
129,70.0,32.0,180.0,0.0,0.0
130,68.0,0.0,150.0,0.0,0.0
131,72.0,192.0,150.0,0.0,0.0
132,60.0,96.0,30.0,1.0,0.0
133,56.0,32.0,30.0,1.0,0.0
134,53.0,64.0,150.0,1.0,0.0
135,56.0,16.0,30.0,1.0,0.0
136,72.0,80.0,60.0,0.0,0.0
137,80.0,0.0,60.0,0.0,0.0
138,53.0,224.0,30.0,1.0,0.0
139,70.0,0.0,180.0,0.0,0.0
140,77.0,32.0,180.0,0.0,0.0
141,49.0,32.0,150.0,1.0,0.0
142,53.0,96.0,30.0,1.0,0.0
143,68.0,0.0,180.0,0.0,0.0
144,73.0,160.0,180.0,0.0,0.0
145,49.0,64.0,30.0,1.0,0.0
146,67.0,32.0,180.0,0.0,0.0
147,51.0,32.0,150.0,1.0,0.0
148,70.0,0.0,15.0,0.0,0.0
149,55.0,96.0,30.0,1.0,0.0
150,75.0,0.0,150.0,0.0,0.0
151,51.0,32.0,30.0,1.0,0.0
152,56.0,128.0,150.0,1.0,0.0
153,68.0,0.0,150.0,0.0,0.0
154,72.0,94.0,90.0,0.0,0.0
155,68.0,162.0,90.0,0.0,0.0
156,49.0,128.0,150.0,1.0,0.0
157,65.0,0.0,150.0,0.0,0.0
158,68.0,0.0,90.0,0.0,0.0
159,53.0,94.0,90.0,1.0,0.0
160,65.0,0.0,90.0,0.0,0.0
161,49.0,162.0,90.0,1.0,0.0
162,70.0,0.0,150.0,0.0,0.0
163,46.0,128.0,150.0,1.0,0.0
164,73.0,94.0,90.0,0.0,0.0
165,70.0,162.0,90.0,0.0,0.0
166,51.0,0.0,150.0,1.0,0.0
167,67.0,128.0,150.0,0.0,0.0
168,55.0,94.0,90.0,1.0,0.0
169,70.0,0.0,90.0,0.0,0.0
170,67.0,162.0,90.0,0.0,0.0
171,51.0,0.0,90.0,1.0,0.0
172,72.0,128.0,150.0,0.0,0.0
173,48.0,0.0,150.0,1.0,0.0
174,75.0,94.0,90.0,0.0,0.0
175,72.0,162.0,90.0,0.0,0.0
176,68.0,128.0,150.0,0.0,0.0
177,53.0,0.0,150.0,1.0,0.0
178,72.0,0.0,90.0,0.0,0.0
179,56.0,94.0,90.0,1.0,0.0
180,68.0,0.0,90.0,0.0,0.0
181,53.0,162.0,90.0,1.0,0.0
182,73.0,128.0,150.0,0.0,0.0
183,49.0,0.0,150.0,1.0,0.0
184,77.0,94.0,90.0,0.0,0.0
185,73.0,162.0,90.0,0.0,0.0
186,46.0,0.0,150.0,1.0,0.0
187,70.0,128.0,150.0,0.0,0.0
188,73.0,94.0,90.0,0.0,0.0
189,49.0,0.0,90.0,1.0,0.0
190,70.0,98.0,90.0,0.0,0.0
191,46.0,0.0,90.0,1.0,0.0
192,43.0,0.0,90.0,1.0,0.0
193,67.0,96.0,90.0,0.0,0.0
194,39.0,0.0,90.0,1.0,0.0
195,63.0,96.0,90.0,0.0,0.0
196,41.0,94.0,90.0,1.0,0.0
197,65.0,0.0,90.0,0.0,0.0
198,43.0,0.0,90.0,1.0,0.0
199,67.0,98.0,90.0,0.0,0.0
200,44.0,0.0,90.0,1.0,0.0
201,68.0,96.0,90.0,0.0,0.0
202,43.0,0.0,90.0,1.0,0.0
203,67.0,96.0,90.0,0.0,0.0
204,68.0,0.0,90.0,0.0,0.0
205,44.0,94.0,90.0,1.0,0.0
206,46.0,98.0,90.0,1.0,0.0
207,70.0,0.0,90.0,0.0,0.0
208,72.0,64.0,90.0,0.0,0.0
209,48.0,32.0,150.0,1.0,0.0
210,70.0,96.0,90.0,0.0,0.0
211,44.0,0.0,90.0,1.0,0.0
212,68.0,94.0,90.0,0.0,0.0
213,46.0,96.0,90.0,1.0,0.0
214,70.0,2.0,90.0,0.0,0.0
215,72.0,96.0,90.0,0.0,0.0
216,48.0,0.0,90.0,1.0,0.0
217,70.0,96.0,90.0,0.0,0.0
218,46.0,0.0,90.0,1.0,0.0
219,48.0,0.0,90.0,1.0,0.0
220,72.0,94.0,90.0,0.0,0.0
221,50.0,96.0,90.0,1.0,0.0
222,74.0,0.0,90.0,0.0,0.0
223,75.0,0.0,90.0,0.0,0.0
224,51.0,130.0,90.0,1.0,0.0
225,39.0,96.0,30.0,1.0,0.0
226,79.0,32.0,180.0,0.0,0.0
227,73.0,0.0,180.0,0.0,0.0
228,51.0,64.0,30.0,1.0,0.0
229,72.0,34.0,90.0,0.0,0.0
230,80.0,0.0,90.0,0.0,0.0
231,39.0,62.0,30.0,1.0,0.0
232,51.0,96.0,30.0,1.0,0.0
233,39.0,62.0,30.0,1.0,0.0
234,72.0,0.0,90.0,0.0,0.0
235,68.0,34.0,90.0,0.0,0.0
236,51.0,96.0,30.0,1.0,0.0
237,39.0,62.0,30.0,1.0,0.0
238,70.0,34.0,90.0,0.0,0.0
239,67.0,0.0,90.0,0.0,0.0
240,51.0,96.0,30.0,1.0,0.0
241,73.0,0.0,180.0,0.0,0.0
242,39.0,96.0,30.0,1.0,0.0
243,79.0,32.0,180.0,0.0,0.0
244,51.0,64.0,30.0,1.0,0.0
245,72.0,0.0,90.0,0.0,0.0
246,80.0,34.0,90.0,0.0,0.0
247,39.0,62.0,30.0,1.0,0.0
248,51.0,96.0,30.0,1.0,0.0
249,72.0,34.0,90.0,0.0,0.0
250,39.0,62.0,30.0,1.0,0.0
251,68.0,0.0,90.0,0.0,0.0
252,51.0,112.0,30.0,1.0,0.0
253,70.0,0.0,150.0,0.0,0.0
254,67.0,80.0,150.0,0.0,0.0
255,39.0,112.0,60.0,1.0,0.0
256,51.0,0.0,60.0,1.0,0.0
257,67.0,0.0,60.0,0.0,0.0
258,75.0,192.0,60.0,0.0,0.0
259,39.0,720.0,60.0,1.0,0.0
260,67.0,0.0,60.0,0.0,0.0
261,75.0,0.0,60.0,0.0,0.0
262,70.0,336.0,390.0,0.0,0.0
263,75.0,48.0,330.0,0.0,0.0
264,69.0,0.0,330.0,0.0,0.0
265,60.0,94.0,390.0,1.0,0.0
266,58.0,2.0,90.0,1.0,0.0
267,70.0,0.0,90.0,0.0,0.0
268,74.0,96.0,90.0,0.0,0.0
269,77.0,32.0,90.0,0.0,0.0
270,53.0,64.0,30.0,1.0,0.0
271,75.0,94.0,90.0,0.0,0.0
272,72.0,34.0,90.0,0.0,0.0
273,70.0,64.0,150.0,0.0,0.0
274,50.0,128.0,30.0,1.0,0.0
275,46.0,544.0,30.0,1.0,0.0
276,70.0,336.0,390.0,0.0,0.0
277,80.0,48.0,330.0,0.0,0.0
278,62.0,94.0,390.0,1.0,0.0
279,63.0,2.0,90.0,1.0,0.0
280,70.0,0.0,90.0,0.0,0.0
281,79.0,96.0,90.0,0.0,0.0
282,82.0,32.0,90.0,0.0,0.0
283,74.0,94.0,90.0,0.0,0.0
284,80.0,0.0,90.0,0.0,0.0
285,58.0,64.0,30.0,1.0,0.0
286,77.0,34.0,90.0,0.0,0.0
287,75.0,64.0,150.0,0.0,0.0
288,55.0,128.0,30.0,1.0,0.0
289,51.0,256.0,30.0,1.0,0.0
290,72.0,96.0,90.0,0.0,0.0
291,74.0,96.0,90.0,0.0,0.0
292,75.0,94.0,90.0,0.0,0.0
293,76.0,98.0,90.0,0.0,0.0
294,77.0,96.0,90.0,0.0,0.0
295,56.0,96.0,780.0,1.0,0.0
296,60.0,96.0,390.0,1.0,0.0
297,79.0,96.0,90.0,0.0,0.0
298,80.0,94.0,90.0,0.0,0.0
299,77.0,2.0,90.0,0.0,0.0
300,58.0,0.0,720.0,1.0,0.0
301,75.0,96.0,90.0,0.0,0.0
302,74.0,96.0,90.0,0.0,0.0
303,72.0,94.0,90.0,0.0,0.0
304,74.0,2.0,90.0,0.0,0.0
305,55.0,46.0,330.0,1.0,0.0
306,75.0,96.0,90.0,0.0,0.0
307,79.0,96.0,90.0,0.0,0.0
308,75.0,48.0,90.0,0.0,0.0
309,70.0,50.0,90.0,0.0,0.0
310,56.0,48.0,60.0,1.0,0.0
311,72.0,96.0,90.0,0.0,0.0
312,74.0,48.0,90.0,0.0,0.0
313,44.0,48.0,60.0,1.0,0.0
314,75.0,94.0,90.0,0.0,0.0
315,76.0,98.0,90.0,0.0,0.0
316,56.0,96.0,780.0,1.0,0.0
317,60.0,96.0,390.0,1.0,0.0
318,77.0,96.0,90.0,0.0,0.0
319,79.0,96.0,90.0,0.0,0.0
320,80.0,94.0,90.0,0.0,0.0
321,77.0,2.0,90.0,0.0,0.0
322,58.0,0.0,720.0,1.0,0.0
323,75.0,96.0,90.0,0.0,0.0
324,74.0,96.0,90.0,0.0,0.0
325,72.0,94.0,90.0,0.0,0.0
326,74.0,2.0,90.0,0.0,0.0
327,75.0,96.0,90.0,0.0,0.0
328,55.0,46.0,330.0,1.0,0.0
329,82.0,96.0,90.0,0.0,0.0
330,80.0,48.0,90.0,0.0,0.0
331,79.0,50.0,90.0,0.0,0.0
332,56.0,48.0,60.0,1.0,0.0
333,72.0,32.0,270.0,0.0,0.0
334,79.0,96.0,90.0,0.0,0.0
335,77.0,48.0,90.0,0.0,0.0
336,80.0,94.0,90.0,0.0,0.0
337,44.0,16.0,60.0,1.0,0.0
338,77.0,50.0,90.0,0.0,0.0
339,68.0,0.0,90.0,0.0,0.0
340,68.0,0.0,90.0,0.0,0.0
341,46.0,48.0,60.0,1.0,0.0
342,77.0,94.0,90.0,0.0,0.0
343,75.0,50.0,90.0,0.0,0.0
344,67.0,0.0,90.0,0.0,0.0
345,67.0,94.0,90.0,0.0,0.0
346,75.0,0.0,90.0,0.0,0.0
347,34.0,48.0,60.0,1.0,0.0
348,74.0,0.0,90.0,0.0,0.0
349,65.0,162.0,90.0,0.0,0.0
350,39.0,0.0,150.0,1.0,0.0
351,67.0,160.0,150.0,0.0,0.0
352,75.0,0.0,150.0,0.0,0.0
353,70.0,96.0,30.0,0.0,0.0
354,79.0,0.0,30.0,0.0,0.0
355,51.0,0.0,30.0,1.0,0.0
356,79.0,0.0,30.0,0.0,0.0
357,70.0,0.0,30.0,0.0,0.0
358,51.0,96.0,30.0,1.0,0.0
359,79.0,0.0,30.0,0.0,0.0
360,70.0,0.0,30.0,0.0,0.0
361,51.0,96.0,30.0,1.0,0.0
362,51.0,0.0,30.0,1.0,0.0
363,79.0,0.0,30.0,0.0,0.0
364,70.0,96.0,30.0,0.0,0.0
365,79.0,160.0,30.0,0.0,0.0
366,70.0,0.0,30.0,0.0,0.0
367,51.0,0.0,30.0,1.0,0.0
368,82.0,64.0,90.0,0.0,0.0
369,50.0,32.0,150.0,1.0,0.0
370,70.0,0.0,90.0,0.0,0.0
371,81.0,94.0,90.0,0.0,0.0
372,80.0,34.0,90.0,0.0,0.0
373,77.0,96.0,30.0,0.0,0.0
374,68.0,0.0,30.0,0.0,0.0
375,46.0,96.0,30.0,1.0,0.0
376,74.0,0.0,30.0,0.0,0.0
377,68.0,0.0,30.0,0.0,0.0
378,46.0,96.0,30.0,1.0,0.0
379,74.0,0.0,30.0,0.0,0.0
380,68.0,96.0,30.0,0.0,0.0
381,46.0,0.0,30.0,1.0,0.0
382,74.0,0.0,30.0,0.0,0.0
383,68.0,160.0,30.0,0.0,0.0
384,74.0,0.0,30.0,0.0,0.0
385,46.0,0.0,30.0,1.0,0.0
386,74.0,64.0,90.0,0.0,0.0
387,39.0,0.0,150.0,1.0,0.0
388,67.0,32.0,150.0,0.0,0.0
389,75.0,94.0,90.0,0.0,0.0
390,70.0,34.0,90.0,0.0,0.0
391,51.0,0.0,30.0,1.0,0.0
392,70.0,96.0,30.0,0.0,0.0
393,79.0,0.0,30.0,0.0,0.0
394,79.0,0.0,30.0,0.0,0.0
395,70.0,96.0,30.0,0.0,0.0
396,51.0,0.0,30.0,1.0,0.0
397,51.0,96.0,30.0,1.0,0.0
398,79.0,0.0,30.0,0.0,0.0
399,70.0,0.0,30.0,0.0,0.0
400,79.0,0.0,30.0,0.0,0.0
401,70.0,0.0,30.0,0.0,0.0
402,51.0,96.0,30.0,1.0,0.0
403,79.0,0.0,30.0,0.0,0.0
404,70.0,0.0,30.0,0.0,0.0
405,51.0,160.0,30.0,1.0,0.0
406,50.0,32.0,150.0,1.0,0.0
407,70.0,0.0,90.0,0.0,0.0
408,82.0,64.0,90.0,0.0,0.0
409,81.0,94.0,90.0,0.0,0.0
410,80.0,34.0,90.0,0.0,0.0
411,77.0,96.0,30.0,0.0,0.0
412,46.0,96.0,30.0,1.0,0.0
413,68.0,0.0,30.0,0.0,0.0
414,74.0,0.0,30.0,0.0,0.0
415,68.0,0.0,30.0,0.0,0.0
416,74.0,0.0,30.0,0.0,0.0
417,46.0,96.0,30.0,1.0,0.0
418,46.0,96.0,30.0,1.0,0.0
419,74.0,0.0,30.0,0.0,0.0
420,68.0,0.0,30.0,0.0,0.0
421,46.0,96.0,30.0,1.0,0.0
422,68.0,0.0,30.0,0.0,0.0
423,74.0,0.0,30.0,0.0,0.0
424,51.0,64.0,30.0,1.0,0.0
425,67.0,0.0,90.0,0.0,0.0
426,75.0,96.0,90.0,0.0,0.0
427,79.0,32.0,90.0,0.0,0.0
428,46.0,64.0,30.0,1.0,0.0
429,68.0,94.0,90.0,0.0,0.0
430,77.0,0.0,90.0,0.0,0.0
431,74.0,34.0,90.0,0.0,0.0
432,67.0,0.0,90.0,0.0,0.0
433,51.0,64.0,30.0,1.0,0.0
434,75.0,96.0,90.0,0.0,0.0
435,79.0,32.0,90.0,0.0,0.0
436,68.0,0.0,90.0,0.0,0.0
437,77.0,94.0,90.0,0.0,0.0
438,46.0,64.0,30.0,1.0,0.0
439,74.0,34.0,90.0,0.0,0.0
440,67.0,0.0,30.0,0.0,0.0
441,75.0,0.0,30.0,0.0,0.0
442,39.0,192.0,30.0,1.0,0.0
443,51.0,0.0,30.0,1.0,0.0
444,70.0,192.0,30.0,0.0,0.0
445,79.0,0.0,30.0,0.0,0.0
446,67.0,0.0,30.0,0.0,0.0
447,75.0,512.0,30.0,0.0,0.0
448,39.0,0.0,30.0,1.0,0.0
449,68.0,0.0,150.0,0.0,0.0
450,44.0,160.0,150.0,1.0,0.0
451,63.0,224.0,30.0,0.0,0.0
452,39.0,0.0,30.0,1.0,0.0
453,44.0,160.0,150.0,1.0,0.0
454,68.0,0.0,150.0,0.0,0.0
455,39.0,0.0,30.0,1.0,0.0
456,63.0,96.0,30.0,0.0,0.0
457,44.0,96.0,30.0,1.0,0.0
458,68.0,0.0,30.0,0.0,0.0
459,48.0,0.0,30.0,1.0,0.0
460,72.0,96.0,30.0,0.0,0.0
461,75.0,0.0,30.0,0.0,0.0
462,51.0,96.0,30.0,1.0,0.0
463,72.0,224.0,30.0,0.0,0.0
464,48.0,0.0,30.0,1.0,0.0
465,68.0,272.0,150.0,0.0,0.0
466,44.0,0.0,150.0,1.0,0.0
467,63.0,0.0,60.0,0.0,0.0
468,72.0,528.0,60.0,0.0,0.0
469,65.0,0.0,390.0,0.0,0.0
470,73.0,160.0,390.0,0.0,0.0
471,63.0,0.0,150.0,0.0,0.0
472,72.0,128.0,150.0,0.0,0.0
473,72.0,64.0,90.0,0.0,0.0
474,63.0,0.0,90.0,0.0,0.0
475,51.0,30.0,150.0,1.0,0.0
476,70.0,98.0,90.0,0.0,0.0
477,61.0,0.0,90.0,0.0,0.0
478,61.0,0.0,150.0,0.0,0.0
479,70.0,64.0,90.0,0.0,0.0
480,51.0,30.0,150.0,1.0,0.0
481,67.0,34.0,90.0,0.0,0.0
482,60.0,32.0,150.0,0.0,0.0
483,68.0,0.0,150.0,0.0,0.0
484,56.0,128.0,30.0,1.0,0.0
485,44.0,96.0,90.0,1.0,0.0
486,48.0,94.0,90.0,1.0,0.0
487,51.0,50.0,90.0,1.0,0.0
488,56.0,416.0,150.0,1.0,0.0
489,75.0,0.0,60.0,0.0,0.0
490,72.0,112.0,60.0,0.0,0.0
491,73.0,0.0,390.0,0.0,0.0
492,77.0,160.0,390.0,0.0,0.0
493,72.0,0.0,150.0,0.0,0.0
494,75.0,128.0,150.0,0.0,0.0
495,51.0,30.0,150.0,1.0,0.0
496,72.0,0.0,90.0,0.0,0.0
497,75.0,64.0,90.0,0.0,0.0
498,73.0,98.0,90.0,0.0,0.0
499,70.0,0.0,90.0,0.0,0.0
500,70.0,0.0,90.0,0.0,0.0
501,73.0,64.0,90.0,0.0,0.0
502,51.0,30.0,150.0,1.0,0.0
503,67.0,0.0,90.0,0.0,0.0
504,70.0,34.0,90.0,0.0,0.0
505,68.0,0.0,150.0,0.0,0.0
506,72.0,32.0,150.0,0.0,0.0
507,56.0,128.0,30.0,1.0,0.0
508,44.0,96.0,90.0,1.0,0.0
509,48.0,94.0,90.0,1.0,0.0
510,51.0,34.0,90.0,1.0,0.0
511,56.0,64.0,30.0,1.0,0.0
512,68.0,46.0,720.0,0.0,0.0
513,80.0,94.0,90.0,0.0,0.0
514,48.0,32.0,90.0,1.0,0.0
515,75.0,2.0,90.0,0.0,0.0
516,60.0,34.0,90.0,1.0,0.0
517,75.0,62.0,30.0,0.0,0.0
518,75.0,0.0,30.0,0.0,0.0
519,60.0,96.0,30.0,1.0,0.0
520,75.0,32.0,300.0,0.0,0.0
521,60.0,96.0,30.0,1.0,0.0
522,60.0,96.0,30.0,1.0,0.0
523,60.0,64.0,30.0,1.0,0.0
524,60.0,16.0,30.0,1.0,0.0
525,76.0,98.0,90.0,0.0,0.0
526,77.0,94.0,90.0,0.0,0.0
527,68.0,80.0,330.0,0.0,0.0
528,49.0,32.0,90.0,1.0,0.0
529,70.0,2.0,90.0,0.0,0.0
530,61.0,34.0,90.0,1.0,0.0
531,70.0,62.0,30.0,0.0,0.0
532,61.0,16.0,30.0,1.0,0.0
533,70.0,0.0,30.0,0.0,0.0
534,70.0,80.0,330.0,0.0,0.0
535,67.0,0.0,330.0,0.0,0.0
536,61.0,96.0,30.0,1.0,0.0
537,61.0,96.0,30.0,1.0,0.0
538,61.0,96.0,30.0,1.0,0.0
539,61.0,16.0,30.0,1.0,0.0
540,60.0,112.0,30.0,1.0,0.0
541,68.0,0.0,150.0,0.0,0.0
542,75.0,46.0,150.0,0.0,0.0
543,77.0,34.0,60.0,0.0,0.0
544,61.0,112.0,30.0,1.0,0.0
545,73.0,46.0,150.0,0.0,0.0
546,70.0,0.0,150.0,0.0,0.0
547,75.0,34.0,60.0,0.0,0.0
548,63.0,112.0,30.0,1.0,0.0
549,68.0,0.0,150.0,0.0,0.0
550,72.0,46.0,150.0,0.0,0.0
551,73.0,34.0,60.0,0.0,0.0
552,51.0,112.0,30.0,1.0,0.0
553,67.0,46.0,150.0,0.0,0.0
554,70.0,0.0,150.0,0.0,0.0
555,72.0,162.0,60.0,0.0,0.0
556,68.0,64.0,150.0,0.0,0.0
557,56.0,0.0,150.0,1.0,0.0
558,60.0,96.0,30.0,1.0,0.0
559,56.0,224.0,30.0,1.0,0.0
560,53.0,64.0,150.0,1.0,0.0
561,72.0,192.0,150.0,0.0,0.0
562,68.0,0.0,150.0,0.0,0.0
563,56.0,96.0,30.0,1.0,0.0
564,53.0,32.0,30.0,1.0,0.0
565,68.0,16.0,540.0,0.0,0.0
566,70.0,32.0,180.0,0.0,0.0
567,49.0,32.0,150.0,1.0,0.0
568,70.0,144.0,180.0,0.0,0.0
569,53.0,96.0,30.0,1.0,0.0
570,49.0,64.0,30.0,1.0,0.0
571,72.0,32.0,180.0,0.0,0.0
572,51.0,32.0,150.0,1.0,0.0
573,73.0,192.0,150.0,0.0,0.0
574,70.0,0.0,150.0,0.0,0.0
575,55.0,96.0,30.0,1.0,0.0
576,51.0,32.0,30.0,1.0,0.0
577,56.0,32.0,150.0,1.0,0.0
578,70.0,32.0,180.0,0.0,0.0
579,73.0,0.0,180.0,0.0,0.0
580,60.0,96.0,30.0,1.0,0.0
581,72.0,0.0,150.0,0.0,0.0
582,68.0,192.0,150.0,0.0,0.0
583,56.0,32.0,30.0,1.0,0.0
584,53.0,64.0,150.0,1.0,0.0
585,72.0,0.0,60.0,0.0,0.0
586,80.0,80.0,60.0,0.0,0.0
587,56.0,16.0,30.0,1.0,0.0
588,53.0,224.0,30.0,1.0,0.0
589,70.0,32.0,180.0,0.0,0.0
590,77.0,0.0,180.0,0.0,0.0
591,49.0,32.0,150.0,1.0,0.0
592,68.0,0.0,180.0,0.0,0.0
593,73.0,160.0,180.0,0.0,0.0
594,53.0,96.0,30.0,1.0,0.0
595,49.0,64.0,30.0,1.0,0.0
596,51.0,32.0,150.0,1.0,0.0
597,67.0,0.0,180.0,0.0,0.0
598,70.0,32.0,180.0,0.0,0.0
599,70.0,0.0,150.0,0.0,0.0
600,55.0,96.0,30.0,1.0,0.0
601,75.0,192.0,150.0,0.0,0.0
602,51.0,32.0,30.0,1.0,0.0
603,56.0,128.0,150.0,1.0,0.0
604,68.0,0.0,150.0,0.0,0.0
605,72.0,94.0,90.0,0.0,0.0
606,68.0,162.0,90.0,0.0,0.0
607,49.0,0.0,150.0,1.0,0.0
608,65.0,128.0,150.0,0.0,0.0
609,68.0,0.0,90.0,0.0,0.0
610,53.0,94.0,90.0,1.0,0.0
611,65.0,162.0,90.0,0.0,0.0
612,49.0,0.0,90.0,1.0,0.0
613,70.0,0.0,150.0,0.0,0.0
614,46.0,128.0,150.0,1.0,0.0
615,73.0,94.0,90.0,0.0,0.0
616,70.0,162.0,90.0,0.0,0.0
617,51.0,0.0,150.0,1.0,0.0
618,67.0,128.0,150.0,0.0,0.0
619,70.0,0.0,90.0,0.0,0.0
620,55.0,94.0,90.0,1.0,0.0
621,67.0,162.0,90.0,0.0,0.0
622,51.0,0.0,90.0,1.0,0.0
623,48.0,0.0,150.0,1.0,0.0
624,72.0,128.0,150.0,0.0,0.0
625,75.0,94.0,90.0,0.0,0.0
626,72.0,162.0,90.0,0.0,0.0
627,68.0,128.0,150.0,0.0,0.0
628,53.0,0.0,150.0,1.0,0.0
629,72.0,0.0,90.0,0.0,0.0
630,56.0,94.0,90.0,1.0,0.0
631,68.0,0.0,90.0,0.0,0.0
632,53.0,162.0,90.0,1.0,0.0
633,49.0,128.0,150.0,1.0,0.0
634,73.0,0.0,150.0,0.0,0.0
635,77.0,94.0,90.0,0.0,0.0
636,73.0,162.0,90.0,0.0,0.0
637,46.0,0.0,150.0,1.0,0.0
638,70.0,128.0,150.0,0.0,0.0
639,49.0,94.0,90.0,1.0,0.0
640,73.0,0.0,90.0,0.0,0.0
641,70.0,0.0,90.0,0.0,0.0
642,46.0,98.0,90.0,1.0,0.0
643,67.0,96.0,90.0,0.0,0.0
644,43.0,0.0,90.0,1.0,0.0
645,39.0,0.0,90.0,1.0,0.0
646,63.0,96.0,90.0,0.0,0.0
647,41.0,0.0,90.0,1.0,0.0
648,65.0,94.0,90.0,0.0,0.0
649,43.0,98.0,90.0,1.0,0.0
650,67.0,0.0,90.0,0.0,0.0
651,44.0,96.0,90.0,1.0,0.0
652,68.0,0.0,90.0,0.0,0.0
653,67.0,0.0,90.0,0.0,0.0
654,43.0,96.0,90.0,1.0,0.0
655,44.0,0.0,90.0,1.0,0.0
656,68.0,94.0,90.0,0.0,0.0
657,70.0,0.0,90.0,0.0,0.0
658,46.0,98.0,90.0,1.0,0.0
659,72.0,64.0,90.0,0.0,0.0
660,48.0,32.0,150.0,1.0,0.0
661,70.0,96.0,90.0,0.0,0.0
662,68.0,0.0,90.0,0.0,0.0
663,44.0,94.0,90.0,1.0,0.0
664,70.0,2.0,90.0,0.0,0.0
665,46.0,96.0,90.0,1.0,0.0
666,48.0,96.0,90.0,1.0,0.0
667,72.0,0.0,90.0,0.0,0.0
668,46.0,0.0,90.0,1.0,0.0
669,70.0,96.0,90.0,0.0,0.0
670,48.0,0.0,90.0,1.0,0.0
671,72.0,94.0,90.0,0.0,0.0
672,74.0,96.0,90.0,0.0,0.0
673,50.0,0.0,90.0,1.0,0.0
674,75.0,0.0,90.0,0.0,0.0
675,51.0,130.0,90.0,1.0,0.0
676,79.0,0.0,180.0,0.0,0.0
677,73.0,32.0,180.0,0.0,0.0
678,39.0,96.0,30.0,1.0,0.0
679,51.0,64.0,30.0,1.0,0.0
680,80.0,0.0,90.0,0.0,0.0
681,72.0,34.0,90.0,0.0,0.0
682,39.0,62.0,30.0,1.0,0.0
683,51.0,96.0,30.0,1.0,0.0
684,72.0,34.0,90.0,0.0,0.0
685,68.0,0.0,90.0,0.0,0.0
686,39.0,62.0,30.0,1.0,0.0
687,51.0,96.0,30.0,1.0,0.0
688,39.0,62.0,30.0,1.0,0.0
689,67.0,34.0,90.0,0.0,0.0
690,70.0,0.0,90.0,0.0,0.0
691,51.0,96.0,30.0,1.0,0.0
692,79.0,32.0,180.0,0.0,0.0
693,73.0,0.0,180.0,0.0,0.0
694,39.0,96.0,30.0,1.0,0.0
695,51.0,64.0,30.0,1.0,0.0
696,72.0,34.0,90.0,0.0,0.0
697,80.0,0.0,90.0,0.0,0.0
698,39.0,62.0,30.0,1.0,0.0
699,51.0,96.0,30.0,1.0,0.0
700,68.0,34.0,90.0,0.0,0.0
701,72.0,0.0,90.0,0.0,0.0
702,39.0,62.0,30.0,1.0,0.0
703,51.0,112.0,30.0,1.0,0.0
704,39.0,112.0,60.0,1.0,0.0
705,67.0,80.0,150.0,0.0,0.0
706,70.0,0.0,150.0,0.0,0.0
707,75.0,0.0,60.0,0.0,0.0
708,67.0,0.0,60.0,0.0,0.0
709,51.0,192.0,60.0,1.0,0.0
710,39.0,720.0,60.0,1.0,0.0
711,67.0,0.0,60.0,0.0,0.0
712,75.0,0.0,60.0,0.0,0.0
713,70.0,336.0,390.0,0.0,0.0
714,75.0,48.0,330.0,0.0,0.0
715,60.0,94.0,390.0,1.0,0.0
716,69.0,0.0,330.0,0.0,0.0
717,74.0,96.0,90.0,0.0,0.0
718,70.0,0.0,90.0,0.0,0.0
719,58.0,2.0,90.0,1.0,0.0
720,77.0,32.0,90.0,0.0,0.0
721,53.0,64.0,30.0,1.0,0.0
722,75.0,94.0,90.0,0.0,0.0
723,72.0,34.0,90.0,0.0,0.0
724,50.0,128.0,30.0,1.0,0.0
725,70.0,64.0,150.0,0.0,0.0
726,46.0,544.0,30.0,1.0,0.0
727,70.0,336.0,390.0,0.0,0.0
728,62.0,94.0,390.0,1.0,0.0
729,80.0,48.0,330.0,0.0,0.0
730,63.0,2.0,90.0,1.0,0.0
731,79.0,0.0,90.0,0.0,0.0
732,70.0,96.0,90.0,0.0,0.0
733,82.0,32.0,90.0,0.0,0.0
734,58.0,64.0,30.0,1.0,0.0
735,80.0,0.0,90.0,0.0,0.0
736,74.0,94.0,90.0,0.0,0.0
737,77.0,34.0,90.0,0.0,0.0
738,55.0,128.0,30.0,1.0,0.0
739,75.0,64.0,150.0,0.0,0.0
740,51.0,256.0,30.0,1.0,0.0
741,72.0,96.0,90.0,0.0,0.0
742,74.0,96.0,90.0,0.0,0.0
743,75.0,94.0,90.0,0.0,0.0
744,76.0,98.0,90.0,0.0,0.0
745,77.0,96.0,90.0,0.0,0.0
746,56.0,96.0,780.0,1.0,0.0
747,60.0,96.0,390.0,1.0,0.0
748,79.0,96.0,90.0,0.0,0.0
749,80.0,94.0,90.0,0.0,0.0
750,77.0,2.0,90.0,0.0,0.0
751,58.0,0.0,720.0,1.0,0.0
752,75.0,96.0,90.0,0.0,0.0
753,74.0,96.0,90.0,0.0,0.0
754,72.0,94.0,90.0,0.0,0.0
755,74.0,2.0,90.0,0.0,0.0
756,55.0,46.0,330.0,1.0,0.0
757,75.0,96.0,90.0,0.0,0.0
758,79.0,96.0,90.0,0.0,0.0
759,75.0,48.0,90.0,0.0,0.0
760,70.0,50.0,90.0,0.0,0.0
761,56.0,48.0,60.0,1.0,0.0
762,72.0,96.0,90.0,0.0,0.0
763,74.0,48.0,90.0,0.0,0.0
764,75.0,94.0,90.0,0.0,0.0
765,44.0,48.0,60.0,1.0,0.0
766,76.0,98.0,90.0,0.0,0.0
767,77.0,96.0,90.0,0.0,0.0
768,60.0,96.0,390.0,1.0,0.0
769,56.0,96.0,780.0,1.0,0.0
770,79.0,96.0,90.0,0.0,0.0
771,80.0,94.0,90.0,0.0,0.0
772,77.0,2.0,90.0,0.0,0.0
773,58.0,0.0,720.0,1.0,0.0
774,75.0,96.0,90.0,0.0,0.0
775,74.0,96.0,90.0,0.0,0.0
776,72.0,94.0,90.0,0.0,0.0
777,74.0,2.0,90.0,0.0,0.0
778,55.0,46.0,330.0,1.0,0.0
779,75.0,96.0,90.0,0.0,0.0
780,82.0,96.0,90.0,0.0,0.0
781,80.0,48.0,90.0,0.0,0.0
782,79.0,50.0,90.0,0.0,0.0
783,56.0,48.0,60.0,1.0,0.0
784,79.0,96.0,90.0,0.0,0.0
785,72.0,32.0,270.0,0.0,0.0
786,77.0,48.0,90.0,0.0,0.0
787,44.0,16.0,60.0,1.0,0.0
788,80.0,94.0,90.0,0.0,0.0
789,77.0,0.0,90.0,0.0,0.0
790,68.0,50.0,90.0,0.0,0.0
791,46.0,48.0,60.0,1.0,0.0
792,77.0,0.0,90.0,0.0,0.0
793,68.0,94.0,90.0,0.0,0.0
794,67.0,50.0,90.0,0.0,0.0
795,75.0,0.0,90.0,0.0,0.0
796,67.0,0.0,90.0,0.0,0.0
797,34.0,48.0,60.0,1.0,0.0
798,75.0,94.0,90.0,0.0,0.0
799,65.0,162.0,90.0,0.0,0.0
800,74.0,0.0,90.0,0.0,0.0
801,75.0,0.0,150.0,0.0,0.0
802,67.0,0.0,150.0,0.0,0.0
803,39.0,160.0,150.0,1.0,0.0
804,79.0,96.0,30.0,0.0,0.0
805,70.0,0.0,30.0,0.0,0.0
806,51.0,0.0,30.0,1.0,0.0
807,70.0,0.0,30.0,0.0,0.0
808,79.0,0.0,30.0,0.0,0.0
809,51.0,96.0,30.0,1.0,0.0
810,70.0,0.0,30.0,0.0,0.0
811,51.0,0.0,30.0,1.0,0.0
812,79.0,96.0,30.0,0.0,0.0
813,51.0,96.0,30.0,1.0,0.0
814,79.0,0.0,30.0,0.0,0.0
815,70.0,0.0,30.0,0.0,0.0
816,51.0,0.0,30.0,1.0,0.0
817,70.0,0.0,30.0,0.0,0.0
818,79.0,160.0,30.0,0.0,0.0
819,70.0,0.0,90.0,0.0,0.0
820,82.0,64.0,90.0,0.0,0.0
821,50.0,32.0,150.0,1.0,0.0
822,81.0,94.0,90.0,0.0,0.0
823,80.0,34.0,90.0,0.0,0.0
824,77.0,96.0,30.0,0.0,0.0
825,74.0,0.0,30.0,0.0,0.0
826,68.0,0.0,30.0,0.0,0.0
827,46.0,96.0,30.0,1.0,0.0
828,68.0,0.0,30.0,0.0,0.0
829,74.0,96.0,30.0,0.0,0.0
830,46.0,0.0,30.0,1.0,0.0
831,46.0,96.0,30.0,1.0,0.0
832,68.0,0.0,30.0,0.0,0.0
833,74.0,0.0,30.0,0.0,0.0
834,46.0,0.0,30.0,1.0,0.0
835,68.0,0.0,30.0,0.0,0.0
836,74.0,160.0,30.0,0.0,0.0
837,39.0,32.0,150.0,1.0,0.0
838,67.0,0.0,150.0,0.0,0.0
839,74.0,64.0,90.0,0.0,0.0
840,75.0,94.0,90.0,0.0,0.0
841,70.0,34.0,90.0,0.0,0.0
842,70.0,0.0,30.0,0.0,0.0
843,79.0,0.0,30.0,0.0,0.0
844,51.0,96.0,30.0,1.0,0.0
845,70.0,0.0,30.0,0.0,0.0
846,51.0,0.0,30.0,1.0,0.0
847,79.0,96.0,30.0,0.0,0.0
848,51.0,0.0,30.0,1.0,0.0
849,79.0,96.0,30.0,0.0,0.0
850,70.0,0.0,30.0,0.0,0.0
851,70.0,0.0,30.0,0.0,0.0
852,79.0,0.0,30.0,0.0,0.0
853,51.0,96.0,30.0,1.0,0.0
854,70.0,160.0,30.0,0.0,0.0
855,51.0,0.0,30.0,1.0,0.0
856,79.0,0.0,30.0,0.0,0.0
857,82.0,0.0,90.0,0.0,0.0
858,70.0,64.0,90.0,0.0,0.0
859,50.0,32.0,150.0,1.0,0.0
860,81.0,94.0,90.0,0.0,0.0
861,80.0,34.0,90.0,0.0,0.0
862,77.0,96.0,30.0,0.0,0.0
863,46.0,96.0,30.0,1.0,0.0
864,74.0,0.0,30.0,0.0,0.0
865,68.0,0.0,30.0,0.0,0.0
866,74.0,0.0,30.0,0.0,0.0
867,68.0,0.0,30.0,0.0,0.0
868,46.0,96.0,30.0,1.0,0.0
869,74.0,0.0,30.0,0.0,0.0
870,46.0,0.0,30.0,1.0,0.0
871,68.0,96.0,30.0,0.0,0.0
872,46.0,0.0,30.0,1.0,0.0
873,68.0,0.0,30.0,0.0,0.0
874,74.0,96.0,30.0,0.0,0.0
875,67.0,0.0,90.0,0.0,0.0
876,51.0,64.0,30.0,1.0,0.0
877,75.0,96.0,90.0,0.0,0.0
878,79.0,32.0,90.0,0.0,0.0
879,77.0,94.0,90.0,0.0,0.0
880,68.0,0.0,90.0,0.0,0.0
881,46.0,64.0,30.0,1.0,0.0
882,74.0,34.0,90.0,0.0,0.0
883,51.0,64.0,30.0,1.0,0.0
884,75.0,96.0,90.0,0.0,0.0
885,67.0,0.0,90.0,0.0,0.0
886,79.0,32.0,90.0,0.0,0.0
887,46.0,64.0,30.0,1.0,0.0
888,68.0,0.0,90.0,0.0,0.0
889,77.0,94.0,90.0,0.0,0.0
890,74.0,34.0,90.0,0.0,0.0
891,39.0,192.0,30.0,1.0,0.0
892,75.0,0.0,30.0,0.0,0.0
893,67.0,0.0,30.0,0.0,0.0
894,51.0,0.0,30.0,1.0,0.0
895,70.0,0.0,30.0,0.0,0.0
896,79.0,192.0,30.0,0.0,0.0
897,67.0,0.0,30.0,0.0,0.0
898,75.0,736.0,30.0,0.0,0.0
899,39.0,0.0,30.0,1.0,0.0
900,75.0,336.0,390.0,0.0,0.0
901,51.0,0.0,390.0,1.0,0.0
902,54.0,0.0,330.0,1.0,0.0
903,78.0,96.0,330.0,0.0,0.0
904,45.0,192.0,60.0,1.0,0.0
905,69.0,0.0,60.0,0.0,0.0
906,70.0,576.0,60.0,0.0,0.0
907,46.0,0.0,60.0,1.0,0.0
908,65.0,0.0,60.0,0.0,0.0
909,73.0,528.0,60.0,0.0,0.0
910,66.0,0.0,390.0,0.0,0.0
911,75.0,160.0,390.0,0.0,0.0
912,73.0,0.0,150.0,0.0,0.0
913,65.0,80.0,150.0,0.0,0.0
914,53.0,48.0,60.0,1.0,0.0
915,73.0,94.0,90.0,0.0,0.0
916,63.0,0.0,90.0,0.0,0.0
917,72.0,50.0,90.0,0.0,0.0
918,53.0,48.0,60.0,1.0,0.0
919,72.0,94.0,90.0,0.0,0.0
920,63.0,0.0,90.0,0.0,0.0
921,69.0,50.0,90.0,0.0,0.0
922,46.0,46.0,60.0,1.0,0.0
923,70.0,608.0,150.0,0.0,0.0
924,61.0,66.0,90.0,0.0,0.0
925,73.0,0.0,390.0,0.0,0.0
926,49.0,336.0,390.0,1.0,0.0
927,76.0,0.0,330.0,0.0,0.0
928,52.0,96.0,330.0,1.0,0.0
929,67.0,0.0,60.0,0.0,0.0
930,43.0,192.0,60.0,1.0,0.0
931,68.0,576.0,60.0,0.0,0.0
932,44.0,0.0,60.0,1.0,0.0
933,72.0,0.0,60.0,0.0,0.0
934,63.0,528.0,60.0,0.0,0.0
935,73.0,160.0,390.0,0.0,0.0
936,65.0,0.0,390.0,0.0,0.0
937,63.0,0.0,150.0,0.0,0.0
938,72.0,80.0,150.0,0.0,0.0
939,61.0,94.0,90.0,0.0,0.0
940,72.0,0.0,90.0,0.0,0.0
941,51.0,48.0,60.0,1.0,0.0
942,70.0,50.0,90.0,0.0,0.0
943,61.0,0.0,90.0,0.0,0.0
944,70.0,94.0,90.0,0.0,0.0
945,51.0,48.0,60.0,1.0,0.0
946,67.0,50.0,90.0,0.0,0.0
947,60.0,66.0,90.0,0.0,0.0
948,68.0,272.0,150.0,0.0,0.0
949,44.0,46.0,60.0,1.0,0.0
950,53.0,0.0,60.0,1.0,0.0
951,56.0,528.0,60.0,1.0,0.0
952,54.0,160.0,390.0,1.0,0.0
953,58.0,0.0,390.0,1.0,0.0
954,56.0,128.0,150.0,1.0,0.0
955,53.0,0.0,150.0,1.0,0.0
956,80.0,66.0,480.0,0.0,0.0
957,53.0,0.0,90.0,1.0,0.0
958,56.0,94.0,90.0,1.0,0.0
959,51.0,0.0,90.0,1.0,0.0
960,54.0,98.0,90.0,1.0,0.0
961,51.0,0.0,90.0,1.0,0.0
962,54.0,94.0,90.0,1.0,0.0
963,51.0,0.0,90.0,1.0,0.0
964,48.0,96.0,90.0,1.0,0.0
965,53.0,0.0,150.0,1.0,0.0
966,49.0,32.0,150.0,1.0,0.0
967,79.0,96.0,90.0,0.0,0.0
968,80.0,94.0,90.0,0.0,0.0
969,78.0,130.0,90.0,0.0,0.0
970,77.0,0.0,480.0,0.0,0.0
971,73.0,66.0,480.0,0.0,0.0
972,37.0,96.0,30.0,1.0,0.0
973,41.0,96.0,30.0,1.0,0.0
974,44.0,158.0,30.0,1.0,0.0
975,49.0,32.0,150.0,1.0,0.0
976,76.0,0.0,90.0,0.0,0.0
977,72.0,96.0,90.0,0.0,0.0
978,73.0,0.0,90.0,0.0,0.0
979,77.0,94.0,90.0,0.0,0.0
980,72.0,98.0,90.0,0.0,0.0
981,75.0,0.0,90.0,0.0,0.0
982,41.0,0.0,480.0,1.0,0.0
983,70.0,0.0,90.0,0.0,0.0
984,73.0,96.0,90.0,0.0,0.0
985,72.0,0.0,90.0,0.0,0.0
986,69.0,96.0,90.0,0.0,0.0
987,70.0,94.0,90.0,0.0,0.0
988,73.0,0.0,90.0,0.0,0.0
989,72.0,0.0,90.0,0.0,0.0
990,69.0,98.0,90.0,0.0,0.0
991,73.0,96.0,90.0,0.0,0.0
992,70.0,32.0,270.0,0.0,0.0
993,72.0,0.0,90.0,0.0,0.0
994,40.0,64.0,90.0,1.0,0.0
995,73.0,94.0,90.0,0.0,0.0
996,41.0,0.0,90.0,1.0,0.0
997,39.0,162.0,90.0,1.0,0.0
998,69.0,0.0,90.0,0.0,0.0
999,72.0,0.0,90.0,0.0,0.0
1000,37.0,0.0,390.0,1.0,0.0
1001,70.0,32.0,150.0,0.0,0.0
1002,71.0,144.0,180.0,0.0,0.0
1003,65.0,48.0,330.0,0.0,0.0
1004,70.0,144.0,180.0,0.0,0.0
1005,38.0,16.0,330.0,1.0,0.0
1006,65.0,0.0,150.0,0.0,0.0
1007,68.0,80.0,150.0,0.0,0.0
1008,63.0,272.0,150.0,0.0,0.0
1009,67.0,0.0,150.0,0.0,0.0
1010,39.0,112.0,60.0,1.0,0.0
1011,51.0,98.0,300.0,1.0,0.0
1012,63.0,46.0,60.0,0.0,0.0
1013,50.0,96.0,90.0,1.0,0.0
1014,51.0,94.0,90.0,1.0,0.0
1015,75.0,2.0,300.0,0.0,0.0
1016,49.0,96.0,90.0,1.0,0.0
1017,48.0,96.0,90.0,1.0,0.0
1018,74.0,96.0,90.0,0.0,0.0
1019,47.0,0.0,90.0,1.0,0.0
1020,48.0,0.0,90.0,1.0,0.0
1021,75.0,94.0,90.0,0.0,0.0
1022,46.0,162.0,90.0,1.0,0.0
1023,73.0,0.0,90.0,0.0,0.0
1024,44.0,96.0,180.0,1.0,0.0
1025,72.0,32.0,150.0,0.0,0.0
1026,74.0,0.0,90.0,0.0,0.0
1027,68.0,30.0,150.0,0.0,0.0
1028,75.0,64.0,90.0,0.0,0.0
1029,41.0,0.0,150.0,1.0,0.0
1030,74.0,50.0,90.0,0.0,0.0
1031,39.0,112.0,60.0,1.0,0.0
1032,75.0,272.0,150.0,0.0,0.0
1033,67.0,0.0,150.0,0.0,0.0
1034,51.0,98.0,300.0,1.0,0.0
1035,63.0,46.0,60.0,0.0,0.0
1036,50.0,96.0,90.0,1.0,0.0
1037,51.0,94.0,90.0,1.0,0.0
1038,75.0,2.0,300.0,0.0,0.0
1039,49.0,96.0,90.0,1.0,0.0
1040,47.0,96.0,90.0,1.0,0.0
1041,46.0,96.0,90.0,1.0,0.0
1042,74.0,0.0,90.0,0.0,0.0
1043,75.0,94.0,90.0,0.0,0.0
1044,47.0,0.0,90.0,1.0,0.0
1045,46.0,0.0,90.0,1.0,0.0
1046,73.0,162.0,90.0,0.0,0.0
1047,44.0,0.0,180.0,1.0,0.0
1048,71.0,32.0,150.0,0.0,0.0
1049,74.0,96.0,90.0,0.0,0.0
1050,52.0,0.0,150.0,1.0,0.0
1051,75.0,64.0,90.0,0.0,0.0
1052,68.0,30.0,150.0,0.0,0.0
1053,74.0,96.0,90.0,0.0,0.0
1054,51.0,192.0,90.0,1.0,0.0
1055,75.0,0.0,90.0,0.0,0.0
1056,67.0,0.0,90.0,0.0,0.0
1057,39.0,34.0,90.0,1.0,0.0
1058,79.0,0.0,180.0,0.0,0.0
1059,73.0,32.0,180.0,0.0,0.0
1060,51.0,64.0,30.0,1.0,0.0
1061,39.0,62.0,30.0,1.0,0.0
1062,80.0,34.0,90.0,0.0,0.0
1063,72.0,0.0,90.0,0.0,0.0
1064,51.0,96.0,30.0,1.0,0.0
1065,39.0,96.0,30.0,1.0,0.0
1066,72.0,0.0,180.0,0.0,0.0
1067,68.0,32.0,180.0,0.0,0.0
1068,51.0,64.0,30.0,1.0,0.0
1069,67.0,0.0,90.0,0.0,0.0
1070,70.0,34.0,90.0,0.0,0.0
1071,39.0,62.0,30.0,1.0,0.0
1072,51.0,96.0,30.0,1.0,0.0
1073,39.0,96.0,30.0,1.0,0.0
1074,79.0,0.0,180.0,0.0,0.0
1075,73.0,32.0,180.0,0.0,0.0
1076,51.0,64.0,30.0,1.0,0.0
1077,80.0,34.0,90.0,0.0,0.0
1078,39.0,62.0,30.0,1.0,0.0
1079,72.0,0.0,90.0,0.0,0.0
1080,51.0,96.0,30.0,1.0,0.0
1081,68.0,0.0,180.0,0.0,0.0
1082,72.0,48.0,180.0,0.0,0.0
1083,39.0,96.0,30.0,1.0,0.0
1084,51.0,64.0,30.0,1.0,0.0
1085,39.0,112.0,60.0,1.0,0.0
1086,70.0,0.0,150.0,0.0,0.0
1087,67.0,80.0,150.0,0.0,0.0
1088,51.0,0.0,60.0,1.0,0.0
1089,67.0,0.0,60.0,0.0,0.0
1090,75.0,192.0,60.0,0.0,0.0
1091,39.0,0.0,60.0,1.0,0.0
1092,67.0,0.0,60.0,0.0,0.0
1093,75.0,496.0,60.0,0.0,0.0
1094,44.0,0.0,150.0,1.0,0.0
1095,68.0,160.0,150.0,0.0,0.0
1096,39.0,0.0,30.0,1.0,0.0
1097,63.0,224.0,30.0,0.0,0.0
1098,44.0,0.0,150.0,1.0,0.0
1099,68.0,160.0,150.0,0.0,0.0
1100,39.0,96.0,30.0,1.0,0.0
1101,63.0,0.0,30.0,0.0,0.0
1102,44.0,0.0,30.0,1.0,0.0
1103,68.0,96.0,30.0,0.0,0.0
1104,72.0,0.0,30.0,0.0,0.0
1105,48.0,96.0,30.0,1.0,0.0
1106,75.0,96.0,30.0,0.0,0.0
1107,51.0,0.0,30.0,1.0,0.0
1108,72.0,224.0,30.0,0.0,0.0
1109,48.0,0.0,30.0,1.0,0.0
1110,44.0,0.0,150.0,1.0,0.0
1111,68.0,272.0,150.0,0.0,0.0
1112,72.0,0.0,60.0,0.0,0.0
1113,63.0,528.0,60.0,0.0,0.0
1114,73.0,0.0,390.0,0.0,0.0
1115,65.0,160.0,390.0,0.0,0.0
1116,72.0,0.0,150.0,0.0,0.0
1117,63.0,128.0,150.0,0.0,0.0
1118,63.0,64.0,90.0,0.0,0.0
1119,51.0,30.0,150.0,1.0,0.0
1120,72.0,0.0,90.0,0.0,0.0
1121,61.0,0.0,90.0,0.0,0.0
1122,70.0,98.0,90.0,0.0,0.0
1123,61.0,0.0,150.0,0.0,0.0
1124,70.0,64.0,90.0,0.0,0.0
1125,51.0,30.0,150.0,1.0,0.0
1126,67.0,34.0,90.0,0.0,0.0
1127,68.0,0.0,150.0,0.0,0.0
1128,56.0,128.0,30.0,1.0,0.0
1129,60.0,32.0,150.0,0.0,0.0
1130,44.0,96.0,90.0,1.0,0.0
1131,48.0,94.0,90.0,1.0,0.0
1132,51.0,50.0,90.0,1.0,0.0
1133,75.0,0.0,60.0,0.0,0.0
1134,56.0,416.0,150.0,1.0,0.0
1135,72.0,112.0,60.0,0.0,0.0
1136,73.0,160.0,390.0,0.0,0.0
1137,77.0,0.0,390.0,0.0,0.0
1138,72.0,128.0,150.0,0.0,0.0
1139,75.0,0.0,150.0,0.0,0.0
1140,51.0,30.0,150.0,1.0,0.0
1141,72.0,64.0,90.0,0.0,0.0
1142,75.0,0.0,90.0,0.0,0.0
1143,70.0,98.0,90.0,0.0,0.0
1144,73.0,0.0,90.0,0.0,0.0
1145,73.0,64.0,90.0,0.0,0.0
1146,70.0,0.0,90.0,0.0,0.0
1147,51.0,30.0,150.0,1.0,0.0
1148,67.0,34.0,90.0,0.0,0.0
1149,70.0,0.0,90.0,0.0,0.0
1150,72.0,32.0,150.0,0.0,0.0
1151,68.0,0.0,150.0,0.0,0.0
1152,56.0,128.0,30.0,1.0,0.0
1153,44.0,96.0,90.0,1.0,0.0
1154,48.0,94.0,90.0,1.0,0.0
1155,51.0,34.0,90.0,1.0,0.0
1156,80.0,94.0,90.0,0.0,0.0
1157,56.0,64.0,30.0,1.0,0.0
1158,68.0,46.0,720.0,0.0,0.0
1159,48.0,32.0,90.0,1.0,0.0
1160,75.0,2.0,90.0,0.0,0.0
1161,60.0,34.0,90.0,1.0,0.0
1162,75.0,62.0,30.0,0.0,0.0
1163,60.0,96.0,30.0,1.0,0.0
1164,75.0,0.0,30.0,0.0,0.0
1165,60.0,96.0,30.0,1.0,0.0
1166,75.0,32.0,300.0,0.0,0.0
1167,60.0,96.0,30.0,1.0,0.0
1168,60.0,64.0,30.0,1.0,0.0
1169,60.0,16.0,30.0,1.0,0.0
1170,76.0,98.0,90.0,0.0,0.0
1171,77.0,94.0,90.0,0.0,0.0
1172,68.0,80.0,330.0,0.0,0.0
1173,49.0,32.0,90.0,1.0,0.0
1174,70.0,2.0,90.0,0.0,0.0
1175,70.0,62.0,30.0,0.0,0.0
1176,61.0,34.0,90.0,1.0,0.0
1177,70.0,16.0,30.0,0.0,0.0
1178,61.0,0.0,30.0,1.0,0.0
1179,70.0,0.0,330.0,0.0,0.0
1180,67.0,80.0,330.0,0.0,0.0
1181,61.0,96.0,30.0,1.0,0.0
1182,61.0,96.0,30.0,1.0,0.0
1183,61.0,96.0,30.0,1.0,0.0
1184,61.0,16.0,30.0,1.0,0.0
1185,75.0,0.0,150.0,0.0,0.0
1186,68.0,46.0,150.0,0.0,0.0
1187,60.0,112.0,30.0,1.0,0.0
1188,77.0,34.0,60.0,0.0,0.0
1189,73.0,0.0,150.0,0.0,0.0
1190,70.0,46.0,150.0,0.0,0.0
1191,61.0,112.0,30.0,1.0,0.0
1192,75.0,34.0,60.0,0.0,0.0
1193,63.0,112.0,30.0,1.0,0.0
1194,72.0,46.0,150.0,0.0,0.0
1195,68.0,0.0,150.0,0.0,0.0
1196,73.0,34.0,60.0,0.0,0.0
1197,70.0,0.0,150.0,0.0,0.0
1198,51.0,112.0,30.0,1.0,0.0
1199,67.0,46.0,150.0,0.0,0.0
1200,72.0,162.0,60.0,0.0,0.0
1201,56.0,64.0,150.0,1.0,0.0
1202,68.0,0.0,150.0,0.0,0.0
1203,60.0,96.0,30.0,1.0,0.0
1204,56.0,224.0,30.0,1.0,0.0
1205,53.0,64.0,150.0,1.0,0.0
1206,72.0,0.0,150.0,0.0,0.0
1207,68.0,192.0,150.0,0.0,0.0
1208,56.0,96.0,30.0,1.0,0.0
1209,53.0,32.0,30.0,1.0,0.0
1210,49.0,32.0,150.0,1.0,0.0
1211,70.0,32.0,180.0,0.0,0.0
1212,68.0,16.0,540.0,0.0,0.0
1213,53.0,96.0,30.0,1.0,0.0
1214,70.0,144.0,180.0,0.0,0.0
1215,49.0,64.0,30.0,1.0,0.0
1216,72.0,32.0,180.0,0.0,0.0
1217,51.0,32.0,150.0,1.0,0.0
1218,73.0,192.0,150.0,0.0,0.0
1219,70.0,0.0,150.0,0.0,0.0
1220,55.0,96.0,30.0,1.0,0.0
1221,51.0,32.0,30.0,1.0,0.0
1222,73.0,0.0,180.0,0.0,0.0
1223,70.0,32.0,180.0,0.0,0.0
1224,56.0,32.0,150.0,1.0,0.0
1225,60.0,96.0,30.0,1.0,0.0
1226,68.0,0.0,150.0,0.0,0.0
1227,72.0,192.0,150.0,0.0,0.0
1228,56.0,32.0,30.0,1.0,0.0
1229,53.0,64.0,150.0,1.0,0.0
1230,80.0,80.0,60.0,0.0,0.0
1231,56.0,16.0,30.0,1.0,0.0
1232,72.0,0.0,60.0,0.0,0.0
1233,53.0,224.0,30.0,1.0,0.0
1234,70.0,0.0,180.0,0.0,0.0
1235,77.0,32.0,180.0,0.0,0.0
1236,49.0,32.0,150.0,1.0,0.0
1237,53.0,96.0,30.0,1.0,0.0
1238,68.0,160.0,180.0,0.0,0.0
1239,73.0,0.0,180.0,0.0,0.0
1240,49.0,64.0,30.0,1.0,0.0
1241,70.0,0.0,180.0,0.0,0.0
1242,67.0,32.0,180.0,0.0,0.0
1243,51.0,32.0,150.0,1.0,0.0
1244,70.0,0.0,150.0,0.0,0.0
1245,75.0,192.0,150.0,0.0,0.0
1246,55.0,96.0,30.0,1.0,0.0
1247,51.0,32.0,30.0,1.0,0.0
1248,56.0,0.0,150.0,1.0,0.0
1249,68.0,128.0,150.0,0.0,0.0
1250,72.0,94.0,90.0,0.0,0.0
1251,68.0,162.0,90.0,0.0,0.0
1252,49.0,128.0,150.0,1.0,0.0
1253,65.0,0.0,150.0,0.0,0.0
1254,68.0,94.0,90.0,0.0,0.0
1255,53.0,0.0,90.0,1.0,0.0
1256,65.0,162.0,90.0,0.0,0.0
1257,49.0,0.0,90.0,1.0,0.0
1258,46.0,0.0,150.0,1.0,0.0
1259,70.0,128.0,150.0,0.0,0.0
1260,73.0,94.0,90.0,0.0,0.0
1261,70.0,162.0,90.0,0.0,0.0
1262,51.0,128.0,150.0,1.0,0.0
1263,67.0,0.0,150.0,0.0,0.0
1264,70.0,94.0,90.0,0.0,0.0
1265,55.0,0.0,90.0,1.0,0.0
1266,51.0,162.0,90.0,1.0,0.0
1267,67.0,0.0,90.0,0.0,0.0
1268,72.0,0.0,150.0,0.0,0.0
1269,48.0,128.0,150.0,1.0,0.0
1270,75.0,94.0,90.0,0.0,0.0
1271,72.0,162.0,90.0,0.0,0.0
1272,53.0,128.0,150.0,1.0,0.0
1273,68.0,0.0,150.0,0.0,0.0
1274,72.0,0.0,90.0,0.0,0.0
1275,56.0,94.0,90.0,1.0,0.0
1276,68.0,0.0,90.0,0.0,0.0
1277,53.0,162.0,90.0,1.0,0.0
1278,49.0,0.0,150.0,1.0,0.0
1279,73.0,128.0,150.0,0.0,0.0
1280,77.0,94.0,90.0,0.0,0.0
1281,73.0,162.0,90.0,0.0,0.0
1282,70.0,128.0,150.0,0.0,0.0
1283,46.0,0.0,150.0,1.0,0.0
1284,73.0,0.0,90.0,0.0,0.0
1285,49.0,94.0,90.0,1.0,0.0
1286,46.0,98.0,90.0,1.0,0.0
1287,70.0,0.0,90.0,0.0,0.0
1288,43.0,96.0,90.0,1.0,0.0
1289,67.0,0.0,90.0,0.0,0.0
1290,63.0,96.0,90.0,0.0,0.0
1291,39.0,0.0,90.0,1.0,0.0
1292,41.0,0.0,90.0,1.0,0.0
1293,65.0,94.0,90.0,0.0,0.0
1294,43.0,0.0,90.0,1.0,0.0
1295,67.0,98.0,90.0,0.0,0.0
1296,68.0,0.0,90.0,0.0,0.0
1297,44.0,96.0,90.0,1.0,0.0
1298,67.0,0.0,90.0,0.0,0.0
1299,43.0,96.0,90.0,1.0,0.0
1300,68.0,94.0,90.0,0.0,0.0
1301,44.0,0.0,90.0,1.0,0.0
1302,46.0,0.0,90.0,1.0,0.0
1303,70.0,98.0,90.0,0.0,0.0
1304,48.0,32.0,150.0,1.0,0.0
1305,72.0,64.0,90.0,0.0,0.0
1306,70.0,96.0,90.0,0.0,0.0
1307,68.0,0.0,90.0,0.0,0.0
1308,44.0,94.0,90.0,1.0,0.0
1309,46.0,96.0,90.0,1.0,0.0
1310,70.0,2.0,90.0,0.0,0.0
1311,72.0,96.0,90.0,0.0,0.0
1312,48.0,0.0,90.0,1.0,0.0
1313,46.0,96.0,90.0,1.0,0.0
1314,70.0,0.0,90.0,0.0,0.0
1315,72.0,0.0,90.0,0.0,0.0
1316,48.0,94.0,90.0,1.0,0.0
1317,74.0,0.0,90.0,0.0,0.0
1318,50.0,96.0,90.0,1.0,0.0
1319,51.0,94.0,90.0,1.0,0.0
1320,75.0,2.0,90.0,0.0,0.0
1321,55.0,34.0,90.0,1.0,0.0
1322,70.0,0.0,180.0,0.0,0.0
1323,79.0,94.0,180.0,0.0,0.0
1324,58.0,96.0,30.0,1.0,0.0
1325,63.0,64.0,30.0,1.0,0.0
1326,80.0,2.0,90.0,0.0,0.0
1327,60.0,94.0,90.0,1.0,0.0
1328,72.0,0.0,90.0,0.0,0.0
1329,63.0,34.0,90.0,1.0,0.0
1330,72.0,96.0,30.0,0.0,0.0
1331,68.0,0.0,30.0,0.0,0.0
1332,60.0,0.0,30.0,1.0,0.0
1333,56.0,96.0,30.0,1.0,0.0
1334,55.0,94.0,90.0,1.0,0.0
1335,70.0,64.0,30.0,0.0,0.0
1336,75.0,0.0,30.0,0.0,0.0
1337,58.0,34.0,90.0,1.0,0.0
1338,55.0,96.0,30.0,1.0,0.0
1339,79.0,0.0,180.0,0.0,0.0
1340,70.0,94.0,180.0,0.0,0.0
1341,51.0,64.0,30.0,1.0,0.0
1342,80.0,2.0,90.0,0.0,0.0
1343,72.0,0.0,90.0,0.0,0.0
1344,48.0,94.0,90.0,1.0,0.0
1345,51.0,34.0,90.0,1.0,0.0
1346,72.0,0.0,30.0,0.0,0.0
1347,48.0,96.0,30.0,1.0,0.0
1348,68.0,0.0,30.0,0.0,0.0
1349,44.0,112.0,30.0,1.0,0.0
1350,51.0,0.0,60.0,1.0,0.0
1351,67.0,0.0,60.0,0.0,0.0
1352,70.0,192.0,60.0,0.0,0.0
1353,51.0,0.0,60.0,1.0,0.0
1354,67.0,0.0,60.0,0.0,0.0
1355,75.0,192.0,60.0,0.0,0.0
1356,75.0,0.0,60.0,0.0,0.0
1357,51.0,720.0,60.0,1.0,0.0
1358,67.0,0.0,60.0,0.0,0.0
1359,75.0,336.0,390.0,0.0,0.0
1360,74.0,48.0,330.0,0.0,0.0
1361,80.0,0.0,330.0,0.0,0.0
1362,53.0,32.0,390.0,1.0,0.0
1363,75.0,96.0,90.0,0.0,0.0
1364,79.0,0.0,90.0,0.0,0.0
1365,51.0,64.0,30.0,1.0,0.0
1366,82.0,32.0,90.0,0.0,0.0
1367,80.0,96.0,90.0,0.0,0.0
1368,74.0,0.0,90.0,0.0,0.0
1369,46.0,64.0,30.0,1.0,0.0
1370,77.0,32.0,90.0,0.0,0.0
1371,43.0,128.0,30.0,1.0,0.0
1372,75.0,64.0,150.0,0.0,0.0
1373,39.0,544.0,30.0,1.0,0.0
1374,63.0,336.0,390.0,0.0,0.0
1375,55.0,32.0,390.0,1.0,0.0
1376,70.0,0.0,330.0,0.0,0.0
1377,73.0,48.0,330.0,0.0,0.0
1378,68.0,0.0,90.0,0.0,0.0
1379,72.0,96.0,90.0,0.0,0.0
1380,56.0,64.0,30.0,1.0,0.0
1381,75.0,32.0,90.0,0.0,0.0
1382,51.0,64.0,30.0,1.0,0.0
1383,67.0,0.0,90.0,0.0,0.0
1384,73.0,96.0,90.0,0.0,0.0
1385,70.0,32.0,90.0,0.0,0.0
1386,68.0,64.0,150.0,0.0,0.0
1387,48.0,128.0,30.0,1.0,0.0
1388,44.0,256.0,30.0,1.0,0.0
1389,70.0,96.0,90.0,0.0,0.0
1390,69.0,96.0,90.0,0.0,0.0
1391,70.0,94.0,90.0,0.0,0.0
1392,72.0,98.0,90.0,0.0,0.0
1393,49.0,96.0,780.0,1.0,0.0
1394,58.0,0.0,780.0,1.0,0.0
1395,73.0,96.0,90.0,0.0,0.0
1396,72.0,96.0,90.0,0.0,0.0
1397,73.0,94.0,90.0,0.0,0.0
1398,75.0,98.0,90.0,0.0,0.0
1399,76.0,96.0,90.0,0.0,0.0
1400,77.0,96.0,90.0,0.0,0.0
1401,78.0,94.0,90.0,0.0,0.0
1402,79.0,2.0,90.0,0.0,0.0
1403,80.0,64.0,90.0,0.0,0.0
1404,56.0,0.0,150.0,1.0,0.0
1405,48.0,32.0,150.0,1.0,0.0
1406,75.0,96.0,90.0,0.0,0.0
1407,73.0,94.0,90.0,0.0,0.0
1408,72.0,50.0,90.0,0.0,0.0
1409,49.0,48.0,60.0,1.0,0.0
1410,70.0,96.0,90.0,0.0,0.0
1411,69.0,48.0,90.0,0.0,0.0
1412,37.0,48.0,60.0,1.0,0.0
1413,70.0,94.0,90.0,0.0,0.0
1414,72.0,98.0,90.0,0.0,0.0
1415,58.0,46.0,720.0,1.0,0.0
1416,49.0,0.0,720.0,1.0,0.0
1417,73.0,96.0,90.0,0.0,0.0
1418,72.0,96.0,90.0,0.0,0.0
1419,73.0,94.0,90.0,0.0,0.0
1420,75.0,98.0,90.0,0.0,0.0
1421,77.0,96.0,90.0,0.0,0.0
1422,76.0,96.0,90.0,0.0,0.0
1423,77.0,48.0,90.0,0.0,0.0
1424,79.0,98.0,90.0,0.0,0.0
1425,80.0,0.0,90.0,0.0,0.0
1426,48.0,96.0,90.0,1.0,0.0
1427,75.0,0.0,90.0,0.0,0.0
1428,60.0,96.0,90.0,1.0,0.0
1429,73.0,94.0,90.0,0.0,0.0
1430,58.0,0.0,90.0,1.0,0.0
1431,56.0,0.0,90.0,1.0,0.0
1432,72.0,98.0,90.0,0.0,0.0
1433,72.0,96.0,90.0,0.0,0.0
1434,49.0,96.0,180.0,1.0,0.0
1435,53.0,0.0,180.0,1.0,0.0
1436,70.0,0.0,90.0,0.0,0.0
1437,77.0,64.0,90.0,0.0,0.0
1438,46.0,30.0,150.0,1.0,0.0
1439,73.0,50.0,90.0,0.0,0.0
1440,72.0,96.0,90.0,0.0,0.0
1441,51.0,48.0,60.0,1.0,0.0
1442,75.0,48.0,90.0,0.0,0.0
1443,73.0,94.0,90.0,0.0,0.0
1444,39.0,48.0,60.0,1.0,0.0
1445,70.0,162.0,90.0,0.0,0.0
1446,68.0,0.0,150.0,0.0,0.0
1447,44.0,160.0,150.0,1.0,0.0
1448,63.0,96.0,30.0,0.0,0.0
1449,44.0,0.0,30.0,1.0,0.0
1450,72.0,0.0,30.0,0.0,0.0
1451,72.0,96.0,30.0,0.0,0.0
1452,44.0,0.0,30.0,1.0,0.0
1453,63.0,0.0,30.0,0.0,0.0
1454,72.0,0.0,30.0,0.0,0.0
1455,44.0,96.0,30.0,1.0,0.0
1456,63.0,0.0,30.0,0.0,0.0
1457,72.0,96.0,30.0,0.0,0.0
1458,63.0,0.0,30.0,0.0,0.0
1459,44.0,0.0,30.0,1.0,0.0
1460,44.0,0.0,30.0,1.0,0.0
1461,63.0,160.0,30.0,0.0,0.0
1462,72.0,0.0,30.0,0.0,0.0
1463,43.0,32.0,150.0,1.0,0.0
1464,75.0,0.0,90.0,0.0,0.0
1465,63.0,64.0,90.0,0.0,0.0
1466,74.0,94.0,90.0,0.0,0.0
1467,73.0,34.0,90.0,0.0,0.0
1468,79.0,96.0,30.0,0.0,0.0
1469,79.0,0.0,30.0,0.0,0.0
1470,51.0,0.0,30.0,1.0,0.0
1471,73.0,96.0,30.0,0.0,0.0
1472,51.0,96.0,30.0,1.0,0.0
1473,73.0,0.0,30.0,0.0,0.0
1474,79.0,0.0,30.0,0.0,0.0
1475,73.0,0.0,30.0,0.0,0.0
1476,79.0,0.0,30.0,0.0,0.0
1477,51.0,96.0,30.0,1.0,0.0
1478,73.0,0.0,30.0,0.0,0.0
1479,51.0,160.0,30.0,1.0,0.0
1480,79.0,0.0,30.0,0.0,0.0
1481,44.0,0.0,150.0,1.0,0.0
1482,72.0,32.0,150.0,0.0,0.0
1483,79.0,64.0,90.0,0.0,0.0
1484,80.0,94.0,90.0,0.0,0.0
1485,75.0,34.0,90.0,0.0,0.0
1486,44.0,0.0,30.0,1.0,0.0
1487,63.0,96.0,30.0,0.0,0.0
1488,72.0,0.0,30.0,0.0,0.0
1489,44.0,0.0,30.0,1.0,0.0
1490,72.0,0.0,30.0,0.0,0.0
1491,63.0,96.0,30.0,0.0,0.0
1492,72.0,96.0,30.0,0.0,0.0
1493,63.0,0.0,30.0,0.0,0.0
1494,44.0,0.0,30.0,1.0,0.0
1495,44.0,0.0,30.0,1.0,0.0
1496,63.0,0.0,30.0,0.0,0.0
1497,72.0,96.0,30.0,0.0,0.0
1498,44.0,158.0,30.0,1.0,0.0
1499,63.0,0.0,30.0,0.0,0.0
1500,72.0,0.0,30.0,0.0,0.0
1501,75.0,0.0,90.0,0.0,0.0
1502,63.0,66.0,90.0,0.0,0.0
1503,43.0,30.0,150.0,1.0,0.0
1504,74.0,96.0,90.0,0.0,0.0
1505,73.0,34.0,90.0,0.0,0.0
1506,70.0,96.0,30.0,0.0,0.0
1507,61.0,0.0,30.0,1.0,0.0
1508,51.0,96.0,30.0,1.0,0.0
1509,67.0,0.0,30.0,0.0,0.0
1510,61.0,96.0,30.0,1.0,0.0
1511,51.0,0.0,30.0,1.0,0.0
1512,67.0,0.0,30.0,0.0,0.0
1513,61.0,0.0,30.0,1.0,0.0
1514,51.0,96.0,30.0,1.0,0.0
1515,67.0,0.0,30.0,0.0,0.0
1516,51.0,0.0,30.0,1.0,0.0
1517,61.0,0.0,30.0,1.0,0.0
1518,67.0,96.0,30.0,0.0,0.0
1519,60.0,0.0,90.0,0.0,0.0
1520,68.0,96.0,90.0,0.0,0.0
1521,56.0,64.0,30.0,1.0,0.0
1522,72.0,32.0,90.0,0.0,0.0
1523,51.0,64.0,30.0,1.0,0.0
1524,61.0,94.0,90.0,0.0,0.0
1525,70.0,0.0,90.0,0.0,0.0
1526,67.0,34.0,90.0,0.0,0.0
1527,60.0,0.0,90.0,0.0,0.0
1528,68.0,96.0,90.0,0.0,0.0
1529,56.0,64.0,30.0,1.0,0.0
1530,72.0,32.0,90.0,0.0,0.0
1531,51.0,64.0,30.0,1.0,0.0
1532,61.0,94.0,90.0,0.0,0.0
1533,70.0,0.0,90.0,0.0,0.0
1534,67.0,34.0,90.0,0.0,0.0
1535,68.0,192.0,30.0,0.0,0.0
1536,44.0,0.0,30.0,1.0,0.0
1537,60.0,0.0,30.0,0.0,0.0
1538,56.0,0.0,30.0,1.0,0.0
1539,72.0,0.0,30.0,0.0,0.0
1540,63.0,192.0,30.0,0.0,0.0
1541,68.0,0.0,30.0,0.0,0.0
1542,60.0,736.0,30.0,0.0,0.0
1543,44.0,0.0,30.0,1.0,0.0
1544,75.0,0.0,390.0,0.0,0.0
1545,51.0,336.0,390.0,1.0,0.0
1546,54.0,96.0,330.0,1.0,0.0
1547,78.0,0.0,330.0,0.0,0.0
1548,45.0,0.0,60.0,1.0,0.0
1549,69.0,192.0,60.0,0.0,0.0
1550,46.0,0.0,60.0,1.0,0.0
1551,70.0,576.0,60.0,0.0,0.0
1552,65.0,528.0,60.0,0.0,0.0
1553,73.0,0.0,60.0,0.0,0.0
1554,75.0,160.0,390.0,0.0,0.0
1555,66.0,0.0,390.0,0.0,0.0
1556,73.0,0.0,150.0,0.0,0.0
1557,65.0,80.0,150.0,0.0,0.0
1558,63.0,0.0,90.0,0.0,0.0
1559,73.0,94.0,90.0,0.0,0.0
1560,53.0,48.0,60.0,1.0,0.0
1561,72.0,50.0,90.0,0.0,0.0
1562,63.0,94.0,90.0,0.0,0.0
1563,72.0,0.0,90.0,0.0,0.0
1564,53.0,48.0,60.0,1.0,0.0
1565,69.0,50.0,90.0,0.0,0.0
1566,70.0,608.0,150.0,0.0,0.0
1567,46.0,46.0,60.0,1.0,0.0
1568,61.0,66.0,90.0,0.0,0.0
1569,49.0,0.0,390.0,1.0,0.0
1570,73.0,336.0,390.0,0.0,0.0
1571,52.0,96.0,330.0,1.0,0.0
1572,76.0,0.0,330.0,0.0,0.0
1573,67.0,0.0,60.0,0.0,0.0
1574,43.0,192.0,60.0,1.0,0.0
1575,68.0,0.0,60.0,0.0,0.0
1576,44.0,576.0,60.0,1.0,0.0
1577,63.0,0.0,60.0,0.0,0.0
1578,72.0,528.0,60.0,0.0,0.0
1579,65.0,160.0,390.0,0.0,0.0
1580,73.0,0.0,390.0,0.0,0.0
1581,72.0,0.0,150.0,0.0,0.0
1582,63.0,80.0,150.0,0.0,0.0
1583,61.0,0.0,90.0,0.0,0.0
1584,72.0,94.0,90.0,0.0,0.0
1585,51.0,48.0,60.0,1.0,0.0
1586,70.0,50.0,90.0,0.0,0.0
1587,70.0,0.0,90.0,0.0,0.0
1588,61.0,94.0,90.0,0.0,0.0
1589,51.0,48.0,60.0,1.0,0.0
1590,67.0,50.0,90.0,0.0,0.0
1591,60.0,66.0,90.0,0.0,0.0
1592,44.0,46.0,60.0,1.0,0.0
1593,68.0,272.0,150.0,0.0,0.0
1594,56.0,528.0,60.0,1.0,0.0
1595,53.0,0.0,60.0,1.0,0.0
1596,54.0,0.0,390.0,1.0,0.0
1597,58.0,160.0,390.0,1.0,0.0
1598,53.0,0.0,150.0,1.0,0.0
1599,56.0,128.0,150.0,1.0,0.0
1600,53.0,0.0,90.0,1.0,0.0
1601,56.0,94.0,90.0,1.0,0.0
1602,80.0,66.0,480.0,0.0,0.0
1603,51.0,98.0,90.0,1.0,0.0
1604,54.0,0.0,90.0,1.0,0.0
1605,54.0,0.0,90.0,1.0,0.0
1606,51.0,94.0,15.0,1.0,0.0
1607,48.0,96.0,90.0,1.0,0.0
1608,53.0,32.0,150.0,1.0,0.0
1609,49.0,0.0,150.0,1.0,0.0
1610,79.0,96.0,90.0,0.0,0.0
1611,80.0,94.0,90.0,0.0,0.0
1612,78.0,130.0,90.0,0.0,0.0
1613,77.0,0.0,480.0,0.0,0.0
1614,73.0,66.0,480.0,0.0,0.0
1615,37.0,96.0,30.0,1.0,0.0
1616,41.0,96.0,30.0,1.0,0.0
1617,44.0,158.0,30.0,1.0,0.0
1618,49.0,32.0,150.0,1.0,0.0
1619,76.0,96.0,90.0,0.0,0.0
1620,72.0,0.0,90.0,0.0,0.0
1621,73.0,0.0,90.0,0.0,0.0
1622,77.0,94.0,90.0,0.0,0.0
1623,75.0,0.0,90.0,0.0,0.0
1624,72.0,98.0,90.0,0.0,0.0
1625,70.0,0.0,90.0,0.0,0.0
1626,73.0,96.0,90.0,0.0,0.0
1627,41.0,0.0,480.0,1.0,0.0
1628,69.0,0.0,90.0,0.0,0.0
1629,72.0,96.0,90.0,0.0,0.0
1630,70.0,94.0,90.0,0.0,0.0
1631,73.0,0.0,90.0,0.0,0.0
1632,69.0,0.0,90.0,0.0,0.0
1633,72.0,98.0,90.0,0.0,0.0
1634,73.0,96.0,90.0,0.0,0.0
1635,70.0,32.0,270.0,0.0,0.0
1636,40.0,64.0,90.0,1.0,0.0
1637,72.0,0.0,90.0,0.0,0.0
1638,41.0,0.0,90.0,1.0,0.0
1639,73.0,94.0,90.0,0.0,0.0
1640,69.0,0.0,90.0,0.0,0.0
1641,72.0,0.0,90.0,0.0,0.0
1642,39.0,162.0,90.0,1.0,0.0
1643,70.0,32.0,150.0,0.0,0.0
1644,37.0,0.0,390.0,1.0,0.0
1645,71.0,144.0,180.0,0.0,0.0
1646,65.0,48.0,330.0,0.0,0.0
1647,70.0,144.0,180.0,0.0,0.0
1648,38.0,16.0,330.0,1.0,0.0
1649,65.0,80.0,150.0,0.0,0.0
1650,68.0,0.0,150.0,0.0,0.0
1651,39.0,112.0,60.0,1.0,0.0
1652,63.0,0.0,150.0,0.0,0.0
1653,67.0,272.0,150.0,0.0,0.0
1654,51.0,98.0,300.0,1.0,0.0
1655,63.0,46.0,60.0,0.0,0.0
1656,50.0,96.0,90.0,1.0,0.0
1657,75.0,2.0,300.0,0.0,0.0
1658,51.0,94.0,90.0,1.0,0.0
1659,49.0,96.0,90.0,1.0,0.0
1660,48.0,96.0,90.0,1.0,0.0
1661,74.0,96.0,90.0,0.0,0.0
1662,47.0,0.0,90.0,1.0,0.0
1663,48.0,0.0,90.0,1.0,0.0
1664,75.0,94.0,90.0,0.0,0.0
1665,46.0,0.0,90.0,1.0,0.0
1666,73.0,162.0,90.0,0.0,0.0
1667,44.0,0.0,180.0,1.0,0.0
1668,72.0,32.0,150.0,0.0,0.0
1669,74.0,96.0,90.0,0.0,0.0
1670,41.0,0.0,150.0,1.0,0.0
1671,75.0,64.0,90.0,0.0,0.0
1672,68.0,30.0,150.0,0.0,0.0
1673,74.0,50.0,90.0,0.0,0.0
1674,75.0,0.0,150.0,0.0,0.0
1675,67.0,272.0,150.0,0.0,0.0
1676,39.0,112.0,60.0,1.0,0.0
1677,51.0,98.0,300.0,1.0,0.0
1678,63.0,46.0,60.0,0.0,0.0
1679,50.0,96.0,90.0,1.0,0.0
1680,51.0,94.0,90.0,1.0,0.0
1681,75.0,2.0,300.0,0.0,0.0
1682,49.0,96.0,90.0,1.0,0.0
1683,47.0,96.0,90.0,1.0,0.0
1684,46.0,0.0,90.0,1.0,0.0
1685,74.0,96.0,90.0,0.0,0.0
1686,47.0,0.0,90.0,1.0,0.0
1687,75.0,94.0,90.0,0.0,0.0
1688,73.0,0.0,90.0,0.0,0.0
1689,46.0,162.0,90.0,1.0,0.0
1690,44.0,96.0,180.0,1.0,0.0
1691,71.0,32.0,150.0,0.0,0.0
1692,74.0,0.0,90.0,0.0,0.0
1693,68.0,30.0,150.0,0.0,0.0
1694,75.0,64.0,90.0,0.0,0.0
1695,52.0,0.0,150.0,1.0,0.0
1696,74.0,96.0,90.0,0.0,0.0
1697,75.0,0.0,90.0,0.0,0.0
1698,51.0,0.0,90.0,1.0,0.0
1699,67.0,192.0,90.0,0.0,0.0
1700,39.0,34.0,90.0,1.0,0.0
1701,73.0,32.0,180.0,0.0,0.0
1702,79.0,0.0,180.0,0.0,0.0
1703,51.0,64.0,30.0,1.0,0.0
1704,72.0,0.0,90.0,0.0,0.0
1705,80.0,34.0,90.0,0.0,0.0
1706,39.0,62.0,30.0,1.0,0.0
1707,51.0,96.0,30.0,1.0,0.0
1708,39.0,96.0,30.0,1.0,0.0
1709,72.0,0.0,180.0,0.0,0.0
1710,68.0,32.0,180.0,0.0,0.0
1711,51.0,64.0,30.0,1.0,0.0
1712,70.0,34.0,90.0,0.0,0.0
1713,39.0,62.0,30.0,1.0,0.0
1714,67.0,0.0,90.0,0.0,0.0
1715,51.0,96.0,30.0,1.0,0.0
1716,39.0,96.0,30.0,1.0,0.0
1717,73.0,32.0,180.0,0.0,0.0
1718,79.0,0.0,180.0,0.0,0.0
1719,51.0,64.0,30.0,1.0,0.0
1720,39.0,62.0,30.0,1.0,0.0
1721,72.0,0.0,90.0,0.0,0.0
1722,80.0,34.0,90.0,0.0,0.0
1723,51.0,96.0,30.0,1.0,0.0
1724,39.0,96.0,30.0,1.0,0.0
1725,68.0,48.0,180.0,0.0,0.0
1726,72.0,0.0,180.0,0.0,0.0
1727,51.0,64.0,30.0,1.0,0.0
1728,70.0,80.0,150.0,0.0,0.0
1729,67.0,0.0,150.0,0.0,0.0
1730,39.0,112.0,60.0,1.0,0.0
1731,75.0,0.0,60.0,0.0,0.0
1732,67.0,192.0,60.0,0.0,0.0
1733,51.0,0.0,60.0,1.0,0.0
1734,39.0,496.0,60.0,1.0,0.0
1735,75.0,0.0,60.0,0.0,0.0
1736,67.0,0.0,60.0,0.0,0.0
1737,68.0,160.0,150.0,0.0,0.0
1738,44.0,0.0,150.0,1.0,0.0
1739,39.0,0.0,30.0,1.0,0.0
1740,63.0,224.0,30.0,0.0,0.0
1741,44.0,0.0,150.0,1.0,0.0
1742,68.0,160.0,150.0,0.0,0.0
1743,39.0,96.0,30.0,1.0,0.0
1744,63.0,0.0,30.0,0.0,0.0
1745,44.0,96.0,30.0,1.0,0.0
1746,68.0,0.0,30.0,0.0,0.0
1747,72.0,0.0,30.0,0.0,0.0
1748,48.0,96.0,30.0,1.0,0.0
1749,75.0,0.0,30.0,0.0,0.0
1750,51.0,96.0,30.0,1.0,0.0
1751,48.0,0.0,30.0,1.0,0.0
1752,72.0,224.0,30.0,0.0,0.0
1753,44.0,0.0,150.0,1.0,0.0
1754,68.0,272.0,150.0,0.0,0.0
1755,63.0,0.0,60.0,0.0,0.0
1756,72.0,528.0,60.0,0.0,0.0
1757,65.0,0.0,390.0,0.0,0.0
1758,73.0,160.0,390.0,0.0,0.0
1759,63.0,128.0,150.0,0.0,0.0
1760,72.0,0.0,150.0,0.0,0.0
1761,72.0,64.0,90.0,0.0,0.0
1762,51.0,30.0,150.0,1.0,0.0
1763,63.0,0.0,90.0,0.0,0.0
1764,70.0,98.0,90.0,0.0,0.0
1765,61.0,0.0,90.0,0.0,0.0
1766,61.0,30.0,150.0,0.0,0.0
1767,70.0,64.0,90.0,0.0,0.0
1768,51.0,0.0,150.0,1.0,0.0
1769,67.0,34.0,90.0,0.0,0.0
1770,56.0,128.0,30.0,1.0,0.0
1771,60.0,0.0,150.0,0.0,0.0
1772,68.0,32.0,150.0,0.0,0.0
1773,44.0,96.0,90.0,1.0,0.0
1774,48.0,94.0,90.0,1.0,0.0
1775,51.0,50.0,90.0,1.0,0.0
1776,72.0,0.0,60.0,0.0,0.0
1777,75.0,112.0,60.0,0.0,0.0
1778,56.0,416.0,150.0,1.0,0.0
1779,77.0,0.0,390.0,0.0,0.0
1780,73.0,160.0,390.0,0.0,0.0
1781,72.0,0.0,150.0,0.0,0.0
1782,75.0,128.0,150.0,0.0,0.0
1783,72.0,0.0,90.0,0.0,0.0
1784,75.0,64.0,90.0,0.0,0.0
1785,51.0,30.0,150.0,1.0,0.0
1786,70.0,98.0,90.0,0.0,0.0
1787,73.0,0.0,90.0,0.0,0.0
1788,51.0,30.0,150.0,1.0,0.0
1789,73.0,64.0,90.0,0.0,0.0
1790,70.0,0.0,15.0,0.0,0.0
1791,67.0,34.0,90.0,0.0,0.0
1792,72.0,0.0,150.0,0.0,0.0
1793,68.0,32.0,150.0,0.0,0.0
1794,56.0,128.0,30.0,1.0,0.0
1795,44.0,96.0,90.0,1.0,0.0
1796,48.0,94.0,90.0,1.0,0.0
1797,51.0,34.0,90.0,1.0,0.0
1798,68.0,46.0,720.0,0.0,0.0
1799,80.0,94.0,90.0,0.0,0.0
1800,56.0,64.0,30.0,1.0,0.0
1801,48.0,32.0,90.0,1.0,0.0
1802,75.0,2.0,90.0,0.0,0.0
1803,75.0,62.0,30.0,0.0,0.0
1804,60.0,34.0,90.0,1.0,0.0
1805,75.0,0.0,30.0,0.0,0.0
1806,60.0,96.0,30.0,1.0,0.0
1807,75.0,32.0,300.0,0.0,0.0
1808,60.0,96.0,30.0,1.0,0.0
1809,60.0,96.0,30.0,1.0,0.0
1810,60.0,64.0,30.0,1.0,0.0
1811,76.0,98.0,90.0,0.0,0.0
1812,60.0,16.0,30.0,1.0,0.0
1813,77.0,94.0,90.0,0.0,0.0
1814,68.0,80.0,330.0,0.0,0.0
1815,70.0,2.0,90.0,0.0,0.0
1816,49.0,32.0,90.0,1.0,0.0
1817,61.0,34.0,90.0,1.0,0.0
1818,70.0,62.0,30.0,0.0,0.0
1819,61.0,0.0,30.0,1.0,0.0
1820,70.0,16.0,30.0,0.0,0.0
1821,61.0,96.0,30.0,1.0,0.0
1822,67.0,80.0,330.0,0.0,0.0
1823,70.0,0.0,330.0,0.0,0.0
1824,61.0,96.0,30.0,1.0,0.0
1825,61.0,96.0,30.0,1.0,0.0
1826,61.0,16.0,30.0,1.0,0.0
1827,75.0,0.0,150.0,0.0,0.0
1828,68.0,46.0,150.0,0.0,0.0
1829,60.0,112.0,30.0,1.0,0.0
1830,77.0,34.0,60.0,0.0,0.0
1831,73.0,0.0,150.0,0.0,0.0
1832,70.0,46.0,150.0,0.0,0.0
1833,61.0,112.0,30.0,1.0,0.0
1834,75.0,34.0,60.0,0.0,0.0
1835,72.0,0.0,150.0,0.0,0.0
1836,68.0,46.0,150.0,0.0,0.0
1837,63.0,112.0,30.0,1.0,0.0
1838,73.0,34.0,60.0,0.0,0.0
1839,67.0,0.0,150.0,0.0,0.0
1840,70.0,46.0,150.0,0.0,0.0
1841,51.0,112.0,30.0,1.0,0.0
1842,72.0,162.0,60.0,0.0,0.0
1843,56.0,0.0,150.0,1.0,0.0
1844,68.0,64.0,150.0,0.0,0.0
1845,60.0,96.0,30.0,1.0,0.0
1846,56.0,224.0,30.0,1.0,0.0
1847,53.0,64.0,150.0,1.0,0.0
1848,72.0,192.0,150.0,0.0,0.0
1849,56.0,96.0,30.0,1.0,0.0
1850,68.0,0.0,150.0,0.0,0.0
1851,53.0,32.0,30.0,1.0,0.0
1852,68.0,16.0,540.0,0.0,0.0
1853,49.0,32.0,150.0,1.0,0.0
1854,53.0,96.0,30.0,1.0,0.0
1855,70.0,32.0,15.0,0.0,0.0
1856,49.0,64.0,30.0,1.0,0.0
1857,51.0,32.0,150.0,1.0,0.0
1858,72.0,32.0,180.0,0.0,0.0
1859,70.0,192.0,150.0,0.0,0.0
1860,73.0,0.0,150.0,0.0,0.0
1861,55.0,96.0,30.0,1.0,0.0
1862,51.0,32.0,30.0,1.0,0.0
1863,73.0,0.0,180.0,0.0,0.0
1864,70.0,32.0,180.0,0.0,0.0
1865,56.0,32.0,150.0,1.0,0.0
1866,60.0,96.0,30.0,1.0,0.0
1867,72.0,0.0,150.0,0.0,0.0
1868,68.0,192.0,150.0,0.0,0.0
1869,56.0,32.0,30.0,1.0,0.0
1870,53.0,64.0,150.0,1.0,0.0
1871,80.0,0.0,60.0,0.0,0.0
1872,72.0,80.0,60.0,0.0,0.0
1873,56.0,16.0,30.0,1.0,0.0
1874,53.0,224.0,30.0,1.0,0.0
1875,70.0,0.0,180.0,0.0,0.0
1876,77.0,32.0,180.0,0.0,0.0
1877,49.0,32.0,150.0,1.0,0.0
1878,73.0,0.0,180.0,0.0,0.0
1879,68.0,160.0,180.0,0.0,0.0
1880,53.0,96.0,30.0,1.0,0.0
1881,49.0,64.0,30.0,1.0,0.0
1882,51.0,32.0,150.0,1.0,0.0
1883,67.0,0.0,180.0,0.0,0.0
1884,55.0,96.0,30.0,1.0,0.0
1885,70.0,32.0,15.0,0.0,0.0
1886,75.0,192.0,150.0,0.0,0.0
1887,51.0,32.0,30.0,1.0,0.0
1888,56.0,128.0,150.0,1.0,0.0
1889,68.0,0.0,150.0,0.0,0.0
1890,72.0,94.0,90.0,0.0,0.0
1891,68.0,162.0,90.0,0.0,0.0
1892,49.0,128.0,150.0,1.0,0.0
1893,65.0,0.0,150.0,0.0,0.0
1894,68.0,0.0,90.0,0.0,0.0
1895,53.0,94.0,90.0,1.0,0.0
1896,65.0,0.0,90.0,0.0,0.0
1897,49.0,162.0,90.0,1.0,0.0
1898,70.0,128.0,150.0,0.0,0.0
1899,46.0,0.0,150.0,1.0,0.0
1900,73.0,94.0,90.0,0.0,0.0
1901,70.0,162.0,90.0,0.0,0.0
1902,67.0,128.0,150.0,0.0,0.0
1903,51.0,0.0,150.0,1.0,0.0
1904,55.0,94.0,90.0,1.0,0.0
1905,70.0,0.0,90.0,0.0,0.0
1906,67.0,0.0,90.0,0.0,0.0
1907,51.0,162.0,90.0,1.0,0.0
1908,72.0,0.0,150.0,0.0,0.0
1909,48.0,128.0,150.0,1.0,0.0
1910,75.0,94.0,90.0,0.0,0.0
1911,72.0,162.0,90.0,0.0,0.0
1912,68.0,0.0,150.0,0.0,0.0
1913,53.0,128.0,150.0,1.0,0.0
1914,72.0,94.0,90.0,0.0,0.0
1915,56.0,0.0,90.0,1.0,0.0
1916,53.0,162.0,90.0,1.0,0.0
1917,68.0,0.0,90.0,0.0,0.0
1918,73.0,128.0,150.0,0.0,0.0
1919,49.0,0.0,150.0,1.0,0.0
1920,77.0,94.0,90.0,0.0,0.0
1921,73.0,162.0,90.0,0.0,0.0
1922,70.0,0.0,150.0,0.0,0.0
1923,46.0,128.0,150.0,1.0,0.0
1924,49.0,94.0,90.0,1.0,0.0
1925,73.0,0.0,90.0,0.0,0.0
1926,70.0,0.0,90.0,0.0,0.0
1927,46.0,98.0,90.0,1.0,0.0
1928,67.0,0.0,90.0,0.0,0.0
1929,43.0,96.0,90.0,1.0,0.0
1930,63.0,96.0,90.0,0.0,0.0
1931,39.0,0.0,90.0,1.0,0.0
1932,41.0,0.0,90.0,1.0,0.0
1933,65.0,94.0,90.0,0.0,0.0
1934,43.0,0.0,90.0,1.0,0.0
1935,67.0,98.0,90.0,0.0,0.0
1936,44.0,0.0,90.0,1.0,0.0
1937,68.0,96.0,90.0,0.0,0.0
1938,43.0,0.0,90.0,1.0,0.0
1939,67.0,96.0,90.0,0.0,0.0
1940,68.0,94.0,90.0,0.0,0.0
1941,44.0,0.0,90.0,1.0,0.0
1942,46.0,0.0,90.0,1.0,0.0
1943,70.0,98.0,90.0,0.0,0.0
1944,48.0,32.0,150.0,1.0,0.0
1945,72.0,64.0,90.0,0.0,0.0
1946,70.0,96.0,90.0,0.0,0.0
1947,68.0,0.0,90.0,0.0,0.0
1948,44.0,94.0,90.0,1.0,0.0
1949,46.0,96.0,90.0,1.0,0.0
1950,70.0,2.0,90.0,0.0,0.0
1951,72.0,96.0,90.0,0.0,0.0
1952,48.0,0.0,90.0,1.0,0.0
1953,46.0,96.0,90.0,1.0,0.0
1954,70.0,0.0,90.0,0.0,0.0
1955,72.0,0.0,90.0,0.0,0.0
1956,48.0,94.0,90.0,1.0,0.0
1957,50.0,0.0,90.0,1.0,0.0
1958,74.0,96.0,90.0,0.0,0.0
1959,51.0,94.0,90.0,1.0,0.0
1960,75.0,2.0,90.0,0.0,0.0
1961,55.0,34.0,90.0,1.0,0.0
1962,70.0,0.0,180.0,0.0,0.0
1963,58.0,96.0,30.0,1.0,0.0
1964,79.0,94.0,180.0,0.0,0.0
1965,63.0,64.0,30.0,1.0,0.0
1966,80.0,0.0,90.0,0.0,0.0
1967,72.0,2.0,90.0,0.0,0.0
1968,60.0,94.0,90.0,1.0,0.0
1969,63.0,34.0,90.0,1.0,0.0
1970,60.0,96.0,30.0,1.0,0.0
1971,72.0,0.0,30.0,0.0,0.0
1972,68.0,0.0,30.0,0.0,0.0
1973,56.0,96.0,30.0,1.0,0.0
1974,55.0,94.0,90.0,1.0,0.0
1975,70.0,64.0,30.0,0.0,0.0
1976,75.0,0.0,30.0,0.0,0.0
1977,58.0,34.0,90.0,1.0,0.0
1978,55.0,96.0,30.0,1.0,0.0
1979,70.0,0.0,180.0,0.0,0.0
1980,79.0,94.0,180.0,0.0,0.0
1981,51.0,64.0,30.0,1.0,0.0
1982,48.0,94.0,90.0,1.0,0.0
1983,80.0,0.0,90.0,0.0,0.0
1984,72.0,2.0,90.0,0.0,0.0
1985,51.0,34.0,90.0,1.0,0.0
1986,48.0,0.0,30.0,1.0,0.0
1987,68.0,96.0,30.0,0.0,0.0
1988,72.0,0.0,30.0,0.0,0.0
1989,44.0,112.0,30.0,1.0,0.0
1990,51.0,0.0,60.0,1.0,0.0
1991,70.0,0.0,60.0,0.0,0.0
1992,67.0,192.0,60.0,0.0,0.0
1993,51.0,0.0,60.0,1.0,0.0
1994,75.0,0.0,60.0,0.0,0.0
1995,67.0,192.0,60.0,0.0,0.0
1996,51.0,0.0,60.0,1.0,0.0
1997,67.0,720.0,60.0,0.0,0.0
1998,75.0,0.0,60.0,0.0,0.0
1999,75.0,336.0,390.0,0.0,0.0
2000,74.0,48.0,330.0,0.0,0.0
2001,80.0,0.0,330.0,0.0,0.0
2002,53.0,32.0,390.0,1.0,0.0
2003,79.0,96.0,90.0,0.0,0.0
2004,75.0,0.0,90.0,0.0,0.0
2005,51.0,64.0,30.0,1.0,0.0
2006,82.0,32.0,90.0,0.0,0.0
2007,46.0,64.0,30.0,1.0,0.0
2008,74.0,96.0,90.0,0.0,0.0
2009,80.0,0.0,90.0,0.0,0.0
2010,77.0,32.0,90.0,0.0,0.0
2011,75.0,64.0,150.0,0.0,0.0
2012,43.0,128.0,30.0,1.0,0.0
2013,39.0,544.0,30.0,1.0,0.0
2014,63.0,336.0,390.0,0.0,0.0
2015,55.0,32.0,390.0,1.0,0.0
2016,73.0,0.0,330.0,0.0,0.0
2017,70.0,48.0,330.0,0.0,0.0
2018,68.0,96.0,90.0,0.0,0.0
2019,72.0,0.0,90.0,0.0,0.0
2020,56.0,64.0,30.0,1.0,0.0
2021,75.0,32.0,90.0,0.0,0.0
2022,67.0,96.0,90.0,0.0,0.0
2023,73.0,0.0,90.0,0.0,0.0
2024,51.0,64.0,30.0,1.0,0.0
2025,70.0,32.0,90.0,0.0,0.0
2026,68.0,64.0,150.0,0.0,0.0
2027,48.0,128.0,30.0,1.0,0.0
2028,44.0,256.0,30.0,1.0,0.0
2029,70.0,96.0,90.0,0.0,0.0
2030,69.0,96.0,90.0,0.0,0.0
2031,70.0,94.0,90.0,0.0,0.0
2032,72.0,98.0,90.0,0.0,0.0
2033,73.0,96.0,90.0,0.0,0.0
2034,49.0,96.0,780.0,1.0,0.0
2035,58.0,0.0,780.0,1.0,0.0
2036,72.0,96.0,90.0,0.0,0.0
2037,73.0,94.0,90.0,0.0,0.0
2038,75.0,98.0,90.0,0.0,0.0
2039,76.0,96.0,90.0,0.0,0.0
2040,77.0,96.0,90.0,0.0,0.0
2041,78.0,94.0,90.0,0.0,0.0
2042,79.0,2.0,90.0,0.0,0.0
2043,56.0,0.0,150.0,1.0,0.0
2044,48.0,32.0,150.0,1.0,0.0
2045,80.0,64.0,90.0,0.0,0.0
2046,75.0,96.0,90.0,0.0,0.0
2047,73.0,94.0,90.0,0.0,0.0
2048,72.0,50.0,90.0,0.0,0.0
2049,70.0,96.0,90.0,0.0,0.0
2050,49.0,48.0,60.0,1.0,0.0
2051,69.0,48.0,90.0,0.0,0.0
2052,37.0,48.0,60.0,1.0,0.0
2053,70.0,94.0,90.0,0.0,0.0
2054,72.0,98.0,90.0,0.0,0.0
2055,58.0,46.0,720.0,1.0,0.0
2056,73.0,96.0,90.0,0.0,0.0
2057,49.0,0.0,720.0,1.0,0.0
2058,72.0,96.0,90.0,0.0,0.0
2059,73.0,94.0,90.0,0.0,0.0
2060,75.0,98.0,90.0,0.0,0.0
2061,77.0,96.0,90.0,0.0,0.0
2062,76.0,96.0,90.0,0.0,0.0
2063,77.0,48.0,90.0,0.0,0.0
2064,79.0,98.0,90.0,0.0,0.0
2065,80.0,0.0,90.0,0.0,0.0
2066,48.0,96.0,90.0,1.0,0.0
2067,75.0,0.0,90.0,0.0,0.0
2068,60.0,96.0,90.0,1.0,0.0
2069,58.0,0.0,90.0,1.0,0.0
2070,73.0,94.0,90.0,0.0,0.0
2071,72.0,98.0,90.0,0.0,0.0
2072,56.0,0.0,90.0,1.0,0.0
2073,49.0,0.0,180.0,1.0,0.0
2074,53.0,96.0,180.0,1.0,0.0
2075,72.0,96.0,90.0,0.0,0.0
2076,70.0,0.0,90.0,0.0,0.0
2077,77.0,64.0,90.0,0.0,0.0
2078,46.0,30.0,150.0,1.0,0.0
2079,73.0,50.0,90.0,0.0,0.0
2080,51.0,48.0,60.0,1.0,0.0
2081,72.0,96.0,90.0,0.0,0.0
2082,75.0,48.0,90.0,0.0,0.0
2083,39.0,48.0,60.0,1.0,0.0
2084,73.0,94.0,90.0,0.0,0.0
2085,70.0,162.0,90.0,0.0,0.0
2086,44.0,0.0,150.0,1.0,0.0
2087,68.0,160.0,150.0,0.0,0.0
2088,72.0,96.0,30.0,0.0,0.0
2089,63.0,0.0,30.0,0.0,0.0
2090,44.0,0.0,30.0,1.0,0.0
2091,72.0,0.0,30.0,0.0,0.0
2092,44.0,0.0,30.0,1.0,0.0
2093,63.0,96.0,30.0,0.0,0.0
2094,72.0,96.0,30.0,0.0,0.0
2095,63.0,0.0,30.0,0.0,0.0
2096,44.0,0.0,30.0,1.0,0.0
2097,63.0,96.0,30.0,0.0,0.0
2098,72.0,0.0,30.0,0.0,0.0
2099,44.0,0.0,30.0,1.0,0.0
2100,44.0,0.0,30.0,1.0,0.0
2101,72.0,0.0,30.0,0.0,0.0
2102,63.0,160.0,30.0,0.0,0.0
2103,43.0,32.0,150.0,1.0,0.0
2104,63.0,0.0,90.0,0.0,0.0
2105,75.0,64.0,90.0,0.0,0.0
2106,74.0,94.0,90.0,0.0,0.0
2107,73.0,34.0,90.0,0.0,0.0
2108,79.0,96.0,30.0,0.0,0.0
2109,51.0,0.0,30.0,1.0,0.0
2110,79.0,96.0,30.0,0.0,0.0
2111,73.0,0.0,30.0,0.0,0.0
2112,73.0,0.0,30.0,0.0,0.0
2113,79.0,0.0,30.0,0.0,0.0
2114,51.0,96.0,30.0,1.0,0.0
2115,51.0,0.0,30.0,1.0,0.0
2116,79.0,0.0,30.0,0.0,0.0
2117,73.0,96.0,30.0,0.0,0.0
2118,51.0,0.0,30.0,1.0,0.0
2119,79.0,0.0,30.0,0.0,0.0
2120,73.0,160.0,30.0,0.0,0.0
2121,72.0,32.0,150.0,0.0,0.0
2122,44.0,0.0,150.0,1.0,0.0
2123,79.0,64.0,90.0,0.0,0.0
2124,80.0,94.0,90.0,0.0,0.0
2125,75.0,34.0,90.0,0.0,0.0
2126,72.0,0.0,30.0,0.0,0.0
2127,63.0,96.0,30.0,0.0,0.0
2128,44.0,0.0,30.0,1.0,0.0
2129,44.0,96.0,30.0,1.0,0.0
2130,63.0,0.0,30.0,0.0,0.0
2131,72.0,0.0,30.0,0.0,0.0
2132,44.0,0.0,30.0,1.0,0.0
2133,63.0,96.0,30.0,0.0,0.0
2134,72.0,0.0,30.0,0.0,0.0
2135,44.0,96.0,30.0,1.0,0.0
2136,63.0,0.0,30.0,0.0,0.0
2137,72.0,0.0,30.0,0.0,0.0
2138,44.0,0.0,30.0,1.0,0.0
2139,63.0,0.0,30.0,0.0,0.0
2140,72.0,158.0,30.0,0.0,0.0
2141,43.0,30.0,150.0,1.0,0.0
2142,75.0,66.0,90.0,0.0,0.0
2143,63.0,0.0,90.0,0.0,0.0
2144,74.0,96.0,90.0,0.0,0.0
2145,73.0,34.0,90.0,0.0,0.0
2146,70.0,96.0,30.0,0.0,0.0
2147,61.0,0.0,30.0,1.0,0.0
2148,67.0,96.0,30.0,0.0,0.0
2149,51.0,0.0,30.0,1.0,0.0
2150,61.0,0.0,30.0,1.0,0.0
2151,51.0,96.0,30.0,1.0,0.0
2152,67.0,0.0,30.0,0.0,0.0
2153,61.0,0.0,30.0,1.0,0.0
2154,51.0,96.0,30.0,1.0,0.0
2155,67.0,0.0,30.0,0.0,0.0
2156,67.0,0.0,30.0,0.0,0.0
2157,61.0,0.0,30.0,1.0,0.0
2158,51.0,96.0,30.0,1.0,0.0
2159,56.0,64.0,30.0,1.0,0.0
2160,60.0,0.0,90.0,0.0,0.0
2161,68.0,96.0,90.0,0.0,0.0
2162,72.0,32.0,90.0,0.0,0.0
2163,70.0,0.0,90.0,0.0,0.0
2164,51.0,64.0,30.0,1.0,0.0
2165,61.0,94.0,90.0,0.0,0.0
2166,67.0,34.0,90.0,0.0,0.0
2167,56.0,64.0,30.0,1.0,0.0
2168,60.0,0.0,90.0,0.0,0.0
2169,68.0,96.0,90.0,0.0,0.0
2170,72.0,32.0,90.0,0.0,0.0
2171,70.0,0.0,90.0,0.0,0.0
2172,61.0,94.0,90.0,0.0,0.0
2173,51.0,64.0,30.0,1.0,0.0
2174,67.0,34.0,90.0,0.0,0.0
2175,44.0,0.0,30.0,1.0,0.0
2176,68.0,192.0,30.0,0.0,0.0
2177,60.0,0.0,30.0,0.0,0.0
2178,56.0,192.0,30.0,1.0,0.0
2179,63.0,0.0,30.0,0.0,0.0
2180,72.0,0.0,30.0,0.0,0.0
2181,44.0,0.0,30.0,1.0,0.0
2182,60.0,0.0,30.0,0.0,0.0
2183,68.0,0.0,30.0,0.0,0.0
