,note,step,duration,channel,velocity
0,51.0,0.0,240.0,10.0,64.0
1,54.0,72.0,390.0,12.0,64.0
2,47.0,0.0,120.0,13.0,64.0
3,59.0,0.0,240.0,10.0,64.0
4,51.0,0.0,240.0,11.0,64.0
5,59.0,0.0,240.0,11.0,64.0
6,35.0,120.0,120.0,14.0,64.0
7,54.0,96.0,120.0,13.0,64.0
8,42.0,0.0,120.0,14.0,64.0
9,54.0,24.0,90.0,10.0,64.0
10,51.0,0.0,120.0,13.0,64.0
11,54.0,0.0,90.0,11.0,64.0
12,39.0,24.0,120.0,14.0,64.0
13,47.0,126.0,120.0,13.0,64.0
14,35.0,0.0,120.0,14.0,64.0
15,63.0,18.0,30.0,10.0,64.0
16,59.0,0.0,30.0,11.0,64.0
17,59.0,0.0,240.0,11.0,64.0
18,30.0,120.0,120.0,14.0,64.0
19,54.0,72.0,1080.0,12.0,64.0
20,42.0,0.0,120.0,13.0,64.0
21,63.0,96.0,240.0,10.0,64.0
22,54.0,0.0,120.0,13.0,64.0
23,42.0,0.0,120.0,14.0,64.0
24,40.0,0.0,120.0,14.0,64.0
25,58.0,24.0,90.0,11.0,64.0
26,52.0,114.0,120.0,13.0,64.0
27,61.0,0.0,90.0,10.0,64.0
28,37.0,0.0,120.0,14.0,64.0
29,49.0,126.0,120.0,13.0,64.0
30,66.0,30.0,180.0,10.0,64.0
31,39.0,0.0,120.0,14.0,64.0
32,51.0,60.0,120.0,13.0,64.0
33,59.0,0.0,120.0,11.0,64.0
34,64.0,0.0,120.0,11.0,64.0
35,49.0,0.0,120.0,13.0,64.0
36,37.0,0.0,120.0,14.0,64.0
37,68.0,30.0,30.0,10.0,64.0
38,70.0,96.0,30.0,10.0,64.0
39,47.0,96.0,120.0,13.0,64.0
40,35.0,0.0,120.0,14.0,64.0
41,63.0,24.0,90.0,11.0,64.0
42,71.0,0.0,90.0,10.0,64.0
43,39.0,126.0,120.0,14.0,64.0
44,51.0,0.0,120.0,13.0,64.0
45,59.0,0.0,30.0,10.0,64.0
46,59.0,18.0,30.0,11.0,64.0
47,59.0,42.0,180.0,11.0,64.0
48,54.0,0.0,120.0,13.0,64.0
49,63.0,0.0,240.0,10.0,64.0
50,42.0,0.0,120.0,14.0,64.0
51,53.0,0.0,120.0,13.0,64.0
52,41.0,96.0,120.0,14.0,64.0
53,53.0,6.0,120.0,12.0,64.0
54,54.0,0.0,120.0,13.0,64.0
55,61.0,24.0,90.0,10.0,64.0
56,54.0,12.0,690.0,12.0,64.0
57,58.0,0.0,90.0,11.0,64.0
58,42.0,114.0,120.0,14.0,64.0
59,52.0,0.0,120.0,13.0,64.0
60,40.0,126.0,120.0,14.0,64.0
61,66.0,30.0,180.0,10.0,64.0
62,51.0,60.0,120.0,13.0,64.0
63,59.0,0.0,120.0,11.0,64.0
64,39.0,0.0,120.0,14.0,64.0
65,37.0,0.0,120.0,14.0,64.0
66,64.0,0.0,120.0,11.0,64.0
67,49.0,0.0,120.0,13.0,64.0
68,68.0,30.0,30.0,10.0,64.0
69,70.0,96.0,30.0,10.0,64.0
70,71.0,24.0,90.0,10.0,64.0
71,63.0,0.0,90.0,11.0,64.0
72,47.0,96.0,120.0,13.0,64.0
73,35.0,0.0,120.0,14.0,64.0
74,59.0,0.0,210.0,11.0,64.0
75,45.0,0.0,120.0,13.0,64.0
76,33.0,96.0,120.0,14.0,64.0
77,63.0,12.0,60.0,10.0,64.0
78,64.0,24.0,90.0,10.0,64.0
79,44.0,15.0,120.0,13.0,64.0
80,32.0,0.0,120.0,14.0,64.0
81,59.0,0.0,120.0,12.0,64.0
82,68.0,15.0,15.0,10.0,64.0
83,30.0,0.0,120.0,14.0,64.0
84,42.0,0.0,120.0,13.0,64.0
85,64.0,0.0,15.0,11.0,64.0
86,57.0,96.0,120.0,12.0,64.0
87,63.0,0.0,15.0,11.0,64.0
88,66.0,15.0,15.0,10.0,64.0
89,64.0,15.0,15.0,11.0,64.0
90,68.0,0.0,15.0,10.0,64.0
91,63.0,30.0,15.0,11.0,64.0
92,66.0,0.0,15.0,10.0,64.0
93,68.0,0.0,30.0,10.0,64.0
94,64.0,30.0,30.0,11.0,64.0
95,66.0,0.0,30.0,10.0,64.0
96,63.0,0.0,30.0,11.0,64.0
97,68.0,0.0,90.0,10.0,64.0
98,64.0,0.0,90.0,11.0,64.0
99,40.0,0.0,120.0,13.0,64.0
100,56.0,24.0,90.0,12.0,64.0
101,28.0,114.0,120.0,14.0,64.0
102,42.0,126.0,120.0,13.0,64.0
103,66.0,0.0,240.0,10.0,64.0
104,30.0,0.0,120.0,14.0,64.0
105,63.0,120.0,240.0,11.0,64.0
106,32.0,0.0,120.0,14.0,64.0
107,44.0,0.0,120.0,13.0,64.0
108,61.0,0.0,240.0,11.0,64.0
109,64.0,0.0,240.0,10.0,64.0
110,34.0,120.0,120.0,14.0,64.0
111,46.0,0.0,120.0,13.0,64.0
112,35.0,0.0,120.0,14.0,64.0
113,47.0,114.0,120.0,13.0,64.0
114,63.0,0.0,120.0,10.0,64.0
115,29.0,0.0,120.0,14.0,64.0
116,59.0,6.0,120.0,11.0,64.0
117,41.0,96.0,120.0,13.0,64.0
118,63.0,30.0,120.0,11.0,64.0
119,42.0,24.0,90.0,13.0,64.0
120,30.0,0.0,90.0,14.0,64.0
121,66.0,0.0,120.0,10.0,64.0
122,42.0,30.0,240.0,14.0,64.0
123,61.0,30.0,30.0,11.0,64.0
124,54.0,0.0,240.0,13.0,64.0
125,64.0,0.0,30.0,10.0,64.0
126,63.0,30.0,30.0,10.0,64.0
127,59.0,0.0,30.0,11.0,64.0
128,58.0,30.0,30.0,11.0,64.0
129,61.0,0.0,30.0,10.0,64.0
130,59.0,96.0,30.0,11.0,64.0
131,63.0,0.0,30.0,10.0,64.0
132,58.0,0.0,90.0,11.0,64.0
133,61.0,24.0,90.0,10.0,64.0
134,40.0,0.0,30.0,14.0,64.0
135,52.0,30.0,30.0,13.0,64.0
136,51.0,30.0,30.0,13.0,64.0
137,39.0,0.0,30.0,14.0,64.0
138,40.0,24.0,30.0,14.0,64.0
139,52.0,0.0,30.0,13.0,64.0
140,37.0,0.0,20.0,14.0,64.0
141,49.0,126.0,20.0,13.0,64.0
142,47.0,120.0,120.0,13.0,64.0
143,35.0,0.0,120.0,14.0,64.0
144,59.0,0.0,240.0,10.0,64.0
145,51.0,0.0,240.0,10.0,64.0
146,51.0,0.0,240.0,11.0,64.0
147,54.0,0.0,600.0,12.0,64.0
148,59.0,0.0,240.0,11.0,64.0
149,42.0,96.0,120.0,14.0,64.0
150,54.0,0.0,120.0,13.0,64.0
151,54.0,0.0,90.0,10.0,64.0
152,51.0,0.0,120.0,13.0,64.0
153,39.0,96.0,120.0,14.0,64.0
154,54.0,24.0,90.0,11.0,64.0
155,47.0,0.0,120.0,13.0,64.0
156,35.0,126.0,120.0,14.0,64.0
157,59.0,0.0,30.0,11.0,64.0
158,63.0,18.0,30.0,10.0,64.0
159,30.0,114.0,120.0,14.0,64.0
160,63.0,96.0,240.0,10.0,64.0
161,42.0,0.0,120.0,13.0,64.0
162,59.0,0.0,240.0,11.0,64.0
163,53.0,6.0,120.0,12.0,64.0
164,41.0,0.0,120.0,13.0,64.0
165,29.0,0.0,120.0,14.0,64.0
166,58.0,0.0,90.0,11.0,64.0
167,54.0,0.0,600.0,12.0,64.0
168,61.0,24.0,90.0,10.0,64.0
169,42.0,114.0,120.0,13.0,64.0
170,30.0,0.0,120.0,14.0,64.0
171,40.0,0.0,120.0,13.0,64.0
172,28.0,126.0,120.0,14.0,64.0
173,39.0,60.0,120.0,13.0,64.0
174,27.0,0.0,120.0,14.0,64.0
175,59.0,0.0,120.0,11.0,64.0
176,66.0,30.0,180.0,10.0,64.0
177,39.0,0.0,120.0,14.0,64.0
178,54.0,0.0,120.0,11.0,64.0
179,51.0,96.0,120.0,13.0,64.0
180,68.0,30.0,30.0,10.0,64.0
181,70.0,0.0,30.0,10.0,64.0
182,71.0,0.0,90.0,10.0,64.0
183,35.0,0.0,120.0,14.0,64.0
184,47.0,96.0,120.0,13.0,64.0
185,51.0,24.0,90.0,11.0,64.0
186,53.0,0.0,90.0,12.0,64.0
187,44.0,126.0,120.0,13.0,64.0
188,32.0,0.0,120.0,14.0,64.0
189,59.0,0.0,30.0,10.0,64.0
190,59.0,18.0,30.0,11.0,64.0
191,42.0,120.0,120.0,13.0,64.0
192,63.0,0.0,240.0,10.0,64.0
193,54.0,0.0,240.0,12.0,64.0
194,59.0,0.0,360.0,11.0,64.0
195,30.0,0.0,120.0,14.0,64.0
196,54.0,0.0,120.0,13.0,64.0
197,42.0,96.0,120.0,14.0,64.0
198,53.0,96.0,120.0,13.0,64.0
199,56.0,24.0,90.0,12.0,64.0
200,41.0,0.0,120.0,14.0,64.0
201,61.0,0.0,90.0,10.0,64.0
202,54.0,0.0,90.0,12.0,64.0
203,58.0,18.0,90.0,11.0,64.0
204,40.0,126.0,120.0,14.0,64.0
205,52.0,0.0,120.0,13.0,64.0
206,39.0,0.0,120.0,14.0,64.0
207,54.0,12.0,450.0,12.0,64.0
208,66.0,30.0,180.0,10.0,64.0
209,51.0,60.0,120.0,13.0,64.0
210,59.0,0.0,120.0,11.0,64.0
211,64.0,0.0,120.0,11.0,64.0
212,37.0,96.0,120.0,14.0,64.0
213,49.0,0.0,120.0,13.0,64.0
214,68.0,30.0,30.0,10.0,64.0
215,70.0,0.0,30.0,10.0,64.0
216,47.0,96.0,120.0,13.0,64.0
217,35.0,0.0,120.0,14.0,64.0
218,71.0,24.0,90.0,10.0,64.0
219,63.0,0.0,90.0,11.0,64.0
220,33.0,0.0,120.0,14.0,64.0
221,45.0,66.0,120.0,13.0,64.0
222,59.0,6.0,180.0,11.0,64.0
223,63.0,12.0,60.0,10.0,64.0
224,59.0,0.0,60.0,12.0,64.0
225,32.0,0.0,60.0,14.0,64.0
226,64.0,0.0,60.0,10.0,64.0
227,44.0,63.0,60.0,13.0,64.0
228,30.0,3.0,60.0,14.0,64.0
229,57.0,6.0,60.0,12.0,64.0
230,64.0,15.0,15.0,11.0,64.0
231,42.0,0.0,60.0,13.0,64.0
232,68.0,0.0,15.0,10.0,64.0
233,66.0,0.0,15.0,10.0,64.0
234,63.0,15.0,15.0,11.0,64.0
235,68.0,15.0,15.0,10.0,64.0
236,64.0,0.0,15.0,11.0,64.0
237,63.0,0.0,15.0,11.0,64.0
238,66.0,6.0,15.0,10.0,64.0
239,64.0,15.0,15.0,11.0,64.0
240,68.0,0.0,15.0,10.0,64.0
241,63.0,96.0,15.0,11.0,64.0
242,66.0,0.0,15.0,10.0,64.0
243,28.0,0.0,60.0,14.0,64.0
244,68.0,6.0,60.0,10.0,64.0
245,40.0,228.0,60.0,13.0,64.0
246,64.0,0.0,60.0,11.0,64.0
247,56.0,0.0,60.0,12.0,64.0
248,68.0,27.0,60.0,10.0,64.0
249,71.0,93.0,30.0,10.0,64.0
250,61.0,6.0,60.0,10.0,64.0
251,40.0,0.0,60.0,14.0,64.0
252,56.0,60.0,120.0,11.0,64.0
253,52.0,21.0,60.0,13.0,64.0
254,52.0,0.0,120.0,12.0,64.0
255,64.0,33.0,30.0,10.0,64.0
256,54.0,21.0,60.0,13.0,64.0
257,51.0,0.0,120.0,12.0,64.0
258,54.0,60.0,120.0,11.0,64.0
259,42.0,0.0,60.0,14.0,64.0
260,63.0,6.0,60.0,10.0,64.0
261,66.0,33.0,30.0,10.0,64.0
262,58.0,6.0,60.0,10.0,64.0
263,42.0,0.0,60.0,13.0,64.0
264,49.0,0.0,120.0,12.0,64.0
265,52.0,72.0,120.0,11.0,64.0
266,30.0,21.0,60.0,14.0,64.0
267,61.0,33.0,30.0,10.0,64.0
268,47.0,24.0,60.0,12.0,64.0
269,35.0,144.0,90.0,14.0,64.0
270,47.0,0.0,90.0,13.0,64.0
271,51.0,0.0,60.0,11.0,64.0
272,59.0,0.0,60.0,10.0,64.0
273,51.0,48.0,180.0,12.0,64.0
274,39.0,72.0,120.0,1.0,64.0
275,54.0,0.0,180.0,11.0,64.0
276,27.0,0.0,120.0,14.0,64.0
277,39.0,0.0,120.0,13.0,64.0
278,54.0,0.0,180.0,10.0,64.0
279,42.0,12.0,120.0,13.0,64.0
280,30.0,0.0,120.0,14.0,64.0
281,42.0,0.0,120.0,1.0,64.0
282,54.0,0.0,15.0,10.0,64.0
283,51.0,3.0,15.0,12.0,64.0
284,46.0,0.0,120.0,1.0,64.0
285,54.0,15.0,15.0,11.0,64.0
286,46.0,0.0,120.0,13.0,64.0
287,34.0,30.0,120.0,14.0,64.0
288,52.0,0.0,15.0,10.0,64.0
289,49.0,0.0,15.0,12.0,64.0
290,52.0,15.0,15.0,11.0,64.0
291,51.0,0.0,15.0,12.0,64.0
292,54.0,0.0,15.0,10.0,64.0
293,54.0,15.0,15.0,11.0,64.0
294,52.0,15.0,15.0,10.0,64.0
295,52.0,0.0,15.0,11.0,64.0
296,49.0,0.0,15.0,12.0,64.0
297,54.0,0.0,15.0,11.0,64.0
298,54.0,0.0,15.0,10.0,64.0
299,51.0,15.0,15.0,12.0,64.0
300,52.0,0.0,15.0,10.0,64.0
301,52.0,15.0,15.0,11.0,64.0
302,49.0,0.0,15.0,12.0,64.0
303,51.0,0.0,15.0,10.0,64.0
304,51.0,12.0,15.0,11.0,64.0
305,47.0,0.0,15.0,12.0,64.0
306,49.0,3.0,15.0,12.0,64.0
307,52.0,0.0,15.0,10.0,64.0
308,52.0,0.0,15.0,11.0,64.0
309,47.0,0.0,90.0,12.0,64.0
310,35.0,0.0,90.0,14.0,64.0
311,51.0,0.0,30.0,10.0,64.0
312,51.0,30.0,30.0,11.0,64.0
313,47.0,0.0,90.0,1.0,64.0
314,47.0,18.0,90.0,13.0,64.0
315,54.0,0.0,30.0,10.0,64.0
316,54.0,30.0,30.0,11.0,64.0
317,59.0,0.0,30.0,11.0,64.0
318,59.0,6.0,30.0,10.0,64.0
319,63.0,0.0,20.0,10.0,64.0
320,63.0,126.0,20.0,11.0,64.0
321,51.0,0.0,120.0,13.0,64.0
322,59.0,0.0,180.0,2.0,64.0
323,63.0,0.0,180.0,2.0,64.0
324,66.0,24.0,180.0,10.0,64.0
325,66.0,0.0,180.0,11.0,64.0
326,54.0,0.0,180.0,12.0,64.0
327,51.0,72.0,120.0,1.0,64.0
328,39.0,0.0,120.0,14.0,64.0
329,78.0,96.0,240.0,0.0,64.0
330,75.0,0.0,240.0,0.0,64.0
331,54.0,0.0,90.0,13.0,64.0
332,42.0,24.0,90.0,14.0,64.0
333,54.0,0.0,90.0,1.0,64.0
334,54.0,0.0,90.0,12.0,64.0
335,73.0,0.0,90.0,0.0,64.0
336,76.0,0.0,90.0,0.0,64.0
337,58.0,90.0,90.0,10.0,64.0
338,42.0,0.0,90.0,1.0,64.0
339,30.0,0.0,90.0,14.0,64.0
340,52.0,0.0,90.0,11.0,64.0
341,61.0,0.0,90.0,2.0,64.0
342,54.0,0.0,90.0,2.0,64.0
343,42.0,0.0,90.0,13.0,64.0
344,47.0,0.0,60.0,1.0,64.0
345,35.0,120.0,60.0,14.0,64.0
346,76.0,0.0,240.0,0.0,64.0
347,54.0,18.0,300.0,12.0,64.0
348,73.0,0.0,240.0,0.0,64.0
349,47.0,0.0,60.0,13.0,64.0
350,54.0,0.0,240.0,2.0,64.0
351,52.0,0.0,240.0,11.0,64.0
352,58.0,48.0,240.0,10.0,64.0
353,61.0,0.0,240.0,2.0,64.0
354,30.0,0.0,60.0,14.0,64.0
355,42.0,54.0,60.0,13.0,64.0
356,42.0,0.0,60.0,1.0,64.0
357,51.0,0.0,90.0,11.0,64.0
358,75.0,222.0,120.0,0.0,64.0
359,35.0,0.0,60.0,14.0,64.0
360,71.0,0.0,120.0,0.0,64.0
361,59.0,0.0,90.0,2.0,64.0
362,35.0,30.0,60.0,1.0,64.0
363,59.0,18.0,90.0,10.0,64.0
364,35.0,0.0,60.0,13.0,64.0
365,51.0,0.0,90.0,2.0,64.0
366,75.0,39.0,270.0,10.0,64.0
367,59.0,0.0,30.0,13.0,64.0
368,63.0,60.0,30.0,12.0,64.0
369,66.0,0.0,30.0,11.0,64.0
370,59.0,0.0,30.0,13.0,64.0
371,66.0,60.0,30.0,11.0,64.0
372,63.0,0.0,30.0,12.0,64.0
373,63.0,0.0,30.0,12.0,64.0
374,59.0,0.0,30.0,13.0,64.0
375,66.0,57.0,30.0,11.0,64.0
376,63.0,0.0,60.0,12.0,64.0
377,59.0,0.0,60.0,13.0,64.0
378,66.0,21.0,60.0,11.0,64.0
379,74.0,60.0,30.0,10.0,64.0
380,76.0,60.0,30.0,10.0,64.0
381,75.0,123.0,30.0,10.0,64.0
382,73.0,39.0,270.0,10.0,64.0
383,58.0,0.0,30.0,13.0,64.0
384,63.0,60.0,30.0,12.0,64.0
385,67.0,0.0,30.0,11.0,64.0
386,67.0,0.0,30.0,11.0,64.0
387,58.0,0.0,30.0,13.0,64.0
388,63.0,60.0,30.0,12.0,64.0
389,58.0,57.0,30.0,13.0,64.0
390,67.0,0.0,30.0,11.0,64.0
391,63.0,0.0,30.0,12.0,64.0
392,58.0,0.0,60.0,13.0,64.0
393,63.0,21.0,60.0,12.0,64.0
394,67.0,0.0,60.0,11.0,64.0
395,72.0,60.0,30.0,10.0,64.0
396,75.0,60.0,30.0,10.0,64.0
397,73.0,123.0,30.0,10.0,64.0
398,76.0,39.0,270.0,10.0,64.0
399,67.0,60.0,30.0,11.0,64.0
400,58.0,0.0,30.0,12.0,64.0
401,51.0,0.0,30.0,13.0,64.0
402,67.0,60.0,30.0,11.0,64.0
403,51.0,0.0,30.0,13.0,64.0
404,58.0,0.0,30.0,12.0,64.0
405,58.0,0.0,30.0,12.0,64.0
406,51.0,57.0,30.0,13.0,64.0
407,67.0,0.0,30.0,11.0,64.0
408,58.0,0.0,60.0,12.0,64.0
409,51.0,0.0,60.0,13.0,64.0
410,67.0,21.0,60.0,11.0,64.0
411,74.0,60.0,30.0,10.0,64.0
412,75.0,60.0,30.0,10.0,64.0
413,73.0,123.0,30.0,10.0,64.0
414,71.0,39.0,270.0,10.0,64.0
415,59.0,60.0,30.0,12.0,64.0
416,56.0,0.0,30.0,13.0,64.0
417,63.0,0.0,30.0,11.0,64.0
418,56.0,60.0,30.0,13.0,64.0
419,63.0,0.0,30.0,11.0,64.0
420,59.0,0.0,30.0,12.0,64.0
421,63.0,57.0,30.0,11.0,64.0
422,56.0,0.0,30.0,13.0,64.0
423,59.0,0.0,30.0,12.0,64.0
424,63.0,0.0,60.0,11.0,64.0
425,56.0,21.0,60.0,13.0,64.0
426,59.0,0.0,60.0,12.0,64.0
427,70.0,60.0,30.0,10.0,64.0
428,73.0,60.0,30.0,10.0,64.0
429,71.0,123.0,30.0,10.0,64.0
430,75.0,39.0,270.0,10.0,64.0
431,65.0,60.0,30.0,12.0,64.0
432,71.0,0.0,30.0,11.0,64.0
433,71.0,60.0,30.0,11.0,64.0
434,65.0,0.0,30.0,12.0,64.0
435,65.0,0.0,30.0,12.0,64.0
436,71.0,57.0,30.0,11.0,64.0
437,70.0,0.0,60.0,11.0,64.0
438,66.0,21.0,60.0,12.0,64.0
439,72.0,60.0,30.0,10.0,64.0
440,75.0,60.0,30.0,10.0,64.0
441,73.0,123.0,30.0,10.0,64.0
442,71.0,39.0,270.0,10.0,64.0
443,65.0,60.0,30.0,11.0,64.0
444,62.0,0.0,30.0,12.0,64.0
445,65.0,60.0,30.0,11.0,64.0
446,62.0,0.0,30.0,12.0,64.0
447,62.0,0.0,30.0,12.0,64.0
448,65.0,57.0,30.0,11.0,64.0
449,63.0,0.0,60.0,12.0,64.0
450,66.0,21.0,60.0,11.0,64.0
451,69.0,60.0,30.0,10.0,64.0
452,71.0,60.0,30.0,10.0,64.0
453,70.0,87.0,30.0,10.0,64.0
454,67.0,60.0,60.0,10.0,64.0
455,59.0,24.0,450.0,12.0,64.0
456,63.0,0.0,450.0,11.0,64.0
457,68.0,60.0,60.0,10.0,64.0
458,70.0,60.0,60.0,10.0,64.0
459,71.0,60.0,60.0,10.0,64.0
460,72.0,60.0,60.0,10.0,64.0
461,73.0,60.0,60.0,10.0,64.0
462,74.0,36.0,60.0,10.0,64.0
463,75.0,96.0,60.0,10.0,64.0
464,58.0,60.0,240.0,11.0,64.0
465,66.0,0.0,240.0,10.0,64.0
466,49.0,60.0,30.0,13.0,64.0
467,37.0,0.0,30.0,14.0,64.0
468,61.0,0.0,180.0,12.0,64.0
469,37.0,0.0,30.0,14.0,64.0
470,49.0,60.0,30.0,13.0,64.0
471,37.0,0.0,30.0,14.0,64.0
472,49.0,24.0,30.0,13.0,64.0
473,37.0,0.0,60.0,14.0,64.0
474,65.0,0.0,90.0,10.0,64.0
475,56.0,24.0,90.0,11.0,64.0
476,49.0,36.0,60.0,13.0,64.0
477,35.0,0.0,60.0,14.0,64.0
478,63.0,60.0,60.0,12.0,64.0
479,47.0,0.0,60.0,13.0,64.0
480,46.0,0.0,60.0,13.0,64.0
481,34.0,0.0,60.0,14.0,64.0
482,61.0,48.0,60.0,12.0,64.0
483,44.0,0.0,60.0,13.0,64.0
484,59.0,60.0,60.0,12.0,64.0
485,32.0,0.0,60.0,14.0,64.0
486,61.0,0.0,60.0,12.0,64.0
487,54.0,60.0,60.0,12.0,64.0
488,66.0,0.0,60.0,11.0,64.0
489,42.0,0.0,60.0,13.0,64.0
490,58.0,0.0,60.0,11.0,64.0
491,73.0,0.0,240.0,10.0,64.0
492,54.0,0.0,240.0,2.0,64.0
493,30.0,0.0,60.0,14.0,64.0
494,58.0,0.0,60.0,11.0,64.0
495,66.0,0.0,60.0,11.0,64.0
496,54.0,0.0,60.0,12.0,64.0
497,61.0,60.0,60.0,12.0,64.0
498,42.0,0.0,60.0,13.0,64.0
499,30.0,0.0,60.0,14.0,64.0
500,58.0,0.0,60.0,11.0,64.0
501,30.0,60.0,60.0,14.0,64.0
502,54.0,0.0,60.0,12.0,64.0
503,61.0,0.0,60.0,12.0,64.0
504,42.0,0.0,60.0,13.0,64.0
505,66.0,0.0,60.0,11.0,64.0
506,66.0,0.0,60.0,11.0,64.0
507,61.0,0.0,60.0,12.0,64.0
508,58.0,0.0,60.0,11.0,64.0
509,30.0,12.0,60.0,14.0,64.0
510,42.0,0.0,60.0,13.0,64.0
511,54.0,0.0,60.0,12.0,64.0
512,42.0,0.0,60.0,13.0,64.0
513,42.0,0.0,15.0,2.0,64.0
514,61.0,0.0,60.0,12.0,64.0
515,61.0,48.0,15.0,1.0,64.0
516,30.0,0.0,60.0,14.0,64.0
517,54.0,0.0,60.0,12.0,64.0
518,54.0,0.0,15.0,1.0,64.0
519,70.0,0.0,15.0,0.0,64.0
520,66.0,0.0,15.0,0.0,64.0
521,58.0,0.0,60.0,11.0,64.0
522,66.0,12.0,60.0,11.0,64.0
523,73.0,48.0,60.0,10.0,64.0
524,54.0,12.0,60.0,12.0,64.0
525,61.0,0.0,60.0,12.0,64.0
526,30.0,0.0,60.0,14.0,64.0
527,58.0,0.0,60.0,11.0,64.0
528,66.0,0.0,60.0,11.0,64.0
529,42.0,0.0,60.0,13.0,64.0
530,75.0,48.0,60.0,10.0,64.0
531,66.0,0.0,60.0,11.0,64.0
532,58.0,0.0,60.0,11.0,64.0
533,42.0,0.0,60.0,13.0,64.0
534,61.0,0.0,60.0,12.0,64.0
535,54.0,12.0,60.0,12.0,64.0
536,30.0,0.0,60.0,14.0,64.0
537,77.0,48.0,60.0,10.0,64.0
538,30.0,0.0,60.0,14.0,64.0
539,78.0,0.0,60.0,10.0,64.0
540,58.0,0.0,60.0,11.0,64.0
541,42.0,12.0,60.0,13.0,64.0
542,66.0,0.0,60.0,11.0,64.0
543,61.0,0.0,60.0,12.0,64.0
544,54.0,0.0,60.0,12.0,64.0
545,42.0,12.0,60.0,13.0,64.0
546,56.0,0.0,480.0,1.0,64.0
547,78.0,48.0,60.0,10.0,64.0
548,65.0,0.0,480.0,0.0,64.0
549,71.0,0.0,480.0,0.0,64.0
550,59.0,0.0,60.0,11.0,64.0
551,65.0,0.0,60.0,11.0,64.0
552,56.0,0.0,60.0,12.0,64.0
553,61.0,0.0,60.0,12.0,64.0
554,30.0,0.0,60.0,14.0,64.0
555,77.0,48.0,60.0,10.0,64.0
556,65.0,0.0,60.0,11.0,64.0
557,30.0,0.0,60.0,14.0,64.0
558,59.0,0.0,60.0,11.0,64.0
559,61.0,0.0,60.0,12.0,64.0
560,56.0,12.0,60.0,12.0,64.0
561,42.0,0.0,60.0,13.0,64.0
562,30.0,0.0,60.0,14.0,64.0
563,61.0,0.0,60.0,12.0,64.0
564,56.0,12.0,60.0,12.0,64.0
565,65.0,0.0,60.0,11.0,64.0
566,59.0,0.0,60.0,11.0,64.0
567,75.0,48.0,60.0,10.0,64.0
568,42.0,0.0,60.0,13.0,64.0
569,42.0,0.0,60.0,13.0,64.0
570,61.0,60.0,60.0,12.0,64.0
571,56.0,0.0,60.0,12.0,64.0
572,73.0,0.0,60.0,10.0,64.0
573,59.0,0.0,60.0,11.0,64.0
574,65.0,0.0,60.0,11.0,64.0
575,30.0,0.0,60.0,14.0,64.0
576,61.0,0.0,60.0,12.0,64.0
577,56.0,0.0,60.0,12.0,64.0
578,65.0,0.0,60.0,11.0,64.0
579,30.0,0.0,60.0,14.0,64.0
580,73.0,42.0,60.0,10.0,64.0
581,42.0,0.0,60.0,13.0,64.0
582,59.0,18.0,60.0,11.0,64.0
583,42.0,0.0,60.0,13.0,64.0
584,30.0,0.0,60.0,14.0,64.0
585,56.0,0.0,60.0,12.0,64.0
586,61.0,0.0,60.0,12.0,64.0
587,59.0,60.0,60.0,11.0,64.0
588,65.0,0.0,60.0,11.0,64.0
589,30.0,0.0,60.0,14.0,64.0
590,56.0,0.0,60.0,12.0,64.0
591,59.0,0.0,60.0,11.0,64.0
592,73.0,42.0,60.0,10.0,64.0
593,65.0,0.0,60.0,11.0,64.0
594,61.0,0.0,60.0,12.0,64.0
595,42.0,18.0,60.0,13.0,64.0
596,30.0,0.0,60.0,14.0,64.0
597,56.0,0.0,60.0,12.0,64.0
598,65.0,0.0,60.0,11.0,64.0
599,59.0,0.0,60.0,11.0,64.0
600,61.0,12.0,60.0,12.0,64.0
601,42.0,0.0,60.0,13.0,64.0
602,70.0,0.0,240.0,0.0,64.0
603,61.0,60.0,60.0,12.0,64.0
604,73.0,30.0,180.0,10.0,64.0
605,54.0,0.0,15.0,2.0,64.0
606,42.0,0.0,60.0,13.0,64.0
607,58.0,0.0,60.0,11.0,64.0
608,66.0,0.0,60.0,11.0,64.0
609,61.0,48.0,15.0,1.0,64.0
610,54.0,0.0,240.0,1.0,64.0
611,54.0,0.0,60.0,12.0,64.0
612,30.0,0.0,60.0,14.0,64.0
613,30.0,0.0,60.0,14.0,64.0
614,58.0,0.0,60.0,11.0,64.0
615,66.0,0.0,60.0,11.0,64.0
616,42.0,0.0,60.0,13.0,64.0
617,54.0,0.0,60.0,12.0,64.0
618,61.0,60.0,60.0,12.0,64.0
619,42.0,0.0,60.0,13.0,64.0
620,61.0,0.0,60.0,12.0,64.0
621,54.0,0.0,60.0,12.0,64.0
622,66.0,12.0,60.0,11.0,64.0
623,30.0,0.0,60.0,14.0,64.0
624,58.0,0.0,60.0,11.0,64.0
625,58.0,0.0,60.0,11.0,64.0
626,66.0,0.0,60.0,11.0,64.0
627,42.0,12.0,60.0,13.0,64.0
628,75.0,18.0,30.0,10.0,64.0
629,61.0,0.0,60.0,12.0,64.0
630,54.0,0.0,60.0,12.0,64.0
631,30.0,0.0,60.0,14.0,64.0
632,77.0,0.0,30.0,10.0,64.0
633,42.0,0.0,60.0,13.0,64.0
634,42.0,0.0,15.0,2.0,64.0
635,54.0,0.0,15.0,2.0,64.0
636,30.0,0.0,60.0,14.0,64.0
637,66.0,0.0,60.0,11.0,64.0
638,61.0,12.0,60.0,12.0,64.0
639,54.0,0.0,60.0,12.0,64.0
640,70.0,0.0,240.0,0.0,64.0
641,78.0,48.0,60.0,10.0,64.0
642,66.0,48.0,15.0,0.0,64.0
643,58.0,0.0,60.0,11.0,64.0
644,61.0,0.0,810.0,1.0,64.0
645,54.0,48.0,240.0,1.0,64.0
646,30.0,12.0,60.0,14.0,64.0
647,54.0,0.0,60.0,12.0,64.0
648,61.0,0.0,60.0,12.0,64.0
649,66.0,0.0,60.0,11.0,64.0
650,58.0,0.0,60.0,11.0,64.0
651,80.0,48.0,60.0,10.0,64.0
652,42.0,0.0,60.0,13.0,64.0
653,82.0,48.0,60.0,10.0,64.0
654,61.0,12.0,60.0,12.0,64.0
655,54.0,0.0,60.0,12.0,64.0
656,58.0,0.0,60.0,11.0,64.0
657,42.0,0.0,60.0,13.0,64.0
658,30.0,0.0,60.0,14.0,64.0
659,66.0,0.0,60.0,11.0,64.0
660,54.0,12.0,60.0,12.0,64.0
661,61.0,0.0,60.0,12.0,64.0
662,42.0,0.0,60.0,13.0,64.0
663,30.0,0.0,60.0,14.0,64.0
664,66.0,0.0,60.0,11.0,64.0
665,58.0,0.0,60.0,11.0,64.0
666,78.0,0.0,60.0,10.0,64.0
667,56.0,66.0,480.0,1.0,64.0
668,42.0,0.0,60.0,13.0,64.0
669,71.0,0.0,480.0,0.0,64.0
670,65.0,0.0,480.0,0.0,64.0
671,65.0,0.0,60.0,11.0,64.0
672,59.0,0.0,60.0,11.0,64.0
673,56.0,12.0,60.0,12.0,64.0
674,78.0,48.0,60.0,10.0,64.0
675,61.0,0.0,60.0,12.0,64.0
676,30.0,0.0,60.0,14.0,64.0
677,42.0,0.0,60.0,13.0,64.0
678,59.0,0.0,60.0,11.0,64.0
679,65.0,0.0,60.0,11.0,64.0
680,30.0,12.0,60.0,14.0,64.0
681,56.0,0.0,60.0,12.0,64.0
682,61.0,0.0,60.0,12.0,64.0
683,77.0,48.0,60.0,10.0,64.0
684,56.0,0.0,60.0,12.0,64.0
685,42.0,0.0,60.0,13.0,64.0
686,61.0,0.0,60.0,12.0,64.0
687,75.0,48.0,60.0,10.0,64.0
688,65.0,0.0,60.0,11.0,64.0
689,59.0,0.0,60.0,11.0,64.0
690,30.0,12.0,60.0,14.0,64.0
691,56.0,0.0,60.0,12.0,64.0
692,30.0,0.0,60.0,14.0,64.0
693,61.0,60.0,60.0,12.0,64.0
694,59.0,0.0,60.0,11.0,64.0
695,65.0,0.0,60.0,11.0,64.0
696,73.0,0.0,60.0,10.0,64.0
697,42.0,0.0,60.0,13.0,64.0
698,73.0,42.0,60.0,10.0,64.0
699,42.0,18.0,60.0,13.0,64.0
700,30.0,0.0,60.0,14.0,64.0
701,65.0,0.0,60.0,11.0,64.0
702,56.0,0.0,60.0,12.0,64.0
703,59.0,0.0,60.0,11.0,64.0
704,61.0,0.0,60.0,12.0,64.0
705,65.0,0.0,60.0,11.0,64.0
706,56.0,0.0,60.0,12.0,64.0
707,61.0,0.0,60.0,12.0,64.0
708,59.0,0.0,60.0,11.0,64.0
709,42.0,60.0,60.0,13.0,64.0
710,30.0,0.0,60.0,14.0,64.0
711,59.0,18.0,60.0,11.0,64.0
712,42.0,0.0,60.0,13.0,64.0
713,65.0,0.0,60.0,11.0,64.0
714,73.0,42.0,60.0,10.0,64.0
715,61.0,0.0,60.0,12.0,64.0
716,56.0,0.0,60.0,12.0,64.0
717,30.0,0.0,60.0,14.0,64.0
718,42.0,0.0,60.0,13.0,64.0
719,56.0,0.0,60.0,12.0,64.0
720,59.0,12.0,60.0,11.0,64.0
721,65.0,0.0,60.0,11.0,64.0
722,61.0,0.0,60.0,12.0,64.0
723,30.0,0.0,60.0,14.0,64.0
724,66.0,0.0,90.0,0.0,64.0
725,70.0,0.0,90.0,0.0,64.0
726,66.0,0.0,60.0,11.0,64.0
727,54.0,0.0,90.0,1.0,64.0
728,54.0,0.0,60.0,12.0,64.0
729,30.0,90.0,90.0,14.0,64.0
730,61.0,30.0,60.0,12.0,64.0
731,42.0,0.0,90.0,13.0,64.0
732,73.0,33.0,270.0,10.0,64.0
733,58.0,0.0,60.0,11.0,64.0
734,58.0,0.0,60.0,12.0,64.0
735,66.0,87.0,60.0,11.0,64.0
736,70.0,0.0,60.0,11.0,64.0
737,54.0,27.0,60.0,12.0,64.0
738,75.0,60.0,30.0,10.0,64.0
739,77.0,60.0,30.0,10.0,64.0
740,78.0,213.0,30.0,10.0,64.0
741,70.0,33.0,270.0,10.0,64.0
742,54.0,0.0,60.0,12.0,64.0
743,61.0,87.0,60.0,11.0,64.0
744,66.0,0.0,60.0,11.0,64.0
745,51.0,27.0,60.0,12.0,64.0
746,71.0,60.0,30.0,10.0,64.0
747,73.0,60.0,30.0,10.0,64.0
748,75.0,213.0,30.0,10.0,64.0
749,66.0,3.0,270.0,10.0,64.0
750,58.0,0.0,60.0,11.0,64.0
751,54.0,87.0,60.0,12.0,64.0
752,63.0,57.0,30.0,11.0,64.0
753,47.0,0.0,30.0,12.0,64.0
754,59.0,0.0,30.0,12.0,64.0
755,65.0,57.0,30.0,11.0,64.0
756,68.0,3.0,30.0,10.0,64.0
757,58.0,0.0,30.0,12.0,64.0
758,70.0,3.0,30.0,10.0,64.0
759,66.0,57.0,30.0,11.0,64.0
760,68.0,90.0,30.0,11.0,64.0
761,56.0,3.0,30.0,12.0,64.0
762,71.0,0.0,30.0,10.0,64.0
763,66.0,66.0,360.0,11.0,64.0
764,58.0,114.0,60.0,12.0,64.0
765,73.0,6.0,180.0,10.0,64.0
766,59.0,24.0,60.0,12.0,64.0
767,75.0,30.0,30.0,10.0,64.0
768,71.0,66.0,30.0,10.0,64.0
769,61.0,6.0,60.0,12.0,64.0
770,70.0,48.0,60.0,10.0,64.0
771,68.0,42.0,60.0,10.0,64.0
772,49.0,6.0,60.0,12.0,64.0
773,65.0,246.0,120.0,11.0,64.0
774,73.0,0.0,270.0,10.0,64.0
775,61.0,0.0,270.0,11.0,64.0
776,49.0,60.0,270.0,1.0,64.0
777,53.0,0.0,120.0,13.0,64.0
778,41.0,33.0,120.0,14.0,64.0
779,68.0,0.0,120.0,0.0,64.0
780,59.0,0.0,120.0,12.0,64.0
781,56.0,0.0,120.0,12.0,64.0
782,71.0,0.0,120.0,0.0,64.0
783,70.0,0.0,90.0,0.0,64.0
784,66.0,57.0,90.0,0.0,64.0
785,58.0,0.0,90.0,12.0,64.0
786,54.0,0.0,90.0,13.0,64.0
787,42.0,0.0,90.0,14.0,64.0
788,63.0,0.0,30.0,11.0,64.0
789,75.0,3.0,30.0,10.0,64.0
790,51.0,0.0,30.0,1.0,64.0
791,77.0,0.0,30.0,10.0,64.0
792,65.0,0.0,30.0,11.0,64.0
793,53.0,60.0,30.0,1.0,64.0
794,54.0,0.0,30.0,1.0,64.0
795,66.0,267.0,30.0,11.0,64.0
796,78.0,0.0,30.0,10.0,64.0
797,46.0,60.0,270.0,1.0,64.0
798,70.0,0.0,270.0,10.0,64.0
799,58.0,0.0,270.0,11.0,64.0
800,56.0,0.0,120.0,12.0,64.0
801,50.0,0.0,120.0,13.0,64.0
802,53.0,0.0,120.0,12.0,64.0
803,65.0,0.0,120.0,0.0,64.0
804,38.0,33.0,120.0,14.0,64.0
805,68.0,0.0,120.0,0.0,64.0
806,63.0,0.0,90.0,0.0,64.0
807,54.0,57.0,90.0,12.0,64.0
808,51.0,0.0,90.0,13.0,64.0
809,66.0,0.0,90.0,0.0,64.0
810,39.0,0.0,90.0,14.0,64.0
811,47.0,3.0,30.0,1.0,64.0
812,71.0,0.0,30.0,10.0,64.0
813,59.0,0.0,30.0,11.0,64.0
814,49.0,0.0,30.0,1.0,64.0
815,73.0,0.0,30.0,10.0,64.0
816,61.0,60.0,30.0,11.0,64.0
817,75.0,0.0,30.0,10.0,64.0
818,51.0,0.0,30.0,1.0,64.0
819,63.0,267.0,30.0,11.0,64.0
820,42.0,3.0,270.0,1.0,64.0
821,54.0,0.0,270.0,11.0,64.0
822,66.0,0.0,270.0,10.0,64.0
823,64.0,33.0,120.0,0.0,64.0
824,34.0,0.0,120.0,14.0,64.0
825,61.0,0.0,120.0,0.0,64.0
826,46.0,0.0,120.0,13.0,64.0
827,52.0,0.0,120.0,12.0,64.0
828,49.0,0.0,120.0,12.0,64.0
829,35.0,0.0,90.0,14.0,64.0
830,59.0,0.0,90.0,0.0,64.0
831,63.0,57.0,90.0,0.0,64.0
832,47.0,0.0,90.0,13.0,64.0
833,51.0,57.0,30.0,12.0,64.0
834,56.0,3.0,30.0,11.0,64.0
835,53.0,0.0,30.0,12.0,64.0
836,44.0,0.0,30.0,1.0,64.0
837,68.0,0.0,30.0,10.0,64.0
838,41.0,0.0,30.0,1.0,64.0
839,49.0,0.0,90.0,12.0,64.0
840,42.0,0.0,30.0,1.0,64.0
841,54.0,0.0,30.0,12.0,64.0
842,58.0,3.0,30.0,11.0,64.0
843,70.0,0.0,30.0,10.0,64.0
844,46.0,0.0,30.0,13.0,64.0
845,34.0,57.0,30.0,14.0,64.0
846,46.0,0.0,30.0,1.0,64.0
847,59.0,0.0,30.0,11.0,64.0
848,44.0,0.0,30.0,13.0,64.0
849,49.0,0.0,30.0,12.0,64.0
850,44.0,3.0,30.0,1.0,64.0
851,56.0,90.0,30.0,12.0,64.0
852,32.0,0.0,30.0,14.0,64.0
853,71.0,0.0,30.0,10.0,64.0
854,47.0,0.0,30.0,1.0,64.0
855,42.0,0.0,60.0,13.0,64.0
856,49.0,0.0,180.0,1.0,64.0
857,58.0,6.0,180.0,12.0,64.0
858,61.0,0.0,180.0,11.0,64.0
859,30.0,114.0,60.0,14.0,64.0
860,73.0,0.0,180.0,10.0,64.0
861,46.0,0.0,180.0,1.0,64.0
862,49.0,0.0,180.0,12.0,64.0
863,35.0,0.0,60.0,14.0,64.0
864,47.0,24.0,60.0,13.0,64.0
865,63.0,0.0,30.0,11.0,64.0
866,75.0,0.0,30.0,10.0,64.0
867,51.0,30.0,30.0,12.0,64.0
868,59.0,0.0,30.0,12.0,64.0
869,47.0,0.0,30.0,1.0,64.0
870,51.0,0.0,30.0,1.0,64.0
871,44.0,66.0,30.0,1.0,64.0
872,71.0,0.0,30.0,10.0,64.0
873,47.0,0.0,30.0,1.0,64.0
874,59.0,0.0,30.0,11.0,64.0
875,47.0,0.0,30.0,12.0,64.0
876,56.0,0.0,30.0,12.0,64.0
877,70.0,0.0,60.0,10.0,64.0
878,46.0,0.0,60.0,1.0,64.0
879,37.0,0.0,60.0,14.0,64.0
880,58.0,63.0,60.0,11.0,64.0
881,42.0,0.0,60.0,1.0,64.0
882,49.0,6.0,60.0,13.0,64.0
883,54.0,0.0,60.0,12.0,64.0
884,49.0,0.0,60.0,12.0,64.0
885,58.0,15.0,15.0,11.0,64.0
886,41.0,0.0,60.0,1.0,64.0
887,44.0,0.0,60.0,1.0,64.0
888,53.0,3.0,60.0,12.0,64.0
889,49.0,0.0,60.0,12.0,64.0
890,37.0,0.0,60.0,13.0,64.0
891,70.0,0.0,15.0,10.0,64.0
892,25.0,6.0,60.0,14.0,64.0
893,68.0,0.0,15.0,10.0,64.0
894,56.0,15.0,15.0,11.0,64.0
895,70.0,15.0,15.0,10.0,64.0
896,58.0,0.0,15.0,11.0,64.0
897,56.0,6.0,15.0,11.0,64.0
898,68.0,0.0,15.0,10.0,64.0
899,58.0,15.0,15.0,11.0,64.0
900,70.0,0.0,15.0,10.0,64.0
901,56.0,0.0,15.0,11.0,64.0
902,68.0,15.0,15.0,10.0,64.0
903,58.0,15.0,15.0,11.0,64.0
904,70.0,0.0,15.0,10.0,64.0
905,68.0,48.0,15.0,10.0,64.0
906,56.0,0.0,15.0,11.0,64.0
907,73.0,0.0,1920.0,0.0,64.0
908,30.0,0.0,90.0,14.0,64.0
909,42.0,0.0,90.0,1.0,64.0
910,66.0,0.0,90.0,10.0,64.0
911,54.0,0.0,90.0,12.0,64.0
912,54.0,48.0,60.0,11.0,64.0
913,42.0,12.0,90.0,13.0,64.0
914,54.0,60.0,60.0,11.0,64.0
915,61.0,0.0,60.0,11.0,64.0
916,73.0,42.0,60.0,10.0,64.0
917,58.0,18.0,60.0,12.0,64.0
918,58.0,0.0,60.0,12.0,64.0
919,61.0,60.0,60.0,11.0,64.0
920,56.0,18.0,60.0,12.0,64.0
921,73.0,42.0,60.0,10.0,64.0
922,59.0,0.0,60.0,11.0,64.0
923,59.0,0.0,60.0,11.0,64.0
924,56.0,60.0,60.0,12.0,64.0
925,73.0,42.0,60.0,10.0,64.0
926,54.0,0.0,60.0,12.0,64.0
927,58.0,18.0,60.0,11.0,64.0
928,54.0,0.0,60.0,12.0,64.0
929,58.0,60.0,60.0,11.0,64.0
930,49.0,0.0,120.0,1.0,64.0
931,71.0,48.0,480.0,0.0,64.0
932,56.0,0.0,60.0,11.0,64.0
933,53.0,42.0,60.0,12.0,64.0
934,73.0,18.0,90.0,10.0,64.0
935,56.0,6.0,60.0,11.0,64.0
936,53.0,0.0,60.0,12.0,64.0
937,71.0,6.0,20.0,10.0,64.0
938,49.0,60.0,60.0,12.0,64.0
939,71.0,36.0,180.0,10.0,64.0
940,61.0,48.0,15.0,2.0,64.0
941,37.0,0.0,15.0,14.0,64.0
942,53.0,0.0,60.0,11.0,64.0
943,49.0,0.0,360.0,1.0,64.0
944,49.0,0.0,15.0,13.0,64.0
945,49.0,0.0,60.0,12.0,64.0
946,53.0,60.0,60.0,11.0,64.0
947,54.0,0.0,60.0,11.0,64.0
948,51.0,24.0,60.0,12.0,64.0
949,51.0,0.0,60.0,12.0,64.0
950,54.0,42.0,60.0,11.0,64.0
951,73.0,18.0,30.0,10.0,64.0
952,56.0,0.0,60.0,11.0,64.0
953,53.0,0.0,60.0,12.0,64.0
954,71.0,30.0,30.0,10.0,64.0
955,56.0,0.0,60.0,11.0,64.0
956,70.0,18.0,30.0,10.0,64.0
957,53.0,6.0,60.0,12.0,64.0
958,68.0,6.0,20.0,10.0,64.0
959,54.0,42.0,60.0,11.0,64.0
960,78.0,6.0,90.0,10.0,64.0
961,42.0,12.0,90.0,13.0,64.0
962,70.0,48.0,120.0,0.0,64.0
963,30.0,0.0,90.0,14.0,64.0
964,54.0,0.0,60.0,12.0,64.0
965,42.0,0.0,90.0,1.0,64.0
966,54.0,0.0,90.0,2.0,64.0
967,54.0,0.0,60.0,11.0,64.0
968,54.0,6.0,60.0,12.0,64.0
969,73.0,6.0,20.0,10.0,64.0
970,61.0,18.0,60.0,11.0,64.0
971,73.0,42.0,60.0,10.0,64.0
972,58.0,0.0,60.0,12.0,64.0
973,58.0,0.0,60.0,12.0,64.0
974,61.0,60.0,60.0,11.0,64.0
975,59.0,18.0,60.0,11.0,64.0
976,56.0,0.0,60.0,12.0,64.0
977,73.0,42.0,60.0,10.0,64.0
978,59.0,60.0,60.0,11.0,64.0
979,56.0,0.0,60.0,12.0,64.0
980,73.0,42.0,60.0,10.0,64.0
981,54.0,18.0,60.0,12.0,64.0
982,58.0,0.0,60.0,11.0,64.0
983,54.0,60.0,60.0,12.0,64.0
984,58.0,0.0,60.0,11.0,64.0
985,53.0,0.0,60.0,12.0,64.0
986,37.0,0.0,120.0,14.0,64.0
987,56.0,42.0,60.0,11.0,64.0
988,71.0,30.0,360.0,0.0,64.0
989,73.0,18.0,90.0,10.0,64.0
990,53.0,0.0,60.0,12.0,64.0
991,56.0,6.0,60.0,11.0,64.0
992,71.0,6.0,20.0,10.0,64.0
993,49.0,0.0,60.0,12.0,64.0
994,53.0,60.0,60.0,11.0,64.0
995,49.0,0.0,15.0,1.0,64.0
996,61.0,0.0,15.0,2.0,64.0
997,37.0,0.0,300.0,14.0,64.0
998,71.0,36.0,180.0,10.0,64.0
999,49.0,48.0,15.0,13.0,64.0
1000,49.0,0.0,60.0,12.0,64.0
1001,53.0,60.0,60.0,11.0,64.0
1002,51.0,0.0,60.0,12.0,64.0
1003,54.0,24.0,60.0,11.0,64.0
1004,54.0,0.0,60.0,11.0,64.0
1005,51.0,12.0,60.0,12.0,64.0
1006,68.0,30.0,60.0,0.0,64.0
1007,53.0,12.0,60.0,12.0,64.0
1008,56.0,0.0,60.0,11.0,64.0
1009,73.0,18.0,30.0,10.0,64.0
1010,71.0,0.0,30.0,10.0,64.0
1011,70.0,18.0,30.0,10.0,64.0
1012,65.0,0.0,60.0,0.0,64.0
1013,53.0,6.0,60.0,12.0,64.0
1014,59.0,0.0,60.0,11.0,64.0
1015,68.0,6.0,20.0,10.0,64.0
1016,53.0,48.0,240.0,12.0,64.0
1017,54.0,120.0,60.0,13.0,64.0
1018,65.0,0.0,240.0,0.0,64.0
1019,61.0,0.0,300.0,2.0,64.0
1020,54.0,0.0,60.0,1.0,64.0
1021,71.0,0.0,240.0,0.0,64.0
1022,68.0,0.0,240.0,10.0,64.0
1023,42.0,0.0,60.0,14.0,64.0
1024,54.0,18.0,300.0,2.0,64.0
1025,59.0,0.0,240.0,11.0,64.0
1026,49.0,54.0,60.0,13.0,64.0
1027,37.0,0.0,60.0,14.0,64.0
1028,49.0,0.0,60.0,1.0,64.0
1029,30.0,0.0,60.0,14.0,64.0
1030,42.0,0.0,60.0,1.0,64.0
1031,66.0,0.0,90.0,10.0,64.0
1032,54.0,0.0,90.0,12.0,64.0
1033,42.0,30.0,60.0,13.0,64.0
1034,70.0,384.0,90.0,0.0,64.0
1035,58.0,0.0,90.0,11.0,64.0
1036,66.0,0.0,90.0,0.0,64.0
1037,73.0,72.0,240.0,10.0,64.0
1038,75.0,288.0,60.0,10.0,64.0
1039,66.0,96.0,240.0,10.0,64.0
1040,61.0,72.0,240.0,11.0,64.0
1041,65.0,24.0,90.0,10.0,64.0
1042,63.0,108.0,60.0,11.0,64.0
1043,66.0,30.0,180.0,10.0,64.0
1044,54.0,96.0,240.0,11.0,64.0
1045,68.0,24.0,30.0,10.0,64.0
1046,70.0,126.0,20.0,10.0,64.0
1047,71.0,72.0,240.0,10.0,64.0
1048,49.0,0.0,240.0,13.0,64.0
1049,37.0,0.0,240.0,14.0,64.0
1050,53.0,24.0,90.0,11.0,64.0
1051,51.0,0.0,60.0,13.0,64.0
1052,54.0,6.0,180.0,11.0,64.0
1053,70.0,0.0,60.0,10.0,64.0
1054,39.0,108.0,60.0,14.0,64.0
1055,30.0,0.0,240.0,14.0,64.0
1056,42.0,72.0,240.0,13.0,64.0
1057,63.0,24.0,60.0,10.0,64.0
1058,56.0,24.0,30.0,11.0,64.0
1059,58.0,126.0,20.0,11.0,64.0
1060,59.0,72.0,240.0,11.0,64.0
1061,68.0,0.0,240.0,10.0,64.0
1062,41.0,48.0,60.0,13.0,64.0
1063,29.0,0.0,60.0,14.0,64.0
1064,66.0,0.0,60.0,10.0,64.0
1065,30.0,0.0,60.0,14.0,64.0
1066,42.0,0.0,60.0,13.0,64.0
1067,58.0,168.0,60.0,11.0,64.0
1068,63.0,72.0,120.0,10.0,64.0
1069,56.0,90.0,210.0,11.0,64.0
1070,47.0,24.0,180.0,13.0,64.0
1071,35.0,0.0,180.0,14.0,64.0
1072,65.0,0.0,60.0,10.0,64.0
1073,61.0,12.0,240.0,12.0,64.0
1074,66.0,0.0,60.0,10.0,64.0
1075,61.0,15.0,120.0,11.0,64.0
1076,34.0,0.0,60.0,14.0,64.0
1077,46.0,42.0,60.0,13.0,64.0
1078,59.0,0.0,120.0,12.0,64.0
1079,73.0,15.0,15.0,10.0,64.0
1080,44.0,0.0,60.0,13.0,64.0
1081,63.0,0.0,120.0,11.0,64.0
1082,32.0,9.0,60.0,14.0,64.0
1083,71.0,15.0,15.0,10.0,64.0
1084,73.0,15.0,15.0,10.0,64.0
1085,71.0,6.0,15.0,10.0,64.0
1086,73.0,15.0,15.0,10.0,64.0
1087,71.0,15.0,15.0,10.0,64.0
1088,73.0,15.0,15.0,10.0,64.0
1089,71.0,15.0,15.0,10.0,64.0
1090,56.0,24.0,90.0,12.0,64.0
1091,49.0,24.0,60.0,13.0,64.0
1092,65.0,0.0,120.0,11.0,64.0
1093,37.0,0.0,60.0,14.0,64.0
1094,73.0,15.0,15.0,10.0,64.0
1095,71.0,15.0,15.0,10.0,64.0
1096,73.0,15.0,15.0,10.0,64.0
1097,71.0,6.0,15.0,10.0,64.0
1098,70.0,6.0,30.0,10.0,64.0
1099,71.0,33.0,30.0,10.0,64.0
1100,30.0,0.0,450.0,14.0,64.0
1101,54.0,24.0,90.0,12.0,64.0
1102,66.0,0.0,30.0,11.0,64.0
1103,54.0,6.0,90.0,2.0,64.0
1104,42.0,0.0,90.0,2.0,64.0
1105,42.0,12.0,450.0,13.0,64.0
1106,70.0,57.0,30.0,10.0,64.0
1107,71.0,0.0,60.0,10.0,64.0
1108,68.0,60.0,60.0,11.0,64.0
1109,56.0,0.0,60.0,1.0,64.0
1110,59.0,0.0,60.0,1.0,64.0
1111,70.0,30.0,60.0,10.0,64.0
1112,54.0,12.0,240.0,12.0,64.0
1113,58.0,0.0,60.0,1.0,64.0
1114,54.0,0.0,90.0,2.0,64.0
1115,54.0,0.0,60.0,1.0,64.0
1116,66.0,0.0,60.0,11.0,64.0
1117,42.0,30.0,90.0,2.0,64.0
1118,56.0,60.0,60.0,1.0,64.0
1119,52.0,0.0,60.0,1.0,64.0
1120,68.0,0.0,60.0,10.0,64.0
1121,64.0,0.0,60.0,11.0,64.0
1122,66.0,0.0,60.0,10.0,64.0
1123,54.0,18.0,90.0,2.0,64.0
1124,54.0,0.0,60.0,1.0,64.0
1125,63.0,0.0,60.0,11.0,64.0
1126,51.0,30.0,60.0,1.0,64.0
1127,42.0,0.0,90.0,2.0,64.0
1128,64.0,0.0,60.0,10.0,64.0
1129,61.0,60.0,60.0,11.0,64.0
1130,52.0,0.0,60.0,1.0,64.0
1131,49.0,0.0,60.0,1.0,64.0
1132,63.0,30.0,60.0,10.0,64.0
1133,51.0,0.0,60.0,1.0,64.0
1134,47.0,0.0,60.0,1.0,64.0
1135,54.0,0.0,60.0,12.0,64.0
1136,59.0,0.0,60.0,11.0,64.0
1137,42.0,6.0,90.0,2.0,64.0
1138,54.0,0.0,90.0,2.0,64.0
1139,52.0,0.0,60.0,12.0,64.0
1140,61.0,204.0,60.0,10.0,64.0
1141,58.0,0.0,60.0,11.0,64.0
1142,49.0,0.0,60.0,1.0,64.0
1143,46.0,0.0,60.0,1.0,64.0
1144,59.0,0.0,180.0,10.0,64.0
1145,51.0,0.0,180.0,10.0,64.0
1146,47.0,0.0,180.0,1.0,64.0
1147,47.0,0.0,180.0,2.0,64.0
1148,35.0,0.0,180.0,14.0,64.0
1149,35.0,0.0,180.0,13.0,64.0
1150,54.0,0.0,180.0,2.0,64.0
1151,51.0,0.0,180.0,12.0,64.0
1152,78.0,72.0,240.0,0.0,64.0
1153,51.0,0.0,180.0,11.0,64.0
1154,59.0,48.0,180.0,11.0,64.0
1155,80.0,288.0,60.0,0.0,64.0
1156,71.0,96.0,240.0,0.0,64.0
1157,66.0,72.0,240.0,0.0,64.0
1158,70.0,24.0,90.0,0.0,64.0
1159,71.0,30.0,180.0,0.0,64.0
1160,68.0,108.0,60.0,0.0,64.0
1161,59.0,96.0,240.0,0.0,64.0
1162,73.0,24.0,30.0,0.0,64.0
1163,75.0,126.0,20.0,0.0,64.0
1164,54.0,0.0,240.0,1.0,64.0
1165,76.0,72.0,240.0,0.0,64.0
1166,58.0,24.0,90.0,0.0,64.0
1167,75.0,0.0,60.0,0.0,64.0
1168,56.0,108.0,60.0,1.0,64.0
1169,59.0,6.0,180.0,0.0,64.0
1170,47.0,120.0,240.0,1.0,64.0
1171,68.0,24.0,60.0,0.0,64.0
1172,61.0,24.0,30.0,0.0,64.0
1173,63.0,126.0,20.0,0.0,64.0
1174,64.0,0.0,240.0,0.0,64.0
1175,54.0,0.0,330.0,2.0,64.0
1176,73.0,72.0,240.0,0.0,64.0
1177,46.0,0.0,120.0,1.0,64.0
1178,47.0,24.0,60.0,1.0,64.0
1179,63.0,0.0,60.0,0.0,64.0
1180,59.0,24.0,210.0,2.0,64.0
1181,71.0,120.0,90.0,0.0,64.0
1182,52.0,0.0,180.0,1.0,64.0
1183,68.0,0.0,120.0,0.0,64.0
1184,64.0,72.0,120.0,0.0,64.0
1185,70.0,114.0,60.0,0.0,64.0
1186,61.0,0.0,60.0,0.0,64.0
1187,54.0,0.0,180.0,2.0,64.0
1188,66.0,48.0,180.0,2.0,64.0
1189,51.0,0.0,60.0,1.0,64.0
1190,63.0,15.0,120.0,0.0,64.0
1191,71.0,6.0,60.0,0.0,64.0
1192,49.0,0.0,60.0,1.0,64.0
1193,68.0,0.0,120.0,0.0,64.0
1194,78.0,15.0,15.0,0.0,64.0
1195,59.0,3.0,60.0,2.0,64.0
1196,76.0,15.0,15.0,0.0,64.0
1197,78.0,15.0,15.0,0.0,64.0
1198,76.0,12.0,15.0,0.0,64.0
1199,78.0,15.0,15.0,0.0,64.0
1200,76.0,15.0,15.0,0.0,64.0
1201,78.0,15.0,15.0,0.0,64.0
1202,76.0,15.0,15.0,0.0,64.0
1203,61.0,0.0,60.0,2.0,64.0
1204,54.0,18.0,60.0,2.0,64.0
1205,70.0,72.0,120.0,0.0,64.0
1206,78.0,15.0,15.0,0.0,64.0
1207,42.0,0.0,60.0,1.0,64.0
1208,76.0,15.0,15.0,0.0,64.0
1209,78.0,15.0,15.0,0.0,64.0
1210,76.0,12.0,15.0,0.0,64.0
1211,75.0,30.0,30.0,0.0,64.0
1212,76.0,0.0,30.0,0.0,64.0
1213,54.0,0.0,90.0,12.0,64.0
1214,63.0,48.0,180.0,2.0,64.0
1215,59.0,0.0,180.0,2.0,64.0
1216,47.0,0.0,60.0,1.0,64.0
1217,59.0,96.0,90.0,10.0,64.0
1218,35.0,0.0,60.0,14.0,64.0
1219,75.0,0.0,180.0,0.0,64.0
1220,71.0,0.0,180.0,0.0,64.0
1221,51.0,0.0,90.0,11.0,64.0
1222,47.0,24.0,60.0,13.0,64.0
1223,39.0,0.0,120.0,13.0,64.0
1224,54.0,0.0,180.0,11.0,64.0
1225,39.0,0.0,120.0,1.0,64.0
1226,27.0,72.0,120.0,14.0,64.0
1227,54.0,0.0,240.0,10.0,64.0
1228,51.0,48.0,180.0,12.0,64.0
1229,42.0,0.0,120.0,1.0,64.0
1230,42.0,0.0,120.0,13.0,64.0
1231,30.0,15.0,120.0,14.0,64.0
1232,54.0,15.0,15.0,10.0,64.0
1233,46.0,0.0,120.0,1.0,64.0
1234,51.0,0.0,15.0,12.0,64.0
1235,34.0,30.0,120.0,14.0,64.0
1236,54.0,0.0,15.0,11.0,64.0
1237,46.0,0.0,120.0,13.0,64.0
1238,52.0,15.0,15.0,10.0,64.0
1239,52.0,0.0,15.0,11.0,64.0
1240,49.0,0.0,15.0,12.0,64.0
1241,51.0,0.0,15.0,12.0,64.0
1242,54.0,15.0,15.0,11.0,64.0
1243,54.0,0.0,15.0,10.0,64.0
1244,52.0,0.0,15.0,11.0,64.0
1245,52.0,0.0,15.0,10.0,64.0
1246,49.0,15.0,15.0,12.0,64.0
1247,54.0,0.0,15.0,11.0,64.0
1248,54.0,15.0,15.0,10.0,64.0
1249,51.0,0.0,15.0,12.0,64.0
1250,52.0,0.0,15.0,11.0,64.0
1251,52.0,0.0,15.0,10.0,64.0
1252,49.0,15.0,15.0,12.0,64.0
1253,51.0,0.0,15.0,11.0,64.0
1254,51.0,0.0,15.0,10.0,64.0
1255,47.0,15.0,15.0,12.0,64.0
1256,52.0,0.0,15.0,10.0,64.0
1257,49.0,0.0,15.0,12.0,64.0
1258,52.0,0.0,15.0,11.0,64.0
1259,51.0,0.0,30.0,10.0,64.0
1260,47.0,0.0,60.0,1.0,64.0
1261,47.0,18.0,90.0,12.0,64.0
1262,51.0,30.0,30.0,11.0,64.0
1263,47.0,0.0,60.0,13.0,64.0
1264,35.0,18.0,60.0,14.0,64.0
1265,54.0,12.0,30.0,10.0,64.0
1266,54.0,0.0,30.0,11.0,64.0
1267,59.0,6.0,30.0,10.0,64.0
1268,59.0,0.0,30.0,11.0,64.0
1269,63.0,126.0,20.0,10.0,64.0
1270,63.0,0.0,20.0,11.0,64.0
1271,51.0,72.0,120.0,13.0,64.0
1272,66.0,0.0,180.0,11.0,64.0
1273,39.0,0.0,120.0,14.0,64.0
1274,75.0,0.0,240.0,0.0,64.0
1275,78.0,0.0,240.0,0.0,64.0
1276,63.0,72.0,240.0,2.0,64.0
1277,54.0,0.0,180.0,12.0,64.0
1278,66.0,0.0,180.0,10.0,64.0
1279,59.0,0.0,240.0,2.0,64.0
1280,51.0,0.0,120.0,1.0,64.0
1281,42.0,0.0,60.0,14.0,64.0
1282,54.0,48.0,60.0,13.0,64.0
1283,54.0,0.0,60.0,1.0,64.0
1284,52.0,0.0,90.0,11.0,64.0
1285,73.0,90.0,90.0,0.0,64.0
1286,76.0,0.0,90.0,0.0,64.0
1287,61.0,0.0,90.0,2.0,64.0
1288,54.0,0.0,90.0,2.0,64.0
1289,54.0,0.0,90.0,12.0,64.0
1290,42.0,0.0,60.0,13.0,64.0
1291,30.0,0.0,60.0,14.0,64.0
1292,58.0,0.0,90.0,10.0,64.0
1293,42.0,24.0,60.0,1.0,64.0
1294,35.0,120.0,60.0,14.0,64.0
1295,54.0,18.0,300.0,12.0,64.0
1296,76.0,0.0,240.0,0.0,64.0
1297,61.0,0.0,240.0,2.0,64.0
1298,54.0,0.0,240.0,2.0,64.0
1299,47.0,0.0,60.0,13.0,64.0
1300,52.0,0.0,240.0,11.0,64.0
1301,58.0,0.0,240.0,10.0,64.0
1302,47.0,0.0,60.0,1.0,64.0
1303,73.0,48.0,240.0,0.0,64.0
1304,42.0,0.0,60.0,1.0,64.0
1305,30.0,54.0,60.0,14.0,64.0
1306,42.0,0.0,60.0,13.0,64.0
1307,35.0,0.0,60.0,13.0,64.0
1308,51.0,0.0,90.0,11.0,64.0
1309,23.0,0.0,60.0,14.0,64.0
1310,59.0,0.0,90.0,10.0,64.0
1311,59.0,240.0,90.0,2.0,64.0
1312,71.0,0.0,90.0,0.0,64.0
1313,75.0,0.0,90.0,0.0,64.0
1314,35.0,30.0,60.0,1.0,64.0
1315,51.0,0.0,90.0,2.0,64.0
1316,71.0,39.0,270.0,10.0,64.0
1317,59.0,0.0,30.0,2.0,64.0
1318,66.0,0.0,30.0,11.0,64.0
1319,63.0,60.0,30.0,12.0,64.0
1320,59.0,0.0,30.0,2.0,64.0
1321,63.0,60.0,30.0,12.0,64.0
1322,66.0,0.0,30.0,11.0,64.0
1323,63.0,0.0,30.0,12.0,64.0
1324,66.0,57.0,30.0,11.0,64.0
1325,59.0,0.0,30.0,2.0,64.0
1326,63.0,21.0,60.0,12.0,64.0
1327,59.0,0.0,60.0,2.0,64.0
1328,66.0,0.0,60.0,11.0,64.0
1329,70.0,60.0,30.0,10.0,64.0
1330,73.0,60.0,30.0,10.0,64.0
1331,71.0,123.0,30.0,10.0,64.0
1332,70.0,39.0,270.0,10.0,64.0
1333,61.0,0.0,30.0,12.0,64.0
1334,54.0,0.0,30.0,2.0,64.0
1335,64.0,60.0,30.0,11.0,64.0
1336,64.0,0.0,30.0,11.0,64.0
1337,54.0,60.0,30.0,2.0,64.0
1338,61.0,0.0,30.0,12.0,64.0
1339,54.0,57.0,30.0,2.0,64.0
1340,64.0,0.0,30.0,11.0,64.0
1341,61.0,0.0,30.0,12.0,64.0
1342,61.0,0.0,60.0,12.0,64.0
1343,64.0,0.0,60.0,11.0,64.0
1344,54.0,21.0,60.0,2.0,64.0
1345,73.0,60.0,30.0,10.0,64.0
1346,75.0,60.0,30.0,10.0,64.0
1347,76.0,123.0,30.0,10.0,64.0
1348,78.0,39.0,270.0,10.0,64.0
1349,63.0,60.0,30.0,11.0,64.0
1350,47.0,0.0,30.0,2.0,64.0
1351,57.0,0.0,30.0,12.0,64.0
1352,63.0,60.0,30.0,11.0,64.0
1353,57.0,0.0,30.0,12.0,64.0
1354,47.0,0.0,30.0,2.0,64.0
1355,47.0,0.0,30.0,2.0,64.0
1356,57.0,0.0,30.0,12.0,64.0
1357,63.0,57.0,30.0,11.0,64.0
1358,47.0,0.0,60.0,2.0,64.0
1359,57.0,0.0,60.0,12.0,64.0
1360,63.0,21.0,60.0,11.0,64.0
1361,80.0,60.0,30.0,10.0,64.0
1362,81.0,60.0,30.0,10.0,64.0
1363,69.0,123.0,30.0,10.0,64.0
1364,68.0,39.0,270.0,10.0,64.0
1365,63.0,0.0,30.0,11.0,64.0
1366,60.0,0.0,30.0,12.0,64.0
1367,66.0,60.0,30.0,11.0,64.0
1368,63.0,60.0,30.0,11.0,64.0
1369,66.0,0.0,30.0,11.0,64.0
1370,60.0,0.0,30.0,12.0,64.0
1371,66.0,57.0,30.0,11.0,64.0
1372,63.0,0.0,30.0,11.0,64.0
1373,60.0,0.0,30.0,12.0,64.0
1374,63.0,0.0,60.0,11.0,64.0
1375,66.0,21.0,60.0,11.0,64.0
1376,60.0,0.0,60.0,12.0,64.0
1377,67.0,60.0,30.0,10.0,64.0
1378,69.0,60.0,30.0,10.0,64.0
1379,68.0,123.0,30.0,10.0,64.0
1380,68.0,0.0,270.0,11.0,64.0
1381,80.0,39.0,270.0,10.0,64.0
1382,52.0,0.0,30.0,12.0,64.0
1383,61.0,0.0,30.0,12.0,64.0
1384,49.0,60.0,30.0,13.0,64.0
1385,49.0,0.0,30.0,13.0,64.0
1386,61.0,60.0,30.0,12.0,64.0
1387,52.0,0.0,30.0,12.0,64.0
1388,61.0,0.0,30.0,12.0,64.0
1389,52.0,0.0,30.0,12.0,64.0
1390,49.0,57.0,30.0,13.0,64.0
1391,51.0,0.0,60.0,13.0,64.0
1392,54.0,21.0,60.0,12.0,64.0
1393,60.0,0.0,60.0,12.0,64.0
1394,77.0,60.0,30.0,10.0,64.0
1395,65.0,0.0,30.0,11.0,64.0
1396,80.0,60.0,30.0,10.0,64.0
1397,68.0,0.0,30.0,11.0,64.0
1398,66.0,123.0,30.0,11.0,64.0
1399,78.0,0.0,30.0,10.0,64.0
1400,64.0,39.0,270.0,11.0,64.0
1401,76.0,0.0,270.0,10.0,64.0
1402,61.0,60.0,30.0,12.0,64.0
1403,56.0,0.0,30.0,12.0,64.0
1404,52.0,0.0,30.0,13.0,64.0
1405,56.0,0.0,30.0,12.0,64.0
1406,61.0,0.0,30.0,12.0,64.0
1407,52.0,60.0,30.0,13.0,64.0
1408,52.0,0.0,30.0,13.0,64.0
1409,56.0,0.0,30.0,12.0,64.0
1410,61.0,57.0,30.0,12.0,64.0
1411,54.0,21.0,60.0,13.0,64.0
1412,60.0,0.0,60.0,12.0,64.0
1413,57.0,0.0,60.0,12.0,64.0
1414,74.0,0.0,30.0,10.0,64.0
1415,62.0,60.0,30.0,11.0,64.0
1416,76.0,0.0,30.0,10.0,64.0
1417,64.0,60.0,30.0,11.0,64.0
1418,75.0,87.0,30.0,10.0,64.0
1419,63.0,0.0,30.0,11.0,64.0
1420,72.0,60.0,60.0,10.0,64.0
1421,52.0,2.0,480.0,13.0,64.0
1422,60.0,0.0,60.0,11.0,64.0
1423,56.0,0.0,480.0,12.0,64.0
1424,61.0,0.0,60.0,11.0,64.0
1425,73.0,60.0,60.0,10.0,64.0
1426,63.0,0.0,60.0,11.0,64.0
1427,75.0,60.0,60.0,10.0,64.0
1428,76.0,60.0,60.0,10.0,64.0
1429,64.0,0.0,60.0,11.0,64.0
1430,65.0,60.0,60.0,11.0,64.0
1431,77.0,0.0,60.0,10.0,64.0
1432,66.0,0.0,60.0,11.0,64.0
1433,78.0,60.0,60.0,10.0,64.0
1434,67.0,0.0,60.0,11.0,64.0
1435,79.0,46.0,60.0,10.0,64.0
1436,80.0,108.0,60.0,10.0,64.0
1437,68.0,0.0,60.0,11.0,64.0
1438,71.0,0.0,240.0,10.0,64.0
1439,63.0,60.0,240.0,11.0,64.0
1440,42.0,60.0,30.0,14.0,64.0
1441,54.0,0.0,30.0,13.0,64.0
1442,42.0,0.0,30.0,14.0,64.0
1443,54.0,36.0,180.0,12.0,64.0
1444,54.0,60.0,30.0,13.0,64.0
1445,42.0,0.0,30.0,14.0,64.0
1446,54.0,24.0,30.0,13.0,64.0
1447,42.0,0.0,60.0,14.0,64.0
1448,70.0,24.0,90.0,10.0,64.0
1449,61.0,0.0,90.0,11.0,64.0
1450,54.0,0.0,60.0,13.0,64.0
1451,40.0,0.0,60.0,14.0,64.0
1452,52.0,0.0,60.0,13.0,64.0
1453,56.0,60.0,60.0,12.0,64.0
1454,51.0,48.0,60.0,13.0,64.0
1455,39.0,0.0,60.0,14.0,64.0
1456,54.0,0.0,60.0,12.0,64.0
1457,37.0,0.0,60.0,14.0,64.0
1458,52.0,0.0,60.0,12.0,64.0
1459,49.0,60.0,60.0,13.0,64.0
1460,54.0,0.0,240.0,1.0,64.0
1461,47.0,0.0,240.0,1.0,64.0
1462,71.0,48.0,240.0,0.0,64.0
1463,59.0,60.0,60.0,12.0,64.0
1464,59.0,0.0,2010.0,2.0,64.0
1465,47.0,90.0,2010.0,2.0,64.0
1466,47.0,0.0,60.0,13.0,64.0
1467,35.0,0.0,60.0,14.0,64.0
1468,54.0,0.0,60.0,11.0,64.0
1469,66.0,0.0,240.0,10.0,64.0
1470,51.0,0.0,60.0,12.0,64.0
1471,63.0,0.0,60.0,11.0,64.0
1472,59.0,0.0,60.0,12.0,64.0
1473,51.0,0.0,60.0,12.0,64.0
1474,47.0,0.0,60.0,13.0,64.0
1475,54.0,0.0,60.0,11.0,64.0
1476,35.0,60.0,60.0,14.0,64.0
1477,63.0,0.0,60.0,11.0,64.0
1478,63.0,0.0,60.0,11.0,64.0
1479,47.0,0.0,60.0,13.0,64.0
1480,54.0,0.0,60.0,11.0,64.0
1481,35.0,60.0,60.0,14.0,64.0
1482,51.0,0.0,60.0,12.0,64.0
1483,59.0,0.0,60.0,12.0,64.0
1484,35.0,0.0,60.0,14.0,64.0
1485,51.0,0.0,60.0,12.0,64.0
1486,63.0,0.0,60.0,11.0,64.0
1487,54.0,0.0,60.0,11.0,64.0
1488,59.0,12.0,60.0,12.0,64.0
1489,47.0,0.0,60.0,13.0,64.0
1490,51.0,0.0,60.0,12.0,64.0
1491,66.0,48.0,60.0,10.0,64.0
1492,35.0,0.0,60.0,14.0,64.0
1493,59.0,0.0,60.0,12.0,64.0
1494,63.0,0.0,60.0,11.0,64.0
1495,54.0,0.0,60.0,11.0,64.0
1496,47.0,0.0,240.0,1.0,64.0
1497,47.0,12.0,60.0,13.0,64.0
1498,75.0,0.0,15.0,0.0,64.0
1499,71.0,48.0,240.0,0.0,64.0
1500,68.0,48.0,60.0,10.0,64.0
1501,54.0,0.0,60.0,11.0,64.0
1502,47.0,0.0,60.0,13.0,64.0
1503,59.0,0.0,60.0,12.0,64.0
1504,51.0,0.0,60.0,12.0,64.0
1505,63.0,0.0,60.0,11.0,64.0
1506,35.0,12.0,60.0,14.0,64.0
1507,59.0,0.0,60.0,12.0,64.0
1508,54.0,0.0,60.0,11.0,64.0
1509,63.0,0.0,60.0,11.0,64.0
1510,47.0,0.0,60.0,13.0,64.0
1511,51.0,12.0,60.0,12.0,64.0
1512,70.0,48.0,60.0,10.0,64.0
1513,35.0,0.0,60.0,14.0,64.0
1514,71.0,12.0,60.0,10.0,64.0
1515,54.0,0.0,60.0,11.0,64.0
1516,63.0,0.0,60.0,11.0,64.0
1517,47.0,0.0,60.0,13.0,64.0
1518,35.0,0.0,60.0,14.0,64.0
1519,59.0,0.0,60.0,12.0,64.0
1520,51.0,0.0,60.0,12.0,64.0
1521,49.0,0.0,480.0,1.0,64.0
1522,52.0,0.0,60.0,12.0,64.0
1523,58.0,0.0,60.0,12.0,64.0
1524,61.0,0.0,60.0,11.0,64.0
1525,47.0,12.0,60.0,13.0,64.0
1526,54.0,0.0,60.0,11.0,64.0
1527,71.0,48.0,60.0,10.0,64.0
1528,70.0,0.0,480.0,0.0,64.0
1529,35.0,0.0,60.0,14.0,64.0
1530,76.0,0.0,480.0,0.0,64.0
1531,52.0,0.0,60.0,12.0,64.0
1532,47.0,0.0,60.0,13.0,64.0
1533,58.0,12.0,60.0,12.0,64.0
1534,61.0,0.0,60.0,11.0,64.0
1535,54.0,0.0,60.0,11.0,64.0
1536,70.0,48.0,60.0,10.0,64.0
1537,35.0,0.0,60.0,14.0,64.0
1538,47.0,0.0,60.0,13.0,64.0
1539,52.0,0.0,60.0,12.0,64.0
1540,58.0,0.0,60.0,12.0,64.0
1541,54.0,12.0,60.0,11.0,64.0
1542,61.0,0.0,60.0,11.0,64.0
1543,68.0,48.0,60.0,10.0,64.0
1544,35.0,0.0,60.0,14.0,64.0
1545,47.0,0.0,60.0,13.0,64.0
1546,58.0,60.0,60.0,12.0,64.0
1547,52.0,0.0,60.0,12.0,64.0
1548,66.0,0.0,60.0,10.0,64.0
1549,35.0,0.0,60.0,14.0,64.0
1550,54.0,0.0,60.0,11.0,64.0
1551,61.0,0.0,60.0,11.0,64.0
1552,58.0,0.0,60.0,12.0,64.0
1553,54.0,0.0,60.0,11.0,64.0
1554,61.0,0.0,60.0,11.0,64.0
1555,47.0,18.0,60.0,13.0,64.0
1556,35.0,0.0,60.0,14.0,64.0
1557,52.0,0.0,60.0,12.0,64.0
1558,66.0,42.0,60.0,10.0,64.0
1559,58.0,0.0,60.0,12.0,64.0
1560,61.0,60.0,60.0,11.0,64.0
1561,47.0,0.0,60.0,13.0,64.0
1562,54.0,0.0,60.0,11.0,64.0
1563,35.0,0.0,60.0,14.0,64.0
1564,52.0,0.0,60.0,12.0,64.0
1565,47.0,0.0,60.0,13.0,64.0
1566,66.0,42.0,60.0,10.0,64.0
1567,54.0,0.0,60.0,11.0,64.0
1568,61.0,0.0,60.0,11.0,64.0
1569,58.0,0.0,60.0,12.0,64.0
1570,35.0,18.0,60.0,14.0,64.0
1571,52.0,0.0,60.0,12.0,64.0
1572,61.0,0.0,60.0,11.0,64.0
1573,54.0,0.0,60.0,11.0,64.0
1574,52.0,0.0,60.0,12.0,64.0
1575,58.0,0.0,60.0,12.0,64.0
1576,35.0,12.0,60.0,14.0,64.0
1577,47.0,0.0,60.0,13.0,64.0
1578,54.0,0.0,60.0,11.0,64.0
1579,47.0,60.0,60.0,13.0,64.0
1580,78.0,48.0,180.0,10.0,64.0
1581,63.0,0.0,60.0,11.0,64.0
1582,54.0,48.0,15.0,1.0,64.0
1583,47.0,0.0,240.0,1.0,64.0
1584,59.0,0.0,60.0,12.0,64.0
1585,35.0,0.0,60.0,14.0,64.0
1586,51.0,0.0,60.0,12.0,64.0
1587,75.0,0.0,240.0,0.0,64.0
1588,71.0,0.0,240.0,0.0,64.0
1589,59.0,0.0,60.0,12.0,64.0
1590,51.0,60.0,60.0,12.0,64.0
1591,63.0,0.0,60.0,11.0,64.0
1592,47.0,0.0,60.0,13.0,64.0
1593,54.0,0.0,60.0,11.0,64.0
1594,35.0,0.0,60.0,14.0,64.0
1595,35.0,0.0,60.0,14.0,64.0
1596,63.0,0.0,60.0,11.0,64.0
1597,47.0,12.0,60.0,13.0,64.0
1598,54.0,0.0,60.0,11.0,64.0
1599,51.0,0.0,60.0,12.0,64.0
1600,59.0,0.0,60.0,12.0,64.0
1601,63.0,0.0,60.0,11.0,64.0
1602,54.0,0.0,60.0,11.0,64.0
1603,35.0,0.0,60.0,14.0,64.0
1604,51.0,0.0,60.0,12.0,64.0
1605,59.0,12.0,60.0,12.0,64.0
1606,75.0,0.0,60.0,10.0,64.0
1607,47.0,0.0,60.0,13.0,64.0
1608,51.0,0.0,60.0,12.0,64.0
1609,59.0,0.0,60.0,12.0,64.0
1610,71.0,0.0,60.0,10.0,64.0
1611,54.0,48.0,15.0,1.0,64.0
1612,71.0,0.0,240.0,0.0,64.0
1613,47.0,48.0,240.0,1.0,64.0
1614,54.0,0.0,60.0,11.0,64.0
1615,63.0,60.0,60.0,11.0,64.0
1616,35.0,0.0,60.0,14.0,64.0
1617,75.0,0.0,240.0,0.0,64.0
1618,47.0,0.0,60.0,13.0,64.0
1619,78.0,48.0,60.0,10.0,64.0
1620,59.0,12.0,60.0,12.0,64.0
1621,51.0,0.0,60.0,12.0,64.0
1622,54.0,0.0,60.0,11.0,64.0
1623,47.0,0.0,60.0,13.0,64.0
1624,35.0,0.0,60.0,14.0,64.0
1625,63.0,0.0,60.0,11.0,64.0
1626,51.0,0.0,60.0,12.0,64.0
1627,35.0,0.0,60.0,14.0,64.0
1628,59.0,12.0,60.0,12.0,64.0
1629,54.0,0.0,60.0,11.0,64.0
1630,63.0,0.0,60.0,11.0,64.0
1631,75.0,48.0,60.0,10.0,64.0
1632,47.0,0.0,60.0,13.0,64.0
1633,51.0,0.0,60.0,12.0,64.0
1634,54.0,0.0,60.0,11.0,64.0
1635,47.0,0.0,60.0,13.0,64.0
1636,35.0,0.0,60.0,14.0,64.0
1637,63.0,0.0,60.0,11.0,64.0
1638,59.0,0.0,60.0,12.0,64.0
1639,71.0,12.0,60.0,10.0,64.0
1640,71.0,48.0,60.0,10.0,64.0
1641,47.0,0.0,60.0,13.0,64.0
1642,61.0,0.0,60.0,11.0,64.0
1643,35.0,0.0,60.0,14.0,64.0
1644,76.0,0.0,480.0,0.0,64.0
1645,70.0,0.0,480.0,0.0,64.0
1646,49.0,72.0,480.0,1.0,64.0
1647,52.0,0.0,60.0,12.0,64.0
1648,58.0,0.0,60.0,12.0,64.0
1649,54.0,12.0,60.0,11.0,64.0
1650,58.0,12.0,60.0,12.0,64.0
1651,70.0,48.0,60.0,10.0,64.0
1652,35.0,0.0,60.0,14.0,64.0
1653,54.0,0.0,60.0,11.0,64.0
1654,61.0,0.0,60.0,11.0,64.0
1655,52.0,0.0,60.0,12.0,64.0
1656,47.0,0.0,60.0,13.0,64.0
1657,47.0,0.0,60.0,13.0,64.0
1658,68.0,48.0,60.0,10.0,64.0
1659,52.0,0.0,60.0,12.0,64.0
1660,58.0,12.0,60.0,12.0,64.0
1661,35.0,0.0,60.0,14.0,64.0
1662,61.0,0.0,60.0,11.0,64.0
1663,54.0,0.0,60.0,11.0,64.0
1664,61.0,0.0,60.0,11.0,64.0
1665,54.0,0.0,60.0,11.0,64.0
1666,47.0,0.0,60.0,13.0,64.0
1667,66.0,0.0,60.0,10.0,64.0
1668,35.0,0.0,60.0,14.0,64.0
1669,52.0,60.0,60.0,12.0,64.0
1670,58.0,0.0,60.0,12.0,64.0
1671,52.0,0.0,60.0,12.0,64.0
1672,35.0,18.0,60.0,14.0,64.0
1673,61.0,0.0,60.0,11.0,64.0
1674,58.0,0.0,60.0,12.0,64.0
1675,66.0,42.0,60.0,10.0,64.0
1676,54.0,0.0,60.0,11.0,64.0
1677,47.0,0.0,60.0,13.0,64.0
1678,58.0,0.0,60.0,12.0,64.0
1679,54.0,0.0,60.0,11.0,64.0
1680,52.0,60.0,60.0,12.0,64.0
1681,35.0,0.0,60.0,14.0,64.0
1682,61.0,0.0,60.0,11.0,64.0
1683,47.0,0.0,60.0,13.0,64.0
1684,58.0,0.0,60.0,12.0,64.0
1685,54.0,0.0,60.0,11.0,64.0
1686,47.0,0.0,60.0,13.0,64.0
1687,35.0,18.0,60.0,14.0,64.0
1688,66.0,42.0,60.0,10.0,64.0
1689,52.0,0.0,60.0,12.0,64.0
1690,61.0,0.0,60.0,11.0,64.0
1691,54.0,0.0,60.0,11.0,64.0
1692,52.0,12.0,60.0,12.0,64.0
1693,58.0,0.0,60.0,12.0,64.0
1694,35.0,0.0,60.0,14.0,64.0
1695,61.0,0.0,60.0,11.0,64.0
1696,47.0,0.0,60.0,13.0,64.0
1697,35.0,0.0,60.0,14.0,64.0
1698,71.0,0.0,90.0,0.0,64.0
1699,75.0,0.0,90.0,0.0,64.0
1700,66.0,33.0,270.0,10.0,64.0
1701,47.0,0.0,90.0,1.0,64.0
1702,63.0,0.0,60.0,11.0,64.0
1703,54.0,0.0,60.0,11.0,64.0
1704,59.0,0.0,60.0,12.0,64.0
1705,51.0,24.0,60.0,12.0,64.0
1706,47.0,0.0,60.0,13.0,64.0
1707,51.0,87.0,60.0,13.0,64.0
1708,54.0,0.0,60.0,12.0,64.0
1709,59.0,0.0,60.0,11.0,64.0
1710,63.0,0.0,60.0,11.0,64.0
1711,47.0,27.0,60.0,13.0,64.0
1712,59.0,0.0,60.0,12.0,64.0
1713,68.0,60.0,30.0,10.0,64.0
1714,70.0,60.0,30.0,10.0,64.0
1715,71.0,213.0,30.0,10.0,64.0
1716,63.0,33.0,270.0,10.0,64.0
1717,51.0,87.0,60.0,12.0,64.0
1718,54.0,0.0,60.0,11.0,64.0
1719,47.0,0.0,60.0,13.0,64.0
1720,44.0,27.0,60.0,13.0,64.0
1721,56.0,0.0,60.0,12.0,64.0
1722,59.0,0.0,60.0,11.0,64.0
1723,64.0,60.0,30.0,10.0,64.0
1724,66.0,60.0,30.0,10.0,64.0
1725,68.0,267.0,30.0,10.0,64.0
1726,59.0,3.0,270.0,10.0,64.0
1727,47.0,0.0,120.0,12.0,64.0
1728,52.0,33.0,120.0,11.0,64.0
1729,44.0,0.0,120.0,13.0,64.0
1730,51.0,0.0,30.0,12.0,64.0
1731,42.0,57.0,30.0,13.0,64.0
1732,51.0,0.0,30.0,11.0,64.0
1733,54.0,21.0,60.0,12.0,64.0
1734,58.0,36.0,30.0,11.0,64.0
1735,40.0,0.0,30.0,13.0,64.0
1736,61.0,3.0,30.0,10.0,64.0
1737,63.0,3.0,30.0,10.0,64.0
1738,59.0,0.0,30.0,11.0,64.0
1739,39.0,57.0,30.0,13.0,64.0
1740,61.0,0.0,30.0,11.0,64.0
1741,37.0,90.0,30.0,13.0,64.0
1742,54.0,60.0,180.0,12.0,64.0
1743,64.0,3.0,30.0,10.0,64.0
1744,66.0,6.0,180.0,10.0,64.0
1745,39.0,54.0,60.0,13.0,64.0
1746,59.0,66.0,360.0,11.0,64.0
1747,56.0,66.0,120.0,12.0,64.0
1748,40.0,24.0,60.0,13.0,64.0
1749,68.0,30.0,30.0,10.0,64.0
1750,64.0,0.0,30.0,10.0,64.0
1751,42.0,54.0,60.0,13.0,64.0
1752,63.0,0.0,60.0,10.0,64.0
1753,54.0,0.0,60.0,12.0,64.0
1754,61.0,30.0,60.0,10.0,64.0
1755,42.0,0.0,60.0,13.0,64.0
1756,54.0,0.0,60.0,12.0,64.0
1757,58.0,264.0,90.0,11.0,64.0
1758,66.0,0.0,270.0,11.0,64.0
1759,78.0,0.0,270.0,10.0,64.0
1760,54.0,60.0,270.0,1.0,64.0
1761,61.0,0.0,120.0,12.0,64.0
1762,64.0,0.0,120.0,12.0,64.0
1763,46.0,0.0,120.0,14.0,64.0
1764,58.0,36.0,120.0,13.0,64.0
1765,76.0,0.0,120.0,0.0,64.0
1766,73.0,0.0,120.0,0.0,64.0
1767,63.0,60.0,90.0,12.0,64.0
1768,75.0,0.0,90.0,0.0,64.0
1769,71.0,0.0,90.0,0.0,64.0
1770,47.0,0.0,90.0,14.0,64.0
1771,59.0,0.0,90.0,13.0,64.0
1772,56.0,0.0,30.0,1.0,64.0
1773,80.0,0.0,30.0,10.0,64.0
1774,68.0,0.0,30.0,11.0,64.0
1775,82.0,60.0,30.0,10.0,64.0
1776,58.0,0.0,30.0,1.0,64.0
1777,70.0,0.0,30.0,11.0,64.0
1778,71.0,264.0,30.0,11.0,64.0
1779,83.0,0.0,30.0,10.0,64.0
1780,59.0,0.0,30.0,1.0,64.0
1781,75.0,0.0,270.0,10.0,64.0
1782,63.0,0.0,270.0,11.0,64.0
1783,51.0,60.0,270.0,1.0,64.0
1784,43.0,0.0,120.0,14.0,64.0
1785,73.0,0.0,120.0,0.0,64.0
1786,70.0,0.0,120.0,0.0,64.0
1787,55.0,36.0,120.0,13.0,64.0
1788,58.0,0.0,120.0,12.0,64.0
1789,61.0,0.0,120.0,12.0,64.0
1790,71.0,0.0,90.0,0.0,64.0
1791,59.0,0.0,90.0,12.0,64.0
1792,68.0,0.0,90.0,0.0,64.0
1793,44.0,60.0,90.0,14.0,64.0
1794,56.0,0.0,90.0,13.0,64.0
1795,76.0,0.0,30.0,10.0,64.0
1796,64.0,0.0,30.0,11.0,64.0
1797,52.0,0.0,30.0,1.0,64.0
1798,54.0,60.0,30.0,1.0,64.0
1799,78.0,0.0,30.0,10.0,64.0
1800,66.0,0.0,30.0,11.0,64.0
1801,80.0,0.0,30.0,10.0,64.0
1802,68.0,0.0,30.0,11.0,64.0
1803,56.0,264.0,30.0,1.0,64.0
1804,71.0,60.0,270.0,10.0,64.0
1805,59.0,0.0,270.0,11.0,64.0
1806,47.0,0.0,270.0,1.0,64.0
1807,51.0,36.0,120.0,13.0,64.0
1808,57.0,0.0,120.0,12.0,64.0
1809,39.0,0.0,120.0,14.0,64.0
1810,66.0,0.0,120.0,0.0,64.0
1811,69.0,0.0,120.0,0.0,64.0
1812,54.0,0.0,120.0,12.0,64.0
1813,68.0,0.0,90.0,0.0,64.0
1814,64.0,0.0,90.0,0.0,64.0
1815,56.0,0.0,30.0,12.0,64.0
1816,40.0,60.0,90.0,14.0,64.0
1817,52.0,0.0,90.0,13.0,64.0
1818,58.0,0.0,30.0,12.0,64.0
1819,73.0,0.0,30.0,10.0,64.0
1820,46.0,0.0,30.0,1.0,64.0
1821,49.0,0.0,30.0,1.0,64.0
1822,54.0,0.0,90.0,12.0,64.0
1823,61.0,0.0,30.0,11.0,64.0
1824,47.0,0.0,30.0,1.0,64.0
1825,51.0,60.0,30.0,1.0,64.0
1826,51.0,0.0,30.0,13.0,64.0
1827,63.0,0.0,30.0,11.0,64.0
1828,39.0,0.0,30.0,14.0,64.0
1829,59.0,0.0,30.0,12.0,64.0
1830,75.0,0.0,30.0,10.0,64.0
1831,64.0,90.0,30.0,11.0,64.0
1832,37.0,0.0,30.0,14.0,64.0
1833,54.0,0.0,30.0,12.0,64.0
1834,76.0,0.0,30.0,10.0,64.0
1835,49.0,0.0,30.0,1.0,64.0
1836,49.0,0.0,30.0,13.0,64.0
1837,61.0,0.0,30.0,12.0,64.0
1838,52.0,0.0,30.0,1.0,64.0
1839,54.0,0.0,180.0,12.0,64.0
1840,78.0,0.0,180.0,10.0,64.0
1841,54.0,0.0,180.0,1.0,64.0
1842,51.0,6.0,180.0,1.0,64.0
1843,66.0,0.0,180.0,11.0,64.0
1844,35.0,0.0,60.0,14.0,64.0
1845,47.0,114.0,60.0,13.0,64.0
1846,63.0,0.0,180.0,12.0,64.0
1847,40.0,0.0,60.0,14.0,64.0
1848,52.0,24.0,60.0,13.0,64.0
1849,64.0,0.0,30.0,12.0,64.0
1850,56.0,0.0,30.0,1.0,64.0
1851,56.0,0.0,30.0,12.0,64.0
1852,68.0,0.0,30.0,11.0,64.0
1853,80.0,30.0,30.0,10.0,64.0
1854,52.0,0.0,15.0,1.0,64.0
1855,49.0,0.0,30.0,1.0,64.0
1856,52.0,0.0,30.0,12.0,64.0
1857,61.0,66.0,30.0,12.0,64.0
1858,76.0,0.0,30.0,10.0,64.0
1859,64.0,0.0,30.0,11.0,64.0
1860,51.0,0.0,60.0,1.0,64.0
1861,47.0,0.0,60.0,1.0,64.0
1862,54.0,0.0,60.0,12.0,64.0
1863,59.0,69.0,60.0,12.0,64.0
1864,63.0,0.0,60.0,11.0,64.0
1865,54.0,0.0,60.0,13.0,64.0
1866,75.0,0.0,60.0,10.0,64.0
1867,42.0,0.0,60.0,14.0,64.0
1868,58.0,0.0,60.0,12.0,64.0
1869,30.0,0.0,60.0,14.0,64.0
1870,54.0,9.0,60.0,12.0,64.0
1871,63.0,0.0,15.0,11.0,64.0
1872,46.0,0.0,60.0,1.0,64.0
1873,49.0,0.0,60.0,1.0,64.0
1874,75.0,15.0,15.0,10.0,64.0
1875,42.0,0.0,60.0,13.0,64.0
1876,61.0,0.0,15.0,11.0,64.0
1877,73.0,15.0,15.0,10.0,64.0
1878,63.0,15.0,15.0,11.0,64.0
1879,75.0,0.0,15.0,10.0,64.0
1880,73.0,6.0,15.0,10.0,64.0
1881,61.0,0.0,15.0,11.0,64.0
1882,75.0,0.0,15.0,10.0,64.0
1883,63.0,15.0,15.0,11.0,64.0
1884,73.0,15.0,15.0,10.0,64.0
1885,61.0,0.0,15.0,11.0,64.0
1886,63.0,15.0,15.0,11.0,64.0
1887,75.0,0.0,15.0,10.0,64.0
1888,73.0,0.0,15.0,10.0,64.0
1889,61.0,72.0,15.0,11.0,64.0
1890,75.0,0.0,240.0,0.0,64.0
1891,59.0,0.0,60.0,11.0,64.0
1892,71.0,24.0,60.0,10.0,64.0
1893,47.0,84.0,90.0,13.0,64.0
1894,78.0,96.0,240.0,0.0,64.0
1895,35.0,0.0,90.0,14.0,64.0
1896,59.0,0.0,960.0,12.0,64.0
1897,35.0,24.0,1050.0,2.0,64.0
1898,47.0,0.0,1050.0,1.0,64.0
1899,51.0,0.0,1050.0,1.0,64.0
1900,54.0,0.0,960.0,12.0,64.0
1901,78.0,48.0,60.0,10.0,64.0
1902,75.0,0.0,60.0,11.0,64.0
1903,75.0,0.0,60.0,10.0,64.0
1904,71.0,12.0,60.0,11.0,64.0
1905,47.0,0.0,90.0,13.0,64.0
1906,75.0,0.0,240.0,0.0,64.0
1907,35.0,84.0,90.0,14.0,64.0
1908,75.0,48.0,60.0,10.0,64.0
1909,66.0,0.0,60.0,11.0,64.0
1910,63.0,0.0,60.0,11.0,64.0
1911,71.0,12.0,60.0,10.0,64.0
1912,71.0,93.0,15.0,0.0,64.0
1913,47.0,84.0,90.0,13.0,64.0
1914,35.0,0.0,90.0,14.0,64.0
1915,71.0,3.0,30.0,10.0,64.0
1916,63.0,0.0,30.0,11.0,64.0
1917,63.0,0.0,60.0,11.0,64.0
1918,71.0,48.0,60.0,10.0,64.0
1919,66.0,12.0,60.0,10.0,64.0
1920,59.0,0.0,60.0,11.0,64.0
1921,35.0,84.0,90.0,14.0,64.0
1922,47.0,0.0,90.0,13.0,64.0
1923,63.0,0.0,240.0,0.0,64.0
1924,66.0,0.0,15.0,0.0,64.0
1925,59.0,0.0,30.0,11.0,64.0
1926,66.0,3.0,30.0,10.0,64.0
1927,66.0,48.0,60.0,10.0,64.0
1928,59.0,0.0,60.0,11.0,64.0
1929,63.0,0.0,60.0,10.0,64.0
1930,54.0,12.0,60.0,11.0,64.0
1931,59.0,0.0,240.0,10.0,64.0
1932,51.0,0.0,240.0,10.0,64.0
1933,47.0,120.0,120.0,13.0,64.0
1934,51.0,96.0,240.0,11.0,64.0
1935,59.0,0.0,240.0,11.0,64.0
1936,35.0,0.0,120.0,14.0,64.0
1937,63.0,0.0,90.0,0.0,64.0
1938,59.0,0.0,90.0,0.0,64.0
1939,54.0,0.0,120.0,13.0,64.0
1940,42.0,0.0,120.0,14.0,64.0
1941,51.0,0.0,120.0,13.0,64.0
1942,54.0,0.0,90.0,11.0,64.0
1943,54.0,0.0,15.0,12.0,64.0
1944,39.0,93.0,120.0,14.0,64.0
1945,54.0,24.0,90.0,10.0,64.0
1946,35.0,126.0,120.0,14.0,64.0
1947,47.0,0.0,120.0,13.0,64.0
1948,59.0,0.0,30.0,11.0,64.0
1949,63.0,21.0,30.0,10.0,64.0
1950,42.0,0.0,120.0,13.0,64.0
1951,63.0,0.0,240.0,10.0,64.0
1952,30.0,0.0,120.0,14.0,64.0
1953,59.0,0.0,240.0,11.0,64.0
1954,29.0,96.0,120.0,14.0,64.0
1955,41.0,0.0,120.0,13.0,64.0
1956,53.0,6.0,120.0,12.0,64.0
1957,54.0,18.0,570.0,12.0,64.0
1958,58.0,0.0,90.0,11.0,64.0
1959,42.0,0.0,120.0,13.0,64.0
1960,61.0,24.0,90.0,10.0,64.0
1961,30.0,114.0,120.0,14.0,64.0
1962,28.0,0.0,120.0,14.0,64.0
1963,40.0,126.0,120.0,13.0,64.0
1964,59.0,60.0,120.0,11.0,64.0
1965,27.0,0.0,120.0,14.0,64.0
1966,39.0,0.0,120.0,13.0,64.0
1967,66.0,30.0,180.0,10.0,64.0
1968,54.0,0.0,120.0,11.0,64.0
1969,39.0,96.0,120.0,14.0,64.0
1970,51.0,0.0,120.0,13.0,64.0
1971,68.0,30.0,30.0,10.0,64.0
1972,70.0,0.0,30.0,10.0,64.0
1973,51.0,6.0,90.0,11.0,64.0
1974,71.0,0.0,90.0,10.0,64.0
1975,47.0,0.0,120.0,13.0,64.0
1976,35.0,96.0,120.0,14.0,64.0
1977,53.0,12.0,90.0,12.0,64.0
1978,44.0,102.0,120.0,13.0,64.0
1979,32.0,0.0,120.0,14.0,64.0
1980,59.0,6.0,60.0,10.0,64.0
1981,59.0,0.0,60.0,11.0,64.0
1982,63.0,96.0,240.0,10.0,64.0
1983,59.0,96.0,360.0,11.0,64.0
1984,54.0,0.0,240.0,12.0,64.0
1985,42.0,120.0,90.0,13.0,64.0
1986,30.0,0.0,90.0,14.0,64.0
1987,42.0,0.0,90.0,14.0,64.0
1988,54.0,24.0,90.0,13.0,64.0
1989,41.0,0.0,90.0,14.0,64.0
1990,61.0,24.0,90.0,10.0,64.0
1991,56.0,0.0,90.0,12.0,64.0
1992,53.0,0.0,90.0,13.0,64.0
1993,54.0,0.0,90.0,12.0,64.0
1994,58.0,24.0,90.0,11.0,64.0
1995,52.0,0.0,120.0,13.0,64.0
1996,40.0,120.0,120.0,14.0,64.0
1997,54.0,0.0,450.0,12.0,64.0
1998,51.0,0.0,120.0,13.0,64.0
1999,66.0,30.0,180.0,10.0,64.0
2000,39.0,0.0,120.0,14.0,64.0
2001,66.0,60.0,120.0,11.0,64.0
2002,37.0,0.0,120.0,14.0,64.0
2003,49.0,96.0,120.0,13.0,64.0
2004,64.0,0.0,120.0,11.0,64.0
2005,68.0,30.0,30.0,10.0,64.0
2006,70.0,0.0,30.0,10.0,64.0
2007,71.0,0.0,90.0,10.0,64.0
2008,63.0,24.0,90.0,11.0,64.0
2009,35.0,96.0,120.0,14.0,64.0
2010,47.0,0.0,120.0,13.0,64.0
2011,33.0,0.0,90.0,14.0,64.0
2012,59.0,12.0,90.0,11.0,64.0
2013,45.0,0.0,90.0,13.0,64.0
2014,63.0,78.0,60.0,10.0,64.0
2015,59.0,0.0,60.0,11.0,64.0
2016,64.0,0.0,60.0,10.0,64.0
2017,32.0,0.0,60.0,14.0,64.0
2018,59.0,0.0,60.0,12.0,64.0
2019,44.0,69.0,60.0,13.0,64.0
2020,58.0,0.0,60.0,12.0,64.0
2021,64.0,0.0,15.0,11.0,64.0
2022,42.0,9.0,60.0,13.0,64.0
2023,30.0,0.0,60.0,14.0,64.0
2024,68.0,15.0,15.0,10.0,64.0
2025,63.0,15.0,15.0,11.0,64.0
2026,66.0,0.0,15.0,10.0,64.0
2027,68.0,0.0,15.0,10.0,64.0
2028,64.0,15.0,15.0,11.0,64.0
2029,63.0,6.0,15.0,11.0,64.0
2030,66.0,0.0,15.0,10.0,64.0
2031,68.0,15.0,15.0,10.0,64.0
2032,64.0,0.0,15.0,11.0,64.0
2033,63.0,0.0,15.0,11.0,64.0
2034,66.0,96.0,15.0,10.0,64.0
2035,40.0,0.0,60.0,13.0,64.0
2036,56.0,0.0,60.0,12.0,64.0
2037,28.0,234.0,60.0,14.0,64.0
2038,64.0,0.0,60.0,11.0,64.0
2039,68.0,0.0,60.0,10.0,64.0
2040,68.0,27.0,60.0,10.0,64.0
2041,71.0,93.0,30.0,10.0,64.0
2042,40.0,60.0,120.0,13.0,64.0
2043,28.0,0.0,120.0,14.0,64.0
2044,52.0,0.0,120.0,12.0,64.0
2045,61.0,27.0,60.0,10.0,64.0
2046,56.0,0.0,120.0,11.0,64.0
2047,64.0,33.0,30.0,10.0,64.0
2048,42.0,0.0,120.0,13.0,64.0
2049,54.0,0.0,120.0,11.0,64.0
2050,63.0,27.0,60.0,10.0,64.0
2051,30.0,0.0,120.0,14.0,64.0
2052,51.0,60.0,120.0,12.0,64.0
2053,66.0,33.0,30.0,10.0,64.0
2054,43.0,0.0,120.0,13.0,64.0
2055,58.0,27.0,60.0,10.0,64.0
2056,52.0,78.0,120.0,11.0,64.0
2057,31.0,0.0,120.0,14.0,64.0
2058,49.0,0.0,120.0,12.0,64.0
2059,61.0,27.0,30.0,10.0,64.0
2060,47.0,162.0,90.0,12.0,64.0
2061,44.0,0.0,90.0,13.0,64.0
2062,59.0,6.0,60.0,10.0,64.0
2063,51.0,0.0,90.0,11.0,64.0
2064,32.0,0.0,90.0,14.0,64.0
2065,33.0,0.0,120.0,14.0,64.0
2066,54.0,120.0,120.0,11.0,64.0
2067,51.0,0.0,120.0,12.0,64.0
2068,45.0,0.0,120.0,13.0,64.0
2069,44.0,0.0,120.0,13.0,64.0
2070,52.0,0.0,120.0,12.0,64.0
2071,56.0,114.0,120.0,11.0,64.0
2072,32.0,0.0,120.0,14.0,64.0
2073,30.0,0.0,120.0,14.0,64.0
2074,59.0,0.0,15.0,10.0,64.0
2075,51.0,0.0,120.0,12.0,64.0
2076,57.0,6.0,120.0,11.0,64.0
2077,42.0,60.0,120.0,13.0,64.0
2078,52.0,9.0,90.0,12.0,64.0
2079,28.0,0.0,90.0,14.0,64.0
2080,40.0,0.0,90.0,13.0,64.0
2081,56.0,18.0,60.0,11.0,64.0
2082,64.0,0.0,30.0,11.0,64.0
2083,68.0,93.0,30.0,10.0,64.0
2084,40.0,0.0,120.0,14.0,64.0
2085,59.0,0.0,240.0,12.0,64.0
2086,68.0,27.0,60.0,11.0,64.0
2087,52.0,60.0,120.0,13.0,64.0
2088,71.0,0.0,60.0,10.0,64.0
2089,68.0,0.0,30.0,10.0,64.0
2090,64.0,33.0,30.0,11.0,64.0
2091,42.0,0.0,120.0,14.0,64.0
2092,54.0,60.0,120.0,13.0,64.0
2093,63.0,27.0,60.0,11.0,64.0
2094,66.0,0.0,60.0,10.0,64.0
2095,63.0,33.0,30.0,10.0,64.0
2096,59.0,0.0,30.0,11.0,64.0
2097,43.0,102.0,120.0,14.0,64.0
2098,55.0,0.0,120.0,13.0,64.0
2099,61.0,0.0,60.0,11.0,64.0
2100,58.0,0.0,120.0,12.0,64.0
2101,64.0,27.0,60.0,10.0,64.0
2102,58.0,0.0,30.0,11.0,64.0
2103,61.0,27.0,30.0,10.0,64.0
2104,59.0,0.0,90.0,12.0,64.0
2105,44.0,144.0,90.0,14.0,64.0
2106,59.0,0.0,90.0,10.0,64.0
2107,56.0,0.0,90.0,13.0,64.0
2108,59.0,0.0,90.0,11.0,64.0
2109,63.0,0.0,120.0,12.0,64.0
2110,69.0,120.0,120.0,11.0,64.0
2111,42.0,0.0,120.0,14.0,64.0
2112,54.0,0.0,120.0,13.0,64.0
2113,40.0,0.0,120.0,14.0,64.0
2114,68.0,0.0,120.0,11.0,64.0
2115,52.0,114.0,120.0,13.0,64.0
2116,64.0,0.0,120.0,12.0,64.0
2117,67.0,0.0,120.0,11.0,64.0
2118,51.0,0.0,120.0,13.0,64.0
2119,71.0,0.0,15.0,10.0,64.0
2120,63.0,0.0,120.0,12.0,64.0
2121,39.0,66.0,120.0,14.0,64.0
2122,40.0,0.0,90.0,14.0,64.0
2123,64.0,9.0,90.0,12.0,64.0
2124,52.0,0.0,90.0,13.0,64.0
2125,68.0,0.0,60.0,11.0,64.0
2126,64.0,93.0,30.0,11.0,64.0
2127,68.0,0.0,30.0,10.0,64.0
2128,40.0,21.0,60.0,14.0,64.0
2129,68.0,0.0,60.0,11.0,64.0
2130,52.0,0.0,60.0,13.0,64.0
2131,71.0,6.0,60.0,10.0,64.0
2132,59.0,72.0,240.0,12.0,64.0
2133,68.0,0.0,30.0,10.0,64.0
2134,64.0,93.0,30.0,11.0,64.0
2135,54.0,0.0,60.0,13.0,64.0
2136,42.0,21.0,60.0,14.0,64.0
2137,66.0,0.0,60.0,10.0,64.0
2138,63.0,6.0,60.0,11.0,64.0
2139,63.0,21.0,30.0,10.0,64.0
2140,59.0,0.0,30.0,11.0,64.0
2141,64.0,6.0,60.0,10.0,64.0
2142,61.0,0.0,60.0,11.0,64.0
2143,42.0,21.0,60.0,13.0,64.0
2144,30.0,0.0,60.0,14.0,64.0
2145,54.0,0.0,90.0,12.0,64.0
2146,52.0,72.0,90.0,12.0,64.0
2147,58.0,0.0,30.0,11.0,64.0
2148,61.0,9.0,30.0,10.0,64.0
2149,59.0,18.0,60.0,11.0,64.0
2150,35.0,0.0,90.0,14.0,64.0
2151,59.0,30.0,60.0,10.0,64.0
2152,78.0,0.0,2010.0,0.0,64.0
2153,47.0,0.0,90.0,13.0,64.0
2154,54.0,12.0,90.0,12.0,64.0
2155,51.0,0.0,90.0,12.0,64.0
2156,59.0,60.0,60.0,11.0,64.0
2157,66.0,42.0,60.0,10.0,64.0
2158,63.0,0.0,60.0,11.0,64.0
2159,54.0,18.0,60.0,12.0,64.0
2160,63.0,60.0,60.0,11.0,64.0
2161,54.0,0.0,60.0,12.0,64.0
2162,52.0,0.0,60.0,12.0,64.0
2163,61.0,18.0,60.0,11.0,64.0
2164,66.0,42.0,60.0,10.0,64.0
2165,52.0,60.0,60.0,12.0,64.0
2166,61.0,0.0,60.0,11.0,64.0
2167,59.0,18.0,60.0,11.0,64.0
2168,66.0,42.0,60.0,10.0,64.0
2169,51.0,0.0,60.0,12.0,64.0
2170,51.0,0.0,60.0,12.0,64.0
2171,59.0,60.0,60.0,11.0,64.0
2172,58.0,42.0,60.0,11.0,64.0
2173,76.0,0.0,480.0,0.0,64.0
2174,49.0,0.0,60.0,12.0,64.0
2175,30.0,0.0,240.0,14.0,64.0
2176,42.0,48.0,240.0,13.0,64.0
2177,78.0,18.0,90.0,10.0,64.0
2178,54.0,48.0,480.0,2.0,64.0
2179,42.0,0.0,480.0,2.0,64.0
2180,49.0,6.0,60.0,12.0,64.0
2181,58.0,0.0,60.0,11.0,64.0
2182,76.0,54.0,20.0,10.0,64.0
2183,76.0,0.0,240.0,10.0,64.0
2184,54.0,60.0,60.0,11.0,64.0
2185,46.0,0.0,60.0,12.0,64.0
2186,46.0,12.0,60.0,12.0,64.0
2187,54.0,0.0,60.0,11.0,64.0
2188,56.0,0.0,60.0,11.0,64.0
2189,30.0,6.0,240.0,14.0,64.0
2190,42.0,0.0,240.0,13.0,64.0
2191,47.0,60.0,60.0,12.0,64.0
2192,56.0,0.0,60.0,11.0,64.0
2193,47.0,42.0,60.0,12.0,64.0
2194,78.0,18.0,30.0,10.0,64.0
2195,58.0,12.0,60.0,11.0,64.0
2196,49.0,0.0,60.0,12.0,64.0
2197,76.0,30.0,30.0,10.0,64.0
2198,49.0,0.0,60.0,12.0,64.0
2199,75.0,18.0,30.0,10.0,64.0
2200,58.0,0.0,60.0,11.0,64.0
2201,73.0,6.0,20.0,10.0,64.0
2202,47.0,0.0,90.0,2.0,64.0
2203,59.0,42.0,60.0,11.0,64.0
2204,35.0,0.0,90.0,14.0,64.0
2205,35.0,0.0,90.0,13.0,64.0
2206,75.0,12.0,90.0,0.0,64.0
2207,54.0,0.0,90.0,2.0,64.0
2208,71.0,6.0,90.0,10.0,64.0
2209,51.0,0.0,60.0,12.0,64.0
2210,51.0,6.0,60.0,12.0,64.0
2211,59.0,0.0,60.0,11.0,64.0
2212,66.0,54.0,20.0,10.0,64.0
2213,66.0,0.0,60.0,11.0,64.0
2214,66.0,42.0,60.0,10.0,64.0
2215,63.0,18.0,60.0,12.0,64.0
2216,63.0,60.0,60.0,12.0,64.0
2217,66.0,0.0,60.0,11.0,64.0
2218,61.0,0.0,60.0,12.0,64.0
2219,66.0,42.0,60.0,10.0,64.0
2220,64.0,18.0,60.0,11.0,64.0
2221,61.0,60.0,60.0,12.0,64.0
2222,64.0,0.0,60.0,11.0,64.0
2223,63.0,0.0,60.0,11.0,64.0
2224,66.0,42.0,60.0,10.0,64.0
2225,59.0,18.0,60.0,12.0,64.0
2226,63.0,60.0,60.0,11.0,64.0
2227,59.0,0.0,60.0,12.0,64.0
2228,58.0,42.0,60.0,12.0,64.0
2229,42.0,66.0,480.0,2.0,64.0
2230,54.0,0.0,480.0,2.0,64.0
2231,42.0,48.0,240.0,14.0,64.0
2232,78.0,18.0,90.0,10.0,64.0
2233,76.0,0.0,480.0,0.0,64.0
2234,42.0,0.0,480.0,1.0,64.0
2235,61.0,0.0,60.0,11.0,64.0
2236,58.0,6.0,60.0,12.0,64.0
2237,61.0,0.0,60.0,11.0,64.0
2238,76.0,54.0,20.0,10.0,64.0
2239,54.0,60.0,60.0,12.0,64.0
2240,58.0,0.0,60.0,11.0,64.0
2241,76.0,42.0,240.0,10.0,64.0
2242,58.0,12.0,60.0,11.0,64.0
2243,54.0,0.0,60.0,12.0,64.0
2244,59.0,0.0,60.0,11.0,64.0
2245,54.0,0.0,15.0,13.0,64.0
2246,56.0,60.0,60.0,12.0,64.0
2247,42.0,6.0,240.0,14.0,64.0
2248,56.0,0.0,60.0,12.0,64.0
2249,59.0,0.0,60.0,11.0,64.0
2250,58.0,12.0,60.0,12.0,64.0
2251,61.0,0.0,60.0,11.0,64.0
2252,78.0,18.0,30.0,10.0,64.0
2253,76.0,30.0,30.0,10.0,64.0
2254,61.0,0.0,60.0,11.0,64.0
2255,58.0,0.0,60.0,12.0,64.0
2256,75.0,18.0,30.0,10.0,64.0
2257,73.0,6.0,20.0,10.0,64.0
2258,75.0,0.0,90.0,0.0,64.0
2259,59.0,0.0,60.0,12.0,64.0
2260,63.0,30.0,60.0,11.0,64.0
2261,35.0,0.0,60.0,14.0,64.0
2262,47.0,0.0,60.0,13.0,64.0
2263,71.0,0.0,60.0,10.0,64.0
2264,47.0,0.0,60.0,1.0,64.0
2265,54.0,90.0,90.0,2.0,64.0
2266,47.0,0.0,90.0,2.0,64.0
2267,54.0,120.0,60.0,1.0,64.0
2268,59.0,0.0,60.0,12.0,64.0
2269,63.0,0.0,60.0,11.0,64.0
2270,51.0,0.0,60.0,1.0,64.0
2271,66.0,0.0,60.0,10.0,64.0
2272,70.0,0.0,90.0,0.0,64.0
2273,42.0,30.0,60.0,13.0,64.0
2274,76.0,0.0,90.0,0.0,64.0
2275,54.0,0.0,90.0,2.0,64.0
2276,42.0,90.0,90.0,2.0,64.0
2277,30.0,0.0,60.0,14.0,64.0
2278,58.0,0.0,60.0,12.0,64.0
2279,61.0,294.0,60.0,11.0,64.0
2280,54.0,0.0,60.0,12.0,64.0
2281,64.0,0.0,60.0,10.0,64.0
2282,52.0,0.0,60.0,1.0,64.0
2283,49.0,0.0,60.0,1.0,64.0
2284,35.0,48.0,300.0,14.0,64.0
2285,35.0,0.0,300.0,13.0,64.0
2286,76.0,0.0,240.0,0.0,64.0
2287,64.0,0.0,240.0,10.0,64.0
2288,52.0,48.0,240.0,1.0,64.0
2289,54.0,984.0,360.0,2.0,64.0
2290,58.0,0.0,240.0,12.0,64.0
2291,49.0,0.0,240.0,1.0,64.0
2292,70.0,0.0,240.0,0.0,64.0
2293,61.0,0.0,240.0,11.0,64.0
2294,54.0,0.0,240.0,12.0,64.0
2295,47.0,0.0,360.0,2.0,64.0
2296,59.0,0.0,90.0,12.0,64.0
2297,54.0,0.0,90.0,12.0,64.0
2298,63.0,0.0,120.0,10.0,64.0
2299,59.0,0.0,90.0,11.0,64.0
2300,75.0,0.0,120.0,0.0,64.0
2301,71.0,0.0,90.0,0.0,64.0
2302,51.0,24.0,90.0,1.0,64.0
2303,47.0,0.0,90.0,1.0,64.0
2304,23.0,0.0,390.0,14.0,64.0
