,note,step,duration,channel,velocity
0,78.0,180.0,90.0,5.0,0.0
1,78.0,182.0,90.0,5.0,0.0
2,47.0,0.0,360.0,10.0,0.0
3,59.0,90.0,90.0,6.0,0.0
4,78.0,0.0,180.0,5.0,0.0
5,59.0,0.0,360.0,8.0,0.0
6,71.0,0.0,360.0,7.0,0.0
7,62.0,71.0,90.0,6.0,0.0
8,74.0,19.0,60.0,5.0,0.0
9,66.0,90.0,90.0,6.0,0.0
10,62.0,88.0,90.0,6.0,0.0
11,78.0,2.0,90.0,5.0,0.0
12,59.0,90.0,90.0,6.0,0.0
13,62.0,88.0,90.0,6.0,0.0
14,66.0,71.0,90.0,6.0,0.0
15,78.0,2.0,90.0,5.0,0.0
16,62.0,109.0,60.0,6.0,0.0
17,46.0,88.0,360.0,10.0,0.0
18,78.0,71.0,180.0,5.0,0.0
19,61.0,90.0,90.0,6.0,0.0
20,70.0,0.0,360.0,7.0,0.0
21,58.0,0.0,360.0,8.0,0.0
22,64.0,0.0,90.0,6.0,0.0
23,73.0,19.0,60.0,5.0,0.0
24,66.0,90.0,90.0,6.0,0.0
25,64.0,0.0,90.0,6.0,0.0
26,78.0,2.0,90.0,5.0,0.0
27,61.0,90.0,90.0,6.0,0.0
28,64.0,88.0,90.0,6.0,0.0
29,78.0,2.0,90.0,5.0,0.0
30,66.0,71.0,90.0,6.0,0.0
31,64.0,109.0,60.0,6.0,0.0
32,78.0,90.0,360.0,5.0,0.0
33,59.0,90.0,90.0,6.0,0.0
34,59.0,0.0,360.0,8.0,0.0
35,71.0,0.0,360.0,7.0,0.0
36,47.0,0.0,360.0,10.0,0.0
37,62.0,90.0,90.0,6.0,0.0
38,66.0,71.0,90.0,6.0,0.0
39,62.0,19.0,60.0,6.0,0.0
40,43.0,17.0,330.0,10.0,0.0
41,59.0,91.0,90.0,6.0,0.0
42,55.0,2.0,330.0,8.0,0.0
43,67.0,0.0,330.0,7.0,0.0
44,77.0,0.0,270.0,5.0,0.0
45,71.0,90.0,90.0,6.0,0.0
46,74.0,53.0,90.0,6.0,0.0
47,71.0,17.0,60.0,6.0,0.0
48,78.0,97.0,90.0,5.0,0.0
49,54.0,97.0,360.0,8.0,0.0
50,66.0,0.0,1800.0,3.0,0.0
51,42.0,0.0,360.0,10.0,0.0
52,70.0,54.0,90.0,6.0,0.0
53,78.0,17.0,150.0,5.0,0.0
54,66.0,0.0,360.0,7.0,0.0
55,54.0,0.0,1800.0,3.0,0.0
56,73.0,102.0,60.0,6.0,0.0
57,70.0,71.0,90.0,6.0,0.0
58,64.0,19.0,60.0,6.0,0.0
59,78.0,0.0,180.0,5.0,0.0
60,62.0,90.0,90.0,6.0,0.0
61,71.0,97.0,90.0,6.0,0.0
62,62.0,0.0,180.0,8.0,0.0
63,66.0,0.0,180.0,7.0,0.0
64,78.0,97.0,180.0,1.0,0.0
65,66.0,0.0,180.0,2.0,0.0
66,74.0,71.0,90.0,6.0,0.0
67,83.0,0.0,180.0,5.0,0.0
68,50.0,0.0,180.0,10.0,0.0
69,78.0,5.0,60.0,6.0,0.0
70,61.0,7.0,180.0,8.0,0.0
71,82.0,29.0,150.0,5.0,0.0
72,79.0,0.0,180.0,1.0,0.0
73,64.0,0.0,270.0,7.0,0.0
74,49.0,0.0,180.0,10.0,0.0
75,66.0,54.0,90.0,6.0,0.0
76,67.0,0.0,180.0,2.0,0.0
77,76.0,90.0,90.0,6.0,0.0
78,54.0,7.0,150.0,8.0,0.0
79,42.0,17.0,150.0,10.0,0.0
80,78.0,90.0,180.0,1.0,0.0
81,73.0,47.0,90.0,6.0,0.0
82,66.0,0.0,180.0,2.0,0.0
83,61.0,0.0,90.0,7.0,0.0
84,76.0,26.0,60.0,6.0,0.0
85,62.0,90.0,180.0,7.0,0.0
86,66.0,83.0,90.0,6.0,0.0
87,78.0,0.0,90.0,5.0,0.0
88,83.0,0.0,90.0,5.0,0.0
89,74.0,0.0,90.0,6.0,0.0
90,62.0,0.0,180.0,8.0,0.0
91,66.0,0.0,180.0,2.0,0.0
92,78.0,92.0,180.0,1.0,0.0
93,50.0,0.0,180.0,10.0,0.0
94,78.0,71.0,90.0,6.0,0.0
95,86.0,0.0,90.0,5.0,0.0
96,59.0,0.0,180.0,7.0,0.0
97,83.0,0.0,90.0,5.0,0.0
98,74.0,12.0,60.0,6.0,0.0
99,61.0,2.0,180.0,8.0,0.0
100,82.0,33.0,150.0,5.0,0.0
101,67.0,0.0,180.0,2.0,0.0
102,64.0,49.0,270.0,7.0,0.0
103,79.0,0.0,180.0,1.0,0.0
104,66.0,55.0,90.0,6.0,0.0
105,49.0,0.0,180.0,10.0,0.0
106,76.0,93.0,90.0,6.0,0.0
107,54.0,6.0,150.0,8.0,0.0
108,73.0,0.0,90.0,6.0,0.0
109,66.0,0.0,180.0,2.0,0.0
110,42.0,17.0,150.0,10.0,0.0
111,78.0,88.0,180.0,1.0,0.0
112,61.0,0.0,90.0,7.0,0.0
113,76.0,15.0,60.0,6.0,0.0
114,73.0,71.0,90.0,6.0,0.0
115,83.0,83.0,180.0,5.0,0.0
116,66.0,0.0,180.0,7.0,0.0
117,71.0,14.0,60.0,6.0,0.0
118,74.0,17.0,150.0,5.0,0.0
119,47.0,0.0,180.0,10.0,0.0
120,71.0,55.0,90.0,6.0,0.0
121,54.0,85.0,180.0,7.0,0.0
122,59.0,0.0,180.0,8.0,0.0
123,66.0,30.0,60.0,6.0,0.0
124,59.0,0.0,90.0,6.0,0.0
125,76.0,45.0,270.0,5.0,0.0
126,43.0,5.0,180.0,10.0,0.0
127,55.0,84.0,180.0,8.0,0.0
128,55.0,72.0,90.0,7.0,0.0
129,59.0,18.0,60.0,7.0,0.0
130,67.0,0.0,90.0,6.0,0.0
131,76.0,0.0,90.0,1.0,0.0
132,79.0,0.0,90.0,1.0,0.0
133,88.0,6.0,90.0,0.0,0.0
134,67.0,0.0,90.0,2.0,0.0
135,71.0,0.0,90.0,6.0,0.0
136,64.0,0.0,90.0,2.0,0.0
137,67.0,0.0,90.0,7.0,0.0
138,40.0,0.0,180.0,10.0,0.0
139,52.0,0.0,180.0,8.0,0.0
140,76.0,88.0,90.0,6.0,0.0
141,78.0,11.0,40.0,5.0,0.0
142,71.0,24.0,60.0,7.0,0.0
143,79.0,10.0,40.0,5.0,0.0
144,57.0,22.0,180.0,8.0,0.0
145,45.0,0.0,180.0,10.0,0.0
146,74.0,2.0,90.0,1.0,0.0
147,78.0,0.0,90.0,1.0,0.0
148,74.0,71.0,90.0,6.0,0.0
149,78.0,0.0,180.0,5.0,0.0
150,69.0,0.0,180.0,7.0,0.0
151,66.0,0.0,90.0,2.0,0.0
152,62.0,0.0,90.0,2.0,0.0
153,86.0,0.0,90.0,0.0,0.0
154,71.0,19.0,60.0,6.0,0.0
155,76.0,23.0,20.0,5.0,0.0
156,73.0,17.0,150.0,7.0,0.0
157,67.0,45.0,90.0,6.0,0.0
158,33.0,0.0,180.0,10.0,0.0
159,45.0,0.0,180.0,8.0,0.0
160,73.0,0.0,90.0,1.0,0.0
161,76.0,0.0,90.0,1.0,0.0
162,85.0,2.0,90.0,0.0,0.0
163,61.0,0.0,90.0,2.0,0.0
164,64.0,0.0,90.0,2.0,0.0
165,78.0,22.0,20.0,5.0,0.0
166,76.0,21.0,20.0,5.0,0.0
167,78.0,0.0,20.0,5.0,0.0
168,74.0,9.0,40.0,5.0,0.0
169,69.0,19.0,60.0,6.0,0.0
170,76.0,180.0,40.0,5.0,0.0
171,86.0,0.0,180.0,0.0,0.0
172,74.0,0.0,180.0,5.0,0.0
173,38.0,0.0,180.0,10.0,0.0
174,74.0,0.0,180.0,1.0,0.0
175,62.0,0.0,180.0,2.0,0.0
176,74.0,180.0,180.0,7.0,0.0
177,66.0,0.0,180.0,6.0,0.0
178,50.0,0.0,180.0,8.0,0.0
179,62.0,88.0,180.0,8.0,0.0
180,50.0,0.0,180.0,10.0,0.0
181,78.0,180.0,90.0,5.0,0.0
182,78.0,182.0,90.0,5.0,0.0
183,59.0,90.0,90.0,6.0,0.0
184,71.0,0.0,360.0,7.0,0.0
185,59.0,88.0,360.0,8.0,0.0
186,78.0,0.0,180.0,5.0,0.0
187,47.0,0.0,360.0,10.0,0.0
188,62.0,71.0,90.0,6.0,0.0
189,66.0,90.0,90.0,6.0,0.0
190,74.0,19.0,60.0,5.0,0.0
191,62.0,0.0,90.0,6.0,0.0
192,59.0,90.0,90.0,6.0,0.0
193,78.0,2.0,90.0,5.0,0.0
194,62.0,88.0,90.0,6.0,0.0
195,66.0,71.0,90.0,6.0,0.0
196,78.0,2.0,90.0,5.0,0.0
197,62.0,109.0,60.0,6.0,0.0
198,58.0,0.0,360.0,8.0,0.0
199,70.0,0.0,360.0,7.0,0.0
200,78.0,0.0,180.0,5.0,0.0
201,46.0,0.0,360.0,10.0,0.0
202,61.0,90.0,90.0,6.0,0.0
203,64.0,71.0,90.0,6.0,0.0
204,66.0,90.0,90.0,6.0,0.0
205,73.0,19.0,60.0,5.0,0.0
206,64.0,88.0,90.0,6.0,0.0
207,78.0,2.0,90.0,5.0,0.0
208,61.0,90.0,90.0,6.0,0.0
209,64.0,88.0,90.0,6.0,0.0
210,66.0,71.0,90.0,6.0,0.0
211,78.0,2.0,90.0,5.0,0.0
212,64.0,109.0,60.0,6.0,0.0
213,59.0,90.0,90.0,6.0,0.0
214,78.0,0.0,360.0,5.0,0.0
215,71.0,0.0,360.0,7.0,0.0
216,47.0,0.0,360.0,10.0,0.0
217,59.0,90.0,360.0,8.0,0.0
218,62.0,90.0,90.0,6.0,0.0
219,66.0,71.0,90.0,6.0,0.0
220,62.0,19.0,60.0,6.0,0.0
221,59.0,91.0,90.0,6.0,0.0
222,77.0,0.0,270.0,5.0,0.0
223,67.0,0.0,330.0,7.0,0.0
224,43.0,17.0,330.0,10.0,0.0
225,55.0,2.0,330.0,8.0,0.0
226,71.0,90.0,90.0,6.0,0.0
227,74.0,53.0,90.0,6.0,0.0
228,71.0,17.0,60.0,6.0,0.0
229,78.0,97.0,90.0,5.0,0.0
230,54.0,97.0,360.0,8.0,0.0
231,78.0,17.0,150.0,5.0,0.0
232,66.0,0.0,1800.0,3.0,0.0
233,54.0,0.0,1800.0,3.0,0.0
234,66.0,0.0,360.0,7.0,0.0
235,70.0,54.0,90.0,6.0,0.0
236,42.0,0.0,360.0,10.0,0.0
237,73.0,102.0,60.0,6.0,0.0
238,70.0,71.0,90.0,6.0,0.0
239,64.0,19.0,60.0,6.0,0.0
240,62.0,90.0,90.0,6.0,0.0
241,78.0,0.0,180.0,5.0,0.0
242,71.0,97.0,90.0,6.0,0.0
243,62.0,0.0,180.0,8.0,0.0
244,74.0,71.0,90.0,6.0,0.0
245,66.0,97.0,180.0,7.0,0.0
246,66.0,0.0,180.0,2.0,0.0
247,50.0,0.0,180.0,10.0,0.0
248,83.0,0.0,180.0,5.0,0.0
249,78.0,0.0,180.0,1.0,0.0
250,78.0,5.0,60.0,6.0,0.0
251,61.0,7.0,180.0,8.0,0.0
252,49.0,0.0,180.0,10.0,0.0
253,66.0,54.0,90.0,6.0,0.0
254,64.0,47.0,270.0,7.0,0.0
255,79.0,0.0,180.0,1.0,0.0
256,82.0,29.0,150.0,5.0,0.0
257,67.0,0.0,180.0,2.0,0.0
258,76.0,90.0,90.0,6.0,0.0
259,54.0,7.0,150.0,8.0,0.0
260,42.0,17.0,150.0,10.0,0.0
261,66.0,0.0,180.0,2.0,0.0
262,73.0,0.0,90.0,6.0,0.0
263,78.0,90.0,180.0,1.0,0.0
264,76.0,26.0,60.0,6.0,0.0
265,61.0,0.0,90.0,7.0,0.0
266,66.0,83.0,90.0,6.0,0.0
267,78.0,0.0,90.0,5.0,0.0
268,62.0,0.0,180.0,7.0,0.0
269,83.0,90.0,90.0,5.0,0.0
270,74.0,0.0,90.0,6.0,0.0
271,62.0,0.0,180.0,8.0,0.0
272,78.0,92.0,180.0,1.0,0.0
273,86.0,71.0,90.0,5.0,0.0
274,50.0,0.0,180.0,10.0,0.0
275,78.0,0.0,90.0,6.0,0.0
276,59.0,0.0,180.0,7.0,0.0
277,66.0,0.0,180.0,2.0,0.0
278,74.0,12.0,60.0,6.0,0.0
279,83.0,0.0,90.0,5.0,0.0
280,61.0,2.0,180.0,8.0,0.0
281,49.0,93.0,180.0,10.0,0.0
282,79.0,0.0,180.0,1.0,0.0
283,66.0,55.0,90.0,6.0,0.0
284,67.0,0.0,180.0,2.0,0.0
285,64.0,49.0,270.0,7.0,0.0
286,82.0,33.0,150.0,5.0,0.0
287,76.0,0.0,90.0,6.0,0.0
288,54.0,6.0,150.0,8.0,0.0
289,73.0,0.0,90.0,6.0,0.0
290,66.0,0.0,180.0,2.0,0.0
291,78.0,0.0,180.0,1.0,0.0
292,42.0,17.0,150.0,10.0,0.0
293,61.0,88.0,90.0,7.0,0.0
294,76.0,15.0,60.0,6.0,0.0
295,83.0,83.0,180.0,5.0,0.0
296,73.0,71.0,90.0,6.0,0.0
297,66.0,0.0,180.0,7.0,0.0
298,71.0,14.0,60.0,6.0,0.0
299,47.0,85.0,180.0,10.0,0.0
300,54.0,0.0,180.0,7.0,0.0
301,74.0,17.0,150.0,5.0,0.0
302,71.0,55.0,90.0,6.0,0.0
303,59.0,0.0,180.0,8.0,0.0
304,66.0,30.0,60.0,6.0,0.0
305,59.0,0.0,90.0,6.0,0.0
306,76.0,0.0,270.0,5.0,0.0
307,43.0,5.0,180.0,10.0,0.0
308,55.0,84.0,180.0,8.0,0.0
309,55.0,72.0,90.0,7.0,0.0
310,59.0,18.0,60.0,7.0,0.0
311,67.0,0.0,90.0,6.0,0.0
312,67.0,0.0,90.0,2.0,0.0
313,67.0,0.0,90.0,7.0,0.0
314,79.0,0.0,90.0,1.0,0.0
315,71.0,45.0,90.0,6.0,0.0
316,76.0,0.0,90.0,1.0,0.0
317,64.0,6.0,90.0,2.0,0.0
318,88.0,0.0,90.0,0.0,0.0
319,40.0,0.0,180.0,10.0,0.0
320,52.0,0.0,180.0,8.0,0.0
321,76.0,88.0,90.0,6.0,0.0
322,78.0,11.0,40.0,5.0,0.0
323,71.0,24.0,60.0,7.0,0.0
324,79.0,10.0,40.0,5.0,0.0
325,86.0,0.0,90.0,0.0,0.0
326,74.0,71.0,90.0,6.0,0.0
327,78.0,0.0,90.0,1.0,0.0
328,62.0,2.0,90.0,2.0,0.0
329,69.0,0.0,180.0,7.0,0.0
330,57.0,0.0,180.0,8.0,0.0
331,74.0,0.0,90.0,1.0,0.0
332,66.0,0.0,90.0,2.0,0.0
333,78.0,0.0,180.0,5.0,0.0
334,45.0,22.0,180.0,10.0,0.0
335,71.0,19.0,60.0,6.0,0.0
336,67.0,0.0,90.0,6.0,0.0
337,76.0,0.0,90.0,1.0,0.0
338,73.0,0.0,90.0,1.0,0.0
339,45.0,0.0,180.0,8.0,0.0
340,76.0,23.0,20.0,5.0,0.0
341,33.0,180.0,180.0,10.0,0.0
342,85.0,0.0,90.0,0.0,0.0
343,64.0,0.0,90.0,2.0,0.0
344,61.0,2.0,90.0,2.0,0.0
345,73.0,17.0,150.0,7.0,0.0
346,78.0,22.0,20.0,5.0,0.0
347,76.0,21.0,20.0,5.0,0.0
348,78.0,45.0,20.0,5.0,0.0
349,74.0,9.0,40.0,5.0,0.0
350,69.0,19.0,60.0,6.0,0.0
351,76.0,0.0,40.0,5.0,0.0
352,74.0,0.0,180.0,7.0,0.0
353,62.0,0.0,180.0,2.0,0.0
354,74.0,0.0,180.0,1.0,0.0
355,38.0,0.0,180.0,10.0,0.0
356,74.0,0.0,180.0,5.0,0.0
357,86.0,180.0,180.0,0.0,0.0
358,66.0,0.0,180.0,6.0,0.0
359,50.0,0.0,180.0,8.0,0.0
360,50.0,0.0,180.0,10.0,0.0
361,62.0,88.0,180.0,8.0,0.0
362,81.0,2.0,90.0,5.0,0.0
363,66.0,0.0,90.0,6.0,0.0
364,62.0,90.0,90.0,7.0,0.0
365,69.0,88.0,90.0,6.0,0.0
366,66.0,0.0,90.0,7.0,0.0
367,81.0,2.0,90.0,5.0,0.0
368,69.0,71.0,90.0,7.0,0.0
369,74.0,0.0,90.0,6.0,0.0
370,69.0,0.0,60.0,6.0,0.0
371,66.0,379.0,60.0,7.0,0.0
372,74.0,0.0,360.0,7.0,0.0
373,81.0,90.0,450.0,5.0,0.0
374,78.0,0.0,360.0,6.0,0.0
375,62.0,0.0,180.0,8.0,0.0
376,50.0,90.0,180.0,10.0,0.0
377,59.0,0.0,180.0,8.0,0.0
378,71.0,0.0,180.0,7.0,0.0
379,74.0,0.0,270.0,6.0,0.0
380,47.0,0.0,180.0,10.0,0.0
381,80.0,81.0,90.0,5.0,0.0
382,68.0,8.0,150.0,7.0,0.0
383,56.0,9.0,150.0,8.0,0.0
384,44.0,0.0,150.0,10.0,0.0
385,83.0,55.0,90.0,5.0,0.0
386,71.0,0.0,60.0,6.0,0.0
387,80.0,198.0,60.0,5.0,0.0
388,78.0,145.0,180.0,5.0,0.0
389,73.0,0.0,360.0,7.0,0.0
390,69.0,0.0,180.0,6.0,0.0
391,49.0,0.0,360.0,10.0,0.0
392,61.0,360.0,360.0,8.0,0.0
393,77.0,44.0,150.0,5.0,0.0
394,68.0,0.0,150.0,6.0,0.0
395,54.0,0.0,360.0,2.0,0.0
396,85.0,84.0,810.0,0.0,0.0
397,54.0,0.0,360.0,3.0,0.0
398,66.0,0.0,360.0,3.0,0.0
399,66.0,0.0,360.0,2.0,0.0
400,66.0,0.0,360.0,7.0,0.0
401,73.0,0.0,360.0,6.0,0.0
402,54.0,180.0,360.0,8.0,0.0
403,85.0,0.0,540.0,5.0,0.0
404,66.0,0.0,360.0,6.0,0.0
405,81.0,0.0,540.0,1.0,0.0
406,81.0,0.0,540.0,6.0,0.0
407,73.0,0.0,360.0,5.0,0.0
408,42.0,0.0,360.0,10.0,0.0
409,73.0,90.0,540.0,1.0,0.0
410,80.0,0.0,90.0,6.0,0.0
411,83.0,71.0,90.0,5.0,0.0
412,78.0,0.0,60.0,6.0,0.0
413,81.0,109.0,60.0,5.0,0.0
414,81.0,0.0,90.0,5.0,0.0
415,73.0,0.0,90.0,6.0,0.0
416,49.0,0.0,180.0,10.0,0.0
417,61.0,80.0,180.0,8.0,0.0
418,80.0,6.0,90.0,5.0,0.0
419,71.0,0.0,90.0,6.0,0.0
420,83.0,0.0,90.0,0.0,0.0
421,37.0,82.0,180.0,10.0,0.0
422,69.0,0.0,90.0,6.0,0.0
423,73.0,0.0,15.0,7.0,0.0
424,81.0,71.0,90.0,0.0,0.0
425,78.0,0.0,90.0,5.0,0.0
426,49.0,0.0,180.0,8.0,0.0
427,68.0,29.0,60.0,6.0,0.0
428,77.0,0.0,60.0,5.0,0.0
429,80.0,0.0,90.0,0.0,0.0
430,69.0,0.0,180.0,6.0,0.0
431,78.0,0.0,180.0,5.0,0.0
432,78.0,90.0,90.0,0.0,0.0
433,73.0,0.0,180.0,7.0,0.0
434,54.0,85.0,180.0,8.0,0.0
435,42.0,0.0,180.0,10.0,0.0
436,80.0,8.0,90.0,0.0,0.0
437,81.0,95.0,90.0,0.0,0.0
438,82.0,90.0,90.0,0.0,0.0
439,71.0,71.0,90.0,6.0,0.0
440,83.0,5.0,1260.0,0.0,0.0
441,79.0,0.0,90.0,5.0,0.0
442,69.0,19.0,60.0,6.0,0.0
443,78.0,0.0,60.0,5.0,0.0
444,67.0,0.0,40.0,6.0,0.0
445,71.0,0.0,180.0,7.0,0.0
446,83.0,43.0,15.0,1.0,0.0
447,71.0,0.0,15.0,1.0,0.0
448,76.0,93.0,40.0,5.0,0.0
449,47.0,0.0,180.0,10.0,0.0
450,59.0,25.0,180.0,8.0,0.0
451,75.0,0.0,40.0,5.0,0.0
452,66.0,44.0,40.0,6.0,0.0
453,64.0,2.0,360.0,8.0,0.0
454,83.0,0.0,900.0,1.0,0.0
455,71.0,0.0,900.0,1.0,0.0
456,67.0,0.0,20.0,6.0,0.0
457,71.0,88.0,360.0,7.0,0.0
458,76.0,22.0,20.0,5.0,0.0
459,52.0,0.0,360.0,10.0,0.0
460,69.0,0.0,20.0,6.0,0.0
461,78.0,45.0,20.0,5.0,0.0
462,67.0,72.0,40.0,6.0,0.0
463,76.0,0.0,40.0,5.0,0.0
464,75.0,0.0,60.0,5.0,0.0
465,66.0,62.0,60.0,6.0,0.0
466,76.0,90.0,40.0,5.0,0.0
467,67.0,0.0,40.0,6.0,0.0
468,69.0,44.0,40.0,6.0,0.0
469,78.0,0.0,40.0,5.0,0.0
470,71.0,0.0,90.0,6.0,0.0
471,79.0,71.0,90.0,5.0,0.0
472,78.0,0.0,60.0,5.0,0.0
473,69.0,62.0,60.0,6.0,0.0
474,47.0,0.0,180.0,10.0,0.0
475,71.0,175.0,180.0,7.0,0.0
476,59.0,0.0,180.0,8.0,0.0
477,76.0,86.0,40.0,5.0,0.0
478,67.0,0.0,40.0,6.0,0.0
479,66.0,51.0,40.0,6.0,0.0
480,75.0,0.0,40.0,5.0,0.0
481,67.0,0.0,180.0,6.0,0.0
482,76.0,180.0,180.0,5.0,0.0
483,40.0,88.0,360.0,10.0,0.0
484,52.0,0.0,360.0,8.0,0.0
485,71.0,0.0,180.0,7.0,0.0
486,72.0,88.0,180.0,6.0,0.0
487,76.0,92.0,90.0,5.0,0.0
488,67.0,88.0,180.0,7.0,0.0
489,76.0,56.0,90.0,5.0,0.0
490,71.0,36.0,150.0,6.0,0.0
491,76.0,71.0,180.0,5.0,0.0
492,70.0,92.0,90.0,6.0,0.0
493,66.0,124.0,330.0,7.0,0.0
494,73.0,73.0,60.0,5.0,0.0
495,48.0,0.0,180.0,10.0,0.0
496,67.0,0.0,90.0,2.0,0.0
497,82.0,92.0,90.0,5.0,0.0
498,60.0,88.0,180.0,8.0,0.0
499,76.0,0.0,90.0,6.0,0.0
500,91.0,0.0,90.0,0.0,0.0
501,79.0,0.0,90.0,1.0,0.0
502,47.0,124.0,150.0,10.0,0.0
503,79.0,56.0,90.0,1.0,0.0
504,91.0,0.0,90.0,0.0,0.0
505,67.0,0.0,90.0,2.0,0.0
506,59.0,0.0,150.0,8.0,0.0
507,85.0,0.0,90.0,6.0,0.0
508,58.0,0.0,180.0,8.0,0.0
509,67.0,0.0,180.0,2.0,0.0
510,91.0,0.0,180.0,0.0,0.0
511,46.0,0.0,180.0,10.0,0.0
512,88.0,92.0,90.0,5.0,0.0
513,79.0,90.0,180.0,1.0,0.0
514,78.0,0.0,90.0,1.0,0.0
515,66.0,270.0,90.0,2.0,0.0
516,90.0,0.0,90.0,0.0,0.0
517,47.0,0.0,180.0,8.0,0.0
518,65.0,0.0,180.0,6.0,0.0
519,86.0,0.0,180.0,5.0,0.0
520,35.0,0.0,180.0,10.0,0.0
521,56.0,144.0,180.0,7.0,0.0
522,77.0,216.0,150.0,5.0,0.0
523,74.0,0.0,150.0,6.0,0.0
524,47.0,0.0,150.0,10.0,0.0
525,68.0,0.0,150.0,7.0,0.0
526,59.0,0.0,150.0,8.0,0.0
527,58.0,9.0,180.0,8.0,0.0
528,46.0,0.0,180.0,10.0,0.0
529,70.0,0.0,180.0,7.0,0.0
530,73.0,86.0,180.0,6.0,0.0
531,78.0,0.0,180.0,5.0,0.0
532,59.0,0.0,180.0,8.0,0.0
533,76.0,85.0,90.0,5.0,0.0
534,66.0,78.0,270.0,6.0,0.0
535,71.0,0.0,180.0,7.0,0.0
536,47.0,85.0,180.0,10.0,0.0
537,74.0,0.0,90.0,5.0,0.0
538,52.0,73.0,180.0,8.0,0.0
539,67.0,0.0,150.0,7.0,0.0
540,40.0,17.0,150.0,10.0,0.0
541,74.0,0.0,90.0,5.0,0.0
542,64.0,0.0,90.0,6.0,0.0
543,73.0,0.0,90.0,5.0,0.0
544,71.0,54.0,90.0,5.0,0.0
545,42.0,0.0,150.0,10.0,0.0
546,66.0,17.0,150.0,7.0,0.0
547,62.0,0.0,90.0,6.0,0.0
548,54.0,36.0,150.0,8.0,0.0
549,70.0,172.0,120.0,5.0,0.0
550,61.0,0.0,60.0,6.0,0.0
551,86.0,0.0,180.0,0.0,0.0
552,71.0,180.0,720.0,3.0,0.0
553,59.0,0.0,720.0,3.0,0.0
554,71.0,0.0,180.0,7.0,0.0
555,59.0,0.0,540.0,2.0,0.0
556,59.0,183.0,180.0,6.0,0.0
557,62.0,0.0,180.0,2.0,0.0
558,71.0,144.0,540.0,1.0,0.0
559,74.0,0.0,180.0,1.0,0.0
560,43.0,0.0,540.0,10.0,0.0
561,71.0,0.0,180.0,5.0,0.0
562,55.0,0.0,540.0,8.0,0.0
563,63.0,2.0,180.0,2.0,0.0
564,75.0,0.0,180.0,1.0,0.0
565,87.0,183.0,180.0,0.0,0.0
566,76.0,0.0,180.0,1.0,0.0
567,59.0,0.0,180.0,7.0,0.0
568,71.0,0.0,180.0,6.0,0.0
569,64.0,0.0,180.0,2.0,0.0
570,83.0,0.0,180.0,5.0,0.0
571,88.0,0.0,180.0,0.0,0.0
572,71.0,36.0,150.0,7.0,0.0
573,77.0,0.0,150.0,5.0,0.0
574,89.0,0.0,150.0,0.0,0.0
575,44.0,0.0,180.0,10.0,0.0
576,62.0,0.0,150.0,2.0,0.0
577,56.0,0.0,180.0,8.0,0.0
578,74.0,0.0,150.0,1.0,0.0
579,77.0,0.0,150.0,1.0,0.0
580,74.0,0.0,150.0,6.0,0.0
581,65.0,0.0,150.0,2.0,0.0
582,61.0,0.0,180.0,2.0,0.0
583,66.0,0.0,540.0,2.0,0.0
584,73.0,0.0,180.0,6.0,0.0
585,78.0,0.0,540.0,1.0,0.0
586,73.0,0.0,180.0,1.0,0.0
587,90.0,0.0,540.0,0.0,0.0
588,66.0,0.0,180.0,7.0,0.0
589,73.0,36.0,330.0,3.0,0.0
590,66.0,0.0,330.0,3.0,0.0
591,78.0,0.0,540.0,5.0,0.0
592,57.0,0.0,180.0,8.0,0.0
593,45.0,144.0,180.0,10.0,0.0
594,64.0,0.0,180.0,2.0,0.0
595,76.0,0.0,150.0,6.0,0.0
596,46.0,0.0,180.0,10.0,0.0
597,76.0,180.0,180.0,1.0,0.0
598,73.0,0.0,180.0,7.0,0.0
599,58.0,0.0,180.0,8.0,0.0
600,62.0,0.0,180.0,2.0,0.0
601,74.0,0.0,180.0,6.0,0.0
602,71.0,0.0,180.0,7.0,0.0
603,59.0,0.0,180.0,8.0,0.0
604,59.0,0.0,180.0,3.0,0.0
605,71.0,90.0,180.0,3.0,0.0
606,74.0,0.0,180.0,1.0,0.0
607,47.0,0.0,180.0,10.0,0.0
608,66.0,95.0,180.0,7.0,0.0
609,76.0,0.0,90.0,5.0,0.0
610,76.0,71.0,90.0,1.0,0.0
611,88.0,0.0,90.0,0.0,0.0
612,64.0,0.0,90.0,2.0,0.0
613,73.0,0.0,90.0,6.0,0.0
614,62.0,0.0,60.0,2.0,0.0
615,74.0,0.0,60.0,1.0,0.0
616,74.0,0.0,60.0,5.0,0.0
617,86.0,0.0,60.0,0.0,0.0
618,71.0,19.0,60.0,6.0,0.0
619,52.0,2.0,180.0,8.0,0.0
620,62.0,0.0,90.0,2.0,0.0
621,67.0,0.0,270.0,6.0,0.0
622,74.0,0.0,90.0,5.0,0.0
623,64.0,0.0,180.0,7.0,0.0
624,86.0,0.0,90.0,0.0,0.0
625,74.0,85.0,90.0,1.0,0.0
626,73.0,88.0,90.0,1.0,0.0
627,61.0,0.0,90.0,2.0,0.0
628,73.0,0.0,90.0,5.0,0.0
629,85.0,0.0,90.0,0.0,0.0
630,52.0,174.0,180.0,8.0,0.0
631,88.0,0.0,90.0,0.0,0.0
632,64.0,54.0,90.0,2.0,0.0
633,40.0,0.0,15.0,10.0,0.0
634,67.0,17.0,150.0,7.0,0.0
635,76.0,0.0,90.0,5.0,0.0
636,76.0,0.0,90.0,1.0,0.0
637,85.0,0.0,60.0,0.0,0.0
638,61.0,16.0,60.0,2.0,0.0
639,73.0,0.0,60.0,1.0,0.0
640,73.0,0.0,60.0,5.0,0.0
641,64.0,0.0,60.0,6.0,0.0
642,83.0,0.0,180.0,0.0,0.0
643,66.0,0.0,180.0,7.0,0.0
644,71.0,0.0,180.0,5.0,0.0
645,71.0,0.0,180.0,1.0,0.0
646,62.0,0.0,180.0,6.0,0.0
647,59.0,0.0,180.0,2.0,0.0
648,61.0,0.0,180.0,6.0,0.0
649,70.0,180.0,180.0,5.0,0.0
650,82.0,0.0,180.0,0.0,0.0
651,66.0,0.0,15.0,3.0,0.0
652,58.0,41.0,150.0,2.0,0.0
653,64.0,0.0,180.0,7.0,0.0
654,42.0,6.0,15.0,10.0,0.0
655,70.0,0.0,150.0,1.0,0.0
656,54.0,139.0,15.0,8.0,0.0
657,59.0,0.0,180.0,2.0,0.0
658,71.0,0.0,180.0,1.0,0.0
659,59.0,0.0,180.0,6.0,0.0
660,83.0,0.0,180.0,0.0,0.0
661,71.0,0.0,180.0,5.0,0.0
662,59.0,0.0,180.0,3.0,0.0
663,66.0,0.0,180.0,3.0,0.0
664,35.0,0.0,180.0,10.0,0.0
665,62.0,0.0,180.0,7.0,0.0
666,47.0,270.0,180.0,8.0,0.0
667,81.0,0.0,90.0,5.0,0.0
668,62.0,0.0,90.0,7.0,0.0
669,66.0,90.0,90.0,6.0,0.0
670,69.0,0.0,90.0,6.0,0.0
671,66.0,88.0,90.0,7.0,0.0
672,81.0,2.0,90.0,5.0,0.0
673,69.0,0.0,90.0,7.0,0.0
674,74.0,71.0,90.0,6.0,0.0
675,69.0,379.0,60.0,6.0,0.0
676,66.0,0.0,60.0,7.0,0.0
677,81.0,90.0,450.0,5.0,0.0
678,74.0,0.0,360.0,7.0,0.0
679,78.0,0.0,360.0,6.0,0.0
680,62.0,90.0,180.0,8.0,0.0
681,50.0,0.0,180.0,10.0,0.0
682,47.0,0.0,180.0,10.0,0.0
683,74.0,0.0,270.0,6.0,0.0
684,71.0,0.0,180.0,7.0,0.0
685,59.0,87.0,180.0,8.0,0.0
686,80.0,0.0,90.0,5.0,0.0
687,44.0,2.0,150.0,10.0,0.0
688,83.0,55.0,90.0,5.0,0.0
689,68.0,0.0,150.0,7.0,0.0
690,56.0,14.0,150.0,8.0,0.0
691,80.0,0.0,60.0,5.0,0.0
692,71.0,197.0,60.0,6.0,0.0
693,78.0,0.0,180.0,5.0,0.0
694,73.0,360.0,360.0,7.0,0.0
695,69.0,145.0,180.0,6.0,0.0
696,49.0,0.0,360.0,10.0,0.0
697,61.0,0.0,360.0,8.0,0.0
698,68.0,0.0,150.0,6.0,0.0
699,77.0,40.0,150.0,5.0,0.0
700,54.0,0.0,360.0,3.0,0.0
701,54.0,0.0,360.0,8.0,0.0
702,66.0,0.0,360.0,3.0,0.0
703,66.0,0.0,360.0,2.0,0.0
704,73.0,0.0,360.0,6.0,0.0
705,66.0,0.0,360.0,6.0,0.0
706,54.0,180.0,360.0,2.0,0.0
707,73.0,0.0,360.0,5.0,0.0
708,81.0,0.0,540.0,1.0,0.0
709,73.0,0.0,540.0,1.0,0.0
710,85.0,0.0,540.0,5.0,0.0
711,85.0,85.0,810.0,0.0,0.0
712,66.0,0.0,360.0,7.0,0.0
713,81.0,90.0,540.0,6.0,0.0
714,42.0,0.0,360.0,10.0,0.0
715,80.0,0.0,90.0,6.0,0.0
716,83.0,71.0,90.0,5.0,0.0
717,81.0,109.0,60.0,5.0,0.0
718,78.0,0.0,60.0,6.0,0.0
719,49.0,0.0,180.0,10.0,0.0
720,81.0,0.0,90.0,5.0,0.0
721,61.0,81.0,180.0,8.0,0.0
722,73.0,0.0,90.0,6.0,0.0
723,83.0,5.0,90.0,0.0,0.0
724,80.0,0.0,90.0,5.0,0.0
725,71.0,0.0,90.0,6.0,0.0
726,73.0,0.0,15.0,7.0,0.0
727,78.0,0.0,90.0,5.0,0.0
728,37.0,0.0,180.0,10.0,0.0
729,69.0,0.0,90.0,6.0,0.0
730,81.0,72.0,90.0,0.0,0.0
731,49.0,0.0,180.0,8.0,0.0
732,77.0,0.0,60.0,5.0,0.0
733,68.0,27.0,60.0,6.0,0.0
734,80.0,0.0,90.0,0.0,0.0
735,78.0,0.0,180.0,5.0,0.0
736,69.0,0.0,180.0,6.0,0.0
737,42.0,0.0,180.0,10.0,0.0
738,73.0,82.0,15.0,7.0,0.0
739,78.0,90.0,90.0,0.0,0.0
740,54.0,85.0,180.0,8.0,0.0
741,80.0,0.0,90.0,0.0,0.0
742,81.0,95.0,90.0,0.0,0.0
743,82.0,90.0,90.0,0.0,0.0
744,79.0,71.0,90.0,5.0,0.0
745,83.0,5.0,1260.0,0.0,0.0
746,71.0,0.0,180.0,1.0,0.0
747,71.0,0.0,90.0,6.0,0.0
748,78.0,0.0,60.0,5.0,0.0
749,69.0,19.0,60.0,6.0,0.0
750,76.0,0.0,40.0,5.0,0.0
751,83.0,43.0,15.0,1.0,0.0
752,71.0,25.0,180.0,1.0,0.0
753,71.0,0.0,180.0,7.0,0.0
754,59.0,0.0,180.0,8.0,0.0
755,67.0,93.0,40.0,6.0,0.0
756,47.0,0.0,180.0,10.0,0.0
757,75.0,0.0,40.0,5.0,0.0
758,66.0,44.0,40.0,6.0,0.0
759,64.0,2.0,360.0,8.0,0.0
760,76.0,22.0,20.0,5.0,0.0
761,71.0,180.0,900.0,1.0,0.0
762,52.0,88.0,360.0,10.0,0.0
763,83.0,0.0,900.0,1.0,0.0
764,67.0,0.0,20.0,6.0,0.0
765,71.0,0.0,360.0,7.0,0.0
766,69.0,0.0,20.0,6.0,0.0
767,78.0,45.0,20.0,5.0,0.0
768,76.0,0.0,40.0,5.0,0.0
769,67.0,72.0,40.0,6.0,0.0
770,75.0,0.0,60.0,5.0,0.0
771,66.0,62.0,60.0,6.0,0.0
772,76.0,0.0,40.0,5.0,0.0
773,67.0,90.0,40.0,6.0,0.0
774,69.0,44.0,40.0,6.0,0.0
775,78.0,0.0,40.0,5.0,0.0
776,71.0,71.0,90.0,6.0,0.0
777,79.0,0.0,90.0,5.0,0.0
778,78.0,0.0,60.0,5.0,0.0
779,69.0,62.0,60.0,6.0,0.0
780,59.0,0.0,180.0,8.0,0.0
781,76.0,0.0,40.0,5.0,0.0
782,47.0,175.0,180.0,10.0,0.0
783,71.0,0.0,180.0,7.0,0.0
784,67.0,86.0,40.0,6.0,0.0
785,75.0,51.0,40.0,5.0,0.0
786,66.0,0.0,40.0,6.0,0.0
787,76.0,0.0,180.0,5.0,0.0
788,67.0,0.0,180.0,6.0,0.0
789,52.0,0.0,360.0,8.0,0.0
790,71.0,0.0,180.0,7.0,0.0
791,40.0,88.0,360.0,10.0,0.0
792,72.0,88.0,180.0,6.0,0.0
793,76.0,92.0,90.0,5.0,0.0
794,71.0,36.0,150.0,6.0,0.0
795,76.0,56.0,90.0,5.0,0.0
796,67.0,88.0,180.0,7.0,0.0
797,70.0,92.0,90.0,6.0,0.0
798,76.0,71.0,180.0,5.0,0.0
799,66.0,124.0,330.0,7.0,0.0
800,73.0,73.0,60.0,5.0,0.0
801,82.0,92.0,90.0,5.0,0.0
802,76.0,0.0,90.0,6.0,0.0
803,60.0,0.0,180.0,8.0,0.0
804,79.0,0.0,90.0,1.0,0.0
805,91.0,0.0,90.0,0.0,0.0
806,67.0,0.0,90.0,2.0,0.0
807,48.0,88.0,180.0,10.0,0.0
808,67.0,56.0,90.0,2.0,0.0
809,91.0,0.0,90.0,0.0,0.0
810,79.0,0.0,90.0,1.0,0.0
811,59.0,124.0,150.0,8.0,0.0
812,47.0,0.0,150.0,10.0,0.0
813,67.0,90.0,180.0,2.0,0.0
814,88.0,0.0,90.0,5.0,0.0
815,46.0,0.0,180.0,10.0,0.0
816,79.0,0.0,180.0,1.0,0.0
817,85.0,92.0,90.0,6.0,0.0
818,58.0,0.0,180.0,8.0,0.0
819,91.0,0.0,180.0,0.0,0.0
820,90.0,270.0,90.0,0.0,0.0
821,78.0,0.0,90.0,1.0,0.0
822,66.0,0.0,90.0,2.0,0.0
823,86.0,0.0,180.0,5.0,0.0
824,65.0,0.0,180.0,6.0,0.0
825,56.0,144.0,180.0,7.0,0.0
826,47.0,0.0,180.0,8.0,0.0
827,35.0,0.0,180.0,10.0,0.0
828,74.0,216.0,150.0,6.0,0.0
829,77.0,0.0,150.0,5.0,0.0
830,47.0,0.0,150.0,10.0,0.0
831,68.0,0.0,150.0,7.0,0.0
832,59.0,0.0,150.0,8.0,0.0
833,58.0,9.0,180.0,8.0,0.0
834,73.0,0.0,180.0,6.0,0.0
835,78.0,0.0,180.0,5.0,0.0
836,46.0,86.0,180.0,10.0,0.0
837,70.0,0.0,180.0,7.0,0.0
838,59.0,0.0,180.0,8.0,0.0
839,76.0,85.0,90.0,5.0,0.0
840,71.0,85.0,180.0,7.0,0.0
841,47.0,0.0,180.0,10.0,0.0
842,66.0,78.0,270.0,6.0,0.0
843,74.0,0.0,90.0,5.0,0.0
844,40.0,0.0,150.0,10.0,0.0
845,52.0,73.0,180.0,8.0,0.0
846,67.0,0.0,150.0,7.0,0.0
847,74.0,0.0,90.0,5.0,0.0
848,64.0,17.0,90.0,6.0,0.0
849,73.0,0.0,90.0,5.0,0.0
850,42.0,0.0,150.0,10.0,0.0
851,71.0,54.0,90.0,5.0,0.0
852,66.0,17.0,150.0,7.0,0.0
853,62.0,0.0,90.0,6.0,0.0
854,54.0,36.0,150.0,8.0,0.0
855,61.0,0.0,60.0,6.0,0.0
856,70.0,172.0,120.0,5.0,0.0
857,86.0,0.0,180.0,0.0,0.0
858,59.0,0.0,540.0,2.0,0.0
859,62.0,0.0,180.0,2.0,0.0
860,71.0,0.0,180.0,7.0,0.0
861,71.0,0.0,720.0,3.0,0.0
862,74.0,183.0,180.0,1.0,0.0
863,71.0,0.0,540.0,1.0,0.0
864,43.0,0.0,540.0,10.0,0.0
865,59.0,0.0,720.0,3.0,0.0
866,59.0,0.0,180.0,6.0,0.0
867,55.0,0.0,540.0,8.0,0.0
868,71.0,0.0,180.0,5.0,0.0
869,87.0,183.0,180.0,0.0,0.0
870,75.0,2.0,180.0,1.0,0.0
871,63.0,0.0,180.0,2.0,0.0
872,71.0,144.0,180.0,6.0,0.0
873,83.0,0.0,180.0,5.0,0.0
874,76.0,0.0,180.0,1.0,0.0
875,59.0,0.0,180.0,7.0,0.0
876,64.0,0.0,180.0,2.0,0.0
877,88.0,0.0,180.0,0.0,0.0
878,44.0,180.0,180.0,10.0,0.0
879,62.0,0.0,150.0,2.0,0.0
880,65.0,0.0,150.0,2.0,0.0
881,71.0,36.0,150.0,7.0,0.0
882,77.0,0.0,150.0,5.0,0.0
883,74.0,0.0,150.0,1.0,0.0
884,56.0,0.0,180.0,8.0,0.0
885,77.0,0.0,150.0,1.0,0.0
886,74.0,0.0,150.0,6.0,0.0
887,89.0,0.0,150.0,0.0,0.0
888,61.0,0.0,180.0,2.0,0.0
889,66.0,0.0,540.0,2.0,0.0
890,57.0,0.0,180.0,8.0,0.0
891,90.0,0.0,540.0,0.0,0.0
892,73.0,0.0,330.0,3.0,0.0
893,66.0,36.0,330.0,3.0,0.0
894,66.0,0.0,180.0,7.0,0.0
895,78.0,0.0,540.0,5.0,0.0
896,73.0,144.0,180.0,6.0,0.0
897,73.0,0.0,180.0,1.0,0.0
898,45.0,0.0,180.0,10.0,0.0
899,78.0,0.0,540.0,1.0,0.0
900,73.0,0.0,180.0,7.0,0.0
901,64.0,0.0,180.0,2.0,0.0
902,46.0,0.0,180.0,10.0,0.0
903,76.0,0.0,180.0,1.0,0.0
904,58.0,180.0,180.0,8.0,0.0
905,76.0,0.0,150.0,6.0,0.0
906,47.0,0.0,180.0,10.0,0.0
907,62.0,0.0,180.0,2.0,0.0
908,74.0,0.0,180.0,1.0,0.0
909,71.0,0.0,180.0,3.0,0.0
910,59.0,90.0,180.0,3.0,0.0
911,74.0,0.0,180.0,6.0,0.0
912,71.0,0.0,180.0,7.0,0.0
913,59.0,0.0,180.0,8.0,0.0
914,73.0,0.0,90.0,6.0,0.0
915,76.0,0.0,90.0,1.0,0.0
916,76.0,0.0,90.0,5.0,0.0
917,88.0,71.0,90.0,0.0,0.0
918,66.0,95.0,180.0,7.0,0.0
919,64.0,0.0,90.0,2.0,0.0
920,74.0,0.0,60.0,5.0,0.0
921,74.0,0.0,60.0,1.0,0.0
922,71.0,0.0,60.0,6.0,0.0
923,86.0,0.0,60.0,0.0,0.0
924,62.0,19.0,60.0,2.0,0.0
925,67.0,0.0,270.0,6.0,0.0
926,40.0,88.0,180.0,10.0,0.0
927,86.0,0.0,90.0,0.0,0.0
928,74.0,85.0,90.0,5.0,0.0
929,74.0,0.0,90.0,1.0,0.0
930,62.0,0.0,90.0,2.0,0.0
931,64.0,0.0,180.0,7.0,0.0
932,85.0,0.0,90.0,0.0,0.0
933,73.0,0.0,90.0,5.0,0.0
934,61.0,0.0,90.0,2.0,0.0
935,73.0,0.0,90.0,1.0,0.0
936,52.0,2.0,15.0,8.0,0.0
937,67.0,17.0,150.0,7.0,0.0
938,76.0,0.0,90.0,1.0,0.0
939,64.0,54.0,90.0,2.0,0.0
940,88.0,0.0,90.0,0.0,0.0
941,76.0,0.0,90.0,5.0,0.0
942,40.0,3.0,180.0,10.0,0.0
943,73.0,0.0,60.0,5.0,0.0
944,85.0,0.0,60.0,0.0,0.0
945,61.0,0.0,60.0,2.0,0.0
946,73.0,0.0,60.0,1.0,0.0
947,64.0,16.0,60.0,6.0,0.0
948,71.0,0.0,180.0,1.0,0.0
949,62.0,6.0,180.0,6.0,0.0
950,83.0,0.0,180.0,0.0,0.0
951,59.0,0.0,180.0,2.0,0.0
952,71.0,0.0,180.0,5.0,0.0
953,66.0,0.0,180.0,7.0,0.0
954,66.0,0.0,15.0,3.0,0.0
955,58.0,0.0,150.0,2.0,0.0
956,70.0,41.0,150.0,1.0,0.0
957,42.0,0.0,15.0,10.0,0.0
958,64.0,180.0,180.0,7.0,0.0
959,61.0,0.0,180.0,6.0,0.0
960,70.0,0.0,180.0,5.0,0.0
961,82.0,0.0,180.0,0.0,0.0
962,54.0,139.0,15.0,8.0,0.0
963,59.0,0.0,180.0,2.0,0.0
964,71.0,0.0,180.0,1.0,0.0
965,35.0,0.0,180.0,10.0,0.0
966,59.0,0.0,180.0,6.0,0.0
967,62.0,0.0,180.0,7.0,0.0
968,47.0,270.0,180.0,8.0,0.0
969,71.0,0.0,180.0,5.0,0.0
970,59.0,0.0,180.0,3.0,0.0
971,66.0,0.0,180.0,3.0,0.0
972,83.0,0.0,180.0,0.0,0.0
973,78.0,90.0,90.0,4.0,0.0
974,78.0,90.0,90.0,4.0,0.0
975,78.0,90.0,90.0,4.0,0.0
976,78.0,90.0,90.0,4.0,0.0
977,77.0,90.0,90.0,4.0,0.0
978,59.0,0.0,90.0,4.0,0.0
979,78.0,90.0,90.0,4.0,0.0
980,62.0,0.0,90.0,4.0,0.0
981,66.0,90.0,90.0,4.0,0.0
982,62.0,90.0,90.0,4.0,0.0
983,59.0,0.0,90.0,4.0,0.0
984,62.0,0.0,90.0,4.0,0.0
985,78.0,90.0,15.0,4.0,0.0
986,66.0,0.0,90.0,4.0,0.0
987,78.0,90.0,15.0,4.0,0.0
988,78.0,0.0,90.0,4.0,0.0
989,62.0,90.0,90.0,4.0,0.0
990,58.0,0.0,90.0,4.0,0.0
991,79.0,90.0,90.0,4.0,0.0
992,78.0,90.0,90.0,4.0,0.0
993,61.0,0.0,90.0,4.0,0.0
994,66.0,90.0,90.0,4.0,0.0
995,61.0,90.0,90.0,4.0,0.0
996,58.0,90.0,90.0,4.0,0.0
997,78.0,0.0,15.0,4.0,0.0
998,61.0,0.0,90.0,4.0,0.0
999,64.0,0.0,90.0,4.0,0.0
1000,78.0,90.0,15.0,4.0,0.0
1001,78.0,90.0,15.0,4.0,0.0
1002,61.0,0.0,90.0,4.0,0.0
1003,83.0,29.0,90.0,4.0,0.0
1004,59.0,0.0,180.0,4.0,0.0
1005,62.0,0.0,180.0,4.0,0.0
1006,85.0,30.0,30.0,4.0,0.0
1007,83.0,26.0,30.0,4.0,0.0
1008,82.0,95.0,30.0,4.0,0.0
1009,83.0,43.0,90.0,4.0,0.0
1010,85.0,90.0,40.0,4.0,0.0
1011,86.0,96.0,40.0,4.0,0.0
1012,67.0,0.0,360.0,4.0,0.0
1013,71.0,187.0,360.0,4.0,0.0
1014,87.0,100.0,40.0,4.0,0.0
1015,88.0,95.0,40.0,4.0,0.0
1016,89.0,26.0,40.0,4.0,0.0
1017,90.0,272.0,180.0,4.0,0.0
1018,66.0,0.0,180.0,4.0,0.0
1019,70.0,0.0,180.0,4.0,0.0
1020,78.0,95.0,90.0,4.0,0.0
1021,86.0,43.0,90.0,4.0,0.0
1022,62.0,98.0,180.0,4.0,0.0
1023,66.0,0.0,180.0,4.0,0.0
1024,85.0,90.0,40.0,4.0,0.0
1025,83.0,33.0,40.0,4.0,0.0
1026,82.0,89.0,90.0,4.0,0.0
1027,66.0,0.0,360.0,4.0,0.0
1028,61.0,0.0,180.0,4.0,0.0
1029,88.0,43.0,90.0,4.0,0.0
1030,54.0,91.0,180.0,4.0,0.0
1031,85.0,90.0,40.0,4.0,0.0
1032,82.0,48.0,40.0,4.0,0.0
1033,83.0,83.0,90.0,4.0,0.0
1034,90.0,45.0,90.0,4.0,0.0
1035,88.0,43.0,40.0,4.0,0.0
1036,66.0,0.0,180.0,4.0,0.0
1037,62.0,0.0,180.0,4.0,0.0
1038,86.0,45.0,40.0,4.0,0.0
1039,85.0,45.0,40.0,4.0,0.0
1040,83.0,45.0,40.0,4.0,0.0
1041,61.0,0.0,180.0,4.0,0.0
1042,66.0,0.0,180.0,4.0,0.0
1043,64.0,45.0,180.0,4.0,0.0
1044,82.0,45.0,40.0,4.0,0.0
1045,91.0,45.0,40.0,4.0,0.0
1046,90.0,45.0,40.0,4.0,0.0
1047,88.0,0.0,40.0,4.0,0.0
1048,86.0,45.0,40.0,4.0,0.0
1049,54.0,0.0,180.0,4.0,0.0
1050,85.0,45.0,40.0,4.0,0.0
1051,83.0,45.0,40.0,4.0,0.0
1052,82.0,45.0,40.0,4.0,0.0
1053,62.0,0.0,360.0,7.0,0.0
1054,66.0,0.0,360.0,7.0,0.0
1055,59.0,0.0,360.0,8.0,0.0
1056,47.0,0.0,360.0,10.0,0.0
1057,74.0,0.0,360.0,6.0,0.0
1058,78.0,37.0,360.0,5.0,0.0
1059,85.0,45.0,40.0,4.0,0.0
1060,83.0,45.0,40.0,4.0,0.0
1061,86.0,37.0,40.0,4.0,0.0
1062,85.0,45.0,40.0,4.0,0.0
1063,83.0,41.0,40.0,4.0,0.0
1064,59.0,0.0,180.0,4.0,0.0
1065,62.0,0.0,180.0,4.0,0.0
1066,81.0,45.0,40.0,4.0,0.0
1067,79.0,57.0,40.0,4.0,0.0
1068,78.0,0.0,60.0,4.0,0.0
1069,75.0,47.0,40.0,4.0,0.0
1070,43.0,0.0,360.0,10.0,0.0
1071,76.0,0.0,360.0,6.0,0.0
1072,55.0,178.0,360.0,8.0,0.0
1073,64.0,0.0,360.0,7.0,0.0
1074,59.0,45.0,180.0,4.0,0.0
1075,67.0,2.0,360.0,7.0,0.0
1076,79.0,0.0,360.0,5.0,0.0
1077,55.0,0.0,360.0,4.0,0.0
1078,76.0,45.0,40.0,4.0,0.0
1079,78.0,46.0,40.0,4.0,0.0
1080,79.0,0.0,40.0,4.0,0.0
1081,64.0,0.0,180.0,4.0,0.0
1082,81.0,47.0,40.0,4.0,0.0
1083,83.0,45.0,40.0,4.0,0.0
1084,81.0,46.0,40.0,4.0,0.0
1085,79.0,0.0,40.0,4.0,0.0
1086,45.0,1.0,330.0,10.0,0.0
1087,74.0,0.0,180.0,6.0,0.0
1088,78.0,0.0,180.0,4.0,0.0
1089,62.0,0.0,180.0,4.0,0.0
1090,57.0,144.0,360.0,4.0,0.0
1091,78.0,0.0,180.0,5.0,0.0
1092,66.0,0.0,180.0,7.0,0.0
1093,62.0,23.0,180.0,7.0,0.0
1094,57.0,36.0,330.0,8.0,0.0
1095,76.0,0.0,150.0,5.0,0.0
1096,76.0,22.0,20.0,4.0,0.0
1097,61.0,0.0,180.0,4.0,0.0
1098,61.0,0.0,150.0,7.0,0.0
1099,73.0,0.0,150.0,6.0,0.0
1100,64.0,0.0,150.0,7.0,0.0
1101,78.0,23.0,20.0,4.0,0.0
1102,76.0,22.0,20.0,4.0,0.0
1103,78.0,45.0,20.0,4.0,0.0
1104,74.0,10.0,40.0,4.0,0.0
1105,76.0,0.0,40.0,4.0,0.0
1106,74.0,0.0,180.0,5.0,0.0
1107,38.0,0.0,180.0,10.0,0.0
1108,62.0,0.0,180.0,7.0,0.0
1109,74.0,0.0,180.0,6.0,0.0
1110,74.0,36.0,150.0,4.0,0.0
1111,62.0,180.0,180.0,4.0,0.0
1112,50.0,0.0,180.0,8.0,0.0
1113,50.0,90.0,180.0,4.0,0.0
1114,78.0,90.0,15.0,4.0,0.0
1115,78.0,90.0,15.0,4.0,0.0
1116,78.0,90.0,90.0,4.0,0.0
1117,77.0,90.0,90.0,4.0,0.0
1118,59.0,0.0,90.0,4.0,0.0
1119,78.0,0.0,90.0,4.0,0.0
1120,62.0,90.0,90.0,4.0,0.0
1121,66.0,90.0,90.0,4.0,0.0
1122,62.0,90.0,90.0,4.0,0.0
1123,78.0,90.0,90.0,4.0,0.0
1124,59.0,0.0,90.0,4.0,0.0
1125,78.0,0.0,90.0,4.0,0.0
1126,62.0,90.0,90.0,4.0,0.0
1127,78.0,0.0,90.0,4.0,0.0
1128,66.0,90.0,90.0,4.0,0.0
1129,62.0,0.0,90.0,4.0,0.0
1130,78.0,90.0,90.0,4.0,0.0
1131,79.0,90.0,90.0,4.0,0.0
1132,58.0,0.0,90.0,4.0,0.0
1133,78.0,90.0,90.0,4.0,0.0
1134,61.0,0.0,90.0,4.0,0.0
1135,66.0,90.0,90.0,4.0,0.0
1136,61.0,90.0,90.0,4.0,0.0
1137,58.0,90.0,90.0,4.0,0.0
1138,61.0,0.0,90.0,4.0,0.0
1139,78.0,0.0,15.0,4.0,0.0
1140,78.0,90.0,90.0,4.0,0.0
1141,64.0,0.0,90.0,4.0,0.0
1142,61.0,0.0,90.0,4.0,0.0
1143,78.0,90.0,90.0,4.0,0.0
1144,83.0,29.0,90.0,4.0,0.0
1145,59.0,0.0,180.0,4.0,0.0
1146,62.0,0.0,180.0,4.0,0.0
1147,85.0,30.0,30.0,4.0,0.0
1148,83.0,26.0,30.0,4.0,0.0
1149,82.0,95.0,30.0,4.0,0.0
1150,83.0,43.0,90.0,4.0,0.0
1151,85.0,90.0,40.0,4.0,0.0
1152,71.0,0.0,360.0,4.0,0.0
1153,67.0,187.0,360.0,4.0,0.0
1154,86.0,97.0,40.0,4.0,0.0
1155,87.0,100.0,40.0,4.0,0.0
1156,88.0,97.0,40.0,4.0,0.0
1157,89.0,23.0,40.0,4.0,0.0
1158,70.0,272.0,180.0,4.0,0.0
1159,66.0,0.0,180.0,4.0,0.0
1160,90.0,0.0,180.0,4.0,0.0
1161,78.0,95.0,90.0,4.0,0.0
1162,86.0,43.0,90.0,4.0,0.0
1163,66.0,0.0,180.0,4.0,0.0
1164,62.0,98.0,180.0,4.0,0.0
1165,85.0,90.0,40.0,4.0,0.0
1166,83.0,33.0,40.0,4.0,0.0
1167,61.0,0.0,180.0,4.0,0.0
1168,66.0,0.0,360.0,4.0,0.0
1169,82.0,89.0,90.0,4.0,0.0
1170,88.0,43.0,90.0,4.0,0.0
1171,85.0,90.0,40.0,4.0,0.0
1172,54.0,91.0,180.0,4.0,0.0
1173,82.0,48.0,40.0,4.0,0.0
1174,83.0,83.0,90.0,4.0,0.0
1175,90.0,45.0,90.0,4.0,0.0
1176,62.0,0.0,180.0,4.0,0.0
1177,66.0,0.0,180.0,4.0,0.0
1178,88.0,43.0,40.0,4.0,0.0
1179,86.0,45.0,40.0,4.0,0.0
1180,85.0,45.0,40.0,4.0,0.0
1181,83.0,45.0,40.0,4.0,0.0
1182,82.0,45.0,40.0,4.0,0.0
1183,66.0,0.0,180.0,4.0,0.0
1184,61.0,0.0,180.0,4.0,0.0
1185,64.0,0.0,180.0,4.0,0.0
1186,91.0,45.0,40.0,4.0,0.0
1187,90.0,45.0,40.0,4.0,0.0
1188,88.0,45.0,40.0,4.0,0.0
1189,86.0,45.0,40.0,4.0,0.0
1190,54.0,45.0,180.0,4.0,0.0
1191,85.0,45.0,40.0,4.0,0.0
1192,83.0,45.0,40.0,4.0,0.0
1193,82.0,0.0,40.0,4.0,0.0
1194,59.0,37.0,360.0,8.0,0.0
1195,78.0,0.0,360.0,5.0,0.0
1196,47.0,0.0,360.0,10.0,0.0
1197,85.0,45.0,40.0,4.0,0.0
1198,74.0,0.0,360.0,6.0,0.0
1199,66.0,0.0,360.0,7.0,0.0
1200,62.0,0.0,360.0,7.0,0.0
1201,83.0,45.0,40.0,4.0,0.0
1202,86.0,37.0,40.0,4.0,0.0
1203,85.0,45.0,40.0,4.0,0.0
1204,62.0,0.0,180.0,4.0,0.0
1205,83.0,41.0,40.0,4.0,0.0
1206,81.0,45.0,40.0,4.0,0.0
1207,79.0,57.0,40.0,4.0,0.0
1208,78.0,0.0,60.0,4.0,0.0
1209,67.0,0.0,360.0,7.0,0.0
1210,64.0,0.0,360.0,7.0,0.0
1211,79.0,0.0,360.0,5.0,0.0
1212,43.0,0.0,360.0,10.0,0.0
1213,76.0,2.0,360.0,6.0,0.0
1214,55.0,0.0,360.0,4.0,0.0
1215,59.0,0.0,15.0,4.0,0.0
1216,75.0,47.0,40.0,4.0,0.0
1217,55.0,178.0,360.0,8.0,0.0
1218,76.0,45.0,40.0,4.0,0.0
1219,78.0,46.0,40.0,4.0,0.0
1220,79.0,45.0,40.0,4.0,0.0
1221,81.0,47.0,40.0,4.0,0.0
1222,64.0,0.0,180.0,4.0,0.0
1223,83.0,45.0,40.0,4.0,0.0
1224,81.0,46.0,40.0,4.0,0.0
1225,79.0,0.0,40.0,4.0,0.0
1226,62.0,0.0,180.0,7.0,0.0
1227,78.0,0.0,180.0,4.0,0.0
1228,74.0,23.0,180.0,6.0,0.0
1229,62.0,0.0,180.0,4.0,0.0
1230,57.0,144.0,360.0,4.0,0.0
1231,45.0,0.0,330.0,10.0,0.0
1232,78.0,0.0,180.0,5.0,0.0
1233,66.0,0.0,180.0,7.0,0.0
1234,57.0,36.0,330.0,8.0,0.0
1235,61.0,0.0,180.0,4.0,0.0
1236,76.0,22.0,20.0,4.0,0.0
1237,64.0,0.0,150.0,7.0,0.0
1238,76.0,1.0,150.0,5.0,0.0
1239,73.0,0.0,150.0,6.0,0.0
1240,61.0,0.0,150.0,7.0,0.0
1241,78.0,23.0,20.0,4.0,0.0
1242,76.0,22.0,20.0,4.0,0.0
1243,78.0,45.0,20.0,4.0,0.0
1244,74.0,10.0,40.0,4.0,0.0
1245,76.0,0.0,40.0,4.0,0.0
1246,74.0,0.0,180.0,5.0,0.0
1247,38.0,0.0,180.0,10.0,0.0
1248,74.0,180.0,180.0,6.0,0.0
1249,62.0,0.0,180.0,7.0,0.0
1250,74.0,36.0,150.0,4.0,0.0
1251,62.0,0.0,180.0,4.0,0.0
1252,50.0,0.0,180.0,8.0,0.0
1253,50.0,90.0,180.0,4.0,0.0
1254,66.0,90.0,90.0,4.0,0.0
1255,69.0,90.0,90.0,4.0,0.0
1256,74.0,90.0,90.0,4.0,0.0
1257,78.0,90.0,90.0,4.0,0.0
1258,50.0,87.0,90.0,4.0,0.0
1259,81.0,51.0,420.0,4.0,0.0
1260,54.0,93.0,90.0,4.0,0.0
1261,57.0,91.0,90.0,4.0,0.0
1262,62.0,45.0,90.0,4.0,0.0
1263,59.0,0.0,360.0,4.0,0.0
1264,80.0,45.0,60.0,4.0,0.0
1265,83.0,50.0,40.0,4.0,0.0
1266,81.0,45.0,60.0,4.0,0.0
1267,85.0,48.0,40.0,4.0,0.0
1268,71.0,188.0,180.0,4.0,0.0
1269,83.0,45.0,40.0,4.0,0.0
1270,81.0,30.0,40.0,4.0,0.0
1271,80.0,0.0,30.0,4.0,0.0
1272,78.0,0.0,180.0,4.0,0.0
1273,69.0,176.0,180.0,4.0,0.0
1274,61.0,0.0,360.0,4.0,0.0
1275,68.0,0.0,180.0,4.0,0.0
1276,77.0,356.0,180.0,4.0,0.0
1277,54.0,0.0,360.0,4.0,0.0
1278,73.0,90.0,360.0,4.0,0.0
1279,57.0,0.0,330.0,4.0,0.0
1280,78.0,0.0,330.0,4.0,0.0
1281,61.0,0.0,300.0,4.0,0.0
1282,81.0,0.0,300.0,4.0,0.0
1283,66.0,0.0,270.0,4.0,0.0
1284,85.0,0.0,15.0,4.0,0.0
1285,86.0,46.0,40.0,4.0,0.0
1286,85.0,90.0,40.0,4.0,0.0
1287,83.0,44.0,90.0,4.0,0.0
1288,81.0,130.0,40.0,4.0,0.0
1289,73.0,85.0,90.0,4.0,0.0
1290,61.0,140.0,360.0,4.0,0.0
1291,81.0,0.0,90.0,4.0,0.0
1292,80.0,88.0,90.0,4.0,0.0
1293,71.0,0.0,90.0,4.0,0.0
1294,78.0,44.0,90.0,4.0,0.0
1295,69.0,0.0,90.0,4.0,0.0
1296,77.0,58.0,40.0,4.0,0.0
1297,68.0,0.0,90.0,4.0,0.0
1298,66.0,0.0,150.0,4.0,0.0
1299,69.0,37.0,150.0,4.0,0.0
1300,78.0,181.0,180.0,4.0,0.0
1301,54.0,59.0,180.0,4.0,0.0
1302,81.0,62.0,60.0,4.0,0.0
1303,79.0,30.0,60.0,4.0,0.0
1304,78.0,88.0,30.0,4.0,0.0
1305,69.0,56.0,180.0,4.0,0.0
1306,59.0,0.0,180.0,4.0,0.0
1307,78.0,59.0,60.0,4.0,0.0
1308,76.0,30.0,60.0,4.0,0.0
1309,75.0,34.0,30.0,4.0,0.0
1310,67.0,0.0,360.0,4.0,0.0
1311,76.0,60.0,60.0,4.0,0.0
1312,64.0,59.0,360.0,4.0,0.0
1313,71.0,30.0,60.0,4.0,0.0
1314,83.0,91.0,30.0,4.0,0.0
1315,82.0,62.0,60.0,4.0,0.0
1316,83.0,30.0,60.0,4.0,0.0
1317,81.0,31.0,30.0,4.0,0.0
1318,81.0,60.0,60.0,4.0,0.0
1319,79.0,30.0,60.0,4.0,0.0
1320,78.0,84.0,30.0,4.0,0.0
1321,78.0,58.0,60.0,4.0,0.0
1322,59.0,175.0,180.0,4.0,0.0
1323,69.0,0.0,180.0,4.0,0.0
1324,76.0,29.0,60.0,4.0,0.0
1325,75.0,40.0,30.0,4.0,0.0
1326,67.0,183.0,360.0,4.0,0.0
1327,64.0,0.0,360.0,4.0,0.0
1328,78.0,92.0,180.0,4.0,0.0
1329,76.0,90.0,90.0,4.0,0.0
1330,72.0,180.0,180.0,4.0,0.0
1331,76.0,0.0,180.0,4.0,0.0
1332,76.0,0.0,180.0,4.0,0.0
1333,67.0,0.0,180.0,4.0,0.0
1334,71.0,171.0,180.0,4.0,0.0
1335,70.0,0.0,180.0,4.0,0.0
1336,76.0,0.0,180.0,4.0,0.0
1337,66.0,139.0,180.0,4.0,0.0
1338,74.0,0.0,90.0,4.0,0.0
1339,83.0,50.0,40.0,4.0,0.0
1340,88.0,45.0,60.0,4.0,0.0
1341,72.0,0.0,180.0,4.0,0.0
1342,82.0,50.0,40.0,4.0,0.0
1343,88.0,45.0,60.0,4.0,0.0
1344,81.0,51.0,40.0,4.0,0.0
1345,88.0,45.0,60.0,4.0,0.0
1346,71.0,0.0,180.0,4.0,0.0
1347,80.0,45.0,40.0,4.0,0.0
1348,88.0,45.0,40.0,4.0,0.0
1349,79.0,34.0,40.0,4.0,0.0
1350,88.0,151.0,30.0,4.0,0.0
1351,78.0,445.0,180.0,4.0,0.0
1352,70.0,34.0,150.0,4.0,0.0
1353,59.0,0.0,360.0,4.0,0.0
1354,74.0,0.0,270.0,4.0,0.0
1355,62.0,0.0,330.0,4.0,0.0
1356,80.0,0.0,240.0,4.0,0.0
1357,65.0,0.0,300.0,4.0,0.0
1358,83.0,0.0,210.0,4.0,0.0
1359,68.0,91.0,270.0,4.0,0.0
1360,86.0,90.0,180.0,4.0,0.0
1361,71.0,0.0,240.0,4.0,0.0
1362,77.0,0.0,90.0,4.0,0.0
1363,73.0,44.0,180.0,4.0,0.0
1364,58.0,0.0,180.0,4.0,0.0
1365,79.0,90.0,90.0,4.0,0.0
1366,78.0,0.0,90.0,4.0,0.0
1367,76.0,88.0,40.0,4.0,0.0
1368,59.0,0.0,180.0,4.0,0.0
1369,66.0,88.0,180.0,4.0,0.0
1370,74.0,47.0,40.0,4.0,0.0
1371,64.0,43.0,360.0,4.0,0.0
1372,74.0,87.0,90.0,4.0,0.0
1373,52.0,0.0,180.0,4.0,0.0
1374,73.0,44.0,90.0,4.0,0.0
1375,54.0,0.0,180.0,4.0,0.0
1376,71.0,90.0,40.0,4.0,0.0
1377,70.0,51.0,40.0,4.0,0.0
1378,62.0,0.0,180.0,4.0,0.0
1379,55.0,0.0,180.0,4.0,0.0
1380,71.0,44.0,40.0,4.0,0.0
1381,83.0,45.0,40.0,4.0,0.0
1382,70.0,45.0,40.0,4.0,0.0
1383,82.0,45.0,40.0,4.0,0.0
1384,71.0,46.0,40.0,4.0,0.0
1385,83.0,45.0,40.0,4.0,0.0
1386,73.0,47.0,40.0,4.0,0.0
1387,85.0,45.0,40.0,4.0,0.0
1388,71.0,0.0,360.0,4.0,0.0
1389,67.0,0.0,360.0,4.0,0.0
1390,74.0,46.0,40.0,4.0,0.0
1391,86.0,45.0,40.0,4.0,0.0
1392,75.0,46.0,40.0,4.0,0.0
1393,87.0,45.0,40.0,4.0,0.0
1394,76.0,48.0,40.0,4.0,0.0
1395,88.0,45.0,40.0,4.0,0.0
1396,77.0,40.0,40.0,4.0,0.0
1397,89.0,112.0,40.0,4.0,0.0
1398,54.0,2.0,360.0,8.0,0.0
1399,76.0,0.0,360.0,5.0,0.0
1400,79.0,72.0,120.0,4.0,0.0
1401,42.0,0.0,360.0,10.0,0.0
1402,58.0,0.0,360.0,7.0,0.0
1403,64.0,0.0,360.0,7.0,0.0
1404,66.0,178.0,360.0,4.0,0.0
1405,70.0,0.0,360.0,4.0,0.0
1406,70.0,0.0,360.0,6.0,0.0
1407,91.0,0.0,120.0,4.0,0.0
1408,90.0,0.0,40.0,4.0,0.0
1409,78.0,176.0,15.0,4.0,0.0
1410,90.0,0.0,360.0,4.0,0.0
1411,55.0,0.0,330.0,8.0,0.0
1412,59.0,0.0,330.0,7.0,0.0
1413,43.0,0.0,330.0,10.0,0.0
1414,71.0,0.0,330.0,6.0,0.0
1415,62.0,0.0,330.0,7.0,0.0
1416,71.0,0.0,360.0,4.0,0.0
1417,74.0,36.0,330.0,5.0,0.0
1418,88.0,54.0,90.0,4.0,0.0
1419,86.0,45.0,120.0,4.0,0.0
1420,67.0,45.0,15.0,4.0,0.0
1421,64.0,0.0,360.0,4.0,0.0
1422,79.0,45.0,180.0,5.0,0.0
1423,52.0,0.0,360.0,8.0,0.0
1424,40.0,0.0,360.0,10.0,0.0
1425,67.0,0.0,180.0,7.0,0.0
1426,76.0,0.0,180.0,6.0,0.0
1427,85.0,45.0,40.0,4.0,0.0
1428,88.0,45.0,40.0,4.0,0.0
1429,86.0,0.0,40.0,4.0,0.0
1430,64.0,0.0,15.0,7.0,0.0
1431,61.0,0.0,180.0,7.0,0.0
1432,73.0,0.0,180.0,6.0,0.0
1433,76.0,177.0,180.0,4.0,0.0
1434,90.0,45.0,40.0,4.0,0.0
1435,76.0,0.0,180.0,5.0,0.0
1436,88.0,45.0,40.0,4.0,0.0
1437,86.0,45.0,40.0,4.0,0.0
1438,85.0,0.0,40.0,4.0,0.0
1439,54.0,143.0,360.0,8.0,0.0
1440,74.0,22.0,180.0,4.0,0.0
1441,59.0,0.0,180.0,7.0,0.0
1442,62.0,0.0,180.0,7.0,0.0
1443,83.0,0.0,180.0,4.0,0.0
1444,66.0,0.0,360.0,4.0,0.0
1445,42.0,0.0,360.0,10.0,0.0
1446,74.0,0.0,180.0,5.0,0.0
1447,71.0,0.0,180.0,6.0,0.0
1448,61.0,0.0,150.0,7.0,0.0
1449,73.0,0.0,150.0,5.0,0.0
1450,58.0,0.0,150.0,7.0,0.0
1451,73.0,0.0,180.0,4.0,0.0
1452,82.0,23.0,20.0,4.0,0.0
1453,70.0,40.0,150.0,6.0,0.0
1454,83.0,22.0,20.0,4.0,0.0
1455,82.0,21.0,20.0,4.0,0.0
1456,83.0,45.0,20.0,4.0,0.0
1457,80.0,10.0,40.0,4.0,0.0
1458,82.0,0.0,60.0,4.0,0.0
1459,59.0,0.0,180.0,7.0,0.0
1460,71.0,180.0,180.0,5.0,0.0
1461,71.0,0.0,180.0,6.0,0.0
1462,83.0,37.0,150.0,4.0,0.0
1463,71.0,0.0,180.0,4.0,0.0
1464,35.0,0.0,180.0,10.0,0.0
1465,47.0,0.0,180.0,8.0,0.0
1466,59.0,90.0,180.0,4.0,0.0
1467,66.0,90.0,90.0,4.0,0.0
1468,69.0,90.0,90.0,4.0,0.0
1469,74.0,90.0,90.0,4.0,0.0
1470,78.0,90.0,90.0,4.0,0.0
1471,50.0,87.0,90.0,4.0,0.0
1472,81.0,49.0,420.0,4.0,0.0
1473,54.0,93.0,90.0,4.0,0.0
1474,57.0,91.0,90.0,4.0,0.0
1475,62.0,45.0,90.0,4.0,0.0
1476,59.0,0.0,360.0,4.0,0.0
1477,80.0,45.0,40.0,4.0,0.0
1478,83.0,49.0,40.0,4.0,0.0
1479,81.0,45.0,40.0,4.0,0.0
1480,71.0,0.0,180.0,4.0,0.0
1481,85.0,47.0,40.0,4.0,0.0
1482,83.0,45.0,40.0,4.0,0.0
1483,81.0,34.0,40.0,4.0,0.0
1484,80.0,187.0,30.0,4.0,0.0
1485,61.0,0.0,360.0,4.0,0.0
1486,69.0,175.0,180.0,4.0,0.0
1487,78.0,0.0,180.0,4.0,0.0
1488,68.0,0.0,180.0,4.0,0.0
1489,77.0,358.0,180.0,4.0,0.0
1490,73.0,0.0,360.0,4.0,0.0
1491,54.0,0.0,360.0,4.0,0.0
1492,57.0,0.0,330.0,4.0,0.0
1493,78.0,0.0,330.0,4.0,0.0
1494,61.0,0.0,300.0,4.0,0.0
1495,81.0,0.0,300.0,4.0,0.0
1496,85.0,90.0,270.0,4.0,0.0
1497,66.0,0.0,270.0,4.0,0.0
1498,85.0,45.0,90.0,4.0,0.0
1499,86.0,46.0,40.0,4.0,0.0
1500,85.0,90.0,40.0,4.0,0.0
1501,83.0,44.0,90.0,4.0,0.0
1502,81.0,130.0,40.0,4.0,0.0
1503,61.0,0.0,360.0,4.0,0.0
1504,73.0,85.0,90.0,4.0,0.0
1505,81.0,0.0,90.0,4.0,0.0
1506,71.0,88.0,90.0,4.0,0.0
1507,80.0,0.0,90.0,4.0,0.0
1508,69.0,44.0,90.0,4.0,0.0
1509,78.0,0.0,90.0,4.0,0.0
1510,68.0,140.0,90.0,4.0,0.0
1511,77.0,58.0,40.0,4.0,0.0
1512,69.0,37.0,150.0,4.0,0.0
1513,66.0,0.0,150.0,4.0,0.0
1514,78.0,181.0,180.0,4.0,0.0
1515,54.0,59.0,180.0,4.0,0.0
1516,81.0,62.0,60.0,4.0,0.0
1517,79.0,30.0,60.0,4.0,0.0
1518,78.0,88.0,30.0,4.0,0.0
1519,59.0,56.0,180.0,4.0,0.0
1520,78.0,59.0,60.0,4.0,0.0
1521,69.0,0.0,180.0,4.0,0.0
1522,76.0,30.0,60.0,4.0,0.0
1523,75.0,34.0,30.0,4.0,0.0
1524,76.0,60.0,60.0,4.0,0.0
1525,64.0,0.0,360.0,4.0,0.0
1526,67.0,59.0,360.0,4.0,0.0
1527,71.0,30.0,60.0,4.0,0.0
1528,83.0,91.0,30.0,4.0,0.0
1529,82.0,62.0,60.0,4.0,0.0
1530,83.0,30.0,60.0,4.0,0.0
1531,81.0,31.0,30.0,4.0,0.0
1532,81.0,60.0,60.0,4.0,0.0
1533,79.0,30.0,60.0,4.0,0.0
1534,78.0,84.0,30.0,4.0,0.0
1535,69.0,0.0,180.0,4.0,0.0
1536,59.0,175.0,180.0,4.0,0.0
1537,78.0,58.0,60.0,4.0,0.0
1538,76.0,29.0,60.0,4.0,0.0
1539,75.0,40.0,30.0,4.0,0.0
1540,78.0,92.0,180.0,4.0,0.0
1541,67.0,183.0,360.0,4.0,0.0
1542,64.0,0.0,360.0,4.0,0.0
1543,76.0,90.0,90.0,4.0,0.0
1544,72.0,180.0,180.0,4.0,0.0
1545,76.0,0.0,15.0,4.0,0.0
1546,71.0,171.0,180.0,4.0,0.0
1547,67.0,0.0,180.0,4.0,0.0
1548,66.0,139.0,180.0,4.0,0.0
1549,76.0,0.0,180.0,4.0,0.0
1550,70.0,0.0,180.0,4.0,0.0
1551,83.0,50.0,40.0,4.0,0.0
1552,74.0,45.0,90.0,4.0,0.0
1553,88.0,0.0,60.0,4.0,0.0
1554,82.0,50.0,40.0,4.0,0.0
1555,72.0,0.0,180.0,4.0,0.0
1556,88.0,45.0,60.0,4.0,0.0
1557,81.0,51.0,40.0,4.0,0.0
1558,88.0,45.0,60.0,4.0,0.0
1559,80.0,45.0,40.0,4.0,0.0
1560,71.0,151.0,180.0,4.0,0.0
1561,88.0,45.0,40.0,4.0,0.0
1562,79.0,34.0,40.0,4.0,0.0
1563,88.0,0.0,30.0,4.0,0.0
1564,78.0,445.0,180.0,4.0,0.0
1565,70.0,34.0,150.0,4.0,0.0
1566,74.0,90.0,270.0,4.0,0.0
1567,59.0,0.0,360.0,4.0,0.0
1568,62.0,91.0,330.0,4.0,0.0
1569,80.0,0.0,240.0,4.0,0.0
1570,83.0,0.0,210.0,4.0,0.0
1571,65.0,0.0,300.0,4.0,0.0
1572,86.0,0.0,180.0,4.0,0.0
1573,68.0,0.0,270.0,4.0,0.0
1574,71.0,0.0,240.0,4.0,0.0
1575,77.0,0.0,90.0,4.0,0.0
1576,73.0,44.0,180.0,4.0,0.0
1577,79.0,90.0,90.0,4.0,0.0
1578,58.0,0.0,180.0,4.0,0.0
1579,78.0,0.0,90.0,4.0,0.0
1580,76.0,88.0,40.0,4.0,0.0
1581,59.0,0.0,180.0,4.0,0.0
1582,66.0,88.0,180.0,4.0,0.0
1583,74.0,47.0,40.0,4.0,0.0
1584,64.0,43.0,360.0,4.0,0.0
1585,52.0,44.0,180.0,4.0,0.0
1586,74.0,87.0,90.0,4.0,0.0
1587,73.0,0.0,90.0,4.0,0.0
1588,54.0,0.0,180.0,4.0,0.0
1589,71.0,90.0,40.0,4.0,0.0
1590,70.0,51.0,40.0,4.0,0.0
1591,71.0,44.0,40.0,4.0,0.0
1592,62.0,0.0,180.0,4.0,0.0
1593,55.0,0.0,180.0,4.0,0.0
1594,83.0,45.0,40.0,4.0,0.0
1595,70.0,45.0,40.0,4.0,0.0
1596,82.0,45.0,40.0,4.0,0.0
1597,71.0,46.0,40.0,4.0,0.0
1598,83.0,45.0,40.0,4.0,0.0
1599,73.0,47.0,40.0,4.0,0.0
1600,85.0,45.0,40.0,4.0,0.0
1601,74.0,46.0,40.0,4.0,0.0
1602,67.0,112.0,360.0,4.0,0.0
1603,71.0,0.0,360.0,4.0,0.0
1604,86.0,45.0,40.0,4.0,0.0
1605,75.0,46.0,40.0,4.0,0.0
1606,87.0,45.0,40.0,4.0,0.0
1607,76.0,48.0,40.0,4.0,0.0
1608,88.0,45.0,40.0,4.0,0.0
1609,77.0,40.0,40.0,4.0,0.0
1610,89.0,0.0,40.0,4.0,0.0
1611,54.0,2.0,360.0,8.0,0.0
1612,64.0,0.0,360.0,7.0,0.0
1613,70.0,0.0,360.0,6.0,0.0
1614,58.0,0.0,360.0,7.0,0.0
1615,76.0,0.0,360.0,5.0,0.0
1616,42.0,0.0,360.0,10.0,0.0
1617,66.0,178.0,360.0,4.0,0.0
1618,91.0,0.0,120.0,4.0,0.0
1619,79.0,72.0,120.0,4.0,0.0
1620,70.0,0.0,360.0,4.0,0.0
1621,78.0,176.0,40.0,4.0,0.0
1622,90.0,0.0,40.0,4.0,0.0
1623,90.0,90.0,360.0,4.0,0.0
1624,78.0,0.0,360.0,4.0,0.0
1625,55.0,0.0,330.0,8.0,0.0
1626,71.0,36.0,330.0,6.0,0.0
1627,74.0,0.0,330.0,5.0,0.0
1628,43.0,0.0,330.0,10.0,0.0
1629,59.0,0.0,330.0,7.0,0.0
1630,62.0,0.0,330.0,7.0,0.0
1631,71.0,0.0,360.0,4.0,0.0
1632,88.0,54.0,90.0,4.0,0.0
1633,86.0,45.0,120.0,4.0,0.0
1634,76.0,0.0,180.0,6.0,0.0
1635,79.0,0.0,180.0,5.0,0.0
1636,40.0,0.0,360.0,10.0,0.0
1637,52.0,0.0,360.0,8.0,0.0
1638,64.0,45.0,180.0,7.0,0.0
1639,67.0,0.0,180.0,7.0,0.0
1640,67.0,45.0,15.0,4.0,0.0
1641,64.0,177.0,360.0,4.0,0.0
1642,85.0,45.0,40.0,4.0,0.0
1643,88.0,45.0,40.0,4.0,0.0
1644,86.0,0.0,40.0,4.0,0.0
1645,90.0,45.0,40.0,4.0,0.0
1646,61.0,0.0,180.0,7.0,0.0
1647,76.0,0.0,180.0,5.0,0.0
1648,73.0,0.0,180.0,6.0,0.0
1649,76.0,0.0,180.0,4.0,0.0
1650,64.0,0.0,180.0,7.0,0.0
1651,88.0,45.0,40.0,4.0,0.0
1652,86.0,45.0,40.0,4.0,0.0
1653,85.0,0.0,40.0,4.0,0.0
1654,42.0,0.0,360.0,10.0,0.0
1655,71.0,0.0,180.0,6.0,0.0
1656,54.0,0.0,360.0,8.0,0.0
1657,62.0,0.0,180.0,7.0,0.0
1658,74.0,0.0,180.0,5.0,0.0
1659,83.0,0.0,180.0,4.0,0.0
1660,59.0,0.0,180.0,7.0,0.0
1661,74.0,22.0,180.0,4.0,0.0
1662,66.0,0.0,360.0,4.0,0.0
1663,58.0,0.0,150.0,7.0,0.0
1664,61.0,40.0,150.0,7.0,0.0
1665,82.0,23.0,20.0,4.0,0.0
1666,70.0,0.0,150.0,6.0,0.0
1667,73.0,0.0,150.0,5.0,0.0
1668,73.0,0.0,180.0,4.0,0.0
1669,83.0,22.0,20.0,4.0,0.0
1670,82.0,21.0,20.0,4.0,0.0
1671,83.0,45.0,20.0,4.0,0.0
1672,80.0,10.0,40.0,4.0,0.0
1673,82.0,143.0,60.0,4.0,0.0
1674,59.0,0.0,180.0,7.0,0.0
1675,71.0,0.0,180.0,6.0,0.0
1676,71.0,0.0,180.0,5.0,0.0
1677,35.0,180.0,180.0,10.0,0.0
1678,47.0,0.0,180.0,8.0,0.0
1679,83.0,37.0,150.0,4.0,0.0
1680,71.0,0.0,180.0,4.0,0.0
1681,59.0,88.0,180.0,4.0,0.0
1682,90.0,180.0,90.0,0.0,0.0
1683,78.0,0.0,90.0,1.0,0.0
1684,78.0,0.0,90.0,1.0,0.0
1685,90.0,249.0,90.0,0.0,0.0
1686,90.0,0.0,180.0,0.0,0.0
1687,47.0,67.0,360.0,2.0,0.0
1688,47.0,157.0,720.0,10.0,0.0
1689,66.0,133.0,1800.0,5.0,0.0
1690,59.0,0.0,720.0,7.0,0.0
1691,78.0,67.0,180.0,1.0,0.0
1692,62.0,0.0,720.0,6.0,0.0
1693,59.0,0.0,720.0,8.0,0.0
1694,50.0,23.0,60.0,2.0,0.0
1695,74.0,67.0,90.0,1.0,0.0
1696,54.0,4.0,60.0,2.0,0.0
1697,86.0,19.0,60.0,0.0,0.0
1698,59.0,23.0,60.0,2.0,0.0
1699,62.0,21.0,60.0,2.0,0.0
1700,78.0,0.0,90.0,1.0,0.0
1701,90.0,69.0,90.0,0.0,0.0
1702,59.0,111.0,60.0,2.0,0.0
1703,78.0,0.0,90.0,1.0,0.0
1704,90.0,69.0,90.0,0.0,0.0
1705,47.0,0.0,180.0,2.0,0.0
1706,59.0,23.0,60.0,2.0,0.0
1707,46.0,0.0,360.0,10.0,0.0
1708,46.0,67.0,360.0,2.0,0.0
1709,78.0,0.0,180.0,1.0,0.0
1710,90.0,67.0,180.0,0.0,0.0
1711,61.0,0.0,720.0,6.0,0.0
1712,58.0,0.0,360.0,8.0,0.0
1713,61.0,0.0,720.0,7.0,0.0
1714,49.0,23.0,60.0,2.0,0.0
1715,73.0,67.0,90.0,1.0,0.0
1716,85.0,19.0,60.0,0.0,0.0
1717,54.0,4.0,60.0,2.0,0.0
1718,58.0,23.0,60.0,2.0,0.0
1719,57.0,157.0,360.0,8.0,0.0
1720,61.0,3.0,60.0,2.0,0.0
1721,78.0,69.0,90.0,1.0,0.0
1722,45.0,0.0,360.0,10.0,0.0
1723,90.0,18.0,60.0,0.0,0.0
1724,57.0,111.0,60.0,2.0,0.0
1725,45.0,0.0,180.0,2.0,0.0
1726,90.0,0.0,90.0,0.0,0.0
1727,78.0,0.0,90.0,1.0,0.0
1728,57.0,23.0,60.0,2.0,0.0
1729,71.0,0.0,720.0,1.0,0.0
1730,44.0,67.0,180.0,2.0,0.0
1731,78.0,0.0,360.0,1.0,0.0
1732,90.0,0.0,360.0,0.0,0.0
1733,44.0,0.0,360.0,10.0,0.0
1734,56.0,0.0,360.0,8.0,0.0
1735,59.0,0.0,690.0,6.0,0.0
1736,62.0,0.0,690.0,7.0,0.0
1737,56.0,23.0,60.0,2.0,0.0
1738,59.0,90.0,60.0,2.0,0.0
1739,56.0,23.0,60.0,2.0,0.0
1740,89.0,54.0,270.0,0.0,0.0
1741,55.0,0.0,330.0,8.0,0.0
1742,43.0,0.0,330.0,10.0,0.0
1743,65.0,13.0,330.0,5.0,0.0
1744,77.0,24.0,120.0,1.0,0.0
1745,43.0,67.0,180.0,2.0,0.0
1746,55.0,23.0,60.0,2.0,0.0
1747,59.0,23.0,60.0,2.0,0.0
1748,78.0,0.0,90.0,1.0,0.0
1749,55.0,23.0,60.0,2.0,0.0
1750,58.0,0.0,180.0,7.0,0.0
1751,42.0,0.0,360.0,10.0,0.0
1752,66.0,67.0,1620.0,3.0,0.0
1753,54.0,0.0,1620.0,3.0,0.0
1754,54.0,67.0,360.0,8.0,0.0
1755,90.0,144.0,15.0,0.0,0.0
1756,70.0,0.0,360.0,1.0,0.0
1757,78.0,0.0,180.0,1.0,0.0
1758,66.0,67.0,180.0,5.0,0.0
1759,61.0,0.0,180.0,6.0,0.0
1760,42.0,0.0,180.0,2.0,0.0
1761,54.0,23.0,60.0,2.0,0.0
1762,58.0,90.0,60.0,2.0,0.0
1763,61.0,23.0,60.0,2.0,0.0
1764,78.0,0.0,180.0,1.0,0.0
1765,62.0,90.0,60.0,2.0,0.0
1766,90.0,67.0,180.0,0.0,0.0
1767,66.0,0.0,180.0,1.0,0.0
1768,59.0,23.0,60.0,2.0,0.0
1769,71.0,0.0,150.0,1.0,0.0
1770,54.0,77.0,60.0,2.0,0.0
1771,83.0,13.0,150.0,1.0,0.0
1772,78.0,67.0,180.0,5.0,0.0
1773,66.0,0.0,180.0,6.0,0.0
1774,50.0,0.0,180.0,10.0,0.0
1775,95.0,0.0,150.0,0.0,0.0
1776,62.0,0.0,180.0,8.0,0.0
1777,62.0,23.0,60.0,2.0,0.0
1778,61.0,0.0,180.0,8.0,0.0
1779,49.0,67.0,180.0,10.0,0.0
1780,79.0,0.0,180.0,5.0,0.0
1781,67.0,0.0,180.0,6.0,0.0
1782,70.0,0.0,180.0,1.0,0.0
1783,82.0,0.0,180.0,1.0,0.0
1784,94.0,0.0,180.0,0.0,0.0
1785,64.0,90.0,60.0,2.0,0.0
1786,61.0,23.0,60.0,2.0,0.0
1787,54.0,0.0,150.0,8.0,0.0
1788,61.0,0.0,180.0,7.0,0.0
1789,64.0,67.0,180.0,7.0,0.0
1790,78.0,0.0,150.0,5.0,0.0
1791,42.0,0.0,150.0,10.0,0.0
1792,58.0,77.0,60.0,2.0,0.0
1793,66.0,13.0,150.0,6.0,0.0
1794,54.0,23.0,60.0,2.0,0.0
1795,62.0,23.0,60.0,2.0,0.0
1796,90.0,67.0,180.0,0.0,0.0
1797,62.0,0.0,150.0,7.0,0.0
1798,59.0,13.0,150.0,7.0,0.0
1799,66.0,0.0,90.0,1.0,0.0
1800,78.0,54.0,90.0,1.0,0.0
1801,59.0,23.0,60.0,2.0,0.0
1802,71.0,0.0,90.0,1.0,0.0
1803,83.0,0.0,90.0,1.0,0.0
1804,66.0,0.0,180.0,6.0,0.0
1805,74.0,0.0,90.0,1.0,0.0
1806,50.0,0.0,180.0,10.0,0.0
1807,95.0,13.0,150.0,0.0,0.0
1808,86.0,54.0,90.0,1.0,0.0
1809,62.0,67.0,180.0,8.0,0.0
1810,54.0,23.0,60.0,2.0,0.0
1811,62.0,4.0,60.0,2.0,0.0
1812,71.0,0.0,60.0,1.0,0.0
1813,83.0,19.0,60.0,1.0,0.0
1814,67.0,0.0,180.0,6.0,0.0
1815,64.0,90.0,60.0,2.0,0.0
1816,79.0,0.0,15.0,5.0,0.0
1817,94.0,0.0,180.0,0.0,0.0
1818,61.0,0.0,180.0,8.0,0.0
1819,82.0,0.0,180.0,1.0,0.0
1820,49.0,0.0,180.0,10.0,0.0
1821,70.0,0.0,180.0,1.0,0.0
1822,61.0,23.0,60.0,2.0,0.0
1823,42.0,13.0,150.0,10.0,0.0
1824,58.0,77.0,60.0,2.0,0.0
1825,61.0,0.0,180.0,7.0,0.0
1826,78.0,0.0,150.0,5.0,0.0
1827,66.0,0.0,150.0,6.0,0.0
1828,64.0,144.0,180.0,7.0,0.0
1829,54.0,0.0,150.0,8.0,0.0
1830,54.0,23.0,60.0,2.0,0.0
1831,74.0,0.0,180.0,1.0,0.0
1832,59.0,0.0,150.0,7.0,0.0
1833,62.0,36.0,150.0,7.0,0.0
1834,59.0,0.0,180.0,2.0,0.0
1835,86.0,180.0,180.0,0.0,0.0
1836,72.0,0.0,180.0,1.0,0.0
1837,57.0,0.0,180.0,2.0,0.0
1838,66.0,0.0,180.0,2.0,0.0
1839,75.0,180.0,180.0,1.0,0.0
1840,87.0,0.0,180.0,0.0,0.0
1841,71.0,144.0,180.0,1.0,0.0
1842,59.0,0.0,180.0,2.0,0.0
1843,55.0,0.0,180.0,2.0,0.0
1844,76.0,0.0,180.0,1.0,0.0
1845,88.0,0.0,180.0,0.0,0.0
1846,71.0,0.0,150.0,2.0,0.0
1847,56.0,0.0,150.0,2.0,0.0
1848,74.0,216.0,150.0,1.0,0.0
1849,77.0,0.0,150.0,1.0,0.0
1850,89.0,0.0,150.0,0.0,0.0
1851,90.0,0.0,270.0,0.0,0.0
1852,74.0,45.0,270.0,1.0,0.0
1853,78.0,0.0,270.0,1.0,0.0
1854,69.0,0.0,270.0,2.0,0.0
1855,57.0,90.0,180.0,2.0,0.0
1856,45.0,0.0,180.0,2.0,0.0
1857,67.0,0.0,90.0,2.0,0.0
1858,91.0,0.0,40.0,0.0,0.0
1859,79.0,45.0,40.0,1.0,0.0
1860,88.0,0.0,40.0,0.0,0.0
1861,76.0,0.0,15.0,1.0,0.0
1862,73.0,70.0,40.0,1.0,0.0
1863,74.0,0.0,60.0,1.0,0.0
1864,86.0,74.0,60.0,0.0,0.0
1865,66.0,0.0,150.0,2.0,0.0
1866,50.0,216.0,150.0,2.0,0.0
1867,62.0,88.0,180.0,2.0,0.0
1868,78.0,180.0,90.0,5.0,0.0
1869,78.0,137.0,90.0,5.0,0.0
1870,86.0,45.0,40.0,4.0,0.0
1871,62.0,0.0,720.0,7.0,0.0
1872,59.0,0.0,720.0,4.0,0.0
1873,47.0,0.0,720.0,4.0,0.0
1874,59.0,33.0,720.0,8.0,0.0
1875,78.0,0.0,180.0,5.0,0.0
1876,66.0,0.0,1440.0,6.0,0.0
1877,47.0,0.0,720.0,10.0,0.0
1878,85.0,45.0,40.0,4.0,0.0
1879,86.0,47.0,40.0,4.0,0.0
1880,90.0,45.0,40.0,4.0,0.0
1881,83.0,27.0,40.0,4.0,0.0
1882,74.0,16.0,60.0,5.0,0.0
1883,82.0,45.0,40.0,4.0,0.0
1884,83.0,45.0,40.0,4.0,0.0
1885,86.0,45.0,40.0,4.0,0.0
1886,78.0,42.0,90.0,5.0,0.0
1887,78.0,40.0,40.0,4.0,0.0
1888,77.0,3.0,40.0,4.0,0.0
1889,78.0,33.0,40.0,4.0,0.0
1890,83.0,45.0,30.0,4.0,0.0
1891,74.0,36.0,40.0,4.0,0.0
1892,78.0,38.0,90.0,5.0,0.0
1893,73.0,7.0,40.0,4.0,0.0
1894,74.0,71.0,40.0,4.0,0.0
1895,71.0,0.0,60.0,4.0,0.0
1896,78.0,0.0,180.0,5.0,0.0
1897,46.0,0.0,360.0,4.0,0.0
1898,58.0,0.0,360.0,4.0,0.0
1899,46.0,8.0,360.0,10.0,0.0
1900,78.0,49.0,30.0,4.0,0.0
1901,61.0,47.0,660.0,7.0,0.0
1902,58.0,37.0,360.0,8.0,0.0
1903,77.0,45.0,40.0,4.0,0.0
1904,78.0,48.0,40.0,4.0,0.0
1905,82.0,45.0,40.0,4.0,0.0
1906,73.0,18.0,60.0,5.0,0.0
1907,73.0,27.0,40.0,4.0,0.0
1908,72.0,45.0,40.0,4.0,0.0
1909,73.0,42.0,40.0,4.0,0.0
1910,78.0,0.0,40.0,4.0,0.0
1911,45.0,0.0,360.0,4.0,0.0
1912,69.0,44.0,40.0,4.0,0.0
1913,78.0,1.0,90.0,5.0,0.0
1914,57.0,0.0,360.0,4.0,0.0
1915,45.0,0.0,360.0,10.0,0.0
1916,57.0,42.0,360.0,8.0,0.0
1917,68.0,45.0,40.0,4.0,0.0
1918,69.0,41.0,40.0,4.0,0.0
1919,73.0,45.0,40.0,4.0,0.0
1920,66.0,44.0,40.0,4.0,0.0
1921,78.0,1.0,90.0,5.0,0.0
1922,65.0,45.0,40.0,4.0,0.0
1923,66.0,10.0,40.0,4.0,0.0
1924,69.0,0.0,60.0,4.0,0.0
1925,78.0,0.0,360.0,5.0,0.0
1926,62.0,45.0,360.0,7.0,0.0
1927,71.0,0.0,720.0,6.0,0.0
1928,56.0,0.0,360.0,8.0,0.0
1929,44.0,0.0,360.0,10.0,0.0
1930,71.0,42.0,40.0,4.0,0.0
1931,44.0,0.0,360.0,4.0,0.0
1932,56.0,0.0,360.0,4.0,0.0
1933,70.0,45.0,40.0,4.0,0.0
1934,71.0,48.0,40.0,4.0,0.0
1935,83.0,45.0,40.0,4.0,0.0
1936,71.0,48.0,40.0,4.0,0.0
1937,83.0,45.0,40.0,4.0,0.0
1938,73.0,45.0,40.0,4.0,0.0
1939,83.0,0.0,40.0,4.0,0.0
1940,55.0,0.0,360.0,4.0,0.0
1941,43.0,16.0,330.0,10.0,0.0
1942,55.0,5.0,330.0,8.0,0.0
1943,74.0,46.0,40.0,4.0,0.0
1944,43.0,0.0,360.0,4.0,0.0
1945,59.0,0.0,330.0,7.0,0.0
1946,77.0,0.0,270.0,5.0,0.0
1947,83.0,45.0,40.0,4.0,0.0
1948,73.0,48.0,40.0,4.0,0.0
1949,83.0,45.0,40.0,4.0,0.0
1950,74.0,45.0,40.0,4.0,0.0
1951,83.0,45.0,40.0,4.0,0.0
1952,71.0,5.0,40.0,4.0,0.0
1953,78.0,15.0,60.0,5.0,0.0
1954,83.0,47.0,40.0,4.0,0.0
1955,54.0,1.0,360.0,8.0,0.0
1956,42.0,0.0,360.0,10.0,0.0
1957,61.0,0.0,180.0,7.0,0.0
1958,78.0,45.0,180.0,5.0,0.0
1959,82.0,45.0,40.0,4.0,0.0
1960,42.0,0.0,360.0,4.0,0.0
1961,54.0,0.0,360.0,4.0,0.0
1962,70.0,34.0,150.0,6.0,0.0
1963,78.0,45.0,40.0,4.0,0.0
1964,85.0,10.0,40.0,4.0,0.0
1965,82.0,0.0,40.0,4.0,0.0
1966,78.0,45.0,40.0,4.0,0.0
1967,76.0,45.0,40.0,4.0,0.0
1968,73.0,44.0,40.0,4.0,0.0
1969,76.0,45.0,40.0,4.0,0.0
1970,78.0,0.0,180.0,5.0,0.0
1971,74.0,46.0,40.0,4.0,0.0
1972,78.0,45.0,40.0,4.0,0.0
1973,83.0,48.0,40.0,4.0,0.0
1974,86.0,45.0,40.0,4.0,0.0
1975,62.0,0.0,180.0,8.0,0.0
1976,83.0,34.0,150.0,5.0,0.0
1977,78.0,0.0,180.0,6.0,0.0
1978,62.0,46.0,180.0,4.0,0.0
1979,50.0,0.0,180.0,10.0,0.0
1980,90.0,41.0,40.0,4.0,0.0
1981,86.0,45.0,40.0,4.0,0.0
1982,83.0,10.0,40.0,4.0,0.0
1983,78.0,0.0,40.0,4.0,0.0
1984,61.0,1.0,180.0,8.0,0.0
1985,64.0,0.0,270.0,7.0,0.0
1986,79.0,0.0,180.0,6.0,0.0
1987,61.0,0.0,180.0,4.0,0.0
1988,82.0,45.0,180.0,5.0,0.0
1989,91.0,45.0,40.0,4.0,0.0
1990,49.0,0.0,180.0,10.0,0.0
1991,88.0,45.0,40.0,4.0,0.0
1992,85.0,44.0,40.0,4.0,0.0
1993,82.0,0.0,40.0,4.0,0.0
1994,54.0,0.0,150.0,8.0,0.0
1995,78.0,36.0,150.0,6.0,0.0
1996,54.0,45.0,180.0,4.0,0.0
1997,88.0,44.0,40.0,4.0,0.0
1998,42.0,0.0,150.0,10.0,0.0
1999,85.0,45.0,40.0,4.0,0.0
2000,82.0,0.0,40.0,4.0,0.0
2001,66.0,9.0,40.0,7.0,0.0
2002,76.0,0.0,40.0,4.0,0.0
2003,64.0,0.0,40.0,7.0,0.0
2004,62.0,36.0,150.0,7.0,0.0
2005,78.0,0.0,90.0,5.0,0.0
2006,74.0,45.0,40.0,4.0,0.0
2007,78.0,45.0,40.0,4.0,0.0
2008,83.0,9.0,40.0,4.0,0.0
2009,83.0,0.0,90.0,5.0,0.0
2010,86.0,45.0,40.0,4.0,0.0
2011,62.0,0.0,180.0,4.0,0.0
2012,50.0,0.0,180.0,10.0,0.0
2013,90.0,42.0,40.0,4.0,0.0
2014,86.0,45.0,90.0,5.0,0.0
2015,62.0,0.0,180.0,8.0,0.0
2016,54.0,42.0,180.0,7.0,0.0
2017,86.0,0.0,40.0,4.0,0.0
2018,83.0,26.0,40.0,4.0,0.0
2019,83.0,22.0,60.0,5.0,0.0
2020,78.0,0.0,40.0,4.0,0.0
2021,76.0,45.0,270.0,6.0,0.0
2022,82.0,3.0,180.0,5.0,0.0
2023,91.0,48.0,40.0,4.0,0.0
2024,61.0,0.0,180.0,4.0,0.0
2025,55.0,0.0,180.0,7.0,0.0
2026,61.0,42.0,180.0,8.0,0.0
2027,49.0,0.0,180.0,10.0,0.0
2028,88.0,45.0,40.0,4.0,0.0
2029,85.0,42.0,40.0,4.0,0.0
2030,82.0,0.0,40.0,4.0,0.0
2031,54.0,0.0,150.0,7.0,0.0
2032,42.0,5.0,150.0,10.0,0.0
2033,88.0,42.0,40.0,4.0,0.0
2034,54.0,0.0,180.0,4.0,0.0
2035,54.0,20.0,150.0,8.0,0.0
2036,85.0,0.0,40.0,4.0,0.0
2037,82.0,0.0,40.0,4.0,0.0
2038,78.0,10.0,40.0,6.0,0.0
2039,76.0,45.0,40.0,4.0,0.0
2040,76.0,8.0,40.0,6.0,0.0
2041,74.0,50.0,40.0,4.0,0.0
2042,74.0,0.0,180.0,6.0,0.0
2043,83.0,45.0,180.0,5.0,0.0
2044,78.0,45.0,60.0,4.0,0.0
2045,83.0,45.0,40.0,4.0,0.0
2046,86.0,0.0,40.0,4.0,0.0
2047,71.0,45.0,150.0,6.0,0.0
2048,90.0,38.0,40.0,4.0,0.0
2049,47.0,0.0,180.0,10.0,0.0
2050,66.0,0.0,180.0,7.0,0.0
2051,59.0,0.0,180.0,4.0,0.0
2052,74.0,0.0,150.0,5.0,0.0
2053,59.0,0.0,180.0,8.0,0.0
2054,86.0,45.0,40.0,4.0,0.0
2055,83.0,10.0,40.0,4.0,0.0
2056,78.0,39.0,60.0,4.0,0.0
2057,71.0,45.0,270.0,6.0,0.0
2058,76.0,0.0,270.0,5.0,0.0
2059,76.0,48.0,40.0,4.0,0.0
2060,55.0,0.0,180.0,4.0,0.0
2061,43.0,45.0,180.0,10.0,0.0
2062,64.0,0.0,180.0,7.0,0.0
2063,55.0,0.0,180.0,8.0,0.0
2064,79.0,45.0,40.0,4.0,0.0
2065,83.0,48.0,40.0,4.0,0.0
2066,88.0,0.0,40.0,4.0,0.0
2067,52.0,0.0,180.0,8.0,0.0
2068,91.0,45.0,40.0,4.0,0.0
2069,52.0,0.0,180.0,4.0,0.0
2070,40.0,0.0,180.0,10.0,0.0
2071,67.0,0.0,90.0,7.0,0.0
2072,88.0,0.0,40.0,4.0,0.0
2073,78.0,0.0,40.0,5.0,0.0
2074,83.0,26.0,40.0,4.0,0.0
2075,73.0,19.0,60.0,6.0,0.0
2076,71.0,0.0,60.0,7.0,0.0
2077,79.0,0.0,40.0,4.0,0.0
2078,79.0,45.0,40.0,5.0,0.0
2079,69.0,0.0,90.0,7.0,0.0
2080,74.0,41.0,90.0,6.0,0.0
2081,45.0,9.0,180.0,10.0,0.0
2082,57.0,14.0,180.0,8.0,0.0
2083,78.0,32.0,150.0,5.0,0.0
2084,78.0,39.0,40.0,4.0,0.0
2085,57.0,0.0,180.0,4.0,0.0
2086,81.0,4.0,40.0,4.0,0.0
2087,74.0,10.0,40.0,4.0,0.0
2088,78.0,0.0,40.0,4.0,0.0
2089,76.0,0.0,40.0,4.0,0.0
2090,67.0,0.0,90.0,7.0,0.0
2091,76.0,22.0,20.0,5.0,0.0
2092,33.0,0.0,180.0,10.0,0.0
2093,73.0,0.0,90.0,6.0,0.0
2094,45.0,0.0,180.0,4.0,0.0
2095,45.0,0.0,180.0,8.0,0.0
2096,78.0,23.0,20.0,5.0,0.0
2097,76.0,21.0,20.0,5.0,0.0
2098,79.0,45.0,40.0,4.0,0.0
2099,78.0,0.0,20.0,5.0,0.0
2100,74.0,0.0,40.0,5.0,0.0
2101,73.0,55.0,40.0,4.0,0.0
2102,76.0,142.0,60.0,4.0,0.0
2103,76.0,0.0,60.0,5.0,0.0
2104,66.0,0.0,180.0,7.0,0.0
2105,74.0,0.0,180.0,6.0,0.0
2106,74.0,35.0,150.0,5.0,0.0
2107,50.0,177.0,180.0,8.0,0.0
2108,50.0,0.0,180.0,4.0,0.0
2109,74.0,3.0,180.0,4.0,0.0
2110,38.0,0.0,180.0,10.0,0.0
2111,62.0,135.0,180.0,4.0,0.0
2112,78.0,180.0,120.0,1.0,0.0
2113,81.0,0.0,120.0,1.0,0.0
2114,81.0,177.0,120.0,1.0,0.0
2115,78.0,0.0,120.0,1.0,0.0
2116,78.0,90.0,360.0,1.0,0.0
2117,81.0,0.0,450.0,1.0,0.0
2118,50.0,0.0,120.0,2.0,0.0
2119,54.0,94.0,40.0,2.0,0.0
2120,57.0,90.0,40.0,2.0,0.0
2121,62.0,47.0,40.0,2.0,0.0
2122,47.0,43.0,90.0,2.0,0.0
2123,74.0,43.0,270.0,1.0,0.0
2124,80.0,43.0,90.0,1.0,0.0
2125,50.0,0.0,40.0,2.0,0.0
2126,56.0,47.0,40.0,2.0,0.0
2127,83.0,0.0,90.0,1.0,0.0
2128,59.0,47.0,40.0,2.0,0.0
2129,80.0,90.0,90.0,1.0,0.0
2130,71.0,0.0,90.0,1.0,0.0
2131,78.0,0.0,180.0,1.0,0.0
2132,69.0,71.0,180.0,1.0,0.0
2133,49.0,90.0,90.0,2.0,0.0
2134,60.0,0.0,90.0,2.0,0.0
2135,61.0,62.0,60.0,2.0,0.0
2136,77.0,0.0,180.0,1.0,0.0
2137,68.0,43.0,180.0,1.0,0.0
2138,59.0,47.0,40.0,2.0,0.0
2139,57.0,90.0,40.0,2.0,0.0
2140,85.0,43.0,450.0,1.0,0.0
2141,73.0,43.0,360.0,1.0,0.0
2142,54.0,90.0,40.0,2.0,0.0
2143,56.0,90.0,40.0,2.0,0.0
2144,57.0,47.0,40.0,2.0,0.0
2145,59.0,47.0,40.0,2.0,0.0
2146,74.0,43.0,180.0,1.0,0.0
2147,86.0,0.0,180.0,0.0,0.0
2148,56.0,47.0,40.0,2.0,0.0
2149,83.0,43.0,180.0,1.0,0.0
2150,85.0,43.0,270.0,0.0,0.0
2151,53.0,47.0,40.0,2.0,0.0
2152,73.0,0.0,270.0,1.0,0.0
2153,54.0,90.0,40.0,2.0,0.0
2154,81.0,0.0,180.0,1.0,0.0
2155,59.0,47.0,40.0,2.0,0.0
2156,71.0,0.0,90.0,1.0,0.0
2157,80.0,43.0,90.0,1.0,0.0
2158,56.0,41.0,40.0,2.0,0.0
2159,83.0,0.0,90.0,0.0,0.0
2160,81.0,0.0,90.0,0.0,0.0
2161,61.0,41.0,40.0,2.0,0.0
2162,69.0,0.0,90.0,1.0,0.0
2163,78.0,44.0,90.0,1.0,0.0
2164,68.0,0.0,90.0,1.0,0.0
2165,77.0,82.0,90.0,1.0,0.0
2166,80.0,0.0,90.0,0.0,0.0
2167,49.0,58.0,40.0,2.0,0.0
2168,54.0,0.0,180.0,2.0,0.0
2169,78.0,90.0,90.0,0.0,0.0
2170,78.0,93.0,180.0,1.0,0.0
2171,66.0,0.0,180.0,1.0,0.0
2172,80.0,0.0,90.0,0.0,0.0
2173,81.0,95.0,90.0,0.0,0.0
2174,82.0,92.0,90.0,0.0,0.0
2175,83.0,0.0,1260.0,0.0,0.0
2176,79.0,0.0,90.0,1.0,0.0
2177,71.0,93.0,90.0,2.0,0.0
2178,71.0,0.0,1260.0,1.0,0.0
2179,78.0,93.0,90.0,1.0,0.0
2180,69.0,0.0,90.0,2.0,0.0
2181,71.0,0.0,15.0,3.0,0.0
2182,59.0,0.0,15.0,3.0,0.0
2183,76.0,0.0,90.0,1.0,0.0
2184,67.0,82.0,90.0,2.0,0.0
2185,59.0,0.0,180.0,2.0,0.0
2186,75.0,0.0,90.0,1.0,0.0
2187,66.0,94.0,90.0,2.0,0.0
2188,76.0,90.0,90.0,1.0,0.0
2189,71.0,0.0,900.0,3.0,0.0
2190,59.0,0.0,900.0,3.0,0.0
2191,64.0,0.0,360.0,2.0,0.0
2192,67.0,0.0,90.0,2.0,0.0
2193,66.0,90.0,90.0,2.0,0.0
2194,75.0,0.0,90.0,1.0,0.0
2195,76.0,90.0,90.0,1.0,0.0
2196,67.0,0.0,90.0,2.0,0.0
2197,69.0,0.0,90.0,2.0,0.0
2198,78.0,87.0,90.0,1.0,0.0
2199,71.0,0.0,90.0,2.0,0.0
2200,79.0,89.0,90.0,1.0,0.0
2201,78.0,0.0,90.0,1.0,0.0
2202,69.0,87.0,90.0,2.0,0.0
2203,76.0,0.0,90.0,1.0,0.0
2204,59.0,180.0,180.0,2.0,0.0
2205,67.0,93.0,90.0,2.0,0.0
2206,75.0,0.0,90.0,1.0,0.0
2207,66.0,0.0,90.0,2.0,0.0
2208,52.0,88.0,360.0,2.0,0.0
2209,67.0,0.0,180.0,2.0,0.0
2210,76.0,180.0,180.0,1.0,0.0
2211,72.0,180.0,90.0,6.0,0.0
2212,76.0,0.0,90.0,5.0,0.0
2213,67.0,144.0,180.0,7.0,0.0
2214,71.0,0.0,90.0,6.0,0.0
2215,76.0,92.0,90.0,5.0,0.0
2216,76.0,71.0,180.0,5.0,0.0
2217,70.0,36.0,150.0,6.0,0.0
2218,66.0,124.0,330.0,7.0,0.0
2219,73.0,73.0,60.0,5.0,0.0
2220,76.0,0.0,90.0,6.0,0.0
2221,60.0,0.0,90.0,8.0,0.0
2222,91.0,0.0,90.0,0.0,0.0
2223,67.0,180.0,90.0,2.0,0.0
2224,79.0,0.0,90.0,1.0,0.0
2225,48.0,0.0,90.0,10.0,0.0
2226,82.0,0.0,90.0,5.0,0.0
2227,59.0,0.0,90.0,8.0,0.0
2228,91.0,0.0,90.0,0.0,0.0
2229,67.0,180.0,90.0,2.0,0.0
2230,47.0,0.0,90.0,10.0,0.0
2231,79.0,0.0,90.0,1.0,0.0
2232,58.0,0.0,150.0,8.0,0.0
2233,46.0,36.0,150.0,10.0,0.0
2234,79.0,0.0,180.0,1.0,0.0
2235,67.0,71.0,180.0,2.0,0.0
2236,88.0,0.0,90.0,5.0,0.0
2237,85.0,56.0,90.0,6.0,0.0
2238,91.0,0.0,180.0,0.0,0.0
2239,78.0,0.0,60.0,1.0,0.0
2240,90.0,0.0,60.0,0.0,0.0
2241,66.0,289.0,60.0,2.0,0.0
2242,59.0,90.0,360.0,8.0,0.0
2243,56.0,0.0,180.0,7.0,0.0
2244,65.0,0.0,180.0,6.0,0.0
2245,86.0,144.0,180.0,5.0,0.0
2246,47.0,0.0,360.0,10.0,0.0
2247,77.0,36.0,150.0,5.0,0.0
2248,74.0,0.0,150.0,6.0,0.0
2249,68.0,0.0,150.0,7.0,0.0
2250,58.0,180.0,180.0,8.0,0.0
2251,46.0,0.0,180.0,10.0,0.0
2252,78.0,90.0,90.0,5.0,0.0
2253,70.0,0.0,180.0,7.0,0.0
2254,73.0,0.0,15.0,6.0,0.0
2255,78.0,0.0,90.0,5.0,0.0
2256,59.0,0.0,180.0,8.0,0.0
2257,71.0,0.0,180.0,7.0,0.0
2258,47.0,90.0,180.0,10.0,0.0
2259,74.0,0.0,90.0,5.0,0.0
2260,71.0,0.0,90.0,6.0,0.0
2261,76.0,0.0,90.0,5.0,0.0
2262,52.0,136.0,180.0,8.0,0.0
2263,67.0,9.0,180.0,7.0,0.0
2264,40.0,0.0,180.0,10.0,0.0
2265,73.0,81.0,90.0,6.0,0.0
2266,76.0,0.0,90.0,5.0,0.0
2267,73.0,0.0,90.0,6.0,0.0
2268,66.0,8.0,150.0,7.0,0.0
2269,85.0,0.0,180.0,0.0,0.0
2270,70.0,0.0,180.0,1.0,0.0
2271,42.0,0.0,150.0,10.0,0.0
2272,73.0,0.0,180.0,1.0,0.0
2273,54.0,36.0,150.0,8.0,0.0
2274,70.0,0.0,90.0,6.0,0.0
2275,73.0,171.0,90.0,5.0,0.0
2276,71.0,180.0,720.0,3.0,0.0
2277,59.0,0.0,360.0,7.0,0.0
2278,35.0,0.0,360.0,10.0,0.0
2279,47.0,0.0,360.0,8.0,0.0
2280,74.0,0.0,180.0,1.0,0.0
2281,71.0,189.0,180.0,1.0,0.0
2282,71.0,180.0,360.0,5.0,0.0
2283,71.0,0.0,360.0,6.0,0.0
2284,86.0,0.0,180.0,0.0,0.0
2285,87.0,0.0,180.0,0.0,0.0
2286,69.0,0.0,180.0,1.0,0.0
2287,75.0,0.0,180.0,1.0,0.0
2288,88.0,0.0,180.0,0.0,0.0
2289,76.0,144.0,180.0,1.0,0.0
2290,68.0,0.0,180.0,1.0,0.0
2291,89.0,0.0,150.0,0.0,0.0
2292,62.0,0.0,180.0,2.0,0.0
2293,77.0,36.0,150.0,1.0,0.0
2294,67.0,0.0,150.0,1.0,0.0
2295,59.0,0.0,180.0,2.0,0.0
2296,61.0,180.0,180.0,2.0,0.0
2297,58.0,0.0,180.0,2.0,0.0
2298,66.0,180.0,360.0,3.0,0.0
2299,66.0,0.0,360.0,1.0,0.0
2300,78.0,0.0,540.0,1.0,0.0
2301,90.0,0.0,540.0,0.0,0.0
2302,60.0,0.0,180.0,2.0,0.0
2303,57.0,0.0,180.0,2.0,0.0
2304,56.0,180.0,180.0,2.0,0.0
2305,71.0,180.0,360.0,1.0,0.0
2306,59.0,0.0,360.0,2.0,0.0
2307,59.0,0.0,360.0,3.0,0.0
2308,88.0,90.0,360.0,0.0,0.0
2309,55.0,0.0,180.0,2.0,0.0
2310,76.0,0.0,180.0,1.0,0.0
2311,61.0,0.0,180.0,2.0,0.0
2312,54.0,0.0,180.0,2.0,0.0
2313,70.0,0.0,180.0,1.0,0.0
2314,76.0,0.0,180.0,1.0,0.0
2315,54.0,0.0,180.0,3.0,0.0
2316,71.0,0.0,360.0,1.0,0.0
2317,53.0,0.0,180.0,2.0,0.0
2318,62.0,54.0,90.0,2.0,0.0
2319,74.0,22.0,180.0,1.0,0.0
2320,86.0,36.0,150.0,0.0,0.0
2321,59.0,0.0,90.0,2.0,0.0
2322,73.0,0.0,360.0,1.0,0.0
2323,66.0,0.0,180.0,3.0,0.0
2324,66.0,45.0,270.0,2.0,0.0
2325,85.0,23.0,20.0,0.0,0.0
2326,86.0,22.0,20.0,0.0,0.0
2327,85.0,23.0,20.0,0.0,0.0
2328,86.0,22.0,20.0,0.0,0.0
2329,85.0,23.0,20.0,0.0,0.0
2330,86.0,22.0,20.0,0.0,0.0
2331,85.0,23.0,20.0,0.0,0.0
2332,86.0,0.0,20.0,0.0,0.0
2333,70.0,0.0,180.0,1.0,0.0
2334,85.0,23.0,20.0,0.0,0.0
2335,54.0,0.0,15.0,3.0,0.0
2336,66.0,0.0,180.0,3.0,0.0
2337,54.0,22.0,15.0,2.0,0.0
2338,86.0,22.0,20.0,0.0,0.0
2339,85.0,15.0,20.0,0.0,0.0
2340,86.0,0.0,15.0,0.0,0.0
2341,83.0,53.0,40.0,0.0,0.0
2342,64.0,0.0,90.0,2.0,0.0
2343,85.0,0.0,60.0,0.0,0.0
2344,83.0,36.0,150.0,0.0,0.0
2345,62.0,0.0,180.0,2.0,0.0
2346,47.0,0.0,180.0,2.0,0.0
2347,71.0,0.0,180.0,1.0,0.0
2348,54.0,180.0,180.0,3.0,0.0
2349,66.0,0.0,180.0,3.0,0.0
2350,59.0,88.0,180.0,2.0,0.0
2351,78.0,0.0,90.0,6.0,0.0
2352,81.0,180.0,90.0,5.0,0.0
2353,78.0,0.0,90.0,6.0,0.0
2354,81.0,137.0,90.0,5.0,0.0
2355,93.0,45.0,40.0,4.0,0.0
2356,62.0,39.0,360.0,8.0,0.0
2357,74.0,0.0,360.0,7.0,0.0
2358,78.0,0.0,360.0,6.0,0.0
2359,81.0,0.0,450.0,5.0,0.0
2360,50.0,6.0,360.0,10.0,0.0
2361,50.0,0.0,360.0,4.0,0.0
2362,62.0,0.0,360.0,4.0,0.0
2363,90.0,45.0,40.0,4.0,0.0
2364,86.0,45.0,40.0,4.0,0.0
2365,90.0,45.0,40.0,4.0,0.0
2366,81.0,45.0,40.0,4.0,0.0
2367,86.0,45.0,40.0,4.0,0.0
2368,78.0,39.0,40.0,4.0,0.0
2369,81.0,0.0,40.0,4.0,0.0
2370,86.0,45.0,40.0,4.0,0.0
2371,47.0,42.0,360.0,4.0,0.0
2372,47.0,17.0,300.0,10.0,0.0
2373,59.0,0.0,360.0,4.0,0.0
2374,74.0,0.0,270.0,6.0,0.0
2375,71.0,0.0,180.0,7.0,0.0
2376,59.0,36.0,330.0,8.0,0.0
2377,83.0,45.0,40.0,4.0,0.0
2378,80.0,0.0,90.0,5.0,0.0
2379,80.0,39.0,40.0,4.0,0.0
2380,83.0,45.0,40.0,4.0,0.0
2381,74.0,40.0,40.0,4.0,0.0
2382,68.0,0.0,150.0,7.0,0.0
2383,83.0,45.0,90.0,5.0,0.0
2384,80.0,0.0,40.0,4.0,0.0
2385,71.0,9.0,40.0,4.0,0.0
2386,71.0,0.0,60.0,6.0,0.0
2387,80.0,0.0,60.0,5.0,0.0
2388,80.0,0.0,60.0,4.0,0.0
2389,69.0,0.0,180.0,6.0,0.0
2390,73.0,0.0,360.0,7.0,0.0
2391,49.0,0.0,360.0,10.0,0.0
2392,78.0,45.0,180.0,5.0,0.0
2393,69.0,45.0,40.0,4.0,0.0
2394,49.0,0.0,360.0,4.0,0.0
2395,61.0,3.0,360.0,4.0,0.0
2396,61.0,42.0,360.0,8.0,0.0
2397,73.0,45.0,40.0,4.0,0.0
2398,78.0,45.0,40.0,4.0,0.0
2399,69.0,0.0,40.0,4.0,0.0
2400,68.0,45.0,40.0,4.0,0.0
2401,68.0,35.0,150.0,6.0,0.0
2402,77.0,0.0,150.0,5.0,0.0
2403,73.0,45.0,40.0,4.0,0.0
2404,77.0,10.0,40.0,4.0,0.0
2405,68.0,0.0,40.0,4.0,0.0
2406,85.0,0.0,360.0,5.0,0.0
2407,81.0,44.0,540.0,6.0,0.0
2408,66.0,0.0,360.0,7.0,0.0
2409,42.0,0.0,360.0,10.0,0.0
2410,73.0,0.0,360.0,6.0,0.0
2411,69.0,48.0,40.0,4.0,0.0
2412,54.0,0.0,360.0,4.0,0.0
2413,42.0,0.0,360.0,4.0,0.0
2414,54.0,0.0,360.0,8.0,0.0
2415,66.0,45.0,40.0,4.0,0.0
2416,73.0,49.0,40.0,4.0,0.0
2417,69.0,45.0,40.0,4.0,0.0
2418,78.0,50.0,40.0,4.0,0.0
2419,73.0,45.0,60.0,4.0,0.0
2420,81.0,36.0,40.0,4.0,0.0
2421,78.0,50.0,40.0,4.0,0.0
2422,85.0,45.0,40.0,4.0,0.0
2423,85.0,35.0,150.0,5.0,0.0
2424,81.0,45.0,40.0,4.0,0.0
2425,78.0,10.0,40.0,4.0,0.0
2426,73.0,0.0,40.0,4.0,0.0
2427,80.0,0.0,40.0,6.0,0.0
2428,85.0,44.0,40.0,4.0,0.0
2429,83.0,1.0,40.0,5.0,0.0
2430,73.0,43.0,40.0,4.0,0.0
2431,78.0,0.0,40.0,6.0,0.0
2432,81.0,2.0,40.0,5.0,0.0
2433,85.0,45.0,40.0,4.0,0.0
2434,73.0,45.0,40.0,4.0,0.0
2435,61.0,39.0,180.0,8.0,0.0
2436,49.0,0.0,180.0,10.0,0.0
2437,81.0,0.0,90.0,5.0,0.0
2438,61.0,5.0,180.0,4.0,0.0
2439,85.0,42.0,40.0,4.0,0.0
2440,73.0,45.0,90.0,6.0,0.0
2441,73.0,0.0,40.0,4.0,0.0
2442,71.0,0.0,60.0,6.0,0.0
2443,83.0,27.0,40.0,4.0,0.0
2444,80.0,12.0,60.0,5.0,0.0
2445,73.0,0.0,40.0,4.0,0.0
2446,78.0,0.0,40.0,5.0,0.0
2447,37.0,0.0,180.0,10.0,0.0
2448,73.0,0.0,15.0,7.0,0.0
2449,69.0,1.0,40.0,6.0,0.0
2450,49.0,40.0,180.0,4.0,0.0
2451,81.0,40.0,40.0,4.0,0.0
2452,49.0,0.0,180.0,8.0,0.0
2453,73.0,43.0,40.0,4.0,0.0
2454,68.0,0.0,40.0,6.0,0.0
2455,80.0,55.0,40.0,4.0,0.0
2456,77.0,2.0,40.0,5.0,0.0
2457,73.0,0.0,60.0,4.0,0.0
2458,69.0,45.0,180.0,6.0,0.0
2459,78.0,0.0,180.0,5.0,0.0
2460,42.0,0.0,360.0,10.0,0.0
2461,73.0,0.0,180.0,7.0,0.0
2462,78.0,45.0,40.0,4.0,0.0
2463,54.0,0.0,360.0,4.0,0.0
2464,54.0,43.0,360.0,8.0,0.0
2465,80.0,45.0,40.0,4.0,0.0
2466,78.0,45.0,40.0,4.0,0.0
2467,77.0,0.0,40.0,4.0,0.0
2468,78.0,47.0,40.0,4.0,0.0
2469,72.0,36.0,150.0,7.0,0.0
2470,80.0,45.0,40.0,4.0,0.0
2471,81.0,10.0,40.0,4.0,0.0
2472,82.0,2.0,40.0,4.0,0.0
2473,71.0,0.0,1260.0,7.0,0.0
2474,79.0,45.0,90.0,5.0,0.0
2475,71.0,0.0,90.0,6.0,0.0
2476,84.0,47.0,40.0,4.0,0.0
2477,83.0,0.0,40.0,4.0,0.0
2478,78.0,0.0,90.0,5.0,0.0
2479,82.0,50.0,40.0,4.0,0.0
2480,69.0,44.0,90.0,6.0,0.0
2481,83.0,0.0,60.0,4.0,0.0
2482,59.0,0.0,180.0,8.0,0.0
2483,59.0,0.0,180.0,4.0,0.0
2484,84.0,48.0,40.0,4.0,0.0
2485,76.0,1.0,40.0,5.0,0.0
2486,47.0,0.0,180.0,10.0,0.0
2487,67.0,0.0,40.0,6.0,0.0
2488,69.0,29.0,180.0,4.0,0.0
2489,85.0,44.0,40.0,4.0,0.0
2490,66.0,1.0,40.0,6.0,0.0
2491,86.0,37.0,40.0,4.0,0.0
2492,75.0,0.0,40.0,5.0,0.0
2493,87.0,0.0,40.0,4.0,0.0
2494,64.0,1.0,360.0,8.0,0.0
2495,67.0,0.0,360.0,4.0,0.0
2496,64.0,0.0,360.0,4.0,0.0
2497,88.0,45.0,40.0,4.0,0.0
2498,76.0,23.0,20.0,5.0,0.0
2499,52.0,45.0,360.0,10.0,0.0
2500,67.0,0.0,20.0,6.0,0.0
2501,69.0,0.0,20.0,6.0,0.0
2502,78.0,0.0,20.0,5.0,0.0
2503,76.0,45.0,40.0,5.0,0.0
2504,67.0,0.0,40.0,6.0,0.0
2505,90.0,0.0,40.0,4.0,0.0
2506,75.0,0.0,60.0,5.0,0.0
2507,88.0,26.0,40.0,4.0,0.0
2508,66.0,17.0,60.0,6.0,0.0
2509,87.0,44.0,40.0,4.0,0.0
2510,76.0,0.0,40.0,5.0,0.0
2511,88.0,42.0,40.0,4.0,0.0
2512,67.0,1.0,40.0,6.0,0.0
2513,90.0,44.0,40.0,4.0,0.0
2514,78.0,0.0,40.0,5.0,0.0
2515,69.0,1.0,40.0,6.0,0.0
2516,91.0,43.0,40.0,4.0,0.0
2517,88.0,0.0,40.0,4.0,0.0
2518,84.0,44.0,40.0,4.0,0.0
2519,71.0,45.0,90.0,6.0,0.0
2520,79.0,0.0,90.0,5.0,0.0
2521,83.0,0.0,40.0,4.0,0.0
2522,69.0,17.0,60.0,6.0,0.0
2523,78.0,0.0,60.0,5.0,0.0
2524,82.0,26.0,40.0,4.0,0.0
2525,83.0,44.0,40.0,4.0,0.0
2526,69.0,0.0,180.0,4.0,0.0
2527,76.0,1.0,40.0,5.0,0.0
2528,67.0,0.0,40.0,6.0,0.0
2529,84.0,45.0,40.0,4.0,0.0
2530,47.0,0.0,180.0,10.0,0.0
2531,59.0,0.0,180.0,4.0,0.0
2532,59.0,43.0,180.0,8.0,0.0
2533,85.0,44.0,40.0,4.0,0.0
2534,66.0,0.0,40.0,6.0,0.0
2535,75.0,1.0,40.0,5.0,0.0
2536,86.0,47.0,40.0,4.0,0.0
2537,87.0,0.0,40.0,4.0,0.0
2538,67.0,45.0,180.0,6.0,0.0
2539,76.0,0.0,180.0,5.0,0.0
2540,40.0,0.0,360.0,10.0,0.0
2541,88.0,47.0,40.0,4.0,0.0
2542,64.0,45.0,360.0,4.0,0.0
2543,67.0,0.0,360.0,4.0,0.0
2544,52.0,0.0,360.0,8.0,0.0
2545,90.0,45.0,40.0,4.0,0.0
2546,88.0,45.0,40.0,4.0,0.0
2547,87.0,0.0,40.0,4.0,0.0
2548,88.0,45.0,40.0,4.0,0.0
2549,90.0,45.0,40.0,4.0,0.0
2550,91.0,45.0,40.0,4.0,0.0
2551,90.0,0.0,40.0,4.0,0.0
2552,76.0,0.0,90.0,5.0,0.0
2553,88.0,43.0,40.0,4.0,0.0
2554,90.0,45.0,40.0,4.0,0.0
2555,86.0,41.0,40.0,4.0,0.0
2556,88.0,45.0,40.0,4.0,0.0
2557,76.0,45.0,90.0,5.0,0.0
2558,67.0,0.0,180.0,4.0,0.0
2559,64.0,0.0,180.0,4.0,0.0
2560,84.0,43.0,40.0,4.0,0.0
2561,67.0,40.0,180.0,7.0,0.0
2562,86.0,0.0,40.0,4.0,0.0
2563,83.0,53.0,40.0,4.0,0.0
2564,84.0,0.0,60.0,4.0,0.0
2565,76.0,45.0,180.0,5.0,0.0
2566,82.0,47.0,40.0,4.0,0.0
2567,66.0,45.0,360.0,4.0,0.0
2568,66.0,35.0,330.0,7.0,0.0
2569,85.0,45.0,40.0,4.0,0.0
2570,88.0,45.0,40.0,4.0,0.0
2571,91.0,0.0,40.0,4.0,0.0
2572,73.0,45.0,90.0,5.0,0.0
2573,88.0,46.0,40.0,4.0,0.0
2574,85.0,0.0,40.0,4.0,0.0
2575,82.0,10.0,40.0,4.0,0.0
2576,85.0,0.0,40.0,4.0,0.0
2577,67.0,0.0,90.0,6.0,0.0
2578,79.0,0.0,90.0,5.0,0.0
2579,79.0,44.0,40.0,4.0,0.0
2580,82.0,45.0,40.0,4.0,0.0
2581,76.0,43.0,40.0,4.0,0.0
2582,79.0,45.0,40.0,4.0,0.0
2583,73.0,44.0,40.0,4.0,0.0
2584,79.0,45.0,90.0,5.0,0.0
2585,67.0,0.0,90.0,6.0,0.0
2586,76.0,0.0,40.0,4.0,0.0
2587,70.0,51.0,40.0,4.0,0.0
2588,73.0,42.0,60.0,4.0,0.0
2589,79.0,0.0,180.0,5.0,0.0
2590,46.0,3.0,360.0,10.0,0.0
2591,61.0,0.0,360.0,7.0,0.0
2592,67.0,45.0,180.0,6.0,0.0
2593,64.0,0.0,360.0,7.0,0.0
2594,58.0,42.0,360.0,8.0,0.0
2595,46.0,0.0,360.0,4.0,0.0
2596,67.0,45.0,40.0,4.0,0.0
2597,58.0,0.0,360.0,4.0,0.0
2598,73.0,45.0,40.0,4.0,0.0
2599,76.0,45.0,40.0,4.0,0.0
2600,73.0,0.0,40.0,4.0,0.0
2601,66.0,45.0,40.0,4.0,0.0
2602,78.0,0.0,90.0,5.0,0.0
2603,66.0,45.0,90.0,6.0,0.0
2604,73.0,0.0,40.0,4.0,0.0
2605,76.0,45.0,40.0,4.0,0.0
2606,73.0,0.0,40.0,4.0,0.0
2607,86.0,11.0,180.0,5.0,0.0
2608,65.0,45.0,180.0,6.0,0.0
2609,56.0,0.0,180.0,7.0,0.0
2610,62.0,0.0,180.0,7.0,0.0
2611,59.0,0.0,360.0,4.0,0.0
2612,68.0,48.0,40.0,4.0,0.0
2613,47.0,0.0,360.0,10.0,0.0
2614,47.0,50.0,360.0,4.0,0.0
2615,59.0,0.0,360.0,8.0,0.0
2616,71.0,45.0,40.0,4.0,0.0
2617,74.0,38.0,40.0,4.0,0.0
2618,77.0,0.0,40.0,4.0,0.0
2619,77.0,5.0,90.0,5.0,0.0
2620,71.0,0.0,180.0,7.0,0.0
2621,68.0,0.0,180.0,7.0,0.0
2622,74.0,0.0,180.0,6.0,0.0
2623,80.0,43.0,40.0,4.0,0.0
2624,83.0,45.0,40.0,4.0,0.0
2625,86.0,38.0,40.0,4.0,0.0
2626,89.0,0.0,40.0,4.0,0.0
2627,58.0,4.0,180.0,8.0,0.0
2628,78.0,45.0,40.0,4.0,0.0
2629,78.0,0.0,180.0,5.0,0.0
2630,58.0,0.0,180.0,4.0,0.0
2631,46.0,0.0,180.0,10.0,0.0
2632,73.0,45.0,180.0,6.0,0.0
2633,70.0,0.0,180.0,7.0,0.0
2634,85.0,45.0,40.0,4.0,0.0
2635,90.0,40.0,40.0,4.0,0.0
2636,85.0,0.0,40.0,4.0,0.0
2637,59.0,2.0,180.0,8.0,0.0
2638,78.0,45.0,40.0,4.0,0.0
2639,59.0,45.0,180.0,4.0,0.0
2640,66.0,0.0,270.0,6.0,0.0
2641,71.0,0.0,180.0,7.0,0.0
2642,76.0,0.0,90.0,5.0,0.0
2643,47.0,0.0,180.0,10.0,0.0
2644,83.0,45.0,40.0,4.0,0.0
2645,86.0,41.0,40.0,4.0,0.0
2646,83.0,0.0,40.0,4.0,0.0
2647,52.0,42.0,180.0,8.0,0.0
2648,40.0,0.0,180.0,10.0,0.0
2649,74.0,0.0,15.0,5.0,0.0
2650,67.0,0.0,180.0,7.0,0.0
2651,52.0,0.0,180.0,4.0,0.0
2652,76.0,43.0,40.0,4.0,0.0
2653,79.0,0.0,40.0,4.0,0.0
2654,85.0,42.0,40.0,4.0,0.0
2655,73.0,0.0,90.0,5.0,0.0
2656,64.0,0.0,90.0,6.0,0.0
2657,79.0,3.0,40.0,4.0,0.0
2658,54.0,0.0,180.0,4.0,0.0
2659,66.0,0.0,180.0,7.0,0.0
2660,62.0,45.0,90.0,6.0,0.0
2661,71.0,0.0,90.0,5.0,0.0
2662,42.0,0.0,180.0,10.0,0.0
2663,76.0,42.0,40.0,4.0,0.0
2664,54.0,42.0,180.0,8.0,0.0
2665,78.0,0.0,40.0,4.0,0.0
2666,70.0,0.0,90.0,5.0,0.0
2667,82.0,51.0,40.0,4.0,0.0
2668,61.0,0.0,90.0,6.0,0.0
2669,78.0,0.0,60.0,4.0,0.0
2670,74.0,45.0,40.0,4.0,0.0
2671,43.0,0.0,540.0,4.0,0.0
2672,71.0,0.0,180.0,7.0,0.0
2673,71.0,0.0,180.0,5.0,0.0
2674,55.0,0.0,540.0,4.0,0.0
2675,59.0,0.0,180.0,6.0,0.0
2676,55.0,45.0,540.0,8.0,0.0
2677,43.0,0.0,540.0,10.0,0.0
2678,83.0,45.0,40.0,4.0,0.0
2679,86.0,45.0,40.0,4.0,0.0
2680,83.0,45.0,40.0,4.0,0.0
2681,75.0,48.0,40.0,4.0,0.0
2682,83.0,45.0,40.0,4.0,0.0
2683,87.0,45.0,40.0,4.0,0.0
2684,83.0,45.0,40.0,4.0,0.0
2685,83.0,0.0,180.0,5.0,0.0
2686,71.0,0.0,180.0,6.0,0.0
2687,76.0,45.0,40.0,4.0,0.0
2688,83.0,45.0,40.0,4.0,0.0
2689,88.0,45.0,40.0,4.0,0.0
2690,83.0,0.0,40.0,4.0,0.0
2691,74.0,46.0,180.0,6.0,0.0
2692,71.0,0.0,180.0,7.0,0.0
2693,77.0,0.0,180.0,5.0,0.0
2694,44.0,0.0,180.0,4.0,0.0
2695,56.0,0.0,180.0,4.0,0.0
2696,44.0,0.0,180.0,10.0,0.0
2697,77.0,46.0,40.0,4.0,0.0
2698,56.0,0.0,180.0,8.0,0.0
2699,83.0,45.0,40.0,4.0,0.0
2700,89.0,44.0,40.0,4.0,0.0
2701,83.0,0.0,40.0,4.0,0.0
2702,57.0,0.0,180.0,8.0,0.0
2703,78.0,45.0,540.0,5.0,0.0
2704,73.0,0.0,180.0,6.0,0.0
2705,78.0,44.0,40.0,4.0,0.0
2706,57.0,0.0,180.0,4.0,0.0
2707,45.0,0.0,180.0,10.0,0.0
2708,45.0,0.0,180.0,4.0,0.0
2709,66.0,0.0,180.0,7.0,0.0
2710,85.0,45.0,40.0,4.0,0.0
2711,90.0,45.0,40.0,4.0,0.0
2712,85.0,45.0,40.0,4.0,0.0
2713,76.0,0.0,180.0,6.0,0.0
2714,58.0,2.0,180.0,8.0,0.0
2715,46.0,0.0,180.0,10.0,0.0
2716,58.0,0.0,180.0,4.0,0.0
2717,46.0,45.0,180.0,4.0,0.0
2718,79.0,46.0,40.0,4.0,0.0
2719,73.0,0.0,180.0,7.0,0.0
2720,88.0,45.0,40.0,4.0,0.0
2721,91.0,44.0,40.0,4.0,0.0
2722,88.0,0.0,40.0,4.0,0.0
2723,59.0,0.0,360.0,8.0,0.0
2724,74.0,0.0,180.0,6.0,0.0
2725,59.0,0.0,360.0,4.0,0.0
2726,78.0,44.0,40.0,4.0,0.0
2727,47.0,0.0,360.0,10.0,0.0
2728,71.0,0.0,180.0,7.0,0.0
2729,47.0,0.0,360.0,4.0,0.0
2730,86.0,45.0,40.0,4.0,0.0
2731,90.0,44.0,40.0,4.0,0.0
2732,86.0,0.0,40.0,4.0,0.0
2733,85.0,45.0,40.0,4.0,0.0
2734,76.0,45.0,90.0,5.0,0.0
2735,66.0,0.0,180.0,7.0,0.0
2736,73.0,0.0,90.0,6.0,0.0
2737,88.0,0.0,40.0,4.0,0.0
2738,71.0,45.0,90.0,6.0,0.0
2739,83.0,45.0,40.0,4.0,0.0
2740,86.0,0.0,40.0,4.0,0.0
2741,64.0,45.0,180.0,7.0,0.0
2742,52.0,3.0,90.0,8.0,0.0
2743,74.0,0.0,15.0,5.0,0.0
2744,40.0,0.0,90.0,10.0,0.0
2745,67.0,0.0,270.0,6.0,0.0
2746,91.0,43.0,40.0,4.0,0.0
2747,52.0,0.0,180.0,4.0,0.0
2748,88.0,45.0,40.0,4.0,0.0
2749,73.0,0.0,90.0,5.0,0.0
2750,85.0,45.0,40.0,4.0,0.0
2751,88.0,0.0,40.0,4.0,0.0
2752,52.0,2.0,90.0,8.0,0.0
2753,79.0,42.0,40.0,4.0,0.0
2754,52.0,0.0,180.0,4.0,0.0
2755,40.0,0.0,90.0,10.0,0.0
2756,76.0,45.0,90.0,5.0,0.0
2757,67.0,0.0,180.0,7.0,0.0
2758,85.0,0.0,40.0,4.0,0.0
2759,76.0,42.0,40.0,4.0,0.0
2760,64.0,0.0,90.0,6.0,0.0
2761,73.0,0.0,90.0,5.0,0.0
2762,79.0,45.0,40.0,4.0,0.0
2763,66.0,0.0,90.0,7.0,0.0
2764,71.0,3.0,90.0,5.0,0.0
2765,54.0,45.0,180.0,4.0,0.0
2766,42.0,0.0,90.0,10.0,0.0
2767,62.0,0.0,90.0,6.0,0.0
2768,74.0,42.0,40.0,4.0,0.0
2769,54.0,41.0,90.0,8.0,0.0
2770,78.0,1.0,40.0,4.0,0.0
2771,71.0,42.0,40.0,4.0,0.0
2772,74.0,0.0,40.0,4.0,0.0
2773,61.0,0.0,90.0,6.0,0.0
2774,70.0,0.0,180.0,5.0,0.0
2775,42.0,0.0,90.0,10.0,0.0
2776,73.0,42.0,40.0,4.0,0.0
2777,54.0,174.0,180.0,4.0,0.0
2778,66.0,8.0,90.0,7.0,0.0
2779,54.0,35.0,90.0,8.0,0.0
2780,76.0,2.0,40.0,4.0,0.0
2781,70.0,57.0,40.0,4.0,0.0
2782,73.0,0.0,60.0,4.0,0.0
2783,62.0,0.0,180.0,6.0,0.0
2784,35.0,0.0,180.0,10.0,0.0
2785,62.0,6.0,180.0,7.0,0.0
2786,71.0,0.0,180.0,5.0,0.0
2787,47.0,177.0,180.0,8.0,0.0
2788,71.0,183.0,360.0,4.0,0.0
2789,47.0,0.0,180.0,4.0,0.0
2790,59.0,0.0,180.0,4.0,0.0
2791,66.0,0.0,720.0,1.0,0.0
2792,78.0,0.0,720.0,1.0,0.0
2793,66.0,0.0,360.0,6.0,0.0
2794,78.0,88.0,360.0,6.0,0.0
2795,66.0,0.0,360.0,15.0,0.0
2796,78.0,0.0,360.0,14.0,0.0
2797,66.0,0.0,360.0,14.0,0.0
2798,54.0,0.0,360.0,15.0,0.0
2799,66.0,0.0,720.0,2.0,0.0
2800,66.0,0.0,180.0,11.0,0.0
2801,78.0,180.0,180.0,11.0,0.0
2802,54.0,0.0,720.0,2.0,0.0
2803,74.0,2.0,90.0,6.0,0.0
2804,54.0,0.0,360.0,7.0,0.0
2805,66.0,0.0,360.0,7.0,0.0
2806,90.0,0.0,360.0,13.0,0.0
2807,86.0,0.0,540.0,11.0,0.0
2808,47.0,0.0,90.0,8.0,0.0
2809,35.0,45.0,90.0,10.0,0.0
2810,66.0,0.0,720.0,3.0,0.0
2811,71.0,9.0,360.0,7.0,0.0
2812,49.0,0.0,40.0,8.0,0.0
2813,37.0,45.0,40.0,10.0,0.0
2814,50.0,0.0,40.0,8.0,0.0
2815,38.0,45.0,40.0,10.0,0.0
2816,71.0,2.0,90.0,6.0,0.0
2817,40.0,0.0,40.0,10.0,0.0
2818,52.0,43.0,40.0,8.0,0.0
2819,54.0,41.0,40.0,8.0,0.0
2820,42.0,4.0,40.0,10.0,0.0
2821,44.0,4.0,40.0,10.0,0.0
2822,56.0,41.0,40.0,8.0,0.0
2823,46.0,0.0,40.0,10.0,0.0
2824,58.0,36.0,60.0,8.0,0.0
2825,54.0,0.0,360.0,15.0,0.0
2826,83.0,2.0,90.0,5.0,0.0
2827,54.0,0.0,720.0,2.0,0.0
2828,47.0,0.0,180.0,10.0,0.0
2829,78.0,0.0,360.0,14.0,0.0
2830,66.0,0.0,360.0,15.0,0.0
2831,66.0,0.0,360.0,14.0,0.0
2832,66.0,0.0,180.0,11.0,0.0
2833,78.0,0.0,180.0,11.0,0.0
2834,78.0,0.0,360.0,6.0,0.0
2835,59.0,43.0,40.0,7.0,0.0
2836,66.0,0.0,360.0,6.0,0.0
2837,59.0,6.0,180.0,8.0,0.0
2838,61.0,45.0,40.0,7.0,0.0
2839,62.0,39.0,40.0,7.0,0.0
2840,64.0,45.0,40.0,7.0,0.0
2841,78.0,2.0,90.0,5.0,0.0
2842,66.0,43.0,40.0,7.0,0.0
2843,68.0,45.0,40.0,7.0,0.0
2844,70.0,45.0,40.0,7.0,0.0
2845,71.0,0.0,40.0,7.0,0.0
2846,46.0,4.0,90.0,8.0,0.0
2847,54.0,0.0,15.0,3.0,0.0
2848,76.0,2.0,90.0,6.0,0.0
2849,70.0,0.0,360.0,7.0,0.0
2850,66.0,0.0,360.0,7.0,0.0
2851,34.0,39.0,90.0,10.0,0.0
2852,66.0,0.0,720.0,3.0,0.0
2853,90.0,0.0,360.0,13.0,0.0
2854,54.0,0.0,360.0,7.0,0.0
2855,90.0,84.0,15.0,0.0,0.0
2856,47.0,6.0,40.0,8.0,0.0
2857,35.0,40.0,40.0,10.0,0.0
2858,49.0,5.0,40.0,8.0,0.0
2859,37.0,40.0,40.0,10.0,0.0
2860,50.0,5.0,40.0,8.0,0.0
2861,73.0,2.0,90.0,6.0,0.0
2862,38.0,43.0,40.0,10.0,0.0
2863,52.0,45.0,60.0,8.0,0.0
2864,40.0,0.0,40.0,10.0,0.0
2865,54.0,0.0,40.0,8.0,0.0
2866,42.0,45.0,40.0,10.0,0.0
2867,56.0,43.0,40.0,8.0,0.0
2868,44.0,0.0,40.0,10.0,0.0
2869,46.0,0.0,180.0,10.0,0.0
2870,85.0,2.0,90.0,5.0,0.0
2871,78.0,0.0,360.0,6.0,0.0
2872,66.0,0.0,360.0,14.0,0.0
2873,78.0,0.0,360.0,14.0,0.0
2874,78.0,0.0,15.0,1.0,0.0
2875,66.0,0.0,15.0,2.0,0.0
2876,54.0,0.0,360.0,2.0,0.0
2877,78.0,45.0,180.0,11.0,0.0
2878,66.0,0.0,180.0,11.0,0.0
2879,54.0,85.0,360.0,15.0,0.0
2880,66.0,0.0,360.0,15.0,0.0
2881,58.0,43.0,40.0,7.0,0.0
2882,66.0,2.0,15.0,1.0,0.0
2883,66.0,0.0,360.0,6.0,0.0
2884,58.0,5.0,180.0,8.0,0.0
2885,59.0,45.0,40.0,7.0,0.0
2886,61.0,40.0,40.0,7.0,0.0
2887,62.0,0.0,40.0,7.0,0.0
2888,88.0,0.0,15.0,11.0,0.0
2889,78.0,2.0,90.0,5.0,0.0
2890,64.0,43.0,40.0,7.0,0.0
2891,66.0,0.0,40.0,7.0,0.0
2892,68.0,45.0,40.0,7.0,0.0
2893,70.0,0.0,40.0,7.0,0.0
2894,59.0,5.0,90.0,8.0,0.0
2895,92.0,0.0,720.0,0.0,0.0
2896,77.0,0.0,720.0,1.0,0.0
2897,86.0,144.0,720.0,1.0,0.0
2898,59.0,0.0,180.0,3.0,0.0
2899,80.0,88.0,180.0,5.0,0.0
2900,89.0,0.0,180.0,5.0,0.0
2901,71.0,0.0,180.0,3.0,0.0
2902,62.0,0.0,720.0,2.0,0.0
2903,77.0,0.0,180.0,6.0,0.0
2904,80.0,0.0,180.0,6.0,0.0
2905,47.0,40.0,90.0,10.0,0.0
2906,65.0,0.0,720.0,2.0,0.0
2907,62.0,5.0,40.0,8.0,0.0
2908,50.0,42.0,40.0,10.0,0.0
2909,71.0,0.0,15.0,7.0,0.0
2910,61.0,3.0,40.0,8.0,0.0
2911,49.0,0.0,40.0,10.0,0.0
2912,73.0,0.0,40.0,7.0,0.0
2913,59.0,2.0,90.0,8.0,0.0
2914,74.0,43.0,90.0,7.0,0.0
2915,47.0,0.0,90.0,10.0,0.0
2916,62.0,2.0,40.0,8.0,0.0
2917,50.0,0.0,40.0,10.0,0.0
2918,77.0,21.0,60.0,6.0,0.0
2919,80.0,0.0,60.0,6.0,0.0
2920,80.0,0.0,60.0,5.0,0.0
2921,89.0,0.0,60.0,5.0,0.0
2922,71.0,22.0,40.0,7.0,0.0
2923,71.0,0.0,60.0,3.0,0.0
2924,59.0,0.0,60.0,3.0,0.0
2925,61.0,2.0,40.0,8.0,0.0
2926,73.0,67.0,40.0,7.0,0.0
2927,49.0,0.0,40.0,10.0,0.0
2928,59.0,2.0,90.0,8.0,0.0
2929,71.0,21.0,60.0,3.0,0.0
2930,59.0,0.0,60.0,3.0,0.0
2931,77.0,0.0,60.0,6.0,0.0
2932,74.0,67.0,90.0,7.0,0.0
2933,47.0,0.0,90.0,10.0,0.0
2934,89.0,0.0,60.0,5.0,0.0
2935,80.0,0.0,60.0,5.0,0.0
2936,80.0,0.0,60.0,6.0,0.0
2937,62.0,3.0,90.0,8.0,0.0
2938,71.0,0.0,60.0,3.0,0.0
2939,59.0,0.0,60.0,3.0,0.0
2940,77.0,0.0,60.0,6.0,0.0
2941,71.0,67.0,90.0,7.0,0.0
2942,89.0,20.0,60.0,5.0,0.0
2943,80.0,0.0,60.0,5.0,0.0
2944,80.0,0.0,60.0,6.0,0.0
2945,50.0,0.0,90.0,10.0,0.0
2946,61.0,2.0,90.0,8.0,0.0
2947,49.0,0.0,90.0,10.0,0.0
2948,73.0,67.0,90.0,7.0,0.0
2949,77.0,0.0,60.0,6.0,0.0
2950,80.0,0.0,60.0,5.0,0.0
2951,89.0,0.0,60.0,5.0,0.0
2952,59.0,0.0,60.0,3.0,0.0
2953,80.0,21.0,60.0,6.0,0.0
2954,71.0,0.0,60.0,3.0,0.0
2955,59.0,0.0,90.0,8.0,0.0
2956,80.0,0.0,60.0,6.0,0.0
2957,77.0,0.0,60.0,6.0,0.0
2958,47.0,0.0,90.0,10.0,0.0
2959,59.0,0.0,60.0,3.0,0.0
2960,71.0,23.0,60.0,3.0,0.0
2961,74.0,0.0,90.0,7.0,0.0
2962,89.0,0.0,60.0,5.0,0.0
2963,80.0,0.0,60.0,5.0,0.0
2964,73.0,0.0,180.0,7.0,0.0
2965,78.0,0.0,180.0,6.0,0.0
2966,54.0,270.0,180.0,3.0,0.0
2967,66.0,0.0,180.0,3.0,0.0
2968,85.0,0.0,150.0,1.0,0.0
2969,46.0,0.0,180.0,10.0,0.0
2970,78.0,0.0,150.0,1.0,0.0
2971,90.0,0.0,180.0,5.0,0.0
2972,90.0,0.0,150.0,0.0,0.0
2973,66.0,0.0,150.0,2.0,0.0
2974,61.0,33.0,150.0,2.0,0.0
2975,58.0,3.0,180.0,8.0,0.0
2976,78.0,0.0,180.0,5.0,0.0
2977,59.0,0.0,90.0,8.0,0.0
2978,83.0,0.0,90.0,5.0,0.0
2979,74.0,0.0,90.0,5.0,0.0
2980,66.0,0.0,90.0,5.0,0.0
2981,71.0,45.0,90.0,7.0,0.0
2982,47.0,0.0,90.0,10.0,0.0
2983,83.0,0.0,90.0,6.0,0.0
2984,74.0,0.0,90.0,6.0,0.0
2985,66.0,0.0,90.0,6.0,0.0
2986,47.0,0.0,40.0,8.0,0.0
2987,59.0,0.0,40.0,6.0,0.0
2988,59.0,45.0,40.0,5.0,0.0
2989,59.0,0.0,40.0,7.0,0.0
2990,35.0,0.0,40.0,10.0,0.0
2991,49.0,89.0,40.0,8.0,0.0
2992,61.0,0.0,40.0,7.0,0.0
2993,61.0,0.0,40.0,6.0,0.0
2994,61.0,0.0,40.0,5.0,0.0
2995,37.0,1.0,40.0,10.0,0.0
2996,62.0,0.0,90.0,6.0,0.0
2997,59.0,0.0,15.0,3.0,0.0
2998,71.0,0.0,15.0,3.0,0.0
2999,62.0,0.0,90.0,5.0,0.0
3000,38.0,2.0,90.0,10.0,0.0
3001,62.0,0.0,90.0,7.0,0.0
3002,50.0,43.0,90.0,8.0,0.0
3003,64.0,0.0,90.0,5.0,0.0
3004,64.0,0.0,90.0,7.0,0.0
3005,64.0,0.0,90.0,6.0,0.0
3006,40.0,0.0,90.0,10.0,0.0
3007,52.0,0.0,90.0,8.0,0.0
3008,59.0,45.0,15.0,3.0,0.0
3009,71.0,0.0,40.0,3.0,0.0
3010,66.0,0.0,180.0,5.0,0.0
3011,42.0,0.0,180.0,10.0,0.0
3012,66.0,1.0,180.0,6.0,0.0
3013,54.0,0.0,180.0,3.0,0.0
3014,66.0,0.0,180.0,3.0,0.0
3015,66.0,0.0,180.0,7.0,0.0
3016,54.0,89.0,180.0,8.0,0.0
3017,54.0,0.0,90.0,2.0,0.0
3018,66.0,0.0,90.0,2.0,0.0
3019,78.0,0.0,15.0,1.0,0.0
3020,54.0,0.0,90.0,2.0,0.0
3021,90.0,0.0,15.0,0.0,0.0
3022,78.0,0.0,90.0,1.0,0.0
3023,90.0,90.0,90.0,0.0,0.0
3024,66.0,90.0,15.0,2.0,0.0
3025,54.0,0.0,90.0,2.0,0.0
3026,66.0,0.0,90.0,6.0,0.0
3027,59.0,44.0,90.0,8.0,0.0
3028,74.0,1.0,90.0,6.0,0.0
3029,50.0,0.0,180.0,2.0,0.0
3030,83.0,0.0,90.0,5.0,0.0
3031,74.0,0.0,90.0,5.0,0.0
3032,66.0,0.0,90.0,5.0,0.0
3033,71.0,0.0,180.0,3.0,0.0
3034,62.0,4.0,180.0,2.0,0.0
3035,83.0,0.0,90.0,6.0,0.0
3036,47.0,0.0,90.0,10.0,0.0
3037,74.0,0.0,180.0,1.0,0.0
3038,86.0,0.0,180.0,0.0,0.0
3039,71.0,0.0,90.0,7.0,0.0
3040,35.0,0.0,40.0,10.0,0.0
3041,59.0,0.0,40.0,5.0,0.0
3042,59.0,0.0,40.0,7.0,0.0
3043,59.0,1.0,40.0,6.0,0.0
3044,47.0,44.0,40.0,8.0,0.0
3045,37.0,0.0,40.0,10.0,0.0
3046,61.0,0.0,40.0,6.0,0.0
3047,61.0,0.0,40.0,5.0,0.0
3048,61.0,0.0,40.0,7.0,0.0
3049,49.0,86.0,40.0,8.0,0.0
3050,38.0,0.0,90.0,10.0,0.0
3051,62.0,0.0,90.0,5.0,0.0
3052,62.0,4.0,90.0,6.0,0.0
3053,59.0,0.0,15.0,3.0,0.0
3054,62.0,0.0,90.0,7.0,0.0
3055,71.0,0.0,120.0,3.0,0.0
3056,50.0,41.0,90.0,8.0,0.0
3057,64.0,0.0,90.0,7.0,0.0
3058,64.0,0.0,90.0,6.0,0.0
3059,40.0,0.0,90.0,10.0,0.0
3060,64.0,0.0,90.0,5.0,0.0
3061,52.0,0.0,90.0,8.0,0.0
3062,59.0,45.0,15.0,3.0,0.0
3063,71.0,180.0,40.0,3.0,0.0
3064,42.0,0.0,180.0,10.0,0.0
3065,66.0,0.0,180.0,7.0,0.0
3066,54.0,0.0,180.0,3.0,0.0
3067,66.0,0.0,180.0,3.0,0.0
3068,66.0,0.0,180.0,6.0,0.0
3069,66.0,0.0,180.0,5.0,0.0
3070,54.0,86.0,180.0,8.0,0.0
3071,78.0,0.0,90.0,1.0,0.0
3072,90.0,0.0,90.0,0.0,0.0
3073,54.0,4.0,90.0,2.0,0.0
3074,66.0,0.0,90.0,2.0,0.0
3075,90.0,0.0,90.0,0.0,0.0
3076,78.0,0.0,90.0,1.0,0.0
3077,66.0,0.0,90.0,2.0,0.0
3078,54.0,90.0,90.0,2.0,0.0
3079,78.0,0.0,90.0,1.0,0.0
3080,90.0,0.0,90.0,0.0,0.0
3081,54.0,45.0,90.0,2.0,0.0
3082,66.0,0.0,90.0,2.0,0.0
3083,74.0,0.0,40.0,6.0,0.0
3084,86.0,0.0,210.0,0.0,0.0
3085,86.0,0.0,210.0,5.0,0.0
3086,62.0,0.0,210.0,2.0,0.0
3087,62.0,45.0,40.0,7.0,0.0
3088,42.0,0.0,90.0,10.0,0.0
3089,74.0,0.0,210.0,1.0,0.0
3090,66.0,0.0,210.0,5.0,0.0
3091,74.0,0.0,210.0,5.0,0.0
3092,50.0,0.0,210.0,2.0,0.0
3093,54.0,5.0,90.0,8.0,0.0
3094,76.0,45.0,60.0,6.0,0.0
3095,64.0,0.0,60.0,7.0,0.0
3096,66.0,40.0,40.0,7.0,0.0
3097,78.0,0.0,40.0,6.0,0.0
3098,67.0,45.0,60.0,7.0,0.0
3099,79.0,0.0,60.0,6.0,0.0
3100,54.0,18.0,15.0,8.0,0.0
3101,81.0,27.0,40.0,6.0,0.0
3102,42.0,0.0,15.0,10.0,0.0
3103,69.0,0.0,40.0,7.0,0.0
3104,71.0,0.0,60.0,7.0,0.0
3105,83.0,45.0,60.0,6.0,0.0
3106,54.0,23.0,15.0,8.0,0.0
3107,42.0,0.0,15.0,10.0,0.0
3108,73.0,22.0,40.0,7.0,0.0
3109,85.0,0.0,40.0,6.0,0.0
3110,86.0,0.0,40.0,6.0,0.0
3111,74.0,42.0,40.0,7.0,0.0
3112,55.0,11.0,90.0,8.0,0.0
3113,74.0,0.0,180.0,5.0,0.0
3114,71.0,0.0,360.0,2.0,0.0
3115,67.0,0.0,180.0,5.0,0.0
3116,59.0,0.0,360.0,2.0,0.0
3117,95.0,0.0,360.0,0.0,0.0
3118,83.0,0.0,180.0,5.0,0.0
3119,43.0,0.0,90.0,10.0,0.0
3120,83.0,0.0,360.0,1.0,0.0
3121,83.0,31.0,40.0,6.0,0.0
3122,71.0,0.0,40.0,7.0,0.0
3123,84.0,0.0,40.0,6.0,0.0
3124,72.0,45.0,40.0,7.0,0.0
3125,55.0,11.0,90.0,8.0,0.0
3126,83.0,0.0,40.0,6.0,0.0
3127,71.0,34.0,40.0,7.0,0.0
3128,43.0,0.0,90.0,10.0,0.0
3129,81.0,0.0,40.0,6.0,0.0
3130,69.0,45.0,40.0,7.0,0.0
3131,43.0,0.0,90.0,10.0,0.0
3132,79.0,0.0,40.0,6.0,0.0
3133,67.0,37.0,40.0,7.0,0.0
3134,66.0,0.0,40.0,7.0,0.0
3135,78.0,45.0,40.0,6.0,0.0
3136,55.0,5.0,15.0,8.0,0.0
3137,76.0,0.0,40.0,6.0,0.0
3138,64.0,35.0,40.0,7.0,0.0
3139,43.0,45.0,90.0,10.0,0.0
3140,74.0,0.0,40.0,6.0,0.0
3141,62.0,5.0,40.0,7.0,0.0
3142,57.0,44.0,90.0,8.0,0.0
3143,73.0,0.0,360.0,1.0,0.0
3144,67.0,0.0,360.0,1.0,0.0
3145,73.0,43.0,40.0,6.0,0.0
3146,61.0,0.0,40.0,7.0,0.0
3147,85.0,0.0,360.0,0.0,0.0
3148,45.0,0.0,90.0,10.0,0.0
3149,61.0,0.0,360.0,2.0,0.0
3150,55.0,0.0,360.0,2.0,0.0
3151,62.0,0.0,40.0,7.0,0.0
3152,74.0,1.0,40.0,6.0,0.0
3153,61.0,0.0,40.0,7.0,0.0
3154,73.0,40.0,40.0,6.0,0.0
3155,45.0,0.0,90.0,10.0,0.0
3156,59.0,0.0,40.0,7.0,0.0
3157,71.0,0.0,40.0,6.0,0.0
3158,81.0,0.0,15.0,5.0,0.0
3159,57.0,42.0,40.0,7.0,0.0
3160,69.0,0.0,15.0,5.0,0.0
3161,76.0,6.0,15.0,5.0,0.0
3162,69.0,0.0,40.0,6.0,0.0
3163,45.0,0.0,90.0,10.0,0.0
3164,57.0,39.0,15.0,8.0,0.0
3165,67.0,9.0,40.0,6.0,0.0
3166,55.0,0.0,40.0,7.0,0.0
3167,54.0,36.0,40.0,7.0,0.0
3168,45.0,0.0,90.0,10.0,0.0
3169,66.0,9.0,40.0,6.0,0.0
3170,57.0,0.0,90.0,8.0,0.0
3171,52.0,17.0,40.0,7.0,0.0
3172,64.0,175.0,60.0,6.0,0.0
3173,54.0,0.0,180.0,7.0,0.0
3174,86.0,0.0,180.0,0.0,0.0
3175,38.0,0.0,180.0,10.0,0.0
3176,66.0,0.0,180.0,1.0,0.0
3177,74.0,0.0,180.0,1.0,0.0
3178,54.0,0.0,180.0,2.0,0.0
3179,62.0,0.0,180.0,2.0,0.0
3180,62.0,0.0,180.0,5.0,0.0
3181,62.0,7.0,180.0,6.0,0.0
3182,78.0,0.0,180.0,5.0,0.0
3183,69.0,0.0,180.0,5.0,0.0
3184,50.0,175.0,180.0,8.0,0.0
3185,78.0,93.0,90.0,4.0,0.0
3186,90.0,91.0,90.0,4.0,0.0
3187,85.0,91.0,90.0,4.0,0.0
3188,86.0,88.0,90.0,4.0,0.0
3189,82.0,91.0,90.0,4.0,0.0
3190,71.0,90.0,90.0,4.0,0.0
3191,85.0,0.0,90.0,4.0,0.0
3192,74.0,0.0,90.0,4.0,0.0
3193,78.0,90.0,90.0,4.0,0.0
3194,83.0,90.0,15.0,4.0,0.0
3195,74.0,55.0,90.0,4.0,0.0
3196,71.0,22.0,90.0,4.0,0.0
3197,74.0,72.0,90.0,4.0,0.0
3198,85.0,23.0,20.0,4.0,0.0
3199,83.0,45.0,20.0,4.0,0.0
3200,82.0,0.0,40.0,4.0,0.0
3201,83.0,17.0,60.0,4.0,0.0
3202,78.0,43.0,90.0,4.0,0.0
3203,83.0,47.0,40.0,4.0,0.0
3204,74.0,90.0,90.0,4.0,0.0
3205,91.0,90.0,90.0,4.0,0.0
3206,70.0,0.0,90.0,4.0,0.0
3207,90.0,90.0,90.0,4.0,0.0
3208,73.0,0.0,90.0,4.0,0.0
3209,90.0,45.0,270.0,4.0,0.0
3210,78.0,90.0,90.0,4.0,0.0
3211,73.0,90.0,90.0,4.0,0.0
3212,69.0,0.0,90.0,4.0,0.0
3213,73.0,45.0,90.0,4.0,0.0
3214,89.0,45.0,40.0,4.0,0.0
3215,90.0,0.0,40.0,4.0,0.0
3216,91.0,45.0,40.0,4.0,0.0
3217,78.0,0.0,90.0,4.0,0.0
3218,90.0,45.0,40.0,4.0,0.0
3219,73.0,90.0,90.0,4.0,0.0
3220,88.0,45.0,40.0,4.0,0.0
3221,86.0,0.0,40.0,4.0,0.0
3222,85.0,90.0,90.0,4.0,0.0
3223,68.0,0.0,90.0,4.0,0.0
3224,71.0,0.0,90.0,4.0,0.0
3225,83.0,43.0,90.0,4.0,0.0
3226,83.0,47.0,40.0,4.0,0.0
3227,78.0,43.0,90.0,4.0,0.0
3228,83.0,47.0,40.0,4.0,0.0
3229,71.0,45.0,90.0,4.0,0.0
3230,85.0,45.0,40.0,4.0,0.0
3231,67.0,0.0,90.0,4.0,0.0
3232,83.0,45.0,40.0,4.0,0.0
3233,71.0,45.0,90.0,4.0,0.0
3234,82.0,45.0,40.0,4.0,0.0
3235,83.0,0.0,40.0,4.0,0.0
3236,77.0,45.0,90.0,4.0,0.0
3237,82.0,45.0,40.0,4.0,0.0
3238,83.0,0.0,40.0,4.0,0.0
3239,85.0,45.0,40.0,4.0,0.0
3240,71.0,0.0,90.0,4.0,0.0
3241,83.0,180.0,40.0,4.0,0.0
3242,82.0,90.0,180.0,4.0,0.0
3243,66.0,265.0,360.0,4.0,0.0
3244,73.0,0.0,360.0,4.0,0.0
3245,85.0,95.0,90.0,4.0,0.0
3246,78.0,0.0,60.0,4.0,0.0
3247,86.0,45.0,270.0,4.0,0.0
3248,59.0,0.0,180.0,4.0,0.0
3249,62.0,177.0,180.0,4.0,0.0
3250,85.0,45.0,40.0,4.0,0.0
3251,83.0,0.0,40.0,4.0,0.0
3252,66.0,0.0,15.0,4.0,0.0
3253,64.0,185.0,180.0,4.0,0.0
3254,61.0,0.0,180.0,4.0,0.0
3255,82.0,0.0,180.0,4.0,0.0
3256,78.0,35.0,40.0,4.0,0.0
3257,90.0,31.0,40.0,4.0,0.0
3258,89.0,54.0,20.0,4.0,0.0
3259,88.0,45.0,20.0,4.0,0.0
3260,87.0,45.0,20.0,4.0,0.0
3261,78.0,0.0,180.0,4.0,0.0
3262,74.0,182.0,180.0,4.0,0.0
3263,86.0,45.0,20.0,4.0,0.0
3264,85.0,43.0,20.0,4.0,0.0
3265,84.0,45.0,20.0,4.0,0.0
3266,83.0,15.0,20.0,4.0,0.0
3267,82.0,185.0,180.0,4.0,0.0
3268,76.0,0.0,180.0,4.0,0.0
3269,78.0,0.0,180.0,4.0,0.0
3270,78.0,22.0,40.0,4.0,0.0
3271,83.0,23.0,20.0,4.0,0.0
3272,85.0,22.0,20.0,4.0,0.0
3273,83.0,23.0,20.0,4.0,0.0
3274,85.0,22.0,20.0,4.0,0.0
3275,83.0,23.0,20.0,4.0,0.0
3276,85.0,38.0,20.0,4.0,0.0
3277,85.0,84.0,40.0,4.0,0.0
3278,86.0,66.0,90.0,4.0,0.0
3279,59.0,19.0,180.0,4.0,0.0
3280,62.0,0.0,180.0,4.0,0.0
3281,66.0,0.0,180.0,4.0,0.0
3282,78.0,30.0,20.0,4.0,0.0
3283,79.0,23.0,20.0,4.0,0.0
3284,81.0,22.0,20.0,4.0,0.0
3285,79.0,24.0,20.0,4.0,0.0
3286,81.0,23.0,20.0,4.0,0.0
3287,79.0,22.0,20.0,4.0,0.0
3288,81.0,45.0,15.0,4.0,0.0
3289,64.0,0.0,180.0,4.0,0.0
3290,55.0,177.0,180.0,4.0,0.0
3291,83.0,66.0,90.0,4.0,0.0
3292,79.0,24.0,20.0,4.0,0.0
3293,78.0,23.0,180.0,4.0,0.0
3294,57.0,0.0,360.0,4.0,0.0
3295,62.0,0.0,180.0,4.0,0.0
3296,61.0,0.0,180.0,4.0,0.0
3297,76.0,22.0,20.0,4.0,0.0
3298,78.0,23.0,20.0,4.0,0.0
3299,76.0,21.0,20.0,4.0,0.0
3300,78.0,45.0,20.0,4.0,0.0
3301,74.0,51.0,40.0,4.0,0.0
3302,76.0,75.0,60.0,4.0,0.0
3303,50.0,12.0,90.0,8.0,0.0
3304,38.0,33.0,90.0,10.0,0.0
3305,50.0,0.0,90.0,2.0,0.0
3306,62.0,0.0,90.0,7.0,0.0
3307,50.0,0.0,90.0,4.0,0.0
3308,74.0,71.0,360.0,4.0,0.0
3309,52.0,12.0,40.0,8.0,0.0
3310,64.0,0.0,40.0,7.0,0.0
3311,52.0,39.0,40.0,2.0,0.0
3312,40.0,0.0,40.0,10.0,0.0
3313,54.0,7.0,60.0,8.0,0.0
3314,66.0,38.0,40.0,7.0,0.0
3315,54.0,0.0,40.0,2.0,0.0
3316,42.0,0.0,40.0,10.0,0.0
3317,55.0,7.0,40.0,8.0,0.0
3318,67.0,0.0,40.0,7.0,0.0
3319,43.0,47.0,40.0,10.0,0.0
3320,55.0,0.0,40.0,2.0,0.0
3321,57.0,44.0,60.0,8.0,0.0
3322,57.0,0.0,40.0,2.0,0.0
3323,69.0,1.0,40.0,7.0,0.0
3324,45.0,0.0,40.0,10.0,0.0
3325,71.0,1.0,40.0,7.0,0.0
3326,59.0,0.0,40.0,2.0,0.0
3327,47.0,0.0,40.0,10.0,0.0
3328,59.0,34.0,40.0,8.0,0.0
3329,49.0,0.0,40.0,10.0,0.0
3330,73.0,0.0,40.0,7.0,0.0
3331,61.0,1.0,40.0,2.0,0.0
3332,61.0,9.0,40.0,8.0,0.0
3333,50.0,0.0,90.0,10.0,0.0
3334,62.0,9.0,90.0,6.0,0.0
3335,62.0,0.0,90.0,2.0,0.0
3336,74.0,19.0,60.0,7.0,0.0
3337,62.0,36.0,90.0,8.0,0.0
3338,50.0,0.0,90.0,2.0,0.0
3339,38.0,9.0,90.0,10.0,0.0
3340,64.0,45.0,40.0,6.0,0.0
3341,62.0,0.0,90.0,7.0,0.0
3342,50.0,36.0,90.0,8.0,0.0
3343,66.0,0.0,40.0,6.0,0.0
3344,67.0,22.0,40.0,6.0,0.0
3345,74.0,10.0,60.0,7.0,0.0
3346,50.0,0.0,60.0,10.0,0.0
3347,62.0,45.0,90.0,2.0,0.0
3348,62.0,14.0,60.0,8.0,0.0
3349,69.0,0.0,40.0,6.0,0.0
3350,71.0,22.0,40.0,6.0,0.0
3351,49.0,0.0,60.0,10.0,0.0
3352,73.0,9.0,60.0,7.0,0.0
3353,61.0,68.0,90.0,2.0,0.0
3354,61.0,4.0,60.0,8.0,0.0
3355,73.0,9.0,40.0,6.0,0.0
3356,71.0,5.0,60.0,7.0,0.0
3357,74.0,0.0,90.0,5.0,0.0
3358,47.0,0.0,60.0,10.0,0.0
3359,74.0,0.0,60.0,6.0,0.0
3360,74.0,0.0,90.0,0.0,0.0
3361,59.0,0.0,90.0,2.0,0.0
3362,74.0,45.0,90.0,1.0,0.0
3363,59.0,17.0,60.0,8.0,0.0
3364,76.0,0.0,40.0,5.0,0.0
3365,76.0,0.0,40.0,1.0,0.0
3366,76.0,22.0,40.0,0.0,0.0
3367,35.0,0.0,60.0,10.0,0.0
3368,59.0,4.0,60.0,7.0,0.0
3369,62.0,0.0,60.0,6.0,0.0
3370,47.0,0.0,90.0,2.0,0.0
3371,47.0,19.0,60.0,8.0,0.0
3372,78.0,0.0,40.0,1.0,0.0
3373,78.0,45.0,40.0,5.0,0.0
3374,78.0,0.0,40.0,0.0,0.0
3375,80.0,22.0,40.0,0.0,0.0
3376,59.0,0.0,90.0,2.0,0.0
3377,71.0,0.0,60.0,7.0,0.0
3378,47.0,4.0,60.0,10.0,0.0
3379,74.0,0.0,60.0,6.0,0.0
3380,80.0,0.0,40.0,1.0,0.0
3381,80.0,0.0,40.0,5.0,0.0
3382,59.0,19.0,60.0,8.0,0.0
3383,81.0,0.0,40.0,1.0,0.0
3384,81.0,45.0,40.0,0.0,0.0
3385,81.0,0.0,40.0,5.0,0.0
3386,83.0,22.0,40.0,5.0,0.0
3387,83.0,0.0,40.0,1.0,0.0
3388,57.0,68.0,90.0,2.0,0.0
3389,69.0,6.0,60.0,7.0,0.0
3390,73.0,0.0,60.0,6.0,0.0
3391,83.0,0.0,40.0,0.0,0.0
3392,45.0,0.0,60.0,10.0,0.0
3393,57.0,7.0,60.0,8.0,0.0
3394,85.0,12.0,40.0,1.0,0.0
3395,85.0,0.0,40.0,5.0,0.0
3396,85.0,0.0,40.0,0.0,0.0
3397,56.0,56.0,180.0,2.0,0.0
3398,86.0,0.0,360.0,1.0,0.0
3399,56.0,0.0,60.0,8.0,0.0
3400,68.0,0.0,60.0,7.0,0.0
3401,71.0,0.0,60.0,6.0,0.0
3402,86.0,93.0,60.0,5.0,0.0
3403,86.0,0.0,360.0,0.0,0.0
3404,44.0,0.0,60.0,10.0,0.0
3405,74.0,24.0,60.0,5.0,0.0
3406,59.0,11.0,60.0,8.0,0.0
3407,59.0,56.0,180.0,2.0,0.0
3408,68.0,0.0,60.0,6.0,0.0
3409,59.0,0.0,60.0,7.0,0.0
3410,86.0,91.0,60.0,5.0,0.0
3411,47.0,0.0,60.0,10.0,0.0
3412,86.0,15.0,60.0,5.0,0.0
3413,49.0,8.0,180.0,8.0,0.0
3414,49.0,22.0,40.0,2.0,0.0
3415,77.0,0.0,60.0,1.0,0.0
3416,77.0,0.0,180.0,5.0,0.0
3417,77.0,20.0,60.0,0.0,0.0
3418,37.0,0.0,180.0,10.0,0.0
3419,61.0,0.0,40.0,7.0,0.0
3420,68.0,0.0,180.0,5.0,0.0
3421,61.0,0.0,180.0,5.0,0.0
3422,63.0,45.0,40.0,7.0,0.0
3423,51.0,0.0,40.0,2.0,0.0
3424,73.0,0.0,60.0,0.0,0.0
3425,73.0,12.0,60.0,1.0,0.0
3426,53.0,22.0,40.0,2.0,0.0
3427,65.0,0.0,40.0,7.0,0.0
3428,73.0,0.0,60.0,6.0,0.0
3429,66.0,45.0,40.0,7.0,0.0
3430,54.0,0.0,40.0,2.0,0.0
3431,73.0,22.0,60.0,1.0,0.0
3432,73.0,0.0,60.0,0.0,0.0
3433,56.0,0.0,40.0,2.0,0.0
3434,68.0,23.0,40.0,7.0,0.0
3435,73.0,0.0,60.0,6.0,0.0
3436,57.0,35.0,40.0,2.0,0.0
3437,69.0,0.0,40.0,7.0,0.0
3438,71.0,10.0,40.0,7.0,0.0
3439,73.0,0.0,60.0,1.0,0.0
3440,73.0,21.0,60.0,6.0,0.0
3441,73.0,0.0,60.0,0.0,0.0
3442,59.0,23.0,40.0,2.0,0.0
3443,73.0,0.0,40.0,7.0,0.0
3444,61.0,39.0,40.0,2.0,0.0
3445,54.0,6.0,40.0,8.0,0.0
3446,85.0,0.0,540.0,1.0,0.0
3447,42.0,22.0,40.0,10.0,0.0
3448,69.0,0.0,360.0,7.0,0.0
3449,66.0,0.0,450.0,3.0,0.0
3450,85.0,20.0,60.0,0.0,0.0
3451,85.0,5.0,540.0,6.0,0.0
3452,54.0,0.0,40.0,2.0,0.0
3453,73.0,0.0,360.0,6.0,0.0
3454,56.0,3.0,40.0,8.0,0.0
3455,44.0,0.0,40.0,10.0,0.0
3456,56.0,42.0,40.0,2.0,0.0
3457,57.0,3.0,40.0,8.0,0.0
3458,78.0,21.0,60.0,0.0,0.0
3459,57.0,0.0,40.0,2.0,0.0
3460,45.0,22.0,40.0,10.0,0.0
3461,78.0,6.0,90.0,1.0,0.0
3462,78.0,0.0,60.0,5.0,0.0
3463,59.0,39.0,60.0,8.0,0.0
3464,59.0,0.0,40.0,2.0,0.0
3465,47.0,0.0,40.0,10.0,0.0
3466,49.0,0.0,40.0,10.0,0.0
3467,78.0,21.0,60.0,5.0,0.0
3468,61.0,6.0,40.0,2.0,0.0
3469,78.0,0.0,60.0,0.0,0.0
3470,61.0,17.0,40.0,8.0,0.0
3471,63.0,11.0,40.0,2.0,0.0
3472,51.0,0.0,40.0,10.0,0.0
3473,63.0,34.0,40.0,8.0,0.0
3474,65.0,11.0,40.0,2.0,0.0
3475,78.0,0.0,60.0,5.0,0.0
3476,78.0,13.0,60.0,0.0,0.0
3477,53.0,0.0,40.0,10.0,0.0
3478,78.0,0.0,15.0,1.0,0.0
3479,65.0,11.0,40.0,8.0,0.0
3480,54.0,9.0,40.0,10.0,0.0
3481,66.0,2.0,40.0,2.0,0.0
3482,66.0,43.0,40.0,8.0,0.0
3483,66.0,0.0,450.0,7.0,0.0
3484,86.0,0.0,360.0,5.0,0.0
3485,74.0,0.0,360.0,5.0,0.0
3486,86.0,45.0,360.0,1.0,0.0
3487,47.0,7.0,40.0,2.0,0.0
3488,35.0,0.0,40.0,10.0,0.0
3489,86.0,0.0,360.0,0.0,0.0
3490,47.0,38.0,40.0,8.0,0.0
3491,37.0,0.0,40.0,10.0,0.0
3492,49.0,7.0,40.0,2.0,0.0
3493,49.0,38.0,40.0,8.0,0.0
3494,50.0,7.0,40.0,2.0,0.0
3495,38.0,0.0,40.0,10.0,0.0
3496,66.0,0.0,90.0,3.0,0.0
3497,50.0,38.0,40.0,8.0,0.0
3498,40.0,0.0,40.0,10.0,0.0
3499,52.0,0.0,40.0,2.0,0.0
3500,52.0,40.0,40.0,8.0,0.0
3501,42.0,0.0,40.0,10.0,0.0
3502,54.0,5.0,40.0,2.0,0.0
3503,83.0,0.0,180.0,6.0,0.0
3504,83.0,0.0,180.0,1.0,0.0
3505,54.0,40.0,40.0,8.0,0.0
3506,44.0,0.0,40.0,10.0,0.0
3507,56.0,0.0,40.0,2.0,0.0
3508,56.0,41.0,40.0,8.0,0.0
3509,66.0,4.0,15.0,3.0,0.0
3510,58.0,0.0,40.0,2.0,0.0
3511,46.0,4.0,40.0,10.0,0.0
3512,58.0,31.0,40.0,8.0,0.0
3513,47.0,0.0,40.0,10.0,0.0
3514,59.0,4.0,40.0,2.0,0.0
3515,59.0,6.0,40.0,8.0,0.0
3516,81.0,0.0,90.0,6.0,0.0
3517,85.0,22.0,40.0,5.0,0.0
3518,49.0,3.0,60.0,10.0,0.0
3519,85.0,45.0,90.0,0.0,0.0
3520,85.0,0.0,90.0,1.0,0.0
3521,61.0,0.0,180.0,2.0,0.0
3522,81.0,0.0,90.0,1.0,0.0
3523,61.0,20.0,60.0,8.0,0.0
3524,86.0,0.0,40.0,5.0,0.0
3525,61.0,18.0,60.0,7.0,0.0
3526,80.0,0.0,90.0,6.0,0.0
3527,83.0,0.0,90.0,1.0,0.0
3528,83.0,22.0,40.0,5.0,0.0
3529,80.0,0.0,90.0,1.0,0.0
3530,83.0,0.0,90.0,0.0,0.0
3531,85.0,45.0,40.0,5.0,0.0
3532,81.0,0.0,90.0,1.0,0.0
3533,49.0,175.0,180.0,2.0,0.0
3534,73.0,0.0,15.0,3.0,0.0
3535,73.0,3.0,60.0,7.0,0.0
3536,81.0,0.0,90.0,0.0,0.0
3537,37.0,0.0,60.0,10.0,0.0
3538,78.0,0.0,90.0,6.0,0.0
3539,81.0,23.0,40.0,5.0,0.0
3540,78.0,0.0,90.0,1.0,0.0
3541,49.0,16.0,60.0,8.0,0.0
3542,83.0,45.0,40.0,5.0,0.0
3543,77.0,0.0,60.0,6.0,0.0
3544,80.0,0.0,60.0,0.0,0.0
3545,77.0,0.0,60.0,1.0,0.0
3546,71.0,4.0,60.0,7.0,0.0
3547,80.0,23.0,40.0,5.0,0.0
3548,80.0,9.0,60.0,1.0,0.0
3549,81.0,17.0,40.0,5.0,0.0
3550,78.0,0.0,180.0,5.0,0.0
3551,78.0,3.0,180.0,1.0,0.0
3552,42.0,0.0,180.0,10.0,0.0
3553,69.0,0.0,180.0,7.0,0.0
3554,78.0,0.0,180.0,0.0,0.0
3555,78.0,0.0,180.0,6.0,0.0
3556,66.0,0.0,180.0,3.0,0.0
3557,54.0,180.0,180.0,8.0,0.0
3558,54.0,0.0,180.0,2.0,0.0
3559,60.0,0.0,270.0,6.0,0.0
3560,84.0,0.0,270.0,0.0,0.0
3561,72.0,88.0,270.0,5.0,0.0
3562,60.0,0.0,270.0,2.0,0.0
3563,72.0,0.0,270.0,1.0,0.0
3564,48.0,0.0,270.0,2.0,0.0
3565,55.0,92.0,90.0,7.0,0.0
3566,40.0,0.0,90.0,10.0,0.0
3567,52.0,2.0,90.0,8.0,0.0
3568,51.0,7.0,180.0,8.0,0.0
3569,39.0,0.0,180.0,10.0,0.0
3570,54.0,91.0,180.0,7.0,0.0
3571,59.0,82.0,180.0,6.0,0.0
3572,71.0,0.0,180.0,1.0,0.0
3573,83.0,0.0,180.0,0.0,0.0
3574,59.0,0.0,180.0,2.0,0.0
3575,71.0,0.0,180.0,5.0,0.0
3576,47.0,0.0,180.0,2.0,0.0
3577,57.0,0.0,180.0,8.0,0.0
3578,71.0,0.0,180.0,3.0,0.0
3579,59.0,0.0,180.0,3.0,0.0
3580,45.0,97.0,180.0,10.0,0.0
3581,59.0,0.0,180.0,7.0,0.0
3582,63.0,0.0,90.0,2.0,0.0
3583,75.0,0.0,90.0,1.0,0.0
3584,51.0,0.0,90.0,2.0,0.0
3585,87.0,0.0,90.0,0.0,0.0
3586,63.0,0.0,90.0,6.0,0.0
3587,75.0,0.0,90.0,5.0,0.0
3588,55.0,5.0,180.0,8.0,0.0
3589,64.0,0.0,90.0,2.0,0.0
3590,76.0,0.0,90.0,5.0,0.0
3591,52.0,0.0,90.0,2.0,0.0
3592,64.0,0.0,90.0,6.0,0.0
3593,59.0,0.0,180.0,7.0,0.0
3594,59.0,0.0,180.0,3.0,0.0
3595,71.0,0.0,180.0,3.0,0.0
3596,88.0,83.0,90.0,0.0,0.0
3597,76.0,0.0,90.0,1.0,0.0
3598,43.0,175.0,180.0,10.0,0.0
3599,79.0,0.0,90.0,5.0,0.0
3600,79.0,0.0,90.0,1.0,0.0
3601,55.0,0.0,90.0,2.0,0.0
3602,67.0,0.0,90.0,2.0,0.0
3603,67.0,0.0,90.0,6.0,0.0
3604,91.0,0.0,90.0,0.0,0.0
3605,84.0,0.0,270.0,0.0,0.0
3606,84.0,0.0,270.0,5.0,0.0
3607,72.0,88.0,270.0,6.0,0.0
3608,72.0,0.0,270.0,1.0,0.0
3609,60.0,0.0,270.0,2.0,0.0
3610,48.0,0.0,270.0,2.0,0.0
3611,64.0,4.0,90.0,8.0,0.0
3612,67.0,0.0,90.0,7.0,0.0
3613,52.0,88.0,90.0,10.0,0.0
3614,63.0,2.0,180.0,8.0,0.0
3615,66.0,89.0,180.0,7.0,0.0
3616,51.0,0.0,180.0,10.0,0.0
3617,71.0,89.0,180.0,6.0,0.0
3618,83.0,0.0,180.0,0.0,0.0
3619,59.0,0.0,180.0,2.0,0.0
3620,47.0,0.0,180.0,2.0,0.0
3621,71.0,0.0,180.0,1.0,0.0
3622,83.0,0.0,180.0,5.0,0.0
3623,69.0,0.0,180.0,8.0,0.0
3624,71.0,0.0,180.0,3.0,0.0
3625,57.0,0.0,180.0,10.0,0.0
3626,59.0,0.0,180.0,3.0,0.0
3627,71.0,0.0,180.0,7.0,0.0
3628,87.0,0.0,90.0,5.0,0.0
3629,51.0,0.0,90.0,2.0,0.0
3630,75.0,0.0,90.0,1.0,0.0
3631,87.0,0.0,90.0,0.0,0.0
3632,63.0,0.0,90.0,2.0,0.0
3633,75.0,90.0,90.0,6.0,0.0
3634,67.0,0.0,360.0,8.0,0.0
3635,59.0,0.0,360.0,3.0,0.0
3636,71.0,135.0,360.0,7.0,0.0
3637,88.0,0.0,90.0,5.0,0.0
3638,88.0,90.0,180.0,0.0,0.0
3639,71.0,0.0,360.0,3.0,0.0
3640,76.0,0.0,360.0,6.0,0.0
3641,64.0,0.0,90.0,2.0,0.0
3642,55.0,0.0,360.0,10.0,0.0
3643,76.0,45.0,40.0,5.0,0.0
3644,52.0,0.0,40.0,2.0,0.0
3645,76.0,45.0,15.0,1.0,0.0
3646,64.0,0.0,40.0,1.0,0.0
3647,54.0,0.0,40.0,2.0,0.0
3648,66.0,0.0,40.0,1.0,0.0
3649,78.0,0.0,40.0,5.0,0.0
3650,67.0,0.0,90.0,1.0,0.0
3651,55.0,90.0,90.0,2.0,0.0
3652,79.0,0.0,90.0,5.0,0.0
3653,64.0,0.0,90.0,1.0,0.0
3654,52.0,0.0,90.0,2.0,0.0
3655,76.0,0.0,90.0,5.0,0.0
3656,60.0,0.0,270.0,2.0,0.0
3657,72.0,0.0,270.0,1.0,0.0
3658,84.0,0.0,270.0,5.0,0.0
3659,52.0,0.0,40.0,2.0,0.0
3660,64.0,0.0,40.0,6.0,0.0
3661,76.0,45.0,40.0,0.0,0.0
3662,54.0,90.0,40.0,2.0,0.0
3663,66.0,0.0,40.0,6.0,0.0
3664,78.0,0.0,40.0,0.0,0.0
3665,55.0,0.0,90.0,2.0,0.0
3666,79.0,90.0,90.0,0.0,0.0
3667,67.0,0.0,90.0,6.0,0.0
3668,59.0,0.0,90.0,2.0,0.0
3669,52.0,0.0,90.0,2.0,0.0
3670,71.0,0.0,90.0,1.0,0.0
3671,64.0,90.0,90.0,6.0,0.0
3672,76.0,0.0,90.0,0.0,0.0
3673,83.0,0.0,90.0,5.0,0.0
3674,58.0,0.0,360.0,2.0,0.0
3675,61.0,45.0,90.0,2.0,0.0
3676,70.0,0.0,360.0,1.0,0.0
3677,85.0,0.0,360.0,0.0,0.0
3678,73.0,90.0,270.0,6.0,0.0
3679,82.0,0.0,270.0,5.0,0.0
3680,55.0,0.0,40.0,2.0,0.0
3681,79.0,45.0,40.0,1.0,0.0
3682,67.0,0.0,40.0,7.0,0.0
3683,78.0,0.0,40.0,1.0,0.0
3684,54.0,0.0,40.0,2.0,0.0
3685,66.0,90.0,40.0,7.0,0.0
3686,76.0,0.0,90.0,1.0,0.0
3687,52.0,0.0,90.0,2.0,0.0
3688,64.0,0.0,90.0,7.0,0.0
3689,79.0,0.0,90.0,1.0,0.0
3690,67.0,0.0,90.0,7.0,0.0
3691,82.0,0.0,90.0,5.0,0.0
3692,55.0,88.0,90.0,2.0,0.0
3693,73.0,0.0,90.0,6.0,0.0
3694,70.0,0.0,90.0,1.0,0.0
3695,76.0,0.0,90.0,6.0,0.0
3696,85.0,2.0,90.0,5.0,0.0
3697,46.0,45.0,90.0,2.0,0.0
3698,67.0,0.0,40.0,2.0,0.0
3699,67.0,0.0,40.0,8.0,0.0
3700,91.0,0.0,40.0,0.0,0.0
3701,79.0,0.0,40.0,1.0,0.0
3702,55.0,45.0,40.0,10.0,0.0
3703,55.0,0.0,40.0,2.0,0.0
3704,66.0,0.0,40.0,8.0,0.0
3705,78.0,0.0,40.0,1.0,0.0
3706,90.0,0.0,40.0,0.0,0.0
3707,66.0,0.0,40.0,2.0,0.0
3708,54.0,88.0,40.0,2.0,0.0
3709,54.0,0.0,40.0,10.0,0.0
3710,64.0,0.0,90.0,8.0,0.0
3711,76.0,0.0,90.0,1.0,0.0
3712,52.0,0.0,90.0,10.0,0.0
3713,88.0,2.0,90.0,5.0,0.0
3714,88.0,0.0,90.0,0.0,0.0
3715,79.0,0.0,90.0,6.0,0.0
3716,64.0,0.0,90.0,2.0,0.0
3717,52.0,90.0,90.0,2.0,0.0
3718,91.0,0.0,90.0,0.0,0.0
3719,58.0,0.0,15.0,7.0,0.0
3720,67.0,0.0,90.0,8.0,0.0
3721,79.0,0.0,90.0,1.0,0.0
3722,55.0,0.0,90.0,10.0,0.0
3723,55.0,180.0,90.0,2.0,0.0
3724,67.0,0.0,90.0,2.0,0.0
3725,82.0,0.0,180.0,0.0,0.0
3726,46.0,0.0,180.0,10.0,0.0
3727,61.0,0.0,180.0,7.0,0.0
3728,66.0,0.0,180.0,3.0,0.0
3729,58.0,0.0,180.0,2.0,0.0
3730,46.0,0.0,180.0,2.0,0.0
3731,54.0,215.0,180.0,3.0,0.0
3732,66.0,0.0,180.0,5.0,0.0
3733,70.0,0.0,180.0,1.0,0.0
3734,58.0,0.0,180.0,8.0,0.0
3735,64.0,0.0,180.0,6.0,0.0
3736,86.0,0.0,270.0,5.0,0.0
3737,59.0,90.0,360.0,3.0,0.0
3738,71.0,0.0,360.0,3.0,0.0
3739,74.0,0.0,40.0,7.0,0.0
3740,77.0,32.0,40.0,6.0,0.0
3741,71.0,0.0,40.0,7.0,0.0
3742,68.0,0.0,40.0,6.0,0.0
3743,59.0,0.0,60.0,8.0,0.0
3744,59.0,2.0,90.0,2.0,0.0
3745,86.0,0.0,360.0,1.0,0.0
3746,47.0,11.0,60.0,10.0,0.0
3747,80.0,0.0,360.0,1.0,0.0
3748,89.0,0.0,360.0,0.0,0.0
3749,71.0,0.0,40.0,7.0,0.0
3750,68.0,0.0,40.0,6.0,0.0
3751,77.0,45.0,40.0,6.0,0.0
3752,74.0,0.0,40.0,7.0,0.0
3753,68.0,32.0,40.0,6.0,0.0
3754,77.0,0.0,40.0,6.0,0.0
3755,59.0,0.0,60.0,8.0,0.0
3756,47.0,11.0,60.0,10.0,0.0
3757,71.0,0.0,40.0,7.0,0.0
3758,74.0,0.0,40.0,7.0,0.0
3759,59.0,2.0,90.0,2.0,0.0
3760,74.0,0.0,40.0,7.0,0.0
3761,77.0,0.0,40.0,6.0,0.0
3762,71.0,45.0,40.0,7.0,0.0
3763,68.0,0.0,40.0,6.0,0.0
3764,47.0,11.0,60.0,10.0,0.0
3765,77.0,22.0,40.0,6.0,0.0
3766,59.0,2.0,90.0,2.0,0.0
3767,59.0,0.0,60.0,8.0,0.0
3768,74.0,10.0,40.0,7.0,0.0
3769,71.0,0.0,40.0,7.0,0.0
3770,71.0,0.0,40.0,7.0,0.0
3771,74.0,10.0,40.0,7.0,0.0
3772,68.0,0.0,15.0,6.0,0.0
3773,77.0,0.0,40.0,6.0,0.0
3774,74.0,0.0,40.0,7.0,0.0
3775,71.0,0.0,40.0,7.0,0.0
3776,68.0,35.0,15.0,6.0,0.0
3777,77.0,32.0,40.0,6.0,0.0
3778,77.0,0.0,90.0,5.0,0.0
3779,59.0,2.0,90.0,2.0,0.0
3780,47.0,1.0,60.0,10.0,0.0
3781,59.0,10.0,60.0,8.0,0.0
3782,74.0,0.0,40.0,7.0,0.0
3783,71.0,0.0,40.0,7.0,0.0
3784,77.0,10.0,40.0,6.0,0.0
3785,68.0,0.0,40.0,6.0,0.0
3786,58.0,0.0,150.0,2.0,0.0
3787,70.0,0.0,150.0,7.0,0.0
3788,85.0,0.0,180.0,1.0,0.0
3789,78.0,157.0,360.0,1.0,0.0
3790,78.0,0.0,90.0,6.0,0.0
3791,66.0,0.0,90.0,6.0,0.0
3792,73.0,0.0,150.0,7.0,0.0
3793,66.0,0.0,180.0,3.0,0.0
3794,46.0,0.0,150.0,10.0,0.0
3795,88.0,0.0,180.0,0.0,0.0
3796,78.0,67.0,90.0,5.0,0.0
3797,73.0,0.0,180.0,3.0,0.0
3798,58.0,23.0,150.0,8.0,0.0
3799,88.0,157.0,90.0,5.0,0.0
3800,78.0,0.0,90.0,6.0,0.0
3801,71.0,23.0,150.0,7.0,0.0
3802,71.0,0.0,180.0,3.0,0.0
3803,59.0,0.0,150.0,2.0,0.0
3804,59.0,0.0,150.0,8.0,0.0
3805,86.0,0.0,180.0,0.0,0.0
3806,47.0,0.0,150.0,10.0,0.0
3807,83.0,0.0,180.0,1.0,0.0
3808,78.0,0.0,90.0,6.0,0.0
3809,86.0,0.0,90.0,5.0,0.0
3810,76.0,115.0,180.0,3.0,0.0
3811,40.0,0.0,150.0,10.0,0.0
3812,85.0,0.0,180.0,0.0,0.0
3813,52.0,23.0,150.0,2.0,0.0
3814,67.0,0.0,150.0,7.0,0.0
3815,52.0,0.0,150.0,8.0,0.0
3816,79.0,0.0,180.0,1.0,0.0
3817,76.0,0.0,180.0,1.0,0.0
3818,76.0,0.0,90.0,6.0,0.0
3819,85.0,0.0,90.0,5.0,0.0
3820,54.0,0.0,150.0,2.0,0.0
3821,42.0,0.0,150.0,10.0,0.0
3822,66.0,45.0,180.0,3.0,0.0
3823,82.0,13.0,150.0,0.0,0.0
3824,73.0,0.0,15.0,3.0,0.0
3825,73.0,0.0,120.0,1.0,0.0
3826,54.0,23.0,150.0,8.0,0.0
3827,66.0,0.0,150.0,7.0,0.0
3828,76.0,29.0,120.0,1.0,0.0
3829,82.0,0.0,90.0,5.0,0.0
3830,76.0,0.0,90.0,6.0,0.0
3831,55.0,10.0,180.0,8.0,0.0
3832,83.0,0.0,360.0,0.0,0.0
3833,55.0,0.0,40.0,2.0,0.0
3834,71.0,0.0,180.0,3.0,0.0
3835,59.0,0.0,180.0,3.0,0.0
3836,43.0,0.0,180.0,10.0,0.0
3837,74.0,42.0,360.0,1.0,0.0
3838,71.0,0.0,360.0,1.0,0.0
3839,74.0,0.0,360.0,6.0,0.0
3840,55.0,45.0,40.0,7.0,0.0
3841,57.0,45.0,40.0,2.0,0.0
3842,57.0,0.0,40.0,7.0,0.0
3843,59.0,0.0,40.0,7.0,0.0
3844,59.0,35.0,40.0,2.0,0.0
3845,60.0,45.0,40.0,7.0,0.0
3846,60.0,0.0,40.0,2.0,0.0
3847,62.0,0.0,40.0,2.0,0.0
3848,59.0,0.0,120.0,3.0,0.0
3849,62.0,45.0,40.0,7.0,0.0
3850,64.0,0.0,40.0,2.0,0.0
3851,64.0,0.0,40.0,7.0,0.0
3852,83.0,45.0,15.0,5.0,0.0
3853,66.0,45.0,40.0,7.0,0.0
3854,66.0,0.0,40.0,2.0,0.0
3855,67.0,0.0,40.0,2.0,0.0
3856,67.0,0.0,40.0,7.0,0.0
3857,71.0,0.0,15.0,3.0,0.0
3858,59.0,0.0,40.0,3.0,0.0
3859,49.0,3.0,40.0,8.0,0.0
3860,83.0,0.0,360.0,1.0,0.0
3861,89.0,0.0,360.0,1.0,0.0
3862,61.0,0.0,360.0,6.0,0.0
3863,37.0,45.0,40.0,10.0,0.0
3864,68.0,0.0,360.0,7.0,0.0
3865,71.0,0.0,15.0,6.0,0.0
3866,95.0,0.0,360.0,0.0,0.0
3867,49.0,0.0,40.0,2.0,0.0
3868,68.0,45.0,360.0,2.0,0.0
3869,51.0,43.0,60.0,8.0,0.0
3870,51.0,2.0,40.0,2.0,0.0
3871,39.0,0.0,40.0,10.0,0.0
3872,41.0,2.0,40.0,10.0,0.0
3873,53.0,0.0,40.0,2.0,0.0
3874,53.0,43.0,40.0,8.0,0.0
3875,42.0,0.0,40.0,10.0,0.0
3876,54.0,0.0,40.0,2.0,0.0
3877,54.0,33.0,60.0,8.0,0.0
3878,44.0,0.0,40.0,10.0,0.0
3879,59.0,0.0,15.0,3.0,0.0
3880,71.0,12.0,15.0,3.0,0.0
3881,56.0,12.0,40.0,2.0,0.0
3882,56.0,33.0,40.0,8.0,0.0
3883,45.0,0.0,40.0,10.0,0.0
3884,57.0,16.0,40.0,2.0,0.0
3885,57.0,29.0,40.0,8.0,0.0
3886,47.0,16.0,40.0,10.0,0.0
3887,77.0,0.0,15.0,5.0,0.0
3888,59.0,0.0,40.0,2.0,0.0
3889,59.0,29.0,40.0,8.0,0.0
3890,59.0,0.0,15.0,3.0,0.0
3891,49.0,0.0,40.0,10.0,0.0
3892,61.0,0.0,40.0,2.0,0.0
3893,71.0,0.0,40.0,3.0,0.0
3894,61.0,0.0,30.0,8.0,0.0
3895,58.0,22.0,40.0,7.0,0.0
3896,70.0,0.0,40.0,6.0,0.0
3897,85.0,45.0,360.0,1.0,0.0
3898,88.0,0.0,360.0,1.0,0.0
3899,94.0,0.0,360.0,0.0,0.0
3900,42.0,14.0,60.0,10.0,0.0
3901,78.0,0.0,180.0,5.0,0.0
3902,70.0,0.0,360.0,2.0,0.0
3903,54.0,0.0,180.0,2.0,0.0
3904,54.0,9.0,60.0,8.0,0.0
3905,71.0,45.0,40.0,6.0,0.0
3906,59.0,0.0,40.0,7.0,0.0
3907,54.0,11.0,60.0,10.0,0.0
3908,73.0,0.0,40.0,6.0,0.0
3909,61.0,22.0,40.0,7.0,0.0
3910,66.0,12.0,60.0,8.0,0.0
3911,74.0,0.0,40.0,6.0,0.0
3912,62.0,0.0,40.0,7.0,0.0
3913,54.0,8.0,60.0,10.0,0.0
3914,64.0,0.0,40.0,7.0,0.0
3915,88.0,0.0,180.0,5.0,0.0
3916,64.0,0.0,180.0,2.0,0.0
3917,73.0,45.0,15.0,3.0,0.0
3918,66.0,0.0,15.0,3.0,0.0
3919,73.0,0.0,180.0,5.0,0.0
3920,66.0,0.0,180.0,5.0,0.0
3921,76.0,22.0,40.0,6.0,0.0
3922,66.0,15.0,60.0,8.0,0.0
3923,66.0,0.0,40.0,7.0,0.0
3924,78.0,45.0,40.0,6.0,0.0
3925,68.0,0.0,40.0,7.0,0.0
3926,80.0,0.0,40.0,6.0,0.0
3927,54.0,8.0,60.0,10.0,0.0
3928,66.0,15.0,60.0,8.0,0.0
3929,70.0,0.0,40.0,7.0,0.0
3930,73.0,22.0,15.0,3.0,0.0
3931,82.0,0.0,40.0,6.0,0.0
3932,66.0,0.0,40.0,3.0,0.0
3933,71.0,22.0,40.0,7.0,0.0
3934,71.0,0.0,360.0,2.0,0.0
3935,43.0,10.0,60.0,10.0,0.0
3936,95.0,0.0,330.0,0.0,0.0
3937,62.0,45.0,360.0,2.0,0.0
3938,83.0,0.0,40.0,6.0,0.0
3939,83.0,0.0,330.0,1.0,0.0
3940,86.0,13.0,330.0,1.0,0.0
3941,55.0,14.0,60.0,8.0,0.0
3942,85.0,45.0,40.0,6.0,0.0
3943,73.0,0.0,40.0,7.0,0.0
3944,74.0,22.0,40.0,7.0,0.0
3945,55.0,9.0,60.0,10.0,0.0
3946,86.0,0.0,40.0,6.0,0.0
3947,67.0,13.0,60.0,8.0,0.0
3948,85.0,45.0,40.0,6.0,0.0
3949,73.0,0.0,40.0,7.0,0.0
3950,67.0,0.0,180.0,5.0,0.0
3951,74.0,0.0,180.0,5.0,0.0
3952,86.0,0.0,180.0,5.0,0.0
3953,55.0,10.0,60.0,10.0,0.0
3954,71.0,22.0,40.0,7.0,0.0
3955,71.0,0.0,15.0,3.0,0.0
3956,59.0,0.0,15.0,3.0,0.0
3957,83.0,0.0,40.0,6.0,0.0
3958,67.0,13.0,60.0,8.0,0.0
3959,81.0,45.0,40.0,6.0,0.0
3960,69.0,0.0,40.0,7.0,0.0
3961,55.0,8.0,60.0,10.0,0.0
3962,79.0,9.0,40.0,6.0,0.0
3963,67.0,0.0,40.0,7.0,0.0
3964,67.0,15.0,60.0,8.0,0.0
3965,66.0,0.0,40.0,7.0,0.0
3966,71.0,0.0,15.0,3.0,0.0
3967,78.0,0.0,40.0,6.0,0.0
3968,59.0,0.0,40.0,3.0,0.0
3969,91.0,0.0,360.0,0.0,0.0
3970,85.0,0.0,360.0,1.0,0.0
3971,40.0,7.0,60.0,10.0,0.0
3972,79.0,0.0,40.0,6.0,0.0
3973,71.0,0.0,180.0,3.0,0.0
3974,67.0,22.0,40.0,7.0,0.0
3975,61.0,0.0,360.0,2.0,0.0
3976,67.0,0.0,360.0,2.0,0.0
3977,52.0,16.0,60.0,8.0,0.0
3978,69.0,0.0,40.0,7.0,0.0
3979,81.0,45.0,40.0,6.0,0.0
3980,67.0,0.0,40.0,7.0,0.0
3981,52.0,4.0,60.0,10.0,0.0
3982,79.0,22.0,40.0,6.0,0.0
3983,64.0,19.0,60.0,8.0,0.0
3984,66.0,45.0,40.0,7.0,0.0
3985,78.0,0.0,40.0,6.0,0.0
3986,73.0,0.0,15.0,3.0,0.0
3987,85.0,0.0,180.0,5.0,0.0
3988,67.0,45.0,180.0,5.0,0.0
3989,76.0,0.0,180.0,5.0,0.0
3990,76.0,22.0,40.0,6.0,0.0
3991,71.0,0.0,120.0,3.0,0.0
3992,52.0,3.0,60.0,10.0,0.0
3993,64.0,0.0,40.0,7.0,0.0
3994,64.0,20.0,60.0,8.0,0.0
3995,74.0,0.0,40.0,6.0,0.0
3996,62.0,45.0,40.0,7.0,0.0
3997,61.0,0.0,40.0,7.0,0.0
3998,52.0,4.0,60.0,10.0,0.0
3999,73.0,0.0,40.0,6.0,0.0
4000,64.0,19.0,60.0,8.0,0.0
4001,59.0,0.0,40.0,7.0,0.0
4002,71.0,0.0,40.0,6.0,0.0
4003,71.0,0.0,40.0,3.0,0.0
4004,58.0,0.0,360.0,2.0,0.0
4005,70.0,0.0,40.0,6.0,0.0
4006,52.0,0.0,360.0,2.0,0.0
4007,73.0,0.0,15.0,3.0,0.0
4008,76.0,0.0,15.0,1.0,0.0
4009,58.0,22.0,40.0,7.0,0.0
4010,42.0,6.0,60.0,10.0,0.0
4011,73.0,172.0,360.0,1.0,0.0
4012,82.0,0.0,360.0,0.0,0.0
4013,54.0,17.0,60.0,8.0,0.0
4014,59.0,45.0,40.0,7.0,0.0
4015,71.0,0.0,40.0,6.0,0.0
4016,70.0,0.0,40.0,6.0,0.0
4017,54.0,7.0,60.0,10.0,0.0
4018,61.0,22.0,40.0,7.0,0.0
4019,66.0,8.0,60.0,8.0,0.0
4020,67.0,45.0,40.0,6.0,0.0
4021,59.0,0.0,40.0,7.0,0.0
4022,58.0,0.0,40.0,7.0,0.0
4023,54.0,15.0,60.0,10.0,0.0
4024,73.0,0.0,15.0,3.0,0.0
4025,66.0,0.0,15.0,3.0,0.0
4026,82.0,0.0,180.0,5.0,0.0
4027,66.0,23.0,40.0,6.0,0.0
4028,73.0,0.0,180.0,5.0,0.0
4029,66.0,2.0,60.0,8.0,0.0
4030,64.0,0.0,40.0,6.0,0.0
4031,61.0,45.0,40.0,7.0,0.0
4032,54.0,21.0,60.0,10.0,0.0
4033,62.0,0.0,40.0,6.0,0.0
4034,59.0,0.0,40.0,7.0,0.0
4035,66.0,15.0,60.0,8.0,0.0
4036,61.0,0.0,60.0,6.0,0.0
4037,58.0,0.0,60.0,7.0,0.0
4038,66.0,0.0,60.0,3.0,0.0
4039,73.0,22.0,15.0,3.0,0.0
4040,47.0,0.0,180.0,10.0,0.0
4041,71.0,0.0,180.0,3.0,0.0
4042,59.0,0.0,180.0,3.0,0.0
4043,50.0,0.0,180.0,2.0,0.0
4044,59.0,0.0,180.0,2.0,0.0
4045,83.0,0.0,180.0,0.0,0.0
4046,66.0,0.0,15.0,5.0,0.0
4047,74.0,0.0,180.0,1.0,0.0
4048,74.0,0.0,180.0,5.0,0.0
4049,83.0,0.0,180.0,5.0,0.0
4050,59.0,12.0,180.0,7.0,0.0
4051,59.0,0.0,180.0,6.0,0.0
4052,71.0,0.0,180.0,1.0,0.0
4053,59.0,171.0,180.0,8.0,0.0
4054,73.0,45.0,40.0,4.0,0.0
4055,74.0,50.0,40.0,4.0,0.0
4056,73.0,45.0,60.0,4.0,0.0
4057,76.0,47.0,40.0,4.0,0.0
4058,74.0,45.0,40.0,4.0,0.0
4059,78.0,51.0,40.0,4.0,0.0
4060,76.0,45.0,60.0,4.0,0.0
4061,79.0,35.0,40.0,4.0,0.0
4062,78.0,186.0,40.0,4.0,0.0
4063,66.0,177.0,180.0,4.0,0.0
4064,62.0,0.0,180.0,4.0,0.0
4065,81.0,45.0,450.0,4.0,0.0
4066,61.0,90.0,180.0,4.0,0.0
4067,64.0,0.0,180.0,4.0,0.0
4068,60.0,140.0,360.0,4.0,0.0
4069,63.0,0.0,360.0,4.0,0.0
4070,80.0,41.0,40.0,4.0,0.0
4071,81.0,45.0,40.0,4.0,0.0
4072,83.0,42.0,40.0,4.0,0.0
4073,81.0,45.0,40.0,4.0,0.0
4074,80.0,51.0,40.0,4.0,0.0
4075,78.0,0.0,60.0,4.0,0.0
4076,77.0,35.0,150.0,4.0,0.0
4077,59.0,365.0,180.0,4.0,0.0
4078,68.0,0.0,180.0,4.0,0.0
4079,85.0,71.0,270.0,4.0,0.0
4080,73.0,0.0,270.0,4.0,0.0
4081,57.0,90.0,180.0,4.0,0.0
4082,56.0,90.0,180.0,4.0,0.0
4083,72.0,19.0,60.0,4.0,0.0
4084,84.0,0.0,60.0,4.0,0.0
4085,66.0,0.0,15.0,4.0,0.0
4086,57.0,0.0,180.0,4.0,0.0
4087,74.0,91.0,90.0,4.0,0.0
4088,86.0,0.0,90.0,4.0,0.0
4089,73.0,90.0,90.0,4.0,0.0
4090,85.0,0.0,90.0,4.0,0.0
4091,83.0,0.0,90.0,4.0,0.0
4092,62.0,34.0,150.0,4.0,0.0
4093,71.0,55.0,90.0,4.0,0.0
4094,69.0,87.0,90.0,4.0,0.0
4095,81.0,0.0,90.0,4.0,0.0
4096,59.0,55.0,180.0,4.0,0.0
4097,80.0,0.0,90.0,4.0,0.0
4098,68.0,84.0,90.0,4.0,0.0
4099,71.0,134.0,150.0,4.0,0.0
4100,83.0,0.0,150.0,4.0,0.0
4101,61.0,175.0,180.0,4.0,0.0
4102,65.0,0.0,90.0,4.0,0.0
4103,77.0,0.0,90.0,4.0,0.0
4104,54.0,242.0,180.0,4.0,0.0
4105,78.0,0.0,180.0,4.0,0.0
4106,66.0,0.0,180.0,4.0,0.0
4107,72.0,62.0,240.0,4.0,0.0
4108,51.0,0.0,180.0,4.0,0.0
4109,71.0,62.0,60.0,4.0,0.0
4110,72.0,59.0,60.0,4.0,0.0
4111,57.0,30.0,150.0,4.0,0.0
4112,73.0,65.0,60.0,4.0,0.0
4113,74.0,25.0,60.0,4.0,0.0
4114,75.0,92.0,60.0,4.0,0.0
4115,78.0,89.0,90.0,4.0,0.0
4116,55.0,0.0,180.0,4.0,0.0
4117,76.0,242.0,90.0,4.0,0.0
4118,84.0,62.0,240.0,4.0,0.0
4119,63.0,59.0,180.0,4.0,0.0
4120,83.0,63.0,60.0,4.0,0.0
4121,84.0,0.0,60.0,4.0,0.0
4122,85.0,63.0,60.0,4.0,0.0
4123,69.0,24.0,150.0,4.0,0.0
4124,86.0,26.0,60.0,4.0,0.0
4125,87.0,97.0,60.0,4.0,0.0
4126,67.0,221.0,180.0,4.0,0.0
4127,90.0,88.0,90.0,4.0,0.0
4128,88.0,0.0,90.0,4.0,0.0
4129,76.0,45.0,40.0,4.0,0.0
4130,78.0,45.0,40.0,4.0,0.0
4131,74.0,44.0,40.0,4.0,0.0
4132,76.0,45.0,40.0,4.0,0.0
4133,64.0,0.0,180.0,4.0,0.0
4134,73.0,42.0,40.0,4.0,0.0
4135,55.0,177.0,180.0,4.0,0.0
4136,74.0,45.0,40.0,4.0,0.0
4137,71.0,48.0,40.0,4.0,0.0
4138,73.0,0.0,40.0,4.0,0.0
4139,70.0,228.0,180.0,4.0,0.0
4140,64.0,0.0,180.0,4.0,0.0
4141,55.0,0.0,180.0,4.0,0.0
4142,76.0,43.0,40.0,4.0,0.0
4143,91.0,0.0,90.0,4.0,0.0
4144,88.0,2.0,90.0,4.0,0.0
4145,78.0,45.0,40.0,4.0,0.0
4146,74.0,46.0,40.0,4.0,0.0
4147,76.0,45.0,40.0,4.0,0.0
4148,91.0,1.0,90.0,4.0,0.0
4149,73.0,44.0,40.0,4.0,0.0
4150,88.0,0.0,90.0,4.0,0.0
4151,74.0,45.0,40.0,4.0,0.0
4152,71.0,44.0,40.0,4.0,0.0
4153,73.0,181.0,40.0,4.0,0.0
4154,88.0,180.0,180.0,4.0,0.0
4155,90.0,0.0,180.0,4.0,0.0
4156,70.0,0.0,180.0,4.0,0.0
4157,85.0,45.0,40.0,4.0,0.0
4158,88.0,45.0,40.0,4.0,0.0
4159,59.0,0.0,360.0,4.0,0.0
4160,62.0,0.0,360.0,4.0,0.0
4161,86.0,45.0,40.0,4.0,0.0
4162,85.0,39.0,40.0,4.0,0.0
4163,83.0,45.0,40.0,4.0,0.0
4164,81.0,41.0,40.0,4.0,0.0
4165,79.0,45.0,40.0,4.0,0.0
4166,78.0,54.0,40.0,4.0,0.0
4167,77.0,87.0,60.0,4.0,0.0
4168,58.0,0.0,180.0,4.0,0.0
4169,61.0,0.0,180.0,4.0,0.0
4170,79.0,90.0,90.0,4.0,0.0
4171,78.0,91.0,90.0,4.0,0.0
4172,76.0,90.0,90.0,4.0,0.0
4173,59.0,0.0,180.0,4.0,0.0
4174,74.0,89.0,90.0,4.0,0.0
4175,52.0,90.0,180.0,4.0,0.0
4176,73.0,87.0,90.0,4.0,0.0
4177,76.0,96.0,180.0,4.0,0.0
4178,54.0,0.0,180.0,4.0,0.0
4179,70.0,132.0,90.0,4.0,0.0
4180,71.0,180.0,720.0,7.0,0.0
4181,86.0,0.0,360.0,5.0,0.0
4182,65.0,0.0,360.0,6.0,0.0
4183,43.0,135.0,360.0,10.0,0.0
4184,71.0,46.0,120.0,4.0,0.0
4185,43.0,0.0,360.0,4.0,0.0
4186,55.0,0.0,360.0,4.0,0.0
4187,55.0,0.0,360.0,8.0,0.0
4188,65.0,182.0,40.0,4.0,0.0
4189,74.0,43.0,330.0,4.0,0.0
4190,56.0,0.0,360.0,8.0,0.0
4191,74.0,37.0,330.0,6.0,0.0
4192,56.0,0.0,360.0,4.0,0.0
4193,44.0,0.0,360.0,4.0,0.0
4194,77.0,0.0,330.0,5.0,0.0
4195,44.0,0.0,360.0,10.0,0.0
4196,65.0,135.0,40.0,4.0,0.0
4197,74.0,10.0,120.0,4.0,0.0
4198,65.0,0.0,40.0,4.0,0.0
4199,78.0,180.0,180.0,5.0,0.0
4200,73.0,0.0,360.0,6.0,0.0
4201,46.0,0.0,360.0,4.0,0.0
4202,66.0,0.0,180.0,4.0,0.0
4203,46.0,180.0,360.0,10.0,0.0
4204,58.0,0.0,360.0,8.0,0.0
4205,66.0,135.0,720.0,7.0,0.0
4206,64.0,0.0,360.0,4.0,0.0
4207,76.0,144.0,360.0,5.0,0.0
4208,59.0,0.0,330.0,8.0,0.0
4209,71.0,36.0,330.0,6.0,0.0
4210,47.0,0.0,330.0,10.0,0.0
4211,47.0,0.0,360.0,4.0,0.0
4212,74.0,0.0,150.0,5.0,0.0
4213,64.0,0.0,360.0,6.0,0.0
4214,40.0,180.0,360.0,4.0,0.0
4215,62.0,0.0,15.0,4.0,0.0
4216,52.0,0.0,360.0,8.0,0.0
4217,40.0,0.0,360.0,10.0,0.0
4218,64.0,0.0,360.0,7.0,0.0
4219,74.0,135.0,180.0,5.0,0.0
4220,61.0,0.0,40.0,4.0,0.0
4221,64.0,45.0,120.0,4.0,0.0
4222,73.0,0.0,180.0,5.0,0.0
4223,56.0,0.0,40.0,4.0,0.0
4224,62.0,90.0,180.0,6.0,0.0
4225,42.0,36.0,330.0,10.0,0.0
4226,54.0,0.0,330.0,8.0,0.0
4227,66.0,0.0,330.0,7.0,0.0
4228,59.0,45.0,270.0,4.0,0.0
4229,71.0,0.0,180.0,5.0,0.0
4230,42.0,180.0,360.0,4.0,0.0
4231,70.0,0.0,150.0,5.0,0.0
4232,61.0,0.0,150.0,6.0,0.0
4233,62.0,9.0,40.0,4.0,0.0
4234,61.0,0.0,40.0,4.0,0.0
4235,47.0,0.0,180.0,8.0,0.0
4236,71.0,0.0,180.0,5.0,0.0
4237,35.0,0.0,180.0,10.0,0.0
4238,66.0,180.0,180.0,7.0,0.0
4239,59.0,0.0,180.0,6.0,0.0
4240,59.0,0.0,180.0,4.0,0.0
4241,35.0,0.0,180.0,4.0,0.0
4242,47.0,90.0,180.0,4.0,0.0
4243,71.0,90.0,90.0,1.0,0.0
4244,75.0,0.0,90.0,1.0,0.0
4245,70.0,90.0,90.0,1.0,0.0
4246,73.0,0.0,90.0,1.0,0.0
4247,71.0,0.0,90.0,1.0,0.0
4248,75.0,71.0,90.0,1.0,0.0
4249,73.0,107.0,60.0,1.0,0.0
4250,76.0,0.0,60.0,1.0,0.0
4251,71.0,0.0,720.0,3.0,0.0
4252,78.0,0.0,90.0,1.0,0.0
4253,66.0,98.0,720.0,2.0,0.0
4254,59.0,0.0,720.0,2.0,0.0
4255,47.0,0.0,720.0,10.0,0.0
4256,75.0,2.0,90.0,1.0,0.0
4257,59.0,0.0,720.0,8.0,0.0
4258,87.0,90.0,90.0,0.0,0.0
4259,63.0,0.0,720.0,3.0,0.0
4260,85.0,88.0,90.0,0.0,0.0
4261,78.0,2.0,90.0,1.0,0.0
4262,87.0,71.0,90.0,0.0,0.0
4263,75.0,0.0,90.0,1.0,0.0
4264,88.0,111.0,60.0,0.0,0.0
4265,71.0,96.0,90.0,1.0,0.0
4266,90.0,6.0,90.0,0.0,0.0
4267,75.0,0.0,90.0,1.0,0.0
4268,70.0,88.0,90.0,1.0,0.0
4269,73.0,0.0,90.0,1.0,0.0
4270,90.0,2.0,90.0,0.0,0.0
4271,71.0,76.0,90.0,1.0,0.0
4272,75.0,0.0,90.0,1.0,0.0
4273,68.0,0.0,90.0,1.0,0.0
4274,76.0,0.0,90.0,1.0,0.0
4275,61.0,0.0,720.0,8.0,0.0
4276,73.0,0.0,720.0,3.0,0.0
4277,66.0,0.0,720.0,3.0,0.0
4278,64.0,0.0,720.0,2.0,0.0
4279,89.0,88.0,90.0,0.0,0.0
4280,61.0,0.0,720.0,2.0,0.0
4281,70.0,0.0,720.0,1.0,0.0
4282,78.0,1.0,90.0,1.0,0.0
4283,49.0,0.0,720.0,10.0,0.0
4284,90.0,88.0,90.0,0.0,0.0
4285,92.0,85.0,90.0,0.0,0.0
4286,78.0,2.0,90.0,1.0,0.0
4287,90.0,89.0,90.0,0.0,0.0
4288,90.0,1.0,90.0,0.0,0.0
4289,77.0,88.0,90.0,1.0,0.0
4290,78.0,88.0,90.0,1.0,0.0
4291,90.0,2.0,90.0,0.0,0.0
4292,80.0,90.0,90.0,1.0,0.0
4293,63.0,0.0,360.0,2.0,0.0
4294,71.0,0.0,630.0,1.0,0.0
4295,51.0,0.0,360.0,10.0,0.0
4296,63.0,90.0,360.0,8.0,0.0
4297,90.0,0.0,450.0,0.0,0.0
4298,75.0,0.0,360.0,3.0,0.0
4299,78.0,90.0,15.0,1.0,0.0
4300,71.0,0.0,360.0,3.0,0.0
4301,80.0,90.0,90.0,1.0,0.0
4302,82.0,90.0,90.0,1.0,0.0
4303,83.0,0.0,90.0,1.0,0.0
4304,82.0,85.0,90.0,1.0,0.0
4305,52.0,7.0,330.0,10.0,0.0
4306,64.0,0.0,330.0,2.0,0.0
4307,64.0,36.0,330.0,8.0,0.0
4308,80.0,87.0,90.0,1.0,0.0
4309,88.0,0.0,90.0,0.0,0.0
4310,90.0,55.0,90.0,0.0,0.0
4311,78.0,0.0,90.0,1.0,0.0
4312,76.0,0.0,90.0,1.0,0.0
4313,73.0,0.0,90.0,1.0,0.0
4314,92.0,177.0,90.0,0.0,0.0
4315,66.0,0.0,360.0,2.0,0.0
4316,54.0,3.0,360.0,10.0,0.0
4317,71.0,0.0,180.0,3.0,0.0
4318,75.0,0.0,180.0,3.0,0.0
4319,87.0,0.0,180.0,0.0,0.0
4320,66.0,90.0,360.0,8.0,0.0
4321,71.0,0.0,180.0,1.0,0.0
4322,75.0,180.0,180.0,1.0,0.0
4323,73.0,0.0,180.0,1.0,0.0
4324,73.0,0.0,180.0,3.0,0.0
4325,66.0,0.0,180.0,3.0,0.0
4326,85.0,0.0,180.0,0.0,0.0
4327,70.0,0.0,180.0,1.0,0.0
4328,71.0,90.0,90.0,2.0,0.0
4329,70.0,90.0,90.0,2.0,0.0
4330,68.0,90.0,90.0,2.0,0.0
4331,66.0,67.0,90.0,2.0,0.0
4332,56.0,23.0,60.0,2.0,0.0
4333,59.0,0.0,180.0,3.0,0.0
4334,71.0,0.0,180.0,3.0,0.0
4335,56.0,0.0,180.0,8.0,0.0
4336,83.0,67.0,90.0,0.0,0.0
4337,44.0,67.0,180.0,10.0,0.0
4338,82.0,0.0,90.0,0.0,0.0
4339,59.0,23.0,60.0,2.0,0.0
4340,65.0,0.0,15.0,2.0,0.0
4341,80.0,67.0,90.0,0.0,0.0
4342,59.0,0.0,180.0,3.0,0.0
4343,56.0,23.0,60.0,2.0,0.0
4344,71.0,67.0,180.0,3.0,0.0
4345,59.0,23.0,60.0,2.0,0.0
4346,78.0,0.0,90.0,0.0,0.0
4347,56.0,23.0,60.0,2.0,0.0
4348,44.0,0.0,180.0,10.0,0.0
4349,56.0,0.0,180.0,8.0,0.0
4350,85.0,67.0,90.0,1.0,0.0
4351,59.0,23.0,60.0,2.0,0.0
4352,83.0,67.0,90.0,1.0,0.0
4353,82.0,67.0,90.0,1.0,0.0
4354,77.0,0.0,15.0,0.0,0.0
4355,56.0,23.0,60.0,2.0,0.0
4356,80.0,0.0,90.0,1.0,0.0
4357,59.0,23.0,60.0,2.0,0.0
4358,58.0,0.0,180.0,8.0,0.0
4359,58.0,23.0,60.0,2.0,0.0
4360,66.0,0.0,180.0,3.0,0.0
4361,46.0,67.0,180.0,10.0,0.0
4362,77.0,0.0,90.0,1.0,0.0
4363,78.0,67.0,15.0,1.0,0.0
4364,61.0,23.0,60.0,2.0,0.0
4365,73.0,0.0,15.0,3.0,0.0
4366,66.0,0.0,180.0,3.0,0.0
4367,58.0,23.0,60.0,2.0,0.0
4368,75.0,67.0,90.0,1.0,0.0
4369,78.0,19.0,150.0,1.0,0.0
4370,61.0,4.0,60.0,2.0,0.0
4371,73.0,0.0,60.0,1.0,0.0
4372,66.0,67.0,180.0,2.0,0.0
4373,51.0,23.0,60.0,2.0,0.0
4374,90.0,67.0,90.0,0.0,0.0
4375,51.0,0.0,180.0,10.0,0.0
4376,63.0,0.0,180.0,8.0,0.0
4377,89.0,0.0,90.0,0.0,0.0
4378,63.0,23.0,60.0,2.0,0.0
4379,87.0,67.0,90.0,0.0,0.0
4380,72.0,0.0,15.0,1.0,0.0
4381,80.0,0.0,15.0,1.0,0.0
4382,51.0,23.0,60.0,2.0,0.0
4383,66.0,90.0,180.0,2.0,0.0
4384,85.0,19.0,60.0,0.0,0.0
4385,63.0,4.0,60.0,2.0,0.0
4386,49.0,90.0,180.0,10.0,0.0
4387,61.0,1.0,180.0,8.0,0.0
4388,73.0,87.0,360.0,3.0,0.0
4389,84.0,0.0,90.0,0.0,0.0
4390,81.0,90.0,90.0,1.0,0.0
4391,66.0,0.0,360.0,3.0,0.0
4392,49.0,0.0,180.0,2.0,0.0
4393,66.0,0.0,450.0,2.0,0.0
4394,85.0,0.0,90.0,0.0,0.0
4395,82.0,0.0,90.0,1.0,0.0
4396,87.0,0.0,90.0,0.0,0.0
4397,83.0,89.0,90.0,1.0,0.0
4398,82.0,0.0,90.0,1.0,0.0
4399,61.0,0.0,15.0,2.0,0.0
4400,49.0,71.0,180.0,8.0,0.0
4401,85.0,0.0,15.0,0.0,0.0
4402,82.0,0.0,90.0,1.0,0.0
4403,37.0,0.0,180.0,10.0,0.0
4404,68.0,0.0,90.0,2.0,0.0
4405,80.0,13.0,90.0,1.0,0.0
4406,83.0,0.0,90.0,0.0,0.0
4407,78.0,0.0,90.0,1.0,0.0
4408,82.0,109.0,90.0,0.0,0.0
4409,73.0,0.0,180.0,3.0,0.0
4410,70.0,0.0,90.0,2.0,0.0
4411,73.0,0.0,15.0,1.0,0.0
4412,61.0,0.0,180.0,2.0,0.0
4413,71.0,0.0,120.0,2.0,0.0
4414,42.0,0.0,360.0,10.0,0.0
4415,73.0,0.0,360.0,1.0,0.0
4416,80.0,175.0,15.0,0.0,0.0
4417,77.0,0.0,15.0,1.0,0.0
4418,54.0,0.0,360.0,2.0,0.0
4419,66.0,0.0,360.0,3.0,0.0
4420,71.0,0.0,180.0,2.0,0.0
4421,73.0,0.0,360.0,3.0,0.0
4422,54.0,87.0,360.0,8.0,0.0
4423,78.0,37.0,150.0,0.0,0.0
4424,78.0,0.0,180.0,1.0,0.0
4425,70.0,3.0,180.0,2.0,0.0
4426,75.0,93.0,90.0,4.0,0.0
4427,73.0,90.0,90.0,4.0,0.0
4428,75.0,90.0,90.0,4.0,0.0
4429,76.0,90.0,90.0,4.0,0.0
4430,66.0,89.0,1800.0,7.0,0.0
4431,59.0,0.0,90.0,4.0,0.0
4432,71.0,0.0,720.0,6.0,0.0
4433,77.0,71.0,90.0,4.0,0.0
4434,47.0,90.0,720.0,10.0,0.0
4435,87.0,0.0,720.0,5.0,0.0
4436,59.0,0.0,720.0,8.0,0.0
4437,78.0,19.0,60.0,4.0,0.0
4438,66.0,90.0,90.0,4.0,0.0
4439,78.0,43.0,180.0,4.0,0.0
4440,63.0,90.0,90.0,4.0,0.0
4441,66.0,0.0,90.0,4.0,0.0
4442,75.0,47.0,40.0,4.0,0.0
4443,59.0,22.0,90.0,4.0,0.0
4444,76.0,23.0,20.0,4.0,0.0
4445,66.0,90.0,90.0,4.0,0.0
4446,75.0,45.0,20.0,4.0,0.0
4447,73.0,0.0,40.0,4.0,0.0
4448,75.0,0.0,90.0,4.0,0.0
4449,63.0,43.0,90.0,4.0,0.0
4450,76.0,47.0,40.0,4.0,0.0
4451,66.0,0.0,90.0,4.0,0.0
4452,76.0,0.0,720.0,6.0,0.0
4453,61.0,0.0,90.0,4.0,0.0
4454,80.0,90.0,90.0,4.0,0.0
4455,61.0,0.0,720.0,8.0,0.0
4456,49.0,0.0,720.0,10.0,0.0
4457,82.0,0.0,720.0,5.0,0.0
4458,78.0,90.0,90.0,4.0,0.0
4459,70.0,0.0,90.0,4.0,0.0
4460,64.0,90.0,90.0,4.0,0.0
4461,78.0,90.0,180.0,4.0,0.0
4462,70.0,0.0,90.0,4.0,0.0
4463,77.0,90.0,90.0,4.0,0.0
4464,61.0,0.0,90.0,4.0,0.0
4465,70.0,0.0,90.0,4.0,0.0
4466,78.0,90.0,90.0,4.0,0.0
4467,64.0,0.0,90.0,4.0,0.0
4468,80.0,90.0,90.0,4.0,0.0
4469,70.0,91.0,90.0,4.0,0.0
4470,78.0,0.0,360.0,6.0,0.0
4471,63.0,1.0,360.0,8.0,0.0
4472,71.0,0.0,360.0,4.0,0.0
4473,51.0,0.0,360.0,10.0,0.0
4474,83.0,0.0,360.0,5.0,0.0
4475,78.0,0.0,15.0,4.0,0.0
4476,63.0,0.0,360.0,4.0,0.0
4477,82.0,45.0,40.0,4.0,0.0
4478,80.0,45.0,40.0,4.0,0.0
4479,83.0,46.0,40.0,4.0,0.0
4480,82.0,45.0,40.0,4.0,0.0
4481,85.0,43.0,40.0,4.0,0.0
4482,83.0,0.0,40.0,4.0,0.0
4483,64.0,0.0,360.0,8.0,0.0
4484,52.0,0.0,360.0,10.0,0.0
4485,64.0,0.0,360.0,4.0,0.0
4486,68.0,174.0,360.0,7.0,0.0
4487,82.0,78.0,90.0,4.0,0.0
4488,73.0,0.0,90.0,6.0,0.0
4489,80.0,0.0,90.0,4.0,0.0
4490,76.0,85.0,90.0,4.0,0.0
4491,76.0,0.0,90.0,5.0,0.0
4492,75.0,0.0,90.0,4.0,0.0
4493,78.0,0.0,90.0,4.0,0.0
4494,75.0,71.0,90.0,6.0,0.0
4495,78.0,0.0,90.0,5.0,0.0
4496,80.0,0.0,60.0,5.0,0.0
4497,76.0,0.0,60.0,6.0,0.0
4498,76.0,0.0,60.0,4.0,0.0
4499,73.0,36.0,60.0,4.0,0.0
4500,71.0,148.0,180.0,6.0,0.0
4501,75.0,0.0,180.0,5.0,0.0
4502,66.0,42.0,360.0,8.0,0.0
4503,75.0,0.0,180.0,4.0,0.0
4504,54.0,0.0,360.0,10.0,0.0
4505,66.0,3.0,360.0,4.0,0.0
4506,71.0,0.0,180.0,4.0,0.0
4507,66.0,0.0,360.0,7.0,0.0
4508,73.0,0.0,150.0,4.0,0.0
4509,73.0,0.0,150.0,5.0,0.0
4510,70.0,0.0,150.0,6.0,0.0
4511,70.0,35.0,150.0,4.0,0.0
4512,71.0,45.0,40.0,4.0,0.0
4513,73.0,45.0,40.0,4.0,0.0
4514,70.0,42.0,40.0,4.0,0.0
4515,71.0,45.0,40.0,4.0,0.0
4516,68.0,45.0,40.0,4.0,0.0
4517,70.0,45.0,40.0,4.0,0.0
4518,66.0,51.0,40.0,4.0,0.0
4519,68.0,85.0,60.0,4.0,0.0
4520,44.0,0.0,720.0,10.0,0.0
4521,83.0,90.0,90.0,5.0,0.0
4522,61.0,0.0,900.0,7.0,0.0
4523,71.0,0.0,90.0,6.0,0.0
4524,65.0,0.0,180.0,4.0,0.0
4525,56.0,0.0,720.0,8.0,0.0
4526,56.0,0.0,90.0,4.0,0.0
4527,61.0,0.0,90.0,4.0,0.0
4528,70.0,92.0,90.0,6.0,0.0
4529,82.0,0.0,90.0,5.0,0.0
4530,80.0,0.0,90.0,5.0,0.0
4531,68.0,55.0,90.0,6.0,0.0
4532,59.0,0.0,90.0,4.0,0.0
4533,65.0,16.0,150.0,4.0,0.0
4534,78.0,0.0,60.0,5.0,0.0
4535,61.0,45.0,90.0,4.0,0.0
4536,66.0,22.0,60.0,6.0,0.0
4537,65.0,0.0,90.0,6.0,0.0
4538,77.0,3.0,90.0,5.0,0.0
4539,85.0,43.0,40.0,4.0,0.0
4540,87.0,45.0,40.0,4.0,0.0
4541,83.0,51.0,40.0,4.0,0.0
4542,85.0,45.0,60.0,4.0,0.0
4543,77.0,3.0,90.0,5.0,0.0
4544,65.0,0.0,90.0,6.0,0.0
4545,82.0,43.0,40.0,4.0,0.0
4546,83.0,45.0,40.0,4.0,0.0
4547,80.0,37.0,40.0,4.0,0.0
4548,82.0,94.0,40.0,4.0,0.0
4549,58.0,4.0,360.0,8.0,0.0
4550,85.0,55.0,90.0,5.0,0.0
4551,46.0,45.0,360.0,10.0,0.0
4552,58.0,0.0,90.0,4.0,0.0
4553,78.0,32.0,150.0,4.0,0.0
4554,73.0,0.0,90.0,6.0,0.0
4555,71.0,0.0,90.0,6.0,0.0
4556,83.0,91.0,90.0,5.0,0.0
4557,66.0,0.0,90.0,4.0,0.0
4558,61.0,0.0,90.0,4.0,0.0
4559,70.0,55.0,90.0,6.0,0.0
4560,82.0,0.0,90.0,5.0,0.0
4561,78.0,0.0,180.0,4.0,0.0
4562,66.0,17.0,150.0,7.0,0.0
4563,66.0,0.0,90.0,4.0,0.0
4564,68.0,0.0,90.0,6.0,0.0
4565,80.0,16.0,60.0,5.0,0.0
4566,63.0,7.0,330.0,8.0,0.0
4567,90.0,43.0,40.0,4.0,0.0
4568,51.0,29.0,330.0,10.0,0.0
4569,72.0,97.0,360.0,7.0,0.0
4570,78.0,0.0,90.0,5.0,0.0
4571,66.0,5.0,90.0,6.0,0.0
4572,89.0,45.0,40.0,4.0,0.0
4573,92.0,47.0,40.0,4.0,0.0
4574,90.0,45.0,40.0,4.0,0.0
4575,89.0,43.0,40.0,4.0,0.0
4576,66.0,0.0,90.0,6.0,0.0
4577,78.0,44.0,90.0,5.0,0.0
4578,87.0,1.0,40.0,4.0,0.0
4579,85.0,2.0,40.0,4.0,0.0
4580,84.0,0.0,40.0,4.0,0.0
4581,61.0,0.0,540.0,8.0,0.0
4582,49.0,0.0,540.0,10.0,0.0
4583,61.0,0.0,540.0,6.0,0.0
4584,73.0,0.0,540.0,7.0,0.0
4585,73.0,0.0,540.0,5.0,0.0
4586,87.0,88.0,90.0,4.0,0.0
4587,61.0,180.0,720.0,4.0,0.0
4588,70.0,22.0,360.0,4.0,0.0
4589,85.0,89.0,90.0,4.0,0.0
4590,83.0,71.0,90.0,4.0,0.0
4591,82.0,16.0,60.0,4.0,0.0
4592,80.0,23.0,20.0,4.0,0.0
4593,71.0,90.0,90.0,4.0,0.0
4594,82.0,44.0,20.0,4.0,0.0
4595,80.0,0.0,40.0,4.0,0.0
4596,78.0,0.0,90.0,4.0,0.0
4597,70.0,90.0,90.0,4.0,0.0
4598,77.0,0.0,180.0,5.0,0.0
4599,37.0,0.0,180.0,10.0,0.0
4600,71.0,17.0,150.0,6.0,0.0
4601,71.0,54.0,90.0,4.0,0.0
4602,80.0,0.0,90.0,4.0,0.0
4603,49.0,0.0,180.0,8.0,0.0
4604,73.0,0.0,90.0,4.0,0.0
4605,82.0,19.0,60.0,4.0,0.0
4606,80.0,0.0,180.0,4.0,0.0
4607,66.0,0.0,360.0,4.0,0.0
4608,71.0,144.0,180.0,6.0,0.0
4609,71.0,0.0,180.0,4.0,0.0
4610,73.0,0.0,15.0,7.0,0.0
4611,42.0,0.0,360.0,10.0,0.0
4612,77.0,0.0,180.0,5.0,0.0
4613,54.0,0.0,360.0,8.0,0.0
4614,78.0,36.0,150.0,4.0,0.0
4615,70.0,0.0,180.0,4.0,0.0
4616,78.0,90.0,180.0,5.0,0.0
4617,70.0,0.0,150.0,6.0,0.0
4618,75.0,90.0,90.0,1.0,0.0
4619,78.0,0.0,90.0,1.0,0.0
4620,76.0,90.0,90.0,1.0,0.0
4621,80.0,0.0,90.0,1.0,0.0
4622,81.0,71.0,90.0,1.0,0.0
4623,78.0,0.0,90.0,1.0,0.0
4624,75.0,0.0,60.0,1.0,0.0
4625,78.0,109.0,60.0,1.0,0.0
4626,73.0,0.0,90.0,1.0,0.0
4627,76.0,71.0,90.0,1.0,0.0
4628,68.0,0.0,180.0,2.0,0.0
4629,91.0,0.0,90.0,0.0,0.0
4630,92.0,19.0,60.0,0.0,0.0
4631,75.0,0.0,90.0,1.0,0.0
4632,72.0,180.0,15.0,1.0,0.0
4633,56.0,0.0,180.0,2.0,0.0
4634,92.0,0.0,180.0,0.0,0.0
4635,75.0,0.0,180.0,1.0,0.0
4636,72.0,0.0,90.0,1.0,0.0
4637,80.0,90.0,90.0,1.0,0.0
4638,70.0,90.0,90.0,1.0,0.0
4639,79.0,0.0,90.0,1.0,0.0
4640,72.0,71.0,90.0,1.0,0.0
4641,80.0,0.0,90.0,1.0,0.0
4642,75.0,109.0,60.0,1.0,0.0
4643,72.0,0.0,60.0,1.0,0.0
4644,61.0,0.0,180.0,2.0,0.0
4645,78.0,71.0,90.0,1.0,0.0
4646,84.0,0.0,90.0,0.0,0.0
4647,75.0,0.0,90.0,1.0,0.0
4648,85.0,19.0,60.0,0.0,0.0
4649,73.0,0.0,15.0,1.0,0.0
4650,76.0,180.0,15.0,1.0,0.0
4651,85.0,90.0,180.0,0.0,0.0
4652,49.0,0.0,180.0,2.0,0.0
4653,76.0,90.0,90.0,1.0,0.0
4654,61.0,0.0,90.0,2.0,0.0
4655,78.0,0.0,90.0,1.0,0.0
4656,63.0,90.0,90.0,2.0,0.0
4657,46.0,0.0,180.0,10.0,0.0
4658,58.0,0.0,180.0,2.0,0.0
4659,80.0,0.0,90.0,1.0,0.0
4660,64.0,71.0,90.0,2.0,0.0
4661,66.0,0.0,180.0,3.0,0.0
4662,73.0,0.0,180.0,3.0,0.0
4663,58.0,0.0,180.0,8.0,0.0
4664,76.0,19.0,60.0,1.0,0.0
4665,61.0,90.0,90.0,2.0,0.0
4666,75.0,90.0,90.0,1.0,0.0
4667,59.0,0.0,90.0,2.0,0.0
4668,61.0,90.0,90.0,2.0,0.0
4669,76.0,0.0,90.0,1.0,0.0
4670,71.0,90.0,180.0,3.0,0.0
4671,59.0,0.0,180.0,2.0,0.0
4672,75.0,0.0,180.0,3.0,0.0
4673,78.0,90.0,90.0,1.0,0.0
4674,63.0,0.0,90.0,2.0,0.0
4675,59.0,0.0,180.0,8.0,0.0
4676,47.0,0.0,180.0,10.0,0.0
4677,75.0,0.0,90.0,1.0,0.0
4678,76.0,0.0,90.0,1.0,0.0
4679,64.0,0.0,90.0,2.0,0.0
4680,85.0,90.0,90.0,0.0,0.0
4681,73.0,0.0,90.0,1.0,0.0
4682,66.0,0.0,90.0,2.0,0.0
4683,78.0,0.0,90.0,1.0,0.0
4684,75.0,0.0,90.0,1.0,0.0
4685,87.0,90.0,90.0,0.0,0.0
4686,80.0,54.0,90.0,1.0,0.0
4687,76.0,0.0,90.0,1.0,0.0
4688,68.0,0.0,90.0,2.0,0.0
4689,52.0,17.0,150.0,2.0,0.0
4690,73.0,0.0,180.0,3.0,0.0
4691,52.0,0.0,180.0,8.0,0.0
4692,76.0,0.0,180.0,3.0,0.0
4693,88.0,0.0,90.0,0.0,0.0
4694,40.0,175.0,180.0,10.0,0.0
4695,64.0,0.0,60.0,2.0,0.0
4696,73.0,0.0,60.0,1.0,0.0
4697,76.0,19.0,60.0,1.0,0.0
4698,85.0,0.0,60.0,0.0,0.0
4699,54.0,1.0,360.0,8.0,0.0
4700,71.0,0.0,180.0,1.0,0.0
4701,42.0,0.0,360.0,10.0,0.0
4702,71.0,0.0,180.0,3.0,0.0
4703,63.0,0.0,180.0,2.0,0.0
4704,54.0,0.0,360.0,2.0,0.0
4705,75.0,0.0,180.0,3.0,0.0
4706,75.0,0.0,180.0,1.0,0.0
4707,83.0,147.0,180.0,0.0,0.0
4708,73.0,38.0,150.0,3.0,0.0
4709,66.0,0.0,150.0,3.0,0.0
4710,61.0,0.0,180.0,2.0,0.0
4711,82.0,0.0,180.0,0.0,0.0
4712,70.0,96.0,180.0,1.0,0.0
4713,73.0,0.0,180.0,1.0,0.0
4714,83.0,0.0,90.0,1.0,0.0
4715,95.0,101.0,90.0,0.0,0.0
4716,82.0,94.0,90.0,1.0,0.0
4717,94.0,0.0,90.0,0.0,0.0
4718,92.0,68.0,90.0,0.0,0.0
4719,80.0,0.0,90.0,1.0,0.0
4720,78.0,4.0,60.0,1.0,0.0
4721,90.0,98.0,60.0,0.0,0.0
4722,71.0,0.0,90.0,1.0,0.0
4723,77.0,0.0,90.0,1.0,0.0
4724,89.0,175.0,90.0,0.0,0.0
4725,68.0,0.0,90.0,2.0,0.0
4726,77.0,0.0,90.0,1.0,0.0
4727,68.0,0.0,90.0,2.0,0.0
4728,71.0,0.0,90.0,1.0,0.0
4729,89.0,175.0,90.0,0.0,0.0
4730,83.0,89.0,90.0,1.0,0.0
4731,71.0,0.0,90.0,2.0,0.0
4732,69.0,0.0,90.0,2.0,0.0
4733,81.0,89.0,90.0,1.0,0.0
4734,67.0,71.0,90.0,2.0,0.0
4735,79.0,0.0,90.0,1.0,0.0
4736,78.0,0.0,60.0,1.0,0.0
4737,66.0,107.0,60.0,2.0,0.0
4738,71.0,0.0,90.0,1.0,0.0
4739,59.0,0.0,90.0,3.0,0.0
4740,65.0,0.0,90.0,2.0,0.0
4741,55.0,0.0,90.0,2.0,0.0
4742,71.0,0.0,90.0,3.0,0.0
4743,77.0,180.0,90.0,1.0,0.0
4744,71.0,182.0,90.0,1.0,0.0
4745,55.0,0.0,90.0,2.0,0.0
4746,65.0,0.0,90.0,2.0,0.0
4747,59.0,0.0,90.0,3.0,0.0
4748,71.0,0.0,90.0,3.0,0.0
4749,77.0,0.0,90.0,1.0,0.0
4750,78.0,0.0,90.0,1.0,0.0
4751,66.0,88.0,90.0,2.0,0.0
4752,90.0,0.0,90.0,0.0,0.0
4753,88.0,89.0,90.0,0.0,0.0
4754,76.0,0.0,90.0,1.0,0.0
4755,64.0,0.0,90.0,2.0,0.0
4756,63.0,0.0,90.0,2.0,0.0
4757,75.0,71.0,90.0,1.0,0.0
4758,87.0,0.0,90.0,0.0,0.0
4759,61.0,199.0,60.0,2.0,0.0
4760,73.0,0.0,60.0,1.0,0.0
4761,85.0,0.0,60.0,0.0,0.0
4762,63.0,3.0,180.0,3.0,0.0
4763,54.0,0.0,180.0,2.0,0.0
4764,59.0,0.0,180.0,2.0,0.0
4765,71.0,0.0,15.0,1.0,0.0
4766,71.0,0.0,15.0,3.0,0.0
4767,42.0,0.0,15.0,10.0,0.0
4768,54.0,0.0,180.0,2.0,0.0
4769,59.0,0.0,180.0,2.0,0.0
4770,83.0,0.0,15.0,0.0,0.0
4771,63.0,2.0,180.0,3.0,0.0
4772,54.0,178.0,15.0,8.0,0.0
4773,54.0,0.0,180.0,2.0,0.0
4774,61.0,0.0,20.0,2.0,0.0
4775,42.0,0.0,15.0,10.0,0.0
4776,73.0,22.0,20.0,1.0,0.0
4777,73.0,0.0,20.0,3.0,0.0
4778,85.0,0.0,20.0,0.0,0.0
4779,66.0,0.0,180.0,3.0,0.0
4780,54.0,21.0,15.0,8.0,0.0
4781,63.0,0.0,20.0,2.0,0.0
4782,75.0,0.0,20.0,1.0,0.0
4783,87.0,47.0,20.0,0.0,0.0
4784,75.0,0.0,20.0,3.0,0.0
4785,73.0,90.0,40.0,3.0,0.0
4786,61.0,0.0,40.0,2.0,0.0
4787,85.0,0.0,40.0,0.0,0.0
4788,73.0,0.0,40.0,1.0,0.0
4789,71.0,0.0,90.0,1.0,0.0
4790,59.0,0.0,90.0,2.0,0.0
4791,71.0,0.0,90.0,3.0,0.0
4792,83.0,93.0,90.0,0.0,0.0
4793,54.0,0.0,180.0,8.0,0.0
4794,85.0,0.0,90.0,0.0,0.0
4795,42.0,0.0,180.0,10.0,0.0
4796,73.0,85.0,90.0,1.0,0.0
4797,73.0,0.0,90.0,3.0,0.0
4798,61.0,0.0,90.0,2.0,0.0
4799,54.0,0.0,180.0,2.0,0.0
4800,75.0,0.0,90.0,3.0,0.0
4801,66.0,0.0,15.0,3.0,0.0
4802,75.0,0.0,90.0,1.0,0.0
4803,87.0,184.0,90.0,0.0,0.0
4804,63.0,0.0,90.0,2.0,0.0
4805,47.0,1.0,360.0,8.0,0.0
4806,47.0,143.0,180.0,2.0,0.0
4807,71.0,0.0,330.0,3.0,0.0
4808,63.0,0.0,330.0,3.0,0.0
4809,59.0,89.0,360.0,2.0,0.0
4810,35.0,0.0,360.0,10.0,0.0
4811,71.0,0.0,330.0,1.0,0.0
4812,83.0,33.0,330.0,0.0,0.0
4813,78.0,90.0,90.0,4.0,0.0
4814,80.0,90.0,90.0,4.0,0.0
4815,81.0,90.0,90.0,4.0,0.0
4816,78.0,87.0,90.0,4.0,0.0
4817,87.0,0.0,360.0,5.0,0.0
4818,63.0,0.0,360.0,6.0,0.0
4819,60.0,90.0,360.0,7.0,0.0
4820,44.0,0.0,360.0,10.0,0.0
4821,76.0,93.0,90.0,4.0,0.0
4822,56.0,0.0,90.0,4.0,0.0
4823,56.0,0.0,360.0,8.0,0.0
4824,66.0,0.0,90.0,4.0,0.0
4825,75.0,90.0,15.0,4.0,0.0
4826,60.0,54.0,90.0,4.0,0.0
4827,66.0,0.0,90.0,4.0,0.0
4828,75.0,0.0,330.0,5.0,0.0
4829,68.0,0.0,720.0,7.0,0.0
4830,60.0,91.0,90.0,4.0,0.0
4831,48.0,34.0,330.0,10.0,0.0
4832,80.0,0.0,90.0,4.0,0.0
4833,60.0,2.0,330.0,8.0,0.0
4834,75.0,0.0,330.0,6.0,0.0
4835,68.0,0.0,90.0,4.0,0.0
4836,79.0,90.0,90.0,4.0,0.0
4837,80.0,53.0,90.0,4.0,0.0
4838,63.0,0.0,90.0,4.0,0.0
4839,68.0,0.0,90.0,4.0,0.0
4840,75.0,90.0,90.0,4.0,0.0
4841,61.0,1.0,360.0,8.0,0.0
4842,78.0,0.0,90.0,4.0,0.0
4843,61.0,90.0,90.0,4.0,0.0
4844,73.0,0.0,720.0,6.0,0.0
4845,76.0,91.0,360.0,5.0,0.0
4846,49.0,0.0,360.0,10.0,0.0
4847,68.0,0.0,90.0,4.0,0.0
4848,76.0,90.0,15.0,4.0,0.0
4849,64.0,90.0,90.0,4.0,0.0
4850,68.0,0.0,90.0,4.0,0.0
4851,58.0,36.0,330.0,8.0,0.0
4852,76.0,45.0,90.0,4.0,0.0
4853,58.0,0.0,360.0,4.0,0.0
4854,46.0,0.0,330.0,10.0,0.0
4855,76.0,90.0,360.0,5.0,0.0
4856,80.0,44.0,40.0,4.0,0.0
4857,78.0,45.0,40.0,4.0,0.0
4858,66.0,0.0,180.0,4.0,0.0
4859,61.0,0.0,180.0,4.0,0.0
4860,82.0,44.0,40.0,4.0,0.0
4861,80.0,45.0,40.0,4.0,0.0
4862,78.0,9.0,40.0,4.0,0.0
4863,76.0,0.0,40.0,4.0,0.0
4864,59.0,0.0,360.0,4.0,0.0
4865,75.0,45.0,90.0,4.0,0.0
4866,66.0,0.0,15.0,7.0,0.0
4867,75.0,0.0,360.0,5.0,0.0
4868,71.0,0.0,360.0,6.0,0.0
4869,47.0,45.0,360.0,10.0,0.0
4870,59.0,0.0,360.0,8.0,0.0
4871,78.0,45.0,40.0,4.0,0.0
4872,76.0,45.0,40.0,4.0,0.0
4873,80.0,45.0,40.0,4.0,0.0
4874,63.0,0.0,180.0,4.0,0.0
4875,66.0,0.0,180.0,4.0,0.0
4876,78.0,45.0,40.0,4.0,0.0
4877,76.0,45.0,40.0,4.0,0.0
4878,75.0,0.0,40.0,4.0,0.0
4879,80.0,0.0,330.0,5.0,0.0
4880,64.0,175.0,360.0,7.0,0.0
4881,52.0,36.0,330.0,8.0,0.0
4882,52.0,0.0,360.0,4.0,0.0
4883,40.0,2.0,330.0,10.0,0.0
4884,75.0,45.0,40.0,4.0,0.0
4885,68.0,0.0,330.0,6.0,0.0
4886,73.0,45.0,40.0,4.0,0.0
4887,76.0,42.0,40.0,4.0,0.0
4888,75.0,45.0,40.0,4.0,0.0
4889,78.0,45.0,40.0,4.0,0.0
4890,64.0,0.0,180.0,4.0,0.0
4891,76.0,45.0,40.0,4.0,0.0
4892,75.0,10.0,40.0,4.0,0.0
4893,73.0,0.0,40.0,4.0,0.0
4894,42.0,0.0,360.0,10.0,0.0
4895,71.0,149.0,180.0,5.0,0.0
4896,66.0,0.0,360.0,6.0,0.0
4897,54.0,45.0,360.0,8.0,0.0
4898,63.0,0.0,180.0,4.0,0.0
4899,54.0,0.0,360.0,4.0,0.0
4900,71.0,0.0,180.0,4.0,0.0
4901,63.0,0.0,180.0,7.0,0.0
4902,61.0,36.0,150.0,7.0,0.0
4903,70.0,0.0,180.0,4.0,0.0
4904,61.0,0.0,180.0,4.0,0.0
4905,70.0,0.0,150.0,5.0,0.0
4906,71.0,45.0,40.0,4.0,0.0
4907,73.0,45.0,40.0,4.0,0.0
4908,70.0,45.0,40.0,4.0,0.0
4909,71.0,45.0,40.0,4.0,0.0
4910,68.0,40.0,40.0,4.0,0.0
4911,70.0,45.0,40.0,4.0,0.0
4912,66.0,50.0,40.0,4.0,0.0
4913,68.0,87.0,60.0,4.0,0.0
4914,71.0,0.0,90.0,6.0,0.0
4915,83.0,87.0,90.0,5.0,0.0
4916,44.0,0.0,720.0,10.0,0.0
4917,65.0,0.0,180.0,4.0,0.0
4918,56.0,0.0,720.0,8.0,0.0
4919,70.0,93.0,90.0,6.0,0.0
4920,82.0,0.0,90.0,5.0,0.0
4921,80.0,71.0,90.0,5.0,0.0
4922,59.0,0.0,15.0,4.0,0.0
4923,56.0,0.0,15.0,4.0,0.0
4924,65.0,45.0,180.0,4.0,0.0
4925,68.0,0.0,90.0,6.0,0.0
4926,66.0,0.0,60.0,6.0,0.0
4927,78.0,22.0,60.0,5.0,0.0
4928,83.0,49.0,40.0,4.0,0.0
4929,77.0,45.0,180.0,5.0,0.0
4930,84.0,45.0,40.0,4.0,0.0
4931,81.0,52.0,40.0,4.0,0.0
4932,83.0,0.0,60.0,4.0,0.0
4933,79.0,48.0,40.0,4.0,0.0
4934,65.0,0.0,15.0,6.0,0.0
4935,77.0,98.0,180.0,5.0,0.0
4936,81.0,45.0,40.0,4.0,0.0
4937,78.0,31.0,40.0,4.0,0.0
4938,79.0,0.0,30.0,4.0,0.0
4939,55.0,0.0,690.0,8.0,0.0
4940,43.0,36.0,660.0,10.0,0.0
4941,67.0,0.0,180.0,4.0,0.0
4942,77.0,0.0,180.0,4.0,0.0
4943,71.0,0.0,90.0,6.0,0.0
4944,59.0,89.0,90.0,7.0,0.0
4945,57.0,0.0,90.0,7.0,0.0
4946,69.0,0.0,90.0,6.0,0.0
4947,77.0,0.0,180.0,4.0,0.0
4948,67.0,178.0,180.0,4.0,0.0
4949,71.0,88.0,15.0,4.0,0.0
4950,67.0,87.0,90.0,6.0,0.0
4951,55.0,0.0,90.0,7.0,0.0
4952,66.0,0.0,90.0,6.0,0.0
4953,54.0,0.0,90.0,7.0,0.0
4954,65.0,0.0,180.0,6.0,0.0
4955,53.0,144.0,15.0,7.0,0.0
4956,65.0,405.0,180.0,6.0,0.0
4957,78.0,0.0,90.0,1.0,0.0
4958,66.0,45.0,90.0,2.0,0.0
4959,90.0,45.0,40.0,4.0,0.0
4960,90.0,0.0,90.0,0.0,0.0
4961,92.0,0.0,40.0,4.0,0.0
4962,88.0,45.0,40.0,4.0,0.0
4963,64.0,0.0,90.0,2.0,0.0
4964,88.0,0.0,90.0,0.0,0.0
4965,76.0,0.0,90.0,1.0,0.0
4966,90.0,45.0,40.0,4.0,0.0
4967,63.0,45.0,90.0,2.0,0.0
4968,87.0,0.0,90.0,0.0,0.0
4969,87.0,45.0,40.0,4.0,0.0
4970,75.0,0.0,90.0,1.0,0.0
4971,88.0,0.0,40.0,4.0,0.0
4972,85.0,26.0,40.0,4.0,0.0
4973,61.0,0.0,60.0,2.0,0.0
4974,73.0,19.0,60.0,1.0,0.0
4975,85.0,0.0,60.0,0.0,0.0
4976,87.0,90.0,40.0,4.0,0.0
4977,83.0,90.0,180.0,4.0,0.0
4978,83.0,0.0,180.0,0.0,0.0
4979,66.0,90.0,90.0,4.0,0.0
4980,71.0,0.0,180.0,3.0,0.0
4981,75.0,0.0,90.0,4.0,0.0
4982,59.0,0.0,15.0,2.0,0.0
4983,42.0,0.0,15.0,10.0,0.0
4984,54.0,0.0,15.0,8.0,0.0
4985,63.0,0.0,15.0,3.0,0.0
4986,71.0,0.0,180.0,3.0,0.0
4987,83.0,0.0,180.0,0.0,0.0
4988,71.0,0.0,15.0,1.0,0.0
4989,83.0,0.0,180.0,4.0,0.0
4990,71.0,90.0,90.0,4.0,0.0
4991,75.0,0.0,90.0,4.0,0.0
4992,61.0,0.0,20.0,2.0,0.0
4993,66.0,0.0,180.0,3.0,0.0
4994,73.0,0.0,20.0,3.0,0.0
4995,73.0,0.0,20.0,1.0,0.0
4996,85.0,0.0,20.0,4.0,0.0
4997,54.0,22.0,15.0,8.0,0.0
4998,66.0,90.0,90.0,4.0,0.0
4999,85.0,23.0,20.0,0.0,0.0
5000,75.0,45.0,20.0,1.0,0.0
5001,63.0,0.0,20.0,2.0,0.0
5002,75.0,0.0,20.0,3.0,0.0
5003,87.0,0.0,20.0,4.0,0.0
5004,87.0,0.0,20.0,0.0,0.0
5005,73.0,0.0,40.0,3.0,0.0
5006,85.0,0.0,40.0,4.0,0.0
5007,73.0,0.0,40.0,1.0,0.0
5008,61.0,0.0,40.0,2.0,0.0
5009,85.0,0.0,40.0,0.0,0.0
5010,71.0,0.0,90.0,1.0,0.0
5011,59.0,0.0,90.0,2.0,0.0
5012,83.0,0.0,90.0,0.0,0.0
5013,83.0,91.0,90.0,4.0,0.0
5014,71.0,0.0,90.0,3.0,0.0
5015,76.0,0.0,90.0,4.0,0.0
5016,85.0,72.0,90.0,4.0,0.0
5017,85.0,0.0,90.0,0.0,0.0
5018,73.0,0.0,90.0,1.0,0.0
5019,54.0,0.0,180.0,8.0,0.0
5020,73.0,0.0,90.0,3.0,0.0
5021,70.0,0.0,90.0,4.0,0.0
5022,61.0,0.0,90.0,2.0,0.0
5023,42.0,0.0,15.0,10.0,0.0
5024,87.0,17.0,60.0,0.0,0.0
5025,75.0,0.0,90.0,3.0,0.0
5026,76.0,0.0,90.0,4.0,0.0
5027,87.0,0.0,90.0,4.0,0.0
5028,66.0,0.0,15.0,3.0,0.0
5029,63.0,0.0,90.0,2.0,0.0
5030,75.0,180.0,90.0,1.0,0.0
5031,47.0,0.0,180.0,8.0,0.0
5032,71.0,88.0,360.0,1.0,0.0
5033,83.0,0.0,360.0,0.0,0.0
5034,35.0,0.0,180.0,10.0,0.0
5035,63.0,0.0,360.0,3.0,0.0
5036,71.0,0.0,360.0,3.0,0.0
5037,59.0,0.0,360.0,2.0,0.0
5038,83.0,0.0,360.0,4.0,0.0
5039,71.0,180.0,180.0,4.0,0.0
5040,75.0,0.0,180.0,4.0,0.0
5041,59.0,0.0,180.0,4.0,0.0
5042,78.0,180.0,90.0,5.0,0.0
5043,78.0,137.0,90.0,5.0,0.0
5044,47.0,0.0,720.0,10.0,0.0
5045,66.0,0.0,1440.0,7.0,0.0
5046,47.0,45.0,40.0,4.0,0.0
5047,90.0,0.0,40.0,4.0,0.0
5048,59.0,0.0,720.0,8.0,0.0
5049,78.0,44.0,180.0,5.0,0.0
5050,74.0,0.0,720.0,6.0,0.0
5051,59.0,45.0,40.0,4.0,0.0
5052,86.0,0.0,40.0,4.0,0.0
5053,83.0,45.0,40.0,4.0,0.0
5054,58.0,0.0,40.0,4.0,0.0
5055,78.0,0.0,40.0,4.0,0.0
5056,59.0,1.0,40.0,4.0,0.0
5057,61.0,0.0,40.0,4.0,0.0
5058,90.0,28.0,40.0,4.0,0.0
5059,74.0,17.0,60.0,5.0,0.0
5060,78.0,45.0,40.0,4.0,0.0
5061,59.0,0.0,40.0,4.0,0.0
5062,58.0,0.0,40.0,4.0,0.0
5063,90.0,45.0,40.0,4.0,0.0
5064,78.0,45.0,40.0,4.0,0.0
5065,59.0,0.0,40.0,4.0,0.0
5066,90.0,0.0,40.0,4.0,0.0
5067,47.0,45.0,40.0,4.0,0.0
5068,78.0,44.0,90.0,5.0,0.0
5069,86.0,1.0,40.0,4.0,0.0
5070,59.0,0.0,40.0,4.0,0.0
5071,58.0,0.0,40.0,4.0,0.0
5072,83.0,45.0,40.0,4.0,0.0
5073,78.0,45.0,40.0,4.0,0.0
5074,59.0,0.0,40.0,4.0,0.0
5075,78.0,17.0,90.0,5.0,0.0
5076,61.0,28.0,40.0,4.0,0.0
5077,90.0,0.0,40.0,4.0,0.0
5078,59.0,0.0,40.0,4.0,0.0
5079,78.0,45.0,40.0,4.0,0.0
5080,90.0,45.0,40.0,4.0,0.0
5081,58.0,0.0,40.0,4.0,0.0
5082,78.0,0.0,40.0,4.0,0.0
5083,59.0,45.0,40.0,4.0,0.0
5084,78.0,5.0,180.0,5.0,0.0
5085,58.0,45.0,360.0,8.0,0.0
5086,46.0,0.0,360.0,10.0,0.0
5087,73.0,5.0,660.0,6.0,0.0
5088,46.0,45.0,40.0,4.0,0.0
5089,90.0,0.0,40.0,4.0,0.0
5090,58.0,45.0,40.0,4.0,0.0
5091,85.0,0.0,40.0,4.0,0.0
5092,82.0,40.0,40.0,4.0,0.0
5093,56.0,0.0,40.0,4.0,0.0
5094,78.0,45.0,40.0,4.0,0.0
5095,58.0,0.0,40.0,4.0,0.0
5096,73.0,23.0,60.0,5.0,0.0
5097,90.0,22.0,40.0,4.0,0.0
5098,59.0,0.0,40.0,4.0,0.0
5099,78.0,0.0,40.0,4.0,0.0
5100,58.0,45.0,40.0,4.0,0.0
5101,56.0,0.0,40.0,4.0,0.0
5102,90.0,45.0,40.0,4.0,0.0
5103,58.0,0.0,40.0,4.0,0.0
5104,78.0,0.0,40.0,4.0,0.0
5105,45.0,0.0,360.0,10.0,0.0
5106,90.0,43.0,40.0,4.0,0.0
5107,45.0,0.0,40.0,4.0,0.0
5108,57.0,0.0,360.0,8.0,0.0
5109,78.0,2.0,90.0,5.0,0.0
5110,85.0,45.0,40.0,4.0,0.0
5111,57.0,0.0,40.0,4.0,0.0
5112,81.0,0.0,40.0,4.0,0.0
5113,56.0,45.0,40.0,4.0,0.0
5114,57.0,0.0,40.0,4.0,0.0
5115,78.0,45.0,40.0,4.0,0.0
5116,78.0,13.0,90.0,5.0,0.0
5117,90.0,32.0,40.0,4.0,0.0
5118,59.0,0.0,40.0,4.0,0.0
5119,57.0,0.0,40.0,4.0,0.0
5120,78.0,40.0,40.0,4.0,0.0
5121,56.0,0.0,40.0,4.0,0.0
5122,90.0,45.0,40.0,4.0,0.0
5123,78.0,45.0,40.0,4.0,0.0
5124,57.0,0.0,40.0,4.0,0.0
5125,71.0,45.0,720.0,6.0,0.0
5126,78.0,0.0,360.0,5.0,0.0
5127,44.0,45.0,40.0,4.0,0.0
5128,44.0,0.0,360.0,10.0,0.0
5129,56.0,0.0,360.0,8.0,0.0
5130,90.0,0.0,40.0,4.0,0.0
5131,62.0,45.0,360.0,7.0,0.0
5132,86.0,45.0,40.0,4.0,0.0
5133,56.0,0.0,40.0,4.0,0.0
5134,83.0,45.0,40.0,4.0,0.0
5135,54.0,0.0,40.0,4.0,0.0
5136,78.0,0.0,40.0,4.0,0.0
5137,56.0,45.0,40.0,4.0,0.0
5138,90.0,45.0,40.0,4.0,0.0
5139,57.0,0.0,40.0,4.0,0.0
5140,56.0,0.0,40.0,4.0,0.0
5141,78.0,45.0,40.0,4.0,0.0
5142,90.0,0.0,40.0,4.0,0.0
5143,54.0,45.0,40.0,4.0,0.0
5144,56.0,0.0,40.0,4.0,0.0
5145,78.0,0.0,40.0,4.0,0.0
5146,43.0,2.0,300.0,10.0,0.0
5147,77.0,12.0,270.0,5.0,0.0
5148,55.0,36.0,330.0,8.0,0.0
5149,89.0,45.0,40.0,4.0,0.0
5150,43.0,0.0,40.0,4.0,0.0
5151,59.0,0.0,300.0,7.0,0.0
5152,86.0,45.0,40.0,4.0,0.0
5153,55.0,0.0,40.0,4.0,0.0
5154,83.0,45.0,40.0,4.0,0.0
5155,54.0,0.0,40.0,4.0,0.0
5156,77.0,45.0,40.0,4.0,0.0
5157,55.0,0.0,40.0,4.0,0.0
5158,89.0,33.0,40.0,4.0,0.0
5159,57.0,0.0,40.0,4.0,0.0
5160,77.0,0.0,40.0,4.0,0.0
5161,55.0,43.0,40.0,4.0,0.0
5162,78.0,0.0,90.0,5.0,0.0
5163,89.0,0.0,40.0,4.0,0.0
5164,54.0,9.0,40.0,4.0,0.0
5165,55.0,0.0,40.0,4.0,0.0
5166,77.0,0.0,40.0,4.0,0.0
5167,54.0,0.0,1620.0,3.0,0.0
5168,42.0,0.0,180.0,10.0,0.0
5169,66.0,0.0,1620.0,3.0,0.0
5170,61.0,0.0,180.0,7.0,0.0
5171,78.0,35.0,150.0,5.0,0.0
5172,78.0,45.0,40.0,4.0,0.0
5173,42.0,0.0,180.0,4.0,0.0
5174,54.0,0.0,180.0,8.0,0.0
5175,70.0,5.0,180.0,6.0,0.0
5176,82.0,45.0,40.0,4.0,0.0
5177,85.0,5.0,40.0,4.0,0.0
5178,90.0,45.0,40.0,4.0,0.0
5179,78.0,45.0,40.0,4.0,0.0
5180,90.0,45.0,40.0,4.0,0.0
5181,78.0,45.0,40.0,4.0,0.0
5182,90.0,45.0,40.0,4.0,0.0
5183,66.0,0.0,180.0,6.0,0.0
5184,59.0,0.0,180.0,7.0,0.0
5185,78.0,45.0,180.0,5.0,0.0
5186,78.0,0.0,40.0,4.0,0.0
5187,47.0,45.0,40.0,4.0,0.0
5188,59.0,45.0,40.0,4.0,0.0
5189,90.0,0.0,40.0,4.0,0.0
5190,78.0,0.0,40.0,4.0,0.0
5191,58.0,45.0,40.0,4.0,0.0
5192,59.0,0.0,40.0,4.0,0.0
5193,90.0,0.0,40.0,4.0,0.0
5194,78.0,45.0,180.0,1.0,0.0
5195,71.0,0.0,150.0,6.0,0.0
5196,66.0,0.0,180.0,2.0,0.0
5197,66.0,36.0,150.0,7.0,0.0
5198,62.0,0.0,15.0,7.0,0.0
5199,50.0,0.0,180.0,10.0,0.0
5200,62.0,0.0,180.0,8.0,0.0
5201,78.0,0.0,40.0,4.0,0.0
5202,50.0,45.0,40.0,4.0,0.0
5203,83.0,0.0,150.0,5.0,0.0
5204,90.0,0.0,180.0,0.0,0.0
5205,90.0,0.0,40.0,4.0,0.0
5206,62.0,45.0,40.0,4.0,0.0
5207,78.0,0.0,40.0,4.0,0.0
5208,61.0,9.0,40.0,4.0,0.0
5209,62.0,0.0,40.0,4.0,0.0
5210,90.0,0.0,40.0,4.0,0.0
5211,78.0,0.0,40.0,4.0,0.0
5212,61.0,0.0,180.0,8.0,0.0
5213,49.0,45.0,40.0,4.0,0.0
5214,61.0,44.0,360.0,7.0,0.0
5215,64.0,0.0,360.0,7.0,0.0
5216,82.0,0.0,180.0,5.0,0.0
5217,70.0,0.0,180.0,6.0,0.0
5218,49.0,0.0,180.0,10.0,0.0
5219,67.0,45.0,180.0,2.0,0.0
5220,79.0,0.0,180.0,1.0,0.0
5221,91.0,0.0,180.0,0.0,0.0
5222,61.0,45.0,40.0,4.0,0.0
5223,90.0,0.0,40.0,4.0,0.0
5224,78.0,45.0,40.0,4.0,0.0
5225,60.0,0.0,40.0,4.0,0.0
5226,90.0,0.0,40.0,4.0,0.0
5227,61.0,0.0,40.0,4.0,0.0
5228,42.0,0.0,150.0,10.0,0.0
5229,54.0,2.0,150.0,8.0,0.0
5230,42.0,0.0,40.0,4.0,0.0
5231,66.0,34.0,150.0,2.0,0.0
5232,78.0,45.0,40.0,4.0,0.0
5233,90.0,0.0,150.0,0.0,0.0
5234,78.0,0.0,150.0,1.0,0.0
5235,54.0,0.0,40.0,4.0,0.0
5236,90.0,45.0,40.0,4.0,0.0
5237,78.0,9.0,40.0,4.0,0.0
5238,53.0,0.0,40.0,4.0,0.0
5239,90.0,1.0,40.0,4.0,0.0
5240,54.0,0.0,40.0,4.0,0.0
5241,78.0,45.0,40.0,4.0,0.0
5242,47.0,0.0,40.0,4.0,0.0
5243,59.0,0.0,360.0,7.0,0.0
5244,78.0,0.0,90.0,5.0,0.0
5245,62.0,45.0,180.0,7.0,0.0
5246,66.0,45.0,90.0,6.0,0.0
5247,90.0,0.0,40.0,4.0,0.0
5248,59.0,0.0,40.0,4.0,0.0
5249,71.0,0.0,90.0,6.0,0.0
5250,78.0,45.0,40.0,4.0,0.0
5251,58.0,0.0,40.0,4.0,0.0
5252,83.0,0.0,90.0,5.0,0.0
5253,90.0,0.0,40.0,4.0,0.0
5254,59.0,0.0,40.0,4.0,0.0
5255,86.0,0.0,90.0,5.0,0.0
5256,50.0,45.0,180.0,10.0,0.0
5257,90.0,0.0,180.0,0.0,0.0
5258,78.0,0.0,180.0,1.0,0.0
5259,66.0,0.0,180.0,2.0,0.0
5260,66.0,0.0,180.0,7.0,0.0
5261,62.0,0.0,180.0,8.0,0.0
5262,78.0,45.0,40.0,4.0,0.0
5263,74.0,45.0,90.0,6.0,0.0
5264,50.0,0.0,40.0,4.0,0.0
5265,90.0,0.0,40.0,4.0,0.0
5266,62.0,0.0,40.0,4.0,0.0
5267,78.0,45.0,40.0,4.0,0.0
5268,71.0,0.0,90.0,6.0,0.0
5269,61.0,0.0,40.0,4.0,0.0
5270,83.0,0.0,90.0,5.0,0.0
5271,90.0,0.0,40.0,4.0,0.0
5272,62.0,0.0,40.0,4.0,0.0
5273,91.0,0.0,180.0,0.0,0.0
5274,49.0,0.0,40.0,4.0,0.0
5275,78.0,45.0,40.0,4.0,0.0
5276,79.0,45.0,180.0,1.0,0.0
5277,49.0,0.0,180.0,10.0,0.0
5278,82.0,0.0,150.0,5.0,0.0
5279,61.0,0.0,360.0,7.0,0.0
5280,64.0,0.0,360.0,7.0,0.0
5281,70.0,36.0,150.0,6.0,0.0
5282,67.0,0.0,180.0,2.0,0.0
5283,61.0,0.0,180.0,8.0,0.0
5284,90.0,0.0,40.0,4.0,0.0
5285,61.0,45.0,40.0,4.0,0.0
5286,60.0,0.0,40.0,4.0,0.0
5287,78.0,9.0,40.0,4.0,0.0
5288,61.0,0.0,40.0,4.0,0.0
5289,90.0,0.0,40.0,4.0,0.0
5290,90.0,0.0,150.0,0.0,0.0
5291,66.0,0.0,150.0,2.0,0.0
5292,78.0,0.0,40.0,4.0,0.0
5293,42.0,0.0,150.0,10.0,0.0
5294,54.0,0.0,150.0,8.0,0.0
5295,78.0,36.0,150.0,1.0,0.0
5296,42.0,45.0,40.0,4.0,0.0
5297,90.0,0.0,40.0,4.0,0.0
5298,54.0,45.0,40.0,4.0,0.0
5299,78.0,9.0,40.0,4.0,0.0
5300,53.0,0.0,40.0,4.0,0.0
5301,90.0,0.0,40.0,4.0,0.0
5302,54.0,45.0,40.0,4.0,0.0
5303,59.0,0.0,180.0,8.0,0.0
5304,71.0,0.0,180.0,6.0,0.0
5305,47.0,0.0,180.0,10.0,0.0
5306,62.0,0.0,180.0,7.0,0.0
5307,59.0,0.0,180.0,7.0,0.0
5308,47.0,45.0,40.0,4.0,0.0
5309,78.0,0.0,40.0,4.0,0.0
5310,83.0,0.0,180.0,5.0,0.0
5311,59.0,45.0,40.0,4.0,0.0
5312,90.0,0.0,40.0,4.0,0.0
5313,78.0,0.0,40.0,4.0,0.0
5314,57.0,45.0,40.0,4.0,0.0
5315,90.0,45.0,40.0,4.0,0.0
5316,59.0,0.0,40.0,4.0,0.0
5317,57.0,45.0,180.0,7.0,0.0
5318,60.0,0.0,180.0,8.0,0.0
5319,48.0,0.0,180.0,10.0,0.0
5320,75.0,0.0,180.0,5.0,0.0
5321,63.0,0.0,180.0,6.0,0.0
5322,78.0,45.0,40.0,4.0,0.0
5323,48.0,0.0,40.0,4.0,0.0
5324,90.0,45.0,40.0,4.0,0.0
5325,60.0,0.0,40.0,4.0,0.0
5326,78.0,0.0,40.0,4.0,0.0
5327,59.0,45.0,40.0,4.0,0.0
5328,90.0,0.0,40.0,4.0,0.0
5329,60.0,0.0,40.0,4.0,0.0
5330,47.0,45.0,40.0,4.0,0.0
5331,59.0,0.0,180.0,8.0,0.0
5332,79.0,0.0,40.0,4.0,0.0
5333,64.0,0.0,180.0,6.0,0.0
5334,47.0,0.0,180.0,10.0,0.0
5335,59.0,0.0,180.0,7.0,0.0
5336,76.0,0.0,180.0,5.0,0.0
5337,59.0,0.0,40.0,4.0,0.0
5338,91.0,45.0,40.0,4.0,0.0
5339,79.0,45.0,40.0,4.0,0.0
5340,58.0,0.0,40.0,4.0,0.0
5341,59.0,0.0,40.0,4.0,0.0
5342,91.0,45.0,40.0,4.0,0.0
5343,46.0,0.0,150.0,10.0,0.0
5344,77.0,0.0,150.0,5.0,0.0
5345,58.0,3.0,150.0,8.0,0.0
5346,62.0,33.0,150.0,7.0,0.0
5347,80.0,0.0,40.0,4.0,0.0
5348,46.0,45.0,40.0,4.0,0.0
5349,65.0,0.0,150.0,6.0,0.0
5350,58.0,0.0,40.0,4.0,0.0
5351,92.0,45.0,40.0,4.0,0.0
5352,80.0,9.0,40.0,4.0,0.0
5353,57.0,0.0,40.0,4.0,0.0
5354,92.0,0.0,40.0,4.0,0.0
5355,58.0,45.0,40.0,4.0,0.0
5356,57.0,2.0,90.0,8.0,0.0
5357,81.0,0.0,40.0,4.0,0.0
5358,45.0,43.0,40.0,4.0,0.0
5359,78.0,0.0,270.0,5.0,0.0
5360,62.0,0.0,270.0,7.0,0.0
5361,66.0,36.0,270.0,6.0,0.0
5362,45.0,44.0,90.0,10.0,0.0
5363,57.0,0.0,40.0,4.0,0.0
5364,93.0,1.0,40.0,4.0,0.0
5365,81.0,0.0,40.0,4.0,0.0
5366,56.0,45.0,40.0,4.0,0.0
5367,93.0,45.0,40.0,4.0,0.0
5368,57.0,0.0,40.0,4.0,0.0
5369,81.0,0.0,40.0,4.0,0.0
5370,45.0,43.0,40.0,4.0,0.0
5371,57.0,2.0,90.0,8.0,0.0
5372,45.0,4.0,90.0,10.0,0.0
5373,57.0,0.0,40.0,4.0,0.0
5374,93.0,5.0,40.0,4.0,0.0
5375,81.0,0.0,40.0,4.0,0.0
5376,56.0,9.0,40.0,4.0,0.0
5377,64.0,0.0,40.0,7.0,0.0
5378,79.0,0.0,40.0,5.0,0.0
5379,67.0,36.0,40.0,6.0,0.0
5380,57.0,0.0,40.0,4.0,0.0
5381,93.0,0.0,40.0,4.0,0.0
5382,64.0,0.0,40.0,6.0,0.0
5383,61.0,0.0,40.0,7.0,0.0
5384,76.0,180.0,40.0,5.0,0.0
5385,50.0,0.0,180.0,8.0,0.0
5386,50.0,0.0,180.0,4.0,0.0
5387,86.0,8.0,180.0,4.0,0.0
5388,62.0,172.0,180.0,6.0,0.0
5389,74.0,0.0,180.0,5.0,0.0
5390,38.0,0.0,180.0,10.0,0.0
5391,62.0,0.0,180.0,7.0,0.0
5392,62.0,4.0,180.0,8.0,0.0
5393,50.0,176.0,180.0,10.0,0.0
5394,78.0,0.0,180.0,6.0,0.0
5395,81.0,180.0,15.0,5.0,0.0
5396,78.0,45.0,180.0,6.0,0.0
5397,74.0,0.0,360.0,7.0,0.0
5398,93.0,45.0,40.0,4.0,0.0
5399,50.0,0.0,360.0,10.0,0.0
5400,81.0,5.0,450.0,5.0,0.0
5401,78.0,0.0,360.0,6.0,0.0
5402,50.0,0.0,40.0,4.0,0.0
5403,62.0,0.0,360.0,8.0,0.0
5404,54.0,45.0,40.0,4.0,0.0
5405,90.0,0.0,40.0,4.0,0.0
5406,57.0,45.0,40.0,4.0,0.0
5407,86.0,0.0,40.0,4.0,0.0
5408,81.0,45.0,40.0,4.0,0.0
5409,62.0,0.0,40.0,4.0,0.0
5410,93.0,45.0,40.0,4.0,0.0
5411,50.0,0.0,40.0,4.0,0.0
5412,81.0,0.0,40.0,4.0,0.0
5413,62.0,45.0,40.0,4.0,0.0
5414,50.0,0.0,40.0,4.0,0.0
5415,93.0,45.0,40.0,4.0,0.0
5416,81.0,45.0,40.0,4.0,0.0
5417,62.0,0.0,40.0,4.0,0.0
5418,71.0,0.0,180.0,7.0,0.0
5419,59.0,0.0,180.0,8.0,0.0
5420,47.0,0.0,180.0,10.0,0.0
5421,74.0,13.0,270.0,6.0,0.0
5422,86.0,0.0,40.0,4.0,0.0
5423,47.0,40.0,40.0,4.0,0.0
5424,83.0,45.0,40.0,4.0,0.0
5425,50.0,0.0,40.0,4.0,0.0
5426,80.0,9.0,90.0,5.0,0.0
5427,80.0,0.0,40.0,4.0,0.0
5428,56.0,36.0,40.0,4.0,0.0
5429,59.0,0.0,40.0,4.0,0.0
5430,74.0,45.0,40.0,4.0,0.0
5431,68.0,3.0,150.0,7.0,0.0
5432,83.0,0.0,90.0,5.0,0.0
5433,44.0,0.0,150.0,10.0,0.0
5434,56.0,5.0,150.0,8.0,0.0
5435,86.0,32.0,40.0,4.0,0.0
5436,47.0,0.0,40.0,4.0,0.0
5437,74.0,42.0,40.0,4.0,0.0
5438,59.0,0.0,40.0,4.0,0.0
5439,80.0,0.0,60.0,5.0,0.0
5440,71.0,31.0,60.0,6.0,0.0
5441,86.0,9.0,40.0,4.0,0.0
5442,47.0,0.0,40.0,4.0,0.0
5443,59.0,45.0,40.0,4.0,0.0
5444,74.0,0.0,40.0,4.0,0.0
5445,69.0,5.0,180.0,6.0,0.0
5446,49.0,3.0,360.0,10.0,0.0
5447,73.0,0.0,360.0,7.0,0.0
5448,78.0,0.0,180.0,5.0,0.0
5449,49.0,45.0,180.0,4.0,0.0
5450,61.0,0.0,360.0,8.0,0.0
5451,73.0,45.0,40.0,4.0,0.0
5452,78.0,45.0,40.0,4.0,0.0
5453,81.0,40.0,40.0,4.0,0.0
5454,78.0,0.0,40.0,4.0,0.0
5455,77.0,35.0,150.0,5.0,0.0
5456,68.0,0.0,180.0,6.0,0.0
5457,73.0,45.0,40.0,4.0,0.0
5458,77.0,45.0,40.0,4.0,0.0
5459,80.0,7.0,40.0,4.0,0.0
5460,77.0,45.0,40.0,4.0,0.0
5461,66.0,0.0,360.0,7.0,0.0
5462,73.0,0.0,360.0,6.0,0.0
5463,81.0,0.0,360.0,6.0,0.0
5464,42.0,0.0,360.0,10.0,0.0
5465,85.0,0.0,540.0,5.0,0.0
5466,73.0,0.0,360.0,5.0,0.0
5467,42.0,0.0,40.0,4.0,0.0
5468,73.0,45.0,40.0,4.0,0.0
5469,54.0,0.0,360.0,8.0,0.0
5470,78.0,45.0,40.0,4.0,0.0
5471,54.0,0.0,40.0,4.0,0.0
5472,53.0,45.0,40.0,4.0,0.0
5473,81.0,0.0,40.0,4.0,0.0
5474,54.0,45.0,40.0,4.0,0.0
5475,85.0,0.0,40.0,4.0,0.0
5476,73.0,45.0,40.0,4.0,0.0
5477,45.0,0.0,40.0,4.0,0.0
5478,85.0,0.0,40.0,4.0,0.0
5479,57.0,45.0,40.0,4.0,0.0
5480,56.0,0.0,40.0,4.0,0.0
5481,73.0,45.0,40.0,4.0,0.0
5482,85.0,0.0,40.0,4.0,0.0
5483,57.0,45.0,40.0,4.0,0.0
5484,49.0,0.0,360.0,4.0,0.0
5485,61.0,0.0,360.0,4.0,0.0
5486,73.0,45.0,40.0,4.0,0.0
5487,81.0,43.0,180.0,6.0,0.0
5488,85.0,45.0,40.0,4.0,0.0
5489,73.0,45.0,40.0,4.0,0.0
5490,85.0,2.0,40.0,4.0,0.0
5491,73.0,45.0,40.0,4.0,0.0
5492,80.0,43.0,90.0,6.0,0.0
5493,83.0,0.0,90.0,5.0,0.0
5494,85.0,2.0,40.0,4.0,0.0
5495,73.0,29.0,40.0,4.0,0.0
5496,81.0,16.0,60.0,5.0,0.0
5497,78.0,0.0,60.0,6.0,0.0
5498,85.0,45.0,40.0,4.0,0.0
5499,73.0,45.0,40.0,4.0,0.0
5500,61.0,0.0,180.0,8.0,0.0
5501,73.0,0.0,90.0,6.0,0.0
5502,81.0,44.0,90.0,5.0,0.0
5503,49.0,44.0,180.0,10.0,0.0
5504,85.0,1.0,40.0,4.0,0.0
5505,73.0,28.0,40.0,4.0,0.0
5506,80.0,0.0,60.0,5.0,0.0
5507,71.0,17.0,60.0,6.0,0.0
5508,85.0,1.0,40.0,4.0,0.0
5509,73.0,0.0,40.0,4.0,0.0
5510,49.0,0.0,180.0,8.0,0.0
5511,73.0,0.0,15.0,7.0,0.0
5512,78.0,0.0,40.0,5.0,0.0
5513,69.0,45.0,40.0,6.0,0.0
5514,37.0,0.0,180.0,10.0,0.0
5515,85.0,43.0,40.0,4.0,0.0
5516,73.0,45.0,40.0,4.0,0.0
5517,77.0,0.0,40.0,5.0,0.0
5518,68.0,2.0,40.0,6.0,0.0
5519,85.0,45.0,40.0,4.0,0.0
5520,73.0,0.0,15.0,7.0,0.0
5521,42.0,0.0,360.0,10.0,0.0
5522,54.0,0.0,360.0,8.0,0.0
5523,78.0,0.0,360.0,5.0,0.0
5524,54.0,45.0,360.0,4.0,0.0
5525,73.0,45.0,40.0,4.0,0.0
5526,69.0,0.0,360.0,6.0,0.0
5527,85.0,45.0,40.0,4.0,0.0
5528,73.0,45.0,40.0,4.0,0.0
5529,85.0,45.0,40.0,4.0,0.0
5530,72.0,45.0,40.0,4.0,0.0
5531,84.0,45.0,40.0,4.0,0.0
5532,72.0,45.0,40.0,4.0,0.0
5533,84.0,0.0,40.0,4.0,0.0
5534,67.0,0.0,90.0,2.0,0.0
5535,59.0,0.0,180.0,3.0,0.0
5536,59.0,0.0,90.0,2.0,0.0
5537,71.0,45.0,40.0,4.0,0.0
5538,91.0,0.0,90.0,0.0,0.0
5539,71.0,45.0,90.0,1.0,0.0
5540,79.0,0.0,90.0,1.0,0.0
5541,83.0,0.0,40.0,4.0,0.0
5542,78.0,19.0,60.0,1.0,0.0
5543,71.0,26.0,40.0,4.0,0.0
5544,66.0,0.0,60.0,2.0,0.0
5545,57.0,0.0,60.0,2.0,0.0
5546,69.0,0.0,60.0,1.0,0.0
5547,90.0,0.0,60.0,0.0,0.0
5548,83.0,43.0,40.0,4.0,0.0
5549,71.0,0.0,15.0,3.0,0.0
5550,59.0,0.0,180.0,8.0,0.0
5551,64.0,0.0,40.0,2.0,0.0
5552,55.0,0.0,40.0,2.0,0.0
5553,59.0,22.0,180.0,7.0,0.0
5554,76.0,0.0,40.0,1.0,0.0
5555,67.0,2.0,40.0,1.0,0.0
5556,47.0,0.0,180.0,10.0,0.0
5557,59.0,0.0,180.0,5.0,0.0
5558,88.0,0.0,40.0,0.0,0.0
5559,59.0,0.0,180.0,4.0,0.0
5560,71.0,45.0,40.0,4.0,0.0
5561,59.0,0.0,180.0,6.0,0.0
5562,83.0,43.0,40.0,4.0,0.0
5563,54.0,0.0,40.0,2.0,0.0
5564,75.0,2.0,40.0,1.0,0.0
5565,87.0,0.0,40.0,0.0,0.0
5566,71.0,45.0,40.0,4.0,0.0
5567,63.0,0.0,40.0,2.0,0.0
5568,66.0,0.0,40.0,1.0,0.0
5569,83.0,0.0,40.0,4.0,0.0
5570,71.0,0.0,15.0,3.0,0.0
5571,64.0,0.0,360.0,4.0,0.0
5572,64.0,0.0,360.0,5.0,0.0
5573,64.0,0.0,20.0,2.0,0.0
5574,52.0,0.0,360.0,10.0,0.0
5575,59.0,0.0,15.0,3.0,0.0
5576,88.0,0.0,20.0,0.0,0.0
5577,55.0,0.0,20.0,2.0,0.0
5578,71.0,0.0,40.0,4.0,0.0
5579,64.0,0.0,360.0,7.0,0.0
5580,64.0,44.0,360.0,6.0,0.0
5581,76.0,23.0,20.0,1.0,0.0
5582,67.0,0.0,20.0,1.0,0.0
5583,64.0,0.0,360.0,8.0,0.0
5584,78.0,0.0,20.0,1.0,0.0
5585,67.0,0.0,20.0,1.0,0.0
5586,90.0,0.0,20.0,0.0,0.0
5587,66.0,45.0,20.0,2.0,0.0
5588,83.0,45.0,40.0,4.0,0.0
5589,88.0,0.0,40.0,0.0,0.0
5590,76.0,0.0,40.0,1.0,0.0
5591,67.0,0.0,40.0,1.0,0.0
5592,64.0,0.0,40.0,2.0,0.0
5593,55.0,0.0,15.0,2.0,0.0
5594,54.0,0.0,60.0,2.0,0.0
5595,63.0,19.0,60.0,2.0,0.0
5596,87.0,0.0,60.0,0.0,0.0
5597,75.0,0.0,60.0,1.0,0.0
5598,66.0,0.0,60.0,1.0,0.0
5599,71.0,26.0,40.0,4.0,0.0
5600,83.0,43.0,40.0,4.0,0.0
5601,64.0,0.0,40.0,2.0,0.0
5602,55.0,2.0,40.0,2.0,0.0
5603,88.0,0.0,40.0,0.0,0.0
5604,71.0,45.0,40.0,4.0,0.0
5605,67.0,0.0,40.0,1.0,0.0
5606,76.0,0.0,40.0,1.0,0.0
5607,83.0,45.0,40.0,4.0,0.0
5608,71.0,45.0,40.0,4.0,0.0
5609,90.0,0.0,40.0,0.0,0.0
5610,66.0,0.0,40.0,2.0,0.0
5611,57.0,0.0,40.0,2.0,0.0
5612,78.0,0.0,40.0,1.0,0.0
5613,69.0,0.0,40.0,1.0,0.0
5614,83.0,1.0,40.0,4.0,0.0
5615,71.0,45.0,40.0,4.0,0.0
5616,59.0,0.0,90.0,2.0,0.0
5617,67.0,0.0,90.0,2.0,0.0
5618,79.0,0.0,90.0,1.0,0.0
5619,71.0,45.0,90.0,1.0,0.0
5620,91.0,0.0,90.0,0.0,0.0
5621,83.0,0.0,40.0,4.0,0.0
5622,66.0,0.0,90.0,2.0,0.0
5623,71.0,40.0,40.0,4.0,0.0
5624,90.0,0.0,90.0,0.0,0.0
5625,57.0,5.0,90.0,2.0,0.0
5626,78.0,0.0,90.0,1.0,0.0
5627,69.0,0.0,90.0,1.0,0.0
5628,83.0,39.0,40.0,4.0,0.0
5629,67.0,0.0,40.0,1.0,0.0
5630,76.0,0.0,40.0,1.0,0.0
5631,71.0,0.0,180.0,6.0,0.0
5632,59.0,0.0,180.0,7.0,0.0
5633,47.0,0.0,180.0,10.0,0.0
5634,88.0,6.0,40.0,0.0,0.0
5635,71.0,0.0,180.0,5.0,0.0
5636,55.0,0.0,40.0,2.0,0.0
5637,64.0,0.0,40.0,2.0,0.0
5638,59.0,0.0,180.0,8.0,0.0
5639,71.0,45.0,40.0,4.0,0.0
5640,59.0,45.0,180.0,4.0,0.0
5641,83.0,36.0,40.0,4.0,0.0
5642,63.0,0.0,40.0,2.0,0.0
5643,54.0,0.0,40.0,2.0,0.0
5644,75.0,0.0,40.0,1.0,0.0
5645,66.0,9.0,40.0,1.0,0.0
5646,87.0,0.0,40.0,0.0,0.0
5647,71.0,45.0,40.0,4.0,0.0
5648,83.0,0.0,40.0,4.0,0.0
5649,67.0,0.0,180.0,1.0,0.0
5650,76.0,0.0,180.0,1.0,0.0
5651,64.0,0.0,180.0,2.0,0.0
5652,55.0,0.0,180.0,2.0,0.0
5653,88.0,0.0,180.0,0.0,0.0
5654,52.0,0.0,180.0,7.0,0.0
5655,71.0,45.0,40.0,4.0,0.0
5656,52.0,45.0,180.0,8.0,0.0
5657,40.0,0.0,180.0,10.0,0.0
5658,64.0,0.0,180.0,5.0,0.0
5659,64.0,0.0,180.0,6.0,0.0
5660,52.0,0.0,180.0,4.0,0.0
5661,83.0,45.0,40.0,4.0,0.0
5662,71.0,42.0,40.0,4.0,0.0
5663,83.0,0.0,40.0,4.0,0.0
5664,71.0,45.0,40.0,4.0,0.0
5665,83.0,45.0,40.0,4.0,0.0
5666,71.0,45.0,40.0,4.0,0.0
5667,83.0,45.0,40.0,4.0,0.0
5668,60.0,0.0,180.0,8.0,0.0
5669,60.0,0.0,180.0,4.0,0.0
5670,70.0,43.0,40.0,4.0,0.0
5671,76.0,2.0,90.0,5.0,0.0
5672,48.0,0.0,180.0,10.0,0.0
5673,70.0,0.0,90.0,6.0,0.0
5674,82.0,45.0,40.0,4.0,0.0
5675,70.0,45.0,40.0,4.0,0.0
5676,82.0,45.0,40.0,4.0,0.0
5677,67.0,0.0,15.0,7.0,0.0
5678,47.0,36.0,150.0,10.0,0.0
5679,76.0,2.0,90.0,5.0,0.0
5680,71.0,0.0,90.0,6.0,0.0
5681,59.0,0.0,150.0,8.0,0.0
5682,70.0,43.0,40.0,4.0,0.0
5683,59.0,1.0,150.0,4.0,0.0
5684,82.0,45.0,40.0,4.0,0.0
5685,71.0,8.0,40.0,4.0,0.0
5686,83.0,45.0,40.0,4.0,0.0
5687,46.0,0.0,180.0,10.0,0.0
5688,76.0,0.0,180.0,5.0,0.0
5689,66.0,0.0,180.0,7.0,0.0
5690,73.0,45.0,40.0,4.0,0.0
5691,58.0,0.0,180.0,8.0,0.0
5692,73.0,45.0,180.0,6.0,0.0
5693,58.0,0.0,180.0,4.0,0.0
5694,85.0,45.0,40.0,4.0,0.0
5695,73.0,45.0,40.0,4.0,0.0
5696,85.0,0.0,40.0,4.0,0.0
5697,73.0,26.0,40.0,4.0,0.0
5698,73.0,19.0,60.0,5.0,0.0
5699,85.0,45.0,40.0,4.0,0.0
5700,73.0,45.0,40.0,4.0,0.0
5701,85.0,45.0,40.0,4.0,0.0
5702,61.0,0.0,180.0,8.0,0.0
5703,73.0,43.0,40.0,4.0,0.0
5704,61.0,0.0,180.0,4.0,0.0
5705,64.0,0.0,180.0,4.0,0.0
5706,70.0,0.0,180.0,6.0,0.0
5707,82.0,0.0,180.0,5.0,0.0
5708,49.0,45.0,180.0,10.0,0.0
5709,67.0,0.0,90.0,2.0,0.0
5710,91.0,2.0,90.0,0.0,0.0
5711,61.0,0.0,180.0,7.0,0.0
5712,79.0,0.0,90.0,1.0,0.0
5713,85.0,45.0,40.0,4.0,0.0
5714,73.0,45.0,40.0,4.0,0.0
5715,85.0,0.0,40.0,4.0,0.0
5716,67.0,0.0,90.0,2.0,0.0
5717,62.0,0.0,150.0,7.0,0.0
5718,73.0,43.0,40.0,4.0,0.0
5719,59.0,1.0,150.0,4.0,0.0
5720,62.0,0.0,150.0,4.0,0.0
5721,71.0,0.0,150.0,6.0,0.0
5722,47.0,0.0,150.0,10.0,0.0
5723,83.0,0.0,150.0,5.0,0.0
5724,59.0,36.0,150.0,8.0,0.0
5725,91.0,2.0,90.0,0.0,0.0
5726,79.0,0.0,90.0,1.0,0.0
5727,85.0,45.0,40.0,4.0,0.0
5728,73.0,8.0,40.0,4.0,0.0
5729,85.0,45.0,40.0,4.0,0.0
5730,73.0,45.0,180.0,6.0,0.0
5731,61.0,0.0,180.0,4.0,0.0
5732,67.0,0.0,180.0,2.0,0.0
5733,79.0,0.0,180.0,1.0,0.0
5734,76.0,45.0,40.0,4.0,0.0
5735,58.0,0.0,180.0,8.0,0.0
5736,58.0,0.0,180.0,4.0,0.0
5737,85.0,0.0,180.0,5.0,0.0
5738,91.0,0.0,180.0,0.0,0.0
5739,46.0,0.0,180.0,10.0,0.0
5740,64.0,0.0,180.0,7.0,0.0
5741,88.0,45.0,40.0,4.0,0.0
5742,76.0,45.0,40.0,4.0,0.0
5743,88.0,0.0,40.0,4.0,0.0
5744,78.0,0.0,60.0,1.0,0.0
5745,90.0,0.0,60.0,0.0,0.0
5746,66.0,19.0,60.0,2.0,0.0
5747,76.0,26.0,40.0,4.0,0.0
5748,88.0,45.0,40.0,4.0,0.0
5749,76.0,45.0,40.0,4.0,0.0
5750,88.0,45.0,40.0,4.0,0.0
5751,56.0,45.0,180.0,7.0,0.0
5752,62.0,0.0,360.0,4.0,0.0
5753,86.0,0.0,180.0,5.0,0.0
5754,68.0,45.0,360.0,4.0,0.0
5755,65.0,0.0,180.0,6.0,0.0
5756,77.0,45.0,40.0,4.0,0.0
5757,65.0,0.0,360.0,4.0,0.0
5758,59.0,0.0,360.0,4.0,0.0
5759,47.0,0.0,180.0,8.0,0.0
5760,35.0,0.0,180.0,10.0,0.0
5761,89.0,45.0,40.0,4.0,0.0
5762,77.0,45.0,40.0,4.0,0.0
5763,89.0,0.0,40.0,4.0,0.0
5764,74.0,0.0,150.0,6.0,0.0
5765,59.0,0.0,150.0,8.0,0.0
5766,77.0,45.0,40.0,4.0,0.0
5767,68.0,36.0,150.0,7.0,0.0
5768,47.0,0.0,150.0,10.0,0.0
5769,77.0,0.0,150.0,5.0,0.0
5770,89.0,45.0,40.0,4.0,0.0
5771,77.0,9.0,40.0,4.0,0.0
5772,89.0,0.0,40.0,4.0,0.0
5773,78.0,0.0,180.0,5.0,0.0
5774,46.0,0.0,180.0,10.0,0.0
5775,58.0,0.0,180.0,8.0,0.0
5776,78.0,45.0,40.0,4.0,0.0
5777,66.0,45.0,180.0,4.0,0.0
5778,58.0,0.0,180.0,4.0,0.0
5779,73.0,0.0,180.0,6.0,0.0
5780,70.0,0.0,180.0,7.0,0.0
5781,90.0,45.0,40.0,4.0,0.0
5782,78.0,45.0,40.0,4.0,0.0
5783,90.0,0.0,40.0,4.0,0.0
5784,47.0,17.0,150.0,10.0,0.0
5785,66.0,45.0,270.0,6.0,0.0
5786,76.0,40.0,90.0,5.0,0.0
5787,71.0,0.0,150.0,7.0,0.0
5788,83.0,45.0,40.0,4.0,0.0
5789,59.0,45.0,180.0,4.0,0.0
5790,59.0,6.0,150.0,8.0,0.0
5791,86.0,5.0,40.0,4.0,0.0
5792,83.0,9.0,40.0,4.0,0.0
5793,74.0,13.0,60.0,5.0,0.0
5794,86.0,0.0,40.0,4.0,0.0
5795,52.0,0.0,180.0,8.0,0.0
5796,85.0,45.0,40.0,4.0,0.0
5797,52.0,0.0,180.0,4.0,0.0
5798,74.0,0.0,90.0,5.0,0.0
5799,67.0,0.0,180.0,7.0,0.0
5800,40.0,45.0,180.0,10.0,0.0
5801,88.0,0.0,40.0,4.0,0.0
5802,73.0,0.0,90.0,5.0,0.0
5803,85.0,45.0,40.0,4.0,0.0
5804,64.0,0.0,90.0,6.0,0.0
5805,88.0,0.0,40.0,4.0,0.0
5806,42.0,0.0,180.0,10.0,0.0
5807,54.0,0.0,180.0,4.0,0.0
5808,82.0,45.0,40.0,4.0,0.0
5809,54.0,0.0,180.0,8.0,0.0
5810,62.0,0.0,90.0,6.0,0.0
5811,71.0,45.0,90.0,5.0,0.0
5812,66.0,17.0,150.0,7.0,0.0
5813,85.0,0.0,40.0,4.0,0.0
5814,61.0,45.0,90.0,6.0,0.0
5815,70.0,19.0,60.0,5.0,0.0
5816,82.0,9.0,40.0,4.0,0.0
5817,85.0,0.0,40.0,4.0,0.0
5818,86.0,0.0,180.0,0.0,0.0
5819,74.0,0.0,40.0,4.0,0.0
5820,47.0,45.0,40.0,4.0,0.0
5821,47.0,0.0,180.0,10.0,0.0
5822,59.0,0.0,180.0,6.0,0.0
5823,74.0,0.0,180.0,1.0,0.0
5824,62.0,0.0,180.0,2.0,0.0
5825,71.0,0.0,720.0,3.0,0.0
5826,71.0,0.0,180.0,5.0,0.0
5827,66.0,0.0,180.0,7.0,0.0
5828,59.0,0.0,720.0,3.0,0.0
5829,59.0,0.0,180.0,8.0,0.0
5830,83.0,45.0,40.0,4.0,0.0
5831,59.0,0.0,40.0,4.0,0.0
5832,58.0,45.0,40.0,4.0,0.0
5833,86.0,0.0,40.0,4.0,0.0
5834,59.0,45.0,40.0,4.0,0.0
5835,83.0,0.0,40.0,4.0,0.0
5836,87.0,0.0,180.0,0.0,0.0
5837,57.0,0.0,180.0,8.0,0.0
5838,45.0,45.0,40.0,4.0,0.0
5839,75.0,0.0,40.0,4.0,0.0
5840,75.0,0.0,180.0,1.0,0.0
5841,63.0,45.0,180.0,2.0,0.0
5842,45.0,0.0,180.0,10.0,0.0
5843,57.0,45.0,40.0,4.0,0.0
5844,83.0,0.0,40.0,4.0,0.0
5845,87.0,45.0,40.0,4.0,0.0
5846,56.0,0.0,40.0,4.0,0.0
5847,83.0,0.0,40.0,4.0,0.0
5848,57.0,0.0,40.0,4.0,0.0
5849,76.0,0.0,180.0,1.0,0.0
5850,44.0,0.0,40.0,4.0,0.0
5851,59.0,0.0,360.0,7.0,0.0
5852,76.0,45.0,40.0,4.0,0.0
5853,56.0,0.0,180.0,8.0,0.0
5854,71.0,0.0,360.0,6.0,0.0
5855,83.0,0.0,180.0,5.0,0.0
5856,44.0,45.0,180.0,10.0,0.0
5857,64.0,0.0,180.0,2.0,0.0
5858,88.0,0.0,180.0,0.0,0.0
5859,83.0,45.0,40.0,4.0,0.0
5860,56.0,0.0,40.0,4.0,0.0
5861,88.0,45.0,40.0,4.0,0.0
5862,54.0,0.0,40.0,4.0,0.0
5863,56.0,0.0,40.0,4.0,0.0
5864,83.0,0.0,40.0,4.0,0.0
5865,77.0,45.0,40.0,4.0,0.0
5866,43.0,0.0,40.0,4.0,0.0
5867,65.0,0.0,150.0,2.0,0.0
5868,89.0,0.0,150.0,0.0,0.0
5869,55.0,0.0,180.0,8.0,0.0
5870,77.0,0.0,180.0,5.0,0.0
5871,77.0,29.0,150.0,1.0,0.0
5872,43.0,45.0,180.0,10.0,0.0
5873,83.0,0.0,40.0,4.0,0.0
5874,55.0,45.0,40.0,4.0,0.0
5875,54.0,0.0,40.0,4.0,0.0
5876,89.0,16.0,40.0,4.0,0.0
5877,83.0,0.0,40.0,4.0,0.0
5878,55.0,0.0,40.0,4.0,0.0
5879,78.0,45.0,40.0,4.0,0.0
5880,42.0,0.0,360.0,4.0,0.0
5881,54.0,0.0,360.0,4.0,0.0
5882,54.0,0.0,360.0,8.0,0.0
5883,54.0,0.0,180.0,3.0,0.0
5884,66.0,0.0,180.0,3.0,0.0
5885,90.0,41.0,540.0,0.0,0.0
5886,70.0,0.0,360.0,6.0,0.0
5887,78.0,0.0,540.0,5.0,0.0
5888,42.0,0.0,360.0,10.0,0.0
5889,66.0,45.0,360.0,2.0,0.0
5890,78.0,0.0,360.0,1.0,0.0
5891,61.0,0.0,360.0,7.0,0.0
5892,82.0,45.0,40.0,4.0,0.0
5893,85.0,45.0,40.0,4.0,0.0
5894,90.0,45.0,40.0,4.0,0.0
5895,78.0,45.0,40.0,4.0,0.0
5896,90.0,45.0,40.0,4.0,0.0
5897,78.0,45.0,40.0,4.0,0.0
5898,90.0,0.0,40.0,4.0,0.0
5899,55.0,0.0,360.0,4.0,0.0
5900,43.0,45.0,360.0,4.0,0.0
5901,74.0,45.0,40.0,4.0,0.0
5902,71.0,0.0,330.0,6.0,0.0
5903,59.0,0.0,330.0,7.0,0.0
5904,55.0,9.0,330.0,8.0,0.0
5905,43.0,27.0,330.0,10.0,0.0
5906,79.0,45.0,40.0,4.0,0.0
5907,83.0,45.0,40.0,4.0,0.0
5908,86.0,4.0,40.0,4.0,0.0
5909,74.0,30.0,40.0,4.0,0.0
5910,76.0,0.0,60.0,5.0,0.0
5911,88.0,15.0,60.0,0.0,0.0
5912,86.0,45.0,40.0,4.0,0.0
5913,74.0,9.0,40.0,4.0,0.0
5914,74.0,0.0,90.0,5.0,0.0
5915,86.0,0.0,90.0,0.0,0.0
5916,86.0,0.0,40.0,4.0,0.0
5917,52.0,2.0,180.0,8.0,0.0
5918,76.0,45.0,40.0,4.0,0.0
5919,67.0,0.0,360.0,6.0,0.0
5920,40.0,0.0,180.0,10.0,0.0
5921,64.0,0.0,360.0,7.0,0.0
5922,86.0,0.0,90.0,0.0,0.0
5923,74.0,40.0,90.0,5.0,0.0
5924,79.0,5.0,40.0,4.0,0.0
5925,85.0,45.0,40.0,4.0,0.0
5926,73.0,43.0,90.0,5.0,0.0
5927,85.0,0.0,90.0,0.0,0.0
5928,79.0,0.0,40.0,4.0,0.0
5929,52.0,2.0,180.0,4.0,0.0
5930,76.0,45.0,40.0,4.0,0.0
5931,52.0,0.0,180.0,8.0,0.0
5932,76.0,0.0,90.0,5.0,0.0
5933,40.0,43.0,180.0,10.0,0.0
5934,88.0,43.0,90.0,0.0,0.0
5935,79.0,2.0,40.0,4.0,0.0
5936,85.0,29.0,40.0,4.0,0.0
5937,85.0,16.0,60.0,0.0,0.0
5938,73.0,0.0,60.0,5.0,0.0
5939,79.0,0.0,40.0,4.0,0.0
5940,54.0,0.0,180.0,8.0,0.0
5941,74.0,45.0,40.0,4.0,0.0
5942,54.0,0.0,180.0,4.0,0.0
5943,83.0,0.0,180.0,0.0,0.0
5944,62.0,0.0,180.0,7.0,0.0
5945,66.0,0.0,180.0,6.0,0.0
5946,71.0,0.0,180.0,5.0,0.0
5947,78.0,45.0,40.0,4.0,0.0
5948,83.0,45.0,40.0,4.0,0.0
5949,78.0,45.0,40.0,4.0,0.0
5950,42.0,0.0,15.0,10.0,0.0
5951,82.0,0.0,150.0,0.0,0.0
5952,54.0,45.0,180.0,8.0,0.0
5953,64.0,0.0,150.0,6.0,0.0
5954,61.0,40.0,150.0,7.0,0.0
5955,70.0,0.0,150.0,5.0,0.0
5956,73.0,45.0,40.0,4.0,0.0
5957,54.0,0.0,180.0,4.0,0.0
5958,76.0,45.0,40.0,4.0,0.0
5959,82.0,5.0,40.0,4.0,0.0
5960,76.0,0.0,40.0,4.0,0.0
5961,59.0,0.0,2880.0,3.0,0.0
5962,71.0,0.0,2880.0,3.0,0.0
5963,62.0,0.0,180.0,6.0,0.0
5964,83.0,0.0,2880.0,0.0,0.0
5965,59.0,3.0,180.0,7.0,0.0
5966,74.0,0.0,180.0,1.0,0.0
5967,62.0,0.0,180.0,2.0,0.0
5968,71.0,0.0,180.0,5.0,0.0
5969,47.0,45.0,40.0,4.0,0.0
5970,71.0,0.0,40.0,4.0,0.0
5971,47.0,0.0,180.0,10.0,0.0
5972,59.0,45.0,180.0,8.0,0.0
5973,59.0,0.0,40.0,4.0,0.0
5974,74.0,45.0,40.0,4.0,0.0
5975,78.0,0.0,40.0,4.0,0.0
5976,58.0,42.0,40.0,4.0,0.0
5977,59.0,0.0,40.0,4.0,0.0
5978,83.0,0.0,40.0,4.0,0.0
5979,45.0,0.0,180.0,10.0,0.0
5980,75.0,0.0,180.0,1.0,0.0
5981,63.0,0.0,180.0,2.0,0.0
5982,71.0,0.0,40.0,4.0,0.0
5983,45.0,45.0,40.0,4.0,0.0
5984,57.0,0.0,180.0,8.0,0.0
5985,83.0,0.0,40.0,4.0,0.0
5986,57.0,45.0,40.0,4.0,0.0
5987,71.0,0.0,40.0,4.0,0.0
5988,56.0,45.0,40.0,4.0,0.0
5989,83.0,0.0,40.0,4.0,0.0
5990,57.0,45.0,40.0,4.0,0.0
5991,56.0,0.0,180.0,8.0,0.0
5992,44.0,0.0,180.0,10.0,0.0
5993,71.0,45.0,40.0,4.0,0.0
5994,44.0,0.0,40.0,4.0,0.0
5995,76.0,41.0,180.0,1.0,0.0
5996,64.0,0.0,180.0,2.0,0.0
5997,83.0,45.0,40.0,4.0,0.0
5998,56.0,0.0,40.0,4.0,0.0
5999,71.0,0.0,40.0,4.0,0.0
6000,54.0,45.0,40.0,4.0,0.0
6001,56.0,0.0,40.0,4.0,0.0
6002,83.0,4.0,40.0,4.0,0.0
6003,55.0,0.0,180.0,8.0,0.0
6004,71.0,45.0,40.0,4.0,0.0
6005,43.0,0.0,40.0,4.0,0.0
6006,65.0,31.0,150.0,2.0,0.0
6007,43.0,45.0,180.0,10.0,0.0
6008,77.0,0.0,150.0,1.0,0.0
6009,83.0,45.0,40.0,4.0,0.0
6010,55.0,0.0,40.0,4.0,0.0
6011,71.0,14.0,40.0,4.0,0.0
6012,54.0,0.0,40.0,4.0,0.0
6013,55.0,0.0,40.0,4.0,0.0
6014,83.0,0.0,40.0,4.0,0.0
6015,71.0,45.0,40.0,4.0,0.0
6016,39.0,0.0,180.0,4.0,0.0
6017,51.0,0.0,360.0,8.0,0.0
6018,51.0,0.0,180.0,4.0,0.0
6019,39.0,0.0,360.0,10.0,0.0
6020,66.0,0.0,180.0,2.0,0.0
6021,83.0,45.0,40.0,4.0,0.0
6022,71.0,45.0,40.0,4.0,0.0
6023,83.0,1.0,40.0,4.0,0.0
6024,71.0,45.0,40.0,4.0,0.0
6025,66.0,0.0,360.0,2.0,0.0
6026,69.0,44.0,360.0,2.0,0.0
6027,81.0,0.0,360.0,1.0,0.0
6028,78.0,44.0,15.0,1.0,0.0
6029,69.0,0.0,180.0,15.0,0.0
6030,66.0,0.0,180.0,15.0,0.0
6031,78.0,0.0,180.0,14.0,0.0
6032,81.0,41.0,180.0,14.0,0.0
6033,83.0,45.0,40.0,4.0,0.0
6034,71.0,45.0,40.0,4.0,0.0
6035,83.0,4.0,40.0,4.0,0.0
6036,52.0,2.0,330.0,8.0,0.0
6037,71.0,45.0,40.0,4.0,0.0
6038,40.0,1.0,180.0,4.0,0.0
6039,52.0,0.0,180.0,4.0,0.0
6040,40.0,0.0,330.0,10.0,0.0
6041,83.0,45.0,40.0,4.0,0.0
6042,71.0,45.0,40.0,4.0,0.0
6043,83.0,0.0,40.0,4.0,0.0
6044,71.0,45.0,40.0,4.0,0.0
6045,80.0,34.0,150.0,1.0,0.0
6046,76.0,0.0,150.0,1.0,0.0
6047,68.0,0.0,150.0,2.0,0.0
6048,64.0,0.0,150.0,2.0,0.0
6049,83.0,45.0,40.0,4.0,0.0
6050,71.0,9.0,40.0,4.0,0.0
6051,83.0,45.0,40.0,4.0,0.0
6052,52.0,45.0,180.0,4.0,0.0
6053,52.0,2.0,360.0,8.0,0.0
6054,71.0,45.0,40.0,4.0,0.0
6055,40.0,0.0,180.0,4.0,0.0
6056,40.0,0.0,360.0,10.0,0.0
6057,83.0,45.0,40.0,4.0,0.0
6058,71.0,45.0,40.0,4.0,0.0
6059,83.0,0.0,40.0,4.0,0.0
6060,64.0,0.0,360.0,2.0,0.0
6061,79.0,0.0,360.0,1.0,0.0
6062,64.0,0.0,180.0,15.0,0.0
6063,76.0,0.0,180.0,14.0,0.0
6064,79.0,43.0,180.0,14.0,0.0
6065,76.0,0.0,360.0,1.0,0.0
6066,67.0,0.0,180.0,15.0,0.0
6067,67.0,43.0,360.0,2.0,0.0
6068,71.0,45.0,40.0,4.0,0.0
6069,83.0,45.0,40.0,4.0,0.0
6070,71.0,45.0,40.0,4.0,0.0
6071,83.0,0.0,40.0,4.0,0.0
6072,47.0,0.0,180.0,4.0,0.0
6073,71.0,45.0,40.0,4.0,0.0
6074,47.0,3.0,330.0,8.0,0.0
6075,59.0,2.0,180.0,4.0,0.0
6076,35.0,0.0,330.0,10.0,0.0
6077,83.0,45.0,40.0,4.0,0.0
6078,71.0,45.0,40.0,4.0,0.0
6079,83.0,0.0,40.0,4.0,0.0
6080,71.0,45.0,40.0,4.0,0.0
6081,75.0,33.0,150.0,1.0,0.0
6082,63.0,0.0,150.0,2.0,0.0
6083,66.0,0.0,150.0,2.0,0.0
6084,78.0,0.0,150.0,1.0,0.0
6085,83.0,45.0,40.0,4.0,0.0
6086,71.0,9.0,40.0,4.0,0.0
6087,83.0,45.0,40.0,4.0,0.0
6088,47.0,4.0,360.0,8.0,0.0
6089,71.0,45.0,40.0,4.0,0.0
6090,47.0,45.0,180.0,4.0,0.0
6091,59.0,0.0,180.0,4.0,0.0
6092,35.0,0.0,360.0,10.0,0.0
6093,83.0,45.0,40.0,4.0,0.0
6094,71.0,45.0,40.0,4.0,0.0
6095,83.0,0.0,40.0,4.0,0.0
6096,78.0,0.0,360.0,1.0,0.0
6097,66.0,0.0,180.0,15.0,0.0
6098,74.0,41.0,360.0,1.0,0.0
6099,62.0,0.0,180.0,15.0,0.0
6100,74.0,0.0,180.0,14.0,0.0
6101,66.0,0.0,360.0,2.0,0.0
6102,62.0,0.0,360.0,2.0,0.0
6103,71.0,45.0,40.0,4.0,0.0
6104,78.0,41.0,180.0,14.0,0.0
6105,83.0,45.0,40.0,4.0,0.0
6106,71.0,45.0,40.0,4.0,0.0
6107,83.0,0.0,40.0,4.0,0.0
6108,49.0,5.0,330.0,8.0,0.0
6109,61.0,4.0,180.0,4.0,0.0
6110,49.0,0.0,180.0,4.0,0.0
6111,71.0,45.0,40.0,4.0,0.0
6112,37.0,0.0,330.0,10.0,0.0
6113,83.0,45.0,40.0,4.0,0.0
6114,71.0,45.0,40.0,4.0,0.0
6115,83.0,0.0,40.0,4.0,0.0
6116,71.0,45.0,40.0,4.0,0.0
6117,59.0,45.0,180.0,7.0,0.0
6118,65.0,0.0,180.0,6.0,0.0
6119,77.0,0.0,150.0,1.0,0.0
6120,65.0,0.0,150.0,2.0,0.0
6121,61.0,0.0,150.0,2.0,0.0
6122,71.0,0.0,180.0,5.0,0.0
6123,73.0,31.0,150.0,1.0,0.0
6124,83.0,45.0,40.0,4.0,0.0
6125,71.0,9.0,40.0,4.0,0.0
6126,83.0,0.0,40.0,4.0,0.0
6127,82.0,1.0,180.0,0.0,0.0
6128,54.0,0.0,180.0,8.0,0.0
6129,66.0,45.0,180.0,4.0,0.0
6130,54.0,0.0,180.0,4.0,0.0
6131,73.0,45.0,40.0,4.0,0.0
6132,76.0,21.0,150.0,1.0,0.0
6133,61.0,0.0,1080.0,7.0,0.0
6134,64.0,0.0,1080.0,6.0,0.0
6135,64.0,0.0,1080.0,2.0,0.0
6136,42.0,0.0,180.0,10.0,0.0
6137,70.0,0.0,180.0,5.0,0.0
6138,66.0,0.0,150.0,3.0,0.0
6139,54.0,0.0,150.0,3.0,0.0
6140,73.0,0.0,150.0,1.0,0.0
6141,61.0,0.0,1080.0,2.0,0.0
6142,76.0,45.0,40.0,4.0,0.0
6143,82.0,23.0,40.0,4.0,0.0
6144,76.0,0.0,40.0,4.0,0.0
6145,83.0,1.0,180.0,0.0,0.0
6146,43.0,0.0,180.0,10.0,0.0
6147,55.0,0.0,180.0,8.0,0.0
6148,71.0,0.0,180.0,5.0,0.0
6149,67.0,45.0,180.0,4.0,0.0
6150,55.0,0.0,180.0,4.0,0.0
6151,73.0,45.0,40.0,4.0,0.0
6152,73.0,0.0,150.0,1.0,0.0
6153,76.0,0.0,150.0,1.0,0.0
6154,59.0,22.0,150.0,3.0,0.0
6155,76.0,45.0,40.0,4.0,0.0
6156,83.0,22.0,40.0,4.0,0.0
6157,76.0,0.0,40.0,4.0,0.0
6158,82.0,1.0,180.0,0.0,0.0
6159,54.0,0.0,180.0,4.0,0.0
6160,73.0,45.0,40.0,4.0,0.0
6161,54.0,0.0,180.0,8.0,0.0
6162,54.0,0.0,150.0,3.0,0.0
6163,66.0,0.0,150.0,3.0,0.0
6164,42.0,0.0,180.0,10.0,0.0
6165,70.0,45.0,180.0,5.0,0.0
6166,73.0,22.0,150.0,1.0,0.0
6167,76.0,0.0,150.0,1.0,0.0
6168,66.0,0.0,180.0,4.0,0.0
6169,76.0,45.0,40.0,4.0,0.0
6170,82.0,22.0,40.0,4.0,0.0
6171,76.0,0.0,40.0,4.0,0.0
6172,83.0,1.0,180.0,0.0,0.0
6173,73.0,0.0,150.0,1.0,0.0
6174,43.0,0.0,180.0,10.0,0.0
6175,73.0,45.0,40.0,4.0,0.0
6176,55.0,0.0,180.0,8.0,0.0
6177,76.0,0.0,150.0,1.0,0.0
6178,71.0,0.0,180.0,5.0,0.0
6179,67.0,0.0,180.0,4.0,0.0
6180,55.0,324.0,180.0,4.0,0.0
6181,59.0,22.0,150.0,3.0,0.0
6182,76.0,45.0,40.0,4.0,0.0
6183,83.0,22.0,40.0,4.0,0.0
6184,82.0,36.0,330.0,0.0,0.0
6185,54.0,0.0,360.0,8.0,0.0
6186,76.0,0.0,360.0,1.0,0.0
6187,66.0,0.0,360.0,4.0,0.0
6188,54.0,0.0,360.0,4.0,0.0
6189,73.0,0.0,360.0,1.0,0.0
6190,82.0,0.0,360.0,4.0,0.0
6191,42.0,0.0,360.0,10.0,0.0
6192,73.0,0.0,360.0,4.0,0.0
6193,54.0,0.0,360.0,3.0,0.0
6194,70.0,0.0,360.0,5.0,0.0
6195,76.0,0.0,15.0,4.0,0.0
6196,66.0,144.0,360.0,3.0,0.0
6197,77.0,180.0,720.0,1.0,0.0
6198,77.0,576.0,150.0,14.0,0.0
6199,78.0,0.0,720.0,1.0,0.0
6200,78.0,0.0,180.0,14.0,0.0
6201,66.0,540.0,180.0,15.0,0.0
6202,66.0,144.0,720.0,2.0,0.0
6203,66.0,0.0,3960.0,3.0,0.0
6204,58.0,0.0,720.0,7.0,0.0
6205,64.0,360.0,720.0,6.0,0.0
6206,54.0,0.0,720.0,8.0,0.0
6207,54.0,0.0,3960.0,3.0,0.0
6208,42.0,0.0,720.0,10.0,0.0
6209,91.0,180.0,180.0,13.0,0.0
6210,79.0,0.0,720.0,1.0,0.0
6211,67.0,36.0,150.0,15.0,0.0
6212,67.0,0.0,720.0,2.0,0.0
6213,79.0,0.0,180.0,14.0,0.0
6214,91.0,70.0,720.0,0.0,0.0
6215,42.0,0.0,3240.0,11.0,0.0
6216,70.0,180.0,720.0,11.0,0.0
6217,76.0,0.0,720.0,6.0,0.0
6218,66.0,0.0,360.0,5.0,0.0
6219,66.0,0.0,60.0,2.0,0.0
6220,78.0,74.0,60.0,1.0,0.0
6221,90.0,124.0,150.0,0.0,0.0
6222,66.0,92.0,90.0,2.0,0.0
6223,90.0,0.0,90.0,0.0,0.0
6224,78.0,0.0,90.0,1.0,0.0
6225,78.0,0.0,720.0,5.0,0.0
6226,71.0,180.0,1080.0,11.0,0.0
6227,66.0,71.0,180.0,2.0,0.0
6228,75.0,180.0,360.0,6.0,0.0
6229,78.0,0.0,180.0,1.0,0.0
6230,90.0,0.0,180.0,0.0,0.0
6231,75.0,109.0,60.0,1.0,0.0
6232,63.0,0.0,60.0,2.0,0.0
6233,87.0,0.0,60.0,0.0,0.0
6234,66.0,0.0,180.0,2.0,0.0
6235,90.0,0.0,180.0,0.0,0.0
6236,74.0,36.0,330.0,6.0,0.0
6237,78.0,144.0,15.0,1.0,0.0
6238,90.0,0.0,180.0,0.0,0.0
6239,78.0,0.0,180.0,14.0,0.0
6240,73.0,0.0,720.0,6.0,0.0
6241,90.0,0.0,180.0,0.0,0.0
6242,66.0,71.0,180.0,15.0,0.0
6243,66.0,0.0,15.0,2.0,0.0
6244,77.0,0.0,360.0,5.0,0.0
6245,78.0,0.0,180.0,1.0,0.0
6246,90.0,0.0,180.0,13.0,0.0
6247,73.0,109.0,60.0,14.0,0.0
6248,73.0,0.0,60.0,1.0,0.0
6249,85.0,0.0,60.0,13.0,0.0
6250,85.0,0.0,60.0,0.0,0.0
6251,61.0,0.0,60.0,2.0,0.0
6252,61.0,0.0,60.0,15.0,0.0
6253,70.0,0.0,360.0,11.0,0.0
6254,66.0,0.0,180.0,2.0,0.0
6255,76.0,0.0,360.0,5.0,0.0
6256,66.0,0.0,15.0,15.0,0.0
6257,90.0,0.0,15.0,0.0,0.0
6258,78.0,0.0,15.0,1.0,0.0
6259,90.0,180.0,15.0,13.0,0.0
6260,78.0,0.0,15.0,14.0,0.0
6261,71.0,0.0,360.0,11.0,0.0
6262,66.0,0.0,360.0,6.0,0.0
6263,75.0,0.0,360.0,5.0,0.0
6264,90.0,0.0,360.0,0.0,0.0
6265,66.0,0.0,15.0,2.0,0.0
6266,78.0,0.0,15.0,1.0,0.0
6267,65.0,0.0,270.0,2.0,0.0
6268,74.0,0.0,330.0,5.0,0.0
6269,89.0,0.0,270.0,0.0,0.0
6270,68.0,17.0,330.0,11.0,0.0
6271,71.0,0.0,330.0,6.0,0.0
6272,77.0,54.0,270.0,1.0,0.0
6273,66.0,0.0,60.0,2.0,0.0
6274,90.0,0.0,60.0,0.0,0.0
6275,78.0,379.0,60.0,1.0,0.0
6276,66.0,178.0,360.0,2.0,0.0
6277,61.0,0.0,360.0,11.0,0.0
6278,78.0,0.0,360.0,1.0,0.0
6279,73.0,0.0,360.0,5.0,0.0
6280,90.0,0.0,360.0,0.0,0.0
6281,70.0,0.0,360.0,6.0,0.0
6282,91.0,0.0,15.0,4.0,0.0
6283,79.0,182.0,15.0,4.0,0.0
6284,79.0,72.0,180.0,4.0,0.0
6285,91.0,0.0,180.0,4.0,0.0
6286,61.0,0.0,360.0,4.0,0.0
6287,52.0,0.0,360.0,4.0,0.0
6288,54.0,0.0,360.0,4.0,0.0
6289,58.0,180.0,360.0,4.0,0.0
6290,85.0,0.0,60.0,4.0,0.0
6291,73.0,110.0,60.0,4.0,0.0
6292,76.0,180.0,180.0,4.0,0.0
6293,88.0,0.0,180.0,4.0,0.0
6294,88.0,0.0,180.0,4.0,0.0
6295,61.0,0.0,360.0,4.0,0.0
6296,76.0,180.0,15.0,4.0,0.0
6297,88.0,0.0,180.0,4.0,0.0
6298,52.0,0.0,360.0,4.0,0.0
6299,58.0,180.0,360.0,4.0,0.0
6300,54.0,0.0,360.0,4.0,0.0
6301,70.0,0.0,90.0,4.0,0.0
6302,82.0,90.0,90.0,4.0,0.0
6303,78.0,0.0,180.0,4.0,0.0
6304,90.0,180.0,15.0,4.0,0.0
6305,78.0,0.0,180.0,4.0,0.0
6306,66.0,0.0,360.0,4.0,0.0
6307,90.0,180.0,15.0,4.0,0.0
6308,62.0,185.0,360.0,4.0,0.0
6309,83.0,0.0,180.0,4.0,0.0
6310,71.0,23.0,180.0,4.0,0.0
6311,66.0,0.0,360.0,4.0,0.0
6312,86.0,0.0,180.0,4.0,0.0
6313,85.0,22.0,20.0,4.0,0.0
6314,70.0,0.0,180.0,4.0,0.0
6315,86.0,23.0,20.0,4.0,0.0
6316,85.0,22.0,20.0,4.0,0.0
6317,86.0,45.0,20.0,4.0,0.0
6318,83.0,40.0,40.0,4.0,0.0
6319,85.0,97.0,40.0,4.0,0.0
6320,71.0,0.0,1800.0,3.0,0.0
6321,59.0,7.0,1800.0,3.0,0.0
6322,59.0,0.0,720.0,8.0,0.0
6323,83.0,0.0,180.0,4.0,0.0
6324,59.0,0.0,180.0,4.0,0.0
6325,71.0,0.0,180.0,4.0,0.0
6326,59.0,90.0,2160.0,7.0,0.0
6327,59.0,90.0,90.0,6.0,0.0
6328,63.0,0.0,90.0,5.0,0.0
6329,47.0,90.0,720.0,10.0,0.0
6330,66.0,83.0,90.0,5.0,0.0
6331,63.0,0.0,90.0,6.0,0.0
6332,66.0,90.0,90.0,6.0,0.0
6333,71.0,0.0,90.0,5.0,0.0
6334,63.0,0.0,90.0,6.0,0.0
6335,66.0,90.0,90.0,5.0,0.0
6336,71.0,23.0,150.0,2.0,0.0
6337,63.0,67.0,90.0,5.0,0.0
6338,59.0,0.0,90.0,6.0,0.0
6339,83.0,0.0,150.0,1.0,0.0
6340,63.0,0.0,90.0,6.0,0.0
6341,66.0,90.0,90.0,5.0,0.0
6342,66.0,0.0,90.0,6.0,0.0
6343,83.0,0.0,150.0,1.0,0.0
6344,71.0,4.0,150.0,2.0,0.0
6345,71.0,67.0,90.0,5.0,0.0
6346,66.0,19.0,60.0,5.0,0.0
6347,63.0,0.0,90.0,6.0,0.0
6348,66.0,0.0,90.0,5.0,0.0
6349,71.0,0.0,180.0,2.0,0.0
6350,51.0,0.0,720.0,8.0,0.0
6351,83.0,0.0,180.0,1.0,0.0
6352,39.0,0.0,720.0,10.0,0.0
6353,59.0,90.0,90.0,6.0,0.0
6354,69.0,0.0,90.0,5.0,0.0
6355,66.0,71.0,90.0,6.0,0.0
6356,66.0,0.0,60.0,2.0,0.0
6357,78.0,19.0,60.0,1.0,0.0
6358,71.0,0.0,90.0,5.0,0.0
6359,69.0,90.0,90.0,6.0,0.0
6360,69.0,0.0,90.0,5.0,0.0
6361,66.0,90.0,90.0,6.0,0.0
6362,71.0,0.0,150.0,2.0,0.0
6363,83.0,23.0,150.0,1.0,0.0
6364,59.0,67.0,90.0,6.0,0.0
6365,66.0,0.0,90.0,5.0,0.0
6366,69.0,0.0,90.0,5.0,0.0
6367,66.0,90.0,90.0,6.0,0.0
6368,69.0,0.0,90.0,6.0,0.0
6369,83.0,4.0,150.0,1.0,0.0
6370,71.0,0.0,150.0,2.0,0.0
6371,71.0,67.0,90.0,5.0,0.0
6372,69.0,19.0,60.0,5.0,0.0
6373,66.0,90.0,90.0,6.0,0.0
6374,52.0,0.0,900.0,8.0,0.0
6375,40.0,0.0,900.0,10.0,0.0
6376,71.0,0.0,180.0,2.0,0.0
6377,64.0,0.0,90.0,5.0,0.0
6378,59.0,90.0,90.0,6.0,0.0
6379,83.0,71.0,180.0,1.0,0.0
6380,67.0,0.0,90.0,5.0,0.0
6381,64.0,0.0,90.0,6.0,0.0
6382,67.0,19.0,60.0,2.0,0.0
6383,67.0,83.0,90.0,6.0,0.0
6384,71.0,0.0,90.0,5.0,0.0
6385,79.0,0.0,60.0,1.0,0.0
6386,64.0,0.0,90.0,6.0,0.0
6387,67.0,88.0,90.0,5.0,0.0
6388,73.0,0.0,90.0,5.0,0.0
6389,67.0,90.0,90.0,6.0,0.0
6390,85.0,2.0,90.0,4.0,0.0
6391,71.0,88.0,90.0,5.0,0.0
6392,64.0,0.0,90.0,6.0,0.0
6393,67.0,0.0,90.0,6.0,0.0
6394,73.0,90.0,90.0,5.0,0.0
6395,85.0,2.0,90.0,4.0,0.0
6396,71.0,0.0,90.0,5.0,0.0
6397,64.0,0.0,90.0,6.0,0.0
6398,61.0,0.0,180.0,6.0,0.0
6399,70.0,54.0,90.0,5.0,0.0
6400,85.0,0.0,180.0,4.0,0.0
6401,64.0,0.0,360.0,4.0,0.0
6402,67.0,0.0,360.0,4.0,0.0
6403,70.0,0.0,360.0,4.0,0.0
6404,73.0,88.0,360.0,4.0,0.0
6405,55.0,36.0,150.0,7.0,0.0
6406,73.0,90.0,90.0,5.0,0.0
6407,76.0,0.0,90.0,5.0,0.0
6408,82.0,90.0,90.0,4.0,0.0
6409,73.0,0.0,90.0,5.0,0.0
6410,74.0,90.0,90.0,5.0,0.0
6411,65.0,0.0,180.0,2.0,0.0
6412,86.0,0.0,90.0,1.0,0.0
6413,71.0,2.0,90.0,1.0,0.0
6414,68.0,0.0,180.0,2.0,0.0
6415,71.0,88.0,90.0,5.0,0.0
6416,65.0,90.0,180.0,2.0,0.0
6417,86.0,2.0,90.0,1.0,0.0
6418,80.0,90.0,90.0,5.0,0.0
6419,71.0,0.0,90.0,1.0,0.0
6420,68.0,0.0,180.0,2.0,0.0
6421,74.0,0.0,90.0,5.0,0.0
6422,86.0,0.0,180.0,1.0,0.0
6423,68.0,71.0,180.0,2.0,0.0
6424,65.0,0.0,180.0,2.0,0.0
6425,83.0,90.0,90.0,5.0,0.0
6426,71.0,0.0,180.0,1.0,0.0
6427,82.0,0.0,90.0,5.0,0.0
6428,83.0,19.0,60.0,1.0,0.0
6429,83.0,90.0,90.0,5.0,0.0
6430,85.0,88.0,90.0,5.0,0.0
6431,71.0,0.0,90.0,1.0,0.0
6432,74.0,0.0,90.0,1.0,0.0
6433,89.0,0.0,90.0,0.0,0.0
6434,86.0,91.0,90.0,5.0,0.0
6435,67.0,2.0,90.0,2.0,0.0
6436,82.0,89.0,90.0,5.0,0.0
6437,89.0,1.0,90.0,0.0,0.0
6438,83.0,72.0,90.0,5.0,0.0
6439,71.0,0.0,90.0,1.0,0.0
6440,74.0,0.0,90.0,1.0,0.0
6441,67.0,0.0,90.0,2.0,0.0
6442,85.0,108.0,60.0,5.0,0.0
6443,89.0,90.0,180.0,0.0,0.0
6444,67.0,0.0,180.0,2.0,0.0
6445,74.0,0.0,180.0,1.0,0.0
6446,71.0,0.0,180.0,1.0,0.0
6447,86.0,89.0,90.0,5.0,0.0
6448,70.0,0.0,90.0,6.0,0.0
6449,82.0,0.0,90.0,5.0,0.0
6450,71.0,0.0,90.0,6.0,0.0
6451,83.0,90.0,90.0,5.0,0.0
6452,73.0,90.0,90.0,6.0,0.0
6453,85.0,0.0,90.0,5.0,0.0
6454,86.0,90.0,90.0,5.0,0.0
6455,90.0,0.0,180.0,4.0,0.0
6456,74.0,0.0,90.0,6.0,0.0
6457,82.0,90.0,90.0,5.0,0.0
6458,70.0,0.0,90.0,6.0,0.0
6459,90.0,0.0,180.0,4.0,0.0
6460,71.0,0.0,90.0,6.0,0.0
6461,83.0,90.0,90.0,5.0,0.0
6462,73.0,0.0,90.0,6.0,0.0
6463,85.0,90.0,90.0,5.0,0.0
6464,62.0,0.0,180.0,4.0,0.0
6465,59.0,0.0,180.0,4.0,0.0
6466,66.0,0.0,1440.0,3.0,0.0
6467,74.0,0.0,90.0,6.0,0.0
6468,90.0,0.0,180.0,4.0,0.0
6469,54.0,0.0,180.0,4.0,0.0
6470,54.0,0.0,1440.0,3.0,0.0
6471,86.0,90.0,90.0,5.0,0.0
6472,65.0,0.0,90.0,6.0,0.0
6473,77.0,71.0,90.0,5.0,0.0
6474,66.0,0.0,90.0,6.0,0.0
6475,83.0,19.0,60.0,4.0,0.0
6476,78.0,90.0,90.0,5.0,0.0
6477,77.0,0.0,90.0,5.0,0.0
6478,65.0,90.0,90.0,6.0,0.0
6479,62.0,0.0,180.0,4.0,0.0
6480,78.0,82.0,90.0,5.0,0.0
6481,59.0,0.0,180.0,4.0,0.0
6482,54.0,0.0,180.0,4.0,0.0
6483,86.0,72.0,180.0,4.0,0.0
6484,66.0,0.0,90.0,6.0,0.0
6485,73.0,0.0,90.0,5.0,0.0
6486,61.0,0.0,90.0,6.0,0.0
6487,62.0,103.0,90.0,6.0,0.0
6488,78.0,13.0,60.0,4.0,0.0
6489,74.0,0.0,90.0,5.0,0.0
6490,73.0,0.0,90.0,5.0,0.0
6491,61.0,84.0,90.0,6.0,0.0
6492,59.0,78.0,540.0,7.0,0.0
6493,59.0,78.0,360.0,4.0,0.0
6494,54.0,53.0,660.0,4.0,0.0
6495,42.0,0.0,720.0,10.0,0.0
6496,83.0,0.0,90.0,4.0,0.0
6497,62.0,0.0,360.0,4.0,0.0
6498,54.0,0.0,720.0,8.0,0.0
6499,62.0,24.0,510.0,6.0,0.0
6500,74.0,90.0,90.0,5.0,0.0
6501,71.0,0.0,90.0,5.0,0.0
6502,74.0,79.0,90.0,4.0,0.0
6503,78.0,0.0,360.0,4.0,0.0
6504,66.0,90.0,90.0,5.0,0.0
6505,66.0,17.0,90.0,5.0,0.0
6506,66.0,0.0,180.0,4.0,0.0
6507,66.0,66.0,90.0,5.0,0.0
6508,62.0,0.0,180.0,4.0,0.0
6509,66.0,12.0,90.0,5.0,0.0
6510,61.0,0.0,120.0,4.0,0.0
6511,70.0,0.0,180.0,4.0,0.0
6512,64.0,0.0,120.0,4.0,0.0
6513,66.0,37.0,90.0,5.0,0.0
6514,61.0,0.0,180.0,6.0,0.0
6515,58.0,78.0,180.0,7.0,0.0
6516,66.0,12.0,90.0,5.0,0.0
6517,62.0,90.0,90.0,6.0,0.0
6518,47.0,0.0,180.0,10.0,0.0
6519,59.0,0.0,90.0,7.0,0.0
6520,59.0,0.0,360.0,3.0,0.0
6521,66.0,0.0,90.0,5.0,0.0
6522,59.0,78.0,180.0,8.0,0.0
6523,62.0,0.0,360.0,4.0,0.0
6524,71.0,0.0,360.0,4.0,0.0
6525,59.0,0.0,360.0,4.0,0.0
6526,66.0,0.0,90.0,5.0,0.0
6527,62.0,12.0,90.0,6.0,0.0
6528,59.0,0.0,90.0,7.0,0.0
6529,54.0,78.0,180.0,8.0,0.0
6530,59.0,0.0,90.0,7.0,0.0
6531,62.0,90.0,90.0,6.0,0.0
6532,66.0,0.0,90.0,5.0,0.0
6533,42.0,0.0,180.0,10.0,0.0
6534,59.0,0.0,90.0,7.0,0.0
6535,62.0,12.0,90.0,6.0,0.0
6536,66.0,0.0,90.0,5.0,0.0
6537,62.0,0.0,90.0,6.0,0.0
6538,54.0,0.0,90.0,2.0,0.0
6539,66.0,0.0,90.0,5.0,0.0
6540,66.0,80.0,90.0,1.0,0.0
6541,47.0,0.0,180.0,10.0,0.0
6542,59.0,10.0,90.0,7.0,0.0
6543,59.0,78.0,180.0,8.0,0.0
6544,59.0,12.0,90.0,7.0,0.0
6545,62.0,0.0,90.0,6.0,0.0
6546,66.0,0.0,90.0,5.0,0.0
6547,62.0,10.0,90.0,6.0,0.0
6548,42.0,78.0,180.0,10.0,0.0
6549,54.0,0.0,180.0,8.0,0.0
6550,59.0,0.0,90.0,7.0,0.0
6551,66.0,0.0,90.0,1.0,0.0
6552,66.0,0.0,90.0,5.0,0.0
6553,54.0,80.0,90.0,2.0,0.0
6554,66.0,12.0,90.0,5.0,0.0
6555,62.0,0.0,90.0,6.0,0.0
6556,59.0,0.0,90.0,7.0,0.0
6557,67.0,71.0,180.0,1.0,0.0
6558,64.0,90.0,90.0,5.0,0.0
6559,58.0,0.0,90.0,7.0,0.0
6560,61.0,0.0,90.0,6.0,0.0
6561,46.0,0.0,180.0,10.0,0.0
6562,55.0,0.0,180.0,2.0,0.0
6563,58.0,0.0,180.0,8.0,0.0
6564,61.0,12.0,90.0,6.0,0.0
6565,64.0,0.0,90.0,5.0,0.0
6566,58.0,0.0,90.0,7.0,0.0
6567,61.0,0.0,90.0,6.0,0.0
6568,42.0,78.0,180.0,10.0,0.0
6569,66.0,7.0,60.0,1.0,0.0
6570,54.0,0.0,180.0,8.0,0.0
6571,64.0,90.0,90.0,5.0,0.0
6572,54.0,0.0,60.0,2.0,0.0
6573,58.0,0.0,90.0,7.0,0.0
6574,61.0,0.0,90.0,6.0,0.0
6575,58.0,0.0,90.0,7.0,0.0
6576,64.0,12.0,90.0,5.0,0.0
6577,61.0,0.0,90.0,6.0,0.0
6578,58.0,0.0,180.0,8.0,0.0
6579,64.0,0.0,90.0,5.0,0.0
6580,58.0,90.0,90.0,7.0,0.0
6581,70.0,0.0,180.0,4.0,0.0
6582,66.0,0.0,180.0,4.0,0.0
6583,90.0,0.0,180.0,4.0,0.0
6584,46.0,0.0,180.0,10.0,0.0
6585,64.0,0.0,90.0,5.0,0.0
6586,61.0,12.0,90.0,6.0,0.0
6587,58.0,0.0,90.0,7.0,0.0
6588,73.0,78.0,15.0,4.0,0.0
6589,61.0,90.0,90.0,6.0,0.0
6590,64.0,0.0,90.0,5.0,0.0
6591,54.0,0.0,180.0,8.0,0.0
6592,66.0,0.0,180.0,4.0,0.0
6593,66.0,0.0,15.0,3.0,0.0
6594,70.0,0.0,180.0,4.0,0.0
6595,42.0,0.0,180.0,10.0,0.0
6596,58.0,0.0,90.0,7.0,0.0
6597,90.0,0.0,180.0,4.0,0.0
6598,64.0,12.0,90.0,5.0,0.0
6599,61.0,0.0,90.0,6.0,0.0
6600,58.0,0.0,90.0,7.0,0.0
6601,59.0,0.0,180.0,8.0,0.0
6602,74.0,0.0,360.0,4.0,0.0
6603,71.0,0.0,360.0,4.0,0.0
6604,86.0,0.0,360.0,4.0,0.0
6605,59.0,12.0,90.0,7.0,0.0
6606,62.0,0.0,90.0,5.0,0.0
6607,59.0,0.0,180.0,3.0,0.0
6608,66.0,78.0,15.0,3.0,0.0
6609,47.0,43.0,180.0,10.0,0.0
6610,59.0,71.0,90.0,6.0,0.0
6611,62.0,0.0,60.0,6.0,0.0
6612,66.0,7.0,60.0,5.0,0.0
6613,59.0,12.0,90.0,7.0,0.0
6614,62.0,0.0,40.0,6.0,0.0
6615,59.0,55.0,90.0,7.0,0.0
6616,66.0,35.0,40.0,5.0,0.0
6617,42.0,0.0,180.0,10.0,0.0
6618,54.0,78.0,180.0,8.0,0.0
6619,66.0,35.0,40.0,5.0,0.0
6620,62.0,0.0,40.0,6.0,0.0
6621,59.0,12.0,90.0,7.0,0.0
6622,78.0,80.0,90.0,0.0,0.0
6623,66.0,0.0,90.0,1.0,0.0
6624,47.0,0.0,180.0,10.0,0.0
6625,62.0,0.0,90.0,6.0,0.0
6626,59.0,78.0,180.0,8.0,0.0
6627,66.0,10.0,90.0,5.0,0.0
6628,59.0,0.0,90.0,7.0,0.0
6629,62.0,0.0,90.0,6.0,0.0
6630,66.0,12.0,90.0,5.0,0.0
6631,59.0,0.0,90.0,7.0,0.0
6632,59.0,10.0,90.0,7.0,0.0
6633,66.0,80.0,90.0,1.0,0.0
6634,78.0,0.0,90.0,0.0,0.0
6635,42.0,78.0,180.0,10.0,0.0
6636,54.0,0.0,180.0,8.0,0.0
6637,66.0,0.0,90.0,5.0,0.0
6638,62.0,0.0,90.0,6.0,0.0
6639,59.0,0.0,90.0,7.0,0.0
6640,66.0,12.0,90.0,5.0,0.0
6641,62.0,0.0,90.0,6.0,0.0
6642,58.0,0.0,90.0,7.0,0.0
6643,58.0,0.0,180.0,8.0,0.0
6644,61.0,0.0,90.0,6.0,0.0
6645,67.0,71.0,180.0,1.0,0.0
6646,64.0,57.0,90.0,5.0,0.0
6647,79.0,33.0,120.0,0.0,0.0
6648,46.0,0.0,180.0,10.0,0.0
6649,58.0,0.0,90.0,7.0,0.0
6650,61.0,0.0,90.0,6.0,0.0
6651,64.0,12.0,90.0,5.0,0.0
6652,42.0,78.0,180.0,10.0,0.0
6653,61.0,12.0,90.0,6.0,0.0
6654,58.0,0.0,90.0,7.0,0.0
6655,54.0,0.0,180.0,8.0,0.0
6656,78.0,78.0,90.0,0.0,0.0
6657,64.0,0.0,90.0,5.0,0.0
6658,66.0,7.0,60.0,1.0,0.0
6659,64.0,0.0,90.0,5.0,0.0
6660,58.0,12.0,90.0,7.0,0.0
6661,61.0,0.0,90.0,6.0,0.0
6662,90.0,0.0,180.0,4.0,0.0
6663,58.0,0.0,180.0,8.0,0.0
6664,70.0,0.0,180.0,4.0,0.0
6665,73.0,78.0,180.0,4.0,0.0
6666,76.0,0.0,180.0,4.0,0.0
6667,58.0,90.0,90.0,7.0,0.0
6668,46.0,0.0,180.0,10.0,0.0
6669,64.0,0.0,90.0,5.0,0.0
6670,61.0,0.0,90.0,6.0,0.0
6671,58.0,0.0,90.0,7.0,0.0
6672,61.0,0.0,90.0,6.0,0.0
6673,64.0,12.0,90.0,5.0,0.0
6674,66.0,0.0,15.0,4.0,0.0
6675,66.0,0.0,15.0,3.0,0.0
6676,54.0,0.0,180.0,8.0,0.0
6677,76.0,0.0,180.0,4.0,0.0
6678,73.0,180.0,180.0,4.0,0.0
6679,70.0,0.0,180.0,4.0,0.0
6680,58.0,0.0,90.0,7.0,0.0
6681,64.0,0.0,90.0,5.0,0.0
6682,90.0,0.0,180.0,4.0,0.0
6683,42.0,0.0,180.0,10.0,0.0
6684,61.0,90.0,90.0,6.0,0.0
6685,61.0,12.0,90.0,6.0,0.0
6686,58.0,0.0,90.0,7.0,0.0
6687,64.0,0.0,90.0,5.0,0.0
6688,59.0,0.0,180.0,7.0,0.0
6689,66.0,0.0,15.0,3.0,0.0
6690,59.0,0.0,180.0,3.0,0.0
6691,62.0,0.0,180.0,5.0,0.0
6692,59.0,0.0,180.0,8.0,0.0
6693,47.0,0.0,180.0,10.0,0.0
6694,59.0,0.0,180.0,6.0,0.0
6695,74.0,0.0,180.0,4.0,0.0
6696,71.0,0.0,180.0,4.0,0.0
6697,83.0,0.0,180.0,4.0,0.0
6698,83.0,0.0,180.0,0.0,0.0
6699,74.0,0.0,180.0,1.0,0.0
6700,62.0,0.0,180.0,2.0,0.0
6701,71.0,0.0,180.0,1.0,0.0
6702,59.0,180.0,15.0,2.0,0.0
6703,54.0,0.0,180.0,2.0,0.0
6704,78.0,0.0,180.0,4.0,0.0
6705,86.0,0.0,180.0,4.0,0.0
6706,59.0,0.0,180.0,4.0,0.0
6707,35.0,156.0,180.0,10.0,0.0
6708,71.0,0.0,180.0,4.0,0.0
6709,47.0,0.0,180.0,8.0,0.0
6710,74.0,0.0,180.0,1.0,0.0
6711,59.0,0.0,180.0,6.0,0.0
6712,54.0,0.0,180.0,7.0,0.0
6713,78.0,0.0,180.0,1.0,0.0
6714,59.0,0.0,180.0,3.0,0.0
6715,86.0,0.0,180.0,0.0,0.0
6716,62.0,0.0,180.0,5.0,0.0
6717,54.0,180.0,180.0,2.0,0.0
6718,59.0,0.0,180.0,3.0,0.0
6719,66.0,0.0,15.0,3.0,0.0
6720,90.0,24.0,150.0,0.0,0.0
6721,83.0,0.0,150.0,1.0,0.0
6722,78.0,0.0,150.0,1.0,0.0
6723,50.0,0.0,180.0,2.0,0.0
6724,54.0,0.0,180.0,7.0,0.0
6725,59.0,0.0,180.0,6.0,0.0
6726,74.0,0.0,180.0,4.0,0.0
6727,47.0,0.0,180.0,2.0,0.0
6728,83.0,0.0,180.0,4.0,0.0
6729,62.0,0.0,180.0,5.0,0.0
6730,59.0,0.0,180.0,3.0,0.0
6731,66.0,1981.0,180.0,3.0,0.0
6732,50.0,0.0,180.0,2.0,0.0
6733,83.0,0.0,180.0,1.0,0.0
6734,47.0,0.0,180.0,8.0,0.0
6735,35.0,0.0,180.0,10.0,0.0
6736,95.0,0.0,180.0,0.0,0.0
6737,71.0,0.0,180.0,4.0,0.0
6738,59.0,0.0,180.0,4.0,0.0
6739,86.0,0.0,180.0,1.0,0.0
