,note,step,duration,channel,velocity
0,54.0,0.0,780.0,13.0,0.0
1,42.0,336.0,780.0,14.0,0.0
2,66.0,432.0,180.0,10.0,0.0
3,61.0,0.0,180.0,11.0,0.0
4,57.0,0.0,180.0,12.0,0.0
5,66.0,0.0,390.0,10.0,0.0
6,61.0,144.0,390.0,11.0,0.0
7,57.0,0.0,390.0,12.0,0.0
8,57.0,480.0,390.0,12.0,0.0
9,61.0,0.0,390.0,11.0,0.0
10,66.0,0.0,390.0,10.0,0.0
11,66.0,0.0,390.0,10.0,0.0
12,61.0,0.0,390.0,11.0,0.0
13,57.0,176.0,390.0,12.0,0.0
14,37.0,0.0,90.0,14.0,0.0
15,61.0,0.0,420.0,11.0,0.0
16,66.0,432.0,420.0,10.0,0.0
17,49.0,80.0,90.0,13.0,0.0
18,57.0,0.0,420.0,12.0,0.0
19,39.0,80.0,90.0,14.0,0.0
20,51.0,0.0,90.0,13.0,0.0
21,53.0,0.0,90.0,13.0,0.0
22,41.0,192.0,90.0,14.0,0.0
23,42.0,336.0,780.0,14.0,0.0
24,54.0,0.0,780.0,13.0,0.0
25,57.0,144.0,390.0,12.0,0.0
26,61.0,0.0,390.0,11.0,0.0
27,66.0,0.0,390.0,10.0,0.0
28,57.0,480.0,390.0,12.0,0.0
29,61.0,0.0,390.0,11.0,0.0
30,66.0,0.0,390.0,10.0,0.0
31,61.0,0.0,390.0,11.0,0.0
32,57.0,176.0,390.0,12.0,0.0
33,66.0,0.0,390.0,10.0,0.0
34,66.0,0.0,420.0,10.0,0.0
35,61.0,0.0,420.0,11.0,0.0
36,49.0,0.0,90.0,13.0,0.0
37,37.0,80.0,90.0,14.0,0.0
38,57.0,432.0,420.0,12.0,0.0
39,51.0,80.0,90.0,13.0,0.0
40,39.0,0.0,90.0,14.0,0.0
41,53.0,192.0,90.0,13.0,0.0
42,41.0,0.0,90.0,14.0,0.0
43,42.0,0.0,780.0,14.0,0.0
44,54.0,336.0,780.0,13.0,0.0
45,61.0,0.0,390.0,11.0,0.0
46,57.0,0.0,390.0,12.0,0.0
47,61.0,144.0,390.0,10.0,0.0
48,54.0,480.0,390.0,12.0,0.0
49,69.0,0.0,390.0,10.0,0.0
50,61.0,0.0,390.0,11.0,0.0
51,56.0,0.0,390.0,12.0,0.0
52,61.0,0.0,390.0,11.0,0.0
53,68.0,156.0,390.0,10.0,0.0
54,49.0,0.0,60.0,13.0,0.0
55,61.0,0.0,420.0,11.0,0.0
56,37.0,60.0,60.0,14.0,0.0
57,57.0,0.0,240.0,12.0,0.0
58,66.0,432.0,420.0,10.0,0.0
59,51.0,60.0,60.0,13.0,0.0
60,39.0,0.0,60.0,14.0,0.0
61,53.0,60.0,60.0,13.0,0.0
62,41.0,0.0,60.0,14.0,0.0
63,42.0,0.0,60.0,14.0,0.0
64,54.0,192.0,60.0,13.0,0.0
65,56.0,336.0,780.0,13.0,0.0
66,44.0,0.0,780.0,14.0,0.0
67,59.0,0.0,180.0,12.0,0.0
68,65.0,0.0,390.0,10.0,0.0
69,59.0,144.0,390.0,12.0,0.0
70,61.0,0.0,390.0,11.0,0.0
71,65.0,0.0,390.0,10.0,0.0
72,59.0,480.0,390.0,12.0,0.0
73,61.0,0.0,390.0,11.0,0.0
74,65.0,528.0,390.0,10.0,0.0
75,59.0,0.0,390.0,12.0,0.0
76,61.0,0.0,390.0,11.0,0.0
77,59.0,0.0,420.0,12.0,0.0
78,67.0,432.0,420.0,10.0,0.0
79,61.0,0.0,420.0,11.0,0.0
80,41.0,336.0,780.0,14.0,0.0
81,53.0,0.0,780.0,13.0,0.0
82,59.0,0.0,390.0,12.0,0.0
83,68.0,0.0,390.0,10.0,0.0
84,61.0,144.0,390.0,11.0,0.0
85,61.0,0.0,390.0,11.0,0.0
86,68.0,0.0,390.0,10.0,0.0
87,59.0,480.0,390.0,12.0,0.0
88,68.0,216.0,390.0,10.0,0.0
89,59.0,0.0,390.0,12.0,0.0
90,61.0,0.0,390.0,11.0,0.0
91,68.0,432.0,420.0,10.0,0.0
92,49.0,120.0,120.0,13.0,0.0
93,59.0,0.0,420.0,12.0,0.0
94,61.0,0.0,420.0,11.0,0.0
95,37.0,0.0,120.0,14.0,0.0
96,39.0,0.0,120.0,14.0,0.0
97,51.0,192.0,120.0,13.0,0.0
98,41.0,336.0,780.0,14.0,0.0
99,53.0,0.0,780.0,13.0,0.0
100,61.0,0.0,390.0,11.0,0.0
101,59.0,144.0,390.0,12.0,0.0
102,68.0,0.0,390.0,10.0,0.0
103,68.0,0.0,390.0,10.0,0.0
104,61.0,480.0,390.0,11.0,0.0
105,59.0,0.0,390.0,12.0,0.0
106,68.0,0.0,390.0,10.0,0.0
107,59.0,216.0,390.0,12.0,0.0
108,61.0,0.0,390.0,11.0,0.0
109,37.0,120.0,120.0,14.0,0.0
110,59.0,0.0,420.0,12.0,0.0
111,68.0,0.0,420.0,10.0,0.0
112,61.0,432.0,420.0,11.0,0.0
113,49.0,0.0,120.0,13.0,0.0
114,51.0,0.0,120.0,13.0,0.0
115,39.0,192.0,120.0,14.0,0.0
116,41.0,336.0,780.0,14.0,0.0
117,53.0,0.0,780.0,13.0,0.0
118,59.0,0.0,390.0,12.0,0.0
119,61.0,144.0,390.0,11.0,0.0
120,61.0,0.0,390.0,10.0,0.0
121,56.0,0.0,390.0,12.0,0.0
122,71.0,480.0,390.0,10.0,0.0
123,61.0,0.0,390.0,11.0,0.0
124,57.0,176.0,390.0,12.0,0.0
125,61.0,0.0,390.0,11.0,0.0
126,69.0,0.0,390.0,10.0,0.0
127,68.0,0.0,420.0,10.0,0.0
128,61.0,432.0,420.0,11.0,0.0
129,59.0,0.0,240.0,12.0,0.0
130,37.0,80.0,90.0,14.0,0.0
131,49.0,0.0,90.0,13.0,0.0
132,51.0,0.0,90.0,13.0,0.0
133,39.0,80.0,90.0,14.0,0.0
134,41.0,0.0,90.0,14.0,0.0
135,53.0,192.0,90.0,13.0,0.0
136,42.0,336.0,780.0,14.0,0.0
137,54.0,0.0,4740.0,3.0,0.0
138,66.0,192.0,4740.0,3.0,0.0
139,57.0,0.0,180.0,12.0,0.0
140,54.0,0.0,780.0,13.0,0.0
141,66.0,0.0,390.0,10.0,0.0
142,61.0,144.0,390.0,11.0,0.0
143,57.0,0.0,390.0,12.0,0.0
144,57.0,0.0,390.0,12.0,0.0
145,61.0,480.0,390.0,11.0,0.0
146,66.0,0.0,390.0,10.0,0.0
147,66.0,0.0,390.0,11.0,0.0
148,66.0,176.0,390.0,10.0,0.0
149,57.0,0.0,390.0,12.0,0.0
150,66.0,192.0,420.0,11.0,0.0
151,42.0,0.0,90.0,14.0,0.0
152,66.0,192.0,240.0,10.0,0.0
153,54.0,80.0,90.0,13.0,0.0
154,61.0,0.0,240.0,12.0,0.0
155,44.0,0.0,90.0,14.0,0.0
156,56.0,80.0,90.0,13.0,0.0
157,57.0,0.0,90.0,13.0,0.0
158,45.0,0.0,90.0,14.0,0.0
159,59.0,240.0,390.0,13.0,0.0
160,62.0,0.0,180.0,12.0,0.0
161,47.0,0.0,390.0,14.0,0.0
162,69.0,0.0,180.0,10.0,0.0
163,62.0,0.0,390.0,12.0,0.0
164,66.0,0.0,390.0,11.0,0.0
165,68.0,160.0,390.0,10.0,0.0
166,56.0,0.0,60.0,13.0,0.0
167,44.0,80.0,60.0,14.0,0.0
168,68.0,144.0,240.0,10.0,0.0
169,66.0,48.0,390.0,11.0,0.0
170,62.0,0.0,240.0,12.0,0.0
171,57.0,0.0,60.0,13.0,0.0
172,45.0,80.0,60.0,14.0,0.0
173,59.0,16.0,60.0,13.0,0.0
174,47.0,0.0,60.0,14.0,0.0
175,71.0,0.0,180.0,10.0,0.0
176,49.0,0.0,390.0,14.0,0.0
177,64.0,192.0,180.0,12.0,0.0
178,61.0,240.0,390.0,13.0,0.0
179,64.0,0.0,390.0,12.0,0.0
180,70.0,0.0,390.0,10.0,0.0
181,66.0,160.0,390.0,11.0,0.0
182,58.0,0.0,60.0,13.0,0.0
183,64.0,192.0,240.0,12.0,0.0
184,66.0,0.0,1020.0,11.0,0.0
185,46.0,80.0,60.0,14.0,0.0
186,70.0,0.0,240.0,10.0,0.0
187,47.0,80.0,60.0,14.0,0.0
188,59.0,0.0,60.0,13.0,0.0
189,61.0,16.0,60.0,13.0,0.0
190,49.0,0.0,60.0,14.0,0.0
191,73.0,432.0,180.0,10.0,0.0
192,50.0,0.0,780.0,14.0,0.0
193,62.0,144.0,780.0,12.0,0.0
194,62.0,0.0,780.0,13.0,0.0
195,71.0,144.0,390.0,10.0,0.0
196,71.0,480.0,390.0,10.0,0.0
197,68.0,192.0,3780.0,2.0,0.0
198,56.0,0.0,3780.0,2.0,0.0
199,68.0,0.0,390.0,10.0,0.0
200,68.0,176.0,390.0,11.0,0.0
201,56.0,0.0,90.0,13.0,0.0
202,68.0,0.0,240.0,10.0,0.0
203,68.0,0.0,420.0,11.0,0.0
204,44.0,80.0,90.0,14.0,0.0
205,58.0,0.0,90.0,13.0,0.0
206,46.0,80.0,90.0,14.0,0.0
207,59.0,0.0,90.0,13.0,0.0
208,47.0,192.0,90.0,14.0,0.0
209,49.0,240.0,390.0,14.0,0.0
210,61.0,0.0,390.0,13.0,0.0
211,71.0,192.0,180.0,10.0,0.0
212,64.0,0.0,180.0,12.0,0.0
213,64.0,0.0,390.0,12.0,0.0
214,68.0,176.0,390.0,11.0,0.0
215,70.0,0.0,390.0,10.0,0.0
216,68.0,48.0,390.0,11.0,0.0
217,64.0,144.0,240.0,12.0,0.0
218,58.0,0.0,90.0,13.0,0.0
219,70.0,0.0,240.0,10.0,0.0
220,46.0,80.0,90.0,14.0,0.0
221,59.0,0.0,90.0,13.0,0.0
222,47.0,80.0,90.0,14.0,0.0
223,61.0,0.0,90.0,13.0,0.0
224,49.0,0.0,90.0,14.0,0.0
225,62.0,0.0,390.0,13.0,0.0
226,50.0,240.0,390.0,14.0,0.0
227,66.0,192.0,180.0,12.0,0.0
228,73.0,0.0,180.0,10.0,0.0
229,68.0,0.0,390.0,11.0,0.0
230,66.0,0.0,390.0,12.0,0.0
231,71.0,176.0,390.0,10.0,0.0
232,71.0,0.0,240.0,10.0,0.0
233,48.0,80.0,90.0,14.0,0.0
234,60.0,0.0,90.0,13.0,0.0
235,68.0,0.0,1020.0,11.0,0.0
236,66.0,0.0,240.0,12.0,0.0
237,61.0,0.0,90.0,13.0,0.0
238,49.0,80.0,90.0,14.0,0.0
239,50.0,192.0,90.0,14.0,0.0
240,62.0,0.0,90.0,13.0,0.0
241,64.0,0.0,780.0,13.0,0.0
242,52.0,144.0,780.0,14.0,0.0
243,75.0,432.0,180.0,10.0,0.0
244,64.0,0.0,780.0,12.0,0.0
245,73.0,144.0,390.0,10.0,0.0
246,73.0,480.0,390.0,10.0,0.0
247,85.0,0.0,3750.0,1.0,0.0
248,73.0,0.0,3270.0,1.0,0.0
249,73.0,0.0,390.0,11.0,0.0
250,73.0,176.0,390.0,10.0,0.0
251,49.0,0.0,90.0,14.0,0.0
252,73.0,0.0,240.0,10.0,0.0
253,61.0,80.0,90.0,13.0,0.0
254,73.0,192.0,420.0,11.0,0.0
255,51.0,0.0,90.0,14.0,0.0
256,63.0,80.0,90.0,13.0,0.0
257,52.0,192.0,90.0,14.0,0.0
258,64.0,0.0,90.0,13.0,0.0
259,54.0,0.0,390.0,14.0,0.0
260,66.0,240.0,390.0,13.0,0.0
261,76.0,0.0,180.0,10.0,0.0
262,69.0,0.0,180.0,12.0,0.0
263,75.0,0.0,390.0,10.0,0.0
264,69.0,176.0,390.0,12.0,0.0
265,73.0,0.0,390.0,11.0,0.0
266,73.0,48.0,390.0,11.0,0.0
267,75.0,0.0,240.0,10.0,0.0
268,63.0,80.0,90.0,13.0,0.0
269,51.0,0.0,90.0,14.0,0.0
270,69.0,0.0,240.0,12.0,0.0
271,52.0,0.0,90.0,14.0,0.0
272,64.0,80.0,90.0,13.0,0.0
273,66.0,0.0,90.0,13.0,0.0
274,54.0,144.0,90.0,14.0,0.0
275,71.0,0.0,180.0,12.0,0.0
276,78.0,192.0,180.0,10.0,0.0
277,56.0,0.0,390.0,14.0,0.0
278,68.0,240.0,390.0,13.0,0.0
279,77.0,0.0,390.0,10.0,0.0
280,73.0,0.0,390.0,11.0,0.0
281,71.0,176.0,390.0,12.0,0.0
282,73.0,48.0,180.0,11.0,0.0
283,77.0,0.0,180.0,10.0,0.0
284,65.0,80.0,90.0,13.0,0.0
285,71.0,192.0,240.0,12.0,0.0
286,53.0,0.0,90.0,14.0,0.0
287,66.0,0.0,90.0,13.0,0.0
288,54.0,32.0,90.0,14.0,0.0
289,68.0,0.0,90.0,13.0,0.0
290,56.0,0.0,90.0,14.0,0.0
291,69.0,0.0,390.0,13.0,0.0
292,57.0,0.0,390.0,14.0,0.0
293,69.0,240.0,390.0,12.0,0.0
294,80.0,0.0,180.0,10.0,0.0
295,73.0,192.0,180.0,11.0,0.0
296,78.0,0.0,390.0,10.0,0.0
297,73.0,240.0,390.0,11.0,0.0
298,45.0,0.0,390.0,14.0,0.0
299,66.0,96.0,780.0,12.0,0.0
300,90.0,0.0,390.0,0.0,0.0
301,57.0,48.0,390.0,13.0,0.0
302,73.0,192.0,180.0,11.0,0.0
303,78.0,48.0,390.0,10.0,0.0
304,90.0,0.0,180.0,0.0,0.0
305,59.0,240.0,390.0,13.0,0.0
306,74.0,0.0,180.0,11.0,0.0
307,47.0,0.0,390.0,14.0,0.0
308,86.0,96.0,180.0,1.0,0.0
309,85.0,0.0,390.0,1.0,0.0
310,88.0,0.0,390.0,0.0,0.0
311,76.0,0.0,390.0,10.0,0.0
312,73.0,240.0,390.0,11.0,0.0
313,59.0,288.0,390.0,13.0,0.0
314,66.0,0.0,870.0,12.0,0.0
315,47.0,0.0,390.0,14.0,0.0
316,74.0,0.0,420.0,10.0,0.0
317,86.0,192.0,420.0,0.0,0.0
318,71.0,0.0,420.0,11.0,0.0
319,83.0,0.0,420.0,1.0,0.0
320,61.0,240.0,390.0,13.0,0.0
321,49.0,0.0,390.0,14.0,0.0
322,69.0,240.0,390.0,11.0,0.0
323,81.0,0.0,390.0,1.0,0.0
324,85.0,0.0,390.0,0.0,0.0
325,73.0,0.0,390.0,10.0,0.0
326,49.0,0.0,390.0,14.0,0.0
327,61.0,0.0,390.0,13.0,0.0
328,61.0,240.0,390.0,12.0,0.0
329,71.0,0.0,390.0,10.0,0.0
330,83.0,0.0,390.0,0.0,0.0
331,80.0,240.0,390.0,1.0,0.0
332,68.0,0.0,390.0,11.0,0.0
333,61.0,0.0,390.0,13.0,0.0
334,49.0,240.0,390.0,14.0,0.0
335,61.0,0.0,390.0,12.0,0.0
336,69.0,176.0,390.0,10.0,0.0
337,81.0,0.0,390.0,0.0,0.0
338,78.0,0.0,390.0,1.0,0.0
339,66.0,0.0,390.0,11.0,0.0
340,61.0,16.0,390.0,12.0,0.0
341,37.0,64.0,90.0,14.0,0.0
342,68.0,0.0,180.0,10.0,0.0
343,77.0,24.0,180.0,1.0,0.0
344,49.0,0.0,90.0,13.0,0.0
345,80.0,0.0,180.0,0.0,0.0
346,65.0,0.0,180.0,11.0,0.0
347,39.0,32.0,90.0,14.0,0.0
348,51.0,0.0,90.0,13.0,0.0
349,61.0,0.0,90.0,3.0,0.0
350,49.0,24.0,90.0,3.0,0.0
351,41.0,96.0,90.0,14.0,0.0
352,53.0,0.0,90.0,13.0,0.0
353,54.0,0.0,5670.0,2.0,0.0
354,66.0,0.0,1830.0,1.0,0.0
355,78.0,16.0,1830.0,1.0,0.0
356,54.0,0.0,780.0,13.0,0.0
357,78.0,0.0,1830.0,0.0,0.0
358,57.0,0.0,90.0,12.0,0.0
359,42.0,36.0,5670.0,2.0,0.0
360,78.0,0.0,390.0,4.0,0.0
361,66.0,0.0,390.0,4.0,0.0
362,42.0,0.0,780.0,14.0,0.0
363,66.0,120.0,90.0,11.0,0.0
364,54.0,32.0,780.0,3.0,0.0
365,66.0,0.0,780.0,3.0,0.0
366,66.0,0.0,390.0,10.0,0.0
367,54.0,72.0,390.0,5.0,0.0
368,61.0,120.0,90.0,11.0,0.0
369,57.0,0.0,90.0,12.0,0.0
370,57.0,0.0,90.0,12.0,0.0
371,61.0,48.0,90.0,11.0,0.0
372,57.0,0.0,90.0,12.0,0.0
373,61.0,120.0,90.0,11.0,0.0
374,57.0,120.0,90.0,12.0,0.0
375,61.0,0.0,90.0,11.0,0.0
376,61.0,0.0,90.0,11.0,0.0
377,57.0,72.0,90.0,12.0,0.0
378,61.0,64.0,90.0,11.0,0.0
379,57.0,0.0,90.0,12.0,0.0
380,61.0,16.0,90.0,10.0,0.0
381,63.0,56.0,90.0,10.0,0.0
382,57.0,0.0,90.0,12.0,0.0
383,61.0,24.0,90.0,11.0,0.0
384,65.0,96.0,90.0,10.0,0.0
385,66.0,96.0,480.0,10.0,0.0
386,57.0,0.0,90.0,12.0,0.0
387,61.0,120.0,90.0,11.0,0.0
388,57.0,120.0,90.0,12.0,0.0
389,61.0,0.0,90.0,11.0,0.0
390,57.0,0.0,90.0,12.0,0.0
391,61.0,120.0,90.0,11.0,0.0
392,61.0,24.0,90.0,11.0,0.0
393,57.0,0.0,90.0,12.0,0.0
394,57.0,120.0,90.0,12.0,0.0
395,61.0,0.0,90.0,11.0,0.0
396,61.0,0.0,90.0,11.0,0.0
397,57.0,104.0,90.0,12.0,0.0
398,61.0,0.0,90.0,11.0,0.0
399,57.0,48.0,90.0,12.0,0.0
400,61.0,16.0,90.0,13.0,0.0
401,49.0,0.0,90.0,14.0,0.0
402,63.0,0.0,90.0,13.0,0.0
403,51.0,56.0,90.0,14.0,0.0
404,49.0,0.0,90.0,3.0,0.0
405,57.0,0.0,90.0,12.0,0.0
406,61.0,0.0,90.0,11.0,0.0
407,61.0,24.0,90.0,3.0,0.0
408,65.0,0.0,90.0,13.0,0.0
409,53.0,96.0,90.0,14.0,0.0
410,54.0,0.0,780.0,14.0,0.0
411,66.0,0.0,390.0,4.0,0.0
412,66.0,0.0,780.0,13.0,0.0
413,57.0,0.0,90.0,12.0,0.0
414,90.0,0.0,2220.0,0.0,0.0
415,85.0,24.0,2220.0,1.0,0.0
416,54.0,0.0,390.0,5.0,0.0
417,54.0,0.0,780.0,3.0,0.0
418,61.0,120.0,90.0,11.0,0.0
419,81.0,0.0,2220.0,1.0,0.0
420,66.0,32.0,780.0,3.0,0.0
421,78.0,72.0,390.0,4.0,0.0
422,57.0,120.0,90.0,12.0,0.0
423,61.0,0.0,90.0,11.0,0.0
424,57.0,48.0,90.0,12.0,0.0
425,61.0,0.0,90.0,11.0,0.0
426,57.0,0.0,90.0,12.0,0.0
427,61.0,120.0,90.0,11.0,0.0
428,57.0,0.0,90.0,12.0,0.0
429,61.0,120.0,90.0,11.0,0.0
430,57.0,72.0,90.0,12.0,0.0
431,61.0,0.0,90.0,11.0,0.0
432,73.0,16.0,90.0,10.0,0.0
433,61.0,64.0,90.0,11.0,0.0
434,57.0,0.0,90.0,12.0,0.0
435,75.0,56.0,90.0,10.0,0.0
436,57.0,0.0,90.0,12.0,0.0
437,61.0,24.0,90.0,11.0,0.0
438,77.0,96.0,90.0,10.0,0.0
439,61.0,120.0,90.0,11.0,0.0
440,78.0,72.0,390.0,10.0,0.0
441,57.0,0.0,90.0,12.0,0.0
442,61.0,120.0,90.0,11.0,0.0
443,57.0,0.0,90.0,12.0,0.0
444,57.0,0.0,90.0,12.0,0.0
445,61.0,48.0,90.0,11.0,0.0
446,61.0,0.0,90.0,11.0,0.0
447,57.0,120.0,90.0,12.0,0.0
448,61.0,0.0,90.0,11.0,0.0
449,57.0,120.0,90.0,12.0,0.0
450,61.0,0.0,90.0,11.0,0.0
451,57.0,104.0,90.0,12.0,0.0
452,85.0,16.0,90.0,10.0,0.0
453,61.0,0.0,90.0,11.0,0.0
454,57.0,64.0,90.0,12.0,0.0
455,87.0,56.0,90.0,10.0,0.0
456,61.0,0.0,90.0,11.0,0.0
457,57.0,24.0,90.0,12.0,0.0
458,49.0,0.0,90.0,3.0,0.0
459,61.0,0.0,90.0,3.0,0.0
460,89.0,96.0,90.0,10.0,0.0
461,66.0,72.0,390.0,3.0,0.0
462,90.0,0.0,300.0,10.0,0.0
463,61.0,0.0,90.0,11.0,0.0
464,57.0,120.0,90.0,12.0,0.0
465,54.0,0.0,390.0,3.0,0.0
466,61.0,0.0,90.0,11.0,0.0
467,57.0,96.0,90.0,12.0,0.0
468,61.0,0.0,90.0,11.0,0.0
469,57.0,48.0,90.0,12.0,0.0
470,57.0,120.0,90.0,12.0,0.0
471,61.0,0.0,90.0,11.0,0.0
472,73.0,0.0,300.0,10.0,0.0
473,61.0,120.0,90.0,11.0,0.0
474,54.0,0.0,390.0,3.0,0.0
475,57.0,0.0,90.0,12.0,0.0
476,66.0,72.0,390.0,3.0,0.0
477,85.0,0.0,300.0,1.0,0.0
478,85.0,24.0,300.0,0.0,0.0
479,57.0,0.0,90.0,12.0,0.0
480,61.0,96.0,90.0,11.0,0.0
481,61.0,48.0,90.0,11.0,0.0
482,57.0,0.0,90.0,12.0,0.0
483,61.0,0.0,90.0,11.0,0.0
484,57.0,120.0,90.0,12.0,0.0
485,57.0,0.0,90.0,12.0,0.0
486,66.0,0.0,390.0,3.0,0.0
487,93.0,0.0,300.0,0.0,0.0
488,69.0,24.0,300.0,10.0,0.0
489,61.0,120.0,90.0,11.0,0.0
490,81.0,0.0,300.0,1.0,0.0
491,54.0,72.0,390.0,3.0,0.0
492,57.0,0.0,90.0,12.0,0.0
493,61.0,96.0,90.0,11.0,0.0
494,61.0,48.0,90.0,11.0,0.0
495,57.0,0.0,90.0,12.0,0.0
496,61.0,120.0,90.0,11.0,0.0
497,57.0,0.0,90.0,12.0,0.0
498,66.0,24.0,300.0,10.0,0.0
499,57.0,120.0,90.0,12.0,0.0
500,54.0,0.0,390.0,3.0,0.0
501,78.0,0.0,300.0,1.0,0.0
502,61.0,0.0,90.0,11.0,0.0
503,90.0,0.0,300.0,0.0,0.0
504,66.0,0.0,390.0,3.0,0.0
505,57.0,84.0,90.0,12.0,0.0
506,61.0,0.0,90.0,11.0,0.0
507,49.0,0.0,60.0,14.0,0.0
508,61.0,12.0,60.0,13.0,0.0
509,57.0,24.0,90.0,12.0,0.0
510,61.0,0.0,90.0,11.0,0.0
511,63.0,0.0,60.0,13.0,0.0
512,51.0,24.0,60.0,14.0,0.0
513,61.0,24.0,90.0,11.0,0.0
514,53.0,0.0,60.0,14.0,0.0
515,65.0,36.0,60.0,13.0,0.0
516,57.0,0.0,90.0,12.0,0.0
517,54.0,0.0,60.0,14.0,0.0
518,66.0,96.0,60.0,13.0,0.0
519,59.0,120.0,90.0,12.0,0.0
520,56.0,0.0,300.0,14.0,0.0
521,68.0,96.0,1920.0,3.0,0.0
522,62.0,0.0,90.0,11.0,0.0
523,65.0,24.0,780.0,10.0,0.0
524,44.0,36.0,1830.0,2.0,0.0
525,77.0,0.0,780.0,1.0,0.0
526,68.0,24.0,300.0,13.0,0.0
527,56.0,0.0,1830.0,2.0,0.0
528,89.0,0.0,780.0,0.0,0.0
529,62.0,0.0,90.0,11.0,0.0
530,59.0,96.0,90.0,12.0,0.0
531,59.0,120.0,90.0,12.0,0.0
532,62.0,0.0,90.0,11.0,0.0
533,59.0,0.0,90.0,12.0,0.0
534,62.0,120.0,90.0,11.0,0.0
535,62.0,120.0,90.0,11.0,0.0
536,53.0,24.0,300.0,14.0,0.0
537,59.0,0.0,90.0,12.0,0.0
538,65.0,0.0,300.0,13.0,0.0
539,59.0,72.0,90.0,12.0,0.0
540,62.0,0.0,90.0,11.0,0.0
541,62.0,0.0,90.0,11.0,0.0
542,59.0,120.0,90.0,12.0,0.0
543,62.0,120.0,90.0,11.0,0.0
544,59.0,0.0,90.0,12.0,0.0
545,62.0,0.0,90.0,11.0,0.0
546,47.0,24.0,300.0,14.0,0.0
547,59.0,0.0,300.0,13.0,0.0
548,59.0,120.0,90.0,12.0,0.0
549,59.0,0.0,90.0,12.0,0.0
550,62.0,96.0,90.0,11.0,0.0
551,62.0,120.0,90.0,11.0,0.0
552,59.0,0.0,90.0,12.0,0.0
553,62.0,120.0,90.0,11.0,0.0
554,59.0,0.0,90.0,12.0,0.0
555,44.0,24.0,300.0,14.0,0.0
556,56.0,0.0,300.0,13.0,0.0
557,62.0,0.0,90.0,11.0,0.0
558,59.0,120.0,90.0,12.0,0.0
559,59.0,0.0,90.0,12.0,0.0
560,62.0,84.0,90.0,11.0,0.0
561,59.0,24.0,90.0,12.0,0.0
562,62.0,0.0,90.0,11.0,0.0
563,80.0,12.0,60.0,10.0,0.0
564,81.0,24.0,60.0,10.0,0.0
565,62.0,24.0,90.0,11.0,0.0
566,59.0,0.0,90.0,12.0,0.0
567,83.0,36.0,60.0,10.0,0.0
568,85.0,0.0,60.0,10.0,0.0
569,57.0,0.0,90.0,12.0,0.0
570,54.0,0.0,780.0,13.0,0.0
571,86.0,0.0,300.0,10.0,0.0
572,54.0,0.0,300.0,3.0,0.0
573,42.0,24.0,780.0,14.0,0.0
574,66.0,24.0,300.0,3.0,0.0
575,62.0,120.0,90.0,11.0,0.0
576,54.0,16.0,1830.0,2.0,0.0
577,42.0,0.0,1830.0,2.0,0.0
578,57.0,0.0,90.0,12.0,0.0
579,62.0,96.0,90.0,11.0,0.0
580,57.0,0.0,90.0,12.0,0.0
581,62.0,120.0,90.0,11.0,0.0
582,62.0,0.0,90.0,11.0,0.0
583,57.0,120.0,90.0,12.0,0.0
584,69.0,0.0,300.0,10.0,0.0
585,93.0,0.0,300.0,0.0,0.0
586,66.0,24.0,300.0,3.0,0.0
587,81.0,0.0,300.0,1.0,0.0
588,62.0,120.0,90.0,11.0,0.0
589,54.0,0.0,300.0,3.0,0.0
590,57.0,0.0,90.0,12.0,0.0
591,57.0,72.0,90.0,12.0,0.0
592,62.0,0.0,90.0,11.0,0.0
593,62.0,120.0,90.0,11.0,0.0
594,57.0,0.0,90.0,12.0,0.0
595,62.0,0.0,90.0,11.0,0.0
596,57.0,120.0,90.0,12.0,0.0
597,78.0,0.0,300.0,1.0,0.0
598,66.0,0.0,300.0,10.0,0.0
599,90.0,0.0,300.0,0.0,0.0
600,90.0,0.0,300.0,1.0,0.0
601,62.0,0.0,90.0,11.0,0.0
602,66.0,24.0,300.0,3.0,0.0
603,54.0,0.0,300.0,3.0,0.0
604,57.0,120.0,90.0,12.0,0.0
605,57.0,0.0,90.0,12.0,0.0
606,62.0,96.0,90.0,11.0,0.0
607,57.0,0.0,90.0,12.0,0.0
608,62.0,120.0,90.0,11.0,0.0
609,62.0,120.0,90.0,11.0,0.0
610,57.0,0.0,90.0,12.0,0.0
611,86.0,0.0,300.0,1.0,0.0
612,74.0,0.0,300.0,1.0,0.0
613,62.0,0.0,300.0,10.0,0.0
614,86.0,0.0,300.0,0.0,0.0
615,62.0,120.0,90.0,11.0,0.0
616,54.0,0.0,300.0,3.0,0.0
617,57.0,0.0,90.0,12.0,0.0
618,66.0,8.0,300.0,3.0,0.0
619,57.0,96.0,90.0,12.0,0.0
620,62.0,0.0,90.0,11.0,0.0
621,57.0,0.0,90.0,14.0,0.0
622,69.0,16.0,90.0,13.0,0.0
623,62.0,0.0,90.0,11.0,0.0
624,57.0,48.0,90.0,12.0,0.0
625,56.0,0.0,90.0,14.0,0.0
626,68.0,56.0,90.0,13.0,0.0
627,62.0,24.0,90.0,11.0,0.0
628,57.0,0.0,90.0,12.0,0.0
629,54.0,384.0,90.0,14.0,0.0
630,66.0,0.0,90.0,13.0,0.0
631,49.0,0.0,390.0,5.0,0.0
632,61.0,240.0,720.0,11.0,0.0
633,56.0,0.0,720.0,12.0,0.0
634,53.0,0.0,720.0,2.0,0.0
635,73.0,0.0,720.0,1.0,0.0
636,85.0,0.0,720.0,1.0,0.0
637,53.0,0.0,720.0,14.0,0.0
638,61.0,0.0,390.0,4.0,0.0
639,73.0,0.0,390.0,4.0,0.0
640,85.0,0.0,720.0,0.0,0.0
641,49.0,336.0,390.0,3.0,0.0
642,65.0,0.0,720.0,13.0,0.0
643,61.0,0.0,720.0,10.0,0.0
644,61.0,0.0,390.0,3.0,0.0
645,62.0,240.0,240.0,10.0,0.0
646,66.0,0.0,240.0,13.0,0.0
647,54.0,0.0,240.0,2.0,0.0
648,57.0,0.0,240.0,12.0,0.0
649,54.0,0.0,240.0,14.0,0.0
650,86.0,0.0,240.0,1.0,0.0
651,74.0,0.0,240.0,1.0,0.0
652,62.0,0.0,240.0,11.0,0.0
653,86.0,0.0,240.0,0.0,0.0
654,73.0,240.0,240.0,1.0,0.0
655,61.0,0.0,240.0,11.0,0.0
656,85.0,0.0,240.0,0.0,0.0
657,53.0,0.0,240.0,2.0,0.0
658,61.0,0.0,240.0,10.0,0.0
659,65.0,0.0,240.0,13.0,0.0
660,56.0,0.0,240.0,12.0,0.0
661,85.0,0.0,240.0,1.0,0.0
662,53.0,0.0,240.0,14.0,0.0
663,60.0,0.0,240.0,11.0,0.0
664,84.0,0.0,240.0,1.0,0.0
665,54.0,0.0,240.0,14.0,0.0
666,66.0,0.0,240.0,13.0,0.0
667,57.0,240.0,240.0,12.0,0.0
668,72.0,0.0,240.0,1.0,0.0
669,54.0,0.0,240.0,2.0,0.0
670,60.0,0.0,240.0,10.0,0.0
671,84.0,0.0,240.0,0.0,0.0
672,65.0,0.0,240.0,13.0,0.0
673,61.0,192.0,240.0,11.0,0.0
674,73.0,0.0,240.0,1.0,0.0
675,53.0,0.0,240.0,2.0,0.0
676,85.0,0.0,240.0,0.0,0.0
677,61.0,0.0,240.0,10.0,0.0
678,53.0,0.0,240.0,14.0,0.0
679,56.0,0.0,240.0,12.0,0.0
680,85.0,0.0,240.0,1.0,0.0
681,54.0,0.0,180.0,14.0,0.0
682,84.0,0.0,240.0,1.0,0.0
683,57.0,0.0,180.0,12.0,0.0
684,84.0,0.0,240.0,0.0,0.0
685,60.0,0.0,240.0,10.0,0.0
686,60.0,0.0,240.0,11.0,0.0
687,54.0,0.0,240.0,2.0,0.0
688,72.0,396.0,240.0,1.0,0.0
689,66.0,36.0,180.0,13.0,0.0
690,53.0,0.0,720.0,2.0,0.0
691,56.0,0.0,720.0,12.0,0.0
692,61.0,0.0,390.0,4.0,0.0
693,61.0,0.0,390.0,3.0,0.0
694,65.0,240.0,720.0,13.0,0.0
695,85.0,0.0,720.0,0.0,0.0
696,61.0,0.0,720.0,10.0,0.0
697,61.0,0.0,720.0,11.0,0.0
698,49.0,336.0,390.0,3.0,0.0
699,49.0,0.0,390.0,5.0,0.0
700,73.0,0.0,720.0,1.0,0.0
701,73.0,0.0,390.0,4.0,0.0
702,85.0,0.0,720.0,1.0,0.0
703,53.0,0.0,720.0,14.0,0.0
704,62.0,240.0,240.0,11.0,0.0
705,54.0,0.0,240.0,2.0,0.0
706,86.0,0.0,240.0,0.0,0.0
707,57.0,0.0,240.0,12.0,0.0
708,62.0,0.0,240.0,10.0,0.0
709,66.0,0.0,240.0,13.0,0.0
710,74.0,0.0,240.0,1.0,0.0
711,86.0,0.0,240.0,1.0,0.0
712,54.0,0.0,240.0,14.0,0.0
713,61.0,240.0,240.0,11.0,0.0
714,85.0,0.0,240.0,0.0,0.0
715,56.0,0.0,240.0,12.0,0.0
716,53.0,0.0,240.0,14.0,0.0
717,65.0,0.0,240.0,13.0,0.0
718,61.0,0.0,240.0,10.0,0.0
719,73.0,0.0,240.0,1.0,0.0
720,53.0,0.0,240.0,2.0,0.0
721,85.0,0.0,240.0,1.0,0.0
722,66.0,0.0,240.0,13.0,0.0
723,72.0,0.0,240.0,1.0,0.0
724,84.0,0.0,240.0,1.0,0.0
725,84.0,0.0,240.0,0.0,0.0
726,60.0,0.0,240.0,10.0,0.0
727,57.0,240.0,240.0,12.0,0.0
728,60.0,0.0,240.0,11.0,0.0
729,54.0,0.0,240.0,14.0,0.0
730,54.0,0.0,240.0,2.0,0.0
731,53.0,0.0,240.0,14.0,0.0
732,85.0,0.0,240.0,1.0,0.0
733,85.0,0.0,240.0,0.0,0.0
734,65.0,0.0,240.0,13.0,0.0
735,53.0,0.0,240.0,2.0,0.0
736,73.0,0.0,240.0,1.0,0.0
737,61.0,0.0,240.0,11.0,0.0
738,61.0,192.0,240.0,10.0,0.0
739,56.0,0.0,240.0,12.0,0.0
740,60.0,0.0,240.0,10.0,0.0
741,54.0,0.0,240.0,2.0,0.0
742,84.0,168.0,240.0,0.0,0.0
743,66.0,36.0,180.0,13.0,0.0
744,72.0,0.0,240.0,1.0,0.0
745,57.0,0.0,180.0,12.0,0.0
746,84.0,0.0,240.0,1.0,0.0
747,54.0,0.0,180.0,14.0,0.0
748,60.0,0.0,240.0,11.0,0.0
749,73.0,0.0,390.0,4.0,0.0
750,61.0,0.0,150.0,11.0,0.0
751,53.0,336.0,390.0,2.0,0.0
752,61.0,0.0,390.0,3.0,0.0
753,53.0,0.0,390.0,14.0,0.0
754,49.0,0.0,390.0,5.0,0.0
755,49.0,0.0,390.0,3.0,0.0
756,73.0,0.0,390.0,1.0,0.0
757,65.0,0.0,390.0,13.0,0.0
758,61.0,228.0,150.0,10.0,0.0
759,85.0,0.0,390.0,0.0,0.0
760,85.0,0.0,390.0,1.0,0.0
761,61.0,0.0,390.0,4.0,0.0
762,56.0,0.0,390.0,12.0,0.0
763,65.0,0.0,480.0,11.0,0.0
764,68.0,156.0,480.0,10.0,0.0
765,63.0,240.0,150.0,11.0,0.0
766,66.0,0.0,150.0,10.0,0.0
767,61.0,564.0,150.0,11.0,0.0
768,65.0,0.0,150.0,10.0,0.0
769,68.0,0.0,480.0,11.0,0.0
770,71.0,156.0,480.0,10.0,0.0
771,66.0,0.0,150.0,11.0,0.0
772,69.0,240.0,150.0,10.0,0.0
773,68.0,0.0,150.0,10.0,0.0
774,65.0,564.0,150.0,11.0,0.0
775,77.0,156.0,480.0,1.0,0.0
776,74.0,0.0,480.0,10.0,0.0
777,80.0,0.0,480.0,1.0,0.0
778,71.0,0.0,480.0,11.0,0.0
779,73.0,0.0,150.0,10.0,0.0
780,69.0,240.0,150.0,11.0,0.0
781,81.0,0.0,150.0,1.0,0.0
782,78.0,0.0,150.0,1.0,0.0
783,71.0,0.0,150.0,10.0,0.0
784,68.0,0.0,150.0,11.0,0.0
785,83.0,564.0,150.0,1.0,0.0
786,80.0,0.0,150.0,1.0,0.0
787,68.0,0.0,480.0,2.0,0.0
788,71.0,0.0,480.0,2.0,0.0
789,83.0,0.0,480.0,10.0,0.0
790,80.0,156.0,480.0,11.0,0.0
791,69.0,0.0,180.0,2.0,0.0
792,66.0,192.0,180.0,2.0,0.0
793,85.0,36.0,150.0,10.0,0.0
794,81.0,0.0,150.0,11.0,0.0
795,65.0,0.0,1890.0,2.0,0.0
796,59.0,192.0,180.0,13.0,0.0
797,56.0,48.0,150.0,12.0,0.0
798,86.0,0.0,480.0,10.0,0.0
799,65.0,0.0,150.0,12.0,0.0
800,47.0,0.0,180.0,14.0,0.0
801,68.0,182.0,1890.0,2.0,0.0
802,83.0,144.0,480.0,11.0,0.0
803,59.0,0.0,150.0,12.0,0.0
804,68.0,96.0,150.0,12.0,0.0
805,83.0,192.0,180.0,10.0,0.0
806,50.0,0.0,180.0,14.0,0.0
807,62.0,0.0,180.0,13.0,0.0
808,80.0,0.0,180.0,11.0,0.0
809,65.0,48.0,150.0,12.0,0.0
810,56.0,0.0,150.0,12.0,0.0
811,68.0,240.0,150.0,12.0,0.0
812,59.0,0.0,150.0,12.0,0.0
813,86.0,0.0,480.0,1.0,0.0
814,56.0,48.0,150.0,12.0,0.0
815,65.0,0.0,180.0,13.0,0.0
816,53.0,192.0,180.0,14.0,0.0
817,65.0,0.0,150.0,12.0,0.0
818,59.0,96.0,150.0,12.0,0.0
819,68.0,0.0,150.0,12.0,0.0
820,56.0,0.0,180.0,14.0,0.0
821,56.0,48.0,150.0,12.0,0.0
822,83.0,144.0,15.0,1.0,0.0
823,65.0,0.0,150.0,12.0,0.0
824,68.0,0.0,180.0,13.0,0.0
825,77.0,0.0,180.0,10.0,0.0
826,80.0,0.0,180.0,1.0,0.0
827,74.0,192.0,180.0,11.0,0.0
828,59.0,58.0,150.0,12.0,0.0
829,68.0,0.0,150.0,12.0,0.0
830,81.0,144.0,480.0,11.0,0.0
831,85.0,0.0,480.0,10.0,0.0
832,66.0,182.0,1890.0,2.0,0.0
833,69.0,0.0,1890.0,2.0,0.0
834,45.0,0.0,180.0,14.0,0.0
835,57.0,48.0,150.0,12.0,0.0
836,66.0,0.0,150.0,12.0,0.0
837,57.0,192.0,180.0,13.0,0.0
838,61.0,0.0,150.0,12.0,0.0
839,69.0,96.0,150.0,12.0,0.0
840,66.0,48.0,150.0,12.0,0.0
841,61.0,192.0,180.0,13.0,0.0
842,49.0,0.0,180.0,14.0,0.0
843,78.0,0.0,180.0,11.0,0.0
844,81.0,0.0,180.0,10.0,0.0
845,57.0,0.0,150.0,12.0,0.0
846,69.0,240.0,150.0,12.0,0.0
847,61.0,0.0,150.0,12.0,0.0
848,54.0,0.0,180.0,14.0,0.0
849,57.0,0.0,150.0,12.0,0.0
850,66.0,48.0,150.0,12.0,0.0
851,81.0,144.0,480.0,1.0,0.0
852,85.0,0.0,480.0,1.0,0.0
853,66.0,192.0,180.0,13.0,0.0
854,61.0,0.0,150.0,12.0,0.0
855,69.0,96.0,150.0,12.0,0.0
856,66.0,48.0,150.0,12.0,0.0
857,57.0,0.0,150.0,12.0,0.0
858,78.0,0.0,180.0,1.0,0.0
859,73.0,0.0,180.0,10.0,0.0
860,81.0,0.0,180.0,1.0,0.0
861,69.0,192.0,180.0,11.0,0.0
862,69.0,0.0,180.0,13.0,0.0
863,57.0,0.0,180.0,14.0,0.0
864,61.0,58.0,150.0,12.0,0.0
865,69.0,0.0,150.0,12.0,0.0
866,83.0,0.0,180.0,10.0,0.0
867,80.0,0.0,180.0,11.0,0.0
868,53.0,0.0,180.0,14.0,0.0
869,59.0,0.0,960.0,2.0,0.0
870,68.0,144.0,960.0,2.0,0.0
871,71.0,0.0,150.0,12.0,0.0
872,68.0,48.0,150.0,12.0,0.0
873,65.0,192.0,180.0,13.0,0.0
874,61.0,0.0,150.0,12.0,0.0
875,68.0,240.0,150.0,12.0,0.0
876,68.0,0.0,150.0,12.0,0.0
877,71.0,48.0,150.0,12.0,0.0
878,80.0,192.0,180.0,1.0,0.0
879,83.0,0.0,180.0,1.0,0.0
880,61.0,96.0,150.0,12.0,0.0
881,68.0,0.0,150.0,12.0,0.0
882,69.0,48.0,150.0,12.0,0.0
883,57.0,144.0,900.0,2.0,0.0
884,66.0,0.0,150.0,12.0,0.0
885,66.0,0.0,900.0,2.0,0.0
886,54.0,0.0,180.0,14.0,0.0
887,66.0,0.0,180.0,13.0,0.0
888,81.0,192.0,180.0,10.0,0.0
889,78.0,0.0,180.0,11.0,0.0
890,66.0,0.0,150.0,12.0,0.0
891,61.0,240.0,150.0,12.0,0.0
892,66.0,48.0,150.0,12.0,0.0
893,78.0,192.0,180.0,1.0,0.0
894,81.0,0.0,180.0,1.0,0.0
895,69.0,0.0,150.0,12.0,0.0
896,61.0,48.0,150.0,12.0,0.0
897,66.0,0.0,150.0,12.0,0.0
898,56.0,24.0,300.0,2.0,0.0
899,65.0,0.0,300.0,2.0,0.0
900,61.0,0.0,300.0,3.0,0.0
901,49.0,12.0,390.0,5.0,0.0
902,73.0,0.0,390.0,10.0,0.0
903,80.0,0.0,390.0,10.0,0.0
904,77.0,0.0,300.0,1.0,0.0
905,80.0,0.0,300.0,1.0,0.0
906,73.0,60.0,90.0,12.0,0.0
907,73.0,0.0,300.0,4.0,0.0
908,49.0,60.0,150.0,14.0,0.0
909,61.0,0.0,390.0,11.0,0.0
910,77.0,0.0,390.0,11.0,0.0
911,68.0,0.0,390.0,11.0,0.0
912,61.0,0.0,150.0,13.0,0.0
913,89.0,0.0,300.0,0.0,0.0
914,73.0,96.0,90.0,12.0,0.0
915,48.0,60.0,150.0,14.0,0.0
916,60.0,0.0,150.0,13.0,0.0
917,72.0,48.0,90.0,12.0,0.0
918,72.0,120.0,90.0,12.0,0.0
919,61.0,60.0,150.0,13.0,0.0
920,68.0,0.0,240.0,2.0,0.0
921,65.0,0.0,240.0,2.0,0.0
922,73.0,102.0,240.0,4.0,0.0
923,61.0,0.0,240.0,3.0,0.0
924,49.0,0.0,150.0,14.0,0.0
925,73.0,60.0,90.0,12.0,0.0
926,89.0,0.0,240.0,0.0,0.0
927,80.0,0.0,240.0,1.0,0.0
928,77.0,0.0,240.0,1.0,0.0
929,73.0,18.0,90.0,12.0,0.0
930,74.0,60.0,90.0,12.0,0.0
931,62.0,0.0,150.0,13.0,0.0
932,50.0,42.0,150.0,14.0,0.0
933,61.0,0.0,90.0,3.0,0.0
934,89.0,18.0,90.0,0.0,0.0
935,74.0,120.0,90.0,12.0,0.0
936,77.0,0.0,90.0,1.0,0.0
937,80.0,0.0,90.0,1.0,0.0
938,68.0,0.0,90.0,2.0,0.0
939,65.0,0.0,90.0,2.0,0.0
940,73.0,0.0,90.0,4.0,0.0
941,77.0,0.0,300.0,1.0,0.0
942,61.0,0.0,300.0,3.0,0.0
943,49.0,60.0,150.0,14.0,0.0
944,73.0,60.0,90.0,12.0,0.0
945,73.0,0.0,300.0,4.0,0.0
946,61.0,0.0,150.0,13.0,0.0
947,80.0,24.0,300.0,1.0,0.0
948,68.0,0.0,300.0,2.0,0.0
949,89.0,0.0,300.0,0.0,0.0
950,65.0,0.0,300.0,2.0,0.0
951,73.0,96.0,90.0,12.0,0.0
952,59.0,60.0,150.0,13.0,0.0
953,47.0,0.0,150.0,14.0,0.0
954,71.0,60.0,90.0,12.0,0.0
955,71.0,120.0,90.0,12.0,0.0
956,89.0,0.0,300.0,0.0,0.0
957,45.0,60.0,150.0,14.0,0.0
958,73.0,0.0,300.0,4.0,0.0
959,69.0,60.0,90.0,12.0,0.0
960,77.0,0.0,300.0,1.0,0.0
961,65.0,0.0,300.0,2.0,0.0
962,68.0,0.0,300.0,2.0,0.0
963,49.0,12.0,390.0,5.0,0.0
964,77.0,0.0,300.0,11.0,0.0
965,80.0,0.0,300.0,1.0,0.0
966,68.0,24.0,300.0,11.0,0.0
967,57.0,0.0,150.0,13.0,0.0
968,85.0,0.0,300.0,11.0,0.0
969,61.0,0.0,300.0,3.0,0.0
970,80.0,0.0,300.0,10.0,0.0
971,89.0,0.0,300.0,10.0,0.0
972,73.0,0.0,300.0,10.0,0.0
973,69.0,96.0,90.0,12.0,0.0
974,44.0,0.0,150.0,14.0,0.0
975,56.0,60.0,150.0,13.0,0.0
976,68.0,48.0,90.0,12.0,0.0
977,68.0,120.0,90.0,12.0,0.0
978,81.0,0.0,390.0,11.0,0.0
979,73.0,0.0,390.0,11.0,0.0
980,42.0,60.0,150.0,14.0,0.0
981,90.0,0.0,300.0,0.0,0.0
982,90.0,0.0,390.0,10.0,0.0
983,78.0,0.0,300.0,1.0,0.0
984,66.0,0.0,300.0,2.0,0.0
985,61.0,0.0,300.0,3.0,0.0
986,54.0,0.0,150.0,13.0,0.0
987,69.0,0.0,300.0,2.0,0.0
988,54.0,0.0,390.0,5.0,0.0
989,81.0,0.0,390.0,10.0,0.0
990,73.0,0.0,300.0,4.0,0.0
991,73.0,0.0,390.0,10.0,0.0
992,66.0,60.0,90.0,12.0,0.0
993,81.0,24.0,300.0,1.0,0.0
994,66.0,12.0,390.0,11.0,0.0
995,66.0,96.0,90.0,12.0,0.0
996,53.0,60.0,150.0,13.0,0.0
997,65.0,48.0,90.0,12.0,0.0
998,41.0,0.0,150.0,14.0,0.0
999,65.0,120.0,90.0,12.0,0.0
1000,81.0,102.0,240.0,1.0,0.0
1001,90.0,0.0,240.0,0.0,0.0
1002,66.0,60.0,90.0,12.0,0.0
1003,66.0,0.0,240.0,2.0,0.0
1004,54.0,60.0,150.0,13.0,0.0
1005,42.0,0.0,150.0,14.0,0.0
1006,73.0,0.0,240.0,4.0,0.0
1007,69.0,0.0,240.0,2.0,0.0
1008,78.0,0.0,240.0,1.0,0.0
1009,61.0,0.0,240.0,3.0,0.0
1010,66.0,18.0,90.0,12.0,0.0
1011,44.0,42.0,150.0,14.0,0.0
1012,56.0,0.0,150.0,13.0,0.0
1013,68.0,60.0,90.0,12.0,0.0
1014,68.0,120.0,90.0,12.0,0.0
1015,61.0,0.0,90.0,3.0,0.0
1016,78.0,0.0,90.0,1.0,0.0
1017,81.0,0.0,90.0,1.0,0.0
1018,66.0,0.0,90.0,2.0,0.0
1019,73.0,0.0,90.0,4.0,0.0
1020,90.0,0.0,90.0,0.0,0.0
1021,69.0,18.0,90.0,2.0,0.0
1022,90.0,0.0,300.0,0.0,0.0
1023,61.0,0.0,300.0,3.0,0.0
1024,69.0,0.0,300.0,2.0,0.0
1025,57.0,60.0,150.0,13.0,0.0
1026,69.0,60.0,90.0,12.0,0.0
1027,66.0,24.0,300.0,2.0,0.0
1028,45.0,0.0,150.0,14.0,0.0
1029,78.0,0.0,300.0,1.0,0.0
1030,81.0,0.0,300.0,1.0,0.0
1031,73.0,0.0,300.0,4.0,0.0
1032,69.0,96.0,90.0,12.0,0.0
1033,44.0,0.0,150.0,14.0,0.0
1034,56.0,60.0,150.0,13.0,0.0
1035,68.0,60.0,90.0,12.0,0.0
1036,68.0,120.0,90.0,12.0,0.0
1037,66.0,0.0,300.0,2.0,0.0
1038,81.0,24.0,300.0,11.0,0.0
1039,90.0,0.0,300.0,10.0,0.0
1040,69.0,0.0,300.0,2.0,0.0
1041,73.0,0.0,300.0,11.0,0.0
1042,66.0,0.0,300.0,11.0,0.0
1043,61.0,0.0,300.0,3.0,0.0
1044,54.0,12.0,390.0,5.0,0.0
1045,81.0,0.0,300.0,10.0,0.0
1046,57.0,0.0,150.0,13.0,0.0
1047,73.0,0.0,300.0,4.0,0.0
1048,73.0,0.0,300.0,10.0,0.0
1049,78.0,0.0,300.0,1.0,0.0
1050,81.0,0.0,300.0,1.0,0.0
1051,69.0,60.0,90.0,12.0,0.0
1052,45.0,60.0,150.0,14.0,0.0
1053,90.0,0.0,300.0,0.0,0.0
1054,69.0,96.0,90.0,12.0,0.0
1055,71.0,48.0,90.0,12.0,0.0
1056,47.0,60.0,150.0,14.0,0.0
1057,59.0,0.0,150.0,13.0,0.0
1058,71.0,120.0,90.0,12.0,0.0
1059,73.0,60.0,90.0,12.0,0.0
1060,49.0,0.0,150.0,14.0,0.0
1061,85.0,0.0,390.0,11.0,0.0
1062,77.0,0.0,390.0,11.0,0.0
1063,80.0,0.0,390.0,10.0,0.0
1064,56.0,0.0,300.0,2.0,0.0
1065,77.0,0.0,300.0,1.0,0.0
1066,73.0,0.0,300.0,4.0,0.0
1067,49.0,0.0,390.0,5.0,0.0
1068,61.0,60.0,150.0,13.0,0.0
1069,80.0,0.0,300.0,1.0,0.0
1070,68.0,0.0,390.0,11.0,0.0
1071,89.0,12.0,390.0,10.0,0.0
1072,65.0,24.0,300.0,2.0,0.0
1073,73.0,0.0,390.0,10.0,0.0
1074,61.0,0.0,300.0,3.0,0.0
1075,89.0,0.0,300.0,0.0,0.0
1076,73.0,96.0,90.0,12.0,0.0
1077,60.0,0.0,150.0,13.0,0.0
1078,48.0,60.0,150.0,14.0,0.0
1079,72.0,48.0,90.0,12.0,0.0
1080,72.0,120.0,90.0,12.0,0.0
1081,61.0,0.0,150.0,13.0,0.0
1082,61.0,0.0,240.0,3.0,0.0
1083,80.0,0.0,240.0,1.0,0.0
1084,89.0,0.0,240.0,0.0,0.0
1085,73.0,60.0,90.0,12.0,0.0
1086,49.0,60.0,150.0,14.0,0.0
1087,77.0,0.0,240.0,1.0,0.0
1088,65.0,0.0,240.0,2.0,0.0
1089,68.0,0.0,240.0,2.0,0.0
1090,73.0,102.0,240.0,4.0,0.0
1091,73.0,18.0,90.0,12.0,0.0
1092,50.0,0.0,150.0,14.0,0.0
1093,74.0,60.0,90.0,12.0,0.0
1094,62.0,42.0,150.0,13.0,0.0
1095,74.0,120.0,90.0,12.0,0.0
1096,89.0,0.0,90.0,0.0,0.0
1097,65.0,0.0,90.0,2.0,0.0
1098,73.0,0.0,90.0,4.0,0.0
1099,68.0,0.0,90.0,2.0,0.0
1100,61.0,0.0,90.0,3.0,0.0
1101,80.0,0.0,90.0,1.0,0.0
1102,77.0,18.0,90.0,1.0,0.0
1103,49.0,0.0,150.0,14.0,0.0
1104,89.0,0.0,300.0,0.0,0.0
1105,73.0,0.0,300.0,4.0,0.0
1106,68.0,0.0,300.0,2.0,0.0
1107,65.0,24.0,300.0,2.0,0.0
1108,73.0,60.0,90.0,12.0,0.0
1109,80.0,0.0,300.0,1.0,0.0
1110,77.0,0.0,300.0,1.0,0.0
1111,61.0,60.0,150.0,13.0,0.0
1112,61.0,0.0,300.0,3.0,0.0
1113,73.0,96.0,90.0,12.0,0.0
1114,71.0,60.0,90.0,12.0,0.0
1115,59.0,0.0,150.0,13.0,0.0
1116,47.0,60.0,150.0,14.0,0.0
1117,71.0,120.0,90.0,12.0,0.0
1118,68.0,0.0,300.0,2.0,0.0
1119,69.0,60.0,90.0,12.0,0.0
1120,77.0,24.0,300.0,1.0,0.0
1121,80.0,0.0,300.0,1.0,0.0
1122,57.0,60.0,150.0,13.0,0.0
1123,45.0,0.0,150.0,14.0,0.0
1124,65.0,0.0,300.0,2.0,0.0
1125,49.0,12.0,390.0,5.0,0.0
1126,61.0,0.0,300.0,3.0,0.0
1127,89.0,0.0,300.0,0.0,0.0
1128,89.0,0.0,300.0,10.0,0.0
1129,85.0,0.0,300.0,11.0,0.0
1130,80.0,0.0,300.0,10.0,0.0
1131,73.0,0.0,300.0,10.0,0.0
1132,77.0,0.0,300.0,11.0,0.0
1133,73.0,0.0,300.0,4.0,0.0
1134,68.0,0.0,300.0,11.0,0.0
1135,69.0,96.0,90.0,12.0,0.0
1136,68.0,48.0,90.0,12.0,0.0
1137,44.0,60.0,150.0,14.0,0.0
1138,56.0,0.0,150.0,13.0,0.0
1139,68.0,120.0,90.0,12.0,0.0
1140,69.0,0.0,300.0,2.0,0.0
1141,42.0,0.0,150.0,14.0,0.0
1142,66.0,0.0,300.0,2.0,0.0
1143,73.0,0.0,390.0,11.0,0.0
1144,78.0,0.0,300.0,1.0,0.0
1145,81.0,0.0,390.0,11.0,0.0
1146,81.0,24.0,300.0,1.0,0.0
1147,90.0,0.0,300.0,0.0,0.0
1148,54.0,60.0,150.0,13.0,0.0
1149,54.0,12.0,390.0,5.0,0.0
1150,66.0,60.0,90.0,12.0,0.0
1151,73.0,0.0,390.0,10.0,0.0
1152,73.0,0.0,300.0,4.0,0.0
1153,90.0,0.0,390.0,10.0,0.0
1154,81.0,0.0,390.0,10.0,0.0
1155,66.0,0.0,390.0,11.0,0.0
1156,61.0,0.0,300.0,3.0,0.0
1157,66.0,96.0,90.0,12.0,0.0
1158,65.0,48.0,90.0,12.0,0.0
1159,41.0,60.0,150.0,14.0,0.0
1160,53.0,0.0,150.0,13.0,0.0
1161,65.0,120.0,90.0,12.0,0.0
1162,54.0,0.0,150.0,13.0,0.0
1163,66.0,60.0,90.0,12.0,0.0
1164,73.0,0.0,240.0,4.0,0.0
1165,61.0,0.0,240.0,3.0,0.0
1166,90.0,0.0,240.0,0.0,0.0
1167,66.0,0.0,240.0,2.0,0.0
1168,42.0,60.0,150.0,14.0,0.0
1169,69.0,102.0,240.0,2.0,0.0
1170,81.0,0.0,240.0,1.0,0.0
1171,78.0,0.0,240.0,1.0,0.0
1172,66.0,18.0,90.0,12.0,0.0
1173,44.0,0.0,150.0,14.0,0.0
1174,68.0,60.0,90.0,12.0,0.0
1175,56.0,42.0,150.0,13.0,0.0
1176,90.0,0.0,90.0,0.0,0.0
1177,69.0,0.0,90.0,2.0,0.0
1178,81.0,0.0,90.0,1.0,0.0
1179,78.0,18.0,90.0,1.0,0.0
1180,68.0,120.0,90.0,12.0,0.0
1181,73.0,0.0,90.0,4.0,0.0
1182,66.0,0.0,90.0,2.0,0.0
1183,61.0,0.0,90.0,3.0,0.0
1184,61.0,0.0,300.0,3.0,0.0
1185,66.0,24.0,300.0,2.0,0.0
1186,81.0,0.0,300.0,1.0,0.0
1187,73.0,0.0,300.0,4.0,0.0
1188,45.0,60.0,150.0,14.0,0.0
1189,78.0,0.0,300.0,1.0,0.0
1190,90.0,0.0,300.0,0.0,0.0
1191,57.0,0.0,150.0,13.0,0.0
1192,69.0,0.0,300.0,2.0,0.0
1193,69.0,60.0,90.0,12.0,0.0
1194,69.0,96.0,90.0,12.0,0.0
1195,44.0,60.0,150.0,14.0,0.0
1196,56.0,0.0,150.0,13.0,0.0
1197,68.0,60.0,90.0,12.0,0.0
1198,68.0,120.0,90.0,12.0,0.0
1199,69.0,0.0,300.0,2.0,0.0
1200,66.0,0.0,300.0,11.0,0.0
1201,61.0,0.0,300.0,3.0,0.0
1202,73.0,0.0,300.0,4.0,0.0
1203,73.0,24.0,300.0,11.0,0.0
1204,90.0,0.0,300.0,10.0,0.0
1205,90.0,0.0,300.0,0.0,0.0
1206,57.0,0.0,150.0,13.0,0.0
1207,81.0,0.0,300.0,10.0,0.0
1208,54.0,12.0,390.0,5.0,0.0
1209,73.0,0.0,300.0,10.0,0.0
1210,81.0,0.0,300.0,11.0,0.0
1211,69.0,60.0,90.0,12.0,0.0
1212,45.0,60.0,150.0,14.0,0.0
1213,66.0,0.0,300.0,2.0,0.0
1214,78.0,0.0,300.0,1.0,0.0
1215,81.0,0.0,300.0,1.0,0.0
1216,69.0,96.0,90.0,12.0,0.0
1217,59.0,60.0,150.0,13.0,0.0
1218,71.0,48.0,90.0,12.0,0.0
1219,47.0,0.0,150.0,14.0,0.0
1220,71.0,408.0,90.0,12.0,0.0
1221,73.0,0.0,390.0,12.0,0.0
1222,73.0,0.0,390.0,4.0,0.0
1223,68.0,0.0,390.0,11.0,0.0
1224,49.0,0.0,390.0,14.0,0.0
1225,49.0,0.0,390.0,5.0,0.0
1226,68.0,0.0,390.0,2.0,0.0
1227,65.0,0.0,390.0,2.0,0.0
1228,85.0,0.0,390.0,11.0,0.0
1229,77.0,0.0,390.0,1.0,0.0
1230,61.0,2496.0,390.0,13.0,0.0
1231,61.0,0.0,390.0,3.0,0.0
1232,80.0,0.0,390.0,1.0,0.0
1233,89.0,0.0,390.0,10.0,0.0
1234,80.0,0.0,390.0,10.0,0.0
1235,73.0,0.0,390.0,10.0,0.0
1236,89.0,0.0,390.0,0.0,0.0
1237,77.0,0.0,390.0,11.0,0.0
1238,57.0,960.0,960.0,2.0,0.0
1239,81.0,0.0,960.0,1.0,0.0
1240,69.0,0.0,960.0,1.0,0.0
1241,61.0,0.0,960.0,2.0,0.0
1242,62.0,0.0,960.0,2.0,0.0
1243,59.0,0.0,960.0,2.0,0.0
1244,80.0,384.0,960.0,1.0,0.0
1245,68.0,0.0,960.0,1.0,0.0
1246,61.0,0.0,390.0,2.0,0.0
1247,81.0,0.0,390.0,1.0,0.0
1248,69.0,0.0,390.0,1.0,0.0
1249,64.0,96.0,390.0,2.0,0.0
1250,76.0,144.0,240.0,0.0,0.0
1251,88.0,240.0,150.0,0.0,0.0
1252,73.0,0.0,480.0,10.0,0.0
1253,69.0,240.0,480.0,11.0,0.0
1254,88.0,96.0,150.0,0.0,0.0
1255,74.0,240.0,480.0,10.0,0.0
1256,88.0,192.0,240.0,0.0,0.0
1257,71.0,0.0,480.0,11.0,0.0
1258,80.0,48.0,180.0,0.0,0.0
1259,80.0,144.0,240.0,0.0,0.0
1260,76.0,0.0,390.0,10.0,0.0
1261,73.0,48.0,390.0,11.0,0.0
1262,81.0,1008.0,180.0,0.0,0.0
1263,71.0,960.0,960.0,1.0,0.0
1264,62.0,0.0,960.0,2.0,0.0
1265,59.0,0.0,960.0,2.0,0.0
1266,83.0,0.0,960.0,1.0,0.0
1267,61.0,0.0,960.0,2.0,0.0
1268,64.0,0.0,960.0,2.0,0.0
1269,82.0,384.0,960.0,1.0,0.0
1270,70.0,0.0,960.0,1.0,0.0
1271,71.0,0.0,390.0,1.0,0.0
1272,62.0,96.0,390.0,2.0,0.0
1273,83.0,0.0,390.0,1.0,0.0
1274,66.0,0.0,390.0,2.0,0.0
1275,78.0,144.0,240.0,0.0,0.0
1276,74.0,240.0,480.0,10.0,0.0
1277,90.0,240.0,150.0,0.0,0.0
1278,71.0,0.0,480.0,11.0,0.0
1279,90.0,96.0,150.0,0.0,0.0
1280,76.0,240.0,480.0,10.0,0.0
1281,73.0,0.0,480.0,11.0,0.0
1282,90.0,192.0,240.0,0.0,0.0
1283,82.0,48.0,180.0,0.0,0.0
1284,74.0,0.0,390.0,11.0,0.0
1285,78.0,48.0,390.0,10.0,0.0
1286,82.0,144.0,240.0,0.0,0.0
1287,83.0,1008.0,180.0,0.0,0.0
1288,61.0,0.0,960.0,2.0,0.0
1289,73.0,0.0,960.0,1.0,0.0
1290,64.0,0.0,960.0,2.0,0.0
1291,85.0,960.0,960.0,1.0,0.0
1292,72.0,0.0,960.0,1.0,0.0
1293,84.0,384.0,960.0,1.0,0.0
1294,63.0,0.0,960.0,2.0,0.0
1295,66.0,0.0,960.0,2.0,0.0
1296,64.0,0.0,390.0,2.0,0.0
1297,73.0,0.0,390.0,1.0,0.0
1298,68.0,96.0,390.0,2.0,0.0
1299,85.0,0.0,390.0,1.0,0.0
1300,80.0,144.0,240.0,0.0,0.0
1301,92.0,240.0,150.0,0.0,0.0
1302,73.0,0.0,480.0,11.0,0.0
1303,76.0,240.0,480.0,10.0,0.0
1304,92.0,96.0,150.0,0.0,0.0
1305,92.0,192.0,240.0,0.0,0.0
1306,75.0,0.0,480.0,11.0,0.0
1307,78.0,240.0,480.0,10.0,0.0
1308,84.0,48.0,180.0,0.0,0.0
1309,80.0,0.0,390.0,10.0,0.0
1310,84.0,144.0,240.0,0.0,0.0
1311,76.0,48.0,390.0,11.0,0.0
1312,85.0,240.0,180.0,0.0,0.0
1313,69.0,48.0,390.0,12.0,0.0
1314,86.0,404.0,1890.0,1.0,0.0
1315,66.0,0.0,390.0,13.0,0.0
1316,54.0,0.0,390.0,14.0,0.0
1317,81.0,192.0,180.0,10.0,0.0
1318,74.0,240.0,180.0,10.0,0.0
1319,86.0,240.0,180.0,10.0,0.0
1320,85.0,432.0,180.0,10.0,0.0
1321,83.0,404.0,1890.0,1.0,0.0
1322,83.0,0.0,390.0,10.0,0.0
1323,68.0,0.0,390.0,13.0,0.0
1324,71.0,0.0,390.0,12.0,0.0
1325,56.0,48.0,390.0,14.0,0.0
1326,71.0,240.0,180.0,11.0,0.0
1327,76.0,240.0,180.0,11.0,0.0
1328,74.0,28.0,180.0,11.0,0.0
1329,69.0,0.0,390.0,13.0,0.0
1330,85.0,404.0,1890.0,1.0,0.0
1331,57.0,0.0,390.0,14.0,0.0
1332,64.0,0.0,390.0,12.0,0.0
1333,73.0,48.0,390.0,11.0,0.0
1334,76.0,240.0,180.0,10.0,0.0
1335,85.0,240.0,180.0,10.0,0.0
1336,83.0,28.0,180.0,10.0,0.0
1337,54.0,48.0,390.0,14.0,0.0
1338,81.0,404.0,1890.0,1.0,0.0
1339,66.0,0.0,390.0,13.0,0.0
1340,69.0,0.0,390.0,12.0,0.0
1341,81.0,0.0,390.0,10.0,0.0
1342,69.0,240.0,180.0,11.0,0.0
1343,74.0,240.0,180.0,11.0,0.0
1344,73.0,28.0,180.0,11.0,0.0
1345,83.0,404.0,1890.0,1.0,0.0
1346,66.0,0.0,390.0,12.0,0.0
1347,51.0,0.0,390.0,14.0,0.0
1348,63.0,0.0,390.0,13.0,0.0
1349,71.0,48.0,390.0,11.0,0.0
1350,78.0,240.0,180.0,10.0,0.0
1351,83.0,240.0,180.0,10.0,0.0
1352,81.0,28.0,180.0,10.0,0.0
1353,61.0,0.0,390.0,12.0,0.0
1354,53.0,48.0,390.0,14.0,0.0
1355,65.0,0.0,390.0,13.0,0.0
1356,80.0,0.0,390.0,10.0,0.0
1357,80.0,404.0,1890.0,1.0,0.0
1358,68.0,240.0,180.0,11.0,0.0
1359,73.0,240.0,180.0,11.0,0.0
1360,71.0,28.0,180.0,11.0,0.0
1361,61.0,0.0,390.0,12.0,0.0
1362,66.0,0.0,390.0,13.0,0.0
1363,54.0,48.0,390.0,14.0,0.0
1364,81.0,404.0,1890.0,1.0,0.0
1365,69.0,0.0,390.0,11.0,0.0
1366,73.0,240.0,180.0,10.0,0.0
1367,81.0,240.0,180.0,10.0,0.0
1368,80.0,28.0,180.0,10.0,0.0
1369,50.0,0.0,390.0,14.0,0.0
1370,62.0,0.0,390.0,12.0,0.0
1371,62.0,0.0,390.0,13.0,0.0
1372,78.0,48.0,390.0,10.0,0.0
1373,78.0,404.0,1890.0,1.0,0.0
1374,66.0,240.0,180.0,11.0,0.0
1375,71.0,240.0,180.0,11.0,0.0
1376,69.0,28.0,180.0,11.0,0.0
1377,62.0,0.0,390.0,12.0,0.0
1378,68.0,0.0,390.0,11.0,0.0
1379,47.0,0.0,390.0,14.0,0.0
1380,59.0,48.0,390.0,13.0,0.0
1381,80.0,0.0,1890.0,1.0,0.0
1382,74.0,240.0,180.0,10.0,0.0
1383,80.0,240.0,180.0,10.0,0.0
1384,78.0,28.0,180.0,10.0,0.0
1385,61.0,0.0,390.0,13.0,0.0
1386,77.0,0.0,390.0,10.0,0.0
1387,49.0,48.0,390.0,14.0,0.0
1388,61.0,0.0,390.0,12.0,0.0
1389,77.0,404.0,930.0,1.0,0.0
1390,68.0,240.0,180.0,11.0,0.0
1391,73.0,240.0,180.0,11.0,0.0
1392,65.0,28.0,180.0,11.0,0.0
1393,54.0,0.0,570.0,12.0,0.0
1394,66.0,0.0,570.0,10.0,0.0
1395,66.0,0.0,570.0,11.0,0.0
1396,66.0,0.0,1830.0,3.0,0.0
1397,54.0,192.0,390.0,5.0,0.0
1398,54.0,0.0,1830.0,3.0,0.0
1399,54.0,288.0,570.0,2.0,0.0
1400,78.0,0.0,1830.0,1.0,0.0
1401,90.0,0.0,1830.0,0.0,0.0
1402,66.0,0.0,1830.0,4.0,0.0
1403,42.0,0.0,570.0,14.0,0.0
1404,54.0,0.0,570.0,13.0,0.0
1405,57.0,0.0,150.0,2.0,0.0
1406,66.0,144.0,180.0,11.0,0.0
1407,45.0,0.0,150.0,14.0,0.0
1408,78.0,0.0,180.0,10.0,0.0
1409,57.0,48.0,150.0,13.0,0.0
1410,57.0,0.0,150.0,12.0,0.0
1411,80.0,0.0,90.0,10.0,0.0
1412,68.0,48.0,90.0,11.0,0.0
1413,59.0,0.0,150.0,12.0,0.0
1414,47.0,72.0,150.0,14.0,0.0
1415,59.0,0.0,150.0,2.0,0.0
1416,59.0,0.0,150.0,13.0,0.0
1417,68.0,0.0,90.0,11.0,0.0
1418,80.0,120.0,90.0,10.0,0.0
1419,66.0,48.0,90.0,11.0,0.0
1420,57.0,72.0,150.0,12.0,0.0
1421,57.0,0.0,150.0,2.0,0.0
1422,45.0,0.0,150.0,14.0,0.0
1423,57.0,0.0,150.0,13.0,0.0
1424,78.0,0.0,90.0,10.0,0.0
1425,66.0,120.0,90.0,11.0,0.0
1426,78.0,0.0,90.0,10.0,0.0
1427,59.0,0.0,150.0,2.0,0.0
1428,59.0,0.0,150.0,13.0,0.0
1429,68.0,0.0,90.0,11.0,0.0
1430,80.0,48.0,90.0,10.0,0.0
1431,47.0,0.0,150.0,14.0,0.0
1432,59.0,72.0,150.0,12.0,0.0
1433,68.0,120.0,90.0,11.0,0.0
1434,80.0,0.0,90.0,10.0,0.0
1435,61.0,0.0,150.0,12.0,0.0
1436,61.0,0.0,150.0,2.0,0.0
1437,61.0,0.0,150.0,13.0,0.0
1438,49.0,72.0,150.0,14.0,0.0
1439,70.0,0.0,90.0,11.0,0.0
1440,82.0,48.0,90.0,10.0,0.0
1441,82.0,0.0,90.0,10.0,0.0
1442,70.0,120.0,90.0,11.0,0.0
1443,50.0,0.0,150.0,14.0,0.0
1444,66.0,0.0,1830.0,4.0,0.0
1445,62.0,0.0,150.0,13.0,0.0
1446,62.0,0.0,150.0,12.0,0.0
1447,54.0,0.0,1830.0,3.0,0.0
1448,66.0,0.0,1830.0,3.0,0.0
1449,62.0,72.0,150.0,2.0,0.0
1450,54.0,0.0,390.0,5.0,0.0
1451,90.0,0.0,1830.0,0.0,0.0
1452,71.0,48.0,90.0,11.0,0.0
1453,83.0,0.0,90.0,10.0,0.0
1454,78.0,0.0,1830.0,1.0,0.0
1455,71.0,120.0,90.0,11.0,0.0
1456,83.0,0.0,90.0,10.0,0.0
1457,61.0,0.0,150.0,13.0,0.0
1458,61.0,72.0,150.0,2.0,0.0
1459,82.0,48.0,90.0,10.0,0.0
1460,70.0,0.0,90.0,11.0,0.0
1461,61.0,0.0,150.0,12.0,0.0
1462,49.0,0.0,150.0,14.0,0.0
1463,82.0,120.0,90.0,10.0,0.0
1464,70.0,0.0,90.0,11.0,0.0
1465,83.0,48.0,90.0,10.0,0.0
1466,62.0,0.0,150.0,12.0,0.0
1467,62.0,72.0,150.0,13.0,0.0
1468,71.0,0.0,90.0,11.0,0.0
1469,62.0,0.0,150.0,2.0,0.0
1470,50.0,0.0,150.0,14.0,0.0
1471,71.0,0.0,90.0,11.0,0.0
1472,83.0,120.0,90.0,10.0,0.0
1473,60.0,72.0,150.0,12.0,0.0
1474,80.0,0.0,90.0,10.0,0.0
1475,60.0,0.0,150.0,13.0,0.0
1476,60.0,0.0,150.0,2.0,0.0
1477,68.0,48.0,90.0,11.0,0.0
1478,48.0,0.0,150.0,14.0,0.0
1479,80.0,0.0,90.0,10.0,0.0
1480,68.0,120.0,90.0,11.0,0.0
1481,61.0,0.0,150.0,13.0,0.0
1482,49.0,72.0,150.0,14.0,0.0
1483,70.0,48.0,90.0,11.0,0.0
1484,61.0,0.0,150.0,12.0,0.0
1485,61.0,0.0,150.0,2.0,0.0
1486,82.0,0.0,90.0,10.0,0.0
1487,82.0,120.0,90.0,10.0,0.0
1488,70.0,0.0,90.0,11.0,0.0
1489,60.0,0.0,150.0,2.0,0.0
1490,60.0,0.0,150.0,13.0,0.0
1491,68.0,48.0,90.0,11.0,0.0
1492,60.0,72.0,150.0,12.0,0.0
1493,80.0,0.0,90.0,10.0,0.0
1494,48.0,0.0,150.0,14.0,0.0
1495,80.0,0.0,90.0,10.0,0.0
1496,68.0,120.0,90.0,11.0,0.0
1497,49.0,0.0,150.0,14.0,0.0
1498,61.0,0.0,150.0,2.0,0.0
1499,82.0,0.0,90.0,10.0,0.0
1500,70.0,48.0,90.0,11.0,0.0
1501,61.0,0.0,150.0,12.0,0.0
1502,61.0,72.0,150.0,13.0,0.0
1503,82.0,0.0,90.0,10.0,0.0
1504,70.0,120.0,90.0,11.0,0.0
1505,51.0,0.0,150.0,14.0,0.0
1506,63.0,0.0,150.0,13.0,0.0
1507,72.0,48.0,90.0,11.0,0.0
1508,84.0,0.0,90.0,10.0,0.0
1509,63.0,0.0,150.0,12.0,0.0
1510,63.0,72.0,150.0,2.0,0.0
1511,84.0,0.0,90.0,10.0,0.0
1512,72.0,120.0,90.0,11.0,0.0
1513,90.0,0.0,1920.0,0.0,0.0
1514,66.0,0.0,1830.0,4.0,0.0
1515,64.0,0.0,150.0,13.0,0.0
1516,85.0,48.0,90.0,10.0,0.0
1517,54.0,72.0,390.0,5.0,0.0
1518,64.0,0.0,150.0,2.0,0.0
1519,66.0,0.0,1830.0,3.0,0.0
1520,73.0,0.0,90.0,11.0,0.0
1521,64.0,0.0,150.0,12.0,0.0
1522,52.0,72.0,150.0,14.0,0.0
1523,78.0,96.0,1920.0,1.0,0.0
1524,54.0,0.0,1830.0,3.0,0.0
1525,85.0,120.0,90.0,10.0,0.0
1526,73.0,0.0,90.0,11.0,0.0
1527,63.0,0.0,150.0,13.0,0.0
1528,63.0,0.0,150.0,12.0,0.0
1529,63.0,0.0,150.0,2.0,0.0
1530,84.0,0.0,90.0,10.0,0.0
1531,72.0,48.0,90.0,11.0,0.0
1532,51.0,0.0,150.0,14.0,0.0
1533,72.0,120.0,90.0,11.0,0.0
1534,84.0,0.0,90.0,10.0,0.0
1535,73.0,48.0,90.0,11.0,0.0
1536,85.0,0.0,90.0,10.0,0.0
1537,64.0,0.0,150.0,13.0,0.0
1538,64.0,72.0,150.0,12.0,0.0
1539,64.0,0.0,150.0,2.0,0.0
1540,52.0,0.0,150.0,14.0,0.0
1541,85.0,120.0,90.0,10.0,0.0
1542,73.0,0.0,90.0,11.0,0.0
1543,82.0,0.0,90.0,10.0,0.0
1544,61.0,72.0,150.0,2.0,0.0
1545,61.0,0.0,150.0,12.0,0.0
1546,70.0,48.0,90.0,11.0,0.0
1547,49.0,0.0,150.0,14.0,0.0
1548,61.0,0.0,150.0,13.0,0.0
1549,82.0,0.0,90.0,10.0,0.0
1550,70.0,120.0,90.0,11.0,0.0
1551,62.0,0.0,150.0,13.0,0.0
1552,50.0,0.0,150.0,14.0,0.0
1553,71.0,48.0,90.0,11.0,0.0
1554,62.0,0.0,150.0,12.0,0.0
1555,83.0,0.0,90.0,10.0,0.0
1556,62.0,72.0,150.0,2.0,0.0
1557,83.0,0.0,90.0,10.0,0.0
1558,71.0,120.0,90.0,11.0,0.0
1559,70.0,48.0,90.0,11.0,0.0
1560,61.0,0.0,150.0,13.0,0.0
1561,49.0,72.0,150.0,14.0,0.0
1562,82.0,0.0,90.0,10.0,0.0
1563,61.0,0.0,150.0,2.0,0.0
1564,61.0,0.0,150.0,12.0,0.0
1565,82.0,0.0,90.0,10.0,0.0
1566,70.0,120.0,90.0,11.0,0.0
1567,71.0,48.0,90.0,11.0,0.0
1568,62.0,0.0,150.0,13.0,0.0
1569,62.0,0.0,150.0,2.0,0.0
1570,50.0,0.0,150.0,14.0,0.0
1571,62.0,72.0,150.0,12.0,0.0
1572,83.0,0.0,90.0,10.0,0.0
1573,83.0,0.0,90.0,10.0,0.0
1574,71.0,120.0,90.0,11.0,0.0
1575,85.0,0.0,90.0,10.0,0.0
1576,70.0,0.0,150.0,12.0,0.0
1577,58.0,0.0,150.0,2.0,0.0
1578,46.0,72.0,150.0,14.0,0.0
1579,73.0,48.0,90.0,11.0,0.0
1580,58.0,0.0,150.0,13.0,0.0
1581,73.0,0.0,90.0,11.0,0.0
1582,85.0,24.0,90.0,10.0,0.0
1583,90.0,0.0,300.0,0.0,0.0
1584,59.0,0.0,150.0,2.0,0.0
1585,47.0,0.0,150.0,14.0,0.0
1586,74.0,0.0,90.0,11.0,0.0
1587,86.0,48.0,90.0,10.0,0.0
1588,71.0,72.0,150.0,12.0,0.0
1589,78.0,48.0,300.0,1.0,0.0
1590,59.0,0.0,150.0,13.0,0.0
1591,86.0,0.0,90.0,10.0,0.0
1592,74.0,72.0,90.0,11.0,0.0
1593,47.0,72.0,150.0,2.0,0.0
1594,74.0,48.0,90.0,11.0,0.0
1595,86.0,0.0,90.0,10.0,0.0
1596,35.0,0.0,150.0,14.0,0.0
1597,47.0,0.0,150.0,13.0,0.0
1598,59.0,0.0,150.0,12.0,0.0
1599,86.0,0.0,90.0,10.0,0.0
1600,74.0,120.0,90.0,11.0,0.0
1601,87.0,48.0,90.0,10.0,0.0
1602,71.0,0.0,870.0,1.0,0.0
1603,78.0,72.0,390.0,1.0,0.0
1604,47.0,72.0,150.0,14.0,0.0
1605,59.0,0.0,150.0,2.0,0.0
1606,83.0,48.0,780.0,0.0,0.0
1607,71.0,0.0,150.0,12.0,0.0
1608,75.0,0.0,90.0,11.0,0.0
1609,59.0,0.0,150.0,13.0,0.0
1610,87.0,0.0,90.0,10.0,0.0
1611,75.0,120.0,90.0,11.0,0.0
1612,57.0,0.0,150.0,2.0,0.0
1613,45.0,0.0,150.0,14.0,0.0
1614,57.0,0.0,150.0,13.0,0.0
1615,87.0,0.0,90.0,10.0,0.0
1616,75.0,48.0,90.0,11.0,0.0
1617,66.0,0.0,150.0,12.0,0.0
1618,87.0,0.0,90.0,10.0,0.0
1619,75.0,120.0,90.0,11.0,0.0
1620,76.0,48.0,90.0,11.0,0.0
1621,44.0,0.0,150.0,14.0,0.0
1622,88.0,0.0,90.0,10.0,0.0
1623,56.0,0.0,150.0,13.0,0.0
1624,80.0,0.0,870.0,1.0,0.0
1625,68.0,72.0,150.0,12.0,0.0
1626,56.0,0.0,150.0,2.0,0.0
1627,76.0,72.0,90.0,11.0,0.0
1628,88.0,0.0,90.0,10.0,0.0
1629,88.0,0.0,90.0,10.0,0.0
1630,76.0,48.0,90.0,11.0,0.0
1631,49.0,0.0,150.0,2.0,0.0
1632,61.0,0.0,150.0,12.0,0.0
1633,49.0,72.0,150.0,13.0,0.0
1634,37.0,0.0,150.0,14.0,0.0
1635,88.0,0.0,90.0,10.0,0.0
1636,76.0,120.0,90.0,11.0,0.0
1637,77.0,48.0,90.0,11.0,0.0
1638,49.0,0.0,390.0,5.0,0.0
1639,73.0,0.0,150.0,12.0,0.0
1640,89.0,0.0,90.0,10.0,0.0
1641,61.0,0.0,390.0,3.0,0.0
1642,73.0,0.0,780.0,1.0,0.0
1643,85.0,96.0,780.0,0.0,0.0
1644,61.0,0.0,150.0,2.0,0.0
1645,61.0,0.0,150.0,13.0,0.0
1646,49.0,72.0,150.0,14.0,0.0
1647,73.0,72.0,390.0,4.0,0.0
1648,77.0,120.0,90.0,11.0,0.0
1649,89.0,0.0,90.0,10.0,0.0
1650,89.0,0.0,90.0,10.0,0.0
1651,47.0,0.0,150.0,14.0,0.0
1652,59.0,0.0,150.0,13.0,0.0
1653,77.0,48.0,90.0,11.0,0.0
1654,59.0,0.0,150.0,2.0,0.0
1655,71.0,0.0,150.0,12.0,0.0
1656,89.0,0.0,90.0,10.0,0.0
1657,77.0,216.0,90.0,11.0,0.0
1658,78.0,0.0,300.0,11.0,0.0
1659,90.0,0.0,300.0,10.0,0.0
1660,78.0,0.0,390.0,4.0,0.0
1661,57.0,48.0,390.0,2.0,0.0
1662,81.0,0.0,300.0,1.0,0.0
1663,54.0,0.0,390.0,5.0,0.0
1664,69.0,0.0,180.0,12.0,0.0
1665,66.0,0.0,390.0,4.0,0.0
1666,57.0,0.0,180.0,13.0,0.0
1667,61.0,0.0,390.0,3.0,0.0
1668,54.0,0.0,390.0,3.0,0.0
1669,45.0,96.0,180.0,14.0,0.0
1670,57.0,240.0,180.0,13.0,0.0
1671,45.0,0.0,180.0,14.0,0.0
1672,57.0,0.0,180.0,12.0,0.0
1673,85.0,0.0,300.0,10.0,0.0
1674,73.0,144.0,300.0,11.0,0.0
1675,57.0,96.0,180.0,13.0,0.0
1676,45.0,0.0,180.0,14.0,0.0
1677,57.0,0.0,180.0,12.0,0.0
1678,45.0,0.0,180.0,14.0,0.0
1679,57.0,240.0,180.0,12.0,0.0
1680,57.0,0.0,180.0,13.0,0.0
1681,81.0,0.0,300.0,10.0,0.0
1682,69.0,144.0,300.0,11.0,0.0
1683,57.0,0.0,180.0,12.0,0.0
1684,57.0,0.0,180.0,13.0,0.0
1685,45.0,96.0,180.0,14.0,0.0
1686,57.0,0.0,180.0,12.0,0.0
1687,45.0,240.0,180.0,14.0,0.0
1688,57.0,0.0,180.0,13.0,0.0
1689,57.0,96.0,180.0,12.0,0.0
1690,57.0,0.0,180.0,13.0,0.0
1691,45.0,0.0,180.0,14.0,0.0
1692,66.0,0.0,300.0,11.0,0.0
1693,78.0,144.0,300.0,10.0,0.0
1694,57.0,0.0,180.0,13.0,0.0
1695,57.0,240.0,180.0,12.0,0.0
1696,45.0,0.0,180.0,14.0,0.0
1697,79.0,0.0,300.0,1.0,0.0
1698,67.0,0.0,780.0,10.0,0.0
1699,59.0,0.0,780.0,10.0,0.0
1700,59.0,0.0,180.0,13.0,0.0
1701,62.0,0.0,780.0,11.0,0.0
1702,91.0,0.0,300.0,0.0,0.0
1703,67.0,144.0,300.0,2.0,0.0
1704,59.0,0.0,180.0,12.0,0.0
1705,47.0,96.0,180.0,14.0,0.0
1706,59.0,0.0,180.0,13.0,0.0
1707,47.0,240.0,180.0,14.0,0.0
1708,59.0,0.0,180.0,12.0,0.0
1709,86.0,0.0,300.0,0.0,0.0
1710,59.0,0.0,180.0,12.0,0.0
1711,59.0,0.0,180.0,13.0,0.0
1712,86.0,0.0,300.0,1.0,0.0
1713,74.0,144.0,300.0,1.0,0.0
1714,62.0,0.0,300.0,2.0,0.0
1715,47.0,96.0,180.0,14.0,0.0
1716,59.0,0.0,180.0,13.0,0.0
1717,47.0,0.0,180.0,14.0,0.0
1718,59.0,240.0,180.0,12.0,0.0
1719,59.0,0.0,180.0,13.0,0.0
1720,83.0,96.0,300.0,1.0,0.0
1721,59.0,0.0,180.0,12.0,0.0
1722,47.0,96.0,180.0,14.0,0.0
1723,71.0,0.0,300.0,2.0,0.0
1724,59.0,0.0,300.0,2.0,0.0
1725,83.0,0.0,300.0,0.0,0.0
1726,71.0,0.0,300.0,1.0,0.0
1727,86.0,48.0,150.0,10.0,0.0
1728,47.0,0.0,180.0,14.0,0.0
1729,59.0,0.0,180.0,13.0,0.0
1730,59.0,192.0,180.0,12.0,0.0
1731,74.0,0.0,150.0,11.0,0.0
1732,67.0,0.0,300.0,1.0,0.0
1733,86.0,48.0,150.0,10.0,0.0
1734,47.0,96.0,180.0,14.0,0.0
1735,59.0,0.0,180.0,13.0,0.0
1736,79.0,96.0,300.0,1.0,0.0
1737,59.0,0.0,180.0,12.0,0.0
1738,55.0,0.0,300.0,2.0,0.0
1739,67.0,0.0,300.0,2.0,0.0
1740,79.0,0.0,300.0,0.0,0.0
1741,74.0,0.0,150.0,11.0,0.0
1742,86.0,0.0,150.0,10.0,0.0
1743,47.0,0.0,180.0,14.0,0.0
1744,59.0,240.0,180.0,12.0,0.0
1745,59.0,0.0,180.0,13.0,0.0
1746,74.0,48.0,150.0,11.0,0.0
1747,73.0,0.0,390.0,4.0,0.0
1748,61.0,48.0,390.0,4.0,0.0
1749,74.0,144.0,240.0,11.0,0.0
1750,49.0,0.0,390.0,5.0,0.0
1751,49.0,48.0,180.0,14.0,0.0
1752,61.0,0.0,180.0,13.0,0.0
1753,77.0,0.0,780.0,0.0,0.0
1754,65.0,144.0,780.0,1.0,0.0
1755,77.0,0.0,780.0,1.0,0.0
1756,86.0,0.0,240.0,10.0,0.0
1757,61.0,0.0,180.0,12.0,0.0
1758,61.0,0.0,1890.0,3.0,0.0
1759,49.0,278.0,1890.0,3.0,0.0
1760,65.0,0.0,780.0,2.0,0.0
1761,53.0,0.0,780.0,2.0,0.0
1762,61.0,0.0,180.0,13.0,0.0
1763,61.0,0.0,180.0,12.0,0.0
1764,73.0,0.0,180.0,11.0,0.0
1765,85.0,240.0,180.0,10.0,0.0
1766,49.0,0.0,180.0,14.0,0.0
1767,61.0,0.0,180.0,12.0,0.0
1768,61.0,96.0,180.0,13.0,0.0
1769,73.0,96.0,570.0,11.0,0.0
1770,49.0,0.0,180.0,14.0,0.0
1771,85.0,0.0,570.0,10.0,0.0
1772,49.0,0.0,180.0,14.0,0.0
1773,61.0,0.0,180.0,12.0,0.0
1774,61.0,144.0,180.0,13.0,0.0
1775,61.0,0.0,180.0,13.0,0.0
1776,61.0,192.0,180.0,12.0,0.0
1777,49.0,0.0,180.0,14.0,0.0
1778,80.0,0.0,150.0,1.0,0.0
1779,77.0,36.0,150.0,1.0,0.0
1780,61.0,0.0,180.0,13.0,0.0
1781,49.0,192.0,180.0,14.0,0.0
1782,71.0,0.0,150.0,11.0,0.0
1783,61.0,0.0,180.0,12.0,0.0
1784,89.0,0.0,150.0,0.0,0.0
1785,83.0,12.0,150.0,10.0,0.0
1786,49.0,0.0,180.0,14.0,0.0
1787,71.0,0.0,150.0,11.0,0.0
1788,89.0,36.0,150.0,0.0,0.0
1789,61.0,0.0,180.0,12.0,0.0
1790,83.0,12.0,150.0,10.0,0.0
1791,61.0,192.0,180.0,13.0,0.0
1792,80.0,0.0,150.0,1.0,0.0
1793,77.0,0.0,150.0,1.0,0.0
1794,61.0,0.0,180.0,12.0,0.0
1795,80.0,0.0,150.0,1.0,0.0
1796,77.0,0.0,150.0,1.0,0.0
1797,71.0,12.0,150.0,11.0,0.0
1798,61.0,0.0,180.0,13.0,0.0
1799,83.0,0.0,150.0,10.0,0.0
1800,89.0,36.0,150.0,0.0,0.0
1801,49.0,10.0,180.0,14.0,0.0
1802,71.0,0.0,240.0,11.0,0.0
1803,83.0,0.0,240.0,10.0,0.0
1804,89.0,144.0,240.0,0.0,0.0
1805,62.0,0.0,390.0,12.0,0.0
1806,78.0,0.0,390.0,4.0,0.0
1807,80.0,0.0,240.0,1.0,0.0
1808,66.0,48.0,390.0,4.0,0.0
1809,66.0,0.0,390.0,3.0,0.0
1810,54.0,0.0,390.0,3.0,0.0
1811,77.0,0.0,240.0,1.0,0.0
1812,54.0,0.0,390.0,5.0,0.0
1813,50.0,0.0,390.0,14.0,0.0
1814,62.0,0.0,390.0,13.0,0.0
1815,69.0,0.0,180.0,11.0,0.0
1816,81.0,432.0,180.0,1.0,0.0
1817,81.0,0.0,180.0,10.0,0.0
1818,78.0,0.0,180.0,1.0,0.0
1819,90.0,0.0,180.0,0.0,0.0
1820,81.0,480.0,390.0,10.0,0.0
1821,81.0,0.0,390.0,1.0,0.0
1822,78.0,0.0,390.0,1.0,0.0
1823,69.0,0.0,390.0,11.0,0.0
1824,90.0,0.0,390.0,0.0,0.0
1825,59.0,0.0,960.0,2.0,0.0
1826,62.0,96.0,390.0,12.0,0.0
1827,68.0,0.0,960.0,2.0,0.0
1828,47.0,0.0,390.0,14.0,0.0
1829,59.0,0.0,390.0,13.0,0.0
1830,71.0,240.0,240.0,11.0,0.0
1831,80.0,0.0,240.0,10.0,0.0
1832,83.0,0.0,240.0,10.0,0.0
1833,74.0,240.0,240.0,11.0,0.0
1834,80.0,0.0,240.0,10.0,0.0
1835,71.0,384.0,240.0,11.0,0.0
1836,61.0,96.0,390.0,12.0,0.0
1837,49.0,0.0,390.0,14.0,0.0
1838,61.0,0.0,390.0,13.0,0.0
1839,57.0,0.0,960.0,2.0,0.0
1840,66.0,0.0,960.0,2.0,0.0
1841,69.0,0.0,240.0,11.0,0.0
1842,78.0,240.0,240.0,10.0,0.0
1843,73.0,0.0,240.0,11.0,0.0
1844,81.0,240.0,240.0,10.0,0.0
1845,69.0,384.0,240.0,11.0,0.0
1846,78.0,0.0,240.0,10.0,0.0
1847,37.0,0.0,390.0,14.0,0.0
1848,61.0,96.0,390.0,12.0,0.0
1849,65.0,0.0,960.0,2.0,0.0
1850,56.0,0.0,960.0,2.0,0.0
1851,49.0,0.0,390.0,13.0,0.0
1852,77.0,240.0,240.0,10.0,0.0
1853,68.0,0.0,240.0,11.0,0.0
1854,80.0,240.0,240.0,10.0,0.0
1855,71.0,0.0,240.0,11.0,0.0
1856,68.0,192.0,240.0,11.0,0.0
1857,77.0,0.0,240.0,10.0,0.0
1858,61.0,48.0,1830.0,3.0,0.0
1859,78.0,0.0,1830.0,4.0,0.0
1860,90.0,0.0,300.0,10.0,0.0
1861,54.0,0.0,390.0,5.0,0.0
1862,85.0,0.0,1830.0,1.0,0.0
1863,57.0,0.0,180.0,12.0,0.0
1864,54.0,0.0,1830.0,3.0,0.0
1865,90.0,0.0,1830.0,0.0,0.0
1866,73.0,0.0,1830.0,1.0,0.0
1867,66.0,48.0,390.0,2.0,0.0
1868,57.0,0.0,390.0,2.0,0.0
1869,57.0,96.0,180.0,13.0,0.0
1870,45.0,0.0,180.0,14.0,0.0
1871,66.0,0.0,1830.0,4.0,0.0
1872,78.0,96.0,300.0,11.0,0.0
1873,57.0,0.0,180.0,13.0,0.0
1874,57.0,240.0,180.0,12.0,0.0
1875,45.0,0.0,180.0,14.0,0.0
1876,57.0,0.0,180.0,13.0,0.0
1877,73.0,0.0,300.0,11.0,0.0
1878,85.0,144.0,300.0,10.0,0.0
1879,45.0,0.0,180.0,14.0,0.0
1880,57.0,96.0,180.0,12.0,0.0
1881,57.0,240.0,180.0,13.0,0.0
1882,57.0,0.0,180.0,12.0,0.0
1883,45.0,0.0,180.0,14.0,0.0
1884,57.0,96.0,180.0,12.0,0.0
1885,57.0,0.0,180.0,13.0,0.0
1886,81.0,0.0,300.0,10.0,0.0
1887,69.0,144.0,300.0,11.0,0.0
1888,45.0,0.0,180.0,14.0,0.0
1889,45.0,0.0,180.0,14.0,0.0
1890,57.0,0.0,180.0,12.0,0.0
1891,57.0,240.0,180.0,13.0,0.0
1892,45.0,0.0,180.0,14.0,0.0
1893,66.0,0.0,300.0,11.0,0.0
1894,78.0,96.0,300.0,10.0,0.0
1895,57.0,0.0,180.0,13.0,0.0
1896,57.0,96.0,180.0,12.0,0.0
1897,45.0,240.0,180.0,14.0,0.0
1898,57.0,0.0,180.0,13.0,0.0
1899,57.0,0.0,180.0,12.0,0.0
1900,91.0,144.0,300.0,0.0,0.0
1901,59.0,96.0,180.0,13.0,0.0
1902,79.0,0.0,300.0,1.0,0.0
1903,59.0,0.0,180.0,12.0,0.0
1904,59.0,144.0,780.0,10.0,0.0
1905,67.0,0.0,780.0,10.0,0.0
1906,67.0,0.0,300.0,2.0,0.0
1907,62.0,0.0,780.0,11.0,0.0
1908,47.0,0.0,180.0,14.0,0.0
1909,59.0,240.0,180.0,13.0,0.0
1910,59.0,0.0,180.0,12.0,0.0
1911,47.0,0.0,180.0,14.0,0.0
1912,86.0,0.0,300.0,1.0,0.0
1913,86.0,0.0,300.0,0.0,0.0
1914,74.0,0.0,300.0,1.0,0.0
1915,59.0,0.0,180.0,12.0,0.0
1916,59.0,0.0,180.0,13.0,0.0
1917,62.0,0.0,300.0,2.0,0.0
1918,47.0,96.0,180.0,14.0,0.0
1919,47.0,0.0,180.0,14.0,0.0
1920,59.0,240.0,180.0,13.0,0.0
1921,59.0,0.0,180.0,12.0,0.0
1922,83.0,0.0,300.0,0.0,0.0
1923,71.0,96.0,300.0,2.0,0.0
1924,59.0,0.0,300.0,2.0,0.0
1925,59.0,96.0,180.0,12.0,0.0
1926,59.0,0.0,180.0,13.0,0.0
1927,47.0,0.0,180.0,14.0,0.0
1928,83.0,0.0,300.0,1.0,0.0
1929,71.0,0.0,300.0,1.0,0.0
1930,59.0,0.0,180.0,13.0,0.0
1931,74.0,0.0,150.0,11.0,0.0
1932,59.0,0.0,180.0,12.0,0.0
1933,86.0,48.0,150.0,10.0,0.0
1934,47.0,192.0,180.0,14.0,0.0
1935,86.0,48.0,150.0,10.0,0.0
1936,67.0,0.0,300.0,2.0,0.0
1937,74.0,0.0,150.0,11.0,0.0
1938,79.0,0.0,300.0,0.0,0.0
1939,59.0,0.0,180.0,13.0,0.0
1940,55.0,96.0,300.0,2.0,0.0
1941,67.0,0.0,300.0,1.0,0.0
1942,79.0,0.0,300.0,1.0,0.0
1943,59.0,0.0,180.0,12.0,0.0
1944,47.0,96.0,180.0,14.0,0.0
1945,47.0,0.0,180.0,14.0,0.0
1946,74.0,48.0,150.0,11.0,0.0
1947,59.0,240.0,180.0,13.0,0.0
1948,86.0,0.0,150.0,10.0,0.0
1949,59.0,0.0,180.0,12.0,0.0
1950,73.0,0.0,390.0,4.0,0.0
1951,61.0,48.0,390.0,4.0,0.0
1952,74.0,144.0,240.0,11.0,0.0
1953,49.0,0.0,180.0,14.0,0.0
1954,49.0,0.0,390.0,5.0,0.0
1955,49.0,240.0,1920.0,3.0,0.0
1956,61.0,48.0,180.0,12.0,0.0
1957,61.0,0.0,180.0,13.0,0.0
1958,77.0,144.0,780.0,0.0,0.0
1959,86.0,0.0,240.0,10.0,0.0
1960,53.0,0.0,780.0,2.0,0.0
1961,61.0,0.0,1920.0,3.0,0.0
1962,65.0,0.0,780.0,2.0,0.0
1963,77.0,0.0,780.0,1.0,0.0
1964,65.0,0.0,780.0,1.0,0.0
1965,61.0,0.0,180.0,12.0,0.0
1966,85.0,240.0,180.0,10.0,0.0
1967,73.0,0.0,180.0,11.0,0.0
1968,61.0,0.0,180.0,13.0,0.0
1969,49.0,0.0,180.0,14.0,0.0
1970,73.0,96.0,570.0,11.0,0.0
1971,61.0,96.0,180.0,13.0,0.0
1972,49.0,0.0,180.0,14.0,0.0
1973,61.0,0.0,180.0,12.0,0.0
1974,85.0,0.0,570.0,10.0,0.0
1975,61.0,0.0,180.0,13.0,0.0
1976,61.0,0.0,180.0,12.0,0.0
1977,49.0,144.0,180.0,14.0,0.0
1978,61.0,0.0,180.0,12.0,0.0
1979,49.0,192.0,180.0,14.0,0.0
1980,61.0,0.0,180.0,13.0,0.0
1981,83.0,0.0,150.0,10.0,0.0
1982,89.0,36.0,150.0,0.0,0.0
1983,49.0,0.0,180.0,14.0,0.0
1984,71.0,12.0,150.0,11.0,0.0
1985,77.0,0.0,150.0,1.0,0.0
1986,80.0,0.0,150.0,1.0,0.0
1987,61.0,0.0,180.0,13.0,0.0
1988,61.0,192.0,180.0,12.0,0.0
1989,61.0,0.0,180.0,13.0,0.0
1990,71.0,12.0,150.0,11.0,0.0
1991,80.0,0.0,150.0,1.0,0.0
1992,77.0,0.0,150.0,1.0,0.0
1993,83.0,0.0,150.0,10.0,0.0
1994,89.0,36.0,150.0,0.0,0.0
1995,49.0,192.0,180.0,14.0,0.0
1996,61.0,0.0,180.0,12.0,0.0
1997,80.0,36.0,150.0,1.0,0.0
1998,61.0,0.0,180.0,12.0,0.0
1999,89.0,0.0,150.0,0.0,0.0
2000,71.0,0.0,150.0,11.0,0.0
2001,83.0,12.0,150.0,10.0,0.0
2002,49.0,0.0,180.0,14.0,0.0
2003,77.0,0.0,150.0,1.0,0.0
2004,61.0,48.0,180.0,13.0,0.0
2005,89.0,0.0,240.0,0.0,0.0
2006,54.0,0.0,390.0,5.0,0.0
2007,62.0,0.0,390.0,12.0,0.0
2008,66.0,0.0,390.0,4.0,0.0
2009,78.0,0.0,390.0,4.0,0.0
2010,50.0,48.0,390.0,14.0,0.0
2011,71.0,0.0,240.0,11.0,0.0
2012,80.0,144.0,240.0,1.0,0.0
2013,62.0,0.0,390.0,13.0,0.0
2014,54.0,0.0,390.0,3.0,0.0
2015,66.0,0.0,390.0,3.0,0.0
2016,83.0,0.0,240.0,10.0,0.0
2017,77.0,0.0,240.0,1.0,0.0
2018,81.0,0.0,180.0,1.0,0.0
2019,78.0,0.0,180.0,1.0,0.0
2020,81.0,0.0,180.0,10.0,0.0
2021,69.0,0.0,180.0,11.0,0.0
2022,90.0,432.0,180.0,0.0,0.0
2023,81.0,0.0,390.0,1.0,0.0
2024,90.0,0.0,390.0,0.0,0.0
2025,81.0,480.0,390.0,10.0,0.0
2026,69.0,0.0,390.0,11.0,0.0
2027,78.0,0.0,390.0,1.0,0.0
2028,68.0,0.0,960.0,2.0,0.0
2029,59.0,0.0,960.0,2.0,0.0
2030,59.0,96.0,390.0,13.0,0.0
2031,47.0,0.0,390.0,14.0,0.0
2032,62.0,0.0,390.0,12.0,0.0
2033,80.0,0.0,240.0,10.0,0.0
2034,71.0,240.0,240.0,11.0,0.0
2035,74.0,240.0,240.0,11.0,0.0
2036,83.0,0.0,240.0,10.0,0.0
2037,71.0,384.0,240.0,11.0,0.0
2038,80.0,0.0,240.0,10.0,0.0
2039,57.0,384.0,960.0,2.0,0.0
2040,49.0,0.0,390.0,14.0,0.0
2041,61.0,0.0,390.0,12.0,0.0
2042,61.0,96.0,390.0,13.0,0.0
2043,66.0,0.0,960.0,2.0,0.0
2044,78.0,0.0,240.0,10.0,0.0
2045,69.0,240.0,240.0,11.0,0.0
2046,81.0,0.0,240.0,10.0,0.0
2047,73.0,240.0,240.0,11.0,0.0
2048,69.0,0.0,240.0,11.0,0.0
2049,78.0,0.0,240.0,10.0,0.0
2050,56.0,0.0,960.0,2.0,0.0
2051,61.0,0.0,390.0,12.0,0.0
2052,65.0,0.0,960.0,2.0,0.0
2053,37.0,0.0,390.0,14.0,0.0
2054,49.0,96.0,390.0,13.0,0.0
2055,77.0,0.0,240.0,10.0,0.0
2056,68.0,240.0,240.0,11.0,0.0
2057,80.0,240.0,240.0,10.0,0.0
2058,71.0,0.0,240.0,11.0,0.0
2059,77.0,96.0,240.0,10.0,0.0
2060,68.0,0.0,240.0,11.0,0.0
2061,66.0,0.0,570.0,11.0,0.0
2062,54.0,24.0,420.0,13.0,0.0
2063,42.0,0.0,420.0,14.0,0.0
2064,66.0,0.0,570.0,1.0,0.0
2065,54.0,0.0,570.0,12.0,0.0
2066,66.0,0.0,390.0,2.0,0.0
2067,54.0,48.0,390.0,2.0,0.0
2068,54.0,0.0,390.0,5.0,0.0
2069,66.0,0.0,90.0,10.0,0.0
2070,78.0,0.0,390.0,4.0,0.0
2071,66.0,0.0,390.0,4.0,0.0
2072,78.0,120.0,90.0,10.0,0.0
2073,66.0,0.0,6150.0,3.0,0.0
2074,54.0,0.0,6150.0,3.0,0.0
2075,78.0,0.0,570.0,1.0,0.0
2076,90.0,240.0,6150.0,0.0,0.0
2077,66.0,120.0,90.0,10.0,0.0
2078,78.0,0.0,90.0,10.0,0.0
2079,66.0,48.0,90.0,10.0,0.0
2080,78.0,0.0,90.0,10.0,0.0
2081,66.0,120.0,90.0,10.0,0.0
2082,78.0,0.0,90.0,10.0,0.0
2083,78.0,0.0,90.0,10.0,0.0
2084,66.0,120.0,90.0,10.0,0.0
2085,66.0,120.0,90.0,10.0,0.0
2086,78.0,0.0,90.0,10.0,0.0
2087,66.0,0.0,150.0,1.0,0.0
2088,42.0,0.0,150.0,14.0,0.0
2089,54.0,0.0,150.0,12.0,0.0
2090,78.0,0.0,90.0,10.0,0.0
2091,66.0,48.0,90.0,10.0,0.0
2092,78.0,0.0,150.0,1.0,0.0
2093,54.0,0.0,150.0,2.0,0.0
2094,54.0,72.0,150.0,13.0,0.0
2095,66.0,0.0,90.0,11.0,0.0
2096,66.0,120.0,90.0,11.0,0.0
2097,66.0,0.0,90.0,10.0,0.0
2098,78.0,0.0,90.0,10.0,0.0
2099,67.0,0.0,150.0,1.0,0.0
2100,79.0,0.0,150.0,1.0,0.0
2101,78.0,0.0,90.0,10.0,0.0
2102,55.0,0.0,150.0,12.0,0.0
2103,67.0,48.0,90.0,11.0,0.0
2104,55.0,0.0,150.0,13.0,0.0
2105,55.0,72.0,150.0,2.0,0.0
2106,43.0,0.0,150.0,14.0,0.0
2107,66.0,0.0,90.0,10.0,0.0
2108,66.0,120.0,90.0,10.0,0.0
2109,78.0,0.0,90.0,10.0,0.0
2110,67.0,0.0,90.0,11.0,0.0
2111,42.0,0.0,150.0,14.0,0.0
2112,54.0,0.0,150.0,13.0,0.0
2113,66.0,48.0,90.0,11.0,0.0
2114,54.0,72.0,150.0,2.0,0.0
2115,78.0,0.0,90.0,10.0,0.0
2116,78.0,0.0,150.0,1.0,0.0
2117,66.0,0.0,90.0,10.0,0.0
2118,54.0,0.0,150.0,12.0,0.0
2119,66.0,0.0,150.0,1.0,0.0
2120,66.0,0.0,90.0,10.0,0.0
2121,66.0,0.0,90.0,11.0,0.0
2122,78.0,120.0,90.0,10.0,0.0
2123,66.0,0.0,90.0,10.0,0.0
2124,78.0,48.0,90.0,10.0,0.0
2125,56.0,0.0,150.0,2.0,0.0
2126,44.0,0.0,150.0,14.0,0.0
2127,68.0,72.0,150.0,1.0,0.0
2128,80.0,0.0,150.0,1.0,0.0
2129,56.0,0.0,150.0,12.0,0.0
2130,68.0,0.0,90.0,11.0,0.0
2131,56.0,0.0,150.0,13.0,0.0
2132,66.0,0.0,90.0,10.0,0.0
2133,78.0,0.0,90.0,10.0,0.0
2134,68.0,120.0,90.0,11.0,0.0
2135,70.0,48.0,90.0,11.0,0.0
2136,58.0,0.0,150.0,2.0,0.0
2137,58.0,0.0,150.0,12.0,0.0
2138,46.0,72.0,150.0,14.0,0.0
2139,78.0,0.0,90.0,10.0,0.0
2140,58.0,0.0,150.0,13.0,0.0
2141,66.0,0.0,90.0,10.0,0.0
2142,70.0,0.0,150.0,1.0,0.0
2143,82.0,0.0,150.0,1.0,0.0
2144,70.0,0.0,90.0,11.0,0.0
2145,66.0,120.0,90.0,10.0,0.0
2146,78.0,0.0,90.0,10.0,0.0
2147,54.0,0.0,390.0,5.0,0.0
2148,71.0,0.0,150.0,1.0,0.0
2149,66.0,0.0,390.0,4.0,0.0
2150,47.0,0.0,150.0,14.0,0.0
2151,71.0,0.0,90.0,11.0,0.0
2152,78.0,72.0,390.0,4.0,0.0
2153,59.0,0.0,150.0,2.0,0.0
2154,59.0,72.0,150.0,13.0,0.0
2155,59.0,0.0,150.0,12.0,0.0
2156,66.0,48.0,90.0,10.0,0.0
2157,78.0,0.0,90.0,10.0,0.0
2158,83.0,0.0,150.0,1.0,0.0
2159,71.0,0.0,90.0,11.0,0.0
2160,78.0,120.0,90.0,10.0,0.0
2161,66.0,0.0,90.0,10.0,0.0
2162,58.0,0.0,150.0,12.0,0.0
2163,58.0,0.0,150.0,2.0,0.0
2164,46.0,0.0,150.0,14.0,0.0
2165,66.0,0.0,90.0,10.0,0.0
2166,78.0,0.0,90.0,10.0,0.0
2167,70.0,0.0,150.0,1.0,0.0
2168,82.0,0.0,150.0,1.0,0.0
2169,58.0,0.0,150.0,13.0,0.0
2170,70.0,48.0,90.0,11.0,0.0
2171,66.0,120.0,90.0,10.0,0.0
2172,70.0,0.0,90.0,11.0,0.0
2173,78.0,0.0,90.0,10.0,0.0
2174,66.0,0.0,90.0,10.0,0.0
2175,59.0,0.0,150.0,12.0,0.0
2176,47.0,72.0,150.0,14.0,0.0
2177,78.0,0.0,90.0,10.0,0.0
2178,59.0,0.0,150.0,2.0,0.0
2179,71.0,0.0,150.0,1.0,0.0
2180,83.0,0.0,150.0,1.0,0.0
2181,71.0,48.0,90.0,11.0,0.0
2182,59.0,0.0,150.0,13.0,0.0
2183,71.0,0.0,90.0,11.0,0.0
2184,78.0,0.0,90.0,10.0,0.0
2185,66.0,120.0,90.0,10.0,0.0
2186,68.0,0.0,90.0,11.0,0.0
2187,44.0,0.0,150.0,14.0,0.0
2188,68.0,0.0,150.0,1.0,0.0
2189,80.0,0.0,150.0,1.0,0.0
2190,56.0,0.0,150.0,12.0,0.0
2191,56.0,0.0,150.0,13.0,0.0
2192,66.0,0.0,90.0,10.0,0.0
2193,78.0,48.0,90.0,10.0,0.0
2194,56.0,72.0,150.0,2.0,0.0
2195,66.0,120.0,90.0,10.0,0.0
2196,68.0,0.0,90.0,11.0,0.0
2197,78.0,0.0,90.0,10.0,0.0
2198,81.0,0.0,150.0,1.0,0.0
2199,57.0,0.0,150.0,13.0,0.0
2200,69.0,0.0,90.0,11.0,0.0
2201,69.0,0.0,150.0,1.0,0.0
2202,57.0,72.0,150.0,2.0,0.0
2203,78.0,0.0,90.0,10.0,0.0
2204,66.0,48.0,90.0,10.0,0.0
2205,45.0,0.0,150.0,14.0,0.0
2206,57.0,0.0,150.0,12.0,0.0
2207,78.0,0.0,90.0,10.0,0.0
2208,69.0,120.0,90.0,11.0,0.0
2209,66.0,0.0,90.0,10.0,0.0
2210,68.0,0.0,150.0,1.0,0.0
2211,56.0,0.0,150.0,2.0,0.0
2212,68.0,48.0,90.0,11.0,0.0
2213,80.0,0.0,150.0,1.0,0.0
2214,78.0,0.0,90.0,10.0,0.0
2215,66.0,0.0,90.0,10.0,0.0
2216,56.0,72.0,150.0,13.0,0.0
2217,44.0,0.0,150.0,14.0,0.0
2218,56.0,0.0,150.0,12.0,0.0
2219,78.0,120.0,90.0,10.0,0.0
2220,66.0,0.0,90.0,10.0,0.0
2221,68.0,0.0,90.0,11.0,0.0
2222,58.0,0.0,150.0,12.0,0.0
2223,70.0,0.0,150.0,1.0,0.0
2224,58.0,0.0,150.0,2.0,0.0
2225,78.0,48.0,90.0,10.0,0.0
2226,82.0,0.0,150.0,1.0,0.0
2227,70.0,0.0,90.0,11.0,0.0
2228,58.0,72.0,150.0,13.0,0.0
2229,46.0,0.0,150.0,14.0,0.0
2230,66.0,0.0,90.0,10.0,0.0
2231,78.0,0.0,90.0,10.0,0.0
2232,66.0,0.0,90.0,10.0,0.0
2233,70.0,120.0,90.0,11.0,0.0
2234,84.0,0.0,150.0,1.0,0.0
2235,72.0,72.0,150.0,1.0,0.0
2236,66.0,0.0,90.0,10.0,0.0
2237,78.0,0.0,90.0,10.0,0.0
2238,60.0,0.0,150.0,2.0,0.0
2239,48.0,0.0,150.0,14.0,0.0
2240,60.0,0.0,150.0,13.0,0.0
2241,72.0,48.0,90.0,11.0,0.0
2242,60.0,0.0,150.0,12.0,0.0
2243,72.0,0.0,90.0,11.0,0.0
2244,78.0,120.0,90.0,10.0,0.0
2245,66.0,0.0,90.0,10.0,0.0
2246,78.0,0.0,390.0,4.0,0.0
2247,66.0,0.0,390.0,4.0,0.0
2248,78.0,0.0,90.0,10.0,0.0
2249,66.0,48.0,90.0,10.0,0.0
2250,85.0,72.0,150.0,1.0,0.0
2251,73.0,0.0,90.0,11.0,0.0
2252,61.0,0.0,150.0,2.0,0.0
2253,49.0,0.0,150.0,14.0,0.0
2254,61.0,0.0,150.0,12.0,0.0
2255,73.0,0.0,150.0,1.0,0.0
2256,61.0,0.0,150.0,13.0,0.0
2257,54.0,0.0,390.0,5.0,0.0
2258,78.0,0.0,90.0,10.0,0.0
2259,66.0,120.0,90.0,10.0,0.0
2260,73.0,0.0,90.0,11.0,0.0
2261,66.0,48.0,90.0,10.0,0.0
2262,60.0,0.0,150.0,2.0,0.0
2263,78.0,0.0,90.0,10.0,0.0
2264,60.0,0.0,150.0,12.0,0.0
2265,48.0,72.0,150.0,14.0,0.0
2266,84.0,0.0,150.0,1.0,0.0
2267,72.0,0.0,150.0,1.0,0.0
2268,60.0,0.0,150.0,13.0,0.0
2269,72.0,0.0,90.0,11.0,0.0
2270,78.0,120.0,90.0,10.0,0.0
2271,72.0,0.0,90.0,11.0,0.0
2272,66.0,0.0,90.0,10.0,0.0
2273,73.0,0.0,90.0,11.0,0.0
2274,73.0,0.0,150.0,1.0,0.0
2275,61.0,0.0,150.0,2.0,0.0
2276,61.0,0.0,150.0,13.0,0.0
2277,66.0,48.0,90.0,10.0,0.0
2278,61.0,0.0,150.0,12.0,0.0
2279,85.0,72.0,150.0,1.0,0.0
2280,49.0,0.0,150.0,14.0,0.0
2281,78.0,0.0,90.0,10.0,0.0
2282,73.0,0.0,90.0,11.0,0.0
2283,78.0,0.0,90.0,10.0,0.0
2284,66.0,120.0,90.0,10.0,0.0
2285,78.0,0.0,90.0,10.0,0.0
2286,66.0,0.0,90.0,10.0,0.0
2287,58.0,0.0,150.0,12.0,0.0
2288,46.0,0.0,150.0,14.0,0.0
2289,82.0,0.0,150.0,1.0,0.0
2290,70.0,0.0,150.0,1.0,0.0
2291,58.0,0.0,150.0,13.0,0.0
2292,58.0,72.0,150.0,2.0,0.0
2293,70.0,48.0,90.0,11.0,0.0
2294,78.0,120.0,90.0,10.0,0.0
2295,66.0,0.0,90.0,10.0,0.0
2296,70.0,0.0,90.0,11.0,0.0
2297,59.0,0.0,150.0,13.0,0.0
2298,59.0,0.0,150.0,12.0,0.0
2299,59.0,72.0,150.0,2.0,0.0
2300,66.0,48.0,90.0,10.0,0.0
2301,83.0,0.0,150.0,1.0,0.0
2302,71.0,0.0,150.0,1.0,0.0
2303,71.0,0.0,90.0,11.0,0.0
2304,78.0,0.0,90.0,10.0,0.0
2305,47.0,0.0,150.0,14.0,0.0
2306,71.0,0.0,90.0,11.0,0.0
2307,66.0,0.0,90.0,10.0,0.0
2308,78.0,120.0,90.0,10.0,0.0
2309,70.0,0.0,150.0,1.0,0.0
2310,82.0,0.0,150.0,1.0,0.0
2311,70.0,48.0,90.0,11.0,0.0
2312,46.0,72.0,150.0,14.0,0.0
2313,58.0,0.0,150.0,13.0,0.0
2314,66.0,0.0,90.0,10.0,0.0
2315,78.0,0.0,90.0,10.0,0.0
2316,58.0,0.0,150.0,2.0,0.0
2317,58.0,0.0,150.0,12.0,0.0
2318,78.0,0.0,90.0,10.0,0.0
2319,66.0,0.0,90.0,10.0,0.0
2320,70.0,120.0,90.0,11.0,0.0
2321,59.0,0.0,150.0,2.0,0.0
2322,78.0,0.0,90.0,10.0,0.0
2323,83.0,0.0,150.0,1.0,0.0
2324,66.0,0.0,90.0,10.0,0.0
2325,47.0,0.0,150.0,14.0,0.0
2326,59.0,0.0,150.0,13.0,0.0
2327,59.0,72.0,150.0,12.0,0.0
2328,71.0,0.0,150.0,1.0,0.0
2329,71.0,48.0,90.0,11.0,0.0
2330,78.0,0.0,90.0,10.0,0.0
2331,66.0,120.0,90.0,10.0,0.0
2332,71.0,0.0,90.0,11.0,0.0
2333,85.0,0.0,150.0,1.0,0.0
2334,66.0,48.0,90.0,10.0,0.0
2335,49.0,0.0,150.0,14.0,0.0
2336,78.0,0.0,90.0,10.0,0.0
2337,61.0,0.0,150.0,2.0,0.0
2338,61.0,0.0,150.0,13.0,0.0
2339,73.0,0.0,150.0,1.0,0.0
2340,61.0,72.0,150.0,12.0,0.0
2341,73.0,0.0,90.0,11.0,0.0
2342,73.0,0.0,90.0,11.0,0.0
2343,66.0,168.0,90.0,10.0,0.0
2344,78.0,0.0,90.0,10.0,0.0
2345,66.0,0.0,150.0,10.0,0.0
2346,78.0,240.0,150.0,10.0,0.0
2347,62.0,0.0,390.0,2.0,0.0
2348,78.0,0.0,390.0,4.0,0.0
2349,74.0,0.0,390.0,1.0,0.0
2350,86.0,0.0,390.0,1.0,0.0
2351,54.0,0.0,390.0,5.0,0.0
2352,50.0,0.0,390.0,14.0,0.0
2353,62.0,0.0,390.0,13.0,0.0
2354,66.0,0.0,390.0,4.0,0.0
2355,74.0,0.0,150.0,11.0,0.0
2356,62.0,0.0,390.0,12.0,0.0
2357,78.0,0.0,150.0,11.0,0.0
2358,90.0,0.0,150.0,10.0,0.0
2359,78.0,0.0,150.0,11.0,0.0
2360,90.0,240.0,150.0,10.0,0.0
2361,78.0,240.0,150.0,11.0,0.0
2362,90.0,0.0,150.0,10.0,0.0
2363,90.0,0.0,150.0,10.0,0.0
2364,78.0,240.0,150.0,11.0,0.0
2365,78.0,240.0,150.0,11.0,0.0
2366,90.0,0.0,150.0,10.0,0.0
2367,78.0,240.0,150.0,11.0,0.0
2368,90.0,0.0,150.0,10.0,0.0
2369,78.0,336.0,150.0,11.0,0.0
2370,90.0,0.0,150.0,10.0,0.0
2371,54.0,0.0,390.0,5.0,0.0
2372,76.0,144.0,240.0,11.0,0.0
2373,66.0,0.0,390.0,4.0,0.0
2374,78.0,0.0,390.0,4.0,0.0
2375,88.0,0.0,240.0,10.0,0.0
2376,47.0,0.0,150.0,13.0,0.0
2377,78.0,0.0,150.0,1.0,0.0
2378,35.0,0.0,150.0,14.0,0.0
2379,47.0,0.0,150.0,2.0,0.0
2380,59.0,0.0,150.0,12.0,0.0
2381,83.0,84.0,150.0,1.0,0.0
2382,86.0,0.0,150.0,0.0,0.0
2383,86.0,156.0,240.0,10.0,0.0
2384,74.0,0.0,240.0,11.0,0.0
2385,59.0,0.0,150.0,12.0,0.0
2386,86.0,0.0,150.0,0.0,0.0
2387,66.0,0.0,780.0,3.0,0.0
2388,54.0,96.0,780.0,3.0,0.0
2389,83.0,0.0,150.0,1.0,0.0
2390,59.0,0.0,150.0,13.0,0.0
2391,74.0,0.0,960.0,11.0,0.0
2392,47.0,0.0,150.0,14.0,0.0
2393,86.0,144.0,960.0,10.0,0.0
2394,59.0,0.0,150.0,2.0,0.0
2395,78.0,240.0,150.0,1.0,0.0
2396,47.0,0.0,150.0,14.0,0.0
2397,86.0,0.0,150.0,0.0,0.0
2398,59.0,0.0,150.0,13.0,0.0
2399,59.0,0.0,150.0,12.0,0.0
2400,78.0,240.0,150.0,1.0,0.0
2401,59.0,0.0,150.0,2.0,0.0
2402,83.0,0.0,150.0,1.0,0.0
2403,47.0,0.0,150.0,14.0,0.0
2404,59.0,0.0,150.0,12.0,0.0
2405,86.0,0.0,150.0,0.0,0.0
2406,59.0,0.0,150.0,13.0,0.0
2407,83.0,0.0,150.0,1.0,0.0
2408,78.0,144.0,150.0,1.0,0.0
2409,59.0,0.0,150.0,2.0,0.0
2410,47.0,0.0,150.0,14.0,0.0
2411,78.0,0.0,150.0,1.0,0.0
2412,59.0,0.0,150.0,12.0,0.0
2413,59.0,96.0,150.0,2.0,0.0
2414,86.0,0.0,150.0,0.0,0.0
2415,83.0,0.0,150.0,1.0,0.0
2416,59.0,0.0,150.0,13.0,0.0
2417,66.0,72.0,390.0,3.0,0.0
2418,54.0,0.0,390.0,3.0,0.0
2419,85.0,0.0,150.0,0.0,0.0
2420,73.0,0.0,450.0,11.0,0.0
2421,49.0,0.0,150.0,14.0,0.0
2422,61.0,0.0,150.0,2.0,0.0
2423,81.0,0.0,150.0,1.0,0.0
2424,78.0,0.0,150.0,1.0,0.0
2425,61.0,240.0,150.0,12.0,0.0
2426,61.0,0.0,150.0,13.0,0.0
2427,85.0,168.0,450.0,10.0,0.0
2428,61.0,0.0,150.0,13.0,0.0
2429,61.0,0.0,150.0,2.0,0.0
2430,81.0,0.0,150.0,1.0,0.0
2431,85.0,0.0,150.0,0.0,0.0
2432,78.0,0.0,150.0,1.0,0.0
2433,61.0,0.0,150.0,12.0,0.0
2434,49.0,0.0,150.0,14.0,0.0
2435,63.0,96.0,150.0,12.0,0.0
2436,54.0,0.0,390.0,5.0,0.0
2437,66.0,48.0,1530.0,3.0,0.0
2438,85.0,0.0,240.0,10.0,0.0
2439,54.0,0.0,1530.0,3.0,0.0
2440,51.0,0.0,150.0,14.0,0.0
2441,63.0,0.0,150.0,13.0,0.0
2442,78.0,84.0,390.0,4.0,0.0
2443,66.0,0.0,390.0,4.0,0.0
2444,73.0,144.0,240.0,11.0,0.0
2445,63.0,0.0,150.0,2.0,0.0
2446,78.0,0.0,150.0,1.0,0.0
2447,71.0,0.0,150.0,1.0,0.0
2448,39.0,0.0,150.0,14.0,0.0
2449,63.0,0.0,150.0,12.0,0.0
2450,71.0,156.0,240.0,11.0,0.0
2451,51.0,0.0,150.0,2.0,0.0
2452,83.0,0.0,240.0,10.0,0.0
2453,83.0,0.0,150.0,0.0,0.0
2454,51.0,0.0,150.0,13.0,0.0
2455,78.0,0.0,150.0,1.0,0.0
2456,71.0,0.0,150.0,1.0,0.0
2457,63.0,0.0,150.0,12.0,0.0
2458,63.0,0.0,150.0,2.0,0.0
2459,51.0,0.0,150.0,14.0,0.0
2460,83.0,0.0,960.0,10.0,0.0
2461,71.0,96.0,960.0,11.0,0.0
2462,63.0,240.0,150.0,13.0,0.0
2463,83.0,0.0,150.0,0.0,0.0
2464,63.0,0.0,150.0,13.0,0.0
2465,83.0,0.0,150.0,0.0,0.0
2466,63.0,0.0,150.0,2.0,0.0
2467,71.0,0.0,150.0,1.0,0.0
2468,51.0,0.0,150.0,14.0,0.0
2469,78.0,0.0,150.0,1.0,0.0
2470,63.0,240.0,150.0,12.0,0.0
2471,71.0,240.0,150.0,1.0,0.0
2472,78.0,0.0,150.0,1.0,0.0
2473,83.0,0.0,150.0,0.0,0.0
2474,63.0,0.0,150.0,2.0,0.0
2475,63.0,0.0,150.0,12.0,0.0
2476,51.0,0.0,150.0,14.0,0.0
2477,63.0,0.0,150.0,13.0,0.0
2478,83.0,0.0,150.0,0.0,0.0
2479,51.0,0.0,150.0,14.0,0.0
2480,63.0,0.0,150.0,13.0,0.0
2481,63.0,96.0,150.0,12.0,0.0
2482,63.0,0.0,150.0,2.0,0.0
2483,78.0,0.0,150.0,1.0,0.0
2484,71.0,0.0,150.0,1.0,0.0
2485,84.0,0.0,150.0,0.0,0.0
2486,62.0,0.0,150.0,2.0,0.0
2487,66.0,0.0,150.0,2.0,0.0
2488,80.0,240.0,150.0,1.0,0.0
2489,78.0,0.0,150.0,1.0,0.0
2490,62.0,0.0,150.0,13.0,0.0
2491,72.0,168.0,450.0,11.0,0.0
2492,62.0,0.0,150.0,12.0,0.0
2493,84.0,0.0,450.0,10.0,0.0
2494,50.0,0.0,150.0,14.0,0.0
2495,84.0,0.0,150.0,0.0,0.0
2496,62.0,0.0,150.0,12.0,0.0
2497,62.0,72.0,150.0,13.0,0.0
2498,66.0,0.0,150.0,2.0,0.0
2499,62.0,0.0,150.0,2.0,0.0
2500,78.0,0.0,150.0,1.0,0.0
2501,80.0,0.0,150.0,1.0,0.0
2502,50.0,0.0,150.0,14.0,0.0
2503,78.0,0.0,960.0,1.0,0.0
2504,66.0,0.0,960.0,2.0,0.0
2505,81.0,144.0,960.0,1.0,0.0
2506,61.0,48.0,780.0,3.0,0.0
2507,61.0,0.0,150.0,12.0,0.0
2508,73.0,84.0,690.0,11.0,0.0
2509,69.0,0.0,960.0,2.0,0.0
2510,73.0,0.0,780.0,4.0,0.0
2511,85.0,0.0,1920.0,0.0,0.0
2512,49.0,0.0,390.0,5.0,0.0
2513,61.0,240.0,150.0,13.0,0.0
2514,49.0,0.0,150.0,14.0,0.0
2515,85.0,0.0,690.0,10.0,0.0
2516,61.0,240.0,150.0,12.0,0.0
2517,49.0,0.0,150.0,14.0,0.0
2518,61.0,0.0,150.0,13.0,0.0
2519,61.0,0.0,150.0,12.0,0.0
2520,61.0,60.0,150.0,13.0,0.0
2521,49.0,0.0,150.0,14.0,0.0
2522,49.0,72.0,150.0,14.0,0.0
2523,81.0,48.0,90.0,10.0,0.0
2524,61.0,0.0,150.0,12.0,0.0
2525,69.0,0.0,90.0,11.0,0.0
2526,61.0,0.0,150.0,13.0,0.0
2527,66.0,0.0,90.0,11.0,0.0
2528,78.0,24.0,90.0,10.0,0.0
2529,49.0,144.0,150.0,14.0,0.0
2530,65.0,0.0,960.0,2.0,0.0
2531,61.0,0.0,300.0,11.0,0.0
2532,61.0,0.0,150.0,12.0,0.0
2533,61.0,0.0,390.0,3.0,0.0
2534,61.0,0.0,150.0,13.0,0.0
2535,73.0,0.0,390.0,4.0,0.0
2536,49.0,0.0,390.0,5.0,0.0
2537,68.0,384.0,960.0,2.0,0.0
2538,77.0,0.0,960.0,1.0,0.0
2539,73.0,96.0,300.0,10.0,0.0
2540,80.0,0.0,960.0,1.0,0.0
2541,61.0,240.0,150.0,13.0,0.0
2542,61.0,0.0,150.0,12.0,0.0
2543,49.0,0.0,150.0,14.0,0.0
2544,61.0,144.0,150.0,12.0,0.0
2545,61.0,0.0,390.0,3.0,0.0
2546,68.0,0.0,300.0,11.0,0.0
2547,77.0,0.0,300.0,11.0,0.0
2548,61.0,0.0,300.0,11.0,0.0
2549,49.0,0.0,150.0,14.0,0.0
2550,77.0,96.0,300.0,10.0,0.0
2551,68.0,0.0,300.0,10.0,0.0
2552,61.0,0.0,300.0,10.0,0.0
2553,61.0,0.0,150.0,13.0,0.0
2554,73.0,0.0,390.0,4.0,0.0
2555,61.0,0.0,150.0,13.0,0.0
2556,49.0,96.0,150.0,14.0,0.0
2557,61.0,0.0,150.0,12.0,0.0
2558,78.0,0.0,390.0,1.0,0.0
2559,54.0,0.0,390.0,5.0,0.0
2560,61.0,0.0,390.0,3.0,0.0
2561,54.0,0.0,390.0,3.0,0.0
2562,45.0,0.0,390.0,14.0,0.0
2563,78.0,240.0,390.0,0.0,0.0
2564,57.0,0.0,390.0,13.0,0.0
2565,73.0,0.0,390.0,4.0,0.0
2566,61.0,0.0,390.0,12.0,0.0
2567,66.0,0.0,390.0,2.0,0.0
2568,66.0,0.0,390.0,4.0,0.0
2569,66.0,0.0,150.0,11.0,0.0
2570,78.0,0.0,150.0,10.0,0.0
2571,78.0,240.0,150.0,11.0,0.0
2572,90.0,0.0,150.0,10.0,0.0
2573,90.0,0.0,150.0,10.0,0.0
2574,78.0,240.0,150.0,11.0,0.0
2575,90.0,240.0,150.0,10.0,0.0
2576,78.0,0.0,150.0,11.0,0.0
2577,78.0,0.0,150.0,11.0,0.0
2578,90.0,240.0,150.0,10.0,0.0
2579,78.0,240.0,150.0,11.0,0.0
2580,90.0,0.0,150.0,10.0,0.0
2581,78.0,0.0,150.0,11.0,0.0
2582,90.0,336.0,150.0,10.0,0.0
2583,66.0,0.0,390.0,4.0,0.0
2584,76.0,0.0,240.0,11.0,0.0
2585,88.0,144.0,240.0,10.0,0.0
2586,78.0,0.0,390.0,4.0,0.0
2587,54.0,84.0,390.0,5.0,0.0
2588,47.0,0.0,150.0,2.0,0.0
2589,74.0,156.0,240.0,11.0,0.0
2590,35.0,0.0,150.0,14.0,0.0
2591,78.0,0.0,150.0,1.0,0.0
2592,47.0,0.0,150.0,13.0,0.0
2593,86.0,0.0,150.0,0.0,0.0
2594,86.0,0.0,240.0,10.0,0.0
2595,83.0,0.0,150.0,1.0,0.0
2596,59.0,0.0,150.0,12.0,0.0
2597,86.0,0.0,960.0,10.0,0.0
2598,59.0,0.0,150.0,2.0,0.0
2599,74.0,144.0,960.0,11.0,0.0
2600,59.0,0.0,150.0,12.0,0.0
2601,54.0,96.0,780.0,3.0,0.0
2602,66.0,0.0,780.0,3.0,0.0
2603,78.0,0.0,150.0,1.0,0.0
2604,83.0,0.0,150.0,1.0,0.0
2605,47.0,0.0,150.0,14.0,0.0
2606,86.0,0.0,150.0,0.0,0.0
2607,59.0,240.0,150.0,13.0,0.0
2608,59.0,0.0,150.0,13.0,0.0
2609,47.0,0.0,150.0,14.0,0.0
2610,83.0,0.0,150.0,1.0,0.0
2611,59.0,0.0,150.0,2.0,0.0
2612,86.0,0.0,150.0,0.0,0.0
2613,78.0,0.0,150.0,1.0,0.0
2614,59.0,240.0,150.0,12.0,0.0
2615,47.0,0.0,150.0,14.0,0.0
2616,78.0,0.0,150.0,1.0,0.0
2617,83.0,0.0,150.0,1.0,0.0
2618,86.0,144.0,150.0,0.0,0.0
2619,59.0,0.0,150.0,12.0,0.0
2620,59.0,0.0,150.0,13.0,0.0
2621,59.0,0.0,150.0,2.0,0.0
2622,59.0,0.0,150.0,2.0,0.0
2623,86.0,0.0,150.0,0.0,0.0
2624,59.0,0.0,150.0,13.0,0.0
2625,83.0,0.0,150.0,1.0,0.0
2626,78.0,0.0,150.0,1.0,0.0
2627,59.0,0.0,150.0,12.0,0.0
2628,47.0,96.0,150.0,14.0,0.0
2629,61.0,0.0,150.0,13.0,0.0
2630,78.0,0.0,150.0,1.0,0.0
2631,61.0,240.0,150.0,2.0,0.0
2632,61.0,0.0,150.0,12.0,0.0
2633,85.0,0.0,450.0,10.0,0.0
2634,81.0,0.0,150.0,1.0,0.0
2635,49.0,0.0,150.0,14.0,0.0
2636,73.0,216.0,450.0,11.0,0.0
2637,66.0,0.0,390.0,3.0,0.0
2638,54.0,0.0,390.0,3.0,0.0
2639,85.0,0.0,150.0,0.0,0.0
2640,78.0,72.0,150.0,1.0,0.0
2641,61.0,0.0,150.0,13.0,0.0
2642,81.0,0.0,150.0,1.0,0.0
2643,61.0,0.0,150.0,2.0,0.0
2644,49.0,0.0,150.0,14.0,0.0
2645,61.0,0.0,150.0,12.0,0.0
2646,85.0,0.0,150.0,0.0,0.0
2647,71.0,0.0,300.0,1.0,0.0
2648,54.0,0.0,390.0,3.0,0.0
2649,54.0,0.0,390.0,5.0,0.0
2650,85.0,48.0,240.0,10.0,0.0
2651,66.0,0.0,390.0,3.0,0.0
2652,73.0,0.0,240.0,11.0,0.0
2653,66.0,0.0,390.0,4.0,0.0
2654,63.0,96.0,300.0,2.0,0.0
2655,51.0,48.0,390.0,14.0,0.0
2656,63.0,0.0,390.0,13.0,0.0
2657,78.0,0.0,390.0,4.0,0.0
2658,85.0,48.0,180.0,0.0,0.0
2659,78.0,0.0,300.0,1.0,0.0
2660,63.0,0.0,390.0,12.0,0.0
2661,71.0,0.0,180.0,11.0,0.0
2662,83.0,0.0,180.0,0.0,0.0
2663,83.0,336.0,180.0,10.0,0.0
2664,51.0,0.0,390.0,14.0,0.0
2665,63.0,1296.0,390.0,13.0,0.0
2666,71.0,0.0,300.0,1.0,0.0
2667,83.0,0.0,390.0,0.0,0.0
2668,78.0,96.0,300.0,1.0,0.0
2669,54.0,0.0,390.0,5.0,0.0
2670,71.0,0.0,390.0,11.0,0.0
2671,66.0,0.0,390.0,4.0,0.0
2672,63.0,0.0,300.0,2.0,0.0
2673,78.0,0.0,390.0,4.0,0.0
2674,83.0,0.0,390.0,10.0,0.0
2675,66.0,0.0,390.0,3.0,0.0
2676,54.0,0.0,390.0,3.0,0.0
2677,63.0,0.0,390.0,12.0,0.0
2678,83.0,0.0,240.0,10.0,0.0
2679,54.0,0.0,390.0,3.0,0.0
2680,50.0,48.0,390.0,14.0,0.0
2681,78.0,0.0,390.0,11.0,0.0
2682,66.0,144.0,240.0,12.0,0.0
2683,66.0,0.0,390.0,3.0,0.0
2684,62.0,0.0,390.0,13.0,0.0
2685,62.0,0.0,390.0,2.0,0.0
2686,68.0,432.0,180.0,12.0,0.0
2687,84.0,0.0,180.0,10.0,0.0
2688,54.0,1776.0,390.0,3.0,0.0
2689,62.0,0.0,390.0,2.0,0.0
2690,62.0,0.0,390.0,13.0,0.0
2691,68.0,0.0,390.0,12.0,0.0
2692,66.0,0.0,390.0,3.0,0.0
2693,78.0,0.0,390.0,11.0,0.0
2694,84.0,0.0,390.0,10.0,0.0
2695,50.0,0.0,390.0,14.0,0.0
2696,69.0,0.0,1890.0,12.0,0.0
2697,85.0,120.0,720.0,10.0,0.0
2698,61.0,38.0,1890.0,13.0,0.0
2699,49.0,0.0,1890.0,14.0,0.0
2700,61.0,0.0,3840.0,3.0,0.0
2701,61.0,144.0,1530.0,2.0,0.0
2702,78.0,0.0,1890.0,11.0,0.0
2703,49.0,0.0,3840.0,3.0,0.0
2704,81.0,114.0,120.0,10.0,0.0
2705,78.0,582.0,120.0,10.0,0.0
2706,85.0,120.0,720.0,10.0,0.0
2707,81.0,82.0,120.0,10.0,0.0
2708,78.0,288.0,120.0,10.0,0.0
2709,61.0,0.0,300.0,2.0,0.0
2710,61.0,0.0,300.0,13.0,0.0
2711,81.0,0.0,960.0,1.0,0.0
2712,49.0,0.0,300.0,14.0,0.0
2713,66.0,0.0,300.0,12.0,0.0
2714,73.0,0.0,300.0,10.0,0.0
2715,78.0,864.0,960.0,1.0,0.0
2716,85.0,0.0,960.0,0.0,0.0
2717,69.0,480.0,300.0,11.0,0.0
2718,49.0,0.0,300.0,14.0,0.0
2719,69.0,0.0,300.0,11.0,0.0
2720,61.0,192.0,300.0,2.0,0.0
2721,66.0,0.0,300.0,12.0,0.0
2722,73.0,0.0,300.0,10.0,0.0
2723,61.0,0.0,300.0,13.0,0.0
2724,89.0,144.0,960.0,0.0,0.0
2725,83.0,0.0,960.0,1.0,0.0
2726,80.0,0.0,960.0,1.0,0.0
2727,49.0,0.0,390.0,14.0,0.0
2728,71.0,0.0,480.0,11.0,0.0
2729,77.0,0.0,480.0,10.0,0.0
2730,61.0,96.0,390.0,13.0,0.0
2731,61.0,0.0,390.0,2.0,0.0
2732,68.0,0.0,480.0,12.0,0.0
2733,78.0,0.0,390.0,10.0,0.0
2734,78.0,0.0,390.0,1.0,0.0
2735,54.0,0.0,390.0,3.0,0.0
2736,54.0,0.0,390.0,2.0,0.0
2737,66.0,0.0,390.0,12.0,0.0
2738,90.0,96.0,390.0,0.0,0.0
2739,81.0,0.0,390.0,1.0,0.0
2740,69.0,240.0,150.0,11.0,0.0
2741,54.0,0.0,960.0,13.0,0.0
2742,42.0,240.0,960.0,14.0,0.0
2743,66.0,240.0,240.0,11.0,0.0
2744,73.0,228.0,240.0,11.0,0.0
2745,69.0,12.0,240.0,11.0,0.0
2746,57.0,0.0,960.0,13.0,0.0
2747,65.0,240.0,240.0,11.0,0.0
2748,45.0,240.0,960.0,14.0,0.0
2749,61.0,240.0,480.0,12.0,0.0
2750,66.0,0.0,240.0,11.0,0.0
2751,73.0,228.0,240.0,11.0,0.0
2752,81.0,48.0,720.0,10.0,0.0
2753,54.0,180.0,780.0,12.0,0.0
2754,69.0,12.0,240.0,11.0,0.0
2755,59.0,240.0,960.0,13.0,0.0
2756,47.0,0.0,960.0,14.0,0.0
2757,74.0,0.0,240.0,11.0,0.0
2758,71.0,240.0,240.0,11.0,0.0
2759,80.0,12.0,240.0,10.0,0.0
2760,68.0,228.0,240.0,11.0,0.0
2761,62.0,0.0,960.0,12.0,0.0
2762,83.0,0.0,960.0,10.0,0.0
2763,66.0,12.0,240.0,11.0,0.0
2764,61.0,0.0,930.0,13.0,0.0
2765,65.0,240.0,240.0,11.0,0.0
2766,49.0,8.0,930.0,14.0,0.0
2767,68.0,240.0,240.0,11.0,0.0
2768,61.0,0.0,450.0,12.0,0.0
2769,72.0,216.0,240.0,11.0,0.0
2770,81.0,4.0,450.0,10.0,0.0
2771,73.0,252.0,240.0,11.0,0.0
2772,62.0,0.0,960.0,13.0,0.0
2773,65.0,24.0,450.0,12.0,0.0
2774,80.0,240.0,480.0,10.0,0.0
2775,50.0,240.0,960.0,14.0,0.0
2776,71.0,216.0,240.0,11.0,0.0
2777,68.0,0.0,240.0,11.0,0.0
2778,71.0,216.0,240.0,11.0,0.0
2779,78.0,0.0,450.0,10.0,0.0
2780,66.0,12.0,450.0,12.0,0.0
2781,69.0,12.0,240.0,11.0,0.0
2782,45.0,0.0,960.0,14.0,0.0
2783,57.0,228.0,960.0,13.0,0.0
2784,72.0,240.0,240.0,11.0,0.0
2785,73.0,240.0,240.0,11.0,0.0
2786,61.0,12.0,720.0,12.0,0.0
2787,81.0,0.0,720.0,10.0,0.0
2788,69.0,228.0,240.0,11.0,0.0
2789,66.0,12.0,240.0,11.0,0.0
2790,47.0,0.0,960.0,14.0,0.0
2791,74.0,228.0,240.0,11.0,0.0
2792,59.0,240.0,960.0,13.0,0.0
2793,62.0,0.0,240.0,12.0,0.0
2794,80.0,12.0,240.0,10.0,0.0
2795,71.0,240.0,240.0,11.0,0.0
2796,86.0,0.0,960.0,10.0,0.0
2797,59.0,228.0,240.0,12.0,0.0
2798,68.0,0.0,240.0,11.0,0.0
2799,66.0,0.0,240.0,11.0,0.0
2800,57.0,12.0,240.0,12.0,0.0
2801,65.0,48.0,240.0,11.0,0.0
2802,49.0,8.0,930.0,14.0,0.0
2803,61.0,0.0,930.0,13.0,0.0
2804,56.0,192.0,300.0,12.0,0.0
2805,68.0,240.0,240.0,11.0,0.0
2806,85.0,4.0,450.0,10.0,0.0
2807,71.0,216.0,240.0,11.0,0.0
2808,65.0,228.0,720.0,12.0,0.0
2809,77.0,252.0,240.0,11.0,0.0
2810,50.0,0.0,960.0,14.0,0.0
2811,80.0,0.0,240.0,11.0,0.0
2812,83.0,240.0,480.0,10.0,0.0
2813,62.0,240.0,960.0,13.0,0.0
2814,77.0,0.0,240.0,11.0,0.0
2815,68.0,12.0,240.0,12.0,0.0
2816,80.0,216.0,240.0,11.0,0.0
2817,81.0,0.0,450.0,10.0,0.0
2818,66.0,12.0,450.0,12.0,0.0
2819,78.0,12.0,240.0,11.0,0.0
2820,69.0,0.0,960.0,12.0,0.0
2821,45.0,240.0,960.0,14.0,0.0
2822,72.0,240.0,240.0,11.0,0.0
2823,69.0,0.0,960.0,2.0,0.0
2824,57.0,0.0,960.0,13.0,0.0
2825,81.0,0.0,960.0,1.0,0.0
2826,78.0,0.0,1920.0,1.0,0.0
2827,66.0,0.0,1920.0,2.0,0.0
2828,73.0,240.0,240.0,11.0,0.0
2829,74.0,216.0,240.0,11.0,0.0
2830,90.0,24.0,450.0,10.0,0.0
2831,73.0,0.0,240.0,11.0,0.0
2832,68.0,0.0,960.0,12.0,0.0
2833,80.0,0.0,1920.0,1.0,0.0
2834,68.0,0.0,1920.0,2.0,0.0
2835,59.0,0.0,960.0,13.0,0.0
2836,76.0,240.0,240.0,11.0,0.0
2837,47.0,240.0,960.0,14.0,0.0
2838,74.0,240.0,240.0,11.0,0.0
2839,80.0,24.0,450.0,10.0,0.0
2840,71.0,216.0,240.0,11.0,0.0
2841,68.0,0.0,240.0,11.0,0.0
2842,65.0,0.0,960.0,2.0,0.0
2843,61.0,0.0,960.0,13.0,0.0
2844,77.0,0.0,960.0,1.0,0.0
2845,71.0,0.0,960.0,12.0,0.0
2846,49.0,0.0,960.0,14.0,0.0
2847,66.0,240.0,240.0,11.0,0.0
2848,65.0,240.0,240.0,11.0,0.0
2849,85.0,120.0,360.0,10.0,0.0
2850,68.0,120.0,240.0,11.0,0.0
2851,65.0,384.0,240.0,11.0,0.0
2852,42.0,0.0,390.0,14.0,0.0
2853,69.0,0.0,390.0,12.0,0.0
2854,66.0,72.0,390.0,11.0,0.0
2855,78.0,504.0,450.0,10.0,0.0
2856,54.0,0.0,390.0,13.0,0.0
2857,78.0,0.0,390.0,1.0,0.0
2858,66.0,0.0,390.0,2.0,0.0
2859,73.0,480.0,480.0,6.0,0.0
2860,85.0,456.0,480.0,6.0,0.0
2861,77.0,744.0,450.0,6.0,0.0
2862,80.0,228.0,720.0,6.0,0.0
2863,66.0,0.0,480.0,7.0,0.0
2864,78.0,12.0,240.0,6.0,0.0
2865,69.0,480.0,15.0,7.0,0.0
2866,78.0,48.0,900.0,6.0,0.0
2867,73.0,0.0,480.0,7.0,0.0
2868,71.0,0.0,480.0,7.0,0.0
2869,68.0,912.0,480.0,7.0,0.0
2870,66.0,48.0,900.0,7.0,0.0
2871,69.0,0.0,900.0,7.0,0.0
2872,78.0,480.0,480.0,6.0,0.0
2873,90.0,240.0,480.0,6.0,0.0
2874,88.0,228.0,240.0,6.0,0.0
2875,86.0,732.0,240.0,6.0,0.0
2876,85.0,228.0,720.0,6.0,0.0
2877,62.0,0.0,480.0,7.0,0.0
2878,83.0,12.0,240.0,6.0,0.0
2879,74.0,0.0,480.0,7.0,0.0
2880,66.0,480.0,15.0,7.0,0.0
2881,83.0,48.0,900.0,6.0,0.0
2882,64.0,912.0,480.0,7.0,0.0
2883,73.0,0.0,480.0,7.0,0.0
2884,71.0,48.0,900.0,7.0,0.0
2885,62.0,0.0,900.0,7.0,0.0
2886,83.0,240.0,480.0,6.0,0.0
2887,85.0,240.0,240.0,6.0,0.0
2888,83.0,240.0,240.0,6.0,0.0
2889,81.0,228.0,240.0,6.0,0.0
2890,80.0,492.0,240.0,6.0,0.0
2891,78.0,456.0,480.0,6.0,0.0
2892,61.0,0.0,480.0,7.0,0.0
2893,77.0,24.0,450.0,6.0,0.0
2894,71.0,480.0,480.0,7.0,0.0
2895,68.0,480.0,15.0,7.0,0.0
2896,74.0,240.0,1200.0,6.0,0.0
2897,69.0,240.0,480.0,7.0,0.0
2898,66.0,0.0,480.0,7.0,0.0
2899,65.0,48.0,900.0,7.0,0.0
2900,68.0,0.0,900.0,7.0,0.0
2901,73.0,240.0,240.0,6.0,0.0
2902,80.0,192.0,240.0,6.0,0.0
2903,77.0,240.0,240.0,6.0,0.0
2904,83.0,240.0,240.0,6.0,0.0
2905,80.0,240.0,240.0,6.0,0.0
2906,86.0,228.0,240.0,6.0,0.0
2907,85.0,252.0,240.0,6.0,0.0
2908,83.0,240.0,240.0,6.0,0.0
2909,81.0,240.0,240.0,6.0,0.0
2910,66.0,480.0,480.0,7.0,0.0
2911,69.0,0.0,480.0,7.0,0.0
2912,86.0,228.0,240.0,6.0,0.0
2913,85.0,12.0,240.0,6.0,0.0
2914,73.0,0.0,480.0,7.0,0.0
2915,85.0,48.0,900.0,6.0,0.0
2916,69.0,432.0,480.0,7.0,0.0
2917,68.0,456.0,480.0,7.0,0.0
2918,71.0,0.0,480.0,7.0,0.0
2919,66.0,0.0,900.0,7.0,0.0
2920,69.0,48.0,900.0,7.0,0.0
2921,78.0,144.0,90.0,6.0,0.0
2922,80.0,120.0,120.0,6.0,0.0
2923,78.0,120.0,120.0,6.0,0.0
2924,77.0,72.0,120.0,6.0,0.0
2925,78.0,288.0,120.0,6.0,0.0
2926,93.0,480.0,300.0,6.0,0.0
2927,93.0,912.0,300.0,6.0,0.0
2928,93.0,228.0,720.0,6.0,0.0
2929,59.0,480.0,480.0,7.0,0.0
2930,62.0,0.0,480.0,7.0,0.0
2931,92.0,12.0,240.0,6.0,0.0
2932,62.0,480.0,480.0,7.0,0.0
2933,66.0,0.0,480.0,7.0,0.0
2934,92.0,144.0,1410.0,6.0,0.0
2935,63.0,0.0,480.0,7.0,0.0
2936,60.0,456.0,480.0,7.0,0.0
2937,65.0,0.0,960.0,7.0,0.0
2938,61.0,120.0,960.0,7.0,0.0
2939,90.0,342.0,120.0,6.0,0.0
2940,89.0,18.0,330.0,6.0,0.0
2941,86.0,588.0,120.0,6.0,0.0
2942,85.0,240.0,600.0,6.0,0.0
2943,83.0,132.0,240.0,6.0,0.0
2944,66.0,0.0,390.0,7.0,0.0
2945,73.0,0.0,390.0,7.0,0.0
2946,78.0,96.0,390.0,4.0,0.0
2947,54.0,0.0,390.0,5.0,0.0
2948,69.0,0.0,390.0,7.0,0.0
2949,81.0,120.0,120.0,6.0,0.0
2950,85.0,48.0,4020.0,0.0,0.0
2951,66.0,0.0,390.0,4.0,0.0
2952,49.0,0.0,3840.0,3.0,0.0
2953,61.0,0.0,3840.0,3.0,0.0
2954,85.0,120.0,120.0,6.0,0.0
2955,69.0,0.0,240.0,1.0,0.0
2956,66.0,120.0,240.0,1.0,0.0
2957,84.0,24.0,120.0,6.0,0.0
2958,85.0,0.0,120.0,6.0,0.0
2959,83.0,120.0,120.0,6.0,0.0
2960,71.0,0.0,240.0,1.0,0.0
2961,68.0,0.0,240.0,1.0,0.0
2962,81.0,120.0,120.0,6.0,0.0
2963,73.0,120.0,240.0,1.0,0.0
2964,69.0,0.0,240.0,1.0,0.0
2965,80.0,120.0,120.0,6.0,0.0
2966,78.0,0.0,120.0,6.0,0.0
2967,49.0,0.0,390.0,5.0,0.0
2968,77.0,120.0,120.0,6.0,0.0
2969,65.0,0.0,390.0,7.0,0.0
2970,61.0,96.0,390.0,7.0,0.0
2971,73.0,0.0,390.0,4.0,0.0
2972,61.0,0.0,390.0,4.0,0.0
2973,68.0,0.0,390.0,7.0,0.0
2974,71.0,0.0,390.0,7.0,0.0
2975,68.0,0.0,960.0,1.0,0.0
2976,71.0,0.0,960.0,1.0,0.0
2977,80.0,120.0,120.0,6.0,0.0
2978,83.0,24.0,120.0,6.0,0.0
2979,61.0,120.0,240.0,2.0,0.0
2980,65.0,0.0,240.0,2.0,0.0
2981,86.0,0.0,120.0,6.0,0.0
2982,85.0,120.0,120.0,6.0,0.0
2983,66.0,120.0,240.0,2.0,0.0
2984,63.0,0.0,240.0,2.0,0.0
2985,83.0,0.0,120.0,6.0,0.0
2986,81.0,120.0,120.0,6.0,0.0
2987,65.0,0.0,240.0,2.0,0.0
2988,68.0,120.0,240.0,2.0,0.0
2989,80.0,0.0,120.0,6.0,0.0
2990,69.0,0.0,390.0,2.0,0.0
2991,54.0,0.0,390.0,5.0,0.0
2992,81.0,120.0,120.0,6.0,0.0
2993,66.0,0.0,390.0,2.0,0.0
2994,78.0,96.0,390.0,4.0,0.0
2995,69.0,0.0,390.0,7.0,0.0
2996,73.0,0.0,390.0,7.0,0.0
2997,66.0,0.0,390.0,7.0,0.0
2998,66.0,0.0,390.0,4.0,0.0
2999,85.0,120.0,120.0,6.0,0.0
3000,84.0,24.0,120.0,6.0,0.0
3001,69.0,0.0,240.0,1.0,0.0
3002,66.0,0.0,240.0,1.0,0.0
3003,85.0,120.0,120.0,6.0,0.0
3004,71.0,0.0,240.0,1.0,0.0
3005,83.0,120.0,120.0,6.0,0.0
3006,68.0,0.0,240.0,1.0,0.0
3007,81.0,120.0,120.0,6.0,0.0
3008,73.0,0.0,240.0,1.0,0.0
3009,69.0,120.0,240.0,1.0,0.0
3010,80.0,120.0,120.0,6.0,0.0
3011,78.0,0.0,120.0,6.0,0.0
3012,65.0,0.0,390.0,7.0,0.0
3013,71.0,0.0,390.0,7.0,0.0
3014,68.0,96.0,390.0,7.0,0.0
3015,61.0,0.0,390.0,7.0,0.0
3016,61.0,0.0,390.0,4.0,0.0
3017,49.0,0.0,390.0,5.0,0.0
3018,73.0,0.0,390.0,4.0,0.0
3019,71.0,0.0,960.0,1.0,0.0
3020,68.0,0.0,960.0,1.0,0.0
3021,77.0,120.0,120.0,6.0,0.0
3022,80.0,120.0,120.0,6.0,0.0
3023,83.0,24.0,120.0,6.0,0.0
3024,65.0,0.0,240.0,2.0,0.0
3025,61.0,0.0,240.0,2.0,0.0
3026,86.0,120.0,120.0,6.0,0.0
3027,63.0,0.0,240.0,2.0,0.0
3028,66.0,120.0,240.0,2.0,0.0
3029,85.0,120.0,120.0,6.0,0.0
3030,83.0,0.0,120.0,6.0,0.0
3031,81.0,120.0,120.0,6.0,0.0
3032,68.0,0.0,240.0,2.0,0.0
3033,65.0,120.0,240.0,2.0,0.0
3034,80.0,0.0,120.0,6.0,0.0
3035,66.0,0.0,180.0,2.0,0.0
3036,69.0,0.0,180.0,2.0,0.0
3037,54.0,0.0,390.0,5.0,0.0
3038,78.0,96.0,390.0,4.0,0.0
3039,66.0,0.0,390.0,4.0,0.0
3040,69.0,0.0,390.0,7.0,0.0
3041,66.0,0.0,390.0,7.0,0.0
3042,81.0,72.0,120.0,6.0,0.0
3043,85.0,120.0,120.0,6.0,0.0
3044,90.0,24.0,120.0,6.0,0.0
3045,85.0,120.0,120.0,6.0,0.0
3046,59.0,0.0,390.0,7.0,0.0
3047,80.0,0.0,180.0,1.0,0.0
3048,68.0,48.0,180.0,2.0,0.0
3049,59.0,0.0,180.0,2.0,0.0
3050,47.0,96.0,390.0,7.0,0.0
3051,83.0,0.0,180.0,1.0,0.0
3052,92.0,0.0,180.0,0.0,0.0
3053,86.0,72.0,120.0,6.0,0.0
3054,90.0,120.0,120.0,6.0,0.0
3055,80.0,24.0,120.0,6.0,0.0
3056,83.0,120.0,120.0,6.0,0.0
3057,61.0,0.0,180.0,3.0,0.0
3058,73.0,0.0,180.0,4.0,0.0
3059,61.0,96.0,390.0,7.0,0.0
3060,49.0,0.0,180.0,5.0,0.0
3061,49.0,0.0,390.0,7.0,0.0
3062,81.0,72.0,120.0,6.0,0.0
3063,90.0,0.0,180.0,0.0,0.0
3064,81.0,48.0,180.0,1.0,0.0
3065,57.0,0.0,180.0,2.0,0.0
3066,78.0,0.0,180.0,1.0,0.0
3067,66.0,0.0,180.0,2.0,0.0
3068,85.0,120.0,120.0,6.0,0.0
3069,78.0,24.0,120.0,6.0,0.0
3070,81.0,120.0,120.0,6.0,0.0
3071,65.0,48.0,180.0,2.0,0.0
3072,89.0,0.0,180.0,0.0,0.0
3073,56.0,0.0,180.0,2.0,0.0
3074,61.0,0.0,180.0,3.0,0.0
3075,37.0,96.0,390.0,7.0,0.0
3076,49.0,0.0,180.0,5.0,0.0
3077,80.0,0.0,180.0,1.0,0.0
3078,73.0,0.0,180.0,4.0,0.0
3079,77.0,0.0,180.0,1.0,0.0
3080,80.0,72.0,120.0,6.0,0.0
3081,49.0,0.0,390.0,7.0,0.0
3082,83.0,120.0,120.0,6.0,0.0
3083,77.0,24.0,120.0,6.0,0.0
3084,80.0,192.0,120.0,6.0,0.0
3085,54.0,336.0,780.0,13.0,0.0
3086,66.0,0.0,390.0,4.0,0.0
3087,78.0,0.0,390.0,1.0,0.0
3088,54.0,0.0,390.0,3.0,0.0
3089,42.0,0.0,780.0,14.0,0.0
3090,78.0,0.0,390.0,6.0,0.0
3091,66.0,0.0,180.0,10.0,0.0
3092,54.0,0.0,390.0,7.0,0.0
3093,61.0,0.0,390.0,3.0,0.0
3094,90.0,0.0,390.0,0.0,0.0
3095,61.0,192.0,180.0,11.0,0.0
3096,57.0,0.0,180.0,12.0,0.0
3097,54.0,0.0,390.0,5.0,0.0
3098,57.0,240.0,390.0,2.0,0.0
3099,42.0,0.0,390.0,7.0,0.0
3100,66.0,0.0,390.0,2.0,0.0
3101,61.0,0.0,390.0,11.0,0.0
3102,66.0,0.0,390.0,10.0,0.0
3103,57.0,144.0,390.0,12.0,0.0
3104,61.0,0.0,390.0,11.0,0.0
3105,66.0,480.0,390.0,10.0,0.0
3106,57.0,0.0,390.0,12.0,0.0
3107,61.0,0.0,390.0,11.0,0.0
3108,57.0,176.0,390.0,12.0,0.0
3109,66.0,0.0,390.0,10.0,0.0
3110,49.0,0.0,90.0,13.0,0.0
3111,61.0,0.0,420.0,11.0,0.0
3112,37.0,80.0,90.0,14.0,0.0
3113,66.0,432.0,420.0,10.0,0.0
3114,57.0,0.0,420.0,12.0,0.0
3115,39.0,80.0,90.0,14.0,0.0
3116,51.0,0.0,90.0,13.0,0.0
3117,53.0,192.0,90.0,13.0,0.0
3118,41.0,0.0,90.0,14.0,0.0
3119,42.0,0.0,780.0,14.0,0.0
3120,54.0,336.0,780.0,13.0,0.0
3121,57.0,0.0,390.0,12.0,0.0
3122,61.0,144.0,390.0,11.0,0.0
3123,66.0,0.0,390.0,10.0,0.0
3124,66.0,0.0,390.0,10.0,0.0
3125,57.0,0.0,390.0,12.0,0.0
3126,61.0,480.0,390.0,11.0,0.0
3127,66.0,0.0,390.0,10.0,0.0
3128,57.0,176.0,390.0,12.0,0.0
3129,61.0,0.0,390.0,11.0,0.0
3130,57.0,0.0,420.0,12.0,0.0
3131,66.0,432.0,420.0,10.0,0.0
3132,37.0,80.0,90.0,14.0,0.0
3133,49.0,0.0,90.0,13.0,0.0
3134,61.0,0.0,420.0,11.0,0.0
3135,39.0,0.0,90.0,14.0,0.0
3136,51.0,80.0,90.0,13.0,0.0
3137,41.0,192.0,90.0,14.0,0.0
3138,53.0,0.0,90.0,13.0,0.0
3139,54.0,0.0,780.0,13.0,0.0
3140,42.0,336.0,780.0,14.0,0.0
3141,61.0,144.0,390.0,10.0,0.0
3142,61.0,0.0,390.0,11.0,0.0
3143,57.0,0.0,390.0,12.0,0.0
3144,69.0,0.0,390.0,10.0,0.0
3145,61.0,0.0,390.0,11.0,0.0
3146,54.0,480.0,390.0,12.0,0.0
3147,61.0,0.0,390.0,11.0,0.0
3148,68.0,156.0,390.0,10.0,0.0
3149,56.0,0.0,390.0,12.0,0.0
3150,61.0,0.0,420.0,11.0,0.0
3151,49.0,60.0,60.0,13.0,0.0
3152,37.0,0.0,60.0,14.0,0.0
3153,57.0,192.0,240.0,12.0,0.0
3154,66.0,432.0,420.0,10.0,0.0
3155,51.0,0.0,60.0,13.0,0.0
3156,39.0,60.0,60.0,14.0,0.0
3157,53.0,60.0,60.0,13.0,0.0
3158,41.0,0.0,60.0,14.0,0.0
3159,42.0,0.0,60.0,14.0,0.0
3160,54.0,0.0,60.0,13.0,0.0
3161,56.0,0.0,780.0,13.0,0.0
3162,44.0,336.0,780.0,14.0,0.0
3163,61.0,0.0,390.0,11.0,0.0
3164,65.0,144.0,390.0,10.0,0.0
3165,59.0,0.0,390.0,12.0,0.0
3166,61.0,0.0,390.0,11.0,0.0
3167,59.0,0.0,390.0,12.0,0.0
3168,65.0,480.0,390.0,10.0,0.0
3169,65.0,0.0,390.0,10.0,0.0
3170,59.0,0.0,390.0,12.0,0.0
3171,61.0,432.0,390.0,11.0,0.0
3172,67.0,24.0,420.0,10.0,0.0
3173,59.0,0.0,420.0,12.0,0.0
3174,61.0,0.0,420.0,11.0,0.0
3175,68.0,96.0,90.0,6.0,0.0
3176,53.0,0.0,780.0,13.0,0.0
3177,53.0,0.0,780.0,8.0,0.0
3178,41.0,48.0,780.0,14.0,0.0
3179,41.0,0.0,780.0,8.0,0.0
3180,61.0,120.0,90.0,7.0,0.0
3181,61.0,72.0,390.0,11.0,0.0
3182,59.0,0.0,390.0,12.0,0.0
3183,68.0,0.0,390.0,10.0,0.0
3184,59.0,120.0,90.0,7.0,0.0
3185,61.0,120.0,90.0,7.0,0.0
3186,56.0,48.0,90.0,7.0,0.0
3187,61.0,72.0,90.0,7.0,0.0
3188,68.0,72.0,390.0,10.0,0.0
3189,59.0,0.0,390.0,12.0,0.0
3190,61.0,0.0,390.0,11.0,0.0
3191,59.0,120.0,90.0,7.0,0.0
3192,61.0,120.0,90.0,7.0,0.0
3193,68.0,48.0,90.0,6.0,0.0
3194,61.0,120.0,90.0,7.0,0.0
3195,59.0,120.0,90.0,7.0,0.0
3196,61.0,0.0,390.0,11.0,0.0
3197,68.0,0.0,390.0,10.0,0.0
3198,59.0,72.0,390.0,12.0,0.0
3199,61.0,120.0,90.0,7.0,0.0
3200,56.0,48.0,90.0,7.0,0.0
3201,61.0,120.0,90.0,7.0,0.0
3202,59.0,24.0,90.0,7.0,0.0
3203,49.0,96.0,120.0,8.0,0.0
3204,59.0,0.0,420.0,12.0,0.0
3205,49.0,0.0,120.0,13.0,0.0
3206,61.0,0.0,420.0,11.0,0.0
3207,68.0,24.0,420.0,10.0,0.0
3208,51.0,0.0,120.0,13.0,0.0
3209,61.0,24.0,90.0,7.0,0.0
3210,51.0,96.0,120.0,8.0,0.0
3211,53.0,0.0,780.0,13.0,0.0
3212,41.0,0.0,780.0,14.0,0.0
3213,53.0,48.0,780.0,8.0,0.0
3214,68.0,96.0,90.0,6.0,0.0
3215,61.0,120.0,90.0,7.0,0.0
3216,59.0,120.0,90.0,7.0,0.0
3217,61.0,0.0,390.0,11.0,0.0
3218,59.0,72.0,390.0,12.0,0.0
3219,68.0,0.0,390.0,10.0,0.0
3220,61.0,120.0,90.0,7.0,0.0
3221,56.0,48.0,90.0,7.0,0.0
3222,61.0,72.0,90.0,7.0,0.0
3223,61.0,0.0,390.0,11.0,0.0
3224,68.0,0.0,390.0,10.0,0.0
3225,59.0,72.0,390.0,12.0,0.0
3226,59.0,120.0,90.0,7.0,0.0
3227,61.0,120.0,90.0,7.0,0.0
3228,68.0,48.0,90.0,6.0,0.0
3229,61.0,120.0,90.0,7.0,0.0
3230,59.0,0.0,390.0,12.0,0.0
3231,68.0,72.0,390.0,10.0,0.0
3232,59.0,120.0,90.0,7.0,0.0
3233,61.0,0.0,390.0,11.0,0.0
3234,61.0,120.0,90.0,7.0,0.0
3235,56.0,48.0,90.0,7.0,0.0
3236,61.0,120.0,90.0,7.0,0.0
3237,61.0,24.0,420.0,11.0,0.0
3238,59.0,0.0,420.0,12.0,0.0
3239,68.0,0.0,420.0,10.0,0.0
3240,49.0,0.0,120.0,13.0,0.0
3241,49.0,96.0,120.0,8.0,0.0
3242,59.0,24.0,90.0,7.0,0.0
3243,51.0,96.0,120.0,8.0,0.0
3244,61.0,24.0,90.0,7.0,0.0
3245,51.0,0.0,120.0,13.0,0.0
3246,41.0,0.0,780.0,14.0,0.0
3247,53.0,48.0,780.0,8.0,0.0
3248,68.0,96.0,90.0,6.0,0.0
3249,53.0,0.0,780.0,13.0,0.0
3250,61.0,120.0,90.0,7.0,0.0
3251,59.0,120.0,90.0,7.0,0.0
3252,61.0,0.0,390.0,10.0,0.0
3253,61.0,0.0,390.0,11.0,0.0
3254,59.0,72.0,390.0,12.0,0.0
3255,61.0,120.0,90.0,7.0,0.0
3256,71.0,48.0,90.0,6.0,0.0
3257,61.0,72.0,90.0,7.0,0.0
3258,61.0,0.0,390.0,11.0,0.0
3259,71.0,0.0,390.0,10.0,0.0
3260,56.0,72.0,390.0,12.0,0.0
3261,59.0,120.0,90.0,7.0,0.0
3262,61.0,120.0,90.0,7.0,0.0
3263,69.0,48.0,90.0,6.0,0.0
3264,61.0,120.0,90.0,7.0,0.0
3265,57.0,0.0,390.0,12.0,0.0
3266,61.0,0.0,390.0,11.0,0.0
3267,59.0,120.0,90.0,7.0,0.0
3268,69.0,72.0,390.0,10.0,0.0
3269,61.0,120.0,90.0,7.0,0.0
3270,68.0,48.0,90.0,6.0,0.0
3271,61.0,104.0,90.0,7.0,0.0
3272,68.0,0.0,180.0,10.0,0.0
3273,59.0,64.0,90.0,7.0,0.0
3274,49.0,16.0,90.0,13.0,0.0
3275,61.0,24.0,180.0,11.0,0.0
3276,59.0,0.0,180.0,12.0,0.0
3277,49.0,0.0,90.0,8.0,0.0
3278,51.0,32.0,90.0,8.0,0.0
3279,51.0,0.0,90.0,13.0,0.0
3280,61.0,24.0,90.0,7.0,0.0
3281,53.0,0.0,90.0,13.0,0.0
3282,53.0,96.0,90.0,8.0,0.0
3283,57.0,0.0,180.0,12.0,0.0
3284,54.0,0.0,780.0,13.0,0.0
3285,61.0,0.0,180.0,11.0,0.0
3286,68.0,24.0,180.0,10.0,0.0
3287,54.0,0.0,780.0,8.0,0.0
3288,68.0,96.0,90.0,6.0,0.0
3289,42.0,48.0,780.0,14.0,0.0
3290,61.0,120.0,90.0,7.0,0.0
3291,66.0,72.0,390.0,10.0,0.0
3292,57.0,120.0,90.0,7.0,0.0
3293,57.0,0.0,390.0,12.0,0.0
3294,61.0,0.0,390.0,11.0,0.0
3295,61.0,120.0,90.0,7.0,0.0
3296,66.0,48.0,90.0,6.0,0.0
3297,61.0,72.0,90.0,7.0,0.0
3298,57.0,120.0,90.0,7.0,0.0
3299,61.0,72.0,390.0,11.0,0.0
3300,57.0,0.0,390.0,12.0,0.0
3301,66.0,0.0,390.0,10.0,0.0
3302,61.0,120.0,90.0,7.0,0.0
3303,54.0,0.0,3840.0,3.0,0.0
3304,66.0,96.0,3840.0,3.0,0.0
3305,66.0,48.0,90.0,6.0,0.0
3306,61.0,120.0,90.0,7.0,0.0
3307,57.0,0.0,390.0,12.0,0.0
3308,57.0,120.0,90.0,7.0,0.0
3309,66.0,72.0,390.0,10.0,0.0
3310,66.0,0.0,390.0,11.0,0.0
3311,61.0,120.0,90.0,7.0,0.0
3312,68.0,48.0,90.0,6.0,0.0
3313,66.0,104.0,90.0,6.0,0.0
3314,66.0,24.0,420.0,11.0,0.0
3315,61.0,0.0,240.0,12.0,0.0
3316,54.0,0.0,90.0,13.0,0.0
3317,65.0,64.0,90.0,6.0,0.0
3318,54.0,16.0,90.0,8.0,0.0
3319,66.0,24.0,180.0,10.0,0.0
3320,56.0,32.0,90.0,13.0,0.0
3321,56.0,0.0,90.0,8.0,0.0
3322,66.0,24.0,90.0,6.0,0.0
3323,57.0,96.0,90.0,13.0,0.0
3324,57.0,0.0,90.0,8.0,0.0
3325,59.0,96.0,480.0,8.0,0.0
3326,62.0,0.0,180.0,12.0,0.0
3327,47.0,48.0,390.0,14.0,0.0
3328,69.0,96.0,240.0,10.0,0.0
3329,59.0,0.0,480.0,13.0,0.0
3330,69.0,96.0,90.0,6.0,0.0
3331,67.0,24.0,90.0,6.0,0.0
3332,66.0,48.0,90.0,6.0,0.0
3333,66.0,0.0,390.0,11.0,0.0
3334,67.0,24.0,180.0,10.0,0.0
3335,62.0,72.0,390.0,12.0,0.0
3336,67.0,24.0,90.0,6.0,0.0
3337,69.0,48.0,90.0,6.0,0.0
3338,68.0,104.0,90.0,6.0,0.0
3339,68.0,24.0,180.0,10.0,0.0
3340,56.0,16.0,90.0,8.0,0.0
3341,66.0,48.0,390.0,11.0,0.0
3342,56.0,0.0,90.0,13.0,0.0
3343,62.0,96.0,240.0,12.0,0.0
3344,66.0,64.0,90.0,6.0,0.0
3345,57.0,0.0,90.0,13.0,0.0
3346,57.0,32.0,90.0,8.0,0.0
3347,68.0,24.0,90.0,6.0,0.0
3348,59.0,0.0,90.0,13.0,0.0
3349,59.0,0.0,90.0,8.0,0.0
3350,71.0,96.0,240.0,10.0,0.0
3351,61.0,0.0,480.0,13.0,0.0
3352,49.0,48.0,390.0,14.0,0.0
3353,61.0,96.0,480.0,8.0,0.0
3354,64.0,24.0,180.0,12.0,0.0
3355,71.0,48.0,90.0,6.0,0.0
3356,69.0,24.0,90.0,6.0,0.0
3357,66.0,0.0,390.0,11.0,0.0
3358,68.0,48.0,90.0,6.0,0.0
3359,64.0,72.0,390.0,12.0,0.0
3360,69.0,24.0,180.0,10.0,0.0
3361,69.0,24.0,90.0,6.0,0.0
3362,71.0,48.0,90.0,6.0,0.0
3363,70.0,104.0,90.0,6.0,0.0
3364,70.0,24.0,180.0,10.0,0.0
3365,58.0,0.0,90.0,8.0,0.0
3366,68.0,64.0,90.0,6.0,0.0
3367,64.0,0.0,240.0,12.0,0.0
3368,58.0,16.0,90.0,13.0,0.0
3369,66.0,0.0,180.0,11.0,0.0
3370,59.0,0.0,90.0,8.0,0.0
3371,59.0,32.0,90.0,13.0,0.0
3372,70.0,24.0,90.0,6.0,0.0
3373,61.0,96.0,90.0,8.0,0.0
3374,61.0,0.0,90.0,13.0,0.0
3375,62.0,0.0,780.0,13.0,0.0
3376,73.0,96.0,240.0,10.0,0.0
3377,66.0,0.0,180.0,11.0,0.0
3378,62.0,24.0,180.0,12.0,0.0
3379,50.0,0.0,780.0,14.0,0.0
3380,62.0,48.0,780.0,8.0,0.0
3381,73.0,96.0,90.0,6.0,0.0
3382,71.0,24.0,90.0,6.0,0.0
3383,66.0,72.0,390.0,11.0,0.0
3384,71.0,0.0,390.0,10.0,0.0
3385,70.0,120.0,90.0,6.0,0.0
3386,62.0,0.0,390.0,12.0,0.0
3387,71.0,120.0,90.0,6.0,0.0
3388,76.0,48.0,90.0,6.0,0.0
3389,74.0,72.0,90.0,6.0,0.0
3390,73.0,120.0,90.0,6.0,0.0
3391,66.0,72.0,630.0,11.0,0.0
3392,71.0,0.0,630.0,10.0,0.0
3393,62.0,0.0,630.0,12.0,0.0
3394,74.0,24.0,90.0,6.0,0.0
3395,79.0,120.0,90.0,6.0,0.0
3396,78.0,120.0,90.0,6.0,0.0
3397,77.0,48.0,90.0,6.0,0.0
3398,78.0,120.0,90.0,6.0,0.0
3399,69.0,120.0,90.0,6.0,0.0
3400,68.0,104.0,90.0,6.0,0.0
3401,67.0,64.0,90.0,6.0,0.0
3402,56.0,16.0,90.0,8.0,0.0
3403,68.0,24.0,180.0,10.0,0.0
3404,56.0,0.0,90.0,13.0,0.0
3405,57.0,32.0,90.0,13.0,0.0
3406,57.0,0.0,90.0,8.0,0.0
3407,68.0,24.0,90.0,6.0,0.0
3408,59.0,96.0,90.0,13.0,0.0
3409,59.0,0.0,90.0,8.0,0.0
3410,56.0,0.0,2880.0,2.0,0.0
3411,61.0,0.0,390.0,8.0,0.0
3412,64.0,0.0,180.0,12.0,0.0
3413,49.0,0.0,390.0,14.0,0.0
3414,68.0,24.0,180.0,11.0,0.0
3415,68.0,96.0,2880.0,2.0,0.0
3416,61.0,48.0,390.0,13.0,0.0
3417,71.0,96.0,240.0,10.0,0.0
3418,71.0,96.0,90.0,6.0,0.0
3419,69.0,24.0,90.0,6.0,0.0
3420,64.0,72.0,390.0,12.0,0.0
3421,68.0,48.0,90.0,6.0,0.0
3422,69.0,24.0,180.0,10.0,0.0
3423,68.0,0.0,390.0,11.0,0.0
3424,69.0,120.0,90.0,6.0,0.0
3425,71.0,48.0,90.0,6.0,0.0
3426,70.0,104.0,90.0,6.0,0.0
3427,58.0,16.0,90.0,8.0,0.0
3428,70.0,24.0,180.0,10.0,0.0
3429,68.0,48.0,390.0,11.0,0.0
3430,64.0,0.0,240.0,12.0,0.0
3431,58.0,0.0,90.0,13.0,0.0
3432,68.0,64.0,90.0,6.0,0.0
3433,59.0,32.0,90.0,13.0,0.0
3434,59.0,0.0,90.0,8.0,0.0
3435,70.0,24.0,90.0,6.0,0.0
3436,61.0,0.0,90.0,8.0,0.0
3437,61.0,96.0,90.0,13.0,0.0
3438,66.0,24.0,180.0,12.0,0.0
3439,73.0,48.0,90.0,6.0,0.0
3440,73.0,96.0,240.0,10.0,0.0
3441,63.0,0.0,390.0,8.0,0.0
3442,51.0,0.0,390.0,14.0,0.0
3443,63.0,48.0,390.0,13.0,0.0
3444,71.0,24.0,90.0,6.0,0.0
3445,70.0,48.0,90.0,6.0,0.0
3446,66.0,72.0,390.0,12.0,0.0
3447,68.0,0.0,390.0,11.0,0.0
3448,71.0,24.0,180.0,10.0,0.0
3449,71.0,120.0,90.0,6.0,0.0
3450,73.0,48.0,90.0,6.0,0.0
3451,72.0,104.0,90.0,6.0,0.0
3452,60.0,0.0,90.0,13.0,0.0
3453,66.0,0.0,240.0,12.0,0.0
3454,68.0,0.0,420.0,11.0,0.0
3455,70.0,64.0,90.0,6.0,0.0
3456,72.0,24.0,180.0,10.0,0.0
3457,60.0,16.0,90.0,8.0,0.0
3458,61.0,0.0,90.0,13.0,0.0
3459,61.0,32.0,90.0,8.0,0.0
3460,72.0,24.0,90.0,6.0,0.0
3461,63.0,96.0,90.0,13.0,0.0
3462,63.0,0.0,90.0,8.0,0.0
3463,52.0,0.0,780.0,14.0,0.0
3464,64.0,0.0,780.0,13.0,0.0
3465,64.0,24.0,180.0,12.0,0.0
3466,75.0,96.0,240.0,10.0,0.0
3467,75.0,96.0,90.0,6.0,0.0
3468,64.0,48.0,780.0,8.0,0.0
3469,73.0,24.0,90.0,6.0,0.0
3470,72.0,120.0,90.0,6.0,0.0
3471,68.0,72.0,390.0,11.0,0.0
3472,73.0,0.0,390.0,10.0,0.0
3473,64.0,0.0,390.0,12.0,0.0
3474,73.0,120.0,90.0,6.0,0.0
3475,78.0,48.0,90.0,6.0,0.0
3476,76.0,72.0,90.0,6.0,0.0
3477,64.0,72.0,390.0,12.0,0.0
3478,73.0,0.0,390.0,10.0,0.0
3479,75.0,120.0,90.0,6.0,0.0
3480,68.0,0.0,390.0,11.0,0.0
3481,76.0,24.0,90.0,6.0,0.0
3482,81.0,48.0,90.0,6.0,0.0
3483,85.0,0.0,3360.0,1.0,0.0
3484,73.0,0.0,3360.0,1.0,0.0
3485,80.0,120.0,90.0,6.0,0.0
3486,73.0,72.0,390.0,11.0,0.0
3487,64.0,0.0,390.0,12.0,0.0
3488,79.0,120.0,90.0,6.0,0.0
3489,73.0,0.0,390.0,10.0,0.0
3490,80.0,120.0,90.0,6.0,0.0
3491,75.0,48.0,90.0,6.0,0.0
3492,73.0,104.0,90.0,6.0,0.0
3493,68.0,96.0,240.0,12.0,0.0
3494,73.0,0.0,420.0,11.0,0.0
3495,73.0,24.0,180.0,10.0,0.0
3496,72.0,64.0,90.0,6.0,0.0
3497,61.0,16.0,90.0,8.0,0.0
3498,61.0,0.0,90.0,13.0,0.0
3499,63.0,32.0,90.0,8.0,0.0
3500,63.0,0.0,90.0,13.0,0.0
3501,73.0,24.0,90.0,6.0,0.0
3502,64.0,0.0,90.0,13.0,0.0
3503,64.0,0.0,90.0,8.0,0.0
3504,76.0,96.0,240.0,10.0,0.0
3505,66.0,0.0,390.0,8.0,0.0
3506,54.0,0.0,390.0,14.0,0.0
3507,76.0,96.0,90.0,6.0,0.0
3508,66.0,48.0,390.0,13.0,0.0
3509,69.0,24.0,180.0,12.0,0.0
3510,74.0,24.0,90.0,6.0,0.0
3511,73.0,48.0,90.0,6.0,0.0
3512,74.0,24.0,180.0,10.0,0.0
3513,69.0,72.0,390.0,12.0,0.0
3514,73.0,0.0,390.0,11.0,0.0
3515,74.0,120.0,90.0,6.0,0.0
3516,76.0,48.0,90.0,6.0,0.0
3517,75.0,104.0,90.0,6.0,0.0
3518,73.0,48.0,390.0,11.0,0.0
3519,75.0,24.0,180.0,10.0,0.0
3520,63.0,16.0,90.0,8.0,0.0
3521,63.0,0.0,90.0,13.0,0.0
3522,73.0,64.0,90.0,6.0,0.0
3523,69.0,0.0,180.0,12.0,0.0
3524,64.0,32.0,90.0,13.0,0.0
3525,64.0,0.0,90.0,8.0,0.0
3526,75.0,24.0,90.0,6.0,0.0
3527,66.0,96.0,90.0,8.0,0.0
3528,66.0,0.0,90.0,13.0,0.0
3529,71.0,24.0,180.0,12.0,0.0
3530,56.0,0.0,390.0,14.0,0.0
3531,68.0,48.0,390.0,8.0,0.0
3532,78.0,48.0,90.0,6.0,0.0
3533,68.0,0.0,390.0,13.0,0.0
3534,78.0,96.0,240.0,10.0,0.0
3535,76.0,24.0,90.0,6.0,0.0
3536,73.0,0.0,390.0,11.0,0.0
3537,76.0,24.0,180.0,10.0,0.0
3538,75.0,48.0,90.0,6.0,0.0
3539,71.0,72.0,390.0,12.0,0.0
3540,76.0,120.0,90.0,6.0,0.0
3541,78.0,48.0,90.0,6.0,0.0
3542,77.0,104.0,90.0,6.0,0.0
3543,75.0,64.0,90.0,6.0,0.0
3544,77.0,24.0,180.0,10.0,0.0
3545,65.0,16.0,90.0,8.0,0.0
3546,71.0,0.0,240.0,12.0,0.0
3547,65.0,0.0,90.0,13.0,0.0
3548,73.0,0.0,420.0,11.0,0.0
3549,66.0,0.0,90.0,13.0,0.0
3550,66.0,32.0,90.0,8.0,0.0
3551,77.0,24.0,90.0,6.0,0.0
3552,68.0,0.0,90.0,13.0,0.0
3553,68.0,96.0,90.0,8.0,0.0
3554,80.0,96.0,90.0,6.0,0.0
3555,78.0,24.0,180.0,10.0,0.0
3556,57.0,96.0,480.0,14.0,0.0
3557,69.0,0.0,480.0,8.0,0.0
3558,69.0,0.0,180.0,12.0,0.0
3559,69.0,0.0,480.0,13.0,0.0
3560,78.0,120.0,90.0,6.0,0.0
3561,77.0,96.0,90.0,6.0,0.0
3562,61.0,24.0,180.0,11.0,0.0
3563,57.0,0.0,180.0,12.0,0.0
3564,66.0,0.0,180.0,10.0,0.0
3565,78.0,24.0,90.0,6.0,0.0
3566,81.0,120.0,90.0,6.0,0.0
3567,65.0,96.0,480.0,13.0,0.0
3568,65.0,0.0,480.0,8.0,0.0
3569,53.0,0.0,480.0,14.0,0.0
3570,80.0,120.0,90.0,6.0,0.0
3571,59.0,0.0,180.0,12.0,0.0
3572,68.0,24.0,180.0,10.0,0.0
3573,78.0,96.0,90.0,6.0,0.0
3574,61.0,0.0,180.0,11.0,0.0
3575,80.0,24.0,90.0,6.0,0.0
3576,54.0,0.0,480.0,14.0,0.0
3577,66.0,0.0,480.0,8.0,0.0
3578,66.0,96.0,480.0,13.0,0.0
3579,83.0,120.0,90.0,6.0,0.0
3580,81.0,120.0,90.0,6.0,0.0
3581,57.0,0.0,180.0,12.0,0.0
3582,80.0,96.0,90.0,6.0,0.0
3583,69.0,24.0,180.0,10.0,0.0
3584,61.0,0.0,180.0,11.0,0.0
3585,81.0,24.0,90.0,6.0,0.0
3586,64.0,120.0,450.0,8.0,0.0
3587,52.0,0.0,450.0,14.0,0.0
3588,64.0,0.0,450.0,13.0,0.0
3589,83.0,120.0,90.0,6.0,0.0
3590,82.0,120.0,90.0,6.0,0.0
3591,66.0,0.0,180.0,11.0,0.0
3592,70.0,24.0,180.0,10.0,0.0
3593,80.0,96.0,90.0,6.0,0.0
3594,61.0,0.0,180.0,12.0,0.0
3595,82.0,0.0,90.0,6.0,0.0
3596,62.0,0.0,480.0,13.0,0.0
3597,85.0,120.0,90.0,6.0,0.0
3598,50.0,0.0,480.0,14.0,0.0
3599,62.0,96.0,480.0,8.0,0.0
3600,83.0,120.0,90.0,6.0,0.0
3601,62.0,24.0,180.0,12.0,0.0
3602,71.0,0.0,180.0,10.0,0.0
3603,66.0,0.0,180.0,11.0,0.0
3604,82.0,96.0,90.0,6.0,0.0
3605,83.0,24.0,90.0,6.0,0.0
3606,46.0,96.0,480.0,14.0,0.0
3607,58.0,0.0,480.0,8.0,0.0
3608,86.0,120.0,90.0,6.0,0.0
3609,58.0,0.0,480.0,13.0,0.0
3610,85.0,120.0,90.0,6.0,0.0
3611,66.0,24.0,180.0,11.0,0.0
3612,83.0,96.0,90.0,6.0,0.0
3613,73.0,0.0,180.0,10.0,0.0
3614,64.0,0.0,180.0,12.0,0.0
3615,85.0,24.0,90.0,6.0,0.0
3616,59.0,0.0,480.0,13.0,0.0
3617,88.0,120.0,90.0,6.0,0.0
3618,47.0,0.0,480.0,14.0,0.0
3619,59.0,96.0,480.0,8.0,0.0
3620,86.0,120.0,90.0,6.0,0.0
3621,66.0,24.0,180.0,11.0,0.0
3622,62.0,0.0,180.0,12.0,0.0
3623,74.0,0.0,180.0,10.0,0.0
3624,85.0,96.0,90.0,6.0,0.0
3625,86.0,24.0,90.0,6.0,0.0
3626,88.0,120.0,90.0,6.0,0.0
3627,57.0,120.0,450.0,13.0,0.0
3628,45.0,0.0,450.0,14.0,0.0
3629,57.0,0.0,450.0,8.0,0.0
3630,87.0,120.0,90.0,6.0,0.0
3631,71.0,0.0,180.0,11.0,0.0
3632,85.0,96.0,90.0,6.0,0.0
3633,75.0,0.0,180.0,10.0,0.0
3634,66.0,24.0,180.0,12.0,0.0
3635,87.0,0.0,90.0,6.0,0.0
3636,44.0,96.0,480.0,14.0,0.0
3637,56.0,0.0,480.0,13.0,0.0
3638,71.0,0.0,150.0,11.0,0.0
3639,76.0,0.0,150.0,10.0,0.0
3640,68.0,72.0,150.0,12.0,0.0
3641,56.0,0.0,480.0,8.0,0.0
3642,90.0,48.0,90.0,6.0,0.0
3643,88.0,120.0,90.0,6.0,0.0
3644,87.0,48.0,90.0,6.0,0.0
3645,71.0,72.0,150.0,11.0,0.0
3646,68.0,0.0,150.0,12.0,0.0
3647,76.0,0.0,150.0,10.0,0.0
3648,88.0,24.0,90.0,6.0,0.0
3649,77.0,0.0,150.0,10.0,0.0
3650,47.0,0.0,480.0,14.0,0.0
3651,59.0,96.0,480.0,13.0,0.0
3652,59.0,0.0,480.0,8.0,0.0
3653,90.0,48.0,90.0,6.0,0.0
3654,68.0,72.0,150.0,12.0,0.0
3655,73.0,0.0,150.0,11.0,0.0
3656,88.0,120.0,90.0,6.0,0.0
3657,73.0,72.0,150.0,11.0,0.0
3658,68.0,0.0,150.0,12.0,0.0
3659,77.0,0.0,150.0,10.0,0.0
3660,87.0,48.0,90.0,6.0,0.0
3661,88.0,24.0,90.0,6.0,0.0
3662,45.0,96.0,480.0,14.0,0.0
3663,57.0,0.0,480.0,8.0,0.0
3664,92.0,48.0,90.0,6.0,0.0
3665,57.0,0.0,480.0,13.0,0.0
3666,73.0,72.0,150.0,11.0,0.0
3667,78.0,0.0,150.0,10.0,0.0
3668,69.0,0.0,150.0,12.0,0.0
3669,90.0,120.0,90.0,6.0,0.0
3670,88.0,48.0,90.0,6.0,0.0
3671,69.0,0.0,150.0,12.0,0.0
3672,78.0,0.0,150.0,10.0,0.0
3673,73.0,72.0,150.0,11.0,0.0
3674,90.0,24.0,90.0,6.0,0.0
3675,53.0,96.0,480.0,8.0,0.0
3676,53.0,0.0,480.0,13.0,0.0
3677,80.0,0.0,150.0,10.0,0.0
3678,41.0,0.0,480.0,14.0,0.0
3679,71.0,0.0,150.0,12.0,0.0
3680,93.0,48.0,90.0,6.0,0.0
3681,73.0,72.0,150.0,11.0,0.0
3682,92.0,120.0,90.0,6.0,0.0
3683,71.0,72.0,150.0,12.0,0.0
3684,90.0,48.0,90.0,6.0,0.0
3685,73.0,0.0,150.0,11.0,0.0
3686,80.0,0.0,150.0,10.0,0.0
3687,92.0,24.0,90.0,6.0,0.0
3688,73.0,0.0,390.0,11.0,0.0
3689,69.0,72.0,390.0,12.0,0.0
3690,81.0,0.0,390.0,10.0,0.0
3691,42.0,0.0,480.0,14.0,0.0
3692,92.0,120.0,90.0,6.0,0.0
3693,54.0,0.0,480.0,8.0,0.0
3694,54.0,96.0,480.0,13.0,0.0
3695,92.0,120.0,90.0,6.0,0.0
3696,90.0,48.0,90.0,6.0,0.0
3697,89.0,24.0,90.0,6.0,0.0
3698,90.0,120.0,90.0,6.0,0.0
3699,78.0,48.0,780.0,11.0,0.0
3700,57.0,96.0,480.0,13.0,0.0
3701,57.0,0.0,480.0,8.0,0.0
3702,66.0,0.0,780.0,12.0,0.0
3703,85.0,0.0,480.0,10.0,0.0
3704,45.0,0.0,480.0,14.0,0.0
3705,88.0,120.0,90.0,6.0,0.0
3706,86.0,120.0,90.0,6.0,0.0
3707,85.0,24.0,90.0,6.0,0.0
3708,86.0,120.0,90.0,6.0,0.0
3709,86.0,0.0,480.0,10.0,0.0
3710,47.0,0.0,480.0,14.0,0.0
3711,59.0,0.0,480.0,8.0,0.0
3712,59.0,96.0,480.0,13.0,0.0
3713,88.0,72.0,90.0,6.0,0.0
3714,86.0,120.0,90.0,6.0,0.0
3715,85.0,24.0,90.0,6.0,0.0
3716,50.0,96.0,480.0,14.0,0.0
3717,78.0,0.0,480.0,10.0,0.0
3718,62.0,0.0,480.0,8.0,0.0
3719,66.0,72.0,390.0,12.0,0.0
3720,71.0,0.0,390.0,11.0,0.0
3721,83.0,120.0,90.0,6.0,0.0
3722,62.0,0.0,480.0,13.0,0.0
3723,81.0,120.0,90.0,6.0,0.0
3724,80.0,48.0,90.0,6.0,0.0
3725,78.0,24.0,90.0,6.0,0.0
3726,77.0,0.0,390.0,10.0,0.0
3727,73.0,0.0,390.0,11.0,0.0
3728,49.0,120.0,90.0,8.0,0.0
3729,80.0,0.0,390.0,6.0,0.0
3730,61.0,0.0,390.0,13.0,0.0
3731,77.0,72.0,390.0,6.0,0.0
3732,85.0,0.0,390.0,6.0,0.0
3733,49.0,0.0,390.0,14.0,0.0
3734,68.0,0.0,390.0,12.0,0.0
3735,61.0,120.0,90.0,8.0,0.0
3736,48.0,48.0,90.0,8.0,0.0
3737,60.0,120.0,90.0,8.0,0.0
3738,49.0,120.0,90.0,8.0,0.0
3739,61.0,120.0,90.0,8.0,0.0
3740,50.0,120.0,90.0,8.0,0.0
3741,62.0,120.0,90.0,8.0,0.0
3742,49.0,120.0,90.0,8.0,0.0
3743,61.0,120.0,90.0,8.0,0.0
3744,47.0,120.0,90.0,8.0,0.0
3745,59.0,120.0,90.0,8.0,0.0
3746,89.0,0.0,300.0,6.0,0.0
3747,45.0,120.0,90.0,8.0,0.0
3748,80.0,48.0,300.0,6.0,0.0
3749,85.0,0.0,300.0,6.0,0.0
3750,57.0,72.0,90.0,8.0,0.0
3751,44.0,120.0,90.0,8.0,0.0
3752,56.0,120.0,90.0,8.0,0.0
3753,81.0,0.0,300.0,6.0,0.0
3754,90.0,48.0,300.0,6.0,0.0
3755,85.0,0.0,300.0,6.0,0.0
3756,42.0,120.0,90.0,8.0,0.0
3757,54.0,72.0,90.0,8.0,0.0
3758,41.0,120.0,90.0,8.0,0.0
3759,53.0,120.0,90.0,8.0,0.0
3760,42.0,120.0,90.0,8.0,0.0
3761,54.0,120.0,90.0,8.0,0.0
3762,44.0,120.0,90.0,8.0,0.0
3763,56.0,120.0,90.0,8.0,0.0
3764,45.0,120.0,90.0,8.0,0.0
3765,57.0,120.0,90.0,8.0,0.0
3766,44.0,120.0,90.0,8.0,0.0
3767,56.0,120.0,90.0,8.0,0.0
3768,90.0,0.0,300.0,6.0,0.0
3769,81.0,0.0,300.0,6.0,0.0
3770,85.0,48.0,300.0,6.0,0.0
3771,45.0,120.0,90.0,8.0,0.0
3772,57.0,72.0,90.0,8.0,0.0
3773,47.0,120.0,90.0,8.0,0.0
3774,59.0,120.0,90.0,8.0,0.0
3775,49.0,120.0,90.0,8.0,0.0
3776,68.0,0.0,300.0,2.0,0.0
3777,65.0,48.0,300.0,2.0,0.0
3778,89.0,0.0,300.0,0.0,0.0
3779,80.0,0.0,300.0,1.0,0.0
3780,73.0,0.0,300.0,1.0,0.0
3781,80.0,0.0,300.0,6.0,0.0
3782,89.0,0.0,300.0,6.0,0.0
3783,85.0,0.0,300.0,6.0,0.0
3784,61.0,72.0,90.0,8.0,0.0
3785,48.0,120.0,90.0,8.0,0.0
3786,60.0,120.0,90.0,8.0,0.0
3787,49.0,120.0,90.0,8.0,0.0
3788,80.0,0.0,210.0,1.0,0.0
3789,73.0,120.0,210.0,1.0,0.0
3790,89.0,0.0,210.0,0.0,0.0
3791,68.0,0.0,210.0,2.0,0.0
3792,65.0,0.0,210.0,2.0,0.0
3793,61.0,0.0,90.0,8.0,0.0
3794,50.0,96.0,90.0,8.0,0.0
3795,80.0,0.0,60.0,1.0,0.0
3796,89.0,0.0,60.0,0.0,0.0
3797,73.0,24.0,60.0,1.0,0.0
3798,68.0,0.0,60.0,2.0,0.0
3799,62.0,120.0,90.0,8.0,0.0
3800,65.0,0.0,60.0,2.0,0.0
3801,49.0,120.0,90.0,8.0,0.0
3802,89.0,0.0,300.0,0.0,0.0
3803,80.0,0.0,300.0,1.0,0.0
3804,73.0,0.0,300.0,1.0,0.0
3805,68.0,48.0,300.0,2.0,0.0
3806,65.0,0.0,300.0,2.0,0.0
3807,61.0,72.0,90.0,8.0,0.0
3808,47.0,120.0,90.0,8.0,0.0
3809,59.0,120.0,90.0,8.0,0.0
3810,45.0,120.0,90.0,8.0,0.0
3811,89.0,0.0,300.0,6.0,0.0
3812,85.0,0.0,300.0,6.0,0.0
3813,80.0,0.0,300.0,6.0,0.0
3814,73.0,0.0,300.0,1.0,0.0
3815,80.0,48.0,300.0,1.0,0.0
3816,65.0,0.0,300.0,2.0,0.0
3817,89.0,0.0,300.0,0.0,0.0
3818,68.0,0.0,300.0,2.0,0.0
3819,57.0,72.0,90.0,8.0,0.0
3820,44.0,120.0,90.0,8.0,0.0
3821,56.0,120.0,90.0,8.0,0.0
3822,69.0,0.0,300.0,2.0,0.0
3823,73.0,0.0,300.0,1.0,0.0
3824,81.0,0.0,300.0,1.0,0.0
3825,66.0,48.0,300.0,2.0,0.0
3826,42.0,120.0,90.0,8.0,0.0
3827,90.0,0.0,300.0,0.0,0.0
3828,85.0,0.0,300.0,6.0,0.0
3829,81.0,0.0,300.0,6.0,0.0
3830,90.0,0.0,300.0,6.0,0.0
3831,54.0,72.0,90.0,8.0,0.0
3832,41.0,120.0,90.0,8.0,0.0
3833,53.0,120.0,90.0,8.0,0.0
3834,66.0,120.0,210.0,2.0,0.0
3835,69.0,0.0,210.0,2.0,0.0
3836,73.0,0.0,210.0,1.0,0.0
3837,81.0,0.0,210.0,1.0,0.0
3838,90.0,0.0,210.0,0.0,0.0
3839,42.0,120.0,90.0,8.0,0.0
3840,54.0,0.0,90.0,8.0,0.0
3841,44.0,96.0,90.0,8.0,0.0
3842,56.0,120.0,90.0,8.0,0.0
3843,69.0,0.0,60.0,2.0,0.0
3844,66.0,0.0,60.0,2.0,0.0
3845,73.0,24.0,60.0,1.0,0.0
3846,81.0,0.0,60.0,1.0,0.0
3847,90.0,0.0,60.0,0.0,0.0
3848,69.0,0.0,300.0,2.0,0.0
3849,90.0,0.0,300.0,0.0,0.0
3850,66.0,48.0,300.0,2.0,0.0
3851,81.0,0.0,300.0,1.0,0.0
3852,45.0,120.0,90.0,8.0,0.0
3853,73.0,0.0,300.0,1.0,0.0
3854,57.0,72.0,90.0,8.0,0.0
3855,44.0,120.0,90.0,8.0,0.0
3856,56.0,120.0,90.0,8.0,0.0
3857,90.0,0.0,300.0,0.0,0.0
3858,81.0,0.0,300.0,1.0,0.0
3859,81.0,0.0,300.0,6.0,0.0
3860,90.0,48.0,300.0,6.0,0.0
3861,85.0,0.0,300.0,6.0,0.0
3862,69.0,0.0,300.0,2.0,0.0
3863,73.0,0.0,300.0,1.0,0.0
3864,45.0,120.0,90.0,8.0,0.0
3865,66.0,0.0,300.0,2.0,0.0
3866,57.0,72.0,90.0,8.0,0.0
3867,47.0,120.0,90.0,8.0,0.0
3868,59.0,120.0,90.0,8.0,0.0
3869,89.0,12.0,390.0,6.0,0.0
3870,77.0,0.0,420.0,11.0,0.0
3871,89.0,0.0,300.0,0.0,0.0
3872,61.0,0.0,150.0,13.0,0.0
3873,80.0,0.0,390.0,6.0,0.0
3874,73.0,0.0,420.0,10.0,0.0
3875,80.0,0.0,420.0,10.0,0.0
3876,49.0,0.0,390.0,5.0,0.0
3877,68.0,0.0,300.0,2.0,0.0
3878,85.0,0.0,420.0,11.0,0.0
3879,80.0,0.0,300.0,1.0,0.0
3880,89.0,48.0,420.0,10.0,0.0
3881,61.0,0.0,390.0,8.0,0.0
3882,68.0,0.0,420.0,11.0,0.0
3883,61.0,0.0,300.0,3.0,0.0
3884,73.0,0.0,300.0,4.0,0.0
3885,49.0,60.0,150.0,14.0,0.0
3886,73.0,60.0,90.0,12.0,0.0
3887,65.0,0.0,300.0,2.0,0.0
3888,85.0,0.0,390.0,6.0,0.0
3889,77.0,48.0,300.0,1.0,0.0
3890,49.0,0.0,390.0,8.0,0.0
3891,73.0,72.0,90.0,12.0,0.0
3892,47.0,0.0,150.0,14.0,0.0
3893,71.0,48.0,90.0,12.0,0.0
3894,59.0,12.0,150.0,13.0,0.0
3895,71.0,120.0,90.0,12.0,0.0
3896,65.0,0.0,210.0,2.0,0.0
3897,61.0,0.0,210.0,3.0,0.0
3898,69.0,60.0,90.0,12.0,0.0
3899,73.0,0.0,210.0,4.0,0.0
3900,89.0,120.0,210.0,0.0,0.0
3901,80.0,0.0,210.0,1.0,0.0
3902,77.0,0.0,210.0,1.0,0.0
3903,45.0,60.0,150.0,14.0,0.0
3904,68.0,0.0,210.0,2.0,0.0
3905,57.0,0.0,150.0,13.0,0.0
3906,69.0,0.0,90.0,12.0,0.0
3907,89.0,0.0,150.0,10.0,0.0
3908,56.0,36.0,150.0,13.0,0.0
3909,80.0,0.0,150.0,10.0,0.0
3910,77.0,0.0,150.0,11.0,0.0
3911,85.0,0.0,150.0,11.0,0.0
3912,44.0,0.0,150.0,14.0,0.0
3913,68.0,60.0,90.0,12.0,0.0
3914,65.0,0.0,60.0,2.0,0.0
3915,68.0,0.0,60.0,2.0,0.0
3916,61.0,24.0,60.0,3.0,0.0
3917,80.0,0.0,60.0,1.0,0.0
3918,77.0,0.0,60.0,1.0,0.0
3919,68.0,120.0,90.0,12.0,0.0
3920,89.0,0.0,60.0,0.0,0.0
3921,73.0,0.0,60.0,4.0,0.0
3922,61.0,48.0,300.0,3.0,0.0
3923,66.0,0.0,420.0,11.0,0.0
3924,90.0,48.0,420.0,10.0,0.0
3925,81.0,0.0,420.0,11.0,0.0
3926,54.0,60.0,150.0,13.0,0.0
3927,54.0,12.0,390.0,5.0,0.0
3928,66.0,0.0,300.0,2.0,0.0
3929,69.0,0.0,300.0,2.0,0.0
3930,81.0,0.0,420.0,10.0,0.0
3931,73.0,0.0,420.0,11.0,0.0
3932,90.0,0.0,300.0,0.0,0.0
3933,73.0,0.0,300.0,4.0,0.0
3934,42.0,0.0,150.0,14.0,0.0
3935,78.0,0.0,300.0,1.0,0.0
3936,81.0,0.0,300.0,1.0,0.0
3937,66.0,60.0,90.0,12.0,0.0
3938,66.0,72.0,90.0,12.0,0.0
3939,44.0,0.0,150.0,14.0,0.0
3940,56.0,12.0,150.0,13.0,0.0
3941,68.0,48.0,90.0,12.0,0.0
3942,68.0,120.0,90.0,12.0,0.0
3943,61.0,0.0,210.0,3.0,0.0
3944,81.0,0.0,210.0,1.0,0.0
3945,78.0,0.0,210.0,1.0,0.0
3946,69.0,60.0,90.0,12.0,0.0
3947,45.0,0.0,150.0,14.0,0.0
3948,69.0,0.0,210.0,2.0,0.0
3949,66.0,120.0,210.0,2.0,0.0
3950,90.0,0.0,210.0,0.0,0.0
3951,73.0,0.0,210.0,4.0,0.0
3952,57.0,60.0,150.0,13.0,0.0
3953,69.0,0.0,90.0,12.0,0.0
3954,81.0,0.0,150.0,10.0,0.0
3955,81.0,0.0,150.0,11.0,0.0
3956,47.0,0.0,150.0,14.0,0.0
3957,90.0,0.0,150.0,10.0,0.0
3958,71.0,60.0,90.0,12.0,0.0
3959,73.0,36.0,150.0,11.0,0.0
3960,59.0,0.0,150.0,13.0,0.0
3961,66.0,0.0,60.0,2.0,0.0
3962,90.0,24.0,60.0,0.0,0.0
3963,81.0,0.0,60.0,1.0,0.0
3964,71.0,120.0,90.0,12.0,0.0
3965,61.0,0.0,60.0,3.0,0.0
3966,73.0,0.0,60.0,4.0,0.0
3967,78.0,0.0,60.0,1.0,0.0
3968,69.0,0.0,60.0,2.0,0.0
3969,61.0,60.0,150.0,13.0,0.0
3970,77.0,0.0,300.0,1.0,0.0
3971,49.0,12.0,390.0,5.0,0.0
3972,73.0,60.0,90.0,12.0,0.0
3973,80.0,48.0,300.0,1.0,0.0
3974,49.0,0.0,150.0,14.0,0.0
3975,85.0,0.0,420.0,11.0,0.0
3976,68.0,48.0,420.0,11.0,0.0
3977,89.0,0.0,420.0,10.0,0.0
3978,80.0,0.0,420.0,10.0,0.0
3979,68.0,0.0,300.0,2.0,0.0
3980,89.0,0.0,300.0,0.0,0.0
3981,61.0,0.0,300.0,3.0,0.0
3982,65.0,0.0,300.0,2.0,0.0
3983,77.0,0.0,420.0,11.0,0.0
3984,73.0,0.0,300.0,4.0,0.0
3985,73.0,72.0,90.0,12.0,0.0
3986,71.0,48.0,90.0,12.0,0.0
3987,59.0,12.0,150.0,13.0,0.0
3988,47.0,0.0,150.0,14.0,0.0
3989,71.0,120.0,90.0,12.0,0.0
3990,57.0,60.0,150.0,13.0,0.0
3991,73.0,0.0,210.0,4.0,0.0
3992,89.0,0.0,210.0,0.0,0.0
3993,77.0,120.0,210.0,1.0,0.0
3994,80.0,0.0,210.0,1.0,0.0
3995,69.0,60.0,90.0,12.0,0.0
3996,68.0,0.0,210.0,2.0,0.0
3997,45.0,0.0,150.0,14.0,0.0
3998,61.0,0.0,210.0,3.0,0.0
3999,65.0,0.0,210.0,2.0,0.0
4000,69.0,0.0,90.0,12.0,0.0
4001,44.0,0.0,150.0,14.0,0.0
4002,56.0,36.0,150.0,13.0,0.0
4003,80.0,0.0,150.0,10.0,0.0
4004,89.0,0.0,150.0,10.0,0.0
4005,68.0,60.0,90.0,12.0,0.0
4006,77.0,0.0,150.0,11.0,0.0
4007,85.0,0.0,150.0,11.0,0.0
4008,77.0,0.0,60.0,1.0,0.0
4009,61.0,0.0,60.0,3.0,0.0
4010,65.0,24.0,60.0,2.0,0.0
4011,89.0,0.0,60.0,0.0,0.0
4012,68.0,120.0,90.0,12.0,0.0
4013,68.0,0.0,60.0,2.0,0.0
4014,80.0,0.0,60.0,1.0,0.0
4015,73.0,0.0,60.0,4.0,0.0
4016,73.0,0.0,420.0,11.0,0.0
4017,66.0,0.0,300.0,2.0,0.0
4018,90.0,48.0,300.0,0.0,0.0
4019,42.0,0.0,150.0,14.0,0.0
4020,69.0,0.0,300.0,2.0,0.0
4021,61.0,0.0,300.0,3.0,0.0
4022,90.0,0.0,420.0,10.0,0.0
4023,66.0,0.0,420.0,11.0,0.0
4024,54.0,12.0,390.0,5.0,0.0
4025,81.0,0.0,420.0,10.0,0.0
4026,73.0,0.0,300.0,4.0,0.0
4027,81.0,0.0,300.0,1.0,0.0
4028,78.0,0.0,300.0,1.0,0.0
4029,66.0,60.0,90.0,12.0,0.0
4030,54.0,60.0,150.0,13.0,0.0
4031,81.0,48.0,420.0,11.0,0.0
4032,66.0,72.0,90.0,12.0,0.0
4033,44.0,12.0,150.0,14.0,0.0
4034,56.0,0.0,150.0,13.0,0.0
4035,68.0,48.0,90.0,12.0,0.0
4036,68.0,120.0,90.0,12.0,0.0
4037,90.0,120.0,210.0,0.0,0.0
4038,61.0,0.0,210.0,3.0,0.0
4039,57.0,60.0,150.0,13.0,0.0
4040,69.0,60.0,90.0,12.0,0.0
4041,78.0,0.0,210.0,1.0,0.0
4042,81.0,0.0,210.0,1.0,0.0
4043,45.0,0.0,150.0,14.0,0.0
4044,66.0,0.0,210.0,2.0,0.0
4045,73.0,0.0,210.0,4.0,0.0
4046,69.0,0.0,210.0,2.0,0.0
4047,69.0,0.0,90.0,12.0,0.0
4048,90.0,36.0,150.0,10.0,0.0
4049,47.0,0.0,150.0,14.0,0.0
4050,81.0,0.0,150.0,10.0,0.0
4051,73.0,0.0,150.0,11.0,0.0
4052,71.0,60.0,90.0,12.0,0.0
4053,81.0,0.0,150.0,11.0,0.0
4054,59.0,0.0,150.0,13.0,0.0
4055,81.0,24.0,60.0,1.0,0.0
4056,66.0,0.0,60.0,2.0,0.0
4057,69.0,0.0,60.0,2.0,0.0
4058,61.0,0.0,60.0,3.0,0.0
4059,71.0,408.0,90.0,12.0,0.0
4060,78.0,0.0,60.0,1.0,0.0
4061,73.0,0.0,60.0,4.0,0.0
4062,90.0,0.0,60.0,0.0,0.0
4063,61.0,0.0,390.0,3.0,0.0
4064,65.0,0.0,390.0,2.0,0.0
4065,80.0,0.0,390.0,1.0,0.0
4066,68.0,0.0,390.0,2.0,0.0
4067,77.0,0.0,390.0,1.0,0.0
4068,73.0,0.0,390.0,10.0,0.0
4069,73.0,0.0,390.0,12.0,0.0
4070,61.0,0.0,390.0,13.0,0.0
4071,49.0,0.0,390.0,5.0,0.0
4072,73.0,0.0,390.0,4.0,0.0
4073,77.0,0.0,390.0,11.0,0.0
4074,85.0,0.0,390.0,11.0,0.0
4075,68.0,0.0,390.0,11.0,0.0
4076,49.0,0.0,390.0,14.0,0.0
4077,89.0,0.0,390.0,10.0,0.0
4078,80.0,2496.0,390.0,10.0,0.0
4079,89.0,0.0,390.0,0.0,0.0
4080,69.0,0.0,960.0,1.0,0.0
4081,81.0,0.0,960.0,1.0,0.0
4082,57.0,0.0,960.0,2.0,0.0
4083,61.0,960.0,960.0,2.0,0.0
4084,68.0,0.0,960.0,1.0,0.0
4085,80.0,0.0,960.0,1.0,0.0
4086,62.0,0.0,960.0,2.0,0.0
4087,59.0,384.0,960.0,2.0,0.0
4088,81.0,0.0,390.0,1.0,0.0
4089,69.0,96.0,390.0,1.0,0.0
4090,61.0,0.0,390.0,2.0,0.0
4091,64.0,0.0,390.0,2.0,0.0
4092,76.0,144.0,240.0,6.0,0.0
4093,73.0,0.0,480.0,10.0,0.0
4094,88.0,240.0,150.0,6.0,0.0
4095,69.0,240.0,480.0,11.0,0.0
4096,88.0,96.0,150.0,6.0,0.0
4097,88.0,192.0,240.0,6.0,0.0
4098,71.0,240.0,480.0,11.0,0.0
4099,74.0,0.0,480.0,10.0,0.0
4100,80.0,48.0,180.0,6.0,0.0
4101,76.0,48.0,390.0,10.0,0.0
4102,73.0,0.0,390.0,11.0,0.0
4103,80.0,144.0,240.0,6.0,0.0
4104,81.0,1008.0,180.0,6.0,0.0
4105,59.0,0.0,960.0,2.0,0.0
4106,62.0,0.0,960.0,2.0,0.0
4107,83.0,0.0,960.0,1.0,0.0
4108,71.0,960.0,960.0,1.0,0.0
4109,61.0,384.0,960.0,2.0,0.0
4110,70.0,0.0,960.0,1.0,0.0
4111,82.0,0.0,960.0,1.0,0.0
4112,64.0,0.0,960.0,2.0,0.0
4113,83.0,96.0,390.0,1.0,0.0
4114,71.0,0.0,390.0,1.0,0.0
4115,62.0,0.0,390.0,2.0,0.0
4116,66.0,0.0,390.0,2.0,0.0
4117,78.0,144.0,240.0,6.0,0.0
4118,74.0,240.0,480.0,10.0,0.0
4119,71.0,0.0,480.0,11.0,0.0
4120,90.0,240.0,150.0,6.0,0.0
4121,90.0,96.0,150.0,6.0,0.0
4122,73.0,240.0,480.0,11.0,0.0
4123,76.0,0.0,480.0,10.0,0.0
4124,90.0,192.0,240.0,6.0,0.0
4125,82.0,48.0,180.0,6.0,0.0
4126,78.0,0.0,390.0,10.0,0.0
4127,82.0,144.0,240.0,6.0,0.0
4128,74.0,48.0,390.0,11.0,0.0
4129,83.0,1008.0,180.0,6.0,0.0
4130,61.0,0.0,960.0,2.0,0.0
4131,64.0,0.0,960.0,2.0,0.0
4132,73.0,960.0,960.0,1.0,0.0
4133,85.0,0.0,960.0,1.0,0.0
4134,66.0,0.0,960.0,2.0,0.0
4135,63.0,384.0,960.0,2.0,0.0
4136,72.0,0.0,960.0,1.0,0.0
4137,84.0,0.0,960.0,1.0,0.0
4138,85.0,0.0,390.0,1.0,0.0
4139,73.0,0.0,390.0,1.0,0.0
4140,68.0,0.0,390.0,2.0,0.0
4141,64.0,96.0,390.0,2.0,0.0
4142,80.0,144.0,240.0,6.0,0.0
4143,76.0,0.0,480.0,10.0,0.0
4144,73.0,240.0,480.0,11.0,0.0
4145,92.0,240.0,150.0,6.0,0.0
4146,92.0,96.0,150.0,6.0,0.0
4147,78.0,240.0,480.0,10.0,0.0
4148,92.0,192.0,240.0,6.0,0.0
4149,74.0,0.0,480.0,11.0,0.0
4150,84.0,48.0,180.0,6.0,0.0
4151,76.0,0.0,390.0,11.0,0.0
4152,84.0,144.0,240.0,6.0,0.0
4153,80.0,48.0,390.0,10.0,0.0
4154,85.0,240.0,180.0,6.0,0.0
4155,66.0,0.0,390.0,7.0,0.0
4156,69.0,0.0,390.0,12.0,0.0
4157,54.0,48.0,390.0,14.0,0.0
4158,66.0,0.0,390.0,13.0,0.0
4159,81.0,168.0,180.0,10.0,0.0
4160,88.0,24.0,360.0,6.0,0.0
4161,78.0,48.0,180.0,10.0,0.0
4162,86.0,192.0,120.0,6.0,0.0
4163,86.0,240.0,180.0,10.0,0.0
4164,90.0,120.0,720.0,6.0,0.0
4165,85.0,288.0,180.0,10.0,0.0
4166,68.0,0.0,390.0,7.0,0.0
4167,64.0,0.0,390.0,12.0,0.0
4168,56.0,48.0,390.0,14.0,0.0
4169,83.0,0.0,390.0,10.0,0.0
4170,68.0,0.0,390.0,13.0,0.0
4171,88.0,24.0,120.0,6.0,0.0
4172,71.0,48.0,180.0,11.0,0.0
4173,86.0,192.0,120.0,6.0,0.0
4174,85.0,0.0,180.0,6.0,0.0
4175,76.0,192.0,180.0,11.0,0.0
4176,74.0,408.0,180.0,11.0,0.0
4177,83.0,48.0,150.0,6.0,0.0
4178,69.0,0.0,390.0,7.0,0.0
4179,86.0,24.0,360.0,6.0,0.0
4180,73.0,48.0,390.0,11.0,0.0
4181,69.0,0.0,390.0,13.0,0.0
4182,57.0,0.0,390.0,14.0,0.0
4183,64.0,0.0,390.0,12.0,0.0
4184,76.0,48.0,180.0,10.0,0.0
4185,85.0,192.0,120.0,6.0,0.0
4186,85.0,240.0,180.0,10.0,0.0
4187,88.0,120.0,720.0,6.0,0.0
4188,83.0,288.0,180.0,10.0,0.0
4189,81.0,0.0,390.0,10.0,0.0
4190,66.0,0.0,390.0,13.0,0.0
4191,54.0,0.0,390.0,14.0,0.0
4192,66.0,48.0,390.0,7.0,0.0
4193,66.0,0.0,390.0,12.0,0.0
4194,69.0,48.0,180.0,11.0,0.0
4195,86.0,24.0,120.0,6.0,0.0
4196,85.0,192.0,120.0,6.0,0.0
4197,83.0,0.0,180.0,6.0,0.0
4198,74.0,192.0,180.0,11.0,0.0
4199,81.0,48.0,150.0,6.0,0.0
4200,73.0,408.0,180.0,11.0,0.0
4201,85.0,24.0,360.0,6.0,0.0
4202,62.0,0.0,390.0,7.0,0.0
4203,50.0,0.0,390.0,14.0,0.0
4204,62.0,0.0,390.0,13.0,0.0
4205,71.0,48.0,390.0,11.0,0.0
4206,66.0,0.0,390.0,12.0,0.0
4207,66.0,48.0,180.0,10.0,0.0
4208,83.0,192.0,120.0,6.0,0.0
4209,78.0,240.0,180.0,10.0,0.0
4210,86.0,144.0,720.0,6.0,0.0
4211,74.0,288.0,180.0,10.0,0.0
4212,50.0,0.0,480.0,14.0,0.0
4213,62.0,0.0,480.0,7.0,0.0
4214,62.0,192.0,480.0,13.0,0.0
4215,71.0,0.0,390.0,10.0,0.0
4216,66.0,48.0,390.0,12.0,0.0
4217,78.0,0.0,240.0,6.0,0.0
4218,59.0,48.0,180.0,11.0,0.0
4219,83.0,0.0,180.0,6.0,0.0
4220,51.0,0.0,480.0,14.0,0.0
4221,63.0,0.0,480.0,13.0,0.0
4222,63.0,240.0,480.0,7.0,0.0
4223,66.0,192.0,180.0,11.0,0.0
4224,81.0,48.0,150.0,6.0,0.0
4225,71.0,48.0,180.0,11.0,0.0
4226,64.0,18.0,3810.0,13.0,0.0
4227,52.0,0.0,3810.0,14.0,0.0
4228,76.0,0.0,960.0,10.0,0.0
4229,71.0,0.0,3810.0,11.0,0.0
4230,64.0,0.0,900.0,7.0,0.0
4231,68.0,0.0,900.0,7.0,0.0
4232,71.0,48.0,900.0,7.0,0.0
4233,80.0,120.0,240.0,6.0,0.0
4234,68.0,120.0,960.0,12.0,0.0
4235,81.0,120.0,120.0,6.0,0.0
4236,83.0,120.0,120.0,6.0,0.0
4237,81.0,120.0,120.0,6.0,0.0
4238,80.0,120.0,120.0,6.0,0.0
4239,78.0,72.0,120.0,6.0,0.0
4240,76.0,0.0,120.0,6.0,0.0
4241,64.0,0.0,900.0,7.0,0.0
4242,66.0,0.0,900.0,7.0,0.0
4243,71.0,48.0,900.0,7.0,0.0
4244,75.0,120.0,120.0,6.0,0.0
4245,69.0,120.0,960.0,12.0,0.0
4246,69.0,0.0,900.0,7.0,0.0
4247,78.0,0.0,960.0,10.0,0.0
4248,76.0,120.0,120.0,6.0,0.0
4249,78.0,120.0,120.0,6.0,0.0
4250,80.0,120.0,120.0,6.0,0.0
4251,81.0,120.0,120.0,6.0,0.0
4252,83.0,120.0,120.0,6.0,0.0
4253,85.0,72.0,120.0,6.0,0.0
4254,87.0,0.0,120.0,6.0,0.0
4255,76.0,0.0,960.0,10.0,0.0
4256,71.0,48.0,900.0,7.0,0.0
4257,68.0,0.0,900.0,7.0,0.0
4258,88.0,120.0,120.0,6.0,0.0
4259,68.0,0.0,960.0,12.0,0.0
4260,64.0,0.0,900.0,7.0,0.0
4261,87.0,120.0,120.0,6.0,0.0
4262,85.0,120.0,120.0,6.0,0.0
4263,83.0,120.0,120.0,6.0,0.0
4264,81.0,120.0,120.0,6.0,0.0
4265,80.0,120.0,120.0,6.0,0.0
4266,78.0,72.0,120.0,6.0,0.0
4267,76.0,120.0,120.0,6.0,0.0
4268,78.0,20.0,930.0,10.0,0.0
4269,66.0,0.0,900.0,7.0,0.0
4270,64.0,0.0,900.0,7.0,0.0
4271,69.0,10.0,900.0,7.0,0.0
4272,71.0,0.0,900.0,7.0,0.0
4273,69.0,0.0,930.0,12.0,0.0
4274,75.0,120.0,120.0,6.0,0.0
4275,76.0,120.0,120.0,6.0,0.0
4276,78.0,120.0,120.0,6.0,0.0
4277,80.0,120.0,120.0,6.0,0.0
4278,81.0,120.0,120.0,6.0,0.0
4279,83.0,120.0,120.0,6.0,0.0
4280,85.0,72.0,120.0,6.0,0.0
4281,87.0,120.0,120.0,6.0,0.0
4282,71.0,0.0,180.0,11.0,0.0
4283,76.0,48.0,180.0,10.0,0.0
4284,52.0,0.0,390.0,14.0,0.0
4285,64.0,0.0,390.0,7.0,0.0
4286,64.0,96.0,390.0,13.0,0.0
4287,71.0,0.0,390.0,7.0,0.0
4288,88.0,72.0,120.0,6.0,0.0
4289,68.0,0.0,180.0,12.0,0.0
4290,68.0,0.0,390.0,7.0,0.0
4291,83.0,120.0,120.0,6.0,0.0
4292,80.0,24.0,120.0,6.0,0.0
4293,76.0,120.0,120.0,6.0,0.0
4294,76.0,48.0,180.0,10.0,0.0
4295,69.0,0.0,390.0,7.0,0.0
4296,72.0,0.0,390.0,7.0,0.0
4297,72.0,0.0,180.0,11.0,0.0
4298,69.0,0.0,180.0,12.0,0.0
4299,88.0,72.0,120.0,6.0,0.0
4300,64.0,96.0,390.0,7.0,0.0
4301,84.0,120.0,120.0,6.0,0.0
4302,81.0,24.0,120.0,6.0,0.0
4303,76.0,120.0,120.0,6.0,0.0
4304,64.0,96.0,390.0,13.0,0.0
4305,52.0,0.0,390.0,14.0,0.0
4306,71.0,48.0,180.0,11.0,0.0
4307,64.0,0.0,390.0,7.0,0.0
4308,71.0,0.0,390.0,7.0,0.0
4309,68.0,0.0,390.0,7.0,0.0
4310,68.0,0.0,180.0,12.0,0.0
4311,88.0,72.0,120.0,6.0,0.0
4312,76.0,0.0,180.0,10.0,0.0
4313,83.0,120.0,120.0,6.0,0.0
4314,80.0,24.0,120.0,6.0,0.0
4315,76.0,120.0,120.0,6.0,0.0
4316,69.0,48.0,180.0,12.0,0.0
4317,88.0,72.0,120.0,6.0,0.0
4318,69.0,0.0,390.0,7.0,0.0
4319,72.0,0.0,180.0,11.0,0.0
4320,76.0,0.0,180.0,10.0,0.0
4321,64.0,96.0,390.0,7.0,0.0
4322,72.0,0.0,390.0,7.0,0.0
4323,84.0,120.0,120.0,6.0,0.0
4324,81.0,24.0,120.0,6.0,0.0
4325,76.0,384.0,120.0,6.0,0.0
4326,71.0,0.0,390.0,11.0,0.0
4327,68.0,960.0,390.0,12.0,0.0
4328,80.0,0.0,390.0,6.0,0.0
4329,83.0,0.0,390.0,6.0,0.0
4330,52.0,0.0,390.0,14.0,0.0
4331,64.0,0.0,390.0,13.0,0.0
4332,88.0,0.0,390.0,6.0,0.0
4333,71.0,0.0,390.0,7.0,0.0
4334,64.0,0.0,390.0,7.0,0.0
4335,68.0,0.0,390.0,7.0,0.0
4336,76.0,0.0,390.0,10.0,0.0
4337,76.0,480.0,390.0,6.0,0.0
4338,76.0,216.0,390.0,6.0,0.0
4339,64.0,0.0,1920.0,7.0,0.0
4340,76.0,600.0,120.0,6.0,0.0
4341,61.0,0.0,960.0,8.0,0.0
4342,57.0,0.0,960.0,8.0,0.0
4343,85.0,120.0,600.0,6.0,0.0
4344,83.0,120.0,120.0,6.0,0.0
4345,81.0,480.0,120.0,6.0,0.0
4346,62.0,0.0,960.0,8.0,0.0
4347,59.0,384.0,960.0,8.0,0.0
4348,80.0,384.0,480.0,6.0,0.0
4349,83.0,96.0,390.0,6.0,0.0
4350,61.0,0.0,390.0,8.0,0.0
4351,81.0,0.0,390.0,6.0,0.0
4352,64.0,696.0,390.0,7.0,0.0
4353,73.0,0.0,480.0,6.0,0.0
4354,88.0,324.0,120.0,10.0,0.0
4355,85.0,0.0,120.0,11.0,0.0
4356,81.0,0.0,330.0,11.0,0.0
4357,85.0,36.0,330.0,10.0,0.0
4358,76.0,120.0,15.0,6.0,0.0
4359,81.0,324.0,120.0,11.0,0.0
4360,85.0,0.0,120.0,10.0,0.0
4361,81.0,0.0,330.0,10.0,0.0
4362,76.0,36.0,330.0,11.0,0.0
4363,81.0,0.0,15.0,6.0,0.0
4364,76.0,0.0,120.0,11.0,0.0
4365,81.0,324.0,120.0,10.0,0.0
4366,73.0,36.0,330.0,11.0,0.0
4367,76.0,0.0,330.0,10.0,0.0
4368,76.0,264.0,120.0,10.0,0.0
4369,88.0,60.0,390.0,6.0,0.0
4370,85.0,120.0,15.0,6.0,0.0
4371,73.0,0.0,120.0,11.0,0.0
4372,69.0,228.0,330.0,11.0,0.0
4373,73.0,0.0,330.0,10.0,0.0
4374,74.0,480.0,180.0,10.0,0.0
4375,71.0,0.0,180.0,11.0,0.0
4376,68.0,0.0,180.0,7.0,0.0
4377,64.0,0.0,180.0,12.0,0.0
4378,56.0,0.0,180.0,13.0,0.0
4379,83.0,0.0,180.0,6.0,0.0
4380,44.0,0.0,180.0,14.0,0.0
4381,86.0,0.0,180.0,6.0,0.0
4382,45.0,0.0,180.0,14.0,0.0
4383,85.0,0.0,180.0,6.0,0.0
4384,57.0,0.0,180.0,13.0,0.0
4385,64.0,0.0,180.0,12.0,0.0
4386,73.0,0.0,180.0,10.0,0.0
4387,69.0,672.0,180.0,7.0,0.0
4388,81.0,0.0,180.0,6.0,0.0
4389,69.0,0.0,180.0,11.0,0.0
4390,52.0,0.0,390.0,13.0,0.0
4391,71.0,960.0,390.0,10.0,0.0
4392,40.0,0.0,390.0,14.0,0.0
4393,80.0,0.0,390.0,6.0,0.0
4394,83.0,0.0,390.0,6.0,0.0
4395,64.0,0.0,390.0,7.0,0.0
4396,64.0,0.0,390.0,12.0,0.0
4397,68.0,0.0,390.0,11.0,0.0
4398,78.0,480.0,390.0,6.0,0.0
4399,78.0,216.0,390.0,6.0,0.0
4400,66.0,0.0,1920.0,7.0,0.0
4401,78.0,600.0,120.0,6.0,0.0
4402,59.0,0.0,960.0,8.0,0.0
4403,62.0,480.0,960.0,8.0,0.0
4404,86.0,120.0,600.0,6.0,0.0
4405,85.0,120.0,120.0,6.0,0.0
4406,83.0,0.0,120.0,6.0,0.0
4407,82.0,480.0,480.0,6.0,0.0
4408,61.0,0.0,960.0,8.0,0.0
4409,64.0,384.0,960.0,8.0,0.0
4410,85.0,0.0,480.0,6.0,0.0
4411,62.0,0.0,390.0,8.0,0.0
4412,66.0,0.0,390.0,7.0,0.0
4413,83.0,696.0,390.0,6.0,0.0
4414,74.0,0.0,480.0,6.0,0.0
4415,86.0,324.0,120.0,11.0,0.0
4416,90.0,0.0,120.0,10.0,0.0
4417,86.0,0.0,330.0,10.0,0.0
4418,83.0,36.0,330.0,11.0,0.0
4419,78.0,120.0,15.0,6.0,0.0
4420,83.0,0.0,480.0,6.0,0.0
4421,83.0,324.0,120.0,11.0,0.0
4422,86.0,0.0,120.0,10.0,0.0
4423,78.0,36.0,330.0,11.0,0.0
4424,83.0,0.0,330.0,10.0,0.0
4425,83.0,0.0,120.0,10.0,0.0
4426,78.0,324.0,120.0,11.0,0.0
4427,83.0,120.0,480.0,6.0,0.0
4428,86.0,0.0,480.0,6.0,0.0
4429,78.0,36.0,330.0,10.0,0.0
4430,74.0,0.0,330.0,11.0,0.0
4431,74.0,264.0,120.0,11.0,0.0
4432,86.0,60.0,390.0,6.0,0.0
4433,78.0,0.0,120.0,10.0,0.0
4434,90.0,0.0,390.0,6.0,0.0
4435,74.0,516.0,330.0,10.0,0.0
4436,71.0,0.0,330.0,11.0,0.0
4437,81.0,0.0,480.0,6.0,0.0
4438,76.0,0.0,480.0,6.0,0.0
4439,69.0,0.0,480.0,11.0,0.0
4440,40.0,0.0,960.0,14.0,0.0
4441,64.0,0.0,480.0,12.0,0.0
4442,73.0,0.0,480.0,10.0,0.0
4443,64.0,0.0,960.0,7.0,0.0
4444,73.0,120.0,480.0,7.0,0.0
4445,52.0,0.0,960.0,13.0,0.0
4446,62.0,0.0,480.0,12.0,0.0
4447,74.0,384.0,480.0,7.0,0.0
4448,85.0,288.0,120.0,6.0,0.0
4449,68.0,0.0,480.0,11.0,0.0
4450,71.0,0.0,480.0,10.0,0.0
4451,83.0,72.0,300.0,6.0,0.0
4452,80.0,0.0,300.0,6.0,0.0
4453,45.0,0.0,390.0,14.0,0.0
4454,69.0,0.0,390.0,10.0,0.0
4455,61.0,0.0,390.0,12.0,0.0
4456,57.0,0.0,390.0,13.0,0.0
4457,81.0,0.0,390.0,6.0,0.0
4458,69.0,0.0,390.0,11.0,0.0
4459,69.0,0.0,390.0,7.0,0.0
4460,73.0,998.0,390.0,7.0,0.0
4461,76.0,480.0,420.0,1.0,0.0
4462,76.0,202.0,420.0,1.0,0.0
4463,64.0,0.0,2310.0,12.0,0.0
4464,73.0,0.0,960.0,11.0,0.0
4465,57.0,0.0,960.0,13.0,0.0
4466,76.0,144.0,960.0,10.0,0.0
4467,85.0,120.0,720.0,1.0,0.0
4468,76.0,0.0,2310.0,1.0,0.0
4469,45.0,240.0,150.0,2.0,0.0
4470,49.0,240.0,150.0,2.0,0.0
4471,52.0,96.0,150.0,2.0,0.0
4472,83.0,24.0,120.0,1.0,0.0
4473,57.0,96.0,150.0,2.0,0.0
4474,81.0,0.0,120.0,1.0,0.0
4475,80.0,144.0,480.0,1.0,0.0
4476,59.0,0.0,960.0,13.0,0.0
4477,74.0,144.0,960.0,10.0,0.0
4478,71.0,0.0,480.0,11.0,0.0
4479,47.0,240.0,150.0,2.0,0.0
4480,50.0,96.0,150.0,2.0,0.0
4481,68.0,0.0,480.0,11.0,0.0
4482,83.0,0.0,480.0,1.0,0.0
4483,56.0,240.0,150.0,2.0,0.0
4484,59.0,96.0,150.0,2.0,0.0
4485,61.0,0.0,390.0,13.0,0.0
4486,69.0,0.0,390.0,11.0,0.0
4487,73.0,0.0,390.0,10.0,0.0
4488,49.0,240.0,150.0,2.0,0.0
4489,81.0,0.0,390.0,1.0,0.0
4490,52.0,240.0,150.0,2.0,0.0
4491,57.0,240.0,150.0,2.0,0.0
4492,61.0,240.0,150.0,2.0,0.0
4493,76.0,120.0,480.0,0.0,0.0
4494,88.0,120.0,240.0,6.0,0.0
4495,73.0,0.0,480.0,1.0,0.0
4496,57.0,96.0,150.0,2.0,0.0
4497,86.0,24.0,120.0,6.0,0.0
4498,61.0,96.0,150.0,2.0,0.0
4499,85.0,0.0,120.0,6.0,0.0
4500,76.0,0.0,480.0,1.0,0.0
4501,52.0,96.0,150.0,2.0,0.0
4502,83.0,24.0,120.0,6.0,0.0
4503,81.0,120.0,480.0,0.0,0.0
4504,81.0,120.0,120.0,6.0,0.0
4505,80.0,24.0,120.0,6.0,0.0
4506,57.0,96.0,150.0,2.0,0.0
4507,78.0,0.0,120.0,6.0,0.0
4508,81.0,120.0,480.0,1.0,0.0
4509,85.0,0.0,480.0,0.0,0.0
4510,76.0,24.0,120.0,6.0,0.0
4511,49.0,96.0,150.0,2.0,0.0
4512,74.0,120.0,120.0,6.0,0.0
4513,52.0,96.0,150.0,2.0,0.0
4514,73.0,24.0,120.0,6.0,0.0
4515,71.0,0.0,120.0,6.0,0.0
4516,69.0,24.0,120.0,6.0,0.0
4517,45.0,96.0,150.0,2.0,0.0
4518,85.0,144.0,480.0,1.0,0.0
4519,88.0,0.0,480.0,0.0,0.0
4520,68.0,120.0,120.0,6.0,0.0
4521,66.0,24.0,120.0,6.0,0.0
4522,57.0,96.0,150.0,2.0,0.0
4523,64.0,0.0,120.0,6.0,0.0
4524,86.0,0.0,180.0,0.0,0.0
4525,59.0,0.0,180.0,7.0,0.0
4526,62.0,0.0,180.0,7.0,0.0
4527,56.0,48.0,150.0,2.0,0.0
4528,83.0,192.0,180.0,1.0,0.0
4529,44.0,0.0,180.0,8.0,0.0
4530,52.0,240.0,150.0,2.0,0.0
4531,57.0,48.0,150.0,2.0,0.0
4532,45.0,0.0,180.0,8.0,0.0
4533,57.0,0.0,180.0,7.0,0.0
4534,61.0,0.0,180.0,7.0,0.0
4535,85.0,192.0,180.0,0.0,0.0
4536,81.0,0.0,180.0,1.0,0.0
4537,45.0,240.0,150.0,2.0,0.0
4538,80.0,202.0,420.0,1.0,0.0
4539,56.0,0.0,390.0,7.0,0.0
4540,59.0,38.0,390.0,7.0,0.0
4541,40.0,0.0,390.0,8.0,0.0
4542,83.0,0.0,390.0,0.0,0.0
4543,52.0,240.0,150.0,2.0,0.0
4544,56.0,0.0,150.0,2.0,0.0
4545,59.0,240.0,150.0,2.0,0.0
4546,64.0,240.0,150.0,2.0,0.0
4547,62.0,240.0,150.0,2.0,0.0
4548,78.0,202.0,420.0,1.0,0.0
4549,59.0,38.0,150.0,2.0,0.0
4550,54.0,240.0,150.0,2.0,0.0
4551,78.0,202.0,420.0,1.0,0.0
4552,50.0,38.0,150.0,2.0,0.0
4553,74.0,0.0,960.0,11.0,0.0
4554,47.0,240.0,150.0,2.0,0.0
4555,62.0,0.0,960.0,12.0,0.0
4556,78.0,0.0,960.0,10.0,0.0
4557,78.0,0.0,960.0,1.0,0.0
4558,86.0,120.0,720.0,1.0,0.0
4559,59.0,144.0,960.0,13.0,0.0
4560,50.0,240.0,150.0,2.0,0.0
4561,54.0,96.0,150.0,2.0,0.0
4562,59.0,96.0,150.0,2.0,0.0
4563,85.0,24.0,120.0,1.0,0.0
4564,83.0,0.0,120.0,1.0,0.0
4565,79.0,144.0,720.0,1.0,0.0
4566,82.0,0.0,480.0,1.0,0.0
4567,67.0,0.0,480.0,12.0,0.0
4568,73.0,144.0,480.0,11.0,0.0
4569,61.0,0.0,960.0,13.0,0.0
4570,76.0,0.0,960.0,10.0,0.0
4571,49.0,240.0,150.0,2.0,0.0
4572,52.0,96.0,150.0,2.0,0.0
4573,58.0,96.0,150.0,2.0,0.0
4574,70.0,144.0,480.0,11.0,0.0
4575,64.0,0.0,480.0,12.0,0.0
4576,85.0,0.0,480.0,1.0,0.0
4577,78.0,0.0,240.0,1.0,0.0
4578,61.0,96.0,150.0,2.0,0.0
4579,78.0,240.0,390.0,1.0,0.0
4580,83.0,0.0,390.0,1.0,0.0
4581,62.0,0.0,390.0,13.0,0.0
4582,66.0,0.0,390.0,12.0,0.0
4583,71.0,0.0,390.0,11.0,0.0
4584,74.0,0.0,390.0,10.0,0.0
4585,50.0,240.0,150.0,2.0,0.0
4586,54.0,0.0,150.0,2.0,0.0
4587,59.0,240.0,150.0,2.0,0.0
4588,62.0,240.0,150.0,2.0,0.0
4589,90.0,120.0,240.0,6.0,0.0
4590,78.0,120.0,480.0,0.0,0.0
4591,59.0,96.0,150.0,2.0,0.0
4592,74.0,0.0,480.0,1.0,0.0
4593,62.0,96.0,150.0,2.0,0.0
4594,88.0,24.0,120.0,6.0,0.0
4595,86.0,0.0,120.0,6.0,0.0
4596,85.0,24.0,120.0,6.0,0.0
4597,83.0,0.0,480.0,0.0,0.0
4598,78.0,120.0,480.0,1.0,0.0
4599,54.0,96.0,150.0,2.0,0.0
4600,83.0,120.0,120.0,6.0,0.0
4601,81.0,24.0,120.0,6.0,0.0
4602,59.0,96.0,150.0,2.0,0.0
4603,79.0,0.0,120.0,6.0,0.0
4604,86.0,120.0,480.0,0.0,0.0
4605,83.0,0.0,480.0,1.0,0.0
4606,78.0,24.0,120.0,6.0,0.0
4607,50.0,96.0,150.0,2.0,0.0
4608,76.0,120.0,120.0,6.0,0.0
4609,74.0,24.0,120.0,6.0,0.0
4610,54.0,96.0,150.0,2.0,0.0
4611,73.0,0.0,120.0,6.0,0.0
4612,47.0,96.0,150.0,2.0,0.0
4613,71.0,24.0,120.0,6.0,0.0
4614,86.0,0.0,450.0,1.0,0.0
4615,90.0,24.0,450.0,0.0,0.0
4616,69.0,120.0,120.0,6.0,0.0
4617,68.0,24.0,120.0,6.0,0.0
4618,50.0,72.0,150.0,2.0,0.0
4619,66.0,144.0,120.0,6.0,0.0
4620,64.0,0.0,480.0,7.0,0.0
4621,73.0,0.0,480.0,1.0,0.0
4622,76.0,0.0,480.0,1.0,0.0
4623,52.0,0.0,960.0,8.0,0.0
4624,61.0,0.0,480.0,7.0,0.0
4625,52.0,240.0,150.0,2.0,0.0
4626,81.0,120.0,480.0,0.0,0.0
4627,71.0,0.0,480.0,6.0,0.0
4628,50.0,96.0,150.0,2.0,0.0
4629,80.0,0.0,480.0,1.0,0.0
4630,71.0,0.0,480.0,1.0,0.0
4631,62.0,0.0,480.0,7.0,0.0
4632,73.0,0.0,120.0,6.0,0.0
4633,52.0,240.0,150.0,2.0,0.0
4634,85.0,24.0,120.0,0.0,0.0
4635,68.0,240.0,360.0,7.0,0.0
4636,71.0,0.0,360.0,6.0,0.0
4637,83.0,0.0,360.0,0.0,0.0
4638,40.0,96.0,150.0,2.0,0.0
4639,73.0,0.0,390.0,1.0,0.0
4640,45.0,96.0,390.0,2.0,0.0
4641,81.0,0.0,390.0,1.0,0.0
4642,81.0,0.0,390.0,0.0,0.0
4643,69.0,120.0,240.0,6.0,0.0
4644,61.0,0.0,390.0,7.0,0.0
4645,57.0,0.0,390.0,8.0,0.0
4646,71.0,24.0,120.0,6.0,0.0
4647,73.0,120.0,120.0,6.0,0.0
4648,74.0,120.0,120.0,6.0,0.0
4649,76.0,120.0,120.0,6.0,0.0
4650,78.0,120.0,120.0,6.0,0.0
4651,80.0,120.0,120.0,6.0,0.0
4652,81.0,120.0,120.0,6.0,0.0
4653,83.0,120.0,120.0,6.0,0.0
4654,85.0,120.0,120.0,6.0,0.0
4655,86.0,120.0,120.0,6.0,0.0
4656,87.0,120.0,120.0,6.0,0.0
4657,88.0,120.0,120.0,6.0,0.0
4658,90.0,120.0,120.0,6.0,0.0
4659,88.0,120.0,120.0,6.0,0.0
4660,68.0,96.0,150.0,10.0,0.0
4661,80.0,12.0,120.0,6.0,0.0
4662,64.0,0.0,150.0,11.0,0.0
4663,64.0,12.0,120.0,7.0,0.0
4664,76.0,120.0,120.0,7.0,0.0
4665,81.0,12.0,120.0,6.0,0.0
4666,69.0,0.0,150.0,10.0,0.0
4667,66.0,12.0,120.0,7.0,0.0
4668,66.0,96.0,150.0,11.0,0.0
4669,76.0,120.0,120.0,7.0,0.0
4670,68.0,12.0,120.0,7.0,0.0
4671,71.0,0.0,150.0,10.0,0.0
4672,68.0,96.0,150.0,11.0,0.0
4673,83.0,12.0,120.0,6.0,0.0
4674,76.0,120.0,120.0,7.0,0.0
4675,85.0,12.0,120.0,6.0,0.0
4676,69.0,96.0,150.0,11.0,0.0
4677,69.0,12.0,120.0,7.0,0.0
4678,73.0,0.0,150.0,10.0,0.0
4679,76.0,120.0,120.0,7.0,0.0
4680,86.0,12.0,120.0,6.0,0.0
4681,74.0,96.0,150.0,10.0,0.0
4682,71.0,12.0,120.0,7.0,0.0
4683,71.0,0.0,150.0,11.0,0.0
4684,76.0,120.0,120.0,7.0,0.0
4685,88.0,12.0,120.0,6.0,0.0
4686,73.0,0.0,150.0,11.0,0.0
4687,73.0,12.0,120.0,7.0,0.0
4688,76.0,96.0,150.0,10.0,0.0
4689,76.0,120.0,120.0,7.0,0.0
4690,74.0,12.0,120.0,7.0,0.0
4691,90.0,12.0,120.0,6.0,0.0
4692,74.0,96.0,150.0,11.0,0.0
4693,78.0,0.0,150.0,10.0,0.0
4694,76.0,120.0,120.0,7.0,0.0
4695,71.0,12.0,120.0,7.0,0.0
4696,71.0,0.0,150.0,11.0,0.0
4697,80.0,96.0,150.0,10.0,0.0
4698,92.0,12.0,120.0,6.0,0.0
4699,76.0,120.0,120.0,7.0,0.0
4700,73.0,0.0,390.0,7.0,0.0
4701,93.0,120.0,120.0,6.0,0.0
4702,73.0,96.0,390.0,11.0,0.0
4703,81.0,0.0,390.0,10.0,0.0
4704,92.0,120.0,120.0,6.0,0.0
4705,90.0,24.0,120.0,6.0,0.0
4706,88.0,120.0,120.0,6.0,0.0
4707,87.0,120.0,120.0,6.0,0.0
4708,88.0,120.0,120.0,6.0,0.0
4709,90.0,120.0,120.0,6.0,0.0
4710,88.0,120.0,120.0,6.0,0.0
4711,86.0,120.0,120.0,6.0,0.0
4712,85.0,120.0,120.0,6.0,0.0
4713,83.0,120.0,120.0,6.0,0.0
4714,81.0,120.0,120.0,6.0,0.0
4715,80.0,120.0,120.0,6.0,0.0
4716,81.0,120.0,120.0,6.0,0.0
4717,83.0,120.0,120.0,6.0,0.0
4718,81.0,120.0,120.0,6.0,0.0
4719,64.0,0.0,150.0,11.0,0.0
4720,64.0,12.0,120.0,7.0,0.0
4721,68.0,96.0,150.0,10.0,0.0
4722,80.0,12.0,120.0,6.0,0.0
4723,76.0,120.0,120.0,7.0,0.0
4724,66.0,12.0,120.0,7.0,0.0
4725,66.0,0.0,150.0,11.0,0.0
4726,69.0,96.0,150.0,10.0,0.0
4727,81.0,12.0,120.0,6.0,0.0
4728,76.0,120.0,120.0,7.0,0.0
4729,71.0,0.0,150.0,10.0,0.0
4730,83.0,12.0,120.0,6.0,0.0
4731,68.0,12.0,120.0,7.0,0.0
4732,68.0,96.0,150.0,11.0,0.0
4733,76.0,120.0,120.0,7.0,0.0
4734,85.0,12.0,120.0,6.0,0.0
4735,69.0,0.0,150.0,11.0,0.0
4736,69.0,12.0,120.0,7.0,0.0
4737,73.0,96.0,150.0,10.0,0.0
4738,76.0,120.0,120.0,7.0,0.0
4739,74.0,96.0,150.0,10.0,0.0
4740,71.0,0.0,150.0,11.0,0.0
4741,86.0,12.0,120.0,6.0,0.0
4742,71.0,12.0,120.0,7.0,0.0
4743,76.0,120.0,120.0,7.0,0.0
4744,88.0,12.0,120.0,6.0,0.0
4745,76.0,0.0,150.0,10.0,0.0
4746,73.0,96.0,150.0,11.0,0.0
4747,73.0,12.0,120.0,7.0,0.0
4748,76.0,120.0,120.0,7.0,0.0
4749,90.0,12.0,120.0,6.0,0.0
4750,74.0,12.0,120.0,7.0,0.0
4751,78.0,0.0,150.0,10.0,0.0
4752,74.0,96.0,150.0,11.0,0.0
4753,76.0,120.0,120.0,7.0,0.0
4754,92.0,12.0,120.0,6.0,0.0
4755,80.0,0.0,150.0,10.0,0.0
4756,71.0,96.0,150.0,11.0,0.0
4757,71.0,12.0,120.0,7.0,0.0
4758,76.0,120.0,120.0,7.0,0.0
4759,73.0,0.0,390.0,11.0,0.0
4760,93.0,0.0,240.0,6.0,0.0
4761,81.0,96.0,390.0,10.0,0.0
4762,73.0,120.0,120.0,7.0,0.0
4763,76.0,120.0,120.0,7.0,0.0
4764,71.0,24.0,120.0,7.0,0.0
4765,92.0,120.0,240.0,6.0,0.0
4766,74.0,0.0,120.0,7.0,0.0
4767,73.0,24.0,120.0,7.0,0.0
4768,93.0,96.0,150.0,6.0,0.0
4769,76.0,60.0,120.0,7.0,0.0
4770,77.0,0.0,240.0,10.0,0.0
4771,71.0,0.0,240.0,12.0,0.0
4772,68.0,60.0,120.0,7.0,0.0
4773,68.0,0.0,240.0,13.0,0.0
4774,90.0,60.0,60.0,6.0,0.0
4775,74.0,120.0,240.0,11.0,0.0
4776,89.0,0.0,60.0,6.0,0.0
4777,90.0,60.0,60.0,6.0,0.0
4778,71.0,0.0,120.0,7.0,0.0
4779,89.0,0.0,60.0,6.0,0.0
4780,69.0,120.0,120.0,7.0,0.0
4781,69.0,0.0,480.0,13.0,0.0
4782,90.0,0.0,240.0,6.0,0.0
4783,69.0,0.0,480.0,12.0,0.0
4784,73.0,0.0,480.0,11.0,0.0
4785,78.0,120.0,480.0,10.0,0.0
4786,73.0,120.0,120.0,7.0,0.0
4787,89.0,0.0,240.0,6.0,0.0
4788,68.0,120.0,120.0,7.0,0.0
4789,71.0,0.0,120.0,7.0,0.0
4790,90.0,96.0,150.0,6.0,0.0
4791,69.0,24.0,120.0,7.0,0.0
4792,73.0,120.0,120.0,7.0,0.0
4793,65.0,24.0,120.0,7.0,0.0
4794,73.0,0.0,240.0,10.0,0.0
4795,85.0,96.0,150.0,6.0,0.0
4796,65.0,0.0,240.0,12.0,0.0
4797,65.0,0.0,240.0,13.0,0.0
4798,68.0,0.0,240.0,11.0,0.0
4799,68.0,120.0,120.0,7.0,0.0
4800,66.0,0.0,480.0,13.0,0.0
4801,66.0,120.0,480.0,12.0,0.0
4802,69.0,0.0,480.0,11.0,0.0
4803,86.0,120.0,240.0,6.0,0.0
4804,74.0,0.0,480.0,10.0,0.0
4805,66.0,120.0,120.0,7.0,0.0
4806,69.0,0.0,120.0,7.0,0.0
4807,65.0,120.0,120.0,7.0,0.0
4808,85.0,0.0,240.0,6.0,0.0
4809,68.0,0.0,120.0,7.0,0.0
4810,86.0,96.0,150.0,6.0,0.0
4811,66.0,24.0,120.0,7.0,0.0
4812,69.0,60.0,120.0,7.0,0.0
4813,72.0,0.0,240.0,10.0,0.0
4814,63.0,0.0,120.0,7.0,0.0
4815,85.0,60.0,60.0,6.0,0.0
4816,66.0,0.0,240.0,12.0,0.0
4817,63.0,0.0,240.0,13.0,0.0
4818,69.0,0.0,240.0,11.0,0.0
4819,84.0,60.0,60.0,6.0,0.0
4820,85.0,60.0,60.0,6.0,0.0
4821,66.0,0.0,120.0,7.0,0.0
4822,84.0,120.0,60.0,6.0,0.0
4823,64.0,120.0,120.0,7.0,0.0
4824,68.0,120.0,480.0,11.0,0.0
4825,64.0,0.0,480.0,12.0,0.0
4826,85.0,0.0,240.0,6.0,0.0
4827,64.0,0.0,480.0,13.0,0.0
4828,73.0,0.0,480.0,10.0,0.0
4829,68.0,120.0,120.0,7.0,0.0
4830,84.0,0.0,240.0,6.0,0.0
4831,63.0,120.0,120.0,7.0,0.0
4832,66.0,0.0,120.0,7.0,0.0
4833,85.0,96.0,150.0,6.0,0.0
4834,64.0,24.0,120.0,7.0,0.0
4835,68.0,120.0,120.0,7.0,0.0
4836,67.0,0.0,240.0,11.0,0.0
4837,82.0,96.0,150.0,6.0,0.0
4838,61.0,24.0,120.0,7.0,0.0
4839,70.0,0.0,240.0,10.0,0.0
4840,61.0,0.0,240.0,13.0,0.0
4841,64.0,120.0,240.0,12.0,0.0
4842,64.0,0.0,120.0,7.0,0.0
4843,71.0,0.0,390.0,10.0,0.0
4844,62.0,0.0,390.0,13.0,0.0
4845,66.0,96.0,390.0,11.0,0.0
4846,62.0,0.0,390.0,12.0,0.0
4847,62.0,0.0,390.0,7.0,0.0
4848,83.0,120.0,120.0,6.0,0.0
4849,78.0,120.0,120.0,6.0,0.0
4850,79.0,24.0,120.0,6.0,0.0
4851,78.0,120.0,120.0,6.0,0.0
4852,80.0,120.0,120.0,6.0,0.0
4853,78.0,120.0,120.0,6.0,0.0
4854,82.0,120.0,120.0,6.0,0.0
4855,78.0,120.0,120.0,6.0,0.0
4856,83.0,120.0,120.0,6.0,0.0
4857,78.0,120.0,120.0,6.0,0.0
4858,85.0,120.0,120.0,6.0,0.0
4859,78.0,120.0,120.0,6.0,0.0
4860,86.0,120.0,120.0,6.0,0.0
4861,78.0,120.0,120.0,6.0,0.0
4862,88.0,120.0,120.0,6.0,0.0
4863,78.0,120.0,120.0,6.0,0.0
4864,90.0,120.0,120.0,6.0,0.0
4865,66.0,0.0,1920.0,12.0,0.0
4866,38.0,0.0,1920.0,14.0,0.0
4867,50.0,0.0,1920.0,13.0,0.0
4868,71.0,0.0,1920.0,10.0,0.0
4869,69.0,0.0,1920.0,11.0,0.0
4870,92.0,120.0,120.0,6.0,0.0
4871,93.0,120.0,120.0,6.0,0.0
4872,92.0,120.0,120.0,6.0,0.0
4873,90.0,120.0,120.0,6.0,0.0
4874,88.0,120.0,120.0,6.0,0.0
4875,86.0,120.0,120.0,6.0,0.0
4876,85.0,120.0,120.0,6.0,0.0
4877,83.0,120.0,120.0,6.0,0.0
4878,85.0,120.0,120.0,6.0,0.0
4879,86.0,120.0,120.0,6.0,0.0
4880,85.0,120.0,120.0,6.0,0.0
4881,83.0,120.0,120.0,6.0,0.0
4882,81.0,120.0,120.0,6.0,0.0
4883,80.0,120.0,120.0,6.0,0.0
4884,78.0,120.0,120.0,6.0,0.0
4885,52.0,0.0,390.0,7.0,0.0
4886,64.0,96.0,390.0,7.0,0.0
4887,64.0,0.0,390.0,12.0,0.0
4888,73.0,0.0,390.0,10.0,0.0
4889,40.0,0.0,390.0,14.0,0.0
4890,76.0,120.0,120.0,6.0,0.0
4891,52.0,0.0,390.0,13.0,0.0
4892,69.0,0.0,390.0,11.0,0.0
4893,88.0,120.0,120.0,6.0,0.0
4894,75.0,24.0,120.0,6.0,0.0
4895,87.0,120.0,120.0,6.0,0.0
4896,76.0,120.0,120.0,6.0,0.0
4897,88.0,120.0,120.0,6.0,0.0
4898,77.0,120.0,120.0,6.0,0.0
4899,89.0,120.0,120.0,6.0,0.0
4900,78.0,120.0,120.0,6.0,0.0
4901,90.0,120.0,120.0,6.0,0.0
4902,79.0,120.0,120.0,6.0,0.0
4903,91.0,120.0,120.0,6.0,0.0
4904,80.0,120.0,120.0,6.0,0.0
4905,92.0,120.0,120.0,6.0,0.0
4906,81.0,120.0,120.0,6.0,0.0
4907,93.0,60.0,120.0,6.0,0.0
4908,85.0,60.0,60.0,6.0,0.0
4909,64.0,0.0,120.0,7.0,0.0
4910,83.0,60.0,60.0,6.0,0.0
4911,85.0,60.0,60.0,6.0,0.0
4912,74.0,60.0,120.0,7.0,0.0
4913,83.0,0.0,60.0,6.0,0.0
4914,68.0,60.0,120.0,7.0,0.0
4915,85.0,60.0,60.0,6.0,0.0
4916,83.0,0.0,60.0,6.0,0.0
4917,74.0,0.0,120.0,7.0,0.0
4918,85.0,60.0,60.0,6.0,0.0
4919,83.0,60.0,60.0,6.0,0.0
4920,64.0,0.0,120.0,7.0,0.0
4921,85.0,60.0,60.0,6.0,0.0
4922,83.0,60.0,60.0,6.0,0.0
4923,74.0,60.0,120.0,7.0,0.0
4924,85.0,60.0,60.0,6.0,0.0
4925,83.0,0.0,60.0,6.0,0.0
4926,85.0,60.0,60.0,6.0,0.0
4927,68.0,0.0,120.0,7.0,0.0
4928,83.0,60.0,60.0,6.0,0.0
4929,74.0,60.0,120.0,7.0,0.0
4930,85.0,60.0,60.0,6.0,0.0
4931,83.0,0.0,60.0,6.0,0.0
4932,64.0,60.0,120.0,7.0,0.0
4933,85.0,60.0,60.0,6.0,0.0
4934,83.0,0.0,60.0,6.0,0.0
4935,74.0,0.0,120.0,7.0,0.0
4936,85.0,60.0,60.0,6.0,0.0
4937,83.0,60.0,60.0,6.0,0.0
4938,85.0,60.0,60.0,6.0,0.0
4939,68.0,60.0,120.0,7.0,0.0
4940,83.0,0.0,60.0,6.0,0.0
4941,74.0,60.0,120.0,7.0,0.0
4942,85.0,60.0,60.0,6.0,0.0
4943,83.0,0.0,60.0,6.0,0.0
4944,64.0,60.0,120.0,7.0,0.0
4945,85.0,60.0,60.0,6.0,0.0
4946,83.0,0.0,60.0,6.0,0.0
4947,85.0,60.0,60.0,6.0,0.0
4948,74.0,120.0,120.0,7.0,0.0
4949,83.0,0.0,60.0,6.0,0.0
4950,68.0,0.0,120.0,7.0,0.0
4951,81.0,120.0,120.0,6.0,0.0
4952,74.0,0.0,120.0,7.0,0.0
4953,83.0,240.0,120.0,6.0,0.0
4954,69.0,96.0,390.0,7.0,0.0
4955,73.0,0.0,390.0,7.0,0.0
4956,81.0,120.0,120.0,6.0,0.0
4957,80.0,24.0,120.0,6.0,0.0
4958,81.0,120.0,120.0,6.0,0.0
4959,83.0,120.0,120.0,6.0,0.0
4960,81.0,96.0,120.0,6.0,0.0
4961,80.0,96.0,120.0,6.0,0.0
4962,61.0,24.0,90.0,7.0,0.0
4963,69.0,24.0,90.0,7.0,0.0
4964,81.0,96.0,120.0,6.0,0.0
4965,71.0,96.0,120.0,6.0,0.0
4966,62.0,24.0,90.0,7.0,0.0
4967,69.0,24.0,90.0,7.0,0.0
4968,83.0,96.0,120.0,6.0,0.0
4969,61.0,24.0,90.0,7.0,0.0
4970,70.0,96.0,120.0,6.0,0.0
4971,69.0,24.0,90.0,7.0,0.0
4972,82.0,96.0,120.0,6.0,0.0
4973,71.0,96.0,120.0,6.0,0.0
4974,62.0,24.0,90.0,7.0,0.0
4975,69.0,24.0,90.0,7.0,0.0
4976,83.0,96.0,120.0,6.0,0.0
4977,64.0,24.0,90.0,7.0,0.0
4978,73.0,96.0,120.0,6.0,0.0
4979,69.0,24.0,90.0,7.0,0.0
4980,85.0,96.0,120.0,6.0,0.0
4981,74.0,120.0,120.0,6.0,0.0
4982,66.0,24.0,90.0,7.0,0.0
4983,86.0,0.0,120.0,6.0,0.0
4984,69.0,120.0,120.0,7.0,0.0
4985,73.0,0.0,120.0,6.0,0.0
4986,65.0,120.0,120.0,7.0,0.0
4987,85.0,120.0,120.0,6.0,0.0
4988,69.0,0.0,120.0,7.0,0.0
4989,66.0,120.0,120.0,7.0,0.0
4990,74.0,0.0,120.0,6.0,0.0
4991,86.0,0.0,120.0,6.0,0.0
4992,69.0,120.0,120.0,7.0,0.0
4993,72.0,0.0,120.0,6.0,0.0
4994,63.0,120.0,120.0,7.0,0.0
4995,69.0,120.0,120.0,7.0,0.0
4996,84.0,0.0,120.0,6.0,0.0
4997,64.0,0.0,120.0,7.0,0.0
4998,73.0,120.0,120.0,6.0,0.0
4999,85.0,120.0,120.0,6.0,0.0
5000,69.0,0.0,120.0,7.0,0.0
5001,63.0,0.0,120.0,7.0,0.0
5002,72.0,120.0,120.0,6.0,0.0
5003,84.0,0.0,120.0,6.0,0.0
5004,69.0,120.0,120.0,7.0,0.0
5005,73.0,120.0,120.0,6.0,0.0
5006,64.0,0.0,120.0,7.0,0.0
5007,69.0,120.0,120.0,7.0,0.0
5008,85.0,0.0,120.0,6.0,0.0
5009,66.0,0.0,120.0,7.0,0.0
5010,75.0,120.0,120.0,6.0,0.0
5011,69.0,120.0,120.0,7.0,0.0
5012,87.0,0.0,120.0,6.0,0.0
5013,67.0,0.0,120.0,7.0,0.0
5014,76.0,120.0,120.0,6.0,0.0
5015,69.0,120.0,120.0,7.0,0.0
5016,88.0,0.0,120.0,6.0,0.0
5017,75.0,120.0,120.0,6.0,0.0
5018,66.0,0.0,120.0,7.0,0.0
5019,69.0,0.0,120.0,7.0,0.0
5020,87.0,120.0,120.0,6.0,0.0
5021,76.0,120.0,120.0,6.0,0.0
5022,67.0,0.0,120.0,7.0,0.0
5023,88.0,0.0,120.0,6.0,0.0
5024,69.0,120.0,120.0,7.0,0.0
5025,64.0,120.0,120.0,7.0,0.0
5026,73.0,0.0,120.0,6.0,0.0
5027,69.0,120.0,120.0,7.0,0.0
5028,85.0,0.0,120.0,6.0,0.0
5029,66.0,120.0,120.0,7.0,0.0
5030,74.0,0.0,120.0,6.0,0.0
5031,86.0,0.0,120.0,6.0,0.0
5032,69.0,120.0,120.0,7.0,0.0
5033,64.0,0.0,120.0,7.0,0.0
5034,73.0,120.0,120.0,6.0,0.0
5035,69.0,120.0,120.0,7.0,0.0
5036,85.0,0.0,120.0,6.0,0.0
5037,74.0,0.0,120.0,6.0,0.0
5038,66.0,120.0,120.0,7.0,0.0
5039,86.0,120.0,120.0,6.0,0.0
5040,69.0,0.0,120.0,7.0,0.0
5041,76.0,0.0,120.0,6.0,0.0
5042,61.0,120.0,120.0,7.0,0.0
5043,69.0,120.0,120.0,7.0,0.0
5044,88.0,0.0,120.0,6.0,0.0
5045,69.0,0.0,960.0,11.0,0.0
5046,62.0,0.0,960.0,13.0,0.0
5047,78.0,0.0,960.0,10.0,0.0
5048,62.0,120.0,120.0,7.0,0.0
5049,50.0,120.0,960.0,14.0,0.0
5050,62.0,120.0,1920.0,12.0,0.0
5051,66.0,120.0,120.0,7.0,0.0
5052,69.0,120.0,120.0,6.0,0.0
5053,74.0,120.0,120.0,6.0,0.0
5054,78.0,120.0,120.0,6.0,0.0
5055,81.0,120.0,120.0,6.0,0.0
5056,86.0,120.0,120.0,6.0,0.0
5057,90.0,0.0,120.0,6.0,0.0
5058,80.0,20.0,930.0,10.0,0.0
5059,59.0,120.0,120.0,7.0,0.0
5060,59.0,0.0,930.0,13.0,0.0
5061,74.0,0.0,930.0,11.0,0.0
5062,47.0,0.0,930.0,14.0,0.0
5063,68.0,120.0,120.0,7.0,0.0
5064,71.0,120.0,120.0,6.0,0.0
5065,74.0,120.0,120.0,6.0,0.0
5066,80.0,120.0,120.0,6.0,0.0
5067,83.0,120.0,120.0,6.0,0.0
5068,86.0,100.0,120.0,6.0,0.0
5069,92.0,0.0,120.0,6.0,0.0
5070,61.0,120.0,960.0,13.0,0.0
5071,61.0,120.0,120.0,7.0,0.0
5072,64.0,0.0,960.0,12.0,0.0
5073,81.0,0.0,960.0,10.0,0.0
5074,49.0,0.0,960.0,14.0,0.0
5075,73.0,0.0,960.0,11.0,0.0
5076,69.0,120.0,120.0,7.0,0.0
5077,73.0,120.0,120.0,6.0,0.0
5078,76.0,120.0,120.0,6.0,0.0
5079,81.0,120.0,120.0,6.0,0.0
5080,85.0,120.0,120.0,6.0,0.0
5081,88.0,120.0,120.0,6.0,0.0
5082,93.0,0.0,120.0,6.0,0.0
5083,42.0,0.0,930.0,14.0,0.0
5084,75.0,20.0,930.0,10.0,0.0
5085,69.0,0.0,1920.0,11.0,0.0
5086,54.0,0.0,930.0,13.0,0.0
5087,57.0,0.0,930.0,12.0,0.0
5088,54.0,120.0,120.0,7.0,0.0
5089,63.0,120.0,120.0,7.0,0.0
5090,66.0,120.0,120.0,6.0,0.0
5091,69.0,120.0,120.0,6.0,0.0
5092,75.0,120.0,120.0,6.0,0.0
5093,78.0,120.0,120.0,6.0,0.0
5094,81.0,100.0,120.0,6.0,0.0
5095,87.0,240.0,120.0,6.0,0.0
5096,40.0,0.0,1920.0,14.0,0.0
5097,61.0,0.0,960.0,12.0,0.0
5098,52.0,96.0,390.0,7.0,0.0
5099,52.0,120.0,1920.0,13.0,0.0
5100,76.0,0.0,960.0,10.0,0.0
5101,76.0,120.0,120.0,6.0,0.0
5102,88.0,24.0,120.0,6.0,0.0
5103,85.0,120.0,120.0,6.0,0.0
5104,81.0,120.0,120.0,6.0,0.0
5105,76.0,120.0,120.0,6.0,0.0
5106,73.0,120.0,120.0,6.0,0.0
5107,69.0,60.0,120.0,6.0,0.0
5108,59.0,0.0,960.0,12.0,0.0
5109,62.0,0.0,960.0,11.0,0.0
5110,52.0,0.0,120.0,8.0,0.0
5111,68.0,0.0,960.0,10.0,0.0
5112,73.0,60.0,60.0,6.0,0.0
5113,71.0,60.0,60.0,6.0,0.0
5114,62.0,60.0,120.0,8.0,0.0
5115,73.0,60.0,60.0,6.0,0.0
5116,71.0,0.0,60.0,6.0,0.0
5117,73.0,60.0,60.0,6.0,0.0
5118,56.0,60.0,120.0,8.0,0.0
5119,71.0,0.0,60.0,6.0,0.0
5120,73.0,60.0,60.0,6.0,0.0
5121,62.0,0.0,120.0,8.0,0.0
5122,71.0,60.0,60.0,6.0,0.0
5123,52.0,60.0,120.0,8.0,0.0
5124,73.0,60.0,60.0,6.0,0.0
5125,71.0,0.0,60.0,6.0,0.0
5126,62.0,60.0,120.0,8.0,0.0
5127,73.0,60.0,60.0,6.0,0.0
5128,71.0,0.0,60.0,6.0,0.0
5129,73.0,60.0,60.0,6.0,0.0
5130,56.0,0.0,120.0,8.0,0.0
5131,71.0,60.0,60.0,6.0,0.0
5132,62.0,0.0,120.0,8.0,0.0
5133,73.0,60.0,60.0,6.0,0.0
5134,71.0,0.0,60.0,6.0,0.0
5135,69.0,0.0,390.0,10.0,0.0
5136,57.0,0.0,390.0,12.0,0.0
5137,45.0,0.0,390.0,14.0,0.0
5138,57.0,0.0,390.0,13.0,0.0
5139,69.0,120.0,120.0,6.0,0.0
5140,57.0,96.0,390.0,8.0,0.0
5141,61.0,0.0,390.0,8.0,0.0
5142,61.0,0.0,390.0,11.0,0.0
5143,73.0,120.0,120.0,6.0,0.0
5144,76.0,24.0,120.0,6.0,0.0
5145,81.0,120.0,120.0,6.0,0.0
5146,69.0,120.0,120.0,6.0,0.0
5147,81.0,120.0,120.0,6.0,0.0
5148,45.0,120.0,120.0,8.0,0.0
5149,69.0,0.0,120.0,6.0,0.0
5150,81.0,0.0,120.0,6.0,0.0
5151,57.0,120.0,120.0,8.0,0.0
5152,70.0,120.0,120.0,6.0,0.0
5153,46.0,0.0,120.0,8.0,0.0
5154,81.0,120.0,120.0,6.0,0.0
5155,58.0,0.0,120.0,8.0,0.0
5156,45.0,0.0,120.0,8.0,0.0
5157,69.0,120.0,120.0,6.0,0.0
5158,57.0,120.0,120.0,8.0,0.0
5159,81.0,0.0,120.0,6.0,0.0
5160,71.0,120.0,120.0,6.0,0.0
5161,47.0,0.0,120.0,8.0,0.0
5162,59.0,120.0,120.0,8.0,0.0
5163,81.0,0.0,120.0,6.0,0.0
5164,49.0,0.0,120.0,8.0,0.0
5165,73.0,120.0,120.0,6.0,0.0
5166,61.0,120.0,120.0,8.0,0.0
5167,81.0,0.0,120.0,6.0,0.0
5168,74.0,0.0,120.0,6.0,0.0
5169,50.0,120.0,120.0,8.0,0.0
5170,81.0,0.0,120.0,6.0,0.0
5171,62.0,120.0,120.0,8.0,0.0
5172,73.0,0.0,120.0,6.0,0.0
5173,49.0,120.0,120.0,8.0,0.0
5174,81.0,0.0,120.0,6.0,0.0
5175,61.0,120.0,120.0,8.0,0.0
5176,74.0,0.0,120.0,6.0,0.0
5177,50.0,120.0,120.0,8.0,0.0
5178,62.0,0.0,120.0,8.0,0.0
5179,81.0,120.0,120.0,6.0,0.0
5180,71.0,0.0,120.0,6.0,0.0
5181,47.0,120.0,120.0,8.0,0.0
5182,59.0,120.0,120.0,8.0,0.0
5183,81.0,0.0,120.0,6.0,0.0
5184,72.0,120.0,120.0,6.0,0.0
5185,48.0,0.0,120.0,8.0,0.0
5186,60.0,0.0,120.0,8.0,0.0
5187,81.0,120.0,120.0,6.0,0.0
5188,47.0,0.0,120.0,8.0,0.0
5189,71.0,120.0,120.0,6.0,0.0
5190,81.0,120.0,120.0,6.0,0.0
5191,59.0,0.0,120.0,8.0,0.0
5192,49.0,0.0,120.0,8.0,0.0
5193,73.0,120.0,120.0,6.0,0.0
5194,61.0,120.0,120.0,8.0,0.0
5195,81.0,0.0,120.0,6.0,0.0
5196,75.0,120.0,120.0,6.0,0.0
5197,51.0,0.0,120.0,8.0,0.0
5198,63.0,120.0,120.0,8.0,0.0
5199,81.0,0.0,120.0,6.0,0.0
5200,76.0,120.0,120.0,6.0,0.0
5201,52.0,0.0,120.0,8.0,0.0
5202,64.0,120.0,120.0,8.0,0.0
5203,81.0,0.0,120.0,6.0,0.0
5204,51.0,0.0,120.0,8.0,0.0
5205,75.0,120.0,120.0,6.0,0.0
5206,63.0,120.0,120.0,8.0,0.0
5207,81.0,0.0,120.0,6.0,0.0
5208,52.0,0.0,120.0,8.0,0.0
5209,76.0,120.0,120.0,6.0,0.0
5210,64.0,0.0,120.0,8.0,0.0
5211,81.0,120.0,120.0,6.0,0.0
5212,49.0,0.0,120.0,8.0,0.0
5213,73.0,120.0,120.0,6.0,0.0
5214,61.0,0.0,120.0,8.0,0.0
5215,81.0,120.0,120.0,6.0,0.0
5216,74.0,0.0,120.0,6.0,0.0
5217,50.0,120.0,120.0,8.0,0.0
5218,62.0,0.0,120.0,8.0,0.0
5219,81.0,120.0,120.0,6.0,0.0
5220,73.0,120.0,120.0,6.0,0.0
5221,49.0,0.0,120.0,8.0,0.0
5222,61.0,120.0,120.0,8.0,0.0
5223,81.0,0.0,120.0,6.0,0.0
5224,74.0,0.0,120.0,6.0,0.0
5225,50.0,120.0,120.0,8.0,0.0
5226,81.0,0.0,120.0,6.0,0.0
5227,62.0,120.0,120.0,8.0,0.0
5228,76.0,0.0,120.0,6.0,0.0
5229,52.0,120.0,120.0,8.0,0.0
5230,64.0,120.0,120.0,8.0,0.0
5231,81.0,0.0,120.0,6.0,0.0
5232,77.0,120.0,120.0,6.0,0.0
5233,65.0,120.0,480.0,8.0,0.0
5234,53.0,0.0,480.0,8.0,0.0
5235,81.0,120.0,120.0,6.0,0.0
5236,86.0,120.0,120.0,6.0,0.0
5237,81.0,0.0,120.0,6.0,0.0
5238,64.0,96.0,390.0,8.0,0.0
5239,52.0,0.0,390.0,8.0,0.0
5240,76.0,120.0,120.0,6.0,0.0
5241,81.0,120.0,120.0,6.0,0.0
5242,85.0,24.0,120.0,6.0,0.0
5243,81.0,120.0,120.0,6.0,0.0
5244,62.0,48.0,180.0,8.0,0.0
5245,89.0,72.0,120.0,6.0,0.0
5246,81.0,120.0,120.0,6.0,0.0
5247,89.0,120.0,120.0,6.0,0.0
5248,81.0,120.0,120.0,6.0,0.0
5249,88.0,72.0,120.0,6.0,0.0
5250,61.0,48.0,180.0,8.0,0.0
5251,81.0,120.0,120.0,6.0,0.0
5252,88.0,120.0,120.0,6.0,0.0
5253,81.0,120.0,120.0,6.0,0.0
5254,77.0,120.0,120.0,6.0,0.0
5255,65.0,120.0,480.0,8.0,0.0
5256,53.0,0.0,480.0,8.0,0.0
5257,81.0,120.0,120.0,6.0,0.0
5258,86.0,120.0,120.0,6.0,0.0
5259,81.0,0.0,120.0,6.0,0.0
5260,76.0,120.0,120.0,6.0,0.0
5261,52.0,96.0,390.0,8.0,0.0
5262,64.0,0.0,390.0,8.0,0.0
5263,81.0,120.0,120.0,6.0,0.0
5264,85.0,24.0,120.0,6.0,0.0
5265,81.0,120.0,120.0,6.0,0.0
5266,62.0,48.0,180.0,8.0,0.0
5267,89.0,72.0,120.0,6.0,0.0
5268,81.0,120.0,120.0,6.0,0.0
5269,89.0,120.0,120.0,6.0,0.0
5270,81.0,120.0,120.0,6.0,0.0
5271,61.0,48.0,180.0,8.0,0.0
5272,88.0,72.0,120.0,6.0,0.0
5273,81.0,120.0,120.0,6.0,0.0
5274,88.0,120.0,120.0,6.0,0.0
5275,81.0,120.0,120.0,6.0,0.0
5276,77.0,120.0,120.0,6.0,0.0
5277,65.0,0.0,480.0,8.0,0.0
5278,53.0,0.0,480.0,8.0,0.0
5279,81.0,120.0,120.0,6.0,0.0
5280,86.0,120.0,120.0,6.0,0.0
5281,81.0,120.0,120.0,6.0,0.0
5282,64.0,0.0,390.0,8.0,0.0
5283,76.0,120.0,120.0,6.0,0.0
5284,52.0,96.0,390.0,8.0,0.0
5285,81.0,120.0,120.0,6.0,0.0
5286,85.0,24.0,120.0,6.0,0.0
5287,81.0,120.0,120.0,6.0,0.0
5288,62.0,48.0,180.0,8.0,0.0
5289,89.0,72.0,120.0,6.0,0.0
5290,81.0,120.0,120.0,6.0,0.0
5291,89.0,120.0,120.0,6.0,0.0
5292,81.0,120.0,120.0,6.0,0.0
5293,88.0,72.0,120.0,6.0,0.0
5294,61.0,48.0,180.0,8.0,0.0
5295,81.0,120.0,120.0,6.0,0.0
5296,88.0,120.0,120.0,6.0,0.0
5297,81.0,118.0,120.0,6.0,0.0
5298,62.0,0.0,1920.0,12.0,0.0
5299,77.0,120.0,120.0,6.0,0.0
5300,77.0,118.0,960.0,10.0,0.0
5301,62.0,0.0,2880.0,8.0,0.0
5302,50.0,0.0,2880.0,8.0,0.0
5303,50.0,0.0,2880.0,13.0,0.0
5304,38.0,0.0,2880.0,14.0,0.0
5305,69.0,96.0,1920.0,11.0,0.0
5306,81.0,120.0,120.0,6.0,0.0
5307,89.0,120.0,120.0,6.0,0.0
5308,81.0,120.0,120.0,6.0,0.0
5309,89.0,120.0,120.0,6.0,0.0
5310,81.0,120.0,120.0,6.0,0.0
5311,89.0,120.0,120.0,6.0,0.0
5312,81.0,2.0,120.0,6.0,0.0
5313,78.0,120.0,120.0,6.0,0.0
5314,78.0,18.0,930.0,10.0,0.0
5315,81.0,120.0,120.0,6.0,0.0
5316,90.0,120.0,120.0,6.0,0.0
5317,81.0,120.0,120.0,6.0,0.0
5318,90.0,120.0,120.0,6.0,0.0
5319,81.0,120.0,120.0,6.0,0.0
5320,90.0,102.0,120.0,6.0,0.0
5321,81.0,2.0,120.0,6.0,0.0
5322,71.0,96.0,960.0,11.0,0.0
5323,80.0,120.0,90.0,6.0,0.0
5324,65.0,0.0,960.0,12.0,0.0
5325,80.0,0.0,960.0,10.0,0.0
5326,83.0,120.0,90.0,6.0,0.0
5327,92.0,120.0,90.0,6.0,0.0
5328,83.0,120.0,90.0,6.0,0.0
5329,92.0,120.0,90.0,6.0,0.0
5330,83.0,120.0,90.0,6.0,0.0
5331,92.0,120.0,90.0,6.0,0.0
5332,83.0,24.0,90.0,6.0,0.0
5333,63.0,96.0,960.0,8.0,0.0
5334,81.0,20.0,930.0,10.0,0.0
5335,51.0,0.0,960.0,8.0,0.0
5336,51.0,0.0,930.0,13.0,0.0
5337,81.0,120.0,90.0,6.0,0.0
5338,72.0,0.0,930.0,11.0,0.0
5339,39.0,0.0,930.0,14.0,0.0
5340,66.0,0.0,930.0,12.0,0.0
5341,84.0,120.0,90.0,6.0,0.0
5342,93.0,120.0,90.0,6.0,0.0
5343,84.0,120.0,90.0,6.0,0.0
5344,93.0,120.0,90.0,6.0,0.0
5345,84.0,120.0,90.0,6.0,0.0
5346,93.0,120.0,90.0,6.0,0.0
5347,84.0,4.0,90.0,6.0,0.0
5348,64.0,0.0,390.0,11.0,0.0
5349,64.0,0.0,420.0,8.0,0.0
5350,52.0,36.0,420.0,8.0,0.0
5351,52.0,48.0,390.0,12.0,0.0
5352,64.0,24.0,4140.0,2.0,0.0
5353,85.0,132.0,90.0,6.0,0.0
5354,81.0,0.0,4140.0,1.0,0.0
5355,76.0,24.0,4620.0,1.0,0.0
5356,85.0,0.0,4140.0,0.0,0.0
5357,40.0,0.0,390.0,14.0,0.0
5358,52.0,0.0,390.0,13.0,0.0
5359,64.0,0.0,390.0,10.0,0.0
5360,93.0,120.0,120.0,6.0,0.0
5361,88.0,36.0,120.0,6.0,0.0
5362,85.0,120.0,120.0,6.0,0.0
5363,81.0,120.0,120.0,6.0,0.0
5364,88.0,120.0,120.0,6.0,0.0
5365,85.0,120.0,120.0,6.0,0.0
5366,81.0,120.0,120.0,6.0,0.0
5367,76.0,120.0,120.0,6.0,0.0
5368,85.0,120.0,120.0,6.0,0.0
5369,81.0,120.0,120.0,6.0,0.0
5370,76.0,120.0,120.0,6.0,0.0
5371,73.0,120.0,120.0,6.0,0.0
5372,81.0,120.0,120.0,6.0,0.0
5373,76.0,120.0,120.0,6.0,0.0
5374,73.0,120.0,120.0,6.0,0.0
5375,69.0,120.0,120.0,6.0,0.0
5376,76.0,120.0,120.0,6.0,0.0
5377,73.0,120.0,120.0,6.0,0.0
5378,69.0,120.0,120.0,6.0,0.0
5379,64.0,120.0,120.0,6.0,0.0
5380,52.0,0.0,120.0,8.0,0.0
5381,73.0,0.0,120.0,6.0,0.0
5382,61.0,120.0,120.0,8.0,0.0
5383,69.0,120.0,120.0,6.0,0.0
5384,57.0,0.0,120.0,8.0,0.0
5385,64.0,120.0,120.0,6.0,0.0
5386,52.0,0.0,120.0,8.0,0.0
5387,49.0,0.0,120.0,8.0,0.0
5388,61.0,120.0,120.0,6.0,0.0
5389,69.0,0.0,120.0,6.0,0.0
5390,57.0,120.0,120.0,8.0,0.0
5391,64.0,0.0,120.0,6.0,0.0
5392,52.0,120.0,120.0,8.0,0.0
5393,49.0,0.0,120.0,8.0,0.0
5394,61.0,120.0,120.0,6.0,0.0
5395,45.0,0.0,120.0,8.0,0.0
5396,57.0,120.0,120.0,6.0,0.0
5397,52.0,0.0,120.0,8.0,0.0
5398,64.0,120.0,120.0,6.0,0.0
5399,49.0,120.0,120.0,8.0,0.0
5400,61.0,0.0,120.0,6.0,0.0
5401,45.0,204.0,120.0,8.0,0.0
5402,57.0,0.0,120.0,6.0,0.0
5403,40.0,0.0,180.0,8.0,0.0
5404,52.0,120.0,180.0,7.0,0.0
5405,54.0,120.0,90.0,7.0,0.0
5406,42.0,0.0,90.0,8.0,0.0
5407,56.0,120.0,90.0,7.0,0.0
5408,44.0,0.0,90.0,8.0,0.0
5409,88.0,0.0,300.0,0.0,0.0
5410,45.0,0.0,90.0,8.0,0.0
5411,57.0,120.0,90.0,7.0,0.0
5412,88.0,0.0,300.0,1.0,0.0
5413,59.0,96.0,90.0,7.0,0.0
5414,47.0,0.0,90.0,8.0,0.0
5415,61.0,0.0,90.0,7.0,0.0
5416,49.0,120.0,90.0,8.0,0.0
5417,62.0,120.0,90.0,7.0,0.0
5418,50.0,0.0,90.0,8.0,0.0
5419,52.0,120.0,90.0,8.0,0.0
5420,85.0,0.0,300.0,0.0,0.0
5421,64.0,0.0,90.0,7.0,0.0
5422,73.0,0.0,300.0,1.0,0.0
5423,85.0,24.0,300.0,1.0,0.0
5424,45.0,0.0,90.0,8.0,0.0
5425,57.0,96.0,90.0,7.0,0.0
5426,47.0,0.0,90.0,8.0,0.0
5427,59.0,120.0,90.0,7.0,0.0
5428,49.0,120.0,90.0,8.0,0.0
5429,61.0,0.0,90.0,7.0,0.0
5430,62.0,0.0,90.0,7.0,0.0
5431,81.0,24.0,300.0,0.0,0.0
5432,81.0,0.0,300.0,1.0,0.0
5433,50.0,120.0,90.0,8.0,0.0
5434,69.0,0.0,300.0,1.0,0.0
5435,64.0,0.0,90.0,7.0,0.0
5436,52.0,96.0,90.0,8.0,0.0
5437,54.0,0.0,90.0,8.0,0.0
5438,66.0,120.0,90.0,7.0,0.0
5439,56.0,120.0,90.0,8.0,0.0
5440,68.0,0.0,90.0,7.0,0.0
5441,69.0,120.0,90.0,6.0,0.0
5442,64.0,0.0,870.0,2.0,0.0
5443,76.0,24.0,300.0,0.0,0.0
5444,57.0,0.0,90.0,7.0,0.0
5445,76.0,72.0,870.0,1.0,0.0
5446,52.0,96.0,90.0,7.0,0.0
5447,64.0,0.0,90.0,6.0,0.0
5448,66.0,0.0,90.0,6.0,0.0
5449,54.0,120.0,90.0,7.0,0.0
5450,68.0,120.0,90.0,6.0,0.0
5451,56.0,0.0,90.0,7.0,0.0
5452,69.0,0.0,90.0,6.0,0.0
5453,57.0,120.0,90.0,7.0,0.0
5454,59.0,0.0,90.0,7.0,0.0
5455,71.0,120.0,90.0,6.0,0.0
5456,61.0,48.0,90.0,7.0,0.0
5457,73.0,0.0,90.0,6.0,0.0
5458,74.0,120.0,90.0,6.0,0.0
5459,62.0,0.0,90.0,7.0,0.0
5460,61.0,24.0,300.0,2.0,0.0
5461,76.0,0.0,90.0,6.0,0.0
5462,64.0,120.0,90.0,7.0,0.0
5463,73.0,0.0,300.0,1.0,0.0
5464,57.0,0.0,90.0,7.0,0.0
5465,69.0,96.0,90.0,6.0,0.0
5466,71.0,0.0,90.0,6.0,0.0
5467,59.0,120.0,90.0,7.0,0.0
5468,73.0,0.0,90.0,6.0,0.0
5469,61.0,120.0,90.0,7.0,0.0
5470,74.0,120.0,90.0,6.0,0.0
5471,69.0,24.0,300.0,1.0,0.0
5472,62.0,0.0,90.0,7.0,0.0
5473,57.0,0.0,300.0,2.0,0.0
5474,64.0,0.0,90.0,7.0,0.0
5475,76.0,96.0,90.0,6.0,0.0
5476,78.0,0.0,90.0,6.0,0.0
5477,66.0,120.0,90.0,7.0,0.0
5478,68.0,0.0,90.0,7.0,0.0
5479,80.0,120.0,90.0,6.0,0.0
5480,64.0,72.0,390.0,1.0,0.0
5481,81.0,120.0,90.0,6.0,0.0
5482,69.0,0.0,90.0,7.0,0.0
5483,64.0,72.0,870.0,2.0,0.0
5484,52.0,0.0,870.0,2.0,0.0
5485,64.0,0.0,90.0,7.0,0.0
5486,76.0,120.0,90.0,6.0,0.0
5487,78.0,48.0,90.0,6.0,0.0
5488,66.0,0.0,90.0,7.0,0.0
5489,68.0,0.0,90.0,7.0,0.0
5490,80.0,120.0,90.0,6.0,0.0
5491,69.0,0.0,90.0,7.0,0.0
5492,81.0,120.0,90.0,6.0,0.0
5493,71.0,0.0,90.0,7.0,0.0
5494,83.0,120.0,90.0,6.0,0.0
5495,85.0,48.0,90.0,6.0,0.0
5496,73.0,0.0,90.0,7.0,0.0
5497,86.0,120.0,90.0,6.0,0.0
5498,74.0,0.0,90.0,7.0,0.0
5499,76.0,0.0,90.0,7.0,0.0
5500,88.0,120.0,90.0,6.0,0.0
5501,61.0,0.0,300.0,2.0,0.0
5502,49.0,24.0,300.0,2.0,0.0
5503,85.0,96.0,90.0,6.0,0.0
5504,73.0,0.0,90.0,7.0,0.0
5505,69.0,120.0,90.0,7.0,0.0
5506,81.0,0.0,90.0,6.0,0.0
5507,85.0,0.0,90.0,6.0,0.0
5508,73.0,120.0,90.0,7.0,0.0
5509,45.0,24.0,300.0,2.0,0.0
5510,57.0,0.0,300.0,2.0,0.0
5511,76.0,120.0,90.0,7.0,0.0
5512,88.0,0.0,90.0,6.0,0.0
5513,85.0,0.0,90.0,6.0,0.0
5514,73.0,96.0,90.0,7.0,0.0
5515,69.0,0.0,90.0,7.0,0.0
5516,81.0,120.0,90.0,6.0,0.0
5517,85.0,0.0,90.0,6.0,0.0
5518,73.0,120.0,90.0,7.0,0.0
5519,88.0,120.0,90.0,6.0,0.0
5520,85.0,0.0,1830.0,0.0,0.0
5521,76.0,72.0,1830.0,1.0,0.0
5522,81.0,0.0,1830.0,1.0,0.0
5523,76.0,0.0,390.0,7.0,0.0
5524,40.0,72.0,390.0,2.0,0.0
5525,52.0,0.0,390.0,2.0,0.0
5526,81.0,120.0,90.0,6.0,0.0
5527,87.0,48.0,90.0,6.0,0.0
5528,81.0,120.0,90.0,6.0,0.0
5529,88.0,120.0,90.0,6.0,0.0
5530,81.0,120.0,90.0,6.0,0.0
5531,89.0,120.0,90.0,6.0,0.0
5532,81.0,120.0,90.0,6.0,0.0
5533,90.0,120.0,90.0,6.0,0.0
5534,81.0,120.0,90.0,6.0,0.0
5535,91.0,120.0,90.0,6.0,0.0
5536,81.0,120.0,90.0,6.0,0.0
5537,92.0,120.0,90.0,6.0,0.0
5538,81.0,120.0,90.0,6.0,0.0
5539,93.0,48.0,90.0,6.0,0.0
5540,81.0,84.0,90.0,6.0,0.0
5541,52.0,0.0,1830.0,2.0,0.0
5542,64.0,24.0,90.0,7.0,0.0
5543,85.0,36.0,60.0,6.0,0.0
5544,83.0,0.0,1830.0,0.0,0.0
5545,64.0,0.0,1830.0,2.0,0.0
5546,80.0,16.0,1830.0,1.0,0.0
5547,74.0,0.0,1830.0,1.0,0.0
5548,83.0,60.0,60.0,6.0,0.0
5549,74.0,24.0,90.0,7.0,0.0
5550,85.0,36.0,60.0,6.0,0.0
5551,83.0,60.0,60.0,6.0,0.0
5552,85.0,36.0,60.0,6.0,0.0
5553,68.0,24.0,90.0,7.0,0.0
5554,83.0,60.0,60.0,6.0,0.0
5555,85.0,36.0,60.0,6.0,0.0
5556,74.0,24.0,90.0,7.0,0.0
5557,83.0,60.0,60.0,6.0,0.0
5558,64.0,24.0,90.0,7.0,0.0
5559,85.0,36.0,60.0,6.0,0.0
5560,83.0,60.0,60.0,6.0,0.0
5561,85.0,36.0,60.0,6.0,0.0
5562,74.0,24.0,90.0,7.0,0.0
5563,83.0,60.0,60.0,6.0,0.0
5564,85.0,36.0,60.0,6.0,0.0
5565,68.0,24.0,90.0,7.0,0.0
5566,83.0,60.0,60.0,6.0,0.0
5567,85.0,36.0,60.0,6.0,0.0
5568,74.0,24.0,90.0,7.0,0.0
5569,83.0,60.0,60.0,6.0,0.0
5570,85.0,36.0,60.0,6.0,0.0
5571,64.0,24.0,90.0,7.0,0.0
5572,83.0,60.0,60.0,6.0,0.0
5573,85.0,36.0,60.0,6.0,0.0
5574,74.0,24.0,90.0,7.0,0.0
5575,83.0,60.0,60.0,6.0,0.0
5576,85.0,36.0,60.0,6.0,0.0
5577,68.0,24.0,90.0,7.0,0.0
5578,83.0,60.0,60.0,6.0,0.0
5579,85.0,36.0,60.0,6.0,0.0
5580,74.0,24.0,90.0,7.0,0.0
5581,83.0,60.0,60.0,6.0,0.0
5582,85.0,36.0,60.0,6.0,0.0
5583,64.0,24.0,90.0,7.0,0.0
5584,83.0,60.0,60.0,6.0,0.0
5585,85.0,36.0,60.0,6.0,0.0
5586,74.0,24.0,90.0,7.0,0.0
5587,83.0,80.0,60.0,6.0,0.0
5588,40.0,16.0,90.0,14.0,0.0
5589,68.0,24.0,90.0,7.0,0.0
5590,52.0,0.0,90.0,13.0,0.0
5591,81.0,24.0,120.0,6.0,0.0
5592,42.0,0.0,90.0,14.0,0.0
5593,54.0,56.0,90.0,13.0,0.0
5594,83.0,0.0,120.0,6.0,0.0
5595,74.0,24.0,90.0,7.0,0.0
5596,44.0,96.0,90.0,14.0,0.0
5597,56.0,0.0,90.0,13.0,0.0
5598,81.0,0.0,1830.0,0.0,0.0
5599,57.0,0.0,780.0,13.0,0.0
5600,57.0,36.0,5670.0,2.0,0.0
5601,45.0,0.0,5670.0,2.0,0.0
5602,69.0,24.0,900.0,3.0,0.0
5603,61.0,0.0,900.0,3.0,0.0
5604,81.0,72.0,390.0,6.0,0.0
5605,69.0,0.0,390.0,7.0,0.0
5606,64.0,0.0,90.0,11.0,0.0
5607,73.0,0.0,390.0,7.0,0.0
5608,73.0,0.0,1830.0,1.0,0.0
5609,81.0,16.0,1830.0,1.0,0.0
5610,45.0,32.0,780.0,14.0,0.0
5611,61.0,120.0,90.0,12.0,0.0
5612,64.0,120.0,90.0,11.0,0.0
5613,61.0,0.0,90.0,12.0,0.0
5614,64.0,0.0,90.0,11.0,0.0
5615,61.0,48.0,90.0,12.0,0.0
5616,61.0,120.0,90.0,12.0,0.0
5617,64.0,0.0,90.0,11.0,0.0
5618,64.0,0.0,90.0,11.0,0.0
5619,61.0,120.0,90.0,12.0,0.0
5620,61.0,0.0,90.0,12.0,0.0
5621,64.0,72.0,90.0,11.0,0.0
5622,64.0,16.0,90.0,10.0,0.0
5623,61.0,64.0,90.0,12.0,0.0
5624,64.0,0.0,90.0,11.0,0.0
5625,66.0,32.0,90.0,10.0,0.0
5626,64.0,0.0,90.0,11.0,0.0
5627,61.0,24.0,90.0,12.0,0.0
5628,68.0,96.0,90.0,10.0,0.0
5629,64.0,120.0,90.0,11.0,0.0
5630,61.0,0.0,90.0,12.0,0.0
5631,69.0,48.0,420.0,10.0,0.0
5632,61.0,0.0,90.0,12.0,0.0
5633,64.0,120.0,90.0,11.0,0.0
5634,64.0,0.0,90.0,11.0,0.0
5635,61.0,72.0,90.0,12.0,0.0
5636,64.0,120.0,90.0,11.0,0.0
5637,61.0,0.0,90.0,12.0,0.0
5638,64.0,0.0,90.0,11.0,0.0
5639,61.0,120.0,90.0,12.0,0.0
5640,64.0,104.0,90.0,11.0,0.0
5641,61.0,0.0,90.0,12.0,0.0
5642,61.0,0.0,90.0,12.0,0.0
5643,64.0,48.0,90.0,11.0,0.0
5644,52.0,16.0,90.0,14.0,0.0
5645,64.0,0.0,90.0,13.0,0.0
5646,66.0,0.0,90.0,13.0,0.0
5647,54.0,56.0,90.0,14.0,0.0
5648,61.0,24.0,90.0,12.0,0.0
5649,64.0,0.0,90.0,11.0,0.0
5650,68.0,0.0,90.0,13.0,0.0
5651,56.0,96.0,90.0,14.0,0.0
5652,85.0,0.0,1830.0,1.0,0.0
5653,69.0,32.0,780.0,13.0,0.0
5654,61.0,0.0,90.0,12.0,0.0
5655,69.0,24.0,900.0,3.0,0.0
5656,81.0,0.0,1830.0,1.0,0.0
5657,61.0,0.0,900.0,3.0,0.0
5658,64.0,120.0,90.0,11.0,0.0
5659,57.0,0.0,780.0,14.0,0.0
5660,88.0,16.0,1830.0,0.0,0.0
5661,61.0,0.0,90.0,12.0,0.0
5662,64.0,120.0,90.0,11.0,0.0
5663,61.0,120.0,90.0,12.0,0.0
5664,64.0,0.0,90.0,11.0,0.0
5665,64.0,120.0,90.0,11.0,0.0
5666,61.0,0.0,90.0,12.0,0.0
5667,64.0,0.0,90.0,11.0,0.0
5668,61.0,120.0,90.0,12.0,0.0
5669,61.0,72.0,90.0,12.0,0.0
5670,64.0,0.0,90.0,11.0,0.0
5671,64.0,64.0,90.0,11.0,0.0
5672,61.0,0.0,90.0,12.0,0.0
5673,76.0,16.0,90.0,10.0,0.0
5674,78.0,32.0,90.0,10.0,0.0
5675,61.0,0.0,90.0,12.0,0.0
5676,64.0,24.0,90.0,11.0,0.0
5677,80.0,96.0,90.0,10.0,0.0
5678,61.0,120.0,90.0,12.0,0.0
5679,81.0,48.0,420.0,10.0,0.0
5680,64.0,0.0,90.0,11.0,0.0
5681,61.0,0.0,90.0,12.0,0.0
5682,64.0,120.0,90.0,11.0,0.0
5683,61.0,0.0,90.0,12.0,0.0
5684,64.0,72.0,90.0,11.0,0.0
5685,61.0,120.0,90.0,12.0,0.0
5686,64.0,0.0,90.0,11.0,0.0
5687,64.0,120.0,90.0,11.0,0.0
5688,61.0,0.0,90.0,12.0,0.0
5689,61.0,0.0,90.0,12.0,0.0
5690,64.0,104.0,90.0,11.0,0.0
5691,88.0,16.0,90.0,10.0,0.0
5692,64.0,0.0,90.0,11.0,0.0
5693,61.0,48.0,90.0,12.0,0.0
5694,90.0,56.0,90.0,10.0,0.0
5695,61.0,24.0,90.0,12.0,0.0
5696,64.0,0.0,90.0,11.0,0.0
5697,92.0,96.0,90.0,10.0,0.0
5698,64.0,120.0,90.0,11.0,0.0
5699,88.0,0.0,270.0,1.0,0.0
5700,85.0,0.0,270.0,1.0,0.0
5701,93.0,48.0,300.0,10.0,0.0
5702,61.0,0.0,90.0,12.0,0.0
5703,93.0,24.0,270.0,0.0,0.0
5704,61.0,48.0,90.0,12.0,0.0
5705,64.0,0.0,90.0,11.0,0.0
5706,64.0,0.0,90.0,11.0,0.0
5707,61.0,120.0,90.0,12.0,0.0
5708,61.0,0.0,90.0,12.0,0.0
5709,64.0,120.0,90.0,11.0,0.0
5710,64.0,120.0,90.0,11.0,0.0
5711,61.0,0.0,90.0,12.0,0.0
5712,88.0,24.0,270.0,1.0,0.0
5713,88.0,0.0,270.0,0.0,0.0
5714,76.0,48.0,300.0,10.0,0.0
5715,76.0,0.0,270.0,1.0,0.0
5716,61.0,0.0,90.0,12.0,0.0
5717,64.0,48.0,90.0,11.0,0.0
5718,61.0,0.0,90.0,12.0,0.0
5719,64.0,120.0,90.0,11.0,0.0
5720,64.0,0.0,90.0,11.0,0.0
5721,61.0,120.0,90.0,12.0,0.0
5722,73.0,48.0,300.0,10.0,0.0
5723,85.0,24.0,270.0,0.0,0.0
5724,64.0,0.0,90.0,11.0,0.0
5725,61.0,120.0,90.0,12.0,0.0
5726,85.0,0.0,270.0,1.0,0.0
5727,73.0,0.0,270.0,1.0,0.0
5728,61.0,0.0,90.0,12.0,0.0
5729,64.0,48.0,90.0,11.0,0.0
5730,64.0,0.0,90.0,11.0,0.0
5731,61.0,120.0,90.0,12.0,0.0
5732,64.0,120.0,90.0,11.0,0.0
5733,61.0,0.0,90.0,12.0,0.0
5734,69.0,24.0,270.0,1.0,0.0
5735,61.0,120.0,90.0,12.0,0.0
5736,81.0,0.0,270.0,0.0,0.0
5737,64.0,0.0,90.0,11.0,0.0
5738,81.0,0.0,270.0,1.0,0.0
5739,69.0,12.0,300.0,10.0,0.0
5740,64.0,48.0,90.0,11.0,0.0
5741,61.0,0.0,90.0,12.0,0.0
5742,64.0,24.0,90.0,11.0,0.0
5743,52.0,36.0,60.0,14.0,0.0
5744,64.0,0.0,60.0,13.0,0.0
5745,61.0,0.0,90.0,12.0,0.0
5746,66.0,0.0,60.0,13.0,0.0
5747,54.0,24.0,60.0,14.0,0.0
5748,68.0,36.0,60.0,13.0,0.0
5749,61.0,24.0,90.0,12.0,0.0
5750,64.0,0.0,90.0,11.0,0.0
5751,56.0,0.0,60.0,14.0,0.0
5752,57.0,0.0,60.0,14.0,0.0
5753,69.0,96.0,60.0,13.0,0.0
5754,68.0,0.0,780.0,1.0,0.0
5755,59.0,24.0,300.0,14.0,0.0
5756,68.0,0.0,780.0,10.0,0.0
5757,71.0,0.0,300.0,13.0,0.0
5758,80.0,24.0,780.0,1.0,0.0
5759,80.0,0.0,780.0,0.0,0.0
5760,59.0,0.0,1830.0,2.0,0.0
5761,47.0,36.0,1830.0,2.0,0.0
5762,59.0,0.0,90.0,12.0,0.0
5763,62.0,120.0,90.0,11.0,0.0
5764,59.0,0.0,90.0,12.0,0.0
5765,62.0,96.0,90.0,11.0,0.0
5766,59.0,0.0,90.0,12.0,0.0
5767,62.0,120.0,90.0,11.0,0.0
5768,62.0,120.0,90.0,11.0,0.0
5769,59.0,0.0,90.0,12.0,0.0
5770,62.0,0.0,90.0,11.0,0.0
5771,68.0,0.0,300.0,13.0,0.0
5772,56.0,24.0,300.0,14.0,0.0
5773,59.0,120.0,90.0,12.0,0.0
5774,59.0,0.0,90.0,12.0,0.0
5775,62.0,72.0,90.0,11.0,0.0
5776,59.0,120.0,90.0,12.0,0.0
5777,62.0,0.0,90.0,11.0,0.0
5778,62.0,120.0,90.0,11.0,0.0
5779,59.0,0.0,90.0,12.0,0.0
5780,62.0,0.0,90.0,11.0,0.0
5781,62.0,24.0,300.0,13.0,0.0
5782,50.0,0.0,300.0,14.0,0.0
5783,59.0,120.0,90.0,12.0,0.0
5784,59.0,0.0,90.0,12.0,0.0
5785,62.0,96.0,90.0,11.0,0.0
5786,59.0,0.0,90.0,12.0,0.0
5787,62.0,120.0,90.0,11.0,0.0
5788,62.0,120.0,90.0,11.0,0.0
5789,59.0,0.0,90.0,12.0,0.0
5790,47.0,0.0,300.0,14.0,0.0
5791,62.0,0.0,90.0,11.0,0.0
5792,59.0,24.0,300.0,13.0,0.0
5793,59.0,120.0,90.0,12.0,0.0
5794,59.0,84.0,90.0,12.0,0.0
5795,62.0,0.0,90.0,11.0,0.0
5796,62.0,24.0,90.0,11.0,0.0
5797,83.0,12.0,60.0,10.0,0.0
5798,59.0,0.0,90.0,12.0,0.0
5799,85.0,24.0,60.0,10.0,0.0
5800,59.0,0.0,90.0,12.0,0.0
5801,62.0,24.0,90.0,11.0,0.0
5802,86.0,36.0,60.0,10.0,0.0
5803,88.0,96.0,60.0,10.0,0.0
5804,45.0,48.0,780.0,14.0,0.0
5805,57.0,0.0,780.0,13.0,0.0
5806,69.0,0.0,900.0,3.0,0.0
5807,61.0,120.0,90.0,12.0,0.0
5808,66.0,0.0,90.0,11.0,0.0
5809,57.0,0.0,1830.0,2.0,0.0
5810,45.0,16.0,1830.0,2.0,0.0
5811,90.0,48.0,300.0,10.0,0.0
5812,90.0,0.0,270.0,0.0,0.0
5813,78.0,24.0,270.0,1.0,0.0
5814,61.0,24.0,900.0,3.0,0.0
5815,66.0,0.0,90.0,11.0,0.0
5816,61.0,48.0,90.0,12.0,0.0
5817,66.0,0.0,90.0,11.0,0.0
5818,61.0,120.0,90.0,12.0,0.0
5819,66.0,120.0,90.0,11.0,0.0
5820,61.0,0.0,90.0,12.0,0.0
5821,66.0,0.0,90.0,11.0,0.0
5822,85.0,24.0,270.0,1.0,0.0
5823,73.0,0.0,270.0,1.0,0.0
5824,73.0,0.0,300.0,10.0,0.0
5825,85.0,0.0,270.0,0.0,0.0
5826,61.0,120.0,90.0,12.0,0.0
5827,61.0,48.0,90.0,12.0,0.0
5828,66.0,0.0,90.0,11.0,0.0
5829,66.0,0.0,90.0,11.0,0.0
5830,61.0,96.0,90.0,12.0,0.0
5831,66.0,120.0,90.0,11.0,0.0
5832,61.0,0.0,90.0,12.0,0.0
5833,81.0,0.0,270.0,1.0,0.0
5834,69.0,0.0,270.0,1.0,0.0
5835,93.0,24.0,270.0,0.0,0.0
5836,69.0,0.0,300.0,3.0,0.0
5837,66.0,120.0,90.0,11.0,0.0
5838,61.0,0.0,90.0,12.0,0.0
5839,61.0,0.0,300.0,3.0,0.0
5840,69.0,48.0,300.0,10.0,0.0
5841,61.0,0.0,90.0,12.0,0.0
5842,66.0,48.0,90.0,11.0,0.0
5843,61.0,0.0,90.0,12.0,0.0
5844,66.0,120.0,90.0,11.0,0.0
5845,61.0,120.0,90.0,12.0,0.0
5846,66.0,0.0,90.0,11.0,0.0
5847,61.0,0.0,90.0,12.0,0.0
5848,66.0,0.0,300.0,10.0,0.0
5849,66.0,24.0,270.0,1.0,0.0
5850,78.0,0.0,270.0,1.0,0.0
5851,66.0,120.0,90.0,11.0,0.0
5852,61.0,32.0,300.0,3.0,0.0
5853,69.0,0.0,300.0,3.0,0.0
5854,90.0,0.0,270.0,0.0,0.0
5855,66.0,48.0,90.0,11.0,0.0
5856,61.0,0.0,90.0,12.0,0.0
5857,49.0,0.0,90.0,14.0,0.0
5858,61.0,16.0,90.0,13.0,0.0
5859,61.0,0.0,90.0,12.0,0.0
5860,66.0,48.0,90.0,11.0,0.0
5861,59.0,0.0,90.0,13.0,0.0
5862,47.0,56.0,90.0,14.0,0.0
5863,61.0,24.0,90.0,12.0,0.0
5864,66.0,0.0,90.0,11.0,0.0
5865,45.0,0.0,90.0,14.0,0.0
5866,57.0,720.0,90.0,13.0,0.0
5867,64.0,192.0,780.0,3.0,0.0
5868,44.0,0.0,720.0,14.0,0.0
5869,64.0,48.0,720.0,10.0,0.0
5870,64.0,0.0,720.0,11.0,0.0
5871,76.0,0.0,720.0,1.0,0.0
5872,56.0,0.0,720.0,13.0,0.0
5873,56.0,0.0,720.0,2.0,0.0
5874,88.0,0.0,720.0,0.0,0.0
5875,59.0,0.0,720.0,12.0,0.0
5876,77.0,0.0,240.0,1.0,0.0
5877,57.0,240.0,240.0,2.0,0.0
5878,45.0,0.0,240.0,14.0,0.0
5879,65.0,0.0,240.0,10.0,0.0
5880,65.0,0.0,240.0,11.0,0.0
5881,89.0,0.0,240.0,0.0,0.0
5882,57.0,0.0,240.0,13.0,0.0
5883,60.0,0.0,240.0,12.0,0.0
5884,59.0,0.0,240.0,12.0,0.0
5885,56.0,0.0,240.0,2.0,0.0
5886,76.0,0.0,240.0,1.0,0.0
5887,64.0,0.0,240.0,10.0,0.0
5888,44.0,240.0,240.0,14.0,0.0
5889,88.0,0.0,240.0,0.0,0.0
5890,64.0,0.0,240.0,11.0,0.0
5891,56.0,0.0,240.0,13.0,0.0
5892,57.0,0.0,240.0,2.0,0.0
5893,60.0,0.0,240.0,12.0,0.0
5894,57.0,240.0,240.0,13.0,0.0
5895,63.0,0.0,240.0,11.0,0.0
5896,75.0,0.0,240.0,1.0,0.0
5897,63.0,0.0,240.0,10.0,0.0
5898,87.0,0.0,240.0,0.0,0.0
5899,45.0,0.0,240.0,14.0,0.0
5900,64.0,216.0,240.0,11.0,0.0
5901,44.0,0.0,240.0,14.0,0.0
5902,76.0,0.0,240.0,1.0,0.0
5903,59.0,0.0,240.0,12.0,0.0
5904,56.0,0.0,240.0,2.0,0.0
5905,56.0,0.0,240.0,13.0,0.0
5906,88.0,0.0,240.0,0.0,0.0
5907,64.0,0.0,240.0,10.0,0.0
5908,57.0,0.0,210.0,2.0,0.0
5909,60.0,732.0,240.0,12.0,0.0
5910,75.0,0.0,210.0,1.0,0.0
5911,57.0,0.0,240.0,13.0,0.0
5912,45.0,0.0,240.0,14.0,0.0
5913,63.0,0.0,240.0,10.0,0.0
5914,87.0,12.0,210.0,0.0,0.0
5915,63.0,0.0,240.0,11.0,0.0
5916,56.0,0.0,720.0,2.0,0.0
5917,64.0,0.0,720.0,11.0,0.0
5918,64.0,192.0,780.0,3.0,0.0
5919,59.0,0.0,720.0,12.0,0.0
5920,88.0,0.0,720.0,0.0,0.0
5921,56.0,0.0,720.0,13.0,0.0
5922,64.0,0.0,720.0,10.0,0.0
5923,44.0,0.0,720.0,14.0,0.0
5924,76.0,48.0,720.0,1.0,0.0
5925,65.0,0.0,240.0,10.0,0.0
5926,57.0,240.0,240.0,2.0,0.0
5927,65.0,0.0,240.0,11.0,0.0
5928,89.0,0.0,240.0,0.0,0.0
5929,57.0,0.0,240.0,13.0,0.0
5930,60.0,0.0,240.0,12.0,0.0
5931,77.0,0.0,240.0,1.0,0.0
5932,45.0,0.0,240.0,14.0,0.0
5933,44.0,0.0,240.0,14.0,0.0
5934,64.0,0.0,240.0,11.0,0.0
5935,64.0,0.0,240.0,10.0,0.0
5936,76.0,0.0,240.0,1.0,0.0
5937,88.0,0.0,240.0,0.0,0.0
5938,56.0,0.0,240.0,13.0,0.0
5939,56.0,0.0,240.0,2.0,0.0
5940,59.0,240.0,240.0,12.0,0.0
5941,63.0,0.0,240.0,11.0,0.0
5942,87.0,0.0,240.0,0.0,0.0
5943,45.0,0.0,240.0,14.0,0.0
5944,60.0,0.0,240.0,12.0,0.0
5945,63.0,0.0,240.0,10.0,0.0
5946,57.0,240.0,240.0,2.0,0.0
5947,75.0,0.0,240.0,1.0,0.0
5948,57.0,0.0,240.0,13.0,0.0
5949,64.0,216.0,240.0,10.0,0.0
5950,44.0,0.0,240.0,14.0,0.0
5951,59.0,0.0,240.0,12.0,0.0
5952,56.0,0.0,240.0,13.0,0.0
5953,64.0,0.0,240.0,11.0,0.0
5954,88.0,0.0,240.0,0.0,0.0
5955,76.0,0.0,240.0,1.0,0.0
5956,56.0,0.0,240.0,2.0,0.0
5957,57.0,0.0,210.0,2.0,0.0
5958,57.0,0.0,240.0,13.0,0.0
5959,75.0,0.0,210.0,1.0,0.0
5960,60.0,156.0,240.0,12.0,0.0
5961,63.0,0.0,240.0,11.0,0.0
5962,45.0,0.0,240.0,14.0,0.0
5963,63.0,0.0,240.0,10.0,0.0
5964,87.0,12.0,210.0,0.0,0.0
5965,56.0,0.0,390.0,13.0,0.0
5966,64.0,240.0,150.0,10.0,0.0
5967,44.0,336.0,390.0,14.0,0.0
5968,59.0,0.0,390.0,12.0,0.0
5969,56.0,0.0,390.0,2.0,0.0
5970,64.0,0.0,150.0,11.0,0.0
5971,76.0,0.0,390.0,1.0,0.0
5972,88.0,0.0,390.0,0.0,0.0
5973,71.0,192.0,480.0,10.0,0.0
5974,62.0,0.0,480.0,11.0,0.0
5975,69.0,0.0,180.0,10.0,0.0
5976,61.0,192.0,180.0,11.0,0.0
5977,68.0,576.0,150.0,10.0,0.0
5978,59.0,0.0,150.0,11.0,0.0
5979,66.0,192.0,480.0,11.0,0.0
5980,74.0,0.0,480.0,10.0,0.0
5981,64.0,192.0,180.0,11.0,0.0
5982,73.0,0.0,180.0,10.0,0.0
5983,62.0,576.0,150.0,11.0,0.0
5984,71.0,0.0,150.0,10.0,0.0
5985,78.0,0.0,480.0,10.0,0.0
5986,83.0,192.0,480.0,1.0,0.0
5987,74.0,0.0,480.0,11.0,0.0
5988,78.0,0.0,480.0,1.0,0.0
5989,82.0,192.0,180.0,1.0,0.0
5990,76.0,0.0,180.0,10.0,0.0
5991,73.0,0.0,180.0,11.0,0.0
5992,85.0,0.0,180.0,1.0,0.0
5993,71.0,48.0,150.0,11.0,0.0
5994,83.0,528.0,180.0,1.0,0.0
5995,86.0,0.0,180.0,1.0,0.0
5996,74.0,0.0,150.0,10.0,0.0
5997,86.0,0.0,480.0,10.0,0.0
5998,83.0,0.0,480.0,11.0,0.0
5999,62.0,0.0,480.0,2.0,0.0
6000,71.0,192.0,480.0,2.0,0.0
6001,88.0,192.0,180.0,10.0,0.0
6002,85.0,0.0,180.0,11.0,0.0
6003,69.0,0.0,180.0,2.0,0.0
6004,61.0,0.0,180.0,2.0,0.0
6005,59.0,182.0,1890.0,2.0,0.0
6006,68.0,0.0,1890.0,2.0,0.0
6007,86.0,0.0,480.0,11.0,0.0
6008,50.0,0.0,180.0,13.0,0.0
6009,59.0,0.0,150.0,12.0,0.0
6010,38.0,192.0,180.0,14.0,0.0
6011,68.0,48.0,150.0,12.0,0.0
6012,90.0,144.0,480.0,10.0,0.0
6013,71.0,96.0,150.0,12.0,0.0
6014,62.0,0.0,150.0,12.0,0.0
6015,56.0,0.0,180.0,13.0,0.0
6016,83.0,192.0,180.0,11.0,0.0
6017,44.0,0.0,180.0,14.0,0.0
6018,86.0,0.0,180.0,10.0,0.0
6019,68.0,48.0,150.0,12.0,0.0
6020,59.0,0.0,150.0,12.0,0.0
6021,71.0,240.0,150.0,12.0,0.0
6022,62.0,0.0,150.0,12.0,0.0
6023,90.0,144.0,480.0,1.0,0.0
6024,47.0,192.0,180.0,14.0,0.0
6025,86.0,0.0,480.0,1.0,0.0
6026,59.0,0.0,180.0,13.0,0.0
6027,68.0,48.0,150.0,12.0,0.0
6028,59.0,0.0,150.0,12.0,0.0
6029,71.0,0.0,150.0,12.0,0.0
6030,62.0,96.0,150.0,12.0,0.0
6031,83.0,0.0,180.0,1.0,0.0
6032,59.0,0.0,150.0,12.0,0.0
6033,50.0,0.0,180.0,14.0,0.0
6034,68.0,48.0,150.0,12.0,0.0
6035,86.0,0.0,180.0,1.0,0.0
6036,83.0,0.0,180.0,10.0,0.0
6037,62.0,192.0,180.0,13.0,0.0
6038,80.0,0.0,180.0,11.0,0.0
6039,62.0,0.0,150.0,12.0,0.0
6040,71.0,58.0,150.0,12.0,0.0
6041,85.0,144.0,480.0,11.0,0.0
6042,61.0,0.0,150.0,12.0,0.0
6043,61.0,0.0,1890.0,2.0,0.0
6044,49.0,192.0,180.0,13.0,0.0
6045,69.0,48.0,150.0,12.0,0.0
6046,69.0,518.0,1890.0,2.0,0.0
6047,37.0,0.0,180.0,14.0,0.0
6048,88.0,0.0,480.0,10.0,0.0
6049,73.0,0.0,150.0,12.0,0.0
6050,64.0,96.0,150.0,12.0,0.0
6051,85.0,0.0,180.0,10.0,0.0
6052,40.0,192.0,180.0,14.0,0.0
6053,61.0,0.0,150.0,12.0,0.0
6054,81.0,0.0,180.0,11.0,0.0
6055,52.0,0.0,180.0,13.0,0.0
6056,69.0,48.0,150.0,12.0,0.0
6057,73.0,0.0,150.0,12.0,0.0
6058,64.0,240.0,150.0,12.0,0.0
6059,69.0,0.0,150.0,12.0,0.0
6060,61.0,48.0,150.0,12.0,0.0
6061,45.0,192.0,180.0,14.0,0.0
6062,88.0,0.0,480.0,1.0,0.0
6063,85.0,144.0,480.0,1.0,0.0
6064,57.0,0.0,180.0,13.0,0.0
6065,73.0,96.0,150.0,12.0,0.0
6066,64.0,0.0,150.0,12.0,0.0
6067,61.0,48.0,150.0,12.0,0.0
6068,69.0,0.0,150.0,12.0,0.0
6069,49.0,0.0,180.0,14.0,0.0
6070,81.0,0.0,180.0,1.0,0.0
6071,76.0,0.0,180.0,11.0,0.0
6072,81.0,192.0,180.0,10.0,0.0
6073,61.0,0.0,180.0,13.0,0.0
6074,85.0,0.0,180.0,1.0,0.0
6075,64.0,0.0,150.0,12.0,0.0
6076,73.0,58.0,150.0,12.0,0.0
6077,62.0,240.0,480.0,13.0,0.0
6078,66.0,0.0,960.0,12.0,0.0
6079,74.0,0.0,720.0,11.0,0.0
6080,83.0,120.0,720.0,10.0,0.0
6081,50.0,0.0,480.0,14.0,0.0
6082,62.0,384.0,480.0,2.0,0.0
6083,71.0,0.0,480.0,2.0,0.0
6084,86.0,0.0,480.0,1.0,0.0
6085,83.0,0.0,480.0,1.0,0.0
6086,47.0,72.0,390.0,14.0,0.0
6087,59.0,0.0,390.0,13.0,0.0
6088,76.0,24.0,120.0,11.0,0.0
6089,85.0,0.0,120.0,10.0,0.0
6090,78.0,0.0,90.0,11.0,0.0
6091,86.0,24.0,90.0,10.0,0.0
6092,64.0,0.0,480.0,12.0,0.0
6093,61.0,0.0,480.0,2.0,0.0
6094,81.0,0.0,480.0,10.0,0.0
6095,69.0,384.0,480.0,2.0,0.0
6096,64.0,0.0,390.0,13.0,0.0
6097,73.0,0.0,480.0,11.0,0.0
6098,52.0,96.0,390.0,14.0,0.0
6099,81.0,0.0,480.0,1.0,0.0
6100,85.0,0.0,480.0,1.0,0.0
6101,80.0,0.0,480.0,10.0,0.0
6102,52.0,96.0,390.0,13.0,0.0
6103,80.0,0.0,480.0,1.0,0.0
6104,62.0,0.0,480.0,12.0,0.0
6105,83.0,0.0,480.0,1.0,0.0
6106,40.0,0.0,390.0,14.0,0.0
6107,59.0,0.0,480.0,2.0,0.0
6108,68.0,0.0,480.0,2.0,0.0
6109,71.0,144.0,480.0,11.0,0.0
6110,61.0,0.0,390.0,2.0,0.0
6111,69.0,0.0,390.0,2.0,0.0
6112,81.0,0.0,390.0,10.0,0.0
6113,81.0,96.0,390.0,1.0,0.0
6114,69.0,240.0,150.0,11.0,0.0
6115,61.0,0.0,390.0,12.0,0.0
6116,57.0,240.0,960.0,13.0,0.0
6117,45.0,0.0,960.0,14.0,0.0
6118,69.0,240.0,240.0,11.0,0.0
6119,76.0,228.0,240.0,11.0,0.0
6120,73.0,12.0,240.0,11.0,0.0
6121,64.0,240.0,480.0,12.0,0.0
6122,49.0,0.0,960.0,14.0,0.0
6123,61.0,240.0,960.0,13.0,0.0
6124,68.0,240.0,240.0,11.0,0.0
6125,69.0,0.0,240.0,11.0,0.0
6126,76.0,228.0,240.0,11.0,0.0
6127,85.0,240.0,720.0,10.0,0.0
6128,57.0,0.0,960.0,12.0,0.0
6129,73.0,12.0,240.0,11.0,0.0
6130,62.0,0.0,960.0,13.0,0.0
6131,78.0,0.0,240.0,11.0,0.0
6132,50.0,240.0,960.0,14.0,0.0
6133,74.0,240.0,240.0,11.0,0.0
6134,83.0,0.0,240.0,10.0,0.0
6135,66.0,240.0,960.0,12.0,0.0
6136,86.0,0.0,960.0,10.0,0.0
6137,71.0,228.0,240.0,11.0,0.0
6138,69.0,12.0,240.0,11.0,0.0
6139,68.0,240.0,240.0,11.0,0.0
6140,52.0,0.0,930.0,14.0,0.0
6141,64.0,16.0,930.0,13.0,0.0
6142,71.0,0.0,240.0,11.0,0.0
6143,85.0,240.0,480.0,10.0,0.0
6144,75.0,212.0,240.0,11.0,0.0
6145,64.0,0.0,480.0,12.0,0.0
6146,76.0,12.0,240.0,11.0,0.0
6147,74.0,240.0,240.0,11.0,0.0
6148,83.0,0.0,480.0,10.0,0.0
6149,68.0,240.0,480.0,12.0,0.0
6150,66.0,0.0,960.0,13.0,0.0
6151,54.0,0.0,960.0,14.0,0.0
6152,71.0,0.0,240.0,11.0,0.0
6153,74.0,144.0,240.0,11.0,0.0
6154,69.0,240.0,480.0,12.0,0.0
6155,81.0,84.0,390.0,10.0,0.0
6156,73.0,12.0,240.0,11.0,0.0
6157,61.0,0.0,960.0,13.0,0.0
6158,75.0,240.0,240.0,11.0,0.0
6159,49.0,240.0,960.0,14.0,0.0
6160,76.0,240.0,240.0,11.0,0.0
6161,64.0,0.0,720.0,12.0,0.0
6162,73.0,228.0,240.0,11.0,0.0
6163,85.0,240.0,720.0,10.0,0.0
6164,69.0,12.0,240.0,11.0,0.0
6165,62.0,0.0,960.0,13.0,0.0
6166,50.0,240.0,960.0,14.0,0.0
6167,78.0,0.0,240.0,11.0,0.0
6168,66.0,0.0,240.0,12.0,0.0
6169,74.0,0.0,240.0,11.0,0.0
6170,83.0,240.0,240.0,10.0,0.0
6171,62.0,0.0,240.0,12.0,0.0
6172,71.0,228.0,240.0,11.0,0.0
6173,90.0,0.0,960.0,10.0,0.0
6174,61.0,0.0,240.0,12.0,0.0
6175,69.0,12.0,240.0,11.0,0.0
6176,59.0,0.0,480.0,12.0,0.0
6177,52.0,16.0,930.0,14.0,0.0
6178,68.0,240.0,240.0,11.0,0.0
6179,64.0,0.0,930.0,13.0,0.0
6180,71.0,240.0,240.0,11.0,0.0
6181,88.0,240.0,480.0,10.0,0.0
6182,68.0,240.0,720.0,12.0,0.0
6183,74.0,212.0,240.0,11.0,0.0
6184,80.0,12.0,240.0,11.0,0.0
6185,66.0,0.0,960.0,13.0,0.0
6186,54.0,0.0,960.0,14.0,0.0
6187,86.0,0.0,480.0,10.0,0.0
6188,83.0,0.0,240.0,11.0,0.0
6189,80.0,0.0,240.0,11.0,0.0
6190,71.0,240.0,240.0,12.0,0.0
6191,83.0,144.0,240.0,11.0,0.0
6192,85.0,84.0,390.0,10.0,0.0
6193,69.0,240.0,480.0,12.0,0.0
6194,81.0,12.0,240.0,11.0,0.0
6195,61.0,0.0,960.0,13.0,0.0
6196,61.0,240.0,960.0,2.0,0.0
6197,85.0,0.0,960.0,1.0,0.0
6198,81.0,0.0,1920.0,1.0,0.0
6199,57.0,0.0,1920.0,2.0,0.0
6200,61.0,0.0,960.0,12.0,0.0
6201,49.0,0.0,960.0,14.0,0.0
6202,75.0,240.0,240.0,11.0,0.0
6203,76.0,240.0,240.0,11.0,0.0
6204,78.0,216.0,240.0,11.0,0.0
6205,81.0,12.0,450.0,10.0,0.0
6206,76.0,12.0,240.0,11.0,0.0
6207,83.0,0.0,1920.0,1.0,0.0
6208,59.0,0.0,960.0,12.0,0.0
6209,62.0,240.0,960.0,13.0,0.0
6210,50.0,0.0,960.0,14.0,0.0
6211,59.0,0.0,1920.0,2.0,0.0
6212,77.0,240.0,240.0,11.0,0.0
6213,78.0,240.0,240.0,11.0,0.0
6214,74.0,216.0,240.0,11.0,0.0
6215,71.0,12.0,450.0,10.0,0.0
6216,71.0,12.0,240.0,11.0,0.0
6217,69.0,240.0,240.0,11.0,0.0
6218,52.0,0.0,930.0,14.0,0.0
6219,80.0,0.0,960.0,1.0,0.0
6220,62.0,0.0,960.0,12.0,0.0
6221,56.0,384.0,960.0,2.0,0.0
6222,64.0,16.0,930.0,13.0,0.0
6223,68.0,240.0,240.0,11.0,0.0
6224,76.0,68.0,390.0,10.0,0.0
6225,71.0,144.0,240.0,11.0,0.0
6226,68.0,12.0,240.0,11.0,0.0
6227,57.0,0.0,390.0,13.0,0.0
6228,45.0,0.0,390.0,14.0,0.0
6229,69.0,0.0,390.0,10.0,0.0
6230,57.0,0.0,390.0,2.0,0.0
6231,81.0,0.0,390.0,1.0,0.0
6232,69.0,576.0,390.0,11.0,0.0
6233,61.0,0.0,390.0,12.0,0.0
6234,76.0,480.0,480.0,6.0,0.0
6235,88.0,456.0,480.0,6.0,0.0
6236,80.0,744.0,450.0,6.0,0.0
6237,83.0,228.0,720.0,6.0,0.0
6238,69.0,480.0,480.0,7.0,0.0
6239,81.0,12.0,240.0,6.0,0.0
6240,76.0,0.0,480.0,7.0,0.0
6241,73.0,0.0,15.0,7.0,0.0
6242,81.0,48.0,900.0,6.0,0.0
6243,74.0,600.0,480.0,7.0,0.0
6244,71.0,0.0,480.0,7.0,0.0
6245,73.0,0.0,900.0,7.0,0.0
6246,69.0,48.0,900.0,7.0,0.0
6247,83.0,120.0,120.0,6.0,0.0
6248,81.0,120.0,120.0,6.0,0.0
6249,80.0,72.0,120.0,6.0,0.0
6250,81.0,480.0,120.0,6.0,0.0
6251,83.0,456.0,480.0,6.0,0.0
6252,85.0,264.0,450.0,6.0,0.0
6253,85.0,240.0,240.0,6.0,0.0
6254,86.0,240.0,240.0,6.0,0.0
6255,66.0,0.0,480.0,7.0,0.0
6256,62.0,480.0,480.0,7.0,0.0
6257,82.0,228.0,240.0,6.0,0.0
6258,83.0,12.0,240.0,6.0,0.0
6259,83.0,48.0,900.0,6.0,0.0
6260,74.0,432.0,480.0,7.0,0.0
6261,66.0,0.0,480.0,7.0,0.0
6262,64.0,0.0,480.0,7.0,0.0
6263,73.0,600.0,480.0,7.0,0.0
6264,71.0,48.0,900.0,7.0,0.0
6265,62.0,0.0,900.0,7.0,0.0
6266,85.0,120.0,120.0,6.0,0.0
6267,83.0,120.0,120.0,6.0,0.0
6268,82.0,72.0,120.0,6.0,0.0
6269,83.0,480.0,120.0,6.0,0.0
6270,86.0,456.0,480.0,6.0,0.0
6271,90.0,744.0,450.0,6.0,0.0
6272,90.0,228.0,720.0,6.0,0.0
6273,64.0,480.0,480.0,7.0,0.0
6274,88.0,12.0,240.0,6.0,0.0
6275,68.0,0.0,15.0,7.0,0.0
6276,71.0,480.0,480.0,7.0,0.0
6277,88.0,240.0,1200.0,6.0,0.0
6278,66.0,0.0,480.0,7.0,0.0
6279,69.0,240.0,480.0,7.0,0.0
6280,64.0,0.0,900.0,7.0,0.0
6281,68.0,48.0,900.0,7.0,0.0
6282,87.0,240.0,240.0,6.0,0.0
6283,88.0,192.0,240.0,6.0,0.0
6284,87.0,240.0,240.0,6.0,0.0
6285,88.0,240.0,240.0,6.0,0.0
6286,89.0,240.0,240.0,6.0,0.0
6287,90.0,228.0,240.0,6.0,0.0
6288,86.0,132.0,240.0,6.0,0.0
6289,45.0,0.0,390.0,14.0,0.0
6290,85.0,24.0,120.0,6.0,0.0
6291,69.0,120.0,960.0,7.0,0.0
6292,57.0,0.0,960.0,7.0,0.0
6293,57.0,96.0,390.0,13.0,0.0
6294,73.0,96.0,150.0,11.0,0.0
6295,81.0,0.0,150.0,10.0,0.0
6296,93.0,120.0,120.0,6.0,0.0
6297,80.0,0.0,150.0,10.0,0.0
6298,71.0,0.0,150.0,11.0,0.0
6299,83.0,24.0,120.0,6.0,0.0
6300,92.0,120.0,120.0,6.0,0.0
6301,81.0,24.0,120.0,6.0,0.0
6302,69.0,96.0,150.0,11.0,0.0
6303,78.0,0.0,150.0,10.0,0.0
6304,90.0,120.0,120.0,6.0,0.0
6305,68.0,0.0,150.0,11.0,0.0
6306,80.0,24.0,120.0,6.0,0.0
6307,76.0,96.0,150.0,10.0,0.0
6308,88.0,0.0,120.0,6.0,0.0
6309,74.0,0.0,150.0,10.0,0.0
6310,78.0,24.0,120.0,6.0,0.0
6311,66.0,96.0,150.0,11.0,0.0
6312,62.0,120.0,960.0,7.0,0.0
6313,38.0,0.0,390.0,14.0,0.0
6314,50.0,0.0,960.0,7.0,0.0
6315,50.0,96.0,390.0,13.0,0.0
6316,86.0,120.0,120.0,6.0,0.0
6317,64.0,0.0,150.0,11.0,0.0
6318,73.0,0.0,150.0,10.0,0.0
6319,76.0,24.0,120.0,6.0,0.0
6320,85.0,120.0,120.0,6.0,0.0
6321,74.0,24.0,120.0,6.0,0.0
6322,62.0,0.0,150.0,11.0,0.0
6323,71.0,96.0,150.0,10.0,0.0
6324,83.0,120.0,120.0,6.0,0.0
6325,61.0,0.0,150.0,11.0,0.0
6326,69.0,96.0,150.0,10.0,0.0
6327,73.0,24.0,120.0,6.0,0.0
6328,81.0,0.0,120.0,6.0,0.0
6329,59.0,0.0,390.0,11.0,0.0
6330,64.0,0.0,960.0,7.0,0.0
6331,52.0,0.0,960.0,7.0,0.0
6332,68.0,0.0,390.0,10.0,0.0
6333,40.0,96.0,390.0,14.0,0.0
6334,71.0,24.0,120.0,6.0,0.0
6335,52.0,0.0,390.0,13.0,0.0
6336,59.0,0.0,150.0,12.0,0.0
6337,68.0,96.0,150.0,12.0,0.0
6338,80.0,120.0,120.0,6.0,0.0
6339,66.0,0.0,150.0,12.0,0.0
6340,69.0,24.0,120.0,6.0,0.0
6341,57.0,0.0,150.0,12.0,0.0
6342,78.0,120.0,120.0,6.0,0.0
6343,56.0,0.0,150.0,12.0,0.0
6344,68.0,24.0,120.0,6.0,0.0
6345,64.0,96.0,150.0,12.0,0.0
6346,76.0,120.0,120.0,6.0,0.0
6347,71.0,24.0,120.0,6.0,0.0
6348,59.0,96.0,150.0,12.0,0.0
6349,62.0,0.0,150.0,12.0,0.0
6350,74.0,120.0,120.0,6.0,0.0
6351,57.0,120.0,960.0,7.0,0.0
6352,45.0,0.0,960.0,7.0,0.0
6353,69.0,24.0,120.0,6.0,0.0
6354,45.0,0.0,390.0,13.0,0.0
6355,33.0,0.0,390.0,14.0,0.0
6356,57.0,0.0,150.0,12.0,0.0
6357,61.0,96.0,150.0,12.0,0.0
6358,73.0,120.0,120.0,6.0,0.0
6359,68.0,24.0,120.0,6.0,0.0
6360,59.0,0.0,150.0,12.0,0.0
6361,56.0,96.0,150.0,12.0,0.0
6362,71.0,120.0,120.0,6.0,0.0
6363,54.0,96.0,150.0,12.0,0.0
6364,57.0,0.0,150.0,12.0,0.0
6365,66.0,24.0,120.0,6.0,0.0
6366,69.0,120.0,120.0,6.0,0.0
6367,64.0,24.0,120.0,6.0,0.0
6368,52.0,96.0,150.0,12.0,0.0
6369,56.0,0.0,150.0,12.0,0.0
6370,68.0,0.0,120.0,6.0,0.0
6371,66.0,120.0,120.0,6.0,0.0
6372,54.0,0.0,390.0,12.0,0.0
6373,50.0,96.0,390.0,7.0,0.0
6374,71.0,120.0,120.0,6.0,0.0
6375,74.0,24.0,120.0,6.0,0.0
6376,78.0,120.0,120.0,6.0,0.0
6377,83.0,120.0,120.0,6.0,0.0
6378,62.0,96.0,390.0,7.0,0.0
6379,86.0,120.0,120.0,6.0,0.0
6380,90.0,24.0,120.0,6.0,0.0
6381,86.0,120.0,120.0,6.0,0.0
6382,85.0,120.0,120.0,6.0,0.0
6383,64.0,96.0,390.0,7.0,0.0
6384,88.0,120.0,120.0,6.0,0.0
6385,85.0,24.0,120.0,6.0,0.0
6386,81.0,120.0,120.0,6.0,0.0
6387,83.0,120.0,120.0,6.0,0.0
6388,52.0,16.0,390.0,7.0,0.0
6389,86.0,80.0,120.0,6.0,0.0
6390,83.0,24.0,120.0,6.0,0.0
6391,52.0,0.0,90.0,13.0,0.0
6392,40.0,40.0,90.0,14.0,0.0
6393,54.0,0.0,90.0,13.0,0.0
6394,42.0,80.0,90.0,14.0,0.0
6395,80.0,0.0,120.0,6.0,0.0
6396,44.0,192.0,90.0,14.0,0.0
6397,56.0,0.0,90.0,13.0,0.0
6398,61.0,0.0,180.0,11.0,0.0
6399,69.0,0.0,180.0,10.0,0.0
6400,57.0,0.0,780.0,13.0,0.0
6401,81.0,240.0,390.0,6.0,0.0
6402,57.0,0.0,390.0,7.0,0.0
6403,64.0,192.0,180.0,12.0,0.0
6404,45.0,336.0,780.0,14.0,0.0
6405,61.0,0.0,390.0,11.0,0.0
6406,69.0,0.0,390.0,10.0,0.0
6407,64.0,144.0,390.0,12.0,0.0
6408,69.0,480.0,390.0,10.0,0.0
6409,64.0,0.0,390.0,12.0,0.0
6410,61.0,0.0,390.0,11.0,0.0
6411,64.0,0.0,390.0,12.0,0.0
6412,69.0,176.0,390.0,10.0,0.0
6413,61.0,0.0,390.0,11.0,0.0
6414,69.0,432.0,420.0,10.0,0.0
6415,52.0,80.0,90.0,13.0,0.0
6416,61.0,0.0,180.0,11.0,0.0
6417,64.0,48.0,180.0,12.0,0.0
6418,40.0,0.0,90.0,14.0,0.0
6419,42.0,0.0,90.0,14.0,0.0
6420,54.0,32.0,90.0,13.0,0.0
6421,56.0,192.0,90.0,13.0,0.0
6422,44.0,0.0,90.0,14.0,0.0
6423,64.0,0.0,180.0,12.0,0.0
6424,57.0,336.0,780.0,13.0,0.0
6425,45.0,0.0,780.0,14.0,0.0
6426,61.0,0.0,180.0,11.0,0.0
6427,64.0,0.0,390.0,12.0,0.0
6428,61.0,0.0,390.0,11.0,0.0
6429,69.0,144.0,390.0,10.0,0.0
6430,69.0,480.0,390.0,10.0,0.0
6431,64.0,0.0,390.0,12.0,0.0
6432,61.0,0.0,390.0,11.0,0.0
6433,61.0,0.0,390.0,11.0,0.0
6434,69.0,0.0,390.0,10.0,0.0
6435,64.0,336.0,390.0,12.0,0.0
6436,69.0,0.0,240.0,10.0,0.0
6437,73.0,0.0,2310.0,1.0,0.0
6438,64.0,0.0,2310.0,2.0,0.0
6439,64.0,0.0,15.0,12.0,0.0
6440,54.0,0.0,390.0,5.0,0.0
6441,54.0,240.0,390.0,13.0,0.0
6442,61.0,192.0,15.0,11.0,0.0
6443,76.0,0.0,2310.0,1.0,0.0
6444,42.0,0.0,390.0,14.0,0.0
6445,70.0,0.0,180.0,10.0,0.0
6446,61.0,32.0,780.0,3.0,0.0
6447,82.0,0.0,2310.0,0.0,0.0
6448,54.0,0.0,780.0,3.0,0.0
6449,66.0,0.0,390.0,4.0,0.0
6450,70.0,0.0,2310.0,2.0,0.0
6451,70.0,0.0,390.0,10.0,0.0
6452,64.0,0.0,390.0,12.0,0.0
6453,61.0,144.0,390.0,11.0,0.0
6454,49.0,0.0,90.0,13.0,0.0
6455,70.0,240.0,390.0,10.0,0.0
6456,61.0,0.0,390.0,11.0,0.0
6457,64.0,0.0,390.0,12.0,0.0
6458,37.0,80.0,90.0,14.0,0.0
6459,51.0,0.0,90.0,13.0,0.0
6460,39.0,80.0,90.0,14.0,0.0
6461,53.0,0.0,90.0,13.0,0.0
6462,41.0,144.0,90.0,14.0,0.0
6463,66.0,240.0,390.0,4.0,0.0
6464,42.0,0.0,390.0,14.0,0.0
6465,54.0,0.0,390.0,3.0,0.0
6466,61.0,0.0,390.0,3.0,0.0
6467,54.0,0.0,390.0,13.0,0.0
6468,54.0,0.0,390.0,5.0,0.0
6469,70.0,176.0,390.0,10.0,0.0
6470,61.0,0.0,390.0,11.0,0.0
6471,64.0,0.0,390.0,12.0,0.0
6472,61.0,0.0,390.0,3.0,0.0
6473,54.0,16.0,390.0,3.0,0.0
6474,61.0,0.0,420.0,11.0,0.0
6475,49.0,64.0,90.0,13.0,0.0
6476,70.0,192.0,420.0,10.0,0.0
6477,64.0,0.0,630.0,12.0,0.0
6478,37.0,0.0,90.0,14.0,0.0
6479,39.0,80.0,90.0,14.0,0.0
6480,51.0,0.0,90.0,13.0,0.0
6481,41.0,0.0,90.0,14.0,0.0
6482,53.0,192.0,90.0,13.0,0.0
6483,54.0,240.0,390.0,13.0,0.0
6484,54.0,0.0,390.0,5.0,0.0
6485,54.0,0.0,390.0,3.0,0.0
6486,42.0,0.0,390.0,14.0,0.0
6487,61.0,0.0,390.0,3.0,0.0
6488,66.0,0.0,390.0,4.0,0.0
6489,76.0,336.0,390.0,11.0,0.0
6490,79.0,0.0,390.0,10.0,0.0
6491,70.0,144.0,480.0,1.0,0.0
6492,66.0,0.0,480.0,1.0,0.0
6493,78.0,0.0,390.0,10.0,0.0
6494,74.0,336.0,390.0,11.0,0.0
6495,71.0,0.0,480.0,1.0,0.0
6496,68.0,144.0,480.0,1.0,0.0
6497,76.0,336.0,390.0,10.0,0.0
6498,73.0,0.0,390.0,11.0,0.0
6499,70.0,384.0,480.0,1.0,0.0
6500,73.0,0.0,480.0,1.0,0.0
6501,74.0,576.0,630.0,10.0,0.0
6502,71.0,0.0,630.0,11.0,0.0
6503,74.0,0.0,390.0,1.0,0.0
6504,71.0,0.0,390.0,1.0,0.0
6505,78.0,480.0,480.0,6.0,0.0
6506,90.0,456.0,480.0,6.0,0.0
6507,82.0,744.0,450.0,6.0,0.0
6508,85.0,228.0,720.0,6.0,0.0
6509,74.0,480.0,480.0,7.0,0.0
6510,71.0,0.0,480.0,7.0,0.0
6511,83.0,12.0,240.0,6.0,0.0
6512,78.0,0.0,480.0,7.0,0.0
6513,83.0,48.0,900.0,6.0,0.0
6514,74.0,432.0,480.0,7.0,0.0
6515,76.0,0.0,480.0,7.0,0.0
6516,73.0,600.0,480.0,7.0,0.0
6517,71.0,48.0,900.0,7.0,0.0
6518,74.0,0.0,900.0,7.0,0.0
6519,85.0,120.0,120.0,6.0,0.0
6520,83.0,120.0,120.0,6.0,0.0
6521,82.0,72.0,120.0,6.0,0.0
6522,83.0,480.0,120.0,6.0,0.0
6523,85.0,456.0,480.0,6.0,0.0
6524,86.0,264.0,450.0,6.0,0.0
6525,86.0,240.0,240.0,6.0,0.0
6526,85.0,240.0,240.0,6.0,0.0
6527,88.0,228.0,240.0,6.0,0.0
6528,64.0,0.0,480.0,7.0,0.0
6529,86.0,12.0,240.0,6.0,0.0
6530,85.0,48.0,900.0,6.0,0.0
6531,71.0,432.0,480.0,7.0,0.0
6532,67.0,480.0,15.0,7.0,0.0
6533,66.0,600.0,480.0,7.0,0.0
6534,69.0,0.0,480.0,7.0,0.0
6535,67.0,48.0,900.0,7.0,0.0
6536,64.0,0.0,900.0,7.0,0.0
6537,86.0,120.0,120.0,6.0,0.0
6538,85.0,120.0,120.0,6.0,0.0
6539,83.0,72.0,120.0,6.0,0.0
6540,85.0,480.0,120.0,6.0,0.0
6541,88.0,456.0,480.0,6.0,0.0
6542,91.0,984.0,450.0,6.0,0.0
6543,79.0,0.0,960.0,6.0,0.0
6544,70.0,0.0,480.0,7.0,0.0
6545,66.0,480.0,480.0,7.0,0.0
6546,78.0,240.0,1200.0,6.0,0.0
6547,76.0,480.0,480.0,7.0,0.0
6548,73.0,0.0,480.0,7.0,0.0
6549,74.0,240.0,480.0,7.0,0.0
6550,71.0,0.0,480.0,7.0,0.0
6551,70.0,48.0,900.0,7.0,0.0
6552,73.0,0.0,900.0,7.0,0.0
6553,78.0,240.0,240.0,6.0,0.0
6554,90.0,192.0,240.0,6.0,0.0
6555,78.0,240.0,240.0,6.0,0.0
6556,89.0,240.0,240.0,6.0,0.0
6557,78.0,240.0,240.0,6.0,0.0
6558,88.0,240.0,240.0,6.0,0.0
6559,78.0,120.0,240.0,6.0,0.0
6560,35.0,48.0,180.0,7.0,0.0
6561,86.0,72.0,120.0,6.0,0.0
6562,90.0,120.0,120.0,6.0,0.0
6563,82.0,72.0,120.0,6.0,0.0
6564,37.0,48.0,180.0,7.0,0.0
6565,85.0,120.0,120.0,6.0,0.0
6566,83.0,72.0,120.0,6.0,0.0
6567,38.0,48.0,180.0,7.0,0.0
6568,86.0,120.0,120.0,6.0,0.0
6569,39.0,48.0,180.0,7.0,0.0
6570,78.0,72.0,120.0,6.0,0.0
6571,81.0,120.0,120.0,6.0,0.0
6572,40.0,48.0,180.0,7.0,0.0
6573,79.0,72.0,120.0,6.0,0.0
6574,83.0,120.0,120.0,6.0,0.0
6575,42.0,48.0,180.0,7.0,0.0
6576,75.0,72.0,120.0,6.0,0.0
6577,78.0,120.0,120.0,6.0,0.0
6578,76.0,72.0,120.0,6.0,0.0
6579,43.0,48.0,180.0,7.0,0.0
6580,79.0,120.0,120.0,6.0,0.0
6581,73.0,72.0,120.0,6.0,0.0
6582,46.0,48.0,180.0,7.0,0.0
6583,76.0,120.0,120.0,6.0,0.0
6584,74.0,72.0,120.0,6.0,0.0
6585,47.0,48.0,180.0,7.0,0.0
6586,78.0,120.0,120.0,6.0,0.0
6587,70.0,72.0,120.0,6.0,0.0
6588,49.0,48.0,180.0,7.0,0.0
6589,73.0,120.0,120.0,6.0,0.0
6590,71.0,72.0,120.0,6.0,0.0
6591,50.0,48.0,180.0,7.0,0.0
6592,74.0,120.0,120.0,6.0,0.0
6593,66.0,72.0,120.0,6.0,0.0
6594,51.0,48.0,180.0,7.0,0.0
6595,69.0,120.0,120.0,6.0,0.0
6596,52.0,48.0,180.0,7.0,0.0
6597,67.0,72.0,120.0,6.0,0.0
6598,71.0,120.0,120.0,6.0,0.0
6599,63.0,72.0,120.0,6.0,0.0
6600,54.0,48.0,180.0,7.0,0.0
6601,66.0,120.0,120.0,6.0,0.0
6602,64.0,72.0,120.0,6.0,0.0
6603,55.0,48.0,180.0,7.0,0.0
6604,67.0,120.0,120.0,6.0,0.0
6605,58.0,48.0,180.0,7.0,0.0
6606,61.0,72.0,120.0,6.0,0.0
6607,64.0,192.0,120.0,6.0,0.0
6608,62.0,192.0,180.0,6.0,0.0
6609,59.0,48.0,390.0,7.0,0.0
6610,71.0,432.0,180.0,6.0,0.0
6611,74.0,0.0,180.0,6.0,0.0
6612,55.0,48.0,390.0,7.0,0.0
6613,83.0,0.0,180.0,6.0,0.0
6614,74.0,432.0,180.0,6.0,0.0
6615,52.0,48.0,390.0,7.0,0.0
6616,73.0,368.0,180.0,6.0,0.0
6617,83.0,0.0,180.0,6.0,0.0
6618,54.0,16.0,390.0,7.0,0.0
6619,42.0,0.0,90.0,14.0,0.0
6620,54.0,64.0,90.0,13.0,0.0
6621,73.0,0.0,180.0,6.0,0.0
6622,82.0,48.0,180.0,6.0,0.0
6623,56.0,0.0,90.0,13.0,0.0
6624,44.0,32.0,90.0,14.0,0.0
6625,58.0,192.0,90.0,13.0,0.0
6626,46.0,0.0,90.0,14.0,0.0
6627,83.0,0.0,390.0,6.0,0.0
6628,66.0,0.0,180.0,12.0,0.0
6629,47.0,0.0,390.0,7.0,0.0
6630,47.0,0.0,780.0,14.0,0.0
6631,71.0,192.0,180.0,10.0,0.0
6632,59.0,336.0,780.0,13.0,0.0
6633,62.0,0.0,180.0,11.0,0.0
6634,74.0,240.0,390.0,6.0,0.0
6635,78.0,0.0,390.0,6.0,0.0
6636,66.0,0.0,390.0,12.0,0.0
6637,62.0,144.0,390.0,11.0,0.0
6638,71.0,0.0,390.0,10.0,0.0
6639,71.0,0.0,390.0,10.0,0.0
6640,66.0,480.0,390.0,12.0,0.0
6641,62.0,0.0,390.0,11.0,0.0
6642,71.0,0.0,390.0,10.0,0.0
6643,66.0,0.0,390.0,12.0,0.0
6644,62.0,176.0,390.0,11.0,0.0
6645,71.0,0.0,420.0,10.0,0.0
6646,42.0,80.0,90.0,14.0,0.0
6647,54.0,0.0,90.0,13.0,0.0
6648,66.0,432.0,420.0,12.0,0.0
6649,62.0,0.0,420.0,11.0,0.0
6650,56.0,0.0,90.0,13.0,0.0
6651,44.0,80.0,90.0,14.0,0.0
6652,58.0,0.0,90.0,13.0,0.0
6653,46.0,192.0,90.0,14.0,0.0
6654,47.0,336.0,780.0,14.0,0.0
6655,59.0,0.0,780.0,13.0,0.0
6656,62.0,144.0,390.0,11.0,0.0
6657,66.0,0.0,390.0,12.0,0.0
6658,71.0,0.0,390.0,10.0,0.0
6659,66.0,0.0,390.0,12.0,0.0
6660,62.0,0.0,390.0,11.0,0.0
6661,71.0,480.0,390.0,10.0,0.0
6662,62.0,0.0,390.0,11.0,0.0
6663,71.0,336.0,390.0,10.0,0.0
6664,66.0,0.0,390.0,12.0,0.0
6665,71.0,0.0,240.0,10.0,0.0
6666,66.0,192.0,240.0,12.0,0.0
6667,78.0,0.0,390.0,4.0,0.0
6668,72.0,0.0,180.0,10.0,0.0
6669,54.0,32.0,780.0,3.0,0.0
6670,54.0,0.0,390.0,5.0,0.0
6671,66.0,0.0,780.0,3.0,0.0
6672,62.0,0.0,15.0,11.0,0.0
6673,66.0,0.0,390.0,4.0,0.0
6674,84.0,0.0,2310.0,0.0,0.0
6675,81.0,0.0,2310.0,1.0,0.0
6676,69.0,0.0,180.0,12.0,0.0
6677,60.0,0.0,2310.0,2.0,0.0
6678,57.0,0.0,2310.0,2.0,0.0
6679,74.0,0.0,2310.0,1.0,0.0
6680,50.0,240.0,390.0,13.0,0.0
6681,38.0,0.0,390.0,14.0,0.0
6682,69.0,0.0,390.0,12.0,0.0
6683,62.0,0.0,390.0,11.0,0.0
6684,72.0,144.0,390.0,10.0,0.0
6685,72.0,0.0,390.0,10.0,0.0
6686,62.0,0.0,390.0,11.0,0.0
6687,45.0,0.0,90.0,13.0,0.0
6688,69.0,240.0,390.0,12.0,0.0
6689,33.0,80.0,90.0,14.0,0.0
6690,47.0,0.0,90.0,13.0,0.0
6691,35.0,80.0,90.0,14.0,0.0
6692,49.0,144.0,90.0,13.0,0.0
6693,37.0,0.0,90.0,14.0,0.0
6694,54.0,0.0,390.0,3.0,0.0
6695,66.0,0.0,390.0,3.0,0.0
6696,66.0,0.0,390.0,4.0,0.0
6697,38.0,240.0,390.0,14.0,0.0
6698,50.0,0.0,390.0,13.0,0.0
6699,54.0,0.0,390.0,5.0,0.0
6700,78.0,0.0,390.0,4.0,0.0
6701,62.0,176.0,390.0,11.0,0.0
6702,72.0,0.0,390.0,10.0,0.0
6703,69.0,0.0,390.0,12.0,0.0
6704,66.0,16.0,390.0,3.0,0.0
6705,54.0,0.0,390.0,3.0,0.0
6706,33.0,64.0,90.0,14.0,0.0
6707,72.0,0.0,420.0,10.0,0.0
6708,45.0,0.0,90.0,13.0,0.0
6709,62.0,192.0,420.0,11.0,0.0
6710,69.0,0.0,630.0,12.0,0.0
6711,35.0,80.0,90.0,14.0,0.0
6712,47.0,0.0,90.0,13.0,0.0
6713,49.0,192.0,90.0,13.0,0.0
6714,37.0,0.0,90.0,14.0,0.0
6715,54.0,0.0,390.0,5.0,0.0
6716,78.0,0.0,390.0,4.0,0.0
6717,38.0,240.0,390.0,14.0,0.0
6718,66.0,0.0,390.0,3.0,0.0
6719,54.0,0.0,390.0,3.0,0.0
6720,50.0,0.0,390.0,13.0,0.0
6721,66.0,0.0,390.0,4.0,0.0
6722,72.0,336.0,390.0,11.0,0.0
6723,76.0,0.0,390.0,10.0,0.0
6724,50.0,0.0,480.0,2.0,0.0
6725,54.0,144.0,480.0,2.0,0.0
6726,74.0,0.0,390.0,10.0,0.0
6727,71.0,336.0,390.0,11.0,0.0
6728,52.0,144.0,480.0,2.0,0.0
6729,55.0,0.0,480.0,2.0,0.0
6730,72.0,0.0,390.0,10.0,0.0
6731,69.0,336.0,390.0,11.0,0.0
6732,57.0,384.0,480.0,2.0,0.0
6733,54.0,0.0,480.0,2.0,0.0
6734,71.0,0.0,630.0,10.0,0.0
6735,67.0,576.0,630.0,11.0,0.0
6736,55.0,0.0,390.0,2.0,0.0
6737,59.0,0.0,390.0,2.0,0.0
6738,74.0,480.0,480.0,6.0,0.0
6739,86.0,456.0,480.0,6.0,0.0
6740,78.0,708.0,450.0,6.0,0.0
6741,81.0,264.0,690.0,6.0,0.0
6742,67.0,480.0,480.0,7.0,0.0
6743,79.0,12.0,240.0,6.0,0.0
6744,74.0,432.0,480.0,7.0,0.0
6745,71.0,0.0,15.0,7.0,0.0
6746,79.0,48.0,900.0,6.0,0.0
6747,63.0,0.0,480.0,7.0,0.0
6748,71.0,600.0,480.0,7.0,0.0
6749,64.0,0.0,900.0,7.0,0.0
6750,67.0,48.0,900.0,7.0,0.0
6751,81.0,120.0,120.0,6.0,0.0
6752,79.0,120.0,120.0,6.0,0.0
6753,78.0,72.0,120.0,6.0,0.0
6754,79.0,480.0,120.0,6.0,0.0
6755,81.0,456.0,480.0,6.0,0.0
6756,83.0,744.0,450.0,6.0,0.0
6757,83.0,228.0,720.0,6.0,0.0
6758,60.0,480.0,480.0,7.0,0.0
6759,64.0,0.0,480.0,7.0,0.0
6760,88.0,12.0,240.0,6.0,0.0
6761,81.0,48.0,900.0,6.0,0.0
6762,64.0,432.0,480.0,7.0,0.0
6763,67.0,0.0,480.0,7.0,0.0
6764,62.0,0.0,480.0,7.0,0.0
6765,66.0,720.0,480.0,7.0,0.0
6766,64.0,48.0,900.0,7.0,0.0
6767,61.0,0.0,900.0,7.0,0.0
6768,80.0,192.0,240.0,6.0,0.0
6769,81.0,240.0,240.0,6.0,0.0
6770,80.0,240.0,240.0,6.0,0.0
6771,81.0,240.0,240.0,6.0,0.0
6772,80.0,228.0,240.0,6.0,0.0
6773,81.0,252.0,240.0,6.0,0.0
6774,83.0,240.0,240.0,6.0,0.0
6775,81.0,240.0,240.0,6.0,0.0
6776,62.0,0.0,480.0,7.0,0.0
6777,79.0,228.0,240.0,6.0,0.0
6778,78.0,12.0,240.0,6.0,0.0
6779,69.0,0.0,480.0,7.0,0.0
6780,66.0,240.0,15.0,7.0,0.0
6781,76.0,240.0,240.0,6.0,0.0
6782,74.0,576.0,1110.0,6.0,0.0
6783,67.0,384.0,480.0,7.0,0.0
6784,64.0,0.0,480.0,7.0,0.0
6785,66.0,0.0,960.0,7.0,0.0
6786,62.0,0.0,960.0,7.0,0.0
6787,86.0,480.0,480.0,6.0,0.0
6788,85.0,456.0,480.0,6.0,0.0
6789,84.0,168.0,450.0,6.0,0.0
6790,83.0,192.0,150.0,6.0,0.0
6791,83.0,24.0,180.0,7.0,0.0
6792,86.0,0.0,450.0,6.0,0.0
6793,67.0,96.0,90.0,7.0,0.0
6794,79.0,120.0,90.0,7.0,0.0
6795,66.0,96.0,90.0,7.0,0.0
6796,81.0,24.0,180.0,7.0,0.0
6797,78.0,120.0,90.0,7.0,0.0
6798,86.0,120.0,690.0,6.0,0.0
6799,64.0,96.0,90.0,7.0,0.0
6800,79.0,24.0,180.0,7.0,0.0
6801,76.0,120.0,90.0,7.0,0.0
6802,62.0,96.0,90.0,7.0,0.0
6803,78.0,24.0,180.0,7.0,0.0
6804,74.0,120.0,90.0,7.0,0.0
6805,76.0,24.0,180.0,7.0,0.0
6806,60.0,96.0,90.0,7.0,0.0
6807,72.0,0.0,90.0,7.0,0.0
6808,59.0,96.0,90.0,7.0,0.0
6809,74.0,24.0,180.0,7.0,0.0
6810,71.0,120.0,90.0,7.0,0.0
6811,57.0,96.0,90.0,7.0,0.0
6812,72.0,24.0,180.0,7.0,0.0
6813,69.0,120.0,90.0,7.0,0.0
6814,55.0,48.0,90.0,8.0,0.0
6815,71.0,72.0,150.0,7.0,0.0
6816,67.0,120.0,90.0,8.0,0.0
6817,74.0,48.0,390.0,6.0,0.0
6818,71.0,24.0,180.0,7.0,0.0
6819,55.0,96.0,90.0,8.0,0.0
6820,67.0,120.0,90.0,8.0,0.0
6821,69.0,24.0,180.0,7.0,0.0
6822,54.0,48.0,90.0,8.0,0.0
6823,66.0,120.0,90.0,8.0,0.0
6824,67.0,24.0,180.0,7.0,0.0
6825,52.0,96.0,90.0,8.0,0.0
6826,74.0,48.0,630.0,6.0,0.0
6827,64.0,120.0,90.0,8.0,0.0
6828,50.0,96.0,90.0,8.0,0.0
6829,66.0,24.0,180.0,7.0,0.0
6830,62.0,120.0,90.0,8.0,0.0
6831,64.0,24.0,180.0,7.0,0.0
6832,48.0,48.0,90.0,8.0,0.0
6833,60.0,120.0,90.0,8.0,0.0
6834,62.0,24.0,180.0,7.0,0.0
6835,47.0,96.0,90.0,8.0,0.0
6836,59.0,120.0,90.0,8.0,0.0
6837,45.0,96.0,90.0,8.0,0.0
6838,60.0,24.0,180.0,7.0,0.0
6839,57.0,120.0,90.0,8.0,0.0
6840,59.0,72.0,390.0,6.0,0.0
6841,43.0,120.0,90.0,8.0,0.0
6842,55.0,120.0,90.0,8.0,0.0
6843,54.0,48.0,90.0,8.0,0.0
6844,55.0,120.0,90.0,8.0,0.0
6845,40.0,120.0,90.0,8.0,0.0
6846,71.0,0.0,390.0,6.0,0.0
6847,79.0,72.0,390.0,6.0,0.0
6848,52.0,120.0,90.0,8.0,0.0
6849,50.0,48.0,90.0,8.0,0.0
6850,52.0,120.0,90.0,8.0,0.0
6851,36.0,120.0,90.0,8.0,0.0
6852,69.0,72.0,390.0,6.0,0.0
6853,79.0,0.0,390.0,6.0,0.0
6854,48.0,120.0,90.0,8.0,0.0
6855,47.0,48.0,90.0,8.0,0.0
6856,48.0,120.0,90.0,8.0,0.0
6857,69.0,0.0,390.0,6.0,0.0
6858,78.0,72.0,390.0,6.0,0.0
6859,38.0,120.0,90.0,8.0,0.0
6860,50.0,120.0,90.0,8.0,0.0
6861,48.0,48.0,90.0,8.0,0.0
6862,50.0,264.0,90.0,8.0,0.0
6863,43.0,72.0,2700.0,8.0,0.0
6864,55.0,120.0,120.0,7.0,0.0
6865,59.0,120.0,120.0,7.0,0.0
6866,62.0,120.0,120.0,7.0,0.0
6867,67.0,120.0,120.0,7.0,0.0
6868,59.0,120.0,120.0,7.0,0.0
6869,62.0,120.0,120.0,7.0,0.0
6870,67.0,120.0,120.0,7.0,0.0
6871,71.0,120.0,120.0,7.0,0.0
6872,62.0,120.0,120.0,7.0,0.0
6873,67.0,120.0,120.0,7.0,0.0
6874,71.0,120.0,120.0,7.0,0.0
6875,74.0,120.0,120.0,7.0,0.0
6876,67.0,120.0,120.0,7.0,0.0
6877,71.0,120.0,120.0,7.0,0.0
6878,74.0,120.0,120.0,7.0,0.0
6879,79.0,120.0,120.0,7.0,0.0
6880,71.0,120.0,120.0,7.0,0.0
6881,74.0,120.0,120.0,7.0,0.0
6882,79.0,120.0,120.0,7.0,0.0
6883,83.0,120.0,120.0,7.0,0.0
6884,74.0,48.0,120.0,7.0,0.0
6885,79.0,120.0,120.0,7.0,0.0
6886,83.0,120.0,120.0,7.0,0.0
6887,86.0,120.0,120.0,7.0,0.0
6888,55.0,0.0,390.0,8.0,0.0
6889,43.0,96.0,390.0,8.0,0.0
6890,83.0,120.0,120.0,7.0,0.0
6891,79.0,24.0,120.0,7.0,0.0
6892,74.0,120.0,120.0,7.0,0.0
6893,86.0,120.0,120.0,7.0,0.0
6894,41.0,0.0,390.0,8.0,0.0
6895,53.0,96.0,390.0,8.0,0.0
6896,81.0,120.0,120.0,7.0,0.0
6897,77.0,24.0,120.0,7.0,0.0
6898,74.0,240.0,120.0,7.0,0.0
6899,59.0,0.0,3840.0,2.0,0.0
6900,62.0,0.0,3840.0,2.0,0.0
6901,86.0,0.0,3840.0,0.0,0.0
6902,40.0,0.0,390.0,14.0,0.0
6903,52.0,96.0,390.0,13.0,0.0
6904,52.0,0.0,2880.0,8.0,0.0
6905,64.0,0.0,390.0,10.0,0.0
6906,40.0,0.0,2880.0,8.0,0.0
6907,64.0,0.0,390.0,12.0,0.0
6908,64.0,0.0,390.0,11.0,0.0
6909,80.0,0.0,3840.0,1.0,0.0
6910,83.0,0.0,3840.0,1.0,0.0
6911,89.0,120.0,120.0,7.0,0.0
6912,86.0,24.0,120.0,7.0,0.0
6913,89.0,120.0,120.0,7.0,0.0
6914,83.0,120.0,120.0,7.0,0.0
6915,86.0,80.0,120.0,7.0,0.0
6916,35.0,0.0,90.0,14.0,0.0
6917,59.0,0.0,90.0,12.0,0.0
6918,47.0,40.0,90.0,13.0,0.0
6919,59.0,0.0,90.0,10.0,0.0
6920,80.0,40.0,120.0,7.0,0.0
6921,59.0,0.0,90.0,11.0,0.0
6922,61.0,0.0,90.0,10.0,0.0
6923,49.0,80.0,90.0,13.0,0.0
6924,37.0,0.0,90.0,14.0,0.0
6925,61.0,0.0,90.0,12.0,0.0
6926,61.0,0.0,90.0,11.0,0.0
6927,83.0,0.0,120.0,7.0,0.0
6928,63.0,0.0,90.0,10.0,0.0
6929,51.0,120.0,90.0,13.0,0.0
6930,63.0,0.0,90.0,11.0,0.0
6931,39.0,0.0,90.0,14.0,0.0
6932,63.0,0.0,90.0,12.0,0.0
6933,77.0,120.0,120.0,7.0,0.0
6934,52.0,0.0,390.0,13.0,0.0
6935,64.0,0.0,390.0,11.0,0.0
6936,64.0,96.0,390.0,10.0,0.0
6937,40.0,0.0,390.0,14.0,0.0
6938,64.0,0.0,390.0,12.0,0.0
6939,80.0,120.0,120.0,7.0,0.0
6940,74.0,24.0,120.0,7.0,0.0
6941,77.0,120.0,120.0,7.0,0.0
6942,71.0,120.0,120.0,7.0,0.0
6943,74.0,80.0,120.0,7.0,0.0
6944,59.0,0.0,90.0,11.0,0.0
6945,35.0,40.0,90.0,14.0,0.0
6946,59.0,0.0,90.0,12.0,0.0
6947,68.0,40.0,120.0,7.0,0.0
6948,47.0,0.0,90.0,13.0,0.0
6949,59.0,0.0,90.0,10.0,0.0
6950,61.0,0.0,90.0,10.0,0.0
6951,49.0,0.0,90.0,13.0,0.0
6952,61.0,0.0,90.0,12.0,0.0
6953,37.0,80.0,90.0,14.0,0.0
6954,61.0,0.0,90.0,11.0,0.0
6955,71.0,0.0,120.0,7.0,0.0
6956,51.0,0.0,90.0,13.0,0.0
6957,63.0,0.0,90.0,12.0,0.0
6958,63.0,0.0,90.0,11.0,0.0
6959,63.0,0.0,90.0,10.0,0.0
6960,39.0,120.0,90.0,14.0,0.0
6961,64.0,0.0,390.0,10.0,0.0
6962,65.0,120.0,120.0,7.0,0.0
6963,64.0,96.0,390.0,12.0,0.0
6964,64.0,0.0,390.0,11.0,0.0
6965,52.0,0.0,390.0,13.0,0.0
6966,40.0,0.0,390.0,14.0,0.0
6967,68.0,120.0,120.0,7.0,0.0
6968,62.0,24.0,120.0,7.0,0.0
6969,65.0,120.0,120.0,7.0,0.0
6970,59.0,120.0,120.0,7.0,0.0
6971,62.0,80.0,120.0,7.0,0.0
6972,59.0,0.0,90.0,12.0,0.0
6973,35.0,40.0,90.0,14.0,0.0
6974,47.0,0.0,90.0,13.0,0.0
6975,57.0,40.0,120.0,7.0,0.0
6976,59.0,0.0,90.0,11.0,0.0
6977,59.0,0.0,90.0,10.0,0.0
6978,49.0,0.0,90.0,13.0,0.0
6979,61.0,80.0,90.0,12.0,0.0
6980,61.0,0.0,90.0,11.0,0.0
6981,37.0,0.0,90.0,14.0,0.0
6982,61.0,0.0,90.0,10.0,0.0
6983,62.0,120.0,120.0,7.0,0.0
6984,63.0,0.0,90.0,11.0,0.0
6985,39.0,0.0,90.0,14.0,0.0
6986,63.0,0.0,90.0,10.0,0.0
6987,63.0,0.0,90.0,12.0,0.0
6988,51.0,0.0,90.0,13.0,0.0
6989,52.0,0.0,300.0,13.0,0.0
6990,40.0,0.0,300.0,14.0,0.0
6991,64.0,0.0,300.0,10.0,0.0
6992,64.0,0.0,300.0,11.0,0.0
6993,64.0,48.0,300.0,12.0,0.0
6994,56.0,120.0,120.0,7.0,0.0
6995,59.0,72.0,120.0,7.0,0.0
6996,62.0,120.0,120.0,7.0,0.0
6997,65.0,120.0,120.0,7.0,0.0
6998,64.0,0.0,300.0,11.0,0.0
6999,64.0,120.0,120.0,7.0,0.0
7000,52.0,0.0,300.0,13.0,0.0
7001,64.0,48.0,300.0,10.0,0.0
7002,40.0,0.0,300.0,14.0,0.0
7003,64.0,0.0,300.0,12.0,0.0
7004,62.0,72.0,120.0,7.0,0.0
7005,60.0,120.0,120.0,7.0,0.0
7006,59.0,240.0,120.0,7.0,0.0
7007,57.0,0.0,390.0,13.0,0.0
7008,33.0,120.0,2880.0,8.0,0.0
7009,45.0,0.0,2880.0,8.0,0.0
7010,81.0,96.0,390.0,1.0,0.0
7011,69.0,0.0,390.0,12.0,0.0
7012,69.0,0.0,390.0,10.0,0.0
7013,84.0,0.0,390.0,0.0,0.0
7014,69.0,0.0,390.0,11.0,0.0
7015,60.0,0.0,390.0,2.0,0.0
7016,57.0,0.0,390.0,2.0,0.0
7017,45.0,0.0,390.0,14.0,0.0
7018,57.0,120.0,120.0,7.0,0.0
7019,60.0,24.0,120.0,7.0,0.0
7020,64.0,120.0,120.0,7.0,0.0
7021,69.0,120.0,120.0,7.0,0.0
7022,60.0,120.0,120.0,7.0,0.0
7023,64.0,120.0,120.0,7.0,0.0
7024,69.0,120.0,120.0,7.0,0.0
7025,72.0,120.0,120.0,7.0,0.0
7026,64.0,120.0,120.0,7.0,0.0
7027,69.0,120.0,120.0,7.0,0.0
7028,72.0,120.0,120.0,7.0,0.0
7029,76.0,120.0,120.0,7.0,0.0
7030,69.0,120.0,120.0,7.0,0.0
7031,72.0,120.0,120.0,7.0,0.0
7032,76.0,120.0,120.0,7.0,0.0
7033,81.0,120.0,120.0,7.0,0.0
7034,72.0,120.0,120.0,7.0,0.0
7035,76.0,120.0,120.0,7.0,0.0
7036,81.0,120.0,120.0,7.0,0.0
7037,84.0,120.0,120.0,7.0,0.0
7038,76.0,120.0,120.0,7.0,0.0
7039,81.0,120.0,120.0,7.0,0.0
7040,84.0,0.0,120.0,7.0,0.0
7041,88.0,120.0,120.0,7.0,0.0
7042,57.0,96.0,390.0,8.0,0.0
7043,45.0,0.0,390.0,8.0,0.0
7044,84.0,120.0,120.0,7.0,0.0
7045,81.0,24.0,120.0,7.0,0.0
7046,76.0,120.0,120.0,7.0,0.0
7047,88.0,120.0,120.0,7.0,0.0
7048,55.0,0.0,390.0,8.0,0.0
7049,43.0,96.0,390.0,8.0,0.0
7050,83.0,120.0,120.0,7.0,0.0
7051,79.0,24.0,120.0,7.0,0.0
7052,76.0,240.0,120.0,7.0,0.0
7053,66.0,0.0,390.0,10.0,0.0
7054,61.0,0.0,3840.0,2.0,0.0
7055,64.0,0.0,3840.0,2.0,0.0
7056,42.0,0.0,2880.0,8.0,0.0
7057,54.0,0.0,2880.0,8.0,0.0
7058,88.0,0.0,3840.0,0.0,0.0
7059,85.0,0.0,3840.0,1.0,0.0
7060,82.0,0.0,3840.0,1.0,0.0
7061,42.0,0.0,390.0,14.0,0.0
7062,66.0,0.0,390.0,12.0,0.0
7063,54.0,0.0,390.0,13.0,0.0
7064,66.0,96.0,390.0,11.0,0.0
7065,91.0,120.0,120.0,7.0,0.0
7066,88.0,24.0,120.0,7.0,0.0
7067,91.0,120.0,120.0,7.0,0.0
7068,85.0,120.0,120.0,7.0,0.0
7069,88.0,80.0,120.0,7.0,0.0
7070,61.0,0.0,90.0,11.0,0.0
7071,61.0,0.0,90.0,10.0,0.0
7072,82.0,40.0,120.0,7.0,0.0
7073,37.0,40.0,90.0,14.0,0.0
7074,61.0,0.0,90.0,12.0,0.0
7075,49.0,0.0,90.0,13.0,0.0
7076,51.0,0.0,90.0,13.0,0.0
7077,63.0,0.0,90.0,11.0,0.0
7078,63.0,0.0,90.0,10.0,0.0
7079,39.0,0.0,90.0,14.0,0.0
7080,63.0,80.0,90.0,12.0,0.0
7081,85.0,0.0,120.0,7.0,0.0
7082,65.0,0.0,90.0,10.0,0.0
7083,53.0,0.0,90.0,13.0,0.0
7084,65.0,0.0,90.0,12.0,0.0
7085,41.0,120.0,90.0,14.0,0.0
7086,65.0,0.0,90.0,11.0,0.0
7087,54.0,0.0,390.0,13.0,0.0
7088,79.0,120.0,120.0,7.0,0.0
7089,66.0,0.0,390.0,11.0,0.0
7090,66.0,0.0,390.0,12.0,0.0
7091,66.0,0.0,390.0,10.0,0.0
7092,42.0,96.0,390.0,14.0,0.0
7093,82.0,120.0,120.0,7.0,0.0
7094,76.0,24.0,120.0,7.0,0.0
7095,79.0,120.0,120.0,7.0,0.0
7096,73.0,120.0,120.0,7.0,0.0
7097,76.0,80.0,120.0,7.0,0.0
7098,37.0,0.0,90.0,14.0,0.0
7099,70.0,40.0,120.0,7.0,0.0
7100,61.0,0.0,90.0,12.0,0.0
7101,49.0,40.0,90.0,13.0,0.0
7102,61.0,0.0,90.0,11.0,0.0
7103,61.0,0.0,90.0,10.0,0.0
7104,63.0,0.0,90.0,10.0,0.0
7105,39.0,0.0,90.0,14.0,0.0
7106,63.0,80.0,90.0,11.0,0.0
7107,63.0,0.0,90.0,12.0,0.0
7108,51.0,0.0,90.0,13.0,0.0
7109,73.0,0.0,120.0,7.0,0.0
7110,41.0,0.0,90.0,14.0,0.0
7111,65.0,120.0,90.0,12.0,0.0
7112,65.0,0.0,90.0,10.0,0.0
7113,65.0,0.0,90.0,11.0,0.0
7114,53.0,0.0,90.0,13.0,0.0
7115,66.0,0.0,390.0,11.0,0.0
7116,42.0,0.0,390.0,14.0,0.0
7117,67.0,120.0,120.0,7.0,0.0
7118,54.0,96.0,390.0,13.0,0.0
7119,66.0,0.0,390.0,12.0,0.0
7120,66.0,0.0,390.0,10.0,0.0
7121,70.0,120.0,120.0,7.0,0.0
7122,64.0,24.0,120.0,7.0,0.0
7123,67.0,120.0,120.0,7.0,0.0
7124,61.0,120.0,120.0,7.0,0.0
7125,64.0,80.0,120.0,7.0,0.0
7126,61.0,0.0,90.0,12.0,0.0
7127,59.0,40.0,120.0,7.0,0.0
7128,61.0,40.0,90.0,10.0,0.0
7129,37.0,0.0,90.0,14.0,0.0
7130,49.0,0.0,90.0,13.0,0.0
7131,61.0,0.0,90.0,11.0,0.0
7132,51.0,0.0,90.0,13.0,0.0
7133,39.0,0.0,90.0,14.0,0.0
7134,63.0,0.0,90.0,12.0,0.0
7135,63.0,80.0,90.0,11.0,0.0
7136,63.0,0.0,90.0,10.0,0.0
7137,64.0,0.0,120.0,7.0,0.0
7138,65.0,0.0,90.0,10.0,0.0
7139,65.0,0.0,90.0,11.0,0.0
7140,65.0,0.0,90.0,12.0,0.0
7141,53.0,0.0,90.0,13.0,0.0
7142,41.0,120.0,90.0,14.0,0.0
7143,54.0,0.0,300.0,13.0,0.0
7144,58.0,120.0,120.0,7.0,0.0
7145,66.0,48.0,300.0,10.0,0.0
7146,66.0,0.0,300.0,12.0,0.0
7147,42.0,0.0,300.0,14.0,0.0
7148,66.0,0.0,300.0,11.0,0.0
7149,61.0,72.0,120.0,7.0,0.0
7150,64.0,120.0,120.0,7.0,0.0
7151,67.0,120.0,120.0,7.0,0.0
7152,42.0,48.0,300.0,14.0,0.0
7153,66.0,0.0,300.0,11.0,0.0
7154,66.0,0.0,300.0,10.0,0.0
7155,66.0,0.0,300.0,12.0,0.0
7156,54.0,0.0,300.0,13.0,0.0
7157,66.0,120.0,120.0,7.0,0.0
7158,64.0,72.0,120.0,7.0,0.0
7159,62.0,120.0,120.0,7.0,0.0
7160,61.0,240.0,120.0,7.0,0.0
7161,47.0,96.0,390.0,14.0,0.0
7162,71.0,0.0,390.0,10.0,0.0
7163,47.0,0.0,2820.0,8.0,0.0
7164,71.0,0.0,390.0,12.0,0.0
7165,59.0,0.0,390.0,13.0,0.0
7166,86.0,0.0,390.0,0.0,0.0
7167,62.0,0.0,390.0,2.0,0.0
7168,59.0,0.0,390.0,2.0,0.0
7169,83.0,0.0,390.0,1.0,0.0
7170,71.0,0.0,390.0,11.0,0.0
7171,35.0,48.0,2820.0,8.0,0.0
7172,59.0,120.0,120.0,7.0,0.0
7173,62.0,24.0,120.0,7.0,0.0
7174,66.0,120.0,120.0,7.0,0.0
7175,71.0,120.0,120.0,7.0,0.0
7176,62.0,120.0,120.0,7.0,0.0
7177,66.0,120.0,120.0,7.0,0.0
7178,71.0,120.0,120.0,7.0,0.0
7179,74.0,120.0,120.0,7.0,0.0
7180,66.0,120.0,120.0,7.0,0.0
7181,71.0,120.0,120.0,7.0,0.0
7182,74.0,120.0,120.0,7.0,0.0
7183,78.0,120.0,120.0,7.0,0.0
7184,71.0,120.0,120.0,7.0,0.0
7185,74.0,120.0,120.0,7.0,0.0
7186,78.0,120.0,120.0,7.0,0.0
7187,83.0,120.0,120.0,7.0,0.0
7188,74.0,120.0,120.0,7.0,0.0
7189,78.0,120.0,120.0,7.0,0.0
7190,83.0,120.0,120.0,7.0,0.0
7191,86.0,120.0,120.0,7.0,0.0
7192,78.0,120.0,120.0,7.0,0.0
7193,83.0,72.0,120.0,7.0,0.0
7194,86.0,120.0,120.0,7.0,0.0
7195,90.0,120.0,120.0,7.0,0.0
7196,59.0,0.0,390.0,8.0,0.0
7197,47.0,96.0,390.0,8.0,0.0
7198,86.0,120.0,120.0,7.0,0.0
7199,83.0,24.0,120.0,7.0,0.0
7200,78.0,120.0,120.0,7.0,0.0
7201,57.0,96.0,390.0,8.0,0.0
7202,45.0,0.0,390.0,8.0,0.0
7203,90.0,120.0,120.0,7.0,0.0
7204,85.0,120.0,120.0,7.0,0.0
7205,81.0,24.0,120.0,7.0,0.0
7206,78.0,240.0,120.0,7.0,0.0
7207,68.0,0.0,390.0,10.0,0.0
7208,44.0,0.0,2820.0,8.0,0.0
7209,68.0,0.0,390.0,12.0,0.0
7210,56.0,0.0,390.0,13.0,0.0
7211,68.0,0.0,390.0,11.0,0.0
7212,90.0,0.0,3840.0,0.0,0.0
7213,84.0,0.0,3840.0,1.0,0.0
7214,87.0,0.0,3840.0,1.0,0.0
7215,66.0,0.0,3840.0,2.0,0.0
7216,44.0,96.0,390.0,14.0,0.0
7217,63.0,240.0,3840.0,2.0,0.0
7218,56.0,48.0,2820.0,8.0,0.0
7219,93.0,120.0,120.0,7.0,0.0
7220,90.0,24.0,120.0,7.0,0.0
7221,93.0,120.0,120.0,7.0,0.0
7222,87.0,120.0,120.0,7.0,0.0
7223,90.0,80.0,120.0,7.0,0.0
7224,51.0,40.0,90.0,13.0,0.0
7225,63.0,0.0,90.0,12.0,0.0
7226,63.0,0.0,90.0,10.0,0.0
7227,63.0,0.0,90.0,11.0,0.0
7228,39.0,0.0,90.0,14.0,0.0
7229,84.0,40.0,120.0,7.0,0.0
7230,41.0,0.0,90.0,14.0,0.0
7231,65.0,0.0,90.0,10.0,0.0
7232,65.0,0.0,90.0,11.0,0.0
7233,65.0,0.0,90.0,12.0,0.0
7234,53.0,80.0,90.0,13.0,0.0
7235,87.0,0.0,120.0,7.0,0.0
7236,54.0,0.0,90.0,13.0,0.0
7237,42.0,120.0,90.0,14.0,0.0
7238,66.0,0.0,90.0,10.0,0.0
7239,66.0,0.0,90.0,11.0,0.0
7240,66.0,0.0,90.0,12.0,0.0
7241,81.0,120.0,120.0,7.0,0.0
7242,68.0,0.0,390.0,11.0,0.0
7243,68.0,0.0,390.0,10.0,0.0
7244,44.0,0.0,390.0,14.0,0.0
7245,56.0,96.0,390.0,13.0,0.0
7246,68.0,0.0,390.0,12.0,0.0
7247,84.0,120.0,120.0,7.0,0.0
7248,78.0,24.0,120.0,7.0,0.0
7249,81.0,120.0,120.0,7.0,0.0
7250,75.0,120.0,120.0,7.0,0.0
7251,78.0,80.0,120.0,7.0,0.0
7252,51.0,40.0,90.0,13.0,0.0
7253,63.0,0.0,90.0,10.0,0.0
7254,63.0,0.0,90.0,12.0,0.0
7255,63.0,0.0,90.0,11.0,0.0
7256,72.0,40.0,120.0,7.0,0.0
7257,39.0,0.0,90.0,14.0,0.0
7258,65.0,0.0,90.0,12.0,0.0
7259,65.0,80.0,90.0,10.0,0.0
7260,53.0,0.0,90.0,13.0,0.0
7261,65.0,0.0,90.0,11.0,0.0
7262,41.0,0.0,90.0,14.0,0.0
7263,75.0,120.0,120.0,7.0,0.0
7264,66.0,0.0,90.0,12.0,0.0
7265,66.0,0.0,90.0,11.0,0.0
7266,42.0,0.0,90.0,14.0,0.0
7267,54.0,0.0,90.0,13.0,0.0
7268,66.0,0.0,90.0,10.0,0.0
7269,68.0,0.0,390.0,11.0,0.0
7270,69.0,120.0,120.0,7.0,0.0
7271,56.0,0.0,390.0,13.0,0.0
7272,44.0,0.0,390.0,14.0,0.0
7273,68.0,96.0,390.0,12.0,0.0
7274,68.0,0.0,390.0,10.0,0.0
7275,72.0,120.0,120.0,7.0,0.0
7276,66.0,24.0,120.0,7.0,0.0
7277,69.0,120.0,120.0,7.0,0.0
7278,63.0,120.0,120.0,7.0,0.0
7279,66.0,80.0,120.0,7.0,0.0
7280,39.0,0.0,90.0,14.0,0.0
7281,63.0,0.0,90.0,10.0,0.0
7282,51.0,40.0,90.0,13.0,0.0
7283,63.0,0.0,90.0,12.0,0.0
7284,61.0,40.0,120.0,7.0,0.0
7285,63.0,0.0,90.0,11.0,0.0
7286,41.0,0.0,90.0,14.0,0.0
7287,65.0,0.0,90.0,10.0,0.0
7288,65.0,32.0,90.0,12.0,0.0
7289,53.0,0.0,90.0,13.0,0.0
7290,65.0,0.0,90.0,11.0,0.0
7291,66.0,0.0,120.0,7.0,0.0
7292,66.0,0.0,90.0,11.0,0.0
7293,42.0,0.0,90.0,14.0,0.0
7294,66.0,120.0,90.0,12.0,0.0
7295,54.0,0.0,90.0,13.0,0.0
7296,66.0,0.0,90.0,10.0,0.0
7297,56.0,48.0,300.0,13.0,0.0
7298,44.0,0.0,300.0,14.0,0.0
7299,68.0,0.0,300.0,12.0,0.0
7300,68.0,0.0,300.0,11.0,0.0
7301,60.0,120.0,120.0,7.0,0.0
7302,68.0,0.0,300.0,10.0,0.0
7303,63.0,72.0,120.0,7.0,0.0
7304,66.0,120.0,120.0,7.0,0.0
7305,69.0,120.0,120.0,7.0,0.0
7306,56.0,0.0,300.0,13.0,0.0
7307,68.0,120.0,120.0,7.0,0.0
7308,68.0,0.0,300.0,10.0,0.0
7309,44.0,0.0,300.0,14.0,0.0
7310,68.0,0.0,300.0,12.0,0.0
7311,68.0,48.0,300.0,11.0,0.0
7312,66.0,72.0,120.0,7.0,0.0
7313,65.0,120.0,120.0,7.0,0.0
7314,66.0,0.0,120.0,7.0,0.0
7315,85.0,0.0,390.0,1.0,0.0
7316,61.0,0.0,7590.0,3.0,0.0
7317,49.0,96.0,7590.0,3.0,0.0
7318,49.0,0.0,390.0,13.0,0.0
7319,61.0,0.0,390.0,12.0,0.0
7320,61.0,0.0,390.0,11.0,0.0
7321,61.0,0.0,390.0,10.0,0.0
7322,37.0,96.0,390.0,14.0,0.0
7323,65.0,0.0,390.0,7.0,0.0
7324,89.0,0.0,390.0,0.0,0.0
7325,61.0,0.0,390.0,2.0,0.0
7326,65.0,0.0,390.0,2.0,0.0
7327,37.0,120.0,120.0,8.0,0.0
7328,41.0,24.0,120.0,8.0,0.0
7329,44.0,120.0,120.0,8.0,0.0
7330,49.0,120.0,120.0,8.0,0.0
7331,41.0,120.0,120.0,8.0,0.0
7332,44.0,120.0,120.0,8.0,0.0
7333,49.0,120.0,120.0,8.0,0.0
7334,53.0,120.0,120.0,8.0,0.0
7335,44.0,120.0,120.0,8.0,0.0
7336,49.0,120.0,120.0,8.0,0.0
7337,53.0,120.0,120.0,8.0,0.0
7338,56.0,120.0,120.0,8.0,0.0
7339,49.0,120.0,120.0,8.0,0.0
7340,53.0,120.0,120.0,8.0,0.0
7341,56.0,240.0,120.0,8.0,0.0
7342,61.0,96.0,390.0,8.0,0.0
7343,77.0,240.0,1920.0,1.0,0.0
7344,80.0,0.0,1920.0,1.0,0.0
7345,68.0,0.0,1920.0,2.0,0.0
7346,71.0,0.0,1920.0,2.0,0.0
7347,73.0,120.0,120.0,7.0,0.0
7348,75.0,24.0,120.0,7.0,0.0
7349,77.0,120.0,120.0,7.0,0.0
7350,78.0,120.0,120.0,7.0,0.0
7351,80.0,120.0,120.0,7.0,0.0
7352,81.0,120.0,120.0,7.0,0.0
7353,83.0,120.0,120.0,7.0,0.0
7354,85.0,120.0,120.0,7.0,0.0
7355,87.0,120.0,120.0,7.0,0.0
7356,89.0,120.0,120.0,7.0,0.0
7357,90.0,144.0,120.0,7.0,0.0
7358,92.0,240.0,150.0,7.0,0.0
7359,83.0,96.0,150.0,7.0,0.0
7360,66.0,0.0,390.0,2.0,0.0
7361,78.0,0.0,390.0,1.0,0.0
7362,81.0,0.0,390.0,7.0,0.0
7363,78.0,0.0,390.0,7.0,0.0
7364,73.0,0.0,390.0,7.0,0.0
7365,69.0,0.0,390.0,2.0,0.0
7366,81.0,96.0,390.0,1.0,0.0
7367,37.0,120.0,120.0,8.0,0.0
7368,42.0,24.0,120.0,8.0,0.0
7369,45.0,120.0,120.0,8.0,0.0
7370,49.0,120.0,120.0,8.0,0.0
7371,42.0,120.0,120.0,8.0,0.0
7372,45.0,120.0,120.0,8.0,0.0
7373,49.0,120.0,120.0,8.0,0.0
7374,54.0,120.0,120.0,8.0,0.0
7375,45.0,120.0,120.0,8.0,0.0
7376,49.0,120.0,120.0,8.0,0.0
7377,54.0,120.0,120.0,8.0,0.0
7378,57.0,120.0,120.0,8.0,0.0
7379,49.0,120.0,120.0,8.0,0.0
7380,54.0,120.0,120.0,8.0,0.0
7381,57.0,240.0,120.0,8.0,0.0
7382,81.0,0.0,2310.0,1.0,0.0
7383,85.0,240.0,1920.0,1.0,0.0
7384,66.0,0.0,2310.0,2.0,0.0
7385,61.0,96.0,390.0,8.0,0.0
7386,69.0,96.0,2310.0,2.0,0.0
7387,73.0,120.0,120.0,7.0,0.0
7388,75.0,24.0,120.0,7.0,0.0
7389,77.0,120.0,120.0,7.0,0.0
7390,78.0,120.0,120.0,7.0,0.0
7391,80.0,120.0,120.0,7.0,0.0
7392,81.0,120.0,120.0,7.0,0.0
7393,83.0,120.0,120.0,7.0,0.0
7394,85.0,120.0,120.0,7.0,0.0
7395,89.0,120.0,120.0,7.0,0.0
7396,90.0,120.0,120.0,7.0,0.0
7397,92.0,144.0,120.0,7.0,0.0
7398,93.0,240.0,150.0,7.0,0.0
7399,85.0,0.0,150.0,7.0,0.0
7400,84.0,0.0,390.0,1.0,0.0
7401,54.0,96.0,3750.0,3.0,0.0
7402,66.0,0.0,3750.0,3.0,0.0
7403,78.0,0.0,390.0,7.0,0.0
7404,81.0,0.0,390.0,7.0,0.0
7405,84.0,0.0,390.0,7.0,0.0
7406,38.0,120.0,120.0,8.0,0.0
7407,42.0,24.0,120.0,8.0,0.0
7408,45.0,120.0,120.0,8.0,0.0
7409,50.0,120.0,120.0,8.0,0.0
7410,42.0,120.0,120.0,8.0,0.0
7411,45.0,120.0,120.0,8.0,0.0
7412,50.0,120.0,120.0,8.0,0.0
7413,54.0,120.0,120.0,8.0,0.0
7414,45.0,120.0,120.0,8.0,0.0
7415,50.0,120.0,120.0,8.0,0.0
7416,54.0,120.0,120.0,8.0,0.0
7417,57.0,120.0,120.0,8.0,0.0
7418,50.0,120.0,120.0,8.0,0.0
7419,54.0,120.0,120.0,8.0,0.0
7420,57.0,240.0,120.0,8.0,0.0
7421,62.0,96.0,390.0,8.0,0.0
7422,62.0,0.0,1830.0,2.0,0.0
7423,78.0,0.0,1830.0,1.0,0.0
7424,83.0,0.0,1830.0,1.0,0.0
7425,66.0,0.0,1830.0,2.0,0.0
7426,89.0,120.0,120.0,7.0,0.0
7427,92.0,24.0,120.0,7.0,0.0
7428,90.0,120.0,120.0,7.0,0.0
7429,89.0,120.0,120.0,7.0,0.0
7430,90.0,120.0,120.0,7.0,0.0
7431,88.0,120.0,120.0,7.0,0.0
7432,90.0,120.0,120.0,7.0,0.0
7433,87.0,120.0,120.0,7.0,0.0
7434,90.0,120.0,120.0,7.0,0.0
7435,86.0,120.0,120.0,7.0,0.0
7436,90.0,120.0,120.0,7.0,0.0
7437,85.0,120.0,120.0,7.0,0.0
7438,90.0,120.0,120.0,7.0,0.0
7439,84.0,24.0,120.0,7.0,0.0
7440,90.0,120.0,120.0,7.0,0.0
7441,56.0,0.0,390.0,8.0,0.0
7442,49.0,96.0,390.0,8.0,0.0
7443,61.0,0.0,390.0,8.0,0.0
7444,53.0,0.0,390.0,8.0,0.0
7445,77.0,0.0,960.0,1.0,0.0
7446,49.0,0.0,3750.0,3.0,0.0
7447,89.0,120.0,120.0,7.0,0.0
7448,85.0,0.0,960.0,1.0,0.0
7449,61.0,0.0,960.0,2.0,0.0
7450,68.0,0.0,960.0,2.0,0.0
7451,61.0,48.0,3750.0,3.0,0.0
7452,85.0,120.0,120.0,7.0,0.0
7453,92.0,24.0,120.0,7.0,0.0
7454,89.0,120.0,120.0,7.0,0.0
7455,85.0,120.0,120.0,7.0,0.0
7456,80.0,120.0,120.0,7.0,0.0
7457,77.0,120.0,120.0,7.0,0.0
7458,73.0,120.0,120.0,7.0,0.0
7459,49.0,0.0,390.0,8.0,0.0
7460,54.0,0.0,390.0,8.0,0.0
7461,66.0,0.0,930.0,2.0,0.0
7462,57.0,0.0,930.0,2.0,0.0
7463,61.0,96.0,390.0,8.0,0.0
7464,81.0,20.0,930.0,1.0,0.0
7465,78.0,0.0,930.0,1.0,0.0
7466,81.0,120.0,120.0,7.0,0.0
7467,57.0,0.0,390.0,8.0,0.0
7468,78.0,120.0,120.0,7.0,0.0
7469,85.0,24.0,120.0,7.0,0.0
7470,81.0,120.0,120.0,7.0,0.0
7471,78.0,120.0,120.0,7.0,0.0
7472,73.0,120.0,120.0,7.0,0.0
7473,69.0,100.0,120.0,7.0,0.0
7474,66.0,120.0,120.0,7.0,0.0
7475,56.0,120.0,960.0,2.0,0.0
7476,65.0,0.0,960.0,2.0,0.0
7477,41.0,96.0,390.0,8.0,0.0
7478,37.0,0.0,390.0,8.0,0.0
7479,49.0,0.0,390.0,8.0,0.0
7480,44.0,0.0,390.0,8.0,0.0
7481,80.0,0.0,960.0,1.0,0.0
7482,77.0,0.0,960.0,1.0,0.0
7483,77.0,120.0,120.0,7.0,0.0
7484,73.0,120.0,120.0,7.0,0.0
7485,80.0,24.0,120.0,7.0,0.0
7486,77.0,120.0,120.0,7.0,0.0
7487,73.0,120.0,120.0,7.0,0.0
7488,68.0,120.0,120.0,7.0,0.0
7489,65.0,120.0,120.0,7.0,0.0
7490,61.0,0.0,120.0,7.0,0.0
7491,37.0,0.0,390.0,8.0,0.0
7492,49.0,0.0,390.0,8.0,0.0
7493,42.0,96.0,390.0,8.0,0.0
7494,69.0,120.0,120.0,7.0,0.0
7495,45.0,0.0,390.0,8.0,0.0
7496,66.0,48.0,900.0,2.0,0.0
7497,81.0,0.0,900.0,1.0,0.0
7498,78.0,0.0,900.0,1.0,0.0
7499,69.0,0.0,900.0,2.0,0.0
7500,66.0,120.0,120.0,7.0,0.0
7501,73.0,24.0,120.0,7.0,0.0
7502,69.0,120.0,120.0,7.0,0.0
7503,66.0,120.0,120.0,7.0,0.0
7504,61.0,120.0,120.0,7.0,0.0
7505,57.0,24.0,120.0,7.0,0.0
7506,54.0,120.0,120.0,7.0,0.0
7507,49.0,0.0,390.0,3.0,0.0
7508,77.0,0.0,390.0,1.0,0.0
7509,61.0,0.0,690.0,6.0,0.0
7510,61.0,0.0,390.0,3.0,0.0
7511,80.0,96.0,390.0,1.0,0.0
7512,53.0,36.0,690.0,6.0,0.0
7513,65.0,0.0,390.0,2.0,0.0
7514,68.0,0.0,390.0,2.0,0.0
7515,37.0,120.0,120.0,8.0,0.0
7516,49.0,120.0,120.0,8.0,0.0
7517,37.0,24.0,120.0,8.0,0.0
7518,49.0,120.0,120.0,8.0,0.0
7519,37.0,84.0,120.0,8.0,0.0
7520,49.0,120.0,120.0,8.0,0.0
7521,54.0,0.0,240.0,6.0,0.0
7522,38.0,108.0,120.0,8.0,0.0
7523,60.0,12.0,240.0,6.0,0.0
7524,50.0,120.0,120.0,8.0,0.0
7525,37.0,108.0,120.0,8.0,0.0
7526,53.0,0.0,240.0,6.0,0.0
7527,61.0,12.0,240.0,6.0,0.0
7528,49.0,120.0,120.0,8.0,0.0
7529,60.0,12.0,240.0,6.0,0.0
7530,38.0,108.0,120.0,8.0,0.0
7531,54.0,0.0,240.0,6.0,0.0
7532,50.0,120.0,120.0,8.0,0.0
7533,53.0,12.0,240.0,6.0,0.0
7534,37.0,108.0,120.0,8.0,0.0
7535,61.0,0.0,240.0,6.0,0.0
7536,49.0,120.0,120.0,8.0,0.0
7537,60.0,12.0,240.0,6.0,0.0
7538,54.0,0.0,240.0,6.0,0.0
7539,38.0,108.0,120.0,8.0,0.0
7540,50.0,120.0,120.0,8.0,0.0
7541,53.0,36.0,690.0,6.0,0.0
7542,37.0,120.0,120.0,8.0,0.0
7543,61.0,0.0,690.0,6.0,0.0
7544,49.0,120.0,120.0,8.0,0.0
7545,37.0,120.0,120.0,8.0,0.0
7546,49.0,120.0,120.0,8.0,0.0
7547,37.0,84.0,120.0,8.0,0.0
7548,49.0,120.0,120.0,8.0,0.0
7549,38.0,108.0,120.0,8.0,0.0
7550,60.0,12.0,240.0,6.0,0.0
7551,54.0,0.0,240.0,6.0,0.0
7552,50.0,120.0,120.0,8.0,0.0
7553,53.0,12.0,240.0,6.0,0.0
7554,37.0,108.0,120.0,8.0,0.0
7555,61.0,0.0,240.0,6.0,0.0
7556,49.0,120.0,120.0,8.0,0.0
7557,38.0,108.0,120.0,8.0,0.0
7558,54.0,0.0,240.0,6.0,0.0
7559,60.0,12.0,240.0,6.0,0.0
7560,50.0,120.0,120.0,8.0,0.0
7561,53.0,12.0,240.0,6.0,0.0
7562,61.0,0.0,240.0,6.0,0.0
7563,37.0,108.0,120.0,8.0,0.0
7564,49.0,120.0,120.0,8.0,0.0
7565,60.0,12.0,240.0,6.0,0.0
7566,54.0,0.0,240.0,6.0,0.0
7567,38.0,108.0,120.0,8.0,0.0
7568,50.0,384.0,120.0,8.0,0.0
7569,37.0,576.0,390.0,8.0,0.0
7570,53.0,0.0,390.0,6.0,0.0
7571,61.0,0.0,390.0,6.0,0.0
7572,49.0,0.0,390.0,8.0,0.0
7573,58.0,0.0,240.0,6.0,0.0
7574,46.0,384.0,240.0,8.0,0.0
7575,59.0,576.0,390.0,6.0,0.0
7576,47.0,0.0,390.0,8.0,0.0
7577,48.0,384.0,240.0,8.0,0.0
7578,60.0,0.0,240.0,6.0,0.0
7579,49.0,0.0,390.0,8.0,0.0
7580,61.0,564.0,390.0,6.0,0.0
7581,49.0,240.0,240.0,8.0,0.0
7582,61.0,0.0,240.0,6.0,0.0
7583,37.0,0.0,240.0,8.0,0.0
7584,38.0,0.0,240.0,8.0,0.0
7585,50.0,240.0,240.0,8.0,0.0
7586,62.0,0.0,240.0,6.0,0.0
7587,51.0,0.0,240.0,8.0,0.0
7588,39.0,0.0,240.0,8.0,0.0
7589,63.0,240.0,240.0,6.0,0.0
7590,64.0,240.0,240.0,6.0,0.0
7591,52.0,0.0,240.0,8.0,0.0
7592,40.0,0.0,240.0,8.0,0.0
7593,41.0,204.0,240.0,8.0,0.0
7594,65.0,0.0,240.0,6.0,0.0
7595,53.0,0.0,240.0,8.0,0.0
7596,42.0,336.0,780.0,14.0,0.0
7597,66.0,0.0,180.0,10.0,0.0
7598,42.0,0.0,390.0,8.0,0.0
7599,54.0,240.0,390.0,8.0,0.0
7600,57.0,192.0,180.0,12.0,0.0
7601,61.0,0.0,180.0,11.0,0.0
7602,66.0,0.0,390.0,6.0,0.0
7603,54.0,0.0,780.0,13.0,0.0
7604,61.0,0.0,390.0,11.0,0.0
7605,57.0,144.0,390.0,12.0,0.0
7606,66.0,0.0,390.0,10.0,0.0
7607,61.0,0.0,390.0,11.0,0.0
7608,66.0,0.0,390.0,10.0,0.0
7609,57.0,480.0,390.0,12.0,0.0
7610,66.0,0.0,390.0,10.0,0.0
7611,61.0,0.0,390.0,11.0,0.0
7612,57.0,176.0,390.0,12.0,0.0
7613,57.0,432.0,420.0,12.0,0.0
7614,66.0,0.0,420.0,10.0,0.0
7615,61.0,0.0,420.0,11.0,0.0
7616,49.0,0.0,90.0,13.0,0.0
7617,37.0,80.0,90.0,14.0,0.0
7618,51.0,0.0,90.0,13.0,0.0
7619,39.0,80.0,90.0,14.0,0.0
7620,53.0,192.0,90.0,13.0,0.0
7621,41.0,0.0,90.0,14.0,0.0
7622,42.0,336.0,780.0,14.0,0.0
7623,54.0,0.0,780.0,13.0,0.0
7624,66.0,144.0,390.0,10.0,0.0
7625,61.0,0.0,390.0,11.0,0.0
7626,57.0,0.0,390.0,12.0,0.0
7627,57.0,0.0,390.0,12.0,0.0
7628,61.0,480.0,390.0,11.0,0.0
7629,66.0,0.0,390.0,10.0,0.0
7630,57.0,0.0,390.0,12.0,0.0
7631,61.0,176.0,390.0,11.0,0.0
7632,66.0,0.0,390.0,10.0,0.0
7633,57.0,0.0,420.0,12.0,0.0
7634,66.0,432.0,420.0,10.0,0.0
7635,37.0,0.0,90.0,14.0,0.0
7636,49.0,80.0,90.0,13.0,0.0
7637,61.0,0.0,420.0,11.0,0.0
7638,51.0,80.0,90.0,13.0,0.0
7639,39.0,0.0,90.0,14.0,0.0
7640,41.0,192.0,90.0,14.0,0.0
7641,53.0,0.0,90.0,13.0,0.0
7642,42.0,0.0,780.0,14.0,0.0
7643,54.0,336.0,780.0,13.0,0.0
7644,61.0,0.0,390.0,10.0,0.0
7645,61.0,144.0,390.0,11.0,0.0
7646,57.0,0.0,390.0,12.0,0.0
7647,61.0,480.0,390.0,11.0,0.0
7648,69.0,0.0,390.0,10.0,0.0
7649,54.0,0.0,390.0,12.0,0.0
7650,68.0,0.0,390.0,10.0,0.0
7651,56.0,0.0,390.0,12.0,0.0
7652,61.0,156.0,390.0,11.0,0.0
7653,66.0,0.0,420.0,10.0,0.0
7654,49.0,60.0,60.0,13.0,0.0
7655,37.0,0.0,60.0,14.0,0.0
7656,61.0,0.0,420.0,11.0,0.0
7657,57.0,192.0,240.0,12.0,0.0
7658,39.0,60.0,60.0,14.0,0.0
7659,51.0,0.0,60.0,13.0,0.0
7660,41.0,60.0,60.0,14.0,0.0
7661,53.0,0.0,60.0,13.0,0.0
7662,54.0,0.0,60.0,13.0,0.0
7663,42.0,0.0,60.0,14.0,0.0
7664,56.0,0.0,780.0,13.0,0.0
7665,44.0,336.0,780.0,14.0,0.0
7666,59.0,432.0,180.0,12.0,0.0
7667,61.0,0.0,390.0,11.0,0.0
7668,65.0,144.0,390.0,10.0,0.0
7669,59.0,0.0,390.0,12.0,0.0
7670,59.0,0.0,390.0,12.0,0.0
7671,65.0,480.0,390.0,10.0,0.0
7672,61.0,0.0,390.0,11.0,0.0
7673,61.0,0.0,390.0,11.0,0.0
7674,59.0,0.0,390.0,12.0,0.0
7675,65.0,528.0,390.0,10.0,0.0
7676,61.0,432.0,420.0,11.0,0.0
7677,67.0,0.0,420.0,10.0,0.0
7678,59.0,0.0,420.0,12.0,0.0
7679,41.0,336.0,780.0,14.0,0.0
7680,53.0,0.0,780.0,13.0,0.0
7681,59.0,0.0,390.0,12.0,0.0
7682,61.0,0.0,390.0,11.0,0.0
7683,68.0,144.0,390.0,10.0,0.0
7684,68.0,0.0,390.0,10.0,0.0
7685,59.0,480.0,390.0,12.0,0.0
7686,61.0,0.0,390.0,11.0,0.0
7687,68.0,216.0,390.0,10.0,0.0
7688,61.0,0.0,390.0,11.0,0.0
7689,59.0,0.0,390.0,12.0,0.0
7690,68.0,0.0,420.0,10.0,0.0
7691,37.0,0.0,120.0,14.0,0.0
7692,49.0,120.0,120.0,13.0,0.0
7693,59.0,0.0,420.0,12.0,0.0
7694,61.0,432.0,420.0,11.0,0.0
7695,51.0,0.0,120.0,13.0,0.0
7696,39.0,192.0,120.0,14.0,0.0
7697,41.0,0.0,780.0,14.0,0.0
7698,53.0,336.0,780.0,13.0,0.0
7699,68.0,0.0,390.0,10.0,0.0
7700,59.0,144.0,390.0,12.0,0.0
7701,61.0,0.0,390.0,11.0,0.0
7702,61.0,0.0,390.0,11.0,0.0
7703,68.0,480.0,390.0,10.0,0.0
7704,59.0,0.0,390.0,12.0,0.0
7705,61.0,0.0,390.0,11.0,0.0
7706,59.0,0.0,390.0,12.0,0.0
7707,68.0,216.0,390.0,10.0,0.0
7708,61.0,432.0,420.0,11.0,0.0
7709,68.0,0.0,420.0,10.0,0.0
7710,37.0,120.0,120.0,14.0,0.0
7711,59.0,0.0,420.0,12.0,0.0
7712,49.0,0.0,120.0,13.0,0.0
7713,51.0,0.0,120.0,13.0,0.0
7714,39.0,192.0,120.0,14.0,0.0
7715,41.0,336.0,780.0,14.0,0.0
7716,53.0,0.0,780.0,13.0,0.0
7717,59.0,0.0,390.0,12.0,0.0
7718,61.0,0.0,390.0,11.0,0.0
7719,61.0,144.0,390.0,10.0,0.0
7720,61.0,480.0,390.0,11.0,0.0
7721,56.0,0.0,390.0,12.0,0.0
7722,71.0,0.0,390.0,10.0,0.0
7723,69.0,0.0,390.0,10.0,0.0
7724,61.0,176.0,390.0,11.0,0.0
7725,57.0,0.0,390.0,12.0,0.0
7726,61.0,432.0,420.0,11.0,0.0
7727,49.0,0.0,90.0,13.0,0.0
7728,59.0,192.0,240.0,12.0,0.0
7729,68.0,0.0,420.0,10.0,0.0
7730,37.0,80.0,90.0,14.0,0.0
7731,39.0,0.0,90.0,14.0,0.0
7732,51.0,80.0,90.0,13.0,0.0
7733,53.0,0.0,90.0,13.0,0.0
7734,41.0,0.0,90.0,14.0,0.0
7735,54.0,336.0,780.0,13.0,0.0
7736,42.0,0.0,780.0,14.0,0.0
7737,57.0,0.0,180.0,12.0,0.0
7738,57.0,144.0,390.0,12.0,0.0
7739,61.0,0.0,390.0,11.0,0.0
7740,66.0,0.0,390.0,10.0,0.0
7741,61.0,0.0,390.0,11.0,0.0
7742,66.0,0.0,390.0,10.0,0.0
7743,57.0,456.0,390.0,12.0,0.0
7744,54.0,120.0,3840.0,3.0,0.0
7745,66.0,0.0,3840.0,3.0,0.0
7746,66.0,0.0,390.0,10.0,0.0
7747,57.0,0.0,390.0,12.0,0.0
7748,66.0,96.0,390.0,11.0,0.0
7749,66.0,24.0,120.0,6.0,0.0
7750,78.0,80.0,120.0,6.0,0.0
7751,54.0,0.0,90.0,8.0,0.0
7752,66.0,40.0,120.0,6.0,0.0
7753,54.0,40.0,90.0,13.0,0.0
7754,61.0,0.0,240.0,12.0,0.0
7755,66.0,0.0,420.0,11.0,0.0
7756,66.0,0.0,240.0,10.0,0.0
7757,56.0,0.0,90.0,13.0,0.0
7758,56.0,80.0,90.0,8.0,0.0
7759,78.0,0.0,120.0,6.0,0.0
7760,57.0,0.0,90.0,13.0,0.0
7761,57.0,120.0,90.0,8.0,0.0
7762,67.0,24.0,120.0,6.0,0.0
7763,62.0,48.0,180.0,12.0,0.0
7764,67.0,48.0,150.0,10.0,0.0
7765,59.0,96.0,390.0,13.0,0.0
7766,59.0,0.0,390.0,8.0,0.0
7767,79.0,120.0,120.0,6.0,0.0
7768,66.0,0.0,390.0,11.0,0.0
7769,67.0,0.0,150.0,10.0,0.0
7770,67.0,24.0,120.0,6.0,0.0
7771,62.0,96.0,390.0,12.0,0.0
7772,79.0,120.0,120.0,6.0,0.0
7773,68.0,24.0,120.0,6.0,0.0
7774,80.0,80.0,120.0,6.0,0.0
7775,68.0,40.0,120.0,6.0,0.0
7776,66.0,0.0,390.0,11.0,0.0
7777,62.0,0.0,240.0,12.0,0.0
7778,56.0,0.0,90.0,8.0,0.0
7779,56.0,40.0,90.0,13.0,0.0
7780,68.0,0.0,240.0,10.0,0.0
7781,57.0,80.0,90.0,13.0,0.0
7782,57.0,0.0,90.0,8.0,0.0
7783,80.0,0.0,120.0,6.0,0.0
7784,59.0,0.0,90.0,13.0,0.0
7785,59.0,120.0,90.0,8.0,0.0
7786,61.0,96.0,390.0,13.0,0.0
7787,69.0,24.0,120.0,6.0,0.0
7788,61.0,0.0,390.0,8.0,0.0
7789,69.0,48.0,150.0,10.0,0.0
7790,64.0,48.0,180.0,12.0,0.0
7791,81.0,120.0,120.0,6.0,0.0
7792,69.0,0.0,150.0,10.0,0.0
7793,64.0,96.0,390.0,12.0,0.0
7794,66.0,0.0,390.0,11.0,0.0
7795,69.0,24.0,120.0,6.0,0.0
7796,81.0,120.0,120.0,6.0,0.0
7797,70.0,24.0,120.0,6.0,0.0
7798,82.0,80.0,120.0,6.0,0.0
7799,64.0,120.0,240.0,12.0,0.0
7800,66.0,72.0,1020.0,11.0,0.0
7801,58.0,0.0,90.0,13.0,0.0
7802,70.0,0.0,240.0,10.0,0.0
7803,58.0,40.0,90.0,8.0,0.0
7804,70.0,40.0,120.0,6.0,0.0
7805,59.0,0.0,90.0,13.0,0.0
7806,59.0,80.0,90.0,8.0,0.0
7807,82.0,0.0,120.0,6.0,0.0
7808,61.0,0.0,90.0,13.0,0.0
7809,61.0,0.0,90.0,8.0,0.0
7810,71.0,24.0,120.0,6.0,0.0
7811,62.0,0.0,780.0,12.0,0.0
7812,62.0,0.0,780.0,8.0,0.0
7813,71.0,96.0,150.0,10.0,0.0
7814,62.0,0.0,780.0,13.0,0.0
7815,83.0,120.0,120.0,6.0,0.0
7816,71.0,96.0,150.0,10.0,0.0
7817,71.0,24.0,120.0,6.0,0.0
7818,83.0,120.0,120.0,6.0,0.0
7819,74.0,24.0,120.0,6.0,0.0
7820,74.0,96.0,150.0,10.0,0.0
7821,86.0,48.0,120.0,6.0,0.0
7822,74.0,24.0,120.0,6.0,0.0
7823,74.0,96.0,150.0,10.0,0.0
7824,86.0,0.0,120.0,6.0,0.0
7825,78.0,96.0,150.0,10.0,0.0
7826,78.0,24.0,120.0,6.0,0.0
7827,90.0,120.0,120.0,6.0,0.0
7828,78.0,96.0,150.0,10.0,0.0
7829,78.0,24.0,120.0,6.0,0.0
7830,90.0,120.0,120.0,6.0,0.0
7831,68.0,120.0,120.0,6.0,0.0
7832,80.0,80.0,120.0,6.0,0.0
7833,56.0,40.0,90.0,13.0,0.0
7834,68.0,40.0,120.0,6.0,0.0
7835,68.0,0.0,240.0,10.0,0.0
7836,56.0,0.0,90.0,8.0,0.0
7837,57.0,80.0,90.0,8.0,0.0
7838,57.0,0.0,90.0,13.0,0.0
7839,80.0,120.0,120.0,6.0,0.0
7840,59.0,0.0,90.0,13.0,0.0
7841,59.0,0.0,90.0,8.0,0.0
7842,61.0,0.0,390.0,13.0,0.0
7843,68.0,120.0,2880.0,2.0,0.0
7844,68.0,48.0,180.0,11.0,0.0
7845,56.0,0.0,2880.0,2.0,0.0
7846,69.0,48.0,150.0,10.0,0.0
7847,64.0,0.0,180.0,12.0,0.0
7848,61.0,96.0,390.0,8.0,0.0
7849,69.0,24.0,120.0,6.0,0.0
7850,81.0,120.0,120.0,6.0,0.0
7851,68.0,96.0,390.0,11.0,0.0
7852,64.0,0.0,390.0,12.0,0.0
7853,69.0,0.0,150.0,10.0,0.0
7854,69.0,24.0,120.0,6.0,0.0
7855,81.0,120.0,120.0,6.0,0.0
7856,70.0,24.0,120.0,6.0,0.0
7857,82.0,80.0,120.0,6.0,0.0
7858,64.0,0.0,240.0,12.0,0.0
7859,58.0,0.0,90.0,8.0,0.0
7860,70.0,0.0,240.0,10.0,0.0
7861,68.0,0.0,390.0,11.0,0.0
7862,58.0,40.0,90.0,13.0,0.0
7863,70.0,40.0,120.0,6.0,0.0
7864,59.0,80.0,90.0,8.0,0.0
7865,59.0,0.0,90.0,13.0,0.0
7866,82.0,120.0,120.0,6.0,0.0
7867,61.0,0.0,90.0,8.0,0.0
7868,61.0,0.0,90.0,13.0,0.0
7869,62.0,0.0,390.0,8.0,0.0
7870,62.0,96.0,390.0,13.0,0.0
7871,71.0,48.0,150.0,10.0,0.0
7872,66.0,48.0,180.0,12.0,0.0
7873,71.0,24.0,120.0,6.0,0.0
7874,83.0,120.0,120.0,6.0,0.0
7875,71.0,24.0,120.0,6.0,0.0
7876,71.0,0.0,150.0,10.0,0.0
7877,66.0,96.0,390.0,12.0,0.0
7878,68.0,0.0,390.0,11.0,0.0
7879,83.0,120.0,120.0,6.0,0.0
7880,72.0,24.0,120.0,6.0,0.0
7881,84.0,80.0,120.0,6.0,0.0
7882,72.0,40.0,120.0,6.0,0.0
7883,68.0,72.0,1020.0,11.0,0.0
7884,72.0,0.0,240.0,10.0,0.0
7885,66.0,0.0,240.0,12.0,0.0
7886,60.0,40.0,90.0,8.0,0.0
7887,60.0,0.0,90.0,13.0,0.0
7888,61.0,80.0,90.0,8.0,0.0
7889,61.0,0.0,90.0,13.0,0.0
7890,84.0,120.0,120.0,6.0,0.0
7891,63.0,0.0,90.0,8.0,0.0
7892,63.0,0.0,90.0,13.0,0.0
7893,73.0,96.0,150.0,10.0,0.0
7894,64.0,0.0,780.0,12.0,0.0
7895,64.0,0.0,780.0,13.0,0.0
7896,64.0,0.0,780.0,8.0,0.0
7897,73.0,24.0,120.0,6.0,0.0
7898,85.0,120.0,120.0,6.0,0.0
7899,73.0,24.0,120.0,6.0,0.0
7900,73.0,96.0,150.0,10.0,0.0
7901,85.0,120.0,120.0,6.0,0.0
7902,76.0,96.0,150.0,10.0,0.0
7903,76.0,24.0,120.0,6.0,0.0
7904,88.0,48.0,120.0,6.0,0.0
7905,76.0,96.0,150.0,10.0,0.0
7906,76.0,24.0,120.0,6.0,0.0
7907,88.0,0.0,120.0,6.0,0.0
7908,80.0,24.0,120.0,6.0,0.0
7909,80.0,96.0,150.0,10.0,0.0
7910,73.0,96.0,3360.0,1.0,0.0
7911,85.0,0.0,3840.0,1.0,0.0
7912,92.0,120.0,120.0,6.0,0.0
7913,80.0,24.0,120.0,6.0,0.0
7914,80.0,96.0,150.0,10.0,0.0
7915,92.0,120.0,120.0,6.0,0.0
7916,73.0,120.0,120.0,6.0,0.0
7917,85.0,80.0,120.0,6.0,0.0
7918,61.0,0.0,90.0,8.0,0.0
7919,61.0,40.0,90.0,13.0,0.0
7920,73.0,40.0,120.0,6.0,0.0
7921,73.0,0.0,240.0,10.0,0.0
7922,63.0,80.0,90.0,8.0,0.0
7923,63.0,0.0,90.0,13.0,0.0
7924,85.0,96.0,120.0,6.0,0.0
7925,64.0,0.0,90.0,8.0,0.0
7926,64.0,0.0,90.0,13.0,0.0
7927,66.0,0.0,390.0,13.0,0.0
7928,74.0,48.0,150.0,10.0,0.0
7929,66.0,0.0,390.0,8.0,0.0
7930,74.0,48.0,90.0,6.0,0.0
7931,69.0,0.0,180.0,12.0,0.0
7932,73.0,24.0,180.0,11.0,0.0
7933,86.0,120.0,90.0,6.0,0.0
7934,73.0,0.0,390.0,11.0,0.0
7935,69.0,72.0,390.0,12.0,0.0
7936,74.0,72.0,150.0,10.0,0.0
7937,74.0,48.0,90.0,6.0,0.0
7938,86.0,120.0,90.0,6.0,0.0
7939,75.0,48.0,90.0,6.0,0.0
7940,87.0,104.0,90.0,6.0,0.0
7941,63.0,0.0,90.0,13.0,0.0
7942,69.0,0.0,240.0,12.0,0.0
7943,75.0,0.0,240.0,10.0,0.0
7944,63.0,16.0,90.0,8.0,0.0
7945,73.0,0.0,390.0,11.0,0.0
7946,75.0,64.0,90.0,6.0,0.0
7947,64.0,0.0,90.0,13.0,0.0
7948,64.0,56.0,90.0,8.0,0.0
7949,87.0,24.0,90.0,6.0,0.0
7950,66.0,0.0,90.0,8.0,0.0
7951,66.0,96.0,90.0,13.0,0.0
7952,76.0,48.0,150.0,10.0,0.0
7953,71.0,24.0,180.0,12.0,0.0
7954,76.0,48.0,90.0,6.0,0.0
7955,68.0,0.0,390.0,13.0,0.0
7956,68.0,0.0,390.0,8.0,0.0
7957,88.0,120.0,90.0,6.0,0.0
7958,73.0,72.0,390.0,11.0,0.0
7959,71.0,0.0,390.0,12.0,0.0
7960,76.0,48.0,90.0,6.0,0.0
7961,76.0,72.0,150.0,10.0,0.0
7962,88.0,120.0,90.0,6.0,0.0
7963,77.0,48.0,90.0,6.0,0.0
7964,89.0,104.0,90.0,6.0,0.0
7965,77.0,0.0,240.0,10.0,0.0
7966,77.0,64.0,90.0,6.0,0.0
7967,65.0,0.0,90.0,8.0,0.0
7968,73.0,24.0,420.0,11.0,0.0
7969,65.0,16.0,90.0,13.0,0.0
7970,71.0,0.0,240.0,12.0,0.0
7971,66.0,56.0,90.0,8.0,0.0
7972,66.0,0.0,90.0,13.0,0.0
7973,89.0,24.0,90.0,6.0,0.0
7974,68.0,96.0,90.0,8.0,0.0
7975,68.0,0.0,90.0,13.0,0.0
7976,78.0,96.0,90.0,6.0,0.0
7977,78.0,0.0,180.0,10.0,0.0
7978,69.0,72.0,390.0,12.0,0.0
7979,69.0,24.0,300.0,13.0,0.0
7980,69.0,0.0,300.0,8.0,0.0
7981,80.0,96.0,90.0,6.0,0.0
7982,78.0,72.0,390.0,10.0,0.0
7983,81.0,48.0,90.0,6.0,0.0
7984,73.0,0.0,390.0,11.0,0.0
7985,83.0,24.0,90.0,6.0,0.0
7986,85.0,48.0,90.0,6.0,0.0
7987,57.0,0.0,300.0,13.0,0.0
7988,90.0,48.0,720.0,0.0,0.0
7989,66.0,24.0,780.0,12.0,0.0
7990,57.0,24.0,300.0,8.0,0.0
7991,87.0,96.0,90.0,6.0,0.0
7992,73.0,96.0,240.0,11.0,0.0
7993,78.0,48.0,390.0,10.0,0.0
7994,89.0,120.0,90.0,6.0,0.0
7995,90.0,24.0,90.0,6.0,0.0
7996,59.0,24.0,300.0,13.0,0.0
7997,88.0,48.0,90.0,6.0,0.0
7998,86.0,0.0,240.0,1.0,0.0
7999,59.0,0.0,300.0,8.0,0.0
8000,74.0,24.0,180.0,11.0,0.0
8001,90.0,24.0,90.0,6.0,0.0
8002,85.0,72.0,480.0,1.0,0.0
8003,73.0,0.0,390.0,11.0,0.0
8004,76.0,72.0,390.0,10.0,0.0
8005,88.0,0.0,480.0,0.0,0.0
8006,92.0,120.0,90.0,6.0,0.0
8007,90.0,120.0,90.0,6.0,0.0
8008,88.0,48.0,90.0,6.0,0.0
8009,59.0,0.0,300.0,8.0,0.0
8010,59.0,24.0,300.0,13.0,0.0
8011,66.0,0.0,660.0,12.0,0.0
8012,86.0,24.0,90.0,6.0,0.0
8013,86.0,96.0,240.0,0.0,0.0
8014,71.0,0.0,240.0,11.0,0.0
8015,83.0,0.0,240.0,1.0,0.0
8016,74.0,0.0,240.0,10.0,0.0
8017,85.0,120.0,90.0,6.0,0.0
8018,83.0,24.0,90.0,6.0,0.0
8019,61.0,24.0,300.0,8.0,0.0
8020,81.0,24.0,180.0,1.0,0.0
8021,81.0,48.0,90.0,6.0,0.0
8022,85.0,0.0,180.0,0.0,0.0
8023,73.0,0.0,150.0,10.0,0.0
8024,69.0,48.0,150.0,11.0,0.0
8025,61.0,0.0,300.0,13.0,0.0
8026,83.0,96.0,90.0,6.0,0.0
8027,69.0,0.0,150.0,11.0,0.0
8028,85.0,48.0,90.0,6.0,0.0
8029,73.0,72.0,150.0,10.0,0.0
8030,61.0,48.0,390.0,12.0,0.0
8031,81.0,120.0,90.0,6.0,0.0
8032,61.0,0.0,300.0,8.0,0.0
8033,61.0,24.0,300.0,13.0,0.0
8034,80.0,0.0,180.0,1.0,0.0
8035,68.0,0.0,150.0,11.0,0.0
8036,80.0,48.0,90.0,6.0,0.0
8037,83.0,24.0,180.0,0.0,0.0
8038,71.0,0.0,150.0,10.0,0.0
8039,81.0,96.0,90.0,6.0,0.0
8040,71.0,0.0,150.0,10.0,0.0
8041,83.0,48.0,90.0,6.0,0.0
8042,68.0,72.0,150.0,11.0,0.0
8043,61.0,0.0,390.0,12.0,0.0
8044,80.0,120.0,90.0,6.0,0.0
8045,78.0,48.0,90.0,6.0,0.0
8046,49.0,24.0,300.0,8.0,0.0
8047,81.0,0.0,180.0,0.0,0.0
8048,69.0,48.0,150.0,10.0,0.0
8049,78.0,24.0,180.0,1.0,0.0
8050,49.0,0.0,300.0,13.0,0.0
8051,66.0,0.0,150.0,11.0,0.0
8052,80.0,96.0,90.0,6.0,0.0
8053,61.0,48.0,390.0,12.0,0.0
8054,66.0,72.0,150.0,11.0,0.0
8055,69.0,0.0,150.0,10.0,0.0
8056,81.0,48.0,90.0,6.0,0.0
8057,78.0,120.0,90.0,6.0,0.0
8058,80.0,24.0,180.0,0.0,0.0
8059,77.0,0.0,180.0,1.0,0.0
8060,49.0,16.0,390.0,8.0,0.0
8061,65.0,0.0,150.0,11.0,0.0
8062,68.0,0.0,150.0,10.0,0.0
8063,77.0,48.0,90.0,6.0,0.0
8064,78.0,104.0,90.0,6.0,0.0
8065,65.0,0.0,150.0,11.0,0.0
8066,68.0,0.0,150.0,10.0,0.0
8067,37.0,16.0,90.0,14.0,0.0
8068,49.0,0.0,90.0,13.0,0.0
8069,61.0,24.0,180.0,12.0,0.0
8070,80.0,48.0,90.0,6.0,0.0
8071,51.0,32.0,90.0,13.0,0.0
8072,39.0,0.0,90.0,14.0,0.0
8073,77.0,0.0,90.0,6.0,0.0
8074,61.0,0.0,90.0,3.0,0.0
8075,49.0,24.0,90.0,3.0,0.0
8076,41.0,96.0,90.0,14.0,0.0
8077,53.0,0.0,90.0,13.0,0.0
8078,42.0,36.0,5670.0,2.0,0.0
8079,54.0,0.0,5670.0,2.0,0.0
8080,66.0,0.0,90.0,11.0,0.0
8081,66.0,0.0,390.0,10.0,0.0
8082,66.0,16.0,1830.0,1.0,0.0
8083,78.0,0.0,1830.0,1.0,0.0
8084,42.0,0.0,780.0,14.0,0.0
8085,54.0,0.0,390.0,8.0,0.0
8086,78.0,0.0,390.0,6.0,0.0
8087,66.0,72.0,390.0,4.0,0.0
8088,66.0,0.0,900.0,3.0,0.0
8089,78.0,0.0,390.0,4.0,0.0
8090,54.0,0.0,390.0,5.0,0.0
8091,54.0,32.0,780.0,13.0,0.0
8092,54.0,24.0,900.0,3.0,0.0
8093,57.0,120.0,90.0,12.0,0.0
8094,78.0,0.0,1830.0,0.0,0.0
8095,57.0,120.0,90.0,12.0,0.0
8096,61.0,0.0,90.0,11.0,0.0
8097,57.0,48.0,90.0,12.0,0.0
8098,61.0,0.0,90.0,11.0,0.0
8099,57.0,120.0,90.0,12.0,0.0
8100,61.0,0.0,90.0,11.0,0.0
8101,61.0,0.0,90.0,11.0,0.0
8102,57.0,120.0,90.0,12.0,0.0
8103,61.0,0.0,90.0,11.0,0.0
8104,57.0,72.0,90.0,12.0,0.0
8105,61.0,64.0,90.0,11.0,0.0
8106,57.0,0.0,90.0,12.0,0.0
8107,61.0,16.0,90.0,10.0,0.0
8108,63.0,32.0,90.0,10.0,0.0
8109,57.0,24.0,90.0,12.0,0.0
8110,61.0,0.0,90.0,11.0,0.0
8111,65.0,96.0,90.0,10.0,0.0
8112,61.0,120.0,90.0,11.0,0.0
8113,66.0,72.0,390.0,10.0,0.0
8114,57.0,0.0,90.0,12.0,0.0
8115,57.0,0.0,90.0,12.0,0.0
8116,61.0,120.0,90.0,11.0,0.0
8117,61.0,48.0,90.0,11.0,0.0
8118,57.0,0.0,90.0,12.0,0.0
8119,61.0,0.0,90.0,11.0,0.0
8120,57.0,120.0,90.0,12.0,0.0
8121,61.0,0.0,90.0,11.0,0.0
8122,57.0,120.0,90.0,12.0,0.0
8123,61.0,0.0,90.0,11.0,0.0
8124,57.0,104.0,90.0,12.0,0.0
8125,61.0,48.0,90.0,11.0,0.0
8126,49.0,16.0,90.0,14.0,0.0
8127,61.0,0.0,90.0,13.0,0.0
8128,57.0,0.0,90.0,12.0,0.0
8129,63.0,56.0,90.0,13.0,0.0
8130,51.0,0.0,90.0,14.0,0.0
8131,57.0,0.0,90.0,12.0,0.0
8132,61.0,24.0,90.0,11.0,0.0
8133,49.0,0.0,90.0,3.0,0.0
8134,61.0,0.0,90.0,3.0,0.0
8135,65.0,96.0,90.0,13.0,0.0
8136,53.0,0.0,90.0,14.0,0.0
8137,81.0,0.0,2220.0,1.0,0.0
8138,85.0,0.0,2220.0,1.0,0.0
8139,90.0,0.0,2220.0,0.0,0.0
8140,66.0,0.0,390.0,4.0,0.0
8141,78.0,0.0,390.0,4.0,0.0
8142,54.0,0.0,900.0,3.0,0.0
8143,54.0,32.0,780.0,14.0,0.0
8144,66.0,24.0,900.0,3.0,0.0
8145,54.0,72.0,390.0,5.0,0.0
8146,66.0,0.0,780.0,13.0,0.0
8147,57.0,120.0,90.0,12.0,0.0
8148,61.0,0.0,90.0,11.0,0.0
8149,61.0,0.0,90.0,11.0,0.0
8150,57.0,120.0,90.0,12.0,0.0
8151,61.0,0.0,90.0,11.0,0.0
8152,57.0,48.0,90.0,12.0,0.0
8153,57.0,120.0,90.0,12.0,0.0
8154,61.0,0.0,90.0,11.0,0.0
8155,61.0,0.0,90.0,11.0,0.0
8156,57.0,120.0,90.0,12.0,0.0
8157,61.0,72.0,90.0,11.0,0.0
8158,57.0,0.0,90.0,12.0,0.0
8159,61.0,64.0,90.0,11.0,0.0
8160,73.0,16.0,90.0,10.0,0.0
8161,57.0,0.0,90.0,12.0,0.0
8162,75.0,32.0,90.0,10.0,0.0
8163,57.0,24.0,90.0,12.0,0.0
8164,61.0,0.0,90.0,11.0,0.0
8165,77.0,96.0,90.0,10.0,0.0
8166,61.0,120.0,90.0,11.0,0.0
8167,57.0,0.0,90.0,12.0,0.0
8168,78.0,72.0,390.0,10.0,0.0
8169,57.0,120.0,90.0,12.0,0.0
8170,61.0,0.0,90.0,11.0,0.0
8171,57.0,0.0,90.0,12.0,0.0
8172,61.0,48.0,90.0,11.0,0.0
8173,57.0,0.0,90.0,12.0,0.0
8174,61.0,120.0,90.0,11.0,0.0
8175,61.0,0.0,90.0,11.0,0.0
8176,57.0,120.0,90.0,12.0,0.0
8177,61.0,0.0,90.0,11.0,0.0
8178,57.0,104.0,90.0,12.0,0.0
8179,85.0,16.0,90.0,10.0,0.0
8180,57.0,0.0,90.0,12.0,0.0
8181,61.0,64.0,90.0,11.0,0.0
8182,87.0,56.0,90.0,10.0,0.0
8183,57.0,0.0,90.0,12.0,0.0
8184,49.0,0.0,90.0,3.0,0.0
8185,61.0,24.0,90.0,11.0,0.0
8186,61.0,0.0,90.0,3.0,0.0
8187,89.0,96.0,90.0,10.0,0.0
8188,90.0,48.0,300.0,10.0,0.0
8189,57.0,0.0,90.0,12.0,0.0
8190,54.0,0.0,300.0,3.0,0.0
8191,66.0,0.0,300.0,3.0,0.0
8192,61.0,120.0,90.0,11.0,0.0
8193,57.0,0.0,90.0,12.0,0.0
8194,61.0,72.0,90.0,11.0,0.0
8195,57.0,120.0,90.0,12.0,0.0
8196,61.0,0.0,90.0,11.0,0.0
8197,57.0,0.0,90.0,12.0,0.0
8198,61.0,120.0,90.0,11.0,0.0
8199,85.0,0.0,300.0,0.0,0.0
8200,54.0,0.0,300.0,3.0,0.0
8201,57.0,0.0,90.0,12.0,0.0
8202,85.0,0.0,300.0,1.0,0.0
8203,66.0,0.0,300.0,3.0,0.0
8204,73.0,48.0,300.0,10.0,0.0
8205,61.0,120.0,90.0,11.0,0.0
8206,61.0,72.0,90.0,11.0,0.0
8207,57.0,0.0,90.0,12.0,0.0
8208,57.0,120.0,90.0,12.0,0.0
8209,61.0,0.0,90.0,11.0,0.0
8210,61.0,0.0,90.0,11.0,0.0
8211,57.0,120.0,90.0,12.0,0.0
8212,61.0,0.0,90.0,11.0,0.0
8213,66.0,0.0,300.0,3.0,0.0
8214,54.0,48.0,300.0,3.0,0.0
8215,69.0,0.0,300.0,10.0,0.0
8216,81.0,0.0,300.0,1.0,0.0
8217,57.0,120.0,90.0,12.0,0.0
8218,93.0,0.0,300.0,0.0,0.0
8219,57.0,0.0,90.0,12.0,0.0
8220,61.0,72.0,90.0,11.0,0.0
8221,57.0,0.0,90.0,12.0,0.0
8222,61.0,120.0,90.0,11.0,0.0
8223,57.0,0.0,90.0,12.0,0.0
8224,61.0,120.0,90.0,11.0,0.0
8225,61.0,0.0,90.0,11.0,0.0
8226,54.0,12.0,300.0,3.0,0.0
8227,66.0,0.0,300.0,3.0,0.0
8228,90.0,0.0,300.0,0.0,0.0
8229,66.0,0.0,300.0,10.0,0.0
8230,57.0,120.0,90.0,12.0,0.0
8231,78.0,0.0,300.0,1.0,0.0
8232,61.0,0.0,90.0,11.0,0.0
8233,57.0,72.0,90.0,12.0,0.0
8234,49.0,36.0,60.0,14.0,0.0
8235,57.0,0.0,90.0,12.0,0.0
8236,61.0,24.0,90.0,11.0,0.0
8237,61.0,0.0,60.0,13.0,0.0
8238,63.0,24.0,60.0,13.0,0.0
8239,51.0,0.0,60.0,14.0,0.0
8240,53.0,36.0,60.0,14.0,0.0
8241,61.0,0.0,90.0,11.0,0.0
8242,65.0,0.0,60.0,13.0,0.0
8243,57.0,24.0,90.0,12.0,0.0
8244,66.0,96.0,60.0,13.0,0.0
8245,54.0,0.0,60.0,14.0,0.0
8246,56.0,0.0,300.0,14.0,0.0
8247,62.0,0.0,90.0,11.0,0.0
8248,68.0,0.0,1830.0,3.0,0.0
8249,89.0,24.0,900.0,0.0,0.0
8250,59.0,120.0,90.0,12.0,0.0
8251,65.0,24.0,780.0,10.0,0.0
8252,44.0,0.0,1830.0,2.0,0.0
8253,56.0,36.0,1830.0,2.0,0.0
8254,77.0,0.0,900.0,1.0,0.0
8255,68.0,24.0,300.0,13.0,0.0
8256,59.0,0.0,90.0,12.0,0.0
8257,62.0,96.0,90.0,11.0,0.0
8258,59.0,0.0,90.0,12.0,0.0
8259,62.0,120.0,90.0,11.0,0.0
8260,59.0,120.0,90.0,12.0,0.0
8261,62.0,0.0,90.0,11.0,0.0
8262,62.0,120.0,90.0,11.0,0.0
8263,59.0,0.0,90.0,12.0,0.0
8264,65.0,24.0,300.0,13.0,0.0
8265,53.0,0.0,300.0,14.0,0.0
8266,62.0,72.0,90.0,11.0,0.0
8267,59.0,0.0,90.0,12.0,0.0
8268,62.0,96.0,90.0,11.0,0.0
8269,59.0,0.0,90.0,12.0,0.0
8270,62.0,120.0,90.0,11.0,0.0
8271,59.0,0.0,90.0,12.0,0.0
8272,59.0,0.0,90.0,12.0,0.0
8273,59.0,0.0,300.0,13.0,0.0
8274,62.0,120.0,90.0,11.0,0.0
8275,47.0,24.0,300.0,14.0,0.0
8276,62.0,0.0,90.0,11.0,0.0
8277,59.0,96.0,90.0,12.0,0.0
8278,59.0,0.0,90.0,12.0,0.0
8279,62.0,120.0,90.0,11.0,0.0
8280,62.0,120.0,90.0,11.0,0.0
8281,59.0,0.0,90.0,12.0,0.0
8282,59.0,120.0,90.0,12.0,0.0
8283,44.0,0.0,300.0,14.0,0.0
8284,62.0,0.0,90.0,11.0,0.0
8285,56.0,24.0,300.0,13.0,0.0
8286,59.0,84.0,90.0,12.0,0.0
8287,62.0,0.0,90.0,11.0,0.0
8288,59.0,0.0,90.0,12.0,0.0
8289,62.0,24.0,90.0,11.0,0.0
8290,80.0,12.0,60.0,10.0,0.0
8291,81.0,24.0,60.0,10.0,0.0
8292,59.0,24.0,90.0,12.0,0.0
8293,83.0,36.0,60.0,10.0,0.0
8294,62.0,0.0,90.0,11.0,0.0
8295,85.0,96.0,60.0,10.0,0.0
8296,54.0,16.0,1830.0,2.0,0.0
8297,86.0,0.0,300.0,10.0,0.0
8298,42.0,0.0,780.0,14.0,0.0
8299,54.0,0.0,780.0,13.0,0.0
8300,62.0,0.0,90.0,11.0,0.0
8301,66.0,48.0,300.0,3.0,0.0
8302,54.0,0.0,300.0,3.0,0.0
8303,42.0,0.0,1830.0,2.0,0.0
8304,57.0,120.0,90.0,12.0,0.0
8305,57.0,0.0,90.0,12.0,0.0
8306,62.0,72.0,90.0,11.0,0.0
8307,62.0,0.0,90.0,11.0,0.0
8308,57.0,120.0,90.0,12.0,0.0
8309,57.0,120.0,90.0,12.0,0.0
8310,62.0,0.0,90.0,11.0,0.0
8311,57.0,120.0,90.0,12.0,0.0
8312,54.0,0.0,300.0,3.0,0.0
8313,81.0,48.0,300.0,1.0,0.0
8314,66.0,0.0,300.0,3.0,0.0
8315,69.0,0.0,300.0,10.0,0.0
8316,62.0,0.0,90.0,11.0,0.0
8317,93.0,0.0,300.0,0.0,0.0
8318,57.0,72.0,90.0,12.0,0.0
8319,62.0,0.0,90.0,11.0,0.0
8320,62.0,120.0,90.0,11.0,0.0
8321,57.0,0.0,90.0,12.0,0.0
8322,62.0,0.0,90.0,11.0,0.0
8323,57.0,120.0,90.0,12.0,0.0
8324,90.0,48.0,300.0,1.0,0.0
8325,62.0,0.0,90.0,11.0,0.0
8326,90.0,0.0,300.0,0.0,0.0
8327,57.0,120.0,90.0,12.0,0.0
8328,66.0,0.0,300.0,10.0,0.0
8329,78.0,0.0,300.0,1.0,0.0
8330,54.0,0.0,300.0,3.0,0.0
8331,66.0,0.0,300.0,3.0,0.0
8332,57.0,0.0,90.0,12.0,0.0
8333,62.0,72.0,90.0,11.0,0.0
8334,57.0,0.0,90.0,12.0,0.0
8335,62.0,120.0,90.0,11.0,0.0
8336,62.0,0.0,90.0,11.0,0.0
8337,57.0,120.0,90.0,12.0,0.0
8338,86.0,0.0,300.0,1.0,0.0
8339,74.0,32.0,300.0,1.0,0.0
8340,54.0,0.0,300.0,3.0,0.0
8341,66.0,0.0,300.0,3.0,0.0
8342,62.0,0.0,300.0,10.0,0.0
8343,62.0,0.0,90.0,11.0,0.0
8344,57.0,120.0,90.0,12.0,0.0
8345,86.0,0.0,300.0,0.0,0.0
8346,62.0,0.0,90.0,11.0,0.0
8347,57.0,72.0,90.0,12.0,0.0
8348,69.0,0.0,90.0,13.0,0.0
8349,57.0,16.0,90.0,14.0,0.0
8350,62.0,48.0,90.0,11.0,0.0
8351,57.0,0.0,90.0,12.0,0.0
8352,68.0,56.0,90.0,13.0,0.0
8353,56.0,0.0,90.0,14.0,0.0
8354,57.0,0.0,90.0,12.0,0.0
8355,62.0,24.0,90.0,11.0,0.0
8356,66.0,0.0,90.0,13.0,0.0
8357,54.0,384.0,90.0,14.0,0.0
8358,53.0,0.0,720.0,2.0,0.0
8359,65.0,0.0,720.0,13.0,0.0
8360,85.0,0.0,720.0,0.0,0.0
8361,56.0,0.0,720.0,12.0,0.0
8362,73.0,0.0,720.0,1.0,0.0
8363,85.0,0.0,720.0,1.0,0.0
8364,61.0,336.0,390.0,4.0,0.0
8365,61.0,240.0,720.0,11.0,0.0
8366,61.0,0.0,390.0,3.0,0.0
8367,49.0,0.0,390.0,3.0,0.0
8368,73.0,0.0,390.0,4.0,0.0
8369,49.0,0.0,390.0,5.0,0.0
8370,53.0,0.0,720.0,14.0,0.0
8371,61.0,0.0,720.0,10.0,0.0
8372,86.0,0.0,240.0,0.0,0.0
8373,54.0,240.0,240.0,2.0,0.0
8374,62.0,0.0,240.0,10.0,0.0
8375,66.0,0.0,240.0,13.0,0.0
8376,86.0,0.0,240.0,1.0,0.0
8377,57.0,0.0,240.0,12.0,0.0
8378,74.0,0.0,240.0,1.0,0.0
8379,62.0,0.0,240.0,11.0,0.0
8380,54.0,0.0,240.0,14.0,0.0
8381,73.0,0.0,240.0,1.0,0.0
8382,56.0,0.0,240.0,12.0,0.0
8383,85.0,0.0,240.0,0.0,0.0
8384,85.0,0.0,240.0,1.0,0.0
8385,61.0,0.0,240.0,11.0,0.0
8386,61.0,240.0,240.0,10.0,0.0
8387,53.0,0.0,240.0,14.0,0.0
8388,65.0,0.0,240.0,13.0,0.0
8389,53.0,0.0,240.0,2.0,0.0
8390,84.0,0.0,240.0,0.0,0.0
8391,54.0,0.0,240.0,14.0,0.0
8392,54.0,0.0,240.0,2.0,0.0
8393,66.0,0.0,240.0,13.0,0.0
8394,72.0,0.0,240.0,1.0,0.0
8395,84.0,0.0,240.0,1.0,0.0
8396,60.0,240.0,240.0,10.0,0.0
8397,57.0,0.0,240.0,12.0,0.0
8398,60.0,0.0,240.0,11.0,0.0
8399,65.0,0.0,240.0,13.0,0.0
8400,61.0,228.0,240.0,11.0,0.0
8401,53.0,0.0,240.0,14.0,0.0
8402,56.0,0.0,240.0,12.0,0.0
8403,61.0,0.0,240.0,10.0,0.0
8404,85.0,0.0,240.0,1.0,0.0
8405,73.0,0.0,240.0,1.0,0.0
8406,53.0,0.0,240.0,2.0,0.0
8407,85.0,0.0,240.0,0.0,0.0
8408,60.0,0.0,240.0,11.0,0.0
8409,60.0,0.0,240.0,10.0,0.0
8410,57.0,396.0,240.0,12.0,0.0
8411,84.0,0.0,240.0,0.0,0.0
8412,54.0,0.0,240.0,14.0,0.0
8413,72.0,0.0,240.0,1.0,0.0
8414,84.0,0.0,240.0,1.0,0.0
8415,66.0,0.0,240.0,13.0,0.0
8416,54.0,0.0,240.0,2.0,0.0
8417,73.0,0.0,390.0,4.0,0.0
8418,65.0,0.0,720.0,13.0,0.0
8419,85.0,0.0,720.0,0.0,0.0
8420,49.0,336.0,390.0,3.0,0.0
8421,73.0,0.0,720.0,1.0,0.0
8422,61.0,0.0,720.0,11.0,0.0
8423,61.0,0.0,390.0,4.0,0.0
8424,53.0,0.0,720.0,14.0,0.0
8425,61.0,0.0,720.0,10.0,0.0
8426,53.0,0.0,720.0,2.0,0.0
8427,56.0,0.0,720.0,12.0,0.0
8428,85.0,240.0,720.0,1.0,0.0
8429,61.0,0.0,390.0,3.0,0.0
8430,49.0,0.0,390.0,5.0,0.0
8431,62.0,0.0,240.0,11.0,0.0
8432,62.0,0.0,240.0,10.0,0.0
8433,54.0,240.0,240.0,2.0,0.0
8434,86.0,0.0,240.0,0.0,0.0
8435,54.0,0.0,240.0,14.0,0.0
8436,57.0,0.0,240.0,12.0,0.0
8437,66.0,0.0,240.0,13.0,0.0
8438,74.0,0.0,240.0,1.0,0.0
8439,86.0,0.0,240.0,1.0,0.0
8440,85.0,0.0,240.0,0.0,0.0
8441,53.0,0.0,240.0,14.0,0.0
8442,61.0,240.0,240.0,11.0,0.0
8443,61.0,0.0,240.0,10.0,0.0
8444,65.0,0.0,240.0,13.0,0.0
8445,53.0,0.0,240.0,2.0,0.0
8446,73.0,0.0,240.0,1.0,0.0
8447,56.0,0.0,240.0,12.0,0.0
8448,85.0,0.0,240.0,1.0,0.0
8449,54.0,0.0,240.0,14.0,0.0
8450,60.0,0.0,240.0,10.0,0.0
8451,66.0,0.0,240.0,13.0,0.0
8452,60.0,0.0,240.0,11.0,0.0
8453,54.0,0.0,240.0,2.0,0.0
8454,84.0,240.0,240.0,1.0,0.0
8455,57.0,0.0,240.0,12.0,0.0
8456,72.0,0.0,240.0,1.0,0.0
8457,84.0,0.0,240.0,0.0,0.0
8458,85.0,228.0,240.0,0.0,0.0
8459,61.0,0.0,240.0,10.0,0.0
8460,65.0,0.0,240.0,13.0,0.0
8461,73.0,0.0,240.0,1.0,0.0
8462,53.0,0.0,240.0,2.0,0.0
8463,61.0,0.0,240.0,11.0,0.0
8464,56.0,0.0,240.0,12.0,0.0
8465,85.0,0.0,240.0,1.0,0.0
8466,53.0,0.0,240.0,14.0,0.0
8467,54.0,0.0,240.0,14.0,0.0
8468,84.0,0.0,240.0,1.0,0.0
8469,60.0,0.0,240.0,11.0,0.0
8470,66.0,0.0,240.0,13.0,0.0
8471,72.0,0.0,240.0,1.0,0.0
8472,57.0,168.0,240.0,12.0,0.0
8473,54.0,0.0,240.0,2.0,0.0
8474,84.0,0.0,240.0,0.0,0.0
8475,60.0,0.0,240.0,10.0,0.0
8476,53.0,0.0,390.0,14.0,0.0
8477,49.0,0.0,390.0,3.0,0.0
8478,53.0,0.0,390.0,2.0,0.0
8479,49.0,0.0,390.0,5.0,0.0
8480,65.0,0.0,390.0,13.0,0.0
8481,73.0,0.0,390.0,1.0,0.0
8482,61.0,0.0,390.0,3.0,0.0
8483,85.0,0.0,390.0,1.0,0.0
8484,73.0,0.0,390.0,4.0,0.0
8485,61.0,228.0,150.0,11.0,0.0
8486,85.0,336.0,390.0,0.0,0.0
8487,61.0,0.0,150.0,10.0,0.0
8488,61.0,0.0,390.0,4.0,0.0
8489,56.0,0.0,390.0,12.0,0.0
8490,68.0,156.0,480.0,10.0,0.0
8491,65.0,0.0,480.0,11.0,0.0
8492,66.0,240.0,150.0,10.0,0.0
8493,62.0,0.0,150.0,11.0,0.0
8494,61.0,0.0,150.0,11.0,0.0
8495,65.0,564.0,150.0,10.0,0.0
8496,68.0,0.0,480.0,11.0,0.0
8497,71.0,156.0,480.0,10.0,0.0
8498,69.0,240.0,150.0,10.0,0.0
8499,66.0,0.0,150.0,11.0,0.0
8500,68.0,0.0,150.0,10.0,0.0
8501,65.0,564.0,150.0,11.0,0.0
8502,68.0,0.0,480.0,11.0,0.0
8503,80.0,0.0,480.0,1.0,0.0
8504,74.0,156.0,480.0,10.0,0.0
8505,77.0,0.0,480.0,1.0,0.0
8506,73.0,0.0,150.0,10.0,0.0
8507,66.0,240.0,150.0,11.0,0.0
8508,78.0,0.0,150.0,1.0,0.0
8509,81.0,0.0,150.0,1.0,0.0
8510,80.0,0.0,150.0,1.0,0.0
8511,83.0,0.0,150.0,1.0,0.0
8512,71.0,0.0,150.0,10.0,0.0
8513,68.0,564.0,150.0,11.0,0.0
8514,83.0,0.0,480.0,10.0,0.0
8515,68.0,156.0,480.0,2.0,0.0
8516,71.0,0.0,480.0,2.0,0.0
8517,80.0,0.0,480.0,11.0,0.0
8518,81.0,0.0,150.0,11.0,0.0
8519,85.0,36.0,150.0,10.0,0.0
8520,66.0,192.0,180.0,2.0,0.0
8521,69.0,0.0,180.0,2.0,0.0
8522,44.0,128.0,180.0,14.0,0.0
8523,65.0,0.0,150.0,12.0,0.0
8524,56.0,48.0,150.0,12.0,0.0
8525,83.0,0.0,480.0,11.0,0.0
8526,56.0,0.0,390.0,8.0,0.0
8527,86.0,0.0,480.0,10.0,0.0
8528,56.0,0.0,180.0,13.0,0.0
8529,68.0,0.0,1830.0,2.0,0.0
8530,65.0,0.0,1830.0,2.0,0.0
8531,44.0,0.0,390.0,8.0,0.0
8532,71.0,64.0,150.0,6.0,0.0
8533,59.0,96.0,150.0,12.0,0.0
8534,68.0,0.0,150.0,12.0,0.0
8535,77.0,144.0,150.0,6.0,0.0
8536,83.0,0.0,180.0,10.0,0.0
8537,47.0,0.0,180.0,14.0,0.0
8538,59.0,128.0,180.0,13.0,0.0
8539,80.0,0.0,180.0,11.0,0.0
8540,56.0,0.0,150.0,12.0,0.0
8541,65.0,16.0,150.0,12.0,0.0
8542,80.0,32.0,150.0,6.0,0.0
8543,83.0,64.0,150.0,6.0,0.0
8544,68.0,0.0,150.0,12.0,0.0
8545,59.0,96.0,150.0,12.0,0.0
8546,89.0,144.0,150.0,6.0,0.0
8547,65.0,16.0,150.0,12.0,0.0
8548,53.0,0.0,180.0,14.0,0.0
8549,56.0,0.0,150.0,12.0,0.0
8550,86.0,0.0,480.0,1.0,0.0
8551,65.0,128.0,180.0,13.0,0.0
8552,92.0,32.0,150.0,6.0,0.0
8553,89.0,64.0,150.0,6.0,0.0
8554,59.0,0.0,150.0,12.0,0.0
8555,68.0,96.0,150.0,12.0,0.0
8556,83.0,0.0,150.0,6.0,0.0
8557,83.0,144.0,15.0,1.0,0.0
8558,68.0,128.0,180.0,13.0,0.0
8559,80.0,0.0,180.0,1.0,0.0
8560,56.0,0.0,180.0,14.0,0.0
8561,77.0,0.0,180.0,10.0,0.0
8562,65.0,16.0,150.0,12.0,0.0
8563,74.0,0.0,180.0,11.0,0.0
8564,56.0,0.0,150.0,12.0,0.0
8565,80.0,32.0,150.0,6.0,0.0
8566,77.0,64.0,150.0,6.0,0.0
8567,68.0,96.0,150.0,12.0,0.0
8568,59.0,0.0,150.0,12.0,0.0
8569,71.0,144.0,150.0,6.0,0.0
8570,61.0,96.0,1830.0,2.0,0.0
8571,57.0,96.0,390.0,8.0,0.0
8572,66.0,0.0,1830.0,2.0,0.0
8573,45.0,128.0,180.0,14.0,0.0
8574,57.0,0.0,180.0,13.0,0.0
8575,45.0,0.0,390.0,8.0,0.0
8576,81.0,0.0,480.0,11.0,0.0
8577,66.0,0.0,150.0,12.0,0.0
8578,85.0,0.0,480.0,10.0,0.0
8579,57.0,48.0,150.0,12.0,0.0
8580,73.0,64.0,150.0,6.0,0.0
8581,61.0,0.0,150.0,12.0,0.0
8582,69.0,0.0,150.0,12.0,0.0
8583,78.0,144.0,150.0,6.0,0.0
8584,61.0,0.0,180.0,13.0,0.0
8585,78.0,0.0,180.0,11.0,0.0
8586,81.0,32.0,150.0,6.0,0.0
8587,49.0,0.0,180.0,14.0,0.0
8588,81.0,128.0,180.0,10.0,0.0
8589,57.0,16.0,150.0,12.0,0.0
8590,66.0,0.0,150.0,12.0,0.0
8591,85.0,64.0,150.0,6.0,0.0
8592,61.0,0.0,150.0,12.0,0.0
8593,69.0,96.0,150.0,12.0,0.0
8594,90.0,144.0,150.0,6.0,0.0
8595,66.0,128.0,180.0,13.0,0.0
8596,93.0,32.0,150.0,6.0,0.0
8597,81.0,144.0,480.0,1.0,0.0
8598,54.0,0.0,180.0,14.0,0.0
8599,85.0,0.0,480.0,1.0,0.0
8600,57.0,16.0,150.0,12.0,0.0
8601,66.0,0.0,150.0,12.0,0.0
8602,90.0,64.0,150.0,6.0,0.0
8603,61.0,0.0,150.0,12.0,0.0
8604,69.0,96.0,150.0,12.0,0.0
8605,85.0,0.0,150.0,6.0,0.0
8606,81.0,32.0,150.0,6.0,0.0
8607,69.0,0.0,180.0,13.0,0.0
8608,66.0,0.0,150.0,12.0,0.0
8609,69.0,0.0,180.0,11.0,0.0
8610,73.0,0.0,180.0,10.0,0.0
8611,78.0,128.0,180.0,1.0,0.0
8612,81.0,0.0,180.0,1.0,0.0
8613,57.0,16.0,150.0,12.0,0.0
8614,57.0,0.0,180.0,14.0,0.0
8615,78.0,64.0,150.0,6.0,0.0
8616,61.0,0.0,150.0,12.0,0.0
8617,69.0,0.0,150.0,12.0,0.0
8618,73.0,144.0,150.0,6.0,0.0
8619,83.0,0.0,180.0,10.0,0.0
8620,80.0,0.0,180.0,11.0,0.0
8621,53.0,0.0,180.0,14.0,0.0
8622,65.0,128.0,180.0,13.0,0.0
8623,68.0,0.0,960.0,2.0,0.0
8624,59.0,0.0,960.0,2.0,0.0
8625,53.0,0.0,390.0,8.0,0.0
8626,65.0,0.0,390.0,8.0,0.0
8627,68.0,48.0,150.0,12.0,0.0
8628,71.0,0.0,150.0,12.0,0.0
8629,83.0,64.0,150.0,6.0,0.0
8630,61.0,0.0,150.0,12.0,0.0
8631,68.0,96.0,150.0,12.0,0.0
8632,85.0,144.0,150.0,6.0,0.0
8633,80.0,128.0,180.0,1.0,0.0
8634,83.0,0.0,180.0,1.0,0.0
8635,92.0,32.0,150.0,6.0,0.0
8636,68.0,16.0,150.0,12.0,0.0
8637,71.0,0.0,150.0,12.0,0.0
8638,85.0,64.0,150.0,6.0,0.0
8639,68.0,0.0,150.0,12.0,0.0
8640,61.0,96.0,150.0,12.0,0.0
8641,83.0,144.0,150.0,6.0,0.0
8642,66.0,114.0,960.0,2.0,0.0
8643,57.0,0.0,960.0,2.0,0.0
8644,66.0,0.0,390.0,8.0,0.0
8645,54.0,0.0,180.0,14.0,0.0
8646,66.0,48.0,150.0,12.0,0.0
8647,69.0,0.0,150.0,12.0,0.0
8648,81.0,0.0,180.0,10.0,0.0
8649,78.0,128.0,180.0,11.0,0.0
8650,54.0,0.0,390.0,8.0,0.0
8651,66.0,0.0,180.0,13.0,0.0
8652,81.0,64.0,150.0,6.0,0.0
8653,66.0,0.0,150.0,12.0,0.0
8654,61.0,96.0,150.0,12.0,0.0
8655,85.0,144.0,150.0,6.0,0.0
8656,78.0,0.0,180.0,1.0,0.0
8657,69.0,0.0,150.0,12.0,0.0
8658,81.0,128.0,180.0,1.0,0.0
8659,66.0,16.0,150.0,12.0,0.0
8660,90.0,32.0,150.0,6.0,0.0
8661,85.0,64.0,150.0,6.0,0.0
8662,61.0,0.0,150.0,12.0,0.0
8663,66.0,96.0,150.0,12.0,0.0
8664,81.0,0.0,150.0,6.0,0.0
8665,85.0,0.0,390.0,6.0,0.0
8666,65.0,0.0,390.0,12.0,0.0
8667,61.0,0.0,390.0,13.0,0.0
8668,77.0,90.0,390.0,11.0,0.0
8669,49.0,120.0,120.0,8.0,0.0
8670,89.0,0.0,390.0,6.0,0.0
8671,80.0,0.0,390.0,6.0,0.0
8672,80.0,0.0,390.0,10.0,0.0
8673,68.0,0.0,390.0,12.0,0.0
8674,77.0,0.0,390.0,1.0,0.0
8675,49.0,0.0,390.0,14.0,0.0
8676,56.0,0.0,390.0,2.0,0.0
8677,80.0,0.0,390.0,1.0,0.0
8678,65.0,0.0,390.0,2.0,0.0
8679,61.0,120.0,120.0,8.0,0.0
8680,48.0,30.0,120.0,8.0,0.0
8681,60.0,120.0,120.0,8.0,0.0
8682,49.0,120.0,120.0,8.0,0.0
8683,61.0,120.0,120.0,8.0,0.0
8684,50.0,120.0,120.0,8.0,0.0
8685,62.0,120.0,120.0,8.0,0.0
8686,49.0,120.0,120.0,8.0,0.0
8687,61.0,120.0,120.0,8.0,0.0
8688,47.0,120.0,120.0,8.0,0.0
8689,59.0,120.0,120.0,8.0,0.0
8690,45.0,120.0,120.0,8.0,0.0
8691,85.0,0.0,390.0,6.0,0.0
8692,89.0,0.0,390.0,6.0,0.0
8693,80.0,90.0,390.0,6.0,0.0
8694,57.0,120.0,120.0,8.0,0.0
8695,44.0,30.0,120.0,8.0,0.0
8696,56.0,120.0,120.0,8.0,0.0
8697,85.0,90.0,390.0,6.0,0.0
8698,81.0,0.0,390.0,6.0,0.0
8699,90.0,0.0,390.0,6.0,0.0
8700,42.0,120.0,120.0,8.0,0.0
8701,54.0,120.0,120.0,8.0,0.0
8702,41.0,30.0,120.0,8.0,0.0
8703,53.0,120.0,120.0,8.0,0.0
8704,42.0,120.0,120.0,8.0,0.0
8705,54.0,120.0,120.0,8.0,0.0
8706,44.0,120.0,120.0,8.0,0.0
8707,56.0,120.0,120.0,8.0,0.0
8708,45.0,120.0,120.0,8.0,0.0
8709,57.0,120.0,120.0,8.0,0.0
8710,44.0,120.0,120.0,8.0,0.0
8711,56.0,120.0,120.0,8.0,0.0
8712,45.0,120.0,120.0,8.0,0.0
8713,90.0,0.0,390.0,6.0,0.0
8714,85.0,0.0,390.0,6.0,0.0
8715,81.0,90.0,390.0,6.0,0.0
8716,57.0,120.0,120.0,8.0,0.0
8717,47.0,30.0,120.0,8.0,0.0
8718,59.0,120.0,120.0,8.0,0.0
8719,80.0,66.0,300.0,1.0,0.0
8720,85.0,0.0,390.0,6.0,0.0
8721,49.0,120.0,120.0,8.0,0.0
8722,61.0,0.0,300.0,3.0,0.0
8723,65.0,0.0,300.0,2.0,0.0
8724,89.0,0.0,390.0,6.0,0.0
8725,80.0,90.0,390.0,6.0,0.0
8726,73.0,0.0,300.0,1.0,0.0
8727,89.0,0.0,300.0,0.0,0.0
8728,68.0,0.0,300.0,2.0,0.0
8729,61.0,54.0,120.0,8.0,0.0
8730,48.0,30.0,120.0,8.0,0.0
8731,60.0,120.0,120.0,8.0,0.0
8732,49.0,102.0,120.0,8.0,0.0
8733,61.0,0.0,210.0,3.0,0.0
8734,65.0,0.0,210.0,2.0,0.0
8735,80.0,0.0,210.0,1.0,0.0
8736,73.0,0.0,210.0,1.0,0.0
8737,68.0,0.0,210.0,2.0,0.0
8738,89.0,18.0,210.0,0.0,0.0
8739,61.0,120.0,120.0,8.0,0.0
8740,50.0,78.0,120.0,8.0,0.0
8741,62.0,120.0,120.0,8.0,0.0
8742,61.0,0.0,60.0,3.0,0.0
8743,89.0,0.0,60.0,0.0,0.0
8744,80.0,0.0,60.0,1.0,0.0
8745,73.0,0.0,60.0,1.0,0.0
8746,65.0,42.0,60.0,2.0,0.0
8747,68.0,0.0,60.0,2.0,0.0
8748,73.0,0.0,300.0,1.0,0.0
8749,80.0,0.0,300.0,1.0,0.0
8750,68.0,0.0,300.0,2.0,0.0
8751,65.0,66.0,300.0,2.0,0.0
8752,49.0,120.0,120.0,8.0,0.0
8753,61.0,0.0,300.0,3.0,0.0
8754,89.0,0.0,300.0,0.0,0.0
8755,61.0,54.0,120.0,8.0,0.0
8756,47.0,120.0,120.0,8.0,0.0
8757,59.0,120.0,120.0,8.0,0.0
8758,89.0,0.0,300.0,0.0,0.0
8759,68.0,66.0,300.0,2.0,0.0
8760,89.0,0.0,390.0,6.0,0.0
8761,85.0,90.0,390.0,6.0,0.0
8762,45.0,120.0,120.0,8.0,0.0
8763,65.0,0.0,300.0,2.0,0.0
8764,61.0,0.0,300.0,3.0,0.0
8765,80.0,0.0,390.0,6.0,0.0
8766,80.0,0.0,300.0,1.0,0.0
8767,73.0,0.0,300.0,1.0,0.0
8768,57.0,54.0,120.0,8.0,0.0
8769,44.0,30.0,120.0,8.0,0.0
8770,56.0,120.0,120.0,8.0,0.0
8771,69.0,0.0,300.0,2.0,0.0
8772,90.0,0.0,390.0,6.0,0.0
8773,66.0,0.0,300.0,2.0,0.0
8774,42.0,120.0,120.0,8.0,0.0
8775,85.0,90.0,390.0,6.0,0.0
8776,73.0,0.0,300.0,1.0,0.0
8777,90.0,66.0,300.0,0.0,0.0
8778,81.0,0.0,300.0,1.0,0.0
8779,81.0,0.0,390.0,6.0,0.0
8780,61.0,0.0,300.0,3.0,0.0
8781,54.0,54.0,120.0,8.0,0.0
8782,41.0,30.0,120.0,8.0,0.0
8783,53.0,120.0,120.0,8.0,0.0
8784,61.0,0.0,210.0,3.0,0.0
8785,66.0,0.0,210.0,2.0,0.0
8786,90.0,0.0,210.0,0.0,0.0
8787,81.0,0.0,210.0,1.0,0.0
8788,73.0,0.0,210.0,1.0,0.0
8789,42.0,102.0,120.0,8.0,0.0
8790,69.0,18.0,210.0,2.0,0.0
8791,54.0,120.0,120.0,8.0,0.0
8792,44.0,78.0,120.0,8.0,0.0
8793,56.0,120.0,120.0,8.0,0.0
8794,90.0,0.0,60.0,0.0,0.0
8795,61.0,0.0,60.0,3.0,0.0
8796,69.0,0.0,60.0,2.0,0.0
8797,73.0,42.0,60.0,1.0,0.0
8798,81.0,0.0,60.0,1.0,0.0
8799,66.0,0.0,60.0,2.0,0.0
8800,90.0,0.0,300.0,0.0,0.0
8801,69.0,0.0,300.0,2.0,0.0
8802,66.0,0.0,300.0,2.0,0.0
8803,81.0,0.0,300.0,1.0,0.0
8804,45.0,120.0,120.0,8.0,0.0
8805,73.0,0.0,300.0,1.0,0.0
8806,61.0,66.0,300.0,3.0,0.0
8807,57.0,54.0,120.0,8.0,0.0
8808,44.0,120.0,120.0,8.0,0.0
8809,56.0,120.0,120.0,8.0,0.0
8810,61.0,0.0,300.0,3.0,0.0
8811,90.0,0.0,300.0,0.0,0.0
8812,73.0,0.0,300.0,1.0,0.0
8813,45.0,120.0,120.0,8.0,0.0
8814,66.0,66.0,300.0,2.0,0.0
8815,81.0,0.0,300.0,1.0,0.0
8816,81.0,0.0,390.0,6.0,0.0
8817,69.0,0.0,300.0,2.0,0.0
8818,85.0,90.0,390.0,6.0,0.0
8819,90.0,0.0,390.0,6.0,0.0
8820,57.0,54.0,120.0,8.0,0.0
8821,47.0,30.0,120.0,8.0,0.0
8822,59.0,102.0,120.0,8.0,0.0
8823,65.0,0.0,300.0,2.0,0.0
8824,61.0,60.0,150.0,13.0,0.0
8825,77.0,24.0,300.0,1.0,0.0
8826,80.0,0.0,300.0,1.0,0.0
8827,73.0,0.0,390.0,4.0,0.0
8828,80.0,0.0,300.0,10.0,0.0
8829,73.0,24.0,300.0,10.0,0.0
8830,85.0,0.0,390.0,6.0,0.0
8831,73.0,60.0,90.0,12.0,0.0
8832,89.0,0.0,390.0,6.0,0.0
8833,89.0,0.0,300.0,10.0,0.0
8834,80.0,0.0,390.0,6.0,0.0
8835,61.0,0.0,390.0,8.0,0.0
8836,49.0,0.0,390.0,8.0,0.0
8837,68.0,0.0,300.0,2.0,0.0
8838,61.0,0.0,300.0,3.0,0.0
8839,85.0,0.0,300.0,11.0,0.0
8840,49.0,0.0,150.0,14.0,0.0
8841,89.0,0.0,300.0,0.0,0.0
8842,49.0,12.0,390.0,5.0,0.0
8843,68.0,0.0,300.0,11.0,0.0
8844,77.0,0.0,300.0,11.0,0.0
8845,73.0,72.0,90.0,12.0,0.0
8846,71.0,48.0,90.0,12.0,0.0
8847,59.0,0.0,150.0,13.0,0.0
8848,47.0,60.0,150.0,14.0,0.0
8849,71.0,120.0,90.0,12.0,0.0
8850,89.0,0.0,210.0,0.0,0.0
8851,69.0,60.0,90.0,12.0,0.0
8852,61.0,0.0,210.0,3.0,0.0
8853,73.0,48.0,300.0,4.0,0.0
8854,45.0,60.0,150.0,14.0,0.0
8855,65.0,72.0,210.0,2.0,0.0
8856,77.0,0.0,210.0,1.0,0.0
8857,80.0,0.0,210.0,1.0,0.0
8858,57.0,0.0,150.0,13.0,0.0
8859,68.0,0.0,210.0,2.0,0.0
8860,69.0,0.0,90.0,12.0,0.0
8861,44.0,0.0,150.0,14.0,0.0
8862,85.0,0.0,150.0,11.0,0.0
8863,77.0,0.0,150.0,11.0,0.0
8864,68.0,60.0,90.0,12.0,0.0
8865,89.0,0.0,150.0,10.0,0.0
8866,56.0,0.0,150.0,13.0,0.0
8867,80.0,36.0,150.0,10.0,0.0
8868,61.0,0.0,60.0,3.0,0.0
8869,68.0,0.0,60.0,2.0,0.0
8870,65.0,0.0,60.0,2.0,0.0
8871,68.0,120.0,90.0,12.0,0.0
8872,80.0,0.0,60.0,1.0,0.0
8873,89.0,0.0,60.0,0.0,0.0
8874,77.0,24.0,60.0,1.0,0.0
8875,73.0,0.0,90.0,4.0,0.0
8876,66.0,0.0,300.0,11.0,0.0
8877,73.0,24.0,300.0,11.0,0.0
8878,54.0,12.0,390.0,5.0,0.0
8879,42.0,0.0,150.0,14.0,0.0
8880,90.0,24.0,300.0,0.0,0.0
8881,66.0,60.0,90.0,12.0,0.0
8882,81.0,0.0,300.0,10.0,0.0
8883,90.0,0.0,300.0,10.0,0.0
8884,69.0,0.0,300.0,2.0,0.0
8885,66.0,0.0,300.0,2.0,0.0
8886,81.0,0.0,300.0,1.0,0.0
8887,78.0,0.0,300.0,1.0,0.0
8888,73.0,0.0,390.0,4.0,0.0
8889,61.0,0.0,300.0,3.0,0.0
8890,81.0,0.0,300.0,11.0,0.0
8891,54.0,60.0,150.0,13.0,0.0
8892,66.0,72.0,90.0,12.0,0.0
8893,56.0,0.0,150.0,13.0,0.0
8894,68.0,48.0,90.0,12.0,0.0
8895,44.0,60.0,150.0,14.0,0.0
8896,68.0,120.0,90.0,12.0,0.0
8897,45.0,60.0,150.0,14.0,0.0
8898,57.0,0.0,150.0,13.0,0.0
8899,66.0,0.0,210.0,2.0,0.0
8900,69.0,0.0,210.0,2.0,0.0
8901,81.0,0.0,210.0,1.0,0.0
8902,78.0,0.0,210.0,1.0,0.0
8903,90.0,0.0,210.0,0.0,0.0
8904,73.0,48.0,300.0,4.0,0.0
8905,61.0,0.0,210.0,3.0,0.0
8906,69.0,60.0,90.0,12.0,0.0
8907,69.0,72.0,90.0,12.0,0.0
8908,73.0,0.0,150.0,11.0,0.0
8909,59.0,36.0,150.0,13.0,0.0
8910,90.0,0.0,150.0,10.0,0.0
8911,47.0,0.0,150.0,14.0,0.0
8912,71.0,60.0,90.0,12.0,0.0
8913,81.0,0.0,150.0,11.0,0.0
8914,81.0,0.0,150.0,10.0,0.0
8915,78.0,0.0,60.0,1.0,0.0
8916,81.0,0.0,60.0,1.0,0.0
8917,73.0,0.0,90.0,4.0,0.0
8918,90.0,0.0,60.0,0.0,0.0
8919,71.0,120.0,90.0,12.0,0.0
8920,61.0,0.0,60.0,3.0,0.0
8921,66.0,0.0,60.0,2.0,0.0
8922,69.0,24.0,60.0,2.0,0.0
8923,77.0,24.0,300.0,1.0,0.0
8924,80.0,0.0,300.0,1.0,0.0
8925,61.0,0.0,300.0,3.0,0.0
8926,49.0,12.0,390.0,5.0,0.0
8927,49.0,0.0,150.0,14.0,0.0
8928,89.0,0.0,300.0,0.0,0.0
8929,73.0,60.0,90.0,12.0,0.0
8930,68.0,24.0,300.0,11.0,0.0
8931,65.0,0.0,300.0,2.0,0.0
8932,68.0,0.0,300.0,2.0,0.0
8933,61.0,60.0,150.0,13.0,0.0
8934,80.0,0.0,300.0,10.0,0.0
8935,77.0,0.0,300.0,11.0,0.0
8936,73.0,0.0,390.0,4.0,0.0
8937,85.0,0.0,300.0,11.0,0.0
8938,89.0,0.0,300.0,10.0,0.0
8939,73.0,72.0,90.0,12.0,0.0
8940,47.0,0.0,150.0,14.0,0.0
8941,59.0,60.0,150.0,13.0,0.0
8942,71.0,48.0,90.0,12.0,0.0
8943,71.0,120.0,90.0,12.0,0.0
8944,73.0,48.0,300.0,4.0,0.0
8945,65.0,0.0,210.0,2.0,0.0
8946,61.0,0.0,210.0,3.0,0.0
8947,89.0,0.0,210.0,0.0,0.0
8948,57.0,0.0,150.0,13.0,0.0
8949,69.0,60.0,90.0,12.0,0.0
8950,80.0,0.0,210.0,1.0,0.0
8951,77.0,0.0,210.0,1.0,0.0
8952,68.0,72.0,210.0,2.0,0.0
8953,45.0,60.0,150.0,14.0,0.0
8954,69.0,0.0,90.0,12.0,0.0
8955,44.0,0.0,150.0,14.0,0.0
8956,77.0,0.0,150.0,11.0,0.0
8957,89.0,0.0,150.0,10.0,0.0
8958,56.0,36.0,150.0,13.0,0.0
8959,85.0,0.0,150.0,11.0,0.0
8960,80.0,0.0,150.0,10.0,0.0
8961,68.0,60.0,90.0,12.0,0.0
8962,68.0,0.0,60.0,2.0,0.0
8963,65.0,24.0,60.0,2.0,0.0
8964,68.0,0.0,90.0,12.0,0.0
8965,77.0,0.0,60.0,1.0,0.0
8966,80.0,0.0,60.0,1.0,0.0
8967,61.0,0.0,60.0,3.0,0.0
8968,73.0,120.0,90.0,4.0,0.0
8969,89.0,0.0,60.0,0.0,0.0
8970,73.0,12.0,390.0,4.0,0.0
8971,81.0,0.0,300.0,10.0,0.0
8972,90.0,0.0,300.0,10.0,0.0
8973,42.0,0.0,150.0,14.0,0.0
8974,69.0,0.0,300.0,2.0,0.0
8975,66.0,0.0,300.0,2.0,0.0
8976,73.0,0.0,300.0,11.0,0.0
8977,66.0,24.0,300.0,11.0,0.0
8978,78.0,0.0,300.0,1.0,0.0
8979,81.0,0.0,300.0,11.0,0.0
8980,61.0,24.0,300.0,3.0,0.0
8981,54.0,0.0,390.0,5.0,0.0
8982,54.0,60.0,150.0,13.0,0.0
8983,90.0,0.0,300.0,0.0,0.0
8984,81.0,0.0,300.0,1.0,0.0
8985,66.0,60.0,90.0,12.0,0.0
8986,66.0,72.0,90.0,12.0,0.0
8987,56.0,0.0,150.0,13.0,0.0
8988,44.0,60.0,150.0,14.0,0.0
8989,68.0,48.0,90.0,12.0,0.0
8990,68.0,120.0,90.0,12.0,0.0
8991,78.0,0.0,210.0,1.0,0.0
8992,69.0,60.0,90.0,12.0,0.0
8993,73.0,48.0,300.0,4.0,0.0
8994,90.0,0.0,210.0,0.0,0.0
8995,61.0,0.0,210.0,3.0,0.0
8996,81.0,0.0,210.0,1.0,0.0
8997,66.0,0.0,210.0,2.0,0.0
8998,69.0,72.0,210.0,2.0,0.0
8999,45.0,0.0,150.0,14.0,0.0
9000,57.0,60.0,150.0,13.0,0.0
9001,69.0,0.0,90.0,12.0,0.0
9002,81.0,0.0,150.0,11.0,0.0
9003,73.0,0.0,150.0,11.0,0.0
9004,47.0,0.0,150.0,14.0,0.0
9005,90.0,36.0,150.0,10.0,0.0
9006,59.0,0.0,150.0,13.0,0.0
9007,71.0,60.0,90.0,12.0,0.0
9008,81.0,0.0,150.0,10.0,0.0
9009,61.0,0.0,60.0,3.0,0.0
9010,69.0,0.0,60.0,2.0,0.0
9011,66.0,0.0,60.0,2.0,0.0
9012,73.0,0.0,90.0,4.0,0.0
9013,81.0,24.0,60.0,1.0,0.0
9014,71.0,408.0,90.0,12.0,0.0
9015,78.0,0.0,60.0,1.0,0.0
9016,90.0,0.0,60.0,0.0,0.0
9017,89.0,0.0,390.0,10.0,0.0
9018,77.0,2496.0,390.0,11.0,0.0
9019,80.0,0.0,390.0,1.0,0.0
9020,61.0,0.0,390.0,3.0,0.0
9021,61.0,0.0,390.0,13.0,0.0
9022,49.0,0.0,390.0,14.0,0.0
9023,77.0,0.0,390.0,1.0,0.0
9024,80.0,0.0,390.0,10.0,0.0
9025,89.0,0.0,390.0,0.0,0.0
9026,85.0,0.0,390.0,11.0,0.0
9027,73.0,0.0,390.0,12.0,0.0
9028,68.0,0.0,390.0,11.0,0.0
9029,65.0,0.0,390.0,2.0,0.0
9030,68.0,0.0,390.0,2.0,0.0
9031,73.0,0.0,390.0,4.0,0.0
9032,49.0,0.0,390.0,5.0,0.0
9033,73.0,0.0,390.0,10.0,0.0
9034,81.0,0.0,960.0,1.0,0.0
9035,69.0,0.0,960.0,1.0,0.0
9036,61.0,960.0,960.0,2.0,0.0
9037,57.0,0.0,960.0,2.0,0.0
9038,59.0,0.0,960.0,2.0,0.0
9039,68.0,0.0,960.0,1.0,0.0
9040,80.0,0.0,960.0,1.0,0.0
9041,62.0,384.0,960.0,2.0,0.0
9042,64.0,0.0,390.0,2.0,0.0
9043,69.0,0.0,390.0,1.0,0.0
9044,81.0,0.0,390.0,1.0,0.0
9045,61.0,96.0,390.0,2.0,0.0
9046,76.0,144.0,240.0,6.0,0.0
9047,73.0,240.0,480.0,10.0,0.0
9048,69.0,0.0,480.0,11.0,0.0
9049,88.0,240.0,150.0,6.0,0.0
9050,88.0,96.0,150.0,6.0,0.0
9051,88.0,192.0,240.0,6.0,0.0
9052,71.0,0.0,480.0,11.0,0.0
9053,74.0,240.0,480.0,10.0,0.0
9054,80.0,48.0,180.0,6.0,0.0
9055,73.0,0.0,390.0,11.0,0.0
9056,80.0,144.0,240.0,6.0,0.0
9057,76.0,48.0,390.0,10.0,0.0
9058,81.0,1008.0,180.0,6.0,0.0
9059,83.0,0.0,960.0,1.0,0.0
9060,59.0,0.0,960.0,2.0,0.0
9061,62.0,960.0,960.0,2.0,0.0
9062,71.0,0.0,960.0,1.0,0.0
9063,64.0,384.0,960.0,2.0,0.0
9064,82.0,0.0,960.0,1.0,0.0
9065,70.0,0.0,960.0,1.0,0.0
9066,61.0,0.0,960.0,2.0,0.0
9067,71.0,96.0,390.0,1.0,0.0
9068,83.0,0.0,390.0,1.0,0.0
9069,62.0,0.0,390.0,2.0,0.0
9070,66.0,0.0,390.0,2.0,0.0
9071,78.0,144.0,240.0,6.0,0.0
9072,71.0,0.0,480.0,11.0,0.0
9073,74.0,240.0,480.0,10.0,0.0
9074,90.0,240.0,150.0,6.0,0.0
9075,90.0,96.0,150.0,6.0,0.0
9076,90.0,192.0,240.0,6.0,0.0
9077,76.0,240.0,480.0,10.0,0.0
9078,73.0,0.0,480.0,11.0,0.0
9079,82.0,48.0,180.0,6.0,0.0
9080,74.0,0.0,390.0,11.0,0.0
9081,82.0,144.0,240.0,6.0,0.0
9082,78.0,48.0,390.0,10.0,0.0
9083,83.0,1008.0,180.0,6.0,0.0
9084,85.0,0.0,960.0,1.0,0.0
9085,61.0,960.0,960.0,2.0,0.0
9086,64.0,0.0,960.0,2.0,0.0
9087,73.0,0.0,960.0,1.0,0.0
9088,84.0,384.0,960.0,1.0,0.0
9089,72.0,0.0,960.0,1.0,0.0
9090,66.0,0.0,960.0,2.0,0.0
9091,63.0,0.0,960.0,2.0,0.0
9092,68.0,0.0,390.0,2.0,0.0
9093,64.0,0.0,390.0,2.0,0.0
9094,85.0,96.0,390.0,1.0,0.0
9095,73.0,0.0,390.0,1.0,0.0
9096,80.0,144.0,240.0,6.0,0.0
9097,73.0,0.0,480.0,11.0,0.0
9098,76.0,240.0,480.0,10.0,0.0
9099,92.0,240.0,150.0,6.0,0.0
9100,92.0,96.0,150.0,6.0,0.0
9101,92.0,192.0,240.0,6.0,0.0
9102,75.0,0.0,480.0,11.0,0.0
9103,78.0,240.0,480.0,10.0,0.0
9104,84.0,48.0,180.0,6.0,0.0
9105,80.0,0.0,390.0,10.0,0.0
9106,84.0,144.0,240.0,6.0,0.0
9107,76.0,48.0,390.0,11.0,0.0
9108,85.0,240.0,180.0,6.0,0.0
9109,88.0,24.0,360.0,6.0,0.0
9110,69.0,48.0,390.0,12.0,0.0
9111,66.0,0.0,390.0,8.0,0.0
9112,81.0,168.0,180.0,10.0,0.0
9113,66.0,0.0,390.0,13.0,0.0
9114,54.0,0.0,390.0,14.0,0.0
9115,74.0,24.0,180.0,10.0,0.0
9116,86.0,216.0,90.0,6.0,0.0
9117,90.0,120.0,720.0,6.0,0.0
9118,86.0,240.0,180.0,10.0,0.0
9119,85.0,288.0,180.0,10.0,0.0
9120,56.0,0.0,390.0,14.0,0.0
9121,64.0,0.0,390.0,12.0,0.0
9122,68.0,0.0,390.0,8.0,0.0
9123,83.0,48.0,390.0,10.0,0.0
9124,68.0,0.0,390.0,13.0,0.0
9125,88.0,24.0,120.0,6.0,0.0
9126,71.0,48.0,180.0,11.0,0.0
9127,86.0,192.0,120.0,6.0,0.0
9128,76.0,192.0,180.0,11.0,0.0
9129,85.0,0.0,180.0,6.0,0.0
9130,74.0,408.0,180.0,11.0,0.0
9131,83.0,48.0,150.0,6.0,0.0
9132,57.0,48.0,390.0,14.0,0.0
9133,73.0,0.0,390.0,11.0,0.0
9134,64.0,0.0,390.0,12.0,0.0
9135,69.0,0.0,390.0,8.0,0.0
9136,86.0,24.0,360.0,6.0,0.0
9137,69.0,0.0,390.0,13.0,0.0
9138,76.0,24.0,180.0,10.0,0.0
9139,85.0,216.0,90.0,6.0,0.0
9140,85.0,240.0,180.0,10.0,0.0
9141,88.0,120.0,720.0,6.0,0.0
9142,83.0,288.0,180.0,10.0,0.0
9143,66.0,0.0,390.0,13.0,0.0
9144,81.0,0.0,390.0,10.0,0.0
9145,54.0,0.0,390.0,14.0,0.0
9146,69.0,0.0,390.0,12.0,0.0
9147,66.0,48.0,390.0,8.0,0.0
9148,86.0,24.0,120.0,6.0,0.0
9149,69.0,48.0,180.0,11.0,0.0
9150,85.0,192.0,120.0,6.0,0.0
9151,74.0,0.0,180.0,11.0,0.0
9152,83.0,192.0,180.0,6.0,0.0
9153,73.0,240.0,180.0,11.0,0.0
9154,81.0,48.0,150.0,6.0,0.0
9155,71.0,0.0,390.0,11.0,0.0
9156,51.0,0.0,390.0,14.0,0.0
9157,66.0,0.0,390.0,12.0,0.0
9158,63.0,0.0,390.0,13.0,0.0
9159,63.0,48.0,390.0,8.0,0.0
9160,85.0,192.0,180.0,6.0,0.0
9161,83.0,48.0,390.0,6.0,0.0
9162,78.0,192.0,180.0,10.0,0.0
9163,83.0,240.0,180.0,10.0,0.0
9164,81.0,192.0,180.0,10.0,0.0
9165,91.0,240.0,390.0,6.0,0.0
9166,61.0,48.0,390.0,12.0,0.0
9167,80.0,0.0,390.0,10.0,0.0
9168,53.0,0.0,390.0,14.0,0.0
9169,65.0,0.0,390.0,13.0,0.0
9170,65.0,0.0,390.0,8.0,0.0
9171,92.0,48.0,390.0,6.0,0.0
9172,68.0,192.0,180.0,11.0,0.0
9173,73.0,240.0,180.0,11.0,0.0
9174,80.0,192.0,240.0,6.0,0.0
9175,71.0,48.0,180.0,11.0,0.0
9176,66.0,48.0,390.0,13.0,0.0
9177,66.0,0.0,390.0,8.0,0.0
9178,83.0,192.0,180.0,6.0,0.0
9179,54.0,0.0,390.0,14.0,0.0
9180,61.0,0.0,390.0,12.0,0.0
9181,69.0,0.0,390.0,11.0,0.0
9182,73.0,192.0,180.0,10.0,0.0
9183,81.0,48.0,390.0,6.0,0.0
9184,81.0,240.0,180.0,10.0,0.0
9185,80.0,192.0,180.0,10.0,0.0
9186,89.0,240.0,390.0,6.0,0.0
9187,62.0,48.0,390.0,13.0,0.0
9188,62.0,0.0,390.0,8.0,0.0
9189,50.0,0.0,390.0,14.0,0.0
9190,62.0,0.0,390.0,12.0,0.0
9191,78.0,0.0,390.0,10.0,0.0
9192,66.0,192.0,180.0,11.0,0.0
9193,90.0,48.0,390.0,6.0,0.0
9194,71.0,240.0,180.0,11.0,0.0
9195,78.0,192.0,240.0,6.0,0.0
9196,69.0,48.0,180.0,11.0,0.0
9197,59.0,0.0,390.0,13.0,0.0
9198,79.0,192.0,180.0,6.0,0.0
9199,59.0,0.0,390.0,8.0,0.0
9200,62.0,48.0,390.0,12.0,0.0
9201,68.0,0.0,390.0,11.0,0.0
9202,47.0,0.0,390.0,14.0,0.0
9203,80.0,48.0,390.0,6.0,0.0
9204,74.0,192.0,180.0,10.0,0.0
9205,86.0,240.0,180.0,10.0,0.0
9206,83.0,192.0,180.0,10.0,0.0
9207,83.0,240.0,390.0,6.0,0.0
9208,68.0,0.0,1920.0,12.0,0.0
9209,59.0,0.0,480.0,8.0,0.0
9210,47.0,0.0,480.0,14.0,0.0
9211,80.0,48.0,390.0,10.0,0.0
9212,59.0,144.0,480.0,13.0,0.0
9213,86.0,48.0,390.0,6.0,0.0
9214,62.0,48.0,180.0,11.0,0.0
9215,60.0,0.0,480.0,13.0,0.0
9216,60.0,0.0,480.0,8.0,0.0
9217,48.0,120.0,480.0,14.0,0.0
9218,68.0,240.0,180.0,11.0,0.0
9219,75.0,48.0,180.0,11.0,0.0
9220,78.0,0.0,180.0,6.0,0.0
9221,77.0,0.0,960.0,10.0,0.0
9222,61.0,0.0,960.0,8.0,0.0
9223,65.0,0.0,960.0,8.0,0.0
9224,68.0,120.0,960.0,8.0,0.0
9225,77.0,120.0,120.0,6.0,0.0
9226,49.0,0.0,3840.0,14.0,0.0
9227,73.0,0.0,1920.0,11.0,0.0
9228,80.0,120.0,120.0,6.0,0.0
9229,85.0,120.0,120.0,6.0,0.0
9230,84.0,120.0,120.0,6.0,0.0
9231,85.0,120.0,120.0,6.0,0.0
9232,83.0,120.0,120.0,6.0,0.0
9233,81.0,120.0,120.0,6.0,0.0
9234,80.0,0.0,120.0,6.0,0.0
9235,81.0,120.0,120.0,6.0,0.0
9236,78.0,0.0,960.0,10.0,0.0
9237,69.0,0.0,960.0,12.0,0.0
9238,69.0,0.0,960.0,8.0,0.0
9239,66.0,120.0,960.0,8.0,0.0
9240,83.0,120.0,120.0,6.0,0.0
9241,84.0,120.0,120.0,6.0,0.0
9242,85.0,120.0,120.0,6.0,0.0
9243,83.0,120.0,120.0,6.0,0.0
9244,81.0,120.0,120.0,6.0,0.0
9245,80.0,120.0,120.0,6.0,0.0
9246,78.0,0.0,120.0,6.0,0.0
9247,73.0,0.0,1920.0,12.0,0.0
9248,77.0,0.0,960.0,11.0,0.0
9249,77.0,120.0,120.0,6.0,0.0
9250,68.0,120.0,960.0,8.0,0.0
9251,65.0,0.0,960.0,8.0,0.0
9252,61.0,0.0,15.0,8.0,0.0
9253,80.0,0.0,960.0,10.0,0.0
9254,80.0,120.0,120.0,6.0,0.0
9255,85.0,120.0,120.0,6.0,0.0
9256,84.0,120.0,120.0,6.0,0.0
9257,85.0,120.0,120.0,6.0,0.0
9258,83.0,120.0,120.0,6.0,0.0
9259,81.0,120.0,120.0,6.0,0.0
9260,80.0,0.0,120.0,6.0,0.0
9261,81.0,120.0,120.0,6.0,0.0
9262,69.0,0.0,960.0,8.0,0.0
9263,81.0,0.0,960.0,10.0,0.0
9264,66.0,0.0,960.0,8.0,0.0
9265,78.0,0.0,960.0,11.0,0.0
9266,61.0,0.0,960.0,8.0,0.0
9267,83.0,120.0,120.0,6.0,0.0
9268,84.0,120.0,120.0,6.0,0.0
9269,85.0,120.0,120.0,6.0,0.0
9270,83.0,120.0,120.0,6.0,0.0
9271,81.0,120.0,120.0,6.0,0.0
9272,80.0,120.0,120.0,6.0,0.0
9273,78.0,0.0,120.0,6.0,0.0
9274,77.0,0.0,120.0,6.0,0.0
9275,49.0,96.0,390.0,14.0,0.0
9276,61.0,120.0,15.0,13.0,0.0
9277,73.0,0.0,390.0,12.0,0.0
9278,80.0,0.0,390.0,11.0,0.0
9279,89.0,0.0,390.0,10.0,0.0
9280,65.0,120.0,120.0,8.0,0.0
9281,66.0,120.0,120.0,8.0,0.0
9282,78.0,0.0,120.0,6.0,0.0
9283,80.0,0.0,120.0,6.0,0.0
9284,68.0,24.0,120.0,8.0,0.0
9285,66.0,0.0,120.0,8.0,0.0
9286,78.0,120.0,120.0,6.0,0.0
9287,65.0,0.0,120.0,8.0,0.0
9288,77.0,120.0,120.0,6.0,0.0
9289,74.0,120.0,120.0,6.0,0.0
9290,62.0,0.0,120.0,8.0,0.0
9291,73.0,120.0,120.0,6.0,0.0
9292,61.0,0.0,120.0,8.0,0.0
9293,71.0,120.0,120.0,6.0,0.0
9294,59.0,0.0,120.0,8.0,0.0
9295,69.0,0.0,120.0,6.0,0.0
9296,90.0,96.0,390.0,10.0,0.0
9297,61.0,0.0,390.0,13.0,0.0
9298,73.0,0.0,390.0,12.0,0.0
9299,81.0,0.0,390.0,11.0,0.0
9300,49.0,0.0,390.0,14.0,0.0
9301,57.0,120.0,120.0,8.0,0.0
9302,59.0,0.0,120.0,8.0,0.0
9303,71.0,120.0,120.0,6.0,0.0
9304,72.0,0.0,120.0,6.0,0.0
9305,60.0,24.0,120.0,8.0,0.0
9306,61.0,120.0,120.0,8.0,0.0
9307,73.0,0.0,120.0,6.0,0.0
9308,71.0,120.0,120.0,6.0,0.0
9309,59.0,0.0,120.0,8.0,0.0
9310,57.0,0.0,120.0,8.0,0.0
9311,69.0,120.0,120.0,6.0,0.0
9312,68.0,120.0,120.0,6.0,0.0
9313,56.0,0.0,120.0,8.0,0.0
9314,54.0,0.0,120.0,8.0,0.0
9315,66.0,384.0,120.0,6.0,0.0
9316,49.0,0.0,390.0,13.0,0.0
9317,37.0,0.0,390.0,14.0,0.0
9318,49.0,0.0,390.0,8.0,0.0
9319,61.0,0.0,390.0,8.0,0.0
9320,68.0,0.0,390.0,6.0,0.0
9321,65.0,0.0,390.0,6.0,0.0
9322,73.0,0.0,390.0,6.0,0.0
9323,61.0,0.0,390.0,10.0,0.0
9324,61.0,0.0,390.0,12.0,0.0
9325,61.0,960.0,390.0,11.0,0.0
9326,73.0,480.0,390.0,6.0,0.0
9327,73.0,216.0,390.0,6.0,0.0
9328,54.0,0.0,960.0,8.0,0.0
9329,57.0,0.0,960.0,8.0,0.0
9330,73.0,600.0,120.0,6.0,0.0
9331,61.0,0.0,1920.0,8.0,0.0
9332,81.0,120.0,600.0,6.0,0.0
9333,80.0,120.0,120.0,6.0,0.0
9334,78.0,480.0,120.0,6.0,0.0
9335,59.0,0.0,960.0,8.0,0.0
9336,77.0,480.0,480.0,6.0,0.0
9337,56.0,0.0,960.0,8.0,0.0
9338,80.0,384.0,480.0,6.0,0.0
9339,57.0,0.0,390.0,8.0,0.0
9340,61.0,0.0,390.0,8.0,0.0
9341,78.0,696.0,390.0,6.0,0.0
9342,81.0,0.0,120.0,11.0,0.0
9343,85.0,288.0,120.0,10.0,0.0
9344,69.0,120.0,480.0,6.0,0.0
9345,78.0,0.0,300.0,11.0,0.0
9346,81.0,72.0,300.0,10.0,0.0
9347,73.0,0.0,15.0,6.0,0.0
9348,78.0,288.0,120.0,11.0,0.0
9349,78.0,120.0,480.0,6.0,0.0
9350,81.0,0.0,120.0,10.0,0.0
9351,78.0,0.0,300.0,10.0,0.0
9352,73.0,72.0,300.0,11.0,0.0
9353,78.0,120.0,480.0,6.0,0.0
9354,78.0,288.0,120.0,10.0,0.0
9355,73.0,0.0,120.0,11.0,0.0
9356,69.0,0.0,300.0,11.0,0.0
9357,73.0,72.0,300.0,10.0,0.0
9358,73.0,288.0,120.0,10.0,0.0
9359,69.0,0.0,120.0,11.0,0.0
9360,81.0,0.0,15.0,6.0,0.0
9361,85.0,0.0,480.0,6.0,0.0
9362,66.0,0.0,300.0,11.0,0.0
9363,69.0,72.0,300.0,10.0,0.0
9364,71.0,0.0,180.0,10.0,0.0
9365,80.0,0.0,180.0,6.0,0.0
9366,68.0,0.0,180.0,11.0,0.0
9367,65.0,0.0,180.0,8.0,0.0
9368,41.0,480.0,180.0,14.0,0.0
9369,61.0,0.0,180.0,12.0,0.0
9370,53.0,0.0,180.0,13.0,0.0
9371,83.0,0.0,180.0,6.0,0.0
9372,66.0,0.0,180.0,11.0,0.0
9373,54.0,0.0,180.0,13.0,0.0
9374,69.0,0.0,180.0,10.0,0.0
9375,42.0,0.0,180.0,14.0,0.0
9376,66.0,0.0,180.0,8.0,0.0
9377,61.0,0.0,180.0,12.0,0.0
9378,78.0,0.0,180.0,6.0,0.0
9379,81.0,672.0,180.0,6.0,0.0
9380,37.0,960.0,390.0,14.0,0.0
9381,61.0,0.0,390.0,12.0,0.0
9382,77.0,0.0,390.0,6.0,0.0
9383,80.0,0.0,390.0,6.0,0.0
9384,61.0,0.0,390.0,8.0,0.0
9385,65.0,0.0,390.0,11.0,0.0
9386,68.0,0.0,390.0,10.0,0.0
9387,49.0,0.0,390.0,13.0,0.0
9388,74.0,480.0,390.0,6.0,0.0
9389,74.0,216.0,390.0,6.0,0.0
9390,74.0,600.0,120.0,6.0,0.0
9391,86.0,120.0,600.0,6.0,0.0
9392,85.0,120.0,120.0,6.0,0.0
9393,83.0,480.0,120.0,6.0,0.0
9394,82.0,480.0,480.0,6.0,0.0
9395,85.0,384.0,480.0,6.0,0.0
9396,62.0,696.0,390.0,8.0,0.0
9397,83.0,0.0,390.0,6.0,0.0
9398,66.0,0.0,390.0,8.0,0.0
9399,78.0,0.0,480.0,6.0,0.0
9400,72.0,0.0,1350.0,7.0,0.0
9401,81.0,120.0,480.0,6.0,0.0
9402,84.0,0.0,120.0,11.0,0.0
9403,66.0,24.0,1350.0,7.0,0.0
9404,90.0,288.0,120.0,10.0,0.0
9405,63.0,0.0,1350.0,7.0,0.0
9406,84.0,72.0,300.0,10.0,0.0
9407,81.0,0.0,300.0,11.0,0.0
9408,84.0,288.0,120.0,10.0,0.0
9409,84.0,0.0,480.0,6.0,0.0
9410,81.0,0.0,120.0,11.0,0.0
9411,81.0,120.0,480.0,6.0,0.0
9412,78.0,72.0,300.0,11.0,0.0
9413,81.0,0.0,300.0,10.0,0.0
9414,84.0,0.0,480.0,6.0,0.0
9415,78.0,264.0,120.0,11.0,0.0
9416,81.0,0.0,120.0,10.0,0.0
9417,78.0,72.0,300.0,10.0,0.0
9418,72.0,0.0,300.0,11.0,0.0
9419,93.0,192.0,480.0,6.0,0.0
9420,90.0,120.0,15.0,6.0,0.0
9421,78.0,0.0,120.0,10.0,0.0
9422,71.0,288.0,120.0,11.0,0.0
9423,69.0,72.0,300.0,11.0,0.0
9424,72.0,0.0,300.0,10.0,0.0
9425,61.0,0.0,180.0,7.0,0.0
9426,73.0,0.0,180.0,7.0,0.0
9427,73.0,0.0,180.0,10.0,0.0
9428,66.0,0.0,180.0,12.0,0.0
9429,69.0,0.0,180.0,11.0,0.0
9430,61.0,480.0,180.0,13.0,0.0
9431,85.0,0.0,180.0,6.0,0.0
9432,78.0,0.0,180.0,6.0,0.0
9433,81.0,0.0,180.0,6.0,0.0
9434,49.0,0.0,180.0,14.0,0.0
9435,65.0,0.0,180.0,12.0,0.0
9436,80.0,672.0,180.0,6.0,0.0
9437,85.0,0.0,180.0,6.0,0.0
9438,77.0,0.0,180.0,6.0,0.0
9439,73.0,0.0,180.0,7.0,0.0
9440,61.0,0.0,180.0,7.0,0.0
9441,73.0,0.0,180.0,10.0,0.0
9442,68.0,0.0,180.0,11.0,0.0
9443,49.0,0.0,180.0,14.0,0.0
9444,61.0,0.0,180.0,13.0,0.0
9445,66.0,0.0,390.0,11.0,0.0
9446,66.0,0.0,390.0,12.0,0.0
9447,54.0,0.0,390.0,13.0,0.0
9448,66.0,998.0,390.0,7.0,0.0
9449,42.0,0.0,390.0,14.0,0.0
9450,66.0,0.0,390.0,10.0,0.0
9451,78.0,0.0,390.0,6.0,0.0
9452,73.0,480.0,420.0,1.0,0.0
9453,73.0,214.0,420.0,1.0,0.0
9454,73.0,0.0,960.0,10.0,0.0
9455,81.0,120.0,720.0,1.0,0.0
9456,73.0,0.0,2310.0,1.0,0.0
9457,61.0,12.0,2310.0,12.0,0.0
9458,69.0,0.0,960.0,11.0,0.0
9459,54.0,0.0,960.0,13.0,0.0
9460,54.0,240.0,150.0,2.0,0.0
9461,57.0,240.0,150.0,2.0,0.0
9462,61.0,84.0,150.0,2.0,0.0
9463,66.0,84.0,150.0,2.0,0.0
9464,80.0,36.0,120.0,1.0,0.0
9465,78.0,156.0,120.0,1.0,0.0
9466,71.0,0.0,960.0,10.0,0.0
9467,77.0,0.0,480.0,1.0,0.0
9468,56.0,0.0,960.0,13.0,0.0
9469,68.0,156.0,480.0,11.0,0.0
9470,56.0,240.0,150.0,2.0,0.0
9471,59.0,84.0,150.0,2.0,0.0
9472,80.0,156.0,480.0,1.0,0.0
9473,65.0,240.0,150.0,2.0,0.0
9474,65.0,0.0,480.0,11.0,0.0
9475,68.0,84.0,150.0,2.0,0.0
9476,78.0,0.0,390.0,1.0,0.0
9477,57.0,228.0,150.0,2.0,0.0
9478,57.0,0.0,390.0,13.0,0.0
9479,69.0,0.0,390.0,10.0,0.0
9480,66.0,0.0,390.0,11.0,0.0
9481,61.0,240.0,150.0,2.0,0.0
9482,66.0,240.0,150.0,2.0,0.0
9483,69.0,240.0,150.0,2.0,0.0
9484,69.0,0.0,480.0,1.0,0.0
9485,66.0,84.0,150.0,2.0,0.0
9486,73.0,0.0,480.0,1.0,0.0
9487,85.0,24.0,1860.0,0.0,0.0
9488,85.0,120.0,240.0,6.0,0.0
9489,69.0,84.0,150.0,2.0,0.0
9490,83.0,36.0,120.0,6.0,0.0
9491,81.0,120.0,120.0,6.0,0.0
9492,73.0,0.0,480.0,1.0,0.0
9493,61.0,84.0,150.0,2.0,0.0
9494,80.0,36.0,120.0,6.0,0.0
9495,78.0,120.0,120.0,6.0,0.0
9496,66.0,84.0,150.0,2.0,0.0
9497,76.0,36.0,120.0,6.0,0.0
9498,74.0,0.0,120.0,6.0,0.0
9499,57.0,84.0,150.0,2.0,0.0
9500,73.0,36.0,120.0,6.0,0.0
9501,78.0,120.0,15.0,1.0,0.0
9502,81.0,0.0,480.0,1.0,0.0
9503,71.0,120.0,120.0,6.0,0.0
9504,69.0,36.0,120.0,6.0,0.0
9505,61.0,84.0,150.0,2.0,0.0
9506,68.0,120.0,120.0,6.0,0.0
9507,54.0,84.0,150.0,2.0,0.0
9508,66.0,36.0,120.0,6.0,0.0
9509,81.0,0.0,450.0,1.0,0.0
9510,85.0,24.0,450.0,1.0,0.0
9511,64.0,120.0,120.0,6.0,0.0
9512,62.0,36.0,120.0,6.0,0.0
9513,57.0,36.0,150.0,2.0,0.0
9514,61.0,156.0,120.0,6.0,0.0
9515,73.0,0.0,180.0,3.0,0.0
9516,95.0,0.0,180.0,0.0,0.0
9517,56.0,0.0,180.0,7.0,0.0
9518,59.0,0.0,180.0,7.0,0.0
9519,41.0,204.0,180.0,8.0,0.0
9520,53.0,36.0,150.0,2.0,0.0
9521,61.0,0.0,180.0,3.0,0.0
9522,83.0,0.0,180.0,1.0,0.0
9523,80.0,0.0,180.0,1.0,0.0
9524,49.0,240.0,150.0,2.0,0.0
9525,61.0,0.0,180.0,3.0,0.0
9526,54.0,0.0,180.0,7.0,0.0
9527,73.0,0.0,180.0,3.0,0.0
9528,78.0,0.0,180.0,1.0,0.0
9529,54.0,36.0,150.0,2.0,0.0
9530,57.0,0.0,180.0,7.0,0.0
9531,81.0,0.0,180.0,1.0,0.0
9532,93.0,204.0,180.0,0.0,0.0
9533,42.0,0.0,180.0,8.0,0.0
9534,57.0,240.0,150.0,2.0,0.0
9535,77.0,58.0,420.0,1.0,0.0
9536,80.0,0.0,420.0,1.0,0.0
9537,49.0,228.0,150.0,2.0,0.0
9538,61.0,0.0,390.0,3.0,0.0
9539,73.0,0.0,390.0,3.0,0.0
9540,92.0,0.0,390.0,0.0,0.0
9541,53.0,0.0,390.0,7.0,0.0
9542,56.0,0.0,390.0,7.0,0.0
9543,37.0,38.0,390.0,8.0,0.0
9544,61.0,240.0,240.0,2.0,0.0
9545,60.0,156.0,240.0,2.0,0.0
9546,61.0,240.0,150.0,2.0,0.0
9547,74.0,214.0,420.0,1.0,0.0
9548,62.0,240.0,150.0,2.0,0.0
9549,59.0,26.0,150.0,2.0,0.0
9550,74.0,202.0,420.0,1.0,0.0
9551,55.0,240.0,150.0,2.0,0.0
9552,50.0,26.0,150.0,2.0,0.0
9553,67.0,0.0,960.0,12.0,0.0
9554,47.0,240.0,150.0,2.0,0.0
9555,74.0,0.0,960.0,10.0,0.0
9556,74.0,0.0,960.0,1.0,0.0
9557,86.0,120.0,720.0,1.0,0.0
9558,59.0,144.0,960.0,13.0,0.0
9559,71.0,0.0,960.0,11.0,0.0
9560,50.0,240.0,150.0,2.0,0.0
9561,55.0,96.0,150.0,2.0,0.0
9562,85.0,24.0,120.0,1.0,0.0
9563,59.0,96.0,150.0,2.0,0.0
9564,83.0,0.0,120.0,1.0,0.0
9565,49.0,240.0,150.0,2.0,0.0
9566,70.0,144.0,960.0,11.0,0.0
9567,64.0,0.0,960.0,12.0,0.0
9568,73.0,0.0,960.0,10.0,0.0
9569,61.0,0.0,960.0,13.0,0.0
9570,79.0,144.0,720.0,1.0,0.0
9571,82.0,144.0,480.0,1.0,0.0
9572,52.0,96.0,150.0,2.0,0.0
9573,58.0,96.0,150.0,2.0,0.0
9574,85.0,0.0,480.0,1.0,0.0
9575,78.0,0.0,240.0,1.0,0.0
9576,61.0,96.0,150.0,2.0,0.0
9577,71.0,240.0,390.0,10.0,0.0
9578,78.0,0.0,390.0,1.0,0.0
9579,83.0,0.0,390.0,1.0,0.0
9580,50.0,240.0,150.0,2.0,0.0
9581,71.0,0.0,390.0,11.0,0.0
9582,62.0,0.0,390.0,13.0,0.0
9583,66.0,0.0,390.0,12.0,0.0
9584,54.0,0.0,150.0,2.0,0.0
9585,59.0,240.0,150.0,2.0,0.0
9586,62.0,176.0,150.0,2.0,0.0
9587,72.0,0.0,480.0,1.0,0.0
9588,90.0,80.0,1440.0,0.0,0.0
9589,66.0,64.0,90.0,6.0,0.0
9590,63.0,16.0,150.0,2.0,0.0
9591,68.0,80.0,90.0,6.0,0.0
9592,66.0,80.0,90.0,6.0,0.0
9593,65.0,64.0,90.0,6.0,0.0
9594,66.0,16.0,150.0,2.0,0.0
9595,66.0,80.0,90.0,6.0,0.0
9596,67.0,80.0,90.0,6.0,0.0
9597,57.0,16.0,150.0,2.0,0.0
9598,78.0,0.0,15.0,1.0,0.0
9599,81.0,0.0,480.0,1.0,0.0
9600,68.0,64.0,90.0,6.0,0.0
9601,69.0,80.0,90.0,6.0,0.0
9602,70.0,80.0,90.0,6.0,0.0
9603,71.0,64.0,90.0,6.0,0.0
9604,63.0,16.0,150.0,2.0,0.0
9605,72.0,80.0,90.0,6.0,0.0
9606,73.0,80.0,90.0,6.0,0.0
9607,54.0,16.0,150.0,2.0,0.0
9608,74.0,64.0,90.0,6.0,0.0
9609,81.0,0.0,480.0,1.0,0.0
9610,75.0,80.0,90.0,6.0,0.0
9611,76.0,80.0,90.0,6.0,0.0
9612,57.0,16.0,150.0,2.0,0.0
9613,77.0,64.0,90.0,6.0,0.0
9614,78.0,80.0,90.0,6.0,0.0
9615,79.0,0.0,90.0,6.0,0.0
9616,84.0,0.0,15.0,1.0,0.0
9617,90.0,0.0,480.0,1.0,0.0
9618,80.0,64.0,90.0,6.0,0.0
9619,51.0,16.0,150.0,2.0,0.0
9620,93.0,144.0,480.0,0.0,0.0
9621,81.0,80.0,90.0,6.0,0.0
9622,82.0,120.0,90.0,6.0,0.0
9623,83.0,24.0,120.0,6.0,0.0
9624,54.0,72.0,150.0,2.0,0.0
9625,84.0,24.0,90.0,6.0,0.0
9626,85.0,0.0,180.0,6.0,0.0
9627,81.0,0.0,180.0,1.0,0.0
9628,69.0,0.0,180.0,7.0,0.0
9629,78.0,192.0,180.0,1.0,0.0
9630,49.0,48.0,150.0,2.0,0.0
9631,66.0,0.0,180.0,7.0,0.0
9632,73.0,0.0,180.0,3.0,0.0
9633,85.0,0.0,180.0,0.0,0.0
9634,61.0,0.0,180.0,7.0,0.0
9635,61.0,0.0,180.0,3.0,0.0
9636,61.0,240.0,150.0,2.0,0.0
9637,85.0,0.0,180.0,0.0,0.0
9638,65.0,0.0,180.0,7.0,0.0
9639,68.0,0.0,180.0,7.0,0.0
9640,49.0,48.0,150.0,2.0,0.0
9641,85.0,0.0,180.0,6.0,0.0
9642,73.0,0.0,180.0,3.0,0.0
9643,77.0,0.0,180.0,1.0,0.0
9644,80.0,192.0,180.0,1.0,0.0
9645,61.0,0.0,180.0,7.0,0.0
9646,61.0,0.0,180.0,3.0,0.0
9647,61.0,216.0,150.0,2.0,0.0
9648,78.0,0.0,390.0,0.0,0.0
9649,66.0,0.0,390.0,7.0,0.0
9650,54.0,0.0,390.0,2.0,0.0
9651,54.0,96.0,390.0,3.0,0.0
9652,78.0,0.0,390.0,1.0,0.0
9653,78.0,120.0,120.0,6.0,0.0
9654,66.0,0.0,390.0,3.0,0.0
9655,85.0,120.0,120.0,6.0,0.0
9656,84.0,24.0,120.0,6.0,0.0
9657,85.0,120.0,120.0,6.0,0.0
9658,84.0,120.0,120.0,6.0,0.0
9659,85.0,120.0,120.0,6.0,0.0
9660,84.0,120.0,120.0,6.0,0.0
9661,85.0,120.0,120.0,6.0,0.0
9662,84.0,120.0,120.0,6.0,0.0
9663,85.0,120.0,120.0,6.0,0.0
9664,86.0,120.0,120.0,6.0,0.0
9665,85.0,120.0,120.0,6.0,0.0
9666,83.0,120.0,120.0,6.0,0.0
9667,81.0,120.0,120.0,6.0,0.0
9668,80.0,120.0,120.0,6.0,0.0
9669,78.0,120.0,120.0,6.0,0.0
9670,77.0,96.0,150.0,6.0,0.0
9671,61.0,0.0,1920.0,13.0,0.0
9672,61.0,24.0,120.0,7.0,0.0
9673,49.0,120.0,1920.0,14.0,0.0
9674,73.0,120.0,120.0,7.0,0.0
9675,83.0,0.0,240.0,6.0,0.0
9676,77.0,0.0,240.0,10.0,0.0
9677,71.0,0.0,240.0,11.0,0.0
9678,74.0,120.0,120.0,7.0,0.0
9679,68.0,0.0,240.0,12.0,0.0
9680,73.0,120.0,120.0,7.0,0.0
9681,92.0,120.0,240.0,6.0,0.0
9682,74.0,0.0,240.0,11.0,0.0
9683,71.0,120.0,120.0,7.0,0.0
9684,80.0,0.0,240.0,10.0,0.0
9685,71.0,0.0,240.0,12.0,0.0
9686,73.0,0.0,120.0,7.0,0.0
9687,73.0,0.0,240.0,11.0,0.0
9688,69.0,0.0,240.0,12.0,0.0
9689,69.0,120.0,120.0,7.0,0.0
9690,90.0,0.0,240.0,6.0,0.0
9691,78.0,120.0,240.0,10.0,0.0
9692,73.0,0.0,120.0,7.0,0.0
9693,89.0,0.0,240.0,6.0,0.0
9694,68.0,0.0,240.0,12.0,0.0
9695,71.0,0.0,240.0,11.0,0.0
9696,68.0,120.0,120.0,7.0,0.0
9697,77.0,120.0,240.0,10.0,0.0
9698,73.0,0.0,120.0,7.0,0.0
9699,66.0,120.0,120.0,7.0,0.0
9700,66.0,0.0,240.0,12.0,0.0
9701,74.0,0.0,240.0,10.0,0.0
9702,69.0,0.0,240.0,11.0,0.0
9703,86.0,0.0,240.0,6.0,0.0
9704,73.0,120.0,120.0,7.0,0.0
9705,68.0,0.0,240.0,11.0,0.0
9706,65.0,0.0,240.0,12.0,0.0
9707,85.0,120.0,240.0,6.0,0.0
9708,73.0,0.0,240.0,10.0,0.0
9709,65.0,120.0,120.0,7.0,0.0
9710,73.0,0.0,120.0,7.0,0.0
9711,65.0,0.0,240.0,11.0,0.0
9712,68.0,0.0,240.0,12.0,0.0
9713,61.0,120.0,120.0,7.0,0.0
9714,83.0,0.0,240.0,6.0,0.0
9715,71.0,0.0,240.0,10.0,0.0
9716,73.0,0.0,120.0,7.0,0.0
9717,66.0,0.0,390.0,11.0,0.0
9718,78.0,120.0,120.0,6.0,0.0
9719,66.0,0.0,390.0,7.0,0.0
9720,69.0,0.0,390.0,10.0,0.0
9721,66.0,0.0,390.0,12.0,0.0
9722,54.0,0.0,390.0,13.0,0.0
9723,42.0,96.0,390.0,14.0,0.0
9724,85.0,120.0,120.0,6.0,0.0
9725,84.0,24.0,120.0,6.0,0.0
9726,85.0,120.0,120.0,6.0,0.0
9727,84.0,120.0,120.0,6.0,0.0
9728,85.0,120.0,120.0,6.0,0.0
9729,84.0,120.0,120.0,6.0,0.0
9730,85.0,120.0,120.0,6.0,0.0
9731,84.0,120.0,120.0,6.0,0.0
9732,85.0,120.0,120.0,6.0,0.0
9733,86.0,120.0,120.0,6.0,0.0
9734,85.0,120.0,120.0,6.0,0.0
9735,83.0,120.0,120.0,6.0,0.0
9736,81.0,120.0,120.0,6.0,0.0
9737,80.0,120.0,120.0,6.0,0.0
9738,78.0,120.0,120.0,6.0,0.0
9739,61.0,0.0,1920.0,13.0,0.0
9740,61.0,24.0,120.0,7.0,0.0
9741,49.0,0.0,1920.0,14.0,0.0
9742,77.0,96.0,150.0,6.0,0.0
9743,73.0,120.0,120.0,7.0,0.0
9744,74.0,120.0,120.0,7.0,0.0
9745,68.0,0.0,240.0,12.0,0.0
9746,71.0,0.0,240.0,11.0,0.0
9747,83.0,0.0,240.0,6.0,0.0
9748,77.0,0.0,240.0,10.0,0.0
9749,73.0,120.0,120.0,7.0,0.0
9750,71.0,120.0,120.0,7.0,0.0
9751,80.0,0.0,240.0,10.0,0.0
9752,71.0,0.0,240.0,12.0,0.0
9753,92.0,0.0,240.0,6.0,0.0
9754,74.0,120.0,240.0,11.0,0.0
9755,73.0,0.0,120.0,7.0,0.0
9756,69.0,0.0,240.0,12.0,0.0
9757,69.0,120.0,120.0,7.0,0.0
9758,73.0,0.0,240.0,11.0,0.0
9759,78.0,0.0,240.0,10.0,0.0
9760,90.0,0.0,240.0,6.0,0.0
9761,73.0,120.0,120.0,7.0,0.0
9762,77.0,0.0,240.0,10.0,0.0
9763,68.0,0.0,240.0,12.0,0.0
9764,68.0,120.0,120.0,7.0,0.0
9765,71.0,120.0,240.0,11.0,0.0
9766,89.0,0.0,240.0,6.0,0.0
9767,73.0,0.0,120.0,7.0,0.0
9768,86.0,120.0,240.0,6.0,0.0
9769,66.0,0.0,240.0,12.0,0.0
9770,74.0,0.0,240.0,10.0,0.0
9771,69.0,0.0,240.0,11.0,0.0
9772,66.0,120.0,120.0,7.0,0.0
9773,73.0,0.0,120.0,7.0,0.0
9774,65.0,0.0,240.0,12.0,0.0
9775,73.0,0.0,240.0,10.0,0.0
9776,65.0,120.0,120.0,7.0,0.0
9777,68.0,120.0,240.0,11.0,0.0
9778,85.0,0.0,240.0,6.0,0.0
9779,73.0,0.0,120.0,7.0,0.0
9780,61.0,120.0,120.0,7.0,0.0
9781,65.0,0.0,240.0,11.0,0.0
9782,71.0,0.0,240.0,10.0,0.0
9783,83.0,0.0,240.0,6.0,0.0
9784,68.0,0.0,240.0,12.0,0.0
9785,73.0,120.0,120.0,7.0,0.0
9786,70.0,0.0,150.0,10.0,0.0
9787,66.0,0.0,150.0,11.0,0.0
9788,65.0,24.0,120.0,7.0,0.0
9789,82.0,96.0,150.0,6.0,0.0
9790,54.0,0.0,1920.0,13.0,0.0
9791,42.0,0.0,1920.0,14.0,0.0
9792,66.0,0.0,150.0,12.0,0.0
9793,66.0,120.0,120.0,7.0,0.0
9794,82.0,0.0,240.0,10.0,0.0
9795,66.0,0.0,240.0,12.0,0.0
9796,82.0,0.0,240.0,6.0,0.0
9797,67.0,120.0,120.0,7.0,0.0
9798,73.0,0.0,240.0,11.0,0.0
9799,66.0,120.0,120.0,7.0,0.0
9800,64.0,120.0,120.0,7.0,0.0
9801,85.0,0.0,240.0,6.0,0.0
9802,79.0,120.0,240.0,11.0,0.0
9803,64.0,0.0,240.0,12.0,0.0
9804,85.0,0.0,240.0,10.0,0.0
9805,66.0,0.0,120.0,7.0,0.0
9806,83.0,0.0,240.0,6.0,0.0
9807,62.0,0.0,240.0,12.0,0.0
9808,78.0,0.0,240.0,11.0,0.0
9809,83.0,120.0,240.0,10.0,0.0
9810,62.0,120.0,120.0,7.0,0.0
9811,66.0,0.0,120.0,7.0,0.0
9812,61.0,120.0,120.0,7.0,0.0
9813,61.0,0.0,240.0,12.0,0.0
9814,82.0,0.0,240.0,6.0,0.0
9815,76.0,0.0,240.0,11.0,0.0
9816,82.0,120.0,240.0,10.0,0.0
9817,66.0,0.0,120.0,7.0,0.0
9818,59.0,120.0,120.0,7.0,0.0
9819,79.0,0.0,240.0,10.0,0.0
9820,59.0,0.0,240.0,12.0,0.0
9821,74.0,0.0,240.0,11.0,0.0
9822,79.0,120.0,240.0,6.0,0.0
9823,66.0,0.0,120.0,7.0,0.0
9824,58.0,0.0,240.0,12.0,0.0
9825,78.0,0.0,240.0,6.0,0.0
9826,78.0,0.0,240.0,10.0,0.0
9827,73.0,120.0,240.0,11.0,0.0
9828,58.0,120.0,120.0,7.0,0.0
9829,66.0,0.0,120.0,7.0,0.0
9830,61.0,0.0,240.0,12.0,0.0
9831,76.0,120.0,240.0,10.0,0.0
9832,70.0,0.0,240.0,11.0,0.0
9833,76.0,0.0,240.0,6.0,0.0
9834,54.0,120.0,120.0,7.0,0.0
9835,66.0,0.0,120.0,7.0,0.0
9836,59.0,0.0,180.0,7.0,0.0
9837,47.0,96.0,390.0,14.0,0.0
9838,71.0,48.0,180.0,11.0,0.0
9839,74.0,0.0,180.0,10.0,0.0
9840,74.0,72.0,120.0,6.0,0.0
9841,59.0,0.0,390.0,13.0,0.0
9842,59.0,0.0,180.0,12.0,0.0
9843,78.0,120.0,120.0,6.0,0.0
9844,86.0,24.0,120.0,6.0,0.0
9845,85.0,120.0,120.0,6.0,0.0
9846,83.0,24.0,120.0,6.0,0.0
9847,74.0,0.0,150.0,7.0,0.0
9848,74.0,0.0,150.0,12.0,0.0
9849,78.0,0.0,150.0,11.0,0.0
9850,83.0,96.0,150.0,10.0,0.0
9851,86.0,120.0,120.0,6.0,0.0
9852,73.0,96.0,150.0,7.0,0.0
9853,74.0,0.0,150.0,12.0,0.0
9854,81.0,0.0,150.0,10.0,0.0
9855,76.0,0.0,150.0,11.0,0.0
9856,81.0,24.0,120.0,6.0,0.0
9857,86.0,120.0,120.0,6.0,0.0
9858,79.0,24.0,120.0,6.0,0.0
9859,79.0,96.0,150.0,10.0,0.0
9860,74.0,0.0,150.0,11.0,0.0
9861,71.0,0.0,150.0,12.0,0.0
9862,71.0,0.0,150.0,7.0,0.0
9863,86.0,120.0,120.0,6.0,0.0
9864,83.0,24.0,120.0,6.0,0.0
9865,74.0,96.0,150.0,7.0,0.0
9866,86.0,120.0,120.0,6.0,0.0
9867,79.0,0.0,150.0,10.0,0.0
9868,71.0,96.0,150.0,7.0,0.0
9869,74.0,0.0,150.0,11.0,0.0
9870,79.0,24.0,120.0,6.0,0.0
9871,71.0,0.0,150.0,12.0,0.0
9872,86.0,120.0,120.0,6.0,0.0
9873,78.0,24.0,120.0,6.0,0.0
9874,69.0,96.0,150.0,7.0,0.0
9875,73.0,0.0,150.0,11.0,0.0
9876,69.0,0.0,150.0,12.0,0.0
9877,78.0,0.0,150.0,10.0,0.0
9878,86.0,120.0,120.0,6.0,0.0
9879,68.0,0.0,150.0,12.0,0.0
9880,68.0,0.0,150.0,7.0,0.0
9881,77.0,0.0,150.0,10.0,0.0
9882,71.0,96.0,150.0,11.0,0.0
9883,77.0,24.0,120.0,6.0,0.0
9884,83.0,120.0,120.0,6.0,0.0
9885,80.0,24.0,120.0,6.0,0.0
9886,71.0,96.0,150.0,7.0,0.0
9887,83.0,120.0,120.0,6.0,0.0
9888,77.0,24.0,120.0,6.0,0.0
9889,77.0,0.0,150.0,10.0,0.0
9890,68.0,0.0,150.0,7.0,0.0
9891,68.0,96.0,150.0,12.0,0.0
9892,71.0,0.0,150.0,11.0,0.0
9893,83.0,120.0,120.0,6.0,0.0
9894,69.0,0.0,150.0,11.0,0.0
9895,66.0,0.0,150.0,12.0,0.0
9896,74.0,96.0,150.0,10.0,0.0
9897,66.0,0.0,150.0,7.0,0.0
9898,74.0,24.0,120.0,6.0,0.0
9899,83.0,120.0,120.0,6.0,0.0
9900,68.0,0.0,150.0,11.0,0.0
9901,65.0,96.0,150.0,7.0,0.0
9902,73.0,0.0,150.0,10.0,0.0
9903,65.0,0.0,150.0,12.0,0.0
9904,73.0,24.0,120.0,6.0,0.0
9905,80.0,120.0,120.0,6.0,0.0
9906,77.0,24.0,120.0,6.0,0.0
9907,68.0,96.0,150.0,7.0,0.0
9908,80.0,120.0,120.0,6.0,0.0
9909,73.0,0.0,150.0,10.0,0.0
9910,65.0,0.0,150.0,7.0,0.0
9911,68.0,96.0,150.0,11.0,0.0
9912,65.0,0.0,150.0,12.0,0.0
9913,73.0,24.0,120.0,6.0,0.0
9914,80.0,120.0,120.0,6.0,0.0
9915,71.0,24.0,120.0,6.0,0.0
9916,71.0,96.0,150.0,10.0,0.0
9917,61.0,0.0,150.0,12.0,0.0
9918,65.0,0.0,150.0,11.0,0.0
9919,61.0,0.0,150.0,7.0,0.0
9920,80.0,144.0,120.0,6.0,0.0
9921,69.0,0.0,150.0,10.0,0.0
9922,66.0,0.0,150.0,12.0,0.0
9923,69.0,0.0,150.0,6.0,0.0
9924,66.0,96.0,150.0,11.0,0.0
9925,66.0,120.0,120.0,8.0,0.0
9926,64.0,24.0,120.0,8.0,0.0
9927,73.0,96.0,150.0,6.0,0.0
9928,66.0,120.0,120.0,8.0,0.0
9929,78.0,0.0,150.0,10.0,0.0
9930,78.0,0.0,150.0,6.0,0.0
9931,66.0,0.0,150.0,12.0,0.0
9932,69.0,0.0,150.0,11.0,0.0
9933,62.0,24.0,120.0,8.0,0.0
9934,62.0,0.0,150.0,13.0,0.0
9935,50.0,96.0,150.0,14.0,0.0
9936,66.0,120.0,120.0,8.0,0.0
9937,61.0,96.0,150.0,13.0,0.0
9938,76.0,0.0,150.0,6.0,0.0
9939,49.0,0.0,150.0,14.0,0.0
9940,61.0,24.0,120.0,8.0,0.0
9941,66.0,0.0,150.0,12.0,0.0
9942,76.0,0.0,150.0,10.0,0.0
9943,70.0,0.0,150.0,11.0,0.0
9944,66.0,120.0,120.0,8.0,0.0
9945,74.0,96.0,150.0,6.0,0.0
9946,59.0,0.0,150.0,13.0,0.0
9947,66.0,0.0,150.0,12.0,0.0
9948,74.0,0.0,150.0,10.0,0.0
9949,71.0,0.0,150.0,11.0,0.0
9950,47.0,0.0,150.0,14.0,0.0
9951,59.0,24.0,120.0,8.0,0.0
9952,66.0,120.0,120.0,8.0,0.0
9953,78.0,96.0,150.0,6.0,0.0
9954,62.0,24.0,120.0,8.0,0.0
9955,66.0,120.0,120.0,8.0,0.0
9956,59.0,0.0,150.0,12.0,0.0
9957,47.0,0.0,150.0,14.0,0.0
9958,74.0,96.0,150.0,6.0,0.0
9959,74.0,0.0,150.0,10.0,0.0
9960,59.0,0.0,150.0,13.0,0.0
9961,66.0,0.0,150.0,11.0,0.0
9962,59.0,24.0,120.0,8.0,0.0
9963,66.0,120.0,120.0,8.0,0.0
9964,73.0,0.0,150.0,6.0,0.0
9965,57.0,24.0,120.0,8.0,0.0
9966,57.0,0.0,150.0,13.0,0.0
9967,45.0,96.0,150.0,14.0,0.0
9968,73.0,0.0,150.0,10.0,0.0
9969,66.0,0.0,150.0,11.0,0.0
9970,61.0,0.0,150.0,12.0,0.0
9971,66.0,120.0,120.0,8.0,0.0
9972,65.0,0.0,150.0,11.0,0.0
9973,56.0,24.0,120.0,8.0,0.0
9974,62.0,0.0,150.0,12.0,0.0
9975,71.0,0.0,150.0,6.0,0.0
9976,56.0,96.0,150.0,13.0,0.0
9977,44.0,0.0,150.0,14.0,0.0
9978,71.0,0.0,150.0,10.0,0.0
9979,62.0,120.0,120.0,8.0,0.0
9980,74.0,96.0,150.0,6.0,0.0
9981,59.0,24.0,120.0,8.0,0.0
9982,62.0,120.0,120.0,8.0,0.0
9983,53.0,0.0,150.0,12.0,0.0
9984,56.0,0.0,150.0,13.0,0.0
9985,62.0,0.0,150.0,11.0,0.0
9986,56.0,24.0,120.0,8.0,0.0
9987,71.0,0.0,150.0,10.0,0.0
9988,71.0,0.0,150.0,6.0,0.0
9989,44.0,96.0,150.0,14.0,0.0
9990,62.0,120.0,120.0,8.0,0.0
9991,54.0,0.0,150.0,13.0,0.0
9992,54.0,24.0,120.0,8.0,0.0
9993,62.0,96.0,150.0,11.0,0.0
9994,54.0,0.0,150.0,12.0,0.0
9995,69.0,0.0,150.0,10.0,0.0
9996,42.0,0.0,150.0,14.0,0.0
9997,69.0,0.0,150.0,6.0,0.0
9998,62.0,120.0,120.0,8.0,0.0
9999,62.0,0.0,150.0,11.0,0.0
10000,53.0,24.0,120.0,8.0,0.0
10001,56.0,96.0,150.0,12.0,0.0
10002,68.0,0.0,150.0,10.0,0.0
10003,41.0,0.0,150.0,14.0,0.0
10004,53.0,0.0,150.0,13.0,0.0
10005,68.0,0.0,150.0,6.0,0.0
10006,59.0,120.0,120.0,8.0,0.0
10007,71.0,96.0,150.0,6.0,0.0
10008,56.0,24.0,120.0,8.0,0.0
10009,59.0,120.0,120.0,8.0,0.0
10010,56.0,0.0,150.0,12.0,0.0
10011,68.0,0.0,150.0,10.0,0.0
10012,53.0,96.0,150.0,13.0,0.0
10013,68.0,0.0,150.0,6.0,0.0
10014,41.0,0.0,150.0,14.0,0.0
10015,53.0,24.0,120.0,8.0,0.0
10016,59.0,0.0,150.0,11.0,0.0
10017,59.0,120.0,120.0,8.0,0.0
10018,50.0,0.0,150.0,13.0,0.0
10019,38.0,0.0,150.0,14.0,0.0
10020,56.0,0.0,150.0,12.0,0.0
10021,66.0,96.0,150.0,10.0,0.0
10022,50.0,24.0,120.0,8.0,0.0
10023,66.0,0.0,150.0,6.0,0.0
10024,59.0,0.0,150.0,11.0,0.0
10025,59.0,240.0,120.0,8.0,0.0
10026,65.0,0.0,1890.0,10.0,0.0
10027,49.0,96.0,390.0,8.0,0.0
10028,37.0,0.0,390.0,8.0,0.0
10029,37.0,0.0,1890.0,14.0,0.0
10030,59.0,18.0,1890.0,11.0,0.0
10031,56.0,0.0,1890.0,12.0,0.0
10032,49.0,0.0,1890.0,13.0,0.0
10033,65.0,120.0,120.0,6.0,0.0
10034,68.0,24.0,120.0,6.0,0.0
10035,71.0,120.0,120.0,6.0,0.0
10036,77.0,120.0,120.0,6.0,0.0
10037,71.0,120.0,120.0,6.0,0.0
10038,80.0,120.0,120.0,6.0,0.0
10039,77.0,120.0,120.0,6.0,0.0
10040,83.0,120.0,120.0,6.0,0.0
10041,89.0,0.0,930.0,0.0,0.0
10042,80.0,20.0,930.0,1.0,0.0
10043,83.0,0.0,930.0,1.0,0.0
10044,61.0,0.0,930.0,2.0,0.0
10045,49.0,0.0,930.0,2.0,0.0
10046,80.0,120.0,120.0,6.0,0.0
10047,89.0,120.0,120.0,6.0,0.0
10048,83.0,120.0,120.0,6.0,0.0
10049,92.0,120.0,120.0,6.0,0.0
10050,89.0,120.0,120.0,6.0,0.0
10051,83.0,82.0,120.0,6.0,0.0
10052,80.0,216.0,120.0,6.0,0.0
10053,66.0,0.0,1890.0,10.0,0.0
10054,48.0,72.0,390.0,8.0,0.0
10055,36.0,0.0,390.0,8.0,0.0
10056,36.0,0.0,1890.0,14.0,0.0
10057,48.0,0.0,1890.0,13.0,0.0
10058,63.0,0.0,1890.0,11.0,0.0
10059,57.0,14.0,1890.0,12.0,0.0
10060,66.0,120.0,90.0,6.0,0.0
10061,69.0,48.0,90.0,6.0,0.0
10062,75.0,120.0,90.0,6.0,0.0
10063,78.0,120.0,90.0,6.0,0.0
10064,75.0,120.0,90.0,6.0,0.0
10065,81.0,120.0,90.0,6.0,0.0
10066,78.0,120.0,90.0,6.0,0.0
10067,87.0,120.0,90.0,6.0,0.0
10068,60.0,0.0,930.0,2.0,0.0
10069,48.0,116.0,930.0,2.0,0.0
10070,81.0,0.0,930.0,1.0,0.0
10071,87.0,0.0,930.0,1.0,0.0
10072,90.0,0.0,930.0,0.0,0.0
10073,78.0,120.0,90.0,6.0,0.0
10074,90.0,120.0,90.0,6.0,0.0
10075,87.0,120.0,90.0,6.0,0.0
10076,93.0,120.0,90.0,6.0,0.0
10077,90.0,120.0,90.0,6.0,0.0
10078,87.0,106.0,90.0,6.0,0.0
10079,81.0,4.0,90.0,6.0,0.0
10080,37.0,12.0,390.0,14.0,0.0
10081,49.0,0.0,390.0,13.0,0.0
10082,49.0,0.0,390.0,8.0,0.0
10083,37.0,0.0,390.0,8.0,0.0
10084,90.0,120.0,90.0,6.0,0.0
10085,85.0,120.0,90.0,6.0,0.0
10086,81.0,48.0,90.0,6.0,0.0
10087,61.0,0.0,150.0,12.0,0.0
10088,69.0,0.0,150.0,10.0,0.0
10089,66.0,60.0,150.0,11.0,0.0
10090,78.0,120.0,90.0,6.0,0.0
10091,69.0,0.0,150.0,10.0,0.0
10092,61.0,0.0,150.0,12.0,0.0
10093,85.0,60.0,90.0,6.0,0.0
10094,66.0,60.0,150.0,11.0,0.0
10095,81.0,120.0,90.0,6.0,0.0
10096,69.0,0.0,150.0,10.0,0.0
10097,78.0,60.0,90.0,6.0,0.0
10098,61.0,60.0,150.0,12.0,0.0
10099,66.0,0.0,150.0,11.0,0.0
10100,73.0,84.0,90.0,6.0,0.0
10101,37.0,0.0,390.0,14.0,0.0
10102,49.0,12.0,390.0,13.0,0.0
10103,61.0,0.0,150.0,12.0,0.0
10104,61.0,24.0,90.0,7.0,0.0
10105,68.0,0.0,150.0,10.0,0.0
10106,65.0,24.0,150.0,11.0,0.0
10107,81.0,36.0,60.0,6.0,0.0
10108,80.0,36.0,60.0,6.0,0.0
10109,81.0,36.0,60.0,6.0,0.0
10110,71.0,24.0,90.0,7.0,0.0
10111,80.0,60.0,60.0,6.0,0.0
10112,68.0,0.0,150.0,10.0,0.0
10113,81.0,36.0,60.0,6.0,0.0
10114,61.0,0.0,150.0,12.0,0.0
10115,65.0,24.0,90.0,7.0,0.0
10116,65.0,24.0,150.0,11.0,0.0
10117,80.0,24.0,60.0,6.0,0.0
10118,71.0,24.0,90.0,7.0,0.0
10119,81.0,36.0,60.0,6.0,0.0
10120,80.0,60.0,60.0,6.0,0.0
10121,61.0,0.0,150.0,12.0,0.0
10122,61.0,24.0,90.0,7.0,0.0
10123,68.0,0.0,150.0,10.0,0.0
10124,65.0,24.0,150.0,11.0,0.0
10125,81.0,36.0,60.0,6.0,0.0
10126,80.0,36.0,60.0,6.0,0.0
10127,81.0,36.0,60.0,6.0,0.0
10128,71.0,24.0,90.0,7.0,0.0
10129,80.0,96.0,60.0,6.0,0.0
10130,78.0,36.0,120.0,6.0,0.0
10131,65.0,24.0,90.0,7.0,0.0
10132,65.0,60.0,150.0,11.0,0.0
10133,68.0,0.0,150.0,10.0,0.0
10134,61.0,0.0,150.0,12.0,0.0
10135,71.0,24.0,90.0,7.0,0.0
10136,80.0,234.0,120.0,6.0,0.0
10137,42.0,0.0,390.0,14.0,0.0
10138,57.0,0.0,390.0,12.0,0.0
10139,66.0,0.0,390.0,7.0,0.0
10140,69.0,0.0,390.0,7.0,0.0
10141,54.0,0.0,390.0,13.0,0.0
10142,66.0,0.0,390.0,11.0,0.0
10143,66.0,90.0,390.0,10.0,0.0
10144,78.0,120.0,120.0,6.0,0.0
10145,77.0,30.0,120.0,6.0,0.0
10146,78.0,120.0,120.0,6.0,0.0
10147,80.0,120.0,120.0,6.0,0.0
10148,78.0,120.0,120.0,6.0,0.0
10149,57.0,0.0,120.0,8.0,0.0
10150,77.0,120.0,120.0,6.0,0.0
10151,78.0,120.0,120.0,6.0,0.0
10152,66.0,0.0,120.0,8.0,0.0
10153,68.0,0.0,120.0,6.0,0.0
10154,59.0,120.0,120.0,8.0,0.0
10155,80.0,120.0,120.0,6.0,0.0
10156,66.0,0.0,120.0,8.0,0.0
10157,67.0,0.0,120.0,6.0,0.0
10158,58.0,120.0,120.0,8.0,0.0
10159,66.0,0.0,120.0,8.0,0.0
10160,79.0,120.0,120.0,6.0,0.0
10161,59.0,0.0,120.0,8.0,0.0
10162,68.0,120.0,120.0,6.0,0.0
10163,66.0,0.0,120.0,8.0,0.0
10164,80.0,120.0,120.0,6.0,0.0
10165,70.0,120.0,120.0,6.0,0.0
10166,61.0,0.0,120.0,8.0,0.0
10167,66.0,0.0,120.0,8.0,0.0
10168,82.0,120.0,120.0,6.0,0.0
10169,62.0,0.0,120.0,8.0,0.0
10170,71.0,120.0,120.0,6.0,0.0
10171,66.0,0.0,120.0,8.0,0.0
10172,83.0,120.0,120.0,6.0,0.0
10173,70.0,120.0,120.0,6.0,0.0
10174,61.0,0.0,120.0,8.0,0.0
10175,82.0,120.0,120.0,6.0,0.0
10176,66.0,0.0,120.0,8.0,0.0
10177,71.0,0.0,120.0,6.0,0.0
10178,62.0,120.0,120.0,8.0,0.0
10179,83.0,0.0,120.0,6.0,0.0
10180,66.0,120.0,120.0,8.0,0.0
10181,69.0,0.0,120.0,6.0,0.0
10182,60.0,120.0,120.0,8.0,0.0
10183,81.0,0.0,120.0,6.0,0.0
10184,66.0,120.0,120.0,8.0,0.0
10185,61.0,0.0,120.0,8.0,0.0
10186,70.0,120.0,120.0,6.0,0.0
10187,82.0,0.0,120.0,6.0,0.0
10188,66.0,120.0,120.0,8.0,0.0
10189,69.0,0.0,120.0,6.0,0.0
10190,60.0,120.0,120.0,8.0,0.0
10191,81.0,0.0,120.0,6.0,0.0
10192,66.0,120.0,120.0,8.0,0.0
10193,70.0,0.0,120.0,6.0,0.0
10194,61.0,120.0,120.0,8.0,0.0
10195,82.0,0.0,120.0,6.0,0.0
10196,66.0,120.0,120.0,8.0,0.0
10197,63.0,0.0,120.0,8.0,0.0
10198,72.0,120.0,120.0,6.0,0.0
10199,66.0,0.0,120.0,8.0,0.0
10200,84.0,120.0,120.0,6.0,0.0
10201,64.0,0.0,120.0,8.0,0.0
10202,73.0,120.0,120.0,6.0,0.0
10203,85.0,120.0,120.0,6.0,0.0
10204,66.0,0.0,120.0,8.0,0.0
10205,63.0,0.0,120.0,8.0,0.0
10206,72.0,120.0,120.0,6.0,0.0
10207,66.0,120.0,120.0,8.0,0.0
10208,84.0,0.0,120.0,6.0,0.0
10209,73.0,120.0,120.0,6.0,0.0
10210,64.0,0.0,120.0,8.0,0.0
10211,66.0,0.0,120.0,8.0,0.0
10212,85.0,120.0,120.0,6.0,0.0
10213,70.0,120.0,120.0,6.0,0.0
10214,61.0,0.0,120.0,8.0,0.0
10215,82.0,120.0,120.0,6.0,0.0
10216,66.0,0.0,120.0,8.0,0.0
10217,62.0,0.0,120.0,8.0,0.0
10218,71.0,120.0,120.0,6.0,0.0
10219,83.0,120.0,120.0,6.0,0.0
10220,66.0,0.0,120.0,8.0,0.0
10221,61.0,120.0,120.0,8.0,0.0
10222,70.0,0.0,120.0,6.0,0.0
10223,82.0,0.0,120.0,6.0,0.0
10224,66.0,120.0,120.0,8.0,0.0
10225,71.0,0.0,120.0,6.0,0.0
10226,62.0,120.0,120.0,8.0,0.0
10227,66.0,0.0,120.0,8.0,0.0
10228,83.0,120.0,120.0,6.0,0.0
10229,58.0,0.0,120.0,8.0,0.0
10230,73.0,120.0,120.0,6.0,0.0
10231,66.0,0.0,120.0,8.0,0.0
10232,85.0,126.0,120.0,6.0,0.0
10233,47.0,0.0,960.0,14.0,0.0
10234,66.0,0.0,1920.0,12.0,0.0
10235,74.0,0.0,960.0,10.0,0.0
10236,59.0,120.0,120.0,8.0,0.0
10237,59.0,120.0,960.0,13.0,0.0
10238,71.0,0.0,2880.0,11.0,0.0
10239,62.0,120.0,120.0,8.0,0.0
10240,66.0,120.0,120.0,6.0,0.0
10241,71.0,120.0,120.0,6.0,0.0
10242,74.0,120.0,120.0,6.0,0.0
10243,78.0,120.0,120.0,6.0,0.0
10244,83.0,120.0,120.0,6.0,0.0
10245,86.0,0.0,120.0,6.0,0.0
10246,75.0,0.0,960.0,10.0,0.0
10247,57.0,120.0,960.0,13.0,0.0
10248,57.0,120.0,120.0,8.0,0.0
10249,45.0,0.0,960.0,14.0,0.0
10250,63.0,120.0,120.0,8.0,0.0
10251,66.0,120.0,120.0,6.0,0.0
10252,71.0,120.0,120.0,6.0,0.0
10253,75.0,120.0,120.0,6.0,0.0
10254,78.0,120.0,120.0,6.0,0.0
10255,83.0,120.0,120.0,6.0,0.0
10256,87.0,0.0,120.0,6.0,0.0
10257,56.0,120.0,120.0,8.0,0.0
10258,76.0,0.0,960.0,10.0,0.0
10259,68.0,120.0,1920.0,12.0,0.0
10260,56.0,0.0,960.0,13.0,0.0
10261,44.0,0.0,960.0,14.0,0.0
10262,64.0,120.0,120.0,8.0,0.0
10263,68.0,120.0,120.0,6.0,0.0
10264,71.0,120.0,120.0,6.0,0.0
10265,76.0,120.0,120.0,6.0,0.0
10266,80.0,120.0,120.0,6.0,0.0
10267,83.0,120.0,120.0,6.0,0.0
10268,88.0,120.0,120.0,6.0,0.0
10269,59.0,120.0,120.0,8.0,0.0
10270,77.0,0.0,960.0,10.0,0.0
10271,59.0,0.0,960.0,13.0,0.0
10272,47.0,0.0,960.0,14.0,0.0
10273,73.0,0.0,1920.0,11.0,0.0
10274,65.0,120.0,120.0,8.0,0.0
10275,68.0,120.0,120.0,6.0,0.0
10276,73.0,120.0,120.0,6.0,0.0
10277,77.0,120.0,120.0,6.0,0.0
10278,80.0,120.0,120.0,6.0,0.0
10279,85.0,120.0,120.0,6.0,0.0
10280,89.0,0.0,120.0,6.0,0.0
10281,57.0,120.0,120.0,8.0,0.0
10282,78.0,0.0,960.0,10.0,0.0
10283,69.0,0.0,960.0,12.0,0.0
10284,57.0,120.0,960.0,13.0,0.0
10285,45.0,0.0,960.0,14.0,0.0
10286,66.0,120.0,120.0,8.0,0.0
10287,69.0,120.0,120.0,6.0,0.0
10288,73.0,120.0,120.0,6.0,0.0
10289,78.0,120.0,120.0,6.0,0.0
10290,81.0,120.0,120.0,6.0,0.0
10291,85.0,120.0,120.0,6.0,0.0
10292,90.0,0.0,120.0,6.0,0.0
10293,72.0,0.0,960.0,10.0,0.0
10294,39.0,0.0,960.0,14.0,0.0
10295,69.0,0.0,960.0,11.0,0.0
10296,51.0,120.0,120.0,8.0,0.0
10297,51.0,0.0,960.0,13.0,0.0
10298,60.0,120.0,120.0,8.0,0.0
10299,66.0,120.0,120.0,6.0,0.0
10300,69.0,120.0,120.0,6.0,0.0
10301,72.0,120.0,120.0,6.0,0.0
10302,75.0,120.0,120.0,6.0,0.0
10303,78.0,120.0,120.0,6.0,0.0
10304,84.0,0.0,120.0,6.0,0.0
10305,49.0,0.0,390.0,8.0,0.0
10306,73.0,0.0,390.0,11.0,0.0
10307,61.0,0.0,390.0,8.0,0.0
10308,49.0,96.0,390.0,13.0,0.0
10309,73.0,120.0,120.0,6.0,0.0
10310,66.0,120.0,15.0,12.0,0.0
10311,37.0,0.0,390.0,14.0,0.0
10312,69.0,0.0,390.0,10.0,0.0
10313,85.0,120.0,120.0,6.0,0.0
10314,72.0,24.0,120.0,6.0,0.0
10315,84.0,120.0,120.0,6.0,0.0
10316,73.0,120.0,120.0,6.0,0.0
10317,85.0,120.0,120.0,6.0,0.0
10318,74.0,120.0,120.0,6.0,0.0
10319,86.0,120.0,120.0,6.0,0.0
10320,75.0,120.0,120.0,6.0,0.0
10321,87.0,120.0,120.0,6.0,0.0
10322,76.0,120.0,120.0,6.0,0.0
10323,88.0,120.0,120.0,6.0,0.0
10324,77.0,120.0,120.0,6.0,0.0
10325,89.0,120.0,120.0,6.0,0.0
10326,78.0,120.0,120.0,6.0,0.0
10327,90.0,60.0,120.0,6.0,0.0
10328,61.0,0.0,120.0,7.0,0.0
10329,37.0,0.0,360.0,14.0,0.0
10330,81.0,60.0,60.0,6.0,0.0
10331,49.0,36.0,360.0,13.0,0.0
10332,80.0,60.0,60.0,6.0,0.0
10333,71.0,0.0,120.0,7.0,0.0
10334,81.0,60.0,60.0,6.0,0.0
10335,80.0,60.0,60.0,6.0,0.0
10336,65.0,0.0,120.0,7.0,0.0
10337,81.0,60.0,60.0,6.0,0.0
10338,65.0,24.0,150.0,11.0,0.0
10339,61.0,0.0,150.0,12.0,0.0
10340,68.0,0.0,150.0,10.0,0.0
10341,80.0,0.0,60.0,6.0,0.0
10342,81.0,60.0,60.0,6.0,0.0
10343,71.0,60.0,120.0,7.0,0.0
10344,80.0,0.0,60.0,6.0,0.0
10345,61.0,36.0,120.0,7.0,0.0
10346,65.0,24.0,150.0,11.0,0.0
10347,49.0,36.0,360.0,13.0,0.0
10348,68.0,0.0,150.0,10.0,0.0
10349,37.0,0.0,360.0,14.0,0.0
10350,61.0,0.0,150.0,12.0,0.0
10351,81.0,60.0,60.0,6.0,0.0
10352,80.0,0.0,60.0,6.0,0.0
10353,81.0,60.0,60.0,6.0,0.0
10354,71.0,0.0,120.0,7.0,0.0
10355,80.0,60.0,60.0,6.0,0.0
10356,61.0,0.0,150.0,12.0,0.0
10357,68.0,24.0,150.0,10.0,0.0
10358,81.0,60.0,60.0,6.0,0.0
10359,65.0,0.0,150.0,11.0,0.0
10360,65.0,0.0,120.0,7.0,0.0
10361,80.0,0.0,60.0,6.0,0.0
10362,81.0,60.0,60.0,6.0,0.0
10363,71.0,60.0,120.0,7.0,0.0
10364,80.0,0.0,60.0,6.0,0.0
10365,61.0,0.0,150.0,12.0,0.0
10366,81.0,60.0,60.0,6.0,0.0
10367,65.0,0.0,150.0,11.0,0.0
10368,68.0,24.0,150.0,10.0,0.0
10369,61.0,0.0,120.0,7.0,0.0
10370,49.0,0.0,360.0,13.0,0.0
10371,37.0,0.0,360.0,14.0,0.0
10372,80.0,36.0,60.0,6.0,0.0
10373,81.0,60.0,60.0,6.0,0.0
10374,71.0,60.0,120.0,7.0,0.0
10375,80.0,0.0,60.0,6.0,0.0
10376,81.0,60.0,60.0,6.0,0.0
10377,65.0,0.0,150.0,11.0,0.0
10378,65.0,0.0,120.0,7.0,0.0
10379,68.0,24.0,150.0,10.0,0.0
10380,61.0,0.0,150.0,12.0,0.0
10381,80.0,36.0,60.0,6.0,0.0
10382,81.0,60.0,60.0,6.0,0.0
10383,71.0,0.0,120.0,7.0,0.0
10384,80.0,60.0,60.0,6.0,0.0
10385,61.0,36.0,120.0,7.0,0.0
10386,37.0,0.0,360.0,14.0,0.0
10387,65.0,0.0,150.0,11.0,0.0
10388,81.0,60.0,60.0,6.0,0.0
10389,68.0,0.0,150.0,10.0,0.0
10390,61.0,24.0,150.0,12.0,0.0
10391,49.0,36.0,360.0,13.0,0.0
10392,80.0,0.0,60.0,6.0,0.0
10393,81.0,60.0,60.0,6.0,0.0
10394,71.0,0.0,120.0,7.0,0.0
10395,80.0,120.0,60.0,6.0,0.0
10396,65.0,0.0,120.0,7.0,0.0
10397,78.0,0.0,120.0,6.0,0.0
10398,68.0,0.0,150.0,10.0,0.0
10399,65.0,0.0,150.0,11.0,0.0
10400,61.0,84.0,150.0,12.0,0.0
10401,71.0,234.0,120.0,7.0,0.0
10402,80.0,0.0,120.0,6.0,0.0
10403,66.0,0.0,390.0,10.0,0.0
10404,66.0,0.0,390.0,11.0,0.0
10405,54.0,72.0,390.0,13.0,0.0
10406,42.0,0.0,390.0,14.0,0.0
10407,57.0,0.0,390.0,12.0,0.0
10408,69.0,0.0,450.0,7.0,0.0
10409,66.0,18.0,450.0,7.0,0.0
10410,78.0,120.0,120.0,6.0,0.0
10411,77.0,30.0,120.0,6.0,0.0
10412,78.0,120.0,120.0,6.0,0.0
10413,77.0,120.0,120.0,6.0,0.0
10414,78.0,120.0,120.0,6.0,0.0
10415,66.0,0.0,120.0,6.0,0.0
10416,42.0,120.0,120.0,8.0,0.0
10417,54.0,120.0,120.0,8.0,0.0
10418,78.0,0.0,120.0,6.0,0.0
10419,43.0,0.0,120.0,8.0,0.0
10420,67.0,120.0,120.0,6.0,0.0
10421,78.0,0.0,120.0,6.0,0.0
10422,55.0,120.0,120.0,8.0,0.0
10423,66.0,120.0,120.0,6.0,0.0
10424,42.0,0.0,120.0,8.0,0.0
10425,54.0,120.0,120.0,8.0,0.0
10426,78.0,0.0,120.0,6.0,0.0
10427,68.0,0.0,120.0,6.0,0.0
10428,44.0,120.0,120.0,8.0,0.0
10429,78.0,120.0,120.0,6.0,0.0
10430,56.0,0.0,120.0,8.0,0.0
10431,70.0,0.0,120.0,6.0,0.0
10432,46.0,120.0,120.0,8.0,0.0
10433,78.0,0.0,120.0,6.0,0.0
10434,58.0,120.0,120.0,8.0,0.0
10435,71.0,0.0,120.0,6.0,0.0
10436,47.0,120.0,120.0,8.0,0.0
10437,59.0,120.0,120.0,8.0,0.0
10438,78.0,0.0,120.0,6.0,0.0
10439,70.0,120.0,120.0,6.0,0.0
10440,46.0,0.0,120.0,8.0,0.0
10441,58.0,0.0,120.0,8.0,0.0
10442,78.0,120.0,120.0,6.0,0.0
10443,47.0,0.0,120.0,8.0,0.0
10444,71.0,120.0,120.0,6.0,0.0
10445,59.0,0.0,120.0,8.0,0.0
10446,78.0,120.0,120.0,6.0,0.0
10447,44.0,120.0,120.0,8.0,0.0
10448,68.0,0.0,120.0,6.0,0.0
10449,56.0,120.0,120.0,8.0,0.0
10450,78.0,0.0,120.0,6.0,0.0
10451,45.0,120.0,120.0,8.0,0.0
10452,69.0,0.0,120.0,6.0,0.0
10453,78.0,0.0,120.0,6.0,0.0
10454,57.0,120.0,120.0,8.0,0.0
10455,68.0,120.0,120.0,6.0,0.0
10456,44.0,0.0,120.0,8.0,0.0
10457,56.0,0.0,120.0,8.0,0.0
10458,78.0,120.0,120.0,6.0,0.0
10459,46.0,0.0,120.0,8.0,0.0
10460,70.0,120.0,120.0,6.0,0.0
10461,58.0,0.0,120.0,8.0,0.0
10462,78.0,120.0,120.0,6.0,0.0
10463,48.0,120.0,120.0,8.0,0.0
10464,72.0,0.0,120.0,6.0,0.0
10465,60.0,120.0,120.0,8.0,0.0
10466,78.0,0.0,120.0,6.0,0.0
10467,73.0,120.0,120.0,6.0,0.0
10468,49.0,0.0,120.0,8.0,0.0
10469,78.0,120.0,120.0,6.0,0.0
10470,61.0,0.0,120.0,8.0,0.0
10471,48.0,0.0,120.0,8.0,0.0
10472,72.0,120.0,120.0,6.0,0.0
10473,78.0,120.0,120.0,6.0,0.0
10474,60.0,0.0,120.0,8.0,0.0
10475,49.0,0.0,120.0,8.0,0.0
10476,73.0,120.0,120.0,6.0,0.0
10477,61.0,0.0,120.0,8.0,0.0
10478,78.0,120.0,120.0,6.0,0.0
10479,46.0,0.0,120.0,8.0,0.0
10480,70.0,120.0,120.0,6.0,0.0
10481,78.0,0.0,120.0,6.0,0.0
10482,58.0,120.0,120.0,8.0,0.0
10483,71.0,0.0,120.0,6.0,0.0
10484,47.0,120.0,120.0,8.0,0.0
10485,59.0,120.0,120.0,8.0,0.0
10486,78.0,0.0,120.0,6.0,0.0
10487,46.0,0.0,120.0,8.0,0.0
10488,70.0,120.0,120.0,6.0,0.0
10489,78.0,0.0,120.0,6.0,0.0
10490,58.0,120.0,120.0,8.0,0.0
10491,71.0,0.0,120.0,6.0,0.0
10492,47.0,120.0,120.0,8.0,0.0
10493,59.0,0.0,120.0,8.0,0.0
10494,78.0,120.0,120.0,6.0,0.0
10495,73.0,120.0,120.0,6.0,0.0
10496,49.0,0.0,120.0,8.0,0.0
10497,61.0,0.0,120.0,8.0,0.0
10498,78.0,102.0,120.0,6.0,0.0
10499,74.0,120.0,90.0,6.0,0.0
10500,50.0,96.0,480.0,8.0,0.0
10501,62.0,0.0,480.0,8.0,0.0
10502,78.0,120.0,90.0,6.0,0.0
10503,83.0,120.0,90.0,6.0,0.0
10504,78.0,24.0,90.0,6.0,0.0
10505,73.0,120.0,90.0,6.0,0.0
10506,49.0,72.0,390.0,8.0,0.0
10507,61.0,0.0,390.0,8.0,0.0
10508,78.0,120.0,90.0,6.0,0.0
10509,82.0,48.0,90.0,6.0,0.0
10510,78.0,120.0,90.0,6.0,0.0
10511,59.0,24.0,180.0,8.0,0.0
10512,86.0,96.0,90.0,6.0,0.0
10513,78.0,120.0,90.0,6.0,0.0
10514,86.0,120.0,90.0,6.0,0.0
10515,78.0,120.0,90.0,6.0,0.0
10516,85.0,96.0,90.0,6.0,0.0
10517,58.0,24.0,180.0,8.0,0.0
10518,78.0,120.0,90.0,6.0,0.0
10519,85.0,120.0,90.0,6.0,0.0
10520,78.0,120.0,90.0,6.0,0.0
10521,62.0,0.0,480.0,8.0,0.0
10522,50.0,96.0,480.0,8.0,0.0
10523,74.0,120.0,90.0,6.0,0.0
10524,78.0,120.0,90.0,6.0,0.0
10525,83.0,120.0,90.0,6.0,0.0
10526,78.0,24.0,90.0,6.0,0.0
10527,73.0,120.0,90.0,6.0,0.0
10528,49.0,0.0,390.0,8.0,0.0
10529,61.0,72.0,390.0,8.0,0.0
10530,78.0,120.0,90.0,6.0,0.0
10531,82.0,48.0,90.0,6.0,0.0
10532,78.0,120.0,90.0,6.0,0.0
10533,59.0,24.0,180.0,8.0,0.0
10534,86.0,96.0,90.0,6.0,0.0
10535,78.0,120.0,90.0,6.0,0.0
10536,86.0,120.0,90.0,6.0,0.0
10537,78.0,120.0,90.0,6.0,0.0
10538,85.0,96.0,90.0,6.0,0.0
10539,58.0,24.0,180.0,8.0,0.0
10540,78.0,120.0,90.0,6.0,0.0
10541,85.0,120.0,90.0,6.0,0.0
10542,78.0,120.0,90.0,6.0,0.0
10543,62.0,96.0,480.0,8.0,0.0
10544,50.0,0.0,480.0,8.0,0.0
10545,74.0,120.0,90.0,6.0,0.0
10546,78.0,120.0,90.0,6.0,0.0
10547,83.0,120.0,90.0,6.0,0.0
10548,78.0,24.0,90.0,6.0,0.0
10549,49.0,72.0,390.0,8.0,0.0
10550,61.0,0.0,390.0,8.0,0.0
10551,73.0,120.0,90.0,6.0,0.0
10552,78.0,120.0,90.0,6.0,0.0
10553,82.0,48.0,90.0,6.0,0.0
10554,78.0,120.0,90.0,6.0,0.0
10555,59.0,24.0,180.0,8.0,0.0
10556,86.0,96.0,90.0,6.0,0.0
10557,78.0,120.0,90.0,6.0,0.0
10558,86.0,120.0,90.0,6.0,0.0
10559,78.0,120.0,90.0,6.0,0.0
10560,85.0,96.0,90.0,6.0,0.0
10561,58.0,24.0,180.0,8.0,0.0
10562,78.0,120.0,90.0,6.0,0.0
10563,85.0,120.0,90.0,6.0,0.0
10564,78.0,120.0,90.0,6.0,0.0
10565,72.0,0.0,1830.0,10.0,0.0
10566,66.0,0.0,1830.0,11.0,0.0
10567,44.0,0.0,1830.0,14.0,0.0
10568,56.0,0.0,1830.0,13.0,0.0
10569,63.0,24.0,1830.0,12.0,0.0
10570,75.0,120.0,90.0,6.0,0.0
10571,44.0,96.0,120.0,8.0,0.0
10572,78.0,24.0,90.0,6.0,0.0
10573,46.0,96.0,120.0,8.0,0.0
10574,84.0,24.0,90.0,6.0,0.0
10575,48.0,96.0,120.0,8.0,0.0
10576,78.0,24.0,90.0,6.0,0.0
10577,84.0,0.0,1380.0,0.0,0.0
10578,75.0,0.0,1380.0,1.0,0.0
10579,84.0,24.0,90.0,6.0,0.0
10580,49.0,96.0,120.0,8.0,0.0
10581,68.0,48.0,1380.0,2.0,0.0
10582,78.0,0.0,1380.0,1.0,0.0
10583,56.0,0.0,1380.0,2.0,0.0
10584,51.0,96.0,120.0,8.0,0.0
10585,78.0,24.0,90.0,6.0,0.0
10586,53.0,96.0,120.0,8.0,0.0
10587,84.0,24.0,90.0,6.0,0.0
10588,78.0,24.0,90.0,6.0,0.0
10589,55.0,96.0,120.0,8.0,0.0
10590,56.0,96.0,120.0,8.0,0.0
10591,75.0,24.0,90.0,6.0,0.0
10592,58.0,96.0,120.0,8.0,0.0
10593,78.0,24.0,90.0,6.0,0.0
10594,84.0,24.0,90.0,6.0,0.0
10595,60.0,96.0,120.0,8.0,0.0
10596,78.0,24.0,90.0,6.0,0.0
10597,61.0,96.0,120.0,8.0,0.0
10598,63.0,96.0,240.0,8.0,0.0
10599,84.0,120.0,90.0,6.0,0.0
10600,78.0,24.0,90.0,6.0,0.0
10601,84.0,48.0,90.0,6.0,0.0
10602,78.0,120.0,90.0,6.0,0.0
10603,49.0,0.0,1830.0,13.0,0.0
10604,71.0,0.0,1830.0,10.0,0.0
10605,37.0,0.0,1830.0,14.0,0.0
10606,68.0,0.0,1830.0,11.0,0.0
10607,65.0,24.0,1830.0,12.0,0.0
10608,77.0,120.0,90.0,6.0,0.0
10609,80.0,24.0,90.0,6.0,0.0
10610,49.0,96.0,120.0,8.0,0.0
10611,51.0,96.0,120.0,8.0,0.0
10612,83.0,24.0,90.0,6.0,0.0
10613,53.0,96.0,120.0,8.0,0.0
10614,80.0,24.0,90.0,6.0,0.0
10615,83.0,48.0,1380.0,0.0,0.0
10616,61.0,0.0,1380.0,2.0,0.0
10617,49.0,0.0,1380.0,2.0,0.0
10618,80.0,0.0,1380.0,1.0,0.0
10619,54.0,96.0,120.0,8.0,0.0
10620,77.0,0.0,1380.0,1.0,0.0
10621,83.0,24.0,90.0,6.0,0.0
10622,80.0,24.0,90.0,6.0,0.0
10623,56.0,96.0,120.0,8.0,0.0
10624,58.0,96.0,120.0,8.0,0.0
10625,83.0,24.0,90.0,6.0,0.0
10626,60.0,96.0,120.0,8.0,0.0
10627,80.0,24.0,90.0,6.0,0.0
10628,77.0,24.0,90.0,6.0,0.0
10629,61.0,96.0,120.0,8.0,0.0
10630,80.0,24.0,90.0,6.0,0.0
10631,63.0,96.0,120.0,8.0,0.0
10632,83.0,24.0,90.0,6.0,0.0
10633,65.0,96.0,120.0,8.0,0.0
10634,66.0,96.0,120.0,8.0,0.0
10635,80.0,24.0,90.0,6.0,0.0
10636,83.0,120.0,90.0,6.0,0.0
10637,68.0,96.0,240.0,8.0,0.0
10638,80.0,24.0,90.0,6.0,0.0
10639,83.0,48.0,90.0,6.0,0.0
10640,80.0,120.0,90.0,6.0,0.0
10641,66.0,24.0,1830.0,11.0,0.0
10642,54.0,0.0,1830.0,13.0,0.0
10643,61.0,0.0,1830.0,12.0,0.0
10644,42.0,0.0,1830.0,14.0,0.0
10645,73.0,120.0,90.0,6.0,0.0
10646,70.0,0.0,1830.0,10.0,0.0
10647,78.0,24.0,90.0,6.0,0.0
10648,42.0,96.0,120.0,8.0,0.0
10649,44.0,96.0,120.0,8.0,0.0
10650,82.0,24.0,90.0,6.0,0.0
10651,78.0,24.0,90.0,6.0,0.0
10652,46.0,96.0,120.0,8.0,0.0
10653,73.0,0.0,1380.0,1.0,0.0
10654,47.0,96.0,120.0,8.0,0.0
10655,82.0,48.0,1380.0,0.0,0.0
10656,82.0,24.0,90.0,6.0,0.0
10657,78.0,0.0,1380.0,1.0,0.0
10658,66.0,0.0,1380.0,2.0,0.0
10659,54.0,0.0,1380.0,2.0,0.0
10660,49.0,96.0,120.0,8.0,0.0
10661,78.0,24.0,90.0,6.0,0.0
10662,82.0,24.0,90.0,6.0,0.0
10663,51.0,96.0,120.0,8.0,0.0
10664,78.0,24.0,90.0,6.0,0.0
10665,53.0,96.0,120.0,8.0,0.0
10666,54.0,96.0,120.0,8.0,0.0
10667,73.0,24.0,90.0,6.0,0.0
10668,56.0,96.0,120.0,8.0,0.0
10669,78.0,24.0,90.0,6.0,0.0
10670,82.0,24.0,90.0,6.0,0.0
10671,58.0,96.0,120.0,8.0,0.0
10672,59.0,96.0,120.0,8.0,0.0
10673,78.0,24.0,90.0,6.0,0.0
10674,61.0,96.0,240.0,8.0,0.0
10675,82.0,120.0,90.0,6.0,0.0
10676,78.0,24.0,90.0,6.0,0.0
10677,82.0,48.0,90.0,6.0,0.0
10678,78.0,120.0,90.0,6.0,0.0
10679,50.0,0.0,1830.0,13.0,0.0
10680,62.0,0.0,1830.0,12.0,0.0
10681,69.0,0.0,1830.0,10.0,0.0
10682,38.0,0.0,1830.0,14.0,0.0
10683,78.0,120.0,90.0,6.0,0.0
10684,66.0,24.0,1830.0,11.0,0.0
10685,81.0,24.0,90.0,6.0,0.0
10686,50.0,96.0,120.0,8.0,0.0
10687,90.0,24.0,90.0,6.0,0.0
10688,52.0,96.0,120.0,8.0,0.0
10689,81.0,24.0,90.0,6.0,0.0
10690,54.0,96.0,120.0,8.0,0.0
10691,81.0,0.0,1380.0,1.0,0.0
10692,78.0,0.0,1380.0,1.0,0.0
10693,90.0,24.0,90.0,6.0,0.0
10694,55.0,96.0,120.0,8.0,0.0
10695,90.0,48.0,1380.0,0.0,0.0
10696,62.0,0.0,1380.0,2.0,0.0
10697,50.0,0.0,1380.0,2.0,0.0
10698,57.0,96.0,120.0,8.0,0.0
10699,81.0,24.0,90.0,6.0,0.0
10700,90.0,24.0,90.0,6.0,0.0
10701,59.0,96.0,120.0,8.0,0.0
10702,81.0,24.0,90.0,6.0,0.0
10703,61.0,96.0,120.0,8.0,0.0
10704,78.0,24.0,90.0,6.0,0.0
10705,62.0,96.0,120.0,8.0,0.0
10706,81.0,24.0,90.0,6.0,0.0
10707,64.0,96.0,120.0,8.0,0.0
10708,66.0,96.0,120.0,8.0,0.0
10709,90.0,24.0,90.0,6.0,0.0
10710,81.0,24.0,90.0,6.0,0.0
10711,67.0,96.0,120.0,8.0,0.0
10712,69.0,96.0,240.0,8.0,0.0
10713,90.0,120.0,90.0,6.0,0.0
10714,81.0,24.0,90.0,6.0,0.0
10715,90.0,48.0,90.0,6.0,0.0
10716,81.0,216.0,90.0,6.0,0.0
10717,47.0,72.0,1830.0,8.0,0.0
10718,35.0,0.0,1830.0,8.0,0.0
10719,47.0,72.0,390.0,13.0,0.0
10720,67.0,0.0,180.0,10.0,0.0
10721,59.0,0.0,180.0,12.0,0.0
10722,35.0,0.0,390.0,14.0,0.0
10723,62.0,24.0,180.0,11.0,0.0
10724,86.0,120.0,90.0,6.0,0.0
10725,91.0,48.0,90.0,6.0,0.0
10726,86.0,120.0,90.0,6.0,0.0
10727,83.0,96.0,90.0,6.0,0.0
10728,71.0,0.0,180.0,10.0,0.0
10729,62.0,24.0,180.0,12.0,0.0
10730,67.0,0.0,180.0,11.0,0.0
10731,86.0,120.0,90.0,6.0,0.0
10732,79.0,120.0,90.0,6.0,0.0
10733,83.0,120.0,90.0,6.0,0.0
10734,74.0,96.0,90.0,6.0,0.0
10735,74.0,24.0,180.0,10.0,0.0
10736,67.0,0.0,180.0,12.0,0.0
10737,71.0,0.0,180.0,11.0,0.0
10738,83.0,120.0,90.0,6.0,0.0
10739,86.0,120.0,90.0,6.0,0.0
10740,83.0,120.0,90.0,6.0,0.0
10741,74.0,24.0,180.0,11.0,0.0
10742,79.0,0.0,180.0,10.0,0.0
10743,71.0,0.0,180.0,12.0,0.0
10744,79.0,96.0,90.0,6.0,0.0
10745,83.0,120.0,90.0,6.0,0.0
10746,74.0,48.0,90.0,6.0,0.0
10747,79.0,120.0,90.0,6.0,0.0
10748,48.0,72.0,1830.0,8.0,0.0
10749,36.0,0.0,1830.0,8.0,0.0
10750,48.0,72.0,390.0,13.0,0.0
10751,36.0,0.0,390.0,14.0,0.0
10752,66.0,24.0,180.0,11.0,0.0
10753,69.0,0.0,180.0,10.0,0.0
10754,62.0,0.0,180.0,12.0,0.0
10755,75.0,96.0,90.0,6.0,0.0
10756,78.0,120.0,90.0,6.0,0.0
10757,81.0,48.0,90.0,6.0,0.0
10758,78.0,120.0,90.0,6.0,0.0
10759,75.0,96.0,90.0,6.0,0.0
10760,75.0,0.0,180.0,10.0,0.0
10761,69.0,0.0,180.0,11.0,0.0
10762,66.0,24.0,180.0,12.0,0.0
10763,78.0,120.0,90.0,6.0,0.0
10764,69.0,120.0,90.0,6.0,0.0
10765,75.0,120.0,90.0,6.0,0.0
10766,78.0,24.0,180.0,10.0,0.0
10767,69.0,0.0,180.0,12.0,0.0
10768,66.0,96.0,90.0,6.0,0.0
10769,75.0,0.0,180.0,11.0,0.0
10770,75.0,120.0,90.0,6.0,0.0
10771,78.0,120.0,90.0,6.0,0.0
10772,75.0,120.0,90.0,6.0,0.0
10773,69.0,96.0,90.0,6.0,0.0
10774,75.0,0.0,180.0,12.0,0.0
10775,81.0,0.0,180.0,10.0,0.0
10776,78.0,24.0,180.0,11.0,0.0
10777,75.0,120.0,90.0,6.0,0.0
10778,66.0,48.0,90.0,6.0,0.0
10779,69.0,258.0,90.0,6.0,0.0
10780,90.0,72.0,6150.0,0.0,0.0
10781,61.0,0.0,390.0,12.0,0.0
10782,81.0,0.0,6150.0,1.0,0.0
10783,61.0,0.0,390.0,11.0,0.0
10784,49.0,0.0,390.0,13.0,0.0
10785,69.0,0.0,6150.0,3.0,0.0
10786,66.0,0.0,6150.0,3.0,0.0
10787,78.0,0.0,6150.0,1.0,0.0
10788,61.0,0.0,390.0,10.0,0.0
10789,49.0,0.0,6150.0,2.0,0.0
10790,61.0,0.0,6150.0,2.0,0.0
10791,73.0,0.0,6150.0,4.0,0.0
10792,61.0,0.0,6150.0,4.0,0.0
10793,37.0,0.0,390.0,8.0,0.0
10794,49.0,0.0,390.0,8.0,0.0
10795,37.0,90.0,390.0,14.0,0.0
10796,61.0,120.0,120.0,6.0,0.0
10797,62.0,30.0,120.0,6.0,0.0
10798,61.0,120.0,120.0,6.0,0.0
10799,62.0,120.0,120.0,6.0,0.0
10800,63.0,120.0,120.0,6.0,0.0
10801,64.0,120.0,120.0,6.0,0.0
10802,63.0,120.0,120.0,6.0,0.0
10803,64.0,120.0,120.0,6.0,0.0
10804,65.0,120.0,120.0,6.0,0.0
10805,66.0,120.0,120.0,6.0,0.0
10806,65.0,120.0,120.0,6.0,0.0
10807,66.0,120.0,120.0,6.0,0.0
10808,68.0,120.0,120.0,6.0,0.0
10809,69.0,120.0,120.0,6.0,0.0
10810,68.0,120.0,120.0,6.0,0.0
10811,69.0,120.0,120.0,6.0,0.0
10812,70.0,120.0,120.0,6.0,0.0
10813,58.0,0.0,120.0,7.0,0.0
10814,59.0,120.0,120.0,7.0,0.0
10815,71.0,0.0,120.0,6.0,0.0
10816,70.0,0.0,120.0,6.0,0.0
10817,58.0,120.0,120.0,7.0,0.0
10818,59.0,0.0,120.0,7.0,0.0
10819,71.0,120.0,120.0,6.0,0.0
10820,60.0,0.0,120.0,7.0,0.0
10821,72.0,120.0,120.0,6.0,0.0
10822,73.0,0.0,120.0,6.0,0.0
10823,61.0,120.0,120.0,7.0,0.0
10824,72.0,0.0,120.0,6.0,0.0
10825,60.0,120.0,120.0,7.0,0.0
10826,61.0,120.0,120.0,7.0,0.0
10827,73.0,0.0,120.0,6.0,0.0
10828,61.0,0.0,120.0,7.0,0.0
10829,73.0,120.0,120.0,6.0,0.0
10830,74.0,0.0,120.0,6.0,0.0
10831,62.0,120.0,120.0,7.0,0.0
10832,73.0,120.0,120.0,6.0,0.0
10833,61.0,0.0,120.0,7.0,0.0
10834,62.0,0.0,120.0,7.0,0.0
10835,74.0,120.0,120.0,6.0,0.0
10836,63.0,120.0,120.0,7.0,0.0
10837,75.0,0.0,120.0,6.0,0.0
10838,64.0,120.0,120.0,7.0,0.0
10839,76.0,0.0,120.0,6.0,0.0
10840,75.0,0.0,120.0,6.0,0.0
10841,63.0,120.0,120.0,7.0,0.0
10842,76.0,120.0,120.0,6.0,0.0
10843,64.0,0.0,120.0,7.0,0.0
10844,77.0,120.0,120.0,6.0,0.0
10845,65.0,0.0,120.0,7.0,0.0
10846,66.0,0.0,120.0,7.0,0.0
10847,78.0,120.0,120.0,6.0,0.0
10848,65.0,0.0,120.0,7.0,0.0
10849,77.0,120.0,120.0,6.0,0.0
10850,78.0,0.0,120.0,6.0,0.0
10851,66.0,120.0,120.0,7.0,0.0
10852,80.0,0.0,120.0,6.0,0.0
10853,68.0,120.0,120.0,7.0,0.0
10854,81.0,0.0,120.0,6.0,0.0
10855,69.0,120.0,120.0,7.0,0.0
10856,80.0,0.0,120.0,6.0,0.0
10857,68.0,120.0,120.0,7.0,0.0
10858,81.0,0.0,120.0,6.0,0.0
10859,69.0,120.0,120.0,7.0,0.0
10860,70.0,120.0,120.0,7.0,0.0
10861,82.0,0.0,120.0,6.0,0.0
10862,83.0,0.0,120.0,6.0,0.0
10863,71.0,120.0,120.0,7.0,0.0
10864,82.0,0.0,120.0,6.0,0.0
10865,70.0,120.0,120.0,7.0,0.0
10866,83.0,0.0,120.0,6.0,0.0
10867,71.0,120.0,120.0,7.0,0.0
10868,84.0,120.0,120.0,6.0,0.0
10869,72.0,0.0,120.0,7.0,0.0
10870,85.0,120.0,120.0,6.0,0.0
10871,73.0,0.0,120.0,7.0,0.0
10872,84.0,0.0,120.0,6.0,0.0
10873,72.0,120.0,120.0,7.0,0.0
10874,73.0,18.0,450.0,7.0,0.0
10875,85.0,120.0,120.0,6.0,0.0
10876,81.0,120.0,120.0,6.0,0.0
10877,90.0,30.0,120.0,6.0,0.0
10878,85.0,120.0,120.0,6.0,0.0
10879,93.0,120.0,120.0,6.0,0.0
10880,90.0,120.0,120.0,6.0,0.0
10881,85.0,120.0,120.0,6.0,0.0
10882,90.0,120.0,120.0,6.0,0.0
10883,81.0,120.0,120.0,6.0,0.0
10884,85.0,120.0,120.0,6.0,0.0
10885,90.0,120.0,120.0,6.0,0.0
10886,85.0,120.0,120.0,6.0,0.0
10887,81.0,120.0,120.0,6.0,0.0
10888,85.0,120.0,120.0,6.0,0.0
10889,78.0,120.0,120.0,6.0,0.0
10890,81.0,120.0,120.0,6.0,0.0
10891,66.0,0.0,1830.0,2.0,0.0
10892,73.0,36.0,1320.0,6.0,0.0
10893,61.0,120.0,120.0,7.0,0.0
10894,69.0,0.0,1830.0,2.0,0.0
10895,78.0,12.0,1830.0,1.0,0.0
10896,81.0,0.0,1830.0,1.0,0.0
10897,69.0,120.0,120.0,7.0,0.0
10898,66.0,42.0,120.0,7.0,0.0
10899,66.0,78.0,150.0,11.0,0.0
10900,61.0,0.0,150.0,12.0,0.0
10901,69.0,0.0,150.0,10.0,0.0
10902,69.0,120.0,120.0,7.0,0.0
10903,61.0,0.0,150.0,12.0,0.0
10904,69.0,78.0,150.0,10.0,0.0
10905,61.0,42.0,120.0,7.0,0.0
10906,66.0,0.0,150.0,11.0,0.0
10907,69.0,120.0,120.0,7.0,0.0
10908,61.0,0.0,150.0,12.0,0.0
10909,66.0,0.0,150.0,11.0,0.0
10910,66.0,42.0,120.0,7.0,0.0
10911,69.0,78.0,150.0,10.0,0.0
10912,69.0,120.0,120.0,7.0,0.0
10913,61.0,78.0,150.0,12.0,0.0
10914,66.0,0.0,150.0,11.0,0.0
10915,61.0,42.0,120.0,7.0,0.0
10916,69.0,0.0,150.0,10.0,0.0
10917,69.0,120.0,120.0,7.0,0.0
10918,66.0,0.0,150.0,11.0,0.0
10919,66.0,6.0,120.0,7.0,0.0
10920,69.0,0.0,150.0,10.0,0.0
10921,61.0,24.0,150.0,12.0,0.0
10922,69.0,6.0,120.0,7.0,0.0
10923,75.0,54.0,60.0,6.0,0.0
10924,77.0,60.0,60.0,6.0,0.0
10925,61.0,6.0,120.0,7.0,0.0
10926,66.0,0.0,150.0,11.0,0.0
10927,69.0,0.0,150.0,10.0,0.0
10928,78.0,54.0,60.0,6.0,0.0
10929,61.0,24.0,150.0,12.0,0.0
10930,80.0,36.0,60.0,6.0,0.0
10931,81.0,54.0,60.0,6.0,0.0
10932,69.0,6.0,120.0,7.0,0.0
10933,83.0,60.0,60.0,6.0,0.0
10934,85.0,54.0,60.0,6.0,0.0
10935,61.0,0.0,150.0,12.0,0.0
10936,66.0,6.0,120.0,7.0,0.0
10937,66.0,24.0,150.0,11.0,0.0
10938,69.0,0.0,150.0,10.0,0.0
10939,87.0,24.0,60.0,6.0,0.0
10940,69.0,6.0,120.0,7.0,0.0
10941,89.0,54.0,60.0,6.0,0.0
10942,90.0,60.0,60.0,6.0,0.0
10943,65.0,0.0,180.0,11.0,0.0
10944,80.0,0.0,1830.0,1.0,0.0
10945,61.0,6.0,120.0,7.0,0.0
10946,61.0,42.0,180.0,12.0,0.0
10947,65.0,0.0,1830.0,2.0,0.0
10948,68.0,16.0,1830.0,2.0,0.0
10949,77.0,0.0,1830.0,1.0,0.0
10950,68.0,0.0,180.0,10.0,0.0
10951,81.0,54.0,60.0,6.0,0.0
10952,80.0,60.0,60.0,6.0,0.0
10953,81.0,12.0,60.0,6.0,0.0
10954,71.0,6.0,120.0,7.0,0.0
10955,80.0,60.0,60.0,6.0,0.0
10956,65.0,6.0,120.0,7.0,0.0
10957,68.0,0.0,180.0,10.0,0.0
10958,61.0,42.0,180.0,12.0,0.0
10959,81.0,54.0,60.0,6.0,0.0
10960,65.0,0.0,180.0,11.0,0.0
10961,80.0,60.0,60.0,6.0,0.0
10962,71.0,6.0,120.0,7.0,0.0
10963,81.0,12.0,60.0,6.0,0.0
10964,80.0,60.0,60.0,6.0,0.0
10965,65.0,0.0,180.0,11.0,0.0
10966,68.0,0.0,180.0,10.0,0.0
10967,61.0,6.0,120.0,7.0,0.0
10968,61.0,42.0,180.0,12.0,0.0
10969,81.0,54.0,60.0,6.0,0.0
10970,80.0,60.0,60.0,6.0,0.0
10971,81.0,12.0,60.0,6.0,0.0
10972,71.0,6.0,120.0,7.0,0.0
10973,80.0,60.0,60.0,6.0,0.0
10974,65.0,6.0,120.0,7.0,0.0
10975,68.0,0.0,180.0,10.0,0.0
10976,65.0,42.0,180.0,11.0,0.0
10977,61.0,0.0,180.0,12.0,0.0
10978,81.0,54.0,60.0,6.0,0.0
10979,80.0,60.0,60.0,6.0,0.0
10980,71.0,6.0,120.0,7.0,0.0
10981,81.0,12.0,60.0,6.0,0.0
10982,80.0,60.0,60.0,6.0,0.0
10983,65.0,42.0,180.0,11.0,0.0
10984,61.0,6.0,120.0,7.0,0.0
10985,61.0,0.0,180.0,12.0,0.0
10986,81.0,54.0,60.0,6.0,0.0
10987,68.0,0.0,180.0,10.0,0.0
10988,80.0,60.0,60.0,6.0,0.0
10989,81.0,12.0,60.0,6.0,0.0
10990,71.0,6.0,120.0,7.0,0.0
10991,80.0,60.0,60.0,6.0,0.0
10992,68.0,0.0,180.0,10.0,0.0
10993,61.0,42.0,180.0,12.0,0.0
10994,65.0,0.0,180.0,11.0,0.0
10995,65.0,6.0,120.0,7.0,0.0
10996,81.0,54.0,60.0,6.0,0.0
10997,80.0,60.0,60.0,6.0,0.0
10998,71.0,6.0,120.0,7.0,0.0
10999,81.0,12.0,60.0,6.0,0.0
11000,80.0,60.0,60.0,6.0,0.0
11001,61.0,0.0,180.0,12.0,0.0
11002,61.0,6.0,120.0,7.0,0.0
11003,65.0,0.0,180.0,11.0,0.0
11004,81.0,54.0,60.0,6.0,0.0
11005,68.0,42.0,180.0,10.0,0.0
11006,80.0,60.0,60.0,6.0,0.0
11007,81.0,12.0,60.0,6.0,0.0
11008,71.0,6.0,120.0,7.0,0.0
11009,80.0,80.0,60.0,6.0,0.0
11010,65.0,6.0,120.0,7.0,0.0
11011,61.0,42.0,180.0,12.0,0.0
11012,68.0,0.0,180.0,10.0,0.0
11013,78.0,24.0,120.0,6.0,0.0
11014,49.0,34.0,90.0,13.0,0.0
11015,65.0,0.0,180.0,11.0,0.0
11016,37.0,0.0,90.0,14.0,0.0
11017,39.0,0.0,90.0,14.0,0.0
11018,51.0,32.0,90.0,13.0,0.0
11019,71.0,6.0,120.0,7.0,0.0
11020,80.0,96.0,120.0,6.0,0.0
11021,41.0,0.0,90.0,14.0,0.0
11022,53.0,0.0,90.0,13.0,0.0
11023,78.0,0.0,1830.0,0.0,0.0
11024,66.0,16.0,1830.0,1.0,0.0
11025,57.0,0.0,90.0,12.0,0.0
11026,66.0,0.0,390.0,10.0,0.0
11027,78.0,0.0,1830.0,1.0,0.0
11028,42.0,0.0,780.0,14.0,0.0
11029,66.0,0.0,780.0,3.0,0.0
11030,54.0,0.0,5670.0,2.0,0.0
11031,54.0,0.0,390.0,5.0,0.0
11032,66.0,0.0,390.0,7.0,0.0
11033,66.0,0.0,390.0,4.0,0.0
11034,78.0,0.0,390.0,4.0,0.0
11035,42.0,36.0,5670.0,2.0,0.0
11036,69.0,72.0,390.0,7.0,0.0
11037,66.0,120.0,90.0,11.0,0.0
11038,78.0,0.0,390.0,6.0,0.0
11039,54.0,0.0,780.0,3.0,0.0
11040,54.0,32.0,780.0,13.0,0.0
11041,57.0,0.0,90.0,12.0,0.0
11042,61.0,120.0,90.0,11.0,0.0
11043,57.0,48.0,90.0,12.0,0.0
11044,61.0,0.0,90.0,11.0,0.0
11045,57.0,120.0,90.0,12.0,0.0
11046,61.0,0.0,90.0,11.0,0.0
11047,61.0,0.0,90.0,11.0,0.0
11048,57.0,120.0,90.0,12.0,0.0
11049,61.0,0.0,90.0,11.0,0.0
11050,57.0,72.0,90.0,12.0,0.0
11051,57.0,64.0,90.0,12.0,0.0
11052,61.0,16.0,90.0,10.0,0.0
11053,61.0,0.0,90.0,11.0,0.0
11054,63.0,56.0,90.0,10.0,0.0
11055,57.0,0.0,90.0,12.0,0.0
11056,61.0,24.0,90.0,11.0,0.0
11057,65.0,96.0,90.0,10.0,0.0
11058,57.0,0.0,90.0,12.0,0.0
11059,66.0,96.0,480.0,10.0,0.0
11060,61.0,120.0,90.0,11.0,0.0
11061,57.0,0.0,90.0,12.0,0.0
11062,61.0,120.0,90.0,11.0,0.0
11063,57.0,120.0,90.0,12.0,0.0
11064,61.0,0.0,90.0,11.0,0.0
11065,57.0,0.0,90.0,12.0,0.0
11066,61.0,24.0,90.0,11.0,0.0
11067,61.0,0.0,90.0,11.0,0.0
11068,57.0,120.0,90.0,12.0,0.0
11069,61.0,104.0,90.0,11.0,0.0
11070,57.0,0.0,90.0,12.0,0.0
11071,61.0,0.0,90.0,13.0,0.0
11072,57.0,48.0,90.0,12.0,0.0
11073,49.0,16.0,90.0,14.0,0.0
11074,61.0,0.0,90.0,11.0,0.0
11075,51.0,56.0,90.0,14.0,0.0
11076,63.0,0.0,90.0,13.0,0.0
11077,61.0,0.0,90.0,11.0,0.0
11078,57.0,0.0,90.0,12.0,0.0
11079,49.0,24.0,90.0,3.0,0.0
11080,61.0,0.0,90.0,3.0,0.0
11081,53.0,0.0,90.0,14.0,0.0
11082,65.0,96.0,90.0,13.0,0.0
11083,61.0,0.0,90.0,11.0,0.0
11084,81.0,0.0,2190.0,1.0,0.0
11085,54.0,0.0,390.0,5.0,0.0
11086,78.0,72.0,390.0,4.0,0.0
11087,66.0,0.0,390.0,4.0,0.0
11088,66.0,0.0,780.0,13.0,0.0
11089,90.0,24.0,2190.0,0.0,0.0
11090,85.0,0.0,2190.0,1.0,0.0
11091,57.0,120.0,90.0,12.0,0.0
11092,54.0,0.0,780.0,14.0,0.0
11093,54.0,0.0,780.0,3.0,0.0
11094,66.0,32.0,780.0,3.0,0.0
11095,57.0,120.0,90.0,12.0,0.0
11096,61.0,0.0,90.0,11.0,0.0
11097,57.0,0.0,90.0,12.0,0.0
11098,61.0,48.0,90.0,11.0,0.0
11099,61.0,0.0,90.0,11.0,0.0
11100,57.0,120.0,90.0,12.0,0.0
11101,61.0,0.0,90.0,11.0,0.0
11102,57.0,120.0,90.0,12.0,0.0
11103,57.0,72.0,90.0,12.0,0.0
11104,61.0,0.0,90.0,11.0,0.0
11105,73.0,16.0,90.0,10.0,0.0
11106,61.0,64.0,90.0,11.0,0.0
11107,57.0,0.0,90.0,12.0,0.0
11108,75.0,56.0,90.0,10.0,0.0
11109,61.0,0.0,90.0,11.0,0.0
11110,57.0,24.0,90.0,12.0,0.0
11111,77.0,96.0,90.0,10.0,0.0
11112,78.0,72.0,390.0,10.0,0.0
11113,57.0,0.0,90.0,12.0,0.0
11114,61.0,120.0,90.0,11.0,0.0
11115,57.0,0.0,90.0,12.0,0.0
11116,61.0,120.0,90.0,11.0,0.0
11117,57.0,0.0,90.0,12.0,0.0
11118,61.0,48.0,90.0,11.0,0.0
11119,57.0,0.0,90.0,12.0,0.0
11120,61.0,120.0,90.0,11.0,0.0
11121,57.0,120.0,90.0,12.0,0.0
11122,61.0,0.0,90.0,11.0,0.0
11123,57.0,0.0,90.0,12.0,0.0
11124,61.0,104.0,90.0,11.0,0.0
11125,57.0,0.0,90.0,12.0,0.0
11126,85.0,16.0,90.0,10.0,0.0
11127,61.0,64.0,90.0,11.0,0.0
11128,87.0,56.0,90.0,10.0,0.0
11129,61.0,0.0,90.0,11.0,0.0
11130,61.0,0.0,90.0,3.0,0.0
11131,49.0,0.0,90.0,3.0,0.0
11132,57.0,24.0,90.0,12.0,0.0
11133,89.0,96.0,90.0,10.0,0.0
11134,57.0,0.0,90.0,12.0,0.0
11135,54.0,48.0,300.0,3.0,0.0
11136,66.0,0.0,300.0,3.0,0.0
11137,61.0,120.0,90.0,11.0,0.0
11138,90.0,0.0,300.0,10.0,0.0
11139,57.0,0.0,90.0,12.0,0.0
11140,61.0,48.0,90.0,11.0,0.0
11141,57.0,0.0,90.0,12.0,0.0
11142,61.0,120.0,90.0,11.0,0.0
11143,61.0,120.0,90.0,11.0,0.0
11144,57.0,0.0,90.0,12.0,0.0
11145,57.0,0.0,90.0,12.0,0.0
11146,85.0,0.0,270.0,0.0,0.0
11147,85.0,24.0,270.0,1.0,0.0
11148,73.0,48.0,300.0,10.0,0.0
11149,61.0,120.0,90.0,11.0,0.0
11150,66.0,0.0,300.0,3.0,0.0
11151,54.0,0.0,300.0,3.0,0.0
11152,61.0,0.0,90.0,11.0,0.0
11153,57.0,48.0,90.0,12.0,0.0
11154,61.0,0.0,90.0,11.0,0.0
11155,57.0,120.0,90.0,12.0,0.0
11156,61.0,120.0,90.0,11.0,0.0
11157,57.0,0.0,90.0,12.0,0.0
11158,69.0,0.0,300.0,10.0,0.0
11159,81.0,24.0,270.0,1.0,0.0
11160,57.0,0.0,90.0,12.0,0.0
11161,93.0,0.0,270.0,0.0,0.0
11162,61.0,120.0,90.0,11.0,0.0
11163,54.0,0.0,300.0,3.0,0.0
11164,66.0,48.0,300.0,3.0,0.0
11165,61.0,48.0,90.0,11.0,0.0
11166,57.0,0.0,90.0,12.0,0.0
11167,57.0,0.0,90.0,12.0,0.0
11168,61.0,120.0,90.0,11.0,0.0
11169,57.0,120.0,90.0,12.0,0.0
11170,61.0,0.0,90.0,11.0,0.0
11171,57.0,120.0,90.0,12.0,0.0
11172,66.0,0.0,300.0,10.0,0.0
11173,66.0,0.0,300.0,3.0,0.0
11174,61.0,0.0,90.0,11.0,0.0
11175,90.0,0.0,270.0,0.0,0.0
11176,78.0,24.0,270.0,1.0,0.0
11177,54.0,12.0,300.0,3.0,0.0
11178,61.0,48.0,90.0,11.0,0.0
11179,57.0,0.0,90.0,12.0,0.0
11180,57.0,0.0,90.0,12.0,0.0
11181,49.0,36.0,60.0,14.0,0.0
11182,61.0,24.0,90.0,11.0,0.0
11183,61.0,0.0,60.0,13.0,0.0
11184,51.0,24.0,60.0,14.0,0.0
11185,63.0,0.0,60.0,13.0,0.0
11186,65.0,0.0,60.0,13.0,0.0
11187,57.0,24.0,90.0,12.0,0.0
11188,53.0,36.0,60.0,14.0,0.0
11189,61.0,0.0,90.0,11.0,0.0
11190,54.0,0.0,60.0,14.0,0.0
11191,66.0,96.0,60.0,13.0,0.0
11192,56.0,36.0,1830.0,2.0,0.0
11193,44.0,0.0,1830.0,2.0,0.0
11194,62.0,0.0,90.0,11.0,0.0
11195,77.0,0.0,780.0,1.0,0.0
11196,89.0,0.0,780.0,0.0,0.0
11197,65.0,24.0,780.0,10.0,0.0
11198,56.0,24.0,300.0,14.0,0.0
11199,59.0,120.0,90.0,12.0,0.0
11200,68.0,0.0,300.0,13.0,0.0
11201,68.0,0.0,1830.0,3.0,0.0
11202,62.0,0.0,90.0,11.0,0.0
11203,59.0,96.0,90.0,12.0,0.0
11204,62.0,120.0,90.0,11.0,0.0
11205,59.0,0.0,90.0,12.0,0.0
11206,59.0,0.0,90.0,12.0,0.0
11207,62.0,120.0,90.0,11.0,0.0
11208,65.0,0.0,300.0,13.0,0.0
11209,62.0,0.0,90.0,11.0,0.0
11210,53.0,24.0,300.0,14.0,0.0
11211,59.0,120.0,90.0,12.0,0.0
11212,62.0,72.0,90.0,11.0,0.0
11213,59.0,0.0,90.0,12.0,0.0
11214,62.0,120.0,90.0,11.0,0.0
11215,59.0,0.0,90.0,12.0,0.0
11216,62.0,120.0,90.0,11.0,0.0
11217,59.0,0.0,90.0,12.0,0.0
11218,59.0,24.0,300.0,13.0,0.0
11219,59.0,0.0,90.0,12.0,0.0
11220,47.0,0.0,300.0,14.0,0.0
11221,62.0,120.0,90.0,11.0,0.0
11222,62.0,0.0,90.0,11.0,0.0
11223,59.0,96.0,90.0,12.0,0.0
11224,59.0,120.0,90.0,12.0,0.0
11225,62.0,0.0,90.0,11.0,0.0
11226,59.0,0.0,90.0,12.0,0.0
11227,62.0,120.0,90.0,11.0,0.0
11228,59.0,120.0,90.0,12.0,0.0
11229,56.0,24.0,300.0,13.0,0.0
11230,44.0,0.0,300.0,14.0,0.0
11231,62.0,0.0,90.0,11.0,0.0
11232,62.0,0.0,90.0,11.0,0.0
11233,59.0,84.0,90.0,12.0,0.0
11234,59.0,24.0,90.0,12.0,0.0
11235,80.0,12.0,60.0,10.0,0.0
11236,62.0,0.0,90.0,11.0,0.0
11237,81.0,24.0,60.0,10.0,0.0
11238,59.0,0.0,90.0,12.0,0.0
11239,62.0,24.0,90.0,11.0,0.0
11240,83.0,36.0,60.0,10.0,0.0
11241,85.0,96.0,60.0,10.0,0.0
11242,57.0,120.0,90.0,12.0,0.0
11243,54.0,0.0,300.0,3.0,0.0
11244,54.0,0.0,780.0,13.0,0.0
11245,42.0,0.0,780.0,14.0,0.0
11246,86.0,48.0,300.0,10.0,0.0
11247,62.0,0.0,90.0,11.0,0.0
11248,66.0,0.0,300.0,3.0,0.0
11249,42.0,16.0,1830.0,2.0,0.0
11250,54.0,0.0,1830.0,2.0,0.0
11251,62.0,0.0,90.0,11.0,0.0
11252,57.0,72.0,90.0,12.0,0.0
11253,62.0,0.0,90.0,11.0,0.0
11254,57.0,120.0,90.0,12.0,0.0
11255,57.0,0.0,90.0,12.0,0.0
11256,62.0,120.0,90.0,11.0,0.0
11257,57.0,120.0,90.0,12.0,0.0
11258,93.0,24.0,270.0,0.0,0.0
11259,62.0,0.0,90.0,11.0,0.0
11260,54.0,48.0,300.0,3.0,0.0
11261,66.0,0.0,300.0,3.0,0.0
11262,81.0,0.0,270.0,1.0,0.0
11263,69.0,0.0,300.0,10.0,0.0
11264,62.0,0.0,90.0,11.0,0.0
11265,57.0,48.0,90.0,12.0,0.0
11266,62.0,0.0,90.0,11.0,0.0
11267,57.0,120.0,90.0,12.0,0.0
11268,57.0,0.0,90.0,12.0,0.0
11269,62.0,120.0,90.0,11.0,0.0
11270,66.0,0.0,300.0,10.0,0.0
11271,66.0,48.0,300.0,3.0,0.0
11272,57.0,120.0,90.0,12.0,0.0
11273,78.0,24.0,270.0,1.0,0.0
11274,90.0,0.0,270.0,1.0,0.0
11275,90.0,0.0,270.0,0.0,0.0
11276,62.0,0.0,90.0,11.0,0.0
11277,54.0,0.0,300.0,3.0,0.0
11278,62.0,0.0,90.0,11.0,0.0
11279,57.0,48.0,90.0,12.0,0.0
11280,62.0,120.0,90.0,11.0,0.0
11281,57.0,0.0,90.0,12.0,0.0
11282,57.0,0.0,90.0,12.0,0.0
11283,62.0,120.0,90.0,11.0,0.0
11284,57.0,0.0,90.0,12.0,0.0
11285,62.0,120.0,90.0,11.0,0.0
11286,74.0,0.0,270.0,1.0,0.0
11287,86.0,0.0,270.0,1.0,0.0
11288,62.0,32.0,300.0,10.0,0.0
11289,66.0,0.0,300.0,3.0,0.0
11290,86.0,24.0,270.0,0.0,0.0
11291,54.0,0.0,300.0,3.0,0.0
11292,57.0,0.0,90.0,12.0,0.0
11293,62.0,48.0,90.0,11.0,0.0
11294,69.0,0.0,90.0,13.0,0.0
11295,62.0,48.0,90.0,11.0,0.0
11296,57.0,16.0,90.0,14.0,0.0
11297,57.0,0.0,90.0,12.0,0.0
11298,68.0,0.0,90.0,13.0,0.0
11299,56.0,56.0,90.0,14.0,0.0
11300,57.0,0.0,90.0,12.0,0.0
11301,62.0,24.0,90.0,11.0,0.0
11302,66.0,0.0,90.0,13.0,0.0
11303,54.0,384.0,90.0,14.0,0.0
11304,73.0,0.0,720.0,1.0,0.0
11305,53.0,0.0,720.0,2.0,0.0
11306,85.0,0.0,720.0,1.0,0.0
11307,65.0,0.0,720.0,13.0,0.0
11308,85.0,240.0,720.0,0.0,0.0
11309,56.0,0.0,720.0,12.0,0.0
11310,61.0,0.0,720.0,10.0,0.0
11311,49.0,0.0,390.0,5.0,0.0
11312,61.0,0.0,720.0,11.0,0.0
11313,53.0,0.0,720.0,14.0,0.0
11314,73.0,0.0,390.0,4.0,0.0
11315,49.0,0.0,390.0,3.0,0.0
11316,61.0,336.0,390.0,4.0,0.0
11317,61.0,0.0,390.0,3.0,0.0
11318,54.0,0.0,240.0,2.0,0.0
11319,62.0,0.0,240.0,10.0,0.0
11320,86.0,0.0,240.0,0.0,0.0
11321,57.0,0.0,240.0,12.0,0.0
11322,86.0,0.0,240.0,1.0,0.0
11323,74.0,0.0,240.0,1.0,0.0
11324,54.0,0.0,240.0,14.0,0.0
11325,66.0,0.0,240.0,13.0,0.0
11326,62.0,240.0,240.0,11.0,0.0
11327,61.0,0.0,240.0,10.0,0.0
11328,53.0,0.0,240.0,14.0,0.0
11329,85.0,0.0,240.0,0.0,0.0
11330,56.0,0.0,240.0,12.0,0.0
11331,65.0,0.0,240.0,13.0,0.0
11332,85.0,0.0,240.0,1.0,0.0
11333,73.0,240.0,240.0,1.0,0.0
11334,53.0,0.0,240.0,2.0,0.0
11335,61.0,0.0,240.0,11.0,0.0
11336,60.0,0.0,240.0,10.0,0.0
11337,57.0,0.0,240.0,12.0,0.0
11338,54.0,0.0,240.0,2.0,0.0
11339,60.0,0.0,240.0,11.0,0.0
11340,54.0,0.0,240.0,14.0,0.0
11341,84.0,240.0,240.0,0.0,0.0
11342,66.0,0.0,240.0,13.0,0.0
11343,84.0,0.0,240.0,1.0,0.0
11344,72.0,0.0,240.0,1.0,0.0
11345,85.0,0.0,240.0,1.0,0.0
11346,73.0,0.0,240.0,1.0,0.0
11347,53.0,0.0,240.0,14.0,0.0
11348,53.0,0.0,240.0,2.0,0.0
11349,61.0,0.0,240.0,10.0,0.0
11350,61.0,0.0,240.0,11.0,0.0
11351,65.0,0.0,240.0,13.0,0.0
11352,56.0,192.0,240.0,12.0,0.0
11353,85.0,0.0,240.0,0.0,0.0
11354,84.0,0.0,180.0,1.0,0.0
11355,60.0,36.0,180.0,10.0,0.0
11356,72.0,0.0,180.0,1.0,0.0
11357,84.0,0.0,180.0,0.0,0.0
11358,54.0,396.0,240.0,14.0,0.0
11359,66.0,0.0,240.0,13.0,0.0
11360,54.0,0.0,180.0,2.0,0.0
11361,60.0,0.0,180.0,11.0,0.0
11362,57.0,0.0,240.0,12.0,0.0
11363,85.0,0.0,720.0,0.0,0.0
11364,49.0,0.0,390.0,5.0,0.0
11365,65.0,0.0,720.0,13.0,0.0
11366,53.0,0.0,720.0,14.0,0.0
11367,61.0,0.0,720.0,11.0,0.0
11368,61.0,240.0,720.0,10.0,0.0
11369,73.0,0.0,720.0,1.0,0.0
11370,53.0,0.0,720.0,2.0,0.0
11371,73.0,0.0,390.0,4.0,0.0
11372,61.0,0.0,390.0,4.0,0.0
11373,56.0,0.0,720.0,12.0,0.0
11374,49.0,336.0,390.0,3.0,0.0
11375,61.0,0.0,390.0,3.0,0.0
11376,85.0,0.0,720.0,1.0,0.0
11377,86.0,240.0,240.0,0.0,0.0
11378,86.0,0.0,240.0,1.0,0.0
11379,62.0,0.0,240.0,11.0,0.0
11380,54.0,0.0,240.0,14.0,0.0
11381,54.0,0.0,240.0,2.0,0.0
11382,57.0,0.0,240.0,12.0,0.0
11383,74.0,0.0,240.0,1.0,0.0
11384,66.0,0.0,240.0,13.0,0.0
11385,62.0,0.0,240.0,10.0,0.0
11386,61.0,0.0,240.0,11.0,0.0
11387,53.0,0.0,240.0,14.0,0.0
11388,73.0,0.0,240.0,1.0,0.0
11389,85.0,240.0,240.0,1.0,0.0
11390,65.0,0.0,240.0,13.0,0.0
11391,53.0,0.0,240.0,2.0,0.0
11392,61.0,0.0,240.0,10.0,0.0
11393,56.0,0.0,240.0,12.0,0.0
11394,85.0,0.0,240.0,0.0,0.0
11395,54.0,0.0,240.0,2.0,0.0
11396,84.0,0.0,240.0,0.0,0.0
11397,57.0,240.0,240.0,12.0,0.0
11398,60.0,0.0,240.0,10.0,0.0
11399,60.0,0.0,240.0,11.0,0.0
11400,54.0,0.0,240.0,14.0,0.0
11401,72.0,0.0,240.0,1.0,0.0
11402,84.0,0.0,240.0,1.0,0.0
11403,66.0,0.0,240.0,13.0,0.0
11404,61.0,192.0,240.0,10.0,0.0
11405,61.0,0.0,240.0,11.0,0.0
11406,85.0,0.0,240.0,1.0,0.0
11407,73.0,0.0,240.0,1.0,0.0
11408,85.0,0.0,240.0,0.0,0.0
11409,56.0,0.0,240.0,12.0,0.0
11410,53.0,0.0,240.0,14.0,0.0
11411,53.0,0.0,240.0,2.0,0.0
11412,65.0,0.0,240.0,13.0,0.0
11413,57.0,396.0,240.0,12.0,0.0
11414,54.0,0.0,240.0,14.0,0.0
11415,60.0,0.0,180.0,11.0,0.0
11416,60.0,0.0,180.0,10.0,0.0
11417,84.0,0.0,180.0,0.0,0.0
11418,66.0,0.0,240.0,13.0,0.0
11419,84.0,0.0,180.0,1.0,0.0
11420,72.0,0.0,180.0,1.0,0.0
11421,54.0,36.0,180.0,2.0,0.0
11422,61.0,0.0,390.0,3.0,0.0
11423,49.0,480.0,390.0,5.0,0.0
11424,73.0,0.0,390.0,4.0,0.0
11425,61.0,0.0,390.0,4.0,0.0
11426,61.0,0.0,390.0,11.0,0.0
11427,65.0,0.0,390.0,13.0,0.0
11428,85.0,0.0,390.0,0.0,0.0
11429,49.0,0.0,390.0,3.0,0.0
11430,61.0,0.0,390.0,10.0,0.0
11431,56.0,0.0,390.0,12.0,0.0
11432,73.0,0.0,390.0,1.0,0.0
11433,85.0,0.0,390.0,1.0,0.0
11434,53.0,0.0,390.0,14.0,0.0
11435,53.0,0.0,390.0,2.0,0.0
11436,73.0,0.0,390.0,10.0,0.0
11437,83.0,0.0,390.0,10.0,0.0
11438,73.0,480.0,390.0,11.0,0.0
11439,80.0,0.0,390.0,11.0,0.0
11440,65.0,0.0,390.0,12.0,0.0
11441,66.0,0.0,390.0,4.0,0.0
11442,54.0,0.0,390.0,5.0,0.0
11443,66.0,0.0,390.0,13.0,0.0
11444,81.0,0.0,390.0,1.0,0.0
11445,78.0,0.0,390.0,4.0,0.0
11446,66.0,0.0,390.0,3.0,0.0
11447,54.0,480.0,390.0,3.0,0.0
11448,54.0,0.0,390.0,14.0,0.0
11449,85.0,0.0,390.0,0.0,0.0
11450,54.0,0.0,390.0,2.0,0.0
11451,78.0,0.0,390.0,1.0,0.0
11452,73.0,0.0,390.0,10.0,0.0
11453,78.0,0.0,390.0,11.0,0.0
11454,81.0,480.0,390.0,10.0,0.0
11455,66.0,0.0,390.0,12.0,0.0
11456,66.0,0.0,390.0,11.0,0.0
11457,47.0,0.0,390.0,2.0,0.0
11458,86.0,0.0,390.0,0.0,0.0
11459,78.0,0.0,390.0,4.0,0.0
11460,66.0,0.0,390.0,4.0,0.0
11461,80.0,0.0,390.0,1.0,0.0
11462,78.0,0.0,390.0,1.0,0.0
11463,59.0,480.0,390.0,13.0,0.0
11464,66.0,0.0,390.0,3.0,0.0
11465,54.0,0.0,390.0,3.0,0.0
11466,54.0,0.0,390.0,5.0,0.0
11467,47.0,0.0,390.0,14.0,0.0
11468,78.0,0.0,390.0,10.0,0.0
11469,59.0,0.0,390.0,12.0,0.0
11470,86.0,0.0,390.0,10.0,0.0
11471,74.0,0.0,390.0,11.0,0.0
11472,83.0,480.0,390.0,11.0,0.0
11473,66.0,0.0,390.0,3.0,0.0
11474,54.0,0.0,390.0,3.0,0.0
11475,78.0,0.0,390.0,1.0,0.0
11476,81.0,0.0,390.0,1.0,0.0
11477,48.0,0.0,390.0,2.0,0.0
11478,54.0,0.0,390.0,5.0,0.0
11479,60.0,480.0,390.0,13.0,0.0
11480,66.0,0.0,390.0,4.0,0.0
11481,78.0,0.0,390.0,4.0,0.0
11482,48.0,0.0,390.0,14.0,0.0
11483,90.0,0.0,390.0,0.0,0.0
11484,81.0,0.0,390.0,10.0,0.0
11485,60.0,0.0,390.0,12.0,0.0
11486,90.0,0.0,390.0,10.0,0.0
11487,87.0,0.0,390.0,11.0,0.0
11488,78.0,998.0,390.0,11.0,0.0
11489,49.0,1786.0,900.0,5.0,0.0
11490,61.0,0.0,2700.0,12.0,0.0
11491,81.0,0.0,2850.0,6.0,0.0
11492,78.0,172.0,2700.0,1.0,0.0
11493,81.0,0.0,2700.0,1.0,0.0
11494,61.0,0.0,2700.0,3.0,0.0
11495,49.0,0.0,2700.0,3.0,0.0
11496,49.0,0.0,2700.0,14.0,0.0
11497,61.0,0.0,2700.0,13.0,0.0
11498,49.0,0.0,2700.0,2.0,0.0
11499,81.0,0.0,2700.0,0.0,0.0
11500,61.0,0.0,2700.0,4.0,0.0
11501,73.0,0.0,2700.0,4.0,0.0
11502,61.0,0.0,2700.0,11.0,0.0
11503,73.0,0.0,2850.0,6.0,0.0
11504,78.0,0.0,2850.0,6.0,0.0
11505,61.0,0.0,2700.0,10.0,0.0
11506,61.0,80.0,2850.0,8.0,0.0
11507,81.0,60.0,60.0,6.0,0.0
11508,80.0,60.0,60.0,6.0,0.0
11509,81.0,60.0,60.0,6.0,0.0
11510,80.0,60.0,60.0,6.0,0.0
11511,81.0,60.0,60.0,6.0,0.0
11512,80.0,60.0,60.0,6.0,0.0
11513,81.0,60.0,60.0,6.0,0.0
11514,80.0,60.0,60.0,6.0,0.0
11515,81.0,60.0,60.0,6.0,0.0
11516,80.0,60.0,60.0,6.0,0.0
11517,81.0,60.0,60.0,6.0,0.0
11518,80.0,60.0,60.0,6.0,0.0
11519,81.0,60.0,60.0,6.0,0.0
11520,80.0,60.0,60.0,6.0,0.0
11521,81.0,60.0,60.0,6.0,0.0
11522,80.0,60.0,60.0,6.0,0.0
11523,81.0,60.0,60.0,6.0,0.0
11524,80.0,60.0,60.0,6.0,0.0
11525,81.0,60.0,60.0,6.0,0.0
11526,80.0,60.0,60.0,6.0,0.0
11527,81.0,60.0,60.0,6.0,0.0
11528,80.0,60.0,60.0,6.0,0.0
11529,81.0,60.0,60.0,6.0,0.0
11530,80.0,60.0,60.0,6.0,0.0
11531,81.0,60.0,60.0,6.0,0.0
11532,80.0,60.0,60.0,6.0,0.0
11533,81.0,60.0,60.0,6.0,0.0
11534,80.0,60.0,60.0,6.0,0.0
11535,81.0,20.0,60.0,6.0,0.0
11536,44.0,40.0,90.0,8.0,0.0
11537,80.0,40.0,60.0,6.0,0.0
11538,46.0,20.0,90.0,8.0,0.0
11539,81.0,60.0,60.0,6.0,0.0
11540,48.0,60.0,90.0,8.0,0.0
11541,80.0,0.0,60.0,6.0,0.0
11542,81.0,60.0,60.0,6.0,0.0
11543,49.0,60.0,480.0,8.0,0.0
11544,80.0,60.0,60.0,6.0,0.0
11545,81.0,60.0,60.0,6.0,0.0
11546,80.0,60.0,60.0,6.0,0.0
11547,81.0,60.0,60.0,6.0,0.0
11548,80.0,60.0,60.0,6.0,0.0
11549,81.0,60.0,60.0,6.0,0.0
11550,80.0,0.0,60.0,6.0,0.0
11551,81.0,60.0,60.0,6.0,0.0
11552,80.0,60.0,60.0,6.0,0.0
11553,81.0,60.0,60.0,6.0,0.0
11554,80.0,120.0,60.0,6.0,0.0
11555,78.0,120.0,120.0,6.0,0.0
11556,80.0,60.0,120.0,6.0,0.0
11557,85.0,60.0,60.0,6.0,0.0
11558,83.0,60.0,60.0,6.0,0.0
11559,85.0,60.0,60.0,6.0,0.0
11560,83.0,60.0,60.0,6.0,0.0
11561,85.0,60.0,60.0,6.0,0.0
11562,83.0,60.0,60.0,6.0,0.0
11563,85.0,60.0,60.0,6.0,0.0
11564,83.0,60.0,60.0,6.0,0.0
11565,85.0,60.0,60.0,6.0,0.0
11566,83.0,60.0,60.0,6.0,0.0
11567,85.0,60.0,60.0,6.0,0.0
11568,83.0,60.0,60.0,6.0,0.0
11569,42.0,40.0,90.0,8.0,0.0
11570,85.0,20.0,60.0,6.0,0.0
11571,83.0,40.0,60.0,6.0,0.0
11572,44.0,20.0,90.0,8.0,0.0
11573,85.0,60.0,60.0,6.0,0.0
11574,46.0,60.0,90.0,8.0,0.0
11575,83.0,0.0,60.0,6.0,0.0
11576,85.0,60.0,60.0,6.0,0.0
11577,47.0,60.0,480.0,8.0,0.0
11578,83.0,60.0,60.0,6.0,0.0
11579,85.0,60.0,60.0,6.0,0.0
11580,83.0,60.0,60.0,6.0,0.0
11581,85.0,60.0,60.0,6.0,0.0
11582,83.0,60.0,60.0,6.0,0.0
11583,85.0,60.0,60.0,6.0,0.0
11584,83.0,0.0,60.0,6.0,0.0
11585,85.0,60.0,60.0,6.0,0.0
11586,83.0,60.0,60.0,6.0,0.0
11587,85.0,60.0,60.0,6.0,0.0
11588,83.0,120.0,60.0,6.0,0.0
11589,82.0,120.0,120.0,6.0,0.0
11590,83.0,60.0,120.0,6.0,0.0
11591,88.0,60.0,60.0,6.0,0.0
11592,86.0,60.0,60.0,6.0,0.0
11593,88.0,60.0,60.0,6.0,0.0
11594,86.0,60.0,60.0,6.0,0.0
11595,88.0,60.0,60.0,6.0,0.0
11596,86.0,60.0,60.0,6.0,0.0
11597,88.0,60.0,60.0,6.0,0.0
11598,86.0,60.0,60.0,6.0,0.0
11599,88.0,60.0,60.0,6.0,0.0
11600,86.0,60.0,60.0,6.0,0.0
11601,88.0,60.0,60.0,6.0,0.0
11602,86.0,60.0,60.0,6.0,0.0
11603,38.0,40.0,90.0,8.0,0.0
11604,88.0,20.0,60.0,6.0,0.0
11605,86.0,40.0,60.0,6.0,0.0
11606,40.0,20.0,90.0,8.0,0.0
11607,88.0,60.0,60.0,6.0,0.0
11608,42.0,60.0,90.0,8.0,0.0
11609,86.0,0.0,60.0,6.0,0.0
11610,43.0,60.0,480.0,8.0,0.0
11611,88.0,60.0,60.0,6.0,0.0
11612,86.0,60.0,60.0,6.0,0.0
11613,88.0,60.0,60.0,6.0,0.0
11614,86.0,60.0,60.0,6.0,0.0
11615,88.0,60.0,60.0,6.0,0.0
11616,86.0,60.0,60.0,6.0,0.0
11617,88.0,60.0,60.0,6.0,0.0
11618,86.0,0.0,60.0,6.0,0.0
11619,88.0,60.0,60.0,6.0,0.0
11620,86.0,60.0,60.0,6.0,0.0
11621,88.0,60.0,60.0,6.0,0.0
11622,86.0,120.0,60.0,6.0,0.0
11623,85.0,120.0,120.0,6.0,0.0
11624,86.0,118.0,120.0,6.0,0.0
11625,91.0,120.0,120.0,6.0,0.0
11626,86.0,120.0,120.0,6.0,0.0
11627,83.0,120.0,120.0,6.0,0.0
11628,86.0,120.0,120.0,6.0,0.0
11629,95.0,120.0,120.0,6.0,0.0
11630,86.0,120.0,120.0,6.0,0.0
11631,83.0,120.0,120.0,6.0,0.0
11632,86.0,120.0,120.0,6.0,0.0
11633,93.0,120.0,120.0,6.0,0.0
11634,86.0,120.0,120.0,6.0,0.0
11635,83.0,120.0,120.0,6.0,0.0
11636,86.0,120.0,120.0,6.0,0.0
11637,91.0,120.0,120.0,6.0,0.0
11638,86.0,120.0,120.0,6.0,0.0
11639,83.0,120.0,120.0,6.0,0.0
11640,86.0,238.0,120.0,6.0,0.0
11641,50.0,0.0,240.0,7.0,0.0
11642,47.0,234.0,240.0,7.0,0.0
11643,44.0,240.0,480.0,8.0,0.0
11644,50.0,240.0,480.0,7.0,0.0
11645,47.0,0.0,480.0,7.0,0.0
11646,44.0,240.0,480.0,8.0,0.0
11647,50.0,0.0,480.0,7.0,0.0
11648,47.0,240.0,480.0,7.0,0.0
11649,44.0,240.0,480.0,8.0,0.0
11650,47.0,0.0,480.0,7.0,0.0
11651,50.0,240.0,480.0,7.0,0.0
11652,44.0,6.0,480.0,8.0,0.0
11653,50.0,0.0,240.0,7.0,0.0
11654,47.0,122.0,240.0,7.0,0.0
11655,41.0,8.0,480.0,8.0,0.0
11656,90.0,120.0,120.0,6.0,0.0
11657,87.0,120.0,120.0,6.0,0.0
11658,81.0,112.0,120.0,6.0,0.0
11659,87.0,120.0,120.0,6.0,0.0
11660,96.0,120.0,120.0,6.0,0.0
11661,87.0,120.0,120.0,6.0,0.0
11662,81.0,120.0,120.0,6.0,0.0
11663,87.0,120.0,120.0,6.0,0.0
11664,95.0,120.0,120.0,6.0,0.0
11665,87.0,120.0,120.0,6.0,0.0
11666,81.0,120.0,120.0,6.0,0.0
11667,87.0,120.0,120.0,6.0,0.0
11668,93.0,120.0,120.0,6.0,0.0
11669,87.0,120.0,120.0,6.0,0.0
11670,81.0,120.0,120.0,6.0,0.0
11671,87.0,238.0,120.0,6.0,0.0
11672,42.0,240.0,480.0,8.0,0.0
11673,51.0,234.0,240.0,7.0,0.0
11674,45.0,0.0,240.0,7.0,0.0
11675,45.0,0.0,480.0,7.0,0.0
11676,51.0,240.0,480.0,7.0,0.0
11677,42.0,240.0,480.0,8.0,0.0
11678,51.0,240.0,480.0,7.0,0.0
11679,45.0,0.0,480.0,7.0,0.0
11680,42.0,240.0,480.0,8.0,0.0
11681,51.0,0.0,480.0,7.0,0.0
11682,45.0,240.0,480.0,7.0,0.0
11683,42.0,6.0,480.0,8.0,0.0
11684,51.0,122.0,240.0,7.0,0.0
11685,45.0,0.0,240.0,7.0,0.0
11686,91.0,120.0,120.0,6.0,0.0
11687,40.0,8.0,480.0,8.0,0.0
11688,86.0,120.0,120.0,6.0,0.0
11689,83.0,112.0,120.0,6.0,0.0
11690,86.0,120.0,120.0,6.0,0.0
11691,95.0,120.0,120.0,6.0,0.0
11692,86.0,82.0,120.0,6.0,0.0
11693,59.0,38.0,90.0,8.0,0.0
11694,83.0,42.0,120.0,6.0,0.0
11695,61.0,78.0,90.0,8.0,0.0
11696,86.0,2.0,120.0,6.0,0.0
11697,63.0,118.0,90.0,8.0,0.0
11698,93.0,120.0,120.0,6.0,0.0
11699,64.0,118.0,480.0,8.0,0.0
11700,86.0,120.0,120.0,6.0,0.0
11701,83.0,120.0,120.0,6.0,0.0
11702,86.0,2.0,120.0,6.0,0.0
11703,91.0,120.0,120.0,6.0,0.0
11704,86.0,82.0,120.0,6.0,0.0
11705,83.0,42.0,120.0,6.0,0.0
11706,47.0,38.0,90.0,8.0,0.0
11707,49.0,78.0,90.0,8.0,0.0
11708,86.0,2.0,120.0,6.0,0.0
11709,51.0,118.0,90.0,8.0,0.0
11710,52.0,118.0,480.0,8.0,0.0
11711,91.0,120.0,120.0,6.0,0.0
11712,85.0,120.0,120.0,6.0,0.0
11713,82.0,120.0,120.0,6.0,0.0
11714,85.0,2.0,120.0,6.0,0.0
11715,91.0,120.0,120.0,6.0,0.0
11716,88.0,120.0,120.0,6.0,0.0
11717,85.0,2.0,120.0,6.0,0.0
11718,58.0,118.0,120.0,8.0,0.0
11719,88.0,2.0,120.0,6.0,0.0
11720,59.0,118.0,120.0,8.0,0.0
11721,61.0,118.0,480.0,8.0,0.0
11722,90.0,120.0,120.0,6.0,0.0
11723,88.0,120.0,120.0,6.0,0.0
11724,82.0,120.0,120.0,6.0,0.0
11725,88.0,2.0,120.0,6.0,0.0
11726,90.0,120.0,120.0,6.0,0.0
11727,88.0,82.0,120.0,6.0,0.0
11728,85.0,42.0,120.0,6.0,0.0
11729,42.0,38.0,90.0,8.0,0.0
11730,44.0,78.0,90.0,8.0,0.0
11731,88.0,2.0,120.0,6.0,0.0
11732,46.0,118.0,90.0,8.0,0.0
11733,90.0,120.0,120.0,6.0,0.0
11734,47.0,94.0,390.0,8.0,0.0
11735,86.0,120.0,120.0,6.0,0.0
11736,78.0,26.0,120.0,6.0,0.0
11737,86.0,120.0,120.0,6.0,0.0
11738,49.0,94.0,390.0,8.0,0.0
11739,90.0,120.0,120.0,6.0,0.0
11740,82.0,120.0,120.0,6.0,0.0
11741,78.0,26.0,120.0,6.0,0.0
11742,82.0,120.0,120.0,6.0,0.0
11743,90.0,120.0,120.0,6.0,0.0
11744,50.0,94.0,390.0,8.0,0.0
11745,83.0,120.0,120.0,6.0,0.0
11746,78.0,26.0,120.0,6.0,0.0
11747,83.0,120.0,120.0,6.0,0.0
11748,60.0,94.0,390.0,8.0,0.0
11749,90.0,120.0,120.0,6.0,0.0
11750,81.0,120.0,120.0,6.0,0.0
11751,78.0,26.0,120.0,6.0,0.0
11752,81.0,120.0,120.0,6.0,0.0
11753,90.0,120.0,120.0,6.0,0.0
11754,50.0,94.0,390.0,8.0,0.0
11755,81.0,120.0,120.0,6.0,0.0
11756,78.0,26.0,120.0,6.0,0.0
11757,81.0,120.0,120.0,6.0,0.0
11758,91.0,120.0,120.0,6.0,0.0
11759,61.0,94.0,390.0,8.0,0.0
11760,82.0,120.0,120.0,6.0,0.0
11761,79.0,26.0,120.0,6.0,0.0
11762,82.0,120.0,120.0,6.0,0.0
11763,50.0,94.0,390.0,8.0,0.0
11764,91.0,120.0,120.0,6.0,0.0
11765,82.0,120.0,120.0,6.0,0.0
11766,79.0,26.0,120.0,6.0,0.0
11767,82.0,120.0,120.0,6.0,0.0
11768,82.0,120.0,120.0,6.0,0.0
11769,62.0,94.0,390.0,8.0,0.0
11770,79.0,120.0,120.0,6.0,0.0
11771,70.0,26.0,120.0,6.0,0.0
11772,79.0,120.0,120.0,6.0,0.0
11773,50.0,46.0,180.0,8.0,0.0
11774,82.0,74.0,120.0,6.0,0.0
11775,79.0,120.0,120.0,6.0,0.0
11776,62.0,46.0,180.0,8.0,0.0
11777,70.0,74.0,120.0,6.0,0.0
11778,79.0,120.0,120.0,6.0,0.0
11779,50.0,46.0,180.0,8.0,0.0
11780,82.0,74.0,120.0,6.0,0.0
11781,79.0,120.0,120.0,6.0,0.0
11782,62.0,46.0,180.0,8.0,0.0
11783,70.0,74.0,120.0,6.0,0.0
11784,79.0,120.0,120.0,6.0,0.0
11785,50.0,46.0,180.0,8.0,0.0
11786,82.0,74.0,120.0,6.0,0.0
11787,79.0,120.0,120.0,6.0,0.0
11788,62.0,46.0,180.0,8.0,0.0
11789,70.0,74.0,120.0,6.0,0.0
11790,79.0,120.0,120.0,6.0,0.0
11791,82.0,74.0,120.0,6.0,0.0
11792,50.0,46.0,180.0,8.0,0.0
11793,79.0,120.0,120.0,6.0,0.0
11794,70.0,74.0,120.0,6.0,0.0
11795,62.0,46.0,180.0,8.0,0.0
11796,79.0,120.0,120.0,6.0,0.0
11797,50.0,46.0,180.0,8.0,0.0
11798,82.0,74.0,120.0,6.0,0.0
11799,79.0,120.0,120.0,6.0,0.0
11800,70.0,74.0,120.0,6.0,0.0
11801,62.0,46.0,180.0,8.0,0.0
11802,79.0,120.0,120.0,6.0,0.0
11803,50.0,46.0,180.0,8.0,0.0
11804,82.0,74.0,120.0,6.0,0.0
11805,79.0,120.0,120.0,6.0,0.0
11806,62.0,46.0,180.0,8.0,0.0
11807,70.0,74.0,120.0,6.0,0.0
11808,79.0,120.0,120.0,6.0,0.0
11809,82.0,74.0,120.0,6.0,0.0
11810,50.0,46.0,180.0,8.0,0.0
11811,79.0,120.0,120.0,6.0,0.0
11812,62.0,46.0,180.0,8.0,0.0
11813,70.0,74.0,120.0,6.0,0.0
11814,79.0,120.0,120.0,6.0,0.0
11815,50.0,46.0,180.0,8.0,0.0
11816,82.0,74.0,120.0,6.0,0.0
11817,79.0,120.0,120.0,6.0,0.0
11818,70.0,74.0,120.0,6.0,0.0
11819,62.0,46.0,180.0,8.0,0.0
11820,79.0,242.0,120.0,6.0,0.0
11821,79.0,192.0,240.0,6.0,0.0
11822,63.0,192.0,480.0,8.0,0.0
11823,51.0,0.0,480.0,8.0,0.0
11824,82.0,0.0,240.0,6.0,0.0
11825,82.0,48.0,180.0,6.0,0.0
11826,79.0,0.0,180.0,6.0,0.0
11827,79.0,240.0,180.0,6.0,0.0
11828,82.0,0.0,180.0,6.0,0.0
11829,79.0,0.0,180.0,6.0,0.0
11830,82.0,240.0,180.0,6.0,0.0
11831,82.0,240.0,180.0,6.0,0.0
11832,79.0,0.0,180.0,6.0,0.0
11833,79.0,240.0,180.0,6.0,0.0
11834,82.0,0.0,180.0,6.0,0.0
11835,79.0,240.0,180.0,6.0,0.0
11836,82.0,0.0,180.0,6.0,0.0
11837,82.0,0.0,180.0,6.0,0.0
11838,79.0,240.0,180.0,6.0,0.0
11839,51.0,0.0,390.0,8.0,0.0
11840,79.0,192.0,180.0,6.0,0.0
11841,82.0,0.0,180.0,6.0,0.0
11842,63.0,48.0,390.0,8.0,0.0
11843,82.0,240.0,180.0,6.0,0.0
11844,79.0,0.0,180.0,6.0,0.0
11845,82.0,240.0,180.0,6.0,0.0
11846,79.0,0.0,180.0,6.0,0.0
11847,79.0,240.0,180.0,6.0,0.0
11848,82.0,0.0,180.0,6.0,0.0
11849,79.0,0.0,180.0,6.0,0.0
11850,82.0,240.0,180.0,6.0,0.0
11851,82.0,240.0,180.0,6.0,0.0
11852,79.0,0.0,180.0,6.0,0.0
11853,82.0,240.0,180.0,6.0,0.0
11854,79.0,0.0,180.0,6.0,0.0
11855,79.0,0.0,180.0,6.0,0.0
11856,82.0,240.0,180.0,6.0,0.0
11857,82.0,240.0,180.0,6.0,0.0
11858,79.0,0.0,180.0,6.0,0.0
11859,79.0,432.0,180.0,6.0,0.0
11860,82.0,0.0,180.0,6.0,0.0
11861,63.0,288.0,390.0,8.0,0.0
11862,51.0,0.0,390.0,8.0,0.0
11863,82.0,0.0,180.0,6.0,0.0
11864,79.0,240.0,180.0,6.0,0.0
11865,82.0,432.0,180.0,6.0,0.0
11866,79.0,0.0,180.0,6.0,0.0
11867,63.0,480.0,390.0,8.0,0.0
11868,51.0,0.0,390.0,8.0,0.0
11869,79.0,480.0,390.0,6.0,0.0
11870,82.0,0.0,390.0,6.0,0.0
11871,63.0,0.0,390.0,8.0,0.0
11872,51.0,576.0,390.0,8.0,0.0
11873,58.0,480.0,480.0,8.0,0.0
11874,58.0,720.0,480.0,8.0,0.0
11875,67.0,120.0,720.0,8.0,0.0
11876,65.0,120.0,120.0,8.0,0.0
11877,63.0,480.0,120.0,8.0,0.0
11878,62.0,480.0,480.0,8.0,0.0
11879,70.0,0.0,15.0,6.0,0.0
11880,65.0,0.0,480.0,8.0,0.0
11881,63.0,336.0,390.0,8.0,0.0
11882,79.0,120.0,720.0,6.0,0.0
11883,77.0,120.0,120.0,6.0,0.0
11884,75.0,456.0,120.0,6.0,0.0
11885,74.0,456.0,480.0,6.0,0.0
11886,58.0,24.0,450.0,7.0,0.0
11887,55.0,0.0,450.0,8.0,0.0
11888,75.0,456.0,480.0,6.0,0.0
11889,58.0,0.0,450.0,8.0,0.0
11890,63.0,24.0,450.0,7.0,0.0
11891,63.0,480.0,450.0,8.0,0.0
11892,67.0,0.0,450.0,7.0,0.0
11893,70.0,0.0,450.0,7.0,0.0
11894,67.0,408.0,450.0,8.0,0.0
11895,86.0,0.0,390.0,6.0,0.0
11896,68.0,0.0,450.0,7.0,0.0
11897,65.0,408.0,450.0,8.0,0.0
11898,82.0,72.0,390.0,6.0,0.0
11899,67.0,408.0,450.0,7.0,0.0
11900,82.0,72.0,390.0,6.0,0.0
11901,87.0,0.0,390.0,6.0,0.0
11902,63.0,0.0,450.0,8.0,0.0
11903,62.0,480.0,390.0,8.0,0.0
11904,82.0,0.0,390.0,6.0,0.0
11905,65.0,0.0,390.0,7.0,0.0
11906,89.0,0.0,390.0,6.0,0.0
11907,94.0,480.0,390.0,6.0,0.0
11908,82.0,0.0,390.0,6.0,0.0
11909,72.0,480.0,390.0,6.0,0.0
11910,72.0,816.0,390.0,6.0,0.0
11911,67.0,0.0,390.0,8.0,0.0
11912,64.0,0.0,390.0,8.0,0.0
11913,80.0,48.0,720.0,6.0,0.0
11914,68.0,72.0,780.0,8.0,0.0
11915,65.0,0.0,780.0,8.0,0.0
11916,79.0,120.0,120.0,6.0,0.0
11917,77.0,384.0,120.0,6.0,0.0
11918,76.0,384.0,480.0,6.0,0.0
11919,67.0,96.0,390.0,8.0,0.0
11920,70.0,0.0,390.0,8.0,0.0
11921,79.0,384.0,480.0,6.0,0.0
11922,60.0,96.0,390.0,8.0,0.0
11923,70.0,0.0,390.0,8.0,0.0
11924,67.0,0.0,390.0,8.0,0.0
11925,68.0,120.0,720.0,8.0,0.0
11926,72.0,336.0,390.0,6.0,0.0
11927,67.0,120.0,120.0,8.0,0.0
11928,65.0,384.0,120.0,8.0,0.0
11929,79.0,96.0,390.0,7.0,0.0
11930,84.0,0.0,390.0,6.0,0.0
11931,64.0,384.0,480.0,8.0,0.0
11932,89.0,0.0,390.0,6.0,0.0
11933,65.0,384.0,480.0,8.0,0.0
11934,80.0,96.0,390.0,7.0,0.0
11935,92.0,480.0,390.0,6.0,0.0
11936,96.0,480.0,390.0,6.0,0.0
11937,87.0,288.0,390.0,6.0,0.0
11938,91.0,192.0,180.0,6.0,0.0
11939,86.0,48.0,390.0,7.0,0.0
11940,89.0,1464.0,180.0,6.0,0.0
11941,70.0,480.0,450.0,6.0,0.0
11942,70.0,184.0,450.0,6.0,0.0
11943,51.0,160.0,150.0,8.0,0.0
11944,78.0,80.0,720.0,6.0,0.0
11945,54.0,160.0,150.0,8.0,0.0
11946,58.0,160.0,150.0,8.0,0.0
11947,63.0,80.0,150.0,8.0,0.0
11948,58.0,40.0,150.0,8.0,0.0
11949,77.0,96.0,120.0,6.0,0.0
11950,54.0,160.0,150.0,8.0,0.0
11951,75.0,24.0,90.0,6.0,0.0
11952,53.0,160.0,150.0,8.0,0.0
11953,74.0,96.0,390.0,6.0,0.0
11954,56.0,64.0,150.0,8.0,0.0
11955,58.0,160.0,150.0,8.0,0.0
11956,62.0,160.0,150.0,8.0,0.0
11957,77.0,96.0,390.0,6.0,0.0
11958,58.0,64.0,150.0,8.0,0.0
11959,56.0,128.0,150.0,8.0,0.0
11960,75.0,96.0,390.0,6.0,0.0
11961,54.0,192.0,120.0,8.0,0.0
11962,58.0,64.0,150.0,8.0,0.0
11963,63.0,160.0,150.0,8.0,0.0
11964,66.0,160.0,150.0,8.0,0.0
11965,63.0,160.0,150.0,8.0,0.0
11966,58.0,160.0,150.0,8.0,0.0
11967,54.0,160.0,150.0,8.0,0.0
11968,70.0,160.0,480.0,6.0,0.0
11969,58.0,160.0,150.0,8.0,0.0
11970,63.0,0.0,150.0,8.0,0.0
11971,75.0,0.0,480.0,6.0,0.0
11972,66.0,160.0,150.0,8.0,0.0
11973,63.0,160.0,150.0,8.0,0.0
11974,58.0,160.0,150.0,8.0,0.0
11975,54.0,160.0,150.0,8.0,0.0
11976,78.0,160.0,480.0,6.0,0.0
11977,58.0,160.0,150.0,8.0,0.0
11978,63.0,0.0,150.0,8.0,0.0
11979,54.0,160.0,150.0,8.0,0.0
11980,82.0,0.0,480.0,6.0,0.0
11981,58.0,160.0,150.0,8.0,0.0
11982,61.0,160.0,150.0,8.0,0.0
11983,80.0,0.0,480.0,6.0,0.0
11984,54.0,160.0,150.0,8.0,0.0
11985,59.0,160.0,150.0,8.0,0.0
11986,61.0,160.0,150.0,8.0,0.0
11987,78.0,160.0,480.0,6.0,0.0
11988,54.0,160.0,150.0,8.0,0.0
11989,58.0,160.0,150.0,8.0,0.0
11990,61.0,0.0,150.0,8.0,0.0
11991,54.0,160.0,150.0,8.0,0.0
11992,77.0,96.0,390.0,6.0,0.0
11993,56.0,64.0,150.0,8.0,0.0
11994,59.0,160.0,150.0,8.0,0.0
11995,65.0,160.0,150.0,8.0,0.0
11996,59.0,160.0,150.0,8.0,0.0
11997,56.0,160.0,150.0,8.0,0.0
11998,54.0,160.0,150.0,8.0,0.0
11999,77.0,0.0,480.0,6.0,0.0
12000,56.0,160.0,150.0,8.0,0.0
12001,59.0,160.0,150.0,8.0,0.0
12002,80.0,160.0,480.0,6.0,0.0
12003,65.0,160.0,150.0,8.0,0.0
12004,59.0,160.0,150.0,8.0,0.0
12005,56.0,0.0,150.0,8.0,0.0
12006,54.0,160.0,150.0,8.0,0.0
12007,83.0,0.0,480.0,6.0,0.0
12008,56.0,160.0,150.0,8.0,0.0
12009,59.0,160.0,150.0,8.0,0.0
12010,65.0,160.0,150.0,8.0,0.0
12011,86.0,0.0,480.0,6.0,0.0
12012,59.0,160.0,150.0,8.0,0.0
12013,56.0,160.0,150.0,8.0,0.0
12014,85.0,160.0,480.0,6.0,0.0
12015,54.0,160.0,150.0,8.0,0.0
12016,56.0,160.0,150.0,8.0,0.0
12017,59.0,0.0,150.0,8.0,0.0
12018,65.0,160.0,150.0,8.0,0.0
12019,83.0,0.0,480.0,6.0,0.0
12020,59.0,160.0,150.0,8.0,0.0
12021,56.0,160.0,150.0,8.0,0.0
12022,54.0,160.0,150.0,8.0,0.0
12023,82.0,96.0,390.0,6.0,0.0
12024,58.0,64.0,150.0,8.0,0.0
12025,61.0,160.0,150.0,8.0,0.0
12026,64.0,160.0,150.0,8.0,0.0
12027,61.0,160.0,150.0,8.0,0.0
12028,58.0,160.0,150.0,8.0,0.0
12029,54.0,160.0,150.0,8.0,0.0
12030,82.0,160.0,480.0,6.0,0.0
12031,58.0,160.0,150.0,8.0,0.0
12032,61.0,0.0,150.0,8.0,0.0
12033,85.0,160.0,480.0,6.0,0.0
12034,64.0,160.0,150.0,8.0,0.0
12035,61.0,160.0,150.0,8.0,0.0
12036,58.0,0.0,150.0,8.0,0.0
12037,88.0,160.0,480.0,6.0,0.0
12038,54.0,160.0,150.0,8.0,0.0
12039,58.0,160.0,150.0,8.0,0.0
12040,61.0,0.0,150.0,8.0,0.0
12041,64.0,160.0,150.0,8.0,0.0
12042,91.0,0.0,480.0,6.0,0.0
12043,61.0,160.0,150.0,8.0,0.0
12044,58.0,160.0,150.0,8.0,0.0
12045,90.0,0.0,480.0,6.0,0.0
12046,54.0,160.0,150.0,8.0,0.0
12047,58.0,160.0,150.0,8.0,0.0
12048,61.0,160.0,150.0,8.0,0.0
12049,88.0,96.0,390.0,6.0,0.0
12050,64.0,160.0,150.0,8.0,0.0
12051,61.0,64.0,150.0,8.0,0.0
12052,58.0,160.0,150.0,8.0,0.0
12053,54.0,160.0,150.0,8.0,0.0
12054,58.0,160.0,150.0,8.0,0.0
12055,61.0,160.0,150.0,8.0,0.0
12056,64.0,160.0,150.0,8.0,0.0
12057,88.0,160.0,480.0,6.0,0.0
12058,79.0,0.0,480.0,6.0,0.0
12059,61.0,160.0,150.0,8.0,0.0
12060,58.0,0.0,150.0,8.0,0.0
12061,86.0,0.0,480.0,6.0,0.0
12062,78.0,160.0,480.0,6.0,0.0
12063,54.0,160.0,150.0,8.0,0.0
12064,58.0,160.0,150.0,8.0,0.0
12065,61.0,0.0,150.0,8.0,0.0
12066,64.0,160.0,150.0,8.0,0.0
12067,76.0,160.0,480.0,6.0,0.0
12068,85.0,0.0,480.0,6.0,0.0
12069,61.0,160.0,150.0,8.0,0.0
12070,58.0,0.0,150.0,8.0,0.0
12071,54.0,160.0,150.0,8.0,0.0
12072,58.0,160.0,150.0,8.0,0.0
12073,61.0,384.0,150.0,8.0,0.0
12074,76.0,480.0,480.0,6.0,0.0
12075,79.0,0.0,480.0,6.0,0.0
12076,64.0,96.0,390.0,8.0,0.0
12077,78.0,320.0,480.0,6.0,0.0
12078,74.0,0.0,480.0,6.0,0.0
12079,73.0,192.0,480.0,6.0,0.0
12080,76.0,0.0,480.0,6.0,0.0
12081,42.0,80.0,90.0,8.0,0.0
12082,44.0,80.0,90.0,8.0,0.0
12083,46.0,0.0,90.0,8.0,0.0
12084,47.0,240.0,390.0,8.0,0.0
12085,74.0,192.0,180.0,6.0,0.0
12086,71.0,0.0,180.0,6.0,0.0
12087,83.0,480.0,390.0,6.0,0.0
12088,83.0,480.0,390.0,6.0,0.0
12089,83.0,176.0,390.0,6.0,0.0
12090,42.0,80.0,90.0,8.0,0.0
12091,83.0,48.0,180.0,6.0,0.0
12092,44.0,32.0,90.0,8.0,0.0
12093,46.0,120.0,90.0,8.0,0.0
12094,47.0,96.0,390.0,8.0,0.0
12095,83.0,120.0,120.0,6.0,0.0
12096,74.0,120.0,120.0,6.0,0.0
12097,71.0,24.0,120.0,6.0,0.0
12098,74.0,120.0,120.0,6.0,0.0
12099,83.0,120.0,120.0,6.0,0.0
12100,74.0,120.0,120.0,6.0,0.0
12101,71.0,120.0,120.0,6.0,0.0
12102,74.0,120.0,120.0,6.0,0.0
12103,83.0,120.0,120.0,6.0,0.0
12104,74.0,120.0,120.0,6.0,0.0
12105,71.0,120.0,120.0,6.0,0.0
12106,74.0,120.0,120.0,6.0,0.0
12107,83.0,120.0,120.0,6.0,0.0
12108,74.0,80.0,120.0,6.0,0.0
12109,71.0,40.0,120.0,6.0,0.0
12110,42.0,40.0,90.0,8.0,0.0
12111,44.0,80.0,90.0,8.0,0.0
12112,74.0,0.0,120.0,6.0,0.0
12113,46.0,120.0,90.0,8.0,0.0
12114,83.0,120.0,120.0,6.0,0.0
12115,47.0,96.0,390.0,8.0,0.0
12116,74.0,120.0,120.0,6.0,0.0
12117,71.0,24.0,120.0,6.0,0.0
12118,74.0,120.0,120.0,6.0,0.0
12119,86.0,120.0,120.0,6.0,0.0
12120,74.0,120.0,120.0,6.0,0.0
12121,71.0,120.0,120.0,6.0,0.0
12122,74.0,120.0,120.0,6.0,0.0
12123,85.0,120.0,120.0,6.0,0.0
12124,74.0,120.0,120.0,6.0,0.0
12125,71.0,120.0,120.0,6.0,0.0
12126,74.0,120.0,120.0,6.0,0.0
12127,83.0,120.0,120.0,6.0,0.0
12128,74.0,60.0,120.0,6.0,0.0
12129,71.0,0.0,120.0,6.0,0.0
12130,42.0,60.0,60.0,8.0,0.0
12131,44.0,60.0,60.0,8.0,0.0
12132,74.0,96.0,120.0,6.0,0.0
12133,46.0,60.0,60.0,8.0,0.0
12134,47.0,0.0,60.0,8.0,0.0
12135,49.0,72.0,390.0,8.0,0.0
12136,83.0,120.0,90.0,6.0,0.0
12137,76.0,120.0,90.0,6.0,0.0
12138,71.0,48.0,90.0,6.0,0.0
12139,76.0,120.0,90.0,6.0,0.0
12140,82.0,120.0,90.0,6.0,0.0
12141,76.0,120.0,90.0,6.0,0.0
12142,70.0,120.0,90.0,6.0,0.0
12143,76.0,120.0,90.0,6.0,0.0
12144,82.0,120.0,90.0,6.0,0.0
12145,76.0,120.0,90.0,6.0,0.0
12146,70.0,120.0,90.0,6.0,0.0
12147,76.0,120.0,90.0,6.0,0.0
12148,82.0,120.0,90.0,6.0,0.0
12149,76.0,84.0,90.0,6.0,0.0
12150,70.0,24.0,90.0,6.0,0.0
12151,42.0,36.0,60.0,8.0,0.0
12152,44.0,60.0,60.0,8.0,0.0
12153,76.0,24.0,90.0,6.0,0.0
12154,46.0,36.0,60.0,8.0,0.0
12155,47.0,120.0,60.0,8.0,0.0
12156,82.0,120.0,120.0,6.0,0.0
12157,49.0,96.0,390.0,8.0,0.0
12158,76.0,120.0,120.0,6.0,0.0
12159,70.0,24.0,120.0,6.0,0.0
12160,76.0,120.0,120.0,6.0,0.0
12161,88.0,120.0,120.0,6.0,0.0
12162,78.0,120.0,120.0,6.0,0.0
12163,76.0,120.0,120.0,6.0,0.0
12164,78.0,120.0,120.0,6.0,0.0
12165,86.0,120.0,120.0,6.0,0.0
12166,78.0,120.0,120.0,6.0,0.0
12167,76.0,120.0,120.0,6.0,0.0
12168,78.0,120.0,120.0,6.0,0.0
12169,85.0,120.0,120.0,6.0,0.0
12170,78.0,60.0,120.0,6.0,0.0
12171,76.0,40.0,120.0,6.0,0.0
12172,42.0,60.0,60.0,8.0,0.0
12173,44.0,0.0,60.0,8.0,0.0
12174,46.0,40.0,30.0,8.0,0.0
12175,78.0,0.0,120.0,6.0,0.0
12176,47.0,40.0,30.0,8.0,0.0
12177,49.0,120.0,30.0,8.0,0.0
12178,85.0,72.0,120.0,6.0,0.0
12179,50.0,48.0,180.0,8.0,0.0
12180,78.0,96.0,120.0,6.0,0.0
12181,59.0,24.0,90.0,8.0,0.0
12182,71.0,96.0,120.0,6.0,0.0
12183,78.0,120.0,120.0,6.0,0.0
12184,61.0,24.0,90.0,8.0,0.0
12185,62.0,48.0,180.0,8.0,0.0
12186,83.0,72.0,120.0,6.0,0.0
12187,78.0,120.0,120.0,6.0,0.0
12188,71.0,72.0,120.0,6.0,0.0
12189,50.0,48.0,180.0,8.0,0.0
12190,78.0,120.0,120.0,6.0,0.0
12191,49.0,48.0,180.0,8.0,0.0
12192,83.0,72.0,120.0,6.0,0.0
12193,78.0,96.0,120.0,6.0,0.0
12194,71.0,96.0,120.0,6.0,0.0
12195,57.0,24.0,90.0,8.0,0.0
12196,78.0,120.0,120.0,6.0,0.0
12197,59.0,24.0,90.0,8.0,0.0
12198,81.0,72.0,120.0,6.0,0.0
12199,61.0,48.0,180.0,8.0,0.0
12200,78.0,120.0,120.0,6.0,0.0
12201,73.0,72.0,120.0,6.0,0.0
12202,49.0,48.0,180.0,8.0,0.0
12203,78.0,120.0,120.0,6.0,0.0
12204,81.0,120.0,120.0,6.0,0.0
12205,48.0,96.0,390.0,8.0,0.0
12206,78.0,120.0,120.0,6.0,0.0
12207,75.0,24.0,120.0,6.0,0.0
12208,78.0,120.0,120.0,6.0,0.0
12209,80.0,120.0,120.0,6.0,0.0
12210,60.0,96.0,390.0,8.0,0.0
12211,78.0,120.0,120.0,6.0,0.0
12212,75.0,24.0,120.0,6.0,0.0
12213,78.0,120.0,120.0,6.0,0.0
12214,60.0,96.0,390.0,8.0,0.0
12215,80.0,120.0,120.0,6.0,0.0
12216,78.0,120.0,120.0,6.0,0.0
12217,75.0,24.0,120.0,6.0,0.0
12218,78.0,120.0,120.0,6.0,0.0
12219,80.0,120.0,120.0,6.0,0.0
12220,60.0,96.0,390.0,8.0,0.0
12221,78.0,120.0,120.0,6.0,0.0
12222,75.0,24.0,120.0,6.0,0.0
12223,78.0,160.0,120.0,6.0,0.0
12224,61.0,160.0,150.0,7.0,0.0
12225,80.0,0.0,390.0,6.0,0.0
12226,77.0,96.0,390.0,6.0,0.0
12227,73.0,0.0,390.0,6.0,0.0
12228,65.0,64.0,150.0,7.0,0.0
12229,68.0,160.0,150.0,7.0,0.0
12230,73.0,24.0,450.0,6.0,0.0
12231,61.0,160.0,150.0,7.0,0.0
12232,65.0,136.0,150.0,7.0,0.0
12233,68.0,160.0,150.0,7.0,0.0
12234,85.0,24.0,450.0,6.0,0.0
12235,61.0,160.0,150.0,7.0,0.0
12236,68.0,136.0,150.0,7.0,0.0
12237,71.0,160.0,150.0,7.0,0.0
12238,77.0,24.0,450.0,6.0,0.0
12239,61.0,160.0,150.0,7.0,0.0
12240,68.0,136.0,150.0,7.0,0.0
12241,71.0,160.0,150.0,7.0,0.0
12242,61.0,160.0,150.0,7.0,0.0
12243,80.0,116.0,690.0,6.0,0.0
12244,66.0,160.0,150.0,7.0,0.0
12245,69.0,160.0,150.0,7.0,0.0
12246,61.0,44.0,150.0,7.0,0.0
12247,66.0,148.0,150.0,7.0,0.0
12248,78.0,12.0,240.0,6.0,0.0
12249,69.0,160.0,150.0,7.0,0.0
12250,78.0,48.0,900.0,6.0,0.0
12251,61.0,160.0,150.0,7.0,0.0
12252,69.0,160.0,150.0,7.0,0.0
12253,73.0,160.0,150.0,7.0,0.0
12254,61.0,160.0,150.0,7.0,0.0
12255,68.0,112.0,150.0,7.0,0.0
12256,71.0,160.0,150.0,7.0,0.0
12257,61.0,160.0,150.0,7.0,0.0
12258,66.0,160.0,150.0,7.0,0.0
12259,69.0,160.0,150.0,7.0,0.0
12260,62.0,160.0,150.0,7.0,0.0
12261,78.0,24.0,450.0,6.0,0.0
12262,66.0,136.0,150.0,7.0,0.0
12263,69.0,160.0,150.0,7.0,0.0
12264,90.0,24.0,450.0,6.0,0.0
12265,62.0,160.0,150.0,7.0,0.0
12266,66.0,136.0,150.0,7.0,0.0
12267,69.0,160.0,150.0,7.0,0.0
12268,88.0,92.0,240.0,6.0,0.0
12269,62.0,68.0,150.0,7.0,0.0
12270,66.0,148.0,150.0,7.0,0.0
12271,86.0,12.0,240.0,6.0,0.0
12272,69.0,160.0,150.0,7.0,0.0
12273,62.0,160.0,150.0,7.0,0.0
12274,85.0,116.0,690.0,6.0,0.0
12275,66.0,160.0,150.0,7.0,0.0
12276,71.0,160.0,150.0,7.0,0.0
12277,62.0,44.0,150.0,7.0,0.0
12278,66.0,148.0,150.0,7.0,0.0
12279,83.0,12.0,240.0,6.0,0.0
12280,71.0,160.0,150.0,7.0,0.0
12281,65.0,160.0,150.0,7.0,0.0
12282,83.0,48.0,900.0,6.0,0.0
12283,66.0,160.0,150.0,7.0,0.0
12284,74.0,160.0,150.0,7.0,0.0
12285,64.0,160.0,150.0,7.0,0.0
12286,66.0,112.0,150.0,7.0,0.0
12287,74.0,160.0,150.0,7.0,0.0
12288,62.0,160.0,150.0,7.0,0.0
12289,66.0,160.0,150.0,7.0,0.0
12290,71.0,160.0,150.0,7.0,0.0
12291,62.0,160.0,150.0,7.0,0.0
12292,83.0,0.0,480.0,6.0,0.0
12293,66.0,160.0,150.0,7.0,0.0
12294,71.0,160.0,150.0,7.0,0.0
12295,62.0,160.0,150.0,7.0,0.0
12296,85.0,120.0,360.0,6.0,0.0
12297,66.0,40.0,150.0,7.0,0.0
12298,71.0,160.0,150.0,7.0,0.0
12299,83.0,0.0,120.0,6.0,0.0
12300,81.0,80.0,240.0,6.0,0.0
12301,62.0,80.0,150.0,7.0,0.0
12302,66.0,112.0,150.0,7.0,0.0
12303,80.0,48.0,180.0,6.0,0.0
12304,71.0,160.0,150.0,7.0,0.0
12305,61.0,160.0,150.0,7.0,0.0
12306,78.0,24.0,450.0,6.0,0.0
12307,68.0,136.0,150.0,7.0,0.0
12308,71.0,160.0,150.0,7.0,0.0
12309,61.0,160.0,150.0,7.0,0.0
12310,77.0,24.0,450.0,6.0,0.0
12311,68.0,136.0,150.0,7.0,0.0
12312,71.0,160.0,150.0,7.0,0.0
12313,74.0,156.0,1200.0,6.0,0.0
12314,61.0,160.0,150.0,7.0,0.0
12315,68.0,160.0,150.0,7.0,0.0
12316,71.0,160.0,150.0,7.0,0.0
12317,61.0,160.0,150.0,7.0,0.0
12318,68.0,160.0,150.0,7.0,0.0
12319,71.0,228.0,150.0,7.0,0.0
12320,65.0,0.0,390.0,7.0,0.0
12321,68.0,0.0,390.0,7.0,0.0
12322,61.0,84.0,390.0,7.0,0.0
12323,73.0,240.0,240.0,6.0,0.0
12324,80.0,240.0,240.0,6.0,0.0
12325,77.0,240.0,240.0,6.0,0.0
12326,83.0,240.0,240.0,6.0,0.0
12327,80.0,240.0,240.0,6.0,0.0
12328,86.0,240.0,240.0,6.0,0.0
12329,85.0,480.0,240.0,6.0,0.0
12330,73.0,240.0,240.0,6.0,0.0
12331,80.0,240.0,240.0,6.0,0.0
12332,77.0,240.0,240.0,6.0,0.0
12333,83.0,240.0,240.0,6.0,0.0
12334,80.0,240.0,240.0,6.0,0.0
12335,86.0,240.0,240.0,6.0,0.0
12336,85.0,228.0,240.0,6.0,0.0
12337,73.0,120.0,90.0,6.0,0.0
12338,61.0,0.0,90.0,7.0,0.0
12339,68.0,120.0,90.0,7.0,0.0
12340,80.0,0.0,90.0,6.0,0.0
12341,65.0,0.0,90.0,7.0,0.0
12342,77.0,120.0,90.0,6.0,0.0
12343,83.0,120.0,90.0,6.0,0.0
12344,71.0,0.0,90.0,7.0,0.0
12345,80.0,120.0,90.0,6.0,0.0
12346,68.0,0.0,90.0,7.0,0.0
12347,86.0,0.0,90.0,6.0,0.0
12348,74.0,120.0,90.0,7.0,0.0
12349,85.0,0.0,90.0,6.0,0.0
12350,73.0,120.0,90.0,7.0,0.0
12351,71.0,0.0,90.0,7.0,0.0
12352,83.0,120.0,90.0,6.0,0.0
12353,81.0,120.0,90.0,6.0,0.0
12354,69.0,0.0,90.0,7.0,0.0
12355,68.0,120.0,90.0,7.0,0.0
12356,80.0,0.0,90.0,6.0,0.0
12357,66.0,0.0,90.0,7.0,0.0
12358,78.0,120.0,90.0,6.0,0.0
12359,65.0,0.0,90.0,7.0,0.0
12360,77.0,120.0,90.0,6.0,0.0
12361,62.0,0.0,90.0,7.0,0.0
12362,74.0,120.0,90.0,6.0,0.0
12363,61.0,120.0,90.0,7.0,0.0
12364,73.0,0.0,90.0,6.0,0.0
12365,71.0,120.0,90.0,6.0,0.0
12366,59.0,0.0,90.0,7.0,0.0
12367,57.0,120.0,90.0,8.0,0.0
12368,69.0,0.0,90.0,7.0,0.0
12369,56.0,0.0,90.0,8.0,0.0
12370,68.0,120.0,90.0,7.0,0.0
12371,54.0,120.0,90.0,8.0,0.0
12372,66.0,0.0,90.0,7.0,0.0
12373,65.0,120.0,90.0,7.0,0.0
12374,53.0,0.0,90.0,8.0,0.0
12375,50.0,0.0,90.0,8.0,0.0
12376,62.0,120.0,90.0,7.0,0.0
12377,49.0,0.0,90.0,8.0,0.0
12378,61.0,120.0,90.0,7.0,0.0
12379,59.0,120.0,90.0,7.0,0.0
12380,47.0,0.0,90.0,8.0,0.0
12381,45.0,120.0,90.0,8.0,0.0
12382,57.0,0.0,90.0,7.0,0.0
12383,56.0,120.0,90.0,7.0,0.0
12384,44.0,0.0,90.0,8.0,0.0
12385,54.0,0.0,90.0,7.0,0.0
12386,42.0,120.0,90.0,8.0,0.0
12387,53.0,0.0,90.0,7.0,0.0
12388,41.0,120.0,90.0,8.0,0.0
12389,50.0,120.0,90.0,7.0,0.0
12390,38.0,0.0,90.0,8.0,0.0
12391,49.0,0.0,90.0,7.0,0.0
12392,37.0,120.0,90.0,8.0,0.0
12393,41.0,0.0,90.0,8.0,0.0
12394,53.0,120.0,90.0,7.0,0.0
12395,54.0,120.0,90.0,7.0,0.0
12396,42.0,0.0,90.0,8.0,0.0
12397,56.0,120.0,90.0,7.0,0.0
12398,44.0,0.0,90.0,8.0,0.0
12399,45.0,120.0,90.0,8.0,0.0
12400,57.0,0.0,90.0,7.0,0.0
12401,41.0,120.0,90.0,8.0,0.0
12402,53.0,0.0,90.0,7.0,0.0
12403,54.0,120.0,90.0,7.0,0.0
12404,42.0,0.0,90.0,8.0,0.0
12405,56.0,120.0,90.0,7.0,0.0
12406,44.0,0.0,90.0,8.0,0.0
12407,45.0,0.0,90.0,8.0,0.0
12408,57.0,120.0,90.0,7.0,0.0
12409,59.0,120.0,90.0,7.0,0.0
12410,47.0,0.0,90.0,8.0,0.0
12411,49.0,0.0,90.0,8.0,0.0
12412,61.0,120.0,90.0,7.0,0.0
12413,56.0,120.0,90.0,7.0,0.0
12414,44.0,0.0,90.0,8.0,0.0
12415,45.0,0.0,90.0,8.0,0.0
12416,57.0,120.0,90.0,7.0,0.0
12417,49.0,0.0,90.0,8.0,0.0
12418,61.0,120.0,90.0,7.0,0.0
12419,63.0,0.0,90.0,7.0,0.0
12420,51.0,120.0,90.0,8.0,0.0
12421,53.0,120.0,90.0,8.0,0.0
12422,65.0,0.0,90.0,7.0,0.0
12423,66.0,120.0,90.0,7.0,0.0
12424,54.0,0.0,90.0,8.0,0.0
12425,68.0,120.0,90.0,7.0,0.0
12426,56.0,0.0,90.0,8.0,0.0
12427,69.0,0.0,90.0,7.0,0.0
12428,57.0,120.0,90.0,8.0,0.0
12429,65.0,120.0,90.0,7.0,0.0
12430,53.0,0.0,90.0,8.0,0.0
12431,54.0,0.0,90.0,8.0,0.0
12432,66.0,120.0,90.0,7.0,0.0
12433,56.0,0.0,90.0,8.0,0.0
12434,68.0,120.0,90.0,7.0,0.0
12435,57.0,0.0,90.0,8.0,0.0
12436,69.0,120.0,90.0,7.0,0.0
12437,59.0,120.0,90.0,8.0,0.0
12438,71.0,0.0,90.0,7.0,0.0
12439,61.0,0.0,90.0,8.0,0.0
12440,73.0,120.0,90.0,7.0,0.0
12441,68.0,0.0,90.0,7.0,0.0
12442,56.0,120.0,90.0,8.0,0.0
12443,69.0,0.0,90.0,7.0,0.0
12444,57.0,120.0,90.0,8.0,0.0
12445,71.0,0.0,90.0,7.0,0.0
12446,59.0,120.0,90.0,8.0,0.0
12447,73.0,0.0,90.0,7.0,0.0
12448,61.0,120.0,90.0,8.0,0.0
12449,62.0,0.0,90.0,8.0,0.0
12450,74.0,120.0,90.0,7.0,0.0
12451,75.0,120.0,90.0,7.0,0.0
12452,63.0,0.0,90.0,8.0,0.0
12453,64.0,0.0,90.0,8.0,0.0
12454,76.0,120.0,90.0,7.0,0.0
12455,65.0,0.0,90.0,8.0,0.0
12456,77.0,120.0,90.0,7.0,0.0
12457,66.0,120.0,90.0,8.0,0.0
12458,78.0,0.0,90.0,7.0,0.0
12459,79.0,0.0,90.0,7.0,0.0
12460,67.0,120.0,90.0,8.0,0.0
12461,80.0,120.0,90.0,7.0,0.0
12462,68.0,0.0,90.0,8.0,0.0
12463,69.0,120.0,90.0,7.0,0.0
12464,81.0,0.0,90.0,6.0,0.0
12465,70.0,120.0,90.0,7.0,0.0
12466,82.0,0.0,90.0,6.0,0.0
12467,83.0,0.0,90.0,6.0,0.0
12468,71.0,120.0,90.0,7.0,0.0
12469,84.0,0.0,90.0,6.0,0.0
12470,72.0,120.0,90.0,7.0,0.0
12471,73.0,120.0,90.0,7.0,0.0
12472,85.0,0.0,90.0,6.0,0.0
12473,74.0,120.0,90.0,7.0,0.0
12474,86.0,0.0,90.0,6.0,0.0
12475,75.0,0.0,90.0,7.0,0.0
12476,87.0,120.0,90.0,6.0,0.0
12477,88.0,120.0,90.0,6.0,0.0
12478,76.0,0.0,90.0,7.0,0.0
12479,77.0,0.0,90.0,7.0,0.0
12480,89.0,120.0,90.0,6.0,0.0
12481,90.0,120.0,90.0,6.0,0.0
12482,78.0,0.0,90.0,7.0,0.0
12483,79.0,0.0,90.0,7.0,0.0
12484,91.0,120.0,90.0,6.0,0.0
12485,80.0,120.0,90.0,7.0,0.0
12486,92.0,0.0,90.0,6.0,0.0
12487,81.0,0.0,90.0,7.0,0.0
12488,93.0,120.0,90.0,6.0,0.0
12489,82.0,0.0,90.0,7.0,0.0
12490,94.0,120.0,90.0,6.0,0.0
12491,83.0,120.0,90.0,7.0,0.0
12492,95.0,0.0,90.0,6.0,0.0
12493,96.0,0.0,90.0,6.0,0.0
12494,84.0,152.0,90.0,7.0,0.0
12495,97.0,160.0,120.0,6.0,0.0
12496,85.0,0.0,120.0,7.0,0.0
12497,86.0,0.0,120.0,7.0,0.0
12498,98.0,160.0,120.0,6.0,0.0
12499,87.0,0.0,120.0,7.0,0.0
12500,99.0,160.0,120.0,6.0,0.0
12501,88.0,0.0,120.0,7.0,0.0
12502,100.0,160.0,120.0,6.0,0.0
12503,101.0,160.0,120.0,6.0,0.0
12504,89.0,0.0,120.0,7.0,0.0
12505,90.0,224.0,120.0,7.0,0.0
12506,102.0,0.0,120.0,6.0,0.0
12507,103.0,0.0,180.0,6.0,0.0
12508,91.0,240.0,180.0,7.0,0.0
12509,104.0,240.0,180.0,6.0,0.0
12510,92.0,0.0,180.0,7.0,0.0
12511,105.0,240.0,180.0,6.0,0.0
12512,93.0,0.0,180.0,7.0,0.0
12513,50.0,432.0,180.0,7.0,0.0
12514,62.0,0.0,180.0,7.0,0.0
12515,50.0,0.0,390.0,7.0,0.0
12516,62.0,576.0,390.0,6.0,0.0
12517,55.0,0.0,480.0,8.0,0.0
12518,43.0,0.0,480.0,8.0,0.0
12519,71.0,480.0,480.0,6.0,0.0
12520,62.0,0.0,480.0,7.0,0.0
12521,49.0,0.0,480.0,8.0,0.0
12522,53.0,0.0,480.0,8.0,0.0
12523,68.0,0.0,480.0,6.0,0.0
12524,69.0,0.0,480.0,6.0,0.0
12525,54.0,0.0,480.0,8.0,0.0
12526,42.0,384.0,480.0,8.0,0.0
12527,61.0,480.0,15.0,7.0,0.0
12528,62.0,0.0,390.0,8.0,0.0
12529,74.0,480.0,390.0,6.0,0.0
12530,83.0,0.0,480.0,6.0,0.0
12531,55.0,480.0,480.0,8.0,0.0
12532,74.0,96.0,390.0,7.0,0.0
12533,67.0,0.0,480.0,8.0,0.0
12534,61.0,0.0,480.0,8.0,0.0
12535,65.0,480.0,480.0,8.0,0.0
12536,80.0,0.0,480.0,6.0,0.0
12537,73.0,0.0,15.0,7.0,0.0
12538,54.0,0.0,480.0,8.0,0.0
12539,66.0,384.0,480.0,8.0,0.0
12540,81.0,0.0,480.0,6.0,0.0
12541,74.0,480.0,390.0,7.0,0.0
12542,86.0,0.0,390.0,6.0,0.0
12543,95.0,0.0,390.0,6.0,0.0
12544,67.0,0.0,390.0,7.0,0.0
12545,86.0,0.0,390.0,6.0,0.0
12546,79.0,216.0,390.0,7.0,0.0
12547,83.0,0.0,240.0,7.0,0.0
12548,80.0,0.0,240.0,7.0,0.0
12549,77.0,0.0,240.0,7.0,0.0
12550,73.0,120.0,240.0,7.0,0.0
12551,95.0,120.0,120.0,6.0,0.0
12552,93.0,0.0,120.0,6.0,0.0
12553,93.0,120.0,120.0,6.0,0.0
12554,90.0,120.0,120.0,6.0,0.0
12555,88.0,120.0,120.0,6.0,0.0
12556,86.0,120.0,120.0,6.0,0.0
12557,85.0,120.0,120.0,6.0,0.0
12558,83.0,120.0,120.0,6.0,0.0
12559,81.0,120.0,120.0,6.0,0.0
12560,80.0,120.0,120.0,6.0,0.0
12561,78.0,120.0,120.0,6.0,0.0
12562,77.0,120.0,120.0,6.0,0.0
12563,74.0,120.0,120.0,6.0,0.0
12564,73.0,120.0,120.0,6.0,0.0
12565,71.0,120.0,120.0,6.0,0.0
12566,69.0,120.0,120.0,6.0,0.0
12567,68.0,120.0,120.0,6.0,0.0
12568,66.0,120.0,120.0,6.0,0.0
12569,65.0,120.0,120.0,6.0,0.0
12570,62.0,120.0,120.0,6.0,0.0
12571,61.0,120.0,120.0,7.0,0.0
12572,59.0,120.0,120.0,7.0,0.0
12573,57.0,120.0,120.0,7.0,0.0
12574,56.0,120.0,120.0,7.0,0.0
12575,54.0,120.0,120.0,7.0,0.0
12576,53.0,120.0,120.0,7.0,0.0
12577,50.0,120.0,120.0,7.0,0.0
12578,49.0,120.0,120.0,7.0,0.0
12579,50.0,120.0,120.0,7.0,0.0
12580,51.0,120.0,120.0,7.0,0.0
12581,52.0,120.0,120.0,7.0,0.0
12582,53.0,120.0,120.0,7.0,0.0
12583,54.0,120.0,120.0,7.0,0.0
12584,55.0,120.0,120.0,7.0,0.0
12585,56.0,120.0,120.0,7.0,0.0
12586,57.0,120.0,120.0,7.0,0.0
12587,58.0,120.0,120.0,7.0,0.0
12588,59.0,120.0,120.0,7.0,0.0
12589,60.0,120.0,120.0,7.0,0.0
12590,61.0,120.0,120.0,7.0,0.0
12591,62.0,120.0,120.0,7.0,0.0
12592,63.0,120.0,120.0,7.0,0.0
12593,64.0,120.0,120.0,7.0,0.0
12594,65.0,120.0,120.0,7.0,0.0
12595,66.0,120.0,120.0,7.0,0.0
12596,67.0,120.0,120.0,7.0,0.0
12597,68.0,120.0,120.0,7.0,0.0
12598,69.0,120.0,120.0,7.0,0.0
12599,70.0,120.0,120.0,6.0,0.0
12600,71.0,120.0,120.0,6.0,0.0
12601,72.0,120.0,120.0,6.0,0.0
12602,73.0,120.0,120.0,6.0,0.0
12603,74.0,120.0,120.0,6.0,0.0
12604,75.0,120.0,120.0,6.0,0.0
12605,76.0,120.0,120.0,6.0,0.0
12606,77.0,120.0,120.0,6.0,0.0
12607,78.0,120.0,120.0,6.0,0.0
12608,79.0,120.0,120.0,6.0,0.0
12609,80.0,120.0,120.0,6.0,0.0
12610,81.0,120.0,120.0,6.0,0.0
12611,82.0,120.0,120.0,6.0,0.0
12612,83.0,120.0,120.0,6.0,0.0
12613,84.0,120.0,120.0,6.0,0.0
12614,85.0,160.0,120.0,6.0,0.0
12615,86.0,160.0,150.0,6.0,0.0
12616,87.0,160.0,150.0,6.0,0.0
12617,88.0,60.0,150.0,6.0,0.0
12618,90.0,60.0,60.0,6.0,0.0
12619,89.0,60.0,60.0,6.0,0.0
12620,90.0,60.0,60.0,6.0,0.0
12621,89.0,60.0,60.0,6.0,0.0
12622,90.0,4.0,60.0,6.0,0.0
12623,44.0,56.0,60.0,8.0,0.0
12624,89.0,24.0,60.0,6.0,0.0
12625,46.0,36.0,60.0,8.0,0.0
12626,90.0,44.0,60.0,6.0,0.0
12627,48.0,16.0,60.0,8.0,0.0
12628,89.0,60.0,60.0,6.0,0.0
12629,90.0,60.0,60.0,6.0,0.0
12630,49.0,48.0,180.0,8.0,0.0
12631,89.0,60.0,60.0,6.0,0.0
12632,90.0,12.0,60.0,6.0,0.0
12633,89.0,60.0,60.0,6.0,0.0
12634,90.0,4.0,60.0,6.0,0.0
12635,56.0,56.0,60.0,8.0,0.0
12636,89.0,24.0,60.0,6.0,0.0
12637,58.0,36.0,60.0,8.0,0.0
12638,90.0,44.0,60.0,6.0,0.0
12639,60.0,16.0,60.0,8.0,0.0
12640,89.0,60.0,60.0,6.0,0.0
12641,90.0,60.0,60.0,6.0,0.0
12642,61.0,48.0,180.0,8.0,0.0
12643,89.0,60.0,60.0,6.0,0.0
12644,90.0,12.0,60.0,6.0,0.0
12645,89.0,60.0,60.0,6.0,0.0
12646,90.0,4.0,60.0,6.0,0.0
12647,68.0,56.0,60.0,7.0,0.0
12648,89.0,24.0,60.0,6.0,0.0
12649,70.0,36.0,60.0,7.0,0.0
12650,90.0,44.0,60.0,6.0,0.0
12651,72.0,16.0,60.0,7.0,0.0
12652,89.0,60.0,60.0,6.0,0.0
12653,90.0,60.0,60.0,6.0,0.0
12654,73.0,48.0,180.0,7.0,0.0
12655,89.0,60.0,60.0,6.0,0.0
12656,90.0,12.0,60.0,6.0,0.0
12657,89.0,60.0,60.0,6.0,0.0
12658,80.0,56.0,60.0,7.0,0.0
12659,90.0,4.0,60.0,6.0,0.0
12660,89.0,24.0,60.0,6.0,0.0
12661,82.0,36.0,60.0,7.0,0.0
12662,90.0,44.0,60.0,6.0,0.0
12663,84.0,16.0,60.0,7.0,0.0
12664,89.0,60.0,60.0,6.0,0.0
12665,85.0,48.0,180.0,7.0,0.0
12666,90.0,60.0,60.0,6.0,0.0
12667,89.0,60.0,60.0,6.0,0.0
12668,90.0,12.0,60.0,6.0,0.0
12669,89.0,60.0,60.0,6.0,0.0
12670,80.0,24.0,90.0,7.0,0.0
12671,90.0,36.0,60.0,6.0,0.0
12672,89.0,60.0,60.0,6.0,0.0
12673,81.0,24.0,90.0,7.0,0.0
12674,90.0,36.0,60.0,6.0,0.0
12675,89.0,60.0,60.0,6.0,0.0
12676,90.0,60.0,60.0,6.0,0.0
12677,83.0,48.0,180.0,7.0,0.0
12678,89.0,60.0,60.0,6.0,0.0
12679,90.0,12.0,60.0,6.0,0.0
12680,89.0,60.0,60.0,6.0,0.0
12681,90.0,36.0,60.0,6.0,0.0
12682,77.0,24.0,90.0,7.0,0.0
12683,89.0,60.0,60.0,6.0,0.0
12684,90.0,36.0,60.0,6.0,0.0
12685,78.0,24.0,90.0,7.0,0.0
12686,89.0,60.0,60.0,6.0,0.0
12687,80.0,48.0,180.0,7.0,0.0
12688,90.0,60.0,60.0,6.0,0.0
12689,89.0,60.0,60.0,6.0,0.0
12690,90.0,12.0,60.0,6.0,0.0
12691,89.0,60.0,60.0,6.0,0.0
12692,71.0,24.0,90.0,7.0,0.0
12693,90.0,36.0,60.0,6.0,0.0
12694,89.0,60.0,60.0,6.0,0.0
12695,90.0,36.0,60.0,6.0,0.0
12696,73.0,24.0,90.0,7.0,0.0
12697,89.0,60.0,60.0,6.0,0.0
12698,90.0,60.0,60.0,6.0,0.0
12699,74.0,48.0,180.0,7.0,0.0
12700,89.0,60.0,60.0,6.0,0.0
12701,90.0,12.0,60.0,6.0,0.0
12702,89.0,60.0,60.0,6.0,0.0
12703,68.0,24.0,90.0,7.0,0.0
12704,90.0,36.0,60.0,6.0,0.0
12705,89.0,60.0,60.0,6.0,0.0
12706,90.0,36.0,60.0,6.0,0.0
12707,69.0,24.0,90.0,7.0,0.0
12708,89.0,60.0,60.0,6.0,0.0
12709,90.0,60.0,60.0,6.0,0.0
12710,71.0,48.0,180.0,7.0,0.0
12711,89.0,60.0,60.0,6.0,0.0
12712,90.0,12.0,60.0,6.0,0.0
12713,89.0,60.0,60.0,6.0,0.0
12714,90.0,36.0,60.0,6.0,0.0
12715,44.0,24.0,90.0,8.0,0.0
12716,89.0,60.0,60.0,6.0,0.0
12717,90.0,36.0,60.0,6.0,0.0
12718,45.0,24.0,90.0,8.0,0.0
12719,89.0,60.0,60.0,6.0,0.0
12720,47.0,48.0,180.0,8.0,0.0
12721,90.0,60.0,60.0,6.0,0.0
12722,89.0,60.0,60.0,6.0,0.0
12723,90.0,12.0,60.0,6.0,0.0
12724,89.0,60.0,60.0,6.0,0.0
12725,90.0,36.0,60.0,6.0,0.0
12726,56.0,24.0,90.0,8.0,0.0
12727,89.0,60.0,60.0,6.0,0.0
12728,90.0,36.0,60.0,6.0,0.0
12729,57.0,24.0,90.0,8.0,0.0
12730,89.0,60.0,60.0,6.0,0.0
12731,59.0,48.0,180.0,8.0,0.0
12732,90.0,60.0,60.0,6.0,0.0
12733,89.0,60.0,60.0,6.0,0.0
12734,90.0,12.0,60.0,6.0,0.0
12735,89.0,60.0,60.0,6.0,0.0
12736,65.0,24.0,90.0,7.0,0.0
12737,90.0,36.0,60.0,6.0,0.0
12738,89.0,60.0,60.0,6.0,0.0
12739,66.0,24.0,90.0,7.0,0.0
12740,90.0,36.0,60.0,6.0,0.0
12741,89.0,60.0,60.0,6.0,0.0
12742,90.0,60.0,60.0,6.0,0.0
12743,68.0,48.0,180.0,7.0,0.0
12744,89.0,60.0,60.0,6.0,0.0
12745,90.0,12.0,60.0,6.0,0.0
12746,89.0,60.0,60.0,6.0,0.0
12747,90.0,36.0,60.0,6.0,0.0
12748,77.0,24.0,90.0,7.0,0.0
12749,89.0,60.0,60.0,6.0,0.0
12750,78.0,24.0,90.0,7.0,0.0
12751,90.0,36.0,60.0,6.0,0.0
12752,89.0,60.0,60.0,6.0,0.0
12753,90.0,60.0,60.0,6.0,0.0
12754,81.0,0.0,60.0,7.0,0.0
12755,89.0,0.0,60.0,6.0,0.0
12756,80.0,60.0,60.0,7.0,0.0
12757,81.0,60.0,60.0,7.0,0.0
12758,90.0,0.0,60.0,6.0,0.0
12759,89.0,0.0,60.0,6.0,0.0
12760,80.0,60.0,60.0,7.0,0.0
12761,90.0,0.0,60.0,6.0,0.0
12762,81.0,60.0,60.0,7.0,0.0
12763,89.0,60.0,60.0,6.0,0.0
12764,80.0,0.0,60.0,7.0,0.0
12765,90.0,0.0,60.0,6.0,0.0
12766,81.0,60.0,60.0,7.0,0.0
12767,89.0,60.0,60.0,6.0,0.0
12768,80.0,0.0,60.0,7.0,0.0
12769,90.0,60.0,60.0,6.0,0.0
12770,81.0,0.0,60.0,7.0,0.0
12771,80.0,0.0,60.0,7.0,0.0
12772,89.0,60.0,60.0,6.0,0.0
12773,81.0,0.0,60.0,7.0,0.0
12774,90.0,60.0,60.0,6.0,0.0
12775,89.0,0.0,60.0,6.0,0.0
12776,80.0,60.0,60.0,7.0,0.0
12777,90.0,60.0,60.0,6.0,0.0
12778,81.0,0.0,60.0,7.0,0.0
12779,80.0,0.0,60.0,7.0,0.0
12780,89.0,60.0,60.0,6.0,0.0
12781,81.0,60.0,60.0,7.0,0.0
12782,90.0,0.0,60.0,6.0,0.0
12783,80.0,60.0,60.0,7.0,0.0
12784,89.0,0.0,60.0,6.0,0.0
12785,90.0,0.0,60.0,7.0,0.0
12786,93.0,60.0,60.0,6.0,0.0
12787,92.0,60.0,60.0,6.0,0.0
12788,89.0,0.0,60.0,7.0,0.0
12789,90.0,0.0,60.0,7.0,0.0
12790,93.0,60.0,60.0,6.0,0.0
12791,92.0,0.0,60.0,6.0,0.0
12792,89.0,60.0,60.0,7.0,0.0
12793,93.0,0.0,60.0,6.0,0.0
12794,90.0,60.0,60.0,7.0,0.0
12795,89.0,60.0,60.0,7.0,0.0
12796,92.0,0.0,60.0,6.0,0.0
12797,90.0,60.0,60.0,7.0,0.0
12798,93.0,0.0,60.0,6.0,0.0
12799,89.0,0.0,60.0,7.0,0.0
12800,92.0,60.0,60.0,6.0,0.0
12801,93.0,0.0,60.0,6.0,0.0
12802,90.0,60.0,60.0,7.0,0.0
12803,92.0,60.0,60.0,6.0,0.0
12804,89.0,0.0,60.0,7.0,0.0
12805,90.0,0.0,60.0,7.0,0.0
12806,93.0,60.0,60.0,6.0,0.0
12807,89.0,60.0,60.0,7.0,0.0
12808,92.0,0.0,60.0,6.0,0.0
12809,93.0,60.0,60.0,6.0,0.0
12810,90.0,0.0,60.0,7.0,0.0
12811,92.0,0.0,60.0,6.0,0.0
12812,89.0,60.0,60.0,7.0,0.0
12813,93.0,0.0,60.0,6.0,0.0
12814,90.0,60.0,60.0,7.0,0.0
12815,92.0,120.0,60.0,6.0,0.0
12816,89.0,0.0,60.0,7.0,0.0
12817,81.0,120.0,120.0,6.0,0.0
12818,80.0,60.0,120.0,6.0,0.0
12819,81.0,60.0,60.0,6.0,0.0
12820,80.0,60.0,60.0,6.0,0.0
12821,81.0,60.0,60.0,6.0,0.0
12822,80.0,60.0,60.0,6.0,0.0
12823,61.0,36.0,390.0,7.0,0.0
12824,81.0,60.0,60.0,6.0,0.0
12825,80.0,60.0,60.0,6.0,0.0
12826,81.0,60.0,60.0,6.0,0.0
12827,80.0,60.0,60.0,6.0,0.0
12828,81.0,60.0,60.0,6.0,0.0
12829,80.0,24.0,60.0,6.0,0.0
12830,81.0,60.0,60.0,6.0,0.0
12831,80.0,60.0,60.0,6.0,0.0
12832,81.0,60.0,60.0,6.0,0.0
12833,73.0,36.0,390.0,7.0,0.0
12834,80.0,60.0,60.0,6.0,0.0
12835,81.0,60.0,60.0,6.0,0.0
12836,80.0,60.0,60.0,6.0,0.0
12837,81.0,60.0,60.0,6.0,0.0
12838,80.0,24.0,60.0,6.0,0.0
12839,81.0,60.0,60.0,6.0,0.0
12840,80.0,60.0,60.0,6.0,0.0
12841,65.0,36.0,390.0,7.0,0.0
12842,81.0,60.0,60.0,6.0,0.0
12843,80.0,60.0,60.0,6.0,0.0
12844,81.0,60.0,60.0,6.0,0.0
12845,80.0,60.0,60.0,6.0,0.0
12846,81.0,60.0,60.0,6.0,0.0
12847,80.0,24.0,60.0,6.0,0.0
12848,81.0,60.0,60.0,6.0,0.0
12849,80.0,60.0,60.0,6.0,0.0
12850,81.0,60.0,60.0,6.0,0.0
12851,80.0,60.0,60.0,6.0,0.0
12852,81.0,60.0,60.0,6.0,0.0
12853,80.0,60.0,60.0,6.0,0.0
12854,81.0,60.0,60.0,6.0,0.0
12855,80.0,60.0,60.0,6.0,0.0
12856,81.0,60.0,60.0,6.0,0.0
12857,80.0,60.0,60.0,6.0,0.0
12858,61.0,36.0,390.0,7.0,0.0
12859,81.0,60.0,60.0,6.0,0.0
12860,80.0,60.0,60.0,6.0,0.0
12861,81.0,60.0,60.0,6.0,0.0
12862,80.0,60.0,60.0,6.0,0.0
12863,81.0,60.0,60.0,6.0,0.0
12864,80.0,24.0,60.0,6.0,0.0
12865,81.0,60.0,60.0,6.0,0.0
12866,80.0,60.0,60.0,6.0,0.0
12867,74.0,36.0,390.0,7.0,0.0
12868,81.0,60.0,60.0,6.0,0.0
12869,80.0,60.0,60.0,6.0,0.0
12870,81.0,60.0,60.0,6.0,0.0
12871,80.0,60.0,60.0,6.0,0.0
12872,81.0,60.0,60.0,6.0,0.0
12873,80.0,24.0,60.0,6.0,0.0
12874,81.0,60.0,60.0,6.0,0.0
12875,80.0,60.0,60.0,6.0,0.0
12876,81.0,60.0,60.0,6.0,0.0
12877,65.0,36.0,390.0,7.0,0.0
12878,80.0,60.0,60.0,6.0,0.0
12879,81.0,60.0,60.0,6.0,0.0
12880,80.0,60.0,60.0,6.0,0.0
12881,81.0,60.0,60.0,6.0,0.0
12882,80.0,24.0,60.0,6.0,0.0
12883,81.0,60.0,60.0,6.0,0.0
12884,80.0,60.0,60.0,6.0,0.0
12885,81.0,60.0,60.0,6.0,0.0
12886,80.0,60.0,60.0,6.0,0.0
12887,81.0,60.0,60.0,6.0,0.0
12888,80.0,60.0,60.0,6.0,0.0
12889,81.0,60.0,60.0,6.0,0.0
12890,80.0,60.0,60.0,6.0,0.0
12891,81.0,60.0,60.0,6.0,0.0
12892,80.0,60.0,60.0,6.0,0.0
12893,81.0,60.0,60.0,6.0,0.0
12894,61.0,36.0,390.0,7.0,0.0
12895,80.0,60.0,60.0,6.0,0.0
12896,81.0,60.0,60.0,6.0,0.0
12897,80.0,60.0,60.0,6.0,0.0
12898,81.0,60.0,60.0,6.0,0.0
12899,80.0,24.0,60.0,6.0,0.0
12900,81.0,60.0,60.0,6.0,0.0
12901,80.0,60.0,60.0,6.0,0.0
12902,81.0,60.0,60.0,6.0,0.0
12903,77.0,36.0,390.0,7.0,0.0
12904,80.0,60.0,60.0,6.0,0.0
12905,81.0,60.0,60.0,6.0,0.0
12906,80.0,60.0,60.0,6.0,0.0
12907,81.0,60.0,60.0,6.0,0.0
12908,80.0,24.0,60.0,6.0,0.0
12909,81.0,60.0,60.0,6.0,0.0
12910,80.0,60.0,60.0,6.0,0.0
12911,81.0,60.0,60.0,6.0,0.0
12912,89.0,96.0,390.0,7.0,0.0
12913,80.0,60.0,60.0,6.0,0.0
12914,81.0,60.0,60.0,6.0,0.0
12915,80.0,120.0,60.0,6.0,0.0
12916,78.0,24.0,120.0,6.0,0.0
12917,80.0,384.0,120.0,6.0,0.0
12918,54.0,240.0,570.0,12.0,0.0
12919,66.0,0.0,570.0,10.0,0.0
12920,54.0,0.0,1830.0,3.0,0.0
12921,66.0,0.0,1830.0,3.0,0.0
12922,66.0,0.0,1830.0,4.0,0.0
12923,90.0,0.0,1830.0,0.0,0.0
12924,66.0,0.0,570.0,11.0,0.0
12925,54.0,0.0,390.0,5.0,0.0
12926,54.0,0.0,570.0,2.0,0.0
12927,54.0,0.0,570.0,13.0,0.0
12928,66.0,0.0,390.0,8.0,0.0
12929,54.0,0.0,390.0,8.0,0.0
12930,78.0,12.0,1830.0,1.0,0.0
12931,57.0,0.0,390.0,8.0,0.0
12932,42.0,0.0,570.0,14.0,0.0
12933,78.0,0.0,390.0,6.0,0.0
12934,85.0,0.0,390.0,6.0,0.0
12935,90.0,192.0,390.0,6.0,0.0
12936,81.0,0.0,390.0,6.0,0.0
12937,61.0,0.0,390.0,8.0,0.0
12938,45.0,0.0,150.0,14.0,0.0
12939,66.0,0.0,90.0,11.0,0.0
12940,57.0,0.0,150.0,2.0,0.0
12941,78.0,60.0,90.0,10.0,0.0
12942,57.0,60.0,150.0,13.0,0.0
12943,57.0,0.0,150.0,12.0,0.0
12944,66.0,0.0,90.0,11.0,0.0
12945,78.0,120.0,90.0,10.0,0.0
12946,59.0,0.0,150.0,12.0,0.0
12947,59.0,0.0,150.0,2.0,0.0
12948,47.0,0.0,150.0,14.0,0.0
12949,80.0,60.0,90.0,10.0,0.0
12950,68.0,0.0,90.0,11.0,0.0
12951,59.0,60.0,150.0,13.0,0.0
12952,68.0,0.0,90.0,11.0,0.0
12953,80.0,120.0,90.0,10.0,0.0
12954,66.0,0.0,90.0,11.0,0.0
12955,78.0,60.0,90.0,10.0,0.0
12956,45.0,60.0,150.0,14.0,0.0
12957,57.0,0.0,150.0,12.0,0.0
12958,57.0,0.0,150.0,13.0,0.0
12959,57.0,0.0,150.0,2.0,0.0
12960,78.0,120.0,90.0,10.0,0.0
12961,66.0,0.0,90.0,11.0,0.0
12962,59.0,0.0,150.0,2.0,0.0
12963,59.0,60.0,150.0,13.0,0.0
12964,47.0,0.0,150.0,14.0,0.0
12965,68.0,0.0,90.0,11.0,0.0
12966,80.0,60.0,90.0,10.0,0.0
12967,59.0,0.0,150.0,12.0,0.0
12968,68.0,0.0,90.0,11.0,0.0
12969,80.0,120.0,90.0,10.0,0.0
12970,49.0,0.0,150.0,14.0,0.0
12971,61.0,0.0,150.0,2.0,0.0
12972,61.0,0.0,150.0,12.0,0.0
12973,70.0,0.0,90.0,11.0,0.0
12974,82.0,48.0,90.0,10.0,0.0
12975,61.0,60.0,150.0,13.0,0.0
12976,70.0,120.0,90.0,11.0,0.0
12977,82.0,0.0,90.0,10.0,0.0
12978,83.0,0.0,90.0,10.0,0.0
12979,66.0,0.0,1830.0,4.0,0.0
12980,90.0,0.0,1830.0,0.0,0.0
12981,62.0,0.0,150.0,12.0,0.0
12982,71.0,60.0,90.0,11.0,0.0
12983,66.0,0.0,1830.0,3.0,0.0
12984,54.0,12.0,1830.0,3.0,0.0
12985,62.0,0.0,150.0,2.0,0.0
12986,54.0,12.0,390.0,5.0,0.0
12987,62.0,0.0,150.0,13.0,0.0
12988,78.0,0.0,1830.0,1.0,0.0
12989,50.0,60.0,150.0,14.0,0.0
12990,83.0,120.0,90.0,10.0,0.0
12991,71.0,0.0,90.0,11.0,0.0
12992,49.0,0.0,150.0,14.0,0.0
12993,70.0,0.0,90.0,11.0,0.0
12994,82.0,48.0,90.0,10.0,0.0
12995,61.0,0.0,150.0,13.0,0.0
12996,61.0,60.0,150.0,12.0,0.0
12997,61.0,0.0,150.0,2.0,0.0
12998,82.0,120.0,90.0,10.0,0.0
12999,70.0,0.0,90.0,11.0,0.0
13000,71.0,0.0,90.0,11.0,0.0
13001,62.0,60.0,150.0,2.0,0.0
13002,50.0,0.0,150.0,14.0,0.0
13003,62.0,0.0,150.0,12.0,0.0
13004,83.0,60.0,90.0,10.0,0.0
13005,62.0,0.0,150.0,13.0,0.0
13006,83.0,120.0,90.0,10.0,0.0
13007,71.0,0.0,90.0,11.0,0.0
13008,68.0,60.0,90.0,11.0,0.0
13009,60.0,0.0,150.0,13.0,0.0
13010,60.0,0.0,150.0,2.0,0.0
13011,80.0,0.0,90.0,10.0,0.0
13012,60.0,0.0,150.0,12.0,0.0
13013,48.0,60.0,150.0,14.0,0.0
13014,80.0,120.0,90.0,10.0,0.0
13015,68.0,0.0,90.0,11.0,0.0
13016,49.0,0.0,150.0,14.0,0.0
13017,61.0,0.0,150.0,13.0,0.0
13018,70.0,60.0,90.0,11.0,0.0
13019,61.0,0.0,150.0,2.0,0.0
13020,82.0,0.0,90.0,10.0,0.0
13021,61.0,60.0,150.0,12.0,0.0
13022,82.0,120.0,90.0,10.0,0.0
13023,70.0,0.0,90.0,11.0,0.0
13024,60.0,0.0,150.0,12.0,0.0
13025,60.0,0.0,150.0,2.0,0.0
13026,60.0,0.0,150.0,13.0,0.0
13027,80.0,0.0,90.0,10.0,0.0
13028,48.0,60.0,150.0,14.0,0.0
13029,68.0,60.0,90.0,11.0,0.0
13030,80.0,120.0,90.0,10.0,0.0
13031,68.0,0.0,90.0,11.0,0.0
13032,49.0,0.0,150.0,14.0,0.0
13033,82.0,60.0,90.0,10.0,0.0
13034,61.0,60.0,150.0,13.0,0.0
13035,61.0,0.0,150.0,12.0,0.0
13036,70.0,0.0,90.0,11.0,0.0
13037,61.0,0.0,150.0,2.0,0.0
13038,70.0,120.0,90.0,11.0,0.0
13039,82.0,0.0,90.0,10.0,0.0
13040,63.0,0.0,150.0,12.0,0.0
13041,63.0,0.0,150.0,13.0,0.0
13042,84.0,48.0,90.0,10.0,0.0
13043,63.0,60.0,150.0,2.0,0.0
13044,72.0,0.0,90.0,11.0,0.0
13045,51.0,0.0,150.0,14.0,0.0
13046,84.0,120.0,90.0,10.0,0.0
13047,72.0,0.0,90.0,11.0,0.0
13048,64.0,60.0,150.0,2.0,0.0
13049,52.0,0.0,150.0,14.0,0.0
13050,85.0,60.0,90.0,10.0,0.0
13051,73.0,0.0,90.0,11.0,0.0
13052,54.0,0.0,1830.0,3.0,0.0
13053,54.0,12.0,390.0,5.0,0.0
13054,90.0,0.0,2220.0,0.0,0.0
13055,66.0,12.0,1830.0,4.0,0.0
13056,64.0,0.0,150.0,13.0,0.0
13057,64.0,0.0,150.0,12.0,0.0
13058,78.0,24.0,2220.0,1.0,0.0
13059,66.0,0.0,1830.0,3.0,0.0
13060,85.0,0.0,90.0,10.0,0.0
13061,73.0,120.0,90.0,11.0,0.0
13062,72.0,48.0,90.0,11.0,0.0
13063,63.0,0.0,150.0,13.0,0.0
13064,63.0,0.0,150.0,12.0,0.0
13065,63.0,60.0,150.0,2.0,0.0
13066,51.0,0.0,150.0,14.0,0.0
13067,84.0,0.0,90.0,10.0,0.0
13068,72.0,0.0,90.0,11.0,0.0
13069,84.0,120.0,90.0,10.0,0.0
13070,85.0,0.0,90.0,10.0,0.0
13071,52.0,60.0,150.0,14.0,0.0
13072,73.0,60.0,90.0,11.0,0.0
13073,64.0,0.0,150.0,2.0,0.0
13074,64.0,0.0,150.0,13.0,0.0
13075,64.0,0.0,150.0,12.0,0.0
13076,85.0,0.0,90.0,10.0,0.0
13077,73.0,120.0,90.0,11.0,0.0
13078,61.0,0.0,150.0,12.0,0.0
13079,49.0,0.0,150.0,14.0,0.0
13080,70.0,0.0,90.0,11.0,0.0
13081,61.0,60.0,150.0,13.0,0.0
13082,61.0,0.0,150.0,2.0,0.0
13083,82.0,60.0,90.0,10.0,0.0
13084,70.0,0.0,90.0,11.0,0.0
13085,82.0,120.0,90.0,10.0,0.0
13086,62.0,0.0,150.0,12.0,0.0
13087,71.0,0.0,90.0,11.0,0.0
13088,50.0,0.0,150.0,14.0,0.0
13089,62.0,0.0,150.0,13.0,0.0
13090,62.0,60.0,150.0,2.0,0.0
13091,83.0,60.0,90.0,10.0,0.0
13092,83.0,0.0,90.0,10.0,0.0
13093,71.0,120.0,90.0,11.0,0.0
13094,61.0,0.0,150.0,2.0,0.0
13095,49.0,0.0,150.0,14.0,0.0
13096,61.0,60.0,150.0,12.0,0.0
13097,61.0,0.0,150.0,13.0,0.0
13098,70.0,60.0,90.0,11.0,0.0
13099,82.0,0.0,90.0,10.0,0.0
13100,82.0,120.0,90.0,10.0,0.0
13101,70.0,0.0,90.0,11.0,0.0
13102,62.0,0.0,150.0,2.0,0.0
13103,83.0,60.0,90.0,10.0,0.0
13104,50.0,0.0,150.0,14.0,0.0
13105,62.0,0.0,150.0,13.0,0.0
13106,62.0,60.0,150.0,12.0,0.0
13107,71.0,0.0,90.0,11.0,0.0
13108,83.0,120.0,90.0,10.0,0.0
13109,71.0,0.0,90.0,11.0,0.0
13110,85.0,48.0,90.0,10.0,0.0
13111,58.0,0.0,150.0,13.0,0.0
13112,46.0,0.0,150.0,14.0,0.0
13113,58.0,0.0,150.0,2.0,0.0
13114,70.0,60.0,150.0,12.0,0.0
13115,73.0,0.0,90.0,11.0,0.0
13116,73.0,0.0,90.0,11.0,0.0
13117,85.0,120.0,90.0,10.0,0.0
13118,74.0,0.0,90.0,11.0,0.0
13119,86.0,48.0,90.0,10.0,0.0
13120,59.0,0.0,150.0,2.0,0.0
13121,71.0,0.0,150.0,12.0,0.0
13122,47.0,72.0,150.0,14.0,0.0
13123,59.0,0.0,150.0,13.0,0.0
13124,86.0,96.0,90.0,10.0,0.0
13125,74.0,0.0,90.0,11.0,0.0
13126,35.0,0.0,150.0,14.0,0.0
13127,59.0,0.0,150.0,12.0,0.0
13128,86.0,48.0,90.0,10.0,0.0
13129,47.0,72.0,150.0,13.0,0.0
13130,74.0,0.0,90.0,11.0,0.0
13131,47.0,0.0,150.0,2.0,0.0
13132,86.0,120.0,90.0,10.0,0.0
13133,74.0,0.0,90.0,11.0,0.0
13134,71.0,120.0,930.0,1.0,0.0
13135,59.0,0.0,150.0,13.0,0.0
13136,71.0,72.0,150.0,12.0,0.0
13137,75.0,48.0,90.0,11.0,0.0
13138,83.0,24.0,900.0,0.0,0.0
13139,87.0,0.0,90.0,10.0,0.0
13140,78.0,0.0,450.0,1.0,0.0
13141,59.0,0.0,150.0,2.0,0.0
13142,47.0,0.0,150.0,14.0,0.0
13143,87.0,120.0,90.0,10.0,0.0
13144,75.0,0.0,90.0,11.0,0.0
13145,57.0,0.0,150.0,2.0,0.0
13146,45.0,0.0,150.0,14.0,0.0
13147,75.0,0.0,90.0,11.0,0.0
13148,69.0,0.0,150.0,12.0,0.0
13149,87.0,48.0,90.0,10.0,0.0
13150,57.0,72.0,150.0,13.0,0.0
13151,87.0,0.0,90.0,10.0,0.0
13152,75.0,120.0,90.0,11.0,0.0
13153,44.0,0.0,150.0,14.0,0.0
13154,56.0,0.0,150.0,13.0,0.0
13155,88.0,48.0,90.0,10.0,0.0
13156,80.0,0.0,870.0,1.0,0.0
13157,56.0,0.0,150.0,2.0,0.0
13158,68.0,72.0,150.0,12.0,0.0
13159,76.0,0.0,90.0,11.0,0.0
13160,76.0,120.0,90.0,11.0,0.0
13161,88.0,0.0,90.0,10.0,0.0
13162,88.0,0.0,90.0,10.0,0.0
13163,49.0,48.0,150.0,13.0,0.0
13164,76.0,48.0,90.0,11.0,0.0
13165,49.0,0.0,150.0,2.0,0.0
13166,61.0,0.0,150.0,12.0,0.0
13167,37.0,0.0,150.0,14.0,0.0
13168,88.0,0.0,90.0,10.0,0.0
13169,76.0,0.0,90.0,11.0,0.0
13170,85.0,0.0,870.0,0.0,0.0
13171,89.0,48.0,90.0,10.0,0.0
13172,49.0,0.0,390.0,5.0,0.0
13173,61.0,0.0,300.0,3.0,0.0
13174,73.0,0.0,150.0,12.0,0.0
13175,73.0,240.0,870.0,1.0,0.0
13176,61.0,0.0,150.0,13.0,0.0
13177,77.0,0.0,90.0,11.0,0.0
13178,61.0,72.0,150.0,2.0,0.0
13179,49.0,0.0,150.0,14.0,0.0
13180,73.0,48.0,300.0,4.0,0.0
13181,89.0,72.0,90.0,10.0,0.0
13182,77.0,0.0,90.0,11.0,0.0
13183,59.0,0.0,150.0,2.0,0.0
13184,77.0,48.0,90.0,11.0,0.0
13185,71.0,0.0,150.0,12.0,0.0
13186,47.0,72.0,150.0,14.0,0.0
13187,89.0,0.0,90.0,10.0,0.0
13188,59.0,0.0,150.0,13.0,0.0
13189,77.0,168.0,90.0,11.0,0.0
13190,89.0,0.0,90.0,10.0,0.0
13191,78.0,0.0,300.0,4.0,0.0
13192,54.0,0.0,390.0,5.0,0.0
13193,61.0,0.0,300.0,3.0,0.0
13194,66.0,0.0,300.0,4.0,0.0
13195,57.0,0.0,390.0,2.0,0.0
13196,57.0,0.0,150.0,13.0,0.0
13197,69.0,0.0,150.0,12.0,0.0
13198,54.0,96.0,300.0,3.0,0.0
13199,78.0,0.0,300.0,11.0,0.0
13200,81.0,0.0,390.0,1.0,0.0
13201,45.0,144.0,150.0,14.0,0.0
13202,90.0,0.0,300.0,10.0,0.0
13203,57.0,0.0,150.0,13.0,0.0
13204,57.0,0.0,150.0,12.0,0.0
13205,45.0,0.0,150.0,14.0,0.0
13206,57.0,0.0,150.0,12.0,0.0
13207,73.0,0.0,300.0,11.0,0.0
13208,57.0,144.0,150.0,13.0,0.0
13209,85.0,96.0,300.0,10.0,0.0
13210,45.0,0.0,150.0,14.0,0.0
13211,57.0,0.0,150.0,13.0,0.0
13212,45.0,240.0,150.0,14.0,0.0
13213,57.0,0.0,150.0,12.0,0.0
13214,81.0,96.0,300.0,10.0,0.0
13215,57.0,0.0,150.0,12.0,0.0
13216,45.0,144.0,150.0,14.0,0.0
13217,57.0,0.0,150.0,13.0,0.0
13218,69.0,0.0,300.0,11.0,0.0
13219,45.0,240.0,150.0,14.0,0.0
13220,57.0,0.0,150.0,13.0,0.0
13221,57.0,0.0,150.0,12.0,0.0
13222,78.0,96.0,300.0,10.0,0.0
13223,66.0,0.0,300.0,11.0,0.0
13224,57.0,144.0,150.0,13.0,0.0
13225,45.0,0.0,150.0,14.0,0.0
13226,57.0,0.0,150.0,12.0,0.0
13227,45.0,0.0,150.0,14.0,0.0
13228,57.0,240.0,150.0,12.0,0.0
13229,57.0,0.0,150.0,13.0,0.0
13230,62.0,0.0,780.0,11.0,0.0
13231,59.0,0.0,780.0,10.0,0.0
13232,67.0,0.0,780.0,10.0,0.0
13233,59.0,144.0,150.0,13.0,0.0
13234,79.0,96.0,300.0,1.0,0.0
13235,91.0,0.0,300.0,0.0,0.0
13236,67.0,0.0,300.0,2.0,0.0
13237,47.0,0.0,150.0,14.0,0.0
13238,59.0,0.0,150.0,12.0,0.0
13239,59.0,0.0,150.0,12.0,0.0
13240,47.0,0.0,150.0,14.0,0.0
13241,59.0,240.0,150.0,13.0,0.0
13242,47.0,0.0,150.0,14.0,0.0
13243,86.0,0.0,300.0,0.0,0.0
13244,59.0,144.0,150.0,13.0,0.0
13245,62.0,0.0,300.0,2.0,0.0
13246,59.0,0.0,150.0,12.0,0.0
13247,86.0,0.0,300.0,1.0,0.0
13248,74.0,96.0,300.0,1.0,0.0
13249,47.0,0.0,150.0,14.0,0.0
13250,59.0,240.0,150.0,13.0,0.0
13251,59.0,0.0,150.0,12.0,0.0
13252,59.0,0.0,150.0,13.0,0.0
13253,47.0,0.0,150.0,14.0,0.0
13254,71.0,96.0,300.0,1.0,0.0
13255,83.0,0.0,300.0,1.0,0.0
13256,83.0,0.0,300.0,0.0,0.0
13257,71.0,0.0,300.0,2.0,0.0
13258,59.0,0.0,300.0,2.0,0.0
13259,59.0,144.0,150.0,12.0,0.0
13260,47.0,0.0,150.0,14.0,0.0
13261,86.0,0.0,150.0,10.0,0.0
13262,59.0,0.0,150.0,12.0,0.0
13263,59.0,240.0,150.0,13.0,0.0
13264,74.0,0.0,150.0,11.0,0.0
13265,67.0,0.0,300.0,1.0,0.0
13266,47.0,144.0,150.0,14.0,0.0
13267,59.0,0.0,150.0,13.0,0.0
13268,74.0,0.0,150.0,11.0,0.0
13269,79.0,0.0,300.0,1.0,0.0
13270,79.0,0.0,300.0,0.0,0.0
13271,55.0,96.0,300.0,2.0,0.0
13272,59.0,0.0,150.0,12.0,0.0
13273,86.0,0.0,150.0,10.0,0.0
13274,67.0,0.0,300.0,2.0,0.0
13275,59.0,0.0,150.0,13.0,0.0
13276,86.0,0.0,150.0,10.0,0.0
13277,74.0,252.0,150.0,11.0,0.0
13278,59.0,0.0,150.0,12.0,0.0
13279,47.0,0.0,150.0,14.0,0.0
13280,73.0,0.0,390.0,4.0,0.0
13281,61.0,0.0,390.0,4.0,0.0
13282,77.0,0.0,780.0,0.0,0.0
13283,65.0,0.0,780.0,2.0,0.0
13284,61.0,0.0,150.0,13.0,0.0
13285,53.0,0.0,780.0,2.0,0.0
13286,86.0,0.0,240.0,10.0,0.0
13287,74.0,144.0,240.0,11.0,0.0
13288,49.0,84.0,150.0,14.0,0.0
13289,61.0,0.0,150.0,12.0,0.0
13290,77.0,108.0,780.0,1.0,0.0
13291,65.0,0.0,780.0,1.0,0.0
13292,61.0,0.0,1920.0,3.0,0.0
13293,49.0,240.0,1920.0,3.0,0.0
13294,49.0,12.0,390.0,5.0,0.0
13295,61.0,0.0,150.0,12.0,0.0
13296,85.0,0.0,180.0,10.0,0.0
13297,73.0,204.0,180.0,11.0,0.0
13298,49.0,0.0,150.0,14.0,0.0
13299,61.0,36.0,150.0,13.0,0.0
13300,85.0,180.0,690.0,10.0,0.0
13301,61.0,0.0,150.0,13.0,0.0
13302,73.0,0.0,690.0,11.0,0.0
13303,61.0,0.0,150.0,12.0,0.0
13304,49.0,132.0,150.0,14.0,0.0
13305,61.0,0.0,150.0,12.0,0.0
13306,49.0,240.0,150.0,14.0,0.0
13307,61.0,0.0,150.0,13.0,0.0
13308,61.0,0.0,150.0,13.0,0.0
13309,61.0,48.0,150.0,12.0,0.0
13310,49.0,0.0,150.0,14.0,0.0
13311,83.0,0.0,150.0,10.0,0.0
13312,61.0,0.0,150.0,12.0,0.0
13313,89.0,12.0,150.0,0.0,0.0
13314,49.0,0.0,150.0,14.0,0.0
13315,71.0,0.0,150.0,11.0,0.0
13316,77.0,0.0,150.0,1.0,0.0
13317,80.0,0.0,150.0,1.0,0.0
13318,61.0,228.0,150.0,13.0,0.0
13319,77.0,0.0,150.0,1.0,0.0
13320,80.0,12.0,150.0,1.0,0.0
13321,89.0,0.0,150.0,0.0,0.0
13322,61.0,0.0,150.0,13.0,0.0
13323,83.0,0.0,150.0,10.0,0.0
13324,49.0,0.0,150.0,14.0,0.0
13325,61.0,228.0,150.0,12.0,0.0
13326,71.0,0.0,150.0,11.0,0.0
13327,89.0,0.0,150.0,0.0,0.0
13328,83.0,0.0,150.0,10.0,0.0
13329,61.0,0.0,150.0,12.0,0.0
13330,80.0,0.0,150.0,1.0,0.0
13331,49.0,0.0,150.0,14.0,0.0
13332,61.0,84.0,150.0,13.0,0.0
13333,71.0,12.0,150.0,11.0,0.0
13334,77.0,0.0,150.0,1.0,0.0
13335,54.0,0.0,390.0,3.0,0.0
13336,66.0,0.0,390.0,3.0,0.0
13337,83.0,0.0,240.0,10.0,0.0
13338,80.0,0.0,240.0,1.0,0.0
13339,71.0,0.0,240.0,11.0,0.0
13340,77.0,144.0,240.0,1.0,0.0
13341,89.0,0.0,240.0,0.0,0.0
13342,66.0,0.0,390.0,4.0,0.0
13343,78.0,0.0,390.0,4.0,0.0
13344,62.0,0.0,390.0,13.0,0.0
13345,50.0,0.0,390.0,14.0,0.0
13346,62.0,0.0,390.0,12.0,0.0
13347,54.0,48.0,390.0,5.0,0.0
13348,69.0,432.0,180.0,11.0,0.0
13349,81.0,0.0,180.0,10.0,0.0
13350,90.0,0.0,180.0,0.0,0.0
13351,81.0,0.0,180.0,1.0,0.0
13352,78.0,0.0,180.0,1.0,0.0
13353,81.0,0.0,390.0,1.0,0.0
13354,69.0,0.0,390.0,11.0,0.0
13355,81.0,480.0,390.0,10.0,0.0
13356,90.0,0.0,390.0,0.0,0.0
13357,78.0,0.0,390.0,1.0,0.0
13358,59.0,0.0,960.0,2.0,0.0
13359,47.0,0.0,390.0,14.0,0.0
13360,59.0,96.0,390.0,13.0,0.0
13361,68.0,384.0,960.0,2.0,0.0
13362,62.0,0.0,390.0,12.0,0.0
13363,71.0,0.0,240.0,11.0,0.0
13364,80.0,240.0,240.0,10.0,0.0
13365,74.0,192.0,240.0,11.0,0.0
13366,83.0,0.0,240.0,10.0,0.0
13367,71.0,0.0,240.0,11.0,0.0
13368,80.0,48.0,180.0,10.0,0.0
13369,61.0,0.0,390.0,13.0,0.0
13370,57.0,0.0,960.0,2.0,0.0
13371,66.0,0.0,960.0,2.0,0.0
13372,61.0,0.0,390.0,12.0,0.0
13373,49.0,96.0,390.0,14.0,0.0
13374,78.0,0.0,240.0,10.0,0.0
13375,69.0,240.0,240.0,11.0,0.0
13376,81.0,192.0,240.0,10.0,0.0
13377,73.0,0.0,240.0,11.0,0.0
13378,69.0,384.0,240.0,11.0,0.0
13379,78.0,48.0,180.0,10.0,0.0
13380,65.0,96.0,960.0,2.0,0.0
13381,61.0,96.0,390.0,12.0,0.0
13382,56.0,0.0,960.0,2.0,0.0
13383,49.0,0.0,390.0,13.0,0.0
13384,37.0,0.0,390.0,14.0,0.0
13385,77.0,240.0,240.0,10.0,0.0
13386,68.0,0.0,240.0,11.0,0.0
13387,80.0,0.0,240.0,10.0,0.0
13388,71.0,192.0,240.0,11.0,0.0
13389,68.0,48.0,180.0,11.0,0.0
13390,77.0,0.0,180.0,10.0,0.0
13391,66.0,0.0,390.0,4.0,0.0
13392,90.0,0.0,6150.0,0.0,0.0
13393,78.0,0.0,390.0,4.0,0.0
13394,78.0,0.0,570.0,1.0,0.0
13395,66.0,0.0,570.0,1.0,0.0
13396,54.0,0.0,570.0,12.0,0.0
13397,54.0,0.0,570.0,13.0,0.0
13398,66.0,120.0,570.0,11.0,0.0
13399,54.0,0.0,6150.0,3.0,0.0
13400,66.0,0.0,6150.0,3.0,0.0
13401,78.0,0.0,90.0,10.0,0.0
13402,42.0,0.0,570.0,14.0,0.0
13403,66.0,120.0,90.0,10.0,0.0
13404,54.0,72.0,390.0,5.0,0.0
13405,54.0,0.0,570.0,2.0,0.0
13406,78.0,0.0,90.0,10.0,0.0
13407,66.0,120.0,90.0,10.0,0.0
13408,66.0,0.0,90.0,10.0,0.0
13409,78.0,48.0,90.0,10.0,0.0
13410,66.0,120.0,90.0,10.0,0.0
13411,78.0,0.0,90.0,10.0,0.0
13412,66.0,0.0,90.0,10.0,0.0
13413,78.0,0.0,90.0,10.0,0.0
13414,78.0,120.0,90.0,10.0,0.0
13415,66.0,0.0,90.0,10.0,0.0
13416,54.0,60.0,150.0,12.0,0.0
13417,54.0,0.0,150.0,2.0,0.0
13418,78.0,0.0,150.0,1.0,0.0
13419,66.0,0.0,150.0,1.0,0.0
13420,42.0,0.0,150.0,14.0,0.0
13421,66.0,60.0,90.0,11.0,0.0
13422,78.0,0.0,90.0,10.0,0.0
13423,54.0,0.0,150.0,13.0,0.0
13424,66.0,0.0,90.0,10.0,0.0
13425,66.0,0.0,90.0,10.0,0.0
13426,66.0,120.0,90.0,11.0,0.0
13427,78.0,0.0,90.0,10.0,0.0
13428,55.0,60.0,150.0,13.0,0.0
13429,55.0,0.0,150.0,2.0,0.0
13430,67.0,0.0,90.0,11.0,0.0
13431,78.0,60.0,90.0,10.0,0.0
13432,55.0,0.0,150.0,12.0,0.0
13433,66.0,0.0,90.0,10.0,0.0
13434,43.0,0.0,150.0,14.0,0.0
13435,67.0,0.0,150.0,1.0,0.0
13436,79.0,0.0,150.0,1.0,0.0
13437,67.0,0.0,90.0,11.0,0.0
13438,78.0,0.0,90.0,10.0,0.0
13439,66.0,120.0,90.0,10.0,0.0
13440,66.0,0.0,150.0,1.0,0.0
13441,66.0,0.0,90.0,11.0,0.0
13442,54.0,0.0,150.0,2.0,0.0
13443,54.0,60.0,150.0,12.0,0.0
13444,42.0,0.0,150.0,14.0,0.0
13445,78.0,0.0,150.0,1.0,0.0
13446,66.0,0.0,90.0,10.0,0.0
13447,54.0,0.0,150.0,13.0,0.0
13448,78.0,60.0,90.0,10.0,0.0
13449,78.0,0.0,90.0,10.0,0.0
13450,66.0,120.0,90.0,10.0,0.0
13451,66.0,0.0,90.0,11.0,0.0
13452,56.0,0.0,150.0,13.0,0.0
13453,68.0,0.0,90.0,11.0,0.0
13454,44.0,60.0,150.0,14.0,0.0
13455,66.0,0.0,90.0,10.0,0.0
13456,56.0,0.0,150.0,2.0,0.0
13457,80.0,0.0,150.0,1.0,0.0
13458,68.0,0.0,150.0,1.0,0.0
13459,78.0,60.0,90.0,10.0,0.0
13460,56.0,0.0,150.0,12.0,0.0
13461,66.0,0.0,90.0,10.0,0.0
13462,78.0,120.0,90.0,10.0,0.0
13463,68.0,0.0,90.0,11.0,0.0
13464,78.0,60.0,90.0,10.0,0.0
13465,58.0,60.0,150.0,13.0,0.0
13466,70.0,0.0,90.0,11.0,0.0
13467,66.0,0.0,90.0,10.0,0.0
13468,58.0,0.0,150.0,2.0,0.0
13469,58.0,0.0,150.0,12.0,0.0
13470,70.0,0.0,150.0,1.0,0.0
13471,82.0,0.0,150.0,1.0,0.0
13472,46.0,0.0,150.0,14.0,0.0
13473,66.0,0.0,90.0,10.0,0.0
13474,78.0,0.0,90.0,10.0,0.0
13475,70.0,120.0,90.0,11.0,0.0
13476,66.0,0.0,390.0,4.0,0.0
13477,78.0,12.0,390.0,4.0,0.0
13478,47.0,0.0,150.0,14.0,0.0
13479,71.0,0.0,90.0,11.0,0.0
13480,59.0,0.0,150.0,12.0,0.0
13481,71.0,0.0,150.0,1.0,0.0
13482,83.0,0.0,150.0,1.0,0.0
13483,59.0,0.0,150.0,13.0,0.0
13484,59.0,60.0,150.0,2.0,0.0
13485,54.0,0.0,390.0,5.0,0.0
13486,66.0,0.0,90.0,10.0,0.0
13487,78.0,60.0,90.0,10.0,0.0
13488,66.0,120.0,90.0,10.0,0.0
13489,78.0,0.0,90.0,10.0,0.0
13490,71.0,0.0,90.0,11.0,0.0
13491,58.0,0.0,150.0,12.0,0.0
13492,70.0,0.0,90.0,11.0,0.0
13493,58.0,60.0,150.0,2.0,0.0
13494,78.0,48.0,90.0,10.0,0.0
13495,46.0,0.0,150.0,14.0,0.0
13496,66.0,0.0,90.0,10.0,0.0
13497,70.0,0.0,150.0,1.0,0.0
13498,82.0,0.0,150.0,1.0,0.0
13499,58.0,0.0,150.0,13.0,0.0
13500,70.0,0.0,90.0,11.0,0.0
13501,78.0,0.0,90.0,10.0,0.0
13502,66.0,120.0,90.0,10.0,0.0
13503,66.0,60.0,90.0,10.0,0.0
13504,78.0,0.0,90.0,10.0,0.0
13505,59.0,0.0,150.0,2.0,0.0
13506,47.0,0.0,150.0,14.0,0.0
13507,83.0,60.0,150.0,1.0,0.0
13508,59.0,0.0,150.0,13.0,0.0
13509,71.0,0.0,150.0,1.0,0.0
13510,71.0,0.0,90.0,11.0,0.0
13511,59.0,0.0,150.0,12.0,0.0
13512,71.0,120.0,90.0,11.0,0.0
13513,78.0,0.0,90.0,10.0,0.0
13514,66.0,0.0,90.0,10.0,0.0
13515,56.0,0.0,150.0,2.0,0.0
13516,44.0,0.0,150.0,14.0,0.0
13517,56.0,60.0,150.0,13.0,0.0
13518,56.0,0.0,150.0,12.0,0.0
13519,68.0,0.0,90.0,11.0,0.0
13520,80.0,0.0,150.0,1.0,0.0
13521,78.0,0.0,90.0,10.0,0.0
13522,68.0,0.0,150.0,1.0,0.0
13523,66.0,60.0,90.0,10.0,0.0
13524,68.0,0.0,90.0,11.0,0.0
13525,78.0,0.0,90.0,10.0,0.0
13526,66.0,120.0,90.0,10.0,0.0
13527,66.0,0.0,90.0,10.0,0.0
13528,81.0,60.0,150.0,1.0,0.0
13529,45.0,0.0,150.0,14.0,0.0
13530,57.0,0.0,150.0,2.0,0.0
13531,57.0,0.0,150.0,13.0,0.0
13532,78.0,60.0,90.0,10.0,0.0
13533,69.0,0.0,150.0,1.0,0.0
13534,69.0,0.0,90.0,11.0,0.0
13535,57.0,0.0,150.0,12.0,0.0
13536,66.0,120.0,90.0,10.0,0.0
13537,69.0,0.0,90.0,11.0,0.0
13538,78.0,0.0,90.0,10.0,0.0
13539,56.0,0.0,150.0,2.0,0.0
13540,44.0,0.0,150.0,14.0,0.0
13541,68.0,0.0,150.0,1.0,0.0
13542,56.0,60.0,150.0,13.0,0.0
13543,68.0,60.0,90.0,11.0,0.0
13544,80.0,0.0,150.0,1.0,0.0
13545,56.0,0.0,150.0,12.0,0.0
13546,66.0,0.0,90.0,10.0,0.0
13547,78.0,0.0,90.0,10.0,0.0
13548,68.0,120.0,90.0,11.0,0.0
13549,78.0,0.0,90.0,10.0,0.0
13550,66.0,0.0,90.0,10.0,0.0
13551,66.0,0.0,90.0,10.0,0.0
13552,82.0,0.0,150.0,1.0,0.0
13553,70.0,0.0,150.0,1.0,0.0
13554,78.0,60.0,90.0,10.0,0.0
13555,58.0,60.0,150.0,13.0,0.0
13556,58.0,0.0,150.0,12.0,0.0
13557,70.0,0.0,90.0,11.0,0.0
13558,46.0,0.0,150.0,14.0,0.0
13559,58.0,0.0,150.0,2.0,0.0
13560,70.0,0.0,90.0,11.0,0.0
13561,78.0,0.0,90.0,10.0,0.0
13562,66.0,120.0,90.0,10.0,0.0
13563,84.0,0.0,150.0,1.0,0.0
13564,66.0,60.0,90.0,10.0,0.0
13565,72.0,0.0,150.0,1.0,0.0
13566,60.0,0.0,150.0,2.0,0.0
13567,48.0,0.0,150.0,14.0,0.0
13568,78.0,0.0,90.0,10.0,0.0
13569,60.0,0.0,150.0,12.0,0.0
13570,60.0,60.0,150.0,13.0,0.0
13571,72.0,0.0,90.0,11.0,0.0
13572,72.0,0.0,90.0,11.0,0.0
13573,66.0,120.0,90.0,10.0,0.0
13574,78.0,0.0,90.0,10.0,0.0
13575,66.0,12.0,390.0,4.0,0.0
13576,78.0,0.0,390.0,4.0,0.0
13577,73.0,60.0,150.0,1.0,0.0
13578,49.0,0.0,150.0,14.0,0.0
13579,54.0,0.0,390.0,5.0,0.0
13580,61.0,0.0,150.0,13.0,0.0
13581,61.0,0.0,150.0,12.0,0.0
13582,85.0,0.0,150.0,1.0,0.0
13583,61.0,0.0,150.0,2.0,0.0
13584,66.0,0.0,90.0,10.0,0.0
13585,78.0,0.0,90.0,10.0,0.0
13586,73.0,60.0,90.0,11.0,0.0
13587,66.0,120.0,90.0,10.0,0.0
13588,78.0,0.0,90.0,10.0,0.0
13589,73.0,0.0,90.0,11.0,0.0
13590,84.0,0.0,150.0,1.0,0.0
13591,48.0,0.0,150.0,14.0,0.0
13592,72.0,0.0,150.0,1.0,0.0
13593,72.0,48.0,90.0,11.0,0.0
13594,60.0,0.0,150.0,12.0,0.0
13595,78.0,0.0,90.0,10.0,0.0
13596,66.0,0.0,90.0,10.0,0.0
13597,60.0,60.0,150.0,2.0,0.0
13598,60.0,0.0,150.0,13.0,0.0
13599,66.0,0.0,90.0,10.0,0.0
13600,78.0,120.0,90.0,10.0,0.0
13601,72.0,0.0,90.0,11.0,0.0
13602,61.0,0.0,150.0,12.0,0.0
13603,73.0,60.0,90.0,11.0,0.0
13604,73.0,0.0,150.0,1.0,0.0
13605,61.0,0.0,150.0,13.0,0.0
13606,49.0,0.0,150.0,14.0,0.0
13607,78.0,0.0,90.0,10.0,0.0
13608,85.0,0.0,150.0,1.0,0.0
13609,61.0,60.0,150.0,2.0,0.0
13610,66.0,0.0,90.0,10.0,0.0
13611,66.0,0.0,90.0,10.0,0.0
13612,73.0,120.0,90.0,11.0,0.0
13613,78.0,0.0,90.0,10.0,0.0
13614,46.0,0.0,150.0,14.0,0.0
13615,78.0,0.0,90.0,10.0,0.0
13616,58.0,0.0,150.0,13.0,0.0
13617,58.0,0.0,150.0,2.0,0.0
13618,58.0,0.0,150.0,12.0,0.0
13619,66.0,0.0,90.0,10.0,0.0
13620,70.0,60.0,90.0,11.0,0.0
13621,82.0,60.0,150.0,1.0,0.0
13622,70.0,0.0,150.0,1.0,0.0
13623,78.0,0.0,90.0,10.0,0.0
13624,70.0,120.0,90.0,11.0,0.0
13625,66.0,0.0,90.0,10.0,0.0
13626,47.0,0.0,150.0,14.0,0.0
13627,78.0,0.0,90.0,10.0,0.0
13628,59.0,0.0,150.0,13.0,0.0
13629,66.0,60.0,90.0,10.0,0.0
13630,59.0,60.0,150.0,12.0,0.0
13631,83.0,0.0,150.0,1.0,0.0
13632,59.0,0.0,150.0,2.0,0.0
13633,71.0,0.0,150.0,1.0,0.0
13634,71.0,0.0,90.0,11.0,0.0
13635,78.0,0.0,90.0,10.0,0.0
13636,66.0,120.0,90.0,10.0,0.0
13637,71.0,0.0,90.0,11.0,0.0
13638,58.0,0.0,150.0,13.0,0.0
13639,46.0,60.0,150.0,14.0,0.0
13640,70.0,0.0,90.0,11.0,0.0
13641,78.0,60.0,90.0,10.0,0.0
13642,58.0,0.0,150.0,2.0,0.0
13643,58.0,0.0,150.0,12.0,0.0
13644,82.0,0.0,150.0,1.0,0.0
13645,66.0,0.0,90.0,10.0,0.0
13646,70.0,0.0,150.0,1.0,0.0
13647,66.0,120.0,90.0,10.0,0.0
13648,78.0,0.0,90.0,10.0,0.0
13649,70.0,0.0,90.0,11.0,0.0
13650,83.0,0.0,150.0,1.0,0.0
13651,71.0,0.0,150.0,1.0,0.0
13652,59.0,0.0,150.0,2.0,0.0
13653,71.0,60.0,90.0,11.0,0.0
13654,59.0,60.0,150.0,13.0,0.0
13655,78.0,0.0,90.0,10.0,0.0
13656,66.0,0.0,90.0,10.0,0.0
13657,59.0,0.0,150.0,12.0,0.0
13658,47.0,0.0,150.0,14.0,0.0
13659,66.0,120.0,90.0,10.0,0.0
13660,71.0,0.0,90.0,11.0,0.0
13661,78.0,0.0,90.0,10.0,0.0
13662,73.0,0.0,90.0,11.0,0.0
13663,61.0,0.0,150.0,2.0,0.0
13664,73.0,60.0,150.0,1.0,0.0
13665,66.0,0.0,90.0,10.0,0.0
13666,49.0,0.0,150.0,14.0,0.0
13667,85.0,0.0,150.0,1.0,0.0
13668,78.0,60.0,90.0,10.0,0.0
13669,61.0,0.0,150.0,13.0,0.0
13670,61.0,0.0,150.0,12.0,0.0
13671,78.0,0.0,90.0,10.0,0.0
13672,66.0,0.0,90.0,10.0,0.0
13673,73.0,180.0,90.0,11.0,0.0
13674,74.0,0.0,150.0,11.0,0.0
13675,62.0,0.0,390.0,13.0,0.0
13676,86.0,12.0,390.0,1.0,0.0
13677,54.0,0.0,390.0,5.0,0.0
13678,74.0,0.0,390.0,1.0,0.0
13679,66.0,228.0,150.0,10.0,0.0
13680,78.0,0.0,150.0,10.0,0.0
13681,50.0,0.0,390.0,14.0,0.0
13682,62.0,0.0,390.0,2.0,0.0
13683,62.0,0.0,390.0,12.0,0.0
13684,66.0,0.0,390.0,4.0,0.0
13685,78.0,0.0,390.0,4.0,0.0
13686,78.0,240.0,150.0,11.0,0.0
13687,90.0,0.0,150.0,10.0,0.0
13688,90.0,240.0,150.0,10.0,0.0
13689,78.0,0.0,150.0,11.0,0.0
13690,78.0,240.0,150.0,11.0,0.0
13691,90.0,0.0,150.0,10.0,0.0
13692,78.0,240.0,150.0,11.0,0.0
13693,90.0,0.0,150.0,10.0,0.0
13694,78.0,0.0,150.0,11.0,0.0
13695,90.0,240.0,150.0,10.0,0.0
13696,90.0,0.0,150.0,10.0,0.0
13697,78.0,240.0,150.0,11.0,0.0
13698,90.0,0.0,150.0,10.0,0.0
13699,78.0,324.0,150.0,11.0,0.0
13700,54.0,0.0,390.0,5.0,0.0
13701,88.0,144.0,240.0,10.0,0.0
13702,66.0,12.0,390.0,4.0,0.0
13703,76.0,0.0,240.0,11.0,0.0
13704,78.0,0.0,390.0,4.0,0.0
13705,86.0,0.0,150.0,0.0,0.0
13706,59.0,0.0,180.0,12.0,0.0
13707,74.0,0.0,240.0,11.0,0.0
13708,47.0,36.0,180.0,13.0,0.0
13709,47.0,0.0,150.0,2.0,0.0
13710,86.0,168.0,240.0,10.0,0.0
13711,78.0,0.0,150.0,1.0,0.0
13712,35.0,0.0,180.0,14.0,0.0
13713,83.0,36.0,150.0,1.0,0.0
13714,78.0,0.0,150.0,1.0,0.0
13715,83.0,36.0,150.0,1.0,0.0
13716,59.0,0.0,150.0,2.0,0.0
13717,47.0,0.0,180.0,14.0,0.0
13718,54.0,0.0,780.0,3.0,0.0
13719,86.0,0.0,150.0,0.0,0.0
13720,86.0,156.0,960.0,10.0,0.0
13721,59.0,204.0,180.0,12.0,0.0
13722,66.0,108.0,780.0,3.0,0.0
13723,74.0,0.0,960.0,11.0,0.0
13724,59.0,0.0,180.0,13.0,0.0
13725,59.0,0.0,180.0,12.0,0.0
13726,47.0,0.0,180.0,14.0,0.0
13727,86.0,0.0,150.0,0.0,0.0
13728,59.0,204.0,180.0,13.0,0.0
13729,78.0,0.0,150.0,1.0,0.0
13730,83.0,0.0,150.0,1.0,0.0
13731,59.0,36.0,150.0,2.0,0.0
13732,59.0,0.0,180.0,13.0,0.0
13733,47.0,96.0,180.0,14.0,0.0
13734,86.0,36.0,150.0,0.0,0.0
13735,59.0,0.0,150.0,2.0,0.0
13736,59.0,0.0,180.0,12.0,0.0
13737,78.0,0.0,150.0,1.0,0.0
13738,83.0,0.0,150.0,1.0,0.0
13739,83.0,36.0,150.0,1.0,0.0
13740,59.0,0.0,180.0,12.0,0.0
13741,59.0,0.0,150.0,2.0,0.0
13742,47.0,0.0,180.0,14.0,0.0
13743,59.0,48.0,180.0,13.0,0.0
13744,78.0,0.0,150.0,1.0,0.0
13745,86.0,0.0,150.0,0.0,0.0
13746,61.0,0.0,180.0,13.0,0.0
13747,81.0,0.0,150.0,1.0,0.0
13748,49.0,120.0,180.0,14.0,0.0
13749,85.0,0.0,150.0,0.0,0.0
13750,54.0,0.0,300.0,3.0,0.0
13751,78.0,0.0,150.0,1.0,0.0
13752,73.0,0.0,450.0,11.0,0.0
13753,66.0,84.0,300.0,3.0,0.0
13754,61.0,0.0,180.0,12.0,0.0
13755,61.0,36.0,150.0,2.0,0.0
13756,85.0,264.0,450.0,10.0,0.0
13757,85.0,0.0,150.0,0.0,0.0
13758,78.0,0.0,150.0,1.0,0.0
13759,81.0,36.0,150.0,1.0,0.0
13760,49.0,0.0,180.0,14.0,0.0
13761,61.0,24.0,180.0,13.0,0.0
13762,61.0,0.0,180.0,12.0,0.0
13763,61.0,0.0,150.0,2.0,0.0
13764,73.0,72.0,240.0,11.0,0.0
13765,54.0,0.0,300.0,5.0,0.0
13766,85.0,0.0,240.0,10.0,0.0
13767,66.0,72.0,300.0,4.0,0.0
13768,78.0,0.0,300.0,4.0,0.0
13769,63.0,0.0,300.0,2.0,0.0
13770,71.0,0.0,300.0,1.0,0.0
13771,78.0,0.0,300.0,1.0,0.0
13772,63.0,0.0,390.0,12.0,0.0
13773,85.0,0.0,240.0,0.0,0.0
13774,51.0,0.0,390.0,14.0,0.0
13775,66.0,0.0,300.0,3.0,0.0
13776,54.0,0.0,300.0,3.0,0.0
13777,63.0,48.0,390.0,13.0,0.0
13778,83.0,0.0,180.0,0.0,0.0
13779,83.0,360.0,180.0,10.0,0.0
13780,71.0,0.0,180.0,11.0,0.0
13781,83.0,0.0,390.0,0.0,0.0
13782,66.0,0.0,300.0,3.0,0.0
13783,54.0,0.0,300.0,3.0,0.0
13784,71.0,72.0,300.0,1.0,0.0
13785,51.0,0.0,390.0,14.0,0.0
13786,63.0,0.0,300.0,2.0,0.0
13787,63.0,0.0,390.0,13.0,0.0
13788,78.0,0.0,300.0,1.0,0.0
13789,71.0,0.0,390.0,11.0,0.0
13790,66.0,0.0,300.0,4.0,0.0
13791,78.0,0.0,300.0,4.0,0.0
13792,83.0,0.0,390.0,10.0,0.0
13793,54.0,0.0,300.0,5.0,0.0
13794,63.0,1248.0,390.0,12.0,0.0
13795,62.0,0.0,300.0,2.0,0.0
13796,66.0,48.0,180.0,12.0,0.0
13797,78.0,312.0,480.0,11.0,0.0
13798,62.0,0.0,390.0,13.0,0.0
13799,66.0,0.0,300.0,3.0,0.0
13800,83.0,72.0,240.0,10.0,0.0
13801,54.0,72.0,300.0,3.0,0.0
13802,50.0,48.0,390.0,14.0,0.0
13803,84.0,48.0,180.0,10.0,0.0
13804,68.0,0.0,180.0,12.0,0.0
13805,68.0,0.0,390.0,12.0,0.0
13806,66.0,0.0,300.0,3.0,0.0
13807,54.0,72.0,300.0,3.0,0.0
13808,62.0,0.0,300.0,2.0,0.0
13809,78.0,0.0,390.0,11.0,0.0
13810,84.0,0.0,390.0,10.0,0.0
13811,62.0,0.0,390.0,13.0,0.0
13812,50.0,1776.0,390.0,14.0,0.0
13813,85.0,120.0,720.0,10.0,0.0
13814,61.0,0.0,1830.0,13.0,0.0
13815,78.0,0.0,1830.0,11.0,0.0
13816,61.0,72.0,1830.0,2.0,0.0
13817,61.0,0.0,3840.0,3.0,0.0
13818,49.0,0.0,3840.0,3.0,0.0
13819,69.0,0.0,1830.0,12.0,0.0
13820,49.0,0.0,1830.0,14.0,0.0
13821,81.0,96.0,120.0,10.0,0.0
13822,78.0,744.0,90.0,10.0,0.0
13823,85.0,120.0,720.0,10.0,0.0
13824,81.0,24.0,120.0,10.0,0.0
13825,78.0,336.0,90.0,10.0,0.0
13826,73.0,0.0,300.0,10.0,0.0
13827,81.0,0.0,960.0,1.0,0.0
13828,78.0,792.0,960.0,1.0,0.0
13829,69.0,480.0,300.0,11.0,0.0
13830,61.0,0.0,300.0,2.0,0.0
13831,49.0,0.0,300.0,14.0,0.0
13832,66.0,0.0,300.0,12.0,0.0
13833,85.0,0.0,960.0,0.0,0.0
13834,61.0,0.0,300.0,13.0,0.0
13835,69.0,0.0,300.0,11.0,0.0
13836,61.0,0.0,300.0,2.0,0.0
13837,49.0,168.0,300.0,14.0,0.0
13838,73.0,0.0,300.0,10.0,0.0
13839,61.0,0.0,300.0,13.0,0.0
13840,66.0,0.0,300.0,12.0,0.0
13841,83.0,0.0,960.0,1.0,0.0
13842,80.0,0.0,960.0,1.0,0.0
13843,89.0,0.0,960.0,0.0,0.0
13844,77.0,144.0,480.0,10.0,0.0
13845,49.0,168.0,300.0,14.0,0.0
13846,61.0,0.0,300.0,13.0,0.0
13847,71.0,0.0,480.0,11.0,0.0
13848,68.0,0.0,480.0,12.0,0.0
13849,61.0,0.0,300.0,2.0,0.0
13850,78.0,0.0,390.0,1.0,0.0
13851,81.0,96.0,390.0,1.0,0.0
13852,66.0,0.0,390.0,12.0,0.0
13853,78.0,0.0,390.0,10.0,0.0
13854,69.0,240.0,150.0,11.0,0.0
13855,42.0,240.0,960.0,14.0,0.0
13856,54.0,0.0,390.0,2.0,0.0
13857,54.0,0.0,390.0,3.0,0.0
13858,90.0,0.0,390.0,0.0,0.0
13859,54.0,0.0,960.0,13.0,0.0
13860,66.0,240.0,240.0,11.0,0.0
13861,73.0,228.0,240.0,11.0,0.0
13862,69.0,12.0,240.0,11.0,0.0
13863,61.0,240.0,480.0,12.0,0.0
13864,57.0,240.0,960.0,13.0,0.0
13865,65.0,228.0,240.0,11.0,0.0
13866,45.0,0.0,960.0,14.0,0.0
13867,66.0,12.0,240.0,11.0,0.0
13868,73.0,228.0,240.0,11.0,0.0
13869,54.0,12.0,930.0,12.0,0.0
13870,81.0,216.0,720.0,10.0,0.0
13871,69.0,12.0,240.0,11.0,0.0
13872,74.0,0.0,240.0,11.0,0.0
13873,59.0,0.0,960.0,13.0,0.0
13874,47.0,240.0,960.0,14.0,0.0
13875,71.0,240.0,240.0,11.0,0.0
13876,80.0,12.0,240.0,10.0,0.0
13877,68.0,228.0,240.0,11.0,0.0
13878,83.0,0.0,960.0,10.0,0.0
13879,62.0,48.0,900.0,12.0,0.0
13880,66.0,12.0,240.0,11.0,0.0
13881,61.0,24.0,900.0,13.0,0.0
13882,65.0,192.0,240.0,11.0,0.0
13883,49.0,0.0,900.0,14.0,0.0
13884,68.0,240.0,240.0,11.0,0.0
13885,81.0,0.0,450.0,10.0,0.0
13886,72.0,192.0,240.0,11.0,0.0
13887,61.0,12.0,450.0,12.0,0.0
13888,73.0,252.0,240.0,11.0,0.0
13889,80.0,0.0,480.0,10.0,0.0
13890,65.0,240.0,480.0,12.0,0.0
13891,62.0,0.0,960.0,13.0,0.0
13892,71.0,240.0,240.0,11.0,0.0
13893,50.0,240.0,960.0,14.0,0.0
13894,68.0,0.0,240.0,11.0,0.0
13895,66.0,0.0,450.0,12.0,0.0
13896,78.0,12.0,450.0,10.0,0.0
13897,71.0,216.0,240.0,11.0,0.0
13898,69.0,12.0,240.0,11.0,0.0
13899,72.0,240.0,240.0,11.0,0.0
13900,45.0,0.0,960.0,14.0,0.0
13901,57.0,240.0,960.0,13.0,0.0
13902,73.0,240.0,240.0,11.0,0.0
13903,81.0,228.0,720.0,10.0,0.0
13904,61.0,0.0,720.0,12.0,0.0
13905,69.0,228.0,240.0,11.0,0.0
13906,66.0,12.0,240.0,11.0,0.0
13907,59.0,240.0,960.0,13.0,0.0
13908,47.0,0.0,960.0,14.0,0.0
13909,74.0,0.0,240.0,11.0,0.0
13910,71.0,240.0,240.0,11.0,0.0
13911,62.0,0.0,240.0,12.0,0.0
13912,80.0,12.0,240.0,10.0,0.0
13913,59.0,0.0,240.0,12.0,0.0
13914,68.0,228.0,240.0,11.0,0.0
13915,86.0,0.0,960.0,10.0,0.0
13916,66.0,12.0,240.0,11.0,0.0
13917,57.0,0.0,240.0,12.0,0.0
13918,61.0,24.0,900.0,13.0,0.0
13919,65.0,240.0,240.0,11.0,0.0
13920,49.0,0.0,900.0,14.0,0.0
13921,56.0,0.0,480.0,12.0,0.0
13922,68.0,240.0,240.0,11.0,0.0
13923,65.0,0.0,720.0,12.0,0.0
13924,85.0,12.0,450.0,10.0,0.0
13925,71.0,192.0,240.0,11.0,0.0
13926,77.0,252.0,240.0,11.0,0.0
13927,80.0,192.0,240.0,11.0,0.0
13928,83.0,240.0,480.0,10.0,0.0
13929,62.0,0.0,960.0,13.0,0.0
13930,50.0,240.0,960.0,14.0,0.0
13931,77.0,0.0,240.0,11.0,0.0
13932,68.0,48.0,180.0,12.0,0.0
13933,80.0,216.0,240.0,11.0,0.0
13934,81.0,12.0,450.0,10.0,0.0
13935,66.0,0.0,450.0,12.0,0.0
13936,78.0,12.0,240.0,11.0,0.0
13937,72.0,240.0,240.0,11.0,0.0
13938,66.0,0.0,960.0,2.0,0.0
13939,69.0,0.0,960.0,2.0,0.0
13940,69.0,0.0,960.0,12.0,0.0
13941,57.0,0.0,960.0,13.0,0.0
13942,45.0,0.0,960.0,14.0,0.0
13943,81.0,240.0,960.0,1.0,0.0
13944,78.0,0.0,1920.0,1.0,0.0
13945,73.0,240.0,240.0,11.0,0.0
13946,90.0,12.0,450.0,10.0,0.0
13947,74.0,216.0,240.0,11.0,0.0
13948,73.0,12.0,240.0,11.0,0.0
13949,68.0,0.0,960.0,12.0,0.0
13950,59.0,0.0,960.0,13.0,0.0
13951,76.0,240.0,240.0,11.0,0.0
13952,80.0,0.0,1920.0,1.0,0.0
13953,62.0,240.0,960.0,2.0,0.0
13954,68.0,0.0,1920.0,2.0,0.0
13955,47.0,0.0,960.0,14.0,0.0
13956,74.0,240.0,240.0,11.0,0.0
13957,71.0,216.0,240.0,11.0,0.0
13958,80.0,12.0,450.0,10.0,0.0
13959,68.0,12.0,240.0,11.0,0.0
13960,66.0,240.0,240.0,11.0,0.0
13961,49.0,0.0,930.0,14.0,0.0
13962,65.0,0.0,960.0,2.0,0.0
13963,71.0,8.0,930.0,12.0,0.0
13964,61.0,0.0,930.0,13.0,0.0
13965,77.0,192.0,960.0,1.0,0.0
13966,65.0,240.0,240.0,11.0,0.0
13967,68.0,144.0,240.0,11.0,0.0
13968,85.0,76.0,390.0,10.0,0.0
13969,65.0,12.0,240.0,11.0,0.0
13970,54.0,96.0,390.0,13.0,0.0
13971,42.0,0.0,390.0,14.0,0.0
13972,66.0,0.0,180.0,11.0,0.0
13973,66.0,0.0,390.0,2.0,0.0
13974,69.0,144.0,480.0,12.0,0.0
13975,78.0,192.0,180.0,10.0,0.0
13976,78.0,144.0,2400.0,1.0,0.0
13977,66.0,0.0,390.0,11.0,0.0
13978,66.0,216.0,390.0,10.0,0.0
13979,54.0,0.0,120.0,12.0,0.0
13980,66.0,48.0,390.0,10.0,0.0
13981,54.0,120.0,120.0,2.0,0.0
13982,66.0,144.0,240.0,11.0,0.0
13983,56.0,0.0,120.0,12.0,0.0
13984,56.0,0.0,120.0,2.0,0.0
13985,58.0,144.0,480.0,2.0,0.0
13986,64.0,288.0,180.0,11.0,0.0
13987,58.0,0.0,480.0,12.0,0.0
13988,64.0,0.0,390.0,11.0,0.0
13989,66.0,176.0,390.0,10.0,0.0
13990,66.0,0.0,240.0,10.0,0.0
13991,64.0,144.0,240.0,11.0,0.0
13992,54.0,0.0,90.0,2.0,0.0
13993,54.0,80.0,90.0,12.0,0.0
13994,56.0,80.0,90.0,12.0,0.0
13995,56.0,0.0,90.0,2.0,0.0
13996,58.0,0.0,90.0,2.0,0.0
13997,58.0,0.0,90.0,12.0,0.0
13998,59.0,228.0,150.0,12.0,0.0
13999,59.0,0.0,480.0,2.0,0.0
14000,62.0,12.0,150.0,11.0,0.0
14001,66.0,0.0,150.0,10.0,0.0
14002,66.0,12.0,150.0,10.0,0.0
14003,62.0,0.0,150.0,11.0,0.0
14004,59.0,84.0,150.0,12.0,0.0
14005,62.0,164.0,150.0,12.0,0.0
14006,71.0,0.0,150.0,10.0,0.0
14007,80.0,0.0,480.0,1.0,0.0
14008,83.0,0.0,480.0,1.0,0.0
14009,68.0,12.0,150.0,11.0,0.0
14010,71.0,0.0,150.0,10.0,0.0
14011,56.0,0.0,90.0,13.0,0.0
14012,62.0,4.0,150.0,12.0,0.0
14013,68.0,12.0,150.0,11.0,0.0
14014,44.0,64.0,90.0,14.0,0.0
14015,56.0,0.0,90.0,2.0,0.0
14016,57.0,0.0,90.0,13.0,0.0
14017,57.0,0.0,90.0,2.0,0.0
14018,45.0,80.0,90.0,14.0,0.0
14019,59.0,144.0,90.0,13.0,0.0
14020,59.0,0.0,90.0,2.0,0.0
14021,47.0,0.0,90.0,14.0,0.0
14022,49.0,0.0,480.0,14.0,0.0
14023,69.0,12.0,150.0,10.0,0.0
14024,73.0,0.0,390.0,4.0,0.0
14025,61.0,0.0,390.0,4.0,0.0
14026,66.0,0.0,150.0,11.0,0.0
14027,61.0,0.0,480.0,2.0,0.0
14028,78.0,144.0,480.0,1.0,0.0
14029,61.0,228.0,150.0,12.0,0.0
14030,61.0,0.0,480.0,13.0,0.0
14031,49.0,0.0,390.0,3.0,0.0
14032,61.0,12.0,390.0,3.0,0.0
14033,81.0,0.0,480.0,1.0,0.0
14034,49.0,0.0,390.0,5.0,0.0
14035,69.0,0.0,150.0,10.0,0.0
14036,61.0,84.0,150.0,12.0,0.0
14037,66.0,0.0,150.0,11.0,0.0
14038,68.0,12.0,150.0,10.0,0.0
14039,61.0,0.0,150.0,11.0,0.0
14040,59.0,164.0,150.0,12.0,0.0
14041,77.0,0.0,450.0,1.0,0.0
14042,80.0,24.0,450.0,1.0,0.0
14043,49.0,64.0,90.0,2.0,0.0
14044,59.0,4.0,150.0,12.0,0.0
14045,61.0,0.0,150.0,11.0,0.0
14046,49.0,0.0,90.0,13.0,0.0
14047,68.0,12.0,150.0,10.0,0.0
14048,37.0,0.0,90.0,14.0,0.0
14049,51.0,0.0,90.0,13.0,0.0
14050,39.0,0.0,90.0,14.0,0.0
14051,51.0,56.0,90.0,2.0,0.0
14052,53.0,0.0,90.0,13.0,0.0
14053,41.0,0.0,90.0,14.0,0.0
14054,53.0,192.0,90.0,2.0,0.0
14055,78.0,0.0,390.0,4.0,0.0
14056,54.0,0.0,390.0,13.0,0.0
14057,66.0,0.0,390.0,4.0,0.0
14058,54.0,96.0,390.0,5.0,0.0
14059,57.0,144.0,480.0,12.0,0.0
14060,54.0,0.0,390.0,3.0,0.0
14061,54.0,0.0,390.0,2.0,0.0
14062,66.0,0.0,390.0,3.0,0.0
14063,61.0,192.0,180.0,11.0,0.0
14064,66.0,0.0,180.0,10.0,0.0
14065,42.0,0.0,390.0,14.0,0.0
14066,78.0,0.0,2400.0,1.0,0.0
14067,66.0,0.0,390.0,10.0,0.0
14068,66.0,216.0,390.0,11.0,0.0
14069,66.0,0.0,240.0,11.0,0.0
14070,54.0,0.0,120.0,12.0,0.0
14071,54.0,120.0,120.0,2.0,0.0
14072,66.0,48.0,390.0,10.0,0.0
14073,56.0,0.0,120.0,2.0,0.0
14074,56.0,144.0,120.0,12.0,0.0
14075,64.0,288.0,180.0,11.0,0.0
14076,58.0,0.0,480.0,2.0,0.0
14077,58.0,144.0,480.0,12.0,0.0
14078,66.0,0.0,390.0,10.0,0.0
14079,64.0,176.0,390.0,11.0,0.0
14080,64.0,0.0,240.0,11.0,0.0
14081,54.0,0.0,90.0,2.0,0.0
14082,54.0,80.0,90.0,12.0,0.0
14083,56.0,0.0,90.0,12.0,0.0
14084,56.0,80.0,90.0,2.0,0.0
14085,58.0,0.0,90.0,12.0,0.0
14086,58.0,144.0,90.0,2.0,0.0
14087,66.0,0.0,15.0,10.0,0.0
14088,59.0,144.0,480.0,2.0,0.0
14089,59.0,228.0,150.0,12.0,0.0
14090,62.0,12.0,150.0,11.0,0.0
14091,66.0,12.0,150.0,10.0,0.0
14092,59.0,84.0,150.0,12.0,0.0
14093,62.0,0.0,150.0,11.0,0.0
14094,68.0,0.0,150.0,11.0,0.0
14095,83.0,0.0,480.0,1.0,0.0
14096,80.0,0.0,480.0,1.0,0.0
14097,71.0,12.0,150.0,10.0,0.0
14098,62.0,164.0,150.0,12.0,0.0
14099,44.0,0.0,90.0,14.0,0.0
14100,68.0,0.0,150.0,11.0,0.0
14101,62.0,4.0,150.0,12.0,0.0
14102,56.0,0.0,90.0,13.0,0.0
14103,71.0,12.0,150.0,10.0,0.0
14104,56.0,64.0,90.0,2.0,0.0
14105,45.0,0.0,90.0,14.0,0.0
14106,57.0,0.0,90.0,13.0,0.0
14107,57.0,80.0,90.0,2.0,0.0
14108,47.0,0.0,90.0,14.0,0.0
14109,59.0,144.0,90.0,13.0,0.0
14110,59.0,0.0,90.0,2.0,0.0
14111,61.0,0.0,390.0,4.0,0.0
14112,73.0,0.0,390.0,4.0,0.0
14113,78.0,0.0,480.0,1.0,0.0
14114,61.0,0.0,390.0,3.0,0.0
14115,49.0,144.0,480.0,14.0,0.0
14116,61.0,228.0,150.0,12.0,0.0
14117,81.0,0.0,480.0,1.0,0.0
14118,69.0,12.0,150.0,10.0,0.0
14119,49.0,0.0,390.0,3.0,0.0
14120,66.0,0.0,150.0,11.0,0.0
14121,61.0,0.0,480.0,2.0,0.0
14122,49.0,0.0,390.0,5.0,0.0
14123,61.0,0.0,480.0,13.0,0.0
14124,61.0,84.0,150.0,12.0,0.0
14125,66.0,0.0,150.0,11.0,0.0
14126,69.0,12.0,150.0,10.0,0.0
14127,61.0,0.0,150.0,11.0,0.0
14128,80.0,24.0,450.0,1.0,0.0
14129,77.0,0.0,450.0,1.0,0.0
14130,59.0,164.0,150.0,12.0,0.0
14131,68.0,12.0,150.0,10.0,0.0
14132,49.0,64.0,90.0,13.0,0.0
14133,49.0,0.0,90.0,2.0,0.0
14134,68.0,0.0,150.0,10.0,0.0
14135,59.0,4.0,150.0,12.0,0.0
14136,61.0,12.0,150.0,11.0,0.0
14137,37.0,0.0,90.0,14.0,0.0
14138,39.0,0.0,90.0,14.0,0.0
14139,51.0,0.0,90.0,2.0,0.0
14140,51.0,56.0,90.0,13.0,0.0
14141,41.0,0.0,90.0,14.0,0.0
14142,53.0,240.0,90.0,2.0,0.0
14143,53.0,0.0,90.0,13.0,0.0
14144,78.0,0.0,390.0,4.0,0.0
14145,66.0,0.0,390.0,3.0,0.0
14146,90.0,0.0,1200.0,0.0,0.0
14147,42.0,144.0,780.0,14.0,0.0
14148,54.0,96.0,390.0,5.0,0.0
14149,66.0,0.0,1200.0,10.0,0.0
14150,54.0,0.0,780.0,13.0,0.0
14151,66.0,0.0,390.0,4.0,0.0
14152,54.0,0.0,390.0,3.0,0.0
14153,61.0,144.0,240.0,11.0,0.0
14154,57.0,0.0,240.0,12.0,0.0
14155,78.0,240.0,1200.0,1.0,0.0
14156,54.0,0.0,780.0,2.0,0.0
14157,62.0,0.0,240.0,11.0,0.0
14158,59.0,240.0,240.0,12.0,0.0
14159,61.0,0.0,240.0,11.0,0.0
14160,57.0,48.0,240.0,12.0,0.0
14161,59.0,240.0,240.0,12.0,0.0
14162,62.0,48.0,180.0,11.0,0.0
14163,61.0,240.0,1200.0,11.0,0.0
14164,57.0,0.0,240.0,12.0,0.0
14165,89.0,0.0,240.0,0.0,0.0
14166,71.0,0.0,240.0,10.0,0.0
14167,56.0,240.0,240.0,12.0,0.0
14168,83.0,0.0,240.0,1.0,0.0
14169,90.0,80.0,240.0,0.0,0.0
14170,69.0,0.0,240.0,10.0,0.0
14171,81.0,0.0,240.0,1.0,0.0
14172,54.0,0.0,240.0,12.0,0.0
14173,49.0,0.0,90.0,13.0,0.0
14174,80.0,0.0,180.0,1.0,0.0
14175,37.0,80.0,90.0,14.0,0.0
14176,89.0,0.0,180.0,0.0,0.0
14177,68.0,48.0,180.0,10.0,0.0
14178,59.0,0.0,240.0,12.0,0.0
14179,49.0,0.0,90.0,2.0,0.0
14180,39.0,32.0,90.0,14.0,0.0
14181,51.0,0.0,90.0,2.0,0.0
14182,51.0,0.0,90.0,13.0,0.0
14183,41.0,240.0,90.0,14.0,0.0
14184,53.0,0.0,90.0,13.0,0.0
14185,53.0,0.0,90.0,2.0,0.0
14186,54.0,0.0,780.0,13.0,0.0
14187,57.0,0.0,240.0,12.0,0.0
14188,66.0,240.0,1200.0,10.0,0.0
14189,54.0,0.0,780.0,2.0,0.0
14190,78.0,0.0,1200.0,1.0,0.0
14191,42.0,144.0,780.0,14.0,0.0
14192,90.0,0.0,1200.0,0.0,0.0
14193,59.0,0.0,240.0,12.0,0.0
14194,62.0,240.0,240.0,11.0,0.0
14195,57.0,0.0,240.0,12.0,0.0
14196,61.0,48.0,240.0,11.0,0.0
14197,59.0,240.0,240.0,12.0,0.0
14198,62.0,48.0,180.0,11.0,0.0
14199,61.0,0.0,1350.0,11.0,0.0
14200,57.0,0.0,240.0,12.0,0.0
14201,56.0,0.0,240.0,12.0,0.0
14202,83.0,0.0,240.0,1.0,0.0
14203,71.0,0.0,240.0,10.0,0.0
14204,89.0,240.0,240.0,0.0,0.0
14205,54.0,0.0,240.0,12.0,0.0
14206,69.0,80.0,240.0,10.0,0.0
14207,90.0,0.0,240.0,0.0,0.0
14208,81.0,0.0,240.0,1.0,0.0
14209,80.0,48.0,180.0,1.0,0.0
14210,37.0,80.0,90.0,14.0,0.0
14211,59.0,0.0,240.0,12.0,0.0
14212,89.0,0.0,180.0,0.0,0.0
14213,49.0,0.0,90.0,2.0,0.0
14214,68.0,0.0,240.0,10.0,0.0
14215,49.0,0.0,90.0,13.0,0.0
14216,51.0,32.0,90.0,13.0,0.0
14217,51.0,0.0,90.0,2.0,0.0
14218,39.0,0.0,90.0,14.0,0.0
14219,53.0,384.0,90.0,2.0,0.0
14220,53.0,0.0,90.0,13.0,0.0
14221,41.0,0.0,90.0,14.0,0.0
14222,54.0,0.0,390.0,13.0,0.0
14223,57.0,0.0,390.0,12.0,0.0
14224,66.0,0.0,390.0,10.0,0.0
14225,42.0,0.0,390.0,14.0,0.0
14226,54.0,0.0,390.0,2.0,0.0
14227,90.0,0.0,390.0,0.0,0.0
14228,78.0,960.0,390.0,1.0,0.0
14229,42.0,0.0,390.0,14.0,0.0
14230,90.0,0.0,390.0,0.0,0.0
14231,54.0,0.0,390.0,2.0,0.0
14232,57.0,0.0,390.0,12.0,0.0
14233,54.0,0.0,390.0,13.0,0.0
14234,78.0,0.0,390.0,1.0,0.0
14235,61.0,0.0,390.0,11.0,0.0
14236,66.0,960.0,390.0,10.0,0.0
14237,66.0,0.0,390.0,10.0,0.0
14238,42.0,0.0,390.0,14.0,0.0
14239,61.0,0.0,390.0,11.0,0.0
14240,57.0,0.0,390.0,12.0,0.0
14241,78.0,0.0,390.0,1.0,0.0
14242,54.0,4224.0,390.0,13.0,0.0
14243,54.0,0.0,390.0,2.0,0.0
14244,90.0,0.0,390.0,0.0,0.0
14245,32.0,0.0,780.0,14.0,0.0
