,note,step,duration,channel,velocity
0,47.0,13.0,930.0,5.0,0.0
1,35.0,0.0,960.0,11.0,0.0
2,47.0,911.0,960.0,0.0,0.0
3,59.0,41.0,930.0,5.0,0.0
4,63.0,1.0,1020.0,5.0,0.0
5,51.0,50.0,960.0,5.0,0.0
6,39.0,775.0,990.0,11.0,0.0
7,51.0,0.0,990.0,0.0,0.0
8,66.0,35.0,960.0,5.0,0.0
9,54.0,130.0,810.0,5.0,0.0
10,54.0,0.0,960.0,0.0,0.0
11,42.0,788.0,960.0,11.0,0.0
12,54.0,19.0,840.0,5.0,0.0
13,42.0,37.0,810.0,5.0,0.0
14,42.0,219.0,870.0,0.0,0.0
15,30.0,0.0,870.0,11.0,0.0
16,47.0,0.0,510.0,0.0,0.0
17,35.0,366.0,510.0,11.0,0.0
18,59.0,12.0,1980.0,5.0,0.0
19,47.0,48.0,1980.0,5.0,0.0
20,54.0,12.0,90.0,2.0,0.0
21,59.0,183.0,120.0,1.0,0.0
22,51.0,8.0,90.0,3.0,0.0
23,47.0,9.0,60.0,4.0,0.0
24,47.0,47.0,90.0,4.0,0.0
25,59.0,4.0,120.0,1.0,0.0
26,54.0,112.0,120.0,2.0,0.0
27,51.0,6.0,120.0,3.0,0.0
28,39.0,61.0,510.0,11.0,0.0
29,51.0,0.0,510.0,0.0,0.0
30,59.0,27.0,150.0,1.0,0.0
31,54.0,2.0,180.0,2.0,0.0
32,51.0,73.0,180.0,3.0,0.0
33,47.0,15.0,180.0,4.0,0.0
34,47.0,5.0,120.0,4.0,0.0
35,42.0,354.0,540.0,11.0,0.0
36,54.0,0.0,540.0,0.0,0.0
37,51.0,6.0,120.0,3.0,0.0
38,59.0,16.0,90.0,1.0,0.0
39,54.0,194.0,120.0,2.0,0.0
40,47.0,237.0,90.0,4.0,0.0
41,51.0,5.0,60.0,3.0,0.0
42,59.0,3.0,60.0,1.0,0.0
43,54.0,1.0,60.0,2.0,0.0
44,35.0,0.0,510.0,11.0,0.0
45,47.0,11.0,510.0,0.0,0.0
46,51.0,44.0,180.0,3.0,0.0
47,59.0,2.0,240.0,1.0,0.0
48,54.0,5.0,240.0,2.0,0.0
49,47.0,32.0,210.0,4.0,0.0
50,51.0,6.0,120.0,3.0,0.0
51,66.0,3.0,120.0,1.0,0.0
52,61.0,202.0,120.0,2.0,0.0
53,54.0,12.0,1890.0,5.0,0.0
54,61.0,15.0,1950.0,5.0,0.0
55,49.0,10.0,120.0,4.0,0.0
56,34.0,281.0,480.0,11.0,0.0
57,46.0,0.0,480.0,0.0,0.0
58,49.0,4.0,90.0,4.0,0.0
59,51.0,17.0,90.0,3.0,0.0
60,61.0,133.0,120.0,2.0,0.0
61,66.0,24.0,90.0,1.0,0.0
62,49.0,57.0,480.0,0.0,0.0
63,37.0,0.0,480.0,11.0,0.0
64,58.0,4.0,180.0,3.0,0.0
65,66.0,19.0,150.0,1.0,0.0
66,61.0,76.0,180.0,2.0,0.0
67,52.0,91.0,60.0,4.0,0.0
68,58.0,29.0,90.0,3.0,0.0
69,54.0,4.0,90.0,4.0,0.0
70,61.0,192.0,120.0,2.0,0.0
71,66.0,0.0,120.0,1.0,0.0
72,42.0,0.0,510.0,11.0,0.0
73,54.0,400.0,510.0,0.0,0.0
74,54.0,4.0,90.0,4.0,0.0
75,58.0,18.0,90.0,3.0,0.0
76,61.0,11.0,90.0,2.0,0.0
77,66.0,190.0,90.0,1.0,0.0
78,34.0,0.0,510.0,11.0,0.0
79,46.0,60.0,510.0,0.0,0.0
80,58.0,6.0,270.0,3.0,0.0
81,54.0,20.0,210.0,4.0,0.0
82,66.0,19.0,240.0,1.0,0.0
83,61.0,10.0,240.0,2.0,0.0
84,51.0,10.0,120.0,4.0,0.0
85,59.0,78.0,2940.0,5.0,0.0
86,63.0,83.0,1980.0,5.0,0.0
87,56.0,17.0,120.0,3.0,0.0
88,59.0,5.0,120.0,2.0,0.0
89,71.0,181.0,120.0,1.0,0.0
90,32.0,0.0,540.0,11.0,0.0
91,44.0,317.0,540.0,0.0,0.0
92,51.0,9.0,90.0,4.0,0.0
93,56.0,64.0,120.0,3.0,0.0
94,59.0,6.0,90.0,2.0,0.0
95,71.0,153.0,120.0,1.0,0.0
96,35.0,0.0,480.0,11.0,0.0
97,47.0,58.0,480.0,0.0,0.0
98,63.0,50.0,180.0,2.0,0.0
99,56.0,20.0,240.0,4.0,0.0
100,71.0,53.0,120.0,1.0,0.0
101,59.0,7.0,150.0,3.0,0.0
102,63.0,2.0,120.0,2.0,0.0
103,59.0,6.0,90.0,3.0,0.0
104,54.0,204.0,90.0,4.0,0.0
105,71.0,7.0,60.0,1.0,0.0
106,51.0,401.0,480.0,0.0,0.0
107,39.0,0.0,480.0,11.0,0.0
108,54.0,20.0,120.0,4.0,0.0
109,59.0,8.0,60.0,3.0,0.0
110,63.0,25.0,60.0,2.0,0.0
111,71.0,152.0,90.0,1.0,0.0
112,39.0,2.0,480.0,0.0,0.0
113,27.0,0.0,480.0,11.0,0.0
114,63.0,28.0,210.0,1.0,0.0
115,51.0,19.0,240.0,4.0,0.0
116,59.0,25.0,180.0,2.0,0.0
117,54.0,10.0,210.0,3.0,0.0
118,61.0,57.0,1950.0,5.0,0.0
119,52.0,181.0,150.0,4.0,0.0
120,61.0,0.0,150.0,1.0,0.0
121,56.0,20.0,120.0,3.0,0.0
122,40.0,439.0,480.0,0.0,0.0
123,28.0,0.0,480.0,11.0,0.0
124,59.0,5.0,90.0,2.0,0.0
125,56.0,19.0,90.0,3.0,0.0
126,52.0,125.0,120.0,4.0,0.0
127,59.0,13.0,90.0,2.0,0.0
128,61.0,10.0,90.0,1.0,0.0
129,49.0,0.0,480.0,0.0,0.0
130,37.0,5.0,480.0,11.0,0.0
131,61.0,2.0,240.0,1.0,0.0
132,59.0,33.0,180.0,2.0,0.0
133,52.0,1.0,240.0,4.0,0.0
134,56.0,27.0,210.0,3.0,0.0
135,42.0,398.0,480.0,0.0,0.0
136,30.0,0.0,480.0,11.0,0.0
137,54.0,6.0,120.0,3.0,0.0
138,49.0,180.0,180.0,4.0,0.0
139,54.0,25.0,960.0,5.0,0.0
140,58.0,36.0,120.0,2.0,0.0
141,64.0,2.0,120.0,1.0,0.0
142,49.0,99.0,150.0,4.0,0.0
143,54.0,6.0,90.0,3.0,0.0
144,58.0,25.0,90.0,2.0,0.0
145,64.0,3.0,90.0,1.0,0.0
146,42.0,0.0,420.0,11.0,0.0
147,54.0,30.0,420.0,0.0,0.0
148,54.0,13.0,180.0,3.0,0.0
149,52.0,26.0,210.0,4.0,0.0
150,61.0,8.0,210.0,1.0,0.0
151,58.0,18.0,210.0,2.0,0.0
152,54.0,11.0,120.0,3.0,0.0
153,51.0,98.0,240.0,4.0,0.0
154,59.0,6.0,1260.0,5.0,0.0
155,47.0,5.0,1290.0,5.0,0.0
156,59.0,1.0,240.0,2.0,0.0
157,59.0,126.0,90.0,1.0,0.0
158,47.0,361.0,480.0,0.0,0.0
159,35.0,0.0,480.0,11.0,0.0
160,78.0,2.0,3360.0,6.0,0.0
161,47.0,109.0,180.0,4.0,0.0
162,51.0,43.0,120.0,3.0,0.0
163,54.0,12.0,120.0,2.0,0.0
164,59.0,12.0,60.0,1.0,0.0
165,39.0,61.0,480.0,11.0,0.0
166,51.0,0.0,480.0,0.0,0.0
167,51.0,10.0,180.0,3.0,0.0
168,47.0,28.0,150.0,4.0,0.0
169,54.0,51.0,180.0,2.0,0.0
170,59.0,20.0,180.0,1.0,0.0
171,47.0,3.0,120.0,4.0,0.0
172,42.0,399.0,540.0,11.0,0.0
173,54.0,0.0,540.0,0.0,0.0
174,51.0,9.0,90.0,3.0,0.0
175,59.0,10.0,90.0,1.0,0.0
176,54.0,197.0,90.0,2.0,0.0
177,51.0,7.0,90.0,3.0,0.0
178,47.0,188.0,120.0,4.0,0.0
179,54.0,10.0,90.0,2.0,0.0
180,59.0,10.0,60.0,1.0,0.0
181,35.0,12.0,510.0,11.0,0.0
182,47.0,0.0,510.0,0.0,0.0
183,51.0,16.0,210.0,4.0,0.0
184,54.0,8.0,270.0,3.0,0.0
185,59.0,73.0,270.0,2.0,0.0
186,59.0,37.0,210.0,1.0,0.0
187,58.0,18.0,120.0,3.0,0.0
188,54.0,3.0,150.0,4.0,0.0
189,46.0,0.0,510.0,0.0,0.0
190,61.0,190.0,120.0,2.0,0.0
191,34.0,342.0,510.0,11.0,0.0
192,66.0,2.0,120.0,1.0,0.0
193,58.0,24.0,120.0,3.0,0.0
194,54.0,13.0,150.0,4.0,0.0
195,61.0,138.0,120.0,2.0,0.0
196,66.0,20.0,90.0,1.0,0.0
197,37.0,90.0,480.0,11.0,0.0
198,49.0,0.0,480.0,0.0,0.0
199,54.0,50.0,150.0,4.0,0.0
200,58.0,10.0,180.0,3.0,0.0
201,66.0,0.0,180.0,1.0,0.0
202,61.0,44.0,180.0,2.0,0.0
203,54.0,205.0,120.0,4.0,0.0
204,42.0,214.0,510.0,11.0,0.0
205,54.0,0.0,510.0,0.0,0.0
206,58.0,9.0,90.0,3.0,0.0
207,66.0,21.0,90.0,1.0,0.0
208,61.0,1.0,90.0,2.0,0.0
209,58.0,10.0,90.0,3.0,0.0
210,54.0,14.0,120.0,4.0,0.0
211,66.0,9.0,90.0,1.0,0.0
212,61.0,145.0,90.0,2.0,0.0
213,76.0,194.0,270.0,6.0,0.0
214,34.0,15.0,510.0,11.0,0.0
215,46.0,0.0,510.0,0.0,0.0
216,75.0,5.0,240.0,6.0,0.0
217,54.0,27.0,210.0,4.0,0.0
218,61.0,71.0,270.0,2.0,0.0
219,58.0,14.0,180.0,3.0,0.0
220,66.0,18.0,240.0,1.0,0.0
221,73.0,28.0,540.0,6.0,0.0
222,59.0,9.0,120.0,3.0,0.0
223,32.0,0.0,570.0,11.0,0.0
224,44.0,346.0,570.0,0.0,0.0
225,63.0,192.0,120.0,2.0,0.0
226,51.0,14.0,120.0,4.0,0.0
227,71.0,2.0,120.0,1.0,0.0
228,59.0,20.0,90.0,3.0,0.0
229,51.0,14.0,120.0,4.0,0.0
230,71.0,9.0,90.0,1.0,0.0
231,63.0,156.0,120.0,2.0,0.0
232,71.0,56.0,750.0,6.0,0.0
233,47.0,55.0,480.0,0.0,0.0
234,35.0,0.0,480.0,11.0,0.0
235,51.0,4.0,180.0,4.0,0.0
236,63.0,15.0,150.0,1.0,0.0
237,56.0,16.0,180.0,3.0,0.0
238,59.0,52.0,180.0,2.0,0.0
239,51.0,125.0,120.0,4.0,0.0
240,59.0,16.0,90.0,2.0,0.0
241,63.0,23.0,60.0,1.0,0.0
242,56.0,29.0,90.0,3.0,0.0
243,39.0,35.0,570.0,11.0,0.0
244,51.0,0.0,570.0,0.0,0.0
245,51.0,55.0,90.0,4.0,0.0
246,70.0,95.0,150.0,6.0,0.0
247,56.0,5.0,90.0,3.0,0.0
248,59.0,5.0,60.0,2.0,0.0
249,63.0,10.0,60.0,1.0,0.0
250,71.0,84.0,120.0,6.0,0.0
251,73.0,107.0,120.0,6.0,0.0
252,44.0,0.0,480.0,0.0,0.0
253,32.0,5.0,480.0,11.0,0.0
254,71.0,95.0,120.0,6.0,0.0
255,70.0,93.0,120.0,6.0,0.0
256,56.0,27.0,210.0,3.0,0.0
257,51.0,14.0,180.0,4.0,0.0
258,63.0,3.0,210.0,1.0,0.0
259,59.0,13.0,180.0,2.0,0.0
260,68.0,83.0,180.0,6.0,0.0
261,66.0,60.0,1410.0,6.0,0.0
262,66.0,15.0,90.0,1.0,0.0
263,54.0,40.0,120.0,3.0,0.0
264,39.0,0.0,480.0,0.0,0.0
265,27.0,302.0,480.0,11.0,0.0
266,51.0,170.0,150.0,4.0,0.0
267,59.0,1.0,90.0,2.0,0.0
268,71.0,72.0,1140.0,7.0,0.0
269,51.0,113.0,120.0,4.0,0.0
270,66.0,21.0,60.0,1.0,0.0
271,54.0,5.0,120.0,3.0,0.0
272,59.0,17.0,90.0,2.0,0.0
273,42.0,78.0,480.0,0.0,0.0
274,30.0,0.0,480.0,11.0,0.0
275,51.0,55.0,60.0,4.0,0.0
276,66.0,20.0,180.0,1.0,0.0
277,63.0,30.0,180.0,2.0,0.0
278,54.0,0.0,150.0,4.0,0.0
279,54.0,51.0,60.0,3.0,0.0
280,59.0,14.0,120.0,3.0,0.0
281,35.0,0.0,540.0,11.0,0.0
282,47.0,156.0,540.0,0.0,0.0
283,59.0,38.0,90.0,3.0,0.0
284,63.0,10.0,60.0,2.0,0.0
285,66.0,10.0,60.0,1.0,0.0
286,54.0,85.0,120.0,4.0,0.0
287,73.0,33.0,60.0,7.0,0.0
288,59.0,1.0,120.0,3.0,0.0
289,54.0,41.0,120.0,4.0,0.0
290,63.0,24.0,90.0,2.0,0.0
291,66.0,4.0,60.0,1.0,0.0
292,71.0,17.0,60.0,7.0,0.0
293,70.0,37.0,90.0,7.0,0.0
294,71.0,20.0,60.0,7.0,0.0
295,73.0,191.0,240.0,7.0,0.0
296,27.0,55.0,510.0,11.0,0.0
297,39.0,0.0,510.0,0.0,0.0
298,75.0,40.0,270.0,7.0,0.0
299,63.0,16.0,270.0,2.0,0.0
300,59.0,27.0,180.0,3.0,0.0
301,54.0,33.0,150.0,4.0,0.0
302,66.0,8.0,210.0,1.0,0.0
303,56.0,187.0,180.0,4.0,0.0
304,72.0,189.0,690.0,7.0,0.0
305,59.0,2.0,120.0,3.0,0.0
306,61.0,47.0,120.0,2.0,0.0
307,68.0,20.0,90.0,1.0,0.0
308,40.0,25.0,510.0,0.0,0.0
309,28.0,154.0,510.0,11.0,0.0
310,56.0,131.0,150.0,4.0,0.0
311,59.0,4.0,90.0,3.0,0.0
312,61.0,35.0,90.0,2.0,0.0
313,68.0,0.0,90.0,1.0,0.0
314,44.0,11.0,510.0,0.0,0.0
315,32.0,22.0,510.0,11.0,0.0
316,73.0,6.0,210.0,7.0,0.0
317,68.0,21.0,150.0,1.0,0.0
318,56.0,63.0,210.0,4.0,0.0
319,61.0,11.0,180.0,2.0,0.0
320,59.0,14.0,150.0,3.0,0.0
321,35.0,100.0,480.0,11.0,0.0
322,73.0,4.0,900.0,7.0,0.0
323,52.0,143.0,180.0,4.0,0.0
324,68.0,35.0,60.0,1.0,0.0
325,47.0,388.0,480.0,0.0,0.0
326,61.0,22.0,90.0,2.0,0.0
327,59.0,37.0,90.0,3.0,0.0
328,52.0,0.0,120.0,4.0,0.0
329,68.0,32.0,60.0,1.0,0.0
330,59.0,15.0,90.0,3.0,0.0
331,61.0,53.0,90.0,2.0,0.0
332,29.0,8.0,510.0,11.0,0.0
333,41.0,58.0,510.0,0.0,0.0
334,68.0,49.0,210.0,1.0,0.0
335,61.0,18.0,180.0,2.0,0.0
336,59.0,4.0,180.0,3.0,0.0
337,53.0,11.0,180.0,4.0,0.0
338,30.0,70.0,510.0,11.0,0.0
339,64.0,36.0,90.0,1.0,0.0
340,42.0,260.0,510.0,0.0,0.0
341,61.0,11.0,120.0,2.0,0.0
342,54.0,157.0,120.0,4.0,0.0
343,58.0,1.0,60.0,3.0,0.0
344,75.0,32.0,270.0,7.0,0.0
345,58.0,14.0,90.0,3.0,0.0
346,64.0,10.0,90.0,1.0,0.0
347,61.0,59.0,90.0,2.0,0.0
348,54.0,12.0,150.0,4.0,0.0
349,73.0,23.0,240.0,7.0,0.0
350,34.0,14.0,480.0,11.0,0.0
351,46.0,85.0,480.0,0.0,0.0
352,71.0,91.0,270.0,7.0,0.0
353,70.0,20.0,240.0,7.0,0.0
354,64.0,21.0,150.0,1.0,0.0
355,61.0,26.0,180.0,2.0,0.0
356,58.0,14.0,180.0,3.0,0.0
357,54.0,0.0,180.0,4.0,0.0
358,68.0,48.0,300.0,7.0,0.0
359,58.0,25.0,120.0,3.0,0.0
360,49.0,35.0,510.0,0.0,0.0
361,54.0,131.0,120.0,4.0,0.0
362,64.0,21.0,90.0,1.0,0.0
363,61.0,0.0,60.0,2.0,0.0
364,37.0,156.0,510.0,11.0,0.0
365,66.0,128.0,450.0,7.0,0.0
366,54.0,1.0,90.0,4.0,0.0
367,58.0,0.0,90.0,3.0,0.0
368,64.0,21.0,60.0,1.0,0.0
369,61.0,163.0,90.0,2.0,0.0
370,43.0,0.0,510.0,0.0,0.0
371,31.0,35.0,510.0,11.0,0.0
372,64.0,52.0,150.0,7.0,0.0
373,55.0,23.0,120.0,4.0,0.0
374,58.0,20.0,210.0,3.0,0.0
375,61.0,9.0,210.0,2.0,0.0
376,64.0,16.0,180.0,1.0,0.0
377,66.0,31.0,60.0,7.0,0.0
378,32.0,93.0,510.0,11.0,0.0
379,64.0,9.0,60.0,7.0,0.0
380,66.0,26.0,30.0,7.0,0.0
381,64.0,36.0,60.0,1.0,0.0
382,44.0,354.0,510.0,0.0,0.0
383,55.0,0.0,960.0,4.0,0.0
384,61.0,34.0,90.0,2.0,0.0
385,58.0,190.0,120.0,3.0,0.0
386,64.0,8.0,480.0,7.0,0.0
387,66.0,4.0,30.0,7.0,0.0
388,64.0,13.0,90.0,1.0,0.0
389,58.0,47.0,120.0,3.0,0.0
390,61.0,22.0,60.0,2.0,0.0
391,35.0,61.0,480.0,11.0,0.0
392,47.0,20.0,480.0,0.0,0.0
393,63.0,171.0,600.0,7.0,0.0
394,58.0,49.0,270.0,3.0,0.0
395,64.0,32.0,210.0,1.0,0.0
396,61.0,31.0,240.0,2.0,0.0
397,59.0,23.0,120.0,3.0,0.0
398,51.0,0.0,510.0,0.0,0.0
399,56.0,30.0,1410.0,4.0,0.0
400,39.0,439.0,510.0,11.0,0.0
401,63.0,2.0,90.0,1.0,0.0
402,59.0,20.0,90.0,2.0,0.0
403,59.0,20.0,60.0,2.0,0.0
404,63.0,22.0,90.0,1.0,0.0
405,59.0,148.0,120.0,3.0,0.0
406,32.0,29.0,510.0,11.0,0.0
407,44.0,0.0,510.0,0.0,0.0
408,59.0,21.0,240.0,3.0,0.0
409,63.0,3.0,270.0,1.0,0.0
410,63.0,83.0,270.0,2.0,0.0
411,68.0,194.0,150.0,1.0,0.0
412,52.0,0.0,480.0,0.0,0.0
413,40.0,418.0,480.0,11.0,0.0
414,56.0,12.0,120.0,3.0,0.0
415,68.0,10.0,930.0,8.0,0.0
416,59.0,19.0,90.0,2.0,0.0
417,56.0,81.0,120.0,3.0,0.0
418,59.0,19.0,90.0,2.0,0.0
419,68.0,11.0,90.0,1.0,0.0
420,39.0,0.0,510.0,11.0,0.0
421,51.0,89.0,510.0,0.0,0.0
422,51.0,7.0,450.0,4.0,0.0
423,60.0,0.0,240.0,3.0,0.0
424,66.0,23.0,240.0,2.0,0.0
425,68.0,48.0,180.0,1.0,0.0
426,61.0,212.0,150.0,3.0,0.0
427,52.0,41.0,480.0,4.0,0.0
428,64.0,19.0,120.0,2.0,0.0
429,68.0,5.0,120.0,1.0,0.0
430,37.0,334.0,510.0,11.0,0.0
431,49.0,0.0,510.0,0.0,0.0
432,56.0,85.0,840.0,8.0,0.0
433,61.0,104.0,150.0,3.0,0.0
434,64.0,19.0,120.0,2.0,0.0
435,68.0,5.0,90.0,1.0,0.0
436,47.0,3.0,480.0,4.0,0.0
437,47.0,13.0,480.0,0.0,0.0
438,35.0,0.0,480.0,11.0,0.0
439,63.0,21.0,210.0,3.0,0.0
440,63.0,43.0,270.0,2.0,0.0
441,68.0,27.0,210.0,1.0,0.0
442,66.0,63.0,90.0,1.0,0.0
443,61.0,185.0,150.0,2.0,0.0
444,54.0,41.0,1950.0,4.0,0.0
445,64.0,430.0,1440.0,3.0,0.0
446,34.0,0.0,510.0,11.0,0.0
447,73.0,36.0,930.0,8.0,0.0
448,46.0,385.0,510.0,0.0,0.0
449,66.0,64.0,90.0,1.0,0.0
450,61.0,126.0,150.0,2.0,0.0
451,32.0,3.0,510.0,11.0,0.0
452,44.0,0.0,510.0,0.0,0.0
453,66.0,50.0,180.0,1.0,0.0
454,59.0,18.0,240.0,2.0,0.0
455,66.0,75.0,60.0,1.0,0.0
456,58.0,197.0,120.0,2.0,0.0
457,42.0,5.0,480.0,0.0,0.0
458,30.0,0.0,480.0,11.0,0.0
459,46.0,33.0,900.0,8.0,0.0
460,58.0,54.0,180.0,2.0,0.0
461,66.0,111.0,60.0,1.0,0.0
462,61.0,2.0,510.0,3.0,0.0
463,40.0,28.0,480.0,0.0,0.0
464,28.0,0.0,480.0,11.0,0.0
465,66.0,2.0,210.0,1.0,0.0
466,70.0,1.0,240.0,2.0,0.0
467,39.0,430.0,480.0,0.0,0.0
468,27.0,0.0,480.0,11.0,0.0
469,63.0,2.0,150.0,3.0,0.0
470,47.0,40.0,420.0,8.0,0.0
471,71.0,184.0,120.0,2.0,0.0
472,64.0,74.0,60.0,1.0,0.0
473,66.0,41.0,90.0,1.0,0.0
474,54.0,44.0,120.0,4.0,0.0
475,63.0,1.0,180.0,3.0,0.0
476,71.0,13.0,150.0,2.0,0.0
477,35.0,11.0,510.0,11.0,0.0
478,47.0,10.0,510.0,0.0,0.0
479,71.0,46.0,510.0,8.0,0.0
480,66.0,21.0,240.0,1.0,0.0
481,59.0,8.0,240.0,3.0,0.0
482,51.0,10.0,210.0,4.0,0.0
483,63.0,36.0,180.0,2.0,0.0
484,64.0,29.0,120.0,1.0,0.0
485,56.0,85.0,150.0,3.0,0.0
486,56.0,52.0,270.0,4.0,0.0
487,28.0,225.0,480.0,11.0,0.0
488,40.0,0.0,480.0,0.0,0.0
489,63.0,18.0,90.0,2.0,0.0
490,70.0,35.0,210.0,8.0,0.0
491,68.0,24.0,240.0,8.0,0.0
492,64.0,53.0,60.0,1.0,0.0
493,61.0,35.0,120.0,2.0,0.0
494,52.0,61.0,150.0,4.0,0.0
495,56.0,1.0,120.0,3.0,0.0
496,66.0,219.0,240.0,8.0,0.0
497,37.0,71.0,510.0,11.0,0.0
498,49.0,0.0,510.0,0.0,0.0
499,64.0,19.0,270.0,8.0,0.0
500,49.0,15.0,240.0,4.0,0.0
501,56.0,25.0,180.0,3.0,0.0
502,61.0,0.0,240.0,2.0,0.0
503,64.0,1.0,210.0,1.0,0.0
504,63.0,78.0,300.0,8.0,0.0
505,54.0,24.0,120.0,3.0,0.0
506,59.0,15.0,120.0,2.0,0.0
507,42.0,209.0,480.0,0.0,0.0
508,30.0,0.0,480.0,11.0,0.0
509,63.0,102.0,120.0,1.0,0.0
510,54.0,30.0,210.0,4.0,0.0
511,64.0,4.0,240.0,8.0,0.0
512,54.0,3.0,90.0,3.0,0.0
513,51.0,89.0,150.0,4.0,0.0
514,63.0,20.0,90.0,1.0,0.0
515,59.0,35.0,120.0,2.0,0.0
516,47.0,1.0,510.0,0.0,0.0
517,65.0,188.0,240.0,8.0,0.0
518,35.0,2.0,480.0,11.0,0.0
519,66.0,4.0,210.0,8.0,0.0
520,63.0,45.0,240.0,1.0,0.0
521,47.0,2.0,210.0,4.0,0.0
522,54.0,45.0,150.0,3.0,0.0
523,59.0,50.0,240.0,2.0,0.0
524,46.0,204.0,540.0,0.0,0.0
525,34.0,0.0,540.0,11.0,0.0
526,61.0,9.0,90.0,1.0,0.0
527,66.0,51.0,270.0,8.0,0.0
528,66.0,25.0,90.0,2.0,0.0
529,54.0,0.0,90.0,3.0,0.0
530,52.0,149.0,120.0,4.0,0.0
531,54.0,2.0,90.0,3.0,0.0
532,66.0,60.0,120.0,2.0,0.0
533,52.0,90.0,180.0,4.0,0.0
534,61.0,33.0,60.0,1.0,0.0
535,64.0,10.0,240.0,8.0,0.0
536,63.0,212.0,240.0,8.0,0.0
537,42.0,0.0,510.0,0.0,0.0
538,30.0,75.0,510.0,11.0,0.0
539,61.0,1.0,270.0,8.0,0.0
540,52.0,2.0,240.0,3.0,0.0
541,49.0,1.0,240.0,4.0,0.0
542,58.0,27.0,240.0,1.0,0.0
543,54.0,35.0,180.0,2.0,0.0
544,47.0,120.0,180.0,4.0,0.0
545,59.0,188.0,780.0,8.0,0.0
546,51.0,12.0,150.0,3.0,0.0
547,59.0,14.0,930.0,1.0,0.0
548,54.0,37.0,90.0,2.0,0.0
549,54.0,1.0,5790.0,5.0,0.0
550,42.0,14.0,5790.0,5.0,0.0
551,63.0,69.0,240.0,7.0,0.0
552,23.0,128.0,510.0,11.0,0.0
553,47.0,84.0,150.0,4.0,0.0
554,51.0,1.0,120.0,3.0,0.0
555,54.0,35.0,90.0,2.0,0.0
556,66.0,72.0,210.0,7.0,0.0
557,71.0,89.0,180.0,7.0,0.0
558,47.0,0.0,510.0,0.0,0.0
559,35.0,66.0,510.0,11.0,0.0
560,75.0,19.0,210.0,7.0,0.0
561,59.0,15.0,210.0,2.0,0.0
562,51.0,15.0,240.0,4.0,0.0
563,54.0,4.0,180.0,3.0,0.0
564,52.0,211.0,120.0,4.0,0.0
565,37.0,0.0,540.0,11.0,0.0
566,49.0,197.0,540.0,0.0,0.0
567,58.0,14.0,120.0,2.0,0.0
568,54.0,22.0,90.0,3.0,0.0
569,76.0,176.0,720.0,7.0,0.0
570,58.0,2.0,90.0,2.0,0.0
571,54.0,35.0,90.0,3.0,0.0
572,52.0,155.0,120.0,4.0,0.0
573,30.0,0.0,480.0,11.0,0.0
574,42.0,23.0,480.0,0.0,0.0
575,61.0,16.0,240.0,2.0,0.0
576,70.0,34.0,300.0,7.0,0.0
577,54.0,59.0,180.0,3.0,0.0
578,52.0,10.0,210.0,4.0,0.0
579,59.0,25.0,90.0,2.0,0.0
580,51.0,100.0,120.0,4.0,0.0
581,54.0,11.0,120.0,3.0,0.0
582,51.0,77.0,210.0,8.0,0.0
583,73.0,45.0,270.0,7.0,0.0
584,59.0,3.0,120.0,2.0,0.0
585,51.0,72.0,120.0,4.0,0.0
586,54.0,249.0,210.0,8.0,0.0
587,54.0,22.0,90.0,3.0,0.0
588,71.0,6.0,180.0,7.0,0.0
589,47.0,0.0,480.0,0.0,0.0
590,35.0,24.0,480.0,11.0,0.0
591,59.0,157.0,210.0,8.0,0.0
592,71.0,3.0,570.0,7.0,0.0
593,54.0,70.0,150.0,3.0,0.0
594,59.0,62.0,240.0,2.0,0.0
595,51.0,9.0,210.0,4.0,0.0
596,63.0,1.0,210.0,8.0,0.0
597,37.0,20.0,360.0,11.0,0.0
598,49.0,186.0,510.0,0.0,0.0
599,58.0,12.0,120.0,2.0,0.0
600,52.0,190.0,120.0,4.0,0.0
601,54.0,20.0,90.0,3.0,0.0
602,64.0,172.0,660.0,8.0,0.0
603,54.0,14.0,60.0,3.0,0.0
604,58.0,127.0,120.0,2.0,0.0
605,52.0,23.0,90.0,4.0,0.0
606,42.0,15.0,480.0,0.0,0.0
607,30.0,45.0,420.0,11.0,0.0
608,52.0,11.0,180.0,4.0,0.0
609,58.0,34.0,210.0,8.0,0.0
610,54.0,21.0,120.0,3.0,0.0
611,61.0,62.0,240.0,2.0,0.0
612,51.0,34.0,120.0,4.0,0.0
613,63.0,6.0,90.0,6.0,0.0
614,61.0,10.0,270.0,8.0,0.0
615,59.0,56.0,120.0,2.0,0.0
616,54.0,4.0,90.0,3.0,0.0
617,64.0,73.0,60.0,6.0,0.0
618,66.0,42.0,60.0,6.0,0.0
619,51.0,10.0,90.0,4.0,0.0
620,54.0,10.0,90.0,3.0,0.0
621,59.0,106.0,150.0,8.0,0.0
622,59.0,57.0,90.0,2.0,0.0
623,68.0,12.0,60.0,6.0,0.0
624,70.0,94.0,60.0,6.0,0.0
625,47.0,53.0,480.0,0.0,0.0
626,35.0,23.0,480.0,11.0,0.0
627,59.0,17.0,480.0,8.0,0.0
628,71.0,120.0,60.0,6.0,0.0
629,73.0,130.0,60.0,6.0,0.0
630,51.0,27.0,180.0,4.0,0.0
631,54.0,23.0,180.0,3.0,0.0
632,59.0,0.0,240.0,2.0,0.0
633,75.0,25.0,60.0,6.0,0.0
634,49.0,171.0,540.0,0.0,0.0
635,52.0,22.0,120.0,4.0,0.0
636,54.0,33.0,60.0,3.0,0.0
637,58.0,181.0,120.0,2.0,0.0
638,76.0,183.0,660.0,6.0,0.0
639,37.0,64.0,390.0,11.0,0.0
640,52.0,8.0,90.0,4.0,0.0
641,54.0,34.0,60.0,3.0,0.0
642,58.0,94.0,90.0,2.0,0.0
643,42.0,47.0,510.0,0.0,0.0
644,30.0,5.0,360.0,11.0,80.0
645,70.0,32.0,180.0,6.0,0.0
646,52.0,45.0,210.0,4.0,0.0
647,54.0,30.0,150.0,3.0,0.0
648,61.0,4.0,240.0,2.0,0.0
649,73.0,82.0,240.0,6.0,0.0
650,66.0,38.0,510.0,1.0,0.0
651,54.0,9.0,30.0,3.0,0.0
652,35.0,45.0,480.0,11.0,0.0
653,51.0,43.0,30.0,4.0,0.0
654,47.0,202.0,990.0,5.0,0.0
655,59.0,34.0,60.0,2.0,0.0
656,47.0,15.0,780.0,8.0,0.0
657,47.0,12.0,390.0,0.0,0.0
658,71.0,55.0,120.0,6.0,0.0
659,54.0,0.0,90.0,3.0,0.0
660,51.0,34.0,90.0,4.0,0.0
661,59.0,99.0,120.0,2.0,0.0
662,71.0,16.0,540.0,6.0,0.0
663,51.0,10.0,480.0,0.0,0.0
664,39.0,10.0,480.0,11.0,0.0
665,59.0,3.0,150.0,2.0,0.0
666,51.0,1.0,150.0,4.0,0.0
667,54.0,99.0,150.0,3.0,0.0
668,59.0,18.0,90.0,2.0,0.0
669,54.0,6.0,90.0,3.0,0.0
670,63.0,2.0,900.0,8.0,0.0
671,51.0,4.0,90.0,4.0,0.0
672,42.0,395.0,480.0,11.0,0.0
673,54.0,0.0,480.0,0.0,0.0
674,59.0,16.0,90.0,2.0,0.0
675,54.0,8.0,90.0,3.0,0.0
676,51.0,169.0,90.0,4.0,0.0
677,35.0,0.0,510.0,11.0,0.0
678,47.0,42.0,510.0,0.0,0.0
679,59.0,80.0,210.0,2.0,0.0
680,51.0,10.0,180.0,4.0,0.0
681,54.0,8.0,180.0,3.0,0.0
682,54.0,24.0,120.0,4.0,0.0
683,58.0,8.0,90.0,3.0,0.0
684,66.0,10.0,810.0,8.0,0.0
685,34.0,282.0,510.0,11.0,0.0
686,46.0,0.0,510.0,0.0,0.0
687,61.0,13.0,90.0,2.0,0.0
688,49.0,70.0,780.0,7.0,0.0
689,66.0,206.0,90.0,1.0,0.0
690,54.0,5.0,90.0,4.0,0.0
691,58.0,57.0,90.0,3.0,0.0
692,61.0,2.0,90.0,2.0,0.0
693,66.0,123.0,120.0,1.0,0.0
694,37.0,68.0,510.0,11.0,0.0
695,49.0,5.0,480.0,0.0,0.0
696,54.0,6.0,180.0,4.0,0.0
697,58.0,20.0,180.0,3.0,0.0
698,61.0,14.0,150.0,2.0,0.0
699,66.0,73.0,180.0,1.0,0.0
700,54.0,1.0,120.0,4.0,0.0
701,66.0,18.0,960.0,7.0,0.0
702,61.0,1.0,90.0,2.0,0.0
703,54.0,0.0,480.0,0.0,0.0
704,42.0,403.0,480.0,11.0,0.0
705,58.0,7.0,90.0,3.0,0.0
706,46.0,106.0,960.0,8.0,0.0
707,66.0,204.0,90.0,1.0,0.0
708,61.0,11.0,90.0,2.0,0.0
709,54.0,9.0,90.0,4.0,0.0
710,66.0,132.0,90.0,1.0,0.0
711,58.0,20.0,90.0,3.0,0.0
712,46.0,2.0,480.0,0.0,0.0
713,34.0,0.0,480.0,11.0,0.0
714,54.0,4.0,180.0,4.0,0.0
715,66.0,5.0,180.0,1.0,0.0
716,58.0,16.0,180.0,3.0,0.0
717,61.0,36.0,150.0,2.0,0.0
718,56.0,1.0,120.0,4.0,0.0
719,44.0,0.0,510.0,0.0,0.0
720,32.0,235.0,510.0,11.0,0.0
721,65.0,210.0,120.0,1.0,0.0
722,71.0,27.0,930.0,7.0,0.0
723,61.0,3.0,90.0,2.0,0.0
724,44.0,19.0,720.0,8.0,0.0
725,59.0,4.0,90.0,3.0,0.0
726,61.0,83.0,690.0,6.0,0.0
727,56.0,2.0,90.0,4.0,0.0
728,61.0,15.0,90.0,2.0,0.0
729,59.0,4.0,90.0,3.0,0.0
730,65.0,159.0,90.0,1.0,0.0
731,47.0,63.0,480.0,0.0,0.0
732,35.0,0.0,480.0,11.0,0.0
733,56.0,18.0,210.0,4.0,0.0
734,61.0,70.0,120.0,2.0,0.0
735,65.0,11.0,240.0,1.0,0.0
736,59.0,4.0,180.0,3.0,0.0
737,80.0,18.0,960.0,6.0,0.0
738,53.0,22.0,90.0,4.0,0.0
739,61.0,10.0,90.0,2.0,0.0
740,68.0,137.0,180.0,1.0,0.0
741,59.0,2.0,960.0,7.0,0.0
742,65.0,24.0,900.0,8.0,0.0
743,53.0,0.0,510.0,0.0,0.0
744,41.0,277.0,510.0,11.0,0.0
745,56.0,48.0,90.0,3.0,0.0
746,61.0,23.0,90.0,2.0,0.0
747,53.0,22.0,90.0,4.0,0.0
748,68.0,145.0,120.0,1.0,0.0
749,56.0,23.0,90.0,3.0,0.0
750,32.0,0.0,480.0,11.0,0.0
751,44.0,15.0,480.0,0.0,0.0
752,62.0,78.0,60.0,2.0,0.0
753,61.0,41.0,150.0,2.0,0.0
754,56.0,15.0,180.0,3.0,0.0
755,53.0,0.0,210.0,4.0,0.0
756,68.0,92.0,240.0,1.0,0.0
757,66.0,0.0,990.0,8.0,0.0
758,54.0,9.0,120.0,4.0,0.0
759,30.0,367.0,480.0,11.0,0.0
760,42.0,0.0,480.0,0.0,0.0
761,58.0,3.0,90.0,3.0,0.0
762,58.0,30.0,990.0,7.0,0.0
763,82.0,103.0,330.0,6.0,0.0
764,70.0,0.0,120.0,1.0,0.0
765,61.0,192.0,90.0,2.0,0.0
766,54.0,2.0,1770.0,5.0,0.0
767,42.0,25.0,1770.0,5.0,0.0
768,61.0,29.0,90.0,2.0,0.0
769,70.0,2.0,120.0,1.0,0.0
770,54.0,9.0,90.0,4.0,0.0
771,58.0,1.0,90.0,3.0,0.0
772,78.0,39.0,90.0,6.0,0.0
773,49.0,3.0,480.0,0.0,0.0
774,37.0,0.0,480.0,11.0,0.0
775,78.0,91.0,660.0,6.0,0.0
776,61.0,14.0,150.0,2.0,0.0
777,70.0,47.0,210.0,1.0,0.0
778,54.0,35.0,180.0,4.0,0.0
779,58.0,14.0,150.0,3.0,0.0
780,42.0,302.0,540.0,11.0,0.0
781,61.0,29.0,60.0,2.0,0.0
782,66.0,1.0,90.0,1.0,0.0
783,54.0,10.0,90.0,4.0,0.0
784,58.0,100.0,90.0,3.0,0.0
785,54.0,3.0,510.0,0.0,0.0
786,61.0,26.0,60.0,2.0,0.0
787,66.0,14.0,90.0,1.0,0.0
788,54.0,1.0,90.0,4.0,0.0
789,58.0,190.0,90.0,3.0,0.0
790,66.0,0.0,450.0,7.0,0.0
791,51.0,0.0,420.0,0.0,0.0
792,39.0,6.0,420.0,11.0,0.0
793,66.0,22.0,180.0,1.0,0.0
794,63.0,38.0,120.0,2.0,0.0
795,58.0,140.0,180.0,3.0,0.0
796,66.0,12.0,90.0,1.0,0.0
797,56.0,204.0,120.0,3.0,0.0
798,68.0,99.0,990.0,7.0,0.0
799,63.0,3.0,90.0,2.0,0.0
800,54.0,1.0,3780.0,5.0,0.0
801,42.0,5.0,3780.0,5.0,0.0
802,36.0,0.0,510.0,11.0,0.0
803,48.0,395.0,510.0,0.0,0.0
804,63.0,26.0,90.0,2.0,0.0
805,66.0,1.0,90.0,1.0,0.0
806,56.0,193.0,90.0,3.0,0.0
807,54.0,0.0,450.0,0.0,0.0
808,42.0,24.0,450.0,11.0,0.0
809,66.0,11.0,180.0,1.0,0.0
810,56.0,20.0,180.0,3.0,0.0
811,63.0,1.0,180.0,2.0,0.0
812,58.0,10.0,120.0,3.0,0.0
813,70.0,8.0,900.0,7.0,0.0
814,66.0,203.0,120.0,1.0,0.0
815,61.0,15.0,90.0,2.0,0.0
816,37.0,0.0,450.0,11.0,0.0
817,49.0,409.0,450.0,0.0,0.0
818,61.0,15.0,90.0,2.0,0.0
819,58.0,12.0,90.0,3.0,0.0
820,66.0,128.0,90.0,1.0,0.0
821,42.0,124.0,420.0,11.0,0.0
822,54.0,0.0,420.0,0.0,0.0
823,61.0,13.0,180.0,2.0,0.0
824,66.0,1.0,180.0,1.0,0.0
825,58.0,9.0,180.0,3.0,0.0
826,71.0,50.0,1020.0,7.0,0.0
827,59.0,0.0,90.0,3.0,0.0
828,59.0,50.0,90.0,2.0,0.0
829,66.0,181.0,120.0,1.0,0.0
830,51.0,344.0,510.0,0.0,0.0
831,39.0,0.0,510.0,11.0,0.0
832,78.0,1.0,870.0,6.0,0.0
833,59.0,13.0,90.0,3.0,0.0
834,59.0,50.0,90.0,2.0,0.0
835,66.0,155.0,120.0,1.0,0.0
836,42.0,0.0,450.0,11.0,0.0
837,54.0,46.0,450.0,0.0,0.0
838,66.0,26.0,150.0,1.0,0.0
839,59.0,11.0,180.0,3.0,0.0
840,59.0,33.0,180.0,2.0,0.0
841,80.0,118.0,150.0,6.0,0.0
842,61.0,12.0,120.0,2.0,0.0
843,66.0,14.0,90.0,1.0,0.0
844,58.0,25.0,90.0,3.0,0.0
845,49.0,79.0,510.0,0.0,0.0
846,37.0,0.0,510.0,11.0,0.0
847,78.0,77.0,150.0,6.0,0.0
848,77.0,11.0,120.0,6.0,0.0
849,58.0,10.0,90.0,3.0,0.0
850,61.0,3.0,90.0,2.0,0.0
851,66.0,85.0,90.0,1.0,0.0
852,75.0,95.0,90.0,6.0,80.0
853,75.0,77.0,150.0,6.0,0.0
854,42.0,0.0,450.0,11.0,0.0
855,54.0,112.0,450.0,0.0,0.0
856,73.0,78.0,90.0,6.0,0.0
857,71.0,110.0,60.0,6.0,0.0
858,66.0,25.0,210.0,7.0,0.0
859,58.0,16.0,180.0,3.0,0.0
860,66.0,8.0,150.0,1.0,0.0
861,61.0,1.0,150.0,2.0,0.0
862,70.0,1.0,90.0,6.0,0.0
863,56.0,12.0,90.0,3.0,0.0
864,54.0,79.0,990.0,4.0,0.0
865,54.0,13.0,3660.0,5.0,0.0
866,42.0,0.0,3660.0,5.0,0.0
867,68.0,2.0,900.0,6.0,0.0
868,68.0,15.0,960.0,7.0,0.0
869,63.0,195.0,120.0,2.0,0.0
870,66.0,24.0,90.0,1.0,0.0
871,48.0,359.0,480.0,0.0,0.0
872,36.0,0.0,480.0,11.0,0.0
873,56.0,37.0,90.0,3.0,0.0
874,63.0,14.0,120.0,2.0,0.0
875,66.0,166.0,90.0,1.0,0.0
876,42.0,17.0,420.0,11.0,0.0
877,54.0,0.0,420.0,0.0,0.0
878,63.0,2.0,180.0,2.0,0.0
879,56.0,19.0,180.0,3.0,0.0
880,66.0,21.0,150.0,1.0,0.0
881,70.0,42.0,930.0,7.0,0.0
882,61.0,195.0,120.0,2.0,0.0
883,52.0,72.0,960.0,4.0,0.0
884,58.0,36.0,90.0,3.0,0.0
885,37.0,0.0,510.0,11.0,0.0
886,49.0,317.0,510.0,0.0,0.0
887,66.0,12.0,90.0,1.0,0.0
888,61.0,28.0,90.0,2.0,0.0
889,58.0,23.0,90.0,3.0,0.0
890,66.0,169.0,90.0,1.0,0.0
891,42.0,9.0,420.0,11.0,0.0
892,54.0,0.0,420.0,0.0,0.0
893,61.0,3.0,180.0,2.0,0.0
894,66.0,36.0,150.0,1.0,0.0
895,58.0,6.0,180.0,3.0,0.0
896,66.0,195.0,120.0,1.0,0.0
897,59.0,36.0,90.0,3.0,0.0
898,71.0,72.0,990.0,7.0,0.0
899,51.0,44.0,930.0,4.0,0.0
900,51.0,0.0,510.0,0.0,0.0
901,39.0,342.0,510.0,11.0,0.0
902,59.0,1.0,90.0,2.0,0.0
903,66.0,20.0,870.0,8.0,0.0
904,59.0,35.0,90.0,3.0,0.0
905,59.0,3.0,90.0,2.0,0.0
906,66.0,181.0,90.0,1.0,0.0
907,54.0,0.0,450.0,0.0,0.0
908,42.0,19.0,450.0,11.0,0.0
909,66.0,2.0,150.0,1.0,0.0
910,59.0,33.0,150.0,3.0,0.0
911,59.0,4.0,180.0,2.0,0.0
912,68.0,115.0,150.0,8.0,0.0
913,54.0,35.0,660.0,4.0,0.0
914,58.0,10.0,90.0,3.0,0.0
915,37.0,0.0,480.0,11.0,0.0
916,49.0,30.0,480.0,0.0,0.0
917,61.0,29.0,90.0,2.0,0.0
918,66.0,0.0,90.0,1.0,0.0
919,66.0,65.0,120.0,8.0,0.0
920,65.0,52.0,120.0,8.0,0.0
921,66.0,12.0,90.0,1.0,0.0
922,58.0,12.0,90.0,3.0,0.0
923,61.0,15.0,90.0,2.0,0.0
924,63.0,59.0,90.0,8.0,0.0
925,42.0,49.0,240.0,11.0,0.0
926,54.0,2.0,450.0,0.0,0.0
927,63.0,70.0,120.0,8.0,0.0
928,61.0,14.0,120.0,8.0,0.0
929,59.0,83.0,90.0,8.0,0.0
930,58.0,16.0,210.0,4.0,0.0
931,66.0,5.0,180.0,1.0,0.0
932,61.0,141.0,210.0,3.0,0.0
933,66.0,40.0,120.0,2.0,0.0
934,58.0,3.0,90.0,8.0,0.0
935,47.0,0.0,510.0,0.0,0.0
936,35.0,365.0,510.0,11.0,0.0
937,68.0,10.0,120.0,1.0,0.0
938,54.0,70.0,3870.0,5.0,0.0
939,56.0,68.0,1920.0,8.0,0.0
940,59.0,44.0,1860.0,4.0,0.0
941,42.0,15.0,3840.0,5.0,0.0
942,75.0,14.0,3810.0,7.0,0.0
943,63.0,230.0,120.0,3.0,0.0
944,66.0,3.0,90.0,2.0,0.0
945,68.0,12.0,120.0,1.0,0.0
946,66.0,15.0,120.0,2.0,0.0
947,63.0,105.0,120.0,3.0,0.0
948,39.0,66.0,510.0,11.0,0.0
949,51.0,0.0,510.0,0.0,0.0
950,66.0,15.0,150.0,2.0,0.0
951,68.0,2.0,180.0,1.0,0.0
952,63.0,100.0,150.0,3.0,0.0
953,42.0,381.0,480.0,11.0,0.0
954,54.0,0.0,480.0,0.0,0.0
955,66.0,207.0,120.0,2.0,0.0
956,68.0,0.0,90.0,1.0,0.0
957,63.0,24.0,90.0,3.0,0.0
958,66.0,15.0,90.0,2.0,0.0
959,68.0,11.0,90.0,1.0,0.0
960,63.0,118.0,90.0,3.0,0.0
961,47.0,0.0,510.0,0.0,0.0
962,35.0,10.0,510.0,11.0,0.0
963,68.0,1.0,450.0,6.0,0.0
964,68.0,10.0,270.0,1.0,0.0
965,66.0,22.0,180.0,2.0,0.0
966,63.0,48.0,120.0,3.0,0.0
967,69.0,216.0,150.0,1.0,0.0
968,78.0,116.0,2700.0,6.0,0.0
969,63.0,11.0,120.0,3.0,0.0
970,57.0,26.0,1890.0,8.0,0.0
971,60.0,16.0,1920.0,4.0,0.0
972,66.0,16.0,90.0,2.0,0.0
973,48.0,351.0,510.0,0.0,0.0
974,36.0,0.0,510.0,11.0,0.0
975,66.0,17.0,90.0,2.0,0.0
976,69.0,145.0,120.0,1.0,0.0
977,63.0,11.0,90.0,3.0,0.0
978,39.0,0.0,480.0,11.0,0.0
979,51.0,43.0,450.0,0.0,0.0
980,66.0,4.0,150.0,2.0,0.0
981,69.0,74.0,180.0,1.0,0.0
982,63.0,25.0,120.0,3.0,0.0
983,69.0,10.0,90.0,1.0,0.0
984,66.0,4.0,120.0,2.0,0.0
985,63.0,216.0,90.0,3.0,0.0
986,42.0,0.0,450.0,11.0,0.0
987,54.0,429.0,450.0,0.0,0.0
988,66.0,18.0,90.0,2.0,0.0
989,69.0,10.0,90.0,1.0,0.0
990,63.0,116.0,90.0,3.0,0.0
991,36.0,3.0,480.0,11.0,0.0
992,48.0,0.0,480.0,0.0,0.0
993,69.0,14.0,180.0,1.0,0.0
994,63.0,6.0,180.0,3.0,0.0
995,66.0,16.0,150.0,2.0,0.0
996,70.0,1.0,120.0,1.0,0.0
997,73.0,108.0,630.0,7.0,0.0
998,49.0,137.0,510.0,0.0,0.0
999,37.0,0.0,510.0,11.0,0.0
1000,61.0,214.0,90.0,3.0,0.0
1001,58.0,54.0,420.0,8.0,0.0
1002,66.0,4.0,90.0,2.0,0.0
1003,61.0,79.0,2580.0,4.0,0.0
1004,70.0,2.0,120.0,1.0,0.0
1005,66.0,28.0,90.0,2.0,0.0
1006,61.0,91.0,90.0,3.0,0.0
1007,49.0,87.0,480.0,8.0,0.0
1008,42.0,5.0,450.0,11.0,0.0
1009,54.0,0.0,450.0,0.0,0.0
1010,70.0,18.0,210.0,7.0,0.0
1011,70.0,14.0,150.0,1.0,0.0
1012,73.0,32.0,180.0,6.0,0.0
1013,61.0,11.0,210.0,3.0,0.0
1014,66.0,5.0,120.0,2.0,0.0
1015,54.0,10.0,450.0,8.0,0.0
1016,70.0,31.0,450.0,7.0,0.0
1017,73.0,22.0,420.0,6.0,0.0
1018,46.0,0.0,480.0,11.0,0.0
1019,58.0,179.0,480.0,0.0,0.0
1020,70.0,9.0,90.0,1.0,0.0
1021,66.0,18.0,90.0,2.0,0.0
1022,58.0,205.0,90.0,3.0,0.0
1023,70.0,8.0,90.0,1.0,0.0
1024,66.0,30.0,90.0,2.0,0.0
1025,58.0,67.0,90.0,3.0,0.0
1026,71.0,21.0,210.0,6.0,0.0
1027,68.0,118.0,210.0,7.0,0.0
1028,58.0,1.0,450.0,8.0,0.0
1029,49.0,0.0,480.0,11.0,0.0
1030,61.0,93.0,480.0,0.0,0.0
1031,66.0,43.0,180.0,7.0,0.0
1032,70.0,21.0,210.0,6.0,0.0
1033,66.0,37.0,210.0,1.0,0.0
1034,49.0,62.0,60.0,3.0,0.0
1035,61.0,13.0,180.0,2.0,0.0
1036,61.0,2.0,960.0,8.0,0.0
1037,66.0,12.0,900.0,7.0,0.0
1038,73.0,12.0,90.0,1.0,0.0
1039,70.0,232.0,120.0,2.0,0.0
1040,49.0,0.0,480.0,0.0,0.0
1041,37.0,200.0,480.0,11.0,0.0
1042,70.0,59.0,930.0,6.0,0.0
1043,66.0,0.0,90.0,3.0,0.0
1044,73.0,0.0,90.0,1.0,0.0
1045,70.0,25.0,90.0,2.0,0.0
1046,66.0,118.0,120.0,3.0,0.0
1047,48.0,6.0,480.0,0.0,0.0
1048,36.0,0.0,480.0,11.0,0.0
1049,59.0,115.0,60.0,2.0,0.0
1050,73.0,14.0,180.0,1.0,0.0
1051,54.0,34.0,210.0,3.0,0.0
1052,58.0,3.0,240.0,4.0,0.0
1053,65.0,5.0,90.0,7.0,0.0
1054,73.0,7.0,90.0,1.0,0.0
1055,61.0,1.0,60.0,2.0,0.0
1056,53.0,33.0,90.0,3.0,0.0
1057,68.0,5.0,60.0,6.0,0.0
1058,59.0,8.0,60.0,8.0,0.0
1059,49.0,0.0,450.0,0.0,0.0
1060,37.0,0.0,450.0,11.0,0.0
1061,66.0,17.0,60.0,7.0,0.0
1062,61.0,16.0,90.0,8.0,0.0
1063,70.0,7.0,60.0,6.0,0.0
1064,68.0,20.0,60.0,6.0,0.0
1065,65.0,17.0,60.0,7.0,0.0
1066,59.0,3.0,60.0,8.0,0.0
1067,70.0,32.0,30.0,6.0,0.0
1068,66.0,20.0,60.0,7.0,0.0
1069,61.0,31.0,60.0,8.0,0.0
1070,68.0,9.0,60.0,6.0,0.0
1071,59.0,26.0,90.0,2.0,0.0
1072,65.0,5.0,60.0,7.0,0.0
1073,70.0,5.0,60.0,6.0,0.0
1074,73.0,0.0,60.0,1.0,0.0
1075,53.0,1.0,90.0,3.0,0.0
1076,59.0,3.0,60.0,8.0,0.0
1077,68.0,5.0,60.0,6.0,0.0
1078,66.0,18.0,60.0,7.0,0.0
1079,61.0,17.0,60.0,8.0,0.0
1080,70.0,18.0,60.0,6.0,0.0
1081,65.0,5.0,60.0,7.0,0.0
1082,59.0,21.0,60.0,8.0,0.0
1083,68.0,18.0,120.0,6.0,0.0
1084,66.0,23.0,30.0,7.0,0.0
1085,61.0,24.0,60.0,8.0,0.0
1086,70.0,7.0,30.0,6.0,0.0
1087,65.0,17.0,30.0,7.0,0.0
1088,59.0,5.0,60.0,8.0,0.0
1089,66.0,10.0,60.0,7.0,0.0
1090,61.0,9.0,420.0,4.0,0.0
1091,70.0,7.0,60.0,6.0,0.0
1092,61.0,33.0,30.0,8.0,0.0
1093,65.0,13.0,210.0,7.0,0.0
1094,37.0,2.0,420.0,0.0,0.0
1095,25.0,0.0,420.0,11.0,0.0
1096,68.0,21.0,30.0,6.0,0.0
1097,66.0,32.0,60.0,7.0,0.0
1098,59.0,5.0,60.0,8.0,0.0
1099,70.0,3.0,60.0,6.0,0.0
1100,61.0,6.0,60.0,8.0,0.0
1101,68.0,23.0,30.0,6.0,0.0
1102,59.0,40.0,30.0,8.0,0.0
1103,70.0,12.0,120.0,6.0,0.0
1104,61.0,29.0,60.0,8.0,0.0
1105,59.0,12.0,150.0,8.0,0.0
1106,53.0,17.0,120.0,3.0,0.0
1107,63.0,1.0,150.0,7.0,0.0
1108,61.0,73.0,30.0,8.0,0.0
1109,68.0,43.0,120.0,6.0,0.0
1110,59.0,0.0,90.0,2.0,0.0
1111,73.0,0.0,90.0,1.0,0.0
1112,65.0,2.0,120.0,7.0,0.0
1113,58.0,1.0,60.0,8.0,0.0
1114,66.0,47.0,60.0,6.0,0.0
1115,59.0,3.0,60.0,8.0,0.0
1116,68.0,621.0,60.0,6.0,0.0
1117,66.0,10.0,630.0,6.0,0.0
1118,58.0,35.0,750.0,8.0,0.0
1119,54.0,52.0,630.0,3.0,0.0
1120,66.0,25.0,780.0,7.0,0.0
1121,61.0,11.0,720.0,4.0,0.0
1122,66.0,119.0,780.0,1.0,0.0
1123,58.0,54.0,660.0,2.0,0.0
1124,30.0,16.0,900.0,11.0,0.0
1125,42.0,0.0,900.0,0.0,0.0
1126,73.0,22.0,210.0,6.0,0.0
1127,70.0,14.0,180.0,2.0,0.0
1128,58.0,215.0,240.0,4.0,0.0
1129,61.0,2.0,210.0,3.0,0.0
1130,71.0,15.0,240.0,2.0,0.0
1131,75.0,11.0,240.0,6.0,0.0
1132,59.0,11.0,240.0,4.0,0.0
1133,63.0,169.0,240.0,3.0,0.0
1134,73.0,14.0,240.0,6.0,0.0
1135,58.0,25.0,210.0,4.0,0.0
1136,70.0,164.0,240.0,2.0,0.0
1137,61.0,1.0,210.0,3.0,0.0
1138,56.0,102.0,270.0,4.0,0.0
1139,71.0,26.0,180.0,6.0,0.0
1140,59.0,3.0,210.0,3.0,0.0
1141,68.0,23.0,210.0,2.0,0.0
1142,54.0,14.0,120.0,4.0,0.0
1143,70.0,1.0,120.0,6.0,0.0
1144,58.0,65.0,120.0,3.0,0.0
1145,66.0,866.0,180.0,2.0,0.0
1146,70.0,26.0,870.0,6.0,0.0
1147,54.0,346.0,900.0,4.0,0.0
1148,66.0,5.0,900.0,2.0,0.0
1149,61.0,98.0,2940.0,5.0,0.0
1150,58.0,45.0,810.0,3.0,0.0
1151,37.0,0.0,810.0,11.0,0.0
1152,49.0,20.0,810.0,0.0,0.0
1153,66.0,2.0,300.0,2.0,0.0
1154,54.0,8.0,270.0,4.0,0.0
1155,59.0,2.0,960.0,5.0,0.0
1156,58.0,2.0,270.0,3.0,0.0
1157,70.0,206.0,240.0,6.0,0.0
1158,37.0,38.0,780.0,0.0,0.0
1159,25.0,0.0,780.0,11.0,0.0
1160,53.0,12.0,240.0,4.0,0.0
1161,56.0,16.0,270.0,3.0,0.0
1162,68.0,9.0,240.0,6.0,0.0
1163,65.0,167.0,270.0,2.0,0.0
1164,66.0,62.0,210.0,6.0,0.0
1165,51.0,11.0,270.0,4.0,0.0
1166,54.0,3.0,270.0,3.0,0.0
1167,63.0,39.0,270.0,2.0,0.0
1168,68.0,78.0,150.0,6.0,0.0
1169,53.0,132.0,270.0,4.0,0.0
1170,56.0,13.0,240.0,3.0,0.0
1171,65.0,37.0,180.0,2.0,0.0
1172,54.0,89.0,180.0,4.0,0.0
1173,54.0,14.0,960.0,5.0,0.0
1174,57.0,1.0,150.0,3.0,0.0
1175,66.0,20.0,1860.0,6.0,0.0
1176,66.0,115.0,240.0,2.0,0.0
1177,30.0,402.0,480.0,11.0,0.0
1178,42.0,0.0,480.0,0.0,0.0
1179,66.0,21.0,90.0,1.0,0.0
1180,54.0,3.0,150.0,4.0,0.0
1181,61.0,69.0,180.0,2.0,0.0
1182,57.0,39.0,90.0,3.0,0.0
1183,66.0,24.0,120.0,1.0,0.0
1184,57.0,17.0,450.0,0.0,0.0
1185,45.0,0.0,450.0,11.0,0.0
1186,54.0,4.0,210.0,4.0,0.0
1187,57.0,19.0,150.0,3.0,0.0
1188,66.0,9.0,180.0,1.0,0.0
1189,61.0,21.0,180.0,2.0,0.0
1190,66.0,17.0,120.0,1.0,0.0
1191,54.0,7.0,120.0,4.0,0.0
1192,61.0,208.0,120.0,2.0,0.0
1193,54.0,0.0,450.0,0.0,0.0
1194,42.0,395.0,450.0,11.0,0.0
1195,57.0,16.0,90.0,3.0,0.0
1196,54.0,89.0,150.0,4.0,0.0
1197,57.0,14.0,120.0,3.0,0.0
1198,61.0,5.0,120.0,2.0,0.0
1199,66.0,9.0,90.0,1.0,0.0
1200,52.0,0.0,450.0,0.0,0.0
1201,40.0,39.0,450.0,11.0,0.0
1202,66.0,15.0,150.0,1.0,0.0
1203,54.0,21.0,210.0,4.0,0.0
1204,61.0,80.0,270.0,2.0,0.0
1205,57.0,30.0,150.0,3.0,0.0
1206,81.0,62.0,1950.0,6.0,0.0
1207,60.0,192.0,150.0,2.0,0.0
1208,39.0,0.0,480.0,11.0,0.0
1209,51.0,366.0,480.0,0.0,0.0
1210,66.0,10.0,90.0,1.0,0.0
1211,54.0,35.0,120.0,4.0,0.0
1212,57.0,3.0,90.0,3.0,0.0
1213,66.0,50.0,120.0,1.0,0.0
1214,60.0,83.0,150.0,2.0,0.0
1215,54.0,0.0,90.0,4.0,0.0
1216,57.0,3.0,90.0,3.0,0.0
1217,54.0,92.0,480.0,0.0,0.0
1218,42.0,0.0,480.0,11.0,0.0
1219,66.0,10.0,150.0,1.0,0.0
1220,54.0,10.0,180.0,4.0,0.0
1221,57.0,18.0,150.0,3.0,0.0
1222,60.0,51.0,180.0,2.0,0.0
1223,51.0,0.0,480.0,0.0,0.0
1224,39.0,305.0,480.0,11.0,0.0
1225,54.0,49.0,90.0,4.0,0.0
1226,66.0,9.0,90.0,1.0,0.0
1227,57.0,5.0,90.0,3.0,0.0
1228,60.0,165.0,120.0,2.0,0.0
1229,66.0,11.0,120.0,1.0,0.0
1230,57.0,16.0,90.0,3.0,0.0
1231,54.0,13.0,90.0,4.0,0.0
1232,60.0,132.0,90.0,2.0,0.0
1233,49.0,15.0,480.0,0.0,0.0
1234,37.0,0.0,480.0,11.0,0.0
1235,66.0,110.0,90.0,1.0,0.0
1236,57.0,53.0,180.0,3.0,0.0
1237,52.0,0.0,240.0,4.0,0.0
1238,61.0,25.0,240.0,2.0,0.0
1239,66.0,11.0,120.0,1.0,0.0
1240,56.0,18.0,90.0,3.0,0.0
1241,63.0,10.0,120.0,2.0,0.0
1242,51.0,205.0,150.0,4.0,0.0
1243,80.0,75.0,1380.0,6.0,0.0
1244,36.0,352.0,480.0,11.0,0.0
1245,48.0,0.0,480.0,0.0,0.0
1246,66.0,0.0,120.0,1.0,0.0
1247,51.0,1.0,90.0,4.0,0.0
1248,56.0,3.0,90.0,3.0,0.0
1249,63.0,157.0,120.0,2.0,0.0
1250,51.0,0.0,480.0,0.0,0.0
1251,39.0,71.0,480.0,11.0,0.0
1252,66.0,23.0,150.0,1.0,0.0
1253,56.0,56.0,180.0,4.0,0.0
1254,60.0,17.0,120.0,3.0,0.0
1255,63.0,20.0,180.0,2.0,0.0
1256,56.0,9.0,90.0,4.0,0.0
1257,66.0,9.0,90.0,1.0,0.0
1258,60.0,27.0,90.0,3.0,0.0
1259,63.0,195.0,120.0,2.0,0.0
1260,44.0,0.0,480.0,0.0,0.0
1261,32.0,136.0,480.0,11.0,0.0
1262,66.0,16.0,90.0,1.0,0.0
1263,56.0,5.0,90.0,4.0,0.0
1264,60.0,15.0,90.0,3.0,0.0
1265,63.0,72.0,90.0,2.0,0.0
1266,80.0,92.0,180.0,6.0,0.0
1267,36.0,95.0,450.0,11.0,0.0
1268,48.0,0.0,450.0,0.0,0.0
1269,78.0,118.0,120.0,6.0,0.0
1270,76.0,30.0,120.0,6.0,0.0
1271,54.0,0.0,210.0,4.0,0.0
1272,56.0,56.0,150.0,3.0,0.0
1273,66.0,9.0,180.0,1.0,0.0
1274,63.0,25.0,180.0,2.0,0.0
1275,78.0,0.0,120.0,6.0,0.0
1276,52.0,21.0,120.0,4.0,0.0
1277,76.0,90.0,1200.0,6.0,0.0
1278,64.0,10.0,120.0,1.0,0.0
1279,61.0,195.0,120.0,2.0,0.0
1280,49.0,55.0,1890.0,8.0,0.0
1281,37.0,338.0,510.0,11.0,0.0
1282,49.0,0.0,510.0,0.0,0.0
1283,56.0,4.0,90.0,3.0,0.0
1284,52.0,1.0,90.0,4.0,0.0
1285,64.0,8.0,90.0,1.0,0.0
1286,56.0,27.0,90.0,3.0,0.0
1287,61.0,160.0,90.0,2.0,0.0
1288,40.0,0.0,480.0,11.0,0.0
1289,52.0,53.0,480.0,0.0,0.0
1290,52.0,1.0,180.0,4.0,0.0
1291,64.0,21.0,150.0,1.0,0.0
1292,61.0,91.0,150.0,2.0,0.0
1293,56.0,5.0,120.0,3.0,0.0
1294,52.0,0.0,90.0,4.0,0.0
1295,64.0,9.0,90.0,1.0,0.0
1296,56.0,27.0,90.0,3.0,0.0
1297,61.0,119.0,90.0,2.0,0.0
1298,37.0,0.0,510.0,11.0,0.0
1299,49.0,350.0,510.0,0.0,0.0
1300,52.0,1.0,90.0,4.0,0.0
1301,61.0,10.0,90.0,2.0,0.0
1302,64.0,10.0,90.0,1.0,0.0
1303,56.0,175.0,90.0,3.0,0.0
1304,35.0,50.0,540.0,11.0,0.0
1305,47.0,0.0,540.0,0.0,0.0
1306,52.0,32.0,210.0,4.0,0.0
1307,56.0,20.0,180.0,3.0,0.0
1308,64.0,23.0,150.0,1.0,0.0
1309,61.0,16.0,120.0,2.0,0.0
1310,52.0,7.0,120.0,3.0,0.0
1311,67.0,10.0,90.0,1.0,0.0
1312,49.0,6.0,120.0,4.0,0.0
1313,61.0,219.0,90.0,2.0,0.0
1314,64.0,1.0,1890.0,8.0,0.0
1315,45.0,353.0,510.0,0.0,0.0
1316,33.0,0.0,510.0,11.0,0.0
1317,52.0,16.0,90.0,3.0,0.0
1318,67.0,9.0,90.0,1.0,0.0
1319,49.0,165.0,120.0,4.0,0.0
1320,61.0,5.0,90.0,2.0,0.0
1321,49.0,41.0,510.0,0.0,0.0
1322,37.0,0.0,510.0,11.0,0.0
1323,67.0,13.0,180.0,1.0,0.0
1324,49.0,114.0,180.0,4.0,0.0
1325,61.0,2.0,150.0,2.0,0.0
1326,52.0,3.0,150.0,3.0,0.0
1327,49.0,9.0,90.0,4.0,0.0
1328,67.0,9.0,90.0,1.0,0.0
1329,61.0,221.0,90.0,2.0,0.0
1330,52.0,2.0,90.0,3.0,0.0
1331,45.0,345.0,480.0,0.0,0.0
1332,33.0,0.0,480.0,11.0,0.0
1333,49.0,11.0,90.0,4.0,0.0
1334,67.0,7.0,90.0,1.0,0.0
1335,61.0,166.0,90.0,2.0,0.0
1336,52.0,5.0,90.0,3.0,0.0
1337,44.0,0.0,480.0,0.0,0.0
1338,32.0,65.0,480.0,11.0,0.0
1339,49.0,31.0,180.0,4.0,0.0
1340,61.0,26.0,120.0,2.0,0.0
1341,52.0,50.0,180.0,3.0,0.0
1342,68.0,7.0,180.0,1.0,0.0
1343,49.0,26.0,90.0,4.0,0.0
1344,63.0,96.0,1350.0,8.0,0.0
1345,61.0,6.0,120.0,2.0,0.0
1346,70.0,8.0,90.0,1.0,0.0
1347,43.0,0.0,480.0,0.0,0.0
1348,31.0,376.0,480.0,11.0,0.0
1349,51.0,190.0,90.0,3.0,0.0
1350,49.0,26.0,90.0,4.0,0.0
1351,61.0,28.0,90.0,2.0,0.0
1352,70.0,117.0,120.0,1.0,0.0
1353,51.0,5.0,90.0,3.0,0.0
1354,34.0,0.0,450.0,11.0,0.0
1355,46.0,54.0,450.0,0.0,0.0
1356,49.0,4.0,180.0,4.0,0.0
1357,70.0,3.0,150.0,1.0,0.0
1358,61.0,71.0,150.0,2.0,0.0
1359,51.0,5.0,150.0,3.0,0.0
1360,70.0,32.0,90.0,1.0,0.0
1361,49.0,23.0,60.0,4.0,0.0
1362,51.0,186.0,90.0,3.0,0.0
1363,27.0,110.0,510.0,11.0,0.0
1364,39.0,0.0,510.0,0.0,0.0
1365,61.0,2.0,90.0,2.0,0.0
1366,49.0,31.0,90.0,4.0,0.0
1367,70.0,13.0,60.0,1.0,0.0
1368,61.0,15.0,90.0,2.0,0.0
1369,51.0,58.0,90.0,3.0,0.0
1370,63.0,91.0,150.0,8.0,0.0
1371,43.0,10.0,390.0,0.0,0.0
1372,31.0,0.0,390.0,11.0,0.0
1373,61.0,116.0,120.0,8.0,0.0
1374,59.0,58.0,120.0,8.0,0.0
1375,46.0,48.0,240.0,4.0,0.0
1376,63.0,34.0,150.0,1.0,0.0
1377,58.0,2.0,180.0,2.0,0.0
1378,49.0,15.0,180.0,3.0,0.0
1379,61.0,102.0,180.0,8.0,0.0
1380,59.0,3.0,1110.0,8.0,0.0
1381,44.0,28.0,150.0,4.0,0.0
1382,32.0,382.0,510.0,11.0,0.0
1383,44.0,0.0,510.0,0.0,0.0
1384,59.0,16.0,120.0,2.0,0.0
1385,63.0,167.0,150.0,1.0,0.0
1386,47.0,2.0,120.0,3.0,0.0
1387,44.0,38.0,120.0,4.0,0.0
1388,47.0,112.0,120.0,3.0,0.0
1389,63.0,6.0,90.0,1.0,0.0
1390,59.0,4.0,90.0,2.0,0.0
1391,44.0,0.0,480.0,11.0,0.0
1392,56.0,66.0,480.0,0.0,0.0
1393,51.0,32.0,180.0,4.0,0.0
1394,59.0,5.0,150.0,2.0,0.0
1395,56.0,23.0,150.0,3.0,0.0
1396,63.0,29.0,210.0,1.0,0.0
1397,52.0,0.0,90.0,4.0,0.0
1398,68.0,177.0,150.0,1.0,0.0
1399,59.0,44.0,90.0,2.0,0.0
1400,52.0,353.0,450.0,0.0,0.0
1401,40.0,0.0,450.0,11.0,0.0
1402,56.0,26.0,90.0,3.0,0.0
1403,52.0,119.0,90.0,4.0,0.0
1404,59.0,0.0,90.0,2.0,0.0
1405,56.0,3.0,90.0,3.0,0.0
1406,68.0,3.0,60.0,1.0,0.0
1407,68.0,1.0,480.0,7.0,0.0
1408,39.0,90.0,480.0,11.0,0.0
1409,51.0,0.0,480.0,0.0,0.0
1410,56.0,73.0,90.0,4.0,0.0
1411,59.0,6.0,180.0,2.0,0.0
1412,51.0,58.0,180.0,3.0,0.0
1413,68.0,19.0,150.0,1.0,0.0
1414,56.0,5.0,9570.0,4.0,0.0
1415,58.0,19.0,120.0,2.0,0.0
1416,70.0,86.0,1020.0,7.0,0.0
1417,53.0,40.0,120.0,3.0,0.0
1418,68.0,180.0,150.0,1.0,0.0
1419,50.0,380.0,480.0,0.0,0.0
1420,38.0,0.0,480.0,11.0,0.0
1421,58.0,139.0,120.0,2.0,0.0
1422,68.0,11.0,90.0,1.0,0.0
1423,53.0,20.0,90.0,3.0,0.0
1424,44.0,24.0,480.0,11.0,0.0
1425,56.0,0.0,480.0,0.0,0.0
1426,53.0,27.0,180.0,3.0,0.0
1427,68.0,30.0,150.0,1.0,0.0
1428,58.0,33.0,180.0,2.0,0.0
1429,54.0,19.0,120.0,3.0,0.0
1430,68.0,167.0,150.0,1.0,0.0
1431,60.0,11.0,90.0,2.0,0.0
1432,51.0,373.0,480.0,0.0,0.0
1433,39.0,0.0,480.0,11.0,0.0
1434,72.0,56.0,900.0,7.0,0.0
1435,68.0,33.0,60.0,1.0,0.0
1436,54.0,132.0,120.0,3.0,0.0
1437,60.0,25.0,90.0,2.0,0.0
1438,44.0,0.0,480.0,11.0,0.0
1439,56.0,76.0,480.0,0.0,0.0
1440,54.0,14.0,180.0,3.0,0.0
1441,60.0,9.0,180.0,2.0,0.0
1442,68.0,32.0,120.0,1.0,0.0
1443,56.0,25.0,90.0,3.0,0.0
1444,40.0,392.0,450.0,11.0,0.0
1445,73.0,81.0,960.0,7.0,0.0
1446,61.0,57.0,120.0,2.0,0.0
1447,52.0,40.0,390.0,0.0,0.0
1448,68.0,162.0,150.0,1.0,0.0
1449,80.0,39.0,870.0,6.0,0.0
1450,56.0,26.0,90.0,3.0,0.0
1451,61.0,17.0,90.0,2.0,0.0
1452,68.0,29.0,90.0,1.0,0.0
1453,44.0,0.0,480.0,11.0,0.0
1454,56.0,2.0,480.0,0.0,0.0
1455,68.0,34.0,150.0,1.0,0.0
1456,61.0,10.0,180.0,2.0,0.0
1457,56.0,26.0,180.0,3.0,0.0
1458,59.0,1.0,90.0,3.0,0.0
1459,68.0,9.0,90.0,1.0,0.0
1460,63.0,48.0,90.0,2.0,0.0
1461,82.0,90.0,120.0,6.0,0.0
1462,39.0,0.0,480.0,11.0,0.0
1463,51.0,115.0,480.0,0.0,0.0
1464,80.0,92.0,120.0,6.0,0.0
1465,78.0,73.0,150.0,6.0,0.0
1466,68.0,20.0,90.0,1.0,0.0
1467,59.0,3.0,90.0,3.0,0.0
1468,63.0,1.0,90.0,2.0,0.0
1469,76.0,78.0,90.0,6.0,80.0
1470,76.0,129.0,180.0,6.0,80.0
1471,44.0,0.0,420.0,11.0,0.0
1472,56.0,31.0,420.0,0.0,0.0
1473,75.0,121.0,180.0,6.0,80.0
1474,59.0,35.0,150.0,2.0,0.0
1475,68.0,19.0,270.0,7.0,0.0
1476,73.0,8.0,180.0,6.0,80.0
1477,51.0,5.0,210.0,3.0,0.0
1478,68.0,28.0,210.0,1.0,0.0
1479,71.0,91.0,180.0,6.0,80.0
1480,80.0,194.0,150.0,1.0,0.0
1481,50.0,0.0,480.0,0.0,0.0
1482,38.0,374.0,480.0,11.0,0.0
1483,53.0,2.0,120.0,3.0,0.0
1484,70.0,8.0,930.0,6.0,0.0
1485,70.0,61.0,990.0,7.0,0.0
1486,58.0,0.0,120.0,2.0,0.0
1487,80.0,22.0,90.0,1.0,0.0
1488,53.0,2.0,90.0,3.0,0.0
1489,58.0,128.0,90.0,2.0,0.0
1490,44.0,0.0,450.0,11.0,0.0
1491,56.0,6.0,450.0,0.0,0.0
1492,53.0,26.0,180.0,3.0,0.0
1493,58.0,34.0,210.0,2.0,0.0
1494,80.0,59.0,120.0,1.0,0.0
1495,80.0,20.0,90.0,1.0,0.0
1496,72.0,94.0,990.0,7.0,0.0
1497,54.0,27.0,90.0,3.0,0.0
1498,51.0,0.0,510.0,0.0,0.0
1499,39.0,341.0,510.0,11.0,0.0
1500,60.0,197.0,120.0,2.0,0.0
1501,54.0,178.0,120.0,3.0,0.0
1502,60.0,10.0,90.0,2.0,0.0
1503,80.0,22.0,90.0,1.0,0.0
1504,56.0,0.0,420.0,0.0,0.0
1505,44.0,15.0,420.0,11.0,0.0
1506,80.0,66.0,120.0,1.0,0.0
1507,54.0,4.0,210.0,3.0,0.0
1508,60.0,25.0,210.0,2.0,0.0
1509,73.0,91.0,960.0,7.0,0.0
1510,80.0,21.0,90.0,1.0,0.0
1511,52.0,0.0,510.0,0.0,0.0
1512,40.0,370.0,510.0,11.0,0.0
1513,56.0,1.0,120.0,3.0,0.0
1514,61.0,198.0,120.0,2.0,0.0
1515,68.0,6.0,900.0,8.0,0.0
1516,80.0,21.0,90.0,1.0,0.0
1517,56.0,146.0,90.0,3.0,0.0
1518,61.0,11.0,90.0,2.0,0.0
1519,44.0,0.0,450.0,11.0,0.0
1520,56.0,15.0,450.0,0.0,0.0
1521,56.0,3.0,180.0,3.0,0.0
1522,61.0,20.0,180.0,2.0,0.0
1523,80.0,20.0,150.0,1.0,0.0
1524,59.0,3.0,90.0,3.0,0.0
1525,63.0,45.0,90.0,2.0,0.0
1526,51.0,0.0,510.0,0.0,0.0
1527,39.0,66.0,510.0,11.0,0.0
1528,80.0,20.0,90.0,1.0,0.0
1529,70.0,91.0,120.0,8.0,0.0
1530,68.0,74.0,120.0,8.0,0.0
1531,66.0,5.0,120.0,8.0,0.0
1532,59.0,10.0,90.0,3.0,0.0
1533,80.0,19.0,90.0,1.0,0.0
1534,63.0,47.0,90.0,2.0,0.0
1535,64.0,106.0,90.0,8.0,0.0
1536,64.0,119.0,120.0,8.0,0.0
1537,56.0,53.0,420.0,0.0,0.0
1538,68.0,47.0,510.0,7.0,0.0
1539,44.0,0.0,420.0,11.0,0.0
1540,63.0,12.0,15.0,8.0,0.0
1541,63.0,76.0,120.0,8.0,0.0
1542,61.0,61.0,90.0,8.0,0.0
1543,51.0,36.0,270.0,3.0,0.0
1544,59.0,54.0,120.0,2.0,0.0
1545,80.0,2.0,180.0,1.0,0.0
1546,59.0,4.0,90.0,8.0,0.0
1547,58.0,26.0,990.0,8.0,0.0
1548,53.0,199.0,150.0,3.0,0.0
1549,50.0,0.0,540.0,0.0,0.0
1550,38.0,368.0,540.0,11.0,0.0
1551,58.0,25.0,120.0,2.0,0.0
1552,68.0,20.0,90.0,1.0,0.0
1553,70.0,25.0,990.0,7.0,0.0
1554,53.0,164.0,150.0,3.0,0.0
1555,58.0,10.0,120.0,2.0,0.0
1556,68.0,21.0,90.0,1.0,0.0
1557,44.0,0.0,420.0,11.0,0.0
1558,56.0,14.0,420.0,0.0,0.0
1559,68.0,31.0,420.0,6.0,0.0
1560,53.0,1.0,240.0,3.0,0.0
1561,58.0,44.0,270.0,2.0,0.0
1562,68.0,26.0,150.0,1.0,0.0
1563,54.0,42.0,150.0,3.0,0.0
1564,51.0,0.0,540.0,0.0,0.0
1565,39.0,385.0,540.0,11.0,0.0
1566,72.0,81.0,990.0,7.0,0.0
1567,80.0,4.0,1920.0,6.0,0.0
1568,68.0,31.0,90.0,1.0,0.0
1569,60.0,158.0,150.0,2.0,0.0
1570,54.0,28.0,120.0,3.0,0.0
1571,68.0,32.0,90.0,1.0,0.0
1572,60.0,144.0,120.0,2.0,0.0
1573,56.0,0.0,450.0,0.0,0.0
1574,44.0,43.0,450.0,11.0,0.0
1575,54.0,8.0,210.0,3.0,0.0
1576,60.0,15.0,180.0,2.0,0.0
1577,68.0,7.0,180.0,1.0,0.0
1578,56.0,14.0,120.0,3.0,0.0
1579,74.0,6.0,930.0,7.0,0.0
1580,62.0,189.0,150.0,2.0,0.0
1581,41.0,421.0,450.0,11.0,0.0
1582,53.0,0.0,450.0,0.0,0.0
1583,68.0,28.0,90.0,1.0,0.0
1584,58.0,70.0,1920.0,4.0,0.0
1585,68.0,1.0,90.0,1.0,0.0
1586,56.0,28.0,90.0,3.0,0.0
1587,62.0,101.0,120.0,2.0,0.0
1588,58.0,93.0,480.0,0.0,0.0
1589,46.0,0.0,480.0,11.0,0.0
1590,58.0,20.0,420.0,8.0,0.0
1591,56.0,3.0,210.0,3.0,0.0
1592,68.0,5.0,180.0,1.0,0.0
1593,62.0,24.0,210.0,2.0,0.0
1594,75.0,17.0,1020.0,7.0,0.0
1595,54.0,27.0,120.0,3.0,0.0
1596,78.0,56.0,1260.0,6.0,0.0
1597,70.0,75.0,1170.0,8.0,0.0
1598,66.0,13.0,90.0,1.0,0.0
1599,63.0,190.0,120.0,2.0,0.0
1600,42.0,400.0,510.0,11.0,0.0
1601,54.0,0.0,510.0,0.0,0.0
1602,54.0,26.0,120.0,3.0,0.0
1603,66.0,14.0,90.0,1.0,0.0
1604,63.0,160.0,120.0,2.0,0.0
1605,46.0,0.0,420.0,11.0,0.0
1606,58.0,6.0,420.0,0.0,0.0
1607,66.0,15.0,180.0,1.0,0.0
1608,63.0,42.0,210.0,2.0,0.0
1609,54.0,7.0,180.0,3.0,0.0
1610,65.0,13.0,90.0,1.0,0.0
1611,56.0,73.0,120.0,3.0,0.0
1612,59.0,0.0,120.0,2.0,0.0
1613,71.0,8.0,960.0,7.0,0.0
1614,56.0,205.0,480.0,4.0,0.0
1615,44.0,0.0,480.0,11.0,0.0
1616,56.0,8.0,480.0,0.0,0.0
1617,68.0,11.0,240.0,8.0,0.0
1618,65.0,40.0,90.0,1.0,0.0
1619,77.0,7.0,240.0,6.0,0.0
1620,56.0,0.0,120.0,3.0,0.0
1621,59.0,98.0,90.0,2.0,0.0
1622,80.0,158.0,270.0,6.0,0.0
1623,71.0,36.0,210.0,8.0,0.0
1624,53.0,9.0,480.0,4.0,0.0
1625,53.0,0.0,420.0,0.0,0.0
1626,41.0,28.0,420.0,11.0,0.0
1627,68.0,2.0,180.0,8.0,0.0
1628,77.0,58.0,270.0,6.0,0.0
1629,65.0,1.0,180.0,1.0,0.0
1630,59.0,10.0,180.0,2.0,0.0
1631,56.0,25.0,180.0,3.0,0.0
1632,66.0,60.0,450.0,8.0,0.0
1633,70.0,27.0,90.0,1.0,0.0
1634,58.0,13.0,90.0,3.0,0.0
1635,75.0,2.0,480.0,6.0,0.0
1636,70.0,17.0,480.0,7.0,0.0
1637,63.0,217.0,90.0,2.0,0.0
1638,58.0,3.0,420.0,4.0,0.0
1639,58.0,0.0,480.0,0.0,0.0
1640,46.0,311.0,480.0,11.0,0.0
1641,70.0,2.0,90.0,1.0,0.0
1642,58.0,67.0,120.0,3.0,0.0
1643,63.0,26.0,90.0,2.0,0.0
1644,46.0,56.0,480.0,4.0,0.0
1645,74.0,46.0,360.0,6.0,0.0
1646,68.0,74.0,540.0,7.0,0.0
1647,65.0,18.0,450.0,8.0,0.0
1648,34.0,17.0,360.0,11.0,0.0
1649,46.0,0.0,360.0,0.0,0.0
1650,58.0,14.0,90.0,3.0,0.0
1651,62.0,12.0,90.0,2.0,0.0
1652,70.0,32.0,150.0,1.0,0.0
1653,54.0,193.0,120.0,4.0,0.0
1654,63.0,11.0,120.0,2.0,0.0
1655,66.0,217.0,630.0,7.0,0.0
1656,63.0,75.0,930.0,8.0,0.0
1657,51.0,94.0,420.0,0.0,0.0
1658,39.0,0.0,420.0,11.0,0.0
1659,70.0,1.0,120.0,1.0,0.0
1660,58.0,0.0,120.0,3.0,0.0
1661,75.0,104.0,510.0,6.0,0.0
1662,70.0,27.0,90.0,1.0,0.0
1663,63.0,25.0,90.0,2.0,0.0
1664,54.0,53.0,120.0,4.0,0.0
1665,58.0,3.0,90.0,3.0,0.0
1666,42.0,0.0,450.0,11.0,0.0
1667,54.0,24.0,450.0,0.0,0.0
1668,54.0,33.0,180.0,4.0,0.0
1669,63.0,32.0,150.0,2.0,0.0
1670,58.0,13.0,210.0,3.0,0.0
1671,66.0,3.0,120.0,1.0,0.0
1672,78.0,52.0,1920.0,6.0,0.0
1673,75.0,4.0,1890.0,7.0,0.0
1674,54.0,16.0,90.0,4.0,0.0
1675,66.0,15.0,90.0,1.0,0.0
1676,57.0,207.0,120.0,3.0,0.0
1677,63.0,9.0,90.0,2.0,0.0
1678,45.0,0.0,450.0,11.0,0.0
1679,57.0,397.0,450.0,0.0,0.0
1680,54.0,89.0,120.0,4.0,0.0
1681,66.0,26.0,90.0,1.0,0.0
1682,57.0,0.0,120.0,3.0,0.0
1683,63.0,11.0,90.0,2.0,0.0
1684,37.0,78.0,480.0,11.0,0.0
1685,49.0,0.0,480.0,0.0,0.0
1686,54.0,44.0,210.0,4.0,0.0
1687,57.0,32.0,180.0,3.0,0.0
1688,63.0,24.0,120.0,2.0,0.0
1689,66.0,14.0,150.0,1.0,0.0
1690,51.0,7.0,120.0,4.0,0.0
1691,56.0,193.0,120.0,3.0,0.0
1692,36.0,150.0,420.0,11.0,0.0
1693,48.0,0.0,420.0,0.0,0.0
1694,66.0,8.0,90.0,1.0,0.0
1695,69.0,267.0,570.0,8.0,0.0
1696,63.0,12.0,90.0,2.0,0.0
1697,51.0,2.0,120.0,4.0,0.0
1698,66.0,25.0,90.0,1.0,0.0
1699,63.0,23.0,60.0,2.0,0.0
1700,56.0,85.0,90.0,3.0,0.0
1701,39.0,38.0,480.0,11.0,0.0
1702,51.0,0.0,480.0,0.0,0.0
1703,68.0,1.0,180.0,8.0,0.0
1704,51.0,22.0,180.0,4.0,0.0
1705,56.0,12.0,180.0,3.0,0.0
1706,56.0,41.0,180.0,2.0,0.0
1707,68.0,207.0,720.0,8.0,0.0
1708,42.0,0.0,450.0,11.0,0.0
1709,54.0,252.0,450.0,0.0,0.0
1710,51.0,8.0,90.0,4.0,0.0
1711,56.0,37.0,90.0,3.0,0.0
1712,63.0,45.0,990.0,7.0,0.0
1713,66.0,27.0,960.0,6.0,0.0
1714,56.0,194.0,90.0,2.0,0.0
1715,51.0,95.0,120.0,4.0,0.0
1716,56.0,25.0,90.0,3.0,0.0
1717,56.0,10.0,90.0,2.0,0.0
1718,48.0,0.0,420.0,0.0,0.0
1719,36.0,12.0,420.0,11.0,0.0
1720,51.0,28.0,210.0,4.0,0.0
1721,56.0,16.0,180.0,3.0,0.0
1722,56.0,0.0,150.0,2.0,0.0
1723,49.0,8.0,150.0,4.0,0.0
1724,64.0,142.0,630.0,6.0,0.0
1725,61.0,23.0,600.0,7.0,0.0
1726,49.0,109.0,480.0,0.0,0.0
1727,37.0,0.0,480.0,11.0,0.0
1728,54.0,57.0,60.0,3.0,0.0
1729,56.0,219.0,90.0,2.0,0.0
1730,49.0,103.0,150.0,4.0,0.0
1731,52.0,13.0,90.0,3.0,0.0
1732,56.0,20.0,90.0,2.0,0.0
1733,40.0,64.0,480.0,11.0,0.0
1734,52.0,0.0,480.0,0.0,0.0
1735,52.0,96.0,60.0,3.0,0.0
1736,64.0,30.0,150.0,1.0,0.0
1737,52.0,13.0,180.0,4.0,0.0
1738,61.0,75.0,150.0,2.0,0.0
1739,52.0,11.0,120.0,4.0,0.0
1740,76.0,1.0,1950.0,6.0,0.0
1741,43.0,0.0,450.0,11.0,0.0
1742,55.0,413.0,450.0,0.0,0.0
1743,64.0,5.0,90.0,1.0,0.0
1744,73.0,20.0,1920.0,7.0,0.0
1745,55.0,26.0,90.0,3.0,0.0
1746,61.0,201.0,120.0,2.0,0.0
1747,52.0,105.0,120.0,4.0,0.0
1748,55.0,1.0,90.0,3.0,0.0
1749,64.0,15.0,90.0,1.0,0.0
1750,61.0,4.0,90.0,2.0,0.0
1751,35.0,68.0,480.0,11.0,0.0
1752,47.0,0.0,480.0,0.0,0.0
1753,52.0,2.0,180.0,4.0,0.0
1754,55.0,68.0,180.0,3.0,0.0
1755,64.0,14.0,120.0,1.0,0.0
1756,61.0,15.0,150.0,2.0,0.0
1757,52.0,30.0,90.0,4.0,0.0
1758,67.0,167.0,690.0,8.0,0.0
1759,54.0,10.0,90.0,3.0,0.0
1760,46.0,0.0,510.0,0.0,0.0
1761,34.0,179.0,510.0,11.0,0.0
1762,64.0,2.0,60.0,1.0,0.0
1763,61.0,201.0,90.0,2.0,0.0
1764,52.0,22.0,120.0,4.0,0.0
1765,54.0,0.0,90.0,3.0,0.0
1766,61.0,144.0,120.0,2.0,0.0
1767,64.0,20.0,60.0,1.0,0.0
1768,37.0,0.0,510.0,11.0,0.0
1769,49.0,63.0,510.0,0.0,0.0
1770,52.0,48.0,210.0,4.0,0.0
1771,52.0,9.0,150.0,3.0,0.0
1772,66.0,25.0,120.0,8.0,0.0
1773,54.0,36.0,150.0,2.0,0.0
1774,49.0,5.0,120.0,4.0,0.0
1775,61.0,125.0,990.0,7.0,0.0
1776,52.0,20.0,90.0,3.0,0.0
1777,66.0,40.0,870.0,8.0,0.0
1778,52.0,356.0,450.0,0.0,0.0
1779,40.0,0.0,450.0,11.0,0.0
1780,54.0,222.0,90.0,2.0,0.0
1781,64.0,40.0,930.0,6.0,0.0
1782,49.0,85.0,120.0,4.0,0.0
1783,52.0,9.0,90.0,3.0,0.0
1784,54.0,31.0,90.0,2.0,0.0
1785,46.0,24.0,450.0,0.0,0.0
1786,34.0,0.0,450.0,11.0,0.0
1787,42.0,20.0,120.0,3.0,0.0
1788,42.0,32.0,90.0,4.0,0.0
1789,54.0,12.0,150.0,2.0,0.0
1790,59.0,111.0,780.0,7.0,0.0
1791,63.0,38.0,750.0,6.0,0.0
1792,35.0,29.0,480.0,11.0,0.0
1793,59.0,77.0,870.0,2.0,0.0
1794,47.0,245.0,120.0,5.0,0.0
1795,35.0,14.0,120.0,4.0,0.0
1796,47.0,44.0,480.0,0.0,0.0
1797,35.0,17.0,120.0,4.0,0.0
1798,47.0,51.0,150.0,5.0,0.0
1799,51.0,40.0,540.0,0.0,0.0
1800,39.0,12.0,540.0,11.0,0.0
1801,35.0,1.0,150.0,4.0,0.0
1802,47.0,2.0,150.0,5.0,0.0
1803,35.0,25.0,120.0,4.0,0.0
1804,47.0,220.0,120.0,5.0,0.0
1805,54.0,40.0,480.0,0.0,0.0
1806,42.0,360.0,480.0,11.0,0.0
1807,35.0,52.0,90.0,4.0,0.0
1808,47.0,105.0,150.0,5.0,0.0
1809,35.0,29.0,480.0,11.0,0.0
1810,47.0,118.0,480.0,0.0,0.0
1811,35.0,11.0,210.0,4.0,0.0
1812,47.0,40.0,150.0,5.0,0.0
1813,42.0,10.0,150.0,4.0,0.0
1814,34.0,31.0,480.0,11.0,0.0
1815,54.0,222.0,150.0,5.0,0.0
1816,46.0,361.0,480.0,0.0,0.0
1817,42.0,24.0,120.0,4.0,0.0
1818,54.0,100.0,120.0,5.0,0.0
1819,49.0,40.0,480.0,0.0,0.0
1820,37.0,63.0,480.0,11.0,0.0
1821,54.0,40.0,150.0,5.0,0.0
1822,42.0,52.0,180.0,4.0,0.0
1823,54.0,40.0,480.0,0.0,0.0
1824,54.0,234.0,120.0,5.0,0.0
1825,42.0,13.0,90.0,4.0,0.0
1826,42.0,289.0,480.0,11.0,0.0
1827,54.0,13.0,120.0,5.0,0.0
1828,42.0,93.0,90.0,4.0,0.0
1829,46.0,25.0,420.0,0.0,0.0
1830,34.0,115.0,420.0,11.0,0.0
1831,54.0,97.0,90.0,5.0,0.0
1832,42.0,15.0,180.0,4.0,0.0
1833,47.0,40.0,480.0,0.0,0.0
1834,47.0,26.0,120.0,4.0,0.0
1835,51.0,0.0,960.0,5.0,0.0
1836,59.0,18.0,960.0,5.0,0.0
1837,59.0,229.0,120.0,1.0,0.0
1838,54.0,6.0,120.0,2.0,0.0
1839,35.0,360.0,480.0,11.0,0.0
1840,51.0,3.0,90.0,3.0,0.0
1841,78.0,34.0,3330.0,6.0,0.0
1842,59.0,4.0,120.0,1.0,0.0
1843,54.0,5.0,120.0,2.0,0.0
1844,47.0,91.0,120.0,4.0,0.0
1845,51.0,12.0,120.0,3.0,0.0
1846,51.0,40.0,510.0,0.0,0.0
1847,39.0,22.0,510.0,11.0,0.0
1848,59.0,4.0,180.0,1.0,0.0
1849,51.0,4.0,150.0,3.0,0.0
1850,47.0,73.0,180.0,4.0,0.0
1851,54.0,6.0,150.0,2.0,0.0
1852,54.0,40.0,480.0,0.0,0.0
1853,59.0,3.0,90.0,1.0,0.0
1854,51.0,13.0,90.0,3.0,0.0
1855,54.0,216.0,90.0,2.0,0.0
1856,42.0,386.0,480.0,11.0,0.0
1857,47.0,4.0,90.0,4.0,0.0
1858,51.0,11.0,90.0,3.0,0.0
1859,59.0,3.0,90.0,1.0,0.0
1860,47.0,3.0,90.0,4.0,0.0
1861,54.0,113.0,90.0,2.0,0.0
1862,47.0,40.0,510.0,0.0,0.0
1863,35.0,25.0,510.0,11.0,0.0
1864,54.0,4.0,180.0,3.0,0.0
1865,51.0,22.0,180.0,4.0,0.0
1866,59.0,10.0,180.0,2.0,0.0
1867,59.0,55.0,180.0,1.0,0.0
1868,54.0,16.0,120.0,4.0,0.0
1869,58.0,2.0,90.0,3.0,0.0
1870,61.0,7.0,120.0,2.0,0.0
1871,66.0,234.0,120.0,1.0,0.0
1872,46.0,40.0,480.0,0.0,0.0
1873,34.0,310.0,480.0,11.0,0.0
1874,54.0,4.0,120.0,4.0,0.0
1875,58.0,1.0,120.0,3.0,0.0
1876,61.0,8.0,120.0,2.0,0.0
1877,66.0,155.0,90.0,1.0,0.0
1878,49.0,40.0,510.0,0.0,0.0
1879,37.0,25.0,510.0,11.0,0.0
1880,54.0,17.0,150.0,4.0,0.0
1881,58.0,13.0,180.0,3.0,0.0
1882,61.0,21.0,150.0,2.0,0.0
1883,66.0,79.0,180.0,1.0,0.0
1884,54.0,5.0,90.0,4.0,0.0
1885,54.0,6.0,510.0,0.0,0.0
1886,58.0,12.0,120.0,3.0,0.0
1887,61.0,21.0,90.0,2.0,0.0
1888,66.0,195.0,120.0,1.0,0.0
1889,42.0,190.0,510.0,11.0,0.0
1890,54.0,5.0,90.0,4.0,0.0
1891,66.0,154.0,120.0,1.0,0.0
1892,58.0,12.0,90.0,3.0,0.0
1893,61.0,8.0,90.0,2.0,0.0
1894,76.0,186.0,240.0,6.0,0.0
1895,46.0,40.0,450.0,0.0,0.0
1896,34.0,85.0,450.0,11.0,0.0
1897,75.0,3.0,210.0,6.0,0.0
1898,58.0,4.0,180.0,3.0,0.0
1899,61.0,10.0,180.0,2.0,0.0
1900,66.0,12.0,210.0,1.0,0.0
1901,54.0,8.0,180.0,4.0,0.0
1902,73.0,25.0,510.0,6.0,0.0
1903,59.0,13.0,120.0,3.0,0.0
1904,56.0,194.0,120.0,4.0,0.0
1905,63.0,7.0,120.0,2.0,0.0
1906,44.0,15.0,480.0,0.0,0.0
1907,71.0,1.0,120.0,1.0,0.0
1908,32.0,329.0,480.0,11.0,0.0
1909,63.0,22.0,120.0,2.0,0.0
1910,71.0,13.0,90.0,1.0,0.0
1911,59.0,18.0,90.0,3.0,0.0
1912,56.0,114.0,120.0,4.0,0.0
1913,47.0,40.0,510.0,0.0,0.0
1914,71.0,80.0,720.0,6.0,0.0
1915,35.0,27.0,510.0,11.0,0.0
1916,51.0,63.0,210.0,4.0,0.0
1917,56.0,22.0,150.0,3.0,0.0
1918,59.0,9.0,150.0,2.0,0.0
1919,63.0,16.0,180.0,1.0,0.0
1920,51.0,15.0,480.0,0.0,0.0
1921,56.0,4.0,90.0,3.0,0.0
1922,51.0,126.0,120.0,4.0,0.0
1923,59.0,20.0,90.0,2.0,0.0
1924,63.0,15.0,90.0,1.0,0.0
1925,39.0,105.0,480.0,11.0,0.0
1926,56.0,5.0,90.0,3.0,0.0
1927,59.0,30.0,90.0,2.0,0.0
1928,70.0,17.0,120.0,6.0,0.0
1929,63.0,2.0,60.0,1.0,0.0
1930,51.0,86.0,120.0,4.0,0.0
1931,71.0,25.0,150.0,6.0,0.0
1932,44.0,5.0,450.0,0.0,0.0
1933,73.0,92.0,150.0,6.0,0.0
1934,32.0,17.0,450.0,11.0,0.0
1935,71.0,80.0,120.0,6.0,0.0
1936,70.0,67.0,120.0,6.0,0.0
1937,59.0,31.0,150.0,2.0,0.0
1938,63.0,4.0,180.0,1.0,0.0
1939,56.0,35.0,180.0,3.0,0.0
1940,51.0,8.0,180.0,4.0,0.0
1941,68.0,89.0,180.0,6.0,0.0
1942,66.0,14.0,1170.0,6.0,0.0
1943,54.0,4.0,90.0,3.0,0.0
1944,59.0,24.0,90.0,2.0,0.0
1945,39.0,40.0,510.0,0.0,0.0
1946,66.0,1.0,90.0,1.0,0.0
1947,51.0,207.0,120.0,4.0,0.0
1948,71.0,92.0,1140.0,7.0,0.0
1949,27.0,326.0,510.0,11.0,0.0
1950,54.0,3.0,90.0,3.0,0.0
1951,66.0,2.0,120.0,1.0,0.0
1952,59.0,21.0,90.0,2.0,0.0
1953,51.0,162.0,90.0,4.0,0.0
1954,42.0,40.0,480.0,0.0,0.0
1955,30.0,42.0,480.0,11.0,0.0
1956,66.0,1.0,180.0,1.0,0.0
1957,59.0,1.0,150.0,3.0,0.0
1958,54.0,4.0,150.0,4.0,0.0
1959,63.0,68.0,150.0,2.0,0.0
1960,47.0,2.0,420.0,0.0,0.0
1961,59.0,17.0,90.0,3.0,0.0
1962,66.0,1.0,90.0,1.0,0.0
1963,54.0,81.0,120.0,4.0,0.0
1964,63.0,11.0,90.0,2.0,0.0
1965,35.0,1.0,420.0,11.0,0.0
1966,73.0,20.0,90.0,7.0,0.0
1967,66.0,15.0,90.0,1.0,0.0
1968,59.0,20.0,60.0,3.0,0.0
1969,54.0,3.0,120.0,4.0,0.0
1970,63.0,55.0,120.0,2.0,0.0
1971,71.0,4.0,60.0,7.0,0.0
1972,70.0,38.0,90.0,7.0,0.0
1973,71.0,219.0,60.0,7.0,0.0
1974,39.0,40.0,480.0,0.0,0.0
1975,73.0,198.0,210.0,7.0,0.0
1976,27.0,0.0,480.0,11.0,0.0
1977,75.0,57.0,270.0,7.0,0.0
1978,66.0,22.0,210.0,1.0,0.0
1979,59.0,15.0,150.0,3.0,0.0
1980,54.0,15.0,180.0,4.0,0.0
1981,63.0,20.0,180.0,2.0,0.0
1982,68.0,16.0,120.0,1.0,0.0
1983,59.0,18.0,90.0,3.0,0.0
1984,56.0,207.0,120.0,4.0,0.0
1985,40.0,40.0,480.0,0.0,0.0
1986,61.0,7.0,90.0,2.0,0.0
1987,72.0,155.0,720.0,7.0,0.0
1988,28.0,214.0,480.0,11.0,0.0
1989,59.0,10.0,90.0,3.0,0.0
1990,61.0,24.0,120.0,2.0,0.0
1991,68.0,6.0,90.0,1.0,0.0
1992,56.0,93.0,120.0,4.0,0.0
1993,44.0,40.0,480.0,0.0,0.0
1994,32.0,33.0,480.0,11.0,0.0
1995,73.0,4.0,180.0,7.0,0.0
1996,59.0,26.0,150.0,3.0,0.0
1997,61.0,8.0,180.0,2.0,0.0
1998,68.0,42.0,180.0,1.0,0.0
1999,56.0,16.0,210.0,4.0,0.0
2000,73.0,7.0,930.0,7.0,0.0
2001,59.0,17.0,90.0,3.0,0.0
2002,52.0,194.0,120.0,4.0,0.0
2003,61.0,8.0,90.0,2.0,0.0
2004,47.0,40.0,480.0,0.0,0.0
2005,68.0,16.0,90.0,1.0,0.0
2006,35.0,362.0,480.0,11.0,0.0
2007,59.0,42.0,60.0,3.0,0.0
2008,52.0,120.0,120.0,4.0,0.0
2009,61.0,8.0,120.0,2.0,0.0
2010,68.0,15.0,120.0,1.0,0.0
2011,41.0,40.0,450.0,0.0,0.0
2012,29.0,74.0,450.0,11.0,0.0
2013,59.0,5.0,180.0,3.0,0.0
2014,53.0,28.0,180.0,4.0,0.0
2015,68.0,3.0,180.0,1.0,0.0
2016,61.0,7.0,180.0,2.0,0.0
2017,54.0,15.0,120.0,4.0,0.0
2018,75.0,99.0,240.0,7.0,0.0
2019,58.0,10.0,120.0,3.0,0.0
2020,42.0,40.0,480.0,0.0,0.0
2021,64.0,4.0,90.0,1.0,0.0
2022,61.0,92.0,120.0,2.0,0.0
2023,30.0,195.0,480.0,11.0,0.0
2024,58.0,25.0,90.0,3.0,0.0
2025,73.0,11.0,210.0,7.0,0.0
2026,54.0,3.0,120.0,4.0,0.0
2027,61.0,91.0,120.0,2.0,0.0
2028,64.0,15.0,90.0,1.0,0.0
2029,71.0,161.0,240.0,7.0,0.0
2030,46.0,40.0,480.0,0.0,0.0
2031,34.0,34.0,480.0,11.0,0.0
2032,70.0,36.0,210.0,7.0,0.0
2033,64.0,3.0,150.0,1.0,0.0
2034,58.0,16.0,150.0,3.0,0.0
2035,61.0,10.0,150.0,2.0,0.0
2036,54.0,18.0,150.0,4.0,0.0
2037,68.0,70.0,270.0,7.0,0.0
2038,64.0,15.0,90.0,1.0,0.0
2039,58.0,3.0,90.0,3.0,0.0
2040,49.0,40.0,480.0,0.0,0.0
2041,61.0,37.0,90.0,2.0,0.0
2042,54.0,121.0,120.0,4.0,0.0
2043,37.0,193.0,480.0,11.0,0.0
2044,66.0,139.0,510.0,7.0,0.0
2045,64.0,19.0,90.0,1.0,0.0
2046,61.0,22.0,90.0,2.0,0.0
2047,58.0,14.0,120.0,3.0,0.0
2048,54.0,119.0,120.0,4.0,0.0
2049,43.0,40.0,480.0,0.0,0.0
2050,31.0,33.0,480.0,11.0,0.0
2051,64.0,51.0,210.0,7.0,0.0
2052,64.0,2.0,150.0,1.0,0.0
2053,58.0,30.0,150.0,3.0,0.0
2054,55.0,16.0,120.0,4.0,0.0
2055,61.0,7.0,150.0,2.0,0.0
2056,66.0,66.0,180.0,7.0,0.0
2057,44.0,21.0,480.0,0.0,0.0
2058,64.0,15.0,60.0,1.0,0.0
2059,58.0,17.0,90.0,3.0,0.0
2060,61.0,78.0,90.0,2.0,0.0
2061,55.0,7.0,900.0,4.0,0.0
2062,32.0,35.0,480.0,11.0,0.0
2063,64.0,65.0,60.0,7.0,0.0
2064,64.0,16.0,90.0,1.0,0.0
2065,66.0,19.0,60.0,7.0,0.0
2066,58.0,15.0,90.0,3.0,0.0
2067,61.0,4.0,90.0,2.0,0.0
2068,64.0,52.0,60.0,7.0,0.0
2069,66.0,54.0,60.0,7.0,0.0
2070,64.0,19.0,60.0,7.0,0.0
2071,66.0,19.0,30.0,7.0,0.0
2072,47.0,40.0,480.0,0.0,0.0
2073,64.0,26.0,60.0,7.0,0.0
2074,35.0,45.0,480.0,11.0,0.0
2075,66.0,41.0,30.0,7.0,0.0
2076,64.0,40.0,30.0,7.0,0.0
2077,66.0,40.0,30.0,7.0,0.0
2078,64.0,42.0,30.0,7.0,0.0
2079,66.0,130.0,60.0,7.0,0.0
2080,64.0,13.0,240.0,1.0,0.0
2081,61.0,7.0,210.0,2.0,0.0
2082,58.0,7.0,180.0,3.0,0.0
2083,64.0,31.0,150.0,7.0,0.0
2084,63.0,15.0,60.0,7.0,0.0
2085,64.0,18.0,30.0,7.0,0.0
2086,59.0,219.0,120.0,2.0,0.0
2087,56.0,25.0,1470.0,4.0,0.0
2088,63.0,4.0,120.0,1.0,0.0
2089,63.0,12.0,930.0,7.0,0.0
2090,59.0,1.0,90.0,3.0,0.0
2091,51.0,40.0,420.0,0.0,0.0
2092,39.0,411.0,420.0,11.0,0.0
2093,59.0,10.0,90.0,2.0,0.0
2094,63.0,81.0,120.0,1.0,0.0
2095,59.0,14.0,90.0,3.0,0.0
2096,44.0,40.0,480.0,0.0,0.0
2097,32.0,76.0,480.0,11.0,0.0
2098,60.0,23.0,180.0,3.0,0.0
2099,63.0,4.0,180.0,1.0,0.0
2100,63.0,28.0,180.0,2.0,0.0
2101,68.0,237.0,120.0,1.0,0.0
2102,61.0,1.0,120.0,3.0,0.0
2103,59.0,9.0,120.0,2.0,0.0
2104,52.0,40.0,510.0,0.0,0.0
2105,68.0,27.0,930.0,8.0,0.0
2106,40.0,335.0,510.0,11.0,0.0
2107,68.0,16.0,120.0,1.0,0.0
2108,61.0,105.0,120.0,3.0,0.0
2109,59.0,9.0,90.0,2.0,0.0
2110,51.0,40.0,480.0,0.0,0.0
2111,51.0,12.0,450.0,4.0,0.0
2112,39.0,12.0,480.0,11.0,0.0
2113,68.0,31.0,180.0,1.0,0.0
2114,66.0,0.0,210.0,2.0,0.0
2115,61.0,22.0,150.0,3.0,0.0
2116,49.0,13.0,480.0,0.0,0.0
2117,56.0,30.0,960.0,8.0,0.0
2118,64.0,197.0,120.0,2.0,0.0
2119,61.0,48.0,60.0,3.0,0.0
2120,52.0,27.0,480.0,4.0,0.0
2121,68.0,3.0,90.0,1.0,0.0
2122,37.0,287.0,480.0,11.0,0.0
2123,61.0,7.0,90.0,3.0,0.0
2124,68.0,55.0,90.0,1.0,0.0
2125,64.0,103.0,120.0,2.0,0.0
2126,47.0,40.0,510.0,0.0,0.0
2127,47.0,35.0,450.0,4.0,0.0
2128,35.0,36.0,510.0,11.0,0.0
2129,68.0,4.0,180.0,1.0,0.0
2130,63.0,89.0,90.0,3.0,0.0
2131,63.0,7.0,180.0,2.0,0.0
2132,66.0,29.0,120.0,1.0,0.0
2133,46.0,40.0,480.0,0.0,0.0
2134,61.0,218.0,120.0,2.0,0.0
2135,64.0,4.0,1440.0,3.0,0.0
2136,54.0,1.0,2040.0,4.0,0.0
2137,73.0,47.0,930.0,8.0,0.0
2138,34.0,360.0,480.0,11.0,0.0
2139,66.0,30.0,120.0,1.0,0.0
2140,61.0,112.0,120.0,2.0,0.0
2141,44.0,40.0,510.0,0.0,0.0
2142,32.0,24.0,510.0,11.0,0.0
2143,66.0,31.0,150.0,1.0,0.0
2144,59.0,28.0,180.0,2.0,0.0
2145,58.0,218.0,120.0,2.0,0.0
2146,66.0,30.0,90.0,1.0,0.0
2147,42.0,40.0,480.0,0.0,0.0
2148,46.0,8.0,990.0,8.0,0.0
2149,30.0,374.0,480.0,11.0,0.0
2150,66.0,42.0,90.0,1.0,0.0
2151,58.0,95.0,120.0,2.0,0.0
2152,61.0,17.0,510.0,3.0,0.0
2153,40.0,15.0,480.0,0.0,0.0
2154,28.0,78.0,480.0,11.0,0.0
2155,66.0,42.0,180.0,1.0,0.0
2156,70.0,36.0,180.0,2.0,0.0
2157,63.0,184.0,150.0,3.0,0.0
2158,39.0,40.0,540.0,0.0,0.0
2159,47.0,68.0,480.0,8.0,0.0
2160,66.0,1.0,120.0,1.0,0.0
2161,71.0,20.0,120.0,2.0,0.0
2162,27.0,324.0,540.0,11.0,0.0
2163,66.0,30.0,90.0,1.0,0.0
2164,63.0,33.0,120.0,3.0,0.0
2165,54.0,6.0,120.0,4.0,0.0
2166,71.0,72.0,120.0,2.0,0.0
2167,47.0,11.0,450.0,0.0,0.0
2168,71.0,5.0,480.0,8.0,0.0
2169,35.0,101.0,450.0,11.0,0.0
2170,63.0,24.0,240.0,2.0,0.0
2171,66.0,1.0,210.0,1.0,0.0
2172,51.0,32.0,180.0,4.0,0.0
2173,59.0,3.0,180.0,3.0,0.0
2174,56.0,1.0,120.0,3.0,0.0
2175,40.0,40.0,480.0,0.0,0.0
2176,61.0,125.0,120.0,2.0,0.0
2177,56.0,61.0,270.0,4.0,0.0
2178,64.0,18.0,90.0,1.0,0.0
2179,70.0,4.0,240.0,8.0,0.0
2180,28.0,156.0,480.0,11.0,0.0
2181,52.0,87.0,150.0,4.0,0.0
2182,56.0,19.0,120.0,3.0,0.0
2183,68.0,13.0,240.0,8.0,0.0
2184,64.0,25.0,90.0,1.0,0.0
2185,61.0,25.0,120.0,2.0,0.0
2186,66.0,67.0,240.0,8.0,0.0
2187,49.0,40.0,450.0,0.0,0.0
2188,37.0,63.0,450.0,11.0,0.0
2189,64.0,1.0,240.0,8.0,0.0
2190,56.0,1.0,180.0,3.0,0.0
2191,64.0,4.0,180.0,1.0,0.0
2192,49.0,45.0,150.0,4.0,0.0
2193,61.0,22.0,180.0,2.0,0.0
2194,52.0,117.0,15.0,4.0,0.0
2195,63.0,75.0,300.0,8.0,0.0
2196,54.0,22.0,240.0,4.0,0.0
2197,54.0,14.0,90.0,3.0,0.0
2198,42.0,40.0,480.0,0.0,0.0
2199,63.0,3.0,90.0,1.0,0.0
2200,59.0,132.0,90.0,2.0,0.0
2201,30.0,184.0,480.0,11.0,0.0
2202,51.0,75.0,180.0,4.0,0.0
2203,63.0,18.0,120.0,1.0,0.0
2204,64.0,10.0,240.0,8.0,0.0
2205,59.0,52.0,120.0,2.0,0.0
2206,54.0,1.0,90.0,3.0,0.0
2207,65.0,130.0,240.0,8.0,0.0
2208,47.0,40.0,480.0,0.0,0.0
2209,35.0,37.0,480.0,11.0,0.0
2210,66.0,8.0,150.0,8.0,0.0
2211,54.0,31.0,120.0,3.0,0.0
2212,63.0,13.0,210.0,1.0,0.0
2213,59.0,27.0,150.0,2.0,0.0
2214,47.0,34.0,180.0,4.0,0.0
2215,46.0,5.0,540.0,0.0,0.0
2216,61.0,2.0,120.0,1.0,0.0
2217,66.0,15.0,120.0,2.0,0.0
2218,52.0,154.0,120.0,4.0,0.0
2219,34.0,158.0,540.0,11.0,0.0
2220,54.0,28.0,90.0,3.0,0.0
2221,66.0,49.0,270.0,8.0,0.0
2222,52.0,149.0,120.0,4.0,0.0
2223,61.0,16.0,90.0,1.0,0.0
2224,66.0,9.0,90.0,2.0,0.0
2225,54.0,6.0,120.0,3.0,0.0
2226,64.0,35.0,270.0,8.0,0.0
2227,63.0,165.0,210.0,8.0,0.0
2228,42.0,10.0,420.0,0.0,0.0
2229,30.0,7.0,420.0,11.0,0.0
2230,61.0,93.0,270.0,8.0,0.0
2231,52.0,11.0,240.0,3.0,0.0
2232,58.0,17.0,150.0,1.0,0.0
2233,54.0,31.0,150.0,2.0,0.0
2234,49.0,19.0,180.0,4.0,0.0
2235,51.0,18.0,120.0,3.0,0.0
2236,59.0,5.0,990.0,8.0,0.0
2237,47.0,6.0,90.0,4.0,0.0
2238,54.0,15.0,1770.0,5.0,0.0
2239,42.0,73.0,1770.0,5.0,0.0
2240,54.0,115.0,120.0,2.0,0.0
2241,63.0,113.0,210.0,7.0,0.0
2242,59.0,1.0,1020.0,1.0,0.0
2243,35.0,8.0,390.0,0.0,0.0
2244,23.0,200.0,390.0,11.0,0.0
2245,51.0,20.0,120.0,3.0,0.0
2246,66.0,32.0,180.0,7.0,0.0
2247,47.0,12.0,120.0,4.0,0.0
2248,54.0,53.0,120.0,2.0,0.0
2249,71.0,258.0,210.0,7.0,0.0
2250,47.0,39.0,480.0,0.0,0.0
2251,35.0,18.0,480.0,11.0,0.0
2252,75.0,14.0,240.0,7.0,0.0
2253,54.0,25.0,180.0,3.0,0.0
2254,59.0,1.0,210.0,2.0,0.0
2255,51.0,41.0,180.0,4.0,0.0
2256,54.0,30.0,90.0,3.0,0.0
2257,58.0,27.0,120.0,2.0,0.0
2258,49.0,40.0,480.0,0.0,0.0
2259,52.0,190.0,120.0,4.0,0.0
2260,76.0,79.0,690.0,7.0,0.0
2261,37.0,201.0,480.0,11.0,0.0
2262,54.0,4.0,90.0,3.0,0.0
2263,58.0,27.0,90.0,2.0,0.0
2264,52.0,104.0,120.0,4.0,0.0
2265,42.0,25.0,420.0,0.0,0.0
2266,30.0,99.0,420.0,11.0,0.0
2267,52.0,13.0,210.0,4.0,0.0
2268,54.0,18.0,180.0,3.0,0.0
2269,70.0,0.0,210.0,7.0,0.0
2270,61.0,2.0,180.0,2.0,0.0
2271,54.0,5.0,90.0,3.0,0.0
2272,51.0,11.0,90.0,4.0,0.0
2273,51.0,30.0,240.0,8.0,0.0
2274,42.0,28.0,3480.0,5.0,0.0
2275,59.0,145.0,90.0,2.0,0.0
2276,73.0,29.0,270.0,7.0,0.0
2277,66.0,15.0,1890.0,1.0,0.0
2278,54.0,4.0,3510.0,5.0,0.0
2279,54.0,33.0,90.0,3.0,0.0
2280,54.0,180.0,240.0,8.0,0.0
2281,51.0,11.0,90.0,4.0,0.0
2282,71.0,72.0,150.0,7.0,0.0
2283,59.0,47.0,90.0,2.0,0.0
2284,47.0,40.0,450.0,0.0,0.0
2285,59.0,240.0,180.0,8.0,0.0
2286,35.0,3.0,450.0,11.0,0.0
2287,71.0,3.0,510.0,7.0,0.0
2288,54.0,7.0,180.0,3.0,0.0
2289,59.0,70.0,240.0,2.0,0.0
2290,51.0,12.0,240.0,4.0,0.0
2291,63.0,8.0,180.0,8.0,0.0
2292,49.0,40.0,510.0,0.0,0.0
2293,52.0,216.0,120.0,4.0,0.0
2294,54.0,5.0,90.0,3.0,0.0
2295,58.0,14.0,90.0,2.0,0.0
2296,64.0,206.0,660.0,8.0,0.0
2297,37.0,141.0,510.0,11.0,0.0
2298,52.0,0.0,90.0,4.0,0.0
2299,54.0,18.0,90.0,3.0,0.0
2300,58.0,150.0,90.0,2.0,0.0
2301,42.0,40.0,480.0,0.0,0.0
2302,30.0,27.0,480.0,11.0,0.0
2303,54.0,12.0,180.0,3.0,0.0
2304,52.0,17.0,210.0,4.0,0.0
2305,58.0,33.0,180.0,8.0,0.0
2306,61.0,13.0,180.0,2.0,0.0
2307,54.0,18.0,90.0,3.0,0.0
2308,51.0,25.0,120.0,4.0,0.0
2309,63.0,52.0,120.0,6.0,0.0
2310,61.0,13.0,270.0,8.0,0.0
2311,78.0,3.0,2880.0,1.0,0.0
2312,59.0,15.0,90.0,2.0,0.0
2313,64.0,77.0,90.0,6.0,0.0
2314,66.0,47.0,60.0,6.0,0.0
2315,51.0,25.0,120.0,4.0,0.0
2316,59.0,13.0,150.0,8.0,0.0
2317,54.0,19.0,90.0,3.0,0.0
2318,59.0,24.0,120.0,2.0,0.0
2319,68.0,117.0,60.0,6.0,0.0
2320,70.0,102.0,90.0,6.0,0.0
2321,59.0,45.0,480.0,8.0,0.0
2322,47.0,27.0,510.0,0.0,0.0
2323,35.0,32.0,510.0,11.0,0.0
2324,71.0,129.0,60.0,6.0,0.0
2325,73.0,129.0,60.0,6.0,0.0
2326,54.0,45.0,180.0,3.0,0.0
2327,51.0,13.0,210.0,4.0,0.0
2328,59.0,13.0,180.0,2.0,0.0
2329,75.0,10.0,90.0,6.0,0.0
2330,76.0,193.0,690.0,6.0,0.0
2331,52.0,0.0,120.0,4.0,0.0
2332,54.0,13.0,90.0,3.0,0.0
2333,49.0,40.0,480.0,0.0,0.0
2334,58.0,203.0,120.0,2.0,0.0
2335,37.0,100.0,480.0,11.0,0.0
2336,54.0,19.0,90.0,3.0,0.0
2337,52.0,25.0,90.0,4.0,0.0
2338,58.0,133.0,90.0,2.0,0.0
2339,42.0,8.0,450.0,0.0,0.0
2340,30.0,85.0,450.0,11.0,0.0
2341,70.0,22.0,180.0,6.0,0.0
2342,61.0,32.0,210.0,2.0,0.0
2343,52.0,2.0,210.0,4.0,0.0
2344,54.0,25.0,150.0,3.0,0.0
2345,73.0,89.0,240.0,6.0,0.0
2346,59.0,16.0,90.0,2.0,0.0
2347,51.0,5.0,120.0,4.0,0.0
2348,47.0,40.0,510.0,0.0,0.0
2349,54.0,125.0,120.0,3.0,0.0
2350,59.0,28.0,1740.0,5.0,0.0
2351,47.0,53.0,1770.0,5.0,0.0
2352,47.0,51.0,900.0,8.0,0.0
2353,35.0,319.0,510.0,11.0,0.0
2354,71.0,6.0,90.0,6.0,0.0
2355,54.0,33.0,90.0,3.0,0.0
2356,59.0,15.0,120.0,2.0,0.0
2357,51.0,130.0,120.0,4.0,0.0
2358,71.0,3.0,540.0,6.0,0.0
2359,51.0,37.0,510.0,0.0,0.0
2360,39.0,16.0,510.0,11.0,0.0
2361,59.0,7.0,150.0,2.0,0.0
2362,51.0,36.0,180.0,4.0,0.0
2363,54.0,23.0,150.0,3.0,0.0
2364,59.0,3.0,90.0,2.0,0.0
2365,51.0,212.0,90.0,4.0,0.0
2366,54.0,19.0,90.0,3.0,0.0
2367,54.0,40.0,480.0,0.0,0.0
2368,63.0,32.0,900.0,8.0,0.0
2369,42.0,278.0,480.0,11.0,0.0
2370,59.0,44.0,90.0,2.0,0.0
2371,54.0,18.0,60.0,3.0,0.0
2372,51.0,100.0,120.0,4.0,0.0
2373,45.0,40.0,480.0,0.0,0.0
2374,33.0,68.0,480.0,11.0,0.0
2375,54.0,1.0,180.0,3.0,0.0
2376,59.0,19.0,150.0,2.0,0.0
2377,51.0,15.0,180.0,4.0,0.0
2378,44.0,40.0,570.0,0.0,0.0
2379,52.0,1.0,90.0,4.0,0.0
2380,56.0,6.0,90.0,3.0,0.0
2381,64.0,2.0,900.0,8.0,0.0
2382,59.0,35.0,3720.0,5.0,0.0
2383,47.0,0.0,3720.0,5.0,0.0
2384,59.0,234.0,90.0,2.0,0.0
2385,47.0,14.0,960.0,7.0,0.0
2386,32.0,270.0,570.0,11.0,0.0
2387,52.0,202.0,120.0,4.0,0.0
2388,56.0,11.0,90.0,3.0,0.0
2389,59.0,8.0,90.0,2.0,0.0
2390,47.0,40.0,480.0,0.0,0.0
2391,35.0,37.0,480.0,11.0,0.0
2392,59.0,42.0,150.0,2.0,0.0
2393,56.0,56.0,180.0,3.0,0.0
2394,52.0,3.0,150.0,4.0,0.0
2395,52.0,40.0,480.0,0.0,0.0
2396,59.0,21.0,90.0,2.0,0.0
2397,44.0,30.0,930.0,8.0,0.0
2398,52.0,201.0,120.0,4.0,0.0
2399,56.0,12.0,120.0,3.0,0.0
2400,64.0,4.0,900.0,7.0,0.0
2401,40.0,354.0,480.0,11.0,0.0
2402,52.0,123.0,90.0,4.0,0.0
2403,56.0,10.0,90.0,3.0,0.0
2404,59.0,9.0,90.0,2.0,0.0
2405,44.0,10.0,450.0,0.0,0.0
2406,32.0,87.0,450.0,11.0,0.0
2407,52.0,20.0,150.0,4.0,0.0
2408,56.0,14.0,180.0,3.0,0.0
2409,59.0,21.0,150.0,2.0,0.0
2410,42.0,9.0,930.0,8.0,0.0
2411,42.0,40.0,510.0,0.0,0.0
2412,54.0,2.0,120.0,4.0,0.0
2413,57.0,221.0,120.0,3.0,0.0
2414,69.0,48.0,930.0,7.0,0.0
2415,59.0,18.0,90.0,2.0,0.0
2416,59.0,15.0,900.0,6.0,0.0
2417,63.0,4.0,90.0,1.0,0.0
2418,30.0,312.0,510.0,11.0,0.0
2419,54.0,6.0,120.0,4.0,0.0
2420,57.0,7.0,90.0,3.0,0.0
2421,59.0,16.0,90.0,2.0,0.0
2422,63.0,143.0,120.0,1.0,0.0
2423,45.0,40.0,480.0,0.0,0.0
2424,33.0,29.0,480.0,11.0,0.0
2425,59.0,16.0,120.0,2.0,0.0
2426,54.0,3.0,150.0,4.0,0.0
2427,57.0,2.0,150.0,3.0,0.0
2428,63.0,33.0,150.0,1.0,0.0
2429,51.0,1.0,1020.0,7.0,0.0
2430,51.0,40.0,540.0,0.0,0.0
2431,63.0,7.0,120.0,1.0,0.0
2432,78.0,17.0,930.0,6.0,0.0
2433,59.0,9.0,90.0,2.0,0.0
2434,69.0,1.0,930.0,8.0,0.0
2435,54.0,3.0,90.0,4.0,0.0
2436,57.0,221.0,90.0,3.0,0.0
2437,39.0,266.0,540.0,11.0,0.0
2438,59.0,30.0,90.0,2.0,0.0
2439,54.0,173.0,120.0,4.0,0.0
2440,57.0,4.0,90.0,3.0,0.0
2441,63.0,2.0,90.0,1.0,0.0
2442,42.0,39.0,480.0,0.0,0.0
2443,30.0,60.0,480.0,11.0,0.0
2444,59.0,18.0,150.0,2.0,0.0
2445,54.0,16.0,150.0,4.0,0.0
2446,57.0,9.0,180.0,3.0,0.0
2447,63.0,25.0,180.0,1.0,0.0
2448,59.0,2.0,1740.0,5.0,0.0
2449,47.0,80.0,1740.0,5.0,0.0
2450,40.0,40.0,480.0,0.0,0.0
2451,64.0,10.0,90.0,1.0,0.0
2452,80.0,36.0,270.0,6.0,0.0
2453,52.0,5.0,90.0,4.0,0.0
2454,52.0,2.0,930.0,7.0,0.0
2455,56.0,7.0,90.0,3.0,0.0
2456,59.0,155.0,120.0,2.0,0.0
2457,68.0,7.0,930.0,8.0,0.0
2458,28.0,340.0,480.0,11.0,0.0
2459,52.0,4.0,90.0,4.0,0.0
2460,56.0,4.0,90.0,3.0,0.0
2461,64.0,21.0,60.0,1.0,0.0
2462,59.0,101.0,90.0,2.0,0.0
2463,76.0,36.0,90.0,6.0,0.0
2464,47.0,33.0,480.0,0.0,0.0
2465,76.0,62.0,510.0,6.0,0.0
2466,35.0,18.0,480.0,11.0,0.0
2467,64.0,22.0,180.0,1.0,0.0
2468,59.0,18.0,150.0,2.0,0.0
2469,52.0,30.0,150.0,4.0,0.0
2470,56.0,1.0,180.0,3.0,0.0
2471,44.0,40.0,540.0,0.0,0.0
2472,59.0,15.0,120.0,1.0,0.0
2473,59.0,5.0,90.0,2.0,0.0
2474,32.0,253.0,540.0,11.0,0.0
2475,52.0,16.0,90.0,4.0,0.0
2476,56.0,197.0,120.0,3.0,0.0
2477,56.0,22.0,120.0,3.0,0.0
2478,59.0,3.0,90.0,1.0,0.0
2479,59.0,9.0,90.0,2.0,0.0
2480,52.0,138.0,120.0,4.0,0.0
2481,59.0,27.0,510.0,7.0,0.0
2482,42.0,13.0,480.0,0.0,0.0
2483,30.0,74.0,480.0,11.0,0.0
2484,51.0,1.0,180.0,3.0,0.0
2485,54.0,21.0,150.0,2.0,0.0
2486,59.0,56.0,180.0,1.0,0.0
2487,61.0,5.0,1020.0,7.0,0.0
2488,54.0,8.0,120.0,2.0,0.0
2489,49.0,174.0,120.0,3.0,0.0
2490,47.0,36.0,3570.0,5.0,0.0
2491,59.0,2.0,3570.0,5.0,0.0
2492,41.0,40.0,510.0,0.0,0.0
2493,59.0,3.0,90.0,1.0,0.0
2494,29.0,271.0,510.0,11.0,0.0
2495,54.0,60.0,60.0,2.0,0.0
2496,49.0,1.0,120.0,3.0,0.0
2497,59.0,158.0,120.0,1.0,0.0
2498,47.0,40.0,510.0,0.0,0.0
2499,35.0,11.0,510.0,11.0,0.0
2500,49.0,25.0,150.0,3.0,0.0
2501,54.0,61.0,90.0,2.0,0.0
2502,59.0,89.0,180.0,1.0,0.0
2503,51.0,3.0,90.0,3.0,0.0
2504,63.0,10.0,990.0,7.0,0.0
2505,42.0,40.0,510.0,0.0,0.0
2506,59.0,199.0,90.0,1.0,0.0
2507,56.0,10.0,60.0,2.0,0.0
2508,30.0,310.0,510.0,11.0,0.0
2509,59.0,156.0,90.0,1.0,0.0
2510,51.0,12.0,90.0,3.0,0.0
2511,54.0,48.0,30.0,2.0,0.0
2512,47.0,40.0,510.0,0.0,0.0
2513,35.0,13.0,510.0,11.0,0.0
2514,54.0,19.0,150.0,2.0,0.0
2515,59.0,107.0,150.0,1.0,0.0
2516,51.0,6.0,120.0,3.0,0.0
2517,52.0,6.0,120.0,3.0,0.0
2518,52.0,5.0,120.0,2.0,0.0
2519,64.0,1.0,900.0,7.0,0.0
2520,59.0,234.0,90.0,1.0,0.0
2521,44.0,40.0,480.0,0.0,0.0
2522,71.0,36.0,900.0,6.0,0.0
2523,32.0,296.0,480.0,11.0,0.0
2524,52.0,19.0,120.0,3.0,0.0
2525,59.0,1.0,90.0,1.0,0.0
2526,52.0,161.0,90.0,2.0,0.0
2527,47.0,40.0,480.0,0.0,0.0
2528,35.0,26.0,480.0,11.0,0.0
2529,59.0,45.0,150.0,1.0,0.0
2530,52.0,14.0,180.0,3.0,0.0
2531,52.0,7.0,180.0,2.0,0.0
2532,59.0,39.0,60.0,1.0,0.0
2533,51.0,7.0,90.0,3.0,0.0
2534,54.0,32.0,90.0,2.0,0.0
2535,42.0,40.0,480.0,0.0,0.0
2536,73.0,76.0,120.0,6.0,0.0
2537,30.0,87.0,480.0,11.0,0.0
2538,71.0,104.0,90.0,6.0,0.0
2539,70.0,2.0,90.0,6.0,0.0
2540,54.0,59.0,90.0,2.0,0.0
2541,59.0,6.0,90.0,1.0,0.0
2542,51.0,23.0,150.0,3.0,0.0
2543,68.0,66.0,90.0,6.0,0.0
2544,68.0,65.0,150.0,6.0,0.0
2545,47.0,40.0,480.0,0.0,0.0
2546,35.0,55.0,480.0,11.0,0.0
2547,66.0,65.0,120.0,6.0,0.0
2548,64.0,121.0,90.0,6.0,0.0
2549,71.0,12.0,210.0,7.0,0.0
2550,59.0,6.0,180.0,1.0,0.0
2551,54.0,30.0,180.0,2.0,0.0
2552,51.0,8.0,150.0,3.0,0.0
2553,63.0,5.0,90.0,6.0,0.0
2554,73.0,6.0,930.0,7.0,0.0
2555,61.0,10.0,990.0,6.0,0.0
2556,71.0,45.0,90.0,1.0,0.0
2557,56.0,7.0,120.0,2.0,0.0
2558,59.0,0.0,3780.0,5.0,0.0
2559,41.0,40.0,510.0,0.0,0.0
2560,47.0,14.0,3780.0,5.0,0.0
2561,49.0,195.0,120.0,3.0,0.0
2562,59.0,23.0,900.0,4.0,0.0
2563,29.0,338.0,510.0,11.0,0.0
2564,71.0,45.0,90.0,1.0,0.0
2565,49.0,124.0,150.0,3.0,0.0
2566,56.0,21.0,120.0,2.0,0.0
2567,47.0,7.0,450.0,0.0,0.0
2568,35.0,82.0,450.0,11.0,0.0
2569,68.0,2.0,210.0,2.0,0.0
2570,61.0,13.0,180.0,3.0,0.0
2571,71.0,14.0,150.0,1.0,0.0
2572,42.0,40.0,510.0,0.0,0.0
2573,75.0,14.0,930.0,7.0,0.0
2574,66.0,7.0,120.0,2.0,0.0
2575,63.0,195.0,120.0,3.0,0.0
2576,57.0,24.0,930.0,4.0,0.0
2577,30.0,342.0,510.0,11.0,0.0
2578,71.0,20.0,90.0,1.0,0.0
2579,63.0,82.0,150.0,3.0,0.0
2580,66.0,49.0,90.0,2.0,0.0
2581,71.0,30.0,60.0,1.0,0.0
2582,47.0,16.0,480.0,0.0,0.0
2583,35.0,45.0,480.0,11.0,0.0
2584,63.0,28.0,180.0,3.0,0.0
2585,71.0,15.0,150.0,1.0,0.0
2586,66.0,14.0,180.0,2.0,0.0
2587,64.0,4.0,120.0,3.0,0.0
2588,71.0,40.0,90.0,1.0,0.0
2589,76.0,32.0,930.0,7.0,0.0
2590,44.0,40.0,510.0,0.0,0.0
2591,56.0,27.0,990.0,4.0,0.0
2592,64.0,190.0,90.0,2.0,0.0
2593,59.0,28.0,900.0,8.0,0.0
2594,32.0,290.0,510.0,11.0,0.0
2595,64.0,16.0,120.0,3.0,0.0
2596,71.0,40.0,60.0,1.0,0.0
2597,64.0,156.0,90.0,2.0,0.0
2598,47.0,13.0,480.0,0.0,0.0
2599,35.0,20.0,480.0,11.0,0.0
2600,71.0,28.0,120.0,1.0,0.0
2601,64.0,27.0,150.0,3.0,0.0
2602,64.0,8.0,180.0,2.0,0.0
2603,71.0,43.0,90.0,1.0,0.0
2604,63.0,116.0,120.0,3.0,0.0
2605,54.0,15.0,930.0,4.0,0.0
2606,61.0,0.0,120.0,8.0,0.0
2607,66.0,9.0,90.0,2.0,0.0
2608,42.0,40.0,480.0,0.0,0.0
2609,30.0,44.0,480.0,11.0,0.0
2610,59.0,54.0,150.0,8.0,0.0
2611,58.0,45.0,120.0,8.0,0.0
2612,63.0,81.0,180.0,3.0,0.0
2613,71.0,38.0,30.0,1.0,0.0
2614,66.0,6.0,120.0,2.0,0.0
2615,56.0,40.0,60.0,8.0,0.0
2616,56.0,65.0,150.0,8.0,0.0
2617,47.0,40.0,450.0,0.0,0.0
2618,35.0,74.0,450.0,11.0,0.0
2619,54.0,130.0,90.0,8.0,0.0
2620,52.0,99.0,90.0,8.0,0.0
2621,59.0,17.0,150.0,2.0,0.0
2622,56.0,11.0,180.0,3.0,0.0
2623,63.0,1.0,180.0,1.0,0.0
2624,51.0,4.0,90.0,8.0,0.0
2625,49.0,22.0,1890.0,8.0,0.0
2626,61.0,17.0,120.0,1.0,0.0
2627,59.0,218.0,120.0,2.0,0.0
2628,47.0,0.0,1740.0,5.0,0.0
2629,59.0,73.0,1740.0,5.0,0.0
2630,52.0,10.0,1890.0,4.0,0.0
2631,40.0,40.0,480.0,0.0,0.0
2632,28.0,335.0,480.0,11.0,0.0
2633,61.0,31.0,120.0,1.0,0.0
2634,59.0,114.0,120.0,2.0,0.0
2635,54.0,11.0,60.0,3.0,0.0
2636,68.0,35.0,1650.0,7.0,0.0
2637,44.0,40.0,510.0,0.0,0.0
2638,32.0,35.0,510.0,11.0,0.0
2639,61.0,4.0,150.0,1.0,0.0
2640,56.0,11.0,150.0,3.0,0.0
2641,59.0,90.0,150.0,2.0,0.0
2642,47.0,40.0,480.0,0.0,0.0
2643,61.0,28.0,90.0,1.0,0.0
2644,56.0,16.0,120.0,3.0,0.0
2645,35.0,314.0,480.0,11.0,0.0
2646,59.0,204.0,120.0,2.0,0.0
2647,61.0,26.0,90.0,1.0,0.0
2648,59.0,48.0,150.0,2.0,0.0
2649,56.0,29.0,120.0,3.0,0.0
2650,40.0,5.0,510.0,0.0,0.0
2651,71.0,17.0,420.0,6.0,0.0
2652,28.0,63.0,510.0,11.0,0.0
2653,73.0,13.0,150.0,1.0,0.0
2654,64.0,16.0,180.0,2.0,0.0
2655,56.0,12.0,150.0,3.0,0.0
2656,71.0,11.0,1920.0,7.0,0.0
2657,74.0,15.0,120.0,1.0,0.0
2658,56.0,29.0,120.0,3.0,0.0
2659,68.0,204.0,150.0,2.0,0.0
2660,53.0,72.0,1980.0,4.0,0.0
2661,62.0,4.0,1890.0,8.0,0.0
2662,80.0,5.0,1920.0,6.0,0.0
2663,41.0,40.0,480.0,0.0,0.0
2664,59.0,54.0,1560.0,5.0,0.0
2665,47.0,262.0,1590.0,5.0,0.0
2666,29.0,346.0,480.0,11.0,0.0
2667,56.0,54.0,120.0,3.0,0.0
2668,74.0,1.0,120.0,1.0,0.0
2669,68.0,90.0,150.0,2.0,0.0
2670,44.0,40.0,480.0,0.0,0.0
2671,32.0,48.0,480.0,11.0,0.0
2672,56.0,16.0,150.0,3.0,0.0
2673,74.0,55.0,180.0,1.0,0.0
2674,68.0,22.0,150.0,2.0,0.0
2675,47.0,40.0,480.0,0.0,0.0
2676,74.0,14.0,90.0,1.0,0.0
2677,56.0,15.0,120.0,3.0,0.0
2678,68.0,219.0,120.0,2.0,0.0
2679,35.0,73.0,480.0,11.0,0.0
2680,56.0,25.0,90.0,3.0,0.0
2681,74.0,29.0,120.0,1.0,0.0
2682,68.0,88.0,120.0,2.0,0.0
2683,41.0,22.0,480.0,0.0,0.0
2684,29.0,18.0,480.0,11.0,0.0
2685,56.0,16.0,180.0,3.0,0.0
2686,74.0,13.0,240.0,1.0,0.0
2687,68.0,5.0,180.0,2.0,0.0
2688,54.0,801.0,3870.0,5.0,0.0
2689,42.0,0.0,3870.0,5.0,0.0
2690,42.0,40.0,480.0,0.0,0.0
2691,75.0,14.0,120.0,1.0,0.0
2692,54.0,14.0,120.0,3.0,0.0
2693,71.0,219.0,120.0,2.0,0.0
2694,66.0,17.0,1170.0,7.0,0.0
2695,78.0,34.0,1140.0,6.0,0.0
2696,63.0,98.0,1170.0,8.0,0.0
2697,54.0,58.0,2730.0,4.0,0.0
2698,30.0,359.0,480.0,11.0,0.0
2699,54.0,13.0,120.0,3.0,0.0
2700,71.0,103.0,120.0,2.0,0.0
2701,75.0,15.0,120.0,1.0,0.0
2702,47.0,40.0,480.0,0.0,0.0
2703,35.0,37.0,480.0,11.0,0.0
2704,51.0,2.0,180.0,3.0,0.0
2705,66.0,13.0,180.0,2.0,0.0
2706,71.0,51.0,180.0,1.0,0.0
2707,51.0,40.0,540.0,0.0,0.0
2708,47.0,14.0,90.0,3.0,0.0
2709,63.0,71.0,120.0,2.0,0.0
2710,66.0,28.0,90.0,1.0,0.0
2711,39.0,84.0,540.0,11.0,0.0
2712,77.0,18.0,240.0,6.0,0.0
2713,65.0,50.0,270.0,7.0,0.0
2714,47.0,1.0,120.0,3.0,0.0
2715,62.0,5.0,210.0,8.0,0.0
2716,63.0,92.0,120.0,2.0,0.0
2717,66.0,25.0,90.0,1.0,0.0
2718,64.0,103.0,240.0,7.0,0.0
2719,76.0,1.0,240.0,6.0,0.0
2720,61.0,42.0,180.0,8.0,0.0
2721,54.0,30.0,510.0,0.0,0.0
2722,42.0,3.0,510.0,11.0,0.0
2723,60.0,0.0,90.0,8.0,0.0
2724,63.0,27.0,180.0,7.0,0.0
2725,75.0,30.0,210.0,6.0,0.0
2726,59.0,2.0,120.0,8.0,0.0
2727,58.0,27.0,60.0,8.0,0.0
2728,42.0,35.0,90.0,3.0,0.0
2729,63.0,75.0,180.0,1.0,0.0
2730,59.0,25.0,180.0,2.0,0.0
2731,59.0,19.0,1200.0,8.0,0.0
2732,63.0,20.0,1200.0,7.0,0.0
2733,75.0,76.0,1230.0,6.0,0.0
2734,71.0,12.0,90.0,1.0,0.0
2735,66.0,10.0,60.0,2.0,0.0
2736,42.0,40.0,480.0,0.0,0.0
2737,59.0,210.0,90.0,3.0,0.0
2738,30.0,276.0,480.0,11.0,0.0
2739,66.0,36.0,90.0,2.0,0.0
2740,71.0,13.0,60.0,1.0,0.0
2741,59.0,140.0,90.0,3.0,0.0
2742,41.0,25.0,480.0,0.0,0.0
2743,29.0,30.0,480.0,11.0,0.0
2744,71.0,5.0,180.0,1.0,0.0
2745,59.0,0.0,150.0,3.0,0.0
2746,66.0,100.0,150.0,2.0,0.0
2747,78.0,15.0,60.0,1.0,0.0
2748,70.0,12.0,120.0,2.0,0.0
2749,42.0,40.0,360.0,0.0,0.0
2750,66.0,100.0,120.0,3.0,0.0
2751,54.0,6.0,210.0,4.0,0.0
2752,30.0,59.0,360.0,11.0,0.0
2753,78.0,17.0,120.0,1.0,0.0
2754,61.0,1.0,270.0,7.0,0.0
2755,58.0,5.0,270.0,8.0,0.0
2756,52.0,16.0,240.0,4.0,0.0
2757,70.0,8.0,120.0,2.0,0.0
2758,66.0,8.0,90.0,3.0,0.0
2759,73.0,219.0,240.0,6.0,0.0
2760,59.0,13.0,270.0,7.0,0.0
2761,56.0,13.0,270.0,8.0,0.0
2762,71.0,6.0,240.0,6.0,0.0
2763,51.0,74.0,270.0,4.0,0.0
2764,42.0,9.0,360.0,0.0,0.0
2765,30.0,57.0,360.0,11.0,0.0
2766,73.0,3.0,210.0,6.0,0.0
2767,52.0,23.0,270.0,4.0,0.0
2768,61.0,4.0,270.0,7.0,0.0
2769,58.0,28.0,180.0,8.0,0.0
2770,58.0,39.0,90.0,3.0,0.0
2771,66.0,7.0,120.0,2.0,0.0
2772,66.0,13.0,120.0,1.0,0.0
2773,59.0,13.0,930.0,8.0,0.0
2774,71.0,13.0,900.0,6.0,0.0
2775,59.0,46.0,930.0,7.0,0.0
2776,47.0,52.0,840.0,5.0,0.0
2777,51.0,21.0,900.0,4.0,0.0
2778,47.0,40.0,960.0,0.0,0.0
2779,66.0,33.0,1080.0,3.0,0.0
2780,75.0,234.0,1110.0,2.0,0.0
2781,78.0,5.0,1080.0,1.0,0.0
2782,35.0,69.0,960.0,11.0,0.0
2783,65.0,7.0,210.0,3.0,0.0
2784,74.0,14.0,180.0,2.0,0.0
2785,77.0,175.0,210.0,1.0,0.0
2786,64.0,38.0,180.0,3.0,0.0
2787,73.0,34.0,180.0,2.0,0.0
2788,76.0,97.0,210.0,1.0,0.0
2789,63.0,39.0,90.0,3.0,0.0
2790,71.0,72.0,120.0,2.0,0.0
2791,75.0,999.0,180.0,1.0,0.0
2792,54.0,7.0,1860.0,5.0,0.0
2793,42.0,134.0,1710.0,5.0,0.0
2794,71.0,29.0,1200.0,2.0,0.0
2795,63.0,221.0,1230.0,3.0,0.0
2796,75.0,17.0,1200.0,1.0,0.0
2797,54.0,26.0,930.0,4.0,0.0
2798,54.0,40.0,960.0,0.0,0.0
2799,42.0,173.0,960.0,11.0,0.0
2800,52.0,125.0,990.0,4.0,0.0
2801,42.0,17.0,840.0,0.0,0.0
2802,30.0,2.0,840.0,11.0,0.0
2803,73.0,201.0,240.0,1.0,0.0
2804,70.0,7.0,240.0,2.0,0.0
2805,61.0,0.0,240.0,3.0,0.0
2806,68.0,5.0,270.0,2.0,0.0
2807,59.0,20.0,240.0,3.0,0.0
2808,71.0,6.0,240.0,1.0,0.0
2809,70.0,13.0,210.0,2.0,0.0
2810,61.0,47.0,210.0,3.0,0.0
2811,73.0,16.0,180.0,1.0,0.0
2812,71.0,71.0,1050.0,2.0,0.0
2813,59.0,33.0,990.0,3.0,0.0
2814,59.0,13.0,150.0,5.0,0.0
2815,71.0,31.0,930.0,1.0,0.0
2816,51.0,19.0,1020.0,4.0,0.0
2817,47.0,249.0,150.0,5.0,0.0
2818,47.0,40.0,390.0,0.0,0.0
2819,35.0,374.0,390.0,11.0,0.0
2820,59.0,3.0,150.0,5.0,0.0
2821,47.0,0.0,150.0,5.0,0.0
2822,47.0,40.0,300.0,0.0,0.0
2823,35.0,55.0,300.0,11.0,0.0
2824,59.0,0.0,180.0,5.0,0.0
2825,47.0,30.0,180.0,5.0,0.0
2826,47.0,199.0,120.0,5.0,0.0
2827,59.0,1.0,120.0,5.0,0.0
2828,47.0,40.0,270.0,0.0,0.0
2829,35.0,21.0,270.0,11.0,0.0
2830,59.0,377.0,120.0,5.0,0.0
2831,47.0,16.0,120.0,5.0,0.0
2832,47.0,40.0,270.0,0.0,0.0
2833,35.0,63.0,270.0,11.0,0.0
2834,59.0,209.0,150.0,5.0,0.0
2835,47.0,14.0,120.0,5.0,0.0
2836,47.0,179.0,120.0,5.0,0.0
2837,59.0,1.0,120.0,5.0,0.0
2838,47.0,40.0,300.0,0.0,0.0
2839,78.0,242.0,1470.0,6.0,0.0
2840,63.0,11.0,1920.0,8.0,0.0
2841,69.0,20.0,1920.0,7.0,0.0
2842,35.0,29.0,300.0,11.0,0.0
2843,59.0,1.0,120.0,5.0,0.0
2844,47.0,397.0,120.0,5.0,0.0
2845,47.0,40.0,240.0,0.0,0.0
2846,35.0,108.0,240.0,11.0,0.0
2847,47.0,0.0,180.0,5.0,0.0
2848,59.0,184.0,180.0,5.0,0.0
2849,47.0,40.0,270.0,0.0,0.0
2850,59.0,1.0,120.0,5.0,0.0
2851,47.0,147.0,120.0,5.0,0.0
2852,35.0,60.0,270.0,11.0,0.0
2853,47.0,14.0,120.0,5.0,0.0
2854,59.0,149.0,120.0,5.0,0.0
2855,47.0,40.0,300.0,0.0,0.0
2856,35.0,37.0,300.0,11.0,0.0
2857,79.0,22.0,510.0,6.0,0.0
2858,59.0,132.0,150.0,5.0,0.0
2859,47.0,0.0,120.0,5.0,0.0
2860,59.0,1.0,90.0,5.0,0.0
2861,47.0,216.0,90.0,5.0,0.0
2862,47.0,40.0,300.0,0.0,0.0
2863,64.0,6.0,480.0,8.0,0.0
2864,68.0,35.0,480.0,7.0,0.0
2865,35.0,16.0,300.0,11.0,0.0
2866,80.0,171.0,510.0,6.0,0.0
2867,59.0,2.0,120.0,5.0,0.0
2868,47.0,145.0,120.0,5.0,0.0
2869,47.0,36.0,270.0,0.0,0.0
2870,71.0,10.0,480.0,7.0,0.0
2871,68.0,75.0,480.0,8.0,0.0
2872,35.0,84.0,270.0,11.0,0.0
2873,78.0,4.0,240.0,6.0,0.0
2874,59.0,0.0,120.0,5.0,0.0
2875,47.0,110.0,120.0,5.0,0.0
2876,76.0,15.0,240.0,6.0,0.0
2877,47.0,40.0,300.0,0.0,0.0
2878,68.0,18.0,450.0,7.0,0.0
2879,59.0,0.0,120.0,5.0,0.0
2880,47.0,130.0,120.0,5.0,0.0
2881,75.0,16.0,240.0,6.0,0.0
2882,64.0,17.0,450.0,8.0,0.0
2883,35.0,63.0,300.0,11.0,0.0
2884,73.0,210.0,270.0,6.0,0.0
2885,47.0,0.0,120.0,5.0,0.0
2886,59.0,92.0,120.0,5.0,0.0
2887,64.0,23.0,480.0,7.0,0.0
2888,71.0,29.0,270.0,6.0,0.0
2889,47.0,11.0,240.0,0.0,0.0
2890,61.0,115.0,450.0,8.0,0.0
2891,35.0,84.0,240.0,11.0,0.0
2892,70.0,17.0,210.0,6.0,0.0
2893,59.0,1.0,120.0,5.0,0.0
2894,47.0,79.0,120.0,5.0,0.0
2895,63.0,61.0,600.0,7.0,0.0
2896,71.0,125.0,720.0,6.0,0.0
2897,59.0,0.0,120.0,2.0,0.0
2898,59.0,70.0,630.0,8.0,0.0
2899,47.0,16.0,360.0,0.0,0.0
2900,35.0,13.0,120.0,4.0,0.0
2901,47.0,7.0,120.0,3.0,0.0
2902,47.0,4.0,6240.0,5.0,0.0
2903,59.0,214.0,120.0,1.0,0.0
2904,35.0,170.0,360.0,11.0,0.0
2905,59.0,16.0,90.0,2.0,0.0
2906,35.0,14.0,120.0,4.0,0.0
2907,47.0,0.0,90.0,3.0,0.0
2908,59.0,10.0,120.0,1.0,0.0
2909,47.0,35.0,300.0,0.0,0.0
2910,35.0,20.0,300.0,11.0,0.0
2911,35.0,150.0,180.0,4.0,0.0
2912,47.0,5.0,120.0,3.0,0.0
2913,59.0,34.0,120.0,2.0,0.0
2914,59.0,0.0,150.0,1.0,0.0
2915,47.0,9.0,330.0,0.0,0.0
2916,59.0,21.0,120.0,2.0,0.0
2917,47.0,25.0,90.0,3.0,0.0
2918,59.0,180.0,120.0,1.0,0.0
2919,35.0,11.0,120.0,4.0,0.0
2920,35.0,15.0,330.0,11.0,0.0
2921,35.0,13.0,120.0,4.0,0.0
2922,47.0,25.0,90.0,3.0,0.0
2923,59.0,6.0,90.0,2.0,0.0
2924,59.0,372.0,120.0,1.0,0.0
2925,47.0,40.0,300.0,0.0,0.0
2926,35.0,22.0,300.0,11.0,0.0
2927,35.0,21.0,120.0,4.0,0.0
2928,47.0,6.0,90.0,3.0,0.0
2929,59.0,18.0,120.0,2.0,0.0
2930,59.0,175.0,120.0,1.0,0.0
2931,47.0,40.0,300.0,0.0,0.0
2932,78.0,238.0,1470.0,6.0,0.0
2933,47.0,16.0,90.0,3.0,0.0
2934,59.0,26.0,120.0,1.0,0.0
2935,35.0,153.0,120.0,4.0,0.0
2936,63.0,20.0,1950.0,8.0,0.0
2937,59.0,16.0,90.0,2.0,0.0
2938,69.0,37.0,1950.0,7.0,0.0
2939,35.0,10.0,300.0,11.0,0.0
2940,47.0,1.0,90.0,3.0,0.0
2941,35.0,37.0,120.0,4.0,0.0
2942,59.0,31.0,90.0,2.0,0.0
2943,59.0,310.0,150.0,1.0,0.0
2944,47.0,40.0,270.0,0.0,0.0
2945,35.0,21.0,270.0,11.0,0.0
2946,47.0,56.0,90.0,3.0,0.0
2947,35.0,164.0,150.0,4.0,0.0
2948,59.0,5.0,120.0,2.0,0.0
2949,59.0,10.0,120.0,1.0,0.0
2950,47.0,26.0,90.0,3.0,0.0
2951,59.0,4.0,90.0,2.0,0.0
2952,35.0,179.0,120.0,4.0,0.0
2953,47.0,25.0,300.0,0.0,0.0
2954,59.0,26.0,90.0,1.0,0.0
2955,35.0,27.0,300.0,11.0,0.0
2956,35.0,147.0,120.0,4.0,0.0
2957,47.0,1.0,90.0,3.0,0.0
2958,59.0,14.0,60.0,2.0,0.0
2959,59.0,2.0,120.0,1.0,0.0
2960,79.0,7.0,510.0,6.0,0.0
2961,47.0,40.0,270.0,0.0,0.0
2962,35.0,61.0,270.0,11.0,0.0
2963,35.0,8.0,120.0,4.0,0.0
2964,47.0,6.0,120.0,3.0,0.0
2965,59.0,28.0,120.0,2.0,0.0
2966,59.0,103.0,150.0,1.0,0.0
2967,47.0,13.0,330.0,0.0,0.0
2968,64.0,4.0,510.0,8.0,0.0
2969,47.0,19.0,90.0,3.0,0.0
2970,80.0,210.0,510.0,6.0,0.0
2971,59.0,11.0,90.0,2.0,0.0
2972,35.0,11.0,90.0,4.0,0.0
2973,68.0,7.0,480.0,7.0,0.0
2974,35.0,2.0,330.0,11.0,0.0
2975,59.0,179.0,90.0,1.0,0.0
2976,47.0,14.0,90.0,3.0,0.0
2977,59.0,13.0,60.0,2.0,0.0
2978,35.0,150.0,120.0,4.0,0.0
2979,59.0,15.0,90.0,1.0,0.0
2980,47.0,23.0,270.0,0.0,0.0
2981,71.0,3.0,480.0,7.0,0.0
2982,68.0,60.0,480.0,8.0,0.0
2983,78.0,17.0,240.0,6.0,0.0
2984,35.0,24.0,270.0,11.0,0.0
2985,59.0,13.0,90.0,2.0,0.0
2986,35.0,82.0,120.0,4.0,0.0
2987,47.0,16.0,90.0,3.0,0.0
2988,59.0,15.0,120.0,1.0,0.0
2989,76.0,45.0,180.0,6.0,0.0
2990,75.0,30.0,270.0,6.0,0.0
2991,47.0,40.0,300.0,0.0,0.0
2992,59.0,12.0,90.0,1.0,0.0
2993,68.0,8.0,480.0,7.0,0.0
2994,64.0,16.0,450.0,8.0,0.0
2995,35.0,133.0,120.0,4.0,0.0
2996,47.0,2.0,60.0,3.0,0.0
2997,59.0,17.0,90.0,2.0,0.0
2998,35.0,3.0,300.0,11.0,0.0
2999,73.0,220.0,270.0,6.0,0.0
3000,59.0,10.0,90.0,1.0,0.0
3001,35.0,121.0,120.0,4.0,0.0
3002,47.0,0.0,90.0,3.0,0.0
3003,59.0,18.0,90.0,2.0,0.0
3004,61.0,230.0,510.0,8.0,0.0
3005,71.0,31.0,240.0,6.0,0.0
3006,47.0,39.0,270.0,0.0,0.0
3007,64.0,17.0,480.0,7.0,0.0
3008,35.0,0.0,270.0,11.0,0.0
3009,70.0,71.0,180.0,6.0,0.0
3010,59.0,28.0,90.0,2.0,0.0
3011,59.0,2.0,90.0,1.0,0.0
3012,35.0,53.0,120.0,4.0,0.0
3013,47.0,1.0,60.0,3.0,0.0
3014,59.0,40.0,390.0,8.0,0.0
3015,63.0,4.0,240.0,7.0,0.0
3016,71.0,101.0,240.0,6.0,0.0
3017,47.0,30.0,450.0,0.0,0.0
3018,59.0,1.0,480.0,2.0,0.0
3019,59.0,35.0,330.0,1.0,0.0
3020,35.0,128.0,480.0,4.0,0.0
3021,47.0,25.0,390.0,3.0,0.0
3022,35.0,5.0,450.0,11.0,0.0
3023,42.0,0.0,210.0,8.0,0.0
3024,54.0,3.0,240.0,7.0,0.0
3025,66.0,2.0,240.0,6.0,0.0
3026,47.0,84.0,180.0,8.0,0.0
3027,71.0,129.0,270.0,6.0,0.0
3028,59.0,7.0,150.0,7.0,0.0
3029,63.0,19.0,180.0,7.0,0.0
3030,75.0,566.0,210.0,6.0,0.0
3031,51.0,21.0,180.0,8.0,0.0
3032,78.0,25.0,570.0,6.0,0.0
3033,54.0,132.0,570.0,8.0,0.0
3034,66.0,24.0,510.0,7.0,0.0
3035,54.0,40.0,990.0,0.0,0.0
3036,73.0,4.0,750.0,2.0,0.0
3037,58.0,48.0,690.0,4.0,0.0
3038,76.0,26.0,720.0,1.0,0.0
3039,54.0,38.0,930.0,5.0,0.0
3040,42.0,74.0,750.0,5.0,0.0
3041,61.0,0.0,720.0,3.0,0.0
3042,42.0,277.0,990.0,11.0,0.0
3043,59.0,12.0,120.0,4.0,0.0
3044,71.0,1.0,120.0,2.0,0.0
3045,75.0,85.0,120.0,1.0,0.0
3046,63.0,4.0,120.0,3.0,0.0
3047,59.0,14.0,480.0,5.0,0.0
3048,47.0,9.0,480.0,5.0,0.0
3049,59.0,7.0,480.0,4.0,0.0
3050,47.0,27.0,420.0,0.0,0.0
3051,63.0,35.0,390.0,3.0,0.0
3052,75.0,48.0,330.0,1.0,0.0
3053,71.0,4.0,450.0,2.0,0.0
3054,35.0,2.0,420.0,11.0,0.0
3055,54.0,74.0,270.0,7.0,0.0
3056,42.0,16.0,240.0,8.0,0.0
3057,66.0,4.0,210.0,6.0,0.0
3058,71.0,22.0,180.0,6.0,0.0
3059,47.0,59.0,90.0,8.0,0.0
3060,59.0,187.0,180.0,7.0,0.0
3061,75.0,11.0,180.0,6.0,0.0
3062,63.0,645.0,180.0,7.0,0.0
3063,51.0,11.0,150.0,8.0,0.0
3064,78.0,35.0,660.0,6.0,0.0
3065,66.0,8.0,570.0,7.0,0.0
3066,54.0,67.0,570.0,8.0,0.0
3067,61.0,78.0,750.0,4.0,0.0
3068,73.0,27.0,720.0,1.0,0.0
3069,54.0,18.0,960.0,0.0,0.0
3070,70.0,1.0,720.0,2.0,0.0
3071,54.0,22.0,960.0,5.0,0.0
3072,66.0,65.0,630.0,5.0,0.0
3073,64.0,5.0,690.0,3.0,0.0
3074,42.0,346.0,960.0,11.0,0.0
3075,71.0,25.0,120.0,1.0,0.0
3076,71.0,2.0,120.0,2.0,0.0
3077,59.0,8.0,120.0,4.0,0.0
3078,63.0,97.0,120.0,3.0,0.0
3079,47.0,5.0,480.0,0.0,0.0
3080,71.0,79.0,360.0,1.0,0.0
3081,59.0,3.0,480.0,5.0,0.0
3082,47.0,74.0,510.0,5.0,0.0
3083,71.0,4.0,480.0,2.0,0.0
3084,35.0,6.0,480.0,11.0,0.0
3085,59.0,4.0,480.0,4.0,0.0
3086,63.0,13.0,480.0,3.0,0.0
3087,42.0,15.0,240.0,8.0,0.0
3088,54.0,9.0,240.0,7.0,0.0
3089,66.0,12.0,180.0,6.0,0.0
3090,71.0,207.0,180.0,6.0,0.0
3091,47.0,18.0,120.0,8.0,0.0
3092,59.0,17.0,120.0,7.0,0.0
3093,75.0,13.0,150.0,6.0,0.0
3094,63.0,587.0,150.0,7.0,0.0
3095,51.0,11.0,150.0,8.0,0.0
3096,54.0,14.0,1020.0,5.0,0.0
3097,42.0,28.0,1020.0,5.0,0.0
3098,78.0,132.0,600.0,6.0,0.0
3099,54.0,33.0,840.0,3.0,0.0
3100,52.0,28.0,720.0,4.0,0.0
3101,66.0,73.0,510.0,7.0,0.0
3102,54.0,20.0,510.0,8.0,0.0
3103,61.0,66.0,750.0,2.0,0.0
3104,70.0,5.0,750.0,1.0,0.0
3105,42.0,40.0,1020.0,0.0,0.0
3106,30.0,413.0,1020.0,11.0,0.0
3107,59.0,19.0,120.0,2.0,0.0
3108,71.0,6.0,120.0,1.0,0.0
3109,51.0,101.0,150.0,4.0,0.0
3110,47.0,4.0,570.0,5.0,0.0
3111,83.0,10.0,540.0,6.0,0.0
3112,54.0,19.0,570.0,3.0,0.0
3113,59.0,0.0,540.0,8.0,0.0
3114,35.0,40.0,480.0,0.0,0.0
3115,51.0,0.0,570.0,4.0,0.0
3116,59.0,13.0,540.0,2.0,0.0
3117,71.0,3.0,510.0,7.0,0.0
3118,71.0,5.0,540.0,1.0,0.0
3119,23.0,7.0,480.0,11.0,0.0
