,note,step,duration,channel,velocity
0,56.0,0.0,60.0,11.0,64.0
1,72.0,120.0,60.0,10.0,64.0
2,58.0,0.0,60.0,11.0,64.0
3,73.0,120.0,60.0,10.0,64.0
4,74.0,120.0,60.0,10.0,64.0
5,59.0,0.0,60.0,11.0,64.0
6,75.0,0.0,60.0,10.0,64.0
7,60.0,168.0,60.0,11.0,64.0
8,77.0,72.0,120.0,10.0,64.0
9,68.0,0.0,180.0,12.0,64.0
10,44.0,0.0,180.0,14.0,64.0
11,56.0,0.0,180.0,13.0,64.0
12,61.0,0.0,120.0,11.0,64.0
13,60.0,0.0,60.0,11.0,64.0
14,75.0,120.0,60.0,10.0,64.0
15,73.0,0.0,60.0,10.0,64.0
16,58.0,120.0,60.0,11.0,64.0
17,72.0,0.0,60.0,10.0,64.0
18,56.0,120.0,60.0,11.0,64.0
19,39.0,0.0,180.0,5.0,64.0
20,51.0,0.0,180.0,13.0,64.0
21,67.0,48.0,180.0,1.0,64.0
22,70.0,0.0,180.0,4.0,64.0
23,61.0,0.0,180.0,2.0,64.0
24,55.0,78.0,60.0,11.0,64.0
25,73.0,0.0,180.0,1.0,64.0
26,63.0,0.0,180.0,12.0,64.0
27,63.0,0.0,180.0,4.0,64.0
28,70.0,0.0,60.0,10.0,64.0
29,55.0,0.0,180.0,2.0,64.0
30,82.0,0.0,180.0,0.0,64.0
31,58.0,0.0,180.0,3.0,64.0
32,51.0,0.0,180.0,3.0,64.0
33,39.0,0.0,180.0,14.0,64.0
34,72.0,0.0,30.0,10.0,64.0
35,56.0,30.0,30.0,11.0,64.0
36,70.0,0.0,30.0,10.0,64.0
37,55.0,12.0,30.0,11.0,64.0
38,68.0,0.0,60.0,10.0,64.0
39,53.0,72.0,60.0,11.0,64.0
40,67.0,0.0,60.0,1.0,64.0
41,39.0,96.0,90.0,5.0,64.0
42,70.0,0.0,60.0,10.0,64.0
43,73.0,0.0,60.0,1.0,64.0
44,55.0,0.0,60.0,11.0,64.0
45,82.0,0.0,60.0,0.0,64.0
46,58.0,0.0,60.0,3.0,64.0
47,63.0,24.0,60.0,4.0,64.0
48,70.0,0.0,60.0,4.0,64.0
49,61.0,0.0,60.0,2.0,64.0
50,55.0,0.0,60.0,2.0,64.0
51,51.0,0.0,60.0,3.0,64.0
52,51.0,0.0,60.0,3.0,64.0
53,55.0,0.0,60.0,11.0,64.0
54,73.0,0.0,60.0,1.0,64.0
55,82.0,0.0,60.0,0.0,64.0
56,61.0,0.0,60.0,2.0,64.0
57,70.0,0.0,60.0,4.0,64.0
58,63.0,0.0,60.0,4.0,64.0
59,58.0,24.0,60.0,3.0,64.0
60,67.0,0.0,60.0,1.0,64.0
61,39.0,216.0,90.0,5.0,64.0
62,55.0,0.0,60.0,2.0,64.0
63,70.0,0.0,60.0,10.0,64.0
64,44.0,0.0,180.0,13.0,64.0
65,55.0,0.0,240.0,11.0,64.0
66,63.0,0.0,240.0,4.0,64.0
67,70.0,0.0,240.0,4.0,64.0
68,70.0,0.0,240.0,10.0,64.0
69,75.0,0.0,240.0,1.0,64.0
70,67.0,0.0,180.0,1.0,64.0
71,44.0,0.0,180.0,5.0,64.0
72,61.0,72.0,240.0,2.0,64.0
73,55.0,0.0,240.0,2.0,64.0
74,82.0,0.0,240.0,0.0,64.0
75,32.0,0.0,180.0,14.0,64.0
76,58.0,0.0,240.0,3.0,64.0
77,51.0,0.0,240.0,3.0,64.0
78,56.0,48.0,180.0,12.0,64.0
79,72.0,0.0,90.0,4.0,64.0
80,68.0,96.0,90.0,1.0,64.0
81,84.0,0.0,90.0,0.0,64.0
82,72.0,0.0,90.0,1.0,64.0
83,56.0,0.0,90.0,2.0,64.0
84,72.0,24.0,60.0,10.0,64.0
85,60.0,0.0,90.0,2.0,64.0
86,60.0,0.0,90.0,3.0,64.0
87,56.0,0.0,90.0,3.0,64.0
88,68.0,0.0,90.0,4.0,64.0
89,56.0,0.0,60.0,11.0,64.0
90,68.0,120.0,60.0,10.0,64.0
91,72.0,120.0,60.0,10.0,64.0
92,56.0,0.0,60.0,11.0,64.0
93,73.0,0.0,60.0,10.0,64.0
94,58.0,120.0,60.0,11.0,64.0
95,74.0,0.0,60.0,10.0,64.0
96,59.0,120.0,60.0,11.0,64.0
97,60.0,0.0,60.0,11.0,64.0
98,75.0,168.0,60.0,10.0,64.0
99,77.0,72.0,120.0,10.0,64.0
100,44.0,0.0,180.0,14.0,64.0
101,68.0,0.0,180.0,12.0,64.0
102,61.0,0.0,120.0,11.0,64.0
103,56.0,0.0,180.0,13.0,64.0
104,60.0,0.0,60.0,11.0,64.0
105,75.0,120.0,60.0,10.0,64.0
106,58.0,120.0,60.0,11.0,64.0
107,73.0,0.0,60.0,10.0,64.0
108,56.0,120.0,60.0,11.0,64.0
109,72.0,0.0,60.0,10.0,64.0
110,63.0,0.0,180.0,4.0,64.0
111,39.0,0.0,180.0,5.0,64.0
112,55.0,0.0,180.0,2.0,64.0
113,51.0,0.0,180.0,13.0,64.0
114,70.0,0.0,180.0,4.0,64.0
115,73.0,48.0,180.0,1.0,64.0
116,61.0,0.0,180.0,2.0,64.0
117,67.0,0.0,180.0,1.0,64.0
118,63.0,0.0,180.0,12.0,64.0
119,39.0,0.0,180.0,14.0,64.0
120,58.0,0.0,180.0,3.0,64.0
121,51.0,0.0,180.0,3.0,64.0
122,82.0,0.0,180.0,0.0,64.0
123,55.0,78.0,60.0,11.0,64.0
124,70.0,0.0,60.0,10.0,64.0
125,56.0,30.0,30.0,11.0,64.0
126,72.0,0.0,30.0,10.0,64.0
127,70.0,0.0,30.0,10.0,64.0
128,55.0,12.0,30.0,11.0,64.0
129,68.0,0.0,60.0,10.0,64.0
130,53.0,72.0,60.0,11.0,64.0
131,39.0,96.0,90.0,5.0,64.0
132,82.0,0.0,60.0,0.0,64.0
133,58.0,0.0,60.0,3.0,64.0
134,51.0,0.0,60.0,3.0,64.0
135,67.0,0.0,60.0,1.0,64.0
136,70.0,0.0,60.0,10.0,64.0
137,73.0,24.0,60.0,1.0,64.0
138,55.0,0.0,60.0,2.0,64.0
139,70.0,0.0,60.0,4.0,64.0
140,63.0,0.0,60.0,4.0,64.0
141,55.0,0.0,60.0,11.0,64.0
142,61.0,0.0,60.0,2.0,64.0
143,72.0,0.0,60.0,1.0,64.0
144,39.0,216.0,90.0,5.0,64.0
145,60.0,0.0,60.0,2.0,64.0
146,60.0,0.0,60.0,3.0,64.0
147,68.0,0.0,60.0,1.0,64.0
148,63.0,0.0,60.0,4.0,64.0
149,72.0,0.0,60.0,4.0,64.0
150,51.0,24.0,60.0,11.0,64.0
151,51.0,0.0,60.0,3.0,64.0
152,72.0,0.0,60.0,10.0,64.0
153,56.0,0.0,60.0,2.0,64.0
154,84.0,0.0,60.0,0.0,64.0
155,63.0,0.0,180.0,1.0,64.0
156,56.0,0.0,180.0,12.0,64.0
157,56.0,0.0,240.0,3.0,64.0
158,48.0,0.0,240.0,3.0,64.0
159,80.0,0.0,240.0,0.0,64.0
160,68.0,0.0,240.0,1.0,64.0
161,60.0,312.0,240.0,4.0,64.0
162,44.0,0.0,180.0,5.0,64.0
163,56.0,0.0,240.0,2.0,64.0
164,68.0,0.0,180.0,10.0,64.0
165,32.0,0.0,180.0,14.0,64.0
166,56.0,48.0,180.0,11.0,64.0
167,51.0,0.0,240.0,2.0,64.0
168,44.0,0.0,180.0,13.0,64.0
169,68.0,0.0,240.0,4.0,64.0
170,72.0,120.0,60.0,10.0,64.0
171,56.0,0.0,60.0,11.0,64.0
172,73.0,120.0,60.0,10.0,64.0
173,58.0,0.0,60.0,11.0,64.0
174,59.0,0.0,60.0,11.0,64.0
175,74.0,120.0,60.0,10.0,64.0
176,60.0,0.0,60.0,11.0,64.0
177,75.0,168.0,60.0,10.0,64.0
178,68.0,0.0,180.0,12.0,64.0
179,56.0,0.0,180.0,13.0,64.0
180,61.0,0.0,120.0,11.0,64.0
181,44.0,0.0,180.0,14.0,64.0
182,77.0,72.0,120.0,10.0,64.0
183,60.0,120.0,60.0,11.0,64.0
184,75.0,0.0,60.0,10.0,64.0
185,58.0,0.0,60.0,11.0,64.0
186,73.0,120.0,60.0,10.0,64.0
187,56.0,120.0,60.0,11.0,64.0
188,72.0,0.0,60.0,10.0,64.0
189,39.0,0.0,180.0,14.0,64.0
190,51.0,0.0,180.0,13.0,64.0
191,39.0,0.0,180.0,5.0,64.0
192,63.0,0.0,180.0,4.0,64.0
193,70.0,48.0,180.0,4.0,64.0
194,82.0,0.0,180.0,0.0,64.0
195,55.0,78.0,60.0,11.0,64.0
196,67.0,0.0,180.0,1.0,64.0
197,73.0,0.0,180.0,1.0,64.0
198,61.0,0.0,180.0,2.0,64.0
199,55.0,0.0,180.0,2.0,64.0
200,70.0,0.0,60.0,10.0,64.0
201,51.0,0.0,180.0,3.0,64.0
202,58.0,0.0,180.0,3.0,64.0
203,63.0,0.0,180.0,12.0,64.0
204,72.0,0.0,30.0,10.0,64.0
205,56.0,30.0,30.0,11.0,64.0
206,70.0,0.0,30.0,10.0,64.0
207,55.0,12.0,30.0,11.0,64.0
208,68.0,72.0,60.0,10.0,64.0
209,53.0,0.0,60.0,11.0,64.0
210,70.0,0.0,60.0,10.0,64.0
211,63.0,24.0,60.0,4.0,64.0
212,73.0,0.0,60.0,1.0,64.0
213,70.0,0.0,60.0,4.0,64.0
214,67.0,0.0,60.0,1.0,64.0
215,82.0,0.0,60.0,0.0,64.0
216,51.0,0.0,60.0,3.0,64.0
217,39.0,96.0,90.0,5.0,64.0
218,58.0,0.0,60.0,3.0,64.0
219,55.0,0.0,60.0,11.0,64.0
220,61.0,0.0,60.0,2.0,64.0
221,55.0,0.0,60.0,2.0,64.0
222,55.0,24.0,60.0,11.0,64.0
223,82.0,0.0,60.0,0.0,64.0
224,61.0,0.0,60.0,2.0,64.0
225,55.0,0.0,60.0,2.0,64.0
226,63.0,0.0,60.0,4.0,64.0
227,67.0,0.0,60.0,1.0,64.0
228,51.0,0.0,60.0,3.0,64.0
229,58.0,0.0,60.0,3.0,64.0
230,39.0,216.0,90.0,5.0,64.0
231,73.0,0.0,60.0,1.0,64.0
232,70.0,0.0,60.0,10.0,64.0
233,70.0,0.0,60.0,4.0,64.0
234,55.0,0.0,240.0,11.0,64.0
235,82.0,72.0,240.0,0.0,64.0
236,32.0,0.0,180.0,14.0,64.0
237,63.0,0.0,240.0,4.0,64.0
238,44.0,48.0,180.0,13.0,64.0
239,61.0,0.0,240.0,2.0,64.0
240,56.0,0.0,180.0,12.0,64.0
241,44.0,0.0,180.0,5.0,64.0
242,67.0,0.0,180.0,1.0,64.0
243,70.0,0.0,240.0,4.0,64.0
244,75.0,0.0,240.0,1.0,64.0
245,55.0,0.0,240.0,2.0,64.0
246,58.0,0.0,240.0,3.0,64.0
247,70.0,0.0,240.0,10.0,64.0
248,51.0,0.0,240.0,3.0,64.0
249,68.0,96.0,90.0,4.0,64.0
250,72.0,0.0,60.0,10.0,64.0
251,68.0,0.0,90.0,1.0,64.0
252,56.0,24.0,60.0,11.0,64.0
253,60.0,0.0,90.0,3.0,64.0
254,56.0,0.0,90.0,3.0,64.0
255,72.0,0.0,90.0,1.0,64.0
256,60.0,0.0,90.0,2.0,64.0
257,56.0,0.0,90.0,2.0,64.0
258,84.0,0.0,90.0,0.0,64.0
259,72.0,0.0,90.0,4.0,64.0
260,68.0,120.0,60.0,10.0,64.0
261,72.0,120.0,60.0,10.0,64.0
262,56.0,0.0,60.0,11.0,64.0
263,58.0,0.0,60.0,11.0,64.0
264,73.0,120.0,60.0,10.0,64.0
265,74.0,120.0,60.0,10.0,64.0
266,59.0,0.0,60.0,11.0,64.0
267,60.0,168.0,60.0,11.0,64.0
268,75.0,0.0,60.0,10.0,64.0
269,77.0,0.0,120.0,10.0,64.0
270,44.0,0.0,180.0,14.0,64.0
271,68.0,0.0,180.0,12.0,64.0
272,56.0,120.0,180.0,13.0,64.0
273,61.0,72.0,120.0,11.0,64.0
274,75.0,0.0,60.0,10.0,64.0
275,60.0,0.0,60.0,11.0,64.0
276,58.0,0.0,60.0,11.0,64.0
277,73.0,120.0,60.0,10.0,64.0
278,56.0,0.0,60.0,11.0,64.0
279,72.0,120.0,60.0,10.0,64.0
280,39.0,48.0,180.0,14.0,64.0
281,55.0,0.0,180.0,2.0,64.0
282,67.0,0.0,180.0,1.0,64.0
283,51.0,0.0,180.0,13.0,64.0
284,61.0,0.0,180.0,2.0,64.0
285,63.0,0.0,180.0,12.0,64.0
286,58.0,0.0,180.0,3.0,64.0
287,51.0,0.0,180.0,3.0,64.0
288,73.0,0.0,180.0,1.0,64.0
289,70.0,78.0,60.0,10.0,64.0
290,63.0,0.0,180.0,4.0,64.0
291,70.0,0.0,180.0,4.0,64.0
292,82.0,0.0,180.0,0.0,64.0
293,55.0,0.0,60.0,11.0,64.0
294,39.0,0.0,180.0,5.0,64.0
295,56.0,0.0,30.0,11.0,64.0
296,72.0,30.0,30.0,10.0,64.0
297,55.0,12.0,30.0,11.0,64.0
298,70.0,0.0,30.0,10.0,64.0
299,68.0,0.0,60.0,10.0,64.0
300,53.0,72.0,60.0,11.0,64.0
301,73.0,0.0,60.0,1.0,64.0
302,70.0,0.0,60.0,10.0,64.0
303,39.0,96.0,90.0,5.0,64.0
304,51.0,0.0,60.0,3.0,64.0
305,82.0,24.0,60.0,0.0,64.0
306,61.0,0.0,60.0,2.0,64.0
307,70.0,0.0,60.0,4.0,64.0
308,58.0,0.0,60.0,3.0,64.0
309,55.0,0.0,60.0,11.0,64.0
310,67.0,0.0,60.0,1.0,64.0
311,63.0,0.0,60.0,4.0,64.0
312,55.0,0.0,60.0,2.0,64.0
313,63.0,0.0,60.0,4.0,64.0
314,72.0,0.0,60.0,4.0,64.0
315,51.0,0.0,60.0,3.0,64.0
316,56.0,0.0,60.0,2.0,64.0
317,72.0,24.0,60.0,1.0,64.0
318,72.0,0.0,60.0,10.0,64.0
319,84.0,0.0,60.0,0.0,64.0
320,51.0,0.0,60.0,11.0,64.0
321,39.0,216.0,90.0,5.0,64.0
322,60.0,0.0,60.0,3.0,64.0
323,60.0,0.0,60.0,2.0,64.0
324,68.0,0.0,60.0,1.0,64.0
325,32.0,0.0,180.0,14.0,64.0
326,44.0,0.0,180.0,5.0,64.0
327,63.0,48.0,180.0,1.0,64.0
328,56.0,0.0,180.0,11.0,64.0
329,68.0,0.0,240.0,1.0,64.0
330,68.0,0.0,180.0,10.0,64.0
331,56.0,0.0,240.0,2.0,64.0
332,56.0,0.0,180.0,12.0,64.0
333,44.0,0.0,180.0,13.0,64.0
334,51.0,312.0,240.0,2.0,64.0
335,56.0,0.0,240.0,3.0,64.0
336,60.0,0.0,240.0,4.0,64.0
337,68.0,0.0,240.0,4.0,64.0
338,80.0,0.0,240.0,0.0,64.0
339,48.0,0.0,240.0,3.0,64.0
340,55.0,120.0,60.0,11.0,64.0
341,70.0,0.0,60.0,10.0,64.0
342,56.0,120.0,60.0,11.0,64.0
343,71.0,0.0,60.0,10.0,64.0
344,57.0,120.0,60.0,11.0,64.0
345,72.0,0.0,60.0,10.0,64.0
346,73.0,168.0,60.0,10.0,64.0
347,58.0,0.0,60.0,11.0,64.0
348,51.0,0.0,180.0,13.0,64.0
349,75.0,72.0,120.0,10.0,64.0
350,63.0,0.0,180.0,12.0,64.0
351,60.0,0.0,120.0,11.0,64.0
352,39.0,0.0,180.0,14.0,64.0
353,73.0,48.0,60.0,10.0,64.0
354,58.0,0.0,60.0,11.0,64.0
355,75.0,72.0,120.0,0.0,64.0
356,70.0,0.0,60.0,10.0,64.0
357,55.0,48.0,60.0,11.0,64.0
358,74.0,96.0,120.0,0.0,64.0
359,75.0,24.0,90.0,0.0,64.0
360,70.0,0.0,120.0,1.0,64.0
361,73.0,120.0,120.0,1.0,64.0
362,51.0,0.0,390.0,3.0,64.0
363,54.0,0.0,120.0,2.0,64.0
364,63.0,72.0,390.0,4.0,64.0
365,75.0,0.0,120.0,1.0,64.0
366,57.0,0.0,120.0,2.0,64.0
367,72.0,96.0,120.0,1.0,64.0
368,55.0,24.0,90.0,2.0,64.0
369,58.0,0.0,90.0,2.0,64.0
370,70.0,96.0,120.0,1.0,64.0
371,73.0,0.0,120.0,1.0,64.0
372,75.0,0.0,120.0,0.0,64.0
373,58.0,24.0,90.0,2.0,64.0
374,67.0,0.0,120.0,1.0,64.0
375,74.0,24.0,120.0,0.0,64.0
376,70.0,0.0,120.0,1.0,64.0
377,61.0,0.0,90.0,2.0,64.0
378,73.0,0.0,120.0,1.0,64.0
379,75.0,24.0,90.0,0.0,64.0
380,70.0,120.0,120.0,1.0,64.0
381,57.0,0.0,120.0,2.0,64.0
382,54.0,0.0,120.0,2.0,64.0
383,51.0,48.0,390.0,3.0,64.0
384,75.0,96.0,120.0,1.0,64.0
385,72.0,0.0,120.0,1.0,64.0
386,63.0,0.0,390.0,4.0,64.0
387,58.0,24.0,90.0,2.0,64.0
388,75.0,0.0,120.0,0.0,64.0
389,70.0,0.0,120.0,1.0,64.0
390,55.0,0.0,90.0,2.0,64.0
391,73.0,96.0,120.0,1.0,64.0
392,61.0,0.0,90.0,2.0,64.0
393,70.0,0.0,90.0,1.0,64.0
394,67.0,0.0,90.0,1.0,64.0
395,58.0,24.0,90.0,2.0,64.0
396,74.0,24.0,120.0,0.0,64.0
397,70.0,0.0,60.0,10.0,64.0
398,75.0,96.0,90.0,0.0,64.0
399,55.0,24.0,60.0,11.0,64.0
400,56.0,120.0,60.0,11.0,64.0
401,71.0,0.0,60.0,10.0,64.0
402,72.0,120.0,60.0,10.0,64.0
403,57.0,0.0,60.0,11.0,64.0
404,73.0,120.0,60.0,10.0,64.0
405,58.0,0.0,60.0,11.0,64.0
406,74.0,168.0,60.0,10.0,64.0
407,59.0,0.0,60.0,11.0,64.0
408,56.0,0.0,180.0,12.0,64.0
409,44.0,0.0,180.0,13.0,64.0
410,77.0,0.0,120.0,10.0,64.0
411,32.0,0.0,180.0,14.0,64.0
412,61.0,72.0,120.0,11.0,64.0
413,75.0,0.0,60.0,10.0,64.0
414,80.0,72.0,120.0,0.0,64.0
415,60.0,48.0,60.0,11.0,64.0
416,72.0,0.0,60.0,10.0,64.0
417,56.0,48.0,60.0,11.0,64.0
418,79.0,96.0,120.0,0.0,64.0
419,75.0,0.0,120.0,1.0,64.0
420,80.0,24.0,90.0,0.0,64.0
421,72.0,120.0,120.0,1.0,64.0
422,55.0,0.0,120.0,2.0,64.0
423,58.0,96.0,120.0,2.0,64.0
424,73.0,0.0,120.0,1.0,64.0
425,44.0,0.0,390.0,3.0,64.0
426,56.0,0.0,390.0,4.0,64.0
427,68.0,0.0,390.0,4.0,64.0
428,56.0,72.0,390.0,3.0,64.0
429,77.0,0.0,120.0,1.0,64.0
430,80.0,0.0,120.0,0.0,64.0
431,56.0,24.0,90.0,2.0,64.0
432,60.0,0.0,90.0,2.0,64.0
433,75.0,0.0,120.0,1.0,64.0
434,60.0,24.0,90.0,2.0,64.0
435,63.0,0.0,90.0,2.0,64.0
436,79.0,24.0,120.0,0.0,64.0
437,72.0,96.0,15.0,1.0,64.0
438,68.0,0.0,120.0,1.0,64.0
439,75.0,0.0,120.0,1.0,64.0
440,72.0,120.0,120.0,1.0,64.0
441,80.0,24.0,90.0,0.0,64.0
442,55.0,0.0,120.0,2.0,64.0
443,58.0,0.0,120.0,2.0,64.0
444,73.0,96.0,120.0,1.0,64.0
445,77.0,0.0,120.0,1.0,64.0
446,56.0,0.0,390.0,4.0,64.0
447,68.0,0.0,390.0,4.0,64.0
448,56.0,48.0,390.0,3.0,64.0
449,44.0,0.0,390.0,3.0,64.0
450,60.0,0.0,90.0,2.0,64.0
451,80.0,72.0,120.0,0.0,64.0
452,56.0,24.0,90.0,2.0,64.0
453,72.0,0.0,120.0,1.0,64.0
454,75.0,0.0,120.0,1.0,64.0
455,68.0,24.0,60.0,1.0,64.0
456,72.0,0.0,60.0,1.0,64.0
457,63.0,0.0,90.0,2.0,64.0
458,79.0,24.0,120.0,0.0,64.0
459,60.0,24.0,90.0,2.0,64.0
460,75.0,0.0,60.0,10.0,64.0
461,75.0,0.0,60.0,11.0,64.0
462,75.0,0.0,60.0,1.0,64.0
463,51.0,0.0,60.0,13.0,64.0
464,63.0,0.0,60.0,12.0,64.0
465,39.0,24.0,60.0,14.0,64.0
466,80.0,96.0,90.0,0.0,64.0
467,44.0,0.0,180.0,3.0,64.0
468,56.0,0.0,180.0,3.0,64.0
469,56.0,120.0,60.0,13.0,64.0
470,68.0,0.0,60.0,12.0,64.0
471,80.0,0.0,60.0,10.0,64.0
472,44.0,0.0,60.0,14.0,64.0
473,56.0,0.0,180.0,4.0,64.0
474,68.0,0.0,180.0,4.0,64.0
475,80.0,0.0,60.0,1.0,64.0
476,56.0,0.0,60.0,2.0,64.0
477,80.0,0.0,60.0,11.0,64.0
478,44.0,0.0,180.0,5.0,64.0
479,80.0,0.0,60.0,0.0,64.0
480,79.0,0.0,60.0,10.0,64.0
481,55.0,0.0,60.0,2.0,64.0
482,79.0,0.0,60.0,1.0,64.0
483,55.0,120.0,60.0,13.0,64.0
484,79.0,0.0,60.0,0.0,64.0
485,67.0,0.0,60.0,12.0,64.0
486,79.0,0.0,60.0,11.0,64.0
487,43.0,0.0,60.0,14.0,64.0
488,56.0,27.0,120.0,3.0,64.0
489,41.0,0.0,60.0,14.0,64.0
490,53.0,0.0,60.0,2.0,64.0
491,56.0,0.0,120.0,4.0,64.0
492,68.0,0.0,120.0,4.0,64.0
493,77.0,0.0,60.0,11.0,64.0
494,77.0,0.0,60.0,0.0,64.0
495,65.0,0.0,60.0,12.0,64.0
496,53.0,0.0,60.0,13.0,64.0
497,77.0,0.0,60.0,10.0,64.0
498,44.0,0.0,120.0,3.0,64.0
499,77.0,45.0,60.0,1.0,64.0
500,44.0,48.0,150.0,5.0,64.0
501,64.0,0.0,60.0,12.0,64.0
502,76.0,0.0,60.0,10.0,64.0
503,40.0,0.0,60.0,14.0,64.0
504,76.0,0.0,60.0,11.0,64.0
505,76.0,0.0,60.0,1.0,64.0
506,52.0,27.0,60.0,13.0,64.0
507,76.0,0.0,60.0,0.0,64.0
508,52.0,0.0,60.0,2.0,64.0
509,56.0,0.0,40.0,4.0,64.0
510,44.0,84.0,40.0,5.0,64.0
511,44.0,0.0,40.0,3.0,64.0
512,56.0,9.0,40.0,3.0,64.0
513,68.0,0.0,40.0,4.0,64.0
514,41.0,120.0,60.0,14.0,64.0
515,56.0,0.0,180.0,4.0,64.0
516,53.0,0.0,60.0,13.0,64.0
517,77.0,0.0,60.0,0.0,64.0
518,53.0,0.0,60.0,2.0,64.0
519,56.0,120.0,180.0,3.0,64.0
520,68.0,0.0,180.0,4.0,64.0
521,77.0,0.0,60.0,11.0,64.0
522,44.0,0.0,180.0,3.0,64.0
523,44.0,0.0,180.0,5.0,64.0
524,77.0,0.0,60.0,1.0,64.0
525,65.0,0.0,60.0,12.0,64.0
526,77.0,0.0,60.0,10.0,64.0
527,75.0,0.0,60.0,1.0,64.0
528,51.0,0.0,60.0,2.0,64.0
529,63.0,0.0,60.0,12.0,64.0
530,39.0,0.0,60.0,14.0,64.0
531,75.0,0.0,60.0,0.0,64.0
532,75.0,0.0,60.0,11.0,64.0
533,51.0,0.0,60.0,13.0,64.0
534,75.0,0.0,60.0,10.0,64.0
535,49.0,120.0,60.0,13.0,64.0
536,73.0,0.0,60.0,1.0,64.0
537,37.0,0.0,60.0,14.0,64.0
538,73.0,0.0,60.0,0.0,64.0
539,49.0,0.0,60.0,2.0,64.0
540,73.0,0.0,60.0,10.0,64.0
541,68.0,0.0,180.0,4.0,64.0
542,56.0,0.0,180.0,4.0,64.0
543,44.0,0.0,180.0,5.0,64.0
544,61.0,0.0,60.0,12.0,64.0
545,73.0,0.0,60.0,11.0,64.0
546,56.0,0.0,180.0,3.0,64.0
547,44.0,0.0,180.0,3.0,64.0
548,48.0,0.0,60.0,2.0,64.0
549,72.0,120.0,60.0,1.0,64.0
550,72.0,0.0,60.0,0.0,64.0
551,36.0,0.0,60.0,14.0,64.0
552,48.0,0.0,60.0,13.0,64.0
553,72.0,0.0,60.0,10.0,64.0
554,60.0,0.0,60.0,12.0,64.0
555,72.0,0.0,60.0,11.0,64.0
556,49.0,0.0,60.0,2.0,64.0
557,73.0,0.0,60.0,11.0,64.0
558,44.0,0.0,180.0,3.0,64.0
559,73.0,120.0,60.0,0.0,64.0
560,44.0,0.0,180.0,5.0,64.0
561,68.0,0.0,180.0,4.0,64.0
562,73.0,0.0,60.0,10.0,64.0
563,56.0,0.0,180.0,3.0,64.0
564,56.0,0.0,180.0,4.0,64.0
565,49.0,0.0,60.0,13.0,64.0
566,37.0,0.0,60.0,14.0,64.0
567,73.0,0.0,60.0,1.0,64.0
568,61.0,0.0,60.0,12.0,64.0
569,48.0,0.0,60.0,13.0,64.0
570,72.0,0.0,60.0,10.0,64.0
571,48.0,0.0,60.0,2.0,64.0
572,60.0,0.0,60.0,12.0,64.0
573,72.0,0.0,60.0,1.0,64.0
574,72.0,0.0,60.0,0.0,64.0
575,36.0,120.0,60.0,14.0,64.0
576,72.0,0.0,60.0,11.0,64.0
577,70.0,0.0,60.0,11.0,64.0
578,56.0,0.0,180.0,3.0,64.0
579,44.0,0.0,180.0,3.0,64.0
580,70.0,0.0,60.0,0.0,64.0
581,46.0,0.0,60.0,2.0,64.0
582,56.0,0.0,180.0,4.0,64.0
583,44.0,0.0,180.0,5.0,64.0
584,70.0,0.0,60.0,1.0,64.0
585,34.0,0.0,60.0,14.0,64.0
586,58.0,0.0,60.0,12.0,64.0
587,68.0,0.0,180.0,4.0,64.0
588,70.0,120.0,60.0,10.0,64.0
589,46.0,0.0,60.0,13.0,64.0
590,56.0,0.0,60.0,12.0,64.0
591,32.0,0.0,60.0,14.0,64.0
592,44.0,0.0,60.0,13.0,64.0
593,68.0,240.0,60.0,0.0,64.0
594,68.0,0.0,60.0,11.0,64.0
595,68.0,0.0,60.0,1.0,64.0
596,44.0,0.0,60.0,2.0,64.0
597,68.0,0.0,60.0,10.0,64.0
598,39.0,0.0,180.0,5.0,64.0
599,51.0,0.0,180.0,2.0,64.0
600,63.0,0.0,180.0,12.0,64.0
601,75.0,192.0,180.0,11.0,64.0
602,67.0,0.0,180.0,11.0,64.0
603,75.0,69.0,480.0,6.0,64.0
604,70.0,0.0,180.0,1.0,64.0
605,63.0,0.0,180.0,4.0,64.0
606,70.0,0.0,180.0,4.0,64.0
607,63.0,86.0,390.0,7.0,64.0
608,75.0,0.0,180.0,10.0,64.0
609,67.0,0.0,180.0,10.0,64.0
610,58.0,0.0,180.0,10.0,64.0
611,67.0,0.0,180.0,1.0,64.0
612,51.0,0.0,180.0,10.0,64.0
613,51.0,0.0,180.0,13.0,64.0
614,58.0,0.0,180.0,11.0,64.0
615,39.0,0.0,180.0,14.0,64.0
616,51.0,0.0,180.0,3.0,64.0
617,75.0,0.0,180.0,0.0,64.0
618,51.0,0.0,180.0,11.0,64.0
619,77.0,60.0,60.0,6.0,64.0
620,75.0,60.0,60.0,6.0,64.0
621,84.0,60.0,60.0,6.0,64.0
622,82.0,60.0,60.0,6.0,64.0
623,80.0,60.0,60.0,6.0,64.0
624,79.0,60.0,60.0,6.0,64.0
625,77.0,60.0,60.0,6.0,64.0
626,75.0,60.0,60.0,6.0,64.0
627,75.0,60.0,60.0,6.0,64.0
628,73.0,60.0,60.0,6.0,64.0
629,82.0,60.0,60.0,6.0,64.0
630,80.0,60.0,60.0,6.0,64.0
631,79.0,60.0,60.0,6.0,64.0
632,77.0,60.0,60.0,6.0,64.0
633,75.0,60.0,60.0,6.0,64.0
634,73.0,60.0,60.0,6.0,64.0
635,73.0,60.0,60.0,6.0,64.0
636,72.0,60.0,60.0,6.0,64.0
637,80.0,60.0,60.0,6.0,64.0
638,79.0,60.0,60.0,6.0,64.0
639,77.0,60.0,60.0,6.0,64.0
640,75.0,60.0,60.0,6.0,64.0
641,73.0,60.0,60.0,6.0,64.0
642,72.0,60.0,60.0,6.0,64.0
643,72.0,60.0,60.0,6.0,64.0
644,70.0,60.0,60.0,6.0,64.0
645,79.0,60.0,60.0,6.0,64.0
646,77.0,60.0,60.0,6.0,64.0
647,75.0,60.0,60.0,6.0,64.0
648,73.0,60.0,60.0,6.0,64.0
649,72.0,60.0,60.0,6.0,64.0
650,70.0,73.0,60.0,6.0,64.0
651,72.0,0.0,60.0,6.0,64.0
652,56.0,120.0,60.0,7.0,64.0
653,73.0,0.0,60.0,6.0,64.0
654,58.0,120.0,60.0,7.0,64.0
655,74.0,0.0,60.0,6.0,64.0
656,59.0,120.0,60.0,7.0,64.0
657,75.0,0.0,60.0,6.0,64.0
658,60.0,168.0,60.0,7.0,64.0
659,63.0,0.0,180.0,10.0,64.0
660,77.0,0.0,120.0,6.0,64.0
661,61.0,72.0,120.0,7.0,64.0
662,56.0,120.0,180.0,12.0,64.0
663,60.0,0.0,180.0,11.0,64.0
664,56.0,0.0,180.0,13.0,64.0
665,44.0,0.0,180.0,14.0,64.0
666,60.0,0.0,60.0,7.0,64.0
667,75.0,0.0,60.0,6.0,64.0
668,73.0,0.0,60.0,6.0,64.0
669,58.0,120.0,60.0,7.0,64.0
670,56.0,120.0,60.0,7.0,64.0
671,72.0,0.0,60.0,6.0,64.0
672,51.0,0.0,180.0,13.0,64.0
673,39.0,0.0,180.0,14.0,64.0
674,55.0,0.0,60.0,7.0,64.0
675,67.0,48.0,180.0,10.0,64.0
676,70.0,78.0,60.0,6.0,64.0
677,58.0,0.0,180.0,12.0,64.0
678,61.0,0.0,180.0,11.0,64.0
679,72.0,0.0,30.0,6.0,64.0
680,56.0,30.0,30.0,7.0,64.0
681,70.0,12.0,30.0,6.0,64.0
682,55.0,0.0,30.0,7.0,64.0
683,68.0,72.0,60.0,6.0,64.0
684,53.0,0.0,60.0,7.0,64.0
685,70.0,120.0,60.0,6.0,64.0
686,55.0,0.0,60.0,7.0,64.0
687,70.0,0.0,60.0,6.0,64.0
688,55.0,168.0,60.0,7.0,64.0
689,67.0,72.0,240.0,10.0,64.0
690,70.0,72.0,120.0,6.0,64.0
691,63.0,0.0,330.0,12.0,64.0
692,61.0,0.0,240.0,11.0,64.0
693,44.0,0.0,180.0,13.0,64.0
694,32.0,48.0,180.0,14.0,64.0
695,55.0,0.0,240.0,7.0,64.0
696,71.0,0.0,120.0,6.0,64.0
697,56.0,24.0,60.0,7.0,64.0
698,72.0,0.0,60.0,6.0,64.0
699,60.0,0.0,90.0,11.0,64.0
700,68.0,96.0,90.0,10.0,64.0
701,68.0,120.0,60.0,6.0,64.0
702,56.0,120.0,60.0,7.0,64.0
703,72.0,0.0,60.0,6.0,64.0
704,73.0,0.0,60.0,6.0,64.0
705,58.0,120.0,60.0,7.0,64.0
706,74.0,120.0,60.0,6.0,64.0
707,59.0,0.0,60.0,7.0,64.0
708,60.0,168.0,60.0,7.0,64.0
709,75.0,0.0,60.0,6.0,64.0
710,60.0,0.0,180.0,11.0,64.0
711,44.0,0.0,180.0,14.0,64.0
712,56.0,0.0,180.0,12.0,64.0
713,56.0,0.0,180.0,13.0,64.0
714,63.0,0.0,180.0,10.0,64.0
715,61.0,72.0,120.0,7.0,64.0
716,77.0,0.0,120.0,6.0,64.0
717,75.0,120.0,60.0,6.0,64.0
718,60.0,0.0,60.0,7.0,64.0
719,58.0,0.0,60.0,7.0,64.0
720,73.0,120.0,60.0,6.0,64.0
721,72.0,120.0,60.0,6.0,64.0
722,56.0,0.0,60.0,7.0,64.0
723,70.0,78.0,60.0,6.0,64.0
724,58.0,0.0,180.0,12.0,64.0
725,67.0,0.0,180.0,10.0,64.0
726,58.0,0.0,60.0,7.0,64.0
727,51.0,48.0,180.0,13.0,64.0
728,39.0,0.0,180.0,14.0,64.0
729,61.0,0.0,180.0,11.0,64.0
730,56.0,0.0,30.0,7.0,64.0
731,72.0,30.0,30.0,6.0,64.0
732,55.0,12.0,30.0,7.0,64.0
733,70.0,0.0,30.0,6.0,64.0
734,68.0,0.0,60.0,6.0,64.0
735,53.0,72.0,60.0,7.0,64.0
736,70.0,120.0,60.0,6.0,64.0
737,55.0,0.0,60.0,7.0,64.0
738,51.0,0.0,60.0,7.0,64.0
739,72.0,96.0,60.0,6.0,64.0
740,56.0,0.0,390.0,3.0,64.0
741,44.0,0.0,90.0,13.0,64.0
742,32.0,30.0,90.0,14.0,64.0
743,68.0,6.0,180.0,4.0,64.0
744,56.0,0.0,180.0,4.0,64.0
745,56.0,0.0,390.0,10.0,64.0
746,75.0,12.0,450.0,1.0,64.0
747,72.0,0.0,450.0,1.0,64.0
748,68.0,0.0,180.0,6.0,64.0
749,56.0,0.0,180.0,7.0,64.0
750,44.0,0.0,180.0,5.0,64.0
751,51.0,0.0,40.0,12.0,64.0
752,48.0,0.0,450.0,2.0,64.0
753,44.0,24.0,390.0,3.0,64.0
754,60.0,30.0,40.0,11.0,64.0
755,51.0,0.0,450.0,2.0,64.0
756,80.0,0.0,2850.0,0.0,64.0
757,51.0,0.0,40.0,12.0,64.0
758,60.0,60.0,40.0,11.0,64.0
759,51.0,0.0,40.0,12.0,64.0
760,44.0,0.0,90.0,13.0,64.0
761,32.0,30.0,90.0,14.0,64.0
762,60.0,24.0,40.0,11.0,64.0
763,60.0,60.0,40.0,11.0,64.0
764,51.0,0.0,40.0,12.0,64.0
765,60.0,30.0,40.0,11.0,64.0
766,44.0,0.0,90.0,13.0,64.0
767,32.0,30.0,90.0,14.0,64.0
768,51.0,0.0,40.0,12.0,64.0
769,60.0,36.0,40.0,11.0,64.0
770,51.0,0.0,40.0,12.0,64.0
771,51.0,0.0,40.0,12.0,64.0
772,60.0,30.0,40.0,11.0,64.0
773,44.0,0.0,90.0,13.0,64.0
774,32.0,18.0,90.0,14.0,64.0
775,51.0,0.0,40.0,12.0,64.0
776,60.0,60.0,40.0,11.0,64.0
777,32.0,30.0,90.0,14.0,64.0
778,56.0,12.0,150.0,3.0,64.0
779,49.0,0.0,450.0,2.0,64.0
780,53.0,12.0,450.0,2.0,64.0
781,53.0,0.0,40.0,12.0,64.0
782,44.0,0.0,150.0,3.0,64.0
783,80.0,0.0,150.0,10.0,64.0
784,61.0,30.0,40.0,11.0,64.0
785,77.0,0.0,450.0,1.0,64.0
786,44.0,0.0,90.0,13.0,64.0
787,73.0,0.0,450.0,1.0,64.0
788,53.0,48.0,40.0,12.0,64.0
789,61.0,0.0,40.0,11.0,64.0
790,44.0,30.0,90.0,13.0,64.0
791,53.0,0.0,40.0,12.0,64.0
792,61.0,30.0,40.0,11.0,64.0
793,32.0,0.0,90.0,14.0,64.0
794,61.0,0.0,40.0,11.0,64.0
795,53.0,60.0,40.0,12.0,64.0
796,53.0,30.0,40.0,12.0,64.0
797,44.0,0.0,150.0,3.0,64.0
798,56.0,12.0,150.0,3.0,64.0
799,77.0,0.0,150.0,10.0,64.0
800,32.0,0.0,90.0,14.0,64.0
801,61.0,0.0,40.0,11.0,64.0
802,44.0,30.0,90.0,13.0,64.0
803,53.0,0.0,40.0,12.0,64.0
804,61.0,48.0,40.0,11.0,64.0
805,53.0,0.0,40.0,12.0,64.0
806,44.0,0.0,90.0,13.0,64.0
807,32.0,18.0,90.0,14.0,64.0
808,61.0,30.0,40.0,11.0,64.0
809,53.0,60.0,40.0,12.0,64.0
810,61.0,0.0,40.0,11.0,64.0
811,44.0,6.0,180.0,5.0,64.0
812,60.0,30.0,40.0,11.0,64.0
813,32.0,0.0,90.0,14.0,64.0
814,68.0,0.0,180.0,4.0,64.0
815,56.0,0.0,180.0,4.0,64.0
816,51.0,12.0,450.0,2.0,64.0
817,72.0,0.0,450.0,1.0,64.0
818,75.0,0.0,450.0,1.0,64.0
819,75.0,6.0,330.0,10.0,64.0
820,56.0,0.0,390.0,3.0,64.0
821,44.0,30.0,90.0,13.0,64.0
822,51.0,0.0,40.0,12.0,64.0
823,48.0,0.0,450.0,2.0,64.0
824,44.0,24.0,390.0,3.0,64.0
825,60.0,60.0,40.0,11.0,64.0
826,51.0,0.0,40.0,12.0,64.0
827,32.0,0.0,90.0,14.0,64.0
828,60.0,0.0,40.0,11.0,64.0
829,51.0,24.0,40.0,12.0,64.0
830,44.0,30.0,90.0,13.0,64.0
831,51.0,0.0,40.0,12.0,64.0
832,60.0,60.0,40.0,11.0,64.0
833,32.0,24.0,90.0,14.0,64.0
834,44.0,0.0,90.0,13.0,64.0
835,51.0,0.0,40.0,12.0,64.0
836,60.0,30.0,40.0,11.0,64.0
837,51.0,0.0,40.0,12.0,64.0
838,60.0,36.0,40.0,11.0,64.0
839,72.0,18.0,60.0,10.0,64.0
840,60.0,12.0,40.0,11.0,64.0
841,44.0,18.0,90.0,13.0,64.0
842,32.0,0.0,90.0,14.0,64.0
843,51.0,0.0,40.0,12.0,64.0
844,60.0,0.0,40.0,11.0,64.0
845,68.0,48.0,60.0,10.0,64.0
846,51.0,12.0,40.0,12.0,64.0
847,73.0,0.0,450.0,1.0,64.0
848,77.0,0.0,450.0,1.0,64.0
849,49.0,12.0,450.0,2.0,64.0
850,44.0,0.0,150.0,3.0,64.0
851,56.0,12.0,150.0,3.0,64.0
852,80.0,0.0,150.0,10.0,64.0
853,44.0,30.0,90.0,13.0,64.0
854,61.0,30.0,40.0,11.0,64.0
855,53.0,0.0,40.0,12.0,64.0
856,53.0,0.0,450.0,2.0,64.0
857,32.0,0.0,90.0,14.0,64.0
858,53.0,0.0,40.0,12.0,64.0
859,61.0,48.0,40.0,11.0,64.0
860,32.0,30.0,90.0,14.0,64.0
861,53.0,0.0,40.0,12.0,64.0
862,61.0,30.0,40.0,11.0,64.0
863,44.0,0.0,90.0,13.0,64.0
864,61.0,60.0,40.0,11.0,64.0
865,53.0,0.0,40.0,12.0,64.0
866,56.0,0.0,150.0,3.0,64.0
867,32.0,0.0,90.0,14.0,64.0
868,44.0,0.0,150.0,3.0,64.0
869,44.0,30.0,90.0,13.0,64.0
870,61.0,30.0,40.0,11.0,64.0
871,77.0,12.0,150.0,10.0,64.0
872,53.0,0.0,40.0,12.0,64.0
873,61.0,48.0,40.0,11.0,64.0
874,53.0,0.0,40.0,12.0,64.0
875,53.0,30.0,40.0,12.0,64.0
876,44.0,0.0,90.0,13.0,64.0
877,61.0,0.0,40.0,11.0,64.0
878,32.0,18.0,90.0,14.0,64.0
879,61.0,60.0,40.0,11.0,64.0
880,53.0,0.0,40.0,12.0,64.0
881,44.0,30.0,90.0,13.0,64.0
882,60.0,30.0,40.0,11.0,64.0
883,75.0,0.0,450.0,1.0,64.0
884,75.0,6.0,330.0,10.0,64.0
885,72.0,0.0,450.0,1.0,64.0
886,51.0,0.0,40.0,12.0,64.0
887,56.0,0.0,180.0,4.0,64.0
888,68.0,0.0,180.0,4.0,64.0
889,32.0,0.0,90.0,14.0,64.0
890,44.0,0.0,390.0,3.0,64.0
891,56.0,24.0,390.0,3.0,64.0
892,51.0,12.0,450.0,2.0,64.0
893,44.0,6.0,180.0,5.0,64.0
894,48.0,0.0,450.0,2.0,64.0
895,51.0,0.0,40.0,12.0,64.0
896,60.0,60.0,40.0,11.0,64.0
897,51.0,24.0,40.0,12.0,64.0
898,44.0,0.0,90.0,13.0,64.0
899,60.0,0.0,40.0,11.0,64.0
900,32.0,30.0,90.0,14.0,64.0
901,51.0,60.0,40.0,12.0,64.0
902,60.0,0.0,40.0,11.0,64.0
903,44.0,0.0,90.0,13.0,64.0
904,32.0,24.0,90.0,14.0,64.0
905,51.0,30.0,40.0,12.0,64.0
906,60.0,0.0,40.0,11.0,64.0
907,60.0,36.0,40.0,11.0,64.0
908,51.0,0.0,40.0,12.0,64.0
909,51.0,12.0,40.0,12.0,64.0
910,44.0,0.0,90.0,13.0,64.0
911,72.0,18.0,60.0,10.0,64.0
912,60.0,0.0,40.0,11.0,64.0
913,32.0,18.0,90.0,14.0,64.0
914,60.0,12.0,40.0,11.0,64.0
915,51.0,0.0,40.0,12.0,64.0
916,68.0,48.0,60.0,10.0,64.0
917,65.0,0.0,40.0,11.0,64.0
918,32.0,0.0,90.0,14.0,64.0
919,80.0,0.0,150.0,10.0,64.0
920,56.0,0.0,150.0,3.0,64.0
921,61.0,0.0,450.0,2.0,64.0
922,53.0,12.0,450.0,2.0,64.0
923,44.0,6.0,180.0,5.0,64.0
924,68.0,12.0,150.0,4.0,64.0
925,56.0,0.0,150.0,4.0,64.0
926,44.0,0.0,150.0,3.0,64.0
927,77.0,0.0,450.0,1.0,64.0
928,61.0,30.0,40.0,12.0,64.0
929,44.0,30.0,90.0,13.0,64.0
930,73.0,0.0,450.0,1.0,64.0
931,61.0,0.0,40.0,12.0,64.0
932,65.0,48.0,40.0,11.0,64.0
933,61.0,0.0,40.0,12.0,64.0
934,32.0,30.0,90.0,14.0,64.0
935,65.0,24.0,40.0,11.0,64.0
936,44.0,0.0,90.0,13.0,64.0
937,65.0,60.0,40.0,11.0,64.0
938,61.0,0.0,40.0,12.0,64.0
939,32.0,30.0,90.0,14.0,64.0
940,44.0,0.0,90.0,13.0,64.0
941,61.0,0.0,40.0,12.0,64.0
942,44.0,0.0,150.0,3.0,64.0
943,56.0,0.0,150.0,3.0,64.0
944,44.0,6.0,180.0,5.0,64.0
945,65.0,30.0,40.0,11.0,64.0
946,77.0,0.0,150.0,10.0,64.0
947,56.0,12.0,150.0,4.0,64.0
948,68.0,0.0,150.0,4.0,64.0
949,61.0,0.0,40.0,12.0,64.0
950,65.0,48.0,40.0,11.0,64.0
951,32.0,0.0,90.0,14.0,64.0
952,61.0,24.0,40.0,12.0,64.0
953,65.0,0.0,40.0,11.0,64.0
954,44.0,18.0,90.0,13.0,64.0
955,65.0,0.0,40.0,11.0,64.0
956,61.0,60.0,40.0,12.0,64.0
957,75.0,0.0,180.0,1.0,64.0
958,72.0,0.0,180.0,1.0,64.0
959,32.0,0.0,180.0,14.0,64.0
960,60.0,0.0,180.0,2.0,64.0
961,56.0,0.0,180.0,3.0,64.0
962,44.0,36.0,180.0,3.0,64.0
963,60.0,0.0,40.0,12.0,64.0
964,75.0,36.0,60.0,10.0,64.0
965,56.0,0.0,180.0,4.0,64.0
966,68.0,0.0,180.0,4.0,64.0
967,63.0,24.0,40.0,11.0,64.0
968,80.0,0.0,180.0,0.0,64.0
969,44.0,0.0,180.0,13.0,64.0
970,44.0,0.0,180.0,5.0,64.0
971,51.0,0.0,180.0,2.0,64.0
972,60.0,0.0,40.0,12.0,64.0
973,63.0,60.0,40.0,11.0,64.0
974,75.0,0.0,60.0,10.0,64.0
975,63.0,0.0,40.0,11.0,64.0
976,60.0,24.0,40.0,12.0,64.0
977,63.0,0.0,40.0,11.0,64.0
978,60.0,60.0,40.0,12.0,64.0
979,60.0,0.0,40.0,12.0,64.0
980,63.0,60.0,40.0,11.0,64.0
981,84.0,24.0,180.0,10.0,64.0
982,60.0,0.0,40.0,12.0,64.0
983,63.0,60.0,40.0,11.0,64.0
984,84.0,0.0,90.0,0.0,64.0
985,75.0,12.0,90.0,1.0,64.0
986,63.0,24.0,40.0,11.0,64.0
987,72.0,0.0,90.0,1.0,64.0
988,56.0,0.0,90.0,13.0,64.0
989,60.0,0.0,40.0,12.0,64.0
990,60.0,0.0,90.0,3.0,64.0
991,63.0,0.0,90.0,3.0,64.0
992,56.0,0.0,90.0,2.0,64.0
993,44.0,0.0,90.0,14.0,64.0
994,60.0,60.0,40.0,12.0,64.0
995,63.0,0.0,40.0,11.0,64.0
996,58.0,0.0,40.0,12.0,64.0
997,39.0,0.0,180.0,5.0,64.0
998,82.0,36.0,180.0,0.0,64.0
999,39.0,0.0,180.0,14.0,64.0
1000,73.0,0.0,180.0,1.0,64.0
1001,70.0,0.0,180.0,1.0,64.0
1002,61.0,0.0,180.0,3.0,64.0
1003,51.0,0.0,180.0,13.0,64.0
1004,51.0,0.0,180.0,2.0,64.0
1005,67.0,60.0,40.0,11.0,64.0
1006,58.0,0.0,180.0,3.0,64.0
1007,63.0,0.0,180.0,4.0,64.0
1008,58.0,0.0,40.0,12.0,64.0
1009,67.0,60.0,40.0,11.0,64.0
1010,58.0,24.0,40.0,12.0,64.0
1011,67.0,0.0,40.0,11.0,64.0
1012,73.0,0.0,60.0,10.0,64.0
1013,58.0,60.0,40.0,12.0,64.0
1014,67.0,0.0,40.0,11.0,64.0
1015,67.0,60.0,40.0,11.0,64.0
1016,58.0,0.0,40.0,12.0,64.0
1017,82.0,24.0,180.0,10.0,64.0
1018,58.0,60.0,40.0,12.0,64.0
1019,67.0,0.0,40.0,11.0,64.0
1020,67.0,0.0,40.0,11.0,64.0
1021,58.0,24.0,40.0,12.0,64.0
1022,51.0,0.0,90.0,13.0,64.0
1023,51.0,0.0,90.0,2.0,64.0
1024,82.0,0.0,90.0,0.0,64.0
1025,70.0,12.0,90.0,1.0,64.0
1026,61.0,0.0,90.0,3.0,64.0
1027,58.0,0.0,90.0,3.0,64.0
1028,39.0,0.0,90.0,14.0,64.0
1029,73.0,0.0,90.0,1.0,64.0
1030,67.0,0.0,40.0,11.0,64.0
1031,58.0,60.0,40.0,12.0,64.0
1032,72.0,0.0,180.0,1.0,64.0
1033,68.0,0.0,180.0,1.0,64.0
1034,44.0,0.0,180.0,5.0,64.0
1035,56.0,0.0,40.0,12.0,64.0
1036,80.0,0.0,180.0,0.0,64.0
1037,53.0,0.0,180.0,13.0,64.0
1038,56.0,0.0,180.0,4.0,64.0
1039,41.0,36.0,180.0,14.0,64.0
1040,68.0,0.0,180.0,4.0,64.0
1041,56.0,0.0,180.0,3.0,64.0
1042,68.0,60.0,40.0,11.0,64.0
1043,53.0,0.0,180.0,2.0,64.0
1044,60.0,0.0,180.0,3.0,64.0
1045,60.0,60.0,40.0,12.0,64.0
1046,68.0,0.0,40.0,11.0,64.0
1047,60.0,0.0,40.0,12.0,64.0
1048,68.0,24.0,40.0,11.0,64.0
1049,72.0,0.0,60.0,10.0,64.0
1050,68.0,60.0,40.0,11.0,64.0
1051,60.0,0.0,40.0,12.0,64.0
1052,68.0,60.0,40.0,11.0,64.0
1053,60.0,0.0,40.0,12.0,64.0
1054,80.0,24.0,180.0,10.0,64.0
1055,68.0,0.0,40.0,11.0,64.0
1056,60.0,60.0,40.0,12.0,64.0
1057,68.0,0.0,40.0,11.0,64.0
1058,53.0,12.0,90.0,2.0,64.0
1059,41.0,0.0,90.0,14.0,64.0
1060,60.0,24.0,40.0,12.0,64.0
1061,72.0,0.0,90.0,1.0,64.0
1062,68.0,0.0,90.0,1.0,64.0
1063,80.0,0.0,90.0,0.0,64.0
1064,60.0,0.0,90.0,3.0,64.0
1065,56.0,0.0,90.0,3.0,64.0
1066,53.0,0.0,90.0,13.0,64.0
1067,68.0,60.0,40.0,11.0,64.0
1068,60.0,0.0,40.0,12.0,64.0
1069,58.0,36.0,180.0,3.0,64.0
1070,85.0,0.0,180.0,0.0,64.0
1071,49.0,0.0,180.0,2.0,64.0
1072,49.0,0.0,180.0,13.0,64.0
1073,61.0,0.0,180.0,3.0,64.0
1074,37.0,0.0,180.0,14.0,64.0
1075,70.0,0.0,180.0,1.0,64.0
1076,73.0,0.0,180.0,1.0,64.0
1077,70.0,0.0,40.0,11.0,64.0
1078,61.0,60.0,40.0,12.0,64.0
1079,70.0,60.0,40.0,11.0,64.0
1080,61.0,0.0,40.0,12.0,64.0
1081,70.0,24.0,40.0,11.0,64.0
1082,61.0,0.0,40.0,12.0,64.0
1083,61.0,0.0,60.0,10.0,64.0
1084,61.0,60.0,40.0,12.0,64.0
1085,70.0,0.0,40.0,11.0,64.0
1086,77.0,24.0,180.0,10.0,64.0
1087,61.0,0.0,40.0,12.0,64.0
1088,70.0,60.0,40.0,11.0,64.0
1089,61.0,0.0,40.0,12.0,64.0
1090,70.0,60.0,40.0,11.0,64.0
1091,85.0,0.0,90.0,0.0,64.0
1092,61.0,0.0,90.0,3.0,64.0
1093,58.0,12.0,90.0,3.0,64.0
1094,70.0,0.0,90.0,1.0,64.0
1095,73.0,0.0,90.0,1.0,64.0
1096,37.0,0.0,90.0,14.0,64.0
1097,70.0,0.0,40.0,11.0,64.0
1098,49.0,0.0,90.0,2.0,64.0
1099,61.0,24.0,40.0,12.0,64.0
1100,49.0,0.0,90.0,13.0,64.0
1101,61.0,60.0,40.0,12.0,64.0
1102,70.0,0.0,40.0,11.0,64.0
1103,56.0,0.0,180.0,3.0,64.0
1104,68.0,60.0,40.0,11.0,64.0
1105,39.0,0.0,180.0,5.0,64.0
1106,72.0,0.0,180.0,4.0,64.0
1107,68.0,0.0,180.0,4.0,64.0
1108,60.0,0.0,40.0,12.0,64.0
1109,39.0,0.0,180.0,14.0,64.0
1110,60.0,36.0,180.0,3.0,64.0
1111,51.0,0.0,180.0,13.0,64.0
1112,68.0,0.0,180.0,1.0,64.0
1113,72.0,0.0,180.0,1.0,64.0
1114,51.0,0.0,180.0,2.0,64.0
1115,84.0,0.0,180.0,0.0,64.0
1116,60.0,60.0,40.0,12.0,64.0
1117,68.0,0.0,40.0,11.0,64.0
1118,60.0,24.0,40.0,12.0,64.0
1119,68.0,0.0,40.0,11.0,64.0
1120,60.0,0.0,60.0,10.0,64.0
1121,68.0,0.0,40.0,11.0,64.0
1122,60.0,60.0,40.0,12.0,64.0
1123,68.0,0.0,40.0,11.0,64.0
1124,75.0,24.0,180.0,10.0,64.0
1125,60.0,60.0,40.0,12.0,64.0
1126,68.0,0.0,40.0,11.0,64.0
1127,60.0,60.0,40.0,12.0,64.0
1128,51.0,0.0,90.0,13.0,64.0
1129,39.0,0.0,90.0,14.0,64.0
1130,56.0,0.0,90.0,3.0,64.0
1131,60.0,0.0,90.0,3.0,64.0
1132,68.0,0.0,90.0,1.0,64.0
1133,72.0,12.0,90.0,1.0,64.0
1134,68.0,0.0,40.0,11.0,64.0
1135,51.0,0.0,90.0,2.0,64.0
1136,60.0,24.0,40.0,12.0,64.0
1137,84.0,0.0,90.0,0.0,64.0
1138,68.0,60.0,40.0,11.0,64.0
1139,60.0,0.0,40.0,12.0,64.0
1140,39.0,36.0,180.0,5.0,64.0
1141,39.0,0.0,180.0,2.0,64.0
1142,67.0,0.0,40.0,11.0,64.0
1143,39.0,0.0,180.0,13.0,64.0
1144,70.0,0.0,180.0,1.0,64.0
1145,67.0,0.0,180.0,1.0,64.0
1146,85.0,0.0,180.0,0.0,64.0
1147,63.0,0.0,180.0,4.0,64.0
1148,70.0,0.0,180.0,4.0,64.0
1149,51.0,0.0,180.0,3.0,64.0
1150,58.0,60.0,40.0,12.0,64.0
1151,27.0,0.0,180.0,14.0,64.0
1152,58.0,0.0,180.0,3.0,64.0
1153,67.0,60.0,40.0,11.0,64.0
1154,58.0,0.0,40.0,12.0,64.0
1155,58.0,0.0,40.0,12.0,64.0
1156,58.0,0.0,60.0,10.0,64.0
1157,67.0,24.0,40.0,11.0,64.0
1158,67.0,0.0,40.0,11.0,64.0
1159,58.0,60.0,40.0,12.0,64.0
1160,73.0,36.0,60.0,10.0,64.0
1161,61.0,24.0,40.0,11.0,64.0
1162,58.0,0.0,40.0,12.0,64.0
1163,61.0,0.0,40.0,11.0,64.0
1164,58.0,60.0,40.0,12.0,64.0
1165,27.0,0.0,90.0,14.0,64.0
1166,58.0,0.0,40.0,12.0,64.0
1167,51.0,0.0,90.0,3.0,64.0
1168,58.0,0.0,90.0,3.0,64.0
1169,85.0,0.0,90.0,0.0,64.0
1170,39.0,0.0,90.0,13.0,64.0
1171,39.0,0.0,90.0,2.0,64.0
1172,70.0,12.0,90.0,1.0,64.0
1173,67.0,0.0,90.0,1.0,64.0
1174,67.0,24.0,60.0,10.0,64.0
1175,61.0,24.0,40.0,11.0,64.0
1176,58.0,0.0,40.0,12.0,64.0
1177,61.0,90.0,40.0,11.0,64.0
1178,44.0,0.0,180.0,13.0,64.0
1179,68.0,0.0,180.0,10.0,64.0
1180,68.0,0.0,180.0,1.0,64.0
1181,48.0,0.0,90.0,3.0,64.0
1182,56.0,114.0,90.0,3.0,64.0
1183,60.0,0.0,180.0,4.0,64.0
1184,32.0,0.0,180.0,14.0,64.0
1185,84.0,0.0,180.0,0.0,64.0
1186,56.0,0.0,180.0,12.0,64.0
1187,44.0,0.0,180.0,5.0,64.0
1188,68.0,6.0,180.0,4.0,64.0
1189,44.0,0.0,180.0,2.0,64.0
1190,60.0,0.0,180.0,11.0,64.0
1191,44.0,0.0,90.0,3.0,64.0
1192,56.0,120.0,90.0,3.0,64.0
1193,56.0,120.0,90.0,3.0,64.0
1194,44.0,0.0,90.0,3.0,64.0
1195,56.0,120.0,90.0,3.0,64.0
1196,44.0,0.0,90.0,3.0,64.0
1197,56.0,0.0,90.0,3.0,64.0
1198,68.0,78.0,240.0,10.0,64.0
1199,53.0,0.0,120.0,2.0,64.0
1200,65.0,0.0,240.0,11.0,64.0
1201,77.0,78.0,120.0,0.0,64.0
1202,49.0,0.0,240.0,12.0,64.0
1203,44.0,42.0,90.0,3.0,64.0
1204,44.0,42.0,90.0,3.0,64.0
1205,56.0,0.0,90.0,3.0,64.0
1206,78.0,0.0,120.0,0.0,64.0
1207,54.0,0.0,120.0,2.0,64.0
1208,61.0,5.0,240.0,11.0,64.0
1209,55.0,78.0,120.0,2.0,64.0
1210,79.0,0.0,120.0,0.0,64.0
1211,53.0,0.0,240.0,12.0,64.0
1212,56.0,0.0,90.0,3.0,64.0
1213,65.0,0.0,240.0,10.0,64.0
1214,44.0,42.0,90.0,3.0,64.0
1215,80.0,78.0,120.0,0.0,64.0
1216,56.0,37.0,90.0,3.0,64.0
1217,44.0,0.0,90.0,3.0,64.0
1218,56.0,0.0,120.0,2.0,64.0
1219,32.0,0.0,180.0,14.0,64.0
1220,44.0,0.0,90.0,3.0,64.0
1221,56.0,42.0,90.0,3.0,64.0
1222,58.0,0.0,120.0,2.0,64.0
1223,68.0,5.0,1920.0,4.0,64.0
1224,72.0,72.0,120.0,1.0,64.0
1225,56.0,0.0,180.0,12.0,64.0
1226,60.0,0.0,360.0,11.0,64.0
1227,63.0,78.0,360.0,10.0,64.0
1228,82.0,0.0,120.0,0.0,64.0
1229,68.0,0.0,120.0,1.0,64.0
1230,44.0,6.0,180.0,13.0,64.0
1231,56.0,0.0,1920.0,4.0,64.0
1232,80.0,24.0,90.0,0.0,64.0
1233,44.0,0.0,90.0,3.0,64.0
1234,56.0,18.0,90.0,3.0,64.0
1235,56.0,0.0,90.0,2.0,64.0
1236,70.0,0.0,120.0,1.0,64.0
1237,73.0,78.0,120.0,1.0,64.0
1238,56.0,42.0,90.0,3.0,64.0
1239,44.0,0.0,90.0,3.0,64.0
1240,74.0,0.0,120.0,1.0,64.0
1241,71.0,0.0,120.0,1.0,64.0
1242,72.0,0.0,120.0,1.0,64.0
1243,56.0,2.0,120.0,11.0,64.0
1244,75.0,78.0,120.0,1.0,64.0
1245,60.0,0.0,120.0,10.0,64.0
1246,44.0,40.0,90.0,3.0,64.0
1247,56.0,0.0,90.0,3.0,64.0
1248,44.0,0.0,90.0,3.0,64.0
1249,77.0,0.0,180.0,1.0,64.0
1250,73.0,6.0,180.0,1.0,64.0
1251,49.0,78.0,240.0,12.0,64.0
1252,53.0,0.0,120.0,2.0,64.0
1253,77.0,72.0,120.0,0.0,64.0
1254,56.0,42.0,90.0,3.0,64.0
1255,65.0,0.0,240.0,11.0,64.0
1256,68.0,0.0,240.0,10.0,64.0
1257,56.0,0.0,90.0,3.0,64.0
1258,44.0,42.0,90.0,3.0,64.0
1259,54.0,0.0,120.0,2.0,64.0
1260,78.0,0.0,120.0,0.0,64.0
1261,55.0,0.0,120.0,2.0,64.0
1262,61.0,0.0,240.0,11.0,64.0
1263,44.0,0.0,90.0,3.0,64.0
1264,56.0,42.0,90.0,3.0,64.0
1265,53.0,0.0,240.0,12.0,64.0
1266,79.0,78.0,120.0,0.0,64.0
1267,65.0,5.0,240.0,10.0,64.0
1268,56.0,78.0,120.0,2.0,64.0
1269,80.0,0.0,120.0,0.0,64.0
1270,56.0,0.0,90.0,3.0,64.0
1271,44.0,37.0,90.0,3.0,64.0
1272,58.0,0.0,120.0,2.0,64.0
1273,72.0,0.0,120.0,1.0,64.0
1274,60.0,0.0,360.0,11.0,64.0
1275,56.0,6.0,180.0,12.0,64.0
1276,63.0,78.0,360.0,10.0,64.0
1277,44.0,0.0,180.0,13.0,64.0
1278,44.0,42.0,90.0,3.0,64.0
1279,56.0,0.0,90.0,3.0,64.0
1280,32.0,0.0,180.0,14.0,64.0
1281,82.0,72.0,120.0,0.0,64.0
1282,68.0,0.0,120.0,1.0,64.0
1283,56.0,18.0,90.0,3.0,64.0
1284,44.0,0.0,90.0,3.0,64.0
1285,70.0,0.0,120.0,1.0,64.0
1286,73.0,78.0,120.0,1.0,64.0
1287,80.0,24.0,90.0,0.0,64.0
1288,56.0,0.0,90.0,2.0,64.0
1289,71.0,0.0,120.0,1.0,64.0
1290,74.0,0.0,120.0,1.0,64.0
1291,44.0,42.0,90.0,3.0,64.0
1292,56.0,0.0,90.0,3.0,64.0
1293,72.0,78.0,120.0,1.0,64.0
1294,75.0,0.0,120.0,1.0,64.0
1295,56.0,2.0,120.0,11.0,64.0
1296,56.0,40.0,90.0,3.0,64.0
1297,44.0,0.0,90.0,3.0,64.0
1298,60.0,0.0,120.0,10.0,64.0
1299,65.0,0.0,240.0,11.0,64.0
1300,49.0,0.0,240.0,12.0,64.0
1301,56.0,42.0,90.0,3.0,64.0
1302,53.0,72.0,120.0,2.0,64.0
1303,68.0,0.0,240.0,10.0,64.0
1304,77.0,0.0,120.0,0.0,64.0
1305,77.0,6.0,180.0,1.0,64.0
1306,73.0,0.0,180.0,1.0,64.0
1307,44.0,0.0,90.0,3.0,64.0
1308,44.0,0.0,90.0,3.0,64.0
1309,54.0,0.0,120.0,2.0,64.0
1310,56.0,42.0,90.0,3.0,64.0
1311,78.0,78.0,120.0,0.0,64.0
1312,79.0,0.0,120.0,0.0,64.0
1313,65.0,0.0,240.0,10.0,64.0
1314,44.0,0.0,90.0,3.0,64.0
1315,56.0,42.0,90.0,3.0,64.0
1316,55.0,78.0,120.0,2.0,64.0
1317,53.0,0.0,240.0,12.0,64.0
1318,61.0,5.0,240.0,11.0,64.0
1319,56.0,32.0,90.0,3.0,64.0
1320,44.0,0.0,90.0,3.0,64.0
1321,56.0,0.0,120.0,2.0,64.0
1322,80.0,120.0,120.0,0.0,64.0
1323,63.0,0.0,180.0,10.0,64.0
1324,58.0,0.0,120.0,2.0,64.0
1325,56.0,24.0,180.0,3.0,64.0
1326,32.0,0.0,180.0,14.0,64.0
1327,44.0,0.0,180.0,13.0,64.0
1328,56.0,0.0,180.0,12.0,64.0
1329,44.0,0.0,180.0,3.0,64.0
1330,44.0,0.0,180.0,5.0,64.0
1331,60.0,0.0,180.0,11.0,64.0
1332,82.0,72.0,120.0,0.0,64.0
1333,68.0,0.0,180.0,4.0,64.0
1334,56.0,0.0,180.0,4.0,64.0
1335,80.0,96.0,90.0,0.0,64.0
1336,56.0,0.0,90.0,2.0,64.0
1337,72.0,0.0,60.0,1.0,64.0
1338,75.0,0.0,60.0,1.0,64.0
1339,75.0,0.0,60.0,1.0,64.0
1340,60.0,0.0,60.0,2.0,64.0
1341,72.0,0.0,60.0,1.0,64.0
1342,63.0,120.0,60.0,2.0,64.0
1343,60.0,0.0,60.0,2.0,64.0
1344,63.0,0.0,60.0,2.0,64.0
1345,72.0,78.0,60.0,1.0,64.0
1346,75.0,0.0,60.0,1.0,64.0
1347,65.0,30.0,30.0,2.0,64.0
1348,51.0,0.0,180.0,13.0,64.0
1349,63.0,0.0,180.0,12.0,64.0
1350,61.0,0.0,30.0,2.0,64.0
1351,77.0,0.0,30.0,1.0,64.0
1352,63.0,0.0,180.0,4.0,64.0
1353,73.0,0.0,30.0,1.0,64.0
1354,39.0,0.0,180.0,14.0,64.0
1355,39.0,0.0,180.0,5.0,64.0
1356,60.0,30.0,30.0,2.0,64.0
1357,63.0,0.0,30.0,2.0,64.0
1358,75.0,0.0,30.0,1.0,64.0
1359,72.0,0.0,30.0,1.0,64.0
1360,73.0,30.0,30.0,1.0,64.0
1361,77.0,0.0,30.0,1.0,64.0
1362,61.0,0.0,30.0,2.0,64.0
1363,65.0,0.0,30.0,2.0,64.0
1364,60.0,0.0,30.0,2.0,64.0
1365,63.0,72.0,30.0,2.0,64.0
1366,72.0,0.0,30.0,1.0,64.0
1367,75.0,0.0,30.0,1.0,64.0
1368,73.0,0.0,60.0,1.0,64.0
1369,70.0,0.0,60.0,1.0,64.0
1370,61.0,0.0,60.0,2.0,64.0
1371,58.0,120.0,60.0,2.0,64.0
1372,70.0,0.0,60.0,1.0,64.0
1373,61.0,0.0,60.0,2.0,64.0
1374,58.0,0.0,60.0,2.0,64.0
1375,73.0,120.0,60.0,1.0,64.0
1376,61.0,0.0,60.0,2.0,64.0
1377,58.0,0.0,60.0,2.0,64.0
1378,70.0,78.0,60.0,1.0,64.0
1379,73.0,0.0,60.0,1.0,64.0
1380,44.0,0.0,180.0,5.0,64.0
1381,44.0,0.0,180.0,14.0,64.0
1382,68.0,0.0,180.0,4.0,64.0
1383,56.0,0.0,180.0,4.0,64.0
1384,63.0,30.0,30.0,2.0,64.0
1385,60.0,0.0,30.0,2.0,64.0
1386,72.0,0.0,30.0,1.0,64.0
1387,56.0,120.0,180.0,13.0,64.0
1388,75.0,0.0,30.0,1.0,64.0
1389,68.0,0.0,180.0,12.0,64.0
1390,61.0,0.0,30.0,2.0,64.0
1391,58.0,30.0,30.0,2.0,64.0
1392,70.0,0.0,30.0,1.0,64.0
1393,73.0,0.0,30.0,1.0,64.0
1394,72.0,0.0,30.0,1.0,64.0
1395,75.0,30.0,30.0,1.0,64.0
1396,63.0,0.0,30.0,2.0,64.0
1397,60.0,0.0,30.0,2.0,64.0
1398,70.0,0.0,30.0,1.0,64.0
1399,73.0,0.0,30.0,1.0,64.0
1400,61.0,0.0,30.0,2.0,64.0
1401,58.0,72.0,30.0,2.0,64.0
1402,63.0,0.0,60.0,3.0,64.0
1403,68.0,0.0,60.0,1.0,64.0
1404,72.0,0.0,60.0,1.0,64.0
1405,56.0,0.0,60.0,2.0,64.0
1406,60.0,0.0,60.0,2.0,64.0
1407,84.0,0.0,60.0,0.0,64.0
1408,60.0,0.0,60.0,3.0,64.0
1409,72.0,0.0,60.0,1.0,64.0
1410,75.0,0.0,60.0,1.0,64.0
1411,51.0,0.0,60.0,2.0,64.0
1412,60.0,120.0,60.0,2.0,64.0
1413,60.0,0.0,60.0,3.0,64.0
1414,84.0,0.0,60.0,0.0,64.0
1415,63.0,0.0,60.0,3.0,64.0
1416,60.0,0.0,60.0,3.0,64.0
1417,84.0,0.0,60.0,0.0,64.0
1418,51.0,0.0,60.0,2.0,64.0
1419,60.0,0.0,60.0,2.0,64.0
1420,63.0,0.0,60.0,3.0,64.0
1421,72.0,0.0,60.0,1.0,64.0
1422,75.0,72.0,60.0,1.0,64.0
1423,73.0,0.0,30.0,1.0,64.0
1424,61.0,0.0,20.0,2.0,64.0
1425,53.0,6.0,20.0,2.0,64.0
1426,85.0,18.0,30.0,0.0,64.0
1427,65.0,6.0,40.0,3.0,64.0
1428,61.0,0.0,40.0,3.0,64.0
1429,77.0,0.0,30.0,1.0,64.0
1430,61.0,0.0,180.0,12.0,64.0
1431,37.0,0.0,180.0,14.0,64.0
1432,49.0,0.0,180.0,13.0,64.0
1433,51.0,6.0,20.0,2.0,64.0
1434,60.0,0.0,20.0,2.0,64.0
1435,72.0,24.0,30.0,1.0,64.0
1436,84.0,0.0,30.0,0.0,64.0
1437,75.0,0.0,30.0,1.0,64.0
1438,60.0,0.0,40.0,3.0,64.0
1439,63.0,6.0,40.0,3.0,64.0
1440,61.0,0.0,20.0,2.0,64.0
1441,53.0,6.0,20.0,2.0,64.0
1442,77.0,0.0,30.0,1.0,64.0
1443,85.0,0.0,30.0,0.0,64.0
1444,73.0,18.0,30.0,1.0,64.0
1445,60.0,6.0,20.0,2.0,64.0
1446,51.0,0.0,20.0,2.0,64.0
1447,84.0,0.0,30.0,0.0,64.0
1448,75.0,0.0,30.0,1.0,64.0
1449,72.0,72.0,30.0,1.0,64.0
1450,61.0,0.0,60.0,3.0,64.0
1451,58.0,0.0,60.0,3.0,64.0
1452,58.0,0.0,60.0,2.0,64.0
1453,73.0,120.0,60.0,1.0,64.0
1454,82.0,0.0,60.0,0.0,64.0
1455,70.0,0.0,60.0,1.0,64.0
1456,49.0,0.0,60.0,2.0,64.0
1457,49.0,0.0,60.0,2.0,64.0
1458,61.0,0.0,60.0,3.0,64.0
1459,58.0,0.0,60.0,3.0,64.0
1460,58.0,0.0,60.0,2.0,64.0
1461,73.0,0.0,60.0,1.0,64.0
1462,70.0,0.0,60.0,1.0,64.0
1463,82.0,120.0,60.0,0.0,64.0
1464,58.0,0.0,60.0,3.0,64.0
1465,70.0,0.0,60.0,1.0,64.0
1466,58.0,0.0,60.0,2.0,64.0
1467,49.0,0.0,60.0,2.0,64.0
1468,73.0,78.0,60.0,1.0,64.0
1469,61.0,0.0,60.0,3.0,64.0
1470,82.0,0.0,60.0,0.0,64.0
1471,51.0,0.0,180.0,13.0,64.0
1472,39.0,0.0,180.0,5.0,64.0
1473,60.0,0.0,30.0,2.0,64.0
1474,51.0,0.0,30.0,2.0,64.0
1475,39.0,0.0,180.0,14.0,64.0
1476,63.0,0.0,60.0,3.0,64.0
1477,60.0,0.0,60.0,3.0,64.0
1478,75.0,0.0,30.0,1.0,64.0
1479,72.0,0.0,30.0,1.0,64.0
1480,63.0,120.0,180.0,4.0,64.0
1481,84.0,30.0,30.0,0.0,64.0
1482,63.0,0.0,180.0,12.0,64.0
1483,58.0,0.0,30.0,2.0,64.0
1484,70.0,0.0,30.0,1.0,64.0
1485,73.0,0.0,30.0,1.0,64.0
1486,82.0,30.0,30.0,0.0,64.0
1487,49.0,0.0,30.0,2.0,64.0
1488,72.0,0.0,30.0,1.0,64.0
1489,75.0,0.0,30.0,1.0,64.0
1490,58.0,72.0,60.0,3.0,64.0
1491,84.0,0.0,30.0,0.0,64.0
1492,51.0,0.0,30.0,2.0,64.0
1493,60.0,30.0,30.0,2.0,64.0
1494,61.0,0.0,60.0,3.0,64.0
1495,58.0,0.0,30.0,2.0,64.0
1496,49.0,0.0,30.0,2.0,64.0
1497,70.0,0.0,30.0,1.0,64.0
1498,73.0,0.0,30.0,1.0,64.0
1499,82.0,0.0,30.0,0.0,64.0
1500,72.0,0.0,60.0,1.0,64.0
1501,56.0,0.0,60.0,2.0,64.0
1502,48.0,0.0,60.0,2.0,64.0
1503,80.0,0.0,60.0,0.0,64.0
1504,68.0,0.0,60.0,1.0,64.0
1505,56.0,0.0,60.0,3.0,64.0
1506,60.0,0.0,60.0,3.0,64.0
1507,72.0,0.0,60.0,1.0,64.0
1508,56.0,0.0,60.0,2.0,64.0
1509,56.0,120.0,60.0,3.0,64.0
1510,60.0,0.0,60.0,3.0,64.0
1511,48.0,0.0,60.0,2.0,64.0
1512,68.0,0.0,60.0,1.0,64.0
1513,80.0,0.0,60.0,0.0,64.0
1514,60.0,0.0,60.0,3.0,64.0
1515,56.0,0.0,60.0,3.0,64.0
1516,68.0,0.0,60.0,1.0,64.0
1517,80.0,0.0,60.0,0.0,64.0
1518,72.0,0.0,60.0,1.0,64.0
1519,56.0,0.0,60.0,2.0,64.0
1520,48.0,78.0,60.0,2.0,64.0
1521,58.0,0.0,30.0,2.0,64.0
1522,51.0,0.0,180.0,12.0,64.0
1523,39.0,0.0,180.0,5.0,64.0
1524,82.0,0.0,30.0,0.0,64.0
1525,60.0,0.0,120.0,3.0,64.0
1526,56.0,72.0,120.0,3.0,64.0
1527,49.0,0.0,30.0,2.0,64.0
1528,73.0,0.0,30.0,1.0,64.0
1529,63.0,0.0,180.0,4.0,64.0
1530,39.0,120.0,180.0,13.0,64.0
1531,27.0,0.0,180.0,14.0,64.0
1532,70.0,30.0,30.0,1.0,64.0
1533,72.0,0.0,30.0,1.0,64.0
1534,80.0,0.0,30.0,0.0,64.0
1535,48.0,0.0,30.0,2.0,64.0
1536,56.0,30.0,30.0,2.0,64.0
1537,68.0,0.0,30.0,1.0,64.0
1538,70.0,30.0,30.0,1.0,64.0
1539,49.0,0.0,30.0,2.0,64.0
1540,82.0,0.0,30.0,0.0,64.0
1541,73.0,0.0,30.0,1.0,64.0
1542,58.0,0.0,30.0,2.0,64.0
1543,68.0,0.0,30.0,1.0,64.0
1544,80.0,0.0,30.0,0.0,64.0
1545,56.0,0.0,30.0,2.0,64.0
1546,72.0,0.0,30.0,1.0,64.0
1547,48.0,0.0,30.0,2.0,64.0
1548,46.0,0.0,60.0,2.0,64.0
1549,55.0,0.0,60.0,2.0,64.0
1550,79.0,0.0,60.0,0.0,64.0
1551,67.0,0.0,60.0,1.0,64.0
1552,70.0,0.0,60.0,1.0,64.0
1553,51.0,0.0,60.0,3.0,64.0
1554,58.0,0.0,60.0,3.0,64.0
1555,70.0,0.0,60.0,1.0,64.0
1556,67.0,0.0,60.0,1.0,64.0
1557,46.0,0.0,60.0,2.0,64.0
1558,51.0,0.0,60.0,3.0,64.0
1559,55.0,0.0,60.0,2.0,64.0
1560,58.0,120.0,60.0,3.0,64.0
1561,79.0,0.0,60.0,0.0,64.0
1562,55.0,0.0,60.0,2.0,64.0
1563,67.0,0.0,60.0,1.0,64.0
1564,79.0,0.0,60.0,0.0,64.0
1565,58.0,120.0,60.0,3.0,64.0
1566,51.0,0.0,60.0,3.0,64.0
1567,46.0,0.0,60.0,2.0,64.0
1568,70.0,0.0,60.0,1.0,64.0
1569,32.0,0.0,300.0,14.0,64.0
1570,44.0,0.0,180.0,5.0,64.0
1571,44.0,0.0,300.0,13.0,64.0
1572,80.0,6.0,60.0,0.0,64.0
1573,68.0,0.0,60.0,1.0,64.0
1574,44.0,6.0,180.0,2.0,64.0
1575,56.0,0.0,300.0,12.0,64.0
1576,56.0,0.0,90.0,3.0,64.0
1577,56.0,114.0,90.0,4.0,64.0
1578,68.0,0.0,300.0,11.0,64.0
1579,68.0,12.0,300.0,10.0,64.0
1580,56.0,0.0,180.0,2.0,64.0
1581,48.0,0.0,90.0,3.0,64.0
1582,68.0,0.0,60.0,1.0,64.0
1583,56.0,0.0,90.0,4.0,64.0
1584,80.0,0.0,60.0,0.0,64.0
1585,44.0,0.0,90.0,3.0,64.0
1586,56.0,102.0,90.0,3.0,64.0
1587,44.0,42.0,90.0,3.0,64.0
1588,56.0,0.0,90.0,3.0,64.0
1589,80.0,0.0,60.0,0.0,64.0
1590,56.0,0.0,90.0,4.0,64.0
1591,44.0,0.0,60.0,2.0,64.0
1592,68.0,6.0,60.0,1.0,64.0
1593,46.0,0.0,60.0,2.0,64.0
1594,46.0,0.0,60.0,13.0,64.0
1595,58.0,60.0,60.0,12.0,64.0
1596,34.0,0.0,60.0,14.0,64.0
1597,70.0,0.0,60.0,11.0,64.0
1598,70.0,0.0,60.0,10.0,64.0
1599,48.0,57.0,60.0,13.0,64.0
1600,36.0,0.0,60.0,14.0,64.0
1601,72.0,0.0,60.0,10.0,64.0
1602,72.0,0.0,60.0,11.0,64.0
1603,48.0,0.0,60.0,2.0,64.0
1604,60.0,0.0,60.0,12.0,64.0
1605,61.0,3.0,60.0,12.0,64.0
1606,37.0,0.0,60.0,14.0,64.0
1607,49.0,72.0,60.0,2.0,64.0
1608,73.0,0.0,60.0,10.0,64.0
1609,73.0,0.0,60.0,11.0,64.0
1610,49.0,0.0,60.0,13.0,64.0
1611,63.0,0.0,90.0,4.0,64.0
1612,51.0,114.0,90.0,3.0,64.0
1613,75.0,6.0,60.0,0.0,64.0
1614,39.0,0.0,360.0,14.0,64.0
1615,51.0,0.0,360.0,13.0,64.0
1616,75.0,0.0,360.0,11.0,64.0
1617,63.0,60.0,360.0,12.0,64.0
1618,75.0,0.0,60.0,1.0,64.0
1619,39.0,6.0,180.0,5.0,64.0
1620,75.0,0.0,360.0,10.0,64.0
1621,51.0,0.0,360.0,2.0,64.0
1622,63.0,0.0,90.0,4.0,64.0
1623,51.0,114.0,90.0,3.0,64.0
1624,75.0,0.0,60.0,1.0,64.0
1625,75.0,0.0,60.0,0.0,64.0
1626,75.0,6.0,60.0,1.0,64.0
1627,75.0,0.0,60.0,0.0,64.0
1628,51.0,0.0,90.0,3.0,64.0
1629,63.0,42.0,90.0,4.0,64.0
1630,53.0,0.0,60.0,2.0,64.0
1631,41.0,0.0,60.0,14.0,64.0
1632,53.0,0.0,60.0,13.0,64.0
1633,77.0,0.0,60.0,10.0,64.0
1634,77.0,57.0,60.0,11.0,64.0
1635,65.0,0.0,60.0,12.0,64.0
1636,55.0,0.0,60.0,13.0,64.0
1637,67.0,3.0,60.0,12.0,64.0
1638,79.0,0.0,60.0,11.0,64.0
1639,79.0,0.0,60.0,10.0,64.0
1640,55.0,72.0,60.0,2.0,64.0
1641,43.0,0.0,60.0,14.0,64.0
1642,44.0,0.0,180.0,5.0,64.0
1643,56.0,0.0,360.0,13.0,64.0
1644,44.0,0.0,360.0,14.0,64.0
1645,80.0,6.0,60.0,0.0,64.0
1646,80.0,0.0,360.0,11.0,64.0
1647,80.0,60.0,360.0,10.0,64.0
1648,56.0,0.0,360.0,2.0,64.0
1649,80.0,0.0,60.0,1.0,64.0
1650,68.0,0.0,90.0,4.0,64.0
1651,68.0,0.0,360.0,12.0,64.0
1652,56.0,114.0,90.0,3.0,64.0
1653,80.0,6.0,60.0,1.0,64.0
1654,56.0,114.0,90.0,3.0,64.0
1655,68.0,0.0,90.0,4.0,64.0
1656,80.0,0.0,60.0,0.0,64.0
1657,56.0,0.0,90.0,3.0,64.0
1658,80.0,0.0,60.0,0.0,64.0
1659,68.0,42.0,90.0,4.0,64.0
1660,80.0,6.0,60.0,1.0,64.0
1661,67.0,0.0,60.0,12.0,64.0
1662,79.0,57.0,60.0,11.0,64.0
1663,55.0,0.0,60.0,2.0,64.0
1664,55.0,0.0,60.0,13.0,64.0
1665,43.0,0.0,60.0,14.0,64.0
1666,79.0,0.0,60.0,10.0,64.0
1667,53.0,72.0,60.0,2.0,64.0
1668,77.0,0.0,60.0,10.0,64.0
1669,41.0,0.0,60.0,14.0,64.0
1670,65.0,0.0,60.0,12.0,64.0
1671,53.0,0.0,60.0,13.0,64.0
1672,77.0,3.0,60.0,11.0,64.0
1673,75.0,0.0,300.0,10.0,64.0
1674,39.0,12.0,300.0,14.0,64.0
1675,63.0,0.0,300.0,12.0,64.0
1676,51.0,0.0,300.0,13.0,64.0
1677,51.0,0.0,300.0,2.0,64.0
1678,39.0,6.0,180.0,5.0,64.0
1679,51.0,0.0,90.0,3.0,64.0
1680,75.0,0.0,300.0,11.0,64.0
1681,63.0,114.0,90.0,4.0,64.0
1682,75.0,0.0,60.0,1.0,64.0
1683,87.0,6.0,60.0,0.0,64.0
1684,51.0,102.0,90.0,3.0,64.0
1685,63.0,0.0,90.0,4.0,64.0
1686,75.0,0.0,60.0,1.0,64.0
1687,87.0,0.0,60.0,0.0,64.0
1688,63.0,42.0,90.0,4.0,64.0
1689,87.0,0.0,60.0,0.0,64.0
1690,51.0,0.0,90.0,3.0,64.0
1691,75.0,6.0,60.0,1.0,64.0
1692,73.0,0.0,60.0,11.0,64.0
1693,37.0,0.0,60.0,14.0,64.0
1694,49.0,60.0,60.0,13.0,64.0
1695,73.0,0.0,60.0,10.0,64.0
1696,49.0,0.0,60.0,2.0,64.0
1697,61.0,0.0,60.0,12.0,64.0
1698,48.0,0.0,60.0,2.0,64.0
1699,72.0,0.0,60.0,10.0,64.0
1700,36.0,0.0,60.0,14.0,64.0
1701,72.0,0.0,60.0,11.0,64.0
1702,48.0,48.0,60.0,13.0,64.0
1703,60.0,0.0,60.0,12.0,64.0
1704,46.0,156.0,60.0,2.0,64.0
1705,70.0,0.0,40.0,11.0,64.0
1706,58.0,0.0,40.0,12.0,64.0
1707,70.0,12.0,40.0,10.0,64.0
1708,34.0,0.0,40.0,14.0,64.0
1709,46.0,0.0,40.0,13.0,64.0
1710,68.0,0.0,150.0,11.0,64.0
1711,32.0,0.0,150.0,14.0,64.0
1712,44.0,165.0,180.0,5.0,64.0
1713,56.0,0.0,150.0,4.0,64.0
1714,80.0,0.0,150.0,0.0,64.0
1715,68.0,36.0,150.0,1.0,64.0
1716,44.0,0.0,150.0,3.0,64.0
1717,56.0,0.0,150.0,3.0,64.0
1718,44.0,0.0,150.0,2.0,64.0
1719,68.0,0.0,150.0,10.0,64.0
1720,56.0,0.0,150.0,12.0,64.0
1721,44.0,0.0,150.0,13.0,64.0
1722,32.0,0.0,120.0,14.0,64.0
1723,44.0,0.0,120.0,13.0,64.0
1724,44.0,0.0,120.0,3.0,64.0
1725,56.0,0.0,120.0,11.0,64.0
1726,68.0,0.0,120.0,1.0,64.0
1727,56.0,0.0,120.0,10.0,64.0
1728,56.0,0.0,120.0,3.0,64.0
1729,44.0,0.0,120.0,2.0,64.0
1730,56.0,0.0,120.0,12.0,64.0
1731,44.0,27.0,180.0,5.0,64.0
1732,56.0,75.0,120.0,4.0,64.0
1733,80.0,0.0,120.0,0.0,64.0
1734,80.0,213.0,40.0,0.0,64.0
1735,44.0,0.0,40.0,2.0,64.0
1736,56.0,0.0,40.0,10.0,64.0
1737,44.0,0.0,40.0,3.0,64.0
1738,56.0,0.0,40.0,3.0,64.0
1739,56.0,0.0,40.0,12.0,64.0
1740,44.0,0.0,40.0,13.0,64.0
1741,32.0,0.0,40.0,14.0,64.0
1742,56.0,0.0,40.0,11.0,64.0
1743,68.0,0.0,40.0,1.0,64.0
1744,56.0,0.0,40.0,4.0,64.0
1745,56.0,0.0,180.0,3.0,64.0
1746,32.0,348.0,180.0,14.0,64.0
1747,44.0,0.0,180.0,5.0,64.0
1748,56.0,0.0,180.0,11.0,64.0
1749,56.0,0.0,180.0,4.0,64.0
1750,56.0,0.0,180.0,12.0,64.0
1751,44.0,0.0,180.0,2.0,64.0
1752,68.0,0.0,180.0,1.0,64.0
1753,80.0,0.0,180.0,0.0,64.0
1754,56.0,0.0,180.0,10.0,64.0
1755,44.0,0.0,180.0,3.0,64.0
1756,44.0,0.0,180.0,13.0,64.0
1757,56.0,412.0,60.0,6.0,64.0
1758,68.0,68.0,420.0,6.0,64.0
1759,60.0,412.0,60.0,6.0,64.0
1760,72.0,68.0,420.0,6.0,64.0
1761,63.0,60.0,60.0,6.0,64.0
1762,60.0,120.0,120.0,7.0,64.0
1763,56.0,0.0,120.0,7.0,64.0
1764,44.0,0.0,420.0,3.0,64.0
1765,56.0,48.0,420.0,3.0,64.0
1766,75.0,2.0,540.0,6.0,64.0
1767,51.0,120.0,120.0,7.0,64.0
1768,60.0,72.0,120.0,7.0,64.0
1769,56.0,0.0,120.0,7.0,64.0
1770,51.0,118.0,120.0,7.0,64.0
1771,48.0,48.0,420.0,3.0,64.0
1772,60.0,0.0,420.0,3.0,64.0
1773,60.0,60.0,120.0,7.0,64.0
1774,56.0,0.0,120.0,7.0,64.0
1775,51.0,0.0,120.0,7.0,64.0
1776,77.0,60.0,60.0,6.0,64.0
1777,75.0,60.0,60.0,6.0,64.0
1778,56.0,0.0,120.0,7.0,64.0
1779,73.0,60.0,60.0,6.0,64.0
1780,60.0,60.0,120.0,7.0,64.0
1781,72.0,0.0,60.0,6.0,64.0
1782,70.0,12.0,60.0,6.0,64.0
1783,51.0,60.0,120.0,7.0,64.0
1784,68.0,0.0,60.0,6.0,64.0
1785,67.0,60.0,60.0,6.0,64.0
1786,51.0,48.0,180.0,3.0,64.0
1787,63.0,0.0,180.0,3.0,64.0
1788,58.0,0.0,120.0,7.0,64.0
1789,61.0,0.0,120.0,7.0,64.0
1790,70.0,60.0,60.0,6.0,64.0
1791,51.0,0.0,120.0,7.0,64.0
1792,68.0,12.0,60.0,6.0,64.0
1793,72.0,60.0,60.0,6.0,64.0
1794,58.0,0.0,120.0,7.0,64.0
1795,61.0,0.0,120.0,7.0,64.0
1796,70.0,60.0,60.0,6.0,64.0
1797,73.0,60.0,60.0,6.0,64.0
1798,51.0,0.0,120.0,7.0,64.0
1799,72.0,60.0,60.0,6.0,64.0
1800,75.0,60.0,60.0,6.0,64.0
1801,73.0,60.0,60.0,6.0,64.0
1802,58.0,0.0,120.0,7.0,64.0
1803,61.0,60.0,120.0,7.0,64.0
1804,77.0,0.0,60.0,6.0,64.0
1805,75.0,60.0,60.0,6.0,64.0
1806,51.0,60.0,120.0,7.0,64.0
1807,79.0,0.0,60.0,6.0,64.0
1808,77.0,60.0,60.0,6.0,64.0
1809,58.0,60.0,120.0,7.0,64.0
1810,61.0,0.0,120.0,7.0,64.0
1811,80.0,0.0,60.0,6.0,64.0
1812,79.0,60.0,60.0,6.0,64.0
1813,51.0,72.0,120.0,7.0,64.0
1814,82.0,0.0,60.0,6.0,64.0
1815,56.0,48.0,420.0,3.0,64.0
1816,80.0,48.0,60.0,6.0,64.0
1817,56.0,0.0,120.0,7.0,64.0
1818,60.0,72.0,120.0,7.0,64.0
1819,44.0,0.0,420.0,3.0,64.0
1820,51.0,120.0,120.0,7.0,64.0
1821,75.0,48.0,60.0,6.0,64.0
1822,60.0,0.0,120.0,7.0,64.0
1823,56.0,72.0,120.0,7.0,64.0
1824,75.0,24.0,330.0,6.0,64.0
1825,51.0,96.0,120.0,7.0,64.0
1826,56.0,0.0,120.0,7.0,64.0
1827,60.0,60.0,120.0,7.0,64.0
1828,60.0,0.0,420.0,3.0,64.0
1829,48.0,48.0,420.0,3.0,64.0
1830,51.0,60.0,120.0,7.0,64.0
1831,77.0,60.0,60.0,6.0,64.0
1832,75.0,0.0,60.0,6.0,64.0
1833,73.0,60.0,60.0,6.0,64.0
1834,56.0,0.0,120.0,7.0,64.0
1835,60.0,0.0,120.0,7.0,64.0
1836,72.0,60.0,60.0,6.0,64.0
1837,51.0,0.0,120.0,7.0,64.0
1838,70.0,12.0,60.0,6.0,64.0
1839,68.0,60.0,60.0,6.0,64.0
1840,63.0,0.0,180.0,3.0,64.0
1841,51.0,48.0,180.0,3.0,64.0
1842,58.0,60.0,120.0,7.0,64.0
1843,61.0,0.0,120.0,7.0,64.0
1844,67.0,60.0,60.0,6.0,64.0
1845,70.0,0.0,60.0,6.0,64.0
1846,51.0,0.0,120.0,7.0,64.0
1847,68.0,12.0,60.0,6.0,64.0
1848,72.0,60.0,60.0,6.0,64.0
1849,70.0,60.0,60.0,6.0,64.0
1850,61.0,60.0,120.0,7.0,64.0
1851,58.0,0.0,120.0,7.0,64.0
1852,73.0,0.0,60.0,6.0,64.0
1853,72.0,60.0,60.0,6.0,64.0
1854,51.0,60.0,120.0,7.0,64.0
1855,75.0,0.0,60.0,6.0,64.0
1856,58.0,0.0,120.0,7.0,64.0
1857,61.0,0.0,120.0,7.0,64.0
1858,73.0,60.0,60.0,6.0,64.0
1859,77.0,60.0,60.0,6.0,64.0
1860,51.0,0.0,120.0,7.0,64.0
1861,75.0,60.0,60.0,6.0,64.0
1862,79.0,60.0,60.0,6.0,64.0
1863,58.0,60.0,120.0,7.0,64.0
1864,61.0,0.0,120.0,7.0,64.0
1865,77.0,60.0,60.0,6.0,64.0
1866,80.0,0.0,60.0,6.0,64.0
1867,79.0,60.0,60.0,6.0,64.0
1868,51.0,0.0,120.0,7.0,64.0
1869,82.0,60.0,60.0,6.0,64.0
1870,60.0,0.0,180.0,7.0,64.0
1871,56.0,48.0,180.0,7.0,64.0
1872,80.0,60.0,60.0,6.0,64.0
1873,82.0,60.0,60.0,6.0,64.0
1874,84.0,12.0,60.0,6.0,64.0
1875,82.0,60.0,60.0,6.0,64.0
1876,80.0,60.0,60.0,6.0,64.0
1877,79.0,60.0,60.0,6.0,64.0
1878,77.0,60.0,60.0,6.0,64.0
1879,76.0,60.0,60.0,6.0,64.0
1880,49.0,0.0,180.0,7.0,64.0
1881,56.0,48.0,180.0,7.0,64.0
1882,77.0,60.0,60.0,6.0,64.0
1883,79.0,60.0,60.0,6.0,64.0
1884,80.0,12.0,60.0,6.0,64.0
1885,79.0,60.0,60.0,6.0,64.0
1886,77.0,60.0,60.0,6.0,64.0
1887,75.0,60.0,60.0,6.0,64.0
1888,73.0,60.0,60.0,6.0,64.0
1889,72.0,60.0,60.0,6.0,64.0
1890,56.0,0.0,180.0,7.0,64.0
1891,73.0,60.0,60.0,6.0,64.0
1892,53.0,48.0,180.0,7.0,64.0
1893,75.0,60.0,60.0,6.0,64.0
1894,77.0,12.0,60.0,6.0,64.0
1895,75.0,60.0,60.0,6.0,64.0
1896,73.0,60.0,60.0,6.0,64.0
1897,72.0,60.0,60.0,6.0,64.0
1898,70.0,60.0,60.0,6.0,64.0
1899,69.0,60.0,60.0,6.0,64.0
1900,70.0,60.0,60.0,6.0,64.0
1901,49.0,0.0,180.0,7.0,64.0
1902,53.0,48.0,180.0,7.0,64.0
1903,72.0,60.0,60.0,6.0,64.0
1904,73.0,12.0,60.0,6.0,64.0
1905,72.0,60.0,60.0,6.0,64.0
1906,75.0,60.0,60.0,6.0,64.0
1907,73.0,60.0,60.0,6.0,64.0
1908,72.0,60.0,60.0,6.0,64.0
1909,70.0,72.0,60.0,6.0,64.0
1910,60.0,0.0,450.0,7.0,64.0
1911,51.0,144.0,450.0,7.0,64.0
1912,75.0,120.0,60.0,6.0,64.0
1913,74.0,120.0,60.0,6.0,64.0
1914,73.0,120.0,60.0,6.0,64.0
1915,72.0,24.0,60.0,6.0,64.0
1916,51.0,0.0,450.0,7.0,64.0
1917,61.0,216.0,450.0,7.0,64.0
1918,72.0,72.0,120.0,6.0,64.0
1919,70.0,120.0,60.0,6.0,64.0
1920,73.0,120.0,60.0,6.0,64.0
1921,67.0,24.0,60.0,6.0,64.0
1922,56.0,0.0,180.0,7.0,64.0
1923,60.0,0.0,180.0,7.0,64.0
1924,68.0,0.0,180.0,6.0,64.0
1925,67.0,0.0,60.0,10.0,64.0
1926,51.0,120.0,60.0,11.0,64.0
1927,68.0,0.0,60.0,10.0,64.0
1928,53.0,120.0,60.0,11.0,64.0
1929,70.0,120.0,60.0,10.0,64.0
1930,55.0,0.0,60.0,11.0,64.0
1931,56.0,0.0,60.0,11.0,64.0
1932,72.0,120.0,60.0,10.0,64.0
1933,58.0,120.0,60.0,11.0,64.0
1934,73.0,0.0,60.0,10.0,64.0
1935,74.0,0.0,60.0,10.0,64.0
1936,59.0,120.0,60.0,11.0,64.0
1937,60.0,168.0,60.0,11.0,64.0
1938,75.0,0.0,60.0,10.0,64.0
1939,56.0,0.0,180.0,13.0,64.0
1940,63.0,0.0,180.0,12.0,64.0
1941,44.0,0.0,180.0,14.0,64.0
1942,77.0,0.0,120.0,10.0,64.0
1943,61.0,72.0,120.0,11.0,64.0
1944,75.0,120.0,60.0,10.0,64.0
1945,60.0,0.0,60.0,11.0,64.0
1946,73.0,0.0,60.0,10.0,64.0
1947,58.0,120.0,60.0,11.0,64.0
1948,72.0,0.0,60.0,10.0,64.0
1949,56.0,120.0,60.0,11.0,64.0
1950,51.0,0.0,180.0,13.0,64.0
1951,70.0,78.0,60.0,10.0,64.0
1952,55.0,0.0,60.0,11.0,64.0
1953,39.0,48.0,180.0,14.0,64.0
1954,63.0,0.0,180.0,12.0,64.0
1955,72.0,30.0,30.0,10.0,64.0
1956,56.0,0.0,30.0,11.0,64.0
1957,55.0,0.0,30.0,11.0,64.0
1958,70.0,12.0,30.0,10.0,64.0
1959,53.0,72.0,60.0,11.0,64.0
1960,68.0,0.0,60.0,10.0,64.0
1961,70.0,0.0,60.0,10.0,64.0
1962,55.0,120.0,60.0,11.0,64.0
1963,72.0,0.0,60.0,10.0,64.0
1964,51.0,240.0,60.0,11.0,64.0
1965,32.0,0.0,180.0,14.0,64.0
1966,44.0,120.0,180.0,13.0,64.0
1967,60.0,0.0,180.0,12.0,64.0
1968,56.0,0.0,180.0,11.0,64.0
1969,68.0,0.0,180.0,10.0,64.0
1970,67.0,0.0,60.0,1.0,64.0
1971,51.0,0.0,60.0,2.0,64.0
1972,53.0,0.0,60.0,2.0,64.0
1973,68.0,120.0,60.0,1.0,64.0
1974,55.0,120.0,60.0,2.0,64.0
1975,70.0,0.0,60.0,1.0,64.0
1976,56.0,120.0,60.0,2.0,64.0
1977,72.0,0.0,60.0,1.0,64.0
1978,73.0,0.0,60.0,1.0,64.0
1979,58.0,120.0,60.0,2.0,64.0
1980,59.0,120.0,60.0,2.0,64.0
1981,74.0,0.0,60.0,1.0,64.0
1982,75.0,0.0,60.0,1.0,64.0
1983,60.0,168.0,60.0,2.0,64.0
1984,61.0,0.0,120.0,2.0,64.0
1985,56.0,0.0,180.0,13.0,64.0
1986,44.0,0.0,180.0,14.0,64.0
1987,77.0,72.0,120.0,1.0,64.0
1988,75.0,0.0,60.0,1.0,64.0
1989,60.0,120.0,60.0,2.0,64.0
1990,73.0,120.0,60.0,1.0,64.0
1991,58.0,0.0,60.0,2.0,64.0
1992,56.0,0.0,60.0,2.0,64.0
1993,72.0,120.0,60.0,1.0,64.0
1994,70.0,78.0,60.0,1.0,64.0
1995,51.0,0.0,180.0,13.0,64.0
1996,39.0,48.0,180.0,14.0,64.0
1997,55.0,0.0,60.0,2.0,64.0
1998,56.0,30.0,30.0,2.0,64.0
1999,72.0,0.0,30.0,1.0,64.0
2000,70.0,0.0,30.0,1.0,64.0
2001,55.0,12.0,30.0,2.0,64.0
2002,68.0,72.0,60.0,1.0,64.0
2003,53.0,0.0,60.0,2.0,64.0
2004,55.0,0.0,60.0,2.0,64.0
2005,70.0,120.0,60.0,1.0,64.0
2006,51.0,0.0,60.0,2.0,64.0
2007,72.0,240.0,60.0,1.0,64.0
2008,32.0,0.0,180.0,14.0,64.0
2009,56.0,0.0,180.0,2.0,64.0
2010,44.0,0.0,180.0,13.0,64.0
2011,68.0,0.0,180.0,1.0,64.0
2012,67.0,120.0,60.0,6.0,64.0
2013,51.0,0.0,60.0,7.0,64.0
2014,53.0,0.0,60.0,7.0,64.0
2015,68.0,120.0,60.0,6.0,64.0
2016,55.0,120.0,60.0,7.0,64.0
2017,70.0,0.0,60.0,6.0,64.0
2018,56.0,0.0,60.0,7.0,64.0
2019,72.0,120.0,60.0,6.0,64.0
2020,58.0,0.0,60.0,7.0,64.0
2021,73.0,120.0,60.0,6.0,64.0
2022,59.0,0.0,60.0,7.0,64.0
2023,74.0,120.0,60.0,6.0,64.0
2024,75.0,0.0,60.0,6.0,64.0
2025,60.0,168.0,60.0,7.0,64.0
2026,56.0,0.0,450.0,10.0,64.0
2027,77.0,0.0,120.0,6.0,64.0
2028,61.0,72.0,120.0,7.0,64.0
2029,56.0,10.0,960.0,13.0,64.0
2030,56.0,96.0,450.0,11.0,64.0
2031,56.0,0.0,960.0,12.0,64.0
2032,44.0,0.0,960.0,14.0,64.0
2033,75.0,120.0,60.0,6.0,64.0
2034,60.0,0.0,60.0,7.0,64.0
2035,73.0,0.0,60.0,6.0,64.0
2036,58.0,120.0,60.0,7.0,64.0
2037,72.0,24.0,60.0,6.0,64.0
2038,56.0,0.0,60.0,7.0,64.0
2039,72.0,0.0,480.0,10.0,64.0
2040,72.0,48.0,60.0,6.0,64.0
2041,63.0,0.0,480.0,11.0,64.0
2042,56.0,30.0,120.0,7.0,64.0
2043,63.0,72.0,120.0,7.0,64.0
2044,73.0,30.0,30.0,6.0,64.0
2045,72.0,60.0,30.0,6.0,64.0
2046,70.0,0.0,60.0,6.0,64.0
2047,72.0,48.0,60.0,6.0,64.0
2048,60.0,72.0,120.0,7.0,64.0
2049,63.0,120.0,120.0,7.0,64.0
2050,73.0,38.0,60.0,6.0,64.0
2051,60.0,10.0,1440.0,12.0,64.0
2052,70.0,0.0,1440.0,10.0,64.0
2053,55.0,0.0,120.0,7.0,64.0
2054,72.0,120.0,120.0,6.0,64.0
2055,64.0,0.0,960.0,11.0,64.0
2056,55.0,10.0,960.0,13.0,64.0
2057,43.0,0.0,960.0,14.0,64.0
2058,71.0,0.0,120.0,6.0,64.0
2059,64.0,72.0,120.0,7.0,64.0
2060,60.0,72.0,120.0,7.0,64.0
2061,70.0,48.0,60.0,6.0,64.0
2062,70.0,48.0,60.0,6.0,64.0
2063,64.0,120.0,120.0,7.0,64.0
2064,55.0,0.0,120.0,7.0,64.0
2065,70.0,72.0,120.0,6.0,64.0
2066,82.0,48.0,60.0,6.0,64.0
2067,64.0,72.0,120.0,7.0,64.0
2068,60.0,72.0,120.0,7.0,64.0
2069,80.0,48.0,60.0,6.0,64.0
2070,79.0,38.0,60.0,6.0,64.0
2071,64.0,72.0,120.0,7.0,64.0
2072,77.0,48.0,60.0,6.0,64.0
2073,67.0,0.0,480.0,11.0,64.0
2074,48.0,72.0,120.0,7.0,64.0
2075,48.0,10.0,1440.0,13.0,64.0
2076,36.0,0.0,1440.0,14.0,64.0
2077,76.0,48.0,60.0,6.0,64.0
2078,58.0,72.0,120.0,7.0,64.0
2079,55.0,72.0,120.0,7.0,64.0
2080,75.0,48.0,60.0,6.0,64.0
2081,73.0,38.0,60.0,6.0,64.0
2082,58.0,72.0,120.0,7.0,64.0
2083,52.0,0.0,480.0,12.0,64.0
2084,73.0,48.0,60.0,6.0,64.0
2085,48.0,72.0,120.0,7.0,64.0
2086,55.0,0.0,480.0,11.0,64.0
2087,60.0,10.0,480.0,10.0,64.0
2088,72.0,48.0,60.0,6.0,64.0
2089,55.0,72.0,120.0,7.0,64.0
2090,71.0,48.0,60.0,6.0,64.0
2091,52.0,72.0,120.0,7.0,64.0
2092,70.0,38.0,60.0,6.0,64.0
2093,55.0,120.0,120.0,7.0,64.0
2094,70.0,120.0,120.0,6.0,64.0
2095,60.0,0.0,480.0,10.0,64.0
2096,53.0,0.0,480.0,11.0,64.0
2097,53.0,10.0,1440.0,12.0,64.0
2098,48.0,0.0,120.0,7.0,64.0
2099,69.0,0.0,120.0,6.0,64.0
2100,60.0,72.0,120.0,7.0,64.0
2101,53.0,72.0,120.0,7.0,64.0
2102,68.0,48.0,60.0,6.0,64.0
2103,60.0,120.0,120.0,7.0,64.0
2104,68.0,38.0,60.0,6.0,64.0
2105,68.0,0.0,960.0,10.0,64.0
2106,63.0,0.0,480.0,11.0,64.0
2107,47.0,72.0,120.0,7.0,64.0
2108,35.0,10.0,480.0,14.0,64.0
2109,47.0,0.0,480.0,13.0,64.0
2110,68.0,0.0,120.0,6.0,64.0
2111,80.0,48.0,60.0,6.0,64.0
2112,56.0,72.0,120.0,7.0,64.0
2113,78.0,48.0,60.0,6.0,64.0
2114,51.0,72.0,120.0,7.0,64.0
2115,77.0,38.0,60.0,6.0,64.0
2116,56.0,72.0,120.0,7.0,64.0
2117,75.0,48.0,60.0,6.0,64.0
2118,34.0,0.0,1920.0,14.0,64.0
2119,46.0,72.0,120.0,7.0,64.0
2120,46.0,0.0,1920.0,13.0,64.0
2121,62.0,0.0,480.0,11.0,64.0
2122,74.0,48.0,60.0,6.0,64.0
2123,56.0,72.0,120.0,7.0,64.0
2124,73.0,48.0,60.0,6.0,64.0
2125,53.0,72.0,120.0,7.0,64.0
2126,72.0,38.0,60.0,6.0,64.0
2127,56.0,72.0,120.0,7.0,64.0
2128,50.0,10.0,480.0,12.0,64.0
2129,71.0,48.0,60.0,6.0,64.0
2130,53.0,0.0,480.0,11.0,64.0
2131,46.0,72.0,120.0,7.0,64.0
2132,58.0,0.0,960.0,10.0,64.0
2133,53.0,72.0,120.0,7.0,64.0
2134,70.0,48.0,60.0,6.0,64.0
2135,69.0,48.0,60.0,6.0,64.0
2136,50.0,72.0,120.0,7.0,64.0
2137,53.0,120.0,120.0,7.0,64.0
2138,68.0,38.0,60.0,6.0,64.0
2139,51.0,10.0,480.0,12.0,64.0
2140,46.0,0.0,120.0,7.0,64.0
2141,51.0,0.0,480.0,11.0,64.0
2142,68.0,120.0,120.0,6.0,64.0
2143,58.0,0.0,120.0,7.0,64.0
2144,67.0,72.0,120.0,6.0,64.0
2145,66.0,48.0,60.0,6.0,64.0
2146,51.0,72.0,120.0,7.0,64.0
2147,58.0,96.0,120.0,7.0,64.0
2148,66.0,38.0,60.0,6.0,64.0
2149,63.0,0.0,3540.0,11.0,64.0
2150,66.0,6.0,3540.0,10.0,64.0
2151,58.0,8.0,480.0,12.0,64.0
2152,66.0,22.0,90.0,6.0,64.0
2153,46.0,32.0,120.0,7.0,64.0
2154,54.0,2.0,120.0,7.0,64.0
2155,77.0,30.0,30.0,6.0,64.0
2156,75.0,58.0,30.0,6.0,64.0
2157,74.0,72.0,60.0,6.0,64.0
2158,75.0,46.0,60.0,6.0,64.0
2159,51.0,74.0,120.0,7.0,64.0
2160,54.0,120.0,120.0,7.0,64.0
2161,75.0,38.0,60.0,6.0,64.0
2162,47.0,120.0,120.0,7.0,64.0
2163,57.0,118.0,480.0,12.0,64.0
2164,47.0,0.0,480.0,13.0,64.0
2165,78.0,96.0,360.0,6.0,64.0
2166,35.0,0.0,480.0,14.0,64.0
2167,54.0,120.0,120.0,7.0,64.0
2168,51.0,2.0,120.0,7.0,64.0
2169,75.0,22.0,90.0,6.0,64.0
2170,54.0,2.0,120.0,7.0,64.0
2171,34.0,0.0,480.0,14.0,64.0
2172,46.0,118.0,480.0,13.0,64.0
2173,58.0,0.0,480.0,12.0,64.0
2174,46.0,32.0,120.0,7.0,64.0
2175,77.0,30.0,30.0,6.0,64.0
2176,54.0,2.0,120.0,7.0,64.0
2177,75.0,58.0,30.0,6.0,64.0
2178,74.0,72.0,60.0,6.0,64.0
2179,75.0,46.0,60.0,6.0,64.0
2180,51.0,74.0,120.0,7.0,64.0
2181,54.0,2.0,120.0,7.0,64.0
2182,75.0,46.0,60.0,6.0,64.0
2183,78.0,96.0,360.0,6.0,64.0
2184,45.0,120.0,120.0,7.0,64.0
2185,45.0,0.0,480.0,13.0,64.0
2186,60.0,118.0,480.0,12.0,64.0
2187,33.0,0.0,480.0,14.0,64.0
2188,54.0,120.0,120.0,7.0,64.0
2189,51.0,2.0,120.0,7.0,64.0
2190,75.0,22.0,90.0,6.0,64.0
2191,54.0,2.0,120.0,7.0,64.0
2192,34.0,60.0,480.0,14.0,64.0
2193,46.0,32.0,120.0,7.0,64.0
2194,46.0,0.0,480.0,13.0,64.0
2195,58.0,0.0,480.0,12.0,64.0
2196,54.0,2.0,120.0,7.0,64.0
2197,77.0,30.0,30.0,6.0,64.0
2198,75.0,58.0,30.0,6.0,64.0
2199,74.0,72.0,60.0,6.0,64.0
2200,75.0,46.0,60.0,6.0,64.0
2201,51.0,74.0,120.0,7.0,64.0
2202,54.0,2.0,120.0,7.0,64.0
2203,75.0,46.0,60.0,6.0,64.0
2204,47.0,0.0,1140.0,13.0,64.0
2205,57.0,0.0,1140.0,12.0,64.0
2206,51.0,88.0,1440.0,7.0,64.0
2207,47.0,0.0,1440.0,7.0,64.0
2208,78.0,60.0,60.0,6.0,64.0
2209,35.0,0.0,1140.0,14.0,64.0
2210,77.0,60.0,60.0,6.0,64.0
2211,75.0,60.0,60.0,6.0,64.0
2212,74.0,60.0,60.0,6.0,64.0
2213,75.0,60.0,60.0,6.0,64.0
2214,78.0,60.0,60.0,6.0,64.0
2215,77.0,48.0,60.0,6.0,64.0
2216,80.0,72.0,40.0,6.0,64.0
2217,78.0,60.0,60.0,6.0,64.0
2218,77.0,60.0,60.0,6.0,64.0
2219,75.0,60.0,60.0,6.0,64.0
2220,74.0,60.0,60.0,6.0,64.0
2221,75.0,60.0,60.0,6.0,64.0
2222,78.0,60.0,60.0,6.0,64.0
2223,77.0,36.0,60.0,6.0,64.0
2224,80.0,144.0,40.0,6.0,64.0
2225,80.0,72.0,120.0,6.0,64.0
2226,78.0,120.0,90.0,6.0,64.0
2227,77.0,120.0,90.0,6.0,64.0
2228,75.0,32.0,90.0,6.0,64.0
2229,63.0,0.0,480.0,7.0,64.0
2230,59.0,106.0,480.0,7.0,64.0
2231,73.0,120.0,90.0,6.0,64.0
2232,71.0,120.0,90.0,6.0,64.0
2233,70.0,120.0,90.0,6.0,64.0
2234,69.0,32.0,90.0,6.0,64.0
2235,70.0,60.0,240.0,10.0,64.0
2236,62.0,120.0,120.0,7.0,64.0
2237,58.0,0.0,2100.0,13.0,64.0
2238,65.0,0.0,480.0,11.0,64.0
2239,70.0,24.0,90.0,6.0,64.0
2240,62.0,0.0,480.0,12.0,64.0
2241,58.0,0.0,120.0,7.0,64.0
2242,68.0,0.0,240.0,10.0,64.0
2243,70.0,60.0,60.0,6.0,64.0
2244,62.0,60.0,120.0,7.0,64.0
2245,74.0,0.0,60.0,6.0,64.0
2246,77.0,60.0,60.0,6.0,64.0
2247,58.0,96.0,120.0,7.0,64.0
2248,82.0,0.0,60.0,6.0,64.0
2249,63.0,120.0,120.0,7.0,64.0
2250,78.0,24.0,90.0,6.0,64.0
2251,66.0,0.0,240.0,10.0,64.0
2252,63.0,0.0,480.0,12.0,64.0
2253,63.0,96.0,480.0,11.0,64.0
2254,58.0,60.0,120.0,7.0,64.0
2255,63.0,0.0,120.0,7.0,64.0
2256,69.0,12.0,240.0,10.0,64.0
2257,78.0,60.0,60.0,6.0,64.0
2258,75.0,60.0,60.0,6.0,64.0
2259,58.0,0.0,120.0,7.0,64.0
2260,71.0,48.0,60.0,6.0,64.0
2261,69.0,0.0,60.0,6.0,64.0
2262,70.0,24.0,90.0,6.0,64.0
2263,70.0,0.0,240.0,10.0,64.0
2264,65.0,0.0,480.0,11.0,64.0
2265,62.0,120.0,120.0,7.0,64.0
2266,62.0,0.0,480.0,12.0,64.0
2267,58.0,60.0,120.0,7.0,64.0
2268,68.0,0.0,240.0,10.0,64.0
2269,62.0,60.0,120.0,7.0,64.0
2270,70.0,60.0,60.0,6.0,64.0
2271,74.0,0.0,60.0,6.0,64.0
2272,77.0,60.0,60.0,6.0,64.0
2273,58.0,60.0,120.0,7.0,64.0
2274,82.0,0.0,60.0,6.0,64.0
2275,63.0,60.0,480.0,11.0,64.0
2276,63.0,60.0,120.0,7.0,64.0
2277,80.0,60.0,60.0,6.0,64.0
2278,66.0,0.0,240.0,10.0,64.0
2279,63.0,0.0,240.0,12.0,64.0
2280,78.0,0.0,60.0,6.0,64.0
2281,58.0,0.0,120.0,7.0,64.0
2282,77.0,60.0,60.0,6.0,64.0
2283,75.0,60.0,60.0,6.0,64.0
2284,69.0,0.0,240.0,10.0,64.0
2285,73.0,60.0,60.0,6.0,64.0
2286,60.0,0.0,240.0,12.0,64.0
2287,63.0,0.0,120.0,7.0,64.0
2288,71.0,60.0,60.0,6.0,64.0
2289,58.0,0.0,120.0,7.0,64.0
2290,70.0,60.0,60.0,6.0,64.0
2291,69.0,0.0,60.0,6.0,64.0
2292,70.0,0.0,180.0,10.0,64.0
2293,62.0,0.0,180.0,12.0,64.0
2294,70.0,60.0,60.0,6.0,64.0
2295,65.0,48.0,180.0,11.0,64.0
2296,58.0,0.0,180.0,7.0,64.0
2297,62.0,0.0,180.0,7.0,64.0
2298,74.0,60.0,60.0,6.0,64.0
2299,77.0,12.0,60.0,6.0,64.0
2300,82.0,60.0,60.0,6.0,64.0
2301,70.0,60.0,60.0,6.0,64.0
2302,82.0,60.0,60.0,6.0,64.0
2303,70.0,60.0,60.0,6.0,64.0
2304,82.0,48.0,60.0,6.0,64.0
2305,46.0,60.0,40.0,7.0,64.0
2306,70.0,36.0,180.0,6.0,64.0
2307,58.0,60.0,40.0,7.0,64.0
2308,44.0,24.0,40.0,7.0,64.0
2309,56.0,60.0,40.0,7.0,64.0
2310,43.0,60.0,40.0,7.0,64.0
2311,55.0,60.0,40.0,7.0,64.0
2312,41.0,60.0,40.0,7.0,64.0
2313,53.0,84.0,40.0,7.0,64.0
2314,51.0,0.0,2100.0,3.0,64.0
2315,39.0,0.0,2100.0,3.0,64.0
2316,39.0,120.0,180.0,7.0,64.0
2317,51.0,120.0,60.0,2.0,64.0
2318,55.0,0.0,60.0,2.0,64.0
2319,58.0,120.0,60.0,2.0,64.0
2320,55.0,48.0,60.0,2.0,64.0
2321,67.0,72.0,120.0,1.0,64.0
2322,75.0,0.0,120.0,1.0,64.0
2323,70.0,0.0,60.0,1.0,64.0
2324,79.0,0.0,60.0,1.0,64.0
2325,51.0,120.0,60.0,2.0,64.0
2326,79.0,0.0,60.0,1.0,64.0
2327,70.0,0.0,60.0,1.0,64.0
2328,55.0,120.0,60.0,2.0,64.0
2329,58.0,120.0,60.0,2.0,64.0
2330,67.0,0.0,120.0,1.0,64.0
2331,55.0,48.0,60.0,2.0,64.0
2332,75.0,72.0,120.0,1.0,64.0
2333,51.0,0.0,60.0,2.0,64.0
2334,68.0,120.0,60.0,1.0,64.0
2335,72.0,0.0,60.0,1.0,64.0
2336,68.0,0.0,60.0,1.0,64.0
2337,56.0,0.0,60.0,2.0,64.0
2338,72.0,120.0,60.0,1.0,64.0
2339,60.0,120.0,60.0,2.0,64.0
2340,68.0,0.0,120.0,1.0,64.0
2341,56.0,48.0,60.0,2.0,64.0
2342,80.0,72.0,120.0,0.0,64.0
2343,72.0,0.0,120.0,1.0,64.0
2344,51.0,0.0,60.0,2.0,64.0
2345,65.0,0.0,60.0,1.0,64.0
2346,84.0,120.0,60.0,0.0,64.0
2347,74.0,0.0,60.0,1.0,64.0
2348,84.0,0.0,60.0,0.0,64.0
2349,65.0,0.0,60.0,1.0,64.0
2350,74.0,120.0,60.0,1.0,64.0
2351,53.0,0.0,60.0,2.0,64.0
2352,56.0,120.0,60.0,2.0,64.0
2353,65.0,0.0,120.0,1.0,64.0
2354,53.0,48.0,60.0,2.0,64.0
2355,80.0,72.0,120.0,0.0,64.0
2356,74.0,0.0,120.0,1.0,64.0
2357,51.0,120.0,60.0,2.0,64.0
2358,79.0,0.0,60.0,0.0,64.0
2359,67.0,0.0,60.0,1.0,64.0
2360,75.0,0.0,60.0,1.0,64.0
2361,67.0,0.0,60.0,1.0,64.0
2362,79.0,0.0,60.0,0.0,64.0
2363,75.0,0.0,60.0,1.0,64.0
2364,55.0,120.0,60.0,2.0,64.0
2365,58.0,120.0,60.0,2.0,64.0
2366,75.0,72.0,120.0,0.0,64.0
2367,55.0,48.0,60.0,2.0,64.0
2368,63.0,0.0,120.0,1.0,64.0
2369,70.0,0.0,15.0,1.0,64.0
2370,65.0,120.0,60.0,1.0,64.0
2371,74.0,0.0,60.0,0.0,64.0
2372,56.0,0.0,60.0,2.0,64.0
2373,58.0,0.0,1620.0,3.0,64.0
2374,74.0,0.0,60.0,0.0,64.0
2375,58.0,0.0,60.0,2.0,64.0
2376,70.0,0.0,60.0,1.0,64.0
2377,65.0,120.0,60.0,1.0,64.0
2378,55.0,120.0,60.0,2.0,64.0
2379,67.0,0.0,120.0,1.0,64.0
2380,75.0,0.0,120.0,0.0,64.0
2381,58.0,48.0,60.0,2.0,64.0
2382,70.0,72.0,120.0,1.0,64.0
2383,77.0,0.0,60.0,0.0,64.0
2384,53.0,120.0,60.0,2.0,64.0
2385,68.0,0.0,60.0,1.0,64.0
2386,74.0,0.0,60.0,1.0,64.0
2387,74.0,0.0,60.0,1.0,64.0
2388,68.0,0.0,60.0,1.0,64.0
2389,77.0,0.0,60.0,0.0,64.0
2390,58.0,120.0,60.0,2.0,64.0
2391,51.0,120.0,60.0,2.0,64.0
2392,75.0,120.0,60.0,1.0,64.0
2393,79.0,0.0,60.0,0.0,64.0
2394,70.0,0.0,60.0,1.0,64.0
2395,58.0,0.0,60.0,2.0,64.0
2396,50.0,120.0,60.0,2.0,64.0
2397,77.0,120.0,60.0,1.0,64.0
2398,70.0,0.0,60.0,1.0,64.0
2399,80.0,0.0,60.0,0.0,64.0
2400,51.0,120.0,60.0,2.0,64.0
2401,79.0,0.0,60.0,0.0,64.0
2402,75.0,0.0,60.0,1.0,64.0
2403,70.0,120.0,60.0,1.0,64.0
2404,77.0,120.0,60.0,0.0,64.0
2405,70.0,0.0,60.0,1.0,64.0
2406,74.0,0.0,60.0,1.0,64.0
2407,46.0,0.0,180.0,2.0,64.0
2408,77.0,0.0,60.0,0.0,64.0
2409,74.0,288.0,60.0,1.0,64.0
2410,70.0,0.0,60.0,1.0,64.0
2411,70.0,0.0,120.0,11.0,64.0
2412,58.0,0.0,120.0,12.0,64.0
2413,46.0,0.0,120.0,14.0,64.0
2414,70.0,0.0,120.0,10.0,64.0
2415,58.0,120.0,120.0,13.0,64.0
2416,69.0,0.0,120.0,10.0,64.0
2417,45.0,0.0,120.0,14.0,64.0
2418,57.0,0.0,120.0,13.0,64.0
2419,69.0,120.0,120.0,11.0,64.0
2420,57.0,0.0,120.0,12.0,64.0
2421,58.0,120.0,120.0,13.0,64.0
2422,46.0,0.0,120.0,14.0,64.0
2423,70.0,0.0,120.0,10.0,64.0
2424,70.0,0.0,120.0,11.0,64.0
2425,58.0,0.0,120.0,12.0,64.0
2426,68.0,96.0,120.0,11.0,64.0
2427,68.0,0.0,120.0,10.0,64.0
2428,44.0,0.0,120.0,14.0,64.0
2429,56.0,0.0,120.0,12.0,64.0
2430,56.0,0.0,120.0,13.0,64.0
2431,53.0,96.0,90.0,13.0,64.0
2432,65.0,0.0,90.0,11.0,64.0
2433,41.0,0.0,90.0,14.0,64.0
2434,53.0,0.0,90.0,12.0,64.0
2435,65.0,0.0,90.0,10.0,64.0
2436,63.0,0.0,60.0,10.0,64.0
2437,70.0,0.0,960.0,1.0,64.0
2438,67.0,0.0,960.0,1.0,64.0
2439,63.0,0.0,60.0,11.0,64.0
2440,51.0,0.0,60.0,12.0,64.0
2441,51.0,0.0,60.0,13.0,64.0
2442,39.0,48.0,60.0,14.0,64.0
2443,51.0,72.0,120.0,7.0,64.0
2444,58.0,0.0,960.0,2.0,64.0
2445,75.0,0.0,1440.0,0.0,64.0
2446,55.0,0.0,960.0,2.0,64.0
2447,55.0,120.0,120.0,7.0,64.0
2448,63.0,0.0,60.0,10.0,64.0
2449,51.0,48.0,60.0,12.0,64.0
2450,63.0,0.0,60.0,11.0,64.0
2451,39.0,0.0,60.0,14.0,64.0
2452,51.0,0.0,60.0,13.0,64.0
2453,58.0,30.0,120.0,7.0,64.0
2454,77.0,30.0,30.0,6.0,64.0
2455,55.0,0.0,120.0,7.0,64.0
2456,75.0,30.0,30.0,6.0,64.0
2457,77.0,30.0,30.0,6.0,64.0
2458,75.0,72.0,30.0,6.0,64.0
2459,51.0,72.0,120.0,7.0,64.0
2460,79.0,48.0,60.0,6.0,64.0
2461,79.0,48.0,60.0,6.0,64.0
2462,55.0,120.0,120.0,7.0,64.0
2463,58.0,120.0,120.0,7.0,64.0
2464,75.0,0.0,120.0,6.0,64.0
2465,55.0,72.0,120.0,7.0,64.0
2466,60.0,0.0,480.0,2.0,64.0
2467,51.0,72.0,120.0,7.0,64.0
2468,56.0,0.0,960.0,2.0,64.0
2469,68.0,0.0,960.0,1.0,64.0
2470,72.0,0.0,480.0,1.0,64.0
2471,72.0,48.0,60.0,6.0,64.0
2472,56.0,120.0,120.0,7.0,64.0
2473,72.0,48.0,60.0,6.0,64.0
2474,60.0,30.0,120.0,7.0,64.0
2475,82.0,30.0,30.0,6.0,64.0
2476,56.0,72.0,120.0,7.0,64.0
2477,80.0,30.0,30.0,6.0,64.0
2478,82.0,30.0,30.0,6.0,64.0
2479,80.0,0.0,30.0,6.0,64.0
2480,74.0,72.0,480.0,0.0,64.0
2481,84.0,48.0,60.0,6.0,64.0
2482,65.0,0.0,480.0,1.0,64.0
2483,51.0,72.0,120.0,7.0,64.0
2484,53.0,0.0,480.0,2.0,64.0
2485,84.0,48.0,60.0,6.0,64.0
2486,56.0,120.0,120.0,7.0,64.0
2487,62.0,120.0,120.0,7.0,64.0
2488,53.0,0.0,120.0,7.0,64.0
2489,80.0,0.0,120.0,6.0,64.0
2490,79.0,48.0,60.0,6.0,64.0
2491,63.0,0.0,180.0,1.0,64.0
2492,55.0,0.0,180.0,2.0,64.0
2493,51.0,0.0,180.0,2.0,64.0
2494,67.0,0.0,180.0,1.0,64.0
2495,75.0,0.0,180.0,0.0,64.0
2496,51.0,72.0,120.0,7.0,64.0
2497,79.0,48.0,60.0,6.0,64.0
2498,55.0,120.0,120.0,7.0,64.0
2499,63.0,0.0,240.0,10.0,64.0
2500,55.0,0.0,240.0,13.0,64.0
2501,63.0,120.0,120.0,7.0,64.0
2502,51.0,0.0,240.0,12.0,64.0
2503,43.0,0.0,240.0,14.0,64.0
2504,75.0,0.0,120.0,6.0,64.0
2505,55.0,72.0,120.0,7.0,64.0
2506,53.0,0.0,240.0,12.0,64.0
2507,74.0,48.0,60.0,6.0,64.0
2508,56.0,120.0,240.0,13.0,64.0
2509,62.0,0.0,240.0,10.0,64.0
2510,44.0,0.0,240.0,14.0,64.0
2511,56.0,72.0,120.0,7.0,64.0
2512,74.0,48.0,60.0,6.0,64.0
2513,58.0,0.0,120.0,7.0,64.0
2514,43.0,0.0,240.0,14.0,64.0
2515,63.0,72.0,240.0,10.0,64.0
2516,58.0,0.0,15.0,11.0,64.0
2517,55.0,120.0,120.0,7.0,64.0
2518,55.0,0.0,240.0,13.0,64.0
2519,51.0,0.0,240.0,12.0,64.0
2520,58.0,0.0,120.0,7.0,64.0
2521,75.0,0.0,120.0,6.0,64.0
2522,56.0,0.0,240.0,13.0,64.0
2523,53.0,0.0,240.0,12.0,64.0
2524,56.0,72.0,120.0,7.0,64.0
2525,74.0,48.0,60.0,6.0,64.0
2526,62.0,0.0,240.0,10.0,64.0
2527,44.0,0.0,240.0,14.0,64.0
2528,58.0,120.0,120.0,7.0,64.0
2529,74.0,48.0,60.0,6.0,64.0
2530,63.0,0.0,240.0,10.0,64.0
2531,51.0,72.0,240.0,12.0,64.0
2532,43.0,0.0,240.0,14.0,64.0
2533,55.0,0.0,240.0,13.0,64.0
2534,58.0,0.0,240.0,11.0,64.0
2535,55.0,120.0,120.0,7.0,64.0
2536,58.0,0.0,120.0,7.0,64.0
2537,75.0,0.0,120.0,6.0,64.0
2538,41.0,120.0,240.0,14.0,64.0
2539,56.0,0.0,240.0,12.0,64.0
2540,62.0,0.0,240.0,11.0,64.0
2541,53.0,0.0,240.0,13.0,64.0
2542,74.0,0.0,60.0,6.0,64.0
2543,77.0,48.0,60.0,6.0,64.0
2544,65.0,0.0,240.0,10.0,64.0
2545,53.0,72.0,120.0,7.0,64.0
2546,58.0,0.0,120.0,7.0,64.0
2547,77.0,0.0,60.0,6.0,64.0
2548,74.0,48.0,60.0,6.0,64.0
2549,51.0,120.0,120.0,7.0,64.0
2550,55.0,60.0,240.0,12.0,64.0
2551,39.0,0.0,240.0,14.0,64.0
2552,51.0,0.0,240.0,13.0,64.0
2553,63.0,0.0,240.0,11.0,64.0
2554,67.0,0.0,240.0,10.0,64.0
2555,58.0,0.0,120.0,7.0,64.0
2556,75.0,0.0,120.0,6.0,64.0
2557,79.0,0.0,120.0,6.0,64.0
2558,70.0,0.0,60.0,0.0,64.0
2559,68.0,0.0,180.0,10.0,64.0
2560,68.0,0.0,60.0,1.0,64.0
2561,65.0,0.0,60.0,1.0,64.0
2562,38.0,0.0,180.0,14.0,64.0
2563,65.0,0.0,180.0,11.0,64.0
2564,62.0,48.0,60.0,2.0,64.0
2565,80.0,12.0,60.0,6.0,64.0
2566,50.0,0.0,180.0,7.0,64.0
2567,50.0,0.0,180.0,13.0,64.0
2568,58.0,0.0,180.0,12.0,64.0
2569,79.0,60.0,60.0,6.0,64.0
2570,65.0,0.0,60.0,1.0,64.0
2571,62.0,48.0,60.0,2.0,64.0
2572,77.0,12.0,60.0,6.0,64.0
2573,70.0,0.0,60.0,0.0,64.0
2574,68.0,0.0,60.0,1.0,64.0
2575,75.0,60.0,60.0,6.0,64.0
2576,74.0,60.0,60.0,6.0,64.0
2577,72.0,60.0,60.0,6.0,64.0
2578,70.0,12.0,60.0,6.0,64.0
2579,62.0,48.0,60.0,2.0,64.0
2580,65.0,0.0,60.0,1.0,64.0
2581,68.0,0.0,60.0,1.0,64.0
2582,70.0,0.0,60.0,0.0,64.0
2583,68.0,60.0,60.0,6.0,64.0
2584,63.0,0.0,60.0,1.0,64.0
2585,51.0,0.0,180.0,7.0,64.0
2586,58.0,0.0,180.0,12.0,64.0
2587,67.0,0.0,180.0,10.0,64.0
2588,67.0,12.0,60.0,6.0,64.0
2589,70.0,0.0,60.0,0.0,64.0
2590,63.0,48.0,60.0,2.0,64.0
2591,51.0,0.0,180.0,13.0,64.0
2592,67.0,0.0,60.0,1.0,64.0
2593,39.0,0.0,180.0,14.0,64.0
2594,63.0,48.0,180.0,11.0,64.0
2595,68.0,60.0,60.0,6.0,64.0
2596,70.0,0.0,60.0,0.0,64.0
2597,70.0,12.0,60.0,6.0,64.0
2598,67.0,0.0,60.0,1.0,64.0
2599,63.0,0.0,60.0,1.0,64.0
2600,63.0,0.0,60.0,2.0,64.0
2601,72.0,60.0,60.0,6.0,64.0
2602,74.0,60.0,60.0,6.0,64.0
2603,75.0,60.0,60.0,6.0,64.0
2604,63.0,48.0,60.0,2.0,64.0
2605,70.0,0.0,60.0,0.0,64.0
2606,77.0,12.0,60.0,6.0,64.0
2607,63.0,0.0,60.0,1.0,64.0
2608,67.0,0.0,60.0,1.0,64.0
2609,79.0,60.0,60.0,6.0,64.0
2610,38.0,48.0,180.0,14.0,64.0
2611,70.0,0.0,60.0,0.0,64.0
2612,58.0,0.0,180.0,12.0,64.0
2613,68.0,0.0,180.0,10.0,64.0
2614,68.0,0.0,60.0,1.0,64.0
2615,50.0,0.0,180.0,13.0,64.0
2616,65.0,0.0,180.0,11.0,64.0
2617,65.0,0.0,60.0,1.0,64.0
2618,62.0,48.0,60.0,2.0,64.0
2619,50.0,0.0,180.0,7.0,64.0
2620,80.0,12.0,60.0,6.0,64.0
2621,79.0,60.0,60.0,6.0,64.0
2622,70.0,0.0,60.0,0.0,64.0
2623,68.0,0.0,60.0,1.0,64.0
2624,62.0,0.0,60.0,2.0,64.0
2625,65.0,0.0,60.0,1.0,64.0
2626,77.0,12.0,60.0,6.0,64.0
2627,75.0,60.0,60.0,6.0,64.0
2628,74.0,60.0,60.0,6.0,64.0
2629,72.0,60.0,60.0,6.0,64.0
2630,62.0,0.0,60.0,2.0,64.0
2631,68.0,0.0,60.0,1.0,64.0
2632,65.0,0.0,60.0,1.0,64.0
2633,70.0,12.0,60.0,6.0,64.0
2634,70.0,48.0,60.0,0.0,64.0
2635,68.0,60.0,60.0,6.0,64.0
2636,51.0,0.0,180.0,7.0,64.0
2637,63.0,0.0,60.0,1.0,64.0
2638,63.0,0.0,180.0,11.0,64.0
2639,67.0,0.0,180.0,10.0,64.0
2640,63.0,0.0,60.0,2.0,64.0
2641,58.0,0.0,180.0,12.0,64.0
2642,39.0,0.0,180.0,14.0,64.0
2643,67.0,48.0,60.0,1.0,64.0
2644,70.0,0.0,60.0,0.0,64.0
2645,67.0,12.0,60.0,6.0,64.0
2646,51.0,48.0,180.0,13.0,64.0
2647,68.0,60.0,60.0,6.0,64.0
2648,70.0,12.0,60.0,6.0,64.0
2649,63.0,0.0,60.0,1.0,64.0
2650,67.0,0.0,60.0,1.0,64.0
2651,63.0,0.0,60.0,2.0,64.0
2652,70.0,0.0,60.0,0.0,64.0
2653,72.0,60.0,60.0,6.0,64.0
2654,74.0,60.0,60.0,6.0,64.0
2655,75.0,60.0,60.0,6.0,64.0
2656,77.0,12.0,60.0,6.0,64.0
2657,63.0,0.0,60.0,2.0,64.0
2658,79.0,0.0,60.0,0.0,64.0
2659,70.0,0.0,60.0,1.0,64.0
2660,67.0,48.0,60.0,1.0,64.0
2661,79.0,60.0,60.0,6.0,64.0
2662,70.0,48.0,60.0,1.0,64.0
2663,73.0,0.0,60.0,1.0,64.0
2664,63.0,0.0,60.0,2.0,64.0
2665,55.0,0.0,180.0,7.0,64.0
2666,82.0,12.0,60.0,6.0,64.0
2667,55.0,0.0,60.0,2.0,64.0
2668,82.0,0.0,60.0,0.0,64.0
2669,80.0,60.0,60.0,6.0,64.0
2670,79.0,12.0,60.0,6.0,64.0
2671,82.0,0.0,60.0,0.0,64.0
2672,70.0,0.0,60.0,1.0,64.0
2673,55.0,0.0,60.0,2.0,64.0
2674,63.0,48.0,60.0,2.0,64.0
2675,73.0,0.0,60.0,1.0,64.0
2676,77.0,60.0,60.0,6.0,64.0
2677,75.0,60.0,60.0,6.0,64.0
2678,55.0,48.0,180.0,13.0,64.0
2679,70.0,0.0,180.0,11.0,64.0
2680,43.0,0.0,180.0,14.0,64.0
2681,63.0,0.0,180.0,12.0,64.0
2682,73.0,0.0,180.0,10.0,64.0
2683,73.0,60.0,60.0,6.0,64.0
2684,73.0,0.0,60.0,1.0,64.0
2685,70.0,0.0,60.0,1.0,64.0
2686,82.0,0.0,60.0,0.0,64.0
2687,72.0,12.0,60.0,6.0,64.0
2688,55.0,0.0,60.0,2.0,64.0
2689,63.0,0.0,60.0,2.0,64.0
2690,70.0,60.0,60.0,6.0,64.0
2691,56.0,0.0,60.0,2.0,64.0
2692,63.0,48.0,60.0,2.0,64.0
2693,70.0,0.0,60.0,1.0,64.0
2694,82.0,0.0,60.0,0.0,64.0
2695,72.0,12.0,60.0,6.0,64.0
2696,56.0,0.0,180.0,7.0,64.0
2697,72.0,0.0,60.0,1.0,64.0
2698,75.0,60.0,60.0,6.0,64.0
2699,72.0,48.0,60.0,1.0,64.0
2700,82.0,0.0,60.0,0.0,64.0
2701,56.0,0.0,60.0,2.0,64.0
2702,73.0,12.0,60.0,6.0,64.0
2703,63.0,0.0,60.0,2.0,64.0
2704,70.0,0.0,60.0,1.0,64.0
2705,72.0,60.0,60.0,6.0,64.0
2706,63.0,0.0,180.0,12.0,64.0
2707,73.0,60.0,60.0,6.0,64.0
2708,70.0,0.0,180.0,11.0,64.0
2709,72.0,0.0,180.0,10.0,64.0
2710,44.0,0.0,180.0,14.0,64.0
2711,56.0,48.0,180.0,13.0,64.0
2712,75.0,60.0,60.0,6.0,64.0
2713,72.0,0.0,60.0,1.0,64.0
2714,82.0,0.0,60.0,0.0,64.0
2715,77.0,12.0,60.0,6.0,64.0
2716,56.0,0.0,60.0,2.0,64.0
2717,63.0,0.0,60.0,2.0,64.0
2718,70.0,0.0,60.0,1.0,64.0
2719,79.0,60.0,60.0,6.0,64.0
2720,80.0,12.0,60.0,6.0,64.0
2721,80.0,0.0,60.0,0.0,64.0
2722,62.0,48.0,60.0,2.0,64.0
2723,53.0,0.0,60.0,2.0,64.0
2724,53.0,0.0,180.0,7.0,64.0
2725,68.0,0.0,60.0,1.0,64.0
2726,72.0,0.0,60.0,1.0,64.0
2727,82.0,60.0,60.0,6.0,64.0
2728,53.0,0.0,60.0,2.0,64.0
2729,72.0,0.0,60.0,1.0,64.0
2730,80.0,48.0,60.0,0.0,64.0
2731,80.0,12.0,60.0,6.0,64.0
2732,62.0,0.0,60.0,2.0,64.0
2733,68.0,0.0,60.0,1.0,64.0
2734,79.0,60.0,60.0,6.0,64.0
2735,53.0,0.0,180.0,13.0,64.0
2736,77.0,60.0,60.0,6.0,64.0
2737,62.0,0.0,180.0,12.0,64.0
2738,68.0,0.0,180.0,11.0,64.0
2739,72.0,0.0,180.0,10.0,64.0
2740,41.0,0.0,180.0,14.0,64.0
2741,75.0,60.0,60.0,6.0,64.0
2742,74.0,12.0,60.0,6.0,64.0
2743,62.0,0.0,60.0,2.0,64.0
2744,80.0,0.0,60.0,0.0,64.0
2745,72.0,48.0,60.0,1.0,64.0
2746,53.0,0.0,60.0,2.0,64.0
2747,68.0,0.0,60.0,1.0,64.0
2748,72.0,60.0,60.0,6.0,64.0
2749,62.0,0.0,60.0,2.0,64.0
2750,68.0,48.0,60.0,1.0,64.0
2751,71.0,0.0,60.0,1.0,64.0
2752,71.0,12.0,60.0,6.0,64.0
2753,80.0,0.0,60.0,0.0,64.0
2754,55.0,0.0,60.0,2.0,64.0
2755,55.0,0.0,180.0,7.0,64.0
2756,74.0,60.0,60.0,6.0,64.0
2757,55.0,0.0,60.0,2.0,64.0
2758,68.0,0.0,60.0,1.0,64.0
2759,80.0,48.0,60.0,0.0,64.0
2760,62.0,0.0,60.0,2.0,64.0
2761,72.0,12.0,60.0,6.0,64.0
2762,71.0,0.0,60.0,1.0,64.0
2763,71.0,60.0,60.0,6.0,64.0
2764,43.0,0.0,180.0,14.0,64.0
2765,68.0,0.0,180.0,11.0,64.0
2766,55.0,0.0,180.0,13.0,64.0
2767,72.0,60.0,60.0,6.0,64.0
2768,71.0,0.0,180.0,10.0,64.0
2769,62.0,48.0,180.0,12.0,64.0
2770,74.0,60.0,60.0,6.0,64.0
2771,80.0,0.0,60.0,0.0,64.0
2772,62.0,0.0,60.0,2.0,64.0
2773,76.0,12.0,60.0,6.0,64.0
2774,68.0,0.0,60.0,1.0,64.0
2775,55.0,0.0,60.0,2.0,64.0
2776,71.0,0.0,60.0,1.0,64.0
2777,77.0,60.0,60.0,6.0,64.0
2778,67.0,48.0,60.0,1.0,64.0
2779,52.0,0.0,180.0,7.0,64.0
2780,61.0,0.0,60.0,2.0,64.0
2781,79.0,12.0,60.0,6.0,64.0
2782,52.0,0.0,60.0,2.0,64.0
2783,70.0,0.0,60.0,1.0,64.0
2784,79.0,0.0,60.0,0.0,64.0
2785,80.0,60.0,60.0,6.0,64.0
2786,67.0,0.0,60.0,1.0,64.0
2787,79.0,48.0,60.0,0.0,64.0
2788,61.0,0.0,60.0,2.0,64.0
2789,52.0,0.0,60.0,2.0,64.0
2790,70.0,0.0,60.0,1.0,64.0
2791,79.0,12.0,60.0,6.0,64.0
2792,77.0,60.0,60.0,6.0,64.0
2793,40.0,0.0,180.0,14.0,64.0
2794,61.0,0.0,180.0,12.0,64.0
2795,52.0,0.0,180.0,13.0,64.0
2796,76.0,60.0,60.0,6.0,64.0
2797,70.0,0.0,180.0,10.0,64.0
2798,67.0,0.0,180.0,11.0,64.0
2799,73.0,60.0,60.0,6.0,64.0
2800,61.0,0.0,60.0,2.0,64.0
2801,72.0,12.0,60.0,6.0,64.0
2802,79.0,0.0,60.0,0.0,64.0
2803,67.0,0.0,60.0,1.0,64.0
2804,52.0,48.0,60.0,2.0,64.0
2805,70.0,0.0,60.0,1.0,64.0
2806,70.0,60.0,60.0,6.0,64.0
2807,79.0,0.0,60.0,0.0,64.0
2808,53.0,48.0,60.0,2.0,64.0
2809,60.0,0.0,60.0,2.0,64.0
2810,53.0,0.0,180.0,7.0,64.0
2811,69.0,0.0,60.0,1.0,64.0
2812,69.0,12.0,60.0,6.0,64.0
2813,67.0,0.0,60.0,1.0,64.0
2814,72.0,60.0,60.0,6.0,64.0
2815,53.0,0.0,60.0,2.0,64.0
2816,69.0,0.0,60.0,1.0,64.0
2817,70.0,12.0,60.0,6.0,64.0
2818,60.0,0.0,60.0,2.0,64.0
2819,79.0,0.0,60.0,0.0,64.0
2820,67.0,48.0,60.0,1.0,64.0
2821,69.0,60.0,60.0,6.0,64.0
2822,60.0,0.0,180.0,12.0,64.0
2823,53.0,0.0,180.0,13.0,64.0
2824,67.0,0.0,180.0,11.0,64.0
2825,69.0,48.0,180.0,10.0,64.0
2826,41.0,0.0,180.0,14.0,64.0
2827,70.0,60.0,60.0,6.0,64.0
2828,72.0,60.0,60.0,6.0,64.0
2829,60.0,0.0,60.0,2.0,64.0
2830,74.0,12.0,60.0,6.0,64.0
2831,53.0,0.0,60.0,2.0,64.0
2832,79.0,0.0,60.0,0.0,64.0
2833,67.0,0.0,60.0,1.0,64.0
2834,69.0,0.0,60.0,1.0,64.0
2835,75.0,48.0,60.0,6.0,64.0
2836,77.0,24.0,40.0,6.0,64.0
2837,50.0,47.0,180.0,7.0,64.0
2838,58.0,0.0,60.0,2.0,64.0
2839,68.0,0.0,60.0,1.0,64.0
2840,49.0,0.0,60.0,2.0,64.0
2841,77.0,47.0,60.0,0.0,64.0
2842,65.0,0.0,60.0,1.0,64.0
2843,79.0,60.0,60.0,6.0,64.0
2844,58.0,0.0,60.0,2.0,64.0
2845,77.0,13.0,60.0,6.0,64.0
2846,77.0,0.0,60.0,0.0,64.0
2847,68.0,0.0,60.0,1.0,64.0
2848,65.0,0.0,60.0,1.0,64.0
2849,49.0,0.0,60.0,2.0,64.0
2850,75.0,60.0,60.0,6.0,64.0
2851,50.0,0.0,180.0,13.0,64.0
2852,68.0,0.0,180.0,10.0,64.0
2853,65.0,0.0,180.0,11.0,64.0
2854,38.0,47.0,180.0,14.0,64.0
2855,74.0,60.0,60.0,6.0,64.0
2856,59.0,0.0,180.0,12.0,64.0
2857,72.0,60.0,60.0,6.0,64.0
2858,68.0,0.0,60.0,1.0,64.0
2859,65.0,0.0,60.0,1.0,64.0
2860,49.0,0.0,60.0,2.0,64.0
2861,58.0,0.0,60.0,2.0,64.0
2862,77.0,0.0,60.0,0.0,64.0
2863,70.0,13.0,60.0,6.0,64.0
2864,68.0,60.0,60.0,6.0,64.0
2865,67.0,0.0,60.0,1.0,64.0
2866,65.0,0.0,60.0,1.0,64.0
2867,62.0,0.0,60.0,2.0,64.0
2868,47.0,47.0,60.0,2.0,64.0
2869,77.0,0.0,60.0,0.0,64.0
2870,67.0,13.0,60.0,6.0,64.0
2871,47.0,47.0,180.0,7.0,64.0
2872,71.0,60.0,60.0,6.0,64.0
2873,62.0,0.0,60.0,2.0,64.0
2874,47.0,0.0,60.0,2.0,64.0
2875,65.0,0.0,60.0,1.0,64.0
2876,77.0,0.0,60.0,0.0,64.0
2877,69.0,13.0,60.0,6.0,64.0
2878,67.0,0.0,60.0,1.0,64.0
2879,67.0,60.0,60.0,6.0,64.0
2880,47.0,0.0,180.0,13.0,64.0
2881,35.0,47.0,180.0,14.0,64.0
2882,65.0,0.0,180.0,11.0,64.0
2883,67.0,0.0,180.0,10.0,64.0
2884,62.0,0.0,180.0,12.0,64.0
2885,69.0,60.0,60.0,6.0,64.0
2886,71.0,60.0,60.0,6.0,64.0
2887,62.0,0.0,60.0,2.0,64.0
2888,77.0,0.0,60.0,0.0,64.0
2889,65.0,0.0,60.0,1.0,64.0
2890,67.0,0.0,60.0,1.0,64.0
2891,72.0,13.0,60.0,6.0,64.0
2892,47.0,0.0,60.0,2.0,64.0
2893,74.0,60.0,60.0,6.0,64.0
2894,75.0,47.0,60.0,0.0,64.0
2895,48.0,47.0,180.0,7.0,64.0
2896,75.0,13.0,60.0,6.0,64.0
2897,48.0,0.0,60.0,2.0,64.0
2898,60.0,0.0,60.0,2.0,64.0
2899,63.0,0.0,60.0,1.0,64.0
2900,67.0,0.0,60.0,1.0,64.0
2901,77.0,60.0,60.0,6.0,64.0
2902,63.0,0.0,60.0,1.0,64.0
2903,67.0,0.0,60.0,1.0,64.0
2904,60.0,0.0,60.0,2.0,64.0
2905,75.0,0.0,60.0,0.0,64.0
2906,75.0,13.0,60.0,6.0,64.0
2907,48.0,0.0,60.0,2.0,64.0
2908,74.0,60.0,60.0,6.0,64.0
2909,72.0,60.0,60.0,6.0,64.0
2910,60.0,0.0,180.0,12.0,64.0
2911,48.0,0.0,180.0,13.0,64.0
2912,67.0,0.0,180.0,10.0,64.0
2913,63.0,0.0,180.0,11.0,64.0
2914,36.0,0.0,180.0,14.0,64.0
2915,70.0,60.0,60.0,6.0,64.0
2916,68.0,13.0,60.0,6.0,64.0
2917,67.0,0.0,60.0,1.0,64.0
2918,63.0,47.0,60.0,1.0,64.0
2919,75.0,0.0,60.0,0.0,64.0
2920,60.0,0.0,60.0,2.0,64.0
2921,48.0,0.0,60.0,2.0,64.0
2922,67.0,60.0,60.0,6.0,64.0
2923,48.0,14.0,930.0,7.0,64.0
2924,44.0,0.0,930.0,7.0,64.0
2925,53.0,0.0,930.0,7.0,64.0
2926,65.0,0.0,180.0,0.0,64.0
2927,63.0,47.0,180.0,1.0,64.0
2928,65.0,0.0,180.0,1.0,64.0
2929,44.0,0.0,1620.0,13.0,64.0
2930,32.0,24.0,1620.0,14.0,64.0
2931,63.0,0.0,960.0,11.0,64.0
2932,56.0,0.0,180.0,2.0,64.0
2933,60.0,0.0,180.0,2.0,64.0
2934,65.0,0.0,1620.0,10.0,64.0
2935,65.0,60.0,60.0,6.0,64.0
2936,60.0,9.0,960.0,12.0,64.0
2937,60.0,60.0,60.0,6.0,64.0
2938,62.0,13.0,60.0,6.0,64.0
2939,64.0,60.0,60.0,6.0,64.0
2940,65.0,60.0,60.0,6.0,64.0
2941,67.0,60.0,60.0,6.0,64.0
2942,68.0,60.0,60.0,6.0,64.0
2943,70.0,60.0,60.0,6.0,64.0
2944,72.0,60.0,60.0,6.0,64.0
2945,74.0,60.0,60.0,6.0,64.0
2946,76.0,60.0,60.0,6.0,64.0
2947,77.0,60.0,60.0,6.0,64.0
2948,79.0,60.0,60.0,6.0,64.0
2949,80.0,60.0,60.0,6.0,64.0
2950,82.0,37.0,60.0,6.0,64.0
2951,84.0,97.0,60.0,6.0,64.0
2952,53.0,0.0,660.0,7.0,64.0
2953,50.0,0.0,660.0,7.0,64.0
2954,44.0,0.0,660.0,7.0,64.0
2955,46.0,0.0,660.0,7.0,64.0
2956,62.0,0.0,660.0,11.0,64.0
2957,58.0,0.0,660.0,12.0,64.0
2958,74.0,120.0,90.0,6.0,64.0
2959,62.0,0.0,90.0,6.0,64.0
2960,63.0,120.0,90.0,6.0,64.0
2961,75.0,0.0,90.0,6.0,64.0
2962,65.0,0.0,90.0,6.0,64.0
2963,77.0,120.0,90.0,6.0,64.0
2964,79.0,0.0,90.0,6.0,64.0
2965,67.0,120.0,90.0,6.0,64.0
2966,68.0,96.0,90.0,6.0,64.0
2967,80.0,0.0,90.0,6.0,64.0
2968,82.0,120.0,90.0,6.0,64.0
2969,70.0,0.0,90.0,6.0,64.0
2970,84.0,144.0,90.0,6.0,64.0
2971,72.0,0.0,90.0,6.0,64.0
2972,74.0,60.0,60.0,6.0,64.0
2973,77.0,60.0,60.0,6.0,64.0
2974,55.0,48.0,180.0,7.0,64.0
2975,75.0,60.0,60.0,6.0,64.0
2976,74.0,12.0,60.0,6.0,64.0
2977,75.0,60.0,60.0,6.0,64.0
2978,56.0,48.0,180.0,7.0,64.0
2979,74.0,60.0,60.0,6.0,64.0
2980,72.0,60.0,60.0,6.0,64.0
2981,70.0,12.0,60.0,6.0,64.0
2982,68.0,60.0,60.0,6.0,64.0
2983,58.0,36.0,180.0,7.0,64.0
2984,67.0,60.0,60.0,6.0,64.0
2985,68.0,60.0,60.0,6.0,64.0
2986,69.0,12.0,60.0,6.0,64.0
2987,70.0,72.0,40.0,6.0,64.0
2988,70.0,60.0,60.0,6.0,64.0
2989,46.0,36.0,180.0,7.0,64.0
2990,68.0,60.0,60.0,6.0,64.0
2991,67.0,12.0,60.0,6.0,64.0
2992,65.0,72.0,40.0,6.0,64.0
2993,65.0,60.0,60.0,6.0,64.0
2994,53.0,0.0,930.0,7.0,64.0
2995,51.0,0.0,930.0,7.0,64.0
2996,33.0,10.0,960.0,14.0,64.0
2997,45.0,14.0,930.0,7.0,64.0
2998,48.0,0.0,930.0,7.0,64.0
2999,45.0,0.0,960.0,13.0,64.0
3000,65.0,0.0,1620.0,10.0,64.0
3001,60.0,0.0,960.0,12.0,64.0
3002,63.0,0.0,960.0,11.0,64.0
3003,60.0,60.0,60.0,6.0,64.0
3004,62.0,60.0,60.0,6.0,64.0
3005,64.0,60.0,60.0,6.0,64.0
3006,65.0,60.0,60.0,6.0,64.0
3007,67.0,60.0,60.0,6.0,64.0
3008,69.0,60.0,60.0,6.0,64.0
3009,70.0,60.0,60.0,6.0,64.0
3010,72.0,60.0,60.0,6.0,64.0
3011,74.0,60.0,60.0,6.0,64.0
3012,76.0,60.0,60.0,6.0,64.0
3013,77.0,60.0,60.0,6.0,64.0
3014,79.0,60.0,60.0,6.0,64.0
3015,81.0,60.0,60.0,6.0,64.0
3016,82.0,36.0,60.0,6.0,64.0
3017,84.0,96.0,60.0,6.0,64.0
3018,62.0,120.0,90.0,6.0,64.0
3019,74.0,0.0,90.0,6.0,64.0
3020,59.0,0.0,660.0,12.0,64.0
3021,50.0,0.0,660.0,7.0,64.0
3022,53.0,0.0,660.0,7.0,64.0
3023,44.0,0.0,660.0,7.0,64.0
3024,62.0,24.0,660.0,11.0,64.0
3025,32.0,0.0,660.0,14.0,64.0
3026,44.0,0.0,660.0,13.0,64.0
3027,47.0,0.0,660.0,7.0,64.0
3028,63.0,0.0,90.0,6.0,64.0
3029,75.0,120.0,90.0,6.0,64.0
3030,65.0,120.0,90.0,6.0,64.0
3031,77.0,0.0,90.0,6.0,64.0
3032,78.0,0.0,90.0,6.0,64.0
3033,66.0,120.0,90.0,6.0,64.0
3034,68.0,96.0,90.0,6.0,64.0
3035,80.0,0.0,90.0,6.0,64.0
3036,70.0,0.0,90.0,6.0,64.0
3037,82.0,120.0,90.0,6.0,64.0
3038,83.0,0.0,90.0,6.0,64.0
3039,71.0,132.0,90.0,6.0,64.0
3040,74.0,72.0,40.0,6.0,64.0
3041,67.0,48.0,60.0,11.0,64.0
3042,55.0,0.0,180.0,7.0,64.0
3043,70.0,0.0,60.0,10.0,64.0
3044,43.0,0.0,180.0,13.0,64.0
3045,75.0,12.0,60.0,6.0,64.0
3046,31.0,0.0,180.0,14.0,64.0
3047,58.0,0.0,60.0,12.0,64.0
3048,79.0,60.0,60.0,6.0,64.0
3049,58.0,48.0,60.0,12.0,64.0
3050,70.0,0.0,60.0,10.0,64.0
3051,75.0,12.0,60.0,6.0,64.0
3052,67.0,0.0,60.0,11.0,64.0
3053,70.0,60.0,60.0,6.0,64.0
3054,56.0,0.0,180.0,7.0,64.0
3055,65.0,48.0,60.0,11.0,64.0
3056,44.0,0.0,180.0,13.0,64.0
3057,60.0,0.0,60.0,12.0,64.0
3058,68.0,0.0,60.0,10.0,64.0
3059,32.0,0.0,180.0,14.0,64.0
3060,72.0,12.0,60.0,6.0,64.0
3061,75.0,60.0,60.0,6.0,64.0
3062,65.0,0.0,60.0,11.0,64.0
3063,60.0,48.0,60.0,12.0,64.0
3064,68.0,0.0,60.0,10.0,64.0
3065,72.0,12.0,60.0,6.0,64.0
3066,68.0,60.0,60.0,6.0,64.0
3067,67.0,48.0,60.0,10.0,64.0
3068,58.0,0.0,60.0,12.0,64.0
3069,63.0,0.0,60.0,11.0,64.0
3070,46.0,0.0,180.0,13.0,64.0
3071,58.0,0.0,180.0,7.0,64.0
3072,34.0,0.0,180.0,14.0,64.0
3073,67.0,12.0,60.0,6.0,64.0
3074,70.0,60.0,60.0,6.0,64.0
3075,63.0,48.0,60.0,11.0,64.0
3076,67.0,0.0,60.0,10.0,64.0
3077,67.0,12.0,60.0,6.0,64.0
3078,58.0,0.0,60.0,12.0,64.0
3079,63.0,60.0,60.0,6.0,64.0
3080,34.0,0.0,180.0,14.0,64.0
3081,46.0,48.0,180.0,7.0,64.0
3082,56.0,0.0,60.0,12.0,64.0
3083,46.0,0.0,180.0,13.0,64.0
3084,65.0,48.0,60.0,10.0,64.0
3085,65.0,12.0,60.0,6.0,64.0
3086,62.0,0.0,60.0,11.0,64.0
3087,68.0,60.0,60.0,6.0,64.0
3088,62.0,0.0,60.0,11.0,64.0
3089,56.0,0.0,60.0,12.0,64.0
3090,65.0,0.0,60.0,10.0,64.0
3091,65.0,12.0,60.0,6.0,64.0
3092,62.0,192.0,60.0,6.0,64.0
3093,51.0,0.0,180.0,7.0,64.0
3094,39.0,0.0,180.0,13.0,64.0
3095,27.0,0.0,180.0,14.0,64.0
3096,63.0,0.0,180.0,11.0,64.0
3097,55.0,528.0,180.0,12.0,64.0
3098,63.0,0.0,180.0,6.0,64.0
3099,63.0,0.0,180.0,10.0,64.0
3100,72.0,0.0,240.0,6.0,64.0
3101,63.0,0.0,240.0,7.0,64.0
3102,57.0,96.0,240.0,7.0,64.0
3103,65.0,384.0,90.0,6.0,64.0
3104,62.0,0.0,90.0,7.0,64.0
3105,56.0,0.0,90.0,7.0,64.0
3106,55.0,0.0,240.0,7.0,64.0
3107,63.0,96.0,240.0,7.0,64.0
3108,70.0,0.0,240.0,6.0,64.0
3109,58.0,0.0,90.0,7.0,64.0
3110,75.0,0.0,90.0,6.0,64.0
3111,55.0,384.0,90.0,7.0,64.0
3112,57.0,0.0,240.0,7.0,64.0
3113,63.0,0.0,240.0,7.0,64.0
3114,72.0,96.0,240.0,6.0,64.0
3115,62.0,0.0,90.0,7.0,64.0
3116,56.0,0.0,90.0,7.0,64.0
3117,65.0,384.0,90.0,6.0,64.0
3118,63.0,0.0,240.0,7.0,64.0
3119,70.0,96.0,240.0,6.0,64.0
3120,55.0,0.0,15.0,7.0,64.0
3121,58.0,0.0,90.0,7.0,64.0
3122,75.0,0.0,90.0,6.0,64.0
3123,63.0,0.0,240.0,7.0,64.0
3124,57.0,96.0,240.0,7.0,64.0
3125,72.0,0.0,240.0,6.0,64.0
3126,56.0,264.0,90.0,7.0,64.0
3127,65.0,0.0,90.0,6.0,64.0
3128,62.0,0.0,90.0,7.0,64.0
3129,63.0,0.0,150.0,7.0,64.0
3130,70.0,24.0,120.0,6.0,64.0
3131,55.0,12.0,150.0,7.0,64.0
3132,75.0,204.0,40.0,6.0,64.0
3133,72.0,24.0,120.0,6.0,64.0
3134,56.0,12.0,150.0,7.0,64.0
3135,63.0,0.0,150.0,7.0,64.0
3136,68.0,204.0,40.0,6.0,64.0
3137,67.0,120.0,120.0,6.0,64.0
3138,63.0,0.0,240.0,7.0,64.0
3139,70.0,0.0,120.0,6.0,64.0
3140,58.0,120.0,15.0,7.0,64.0
3141,65.0,120.0,120.0,6.0,64.0
3142,62.0,240.0,240.0,7.0,64.0
3143,70.0,0.0,120.0,6.0,64.0
3144,62.0,96.0,240.0,6.0,64.0
3145,51.0,256.0,390.0,7.0,64.0
3146,65.0,0.0,240.0,6.0,64.0
3147,68.0,0.0,240.0,6.0,64.0
3148,63.0,0.0,90.0,6.0,64.0
3149,67.0,48.0,90.0,6.0,64.0
3150,57.0,0.0,240.0,2.0,64.0
3151,45.0,0.0,240.0,2.0,64.0
3152,72.0,0.0,240.0,1.0,64.0
3153,84.0,0.0,240.0,0.0,64.0
3154,63.0,0.0,240.0,1.0,64.0
3155,77.0,80.0,90.0,6.0,64.0
3156,76.0,80.0,90.0,6.0,64.0
3157,62.0,0.0,90.0,1.0,64.0
3158,65.0,0.0,90.0,1.0,64.0
3159,77.0,0.0,90.0,0.0,64.0
3160,56.0,64.0,90.0,2.0,64.0
3161,44.0,0.0,90.0,2.0,64.0
3162,77.0,16.0,90.0,6.0,64.0
3163,74.0,80.0,90.0,6.0,64.0
3164,70.0,160.0,90.0,6.0,64.0
3165,63.0,0.0,240.0,1.0,64.0
3166,82.0,0.0,240.0,0.0,64.0
3167,55.0,0.0,300.0,2.0,64.0
3168,43.0,32.0,300.0,2.0,64.0
3169,70.0,48.0,240.0,1.0,64.0
3170,75.0,80.0,90.0,6.0,64.0
3171,74.0,0.0,90.0,6.0,64.0
3172,87.0,64.0,90.0,0.0,64.0
3173,75.0,16.0,90.0,6.0,64.0
3174,58.0,0.0,90.0,1.0,64.0
3175,75.0,0.0,90.0,1.0,64.0
3176,79.0,80.0,90.0,6.0,64.0
3177,82.0,160.0,90.0,6.0,64.0
3178,72.0,0.0,240.0,1.0,64.0
3179,84.0,0.0,240.0,0.0,64.0
3180,57.0,80.0,240.0,2.0,64.0
3181,45.0,0.0,240.0,2.0,64.0
3182,63.0,0.0,240.0,1.0,64.0
3183,77.0,80.0,90.0,6.0,64.0
3184,76.0,0.0,90.0,6.0,64.0
3185,77.0,64.0,90.0,0.0,64.0
3186,65.0,0.0,90.0,1.0,64.0
3187,44.0,0.0,90.0,2.0,64.0
3188,56.0,0.0,90.0,2.0,64.0
3189,77.0,16.0,90.0,6.0,64.0
3190,62.0,0.0,90.0,1.0,64.0
3191,74.0,80.0,90.0,6.0,64.0
3192,70.0,160.0,90.0,6.0,64.0
3193,55.0,32.0,300.0,2.0,64.0
3194,82.0,0.0,240.0,0.0,64.0
3195,70.0,0.0,240.0,1.0,64.0
3196,43.0,0.0,300.0,2.0,64.0
3197,63.0,48.0,240.0,1.0,64.0
3198,75.0,80.0,90.0,6.0,64.0
3199,74.0,0.0,90.0,6.0,64.0
3200,75.0,16.0,90.0,6.0,64.0
3201,87.0,0.0,90.0,0.0,64.0
3202,58.0,0.0,90.0,1.0,64.0
3203,75.0,64.0,90.0,1.0,64.0
3204,79.0,80.0,90.0,6.0,64.0
3205,82.0,160.0,90.0,6.0,64.0
3206,63.0,0.0,240.0,1.0,64.0
3207,45.0,80.0,240.0,2.0,64.0
3208,57.0,0.0,240.0,2.0,64.0
3209,84.0,0.0,240.0,0.0,64.0
3210,72.0,0.0,240.0,1.0,64.0
3211,77.0,80.0,90.0,6.0,64.0
3212,76.0,0.0,90.0,6.0,64.0
3213,77.0,0.0,90.0,0.0,64.0
3214,56.0,0.0,90.0,2.0,64.0
3215,62.0,0.0,90.0,1.0,64.0
3216,44.0,0.0,90.0,2.0,64.0
3217,77.0,16.0,90.0,6.0,64.0
3218,65.0,64.0,90.0,1.0,64.0
3219,74.0,80.0,90.0,6.0,64.0
3220,70.0,80.0,90.0,6.0,64.0
3221,67.0,48.0,180.0,1.0,64.0
3222,70.0,0.0,240.0,1.0,64.0
3223,55.0,0.0,240.0,2.0,64.0
3224,43.0,0.0,240.0,2.0,64.0
3225,55.0,0.0,240.0,7.0,64.0
3226,75.0,80.0,90.0,6.0,64.0
3227,82.0,0.0,240.0,0.0,64.0
3228,79.0,32.0,90.0,6.0,64.0
3229,70.0,80.0,90.0,6.0,64.0
3230,68.0,0.0,240.0,1.0,64.0
3231,80.0,0.0,240.0,0.0,64.0
3232,56.0,80.0,240.0,2.0,64.0
3233,44.0,0.0,240.0,2.0,64.0
3234,65.0,48.0,180.0,1.0,64.0
3235,72.0,80.0,90.0,6.0,64.0
3236,56.0,0.0,240.0,7.0,64.0
3237,75.0,32.0,90.0,6.0,64.0
3238,68.0,0.0,90.0,6.0,64.0
3239,67.0,0.0,240.0,1.0,64.0
3240,67.0,80.0,90.0,6.0,64.0
3241,79.0,0.0,240.0,0.0,64.0
3242,58.0,0.0,240.0,2.0,64.0
3243,58.0,80.0,240.0,7.0,64.0
3244,63.0,48.0,180.0,1.0,64.0
3245,46.0,0.0,480.0,2.0,64.0
3246,70.0,32.0,90.0,6.0,64.0
3247,63.0,0.0,90.0,6.0,64.0
3248,77.0,0.0,240.0,0.0,64.0
3249,65.0,0.0,240.0,1.0,64.0
3250,65.0,80.0,90.0,6.0,64.0
3251,46.0,0.0,240.0,7.0,64.0
3252,62.0,48.0,180.0,1.0,64.0
3253,68.0,32.0,90.0,6.0,64.0
3254,62.0,120.0,90.0,6.0,64.0
3255,51.0,0.0,180.0,7.0,64.0
3256,75.0,0.0,180.0,0.0,64.0
3257,63.0,0.0,180.0,1.0,64.0
3258,51.0,120.0,570.0,13.0,64.0
3259,51.0,48.0,180.0,2.0,64.0
3260,67.0,0.0,570.0,11.0,64.0
3261,75.0,0.0,570.0,10.0,64.0
3262,63.0,60.0,120.0,6.0,64.0
3263,39.0,0.0,570.0,14.0,64.0
3264,58.0,0.0,570.0,12.0,64.0
3265,65.0,12.0,60.0,6.0,64.0
3266,67.0,60.0,60.0,6.0,64.0
3267,68.0,60.0,60.0,6.0,64.0
3268,70.0,60.0,60.0,6.0,64.0
3269,72.0,60.0,60.0,6.0,64.0
3270,74.0,78.0,60.0,6.0,64.0
3271,75.0,78.0,240.0,6.0,64.0
3272,58.0,0.0,90.0,12.0,64.0
3273,51.0,0.0,90.0,13.0,64.0
3274,75.0,42.0,90.0,10.0,64.0
3275,67.0,0.0,90.0,11.0,64.0
3276,39.0,0.0,90.0,14.0,64.0
3277,58.0,0.0,90.0,12.0,64.0
3278,39.0,0.0,90.0,14.0,64.0
3279,51.0,0.0,90.0,13.0,64.0
3280,75.0,0.0,90.0,10.0,64.0
3281,67.0,120.0,90.0,11.0,64.0
3282,58.0,0.0,90.0,12.0,64.0
3283,39.0,0.0,90.0,14.0,64.0
3284,51.0,162.0,90.0,13.0,64.0
3285,75.0,0.0,90.0,10.0,64.0
3286,67.0,0.0,90.0,11.0,64.0
3287,58.0,120.0,570.0,12.0,64.0
3288,74.0,0.0,570.0,10.0,64.0
3289,65.0,60.0,120.0,6.0,64.0
3290,68.0,0.0,570.0,11.0,64.0
3291,51.0,0.0,570.0,13.0,64.0
3292,51.0,48.0,180.0,7.0,64.0
3293,39.0,0.0,570.0,14.0,64.0
3294,67.0,12.0,60.0,6.0,64.0
3295,68.0,60.0,60.0,6.0,64.0
3296,70.0,60.0,60.0,6.0,64.0
3297,72.0,60.0,60.0,6.0,64.0
3298,74.0,60.0,60.0,6.0,64.0
3299,75.0,78.0,60.0,6.0,64.0
3300,77.0,78.0,240.0,6.0,64.0
3301,39.0,0.0,90.0,14.0,64.0
3302,58.0,42.0,90.0,12.0,64.0
3303,74.0,0.0,90.0,10.0,64.0
3304,68.0,0.0,90.0,11.0,64.0
3305,51.0,0.0,90.0,13.0,64.0
3306,74.0,0.0,90.0,10.0,64.0
3307,68.0,0.0,90.0,11.0,64.0
3308,51.0,0.0,90.0,13.0,64.0
3309,58.0,0.0,90.0,12.0,64.0
3310,39.0,120.0,90.0,14.0,64.0
3311,68.0,0.0,90.0,11.0,64.0
3312,58.0,0.0,90.0,12.0,64.0
3313,74.0,102.0,90.0,10.0,64.0
3314,51.0,0.0,90.0,13.0,64.0
3315,39.0,0.0,90.0,14.0,64.0
3316,67.0,60.0,60.0,6.0,64.0
3317,51.0,36.0,1830.0,13.0,64.0
3318,67.0,0.0,480.0,11.0,64.0
3319,73.0,0.0,480.0,10.0,64.0
3320,39.0,0.0,1830.0,14.0,64.0
3321,58.0,0.0,480.0,12.0,64.0
3322,61.0,60.0,480.0,7.0,64.0
3323,68.0,60.0,60.0,6.0,64.0
3324,70.0,60.0,60.0,6.0,64.0
3325,72.0,60.0,60.0,6.0,64.0
3326,73.0,60.0,60.0,6.0,64.0
3327,75.0,60.0,60.0,6.0,64.0
3328,77.0,60.0,60.0,6.0,64.0
3329,79.0,0.0,60.0,6.0,64.0
3330,68.0,60.0,60.0,6.0,64.0
3331,60.0,0.0,480.0,7.0,64.0
3332,56.0,0.0,480.0,12.0,64.0
3333,51.0,0.0,15.0,7.0,64.0
3334,68.0,0.0,480.0,11.0,64.0
3335,72.0,0.0,480.0,10.0,64.0
3336,70.0,60.0,60.0,6.0,64.0
3337,72.0,60.0,60.0,6.0,64.0
3338,73.0,60.0,60.0,6.0,64.0
3339,75.0,60.0,60.0,6.0,64.0
3340,77.0,60.0,60.0,6.0,64.0
3341,79.0,60.0,60.0,6.0,64.0
3342,80.0,60.0,60.0,6.0,64.0
3343,70.0,0.0,480.0,10.0,64.0
3344,61.0,0.0,480.0,11.0,64.0
3345,51.0,0.0,15.0,7.0,64.0
3346,55.0,0.0,480.0,12.0,64.0
3347,70.0,60.0,60.0,6.0,64.0
3348,58.0,0.0,480.0,7.0,64.0
3349,72.0,60.0,60.0,6.0,64.0
3350,73.0,60.0,60.0,6.0,64.0
3351,75.0,60.0,60.0,6.0,64.0
3352,77.0,60.0,60.0,6.0,64.0
3353,79.0,60.0,60.0,6.0,64.0
3354,80.0,60.0,60.0,6.0,64.0
3355,82.0,60.0,60.0,6.0,64.0
3356,56.0,0.0,480.0,12.0,64.0
3357,60.0,0.0,480.0,11.0,64.0
3358,72.0,60.0,60.0,6.0,64.0
3359,68.0,768.0,480.0,10.0,64.0
3360,51.0,0.0,450.0,7.0,64.0
3361,56.0,21.0,450.0,7.0,64.0
3362,73.0,60.0,60.0,6.0,64.0
3363,75.0,60.0,60.0,6.0,64.0
3364,77.0,60.0,60.0,6.0,64.0
3365,79.0,60.0,60.0,6.0,64.0
3366,80.0,24.0,60.0,6.0,64.0
3367,82.0,36.0,60.0,6.0,64.0
3368,84.0,3.0,60.0,6.0,64.0
3369,61.0,0.0,780.0,11.0,64.0
3370,58.0,144.0,780.0,12.0,64.0
3371,55.0,120.0,900.0,7.0,64.0
3372,85.0,0.0,900.0,6.0,64.0
3373,51.0,0.0,900.0,7.0,64.0
3374,67.0,0.0,780.0,10.0,64.0
3375,27.0,0.0,780.0,14.0,64.0
3376,39.0,0.0,780.0,13.0,64.0
3377,72.0,0.0,60.0,6.0,64.0
3378,56.0,120.0,60.0,7.0,64.0
3379,73.0,0.0,60.0,6.0,64.0
3380,58.0,120.0,60.0,7.0,64.0
3381,74.0,120.0,60.0,6.0,64.0
3382,59.0,0.0,60.0,7.0,64.0
3383,60.0,0.0,60.0,7.0,64.0
3384,75.0,168.0,60.0,6.0,64.0
3385,61.0,0.0,120.0,7.0,64.0
3386,56.0,0.0,180.0,13.0,64.0
3387,56.0,0.0,180.0,12.0,64.0
3388,44.0,0.0,180.0,14.0,64.0
3389,63.0,0.0,180.0,10.0,64.0
3390,60.0,0.0,180.0,11.0,64.0
3391,77.0,72.0,120.0,6.0,64.0
3392,60.0,0.0,60.0,7.0,64.0
3393,75.0,120.0,60.0,6.0,64.0
3394,73.0,0.0,60.0,6.0,64.0
3395,58.0,120.0,60.0,7.0,64.0
3396,72.0,0.0,60.0,6.0,64.0
3397,56.0,120.0,60.0,7.0,64.0
3398,70.0,78.0,60.0,6.0,64.0
3399,67.0,0.0,180.0,10.0,64.0
3400,39.0,0.0,180.0,14.0,64.0
3401,55.0,0.0,60.0,7.0,64.0
3402,51.0,0.0,180.0,13.0,64.0
3403,58.0,48.0,180.0,12.0,64.0
3404,61.0,0.0,180.0,11.0,64.0
3405,72.0,0.0,30.0,6.0,64.0
3406,56.0,30.0,30.0,7.0,64.0
3407,70.0,0.0,30.0,6.0,64.0
3408,55.0,12.0,30.0,7.0,64.0
3409,68.0,0.0,60.0,6.0,64.0
3410,53.0,72.0,60.0,7.0,64.0
3411,70.0,0.0,60.0,6.0,64.0
3412,55.0,120.0,60.0,7.0,64.0
3413,70.0,168.0,60.0,6.0,64.0
3414,55.0,0.0,60.0,7.0,64.0
3415,61.0,0.0,240.0,11.0,64.0
3416,70.0,72.0,120.0,6.0,64.0
3417,32.0,48.0,180.0,14.0,64.0
3418,63.0,24.0,300.0,12.0,64.0
3419,67.0,0.0,240.0,10.0,64.0
3420,55.0,0.0,240.0,7.0,64.0
3421,44.0,0.0,180.0,13.0,64.0
3422,71.0,48.0,120.0,6.0,64.0
3423,56.0,96.0,90.0,7.0,64.0
3424,72.0,24.0,60.0,6.0,64.0
3425,60.0,0.0,90.0,11.0,64.0
3426,68.0,0.0,90.0,10.0,64.0
3427,68.0,120.0,60.0,6.0,64.0
3428,56.0,0.0,60.0,7.0,64.0
3429,72.0,120.0,60.0,6.0,64.0
3430,73.0,0.0,60.0,6.0,64.0
3431,58.0,120.0,60.0,7.0,64.0
3432,59.0,0.0,60.0,7.0,64.0
3433,74.0,120.0,60.0,6.0,64.0
3434,75.0,168.0,60.0,6.0,64.0
3435,60.0,0.0,60.0,7.0,64.0
3436,44.0,0.0,180.0,14.0,64.0
3437,77.0,0.0,120.0,6.0,64.0
3438,63.0,0.0,180.0,10.0,64.0
3439,56.0,0.0,180.0,13.0,64.0
3440,61.0,72.0,120.0,7.0,64.0
3441,60.0,0.0,180.0,11.0,64.0
3442,56.0,0.0,180.0,12.0,64.0
3443,75.0,120.0,60.0,6.0,64.0
3444,60.0,0.0,60.0,7.0,64.0
3445,73.0,0.0,60.0,6.0,64.0
3446,58.0,120.0,60.0,7.0,64.0
3447,72.0,120.0,60.0,6.0,64.0
3448,56.0,0.0,60.0,7.0,64.0
3449,67.0,0.0,180.0,10.0,64.0
3450,70.0,0.0,60.0,6.0,64.0
3451,39.0,48.0,180.0,14.0,64.0
3452,55.0,78.0,60.0,7.0,64.0
3453,63.0,0.0,180.0,12.0,64.0
3454,61.0,0.0,180.0,11.0,64.0
3455,51.0,0.0,180.0,13.0,64.0
3456,72.0,30.0,30.0,6.0,64.0
3457,56.0,0.0,30.0,7.0,64.0
3458,55.0,12.0,30.0,7.0,64.0
3459,70.0,0.0,30.0,6.0,64.0
3460,53.0,72.0,60.0,7.0,64.0
3461,68.0,0.0,60.0,6.0,64.0
3462,70.0,0.0,60.0,6.0,64.0
3463,55.0,120.0,60.0,7.0,64.0
3464,72.0,240.0,60.0,6.0,64.0
3465,51.0,0.0,60.0,7.0,64.0
3466,68.0,0.0,180.0,6.0,64.0
3467,44.0,0.0,180.0,13.0,64.0
3468,56.0,0.0,180.0,7.0,64.0
3469,32.0,0.0,180.0,14.0,64.0
3470,68.0,360.0,180.0,10.0,64.0
3471,60.0,0.0,180.0,11.0,64.0
3472,63.0,0.0,180.0,12.0,64.0
3473,56.0,0.0,60.0,11.0,64.0
3474,72.0,120.0,60.0,10.0,64.0
3475,73.0,0.0,60.0,10.0,64.0
3476,58.0,120.0,60.0,11.0,64.0
3477,74.0,0.0,60.0,10.0,64.0
3478,59.0,120.0,60.0,11.0,64.0
3479,60.0,0.0,60.0,11.0,64.0
3480,75.0,168.0,60.0,10.0,64.0
3481,56.0,0.0,180.0,13.0,64.0
3482,44.0,0.0,180.0,14.0,64.0
3483,68.0,120.0,180.0,12.0,64.0
3484,61.0,0.0,120.0,11.0,64.0
3485,77.0,72.0,120.0,10.0,64.0
3486,60.0,0.0,60.0,11.0,64.0
3487,75.0,0.0,60.0,10.0,64.0
3488,73.0,120.0,60.0,10.0,64.0
3489,58.0,0.0,60.0,11.0,64.0
3490,56.0,0.0,60.0,11.0,64.0
3491,72.0,120.0,60.0,10.0,64.0
3492,55.0,0.0,180.0,2.0,64.0
3493,61.0,0.0,180.0,2.0,64.0
3494,39.0,0.0,180.0,5.0,64.0
3495,67.0,0.0,180.0,1.0,64.0
3496,73.0,0.0,180.0,1.0,64.0
3497,39.0,0.0,180.0,14.0,64.0
3498,51.0,0.0,180.0,13.0,64.0
3499,70.0,48.0,180.0,4.0,64.0
3500,70.0,78.0,60.0,10.0,64.0
3501,51.0,0.0,180.0,3.0,64.0
3502,63.0,0.0,180.0,4.0,64.0
3503,82.0,0.0,180.0,0.0,64.0
3504,55.0,0.0,60.0,11.0,64.0
3505,63.0,0.0,180.0,12.0,64.0
3506,58.0,0.0,180.0,3.0,64.0
3507,72.0,30.0,30.0,10.0,64.0
3508,56.0,0.0,30.0,11.0,64.0
3509,55.0,0.0,30.0,11.0,64.0
3510,70.0,12.0,30.0,10.0,64.0
3511,53.0,0.0,60.0,11.0,64.0
3512,68.0,72.0,60.0,10.0,64.0
3513,55.0,0.0,60.0,11.0,64.0
3514,82.0,0.0,90.0,0.0,64.0
3515,73.0,0.0,90.0,1.0,64.0
3516,51.0,96.0,90.0,3.0,64.0
3517,63.0,0.0,90.0,4.0,64.0
3518,70.0,0.0,90.0,4.0,64.0
3519,58.0,0.0,90.0,3.0,64.0
3520,67.0,0.0,90.0,1.0,64.0
3521,70.0,24.0,60.0,10.0,64.0
3522,61.0,0.0,90.0,2.0,64.0
3523,55.0,0.0,90.0,2.0,64.0
3524,39.0,0.0,90.0,5.0,64.0
3525,70.0,0.0,90.0,4.0,64.0
3526,39.0,0.0,90.0,5.0,64.0
3527,67.0,0.0,90.0,1.0,64.0
3528,73.0,0.0,90.0,1.0,64.0
3529,55.0,0.0,90.0,2.0,64.0
3530,70.0,0.0,60.0,10.0,64.0
3531,58.0,0.0,90.0,3.0,64.0
3532,51.0,0.0,90.0,3.0,64.0
3533,82.0,216.0,90.0,0.0,64.0
3534,61.0,0.0,90.0,2.0,64.0
3535,63.0,0.0,90.0,4.0,64.0
3536,55.0,24.0,60.0,11.0,64.0
3537,67.0,0.0,240.0,1.0,64.0
3538,70.0,96.0,240.0,10.0,64.0
3539,55.0,0.0,240.0,11.0,64.0
3540,44.0,0.0,180.0,13.0,64.0
3541,73.0,0.0,240.0,1.0,64.0
3542,32.0,48.0,180.0,14.0,64.0
3543,58.0,0.0,240.0,3.0,64.0
3544,51.0,0.0,240.0,3.0,64.0
3545,44.0,0.0,180.0,5.0,64.0
3546,56.0,0.0,180.0,12.0,64.0
3547,55.0,0.0,240.0,2.0,64.0
3548,70.0,0.0,240.0,4.0,64.0
3549,63.0,0.0,240.0,4.0,64.0
3550,82.0,0.0,240.0,0.0,64.0
3551,61.0,0.0,240.0,2.0,64.0
3552,72.0,0.0,90.0,4.0,64.0
3553,72.0,0.0,90.0,1.0,64.0
3554,56.0,0.0,90.0,11.0,64.0
3555,68.0,0.0,90.0,1.0,64.0
3556,72.0,0.0,90.0,10.0,64.0
3557,60.0,0.0,90.0,2.0,64.0
3558,56.0,0.0,90.0,2.0,64.0
3559,68.0,0.0,90.0,4.0,64.0
3560,84.0,0.0,90.0,0.0,64.0
3561,60.0,120.0,90.0,3.0,64.0
3562,56.0,0.0,90.0,3.0,64.0
3563,68.0,96.0,90.0,10.0,64.0
3564,56.0,0.0,60.0,11.0,64.0
3565,72.0,120.0,60.0,10.0,64.0
3566,73.0,120.0,60.0,10.0,64.0
3567,58.0,0.0,60.0,11.0,64.0
3568,59.0,0.0,60.0,11.0,64.0
3569,74.0,120.0,60.0,10.0,64.0
3570,60.0,168.0,60.0,11.0,64.0
3571,75.0,0.0,60.0,10.0,64.0
3572,44.0,120.0,180.0,14.0,64.0
3573,77.0,72.0,120.0,10.0,64.0
3574,68.0,0.0,180.0,12.0,64.0
3575,56.0,0.0,180.0,13.0,64.0
3576,61.0,0.0,120.0,11.0,64.0
3577,60.0,0.0,60.0,11.0,64.0
3578,75.0,0.0,60.0,10.0,64.0
3579,58.0,120.0,60.0,11.0,64.0
3580,73.0,0.0,60.0,10.0,64.0
3581,56.0,120.0,60.0,11.0,64.0
3582,72.0,0.0,60.0,10.0,64.0
3583,55.0,78.0,60.0,11.0,64.0
3584,39.0,0.0,180.0,14.0,64.0
3585,51.0,0.0,180.0,13.0,64.0
3586,39.0,48.0,180.0,5.0,64.0
3587,63.0,0.0,180.0,12.0,64.0
3588,70.0,0.0,60.0,10.0,64.0
3589,61.0,0.0,180.0,2.0,64.0
3590,55.0,0.0,180.0,2.0,64.0
3591,73.0,0.0,180.0,1.0,64.0
3592,67.0,0.0,180.0,1.0,64.0
3593,63.0,0.0,180.0,4.0,64.0
3594,70.0,0.0,180.0,4.0,64.0
3595,58.0,0.0,180.0,3.0,64.0
3596,51.0,0.0,180.0,3.0,64.0
3597,82.0,0.0,180.0,0.0,64.0
3598,56.0,30.0,30.0,11.0,64.0
3599,72.0,0.0,30.0,10.0,64.0
3600,70.0,12.0,30.0,10.0,64.0
3601,55.0,0.0,30.0,11.0,64.0
3602,53.0,0.0,60.0,11.0,64.0
3603,68.0,72.0,60.0,10.0,64.0
3604,73.0,0.0,90.0,1.0,64.0
3605,67.0,0.0,90.0,1.0,64.0
3606,70.0,0.0,90.0,4.0,64.0
3607,82.0,0.0,90.0,0.0,64.0
3608,51.0,96.0,90.0,3.0,64.0
3609,63.0,0.0,90.0,4.0,64.0
3610,70.0,24.0,60.0,10.0,64.0
3611,58.0,0.0,90.0,3.0,64.0
3612,55.0,0.0,60.0,11.0,64.0
3613,55.0,0.0,90.0,2.0,64.0
3614,61.0,0.0,90.0,2.0,64.0
3615,39.0,0.0,90.0,5.0,64.0
3616,63.0,0.0,90.0,4.0,64.0
3617,68.0,0.0,90.0,1.0,64.0
3618,72.0,0.0,90.0,1.0,64.0
3619,72.0,0.0,60.0,10.0,64.0
3620,39.0,0.0,90.0,5.0,64.0
3621,72.0,0.0,90.0,4.0,64.0
3622,84.0,0.0,90.0,0.0,64.0
3623,51.0,24.0,60.0,11.0,64.0
3624,60.0,216.0,90.0,3.0,64.0
3625,60.0,0.0,90.0,2.0,64.0
3626,56.0,0.0,90.0,2.0,64.0
3627,51.0,0.0,90.0,3.0,64.0
3628,56.0,0.0,180.0,11.0,64.0
3629,44.0,0.0,210.0,5.0,64.0
3630,80.0,348.0,210.0,0.0,64.0
3631,56.0,0.0,180.0,12.0,64.0
3632,60.0,0.0,210.0,4.0,64.0
3633,32.0,0.0,180.0,14.0,64.0
3634,44.0,0.0,180.0,13.0,64.0
3635,68.0,0.0,210.0,4.0,64.0
3636,63.0,0.0,210.0,1.0,64.0
3637,51.0,0.0,210.0,2.0,64.0
3638,68.0,12.0,180.0,10.0,64.0
3639,56.0,0.0,210.0,2.0,64.0
3640,56.0,0.0,210.0,3.0,64.0
3641,48.0,0.0,210.0,3.0,64.0
3642,68.0,0.0,210.0,1.0,64.0
3643,55.0,120.0,60.0,7.0,64.0
3644,70.0,0.0,60.0,6.0,64.0
3645,56.0,120.0,60.0,7.0,64.0
3646,71.0,0.0,60.0,6.0,64.0
3647,57.0,120.0,60.0,7.0,64.0
3648,72.0,0.0,60.0,6.0,64.0
3649,73.0,0.0,60.0,6.0,64.0
3650,58.0,168.0,60.0,7.0,64.0
3651,27.0,0.0,390.0,14.0,64.0
3652,60.0,120.0,120.0,7.0,64.0
3653,39.0,0.0,390.0,13.0,64.0
3654,51.0,96.0,390.0,12.0,64.0
3655,75.0,0.0,120.0,6.0,64.0
3656,73.0,0.0,120.0,6.0,64.0
3657,58.0,72.0,120.0,7.0,64.0
3658,70.0,0.0,60.0,6.0,64.0
3659,55.0,72.0,60.0,7.0,64.0
3660,70.0,120.0,120.0,6.0,64.0
3661,63.0,0.0,120.0,7.0,64.0
3662,73.0,0.0,120.0,6.0,64.0
3663,72.0,0.0,120.0,6.0,64.0
3664,51.0,0.0,390.0,11.0,64.0
3665,75.0,120.0,120.0,6.0,64.0
3666,62.0,0.0,120.0,7.0,64.0
3667,63.0,96.0,390.0,10.0,64.0
3668,70.0,0.0,120.0,6.0,64.0
3669,63.0,120.0,120.0,7.0,64.0
3670,73.0,0.0,120.0,6.0,64.0
3671,67.0,24.0,120.0,6.0,64.0
3672,70.0,0.0,120.0,6.0,64.0
3673,63.0,0.0,120.0,7.0,64.0
3674,73.0,120.0,120.0,6.0,64.0
3675,70.0,0.0,120.0,6.0,64.0
3676,51.0,48.0,390.0,11.0,64.0
3677,62.0,0.0,120.0,7.0,64.0
3678,63.0,0.0,390.0,10.0,64.0
3679,72.0,0.0,120.0,6.0,64.0
3680,75.0,120.0,120.0,6.0,64.0
3681,63.0,0.0,120.0,7.0,64.0
3682,70.0,0.0,120.0,6.0,64.0
3683,73.0,72.0,120.0,6.0,64.0
3684,67.0,72.0,60.0,6.0,64.0
3685,70.0,0.0,60.0,6.0,64.0
3686,55.0,120.0,60.0,7.0,64.0
3687,70.0,0.0,60.0,6.0,64.0
3688,56.0,120.0,60.0,7.0,64.0
3689,71.0,0.0,60.0,6.0,64.0
3690,72.0,0.0,60.0,6.0,64.0
3691,57.0,120.0,60.0,7.0,64.0
3692,58.0,0.0,60.0,7.0,64.0
3693,73.0,120.0,60.0,6.0,64.0
3694,59.0,0.0,60.0,7.0,64.0
3695,74.0,168.0,60.0,6.0,64.0
3696,44.0,0.0,390.0,13.0,64.0
3697,77.0,120.0,120.0,6.0,64.0
3698,56.0,96.0,390.0,12.0,64.0
3699,32.0,0.0,390.0,14.0,64.0
3700,61.0,0.0,120.0,7.0,64.0
3701,60.0,0.0,120.0,7.0,64.0
3702,75.0,72.0,120.0,6.0,64.0
3703,72.0,0.0,60.0,6.0,64.0
3704,56.0,72.0,60.0,7.0,64.0
3705,72.0,0.0,120.0,6.0,64.0
3706,75.0,120.0,120.0,6.0,64.0
3707,68.0,0.0,120.0,7.0,64.0
3708,56.0,0.0,390.0,11.0,64.0
3709,77.0,0.0,120.0,6.0,64.0
3710,73.0,0.0,120.0,6.0,64.0
3711,68.0,96.0,390.0,10.0,64.0
3712,67.0,120.0,120.0,7.0,64.0
3713,72.0,120.0,120.0,6.0,64.0
3714,75.0,0.0,120.0,6.0,64.0
3715,68.0,0.0,120.0,7.0,64.0
3716,68.0,24.0,120.0,6.0,64.0
3717,72.0,0.0,120.0,6.0,64.0
3718,68.0,0.0,120.0,7.0,64.0
3719,75.0,120.0,120.0,6.0,64.0
3720,72.0,0.0,120.0,6.0,64.0
3721,68.0,48.0,390.0,10.0,64.0
3722,56.0,0.0,390.0,11.0,64.0
3723,67.0,0.0,120.0,7.0,64.0
3724,77.0,0.0,120.0,6.0,64.0
3725,73.0,120.0,120.0,6.0,64.0
3726,75.0,0.0,120.0,6.0,64.0
3727,68.0,0.0,120.0,7.0,64.0
3728,72.0,72.0,15.0,6.0,64.0
3729,68.0,48.0,90.0,6.0,64.0
3730,75.0,120.0,60.0,6.0,64.0
3731,77.0,46.0,60.0,6.0,64.0
3732,65.0,8.0,480.0,7.0,64.0
3733,61.0,74.0,120.0,7.0,64.0
3734,78.0,46.0,60.0,6.0,64.0
3735,56.0,74.0,120.0,7.0,64.0
3736,61.0,74.0,120.0,7.0,64.0
3737,79.0,46.0,60.0,6.0,64.0
3738,80.0,38.0,60.0,6.0,64.0
3739,56.0,120.0,120.0,7.0,64.0
3740,82.0,72.0,120.0,6.0,64.0
3741,63.0,8.0,480.0,7.0,64.0
3742,60.0,2.0,120.0,7.0,64.0
3743,56.0,120.0,120.0,7.0,64.0
3744,80.0,46.0,60.0,6.0,64.0
3745,60.0,74.0,120.0,7.0,64.0
3746,75.0,38.0,60.0,6.0,64.0
3747,56.0,74.0,120.0,7.0,64.0
3748,61.0,74.0,120.0,7.0,64.0
3749,77.0,46.0,60.0,6.0,64.0
3750,65.0,8.0,480.0,7.0,64.0
3751,56.0,74.0,120.0,7.0,64.0
3752,78.0,46.0,60.0,6.0,64.0
3753,61.0,74.0,120.0,7.0,64.0
3754,79.0,46.0,60.0,6.0,64.0
3755,56.0,120.0,120.0,7.0,64.0
3756,80.0,38.0,60.0,6.0,64.0
3757,63.0,8.0,480.0,7.0,64.0
3758,82.0,72.0,120.0,6.0,64.0
3759,60.0,2.0,120.0,7.0,64.0
3760,56.0,120.0,120.0,7.0,64.0
3761,80.0,46.0,60.0,6.0,64.0
3762,60.0,74.0,120.0,7.0,64.0
3763,56.0,74.0,120.0,7.0,64.0
3764,75.0,38.0,60.0,6.0,64.0
3765,61.0,74.0,120.0,7.0,64.0
3766,65.0,8.0,480.0,7.0,64.0
3767,77.0,46.0,60.0,6.0,64.0
3768,78.0,46.0,60.0,6.0,64.0
3769,56.0,74.0,120.0,7.0,64.0
3770,79.0,46.0,60.0,6.0,64.0
3771,61.0,74.0,120.0,7.0,64.0
3772,80.0,38.0,60.0,6.0,64.0
3773,56.0,62.0,120.0,7.0,64.0
3774,60.0,36.0,390.0,3.0,64.0
3775,56.0,6.0,180.0,7.0,64.0
3776,82.0,60.0,60.0,6.0,64.0
3777,56.0,0.0,180.0,2.0,64.0
3778,44.0,0.0,180.0,2.0,64.0
3779,63.0,0.0,390.0,3.0,64.0
3780,60.0,0.0,180.0,7.0,64.0
3781,80.0,60.0,60.0,6.0,64.0
3782,68.0,42.0,90.0,1.0,64.0
3783,72.0,0.0,90.0,1.0,64.0
3784,75.0,0.0,90.0,0.0,64.0
3785,84.0,12.0,60.0,6.0,64.0
3786,82.0,60.0,60.0,6.0,64.0
3787,80.0,60.0,60.0,6.0,64.0
3788,72.0,24.0,180.0,1.0,64.0
3789,75.0,0.0,180.0,1.0,64.0
3790,84.0,0.0,180.0,0.0,64.0
3791,79.0,24.0,60.0,6.0,64.0
3792,60.0,24.0,90.0,2.0,64.0
3793,56.0,0.0,90.0,2.0,64.0
3794,77.0,12.0,60.0,6.0,64.0
3795,75.0,60.0,60.0,6.0,64.0
3796,51.0,0.0,180.0,7.0,64.0
3797,55.0,0.0,180.0,7.0,64.0
3798,58.0,0.0,180.0,7.0,64.0
3799,55.0,6.0,180.0,2.0,64.0
3800,58.0,0.0,390.0,3.0,64.0
3801,75.0,60.0,60.0,6.0,64.0
3802,51.0,0.0,180.0,2.0,64.0
3803,61.0,36.0,390.0,3.0,64.0
3804,73.0,60.0,60.0,6.0,64.0
3805,82.0,12.0,60.0,6.0,64.0
3806,67.0,0.0,90.0,1.0,64.0
3807,73.0,0.0,90.0,0.0,64.0
3808,70.0,42.0,90.0,1.0,64.0
3809,80.0,60.0,60.0,6.0,64.0
3810,82.0,0.0,180.0,0.0,64.0
3811,79.0,24.0,180.0,1.0,64.0
3812,75.0,0.0,180.0,1.0,64.0
3813,79.0,60.0,60.0,6.0,64.0
3814,77.0,24.0,60.0,6.0,64.0
3815,75.0,12.0,60.0,6.0,64.0
3816,51.0,24.0,90.0,2.0,64.0
3817,55.0,0.0,90.0,2.0,64.0
3818,73.0,60.0,60.0,6.0,64.0
3819,56.0,0.0,180.0,7.0,64.0
3820,53.0,0.0,180.0,7.0,64.0
3821,73.0,60.0,60.0,6.0,64.0
3822,53.0,6.0,180.0,2.0,64.0
3823,56.0,0.0,180.0,2.0,64.0
3824,60.0,0.0,390.0,3.0,64.0
3825,56.0,36.0,390.0,3.0,64.0
3826,72.0,60.0,60.0,6.0,64.0
3827,68.0,42.0,90.0,1.0,64.0
3828,80.0,12.0,60.0,6.0,64.0
3829,72.0,0.0,90.0,0.0,64.0
3830,65.0,0.0,90.0,1.0,64.0
3831,79.0,60.0,60.0,6.0,64.0
3832,77.0,60.0,60.0,6.0,64.0
3833,80.0,0.0,180.0,0.0,64.0
3834,77.0,24.0,180.0,1.0,64.0
3835,72.0,0.0,180.0,1.0,64.0
3836,75.0,24.0,60.0,6.0,64.0
3837,73.0,12.0,60.0,6.0,64.0
3838,56.0,0.0,90.0,2.0,64.0
3839,53.0,24.0,90.0,2.0,64.0
3840,72.0,60.0,60.0,6.0,64.0
3841,53.0,0.0,180.0,2.0,64.0
3842,49.0,0.0,180.0,2.0,64.0
3843,58.0,0.0,390.0,3.0,64.0
3844,49.0,6.0,180.0,7.0,64.0
3845,58.0,0.0,180.0,7.0,64.0
3846,53.0,0.0,180.0,7.0,64.0
3847,61.0,36.0,390.0,3.0,64.0
3848,72.0,60.0,60.0,6.0,64.0
3849,70.0,60.0,60.0,6.0,64.0
3850,70.0,0.0,90.0,0.0,64.0
3851,79.0,12.0,60.0,6.0,64.0
3852,65.0,0.0,90.0,1.0,64.0
3853,61.0,42.0,90.0,1.0,64.0
3854,77.0,60.0,60.0,6.0,64.0
3855,73.0,0.0,180.0,1.0,64.0
3856,77.0,24.0,180.0,0.0,64.0
3857,75.0,60.0,60.0,6.0,64.0
3858,70.0,0.0,180.0,1.0,64.0
3859,73.0,24.0,60.0,6.0,64.0
3860,72.0,12.0,60.0,6.0,64.0
3861,49.0,24.0,90.0,2.0,64.0
3862,53.0,0.0,90.0,2.0,64.0
3863,70.0,60.0,60.0,6.0,64.0
3864,51.0,0.0,180.0,7.0,64.0
3865,60.0,0.0,180.0,7.0,64.0
3866,51.0,0.0,180.0,2.0,64.0
3867,56.0,6.0,180.0,7.0,64.0
3868,70.0,60.0,60.0,6.0,64.0
3869,56.0,0.0,390.0,3.0,64.0
3870,60.0,36.0,390.0,3.0,64.0
3871,68.0,60.0,60.0,6.0,64.0
3872,77.0,12.0,60.0,6.0,64.0
3873,68.0,42.0,90.0,0.0,64.0
3874,63.0,0.0,90.0,1.0,64.0
3875,60.0,0.0,90.0,1.0,64.0
3876,75.0,60.0,60.0,6.0,64.0
3877,73.0,60.0,60.0,6.0,64.0
3878,72.0,0.0,180.0,1.0,64.0
3879,75.0,0.0,180.0,0.0,64.0
3880,68.0,24.0,180.0,1.0,64.0
3881,72.0,24.0,60.0,6.0,64.0
3882,51.0,24.0,90.0,2.0,64.0
3883,70.0,12.0,60.0,6.0,64.0
3884,39.0,0.0,180.0,2.0,64.0
3885,58.0,0.0,390.0,3.0,64.0
3886,51.0,36.0,390.0,3.0,64.0
3887,61.0,0.0,180.0,7.0,64.0
3888,51.0,6.0,180.0,7.0,64.0
3889,68.0,60.0,15.0,6.0,64.0
3890,58.0,0.0,180.0,7.0,64.0
3891,67.0,60.0,60.0,6.0,64.0
3892,67.0,42.0,90.0,1.0,64.0
3893,61.0,0.0,90.0,1.0,64.0
3894,75.0,12.0,60.0,6.0,64.0
3895,70.0,0.0,90.0,0.0,64.0
3896,73.0,60.0,60.0,6.0,64.0
3897,72.0,18.0,60.0,6.0,64.0
3898,73.0,0.0,90.0,0.0,64.0
3899,58.0,42.0,90.0,1.0,64.0
3900,70.0,0.0,90.0,1.0,64.0
3901,70.0,24.0,60.0,6.0,64.0
3902,51.0,0.0,90.0,2.0,64.0
3903,61.0,0.0,90.0,1.0,64.0
3904,67.0,0.0,90.0,1.0,64.0
3905,68.0,18.0,60.0,6.0,64.0
3906,58.0,24.0,90.0,2.0,64.0
3907,67.0,18.0,90.0,0.0,64.0
3908,67.0,48.0,60.0,6.0,64.0
3909,56.0,0.0,390.0,3.0,64.0
3910,32.0,12.0,90.0,14.0,64.0
3911,44.0,0.0,180.0,5.0,64.0
3912,51.0,0.0,40.0,12.0,64.0
3913,68.0,0.0,150.0,1.0,64.0
3914,60.0,0.0,150.0,1.0,64.0
3915,60.0,48.0,40.0,11.0,64.0
3916,44.0,12.0,390.0,3.0,64.0
3917,44.0,0.0,90.0,13.0,64.0
3918,56.0,0.0,180.0,4.0,64.0
3919,56.0,0.0,150.0,2.0,64.0
3920,44.0,0.0,150.0,2.0,64.0
3921,60.0,0.0,180.0,7.0,64.0
3922,56.0,0.0,180.0,7.0,64.0
3923,68.0,0.0,180.0,4.0,64.0
3924,68.0,12.0,150.0,0.0,64.0
3925,68.0,24.0,180.0,6.0,64.0
3926,56.0,0.0,450.0,10.0,64.0
3927,51.0,48.0,40.0,12.0,64.0
3928,60.0,0.0,40.0,11.0,64.0
3929,32.0,0.0,90.0,14.0,64.0
3930,44.0,12.0,90.0,13.0,64.0
3931,60.0,0.0,40.0,11.0,64.0
3932,51.0,24.0,40.0,12.0,64.0
3933,60.0,60.0,40.0,11.0,64.0
3934,51.0,0.0,40.0,12.0,64.0
3935,44.0,12.0,90.0,13.0,64.0
3936,72.0,0.0,150.0,1.0,64.0
3937,80.0,12.0,150.0,0.0,64.0
3938,51.0,0.0,40.0,12.0,64.0
3939,75.0,0.0,150.0,1.0,64.0
3940,32.0,0.0,90.0,14.0,64.0
3941,48.0,0.0,150.0,2.0,64.0
3942,51.0,0.0,150.0,2.0,64.0
3943,60.0,48.0,40.0,11.0,64.0
3944,60.0,36.0,40.0,11.0,64.0
3945,51.0,0.0,40.0,12.0,64.0
3946,32.0,12.0,90.0,14.0,64.0
3947,44.0,0.0,90.0,13.0,64.0
3948,51.0,48.0,40.0,12.0,64.0
3949,60.0,0.0,40.0,11.0,64.0
3950,60.0,0.0,40.0,11.0,64.0
3951,51.0,60.0,40.0,12.0,64.0
3952,80.0,12.0,150.0,10.0,64.0
3953,44.0,0.0,90.0,13.0,64.0
3954,56.0,0.0,180.0,3.0,64.0
3955,44.0,24.0,180.0,3.0,64.0
3956,80.0,0.0,2370.0,0.0,64.0
3957,77.0,0.0,450.0,1.0,64.0
3958,73.0,0.0,450.0,1.0,64.0
3959,32.0,12.0,90.0,14.0,64.0
3960,53.0,48.0,40.0,12.0,64.0
3961,61.0,0.0,40.0,11.0,64.0
3962,53.0,0.0,450.0,2.0,64.0
3963,49.0,0.0,450.0,2.0,64.0
3964,61.0,48.0,40.0,11.0,64.0
3965,53.0,0.0,40.0,12.0,64.0
3966,53.0,0.0,40.0,12.0,64.0
3967,44.0,0.0,90.0,13.0,64.0
3968,61.0,24.0,40.0,11.0,64.0
3969,32.0,12.0,90.0,14.0,64.0
3970,61.0,60.0,40.0,11.0,64.0
3971,53.0,0.0,40.0,12.0,64.0
3972,56.0,24.0,180.0,3.0,64.0
3973,77.0,12.0,150.0,10.0,64.0
3974,61.0,0.0,40.0,11.0,64.0
3975,44.0,0.0,90.0,13.0,64.0
3976,53.0,48.0,40.0,12.0,64.0
3977,44.0,0.0,180.0,3.0,64.0
3978,32.0,12.0,90.0,14.0,64.0
3979,61.0,0.0,40.0,11.0,64.0
3980,53.0,48.0,40.0,12.0,64.0
3981,44.0,12.0,90.0,13.0,64.0
3982,61.0,0.0,40.0,11.0,64.0
3983,32.0,0.0,90.0,14.0,64.0
3984,53.0,24.0,40.0,12.0,64.0
3985,53.0,60.0,40.0,12.0,64.0
3986,61.0,0.0,40.0,11.0,64.0
3987,56.0,0.0,390.0,3.0,64.0
3988,51.0,12.0,450.0,2.0,64.0
3989,68.0,0.0,180.0,4.0,64.0
3990,56.0,0.0,180.0,4.0,64.0
3991,48.0,0.0,450.0,2.0,64.0
3992,32.0,12.0,90.0,14.0,64.0
3993,72.0,0.0,450.0,1.0,64.0
3994,51.0,48.0,40.0,12.0,64.0
3995,44.0,24.0,180.0,5.0,64.0
3996,75.0,0.0,450.0,1.0,64.0
3997,75.0,6.0,330.0,10.0,64.0
3998,44.0,24.0,390.0,3.0,64.0
3999,44.0,0.0,90.0,13.0,64.0
4000,60.0,0.0,40.0,11.0,64.0
4001,60.0,60.0,40.0,11.0,64.0
4002,51.0,0.0,40.0,12.0,64.0
4003,44.0,0.0,90.0,13.0,64.0
4004,32.0,12.0,90.0,14.0,64.0
4005,51.0,0.0,40.0,12.0,64.0
4006,60.0,24.0,40.0,11.0,64.0
4007,60.0,0.0,40.0,11.0,64.0
4008,51.0,60.0,40.0,12.0,64.0
4009,44.0,0.0,90.0,13.0,64.0
4010,32.0,6.0,90.0,14.0,64.0
4011,60.0,0.0,40.0,11.0,64.0
4012,51.0,48.0,40.0,12.0,64.0
4013,60.0,0.0,40.0,11.0,64.0
4014,51.0,36.0,40.0,12.0,64.0
4015,44.0,0.0,90.0,13.0,64.0
4016,32.0,0.0,90.0,14.0,64.0
4017,60.0,12.0,40.0,11.0,64.0
4018,72.0,36.0,60.0,10.0,64.0
4019,51.0,0.0,40.0,12.0,64.0
4020,51.0,60.0,40.0,12.0,64.0
4021,68.0,0.0,40.0,10.0,64.0
4022,60.0,0.0,40.0,11.0,64.0
4023,53.0,0.0,450.0,2.0,64.0
4024,49.0,0.0,450.0,2.0,64.0
4025,32.0,12.0,90.0,14.0,64.0
4026,73.0,0.0,450.0,1.0,64.0
4027,77.0,0.0,450.0,1.0,64.0
4028,80.0,12.0,150.0,10.0,64.0
4029,56.0,0.0,180.0,3.0,64.0
4030,44.0,24.0,180.0,3.0,64.0
4031,53.0,0.0,40.0,12.0,64.0
4032,61.0,48.0,40.0,11.0,64.0
4033,44.0,0.0,90.0,13.0,64.0
4034,61.0,0.0,40.0,11.0,64.0
4035,53.0,48.0,40.0,12.0,64.0
4036,32.0,0.0,90.0,14.0,64.0
4037,61.0,0.0,40.0,11.0,64.0
4038,53.0,24.0,40.0,12.0,64.0
4039,44.0,12.0,90.0,13.0,64.0
4040,53.0,0.0,40.0,12.0,64.0
4041,61.0,60.0,40.0,11.0,64.0
4042,32.0,12.0,90.0,14.0,64.0
4043,61.0,48.0,40.0,11.0,64.0
4044,53.0,0.0,40.0,12.0,64.0
4045,44.0,0.0,90.0,13.0,64.0
4046,77.0,12.0,150.0,10.0,64.0
4047,56.0,0.0,180.0,3.0,64.0
4048,44.0,24.0,180.0,3.0,64.0
4049,61.0,48.0,40.0,11.0,64.0
4050,53.0,0.0,40.0,12.0,64.0
4051,53.0,0.0,40.0,12.0,64.0
4052,44.0,0.0,90.0,13.0,64.0
4053,32.0,12.0,90.0,14.0,64.0
4054,61.0,24.0,40.0,11.0,64.0
4055,61.0,0.0,40.0,11.0,64.0
4056,53.0,60.0,40.0,12.0,64.0
4057,51.0,0.0,450.0,2.0,64.0
4058,48.0,0.0,450.0,2.0,64.0
4059,75.0,12.0,450.0,1.0,64.0
4060,44.0,0.0,180.0,5.0,64.0
4061,32.0,0.0,90.0,14.0,64.0
4062,56.0,0.0,180.0,4.0,64.0
4063,68.0,24.0,180.0,4.0,64.0
4064,56.0,24.0,390.0,3.0,64.0
4065,44.0,0.0,390.0,3.0,64.0
4066,60.0,0.0,40.0,11.0,64.0
4067,72.0,0.0,450.0,1.0,64.0
4068,75.0,6.0,330.0,10.0,64.0
4069,51.0,48.0,40.0,12.0,64.0
4070,44.0,12.0,90.0,13.0,64.0
4071,51.0,0.0,40.0,12.0,64.0
4072,60.0,60.0,40.0,11.0,64.0
4073,32.0,0.0,90.0,14.0,64.0
4074,44.0,12.0,90.0,13.0,64.0
4075,51.0,0.0,40.0,12.0,64.0
4076,60.0,24.0,40.0,11.0,64.0
4077,60.0,60.0,40.0,11.0,64.0
4078,51.0,0.0,40.0,12.0,64.0
4079,51.0,0.0,40.0,12.0,64.0
4080,32.0,0.0,90.0,14.0,64.0
4081,44.0,6.0,90.0,13.0,64.0
4082,60.0,48.0,40.0,11.0,64.0
4083,60.0,0.0,40.0,11.0,64.0
4084,51.0,36.0,40.0,12.0,64.0
4085,60.0,12.0,40.0,11.0,64.0
4086,51.0,0.0,40.0,12.0,64.0
4087,44.0,0.0,90.0,13.0,64.0
4088,32.0,0.0,90.0,14.0,64.0
4089,72.0,36.0,60.0,10.0,64.0
4090,68.0,60.0,40.0,10.0,64.0
4091,51.0,0.0,40.0,12.0,64.0
4092,60.0,0.0,40.0,11.0,64.0
4093,56.0,0.0,180.0,3.0,64.0
4094,32.0,0.0,90.0,14.0,64.0
4095,80.0,12.0,150.0,10.0,64.0
4096,44.0,0.0,180.0,3.0,64.0
4097,61.0,0.0,40.0,12.0,64.0
4098,56.0,0.0,180.0,4.0,64.0
4099,65.0,48.0,40.0,11.0,64.0
4100,68.0,0.0,180.0,4.0,64.0
4101,73.0,0.0,450.0,1.0,64.0
4102,77.0,12.0,450.0,1.0,64.0
4103,44.0,24.0,180.0,5.0,64.0
4104,53.0,0.0,450.0,2.0,64.0
4105,61.0,0.0,450.0,2.0,64.0
4106,44.0,12.0,90.0,13.0,64.0
4107,61.0,0.0,40.0,12.0,64.0
4108,65.0,48.0,40.0,11.0,64.0
4109,61.0,24.0,40.0,12.0,64.0
4110,65.0,0.0,40.0,11.0,64.0
4111,44.0,0.0,90.0,13.0,64.0
4112,32.0,12.0,90.0,14.0,64.0
4113,65.0,60.0,40.0,11.0,64.0
4114,61.0,0.0,40.0,12.0,64.0
4115,32.0,0.0,90.0,14.0,64.0
4116,44.0,24.0,180.0,3.0,64.0
4117,77.0,12.0,150.0,10.0,64.0
4118,44.0,12.0,90.0,13.0,64.0
4119,56.0,0.0,180.0,4.0,64.0
4120,65.0,0.0,40.0,11.0,64.0
4121,68.0,0.0,180.0,4.0,64.0
4122,61.0,48.0,40.0,12.0,64.0
4123,56.0,0.0,180.0,3.0,64.0
4124,65.0,0.0,40.0,11.0,64.0
4125,61.0,48.0,40.0,12.0,64.0
4126,65.0,0.0,40.0,11.0,64.0
4127,61.0,24.0,40.0,12.0,64.0
4128,32.0,0.0,90.0,14.0,64.0
4129,44.0,0.0,90.0,13.0,64.0
4130,61.0,60.0,40.0,12.0,64.0
4131,65.0,0.0,40.0,11.0,64.0
4132,75.0,0.0,180.0,1.0,64.0
4133,32.0,0.0,180.0,14.0,64.0
4134,44.0,0.0,180.0,3.0,64.0
4135,56.0,0.0,180.0,3.0,64.0
4136,51.0,0.0,180.0,2.0,64.0
4137,44.0,0.0,180.0,13.0,64.0
4138,56.0,0.0,180.0,4.0,64.0
4139,75.0,36.0,60.0,10.0,64.0
4140,63.0,24.0,40.0,11.0,64.0
4141,72.0,0.0,180.0,1.0,64.0
4142,60.0,0.0,180.0,2.0,64.0
4143,80.0,36.0,180.0,0.0,64.0
4144,60.0,0.0,40.0,12.0,64.0
4145,44.0,0.0,180.0,5.0,64.0
4146,68.0,0.0,180.0,4.0,64.0
4147,63.0,0.0,40.0,11.0,64.0
4148,60.0,60.0,40.0,12.0,64.0
4149,63.0,24.0,40.0,11.0,64.0
4150,60.0,0.0,40.0,12.0,64.0
4151,75.0,0.0,60.0,10.0,64.0
4152,63.0,0.0,40.0,11.0,64.0
4153,60.0,60.0,40.0,12.0,64.0
4154,63.0,60.0,40.0,11.0,64.0
4155,84.0,0.0,180.0,10.0,64.0
4156,60.0,0.0,40.0,12.0,64.0
4157,63.0,0.0,40.0,11.0,64.0
4158,60.0,60.0,40.0,12.0,64.0
4159,84.0,30.0,90.0,0.0,64.0
4160,72.0,0.0,90.0,1.0,64.0
4161,63.0,24.0,40.0,11.0,64.0
4162,75.0,0.0,90.0,1.0,64.0
4163,44.0,6.0,60.0,14.0,64.0
4164,60.0,0.0,40.0,12.0,64.0
4165,60.0,0.0,90.0,3.0,64.0
4166,63.0,0.0,90.0,3.0,64.0
4167,56.0,0.0,90.0,2.0,64.0
4168,56.0,0.0,60.0,13.0,64.0
4169,60.0,0.0,40.0,12.0,64.0
4170,63.0,60.0,40.0,11.0,64.0
4171,61.0,0.0,180.0,3.0,64.0
4172,58.0,0.0,180.0,3.0,64.0
4173,39.0,0.0,180.0,5.0,64.0
4174,70.0,0.0,180.0,1.0,64.0
4175,73.0,0.0,180.0,1.0,64.0
4176,67.0,60.0,40.0,11.0,64.0
4177,63.0,0.0,180.0,4.0,64.0
4178,39.0,0.0,180.0,14.0,64.0
4179,58.0,0.0,40.0,12.0,64.0
4180,51.0,0.0,180.0,13.0,64.0
4181,82.0,36.0,180.0,0.0,64.0
4182,51.0,0.0,180.0,2.0,64.0
4183,58.0,0.0,40.0,12.0,64.0
4184,67.0,60.0,40.0,11.0,64.0
4185,67.0,24.0,40.0,11.0,64.0
4186,58.0,0.0,40.0,12.0,64.0
4187,73.0,0.0,60.0,10.0,64.0
4188,67.0,60.0,40.0,11.0,64.0
4189,58.0,0.0,40.0,12.0,64.0
4190,82.0,0.0,180.0,10.0,64.0
4191,58.0,60.0,40.0,12.0,64.0
4192,67.0,0.0,40.0,11.0,64.0
4193,67.0,60.0,40.0,11.0,64.0
4194,58.0,0.0,40.0,12.0,64.0
4195,70.0,0.0,90.0,1.0,64.0
4196,58.0,0.0,40.0,12.0,64.0
4197,39.0,0.0,60.0,14.0,64.0
4198,61.0,0.0,90.0,3.0,64.0
4199,82.0,0.0,90.0,0.0,64.0
4200,73.0,0.0,90.0,1.0,64.0
4201,51.0,6.0,60.0,13.0,64.0
4202,67.0,24.0,40.0,11.0,64.0
4203,58.0,30.0,90.0,3.0,64.0
4204,51.0,0.0,90.0,2.0,64.0
4205,67.0,0.0,40.0,11.0,64.0
4206,58.0,60.0,40.0,12.0,64.0
4207,72.0,0.0,180.0,1.0,64.0
4208,68.0,0.0,180.0,1.0,64.0
4209,53.0,0.0,180.0,2.0,64.0
4210,56.0,0.0,40.0,12.0,64.0
4211,53.0,0.0,180.0,13.0,64.0
4212,68.0,36.0,180.0,4.0,64.0
4213,41.0,0.0,180.0,14.0,64.0
4214,60.0,0.0,180.0,3.0,64.0
4215,56.0,0.0,180.0,3.0,64.0
4216,56.0,0.0,180.0,4.0,64.0
4217,80.0,0.0,180.0,0.0,64.0
4218,44.0,0.0,180.0,5.0,64.0
4219,68.0,60.0,40.0,11.0,64.0
4220,68.0,0.0,40.0,11.0,64.0
4221,60.0,60.0,40.0,12.0,64.0
4222,60.0,24.0,40.0,12.0,64.0
4223,72.0,0.0,60.0,10.0,64.0
4224,68.0,0.0,40.0,11.0,64.0
4225,60.0,0.0,40.0,12.0,64.0
4226,68.0,108.0,40.0,11.0,64.0
4227,68.0,0.0,90.0,11.0,64.0
4228,80.0,576.0,180.0,10.0,64.0
4229,60.0,96.0,90.0,12.0,64.0
4230,41.0,12.0,150.0,14.0,64.0
4231,56.0,60.0,40.0,12.0,64.0
4232,60.0,0.0,40.0,11.0,64.0
4233,53.0,0.0,150.0,13.0,64.0
4234,60.0,48.0,40.0,11.0,64.0
4235,56.0,0.0,40.0,12.0,64.0
4236,60.0,24.0,40.0,11.0,64.0
4237,72.0,36.0,60.0,10.0,64.0
4238,56.0,0.0,40.0,12.0,64.0
4239,60.0,0.0,40.0,11.0,64.0
4240,56.0,60.0,40.0,12.0,64.0
4241,56.0,60.0,40.0,12.0,64.0
4242,80.0,6.0,180.0,10.0,64.0
4243,60.0,0.0,40.0,11.0,64.0
4244,56.0,0.0,40.0,12.0,64.0
4245,60.0,60.0,40.0,11.0,64.0
4246,53.0,0.0,90.0,13.0,64.0
4247,56.0,24.0,40.0,12.0,64.0
4248,41.0,30.0,90.0,14.0,64.0
4249,60.0,0.0,40.0,11.0,64.0
4250,60.0,60.0,40.0,11.0,64.0
4251,56.0,0.0,40.0,12.0,64.0
4252,55.0,0.0,40.0,12.0,64.0
4253,36.0,12.0,150.0,14.0,64.0
4254,64.0,60.0,40.0,11.0,64.0
4255,48.0,0.0,150.0,13.0,64.0
4256,64.0,0.0,40.0,11.0,64.0
4257,55.0,48.0,40.0,12.0,64.0
4258,70.0,36.0,60.0,10.0,64.0
4259,64.0,24.0,40.0,11.0,64.0
4260,55.0,0.0,40.0,12.0,64.0
4261,55.0,0.0,40.0,12.0,64.0
4262,64.0,60.0,40.0,11.0,64.0
4263,55.0,60.0,40.0,12.0,64.0
4264,79.0,6.0,180.0,10.0,64.0
4265,64.0,0.0,40.0,11.0,64.0
4266,64.0,0.0,40.0,11.0,64.0
4267,55.0,60.0,40.0,12.0,64.0
4268,48.0,0.0,90.0,13.0,64.0
4269,64.0,24.0,40.0,11.0,64.0
4270,55.0,0.0,40.0,12.0,64.0
4271,36.0,30.0,90.0,14.0,64.0
4272,64.0,0.0,40.0,11.0,64.0
4273,55.0,60.0,40.0,12.0,64.0
4274,65.0,0.0,40.0,11.0,64.0
4275,53.0,60.0,40.0,12.0,64.0
4276,37.0,0.0,180.0,14.0,64.0
4277,49.0,0.0,180.0,13.0,64.0
4278,56.0,60.0,40.0,12.0,64.0
4279,65.0,0.0,40.0,11.0,64.0
4280,65.0,0.0,40.0,11.0,64.0
4281,56.0,24.0,40.0,12.0,64.0
4282,68.0,36.0,60.0,10.0,64.0
4283,56.0,108.0,40.0,12.0,64.0
4284,65.0,0.0,40.0,11.0,64.0
4285,65.0,0.0,90.0,11.0,64.0
4286,77.0,684.0,180.0,10.0,64.0
4287,56.0,96.0,90.0,12.0,64.0
4288,49.0,0.0,150.0,2.0,64.0
4289,53.0,36.0,150.0,2.0,64.0
4290,65.0,0.0,60.0,1.0,64.0
4291,68.0,240.0,60.0,1.0,64.0
4292,77.0,0.0,180.0,1.0,64.0
4293,68.0,6.0,180.0,1.0,64.0
4294,56.0,198.0,90.0,2.0,64.0
4295,49.0,0.0,90.0,2.0,64.0
4296,45.0,36.0,150.0,2.0,64.0
4297,60.0,0.0,150.0,2.0,64.0
4298,63.0,0.0,60.0,1.0,64.0
4299,66.0,240.0,60.0,1.0,64.0
4300,75.0,6.0,180.0,1.0,64.0
4301,66.0,0.0,180.0,1.0,64.0
4302,45.0,234.0,90.0,2.0,64.0
4303,60.0,0.0,90.0,2.0,64.0
4304,61.0,0.0,180.0,2.0,64.0
4305,46.0,240.0,180.0,2.0,64.0
4306,65.0,0.0,60.0,1.0,64.0
4307,61.0,0.0,60.0,1.0,64.0
4308,46.0,0.0,480.0,13.0,64.0
4309,34.0,0.0,480.0,14.0,64.0
4310,65.0,288.0,180.0,1.0,64.0
4311,58.0,0.0,480.0,12.0,64.0
4312,85.0,0.0,480.0,0.0,64.0
4313,65.0,192.0,480.0,11.0,64.0
4314,73.0,0.0,180.0,1.0,64.0
4315,73.0,0.0,480.0,10.0,64.0
4316,72.0,0.0,240.0,10.0,64.0
4317,84.0,5.0,240.0,0.0,64.0
4318,36.0,0.0,180.0,14.0,64.0
4319,48.0,0.0,180.0,13.0,64.0
4320,55.0,120.0,240.0,12.0,64.0
4321,64.0,43.0,180.0,11.0,64.0
4322,37.0,0.0,960.0,14.0,64.0
4323,53.0,0.0,480.0,12.0,64.0
4324,65.0,240.0,240.0,11.0,64.0
4325,49.0,0.0,960.0,13.0,64.0
4326,84.0,0.0,120.0,0.0,64.0
4327,72.0,118.0,120.0,10.0,64.0
4328,71.0,0.0,120.0,10.0,64.0
4329,83.0,2.0,120.0,0.0,64.0
4330,83.0,5.0,480.0,0.0,64.0
4331,71.0,0.0,480.0,10.0,64.0
4332,68.0,235.0,240.0,11.0,64.0
4333,67.0,235.0,240.0,11.0,64.0
4334,52.0,0.0,240.0,12.0,64.0
4335,83.0,5.0,240.0,0.0,64.0
4336,65.0,0.0,240.0,11.0,64.0
4337,53.0,192.0,240.0,12.0,64.0
4338,71.0,0.0,240.0,10.0,64.0
4339,64.0,408.0,180.0,11.0,64.0
4340,48.0,0.0,180.0,13.0,64.0
4341,36.0,0.0,180.0,14.0,64.0
4342,84.0,0.0,180.0,0.0,64.0
4343,55.0,0.0,180.0,12.0,64.0
4344,72.0,0.0,180.0,10.0,64.0
4345,70.0,0.0,480.0,1.0,64.0
4346,72.0,0.0,120.0,10.0,64.0
4347,60.0,120.0,120.0,11.0,64.0
4348,62.0,120.0,120.0,11.0,64.0
4349,74.0,0.0,120.0,10.0,64.0
4350,63.0,0.0,120.0,11.0,64.0
4351,75.0,120.0,120.0,10.0,64.0
4352,64.0,0.0,120.0,11.0,64.0
4353,76.0,120.0,120.0,10.0,64.0
4354,69.0,120.0,480.0,1.0,64.0
4355,72.0,0.0,15.0,1.0,64.0
4356,79.0,96.0,120.0,10.0,64.0
4357,67.0,0.0,120.0,11.0,64.0
4358,60.0,0.0,1920.0,2.0,64.0
4359,65.0,264.0,90.0,11.0,64.0
4360,77.0,0.0,90.0,10.0,64.0
4361,70.0,120.0,480.0,1.0,64.0
4362,67.0,0.0,480.0,1.0,64.0
4363,48.0,0.0,120.0,12.0,64.0
4364,60.0,120.0,120.0,11.0,64.0
4365,62.0,0.0,120.0,11.0,64.0
4366,50.0,120.0,120.0,12.0,64.0
4367,63.0,120.0,120.0,11.0,64.0
4368,51.0,0.0,120.0,12.0,64.0
4369,52.0,0.0,120.0,12.0,64.0
4370,64.0,0.0,120.0,11.0,64.0
4371,67.0,96.0,120.0,11.0,64.0
4372,69.0,120.0,480.0,1.0,64.0
4373,65.0,0.0,480.0,1.0,64.0
4374,55.0,0.0,120.0,12.0,64.0
4375,65.0,264.0,90.0,11.0,64.0
4376,53.0,0.0,90.0,12.0,64.0
4377,36.0,0.0,120.0,14.0,64.0
4378,58.0,0.0,480.0,2.0,64.0
4379,48.0,120.0,120.0,13.0,64.0
4380,67.0,0.0,480.0,1.0,64.0
4381,48.0,0.0,120.0,12.0,64.0
4382,50.0,0.0,120.0,12.0,64.0
4383,50.0,0.0,120.0,13.0,64.0
4384,38.0,120.0,120.0,14.0,64.0
4385,51.0,120.0,120.0,13.0,64.0
4386,39.0,0.0,120.0,14.0,64.0
4387,51.0,0.0,120.0,12.0,64.0
4388,52.0,0.0,120.0,12.0,64.0
4389,40.0,0.0,120.0,14.0,64.0
4390,52.0,120.0,120.0,13.0,64.0
4391,65.0,0.0,180.0,1.0,64.0
4392,55.0,0.0,120.0,12.0,64.0
4393,43.0,0.0,120.0,14.0,64.0
4394,53.0,72.0,120.0,7.0,64.0
4395,55.0,0.0,120.0,13.0,64.0
4396,60.0,0.0,180.0,2.0,64.0
4397,57.0,24.0,180.0,2.0,64.0
4398,41.0,0.0,90.0,14.0,64.0
4399,53.0,0.0,90.0,13.0,64.0
4400,53.0,24.0,90.0,12.0,64.0
4401,60.0,120.0,120.0,7.0,64.0
4402,57.0,120.0,120.0,7.0,64.0
4403,60.0,72.0,120.0,7.0,64.0
4404,69.0,48.0,60.0,6.0,64.0
4405,53.0,72.0,120.0,7.0,64.0
4406,60.0,72.0,120.0,7.0,64.0
4407,70.0,48.0,60.0,6.0,64.0
4408,71.0,48.0,60.0,6.0,64.0
4409,57.0,72.0,120.0,7.0,64.0
4410,60.0,120.0,120.0,7.0,64.0
4411,72.0,48.0,60.0,6.0,64.0
4412,53.0,72.0,120.0,7.0,64.0
4413,74.0,0.0,120.0,6.0,64.0
4414,60.0,72.0,120.0,7.0,64.0
4415,72.0,48.0,60.0,6.0,64.0
4416,70.0,48.0,60.0,6.0,64.0
4417,57.0,72.0,120.0,7.0,64.0
4418,60.0,72.0,120.0,7.0,64.0
4419,69.0,48.0,60.0,6.0,64.0
4420,48.0,30.0,120.0,7.0,64.0
4421,67.0,48.0,60.0,6.0,64.0
4422,58.0,0.0,120.0,7.0,64.0
4423,69.0,30.0,30.0,6.0,64.0
4424,67.0,60.0,30.0,6.0,64.0
4425,65.0,72.0,60.0,6.0,64.0
4426,52.0,72.0,120.0,7.0,64.0
4427,67.0,48.0,60.0,6.0,64.0
4428,58.0,120.0,120.0,7.0,64.0
4429,67.0,48.0,60.0,6.0,64.0
4430,67.0,0.0,120.0,6.0,64.0
4431,53.0,120.0,120.0,7.0,64.0
4432,60.0,72.0,120.0,7.0,64.0
4433,68.0,0.0,120.0,6.0,64.0
4434,57.0,72.0,120.0,7.0,64.0
4435,69.0,48.0,60.0,6.0,64.0
4436,60.0,72.0,120.0,7.0,64.0
4437,65.0,48.0,60.0,6.0,64.0
4438,69.0,120.0,60.0,6.0,64.0
4439,53.0,0.0,180.0,7.0,64.0
4440,70.0,120.0,60.0,6.0,64.0
4441,71.0,120.0,60.0,6.0,64.0
4442,72.0,120.0,60.0,6.0,64.0
4443,73.0,120.0,60.0,6.0,64.0
4444,74.0,120.0,60.0,6.0,64.0
4445,75.0,120.0,60.0,6.0,64.0
4446,76.0,168.0,60.0,6.0,64.0
4447,79.0,72.0,120.0,6.0,64.0
4448,77.0,120.0,60.0,6.0,64.0
4449,50.0,288.0,180.0,7.0,64.0
4450,53.0,0.0,180.0,7.0,64.0
4451,74.0,120.0,60.0,6.0,64.0
4452,70.0,0.0,60.0,6.0,64.0
4453,69.0,0.0,240.0,6.0,64.0
4454,48.0,216.0,330.0,7.0,64.0
4455,53.0,96.0,240.0,7.0,64.0
4456,52.0,0.0,90.0,7.0,64.0
4457,67.0,0.0,90.0,6.0,64.0
4458,81.0,0.0,60.0,0.0,64.0
4459,69.0,0.0,60.0,1.0,64.0
4460,57.0,120.0,60.0,2.0,64.0
4461,70.0,120.0,60.0,1.0,64.0
4462,58.0,0.0,60.0,2.0,64.0
4463,82.0,0.0,60.0,0.0,64.0
4464,59.0,0.0,60.0,2.0,64.0
4465,83.0,120.0,60.0,0.0,64.0
4466,71.0,0.0,60.0,1.0,64.0
4467,72.0,0.0,60.0,1.0,64.0
4468,60.0,0.0,60.0,2.0,64.0
4469,84.0,126.0,60.0,0.0,64.0
4470,53.0,42.0,90.0,11.0,64.0
4471,74.0,0.0,120.0,1.0,64.0
4472,41.0,0.0,180.0,14.0,64.0
4473,57.0,0.0,90.0,10.0,64.0
4474,53.0,0.0,180.0,13.0,64.0
4475,86.0,0.0,120.0,0.0,64.0
4476,62.0,72.0,120.0,2.0,64.0
4477,84.0,0.0,60.0,0.0,64.0
4478,60.0,114.0,90.0,11.0,64.0
4479,72.0,0.0,60.0,1.0,64.0
4480,65.0,0.0,90.0,10.0,64.0
4481,60.0,6.0,60.0,2.0,64.0
4482,60.0,0.0,90.0,10.0,64.0
4483,82.0,0.0,60.0,0.0,64.0
4484,57.0,114.0,90.0,11.0,64.0
4485,58.0,0.0,60.0,2.0,64.0
4486,70.0,6.0,60.0,1.0,64.0
4487,65.0,0.0,90.0,10.0,64.0
4488,60.0,114.0,90.0,11.0,64.0
4489,69.0,6.0,60.0,1.0,64.0
4490,57.0,0.0,60.0,2.0,64.0
4491,81.0,0.0,60.0,0.0,64.0
4492,52.0,0.0,90.0,11.0,64.0
4493,79.0,6.0,60.0,0.0,64.0
4494,55.0,72.0,90.0,10.0,64.0
4495,36.0,6.0,180.0,14.0,64.0
4496,55.0,0.0,60.0,2.0,64.0
4497,67.0,0.0,60.0,1.0,64.0
4498,48.0,0.0,180.0,13.0,64.0
4499,60.0,18.0,90.0,11.0,64.0
4500,81.0,0.0,30.0,0.0,64.0
4501,57.0,30.0,30.0,2.0,64.0
4502,64.0,0.0,90.0,10.0,64.0
4503,69.0,0.0,30.0,1.0,64.0
4504,79.0,12.0,30.0,0.0,64.0
4505,55.0,0.0,30.0,2.0,64.0
4506,67.0,0.0,30.0,1.0,64.0
4507,53.0,96.0,40.0,2.0,64.0
4508,65.0,0.0,40.0,1.0,64.0
4509,77.0,0.0,40.0,0.0,64.0
4510,60.0,114.0,90.0,10.0,64.0
4511,67.0,0.0,60.0,1.0,64.0
4512,79.0,6.0,60.0,0.0,64.0
4513,55.0,0.0,60.0,2.0,64.0
4514,51.0,0.0,90.0,11.0,64.0
4515,69.0,6.0,60.0,1.0,64.0
4516,81.0,0.0,60.0,0.0,64.0
4517,65.0,120.0,90.0,10.0,64.0
4518,63.0,0.0,90.0,11.0,64.0
4519,57.0,0.0,60.0,2.0,64.0
4520,58.0,120.0,90.0,10.0,64.0
4521,50.0,54.0,390.0,13.0,64.0
4522,38.0,0.0,390.0,14.0,64.0
4523,84.0,78.0,240.0,0.0,64.0
4524,60.0,0.0,240.0,2.0,64.0
4525,72.0,0.0,240.0,1.0,64.0
4526,53.0,0.0,90.0,11.0,64.0
4527,62.0,42.0,90.0,11.0,64.0
4528,65.0,0.0,90.0,10.0,64.0
4529,62.0,0.0,90.0,10.0,64.0
4530,58.0,0.0,90.0,2.0,64.0
4531,70.0,48.0,90.0,1.0,64.0
4532,58.0,18.0,90.0,11.0,64.0
4533,82.0,0.0,90.0,0.0,64.0
4534,62.0,0.0,90.0,11.0,64.0
4535,65.0,114.0,90.0,10.0,64.0
4536,62.0,30.0,120.0,7.0,64.0
4537,70.0,48.0,60.0,6.0,64.0
4538,65.0,0.0,120.0,7.0,64.0
4539,72.0,30.0,30.0,6.0,64.0
4540,70.0,60.0,30.0,6.0,64.0
4541,69.0,72.0,60.0,6.0,64.0
4542,62.0,72.0,120.0,7.0,64.0
4543,70.0,48.0,60.0,6.0,64.0
4544,57.0,192.0,120.0,7.0,64.0
4545,72.0,48.0,60.0,6.0,64.0
4546,65.0,72.0,480.0,7.0,64.0
4547,75.0,120.0,180.0,6.0,64.0
4548,58.0,0.0,480.0,7.0,64.0
4549,74.0,168.0,60.0,6.0,64.0
4550,74.0,48.0,60.0,6.0,64.0
4551,58.0,30.0,120.0,7.0,64.0
4552,75.0,30.0,30.0,6.0,64.0
4553,62.0,72.0,120.0,7.0,64.0
4554,74.0,60.0,30.0,6.0,64.0
4555,72.0,0.0,60.0,6.0,64.0
4556,55.0,72.0,120.0,7.0,64.0
4557,74.0,48.0,60.0,6.0,64.0
4558,58.0,120.0,120.0,7.0,64.0
4559,76.0,48.0,60.0,6.0,64.0
4560,57.0,48.0,180.0,7.0,64.0
4561,79.0,72.0,120.0,6.0,64.0
4562,77.0,120.0,120.0,6.0,64.0
4563,74.0,72.0,120.0,6.0,64.0
4564,58.0,48.0,180.0,7.0,64.0
4565,70.0,120.0,120.0,6.0,64.0
4566,69.0,72.0,120.0,6.0,64.0
4567,65.0,48.0,180.0,7.0,64.0
4568,60.0,0.0,420.0,7.0,64.0
4569,72.0,120.0,120.0,6.0,64.0
4570,64.0,48.0,180.0,7.0,64.0
4571,70.0,72.0,120.0,6.0,64.0
4572,67.0,192.0,120.0,6.0,64.0
4573,53.0,0.0,180.0,7.0,64.0
4574,65.0,360.0,180.0,6.0,64.0
4575,69.0,120.0,60.0,6.0,64.0
4576,70.0,120.0,60.0,6.0,64.0
4577,71.0,120.0,60.0,6.0,64.0
4578,72.0,168.0,60.0,6.0,64.0
4579,53.0,0.0,180.0,7.0,64.0
4580,60.0,0.0,180.0,7.0,64.0
4581,57.0,0.0,180.0,7.0,64.0
4582,74.0,72.0,120.0,6.0,64.0
4583,72.0,120.0,60.0,6.0,64.0
4584,70.0,120.0,60.0,6.0,64.0
4585,69.0,120.0,60.0,6.0,64.0
4586,67.0,78.0,60.0,6.0,64.0
4587,48.0,48.0,180.0,7.0,64.0
4588,52.0,0.0,180.0,7.0,64.0
4589,58.0,0.0,180.0,7.0,64.0
4590,69.0,30.0,30.0,6.0,64.0
4591,67.0,12.0,30.0,6.0,64.0
4592,65.0,72.0,60.0,6.0,64.0
4593,67.0,120.0,60.0,6.0,64.0
4594,72.0,240.0,60.0,6.0,64.0
4595,53.0,0.0,180.0,7.0,64.0
4596,57.0,360.0,180.0,7.0,64.0
4597,65.0,0.0,180.0,6.0,64.0
4598,69.0,0.0,60.0,1.0,64.0
4599,81.0,0.0,60.0,0.0,64.0
4600,57.0,120.0,60.0,2.0,64.0
4601,70.0,0.0,60.0,1.0,64.0
4602,82.0,120.0,60.0,0.0,64.0
4603,58.0,0.0,60.0,2.0,64.0
4604,71.0,0.0,60.0,1.0,64.0
4605,83.0,120.0,60.0,0.0,64.0
4606,59.0,0.0,60.0,2.0,64.0
4607,60.0,0.0,60.0,2.0,64.0
4608,84.0,168.0,60.0,0.0,64.0
4609,72.0,0.0,60.0,1.0,64.0
4610,74.0,0.0,120.0,1.0,64.0
4611,53.0,0.0,180.0,13.0,64.0
4612,86.0,0.0,120.0,0.0,64.0
4613,60.0,0.0,180.0,10.0,64.0
4614,57.0,120.0,180.0,11.0,64.0
4615,62.0,72.0,120.0,2.0,64.0
4616,53.0,0.0,180.0,12.0,64.0
4617,41.0,0.0,180.0,14.0,64.0
4618,60.0,0.0,60.0,2.0,64.0
4619,72.0,0.0,60.0,1.0,64.0
4620,84.0,0.0,60.0,0.0,64.0
4621,58.0,120.0,60.0,2.0,64.0
4622,82.0,0.0,60.0,0.0,64.0
4623,70.0,0.0,60.0,1.0,64.0
4624,81.0,0.0,60.0,0.0,64.0
4625,57.0,120.0,60.0,2.0,64.0
4626,69.0,0.0,60.0,1.0,64.0
4627,36.0,0.0,180.0,14.0,64.0
4628,55.0,0.0,60.0,2.0,64.0
4629,64.0,0.0,180.0,10.0,64.0
4630,48.0,0.0,180.0,13.0,64.0
4631,67.0,78.0,60.0,1.0,64.0
4632,79.0,0.0,60.0,0.0,64.0
4633,58.0,48.0,180.0,11.0,64.0
4634,55.0,0.0,180.0,12.0,64.0
4635,81.0,0.0,30.0,0.0,64.0
4636,57.0,0.0,30.0,2.0,64.0
4637,69.0,30.0,30.0,1.0,64.0
4638,67.0,12.0,30.0,1.0,64.0
4639,55.0,0.0,30.0,2.0,64.0
4640,79.0,0.0,30.0,0.0,64.0
4641,53.0,72.0,60.0,2.0,64.0
4642,77.0,0.0,60.0,0.0,64.0
4643,65.0,0.0,60.0,1.0,64.0
4644,67.0,0.0,60.0,1.0,64.0
4645,79.0,120.0,60.0,0.0,64.0
4646,55.0,0.0,60.0,2.0,64.0
4647,84.0,240.0,60.0,0.0,64.0
4648,72.0,0.0,60.0,1.0,64.0
4649,60.0,0.0,60.0,2.0,64.0
4650,77.0,0.0,180.0,0.0,64.0
4651,29.0,360.0,180.0,14.0,64.0
4652,53.0,0.0,180.0,12.0,64.0
4653,65.0,0.0,180.0,10.0,64.0
4654,65.0,0.0,180.0,1.0,64.0
4655,53.0,0.0,180.0,2.0,64.0
4656,57.0,0.0,180.0,11.0,64.0
4657,41.0,0.0,180.0,13.0,64.0
4658,52.0,192.0,480.0,7.0,64.0
4659,48.0,0.0,480.0,7.0,64.0
4660,58.0,0.0,480.0,7.0,64.0
4661,67.0,78.0,60.0,6.0,64.0
4662,68.0,30.0,30.0,6.0,64.0
4663,67.0,60.0,30.0,6.0,64.0
4664,65.0,72.0,60.0,6.0,64.0
4665,67.0,120.0,60.0,6.0,64.0
4666,72.0,48.0,60.0,6.0,64.0
4667,65.0,0.0,180.0,6.0,64.0
4668,56.0,0.0,180.0,7.0,64.0
4669,53.0,360.0,180.0,7.0,64.0
4670,67.0,0.0,60.0,1.0,64.0
4671,64.0,0.0,480.0,10.0,64.0
4672,55.0,78.0,60.0,2.0,64.0
4673,36.0,72.0,480.0,14.0,64.0
4674,58.0,0.0,480.0,11.0,64.0
4675,48.0,0.0,480.0,13.0,64.0
4676,79.0,0.0,60.0,0.0,64.0
4677,55.0,0.0,480.0,12.0,64.0
4678,68.0,30.0,30.0,1.0,64.0
4679,56.0,0.0,30.0,2.0,64.0
4680,80.0,0.0,30.0,0.0,64.0
4681,79.0,0.0,30.0,0.0,64.0
4682,55.0,60.0,30.0,2.0,64.0
4683,67.0,0.0,30.0,1.0,64.0
4684,53.0,0.0,60.0,2.0,64.0
4685,65.0,0.0,60.0,1.0,64.0
4686,77.0,72.0,60.0,0.0,64.0
4687,67.0,0.0,60.0,1.0,64.0
4688,79.0,0.0,60.0,0.0,64.0
4689,55.0,120.0,60.0,2.0,64.0
4690,72.0,0.0,60.0,1.0,64.0
4691,60.0,48.0,60.0,2.0,64.0
4692,84.0,0.0,60.0,0.0,64.0
4693,53.0,0.0,180.0,2.0,64.0
4694,65.0,78.0,60.0,6.0,64.0
4695,65.0,0.0,180.0,1.0,64.0
4696,53.0,0.0,180.0,12.0,64.0
4697,56.0,0.0,180.0,7.0,64.0
4698,56.0,48.0,180.0,11.0,64.0
4699,60.0,0.0,180.0,7.0,64.0
4700,65.0,0.0,180.0,10.0,64.0
4701,53.0,0.0,180.0,13.0,64.0
4702,53.0,0.0,180.0,7.0,64.0
4703,41.0,0.0,180.0,14.0,64.0
4704,77.0,0.0,180.0,0.0,64.0
4705,67.0,30.0,30.0,6.0,64.0
4706,65.0,12.0,30.0,6.0,64.0
4707,64.0,72.0,60.0,6.0,64.0
4708,65.0,120.0,60.0,6.0,64.0
4709,67.0,240.0,60.0,6.0,64.0
4710,68.0,120.0,180.0,6.0,64.0
4711,56.0,0.0,60.0,7.0,64.0
4712,60.0,0.0,60.0,7.0,64.0
4713,53.0,0.0,60.0,7.0,64.0
4714,60.0,120.0,60.0,7.0,64.0
4715,56.0,0.0,60.0,7.0,64.0
4716,53.0,0.0,60.0,7.0,64.0
4717,60.0,0.0,60.0,7.0,64.0
4718,56.0,120.0,60.0,7.0,64.0
4719,53.0,0.0,60.0,7.0,64.0
4720,68.0,78.0,60.0,6.0,64.0
4721,53.0,48.0,180.0,7.0,64.0
4722,56.0,0.0,180.0,7.0,64.0
4723,60.0,0.0,180.0,7.0,64.0
4724,70.0,30.0,30.0,6.0,64.0
4725,68.0,12.0,30.0,6.0,64.0
4726,67.0,72.0,60.0,6.0,64.0
4727,68.0,120.0,60.0,6.0,64.0
4728,70.0,240.0,60.0,6.0,64.0
4729,72.0,0.0,180.0,6.0,64.0
4730,60.0,120.0,60.0,7.0,64.0
4731,53.0,0.0,60.0,7.0,64.0
4732,56.0,0.0,60.0,7.0,64.0
4733,60.0,0.0,60.0,7.0,64.0
4734,56.0,0.0,60.0,7.0,64.0
4735,53.0,120.0,60.0,7.0,64.0
4736,60.0,120.0,60.0,7.0,64.0
4737,53.0,0.0,60.0,7.0,64.0
4738,56.0,0.0,60.0,7.0,64.0
4739,54.0,0.0,1140.0,7.0,64.0
4740,56.0,0.0,1140.0,7.0,64.0
4741,60.0,0.0,1140.0,7.0,64.0
4742,72.0,78.0,60.0,6.0,64.0
4743,51.0,48.0,1140.0,7.0,64.0
4744,73.0,30.0,30.0,6.0,64.0
4745,72.0,60.0,30.0,6.0,64.0
4746,70.0,72.0,60.0,6.0,64.0
4747,72.0,120.0,60.0,6.0,64.0
4748,73.0,120.0,60.0,6.0,64.0
4749,75.0,78.0,60.0,6.0,64.0
4750,77.0,30.0,30.0,6.0,64.0
4751,75.0,60.0,30.0,6.0,64.0
4752,73.0,72.0,60.0,6.0,64.0
4753,75.0,120.0,60.0,6.0,64.0
4754,77.0,120.0,60.0,6.0,64.0
4755,78.0,78.0,60.0,6.0,64.0
4756,44.0,0.0,960.0,13.0,64.0
4757,60.0,70.0,960.0,12.0,64.0
4758,66.0,0.0,960.0,10.0,64.0
4759,32.0,0.0,960.0,14.0,64.0
4760,63.0,0.0,960.0,11.0,64.0
4761,80.0,30.0,30.0,6.0,64.0
4762,78.0,12.0,30.0,6.0,64.0
4763,77.0,72.0,60.0,6.0,64.0
4764,78.0,120.0,60.0,6.0,64.0
4765,80.0,240.0,60.0,6.0,64.0
4766,82.0,240.0,180.0,6.0,64.0
4767,60.0,38.0,180.0,6.0,64.0
4768,61.0,0.0,180.0,11.0,64.0
4769,65.0,0.0,180.0,10.0,64.0
4770,61.0,48.0,180.0,12.0,64.0
4771,61.0,60.0,60.0,7.0,64.0
4772,49.0,0.0,180.0,13.0,64.0
4773,37.0,0.0,180.0,14.0,64.0
4774,68.0,60.0,60.0,7.0,64.0
4775,65.0,12.0,60.0,7.0,64.0
4776,68.0,60.0,60.0,7.0,64.0
4777,61.0,60.0,60.0,7.0,64.0
4778,68.0,60.0,60.0,7.0,64.0
4779,65.0,60.0,60.0,7.0,64.0
4780,68.0,60.0,60.0,7.0,64.0
4781,53.0,48.0,60.0,8.0,64.0
4782,41.0,0.0,60.0,8.0,64.0
4783,65.0,12.0,60.0,7.0,64.0
4784,73.0,60.0,60.0,7.0,64.0
4785,68.0,12.0,60.0,7.0,64.0
4786,42.0,0.0,60.0,8.0,64.0
4787,54.0,48.0,60.0,8.0,64.0
4788,73.0,60.0,60.0,7.0,64.0
4789,43.0,0.0,60.0,8.0,64.0
4790,55.0,48.0,60.0,8.0,64.0
4791,65.0,12.0,60.0,7.0,64.0
4792,73.0,60.0,60.0,7.0,64.0
4793,68.0,12.0,60.0,7.0,64.0
4794,44.0,48.0,60.0,8.0,64.0
4795,56.0,0.0,60.0,8.0,64.0
4796,73.0,60.0,60.0,7.0,64.0
4797,46.0,0.0,120.0,8.0,64.0
4798,63.0,60.0,60.0,7.0,64.0
4799,58.0,60.0,120.0,8.0,64.0
4800,73.0,0.0,60.0,7.0,64.0
4801,68.0,12.0,60.0,7.0,64.0
4802,56.0,0.0,60.0,8.0,64.0
4803,44.0,48.0,60.0,8.0,64.0
4804,73.0,60.0,60.0,7.0,64.0
4805,63.0,60.0,60.0,7.0,64.0
4806,72.0,60.0,60.0,7.0,64.0
4807,68.0,60.0,60.0,7.0,64.0
4808,72.0,60.0,60.0,7.0,64.0
4809,59.0,48.0,60.0,1.0,64.0
4810,47.0,0.0,60.0,2.0,64.0
4811,63.0,12.0,60.0,7.0,64.0
4812,35.0,0.0,60.0,2.0,64.0
4813,71.0,60.0,60.0,7.0,64.0
4814,49.0,48.0,60.0,2.0,64.0
4815,37.0,0.0,60.0,2.0,64.0
4816,68.0,12.0,60.0,7.0,64.0
4817,61.0,0.0,60.0,1.0,64.0
4818,71.0,60.0,60.0,7.0,64.0
4819,50.0,48.0,60.0,2.0,64.0
4820,62.0,0.0,60.0,1.0,64.0
4821,38.0,0.0,60.0,2.0,64.0
4822,63.0,12.0,60.0,7.0,64.0
4823,71.0,60.0,60.0,7.0,64.0
4824,51.0,0.0,60.0,2.0,64.0
4825,63.0,0.0,60.0,1.0,64.0
4826,68.0,12.0,60.0,7.0,64.0
4827,39.0,48.0,60.0,2.0,64.0
4828,71.0,60.0,60.0,7.0,64.0
4829,64.0,0.0,120.0,1.0,64.0
4830,63.0,60.0,60.0,7.0,64.0
4831,52.0,60.0,120.0,2.0,64.0
4832,40.0,0.0,120.0,2.0,64.0
4833,70.0,0.0,60.0,7.0,64.0
4834,51.0,48.0,60.0,2.0,64.0
4835,39.0,0.0,60.0,2.0,64.0
4836,63.0,0.0,60.0,1.0,64.0
4837,68.0,12.0,60.0,7.0,64.0
4838,70.0,60.0,60.0,7.0,64.0
4839,63.0,60.0,60.0,7.0,64.0
4840,70.0,60.0,60.0,7.0,64.0
4841,67.0,60.0,60.0,7.0,64.0
4842,70.0,60.0,60.0,7.0,64.0
4843,54.0,48.0,60.0,8.0,64.0
4844,66.0,12.0,60.0,7.0,64.0
4845,42.0,0.0,60.0,8.0,64.0
4846,75.0,60.0,60.0,7.0,64.0
4847,70.0,12.0,60.0,7.0,64.0
4848,56.0,0.0,60.0,8.0,64.0
4849,44.0,48.0,60.0,8.0,64.0
4850,75.0,60.0,60.0,7.0,64.0
4851,57.0,48.0,60.0,8.0,64.0
4852,45.0,0.0,60.0,8.0,64.0
4853,66.0,12.0,60.0,7.0,64.0
4854,75.0,60.0,60.0,7.0,64.0
4855,70.0,12.0,60.0,7.0,64.0
4856,46.0,0.0,60.0,8.0,64.0
4857,58.0,48.0,60.0,8.0,64.0
4858,75.0,60.0,60.0,7.0,64.0
4859,47.0,60.0,120.0,8.0,64.0
4860,59.0,0.0,120.0,8.0,64.0
4861,65.0,60.0,60.0,7.0,64.0
4862,75.0,0.0,60.0,7.0,64.0
4863,70.0,12.0,60.0,7.0,64.0
4864,58.0,48.0,60.0,8.0,64.0
4865,46.0,0.0,60.0,8.0,64.0
4866,75.0,60.0,60.0,7.0,64.0
4867,65.0,60.0,60.0,7.0,64.0
4868,74.0,60.0,60.0,7.0,64.0
4869,70.0,60.0,60.0,7.0,64.0
4870,74.0,60.0,60.0,7.0,64.0
4871,37.0,48.0,60.0,2.0,64.0
4872,65.0,12.0,60.0,7.0,64.0
4873,49.0,0.0,60.0,2.0,64.0
4874,61.0,0.0,60.0,1.0,64.0
4875,73.0,60.0,60.0,7.0,64.0
4876,51.0,48.0,60.0,2.0,64.0
4877,63.0,0.0,60.0,1.0,64.0
4878,70.0,12.0,60.0,7.0,64.0
4879,39.0,0.0,60.0,2.0,64.0
4880,73.0,60.0,60.0,7.0,64.0
4881,64.0,0.0,60.0,1.0,64.0
4882,65.0,12.0,60.0,7.0,64.0
4883,40.0,48.0,60.0,2.0,64.0
4884,52.0,0.0,60.0,2.0,64.0
4885,73.0,60.0,60.0,7.0,64.0
4886,65.0,48.0,60.0,1.0,64.0
4887,70.0,12.0,60.0,7.0,64.0
4888,41.0,0.0,60.0,2.0,64.0
4889,53.0,0.0,60.0,2.0,64.0
4890,73.0,60.0,60.0,7.0,64.0
4891,66.0,0.0,120.0,1.0,64.0
4892,65.0,60.0,60.0,7.0,64.0
4893,42.0,0.0,120.0,2.0,64.0
4894,54.0,60.0,120.0,2.0,64.0
4895,72.0,0.0,60.0,7.0,64.0
4896,70.0,12.0,60.0,7.0,64.0
4897,53.0,0.0,60.0,2.0,64.0
4898,65.0,0.0,60.0,1.0,64.0
4899,41.0,48.0,60.0,2.0,64.0
4900,72.0,60.0,60.0,7.0,64.0
4901,65.0,60.0,60.0,7.0,64.0
4902,72.0,60.0,60.0,7.0,64.0
4903,69.0,60.0,60.0,7.0,64.0
4904,72.0,60.0,60.0,7.0,64.0
4905,44.0,48.0,60.0,8.0,64.0
4906,68.0,12.0,60.0,7.0,64.0
4907,56.0,0.0,60.0,8.0,64.0
4908,77.0,60.0,60.0,7.0,64.0
4909,45.0,48.0,60.0,8.0,64.0
4910,72.0,12.0,60.0,7.0,64.0
4911,57.0,0.0,60.0,8.0,64.0
4912,77.0,60.0,60.0,7.0,64.0
4913,68.0,12.0,60.0,7.0,64.0
4914,46.0,0.0,60.0,8.0,64.0
4915,58.0,48.0,60.0,8.0,64.0
4916,77.0,60.0,60.0,7.0,64.0
4917,47.0,48.0,60.0,8.0,64.0
4918,59.0,0.0,60.0,8.0,64.0
4919,72.0,12.0,60.0,7.0,64.0
4920,77.0,48.0,60.0,7.0,64.0
4921,61.0,0.0,120.0,8.0,64.0
4922,49.0,48.0,120.0,8.0,64.0
4923,67.0,60.0,40.0,7.0,64.0
4924,77.0,12.0,40.0,7.0,64.0
4925,60.0,36.0,60.0,8.0,64.0
4926,48.0,0.0,60.0,8.0,64.0
4927,72.0,24.0,40.0,7.0,64.0
4928,77.0,60.0,40.0,7.0,64.0
4929,67.0,60.0,40.0,7.0,64.0
4930,76.0,60.0,40.0,7.0,64.0
4931,72.0,60.0,40.0,7.0,64.0
4932,76.0,72.0,40.0,7.0,64.0
4933,63.0,48.0,60.0,1.0,64.0
4934,67.0,12.0,60.0,7.0,64.0
4935,39.0,0.0,60.0,2.0,64.0
4936,51.0,0.0,60.0,2.0,64.0
4937,75.0,60.0,60.0,7.0,64.0
4938,65.0,0.0,60.0,1.0,64.0
4939,53.0,0.0,60.0,2.0,64.0
4940,72.0,12.0,60.0,7.0,64.0
4941,41.0,48.0,60.0,2.0,64.0
4942,75.0,60.0,60.0,7.0,64.0
4943,66.0,0.0,60.0,1.0,64.0
4944,67.0,12.0,60.0,7.0,64.0
4945,42.0,0.0,60.0,2.0,64.0
4946,54.0,48.0,60.0,2.0,64.0
4947,75.0,60.0,60.0,7.0,64.0
4948,72.0,12.0,60.0,7.0,64.0
4949,55.0,0.0,60.0,2.0,64.0
4950,43.0,0.0,60.0,2.0,64.0
4951,67.0,48.0,60.0,1.0,64.0
4952,75.0,60.0,60.0,7.0,64.0
4953,72.0,60.0,60.0,7.0,64.0
4954,68.0,0.0,120.0,1.0,64.0
4955,56.0,60.0,120.0,2.0,64.0
4956,44.0,0.0,120.0,2.0,64.0
4957,74.0,0.0,60.0,7.0,64.0
4958,43.0,0.0,60.0,2.0,64.0
4959,55.0,0.0,60.0,2.0,64.0
4960,67.0,48.0,60.0,1.0,64.0
4961,71.0,12.0,60.0,7.0,64.0
4962,74.0,60.0,60.0,7.0,64.0
4963,70.0,60.0,60.0,7.0,64.0
4964,38.0,0.0,120.0,8.0,64.0
4965,50.0,0.0,120.0,8.0,64.0
4966,79.0,60.0,60.0,7.0,64.0
4967,52.0,0.0,90.0,8.0,64.0
4968,40.0,42.0,90.0,8.0,64.0
4969,70.0,18.0,60.0,7.0,64.0
4970,79.0,60.0,60.0,7.0,64.0
4971,55.0,60.0,120.0,8.0,64.0
4972,43.0,0.0,120.0,8.0,64.0
4973,68.0,60.0,60.0,7.0,64.0
4974,72.0,0.0,60.0,7.0,64.0
4975,53.0,42.0,90.0,8.0,64.0
4976,41.0,0.0,90.0,8.0,64.0
4977,68.0,18.0,60.0,7.0,64.0
4978,72.0,60.0,60.0,7.0,64.0
4979,36.0,0.0,120.0,2.0,64.0
4980,48.0,0.0,120.0,2.0,64.0
4981,68.0,60.0,60.0,7.0,64.0
4982,60.0,60.0,120.0,1.0,64.0
4983,77.0,0.0,60.0,7.0,64.0
4984,50.0,0.0,90.0,2.0,64.0
4985,38.0,0.0,90.0,2.0,64.0
4986,62.0,42.0,90.0,1.0,64.0
4987,68.0,18.0,60.0,7.0,64.0
4988,77.0,60.0,60.0,7.0,64.0
4989,65.0,0.0,120.0,1.0,64.0
4990,41.0,0.0,120.0,2.0,64.0
4991,53.0,60.0,120.0,2.0,64.0
4992,67.0,60.0,60.0,7.0,64.0
4993,70.0,0.0,60.0,7.0,64.0
4994,51.0,0.0,90.0,2.0,64.0
4995,39.0,0.0,90.0,2.0,64.0
4996,63.0,42.0,90.0,1.0,64.0
4997,67.0,18.0,60.0,7.0,64.0
4998,70.0,60.0,60.0,7.0,64.0
4999,67.0,60.0,60.0,7.0,64.0
5000,34.0,0.0,120.0,8.0,64.0
5001,46.0,60.0,120.0,8.0,64.0
5002,75.0,0.0,60.0,7.0,64.0
5003,67.0,18.0,60.0,7.0,64.0
5004,36.0,0.0,90.0,8.0,64.0
5005,48.0,42.0,90.0,8.0,64.0
5006,75.0,60.0,60.0,7.0,64.0
5007,65.0,60.0,60.0,7.0,64.0
5008,51.0,0.0,120.0,8.0,64.0
5009,39.0,0.0,120.0,8.0,64.0
5010,68.0,60.0,60.0,7.0,64.0
5011,37.0,0.0,90.0,8.0,64.0
5012,49.0,42.0,90.0,8.0,64.0
5013,65.0,18.0,60.0,7.0,64.0
5014,68.0,60.0,60.0,7.0,64.0
5015,32.0,0.0,120.0,2.0,64.0
5016,44.0,0.0,120.0,2.0,64.0
5017,56.0,60.0,120.0,1.0,64.0
5018,65.0,60.0,60.0,7.0,64.0
5019,73.0,0.0,60.0,7.0,64.0
5020,65.0,18.0,60.0,7.0,64.0
5021,58.0,0.0,90.0,1.0,64.0
5022,34.0,42.0,90.0,2.0,64.0
5023,46.0,0.0,90.0,2.0,64.0
5024,73.0,48.0,60.0,7.0,64.0
5025,64.0,60.0,40.0,7.0,64.0
5026,61.0,0.0,120.0,1.0,64.0
5027,49.0,48.0,120.0,2.0,64.0
5028,37.0,0.0,120.0,2.0,64.0
5029,67.0,12.0,40.0,7.0,64.0
5030,60.0,0.0,90.0,1.0,64.0
5031,36.0,30.0,90.0,2.0,64.0
5032,48.0,0.0,90.0,2.0,64.0
5033,64.0,30.0,40.0,7.0,64.0
5034,67.0,60.0,40.0,7.0,64.0
5035,43.0,48.0,120.0,8.0,64.0
5036,31.0,0.0,120.0,8.0,64.0
5037,63.0,60.0,40.0,7.0,64.0
5038,72.0,12.0,40.0,7.0,64.0
5039,45.0,12.0,90.0,8.0,64.0
5040,63.0,48.0,40.0,7.0,64.0
5041,33.0,0.0,90.0,8.0,64.0
5042,72.0,72.0,40.0,7.0,64.0
5043,62.0,60.0,60.0,7.0,64.0
5044,48.0,0.0,120.0,8.0,64.0
5045,36.0,0.0,120.0,8.0,64.0
5046,65.0,60.0,60.0,7.0,64.0
5047,46.0,0.0,90.0,8.0,64.0
5048,34.0,24.0,90.0,8.0,64.0
5049,62.0,36.0,60.0,7.0,64.0
5050,65.0,60.0,60.0,7.0,64.0
5051,53.0,0.0,120.0,2.0,64.0
5052,61.0,60.0,60.0,7.0,64.0
5053,41.0,0.0,120.0,8.0,64.0
5054,29.0,0.0,120.0,8.0,64.0
5055,41.0,0.0,120.0,2.0,64.0
5056,70.0,60.0,60.0,7.0,64.0
5057,55.0,0.0,90.0,2.0,64.0
5058,43.0,0.0,90.0,8.0,64.0
5059,61.0,36.0,60.0,7.0,64.0
5060,43.0,0.0,90.0,2.0,64.0
5061,31.0,24.0,90.0,8.0,64.0
5062,70.0,60.0,60.0,7.0,64.0
5063,44.0,0.0,180.0,8.0,64.0
5064,60.0,60.0,60.0,7.0,64.0
5065,63.0,0.0,480.0,1.0,64.0
5066,32.0,48.0,180.0,8.0,64.0
5067,72.0,0.0,480.0,0.0,64.0
5068,44.0,0.0,180.0,2.0,64.0
5069,56.0,0.0,180.0,2.0,64.0
5070,68.0,60.0,480.0,1.0,64.0
5071,63.0,60.0,60.0,7.0,64.0
5072,68.0,12.0,60.0,7.0,64.0
5073,63.0,60.0,60.0,7.0,64.0
5074,42.0,0.0,180.0,8.0,64.0
5075,30.0,48.0,180.0,8.0,64.0
5076,60.0,60.0,60.0,7.0,64.0
5077,63.0,60.0,60.0,7.0,64.0
5078,68.0,12.0,60.0,7.0,64.0
5079,63.0,0.0,60.0,7.0,64.0
5080,59.0,60.0,60.0,7.0,64.0
5081,28.0,48.0,180.0,8.0,64.0
5082,40.0,0.0,180.0,8.0,64.0
5083,74.0,0.0,240.0,0.0,64.0
5084,71.0,0.0,1920.0,1.0,64.0
5085,62.0,60.0,60.0,7.0,64.0
5086,68.0,12.0,60.0,7.0,64.0
5087,62.0,60.0,60.0,7.0,64.0
5088,75.0,120.0,240.0,0.0,64.0
5089,39.0,0.0,180.0,8.0,64.0
5090,59.0,60.0,60.0,7.0,64.0
5091,27.0,48.0,180.0,8.0,64.0
5092,63.0,60.0,60.0,7.0,64.0
5093,68.0,12.0,60.0,7.0,64.0
5094,63.0,0.0,60.0,7.0,64.0
5095,26.0,0.0,1140.0,8.0,64.0
5096,50.0,0.0,1920.0,2.0,64.0
5097,53.0,60.0,1440.0,2.0,64.0
5098,38.0,48.0,1140.0,8.0,64.0
5099,77.0,60.0,480.0,0.0,64.0
5100,56.0,60.0,60.0,7.0,64.0
5101,59.0,60.0,60.0,7.0,64.0
5102,62.0,60.0,60.0,7.0,64.0
5103,65.0,60.0,60.0,7.0,64.0
5104,59.0,60.0,60.0,7.0,64.0
5105,62.0,60.0,60.0,7.0,64.0
5106,65.0,0.0,60.0,7.0,64.0
5107,68.0,60.0,60.0,7.0,64.0
5108,80.0,0.0,480.0,0.0,64.0
5109,62.0,60.0,60.0,7.0,64.0
5110,65.0,60.0,60.0,7.0,64.0
5111,68.0,60.0,60.0,7.0,64.0
5112,71.0,60.0,60.0,7.0,64.0
5113,65.0,60.0,60.0,7.0,64.0
5114,68.0,60.0,60.0,7.0,64.0
5115,71.0,60.0,60.0,7.0,64.0
5116,74.0,60.0,60.0,7.0,64.0
5117,83.0,0.0,480.0,0.0,64.0
5118,68.0,60.0,60.0,7.0,64.0
5119,71.0,12.0,60.0,7.0,64.0
5120,74.0,60.0,60.0,7.0,64.0
5121,77.0,60.0,60.0,7.0,64.0
5122,71.0,60.0,60.0,7.0,64.0
5123,74.0,60.0,60.0,7.0,64.0
5124,77.0,0.0,60.0,7.0,64.0
5125,80.0,60.0,60.0,7.0,64.0
5126,68.0,0.0,15.0,1.0,64.0
5127,71.0,59.0,480.0,0.0,64.0
5128,65.0,36.0,390.0,1.0,64.0
5129,56.0,0.0,480.0,2.0,64.0
5130,77.0,60.0,60.0,7.0,64.0
5131,74.0,60.0,60.0,7.0,64.0
5132,71.0,60.0,60.0,7.0,64.0
5133,77.0,60.0,60.0,7.0,64.0
5134,74.0,24.0,60.0,7.0,64.0
5135,71.0,60.0,60.0,7.0,64.0
5136,68.0,0.0,60.0,7.0,64.0
5137,67.0,47.0,180.0,1.0,64.0
5138,58.0,0.0,480.0,7.0,64.0
5139,55.0,9.0,480.0,7.0,64.0
5140,51.0,0.0,180.0,2.0,64.0
5141,51.0,0.0,960.0,7.0,64.0
5142,39.0,0.0,3060.0,14.0,64.0
5143,58.0,118.0,480.0,11.0,64.0
5144,70.0,0.0,180.0,0.0,64.0
5145,67.0,60.0,60.0,6.0,64.0
5146,55.0,0.0,480.0,12.0,64.0
5147,51.0,408.0,3060.0,13.0,64.0
5148,63.0,118.0,600.0,10.0,64.0
5149,75.0,60.0,60.0,6.0,64.0
5150,70.0,13.0,60.0,6.0,64.0
5151,67.0,60.0,60.0,6.0,64.0
5152,63.0,60.0,60.0,6.0,64.0
5153,75.0,60.0,60.0,6.0,64.0
5154,63.0,51.0,60.0,6.0,64.0
5155,75.0,1.0,60.0,6.0,64.0
5156,75.0,0.0,120.0,6.0,64.0
5157,56.0,0.0,480.0,12.0,64.0
5158,56.0,0.0,480.0,7.0,64.0
5159,59.0,59.0,480.0,11.0,64.0
5160,63.0,2.0,120.0,6.0,64.0
5161,59.0,8.0,480.0,7.0,64.0
5162,76.0,2.0,120.0,6.0,64.0
5163,64.0,0.0,120.0,6.0,64.0
5164,64.0,118.0,120.0,10.0,64.0
5165,63.0,110.0,120.0,10.0,64.0
5166,75.0,2.0,120.0,6.0,64.0
5167,63.0,0.0,120.0,6.0,64.0
5168,62.0,2.0,120.0,6.0,64.0
5169,62.0,0.0,120.0,10.0,64.0
5170,74.0,0.0,120.0,6.0,64.0
5171,63.0,118.0,600.0,10.0,64.0
5172,67.0,60.0,60.0,6.0,64.0
5173,55.0,0.0,480.0,12.0,64.0
5174,58.0,118.0,480.0,11.0,64.0
5175,51.0,0.0,960.0,7.0,64.0
5176,58.0,0.0,480.0,7.0,64.0
5177,55.0,9.0,480.0,7.0,64.0
5178,75.0,60.0,60.0,6.0,64.0
5179,70.0,60.0,60.0,6.0,64.0
5180,67.0,60.0,60.0,6.0,64.0
5181,63.0,60.0,60.0,6.0,64.0
5182,75.0,60.0,60.0,6.0,64.0
5183,63.0,51.0,60.0,6.0,64.0
5184,75.0,1.0,60.0,6.0,64.0
5185,59.0,118.0,480.0,11.0,64.0
5186,56.0,8.0,480.0,7.0,64.0
5187,59.0,0.0,480.0,7.0,64.0
5188,56.0,0.0,480.0,12.0,64.0
5189,75.0,2.0,120.0,6.0,64.0
5190,63.0,0.0,120.0,6.0,64.0
5191,64.0,118.0,120.0,10.0,64.0
5192,76.0,0.0,120.0,6.0,64.0
5193,64.0,2.0,120.0,6.0,64.0
5194,63.0,2.0,120.0,6.0,64.0
5195,75.0,0.0,120.0,6.0,64.0
5196,63.0,110.0,120.0,10.0,64.0
5197,62.0,0.0,120.0,6.0,64.0
5198,74.0,2.0,120.0,6.0,64.0
5199,62.0,0.0,120.0,10.0,64.0
5200,63.0,118.0,120.0,10.0,64.0
5201,55.0,0.0,240.0,7.0,64.0
5202,75.0,0.0,120.0,6.0,64.0
5203,58.0,0.0,240.0,11.0,64.0
5204,58.0,0.0,240.0,7.0,64.0
5205,55.0,118.0,240.0,12.0,64.0
5206,51.0,0.0,960.0,8.0,64.0
5207,63.0,2.0,120.0,6.0,64.0
5208,64.0,0.0,120.0,10.0,64.0
5209,76.0,2.0,120.0,6.0,64.0
5210,64.0,0.0,120.0,6.0,64.0
5211,56.0,0.0,240.0,7.0,64.0
5212,59.0,0.0,240.0,7.0,64.0
5213,75.0,2.0,120.0,6.0,64.0
5214,63.0,0.0,120.0,6.0,64.0
5215,59.0,118.0,240.0,11.0,64.0
5216,56.0,0.0,240.0,12.0,64.0
5217,63.0,96.0,120.0,10.0,64.0
5218,62.0,22.0,90.0,10.0,64.0
5219,62.0,0.0,120.0,6.0,64.0
5220,74.0,2.0,120.0,6.0,64.0
5221,58.0,0.0,240.0,7.0,64.0
5222,58.0,0.0,240.0,11.0,64.0
5223,55.0,118.0,240.0,7.0,64.0
5224,55.0,0.0,240.0,12.0,64.0
5225,63.0,2.0,120.0,6.0,64.0
5226,75.0,0.0,120.0,6.0,64.0
5227,63.0,118.0,120.0,10.0,64.0
5228,64.0,0.0,120.0,10.0,64.0
5229,64.0,0.0,120.0,6.0,64.0
5230,76.0,2.0,120.0,6.0,64.0
5231,63.0,2.0,120.0,6.0,64.0
5232,75.0,0.0,120.0,6.0,64.0
5233,56.0,0.0,240.0,12.0,64.0
5234,63.0,96.0,120.0,10.0,64.0
5235,59.0,0.0,240.0,11.0,64.0
5236,59.0,0.0,240.0,7.0,64.0
5237,56.0,192.0,240.0,7.0,64.0
5238,74.0,0.0,120.0,6.0,64.0
5239,62.0,2.0,120.0,6.0,64.0
5240,62.0,22.0,90.0,10.0,64.0
5241,63.0,0.0,180.0,10.0,64.0
5242,75.0,0.0,1440.0,1.0,64.0
5243,63.0,0.0,180.0,6.0,64.0
5244,58.0,0.0,180.0,7.0,64.0
5245,55.0,0.0,180.0,7.0,64.0
5246,58.0,0.0,180.0,11.0,64.0
5247,55.0,0.0,180.0,12.0,64.0
5248,51.0,0.0,180.0,8.0,64.0
5249,75.0,0.0,180.0,6.0,64.0
5250,63.0,120.0,120.0,11.0,64.0
5251,75.0,0.0,120.0,10.0,64.0
5252,73.0,120.0,480.0,1.0,64.0
5253,77.0,120.0,120.0,10.0,64.0
5254,65.0,0.0,120.0,11.0,64.0
5255,66.0,0.0,120.0,11.0,64.0
5256,78.0,120.0,120.0,10.0,64.0
5257,67.0,0.0,120.0,11.0,64.0
5258,79.0,0.0,120.0,10.0,64.0
5259,63.0,6.0,2100.0,2.0,64.0
5260,82.0,96.0,120.0,10.0,64.0
5261,72.0,120.0,480.0,1.0,64.0
5262,70.0,0.0,120.0,11.0,64.0
5263,68.0,0.0,90.0,11.0,64.0
5264,80.0,264.0,90.0,10.0,64.0
5265,51.0,120.0,120.0,12.0,64.0
5266,73.0,120.0,480.0,1.0,64.0
5267,70.0,0.0,480.0,1.0,64.0
5268,63.0,0.0,120.0,11.0,64.0
5269,65.0,120.0,120.0,11.0,64.0
5270,53.0,0.0,120.0,12.0,64.0
5271,54.0,0.0,120.0,12.0,64.0
5272,66.0,120.0,120.0,11.0,64.0
5273,55.0,0.0,120.0,12.0,64.0
5274,67.0,0.0,120.0,11.0,64.0
5275,68.0,0.0,480.0,1.0,64.0
5276,58.0,0.0,120.0,12.0,64.0
5277,72.0,120.0,480.0,1.0,64.0
5278,70.0,96.0,120.0,11.0,64.0
5279,56.0,0.0,90.0,12.0,64.0
5280,68.0,264.0,90.0,11.0,64.0
5281,27.0,120.0,120.0,14.0,64.0
5282,61.0,0.0,480.0,2.0,64.0
5283,39.0,0.0,120.0,13.0,64.0
5284,51.0,0.0,120.0,12.0,64.0
5285,70.0,0.0,480.0,1.0,64.0
5286,41.0,0.0,120.0,13.0,64.0
5287,53.0,120.0,120.0,12.0,64.0
5288,29.0,0.0,120.0,14.0,64.0
5289,30.0,120.0,120.0,14.0,64.0
5290,42.0,0.0,120.0,13.0,64.0
5291,54.0,0.0,120.0,12.0,64.0
5292,55.0,78.0,120.0,12.0,64.0
5293,43.0,0.0,120.0,13.0,64.0
5294,31.0,0.0,120.0,14.0,64.0
5295,58.0,0.0,120.0,12.0,64.0
5296,68.0,0.0,180.0,1.0,64.0
5297,34.0,0.0,120.0,14.0,64.0
5298,60.0,0.0,180.0,2.0,64.0
5299,60.0,42.0,90.0,10.0,64.0
5300,46.0,72.0,120.0,13.0,64.0
5301,51.0,0.0,90.0,11.0,64.0
5302,56.0,102.0,90.0,12.0,64.0
5303,68.0,0.0,90.0,10.0,64.0
5304,44.0,0.0,90.0,13.0,64.0
5305,32.0,0.0,90.0,14.0,64.0
5306,60.0,18.0,90.0,11.0,64.0
5307,63.0,120.0,90.0,10.0,64.0
5308,56.0,0.0,90.0,11.0,64.0
5309,60.0,0.0,90.0,11.0,64.0
5310,68.0,114.0,90.0,10.0,64.0
5311,56.0,0.0,60.0,7.0,64.0
5312,60.0,114.0,90.0,10.0,64.0
5313,72.0,6.0,60.0,6.0,64.0
5314,56.0,0.0,90.0,11.0,64.0
5315,58.0,0.0,60.0,7.0,64.0
5316,63.0,0.0,90.0,11.0,64.0
5317,68.0,114.0,90.0,10.0,64.0
5318,73.0,6.0,60.0,6.0,64.0
5319,59.0,6.0,60.0,7.0,64.0
5320,74.0,0.0,60.0,6.0,64.0
5321,60.0,114.0,90.0,11.0,64.0
5322,63.0,0.0,90.0,10.0,64.0
5323,75.0,0.0,60.0,6.0,64.0
5324,60.0,6.0,60.0,7.0,64.0
5325,63.0,0.0,90.0,11.0,64.0
5326,68.0,120.0,90.0,10.0,64.0
5327,77.0,72.0,120.0,6.0,64.0
5328,63.0,0.0,1140.0,12.0,64.0
5329,61.0,0.0,120.0,7.0,64.0
5330,56.0,0.0,180.0,13.0,64.0
5331,56.0,0.0,90.0,11.0,64.0
5332,44.0,6.0,180.0,14.0,64.0
5333,60.0,42.0,90.0,10.0,64.0
5334,75.0,0.0,60.0,6.0,64.0
5335,60.0,0.0,60.0,7.0,64.0
5336,63.0,0.0,90.0,11.0,64.0
5337,68.0,114.0,90.0,10.0,64.0
5338,73.0,0.0,60.0,6.0,64.0
5339,58.0,6.0,60.0,7.0,64.0
5340,60.0,0.0,90.0,11.0,64.0
5341,63.0,114.0,90.0,10.0,64.0
5342,56.0,0.0,60.0,7.0,64.0
5343,63.0,0.0,90.0,11.0,64.0
5344,68.0,114.0,90.0,10.0,64.0
5345,72.0,6.0,60.0,6.0,64.0
5346,61.0,0.0,90.0,10.0,64.0
5347,58.0,72.0,90.0,11.0,64.0
5348,51.0,0.0,180.0,13.0,64.0
5349,55.0,0.0,60.0,7.0,64.0
5350,70.0,6.0,60.0,6.0,64.0
5351,39.0,6.0,180.0,14.0,64.0
5352,63.0,0.0,90.0,11.0,64.0
5353,56.0,30.0,30.0,7.0,64.0
5354,72.0,0.0,30.0,6.0,64.0
5355,67.0,42.0,90.0,10.0,64.0
5356,70.0,12.0,30.0,6.0,64.0
5357,55.0,0.0,30.0,7.0,64.0
5358,68.0,0.0,60.0,6.0,64.0
5359,53.0,72.0,60.0,7.0,64.0
5360,61.0,0.0,90.0,11.0,64.0
5361,70.0,6.0,60.0,6.0,64.0
5362,55.0,0.0,60.0,7.0,64.0
5363,63.0,114.0,90.0,10.0,64.0
5364,55.0,6.0,60.0,7.0,64.0
5365,67.0,120.0,90.0,10.0,64.0
5366,63.0,0.0,90.0,11.0,64.0
5367,70.0,0.0,60.0,6.0,64.0
5368,70.0,72.0,120.0,6.0,64.0
5369,32.0,6.0,180.0,14.0,64.0
5370,55.0,78.0,240.0,7.0,64.0
5371,44.0,0.0,180.0,13.0,64.0
5372,61.0,42.0,90.0,10.0,64.0
5373,58.0,0.0,90.0,11.0,64.0
5374,67.0,42.0,90.0,10.0,64.0
5375,71.0,0.0,120.0,6.0,64.0
5376,61.0,0.0,90.0,11.0,64.0
5377,60.0,0.0,90.0,10.0,64.0
5378,72.0,0.0,90.0,6.0,64.0
5379,56.0,96.0,90.0,7.0,64.0
5380,56.0,18.0,90.0,11.0,64.0
5381,68.0,114.0,90.0,10.0,64.0
5382,60.0,0.0,90.0,11.0,64.0
5383,68.0,6.0,60.0,6.0,64.0
5384,72.0,6.0,60.0,6.0,64.0
5385,56.0,0.0,90.0,11.0,64.0
5386,56.0,0.0,60.0,7.0,64.0
5387,60.0,114.0,90.0,10.0,64.0
5388,68.0,114.0,90.0,10.0,64.0
5389,58.0,6.0,60.0,7.0,64.0
5390,63.0,0.0,90.0,11.0,64.0
5391,73.0,0.0,60.0,6.0,64.0
5392,74.0,0.0,60.0,6.0,64.0
5393,63.0,0.0,90.0,10.0,64.0
5394,60.0,114.0,90.0,11.0,64.0
5395,59.0,6.0,60.0,7.0,64.0
5396,68.0,0.0,90.0,10.0,64.0
5397,75.0,6.0,60.0,6.0,64.0
5398,63.0,120.0,90.0,11.0,64.0
5399,60.0,0.0,60.0,7.0,64.0
5400,77.0,72.0,120.0,6.0,64.0
5401,63.0,48.0,960.0,12.0,64.0
5402,44.0,0.0,180.0,14.0,64.0
5403,60.0,0.0,90.0,10.0,64.0
5404,61.0,0.0,120.0,7.0,64.0
5405,56.0,0.0,180.0,13.0,64.0
5406,56.0,42.0,90.0,11.0,64.0
5407,68.0,114.0,90.0,10.0,64.0
5408,60.0,0.0,60.0,7.0,64.0
5409,63.0,0.0,90.0,11.0,64.0
5410,75.0,6.0,60.0,6.0,64.0
5411,58.0,0.0,60.0,7.0,64.0
5412,63.0,114.0,90.0,10.0,64.0
5413,73.0,6.0,60.0,6.0,64.0
5414,60.0,0.0,90.0,11.0,64.0
5415,56.0,6.0,60.0,7.0,64.0
5416,63.0,114.0,90.0,11.0,64.0
5417,68.0,0.0,90.0,10.0,64.0
5418,72.0,0.0,60.0,6.0,64.0
5419,51.0,6.0,180.0,13.0,64.0
5420,61.0,72.0,90.0,10.0,64.0
5421,39.0,0.0,180.0,14.0,64.0
5422,70.0,0.0,60.0,6.0,64.0
5423,58.0,0.0,90.0,11.0,64.0
5424,55.0,6.0,60.0,7.0,64.0
5425,67.0,0.0,90.0,10.0,64.0
5426,56.0,30.0,30.0,7.0,64.0
5427,63.0,42.0,90.0,11.0,64.0
5428,72.0,0.0,30.0,6.0,64.0
5429,70.0,0.0,30.0,6.0,64.0
5430,55.0,12.0,30.0,7.0,64.0
5431,68.0,0.0,60.0,6.0,64.0
5432,53.0,72.0,60.0,7.0,64.0
5433,70.0,6.0,60.0,6.0,64.0
5434,61.0,0.0,90.0,11.0,64.0
5435,55.0,0.0,60.0,7.0,64.0
5436,63.0,114.0,90.0,10.0,64.0
5437,51.0,6.0,60.0,7.0,64.0
5438,72.0,0.0,60.0,6.0,64.0
5439,63.0,0.0,90.0,11.0,64.0
5440,67.0,42.0,90.0,10.0,64.0
5441,68.0,0.0,180.0,6.0,64.0
5442,32.0,0.0,180.0,14.0,64.0
5443,56.0,0.0,180.0,4.0,64.0
5444,51.0,0.0,150.0,2.0,64.0
5445,44.0,0.0,150.0,3.0,64.0
5446,44.0,0.0,180.0,13.0,64.0
5447,72.0,0.0,150.0,1.0,64.0
5448,60.0,0.0,40.0,11.0,64.0
5449,56.0,0.0,150.0,3.0,64.0
5450,63.0,24.0,40.0,12.0,64.0
5451,75.0,12.0,150.0,1.0,64.0
5452,68.0,0.0,180.0,4.0,64.0
5453,44.0,0.0,180.0,5.0,64.0
5454,60.0,0.0,150.0,2.0,64.0
5455,80.0,0.0,150.0,0.0,64.0
5456,56.0,0.0,180.0,7.0,64.0
5457,68.0,36.0,60.0,10.0,64.0
5458,60.0,0.0,40.0,11.0,64.0
5459,63.0,48.0,40.0,12.0,64.0
5460,60.0,24.0,40.0,11.0,64.0
5461,75.0,36.0,60.0,10.0,64.0
5462,63.0,0.0,40.0,12.0,64.0
5463,63.0,60.0,40.0,12.0,64.0
5464,60.0,0.0,40.0,11.0,64.0
5465,60.0,60.0,40.0,12.0,64.0
5466,84.0,6.0,180.0,10.0,64.0
5467,63.0,0.0,40.0,11.0,64.0
5468,63.0,0.0,40.0,11.0,64.0
5469,60.0,60.0,40.0,12.0,64.0
5470,63.0,0.0,90.0,3.0,64.0
5471,60.0,0.0,90.0,3.0,64.0
5472,44.0,0.0,90.0,14.0,64.0
5473,75.0,0.0,90.0,1.0,64.0
5474,72.0,0.0,90.0,1.0,64.0
5475,63.0,24.0,40.0,11.0,64.0
5476,56.0,12.0,90.0,13.0,64.0
5477,56.0,0.0,90.0,2.0,64.0
5478,60.0,0.0,40.0,12.0,64.0
5479,84.0,18.0,90.0,0.0,64.0
5480,60.0,0.0,40.0,12.0,64.0
5481,63.0,60.0,40.0,11.0,64.0
5482,70.0,0.0,150.0,1.0,64.0
5483,73.0,0.0,150.0,1.0,64.0
5484,58.0,12.0,150.0,3.0,64.0
5485,63.0,0.0,180.0,4.0,64.0
5486,61.0,0.0,150.0,3.0,64.0
5487,51.0,0.0,180.0,13.0,64.0
5488,67.0,0.0,40.0,11.0,64.0
5489,51.0,0.0,150.0,2.0,64.0
5490,39.0,36.0,180.0,5.0,64.0
5491,58.0,60.0,40.0,12.0,64.0
5492,82.0,0.0,150.0,0.0,64.0
5493,39.0,0.0,180.0,14.0,64.0
5494,58.0,48.0,40.0,12.0,64.0
5495,67.0,0.0,40.0,11.0,64.0
5496,73.0,0.0,60.0,10.0,64.0
5497,58.0,0.0,40.0,12.0,64.0
5498,67.0,24.0,40.0,11.0,64.0
5499,67.0,60.0,40.0,11.0,64.0
5500,58.0,0.0,40.0,12.0,64.0
5501,82.0,6.0,180.0,10.0,64.0
5502,67.0,60.0,40.0,11.0,64.0
5503,58.0,0.0,40.0,12.0,64.0
5504,58.0,60.0,40.0,12.0,64.0
5505,67.0,0.0,40.0,11.0,64.0
5506,82.0,18.0,90.0,0.0,64.0
5507,70.0,0.0,90.0,1.0,64.0
5508,73.0,0.0,90.0,1.0,64.0
5509,51.0,0.0,90.0,13.0,64.0
5510,61.0,0.0,90.0,3.0,64.0
5511,58.0,0.0,90.0,3.0,64.0
5512,51.0,0.0,90.0,2.0,64.0
5513,39.0,12.0,90.0,14.0,64.0
5514,58.0,24.0,40.0,12.0,64.0
5515,67.0,0.0,40.0,11.0,64.0
5516,67.0,60.0,40.0,11.0,64.0
5517,58.0,0.0,40.0,12.0,64.0
5518,44.0,0.0,180.0,5.0,64.0
5519,41.0,0.0,180.0,14.0,64.0
5520,72.0,0.0,150.0,1.0,64.0
5521,68.0,0.0,150.0,1.0,64.0
5522,56.0,0.0,40.0,12.0,64.0
5523,53.0,12.0,150.0,2.0,64.0
5524,60.0,0.0,150.0,3.0,64.0
5525,80.0,0.0,150.0,0.0,64.0
5526,68.0,60.0,40.0,11.0,64.0
5527,53.0,0.0,180.0,13.0,64.0
5528,68.0,0.0,180.0,4.0,64.0
5529,56.0,0.0,150.0,3.0,64.0
5530,56.0,0.0,180.0,4.0,64.0
5531,60.0,0.0,40.0,12.0,64.0
5532,68.0,48.0,40.0,11.0,64.0
5533,72.0,36.0,60.0,10.0,64.0
5534,68.0,0.0,40.0,11.0,64.0
5535,60.0,24.0,40.0,12.0,64.0
5536,68.0,0.0,40.0,11.0,64.0
5537,60.0,60.0,40.0,12.0,64.0
5538,80.0,6.0,180.0,10.0,64.0
5539,68.0,0.0,40.0,11.0,64.0
5540,60.0,60.0,40.0,12.0,64.0
5541,68.0,0.0,40.0,11.0,64.0
5542,60.0,60.0,40.0,12.0,64.0
5543,68.0,24.0,40.0,11.0,64.0
5544,56.0,0.0,90.0,3.0,64.0
5545,53.0,0.0,90.0,2.0,64.0
5546,53.0,0.0,90.0,13.0,64.0
5547,80.0,0.0,90.0,0.0,64.0
5548,60.0,0.0,90.0,3.0,64.0
5549,72.0,0.0,90.0,1.0,64.0
5550,68.0,18.0,90.0,1.0,64.0
5551,60.0,0.0,40.0,12.0,64.0
5552,41.0,12.0,90.0,14.0,64.0
5553,68.0,0.0,40.0,11.0,64.0
5554,60.0,60.0,40.0,12.0,64.0
5555,49.0,0.0,180.0,13.0,64.0
5556,70.0,0.0,40.0,11.0,64.0
5557,73.0,0.0,150.0,1.0,64.0
5558,70.0,0.0,150.0,1.0,64.0
5559,58.0,0.0,150.0,3.0,64.0
5560,37.0,36.0,180.0,14.0,64.0
5561,61.0,12.0,150.0,3.0,64.0
5562,61.0,60.0,40.0,12.0,64.0
5563,49.0,0.0,150.0,2.0,64.0
5564,85.0,0.0,150.0,0.0,64.0
5565,61.0,0.0,40.0,12.0,64.0
5566,70.0,48.0,40.0,11.0,64.0
5567,61.0,0.0,40.0,12.0,64.0
5568,70.0,24.0,40.0,11.0,64.0
5569,61.0,0.0,60.0,10.0,64.0
5570,70.0,60.0,40.0,11.0,64.0
5571,61.0,0.0,40.0,12.0,64.0
5572,77.0,6.0,180.0,10.0,64.0
5573,70.0,0.0,40.0,11.0,64.0
5574,61.0,60.0,40.0,12.0,64.0
5575,70.0,0.0,40.0,11.0,64.0
5576,61.0,60.0,40.0,12.0,64.0
5577,73.0,0.0,90.0,1.0,64.0
5578,70.0,0.0,90.0,1.0,64.0
5579,70.0,24.0,40.0,11.0,64.0
5580,49.0,0.0,90.0,2.0,64.0
5581,61.0,0.0,40.0,12.0,64.0
5582,61.0,0.0,90.0,3.0,64.0
5583,49.0,12.0,90.0,13.0,64.0
5584,85.0,18.0,90.0,0.0,64.0
5585,58.0,0.0,90.0,3.0,64.0
5586,37.0,0.0,90.0,14.0,64.0
5587,61.0,0.0,40.0,12.0,64.0
5588,70.0,60.0,40.0,11.0,64.0
5589,39.0,0.0,180.0,14.0,64.0
5590,68.0,0.0,180.0,4.0,64.0
5591,72.0,12.0,150.0,1.0,64.0
5592,68.0,0.0,150.0,1.0,64.0
5593,39.0,0.0,180.0,5.0,64.0
5594,68.0,0.0,40.0,11.0,64.0
5595,84.0,0.0,150.0,0.0,64.0
5596,51.0,0.0,150.0,2.0,64.0
5597,60.0,60.0,40.0,12.0,64.0
5598,60.0,0.0,150.0,3.0,64.0
5599,56.0,0.0,150.0,3.0,64.0
5600,51.0,0.0,180.0,13.0,64.0
5601,72.0,0.0,180.0,4.0,64.0
5602,68.0,0.0,40.0,11.0,64.0
5603,60.0,48.0,40.0,12.0,64.0
5604,68.0,24.0,40.0,11.0,64.0
5605,60.0,0.0,40.0,12.0,64.0
5606,60.0,36.0,60.0,10.0,64.0
5607,60.0,0.0,40.0,12.0,64.0
5608,68.0,60.0,40.0,11.0,64.0
5609,68.0,60.0,40.0,11.0,64.0
5610,60.0,0.0,40.0,12.0,64.0
5611,75.0,6.0,180.0,10.0,64.0
5612,60.0,0.0,40.0,12.0,64.0
5613,68.0,60.0,40.0,11.0,64.0
5614,68.0,0.0,40.0,11.0,64.0
5615,84.0,0.0,90.0,0.0,64.0
5616,56.0,18.0,90.0,3.0,64.0
5617,68.0,0.0,90.0,1.0,64.0
5618,60.0,0.0,90.0,3.0,64.0
5619,60.0,24.0,40.0,12.0,64.0
5620,51.0,0.0,90.0,2.0,64.0
5621,51.0,0.0,90.0,13.0,64.0
5622,72.0,0.0,90.0,1.0,64.0
5623,39.0,12.0,90.0,14.0,64.0
5624,68.0,60.0,40.0,11.0,64.0
5625,60.0,0.0,40.0,12.0,64.0
5626,70.0,0.0,180.0,4.0,64.0
5627,63.0,0.0,180.0,4.0,64.0
5628,39.0,12.0,150.0,2.0,64.0
5629,67.0,0.0,150.0,1.0,64.0
5630,70.0,0.0,150.0,1.0,64.0
5631,67.0,60.0,40.0,11.0,64.0
5632,39.0,36.0,180.0,13.0,64.0
5633,27.0,0.0,180.0,14.0,64.0
5634,58.0,0.0,150.0,3.0,64.0
5635,58.0,0.0,40.0,12.0,64.0
5636,39.0,0.0,180.0,5.0,64.0
5637,51.0,0.0,150.0,3.0,64.0
5638,82.0,0.0,150.0,0.0,64.0
5639,58.0,0.0,40.0,12.0,64.0
5640,67.0,48.0,40.0,11.0,64.0
5641,58.0,24.0,40.0,12.0,64.0
5642,58.0,0.0,60.0,10.0,64.0
5643,67.0,0.0,40.0,11.0,64.0
5644,58.0,60.0,40.0,12.0,64.0
5645,67.0,0.0,40.0,11.0,64.0
5646,61.0,24.0,40.0,11.0,64.0
5647,58.0,0.0,40.0,12.0,64.0
5648,73.0,36.0,60.0,10.0,64.0
5649,58.0,60.0,40.0,12.0,64.0
5650,61.0,0.0,40.0,11.0,64.0
5651,67.0,0.0,90.0,1.0,64.0
5652,82.0,0.0,90.0,0.0,64.0
5653,70.0,0.0,90.0,1.0,64.0
5654,67.0,6.0,60.0,10.0,64.0
5655,61.0,24.0,40.0,11.0,64.0
5656,27.0,0.0,90.0,14.0,64.0
5657,39.0,0.0,90.0,2.0,64.0
5658,58.0,0.0,40.0,12.0,64.0
5659,58.0,0.0,90.0,3.0,64.0
5660,51.0,18.0,90.0,3.0,64.0
5661,39.0,12.0,90.0,13.0,64.0
5662,58.0,84.0,40.0,12.0,64.0
5663,61.0,0.0,40.0,11.0,64.0
5664,60.0,0.0,180.0,4.0,64.0
5665,60.0,0.0,180.0,11.0,64.0
5666,80.0,0.0,180.0,0.0,64.0
5667,44.0,0.0,180.0,5.0,64.0
5668,32.0,0.0,180.0,14.0,64.0
5669,68.0,120.0,60.0,1.0,64.0
5670,68.0,0.0,180.0,4.0,64.0
5671,44.0,0.0,180.0,2.0,64.0
5672,48.0,0.0,180.0,3.0,64.0
5673,56.0,0.0,180.0,3.0,64.0
5674,56.0,0.0,180.0,12.0,64.0
5675,44.0,0.0,180.0,13.0,64.0
5676,68.0,120.0,180.0,10.0,64.0
5677,72.0,0.0,60.0,1.0,64.0
5678,75.0,0.0,60.0,1.0,64.0
5679,72.0,0.0,60.0,1.0,64.0
5680,75.0,24.0,60.0,1.0,64.0
5681,60.0,0.0,90.0,2.0,64.0
5682,63.0,96.0,90.0,2.0,64.0
5683,72.0,24.0,60.0,1.0,64.0
5684,60.0,54.0,90.0,2.0,64.0
5685,63.0,0.0,90.0,2.0,64.0
5686,75.0,0.0,60.0,1.0,64.0
5687,77.0,30.0,30.0,1.0,64.0
5688,73.0,0.0,30.0,1.0,64.0
5689,51.0,0.0,180.0,13.0,64.0
5690,39.0,0.0,180.0,5.0,64.0
5691,63.0,0.0,180.0,12.0,64.0
5692,61.0,0.0,30.0,2.0,64.0
5693,65.0,0.0,30.0,2.0,64.0
5694,39.0,0.0,180.0,14.0,64.0
5695,63.0,0.0,180.0,4.0,64.0
5696,63.0,0.0,30.0,2.0,64.0
5697,60.0,30.0,30.0,2.0,64.0
5698,75.0,0.0,30.0,1.0,64.0
5699,72.0,0.0,30.0,1.0,64.0
5700,65.0,0.0,30.0,2.0,64.0
5701,77.0,0.0,30.0,1.0,64.0
5702,61.0,30.0,30.0,2.0,64.0
5703,73.0,0.0,30.0,1.0,64.0
5704,63.0,0.0,30.0,2.0,64.0
5705,60.0,0.0,30.0,2.0,64.0
5706,75.0,0.0,30.0,1.0,64.0
5707,72.0,72.0,30.0,1.0,64.0
5708,58.0,0.0,60.0,2.0,64.0
5709,61.0,0.0,60.0,2.0,64.0
5710,73.0,0.0,60.0,1.0,64.0
5711,70.0,120.0,60.0,1.0,64.0
5712,61.0,120.0,60.0,2.0,64.0
5713,73.0,0.0,60.0,1.0,64.0
5714,58.0,0.0,60.0,2.0,64.0
5715,70.0,0.0,60.0,1.0,64.0
5716,70.0,0.0,60.0,1.0,64.0
5717,73.0,78.0,60.0,1.0,64.0
5718,61.0,0.0,60.0,2.0,64.0
5719,58.0,0.0,60.0,2.0,64.0
5720,44.0,0.0,180.0,5.0,64.0
5721,68.0,0.0,180.0,12.0,64.0
5722,44.0,0.0,180.0,14.0,64.0
5723,60.0,0.0,30.0,2.0,64.0
5724,68.0,0.0,180.0,4.0,64.0
5725,56.0,0.0,180.0,4.0,64.0
5726,56.0,0.0,180.0,13.0,64.0
5727,75.0,0.0,30.0,1.0,64.0
5728,63.0,30.0,30.0,2.0,64.0
5729,72.0,0.0,30.0,1.0,64.0
5730,73.0,30.0,30.0,1.0,64.0
5731,70.0,0.0,30.0,1.0,64.0
5732,58.0,0.0,30.0,2.0,64.0
5733,61.0,0.0,30.0,2.0,64.0
5734,60.0,0.0,30.0,2.0,64.0
5735,63.0,0.0,30.0,2.0,64.0
5736,72.0,0.0,30.0,1.0,64.0
5737,75.0,30.0,30.0,1.0,64.0
5738,58.0,0.0,30.0,2.0,64.0
5739,70.0,0.0,30.0,1.0,64.0
5740,61.0,0.0,30.0,2.0,64.0
5741,73.0,72.0,30.0,1.0,64.0
5742,60.0,24.0,60.0,2.0,64.0
5743,63.0,0.0,60.0,3.0,64.0
5744,60.0,0.0,60.0,3.0,64.0
5745,68.0,0.0,60.0,1.0,64.0
5746,84.0,96.0,90.0,0.0,64.0
5747,56.0,0.0,60.0,2.0,64.0
5748,72.0,0.0,60.0,1.0,64.0
5749,51.0,0.0,60.0,2.0,64.0
5750,60.0,0.0,60.0,3.0,64.0
5751,63.0,0.0,60.0,3.0,64.0
5752,60.0,0.0,60.0,2.0,64.0
5753,72.0,0.0,60.0,1.0,64.0
5754,75.0,24.0,60.0,1.0,64.0
5755,84.0,96.0,90.0,0.0,64.0
5756,75.0,24.0,60.0,1.0,64.0
5757,84.0,48.0,90.0,0.0,64.0
5758,60.0,0.0,60.0,3.0,64.0
5759,63.0,0.0,60.0,3.0,64.0
5760,72.0,0.0,60.0,1.0,64.0
5761,51.0,0.0,60.0,2.0,64.0
5762,60.0,0.0,60.0,2.0,64.0
5763,60.0,0.0,120.0,3.0,64.0
5764,37.0,0.0,180.0,14.0,64.0
5765,85.0,6.0,20.0,0.0,64.0
5766,63.0,0.0,120.0,3.0,64.0
5767,77.0,0.0,30.0,1.0,64.0
5768,53.0,24.0,30.0,2.0,64.0
5769,73.0,0.0,30.0,1.0,64.0
5770,61.0,120.0,180.0,12.0,64.0
5771,61.0,0.0,30.0,2.0,64.0
5772,49.0,0.0,180.0,13.0,64.0
5773,84.0,6.0,20.0,0.0,64.0
5774,60.0,0.0,30.0,2.0,64.0
5775,72.0,0.0,30.0,1.0,64.0
5776,75.0,0.0,30.0,1.0,64.0
5777,51.0,24.0,30.0,2.0,64.0
5778,85.0,6.0,20.0,0.0,64.0
5779,73.0,24.0,30.0,1.0,64.0
5780,77.0,0.0,30.0,1.0,64.0
5781,53.0,0.0,30.0,2.0,64.0
5782,61.0,0.0,30.0,2.0,64.0
5783,84.0,6.0,20.0,0.0,64.0
5784,72.0,0.0,30.0,1.0,64.0
5785,60.0,72.0,30.0,2.0,64.0
5786,51.0,0.0,30.0,2.0,64.0
5787,75.0,0.0,30.0,1.0,64.0
5788,70.0,0.0,60.0,1.0,64.0
5789,73.0,0.0,60.0,1.0,64.0
5790,82.0,0.0,60.0,0.0,64.0
5791,61.0,0.0,60.0,3.0,64.0
5792,49.0,0.0,60.0,2.0,64.0
5793,58.0,0.0,60.0,3.0,64.0
5794,58.0,0.0,60.0,2.0,64.0
5795,82.0,0.0,60.0,0.0,64.0
5796,49.0,0.0,60.0,2.0,64.0
5797,61.0,0.0,60.0,3.0,64.0
5798,73.0,0.0,60.0,1.0,64.0
5799,58.0,120.0,60.0,2.0,64.0
5800,58.0,0.0,60.0,3.0,64.0
5801,70.0,0.0,60.0,1.0,64.0
5802,49.0,0.0,60.0,2.0,64.0
5803,70.0,0.0,60.0,1.0,64.0
5804,73.0,0.0,60.0,1.0,64.0
5805,58.0,0.0,60.0,2.0,64.0
5806,82.0,78.0,60.0,0.0,64.0
5807,61.0,0.0,60.0,3.0,64.0
5808,58.0,0.0,60.0,3.0,64.0
5809,58.0,0.0,120.0,3.0,64.0
5810,84.0,0.0,30.0,0.0,64.0
5811,60.0,0.0,30.0,2.0,64.0
5812,51.0,30.0,30.0,2.0,64.0
5813,39.0,0.0,180.0,14.0,64.0
5814,51.0,0.0,180.0,13.0,64.0
5815,63.0,0.0,180.0,12.0,64.0
5816,63.0,0.0,180.0,4.0,64.0
5817,61.0,0.0,120.0,3.0,64.0
5818,75.0,0.0,30.0,1.0,64.0
5819,72.0,0.0,30.0,1.0,64.0
5820,39.0,120.0,180.0,5.0,64.0
5821,49.0,0.0,30.0,2.0,64.0
5822,82.0,0.0,30.0,0.0,64.0
5823,58.0,0.0,30.0,2.0,64.0
5824,73.0,30.0,30.0,1.0,64.0
5825,70.0,0.0,30.0,1.0,64.0
5826,60.0,0.0,30.0,2.0,64.0
5827,72.0,30.0,30.0,1.0,64.0
5828,48.0,0.0,30.0,2.0,64.0
5829,84.0,0.0,30.0,0.0,64.0
5830,75.0,0.0,30.0,1.0,64.0
5831,58.0,0.0,30.0,2.0,64.0
5832,49.0,0.0,30.0,2.0,64.0
5833,82.0,0.0,30.0,0.0,64.0
5834,70.0,0.0,30.0,1.0,64.0
5835,73.0,72.0,30.0,1.0,64.0
5836,80.0,0.0,60.0,0.0,64.0
5837,60.0,0.0,60.0,3.0,64.0
5838,56.0,0.0,60.0,3.0,64.0
5839,48.0,0.0,60.0,2.0,64.0
5840,56.0,0.0,60.0,2.0,64.0
5841,72.0,0.0,60.0,1.0,64.0
5842,68.0,0.0,60.0,1.0,64.0
5843,60.0,0.0,60.0,2.0,64.0
5844,75.0,120.0,60.0,1.0,64.0
5845,48.0,0.0,60.0,2.0,64.0
5846,72.0,0.0,60.0,1.0,64.0
5847,56.0,0.0,60.0,3.0,64.0
5848,60.0,0.0,60.0,3.0,64.0
5849,80.0,0.0,60.0,0.0,64.0
5850,72.0,0.0,60.0,1.0,64.0
5851,75.0,0.0,60.0,1.0,64.0
5852,60.0,0.0,60.0,2.0,64.0
5853,80.0,78.0,60.0,0.0,64.0
5854,48.0,0.0,60.0,2.0,64.0
5855,56.0,0.0,60.0,3.0,64.0
5856,60.0,0.0,60.0,3.0,64.0
5857,39.0,0.0,180.0,13.0,64.0
5858,49.0,30.0,30.0,2.0,64.0
5859,56.0,0.0,120.0,3.0,64.0
5860,27.0,0.0,180.0,14.0,64.0
5861,58.0,0.0,30.0,2.0,64.0
5862,63.0,0.0,180.0,4.0,64.0
5863,60.0,0.0,120.0,3.0,64.0
5864,51.0,0.0,180.0,12.0,64.0
5865,82.0,0.0,30.0,0.0,64.0
5866,39.0,0.0,180.0,5.0,64.0
5867,73.0,0.0,30.0,1.0,64.0
5868,70.0,0.0,30.0,1.0,64.0
5869,56.0,0.0,30.0,2.0,64.0
5870,48.0,0.0,30.0,2.0,64.0
5871,68.0,0.0,30.0,1.0,64.0
5872,80.0,0.0,30.0,0.0,64.0
5873,72.0,30.0,30.0,1.0,64.0
5874,82.0,0.0,30.0,0.0,64.0
5875,58.0,30.0,30.0,2.0,64.0
5876,70.0,0.0,30.0,1.0,64.0
5877,73.0,0.0,30.0,1.0,64.0
5878,49.0,0.0,30.0,2.0,64.0
5879,68.0,72.0,30.0,1.0,64.0
5880,72.0,0.0,30.0,1.0,64.0
5881,80.0,0.0,30.0,0.0,64.0
5882,48.0,0.0,30.0,2.0,64.0
5883,56.0,0.0,30.0,2.0,64.0
5884,46.0,0.0,60.0,2.0,64.0
5885,55.0,120.0,60.0,2.0,64.0
5886,79.0,0.0,60.0,0.0,64.0
5887,51.0,0.0,60.0,3.0,64.0
5888,67.0,0.0,60.0,1.0,64.0
5889,70.0,0.0,60.0,1.0,64.0
5890,58.0,0.0,60.0,3.0,64.0
5891,51.0,0.0,60.0,3.0,64.0
5892,58.0,0.0,60.0,3.0,64.0
5893,67.0,0.0,60.0,1.0,64.0
5894,70.0,0.0,60.0,1.0,64.0
5895,46.0,0.0,60.0,2.0,64.0
5896,79.0,0.0,60.0,0.0,64.0
5897,55.0,120.0,60.0,2.0,64.0
5898,55.0,0.0,60.0,2.0,64.0
5899,79.0,0.0,60.0,0.0,64.0
5900,67.0,0.0,60.0,1.0,64.0
5901,58.0,0.0,60.0,3.0,64.0
5902,51.0,0.0,60.0,3.0,64.0
5903,46.0,0.0,60.0,2.0,64.0
5904,70.0,108.0,60.0,1.0,64.0
5905,44.0,0.0,180.0,5.0,64.0
5906,44.0,0.0,180.0,2.0,64.0
5907,56.0,0.0,180.0,2.0,64.0
5908,56.0,132.0,60.0,6.0,64.0
5909,80.0,0.0,180.0,0.0,64.0
5910,56.0,267.0,180.0,12.0,64.0
5911,44.0,0.0,180.0,13.0,64.0
5912,68.0,0.0,180.0,1.0,64.0
5913,56.0,0.0,180.0,4.0,64.0
5914,32.0,0.0,180.0,14.0,64.0
5915,48.0,0.0,180.0,3.0,64.0
5916,56.0,0.0,180.0,3.0,64.0
5917,68.0,81.0,390.0,6.0,64.0
5918,60.0,399.0,60.0,6.0,64.0
5919,72.0,81.0,390.0,6.0,64.0
5920,44.0,0.0,390.0,3.0,64.0
5921,60.0,120.0,120.0,7.0,64.0
5922,56.0,96.0,390.0,3.0,64.0
5923,63.0,60.0,60.0,6.0,64.0
5924,56.0,0.0,120.0,7.0,64.0
5925,75.0,24.0,510.0,6.0,64.0
5926,51.0,120.0,120.0,7.0,64.0
5927,56.0,0.0,120.0,7.0,64.0
5928,60.0,24.0,120.0,7.0,64.0
5929,51.0,96.0,120.0,7.0,64.0
5930,60.0,0.0,120.0,7.0,64.0
5931,56.0,60.0,120.0,7.0,64.0
5932,60.0,0.0,390.0,3.0,64.0
5933,48.0,36.0,390.0,3.0,64.0
5934,51.0,60.0,120.0,7.0,64.0
5935,77.0,60.0,60.0,6.0,64.0
5936,75.0,0.0,60.0,6.0,64.0
5937,73.0,60.0,60.0,6.0,64.0
5938,56.0,0.0,120.0,7.0,64.0
5939,60.0,0.0,120.0,7.0,64.0
5940,72.0,24.0,60.0,6.0,64.0
5941,51.0,60.0,120.0,7.0,64.0
5942,70.0,60.0,60.0,6.0,64.0
5943,68.0,0.0,60.0,6.0,64.0
5944,61.0,0.0,120.0,7.0,64.0
5945,51.0,0.0,180.0,3.0,64.0
5946,67.0,60.0,60.0,6.0,64.0
5947,63.0,48.0,180.0,3.0,64.0
5948,58.0,60.0,120.0,7.0,64.0
5949,70.0,0.0,60.0,6.0,64.0
5950,51.0,0.0,120.0,7.0,64.0
5951,68.0,12.0,60.0,6.0,64.0
5952,72.0,60.0,60.0,6.0,64.0
5953,61.0,0.0,120.0,7.0,64.0
5954,70.0,60.0,60.0,6.0,64.0
5955,58.0,60.0,120.0,7.0,64.0
5956,73.0,0.0,60.0,6.0,64.0
5957,51.0,0.0,120.0,7.0,64.0
5958,72.0,60.0,60.0,6.0,64.0
5959,75.0,60.0,60.0,6.0,64.0
5960,61.0,60.0,120.0,7.0,64.0
5961,58.0,0.0,120.0,7.0,64.0
5962,73.0,60.0,60.0,6.0,64.0
5963,77.0,0.0,60.0,6.0,64.0
5964,75.0,60.0,60.0,6.0,64.0
5965,51.0,60.0,120.0,7.0,64.0
5966,79.0,0.0,60.0,6.0,64.0
5967,77.0,60.0,60.0,6.0,64.0
5968,61.0,0.0,120.0,7.0,64.0
5969,58.0,60.0,120.0,7.0,64.0
5970,80.0,0.0,60.0,6.0,64.0
5971,51.0,72.0,120.0,7.0,64.0
5972,79.0,60.0,60.0,6.0,64.0
5973,82.0,0.0,60.0,6.0,64.0
5974,32.0,24.0,180.0,14.0,64.0
5975,56.0,0.0,180.0,10.0,64.0
5976,44.0,0.0,180.0,12.0,64.0
5977,56.0,96.0,90.0,7.0,64.0
5978,56.0,0.0,180.0,11.0,64.0
5979,60.0,0.0,90.0,7.0,64.0
5980,80.0,24.0,60.0,6.0,64.0
5981,44.0,0.0,180.0,13.0,64.0
5982,51.0,120.0,90.0,7.0,64.0
5983,72.0,0.0,60.0,6.0,64.0
5984,48.0,0.0,180.0,13.0,64.0
5985,60.0,0.0,180.0,10.0,64.0
5986,36.0,0.0,180.0,14.0,64.0
5987,60.0,24.0,180.0,11.0,64.0
5988,48.0,0.0,180.0,12.0,64.0
5989,52.0,0.0,90.0,7.0,64.0
5990,58.0,96.0,90.0,7.0,64.0
5991,72.0,84.0,330.0,6.0,64.0
5992,48.0,120.0,90.0,7.0,64.0
5993,65.0,0.0,180.0,10.0,64.0
5994,65.0,0.0,180.0,11.0,64.0
5995,41.0,12.0,180.0,2.0,64.0
5996,53.0,0.0,180.0,12.0,64.0
5997,56.0,0.0,90.0,7.0,64.0
5998,41.0,24.0,180.0,14.0,64.0
5999,53.0,0.0,90.0,7.0,64.0
6000,53.0,0.0,180.0,2.0,64.0
6001,53.0,0.0,180.0,13.0,64.0
6002,48.0,24.0,90.0,7.0,64.0
6003,73.0,0.0,60.0,6.0,64.0
6004,72.0,60.0,60.0,6.0,64.0
6005,70.0,36.0,60.0,6.0,64.0
6006,56.0,24.0,90.0,7.0,64.0
6007,44.0,0.0,180.0,2.0,64.0
6008,53.0,0.0,90.0,7.0,64.0
6009,56.0,0.0,180.0,2.0,64.0
6010,68.0,60.0,60.0,6.0,64.0
6011,48.0,24.0,90.0,7.0,64.0
6012,67.0,36.0,60.0,6.0,64.0
6013,65.0,60.0,60.0,6.0,64.0
6014,60.0,0.0,960.0,2.0,64.0
6015,48.0,0.0,960.0,2.0,64.0
6016,58.0,0.0,120.0,7.0,64.0
6017,55.0,60.0,120.0,7.0,64.0
6018,64.0,60.0,60.0,6.0,64.0
6019,67.0,0.0,60.0,6.0,64.0
6020,65.0,60.0,60.0,6.0,64.0
6021,48.0,60.0,120.0,7.0,64.0
6022,68.0,0.0,60.0,6.0,64.0
6023,58.0,60.0,120.0,7.0,64.0
6024,67.0,60.0,60.0,6.0,64.0
6025,55.0,0.0,120.0,7.0,64.0
6026,70.0,0.0,60.0,6.0,64.0
6027,68.0,60.0,60.0,6.0,64.0
6028,48.0,0.0,120.0,7.0,64.0
6029,72.0,60.0,60.0,6.0,64.0
6030,58.0,0.0,120.0,7.0,64.0
6031,70.0,60.0,60.0,6.0,64.0
6032,55.0,0.0,120.0,7.0,64.0
6033,74.0,60.0,60.0,6.0,64.0
6034,72.0,60.0,60.0,6.0,64.0
6035,48.0,0.0,120.0,7.0,64.0
6036,76.0,60.0,60.0,6.0,64.0
6037,74.0,60.0,60.0,6.0,64.0
6038,58.0,0.0,120.0,7.0,64.0
6039,55.0,60.0,120.0,7.0,64.0
6040,77.0,0.0,60.0,6.0,64.0
6041,76.0,60.0,60.0,6.0,64.0
6042,48.0,0.0,120.0,7.0,64.0
6043,79.0,72.0,60.0,6.0,64.0
6044,56.0,0.0,120.0,7.0,64.0
6045,53.0,72.0,120.0,7.0,64.0
6046,77.0,48.0,60.0,6.0,64.0
6047,53.0,0.0,180.0,2.0,64.0
6048,41.0,0.0,180.0,2.0,64.0
6049,53.0,0.0,180.0,11.0,64.0
6050,53.0,0.0,180.0,12.0,64.0
6051,41.0,48.0,180.0,13.0,64.0
6052,29.0,0.0,180.0,14.0,64.0
6053,53.0,0.0,180.0,10.0,64.0
6054,48.0,120.0,120.0,7.0,64.0
6055,68.0,0.0,60.0,6.0,64.0
6056,32.0,0.0,180.0,14.0,64.0
6057,56.0,0.0,180.0,12.0,64.0
6058,48.0,0.0,120.0,7.0,64.0
6059,56.0,0.0,180.0,11.0,64.0
6060,44.0,48.0,180.0,13.0,64.0
6061,68.0,24.0,330.0,6.0,64.0
6062,55.0,72.0,120.0,7.0,64.0
6063,56.0,0.0,180.0,10.0,64.0
6064,44.0,96.0,120.0,7.0,64.0
6065,37.0,0.0,180.0,2.0,64.0
6066,49.0,0.0,120.0,7.0,64.0
6067,53.0,60.0,120.0,7.0,64.0
6068,61.0,0.0,180.0,11.0,64.0
6069,37.0,0.0,180.0,14.0,64.0
6070,49.0,0.0,180.0,2.0,64.0
6071,61.0,0.0,180.0,10.0,64.0
6072,61.0,0.0,180.0,12.0,64.0
6073,49.0,48.0,180.0,13.0,64.0
6074,44.0,0.0,120.0,7.0,64.0
6075,70.0,12.0,60.0,6.0,64.0
6076,68.0,60.0,60.0,6.0,64.0
6077,53.0,60.0,180.0,2.0,64.0
6078,41.0,0.0,180.0,2.0,64.0
6079,66.0,60.0,60.0,6.0,64.0
6080,49.0,0.0,120.0,7.0,64.0
6081,53.0,0.0,120.0,7.0,64.0
6082,65.0,60.0,60.0,6.0,64.0
6083,44.0,60.0,120.0,7.0,64.0
6084,63.0,0.0,60.0,6.0,64.0
6085,61.0,0.0,60.0,6.0,64.0
6086,44.0,0.0,960.0,2.0,64.0
6087,54.0,0.0,120.0,7.0,64.0
6088,51.0,0.0,120.0,7.0,64.0
6089,60.0,60.0,60.0,6.0,64.0
6090,56.0,0.0,960.0,2.0,64.0
6091,63.0,60.0,60.0,6.0,64.0
6092,44.0,60.0,120.0,7.0,64.0
6093,61.0,60.0,60.0,6.0,64.0
6094,65.0,0.0,60.0,6.0,64.0
6095,63.0,60.0,60.0,6.0,64.0
6096,51.0,60.0,120.0,7.0,64.0
6097,54.0,0.0,120.0,7.0,64.0
6098,66.0,0.0,60.0,6.0,64.0
6099,65.0,60.0,60.0,6.0,64.0
6100,44.0,0.0,120.0,7.0,64.0
6101,68.0,60.0,60.0,6.0,64.0
6102,51.0,0.0,120.0,7.0,64.0
6103,66.0,60.0,60.0,6.0,64.0
6104,54.0,0.0,120.0,7.0,64.0
6105,70.0,60.0,60.0,6.0,64.0
6106,44.0,0.0,120.0,7.0,64.0
6107,68.0,60.0,60.0,6.0,64.0
6108,72.0,60.0,60.0,6.0,64.0
6109,54.0,0.0,120.0,7.0,64.0
6110,51.0,60.0,120.0,7.0,64.0
6111,70.0,60.0,60.0,6.0,64.0
6112,73.0,0.0,60.0,6.0,64.0
6113,44.0,0.0,120.0,7.0,64.0
6114,72.0,60.0,60.0,6.0,64.0
6115,75.0,60.0,60.0,6.0,64.0
6116,53.0,0.0,180.0,7.0,64.0
6117,49.0,48.0,180.0,7.0,64.0
6118,49.0,0.0,180.0,2.0,64.0
6119,73.0,60.0,60.0,6.0,64.0
6120,75.0,60.0,60.0,6.0,64.0
6121,77.0,12.0,60.0,6.0,64.0
6122,75.0,60.0,60.0,6.0,64.0
6123,73.0,60.0,60.0,6.0,64.0
6124,72.0,60.0,60.0,6.0,64.0
6125,51.0,0.0,90.0,7.0,64.0
6126,70.0,36.0,60.0,6.0,64.0
6127,54.0,24.0,90.0,7.0,64.0
6128,69.0,60.0,60.0,6.0,64.0
6129,70.0,60.0,60.0,6.0,64.0
6130,49.0,48.0,180.0,7.0,64.0
6131,53.0,0.0,180.0,7.0,64.0
6132,72.0,60.0,60.0,6.0,64.0
6133,73.0,12.0,60.0,6.0,64.0
6134,75.0,60.0,60.0,6.0,64.0
6135,77.0,60.0,60.0,6.0,64.0
6136,78.0,60.0,60.0,6.0,64.0
6137,48.0,0.0,90.0,7.0,64.0
6138,80.0,36.0,60.0,6.0,64.0
6139,57.0,24.0,90.0,7.0,64.0
6140,78.0,60.0,60.0,6.0,64.0
6141,77.0,60.0,60.0,6.0,64.0
6142,58.0,48.0,180.0,7.0,64.0
6143,49.0,0.0,180.0,7.0,64.0
6144,78.0,60.0,60.0,6.0,64.0
6145,77.0,12.0,60.0,6.0,64.0
6146,75.0,60.0,60.0,6.0,64.0
6147,73.0,60.0,60.0,6.0,64.0
6148,72.0,60.0,60.0,6.0,64.0
6149,54.0,24.0,90.0,7.0,64.0
6150,51.0,0.0,90.0,7.0,64.0
6151,70.0,36.0,60.0,6.0,64.0
6152,69.0,60.0,60.0,6.0,64.0
6153,53.0,0.0,180.0,7.0,64.0
6154,70.0,60.0,60.0,6.0,64.0
6155,49.0,48.0,180.0,7.0,64.0
6156,72.0,60.0,60.0,6.0,64.0
6157,73.0,12.0,60.0,6.0,64.0
6158,75.0,60.0,60.0,6.0,64.0
6159,77.0,60.0,60.0,6.0,64.0
6160,78.0,60.0,60.0,6.0,64.0
6161,80.0,36.0,60.0,6.0,64.0
6162,48.0,24.0,90.0,7.0,64.0
6163,57.0,0.0,90.0,7.0,64.0
6164,78.0,120.0,60.0,6.0,64.0
6165,58.0,0.0,480.0,7.0,64.0
6166,76.0,78.0,120.0,6.0,64.0
6167,49.0,78.0,480.0,7.0,64.0
6168,77.0,120.0,90.0,6.0,64.0
6169,75.0,120.0,90.0,6.0,64.0
6170,73.0,42.0,90.0,6.0,64.0
6171,50.0,96.0,480.0,7.0,64.0
6172,53.0,0.0,480.0,7.0,64.0
6173,72.0,120.0,90.0,6.0,64.0
6174,71.0,120.0,90.0,6.0,64.0
6175,70.0,120.0,90.0,6.0,64.0
6176,68.0,42.0,90.0,6.0,64.0
6177,58.0,0.0,480.0,11.0,64.0
6178,51.0,0.0,90.0,7.0,64.0
6179,67.0,120.0,90.0,6.0,64.0
6180,51.0,48.0,2100.0,13.0,64.0
6181,55.0,96.0,480.0,12.0,64.0
6182,63.0,60.0,240.0,10.0,64.0
6183,51.0,24.0,90.0,7.0,64.0
6184,63.0,36.0,60.0,6.0,64.0
6185,55.0,24.0,90.0,7.0,64.0
6186,61.0,0.0,240.0,10.0,64.0
6187,67.0,60.0,60.0,6.0,64.0
6188,70.0,36.0,60.0,6.0,64.0
6189,51.0,24.0,90.0,7.0,64.0
6190,75.0,0.0,60.0,6.0,64.0
6191,56.0,96.0,480.0,11.0,64.0
6192,71.0,120.0,90.0,6.0,64.0
6193,56.0,60.0,240.0,12.0,64.0
6194,59.0,0.0,240.0,10.0,64.0
6195,56.0,0.0,90.0,7.0,64.0
6196,51.0,24.0,90.0,7.0,64.0
6197,62.0,0.0,240.0,10.0,64.0
6198,68.0,36.0,60.0,6.0,64.0
6199,53.0,0.0,240.0,12.0,64.0
6200,59.0,24.0,90.0,7.0,64.0
6201,71.0,60.0,60.0,6.0,64.0
6202,74.0,36.0,60.0,6.0,64.0
6203,51.0,24.0,90.0,7.0,64.0
6204,80.0,0.0,60.0,6.0,64.0
6205,55.0,24.0,180.0,12.0,64.0
6206,79.0,96.0,90.0,6.0,64.0
6207,58.0,0.0,90.0,7.0,64.0
6208,63.0,0.0,180.0,10.0,64.0
6209,58.0,60.0,240.0,11.0,64.0
6210,51.0,24.0,90.0,7.0,64.0
6211,63.0,0.0,480.0,12.0,64.0
6212,70.0,0.0,240.0,11.0,64.0
6213,73.0,60.0,240.0,10.0,64.0
6214,55.0,24.0,90.0,7.0,64.0
6215,70.0,36.0,60.0,6.0,64.0
6216,75.0,60.0,60.0,6.0,64.0
6217,51.0,24.0,90.0,7.0,64.0
6218,79.0,36.0,60.0,6.0,64.0
6219,82.0,0.0,60.0,6.0,64.0
6220,85.0,36.0,60.0,6.0,64.0
6221,56.0,24.0,90.0,7.0,64.0
6222,68.0,0.0,480.0,11.0,64.0
6223,71.0,0.0,240.0,10.0,64.0
6224,83.0,60.0,60.0,6.0,64.0
6225,82.0,36.0,60.0,6.0,64.0
6226,51.0,24.0,90.0,7.0,64.0
6227,80.0,60.0,60.0,6.0,64.0
6228,59.0,60.0,240.0,12.0,64.0
6229,74.0,0.0,240.0,10.0,64.0
6230,78.0,36.0,60.0,6.0,64.0
6231,56.0,24.0,90.0,7.0,64.0
6232,76.0,60.0,60.0,6.0,64.0
6233,75.0,36.0,60.0,6.0,64.0
6234,51.0,24.0,90.0,7.0,64.0
6235,74.0,0.0,60.0,6.0,64.0
6236,75.0,0.0,180.0,10.0,64.0
6237,51.0,0.0,180.0,7.0,64.0
6238,55.0,0.0,180.0,7.0,64.0
6239,67.0,0.0,180.0,11.0,64.0
6240,58.0,0.0,180.0,12.0,64.0
6241,75.0,60.0,60.0,6.0,64.0
6242,63.0,60.0,60.0,6.0,64.0
6243,67.0,12.0,60.0,6.0,64.0
6244,70.0,60.0,60.0,6.0,64.0
6245,75.0,60.0,60.0,6.0,64.0
6246,79.0,60.0,60.0,6.0,64.0
6247,82.0,60.0,60.0,6.0,64.0
6248,79.0,60.0,60.0,6.0,64.0
6249,75.0,48.0,180.0,6.0,64.0
6250,51.0,60.0,60.0,7.0,64.0
6251,39.0,60.0,60.0,7.0,64.0
6252,43.0,12.0,60.0,7.0,64.0
6253,46.0,60.0,60.0,7.0,64.0
6254,51.0,60.0,60.0,7.0,64.0
6255,55.0,60.0,60.0,7.0,64.0
6256,58.0,60.0,60.0,7.0,64.0
6257,55.0,180.0,60.0,7.0,64.0
6258,51.0,48.0,180.0,7.0,64.0
6259,75.0,12.0,180.0,1.0,64.0
6260,75.0,0.0,900.0,0.0,64.0
6261,67.0,180.0,240.0,1.0,64.0
6262,63.0,0.0,240.0,2.0,64.0
6263,55.0,0.0,240.0,2.0,64.0
6264,51.0,0.0,960.0,3.0,64.0
6265,39.0,0.0,960.0,3.0,64.0
6266,77.0,0.0,60.0,1.0,64.0
6267,61.0,0.0,240.0,2.0,64.0
6268,58.0,0.0,240.0,2.0,64.0
6269,70.0,0.0,240.0,1.0,64.0
6270,73.0,60.0,180.0,1.0,64.0
6271,75.0,180.0,60.0,1.0,64.0
6272,68.0,0.0,240.0,1.0,64.0
6273,56.0,0.0,240.0,2.0,64.0
6274,60.0,180.0,240.0,2.0,64.0
6275,72.0,60.0,180.0,1.0,64.0
6276,73.0,0.0,60.0,1.0,64.0
6277,70.0,30.0,180.0,1.0,64.0
6278,67.0,0.0,240.0,1.0,64.0
6279,58.0,0.0,240.0,2.0,64.0
6280,55.0,120.0,240.0,2.0,64.0
6281,77.0,30.0,30.0,0.0,64.0
6282,72.0,0.0,60.0,1.0,64.0
6283,79.0,0.0,30.0,0.0,64.0
6284,44.0,48.0,180.0,3.0,64.0
6285,51.0,0.0,180.0,3.0,64.0
6286,56.0,0.0,480.0,10.0,64.0
6287,32.0,0.0,2100.0,14.0,64.0
6288,56.0,0.0,480.0,11.0,64.0
6289,44.0,72.0,120.0,7.0,64.0
6290,80.0,0.0,180.0,0.0,64.0
6291,68.0,0.0,180.0,1.0,64.0
6292,56.0,0.0,1440.0,12.0,64.0
6293,56.0,0.0,180.0,2.0,64.0
6294,44.0,0.0,2100.0,13.0,64.0
6295,48.0,120.0,120.0,7.0,64.0
6296,51.0,120.0,120.0,7.0,64.0
6297,60.0,0.0,120.0,6.0,64.0
6298,68.0,0.0,120.0,6.0,64.0
6299,48.0,72.0,120.0,7.0,64.0
6300,72.0,48.0,60.0,6.0,64.0
6301,63.0,0.0,60.0,6.0,64.0
6302,63.0,72.0,480.0,10.0,64.0
6303,60.0,0.0,480.0,11.0,64.0
6304,44.0,72.0,120.0,7.0,64.0
6305,48.0,120.0,120.0,7.0,64.0
6306,63.0,0.0,60.0,6.0,64.0
6307,72.0,48.0,60.0,6.0,64.0
6308,51.0,120.0,120.0,7.0,64.0
6309,60.0,0.0,120.0,6.0,64.0
6310,48.0,0.0,120.0,7.0,64.0
6311,68.0,0.0,120.0,6.0,64.0
6312,65.0,48.0,60.0,6.0,64.0
6313,63.0,0.0,480.0,11.0,64.0
6314,65.0,0.0,480.0,10.0,64.0
6315,61.0,0.0,60.0,6.0,64.0
6316,44.0,72.0,120.0,7.0,64.0
6317,61.0,0.0,60.0,6.0,64.0
6318,65.0,48.0,60.0,6.0,64.0
6319,49.0,120.0,120.0,7.0,64.0
6320,53.0,120.0,120.0,7.0,64.0
6321,65.0,0.0,120.0,6.0,64.0
6322,73.0,0.0,120.0,6.0,64.0
6323,49.0,72.0,120.0,7.0,64.0
6324,77.0,48.0,60.0,6.0,64.0
6325,67.0,0.0,60.0,6.0,64.0
6326,61.0,72.0,480.0,10.0,64.0
6327,55.0,0.0,480.0,12.0,64.0
6328,58.0,0.0,480.0,11.0,64.0
6329,44.0,72.0,120.0,7.0,64.0
6330,46.0,120.0,120.0,7.0,64.0
6331,77.0,48.0,60.0,6.0,64.0
6332,67.0,0.0,60.0,6.0,64.0
6333,49.0,120.0,120.0,7.0,64.0
6334,67.0,0.0,120.0,6.0,64.0
6335,46.0,0.0,120.0,7.0,64.0
6336,73.0,0.0,120.0,6.0,64.0
6337,56.0,0.0,180.0,12.0,64.0
6338,68.0,48.0,60.0,6.0,64.0
6339,72.0,0.0,60.0,6.0,64.0
6340,44.0,72.0,120.0,7.0,64.0
6341,60.0,0.0,180.0,10.0,64.0
6342,56.0,0.0,180.0,11.0,64.0
6343,72.0,0.0,60.0,6.0,64.0
6344,56.0,120.0,120.0,7.0,64.0
6345,68.0,48.0,60.0,6.0,64.0
6346,60.0,120.0,120.0,7.0,64.0
6347,68.0,72.0,120.0,6.0,64.0
6348,56.0,0.0,120.0,7.0,64.0
6349,67.0,48.0,60.0,6.0,64.0
6350,61.0,72.0,120.0,7.0,64.0
6351,63.0,120.0,120.0,7.0,64.0
6352,67.0,48.0,60.0,6.0,64.0
6353,60.0,120.0,120.0,7.0,64.0
6354,68.0,72.0,120.0,6.0,64.0
6355,63.0,0.0,120.0,7.0,64.0
6356,70.0,0.0,60.0,6.0,64.0
6357,67.0,48.0,60.0,6.0,64.0
6358,58.0,72.0,120.0,7.0,64.0
6359,63.0,120.0,120.0,7.0,64.0
6360,67.0,48.0,60.0,6.0,64.0
6361,70.0,0.0,60.0,6.0,64.0
6362,56.0,96.0,120.0,7.0,64.0
6363,68.0,24.0,90.0,6.0,64.0
6364,63.0,96.0,120.0,7.0,64.0
6365,72.0,0.0,90.0,6.0,64.0
6366,55.0,96.0,90.0,7.0,64.0
6367,63.0,120.0,90.0,7.0,64.0
6368,70.0,24.0,60.0,6.0,64.0
6369,73.0,0.0,60.0,6.0,64.0
6370,56.0,96.0,90.0,7.0,64.0
6371,68.0,0.0,60.0,6.0,64.0
6372,63.0,96.0,90.0,7.0,64.0
6373,72.0,24.0,60.0,6.0,64.0
6374,70.0,120.0,60.0,6.0,64.0
6375,67.0,0.0,60.0,6.0,64.0
6376,51.0,288.0,180.0,7.0,64.0
6377,67.0,0.0,60.0,6.0,64.0
6378,70.0,0.0,60.0,6.0,64.0
6379,63.0,0.0,120.0,11.0,64.0
6380,51.0,0.0,120.0,13.0,64.0
6381,39.0,120.0,120.0,14.0,64.0
6382,51.0,0.0,120.0,12.0,64.0
6383,63.0,0.0,120.0,10.0,64.0
6384,62.0,0.0,120.0,10.0,64.0
6385,62.0,0.0,120.0,11.0,64.0
6386,50.0,0.0,120.0,12.0,64.0
6387,38.0,0.0,120.0,14.0,64.0
6388,50.0,120.0,120.0,13.0,64.0
6389,63.0,120.0,120.0,11.0,64.0
6390,39.0,0.0,120.0,14.0,64.0
6391,51.0,0.0,120.0,12.0,64.0
6392,63.0,0.0,120.0,10.0,64.0
6393,51.0,0.0,120.0,13.0,64.0
6394,49.0,0.0,120.0,12.0,64.0
6395,37.0,0.0,120.0,14.0,64.0
6396,49.0,0.0,120.0,13.0,64.0
6397,61.0,0.0,120.0,10.0,64.0
6398,61.0,96.0,120.0,11.0,64.0
6399,34.0,0.0,90.0,14.0,64.0
6400,46.0,96.0,90.0,12.0,64.0
6401,46.0,0.0,90.0,13.0,64.0
6402,58.0,0.0,90.0,11.0,64.0
6403,58.0,0.0,90.0,10.0,64.0
6404,44.0,0.0,60.0,12.0,64.0
6405,56.0,0.0,60.0,10.0,64.0
6406,44.0,48.0,60.0,13.0,64.0
6407,56.0,0.0,2100.0,3.0,64.0
6408,32.0,0.0,60.0,14.0,64.0
6409,68.0,60.0,120.0,6.0,64.0
6410,56.0,0.0,60.0,11.0,64.0
6411,44.0,0.0,2100.0,3.0,64.0
6412,44.0,0.0,60.0,2.0,64.0
6413,56.0,0.0,60.0,10.0,64.0
6414,32.0,0.0,60.0,14.0,64.0
6415,48.0,0.0,60.0,2.0,64.0
6416,44.0,0.0,60.0,13.0,64.0
6417,44.0,0.0,60.0,12.0,64.0
6418,70.0,12.0,60.0,6.0,64.0
6419,56.0,48.0,60.0,11.0,64.0
6420,72.0,60.0,60.0,6.0,64.0
6421,51.0,48.0,60.0,2.0,64.0
6422,73.0,12.0,60.0,6.0,64.0
6423,75.0,60.0,60.0,6.0,64.0
6424,68.0,0.0,120.0,1.0,64.0
6425,48.0,48.0,60.0,2.0,64.0
6426,77.0,12.0,60.0,6.0,64.0
6427,60.0,0.0,120.0,1.0,64.0
6428,79.0,60.0,60.0,6.0,64.0
6429,44.0,48.0,60.0,2.0,64.0
6430,72.0,0.0,60.0,1.0,64.0
6431,80.0,12.0,60.0,6.0,64.0
6432,63.0,0.0,60.0,1.0,64.0
6433,82.0,60.0,60.0,6.0,64.0
6434,48.0,0.0,60.0,2.0,64.0
6435,63.0,48.0,60.0,1.0,64.0
6436,84.0,12.0,60.0,6.0,64.0
6437,72.0,0.0,60.0,1.0,64.0
6438,82.0,60.0,60.0,6.0,64.0
6439,80.0,12.0,60.0,6.0,64.0
6440,51.0,48.0,60.0,2.0,64.0
6441,78.0,60.0,60.0,6.0,64.0
6442,68.0,0.0,120.0,1.0,64.0
6443,77.0,12.0,60.0,6.0,64.0
6444,48.0,48.0,60.0,2.0,64.0
6445,60.0,60.0,120.0,1.0,64.0
6446,76.0,0.0,60.0,6.0,64.0
6447,78.0,12.0,60.0,6.0,64.0
6448,61.0,48.0,60.0,1.0,64.0
6449,44.0,0.0,60.0,2.0,64.0
6450,65.0,0.0,60.0,1.0,64.0
6451,77.0,60.0,60.0,6.0,64.0
6452,49.0,0.0,60.0,2.0,64.0
6453,61.0,48.0,60.0,1.0,64.0
6454,65.0,0.0,60.0,1.0,64.0
6455,76.0,12.0,60.0,6.0,64.0
6456,77.0,60.0,60.0,6.0,64.0
6457,75.0,12.0,60.0,6.0,64.0
6458,53.0,48.0,60.0,2.0,64.0
6459,73.0,60.0,60.0,6.0,64.0
6460,72.0,12.0,60.0,6.0,64.0
6461,49.0,48.0,60.0,2.0,64.0
6462,68.0,0.0,120.0,1.0,64.0
6463,65.0,0.0,120.0,1.0,64.0
6464,73.0,60.0,120.0,0.0,64.0
6465,73.0,0.0,60.0,6.0,64.0
6466,72.0,12.0,60.0,6.0,64.0
6467,44.0,48.0,60.0,2.0,64.0
6468,77.0,0.0,60.0,0.0,64.0
6469,73.0,0.0,60.0,1.0,64.0
6470,67.0,0.0,60.0,1.0,64.0
6471,70.0,60.0,60.0,6.0,64.0
6472,77.0,0.0,60.0,0.0,64.0
6473,73.0,48.0,60.0,1.0,64.0
6474,69.0,12.0,60.0,6.0,64.0
6475,46.0,0.0,60.0,2.0,64.0
6476,67.0,0.0,60.0,1.0,64.0
6477,70.0,60.0,60.0,6.0,64.0
6478,49.0,48.0,60.0,2.0,64.0
6479,75.0,12.0,60.0,6.0,64.0
6480,73.0,60.0,60.0,6.0,64.0
6481,72.0,12.0,60.0,6.0,64.0
6482,73.0,0.0,120.0,0.0,64.0
6483,46.0,48.0,60.0,2.0,64.0
6484,67.0,60.0,120.0,1.0,64.0
6485,70.0,0.0,120.0,1.0,64.0
6486,73.0,0.0,60.0,6.0,64.0
6487,72.0,12.0,60.0,6.0,64.0
6488,72.0,0.0,60.0,0.0,64.0
6489,68.0,0.0,60.0,1.0,64.0
6490,44.0,48.0,60.0,2.0,64.0
6491,73.0,60.0,60.0,6.0,64.0
6492,63.0,0.0,60.0,1.0,64.0
6493,74.0,12.0,60.0,6.0,64.0
6494,68.0,0.0,60.0,1.0,64.0
6495,48.0,0.0,60.0,2.0,64.0
6496,72.0,48.0,60.0,0.0,64.0
6497,75.0,60.0,60.0,6.0,64.0
6498,51.0,48.0,60.0,2.0,64.0
6499,73.0,12.0,60.0,6.0,64.0
6500,72.0,60.0,60.0,6.0,64.0
6501,56.0,48.0,60.0,2.0,64.0
6502,70.0,12.0,60.0,6.0,64.0
6503,68.0,60.0,60.0,6.0,64.0
6504,61.0,60.0,120.0,7.0,64.0
6505,67.0,60.0,60.0,6.0,64.0
6506,75.0,0.0,60.0,6.0,64.0
6507,70.0,60.0,60.0,6.0,64.0
6508,63.0,60.0,120.0,7.0,64.0
6509,67.0,0.0,60.0,6.0,64.0
6510,68.0,60.0,60.0,6.0,64.0
6511,60.0,0.0,120.0,7.0,64.0
6512,75.0,60.0,60.0,6.0,64.0
6513,63.0,0.0,120.0,7.0,64.0
6514,72.0,60.0,60.0,6.0,64.0
6515,68.0,60.0,60.0,6.0,64.0
6516,61.0,60.0,120.0,7.0,64.0
6517,67.0,60.0,60.0,6.0,64.0
6518,75.0,0.0,60.0,6.0,64.0
6519,70.0,60.0,60.0,6.0,64.0
6520,63.0,0.0,120.0,7.0,64.0
6521,67.0,60.0,60.0,6.0,64.0
6522,68.0,60.0,60.0,6.0,64.0
6523,60.0,60.0,120.0,7.0,64.0
6524,75.0,0.0,60.0,6.0,64.0
6525,72.0,60.0,60.0,6.0,64.0
6526,63.0,60.0,120.0,7.0,64.0
6527,68.0,0.0,60.0,6.0,64.0
6528,70.0,60.0,60.0,6.0,64.0
6529,58.0,0.0,120.0,7.0,64.0
6530,75.0,60.0,60.0,6.0,64.0
6531,63.0,60.0,120.0,7.0,64.0
6532,73.0,60.0,60.0,6.0,64.0
6533,70.0,0.0,60.0,6.0,64.0
6534,56.0,60.0,120.0,7.0,64.0
6535,72.0,60.0,60.0,6.0,64.0
6536,80.0,0.0,60.0,6.0,64.0
6537,75.0,60.0,60.0,6.0,64.0
6538,63.0,60.0,120.0,7.0,64.0
6539,72.0,0.0,60.0,6.0,64.0
6540,73.0,12.0,60.0,6.0,64.0
6541,55.0,0.0,180.0,13.0,64.0
6542,73.0,48.0,60.0,1.0,64.0
6543,70.0,0.0,60.0,1.0,64.0
6544,70.0,48.0,180.0,10.0,64.0
6545,55.0,0.0,180.0,7.0,64.0
6546,61.0,0.0,180.0,11.0,64.0
6547,63.0,0.0,180.0,12.0,64.0
6548,63.0,0.0,60.0,2.0,64.0
6549,55.0,0.0,60.0,2.0,64.0
6550,43.0,0.0,180.0,14.0,64.0
6551,79.0,60.0,60.0,6.0,64.0
6552,55.0,0.0,60.0,2.0,64.0
6553,63.0,0.0,60.0,2.0,64.0
6554,82.0,12.0,60.0,6.0,64.0
6555,73.0,0.0,60.0,1.0,64.0
6556,70.0,0.0,60.0,1.0,64.0
6557,80.0,60.0,60.0,6.0,64.0
6558,79.0,60.0,60.0,6.0,64.0
6559,77.0,60.0,60.0,6.0,64.0
6560,63.0,48.0,60.0,2.0,64.0
6561,75.0,12.0,60.0,6.0,64.0
6562,70.0,0.0,60.0,1.0,64.0
6563,73.0,0.0,60.0,1.0,64.0
6564,55.0,0.0,60.0,2.0,64.0
6565,73.0,60.0,60.0,6.0,64.0
6566,63.0,0.0,60.0,2.0,64.0
6567,56.0,48.0,60.0,2.0,64.0
6568,60.0,0.0,180.0,11.0,64.0
6569,56.0,0.0,180.0,13.0,64.0
6570,56.0,0.0,180.0,7.0,64.0
6571,44.0,0.0,180.0,14.0,64.0
6572,72.0,12.0,60.0,6.0,64.0
6573,72.0,0.0,60.0,1.0,64.0
6574,68.0,0.0,60.0,1.0,64.0
6575,68.0,0.0,180.0,10.0,64.0
6576,63.0,0.0,180.0,12.0,64.0
6577,75.0,60.0,60.0,6.0,64.0
6578,80.0,12.0,60.0,6.0,64.0
6579,72.0,0.0,60.0,1.0,64.0
6580,68.0,0.0,60.0,1.0,64.0
6581,56.0,0.0,60.0,2.0,64.0
6582,63.0,48.0,60.0,2.0,64.0
6583,79.0,60.0,60.0,6.0,64.0
6584,77.0,60.0,60.0,6.0,64.0
6585,75.0,60.0,60.0,6.0,64.0
6586,63.0,0.0,60.0,2.0,64.0
6587,73.0,12.0,60.0,6.0,64.0
6588,68.0,0.0,60.0,1.0,64.0
6589,72.0,48.0,60.0,1.0,64.0
6590,56.0,0.0,60.0,2.0,64.0
6591,72.0,60.0,60.0,6.0,64.0
6592,70.0,12.0,60.0,6.0,64.0
6593,67.0,0.0,60.0,1.0,64.0
6594,70.0,48.0,60.0,1.0,64.0
6595,52.0,0.0,60.0,2.0,64.0
6596,60.0,0.0,60.0,2.0,64.0
6597,52.0,0.0,180.0,7.0,64.0
6598,58.0,0.0,180.0,11.0,64.0
6599,67.0,0.0,180.0,10.0,64.0
6600,60.0,48.0,180.0,12.0,64.0
6601,40.0,0.0,180.0,14.0,64.0
6602,52.0,0.0,180.0,13.0,64.0
6603,76.0,60.0,60.0,6.0,64.0
6604,67.0,0.0,60.0,1.0,64.0
6605,60.0,0.0,60.0,2.0,64.0
6606,52.0,0.0,60.0,2.0,64.0
6607,79.0,12.0,60.0,6.0,64.0
6608,70.0,0.0,60.0,1.0,64.0
6609,77.0,60.0,60.0,6.0,64.0
6610,76.0,60.0,60.0,6.0,64.0
6611,73.0,60.0,60.0,6.0,64.0
6612,70.0,0.0,60.0,1.0,64.0
6613,60.0,48.0,60.0,2.0,64.0
6614,52.0,0.0,60.0,2.0,64.0
6615,67.0,0.0,60.0,1.0,64.0
6616,72.0,12.0,60.0,6.0,64.0
6617,70.0,60.0,60.0,6.0,64.0
6618,68.0,0.0,60.0,1.0,64.0
6619,60.0,0.0,180.0,12.0,64.0
6620,65.0,0.0,180.0,10.0,64.0
6621,60.0,0.0,60.0,2.0,64.0
6622,53.0,48.0,60.0,2.0,64.0
6623,53.0,0.0,180.0,7.0,64.0
6624,56.0,0.0,180.0,11.0,64.0
6625,68.0,12.0,60.0,6.0,64.0
6626,41.0,48.0,180.0,14.0,64.0
6627,65.0,0.0,60.0,1.0,64.0
6628,53.0,0.0,180.0,13.0,64.0
6629,72.0,60.0,60.0,6.0,64.0
6630,60.0,0.0,60.0,2.0,64.0
6631,53.0,0.0,60.0,2.0,64.0
6632,65.0,0.0,60.0,1.0,64.0
6633,68.0,0.0,60.0,1.0,64.0
6634,77.0,12.0,60.0,6.0,64.0
6635,75.0,60.0,60.0,6.0,64.0
6636,73.0,60.0,60.0,6.0,64.0
6637,72.0,60.0,60.0,6.0,64.0
6638,70.0,12.0,60.0,6.0,64.0
6639,60.0,0.0,60.0,2.0,64.0
6640,65.0,0.0,60.0,1.0,64.0
6641,53.0,0.0,60.0,2.0,64.0
6642,68.0,48.0,60.0,1.0,64.0
6643,68.0,60.0,60.0,6.0,64.0
6644,56.0,0.0,60.0,2.0,64.0
6645,48.0,0.0,60.0,2.0,64.0
6646,63.0,0.0,60.0,1.0,64.0
6647,54.0,0.0,180.0,11.0,64.0
6648,48.0,0.0,180.0,7.0,64.0
6649,63.0,0.0,180.0,10.0,64.0
6650,36.0,0.0,180.0,14.0,64.0
6651,48.0,0.0,180.0,13.0,64.0
6652,56.0,0.0,180.0,12.0,64.0
6653,66.0,12.0,60.0,6.0,64.0
6654,66.0,48.0,60.0,1.0,64.0
6655,72.0,60.0,60.0,6.0,64.0
6656,66.0,48.0,60.0,1.0,64.0
6657,63.0,0.0,60.0,1.0,64.0
6658,75.0,12.0,60.0,6.0,64.0
6659,56.0,0.0,60.0,2.0,64.0
6660,48.0,0.0,60.0,2.0,64.0
6661,73.0,60.0,60.0,6.0,64.0
6662,72.0,60.0,60.0,6.0,64.0
6663,70.0,60.0,60.0,6.0,64.0
6664,68.0,12.0,60.0,6.0,64.0
6665,63.0,59.0,120.0,2.0,64.0
6666,66.0,48.0,60.0,1.0,64.0
6667,48.0,0.0,120.0,2.0,64.0
6668,68.0,0.0,60.0,1.0,64.0
6669,66.0,0.0,60.0,6.0,64.0
6670,65.0,13.0,60.0,6.0,64.0
6671,77.0,24.0,60.0,1.0,64.0
6672,49.0,23.0,90.0,2.0,64.0
6673,65.0,0.0,60.0,1.0,64.0
6674,49.0,0.0,180.0,7.0,64.0
6675,61.0,0.0,90.0,2.0,64.0
6676,68.0,60.0,60.0,6.0,64.0
6677,61.0,0.0,90.0,2.0,64.0
6678,49.0,23.0,90.0,2.0,64.0
6679,77.0,24.0,60.0,1.0,64.0
6680,68.0,0.0,60.0,1.0,64.0
6681,73.0,13.0,60.0,6.0,64.0
6682,68.0,60.0,60.0,6.0,64.0
6683,77.0,60.0,60.0,6.0,64.0
6684,56.0,47.0,180.0,12.0,64.0
6685,53.0,0.0,180.0,11.0,64.0
6686,37.0,0.0,180.0,14.0,64.0
6687,49.0,0.0,180.0,13.0,64.0
6688,65.0,0.0,180.0,10.0,64.0
6689,73.0,60.0,60.0,6.0,64.0
6690,73.0,0.0,120.0,0.0,64.0
6691,49.0,0.0,120.0,2.0,64.0
6692,56.0,59.0,120.0,2.0,64.0
6693,80.0,13.0,60.0,6.0,64.0
6694,68.0,0.0,120.0,1.0,64.0
6695,77.0,1.0,60.0,6.0,64.0
6696,67.0,47.0,60.0,1.0,64.0
6697,85.0,0.0,60.0,0.0,64.0
6698,77.0,0.0,15.0,1.0,64.0
6699,58.0,0.0,180.0,7.0,64.0
6700,58.0,0.0,60.0,2.0,64.0
6701,85.0,13.0,60.0,6.0,64.0
6702,46.0,0.0,60.0,2.0,64.0
6703,73.0,60.0,60.0,6.0,64.0
6704,85.0,13.0,60.0,6.0,64.0
6705,85.0,0.0,60.0,0.0,64.0
6706,77.0,47.0,60.0,1.0,64.0
6707,58.0,0.0,60.0,2.0,64.0
6708,46.0,0.0,60.0,2.0,64.0
6709,67.0,0.0,60.0,1.0,64.0
6710,84.0,60.0,60.0,6.0,64.0
6711,55.0,0.0,180.0,12.0,64.0
6712,34.0,0.0,180.0,14.0,64.0
6713,61.0,0.0,180.0,11.0,64.0
6714,65.0,0.0,180.0,10.0,64.0
6715,82.0,60.0,60.0,6.0,64.0
6716,46.0,47.0,180.0,13.0,64.0
6717,80.0,60.0,60.0,6.0,64.0
6718,85.0,0.0,60.0,0.0,64.0
6719,58.0,0.0,60.0,2.0,64.0
6720,46.0,0.0,60.0,2.0,64.0
6721,77.0,0.0,60.0,1.0,64.0
6722,79.0,13.0,60.0,6.0,64.0
6723,67.0,0.0,60.0,1.0,64.0
6724,77.0,60.0,60.0,6.0,64.0
6725,76.0,0.0,60.0,1.0,64.0
6726,67.0,0.0,60.0,1.0,64.0
6727,60.0,0.0,180.0,7.0,64.0
6728,48.0,47.0,60.0,2.0,64.0
6729,85.0,0.0,60.0,0.0,64.0
6730,76.0,13.0,60.0,6.0,64.0
6731,60.0,0.0,60.0,2.0,64.0
6732,79.0,60.0,60.0,6.0,64.0
6733,77.0,13.0,60.0,6.0,64.0
6734,60.0,0.0,60.0,2.0,64.0
6735,48.0,0.0,60.0,2.0,64.0
6736,76.0,0.0,60.0,1.0,64.0
6737,85.0,0.0,60.0,0.0,64.0
6738,67.0,47.0,60.0,1.0,64.0
6739,76.0,60.0,60.0,6.0,64.0
6740,61.0,0.0,180.0,11.0,64.0
6741,55.0,0.0,180.0,12.0,64.0
6742,48.0,0.0,180.0,13.0,64.0
6743,36.0,0.0,180.0,14.0,64.0
6744,77.0,60.0,60.0,6.0,64.0
6745,64.0,0.0,180.0,10.0,64.0
6746,79.0,60.0,60.0,6.0,64.0
6747,76.0,0.0,60.0,1.0,64.0
6748,67.0,0.0,60.0,1.0,64.0
6749,80.0,13.0,60.0,6.0,64.0
6750,48.0,0.0,60.0,2.0,64.0
6751,60.0,0.0,60.0,2.0,64.0
6752,85.0,47.0,60.0,0.0,64.0
6753,82.0,60.0,60.0,6.0,64.0
6754,57.0,0.0,60.0,2.0,64.0
6755,45.0,0.0,60.0,2.0,64.0
6756,57.0,0.0,180.0,7.0,64.0
6757,84.0,13.0,60.0,6.0,64.0
6758,84.0,47.0,60.0,0.0,64.0
6759,66.0,0.0,60.0,1.0,64.0
6760,75.0,0.0,60.0,1.0,64.0
6761,72.0,60.0,60.0,6.0,64.0
6762,66.0,0.0,60.0,1.0,64.0
6763,57.0,0.0,60.0,2.0,64.0
6764,45.0,47.0,60.0,2.0,64.0
6765,84.0,0.0,60.0,0.0,64.0
6766,75.0,0.0,60.0,1.0,64.0
6767,84.0,13.0,60.0,6.0,64.0
6768,82.0,60.0,60.0,6.0,64.0
6769,60.0,47.0,180.0,11.0,64.0
6770,63.0,0.0,180.0,10.0,64.0
6771,81.0,60.0,60.0,6.0,64.0
6772,54.0,0.0,180.0,12.0,64.0
6773,33.0,0.0,180.0,14.0,64.0
6774,45.0,0.0,180.0,13.0,64.0
6775,78.0,60.0,60.0,6.0,64.0
6776,66.0,0.0,60.0,1.0,64.0
6777,45.0,0.0,60.0,2.0,64.0
6778,77.0,13.0,60.0,6.0,64.0
6779,57.0,0.0,60.0,2.0,64.0
6780,84.0,0.0,60.0,0.0,64.0
6781,75.0,0.0,60.0,1.0,64.0
6782,75.0,60.0,60.0,6.0,64.0
6783,58.0,0.0,60.0,2.0,64.0
6784,46.0,0.0,60.0,2.0,64.0
6785,84.0,47.0,60.0,0.0,64.0
6786,65.0,0.0,60.0,1.0,64.0
6787,74.0,0.0,60.0,1.0,64.0
6788,58.0,47.0,180.0,7.0,64.0
6789,74.0,13.0,60.0,6.0,64.0
6790,77.0,60.0,60.0,6.0,64.0
6791,46.0,0.0,60.0,2.0,64.0
6792,74.0,0.0,60.0,1.0,64.0
6793,65.0,0.0,60.0,1.0,64.0
6794,75.0,13.0,60.0,6.0,64.0
6795,58.0,0.0,60.0,2.0,64.0
6796,84.0,0.0,60.0,0.0,64.0
6797,74.0,60.0,60.0,6.0,64.0
6798,53.0,47.0,180.0,12.0,64.0
6799,46.0,0.0,180.0,13.0,64.0
6800,34.0,0.0,180.0,14.0,64.0
6801,60.0,0.0,180.0,11.0,64.0
6802,75.0,60.0,60.0,6.0,64.0
6803,62.0,0.0,180.0,10.0,64.0
6804,77.0,60.0,60.0,6.0,64.0
6805,79.0,13.0,60.0,6.0,64.0
6806,58.0,0.0,60.0,2.0,64.0
6807,46.0,0.0,60.0,2.0,64.0
6808,74.0,0.0,60.0,1.0,64.0
6809,65.0,0.0,60.0,1.0,64.0
6810,84.0,0.0,60.0,0.0,64.0
6811,81.0,60.0,60.0,6.0,64.0
6812,82.0,0.0,60.0,0.0,64.0
6813,55.0,0.0,180.0,7.0,64.0
6814,55.0,0.0,60.0,2.0,64.0
6815,43.0,0.0,60.0,2.0,64.0
6816,73.0,0.0,60.0,1.0,64.0
6817,82.0,13.0,60.0,6.0,64.0
6818,64.0,47.0,60.0,1.0,64.0
6819,70.0,60.0,60.0,6.0,64.0
6820,73.0,0.0,60.0,1.0,64.0
6821,82.0,47.0,60.0,0.0,64.0
6822,55.0,0.0,60.0,2.0,64.0
6823,64.0,0.0,60.0,1.0,64.0
6824,82.0,13.0,60.0,6.0,64.0
6825,43.0,0.0,60.0,2.0,64.0
6826,80.0,60.0,60.0,6.0,64.0
6827,51.0,47.0,180.0,12.0,64.0
6828,79.0,60.0,60.0,6.0,64.0
6829,61.0,0.0,180.0,10.0,64.0
6830,58.0,0.0,180.0,11.0,64.0
6831,43.0,0.0,180.0,13.0,64.0
6832,31.0,0.0,180.0,14.0,64.0
6833,77.0,60.0,60.0,6.0,64.0
6834,64.0,0.0,60.0,1.0,64.0
6835,43.0,0.0,60.0,2.0,64.0
6836,55.0,0.0,60.0,2.0,64.0
6837,75.0,13.0,60.0,6.0,64.0
6838,73.0,0.0,60.0,1.0,64.0
6839,82.0,0.0,60.0,0.0,64.0
6840,73.0,60.0,60.0,6.0,64.0
6841,72.0,0.0,60.0,1.0,64.0
6842,67.0,47.0,60.0,1.0,64.0
6843,82.0,0.0,60.0,0.0,64.0
6844,40.0,0.0,60.0,2.0,64.0
6845,72.0,13.0,60.0,6.0,64.0
6846,52.0,0.0,60.0,2.0,64.0
6847,52.0,0.0,180.0,7.0,64.0
6848,76.0,60.0,60.0,6.0,64.0
6849,82.0,47.0,60.0,0.0,64.0
6850,40.0,0.0,60.0,2.0,64.0
6851,52.0,0.0,60.0,2.0,64.0
6852,67.0,0.0,60.0,1.0,64.0
6853,74.0,13.0,60.0,6.0,64.0
6854,72.0,0.0,60.0,1.0,64.0
6855,72.0,60.0,60.0,6.0,64.0
6856,58.0,0.0,180.0,11.0,64.0
6857,40.0,0.0,180.0,13.0,64.0
6858,74.0,60.0,60.0,6.0,64.0
6859,28.0,0.0,180.0,14.0,64.0
6860,55.0,0.0,180.0,12.0,64.0
6861,60.0,0.0,180.0,10.0,64.0
6862,76.0,60.0,60.0,6.0,64.0
6863,82.0,0.0,60.0,0.0,64.0
6864,52.0,47.0,60.0,2.0,64.0
6865,67.0,0.0,60.0,1.0,64.0
6866,72.0,0.0,60.0,1.0,64.0
6867,77.0,13.0,60.0,6.0,64.0
6868,40.0,0.0,60.0,2.0,64.0
6869,79.0,60.0,60.0,6.0,64.0
6870,53.0,0.0,180.0,7.0,64.0
6871,41.0,0.0,60.0,2.0,64.0
6872,53.0,0.0,60.0,2.0,64.0
6873,80.0,0.0,60.0,0.0,64.0
6874,80.0,13.0,60.0,6.0,64.0
6875,65.0,0.0,60.0,1.0,64.0
6876,72.0,47.0,60.0,1.0,64.0
6877,68.0,60.0,60.0,6.0,64.0
6878,72.0,0.0,60.0,1.0,64.0
6879,65.0,47.0,60.0,1.0,64.0
6880,41.0,0.0,60.0,2.0,64.0
6881,53.0,0.0,60.0,2.0,64.0
6882,80.0,0.0,60.0,0.0,64.0
6883,80.0,13.0,60.0,6.0,64.0
6884,79.0,60.0,60.0,6.0,64.0
6885,53.0,0.0,180.0,12.0,64.0
6886,60.0,0.0,180.0,10.0,64.0
6887,77.0,60.0,60.0,6.0,64.0
6888,41.0,0.0,180.0,13.0,64.0
6889,56.0,0.0,180.0,11.0,64.0
6890,29.0,0.0,180.0,14.0,64.0
6891,75.0,60.0,60.0,6.0,64.0
6892,80.0,0.0,60.0,0.0,64.0
6893,41.0,0.0,60.0,2.0,64.0
6894,73.0,13.0,60.0,6.0,64.0
6895,72.0,47.0,60.0,1.0,64.0
6896,53.0,0.0,60.0,2.0,64.0
6897,65.0,0.0,60.0,1.0,64.0
6898,72.0,60.0,60.0,6.0,64.0
6899,65.0,0.0,180.0,1.0,64.0
6900,68.0,0.0,180.0,1.0,64.0
6901,56.0,0.0,960.0,11.0,64.0
6902,49.0,0.0,180.0,2.0,64.0
6903,53.0,0.0,960.0,7.0,64.0
6904,49.0,0.0,960.0,7.0,64.0
6905,25.0,0.0,1680.0,14.0,64.0
6906,53.0,9.0,960.0,12.0,64.0
6907,37.0,0.0,180.0,2.0,64.0
6908,58.0,0.0,960.0,7.0,64.0
6909,58.0,0.0,1680.0,10.0,64.0
6910,70.0,47.0,180.0,0.0,64.0
6911,70.0,60.0,60.0,6.0,64.0
6912,37.0,0.0,1680.0,13.0,64.0
6913,65.0,60.0,60.0,6.0,64.0
6914,67.0,13.0,60.0,6.0,64.0
6915,69.0,60.0,60.0,6.0,64.0
6916,70.0,60.0,60.0,6.0,64.0
6917,72.0,60.0,60.0,6.0,64.0
6918,73.0,60.0,60.0,6.0,64.0
6919,75.0,60.0,60.0,6.0,64.0
6920,77.0,60.0,60.0,6.0,64.0
6921,78.0,60.0,60.0,6.0,64.0
6922,77.0,60.0,60.0,6.0,64.0
6923,75.0,60.0,60.0,6.0,64.0
6924,73.0,60.0,60.0,6.0,64.0
6925,72.0,60.0,60.0,6.0,64.0
6926,70.0,51.0,60.0,6.0,64.0
6927,68.0,97.0,60.0,6.0,64.0
6928,55.0,24.0,660.0,7.0,64.0
6929,51.0,0.0,720.0,12.0,64.0
6930,51.0,0.0,660.0,7.0,64.0
6931,49.0,0.0,660.0,7.0,64.0
6932,67.0,120.0,90.0,6.0,64.0
6933,79.0,0.0,90.0,6.0,64.0
6934,58.0,0.0,660.0,7.0,64.0
6935,55.0,101.0,720.0,11.0,64.0
6936,77.0,120.0,90.0,6.0,64.0
6937,65.0,0.0,90.0,6.0,64.0
6938,79.0,0.0,90.0,6.0,64.0
6939,67.0,120.0,90.0,6.0,64.0
6940,80.0,120.0,90.0,6.0,64.0
6941,68.0,0.0,90.0,6.0,64.0
6942,70.0,0.0,90.0,6.0,64.0
6943,82.0,96.0,90.0,6.0,64.0
6944,84.0,19.0,90.0,6.0,64.0
6945,72.0,0.0,90.0,6.0,64.0
6946,85.0,144.0,90.0,6.0,64.0
6947,73.0,0.0,90.0,6.0,64.0
6948,79.0,60.0,60.0,6.0,64.0
6949,60.0,5.0,240.0,7.0,64.0
6950,82.0,60.0,60.0,6.0,64.0
6951,80.0,60.0,60.0,6.0,64.0
6952,79.0,55.0,60.0,6.0,64.0
6953,80.0,60.0,60.0,6.0,64.0
6954,61.0,5.0,240.0,7.0,64.0
6955,79.0,60.0,60.0,6.0,64.0
6956,77.0,60.0,60.0,6.0,64.0
6957,75.0,55.0,60.0,6.0,64.0
6958,73.0,60.0,60.0,6.0,64.0
6959,72.0,60.0,60.0,6.0,64.0
6960,63.0,4.0,240.0,7.0,64.0
6961,73.0,60.0,60.0,6.0,64.0
6962,74.0,55.0,60.0,6.0,64.0
6963,75.0,61.0,60.0,6.0,64.0
6964,75.0,60.0,60.0,6.0,64.0
6965,51.0,5.0,240.0,7.0,64.0
6966,73.0,60.0,60.0,6.0,64.0
6967,72.0,55.0,60.0,6.0,64.0
6968,70.0,120.0,60.0,6.0,64.0
6969,44.0,0.0,960.0,7.0,64.0
6970,41.0,0.0,960.0,7.0,64.0
6971,38.0,0.0,960.0,7.0,64.0
6972,38.0,0.0,960.0,14.0,64.0
6973,50.0,10.0,960.0,13.0,64.0
6974,58.0,60.0,120.0,6.0,64.0
6975,46.0,0.0,960.0,7.0,64.0
6976,68.0,0.0,960.0,10.0,64.0
6977,65.0,0.0,960.0,11.0,64.0
6978,58.0,101.0,1680.0,12.0,64.0
6979,60.0,60.0,60.0,6.0,64.0
6980,62.0,60.0,60.0,6.0,64.0
6981,63.0,60.0,60.0,6.0,64.0
6982,65.0,60.0,60.0,6.0,64.0
6983,67.0,60.0,60.0,6.0,64.0
6984,69.0,60.0,60.0,6.0,64.0
6985,70.0,60.0,60.0,6.0,64.0
6986,72.0,60.0,60.0,6.0,64.0
6987,74.0,60.0,60.0,6.0,64.0
6988,75.0,60.0,60.0,6.0,64.0
6989,77.0,60.0,60.0,6.0,64.0
6990,79.0,60.0,60.0,6.0,64.0
6991,81.0,50.0,60.0,6.0,64.0
6992,82.0,96.0,60.0,6.0,64.0
6993,49.0,0.0,720.0,13.0,64.0
6994,63.0,0.0,720.0,11.0,64.0
6995,37.0,0.0,720.0,14.0,64.0
6996,67.0,0.0,720.0,10.0,64.0
6997,37.0,0.0,660.0,7.0,64.0
6998,63.0,120.0,90.0,6.0,64.0
6999,75.0,0.0,90.0,6.0,64.0
7000,46.0,0.0,660.0,7.0,64.0
7001,43.0,24.0,660.0,7.0,64.0
7002,39.0,0.0,660.0,7.0,64.0
7003,77.0,0.0,90.0,6.0,64.0
7004,65.0,120.0,90.0,6.0,64.0
7005,79.0,0.0,90.0,6.0,64.0
7006,67.0,120.0,90.0,6.0,64.0
7007,80.0,120.0,90.0,6.0,64.0
7008,68.0,0.0,90.0,6.0,64.0
7009,82.0,0.0,90.0,6.0,64.0
7010,70.0,96.0,90.0,6.0,64.0
7011,84.0,0.0,90.0,6.0,64.0
7012,72.0,19.0,90.0,6.0,64.0
7013,85.0,0.0,90.0,6.0,64.0
7014,73.0,143.0,90.0,6.0,64.0
7015,79.0,60.0,60.0,6.0,64.0
7016,48.0,0.0,180.0,7.0,64.0
7017,72.0,0.0,60.0,11.0,64.0
7018,63.0,0.0,60.0,12.0,64.0
7019,75.0,47.0,60.0,10.0,64.0
7020,48.0,0.0,180.0,13.0,64.0
7021,36.0,0.0,180.0,14.0,64.0
7022,80.0,13.0,60.0,6.0,64.0
7023,84.0,60.0,60.0,6.0,64.0
7024,75.0,0.0,60.0,10.0,64.0
7025,72.0,47.0,60.0,11.0,64.0
7026,80.0,13.0,60.0,6.0,64.0
7027,63.0,0.0,60.0,12.0,64.0
7028,75.0,60.0,60.0,6.0,64.0
7029,70.0,0.0,60.0,11.0,64.0
7030,37.0,0.0,180.0,14.0,64.0
7031,73.0,0.0,60.0,10.0,64.0
7032,49.0,47.0,180.0,13.0,64.0
7033,65.0,47.0,60.0,12.0,64.0
7034,77.0,13.0,60.0,6.0,64.0
7035,49.0,0.0,180.0,7.0,64.0
7036,80.0,60.0,60.0,6.0,64.0
7037,77.0,13.0,60.0,6.0,64.0
7038,70.0,0.0,60.0,11.0,64.0
7039,73.0,0.0,60.0,10.0,64.0
7040,65.0,0.0,60.0,12.0,64.0
7041,73.0,49.0,60.0,6.0,64.0
7042,51.0,0.0,180.0,7.0,64.0
7043,39.0,0.0,180.0,14.0,64.0
7044,72.0,0.0,60.0,10.0,64.0
7045,72.0,24.0,40.0,6.0,64.0
7046,51.0,0.0,180.0,13.0,64.0
7047,63.0,36.0,60.0,12.0,64.0
7048,68.0,0.0,60.0,11.0,64.0
7049,75.0,60.0,40.0,6.0,64.0
7050,72.0,24.0,40.0,6.0,64.0
7051,72.0,36.0,60.0,10.0,64.0
7052,63.0,0.0,60.0,12.0,64.0
7053,68.0,0.0,60.0,11.0,64.0
7054,68.0,60.0,40.0,6.0,64.0
7055,39.0,0.0,180.0,7.0,64.0
7056,39.0,0.0,180.0,13.0,64.0
7057,61.0,0.0,60.0,12.0,64.0
7058,67.0,0.0,60.0,11.0,64.0
7059,70.0,36.0,60.0,10.0,64.0
7060,27.0,0.0,180.0,14.0,64.0
7061,70.0,24.0,40.0,6.0,64.0
7062,73.0,60.0,40.0,6.0,64.0
7063,67.0,0.0,60.0,11.0,64.0
7064,61.0,36.0,60.0,12.0,64.0
7065,70.0,24.0,40.0,6.0,64.0
7066,70.0,0.0,60.0,10.0,64.0
7067,67.0,204.0,40.0,6.0,64.0
7068,32.0,0.0,180.0,14.0,64.0
7069,44.0,0.0,180.0,13.0,64.0
7070,68.0,0.0,180.0,10.0,64.0
7071,44.0,0.0,180.0,7.0,64.0
7072,68.0,0.0,180.0,11.0,64.0
7073,60.0,528.0,180.0,12.0,64.0
7074,68.0,0.0,180.0,6.0,64.0
7075,65.0,0.0,240.0,6.0,64.0
7076,49.0,96.0,240.0,7.0,64.0
7077,56.0,0.0,240.0,7.0,64.0
7078,58.0,0.0,90.0,6.0,64.0
7079,49.0,384.0,90.0,7.0,64.0
7080,55.0,0.0,90.0,7.0,64.0
7081,63.0,48.0,240.0,6.0,64.0
7082,56.0,48.0,300.0,7.0,64.0
7083,48.0,0.0,300.0,7.0,64.0
7084,68.0,384.0,90.0,6.0,64.0
7085,77.0,0.0,240.0,6.0,64.0
7086,68.0,0.0,240.0,7.0,64.0
7087,61.0,96.0,240.0,7.0,64.0
7088,67.0,0.0,90.0,7.0,64.0
7089,70.0,264.0,90.0,6.0,64.0
7090,61.0,0.0,90.0,7.0,64.0
7091,60.0,0.0,480.0,7.0,64.0
7092,68.0,120.0,240.0,7.0,64.0
7093,75.0,39.0,120.0,6.0,64.0
7094,80.0,81.0,40.0,6.0,64.0
7095,75.0,39.0,120.0,6.0,64.0
7096,81.0,81.0,40.0,6.0,64.0
7097,63.0,120.0,15.0,7.0,64.0
7098,75.0,39.0,120.0,6.0,64.0
7099,55.0,15.0,390.0,7.0,64.0
7100,82.0,201.0,40.0,6.0,64.0
7101,75.0,24.0,120.0,6.0,64.0
7102,83.0,177.0,40.0,6.0,64.0
7103,56.0,24.0,90.0,7.0,64.0
7104,84.0,48.0,120.0,6.0,64.0
7105,63.0,0.0,90.0,7.0,64.0
7106,80.0,168.0,40.0,6.0,64.0
7107,77.0,48.0,120.0,6.0,64.0
7108,65.0,0.0,90.0,7.0,64.0
7109,61.0,24.0,90.0,7.0,64.0
7110,73.0,192.0,40.0,6.0,64.0
7111,63.0,0.0,480.0,7.0,64.0
7112,68.0,0.0,240.0,7.0,64.0
7113,72.0,120.0,120.0,6.0,64.0
7114,75.0,120.0,120.0,6.0,64.0
7115,70.0,120.0,120.0,6.0,64.0
7116,67.0,240.0,240.0,7.0,64.0
7117,75.0,0.0,120.0,6.0,64.0
7118,70.0,96.0,240.0,6.0,64.0
7119,73.0,0.0,240.0,6.0,64.0
7120,67.0,0.0,240.0,6.0,64.0
7121,56.0,216.0,390.0,7.0,64.0
7122,68.0,48.0,90.0,6.0,64.0
7123,72.0,0.0,90.0,6.0,64.0
7124,82.0,0.0,240.0,0.0,64.0
7125,55.0,0.0,300.0,2.0,64.0
7126,49.0,12.0,300.0,2.0,64.0
7127,70.0,0.0,240.0,1.0,64.0
7128,64.0,48.0,240.0,1.0,64.0
7129,70.0,60.0,60.0,6.0,64.0
7130,72.0,60.0,60.0,6.0,64.0
7131,73.0,0.0,60.0,6.0,64.0
7132,74.0,36.0,60.0,6.0,64.0
7133,58.0,0.0,90.0,1.0,64.0
7134,75.0,24.0,90.0,0.0,64.0
7135,63.0,0.0,90.0,1.0,64.0
7136,75.0,60.0,60.0,6.0,64.0
7137,77.0,60.0,60.0,6.0,64.0
7138,79.0,120.0,60.0,6.0,64.0
7139,63.0,0.0,240.0,1.0,64.0
7140,75.0,0.0,240.0,0.0,64.0
7141,60.0,0.0,240.0,1.0,64.0
7142,56.0,0.0,240.0,2.0,64.0
7143,80.0,60.0,60.0,6.0,64.0
7144,84.0,60.0,60.0,6.0,64.0
7145,82.0,60.0,60.0,6.0,64.0
7146,63.0,0.0,90.0,1.0,64.0
7147,51.0,0.0,90.0,2.0,64.0
7148,48.0,0.0,15.0,2.0,64.0
7149,80.0,24.0,90.0,0.0,64.0
7150,68.0,0.0,90.0,1.0,64.0
7151,80.0,36.0,60.0,6.0,64.0
7152,79.0,60.0,60.0,6.0,64.0
7153,77.0,60.0,60.0,6.0,64.0
7154,75.0,120.0,60.0,6.0,64.0
7155,55.0,0.0,300.0,2.0,64.0
7156,49.0,12.0,300.0,2.0,64.0
7157,64.0,48.0,240.0,1.0,64.0
7158,70.0,0.0,240.0,1.0,64.0
7159,82.0,0.0,240.0,0.0,64.0
7160,70.0,60.0,60.0,6.0,64.0
7161,72.0,60.0,60.0,6.0,64.0
7162,73.0,0.0,60.0,6.0,64.0
7163,75.0,0.0,90.0,0.0,64.0
7164,74.0,36.0,60.0,6.0,64.0
7165,58.0,24.0,90.0,1.0,64.0
7166,63.0,0.0,90.0,1.0,64.0
7167,75.0,60.0,60.0,6.0,64.0
7168,77.0,60.0,60.0,6.0,64.0
7169,79.0,120.0,60.0,6.0,64.0
7170,56.0,0.0,240.0,2.0,64.0
7171,75.0,0.0,240.0,0.0,64.0
7172,60.0,0.0,240.0,1.0,64.0
7173,80.0,60.0,60.0,6.0,64.0
7174,84.0,60.0,60.0,6.0,64.0
7175,82.0,0.0,60.0,6.0,64.0
7176,80.0,36.0,60.0,6.0,64.0
7177,63.0,0.0,15.0,1.0,64.0
7178,80.0,0.0,90.0,0.0,64.0
7179,68.0,0.0,90.0,1.0,64.0
7180,48.0,60.0,15.0,2.0,64.0
7181,51.0,0.0,90.0,2.0,64.0
7182,79.0,60.0,60.0,6.0,64.0
7183,77.0,60.0,60.0,6.0,64.0
7184,75.0,60.0,60.0,6.0,64.0
7185,73.0,60.0,60.0,6.0,64.0
7186,43.0,0.0,330.0,2.0,64.0
7187,61.0,24.0,330.0,1.0,64.0
7188,58.0,0.0,240.0,2.0,64.0
7189,75.0,0.0,240.0,0.0,64.0
7190,63.0,60.0,240.0,1.0,64.0
7191,72.0,60.0,60.0,6.0,64.0
7192,70.0,60.0,60.0,6.0,64.0
7193,68.0,0.0,60.0,6.0,64.0
7194,82.0,0.0,90.0,0.0,64.0
7195,51.0,0.0,90.0,2.0,64.0
7196,70.0,0.0,90.0,1.0,64.0
7197,67.0,36.0,60.0,6.0,64.0
7198,65.0,60.0,60.0,6.0,64.0
7199,63.0,60.0,60.0,6.0,64.0
7200,61.0,48.0,60.0,6.0,64.0
7201,68.0,0.0,180.0,4.0,64.0
7202,56.0,0.0,180.0,4.0,64.0
7203,60.0,24.0,40.0,12.0,64.0
7204,60.0,0.0,180.0,6.0,64.0
7205,63.0,0.0,40.0,11.0,64.0
7206,72.0,36.0,180.0,10.0,64.0
7207,32.0,36.0,60.0,14.0,64.0
7208,63.0,0.0,180.0,10.0,64.0
7209,56.0,0.0,180.0,10.0,64.0
7210,44.0,0.0,180.0,5.0,64.0
7211,44.0,0.0,60.0,2.0,64.0
7212,60.0,10.0,480.0,1.0,64.0
7213,84.0,12.0,150.0,0.0,64.0
7214,44.0,0.0,390.0,3.0,64.0
7215,56.0,16.0,390.0,3.0,64.0
7216,72.0,0.0,480.0,1.0,64.0
7217,44.0,0.0,60.0,13.0,64.0
7218,60.0,0.0,40.0,12.0,64.0
7219,63.0,48.0,40.0,11.0,64.0
7220,56.0,0.0,60.0,13.0,64.0
7221,56.0,0.0,60.0,2.0,64.0
7222,44.0,0.0,60.0,14.0,64.0
7223,63.0,24.0,40.0,11.0,64.0
7224,60.0,0.0,40.0,12.0,64.0
7225,60.0,60.0,40.0,12.0,64.0
7226,63.0,0.0,40.0,11.0,64.0
7227,54.0,0.0,60.0,2.0,64.0
7228,80.0,27.0,120.0,0.0,64.0
7229,63.0,0.0,40.0,11.0,64.0
7230,60.0,24.0,40.0,12.0,64.0
7231,42.0,36.0,60.0,14.0,64.0
7232,54.0,0.0,60.0,13.0,64.0
7233,60.0,0.0,40.0,12.0,64.0
7234,63.0,9.0,40.0,11.0,64.0
7235,60.0,0.0,40.0,12.0,64.0
7236,44.0,0.0,60.0,14.0,64.0
7237,68.0,8.0,40.0,10.0,64.0
7238,63.0,24.0,40.0,11.0,64.0
7239,56.0,8.0,60.0,13.0,64.0
7240,56.0,0.0,60.0,2.0,64.0
7241,70.0,19.0,40.0,10.0,64.0
7242,63.0,2.0,40.0,11.0,64.0
7243,60.0,0.0,40.0,12.0,64.0
7244,80.0,9.0,40.0,0.0,64.0
7245,72.0,48.0,40.0,10.0,64.0
7246,61.0,53.0,240.0,1.0,64.0
7247,68.0,0.0,180.0,4.0,64.0
7248,56.0,6.0,180.0,4.0,64.0
7249,56.0,24.0,40.0,12.0,64.0
7250,68.0,0.0,40.0,11.0,64.0
7251,73.0,30.0,90.0,10.0,64.0
7252,53.0,0.0,60.0,2.0,64.0
7253,56.0,24.0,390.0,3.0,64.0
7254,44.0,0.0,180.0,5.0,64.0
7255,73.0,0.0,240.0,1.0,64.0
7256,41.0,6.0,60.0,14.0,64.0
7257,80.0,0.0,1140.0,0.0,64.0
7258,53.0,0.0,60.0,13.0,64.0
7259,44.0,0.0,390.0,3.0,64.0
7260,68.0,0.0,40.0,11.0,64.0
7261,56.0,60.0,40.0,12.0,64.0
7262,56.0,0.0,60.0,13.0,64.0
7263,68.0,24.0,40.0,11.0,64.0
7264,56.0,0.0,60.0,2.0,64.0
7265,73.0,30.0,90.0,10.0,64.0
7266,56.0,0.0,40.0,12.0,64.0
7267,44.0,0.0,60.0,14.0,64.0
7268,68.0,0.0,40.0,11.0,64.0
7269,56.0,7.0,40.0,12.0,64.0
7270,53.0,0.0,60.0,13.0,64.0
7271,68.0,0.0,40.0,11.0,64.0
7272,65.0,24.0,40.0,12.0,64.0
7273,53.0,6.0,60.0,2.0,64.0
7274,62.0,53.0,240.0,1.0,64.0
7275,74.0,30.0,90.0,10.0,64.0
7276,74.0,0.0,240.0,1.0,64.0
7277,41.0,0.0,60.0,14.0,64.0
7278,65.0,0.0,40.0,12.0,64.0
7279,68.0,36.0,40.0,11.0,64.0
7280,68.0,0.0,40.0,11.0,64.0
7281,74.0,30.0,90.0,10.0,64.0
7282,56.0,6.0,60.0,13.0,64.0
7283,56.0,0.0,60.0,2.0,64.0
7284,44.0,0.0,60.0,14.0,64.0
7285,65.0,24.0,40.0,12.0,64.0
7286,65.0,7.0,40.0,12.0,64.0
7287,68.0,0.0,40.0,11.0,64.0
7288,44.0,0.0,180.0,5.0,64.0
7289,68.0,0.0,40.0,11.0,64.0
7290,36.0,0.0,60.0,14.0,64.0
7291,63.0,53.0,240.0,1.0,64.0
7292,75.0,0.0,240.0,1.0,64.0
7293,48.0,6.0,60.0,2.0,64.0
7294,48.0,0.0,60.0,13.0,64.0
7295,75.0,30.0,90.0,10.0,64.0
7296,66.0,24.0,40.0,12.0,64.0
7297,44.0,0.0,180.0,3.0,64.0
7298,56.0,0.0,180.0,3.0,64.0
7299,68.0,0.0,180.0,4.0,64.0
7300,56.0,6.0,180.0,4.0,64.0
7301,66.0,0.0,40.0,12.0,64.0
7302,68.0,60.0,40.0,11.0,64.0
7303,75.0,30.0,90.0,10.0,64.0
7304,44.0,0.0,60.0,14.0,64.0
7305,68.0,0.0,40.0,11.0,64.0
7306,56.0,0.0,60.0,13.0,64.0
7307,56.0,0.0,60.0,2.0,64.0
7308,66.0,24.0,40.0,12.0,64.0
7309,66.0,7.0,40.0,12.0,64.0
7310,68.0,0.0,40.0,11.0,64.0
7311,48.0,0.0,60.0,2.0,64.0
7312,48.0,6.0,60.0,13.0,64.0
7313,64.0,53.0,240.0,1.0,64.0
7314,76.0,0.0,240.0,1.0,64.0
7315,56.0,0.0,180.0,3.0,64.0
7316,44.0,0.0,180.0,3.0,64.0
7317,36.0,0.0,60.0,14.0,64.0
7318,56.0,0.0,150.0,4.0,64.0
7319,68.0,24.0,150.0,4.0,64.0
7320,66.0,0.0,40.0,12.0,64.0
7321,68.0,24.0,40.0,11.0,64.0
7322,76.0,30.0,90.0,10.0,64.0
7323,44.0,0.0,150.0,5.0,64.0
7324,66.0,36.0,40.0,12.0,64.0
7325,68.0,0.0,40.0,11.0,64.0
7326,44.0,0.0,60.0,14.0,64.0
7327,56.0,6.0,60.0,2.0,64.0
7328,76.0,30.0,90.0,10.0,64.0
7329,56.0,0.0,60.0,13.0,64.0
7330,68.0,24.0,40.0,11.0,64.0
7331,66.0,0.0,40.0,12.0,64.0
7332,56.0,0.0,40.0,4.0,64.0
7333,66.0,0.0,40.0,12.0,64.0
7334,44.0,7.0,40.0,5.0,64.0
7335,68.0,0.0,40.0,4.0,64.0
7336,68.0,0.0,40.0,11.0,64.0
7337,56.0,0.0,180.0,3.0,64.0
7338,44.0,6.0,180.0,3.0,64.0
7339,68.0,24.0,40.0,11.0,64.0
7340,37.0,6.0,60.0,14.0,64.0
7341,77.0,0.0,240.0,1.0,64.0
7342,49.0,0.0,60.0,2.0,64.0
7343,56.0,0.0,180.0,4.0,64.0
7344,65.0,53.0,240.0,1.0,64.0
7345,77.0,30.0,90.0,10.0,64.0
7346,68.0,0.0,180.0,4.0,64.0
7347,44.0,0.0,180.0,5.0,64.0
7348,49.0,0.0,60.0,13.0,64.0
7349,65.0,0.0,40.0,12.0,64.0
7350,65.0,60.0,40.0,12.0,64.0
7351,68.0,0.0,40.0,11.0,64.0
7352,68.0,24.0,40.0,11.0,64.0
7353,56.0,0.0,60.0,13.0,64.0
7354,65.0,0.0,40.0,12.0,64.0
7355,44.0,0.0,60.0,14.0,64.0
7356,56.0,0.0,60.0,2.0,64.0
7357,77.0,30.0,90.0,10.0,64.0
7358,65.0,7.0,40.0,12.0,64.0
7359,68.0,0.0,40.0,11.0,64.0
7360,39.0,0.0,180.0,5.0,64.0
7361,46.0,0.0,60.0,2.0,64.0
7362,46.0,6.0,60.0,13.0,64.0
7363,85.0,0.0,180.0,0.0,64.0
7364,63.0,0.0,40.0,12.0,64.0
7365,63.0,0.0,180.0,4.0,64.0
7366,51.0,0.0,180.0,3.0,64.0
7367,58.0,6.0,180.0,3.0,64.0
7368,34.0,0.0,60.0,14.0,64.0
7369,73.0,24.0,40.0,11.0,64.0
7370,79.0,30.0,90.0,10.0,64.0
7371,79.0,77.0,240.0,1.0,64.0
7372,67.0,0.0,240.0,1.0,64.0
7373,63.0,0.0,40.0,12.0,64.0
7374,73.0,60.0,40.0,11.0,64.0
7375,63.0,0.0,40.0,12.0,64.0
7376,51.0,0.0,60.0,2.0,64.0
7377,51.0,0.0,60.0,13.0,64.0
7378,39.0,0.0,60.0,14.0,64.0
7379,73.0,24.0,40.0,11.0,64.0
7380,79.0,30.0,90.0,10.0,64.0
7381,73.0,7.0,40.0,11.0,64.0
7382,63.0,0.0,40.0,12.0,64.0
7383,80.0,0.0,90.0,10.0,64.0
7384,68.0,82.0,480.0,1.0,64.0
7385,80.0,0.0,960.0,1.0,64.0
7386,44.0,6.0,180.0,5.0,64.0
7387,60.0,0.0,960.0,3.0,64.0
7388,56.0,0.0,180.0,4.0,64.0
7389,72.0,96.0,90.0,11.0,64.0
7390,32.0,0.0,60.0,14.0,64.0
7391,56.0,0.0,960.0,3.0,64.0
7392,44.0,0.0,60.0,2.0,64.0
7393,44.0,6.0,60.0,13.0,64.0
7394,84.0,346.0,960.0,0.0,64.0
7395,68.0,0.0,180.0,4.0,64.0
7396,63.0,18.0,90.0,12.0,64.0
7397,56.0,0.0,60.0,2.0,64.0
7398,44.0,0.0,60.0,14.0,64.0
7399,72.0,0.0,180.0,11.0,64.0
7400,80.0,0.0,180.0,10.0,64.0
7401,56.0,0.0,60.0,13.0,64.0
7402,68.0,114.0,90.0,12.0,64.0
7403,44.0,0.0,180.0,5.0,64.0
7404,41.0,0.0,60.0,14.0,64.0
7405,53.0,0.0,60.0,2.0,64.0
7406,68.0,6.0,180.0,4.0,64.0
7407,56.0,0.0,180.0,4.0,64.0
7408,65.0,114.0,90.0,12.0,64.0
7409,53.0,6.0,60.0,13.0,64.0
7410,80.0,0.0,210.0,10.0,64.0
7411,56.0,0.0,60.0,2.0,64.0
7412,68.0,32.0,90.0,12.0,64.0
7413,44.0,0.0,60.0,14.0,64.0
7414,56.0,0.0,60.0,13.0,64.0
7415,72.0,96.0,210.0,11.0,64.0
7416,39.0,0.0,60.0,14.0,64.0
7417,51.0,6.0,60.0,13.0,64.0
7418,44.0,6.0,180.0,5.0,64.0
7419,63.0,18.0,90.0,12.0,64.0
7420,72.0,0.0,480.0,1.0,64.0
7421,72.0,0.0,180.0,4.0,64.0
7422,51.0,0.0,60.0,2.0,64.0
7423,60.0,0.0,180.0,4.0,64.0
7424,72.0,0.0,180.0,11.0,64.0
7425,80.0,0.0,180.0,10.0,64.0
7426,44.0,0.0,60.0,14.0,64.0
7427,56.0,0.0,60.0,2.0,64.0
7428,68.0,114.0,90.0,12.0,64.0
7429,56.0,0.0,60.0,13.0,64.0
7430,50.0,0.0,60.0,13.0,64.0
7431,38.0,6.0,60.0,14.0,64.0
7432,44.0,0.0,180.0,5.0,64.0
7433,56.0,0.0,180.0,4.0,64.0
7434,68.0,0.0,180.0,4.0,64.0
7435,50.0,0.0,60.0,2.0,64.0
7436,62.0,114.0,90.0,12.0,64.0
7437,72.0,0.0,90.0,11.0,64.0
7438,68.0,18.0,90.0,12.0,64.0
7439,80.0,14.0,90.0,10.0,64.0
7440,56.0,6.0,60.0,13.0,64.0
7441,44.0,0.0,60.0,14.0,64.0
7442,56.0,0.0,60.0,2.0,64.0
7443,51.0,0.0,330.0,13.0,64.0
7444,51.0,0.0,330.0,10.0,64.0
7445,72.0,0.0,330.0,1.0,64.0
7446,68.0,0.0,330.0,1.0,64.0
7447,39.0,0.0,330.0,5.0,64.0
7448,51.0,0.0,330.0,2.0,64.0
7449,60.0,0.0,330.0,3.0,64.0
7450,56.0,0.0,330.0,3.0,64.0
7451,84.0,0.0,330.0,0.0,64.0
7452,51.0,0.0,330.0,11.0,64.0
7453,51.0,0.0,330.0,4.0,64.0
7454,63.0,204.0,330.0,12.0,64.0
7455,63.0,0.0,330.0,4.0,64.0
7456,39.0,0.0,330.0,14.0,64.0
7457,32.0,60.0,60.0,7.0,64.0
7458,39.0,60.0,60.0,7.0,64.0
7459,35.0,60.0,60.0,7.0,64.0
7460,39.0,60.0,60.0,7.0,64.0
7461,32.0,60.0,60.0,7.0,64.0
7462,39.0,60.0,60.0,7.0,64.0
7463,35.0,60.0,60.0,7.0,64.0
7464,39.0,60.0,60.0,7.0,64.0
7465,71.0,0.0,60.0,6.0,64.0
7466,59.0,48.0,60.0,6.0,64.0
7467,39.0,12.0,60.0,7.0,64.0
7468,47.0,60.0,60.0,7.0,64.0
7469,44.0,12.0,60.0,7.0,64.0
7470,61.0,0.0,60.0,6.0,64.0
7471,73.0,48.0,60.0,6.0,64.0
7472,47.0,60.0,60.0,7.0,64.0
7473,74.0,48.0,60.0,6.0,64.0
7474,62.0,0.0,60.0,6.0,64.0
7475,39.0,12.0,60.0,7.0,64.0
7476,47.0,60.0,60.0,7.0,64.0
7477,63.0,0.0,60.0,6.0,64.0
7478,44.0,12.0,60.0,7.0,64.0
7479,75.0,48.0,60.0,6.0,64.0
7480,47.0,60.0,60.0,7.0,64.0
7481,39.0,60.0,60.0,7.0,64.0
7482,64.0,0.0,120.0,6.0,64.0
7483,76.0,0.0,120.0,6.0,64.0
7484,46.0,60.0,60.0,7.0,64.0
7485,75.0,0.0,60.0,6.0,64.0
7486,63.0,48.0,60.0,6.0,64.0
7487,44.0,12.0,60.0,7.0,64.0
7488,46.0,60.0,60.0,7.0,64.0
7489,39.0,60.0,60.0,7.0,64.0
7490,46.0,60.0,60.0,7.0,64.0
7491,43.0,60.0,60.0,7.0,64.0
7492,46.0,60.0,60.0,7.0,64.0
7493,42.0,0.0,60.0,8.0,64.0
7494,66.0,12.0,60.0,7.0,64.0
7495,54.0,48.0,60.0,8.0,64.0
7496,75.0,60.0,60.0,7.0,64.0
7497,44.0,48.0,60.0,8.0,64.0
7498,56.0,0.0,60.0,8.0,64.0
7499,70.0,12.0,60.0,7.0,64.0
7500,75.0,60.0,60.0,7.0,64.0
7501,57.0,48.0,60.0,8.0,64.0
7502,66.0,12.0,60.0,7.0,64.0
7503,45.0,0.0,60.0,8.0,64.0
7504,75.0,60.0,60.0,7.0,64.0
7505,58.0,48.0,60.0,8.0,64.0
7506,70.0,12.0,60.0,7.0,64.0
7507,46.0,0.0,60.0,8.0,64.0
7508,75.0,60.0,60.0,7.0,64.0
7509,59.0,60.0,120.0,8.0,64.0
7510,47.0,0.0,120.0,8.0,64.0
7511,65.0,60.0,60.0,7.0,64.0
7512,75.0,0.0,60.0,7.0,64.0
7513,46.0,48.0,60.0,8.0,64.0
7514,58.0,0.0,60.0,8.0,64.0
7515,70.0,12.0,60.0,7.0,64.0
7516,75.0,60.0,60.0,7.0,64.0
7517,65.0,60.0,60.0,7.0,64.0
7518,74.0,60.0,60.0,7.0,64.0
7519,70.0,60.0,60.0,7.0,64.0
7520,74.0,60.0,60.0,7.0,64.0
7521,73.0,48.0,60.0,6.0,64.0
7522,61.0,0.0,60.0,6.0,64.0
7523,41.0,12.0,60.0,7.0,64.0
7524,49.0,60.0,60.0,7.0,64.0
7525,46.0,12.0,60.0,7.0,64.0
7526,63.0,48.0,60.0,6.0,64.0
7527,75.0,0.0,60.0,6.0,64.0
7528,49.0,60.0,60.0,7.0,64.0
7529,76.0,48.0,60.0,6.0,64.0
7530,41.0,12.0,60.0,7.0,64.0
7531,64.0,0.0,60.0,6.0,64.0
7532,49.0,60.0,60.0,7.0,64.0
7533,77.0,48.0,60.0,6.0,64.0
7534,65.0,0.0,60.0,6.0,64.0
7535,46.0,12.0,60.0,7.0,64.0
7536,49.0,60.0,60.0,7.0,64.0
7537,41.0,60.0,60.0,7.0,64.0
7538,78.0,60.0,120.0,6.0,64.0
7539,66.0,0.0,120.0,6.0,64.0
7540,48.0,0.0,60.0,7.0,64.0
7541,46.0,12.0,60.0,7.0,64.0
7542,77.0,48.0,60.0,6.0,64.0
7543,65.0,0.0,60.0,6.0,64.0
7544,48.0,60.0,60.0,7.0,64.0
7545,41.0,60.0,60.0,7.0,64.0
7546,48.0,60.0,60.0,7.0,64.0
7547,45.0,60.0,60.0,7.0,64.0
7548,48.0,60.0,60.0,7.0,64.0
7549,68.0,12.0,60.0,7.0,64.0
7550,56.0,0.0,60.0,8.0,64.0
7551,44.0,48.0,60.0,8.0,64.0
7552,77.0,60.0,60.0,7.0,64.0
7553,45.0,48.0,60.0,8.0,64.0
7554,57.0,0.0,60.0,8.0,64.0
7555,72.0,12.0,60.0,7.0,64.0
7556,77.0,60.0,60.0,7.0,64.0
7557,46.0,0.0,60.0,8.0,64.0
7558,58.0,48.0,60.0,8.0,64.0
7559,68.0,12.0,60.0,7.0,64.0
7560,77.0,60.0,60.0,7.0,64.0
7561,47.0,0.0,60.0,8.0,64.0
7562,72.0,12.0,60.0,7.0,64.0
7563,59.0,48.0,60.0,8.0,64.0
7564,77.0,60.0,60.0,7.0,64.0
7565,63.0,60.0,60.0,7.0,64.0
7566,49.0,0.0,120.0,8.0,64.0
7567,61.0,60.0,120.0,8.0,64.0
7568,77.0,0.0,60.0,7.0,64.0
7569,72.0,12.0,60.0,7.0,64.0
7570,60.0,0.0,60.0,8.0,64.0
7571,48.0,48.0,60.0,8.0,64.0
7572,77.0,60.0,60.0,7.0,64.0
7573,63.0,60.0,60.0,7.0,64.0
7574,76.0,60.0,60.0,7.0,64.0
7575,72.0,60.0,60.0,7.0,64.0
7576,76.0,48.0,60.0,7.0,64.0
7577,75.0,36.0,60.0,6.0,64.0
7578,43.0,24.0,40.0,7.0,64.0
7579,63.0,0.0,60.0,6.0,64.0
7580,51.0,60.0,40.0,7.0,64.0
7581,48.0,24.0,40.0,7.0,64.0
7582,65.0,0.0,60.0,6.0,64.0
7583,77.0,36.0,60.0,6.0,64.0
7584,51.0,60.0,40.0,7.0,64.0
7585,43.0,24.0,40.0,7.0,64.0
7586,66.0,0.0,60.0,6.0,64.0
7587,78.0,36.0,60.0,6.0,64.0
7588,51.0,60.0,40.0,7.0,64.0
7589,67.0,36.0,60.0,6.0,64.0
7590,48.0,24.0,40.0,7.0,64.0
7591,79.0,0.0,60.0,6.0,64.0
7592,51.0,60.0,40.0,7.0,64.0
7593,48.0,60.0,40.0,7.0,64.0
7594,68.0,48.0,120.0,6.0,64.0
7595,80.0,0.0,120.0,6.0,64.0
7596,50.0,12.0,40.0,7.0,64.0
7597,67.0,0.0,60.0,6.0,64.0
7598,47.0,24.0,40.0,7.0,64.0
7599,79.0,36.0,60.0,6.0,64.0
7600,50.0,60.0,40.0,7.0,64.0
7601,38.0,60.0,120.0,8.0,64.0
7602,70.0,72.0,40.0,7.0,64.0
7603,50.0,0.0,120.0,8.0,64.0
7604,79.0,0.0,60.0,7.0,64.0
7605,70.0,60.0,60.0,7.0,64.0
7606,52.0,0.0,120.0,8.0,64.0
7607,40.0,0.0,120.0,8.0,64.0
7608,79.0,60.0,60.0,7.0,64.0
7609,69.0,60.0,60.0,7.0,64.0
7610,43.0,0.0,120.0,8.0,64.0
7611,55.0,0.0,120.0,8.0,64.0
7612,72.0,60.0,60.0,7.0,64.0
7613,41.0,0.0,90.0,8.0,64.0
7614,53.0,24.0,90.0,8.0,64.0
7615,69.0,36.0,60.0,7.0,64.0
7616,72.0,60.0,60.0,7.0,64.0
7617,44.0,60.0,60.0,7.0,64.0
7618,72.0,0.0,120.0,6.0,64.0
7619,60.0,60.0,120.0,6.0,64.0
7620,53.0,0.0,60.0,7.0,64.0
7621,62.0,0.0,120.0,6.0,64.0
7622,74.0,60.0,120.0,6.0,64.0
7623,44.0,60.0,60.0,7.0,64.0
7624,53.0,0.0,60.0,7.0,64.0
7625,43.0,60.0,60.0,7.0,64.0
7626,77.0,60.0,120.0,6.0,64.0
7627,65.0,0.0,120.0,6.0,64.0
7628,46.0,0.0,60.0,7.0,64.0
7629,63.0,24.0,90.0,6.0,64.0
7630,75.0,0.0,90.0,6.0,64.0
7631,43.0,36.0,60.0,7.0,64.0
7632,46.0,60.0,60.0,7.0,64.0
7633,34.0,0.0,120.0,8.0,64.0
7634,46.0,0.0,120.0,8.0,64.0
7635,66.0,60.0,60.0,7.0,64.0
7636,75.0,60.0,60.0,7.0,64.0
7637,36.0,0.0,120.0,8.0,64.0
7638,48.0,60.0,120.0,8.0,64.0
7639,66.0,60.0,60.0,7.0,64.0
7640,75.0,0.0,60.0,7.0,64.0
7641,39.0,0.0,120.0,8.0,64.0
7642,51.0,0.0,120.0,8.0,64.0
7643,65.0,60.0,60.0,7.0,64.0
7644,68.0,60.0,60.0,7.0,64.0
7645,49.0,24.0,90.0,8.0,64.0
7646,37.0,0.0,90.0,8.0,64.0
7647,65.0,36.0,60.0,7.0,64.0
7648,68.0,60.0,60.0,7.0,64.0
7649,41.0,36.0,60.0,7.0,64.0
7650,56.0,0.0,90.0,6.0,64.0
7651,68.0,24.0,90.0,6.0,64.0
7652,49.0,60.0,60.0,7.0,64.0
7653,41.0,36.0,60.0,7.0,64.0
7654,70.0,24.0,90.0,6.0,64.0
7655,58.0,0.0,90.0,6.0,64.0
7656,49.0,60.0,60.0,7.0,64.0
7657,73.0,0.0,90.0,6.0,64.0
7658,61.0,24.0,90.0,6.0,64.0
7659,40.0,36.0,60.0,7.0,64.0
7660,43.0,60.0,60.0,7.0,64.0
7661,40.0,36.0,60.0,7.0,64.0
7662,60.0,0.0,90.0,6.0,64.0
7663,72.0,24.0,90.0,6.0,64.0
7664,43.0,60.0,60.0,7.0,64.0
7665,43.0,0.0,120.0,8.0,64.0
7666,31.0,60.0,120.0,8.0,64.0
7667,63.0,60.0,60.0,7.0,64.0
7668,72.0,0.0,60.0,7.0,64.0
7669,63.0,36.0,60.0,7.0,64.0
7670,44.0,24.0,90.0,8.0,64.0
7671,32.0,0.0,90.0,8.0,64.0
7672,72.0,60.0,60.0,7.0,64.0
7673,36.0,0.0,120.0,8.0,64.0
7674,48.0,0.0,120.0,8.0,64.0
7675,62.0,60.0,60.0,7.0,64.0
7676,65.0,60.0,60.0,7.0,64.0
7677,62.0,36.0,60.0,7.0,64.0
7678,46.0,0.0,90.0,8.0,64.0
7679,34.0,24.0,90.0,8.0,64.0
7680,65.0,60.0,60.0,7.0,64.0
7681,61.0,60.0,60.0,7.0,64.0
7682,29.0,60.0,120.0,8.0,64.0
7683,41.0,0.0,120.0,8.0,64.0
7684,70.0,0.0,60.0,7.0,64.0
7685,43.0,24.0,90.0,8.0,64.0
7686,31.0,0.0,90.0,8.0,64.0
7687,61.0,36.0,60.0,7.0,64.0
7688,70.0,60.0,60.0,7.0,64.0
7689,60.0,60.0,60.0,7.0,64.0
7690,32.0,5.0,240.0,8.0,64.0
7691,44.0,0.0,240.0,8.0,64.0
7692,63.0,60.0,60.0,7.0,64.0
7693,68.0,55.0,60.0,7.0,64.0
7694,63.0,60.0,60.0,7.0,64.0
7695,30.0,5.0,240.0,8.0,64.0
7696,60.0,60.0,60.0,7.0,64.0
7697,42.0,0.0,240.0,8.0,64.0
7698,63.0,60.0,60.0,7.0,64.0
7699,68.0,55.0,60.0,7.0,64.0
7700,63.0,60.0,60.0,7.0,64.0
7701,59.0,60.0,60.0,7.0,64.0
7702,40.0,0.0,240.0,8.0,64.0
7703,28.0,5.0,240.0,8.0,64.0
7704,62.0,60.0,60.0,7.0,64.0
7705,68.0,55.0,60.0,7.0,64.0
7706,62.0,60.0,60.0,7.0,64.0
7707,27.0,5.0,240.0,8.0,64.0
7708,39.0,0.0,240.0,8.0,64.0
7709,59.0,60.0,60.0,7.0,64.0
7710,62.0,60.0,60.0,7.0,64.0
7711,68.0,55.0,60.0,7.0,64.0
7712,62.0,120.0,60.0,7.0,64.0
7713,26.0,48.0,1140.0,8.0,64.0
7714,38.0,0.0,1140.0,8.0,64.0
7715,56.0,60.0,60.0,7.0,64.0
7716,59.0,60.0,60.0,7.0,64.0
7717,62.0,60.0,60.0,7.0,64.0
7718,65.0,60.0,60.0,7.0,64.0
7719,68.0,60.0,60.0,7.0,64.0
7720,71.0,60.0,60.0,7.0,64.0
7721,74.0,60.0,60.0,7.0,64.0
7722,77.0,60.0,60.0,7.0,64.0
7723,80.0,60.0,60.0,7.0,64.0
7724,83.0,60.0,60.0,7.0,64.0
7725,80.0,60.0,60.0,7.0,64.0
7726,77.0,60.0,60.0,7.0,64.0
7727,74.0,60.0,60.0,7.0,64.0
7728,71.0,60.0,60.0,7.0,64.0
7729,68.0,60.0,60.0,7.0,64.0
7730,65.0,60.0,60.0,7.0,64.0
7731,62.0,60.0,60.0,7.0,64.0
7732,59.0,12.0,60.0,7.0,64.0
7733,56.0,60.0,60.0,7.0,64.0
7734,53.0,60.0,60.0,7.0,64.0
7735,50.0,60.0,60.0,7.0,64.0
7736,47.0,60.0,60.0,7.0,64.0
7737,44.0,480.0,60.0,7.0,64.0
7738,38.0,0.0,480.0,7.0,64.0
7739,35.0,0.0,480.0,7.0,64.0
7740,32.0,0.0,480.0,7.0,64.0
7741,41.0,192.0,480.0,7.0,64.0
7742,43.0,0.0,180.0,7.0,64.0
7743,39.0,240.0,180.0,7.0,64.0
7744,34.0,0.0,180.0,7.0,64.0
7745,75.0,0.0,180.0,6.0,64.0
7746,79.0,240.0,180.0,6.0,64.0
7747,82.0,0.0,180.0,6.0,64.0
7748,82.0,0.0,180.0,6.0,64.0
7749,79.0,0.0,180.0,6.0,64.0
7750,75.0,240.0,180.0,6.0,64.0
7751,75.0,0.0,180.0,6.0,64.0
7752,79.0,0.0,180.0,6.0,64.0
7753,82.0,240.0,180.0,6.0,64.0
7754,82.0,0.0,180.0,6.0,64.0
7755,75.0,0.0,180.0,6.0,64.0
7756,79.0,24.0,180.0,6.0,64.0
7757,39.0,216.0,90.0,7.0,64.0
7758,51.0,24.0,180.0,7.0,64.0
7759,75.0,216.0,90.0,6.0,64.0
7760,80.0,0.0,90.0,6.0,64.0
7761,84.0,0.0,90.0,6.0,64.0
7762,73.0,24.0,180.0,6.0,64.0
7763,77.0,0.0,180.0,6.0,64.0
7764,80.0,0.0,180.0,6.0,64.0
7765,37.0,216.0,90.0,7.0,64.0
7766,49.0,24.0,180.0,7.0,64.0
7767,79.0,216.0,90.0,6.0,64.0
7768,82.0,0.0,90.0,6.0,64.0
7769,75.0,0.0,90.0,6.0,64.0
7770,75.0,24.0,180.0,6.0,64.0
7771,70.0,0.0,180.0,6.0,64.0
7772,79.0,0.0,180.0,6.0,64.0
7773,36.0,216.0,90.0,7.0,64.0
7774,48.0,24.0,180.0,7.0,64.0
7775,77.0,0.0,90.0,6.0,64.0
7776,73.0,216.0,90.0,6.0,64.0
7777,80.0,0.0,90.0,6.0,64.0
7778,77.0,0.0,180.0,6.0,64.0
7779,68.0,0.0,180.0,6.0,64.0
7780,73.0,24.0,180.0,6.0,64.0
7781,41.0,216.0,90.0,7.0,64.0
7782,53.0,24.0,180.0,7.0,64.0
7783,77.0,0.0,90.0,6.0,64.0
7784,68.0,0.0,90.0,6.0,64.0
7785,73.0,216.0,90.0,6.0,64.0
7786,82.0,0.0,180.0,6.0,64.0
7787,75.0,0.0,180.0,6.0,64.0
7788,79.0,24.0,180.0,6.0,64.0
7789,39.0,216.0,90.0,7.0,64.0
7790,51.0,24.0,180.0,7.0,64.0
7791,84.0,0.0,90.0,6.0,64.0
7792,80.0,216.0,90.0,6.0,64.0
7793,75.0,0.0,90.0,6.0,64.0
7794,80.0,0.0,180.0,6.0,64.0
7795,77.0,24.0,180.0,6.0,64.0
7796,73.0,0.0,180.0,6.0,64.0
7797,37.0,216.0,90.0,7.0,64.0
7798,49.0,24.0,180.0,7.0,64.0
7799,75.0,216.0,90.0,6.0,64.0
7800,79.0,0.0,90.0,6.0,64.0
7801,82.0,0.0,90.0,6.0,64.0
7802,75.0,24.0,180.0,6.0,64.0
7803,70.0,0.0,180.0,6.0,64.0
7804,79.0,0.0,180.0,6.0,64.0
7805,36.0,216.0,90.0,7.0,64.0
7806,48.0,24.0,180.0,7.0,64.0
7807,73.0,216.0,90.0,6.0,64.0
7808,77.0,0.0,90.0,6.0,64.0
7809,80.0,0.0,90.0,6.0,64.0
7810,77.0,0.0,180.0,6.0,64.0
7811,68.0,24.0,180.0,6.0,64.0
7812,73.0,0.0,180.0,6.0,64.0
7813,41.0,216.0,90.0,7.0,64.0
7814,29.0,24.0,180.0,7.0,64.0
7815,68.0,0.0,90.0,6.0,64.0
7816,77.0,0.0,90.0,6.0,64.0
7817,73.0,120.0,90.0,6.0,64.0
7818,80.0,0.0,180.0,6.0,64.0
7819,84.0,0.0,180.0,6.0,64.0
7820,68.0,96.0,90.0,7.0,64.0
7821,75.0,0.0,180.0,6.0,64.0
7822,44.0,24.0,180.0,8.0,64.0
7823,75.0,216.0,90.0,7.0,64.0
7824,84.0,24.0,180.0,7.0,64.0
7825,56.0,0.0,90.0,8.0,64.0
7826,75.0,0.0,90.0,6.0,64.0
7827,72.0,216.0,90.0,6.0,64.0
7828,73.0,24.0,180.0,6.0,64.0
7829,70.0,0.0,180.0,6.0,64.0
7830,51.0,0.0,180.0,8.0,64.0
7831,73.0,216.0,90.0,7.0,64.0
7832,82.0,24.0,180.0,7.0,64.0
7833,70.0,0.0,90.0,6.0,64.0
7834,51.0,216.0,90.0,8.0,64.0
7835,73.0,0.0,90.0,6.0,64.0
7836,53.0,0.0,180.0,8.0,64.0
7837,68.0,24.0,180.0,6.0,64.0
7838,72.0,0.0,180.0,6.0,64.0
7839,72.0,216.0,90.0,7.0,64.0
7840,80.0,24.0,180.0,7.0,64.0
7841,72.0,0.0,90.0,6.0,64.0
7842,68.0,0.0,90.0,6.0,64.0
7843,53.0,216.0,90.0,8.0,64.0
7844,70.0,24.0,180.0,6.0,64.0
7845,73.0,0.0,180.0,6.0,64.0
7846,49.0,0.0,180.0,8.0,64.0
7847,61.0,216.0,90.0,7.0,64.0
7848,77.0,24.0,180.0,7.0,64.0
7849,49.0,0.0,90.0,8.0,64.0
7850,73.0,216.0,90.0,6.0,64.0
7851,70.0,0.0,90.0,6.0,64.0
7852,68.0,24.0,180.0,6.0,64.0
7853,51.0,0.0,180.0,8.0,64.0
7854,72.0,0.0,180.0,6.0,64.0
7855,60.0,216.0,90.0,7.0,64.0
7856,75.0,24.0,180.0,7.0,64.0
7857,72.0,0.0,90.0,6.0,64.0
7858,68.0,0.0,90.0,6.0,64.0
7859,51.0,216.0,90.0,8.0,64.0
7860,67.0,0.0,180.0,6.0,64.0
7861,70.0,24.0,180.0,6.0,64.0
7862,39.0,0.0,180.0,8.0,64.0
7863,58.0,120.0,90.0,7.0,64.0
7864,73.0,120.0,90.0,7.0,64.0
7865,67.0,216.0,90.0,7.0,64.0
7866,39.0,0.0,90.0,8.0,64.0
7867,70.0,0.0,90.0,6.0,64.0
7868,68.0,24.0,180.0,7.0,64.0
7869,44.0,0.0,180.0,8.0,64.0
7870,72.0,120.0,90.0,6.0,64.0
7871,75.0,0.0,90.0,6.0,64.0
7872,75.0,120.0,90.0,6.0,64.0
7873,72.0,0.0,90.0,6.0,64.0
7874,75.0,54.0,90.0,6.0,64.0
7875,72.0,0.0,90.0,6.0,64.0
7876,51.0,0.0,180.0,8.0,64.0
7877,77.0,30.0,30.0,6.0,64.0
7878,73.0,0.0,30.0,6.0,64.0
7879,39.0,24.0,180.0,8.0,64.0
7880,75.0,30.0,30.0,6.0,64.0
7881,77.0,30.0,30.0,6.0,64.0
7882,75.0,72.0,30.0,6.0,64.0
7883,70.0,120.0,90.0,6.0,64.0
7884,73.0,0.0,90.0,6.0,64.0
7885,73.0,120.0,90.0,6.0,64.0
7886,70.0,0.0,90.0,6.0,64.0
7887,73.0,54.0,90.0,6.0,64.0
7888,70.0,0.0,90.0,6.0,64.0
7889,56.0,24.0,180.0,8.0,64.0
7890,44.0,0.0,180.0,8.0,64.0
7891,75.0,0.0,30.0,6.0,64.0
7892,72.0,30.0,30.0,6.0,64.0
7893,73.0,30.0,30.0,6.0,64.0
7894,75.0,30.0,30.0,6.0,64.0
7895,73.0,72.0,30.0,6.0,64.0
7896,72.0,0.0,90.0,6.0,64.0
7897,63.0,120.0,90.0,6.0,64.0
7898,63.0,0.0,90.0,6.0,64.0
7899,72.0,120.0,90.0,6.0,64.0
7900,63.0,54.0,90.0,6.0,64.0
7901,72.0,0.0,90.0,6.0,64.0
7902,73.0,30.0,30.0,6.0,64.0
7903,49.0,0.0,180.0,8.0,64.0
7904,37.0,24.0,180.0,8.0,64.0
7905,70.0,0.0,30.0,6.0,64.0
7906,72.0,30.0,30.0,6.0,64.0
7907,73.0,30.0,30.0,6.0,64.0
7908,72.0,72.0,30.0,6.0,64.0
7909,61.0,0.0,90.0,6.0,64.0
7910,70.0,120.0,90.0,6.0,64.0
7911,70.0,0.0,90.0,6.0,64.0
7912,61.0,120.0,90.0,6.0,64.0
7913,61.0,54.0,90.0,6.0,64.0
7914,70.0,0.0,90.0,6.0,64.0
7915,39.0,0.0,180.0,8.0,64.0
7916,72.0,30.0,30.0,6.0,64.0
7917,68.0,0.0,30.0,6.0,64.0
7918,51.0,24.0,180.0,8.0,64.0
7919,70.0,30.0,30.0,6.0,64.0
7920,72.0,30.0,30.0,6.0,64.0
7921,70.0,72.0,30.0,6.0,64.0
7922,60.0,120.0,90.0,6.0,64.0
7923,68.0,0.0,90.0,6.0,64.0
7924,68.0,0.0,90.0,6.0,64.0
7925,60.0,120.0,90.0,6.0,64.0
7926,60.0,54.0,90.0,6.0,64.0
7927,68.0,0.0,90.0,6.0,64.0
7928,43.0,0.0,480.0,8.0,64.0
7929,49.0,0.0,480.0,8.0,64.0
7930,46.0,0.0,480.0,8.0,64.0
7931,72.0,30.0,30.0,6.0,64.0
7932,39.0,10.0,480.0,8.0,64.0
7933,70.0,30.0,30.0,6.0,64.0
7934,72.0,30.0,30.0,6.0,64.0
7935,70.0,30.0,30.0,6.0,64.0
7936,72.0,30.0,30.0,6.0,64.0
7937,70.0,30.0,30.0,6.0,64.0
7938,72.0,30.0,30.0,6.0,64.0
7939,70.0,30.0,30.0,6.0,64.0
7940,72.0,30.0,30.0,6.0,64.0
7941,70.0,30.0,30.0,6.0,64.0
7942,72.0,30.0,30.0,6.0,64.0
7943,70.0,60.0,30.0,6.0,64.0
7944,68.0,50.0,60.0,6.0,64.0
7945,70.0,78.0,60.0,6.0,64.0
7946,56.0,6.0,180.0,6.0,64.0
7947,32.0,0.0,180.0,14.0,64.0
7948,44.0,0.0,180.0,8.0,64.0
7949,44.0,0.0,180.0,13.0,64.0
7950,68.0,0.0,180.0,6.0,64.0
7951,56.0,0.0,90.0,12.0,64.0
7952,63.0,114.0,90.0,10.0,64.0
7953,32.0,0.0,180.0,8.0,64.0
7954,60.0,0.0,90.0,11.0,64.0
7955,60.0,0.0,180.0,6.0,64.0
7956,63.0,0.0,90.0,10.0,64.0
7957,56.0,120.0,90.0,12.0,64.0
7958,60.0,0.0,90.0,11.0,64.0
7959,60.0,120.0,90.0,11.0,64.0
7960,63.0,0.0,90.0,10.0,64.0
7961,56.0,0.0,90.0,12.0,64.0
7962,56.0,0.0,90.0,12.0,64.0
7963,60.0,114.0,90.0,11.0,64.0
7964,63.0,0.0,90.0,10.0,64.0
7965,72.0,0.0,60.0,6.0,64.0
7966,56.0,0.0,90.0,12.0,64.0
7967,63.0,114.0,90.0,10.0,64.0
7968,60.0,6.0,60.0,7.0,64.0
7969,60.0,0.0,90.0,11.0,64.0
7970,63.0,0.0,90.0,10.0,64.0
7971,56.0,0.0,90.0,12.0,64.0
7972,61.0,0.0,60.0,7.0,64.0
7973,60.0,114.0,90.0,11.0,64.0
7974,73.0,6.0,60.0,6.0,64.0
7975,60.0,0.0,90.0,11.0,64.0
7976,74.0,0.0,60.0,6.0,64.0
7977,56.0,114.0,90.0,12.0,64.0
7978,62.0,6.0,60.0,7.0,64.0
7979,63.0,0.0,90.0,10.0,64.0
7980,60.0,0.0,90.0,11.0,64.0
7981,63.0,0.0,90.0,10.0,64.0
7982,75.0,6.0,60.0,6.0,64.0
7983,63.0,0.0,60.0,7.0,64.0
7984,56.0,120.0,90.0,12.0,64.0
7985,65.0,72.0,120.0,7.0,64.0
7986,60.0,0.0,90.0,11.0,64.0
7987,63.0,42.0,90.0,10.0,64.0
7988,44.0,6.0,180.0,14.0,64.0
7989,56.0,0.0,90.0,12.0,64.0
7990,56.0,0.0,180.0,13.0,64.0
7991,77.0,0.0,120.0,6.0,64.0
7992,60.0,0.0,90.0,11.0,64.0
7993,75.0,0.0,60.0,6.0,64.0
7994,63.0,0.0,90.0,10.0,64.0
7995,63.0,0.0,60.0,7.0,64.0
7996,56.0,114.0,90.0,12.0,64.0
7997,60.0,114.0,90.0,11.0,64.0
7998,63.0,0.0,90.0,10.0,64.0
7999,56.0,0.0,90.0,12.0,64.0
8000,73.0,0.0,60.0,6.0,64.0
8001,61.0,6.0,60.0,7.0,64.0
8002,56.0,114.0,90.0,12.0,64.0
8003,63.0,0.0,90.0,10.0,64.0
8004,72.0,0.0,60.0,6.0,64.0
8005,60.0,0.0,90.0,11.0,64.0
8006,60.0,6.0,60.0,7.0,64.0
8007,63.0,0.0,90.0,10.0,64.0
8008,51.0,6.0,180.0,13.0,64.0
8009,61.0,72.0,90.0,11.0,64.0
8010,55.0,0.0,90.0,12.0,64.0
8011,70.0,6.0,60.0,6.0,64.0
8012,39.0,0.0,180.0,14.0,64.0
8013,58.0,0.0,60.0,7.0,64.0
8014,72.0,0.0,30.0,6.0,64.0
8015,61.0,0.0,90.0,11.0,64.0
8016,55.0,42.0,90.0,12.0,64.0
8017,63.0,0.0,90.0,10.0,64.0
8018,60.0,30.0,30.0,7.0,64.0
8019,70.0,0.0,30.0,6.0,64.0
8020,58.0,12.0,30.0,7.0,64.0
8021,68.0,72.0,60.0,6.0,64.0
8022,56.0,0.0,60.0,7.0,64.0
8023,61.0,0.0,90.0,11.0,64.0
8024,63.0,114.0,90.0,10.0,64.0
8025,58.0,0.0,60.0,7.0,64.0
8026,70.0,6.0,60.0,6.0,64.0
8027,55.0,0.0,90.0,12.0,64.0
8028,61.0,0.0,90.0,11.0,64.0
8029,70.0,6.0,60.0,6.0,64.0
8030,58.0,0.0,60.0,7.0,64.0
8031,63.0,0.0,90.0,10.0,64.0
8032,55.0,120.0,90.0,12.0,64.0
8033,61.0,0.0,90.0,11.0,64.0
8034,44.0,0.0,180.0,13.0,64.0
8035,58.0,72.0,120.0,7.0,64.0
8036,70.0,0.0,120.0,6.0,64.0
8037,32.0,6.0,180.0,14.0,64.0
8038,55.0,42.0,90.0,12.0,64.0
8039,63.0,0.0,90.0,10.0,64.0
8040,61.0,0.0,90.0,11.0,64.0
8041,71.0,0.0,120.0,6.0,64.0
8042,55.0,0.0,90.0,12.0,64.0
8043,59.0,72.0,120.0,7.0,64.0
8044,63.0,42.0,90.0,10.0,64.0
8045,63.0,114.0,90.0,10.0,64.0
8046,60.0,0.0,90.0,11.0,64.0
8047,72.0,6.0,60.0,6.0,64.0
8048,60.0,0.0,60.0,7.0,64.0
8049,56.0,0.0,90.0,12.0,64.0
8050,56.0,0.0,90.0,12.0,64.0
8051,60.0,0.0,90.0,11.0,64.0
8052,63.0,114.0,90.0,10.0,64.0
8053,56.0,6.0,60.0,7.0,64.0
8054,68.0,0.0,60.0,6.0,64.0
8055,60.0,0.0,90.0,11.0,64.0
8056,56.0,114.0,90.0,12.0,64.0
8057,63.0,0.0,90.0,10.0,64.0
8058,72.0,6.0,60.0,6.0,64.0
8059,60.0,0.0,60.0,7.0,64.0
8060,73.0,6.0,60.0,6.0,64.0
8061,61.0,0.0,60.0,7.0,64.0
8062,60.0,0.0,90.0,11.0,64.0
8063,63.0,0.0,90.0,10.0,64.0
8064,56.0,114.0,90.0,12.0,64.0
8065,62.0,0.0,60.0,7.0,64.0
8066,60.0,0.0,90.0,11.0,64.0
8067,63.0,114.0,90.0,10.0,64.0
8068,74.0,6.0,60.0,6.0,64.0
8069,56.0,0.0,90.0,12.0,64.0
8070,63.0,0.0,90.0,10.0,64.0
8071,60.0,120.0,90.0,11.0,64.0
8072,75.0,6.0,60.0,6.0,64.0
8073,56.0,0.0,90.0,12.0,64.0
8074,63.0,0.0,60.0,7.0,64.0
8075,63.0,42.0,90.0,10.0,64.0
8076,44.0,0.0,180.0,14.0,64.0
8077,65.0,72.0,120.0,7.0,64.0
8078,77.0,0.0,120.0,6.0,64.0
8079,56.0,6.0,180.0,13.0,64.0
8080,60.0,0.0,90.0,11.0,64.0
8081,56.0,0.0,90.0,12.0,64.0
8082,56.0,0.0,90.0,12.0,64.0
8083,75.0,0.0,60.0,6.0,64.0
8084,63.0,114.0,90.0,10.0,64.0
8085,63.0,0.0,60.0,7.0,64.0
8086,60.0,0.0,90.0,11.0,64.0
8087,56.0,0.0,90.0,12.0,64.0
8088,61.0,6.0,60.0,7.0,64.0
8089,60.0,0.0,90.0,11.0,64.0
8090,73.0,0.0,60.0,6.0,64.0
8091,63.0,114.0,90.0,10.0,64.0
8092,63.0,114.0,90.0,10.0,64.0
8093,56.0,0.0,90.0,12.0,64.0
8094,60.0,0.0,60.0,7.0,64.0
8095,60.0,0.0,90.0,11.0,64.0
8096,72.0,6.0,60.0,6.0,64.0
8097,63.0,72.0,90.0,10.0,64.0
8098,58.0,0.0,60.0,7.0,64.0
8099,51.0,0.0,180.0,13.0,64.0
8100,39.0,6.0,180.0,14.0,64.0
8101,61.0,0.0,90.0,11.0,64.0
8102,70.0,6.0,60.0,6.0,64.0
8103,55.0,0.0,90.0,12.0,64.0
8104,61.0,42.0,90.0,11.0,64.0
8105,72.0,30.0,30.0,6.0,64.0
8106,60.0,0.0,30.0,7.0,64.0
8107,55.0,0.0,90.0,12.0,64.0
8108,63.0,0.0,90.0,10.0,64.0
8109,70.0,0.0,30.0,6.0,64.0
8110,58.0,12.0,30.0,7.0,64.0
8111,56.0,72.0,60.0,7.0,64.0
8112,68.0,0.0,60.0,6.0,64.0
8113,70.0,0.0,60.0,6.0,64.0
8114,61.0,0.0,90.0,11.0,64.0
8115,58.0,6.0,60.0,7.0,64.0
8116,55.0,0.0,90.0,12.0,64.0
8117,63.0,114.0,90.0,10.0,64.0
8118,72.0,0.0,60.0,6.0,64.0
8119,60.0,0.0,90.0,11.0,64.0
8120,60.0,6.0,60.0,7.0,64.0
8121,63.0,0.0,90.0,10.0,64.0
8122,56.0,102.0,90.0,12.0,64.0
8123,32.0,0.0,180.0,14.0,64.0
8124,68.0,60.0,60.0,6.0,64.0
8125,60.0,0.0,180.0,11.0,64.0
8126,56.0,48.0,180.0,12.0,64.0
8127,56.0,0.0,180.0,7.0,64.0
8128,44.0,0.0,180.0,13.0,64.0
8129,63.0,0.0,180.0,10.0,64.0
8130,72.0,60.0,60.0,6.0,64.0
8131,75.0,12.0,60.0,6.0,64.0
8132,72.0,60.0,60.0,6.0,64.0
8133,68.0,60.0,60.0,6.0,64.0
8134,72.0,60.0,60.0,6.0,64.0
8135,63.0,60.0,60.0,6.0,64.0
8136,68.0,60.0,60.0,6.0,64.0
8137,60.0,12.0,60.0,6.0,64.0
8138,56.0,48.0,60.0,11.0,64.0
8139,72.0,0.0,60.0,10.0,64.0
8140,63.0,60.0,60.0,6.0,64.0
8141,68.0,12.0,60.0,6.0,64.0
8142,73.0,0.0,60.0,10.0,64.0
8143,58.0,48.0,60.0,11.0,64.0
8144,63.0,60.0,60.0,6.0,64.0
8145,74.0,0.0,60.0,10.0,64.0
8146,60.0,12.0,60.0,6.0,64.0
8147,58.0,48.0,60.0,11.0,64.0
8148,63.0,60.0,60.0,6.0,64.0
8149,75.0,0.0,60.0,10.0,64.0
8150,60.0,48.0,60.0,11.0,64.0
8151,56.0,12.0,60.0,6.0,64.0
8152,60.0,60.0,60.0,6.0,64.0
8153,61.0,0.0,120.0,11.0,64.0
8154,51.0,60.0,60.0,6.0,64.0
8155,44.0,0.0,180.0,14.0,64.0
8156,77.0,0.0,120.0,10.0,64.0
8157,44.0,0.0,480.0,7.0,64.0
8158,32.0,60.0,480.0,7.0,64.0
8159,68.0,0.0,180.0,12.0,64.0
8160,56.0,0.0,180.0,13.0,64.0
8161,56.0,60.0,60.0,6.0,64.0
8162,75.0,0.0,60.0,10.0,64.0
8163,60.0,48.0,60.0,11.0,64.0
8164,60.0,12.0,60.0,6.0,64.0
8165,56.0,60.0,60.0,6.0,64.0
8166,58.0,48.0,60.0,11.0,64.0
8167,63.0,12.0,60.0,6.0,64.0
8168,73.0,0.0,60.0,10.0,64.0
8169,60.0,60.0,60.0,6.0,64.0
8170,56.0,48.0,60.0,11.0,64.0
8171,72.0,0.0,60.0,10.0,64.0
8172,56.0,12.0,60.0,6.0,64.0
8173,60.0,0.0,60.0,6.0,64.0
8174,70.0,0.0,150.0,4.0,64.0
8175,51.0,12.0,60.0,6.0,64.0
8176,63.0,0.0,180.0,12.0,64.0
8177,27.0,0.0,480.0,7.0,64.0
8178,39.0,0.0,480.0,7.0,64.0
8179,39.0,48.0,180.0,5.0,64.0
8180,55.0,0.0,60.0,11.0,64.0
8181,82.0,24.0,150.0,0.0,64.0
8182,55.0,0.0,150.0,2.0,64.0
8183,51.0,0.0,180.0,13.0,64.0
8184,61.0,0.0,150.0,2.0,64.0
8185,70.0,48.0,60.0,10.0,64.0
8186,58.0,0.0,150.0,3.0,64.0
8187,51.0,0.0,150.0,3.0,64.0
8188,67.0,0.0,150.0,1.0,64.0
8189,73.0,0.0,150.0,1.0,64.0
8190,39.0,0.0,180.0,14.0,64.0
8191,63.0,0.0,150.0,4.0,64.0
8192,58.0,30.0,60.0,6.0,64.0
8193,72.0,6.0,30.0,10.0,64.0
8194,56.0,0.0,30.0,11.0,64.0
8195,61.0,0.0,60.0,6.0,64.0
8196,70.0,12.0,30.0,10.0,64.0
8197,55.0,0.0,30.0,11.0,64.0
8198,53.0,0.0,60.0,11.0,64.0
8199,58.0,60.0,60.0,6.0,64.0
8200,68.0,0.0,60.0,10.0,64.0
8201,39.0,24.0,90.0,5.0,64.0
8202,70.0,6.0,60.0,10.0,64.0
8203,63.0,0.0,90.0,4.0,64.0
8204,70.0,0.0,90.0,4.0,64.0
8205,67.0,0.0,90.0,1.0,64.0
8206,73.0,0.0,90.0,1.0,64.0
8207,58.0,0.0,90.0,3.0,64.0
8208,51.0,0.0,90.0,3.0,64.0
8209,82.0,18.0,90.0,0.0,64.0
8210,63.0,12.0,60.0,6.0,64.0
8211,61.0,0.0,90.0,2.0,64.0
8212,55.0,0.0,60.0,11.0,64.0
8213,55.0,0.0,90.0,2.0,64.0
8214,61.0,60.0,60.0,6.0,64.0
8215,39.0,24.0,90.0,5.0,64.0
8216,70.0,6.0,60.0,10.0,64.0
8217,61.0,0.0,90.0,2.0,64.0
8218,73.0,0.0,90.0,1.0,64.0
8219,51.0,0.0,90.0,3.0,64.0
8220,58.0,18.0,90.0,3.0,64.0
8221,82.0,0.0,90.0,0.0,64.0
8222,67.0,0.0,90.0,1.0,64.0
8223,55.0,0.0,60.0,11.0,64.0
8224,58.0,12.0,60.0,6.0,64.0
8225,55.0,0.0,90.0,2.0,64.0
8226,63.0,0.0,90.0,4.0,64.0
8227,70.0,0.0,90.0,4.0,64.0
8228,61.0,60.0,60.0,6.0,64.0
8229,32.0,0.0,180.0,14.0,64.0
8230,51.0,0.0,240.0,3.0,64.0
8231,58.0,0.0,240.0,3.0,64.0
8232,70.0,0.0,240.0,4.0,64.0
8233,44.0,0.0,180.0,7.0,64.0
8234,56.0,0.0,180.0,12.0,64.0
8235,44.0,0.0,180.0,13.0,64.0
8236,55.0,0.0,240.0,2.0,64.0
8237,61.0,60.0,240.0,2.0,64.0
8238,63.0,0.0,240.0,4.0,64.0
8239,32.0,48.0,180.0,7.0,64.0
8240,82.0,0.0,240.0,0.0,64.0
8241,44.0,0.0,180.0,5.0,64.0
8242,67.0,0.0,240.0,1.0,64.0
8243,73.0,0.0,240.0,1.0,64.0
8244,63.0,60.0,60.0,6.0,64.0
8245,55.0,0.0,240.0,11.0,64.0
8246,70.0,0.0,240.0,10.0,64.0
8247,61.0,60.0,60.0,6.0,64.0
8248,58.0,12.0,60.0,6.0,64.0
8249,61.0,0.0,60.0,6.0,64.0
8250,72.0,0.0,90.0,10.0,64.0
8251,84.0,0.0,90.0,0.0,64.0
8252,60.0,0.0,90.0,3.0,64.0
8253,56.0,0.0,90.0,3.0,64.0
8254,68.0,0.0,90.0,1.0,64.0
8255,72.0,0.0,90.0,1.0,64.0
8256,72.0,0.0,90.0,4.0,64.0
8257,68.0,0.0,90.0,4.0,64.0
8258,56.0,0.0,90.0,11.0,64.0
8259,60.0,36.0,60.0,6.0,64.0
8260,60.0,24.0,90.0,2.0,64.0
8261,56.0,0.0,90.0,2.0,64.0
8262,63.0,60.0,60.0,6.0,64.0
8263,68.0,36.0,60.0,6.0,64.0
8264,68.0,24.0,90.0,10.0,64.0
8265,63.0,60.0,60.0,6.0,64.0
8266,56.0,48.0,60.0,11.0,64.0
8267,60.0,12.0,60.0,6.0,64.0
8268,72.0,0.0,60.0,10.0,64.0
8269,63.0,60.0,60.0,6.0,64.0
8270,73.0,0.0,60.0,10.0,64.0
8271,58.0,48.0,60.0,11.0,64.0
8272,68.0,12.0,60.0,6.0,64.0
8273,63.0,60.0,60.0,6.0,64.0
8274,58.0,0.0,60.0,11.0,64.0
8275,60.0,12.0,60.0,6.0,64.0
8276,74.0,48.0,60.0,10.0,64.0
8277,63.0,60.0,60.0,6.0,64.0
8278,60.0,0.0,60.0,11.0,64.0
8279,56.0,12.0,60.0,6.0,64.0
8280,75.0,48.0,60.0,10.0,64.0
8281,60.0,60.0,60.0,6.0,64.0
8282,51.0,60.0,60.0,6.0,64.0
8283,77.0,60.0,120.0,10.0,64.0
8284,68.0,0.0,180.0,12.0,64.0
8285,56.0,0.0,180.0,13.0,64.0
8286,32.0,0.0,480.0,8.0,64.0
8287,61.0,0.0,120.0,11.0,64.0
8288,44.0,0.0,180.0,14.0,64.0
8289,44.0,60.0,480.0,8.0,64.0
8290,56.0,0.0,60.0,6.0,64.0
8291,60.0,12.0,60.0,6.0,64.0
8292,60.0,0.0,60.0,11.0,64.0
8293,75.0,48.0,60.0,10.0,64.0
8294,56.0,60.0,60.0,6.0,64.0
8295,73.0,0.0,60.0,10.0,64.0
8296,51.0,12.0,60.0,7.0,64.0
8297,58.0,48.0,60.0,11.0,64.0
8298,56.0,60.0,60.0,7.0,64.0
8299,56.0,0.0,60.0,11.0,64.0
8300,48.0,12.0,60.0,7.0,64.0
8301,72.0,48.0,60.0,10.0,64.0
8302,51.0,0.0,60.0,7.0,64.0
8303,63.0,0.0,180.0,4.0,64.0
8304,67.0,0.0,180.0,1.0,64.0
8305,73.0,0.0,180.0,1.0,64.0
8306,55.0,0.0,180.0,2.0,64.0
8307,61.0,0.0,180.0,2.0,64.0
8308,55.0,48.0,60.0,11.0,64.0
8309,70.0,0.0,180.0,4.0,64.0
8310,27.0,0.0,390.0,8.0,64.0
8311,39.0,36.0,390.0,8.0,64.0
8312,58.0,0.0,180.0,3.0,64.0
8313,63.0,0.0,180.0,12.0,64.0
8314,49.0,12.0,60.0,7.0,64.0
8315,70.0,0.0,60.0,10.0,64.0
8316,51.0,0.0,180.0,3.0,64.0
8317,39.0,0.0,180.0,14.0,64.0
8318,82.0,0.0,180.0,0.0,64.0
8319,39.0,0.0,180.0,5.0,64.0
8320,51.0,48.0,180.0,13.0,64.0
8321,51.0,30.0,60.0,7.0,64.0
8322,55.0,0.0,60.0,7.0,64.0
8323,72.0,30.0,30.0,10.0,64.0
8324,56.0,0.0,30.0,11.0,64.0
8325,70.0,0.0,30.0,10.0,64.0
8326,55.0,12.0,30.0,11.0,64.0
8327,68.0,60.0,60.0,10.0,64.0
8328,51.0,0.0,60.0,7.0,64.0
8329,53.0,0.0,60.0,11.0,64.0
8330,55.0,24.0,60.0,11.0,64.0
8331,70.0,0.0,60.0,10.0,64.0
8332,82.0,0.0,90.0,0.0,64.0
8333,51.0,0.0,90.0,3.0,64.0
8334,58.0,0.0,90.0,3.0,64.0
8335,39.0,24.0,90.0,5.0,64.0
8336,49.0,12.0,60.0,7.0,64.0
8337,61.0,0.0,90.0,2.0,64.0
8338,55.0,0.0,90.0,2.0,64.0
8339,67.0,0.0,90.0,1.0,64.0
8340,73.0,0.0,90.0,1.0,64.0
8341,70.0,0.0,90.0,4.0,64.0
8342,63.0,0.0,90.0,4.0,64.0
8343,51.0,24.0,60.0,7.0,64.0
8344,72.0,0.0,60.0,10.0,64.0
8345,63.0,24.0,90.0,4.0,64.0
8346,72.0,0.0,90.0,4.0,64.0
8347,55.0,12.0,60.0,7.0,64.0
8348,60.0,0.0,90.0,3.0,64.0
8349,84.0,0.0,90.0,0.0,64.0
8350,39.0,0.0,90.0,5.0,64.0
8351,56.0,0.0,90.0,2.0,64.0
8352,60.0,0.0,90.0,2.0,64.0
8353,72.0,0.0,90.0,1.0,64.0
8354,68.0,0.0,90.0,1.0,64.0
8355,51.0,24.0,60.0,11.0,64.0
8356,51.0,0.0,90.0,3.0,64.0
8357,51.0,60.0,60.0,7.0,64.0
8358,56.0,0.0,180.0,11.0,64.0
8359,56.0,0.0,180.0,3.0,64.0
8360,56.0,0.0,180.0,12.0,64.0
8361,44.0,60.0,60.0,7.0,64.0
8362,48.0,0.0,180.0,3.0,64.0
8363,32.0,0.0,180.0,14.0,64.0
8364,32.0,0.0,60.0,8.0,64.0
8365,51.0,0.0,180.0,2.0,64.0
8366,44.0,0.0,180.0,5.0,64.0
8367,63.0,0.0,180.0,1.0,64.0
8368,68.0,0.0,180.0,1.0,64.0
8369,80.0,0.0,180.0,0.0,64.0
8370,60.0,0.0,180.0,4.0,64.0
8371,68.0,48.0,180.0,10.0,64.0
8372,44.0,0.0,180.0,13.0,64.0
8373,68.0,0.0,180.0,4.0,64.0
8374,56.0,0.0,180.0,2.0,64.0
8375,34.0,60.0,60.0,8.0,64.0
8376,46.0,0.0,60.0,7.0,64.0
8377,48.0,0.0,60.0,7.0,64.0
8378,36.0,12.0,60.0,8.0,64.0
8379,49.0,60.0,60.0,7.0,64.0
8380,37.0,0.0,60.0,8.0,64.0
8381,39.0,0.0,60.0,8.0,64.0
8382,51.0,60.0,60.0,7.0,64.0
8383,53.0,60.0,60.0,7.0,64.0
8384,41.0,0.0,60.0,8.0,64.0
8385,55.0,0.0,60.0,7.0,64.0
8386,43.0,60.0,60.0,8.0,64.0
8387,56.0,0.0,60.0,7.0,64.0
8388,44.0,60.0,60.0,8.0,64.0
8389,55.0,0.0,150.0,12.0,64.0
8390,70.0,0.0,60.0,10.0,64.0
8391,39.0,0.0,150.0,14.0,64.0
8392,39.0,0.0,60.0,8.0,64.0
8393,61.0,48.0,60.0,11.0,64.0
8394,51.0,12.0,60.0,7.0,64.0
8395,51.0,24.0,150.0,13.0,64.0
8396,41.0,0.0,60.0,8.0,64.0
8397,53.0,30.0,60.0,7.0,64.0
8398,63.0,6.0,30.0,11.0,64.0
8399,72.0,0.0,30.0,10.0,64.0
8400,55.0,0.0,60.0,7.0,64.0
8401,43.0,0.0,60.0,8.0,64.0
8402,61.0,0.0,30.0,11.0,64.0
8403,70.0,60.0,30.0,10.0,64.0
8404,60.0,0.0,60.0,11.0,64.0
8405,44.0,0.0,60.0,8.0,64.0
8406,56.0,0.0,60.0,7.0,64.0
8407,68.0,60.0,60.0,10.0,64.0
8408,58.0,12.0,60.0,7.0,64.0
8409,51.0,0.0,90.0,13.0,64.0
8410,55.0,42.0,90.0,12.0,64.0
8411,61.0,0.0,60.0,11.0,64.0
8412,46.0,0.0,60.0,8.0,64.0
8413,39.0,0.0,90.0,14.0,64.0
8414,70.0,6.0,60.0,10.0,64.0
8415,48.0,0.0,60.0,8.0,64.0
8416,60.0,60.0,60.0,7.0,64.0
8417,61.0,0.0,60.0,7.0,64.0
8418,39.0,42.0,90.0,14.0,64.0
8419,63.0,0.0,60.0,11.0,64.0
8420,49.0,12.0,60.0,8.0,64.0
8421,51.0,0.0,90.0,12.0,64.0
8422,72.0,6.0,60.0,10.0,64.0
8423,51.0,0.0,90.0,13.0,64.0
8424,51.0,0.0,60.0,8.0,64.0
8425,63.0,60.0,60.0,7.0,64.0
8426,44.0,0.0,60.0,8.0,64.0
8427,56.0,48.0,180.0,13.0,64.0
8428,68.0,0.0,180.0,10.0,64.0
8429,60.0,0.0,180.0,11.0,64.0
8430,56.0,0.0,180.0,12.0,64.0
8431,44.0,0.0,180.0,14.0,64.0
8432,56.0,60.0,60.0,7.0,64.0
8433,46.0,0.0,60.0,8.0,64.0
8434,58.0,60.0,60.0,7.0,64.0
8435,48.0,0.0,60.0,8.0,64.0
8436,60.0,12.0,60.0,7.0,64.0
8437,49.0,60.0,60.0,8.0,64.0
8438,61.0,0.0,60.0,7.0,64.0
8439,51.0,60.0,60.0,8.0,64.0
8440,63.0,0.0,60.0,7.0,64.0
8441,53.0,0.0,60.0,8.0,64.0
8442,65.0,60.0,60.0,7.0,64.0
8443,67.0,60.0,60.0,7.0,64.0
8444,55.0,0.0,60.0,8.0,64.0
8445,68.0,0.0,60.0,7.0,64.0
8446,56.0,60.0,60.0,8.0,64.0
8447,63.0,12.0,60.0,6.0,64.0
8448,51.0,0.0,60.0,7.0,64.0
8449,51.0,0.0,180.0,3.0,64.0
8450,63.0,48.0,180.0,4.0,64.0
8451,82.0,0.0,60.0,0.0,64.0
8452,39.0,0.0,180.0,5.0,64.0
8453,70.0,48.0,60.0,1.0,64.0
8454,58.0,0.0,180.0,3.0,64.0
8455,70.0,0.0,180.0,4.0,64.0
8456,67.0,0.0,180.0,1.0,64.0
8457,58.0,0.0,60.0,2.0,64.0
8458,65.0,30.0,60.0,6.0,64.0
8459,53.0,0.0,60.0,7.0,64.0
8460,55.0,12.0,60.0,7.0,64.0
8461,84.0,0.0,30.0,0.0,64.0
8462,67.0,0.0,60.0,6.0,64.0
8463,60.0,30.0,30.0,2.0,64.0
8464,72.0,0.0,30.0,1.0,64.0
8465,70.0,0.0,30.0,1.0,64.0
8466,58.0,0.0,30.0,2.0,64.0
8467,82.0,0.0,30.0,0.0,64.0
8468,56.0,0.0,60.0,7.0,64.0
8469,68.0,0.0,60.0,6.0,64.0
8470,80.0,0.0,60.0,0.0,64.0
8471,68.0,0.0,60.0,1.0,64.0
8472,56.0,0.0,60.0,2.0,64.0
8473,70.0,0.0,60.0,1.0,64.0
8474,39.0,24.0,90.0,5.0,64.0
8475,67.0,0.0,90.0,1.0,64.0
8476,82.0,0.0,60.0,0.0,64.0
8477,70.0,0.0,90.0,4.0,64.0
8478,58.0,12.0,60.0,7.0,64.0
8479,63.0,0.0,90.0,4.0,64.0
8480,51.0,0.0,90.0,3.0,64.0
8481,58.0,0.0,90.0,3.0,64.0
8482,70.0,0.0,60.0,6.0,64.0
8483,58.0,0.0,60.0,2.0,64.0
8484,55.0,60.0,15.0,2.0,64.0
8485,72.0,60.0,60.0,6.0,64.0
8486,60.0,0.0,60.0,7.0,64.0
8487,68.0,0.0,90.0,1.0,64.0
8488,60.0,24.0,60.0,2.0,64.0
8489,56.0,0.0,60.0,2.0,64.0
8490,72.0,0.0,90.0,4.0,64.0
8491,39.0,0.0,90.0,5.0,64.0
8492,84.0,0.0,60.0,0.0,64.0
8493,63.0,0.0,90.0,4.0,64.0
8494,61.0,12.0,60.0,7.0,64.0
8495,51.0,0.0,90.0,3.0,64.0
8496,60.0,24.0,90.0,3.0,64.0
8497,72.0,0.0,60.0,1.0,64.0
8498,73.0,0.0,60.0,6.0,64.0
8499,75.0,0.0,60.0,6.0,64.0
8500,63.0,60.0,60.0,7.0,64.0
8501,60.0,0.0,180.0,4.0,64.0
8502,68.0,48.0,180.0,4.0,64.0
8503,56.0,0.0,180.0,2.0,64.0
8504,56.0,60.0,60.0,7.0,64.0
8505,44.0,0.0,180.0,5.0,64.0
8506,48.0,0.0,180.0,3.0,64.0
8507,68.0,0.0,60.0,6.0,64.0
8508,68.0,0.0,180.0,1.0,64.0
8509,80.0,0.0,180.0,0.0,64.0
8510,63.0,0.0,180.0,1.0,64.0
8511,51.0,0.0,180.0,2.0,64.0
8512,56.0,0.0,180.0,3.0,64.0
8513,70.0,0.0,60.0,6.0,64.0
8514,58.0,60.0,60.0,7.0,64.0
8515,60.0,0.0,60.0,7.0,64.0
8516,72.0,12.0,60.0,6.0,64.0
8517,61.0,0.0,60.0,7.0,64.0
8518,73.0,60.0,60.0,6.0,64.0
8519,63.0,60.0,60.0,7.0,64.0
8520,75.0,0.0,60.0,6.0,64.0
8521,77.0,0.0,60.0,6.0,64.0
8522,65.0,60.0,60.0,7.0,64.0
8523,79.0,0.0,60.0,6.0,64.0
8524,67.0,60.0,60.0,7.0,64.0
8525,80.0,0.0,60.0,6.0,64.0
8526,68.0,156.0,60.0,7.0,64.0
8527,51.0,0.0,150.0,13.0,64.0
8528,63.0,0.0,150.0,10.0,64.0
8529,70.0,0.0,150.0,10.0,64.0
8530,79.0,0.0,150.0,10.0,64.0
8531,87.0,0.0,150.0,0.0,64.0
8532,39.0,0.0,150.0,14.0,64.0
8533,79.0,0.0,150.0,1.0,64.0
8534,51.0,0.0,150.0,2.0,64.0
8535,51.0,0.0,150.0,12.0,64.0
8536,63.0,0.0,150.0,12.0,64.0
8537,70.0,0.0,150.0,1.0,64.0
8538,63.0,0.0,180.0,7.0,64.0
8539,63.0,0.0,150.0,4.0,64.0
8540,70.0,36.0,150.0,4.0,64.0
8541,51.0,0.0,150.0,3.0,64.0
8542,75.0,204.0,180.0,6.0,64.0
8543,58.0,0.0,150.0,11.0,64.0
8544,67.0,0.0,150.0,11.0,64.0
8545,58.0,0.0,150.0,3.0,64.0
8546,39.0,0.0,180.0,5.0,64.0
8547,75.0,0.0,150.0,11.0,64.0
8548,63.0,0.0,150.0,12.0,64.0
8549,51.0,0.0,150.0,8.0,64.0
8550,39.0,0.0,150.0,8.0,64.0
8551,39.0,240.0,180.0,5.0,64.0
8552,58.0,0.0,150.0,11.0,64.0
8553,67.0,0.0,150.0,11.0,64.0
8554,63.0,0.0,150.0,4.0,64.0
8555,70.0,0.0,150.0,4.0,64.0
8556,75.0,0.0,150.0,11.0,64.0
8557,51.0,0.0,150.0,12.0,64.0
8558,70.0,0.0,150.0,1.0,64.0
8559,51.0,0.0,150.0,13.0,64.0
8560,79.0,0.0,150.0,1.0,64.0
8561,58.0,0.0,150.0,3.0,64.0
8562,51.0,0.0,150.0,3.0,64.0
8563,87.0,0.0,150.0,0.0,64.0
8564,39.0,36.0,150.0,14.0,64.0
8565,70.0,0.0,150.0,10.0,64.0
8566,79.0,0.0,150.0,10.0,64.0
8567,63.0,0.0,150.0,10.0,64.0
8568,51.0,0.0,150.0,2.0,64.0
8569,84.0,0.0,180.0,0.0,64.0
8570,56.0,0.0,180.0,8.0,64.0
8571,63.0,0.0,180.0,10.0,64.0
8572,72.0,0.0,180.0,10.0,64.0
8573,80.0,0.0,180.0,10.0,64.0
8574,56.0,0.0,180.0,3.0,64.0
8575,48.0,0.0,180.0,3.0,64.0
8576,72.0,0.0,180.0,11.0,64.0
8577,68.0,0.0,180.0,11.0,64.0
8578,44.0,0.0,180.0,8.0,64.0
8579,32.0,0.0,180.0,14.0,64.0
8580,56.0,0.0,180.0,12.0,64.0
8581,44.0,0.0,180.0,5.0,64.0
8582,60.0,0.0,180.0,4.0,64.0
8583,68.0,0.0,180.0,4.0,64.0
8584,44.0,0.0,180.0,13.0,64.0
8585,72.0,0.0,180.0,1.0,64.0
8586,44.0,0.0,180.0,2.0,64.0
8587,60.0,0.0,180.0,11.0,64.0
8588,80.0,1440.0,180.0,1.0,64.0
8589,20.0,0.0,180.0,14.0,64.0
