,note,step,duration,channel,velocity
0,57.0,0.0,1800.0,0.0,0.0
1,45.0,60.0,120.0,8.0,0.0
2,69.0,0.0,480.0,1.0,0.0
3,61.0,0.0,60.0,2.0,0.0
4,64.0,60.0,60.0,2.0,0.0
5,69.0,60.0,60.0,2.0,0.0
6,64.0,60.0,60.0,2.0,0.0
7,61.0,119.0,60.0,2.0,0.0
8,73.0,1.0,120.0,10.0,0.0
9,69.0,0.0,120.0,10.0,0.0
10,44.0,60.0,120.0,8.0,0.0
11,61.0,0.0,60.0,2.0,0.0
12,64.0,60.0,60.0,2.0,0.0
13,71.0,0.0,120.0,1.0,0.0
14,69.0,60.0,60.0,2.0,0.0
15,73.0,0.0,120.0,1.0,0.0
16,64.0,60.0,60.0,2.0,0.0
17,61.0,119.0,60.0,2.0,0.0
18,42.0,0.0,120.0,8.0,0.0
19,74.0,0.0,480.0,1.0,0.0
20,74.0,1.0,120.0,10.0,0.0
21,62.0,60.0,60.0,2.0,0.0
22,66.0,60.0,60.0,2.0,0.0
23,69.0,60.0,60.0,2.0,0.0
24,66.0,60.0,60.0,2.0,0.0
25,62.0,119.0,60.0,2.0,0.0
26,69.0,1.0,120.0,10.0,0.0
27,35.0,0.0,120.0,8.0,0.0
28,62.0,60.0,60.0,2.0,0.0
29,76.0,0.0,120.0,1.0,0.0
30,66.0,60.0,60.0,2.0,0.0
31,69.0,60.0,60.0,2.0,0.0
32,78.0,0.0,120.0,1.0,0.0
33,66.0,60.0,60.0,2.0,0.0
34,62.0,119.0,60.0,2.0,0.0
35,76.0,0.0,480.0,1.0,0.0
36,69.0,1.0,120.0,10.0,0.0
37,71.0,0.0,120.0,10.0,0.0
38,40.0,60.0,120.0,8.0,0.0
39,59.0,0.0,60.0,2.0,0.0
40,64.0,60.0,60.0,2.0,0.0
41,69.0,60.0,60.0,2.0,0.0
42,64.0,60.0,60.0,2.0,0.0
43,59.0,119.0,60.0,2.0,0.0
44,56.0,0.0,240.0,0.0,0.0
45,40.0,60.0,120.0,8.0,0.0
46,68.0,0.0,120.0,10.0,0.0
47,71.0,1.0,120.0,10.0,0.0
48,59.0,0.0,60.0,2.0,0.0
49,78.0,60.0,120.0,1.0,0.0
50,64.0,60.0,60.0,2.0,0.0
51,68.0,0.0,60.0,2.0,0.0
52,74.0,0.0,120.0,1.0,0.0
53,64.0,60.0,60.0,2.0,0.0
54,59.0,0.0,60.0,2.0,0.0
55,59.0,119.0,15.0,0.0,0.0
56,68.0,0.0,120.0,10.0,0.0
57,76.0,30.0,240.0,1.0,0.0
58,71.0,0.0,120.0,10.0,0.0
59,74.0,1.0,120.0,10.0,0.0
60,45.0,0.0,120.0,8.0,0.0
61,59.0,60.0,60.0,2.0,0.0
62,64.0,60.0,60.0,2.0,0.0
63,68.0,0.0,60.0,2.0,0.0
64,64.0,4.0,60.0,2.0,0.0
65,74.0,26.0,30.0,1.0,0.0
66,76.0,4.0,30.0,1.0,0.0
67,74.0,8.0,15.0,1.0,0.0
68,76.0,24.0,15.0,1.0,0.0
69,59.0,0.0,60.0,2.0,0.0
70,74.0,24.0,30.0,1.0,0.0
71,33.0,0.0,120.0,8.0,0.0
72,73.0,60.0,120.0,1.0,0.0
73,69.0,1.0,120.0,10.0,0.0
74,73.0,0.0,120.0,10.0,0.0
75,57.0,0.0,120.0,0.0,0.0
76,61.0,0.0,60.0,2.0,0.0
77,64.0,60.0,60.0,2.0,0.0
78,69.0,60.0,60.0,2.0,0.0
79,64.0,60.0,60.0,2.0,0.0
80,61.0,120.0,60.0,2.0,0.0
81,81.0,6.0,600.0,1.0,0.0
82,61.0,0.0,720.0,0.0,0.0
83,45.0,0.0,120.0,8.0,0.0
84,61.0,60.0,60.0,2.0,0.0
85,64.0,60.0,60.0,2.0,0.0
86,69.0,60.0,60.0,2.0,0.0
87,64.0,60.0,60.0,2.0,0.0
88,61.0,120.0,60.0,2.0,0.0
89,45.0,60.0,120.0,8.0,0.0
90,61.0,0.0,60.0,2.0,0.0
91,64.0,54.0,60.0,2.0,0.0
92,69.0,60.0,60.0,2.0,0.0
93,80.0,12.0,120.0,1.0,0.0
94,64.0,48.0,60.0,2.0,0.0
95,61.0,119.0,60.0,2.0,0.0
96,45.0,60.0,120.0,8.0,0.0
97,78.0,0.0,120.0,10.0,0.0
98,62.0,16.0,360.0,0.0,0.0
99,74.0,1.0,120.0,10.0,0.0
100,80.0,20.0,270.0,1.0,0.0
101,62.0,0.0,60.0,2.0,0.0
102,66.0,60.0,60.0,2.0,0.0
103,69.0,26.0,60.0,2.0,0.0
104,66.0,18.0,60.0,2.0,0.0
105,78.0,14.0,30.0,1.0,0.0
106,78.0,24.0,30.0,1.0,0.0
107,80.0,2.0,20.0,1.0,0.0
108,62.0,0.0,60.0,2.0,0.0
109,78.0,103.0,40.0,1.0,0.0
110,80.0,16.0,15.0,1.0,0.0
111,33.0,0.0,120.0,8.0,0.0
112,61.0,60.0,360.0,0.0,0.0
113,73.0,1.0,120.0,10.0,0.0
114,76.0,0.0,120.0,10.0,0.0
115,76.0,48.0,120.0,1.0,0.0
116,61.0,12.0,60.0,2.0,0.0
117,64.0,60.0,60.0,2.0,0.0
118,69.0,60.0,60.0,2.0,0.0
119,64.0,60.0,60.0,2.0,0.0
120,61.0,0.0,60.0,2.0,0.0
121,75.0,60.0,660.0,1.0,0.0
122,75.0,0.0,120.0,10.0,0.0
123,69.0,1.0,120.0,10.0,0.0
124,60.0,0.0,720.0,0.0,0.0
125,42.0,59.0,60.0,8.0,0.0
126,63.0,60.0,60.0,2.0,0.0
127,66.0,60.0,60.0,2.0,0.0
128,69.0,60.0,60.0,2.0,0.0
129,66.0,60.0,60.0,2.0,0.0
130,63.0,60.0,60.0,2.0,0.0
131,75.0,1.0,120.0,10.0,0.0
132,42.0,59.0,60.0,8.0,0.0
133,69.0,0.0,120.0,10.0,0.0
134,63.0,60.0,60.0,2.0,0.0
135,66.0,60.0,60.0,2.0,0.0
136,69.0,60.0,60.0,2.0,0.0
137,66.0,0.0,60.0,2.0,0.0
138,63.0,60.0,60.0,2.0,0.0
139,83.0,0.0,60.0,1.0,0.0
140,76.0,1.0,120.0,10.0,0.0
141,71.0,0.0,120.0,10.0,0.0
142,44.0,59.0,60.0,8.0,0.0
143,83.0,15.0,300.0,1.0,0.0
144,59.0,119.0,720.0,0.0,0.0
145,62.0,60.0,60.0,2.0,0.0
146,64.0,60.0,60.0,2.0,0.0
147,71.0,60.0,60.0,2.0,0.0
148,64.0,0.0,60.0,2.0,0.0
149,81.0,15.0,15.0,1.0,0.0
150,62.0,60.0,60.0,2.0,0.0
151,80.0,15.0,15.0,1.0,0.0
152,78.0,15.0,15.0,1.0,0.0
153,76.0,0.0,15.0,1.0,0.0
154,44.0,59.0,60.0,8.0,0.0
155,74.0,60.0,120.0,1.0,0.0
156,71.0,1.0,120.0,10.0,0.0
157,76.0,0.0,120.0,10.0,0.0
158,62.0,0.0,60.0,2.0,0.0
159,64.0,60.0,60.0,2.0,0.0
160,71.0,60.0,60.0,2.0,0.0
161,64.0,60.0,60.0,2.0,0.0
162,62.0,0.0,60.0,2.0,0.0
163,73.0,54.0,480.0,1.0,0.0
164,73.0,1.0,120.0,10.0,0.0
165,45.0,60.0,120.0,8.0,0.0
166,57.0,0.0,360.0,0.0,0.0
167,76.0,0.0,120.0,10.0,0.0
168,61.0,0.0,60.0,2.0,0.0
169,64.0,60.0,60.0,2.0,0.0
170,69.0,60.0,60.0,2.0,0.0
171,64.0,60.0,60.0,2.0,0.0
172,61.0,119.0,60.0,2.0,0.0
173,74.0,1.0,120.0,10.0,0.0
174,38.0,0.0,120.0,8.0,0.0
175,59.0,119.0,360.0,0.0,0.0
176,59.0,6.0,60.0,2.0,0.0
177,74.0,0.0,60.0,1.0,0.0
178,66.0,60.0,60.0,2.0,0.0
179,69.0,0.0,60.0,2.0,0.0
180,76.0,60.0,60.0,1.0,0.0
181,78.0,0.0,60.0,1.0,0.0
182,66.0,60.0,60.0,2.0,0.0
183,59.0,0.0,60.0,2.0,0.0
184,74.0,0.0,60.0,1.0,0.0
185,40.0,0.0,120.0,8.0,0.0
186,73.0,1.0,120.0,10.0,0.0
187,73.0,0.0,480.0,1.0,0.0
188,76.0,0.0,120.0,10.0,0.0
189,61.0,119.0,360.0,0.0,0.0
190,61.0,60.0,60.0,2.0,0.0
191,64.0,60.0,60.0,2.0,0.0
192,69.0,60.0,60.0,2.0,0.0
193,64.0,60.0,60.0,2.0,0.0
194,61.0,0.0,60.0,2.0,0.0
195,74.0,1.0,120.0,10.0,0.0
196,68.0,0.0,120.0,10.0,0.0
197,62.0,0.0,240.0,0.0,0.0
198,40.0,60.0,120.0,8.0,0.0
199,62.0,0.0,60.0,2.0,0.0
200,64.0,60.0,60.0,2.0,0.0
201,71.0,0.0,60.0,1.0,0.0
202,68.0,60.0,60.0,2.0,0.0
203,73.0,0.0,60.0,1.0,0.0
204,56.0,120.0,120.0,0.0,0.0
205,64.0,0.0,60.0,2.0,0.0
206,74.0,60.0,60.0,1.0,0.0
207,62.0,0.0,60.0,2.0,0.0
208,71.0,0.0,60.0,1.0,0.0
209,45.0,0.0,120.0,8.0,0.0
210,57.0,0.0,240.0,0.0,0.0
211,69.0,0.0,480.0,3.0,0.0
212,69.0,60.0,480.0,1.0,0.0
213,61.0,60.0,60.0,2.0,0.0
214,64.0,60.0,60.0,2.0,0.0
215,69.0,60.0,60.0,2.0,0.0
216,64.0,60.0,60.0,2.0,0.0
217,61.0,119.0,60.0,2.0,0.0
218,44.0,0.0,120.0,8.0,0.0
219,73.0,1.0,120.0,10.0,0.0
220,69.0,0.0,120.0,10.0,0.0
221,61.0,0.0,60.0,2.0,0.0
222,71.0,54.0,120.0,1.0,0.0
223,64.0,60.0,60.0,2.0,0.0
224,71.0,6.0,120.0,3.0,0.0
225,69.0,0.0,60.0,2.0,0.0
226,73.0,0.0,120.0,1.0,0.0
227,64.0,60.0,60.0,2.0,0.0
228,73.0,0.0,120.0,3.0,0.0
229,61.0,119.0,60.0,2.0,0.0
230,74.0,52.0,480.0,1.0,0.0
231,74.0,1.0,120.0,10.0,0.0
232,74.0,0.0,480.0,3.0,0.0
233,42.0,0.0,120.0,8.0,0.0
234,62.0,60.0,60.0,2.0,0.0
235,66.0,60.0,60.0,2.0,0.0
236,69.0,60.0,60.0,2.0,0.0
237,66.0,60.0,60.0,2.0,0.0
238,62.0,119.0,60.0,2.0,0.0
239,69.0,1.0,120.0,10.0,0.0
240,35.0,0.0,120.0,8.0,0.0
241,62.0,8.0,60.0,2.0,0.0
242,66.0,58.0,60.0,2.0,0.0
243,76.0,2.0,120.0,1.0,0.0
244,76.0,0.0,120.0,3.0,0.0
245,69.0,60.0,60.0,2.0,0.0
246,78.0,117.0,120.0,1.0,0.0
247,78.0,2.0,120.0,3.0,0.0
248,66.0,60.0,60.0,2.0,0.0
249,62.0,0.0,60.0,2.0,0.0
250,71.0,1.0,120.0,10.0,0.0
251,69.0,0.0,120.0,10.0,0.0
252,40.0,0.0,120.0,8.0,0.0
253,76.0,0.0,480.0,3.0,0.0
254,76.0,7.0,480.0,1.0,0.0
255,59.0,60.0,60.0,2.0,0.0
256,64.0,60.0,60.0,2.0,0.0
257,69.0,60.0,60.0,2.0,0.0
258,64.0,60.0,60.0,2.0,0.0
259,59.0,112.0,60.0,2.0,0.0
260,40.0,60.0,120.0,8.0,0.0
261,68.0,1.0,120.0,10.0,0.0
262,59.0,0.0,60.0,2.0,0.0
263,78.0,6.0,120.0,1.0,0.0
264,78.0,60.0,120.0,3.0,0.0
265,64.0,54.0,60.0,2.0,0.0
266,68.0,0.0,60.0,2.0,0.0
267,74.0,6.0,120.0,1.0,0.0
268,64.0,54.0,60.0,2.0,0.0
269,74.0,119.0,120.0,3.0,0.0
270,59.0,0.0,60.0,2.0,0.0
271,76.0,18.0,240.0,1.0,0.0
272,74.0,0.0,120.0,10.0,0.0
273,68.0,1.0,120.0,10.0,0.0
274,45.0,0.0,120.0,8.0,0.0
275,71.0,0.0,120.0,10.0,0.0
276,76.0,0.0,240.0,3.0,0.0
277,59.0,60.0,60.0,2.0,0.0
278,64.0,60.0,60.0,2.0,0.0
279,68.0,2.0,60.0,2.0,0.0
280,74.0,16.0,20.0,1.0,0.0
281,64.0,0.0,60.0,2.0,0.0
282,74.0,2.0,30.0,3.0,0.0
283,76.0,16.0,20.0,1.0,0.0
284,74.0,6.0,20.0,1.0,0.0
285,76.0,16.0,40.0,3.0,0.0
286,76.0,18.0,15.0,1.0,0.0
287,74.0,14.0,40.0,1.0,0.0
288,59.0,119.0,60.0,2.0,0.0
289,74.0,12.0,40.0,3.0,0.0
290,73.0,42.0,240.0,1.0,0.0
291,76.0,1.0,120.0,10.0,0.0
292,33.0,60.0,120.0,8.0,0.0
293,69.0,0.0,120.0,10.0,0.0
294,73.0,60.0,240.0,3.0,0.0
295,61.0,0.0,60.0,2.0,0.0
296,64.0,18.0,60.0,2.0,0.0
297,69.0,0.0,60.0,2.0,0.0
298,64.0,60.0,60.0,2.0,0.0
299,61.0,120.0,60.0,2.0,0.0
300,81.0,0.0,600.0,3.0,0.0
301,61.0,0.0,720.0,0.0,0.0
302,81.0,44.0,630.0,1.0,0.0
303,45.0,60.0,120.0,8.0,0.0
304,61.0,0.0,60.0,2.0,0.0
305,64.0,60.0,60.0,2.0,0.0
306,69.0,60.0,60.0,2.0,0.0
307,64.0,60.0,60.0,2.0,0.0
308,61.0,120.0,60.0,2.0,0.0
309,45.0,0.0,120.0,8.0,0.0
310,61.0,60.0,60.0,2.0,0.0
311,64.0,60.0,60.0,2.0,0.0
312,69.0,16.0,60.0,2.0,0.0
313,80.0,0.0,120.0,3.0,0.0
314,64.0,52.0,60.0,2.0,0.0
315,80.0,8.0,90.0,1.0,0.0
316,61.0,119.0,60.0,2.0,0.0
317,45.0,60.0,120.0,8.0,0.0
318,62.0,12.0,360.0,0.0,0.0
319,78.0,1.0,120.0,10.0,0.0
320,74.0,0.0,120.0,10.0,0.0
321,80.0,0.0,240.0,3.0,0.0
322,80.0,22.0,240.0,1.0,0.0
323,62.0,0.0,60.0,2.0,0.0
324,66.0,60.0,60.0,2.0,0.0
325,69.0,8.0,60.0,2.0,0.0
326,78.0,16.0,30.0,1.0,0.0
327,66.0,10.0,60.0,2.0,0.0
328,78.0,10.0,30.0,3.0,0.0
329,80.0,2.0,40.0,1.0,0.0
330,78.0,4.0,15.0,1.0,0.0
331,80.0,0.0,30.0,3.0,0.0
332,62.0,0.0,60.0,2.0,0.0
333,78.0,22.0,15.0,3.0,0.0
334,78.0,22.0,30.0,1.0,0.0
335,78.0,92.0,60.0,3.0,0.0
336,76.0,15.0,120.0,1.0,0.0
337,80.0,4.0,15.0,3.0,0.0
338,76.0,60.0,240.0,3.0,0.0
339,33.0,60.0,120.0,8.0,0.0
340,61.0,0.0,360.0,0.0,0.0
341,73.0,0.0,120.0,10.0,0.0
342,76.0,1.0,120.0,10.0,0.0
343,61.0,0.0,60.0,2.0,0.0
344,64.0,60.0,60.0,2.0,0.0
345,69.0,0.0,60.0,2.0,0.0
346,64.0,60.0,60.0,2.0,0.0
347,61.0,119.0,60.0,2.0,0.0
348,71.0,1.0,120.0,10.0,0.0
349,75.0,0.0,120.0,10.0,0.0
350,45.0,60.0,120.0,8.0,0.0
351,75.0,0.0,720.0,3.0,0.0
352,59.0,0.0,60.0,2.0,0.0
353,63.0,52.0,60.0,2.0,0.0
354,75.0,8.0,120.0,1.0,0.0
355,66.0,60.0,60.0,2.0,0.0
356,78.0,50.0,60.0,1.0,0.0
357,63.0,10.0,60.0,2.0,0.0
358,59.0,119.0,60.0,2.0,0.0
359,45.0,0.0,120.0,8.0,0.0
360,75.0,0.0,120.0,10.0,0.0
361,71.0,1.0,120.0,10.0,0.0
362,59.0,60.0,60.0,2.0,0.0
363,83.0,2.0,120.0,1.0,0.0
364,63.0,58.0,60.0,2.0,0.0
365,66.0,60.0,60.0,2.0,0.0
366,78.0,30.0,90.0,1.0,0.0
367,63.0,30.0,60.0,2.0,0.0
368,59.0,30.0,60.0,2.0,0.0
369,44.0,0.0,120.0,8.0,0.0
370,78.0,89.0,30.0,3.0,0.0
371,76.0,1.0,120.0,10.0,0.0
372,76.0,60.0,570.0,3.0,0.0
373,59.0,60.0,60.0,2.0,0.0
374,76.0,0.0,120.0,1.0,0.0
375,64.0,60.0,60.0,2.0,0.0
376,68.0,60.0,60.0,2.0,0.0
377,64.0,24.0,60.0,2.0,0.0
378,80.0,36.0,90.0,1.0,0.0
379,59.0,119.0,60.0,2.0,0.0
380,73.0,1.0,120.0,10.0,0.0
381,40.0,60.0,120.0,8.0,0.0
382,61.0,0.0,60.0,2.0,0.0
383,68.0,4.0,120.0,1.0,0.0
384,64.0,56.0,60.0,2.0,0.0
385,68.0,0.0,60.0,2.0,0.0
386,64.0,0.0,60.0,2.0,0.0
387,73.0,26.0,90.0,1.0,0.0
388,75.0,34.0,60.0,3.0,0.0
389,61.0,119.0,60.0,2.0,0.0
390,73.0,0.0,60.0,3.0,0.0
391,42.0,0.0,120.0,8.0,0.0
392,71.0,0.0,240.0,3.0,0.0
393,73.0,1.0,120.0,10.0,0.0
394,71.0,0.0,120.0,10.0,0.0
395,61.0,60.0,60.0,2.0,0.0
396,61.0,56.0,120.0,1.0,0.0
397,64.0,60.0,60.0,2.0,0.0
398,66.0,4.0,60.0,2.0,0.0
399,68.0,18.0,90.0,1.0,0.0
400,64.0,42.0,60.0,2.0,0.0
401,61.0,119.0,60.0,2.0,0.0
402,35.0,60.0,120.0,8.0,0.0
403,69.0,0.0,15.0,3.0,0.0
404,69.0,1.0,120.0,10.0,0.0
405,59.0,0.0,60.0,2.0,0.0
406,63.0,54.0,60.0,2.0,0.0
407,66.0,6.0,120.0,1.0,0.0
408,66.0,60.0,60.0,2.0,0.0
409,63.0,52.0,60.0,2.0,0.0
410,69.0,8.0,120.0,1.0,0.0
411,59.0,120.0,60.0,2.0,0.0
412,40.0,60.0,120.0,8.0,0.0
413,68.0,0.0,720.0,3.0,0.0
414,59.0,0.0,60.0,2.0,0.0
415,64.0,56.0,60.0,2.0,0.0
416,68.0,4.0,120.0,1.0,0.0
417,68.0,60.0,60.0,2.0,0.0
418,76.0,4.0,120.0,1.0,0.0
419,64.0,56.0,60.0,2.0,0.0
420,59.0,120.0,60.0,2.0,0.0
421,49.0,60.0,120.0,8.0,0.0
422,61.0,0.0,60.0,2.0,0.0
423,64.0,60.0,60.0,2.0,0.0
424,76.0,54.0,120.0,1.0,0.0
425,68.0,6.0,60.0,2.0,0.0
426,80.0,18.0,90.0,1.0,0.0
427,64.0,42.0,60.0,2.0,0.0
428,61.0,120.0,60.0,2.0,0.0
429,66.0,0.0,360.0,3.0,0.0
430,76.0,0.0,120.0,10.0,0.0
431,45.0,0.0,120.0,8.0,0.0
432,66.0,60.0,120.0,10.0,0.0
433,61.0,0.0,60.0,2.0,0.0
434,64.0,60.0,60.0,2.0,0.0
435,73.0,0.0,120.0,1.0,0.0
436,66.0,60.0,60.0,2.0,0.0
437,64.0,34.0,60.0,2.0,0.0
438,78.0,26.0,90.0,1.0,0.0
439,61.0,120.0,60.0,2.0,0.0
440,66.0,0.0,120.0,10.0,0.0
441,78.0,60.0,480.0,3.0,0.0
442,45.0,60.0,120.0,8.0,0.0
443,76.0,0.0,120.0,10.0,0.0
444,61.0,0.0,60.0,2.0,0.0
445,78.0,60.0,120.0,1.0,0.0
446,64.0,60.0,60.0,2.0,0.0
447,66.0,0.0,60.0,2.0,0.0
448,64.0,46.0,60.0,2.0,0.0
449,81.0,14.0,120.0,1.0,0.0
450,61.0,120.0,60.0,2.0,0.0
451,76.0,0.0,120.0,10.0,0.0
452,45.0,0.0,120.0,8.0,0.0
453,66.0,0.0,120.0,10.0,0.0
454,61.0,0.0,60.0,2.0,0.0
455,64.0,58.0,60.0,2.0,0.0
456,77.0,0.0,120.0,3.0,0.0
457,81.0,2.0,120.0,1.0,0.0
458,66.0,60.0,60.0,2.0,0.0
459,85.0,10.0,120.0,1.0,0.0
460,78.0,120.0,120.0,3.0,0.0
461,64.0,50.0,60.0,2.0,0.0
462,61.0,0.0,60.0,2.0,0.0
463,81.0,0.0,120.0,3.0,0.0
464,45.0,0.0,120.0,8.0,0.0
465,66.0,0.0,120.0,10.0,0.0
466,76.0,0.0,120.0,10.0,0.0
467,61.0,60.0,60.0,2.0,0.0
468,80.0,2.0,120.0,3.0,0.0
469,85.0,58.0,120.0,1.0,0.0
470,64.0,60.0,60.0,2.0,0.0
471,66.0,0.0,60.0,2.0,0.0
472,88.0,24.0,90.0,1.0,0.0
473,64.0,36.0,60.0,2.0,0.0
474,78.0,120.0,120.0,3.0,0.0
475,61.0,0.0,60.0,2.0,0.0
476,47.0,0.0,120.0,8.0,0.0
477,76.0,10.0,600.0,10.0,0.0
478,80.0,0.0,360.0,10.0,0.0
479,76.0,28.0,570.0,3.0,0.0
480,59.0,60.0,60.0,2.0,0.0
481,83.0,54.0,120.0,1.0,0.0
482,64.0,60.0,60.0,2.0,0.0
483,68.0,6.0,60.0,2.0,0.0
484,64.0,46.0,60.0,2.0,0.0
485,80.0,14.0,120.0,1.0,0.0
486,59.0,120.0,60.0,2.0,0.0
487,78.0,0.0,360.0,10.0,0.0
488,35.0,60.0,120.0,8.0,0.0
489,59.0,0.0,60.0,2.0,0.0
490,81.0,2.0,120.0,1.0,0.0
491,66.0,30.0,60.0,2.0,0.0
492,69.0,0.0,60.0,2.0,0.0
493,80.0,50.0,30.0,3.0,0.0
494,75.0,54.0,120.0,1.0,0.0
495,78.0,0.0,60.0,3.0,0.0
496,66.0,60.0,60.0,2.0,0.0
497,75.0,0.0,120.0,10.0,0.0
498,59.0,6.0,60.0,2.0,0.0
499,76.0,0.0,15.0,3.0,0.0
500,68.0,58.0,60.0,2.0,0.0
501,76.0,2.0,120.0,1.0,0.0
502,40.0,4.0,960.0,0.0,0.0
503,40.0,6.0,240.0,8.0,0.0
504,59.0,60.0,60.0,2.0,0.0
505,68.0,54.0,120.0,1.0,0.0
506,64.0,60.0,60.0,2.0,0.0
507,59.0,0.0,60.0,2.0,0.0
508,66.0,60.0,60.0,2.0,0.0
509,69.0,44.0,150.0,1.0,0.0
510,59.0,16.0,60.0,2.0,0.0
511,68.0,60.0,60.0,2.0,0.0
512,71.0,50.0,120.0,1.0,0.0
513,64.0,10.0,60.0,2.0,0.0
514,73.0,60.0,120.0,1.0,0.0
515,69.0,60.0,60.0,2.0,0.0
516,64.0,0.0,60.0,2.0,0.0
517,75.0,40.0,90.0,1.0,0.0
518,66.0,20.0,60.0,2.0,0.0
519,64.0,60.0,60.0,2.0,0.0
520,52.0,0.0,120.0,10.0,0.0
521,40.0,0.0,120.0,8.0,0.0
522,76.0,0.0,180.0,3.0,0.0
523,76.0,54.0,240.0,1.0,0.0
524,68.0,60.0,60.0,2.0,0.0
525,59.0,60.0,60.0,2.0,0.0
526,64.0,60.0,60.0,2.0,0.0
527,68.0,0.0,60.0,2.0,0.0
528,71.0,2.0,15.0,3.0,0.0
529,71.0,26.0,90.0,1.0,0.0
530,64.0,34.0,60.0,2.0,0.0
531,59.0,120.0,60.0,2.0,0.0
532,71.0,38.0,270.0,1.0,0.0
533,40.0,0.0,120.0,8.0,0.0
534,52.0,60.0,120.0,10.0,0.0
535,71.0,0.0,240.0,3.0,0.0
536,59.0,0.0,60.0,2.0,0.0
537,64.0,60.0,60.0,2.0,0.0
538,68.0,22.0,60.0,2.0,0.0
539,69.0,30.0,60.0,2.0,0.0
540,73.0,30.0,90.0,1.0,0.0
541,64.0,0.0,60.0,2.0,0.0
542,73.0,44.0,150.0,1.0,0.0
543,40.0,0.0,120.0,8.0,0.0
544,73.0,120.0,15.0,3.0,0.0
545,52.0,0.0,120.0,10.0,0.0
546,64.0,16.0,60.0,2.0,0.0
547,76.0,56.0,120.0,1.0,0.0
548,76.0,0.0,120.0,3.0,0.0
549,70.0,60.0,60.0,2.0,0.0
550,73.0,4.0,60.0,2.0,0.0
551,74.0,20.0,120.0,3.0,0.0
552,74.0,100.0,150.0,1.0,0.0
553,71.0,60.0,60.0,2.0,0.0
554,68.0,0.0,60.0,2.0,0.0
555,74.0,0.0,360.0,3.0,0.0
556,52.0,0.0,120.0,10.0,0.0
557,40.0,0.0,120.0,8.0,0.0
558,64.0,60.0,60.0,2.0,0.0
559,74.0,52.0,120.0,1.0,0.0
560,68.0,60.0,60.0,2.0,0.0
561,71.0,8.0,60.0,2.0,0.0
562,68.0,60.0,60.0,2.0,0.0
563,71.0,116.0,120.0,1.0,0.0
564,64.0,4.0,60.0,2.0,0.0
565,50.0,0.0,120.0,8.0,0.0
566,76.0,60.0,120.0,10.0,0.0
567,80.0,0.0,120.0,10.0,0.0
568,64.0,0.0,1080.0,0.0,0.0
569,80.0,30.0,570.0,3.0,0.0
570,64.0,0.0,60.0,2.0,0.0
571,68.0,60.0,60.0,2.0,0.0
572,71.0,54.0,120.0,1.0,0.0
573,71.0,6.0,60.0,2.0,0.0
574,80.0,2.0,120.0,1.0,0.0
575,68.0,58.0,60.0,2.0,0.0
576,64.0,120.0,60.0,2.0,0.0
577,76.0,0.0,120.0,10.0,0.0
578,80.0,0.0,120.0,10.0,0.0
579,50.0,0.0,120.0,8.0,0.0
580,64.0,60.0,60.0,2.0,0.0
581,68.0,30.0,60.0,2.0,0.0
582,80.0,50.0,120.0,1.0,0.0
583,71.0,8.0,60.0,2.0,0.0
584,81.0,2.0,30.0,3.0,0.0
585,80.0,0.0,60.0,3.0,0.0
586,88.0,112.0,120.0,1.0,0.0
587,68.0,26.0,60.0,2.0,0.0
588,64.0,8.0,60.0,2.0,0.0
589,78.0,26.0,30.0,3.0,0.0
590,76.0,8.0,20.0,3.0,0.0
591,49.0,60.0,120.0,8.0,0.0
592,81.0,0.0,120.0,10.0,0.0
593,81.0,0.0,840.0,3.0,0.0
594,64.0,0.0,60.0,2.0,0.0
595,73.0,50.0,120.0,1.0,0.0
596,69.0,60.0,60.0,2.0,0.0
597,73.0,10.0,60.0,2.0,0.0
598,69.0,50.0,60.0,2.0,0.0
599,81.0,10.0,120.0,1.0,0.0
600,64.0,120.0,60.0,2.0,0.0
601,81.0,0.0,120.0,10.0,0.0
602,49.0,60.0,120.0,8.0,0.0
603,67.0,0.0,360.0,0.0,0.0
604,79.0,0.0,120.0,10.0,0.0
605,69.0,0.0,60.0,2.0,0.0
606,73.0,60.0,60.0,2.0,0.0
607,88.0,60.0,120.0,1.0,0.0
608,76.0,0.0,60.0,2.0,0.0
609,79.0,0.0,150.0,1.0,0.0
610,73.0,60.0,60.0,2.0,0.0
611,69.0,22.0,60.0,2.0,0.0
612,78.0,98.0,20.0,1.0,0.0
613,66.0,60.0,120.0,0.0,0.0
614,50.0,0.0,120.0,8.0,0.0
615,69.0,0.0,60.0,2.0,0.0
616,81.0,0.0,120.0,3.0,0.0
617,81.0,56.0,120.0,1.0,0.0
618,78.0,60.0,60.0,2.0,0.0
619,69.0,4.0,60.0,2.0,0.0
620,80.0,112.0,120.0,1.0,0.0
621,80.0,8.0,120.0,3.0,0.0
622,76.0,60.0,60.0,2.0,0.0
623,69.0,0.0,60.0,2.0,0.0
624,50.0,0.0,120.0,8.0,0.0
625,78.0,0.0,120.0,3.0,0.0
626,66.0,60.0,60.0,2.0,0.0
627,78.0,52.0,120.0,1.0,0.0
628,74.0,60.0,60.0,2.0,0.0
629,78.0,8.0,120.0,3.0,0.0
630,66.0,0.0,60.0,2.0,0.0
631,76.0,6.0,120.0,3.0,0.0
632,76.0,18.0,150.0,1.0,0.0
633,73.0,54.0,60.0,2.0,0.0
634,66.0,18.0,60.0,2.0,0.0
635,71.0,60.0,120.0,10.0,0.0
636,38.0,0.0,120.0,8.0,0.0
637,76.0,84.0,30.0,3.0,0.0
638,62.0,0.0,60.0,2.0,0.0
639,83.0,46.0,120.0,1.0,0.0
640,66.0,60.0,60.0,2.0,0.0
641,71.0,14.0,60.0,2.0,0.0
642,66.0,60.0,60.0,2.0,0.0
643,74.0,12.0,150.0,1.0,0.0
644,62.0,0.0,60.0,2.0,0.0
645,39.0,0.0,120.0,8.0,0.0
646,74.0,18.0,15.0,3.0,0.0
647,73.0,0.0,120.0,10.0,0.0
648,73.0,0.0,330.0,3.0,0.0
649,61.0,60.0,60.0,2.0,0.0
650,81.0,52.0,120.0,1.0,0.0
651,66.0,60.0,60.0,2.0,0.0
652,69.0,8.0,60.0,2.0,0.0
653,66.0,60.0,60.0,2.0,0.0
654,73.0,100.0,150.0,1.0,0.0
655,61.0,20.0,60.0,2.0,0.0
656,73.0,0.0,120.0,10.0,0.0
657,76.0,0.0,480.0,3.0,0.0
658,69.0,0.0,120.0,10.0,0.0
659,40.0,0.0,120.0,8.0,0.0
660,61.0,60.0,60.0,2.0,0.0
661,76.0,26.0,90.0,1.0,0.0
662,64.0,34.0,60.0,2.0,0.0
663,69.0,60.0,60.0,2.0,0.0
664,76.0,110.0,120.0,1.0,0.0
665,64.0,60.0,60.0,2.0,0.0
666,61.0,10.0,60.0,2.0,0.0
667,69.0,0.0,120.0,10.0,0.0
668,73.0,60.0,120.0,10.0,0.0
669,40.0,0.0,120.0,8.0,0.0
670,61.0,0.0,60.0,2.0,0.0
671,64.0,14.0,60.0,2.0,0.0
672,64.0,18.0,90.0,1.0,0.0
673,74.0,22.0,60.0,3.0,0.0
674,73.0,6.0,60.0,3.0,0.0
675,69.0,60.0,60.0,2.0,0.0
676,71.0,58.0,60.0,3.0,0.0
677,64.0,2.0,60.0,2.0,0.0
678,64.0,110.0,120.0,1.0,0.0
679,73.0,6.0,60.0,3.0,0.0
680,61.0,4.0,60.0,2.0,0.0
681,71.0,0.0,120.0,10.0,0.0
682,40.0,60.0,120.0,8.0,0.0
683,68.0,0.0,120.0,10.0,0.0
684,71.0,0.0,240.0,3.0,0.0
685,64.0,0.0,60.0,2.0,0.0
686,71.0,56.0,120.0,1.0,0.0
687,68.0,60.0,60.0,2.0,0.0
688,59.0,4.0,120.0,0.0,0.0
689,64.0,0.0,60.0,2.0,0.0
690,69.0,60.0,60.0,2.0,0.0
691,61.0,0.0,120.0,0.0,0.0
692,73.0,42.0,150.0,1.0,0.0
693,64.0,18.0,60.0,2.0,0.0
694,74.0,46.0,120.0,1.0,0.0
695,62.0,0.0,120.0,0.0,0.0
696,71.0,60.0,60.0,2.0,0.0
697,64.0,14.0,60.0,2.0,0.0
698,61.0,0.0,120.0,0.0,0.0
699,69.0,60.0,60.0,2.0,0.0
700,73.0,56.0,120.0,1.0,0.0
701,64.0,4.0,60.0,2.0,0.0
702,68.0,60.0,60.0,2.0,0.0
703,71.0,116.0,120.0,1.0,0.0
704,59.0,0.0,120.0,0.0,0.0
705,64.0,4.0,60.0,2.0,0.0
706,69.0,0.0,480.0,3.0,0.0
707,69.0,0.0,120.0,10.0,0.0
708,37.0,60.0,120.0,8.0,0.0
709,57.0,8.0,720.0,0.0,0.0
710,64.0,0.0,60.0,2.0,0.0
711,69.0,54.0,60.0,2.0,0.0
712,69.0,6.0,120.0,1.0,0.0
713,73.0,60.0,60.0,2.0,0.0
714,73.0,106.0,120.0,1.0,0.0
715,69.0,60.0,60.0,2.0,0.0
716,64.0,14.0,60.0,2.0,0.0
717,69.0,60.0,120.0,10.0,0.0
718,37.0,0.0,120.0,8.0,0.0
719,64.0,0.0,60.0,2.0,0.0
720,76.0,0.0,120.0,3.0,0.0
721,76.0,52.0,120.0,1.0,0.0
722,69.0,60.0,60.0,2.0,0.0
723,73.0,8.0,60.0,2.0,0.0
724,73.0,18.0,120.0,1.0,0.0
725,69.0,60.0,60.0,2.0,0.0
726,64.0,0.0,60.0,2.0,0.0
727,61.0,4.0,30.0,0.0,0.0
728,68.0,0.0,120.0,10.0,0.0
729,76.0,60.0,120.0,10.0,0.0
730,73.0,0.0,15.0,3.0,0.0
731,38.0,0.0,120.0,8.0,0.0
732,59.0,2.0,360.0,0.0,0.0
733,71.0,0.0,270.0,3.0,0.0
734,64.0,0.0,60.0,2.0,0.0
735,71.0,2.0,120.0,1.0,0.0
736,68.0,58.0,60.0,2.0,0.0
737,71.0,60.0,60.0,2.0,0.0
738,68.0,60.0,60.0,2.0,0.0
739,68.0,112.0,120.0,1.0,0.0
740,64.0,6.0,60.0,2.0,0.0
741,69.0,0.0,60.0,3.0,0.0
742,57.0,24.0,270.0,0.0,0.0
743,69.0,8.0,360.0,3.0,0.0
744,69.0,0.0,120.0,10.0,0.0
745,37.0,0.0,120.0,8.0,0.0
746,64.0,60.0,60.0,2.0,0.0
747,69.0,2.0,120.0,1.0,0.0
748,69.0,58.0,60.0,2.0,0.0
749,73.0,36.0,60.0,2.0,0.0
750,69.0,60.0,60.0,2.0,0.0
751,64.0,112.0,120.0,1.0,0.0
752,64.0,0.0,60.0,2.0,0.0
753,69.0,0.0,120.0,10.0,0.0
754,49.0,0.0,120.0,8.0,0.0
755,81.0,60.0,540.0,3.0,0.0
756,57.0,4.0,720.0,0.0,0.0
757,64.0,60.0,60.0,2.0,0.0
758,73.0,48.0,120.0,1.0,0.0
759,69.0,60.0,60.0,2.0,0.0
760,73.0,12.0,60.0,2.0,0.0
761,69.0,60.0,60.0,2.0,0.0
762,76.0,114.0,120.0,1.0,0.0
763,64.0,6.0,60.0,2.0,0.0
764,49.0,60.0,120.0,8.0,0.0
765,69.0,0.0,120.0,10.0,0.0
766,64.0,0.0,60.0,2.0,0.0
767,81.0,58.0,120.0,1.0,0.0
768,69.0,0.0,60.0,2.0,0.0
769,73.0,2.0,60.0,2.0,0.0
770,80.0,0.0,60.0,3.0,0.0
771,76.0,84.0,150.0,1.0,0.0
772,78.0,56.0,60.0,3.0,0.0
773,69.0,0.0,60.0,2.0,0.0
774,64.0,4.0,60.0,2.0,0.0
775,76.0,0.0,60.0,3.0,0.0
776,62.0,4.0,360.0,0.0,0.0
777,64.0,32.0,15.0,0.0,0.0
778,76.0,60.0,120.0,10.0,0.0
779,74.0,0.0,120.0,10.0,0.0
780,44.0,0.0,120.0,8.0,0.0
781,76.0,0.0,300.0,3.0,0.0
782,59.0,0.0,60.0,2.0,0.0
783,64.0,60.0,60.0,2.0,0.0
784,83.0,52.0,120.0,1.0,0.0
785,71.0,8.0,60.0,2.0,0.0
786,74.0,116.0,120.0,1.0,0.0
787,64.0,52.0,60.0,2.0,0.0
788,74.0,4.0,60.0,3.0,0.0
789,59.0,4.0,60.0,2.0,0.0
790,61.0,2.0,390.0,0.0,0.0
791,73.0,0.0,240.0,3.0,0.0
792,45.0,60.0,120.0,8.0,0.0
793,61.0,0.0,60.0,2.0,0.0
794,64.0,60.0,60.0,2.0,0.0
795,73.0,58.0,120.0,1.0,0.0
796,69.0,2.0,60.0,2.0,0.0
797,64.0,60.0,60.0,2.0,0.0
798,81.0,116.0,120.0,1.0,0.0
799,61.0,2.0,60.0,2.0,0.0
800,37.0,60.0,120.0,8.0,0.0
801,67.0,20.0,720.0,3.0,0.0
802,67.0,0.0,120.0,10.0,0.0
803,69.0,0.0,120.0,10.0,0.0
804,64.0,0.0,60.0,2.0,0.0
805,67.0,60.0,60.0,2.0,0.0
806,79.0,42.0,150.0,1.0,0.0
807,69.0,18.0,60.0,2.0,0.0
808,67.0,60.0,60.0,2.0,0.0
809,76.0,94.0,150.0,1.0,0.0
810,64.0,26.0,60.0,2.0,0.0
811,67.0,0.0,120.0,10.0,0.0
812,37.0,60.0,120.0,8.0,0.0
813,69.0,0.0,120.0,10.0,0.0
814,64.0,0.0,60.0,2.0,0.0
815,67.0,60.0,60.0,2.0,0.0
816,73.0,52.0,120.0,1.0,0.0
817,69.0,8.0,60.0,2.0,0.0
818,67.0,60.0,60.0,2.0,0.0
819,67.0,100.0,150.0,1.0,0.0
820,64.0,0.0,60.0,2.0,0.0
821,38.0,60.0,120.0,8.0,0.0
822,66.0,0.0,360.0,3.0,0.0
823,62.0,0.0,60.0,2.0,0.0
824,66.0,48.0,120.0,1.0,0.0
825,66.0,60.0,60.0,2.0,0.0
826,69.0,12.0,60.0,2.0,0.0
827,66.0,60.0,60.0,2.0,0.0
828,69.0,104.0,150.0,1.0,0.0
829,62.0,16.0,60.0,2.0,0.0
830,38.0,60.0,120.0,8.0,0.0
831,81.0,60.0,480.0,3.0,0.0
832,62.0,0.0,60.0,2.0,0.0
833,74.0,52.0,120.0,1.0,0.0
834,66.0,60.0,60.0,2.0,0.0
835,69.0,8.0,60.0,2.0,0.0
836,78.0,96.0,150.0,1.0,0.0
837,66.0,60.0,60.0,2.0,0.0
838,62.0,24.0,60.0,2.0,0.0
839,39.0,0.0,120.0,8.0,0.0
840,71.0,0.0,120.0,10.0,0.0
841,78.0,0.0,120.0,10.0,0.0
842,59.0,0.0,60.0,2.0,0.0
843,77.0,18.0,120.0,3.0,0.0
844,81.0,42.0,150.0,1.0,0.0
845,66.0,60.0,60.0,2.0,0.0
846,69.0,0.0,60.0,2.0,0.0
847,78.0,22.0,120.0,3.0,0.0
848,90.0,98.0,150.0,1.0,0.0
849,66.0,60.0,60.0,2.0,0.0
850,59.0,0.0,60.0,2.0,0.0
851,39.0,0.0,120.0,8.0,0.0
852,71.0,0.0,120.0,10.0,0.0
853,78.0,0.0,120.0,10.0,0.0
854,81.0,0.0,120.0,3.0,0.0
855,59.0,60.0,60.0,2.0,0.0
856,80.0,12.0,120.0,3.0,0.0
857,71.0,48.0,120.0,1.0,0.0
858,66.0,60.0,60.0,2.0,0.0
859,69.0,0.0,60.0,2.0,0.0
860,78.0,14.0,120.0,3.0,0.0
861,66.0,60.0,60.0,2.0,0.0
862,81.0,106.0,120.0,1.0,0.0
863,59.0,0.0,60.0,2.0,0.0
864,76.0,8.0,600.0,3.0,0.0
865,73.0,0.0,720.0,10.0,0.0
866,69.0,0.0,720.0,10.0,0.0
867,40.0,0.0,120.0,8.0,0.0
868,61.0,60.0,60.0,2.0,0.0
869,73.0,56.0,120.0,1.0,0.0
870,64.0,60.0,60.0,2.0,0.0
871,69.0,4.0,60.0,2.0,0.0
872,81.0,96.0,150.0,1.0,0.0
873,64.0,60.0,60.0,2.0,0.0
874,61.0,24.0,60.0,2.0,0.0
875,40.0,60.0,120.0,8.0,0.0
876,61.0,0.0,60.0,2.0,0.0
877,69.0,52.0,120.0,1.0,0.0
878,64.0,60.0,60.0,2.0,0.0
879,69.0,0.0,60.0,2.0,0.0
880,73.0,106.0,120.0,1.0,0.0
881,64.0,60.0,60.0,2.0,0.0
882,61.0,0.0,60.0,2.0,0.0
883,40.0,0.0,120.0,8.0,0.0
884,69.0,14.0,15.0,3.0,0.0
885,71.0,0.0,720.0,10.0,0.0
886,69.0,0.0,600.0,10.0,0.0
887,62.0,60.0,60.0,2.0,0.0
888,64.0,60.0,60.0,2.0,0.0
889,74.0,58.0,120.0,1.0,0.0
890,69.0,2.0,60.0,2.0,0.0
891,83.0,4.0,120.0,1.0,0.0
892,64.0,56.0,60.0,2.0,0.0
893,62.0,120.0,60.0,2.0,0.0
894,40.0,60.0,120.0,8.0,0.0
895,62.0,0.0,60.0,2.0,0.0
896,64.0,30.0,60.0,2.0,0.0
897,59.0,60.0,120.0,1.0,0.0
898,68.0,0.0,60.0,2.0,0.0
899,73.0,0.0,30.0,3.0,0.0
900,64.0,0.0,60.0,2.0,0.0
901,68.0,0.0,120.0,10.0,0.0
902,71.0,60.0,60.0,3.0,0.0
903,68.0,0.0,120.0,1.0,0.0
904,62.0,0.0,60.0,2.0,0.0
905,69.0,4.0,480.0,4.0,0.0
906,64.0,0.0,480.0,5.0,0.0
907,61.0,0.0,480.0,6.0,0.0
908,57.0,60.0,360.0,7.0,0.0
909,69.0,60.0,15.0,3.0,0.0
910,69.0,56.0,480.0,1.0,0.0
911,45.0,60.0,60.0,8.0,0.0
912,57.0,110.0,1800.0,0.0,0.0
913,61.0,60.0,60.0,2.0,0.0
914,64.0,60.0,60.0,2.0,0.0
915,69.0,60.0,60.0,2.0,0.0
916,64.0,60.0,60.0,2.0,0.0
917,61.0,0.0,60.0,2.0,0.0
918,56.0,0.0,360.0,7.0,0.0
919,44.0,60.0,60.0,8.0,0.0
920,61.0,0.0,60.0,2.0,0.0
921,71.0,52.0,120.0,1.0,0.0
922,64.0,60.0,60.0,2.0,0.0
923,59.0,8.0,120.0,6.0,0.0
924,62.0,0.0,120.0,5.0,0.0
925,71.0,0.0,120.0,4.0,0.0
926,69.0,0.0,60.0,2.0,0.0
927,73.0,0.0,120.0,1.0,0.0
928,73.0,0.0,120.0,4.0,0.0
929,61.0,0.0,120.0,5.0,0.0
930,64.0,60.0,60.0,2.0,0.0
931,61.0,0.0,60.0,2.0,0.0
932,74.0,60.0,480.0,4.0,0.0
933,69.0,0.0,360.0,5.0,0.0
934,42.0,60.0,60.0,8.0,0.0
935,74.0,12.0,480.0,1.0,0.0
936,57.0,60.0,15.0,6.0,0.0
937,62.0,0.0,60.0,2.0,0.0
938,66.0,60.0,60.0,2.0,0.0
939,59.0,0.0,120.0,6.0,0.0
940,69.0,60.0,60.0,2.0,0.0
941,66.0,60.0,60.0,2.0,0.0
942,61.0,0.0,120.0,6.0,0.0
943,54.0,0.0,15.0,7.0,0.0
944,62.0,60.0,60.0,2.0,0.0
945,69.0,0.0,480.0,5.0,0.0
946,47.0,0.0,360.0,7.0,0.0
947,35.0,48.0,60.0,8.0,0.0
948,62.0,0.0,360.0,6.0,0.0
949,62.0,0.0,60.0,2.0,0.0
950,76.0,60.0,120.0,1.0,0.0
951,76.0,0.0,120.0,4.0,0.0
952,66.0,60.0,60.0,2.0,0.0
953,69.0,0.0,60.0,2.0,0.0
954,78.0,2.0,120.0,1.0,0.0
955,78.0,0.0,120.0,4.0,0.0
956,66.0,58.0,60.0,2.0,0.0
957,62.0,120.0,60.0,2.0,0.0
958,76.0,52.0,480.0,1.0,0.0
959,40.0,0.0,120.0,8.0,0.0
960,76.0,10.0,360.0,4.0,0.0
961,59.0,0.0,360.0,6.0,0.0
962,59.0,60.0,60.0,2.0,0.0
963,68.0,0.0,120.0,5.0,0.0
964,64.0,60.0,60.0,2.0,0.0
965,69.0,60.0,60.0,2.0,0.0
966,64.0,60.0,60.0,2.0,0.0
967,66.0,0.0,120.0,5.0,0.0
968,59.0,0.0,60.0,2.0,0.0
969,52.0,0.0,15.0,7.0,0.0
970,76.0,0.0,120.0,4.0,0.0
971,59.0,24.0,240.0,6.0,0.0
972,40.0,0.0,120.0,8.0,0.0
973,56.0,36.0,270.0,0.0,0.0
974,59.0,8.0,60.0,2.0,0.0
975,64.0,42.0,60.0,2.0,0.0
976,78.0,0.0,120.0,4.0,0.0
977,78.0,18.0,90.0,1.0,0.0
978,68.0,0.0,60.0,2.0,0.0
979,74.0,108.0,150.0,1.0,0.0
980,64.0,46.0,60.0,2.0,0.0
981,52.0,0.0,15.0,7.0,0.0
982,68.0,0.0,15.0,5.0,0.0
983,74.0,0.0,120.0,4.0,0.0
984,59.0,14.0,90.0,0.0,0.0
985,59.0,12.0,60.0,2.0,0.0
986,59.0,100.0,390.0,0.0,0.0
987,68.0,0.0,15.0,5.0,0.0
988,59.0,0.0,15.0,6.0,0.0
989,45.0,60.0,120.0,8.0,0.0
990,57.0,0.0,240.0,7.0,0.0
991,76.0,16.0,240.0,4.0,0.0
992,76.0,14.0,240.0,1.0,0.0
993,59.0,0.0,60.0,2.0,0.0
994,64.0,60.0,60.0,2.0,0.0
995,68.0,0.0,60.0,2.0,0.0
996,45.0,20.0,120.0,7.0,0.0
997,59.0,0.0,15.0,6.0,0.0
998,68.0,0.0,15.0,5.0,0.0
999,74.0,12.0,30.0,4.0,0.0
1000,64.0,2.0,60.0,2.0,0.0
1001,74.0,18.0,30.0,1.0,0.0
1002,76.0,8.0,30.0,4.0,0.0
1003,76.0,20.0,30.0,1.0,0.0
1004,59.0,0.0,60.0,2.0,0.0
1005,74.0,0.0,60.0,4.0,0.0
1006,74.0,28.0,20.0,1.0,0.0
1007,76.0,2.0,40.0,1.0,0.0
1008,73.0,8.0,240.0,1.0,0.0
1009,69.0,0.0,120.0,5.0,0.0
1010,73.0,0.0,120.0,4.0,0.0
1011,33.0,0.0,120.0,8.0,0.0
1012,45.0,16.0,120.0,7.0,0.0
1013,57.0,0.0,240.0,6.0,0.0
1014,57.0,44.0,120.0,0.0,0.0
1015,61.0,0.0,60.0,2.0,0.0
1016,64.0,52.0,60.0,2.0,0.0
1017,69.0,60.0,60.0,2.0,0.0
1018,64.0,60.0,60.0,2.0,0.0
1019,61.0,120.0,60.0,2.0,0.0
1020,61.0,104.0,750.0,0.0,0.0
1021,57.0,60.0,240.0,7.0,0.0
1022,64.0,0.0,240.0,6.0,0.0
1023,81.0,2.0,600.0,1.0,0.0
1024,57.0,0.0,120.0,10.0,0.0
1025,45.0,60.0,120.0,8.0,0.0
1026,73.0,0.0,240.0,5.0,0.0
1027,61.0,0.0,60.0,2.0,0.0
1028,64.0,60.0,60.0,2.0,0.0
1029,69.0,0.0,60.0,2.0,0.0
1030,81.0,0.0,15.0,4.0,0.0
1031,64.0,60.0,60.0,2.0,0.0
1032,61.0,0.0,60.0,2.0,0.0
1033,73.0,0.0,15.0,5.0,0.0
1034,57.0,0.0,120.0,10.0,0.0
1035,81.0,0.0,15.0,4.0,0.0
1036,64.0,120.0,15.0,6.0,0.0
1037,45.0,0.0,120.0,8.0,0.0
1038,57.0,0.0,15.0,7.0,0.0
1039,61.0,60.0,60.0,2.0,0.0
1040,64.0,58.0,60.0,2.0,0.0
1041,69.0,0.0,60.0,2.0,0.0
1042,80.0,47.0,60.0,4.0,0.0
1043,64.0,0.0,60.0,6.0,0.0
1044,64.0,0.0,60.0,2.0,0.0
1045,80.0,2.0,60.0,1.0,0.0
1046,57.0,5.0,40.0,7.0,0.0
1047,64.0,0.0,60.0,6.0,0.0
1048,61.0,0.0,60.0,2.0,0.0
1049,81.0,0.0,60.0,4.0,0.0
1050,81.0,16.0,60.0,1.0,0.0
1051,73.0,0.0,15.0,5.0,0.0
1052,57.0,13.0,40.0,7.0,0.0
1053,66.0,16.0,240.0,6.0,0.0
1054,74.0,0.0,360.0,5.0,0.0
1055,78.0,0.0,120.0,10.0,0.0
1056,74.0,0.0,120.0,10.0,0.0
1057,80.0,0.0,240.0,4.0,0.0
1058,57.0,0.0,120.0,10.0,0.0
1059,45.0,60.0,120.0,8.0,0.0
1060,80.0,19.0,240.0,1.0,0.0
1061,62.0,106.0,360.0,0.0,0.0
1062,62.0,0.0,60.0,2.0,0.0
1063,66.0,60.0,60.0,2.0,0.0
1064,69.0,0.0,60.0,2.0,0.0
1065,66.0,0.0,60.0,2.0,0.0
1066,68.0,0.0,120.0,6.0,0.0
1067,78.0,1.0,30.0,4.0,0.0
1068,78.0,22.0,20.0,1.0,0.0
1069,80.0,26.0,30.0,4.0,0.0
1070,80.0,2.0,20.0,1.0,0.0
1071,62.0,14.0,60.0,2.0,0.0
1072,80.0,10.0,20.0,1.0,0.0
1073,78.0,12.0,20.0,4.0,0.0
1074,78.0,12.0,30.0,1.0,0.0
1075,80.0,0.0,30.0,4.0,0.0
1076,76.0,48.0,150.0,1.0,0.0
1077,76.0,0.0,120.0,4.0,0.0
1078,57.0,0.0,15.0,7.0,0.0
1079,69.0,0.0,120.0,6.0,0.0
1080,33.0,0.0,120.0,8.0,0.0
1081,73.0,0.0,120.0,5.0,0.0
1082,73.0,0.0,120.0,10.0,0.0
1083,76.0,0.0,120.0,10.0,0.0
1084,45.0,0.0,120.0,10.0,0.0
1085,61.0,112.0,360.0,0.0,0.0
1086,61.0,12.0,60.0,2.0,0.0
1087,64.0,60.0,60.0,2.0,0.0
1088,69.0,60.0,60.0,2.0,0.0
1089,64.0,60.0,60.0,2.0,0.0
1090,61.0,8.0,60.0,2.0,0.0
1091,72.0,16.0,720.0,5.0,0.0
1092,42.0,60.0,120.0,8.0,0.0
1093,75.0,0.0,720.0,4.0,0.0
1094,54.0,0.0,720.0,7.0,0.0
1095,57.0,0.0,720.0,6.0,0.0
1096,60.0,104.0,720.0,0.0,0.0
1097,75.0,4.0,660.0,1.0,0.0
1098,63.0,0.0,60.0,2.0,0.0
1099,66.0,60.0,60.0,2.0,0.0
1100,69.0,60.0,60.0,2.0,0.0
1101,66.0,60.0,60.0,2.0,0.0
1102,63.0,120.0,60.0,2.0,0.0
1103,42.0,0.0,120.0,8.0,0.0
1104,63.0,60.0,60.0,2.0,0.0
1105,66.0,60.0,60.0,2.0,0.0
1106,69.0,56.0,60.0,2.0,0.0
1107,66.0,48.0,60.0,2.0,0.0
1108,63.0,0.0,60.0,2.0,0.0
1109,83.0,12.0,40.0,1.0,0.0
1110,56.0,0.0,720.0,7.0,0.0
1111,44.0,60.0,120.0,8.0,0.0
1112,74.0,0.0,720.0,4.0,0.0
1113,64.0,0.0,720.0,6.0,0.0
1114,71.0,6.0,720.0,5.0,0.0
1115,83.0,11.0,300.0,1.0,0.0
1116,59.0,114.0,720.0,0.0,0.0
1117,62.0,0.0,60.0,2.0,0.0
1118,64.0,60.0,60.0,2.0,0.0
1119,71.0,60.0,60.0,2.0,0.0
1120,64.0,4.0,60.0,2.0,0.0
1121,81.0,15.0,15.0,1.0,0.0
1122,62.0,120.0,60.0,2.0,0.0
1123,80.0,22.0,15.0,1.0,0.0
1124,78.0,8.0,20.0,1.0,0.0
1125,76.0,0.0,15.0,1.0,0.0
1126,74.0,0.0,120.0,1.0,0.0
1127,44.0,0.0,120.0,8.0,0.0
1128,62.0,60.0,60.0,2.0,0.0
1129,64.0,60.0,60.0,2.0,0.0
1130,71.0,60.0,60.0,2.0,0.0
1131,64.0,60.0,60.0,2.0,0.0
1132,62.0,0.0,60.0,2.0,0.0
1133,73.0,12.0,660.0,1.0,0.0
1134,45.0,0.0,120.0,8.0,0.0
1135,69.0,0.0,720.0,5.0,0.0
1136,73.0,0.0,720.0,4.0,0.0
1137,57.0,112.0,1440.0,0.0,0.0
1138,57.0,120.0,720.0,7.0,0.0
1139,64.0,0.0,720.0,6.0,0.0
1140,61.0,60.0,60.0,2.0,0.0
1141,64.0,60.0,60.0,2.0,0.0
1142,69.0,60.0,60.0,2.0,0.0
1143,64.0,60.0,60.0,2.0,0.0
1144,61.0,120.0,60.0,2.0,0.0
1145,45.0,0.0,120.0,8.0,0.0
1146,61.0,60.0,60.0,2.0,0.0
1147,64.0,60.0,60.0,2.0,0.0
1148,69.0,48.0,60.0,2.0,0.0
1149,64.0,54.0,60.0,2.0,0.0
1150,81.0,6.0,60.0,1.0,0.0
1151,61.0,0.0,60.0,2.0,0.0
1152,39.0,60.0,120.0,8.0,0.0
1153,51.0,0.0,360.0,7.0,0.0
1154,69.0,0.0,360.0,5.0,0.0
1155,81.0,15.0,330.0,1.0,0.0
1156,60.0,0.0,60.0,2.0,0.0
1157,66.0,60.0,60.0,2.0,0.0
1158,69.0,60.0,60.0,2.0,0.0
1159,66.0,29.0,60.0,2.0,0.0
1160,60.0,0.0,60.0,2.0,0.0
1161,79.0,7.0,30.0,1.0,0.0
1162,78.0,6.0,30.0,1.0,0.0
1163,76.0,3.0,20.0,1.0,0.0
1164,74.0,113.0,30.0,1.0,0.0
1165,66.0,0.0,15.0,6.0,0.0
1166,72.0,51.0,120.0,1.0,0.0
1167,72.0,7.0,15.0,4.0,0.0
1168,51.0,0.0,240.0,7.0,0.0
1169,39.0,0.0,120.0,8.0,0.0
1170,60.0,9.0,60.0,2.0,0.0
1171,66.0,60.0,60.0,2.0,0.0
1172,69.0,0.0,60.0,2.0,0.0
1173,66.0,60.0,60.0,2.0,0.0
1174,51.0,0.0,120.0,7.0,0.0
1175,69.0,60.0,15.0,5.0,0.0
1176,66.0,0.0,15.0,6.0,0.0
1177,72.0,0.0,15.0,4.0,0.0
1178,60.0,8.0,60.0,2.0,0.0
1179,52.0,60.0,600.0,7.0,0.0
1180,72.0,0.0,480.0,5.0,0.0
1181,76.0,0.0,480.0,4.0,0.0
1182,40.0,60.0,120.0,8.0,0.0
1183,64.0,0.0,600.0,6.0,0.0
1184,52.0,42.0,870.0,0.0,0.0
1185,76.0,46.0,480.0,1.0,0.0
1186,60.0,0.0,60.0,2.0,0.0
1187,64.0,60.0,60.0,2.0,0.0
1188,69.0,60.0,60.0,2.0,0.0
1189,64.0,60.0,60.0,2.0,0.0
1190,60.0,120.0,60.0,2.0,0.0
1191,40.0,0.0,120.0,8.0,0.0
1192,60.0,14.0,60.0,2.0,0.0
1193,74.0,0.0,60.0,4.0,0.0
1194,71.0,0.0,60.0,5.0,0.0
1195,64.0,15.0,60.0,2.0,0.0
1196,74.0,42.0,60.0,1.0,0.0
1197,72.0,3.0,60.0,1.0,0.0
1198,72.0,0.0,60.0,4.0,0.0
1199,69.0,0.0,60.0,5.0,0.0
1200,69.0,0.0,60.0,2.0,0.0
1201,71.0,55.0,60.0,1.0,0.0
1202,68.0,0.0,60.0,5.0,0.0
1203,71.0,2.0,60.0,4.0,0.0
1204,64.0,0.0,60.0,2.0,0.0
1205,72.0,3.0,60.0,1.0,0.0
1206,60.0,0.0,60.0,2.0,0.0
1207,69.0,96.0,60.0,5.0,0.0
1208,72.0,0.0,60.0,4.0,0.0
1209,71.0,24.0,90.0,1.0,0.0
1210,68.0,0.0,240.0,5.0,0.0
1211,71.0,0.0,240.0,4.0,0.0
1212,52.0,0.0,15.0,7.0,0.0
1213,40.0,0.0,120.0,8.0,0.0
1214,64.0,0.0,15.0,6.0,0.0
1215,64.0,18.0,60.0,2.0,0.0
1216,71.0,2.0,120.0,1.0,0.0
1217,68.0,60.0,60.0,2.0,0.0
1218,59.0,54.0,120.0,0.0,0.0
1219,64.0,4.0,60.0,2.0,0.0
1220,73.0,53.0,120.0,1.0,0.0
1221,69.0,60.0,60.0,2.0,0.0
1222,61.0,5.0,120.0,0.0,0.0
1223,64.0,2.0,60.0,2.0,0.0
1224,74.0,7.0,120.0,1.0,0.0
1225,71.0,60.0,60.0,2.0,0.0
1226,62.0,44.0,150.0,0.0,0.0
1227,64.0,9.0,60.0,2.0,0.0
1228,73.0,11.0,120.0,1.0,0.0
1229,69.0,60.0,60.0,2.0,0.0
1230,61.0,46.0,120.0,0.0,0.0
1231,64.0,3.0,60.0,2.0,0.0
1232,71.0,3.0,120.0,1.0,0.0
1233,68.0,60.0,60.0,2.0,0.0
1234,59.0,116.0,120.0,0.0,0.0
1235,64.0,1.0,60.0,2.0,0.0
1236,57.0,21.0,720.0,0.0,0.0
1237,69.0,0.0,360.0,4.0,0.0
1238,49.0,120.0,360.0,7.0,0.0
1239,37.0,0.0,120.0,8.0,0.0
1240,69.0,58.0,480.0,1.0,0.0
1241,64.0,60.0,60.0,2.0,0.0
1242,69.0,60.0,60.0,2.0,0.0
1243,73.0,60.0,60.0,2.0,0.0
1244,69.0,60.0,60.0,2.0,0.0
1245,64.0,0.0,60.0,2.0,0.0
1246,37.0,0.0,120.0,8.0,0.0
1247,69.0,0.0,120.0,4.0,0.0
1248,64.0,0.0,15.0,6.0,0.0
1249,69.0,0.0,15.0,5.0,0.0
1250,49.0,0.0,240.0,7.0,0.0
1251,64.0,2.0,60.0,2.0,0.0
1252,76.0,4.0,120.0,1.0,0.0
1253,76.0,0.0,120.0,4.0,0.0
1254,69.0,56.0,60.0,2.0,0.0
1255,73.0,60.0,60.0,2.0,0.0
1256,73.0,24.0,120.0,1.0,0.0
1257,73.0,0.0,120.0,4.0,0.0
1258,69.0,0.0,15.0,5.0,0.0
1259,69.0,36.0,60.0,2.0,0.0
1260,49.0,0.0,120.0,7.0,0.0
1261,64.0,0.0,120.0,6.0,0.0
1262,64.0,0.0,60.0,2.0,0.0
1263,56.0,108.0,390.0,0.0,0.0
1264,50.0,0.0,360.0,7.0,0.0
1265,73.0,5.0,30.0,1.0,0.0
1266,38.0,0.0,120.0,8.0,0.0
1267,73.0,90.0,30.0,4.0,0.0
1268,65.0,0.0,360.0,6.0,0.0
1269,68.0,0.0,360.0,5.0,0.0
1270,71.0,10.0,330.0,1.0,0.0
1271,71.0,2.0,330.0,4.0,0.0
1272,65.0,60.0,60.0,2.0,0.0
1273,68.0,60.0,60.0,2.0,0.0
1274,71.0,60.0,60.0,2.0,0.0
1275,68.0,60.0,60.0,2.0,0.0
1276,65.0,0.0,60.0,2.0,0.0
1277,69.0,116.0,360.0,1.0,0.0
1278,49.0,0.0,360.0,7.0,0.0
1279,69.0,0.0,360.0,5.0,0.0
1280,37.0,60.0,120.0,8.0,0.0
1281,69.0,0.0,360.0,4.0,0.0
1282,64.0,0.0,360.0,6.0,0.0
1283,57.0,18.0,330.0,0.0,0.0
1284,64.0,0.0,60.0,2.0,0.0
1285,69.0,60.0,60.0,2.0,0.0
1286,73.0,60.0,60.0,2.0,0.0
1287,69.0,42.0,60.0,2.0,0.0
1288,64.0,4.0,60.0,2.0,0.0
1289,64.0,0.0,600.0,6.0,0.0
1290,49.0,0.0,120.0,8.0,0.0
1291,81.0,8.0,540.0,4.0,0.0
1292,57.0,46.0,480.0,0.0,0.0
1293,81.0,52.0,540.0,1.0,0.0
1294,64.0,60.0,60.0,2.0,0.0
1295,69.0,60.0,60.0,2.0,0.0
1296,73.0,60.0,60.0,2.0,0.0
1297,69.0,60.0,60.0,2.0,0.0
1298,64.0,120.0,60.0,2.0,0.0
1299,49.0,0.0,120.0,8.0,0.0
1300,64.0,14.0,60.0,2.0,0.0
1301,69.0,0.0,60.0,2.0,0.0
1302,61.0,48.0,120.0,0.0,0.0
1303,80.0,6.0,60.0,1.0,0.0
1304,80.0,6.0,60.0,4.0,0.0
1305,73.0,0.0,60.0,2.0,0.0
1306,64.0,22.0,90.0,0.0,0.0
1307,78.0,33.0,60.0,1.0,0.0
1308,61.0,0.0,15.0,7.0,0.0
1309,69.0,0.0,15.0,5.0,0.0
1310,69.0,4.0,60.0,2.0,0.0
1311,78.0,0.0,60.0,4.0,0.0
1312,76.0,1.0,40.0,1.0,0.0
1313,76.0,0.0,60.0,4.0,0.0
1314,64.0,0.0,60.0,2.0,0.0
1315,44.0,0.0,120.0,8.0,0.0
1316,64.0,0.0,15.0,6.0,0.0
1317,71.0,0.0,300.0,5.0,0.0
1318,64.0,3.0,30.0,0.0,0.0
1319,76.0,9.0,30.0,1.0,0.0
1320,76.0,80.0,30.0,4.0,0.0
1321,62.0,112.0,360.0,0.0,0.0
1322,74.0,3.0,330.0,1.0,0.0
1323,74.0,0.0,270.0,4.0,0.0
1324,59.0,60.0,60.0,2.0,0.0
1325,64.0,60.0,60.0,2.0,0.0
1326,71.0,60.0,60.0,2.0,0.0
1327,64.0,0.0,60.0,2.0,0.0
1328,64.0,0.0,15.0,6.0,0.0
1329,71.0,0.0,60.0,5.0,0.0
1330,59.0,8.0,60.0,2.0,0.0
1331,56.0,51.0,15.0,7.0,0.0
1332,74.0,6.0,40.0,4.0,0.0
1333,73.0,10.0,360.0,1.0,0.0
1334,45.0,0.0,120.0,8.0,0.0
1335,57.0,28.0,300.0,7.0,0.0
1336,64.0,0.0,15.0,6.0,0.0
1337,73.0,0.0,300.0,4.0,0.0
1338,69.0,0.0,300.0,5.0,0.0
1339,61.0,22.0,330.0,0.0,0.0
1340,61.0,60.0,60.0,2.0,0.0
1341,64.0,60.0,60.0,2.0,0.0
1342,69.0,60.0,60.0,2.0,0.0
1343,64.0,0.0,60.0,2.0,0.0
1344,61.0,120.0,60.0,2.0,0.0
1345,79.0,17.0,360.0,1.0,0.0
1346,55.0,16.0,720.0,0.0,0.0
1347,61.0,0.0,720.0,7.0,0.0
1348,64.0,120.0,720.0,6.0,0.0
1349,79.0,0.0,720.0,4.0,0.0
1350,79.0,0.0,120.0,10.0,0.0
1351,49.0,0.0,120.0,10.0,0.0
1352,69.0,0.0,720.0,5.0,0.0
1353,69.0,60.0,120.0,10.0,0.0
1354,37.0,0.0,120.0,8.0,0.0
1355,64.0,0.0,60.0,2.0,0.0
1356,67.0,60.0,60.0,2.0,0.0
1357,69.0,60.0,60.0,2.0,0.0
1358,67.0,43.0,60.0,2.0,0.0
1359,64.0,120.0,60.0,2.0,0.0
1360,67.0,0.0,360.0,1.0,0.0
1361,37.0,0.0,120.0,8.0,0.0
1362,49.0,0.0,120.0,10.0,0.0
1363,69.0,60.0,120.0,10.0,0.0
1364,79.0,0.0,120.0,10.0,0.0
1365,64.0,0.0,60.0,2.0,0.0
1366,67.0,60.0,60.0,2.0,0.0
1367,69.0,60.0,60.0,2.0,0.0
1368,67.0,44.0,60.0,2.0,0.0
1369,64.0,0.0,60.0,2.0,0.0
1370,54.0,16.0,720.0,0.0,0.0
1371,66.0,113.0,360.0,1.0,0.0
1372,62.0,0.0,720.0,7.0,0.0
1373,69.0,0.0,720.0,5.0,0.0
1374,50.0,0.0,120.0,10.0,0.0
1375,38.0,60.0,120.0,8.0,0.0
1376,78.0,0.0,720.0,4.0,0.0
1377,62.0,0.0,720.0,6.0,0.0
1378,62.0,0.0,60.0,2.0,0.0
1379,66.0,60.0,60.0,2.0,0.0
1380,69.0,60.0,60.0,2.0,0.0
1381,66.0,60.0,60.0,2.0,0.0
1382,62.0,7.0,60.0,2.0,0.0
1383,78.0,118.0,360.0,1.0,0.0
1384,38.0,0.0,120.0,8.0,0.0
1385,50.0,60.0,120.0,10.0,0.0
1386,62.0,0.0,60.0,2.0,0.0
1387,66.0,60.0,60.0,2.0,0.0
1388,69.0,60.0,60.0,2.0,0.0
1389,66.0,44.0,60.0,2.0,0.0
1390,62.0,2.0,60.0,2.0,0.0
1391,81.0,3.0,480.0,1.0,0.0
1392,81.0,60.0,480.0,4.0,0.0
1393,63.0,3.0,720.0,7.0,0.0
1394,66.0,0.0,480.0,6.0,0.0
1395,71.0,0.0,720.0,5.0,0.0
1396,39.0,0.0,120.0,8.0,0.0
1397,59.0,60.0,60.0,2.0,0.0
1398,66.0,60.0,60.0,2.0,0.0
1399,69.0,60.0,60.0,2.0,0.0
1400,66.0,60.0,60.0,2.0,0.0
1401,59.0,117.0,60.0,2.0,0.0
1402,39.0,0.0,120.0,8.0,0.0
1403,59.0,0.0,60.0,2.0,0.0
1404,66.0,60.0,60.0,2.0,0.0
1405,80.0,0.0,120.0,4.0,0.0
1406,68.0,12.0,120.0,6.0,0.0
1407,80.0,48.0,120.0,1.0,0.0
1408,69.0,0.0,60.0,2.0,0.0
1409,78.0,117.0,120.0,1.0,0.0
1410,66.0,60.0,60.0,2.0,0.0
1411,78.0,0.0,120.0,4.0,0.0
1412,69.0,0.0,120.0,6.0,0.0
1413,59.0,0.0,60.0,2.0,0.0
1414,76.0,0.0,480.0,4.0,0.0
1415,73.0,0.0,360.0,5.0,0.0
1416,64.0,0.0,720.0,7.0,0.0
1417,40.0,0.0,120.0,8.0,0.0
1418,69.0,0.0,360.0,6.0,0.0
1419,76.0,2.0,480.0,1.0,0.0
1420,61.0,60.0,60.0,2.0,0.0
1421,64.0,60.0,60.0,2.0,0.0
1422,69.0,60.0,60.0,2.0,0.0
1423,64.0,60.0,60.0,2.0,0.0
1424,61.0,118.0,60.0,2.0,0.0
1425,64.0,0.0,960.0,5.0,0.0
1426,40.0,0.0,120.0,8.0,0.0
1427,61.0,0.0,360.0,6.0,0.0
1428,61.0,60.0,60.0,2.0,0.0
1429,74.0,58.0,60.0,1.0,0.0
1430,64.0,0.0,60.0,2.0,0.0
1431,74.0,2.0,60.0,4.0,0.0
1432,73.0,56.0,60.0,1.0,0.0
1433,69.0,4.0,60.0,2.0,0.0
1434,73.0,0.0,60.0,4.0,0.0
1435,71.0,49.0,60.0,1.0,0.0
1436,71.0,1.0,60.0,4.0,0.0
1437,64.0,0.0,60.0,2.0,0.0
1438,69.0,10.0,60.0,1.0,0.0
1439,61.0,120.0,60.0,2.0,0.0
1440,69.0,0.0,15.0,4.0,0.0
1441,40.0,0.0,120.0,8.0,0.0
1442,52.0,1.0,600.0,7.0,0.0
1443,59.0,120.0,360.0,6.0,0.0
1444,57.0,2.0,600.0,0.0,0.0
1445,69.0,18.0,600.0,1.0,0.0
1446,59.0,60.0,60.0,2.0,0.0
1447,64.0,60.0,60.0,2.0,0.0
1448,69.0,60.0,60.0,2.0,0.0
1449,64.0,60.0,60.0,2.0,0.0
1450,59.0,0.0,60.0,2.0,0.0
1451,71.0,0.0,360.0,10.0,0.0
1452,74.0,0.0,360.0,10.0,0.0
1453,40.0,0.0,240.0,8.0,0.0
1454,69.0,0.0,240.0,10.0,0.0
1455,62.0,118.0,360.0,6.0,0.0
1456,52.0,0.0,240.0,10.0,0.0
1457,59.0,60.0,60.0,2.0,0.0
1458,64.0,30.0,60.0,2.0,0.0
1459,69.0,0.0,60.0,2.0,0.0
1460,73.0,3.0,30.0,4.0,0.0
1461,73.0,0.0,30.0,1.0,0.0
1462,61.0,36.0,30.0,0.0,0.0
1463,68.0,0.0,60.0,2.0,0.0
1464,53.0,0.0,120.0,7.0,0.0
1465,68.0,0.0,120.0,5.0,0.0
1466,53.0,0.0,120.0,10.0,0.0
1467,41.0,0.0,120.0,8.0,0.0
1468,68.0,0.0,120.0,10.0,0.0
1469,71.0,59.0,60.0,4.0,0.0
1470,71.0,0.0,120.0,1.0,0.0
1471,59.0,0.0,90.0,0.0,0.0
1472,69.0,1.0,60.0,4.0,0.0
1473,62.0,0.0,60.0,2.0,0.0
1474,57.0,14.0,240.0,0.0,0.0
1475,54.0,60.0,120.0,10.0,0.0
1476,42.0,0.0,120.0,8.0,0.0
1477,69.0,2.0,120.0,1.0,0.0
1478,81.0,0.0,1560.0,3.0,0.0
1479,69.0,0.0,120.0,4.0,0.0
1480,69.0,0.0,120.0,5.0,0.0
1481,61.0,0.0,120.0,6.0,0.0
1482,54.0,0.0,120.0,7.0,0.0
1483,61.0,0.0,60.0,2.0,0.0
1484,66.0,46.0,60.0,2.0,0.0
1485,69.0,53.0,120.0,1.0,0.0
1486,69.0,7.0,60.0,2.0,0.0
1487,73.0,10.0,120.0,1.0,0.0
1488,66.0,50.0,60.0,2.0,0.0
1489,61.0,120.0,60.0,2.0,0.0
1490,42.0,0.0,120.0,8.0,0.0
1491,61.0,60.0,60.0,2.0,0.0
1492,78.0,56.0,120.0,1.0,0.0
1493,66.0,60.0,60.0,2.0,0.0
1494,69.0,4.0,60.0,2.0,0.0
1495,66.0,56.0,60.0,2.0,0.0
1496,81.0,4.0,120.0,1.0,0.0
1497,61.0,120.0,60.0,2.0,0.0
1498,67.0,0.0,720.0,4.0,0.0
1499,52.0,0.0,720.0,7.0,0.0
1500,40.0,0.0,120.0,8.0,0.0
1501,57.0,0.0,1440.0,6.0,0.0
1502,61.0,0.0,720.0,5.0,0.0
1503,61.0,60.0,60.0,2.0,0.0
1504,64.0,60.0,60.0,2.0,0.0
1505,69.0,47.0,120.0,1.0,0.0
1506,67.0,13.0,60.0,2.0,0.0
1507,73.0,116.0,120.0,1.0,0.0
1508,64.0,60.0,60.0,2.0,0.0
1509,61.0,4.0,60.0,2.0,0.0
1510,40.0,60.0,120.0,8.0,0.0
1511,61.0,0.0,60.0,2.0,0.0
1512,64.0,60.0,60.0,2.0,0.0
1513,76.0,48.0,120.0,1.0,0.0
1514,67.0,12.0,60.0,2.0,0.0
1515,81.0,107.0,120.0,1.0,0.0
1516,64.0,60.0,60.0,2.0,0.0
1517,61.0,13.0,60.0,2.0,0.0
1518,62.0,0.0,720.0,5.0,0.0
1519,50.0,0.0,720.0,7.0,0.0
1520,38.0,0.0,120.0,8.0,0.0
1521,66.0,2.0,720.0,4.0,0.0
1522,62.0,60.0,60.0,2.0,0.0
1523,66.0,56.0,60.0,2.0,0.0
1524,77.0,0.0,120.0,3.0,0.0
1525,81.0,4.0,120.0,1.0,0.0
1526,69.0,60.0,60.0,2.0,0.0
1527,66.0,60.0,60.0,2.0,0.0
1528,90.0,110.0,120.0,1.0,0.0
1529,78.0,10.0,120.0,3.0,0.0
1530,62.0,0.0,60.0,2.0,0.0
1531,81.0,0.0,120.0,3.0,0.0
1532,38.0,60.0,120.0,8.0,0.0
1533,62.0,0.0,60.0,2.0,0.0
1534,66.0,60.0,60.0,2.0,0.0
1535,81.0,48.0,120.0,1.0,0.0
1536,77.0,12.0,120.0,3.0,0.0
1537,69.0,0.0,60.0,2.0,0.0
1538,78.0,0.0,120.0,3.0,0.0
1539,90.0,58.0,120.0,1.0,0.0
1540,66.0,60.0,60.0,2.0,0.0
1541,62.0,0.0,60.0,2.0,0.0
1542,66.0,0.0,720.0,5.0,0.0
1543,51.0,3.0,720.0,7.0,0.0
1544,71.0,60.0,60.0,3.0,0.0
1545,39.0,60.0,120.0,8.0,0.0
1546,59.0,0.0,720.0,6.0,0.0
1547,73.0,0.0,60.0,3.0,0.0
1548,59.0,0.0,60.0,2.0,0.0
1549,90.0,43.0,150.0,1.0,0.0
1550,75.0,0.0,60.0,3.0,0.0
1551,66.0,60.0,60.0,2.0,0.0
1552,76.0,17.0,60.0,3.0,0.0
1553,69.0,0.0,60.0,2.0,0.0
1554,66.0,0.0,60.0,2.0,0.0
1555,78.0,56.0,60.0,3.0,0.0
1556,81.0,4.0,120.0,1.0,0.0
1557,59.0,60.0,60.0,2.0,0.0
1558,80.0,0.0,60.0,3.0,0.0
1559,39.0,0.0,120.0,8.0,0.0
1560,81.0,60.0,60.0,3.0,0.0
1561,80.0,60.0,60.0,3.0,0.0
1562,59.0,0.0,60.0,2.0,0.0
1563,90.0,47.0,120.0,1.0,0.0
1564,83.0,60.0,60.0,3.0,0.0
1565,66.0,0.0,60.0,2.0,0.0
1566,81.0,13.0,60.0,3.0,0.0
1567,69.0,0.0,60.0,2.0,0.0
1568,80.0,60.0,60.0,3.0,0.0
1569,81.0,117.0,120.0,1.0,0.0
1570,66.0,0.0,60.0,2.0,0.0
1571,78.0,0.0,60.0,3.0,0.0
1572,59.0,0.0,60.0,2.0,0.0
1573,69.0,0.0,15.0,4.0,0.0
1574,52.0,0.0,1440.0,7.0,0.0
1575,40.0,0.0,120.0,8.0,0.0
1576,61.0,120.0,720.0,6.0,0.0
1577,64.0,0.0,1440.0,5.0,0.0
1578,76.0,0.0,540.0,3.0,0.0
1579,61.0,60.0,60.0,2.0,0.0
1580,64.0,60.0,60.0,2.0,0.0
1581,73.0,50.0,120.0,1.0,0.0
1582,69.0,10.0,60.0,2.0,0.0
1583,88.0,113.0,120.0,1.0,0.0
1584,64.0,60.0,60.0,2.0,0.0
1585,61.0,7.0,60.0,2.0,0.0
1586,40.0,0.0,120.0,8.0,0.0
1587,61.0,60.0,60.0,2.0,0.0
1588,88.0,1.0,120.0,1.0,0.0
1589,64.0,30.0,60.0,2.0,0.0
1590,69.0,30.0,60.0,2.0,0.0
1591,78.0,21.0,30.0,3.0,0.0
1592,76.0,8.0,30.0,3.0,0.0
1593,74.0,30.0,30.0,3.0,0.0
1594,64.0,0.0,60.0,2.0,0.0
1595,81.0,19.0,90.0,1.0,0.0
1596,73.0,30.0,30.0,3.0,0.0
1597,61.0,0.0,60.0,2.0,0.0
1598,71.0,11.0,30.0,3.0,0.0
1599,69.0,0.0,30.0,3.0,0.0
1600,71.0,20.0,660.0,3.0,0.0
1601,40.0,60.0,120.0,8.0,0.0
1602,62.0,0.0,720.0,6.0,0.0
1603,59.0,0.0,60.0,2.0,0.0
1604,64.0,56.0,60.0,2.0,0.0
1605,68.0,0.0,120.0,4.0,0.0
1606,76.0,4.0,120.0,1.0,0.0
1607,69.0,60.0,60.0,2.0,0.0
1608,86.0,120.0,120.0,1.0,0.0
1609,64.0,60.0,60.0,2.0,0.0
1610,66.0,0.0,120.0,4.0,0.0
1611,59.0,0.0,60.0,2.0,0.0
1612,40.0,30.0,120.0,8.0,0.0
1613,69.0,0.0,120.0,4.0,0.0
1614,62.0,0.0,60.0,2.0,0.0
1615,86.0,1.0,120.0,1.0,0.0
1616,64.0,30.0,60.0,2.0,0.0
1617,69.0,30.0,30.0,4.0,0.0
1618,68.0,0.0,30.0,4.0,0.0
1619,69.0,29.0,30.0,4.0,0.0
1620,68.0,0.0,60.0,2.0,0.0
1621,68.0,30.0,30.0,4.0,0.0
1622,69.0,30.0,30.0,4.0,0.0
1623,80.0,99.0,120.0,1.0,0.0
1624,64.0,10.0,60.0,2.0,0.0
1625,68.0,0.0,30.0,4.0,0.0
1626,66.0,12.0,30.0,4.0,0.0
1627,62.0,5.0,60.0,2.0,0.0
1628,69.0,18.0,20.0,3.0,0.0
1629,68.0,0.0,30.0,4.0,0.0
1630,71.0,3.0,20.0,3.0,0.0
1631,69.0,60.0,240.0,3.0,0.0
1632,81.0,13.0,120.0,1.0,0.0
1633,64.0,60.0,120.0,5.0,0.0
1634,64.0,60.0,1500.0,0.0,0.0
1635,61.0,0.0,120.0,6.0,0.0
1636,69.0,0.0,120.0,4.0,0.0
1637,45.0,0.0,120.0,8.0,0.0
1638,57.0,0.0,120.0,7.0,0.0
1639,61.0,0.0,60.0,2.0,0.0
1640,64.0,60.0,60.0,2.0,0.0
1641,69.0,0.0,60.0,2.0,0.0
1642,64.0,60.0,60.0,2.0,0.0
1643,61.0,120.0,60.0,2.0,0.0
1644,52.0,0.0,120.0,8.0,0.0
1645,86.0,47.0,240.0,1.0,0.0
1646,71.0,60.0,60.0,2.0,0.0
1647,74.0,60.0,60.0,2.0,0.0
1648,76.0,13.0,60.0,2.0,0.0
1649,74.0,60.0,60.0,2.0,0.0
1650,80.0,119.0,120.0,1.0,0.0
1651,71.0,1.0,60.0,2.0,0.0
1652,45.0,1.0,120.0,8.0,0.0
1653,81.0,59.0,120.0,1.0,0.0
1654,69.0,0.0,60.0,2.0,0.0
1655,73.0,60.0,60.0,2.0,0.0
1656,76.0,60.0,60.0,2.0,0.0
1657,73.0,60.0,60.0,2.0,0.0
1658,69.0,120.0,60.0,2.0,0.0
1659,62.0,60.0,360.0,6.0,0.0
1660,71.0,0.0,360.0,4.0,0.0
1661,40.0,60.0,120.0,8.0,0.0
1662,74.0,47.0,240.0,1.0,0.0
1663,52.0,0.0,360.0,7.0,0.0
1664,59.0,0.0,60.0,2.0,0.0
1665,62.0,60.0,60.0,2.0,0.0
1666,64.0,13.0,60.0,2.0,0.0
1667,68.0,3.0,120.0,1.0,0.0
1668,62.0,57.0,60.0,2.0,0.0
1669,59.0,0.0,60.0,2.0,0.0
1670,64.0,0.0,15.0,5.0,0.0
1671,61.0,60.0,120.0,6.0,0.0
1672,69.0,0.0,120.0,1.0,0.0
1673,33.0,0.0,120.0,8.0,0.0
1674,45.0,0.0,120.0,7.0,0.0
1675,69.0,0.0,120.0,4.0,0.0
1676,61.0,0.0,60.0,2.0,0.0
1677,64.0,60.0,60.0,2.0,0.0
1678,69.0,60.0,60.0,2.0,0.0
1679,64.0,60.0,60.0,2.0,0.0
1680,61.0,120.0,60.0,2.0,0.0
1681,45.0,0.0,120.0,8.0,0.0
1682,64.0,41.0,150.0,1.0,0.0
1683,73.0,6.0,120.0,1.0,0.0
1684,61.0,13.0,60.0,2.0,0.0
1685,64.0,60.0,60.0,2.0,0.0
1686,69.0,60.0,60.0,2.0,0.0
1687,64.0,60.0,60.0,2.0,0.0
1688,69.0,0.0,120.0,2.0,0.0
1689,69.0,0.0,120.0,1.0,0.0
1690,61.0,120.0,15.0,2.0,0.0
1691,61.0,0.0,120.0,1.0,0.0
1692,33.0,0.0,120.0,8.0,0.0
