,note,step,duration,channel,velocity
0,59.0,0.0,120.0,13.0,0.0
1,62.0,0.0,120.0,12.0,0.0
2,66.0,0.0,120.0,11.0,0.0
3,71.0,0.0,120.0,10.0,0.0
4,71.0,30.0,150.0,4.0,0.0
5,59.0,30.0,30.0,5.0,0.0
6,62.0,0.0,60.0,6.0,0.0
7,71.0,0.0,180.0,15.0,0.0
8,66.0,0.0,180.0,15.0,0.0
9,74.0,0.0,180.0,15.0,0.0
10,59.0,0.0,60.0,15.0,0.0
11,62.0,30.0,30.0,5.0,0.0
12,59.0,0.0,60.0,7.0,0.0
13,47.0,0.0,60.0,8.0,0.0
14,66.0,30.0,30.0,5.0,0.0
15,71.0,0.0,60.0,10.0,0.0
16,66.0,0.0,60.0,6.0,0.0
17,66.0,0.0,60.0,11.0,0.0
18,71.0,30.0,150.0,5.0,0.0
19,62.0,0.0,60.0,12.0,0.0
20,59.0,0.0,60.0,13.0,0.0
21,50.0,0.0,60.0,8.0,0.0
22,62.0,30.0,60.0,15.0,0.0
23,62.0,0.0,60.0,7.0,0.0
24,62.0,0.0,30.0,4.0,0.0
25,66.0,0.0,60.0,11.0,0.0
26,59.0,0.0,60.0,15.0,0.0
27,62.0,0.0,60.0,6.0,0.0
28,59.0,0.0,60.0,7.0,0.0
29,59.0,30.0,60.0,13.0,0.0
30,66.0,30.0,30.0,4.0,0.0
31,47.0,0.0,60.0,8.0,0.0
32,71.0,0.0,60.0,10.0,0.0
33,62.0,0.0,60.0,12.0,0.0
34,71.0,0.0,30.0,4.0,0.0
35,71.0,30.0,120.0,11.0,0.0
36,74.0,30.0,150.0,4.0,0.0
37,59.0,0.0,120.0,13.0,0.0
38,74.0,0.0,120.0,10.0,0.0
39,66.0,0.0,120.0,12.0,0.0
40,62.0,30.0,30.0,5.0,0.0
41,66.0,30.0,30.0,5.0,0.0
42,59.0,0.0,60.0,7.0,0.0
43,66.0,0.0,180.0,15.0,0.0
44,62.0,0.0,60.0,6.0,0.0
45,71.0,0.0,180.0,15.0,0.0
46,74.0,0.0,180.0,15.0,0.0
47,59.0,0.0,60.0,15.0,0.0
48,47.0,0.0,60.0,8.0,0.0
49,71.0,0.0,30.0,5.0,0.0
50,71.0,0.0,120.0,11.0,0.0
51,62.0,0.0,60.0,7.0,0.0
52,66.0,0.0,60.0,6.0,0.0
53,74.0,0.0,120.0,5.0,0.0
54,50.0,30.0,60.0,8.0,0.0
55,59.0,0.0,120.0,13.0,0.0
56,62.0,0.0,60.0,15.0,0.0
57,74.0,30.0,120.0,10.0,0.0
58,66.0,0.0,120.0,12.0,0.0
59,66.0,0.0,30.0,4.0,0.0
60,47.0,0.0,60.0,8.0,0.0
61,62.0,0.0,60.0,6.0,0.0
62,59.0,0.0,60.0,15.0,0.0
63,59.0,0.0,60.0,7.0,0.0
64,71.0,30.0,30.0,4.0,0.0
65,74.0,0.0,30.0,4.0,0.0
66,78.0,0.0,240.0,10.0,0.0
67,78.0,30.0,150.0,4.0,0.0
68,58.0,0.0,240.0,13.0,0.0
69,73.0,0.0,240.0,11.0,0.0
70,73.0,30.0,30.0,5.0,0.0
71,66.0,30.0,240.0,12.0,0.0
72,61.0,30.0,30.0,5.0,0.0
73,58.0,30.0,60.0,15.0,0.0
74,78.0,0.0,180.0,15.0,0.0
75,46.0,0.0,60.0,8.0,0.0
76,66.0,30.0,30.0,5.0,0.0
77,61.0,0.0,60.0,6.0,0.0
78,66.0,0.0,180.0,15.0,0.0
79,58.0,0.0,60.0,7.0,0.0
80,73.0,0.0,180.0,15.0,0.0
81,70.0,0.0,30.0,5.0,0.0
82,42.0,30.0,60.0,8.0,0.0
83,54.0,0.0,60.0,15.0,0.0
84,58.0,0.0,60.0,6.0,0.0
85,54.0,0.0,60.0,7.0,0.0
86,73.0,0.0,120.0,5.0,0.0
87,70.0,0.0,30.0,4.0,0.0
88,73.0,30.0,30.0,4.0,0.0
89,46.0,0.0,60.0,8.0,0.0
90,58.0,0.0,60.0,15.0,0.0
91,61.0,0.0,60.0,6.0,0.0
92,58.0,0.0,60.0,7.0,0.0
93,78.0,0.0,30.0,4.0,0.0
94,66.0,0.0,120.0,12.0,0.0
95,74.0,0.0,240.0,0.0,0.0
96,71.0,0.0,240.0,0.0,0.0
97,71.0,0.0,120.0,11.0,0.0
98,71.0,30.0,30.0,5.0,0.0
99,59.0,0.0,120.0,13.0,0.0
100,74.0,0.0,120.0,10.0,0.0
101,74.0,30.0,150.0,4.0,0.0
102,59.0,30.0,30.0,5.0,0.0
103,59.0,0.0,60.0,15.0,0.0
104,71.0,0.0,180.0,15.0,0.0
105,59.0,0.0,60.0,1.0,0.0
106,74.0,0.0,180.0,15.0,0.0
107,66.0,0.0,180.0,15.0,0.0
108,62.0,0.0,60.0,6.0,0.0
109,62.0,30.0,30.0,5.0,0.0
110,59.0,0.0,60.0,7.0,0.0
111,47.0,0.0,60.0,8.0,0.0
112,66.0,30.0,30.0,5.0,0.0
113,71.0,0.0,120.0,5.0,0.0
114,62.0,0.0,60.0,1.0,0.0
115,62.0,0.0,60.0,7.0,0.0
116,50.0,0.0,60.0,8.0,0.0
117,62.0,0.0,60.0,15.0,0.0
118,66.0,30.0,60.0,6.0,0.0
119,71.0,0.0,30.0,4.0,0.0
120,78.0,30.0,60.0,10.0,0.0
121,59.0,0.0,60.0,1.0,0.0
122,47.0,0.0,60.0,8.0,0.0
123,74.0,30.0,30.0,4.0,0.0
124,59.0,0.0,60.0,13.0,0.0
125,71.0,0.0,60.0,11.0,0.0
126,62.0,0.0,60.0,6.0,0.0
127,59.0,0.0,60.0,7.0,0.0
128,59.0,0.0,60.0,3.0,0.0
129,62.0,0.0,60.0,12.0,0.0
130,59.0,0.0,60.0,15.0,0.0
131,71.0,0.0,60.0,3.0,0.0
132,62.0,0.0,60.0,3.0,0.0
133,78.0,0.0,30.0,4.0,0.0
134,79.0,0.0,120.0,0.0,0.0
135,67.0,0.0,90.0,12.0,0.0
136,55.0,0.0,120.0,3.0,0.0
137,43.0,30.0,30.0,8.0,0.0
138,55.0,0.0,30.0,1.0,0.0
139,55.0,0.0,30.0,7.0,0.0
140,71.0,0.0,120.0,0.0,0.0
141,55.0,0.0,90.0,13.0,0.0
142,83.0,0.0,90.0,4.0,0.0
143,67.0,0.0,120.0,3.0,0.0
144,74.0,0.0,120.0,3.0,0.0
145,83.0,0.0,90.0,10.0,0.0
146,55.0,0.0,30.0,15.0,0.0
147,67.0,0.0,30.0,6.0,0.0
148,74.0,30.0,90.0,11.0,0.0
149,79.0,0.0,90.0,5.0,0.0
150,57.0,0.0,30.0,7.0,0.0
151,57.0,30.0,30.0,1.0,0.0
152,69.0,0.0,30.0,6.0,0.0
153,45.0,0.0,30.0,8.0,0.0
154,57.0,0.0,30.0,15.0,0.0
155,47.0,0.0,30.0,8.0,0.0
156,71.0,0.0,30.0,6.0,0.0
157,59.0,0.0,30.0,1.0,0.0
158,59.0,0.0,30.0,15.0,0.0
159,59.0,0.0,30.0,7.0,0.0
160,73.0,0.0,30.0,6.0,0.0
161,49.0,30.0,30.0,8.0,0.0
162,61.0,0.0,30.0,15.0,0.0
163,61.0,0.0,30.0,1.0,0.0
164,83.0,0.0,30.0,10.0,0.0
165,83.0,0.0,30.0,4.0,0.0
166,67.0,0.0,30.0,12.0,0.0
167,61.0,0.0,30.0,7.0,0.0
168,74.0,0.0,30.0,11.0,0.0
169,79.0,0.0,30.0,5.0,0.0
170,55.0,0.0,30.0,13.0,0.0
171,69.0,0.0,120.0,0.0,0.0
172,62.0,0.0,30.0,7.0,0.0
173,74.0,0.0,60.0,11.0,0.0
174,78.0,0.0,60.0,5.0,0.0
175,78.0,0.0,120.0,0.0,0.0
176,62.0,0.0,30.0,1.0,0.0
177,50.0,0.0,30.0,8.0,0.0
178,66.0,0.0,60.0,12.0,0.0
179,62.0,0.0,60.0,13.0,0.0
180,62.0,0.0,30.0,15.0,0.0
181,81.0,0.0,60.0,4.0,0.0
182,81.0,0.0,60.0,10.0,0.0
183,62.0,0.0,120.0,3.0,0.0
184,66.0,0.0,120.0,3.0,0.0
185,74.0,0.0,120.0,3.0,0.0
186,74.0,30.0,30.0,6.0,0.0
187,69.0,0.0,30.0,6.0,0.0
188,57.0,0.0,30.0,15.0,0.0
189,57.0,0.0,30.0,1.0,0.0
190,57.0,30.0,30.0,7.0,0.0
191,45.0,0.0,30.0,8.0,0.0
192,81.0,0.0,60.0,10.0,0.0
193,62.0,0.0,60.0,13.0,0.0
194,74.0,0.0,60.0,11.0,0.0
195,66.0,0.0,60.0,12.0,0.0
196,54.0,0.0,30.0,7.0,0.0
197,54.0,0.0,30.0,15.0,0.0
198,54.0,0.0,30.0,1.0,0.0
199,62.0,0.0,60.0,4.0,0.0
200,66.0,30.0,60.0,5.0,0.0
201,66.0,30.0,30.0,6.0,0.0
202,42.0,0.0,30.0,8.0,0.0
203,50.0,0.0,30.0,15.0,0.0
204,50.0,0.0,30.0,1.0,0.0
205,62.0,0.0,30.0,6.0,0.0
206,38.0,0.0,30.0,8.0,0.0
207,50.0,0.0,30.0,7.0,0.0
208,64.0,0.0,90.0,13.0,0.0
209,71.0,0.0,90.0,11.0,0.0
210,71.0,0.0,120.0,3.0,0.0
211,76.0,0.0,120.0,0.0,0.0
212,52.0,0.0,30.0,1.0,0.0
213,79.0,0.0,90.0,10.0,0.0
214,67.0,0.0,120.0,0.0,0.0
215,64.0,0.0,120.0,3.0,0.0
216,52.0,0.0,30.0,15.0,0.0
217,64.0,0.0,30.0,6.0,0.0
218,64.0,30.0,90.0,12.0,0.0
219,52.0,0.0,30.0,7.0,0.0
220,40.0,30.0,30.0,8.0,0.0
221,76.0,0.0,90.0,5.0,0.0
222,79.0,0.0,90.0,4.0,0.0
223,66.0,0.0,30.0,6.0,0.0
224,54.0,0.0,30.0,15.0,0.0
225,54.0,0.0,30.0,1.0,0.0
226,54.0,0.0,30.0,7.0,0.0
227,42.0,30.0,30.0,8.0,0.0
228,55.0,0.0,30.0,7.0,0.0
229,55.0,0.0,30.0,1.0,0.0
230,55.0,0.0,30.0,15.0,0.0
231,67.0,0.0,30.0,6.0,0.0
232,43.0,0.0,30.0,8.0,0.0
233,76.0,0.0,30.0,5.0,0.0
234,45.0,0.0,30.0,8.0,0.0
235,64.0,0.0,30.0,13.0,0.0
236,57.0,0.0,30.0,15.0,0.0
237,57.0,0.0,30.0,1.0,0.0
238,64.0,0.0,30.0,12.0,0.0
239,71.0,0.0,30.0,11.0,0.0
240,57.0,0.0,30.0,7.0,0.0
241,79.0,0.0,30.0,10.0,0.0
242,69.0,30.0,30.0,6.0,0.0
243,79.0,0.0,30.0,4.0,0.0
244,78.0,0.0,120.0,10.0,0.0
245,47.0,0.0,30.0,8.0,0.0
246,59.0,0.0,30.0,1.0,0.0
247,62.0,0.0,120.0,3.0,0.0
248,78.0,30.0,60.0,4.0,0.0
249,71.0,0.0,30.0,6.0,0.0
250,71.0,0.0,120.0,11.0,0.0
251,59.0,0.0,120.0,3.0,0.0
252,59.0,0.0,30.0,7.0,0.0
253,59.0,30.0,30.0,15.0,0.0
254,74.0,60.0,120.0,0.0,0.0
255,66.0,0.0,120.0,0.0,0.0
256,74.0,0.0,60.0,5.0,0.0
257,59.0,0.0,120.0,13.0,0.0
258,62.0,0.0,120.0,12.0,0.0
259,71.0,0.0,120.0,3.0,0.0
260,66.0,0.0,30.0,6.0,0.0
261,54.0,0.0,30.0,15.0,0.0
262,54.0,0.0,30.0,7.0,0.0
263,42.0,0.0,30.0,8.0,0.0
264,54.0,0.0,30.0,1.0,0.0
265,50.0,0.0,30.0,15.0,0.0
266,62.0,0.0,60.0,5.0,0.0
267,59.0,0.0,60.0,4.0,0.0
268,50.0,0.0,30.0,1.0,0.0
269,62.0,0.0,30.0,6.0,0.0
270,50.0,0.0,30.0,7.0,0.0
271,38.0,30.0,30.0,8.0,0.0
272,35.0,0.0,30.0,8.0,0.0
273,47.0,0.0,30.0,1.0,0.0
274,47.0,0.0,30.0,15.0,0.0
275,47.0,0.0,30.0,7.0,0.0
276,59.0,0.0,30.0,6.0,0.0
277,37.0,30.0,60.0,8.0,0.0
278,67.0,0.0,60.0,4.0,0.0
279,49.0,0.0,60.0,15.0,0.0
280,49.0,0.0,60.0,7.0,0.0
281,70.0,0.0,120.0,11.0,0.0
282,64.0,0.0,60.0,6.0,0.0
283,61.0,0.0,120.0,13.0,0.0
284,61.0,0.0,60.0,5.0,0.0
285,67.0,60.0,60.0,5.0,0.0
286,52.0,0.0,30.0,8.0,0.0
287,64.0,30.0,30.0,6.0,0.0
288,67.0,0.0,60.0,4.0,0.0
289,64.0,0.0,30.0,7.0,0.0
290,64.0,0.0,30.0,15.0,0.0
291,62.0,0.0,30.0,6.0,0.0
292,50.0,0.0,30.0,8.0,0.0
293,62.0,0.0,30.0,15.0,0.0
294,62.0,0.0,30.0,7.0,0.0
295,61.0,0.0,60.0,6.0,0.0
296,67.0,0.0,180.0,12.0,0.0
297,70.0,0.0,60.0,11.0,0.0
298,70.0,60.0,60.0,5.0,0.0
299,61.0,0.0,60.0,15.0,0.0
300,76.0,0.0,180.0,4.0,0.0
301,76.0,30.0,180.0,10.0,0.0
302,49.0,0.0,60.0,8.0,0.0
303,61.0,0.0,60.0,7.0,0.0
304,61.0,0.0,60.0,13.0,0.0
305,59.0,0.0,60.0,15.0,0.0
306,59.0,0.0,60.0,7.0,0.0
307,47.0,60.0,60.0,8.0,0.0
308,59.0,0.0,60.0,6.0,0.0
309,71.0,0.0,60.0,11.0,0.0
310,71.0,0.0,60.0,5.0,0.0
311,59.0,0.0,60.0,13.0,0.0
312,73.0,0.0,180.0,5.0,0.0
313,58.0,0.0,180.0,15.0,0.0
314,73.0,0.0,180.0,15.0,0.0
315,76.0,0.0,180.0,15.0,0.0
316,79.0,60.0,120.0,15.0,0.0
317,58.0,0.0,60.0,6.0,0.0
318,73.0,0.0,90.0,11.0,0.0
319,46.0,0.0,180.0,8.0,0.0
320,58.0,0.0,180.0,7.0,0.0
321,58.0,30.0,90.0,13.0,0.0
322,64.0,0.0,60.0,12.0,0.0
323,64.0,0.0,60.0,6.0,0.0
324,79.0,0.0,60.0,4.0,0.0
325,79.0,0.0,60.0,10.0,0.0
326,58.0,0.0,30.0,13.0,0.0
327,73.0,0.0,30.0,11.0,0.0
328,78.0,0.0,60.0,4.0,0.0
329,73.0,0.0,120.0,11.0,0.0
330,66.0,0.0,60.0,12.0,0.0
331,78.0,0.0,60.0,10.0,0.0
332,78.0,60.0,60.0,15.0,0.0
333,58.0,0.0,120.0,13.0,0.0
334,66.0,0.0,60.0,6.0,0.0
335,67.0,0.0,60.0,6.0,0.0
336,73.0,0.0,60.0,15.0,0.0
337,58.0,0.0,60.0,15.0,0.0
338,76.0,0.0,60.0,10.0,0.0
339,46.0,0.0,60.0,8.0,0.0
340,67.0,0.0,60.0,15.0,0.0
341,73.0,0.0,60.0,5.0,0.0
342,58.0,0.0,60.0,7.0,0.0
343,67.0,0.0,60.0,12.0,0.0
344,76.0,0.0,60.0,15.0,0.0
345,76.0,30.0,60.0,4.0,0.0
346,71.0,0.0,60.0,15.0,0.0
347,74.0,0.0,60.0,15.0,0.0
348,59.0,0.0,60.0,15.0,0.0
349,66.0,0.0,60.0,15.0,0.0
350,66.0,0.0,60.0,12.0,0.0
351,71.0,30.0,30.0,5.0,0.0
352,59.0,0.0,60.0,13.0,0.0
353,74.0,0.0,60.0,4.0,0.0
354,66.0,30.0,60.0,6.0,0.0
355,71.0,0.0,60.0,11.0,0.0
356,74.0,0.0,60.0,10.0,0.0
357,59.0,0.0,60.0,7.0,0.0
358,47.0,0.0,60.0,8.0,0.0
359,71.0,0.0,60.0,5.0,0.0
360,62.0,60.0,60.0,7.0,0.0
361,64.0,0.0,30.0,12.0,0.0
362,64.0,30.0,30.0,6.0,0.0
363,62.0,0.0,60.0,13.0,0.0
364,62.0,0.0,60.0,15.0,0.0
365,71.0,0.0,60.0,11.0,0.0
366,66.0,0.0,60.0,15.0,0.0
367,50.0,0.0,60.0,8.0,0.0
368,73.0,0.0,30.0,4.0,0.0
369,71.0,0.0,60.0,15.0,0.0
370,73.0,0.0,30.0,10.0,0.0
371,71.0,0.0,30.0,10.0,0.0
372,71.0,0.0,30.0,4.0,0.0
373,62.0,0.0,30.0,12.0,0.0
374,62.0,0.0,30.0,6.0,0.0
375,61.0,0.0,60.0,13.0,0.0
376,70.0,0.0,60.0,15.0,0.0
377,67.0,0.0,60.0,15.0,0.0
378,70.0,60.0,60.0,11.0,0.0
379,67.0,60.0,180.0,12.0,0.0
380,49.0,0.0,60.0,8.0,0.0
381,76.0,0.0,60.0,15.0,0.0
382,76.0,0.0,180.0,10.0,0.0
383,67.0,0.0,180.0,6.0,0.0
384,70.0,0.0,60.0,5.0,0.0
385,76.0,0.0,180.0,4.0,0.0
386,61.0,0.0,60.0,15.0,0.0
387,61.0,0.0,60.0,7.0,0.0
388,59.0,0.0,60.0,7.0,0.0
389,59.0,0.0,60.0,13.0,0.0
390,59.0,0.0,60.0,15.0,0.0
391,76.0,0.0,60.0,15.0,0.0
392,67.0,0.0,60.0,15.0,0.0
393,71.0,0.0,60.0,15.0,0.0
394,47.0,0.0,60.0,8.0,0.0
395,71.0,0.0,60.0,11.0,0.0
396,71.0,60.0,60.0,5.0,0.0
397,76.0,60.0,180.0,15.0,0.0
398,58.0,0.0,180.0,15.0,0.0
399,79.0,60.0,120.0,15.0,0.0
400,73.0,0.0,180.0,11.0,0.0
401,73.0,0.0,180.0,15.0,0.0
402,46.0,0.0,180.0,8.0,0.0
403,58.0,0.0,180.0,13.0,0.0
404,58.0,0.0,180.0,7.0,0.0
405,73.0,0.0,180.0,5.0,0.0
406,79.0,0.0,60.0,10.0,0.0
407,79.0,0.0,60.0,4.0,0.0
408,64.0,0.0,60.0,6.0,0.0
409,64.0,0.0,60.0,12.0,0.0
410,78.0,0.0,60.0,10.0,0.0
411,78.0,0.0,60.0,4.0,0.0
412,66.0,0.0,60.0,12.0,0.0
413,78.0,0.0,60.0,15.0,0.0
414,66.0,0.0,60.0,6.0,0.0
415,58.0,0.0,60.0,13.0,0.0
416,67.0,0.0,60.0,6.0,0.0
417,46.0,0.0,60.0,8.0,0.0
418,73.0,0.0,60.0,5.0,0.0
419,76.0,0.0,60.0,10.0,0.0
420,73.0,0.0,60.0,11.0,0.0
421,58.0,0.0,60.0,15.0,0.0
422,79.0,0.0,60.0,15.0,0.0
423,73.0,0.0,60.0,15.0,0.0
424,76.0,0.0,60.0,15.0,0.0
425,58.0,0.0,60.0,7.0,0.0
426,76.0,0.0,60.0,4.0,0.0
427,67.0,60.0,60.0,12.0,0.0
428,59.0,0.0,120.0,13.0,0.0
429,66.0,0.0,60.0,6.0,0.0
430,59.0,30.0,60.0,7.0,0.0
431,59.0,0.0,60.0,15.0,0.0
432,71.0,0.0,120.0,15.0,0.0
433,71.0,0.0,120.0,5.0,0.0
434,66.0,0.0,120.0,15.0,0.0
435,71.0,0.0,120.0,11.0,0.0
436,74.0,0.0,60.0,10.0,0.0
437,74.0,0.0,60.0,4.0,0.0
438,66.0,0.0,60.0,12.0,0.0
439,47.0,0.0,60.0,8.0,0.0
440,74.0,0.0,120.0,15.0,0.0
441,59.0,0.0,60.0,7.0,0.0
442,47.0,0.0,60.0,8.0,0.0
443,73.0,30.0,30.0,4.0,0.0
444,64.0,0.0,30.0,12.0,0.0
445,59.0,0.0,60.0,15.0,0.0
446,73.0,0.0,30.0,10.0,0.0
447,64.0,0.0,30.0,6.0,0.0
448,62.0,30.0,30.0,12.0,0.0
449,71.0,0.0,30.0,10.0,0.0
450,71.0,0.0,30.0,4.0,0.0
451,62.0,0.0,30.0,6.0,0.0
452,78.0,0.0,180.0,4.0,0.0
453,73.0,0.0,60.0,11.0,0.0
454,57.0,0.0,60.0,7.0,0.0
455,61.0,0.0,60.0,12.0,0.0
456,73.0,0.0,60.0,5.0,0.0
457,57.0,0.0,60.0,15.0,0.0
458,45.0,30.0,60.0,8.0,0.0
459,73.0,0.0,120.0,15.0,0.0
460,61.0,0.0,120.0,15.0,0.0
461,78.0,0.0,120.0,15.0,0.0
462,61.0,30.0,30.0,6.0,0.0
463,78.0,0.0,180.0,10.0,0.0
464,57.0,0.0,60.0,13.0,0.0
465,61.0,30.0,30.0,6.0,0.0
466,45.0,0.0,60.0,8.0,0.0
467,57.0,60.0,60.0,15.0,0.0
468,57.0,0.0,60.0,13.0,0.0
469,61.0,0.0,60.0,12.0,0.0
470,73.0,0.0,60.0,11.0,0.0
471,73.0,0.0,60.0,5.0,0.0
472,57.0,0.0,60.0,7.0,0.0
473,59.0,0.0,120.0,15.0,0.0
474,74.0,60.0,120.0,5.0,0.0
475,74.0,0.0,120.0,15.0,0.0
476,78.0,0.0,120.0,15.0,0.0
477,43.0,0.0,60.0,8.0,0.0
478,59.0,0.0,120.0,6.0,0.0
479,55.0,0.0,60.0,7.0,0.0
480,55.0,60.0,60.0,15.0,0.0
481,74.0,0.0,120.0,11.0,0.0
482,55.0,0.0,240.0,13.0,0.0
483,59.0,0.0,120.0,12.0,0.0
484,43.0,0.0,60.0,8.0,0.0
485,79.0,0.0,60.0,10.0,0.0
486,55.0,0.0,60.0,15.0,0.0
487,55.0,0.0,60.0,7.0,0.0
488,79.0,0.0,60.0,4.0,0.0
489,76.0,0.0,120.0,4.0,0.0
490,55.0,0.0,60.0,7.0,0.0
491,58.0,0.0,60.0,6.0,0.0
492,73.0,0.0,60.0,11.0,0.0
493,58.0,0.0,60.0,12.0,0.0
494,76.0,0.0,120.0,10.0,0.0
495,73.0,60.0,60.0,5.0,0.0
496,43.0,0.0,60.0,8.0,0.0
497,55.0,0.0,60.0,15.0,0.0
498,59.0,0.0,120.0,15.0,0.0
499,76.0,60.0,120.0,15.0,0.0
500,59.0,0.0,60.0,12.0,0.0
501,55.0,0.0,60.0,15.0,0.0
502,71.0,0.0,60.0,11.0,0.0
503,71.0,0.0,60.0,5.0,0.0
504,59.0,0.0,60.0,6.0,0.0
505,55.0,0.0,60.0,7.0,0.0
506,43.0,0.0,60.0,8.0,0.0
507,61.0,0.0,120.0,12.0,0.0
508,78.0,0.0,120.0,15.0,0.0
509,70.0,0.0,120.0,11.0,0.0
510,54.0,0.0,60.0,15.0,0.0
511,61.0,0.0,60.0,6.0,0.0
512,78.0,30.0,120.0,4.0,0.0
513,54.0,0.0,120.0,13.0,0.0
514,78.0,0.0,120.0,10.0,0.0
515,61.0,0.0,120.0,15.0,0.0
516,54.0,0.0,60.0,7.0,0.0
517,70.0,0.0,60.0,15.0,0.0
518,42.0,30.0,60.0,8.0,0.0
519,70.0,30.0,60.0,5.0,0.0
520,54.0,0.0,60.0,8.0,0.0
521,66.0,0.0,60.0,15.0,0.0
522,66.0,0.0,60.0,6.0,0.0
523,66.0,0.0,60.0,7.0,0.0
524,69.0,30.0,60.0,5.0,0.0
525,71.0,30.0,60.0,15.0,0.0
526,52.0,0.0,60.0,8.0,0.0
527,64.0,0.0,60.0,7.0,0.0
528,67.0,0.0,60.0,15.0,0.0
529,59.0,0.0,60.0,6.0,0.0
530,64.0,0.0,60.0,15.0,0.0
531,68.0,30.0,60.0,5.0,0.0
532,66.0,0.0,60.0,15.0,0.0
533,52.0,0.0,60.0,15.0,0.0
534,61.0,0.0,60.0,6.0,0.0
535,69.0,0.0,60.0,4.0,0.0
536,73.0,0.0,60.0,15.0,0.0
537,40.0,0.0,60.0,8.0,0.0
538,69.0,0.0,60.0,10.0,0.0
539,52.0,120.0,60.0,7.0,0.0
540,67.0,0.0,30.0,5.0,0.0
541,74.0,0.0,120.0,15.0,0.0
542,81.0,0.0,120.0,15.0,0.0
543,69.0,0.0,120.0,15.0,0.0
544,81.0,60.0,120.0,4.0,0.0
545,50.0,0.0,120.0,15.0,0.0
546,62.0,0.0,120.0,6.0,0.0
547,66.0,0.0,120.0,5.0,0.0
548,81.0,0.0,120.0,10.0,0.0
549,66.0,0.0,120.0,15.0,0.0
550,38.0,0.0,120.0,8.0,0.0
551,50.0,0.0,120.0,7.0,0.0
552,78.0,0.0,60.0,10.0,0.0
553,78.0,60.0,60.0,4.0,0.0
554,66.0,0.0,60.0,11.0,0.0
555,62.0,0.0,60.0,6.0,0.0
556,74.0,0.0,60.0,4.0,0.0
557,66.0,0.0,60.0,5.0,0.0
558,74.0,30.0,60.0,10.0,0.0
559,62.0,0.0,60.0,12.0,0.0
560,50.0,0.0,60.0,7.0,0.0
561,62.0,0.0,120.0,12.0,0.0
562,66.0,0.0,120.0,11.0,0.0
563,38.0,0.0,60.0,8.0,0.0
564,69.0,0.0,480.0,10.0,0.0
565,62.0,0.0,30.0,6.0,0.0
566,66.0,30.0,30.0,5.0,0.0
567,69.0,30.0,60.0,4.0,0.0
568,66.0,30.0,120.0,15.0,0.0
569,69.0,0.0,120.0,15.0,0.0
570,50.0,0.0,60.0,15.0,0.0
571,62.0,0.0,120.0,15.0,0.0
572,62.0,30.0,60.0,6.0,0.0
573,66.0,0.0,60.0,5.0,0.0
574,45.0,0.0,60.0,7.0,0.0
575,50.0,0.0,60.0,13.0,0.0
576,69.0,30.0,120.0,4.0,0.0
577,45.0,0.0,60.0,15.0,0.0
578,33.0,0.0,60.0,8.0,0.0
579,66.0,0.0,30.0,5.0,0.0
580,62.0,0.0,30.0,6.0,0.0
581,69.0,0.0,120.0,15.0,0.0
582,67.0,0.0,120.0,15.0,0.0
583,49.0,0.0,60.0,15.0,0.0
584,64.0,30.0,120.0,15.0,0.0
585,64.0,0.0,60.0,12.0,0.0
586,49.0,0.0,60.0,7.0,0.0
587,49.0,0.0,120.0,13.0,0.0
588,64.0,0.0,30.0,6.0,0.0
589,67.0,30.0,30.0,5.0,0.0
590,37.0,0.0,60.0,8.0,0.0
591,67.0,0.0,60.0,11.0,0.0
592,64.0,30.0,60.0,6.0,0.0
593,67.0,0.0,60.0,5.0,0.0
594,33.0,0.0,60.0,8.0,0.0
595,69.0,0.0,120.0,4.0,0.0
596,64.0,0.0,60.0,12.0,0.0
597,45.0,0.0,60.0,7.0,0.0
598,45.0,0.0,60.0,15.0,0.0
599,67.0,0.0,60.0,11.0,0.0
600,67.0,0.0,30.0,5.0,0.0
601,64.0,0.0,30.0,6.0,0.0
602,66.0,0.0,30.0,5.0,0.0
603,62.0,30.0,30.0,6.0,0.0
604,50.0,30.0,60.0,15.0,0.0
605,50.0,0.0,60.0,7.0,0.0
606,66.0,30.0,120.0,11.0,0.0
607,38.0,0.0,60.0,8.0,0.0
608,69.0,0.0,120.0,15.0,0.0
609,66.0,0.0,120.0,15.0,0.0
610,62.0,0.0,120.0,15.0,0.0
611,62.0,0.0,120.0,12.0,0.0
612,50.0,0.0,60.0,13.0,0.0
613,62.0,0.0,60.0,6.0,0.0
614,66.0,30.0,60.0,5.0,0.0
615,50.0,0.0,60.0,13.0,0.0
616,33.0,0.0,60.0,8.0,0.0
617,45.0,0.0,60.0,7.0,0.0
618,45.0,0.0,60.0,15.0,0.0
619,69.0,0.0,120.0,4.0,0.0
620,62.0,0.0,30.0,6.0,0.0
621,66.0,0.0,30.0,5.0,0.0
622,61.0,0.0,30.0,6.0,0.0
623,52.0,0.0,120.0,13.0,0.0
624,61.0,0.0,120.0,12.0,0.0
625,40.0,0.0,60.0,8.0,0.0
626,67.0,30.0,30.0,5.0,0.0
627,52.0,0.0,60.0,15.0,0.0
628,67.0,0.0,120.0,15.0,0.0
629,69.0,0.0,120.0,15.0,0.0
630,52.0,30.0,60.0,7.0,0.0
631,64.0,0.0,120.0,15.0,0.0
632,67.0,0.0,120.0,11.0,0.0
633,61.0,30.0,60.0,6.0,0.0
634,67.0,0.0,60.0,5.0,0.0
635,45.0,30.0,60.0,7.0,0.0
636,69.0,30.0,90.0,4.0,0.0
637,45.0,0.0,60.0,15.0,0.0
638,33.0,0.0,60.0,8.0,0.0
639,67.0,0.0,30.0,5.0,0.0
640,61.0,0.0,30.0,6.0,0.0
641,69.0,0.0,120.0,10.0,0.0
642,42.0,0.0,60.0,8.0,0.0
643,54.0,0.0,120.0,13.0,0.0
644,54.0,0.0,60.0,15.0,0.0
645,62.0,0.0,60.0,6.0,0.0
646,54.0,30.0,60.0,7.0,0.0
647,66.0,30.0,120.0,11.0,0.0
648,66.0,0.0,30.0,5.0,0.0
649,62.0,0.0,120.0,12.0,0.0
650,66.0,0.0,60.0,4.0,0.0
651,66.0,0.0,60.0,5.0,0.0
652,39.0,0.0,30.0,8.0,0.0
653,51.0,30.0,30.0,7.0,0.0
654,63.0,0.0,60.0,6.0,0.0
655,51.0,0.0,30.0,15.0,0.0
656,63.0,30.0,60.0,5.0,0.0
657,63.0,0.0,60.0,4.0,0.0
658,52.0,0.0,30.0,15.0,0.0
659,64.0,30.0,60.0,6.0,0.0
660,40.0,0.0,30.0,8.0,0.0
661,52.0,0.0,30.0,7.0,0.0
662,64.0,0.0,60.0,5.0,0.0
663,64.0,0.0,60.0,4.0,0.0
664,71.0,0.0,60.0,10.0,0.0
665,54.0,0.0,30.0,15.0,0.0
666,66.0,0.0,60.0,6.0,0.0
667,54.0,30.0,30.0,7.0,0.0
668,42.0,0.0,30.0,8.0,0.0
669,66.0,0.0,30.0,4.0,0.0
670,66.0,60.0,30.0,5.0,0.0
671,55.0,60.0,120.0,7.0,0.0
672,67.0,0.0,120.0,5.0,0.0
673,67.0,0.0,120.0,6.0,0.0
674,55.0,0.0,120.0,15.0,0.0
675,83.0,0.0,120.0,10.0,0.0
676,67.0,60.0,60.0,4.0,0.0
677,43.0,0.0,120.0,8.0,0.0
678,83.0,0.0,60.0,4.0,0.0
679,79.0,0.0,60.0,4.0,0.0
680,79.0,60.0,60.0,10.0,0.0
681,64.0,30.0,60.0,12.0,0.0
682,76.0,0.0,60.0,10.0,0.0
683,67.0,0.0,60.0,5.0,0.0
684,67.0,0.0,60.0,11.0,0.0
685,64.0,0.0,60.0,6.0,0.0
686,76.0,0.0,60.0,4.0,0.0
687,64.0,0.0,120.0,15.0,0.0
688,67.0,1.0,120.0,15.0,0.0
689,64.0,0.0,120.0,12.0,0.0
690,71.0,0.0,120.0,15.0,0.0
691,52.0,0.0,60.0,15.0,0.0
692,67.0,0.0,120.0,11.0,0.0
693,67.0,1.0,30.0,5.0,0.0
694,40.0,29.0,60.0,8.0,0.0
695,71.0,1.0,60.0,4.0,0.0
696,71.0,0.0,480.0,10.0,0.0
697,52.0,0.0,60.0,7.0,0.0
698,64.0,29.0,15.0,6.0,0.0
699,67.0,1.0,60.0,5.0,0.0
700,47.0,29.0,60.0,15.0,0.0
701,47.0,0.0,60.0,7.0,0.0
702,52.0,0.0,60.0,13.0,0.0
703,71.0,0.0,120.0,4.0,0.0
704,35.0,0.0,60.0,8.0,0.0
705,64.0,29.0,15.0,6.0,0.0
706,67.0,0.0,30.0,5.0,0.0
707,69.0,1.0,30.0,5.0,0.0
708,51.0,1.0,120.0,13.0,0.0
709,69.0,1.0,60.0,11.0,0.0
710,66.0,0.0,60.0,12.0,0.0
711,71.0,0.0,120.0,15.0,0.0
712,39.0,0.0,60.0,8.0,0.0
713,51.0,29.0,60.0,7.0,0.0
714,69.0,0.0,120.0,15.0,0.0
715,66.0,0.0,120.0,15.0,0.0
716,51.0,0.0,60.0,15.0,0.0
717,69.0,1.0,60.0,5.0,0.0
718,66.0,29.0,15.0,6.0,0.0
719,47.0,0.0,60.0,15.0,0.0
720,35.0,0.0,60.0,8.0,0.0
721,69.0,0.0,60.0,11.0,0.0
722,47.0,0.0,60.0,7.0,0.0
723,66.0,0.0,60.0,12.0,0.0
724,71.0,1.0,120.0,4.0,0.0
725,69.0,0.0,30.0,5.0,0.0
726,66.0,29.0,30.0,6.0,0.0
727,52.0,0.0,60.0,13.0,0.0
728,52.0,0.0,60.0,7.0,0.0
729,40.0,29.0,60.0,8.0,0.0
730,67.0,1.0,30.0,5.0,0.0
731,64.0,0.0,120.0,15.0,0.0
732,71.0,0.0,120.0,15.0,0.0
733,67.0,0.0,120.0,15.0,0.0
734,52.0,0.0,60.0,15.0,0.0
735,67.0,0.0,120.0,11.0,0.0
736,64.0,0.0,120.0,12.0,0.0
737,64.0,29.0,15.0,6.0,0.0
738,67.0,1.0,60.0,5.0,0.0
739,47.0,0.0,60.0,15.0,0.0
740,52.0,1.0,60.0,13.0,0.0
741,71.0,1.0,120.0,4.0,0.0
742,47.0,29.0,60.0,7.0,0.0
743,35.0,0.0,60.0,8.0,0.0
744,67.0,0.0,30.0,5.0,0.0
745,64.0,0.0,30.0,6.0,0.0
746,54.0,0.0,60.0,15.0,0.0
747,69.0,0.0,120.0,15.0,0.0
748,71.0,0.0,120.0,15.0,0.0
749,42.0,0.0,60.0,8.0,0.0
750,75.0,0.0,120.0,15.0,0.0
751,54.0,0.0,120.0,13.0,0.0
752,69.0,1.0,30.0,5.0,0.0
753,69.0,0.0,120.0,11.0,0.0
754,63.0,0.0,120.0,12.0,0.0
755,54.0,29.0,60.0,7.0,0.0
756,63.0,29.0,15.0,6.0,0.0
757,69.0,1.0,60.0,5.0,0.0
758,71.0,1.0,60.0,4.0,0.0
759,47.0,0.0,60.0,7.0,0.0
760,35.0,0.0,60.0,8.0,0.0
761,47.0,119.0,60.0,15.0,0.0
762,69.0,0.0,30.0,5.0,0.0
763,63.0,0.0,30.0,6.0,0.0
764,64.0,0.0,120.0,15.0,0.0
765,67.0,0.0,120.0,11.0,0.0
766,64.0,0.0,120.0,6.0,0.0
767,55.0,1.0,120.0,13.0,0.0
768,67.0,0.0,120.0,5.0,0.0
769,71.0,0.0,120.0,10.0,0.0
770,71.0,0.0,120.0,15.0,0.0
771,43.0,0.0,120.0,8.0,0.0
772,67.0,0.0,120.0,15.0,0.0
773,55.0,0.0,120.0,15.0,0.0
774,71.0,0.0,120.0,4.0,0.0
775,64.0,0.0,120.0,12.0,0.0
776,55.0,179.0,120.0,7.0,0.0
777,79.0,0.0,240.0,4.0,0.0
778,79.0,0.0,240.0,10.0,0.0
779,64.0,1.0,60.0,5.0,0.0
780,48.0,0.0,60.0,7.0,0.0
781,64.0,0.0,120.0,11.0,0.0
782,60.0,1.0,120.0,12.0,0.0
783,48.0,0.0,120.0,13.0,0.0
784,64.0,0.0,240.0,15.0,0.0
785,67.0,0.0,240.0,15.0,0.0
786,36.0,0.0,60.0,8.0,0.0
787,60.0,1.0,240.0,15.0,0.0
788,64.0,0.0,60.0,5.0,0.0
789,48.0,59.0,15.0,15.0,0.0
790,36.0,0.0,60.0,8.0,0.0
791,60.0,0.0,15.0,6.0,0.0
792,48.0,0.0,15.0,7.0,0.0
793,60.0,1.0,60.0,12.0,0.0
794,36.0,0.0,60.0,8.0,0.0
795,67.0,0.0,60.0,10.0,0.0
796,64.0,0.0,60.0,5.0,0.0
797,60.0,59.0,15.0,6.0,0.0
798,64.0,0.0,60.0,11.0,0.0
799,48.0,0.0,60.0,13.0,0.0
800,67.0,0.0,60.0,4.0,0.0
801,59.0,0.0,60.0,6.0,0.0
802,67.0,0.0,60.0,10.0,0.0
803,48.0,0.0,60.0,13.0,0.0
804,64.0,0.0,60.0,11.0,0.0
805,48.0,0.0,15.0,15.0,0.0
806,64.0,0.0,60.0,5.0,0.0
807,67.0,0.0,60.0,4.0,0.0
808,59.0,0.0,60.0,12.0,0.0
809,48.0,59.0,60.0,7.0,0.0
810,48.0,0.0,15.0,15.0,0.0
811,64.0,0.0,120.0,15.0,0.0
812,65.0,1.0,360.0,10.0,0.0
813,65.0,0.0,240.0,15.0,0.0
814,64.0,1.0,60.0,5.0,0.0
815,64.0,0.0,120.0,11.0,0.0
816,65.0,0.0,60.0,4.0,0.0
817,57.0,0.0,240.0,12.0,0.0
818,57.0,0.0,240.0,15.0,0.0
819,36.0,0.0,15.0,8.0,0.0
820,48.0,0.0,240.0,13.0,0.0
821,65.0,0.0,60.0,4.0,0.0
822,64.0,1.0,60.0,5.0,0.0
823,48.0,0.0,15.0,7.0,0.0
824,57.0,59.0,15.0,6.0,0.0
825,62.0,0.0,60.0,5.0,0.0
826,65.0,1.0,60.0,4.0,0.0
827,62.0,0.0,120.0,15.0,0.0
828,62.0,0.0,240.0,11.0,0.0
829,48.0,0.0,15.0,15.0,0.0
830,36.0,59.0,15.0,8.0,0.0
831,57.0,0.0,15.0,6.0,0.0
832,48.0,59.0,60.0,15.0,0.0
833,65.0,1.0,60.0,4.0,0.0
834,57.0,59.0,15.0,6.0,0.0
835,62.0,0.0,60.0,5.0,0.0
836,48.0,0.0,15.0,7.0,0.0
837,36.0,0.0,60.0,8.0,0.0
838,65.0,0.0,240.0,15.0,0.0
839,56.0,0.0,240.0,15.0,0.0
840,62.0,0.0,60.0,5.0,0.0
841,35.0,0.0,60.0,8.0,0.0
842,65.0,1.0,60.0,4.0,0.0
843,56.0,0.0,60.0,6.0,0.0
844,56.0,0.0,240.0,12.0,0.0
845,62.0,0.0,240.0,15.0,0.0
846,47.0,0.0,240.0,13.0,0.0
847,62.0,0.0,60.0,5.0,0.0
848,65.0,0.0,60.0,4.0,0.0
849,47.0,0.0,15.0,15.0,0.0
850,47.0,59.0,15.0,7.0,0.0
851,56.0,0.0,15.0,6.0,0.0
852,35.0,0.0,15.0,8.0,0.0
853,62.0,0.0,60.0,5.0,0.0
854,65.0,1.0,60.0,4.0,0.0
855,65.0,0.0,120.0,10.0,0.0
856,62.0,0.0,120.0,11.0,0.0
857,47.0,59.0,15.0,15.0,0.0
858,47.0,59.0,15.0,7.0,0.0
859,65.0,1.0,60.0,4.0,0.0
860,47.0,59.0,60.0,15.0,0.0
861,62.0,0.0,60.0,5.0,0.0
862,56.0,0.0,60.0,6.0,0.0
863,66.0,0.0,120.0,15.0,0.0
864,57.0,0.0,60.0,6.0,0.0
865,35.0,0.0,15.0,8.0,0.0
866,66.0,0.0,60.0,4.0,0.0
867,47.0,0.0,15.0,7.0,0.0
868,57.0,0.0,120.0,15.0,0.0
869,63.0,1.0,60.0,5.0,0.0
870,47.0,0.0,480.0,13.0,0.0
871,63.0,0.0,120.0,15.0,0.0
872,57.0,0.0,120.0,12.0,0.0
873,66.0,0.0,120.0,10.0,0.0
874,63.0,0.0,120.0,11.0,0.0
875,35.0,59.0,15.0,8.0,0.0
876,47.0,0.0,15.0,15.0,0.0
877,66.0,1.0,60.0,4.0,0.0
878,57.0,0.0,60.0,6.0,0.0
879,63.0,0.0,60.0,5.0,0.0
880,47.0,0.0,15.0,7.0,0.0
881,67.0,0.0,120.0,10.0,0.0
882,55.0,0.0,120.0,15.0,0.0
883,64.0,0.0,120.0,15.0,0.0
884,55.0,30.0,90.0,12.0,0.0
885,67.0,0.0,120.0,15.0,0.0
886,47.0,59.0,15.0,7.0,0.0
887,64.0,0.0,240.0,11.0,0.0
888,55.0,0.0,60.0,6.0,0.0
889,64.0,1.0,60.0,5.0,0.0
890,35.0,0.0,15.0,8.0,0.0
891,67.0,0.0,60.0,4.0,0.0
892,47.0,0.0,15.0,7.0,0.0
893,47.0,29.0,15.0,15.0,0.0
894,57.0,0.0,60.0,6.0,0.0
895,64.0,0.0,60.0,5.0,0.0
896,67.0,1.0,60.0,4.0,0.0
897,57.0,0.0,30.0,12.0,0.0
898,64.0,0.0,60.0,5.0,0.0
899,47.0,0.0,15.0,15.0,0.0
900,59.0,59.0,60.0,6.0,0.0
901,35.0,0.0,15.0,8.0,0.0
902,66.0,1.0,60.0,4.0,0.0
903,59.0,0.0,180.0,12.0,0.0
904,64.0,0.0,120.0,15.0,0.0
905,47.0,59.0,15.0,7.0,0.0
906,66.0,0.0,240.0,15.0,0.0
907,66.0,0.0,240.0,10.0,0.0
908,35.0,0.0,15.0,8.0,0.0
909,47.0,0.0,15.0,15.0,0.0
910,66.0,1.0,60.0,4.0,0.0
911,64.0,0.0,60.0,5.0,0.0
912,59.0,59.0,15.0,6.0,0.0
913,63.0,0.0,120.0,11.0,0.0
914,63.0,1.0,60.0,5.0,0.0
915,62.0,0.0,120.0,15.0,0.0
916,47.0,0.0,15.0,7.0,0.0
917,66.0,0.0,60.0,4.0,0.0
918,35.0,59.0,15.0,8.0,0.0
919,57.0,0.0,60.0,6.0,0.0
920,66.0,0.0,60.0,4.0,0.0
921,47.0,0.0,15.0,15.0,0.0
922,57.0,1.0,60.0,12.0,0.0
923,47.0,0.0,60.0,7.0,0.0
924,63.0,0.0,60.0,5.0,0.0
925,55.0,0.0,120.0,12.0,0.0
926,52.0,0.0,60.0,7.0,0.0
927,64.0,0.0,120.0,11.0,0.0
928,64.0,1.0,120.0,10.0,0.0
929,64.0,30.0,150.0,4.0,0.0
930,64.0,1.0,60.0,5.0,0.0
931,52.0,30.0,60.0,15.0,0.0
932,40.0,0.0,60.0,8.0,0.0
933,52.0,0.0,120.0,13.0,0.0
934,55.0,29.0,30.0,6.0,0.0
935,52.0,0.0,30.0,6.0,0.0
936,52.0,0.0,60.0,8.0,0.0
937,64.0,29.0,60.0,7.0,0.0
938,55.0,29.0,30.0,6.0,0.0
939,67.0,0.0,60.0,5.0,0.0
940,64.0,0.0,60.0,15.0,0.0
941,59.0,0.0,30.0,6.0,0.0
942,67.0,29.0,60.0,15.0,0.0
943,67.0,0.0,60.0,7.0,0.0
944,64.0,0.0,120.0,6.0,0.0
945,55.0,0.0,60.0,8.0,0.0
946,71.0,0.0,60.0,5.0,0.0
947,67.0,1.0,30.0,4.0,0.0
948,71.0,30.0,30.0,4.0,0.0
949,64.0,0.0,60.0,7.0,0.0
950,52.0,30.0,60.0,8.0,0.0
951,67.0,1.0,60.0,5.0,0.0
952,64.0,0.0,60.0,15.0,0.0
953,76.0,0.0,30.0,4.0,0.0
954,77.0,30.0,150.0,4.0,0.0
955,62.0,30.0,30.0,6.0,0.0
956,55.0,30.0,30.0,6.0,0.0
957,62.0,29.0,60.0,15.0,0.0
958,50.0,0.0,60.0,8.0,0.0
959,77.0,1.0,180.0,15.0,0.0
960,67.0,0.0,180.0,15.0,0.0
961,71.0,0.0,180.0,15.0,0.0
962,74.0,0.0,180.0,15.0,0.0
963,65.0,1.0,60.0,5.0,0.0
964,62.0,0.0,60.0,7.0,0.0
965,59.0,29.0,30.0,6.0,0.0
966,62.0,0.0,30.0,6.0,0.0
967,65.0,0.0,60.0,15.0,0.0
968,67.0,30.0,150.0,6.0,0.0
969,65.0,29.0,60.0,7.0,0.0
970,53.0,0.0,60.0,8.0,0.0
971,71.0,1.0,60.0,5.0,0.0
972,62.0,0.0,30.0,4.0,0.0
973,50.0,0.0,60.0,8.0,0.0
974,62.0,30.0,60.0,7.0,0.0
975,62.0,0.0,60.0,15.0,0.0
976,65.0,30.0,30.0,4.0,0.0
977,65.0,0.0,60.0,5.0,0.0
978,71.0,0.0,30.0,4.0,0.0
979,72.0,0.0,120.0,10.0,0.0
980,72.0,30.0,150.0,4.0,0.0
981,52.0,30.0,30.0,6.0,0.0
982,55.0,29.0,30.0,6.0,0.0
983,60.0,0.0,60.0,15.0,0.0
984,76.0,0.0,180.0,15.0,0.0
985,67.0,0.0,180.0,15.0,0.0
986,60.0,0.0,60.0,7.0,0.0
987,48.0,29.0,60.0,8.0,0.0
988,72.0,0.0,180.0,15.0,0.0
989,64.0,1.0,60.0,5.0,0.0
990,60.0,0.0,30.0,6.0,0.0
991,67.0,0.0,60.0,5.0,0.0
992,72.0,0.0,60.0,10.0,0.0
993,64.0,0.0,60.0,15.0,0.0
994,64.0,30.0,150.0,6.0,0.0
995,64.0,0.0,60.0,7.0,0.0
996,52.0,29.0,60.0,8.0,0.0
997,64.0,1.0,30.0,4.0,0.0
998,64.0,1.0,60.0,5.0,0.0
999,60.0,0.0,60.0,7.0,0.0
1000,67.0,30.0,30.0,4.0,0.0
1001,72.0,0.0,60.0,10.0,0.0
1002,48.0,0.0,60.0,8.0,0.0
1003,60.0,30.0,60.0,15.0,0.0
1004,72.0,0.0,30.0,4.0,0.0
1005,72.0,1.0,120.0,11.0,0.0
1006,76.0,30.0,150.0,4.0,0.0
1007,60.0,0.0,120.0,12.0,0.0
1008,76.0,0.0,120.0,10.0,0.0
1009,57.0,0.0,120.0,13.0,0.0
1010,57.0,30.0,30.0,6.0,0.0
1011,57.0,0.0,60.0,7.0,0.0
1012,45.0,29.0,60.0,8.0,0.0
1013,60.0,0.0,60.0,5.0,0.0
1014,60.0,29.0,30.0,6.0,0.0
1015,57.0,0.0,60.0,15.0,0.0
1016,72.0,0.0,180.0,15.0,0.0
1017,76.0,0.0,180.0,15.0,0.0
1018,69.0,0.0,180.0,15.0,0.0
1019,64.0,0.0,30.0,6.0,0.0
1020,60.0,29.0,60.0,7.0,0.0
1021,64.0,1.0,60.0,5.0,0.0
1022,57.0,0.0,60.0,13.0,0.0
1023,69.0,0.0,120.0,6.0,0.0
1024,60.0,0.0,60.0,15.0,0.0
1025,60.0,0.0,60.0,12.0,0.0
1026,76.0,0.0,60.0,10.0,0.0
1027,72.0,0.0,60.0,11.0,0.0
1028,48.0,0.0,60.0,8.0,0.0
1029,69.0,0.0,30.0,4.0,0.0
1030,60.0,0.0,60.0,5.0,0.0
1031,72.0,0.0,60.0,11.0,0.0
1032,57.0,0.0,60.0,15.0,0.0
1033,60.0,0.0,60.0,12.0,0.0
1034,57.0,30.0,60.0,7.0,0.0
1035,72.0,30.0,30.0,4.0,0.0
1036,45.0,0.0,60.0,8.0,0.0
1037,57.0,0.0,60.0,13.0,0.0
1038,76.0,0.0,60.0,10.0,0.0
1039,76.0,1.0,30.0,4.0,0.0
1040,79.0,1.0,240.0,10.0,0.0
1041,79.0,30.0,150.0,4.0,0.0
1042,72.0,1.0,120.0,11.0,0.0
1043,79.0,0.0,240.0,15.0,0.0
1044,72.0,0.0,60.0,15.0,0.0
1045,62.0,1.0,60.0,15.0,0.0
1046,55.0,0.0,240.0,13.0,0.0
1047,62.0,29.0,30.0,6.0,0.0
1048,62.0,0.0,240.0,12.0,0.0
1049,55.0,30.0,30.0,6.0,0.0
1050,43.0,29.0,60.0,8.0,0.0
1051,55.0,0.0,60.0,15.0,0.0
1052,71.0,0.0,180.0,15.0,0.0
1053,55.0,0.0,60.0,7.0,0.0
1054,72.0,0.0,60.0,5.0,0.0
1055,60.0,29.0,30.0,6.0,0.0
1056,62.0,0.0,180.0,15.0,0.0
1057,62.0,0.0,30.0,6.0,0.0
1058,67.0,30.0,150.0,6.0,0.0
1059,47.0,29.0,60.0,8.0,0.0
1060,71.0,0.0,60.0,5.0,0.0
1061,59.0,0.0,60.0,7.0,0.0
1062,59.0,0.0,60.0,15.0,0.0
1063,71.0,0.0,120.0,11.0,0.0
1064,71.0,1.0,30.0,4.0,0.0
1065,74.0,30.0,30.0,4.0,0.0
1066,55.0,0.0,60.0,7.0,0.0
1067,74.0,0.0,60.0,5.0,0.0
1068,55.0,0.0,60.0,15.0,0.0
1069,43.0,30.0,60.0,8.0,0.0
1070,79.0,0.0,30.0,4.0,0.0
1071,76.0,1.0,120.0,10.0,0.0
1072,76.0,30.0,150.0,4.0,0.0
1073,64.0,0.0,120.0,12.0,0.0
1074,60.0,0.0,120.0,13.0,0.0
1075,72.0,0.0,120.0,11.0,0.0
1076,60.0,30.0,30.0,6.0,0.0
1077,64.0,29.0,30.0,6.0,0.0
1078,48.0,0.0,60.0,8.0,0.0
1079,64.0,0.0,60.0,5.0,0.0
1080,60.0,29.0,60.0,7.0,0.0
1081,60.0,0.0,60.0,15.0,0.0
1082,67.0,0.0,30.0,6.0,0.0
1083,52.0,0.0,60.0,8.0,0.0
1084,67.0,1.0,60.0,5.0,0.0
1085,64.0,0.0,60.0,7.0,0.0
1086,64.0,29.0,60.0,15.0,0.0
1087,72.0,29.0,120.0,6.0,0.0
1088,72.0,0.0,30.0,4.0,0.0
1089,72.0,0.0,60.0,10.0,0.0
1090,60.0,0.0,60.0,7.0,0.0
1091,60.0,1.0,60.0,13.0,0.0
1092,60.0,0.0,60.0,1.0,0.0
1093,72.0,0.0,60.0,0.0,0.0
1094,60.0,0.0,60.0,12.0,0.0
1095,72.0,0.0,60.0,3.0,0.0
1096,48.0,0.0,60.0,8.0,0.0
1097,60.0,0.0,60.0,15.0,0.0
1098,64.0,0.0,60.0,5.0,0.0
1099,60.0,0.0,60.0,3.0,0.0
1100,72.0,0.0,60.0,11.0,0.0
1101,76.0,30.0,30.0,4.0,0.0
1102,79.0,0.0,30.0,4.0,0.0
1103,70.0,0.0,120.0,12.0,0.0
1104,70.0,0.0,120.0,3.0,0.0
1105,70.0,0.0,120.0,0.0,0.0
1106,46.0,29.0,30.0,7.0,0.0
1107,58.0,0.0,120.0,13.0,0.0
1108,34.0,0.0,30.0,8.0,0.0
1109,58.0,0.0,120.0,1.0,0.0
1110,58.0,0.0,120.0,3.0,0.0
1111,46.0,0.0,30.0,15.0,0.0
1112,70.0,0.0,30.0,6.0,0.0
1113,82.0,0.0,120.0,10.0,0.0
1114,82.0,1.0,30.0,5.0,0.0
1115,70.0,1.0,120.0,15.0,0.0
1116,70.0,0.0,120.0,11.0,0.0
1117,82.0,0.0,30.0,4.0,0.0
1118,70.0,1.0,30.0,5.0,0.0
1119,70.0,0.0,30.0,4.0,0.0
1120,58.0,0.0,30.0,6.0,0.0
1121,58.0,29.0,30.0,15.0,0.0
1122,58.0,0.0,15.0,7.0,0.0
1123,46.0,0.0,15.0,8.0,0.0
1124,70.0,1.0,30.0,5.0,0.0
1125,58.0,0.0,30.0,6.0,0.0
1126,70.0,0.0,30.0,4.0,0.0
1127,58.0,0.0,30.0,15.0,0.0
1128,70.0,0.0,30.0,4.0,0.0
1129,70.0,0.0,30.0,5.0,0.0
1130,58.0,29.0,30.0,7.0,0.0
1131,46.0,29.0,15.0,8.0,0.0
1132,58.0,0.0,30.0,15.0,0.0
1133,58.0,0.0,30.0,6.0,0.0
1134,69.0,0.0,60.0,11.0,0.0
1135,33.0,0.0,30.0,8.0,0.0
1136,69.0,0.0,60.0,3.0,0.0
1137,69.0,0.0,30.0,6.0,0.0
1138,81.0,1.0,30.0,5.0,0.0
1139,81.0,0.0,30.0,4.0,0.0
1140,45.0,0.0,30.0,15.0,0.0
1141,57.0,1.0,60.0,1.0,0.0
1142,45.0,29.0,30.0,7.0,0.0
1143,69.0,0.0,60.0,12.0,0.0
1144,57.0,0.0,60.0,13.0,0.0
1145,69.0,0.0,60.0,0.0,0.0
1146,69.0,0.0,120.0,15.0,0.0
1147,81.0,0.0,60.0,10.0,0.0
1148,57.0,0.0,60.0,3.0,0.0
1149,69.0,0.0,30.0,5.0,0.0
1150,69.0,0.0,30.0,4.0,0.0
1151,57.0,0.0,30.0,15.0,0.0
1152,45.0,0.0,15.0,8.0,0.0
1153,57.0,0.0,15.0,6.0,0.0
1154,69.0,0.0,60.0,11.0,0.0
1155,57.0,0.0,60.0,13.0,0.0
1156,81.0,0.0,60.0,10.0,0.0
1157,69.0,0.0,30.0,5.0,0.0
1158,69.0,0.0,60.0,12.0,0.0
1159,57.0,1.0,60.0,3.0,0.0
1160,57.0,29.0,15.0,7.0,0.0
1161,69.0,1.0,30.0,4.0,0.0
1162,69.0,0.0,60.0,3.0,0.0
1163,57.0,0.0,60.0,1.0,0.0
1164,69.0,0.0,60.0,0.0,0.0
1165,57.0,0.0,15.0,15.0,0.0
1166,45.0,0.0,30.0,8.0,0.0
1167,57.0,29.0,15.0,6.0,0.0
1168,69.0,0.0,30.0,5.0,0.0
1169,57.0,0.0,15.0,7.0,0.0
1170,69.0,0.0,30.0,4.0,0.0
1171,44.0,0.0,30.0,7.0,0.0
1172,32.0,0.0,30.0,8.0,0.0
1173,68.0,0.0,120.0,12.0,0.0
1174,80.0,0.0,120.0,10.0,0.0
1175,68.0,0.0,120.0,11.0,0.0
1176,80.0,0.0,30.0,4.0,0.0
1177,56.0,0.0,120.0,3.0,0.0
1178,68.0,0.0,120.0,0.0,0.0
1179,56.0,0.0,120.0,13.0,0.0
1180,68.0,0.0,30.0,6.0,0.0
1181,80.0,1.0,30.0,5.0,0.0
1182,68.0,0.0,120.0,3.0,0.0
1183,44.0,29.0,30.0,15.0,0.0
1184,56.0,1.0,120.0,1.0,0.0
1185,68.0,0.0,120.0,15.0,0.0
1186,56.0,0.0,30.0,15.0,0.0
1187,56.0,0.0,30.0,7.0,0.0
1188,68.0,1.0,30.0,5.0,0.0
1189,68.0,0.0,30.0,4.0,0.0
1190,68.0,0.0,30.0,4.0,0.0
1191,56.0,0.0,15.0,6.0,0.0
1192,44.0,29.0,15.0,8.0,0.0
1193,56.0,0.0,30.0,7.0,0.0
1194,68.0,1.0,30.0,5.0,0.0
1195,56.0,0.0,30.0,15.0,0.0
1196,68.0,0.0,30.0,4.0,0.0
1197,56.0,0.0,30.0,7.0,0.0
1198,44.0,59.0,30.0,8.0,0.0
1199,68.0,0.0,30.0,5.0,0.0
1200,56.0,0.0,30.0,15.0,0.0
1201,56.0,0.0,30.0,6.0,0.0
1202,57.0,0.0,60.0,7.0,0.0
1203,69.0,0.0,60.0,6.0,0.0
1204,57.0,1.0,60.0,3.0,0.0
1205,69.0,0.0,60.0,11.0,0.0
1206,81.0,0.0,60.0,10.0,0.0
1207,69.0,0.0,60.0,3.0,0.0
1208,69.0,0.0,60.0,0.0,0.0
1209,69.0,0.0,60.0,12.0,0.0
1210,57.0,0.0,60.0,15.0,0.0
1211,81.0,0.0,60.0,5.0,0.0
1212,45.0,120.0,60.0,8.0,0.0
1213,57.0,0.0,60.0,1.0,0.0
1214,57.0,0.0,60.0,13.0,0.0
1215,81.0,0.0,60.0,4.0,0.0
1216,74.0,30.0,150.0,4.0,0.0
1217,74.0,1.0,120.0,10.0,0.0
1218,62.0,30.0,30.0,6.0,0.0
1219,74.0,0.0,180.0,15.0,0.0
1220,62.0,0.0,60.0,15.0,0.0
1221,50.0,0.0,60.0,8.0,0.0
1222,77.0,1.0,180.0,15.0,0.0
1223,69.0,0.0,180.0,15.0,0.0
1224,65.0,0.0,60.0,5.0,0.0
1225,65.0,29.0,30.0,6.0,0.0
1226,62.0,29.0,60.0,7.0,0.0
1227,69.0,0.0,30.0,6.0,0.0
1228,74.0,0.0,60.0,10.0,0.0
1229,65.0,0.0,60.0,15.0,0.0
1230,62.0,30.0,150.0,6.0,0.0
1231,69.0,1.0,60.0,5.0,0.0
1232,65.0,29.0,60.0,7.0,0.0
1233,53.0,0.0,60.0,8.0,0.0
1234,65.0,0.0,30.0,4.0,0.0
1235,69.0,30.0,30.0,4.0,0.0
1236,65.0,0.0,60.0,5.0,0.0
1237,62.0,0.0,60.0,15.0,0.0
1238,50.0,0.0,60.0,8.0,0.0
1239,74.0,0.0,60.0,10.0,0.0
1240,62.0,30.0,60.0,7.0,0.0
1241,74.0,0.0,30.0,4.0,0.0
1242,58.0,0.0,120.0,13.0,0.0
1243,77.0,30.0,150.0,4.0,0.0
1244,77.0,1.0,120.0,10.0,0.0
1245,74.0,0.0,120.0,11.0,0.0
1246,68.0,0.0,120.0,12.0,0.0
1247,59.0,30.0,30.0,6.0,0.0
1248,46.0,0.0,60.0,8.0,0.0
1249,58.0,0.0,60.0,15.0,0.0
1250,62.0,0.0,60.0,5.0,0.0
1251,62.0,29.0,30.0,6.0,0.0
1252,68.0,0.0,180.0,15.0,0.0
1253,58.0,0.0,60.0,7.0,0.0
1254,74.0,0.0,180.0,15.0,0.0
1255,77.0,0.0,180.0,15.0,0.0
1256,68.0,29.0,30.0,6.0,0.0
1257,58.0,0.0,60.0,13.0,0.0
1258,74.0,0.0,60.0,11.0,0.0
1259,62.0,0.0,60.0,7.0,0.0
1260,77.0,1.0,60.0,10.0,0.0
1261,65.0,0.0,60.0,5.0,0.0
1262,59.0,29.0,60.0,6.0,0.0
1263,62.0,0.0,60.0,15.0,0.0
1264,68.0,0.0,60.0,12.0,0.0
1265,50.0,0.0,60.0,8.0,0.0
1266,68.0,0.0,30.0,4.0,0.0
1267,77.0,0.0,60.0,10.0,0.0
1268,74.0,0.0,60.0,11.0,0.0
1269,58.0,0.0,60.0,15.0,0.0
1270,58.0,0.0,60.0,13.0,0.0
1271,58.0,29.0,60.0,7.0,0.0
1272,74.0,30.0,30.0,4.0,0.0
1273,62.0,0.0,60.0,5.0,0.0
1274,46.0,0.0,60.0,8.0,0.0
1275,68.0,0.0,60.0,12.0,0.0
1276,77.0,1.0,30.0,4.0,0.0
1277,74.0,0.0,120.0,15.0,0.0
1278,81.0,0.0,240.0,15.0,0.0
1279,81.0,0.0,240.0,10.0,0.0
1280,74.0,0.0,120.0,11.0,0.0
1281,57.0,0.0,240.0,13.0,0.0
1282,65.0,0.0,120.0,15.0,0.0
1283,65.0,0.0,120.0,12.0,0.0
1284,81.0,30.0,150.0,4.0,0.0
1285,57.0,30.0,30.0,6.0,0.0
1286,62.0,30.0,30.0,6.0,0.0
1287,57.0,29.0,60.0,7.0,0.0
1288,65.0,30.0,30.0,6.0,0.0
1289,57.0,0.0,60.0,15.0,0.0
1290,65.0,0.0,60.0,5.0,0.0
1291,45.0,0.0,60.0,8.0,0.0
1292,69.0,1.0,30.0,6.0,0.0
1293,61.0,29.0,60.0,15.0,0.0
1294,64.0,0.0,120.0,12.0,0.0
1295,64.0,0.0,120.0,15.0,0.0
1296,49.0,0.0,60.0,8.0,0.0
1297,57.0,30.0,150.0,6.0,0.0
1298,64.0,1.0,60.0,5.0,0.0
1299,73.0,1.0,120.0,11.0,0.0
1300,61.0,0.0,60.0,7.0,0.0
1301,73.0,0.0,120.0,15.0,0.0
1302,73.0,0.0,30.0,4.0,0.0
1303,76.0,30.0,30.0,4.0,0.0
1304,61.0,0.0,60.0,5.0,0.0
1305,45.0,0.0,60.0,8.0,0.0
1306,57.0,0.0,60.0,7.0,0.0
1307,57.0,29.0,60.0,15.0,0.0
1308,81.0,0.0,30.0,4.0,0.0
1309,78.0,30.0,150.0,4.0,0.0
1310,74.0,0.0,240.0,15.0,0.0
1311,62.0,0.0,120.0,12.0,0.0
1312,50.0,0.0,120.0,13.0,0.0
1313,69.0,0.0,240.0,15.0,0.0
1314,78.0,1.0,120.0,10.0,0.0
1315,78.0,0.0,240.0,15.0,0.0
1316,74.0,0.0,120.0,11.0,0.0
1317,62.0,30.0,30.0,6.0,0.0
1318,62.0,0.0,60.0,15.0,0.0
1319,50.0,29.0,60.0,8.0,0.0
1320,62.0,0.0,60.0,7.0,0.0
1321,66.0,0.0,60.0,5.0,0.0
1322,66.0,30.0,30.0,6.0,0.0
1323,69.0,0.0,30.0,6.0,0.0
1324,66.0,29.0,60.0,7.0,0.0
1325,69.0,1.0,60.0,5.0,0.0
1326,57.0,0.0,120.0,6.0,0.0
1327,66.0,0.0,60.0,15.0,0.0
1328,54.0,0.0,60.0,8.0,0.0
1329,66.0,0.0,30.0,4.0,0.0
1330,62.0,0.0,60.0,1.0,0.0
1331,69.0,30.0,30.0,4.0,0.0
1332,62.0,0.0,60.0,12.0,0.0
1333,74.0,0.0,60.0,11.0,0.0
1334,62.0,0.0,60.0,15.0,0.0
1335,74.0,1.0,60.0,3.0,0.0
1336,62.0,0.0,60.0,13.0,0.0
1337,62.0,29.0,60.0,7.0,0.0
1338,66.0,0.0,60.0,5.0,0.0
1339,62.0,0.0,60.0,3.0,0.0
1340,50.0,0.0,60.0,8.0,0.0
1341,74.0,0.0,60.0,10.0,0.0
1342,74.0,0.0,60.0,0.0,0.0
1343,74.0,0.0,30.0,4.0,0.0
1344,84.0,1.0,30.0,4.0,0.0
1345,72.0,0.0,120.0,11.0,0.0
1346,84.0,0.0,120.0,10.0,0.0
1347,60.0,0.0,120.0,1.0,0.0
1348,72.0,0.0,120.0,3.0,0.0
1349,48.0,0.0,30.0,7.0,0.0
1350,48.0,29.0,30.0,15.0,0.0
1351,36.0,0.0,30.0,8.0,0.0
1352,84.0,0.0,30.0,5.0,0.0
1353,72.0,0.0,120.0,15.0,0.0
1354,72.0,0.0,120.0,0.0,0.0
1355,60.0,1.0,120.0,12.0,0.0
1356,72.0,0.0,30.0,6.0,0.0
1357,60.0,0.0,120.0,3.0,0.0
1358,60.0,0.0,120.0,13.0,0.0
1359,60.0,0.0,30.0,6.0,0.0
1360,72.0,0.0,30.0,5.0,0.0
1361,72.0,1.0,30.0,4.0,0.0
1362,48.0,0.0,15.0,8.0,0.0
1363,72.0,0.0,30.0,5.0,0.0
1364,60.0,0.0,15.0,15.0,0.0
1365,60.0,1.0,30.0,6.0,0.0
1366,60.0,29.0,15.0,7.0,0.0
1367,72.0,0.0,30.0,4.0,0.0
1368,60.0,0.0,30.0,15.0,0.0
1369,72.0,0.0,30.0,5.0,0.0
1370,60.0,0.0,30.0,6.0,0.0
1371,48.0,29.0,15.0,8.0,0.0
1372,60.0,0.0,30.0,7.0,0.0
1373,72.0,0.0,30.0,4.0,0.0
1374,83.0,0.0,60.0,10.0,0.0
1375,71.0,0.0,60.0,0.0,0.0
1376,47.0,0.0,30.0,7.0,0.0
1377,71.0,1.0,60.0,11.0,0.0
1378,71.0,1.0,30.0,6.0,0.0
1379,59.0,0.0,60.0,3.0,0.0
1380,83.0,0.0,30.0,5.0,0.0
1381,35.0,0.0,30.0,8.0,0.0
1382,59.0,0.0,60.0,13.0,0.0
1383,83.0,0.0,30.0,4.0,0.0
1384,59.0,0.0,60.0,1.0,0.0
1385,71.0,0.0,120.0,15.0,0.0
1386,47.0,29.0,30.0,15.0,0.0
1387,59.0,0.0,60.0,12.0,0.0
1388,71.0,0.0,60.0,3.0,0.0
1389,71.0,0.0,30.0,5.0,0.0
1390,71.0,0.0,30.0,4.0,0.0
1391,59.0,0.0,30.0,6.0,0.0
1392,47.0,0.0,15.0,8.0,0.0
1393,59.0,0.0,15.0,15.0,0.0
1394,59.0,29.0,15.0,7.0,0.0
1395,71.0,1.0,30.0,5.0,0.0
1396,71.0,0.0,30.0,4.0,0.0
1397,71.0,0.0,60.0,3.0,0.0
1398,83.0,0.0,60.0,10.0,0.0
1399,59.0,0.0,60.0,13.0,0.0
1400,59.0,0.0,30.0,6.0,0.0
1401,59.0,0.0,60.0,1.0,0.0
1402,59.0,0.0,60.0,3.0,0.0
1403,59.0,0.0,60.0,12.0,0.0
1404,71.0,0.0,60.0,11.0,0.0
1405,71.0,0.0,60.0,0.0,0.0
1406,71.0,1.0,30.0,5.0,0.0
1407,47.0,0.0,30.0,8.0,0.0
1408,59.0,29.0,15.0,15.0,0.0
1409,59.0,0.0,30.0,6.0,0.0
1410,71.0,0.0,30.0,4.0,0.0
1411,59.0,0.0,30.0,7.0,0.0
1412,70.0,1.0,30.0,6.0,0.0
1413,46.0,0.0,30.0,15.0,0.0
1414,82.0,0.0,30.0,5.0,0.0
1415,70.0,1.0,120.0,11.0,0.0
1416,70.0,0.0,120.0,3.0,0.0
1417,58.0,0.0,120.0,1.0,0.0
1418,82.0,0.0,120.0,10.0,0.0
1419,70.0,0.0,120.0,0.0,0.0
1420,58.0,0.0,120.0,3.0,0.0
1421,82.0,0.0,30.0,4.0,0.0
1422,70.0,0.0,120.0,15.0,0.0
1423,46.0,0.0,30.0,7.0,0.0
1424,58.0,0.0,120.0,13.0,0.0
1425,58.0,0.0,120.0,12.0,0.0
1426,34.0,29.0,30.0,8.0,0.0
1427,70.0,1.0,30.0,5.0,0.0
1428,58.0,0.0,30.0,15.0,0.0
1429,58.0,0.0,30.0,6.0,0.0
1430,70.0,0.0,30.0,4.0,0.0
1431,58.0,0.0,15.0,7.0,0.0
1432,46.0,29.0,15.0,8.0,0.0
1433,58.0,0.0,30.0,6.0,0.0
1434,70.0,0.0,30.0,5.0,0.0
1435,70.0,1.0,30.0,4.0,0.0
1436,58.0,0.0,15.0,7.0,0.0
1437,58.0,29.0,15.0,15.0,0.0
1438,58.0,0.0,30.0,6.0,0.0
1439,46.0,0.0,15.0,8.0,0.0
1440,70.0,0.0,30.0,4.0,0.0
1441,70.0,0.0,30.0,5.0,0.0
1442,71.0,0.0,60.0,11.0,0.0
1443,59.0,0.0,60.0,15.0,0.0
1444,59.0,89.0,60.0,7.0,0.0
1445,83.0,0.0,60.0,10.0,0.0
1446,59.0,0.0,60.0,13.0,0.0
1447,59.0,0.0,60.0,3.0,0.0
1448,59.0,0.0,60.0,12.0,0.0
1449,71.0,0.0,60.0,0.0,0.0
1450,83.0,0.0,60.0,5.0,0.0
1451,47.0,0.0,60.0,8.0,0.0
1452,59.0,0.0,60.0,1.0,0.0
1453,71.0,0.0,60.0,6.0,0.0
1454,83.0,1.0,60.0,4.0,0.0
1455,71.0,0.0,60.0,3.0,0.0
1456,47.0,0.0,30.0,15.0,0.0
1457,71.0,0.0,120.0,15.0,0.0
1458,66.0,0.0,120.0,15.0,0.0
1459,63.0,0.0,120.0,15.0,0.0
1460,35.0,30.0,30.0,8.0,0.0
1461,66.0,0.0,120.0,1.0,0.0
1462,59.0,0.0,30.0,6.0,0.0
1463,47.0,0.0,30.0,7.0,0.0
1464,47.0,0.0,30.0,1.0,0.0
1465,59.0,0.0,30.0,5.0,0.0
1466,59.0,0.0,30.0,4.0,0.0
1467,75.0,0.0,120.0,0.0,0.0
1468,71.0,0.0,240.0,0.0,0.0
1469,51.0,0.0,30.0,7.0,0.0
1470,63.0,0.0,30.0,6.0,0.0
1471,63.0,0.0,30.0,4.0,0.0
1472,51.0,30.0,30.0,1.0,0.0
1473,63.0,0.0,30.0,5.0,0.0
1474,39.0,0.0,30.0,8.0,0.0
1475,51.0,0.0,30.0,15.0,0.0
1476,42.0,30.0,30.0,8.0,0.0
1477,54.0,0.0,30.0,1.0,0.0
1478,66.0,0.0,30.0,6.0,0.0
1479,54.0,0.0,30.0,7.0,0.0
1480,66.0,0.0,30.0,5.0,0.0
1481,54.0,0.0,30.0,15.0,0.0
1482,66.0,0.0,30.0,4.0,0.0
1483,59.0,0.0,30.0,15.0,0.0
1484,71.0,0.0,30.0,4.0,0.0
1485,71.0,0.0,30.0,5.0,0.0
1486,59.0,0.0,30.0,7.0,0.0
1487,47.0,0.0,30.0,8.0,0.0
1488,71.0,0.0,30.0,6.0,0.0
1489,59.0,30.0,30.0,1.0,0.0
1490,67.0,0.0,30.0,5.0,0.0
1491,71.0,0.0,120.0,15.0,0.0
1492,71.0,0.0,60.0,12.0,0.0
1493,43.0,0.0,30.0,8.0,0.0
1494,76.0,0.0,120.0,0.0,0.0
1495,71.0,0.0,60.0,3.0,0.0
1496,67.0,0.0,30.0,6.0,0.0
1497,67.0,0.0,120.0,15.0,0.0
1498,55.0,0.0,30.0,15.0,0.0
1499,64.0,0.0,120.0,15.0,0.0
1500,55.0,0.0,30.0,7.0,0.0
1501,55.0,30.0,30.0,1.0,0.0
1502,67.0,0.0,120.0,1.0,0.0
1503,67.0,0.0,30.0,4.0,0.0
1504,71.0,0.0,30.0,5.0,0.0
1505,59.0,0.0,30.0,15.0,0.0
1506,47.0,0.0,30.0,8.0,0.0
1507,59.0,0.0,30.0,7.0,0.0
1508,59.0,30.0,30.0,1.0,0.0
1509,71.0,0.0,30.0,6.0,0.0
1510,71.0,0.0,30.0,4.0,0.0
1511,64.0,0.0,30.0,5.0,0.0
1512,71.0,0.0,60.0,3.0,0.0
1513,71.0,30.0,60.0,12.0,0.0
1514,52.0,0.0,30.0,15.0,0.0
1515,64.0,0.0,30.0,6.0,0.0
1516,40.0,0.0,30.0,8.0,0.0
1517,52.0,0.0,30.0,7.0,0.0
1518,52.0,30.0,30.0,1.0,0.0
1519,64.0,0.0,30.0,4.0,0.0
1520,67.0,0.0,30.0,6.0,0.0
1521,55.0,0.0,30.0,1.0,0.0
1522,67.0,0.0,30.0,4.0,0.0
1523,55.0,0.0,30.0,7.0,0.0
1524,43.0,0.0,30.0,8.0,0.0
1525,67.0,0.0,30.0,5.0,0.0
1526,55.0,0.0,30.0,15.0,0.0
1527,69.0,0.0,30.0,5.0,0.0
1528,60.0,0.0,60.0,12.0,0.0
1529,69.0,0.0,30.0,6.0,0.0
1530,76.0,0.0,120.0,15.0,0.0
1531,72.0,0.0,120.0,15.0,0.0
1532,57.0,0.0,30.0,15.0,0.0
1533,69.0,0.0,240.0,0.0,0.0
1534,45.0,0.0,30.0,8.0,0.0
1535,60.0,0.0,120.0,3.0,0.0
1536,72.0,0.0,120.0,0.0,0.0
1537,57.0,0.0,30.0,7.0,0.0
1538,69.0,30.0,30.0,4.0,0.0
1539,57.0,0.0,30.0,1.0,0.0
1540,60.0,0.0,30.0,15.0,0.0
1541,48.0,0.0,30.0,8.0,0.0
1542,60.0,30.0,30.0,1.0,0.0
1543,72.0,0.0,30.0,5.0,0.0
1544,72.0,0.0,30.0,6.0,0.0
1545,60.0,0.0,30.0,7.0,0.0
1546,72.0,0.0,30.0,4.0,0.0
1547,55.0,0.0,30.0,15.0,0.0
1548,67.0,0.0,30.0,6.0,0.0
1549,43.0,0.0,30.0,8.0,0.0
1550,60.0,0.0,30.0,12.0,0.0
1551,67.0,0.0,30.0,5.0,0.0
1552,55.0,0.0,30.0,1.0,0.0
1553,67.0,30.0,30.0,4.0,0.0
1554,55.0,0.0,30.0,7.0,0.0
1555,76.0,0.0,30.0,6.0,0.0
1556,52.0,0.0,30.0,8.0,0.0
1557,64.0,0.0,30.0,15.0,0.0
1558,60.0,0.0,30.0,12.0,0.0
1559,64.0,0.0,30.0,7.0,0.0
1560,64.0,0.0,30.0,1.0,0.0
1561,76.0,0.0,30.0,4.0,0.0
1562,76.0,30.0,30.0,5.0,0.0
1563,54.0,0.0,30.0,1.0,0.0
1564,54.0,0.0,30.0,7.0,0.0
1565,66.0,0.0,120.0,1.0,0.0
1566,69.0,0.0,60.0,3.0,0.0
1567,74.0,0.0,120.0,0.0,0.0
1568,66.0,0.0,30.0,4.0,0.0
1569,69.0,0.0,60.0,12.0,0.0
1570,66.0,0.0,30.0,6.0,0.0
1571,54.0,0.0,30.0,15.0,0.0
1572,69.0,0.0,120.0,15.0,0.0
1573,72.0,0.0,120.0,15.0,0.0
1574,42.0,30.0,30.0,8.0,0.0
1575,74.0,0.0,120.0,15.0,0.0
1576,66.0,0.0,30.0,5.0,0.0
1577,69.0,0.0,30.0,5.0,0.0
1578,69.0,0.0,30.0,6.0,0.0
1579,57.0,0.0,30.0,7.0,0.0
1580,45.0,30.0,30.0,8.0,0.0
1581,69.0,0.0,30.0,4.0,0.0
1582,57.0,0.0,30.0,1.0,0.0
1583,57.0,0.0,30.0,15.0,0.0
1584,69.0,0.0,60.0,12.0,0.0
1585,50.0,0.0,30.0,7.0,0.0
1586,62.0,0.0,30.0,6.0,0.0
1587,38.0,30.0,30.0,8.0,0.0
1588,62.0,0.0,30.0,4.0,0.0
1589,62.0,0.0,30.0,5.0,0.0
1590,50.0,0.0,30.0,15.0,0.0
1591,50.0,0.0,30.0,1.0,0.0
1592,69.0,30.0,60.0,3.0,0.0
1593,42.0,0.0,30.0,8.0,0.0
1594,66.0,0.0,30.0,5.0,0.0
1595,54.0,0.0,30.0,7.0,0.0
1596,54.0,0.0,30.0,15.0,0.0
1597,66.0,0.0,30.0,4.0,0.0
1598,54.0,0.0,30.0,1.0,0.0
1599,66.0,0.0,30.0,6.0,0.0
1600,67.0,0.0,30.0,6.0,0.0
1601,67.0,0.0,30.0,5.0,0.0
1602,74.0,0.0,120.0,0.0,0.0
1603,71.0,30.0,240.0,0.0,0.0
1604,74.0,0.0,120.0,15.0,0.0
1605,71.0,0.0,120.0,15.0,0.0
1606,43.0,0.0,30.0,8.0,0.0
1607,55.0,0.0,30.0,15.0,0.0
1608,55.0,0.0,30.0,7.0,0.0
1609,55.0,0.0,30.0,1.0,0.0
1610,59.0,0.0,90.0,12.0,0.0
1611,67.0,30.0,30.0,4.0,0.0
1612,59.0,0.0,120.0,3.0,0.0
1613,59.0,30.0,30.0,15.0,0.0
1614,71.0,0.0,30.0,6.0,0.0
1615,59.0,0.0,30.0,1.0,0.0
1616,59.0,0.0,30.0,7.0,0.0
1617,71.0,0.0,30.0,5.0,0.0
1618,47.0,0.0,30.0,8.0,0.0
1619,71.0,0.0,30.0,4.0,0.0
1620,66.0,0.0,30.0,4.0,0.0
1621,66.0,0.0,30.0,6.0,0.0
1622,54.0,0.0,30.0,1.0,0.0
1623,54.0,30.0,30.0,7.0,0.0
1624,66.0,0.0,30.0,5.0,0.0
1625,42.0,0.0,30.0,8.0,0.0
1626,54.0,0.0,30.0,15.0,0.0
1627,74.0,0.0,30.0,6.0,0.0
1628,62.0,0.0,30.0,7.0,0.0
1629,62.0,0.0,30.0,15.0,0.0
1630,59.0,0.0,30.0,12.0,0.0
1631,74.0,0.0,30.0,4.0,0.0
1632,62.0,0.0,30.0,1.0,0.0
1633,50.0,0.0,30.0,8.0,0.0
1634,74.0,30.0,30.0,5.0,0.0
1635,67.0,0.0,60.0,3.0,0.0
1636,73.0,0.0,120.0,0.0,0.0
1637,67.0,0.0,120.0,1.0,0.0
1638,64.0,0.0,30.0,5.0,0.0
1639,52.0,30.0,30.0,7.0,0.0
1640,52.0,0.0,30.0,15.0,0.0
1641,67.0,0.0,120.0,15.0,0.0
1642,71.0,0.0,120.0,15.0,0.0
1643,73.0,0.0,120.0,15.0,0.0
1644,64.0,0.0,30.0,6.0,0.0
1645,64.0,0.0,30.0,4.0,0.0
1646,67.0,30.0,60.0,12.0,0.0
1647,52.0,0.0,30.0,1.0,0.0
1648,40.0,0.0,30.0,8.0,0.0
1649,43.0,0.0,30.0,8.0,0.0
1650,67.0,0.0,30.0,5.0,0.0
1651,55.0,0.0,30.0,15.0,0.0
1652,67.0,0.0,30.0,6.0,0.0
1653,55.0,0.0,30.0,1.0,0.0
1654,67.0,0.0,30.0,4.0,0.0
1655,55.0,0.0,30.0,7.0,0.0
1656,61.0,0.0,30.0,4.0,0.0
1657,67.0,0.0,60.0,3.0,0.0
1658,61.0,0.0,30.0,5.0,0.0
1659,49.0,0.0,30.0,7.0,0.0
1660,49.0,0.0,30.0,1.0,0.0
1661,49.0,30.0,30.0,15.0,0.0
1662,67.0,0.0,60.0,12.0,0.0
1663,37.0,0.0,30.0,8.0,0.0
1664,61.0,0.0,30.0,6.0,0.0
1665,64.0,0.0,30.0,4.0,0.0
1666,64.0,0.0,30.0,6.0,0.0
1667,52.0,0.0,30.0,15.0,0.0
1668,52.0,0.0,30.0,7.0,0.0
1669,64.0,0.0,30.0,5.0,0.0
1670,40.0,0.0,30.0,8.0,0.0
1671,52.0,0.0,30.0,1.0,0.0
1672,57.0,0.0,60.0,12.0,0.0
1673,69.0,0.0,120.0,15.0,0.0
1674,66.0,30.0,30.0,6.0,0.0
1675,57.0,30.0,60.0,3.0,0.0
1676,42.0,0.0,30.0,8.0,0.0
1677,54.0,0.0,30.0,15.0,0.0
1678,66.0,0.0,120.0,1.0,0.0
1679,72.0,0.0,120.0,0.0,0.0
1680,54.0,0.0,30.0,1.0,0.0
1681,54.0,0.0,30.0,7.0,0.0
1682,72.0,0.0,120.0,15.0,0.0
1683,66.0,0.0,30.0,5.0,0.0
1684,69.0,0.0,240.0,0.0,0.0
1685,66.0,0.0,30.0,4.0,0.0
1686,69.0,0.0,30.0,5.0,0.0
1687,45.0,0.0,30.0,8.0,0.0
1688,57.0,0.0,30.0,1.0,0.0
1689,69.0,0.0,30.0,6.0,0.0
1690,57.0,0.0,30.0,7.0,0.0
1691,57.0,0.0,30.0,15.0,0.0
1692,69.0,0.0,30.0,4.0,0.0
1693,64.0,0.0,30.0,6.0,0.0
1694,64.0,0.0,30.0,4.0,0.0
1695,52.0,0.0,30.0,1.0,0.0
1696,64.0,0.0,30.0,5.0,0.0
1697,52.0,0.0,30.0,15.0,0.0
1698,40.0,0.0,30.0,8.0,0.0
1699,67.0,0.0,60.0,12.0,0.0
1700,67.0,0.0,60.0,3.0,0.0
1701,52.0,30.0,30.0,7.0,0.0
1702,72.0,0.0,30.0,5.0,0.0
1703,72.0,30.0,30.0,6.0,0.0
1704,48.0,0.0,30.0,8.0,0.0
1705,60.0,0.0,30.0,15.0,0.0
1706,72.0,0.0,30.0,4.0,0.0
1707,60.0,0.0,30.0,7.0,0.0
1708,60.0,0.0,30.0,1.0,0.0
1709,39.0,30.0,30.0,8.0,0.0
1710,66.0,0.0,60.0,3.0,0.0
1711,51.0,0.0,30.0,15.0,0.0
1712,66.0,0.0,120.0,15.0,0.0
1713,71.0,0.0,120.0,0.0,0.0
1714,51.0,0.0,30.0,7.0,0.0
1715,63.0,0.0,30.0,5.0,0.0
1716,69.0,0.0,120.0,15.0,0.0
1717,51.0,0.0,30.0,1.0,0.0
1718,66.0,0.0,120.0,1.0,0.0
1719,66.0,0.0,60.0,12.0,0.0
1720,71.0,0.0,120.0,15.0,0.0
1721,63.0,0.0,30.0,6.0,0.0
1722,63.0,0.0,30.0,4.0,0.0
1723,66.0,30.0,30.0,6.0,0.0
1724,42.0,0.0,30.0,8.0,0.0
1725,54.0,0.0,30.0,15.0,0.0
1726,54.0,0.0,30.0,7.0,0.0
1727,54.0,0.0,30.0,1.0,0.0
1728,66.0,0.0,30.0,5.0,0.0
1729,66.0,0.0,30.0,4.0,0.0
1730,47.0,0.0,30.0,15.0,0.0
1731,35.0,0.0,30.0,8.0,0.0
1732,47.0,0.0,30.0,7.0,0.0
1733,47.0,0.0,30.0,1.0,0.0
1734,59.0,30.0,30.0,6.0,0.0
1735,59.0,0.0,30.0,4.0,0.0
1736,57.0,0.0,60.0,12.0,0.0
1737,59.0,0.0,30.0,5.0,0.0
1738,57.0,0.0,60.0,3.0,0.0
1739,63.0,0.0,30.0,5.0,0.0
1740,63.0,0.0,30.0,6.0,0.0
1741,51.0,0.0,30.0,7.0,0.0
1742,63.0,0.0,30.0,4.0,0.0
1743,51.0,0.0,30.0,15.0,0.0
1744,51.0,30.0,30.0,1.0,0.0
1745,39.0,0.0,30.0,8.0,0.0
1746,64.0,0.0,30.0,4.0,0.0
1747,64.0,30.0,30.0,5.0,0.0
1748,40.0,0.0,30.0,8.0,0.0
1749,71.0,0.0,240.0,0.0,0.0
1750,67.0,0.0,120.0,0.0,0.0
1751,52.0,0.0,30.0,15.0,0.0
1752,64.0,0.0,240.0,1.0,0.0
1753,64.0,0.0,30.0,6.0,0.0
1754,67.0,0.0,120.0,15.0,0.0
1755,71.0,0.0,120.0,15.0,0.0
1756,52.0,0.0,30.0,1.0,0.0
1757,52.0,0.0,30.0,7.0,0.0
1758,55.0,0.0,60.0,3.0,0.0
1759,55.0,0.0,60.0,12.0,0.0
1760,67.0,0.0,30.0,4.0,0.0
1761,55.0,0.0,30.0,1.0,0.0
1762,67.0,0.0,30.0,6.0,0.0
1763,55.0,0.0,30.0,7.0,0.0
1764,43.0,0.0,30.0,8.0,0.0
1765,55.0,0.0,30.0,15.0,0.0
1766,67.0,30.0,30.0,5.0,0.0
1767,71.0,30.0,30.0,6.0,0.0
1768,59.0,0.0,30.0,7.0,0.0
1769,59.0,0.0,30.0,1.0,0.0
1770,64.0,0.0,60.0,3.0,0.0
1771,47.0,0.0,30.0,8.0,0.0
1772,64.0,0.0,60.0,12.0,0.0
1773,71.0,0.0,30.0,4.0,0.0
1774,71.0,0.0,30.0,5.0,0.0
1775,59.0,0.0,30.0,15.0,0.0
1776,57.0,0.0,30.0,1.0,0.0
1777,69.0,0.0,30.0,5.0,0.0
1778,45.0,30.0,30.0,8.0,0.0
1779,57.0,0.0,30.0,7.0,0.0
1780,69.0,0.0,30.0,6.0,0.0
1781,57.0,0.0,30.0,15.0,0.0
1782,69.0,0.0,30.0,4.0,0.0
1783,71.0,30.0,120.0,15.0,0.0
1784,76.0,0.0,120.0,15.0,0.0
1785,68.0,0.0,120.0,0.0,0.0
1786,68.0,0.0,30.0,4.0,0.0
1787,68.0,0.0,30.0,6.0,0.0
1788,56.0,0.0,30.0,1.0,0.0
1789,56.0,30.0,30.0,15.0,0.0
1790,44.0,0.0,30.0,8.0,0.0
1791,76.0,0.0,60.0,11.0,0.0
1792,68.0,0.0,30.0,5.0,0.0
1793,56.0,0.0,30.0,7.0,0.0
1794,76.0,0.0,60.0,3.0,0.0
1795,59.0,30.0,30.0,7.0,0.0
1796,71.0,0.0,30.0,6.0,0.0
1797,71.0,0.0,30.0,4.0,0.0
1798,47.0,0.0,30.0,8.0,0.0
1799,59.0,0.0,30.0,1.0,0.0
1800,71.0,0.0,30.0,5.0,0.0
1801,59.0,0.0,30.0,15.0,0.0
1802,64.0,0.0,30.0,4.0,0.0
1803,52.0,0.0,30.0,15.0,0.0
1804,64.0,0.0,30.0,5.0,0.0
1805,52.0,0.0,30.0,1.0,0.0
1806,40.0,0.0,30.0,8.0,0.0
1807,76.0,0.0,60.0,3.0,0.0
1808,64.0,0.0,30.0,6.0,0.0
1809,76.0,0.0,60.0,11.0,0.0
1810,52.0,30.0,30.0,7.0,0.0
1811,68.0,0.0,30.0,4.0,0.0
1812,56.0,0.0,30.0,15.0,0.0
1813,68.0,0.0,30.0,5.0,0.0
1814,56.0,0.0,30.0,7.0,0.0
1815,44.0,0.0,30.0,8.0,0.0
1816,56.0,0.0,30.0,1.0,0.0
1817,68.0,0.0,30.0,6.0,0.0
1818,69.0,30.0,30.0,5.0,0.0
1819,66.0,0.0,120.0,15.0,0.0
1820,45.0,0.0,30.0,8.0,0.0
1821,76.0,0.0,120.0,15.0,0.0
1822,69.0,0.0,120.0,1.0,0.0
1823,57.0,0.0,30.0,1.0,0.0
1824,69.0,0.0,30.0,6.0,0.0
1825,57.0,0.0,30.0,7.0,0.0
1826,73.0,0.0,120.0,15.0,0.0
1827,66.0,0.0,120.0,3.0,0.0
1828,69.0,0.0,30.0,4.0,0.0
1829,66.0,0.0,60.0,11.0,0.0
1830,73.0,0.0,120.0,0.0,0.0
1831,64.0,0.0,120.0,0.0,0.0
1832,57.0,0.0,30.0,15.0,0.0
1833,73.0,0.0,30.0,5.0,0.0
1834,61.0,0.0,30.0,1.0,0.0
1835,49.0,0.0,30.0,8.0,0.0
1836,61.0,0.0,30.0,15.0,0.0
1837,61.0,0.0,30.0,7.0,0.0
1838,73.0,0.0,30.0,6.0,0.0
1839,73.0,30.0,30.0,4.0,0.0
1840,66.0,0.0,30.0,6.0,0.0
1841,54.0,0.0,30.0,1.0,0.0
1842,64.0,0.0,60.0,3.0,0.0
1843,66.0,30.0,30.0,11.0,0.0
1844,42.0,0.0,30.0,8.0,0.0
1845,54.0,0.0,30.0,7.0,0.0
1846,64.0,0.0,60.0,12.0,0.0
1847,66.0,0.0,30.0,4.0,0.0
1848,66.0,0.0,30.0,5.0,0.0
1849,54.0,0.0,30.0,15.0,0.0
1850,45.0,0.0,30.0,8.0,0.0
1851,69.0,30.0,30.0,5.0,0.0
1852,57.0,0.0,30.0,1.0,0.0
1853,66.0,0.0,30.0,11.0,0.0
1854,69.0,0.0,30.0,6.0,0.0
1855,57.0,0.0,30.0,15.0,0.0
1856,57.0,0.0,30.0,7.0,0.0
1857,69.0,0.0,30.0,4.0,0.0
1858,71.0,0.0,30.0,4.0,0.0
1859,47.0,0.0,30.0,8.0,0.0
1860,71.0,0.0,30.0,6.0,0.0
1861,59.0,0.0,30.0,15.0,0.0
1862,59.0,0.0,30.0,7.0,0.0
1863,74.0,0.0,120.0,0.0,0.0
1864,71.0,0.0,120.0,0.0,0.0
1865,62.0,0.0,60.0,3.0,0.0
1866,78.0,0.0,120.0,15.0,0.0
1867,74.0,0.0,60.0,3.0,0.0
1868,74.0,0.0,60.0,11.0,0.0
1869,62.0,0.0,60.0,12.0,0.0
1870,74.0,0.0,120.0,15.0,0.0
1871,59.0,30.0,30.0,1.0,0.0
1872,71.0,0.0,30.0,5.0,0.0
1873,62.0,0.0,30.0,15.0,0.0
1874,62.0,0.0,30.0,7.0,0.0
1875,74.0,0.0,30.0,5.0,0.0
1876,74.0,30.0,30.0,4.0,0.0
1877,50.0,0.0,30.0,8.0,0.0
1878,74.0,0.0,30.0,6.0,0.0
1879,62.0,0.0,30.0,1.0,0.0
1880,69.0,30.0,30.0,6.0,0.0
1881,74.0,0.0,60.0,3.0,0.0
1882,57.0,0.0,30.0,1.0,0.0
1883,57.0,0.0,30.0,15.0,0.0
1884,66.0,0.0,60.0,3.0,0.0
1885,69.0,0.0,30.0,5.0,0.0
1886,57.0,0.0,30.0,7.0,0.0
1887,69.0,0.0,30.0,4.0,0.0
1888,45.0,0.0,30.0,8.0,0.0
1889,66.0,30.0,60.0,12.0,0.0
1890,74.0,0.0,60.0,11.0,0.0
1891,78.0,0.0,30.0,5.0,0.0
1892,66.0,0.0,30.0,7.0,0.0
1893,66.0,0.0,30.0,15.0,0.0
1894,78.0,0.0,30.0,6.0,0.0
1895,78.0,0.0,30.0,4.0,0.0
1896,54.0,0.0,30.0,8.0,0.0
1897,66.0,0.0,30.0,1.0,0.0
1898,56.0,0.0,30.0,15.0,0.0
1899,76.0,0.0,120.0,15.0,0.0
1900,74.0,0.0,120.0,15.0,0.0
1901,71.0,30.0,120.0,15.0,0.0
1902,71.0,0.0,120.0,0.0,0.0
1903,68.0,0.0,30.0,4.0,0.0
1904,56.0,0.0,30.0,1.0,0.0
1905,68.0,30.0,30.0,6.0,0.0
1906,64.0,30.0,90.0,11.0,0.0
1907,74.0,0.0,120.0,0.0,0.0
1908,44.0,0.0,30.0,8.0,0.0
1909,64.0,0.0,120.0,3.0,0.0
1910,68.0,0.0,30.0,5.0,0.0
1911,56.0,0.0,30.0,7.0,0.0
1912,59.0,0.0,30.0,7.0,0.0
1913,47.0,0.0,30.0,8.0,0.0
1914,71.0,0.0,30.0,4.0,0.0
1915,71.0,0.0,30.0,5.0,0.0
1916,71.0,0.0,30.0,6.0,0.0
1917,59.0,0.0,30.0,15.0,0.0
1918,59.0,30.0,30.0,1.0,0.0
1919,40.0,0.0,30.0,8.0,0.0
1920,64.0,0.0,30.0,6.0,0.0
1921,64.0,0.0,30.0,4.0,0.0
1922,62.0,0.0,60.0,12.0,0.0
1923,52.0,0.0,30.0,7.0,0.0
1924,52.0,0.0,30.0,1.0,0.0
1925,64.0,0.0,30.0,5.0,0.0
1926,62.0,0.0,60.0,3.0,0.0
1927,52.0,0.0,30.0,15.0,0.0
1928,68.0,0.0,30.0,6.0,0.0
1929,44.0,0.0,30.0,8.0,0.0
1930,56.0,0.0,30.0,1.0,0.0
1931,56.0,0.0,30.0,7.0,0.0
1932,64.0,0.0,30.0,11.0,0.0
1933,68.0,0.0,30.0,4.0,0.0
1934,68.0,0.0,30.0,5.0,0.0
1935,56.0,0.0,30.0,15.0,0.0
1936,57.0,0.0,30.0,1.0,0.0
1937,73.0,0.0,60.0,3.0,0.0
1938,69.0,0.0,30.0,4.0,0.0
1939,69.0,0.0,120.0,0.0,0.0
1940,73.0,0.0,120.0,0.0,0.0
1941,69.0,0.0,30.0,6.0,0.0
1942,73.0,0.0,60.0,11.0,0.0
1943,73.0,0.0,120.0,15.0,0.0
1944,57.0,0.0,30.0,15.0,0.0
1945,61.0,0.0,60.0,12.0,0.0
1946,45.0,0.0,30.0,8.0,0.0
1947,69.0,30.0,30.0,5.0,0.0
1948,61.0,30.0,60.0,3.0,0.0
1949,57.0,0.0,30.0,7.0,0.0
1950,76.0,0.0,120.0,15.0,0.0
1951,61.0,0.0,30.0,15.0,0.0
1952,73.0,0.0,30.0,6.0,0.0
1953,49.0,0.0,30.0,8.0,0.0
1954,73.0,0.0,30.0,5.0,0.0
1955,61.0,0.0,30.0,7.0,0.0
1956,73.0,0.0,30.0,4.0,0.0
1957,61.0,0.0,30.0,1.0,0.0
1958,68.0,0.0,30.0,6.0,0.0
1959,68.0,0.0,30.0,4.0,0.0
1960,56.0,0.0,30.0,7.0,0.0
1961,44.0,0.0,30.0,8.0,0.0
1962,64.0,0.0,60.0,3.0,0.0
1963,68.0,0.0,30.0,5.0,0.0
1964,56.0,0.0,30.0,15.0,0.0
1965,55.0,30.0,30.0,1.0,0.0
1966,64.0,0.0,60.0,12.0,0.0
1967,73.0,0.0,60.0,3.0,0.0
1968,73.0,0.0,60.0,11.0,0.0
1969,64.0,0.0,30.0,15.0,0.0
1970,76.0,0.0,30.0,5.0,0.0
1971,64.0,0.0,30.0,1.0,0.0
1972,64.0,0.0,30.0,7.0,0.0
1973,76.0,0.0,30.0,6.0,0.0
1974,76.0,30.0,30.0,4.0,0.0
1975,52.0,0.0,30.0,8.0,0.0
1976,66.0,0.0,30.0,5.0,0.0
1977,62.0,0.0,60.0,3.0,0.0
1978,54.0,0.0,30.0,1.0,0.0
1979,42.0,0.0,30.0,8.0,0.0
1980,62.0,0.0,240.0,1.0,0.0
1981,57.0,0.0,60.0,3.0,0.0
1982,69.0,0.0,120.0,0.0,0.0
1983,73.0,0.0,120.0,0.0,0.0
1984,54.0,30.0,30.0,15.0,0.0
1985,69.0,0.0,120.0,15.0,0.0
1986,73.0,0.0,120.0,15.0,0.0
1987,62.0,30.0,120.0,15.0,0.0
1988,54.0,0.0,30.0,7.0,0.0
1989,62.0,0.0,60.0,11.0,0.0
1990,66.0,0.0,30.0,4.0,0.0
1991,57.0,30.0,60.0,12.0,0.0
1992,66.0,0.0,30.0,6.0,0.0
1993,69.0,0.0,30.0,4.0,0.0
1994,57.0,0.0,30.0,7.0,0.0
1995,57.0,0.0,30.0,15.0,0.0
1996,69.0,0.0,30.0,5.0,0.0
1997,57.0,0.0,30.0,1.0,0.0
1998,45.0,0.0,30.0,8.0,0.0
1999,69.0,0.0,30.0,6.0,0.0
2000,38.0,0.0,30.0,8.0,0.0
2001,73.0,0.0,60.0,11.0,0.0
2002,62.0,0.0,60.0,12.0,0.0
2003,73.0,0.0,60.0,3.0,0.0
2004,50.0,0.0,30.0,15.0,0.0
2005,50.0,0.0,30.0,1.0,0.0
2006,62.0,0.0,30.0,5.0,0.0
2007,62.0,0.0,30.0,6.0,0.0
2008,62.0,0.0,30.0,4.0,0.0
2009,50.0,30.0,30.0,7.0,0.0
2010,62.0,0.0,60.0,3.0,0.0
2011,54.0,0.0,30.0,1.0,0.0
2012,42.0,0.0,30.0,8.0,0.0
2013,54.0,0.0,30.0,15.0,0.0
2014,66.0,0.0,30.0,4.0,0.0
2015,66.0,0.0,30.0,5.0,0.0
2016,66.0,0.0,30.0,6.0,0.0
2017,54.0,0.0,30.0,7.0,0.0
2018,43.0,0.0,30.0,8.0,0.0
2019,55.0,0.0,30.0,15.0,0.0
2020,62.0,0.0,60.0,12.0,0.0
2021,71.0,0.0,120.0,0.0,0.0
2022,71.0,0.0,120.0,15.0,0.0
2023,64.0,0.0,120.0,15.0,0.0
2024,68.0,0.0,120.0,0.0,0.0
2025,62.0,0.0,120.0,15.0,0.0
2026,62.0,0.0,60.0,3.0,0.0
2027,67.0,0.0,30.0,6.0,0.0
2028,67.0,0.0,30.0,4.0,0.0
2029,71.0,30.0,60.0,11.0,0.0
2030,71.0,0.0,60.0,3.0,0.0
2031,67.0,0.0,30.0,5.0,0.0
2032,55.0,30.0,30.0,7.0,0.0
2033,55.0,0.0,30.0,1.0,0.0
2034,71.0,0.0,30.0,4.0,0.0
2035,71.0,0.0,30.0,5.0,0.0
2036,59.0,0.0,30.0,15.0,0.0
2037,59.0,0.0,30.0,7.0,0.0
2038,59.0,0.0,30.0,1.0,0.0
2039,71.0,0.0,30.0,6.0,0.0
2040,47.0,0.0,30.0,8.0,0.0
2041,64.0,0.0,30.0,4.0,0.0
2042,64.0,0.0,30.0,5.0,0.0
2043,62.0,0.0,60.0,11.0,0.0
2044,59.0,0.0,60.0,12.0,0.0
2045,59.0,0.0,60.0,3.0,0.0
2046,64.0,0.0,30.0,6.0,0.0
2047,62.0,0.0,60.0,3.0,0.0
2048,52.0,0.0,30.0,15.0,0.0
2049,52.0,0.0,30.0,1.0,0.0
2050,52.0,0.0,30.0,7.0,0.0
2051,40.0,30.0,30.0,8.0,0.0
2052,55.0,0.0,30.0,1.0,0.0
2053,55.0,0.0,30.0,15.0,0.0
2054,43.0,0.0,30.0,8.0,0.0
2055,67.0,0.0,30.0,5.0,0.0
2056,67.0,0.0,30.0,4.0,0.0
2057,67.0,0.0,30.0,6.0,0.0
2058,55.0,30.0,30.0,7.0,0.0
2059,57.0,0.0,60.0,3.0,0.0
2060,69.0,30.0,30.0,5.0,0.0
2061,57.0,0.0,30.0,7.0,0.0
2062,69.0,0.0,30.0,4.0,0.0
2063,61.0,0.0,60.0,3.0,0.0
2064,57.0,0.0,60.0,12.0,0.0
2065,61.0,0.0,60.0,11.0,0.0
2066,57.0,0.0,30.0,15.0,0.0
2067,57.0,0.0,30.0,1.0,0.0
2068,45.0,0.0,30.0,8.0,0.0
2069,69.0,0.0,120.0,0.0,0.0
2070,69.0,0.0,120.0,15.0,0.0
2071,73.0,0.0,120.0,15.0,0.0
2072,76.0,0.0,120.0,15.0,0.0
2073,69.0,0.0,30.0,6.0,0.0
2074,73.0,0.0,30.0,4.0,0.0
2075,61.0,30.0,30.0,15.0,0.0
2076,61.0,0.0,30.0,1.0,0.0
2077,49.0,0.0,30.0,8.0,0.0
2078,73.0,0.0,30.0,5.0,0.0
2079,61.0,0.0,30.0,6.0,0.0
2080,61.0,0.0,30.0,7.0,0.0
2081,54.0,0.0,30.0,8.0,0.0
2082,78.0,0.0,30.0,4.0,0.0
2083,66.0,0.0,30.0,1.0,0.0
2084,61.0,0.0,60.0,3.0,0.0
2085,66.0,30.0,30.0,7.0,0.0
2086,66.0,0.0,30.0,6.0,0.0
2087,61.0,0.0,60.0,12.0,0.0
2088,69.0,0.0,60.0,11.0,0.0
2089,69.0,0.0,60.0,3.0,0.0
2090,78.0,0.0,30.0,5.0,0.0
2091,66.0,0.0,30.0,15.0,0.0
2092,64.0,0.0,30.0,15.0,0.0
2093,64.0,0.0,30.0,1.0,0.0
2094,76.0,0.0,30.0,5.0,0.0
2095,76.0,0.0,30.0,4.0,0.0
2096,64.0,0.0,30.0,6.0,0.0
2097,64.0,30.0,30.0,7.0,0.0
2098,52.0,0.0,30.0,8.0,0.0
2099,50.0,0.0,30.0,8.0,0.0
2100,81.0,0.0,120.0,15.0,0.0
2101,85.0,0.0,120.0,15.0,0.0
2102,62.0,0.0,30.0,15.0,0.0
2103,62.0,0.0,30.0,6.0,0.0
2104,74.0,0.0,30.0,4.0,0.0
2105,78.0,0.0,120.0,15.0,0.0
2106,66.0,0.0,60.0,3.0,0.0
2107,62.0,0.0,30.0,1.0,0.0
2108,66.0,0.0,60.0,12.0,0.0
2109,73.0,0.0,240.0,0.0,0.0
2110,66.0,0.0,240.0,0.0,0.0
2111,74.0,0.0,30.0,5.0,0.0
2112,62.0,30.0,30.0,7.0,0.0
2113,85.0,0.0,60.0,10.0,0.0
2114,66.0,0.0,30.0,7.0,0.0
2115,66.0,30.0,30.0,6.0,0.0
2116,66.0,0.0,30.0,1.0,0.0
2117,66.0,0.0,30.0,15.0,0.0
2118,78.0,0.0,30.0,4.0,0.0
2119,78.0,0.0,30.0,5.0,0.0
2120,54.0,0.0,30.0,8.0,0.0
2121,61.0,0.0,30.0,1.0,0.0
2122,69.0,0.0,60.0,3.0,0.0
2123,69.0,0.0,60.0,12.0,0.0
2124,73.0,0.0,30.0,5.0,0.0
2125,61.0,0.0,30.0,6.0,0.0
2126,85.0,0.0,60.0,10.0,0.0
2127,61.0,0.0,30.0,7.0,0.0
2128,61.0,30.0,30.0,15.0,0.0
2129,73.0,0.0,30.0,4.0,0.0
2130,49.0,0.0,30.0,8.0,0.0
2131,81.0,0.0,30.0,5.0,0.0
2132,69.0,0.0,30.0,1.0,0.0
2133,57.0,0.0,30.0,8.0,0.0
2134,69.0,0.0,30.0,15.0,0.0
2135,69.0,30.0,30.0,6.0,0.0
2136,81.0,0.0,30.0,4.0,0.0
2137,69.0,0.0,30.0,7.0,0.0
2138,59.0,0.0,30.0,1.0,0.0
2139,59.0,0.0,30.0,7.0,0.0
2140,74.0,0.0,60.0,10.0,0.0
2141,73.0,0.0,120.0,15.0,0.0
2142,74.0,0.0,120.0,15.0,0.0
2143,71.0,0.0,120.0,15.0,0.0
2144,71.0,0.0,30.0,5.0,0.0
2145,47.0,0.0,30.0,8.0,0.0
2146,59.0,0.0,30.0,15.0,0.0
2147,71.0,0.0,30.0,4.0,0.0
2148,59.0,30.0,30.0,6.0,0.0
2149,62.0,0.0,30.0,7.0,0.0
2150,62.0,0.0,30.0,6.0,0.0
2151,62.0,0.0,30.0,15.0,0.0
2152,74.0,30.0,30.0,5.0,0.0
2153,50.0,0.0,30.0,8.0,0.0
2154,74.0,0.0,30.0,4.0,0.0
2155,62.0,0.0,30.0,1.0,0.0
2156,57.0,0.0,30.0,1.0,0.0
2157,57.0,0.0,30.0,15.0,0.0
2158,73.0,0.0,60.0,11.0,0.0
2159,73.0,0.0,60.0,3.0,0.0
2160,57.0,0.0,30.0,7.0,0.0
2161,69.0,30.0,30.0,4.0,0.0
2162,74.0,0.0,30.0,10.0,0.0
2163,69.0,0.0,30.0,5.0,0.0
2164,45.0,0.0,30.0,8.0,0.0
2165,57.0,0.0,30.0,6.0,0.0
2166,78.0,0.0,30.0,5.0,0.0
2167,66.0,30.0,30.0,15.0,0.0
2168,66.0,0.0,30.0,7.0,0.0
2169,78.0,0.0,30.0,4.0,0.0
2170,66.0,0.0,30.0,1.0,0.0
2171,74.0,0.0,30.0,10.0,0.0
2172,54.0,0.0,30.0,8.0,0.0
2173,66.0,0.0,30.0,6.0,0.0
2174,56.0,0.0,30.0,7.0,0.0
2175,74.0,0.0,60.0,15.0,0.0
2176,77.0,0.0,60.0,15.0,0.0
2177,71.0,0.0,240.0,0.0,0.0
2178,68.0,0.0,240.0,0.0,0.0
2179,71.0,0.0,60.0,15.0,0.0
2180,83.0,0.0,60.0,15.0,0.0
2181,44.0,0.0,30.0,8.0,0.0
2182,56.0,0.0,30.0,15.0,0.0
2183,56.0,0.0,30.0,1.0,0.0
2184,68.0,0.0,30.0,4.0,0.0
2185,71.0,0.0,60.0,11.0,0.0
2186,71.0,0.0,60.0,3.0,0.0
2187,65.0,30.0,60.0,1.0,0.0
2188,56.0,30.0,30.0,6.0,0.0
2189,68.0,0.0,30.0,5.0,0.0
2190,83.0,0.0,60.0,10.0,0.0
2191,59.0,0.0,30.0,7.0,0.0
2192,59.0,0.0,30.0,6.0,0.0
2193,47.0,0.0,30.0,8.0,0.0
2194,71.0,0.0,30.0,5.0,0.0
2195,59.0,0.0,30.0,1.0,0.0
2196,59.0,0.0,30.0,15.0,0.0
2197,71.0,0.0,30.0,4.0,0.0
2198,69.0,0.0,60.0,15.0,0.0
2199,42.0,0.0,30.0,8.0,0.0
2200,69.0,0.0,60.0,3.0,0.0
2201,54.0,0.0,30.0,7.0,0.0
2202,83.0,0.0,60.0,10.0,0.0
2203,69.0,0.0,60.0,12.0,0.0
2204,74.0,0.0,60.0,3.0,0.0
2205,54.0,0.0,30.0,1.0,0.0
2206,66.0,0.0,60.0,1.0,0.0
2207,74.0,0.0,60.0,11.0,0.0
2208,66.0,0.0,30.0,4.0,0.0
2209,54.0,0.0,30.0,15.0,0.0
2210,83.0,0.0,60.0,15.0,0.0
2211,54.0,30.0,30.0,6.0,0.0
2212,66.0,0.0,30.0,5.0,0.0
2213,71.0,0.0,60.0,15.0,0.0
2214,74.0,0.0,60.0,15.0,0.0
2215,62.0,0.0,30.0,7.0,0.0
2216,50.0,0.0,30.0,8.0,0.0
2217,74.0,0.0,30.0,5.0,0.0
2218,62.0,0.0,30.0,6.0,0.0
2219,62.0,30.0,30.0,15.0,0.0
2220,74.0,0.0,30.0,4.0,0.0
2221,62.0,0.0,30.0,1.0,0.0
2222,65.0,0.0,30.0,4.0,0.0
2223,65.0,0.0,30.0,5.0,0.0
2224,65.0,0.0,30.0,6.0,0.0
2225,73.0,0.0,120.0,15.0,0.0
2226,71.0,0.0,120.0,15.0,0.0
2227,68.0,0.0,60.0,12.0,0.0
2228,68.0,0.0,120.0,15.0,0.0
2229,53.0,0.0,30.0,15.0,0.0
2230,53.0,0.0,30.0,1.0,0.0
2231,68.0,0.0,60.0,3.0,0.0
2232,53.0,30.0,30.0,7.0,0.0
2233,41.0,0.0,30.0,8.0,0.0
2234,73.0,0.0,90.0,10.0,0.0
2235,68.0,0.0,30.0,5.0,0.0
2236,56.0,0.0,30.0,15.0,0.0
2237,56.0,0.0,30.0,7.0,0.0
2238,68.0,0.0,30.0,6.0,0.0
2239,56.0,0.0,30.0,1.0,0.0
2240,68.0,30.0,30.0,4.0,0.0
2241,44.0,0.0,30.0,8.0,0.0
2242,61.0,30.0,30.0,6.0,0.0
2243,65.0,0.0,60.0,12.0,0.0
2244,49.0,0.0,30.0,15.0,0.0
2245,71.0,0.0,60.0,3.0,0.0
2246,61.0,0.0,30.0,4.0,0.0
2247,49.0,0.0,30.0,7.0,0.0
2248,65.0,0.0,60.0,3.0,0.0
2249,61.0,0.0,30.0,5.0,0.0
2250,71.0,0.0,60.0,11.0,0.0
2251,49.0,0.0,30.0,1.0,0.0
2252,37.0,0.0,30.0,8.0,0.0
2253,73.0,30.0,30.0,10.0,0.0
2254,53.0,0.0,30.0,7.0,0.0
2255,65.0,0.0,30.0,4.0,0.0
2256,53.0,0.0,30.0,1.0,0.0
2257,65.0,0.0,30.0,5.0,0.0
2258,41.0,0.0,30.0,8.0,0.0
2259,53.0,0.0,30.0,15.0,0.0
2260,65.0,0.0,30.0,6.0,0.0
2261,54.0,0.0,30.0,1.0,0.0
2262,69.0,30.0,60.0,3.0,0.0
2263,66.0,0.0,30.0,5.0,0.0
2264,81.0,0.0,120.0,15.0,0.0
2265,66.0,0.0,240.0,0.0,0.0
2266,42.0,0.0,30.0,8.0,0.0
2267,66.0,0.0,30.0,6.0,0.0
2268,78.0,0.0,120.0,15.0,0.0
2269,66.0,0.0,30.0,4.0,0.0
2270,69.0,0.0,60.0,11.0,0.0
2271,81.0,0.0,60.0,10.0,0.0
2272,54.0,0.0,30.0,7.0,0.0
2273,73.0,0.0,120.0,15.0,0.0
2274,69.0,0.0,120.0,15.0,0.0
2275,54.0,30.0,30.0,15.0,0.0
2276,69.0,0.0,240.0,0.0,0.0
2277,57.0,0.0,30.0,1.0,0.0
2278,45.0,0.0,30.0,8.0,0.0
2279,69.0,0.0,30.0,5.0,0.0
2280,57.0,0.0,30.0,15.0,0.0
2281,69.0,0.0,30.0,6.0,0.0
2282,69.0,0.0,30.0,4.0,0.0
2283,57.0,0.0,30.0,7.0,0.0
2284,64.0,0.0,30.0,4.0,0.0
2285,52.0,0.0,30.0,1.0,0.0
2286,66.0,0.0,60.0,12.0,0.0
2287,81.0,0.0,60.0,10.0,0.0
2288,52.0,0.0,30.0,15.0,0.0
2289,73.0,0.0,60.0,11.0,0.0
2290,52.0,30.0,30.0,7.0,0.0
2291,64.0,0.0,30.0,6.0,0.0
2292,73.0,0.0,60.0,3.0,0.0
2293,66.0,0.0,60.0,3.0,0.0
2294,40.0,0.0,30.0,8.0,0.0
2295,64.0,0.0,30.0,5.0,0.0
2296,73.0,30.0,30.0,5.0,0.0
2297,61.0,0.0,30.0,15.0,0.0
2298,49.0,0.0,30.0,8.0,0.0
2299,73.0,0.0,30.0,4.0,0.0
2300,73.0,0.0,30.0,6.0,0.0
2301,61.0,0.0,30.0,7.0,0.0
2302,61.0,0.0,30.0,1.0,0.0
2303,63.0,30.0,30.0,5.0,0.0
2304,71.0,30.0,60.0,11.0,0.0
2305,66.0,0.0,60.0,12.0,0.0
2306,71.0,0.0,60.0,10.0,0.0
2307,59.0,0.0,240.0,1.0,0.0
2308,71.0,0.0,120.0,15.0,0.0
2309,63.0,0.0,30.0,6.0,0.0
2310,69.0,0.0,120.0,15.0,0.0
2311,51.0,0.0,30.0,1.0,0.0
2312,66.0,0.0,120.0,15.0,0.0
2313,63.0,0.0,30.0,4.0,0.0
2314,51.0,0.0,30.0,7.0,0.0
2315,39.0,0.0,30.0,8.0,0.0
2316,71.0,0.0,120.0,3.0,0.0
2317,51.0,0.0,30.0,15.0,0.0
2318,66.0,0.0,60.0,3.0,0.0
2319,66.0,0.0,30.0,6.0,0.0
2320,54.0,0.0,30.0,1.0,0.0
2321,66.0,0.0,30.0,4.0,0.0
2322,54.0,0.0,30.0,15.0,0.0
2323,66.0,0.0,30.0,5.0,0.0
2324,42.0,0.0,30.0,8.0,0.0
2325,54.0,0.0,30.0,7.0,0.0
2326,47.0,30.0,30.0,7.0,0.0
2327,71.0,0.0,60.0,11.0,0.0
2328,47.0,0.0,30.0,1.0,0.0
2329,59.0,0.0,30.0,4.0,0.0
2330,63.0,0.0,60.0,3.0,0.0
2331,35.0,0.0,30.0,8.0,0.0
2332,59.0,0.0,30.0,5.0,0.0
2333,47.0,0.0,30.0,15.0,0.0
2334,63.0,0.0,60.0,12.0,0.0
2335,81.0,0.0,60.0,10.0,0.0
2336,59.0,0.0,30.0,6.0,0.0
2337,63.0,0.0,30.0,5.0,0.0
2338,63.0,0.0,30.0,6.0,0.0
2339,51.0,0.0,30.0,7.0,0.0
2340,51.0,0.0,30.0,1.0,0.0
2341,39.0,30.0,30.0,8.0,0.0
2342,63.0,0.0,30.0,4.0,0.0
2343,51.0,0.0,30.0,15.0,0.0
2344,71.0,0.0,60.0,11.0,0.0
2345,41.0,0.0,30.0,8.0,0.0
2346,53.0,0.0,30.0,7.0,0.0
2347,65.0,0.0,30.0,5.0,0.0
2348,53.0,0.0,30.0,1.0,0.0
2349,80.0,0.0,120.0,15.0,0.0
2350,73.0,0.0,120.0,15.0,0.0
2351,71.0,0.0,120.0,15.0,0.0
2352,68.0,0.0,60.0,3.0,0.0
2353,65.0,0.0,30.0,6.0,0.0
2354,61.0,0.0,120.0,0.0,0.0
2355,71.0,0.0,60.0,3.0,0.0
2356,68.0,0.0,120.0,15.0,0.0
2357,68.0,0.0,120.0,0.0,0.0
2358,53.0,30.0,30.0,15.0,0.0
2359,80.0,0.0,60.0,10.0,0.0
2360,65.0,0.0,30.0,4.0,0.0
2361,68.0,0.0,60.0,12.0,0.0
2362,56.0,0.0,30.0,15.0,0.0
2363,56.0,30.0,30.0,7.0,0.0
2364,44.0,0.0,30.0,8.0,0.0
2365,68.0,0.0,30.0,5.0,0.0
2366,56.0,0.0,30.0,1.0,0.0
2367,68.0,0.0,30.0,6.0,0.0
2368,68.0,0.0,30.0,4.0,0.0
2369,49.0,30.0,30.0,1.0,0.0
2370,61.0,0.0,30.0,6.0,0.0
2371,61.0,0.0,30.0,4.0,0.0
2372,49.0,0.0,30.0,15.0,0.0
2373,71.0,0.0,60.0,10.0,0.0
2374,49.0,0.0,30.0,7.0,0.0
2375,61.0,0.0,30.0,5.0,0.0
2376,68.0,0.0,60.0,3.0,0.0
2377,65.0,30.0,60.0,3.0,0.0
2378,65.0,0.0,60.0,12.0,0.0
2379,68.0,0.0,60.0,11.0,0.0
2380,37.0,0.0,30.0,8.0,0.0
2381,65.0,0.0,30.0,6.0,0.0
2382,65.0,0.0,30.0,4.0,0.0
2383,65.0,0.0,30.0,5.0,0.0
2384,41.0,0.0,30.0,8.0,0.0
2385,53.0,0.0,30.0,7.0,0.0
2386,53.0,0.0,30.0,15.0,0.0
2387,53.0,0.0,30.0,1.0,0.0
2388,66.0,30.0,60.0,11.0,0.0
2389,54.0,0.0,30.0,7.0,0.0
2390,66.0,30.0,30.0,4.0,0.0
2391,54.0,0.0,30.0,6.0,0.0
2392,54.0,0.0,30.0,15.0,0.0
2393,69.0,30.0,240.0,15.0,0.0
2394,73.0,0.0,240.0,15.0,0.0
2395,66.0,0.0,60.0,12.0,0.0
2396,66.0,0.0,30.0,5.0,0.0
2397,61.0,0.0,120.0,0.0,0.0
2398,42.0,0.0,30.0,8.0,0.0
2399,69.0,0.0,60.0,10.0,0.0
2400,66.0,0.0,60.0,3.0,0.0
2401,66.0,0.0,120.0,0.0,0.0
2402,54.0,0.0,30.0,1.0,0.0
2403,45.0,0.0,30.0,8.0,0.0
2404,69.0,0.0,30.0,5.0,0.0
2405,57.0,0.0,30.0,7.0,0.0
2406,69.0,0.0,30.0,4.0,0.0
2407,57.0,0.0,30.0,1.0,0.0
2408,57.0,0.0,30.0,15.0,0.0
2409,57.0,0.0,30.0,6.0,0.0
2410,69.0,0.0,60.0,11.0,0.0
2411,61.0,30.0,60.0,3.0,0.0
2412,78.0,0.0,60.0,10.0,0.0
2413,49.0,0.0,30.0,8.0,0.0
2414,61.0,0.0,60.0,12.0,0.0
2415,61.0,30.0,30.0,7.0,0.0
2416,61.0,0.0,30.0,15.0,0.0
2417,61.0,0.0,30.0,1.0,0.0
2418,61.0,0.0,30.0,6.0,0.0
2419,73.0,0.0,30.0,4.0,0.0
2420,73.0,0.0,30.0,5.0,0.0
2421,69.0,0.0,60.0,3.0,0.0
2422,65.0,0.0,30.0,6.0,0.0
2423,77.0,0.0,30.0,4.0,0.0
2424,65.0,0.0,30.0,7.0,0.0
2425,65.0,0.0,30.0,1.0,0.0
2426,65.0,0.0,30.0,15.0,0.0
2427,77.0,0.0,30.0,5.0,0.0
2428,53.0,0.0,30.0,8.0,0.0
2429,66.0,0.0,30.0,15.0,0.0
2430,78.0,0.0,30.0,5.0,0.0
2431,69.0,0.0,120.0,1.0,0.0
2432,78.0,0.0,30.0,4.0,0.0
2433,66.0,0.0,60.0,13.0,0.0
2434,54.0,0.0,30.0,8.0,0.0
2435,73.0,0.0,60.0,11.0,0.0
2436,73.0,0.0,120.0,0.0,0.0
2437,78.0,0.0,180.0,0.0,0.0
2438,66.0,0.0,30.0,7.0,0.0
2439,66.0,30.0,30.0,6.0,0.0
2440,66.0,0.0,60.0,3.0,0.0
2441,66.0,0.0,30.0,1.0,0.0
2442,73.0,0.0,60.0,3.0,0.0
2443,61.0,0.0,30.0,15.0,0.0
2444,49.0,0.0,30.0,8.0,0.0
2445,61.0,30.0,30.0,7.0,0.0
2446,61.0,0.0,30.0,6.0,0.0
2447,73.0,0.0,30.0,4.0,0.0
2448,73.0,0.0,30.0,5.0,0.0
2449,61.0,0.0,30.0,1.0,0.0
2450,66.0,0.0,60.0,12.0,0.0
2451,57.0,0.0,30.0,1.0,0.0
2452,69.0,0.0,30.0,4.0,0.0
2453,45.0,0.0,30.0,8.0,0.0
2454,57.0,30.0,30.0,15.0,0.0
2455,57.0,0.0,30.0,7.0,0.0
2456,78.0,0.0,60.0,3.0,0.0
2457,78.0,0.0,60.0,11.0,0.0
2458,66.0,0.0,60.0,3.0,0.0
2459,69.0,0.0,30.0,5.0,0.0
2460,66.0,0.0,60.0,13.0,0.0
2461,57.0,0.0,30.0,6.0,0.0
2462,54.0,0.0,30.0,7.0,0.0
2463,66.0,0.0,30.0,4.0,0.0
2464,42.0,0.0,30.0,8.0,0.0
2465,54.0,0.0,30.0,1.0,0.0
2466,54.0,0.0,30.0,6.0,0.0
2467,66.0,0.0,30.0,5.0,0.0
2468,54.0,0.0,30.0,15.0,0.0
2469,43.0,0.0,30.0,8.0,0.0
2470,67.0,0.0,30.0,4.0,0.0
2471,55.0,0.0,30.0,1.0,0.0
2472,67.0,0.0,240.0,1.0,0.0
2473,66.0,0.0,60.0,3.0,0.0
2474,55.0,0.0,30.0,6.0,0.0
2475,67.0,30.0,30.0,5.0,0.0
2476,55.0,0.0,120.0,3.0,0.0
2477,55.0,0.0,60.0,13.0,0.0
2478,66.0,0.0,60.0,12.0,0.0
2479,55.0,0.0,30.0,7.0,0.0
2480,69.0,0.0,120.0,15.0,0.0
2481,78.0,0.0,120.0,15.0,0.0
2482,74.0,0.0,120.0,15.0,0.0
2483,83.0,0.0,120.0,15.0,0.0
2484,55.0,0.0,30.0,15.0,0.0
2485,59.0,30.0,30.0,7.0,0.0
2486,71.0,0.0,30.0,4.0,0.0
2487,47.0,0.0,30.0,8.0,0.0
2488,59.0,0.0,30.0,1.0,0.0
2489,71.0,0.0,30.0,5.0,0.0
2490,59.0,0.0,30.0,6.0,0.0
2491,59.0,0.0,30.0,15.0,0.0
2492,74.0,0.0,30.0,4.0,0.0
2493,59.0,0.0,60.0,12.0,0.0
2494,55.0,0.0,30.0,13.0,0.0
2495,62.0,0.0,30.0,6.0,0.0
2496,50.0,0.0,30.0,8.0,0.0
2497,59.0,0.0,60.0,3.0,0.0
2498,62.0,0.0,30.0,1.0,0.0
2499,83.0,0.0,60.0,10.0,0.0
2500,62.0,0.0,30.0,7.0,0.0
2501,71.0,30.0,60.0,0.0,0.0
2502,62.0,0.0,30.0,15.0,0.0
2503,74.0,30.0,30.0,5.0,0.0
2504,55.0,0.0,30.0,13.0,0.0
2505,78.0,0.0,30.0,4.0,0.0
2506,54.0,0.0,30.0,8.0,0.0
2507,66.0,0.0,30.0,7.0,0.0
2508,66.0,0.0,30.0,15.0,0.0
2509,66.0,0.0,30.0,6.0,0.0
2510,66.0,0.0,30.0,1.0,0.0
2511,78.0,0.0,30.0,5.0,0.0
2512,64.0,0.0,30.0,7.0,0.0
2513,79.0,0.0,60.0,10.0,0.0
2514,76.0,0.0,180.0,0.0,0.0
2515,76.0,0.0,30.0,5.0,0.0
2516,64.0,0.0,60.0,3.0,0.0
2517,64.0,0.0,30.0,1.0,0.0
2518,76.0,0.0,120.0,15.0,0.0
2519,71.0,0.0,120.0,15.0,0.0
2520,67.0,30.0,120.0,15.0,0.0
2521,64.0,0.0,30.0,15.0,0.0
2522,52.0,30.0,30.0,8.0,0.0
2523,76.0,0.0,30.0,4.0,0.0
2524,64.0,30.0,60.0,13.0,0.0
2525,64.0,0.0,30.0,6.0,0.0
2526,59.0,0.0,30.0,15.0,0.0
2527,71.0,0.0,30.0,5.0,0.0
2528,59.0,0.0,30.0,6.0,0.0
2529,47.0,0.0,30.0,8.0,0.0
2530,71.0,0.0,30.0,4.0,0.0
2531,59.0,0.0,30.0,7.0,0.0
2532,59.0,0.0,30.0,1.0,0.0
2533,64.0,0.0,60.0,13.0,0.0
2534,55.0,0.0,30.0,15.0,0.0
2535,76.0,0.0,60.0,10.0,0.0
2536,64.0,0.0,60.0,3.0,0.0
2537,67.0,0.0,60.0,3.0,0.0
2538,55.0,30.0,30.0,1.0,0.0
2539,67.0,0.0,60.0,12.0,0.0
2540,71.0,0.0,60.0,3.0,0.0
2541,43.0,0.0,30.0,8.0,0.0
2542,55.0,0.0,30.0,6.0,0.0
2543,67.0,0.0,30.0,4.0,0.0
2544,55.0,0.0,30.0,7.0,0.0
2545,67.0,0.0,30.0,5.0,0.0
2546,71.0,0.0,60.0,11.0,0.0
2547,64.0,0.0,30.0,5.0,0.0
2548,52.0,0.0,30.0,15.0,0.0
2549,52.0,0.0,30.0,7.0,0.0
2550,40.0,0.0,30.0,8.0,0.0
2551,52.0,0.0,30.0,6.0,0.0
2552,64.0,0.0,30.0,4.0,0.0
2553,52.0,0.0,30.0,1.0,0.0
2554,66.0,0.0,240.0,1.0,0.0
2555,54.0,0.0,30.0,7.0,0.0
2556,66.0,0.0,30.0,5.0,0.0
2557,54.0,0.0,120.0,3.0,0.0
2558,67.0,0.0,120.0,3.0,0.0
2559,54.0,30.0,30.0,6.0,0.0
2560,54.0,0.0,90.0,13.0,0.0
2561,54.0,0.0,30.0,1.0,0.0
2562,69.0,0.0,120.0,3.0,0.0
2563,76.0,0.0,120.0,15.0,0.0
2564,67.0,0.0,60.0,12.0,0.0
2565,73.0,0.0,120.0,15.0,0.0
2566,42.0,0.0,30.0,8.0,0.0
2567,79.0,0.0,120.0,15.0,0.0
2568,66.0,0.0,30.0,4.0,0.0
2569,54.0,0.0,30.0,15.0,0.0
2570,69.0,0.0,120.0,15.0,0.0
2571,69.0,0.0,60.0,11.0,0.0
2572,69.0,0.0,30.0,5.0,0.0
2573,57.0,0.0,30.0,1.0,0.0
2574,45.0,30.0,30.0,8.0,0.0
2575,69.0,0.0,30.0,4.0,0.0
2576,57.0,0.0,30.0,15.0,0.0
2577,57.0,0.0,30.0,7.0,0.0
2578,57.0,0.0,30.0,6.0,0.0
2579,61.0,0.0,30.0,1.0,0.0
2580,69.0,30.0,60.0,11.0,0.0
2581,61.0,0.0,30.0,6.0,0.0
2582,67.0,0.0,60.0,12.0,0.0
2583,61.0,30.0,30.0,15.0,0.0
2584,73.0,0.0,30.0,5.0,0.0
2585,73.0,0.0,30.0,4.0,0.0
2586,69.0,0.0,60.0,0.0,0.0
2587,81.0,0.0,60.0,10.0,0.0
2588,61.0,0.0,30.0,7.0,0.0
2589,49.0,0.0,30.0,8.0,0.0
2590,64.0,0.0,30.0,6.0,0.0
2591,76.0,0.0,30.0,4.0,0.0
2592,76.0,0.0,30.0,5.0,0.0
2593,52.0,0.0,30.0,8.0,0.0
2594,64.0,0.0,30.0,1.0,0.0
2595,64.0,0.0,30.0,15.0,0.0
2596,64.0,0.0,30.0,7.0,0.0
2597,54.0,0.0,30.0,13.0,0.0
2598,50.0,0.0,30.0,8.0,0.0
2599,74.0,0.0,30.0,4.0,0.0
2600,62.0,0.0,30.0,7.0,0.0
2601,62.0,0.0,60.0,3.0,0.0
2602,69.0,0.0,120.0,15.0,0.0
2603,78.0,0.0,60.0,10.0,0.0
2604,74.0,0.0,180.0,0.0,0.0
2605,74.0,0.0,30.0,5.0,0.0
2606,62.0,0.0,30.0,1.0,0.0
2607,78.0,30.0,120.0,15.0,0.0
2608,74.0,0.0,120.0,15.0,0.0
2609,62.0,30.0,30.0,6.0,0.0
2610,62.0,0.0,60.0,13.0,0.0
2611,62.0,0.0,30.0,15.0,0.0
2612,57.0,0.0,30.0,7.0,0.0
2613,57.0,30.0,30.0,15.0,0.0
2614,57.0,0.0,30.0,1.0,0.0
2615,69.0,0.0,30.0,6.0,0.0
2616,45.0,0.0,30.0,8.0,0.0
2617,69.0,0.0,30.0,4.0,0.0
2618,69.0,0.0,30.0,5.0,0.0
2619,42.0,0.0,30.0,8.0,0.0
2620,66.0,30.0,30.0,5.0,0.0
2621,66.0,0.0,60.0,12.0,0.0
2622,66.0,0.0,30.0,6.0,0.0
2623,66.0,0.0,60.0,3.0,0.0
2624,54.0,0.0,30.0,15.0,0.0
2625,54.0,0.0,30.0,1.0,0.0
2626,54.0,0.0,30.0,7.0,0.0
2627,74.0,0.0,60.0,3.0,0.0
2628,74.0,0.0,60.0,10.0,0.0
2629,62.0,0.0,60.0,13.0,0.0
2630,66.0,0.0,30.0,4.0,0.0
2631,62.0,0.0,60.0,3.0,0.0
2632,74.0,0.0,60.0,11.0,0.0
2633,62.0,0.0,30.0,5.0,0.0
2634,50.0,0.0,30.0,7.0,0.0
2635,50.0,0.0,30.0,15.0,0.0
2636,62.0,0.0,30.0,4.0,0.0
2637,62.0,0.0,30.0,6.0,0.0
2638,38.0,0.0,30.0,8.0,0.0
2639,50.0,0.0,30.0,1.0,0.0
2640,52.0,0.0,60.0,3.0,0.0
2641,52.0,30.0,30.0,7.0,0.0
2642,52.0,0.0,30.0,15.0,0.0
2643,74.0,0.0,60.0,15.0,0.0
2644,71.0,0.0,60.0,15.0,0.0
2645,67.0,0.0,60.0,15.0,0.0
2646,78.0,0.0,60.0,15.0,0.0
2647,74.0,0.0,60.0,3.0,0.0
2648,64.0,0.0,30.0,4.0,0.0
2649,79.0,0.0,60.0,10.0,0.0
2650,52.0,0.0,30.0,1.0,0.0
2651,64.0,0.0,240.0,1.0,0.0
2652,40.0,0.0,30.0,8.0,0.0
2653,64.0,0.0,30.0,5.0,0.0
2654,74.0,0.0,60.0,11.0,0.0
2655,66.0,0.0,60.0,12.0,0.0
2656,64.0,0.0,30.0,6.0,0.0
2657,66.0,0.0,60.0,3.0,0.0
2658,52.0,0.0,60.0,13.0,0.0
2659,55.0,0.0,30.0,15.0,0.0
2660,55.0,0.0,30.0,7.0,0.0
2661,43.0,0.0,30.0,8.0,0.0
2662,55.0,0.0,30.0,1.0,0.0
2663,67.0,0.0,30.0,5.0,0.0
2664,67.0,0.0,30.0,6.0,0.0
2665,67.0,30.0,30.0,4.0,0.0
2666,79.0,0.0,60.0,15.0,0.0
2667,71.0,0.0,60.0,15.0,0.0
2668,74.0,0.0,60.0,15.0,0.0
2669,59.0,0.0,30.0,15.0,0.0
2670,71.0,0.0,30.0,5.0,0.0
2671,79.0,0.0,60.0,10.0,0.0
2672,59.0,30.0,30.0,7.0,0.0
2673,59.0,0.0,30.0,1.0,0.0
2674,76.0,0.0,60.0,15.0,0.0
2675,47.0,0.0,30.0,8.0,0.0
2676,73.0,0.0,30.0,3.0,0.0
2677,67.0,0.0,60.0,0.0,0.0
2678,71.0,0.0,30.0,4.0,0.0
2679,64.0,0.0,60.0,3.0,0.0
2680,62.0,0.0,60.0,3.0,0.0
2681,71.0,0.0,30.0,6.0,0.0
2682,62.0,0.0,60.0,13.0,0.0
2683,73.0,0.0,30.0,11.0,0.0
2684,64.0,0.0,60.0,12.0,0.0
2685,62.0,0.0,30.0,7.0,0.0
2686,62.0,0.0,30.0,1.0,0.0
2687,50.0,0.0,30.0,8.0,0.0
2688,74.0,0.0,30.0,6.0,0.0
2689,71.0,0.0,30.0,11.0,0.0
2690,62.0,0.0,30.0,15.0,0.0
2691,74.0,0.0,30.0,4.0,0.0
2692,74.0,0.0,30.0,5.0,0.0
2693,71.0,30.0,30.0,3.0,0.0
2694,73.0,30.0,30.0,5.0,0.0
2695,70.0,0.0,60.0,11.0,0.0
2696,61.0,0.0,60.0,13.0,0.0
2697,73.0,0.0,120.0,15.0,0.0
2698,70.0,0.0,120.0,15.0,0.0
2699,61.0,0.0,30.0,7.0,0.0
2700,79.0,0.0,120.0,15.0,0.0
2701,64.0,0.0,120.0,15.0,0.0
2702,61.0,0.0,30.0,15.0,0.0
2703,79.0,0.0,120.0,10.0,0.0
2704,70.0,0.0,60.0,3.0,0.0
2705,64.0,0.0,60.0,12.0,0.0
2706,61.0,0.0,30.0,1.0,0.0
2707,73.0,0.0,30.0,6.0,0.0
2708,64.0,0.0,60.0,3.0,0.0
2709,49.0,0.0,30.0,8.0,0.0
2710,61.0,0.0,60.0,3.0,0.0
2711,73.0,0.0,30.0,4.0,0.0
2712,73.0,30.0,120.0,0.0,0.0
2713,58.0,0.0,30.0,7.0,0.0
2714,46.0,30.0,30.0,8.0,0.0
2715,58.0,0.0,30.0,1.0,0.0
2716,58.0,0.0,30.0,15.0,0.0
2717,70.0,0.0,30.0,5.0,0.0
2718,70.0,0.0,30.0,6.0,0.0
2719,70.0,0.0,30.0,4.0,0.0
2720,43.0,0.0,30.0,8.0,0.0
2721,52.0,0.0,60.0,3.0,0.0
2722,61.0,0.0,60.0,3.0,0.0
2723,55.0,0.0,30.0,7.0,0.0
2724,67.0,0.0,30.0,6.0,0.0
2725,55.0,0.0,30.0,1.0,0.0
2726,67.0,30.0,30.0,5.0,0.0
2727,70.0,0.0,60.0,3.0,0.0
2728,55.0,0.0,30.0,15.0,0.0
2729,70.0,0.0,60.0,11.0,0.0
2730,61.0,0.0,60.0,12.0,0.0
2731,67.0,0.0,30.0,4.0,0.0
2732,52.0,0.0,60.0,13.0,0.0
2733,52.0,0.0,30.0,15.0,0.0
2734,52.0,0.0,30.0,7.0,0.0
2735,52.0,0.0,30.0,1.0,0.0
2736,64.0,0.0,30.0,5.0,0.0
2737,64.0,0.0,30.0,4.0,0.0
2738,64.0,0.0,30.0,6.0,0.0
2739,40.0,0.0,30.0,8.0,0.0
2740,62.0,0.0,30.0,5.0,0.0
2741,62.0,30.0,30.0,6.0,0.0
2742,50.0,0.0,30.0,15.0,0.0
2743,62.0,0.0,120.0,1.0,0.0
2744,50.0,0.0,30.0,1.0,0.0
2745,71.0,0.0,60.0,3.0,0.0
2746,66.0,0.0,120.0,15.0,0.0
2747,79.0,0.0,120.0,15.0,0.0
2748,62.0,0.0,30.0,4.0,0.0
2749,38.0,0.0,30.0,8.0,0.0
2750,78.0,0.0,60.0,10.0,0.0
2751,62.0,0.0,60.0,12.0,0.0
2752,50.0,0.0,30.0,7.0,0.0
2753,50.0,0.0,60.0,13.0,0.0
2754,50.0,0.0,60.0,3.0,0.0
2755,71.0,0.0,60.0,11.0,0.0
2756,71.0,0.0,120.0,15.0,0.0
2757,62.0,0.0,60.0,3.0,0.0
2758,71.0,0.0,120.0,0.0,0.0
2759,66.0,0.0,120.0,0.0,0.0
2760,35.0,0.0,30.0,8.0,0.0
2761,59.0,0.0,30.0,5.0,0.0
2762,47.0,0.0,30.0,7.0,0.0
2763,47.0,0.0,30.0,1.0,0.0
2764,59.0,0.0,30.0,4.0,0.0
2765,47.0,0.0,30.0,15.0,0.0
2766,59.0,30.0,30.0,6.0,0.0
2767,66.0,0.0,60.0,12.0,0.0
2768,62.0,30.0,30.0,4.0,0.0
2769,50.0,0.0,30.0,7.0,0.0
2770,38.0,0.0,30.0,8.0,0.0
2771,83.0,0.0,60.0,10.0,0.0
2772,66.0,0.0,60.0,3.0,0.0
2773,47.0,0.0,60.0,13.0,0.0
2774,62.0,0.0,30.0,6.0,0.0
2775,50.0,0.0,30.0,1.0,0.0
2776,62.0,0.0,30.0,5.0,0.0
2777,74.0,0.0,60.0,3.0,0.0
2778,50.0,0.0,30.0,15.0,0.0
2779,47.0,0.0,60.0,3.0,0.0
2780,74.0,0.0,60.0,11.0,0.0
2781,52.0,0.0,30.0,15.0,0.0
2782,64.0,0.0,30.0,6.0,0.0
2783,40.0,0.0,30.0,8.0,0.0
2784,52.0,30.0,30.0,7.0,0.0
2785,64.0,0.0,30.0,5.0,0.0
2786,52.0,0.0,30.0,1.0,0.0
2787,64.0,0.0,30.0,4.0,0.0
2788,70.0,0.0,120.0,15.0,0.0
2789,70.0,0.0,120.0,0.0,0.0
2790,73.0,0.0,120.0,0.0,0.0
2791,66.0,0.0,30.0,5.0,0.0
2792,66.0,0.0,30.0,4.0,0.0
2793,78.0,0.0,120.0,15.0,0.0
2794,73.0,0.0,120.0,15.0,0.0
2795,82.0,30.0,60.0,10.0,0.0
2796,61.0,0.0,120.0,1.0,0.0
2797,54.0,0.0,30.0,1.0,0.0
2798,54.0,0.0,30.0,7.0,0.0
2799,54.0,0.0,30.0,15.0,0.0
2800,66.0,0.0,30.0,6.0,0.0
2801,42.0,30.0,30.0,8.0,0.0
2802,56.0,0.0,30.0,15.0,0.0
2803,68.0,0.0,30.0,4.0,0.0
2804,68.0,0.0,30.0,6.0,0.0
2805,44.0,0.0,30.0,8.0,0.0
2806,56.0,0.0,30.0,1.0,0.0
2807,56.0,0.0,30.0,7.0,0.0
2808,68.0,0.0,30.0,5.0,0.0
2809,78.0,0.0,60.0,11.0,0.0
2810,58.0,0.0,30.0,7.0,0.0
2811,70.0,0.0,30.0,6.0,0.0
2812,58.0,0.0,30.0,1.0,0.0
2813,78.0,0.0,60.0,10.0,0.0
2814,58.0,0.0,30.0,15.0,0.0
2815,78.0,0.0,60.0,3.0,0.0
2816,46.0,0.0,30.0,8.0,0.0
2817,70.0,30.0,30.0,5.0,0.0
2818,70.0,0.0,30.0,4.0,0.0
2819,66.0,0.0,30.0,6.0,0.0
2820,54.0,0.0,30.0,15.0,0.0
2821,54.0,0.0,30.0,1.0,0.0
2822,54.0,0.0,30.0,7.0,0.0
2823,66.0,0.0,30.0,4.0,0.0
2824,42.0,0.0,30.0,8.0,0.0
2825,66.0,30.0,30.0,5.0,0.0
2826,74.0,0.0,120.0,0.0,0.0
2827,71.0,0.0,120.0,0.0,0.0
2828,74.0,0.0,60.0,11.0,0.0
2829,71.0,0.0,30.0,4.0,0.0
2830,59.0,0.0,30.0,7.0,0.0
2831,59.0,30.0,30.0,6.0,0.0
2832,74.0,0.0,60.0,3.0,0.0
2833,47.0,0.0,30.0,8.0,0.0
2834,66.0,0.0,120.0,15.0,0.0
2835,59.0,0.0,30.0,1.0,0.0
2836,74.0,0.0,120.0,15.0,0.0
2837,71.0,0.0,120.0,15.0,0.0
2838,71.0,0.0,30.0,5.0,0.0
2839,59.0,0.0,30.0,15.0,0.0
2840,73.0,0.0,30.0,5.0,0.0
2841,61.0,0.0,30.0,1.0,0.0
2842,61.0,30.0,30.0,6.0,0.0
2843,61.0,0.0,30.0,7.0,0.0
2844,49.0,0.0,30.0,8.0,0.0
2845,73.0,0.0,30.0,4.0,0.0
2846,61.0,0.0,30.0,15.0,0.0
2847,62.0,0.0,30.0,7.0,0.0
2848,74.0,30.0,30.0,4.0,0.0
2849,62.0,0.0,30.0,15.0,0.0
2850,62.0,0.0,30.0,6.0,0.0
2851,62.0,0.0,30.0,1.0,0.0
2852,74.0,0.0,30.0,5.0,0.0
2853,50.0,0.0,30.0,8.0,0.0
2854,71.0,0.0,60.0,3.0,0.0
2855,71.0,0.0,60.0,11.0,0.0
2856,71.0,30.0,60.0,12.0,0.0
2857,52.0,0.0,30.0,8.0,0.0
2858,64.0,0.0,30.0,1.0,0.0
2859,76.0,0.0,30.0,4.0,0.0
2860,64.0,0.0,30.0,7.0,0.0
2861,64.0,0.0,30.0,6.0,0.0
2862,64.0,0.0,30.0,15.0,0.0
2863,76.0,0.0,30.0,5.0,0.0
2864,66.0,0.0,30.0,6.0,0.0
2865,78.0,0.0,120.0,15.0,0.0
2866,70.0,0.0,60.0,3.0,0.0
2867,78.0,0.0,30.0,4.0,0.0
2868,66.0,0.0,30.0,15.0,0.0
2869,66.0,0.0,30.0,7.0,0.0
2870,54.0,0.0,30.0,8.0,0.0
2871,78.0,30.0,30.0,5.0,0.0
2872,66.0,0.0,30.0,1.0,0.0
2873,73.0,0.0,120.0,0.0,0.0
2874,70.0,0.0,120.0,0.0,0.0
2875,70.0,0.0,60.0,12.0,0.0
2876,68.0,0.0,30.0,15.0,0.0
2877,56.0,0.0,30.0,8.0,0.0
2878,68.0,0.0,30.0,1.0,0.0
2879,68.0,30.0,30.0,7.0,0.0
2880,80.0,0.0,30.0,4.0,0.0
2881,80.0,0.0,30.0,5.0,0.0
2882,68.0,0.0,30.0,6.0,0.0
2883,70.0,0.0,30.0,1.0,0.0
2884,66.0,0.0,60.0,13.0,0.0
2885,70.0,0.0,30.0,15.0,0.0
2886,70.0,0.0,30.0,7.0,0.0
2887,70.0,0.0,30.0,6.0,0.0
2888,66.0,0.0,60.0,3.0,0.0
2889,66.0,0.0,60.0,12.0,0.0
2890,82.0,0.0,30.0,5.0,0.0
2891,58.0,30.0,30.0,8.0,0.0
2892,82.0,0.0,30.0,4.0,0.0
2893,78.0,0.0,30.0,4.0,0.0
2894,66.0,0.0,30.0,7.0,0.0
2895,78.0,0.0,30.0,5.0,0.0
2896,54.0,0.0,30.0,8.0,0.0
2897,66.0,0.0,30.0,6.0,0.0
2898,66.0,0.0,30.0,1.0,0.0
2899,66.0,0.0,30.0,15.0,0.0
2900,83.0,0.0,30.0,4.0,0.0
2901,83.0,0.0,30.0,5.0,0.0
2902,71.0,0.0,120.0,0.0,0.0
2903,74.0,60.0,120.0,0.0,0.0
2904,62.0,30.0,60.0,13.0,0.0
2905,71.0,0.0,30.0,1.0,0.0
2906,71.0,0.0,30.0,6.0,0.0
2907,71.0,0.0,30.0,7.0,0.0
2908,74.0,0.0,120.0,15.0,0.0
2909,59.0,0.0,30.0,8.0,0.0
2910,62.0,0.0,60.0,3.0,0.0
2911,78.0,0.0,120.0,15.0,0.0
2912,71.0,30.0,30.0,15.0,0.0
2913,66.0,0.0,30.0,7.0,0.0
2914,78.0,0.0,30.0,4.0,0.0
2915,78.0,0.0,30.0,5.0,0.0
2916,54.0,0.0,30.0,8.0,0.0
2917,66.0,0.0,30.0,1.0,0.0
2918,66.0,0.0,30.0,15.0,0.0
2919,66.0,0.0,30.0,6.0,0.0
2920,62.0,0.0,30.0,6.0,0.0
2921,59.0,0.0,60.0,12.0,0.0
2922,74.0,0.0,60.0,10.0,0.0
2923,59.0,0.0,60.0,13.0,0.0
2924,71.0,0.0,60.0,11.0,0.0
2925,71.0,0.0,60.0,3.0,0.0
2926,50.0,0.0,30.0,8.0,0.0
2927,74.0,30.0,30.0,4.0,0.0
2928,74.0,0.0,30.0,5.0,0.0
2929,62.0,0.0,30.0,1.0,0.0
2930,62.0,0.0,60.0,3.0,0.0
2931,62.0,0.0,30.0,7.0,0.0
2932,62.0,0.0,30.0,15.0,0.0
2933,59.0,0.0,60.0,3.0,0.0
2934,71.0,0.0,30.0,5.0,0.0
2935,59.0,0.0,30.0,6.0,0.0
2936,59.0,0.0,30.0,15.0,0.0
2937,47.0,0.0,30.0,8.0,0.0
2938,71.0,0.0,30.0,4.0,0.0
2939,59.0,0.0,30.0,1.0,0.0
2940,59.0,0.0,30.0,7.0,0.0
2941,66.0,0.0,60.0,15.0,0.0
2942,73.0,0.0,60.0,10.0,0.0
2943,70.0,0.0,120.0,15.0,0.0
2944,73.0,0.0,120.0,15.0,0.0
2945,70.0,0.0,120.0,3.0,0.0
2946,66.0,60.0,60.0,1.0,0.0
2947,70.0,0.0,60.0,11.0,0.0
2948,78.0,0.0,60.0,4.0,0.0
2949,54.0,0.0,60.0,8.0,0.0
2950,66.0,0.0,60.0,7.0,0.0
2951,73.0,0.0,120.0,0.0,0.0
2952,70.0,0.0,120.0,0.0,0.0
2953,78.0,0.0,60.0,5.0,0.0
2954,66.0,0.0,60.0,6.0,0.0
2955,66.0,0.0,120.0,3.0,0.0
2956,57.0,0.0,120.0,3.0,0.0
2957,66.0,0.0,60.0,12.0,0.0
2958,54.0,0.0,60.0,1.0,0.0
2959,54.0,0.0,60.0,7.0,0.0
2960,70.0,60.0,60.0,11.0,0.0
2961,42.0,0.0,60.0,8.0,0.0
2962,54.0,0.0,60.0,12.0,0.0
2963,54.0,0.0,60.0,6.0,0.0
2964,54.0,0.0,60.0,15.0,0.0
2965,78.0,0.0,60.0,10.0,0.0
2966,66.0,0.0,60.0,5.0,0.0
2967,66.0,0.0,60.0,4.0,0.0
2968,73.0,0.0,240.0,15.0,0.0
2969,66.0,0.0,240.0,15.0,0.0
2970,54.0,0.0,60.0,15.0,0.0
2971,70.0,60.0,240.0,15.0,0.0
2972,54.0,0.0,60.0,7.0,0.0
2973,54.0,0.0,120.0,13.0,0.0
2974,42.0,60.0,60.0,8.0,0.0
2975,54.0,60.0,60.0,7.0,0.0
2976,42.0,0.0,60.0,8.0,0.0
2977,54.0,0.0,60.0,15.0,0.0
2978,54.0,0.0,120.0,13.0,0.0
2979,42.0,60.0,60.0,8.0,0.0
2980,54.0,0.0,60.0,7.0,0.0
2981,54.0,0.0,60.0,15.0,0.0
2982,54.0,0.0,60.0,7.0,0.0
2983,42.0,0.0,60.0,8.0,0.0
2984,54.0,0.0,60.0,15.0,0.0
2985,42.0,0.0,60.0,8.0,0.0
2986,62.0,60.0,120.0,11.0,0.0
2987,54.0,0.0,60.0,7.0,0.0
2988,66.0,0.0,240.0,15.0,0.0
2989,67.0,0.0,120.0,10.0,0.0
2990,62.0,0.0,60.0,5.0,0.0
2991,67.0,0.0,240.0,15.0,0.0
2992,54.0,0.0,60.0,15.0,0.0
2993,59.0,60.0,60.0,6.0,0.0
2994,59.0,0.0,240.0,15.0,0.0
2995,59.0,0.0,120.0,12.0,0.0
2996,67.0,0.0,60.0,4.0,0.0
2997,62.0,0.0,240.0,15.0,0.0
2998,54.0,0.0,240.0,13.0,0.0
2999,54.0,0.0,60.0,15.0,0.0
3000,67.0,0.0,60.0,4.0,0.0
3001,59.0,0.0,60.0,6.0,0.0
3002,42.0,0.0,60.0,8.0,0.0
3003,54.0,0.0,60.0,7.0,0.0
3004,62.0,0.0,60.0,5.0,0.0
3005,59.0,0.0,60.0,6.0,0.0
3006,62.0,0.0,120.0,11.0,0.0
3007,54.0,0.0,60.0,7.0,0.0
3008,42.0,60.0,60.0,8.0,0.0
3009,62.0,0.0,60.0,5.0,0.0
3010,67.0,60.0,120.0,10.0,0.0
3011,59.0,0.0,120.0,12.0,0.0
3012,54.0,0.0,60.0,15.0,0.0
3013,67.0,0.0,60.0,4.0,0.0
3014,59.0,0.0,60.0,6.0,0.0
3015,62.0,0.0,60.0,5.0,0.0
3016,67.0,0.0,60.0,4.0,0.0
3017,54.0,0.0,60.0,7.0,0.0
3018,54.0,0.0,60.0,15.0,0.0
3019,42.0,0.0,60.0,8.0,0.0
3020,40.0,60.0,60.0,8.0,0.0
3021,61.0,0.0,60.0,6.0,0.0
3022,67.0,0.0,60.0,4.0,0.0
3023,52.0,0.0,240.0,13.0,0.0
3024,52.0,0.0,60.0,7.0,0.0
3025,61.0,0.0,180.0,12.0,0.0
3026,64.0,0.0,180.0,11.0,0.0
3027,52.0,0.0,60.0,15.0,0.0
3028,67.0,0.0,240.0,15.0,0.0
3029,61.0,0.0,120.0,15.0,0.0
3030,64.0,0.0,120.0,15.0,0.0
3031,64.0,0.0,60.0,5.0,0.0
3032,67.0,0.0,240.0,10.0,0.0
3033,67.0,0.0,60.0,4.0,0.0
3034,61.0,60.0,60.0,6.0,0.0
3035,64.0,0.0,60.0,5.0,0.0
3036,40.0,0.0,60.0,8.0,0.0
3037,52.0,0.0,60.0,15.0,0.0
3038,52.0,0.0,60.0,7.0,0.0
3039,40.0,0.0,60.0,8.0,0.0
3040,61.0,0.0,60.0,6.0,0.0
3041,64.0,0.0,60.0,5.0,0.0
3042,52.0,0.0,60.0,15.0,0.0
3043,59.0,0.0,120.0,15.0,0.0
3044,62.0,60.0,120.0,15.0,0.0
3045,67.0,0.0,60.0,4.0,0.0
3046,52.0,60.0,60.0,7.0,0.0
3047,52.0,0.0,60.0,7.0,0.0
3048,62.0,0.0,60.0,11.0,0.0
3049,62.0,0.0,60.0,5.0,0.0
3050,40.0,0.0,60.0,8.0,0.0
3051,52.0,0.0,60.0,15.0,0.0
3052,59.0,0.0,60.0,12.0,0.0
3053,59.0,0.0,60.0,6.0,0.0
3054,67.0,0.0,60.0,4.0,0.0
3055,54.0,0.0,60.0,15.0,0.0
3056,66.0,0.0,120.0,10.0,0.0
3057,42.0,0.0,60.0,8.0,0.0
3058,61.0,0.0,60.0,5.0,0.0
3059,54.0,0.0,60.0,7.0,0.0
3060,66.0,0.0,60.0,4.0,0.0
3061,58.0,30.0,60.0,6.0,0.0
3062,58.0,0.0,120.0,12.0,0.0
3063,54.0,0.0,120.0,13.0,0.0
3064,61.0,0.0,60.0,15.0,0.0
3065,58.0,0.0,60.0,15.0,0.0
3066,61.0,0.0,120.0,11.0,0.0
3067,64.0,0.0,60.0,6.0,0.0
3068,40.0,0.0,60.0,8.0,0.0
3069,64.0,0.0,30.0,4.0,0.0
3070,52.0,0.0,60.0,7.0,0.0
3071,64.0,30.0,30.0,5.0,0.0
3072,52.0,0.0,60.0,15.0,0.0
3073,64.0,30.0,60.0,15.0,0.0
3074,73.0,0.0,30.0,4.0,0.0
3075,73.0,0.0,30.0,5.0,0.0
3076,62.0,15.0,30.0,5.0,0.0
3077,50.0,30.0,60.0,7.0,0.0
3078,62.0,0.0,60.0,15.0,0.0
3079,62.0,0.0,60.0,6.0,0.0
3080,38.0,0.0,60.0,8.0,0.0
3081,62.0,0.0,30.0,4.0,0.0
3082,50.0,0.0,60.0,15.0,0.0
3083,71.0,15.0,30.0,4.0,0.0
3084,71.0,0.0,30.0,5.0,0.0
3085,49.0,0.0,60.0,15.0,0.0
3086,61.0,0.0,60.0,6.0,0.0
3087,61.0,0.0,30.0,5.0,0.0
3088,61.0,0.0,60.0,15.0,0.0
3089,37.0,60.0,60.0,8.0,0.0
3090,61.0,30.0,30.0,4.0,0.0
3091,49.0,0.0,60.0,7.0,0.0
3092,70.0,0.0,30.0,5.0,0.0
3093,70.0,0.0,30.0,4.0,0.0
3094,59.0,0.0,120.0,4.0,0.0
3095,35.0,0.0,60.0,8.0,0.0
3096,66.0,0.0,120.0,15.0,0.0
3097,74.0,0.0,120.0,15.0,0.0
3098,71.0,0.0,120.0,15.0,0.0
3099,47.0,0.0,60.0,15.0,0.0
3100,59.0,60.0,60.0,6.0,0.0
3101,47.0,0.0,60.0,7.0,0.0
3102,59.0,60.0,120.0,5.0,0.0
3103,71.0,0.0,240.0,10.0,0.0
3104,62.0,0.0,60.0,6.0,0.0
3105,59.0,0.0,60.0,15.0,0.0
3106,47.0,0.0,60.0,8.0,0.0
3107,59.0,0.0,60.0,7.0,0.0
3108,50.0,60.0,60.0,8.0,0.0
3109,66.0,0.0,60.0,6.0,0.0
3110,62.0,0.0,60.0,7.0,0.0
3111,71.0,0.0,120.0,15.0,0.0
3112,62.0,0.0,60.0,15.0,0.0
3113,66.0,0.0,120.0,15.0,0.0
3114,74.0,0.0,120.0,15.0,0.0
3115,59.0,60.0,60.0,7.0,0.0
3116,62.0,0.0,60.0,5.0,0.0
3117,59.0,0.0,60.0,15.0,0.0
3118,62.0,0.0,60.0,6.0,0.0
3119,71.0,0.0,60.0,4.0,0.0
3120,47.0,0.0,60.0,8.0,0.0
3121,66.0,0.0,60.0,5.0,0.0
3122,74.0,0.0,120.0,10.0,0.0
3123,74.0,60.0,60.0,4.0,0.0
3124,66.0,0.0,180.0,15.0,0.0
3125,71.0,60.0,180.0,15.0,0.0
3126,74.0,0.0,180.0,15.0,0.0
3127,59.0,0.0,60.0,15.0,0.0
3128,59.0,0.0,60.0,7.0,0.0
3129,71.0,0.0,60.0,4.0,0.0
3130,66.0,0.0,60.0,6.0,0.0
3131,47.0,0.0,60.0,8.0,0.0
3132,62.0,60.0,60.0,5.0,0.0
3133,74.0,0.0,60.0,10.0,0.0
3134,62.0,60.0,60.0,15.0,0.0
3135,50.0,0.0,60.0,8.0,0.0
3136,62.0,0.0,60.0,7.0,0.0
3137,71.0,0.0,60.0,6.0,0.0
3138,74.0,0.0,60.0,4.0,0.0
3139,47.0,0.0,60.0,8.0,0.0
3140,66.0,0.0,60.0,6.0,0.0
3141,71.0,0.0,60.0,5.0,0.0
3142,59.0,0.0,60.0,7.0,0.0
3143,74.0,0.0,60.0,10.0,0.0
3144,59.0,0.0,60.0,15.0,0.0
3145,78.0,0.0,60.0,4.0,0.0
3146,73.0,60.0,60.0,5.0,0.0
3147,78.0,0.0,120.0,10.0,0.0
3148,66.0,0.0,60.0,6.0,0.0
3149,66.0,0.0,60.0,5.0,0.0
3150,46.0,60.0,60.0,8.0,0.0
3151,73.0,0.0,60.0,4.0,0.0
3152,78.0,0.0,180.0,15.0,0.0
3153,58.0,0.0,60.0,15.0,0.0
3154,71.0,60.0,180.0,15.0,0.0
3155,58.0,0.0,60.0,7.0,0.0
3156,67.0,0.0,180.0,15.0,0.0
3157,42.0,0.0,60.0,8.0,0.0
3158,61.0,0.0,60.0,6.0,0.0
3159,54.0,60.0,60.0,7.0,0.0
3160,78.0,0.0,120.0,10.0,0.0
3161,54.0,0.0,60.0,15.0,0.0
3162,73.0,0.0,60.0,5.0,0.0
3163,58.0,0.0,60.0,15.0,0.0
3164,70.0,0.0,60.0,6.0,0.0
3165,58.0,0.0,60.0,7.0,0.0
3166,78.0,0.0,60.0,4.0,0.0
3167,46.0,0.0,60.0,8.0,0.0
3168,75.0,0.0,60.0,4.0,0.0
3169,75.0,0.0,180.0,10.0,0.0
3170,71.0,60.0,60.0,5.0,0.0
3171,78.0,0.0,240.0,15.0,0.0
3172,75.0,0.0,240.0,15.0,0.0
3173,71.0,0.0,240.0,15.0,0.0
3174,71.0,0.0,60.0,4.0,0.0
3175,66.0,0.0,60.0,5.0,0.0
3176,63.0,60.0,60.0,6.0,0.0
3177,59.0,0.0,60.0,7.0,0.0
3178,59.0,0.0,60.0,15.0,0.0
3179,47.0,0.0,60.0,8.0,0.0
3180,35.0,0.0,60.0,8.0,0.0
3181,47.0,60.0,60.0,15.0,0.0
3182,47.0,0.0,60.0,7.0,0.0
3183,66.0,0.0,60.0,6.0,0.0
3184,75.0,0.0,60.0,10.0,0.0
3185,71.0,60.0,60.0,5.0,0.0
3186,59.0,0.0,60.0,7.0,0.0
3187,75.0,0.0,60.0,4.0,0.0
3188,59.0,0.0,60.0,15.0,0.0
3189,47.0,0.0,60.0,8.0,0.0
3190,63.0,0.0,60.0,6.0,0.0
3191,76.0,0.0,120.0,10.0,0.0
3192,67.0,60.0,60.0,5.0,0.0
3193,76.0,0.0,60.0,4.0,0.0
3194,64.0,0.0,240.0,11.0,0.0
3195,64.0,0.0,60.0,5.0,0.0
3196,40.0,0.0,60.0,8.0,0.0
3197,52.0,0.0,60.0,7.0,0.0
3198,71.0,0.0,60.0,4.0,0.0
3199,52.0,0.0,60.0,15.0,0.0
3200,64.0,0.0,180.0,15.0,0.0
3201,67.0,0.0,180.0,15.0,0.0
3202,71.0,0.0,180.0,15.0,0.0
3203,55.0,60.0,60.0,6.0,0.0
3204,76.0,0.0,180.0,15.0,0.0
3205,71.0,0.0,180.0,10.0,0.0
3206,55.0,0.0,60.0,7.0,0.0
3207,43.0,0.0,60.0,8.0,0.0
3208,55.0,0.0,60.0,15.0,0.0
3209,59.0,60.0,60.0,6.0,0.0
3210,64.0,0.0,60.0,5.0,0.0
3211,40.0,0.0,60.0,8.0,0.0
3212,55.0,60.0,60.0,6.0,0.0
3213,71.0,0.0,60.0,4.0,0.0
3214,52.0,0.0,60.0,15.0,0.0
3215,52.0,0.0,60.0,7.0,0.0
3216,71.0,60.0,60.0,4.0,0.0
3217,67.0,0.0,120.0,11.0,0.0
3218,67.0,0.0,60.0,5.0,0.0
3219,79.0,0.0,60.0,10.0,0.0
3220,59.0,0.0,60.0,6.0,0.0
3221,52.0,0.0,60.0,8.0,0.0
3222,79.0,0.0,60.0,4.0,0.0
3223,64.0,0.0,60.0,7.0,0.0
3224,67.0,0.0,60.0,15.0,0.0
3225,71.0,0.0,60.0,15.0,0.0
3226,79.0,60.0,60.0,15.0,0.0
3227,64.0,0.0,60.0,15.0,0.0
3228,64.0,0.0,60.0,5.0,0.0
3229,78.0,60.0,60.0,4.0,0.0
3230,67.0,0.0,60.0,11.0,0.0
3231,48.0,0.0,60.0,8.0,0.0
3232,60.0,0.0,60.0,15.0,0.0
3233,78.0,0.0,60.0,15.0,0.0
3234,72.0,0.0,60.0,15.0,0.0
3235,67.0,0.0,60.0,6.0,0.0
3236,78.0,0.0,60.0,10.0,0.0
3237,60.0,0.0,60.0,7.0,0.0
3238,67.0,0.0,60.0,15.0,0.0
3239,76.0,60.0,60.0,4.0,0.0
3240,76.0,0.0,60.0,10.0,0.0
3241,67.0,0.0,60.0,11.0,0.0
3242,67.0,0.0,60.0,15.0,0.0
3243,52.0,0.0,60.0,8.0,0.0
3244,67.0,0.0,60.0,5.0,0.0
3245,64.0,0.0,60.0,15.0,0.0
3246,76.0,0.0,60.0,15.0,0.0
3247,64.0,0.0,60.0,7.0,0.0
3248,59.0,0.0,60.0,6.0,0.0
3249,75.0,0.0,60.0,4.0,0.0
3250,75.0,0.0,60.0,10.0,0.0
3251,75.0,60.0,60.0,15.0,0.0
3252,71.0,0.0,120.0,11.0,0.0
3253,71.0,0.0,60.0,5.0,0.0
3254,63.0,0.0,60.0,6.0,0.0
3255,73.0,0.0,60.0,10.0,0.0
3256,66.0,0.0,180.0,15.0,0.0
3257,71.0,0.0,180.0,15.0,0.0
3258,74.0,0.0,180.0,15.0,0.0
3259,59.0,0.0,60.0,15.0,0.0
3260,47.0,0.0,60.0,8.0,0.0
3261,59.0,0.0,60.0,7.0,0.0
3262,66.0,60.0,60.0,5.0,0.0
3263,73.0,0.0,60.0,4.0,0.0
3264,63.0,0.0,60.0,7.0,0.0
3265,71.0,0.0,120.0,11.0,0.0
3266,66.0,0.0,60.0,6.0,0.0
3267,71.0,60.0,60.0,10.0,0.0
3268,63.0,0.0,60.0,15.0,0.0
3269,51.0,0.0,60.0,8.0,0.0
3270,71.0,0.0,60.0,4.0,0.0
3271,71.0,0.0,60.0,5.0,0.0
3272,63.0,60.0,60.0,6.0,0.0
3273,59.0,0.0,60.0,7.0,0.0
3274,47.0,0.0,60.0,8.0,0.0
3275,73.0,0.0,60.0,4.0,0.0
3276,59.0,0.0,60.0,15.0,0.0
3277,73.0,0.0,60.0,10.0,0.0
3278,74.0,0.0,60.0,15.0,0.0
3279,68.0,0.0,240.0,15.0,0.0
3280,71.0,0.0,240.0,15.0,0.0
3281,74.0,0.0,60.0,10.0,0.0
3282,74.0,0.0,60.0,4.0,0.0
3283,68.0,60.0,60.0,5.0,0.0
3284,68.0,0.0,180.0,11.0,0.0
3285,64.0,0.0,60.0,7.0,0.0
3286,77.0,0.0,60.0,4.0,0.0
3287,52.0,0.0,60.0,8.0,0.0
3288,68.0,60.0,60.0,6.0,0.0
3289,77.0,0.0,60.0,10.0,0.0
3290,64.0,0.0,60.0,15.0,0.0
3291,77.0,0.0,60.0,15.0,0.0
3292,74.0,0.0,60.0,5.0,0.0
3293,52.0,0.0,60.0,7.0,0.0
3294,74.0,0.0,60.0,6.0,0.0
3295,76.0,60.0,60.0,15.0,0.0
3296,52.0,0.0,60.0,15.0,0.0
3297,76.0,0.0,60.0,4.0,0.0
3298,76.0,0.0,60.0,10.0,0.0
3299,40.0,0.0,60.0,8.0,0.0
3300,64.0,0.0,60.0,7.0,0.0
3301,52.0,0.0,60.0,8.0,0.0
3302,68.0,0.0,60.0,11.0,0.0
3303,71.0,0.0,60.0,6.0,0.0
3304,74.0,0.0,60.0,4.0,0.0
3305,64.0,0.0,60.0,15.0,0.0
3306,74.0,0.0,60.0,15.0,0.0
3307,68.0,0.0,60.0,5.0,0.0
3308,74.0,60.0,60.0,10.0,0.0
3309,72.0,0.0,120.0,4.0,0.0
3310,57.0,60.0,240.0,12.0,0.0
3311,72.0,0.0,120.0,10.0,0.0
3312,69.0,60.0,60.0,5.0,0.0
3313,69.0,0.0,120.0,11.0,0.0
3314,57.0,0.0,60.0,7.0,0.0
3315,64.0,0.0,180.0,15.0,0.0
3316,72.0,0.0,180.0,15.0,0.0
3317,57.0,0.0,60.0,15.0,0.0
3318,60.0,60.0,60.0,6.0,0.0
3319,69.0,0.0,180.0,15.0,0.0
3320,64.0,0.0,60.0,5.0,0.0
3321,45.0,0.0,60.0,8.0,0.0
3322,64.0,0.0,60.0,6.0,0.0
3323,64.0,0.0,180.0,11.0,0.0
3324,48.0,60.0,60.0,8.0,0.0
3325,60.0,0.0,60.0,7.0,0.0
3326,60.0,0.0,60.0,15.0,0.0
3327,45.0,0.0,60.0,8.0,0.0
3328,57.0,0.0,60.0,7.0,0.0
3329,57.0,0.0,60.0,15.0,0.0
3330,60.0,0.0,60.0,6.0,0.0
3331,76.0,0.0,60.0,4.0,0.0
3332,69.0,0.0,60.0,5.0,0.0
3333,81.0,0.0,60.0,4.0,0.0
3334,60.0,60.0,120.0,12.0,0.0
3335,64.0,60.0,60.0,5.0,0.0
3336,72.0,0.0,60.0,15.0,0.0
3337,45.0,0.0,60.0,8.0,0.0
3338,64.0,0.0,60.0,15.0,0.0
3339,72.0,0.0,60.0,5.0,0.0
3340,72.0,0.0,60.0,11.0,0.0
3341,69.0,0.0,60.0,15.0,0.0
3342,57.0,0.0,60.0,15.0,0.0
3343,57.0,0.0,60.0,7.0,0.0
3344,76.0,0.0,60.0,4.0,0.0
3345,69.0,0.0,60.0,6.0,0.0
3346,72.0,0.0,120.0,10.0,0.0
3347,51.0,0.0,60.0,7.0,0.0
3348,72.0,0.0,120.0,15.0,0.0
3349,69.0,0.0,120.0,15.0,0.0
3350,71.0,0.0,60.0,11.0,0.0
3351,66.0,0.0,120.0,15.0,0.0
3352,51.0,0.0,60.0,15.0,0.0
3353,71.0,0.0,60.0,5.0,0.0
3354,66.0,0.0,60.0,6.0,0.0
3355,39.0,60.0,60.0,8.0,0.0
3356,60.0,0.0,60.0,12.0,0.0
3357,60.0,0.0,60.0,12.0,0.0
3358,69.0,0.0,60.0,5.0,0.0
3359,69.0,60.0,60.0,11.0,0.0
3360,57.0,0.0,60.0,15.0,0.0
3361,63.0,0.0,60.0,6.0,0.0
3362,57.0,0.0,60.0,7.0,0.0
3363,84.0,0.0,60.0,4.0,0.0
3364,45.0,0.0,60.0,8.0,0.0
3365,68.0,0.0,60.0,11.0,0.0
3366,71.0,0.0,120.0,10.0,0.0
3367,83.0,0.0,60.0,4.0,0.0
3368,68.0,60.0,60.0,5.0,0.0
3369,64.0,0.0,120.0,12.0,0.0
3370,40.0,0.0,60.0,8.0,0.0
3371,66.0,0.0,60.0,5.0,0.0
3372,56.0,0.0,60.0,6.0,0.0
3373,52.0,0.0,60.0,15.0,0.0
3374,71.0,0.0,180.0,15.0,0.0
3375,76.0,0.0,60.0,4.0,0.0
3376,66.0,0.0,60.0,11.0,0.0
3377,68.0,0.0,180.0,15.0,0.0
3378,52.0,60.0,60.0,7.0,0.0
3379,64.0,0.0,180.0,15.0,0.0
3380,64.0,0.0,120.0,12.0,0.0
3381,71.0,0.0,120.0,10.0,0.0
3382,64.0,0.0,60.0,11.0,0.0
3383,56.0,0.0,60.0,15.0,0.0
3384,44.0,0.0,60.0,8.0,0.0
3385,64.0,60.0,60.0,5.0,0.0
3386,59.0,0.0,60.0,6.0,0.0
3387,56.0,0.0,60.0,7.0,0.0
3388,66.0,0.0,60.0,5.0,0.0
3389,40.0,0.0,60.0,8.0,0.0
3390,52.0,0.0,60.0,15.0,0.0
3391,83.0,0.0,60.0,4.0,0.0
3392,56.0,0.0,60.0,6.0,0.0
3393,52.0,60.0,60.0,7.0,0.0
3394,66.0,0.0,60.0,11.0,0.0
3395,76.0,0.0,240.0,10.0,0.0
3396,85.0,0.0,60.0,4.0,0.0
3397,61.0,0.0,180.0,12.0,0.0
3398,67.0,60.0,60.0,11.0,0.0
3399,73.0,0.0,240.0,15.0,0.0
3400,76.0,0.0,240.0,15.0,0.0
3401,68.0,0.0,60.0,15.0,0.0
3402,67.0,0.0,60.0,5.0,0.0
3403,45.0,0.0,60.0,8.0,0.0
3404,57.0,0.0,60.0,7.0,0.0
3405,57.0,0.0,60.0,6.0,0.0
3406,71.0,0.0,60.0,5.0,0.0
3407,71.0,0.0,60.0,11.0,0.0
3408,81.0,0.0,60.0,4.0,0.0
3409,57.0,60.0,60.0,15.0,0.0
3410,71.0,0.0,60.0,15.0,0.0
3411,61.0,0.0,60.0,6.0,0.0
3412,69.0,60.0,60.0,5.0,0.0
3413,45.0,0.0,60.0,7.0,0.0
3414,69.0,0.0,60.0,11.0,0.0
3415,33.0,0.0,60.0,8.0,0.0
3416,45.0,0.0,60.0,15.0,0.0
3417,69.0,0.0,60.0,15.0,0.0
3418,67.0,60.0,60.0,15.0,0.0
3419,57.0,0.0,60.0,15.0,0.0
3420,64.0,0.0,60.0,6.0,0.0
3421,45.0,0.0,60.0,8.0,0.0
3422,85.0,0.0,60.0,4.0,0.0
3423,61.0,0.0,60.0,12.0,0.0
3424,67.0,0.0,60.0,5.0,0.0
3425,67.0,0.0,60.0,11.0,0.0
3426,57.0,0.0,60.0,7.0,0.0
3427,50.0,0.0,240.0,13.0,0.0
3428,69.0,60.0,120.0,10.0,0.0
3429,86.0,60.0,60.0,4.0,0.0
3430,66.0,0.0,120.0,11.0,0.0
3431,62.0,0.0,120.0,12.0,0.0
3432,66.0,0.0,120.0,5.0,0.0
3433,50.0,0.0,60.0,7.0,0.0
3434,62.0,0.0,60.0,6.0,0.0
3435,38.0,0.0,60.0,8.0,0.0
3436,74.0,0.0,60.0,4.0,0.0
3437,66.0,0.0,180.0,15.0,0.0
3438,69.0,0.0,180.0,15.0,0.0
3439,62.0,0.0,180.0,15.0,0.0
3440,50.0,0.0,60.0,15.0,0.0
3441,57.0,0.0,180.0,12.0,0.0
3442,54.0,0.0,60.0,15.0,0.0
3443,54.0,0.0,60.0,7.0,0.0
3444,66.0,0.0,60.0,6.0,0.0
3445,42.0,60.0,60.0,8.0,0.0
3446,78.0,60.0,60.0,4.0,0.0
3447,57.0,0.0,60.0,6.0,0.0
3448,38.0,0.0,60.0,8.0,0.0
3449,50.0,0.0,60.0,7.0,0.0
3450,50.0,0.0,60.0,15.0,0.0
3451,74.0,0.0,60.0,5.0,0.0
3452,54.0,0.0,120.0,13.0,0.0
3453,78.0,0.0,60.0,5.0,0.0
3454,81.0,0.0,60.0,4.0,0.0
3455,57.0,60.0,60.0,6.0,0.0
3456,66.0,0.0,60.0,12.0,0.0
3457,78.0,0.0,60.0,4.0,0.0
3458,66.0,0.0,60.0,6.0,0.0
3459,38.0,0.0,60.0,8.0,0.0
3460,62.0,0.0,180.0,15.0,0.0
3461,66.0,0.0,180.0,15.0,0.0
3462,69.0,0.0,180.0,15.0,0.0
3463,50.0,0.0,60.0,15.0,0.0
3464,74.0,0.0,60.0,5.0,0.0
3465,50.0,60.0,60.0,7.0,0.0
3466,47.0,60.0,60.0,15.0,0.0
3467,35.0,0.0,60.0,8.0,0.0
3468,64.0,0.0,60.0,6.0,0.0
3469,66.0,0.0,120.0,11.0,0.0
3470,64.0,0.0,60.0,12.0,0.0
3471,54.0,0.0,60.0,13.0,0.0
3472,47.0,0.0,60.0,7.0,0.0
3473,50.0,0.0,60.0,7.0,0.0
3474,38.0,60.0,60.0,8.0,0.0
3475,69.0,0.0,60.0,5.0,0.0
3476,62.0,0.0,60.0,6.0,0.0
3477,78.0,0.0,60.0,4.0,0.0
3478,62.0,0.0,60.0,12.0,0.0
3479,54.0,0.0,60.0,13.0,0.0
3480,50.0,0.0,60.0,15.0,0.0
3481,57.0,0.0,120.0,13.0,0.0
3482,61.0,0.0,60.0,6.0,0.0
3483,76.0,60.0,60.0,5.0,0.0
3484,64.0,0.0,120.0,11.0,0.0
3485,81.0,0.0,60.0,4.0,0.0
3486,61.0,0.0,60.0,12.0,0.0
3487,59.0,0.0,60.0,6.0,0.0
3488,76.0,0.0,60.0,4.0,0.0
3489,73.0,60.0,60.0,5.0,0.0
3490,57.0,0.0,60.0,7.0,0.0
3491,59.0,0.0,60.0,12.0,0.0
3492,57.0,0.0,60.0,15.0,0.0
3493,73.0,0.0,180.0,15.0,0.0
3494,64.0,0.0,180.0,15.0,0.0
3495,69.0,0.0,180.0,15.0,0.0
3496,45.0,0.0,60.0,8.0,0.0
3497,45.0,0.0,60.0,7.0,0.0
3498,33.0,0.0,60.0,8.0,0.0
3499,64.0,0.0,120.0,11.0,0.0
3500,57.0,0.0,60.0,12.0,0.0
3501,57.0,60.0,60.0,6.0,0.0
3502,57.0,0.0,120.0,13.0,0.0
3503,45.0,0.0,60.0,15.0,0.0
3504,57.0,0.0,60.0,7.0,0.0
3505,81.0,0.0,60.0,4.0,0.0
3506,76.0,0.0,60.0,5.0,0.0
3507,45.0,0.0,60.0,8.0,0.0
3508,59.0,0.0,60.0,12.0,0.0
3509,57.0,60.0,60.0,15.0,0.0
3510,59.0,0.0,60.0,6.0,0.0
3511,54.0,0.0,180.0,13.0,0.0
3512,60.0,60.0,60.0,6.0,0.0
3513,74.0,0.0,120.0,10.0,0.0
3514,86.0,0.0,60.0,4.0,0.0
3515,69.0,0.0,240.0,11.0,0.0
3516,60.0,0.0,120.0,15.0,0.0
3517,69.0,0.0,240.0,15.0,0.0
3518,60.0,0.0,60.0,12.0,0.0
3519,78.0,0.0,60.0,5.0,0.0
3520,54.0,0.0,60.0,15.0,0.0
3521,42.0,0.0,60.0,8.0,0.0
3522,64.0,0.0,60.0,15.0,0.0
3523,54.0,60.0,60.0,7.0,0.0
3524,64.0,0.0,60.0,6.0,0.0
3525,69.0,0.0,60.0,5.0,0.0
3526,74.0,0.0,60.0,4.0,0.0
3527,64.0,0.0,60.0,12.0,0.0
3528,38.0,0.0,60.0,8.0,0.0
3529,62.0,0.0,60.0,12.0,0.0
3530,50.0,60.0,60.0,7.0,0.0
3531,62.0,0.0,60.0,6.0,0.0
3532,74.0,0.0,120.0,10.0,0.0
3533,62.0,0.0,60.0,15.0,0.0
3534,50.0,0.0,60.0,15.0,0.0
3535,69.0,0.0,60.0,5.0,0.0
3536,54.0,0.0,60.0,7.0,0.0
3537,74.0,0.0,60.0,4.0,0.0
3538,54.0,0.0,60.0,13.0,0.0
3539,42.0,0.0,60.0,8.0,0.0
3540,60.0,60.0,60.0,6.0,0.0
3541,54.0,0.0,60.0,15.0,0.0
3542,60.0,0.0,60.0,12.0,0.0
3543,60.0,0.0,60.0,15.0,0.0
3544,83.0,0.0,60.0,4.0,0.0
3545,43.0,0.0,60.0,8.0,0.0
3546,71.0,0.0,60.0,5.0,0.0
3547,59.0,0.0,60.0,12.0,0.0
3548,55.0,60.0,60.0,7.0,0.0
3549,55.0,0.0,60.0,13.0,0.0
3550,55.0,0.0,60.0,15.0,0.0
3551,59.0,0.0,60.0,6.0,0.0
3552,62.0,0.0,60.0,11.0,0.0
3553,74.0,0.0,60.0,10.0,0.0
3554,74.0,0.0,120.0,15.0,0.0
3555,71.0,60.0,120.0,15.0,0.0
3556,52.0,0.0,60.0,8.0,0.0
3557,67.0,0.0,60.0,10.0,0.0
3558,64.0,0.0,60.0,15.0,0.0
3559,64.0,0.0,120.0,6.0,0.0
3560,79.0,0.0,60.0,5.0,0.0
3561,79.0,0.0,60.0,4.0,0.0
3562,71.0,0.0,60.0,11.0,0.0
3563,64.0,0.0,60.0,7.0,0.0
3564,52.0,0.0,60.0,13.0,0.0
3565,64.0,0.0,120.0,12.0,0.0
3566,70.0,0.0,60.0,11.0,0.0
3567,61.0,0.0,60.0,7.0,0.0
3568,61.0,0.0,60.0,15.0,0.0
3569,76.0,0.0,120.0,15.0,0.0
3570,79.0,0.0,120.0,15.0,0.0
3571,70.0,0.0,120.0,15.0,0.0
3572,79.0,0.0,180.0,10.0,0.0
3573,49.0,60.0,60.0,8.0,0.0
3574,61.0,0.0,60.0,13.0,0.0
3575,71.0,0.0,60.0,11.0,0.0
3576,59.0,60.0,60.0,7.0,0.0
3577,71.0,0.0,60.0,5.0,0.0
3578,59.0,0.0,60.0,15.0,0.0
3579,47.0,0.0,60.0,8.0,0.0
3580,64.0,0.0,60.0,12.0,0.0
3581,79.0,0.0,60.0,4.0,0.0
3582,64.0,0.0,60.0,6.0,0.0
3583,59.0,0.0,60.0,13.0,0.0
3584,79.0,0.0,120.0,15.0,0.0
3585,58.0,0.0,180.0,15.0,0.0
3586,73.0,0.0,180.0,15.0,0.0
3587,64.0,0.0,120.0,15.0,0.0
3588,73.0,0.0,180.0,11.0,0.0
3589,64.0,60.0,60.0,4.0,0.0
3590,58.0,0.0,60.0,13.0,0.0
3591,64.0,0.0,120.0,12.0,0.0
3592,46.0,0.0,180.0,8.0,0.0
3593,61.0,0.0,120.0,6.0,0.0
3594,73.0,0.0,60.0,5.0,0.0
3595,58.0,0.0,180.0,7.0,0.0
3596,79.0,0.0,60.0,4.0,0.0
3597,76.0,0.0,60.0,5.0,0.0
3598,58.0,0.0,60.0,13.0,0.0
3599,79.0,60.0,60.0,10.0,0.0
3600,78.0,0.0,60.0,4.0,0.0
3601,66.0,0.0,60.0,12.0,0.0
3602,78.0,0.0,60.0,10.0,0.0
3603,78.0,60.0,60.0,15.0,0.0
3604,58.0,0.0,120.0,13.0,0.0
3605,46.0,0.0,60.0,8.0,0.0
3606,73.0,0.0,60.0,6.0,0.0
3607,58.0,0.0,60.0,15.0,0.0
3608,76.0,0.0,60.0,10.0,0.0
3609,73.0,0.0,60.0,15.0,0.0
3610,76.0,0.0,60.0,4.0,0.0
3611,73.0,0.0,60.0,11.0,0.0
3612,67.0,0.0,60.0,12.0,0.0
3613,58.0,0.0,60.0,7.0,0.0
3614,67.0,15.0,60.0,5.0,0.0
3615,76.0,0.0,60.0,15.0,0.0
3616,71.0,30.0,60.0,11.0,0.0
3617,59.0,0.0,60.0,13.0,0.0
3618,47.0,0.0,60.0,8.0,0.0
3619,71.0,0.0,120.0,15.0,0.0
3620,66.0,0.0,60.0,5.0,0.0
3621,59.0,0.0,60.0,15.0,0.0
3622,74.0,0.0,120.0,15.0,0.0
3623,66.0,60.0,120.0,15.0,0.0
3624,59.0,0.0,60.0,7.0,0.0
3625,66.0,0.0,60.0,12.0,0.0
3626,76.0,0.0,15.0,10.0,0.0
3627,76.0,45.0,15.0,4.0,0.0
3628,71.0,0.0,60.0,6.0,0.0
3629,74.0,0.0,30.0,4.0,0.0
3630,74.0,0.0,30.0,10.0,0.0
3631,73.0,0.0,30.0,4.0,0.0
3632,62.0,0.0,60.0,13.0,0.0
3633,71.0,0.0,60.0,5.0,0.0
3634,62.0,0.0,60.0,15.0,0.0
3635,62.0,0.0,60.0,7.0,0.0
3636,71.0,0.0,60.0,11.0,0.0
3637,62.0,0.0,60.0,6.0,0.0
3638,73.0,0.0,30.0,10.0,0.0
3639,64.0,30.0,30.0,12.0,0.0
3640,50.0,0.0,60.0,8.0,0.0
3641,71.0,0.0,30.0,10.0,0.0
3642,62.0,0.0,30.0,12.0,0.0
3643,71.0,0.0,30.0,4.0,0.0
3644,67.0,0.0,60.0,6.0,0.0
3645,67.0,0.0,180.0,12.0,0.0
3646,70.0,0.0,120.0,15.0,0.0
3647,70.0,0.0,60.0,5.0,0.0
3648,67.0,60.0,120.0,15.0,0.0
3649,61.0,0.0,60.0,7.0,0.0
3650,76.0,0.0,180.0,10.0,0.0
3651,76.0,60.0,180.0,4.0,0.0
3652,49.0,0.0,60.0,8.0,0.0
3653,61.0,0.0,60.0,15.0,0.0
3654,76.0,0.0,120.0,15.0,0.0
3655,70.0,60.0,60.0,11.0,0.0
3656,61.0,0.0,60.0,13.0,0.0
3657,71.0,0.0,60.0,11.0,0.0
3658,47.0,0.0,60.0,8.0,0.0
3659,59.0,0.0,60.0,15.0,0.0
3660,71.0,0.0,60.0,5.0,0.0
3661,59.0,0.0,60.0,13.0,0.0
3662,67.0,0.0,60.0,6.0,0.0
3663,59.0,0.0,60.0,7.0,0.0
3664,73.0,0.0,60.0,5.0,0.0
3665,73.0,0.0,240.0,11.0,0.0
3666,67.0,0.0,120.0,15.0,0.0
3667,76.0,0.0,120.0,15.0,0.0
3668,73.0,0.0,180.0,15.0,0.0
3669,58.0,0.0,180.0,15.0,0.0
3670,67.0,0.0,60.0,6.0,0.0
3671,46.0,0.0,180.0,8.0,0.0
3672,58.0,0.0,180.0,7.0,0.0
3673,58.0,0.0,60.0,13.0,0.0
3674,58.0,0.0,60.0,13.0,0.0
3675,64.0,0.0,60.0,12.0,0.0
3676,64.0,0.0,60.0,6.0,0.0
3677,73.0,60.0,60.0,5.0,0.0
3678,79.0,0.0,60.0,10.0,0.0
3679,79.0,0.0,60.0,4.0,0.0
3680,66.0,0.0,60.0,12.0,0.0
3681,78.0,0.0,60.0,4.0,0.0
3682,73.0,0.0,60.0,5.0,0.0
3683,58.0,0.0,120.0,13.0,0.0
3684,66.0,0.0,60.0,6.0,0.0
3685,78.0,0.0,60.0,10.0,0.0
3686,78.0,0.0,60.0,15.0,0.0
3687,66.0,60.0,60.0,15.0,0.0
3688,67.0,0.0,60.0,6.0,0.0
3689,76.0,0.0,60.0,10.0,0.0
3690,58.0,0.0,60.0,7.0,0.0
3691,73.0,0.0,60.0,5.0,0.0
3692,46.0,0.0,60.0,8.0,0.0
3693,76.0,0.0,60.0,4.0,0.0
3694,76.0,0.0,60.0,15.0,0.0
3695,73.0,0.0,60.0,15.0,0.0
3696,58.0,0.0,60.0,15.0,0.0
3697,67.0,15.0,60.0,12.0,0.0
3698,66.0,0.0,60.0,12.0,0.0
3699,76.0,0.0,15.0,4.0,0.0
3700,47.0,0.0,60.0,8.0,0.0
3701,74.0,0.0,120.0,15.0,0.0
3702,59.0,0.0,60.0,15.0,0.0
3703,76.0,45.0,15.0,10.0,0.0
3704,66.0,60.0,120.0,15.0,0.0
3705,71.0,0.0,120.0,15.0,0.0
3706,66.0,30.0,60.0,6.0,0.0
3707,59.0,0.0,60.0,13.0,0.0
3708,59.0,0.0,60.0,7.0,0.0
3709,71.0,0.0,60.0,11.0,0.0
3710,71.0,0.0,60.0,5.0,0.0
3711,74.0,0.0,30.0,4.0,0.0
3712,74.0,0.0,30.0,10.0,0.0
3713,71.0,0.0,60.0,5.0,0.0
3714,59.0,0.0,60.0,13.0,0.0
3715,64.0,0.0,30.0,12.0,0.0
3716,59.0,0.0,60.0,7.0,0.0
3717,71.0,0.0,60.0,11.0,0.0
3718,59.0,0.0,60.0,15.0,0.0
3719,64.0,30.0,30.0,6.0,0.0
3720,47.0,0.0,60.0,8.0,0.0
3721,73.0,0.0,30.0,4.0,0.0
3722,73.0,0.0,30.0,10.0,0.0
3723,62.0,0.0,30.0,6.0,0.0
3724,62.0,0.0,30.0,12.0,0.0
3725,71.0,0.0,30.0,10.0,0.0
3726,71.0,0.0,30.0,4.0,0.0
3727,57.0,0.0,60.0,7.0,0.0
3728,78.0,0.0,240.0,10.0,0.0
3729,78.0,0.0,60.0,4.0,0.0
3730,45.0,0.0,60.0,8.0,0.0
3731,61.0,0.0,60.0,12.0,0.0
3732,73.0,0.0,120.0,15.0,0.0
3733,78.0,0.0,120.0,15.0,0.0
3734,73.0,0.0,60.0,5.0,0.0
3735,57.0,0.0,60.0,15.0,0.0
3736,73.0,0.0,60.0,11.0,0.0
3737,61.0,0.0,60.0,6.0,0.0
3738,61.0,0.0,120.0,15.0,0.0
3739,57.0,60.0,60.0,13.0,0.0
3740,45.0,0.0,60.0,8.0,0.0
3741,73.0,0.0,60.0,11.0,0.0
3742,57.0,0.0,60.0,7.0,0.0
3743,78.0,0.0,60.0,4.0,0.0
3744,61.0,0.0,60.0,12.0,0.0
3745,73.0,0.0,60.0,5.0,0.0
3746,57.0,0.0,60.0,15.0,0.0
3747,61.0,0.0,60.0,6.0,0.0
3748,57.0,60.0,60.0,13.0,0.0
3749,71.0,0.0,60.0,6.0,0.0
3750,74.0,0.0,60.0,5.0,0.0
3751,55.0,0.0,240.0,13.0,0.0
3752,83.0,60.0,60.0,4.0,0.0
3753,59.0,0.0,240.0,12.0,0.0
3754,74.0,0.0,120.0,11.0,0.0
3755,55.0,0.0,60.0,7.0,0.0
3756,43.0,0.0,60.0,8.0,0.0
3757,78.0,0.0,120.0,15.0,0.0
3758,74.0,0.0,120.0,15.0,0.0
3759,59.0,60.0,120.0,15.0,0.0
3760,55.0,0.0,60.0,15.0,0.0
3761,74.0,0.0,60.0,5.0,0.0
3762,55.0,0.0,60.0,7.0,0.0
3763,71.0,0.0,60.0,6.0,0.0
3764,83.0,0.0,60.0,4.0,0.0
3765,43.0,0.0,60.0,8.0,0.0
3766,55.0,0.0,60.0,15.0,0.0
3767,77.0,0.0,120.0,15.0,0.0
3768,43.0,60.0,60.0,8.0,0.0
3769,71.0,0.0,60.0,5.0,0.0
3770,55.0,0.0,60.0,7.0,0.0
3771,77.0,0.0,60.0,4.0,0.0
3772,59.0,0.0,120.0,15.0,0.0
3773,65.0,0.0,120.0,15.0,0.0
3774,62.0,0.0,60.0,6.0,0.0
3775,55.0,0.0,60.0,15.0,0.0
3776,77.0,0.0,120.0,10.0,0.0
3777,73.0,0.0,60.0,11.0,0.0
3778,62.0,0.0,60.0,6.0,0.0
3779,77.0,0.0,60.0,4.0,0.0
3780,71.0,0.0,60.0,11.0,0.0
3781,55.0,0.0,60.0,15.0,0.0
3782,71.0,0.0,60.0,5.0,0.0
3783,55.0,0.0,60.0,7.0,0.0
3784,43.0,30.0,60.0,8.0,0.0
3785,54.0,0.0,120.0,13.0,0.0
3786,70.0,0.0,120.0,11.0,0.0
3787,54.0,30.0,60.0,7.0,0.0
3788,66.0,0.0,60.0,6.0,0.0
3789,70.0,0.0,30.0,5.0,0.0
3790,78.0,30.0,30.0,4.0,0.0
3791,42.0,0.0,60.0,8.0,0.0
3792,54.0,0.0,60.0,15.0,0.0
3793,70.0,0.0,60.0,15.0,0.0
3794,61.0,0.0,60.0,15.0,0.0
3795,78.0,0.0,120.0,10.0,0.0
3796,61.0,0.0,120.0,12.0,0.0
3797,78.0,0.0,60.0,15.0,0.0
3798,66.0,0.0,30.0,5.0,0.0
3799,66.0,0.0,30.0,4.0,0.0
3800,52.0,0.0,30.0,7.0,0.0
3801,64.0,0.0,30.0,5.0,0.0
3802,64.0,0.0,30.0,4.0,0.0
3803,52.0,0.0,30.0,15.0,0.0
3804,40.0,30.0,30.0,8.0,0.0
3805,61.0,30.0,60.0,6.0,0.0
3806,73.0,0.0,30.0,4.0,0.0
3807,73.0,0.0,30.0,5.0,0.0
3808,62.0,0.0,30.0,5.0,0.0
3809,62.0,0.0,30.0,4.0,0.0
3810,50.0,0.0,30.0,15.0,0.0
3811,62.0,0.0,60.0,6.0,0.0
3812,38.0,0.0,30.0,8.0,0.0
3813,50.0,30.0,30.0,7.0,0.0
3814,71.0,0.0,30.0,4.0,0.0
3815,71.0,30.0,30.0,5.0,0.0
3816,64.0,0.0,60.0,6.0,0.0
3817,49.0,0.0,30.0,7.0,0.0
3818,37.0,0.0,30.0,8.0,0.0
3819,49.0,30.0,30.0,15.0,0.0
3820,61.0,0.0,30.0,5.0,0.0
3821,61.0,0.0,30.0,4.0,0.0
3822,70.0,0.0,30.0,5.0,0.0
3823,70.0,60.0,30.0,4.0,0.0
3824,71.0,0.0,120.0,15.0,0.0
3825,47.0,0.0,60.0,15.0,0.0
3826,62.0,30.0,60.0,6.0,0.0
3827,62.0,0.0,120.0,15.0,0.0
3828,66.0,0.0,120.0,15.0,0.0
3829,35.0,0.0,60.0,8.0,0.0
3830,59.0,0.0,60.0,5.0,0.0
3831,59.0,0.0,60.0,4.0,0.0
3832,59.0,0.0,60.0,3.0,0.0
3833,71.0,0.0,60.0,5.0,0.0
3834,59.0,0.0,30.0,15.0,0.0
3835,71.0,0.0,60.0,4.0,0.0
3836,59.0,0.0,60.0,13.0,0.0
3837,59.0,0.0,60.0,1.0,0.0
3838,62.0,0.0,30.0,6.0,0.0
3839,47.0,30.0,30.0,8.0,0.0
3840,46.0,0.0,30.0,8.0,0.0
3841,61.0,0.0,30.0,6.0,0.0
3842,58.0,60.0,30.0,15.0,0.0
3843,59.0,30.0,60.0,13.0,0.0
3844,62.0,0.0,60.0,6.0,0.0
3845,74.0,0.0,120.0,15.0,0.0
3846,66.0,0.0,120.0,15.0,0.0
3847,71.0,0.0,120.0,15.0,0.0
3848,59.0,0.0,60.0,3.0,0.0
3849,59.0,0.0,60.0,1.0,0.0
3850,47.0,0.0,60.0,8.0,0.0
3851,59.0,0.0,60.0,15.0,0.0
3852,62.0,0.0,60.0,15.0,0.0
3853,66.0,0.0,60.0,6.0,0.0
3854,59.0,0.0,60.0,1.0,0.0
3855,59.0,0.0,60.0,3.0,0.0
3856,59.0,0.0,60.0,13.0,0.0
3857,74.0,30.0,30.0,5.0,0.0
3858,50.0,0.0,60.0,8.0,0.0
3859,83.0,0.0,30.0,4.0,0.0
3860,74.0,60.0,30.0,4.0,0.0
3861,66.0,0.0,30.0,5.0,0.0
3862,59.0,0.0,90.0,3.0,0.0
3863,64.0,0.0,60.0,6.0,0.0
3864,59.0,0.0,90.0,1.0,0.0
3865,59.0,0.0,90.0,13.0,0.0
3866,76.0,0.0,60.0,4.0,0.0
3867,67.0,0.0,60.0,5.0,0.0
3868,37.0,30.0,60.0,8.0,0.0
3869,49.0,0.0,60.0,15.0,0.0
3870,64.0,0.0,180.0,15.0,0.0
3871,67.0,0.0,60.0,15.0,0.0
3872,71.0,0.0,60.0,15.0,0.0
3873,61.0,0.0,30.0,15.0,0.0
3874,70.0,0.0,180.0,15.0,0.0
3875,79.0,0.0,60.0,4.0,0.0
3876,49.0,30.0,30.0,8.0,0.0
3877,64.0,0.0,30.0,6.0,0.0
3878,76.0,0.0,60.0,5.0,0.0
3879,62.0,0.0,30.0,6.0,0.0
3880,58.0,0.0,30.0,13.0,0.0
3881,58.0,0.0,30.0,3.0,0.0
3882,59.0,0.0,30.0,15.0,0.0
3883,47.0,0.0,30.0,8.0,0.0
3884,58.0,60.0,30.0,1.0,0.0
3885,64.0,0.0,60.0,6.0,0.0
3886,58.0,0.0,120.0,3.0,0.0
3887,61.0,30.0,60.0,15.0,0.0
3888,58.0,0.0,120.0,13.0,0.0
3889,49.0,0.0,60.0,8.0,0.0
3890,58.0,60.0,120.0,1.0,0.0
3891,76.0,30.0,30.0,5.0,0.0
3892,67.0,0.0,60.0,6.0,0.0
3893,64.0,0.0,60.0,15.0,0.0
3894,79.0,0.0,30.0,4.0,0.0
3895,52.0,0.0,60.0,8.0,0.0
3896,73.0,0.0,30.0,5.0,0.0
3897,70.0,0.0,30.0,4.0,0.0
3898,85.0,0.0,60.0,4.0,0.0
3899,42.0,0.0,60.0,15.0,0.0
3900,58.0,0.0,120.0,15.0,0.0
3901,61.0,0.0,120.0,15.0,0.0
3902,64.0,0.0,120.0,15.0,0.0
3903,82.0,0.0,60.0,5.0,0.0
3904,66.0,0.0,60.0,6.0,0.0
3905,30.0,30.0,60.0,8.0,0.0
3906,69.0,0.0,120.0,15.0,0.0
3907,64.0,0.0,120.0,1.0,0.0
3908,58.0,0.0,30.0,6.0,0.0
3909,54.0,30.0,30.0,15.0,0.0
3910,64.0,0.0,120.0,3.0,0.0
3911,64.0,0.0,120.0,13.0,0.0
3912,66.0,0.0,60.0,4.0,0.0
3913,42.0,0.0,30.0,8.0,0.0
3914,61.0,60.0,60.0,5.0,0.0
3915,56.0,0.0,30.0,6.0,0.0
3916,53.0,0.0,30.0,15.0,0.0
3917,41.0,0.0,30.0,8.0,0.0
3918,42.0,30.0,60.0,8.0,0.0
3919,69.0,0.0,60.0,15.0,0.0
3920,54.0,0.0,60.0,15.0,0.0
3921,58.0,0.0,60.0,6.0,0.0
3922,73.0,0.0,60.0,15.0,0.0
3923,46.0,0.0,60.0,8.0,0.0
3924,66.0,0.0,60.0,15.0,0.0
3925,64.0,0.0,60.0,15.0,0.0
3926,64.0,0.0,60.0,1.0,0.0
3927,64.0,60.0,60.0,13.0,0.0
3928,58.0,0.0,60.0,15.0,0.0
3929,70.0,0.0,30.0,5.0,0.0
3930,61.0,0.0,60.0,6.0,0.0
3931,73.0,0.0,60.0,15.0,0.0
3932,64.0,0.0,60.0,3.0,0.0
3933,73.0,30.0,30.0,4.0,0.0
3934,66.0,0.0,30.0,5.0,0.0
3935,66.0,0.0,30.0,4.0,0.0
3936,78.0,0.0,60.0,4.0,0.0
3937,35.0,0.0,60.0,8.0,0.0
3938,78.0,30.0,60.0,5.0,0.0
3939,64.0,0.0,120.0,1.0,0.0
3940,64.0,0.0,120.0,13.0,0.0
3941,64.0,0.0,120.0,3.0,0.0
3942,64.0,0.0,120.0,15.0,0.0
3943,66.0,0.0,240.0,15.0,0.0
3944,47.0,0.0,60.0,15.0,0.0
3945,59.0,0.0,60.0,6.0,0.0
3946,59.0,0.0,30.0,15.0,0.0
3947,66.0,0.0,60.0,12.0,0.0
3948,66.0,60.0,60.0,3.0,0.0
3949,66.0,0.0,60.0,1.0,0.0
3950,59.0,0.0,60.0,4.0,0.0
3951,47.0,0.0,30.0,8.0,0.0
3952,62.0,30.0,30.0,6.0,0.0
3953,59.0,0.0,60.0,5.0,0.0
3954,58.0,0.0,30.0,15.0,0.0
3955,61.0,0.0,30.0,6.0,0.0
3956,46.0,0.0,30.0,8.0,0.0
3957,66.0,0.0,60.0,12.0,0.0
3958,62.0,0.0,120.0,1.0,0.0
3959,62.0,0.0,120.0,3.0,0.0
3960,66.0,0.0,60.0,1.0,0.0
3961,62.0,0.0,120.0,13.0,0.0
3962,71.0,0.0,120.0,15.0,0.0
3963,62.0,0.0,120.0,15.0,0.0
3964,66.0,0.0,60.0,3.0,0.0
3965,59.0,0.0,60.0,15.0,0.0
3966,47.0,30.0,60.0,8.0,0.0
3967,62.0,0.0,60.0,6.0,0.0
3968,66.0,60.0,60.0,6.0,0.0
3969,74.0,0.0,30.0,5.0,0.0
3970,50.0,0.0,60.0,8.0,0.0
3971,66.0,0.0,60.0,3.0,0.0
3972,66.0,0.0,60.0,12.0,0.0
3973,78.0,30.0,30.0,4.0,0.0
3974,66.0,0.0,60.0,1.0,0.0
3975,71.0,0.0,30.0,4.0,0.0
3976,71.0,0.0,30.0,5.0,0.0
3977,32.0,0.0,60.0,8.0,0.0
3978,66.0,0.0,90.0,1.0,0.0
3979,83.0,30.0,60.0,5.0,0.0
3980,66.0,0.0,90.0,3.0,0.0
3981,66.0,0.0,90.0,12.0,0.0
3982,83.0,0.0,60.0,4.0,0.0
3983,62.0,0.0,120.0,15.0,0.0
3984,44.0,0.0,60.0,15.0,0.0
3985,59.0,0.0,120.0,15.0,0.0
3986,59.0,0.0,60.0,6.0,0.0
3987,66.0,0.0,120.0,15.0,0.0
3988,59.0,0.0,60.0,4.0,0.0
3989,62.0,0.0,60.0,1.0,0.0
3990,44.0,0.0,30.0,8.0,0.0
3991,59.0,0.0,60.0,5.0,0.0
3992,56.0,0.0,30.0,15.0,0.0
3993,62.0,0.0,60.0,3.0,0.0
3994,62.0,0.0,60.0,13.0,0.0
3995,71.0,30.0,30.0,6.0,0.0
3996,65.0,0.0,30.0,3.0,0.0
3997,65.0,0.0,30.0,12.0,0.0
3998,54.0,0.0,30.0,15.0,0.0
3999,42.0,60.0,30.0,8.0,0.0
4000,65.0,0.0,30.0,1.0,0.0
4001,69.0,0.0,30.0,6.0,0.0
4002,71.0,30.0,60.0,6.0,0.0
4003,59.0,0.0,60.0,13.0,0.0
4004,59.0,0.0,60.0,1.0,0.0
4005,65.0,0.0,120.0,1.0,0.0
4006,65.0,0.0,120.0,3.0,0.0
4007,44.0,0.0,60.0,8.0,0.0
4008,65.0,0.0,120.0,15.0,0.0
4009,71.0,0.0,120.0,15.0,0.0
4010,55.0,0.0,60.0,15.0,0.0
4011,59.0,0.0,60.0,3.0,0.0
4012,65.0,0.0,120.0,12.0,0.0
4013,61.0,30.0,30.0,1.0,0.0
4014,59.0,0.0,60.0,15.0,0.0
4015,80.0,0.0,30.0,4.0,0.0
4016,47.0,0.0,60.0,8.0,0.0
4017,61.0,0.0,30.0,13.0,0.0
4018,74.0,0.0,60.0,6.0,0.0
4019,80.0,0.0,30.0,5.0,0.0
4020,61.0,0.0,30.0,3.0,0.0
4021,62.0,60.0,30.0,3.0,0.0
4022,77.0,0.0,30.0,4.0,0.0
4023,62.0,0.0,30.0,13.0,0.0
4024,77.0,0.0,30.0,5.0,0.0
4025,62.0,0.0,30.0,1.0,0.0
4026,65.0,0.0,60.0,6.0,0.0
4027,83.0,0.0,60.0,5.0,0.0
4028,56.0,60.0,120.0,3.0,0.0
4029,56.0,0.0,120.0,1.0,0.0
4030,49.0,30.0,60.0,15.0,0.0
4031,56.0,0.0,120.0,13.0,0.0
4032,83.0,0.0,60.0,4.0,0.0
4033,37.0,0.0,60.0,8.0,0.0
4034,65.0,0.0,120.0,15.0,0.0
4035,67.0,0.0,120.0,15.0,0.0
4036,71.0,0.0,120.0,15.0,0.0
4037,65.0,0.0,30.0,6.0,0.0
4038,71.0,0.0,120.0,12.0,0.0
4039,49.0,30.0,30.0,8.0,0.0
4040,71.0,0.0,120.0,1.0,0.0
4041,71.0,30.0,120.0,3.0,0.0
4042,61.0,0.0,60.0,5.0,0.0
4043,61.0,0.0,60.0,4.0,0.0
4044,61.0,0.0,30.0,15.0,0.0
4045,48.0,0.0,30.0,8.0,0.0
4046,63.0,0.0,30.0,6.0,0.0
4047,60.0,0.0,30.0,15.0,0.0
4048,61.0,0.0,120.0,1.0,0.0
4049,49.0,0.0,60.0,8.0,0.0
4050,64.0,0.0,60.0,15.0,0.0
4051,61.0,0.0,60.0,15.0,0.0
4052,67.0,0.0,60.0,15.0,0.0
4053,73.0,0.0,60.0,15.0,0.0
4054,65.0,0.0,60.0,6.0,0.0
4055,61.0,0.0,120.0,13.0,0.0
4056,61.0,0.0,120.0,3.0,0.0
4057,65.0,0.0,60.0,15.0,0.0
4058,67.0,0.0,60.0,15.0,0.0
4059,71.0,0.0,60.0,15.0,0.0
4060,53.0,0.0,60.0,8.0,0.0
4061,80.0,0.0,30.0,4.0,0.0
4062,73.0,0.0,60.0,15.0,0.0
4063,80.0,30.0,30.0,5.0,0.0
4064,68.0,0.0,60.0,6.0,0.0
4065,71.0,0.0,60.0,12.0,0.0
4066,71.0,60.0,60.0,1.0,0.0
4067,71.0,0.0,60.0,3.0,0.0
4068,73.0,0.0,30.0,5.0,0.0
4069,73.0,0.0,30.0,4.0,0.0
4070,42.0,30.0,60.0,8.0,0.0
4071,85.0,0.0,60.0,4.0,0.0
4072,71.0,0.0,120.0,1.0,0.0
4073,71.0,0.0,60.0,15.0,0.0
4074,66.0,0.0,60.0,6.0,0.0
4075,54.0,0.0,60.0,15.0,0.0
4076,66.0,0.0,60.0,15.0,0.0
4077,61.0,0.0,60.0,15.0,0.0
4078,71.0,0.0,120.0,3.0,0.0
4079,85.0,0.0,60.0,5.0,0.0
4080,71.0,0.0,120.0,12.0,0.0
4081,64.0,0.0,60.0,3.0,0.0
4082,70.0,0.0,30.0,6.0,0.0
4083,66.0,0.0,30.0,15.0,0.0
4084,69.0,0.0,60.0,15.0,0.0
4085,73.0,60.0,180.0,15.0,0.0
4086,76.0,0.0,180.0,15.0,0.0
4087,66.0,0.0,60.0,5.0,0.0
4088,64.0,0.0,60.0,13.0,0.0
4089,64.0,60.0,60.0,1.0,0.0
4090,66.0,0.0,60.0,4.0,0.0
4091,54.0,30.0,30.0,8.0,0.0
4092,68.0,0.0,30.0,6.0,0.0
4093,53.0,0.0,30.0,8.0,0.0
4094,64.0,0.0,30.0,15.0,0.0
4095,64.0,0.0,60.0,3.0,0.0
4096,70.0,0.0,120.0,12.0,0.0
4097,70.0,0.0,60.0,6.0,0.0
4098,64.0,0.0,60.0,1.0,0.0
4099,54.0,0.0,60.0,8.0,0.0
4100,70.0,0.0,120.0,15.0,0.0
4101,70.0,0.0,120.0,3.0,0.0
4102,66.0,30.0,60.0,15.0,0.0
4103,70.0,0.0,120.0,1.0,0.0
4104,64.0,0.0,60.0,13.0,0.0
4105,82.0,30.0,30.0,5.0,0.0
4106,82.0,0.0,30.0,4.0,0.0
4107,64.0,0.0,60.0,13.0,0.0
4108,64.0,0.0,60.0,3.0,0.0
4109,58.0,0.0,60.0,8.0,0.0
4110,64.0,0.0,60.0,1.0,0.0
4111,73.0,0.0,60.0,6.0,0.0
4112,78.0,0.0,30.0,4.0,0.0
4113,78.0,0.0,30.0,5.0,0.0
4114,64.0,30.0,60.0,15.0,0.0
4115,66.0,0.0,60.0,15.0,0.0
4116,71.0,0.0,60.0,15.0,0.0
4117,81.0,0.0,60.0,4.0,0.0
4118,47.0,0.0,60.0,15.0,0.0
4119,64.0,0.0,90.0,1.0,0.0
4120,64.0,30.0,90.0,3.0,0.0
4121,35.0,0.0,60.0,8.0,0.0
4122,66.0,0.0,60.0,6.0,0.0
4123,64.0,0.0,90.0,13.0,0.0
4124,81.0,0.0,60.0,5.0,0.0
4125,69.0,0.0,60.0,3.0,0.0
4126,69.0,0.0,60.0,1.0,0.0
4127,47.0,0.0,30.0,8.0,0.0
4128,69.0,0.0,60.0,12.0,0.0
4129,59.0,0.0,30.0,15.0,0.0
4130,63.0,0.0,180.0,15.0,0.0
4131,66.0,0.0,180.0,15.0,0.0
4132,69.0,0.0,180.0,15.0,0.0
4133,59.0,0.0,60.0,5.0,0.0
4134,63.0,0.0,30.0,6.0,0.0
4135,59.0,0.0,60.0,4.0,0.0
4136,58.0,0.0,30.0,15.0,0.0
4137,63.0,0.0,30.0,13.0,0.0
4138,61.0,0.0,30.0,6.0,0.0
4139,46.0,60.0,30.0,8.0,0.0
4140,63.0,0.0,30.0,1.0,0.0
4141,63.0,0.0,30.0,3.0,0.0
4142,63.0,0.0,120.0,1.0,0.0
4143,63.0,0.0,120.0,13.0,0.0
4144,59.0,30.0,60.0,15.0,0.0
4145,69.0,0.0,60.0,1.0,0.0
4146,63.0,0.0,120.0,3.0,0.0
4147,69.0,0.0,60.0,12.0,0.0
4148,69.0,0.0,60.0,3.0,0.0
4149,47.0,0.0,60.0,8.0,0.0
4150,63.0,0.0,60.0,6.0,0.0
4151,69.0,0.0,60.0,12.0,0.0
4152,78.0,30.0,30.0,5.0,0.0
4153,66.0,60.0,60.0,6.0,0.0
4154,78.0,0.0,30.0,4.0,0.0
4155,69.0,0.0,60.0,3.0,0.0
4156,51.0,0.0,60.0,8.0,0.0
4157,69.0,0.0,60.0,1.0,0.0
4158,71.0,0.0,30.0,4.0,0.0
4159,71.0,0.0,30.0,5.0,0.0
4160,69.0,0.0,90.0,3.0,0.0
4161,69.0,0.0,90.0,12.0,0.0
4162,40.0,0.0,60.0,8.0,0.0
4163,83.0,0.0,60.0,5.0,0.0
4164,69.0,30.0,60.0,15.0,0.0
4165,52.0,0.0,60.0,15.0,0.0
4166,71.0,0.0,60.0,15.0,0.0
4167,59.0,0.0,60.0,6.0,0.0
4168,64.0,0.0,60.0,15.0,0.0
4169,69.0,0.0,90.0,1.0,0.0
4170,83.0,0.0,60.0,4.0,0.0
4171,64.0,0.0,120.0,1.0,0.0
4172,52.0,30.0,30.0,8.0,0.0
4173,71.0,0.0,60.0,3.0,0.0
4174,64.0,30.0,120.0,13.0,0.0
4175,67.0,0.0,180.0,15.0,0.0
4176,71.0,0.0,180.0,15.0,0.0
4177,71.0,0.0,60.0,0.0,0.0
4178,71.0,0.0,60.0,11.0,0.0
4179,64.0,60.0,60.0,5.0,0.0
4180,64.0,0.0,60.0,4.0,0.0
4181,67.0,0.0,30.0,6.0,0.0
4182,64.0,0.0,120.0,3.0,0.0
4183,64.0,0.0,30.0,15.0,0.0
4184,67.0,0.0,30.0,3.0,0.0
4185,63.0,0.0,30.0,15.0,0.0
4186,51.0,0.0,30.0,8.0,0.0
4187,67.0,0.0,30.0,12.0,0.0
4188,66.0,0.0,30.0,6.0,0.0
4189,67.0,0.0,30.0,1.0,0.0
4190,64.0,0.0,60.0,15.0,0.0
4191,67.0,0.0,120.0,12.0,0.0
4192,71.0,0.0,60.0,11.0,0.0
4193,52.0,0.0,60.0,8.0,0.0
4194,71.0,0.0,60.0,0.0,0.0
4195,67.0,0.0,60.0,6.0,0.0
4196,71.0,0.0,60.0,3.0,0.0
4197,71.0,0.0,60.0,11.0,0.0
4198,71.0,0.0,60.0,6.0,0.0
4199,79.0,30.0,30.0,4.0,0.0
4200,79.0,0.0,30.0,5.0,0.0
4201,67.0,0.0,60.0,3.0,0.0
4202,71.0,0.0,60.0,0.0,0.0
4203,55.0,0.0,60.0,8.0,0.0
4204,67.0,0.0,60.0,1.0,0.0
4205,71.0,0.0,60.0,3.0,0.0
4206,67.0,0.0,60.0,13.0,0.0
4207,76.0,0.0,30.0,4.0,0.0
4208,76.0,60.0,30.0,5.0,0.0
4209,71.0,0.0,90.0,0.0,0.0
4210,88.0,0.0,60.0,5.0,0.0
4211,71.0,0.0,90.0,11.0,0.0
4212,64.0,0.0,120.0,3.0,0.0
4213,88.0,0.0,60.0,4.0,0.0
4214,64.0,0.0,120.0,1.0,0.0
4215,71.0,0.0,60.0,6.0,0.0
4216,71.0,0.0,90.0,3.0,0.0
4217,64.0,0.0,120.0,13.0,0.0
4218,49.0,0.0,60.0,15.0,0.0
4219,37.0,0.0,60.0,8.0,0.0
4220,64.0,0.0,120.0,15.0,0.0
4221,67.0,0.0,120.0,15.0,0.0
4222,71.0,30.0,60.0,15.0,0.0
4223,67.0,0.0,60.0,3.0,0.0
4224,49.0,0.0,30.0,8.0,0.0
4225,70.0,0.0,60.0,15.0,0.0
4226,61.0,0.0,30.0,15.0,0.0
4227,76.0,0.0,60.0,5.0,0.0
4228,76.0,0.0,60.0,4.0,0.0
4229,64.0,30.0,30.0,6.0,0.0
4230,67.0,0.0,60.0,1.0,0.0
4231,67.0,0.0,60.0,12.0,0.0
4232,59.0,0.0,30.0,15.0,0.0
4233,62.0,0.0,30.0,6.0,0.0
4234,70.0,60.0,30.0,3.0,0.0
4235,70.0,0.0,30.0,11.0,0.0
4236,47.0,0.0,30.0,8.0,0.0
4237,70.0,0.0,30.0,0.0,0.0
4238,70.0,0.0,120.0,3.0,0.0
4239,64.0,0.0,60.0,1.0,0.0
4240,61.0,0.0,60.0,15.0,0.0
4241,64.0,30.0,60.0,15.0,0.0
4242,67.0,0.0,120.0,15.0,0.0
4243,73.0,0.0,120.0,15.0,0.0
4244,61.0,0.0,120.0,13.0,0.0
4245,61.0,0.0,120.0,1.0,0.0
4246,49.0,0.0,60.0,8.0,0.0
4247,64.0,0.0,60.0,12.0,0.0
4248,70.0,0.0,120.0,0.0,0.0
4249,70.0,0.0,120.0,11.0,0.0
4250,64.0,0.0,60.0,3.0,0.0
4251,61.0,0.0,120.0,3.0,0.0
4252,64.0,0.0,60.0,6.0,0.0
4253,66.0,30.0,30.0,12.0,0.0
4254,79.0,0.0,30.0,4.0,0.0
4255,66.0,0.0,30.0,3.0,0.0
4256,66.0,0.0,30.0,1.0,0.0
4257,67.0,0.0,60.0,6.0,0.0
4258,52.0,0.0,60.0,8.0,0.0
4259,79.0,0.0,30.0,5.0,0.0
4260,64.0,0.0,60.0,15.0,0.0
4261,67.0,0.0,30.0,3.0,0.0
4262,70.0,0.0,30.0,4.0,0.0
4263,67.0,60.0,30.0,1.0,0.0
4264,70.0,0.0,30.0,5.0,0.0
4265,67.0,0.0,30.0,12.0,0.0
4266,61.0,0.0,120.0,3.0,0.0
4267,58.0,0.0,60.0,6.0,0.0
4268,58.0,0.0,120.0,3.0,0.0
4269,58.0,0.0,120.0,1.0,0.0
4270,30.0,0.0,60.0,8.0,0.0
4271,85.0,0.0,60.0,5.0,0.0
4272,58.0,0.0,120.0,13.0,0.0
4273,42.0,30.0,60.0,15.0,0.0
4274,58.0,0.0,180.0,15.0,0.0
4275,61.0,0.0,180.0,15.0,0.0
4276,76.0,0.0,180.0,15.0,0.0
4277,85.0,0.0,60.0,4.0,0.0
4278,61.0,0.0,120.0,12.0,0.0
4279,61.0,0.0,120.0,1.0,0.0
4280,42.0,0.0,30.0,8.0,0.0
4281,76.0,0.0,120.0,0.0,0.0
4282,70.0,30.0,30.0,6.0,0.0
4283,76.0,0.0,120.0,11.0,0.0
4284,66.0,0.0,60.0,4.0,0.0
4285,66.0,0.0,60.0,5.0,0.0
4286,76.0,0.0,120.0,3.0,0.0
4287,54.0,0.0,30.0,15.0,0.0
4288,68.0,60.0,30.0,6.0,0.0
4289,53.0,0.0,30.0,15.0,0.0
4290,41.0,0.0,30.0,8.0,0.0
4291,54.0,0.0,120.0,1.0,0.0
4292,42.0,0.0,60.0,8.0,0.0
4293,54.0,0.0,120.0,13.0,0.0
4294,54.0,0.0,120.0,3.0,0.0
4295,66.0,0.0,120.0,12.0,0.0
4296,66.0,0.0,120.0,1.0,0.0
4297,54.0,0.0,60.0,15.0,0.0
4298,66.0,60.0,120.0,3.0,0.0
4299,70.0,30.0,60.0,6.0,0.0
4300,76.0,0.0,60.0,3.0,0.0
4301,58.0,0.0,60.0,15.0,0.0
4302,85.0,30.0,30.0,5.0,0.0
4303,46.0,0.0,60.0,8.0,0.0
4304,61.0,0.0,60.0,15.0,0.0
4305,85.0,0.0,30.0,4.0,0.0
4306,76.0,0.0,60.0,15.0,0.0
4307,73.0,0.0,60.0,6.0,0.0
4308,66.0,0.0,60.0,15.0,0.0
4309,76.0,0.0,60.0,0.0,0.0
4310,76.0,0.0,60.0,11.0,0.0
4311,78.0,0.0,30.0,4.0,0.0
4312,78.0,0.0,30.0,5.0,0.0
4313,47.0,0.0,60.0,15.0,0.0
4314,78.0,0.0,60.0,15.0,0.0
4315,90.0,0.0,60.0,4.0,0.0
4316,35.0,0.0,60.0,8.0,0.0
4317,76.0,60.0,120.0,3.0,0.0
4318,76.0,0.0,120.0,0.0,0.0
4319,76.0,0.0,120.0,11.0,0.0
4320,62.0,0.0,60.0,15.0,0.0
4321,59.0,0.0,60.0,13.0,0.0
4322,66.0,0.0,60.0,6.0,0.0
4323,66.0,0.0,60.0,15.0,0.0
4324,90.0,30.0,60.0,5.0,0.0
4325,59.0,0.0,60.0,3.0,0.0
4326,59.0,30.0,30.0,7.0,0.0
4327,71.0,0.0,60.0,4.0,0.0
4328,59.0,0.0,30.0,15.0,0.0
4329,78.0,0.0,60.0,10.0,0.0
4330,78.0,0.0,60.0,15.0,0.0
4331,74.0,0.0,60.0,15.0,0.0
4332,59.0,0.0,60.0,1.0,0.0
4333,59.0,0.0,60.0,13.0,0.0
4334,78.0,0.0,60.0,0.0,0.0
4335,59.0,0.0,30.0,6.0,0.0
4336,59.0,0.0,120.0,12.0,0.0
4337,71.0,0.0,60.0,5.0,0.0
4338,58.0,0.0,30.0,15.0,0.0
4339,57.0,0.0,30.0,6.0,0.0
4340,58.0,0.0,30.0,7.0,0.0
4341,59.0,0.0,60.0,7.0,0.0
4342,78.0,0.0,60.0,0.0,0.0
4343,74.0,0.0,120.0,0.0,0.0
4344,74.0,0.0,120.0,11.0,0.0
4345,78.0,0.0,60.0,10.0,0.0
4346,71.0,0.0,120.0,15.0,0.0
4347,74.0,0.0,120.0,15.0,0.0
4348,78.0,0.0,120.0,15.0,0.0
4349,59.0,0.0,60.0,15.0,0.0
4350,74.0,0.0,120.0,3.0,0.0
4351,59.0,0.0,60.0,6.0,0.0
4352,62.0,0.0,60.0,6.0,0.0
4353,71.0,60.0,60.0,12.0,0.0
4354,71.0,0.0,60.0,1.0,0.0
4355,62.0,0.0,60.0,15.0,0.0
4356,71.0,0.0,60.0,3.0,0.0
4357,78.0,0.0,60.0,10.0,0.0
4358,78.0,30.0,30.0,4.0,0.0
4359,62.0,0.0,60.0,7.0,0.0
4360,78.0,0.0,30.0,5.0,0.0
4361,78.0,0.0,60.0,0.0,0.0
4362,71.0,0.0,30.0,5.0,0.0
4363,71.0,0.0,30.0,4.0,0.0
4364,71.0,0.0,120.0,12.0,0.0
4365,56.0,30.0,60.0,7.0,0.0
4366,83.0,0.0,60.0,4.0,0.0
4367,71.0,0.0,120.0,3.0,0.0
4368,83.0,0.0,60.0,5.0,0.0
4369,78.0,0.0,90.0,10.0,0.0
4370,56.0,0.0,60.0,6.0,0.0
4371,78.0,0.0,60.0,15.0,0.0
4372,74.0,0.0,240.0,15.0,0.0
4373,56.0,0.0,60.0,15.0,0.0
4374,71.0,0.0,120.0,1.0,0.0
4375,78.0,0.0,90.0,0.0,0.0
4376,74.0,0.0,60.0,0.0,0.0
4377,74.0,0.0,60.0,11.0,0.0
4378,74.0,0.0,60.0,3.0,0.0
4379,68.0,0.0,30.0,7.0,0.0
4380,71.0,0.0,60.0,4.0,0.0
4381,71.0,0.0,60.0,5.0,0.0
4382,77.0,60.0,180.0,15.0,0.0
4383,68.0,30.0,30.0,15.0,0.0
4384,68.0,0.0,30.0,6.0,0.0
4385,66.0,0.0,30.0,6.0,0.0
4386,77.0,0.0,30.0,10.0,0.0
4387,66.0,0.0,30.0,7.0,0.0
4388,66.0,0.0,30.0,15.0,0.0
4389,77.0,60.0,30.0,0.0,0.0
4390,68.0,0.0,60.0,6.0,0.0
4391,77.0,0.0,120.0,10.0,0.0
4392,71.0,0.0,60.0,11.0,0.0
4393,71.0,0.0,60.0,3.0,0.0
4394,68.0,0.0,60.0,15.0,0.0
4395,68.0,0.0,60.0,7.0,0.0
4396,68.0,0.0,120.0,3.0,0.0
4397,71.0,30.0,60.0,0.0,0.0
4398,77.0,0.0,120.0,0.0,0.0
4399,68.0,0.0,120.0,1.0,0.0
4400,68.0,0.0,120.0,12.0,0.0
4401,73.0,30.0,30.0,11.0,0.0
4402,74.0,0.0,30.0,4.0,0.0
4403,73.0,0.0,30.0,0.0,0.0
4404,74.0,0.0,30.0,5.0,0.0
4405,73.0,0.0,30.0,3.0,0.0
4406,71.0,0.0,60.0,7.0,0.0
4407,71.0,0.0,60.0,15.0,0.0
4408,71.0,0.0,60.0,6.0,0.0
4409,74.0,0.0,30.0,3.0,0.0
4410,74.0,0.0,30.0,11.0,0.0
4411,71.0,0.0,30.0,5.0,0.0
4412,71.0,0.0,30.0,4.0,0.0
4413,74.0,0.0,30.0,0.0,0.0
4414,49.0,0.0,60.0,15.0,0.0
4415,65.0,0.0,120.0,15.0,0.0
4416,68.0,0.0,120.0,15.0,0.0
4417,65.0,0.0,120.0,12.0,0.0
4418,83.0,0.0,120.0,15.0,0.0
4419,77.0,0.0,120.0,15.0,0.0
4420,61.0,30.0,60.0,6.0,0.0
4421,65.0,0.0,120.0,1.0,0.0
4422,68.0,0.0,120.0,3.0,0.0
4423,65.0,0.0,120.0,3.0,0.0
4424,68.0,0.0,120.0,11.0,0.0
4425,83.0,0.0,60.0,5.0,0.0
4426,83.0,0.0,60.0,4.0,0.0
4427,68.0,0.0,120.0,0.0,0.0
4428,49.0,0.0,60.0,7.0,0.0
4429,61.0,0.0,30.0,7.0,0.0
4430,83.0,0.0,120.0,10.0,0.0
4431,83.0,30.0,120.0,0.0,0.0
4432,61.0,0.0,30.0,6.0,0.0
4433,61.0,30.0,30.0,15.0,0.0
4434,73.0,0.0,60.0,4.0,0.0
4435,73.0,60.0,60.0,5.0,0.0
4436,60.0,0.0,30.0,7.0,0.0
4437,60.0,0.0,30.0,6.0,0.0
4438,60.0,0.0,30.0,15.0,0.0
4439,61.0,0.0,60.0,6.0,0.0
4440,61.0,0.0,120.0,12.0,0.0
4441,61.0,0.0,120.0,3.0,0.0
4442,61.0,0.0,120.0,1.0,0.0
4443,61.0,0.0,60.0,15.0,0.0
4444,73.0,0.0,120.0,3.0,0.0
4445,61.0,0.0,60.0,7.0,0.0
4446,73.0,0.0,120.0,0.0,0.0
4447,77.0,0.0,60.0,15.0,0.0
4448,67.0,0.0,60.0,15.0,0.0
4449,73.0,0.0,120.0,11.0,0.0
4450,73.0,60.0,60.0,15.0,0.0
4451,83.0,0.0,60.0,15.0,0.0
4452,65.0,0.0,60.0,6.0,0.0
4453,67.0,0.0,60.0,15.0,0.0
4454,65.0,0.0,60.0,15.0,0.0
4455,80.0,0.0,30.0,4.0,0.0
4456,83.0,0.0,60.0,0.0,0.0
4457,80.0,30.0,30.0,5.0,0.0
4458,83.0,0.0,60.0,10.0,0.0
4459,65.0,0.0,60.0,7.0,0.0
4460,73.0,0.0,30.0,5.0,0.0
4461,73.0,0.0,30.0,4.0,0.0
4462,54.0,0.0,60.0,7.0,0.0
4463,83.0,0.0,60.0,4.0,0.0
4464,83.0,0.0,120.0,10.0,0.0
4465,66.0,0.0,60.0,12.0,0.0
4466,83.0,0.0,120.0,15.0,0.0
4467,73.0,0.0,120.0,15.0,0.0
4468,66.0,0.0,120.0,3.0,0.0
4469,54.0,0.0,60.0,6.0,0.0
4470,83.0,0.0,120.0,0.0,0.0
4471,54.0,0.0,60.0,15.0,0.0
4472,54.0,30.0,60.0,1.0,0.0
4473,83.0,0.0,60.0,5.0,0.0
4474,76.0,0.0,60.0,0.0,0.0
4475,66.0,0.0,30.0,6.0,0.0
4476,76.0,0.0,60.0,3.0,0.0
4477,66.0,0.0,60.0,5.0,0.0
4478,66.0,0.0,60.0,12.0,0.0
4479,66.0,0.0,30.0,7.0,0.0
4480,66.0,60.0,60.0,4.0,0.0
4481,66.0,30.0,30.0,15.0,0.0
4482,76.0,0.0,60.0,11.0,0.0
4483,66.0,0.0,30.0,1.0,0.0
4484,65.0,0.0,30.0,6.0,0.0
4485,65.0,0.0,30.0,15.0,0.0
4486,65.0,0.0,30.0,7.0,0.0
4487,65.0,0.0,30.0,1.0,0.0
4488,82.0,0.0,120.0,15.0,0.0
4489,66.0,0.0,60.0,15.0,0.0
4490,76.0,0.0,60.0,11.0,0.0
4491,76.0,0.0,60.0,3.0,0.0
4492,66.0,0.0,60.0,6.0,0.0
4493,82.0,60.0,120.0,0.0,0.0
4494,82.0,0.0,120.0,10.0,0.0
4495,66.0,30.0,60.0,7.0,0.0
4496,76.0,0.0,60.0,0.0,0.0
4497,76.0,0.0,120.0,15.0,0.0
4498,73.0,0.0,120.0,15.0,0.0
4499,66.0,0.0,60.0,1.0,0.0
4500,82.0,0.0,30.0,5.0,0.0
4501,76.0,0.0,60.0,3.0,0.0
4502,70.0,0.0,60.0,7.0,0.0
4503,70.0,0.0,60.0,1.0,0.0
4504,76.0,0.0,60.0,11.0,0.0
4505,82.0,30.0,30.0,4.0,0.0
4506,70.0,0.0,60.0,6.0,0.0
4507,70.0,0.0,60.0,15.0,0.0
4508,76.0,0.0,60.0,0.0,0.0
4509,78.0,0.0,30.0,5.0,0.0
4510,78.0,0.0,30.0,4.0,0.0
4511,47.0,0.0,60.0,7.0,0.0
4512,71.0,0.0,60.0,6.0,0.0
4513,47.0,0.0,60.0,15.0,0.0
4514,76.0,0.0,60.0,15.0,0.0
4515,78.0,0.0,60.0,15.0,0.0
4516,71.0,0.0,60.0,15.0,0.0
4517,76.0,0.0,90.0,3.0,0.0
4518,47.0,0.0,60.0,1.0,0.0
4519,76.0,0.0,90.0,0.0,0.0
4520,76.0,0.0,90.0,11.0,0.0
4521,90.0,30.0,60.0,5.0,0.0
4522,90.0,0.0,60.0,4.0,0.0
4523,59.0,0.0,30.0,1.0,0.0
4524,81.0,0.0,60.0,15.0,0.0
4525,78.0,0.0,60.0,15.0,0.0
4526,81.0,0.0,60.0,0.0,0.0
4527,75.0,0.0,60.0,15.0,0.0
4528,59.0,0.0,30.0,15.0,0.0
4529,59.0,0.0,60.0,5.0,0.0
4530,59.0,0.0,60.0,4.0,0.0
4531,63.0,0.0,30.0,6.0,0.0
4532,59.0,30.0,30.0,7.0,0.0
4533,81.0,0.0,60.0,10.0,0.0
4534,75.0,0.0,30.0,3.0,0.0
4535,58.0,0.0,30.0,7.0,0.0
4536,61.0,0.0,30.0,6.0,0.0
4537,58.0,0.0,30.0,15.0,0.0
4538,75.0,60.0,30.0,11.0,0.0
4539,58.0,0.0,30.0,1.0,0.0
4540,75.0,0.0,30.0,0.0,0.0
4541,59.0,0.0,60.0,15.0,0.0
4542,75.0,0.0,120.0,15.0,0.0
4543,66.0,0.0,60.0,15.0,0.0
4544,71.0,0.0,60.0,15.0,0.0
4545,81.0,0.0,60.0,10.0,0.0
4546,75.0,0.0,120.0,3.0,0.0
4547,59.0,0.0,60.0,1.0,0.0
4548,59.0,0.0,60.0,7.0,0.0
4549,75.0,0.0,120.0,0.0,0.0
4550,81.0,30.0,60.0,0.0,0.0
4551,75.0,0.0,120.0,11.0,0.0
4552,63.0,0.0,60.0,6.0,0.0
4553,78.0,30.0,30.0,4.0,0.0
4554,78.0,0.0,30.0,5.0,0.0
4555,81.0,0.0,60.0,10.0,0.0
4556,66.0,0.0,60.0,6.0,0.0
4557,63.0,60.0,60.0,15.0,0.0
4558,63.0,0.0,60.0,7.0,0.0
4559,63.0,0.0,60.0,1.0,0.0
4560,71.0,0.0,60.0,15.0,0.0
4561,66.0,0.0,60.0,15.0,0.0
4562,81.0,0.0,60.0,15.0,0.0
4563,81.0,0.0,60.0,0.0,0.0
4564,71.0,0.0,30.0,4.0,0.0
4565,71.0,0.0,30.0,5.0,0.0
4566,52.0,0.0,60.0,1.0,0.0
4567,81.0,0.0,90.0,10.0,0.0
4568,81.0,30.0,60.0,4.0,0.0
4569,59.0,0.0,60.0,6.0,0.0
4570,81.0,0.0,60.0,5.0,0.0
4571,64.0,0.0,60.0,15.0,0.0
4572,81.0,0.0,60.0,15.0,0.0
4573,52.0,0.0,60.0,15.0,0.0
4574,52.0,0.0,60.0,7.0,0.0
4575,71.0,0.0,60.0,15.0,0.0
4576,81.0,0.0,90.0,0.0,0.0
4577,80.0,60.0,60.0,15.0,0.0
4578,64.0,0.0,30.0,1.0,0.0
4579,64.0,0.0,60.0,5.0,0.0
4580,74.0,0.0,120.0,0.0,0.0
4581,71.0,0.0,60.0,15.0,0.0
4582,74.0,0.0,60.0,15.0,0.0
4583,74.0,30.0,120.0,11.0,0.0
4584,64.0,0.0,60.0,4.0,0.0
4585,74.0,0.0,120.0,3.0,0.0
4586,64.0,0.0,30.0,7.0,0.0
4587,68.0,0.0,30.0,6.0,0.0
4588,64.0,30.0,30.0,15.0,0.0
4589,63.0,0.0,30.0,1.0,0.0
4590,63.0,0.0,30.0,15.0,0.0
4591,66.0,0.0,30.0,6.0,0.0
4592,80.0,0.0,30.0,0.0,0.0
4593,80.0,0.0,30.0,10.0,0.0
4594,63.0,0.0,30.0,7.0,0.0
4595,64.0,0.0,60.0,1.0,0.0
4596,80.0,0.0,120.0,10.0,0.0
4597,80.0,60.0,120.0,0.0,0.0
4598,71.0,0.0,60.0,15.0,0.0
4599,80.0,0.0,120.0,15.0,0.0
4600,64.0,0.0,60.0,15.0,0.0
4601,64.0,0.0,60.0,7.0,0.0
4602,68.0,0.0,60.0,6.0,0.0
4603,74.0,0.0,60.0,3.0,0.0
4604,74.0,0.0,60.0,15.0,0.0
4605,68.0,0.0,60.0,15.0,0.0
4606,74.0,0.0,60.0,11.0,0.0
4607,80.0,30.0,30.0,5.0,0.0
4608,74.0,0.0,60.0,0.0,0.0
4609,68.0,0.0,60.0,7.0,0.0
4610,68.0,0.0,60.0,1.0,0.0
4611,80.0,0.0,30.0,4.0,0.0
4612,71.0,0.0,60.0,6.0,0.0
4613,76.0,0.0,30.0,5.0,0.0
4614,76.0,0.0,30.0,4.0,0.0
4615,74.0,0.0,120.0,11.0,0.0
4616,88.0,0.0,60.0,5.0,0.0
4617,69.0,0.0,60.0,15.0,0.0
4618,45.0,0.0,60.0,7.0,0.0
4619,64.0,0.0,60.0,15.0,0.0
4620,74.0,0.0,60.0,15.0,0.0
4621,88.0,30.0,60.0,4.0,0.0
4622,74.0,0.0,120.0,0.0,0.0
4623,74.0,60.0,120.0,3.0,0.0
4624,64.0,0.0,60.0,6.0,0.0
4625,45.0,0.0,60.0,15.0,0.0
4626,45.0,0.0,60.0,1.0,0.0
4627,57.0,0.0,30.0,7.0,0.0
4628,57.0,0.0,30.0,1.0,0.0
4629,61.0,30.0,30.0,6.0,0.0
4630,79.0,0.0,120.0,10.0,0.0
4631,57.0,0.0,30.0,15.0,0.0
4632,61.0,0.0,60.0,15.0,0.0
4633,69.0,0.0,60.0,5.0,0.0
4634,69.0,0.0,60.0,4.0,0.0
4635,64.0,0.0,60.0,15.0,0.0
4636,79.0,0.0,60.0,15.0,0.0
4637,79.0,0.0,120.0,0.0,0.0
4638,56.0,0.0,30.0,1.0,0.0
4639,59.0,0.0,30.0,6.0,0.0
4640,56.0,0.0,30.0,7.0,0.0
4641,56.0,0.0,30.0,15.0,0.0
4642,73.0,0.0,60.0,15.0,0.0
4643,61.0,0.0,60.0,6.0,0.0
4644,76.0,0.0,60.0,15.0,0.0
4645,69.0,0.0,60.0,15.0,0.0
4646,57.0,0.0,60.0,7.0,0.0
4647,73.0,0.0,120.0,0.0,0.0
4648,57.0,0.0,60.0,15.0,0.0
4649,57.0,30.0,60.0,1.0,0.0
4650,73.0,60.0,120.0,11.0,0.0
4651,73.0,0.0,120.0,3.0,0.0
4652,61.0,0.0,60.0,15.0,0.0
4653,76.0,0.0,60.0,15.0,0.0
4654,79.0,0.0,60.0,15.0,0.0
4655,79.0,0.0,60.0,10.0,0.0
4656,76.0,30.0,30.0,4.0,0.0
4657,76.0,0.0,30.0,5.0,0.0
4658,64.0,0.0,60.0,6.0,0.0
4659,69.0,0.0,60.0,15.0,0.0
4660,79.0,0.0,60.0,0.0,0.0
4661,61.0,0.0,60.0,1.0,0.0
4662,61.0,0.0,60.0,7.0,0.0
4663,69.0,0.0,30.0,4.0,0.0
4664,69.0,0.0,30.0,5.0,0.0
4665,62.0,0.0,60.0,15.0,0.0
4666,50.0,0.0,60.0,15.0,0.0
4667,79.0,0.0,60.0,15.0,0.0
4668,50.0,0.0,60.0,1.0,0.0
4669,38.0,0.0,60.0,8.0,0.0
4670,69.0,30.0,60.0,15.0,0.0
4671,79.0,0.0,120.0,10.0,0.0
4672,79.0,0.0,120.0,0.0,0.0
4673,57.0,0.0,60.0,6.0,0.0
4674,79.0,0.0,60.0,5.0,0.0
4675,79.0,0.0,60.0,4.0,0.0
4676,62.0,0.0,60.0,3.0,0.0
4677,78.0,0.0,180.0,15.0,0.0
4678,62.0,0.0,30.0,15.0,0.0
4679,62.0,0.0,60.0,12.0,0.0
4680,62.0,0.0,30.0,1.0,0.0
4681,69.0,0.0,180.0,15.0,0.0
4682,62.0,60.0,60.0,4.0,0.0
4683,62.0,0.0,60.0,5.0,0.0
4684,66.0,30.0,30.0,6.0,0.0
4685,50.0,0.0,30.0,8.0,0.0
4686,64.0,0.0,30.0,6.0,0.0
4687,61.0,0.0,30.0,1.0,0.0
4688,61.0,0.0,30.0,15.0,0.0
4689,49.0,0.0,30.0,8.0,0.0
4690,66.0,0.0,60.0,6.0,0.0
4691,62.0,0.0,60.0,12.0,0.0
4692,62.0,0.0,60.0,15.0,0.0
4693,62.0,30.0,60.0,3.0,0.0
4694,62.0,0.0,60.0,1.0,0.0
4695,78.0,0.0,120.0,10.0,0.0
4696,78.0,0.0,120.0,0.0,0.0
4697,50.0,0.0,60.0,8.0,0.0
4698,66.0,0.0,60.0,15.0,0.0
4699,62.0,0.0,60.0,12.0,0.0
4700,66.0,0.0,60.0,1.0,0.0
4701,54.0,0.0,60.0,8.0,0.0
4702,86.0,30.0,30.0,5.0,0.0
4703,86.0,0.0,30.0,4.0,0.0
4704,62.0,0.0,60.0,3.0,0.0
4705,69.0,0.0,60.0,6.0,0.0
4706,78.0,60.0,30.0,5.0,0.0
4707,78.0,0.0,30.0,4.0,0.0
4708,52.0,0.0,60.0,15.0,0.0
4709,71.0,0.0,60.0,15.0,0.0
4710,62.0,0.0,60.0,15.0,0.0
4711,59.0,0.0,60.0,6.0,0.0
4712,62.0,0.0,90.0,12.0,0.0
4713,67.0,30.0,60.0,15.0,0.0
4714,79.0,0.0,60.0,4.0,0.0
4715,40.0,0.0,60.0,8.0,0.0
4716,52.0,0.0,60.0,1.0,0.0
4717,62.0,30.0,90.0,3.0,0.0
4718,79.0,0.0,60.0,5.0,0.0
4719,67.0,0.0,180.0,15.0,0.0
4720,67.0,0.0,30.0,6.0,0.0
4721,83.0,0.0,60.0,4.0,0.0
4722,83.0,0.0,60.0,5.0,0.0
4723,71.0,0.0,60.0,11.0,0.0
4724,71.0,0.0,60.0,3.0,0.0
4725,73.0,0.0,180.0,15.0,0.0
4726,52.0,0.0,30.0,8.0,0.0
4727,64.0,0.0,30.0,1.0,0.0
4728,64.0,0.0,30.0,15.0,0.0
4729,76.0,0.0,180.0,15.0,0.0
4730,71.0,0.0,60.0,0.0,0.0
4731,61.0,0.0,30.0,12.0,0.0
4732,62.0,60.0,30.0,1.0,0.0
4733,61.0,0.0,30.0,3.0,0.0
4734,62.0,0.0,30.0,15.0,0.0
4735,66.0,0.0,30.0,6.0,0.0
4736,50.0,0.0,30.0,8.0,0.0
4737,52.0,0.0,60.0,8.0,0.0
4738,67.0,30.0,60.0,6.0,0.0
4739,64.0,0.0,60.0,15.0,0.0
4740,61.0,0.0,120.0,12.0,0.0
4741,67.0,0.0,60.0,11.0,0.0
4742,67.0,0.0,60.0,3.0,0.0
4743,67.0,0.0,60.0,0.0,0.0
4744,64.0,0.0,60.0,1.0,0.0
4745,61.0,0.0,120.0,3.0,0.0
4746,69.0,0.0,30.0,3.0,0.0
4747,69.0,0.0,30.0,11.0,0.0
4748,69.0,0.0,30.0,0.0,0.0
4749,83.0,0.0,30.0,5.0,0.0
4750,67.0,0.0,60.0,1.0,0.0
4751,71.0,0.0,60.0,6.0,0.0
4752,83.0,30.0,30.0,4.0,0.0
4753,55.0,0.0,60.0,8.0,0.0
4754,71.0,60.0,30.0,11.0,0.0
4755,71.0,0.0,30.0,0.0,0.0
4756,76.0,0.0,30.0,5.0,0.0
4757,76.0,0.0,30.0,4.0,0.0
4758,71.0,0.0,30.0,3.0,0.0
4759,61.0,0.0,240.0,15.0,0.0
4760,85.0,0.0,60.0,5.0,0.0
4761,45.0,0.0,60.0,1.0,0.0
4762,33.0,0.0,60.0,8.0,0.0
4763,64.0,0.0,120.0,11.0,0.0
4764,64.0,0.0,120.0,0.0,0.0
4765,64.0,0.0,60.0,6.0,0.0
4766,64.0,0.0,120.0,3.0,0.0
4767,64.0,0.0,240.0,15.0,0.0
4768,45.0,0.0,60.0,15.0,0.0
4769,67.0,0.0,240.0,15.0,0.0
4770,85.0,30.0,60.0,4.0,0.0
4771,45.0,0.0,30.0,8.0,0.0
4772,57.0,0.0,30.0,15.0,0.0
4773,67.0,0.0,120.0,3.0,0.0
4774,69.0,60.0,60.0,5.0,0.0
4775,69.0,0.0,60.0,4.0,0.0
4776,57.0,0.0,30.0,1.0,0.0
4777,67.0,0.0,120.0,12.0,0.0
4778,61.0,30.0,30.0,6.0,0.0
4779,56.0,0.0,30.0,15.0,0.0
4780,59.0,0.0,30.0,6.0,0.0
4781,56.0,0.0,30.0,1.0,0.0
4782,44.0,0.0,30.0,8.0,0.0
4783,45.0,0.0,60.0,8.0,0.0
4784,69.0,0.0,120.0,0.0,0.0
4785,57.0,30.0,60.0,15.0,0.0
4786,57.0,0.0,60.0,1.0,0.0
4787,69.0,0.0,120.0,11.0,0.0
4788,69.0,0.0,120.0,3.0,0.0
4789,61.0,0.0,60.0,6.0,0.0
4790,67.0,0.0,60.0,3.0,0.0
4791,64.0,0.0,60.0,6.0,0.0
4792,67.0,60.0,60.0,12.0,0.0
4793,49.0,0.0,60.0,8.0,0.0
4794,76.0,0.0,30.0,4.0,0.0
4795,76.0,30.0,30.0,5.0,0.0
4796,61.0,0.0,60.0,1.0,0.0
4797,69.0,0.0,30.0,4.0,0.0
4798,69.0,0.0,30.0,5.0,0.0
4799,67.0,0.0,120.0,12.0,0.0
4800,81.0,0.0,60.0,5.0,0.0
4801,57.0,0.0,60.0,6.0,0.0
4802,67.0,0.0,120.0,3.0,0.0
4803,40.0,0.0,60.0,1.0,0.0
4804,30.0,0.0,60.0,8.0,0.0
4805,81.0,0.0,60.0,4.0,0.0
4806,42.0,0.0,60.0,15.0,0.0
4807,57.0,0.0,60.0,15.0,0.0
4808,61.0,30.0,60.0,15.0,0.0
4809,76.0,0.0,240.0,15.0,0.0
4810,67.0,0.0,60.0,15.0,0.0
4811,76.0,0.0,60.0,11.0,0.0
4812,76.0,0.0,60.0,3.0,0.0
4813,60.0,0.0,60.0,4.0,0.0
4814,42.0,30.0,30.0,8.0,0.0
4815,54.0,0.0,30.0,1.0,0.0
4816,69.0,0.0,30.0,6.0,0.0
4817,76.0,0.0,60.0,0.0,0.0
4818,60.0,0.0,60.0,13.0,0.0
4819,60.0,0.0,60.0,5.0,0.0
4820,60.0,0.0,60.0,3.0,0.0
4821,60.0,0.0,180.0,15.0,0.0
4822,66.0,0.0,180.0,15.0,0.0
4823,54.0,0.0,30.0,15.0,0.0
4824,40.0,0.0,30.0,8.0,0.0
4825,52.0,60.0,30.0,15.0,0.0
4826,67.0,0.0,30.0,6.0,0.0
4827,52.0,0.0,30.0,1.0,0.0
4828,66.0,0.0,120.0,3.0,0.0
4829,57.0,0.0,60.0,3.0,0.0
4830,69.0,0.0,60.0,6.0,0.0
4831,42.0,0.0,60.0,8.0,0.0
4832,57.0,0.0,60.0,13.0,0.0
4833,76.0,0.0,60.0,3.0,0.0
4834,54.0,0.0,60.0,15.0,0.0
4835,76.0,30.0,60.0,0.0,0.0
4836,66.0,0.0,120.0,12.0,0.0
4837,76.0,0.0,60.0,11.0,0.0
4838,54.0,0.0,60.0,1.0,0.0
4839,76.0,0.0,30.0,4.0,0.0
4840,60.0,0.0,60.0,6.0,0.0
4841,59.0,0.0,30.0,13.0,0.0
4842,57.0,60.0,60.0,1.0,0.0
4843,45.0,0.0,60.0,8.0,0.0
4844,59.0,30.0,30.0,3.0,0.0
4845,76.0,0.0,60.0,0.0,0.0
4846,76.0,0.0,60.0,11.0,0.0
4847,76.0,0.0,60.0,3.0,0.0
4848,76.0,0.0,30.0,5.0,0.0
4849,72.0,0.0,30.0,4.0,0.0
4850,60.0,0.0,30.0,13.0,0.0
4851,60.0,0.0,30.0,3.0,0.0
4852,72.0,0.0,30.0,5.0,0.0
4853,35.0,0.0,60.0,8.0,0.0
4854,76.0,0.0,60.0,15.0,0.0
4855,66.0,0.0,120.0,15.0,0.0
4856,47.0,30.0,60.0,1.0,0.0
4857,71.0,0.0,60.0,15.0,0.0
4858,76.0,0.0,90.0,11.0,0.0
4859,81.0,0.0,60.0,4.0,0.0
4860,81.0,0.0,60.0,5.0,0.0
4861,76.0,0.0,90.0,0.0,0.0
4862,76.0,0.0,90.0,3.0,0.0
4863,47.0,0.0,60.0,15.0,0.0
4864,54.0,0.0,120.0,13.0,0.0
4865,59.0,0.0,60.0,6.0,0.0
4866,54.0,0.0,120.0,3.0,0.0
4867,81.0,0.0,120.0,0.0,0.0
4868,59.0,0.0,30.0,15.0,0.0
4869,63.0,30.0,30.0,6.0,0.0
4870,75.0,0.0,60.0,15.0,0.0
4871,59.0,0.0,30.0,1.0,0.0
4872,63.0,0.0,60.0,5.0,0.0
4873,63.0,0.0,60.0,4.0,0.0
4874,81.0,0.0,120.0,10.0,0.0
4875,47.0,0.0,30.0,8.0,0.0
4876,58.0,0.0,30.0,15.0,0.0
4877,75.0,0.0,30.0,0.0,0.0
4878,46.0,60.0,30.0,8.0,0.0
4879,75.0,0.0,30.0,3.0,0.0
4880,61.0,0.0,30.0,6.0,0.0
4881,75.0,0.0,30.0,11.0,0.0
4882,58.0,0.0,30.0,1.0,0.0
4883,75.0,0.0,120.0,0.0,0.0
4884,63.0,0.0,60.0,6.0,0.0
4885,59.0,0.0,60.0,15.0,0.0
4886,59.0,0.0,120.0,3.0,0.0
4887,59.0,0.0,60.0,1.0,0.0
4888,47.0,30.0,60.0,8.0,0.0
4889,75.0,0.0,120.0,3.0,0.0
4890,75.0,0.0,120.0,15.0,0.0
4891,75.0,0.0,120.0,11.0,0.0
4892,66.0,60.0,120.0,15.0,0.0
4893,59.0,0.0,120.0,13.0,0.0
4894,63.0,0.0,60.0,1.0,0.0
4895,66.0,0.0,60.0,6.0,0.0
4896,81.0,0.0,60.0,0.0,0.0
4897,51.0,0.0,60.0,8.0,0.0
4898,81.0,0.0,60.0,10.0,0.0
4899,71.0,0.0,60.0,15.0,0.0
4900,78.0,30.0,30.0,4.0,0.0
4901,81.0,0.0,60.0,15.0,0.0
4902,63.0,0.0,60.0,15.0,0.0
4903,78.0,0.0,30.0,5.0,0.0
4904,71.0,0.0,30.0,4.0,0.0
4905,71.0,0.0,30.0,5.0,0.0
4906,83.0,0.0,60.0,5.0,0.0
4907,64.0,30.0,60.0,6.0,0.0
4908,81.0,0.0,120.0,0.0,0.0
4909,81.0,0.0,120.0,10.0,0.0
4910,71.0,0.0,240.0,15.0,0.0
4911,81.0,0.0,120.0,15.0,0.0
4912,52.0,0.0,60.0,1.0,0.0
4913,83.0,0.0,60.0,4.0,0.0
4914,52.0,0.0,60.0,15.0,0.0
4915,40.0,0.0,60.0,8.0,0.0
4916,64.0,30.0,30.0,15.0,0.0
4917,64.0,0.0,60.0,4.0,0.0
4918,71.0,60.0,60.0,6.0,0.0
4919,52.0,0.0,30.0,8.0,0.0
4920,64.0,0.0,60.0,3.0,0.0
4921,64.0,0.0,30.0,1.0,0.0
4922,64.0,0.0,60.0,12.0,0.0
4923,64.0,0.0,60.0,5.0,0.0
4924,51.0,0.0,30.0,8.0,0.0
4925,63.0,0.0,30.0,15.0,0.0
4926,63.0,0.0,30.0,1.0,0.0
4927,64.0,0.0,60.0,1.0,0.0
4928,52.0,30.0,60.0,8.0,0.0
4929,79.0,0.0,120.0,10.0,0.0
4930,67.0,0.0,60.0,6.0,0.0
4931,64.0,0.0,60.0,12.0,0.0
4932,79.0,0.0,120.0,15.0,0.0
4933,64.0,0.0,60.0,3.0,0.0
4934,79.0,0.0,120.0,0.0,0.0
4935,64.0,0.0,120.0,15.0,0.0
4936,67.0,0.0,60.0,1.0,0.0
4937,55.0,0.0,60.0,8.0,0.0
4938,64.0,0.0,60.0,12.0,0.0
4939,67.0,0.0,60.0,15.0,0.0
4940,64.0,0.0,120.0,6.0,0.0
4941,88.0,0.0,30.0,5.0,0.0
4942,64.0,0.0,60.0,3.0,0.0
4943,88.0,30.0,30.0,4.0,0.0
4944,79.0,60.0,30.0,5.0,0.0
4945,79.0,0.0,30.0,4.0,0.0
4946,81.0,0.0,60.0,5.0,0.0
4947,64.0,0.0,90.0,12.0,0.0
4948,69.0,0.0,60.0,15.0,0.0
4949,73.0,0.0,60.0,15.0,0.0
4950,64.0,30.0,60.0,15.0,0.0
4951,54.0,0.0,60.0,15.0,0.0
4952,42.0,0.0,60.0,8.0,0.0
4953,81.0,0.0,60.0,4.0,0.0
4954,64.0,0.0,90.0,3.0,0.0
4955,50.0,0.0,60.0,1.0,0.0
4956,69.0,0.0,180.0,15.0,0.0
4957,84.0,0.0,60.0,4.0,0.0
4958,84.0,0.0,60.0,5.0,0.0
4959,54.0,0.0,30.0,8.0,0.0
4960,72.0,0.0,60.0,3.0,0.0
4961,66.0,0.0,30.0,15.0,0.0
4962,72.0,0.0,60.0,0.0,0.0
4963,66.0,30.0,30.0,1.0,0.0
4964,72.0,0.0,60.0,11.0,0.0
4965,72.0,0.0,180.0,15.0,0.0
4966,75.0,0.0,180.0,15.0,0.0
4967,63.0,0.0,30.0,6.0,0.0
4968,61.0,0.0,30.0,6.0,0.0
4969,52.0,60.0,30.0,8.0,0.0
4970,63.0,0.0,30.0,12.0,0.0
4971,63.0,0.0,30.0,3.0,0.0
4972,64.0,0.0,30.0,1.0,0.0
4973,64.0,0.0,30.0,15.0,0.0
4974,63.0,0.0,120.0,12.0,0.0
4975,69.0,0.0,60.0,0.0,0.0
4976,54.0,0.0,60.0,8.0,0.0
4977,63.0,0.0,120.0,3.0,0.0
4978,66.0,0.0,60.0,1.0,0.0
4979,63.0,0.0,60.0,6.0,0.0
4980,66.0,30.0,60.0,15.0,0.0
4981,69.0,0.0,60.0,11.0,0.0
4982,69.0,0.0,60.0,3.0,0.0
4983,71.0,0.0,30.0,0.0,0.0
4984,69.0,0.0,60.0,1.0,0.0
4985,71.0,0.0,30.0,3.0,0.0
4986,57.0,0.0,60.0,8.0,0.0
4987,81.0,0.0,30.0,4.0,0.0
4988,66.0,0.0,120.0,6.0,0.0
4989,71.0,0.0,30.0,11.0,0.0
4990,81.0,30.0,30.0,5.0,0.0
4991,72.0,0.0,30.0,0.0,0.0
4992,78.0,0.0,30.0,4.0,0.0
4993,72.0,0.0,30.0,11.0,0.0
4994,72.0,60.0,30.0,3.0,0.0
4995,78.0,0.0,30.0,5.0,0.0
4996,66.0,0.0,120.0,0.0,0.0
4997,66.0,0.0,120.0,11.0,0.0
4998,66.0,0.0,60.0,15.0,0.0
4999,47.0,0.0,60.0,1.0,0.0
5000,63.0,0.0,180.0,15.0,0.0
5001,75.0,0.0,60.0,4.0,0.0
5002,66.0,0.0,120.0,3.0,0.0
5003,75.0,30.0,60.0,5.0,0.0
5004,35.0,0.0,60.0,8.0,0.0
5005,47.0,0.0,60.0,15.0,0.0
5006,69.0,30.0,120.0,12.0,0.0
5007,66.0,0.0,120.0,15.0,0.0
5008,69.0,0.0,120.0,15.0,0.0
5009,63.0,60.0,60.0,5.0,0.0
5010,63.0,30.0,30.0,6.0,0.0
5011,47.0,0.0,30.0,8.0,0.0
5012,59.0,0.0,30.0,1.0,0.0
5013,63.0,0.0,60.0,4.0,0.0
5014,69.0,0.0,120.0,3.0,0.0
5015,59.0,0.0,30.0,15.0,0.0
5016,58.0,0.0,30.0,1.0,0.0
5017,61.0,0.0,30.0,6.0,0.0
5018,58.0,0.0,30.0,15.0,0.0
5019,46.0,0.0,30.0,8.0,0.0
5020,59.0,0.0,60.0,15.0,0.0
5021,59.0,0.0,60.0,1.0,0.0
5022,71.0,0.0,120.0,15.0,0.0
5023,71.0,0.0,120.0,3.0,0.0
5024,63.0,0.0,60.0,6.0,0.0
5025,47.0,0.0,60.0,8.0,0.0
5026,71.0,0.0,120.0,11.0,0.0
5027,71.0,0.0,120.0,0.0,0.0
5028,63.0,0.0,60.0,1.0,0.0
5029,69.0,0.0,60.0,12.0,0.0
5030,63.0,0.0,60.0,15.0,0.0
5031,66.0,0.0,60.0,6.0,0.0
5032,78.0,0.0,30.0,4.0,0.0
5033,69.0,0.0,60.0,3.0,0.0
5034,69.0,0.0,60.0,15.0,0.0
5035,66.0,0.0,60.0,15.0,0.0
5036,51.0,0.0,60.0,8.0,0.0
5037,78.0,30.0,30.0,5.0,0.0
5038,71.0,0.0,30.0,4.0,0.0
5039,71.0,60.0,30.0,5.0,0.0
5040,83.0,30.0,60.0,4.0,0.0
5041,69.0,0.0,120.0,3.0,0.0
5042,83.0,0.0,60.0,5.0,0.0
5043,32.0,0.0,60.0,8.0,0.0
5044,62.0,0.0,60.0,6.0,0.0
5045,78.0,0.0,120.0,15.0,0.0
5046,62.0,0.0,240.0,15.0,0.0
5047,59.0,0.0,120.0,15.0,0.0
5048,44.0,0.0,60.0,15.0,0.0
5049,69.0,0.0,120.0,12.0,0.0
5050,44.0,0.0,60.0,1.0,0.0
5051,69.0,0.0,120.0,15.0,0.0
5052,68.0,0.0,60.0,4.0,0.0
5053,62.0,0.0,60.0,13.0,0.0
5054,68.0,0.0,60.0,5.0,0.0
5055,62.0,0.0,60.0,3.0,0.0
5056,56.0,0.0,30.0,15.0,0.0
5057,78.0,0.0,120.0,11.0,0.0
5058,78.0,0.0,120.0,3.0,0.0
5059,78.0,30.0,120.0,0.0,0.0
5060,44.0,0.0,30.0,8.0,0.0
5061,71.0,30.0,30.0,6.0,0.0
5062,56.0,0.0,30.0,1.0,0.0
5063,42.0,0.0,30.0,8.0,0.0
5064,54.0,0.0,30.0,15.0,0.0
5065,54.0,0.0,30.0,1.0,0.0
5066,69.0,60.0,30.0,6.0,0.0
5067,68.0,0.0,60.0,6.0,0.0
5068,78.0,0.0,120.0,15.0,0.0
5069,68.0,60.0,120.0,15.0,0.0
5070,56.0,0.0,60.0,15.0,0.0
5071,68.0,0.0,120.0,12.0,0.0
5072,59.0,0.0,60.0,3.0,0.0
5073,59.0,0.0,60.0,13.0,0.0
5074,56.0,0.0,60.0,1.0,0.0
5075,68.0,0.0,120.0,3.0,0.0
5076,44.0,0.0,60.0,8.0,0.0
5077,61.0,0.0,30.0,13.0,0.0
5078,78.0,0.0,60.0,11.0,0.0
5079,61.0,0.0,30.0,3.0,0.0
5080,71.0,0.0,60.0,6.0,0.0
5081,86.0,0.0,30.0,5.0,0.0
5082,78.0,0.0,60.0,0.0,0.0
5083,78.0,0.0,60.0,3.0,0.0
5084,59.0,0.0,60.0,15.0,0.0
5085,86.0,30.0,30.0,4.0,0.0
5086,59.0,0.0,60.0,1.0,0.0
5087,47.0,0.0,60.0,8.0,0.0
5088,74.0,0.0,30.0,4.0,0.0
5089,62.0,0.0,30.0,13.0,0.0
5090,74.0,0.0,30.0,5.0,0.0
5091,62.0,0.0,30.0,3.0,0.0
5092,78.0,0.0,60.0,4.0,0.0
5093,71.0,0.0,120.0,15.0,0.0
5094,56.0,0.0,120.0,3.0,0.0
5095,78.0,0.0,60.0,5.0,0.0
5096,78.0,0.0,120.0,11.0,0.0
5097,80.0,0.0,240.0,15.0,0.0
5098,78.0,0.0,120.0,3.0,0.0
5099,61.0,0.0,60.0,6.0,0.0
5100,78.0,0.0,120.0,15.0,0.0
5101,49.0,0.0,60.0,15.0,0.0
5102,56.0,0.0,120.0,13.0,0.0
5103,49.0,0.0,60.0,1.0,0.0
5104,37.0,30.0,60.0,8.0,0.0
5105,78.0,0.0,120.0,0.0,0.0
5106,65.0,30.0,30.0,6.0,0.0
5107,80.0,0.0,60.0,0.0,0.0
5108,71.0,0.0,60.0,3.0,0.0
5109,61.0,0.0,30.0,1.0,0.0
5110,71.0,0.0,60.0,12.0,0.0
5111,68.0,0.0,60.0,5.0,0.0
5112,61.0,0.0,30.0,15.0,0.0
5113,68.0,0.0,60.0,4.0,0.0
5114,80.0,0.0,60.0,10.0,0.0
5115,49.0,0.0,30.0,8.0,0.0
5116,60.0,0.0,30.0,15.0,0.0
5117,63.0,0.0,30.0,6.0,0.0
5118,60.0,60.0,30.0,1.0,0.0
5119,48.0,0.0,30.0,8.0,0.0
5120,77.0,0.0,120.0,3.0,0.0
5121,49.0,0.0,60.0,8.0,0.0
5122,71.0,30.0,60.0,12.0,0.0
5123,61.0,0.0,120.0,13.0,0.0
5124,77.0,0.0,120.0,11.0,0.0
5125,76.0,0.0,120.0,15.0,0.0
5126,61.0,0.0,60.0,1.0,0.0
5127,71.0,0.0,60.0,3.0,0.0
5128,77.0,0.0,60.0,10.0,0.0
5129,61.0,0.0,120.0,3.0,0.0
5130,61.0,0.0,60.0,15.0,0.0
5131,65.0,0.0,60.0,6.0,0.0
5132,77.0,0.0,60.0,0.0,0.0
5133,53.0,0.0,60.0,8.0,0.0
5134,73.0,60.0,60.0,15.0,0.0
5135,65.0,0.0,60.0,15.0,0.0
5136,80.0,30.0,30.0,4.0,0.0
5137,71.0,0.0,60.0,12.0,0.0
5138,78.0,0.0,30.0,10.0,0.0
5139,78.0,0.0,30.0,0.0,0.0
5140,71.0,0.0,60.0,3.0,0.0
5141,80.0,0.0,30.0,5.0,0.0
5142,65.0,0.0,60.0,1.0,0.0
5143,68.0,0.0,120.0,6.0,0.0
5144,71.0,0.0,60.0,15.0,0.0
5145,73.0,0.0,30.0,5.0,0.0
5146,80.0,0.0,30.0,10.0,0.0
5147,73.0,0.0,30.0,4.0,0.0
5148,80.0,0.0,30.0,0.0,0.0
5149,73.0,0.0,120.0,10.0,0.0
5150,42.0,0.0,60.0,8.0,0.0
5151,71.0,0.0,90.0,3.0,0.0
5152,54.0,0.0,60.0,15.0,0.0
5153,73.0,0.0,120.0,0.0,0.0
5154,83.0,0.0,60.0,5.0,0.0
5155,71.0,0.0,120.0,15.0,0.0
5156,83.0,30.0,60.0,4.0,0.0
5157,73.0,30.0,180.0,15.0,0.0
5158,54.0,0.0,60.0,1.0,0.0
5159,78.0,0.0,180.0,15.0,0.0
5160,71.0,0.0,90.0,12.0,0.0
5161,66.0,0.0,60.0,4.0,0.0
5162,66.0,0.0,30.0,6.0,0.0
5163,66.0,0.0,30.0,15.0,0.0
5164,66.0,60.0,60.0,13.0,0.0
5165,66.0,0.0,30.0,1.0,0.0
5166,66.0,0.0,60.0,5.0,0.0
5167,66.0,0.0,60.0,3.0,0.0
5168,54.0,30.0,30.0,8.0,0.0
5169,53.0,0.0,30.0,8.0,0.0
5170,65.0,0.0,30.0,1.0,0.0
5171,70.0,0.0,30.0,12.0,0.0
5172,70.0,0.0,30.0,3.0,0.0
5173,68.0,0.0,30.0,6.0,0.0
5174,65.0,0.0,30.0,15.0,0.0
5175,66.0,0.0,60.0,13.0,0.0
5176,66.0,0.0,60.0,15.0,0.0
5177,78.0,0.0,240.0,0.0,0.0
5178,70.0,0.0,120.0,12.0,0.0
5179,70.0,60.0,120.0,3.0,0.0
5180,66.0,0.0,60.0,3.0,0.0
5181,66.0,0.0,60.0,1.0,0.0
5182,70.0,0.0,60.0,15.0,0.0
5183,70.0,0.0,60.0,6.0,0.0
5184,54.0,0.0,60.0,8.0,0.0
5185,78.0,0.0,120.0,10.0,0.0
5186,73.0,0.0,60.0,6.0,0.0
5187,78.0,0.0,60.0,15.0,0.0
5188,82.0,0.0,30.0,4.0,0.0
5189,82.0,30.0,30.0,5.0,0.0
5190,70.0,0.0,60.0,15.0,0.0
5191,73.0,0.0,60.0,15.0,0.0
5192,70.0,0.0,60.0,1.0,0.0
5193,66.0,0.0,60.0,13.0,0.0
5194,58.0,0.0,60.0,8.0,0.0
5195,66.0,0.0,60.0,3.0,0.0
5196,78.0,0.0,30.0,5.0,0.0
5197,78.0,0.0,30.0,4.0,0.0
5198,83.0,0.0,60.0,5.0,0.0
5199,67.0,0.0,90.0,13.0,0.0
5200,67.0,0.0,90.0,3.0,0.0
5201,78.0,0.0,120.0,15.0,0.0
5202,74.0,0.0,120.0,15.0,0.0
5203,71.0,0.0,120.0,15.0,0.0
5204,55.0,30.0,60.0,15.0,0.0
5205,43.0,0.0,60.0,8.0,0.0
5206,55.0,0.0,60.0,1.0,0.0
5207,62.0,0.0,60.0,6.0,0.0
5208,83.0,0.0,60.0,4.0,0.0
5209,71.0,0.0,30.0,6.0,0.0
5210,71.0,0.0,60.0,3.0,0.0
5211,71.0,0.0,60.0,12.0,0.0
5212,67.0,0.0,30.0,15.0,0.0
5213,67.0,30.0,30.0,1.0,0.0
5214,55.0,0.0,30.0,8.0,0.0
5215,71.0,0.0,120.0,0.0,0.0
5216,71.0,0.0,60.0,11.0,0.0
5217,59.0,0.0,60.0,5.0,0.0
5218,59.0,0.0,60.0,4.0,0.0
5219,78.0,0.0,60.0,10.0,0.0
5220,66.0,0.0,30.0,1.0,0.0
5221,66.0,0.0,30.0,15.0,0.0
5222,69.0,0.0,30.0,6.0,0.0
5223,55.0,0.0,30.0,3.0,0.0
5224,55.0,60.0,30.0,13.0,0.0
5225,54.0,0.0,30.0,8.0,0.0
5226,67.0,0.0,60.0,1.0,0.0
5227,55.0,0.0,120.0,13.0,0.0
5228,67.0,0.0,60.0,12.0,0.0
5229,76.0,0.0,120.0,15.0,0.0
5230,71.0,0.0,120.0,15.0,0.0
5231,67.0,0.0,60.0,15.0,0.0
5232,67.0,0.0,60.0,3.0,0.0
5233,76.0,0.0,240.0,0.0,0.0
5234,71.0,0.0,60.0,3.0,0.0
5235,67.0,0.0,60.0,6.0,0.0
5236,55.0,0.0,120.0,3.0,0.0
5237,55.0,0.0,60.0,8.0,0.0
5238,76.0,0.0,60.0,10.0,0.0
5239,71.0,30.0,60.0,11.0,0.0
5240,83.0,0.0,60.0,10.0,0.0
5241,55.0,0.0,60.0,15.0,0.0
5242,64.0,60.0,60.0,3.0,0.0
5243,43.0,0.0,60.0,8.0,0.0
5244,73.0,0.0,60.0,11.0,0.0
5245,64.0,0.0,120.0,6.0,0.0
5246,83.0,0.0,30.0,4.0,0.0
5247,73.0,0.0,60.0,3.0,0.0
5248,83.0,30.0,30.0,5.0,0.0
5249,55.0,0.0,60.0,1.0,0.0
5250,73.0,0.0,60.0,0.0,0.0
5251,64.0,0.0,60.0,12.0,0.0
5252,76.0,0.0,30.0,5.0,0.0
5253,76.0,0.0,30.0,4.0,0.0
5254,81.0,0.0,60.0,4.0,0.0
5255,81.0,0.0,90.0,10.0,0.0
5256,42.0,0.0,60.0,8.0,0.0
5257,69.0,0.0,240.0,0.0,0.0
5258,73.0,0.0,90.0,11.0,0.0
5259,73.0,0.0,90.0,3.0,0.0
5260,64.0,0.0,90.0,3.0,0.0
5261,73.0,0.0,120.0,15.0,0.0
5262,81.0,0.0,120.0,15.0,0.0
5263,54.0,0.0,60.0,15.0,0.0
5264,54.0,30.0,60.0,1.0,0.0
5265,64.0,0.0,90.0,12.0,0.0
5266,81.0,0.0,60.0,5.0,0.0
5267,54.0,30.0,30.0,8.0,0.0
5268,66.0,0.0,120.0,13.0,0.0
5269,66.0,0.0,30.0,15.0,0.0
5270,62.0,0.0,60.0,4.0,0.0
5271,69.0,0.0,30.0,6.0,0.0
5272,66.0,0.0,30.0,1.0,0.0
5273,66.0,0.0,120.0,3.0,0.0
5274,62.0,60.0,60.0,5.0,0.0
5275,64.0,0.0,30.0,1.0,0.0
5276,73.0,0.0,30.0,10.0,0.0
5277,69.0,0.0,30.0,3.0,0.0
5278,76.0,0.0,30.0,3.0,0.0
5279,69.0,0.0,30.0,12.0,0.0
5280,52.0,0.0,30.0,8.0,0.0
5281,67.0,0.0,30.0,6.0,0.0
5282,76.0,0.0,30.0,11.0,0.0
5283,64.0,0.0,30.0,15.0,0.0
5284,74.0,0.0,120.0,3.0,0.0
5285,66.0,0.0,60.0,1.0,0.0
5286,69.0,0.0,120.0,3.0,0.0
5287,69.0,0.0,120.0,15.0,0.0
5288,66.0,0.0,60.0,15.0,0.0
5289,74.0,0.0,120.0,10.0,0.0
5290,54.0,0.0,60.0,8.0,0.0
5291,74.0,0.0,120.0,11.0,0.0
5292,69.0,0.0,120.0,12.0,0.0
5293,74.0,60.0,240.0,0.0,0.0
5294,74.0,60.0,120.0,15.0,0.0
5295,66.0,30.0,60.0,6.0,0.0
5296,57.0,0.0,60.0,8.0,0.0
5297,66.0,0.0,60.0,13.0,0.0
5298,78.0,0.0,30.0,5.0,0.0
5299,78.0,30.0,30.0,4.0,0.0
5300,69.0,0.0,60.0,1.0,0.0
5301,66.0,0.0,60.0,3.0,0.0
5302,69.0,0.0,60.0,6.0,0.0
5303,74.0,0.0,30.0,4.0,0.0
5304,74.0,0.0,30.0,5.0,0.0
5305,40.0,0.0,60.0,8.0,0.0
5306,79.0,0.0,60.0,5.0,0.0
5307,64.0,0.0,120.0,13.0,0.0
5308,67.0,0.0,240.0,0.0,0.0
5309,79.0,0.0,60.0,4.0,0.0
5310,64.0,0.0,120.0,3.0,0.0
5311,52.0,0.0,60.0,15.0,0.0
5312,67.0,0.0,120.0,15.0,0.0
5313,71.0,0.0,120.0,15.0,0.0
5314,52.0,30.0,60.0,1.0,0.0
5315,74.0,0.0,120.0,15.0,0.0
5316,71.0,0.0,60.0,6.0,0.0
5317,67.0,0.0,120.0,3.0,0.0
5318,52.0,0.0,30.0,8.0,0.0
5319,71.0,0.0,60.0,3.0,0.0
5320,64.0,0.0,60.0,4.0,0.0
5321,64.0,30.0,30.0,1.0,0.0
5322,67.0,0.0,120.0,12.0,0.0
5323,64.0,0.0,60.0,5.0,0.0
5324,67.0,0.0,30.0,6.0,0.0
5325,64.0,0.0,30.0,15.0,0.0
5326,74.0,0.0,60.0,10.0,0.0
5327,71.0,0.0,60.0,11.0,0.0
5328,62.0,0.0,30.0,15.0,0.0
5329,50.0,0.0,30.0,8.0,0.0
5330,62.0,0.0,30.0,1.0,0.0
5331,66.0,0.0,30.0,6.0,0.0
5332,73.0,0.0,60.0,10.0,0.0
5333,70.0,0.0,60.0,3.0,0.0
5334,67.0,0.0,60.0,6.0,0.0
5335,73.0,0.0,60.0,0.0,0.0
5336,64.0,30.0,60.0,15.0,0.0
5337,70.0,0.0,60.0,11.0,0.0
5338,67.0,0.0,120.0,15.0,0.0
5339,79.0,0.0,120.0,15.0,0.0
5340,52.0,0.0,120.0,13.0,0.0
5341,64.0,0.0,60.0,1.0,0.0
5342,52.0,0.0,120.0,3.0,0.0
5343,52.0,0.0,60.0,8.0,0.0
5344,73.0,0.0,120.0,15.0,0.0
5345,70.0,0.0,60.0,3.0,0.0
5346,61.0,0.0,60.0,12.0,0.0
5347,40.0,0.0,60.0,8.0,0.0
5348,61.0,0.0,60.0,3.0,0.0
5349,70.0,60.0,60.0,11.0,0.0
5350,79.0,0.0,60.0,0.0,0.0
5351,52.0,0.0,60.0,1.0,0.0
5352,79.0,0.0,60.0,10.0,0.0
5353,79.0,30.0,30.0,5.0,0.0
5354,70.0,0.0,120.0,6.0,0.0
5355,52.0,0.0,60.0,15.0,0.0
5356,79.0,0.0,30.0,4.0,0.0
5357,73.0,0.0,30.0,5.0,0.0
5358,73.0,0.0,30.0,4.0,0.0
5359,78.0,0.0,60.0,10.0,0.0
5360,50.0,0.0,60.0,1.0,0.0
5361,78.0,0.0,60.0,4.0,0.0
5362,78.0,0.0,60.0,5.0,0.0
5363,61.0,0.0,60.0,0.0,0.0
5364,70.0,0.0,60.0,3.0,0.0
5365,38.0,0.0,60.0,8.0,0.0
5366,70.0,0.0,60.0,11.0,0.0
5367,78.0,0.0,60.0,0.0,0.0
5368,70.0,0.0,120.0,15.0,0.0
5369,78.0,0.0,120.0,15.0,0.0
5370,50.0,0.0,60.0,15.0,0.0
5371,61.0,30.0,60.0,3.0,0.0
5372,61.0,0.0,60.0,12.0,0.0
5373,50.0,0.0,30.0,8.0,0.0
5374,70.0,60.0,60.0,10.0,0.0
5375,76.0,0.0,60.0,11.0,0.0
5376,70.0,0.0,60.0,0.0,0.0
5377,66.0,0.0,60.0,4.0,0.0
5378,76.0,0.0,60.0,3.0,0.0
5379,62.0,0.0,120.0,13.0,0.0
5380,66.0,0.0,60.0,12.0,0.0
5381,66.0,0.0,60.0,0.0,0.0
5382,66.0,0.0,60.0,5.0,0.0
5383,62.0,0.0,120.0,3.0,0.0
5384,66.0,0.0,60.0,3.0,0.0
5385,62.0,30.0,30.0,15.0,0.0
5386,66.0,0.0,30.0,6.0,0.0
5387,62.0,0.0,30.0,1.0,0.0
5388,49.0,0.0,30.0,8.0,0.0
5389,64.0,0.0,30.0,6.0,0.0
5390,61.0,0.0,30.0,15.0,0.0
5391,61.0,0.0,30.0,1.0,0.0
5392,62.0,0.0,60.0,1.0,0.0
5393,71.0,30.0,60.0,15.0,0.0
5394,66.0,0.0,60.0,15.0,0.0
5395,62.0,0.0,60.0,15.0,0.0
5396,50.0,0.0,60.0,8.0,0.0
5397,74.0,0.0,60.0,3.0,0.0
5398,66.0,0.0,60.0,6.0,0.0
5399,74.0,0.0,60.0,11.0,0.0
5400,66.0,0.0,60.0,12.0,0.0
5401,71.0,0.0,60.0,0.0,0.0
5402,71.0,0.0,60.0,10.0,0.0
5403,66.0,0.0,60.0,3.0,0.0
5404,66.0,0.0,60.0,0.0,0.0
5405,47.0,0.0,60.0,8.0,0.0
5406,62.0,0.0,60.0,15.0,0.0
5407,78.0,0.0,60.0,10.0,0.0
5408,74.0,0.0,60.0,0.0,0.0
5409,62.0,0.0,60.0,12.0,0.0
5410,74.0,0.0,30.0,4.0,0.0
5411,59.0,0.0,60.0,1.0,0.0
5412,59.0,0.0,60.0,15.0,0.0
5413,78.0,0.0,60.0,0.0,0.0
5414,78.0,0.0,60.0,15.0,0.0
5415,74.0,30.0,30.0,5.0,0.0
5416,74.0,0.0,60.0,11.0,0.0
5417,59.0,0.0,60.0,13.0,0.0
5418,62.0,0.0,60.0,6.0,0.0
5419,62.0,0.0,60.0,3.0,0.0
5420,59.0,0.0,60.0,3.0,0.0
5421,74.0,0.0,60.0,3.0,0.0
5422,66.0,60.0,60.0,15.0,0.0
5423,71.0,0.0,30.0,4.0,0.0
5424,71.0,0.0,30.0,5.0,0.0
5425,59.0,0.0,240.0,12.0,0.0
5426,55.0,30.0,60.0,1.0,0.0
5427,78.0,0.0,120.0,10.0,0.0
5428,55.0,60.0,240.0,3.0,0.0
5429,74.0,0.0,120.0,3.0,0.0
5430,59.0,0.0,60.0,6.0,0.0
5431,59.0,0.0,240.0,3.0,0.0
5432,55.0,0.0,240.0,13.0,0.0
5433,43.0,0.0,60.0,8.0,0.0
5434,74.0,0.0,120.0,11.0,0.0
5435,83.0,0.0,60.0,5.0,0.0
5436,55.0,0.0,60.0,15.0,0.0
5437,59.0,0.0,120.0,15.0,0.0
5438,78.0,0.0,120.0,0.0,0.0
5439,74.0,0.0,120.0,0.0,0.0
5440,78.0,0.0,120.0,15.0,0.0
5441,74.0,0.0,120.0,15.0,0.0
5442,83.0,0.0,60.0,4.0,0.0
5443,55.0,0.0,30.0,8.0,0.0
5444,67.0,30.0,30.0,1.0,0.0
5445,71.0,0.0,30.0,6.0,0.0
5446,71.0,0.0,60.0,4.0,0.0
5447,71.0,0.0,60.0,5.0,0.0
5448,67.0,0.0,30.0,15.0,0.0
5449,70.0,0.0,30.0,6.0,0.0
5450,66.0,0.0,30.0,15.0,0.0
5451,66.0,0.0,30.0,1.0,0.0
5452,54.0,60.0,30.0,8.0,0.0
5453,67.0,0.0,60.0,1.0,0.0
5454,77.0,0.0,120.0,15.0,0.0
5455,77.0,0.0,120.0,0.0,0.0
5456,71.0,0.0,60.0,6.0,0.0
5457,67.0,30.0,60.0,15.0,0.0
5458,55.0,0.0,60.0,8.0,0.0
5459,71.0,0.0,120.0,15.0,0.0
5460,77.0,0.0,120.0,10.0,0.0
5461,73.0,0.0,60.0,11.0,0.0
5462,73.0,0.0,60.0,0.0,0.0
5463,73.0,0.0,60.0,3.0,0.0
5464,43.0,0.0,60.0,8.0,0.0
5465,55.0,0.0,60.0,1.0,0.0
5466,83.0,0.0,30.0,5.0,0.0
5467,71.0,0.0,60.0,11.0,0.0
5468,55.0,0.0,60.0,15.0,0.0
5469,71.0,0.0,60.0,3.0,0.0
5470,62.0,0.0,60.0,6.0,0.0
5471,71.0,0.0,60.0,0.0,0.0
5472,83.0,30.0,30.0,4.0,0.0
5473,77.0,0.0,30.0,5.0,0.0
5474,77.0,0.0,30.0,4.0,0.0
5475,70.0,0.0,120.0,0.0,0.0
5476,70.0,0.0,120.0,11.0,0.0
5477,54.0,0.0,240.0,15.0,0.0
5478,70.0,0.0,240.0,15.0,0.0
5479,78.0,0.0,60.0,5.0,0.0
5480,61.0,0.0,240.0,15.0,0.0
5481,78.0,0.0,240.0,15.0,0.0
5482,70.0,0.0,120.0,3.0,0.0
5483,61.0,0.0,120.0,3.0,0.0
5484,78.0,0.0,60.0,0.0,0.0
5485,42.0,0.0,240.0,8.0,0.0
5486,78.0,0.0,60.0,10.0,0.0
5487,54.0,0.0,120.0,13.0,0.0
5488,61.0,0.0,120.0,12.0,0.0
5489,54.0,0.0,60.0,7.0,0.0
5490,54.0,0.0,60.0,1.0,0.0
5491,54.0,0.0,60.0,6.0,0.0
5492,54.0,0.0,120.0,3.0,0.0
5493,78.0,30.0,60.0,4.0,0.0
5494,78.0,0.0,60.0,10.0,0.0
5495,66.0,0.0,60.0,4.0,0.0
5496,66.0,0.0,30.0,7.0,0.0
5497,66.0,60.0,60.0,5.0,0.0
5498,66.0,30.0,30.0,6.0,0.0
5499,78.0,0.0,60.0,0.0,0.0
5500,66.0,0.0,30.0,1.0,0.0
5501,65.0,0.0,30.0,1.0,0.0
5502,65.0,0.0,30.0,6.0,0.0
5503,65.0,0.0,30.0,7.0,0.0
5504,78.0,0.0,60.0,0.0,0.0
5505,66.0,0.0,60.0,1.0,0.0
5506,78.0,0.0,60.0,10.0,0.0
5507,66.0,30.0,60.0,7.0,0.0
5508,66.0,0.0,60.0,6.0,0.0
5509,70.0,0.0,60.0,1.0,0.0
5510,78.0,0.0,60.0,0.0,0.0
5511,78.0,0.0,60.0,10.0,0.0
5512,70.0,0.0,60.0,7.0,0.0
5513,70.0,0.0,60.0,6.0,0.0
5514,73.0,0.0,30.0,5.0,0.0
5515,73.0,30.0,30.0,4.0,0.0
5516,66.0,60.0,30.0,4.0,0.0
5517,66.0,0.0,30.0,5.0,0.0
5518,78.0,0.0,90.0,0.0,0.0
5519,54.0,0.0,60.0,1.0,0.0
5520,54.0,0.0,240.0,15.0,0.0
5521,78.0,30.0,90.0,10.0,0.0
5522,42.0,60.0,240.0,8.0,0.0
5523,78.0,0.0,60.0,5.0,0.0
5524,54.0,30.0,60.0,6.0,0.0
5525,78.0,0.0,60.0,4.0,0.0
5526,54.0,0.0,60.0,7.0,0.0
5527,62.0,0.0,30.0,7.0,0.0
5528,62.0,0.0,30.0,6.0,0.0
5529,62.0,0.0,30.0,1.0,0.0
5530,62.0,0.0,60.0,4.0,0.0
5531,54.0,0.0,60.0,13.0,0.0
5532,71.0,0.0,60.0,3.0,0.0
5533,79.0,0.0,240.0,15.0,0.0
5534,62.0,0.0,240.0,15.0,0.0
5535,71.0,0.0,240.0,15.0,0.0
5536,62.0,0.0,60.0,12.0,0.0
5537,54.0,0.0,60.0,3.0,0.0
5538,62.0,60.0,60.0,5.0,0.0
5539,71.0,0.0,60.0,0.0,0.0
5540,71.0,0.0,60.0,11.0,0.0
5541,62.0,0.0,60.0,3.0,0.0
5542,79.0,0.0,30.0,0.0,0.0
5543,61.0,0.0,30.0,1.0,0.0
5544,61.0,0.0,30.0,6.0,0.0
5545,61.0,0.0,30.0,7.0,0.0
5546,79.0,0.0,30.0,10.0,0.0
5547,71.0,0.0,60.0,3.0,0.0
5548,62.0,0.0,60.0,1.0,0.0
5549,62.0,0.0,60.0,6.0,0.0
5550,62.0,0.0,60.0,3.0,0.0
5551,71.0,0.0,60.0,11.0,0.0
5552,62.0,30.0,60.0,12.0,0.0
5553,71.0,0.0,60.0,0.0,0.0
5554,54.0,0.0,60.0,13.0,0.0
5555,62.0,0.0,60.0,7.0,0.0
5556,79.0,0.0,120.0,0.0,0.0
5557,79.0,0.0,120.0,10.0,0.0
5558,54.0,0.0,60.0,3.0,0.0
5559,62.0,0.0,60.0,12.0,0.0
5560,71.0,0.0,60.0,6.0,0.0
5561,71.0,0.0,60.0,7.0,0.0
5562,62.0,0.0,60.0,3.0,0.0
5563,71.0,0.0,60.0,3.0,0.0
5564,74.0,0.0,30.0,5.0,0.0
5565,54.0,0.0,60.0,13.0,0.0
5566,71.0,0.0,60.0,0.0,0.0
5567,71.0,0.0,60.0,11.0,0.0
5568,74.0,30.0,30.0,4.0,0.0
5569,71.0,0.0,60.0,1.0,0.0
5570,54.0,0.0,60.0,3.0,0.0
5571,71.0,0.0,30.0,5.0,0.0
5572,71.0,0.0,30.0,4.0,0.0
5573,71.0,0.0,90.0,3.0,0.0
5574,71.0,0.0,90.0,11.0,0.0
5575,54.0,0.0,90.0,3.0,0.0
5576,42.0,0.0,240.0,8.0,0.0
5577,71.0,0.0,90.0,0.0,0.0
5578,54.0,0.0,240.0,15.0,0.0
5579,62.0,0.0,90.0,3.0,0.0
5580,79.0,0.0,60.0,4.0,0.0
5581,62.0,0.0,90.0,12.0,0.0
5582,54.0,0.0,90.0,13.0,0.0
5583,54.0,30.0,60.0,7.0,0.0
5584,79.0,0.0,60.0,5.0,0.0
5585,54.0,0.0,60.0,6.0,0.0
5586,54.0,0.0,60.0,1.0,0.0
5587,64.0,0.0,30.0,1.0,0.0
5588,76.0,0.0,120.0,10.0,0.0
5589,64.0,30.0,30.0,6.0,0.0
5590,76.0,0.0,120.0,0.0,0.0
5591,67.0,60.0,60.0,4.0,0.0
5592,67.0,0.0,60.0,5.0,0.0
5593,67.0,0.0,240.0,15.0,0.0
5594,73.0,0.0,240.0,15.0,0.0
5595,64.0,0.0,240.0,15.0,0.0
5596,64.0,0.0,30.0,7.0,0.0
5597,54.0,0.0,30.0,13.0,0.0
5598,73.0,0.0,30.0,3.0,0.0
5599,54.0,0.0,30.0,3.0,0.0
5600,64.0,0.0,30.0,3.0,0.0
5601,62.0,0.0,30.0,6.0,0.0
5602,64.0,0.0,30.0,12.0,0.0
5603,73.0,0.0,30.0,0.0,0.0
5604,62.0,0.0,30.0,7.0,0.0
5605,62.0,0.0,30.0,1.0,0.0
5606,73.0,0.0,30.0,11.0,0.0
5607,64.0,0.0,120.0,12.0,0.0
5608,64.0,0.0,60.0,6.0,0.0
5609,64.0,30.0,60.0,7.0,0.0
5610,73.0,0.0,120.0,0.0,0.0
5611,73.0,0.0,120.0,11.0,0.0
5612,64.0,0.0,120.0,3.0,0.0
5613,54.0,0.0,120.0,3.0,0.0
5614,64.0,0.0,60.0,1.0,0.0
5615,73.0,0.0,120.0,3.0,0.0
5616,54.0,0.0,120.0,13.0,0.0
5617,76.0,0.0,60.0,0.0,0.0
5618,67.0,0.0,60.0,6.0,0.0
5619,67.0,0.0,60.0,7.0,0.0
5620,76.0,0.0,30.0,5.0,0.0
5621,67.0,0.0,60.0,1.0,0.0
5622,76.0,0.0,60.0,10.0,0.0
5623,76.0,30.0,30.0,4.0,0.0
5624,73.0,0.0,30.0,4.0,0.0
5625,73.0,60.0,30.0,5.0,0.0
5626,76.0,0.0,120.0,0.0,0.0
5627,54.0,0.0,240.0,15.0,0.0
5628,54.0,30.0,60.0,7.0,0.0
5629,85.0,0.0,60.0,5.0,0.0
5630,85.0,0.0,60.0,4.0,0.0
5631,54.0,0.0,60.0,1.0,0.0
5632,42.0,60.0,240.0,8.0,0.0
5633,76.0,0.0,120.0,10.0,0.0
5634,54.0,0.0,60.0,6.0,0.0
5635,54.0,0.0,120.0,3.0,0.0
5636,70.0,0.0,60.0,4.0,0.0
5637,70.0,0.0,240.0,15.0,0.0
5638,61.0,0.0,30.0,7.0,0.0
5639,61.0,0.0,120.0,12.0,0.0
5640,70.0,0.0,120.0,11.0,0.0
5641,61.0,0.0,30.0,1.0,0.0
5642,70.0,0.0,60.0,5.0,0.0
5643,70.0,0.0,120.0,0.0,0.0
5644,78.0,0.0,240.0,15.0,0.0
5645,54.0,0.0,120.0,13.0,0.0
5646,61.0,30.0,30.0,6.0,0.0
5647,61.0,0.0,120.0,3.0,0.0
5648,70.0,0.0,120.0,3.0,0.0
5649,61.0,30.0,240.0,15.0,0.0
5650,59.0,0.0,30.0,7.0,0.0
5651,59.0,0.0,30.0,1.0,0.0
5652,59.0,60.0,30.0,6.0,0.0
5653,61.0,0.0,60.0,6.0,0.0
5654,61.0,30.0,60.0,7.0,0.0
5655,78.0,0.0,120.0,10.0,0.0
5656,61.0,0.0,60.0,1.0,0.0
5657,78.0,0.0,120.0,0.0,0.0
5658,70.0,0.0,60.0,0.0,0.0
5659,61.0,0.0,60.0,3.0,0.0
5660,61.0,0.0,60.0,12.0,0.0
5661,70.0,0.0,60.0,3.0,0.0
5662,83.0,30.0,30.0,5.0,0.0
5663,70.0,0.0,60.0,1.0,0.0
5664,70.0,0.0,60.0,11.0,0.0
5665,70.0,0.0,60.0,7.0,0.0
5666,70.0,0.0,60.0,6.0,0.0
5667,54.0,0.0,60.0,3.0,0.0
5668,54.0,0.0,60.0,13.0,0.0
5669,83.0,0.0,30.0,4.0,0.0
5670,78.0,0.0,30.0,5.0,0.0
5671,78.0,0.0,30.0,4.0,0.0
5672,70.0,0.0,60.0,11.0,0.0
5673,70.0,0.0,60.0,3.0,0.0
5674,61.0,0.0,60.0,12.0,0.0
5675,54.0,0.0,60.0,1.0,0.0
5676,86.0,0.0,60.0,4.0,0.0
5677,54.0,0.0,240.0,15.0,0.0
5678,86.0,0.0,60.0,5.0,0.0
5679,61.0,0.0,60.0,3.0,0.0
5680,54.0,0.0,60.0,6.0,0.0
5681,54.0,0.0,60.0,7.0,0.0
5682,70.0,0.0,60.0,0.0,0.0
5683,42.0,0.0,240.0,8.0,0.0
5684,54.0,0.0,120.0,3.0,0.0
5685,54.0,0.0,120.0,13.0,0.0
5686,62.0,0.0,30.0,7.0,0.0
5687,71.0,0.0,60.0,11.0,0.0
5688,74.0,0.0,60.0,10.0,0.0
5689,62.0,30.0,30.0,6.0,0.0
5690,62.0,0.0,60.0,3.0,0.0
5691,71.0,0.0,60.0,5.0,0.0
5692,71.0,0.0,60.0,4.0,0.0
5693,62.0,0.0,30.0,1.0,0.0
5694,62.0,0.0,60.0,12.0,0.0
5695,71.0,0.0,60.0,0.0,0.0
5696,74.0,0.0,240.0,15.0,0.0
5697,74.0,0.0,60.0,0.0,0.0
5698,69.0,0.0,120.0,15.0,0.0
5699,71.0,0.0,60.0,3.0,0.0
5700,66.0,0.0,120.0,15.0,0.0
5701,61.0,60.0,30.0,6.0,0.0
5702,61.0,0.0,30.0,7.0,0.0
5703,61.0,0.0,30.0,1.0,0.0
5704,74.0,30.0,60.0,0.0,0.0
5705,71.0,0.0,120.0,11.0,0.0
5706,62.0,0.0,120.0,3.0,0.0
5707,62.0,0.0,60.0,7.0,0.0
5708,54.0,0.0,120.0,13.0,0.0
5709,54.0,0.0,120.0,3.0,0.0
5710,62.0,0.0,60.0,1.0,0.0
5711,62.0,60.0,120.0,12.0,0.0
5712,62.0,0.0,60.0,6.0,0.0
5713,74.0,0.0,60.0,10.0,0.0
5714,71.0,0.0,120.0,3.0,0.0
5715,71.0,0.0,120.0,0.0,0.0
5716,74.0,0.0,60.0,0.0,0.0
5717,74.0,30.0,30.0,4.0,0.0
5718,74.0,0.0,60.0,10.0,0.0
5719,66.0,0.0,60.0,7.0,0.0
5720,71.0,0.0,120.0,15.0,0.0
5721,66.0,0.0,60.0,6.0,0.0
5722,66.0,0.0,60.0,1.0,0.0
5723,74.0,0.0,30.0,5.0,0.0
5724,66.0,0.0,120.0,15.0,0.0
5725,71.0,0.0,30.0,5.0,0.0
5726,71.0,0.0,30.0,4.0,0.0
5727,54.0,0.0,60.0,1.0,0.0
5728,54.0,0.0,240.0,15.0,0.0
5729,54.0,30.0,60.0,6.0,0.0
5730,74.0,0.0,90.0,0.0,0.0
5731,54.0,0.0,60.0,7.0,0.0
5732,42.0,0.0,240.0,8.0,0.0
5733,74.0,30.0,90.0,10.0,0.0
5734,78.0,0.0,60.0,5.0,0.0
5735,78.0,0.0,60.0,4.0,0.0
5736,68.0,0.0,60.0,4.0,0.0
5737,59.0,0.0,30.0,6.0,0.0
5738,68.0,0.0,240.0,15.0,0.0
5739,71.0,30.0,240.0,15.0,0.0
5740,75.0,0.0,240.0,15.0,0.0
5741,54.0,0.0,60.0,13.0,0.0
5742,59.0,0.0,30.0,7.0,0.0
5743,54.0,0.0,60.0,3.0,0.0
5744,59.0,0.0,60.0,3.0,0.0
5745,68.0,0.0,60.0,3.0,0.0
5746,68.0,0.0,60.0,11.0,0.0
5747,59.0,0.0,30.0,1.0,0.0
5748,68.0,0.0,60.0,0.0,0.0
5749,68.0,0.0,60.0,5.0,0.0
5750,59.0,0.0,60.0,12.0,0.0
5751,76.0,0.0,30.0,0.0,0.0
5752,58.0,0.0,30.0,7.0,0.0
5753,58.0,0.0,30.0,1.0,0.0
5754,76.0,60.0,30.0,10.0,0.0
5755,58.0,0.0,30.0,6.0,0.0
5756,76.0,0.0,120.0,10.0,0.0
5757,54.0,0.0,60.0,3.0,0.0
5758,59.0,0.0,60.0,7.0,0.0
5759,59.0,0.0,60.0,3.0,0.0
5760,68.0,0.0,60.0,3.0,0.0
5761,68.0,0.0,60.0,11.0,0.0
5762,59.0,0.0,60.0,12.0,0.0
5763,76.0,0.0,120.0,0.0,0.0
5764,59.0,0.0,60.0,1.0,0.0
5765,68.0,0.0,60.0,0.0,0.0
5766,59.0,0.0,60.0,6.0,0.0
5767,54.0,30.0,60.0,13.0,0.0
5768,68.0,0.0,60.0,3.0,0.0
5769,68.0,0.0,60.0,0.0,0.0
5770,76.0,30.0,30.0,4.0,0.0
5771,68.0,0.0,60.0,6.0,0.0
5772,54.0,0.0,60.0,13.0,0.0
5773,68.0,0.0,60.0,7.0,0.0
5774,68.0,0.0,60.0,1.0,0.0
5775,68.0,0.0,60.0,11.0,0.0
5776,54.0,0.0,60.0,3.0,0.0
5777,59.0,0.0,60.0,3.0,0.0
5778,76.0,0.0,30.0,5.0,0.0
5779,59.0,0.0,60.0,12.0,0.0
5780,68.0,0.0,30.0,5.0,0.0
5781,68.0,60.0,30.0,4.0,0.0
5782,68.0,0.0,90.0,3.0,0.0
5783,59.0,0.0,90.0,12.0,0.0
5784,42.0,0.0,240.0,8.0,0.0
5785,59.0,0.0,90.0,3.0,0.0
5786,54.0,0.0,60.0,7.0,0.0
5787,76.0,0.0,60.0,5.0,0.0
5788,68.0,0.0,90.0,0.0,0.0
5789,76.0,0.0,60.0,4.0,0.0
5790,54.0,0.0,60.0,1.0,0.0
5791,54.0,30.0,90.0,3.0,0.0
5792,54.0,0.0,90.0,13.0,0.0
5793,68.0,0.0,90.0,11.0,0.0
5794,54.0,0.0,240.0,15.0,0.0
5795,54.0,0.0,60.0,6.0,0.0
5796,61.0,0.0,30.0,6.0,0.0
5797,73.0,0.0,120.0,0.0,0.0
5798,66.0,0.0,60.0,5.0,0.0
5799,73.0,0.0,120.0,10.0,0.0
5800,61.0,0.0,30.0,7.0,0.0
5801,66.0,0.0,60.0,4.0,0.0
5802,74.0,0.0,240.0,15.0,0.0
5803,66.0,0.0,240.0,15.0,0.0
5804,61.0,0.0,30.0,1.0,0.0
5805,70.0,0.0,240.0,15.0,0.0
5806,61.0,0.0,30.0,3.0,0.0
5807,59.0,60.0,30.0,1.0,0.0
5808,70.0,0.0,30.0,11.0,0.0
5809,54.0,0.0,30.0,3.0,0.0
5810,61.0,0.0,30.0,12.0,0.0
5811,70.0,0.0,30.0,0.0,0.0
5812,70.0,0.0,30.0,3.0,0.0
5813,54.0,0.0,30.0,13.0,0.0
5814,59.0,0.0,30.0,7.0,0.0
5815,59.0,0.0,30.0,6.0,0.0
5816,61.0,0.0,120.0,3.0,0.0
5817,54.0,60.0,120.0,13.0,0.0
5818,70.0,0.0,120.0,3.0,0.0
5819,61.0,0.0,120.0,12.0,0.0
5820,54.0,0.0,120.0,3.0,0.0
5821,70.0,0.0,120.0,11.0,0.0
5822,61.0,0.0,60.0,1.0,0.0
5823,70.0,0.0,120.0,0.0,0.0
5824,61.0,0.0,60.0,7.0,0.0
5825,61.0,30.0,60.0,6.0,0.0
5826,64.0,0.0,60.0,6.0,0.0
5827,73.0,0.0,60.0,10.0,0.0
5828,64.0,0.0,60.0,7.0,0.0
5829,78.0,0.0,30.0,5.0,0.0
5830,78.0,30.0,30.0,4.0,0.0
5831,64.0,0.0,60.0,1.0,0.0
5832,73.0,0.0,60.0,0.0,0.0
5833,73.0,0.0,30.0,5.0,0.0
5834,73.0,0.0,30.0,4.0,0.0
5835,73.0,0.0,60.0,4.0,0.0
5836,73.0,30.0,60.0,0.0,0.0
5837,73.0,0.0,60.0,5.0,0.0
5838,54.0,0.0,60.0,1.0,0.0
5839,54.0,0.0,60.0,6.0,0.0
5840,54.0,0.0,60.0,7.0,0.0
5841,42.0,0.0,240.0,8.0,0.0
5842,73.0,0.0,60.0,10.0,0.0
5843,54.0,0.0,240.0,15.0,0.0
5844,54.0,0.0,120.0,13.0,0.0
5845,62.0,0.0,120.0,12.0,0.0
5846,71.0,0.0,120.0,3.0,0.0
5847,62.0,0.0,180.0,15.0,0.0
5848,62.0,0.0,120.0,3.0,0.0
5849,71.0,0.0,180.0,15.0,0.0
5850,54.0,30.0,120.0,3.0,0.0
5851,74.0,60.0,60.0,10.0,0.0
5852,71.0,0.0,120.0,11.0,0.0
5853,59.0,0.0,30.0,6.0,0.0
5854,59.0,0.0,30.0,1.0,0.0
5855,74.0,0.0,60.0,5.0,0.0
5856,59.0,30.0,30.0,7.0,0.0
5857,74.0,0.0,60.0,4.0,0.0
5858,74.0,0.0,60.0,0.0,0.0
5859,71.0,0.0,120.0,0.0,0.0
5860,58.0,0.0,30.0,1.0,0.0
5861,58.0,0.0,30.0,6.0,0.0
5862,58.0,0.0,30.0,7.0,0.0
5863,59.0,0.0,60.0,1.0,0.0
5864,74.0,60.0,120.0,10.0,0.0
5865,59.0,0.0,60.0,7.0,0.0
5866,74.0,0.0,120.0,0.0,0.0
5867,59.0,0.0,60.0,6.0,0.0
5868,78.0,30.0,30.0,5.0,0.0
5869,71.0,0.0,60.0,11.0,0.0
5870,78.0,0.0,30.0,4.0,0.0
5871,71.0,0.0,60.0,0.0,0.0
5872,62.0,0.0,60.0,7.0,0.0
5873,62.0,0.0,60.0,3.0,0.0
5874,62.0,0.0,60.0,6.0,0.0
5875,62.0,0.0,60.0,12.0,0.0
5876,54.0,0.0,60.0,13.0,0.0
5877,71.0,0.0,60.0,3.0,0.0
5878,62.0,0.0,60.0,1.0,0.0
5879,54.0,0.0,60.0,3.0,0.0
5880,71.0,0.0,30.0,4.0,0.0
5881,71.0,0.0,30.0,5.0,0.0
5882,53.0,0.0,120.0,7.0,0.0
5883,41.0,0.0,120.0,8.0,0.0
5884,74.0,0.0,60.0,3.0,0.0
5885,59.0,0.0,60.0,3.0,0.0
5886,74.0,0.0,60.0,11.0,0.0
5887,53.0,0.0,120.0,1.0,0.0
5888,74.0,0.0,60.0,0.0,0.0
5889,83.0,0.0,60.0,5.0,0.0
5890,53.0,0.0,120.0,13.0,0.0
5891,53.0,0.0,120.0,3.0,0.0
5892,56.0,0.0,120.0,6.0,0.0
5893,74.0,0.0,120.0,15.0,0.0
5894,71.0,0.0,120.0,15.0,0.0
5895,68.0,0.0,120.0,15.0,0.0
5896,83.0,60.0,60.0,4.0,0.0
5897,59.0,0.0,60.0,12.0,0.0
5898,53.0,0.0,120.0,15.0,0.0
5899,71.0,0.0,60.0,11.0,0.0
5900,71.0,0.0,60.0,0.0,0.0
5901,71.0,120.0,60.0,3.0,0.0
5902,62.0,0.0,60.0,12.0,0.0
5903,62.0,0.0,60.0,3.0,0.0
5904,71.0,0.0,60.0,5.0,0.0
5905,71.0,0.0,60.0,4.0,0.0
5906,80.0,0.0,120.0,4.0,0.0
5907,53.0,0.0,120.0,3.0,0.0
5908,80.0,0.0,120.0,10.0,0.0
5909,62.0,0.0,120.0,12.0,0.0
5910,53.0,0.0,120.0,13.0,0.0
5911,71.0,0.0,120.0,0.0,0.0
5912,80.0,0.0,120.0,0.0,0.0
5913,62.0,0.0,120.0,3.0,0.0
5914,71.0,0.0,120.0,3.0,0.0
5915,71.0,180.0,120.0,11.0,0.0
5916,71.0,0.0,240.0,0.0,0.0
5917,71.0,0.0,240.0,10.0,0.0
5918,71.0,0.0,240.0,4.0,0.0
5919,68.0,0.0,120.0,11.0,0.0
5920,62.0,0.0,120.0,12.0,0.0
5921,74.0,0.0,120.0,15.0,0.0
5922,52.0,0.0,60.0,7.0,0.0
5923,62.0,0.0,120.0,3.0,0.0
5924,52.0,60.0,60.0,15.0,0.0
5925,40.0,0.0,60.0,8.0,0.0
5926,68.0,0.0,120.0,15.0,0.0
5927,53.0,0.0,120.0,3.0,0.0
5928,62.0,0.0,120.0,6.0,0.0
5929,62.0,0.0,120.0,1.0,0.0
5930,68.0,0.0,120.0,0.0,0.0
5931,68.0,0.0,120.0,5.0,0.0
5932,53.0,0.0,120.0,1.0,0.0
5933,68.0,0.0,120.0,3.0,0.0
5934,53.0,0.0,120.0,13.0,0.0
5935,71.0,0.0,120.0,15.0,0.0
5936,52.0,0.0,60.0,15.0,0.0
5937,52.0,60.0,60.0,7.0,0.0
5938,40.0,0.0,60.0,8.0,0.0
5939,66.0,0.0,120.0,0.0,0.0
5940,66.0,0.0,120.0,15.0,0.0
5941,54.0,0.0,120.0,1.0,0.0
5942,61.0,0.0,120.0,1.0,0.0
5943,61.0,0.0,120.0,3.0,0.0
5944,66.0,0.0,120.0,11.0,0.0
5945,66.0,60.0,120.0,5.0,0.0
5946,70.0,0.0,120.0,4.0,0.0
5947,61.0,0.0,120.0,15.0,0.0
5948,54.0,0.0,60.0,7.0,0.0
5949,61.0,0.0,120.0,6.0,0.0
5950,70.0,0.0,120.0,15.0,0.0
5951,70.0,0.0,120.0,10.0,0.0
5952,70.0,0.0,120.0,0.0,0.0
5953,42.0,0.0,60.0,8.0,0.0
5954,54.0,60.0,60.0,15.0,0.0
5955,54.0,0.0,120.0,3.0,0.0
5956,54.0,0.0,120.0,13.0,0.0
5957,61.0,0.0,120.0,12.0,0.0
5958,66.0,0.0,120.0,3.0,0.0
5959,54.0,0.0,60.0,7.0,0.0
5960,42.0,0.0,60.0,8.0,0.0
5961,54.0,0.0,60.0,15.0,0.0
5962,71.0,0.0,60.0,10.0,0.0
5963,65.0,0.0,120.0,3.0,0.0
5964,71.0,0.0,120.0,15.0,0.0
5965,55.0,0.0,60.0,15.0,0.0
5966,55.0,0.0,60.0,13.0,0.0
5967,43.0,0.0,60.0,8.0,0.0
5968,65.0,0.0,120.0,0.0,0.0
5969,71.0,60.0,240.0,0.0,0.0
5970,74.0,0.0,120.0,15.0,0.0
5971,65.0,0.0,120.0,15.0,0.0
5972,55.0,60.0,120.0,3.0,0.0
5973,71.0,0.0,240.0,4.0,0.0
5974,65.0,0.0,120.0,5.0,0.0
5975,59.0,0.0,120.0,3.0,0.0
5976,55.0,0.0,60.0,7.0,0.0
5977,65.0,0.0,60.0,11.0,0.0
5978,55.0,0.0,120.0,1.0,0.0
5979,59.0,0.0,120.0,1.0,0.0
5980,59.0,60.0,60.0,12.0,0.0
5981,59.0,0.0,120.0,6.0,0.0
5982,71.0,0.0,60.0,10.0,0.0
5983,65.0,0.0,60.0,11.0,0.0
5984,55.0,0.0,60.0,15.0,0.0
5985,59.0,0.0,60.0,12.0,0.0
5986,55.0,0.0,60.0,13.0,0.0
5987,55.0,0.0,60.0,7.0,0.0
5988,43.0,0.0,60.0,8.0,0.0
5989,59.0,0.0,240.0,3.0,0.0
5990,66.0,0.0,240.0,0.0,0.0
5991,61.0,0.0,240.0,1.0,0.0
5992,66.0,0.0,240.0,5.0,0.0
5993,54.0,0.0,240.0,13.0,0.0
5994,61.0,0.0,240.0,12.0,0.0
5995,54.0,0.0,240.0,1.0,0.0
5996,54.0,0.0,60.0,15.0,0.0
5997,42.0,0.0,60.0,8.0,0.0
5998,61.0,0.0,240.0,15.0,0.0
5999,66.0,0.0,120.0,15.0,0.0
6000,54.0,0.0,240.0,3.0,0.0
6001,71.0,0.0,120.0,10.0,0.0
6002,66.0,0.0,240.0,3.0,0.0
6003,66.0,0.0,240.0,11.0,0.0
6004,54.0,60.0,60.0,7.0,0.0
6005,71.0,0.0,120.0,15.0,0.0
6006,61.0,0.0,240.0,6.0,0.0
6007,54.0,0.0,60.0,7.0,0.0
6008,54.0,0.0,60.0,15.0,0.0
6009,42.0,0.0,60.0,8.0,0.0
6010,70.0,0.0,120.0,10.0,0.0
6011,54.0,0.0,60.0,15.0,0.0
6012,70.0,0.0,120.0,15.0,0.0
6013,54.0,0.0,60.0,7.0,0.0
6014,70.0,0.0,120.0,0.0,0.0
6015,42.0,60.0,60.0,8.0,0.0
6016,70.0,0.0,120.0,4.0,0.0
6017,54.0,0.0,60.0,15.0,0.0
6018,54.0,60.0,60.0,7.0,0.0
6019,42.0,0.0,60.0,8.0,0.0
6020,71.0,0.0,120.0,0.0,0.0
6021,47.0,0.0,120.0,1.0,0.0
6022,59.0,0.0,120.0,1.0,0.0
6023,59.0,0.0,120.0,6.0,0.0
6024,35.0,0.0,120.0,8.0,0.0
6025,47.0,0.0,120.0,7.0,0.0
6026,47.0,60.0,120.0,15.0,0.0
6027,66.0,0.0,120.0,15.0,0.0
6028,62.0,0.0,120.0,12.0,0.0
6029,47.0,0.0,120.0,3.0,0.0
6030,66.0,0.0,120.0,0.0,0.0
6031,71.0,0.0,120.0,15.0,0.0
6032,66.0,0.0,120.0,11.0,0.0
6033,71.0,0.0,120.0,10.0,0.0
6034,62.0,0.0,120.0,3.0,0.0
6035,47.0,0.0,120.0,13.0,0.0
6036,62.0,0.0,120.0,15.0,0.0
6037,71.0,0.0,60.0,4.0,0.0
6038,62.0,30.0,60.0,5.0,0.0
6039,66.0,0.0,120.0,3.0,0.0
6040,74.0,30.0,30.0,4.0,0.0
6041,71.0,0.0,30.0,5.0,0.0
6042,70.0,0.0,30.0,5.0,0.0
6043,73.0,0.0,30.0,4.0,0.0
6044,74.0,30.0,60.0,4.0,0.0
6045,78.0,0.0,120.0,10.0,0.0
6046,71.0,0.0,60.0,5.0,0.0
6047,66.0,0.0,30.0,6.0,0.0
6048,78.0,0.0,60.0,4.0,0.0
6049,62.0,0.0,30.0,7.0,0.0
6050,62.0,30.0,30.0,15.0,0.0
6051,78.0,0.0,60.0,15.0,0.0
6052,71.0,60.0,60.0,15.0,0.0
6053,50.0,0.0,30.0,8.0,0.0
6054,74.0,0.0,60.0,5.0,0.0
6055,62.0,0.0,30.0,6.0,0.0
6056,59.0,0.0,30.0,15.0,0.0
6057,47.0,0.0,30.0,8.0,0.0
6058,59.0,0.0,30.0,7.0,0.0
6059,64.0,30.0,60.0,5.0,0.0
6060,55.0,0.0,240.0,13.0,0.0
6061,59.0,0.0,60.0,6.0,0.0
6062,55.0,0.0,60.0,7.0,0.0
6063,43.0,0.0,60.0,8.0,0.0
6064,55.0,0.0,60.0,15.0,0.0
6065,67.0,0.0,60.0,4.0,0.0
6066,83.0,0.0,360.0,10.0,0.0
6067,67.0,0.0,240.0,15.0,0.0
6068,83.0,0.0,240.0,15.0,0.0
6069,64.0,0.0,240.0,15.0,0.0
6070,71.0,0.0,60.0,6.0,0.0
6071,67.0,0.0,60.0,7.0,0.0
6072,55.0,0.0,60.0,8.0,0.0
6073,79.0,0.0,30.0,4.0,0.0
6074,76.0,30.0,30.0,5.0,0.0
6075,78.0,0.0,30.0,4.0,0.0
6076,75.0,60.0,30.0,5.0,0.0
6077,76.0,0.0,60.0,5.0,0.0
6078,79.0,30.0,60.0,4.0,0.0
6079,74.0,0.0,120.0,11.0,0.0
6080,55.0,30.0,30.0,15.0,0.0
6081,83.0,0.0,60.0,4.0,0.0
6082,55.0,0.0,30.0,7.0,0.0
6083,79.0,0.0,60.0,5.0,0.0
6084,71.0,0.0,30.0,6.0,0.0
6085,43.0,0.0,30.0,8.0,0.0
6086,52.0,0.0,30.0,7.0,0.0
6087,40.0,0.0,30.0,8.0,0.0
6088,52.0,0.0,30.0,15.0,0.0
6089,67.0,60.0,30.0,6.0,0.0
6090,61.0,0.0,60.0,6.0,0.0
6091,61.0,30.0,60.0,5.0,0.0
6092,57.0,0.0,240.0,13.0,0.0
6093,45.0,0.0,60.0,15.0,0.0
6094,73.0,0.0,240.0,15.0,0.0
6095,45.0,0.0,60.0,7.0,0.0
6096,64.0,0.0,60.0,4.0,0.0
6097,64.0,0.0,240.0,15.0,0.0
6098,33.0,0.0,60.0,8.0,0.0
6099,73.0,0.0,360.0,11.0,0.0
6100,57.0,0.0,60.0,15.0,0.0
6101,73.0,0.0,60.0,6.0,0.0
6102,73.0,0.0,30.0,4.0,0.0
6103,57.0,60.0,60.0,7.0,0.0
6104,45.0,0.0,60.0,8.0,0.0
6105,69.0,30.0,30.0,5.0,0.0
6106,68.0,0.0,30.0,5.0,0.0
6107,71.0,0.0,30.0,4.0,0.0
6108,69.0,0.0,60.0,5.0,0.0
6109,76.0,30.0,60.0,10.0,0.0
6110,73.0,0.0,60.0,4.0,0.0
6111,64.0,60.0,120.0,12.0,0.0
6112,73.0,0.0,60.0,5.0,0.0
6113,49.0,0.0,30.0,8.0,0.0
6114,76.0,0.0,60.0,4.0,0.0
6115,64.0,0.0,30.0,6.0,0.0
6116,76.0,0.0,60.0,10.0,0.0
6117,61.0,30.0,30.0,7.0,0.0
6118,61.0,0.0,30.0,15.0,0.0
6119,57.0,0.0,30.0,15.0,0.0
6120,57.0,0.0,30.0,7.0,0.0
6121,61.0,0.0,30.0,6.0,0.0
6122,45.0,0.0,30.0,8.0,0.0
6123,54.0,0.0,60.0,15.0,0.0
6124,81.0,30.0,300.0,10.0,0.0
6125,57.0,30.0,60.0,6.0,0.0
6126,62.0,0.0,60.0,5.0,0.0
6127,66.0,0.0,60.0,4.0,0.0
6128,42.0,0.0,60.0,8.0,0.0
6129,66.0,0.0,240.0,15.0,0.0
6130,54.0,0.0,240.0,13.0,0.0
6131,54.0,0.0,60.0,7.0,0.0
6132,74.0,0.0,240.0,15.0,0.0
6133,81.0,0.0,240.0,15.0,0.0
6134,62.0,0.0,360.0,12.0,0.0
6135,66.0,0.0,60.0,7.0,0.0
6136,69.0,0.0,30.0,5.0,0.0
6137,78.0,30.0,30.0,4.0,0.0
6138,54.0,0.0,60.0,8.0,0.0
6139,74.0,60.0,60.0,6.0,0.0
6140,67.0,0.0,30.0,5.0,0.0
6141,76.0,0.0,30.0,4.0,0.0
6142,74.0,0.0,60.0,11.0,0.0
6143,78.0,0.0,60.0,4.0,0.0
6144,69.0,30.0,60.0,5.0,0.0
6145,81.0,0.0,60.0,4.0,0.0
6146,73.0,0.0,60.0,5.0,0.0
6147,73.0,0.0,60.0,11.0,0.0
6148,66.0,0.0,30.0,6.0,0.0
6149,38.0,0.0,30.0,8.0,0.0
6150,50.0,0.0,30.0,15.0,0.0
6151,50.0,30.0,30.0,7.0,0.0
6152,47.0,0.0,30.0,7.0,0.0
6153,62.0,0.0,30.0,6.0,0.0
6154,35.0,60.0,30.0,8.0,0.0
6155,47.0,0.0,30.0,15.0,0.0
6156,43.0,0.0,60.0,7.0,0.0
6157,31.0,0.0,60.0,8.0,0.0
6158,43.0,0.0,60.0,15.0,0.0
6159,71.0,0.0,240.0,15.0,0.0
6160,55.0,60.0,240.0,13.0,0.0
6161,62.0,0.0,240.0,15.0,0.0
6162,79.0,0.0,240.0,15.0,0.0
6163,71.0,0.0,300.0,11.0,0.0
6164,59.0,0.0,60.0,5.0,0.0
6165,59.0,0.0,60.0,6.0,0.0
6166,62.0,0.0,60.0,4.0,0.0
6167,74.0,0.0,60.0,10.0,0.0
6168,67.0,0.0,30.0,5.0,0.0
6169,71.0,30.0,30.0,4.0,0.0
6170,55.0,0.0,60.0,15.0,0.0
6171,62.0,0.0,60.0,6.0,0.0
6172,55.0,60.0,60.0,7.0,0.0
6173,43.0,0.0,60.0,8.0,0.0
6174,70.0,0.0,30.0,4.0,0.0
6175,66.0,0.0,30.0,5.0,0.0
6176,67.0,0.0,60.0,5.0,0.0
6177,71.0,0.0,60.0,4.0,0.0
6178,64.0,30.0,60.0,12.0,0.0
6179,79.0,0.0,60.0,10.0,0.0
6180,43.0,0.0,30.0,8.0,0.0
6181,71.0,0.0,60.0,5.0,0.0
6182,55.0,30.0,30.0,15.0,0.0
6183,66.0,0.0,60.0,12.0,0.0
6184,78.0,0.0,60.0,10.0,0.0
6185,74.0,0.0,60.0,4.0,0.0
6186,71.0,0.0,30.0,6.0,0.0
6187,55.0,0.0,30.0,7.0,0.0
6188,40.0,0.0,30.0,8.0,0.0
6189,67.0,0.0,30.0,6.0,0.0
6190,52.0,0.0,30.0,15.0,0.0
6191,52.0,0.0,30.0,7.0,0.0
6192,49.0,30.0,60.0,15.0,0.0
6193,76.0,0.0,120.0,15.0,0.0
6194,67.0,0.0,120.0,15.0,0.0
6195,71.0,0.0,120.0,15.0,0.0
6196,64.0,0.0,60.0,4.0,0.0
6197,49.0,0.0,120.0,13.0,0.0
6198,61.0,0.0,60.0,5.0,0.0
6199,49.0,0.0,60.0,7.0,0.0
6200,67.0,0.0,60.0,12.0,0.0
6201,76.0,0.0,60.0,10.0,0.0
6202,64.0,0.0,60.0,6.0,0.0
6203,37.0,0.0,60.0,8.0,0.0
6204,61.0,0.0,60.0,15.0,0.0
6205,74.0,0.0,60.0,10.0,0.0
6206,76.0,0.0,60.0,6.0,0.0
6207,61.0,0.0,60.0,7.0,0.0
6208,49.0,60.0,60.0,8.0,0.0
6209,71.0,30.0,30.0,5.0,0.0
6210,79.0,0.0,30.0,4.0,0.0
6211,69.0,0.0,60.0,11.0,0.0
6212,66.0,0.0,60.0,12.0,0.0
6213,78.0,0.0,30.0,4.0,0.0
6214,69.0,0.0,30.0,5.0,0.0
6215,76.0,0.0,60.0,4.0,0.0
6216,67.0,0.0,60.0,11.0,0.0
6217,50.0,0.0,60.0,13.0,0.0
6218,67.0,60.0,120.0,15.0,0.0
6219,67.0,30.0,60.0,5.0,0.0
6220,64.0,0.0,60.0,12.0,0.0
6221,73.0,0.0,60.0,10.0,0.0
6222,73.0,0.0,60.0,15.0,0.0
6223,71.0,0.0,60.0,10.0,0.0
6224,52.0,0.0,60.0,13.0,0.0
6225,62.0,0.0,60.0,12.0,0.0
6226,71.0,0.0,60.0,15.0,0.0
6227,52.0,0.0,30.0,15.0,0.0
6228,52.0,30.0,30.0,7.0,0.0
6229,67.0,0.0,30.0,6.0,0.0
6230,79.0,0.0,60.0,5.0,0.0
6231,40.0,0.0,30.0,8.0,0.0
6232,83.0,0.0,60.0,4.0,0.0
6233,67.0,0.0,60.0,11.0,0.0
6234,37.0,0.0,30.0,8.0,0.0
6235,49.0,0.0,30.0,15.0,0.0
6236,64.0,0.0,30.0,6.0,0.0
6237,49.0,0.0,30.0,7.0,0.0
6238,54.0,0.0,60.0,13.0,0.0
6239,61.0,60.0,60.0,5.0,0.0
6240,66.0,0.0,120.0,11.0,0.0
6241,54.0,0.0,60.0,7.0,0.0
6242,42.0,0.0,60.0,8.0,0.0
6243,61.0,0.0,120.0,12.0,0.0
6244,70.0,0.0,60.0,4.0,0.0
6245,70.0,0.0,120.0,10.0,0.0
6246,70.0,0.0,120.0,15.0,0.0
6247,61.0,60.0,120.0,15.0,0.0
6248,66.0,0.0,120.0,15.0,0.0
6249,61.0,0.0,60.0,6.0,0.0
6250,54.0,0.0,60.0,15.0,0.0
6251,66.0,0.0,60.0,6.0,0.0
6252,85.0,0.0,60.0,4.0,0.0
6253,52.0,0.0,60.0,13.0,0.0
6254,40.0,0.0,60.0,8.0,0.0
6255,52.0,0.0,60.0,7.0,0.0
6256,52.0,0.0,60.0,15.0,0.0
6257,82.0,0.0,60.0,5.0,0.0
6258,86.0,0.0,60.0,4.0,0.0
6259,83.0,30.0,60.0,5.0,0.0
6260,50.0,0.0,60.0,15.0,0.0
6261,71.0,0.0,60.0,15.0,0.0
6262,66.0,0.0,60.0,15.0,0.0
6263,38.0,0.0,60.0,8.0,0.0
6264,59.0,0.0,60.0,12.0,0.0
6265,50.0,0.0,60.0,7.0,0.0
6266,66.0,0.0,60.0,6.0,0.0
6267,71.0,0.0,60.0,10.0,0.0
6268,66.0,0.0,60.0,11.0,0.0
6269,50.0,0.0,60.0,13.0,0.0
6270,71.0,0.0,60.0,15.0,0.0
6271,73.0,0.0,60.0,10.0,0.0
6272,52.0,0.0,60.0,7.0,0.0
6273,52.0,0.0,60.0,13.0,0.0
6274,52.0,60.0,60.0,15.0,0.0
6275,67.0,0.0,60.0,15.0,0.0
6276,79.0,30.0,30.0,4.0,0.0
6277,67.0,0.0,60.0,12.0,0.0
6278,73.0,0.0,60.0,15.0,0.0
6279,40.0,0.0,60.0,8.0,0.0
6280,71.0,0.0,60.0,11.0,0.0
6281,76.0,0.0,30.0,5.0,0.0
6282,67.0,0.0,60.0,6.0,0.0
6283,76.0,0.0,30.0,4.0,0.0
6284,73.0,0.0,30.0,5.0,0.0
6285,66.0,0.0,60.0,6.0,0.0
6286,74.0,0.0,120.0,10.0,0.0
6287,42.0,0.0,120.0,8.0,0.0
6288,54.0,0.0,240.0,13.0,0.0
6289,71.0,60.0,120.0,11.0,0.0
6290,54.0,0.0,120.0,15.0,0.0
6291,71.0,0.0,120.0,15.0,0.0
6292,71.0,0.0,60.0,5.0,0.0
6293,66.0,0.0,120.0,15.0,0.0
6294,74.0,0.0,120.0,15.0,0.0
6295,74.0,60.0,60.0,4.0,0.0
6296,54.0,0.0,120.0,7.0,0.0
6297,66.0,0.0,120.0,12.0,0.0
6298,66.0,0.0,60.0,6.0,0.0
6299,83.0,0.0,60.0,5.0,0.0
6300,83.0,0.0,60.0,4.0,0.0
6301,64.0,0.0,60.0,6.0,0.0
6302,70.0,0.0,120.0,15.0,0.0
6303,73.0,0.0,120.0,15.0,0.0
6304,64.0,0.0,120.0,15.0,0.0
6305,54.0,0.0,120.0,15.0,0.0
6306,54.0,0.0,120.0,7.0,0.0
6307,70.0,0.0,120.0,11.0,0.0
6308,42.0,60.0,120.0,8.0,0.0
6309,73.0,60.0,60.0,4.0,0.0
6310,69.0,0.0,60.0,5.0,0.0
6311,73.0,0.0,120.0,10.0,0.0
6312,64.0,0.0,120.0,12.0,0.0
6313,82.0,0.0,60.0,5.0,0.0
6314,64.0,0.0,60.0,6.0,0.0
6315,82.0,0.0,60.0,4.0,0.0
6316,62.0,0.0,60.0,6.0,0.0
6317,47.0,30.0,60.0,1.0,0.0
6318,71.0,0.0,120.0,10.0,0.0
6319,71.0,0.0,120.0,11.0,0.0
6320,47.0,0.0,60.0,13.0,0.0
6321,47.0,0.0,60.0,15.0,0.0
6322,47.0,0.0,60.0,7.0,0.0
6323,62.0,0.0,120.0,12.0,0.0
6324,71.0,60.0,120.0,5.0,0.0
6325,66.0,0.0,60.0,15.0,0.0
6326,71.0,0.0,60.0,15.0,0.0
6327,62.0,0.0,60.0,15.0,0.0
6328,35.0,0.0,60.0,8.0,0.0
6329,71.0,0.0,120.0,4.0,0.0
6330,62.0,0.0,30.0,6.0,0.0
6331,59.0,0.0,30.0,7.0,0.0
6332,59.0,0.0,60.0,13.0,0.0
6333,59.0,0.0,60.0,3.0,0.0
6334,47.0,0.0,30.0,8.0,0.0
6335,71.0,0.0,60.0,15.0,0.0
6336,66.0,0.0,60.0,15.0,0.0
6337,62.0,0.0,60.0,15.0,0.0
6338,59.0,30.0,30.0,15.0,0.0
6339,59.0,0.0,30.0,1.0,0.0
6340,58.0,0.0,30.0,1.0,0.0
6341,61.0,0.0,30.0,6.0,0.0
6342,46.0,0.0,30.0,8.0,0.0
6343,58.0,0.0,30.0,15.0,0.0
6344,58.0,0.0,30.0,7.0,0.0
6345,59.0,0.0,60.0,7.0,0.0
6346,74.0,0.0,120.0,15.0,0.0
6347,59.0,0.0,60.0,1.0,0.0
6348,62.0,0.0,60.0,6.0,0.0
6349,59.0,0.0,60.0,15.0,0.0
6350,62.0,30.0,60.0,3.0,0.0
6351,66.0,0.0,120.0,15.0,0.0
6352,47.0,0.0,60.0,8.0,0.0
6353,62.0,0.0,60.0,13.0,0.0
6354,86.0,30.0,30.0,4.0,0.0
6355,66.0,0.0,60.0,6.0,0.0
6356,62.0,0.0,60.0,1.0,0.0
6357,59.0,0.0,60.0,3.0,0.0
6358,62.0,0.0,60.0,7.0,0.0
6359,50.0,0.0,60.0,8.0,0.0
6360,86.0,0.0,30.0,5.0,0.0
6361,59.0,60.0,60.0,13.0,0.0
6362,62.0,0.0,60.0,15.0,0.0
6363,83.0,0.0,30.0,5.0,0.0
6364,83.0,0.0,30.0,4.0,0.0
6365,47.0,0.0,60.0,1.0,0.0
6366,91.0,30.0,60.0,5.0,0.0
6367,59.0,0.0,60.0,6.0,0.0
6368,71.0,60.0,120.0,15.0,0.0
6369,47.0,0.0,60.0,7.0,0.0
6370,62.0,0.0,120.0,15.0,0.0
6371,47.0,0.0,60.0,15.0,0.0
6372,67.0,0.0,90.0,3.0,0.0
6373,67.0,0.0,90.0,13.0,0.0
6374,35.0,0.0,60.0,8.0,0.0
6375,91.0,0.0,60.0,4.0,0.0
6376,79.0,0.0,120.0,15.0,0.0
6377,59.0,0.0,30.0,15.0,0.0
6378,62.0,0.0,30.0,6.0,0.0
6379,59.0,0.0,30.0,1.0,0.0
6380,71.0,0.0,60.0,11.0,0.0
6381,62.0,0.0,60.0,12.0,0.0
6382,79.0,0.0,60.0,10.0,0.0
6383,71.0,0.0,60.0,3.0,0.0
6384,79.0,0.0,60.0,4.0,0.0
6385,47.0,30.0,30.0,8.0,0.0
6386,59.0,0.0,30.0,7.0,0.0
6387,71.0,0.0,60.0,0.0,0.0
6388,79.0,0.0,60.0,0.0,0.0
6389,62.0,0.0,60.0,3.0,0.0
6390,79.0,0.0,60.0,5.0,0.0
6391,59.0,0.0,30.0,13.0,0.0
6392,57.0,0.0,30.0,1.0,0.0
6393,57.0,0.0,30.0,15.0,0.0
6394,45.0,0.0,30.0,8.0,0.0
6395,61.0,0.0,30.0,6.0,0.0
6396,57.0,0.0,30.0,7.0,0.0
6397,59.0,0.0,30.0,3.0,0.0
6398,62.0,0.0,60.0,6.0,0.0
6399,74.0,0.0,60.0,0.0,0.0
6400,83.0,0.0,60.0,0.0,0.0
6401,59.0,0.0,60.0,1.0,0.0
6402,83.0,0.0,60.0,10.0,0.0
6403,59.0,0.0,60.0,12.0,0.0
6404,59.0,0.0,60.0,15.0,0.0
6405,59.0,0.0,120.0,13.0,0.0
6406,74.0,0.0,60.0,11.0,0.0
6407,74.0,30.0,60.0,3.0,0.0
6408,59.0,0.0,60.0,3.0,0.0
6409,47.0,0.0,60.0,8.0,0.0
6410,59.0,0.0,60.0,7.0,0.0
6411,83.0,0.0,60.0,15.0,0.0
6412,71.0,0.0,60.0,15.0,0.0
6413,74.0,0.0,60.0,15.0,0.0
6414,71.0,0.0,60.0,0.0,0.0
6415,67.0,0.0,60.0,15.0,0.0
6416,74.0,0.0,60.0,15.0,0.0
6417,67.0,0.0,60.0,1.0,0.0
6418,62.0,0.0,60.0,3.0,0.0
6419,71.0,0.0,60.0,11.0,0.0
6420,79.0,60.0,60.0,0.0,0.0
6421,71.0,0.0,60.0,15.0,0.0
6422,79.0,0.0,60.0,15.0,0.0
6423,71.0,0.0,60.0,6.0,0.0
6424,55.0,0.0,60.0,8.0,0.0
6425,67.0,0.0,60.0,7.0,0.0
6426,71.0,0.0,60.0,3.0,0.0
6427,62.0,0.0,60.0,12.0,0.0
6428,83.0,30.0,30.0,5.0,0.0
6429,79.0,0.0,60.0,10.0,0.0
6430,83.0,0.0,30.0,4.0,0.0
6431,79.0,0.0,30.0,5.0,0.0
6432,79.0,0.0,30.0,4.0,0.0
6433,61.0,0.0,60.0,6.0,0.0
6434,46.0,30.0,60.0,1.0,0.0
6435,34.0,0.0,60.0,8.0,0.0
6436,85.0,0.0,60.0,5.0,0.0
6437,73.0,0.0,90.0,3.0,0.0
6438,61.0,0.0,90.0,3.0,0.0
6439,46.0,0.0,60.0,15.0,0.0
6440,73.0,0.0,90.0,0.0,0.0
6441,73.0,0.0,90.0,11.0,0.0
6442,61.0,0.0,90.0,12.0,0.0
6443,85.0,0.0,90.0,10.0,0.0
6444,46.0,0.0,60.0,7.0,0.0
6445,85.0,0.0,60.0,4.0,0.0
6446,79.0,0.0,90.0,0.0,0.0
6447,58.0,0.0,30.0,15.0,0.0
6448,73.0,0.0,60.0,5.0,0.0
6449,58.0,0.0,60.0,13.0,0.0
6450,58.0,0.0,30.0,1.0,0.0
6451,46.0,0.0,30.0,8.0,0.0
6452,66.0,0.0,30.0,6.0,0.0
6453,58.0,0.0,60.0,3.0,0.0
6454,73.0,0.0,60.0,4.0,0.0
6455,58.0,30.0,30.0,7.0,0.0
6456,78.0,0.0,30.0,10.0,0.0
6457,73.0,0.0,30.0,3.0,0.0
6458,56.0,0.0,30.0,15.0,0.0
6459,66.0,0.0,30.0,12.0,0.0
6460,66.0,0.0,30.0,3.0,0.0
6461,56.0,0.0,30.0,1.0,0.0
6462,65.0,0.0,30.0,6.0,0.0
6463,56.0,0.0,30.0,7.0,0.0
6464,73.0,0.0,30.0,11.0,0.0
6465,44.0,60.0,30.0,8.0,0.0
6466,78.0,0.0,30.0,0.0,0.0
6467,73.0,0.0,30.0,0.0,0.0
6468,73.0,0.0,120.0,0.0,0.0
6469,58.0,0.0,60.0,15.0,0.0
6470,58.0,0.0,60.0,1.0,0.0
6471,66.0,30.0,60.0,6.0,0.0
6472,61.0,0.0,60.0,3.0,0.0
6473,66.0,60.0,120.0,3.0,0.0
6474,46.0,0.0,60.0,8.0,0.0
6475,61.0,0.0,60.0,13.0,0.0
6476,73.0,0.0,120.0,3.0,0.0
6477,73.0,0.0,120.0,11.0,0.0
6478,66.0,0.0,120.0,12.0,0.0
6479,58.0,0.0,60.0,7.0,0.0
6480,78.0,0.0,120.0,10.0,0.0
6481,78.0,0.0,120.0,0.0,0.0
6482,70.0,0.0,60.0,6.0,0.0
6483,61.0,0.0,60.0,1.0,0.0
6484,85.0,30.0,30.0,5.0,0.0
6485,58.0,0.0,60.0,3.0,0.0
6486,58.0,0.0,60.0,13.0,0.0
6487,49.0,0.0,60.0,8.0,0.0
6488,61.0,0.0,60.0,15.0,0.0
6489,85.0,0.0,30.0,4.0,0.0
6490,61.0,0.0,60.0,7.0,0.0
6491,82.0,0.0,30.0,5.0,0.0
6492,82.0,0.0,30.0,4.0,0.0
6493,66.0,0.0,120.0,3.0,0.0
6494,90.0,0.0,60.0,4.0,0.0
6495,45.0,0.0,60.0,1.0,0.0
6496,90.0,0.0,60.0,5.0,0.0
6497,33.0,0.0,60.0,8.0,0.0
6498,73.0,0.0,60.0,6.0,0.0
6499,45.0,0.0,60.0,7.0,0.0
6500,45.0,30.0,60.0,15.0,0.0
6501,66.0,0.0,120.0,13.0,0.0
6502,61.0,0.0,60.0,12.0,0.0
6503,57.0,0.0,30.0,15.0,0.0
6504,61.0,0.0,60.0,3.0,0.0
6505,66.0,0.0,30.0,6.0,0.0
6506,69.0,0.0,60.0,3.0,0.0
6507,78.0,0.0,60.0,5.0,0.0
6508,69.0,60.0,60.0,11.0,0.0
6509,57.0,0.0,30.0,1.0,0.0
6510,78.0,0.0,60.0,10.0,0.0
6511,69.0,0.0,60.0,0.0,0.0
6512,78.0,0.0,60.0,0.0,0.0
6513,78.0,0.0,60.0,4.0,0.0
6514,57.0,0.0,30.0,7.0,0.0
6515,45.0,30.0,30.0,8.0,0.0
6516,56.0,0.0,30.0,15.0,0.0
6517,44.0,0.0,30.0,8.0,0.0
6518,56.0,0.0,30.0,1.0,0.0
6519,56.0,0.0,30.0,7.0,0.0
6520,65.0,0.0,30.0,6.0,0.0
6521,57.0,0.0,60.0,12.0,0.0
6522,81.0,0.0,60.0,10.0,0.0
6523,73.0,0.0,60.0,3.0,0.0
6524,57.0,0.0,60.0,15.0,0.0
6525,73.0,0.0,60.0,0.0,0.0
6526,57.0,0.0,60.0,1.0,0.0
6527,73.0,0.0,60.0,11.0,0.0
6528,81.0,0.0,60.0,0.0,0.0
6529,45.0,0.0,60.0,8.0,0.0
6530,57.0,0.0,120.0,13.0,0.0
6531,57.0,0.0,60.0,7.0,0.0
6532,66.0,0.0,60.0,6.0,0.0
6533,57.0,30.0,60.0,3.0,0.0
6534,78.0,0.0,60.0,0.0,0.0
6535,69.0,0.0,60.0,3.0,0.0
6536,81.0,30.0,30.0,5.0,0.0
6537,69.0,0.0,60.0,6.0,0.0
6538,54.0,60.0,60.0,8.0,0.0
6539,66.0,0.0,60.0,7.0,0.0
6540,66.0,0.0,60.0,1.0,0.0
6541,69.0,0.0,60.0,0.0,0.0
6542,81.0,0.0,30.0,4.0,0.0
6543,66.0,0.0,60.0,15.0,0.0
6544,78.0,0.0,60.0,10.0,0.0
6545,61.0,0.0,60.0,12.0,0.0
6546,69.0,0.0,60.0,11.0,0.0
6547,61.0,0.0,60.0,3.0,0.0
6548,78.0,0.0,30.0,5.0,0.0
6549,78.0,0.0,30.0,4.0,0.0
6550,32.0,0.0,60.0,8.0,0.0
6551,44.0,0.0,60.0,15.0,0.0
6552,83.0,0.0,120.0,10.0,0.0
6553,83.0,0.0,60.0,4.0,0.0
6554,71.0,60.0,120.0,0.0,0.0
6555,44.0,0.0,60.0,7.0,0.0
6556,78.0,30.0,60.0,5.0,0.0
6557,71.0,0.0,60.0,6.0,0.0
6558,59.0,0.0,120.0,12.0,0.0
6559,78.0,0.0,90.0,0.0,0.0
6560,59.0,0.0,120.0,3.0,0.0
6561,71.0,0.0,120.0,11.0,0.0
6562,44.0,0.0,60.0,1.0,0.0
6563,71.0,0.0,120.0,3.0,0.0
6564,44.0,0.0,30.0,8.0,0.0
6565,64.0,0.0,30.0,6.0,0.0
6566,68.0,0.0,60.0,5.0,0.0
6567,56.0,0.0,30.0,7.0,0.0
6568,71.0,0.0,60.0,4.0,0.0
6569,56.0,0.0,60.0,3.0,0.0
6570,56.0,0.0,60.0,13.0,0.0
6571,56.0,0.0,30.0,15.0,0.0
6572,56.0,30.0,30.0,1.0,0.0
6573,54.0,0.0,30.0,15.0,0.0
6574,54.0,0.0,30.0,7.0,0.0
6575,63.0,0.0,30.0,6.0,0.0
6576,76.0,0.0,30.0,0.0,0.0
6577,42.0,0.0,30.0,8.0,0.0
6578,54.0,0.0,30.0,1.0,0.0
6579,44.0,0.0,60.0,8.0,0.0
6580,56.0,0.0,60.0,7.0,0.0
6581,64.0,0.0,120.0,12.0,0.0
6582,64.0,0.0,120.0,3.0,0.0
6583,71.0,0.0,120.0,11.0,0.0
6584,76.0,0.0,120.0,10.0,0.0
6585,59.0,0.0,60.0,3.0,0.0
6586,59.0,0.0,60.0,13.0,0.0
6587,64.0,0.0,60.0,6.0,0.0
6588,71.0,0.0,120.0,0.0,0.0
6589,76.0,0.0,120.0,0.0,0.0
6590,56.0,0.0,60.0,1.0,0.0
6591,71.0,0.0,120.0,3.0,0.0
6592,56.0,30.0,60.0,15.0,0.0
6593,59.0,0.0,60.0,15.0,0.0
6594,64.0,0.0,60.0,6.0,0.0
6595,59.0,0.0,60.0,1.0,0.0
6596,59.0,0.0,60.0,7.0,0.0
6597,47.0,0.0,60.0,8.0,0.0
6598,80.0,0.0,30.0,5.0,0.0
6599,56.0,0.0,60.0,3.0,0.0
6600,83.0,30.0,30.0,4.0,0.0
6601,56.0,60.0,60.0,13.0,0.0
6602,80.0,0.0,30.0,4.0,0.0
6603,76.0,0.0,30.0,5.0,0.0
6604,64.0,0.0,60.0,13.0,0.0
6605,31.0,0.0,60.0,8.0,0.0
6606,64.0,0.0,60.0,3.0,0.0
6607,83.0,0.0,60.0,5.0,0.0
6608,88.0,0.0,60.0,4.0,0.0
6609,43.0,30.0,60.0,15.0,0.0
6610,43.0,0.0,60.0,7.0,0.0
6611,55.0,0.0,60.0,6.0,0.0
6612,43.0,0.0,60.0,1.0,0.0
6613,55.0,30.0,30.0,13.0,0.0
6614,55.0,0.0,30.0,1.0,0.0
6615,76.0,0.0,60.0,10.0,0.0
6616,59.0,0.0,60.0,3.0,0.0
6617,55.0,0.0,60.0,3.0,0.0
6618,55.0,0.0,30.0,7.0,0.0
6619,55.0,0.0,30.0,15.0,0.0
6620,59.0,0.0,60.0,12.0,0.0
6621,71.0,0.0,60.0,5.0,0.0
6622,76.0,0.0,60.0,0.0,0.0
6623,71.0,0.0,60.0,0.0,0.0
6624,71.0,0.0,60.0,3.0,0.0
6625,71.0,0.0,60.0,11.0,0.0
6626,43.0,0.0,30.0,8.0,0.0
6627,67.0,0.0,30.0,6.0,0.0
6628,76.0,0.0,60.0,4.0,0.0
6629,54.0,60.0,30.0,15.0,0.0
6630,55.0,0.0,30.0,13.0,0.0
6631,54.0,0.0,30.0,1.0,0.0
6632,54.0,0.0,30.0,7.0,0.0
6633,42.0,0.0,30.0,8.0,0.0
6634,66.0,0.0,30.0,6.0,0.0
6635,43.0,0.0,60.0,8.0,0.0
6636,76.0,0.0,60.0,0.0,0.0
6637,71.0,30.0,60.0,0.0,0.0
6638,71.0,0.0,60.0,3.0,0.0
6639,71.0,0.0,60.0,11.0,0.0
6640,55.0,0.0,60.0,15.0,0.0
6641,55.0,0.0,60.0,13.0,0.0
6642,55.0,0.0,60.0,3.0,0.0
6643,76.0,0.0,60.0,10.0,0.0
6644,59.0,0.0,60.0,12.0,0.0
6645,55.0,0.0,60.0,7.0,0.0
6646,59.0,0.0,60.0,3.0,0.0
6647,67.0,0.0,60.0,6.0,0.0
6648,55.0,0.0,60.0,1.0,0.0
6649,55.0,0.0,60.0,13.0,0.0
6650,55.0,0.0,60.0,3.0,0.0
6651,52.0,60.0,60.0,8.0,0.0
6652,59.0,0.0,60.0,12.0,0.0
6653,76.0,0.0,60.0,10.0,0.0
6654,80.0,0.0,30.0,4.0,0.0
6655,64.0,0.0,60.0,7.0,0.0
6656,59.0,0.0,60.0,3.0,0.0
6657,71.0,0.0,60.0,3.0,0.0
6658,76.0,0.0,60.0,0.0,0.0
6659,71.0,0.0,60.0,0.0,0.0
6660,71.0,30.0,30.0,5.0,0.0
6661,64.0,0.0,60.0,6.0,0.0
6662,64.0,0.0,60.0,1.0,0.0
6663,71.0,0.0,60.0,11.0,0.0
6664,64.0,0.0,60.0,15.0,0.0
6665,71.0,0.0,30.0,4.0,0.0
6666,67.0,0.0,30.0,5.0,0.0
6667,54.0,0.0,60.0,13.0,0.0
6668,54.0,0.0,60.0,3.0,0.0
6669,66.0,0.0,60.0,6.0,0.0
6670,76.0,0.0,60.0,10.0,0.0
6671,42.0,30.0,60.0,8.0,0.0
6672,54.0,0.0,60.0,7.0,0.0
6673,54.0,0.0,60.0,1.0,0.0
6674,61.0,0.0,60.0,5.0,0.0
6675,70.0,0.0,60.0,4.0,0.0
6676,70.0,0.0,60.0,11.0,0.0
6677,70.0,0.0,60.0,3.0,0.0
6678,54.0,0.0,60.0,15.0,0.0
6679,61.0,0.0,60.0,12.0,0.0
6680,70.0,0.0,60.0,0.0,0.0
6681,76.0,0.0,60.0,0.0,0.0
6682,61.0,0.0,60.0,3.0,0.0
6683,66.0,0.0,30.0,6.0,0.0
6684,78.0,0.0,30.0,10.0,0.0
6685,78.0,0.0,30.0,5.0,0.0
6686,58.0,0.0,60.0,3.0,0.0
6687,58.0,0.0,60.0,13.0,0.0
6688,78.0,0.0,60.0,0.0,0.0
6689,73.0,0.0,60.0,0.0,0.0
6690,73.0,0.0,30.0,11.0,0.0
6691,46.0,0.0,30.0,8.0,0.0
6692,73.0,0.0,60.0,3.0,0.0
6693,61.0,30.0,30.0,12.0,0.0
6694,61.0,60.0,60.0,3.0,0.0
6695,58.0,0.0,30.0,15.0,0.0
6696,58.0,0.0,30.0,7.0,0.0
6697,58.0,0.0,30.0,1.0,0.0
6698,85.0,0.0,30.0,4.0,0.0
6699,54.0,0.0,30.0,15.0,0.0
6700,54.0,0.0,30.0,7.0,0.0
6701,73.0,0.0,30.0,11.0,0.0
6702,73.0,0.0,30.0,5.0,0.0
6703,70.0,0.0,30.0,6.0,0.0
6704,82.0,0.0,30.0,4.0,0.0
6705,61.0,0.0,30.0,12.0,0.0
6706,54.0,0.0,30.0,1.0,0.0
6707,78.0,0.0,30.0,10.0,0.0
6708,42.0,0.0,30.0,8.0,0.0
6709,71.0,0.0,60.0,5.0,0.0
6710,71.0,0.0,60.0,6.0,0.0
6711,71.0,0.0,60.0,3.0,0.0
6712,59.0,0.0,60.0,1.0,0.0
6713,86.0,0.0,60.0,4.0,0.0
6714,66.0,0.0,60.0,12.0,0.0
6715,59.0,0.0,60.0,7.0,0.0
6716,71.0,0.0,60.0,11.0,0.0
6717,71.0,0.0,60.0,0.0,0.0
6718,47.0,0.0,60.0,8.0,0.0
6719,59.0,0.0,60.0,13.0,0.0
6720,74.0,0.0,60.0,10.0,0.0
6721,59.0,0.0,60.0,15.0,0.0
6722,59.0,0.0,60.0,3.0,0.0
6723,66.0,30.0,60.0,3.0,0.0
6724,74.0,0.0,60.0,0.0,0.0
6725,71.0,0.0,60.0,3.0,0.0
6726,67.0,0.0,60.0,3.0,0.0
6727,52.0,0.0,60.0,15.0,0.0
6728,71.0,0.0,60.0,11.0,0.0
6729,67.0,0.0,60.0,12.0,0.0
6730,52.0,0.0,60.0,7.0,0.0
6731,74.0,0.0,60.0,0.0,0.0
6732,76.0,0.0,60.0,0.0,0.0
6733,52.0,0.0,60.0,1.0,0.0
6734,76.0,30.0,30.0,5.0,0.0
6735,79.0,0.0,30.0,4.0,0.0
6736,73.0,0.0,60.0,10.0,0.0
6737,52.0,0.0,60.0,13.0,0.0
6738,40.0,0.0,60.0,8.0,0.0
6739,67.0,0.0,60.0,6.0,0.0
6740,52.0,0.0,60.0,3.0,0.0
6741,76.0,0.0,30.0,4.0,0.0
6742,73.0,60.0,30.0,5.0,0.0
6743,66.0,0.0,60.0,6.0,0.0
6744,74.0,30.0,60.0,4.0,0.0
6745,54.0,0.0,240.0,13.0,0.0
6746,54.0,0.0,60.0,7.0,0.0
6747,74.0,0.0,120.0,0.0,0.0
6748,71.0,0.0,120.0,0.0,0.0
6749,66.0,0.0,240.0,12.0,0.0
6750,54.0,0.0,60.0,15.0,0.0
6751,66.0,0.0,240.0,3.0,0.0
6752,71.0,0.0,120.0,3.0,0.0
6753,42.0,0.0,60.0,8.0,0.0
6754,71.0,0.0,120.0,11.0,0.0
6755,54.0,0.0,60.0,1.0,0.0
6756,74.0,60.0,120.0,10.0,0.0
6757,54.0,0.0,240.0,3.0,0.0
6758,71.0,0.0,60.0,5.0,0.0
6759,50.0,0.0,30.0,8.0,0.0
6760,62.0,0.0,30.0,1.0,0.0
6761,62.0,30.0,30.0,15.0,0.0
6762,83.0,0.0,60.0,4.0,0.0
6763,74.0,0.0,60.0,5.0,0.0
6764,66.0,0.0,60.0,6.0,0.0
6765,62.0,0.0,30.0,7.0,0.0
6766,59.0,0.0,30.0,7.0,0.0
6767,59.0,0.0,30.0,1.0,0.0
6768,47.0,0.0,30.0,8.0,0.0
6769,59.0,0.0,30.0,15.0,0.0
6770,70.0,0.0,60.0,5.0,0.0
6771,66.0,0.0,60.0,1.0,0.0
6772,70.0,0.0,120.0,3.0,0.0
6773,73.0,0.0,60.0,4.0,0.0
6774,66.0,0.0,60.0,6.0,0.0
6775,54.0,60.0,60.0,8.0,0.0
6776,73.0,0.0,120.0,10.0,0.0
6777,70.0,0.0,120.0,11.0,0.0
6778,66.0,0.0,60.0,7.0,0.0
6779,73.0,0.0,120.0,0.0,0.0
6780,70.0,0.0,120.0,0.0,0.0
6781,66.0,0.0,60.0,15.0,0.0
6782,66.0,0.0,60.0,6.0,0.0
6783,81.0,0.0,60.0,4.0,0.0
6784,54.0,0.0,60.0,7.0,0.0
6785,73.0,60.0,60.0,5.0,0.0
6786,54.0,0.0,60.0,1.0,0.0
6787,42.0,0.0,60.0,8.0,0.0
6788,54.0,0.0,60.0,15.0,0.0
6789,66.0,0.0,120.0,3.0,0.0
6790,71.0,0.0,120.0,11.0,0.0
6791,59.0,0.0,120.0,7.0,0.0
6792,71.0,0.0,120.0,5.0,0.0
6793,71.0,481.0,1920.0,0.0,0.0
6794,71.0,0.0,120.0,3.0,0.0
6795,59.0,0.0,120.0,3.0,0.0
6796,71.0,0.0,120.0,10.0,0.0
6797,62.0,0.0,120.0,15.0,0.0
6798,66.0,0.0,120.0,12.0,0.0
6799,83.0,60.0,60.0,4.0,0.0
6800,59.0,60.0,120.0,13.0,0.0
6801,66.0,0.0,120.0,15.0,0.0
6802,71.0,0.0,120.0,15.0,0.0
6803,59.0,0.0,120.0,1.0,0.0
6804,66.0,0.0,120.0,6.0,0.0
6805,59.0,0.0,120.0,15.0,0.0
6806,47.0,0.0,120.0,8.0,0.0
6807,71.0,60.0,120.0,4.0,0.0
6808,71.0,60.0,120.0,10.0,0.0
6809,71.0,120.0,120.0,4.0,0.0
6810,71.0,0.0,480.0,10.0,0.0
6811,71.0,60.0,120.0,4.0,0.0
6812,63.0,0.0,120.0,12.0,0.0
6813,59.0,0.0,120.0,13.0,0.0
6814,66.0,0.0,120.0,5.0,0.0
6815,47.0,0.0,120.0,8.0,0.0
6816,66.0,0.0,120.0,3.0,0.0
6817,66.0,0.0,120.0,11.0,0.0
6818,71.0,0.0,120.0,15.0,0.0
6819,63.0,0.0,120.0,1.0,0.0
6820,66.0,0.0,120.0,1.0,0.0
6821,59.0,0.0,120.0,7.0,0.0
6822,66.0,0.0,120.0,15.0,0.0
6823,62.0,60.0,120.0,15.0,0.0
6824,63.0,0.0,120.0,6.0,0.0
6825,59.0,0.0,120.0,15.0,0.0
6826,59.0,0.0,120.0,3.0,0.0
6827,63.0,0.0,120.0,3.0,0.0
6828,71.0,60.0,120.0,4.0,0.0
6829,74.0,0.0,120.0,15.0,0.0
6830,55.0,0.0,120.0,15.0,0.0
6831,67.0,0.0,120.0,15.0,0.0
6832,55.0,0.0,120.0,3.0,0.0
6833,71.0,60.0,120.0,15.0,0.0
6834,64.0,0.0,120.0,6.0,0.0
6835,67.0,0.0,120.0,11.0,0.0
6836,43.0,0.0,120.0,8.0,0.0
6837,67.0,0.0,120.0,5.0,0.0
6838,55.0,0.0,120.0,13.0,0.0
6839,67.0,0.0,120.0,1.0,0.0
6840,64.0,0.0,120.0,1.0,0.0
6841,64.0,0.0,120.0,3.0,0.0
6842,64.0,0.0,120.0,12.0,0.0
6843,67.0,0.0,120.0,3.0,0.0
6844,55.0,0.0,120.0,7.0,0.0
6845,71.0,0.0,120.0,4.0,0.0
6846,63.0,0.0,120.0,1.0,0.0
6847,66.0,0.0,120.0,1.0,0.0
6848,63.0,0.0,120.0,3.0,0.0
6849,63.0,0.0,120.0,6.0,0.0
6850,59.0,60.0,120.0,7.0,0.0
6851,47.0,0.0,120.0,8.0,0.0
6852,66.0,60.0,60.0,11.0,0.0
6853,63.0,0.0,60.0,12.0,0.0
6854,66.0,0.0,120.0,5.0,0.0
6855,59.0,0.0,60.0,13.0,0.0
6856,66.0,0.0,120.0,3.0,0.0
6857,59.0,0.0,120.0,15.0,0.0
6858,59.0,0.0,120.0,3.0,0.0
6859,63.0,0.0,120.0,15.0,0.0
6860,66.0,0.0,120.0,15.0,0.0
6861,71.0,0.0,120.0,15.0,0.0
6862,71.0,60.0,120.0,4.0,0.0
6863,63.0,0.0,60.0,12.0,0.0
6864,59.0,0.0,60.0,13.0,0.0
6865,66.0,0.0,60.0,11.0,0.0
6866,55.0,0.0,120.0,7.0,0.0
6867,67.0,0.0,120.0,15.0,0.0
6868,55.0,0.0,120.0,3.0,0.0
6869,67.0,0.0,120.0,3.0,0.0
6870,55.0,0.0,120.0,15.0,0.0
6871,67.0,0.0,120.0,1.0,0.0
6872,64.0,0.0,120.0,1.0,0.0
6873,71.0,0.0,120.0,15.0,0.0
6874,74.0,0.0,120.0,15.0,0.0
6875,64.0,60.0,120.0,3.0,0.0
6876,55.0,0.0,120.0,13.0,0.0
6877,71.0,0.0,120.0,10.0,0.0
6878,67.0,0.0,120.0,5.0,0.0
6879,64.0,0.0,120.0,6.0,0.0
6880,64.0,0.0,120.0,12.0,0.0
6881,43.0,0.0,120.0,8.0,0.0
6882,67.0,0.0,120.0,11.0,0.0
6883,71.0,0.0,120.0,4.0,0.0
6884,69.0,0.0,120.0,15.0,0.0
6885,51.0,0.0,120.0,15.0,0.0
6886,39.0,0.0,120.0,8.0,0.0
6887,66.0,60.0,60.0,12.0,0.0
6888,51.0,0.0,60.0,13.0,0.0
6889,69.0,0.0,120.0,3.0,0.0
6890,71.0,0.0,120.0,10.0,0.0
6891,66.0,0.0,240.0,3.0,0.0
6892,66.0,120.0,120.0,15.0,0.0
6893,51.0,0.0,120.0,3.0,0.0
6894,51.0,0.0,120.0,7.0,0.0
6895,69.0,0.0,120.0,5.0,0.0
6896,69.0,0.0,60.0,11.0,0.0
6897,66.0,0.0,240.0,1.0,0.0
6898,69.0,0.0,120.0,1.0,0.0
6899,66.0,60.0,240.0,6.0,0.0
6900,51.0,0.0,60.0,13.0,0.0
6901,71.0,0.0,60.0,4.0,0.0
6902,69.0,0.0,60.0,11.0,0.0
6903,66.0,0.0,60.0,12.0,0.0
6904,52.0,0.0,480.0,3.0,0.0
6905,71.0,0.0,480.0,15.0,0.0
6906,52.0,0.0,480.0,15.0,0.0
6907,67.0,0.0,480.0,15.0,0.0
6908,67.0,0.0,480.0,1.0,0.0
6909,67.0,0.0,480.0,11.0,0.0
6910,40.0,0.0,480.0,8.0,0.0
6911,67.0,0.0,480.0,3.0,0.0
6912,67.0,0.0,480.0,5.0,0.0
6913,64.0,0.0,480.0,15.0,0.0
6914,52.0,0.0,480.0,13.0,0.0
6915,71.0,0.0,480.0,10.0,0.0
6916,52.0,0.0,480.0,7.0,0.0
6917,66.0,0.0,120.0,12.0,0.0
6918,71.0,120.0,360.0,4.0,0.0
6919,64.0,0.0,60.0,6.0,0.0
6920,64.0,0.0,60.0,3.0,0.0
6921,64.0,0.0,60.0,12.0,0.0
6922,64.0,60.0,60.0,1.0,0.0
6923,63.0,0.0,60.0,3.0,0.0
6924,63.0,0.0,60.0,1.0,0.0
6925,63.0,120.0,60.0,6.0,0.0
6926,63.0,0.0,60.0,12.0,0.0
6927,64.0,480.0,240.0,12.0,0.0
6928,64.0,0.0,240.0,3.0,0.0
6929,64.0,0.0,240.0,1.0,0.0
6930,64.0,0.0,240.0,6.0,0.0
6931,71.0,0.0,120.0,4.0,0.0
6932,66.0,0.0,480.0,3.0,0.0
6933,66.0,0.0,480.0,1.0,0.0
6934,66.0,0.0,480.0,5.0,0.0
6935,63.0,0.0,480.0,6.0,0.0
6936,71.0,0.0,480.0,15.0,0.0
6937,66.0,0.0,480.0,15.0,0.0
6938,66.0,0.0,480.0,11.0,0.0
6939,47.0,0.0,480.0,13.0,0.0
6940,63.0,0.0,480.0,15.0,0.0
6941,47.0,0.0,480.0,15.0,0.0
6942,47.0,0.0,480.0,7.0,0.0
6943,71.0,0.0,480.0,10.0,0.0
6944,63.0,0.0,480.0,12.0,0.0
6945,35.0,0.0,480.0,8.0,0.0
6946,63.0,0.0,480.0,3.0,0.0
6947,71.0,0.0,480.0,4.0,0.0
6948,47.0,0.0,480.0,3.0,0.0
6949,63.0,0.0,480.0,1.0,0.0
