,note,step,duration,channel,velocity
0,66.0,120.0,90.0,11.0,64.0
1,65.0,120.0,90.0,11.0,64.0
2,66.0,120.0,90.0,11.0,64.0
3,68.0,120.0,90.0,11.0,64.0
4,70.0,120.0,90.0,11.0,64.0
5,68.0,120.0,90.0,11.0,64.0
6,70.0,120.0,90.0,11.0,64.0
7,85.0,96.0,480.0,10.0,64.0
8,68.0,120.0,90.0,11.0,64.0
9,66.0,120.0,90.0,11.0,64.0
10,65.0,24.0,90.0,11.0,64.0
11,66.0,96.0,90.0,11.0,64.0
12,82.0,24.0,180.0,10.0,64.0
13,68.0,120.0,90.0,11.0,64.0
14,70.0,120.0,90.0,11.0,64.0
15,68.0,120.0,90.0,11.0,64.0
16,78.0,96.0,480.0,10.0,64.0
17,70.0,120.0,90.0,11.0,64.0
18,66.0,120.0,90.0,11.0,64.0
19,68.0,120.0,90.0,11.0,64.0
20,67.0,24.0,90.0,11.0,64.0
21,68.0,96.0,90.0,11.0,64.0
22,77.0,24.0,180.0,10.0,64.0
23,70.0,120.0,90.0,11.0,64.0
24,71.0,120.0,90.0,11.0,64.0
25,70.0,120.0,90.0,11.0,64.0
26,85.0,96.0,480.0,10.0,64.0
27,71.0,120.0,90.0,11.0,64.0
28,70.0,120.0,90.0,11.0,64.0
29,68.0,120.0,90.0,11.0,64.0
30,67.0,24.0,90.0,11.0,64.0
31,83.0,24.0,180.0,10.0,64.0
32,68.0,96.0,90.0,11.0,64.0
33,70.0,120.0,90.0,11.0,64.0
34,71.0,120.0,90.0,11.0,64.0
35,70.0,120.0,90.0,11.0,64.0
36,80.0,96.0,480.0,10.0,64.0
37,71.0,120.0,90.0,11.0,64.0
38,68.0,120.0,90.0,11.0,64.0
39,70.0,120.0,90.0,11.0,64.0
40,68.0,24.0,90.0,11.0,64.0
41,78.0,24.0,180.0,10.0,64.0
42,70.0,96.0,90.0,11.0,64.0
43,71.0,120.0,90.0,11.0,64.0
44,73.0,120.0,90.0,11.0,64.0
45,71.0,120.0,90.0,11.0,64.0
46,90.0,96.0,480.0,10.0,64.0
47,73.0,120.0,90.0,11.0,64.0
48,71.0,120.0,90.0,11.0,64.0
49,70.0,120.0,90.0,11.0,64.0
50,71.0,24.0,90.0,11.0,64.0
51,85.0,24.0,180.0,10.0,64.0
52,73.0,96.0,90.0,11.0,64.0
53,75.0,120.0,90.0,11.0,64.0
54,76.0,120.0,90.0,11.0,64.0
55,75.0,120.0,90.0,11.0,64.0
56,76.0,120.0,90.0,11.0,64.0
57,82.0,96.0,240.0,10.0,64.0
58,73.0,24.0,90.0,11.0,64.0
59,75.0,60.0,90.0,11.0,64.0
60,83.0,60.0,150.0,10.0,64.0
61,73.0,84.0,90.0,11.0,64.0
62,87.0,36.0,60.0,10.0,64.0
63,71.0,24.0,90.0,11.0,64.0
64,85.0,60.0,60.0,10.0,64.0
65,70.0,12.0,90.0,11.0,64.0
66,87.0,36.0,60.0,10.0,64.0
67,85.0,108.0,40.0,10.0,64.0
68,71.0,96.0,90.0,11.0,64.0
69,87.0,24.0,180.0,10.0,64.0
70,73.0,120.0,90.0,11.0,64.0
71,75.0,120.0,90.0,11.0,64.0
72,77.0,84.0,90.0,11.0,64.0
73,87.0,84.0,60.0,10.0,64.0
74,78.0,60.0,150.0,11.0,64.0
75,85.0,132.0,150.0,10.0,64.0
76,83.0,48.0,90.0,10.0,64.0
77,75.0,72.0,150.0,11.0,64.0
78,82.0,84.0,90.0,10.0,64.0
79,82.0,84.0,60.0,10.0,64.0
80,71.0,60.0,150.0,11.0,64.0
81,80.0,132.0,150.0,10.0,64.0
82,73.0,72.0,150.0,11.0,64.0
83,78.0,48.0,90.0,10.0,64.0
84,77.0,120.0,90.0,10.0,64.0
85,78.0,0.0,390.0,1.0,64.0
86,66.0,72.0,390.0,2.0,64.0
87,66.0,0.0,90.0,12.0,64.0
88,66.0,0.0,90.0,13.0,64.0
89,66.0,0.0,90.0,3.0,64.0
90,78.0,0.0,390.0,0.0,64.0
91,66.0,0.0,390.0,5.0,64.0
92,78.0,0.0,90.0,10.0,64.0
93,54.0,0.0,90.0,14.0,64.0
94,54.0,0.0,390.0,4.0,64.0
95,78.0,120.0,90.0,11.0,64.0
96,54.0,0.0,390.0,6.0,64.0
97,70.0,0.0,90.0,13.0,64.0
98,70.0,0.0,90.0,3.0,64.0
99,58.0,120.0,90.0,14.0,64.0
100,70.0,0.0,90.0,12.0,64.0
101,82.0,0.0,90.0,10.0,64.0
102,82.0,0.0,90.0,11.0,64.0
103,80.0,48.0,90.0,11.0,64.0
104,68.0,0.0,90.0,3.0,64.0
105,68.0,0.0,90.0,13.0,64.0
106,80.0,0.0,90.0,10.0,64.0
107,68.0,0.0,90.0,12.0,64.0
108,56.0,0.0,90.0,14.0,64.0
109,78.0,0.0,90.0,11.0,64.0
110,54.0,0.0,90.0,14.0,64.0
111,66.0,0.0,90.0,3.0,64.0
112,66.0,120.0,90.0,13.0,64.0
113,78.0,0.0,90.0,10.0,64.0
114,66.0,0.0,90.0,12.0,64.0
115,53.0,0.0,90.0,14.0,64.0
116,65.0,0.0,90.0,13.0,64.0
117,78.0,72.0,150.0,0.0,64.0
118,65.0,0.0,90.0,3.0,64.0
119,66.0,0.0,150.0,2.0,64.0
120,54.0,0.0,150.0,4.0,64.0
121,77.0,0.0,90.0,10.0,64.0
122,65.0,48.0,90.0,12.0,64.0
123,78.0,0.0,150.0,1.0,64.0
124,77.0,0.0,90.0,11.0,64.0
125,66.0,0.0,150.0,5.0,64.0
126,78.0,0.0,90.0,10.0,64.0
127,66.0,0.0,90.0,13.0,64.0
128,66.0,0.0,90.0,12.0,64.0
129,78.0,0.0,90.0,11.0,64.0
130,66.0,0.0,90.0,3.0,64.0
131,54.0,120.0,90.0,14.0,64.0
132,54.0,72.0,150.0,4.0,64.0
133,75.0,0.0,90.0,11.0,64.0
134,78.0,0.0,150.0,1.0,64.0
135,75.0,0.0,90.0,10.0,64.0
136,54.0,48.0,90.0,6.0,64.0
137,78.0,0.0,150.0,0.0,64.0
138,66.0,0.0,150.0,5.0,64.0
139,66.0,0.0,150.0,2.0,64.0
140,63.0,0.0,90.0,13.0,64.0
141,51.0,0.0,90.0,14.0,64.0
142,63.0,0.0,90.0,12.0,64.0
143,63.0,0.0,90.0,3.0,64.0
144,77.0,0.0,90.0,11.0,64.0
145,53.0,0.0,90.0,14.0,64.0
146,65.0,120.0,90.0,3.0,64.0
147,77.0,0.0,90.0,10.0,64.0
148,65.0,0.0,90.0,12.0,64.0
149,65.0,0.0,90.0,13.0,64.0
150,54.0,0.0,90.0,6.0,64.0
151,61.0,0.0,90.0,12.0,64.0
152,49.0,0.0,90.0,14.0,64.0
153,61.0,0.0,90.0,13.0,64.0
154,61.0,0.0,90.0,3.0,64.0
155,54.0,72.0,390.0,6.0,64.0
156,70.0,0.0,390.0,2.0,64.0
157,70.0,0.0,390.0,5.0,64.0
158,82.0,0.0,390.0,1.0,64.0
159,82.0,0.0,390.0,0.0,64.0
160,73.0,120.0,90.0,10.0,64.0
161,73.0,0.0,90.0,11.0,64.0
162,58.0,0.0,390.0,4.0,64.0
163,66.0,0.0,90.0,12.0,64.0
164,54.0,0.0,90.0,14.0,64.0
165,78.0,120.0,90.0,10.0,64.0
166,66.0,0.0,90.0,13.0,64.0
167,78.0,0.0,90.0,11.0,64.0
168,66.0,0.0,90.0,3.0,64.0
169,65.0,0.0,90.0,12.0,64.0
170,77.0,0.0,90.0,11.0,64.0
171,53.0,0.0,90.0,14.0,64.0
172,65.0,48.0,90.0,13.0,64.0
173,65.0,0.0,90.0,3.0,64.0
174,77.0,0.0,90.0,10.0,64.0
175,75.0,0.0,90.0,11.0,64.0
176,75.0,120.0,90.0,10.0,64.0
177,51.0,0.0,90.0,14.0,64.0
178,63.0,0.0,90.0,13.0,64.0
179,63.0,0.0,90.0,3.0,64.0
180,63.0,0.0,90.0,12.0,64.0
181,82.0,0.0,150.0,0.0,64.0
182,61.0,48.0,90.0,12.0,64.0
183,61.0,0.0,90.0,13.0,64.0
184,70.0,0.0,150.0,5.0,64.0
185,49.0,0.0,90.0,14.0,64.0
186,70.0,0.0,150.0,2.0,64.0
187,73.0,0.0,90.0,10.0,64.0
188,61.0,0.0,90.0,3.0,64.0
189,73.0,0.0,90.0,11.0,64.0
190,58.0,0.0,150.0,4.0,64.0
191,82.0,72.0,150.0,1.0,64.0
192,75.0,120.0,90.0,11.0,64.0
193,75.0,0.0,90.0,10.0,64.0
194,63.0,0.0,90.0,12.0,64.0
195,63.0,0.0,90.0,13.0,64.0
196,63.0,0.0,90.0,3.0,64.0
197,51.0,0.0,90.0,14.0,64.0
198,82.0,0.0,150.0,0.0,64.0
199,54.0,0.0,90.0,6.0,64.0
200,70.0,0.0,150.0,5.0,64.0
201,58.0,0.0,150.0,4.0,64.0
202,59.0,0.0,90.0,12.0,64.0
203,59.0,0.0,90.0,3.0,64.0
204,59.0,48.0,90.0,13.0,64.0
205,71.0,0.0,90.0,11.0,64.0
206,47.0,0.0,90.0,14.0,64.0
207,70.0,72.0,150.0,2.0,64.0
208,71.0,0.0,90.0,10.0,64.0
209,82.0,0.0,150.0,1.0,64.0
210,49.0,0.0,90.0,14.0,64.0
211,54.0,0.0,90.0,6.0,64.0
212,61.0,0.0,90.0,13.0,64.0
213,73.0,120.0,90.0,11.0,64.0
214,73.0,0.0,90.0,10.0,64.0
215,61.0,0.0,90.0,12.0,64.0
216,61.0,0.0,90.0,3.0,64.0
217,58.0,0.0,90.0,3.0,64.0
218,70.0,120.0,90.0,11.0,64.0
219,46.0,0.0,90.0,14.0,64.0
220,73.0,0.0,390.0,5.0,64.0
221,85.0,0.0,390.0,0.0,64.0
222,70.0,0.0,90.0,10.0,64.0
223,85.0,0.0,390.0,1.0,64.0
224,54.0,72.0,390.0,6.0,64.0
225,58.0,0.0,90.0,12.0,64.0
226,73.0,0.0,390.0,2.0,64.0
227,61.0,0.0,390.0,4.0,64.0
228,58.0,0.0,90.0,13.0,64.0
229,63.0,0.0,90.0,12.0,64.0
230,63.0,0.0,90.0,13.0,64.0
231,63.0,0.0,90.0,3.0,64.0
232,75.0,0.0,90.0,11.0,64.0
233,75.0,0.0,90.0,10.0,64.0
234,51.0,120.0,90.0,14.0,64.0
235,49.0,0.0,90.0,14.0,64.0
236,61.0,0.0,90.0,13.0,64.0
237,61.0,0.0,90.0,3.0,64.0
238,73.0,0.0,90.0,11.0,64.0
239,73.0,48.0,90.0,10.0,64.0
240,61.0,0.0,90.0,12.0,64.0
241,71.0,0.0,90.0,10.0,64.0
242,59.0,0.0,90.0,3.0,64.0
243,47.0,0.0,90.0,14.0,64.0
244,71.0,0.0,90.0,11.0,64.0
245,59.0,0.0,90.0,13.0,64.0
246,59.0,120.0,90.0,12.0,64.0
247,61.0,0.0,150.0,4.0,64.0
248,58.0,0.0,90.0,13.0,64.0
249,58.0,48.0,90.0,3.0,64.0
250,85.0,0.0,150.0,0.0,64.0
251,70.0,0.0,90.0,10.0,64.0
252,85.0,0.0,150.0,1.0,64.0
253,46.0,0.0,90.0,14.0,64.0
254,58.0,0.0,90.0,12.0,64.0
255,73.0,0.0,150.0,2.0,64.0
256,73.0,72.0,150.0,5.0,64.0
257,70.0,0.0,90.0,11.0,64.0
258,71.0,0.0,90.0,11.0,64.0
259,59.0,0.0,90.0,13.0,64.0
260,71.0,120.0,90.0,10.0,64.0
261,59.0,0.0,90.0,3.0,64.0
262,47.0,0.0,90.0,14.0,64.0
263,59.0,0.0,90.0,12.0,64.0
264,56.0,48.0,90.0,12.0,64.0
265,85.0,72.0,150.0,1.0,64.0
266,85.0,0.0,150.0,0.0,64.0
267,73.0,0.0,150.0,2.0,64.0
268,61.0,0.0,150.0,4.0,64.0
269,56.0,0.0,90.0,3.0,64.0
270,44.0,0.0,90.0,14.0,64.0
271,54.0,0.0,90.0,6.0,64.0
272,73.0,0.0,150.0,5.0,64.0
273,68.0,0.0,90.0,11.0,64.0
274,68.0,0.0,90.0,10.0,64.0
275,56.0,0.0,90.0,13.0,64.0
276,70.0,0.0,90.0,11.0,64.0
277,58.0,120.0,90.0,3.0,64.0
278,70.0,0.0,90.0,10.0,64.0
279,58.0,0.0,90.0,13.0,64.0
280,54.0,0.0,90.0,6.0,64.0
281,58.0,0.0,90.0,12.0,64.0
282,46.0,0.0,90.0,14.0,64.0
283,78.0,0.0,180.0,2.0,64.0
284,54.0,0.0,180.0,6.0,64.0
285,54.0,0.0,180.0,4.0,64.0
286,90.0,0.0,180.0,1.0,64.0
287,85.0,0.0,180.0,1.0,64.0
288,66.0,0.0,180.0,10.0,64.0
289,42.0,0.0,180.0,14.0,64.0
290,66.0,96.0,90.0,11.0,64.0
291,66.0,0.0,180.0,5.0,64.0
292,73.0,0.0,180.0,2.0,64.0
293,78.0,0.0,180.0,5.0,64.0
294,85.0,0.0,180.0,0.0,64.0
295,54.0,24.0,180.0,13.0,64.0
296,90.0,0.0,180.0,0.0,64.0
297,54.0,0.0,180.0,3.0,64.0
298,54.0,0.0,180.0,12.0,64.0
299,66.0,0.0,180.0,4.0,64.0
300,65.0,120.0,90.0,11.0,64.0
301,66.0,120.0,90.0,11.0,64.0
302,68.0,120.0,90.0,11.0,64.0
303,70.0,120.0,90.0,11.0,64.0
304,68.0,120.0,90.0,11.0,64.0
305,85.0,96.0,480.0,10.0,64.0
306,70.0,120.0,90.0,11.0,64.0
307,68.0,120.0,90.0,11.0,64.0
308,66.0,120.0,90.0,11.0,64.0
309,65.0,24.0,90.0,11.0,64.0
310,82.0,24.0,180.0,10.0,64.0
311,66.0,96.0,90.0,11.0,64.0
312,68.0,120.0,90.0,11.0,64.0
313,70.0,120.0,90.0,11.0,64.0
314,68.0,120.0,90.0,11.0,64.0
315,70.0,120.0,90.0,11.0,64.0
316,78.0,96.0,480.0,10.0,64.0
317,66.0,120.0,90.0,11.0,64.0
318,68.0,120.0,90.0,11.0,64.0
319,67.0,24.0,90.0,11.0,64.0
320,68.0,96.0,90.0,11.0,64.0
321,77.0,24.0,180.0,10.0,64.0
322,70.0,120.0,90.0,11.0,64.0
323,71.0,120.0,90.0,11.0,64.0
324,70.0,120.0,90.0,11.0,64.0
325,85.0,96.0,480.0,10.0,64.0
326,71.0,120.0,90.0,11.0,64.0
327,70.0,120.0,90.0,11.0,64.0
328,68.0,120.0,90.0,11.0,64.0
329,67.0,24.0,90.0,11.0,64.0
330,83.0,24.0,180.0,10.0,64.0
331,68.0,96.0,90.0,11.0,64.0
332,70.0,120.0,90.0,11.0,64.0
333,71.0,120.0,90.0,11.0,64.0
334,70.0,120.0,90.0,11.0,64.0
335,80.0,96.0,480.0,10.0,64.0
336,71.0,120.0,90.0,11.0,64.0
337,68.0,120.0,90.0,11.0,64.0
338,70.0,120.0,90.0,11.0,64.0
339,68.0,24.0,90.0,11.0,64.0
340,70.0,96.0,90.0,11.0,64.0
341,78.0,24.0,180.0,10.0,64.0
342,71.0,120.0,90.0,11.0,64.0
343,73.0,120.0,90.0,11.0,64.0
344,71.0,120.0,90.0,11.0,64.0
345,90.0,96.0,480.0,10.0,64.0
346,73.0,120.0,90.0,11.0,64.0
347,71.0,120.0,90.0,11.0,64.0
348,70.0,120.0,90.0,11.0,64.0
349,71.0,24.0,90.0,11.0,64.0
350,73.0,96.0,90.0,11.0,64.0
351,85.0,24.0,180.0,10.0,64.0
352,75.0,120.0,90.0,11.0,64.0
353,76.0,120.0,90.0,11.0,64.0
354,75.0,120.0,90.0,11.0,64.0
355,76.0,120.0,90.0,11.0,64.0
356,82.0,96.0,240.0,10.0,64.0
357,73.0,24.0,90.0,11.0,64.0
358,75.0,60.0,90.0,11.0,64.0
359,83.0,60.0,150.0,10.0,64.0
360,73.0,84.0,90.0,11.0,64.0
361,71.0,24.0,90.0,11.0,64.0
362,87.0,36.0,60.0,10.0,64.0
363,85.0,60.0,60.0,10.0,64.0
364,87.0,36.0,60.0,10.0,64.0
365,70.0,12.0,90.0,11.0,64.0
366,85.0,108.0,40.0,10.0,64.0
367,87.0,24.0,180.0,10.0,64.0
368,71.0,96.0,90.0,11.0,64.0
369,73.0,120.0,90.0,11.0,64.0
370,75.0,120.0,90.0,11.0,64.0
371,77.0,84.0,90.0,11.0,64.0
372,87.0,96.0,60.0,10.0,64.0
373,78.0,73.0,150.0,11.0,64.0
374,85.0,107.0,180.0,10.0,64.0
375,83.0,60.0,90.0,10.0,64.0
376,75.0,60.0,150.0,11.0,64.0
377,82.0,84.0,90.0,10.0,64.0
378,82.0,96.0,60.0,10.0,64.0
379,71.0,73.0,150.0,11.0,64.0
380,80.0,107.0,180.0,10.0,64.0
381,78.0,60.0,90.0,10.0,64.0
382,73.0,60.0,150.0,11.0,64.0
383,77.0,144.0,90.0,10.0,64.0
384,70.0,60.0,150.0,11.0,64.0
385,80.0,36.0,120.0,10.0,64.0
386,78.0,144.0,90.0,10.0,64.0
387,65.0,60.0,150.0,11.0,64.0
388,82.0,36.0,120.0,10.0,64.0
389,80.0,144.0,90.0,10.0,64.0
390,66.0,84.0,150.0,11.0,64.0
391,83.0,36.0,120.0,10.0,64.0
392,82.0,120.0,120.0,10.0,64.0
393,85.0,36.0,120.0,10.0,64.0
394,68.0,60.0,150.0,11.0,64.0
395,83.0,84.0,90.0,10.0,64.0
396,70.0,73.0,150.0,11.0,64.0
397,87.0,96.0,60.0,10.0,64.0
398,85.0,107.0,180.0,10.0,64.0
399,83.0,60.0,90.0,10.0,64.0
400,75.0,60.0,150.0,11.0,64.0
401,82.0,84.0,90.0,10.0,64.0
402,82.0,96.0,60.0,10.0,64.0
403,71.0,73.0,150.0,11.0,64.0
404,80.0,107.0,180.0,10.0,64.0
405,78.0,60.0,90.0,10.0,64.0
406,73.0,60.0,150.0,11.0,64.0
407,77.0,120.0,90.0,10.0,64.0
408,78.0,120.0,90.0,10.0,64.0
409,54.0,0.0,390.0,6.0,64.0
410,78.0,0.0,90.0,11.0,64.0
411,66.0,0.0,90.0,3.0,64.0
412,66.0,0.0,90.0,12.0,64.0
413,54.0,0.0,90.0,14.0,64.0
414,54.0,72.0,390.0,4.0,64.0
415,66.0,0.0,390.0,5.0,64.0
416,78.0,0.0,390.0,1.0,64.0
417,78.0,0.0,390.0,0.0,64.0
418,66.0,0.0,390.0,2.0,64.0
419,66.0,0.0,90.0,13.0,64.0
420,70.0,120.0,90.0,12.0,64.0
421,82.0,0.0,90.0,11.0,64.0
422,58.0,0.0,90.0,14.0,64.0
423,70.0,0.0,90.0,3.0,64.0
424,82.0,0.0,90.0,10.0,64.0
425,70.0,0.0,90.0,13.0,64.0
426,68.0,0.0,90.0,12.0,64.0
427,80.0,48.0,90.0,11.0,64.0
428,56.0,0.0,90.0,14.0,64.0
429,80.0,0.0,90.0,10.0,64.0
430,68.0,0.0,90.0,13.0,64.0
431,68.0,0.0,90.0,3.0,64.0
432,66.0,0.0,90.0,13.0,64.0
433,78.0,0.0,90.0,10.0,64.0
434,54.0,0.0,90.0,14.0,64.0
435,78.0,0.0,90.0,11.0,64.0
436,66.0,120.0,90.0,3.0,64.0
437,66.0,0.0,90.0,12.0,64.0
438,65.0,0.0,90.0,13.0,64.0
439,78.0,0.0,150.0,1.0,64.0
440,65.0,0.0,90.0,3.0,64.0
441,66.0,0.0,150.0,2.0,64.0
442,65.0,0.0,90.0,12.0,64.0
443,77.0,0.0,90.0,11.0,64.0
444,77.0,0.0,90.0,10.0,64.0
445,78.0,0.0,150.0,0.0,64.0
446,53.0,48.0,90.0,14.0,64.0
447,66.0,72.0,150.0,5.0,64.0
448,54.0,0.0,150.0,4.0,64.0
449,54.0,0.0,90.0,14.0,64.0
450,66.0,0.0,90.0,13.0,64.0
451,66.0,0.0,90.0,3.0,64.0
452,66.0,0.0,90.0,12.0,64.0
453,78.0,120.0,90.0,11.0,64.0
454,78.0,0.0,90.0,10.0,64.0
455,63.0,0.0,90.0,3.0,64.0
456,78.0,0.0,150.0,0.0,64.0
457,75.0,0.0,90.0,10.0,64.0
458,51.0,0.0,90.0,14.0,64.0
459,54.0,48.0,90.0,6.0,64.0
460,66.0,0.0,150.0,5.0,64.0
461,54.0,72.0,150.0,4.0,64.0
462,63.0,0.0,90.0,12.0,64.0
463,78.0,0.0,150.0,1.0,64.0
464,75.0,0.0,90.0,11.0,64.0
465,63.0,0.0,90.0,13.0,64.0
466,66.0,0.0,150.0,2.0,64.0
467,77.0,120.0,90.0,10.0,64.0
468,53.0,0.0,90.0,14.0,64.0
469,65.0,0.0,90.0,13.0,64.0
470,77.0,0.0,90.0,11.0,64.0
471,65.0,0.0,90.0,3.0,64.0
472,54.0,0.0,90.0,6.0,64.0
473,65.0,0.0,90.0,12.0,64.0
474,82.0,0.0,390.0,1.0,64.0
475,70.0,0.0,390.0,2.0,64.0
476,73.0,0.0,90.0,11.0,64.0
477,61.0,0.0,90.0,3.0,64.0
478,70.0,0.0,390.0,5.0,64.0
479,82.0,0.0,390.0,0.0,64.0
480,61.0,0.0,90.0,13.0,64.0
481,73.0,120.0,90.0,10.0,64.0
482,61.0,0.0,90.0,12.0,64.0
483,49.0,0.0,90.0,14.0,64.0
484,58.0,0.0,390.0,4.0,64.0
485,54.0,72.0,390.0,6.0,64.0
486,78.0,120.0,90.0,10.0,64.0
487,66.0,0.0,90.0,3.0,64.0
488,54.0,0.0,90.0,14.0,64.0
489,66.0,0.0,90.0,12.0,64.0
490,66.0,0.0,90.0,13.0,64.0
491,78.0,0.0,90.0,11.0,64.0
492,77.0,0.0,90.0,10.0,64.0
493,53.0,48.0,90.0,14.0,64.0
494,65.0,0.0,90.0,3.0,64.0
495,65.0,0.0,90.0,12.0,64.0
496,77.0,0.0,90.0,11.0,64.0
497,65.0,0.0,90.0,13.0,64.0
498,63.0,0.0,90.0,12.0,64.0
499,75.0,120.0,90.0,11.0,64.0
500,63.0,0.0,90.0,3.0,64.0
501,51.0,0.0,90.0,14.0,64.0
502,63.0,0.0,90.0,13.0,64.0
503,75.0,0.0,90.0,10.0,64.0
504,61.0,0.0,90.0,3.0,64.0
505,49.0,0.0,90.0,14.0,64.0
506,61.0,0.0,90.0,13.0,64.0
507,58.0,0.0,150.0,4.0,64.0
508,70.0,0.0,150.0,5.0,64.0
509,73.0,0.0,90.0,10.0,64.0
510,82.0,0.0,150.0,0.0,64.0
511,61.0,48.0,90.0,12.0,64.0
512,82.0,0.0,150.0,1.0,64.0
513,73.0,0.0,90.0,11.0,64.0
514,70.0,72.0,150.0,2.0,64.0
515,75.0,0.0,90.0,11.0,64.0
516,63.0,0.0,90.0,3.0,64.0
517,63.0,0.0,90.0,12.0,64.0
518,63.0,120.0,90.0,13.0,64.0
519,75.0,0.0,90.0,10.0,64.0
520,51.0,0.0,90.0,14.0,64.0
521,59.0,0.0,90.0,3.0,64.0
522,54.0,0.0,90.0,6.0,64.0
523,58.0,0.0,150.0,4.0,64.0
524,70.0,0.0,150.0,5.0,64.0
525,82.0,72.0,150.0,1.0,64.0
526,47.0,0.0,90.0,14.0,64.0
527,71.0,0.0,90.0,11.0,64.0
528,71.0,0.0,90.0,10.0,64.0
529,59.0,0.0,90.0,12.0,64.0
530,70.0,0.0,150.0,2.0,64.0
531,59.0,48.0,90.0,13.0,64.0
532,82.0,0.0,150.0,0.0,64.0
533,73.0,0.0,90.0,10.0,64.0
534,54.0,120.0,90.0,6.0,64.0
535,61.0,0.0,90.0,3.0,64.0
536,61.0,0.0,90.0,12.0,64.0
537,61.0,0.0,90.0,13.0,64.0
538,73.0,0.0,90.0,11.0,64.0
539,49.0,0.0,90.0,14.0,64.0
540,73.0,0.0,390.0,5.0,64.0
541,70.0,0.0,90.0,11.0,64.0
542,70.0,0.0,90.0,10.0,64.0
543,58.0,0.0,90.0,12.0,64.0
544,54.0,0.0,390.0,6.0,64.0
545,58.0,120.0,90.0,13.0,64.0
546,61.0,72.0,390.0,4.0,64.0
547,58.0,0.0,90.0,3.0,64.0
548,73.0,0.0,390.0,2.0,64.0
549,85.0,0.0,390.0,1.0,64.0
550,85.0,0.0,390.0,0.0,64.0
551,46.0,0.0,90.0,14.0,64.0
552,75.0,0.0,90.0,10.0,64.0
553,63.0,0.0,90.0,13.0,64.0
554,63.0,120.0,90.0,12.0,64.0
555,75.0,0.0,90.0,11.0,64.0
556,51.0,0.0,90.0,14.0,64.0
557,63.0,0.0,90.0,3.0,64.0
558,61.0,0.0,90.0,3.0,64.0
559,49.0,48.0,90.0,14.0,64.0
560,61.0,0.0,90.0,13.0,64.0
561,61.0,0.0,90.0,12.0,64.0
562,73.0,0.0,90.0,11.0,64.0
563,73.0,0.0,90.0,10.0,64.0
564,59.0,0.0,90.0,12.0,64.0
565,59.0,120.0,90.0,13.0,64.0
566,71.0,0.0,90.0,10.0,64.0
567,71.0,0.0,90.0,11.0,64.0
568,59.0,0.0,90.0,3.0,64.0
569,47.0,0.0,90.0,14.0,64.0
570,73.0,0.0,150.0,2.0,64.0
571,58.0,0.0,90.0,3.0,64.0
572,70.0,0.0,90.0,10.0,64.0
573,58.0,0.0,90.0,13.0,64.0
574,61.0,72.0,150.0,4.0,64.0
575,46.0,0.0,90.0,14.0,64.0
576,85.0,0.0,150.0,1.0,64.0
577,85.0,0.0,150.0,0.0,64.0
578,73.0,0.0,150.0,5.0,64.0
579,58.0,48.0,90.0,12.0,64.0
580,70.0,0.0,90.0,11.0,64.0
581,59.0,0.0,90.0,13.0,64.0
582,71.0,120.0,90.0,11.0,64.0
583,59.0,0.0,90.0,3.0,64.0
584,47.0,0.0,90.0,14.0,64.0
585,59.0,0.0,90.0,12.0,64.0
586,71.0,0.0,90.0,10.0,64.0
587,44.0,0.0,90.0,14.0,64.0
588,73.0,0.0,150.0,5.0,64.0
589,85.0,0.0,150.0,1.0,64.0
590,61.0,0.0,150.0,4.0,64.0
591,54.0,0.0,90.0,6.0,64.0
592,56.0,0.0,90.0,3.0,64.0
593,73.0,0.0,150.0,2.0,64.0
594,68.0,0.0,90.0,11.0,64.0
595,68.0,0.0,90.0,10.0,64.0
596,56.0,48.0,90.0,13.0,64.0
597,85.0,72.0,150.0,0.0,64.0
598,56.0,0.0,90.0,12.0,64.0
599,58.0,0.0,90.0,3.0,64.0
600,70.0,0.0,90.0,11.0,64.0
601,46.0,0.0,90.0,14.0,64.0
602,70.0,0.0,90.0,10.0,64.0
603,54.0,0.0,90.0,6.0,64.0
604,58.0,0.0,90.0,13.0,64.0
605,58.0,120.0,90.0,12.0,64.0
606,42.0,48.0,180.0,14.0,64.0
607,85.0,0.0,1860.0,0.0,64.0
608,90.0,0.0,1860.0,0.0,64.0
609,54.0,0.0,180.0,3.0,64.0
610,54.0,12.0,390.0,6.0,64.0
611,66.0,12.0,150.0,10.0,64.0
612,73.0,60.0,90.0,11.0,64.0
613,66.0,0.0,330.0,4.0,64.0
614,90.0,0.0,1860.0,1.0,64.0
615,82.0,6.0,1860.0,1.0,64.0
616,73.0,30.0,1740.0,2.0,64.0
617,78.0,0.0,1740.0,2.0,64.0
618,54.0,0.0,90.0,12.0,64.0
619,66.0,0.0,360.0,5.0,64.0
620,78.0,24.0,360.0,5.0,64.0
621,54.0,0.0,180.0,13.0,64.0
622,66.0,0.0,90.0,11.0,64.0
623,54.0,0.0,330.0,4.0,64.0
624,70.0,0.0,90.0,12.0,64.0
625,73.0,120.0,90.0,11.0,64.0
626,66.0,0.0,90.0,11.0,64.0
627,66.0,0.0,90.0,11.0,64.0
628,90.0,12.0,150.0,10.0,64.0
629,66.0,48.0,180.0,13.0,64.0
630,54.0,0.0,180.0,14.0,64.0
631,73.0,0.0,90.0,11.0,64.0
632,70.0,24.0,90.0,12.0,64.0
633,66.0,0.0,180.0,3.0,64.0
634,70.0,120.0,90.0,12.0,64.0
635,73.0,0.0,90.0,11.0,64.0
636,66.0,0.0,90.0,11.0,64.0
637,66.0,0.0,90.0,11.0,64.0
638,70.0,0.0,180.0,4.0,64.0
639,70.0,72.0,90.0,12.0,64.0
640,73.0,0.0,90.0,11.0,64.0
641,54.0,0.0,180.0,14.0,64.0
642,66.0,48.0,180.0,3.0,64.0
643,66.0,0.0,180.0,13.0,64.0
644,66.0,0.0,180.0,4.0,64.0
645,66.0,102.0,90.0,11.0,64.0
646,70.0,0.0,90.0,12.0,64.0
647,73.0,0.0,90.0,11.0,64.0
648,70.0,0.0,90.0,12.0,64.0
649,54.0,0.0,180.0,14.0,64.0
650,73.0,0.0,90.0,11.0,64.0
651,66.0,72.0,90.0,11.0,64.0
652,85.0,18.0,90.0,10.0,64.0
653,70.0,0.0,180.0,4.0,64.0
654,66.0,30.0,180.0,4.0,64.0
655,66.0,0.0,180.0,3.0,64.0
656,66.0,0.0,180.0,13.0,64.0
657,70.0,0.0,90.0,12.0,64.0
658,73.0,120.0,90.0,11.0,64.0
659,82.0,18.0,90.0,10.0,64.0
660,66.0,0.0,90.0,11.0,64.0
661,66.0,0.0,330.0,4.0,64.0
662,70.0,0.0,330.0,4.0,64.0
663,73.0,60.0,90.0,11.0,64.0
664,54.0,48.0,180.0,13.0,64.0
665,66.0,0.0,90.0,11.0,64.0
666,54.0,0.0,180.0,3.0,64.0
667,78.0,12.0,150.0,10.0,64.0
668,70.0,0.0,90.0,12.0,64.0
669,42.0,0.0,180.0,14.0,64.0
670,66.0,0.0,90.0,11.0,64.0
671,73.0,102.0,90.0,11.0,64.0
672,70.0,0.0,90.0,12.0,64.0
673,82.0,18.0,90.0,10.0,64.0
674,54.0,30.0,180.0,14.0,64.0
675,66.0,0.0,90.0,11.0,64.0
676,66.0,0.0,180.0,13.0,64.0
677,66.0,0.0,180.0,3.0,64.0
678,70.0,72.0,90.0,12.0,64.0
679,73.0,0.0,90.0,11.0,64.0
680,66.0,0.0,90.0,11.0,64.0
681,73.0,120.0,90.0,11.0,64.0
682,70.0,0.0,90.0,12.0,64.0
683,78.0,18.0,90.0,10.0,64.0
684,66.0,0.0,90.0,11.0,64.0
685,66.0,0.0,180.0,3.0,64.0
686,54.0,0.0,180.0,14.0,64.0
687,73.0,12.0,150.0,10.0,64.0
688,70.0,0.0,90.0,12.0,64.0
689,73.0,60.0,90.0,11.0,64.0
690,66.0,48.0,180.0,13.0,64.0
691,70.0,0.0,90.0,12.0,64.0
692,66.0,0.0,90.0,11.0,64.0
693,73.0,72.0,90.0,11.0,64.0
694,66.0,0.0,180.0,13.0,64.0
695,66.0,0.0,180.0,4.0,64.0
696,70.0,0.0,180.0,4.0,64.0
697,66.0,72.0,90.0,11.0,64.0
698,66.0,6.0,90.0,5.0,64.0
699,54.0,0.0,90.0,6.0,64.0
700,78.0,0.0,90.0,5.0,64.0
701,73.0,0.0,90.0,11.0,64.0
702,66.0,24.0,180.0,3.0,64.0
703,70.0,0.0,90.0,12.0,64.0
704,54.0,0.0,180.0,14.0,64.0
705,70.0,12.0,90.0,10.0,64.0
706,70.0,0.0,90.0,12.0,64.0
707,66.0,0.0,90.0,11.0,64.0
708,54.0,120.0,90.0,6.0,64.0
709,78.0,6.0,90.0,5.0,64.0
710,66.0,0.0,90.0,5.0,64.0
711,73.0,0.0,90.0,11.0,64.0
712,66.0,12.0,90.0,10.0,64.0
713,87.0,96.0,960.0,0.0,64.0
714,54.0,48.0,180.0,3.0,64.0
715,80.0,0.0,3780.0,1.0,64.0
716,87.0,0.0,960.0,1.0,64.0
717,68.0,0.0,90.0,12.0,64.0
718,66.0,0.0,330.0,4.0,64.0
719,66.0,36.0,540.0,5.0,64.0
720,59.0,12.0,150.0,10.0,64.0
721,78.0,0.0,540.0,5.0,64.0
722,54.0,0.0,570.0,6.0,64.0
723,71.0,30.0,3660.0,2.0,64.0
724,68.0,0.0,330.0,4.0,64.0
725,83.0,6.0,3780.0,0.0,64.0
726,54.0,0.0,180.0,13.0,64.0
727,42.0,0.0,180.0,14.0,64.0
728,71.0,60.0,90.0,11.0,64.0
729,75.0,0.0,90.0,11.0,64.0
730,75.0,0.0,960.0,2.0,64.0
731,68.0,120.0,90.0,12.0,64.0
732,71.0,0.0,90.0,11.0,64.0
733,75.0,0.0,90.0,11.0,64.0
734,68.0,0.0,90.0,12.0,64.0
735,87.0,12.0,150.0,10.0,64.0
736,66.0,48.0,180.0,13.0,64.0
737,71.0,60.0,90.0,11.0,64.0
738,66.0,0.0,180.0,3.0,64.0
739,75.0,0.0,90.0,11.0,64.0
740,54.0,0.0,180.0,14.0,64.0
741,68.0,84.0,90.0,12.0,64.0
742,71.0,0.0,90.0,11.0,64.0
743,75.0,0.0,90.0,11.0,64.0
744,66.0,0.0,180.0,4.0,64.0
745,68.0,0.0,180.0,4.0,64.0
746,75.0,0.0,90.0,11.0,64.0
747,66.0,48.0,180.0,13.0,64.0
748,68.0,72.0,90.0,12.0,64.0
749,66.0,0.0,180.0,3.0,64.0
750,71.0,0.0,90.0,11.0,64.0
751,54.0,0.0,180.0,14.0,64.0
752,68.0,0.0,90.0,12.0,64.0
753,71.0,0.0,90.0,11.0,64.0
754,75.0,114.0,90.0,11.0,64.0
755,68.0,0.0,180.0,4.0,64.0
756,54.0,0.0,180.0,14.0,64.0
757,66.0,42.0,180.0,13.0,64.0
758,75.0,0.0,90.0,11.0,64.0
759,66.0,0.0,180.0,4.0,64.0
760,71.0,0.0,90.0,11.0,64.0
761,54.0,0.0,90.0,6.0,64.0
762,75.0,12.0,150.0,10.0,64.0
763,78.0,6.0,90.0,5.0,64.0
764,66.0,0.0,90.0,5.0,64.0
765,66.0,0.0,180.0,3.0,64.0
766,68.0,60.0,90.0,12.0,64.0
767,66.0,0.0,90.0,5.0,64.0
768,78.0,6.0,90.0,5.0,64.0
769,75.0,0.0,90.0,11.0,64.0
770,71.0,24.0,90.0,11.0,64.0
771,68.0,0.0,90.0,12.0,64.0
772,54.0,0.0,90.0,6.0,64.0
773,71.0,0.0,90.0,11.0,64.0
774,54.0,0.0,180.0,3.0,64.0
775,54.0,48.0,180.0,13.0,64.0
776,74.0,60.0,90.0,11.0,64.0
777,66.0,0.0,360.0,5.0,64.0
778,42.0,0.0,180.0,14.0,64.0
779,74.0,48.0,780.0,2.0,64.0
780,54.0,12.0,390.0,6.0,64.0
781,68.0,0.0,90.0,12.0,64.0
782,78.0,24.0,360.0,5.0,64.0
783,66.0,0.0,330.0,4.0,64.0
784,68.0,0.0,330.0,4.0,64.0
785,68.0,12.0,150.0,10.0,64.0
786,86.0,24.0,900.0,1.0,64.0
787,86.0,0.0,900.0,0.0,64.0
788,74.0,0.0,90.0,11.0,64.0
789,71.0,120.0,90.0,11.0,64.0
790,68.0,0.0,90.0,12.0,64.0
791,54.0,0.0,180.0,14.0,64.0
792,66.0,0.0,180.0,13.0,64.0
793,66.0,48.0,180.0,3.0,64.0
794,83.0,12.0,150.0,10.0,64.0
795,68.0,0.0,90.0,12.0,64.0
796,71.0,0.0,90.0,11.0,64.0
797,74.0,24.0,90.0,11.0,64.0
798,68.0,0.0,90.0,12.0,64.0
799,74.0,120.0,90.0,11.0,64.0
800,71.0,0.0,90.0,11.0,64.0
801,66.0,48.0,180.0,3.0,64.0
802,78.0,24.0,360.0,5.0,64.0
803,66.0,0.0,180.0,13.0,64.0
804,74.0,0.0,90.0,11.0,64.0
805,54.0,0.0,180.0,14.0,64.0
806,54.0,12.0,390.0,6.0,64.0
807,71.0,0.0,90.0,11.0,64.0
808,66.0,0.0,360.0,5.0,64.0
809,68.0,0.0,180.0,4.0,64.0
810,68.0,72.0,90.0,12.0,64.0
811,66.0,0.0,180.0,4.0,64.0
812,68.0,0.0,90.0,12.0,64.0
813,71.0,0.0,90.0,11.0,64.0
814,74.0,72.0,90.0,11.0,64.0
815,62.0,12.0,150.0,10.0,64.0
816,66.0,0.0,180.0,4.0,64.0
817,66.0,0.0,180.0,3.0,64.0
818,74.0,0.0,90.0,11.0,64.0
819,66.0,24.0,180.0,13.0,64.0
820,68.0,0.0,90.0,12.0,64.0
821,71.0,24.0,90.0,11.0,64.0
822,54.0,0.0,180.0,14.0,64.0
823,68.0,0.0,180.0,4.0,64.0
824,74.0,0.0,90.0,11.0,64.0
825,71.0,120.0,90.0,11.0,64.0
826,68.0,0.0,90.0,12.0,64.0
827,61.0,0.0,360.0,5.0,64.0
828,53.0,0.0,180.0,13.0,64.0
829,53.0,48.0,180.0,3.0,64.0
830,41.0,0.0,180.0,14.0,64.0
831,71.0,60.0,90.0,11.0,64.0
832,73.0,0.0,90.0,11.0,64.0
833,92.0,0.0,1860.0,0.0,64.0
834,73.0,24.0,360.0,5.0,64.0
835,68.0,0.0,330.0,4.0,64.0
836,85.0,0.0,3450.0,1.0,64.0
837,61.0,0.0,330.0,4.0,64.0
838,68.0,0.0,90.0,12.0,64.0
839,61.0,0.0,90.0,12.0,64.0
840,49.0,12.0,390.0,6.0,64.0
841,73.0,0.0,3450.0,2.0,64.0
842,61.0,12.0,150.0,10.0,64.0
843,68.0,0.0,90.0,12.0,64.0
844,71.0,0.0,90.0,11.0,64.0
845,73.0,0.0,90.0,11.0,64.0
846,61.0,120.0,90.0,12.0,64.0
847,65.0,48.0,180.0,3.0,64.0
848,68.0,0.0,90.0,12.0,64.0
849,61.0,24.0,90.0,12.0,64.0
850,53.0,0.0,180.0,14.0,64.0
851,92.0,12.0,150.0,10.0,64.0
852,65.0,0.0,180.0,13.0,64.0
853,73.0,0.0,90.0,11.0,64.0
854,71.0,0.0,90.0,11.0,64.0
855,68.0,0.0,90.0,12.0,64.0
856,61.0,0.0,90.0,12.0,64.0
857,73.0,0.0,90.0,11.0,64.0
858,71.0,120.0,90.0,11.0,64.0
859,73.0,0.0,90.0,11.0,64.0
860,71.0,0.0,90.0,11.0,64.0
861,65.0,0.0,180.0,13.0,64.0
862,61.0,72.0,90.0,12.0,64.0
863,65.0,0.0,180.0,3.0,64.0
864,68.0,0.0,90.0,12.0,64.0
865,68.0,0.0,180.0,4.0,64.0
866,61.0,0.0,180.0,4.0,64.0
867,53.0,48.0,180.0,14.0,64.0
868,68.0,102.0,90.0,12.0,64.0
869,71.0,0.0,90.0,11.0,64.0
870,73.0,0.0,90.0,11.0,64.0
871,61.0,0.0,90.0,12.0,64.0
872,65.0,0.0,180.0,13.0,64.0
873,73.0,0.0,90.0,11.0,64.0
874,71.0,0.0,90.0,11.0,64.0
875,65.0,30.0,180.0,3.0,64.0
876,68.0,0.0,180.0,4.0,64.0
877,61.0,0.0,180.0,4.0,64.0
878,83.0,18.0,90.0,10.0,64.0
879,68.0,72.0,90.0,12.0,64.0
880,61.0,0.0,90.0,12.0,64.0
881,53.0,0.0,180.0,14.0,64.0
882,73.0,0.0,90.0,11.0,64.0
883,61.0,0.0,90.0,12.0,64.0
884,68.0,120.0,90.0,12.0,64.0
885,71.0,0.0,90.0,11.0,64.0
886,80.0,18.0,90.0,10.0,64.0
887,53.0,0.0,180.0,3.0,64.0
888,61.0,0.0,330.0,4.0,64.0
889,68.0,0.0,90.0,12.0,64.0
890,68.0,0.0,330.0,4.0,64.0
891,41.0,0.0,180.0,14.0,64.0
892,73.0,0.0,90.0,11.0,64.0
893,71.0,60.0,90.0,11.0,64.0
894,77.0,12.0,150.0,10.0,64.0
895,61.0,0.0,90.0,12.0,64.0
896,53.0,48.0,180.0,13.0,64.0
897,73.0,102.0,90.0,11.0,64.0
898,71.0,0.0,90.0,11.0,64.0
899,68.0,0.0,90.0,12.0,64.0
900,61.0,0.0,90.0,12.0,64.0
901,53.0,0.0,180.0,14.0,64.0
902,71.0,72.0,90.0,11.0,64.0
903,73.0,0.0,90.0,11.0,64.0
904,61.0,0.0,90.0,12.0,64.0
905,68.0,0.0,90.0,12.0,64.0
906,80.0,18.0,90.0,10.0,64.0
907,65.0,0.0,180.0,13.0,64.0
908,65.0,30.0,180.0,3.0,64.0
909,71.0,0.0,90.0,11.0,64.0
910,61.0,120.0,90.0,12.0,64.0
911,68.0,0.0,90.0,12.0,64.0
912,77.0,18.0,90.0,10.0,64.0
913,73.0,0.0,90.0,11.0,64.0
914,65.0,48.0,180.0,13.0,64.0
915,73.0,12.0,150.0,10.0,64.0
916,65.0,0.0,180.0,3.0,64.0
917,53.0,0.0,180.0,14.0,64.0
918,73.0,0.0,90.0,11.0,64.0
919,71.0,60.0,90.0,11.0,64.0
920,68.0,0.0,90.0,12.0,64.0
921,61.0,0.0,90.0,12.0,64.0
922,61.0,0.0,90.0,12.0,64.0
923,68.0,0.0,90.0,12.0,64.0
924,73.0,72.0,90.0,11.0,64.0
925,71.0,0.0,90.0,11.0,64.0
926,71.0,72.0,90.0,11.0,64.0
927,71.0,12.0,90.0,10.0,64.0
928,65.0,24.0,180.0,13.0,64.0
929,61.0,6.0,90.0,5.0,64.0
930,73.0,0.0,90.0,5.0,64.0
931,49.0,0.0,90.0,6.0,64.0
932,65.0,0.0,180.0,3.0,64.0
933,53.0,0.0,180.0,14.0,64.0
934,61.0,0.0,180.0,4.0,64.0
935,68.0,0.0,180.0,4.0,64.0
936,68.0,0.0,90.0,12.0,64.0
937,61.0,0.0,90.0,12.0,64.0
938,73.0,0.0,90.0,11.0,64.0
939,71.0,0.0,90.0,11.0,64.0
940,61.0,0.0,90.0,5.0,64.0
941,68.0,0.0,90.0,12.0,64.0
942,73.0,0.0,90.0,11.0,64.0
943,61.0,0.0,90.0,12.0,64.0
944,73.0,6.0,90.0,5.0,64.0
945,68.0,12.0,90.0,10.0,64.0
946,49.0,120.0,90.0,6.0,64.0
947,54.0,0.0,330.0,4.0,64.0
948,70.0,60.0,90.0,11.0,64.0
949,73.0,0.0,90.0,11.0,64.0
950,66.0,60.0,330.0,4.0,64.0
951,73.0,36.0,540.0,5.0,64.0
952,42.0,0.0,180.0,14.0,64.0
953,70.0,12.0,150.0,10.0,64.0
954,66.0,0.0,90.0,12.0,64.0
955,70.0,0.0,1530.0,2.0,64.0
956,85.0,0.0,1350.0,0.0,64.0
957,82.0,0.0,1350.0,0.0,64.0
958,82.0,0.0,1530.0,1.0,64.0
959,61.0,0.0,90.0,12.0,64.0
960,66.0,0.0,540.0,5.0,64.0
961,54.0,24.0,180.0,13.0,64.0
962,54.0,24.0,180.0,3.0,64.0
963,54.0,0.0,570.0,6.0,64.0
964,70.0,120.0,90.0,11.0,64.0
965,61.0,0.0,90.0,12.0,64.0
966,73.0,0.0,90.0,11.0,64.0
967,66.0,0.0,90.0,12.0,64.0
968,66.0,0.0,180.0,13.0,64.0
969,66.0,0.0,90.0,12.0,64.0
970,61.0,0.0,90.0,12.0,64.0
971,85.0,12.0,150.0,10.0,64.0
972,73.0,0.0,90.0,11.0,64.0
973,70.0,0.0,90.0,11.0,64.0
974,54.0,24.0,180.0,14.0,64.0
975,66.0,24.0,180.0,3.0,64.0
976,66.0,84.0,90.0,12.0,64.0
977,73.0,0.0,90.0,11.0,64.0
978,70.0,0.0,90.0,11.0,64.0
979,61.0,0.0,90.0,12.0,64.0
980,66.0,72.0,90.0,12.0,64.0
981,54.0,0.0,180.0,14.0,64.0
982,61.0,0.0,90.0,12.0,64.0
983,66.0,24.0,180.0,3.0,64.0
984,66.0,0.0,180.0,13.0,64.0
985,54.0,24.0,180.0,4.0,64.0
986,66.0,0.0,180.0,4.0,64.0
987,73.0,0.0,90.0,11.0,64.0
988,70.0,0.0,90.0,11.0,64.0
989,73.0,0.0,90.0,11.0,64.0
990,66.0,0.0,90.0,12.0,64.0
991,61.0,0.0,90.0,12.0,64.0
992,70.0,114.0,90.0,11.0,64.0
993,70.0,12.0,150.0,10.0,64.0
994,66.0,0.0,180.0,13.0,64.0
995,66.0,18.0,180.0,3.0,64.0
996,66.0,0.0,180.0,4.0,64.0
997,54.0,24.0,180.0,4.0,64.0
998,61.0,0.0,90.0,12.0,64.0
999,54.0,0.0,180.0,14.0,64.0
1000,66.0,6.0,90.0,5.0,64.0
1001,78.0,0.0,90.0,5.0,64.0
1002,73.0,60.0,90.0,11.0,64.0
1003,70.0,0.0,90.0,11.0,64.0
1004,54.0,0.0,90.0,6.0,64.0
1005,66.0,0.0,90.0,12.0,64.0
1006,73.0,0.0,90.0,11.0,64.0
1007,54.0,120.0,90.0,6.0,64.0
1008,66.0,0.0,90.0,12.0,64.0
1009,61.0,0.0,90.0,12.0,64.0
1010,78.0,6.0,90.0,5.0,64.0
1011,66.0,0.0,90.0,5.0,64.0
1012,70.0,0.0,90.0,11.0,64.0
1013,66.0,0.0,390.0,5.0,64.0
1014,54.0,0.0,150.0,3.0,64.0
1015,54.0,0.0,390.0,6.0,64.0
1016,54.0,12.0,390.0,4.0,64.0
1017,66.0,0.0,390.0,4.0,64.0
1018,54.0,0.0,150.0,13.0,64.0
1019,73.0,60.0,90.0,11.0,64.0
1020,78.0,0.0,390.0,5.0,64.0
1021,61.0,0.0,90.0,12.0,64.0
1022,66.0,0.0,90.0,12.0,64.0
1023,42.0,0.0,150.0,14.0,64.0
1024,66.0,60.0,150.0,10.0,64.0
1025,70.0,0.0,90.0,11.0,64.0
1026,61.0,0.0,90.0,12.0,64.0
1027,66.0,0.0,90.0,12.0,64.0
1028,70.0,120.0,90.0,11.0,64.0
1029,73.0,0.0,90.0,11.0,64.0
1030,66.0,0.0,90.0,12.0,64.0
1031,61.0,48.0,90.0,12.0,64.0
1032,70.0,0.0,90.0,11.0,64.0
1033,66.0,60.0,150.0,13.0,64.0
1034,90.0,0.0,150.0,10.0,64.0
1035,54.0,0.0,150.0,14.0,64.0
1036,73.0,0.0,90.0,11.0,64.0
1037,66.0,0.0,150.0,3.0,64.0
1038,61.0,120.0,90.0,12.0,64.0
1039,66.0,0.0,90.0,12.0,64.0
1040,73.0,0.0,90.0,11.0,64.0
1041,70.0,0.0,90.0,11.0,64.0
1042,66.0,0.0,150.0,4.0,64.0
1043,78.0,0.0,390.0,5.0,64.0
1044,66.0,12.0,390.0,5.0,64.0
1045,54.0,0.0,150.0,4.0,64.0
1046,54.0,0.0,150.0,14.0,64.0
1047,66.0,0.0,150.0,13.0,64.0
1048,66.0,60.0,150.0,3.0,64.0
1049,85.0,0.0,390.0,0.0,64.0
1050,70.0,60.0,90.0,11.0,64.0
1051,73.0,0.0,90.0,11.0,64.0
1052,61.0,0.0,90.0,12.0,64.0
1053,66.0,0.0,90.0,12.0,64.0
1054,61.0,102.0,90.0,12.0,64.0
1055,66.0,0.0,90.0,12.0,64.0
1056,70.0,0.0,90.0,11.0,64.0
1057,73.0,0.0,90.0,11.0,64.0
1058,73.0,42.0,150.0,2.0,64.0
1059,90.0,18.0,90.0,10.0,64.0
1060,69.0,0.0,90.0,12.0,64.0
1061,66.0,0.0,150.0,4.0,64.0
1062,57.0,0.0,150.0,13.0,64.0
1063,78.0,0.0,150.0,1.0,64.0
1064,45.0,0.0,150.0,14.0,64.0
1065,61.0,0.0,150.0,4.0,64.0
1066,85.0,48.0,90.0,11.0,64.0
1067,57.0,0.0,150.0,3.0,64.0
1068,90.0,18.0,90.0,10.0,64.0
1069,85.0,0.0,90.0,11.0,64.0
1070,69.0,120.0,90.0,12.0,64.0
1071,72.0,0.0,1140.0,2.0,64.0
1072,56.0,0.0,150.0,13.0,64.0
1073,90.0,0.0,1140.0,0.0,64.0
1074,84.0,0.0,1140.0,0.0,64.0
1075,68.0,0.0,90.0,12.0,64.0
1076,75.0,0.0,1140.0,2.0,64.0
1077,80.0,0.0,3780.0,5.0,64.0
1078,68.0,48.0,570.0,4.0,64.0
1079,56.0,0.0,150.0,3.0,64.0
1080,90.0,60.0,150.0,10.0,64.0
1081,44.0,0.0,150.0,14.0,64.0
1082,84.0,0.0,90.0,11.0,64.0
1083,87.0,0.0,1140.0,1.0,64.0
1084,78.0,24.0,1140.0,1.0,64.0
1085,75.0,60.0,90.0,11.0,64.0
1086,84.0,0.0,90.0,11.0,64.0
1087,68.0,120.0,90.0,12.0,64.0
1088,75.0,0.0,90.0,11.0,64.0
1089,68.0,60.0,90.0,12.0,64.0
1090,48.0,0.0,150.0,14.0,64.0
1091,60.0,60.0,150.0,3.0,64.0
1092,75.0,12.0,390.0,10.0,64.0
1093,75.0,0.0,90.0,11.0,64.0
1094,84.0,0.0,90.0,11.0,64.0
1095,60.0,0.0,150.0,13.0,64.0
1096,75.0,0.0,90.0,11.0,64.0
1097,68.0,120.0,90.0,12.0,64.0
1098,84.0,0.0,90.0,11.0,64.0
1099,51.0,60.0,150.0,14.0,64.0
1100,63.0,0.0,150.0,3.0,64.0
1101,68.0,0.0,90.0,12.0,64.0
1102,63.0,0.0,150.0,13.0,64.0
1103,75.0,0.0,90.0,11.0,64.0
1104,84.0,0.0,90.0,11.0,64.0
1105,84.0,0.0,90.0,11.0,64.0
1106,75.0,102.0,90.0,11.0,64.0
1107,68.0,0.0,90.0,12.0,64.0
1108,84.0,0.0,90.0,11.0,64.0
1109,75.0,60.0,90.0,11.0,64.0
1110,68.0,18.0,90.0,4.0,64.0
1111,90.0,0.0,420.0,10.0,64.0
1112,60.0,0.0,150.0,3.0,64.0
1113,60.0,42.0,150.0,13.0,64.0
1114,48.0,0.0,150.0,14.0,64.0
1115,68.0,0.0,90.0,12.0,64.0
1116,75.0,0.0,90.0,11.0,64.0
1117,84.0,0.0,90.0,11.0,64.0
1118,68.0,120.0,90.0,12.0,64.0
1119,68.0,18.0,90.0,4.0,64.0
1120,44.0,0.0,150.0,14.0,64.0
1121,56.0,0.0,150.0,3.0,64.0
1122,56.0,0.0,150.0,13.0,64.0
1123,68.0,60.0,90.0,12.0,64.0
1124,84.0,0.0,90.0,11.0,64.0
1125,75.0,0.0,90.0,11.0,64.0
1126,68.0,36.0,150.0,4.0,64.0
1127,68.0,0.0,90.0,12.0,64.0
1128,84.0,120.0,90.0,11.0,64.0
1129,75.0,0.0,90.0,11.0,64.0
1130,60.0,0.0,150.0,13.0,64.0
1131,75.0,0.0,90.0,11.0,64.0
1132,84.0,60.0,90.0,11.0,64.0
1133,48.0,60.0,150.0,14.0,64.0
1134,72.0,0.0,390.0,2.0,64.0
1135,75.0,0.0,390.0,2.0,64.0
1136,78.0,12.0,390.0,1.0,64.0
1137,87.0,0.0,390.0,1.0,64.0
1138,68.0,0.0,90.0,12.0,64.0
1139,84.0,0.0,390.0,0.0,64.0
1140,60.0,0.0,150.0,3.0,64.0
1141,90.0,0.0,390.0,0.0,64.0
1142,78.0,0.0,390.0,10.0,64.0
1143,68.0,0.0,150.0,4.0,64.0
1144,75.0,0.0,90.0,11.0,64.0
1145,84.0,120.0,90.0,11.0,64.0
1146,68.0,0.0,90.0,12.0,64.0
1147,84.0,48.0,90.0,11.0,64.0
1148,63.0,60.0,150.0,13.0,64.0
1149,68.0,0.0,90.0,12.0,64.0
1150,63.0,0.0,150.0,3.0,64.0
1151,75.0,0.0,90.0,11.0,64.0
1152,51.0,0.0,150.0,14.0,64.0
1153,68.0,0.0,150.0,4.0,64.0
1154,84.0,0.0,90.0,11.0,64.0
1155,68.0,0.0,90.0,12.0,64.0
1156,75.0,102.0,90.0,11.0,64.0
1157,48.0,0.0,150.0,14.0,64.0
1158,60.0,0.0,150.0,3.0,64.0
1159,72.0,0.0,180.0,2.0,64.0
1160,60.0,36.0,150.0,13.0,64.0
1161,78.0,0.0,180.0,1.0,64.0
1162,90.0,18.0,90.0,10.0,64.0
1163,68.0,0.0,90.0,12.0,64.0
1164,87.0,6.0,180.0,1.0,64.0
1165,75.0,60.0,90.0,11.0,64.0
1166,84.0,0.0,180.0,0.0,64.0
1167,90.0,0.0,180.0,0.0,64.0
1168,84.0,0.0,90.0,11.0,64.0
1169,75.0,0.0,180.0,2.0,64.0
1170,68.0,0.0,150.0,4.0,64.0
1171,90.0,18.0,90.0,10.0,64.0
1172,84.0,0.0,90.0,11.0,64.0
1173,75.0,0.0,90.0,11.0,64.0
1174,68.0,120.0,90.0,12.0,64.0
1175,80.0,0.0,1140.0,2.0,64.0
1176,73.0,0.0,1140.0,2.0,64.0
1177,56.0,0.0,150.0,3.0,64.0
1178,44.0,36.0,150.0,14.0,64.0
1179,89.0,24.0,180.0,10.0,64.0
1180,56.0,0.0,150.0,13.0,64.0
1181,89.0,24.0,1140.0,0.0,64.0
1182,85.0,0.0,1140.0,0.0,64.0
1183,73.0,0.0,90.0,11.0,64.0
1184,85.0,0.0,90.0,11.0,64.0
1185,68.0,60.0,90.0,12.0,64.0
1186,85.0,0.0,1140.0,1.0,64.0
1187,77.0,0.0,1140.0,1.0,64.0
1188,68.0,0.0,570.0,4.0,64.0
1189,68.0,0.0,90.0,12.0,64.0
1190,85.0,120.0,90.0,11.0,64.0
1191,73.0,0.0,90.0,11.0,64.0
1192,49.0,0.0,150.0,14.0,64.0
1193,77.0,12.0,390.0,10.0,64.0
1194,61.0,0.0,150.0,13.0,64.0
1195,73.0,60.0,90.0,11.0,64.0
1196,85.0,0.0,90.0,11.0,64.0
1197,68.0,0.0,90.0,12.0,64.0
1198,61.0,60.0,150.0,3.0,64.0
1199,85.0,0.0,90.0,11.0,64.0
1200,73.0,0.0,90.0,11.0,64.0
1201,68.0,120.0,90.0,12.0,64.0
1202,85.0,0.0,90.0,11.0,64.0
1203,73.0,0.0,90.0,11.0,64.0
1204,65.0,0.0,150.0,13.0,64.0
1205,68.0,48.0,90.0,12.0,64.0
1206,65.0,60.0,150.0,3.0,64.0
1207,53.0,0.0,150.0,14.0,64.0
1208,73.0,0.0,90.0,11.0,64.0
1209,85.0,0.0,90.0,11.0,64.0
1210,68.0,102.0,90.0,12.0,64.0
1211,61.0,36.0,150.0,13.0,64.0
1212,68.0,0.0,90.0,12.0,64.0
1213,68.0,18.0,90.0,4.0,64.0
1214,89.0,6.0,180.0,10.0,64.0
1215,61.0,0.0,150.0,3.0,64.0
1216,73.0,60.0,90.0,11.0,64.0
1217,85.0,0.0,90.0,11.0,64.0
1218,49.0,0.0,150.0,14.0,64.0
1219,73.0,0.0,90.0,11.0,64.0
1220,85.0,0.0,90.0,11.0,64.0
1221,68.0,18.0,90.0,4.0,64.0
1222,68.0,120.0,90.0,12.0,64.0
1223,68.0,0.0,150.0,4.0,64.0
1224,89.0,0.0,180.0,10.0,64.0
1225,56.0,36.0,150.0,3.0,64.0
1226,68.0,60.0,90.0,12.0,64.0
1227,56.0,0.0,150.0,13.0,64.0
1228,85.0,0.0,90.0,11.0,64.0
1229,73.0,0.0,90.0,11.0,64.0
1230,44.0,0.0,150.0,14.0,64.0
1231,68.0,120.0,90.0,12.0,64.0
1232,85.0,0.0,90.0,11.0,64.0
1233,73.0,0.0,90.0,11.0,64.0
1234,77.0,0.0,390.0,10.0,64.0
1235,49.0,0.0,150.0,14.0,64.0
1236,73.0,60.0,90.0,11.0,64.0
1237,85.0,0.0,90.0,11.0,64.0
1238,80.0,12.0,390.0,2.0,64.0
1239,73.0,0.0,390.0,2.0,64.0
1240,85.0,0.0,390.0,0.0,64.0
1241,68.0,0.0,150.0,4.0,64.0
1242,89.0,0.0,390.0,0.0,64.0
1243,68.0,0.0,90.0,12.0,64.0
1244,61.0,60.0,150.0,13.0,64.0
1245,61.0,0.0,150.0,3.0,64.0
1246,77.0,0.0,390.0,1.0,64.0
1247,85.0,0.0,390.0,1.0,64.0
1248,85.0,0.0,90.0,11.0,64.0
1249,68.0,0.0,90.0,12.0,64.0
1250,73.0,120.0,90.0,11.0,64.0
1251,68.0,0.0,150.0,4.0,64.0
1252,53.0,60.0,150.0,14.0,64.0
1253,68.0,0.0,90.0,12.0,64.0
1254,65.0,0.0,150.0,13.0,64.0
1255,85.0,0.0,90.0,11.0,64.0
1256,65.0,0.0,150.0,3.0,64.0
1257,73.0,48.0,90.0,11.0,64.0
1258,68.0,0.0,90.0,12.0,64.0
1259,85.0,0.0,90.0,11.0,64.0
1260,73.0,120.0,90.0,11.0,64.0
1261,68.0,0.0,90.0,12.0,64.0
1262,85.0,60.0,90.0,11.0,64.0
1263,80.0,0.0,180.0,2.0,64.0
1264,73.0,0.0,90.0,11.0,64.0
1265,68.0,0.0,150.0,4.0,64.0
1266,85.0,0.0,180.0,1.0,64.0
1267,89.0,0.0,90.0,10.0,64.0
1268,77.0,24.0,180.0,1.0,64.0
1269,73.0,0.0,180.0,2.0,64.0
1270,49.0,0.0,150.0,14.0,64.0
1271,89.0,0.0,180.0,0.0,64.0
1272,61.0,36.0,150.0,3.0,64.0
1273,61.0,0.0,150.0,13.0,64.0
1274,85.0,0.0,180.0,0.0,64.0
1275,73.0,120.0,90.0,11.0,64.0
1276,89.0,0.0,90.0,10.0,64.0
1277,68.0,0.0,90.0,12.0,64.0
1278,85.0,0.0,90.0,11.0,64.0
1279,55.0,0.0,180.0,13.0,64.0
1280,73.0,12.0,1350.0,5.0,64.0
1281,67.0,0.0,90.0,12.0,64.0
1282,43.0,0.0,180.0,14.0,64.0
1283,55.0,24.0,180.0,3.0,64.0
1284,73.0,96.0,90.0,11.0,64.0
1285,82.0,0.0,90.0,11.0,64.0
1286,76.0,24.0,1140.0,2.0,64.0
1287,85.0,0.0,1140.0,1.0,64.0
1288,82.0,0.0,1140.0,1.0,64.0
1289,88.0,0.0,180.0,10.0,64.0
1290,61.0,0.0,570.0,4.0,64.0
1291,73.0,0.0,1140.0,2.0,64.0
1292,70.0,0.0,570.0,4.0,64.0
1293,85.0,0.0,1140.0,0.0,64.0
1294,88.0,0.0,1140.0,0.0,64.0
1295,67.0,120.0,90.0,12.0,64.0
1296,73.0,0.0,90.0,11.0,64.0
1297,82.0,0.0,90.0,11.0,64.0
1298,73.0,0.0,90.0,11.0,64.0
1299,46.0,0.0,180.0,14.0,64.0
1300,67.0,96.0,90.0,12.0,64.0
1301,58.0,24.0,180.0,13.0,64.0
1302,76.0,48.0,390.0,10.0,64.0
1303,58.0,0.0,180.0,3.0,64.0
1304,82.0,0.0,90.0,11.0,64.0
1305,82.0,120.0,90.0,11.0,64.0
1306,73.0,0.0,90.0,11.0,64.0
1307,67.0,0.0,90.0,12.0,64.0
1308,61.0,0.0,180.0,13.0,64.0
1309,67.0,0.0,90.0,12.0,64.0
1310,61.0,0.0,180.0,3.0,64.0
1311,49.0,24.0,180.0,14.0,64.0
1312,82.0,0.0,90.0,11.0,64.0
1313,73.0,48.0,90.0,11.0,64.0
1314,73.0,0.0,90.0,11.0,64.0
1315,82.0,0.0,90.0,11.0,64.0
1316,67.0,102.0,90.0,12.0,64.0
1317,82.0,96.0,90.0,11.0,64.0
1318,73.0,0.0,90.0,11.0,64.0
1319,61.0,18.0,90.0,4.0,64.0
1320,70.0,0.0,90.0,4.0,64.0
1321,88.0,0.0,90.0,10.0,64.0
1322,58.0,0.0,180.0,3.0,64.0
1323,58.0,6.0,180.0,13.0,64.0
1324,46.0,0.0,180.0,14.0,64.0
1325,67.0,0.0,90.0,12.0,64.0
1326,73.0,120.0,90.0,11.0,64.0
1327,82.0,0.0,90.0,11.0,64.0
1328,67.0,0.0,90.0,12.0,64.0
1329,70.0,0.0,90.0,4.0,64.0
1330,88.0,0.0,90.0,10.0,64.0
1331,61.0,18.0,90.0,4.0,64.0
1332,82.0,0.0,90.0,11.0,64.0
1333,55.0,0.0,180.0,13.0,64.0
1334,73.0,0.0,90.0,11.0,64.0
1335,67.0,60.0,90.0,12.0,64.0
1336,55.0,0.0,180.0,3.0,64.0
1337,61.0,36.0,150.0,4.0,64.0
1338,88.0,0.0,180.0,10.0,64.0
1339,70.0,0.0,150.0,4.0,64.0
1340,43.0,0.0,180.0,14.0,64.0
1341,67.0,0.0,90.0,12.0,64.0
1342,73.0,120.0,90.0,11.0,64.0
1343,82.0,0.0,90.0,11.0,64.0
1344,70.0,36.0,150.0,4.0,64.0
1345,67.0,0.0,90.0,12.0,64.0
1346,73.0,0.0,390.0,10.0,64.0
1347,58.0,0.0,180.0,3.0,64.0
1348,82.0,48.0,90.0,11.0,64.0
1349,85.0,0.0,390.0,1.0,64.0
1350,73.0,0.0,90.0,11.0,64.0
1351,46.0,24.0,180.0,14.0,64.0
1352,58.0,0.0,180.0,13.0,64.0
1353,85.0,0.0,390.0,0.0,64.0
1354,88.0,0.0,390.0,0.0,64.0
1355,76.0,12.0,390.0,2.0,64.0
1356,73.0,0.0,390.0,2.0,64.0
1357,61.0,0.0,150.0,4.0,64.0
1358,82.0,0.0,390.0,1.0,64.0
1359,73.0,120.0,90.0,11.0,64.0
1360,82.0,0.0,90.0,11.0,64.0
1361,67.0,0.0,90.0,12.0,64.0
1362,82.0,0.0,90.0,11.0,64.0
1363,49.0,24.0,180.0,14.0,64.0
1364,73.0,12.0,390.0,5.0,64.0
1365,61.0,0.0,180.0,13.0,64.0
1366,73.0,48.0,90.0,11.0,64.0
1367,61.0,36.0,150.0,4.0,64.0
1368,67.0,0.0,90.0,12.0,64.0
1369,61.0,0.0,180.0,3.0,64.0
1370,70.0,0.0,150.0,4.0,64.0
1371,73.0,120.0,90.0,11.0,64.0
1372,82.0,0.0,90.0,11.0,64.0
1373,67.0,0.0,90.0,12.0,64.0
1374,76.0,0.0,180.0,2.0,64.0
1375,67.0,48.0,90.0,12.0,64.0
1376,85.0,0.0,90.0,10.0,64.0
1377,73.0,0.0,180.0,2.0,64.0
1378,73.0,0.0,90.0,11.0,64.0
1379,82.0,0.0,180.0,1.0,64.0
1380,85.0,0.0,180.0,1.0,64.0
1381,82.0,0.0,90.0,11.0,64.0
1382,58.0,0.0,180.0,3.0,64.0
1383,85.0,24.0,180.0,0.0,64.0
1384,70.0,36.0,150.0,4.0,64.0
1385,61.0,0.0,150.0,4.0,64.0
1386,55.0,0.0,180.0,13.0,64.0
1387,43.0,0.0,180.0,14.0,64.0
1388,82.0,120.0,90.0,11.0,64.0
1389,73.0,0.0,90.0,11.0,64.0
1390,85.0,0.0,90.0,10.0,64.0
1391,67.0,0.0,90.0,12.0,64.0
1392,80.0,0.0,2310.0,0.0,64.0
1393,92.0,0.0,2310.0,0.0,64.0
1394,56.0,0.0,300.0,3.0,64.0
1395,72.0,36.0,150.0,2.0,64.0
1396,80.0,0.0,390.0,5.0,64.0
1397,68.0,60.0,90.0,12.0,64.0
1398,84.0,24.0,180.0,10.0,64.0
1399,80.0,0.0,390.0,1.0,64.0
1400,84.0,12.0,390.0,1.0,64.0
1401,44.0,0.0,300.0,14.0,64.0
1402,75.0,0.0,150.0,2.0,64.0
1403,84.0,0.0,90.0,11.0,64.0
1404,56.0,24.0,300.0,13.0,64.0
1405,75.0,0.0,90.0,12.0,64.0
1406,87.0,96.0,90.0,11.0,64.0
1407,84.0,48.0,90.0,11.0,64.0
1408,72.0,0.0,90.0,12.0,64.0
1409,68.0,60.0,150.0,4.0,64.0
1410,68.0,0.0,90.0,12.0,64.0
1411,80.0,120.0,90.0,11.0,64.0
1412,76.0,0.0,90.0,11.0,64.0
1413,76.0,0.0,390.0,1.0,64.0
1414,85.0,12.0,390.0,1.0,64.0
1415,64.0,60.0,90.0,12.0,64.0
1416,61.0,60.0,150.0,3.0,64.0
1417,68.0,60.0,630.0,4.0,64.0
1418,49.0,0.0,150.0,14.0,64.0
1419,61.0,0.0,150.0,13.0,64.0
1420,68.0,0.0,90.0,12.0,64.0
1421,80.0,120.0,90.0,11.0,64.0
1422,52.0,0.0,150.0,14.0,64.0
1423,76.0,0.0,90.0,11.0,64.0
1424,64.0,0.0,150.0,13.0,64.0
1425,64.0,60.0,150.0,3.0,64.0
1426,64.0,48.0,90.0,12.0,64.0
1427,76.0,0.0,150.0,2.0,64.0
1428,73.0,0.0,150.0,2.0,64.0
1429,68.0,0.0,150.0,10.0,64.0
1430,76.0,0.0,150.0,10.0,64.0
1431,85.0,0.0,150.0,10.0,64.0
1432,73.0,0.0,90.0,11.0,64.0
1433,61.0,120.0,90.0,12.0,64.0
1434,84.0,60.0,90.0,11.0,64.0
1435,68.0,0.0,390.0,10.0,64.0
1436,75.0,0.0,390.0,10.0,64.0
1437,84.0,12.0,390.0,10.0,64.0
1438,72.0,0.0,90.0,12.0,64.0
1439,68.0,0.0,300.0,3.0,64.0
1440,75.0,0.0,390.0,1.0,64.0
1441,84.0,0.0,390.0,1.0,64.0
1442,68.0,0.0,300.0,13.0,64.0
1443,75.0,0.0,300.0,2.0,64.0
1444,72.0,24.0,300.0,2.0,64.0
1445,56.0,0.0,300.0,14.0,64.0
1446,87.0,0.0,90.0,11.0,64.0
1447,75.0,96.0,90.0,12.0,64.0
1448,84.0,48.0,90.0,11.0,64.0
1449,72.0,0.0,90.0,12.0,64.0
1450,68.0,60.0,150.0,4.0,64.0
1451,68.0,120.0,90.0,12.0,64.0
1452,80.0,0.0,90.0,11.0,64.0
1453,64.0,60.0,90.0,12.0,64.0
1454,76.0,0.0,390.0,1.0,64.0
1455,61.0,0.0,150.0,13.0,64.0
1456,49.0,60.0,150.0,14.0,64.0
1457,76.0,0.0,90.0,11.0,64.0
1458,85.0,0.0,390.0,1.0,64.0
1459,68.0,0.0,630.0,4.0,64.0
1460,61.0,0.0,150.0,3.0,64.0
1461,80.0,0.0,90.0,11.0,64.0
1462,68.0,120.0,90.0,12.0,64.0
1463,76.0,0.0,90.0,11.0,64.0
1464,64.0,0.0,150.0,13.0,64.0
1465,73.0,60.0,150.0,2.0,64.0
1466,76.0,0.0,150.0,2.0,64.0
1467,76.0,0.0,150.0,10.0,64.0
1468,64.0,0.0,150.0,3.0,64.0
1469,64.0,48.0,90.0,12.0,64.0
1470,68.0,0.0,150.0,10.0,64.0
1471,85.0,12.0,150.0,10.0,64.0
1472,52.0,0.0,150.0,14.0,64.0
1473,73.0,120.0,90.0,11.0,64.0
1474,61.0,0.0,90.0,12.0,64.0
1475,72.0,60.0,150.0,2.0,64.0
1476,75.0,12.0,390.0,10.0,64.0
1477,56.0,0.0,300.0,3.0,64.0
1478,44.0,0.0,300.0,14.0,64.0
1479,56.0,24.0,300.0,13.0,64.0
1480,68.0,60.0,90.0,12.0,64.0
1481,75.0,0.0,390.0,1.0,64.0
1482,72.0,0.0,90.0,11.0,64.0
1483,84.0,0.0,390.0,1.0,64.0
1484,68.0,0.0,390.0,10.0,64.0
1485,75.0,0.0,150.0,2.0,64.0
1486,84.0,0.0,390.0,10.0,64.0
1487,75.0,0.0,90.0,11.0,64.0
1488,68.0,96.0,90.0,12.0,64.0
1489,80.0,0.0,150.0,2.0,64.0
1490,68.0,60.0,150.0,2.0,64.0
1491,68.0,48.0,90.0,12.0,64.0
1492,80.0,0.0,90.0,11.0,64.0
1493,80.0,0.0,90.0,11.0,64.0
1494,68.0,120.0,90.0,12.0,64.0
1495,80.0,60.0,150.0,2.0,64.0
1496,80.0,0.0,90.0,11.0,64.0
1497,68.0,0.0,150.0,2.0,64.0
1498,68.0,60.0,90.0,12.0,64.0
1499,80.0,120.0,90.0,11.0,64.0
1500,68.0,0.0,90.0,12.0,64.0
1501,68.0,48.0,90.0,12.0,64.0
1502,85.0,0.0,150.0,1.0,64.0
1503,77.0,0.0,150.0,1.0,64.0
1504,85.0,0.0,150.0,0.0,64.0
1505,89.0,0.0,150.0,0.0,64.0
1506,80.0,0.0,150.0,2.0,64.0
1507,80.0,24.0,180.0,5.0,64.0
1508,80.0,12.0,150.0,10.0,64.0
1509,89.0,0.0,150.0,10.0,64.0
1510,73.0,0.0,180.0,5.0,64.0
1511,49.0,0.0,150.0,14.0,64.0
1512,68.0,0.0,150.0,2.0,64.0
1513,61.0,0.0,150.0,13.0,64.0
1514,68.0,0.0,150.0,4.0,64.0
1515,61.0,0.0,150.0,4.0,64.0
1516,85.0,0.0,90.0,11.0,64.0
1517,61.0,36.0,150.0,3.0,64.0
1518,80.0,120.0,90.0,11.0,64.0
1519,68.0,0.0,90.0,12.0,64.0
1520,84.0,36.0,150.0,0.0,64.0
1521,80.0,24.0,180.0,5.0,64.0
1522,68.0,0.0,150.0,4.0,64.0
1523,84.0,0.0,150.0,1.0,64.0
1524,44.0,0.0,150.0,14.0,64.0
1525,56.0,0.0,150.0,13.0,64.0
1526,68.0,48.0,90.0,12.0,64.0
1527,56.0,0.0,150.0,3.0,64.0
1528,75.0,0.0,150.0,1.0,64.0
1529,87.0,12.0,150.0,10.0,64.0
1530,80.0,0.0,150.0,10.0,64.0
1531,84.0,0.0,90.0,11.0,64.0
1532,80.0,0.0,150.0,2.0,64.0
1533,87.0,0.0,150.0,0.0,64.0
1534,68.0,0.0,150.0,2.0,64.0
1535,80.0,0.0,90.0,11.0,64.0
1536,68.0,120.0,90.0,12.0,64.0
1537,61.0,0.0,150.0,4.0,64.0
1538,61.0,36.0,150.0,3.0,64.0
1539,85.0,0.0,90.0,11.0,64.0
1540,85.0,0.0,150.0,0.0,64.0
1541,73.0,24.0,180.0,5.0,64.0
1542,68.0,48.0,90.0,12.0,64.0
1543,80.0,0.0,150.0,2.0,64.0
1544,68.0,0.0,150.0,4.0,64.0
1545,85.0,0.0,150.0,1.0,64.0
1546,61.0,0.0,150.0,13.0,64.0
1547,80.0,12.0,150.0,10.0,64.0
1548,89.0,0.0,150.0,10.0,64.0
1549,49.0,0.0,150.0,14.0,64.0
1550,89.0,0.0,150.0,0.0,64.0
1551,80.0,0.0,180.0,5.0,64.0
1552,77.0,0.0,150.0,1.0,64.0
1553,68.0,0.0,150.0,2.0,64.0
1554,68.0,120.0,90.0,12.0,64.0
1555,80.0,0.0,90.0,11.0,64.0
1556,84.0,0.0,150.0,1.0,64.0
1557,84.0,0.0,150.0,0.0,64.0
1558,87.0,12.0,150.0,10.0,64.0
1559,80.0,0.0,150.0,10.0,64.0
1560,68.0,36.0,150.0,2.0,64.0
1561,80.0,0.0,150.0,2.0,64.0
1562,87.0,0.0,150.0,0.0,64.0
1563,56.0,0.0,150.0,3.0,64.0
1564,68.0,0.0,150.0,4.0,64.0
1565,68.0,0.0,90.0,12.0,64.0
1566,84.0,48.0,90.0,11.0,64.0
1567,80.0,24.0,180.0,5.0,64.0
1568,75.0,0.0,150.0,1.0,64.0
1569,56.0,0.0,150.0,13.0,64.0
1570,44.0,0.0,150.0,14.0,64.0
1571,68.0,0.0,90.0,12.0,64.0
1572,80.0,120.0,90.0,11.0,64.0
1573,68.0,0.0,150.0,2.0,64.0
1574,80.0,12.0,150.0,10.0,64.0
1575,61.0,0.0,150.0,13.0,64.0
1576,89.0,0.0,150.0,10.0,64.0
1577,49.0,0.0,150.0,14.0,64.0
1578,80.0,0.0,150.0,2.0,64.0
1579,85.0,0.0,150.0,0.0,64.0
1580,61.0,0.0,150.0,4.0,64.0
1581,68.0,0.0,90.0,12.0,64.0
1582,85.0,48.0,90.0,11.0,64.0
1583,73.0,0.0,180.0,5.0,64.0
1584,80.0,24.0,180.0,5.0,64.0
1585,85.0,0.0,150.0,1.0,64.0
1586,77.0,36.0,150.0,1.0,64.0
1587,89.0,0.0,150.0,0.0,64.0
1588,61.0,0.0,150.0,3.0,64.0
1589,68.0,0.0,150.0,4.0,64.0
1590,68.0,312.0,90.0,12.0,64.0
1591,80.0,0.0,90.0,11.0,64.0
1592,84.0,0.0,300.0,11.0,64.0
1593,68.0,0.0,300.0,4.0,64.0
1594,44.0,0.0,300.0,14.0,64.0
1595,80.0,0.0,300.0,5.0,64.0
1596,56.0,0.0,300.0,3.0,64.0
1597,87.0,0.0,300.0,10.0,64.0
1598,80.0,0.0,300.0,10.0,64.0
1599,87.0,0.0,300.0,0.0,64.0
1600,84.0,0.0,300.0,0.0,64.0
1601,75.0,0.0,300.0,1.0,64.0
1602,68.0,0.0,300.0,2.0,64.0
1603,80.0,0.0,300.0,2.0,64.0
1604,68.0,0.0,300.0,12.0,64.0
1605,56.0,0.0,300.0,13.0,64.0
1606,84.0,480.0,300.0,1.0,64.0
1607,68.0,0.0,300.0,3.0,64.0
1608,68.0,0.0,300.0,11.0,64.0
1609,75.0,0.0,300.0,11.0,64.0
1610,92.0,0.0,300.0,10.0,64.0
1611,84.0,0.0,300.0,11.0,64.0
1612,68.0,0.0,300.0,12.0,64.0
1613,80.0,0.0,300.0,5.0,64.0
1614,68.0,504.0,300.0,4.0,64.0
1615,92.0,0.0,300.0,0.0,64.0
1616,80.0,0.0,300.0,2.0,64.0
1617,68.0,0.0,300.0,2.0,64.0
1618,68.0,0.0,300.0,13.0,64.0
1619,80.0,0.0,300.0,1.0,64.0
1620,56.0,0.0,300.0,14.0,64.0
1621,68.0,0.0,390.0,11.0,64.0
1622,44.0,0.0,390.0,14.0,64.0
1623,68.0,0.0,390.0,10.0,64.0
1624,56.0,0.0,390.0,3.0,64.0
1625,56.0,0.0,390.0,13.0,64.0
1626,68.0,0.0,390.0,1.0,64.0
1627,80.0,0.0,390.0,5.0,64.0
1628,80.0,0.0,390.0,0.0,64.0
1629,68.0,1344.0,390.0,2.0,64.0
1630,56.0,0.0,390.0,12.0,64.0
1631,68.0,72.0,300.0,4.0,64.0
1632,80.0,960.0,780.0,10.0,64.0
1633,85.0,312.0,780.0,10.0,64.0
1634,84.0,120.0,120.0,10.0,64.0
1635,68.0,72.0,780.0,11.0,64.0
1636,85.0,120.0,120.0,10.0,64.0
1637,82.0,120.0,120.0,10.0,64.0
1638,84.0,120.0,120.0,10.0,64.0
1639,80.0,120.0,120.0,10.0,64.0
1640,82.0,48.0,120.0,10.0,64.0
1641,78.0,96.0,120.0,10.0,64.0
1642,80.0,144.0,90.0,10.0,64.0
1643,77.0,120.0,120.0,10.0,64.0
1644,61.0,72.0,780.0,4.0,64.0
1645,73.0,0.0,780.0,11.0,64.0
1646,78.0,120.0,120.0,10.0,64.0
1647,80.0,96.0,120.0,10.0,64.0
1648,77.0,144.0,90.0,10.0,64.0
1649,82.0,168.0,120.0,10.0,64.0
1650,82.0,240.0,120.0,10.0,64.0
1651,68.0,0.0,780.0,4.0,64.0
1652,80.0,0.0,120.0,10.0,64.0
1653,72.0,120.0,120.0,11.0,64.0
1654,80.0,72.0,780.0,1.0,64.0
1655,82.0,0.0,120.0,10.0,64.0
1656,73.0,120.0,120.0,11.0,64.0
1657,70.0,0.0,120.0,11.0,64.0
1658,78.0,120.0,120.0,10.0,64.0
1659,80.0,120.0,120.0,10.0,64.0
1660,72.0,0.0,120.0,11.0,64.0
1661,77.0,120.0,120.0,10.0,64.0
1662,68.0,0.0,120.0,11.0,64.0
1663,70.0,48.0,120.0,11.0,64.0
1664,78.0,0.0,120.0,10.0,64.0
1665,75.0,0.0,120.0,10.0,64.0
1666,66.0,96.0,120.0,11.0,64.0
1667,77.0,0.0,90.0,10.0,64.0
1668,68.0,144.0,90.0,11.0,64.0
1669,85.0,72.0,780.0,1.0,64.0
1670,73.0,72.0,390.0,4.0,64.0
1671,65.0,120.0,120.0,11.0,64.0
1672,73.0,0.0,120.0,10.0,64.0
1673,66.0,0.0,120.0,11.0,64.0
1674,75.0,120.0,120.0,10.0,64.0
1675,68.0,0.0,120.0,11.0,64.0
1676,77.0,24.0,120.0,10.0,64.0
1677,65.0,144.0,90.0,11.0,64.0
1678,73.0,0.0,90.0,10.0,64.0
1679,78.0,0.0,120.0,10.0,64.0
1680,70.0,168.0,120.0,11.0,64.0
1681,78.0,216.0,120.0,10.0,64.0
1682,70.0,0.0,120.0,11.0,64.0
1683,77.0,96.0,120.0,10.0,64.0
1684,49.0,0.0,780.0,13.0,64.0
1685,68.0,24.0,90.0,11.0,64.0
1686,49.0,48.0,780.0,3.0,64.0
1687,78.0,96.0,120.0,10.0,64.0
1688,70.0,24.0,90.0,11.0,64.0
1689,66.0,24.0,90.0,11.0,64.0
1690,75.0,96.0,120.0,10.0,64.0
1691,77.0,96.0,120.0,10.0,64.0
1692,68.0,24.0,90.0,11.0,64.0
1693,61.0,96.0,960.0,12.0,64.0
1694,73.0,96.0,120.0,10.0,64.0
1695,65.0,24.0,90.0,11.0,64.0
1696,75.0,48.0,120.0,10.0,64.0
1697,66.0,24.0,90.0,11.0,64.0
1698,72.0,96.0,120.0,10.0,64.0
1699,63.0,24.0,90.0,11.0,64.0
1700,65.0,144.0,90.0,11.0,64.0
1701,73.0,0.0,90.0,10.0,64.0
1702,54.0,0.0,390.0,3.0,64.0
1703,54.0,120.0,120.0,13.0,64.0
1704,66.0,24.0,900.0,11.0,64.0
1705,70.0,72.0,390.0,10.0,64.0
1706,53.0,120.0,120.0,13.0,64.0
1707,51.0,24.0,120.0,13.0,64.0
1708,49.0,24.0,90.0,13.0,64.0
1709,75.0,96.0,120.0,10.0,64.0
1710,63.0,96.0,960.0,12.0,64.0
1711,60.0,24.0,90.0,3.0,64.0
1712,48.0,48.0,390.0,13.0,64.0
1713,73.0,96.0,120.0,10.0,64.0
1714,58.0,24.0,90.0,3.0,64.0
1715,56.0,24.0,90.0,3.0,64.0
1716,72.0,24.0,120.0,10.0,64.0
1717,70.0,0.0,90.0,10.0,64.0
1718,54.0,144.0,90.0,3.0,64.0
1719,53.0,120.0,120.0,13.0,64.0
1720,53.0,0.0,390.0,3.0,64.0
1721,65.0,24.0,900.0,11.0,64.0
1722,68.0,72.0,390.0,10.0,64.0
1723,51.0,120.0,120.0,13.0,64.0
1724,49.0,24.0,120.0,13.0,64.0
1725,48.0,24.0,90.0,13.0,64.0
1726,58.0,24.0,90.0,3.0,64.0
1727,46.0,48.0,390.0,13.0,64.0
1728,61.0,96.0,960.0,12.0,64.0
1729,73.0,96.0,120.0,10.0,64.0
1730,56.0,24.0,90.0,3.0,64.0
1731,72.0,96.0,120.0,10.0,64.0
1732,54.0,24.0,90.0,3.0,64.0
1733,70.0,24.0,120.0,10.0,64.0
1734,53.0,0.0,90.0,3.0,64.0
1735,68.0,144.0,90.0,10.0,64.0
1736,51.0,72.0,390.0,3.0,64.0
1737,51.0,120.0,120.0,13.0,64.0
1738,63.0,0.0,1350.0,11.0,64.0
1739,66.0,0.0,390.0,10.0,64.0
1740,49.0,120.0,120.0,13.0,64.0
1741,48.0,24.0,120.0,13.0,64.0
1742,46.0,24.0,90.0,13.0,64.0
1743,78.0,96.0,120.0,10.0,64.0
1744,63.0,24.0,90.0,3.0,64.0
1745,60.0,0.0,390.0,12.0,64.0
1746,44.0,72.0,390.0,13.0,64.0
1747,77.0,96.0,120.0,10.0,64.0
1748,61.0,24.0,90.0,3.0,64.0
1749,60.0,24.0,90.0,3.0,64.0
1750,75.0,24.0,120.0,10.0,64.0
1751,58.0,0.0,90.0,3.0,64.0
1752,73.0,144.0,90.0,10.0,64.0
1753,56.0,0.0,3780.0,3.0,64.0
1754,56.0,120.0,120.0,13.0,64.0
1755,66.0,120.0,960.0,12.0,64.0
1756,72.0,72.0,390.0,10.0,64.0
1757,58.0,120.0,120.0,13.0,64.0
1758,60.0,24.0,120.0,13.0,64.0
1759,61.0,144.0,90.0,13.0,64.0
1760,72.0,0.0,120.0,11.0,64.0
1761,63.0,72.0,390.0,13.0,64.0
1762,84.0,120.0,120.0,10.0,64.0
1763,73.0,0.0,120.0,11.0,64.0
1764,85.0,120.0,120.0,10.0,64.0
1765,87.0,0.0,120.0,10.0,64.0
1766,75.0,24.0,120.0,11.0,64.0
1767,89.0,0.0,90.0,10.0,64.0
1768,77.0,24.0,90.0,11.0,64.0
1769,90.0,120.0,120.0,10.0,64.0
1770,68.0,288.0,2820.0,4.0,64.0
1771,72.0,0.0,2820.0,2.0,64.0
1772,78.0,0.0,2820.0,2.0,64.0
1773,78.0,0.0,120.0,11.0,64.0
1774,77.0,0.0,120.0,11.0,64.0
1775,89.0,120.0,120.0,10.0,64.0
1776,90.0,120.0,120.0,10.0,64.0
1777,78.0,0.0,120.0,11.0,64.0
1778,89.0,0.0,120.0,10.0,64.0
1779,77.0,120.0,120.0,11.0,64.0
1780,90.0,120.0,120.0,10.0,64.0
1781,78.0,0.0,120.0,11.0,64.0
1782,77.0,0.0,120.0,11.0,64.0
1783,89.0,120.0,120.0,10.0,64.0
1784,78.0,0.0,120.0,11.0,64.0
1785,90.0,96.0,120.0,10.0,64.0
1786,77.0,0.0,90.0,11.0,64.0
1787,89.0,264.0,90.0,10.0,64.0
1788,90.0,0.0,240.0,10.0,64.0
1789,78.0,96.0,240.0,11.0,64.0
1790,77.0,204.0,90.0,11.0,64.0
1791,89.0,0.0,90.0,10.0,64.0
1792,77.0,0.0,60.0,11.0,64.0
1793,89.0,60.0,60.0,10.0,64.0
1794,87.0,0.0,60.0,10.0,64.0
1795,75.0,60.0,60.0,11.0,64.0
1796,77.0,0.0,60.0,11.0,64.0
1797,89.0,60.0,60.0,10.0,64.0
1798,75.0,96.0,60.0,11.0,64.0
1799,87.0,0.0,60.0,10.0,64.0
1800,73.0,384.0,90.0,11.0,64.0
1801,85.0,0.0,90.0,10.0,64.0
1802,72.0,96.0,240.0,11.0,64.0
1803,84.0,0.0,240.0,10.0,64.0
1804,82.0,0.0,90.0,10.0,64.0
1805,70.0,204.0,90.0,11.0,64.0
1806,70.0,0.0,60.0,11.0,64.0
1807,82.0,60.0,60.0,10.0,64.0
1808,68.0,0.0,60.0,11.0,64.0
1809,80.0,60.0,60.0,10.0,64.0
1810,70.0,0.0,60.0,11.0,64.0
1811,82.0,60.0,60.0,10.0,64.0
1812,68.0,0.0,60.0,11.0,64.0
1813,80.0,96.0,60.0,10.0,64.0
1814,79.0,0.0,90.0,10.0,64.0
1815,67.0,96.0,90.0,11.0,64.0
1816,78.0,96.0,240.0,10.0,64.0
1817,72.0,30.0,1740.0,2.0,64.0
1818,66.0,0.0,240.0,11.0,64.0
1819,75.0,0.0,1740.0,1.0,64.0
1820,84.0,0.0,1740.0,1.0,64.0
1821,78.0,0.0,1740.0,2.0,64.0
1822,56.0,0.0,1740.0,3.0,64.0
1823,68.0,0.0,1740.0,4.0,64.0
1824,77.0,204.0,90.0,10.0,64.0
1825,65.0,0.0,90.0,11.0,64.0
1826,65.0,60.0,60.0,11.0,64.0
1827,77.0,0.0,60.0,10.0,64.0
1828,63.0,0.0,60.0,11.0,64.0
1829,75.0,60.0,60.0,10.0,64.0
1830,65.0,0.0,60.0,11.0,64.0
1831,77.0,60.0,60.0,10.0,64.0
1832,63.0,96.0,60.0,11.0,64.0
1833,75.0,0.0,60.0,10.0,64.0
1834,61.0,0.0,90.0,11.0,64.0
1835,73.0,222.0,90.0,10.0,64.0
1836,60.0,0.0,90.0,11.0,64.0
1837,72.0,240.0,90.0,10.0,64.0
1838,63.0,0.0,90.0,11.0,64.0
1839,75.0,240.0,90.0,10.0,64.0
1840,66.0,210.0,90.0,11.0,64.0
1841,78.0,0.0,90.0,10.0,64.0
1842,75.0,0.0,90.0,10.0,64.0
1843,63.0,354.0,90.0,11.0,64.0
1844,68.0,0.0,180.0,11.0,64.0
1845,73.0,0.0,180.0,11.0,64.0
1846,73.0,0.0,180.0,2.0,64.0
1847,49.0,0.0,180.0,14.0,64.0
1848,61.0,0.0,180.0,13.0,64.0
1849,61.0,0.0,180.0,3.0,64.0
1850,80.0,0.0,180.0,0.0,64.0
1851,85.0,0.0,180.0,0.0,64.0
1852,77.0,0.0,180.0,2.0,64.0
1853,61.0,0.0,180.0,11.0,64.0
1854,68.0,480.0,180.0,4.0,64.0
1855,61.0,0.0,180.0,10.0,64.0
1856,73.0,0.0,180.0,10.0,64.0
1857,85.0,0.0,180.0,1.0,64.0
1858,77.0,0.0,180.0,1.0,64.0
1859,68.0,0.0,180.0,10.0,64.0
1860,61.0,0.0,180.0,4.0,64.0
1861,65.0,0.0,180.0,12.0,64.0
1862,68.0,0.0,180.0,4.0,64.0
1863,87.0,0.0,180.0,0.0,64.0
1864,60.0,0.0,180.0,3.0,64.0
1865,66.0,0.0,180.0,12.0,64.0
1866,60.0,0.0,180.0,13.0,64.0
1867,80.0,0.0,180.0,0.0,64.0
1868,66.0,0.0,180.0,2.0,64.0
1869,87.0,408.0,180.0,1.0,64.0
1870,68.0,0.0,180.0,10.0,64.0
1871,48.0,0.0,180.0,14.0,64.0
1872,68.0,0.0,180.0,11.0,64.0
1873,75.0,0.0,180.0,11.0,64.0
1874,78.0,0.0,180.0,1.0,64.0
1875,75.0,0.0,180.0,10.0,64.0
1876,75.0,0.0,180.0,2.0,64.0
1877,80.0,120.0,120.0,10.0,64.0
1878,82.0,120.0,120.0,10.0,64.0
1879,80.0,120.0,120.0,10.0,64.0
1880,82.0,120.0,120.0,10.0,64.0
1881,80.0,120.0,120.0,10.0,64.0
1882,78.0,120.0,120.0,10.0,64.0
1883,77.0,96.0,120.0,10.0,64.0
1884,75.0,216.0,90.0,10.0,64.0
1885,68.0,0.0,180.0,10.0,64.0
1886,80.0,0.0,180.0,0.0,64.0
1887,73.0,0.0,180.0,10.0,64.0
1888,68.0,0.0,180.0,4.0,64.0
1889,61.0,480.0,180.0,4.0,64.0
1890,61.0,0.0,180.0,13.0,64.0
1891,65.0,0.0,180.0,12.0,64.0
1892,61.0,0.0,180.0,10.0,64.0
1893,61.0,0.0,180.0,3.0,64.0
1894,85.0,0.0,180.0,0.0,64.0
1895,49.0,0.0,180.0,14.0,64.0
1896,61.0,0.0,180.0,11.0,64.0
1897,73.0,0.0,180.0,2.0,64.0
1898,77.0,0.0,180.0,2.0,64.0
1899,68.0,0.0,180.0,11.0,64.0
1900,73.0,0.0,180.0,11.0,64.0
1901,85.0,0.0,180.0,1.0,64.0
1902,77.0,0.0,180.0,1.0,64.0
1903,75.0,0.0,180.0,10.0,64.0
1904,80.0,0.0,180.0,0.0,64.0
1905,87.0,0.0,180.0,0.0,64.0
1906,66.0,408.0,180.0,2.0,64.0
1907,48.0,0.0,180.0,14.0,64.0
1908,75.0,0.0,180.0,2.0,64.0
1909,68.0,0.0,180.0,4.0,64.0
1910,78.0,0.0,180.0,1.0,64.0
1911,68.0,0.0,180.0,11.0,64.0
1912,66.0,0.0,180.0,12.0,64.0
1913,68.0,0.0,180.0,10.0,64.0
1914,60.0,0.0,180.0,3.0,64.0
1915,75.0,0.0,180.0,11.0,64.0
1916,60.0,0.0,180.0,13.0,64.0
1917,87.0,0.0,180.0,1.0,64.0
1918,80.0,120.0,120.0,10.0,64.0
1919,82.0,120.0,120.0,10.0,64.0
1920,80.0,120.0,120.0,10.0,64.0
1921,82.0,120.0,120.0,10.0,64.0
1922,80.0,120.0,120.0,10.0,64.0
1923,78.0,120.0,120.0,10.0,64.0
1924,77.0,96.0,120.0,10.0,64.0
1925,75.0,120.0,90.0,10.0,64.0
1926,68.0,0.0,90.0,11.0,64.0
1927,49.0,60.0,150.0,13.0,64.0
1928,37.0,0.0,150.0,14.0,64.0
1929,49.0,12.0,390.0,6.0,64.0
1930,73.0,0.0,780.0,5.0,64.0
1931,61.0,0.0,780.0,5.0,64.0
1932,61.0,0.0,780.0,4.0,64.0
1933,49.0,0.0,780.0,4.0,64.0
1934,64.0,0.0,2400.0,2.0,64.0
1935,49.0,0.0,150.0,3.0,64.0
1936,68.0,0.0,780.0,2.0,64.0
1937,73.0,0.0,780.0,1.0,64.0
1938,73.0,0.0,570.0,10.0,64.0
1939,73.0,48.0,780.0,0.0,64.0
1940,64.0,0.0,90.0,11.0,64.0
1941,61.0,60.0,90.0,12.0,64.0
1942,68.0,0.0,90.0,11.0,64.0
1943,64.0,120.0,90.0,11.0,64.0
1944,61.0,0.0,90.0,12.0,64.0
1945,61.0,0.0,90.0,12.0,64.0
1946,68.0,48.0,90.0,11.0,64.0
1947,64.0,0.0,90.0,11.0,64.0
1948,61.0,60.0,150.0,3.0,64.0
1949,49.0,0.0,150.0,14.0,64.0
1950,61.0,0.0,150.0,13.0,64.0
1951,61.0,120.0,90.0,12.0,64.0
1952,64.0,0.0,90.0,11.0,64.0
1953,68.0,0.0,90.0,11.0,64.0
1954,61.0,0.0,150.0,13.0,64.0
1955,61.0,0.0,150.0,3.0,64.0
1956,64.0,0.0,90.0,11.0,64.0
1957,68.0,60.0,90.0,11.0,64.0
1958,61.0,0.0,90.0,12.0,64.0
1959,49.0,60.0,150.0,14.0,64.0
1960,61.0,0.0,90.0,12.0,64.0
1961,64.0,0.0,90.0,11.0,64.0
1962,68.0,72.0,90.0,11.0,64.0
1963,76.0,0.0,90.0,10.0,64.0
1964,61.0,0.0,150.0,3.0,64.0
1965,49.0,60.0,150.0,14.0,64.0
1966,64.0,60.0,90.0,11.0,64.0
1967,61.0,0.0,150.0,13.0,64.0
1968,61.0,0.0,90.0,12.0,64.0
1969,49.0,0.0,90.0,6.0,64.0
1970,68.0,0.0,90.0,11.0,64.0
1971,73.0,120.0,90.0,10.0,64.0
1972,68.0,0.0,90.0,11.0,64.0
1973,61.0,0.0,90.0,12.0,64.0
1974,49.0,0.0,90.0,6.0,64.0
1975,64.0,0.0,90.0,11.0,64.0
1976,69.0,0.0,1440.0,2.0,64.0
1977,37.0,0.0,150.0,14.0,64.0
1978,49.0,60.0,150.0,13.0,64.0
1979,81.0,60.0,570.0,10.0,64.0
1980,61.0,48.0,780.0,4.0,64.0
1981,49.0,12.0,390.0,6.0,64.0
1982,49.0,0.0,780.0,4.0,64.0
1983,61.0,0.0,780.0,5.0,64.0
1984,73.0,0.0,780.0,5.0,64.0
1985,76.0,0.0,1440.0,1.0,64.0
1986,81.0,0.0,1440.0,1.0,64.0
1987,81.0,0.0,1440.0,0.0,64.0
1988,88.0,96.0,1440.0,0.0,64.0
1989,49.0,0.0,150.0,3.0,64.0
1990,64.0,0.0,90.0,11.0,64.0
1991,69.0,60.0,90.0,11.0,64.0
1992,73.0,0.0,90.0,12.0,64.0
1993,64.0,0.0,90.0,11.0,64.0
1994,69.0,0.0,90.0,11.0,64.0
1995,73.0,120.0,90.0,12.0,64.0
1996,61.0,0.0,150.0,13.0,64.0
1997,49.0,0.0,150.0,14.0,64.0
1998,64.0,0.0,90.0,11.0,64.0
1999,61.0,60.0,150.0,3.0,64.0
2000,69.0,48.0,90.0,11.0,64.0
2001,73.0,0.0,90.0,12.0,64.0
2002,73.0,120.0,90.0,12.0,64.0
2003,64.0,0.0,90.0,11.0,64.0
2004,69.0,0.0,90.0,11.0,64.0
2005,61.0,0.0,150.0,13.0,64.0
2006,61.0,60.0,150.0,3.0,64.0
2007,64.0,0.0,90.0,11.0,64.0
2008,69.0,0.0,90.0,11.0,64.0
2009,73.0,0.0,90.0,12.0,64.0
2010,49.0,0.0,150.0,14.0,64.0
2011,73.0,0.0,90.0,12.0,64.0
2012,69.0,0.0,90.0,11.0,64.0
2013,64.0,72.0,90.0,11.0,64.0
2014,49.0,0.0,90.0,6.0,64.0
2015,69.0,0.0,90.0,11.0,64.0
2016,61.0,60.0,150.0,3.0,64.0
2017,61.0,0.0,150.0,13.0,64.0
2018,49.0,0.0,150.0,14.0,64.0
2019,85.0,60.0,90.0,10.0,64.0
2020,73.0,0.0,90.0,12.0,64.0
2021,64.0,0.0,90.0,11.0,64.0
2022,81.0,0.0,90.0,10.0,64.0
2023,69.0,0.0,90.0,11.0,64.0
2024,64.0,120.0,90.0,11.0,64.0
2025,49.0,0.0,90.0,6.0,64.0
2026,73.0,0.0,90.0,12.0,64.0
2027,64.0,24.0,90.0,11.0,64.0
2028,49.0,60.0,150.0,3.0,64.0
2029,69.0,0.0,90.0,11.0,64.0
2030,61.0,0.0,390.0,4.0,64.0
2031,49.0,0.0,150.0,13.0,64.0
2032,73.0,0.0,390.0,5.0,64.0
2033,37.0,12.0,150.0,14.0,64.0
2034,61.0,0.0,390.0,5.0,64.0
2035,49.0,0.0,390.0,4.0,64.0
2036,49.0,0.0,390.0,6.0,64.0
2037,73.0,0.0,90.0,12.0,64.0
2038,88.0,24.0,120.0,10.0,64.0
2039,73.0,0.0,90.0,12.0,64.0
2040,64.0,0.0,90.0,11.0,64.0
2041,69.0,120.0,90.0,11.0,64.0
2042,49.0,12.0,150.0,14.0,64.0
2043,81.0,24.0,120.0,10.0,64.0
2044,64.0,24.0,90.0,11.0,64.0
2045,69.0,0.0,90.0,11.0,64.0
2046,61.0,60.0,150.0,3.0,64.0
2047,73.0,0.0,90.0,12.0,64.0
2048,61.0,0.0,150.0,13.0,64.0
2049,73.0,24.0,90.0,12.0,64.0
2050,64.0,0.0,90.0,11.0,64.0
2051,69.0,0.0,90.0,11.0,64.0
2052,73.0,0.0,90.0,12.0,64.0
2053,49.0,0.0,390.0,4.0,64.0
2054,61.0,0.0,390.0,4.0,64.0
2055,88.0,24.0,120.0,10.0,64.0
2056,68.0,0.0,390.0,2.0,64.0
2057,80.0,0.0,390.0,0.0,64.0
2058,49.0,60.0,150.0,3.0,64.0
2059,49.0,12.0,150.0,13.0,64.0
2060,37.0,0.0,150.0,14.0,64.0
2061,80.0,0.0,390.0,1.0,64.0
2062,69.0,0.0,90.0,11.0,64.0
2063,64.0,24.0,90.0,11.0,64.0
2064,73.0,120.0,90.0,12.0,64.0
2065,64.0,0.0,90.0,11.0,64.0
2066,69.0,0.0,90.0,11.0,64.0
2067,81.0,24.0,120.0,10.0,64.0
2068,49.0,12.0,150.0,14.0,64.0
2069,61.0,0.0,150.0,13.0,64.0
2070,69.0,0.0,90.0,11.0,64.0
2071,64.0,24.0,90.0,11.0,64.0
2072,61.0,60.0,150.0,3.0,64.0
2073,73.0,0.0,90.0,12.0,64.0
2074,69.0,144.0,90.0,11.0,64.0
2075,64.0,0.0,90.0,11.0,64.0
2076,73.0,0.0,90.0,12.0,64.0
2077,79.0,240.0,120.0,10.0,64.0
2078,87.0,0.0,480.0,0.0,64.0
2079,61.0,384.0,480.0,3.0,64.0
2080,63.0,0.0,870.0,2.0,64.0
2081,49.0,0.0,390.0,14.0,64.0
2082,70.0,0.0,390.0,12.0,64.0
2083,79.0,0.0,480.0,0.0,64.0
2084,67.0,0.0,390.0,11.0,64.0
2085,67.0,0.0,480.0,2.0,64.0
2086,75.0,0.0,870.0,1.0,64.0
2087,63.0,96.0,390.0,12.0,64.0
2088,79.0,0.0,480.0,1.0,64.0
2089,61.0,0.0,390.0,13.0,64.0
2090,87.0,24.0,120.0,10.0,64.0
2091,68.0,0.0,960.0,10.0,64.0
2092,78.0,0.0,960.0,10.0,64.0
2093,75.0,0.0,480.0,12.0,64.0
2094,78.0,0.0,390.0,1.0,64.0
2095,66.0,96.0,390.0,2.0,64.0
2096,48.0,0.0,15.0,14.0,64.0
2097,60.0,0.0,15.0,13.0,64.0
2098,68.0,0.0,15.0,11.0,64.0
2099,75.0,0.0,480.0,12.0,64.0
2100,60.0,480.0,15.0,3.0,64.0
2101,77.0,240.0,660.0,10.0,64.0
2102,73.0,0.0,390.0,12.0,64.0
2103,61.0,96.0,390.0,13.0,64.0
2104,61.0,0.0,390.0,3.0,64.0
2105,49.0,0.0,390.0,14.0,64.0
2106,69.0,192.0,240.0,11.0,64.0
2107,66.0,0.0,900.0,12.0,64.0
2108,70.0,0.0,900.0,11.0,64.0
2109,54.0,144.0,780.0,3.0,64.0
2110,54.0,0.0,900.0,13.0,64.0
2111,42.0,0.0,900.0,14.0,64.0
2112,75.0,240.0,180.0,10.0,64.0
2113,78.0,96.0,180.0,10.0,64.0
2114,82.0,528.0,180.0,10.0,64.0
2115,65.0,60.0,480.0,11.0,64.0
2116,68.0,0.0,870.0,11.0,64.0
2117,56.0,0.0,780.0,13.0,64.0
2118,56.0,96.0,780.0,3.0,64.0
2119,65.0,0.0,480.0,12.0,64.0
2120,44.0,0.0,780.0,14.0,64.0
2121,73.0,0.0,480.0,10.0,64.0
2122,66.0,0.0,390.0,11.0,64.0
2123,72.0,12.0,390.0,12.0,64.0
2124,77.0,228.0,60.0,10.0,64.0
2125,75.0,180.0,330.0,10.0,64.0
2126,73.0,48.0,780.0,0.0,64.0
2127,68.0,60.0,90.0,11.0,64.0
2128,49.0,12.0,390.0,6.0,64.0
2129,73.0,0.0,570.0,10.0,64.0
2130,49.0,0.0,780.0,4.0,64.0
2131,61.0,0.0,780.0,4.0,64.0
2132,64.0,0.0,90.0,11.0,64.0
2133,37.0,0.0,150.0,14.0,64.0
2134,61.0,0.0,90.0,12.0,64.0
2135,49.0,60.0,150.0,3.0,64.0
2136,64.0,96.0,2400.0,2.0,64.0
2137,68.0,0.0,780.0,2.0,64.0
2138,73.0,0.0,780.0,5.0,64.0
2139,49.0,0.0,150.0,13.0,64.0
2140,61.0,0.0,780.0,5.0,64.0
2141,73.0,0.0,780.0,1.0,64.0
2142,61.0,0.0,90.0,12.0,64.0
2143,64.0,120.0,90.0,11.0,64.0
2144,68.0,0.0,90.0,11.0,64.0
2145,61.0,60.0,150.0,13.0,64.0
2146,64.0,0.0,90.0,11.0,64.0
2147,61.0,48.0,90.0,12.0,64.0
2148,68.0,0.0,90.0,11.0,64.0
2149,61.0,0.0,150.0,3.0,64.0
2150,49.0,0.0,150.0,14.0,64.0
2151,64.0,0.0,90.0,11.0,64.0
2152,68.0,0.0,90.0,11.0,64.0
2153,61.0,120.0,90.0,12.0,64.0
2154,49.0,0.0,150.0,14.0,64.0
2155,64.0,0.0,90.0,11.0,64.0
2156,68.0,0.0,90.0,11.0,64.0
2157,61.0,60.0,150.0,3.0,64.0
2158,61.0,0.0,150.0,13.0,64.0
2159,61.0,60.0,90.0,12.0,64.0
2160,68.0,0.0,90.0,11.0,64.0
2161,64.0,0.0,90.0,11.0,64.0
2162,61.0,72.0,90.0,12.0,64.0
2163,49.0,60.0,90.0,6.0,64.0
2164,49.0,0.0,150.0,14.0,64.0
2165,61.0,0.0,150.0,3.0,64.0
2166,61.0,0.0,90.0,12.0,64.0
2167,76.0,0.0,90.0,10.0,64.0
2168,68.0,0.0,90.0,11.0,64.0
2169,61.0,60.0,150.0,13.0,64.0
2170,64.0,0.0,90.0,11.0,64.0
2171,68.0,0.0,90.0,11.0,64.0
2172,61.0,0.0,90.0,12.0,64.0
2173,73.0,0.0,90.0,10.0,64.0
2174,64.0,120.0,90.0,11.0,64.0
2175,49.0,0.0,90.0,6.0,64.0
2176,88.0,0.0,1440.0,0.0,64.0
2177,64.0,0.0,90.0,11.0,64.0
2178,81.0,0.0,570.0,10.0,64.0
2179,49.0,48.0,780.0,4.0,64.0
2180,61.0,0.0,780.0,4.0,64.0
2181,49.0,12.0,390.0,6.0,64.0
2182,49.0,60.0,150.0,3.0,64.0
2183,76.0,0.0,1440.0,1.0,64.0
2184,61.0,0.0,780.0,5.0,64.0
2185,69.0,60.0,90.0,11.0,64.0
2186,73.0,0.0,90.0,12.0,64.0
2187,49.0,0.0,150.0,13.0,64.0
2188,69.0,0.0,1440.0,2.0,64.0
2189,81.0,0.0,1440.0,0.0,64.0
2190,81.0,0.0,1440.0,1.0,64.0
2191,73.0,0.0,780.0,5.0,64.0
2192,37.0,0.0,150.0,14.0,64.0
2193,69.0,0.0,90.0,11.0,64.0
2194,73.0,120.0,90.0,12.0,64.0
2195,64.0,0.0,90.0,11.0,64.0
2196,64.0,0.0,90.0,11.0,64.0
2197,73.0,0.0,90.0,12.0,64.0
2198,61.0,0.0,150.0,13.0,64.0
2199,69.0,48.0,90.0,11.0,64.0
2200,49.0,60.0,150.0,14.0,64.0
2201,61.0,0.0,150.0,3.0,64.0
2202,73.0,120.0,90.0,12.0,64.0
2203,69.0,0.0,90.0,11.0,64.0
2204,64.0,0.0,90.0,11.0,64.0
2205,49.0,0.0,150.0,14.0,64.0
2206,69.0,60.0,90.0,11.0,64.0
2207,61.0,0.0,150.0,3.0,64.0
2208,73.0,0.0,90.0,12.0,64.0
2209,61.0,60.0,150.0,13.0,64.0
2210,64.0,0.0,90.0,11.0,64.0
2211,73.0,72.0,90.0,12.0,64.0
2212,69.0,0.0,90.0,11.0,64.0
2213,64.0,0.0,90.0,11.0,64.0
2214,73.0,0.0,90.0,12.0,64.0
2215,85.0,0.0,90.0,10.0,64.0
2216,49.0,0.0,150.0,14.0,64.0
2217,64.0,0.0,90.0,11.0,64.0
2218,69.0,60.0,90.0,11.0,64.0
2219,49.0,0.0,90.0,6.0,64.0
2220,61.0,0.0,150.0,3.0,64.0
2221,61.0,60.0,150.0,13.0,64.0
2222,69.0,0.0,90.0,11.0,64.0
2223,64.0,0.0,90.0,11.0,64.0
2224,49.0,0.0,90.0,6.0,64.0
2225,73.0,120.0,90.0,12.0,64.0
2226,81.0,0.0,90.0,10.0,64.0
2227,88.0,24.0,120.0,10.0,64.0
2228,49.0,12.0,150.0,13.0,64.0
2229,73.0,0.0,390.0,5.0,64.0
2230,61.0,0.0,390.0,5.0,64.0
2231,49.0,0.0,390.0,6.0,64.0
2232,49.0,0.0,390.0,4.0,64.0
2233,61.0,0.0,390.0,4.0,64.0
2234,49.0,60.0,150.0,3.0,64.0
2235,73.0,0.0,90.0,12.0,64.0
2236,37.0,0.0,150.0,14.0,64.0
2237,64.0,0.0,90.0,11.0,64.0
2238,69.0,24.0,90.0,11.0,64.0
2239,64.0,0.0,90.0,11.0,64.0
2240,69.0,120.0,90.0,11.0,64.0
2241,73.0,0.0,90.0,12.0,64.0
2242,69.0,0.0,90.0,11.0,64.0
2243,49.0,0.0,150.0,14.0,64.0
2244,61.0,12.0,150.0,13.0,64.0
2245,73.0,0.0,90.0,12.0,64.0
2246,61.0,60.0,150.0,3.0,64.0
2247,81.0,24.0,120.0,10.0,64.0
2248,64.0,24.0,90.0,11.0,64.0
2249,69.0,24.0,90.0,11.0,64.0
2250,64.0,0.0,90.0,11.0,64.0
2251,73.0,0.0,90.0,12.0,64.0
2252,69.0,0.0,90.0,11.0,64.0
2253,37.0,0.0,150.0,14.0,64.0
2254,80.0,12.0,390.0,1.0,64.0
2255,49.0,12.0,150.0,13.0,64.0
2256,64.0,0.0,90.0,11.0,64.0
2257,49.0,0.0,390.0,4.0,64.0
2258,49.0,60.0,150.0,3.0,64.0
2259,61.0,0.0,390.0,4.0,64.0
2260,80.0,0.0,390.0,0.0,64.0
2261,88.0,24.0,120.0,10.0,64.0
2262,73.0,24.0,90.0,12.0,64.0
2263,68.0,0.0,390.0,2.0,64.0
2264,64.0,0.0,90.0,11.0,64.0
2265,69.0,0.0,90.0,11.0,64.0
2266,73.0,120.0,90.0,12.0,64.0
2267,49.0,0.0,150.0,14.0,64.0
2268,69.0,24.0,90.0,11.0,64.0
2269,73.0,0.0,90.0,12.0,64.0
2270,61.0,0.0,150.0,13.0,64.0
2271,61.0,60.0,150.0,3.0,64.0
2272,64.0,0.0,90.0,11.0,64.0
2273,81.0,24.0,120.0,10.0,64.0
2274,69.0,0.0,90.0,11.0,64.0
2275,73.0,0.0,90.0,12.0,64.0
2276,64.0,144.0,90.0,11.0,64.0
2277,61.0,0.0,390.0,3.0,64.0
2278,63.0,0.0,390.0,12.0,64.0
2279,61.0,0.0,390.0,13.0,64.0
2280,67.0,0.0,390.0,11.0,64.0
2281,79.0,240.0,120.0,10.0,64.0
2282,49.0,0.0,390.0,14.0,64.0
2283,70.0,576.0,390.0,12.0,64.0
2284,87.0,24.0,120.0,10.0,64.0
2285,75.0,0.0,480.0,12.0,64.0
2286,68.0,0.0,960.0,10.0,64.0
2287,78.0,0.0,960.0,10.0,64.0
2288,60.0,0.0,480.0,3.0,64.0
2289,60.0,0.0,480.0,13.0,64.0
2290,60.0,0.0,480.0,13.0,64.0
2291,48.0,0.0,15.0,14.0,64.0
2292,75.0,0.0,480.0,12.0,64.0
2293,68.0,480.0,15.0,11.0,64.0
2294,60.0,384.0,480.0,3.0,64.0
2295,73.0,96.0,390.0,12.0,64.0
2296,49.0,0.0,390.0,14.0,64.0
2297,61.0,0.0,390.0,13.0,64.0
2298,61.0,0.0,390.0,3.0,64.0
2299,77.0,192.0,480.0,10.0,64.0
2300,74.0,0.0,180.0,10.0,64.0
2301,53.0,0.0,180.0,13.0,64.0
2302,71.0,0.0,180.0,12.0,64.0
2303,41.0,480.0,180.0,14.0,64.0
2304,66.0,0.0,180.0,11.0,64.0
2305,63.0,0.0,480.0,3.0,64.0
2306,54.0,0.0,180.0,13.0,64.0
2307,42.0,288.0,180.0,14.0,64.0
2308,75.0,0.0,180.0,10.0,64.0
2309,70.0,0.0,180.0,12.0,64.0
2310,87.0,0.0,480.0,0.0,64.0
2311,75.0,480.0,480.0,1.0,64.0
2312,86.0,0.0,480.0,0.0,64.0
2313,74.0,0.0,480.0,1.0,64.0
2314,62.0,384.0,480.0,3.0,64.0
2315,63.0,0.0,390.0,3.0,64.0
2316,87.0,288.0,390.0,0.0,64.0
2317,75.0,0.0,390.0,1.0,64.0
2318,44.0,480.0,180.0,14.0,64.0
2319,71.0,0.0,180.0,12.0,64.0
2320,56.0,0.0,180.0,13.0,64.0
2321,73.0,0.0,180.0,11.0,64.0
2322,77.0,0.0,180.0,10.0,64.0
2323,73.0,0.0,180.0,11.0,64.0
2324,46.0,288.0,180.0,14.0,64.0
2325,70.0,0.0,180.0,12.0,64.0
2326,66.0,0.0,480.0,3.0,64.0
2327,78.0,0.0,180.0,10.0,64.0
2328,78.0,0.0,480.0,1.0,64.0
2329,58.0,0.0,180.0,13.0,64.0
2330,90.0,480.0,480.0,0.0,64.0
2331,65.0,384.0,480.0,3.0,64.0
2332,89.0,0.0,480.0,0.0,64.0
2333,77.0,0.0,480.0,1.0,64.0
2334,78.0,0.0,390.0,1.0,64.0
2335,90.0,1008.0,390.0,0.0,64.0
2336,66.0,0.0,390.0,3.0,64.0
2337,82.0,168.0,900.0,10.0,64.0
2338,81.0,120.0,120.0,10.0,64.0
2339,82.0,120.0,120.0,10.0,64.0
2340,84.0,120.0,120.0,10.0,64.0
2341,82.0,120.0,120.0,10.0,64.0
2342,80.0,120.0,120.0,10.0,64.0
2343,78.0,120.0,120.0,10.0,64.0
2344,77.0,120.0,120.0,10.0,64.0
2345,75.0,192.0,120.0,10.0,64.0
2346,73.0,768.0,180.0,10.0,64.0
2347,64.0,0.0,480.0,11.0,64.0
2348,43.0,384.0,480.0,14.0,64.0
2349,55.0,0.0,480.0,13.0,64.0
2350,70.0,0.0,480.0,12.0,64.0
2351,73.0,0.0,870.0,10.0,64.0
2352,68.0,0.0,780.0,12.0,64.0
2353,44.0,72.0,780.0,14.0,64.0
2354,56.0,0.0,780.0,13.0,64.0
2355,65.0,384.0,390.0,11.0,64.0
2356,75.0,0.0,360.0,10.0,64.0
2357,66.0,96.0,360.0,11.0,64.0
2358,63.0,0.0,90.0,11.0,64.0
2359,72.0,120.0,90.0,10.0,64.0
2360,73.0,0.0,390.0,5.0,64.0
2361,73.0,0.0,390.0,11.0,64.0
2362,65.0,72.0,390.0,11.0,64.0
2363,61.0,0.0,390.0,4.0,64.0
2364,49.0,0.0,390.0,6.0,64.0
2365,68.0,0.0,390.0,4.0,64.0
2366,61.0,0.0,390.0,13.0,64.0
2367,68.0,0.0,390.0,11.0,64.0
2368,73.0,0.0,390.0,2.0,64.0
2369,80.0,0.0,390.0,1.0,64.0
2370,77.0,0.0,390.0,1.0,64.0
2371,73.0,0.0,390.0,12.0,64.0
2372,85.0,0.0,390.0,0.0,64.0
2373,61.0,0.0,390.0,3.0,64.0
2374,85.0,120.0,90.0,10.0,64.0
2375,68.0,0.0,390.0,2.0,64.0
2376,49.0,0.0,390.0,14.0,64.0
2377,85.0,120.0,90.0,10.0,64.0
2378,80.0,48.0,90.0,10.0,64.0
2379,80.0,120.0,90.0,10.0,64.0
2380,77.0,120.0,90.0,10.0,64.0
2381,77.0,120.0,90.0,10.0,64.0
2382,73.0,120.0,90.0,10.0,64.0
2383,73.0,120.0,90.0,10.0,64.0
2384,68.0,0.0,390.0,2.0,64.0
2385,60.0,0.0,390.0,13.0,64.0
2386,48.0,0.0,390.0,14.0,64.0
2387,60.0,72.0,390.0,3.0,64.0
2388,80.0,0.0,390.0,1.0,64.0
2389,87.0,0.0,390.0,0.0,64.0
2390,78.0,0.0,390.0,1.0,64.0
2391,72.0,0.0,390.0,12.0,64.0
2392,75.0,0.0,390.0,2.0,64.0
2393,87.0,120.0,90.0,10.0,64.0
2394,68.0,0.0,390.0,11.0,64.0
2395,78.0,0.0,390.0,11.0,64.0
2396,68.0,0.0,390.0,4.0,64.0
2397,87.0,120.0,90.0,10.0,64.0
2398,84.0,48.0,90.0,10.0,64.0
2399,84.0,120.0,90.0,10.0,64.0
2400,80.0,120.0,90.0,10.0,64.0
2401,80.0,120.0,90.0,10.0,64.0
2402,75.0,120.0,90.0,10.0,64.0
2403,75.0,120.0,90.0,10.0,64.0
2404,73.0,0.0,390.0,2.0,64.0
2405,49.0,0.0,390.0,14.0,64.0
2406,73.0,0.0,390.0,12.0,64.0
2407,49.0,0.0,390.0,6.0,64.0
2408,61.0,0.0,390.0,13.0,64.0
2409,68.0,0.0,390.0,11.0,64.0
2410,77.0,0.0,390.0,11.0,64.0
2411,80.0,0.0,390.0,11.0,64.0
2412,68.0,0.0,390.0,4.0,64.0
2413,80.0,0.0,390.0,1.0,64.0
2414,61.0,0.0,390.0,3.0,64.0
2415,89.0,120.0,90.0,10.0,64.0
2416,77.0,0.0,390.0,1.0,64.0
2417,61.0,0.0,390.0,4.0,64.0
2418,89.0,72.0,390.0,0.0,64.0
2419,68.0,0.0,390.0,2.0,64.0
2420,73.0,0.0,390.0,5.0,64.0
2421,89.0,120.0,90.0,10.0,64.0
2422,85.0,48.0,90.0,10.0,64.0
2423,85.0,120.0,90.0,10.0,64.0
2424,80.0,120.0,90.0,10.0,64.0
2425,80.0,120.0,90.0,10.0,64.0
2426,77.0,120.0,90.0,10.0,64.0
2427,77.0,120.0,90.0,10.0,64.0
2428,51.0,0.0,390.0,14.0,64.0
2429,78.0,72.0,390.0,2.0,64.0
2430,72.0,0.0,390.0,2.0,64.0
2431,68.0,0.0,390.0,4.0,64.0
2432,66.0,0.0,390.0,4.0,64.0
2433,90.0,120.0,90.0,10.0,64.0
2434,80.0,0.0,390.0,1.0,64.0
2435,84.0,0.0,390.0,1.0,64.0
2436,75.0,0.0,390.0,11.0,64.0
2437,84.0,0.0,390.0,11.0,64.0
2438,63.0,0.0,390.0,13.0,64.0
2439,63.0,0.0,390.0,3.0,64.0
2440,68.0,0.0,390.0,11.0,64.0
2441,90.0,0.0,390.0,0.0,64.0
2442,75.0,0.0,390.0,12.0,64.0
2443,90.0,120.0,90.0,10.0,64.0
2444,87.0,48.0,90.0,10.0,64.0
2445,87.0,120.0,90.0,10.0,64.0
2446,84.0,120.0,90.0,10.0,64.0
2447,84.0,120.0,90.0,10.0,64.0
2448,78.0,120.0,90.0,10.0,64.0
2449,78.0,120.0,90.0,10.0,64.0
2450,92.0,120.0,90.0,10.0,64.0
2451,61.0,0.0,390.0,4.0,64.0
2452,73.0,0.0,390.0,2.0,64.0
2453,65.0,0.0,390.0,3.0,64.0
2454,77.0,0.0,390.0,2.0,64.0
2455,68.0,0.0,390.0,4.0,64.0
2456,77.0,0.0,390.0,12.0,64.0
2457,80.0,48.0,1740.0,0.0,64.0
2458,49.0,0.0,390.0,6.0,64.0
2459,73.0,72.0,390.0,11.0,64.0
2460,85.0,0.0,390.0,11.0,64.0
2461,68.0,0.0,390.0,11.0,64.0
2462,80.0,0.0,390.0,1.0,64.0
2463,92.0,0.0,1740.0,0.0,64.0
2464,85.0,0.0,390.0,1.0,64.0
2465,65.0,0.0,390.0,13.0,64.0
2466,73.0,0.0,390.0,5.0,64.0
2467,53.0,0.0,390.0,14.0,64.0
2468,92.0,120.0,90.0,10.0,64.0
2469,89.0,48.0,90.0,10.0,64.0
2470,89.0,120.0,90.0,10.0,64.0
2471,85.0,120.0,90.0,10.0,64.0
2472,85.0,120.0,90.0,10.0,64.0
2473,77.0,0.0,180.0,12.0,64.0
2474,68.0,0.0,180.0,4.0,64.0
2475,80.0,72.0,90.0,10.0,64.0
2476,65.0,48.0,180.0,3.0,64.0
2477,65.0,0.0,180.0,13.0,64.0
2478,80.0,0.0,90.0,11.0,64.0
2479,53.0,0.0,180.0,14.0,64.0
2480,80.0,0.0,90.0,11.0,64.0
2481,80.0,120.0,90.0,10.0,64.0
2482,78.0,72.0,90.0,10.0,64.0
2483,63.0,0.0,180.0,3.0,64.0
2484,51.0,0.0,180.0,14.0,64.0
2485,63.0,0.0,180.0,13.0,64.0
2486,68.0,0.0,180.0,4.0,64.0
2487,78.0,0.0,90.0,11.0,64.0
2488,75.0,48.0,180.0,12.0,64.0
2489,78.0,0.0,90.0,11.0,64.0
2490,78.0,120.0,90.0,10.0,64.0
2491,60.0,0.0,180.0,3.0,64.0
2492,48.0,0.0,180.0,14.0,64.0
2493,72.0,0.0,180.0,12.0,64.0
2494,68.0,0.0,180.0,4.0,64.0
2495,75.0,72.0,90.0,10.0,64.0
2496,60.0,48.0,180.0,13.0,64.0
2497,75.0,0.0,90.0,11.0,64.0
2498,75.0,0.0,90.0,11.0,64.0
2499,75.0,120.0,90.0,10.0,64.0
2500,44.0,0.0,180.0,14.0,64.0
2501,56.0,0.0,180.0,3.0,64.0
2502,68.0,0.0,180.0,12.0,64.0
2503,72.0,0.0,90.0,10.0,64.0
2504,68.0,0.0,180.0,4.0,64.0
2505,72.0,72.0,90.0,11.0,64.0
2506,56.0,48.0,180.0,13.0,64.0
2507,72.0,0.0,90.0,10.0,64.0
2508,72.0,72.0,90.0,11.0,64.0
2509,60.0,0.0,180.0,13.0,64.0
2510,66.0,72.0,90.0,10.0,64.0
2511,60.0,0.0,180.0,3.0,64.0
2512,63.0,48.0,180.0,12.0,64.0
2513,68.0,0.0,180.0,4.0,64.0
2514,66.0,0.0,90.0,11.0,64.0
2515,48.0,0.0,180.0,14.0,64.0
2516,66.0,0.0,90.0,11.0,64.0
2517,66.0,264.0,90.0,10.0,64.0
2518,65.0,0.0,240.0,10.0,64.0
2519,61.0,0.0,480.0,12.0,64.0
2520,65.0,0.0,240.0,11.0,64.0
2521,80.0,0.0,570.0,5.0,64.0
2522,80.0,0.0,570.0,0.0,64.0
2523,92.0,0.0,570.0,0.0,64.0
2524,61.0,0.0,240.0,3.0,64.0
2525,73.0,0.0,480.0,2.0,64.0
2526,49.0,0.0,240.0,14.0,64.0
2527,77.0,0.0,240.0,1.0,64.0
2528,61.0,240.0,240.0,13.0,64.0
2529,68.0,60.0,570.0,4.0,64.0
2530,68.0,0.0,240.0,11.0,64.0
2531,80.0,0.0,240.0,1.0,64.0
2532,65.0,0.0,240.0,3.0,64.0
2533,53.0,0.0,240.0,14.0,64.0
2534,68.0,0.0,240.0,10.0,64.0
2535,65.0,0.0,240.0,13.0,64.0
2536,66.0,0.0,180.0,11.0,64.0
2537,60.0,0.0,180.0,12.0,64.0
2538,63.0,0.0,180.0,3.0,64.0
2539,66.0,36.0,150.0,10.0,64.0
2540,78.0,0.0,180.0,1.0,64.0
2541,72.0,0.0,180.0,2.0,64.0
2542,51.0,0.0,180.0,14.0,64.0
2543,68.0,96.0,15.0,2.0,64.0
2544,63.0,168.0,180.0,13.0,64.0
2545,75.0,120.0,120.0,10.0,64.0
2546,77.0,78.0,120.0,10.0,64.0
2547,78.0,120.0,90.0,10.0,64.0
2548,77.0,120.0,90.0,10.0,64.0
2549,75.0,120.0,90.0,10.0,64.0
2550,73.0,120.0,90.0,10.0,64.0
2551,72.0,120.0,90.0,10.0,64.0
2552,70.0,120.0,90.0,10.0,64.0
2553,68.0,120.0,90.0,10.0,64.0
2554,66.0,282.0,90.0,10.0,64.0
2555,49.0,0.0,240.0,14.0,64.0
2556,61.0,0.0,480.0,12.0,64.0
2557,61.0,240.0,240.0,13.0,64.0
2558,61.0,0.0,240.0,3.0,64.0
2559,80.0,0.0,570.0,5.0,64.0
2560,65.0,0.0,240.0,11.0,64.0
2561,92.0,0.0,570.0,0.0,64.0
2562,73.0,0.0,480.0,2.0,64.0
2563,80.0,60.0,570.0,0.0,64.0
2564,77.0,0.0,240.0,1.0,64.0
2565,68.0,0.0,570.0,4.0,64.0
2566,65.0,0.0,240.0,10.0,64.0
2567,68.0,0.0,240.0,11.0,64.0
2568,65.0,96.0,240.0,13.0,64.0
2569,80.0,0.0,240.0,1.0,64.0
2570,65.0,0.0,240.0,3.0,64.0
2571,68.0,0.0,240.0,10.0,64.0
2572,53.0,0.0,240.0,14.0,64.0
2573,78.0,0.0,180.0,1.0,64.0
2574,66.0,36.0,150.0,10.0,64.0
2575,63.0,168.0,180.0,3.0,64.0
2576,51.0,0.0,180.0,14.0,64.0
2577,66.0,0.0,180.0,11.0,64.0
2578,68.0,0.0,15.0,2.0,64.0
2579,60.0,0.0,180.0,12.0,64.0
2580,72.0,0.0,180.0,2.0,64.0
2581,63.0,0.0,180.0,13.0,64.0
2582,75.0,120.0,120.0,10.0,64.0
2583,77.0,78.0,120.0,10.0,64.0
2584,78.0,120.0,90.0,10.0,64.0
2585,77.0,120.0,90.0,10.0,64.0
2586,75.0,120.0,90.0,10.0,64.0
2587,73.0,120.0,90.0,10.0,64.0
2588,72.0,120.0,90.0,10.0,64.0
2589,70.0,120.0,90.0,10.0,64.0
2590,68.0,120.0,90.0,10.0,64.0
2591,66.0,138.0,90.0,10.0,64.0
2592,65.0,120.0,90.0,10.0,64.0
2593,68.0,120.0,90.0,10.0,64.0
2594,53.0,0.0,240.0,13.0,64.0
2595,73.0,0.0,90.0,11.0,64.0
2596,41.0,0.0,240.0,14.0,64.0
2597,53.0,96.0,240.0,3.0,64.0
2598,61.0,0.0,480.0,12.0,64.0
2599,73.0,120.0,90.0,10.0,64.0
2600,71.0,0.0,90.0,10.0,64.0
2601,71.0,24.0,90.0,11.0,64.0
2602,42.0,0.0,240.0,14.0,64.0
2603,54.0,0.0,240.0,13.0,64.0
2604,70.0,0.0,90.0,11.0,64.0
2605,70.0,120.0,90.0,10.0,64.0
2606,54.0,96.0,240.0,3.0,64.0
2607,66.0,24.0,90.0,10.0,64.0
2608,66.0,0.0,90.0,11.0,64.0
2609,75.0,120.0,90.0,10.0,64.0
2610,55.0,0.0,240.0,13.0,64.0
2611,75.0,0.0,90.0,11.0,64.0
2612,43.0,96.0,240.0,14.0,64.0
2613,63.0,0.0,480.0,12.0,64.0
2614,55.0,0.0,240.0,3.0,64.0
2615,73.0,24.0,90.0,10.0,64.0
2616,73.0,0.0,90.0,11.0,64.0
2617,72.0,0.0,90.0,10.0,64.0
2618,56.0,0.0,240.0,13.0,64.0
2619,44.0,0.0,240.0,14.0,64.0
2620,72.0,120.0,90.0,11.0,64.0
2621,56.0,96.0,240.0,3.0,64.0
2622,68.0,24.0,90.0,10.0,64.0
2623,68.0,0.0,90.0,11.0,64.0
2624,45.0,0.0,180.0,14.0,64.0
2625,57.0,24.0,180.0,13.0,64.0
2626,65.0,72.0,480.0,12.0,64.0
2627,57.0,0.0,180.0,3.0,64.0
2628,77.0,96.0,90.0,10.0,64.0
2629,77.0,0.0,90.0,11.0,64.0
2630,75.0,0.0,90.0,10.0,64.0
2631,75.0,120.0,90.0,11.0,64.0
2632,73.0,120.0,90.0,10.0,64.0
2633,58.0,6.0,300.0,3.0,64.0
2634,58.0,0.0,300.0,13.0,64.0
2635,73.0,0.0,90.0,11.0,64.0
2636,46.0,0.0,300.0,14.0,64.0
2637,70.0,0.0,90.0,11.0,64.0
2638,70.0,24.0,90.0,10.0,64.0
2639,66.0,72.0,480.0,12.0,64.0
2640,78.0,102.0,90.0,11.0,64.0
2641,78.0,18.0,90.0,1.0,64.0
2642,78.0,0.0,90.0,10.0,64.0
2643,77.0,18.0,90.0,1.0,64.0
2644,77.0,0.0,90.0,10.0,64.0
2645,77.0,120.0,90.0,11.0,64.0
2646,60.0,0.0,300.0,3.0,64.0
2647,60.0,0.0,300.0,13.0,64.0
2648,48.0,6.0,300.0,14.0,64.0
2649,75.0,0.0,90.0,10.0,64.0
2650,75.0,60.0,150.0,1.0,64.0
2651,75.0,60.0,90.0,11.0,64.0
2652,72.0,0.0,90.0,11.0,64.0
2653,72.0,24.0,90.0,10.0,64.0
2654,68.0,72.0,480.0,12.0,64.0
2655,80.0,18.0,90.0,1.0,64.0
2656,80.0,0.0,90.0,11.0,64.0
2657,80.0,102.0,90.0,10.0,64.0
2658,78.0,120.0,90.0,11.0,64.0
2659,78.0,18.0,90.0,1.0,64.0
2660,78.0,0.0,90.0,10.0,64.0
2661,49.0,0.0,300.0,14.0,64.0
2662,77.0,0.0,90.0,11.0,64.0
2663,77.0,60.0,90.0,10.0,64.0
2664,61.0,0.0,300.0,13.0,64.0
2665,77.0,60.0,150.0,1.0,64.0
2666,61.0,6.0,300.0,3.0,64.0
2667,73.0,0.0,90.0,11.0,64.0
2668,73.0,24.0,90.0,10.0,64.0
2669,82.0,18.0,90.0,1.0,64.0
2670,82.0,0.0,90.0,11.0,64.0
2671,70.0,42.0,150.0,12.0,64.0
2672,82.0,60.0,90.0,10.0,64.0
2673,80.0,0.0,90.0,11.0,64.0
2674,80.0,18.0,90.0,1.0,64.0
2675,80.0,120.0,90.0,10.0,64.0
2676,51.0,0.0,390.0,14.0,64.0
2677,90.0,72.0,870.0,0.0,64.0
2678,78.0,120.0,90.0,11.0,64.0
2679,63.0,0.0,390.0,13.0,64.0
2680,66.0,72.0,390.0,4.0,64.0
2681,82.0,0.0,390.0,0.0,64.0
2682,70.0,0.0,390.0,4.0,64.0
2683,70.0,0.0,390.0,12.0,64.0
2684,63.0,0.0,390.0,3.0,64.0
2685,78.0,0.0,390.0,1.0,64.0
2686,78.0,0.0,90.0,10.0,64.0
2687,77.0,120.0,90.0,10.0,64.0
2688,77.0,0.0,90.0,11.0,64.0
2689,75.0,0.0,90.0,11.0,64.0
2690,75.0,48.0,90.0,10.0,64.0
2691,77.0,120.0,90.0,10.0,64.0
2692,77.0,0.0,90.0,11.0,64.0
2693,75.0,0.0,390.0,1.0,64.0
2694,56.0,0.0,390.0,13.0,64.0
2695,72.0,0.0,390.0,1.0,64.0
2696,78.0,0.0,90.0,11.0,64.0
2697,84.0,0.0,390.0,0.0,64.0
2698,78.0,120.0,90.0,10.0,64.0
2699,44.0,0.0,390.0,14.0,64.0
2700,68.0,0.0,390.0,4.0,64.0
2701,68.0,0.0,390.0,12.0,64.0
2702,56.0,0.0,390.0,3.0,64.0
2703,80.0,0.0,90.0,11.0,64.0
2704,80.0,120.0,90.0,10.0,64.0
2705,82.0,48.0,90.0,11.0,64.0
2706,82.0,0.0,90.0,10.0,64.0
2707,84.0,0.0,90.0,10.0,64.0
2708,84.0,144.0,90.0,11.0,64.0
2709,61.0,0.0,390.0,13.0,64.0
2710,61.0,96.0,390.0,3.0,64.0
2711,61.0,0.0,780.0,4.0,64.0
2712,61.0,72.0,780.0,2.0,64.0
2713,85.0,0.0,120.0,11.0,64.0
2714,73.0,0.0,390.0,5.0,64.0
2715,89.0,0.0,180.0,0.0,64.0
2716,49.0,0.0,390.0,14.0,64.0
2717,73.0,0.0,780.0,1.0,64.0
2718,49.0,0.0,390.0,6.0,64.0
2719,73.0,0.0,120.0,12.0,64.0
2720,85.0,72.0,120.0,10.0,64.0
2721,85.0,48.0,180.0,0.0,64.0
2722,72.0,0.0,120.0,12.0,64.0
2723,84.0,120.0,120.0,11.0,64.0
2724,84.0,0.0,120.0,10.0,64.0
2725,70.0,24.0,120.0,12.0,64.0
2726,82.0,0.0,120.0,10.0,64.0
2727,82.0,0.0,120.0,11.0,64.0
2728,81.0,120.0,120.0,11.0,64.0
2729,69.0,0.0,120.0,12.0,64.0
2730,81.0,0.0,120.0,10.0,64.0
2731,82.0,120.0,120.0,10.0,64.0
2732,70.0,0.0,120.0,12.0,64.0
2733,82.0,0.0,120.0,11.0,64.0
2734,68.0,48.0,120.0,12.0,64.0
2735,80.0,0.0,120.0,11.0,64.0
2736,80.0,0.0,120.0,10.0,64.0
2737,78.0,96.0,120.0,11.0,64.0
2738,78.0,0.0,120.0,10.0,64.0
2739,66.0,0.0,120.0,12.0,64.0
2740,77.0,0.0,90.0,10.0,64.0
2741,65.0,120.0,90.0,12.0,64.0
2742,77.0,0.0,90.0,11.0,64.0
2743,90.0,0.0,120.0,0.0,64.0
2744,78.0,96.0,120.0,11.0,64.0
2745,66.0,24.0,90.0,13.0,64.0
2746,66.0,0.0,120.0,12.0,64.0
2747,66.0,0.0,390.0,5.0,64.0
2748,70.0,48.0,780.0,4.0,64.0
2749,54.0,0.0,90.0,14.0,64.0
2750,66.0,0.0,90.0,3.0,64.0
2751,82.0,0.0,780.0,1.0,64.0
2752,70.0,0.0,780.0,2.0,64.0
2753,78.0,0.0,120.0,10.0,64.0
2754,78.0,0.0,390.0,5.0,64.0
2755,54.0,72.0,390.0,6.0,64.0
2756,77.0,0.0,120.0,10.0,64.0
2757,65.0,0.0,90.0,3.0,64.0
2758,53.0,0.0,90.0,14.0,64.0
2759,89.0,0.0,120.0,0.0,64.0
2760,65.0,24.0,90.0,13.0,64.0
2761,65.0,0.0,120.0,12.0,64.0
2762,77.0,96.0,120.0,11.0,64.0
2763,63.0,0.0,90.0,13.0,64.0
2764,63.0,24.0,90.0,3.0,64.0
2765,63.0,0.0,120.0,12.0,64.0
2766,75.0,0.0,120.0,10.0,64.0
2767,87.0,24.0,120.0,0.0,64.0
2768,75.0,0.0,120.0,11.0,64.0
2769,51.0,0.0,90.0,14.0,64.0
2770,73.0,96.0,120.0,11.0,64.0
2771,61.0,0.0,90.0,13.0,64.0
2772,49.0,0.0,90.0,14.0,64.0
2773,73.0,0.0,120.0,10.0,64.0
2774,85.0,0.0,120.0,0.0,64.0
2775,61.0,0.0,120.0,12.0,64.0
2776,61.0,24.0,90.0,3.0,64.0
2777,51.0,24.0,90.0,14.0,64.0
2778,87.0,0.0,120.0,0.0,64.0
2779,63.0,0.0,90.0,3.0,64.0
2780,75.0,0.0,120.0,10.0,64.0
2781,75.0,0.0,120.0,11.0,64.0
2782,63.0,96.0,120.0,12.0,64.0
2783,63.0,0.0,90.0,13.0,64.0
2784,61.0,0.0,120.0,12.0,64.0
2785,73.0,0.0,120.0,11.0,64.0
2786,49.0,0.0,90.0,14.0,64.0
2787,85.0,0.0,120.0,0.0,64.0
2788,61.0,24.0,90.0,13.0,64.0
2789,73.0,48.0,120.0,10.0,64.0
2790,61.0,0.0,90.0,3.0,64.0
2791,59.0,24.0,90.0,13.0,64.0
2792,59.0,0.0,90.0,3.0,64.0
2793,84.0,96.0,120.0,0.0,64.0
2794,47.0,0.0,90.0,14.0,64.0
2795,72.0,0.0,120.0,10.0,64.0
2796,72.0,0.0,120.0,11.0,64.0
2797,60.0,0.0,120.0,12.0,64.0
2798,58.0,0.0,90.0,12.0,64.0
2799,58.0,0.0,90.0,3.0,64.0
2800,70.0,0.0,90.0,10.0,64.0
2801,70.0,180.0,90.0,11.0,64.0
2802,46.0,0.0,90.0,14.0,64.0
2803,82.0,0.0,90.0,0.0,64.0
2804,58.0,0.0,90.0,13.0,64.0
2805,44.0,0.0,150.0,14.0,64.0
2806,56.0,0.0,150.0,12.0,64.0
2807,68.0,0.0,150.0,11.0,64.0
2808,56.0,0.0,150.0,3.0,64.0
2809,80.0,162.0,150.0,0.0,64.0
2810,68.0,12.0,390.0,2.0,64.0
2811,56.0,0.0,150.0,13.0,64.0
2812,68.0,0.0,390.0,4.0,64.0
2813,68.0,0.0,150.0,10.0,64.0
2814,80.0,0.0,390.0,1.0,64.0
2815,60.0,0.0,90.0,12.0,64.0
2816,66.0,0.0,150.0,3.0,64.0
2817,72.0,0.0,90.0,11.0,64.0
2818,84.0,0.0,90.0,0.0,64.0
2819,66.0,42.0,150.0,13.0,64.0
2820,54.0,0.0,150.0,14.0,64.0
2821,72.0,66.0,90.0,10.0,64.0
2822,87.0,198.0,90.0,0.0,64.0
2823,75.0,0.0,90.0,11.0,64.0
2824,75.0,0.0,90.0,10.0,64.0
2825,63.0,0.0,90.0,12.0,64.0
2826,65.0,0.0,150.0,3.0,64.0
2827,53.0,0.0,150.0,14.0,64.0
2828,80.0,0.0,150.0,10.0,64.0
2829,80.0,0.0,150.0,11.0,64.0
2830,92.0,0.0,150.0,0.0,64.0
2831,65.0,240.0,150.0,13.0,64.0
2832,68.0,0.0,150.0,12.0,64.0
2833,49.0,0.0,150.0,14.0,64.0
2834,85.0,0.0,150.0,10.0,64.0
2835,65.0,0.0,150.0,12.0,64.0
2836,61.0,0.0,180.0,4.0,64.0
2837,73.0,0.0,150.0,10.0,64.0
2838,85.0,0.0,150.0,11.0,64.0
2839,68.0,0.0,180.0,4.0,64.0
2840,85.0,0.0,150.0,0.0,64.0
2841,73.0,0.0,150.0,11.0,64.0
2842,73.0,204.0,180.0,1.0,64.0
2843,80.0,0.0,180.0,1.0,64.0
2844,61.0,0.0,150.0,3.0,64.0
2845,61.0,36.0,150.0,13.0,64.0
2846,92.0,0.0,150.0,0.0,64.0
2847,82.0,0.0,180.0,11.0,64.0
2848,66.0,36.0,150.0,12.0,64.0
2849,73.0,0.0,180.0,11.0,64.0
2850,66.0,0.0,150.0,13.0,64.0
2851,66.0,0.0,180.0,11.0,64.0
2852,73.0,204.0,180.0,10.0,64.0
2853,82.0,0.0,180.0,0.0,64.0
2854,82.0,0.0,180.0,10.0,64.0
2855,54.0,0.0,150.0,14.0,64.0
2856,66.0,0.0,150.0,3.0,64.0
2857,66.0,0.0,180.0,10.0,64.0
2858,70.0,0.0,180.0,4.0,64.0
2859,66.0,0.0,180.0,4.0,64.0
2860,82.0,0.0,180.0,1.0,64.0
2861,73.0,0.0,180.0,1.0,64.0
2862,92.0,0.0,180.0,0.0,64.0
2863,63.0,0.0,150.0,12.0,64.0
2864,63.0,240.0,150.0,3.0,64.0
2865,63.0,0.0,150.0,13.0,64.0
2866,51.0,0.0,150.0,14.0,64.0
2867,56.0,0.0,150.0,14.0,64.0
2868,75.0,0.0,180.0,10.0,64.0
2869,80.0,0.0,180.0,10.0,64.0
2870,72.0,0.0,180.0,1.0,64.0
2871,75.0,0.0,180.0,11.0,64.0
2872,68.0,36.0,150.0,3.0,64.0
2873,68.0,0.0,150.0,12.0,64.0
2874,72.0,0.0,180.0,11.0,64.0
2875,80.0,0.0,180.0,11.0,64.0
2876,84.0,204.0,180.0,0.0,64.0
2877,87.0,0.0,180.0,0.0,64.0
2878,72.0,0.0,180.0,10.0,64.0
2879,80.0,0.0,180.0,1.0,64.0
2880,68.0,0.0,180.0,4.0,64.0
2881,68.0,0.0,150.0,13.0,64.0
2882,56.0,0.0,150.0,12.0,64.0
2883,56.0,204.0,150.0,3.0,64.0
2884,44.0,0.0,150.0,14.0,64.0
2885,56.0,0.0,150.0,13.0,64.0
2886,85.0,0.0,120.0,11.0,64.0
2887,49.0,0.0,390.0,6.0,64.0
2888,73.0,96.0,390.0,5.0,64.0
2889,73.0,0.0,120.0,12.0,64.0
2890,61.0,0.0,780.0,2.0,64.0
2891,61.0,0.0,390.0,3.0,64.0
2892,61.0,0.0,780.0,4.0,64.0
2893,61.0,0.0,390.0,13.0,64.0
2894,49.0,0.0,390.0,14.0,64.0
2895,85.0,120.0,120.0,10.0,64.0
2896,73.0,72.0,780.0,1.0,64.0
2897,72.0,120.0,120.0,12.0,64.0
2898,84.0,0.0,120.0,11.0,64.0
2899,84.0,0.0,120.0,10.0,64.0
2900,82.0,0.0,120.0,10.0,64.0
2901,82.0,0.0,120.0,11.0,64.0
2902,70.0,24.0,120.0,12.0,64.0
2903,81.0,0.0,120.0,11.0,64.0
2904,69.0,0.0,120.0,12.0,64.0
2905,81.0,120.0,120.0,10.0,64.0
2906,70.0,0.0,120.0,12.0,64.0
2907,82.0,0.0,120.0,11.0,64.0
2908,82.0,120.0,120.0,10.0,64.0
2909,68.0,0.0,120.0,12.0,64.0
2910,80.0,0.0,120.0,10.0,64.0
2911,80.0,48.0,120.0,11.0,64.0
2912,66.0,96.0,120.0,12.0,64.0
2913,78.0,0.0,120.0,10.0,64.0
2914,78.0,0.0,120.0,11.0,64.0
2915,77.0,120.0,90.0,10.0,64.0
2916,65.0,0.0,90.0,12.0,64.0
2917,77.0,0.0,90.0,11.0,64.0
2918,90.0,0.0,120.0,0.0,64.0
2919,66.0,0.0,90.0,13.0,64.0
2920,82.0,0.0,780.0,1.0,64.0
2921,54.0,0.0,90.0,14.0,64.0
2922,78.0,0.0,390.0,5.0,64.0
2923,70.0,48.0,780.0,2.0,64.0
2924,78.0,0.0,120.0,11.0,64.0
2925,66.0,24.0,90.0,3.0,64.0
2926,66.0,72.0,390.0,5.0,64.0
2927,66.0,0.0,120.0,12.0,64.0
2928,78.0,96.0,120.0,10.0,64.0
2929,70.0,0.0,780.0,4.0,64.0
2930,54.0,0.0,390.0,6.0,64.0
2931,53.0,24.0,90.0,14.0,64.0
2932,77.0,0.0,120.0,11.0,64.0
2933,89.0,0.0,120.0,0.0,64.0
2934,77.0,0.0,120.0,10.0,64.0
2935,65.0,0.0,90.0,3.0,64.0
2936,65.0,0.0,90.0,13.0,64.0
2937,65.0,96.0,120.0,12.0,64.0
2938,63.0,24.0,120.0,12.0,64.0
2939,75.0,0.0,120.0,11.0,64.0
2940,87.0,0.0,120.0,0.0,64.0
2941,75.0,0.0,120.0,10.0,64.0
2942,63.0,0.0,90.0,13.0,64.0
2943,51.0,0.0,90.0,14.0,64.0
2944,63.0,24.0,90.0,3.0,64.0
2945,73.0,0.0,120.0,10.0,64.0
2946,61.0,24.0,90.0,13.0,64.0
2947,73.0,0.0,120.0,11.0,64.0
2948,61.0,0.0,90.0,3.0,64.0
2949,85.0,96.0,120.0,0.0,64.0
2950,61.0,0.0,120.0,12.0,64.0
2951,49.0,0.0,90.0,14.0,64.0
2952,63.0,24.0,90.0,13.0,64.0
2953,75.0,96.0,120.0,11.0,64.0
2954,87.0,0.0,120.0,0.0,64.0
2955,63.0,0.0,120.0,12.0,64.0
2956,51.0,0.0,90.0,14.0,64.0
2957,75.0,0.0,120.0,10.0,64.0
2958,63.0,0.0,90.0,3.0,64.0
2959,61.0,0.0,90.0,3.0,64.0
2960,49.0,0.0,90.0,14.0,64.0
2961,73.0,0.0,120.0,11.0,64.0
2962,61.0,48.0,120.0,12.0,64.0
2963,85.0,0.0,120.0,0.0,64.0
2964,73.0,0.0,120.0,10.0,64.0
2965,61.0,24.0,90.0,13.0,64.0
2966,72.0,96.0,120.0,10.0,64.0
2967,72.0,0.0,120.0,11.0,64.0
2968,84.0,0.0,120.0,0.0,64.0
2969,60.0,0.0,120.0,12.0,64.0
2970,59.0,0.0,90.0,3.0,64.0
2971,47.0,0.0,90.0,14.0,64.0
2972,59.0,24.0,90.0,13.0,64.0
2973,46.0,0.0,90.0,14.0,64.0
2974,70.0,180.0,90.0,10.0,64.0
2975,58.0,0.0,90.0,3.0,64.0
2976,82.0,0.0,90.0,0.0,64.0
2977,58.0,0.0,90.0,13.0,64.0
2978,70.0,0.0,90.0,11.0,64.0
2979,58.0,0.0,90.0,12.0,64.0
2980,68.0,0.0,390.0,4.0,64.0
2981,80.0,12.0,390.0,1.0,64.0
2982,56.0,0.0,150.0,12.0,64.0
2983,56.0,0.0,150.0,3.0,64.0
2984,80.0,0.0,150.0,0.0,64.0
2985,56.0,162.0,150.0,13.0,64.0
2986,68.0,0.0,390.0,2.0,64.0
2987,44.0,0.0,150.0,14.0,64.0
2988,68.0,0.0,150.0,11.0,64.0
2989,68.0,0.0,150.0,10.0,64.0
2990,72.0,0.0,90.0,10.0,64.0
2991,54.0,42.0,150.0,14.0,64.0
2992,66.0,0.0,150.0,3.0,64.0
2993,60.0,0.0,90.0,12.0,64.0
2994,66.0,0.0,150.0,13.0,64.0
2995,72.0,0.0,90.0,11.0,64.0
2996,84.0,66.0,90.0,0.0,64.0
2997,87.0,0.0,90.0,0.0,64.0
2998,75.0,0.0,90.0,10.0,64.0
2999,63.0,198.0,90.0,12.0,64.0
3000,75.0,0.0,90.0,11.0,64.0
3001,92.0,0.0,150.0,0.0,64.0
3002,68.0,0.0,150.0,12.0,64.0
3003,65.0,240.0,150.0,3.0,64.0
3004,65.0,0.0,150.0,13.0,64.0
3005,80.0,0.0,150.0,11.0,64.0
3006,80.0,0.0,150.0,10.0,64.0
3007,53.0,0.0,150.0,14.0,64.0
3008,49.0,0.0,150.0,14.0,64.0
3009,80.0,0.0,180.0,1.0,64.0
3010,61.0,0.0,150.0,13.0,64.0
3011,65.0,0.0,150.0,12.0,64.0
3012,73.0,0.0,150.0,10.0,64.0
3013,85.0,0.0,150.0,10.0,64.0
3014,73.0,0.0,150.0,11.0,64.0
3015,85.0,36.0,150.0,11.0,64.0
3016,92.0,0.0,150.0,0.0,64.0
3017,61.0,0.0,150.0,3.0,64.0
3018,85.0,0.0,150.0,0.0,64.0
3019,73.0,0.0,180.0,1.0,64.0
3020,68.0,0.0,180.0,4.0,64.0
3021,61.0,204.0,180.0,4.0,64.0
3022,82.0,0.0,180.0,10.0,64.0
3023,73.0,0.0,180.0,10.0,64.0
3024,54.0,36.0,150.0,14.0,64.0
3025,66.0,0.0,180.0,10.0,64.0
3026,73.0,0.0,180.0,1.0,64.0
3027,66.0,0.0,180.0,11.0,64.0
3028,66.0,0.0,150.0,12.0,64.0
3029,66.0,0.0,150.0,3.0,64.0
3030,82.0,0.0,180.0,11.0,64.0
3031,73.0,204.0,180.0,11.0,64.0
3032,82.0,0.0,180.0,0.0,64.0
3033,66.0,0.0,180.0,4.0,64.0
3034,70.0,0.0,180.0,4.0,64.0
3035,66.0,0.0,150.0,13.0,64.0
3036,82.0,0.0,180.0,1.0,64.0
3037,92.0,0.0,180.0,0.0,64.0
3038,63.0,0.0,150.0,3.0,64.0
3039,63.0,240.0,150.0,12.0,64.0
3040,51.0,0.0,150.0,14.0,64.0
3041,63.0,0.0,150.0,13.0,64.0
3042,72.0,204.0,180.0,1.0,64.0
3043,68.0,0.0,150.0,13.0,64.0
3044,80.0,0.0,180.0,10.0,64.0
3045,56.0,0.0,150.0,14.0,64.0
3046,80.0,0.0,180.0,11.0,64.0
3047,75.0,0.0,180.0,11.0,64.0
3048,72.0,0.0,180.0,10.0,64.0
3049,80.0,0.0,180.0,1.0,64.0
3050,75.0,0.0,180.0,10.0,64.0
3051,72.0,0.0,180.0,11.0,64.0
3052,68.0,0.0,150.0,12.0,64.0
3053,68.0,0.0,180.0,4.0,64.0
3054,87.0,0.0,180.0,0.0,64.0
3055,68.0,36.0,150.0,3.0,64.0
3056,84.0,0.0,180.0,0.0,64.0
3057,56.0,0.0,150.0,13.0,64.0
3058,44.0,0.0,150.0,14.0,64.0
3059,56.0,0.0,150.0,12.0,64.0
3060,56.0,180.0,150.0,3.0,64.0
3061,85.0,0.0,90.0,0.0,64.0
3062,49.0,0.0,180.0,6.0,64.0
3063,61.0,0.0,390.0,12.0,64.0
3064,68.0,0.0,390.0,4.0,64.0
3065,80.0,0.0,1920.0,1.0,64.0
3066,49.0,0.0,390.0,14.0,64.0
3067,61.0,0.0,390.0,3.0,64.0
3068,61.0,0.0,480.0,2.0,64.0
3069,77.0,96.0,480.0,1.0,64.0
3070,73.0,0.0,480.0,2.0,64.0
3071,73.0,0.0,180.0,5.0,64.0
3072,80.0,24.0,180.0,5.0,64.0
3073,73.0,96.0,90.0,10.0,64.0
3074,73.0,0.0,390.0,11.0,64.0
3075,61.0,72.0,390.0,4.0,64.0
3076,61.0,0.0,390.0,13.0,64.0
3077,80.0,0.0,90.0,10.0,64.0
3078,80.0,120.0,90.0,0.0,64.0
3079,77.0,48.0,90.0,10.0,64.0
3080,77.0,0.0,90.0,0.0,64.0
3081,73.0,24.0,90.0,10.0,64.0
3082,73.0,0.0,90.0,0.0,64.0
3083,68.0,0.0,480.0,2.0,64.0
3084,78.0,0.0,90.0,0.0,64.0
3085,78.0,120.0,90.0,10.0,64.0
3086,72.0,96.0,240.0,2.0,64.0
3087,75.0,0.0,240.0,1.0,64.0
3088,75.0,0.0,90.0,0.0,64.0
3089,75.0,24.0,90.0,10.0,64.0
3090,84.0,0.0,90.0,10.0,64.0
3091,80.0,0.0,180.0,11.0,64.0
3092,78.0,0.0,180.0,11.0,64.0
3093,75.0,0.0,180.0,12.0,64.0
3094,68.0,0.0,180.0,12.0,64.0
3095,75.0,96.0,240.0,2.0,64.0
3096,56.0,0.0,180.0,3.0,64.0
3097,78.0,0.0,240.0,1.0,64.0
3098,84.0,96.0,90.0,0.0,64.0
3099,68.0,0.0,180.0,4.0,64.0
3100,56.0,0.0,180.0,13.0,64.0
3101,44.0,24.0,180.0,14.0,64.0
3102,80.0,0.0,90.0,10.0,64.0
3103,80.0,24.0,90.0,0.0,64.0
3104,77.0,0.0,390.0,11.0,64.0
3105,68.0,0.0,390.0,4.0,64.0
3106,85.0,96.0,90.0,10.0,64.0
3107,80.0,72.0,390.0,11.0,64.0
3108,61.0,0.0,390.0,4.0,64.0
3109,80.0,24.0,180.0,5.0,64.0
3110,61.0,0.0,390.0,3.0,64.0
3111,61.0,0.0,390.0,13.0,64.0
3112,49.0,0.0,180.0,6.0,64.0
3113,49.0,0.0,390.0,14.0,64.0
3114,73.0,0.0,390.0,12.0,64.0
3115,73.0,0.0,180.0,5.0,64.0
3116,68.0,0.0,390.0,12.0,64.0
3117,73.0,96.0,480.0,2.0,64.0
3118,61.0,0.0,480.0,2.0,64.0
3119,77.0,0.0,480.0,1.0,64.0
3120,85.0,0.0,90.0,0.0,64.0
3121,80.0,120.0,90.0,10.0,64.0
3122,80.0,0.0,90.0,0.0,64.0
3123,77.0,0.0,90.0,0.0,64.0
3124,77.0,48.0,90.0,10.0,64.0
3125,73.0,0.0,90.0,10.0,64.0
3126,73.0,24.0,90.0,0.0,64.0
3127,78.0,120.0,90.0,10.0,64.0
3128,68.0,0.0,480.0,2.0,64.0
3129,72.0,0.0,240.0,2.0,64.0
3130,75.0,96.0,240.0,1.0,64.0
3131,78.0,0.0,90.0,0.0,64.0
3132,75.0,24.0,90.0,10.0,64.0
3133,75.0,0.0,90.0,0.0,64.0
3134,56.0,0.0,180.0,3.0,64.0
3135,68.0,0.0,180.0,12.0,64.0
3136,80.0,0.0,180.0,11.0,64.0
3137,78.0,96.0,240.0,1.0,64.0
3138,68.0,0.0,180.0,4.0,64.0
3139,84.0,96.0,90.0,10.0,64.0
3140,56.0,0.0,180.0,13.0,64.0
3141,75.0,0.0,180.0,12.0,64.0
3142,75.0,0.0,240.0,2.0,64.0
3143,44.0,24.0,180.0,14.0,64.0
3144,78.0,0.0,180.0,11.0,64.0
3145,84.0,0.0,90.0,0.0,64.0
3146,80.0,24.0,90.0,0.0,64.0
3147,80.0,0.0,90.0,10.0,64.0
3148,73.0,0.0,180.0,2.0,64.0
3149,68.0,0.0,390.0,4.0,64.0
3150,61.0,0.0,390.0,4.0,64.0
3151,85.0,96.0,90.0,10.0,64.0
3152,61.0,0.0,390.0,3.0,64.0
3153,61.0,0.0,180.0,2.0,64.0
3154,77.0,0.0,90.0,11.0,64.0
3155,80.0,0.0,90.0,11.0,64.0
3156,73.0,0.0,390.0,12.0,64.0
3157,49.0,0.0,390.0,14.0,64.0
3158,61.0,72.0,390.0,12.0,64.0
3159,73.0,0.0,180.0,5.0,64.0
3160,49.0,0.0,180.0,6.0,64.0
3161,80.0,0.0,180.0,1.0,64.0
3162,77.0,0.0,180.0,1.0,64.0
3163,85.0,24.0,180.0,0.0,64.0
3164,80.0,0.0,180.0,5.0,64.0
3165,61.0,0.0,390.0,13.0,64.0
3166,68.0,0.0,390.0,12.0,64.0
3167,85.0,0.0,90.0,11.0,64.0
3168,85.0,120.0,90.0,10.0,64.0
3169,84.0,48.0,90.0,10.0,64.0
3170,84.0,0.0,90.0,11.0,64.0
3171,82.0,0.0,90.0,11.0,64.0
3172,82.0,120.0,90.0,10.0,64.0
3173,80.0,120.0,90.0,10.0,64.0
3174,80.0,0.0,90.0,11.0,64.0
3175,82.0,120.0,90.0,11.0,64.0
3176,82.0,0.0,90.0,10.0,64.0
3177,78.0,120.0,90.0,10.0,64.0
3178,78.0,0.0,90.0,11.0,64.0
3179,80.0,0.0,90.0,10.0,64.0
3180,80.0,120.0,90.0,11.0,64.0
3181,77.0,120.0,90.0,11.0,64.0
3182,77.0,0.0,90.0,10.0,64.0
3183,82.0,0.0,90.0,10.0,64.0
3184,82.0,120.0,90.0,11.0,64.0
3185,80.0,0.0,90.0,10.0,64.0
3186,80.0,120.0,90.0,11.0,64.0
3187,78.0,0.0,90.0,11.0,64.0
3188,78.0,120.0,90.0,10.0,64.0
3189,77.0,120.0,90.0,10.0,64.0
3190,77.0,0.0,90.0,11.0,64.0
3191,78.0,120.0,90.0,10.0,64.0
3192,78.0,0.0,90.0,11.0,64.0
3193,75.0,120.0,90.0,11.0,64.0
3194,75.0,0.0,90.0,10.0,64.0
3195,77.0,0.0,90.0,11.0,64.0
3196,77.0,102.0,90.0,10.0,64.0
3197,49.0,0.0,390.0,6.0,64.0
3198,61.0,0.0,90.0,13.0,64.0
3199,73.0,0.0,390.0,1.0,64.0
3200,73.0,54.0,390.0,5.0,64.0
3201,73.0,120.0,90.0,10.0,64.0
3202,85.0,0.0,390.0,0.0,64.0
3203,61.0,0.0,390.0,2.0,64.0
3204,61.0,0.0,390.0,4.0,64.0
3205,49.0,0.0,90.0,14.0,64.0
3206,61.0,0.0,90.0,3.0,64.0
3207,73.0,0.0,90.0,12.0,64.0
3208,73.0,0.0,90.0,11.0,64.0
3209,77.0,120.0,90.0,10.0,64.0
3210,65.0,0.0,90.0,13.0,64.0
3211,53.0,0.0,90.0,14.0,64.0
3212,77.0,0.0,90.0,11.0,64.0
3213,65.0,0.0,90.0,3.0,64.0
3214,77.0,0.0,90.0,12.0,64.0
3215,51.0,0.0,90.0,14.0,64.0
3216,63.0,0.0,90.0,13.0,64.0
3217,75.0,0.0,90.0,10.0,64.0
3218,75.0,0.0,90.0,12.0,64.0
3219,63.0,66.0,90.0,3.0,64.0
3220,75.0,0.0,90.0,11.0,64.0
3221,73.0,0.0,90.0,11.0,64.0
3222,49.0,0.0,90.0,14.0,64.0
3223,73.0,0.0,90.0,12.0,64.0
3224,73.0,0.0,90.0,10.0,64.0
3225,61.0,120.0,90.0,13.0,64.0
3226,61.0,0.0,90.0,3.0,64.0
3227,61.0,0.0,150.0,4.0,64.0
3228,72.0,0.0,90.0,11.0,64.0
3229,72.0,0.0,90.0,10.0,64.0
3230,73.0,0.0,150.0,1.0,64.0
3231,60.0,0.0,90.0,13.0,64.0
3232,60.0,0.0,90.0,3.0,64.0
3233,72.0,0.0,90.0,12.0,64.0
3234,85.0,0.0,150.0,0.0,64.0
3235,73.0,0.0,150.0,5.0,64.0
3236,61.0,42.0,150.0,2.0,64.0
3237,48.0,78.0,90.0,14.0,64.0
3238,49.0,0.0,90.0,14.0,64.0
3239,73.0,0.0,90.0,11.0,64.0
3240,61.0,0.0,90.0,13.0,64.0
3241,73.0,120.0,90.0,12.0,64.0
3242,73.0,0.0,90.0,10.0,64.0
3243,61.0,0.0,90.0,3.0,64.0
3244,70.0,0.0,90.0,11.0,64.0
3245,58.0,0.0,90.0,13.0,64.0
3246,73.0,0.0,150.0,1.0,64.0
3247,46.0,0.0,90.0,14.0,64.0
3248,70.0,0.0,90.0,10.0,64.0
3249,85.0,42.0,150.0,0.0,64.0
3250,70.0,18.0,90.0,12.0,64.0
3251,61.0,0.0,150.0,2.0,64.0
3252,49.0,60.0,90.0,6.0,64.0
3253,61.0,0.0,150.0,4.0,64.0
3254,73.0,0.0,150.0,5.0,64.0
3255,58.0,0.0,90.0,3.0,64.0
3256,48.0,0.0,90.0,14.0,64.0
3257,60.0,0.0,90.0,13.0,64.0
3258,72.0,0.0,90.0,12.0,64.0
3259,49.0,102.0,90.0,6.0,64.0
3260,72.0,18.0,90.0,10.0,64.0
3261,72.0,0.0,90.0,11.0,64.0
3262,60.0,0.0,90.0,3.0,64.0
3263,77.0,0.0,390.0,1.0,64.0
3264,49.0,0.0,390.0,6.0,64.0
3265,56.0,0.0,90.0,13.0,64.0
3266,44.0,120.0,90.0,14.0,64.0
3267,73.0,0.0,390.0,5.0,64.0
3268,68.0,0.0,90.0,12.0,64.0
3269,61.0,54.0,390.0,4.0,64.0
3270,65.0,0.0,390.0,2.0,64.0
3271,56.0,0.0,90.0,3.0,64.0
3272,89.0,0.0,390.0,0.0,64.0
3273,68.0,0.0,90.0,11.0,64.0
3274,68.0,0.0,90.0,10.0,64.0
3275,73.0,0.0,90.0,10.0,64.0
3276,73.0,0.0,90.0,12.0,64.0
3277,61.0,0.0,90.0,13.0,64.0
3278,73.0,0.0,90.0,11.0,64.0
3279,61.0,120.0,90.0,3.0,64.0
3280,49.0,0.0,90.0,14.0,64.0
3281,60.0,66.0,90.0,13.0,64.0
3282,48.0,0.0,90.0,14.0,64.0
3283,72.0,0.0,90.0,11.0,64.0
3284,72.0,0.0,90.0,12.0,64.0
3285,72.0,0.0,90.0,10.0,64.0
3286,60.0,0.0,90.0,3.0,64.0
3287,58.0,0.0,90.0,3.0,64.0
3288,70.0,0.0,90.0,10.0,64.0
3289,46.0,120.0,90.0,14.0,64.0
3290,70.0,0.0,90.0,12.0,64.0
3291,70.0,0.0,90.0,11.0,64.0
3292,58.0,0.0,90.0,13.0,64.0
3293,65.0,0.0,150.0,2.0,64.0
3294,68.0,0.0,90.0,11.0,64.0
3295,68.0,0.0,90.0,10.0,64.0
3296,61.0,0.0,150.0,4.0,64.0
3297,56.0,0.0,90.0,3.0,64.0
3298,73.0,42.0,150.0,5.0,64.0
3299,44.0,78.0,90.0,14.0,64.0
3300,77.0,0.0,150.0,1.0,64.0
3301,56.0,0.0,90.0,13.0,64.0
3302,68.0,0.0,90.0,12.0,64.0
3303,89.0,0.0,150.0,0.0,64.0
3304,46.0,0.0,90.0,14.0,64.0
3305,58.0,0.0,90.0,13.0,64.0
3306,70.0,0.0,90.0,11.0,64.0
3307,70.0,120.0,90.0,10.0,64.0
3308,70.0,0.0,90.0,12.0,64.0
3309,58.0,0.0,90.0,3.0,64.0
3310,73.0,0.0,150.0,5.0,64.0
3311,66.0,0.0,90.0,12.0,64.0
3312,77.0,42.0,150.0,1.0,64.0
3313,65.0,0.0,150.0,2.0,64.0
3314,54.0,0.0,90.0,13.0,64.0
3315,66.0,18.0,90.0,11.0,64.0
3316,61.0,0.0,150.0,4.0,64.0
3317,49.0,60.0,90.0,6.0,64.0
3318,89.0,0.0,150.0,0.0,64.0
3319,54.0,0.0,90.0,3.0,64.0
3320,42.0,0.0,90.0,14.0,64.0
3321,66.0,0.0,90.0,10.0,64.0
3322,68.0,0.0,90.0,10.0,64.0
3323,56.0,0.0,90.0,3.0,64.0
3324,44.0,18.0,90.0,14.0,64.0
3325,68.0,0.0,90.0,12.0,64.0
3326,68.0,0.0,90.0,11.0,64.0
3327,49.0,102.0,90.0,6.0,64.0
3328,56.0,0.0,90.0,13.0,64.0
3329,80.0,0.0,390.0,1.0,64.0
3330,92.0,0.0,390.0,0.0,64.0
3331,41.0,0.0,90.0,14.0,64.0
3332,65.0,0.0,90.0,12.0,64.0
3333,65.0,0.0,90.0,10.0,64.0
3334,53.0,0.0,90.0,13.0,64.0
3335,73.0,0.0,390.0,5.0,64.0
3336,49.0,54.0,390.0,6.0,64.0
3337,65.0,0.0,90.0,11.0,64.0
3338,68.0,0.0,390.0,2.0,64.0
3339,53.0,120.0,90.0,3.0,64.0
3340,61.0,0.0,390.0,4.0,64.0
3341,58.0,0.0,90.0,13.0,64.0
3342,46.0,0.0,90.0,14.0,64.0
3343,58.0,0.0,90.0,3.0,64.0
3344,70.0,0.0,90.0,10.0,64.0
3345,70.0,120.0,90.0,12.0,64.0
3346,70.0,0.0,90.0,11.0,64.0
3347,56.0,0.0,90.0,13.0,64.0
3348,68.0,0.0,90.0,10.0,64.0
3349,56.0,0.0,90.0,3.0,64.0
3350,44.0,0.0,90.0,14.0,64.0
3351,68.0,66.0,90.0,11.0,64.0
3352,68.0,0.0,90.0,12.0,64.0
3353,66.0,0.0,90.0,11.0,64.0
3354,42.0,0.0,90.0,14.0,64.0
3355,54.0,0.0,90.0,3.0,64.0
3356,66.0,0.0,90.0,12.0,64.0
3357,66.0,0.0,90.0,10.0,64.0
3358,54.0,120.0,90.0,13.0,64.0
3359,65.0,0.0,90.0,10.0,64.0
3360,65.0,0.0,90.0,12.0,64.0
3361,61.0,0.0,150.0,4.0,64.0
3362,65.0,0.0,90.0,11.0,64.0
3363,41.0,0.0,90.0,14.0,64.0
3364,53.0,78.0,90.0,13.0,64.0
3365,80.0,0.0,150.0,1.0,64.0
3366,53.0,0.0,90.0,3.0,64.0
3367,68.0,0.0,150.0,2.0,64.0
3368,92.0,42.0,150.0,0.0,64.0
3369,73.0,0.0,150.0,5.0,64.0
3370,42.0,120.0,90.0,14.0,64.0
3371,66.0,0.0,90.0,11.0,64.0
3372,54.0,0.0,90.0,3.0,64.0
3373,66.0,0.0,90.0,10.0,64.0
3374,66.0,0.0,90.0,12.0,64.0
3375,54.0,0.0,90.0,13.0,64.0
3376,92.0,42.0,150.0,0.0,64.0
3377,73.0,0.0,150.0,5.0,64.0
3378,51.0,0.0,90.0,13.0,64.0
3379,39.0,0.0,90.0,14.0,64.0
3380,80.0,0.0,150.0,1.0,64.0
3381,49.0,60.0,90.0,6.0,64.0
3382,68.0,0.0,150.0,2.0,64.0
3383,63.0,18.0,90.0,12.0,64.0
3384,61.0,0.0,150.0,4.0,64.0
3385,63.0,0.0,90.0,11.0,64.0
3386,63.0,0.0,90.0,10.0,64.0
3387,51.0,0.0,90.0,3.0,64.0
3388,53.0,0.0,90.0,13.0,64.0
3389,65.0,18.0,90.0,11.0,64.0
3390,65.0,0.0,90.0,10.0,64.0
3391,53.0,0.0,90.0,3.0,64.0
3392,49.0,72.0,90.0,6.0,64.0
3393,65.0,0.0,90.0,12.0,64.0
3394,41.0,0.0,90.0,14.0,64.0
3395,49.0,0.0,90.0,13.0,64.0
3396,37.0,30.0,90.0,14.0,64.0
3397,85.0,0.0,150.0,0.0,64.0
3398,73.0,0.0,150.0,5.0,64.0
3399,61.0,12.0,150.0,4.0,64.0
3400,85.0,0.0,150.0,1.0,64.0
3401,49.0,0.0,90.0,3.0,64.0
3402,61.0,0.0,90.0,11.0,64.0
3403,61.0,0.0,90.0,10.0,64.0
3404,73.0,0.0,150.0,2.0,64.0
3405,61.0,0.0,90.0,12.0,64.0
3406,49.0,30.0,40.0,6.0,64.0
3407,49.0,48.0,40.0,6.0,64.0
3408,49.0,30.0,40.0,6.0,64.0
3409,63.0,30.0,90.0,11.0,64.0
3410,51.0,0.0,90.0,3.0,64.0
3411,63.0,0.0,90.0,10.0,64.0
3412,39.0,0.0,90.0,14.0,64.0
3413,51.0,0.0,90.0,13.0,64.0
3414,63.0,0.0,90.0,12.0,64.0
3415,49.0,60.0,40.0,6.0,64.0
3416,41.0,0.0,90.0,14.0,64.0
3417,92.0,0.0,150.0,0.0,64.0
3418,53.0,0.0,90.0,13.0,64.0
3419,80.0,12.0,150.0,1.0,64.0
3420,53.0,0.0,90.0,3.0,64.0
3421,68.0,0.0,150.0,2.0,64.0
3422,49.0,30.0,40.0,6.0,64.0
3423,65.0,30.0,90.0,11.0,64.0
3424,65.0,0.0,90.0,12.0,64.0
3425,65.0,0.0,90.0,10.0,64.0
3426,68.0,0.0,150.0,4.0,64.0
3427,49.0,48.0,40.0,6.0,64.0
3428,63.0,0.0,90.0,10.0,64.0
3429,49.0,30.0,40.0,6.0,64.0
3430,39.0,0.0,90.0,14.0,64.0
3431,51.0,0.0,90.0,13.0,64.0
3432,63.0,0.0,90.0,11.0,64.0
3433,63.0,30.0,90.0,12.0,64.0
3434,51.0,0.0,90.0,3.0,64.0
3435,49.0,60.0,40.0,6.0,64.0
3436,85.0,0.0,150.0,0.0,64.0
3437,49.0,30.0,40.0,6.0,64.0
3438,61.0,0.0,150.0,4.0,64.0
3439,61.0,30.0,90.0,12.0,64.0
3440,49.0,0.0,90.0,13.0,64.0
3441,61.0,0.0,90.0,10.0,64.0
3442,61.0,0.0,90.0,11.0,64.0
3443,49.0,0.0,90.0,3.0,64.0
3444,85.0,0.0,150.0,1.0,64.0
3445,73.0,12.0,150.0,2.0,64.0
3446,73.0,0.0,150.0,5.0,64.0
3447,37.0,0.0,90.0,14.0,64.0
3448,49.0,48.0,40.0,6.0,64.0
3449,63.0,0.0,90.0,10.0,64.0
3450,51.0,0.0,90.0,3.0,64.0
3451,39.0,0.0,90.0,14.0,64.0
3452,51.0,30.0,90.0,13.0,64.0
3453,63.0,0.0,90.0,12.0,64.0
3454,49.0,30.0,40.0,6.0,64.0
3455,63.0,0.0,90.0,11.0,64.0
3456,49.0,60.0,40.0,6.0,64.0
3457,53.0,0.0,90.0,13.0,64.0
3458,68.0,0.0,150.0,2.0,64.0
3459,65.0,0.0,90.0,12.0,64.0
3460,53.0,0.0,90.0,3.0,64.0
3461,49.0,30.0,40.0,6.0,64.0
3462,65.0,0.0,90.0,11.0,64.0
3463,92.0,12.0,150.0,0.0,64.0
3464,80.0,0.0,150.0,1.0,64.0
3465,65.0,30.0,90.0,10.0,64.0
3466,41.0,0.0,90.0,14.0,64.0
3467,68.0,0.0,150.0,4.0,64.0
3468,49.0,48.0,40.0,6.0,64.0
3469,51.0,0.0,90.0,3.0,64.0
3470,63.0,0.0,90.0,10.0,64.0
3471,49.0,30.0,40.0,6.0,64.0
3472,63.0,0.0,90.0,12.0,64.0
3473,39.0,0.0,90.0,14.0,64.0
3474,63.0,0.0,90.0,11.0,64.0
3475,51.0,30.0,90.0,13.0,64.0
3476,49.0,204.0,40.0,6.0,64.0
3477,61.0,0.0,300.0,4.0,64.0
3478,73.0,0.0,300.0,2.0,64.0
3479,61.0,0.0,300.0,10.0,64.0
3480,85.0,0.0,300.0,1.0,64.0
3481,73.0,0.0,300.0,5.0,64.0
3482,85.0,0.0,300.0,0.0,64.0
3483,61.0,360.0,300.0,11.0,64.0
3484,49.0,120.0,180.0,6.0,64.0
3485,61.0,0.0,300.0,12.0,64.0
3486,49.0,0.0,300.0,3.0,64.0
3487,37.0,0.0,300.0,14.0,64.0
3488,49.0,0.0,300.0,13.0,64.0
3489,61.0,0.0,300.0,13.0,64.0
3490,85.0,0.0,300.0,1.0,64.0
3491,49.0,0.0,300.0,14.0,64.0
3492,68.0,0.0,300.0,11.0,64.0
3493,73.0,0.0,300.0,5.0,64.0
3494,77.0,0.0,300.0,11.0,64.0
3495,77.0,552.0,300.0,10.0,64.0
3496,85.0,0.0,300.0,0.0,64.0
3497,61.0,0.0,300.0,4.0,64.0
3498,85.0,0.0,300.0,11.0,64.0
3499,61.0,0.0,300.0,3.0,64.0
3500,80.0,0.0,300.0,1.0,64.0
3501,49.0,120.0,180.0,6.0,64.0
3502,73.0,0.0,300.0,12.0,64.0
3503,77.0,0.0,300.0,2.0,64.0
3504,85.0,0.0,300.0,10.0,64.0
3505,73.0,0.0,300.0,2.0,64.0
3506,68.0,0.0,300.0,10.0,64.0
3507,61.0,0.0,390.0,10.0,64.0
3508,49.0,0.0,390.0,3.0,64.0
3509,61.0,0.0,390.0,12.0,64.0
3510,49.0,0.0,390.0,6.0,64.0
3511,77.0,0.0,390.0,2.0,64.0
3512,73.0,0.0,390.0,2.0,64.0
3513,61.0,0.0,390.0,4.0,64.0
3514,37.0,0.0,390.0,14.0,64.0
3515,61.0,0.0,390.0,11.0,64.0
3516,49.0,0.0,390.0,13.0,64.0
3517,80.0,0.0,390.0,1.0,64.0
3518,73.0,0.0,390.0,5.0,64.0
3519,85.0,1344.0,390.0,0.0,64.0
3520,85.0,0.0,390.0,1.0,64.0
3521,80.0,960.0,780.0,10.0,64.0
3522,85.0,312.0,780.0,10.0,64.0
3523,84.0,120.0,120.0,10.0,64.0
3524,68.0,72.0,780.0,11.0,64.0
3525,85.0,120.0,120.0,10.0,64.0
3526,82.0,120.0,120.0,10.0,64.0
3527,84.0,120.0,120.0,10.0,64.0
3528,80.0,120.0,120.0,10.0,64.0
3529,82.0,48.0,120.0,10.0,64.0
3530,78.0,96.0,120.0,10.0,64.0
3531,80.0,144.0,90.0,10.0,64.0
3532,77.0,120.0,120.0,10.0,64.0
3533,61.0,0.0,780.0,4.0,64.0
3534,73.0,72.0,780.0,11.0,64.0
3535,78.0,120.0,120.0,10.0,64.0
3536,80.0,96.0,120.0,10.0,64.0
3537,77.0,144.0,90.0,10.0,64.0
3538,82.0,168.0,120.0,10.0,64.0
3539,82.0,240.0,120.0,10.0,64.0
3540,68.0,0.0,780.0,4.0,64.0
3541,72.0,120.0,120.0,11.0,64.0
3542,80.0,0.0,120.0,10.0,64.0
3543,80.0,72.0,780.0,1.0,64.0
3544,82.0,0.0,120.0,10.0,64.0
3545,73.0,120.0,120.0,11.0,64.0
3546,70.0,0.0,120.0,11.0,64.0
3547,78.0,120.0,120.0,10.0,64.0
3548,72.0,0.0,120.0,11.0,64.0
3549,80.0,120.0,120.0,10.0,64.0
3550,77.0,120.0,120.0,10.0,64.0
3551,68.0,0.0,120.0,11.0,64.0
3552,70.0,0.0,120.0,11.0,64.0
3553,78.0,48.0,120.0,10.0,64.0
3554,66.0,0.0,120.0,11.0,64.0
3555,75.0,96.0,120.0,10.0,64.0
3556,68.0,0.0,90.0,11.0,64.0
3557,77.0,144.0,90.0,10.0,64.0
3558,73.0,72.0,390.0,4.0,64.0
3559,73.0,0.0,120.0,10.0,64.0
3560,65.0,120.0,120.0,11.0,64.0
3561,85.0,72.0,780.0,1.0,64.0
3562,75.0,0.0,120.0,10.0,64.0
3563,66.0,120.0,120.0,11.0,64.0
3564,68.0,24.0,120.0,11.0,64.0
3565,77.0,0.0,120.0,10.0,64.0
3566,73.0,0.0,90.0,10.0,64.0
3567,65.0,144.0,90.0,11.0,64.0
3568,70.0,168.0,120.0,11.0,64.0
3569,78.0,0.0,120.0,10.0,64.0
3570,78.0,240.0,120.0,10.0,64.0
3571,70.0,0.0,120.0,11.0,64.0
3572,85.0,72.0,780.0,0.0,64.0
3573,68.0,0.0,120.0,11.0,64.0
3574,77.0,120.0,120.0,10.0,64.0
3575,70.0,120.0,120.0,11.0,64.0
3576,78.0,0.0,120.0,10.0,64.0
3577,75.0,96.0,120.0,10.0,64.0
3578,66.0,0.0,120.0,11.0,64.0
3579,68.0,24.0,90.0,11.0,64.0
3580,77.0,120.0,120.0,10.0,64.0
3581,65.0,72.0,390.0,11.0,64.0
3582,73.0,120.0,120.0,10.0,64.0
3583,75.0,48.0,120.0,10.0,64.0
3584,71.0,24.0,120.0,10.0,64.0
3585,73.0,144.0,90.0,10.0,64.0
3586,90.0,0.0,780.0,0.0,64.0
3587,70.0,120.0,120.0,10.0,64.0
3588,66.0,48.0,720.0,11.0,64.0
3589,54.0,48.0,780.0,3.0,64.0
3590,71.0,120.0,120.0,10.0,64.0
3591,73.0,96.0,120.0,10.0,64.0
3592,70.0,120.0,90.0,10.0,64.0
3593,75.0,144.0,90.0,10.0,64.0
3594,59.0,168.0,180.0,11.0,64.0
3595,75.0,96.0,90.0,10.0,64.0
3596,89.0,120.0,120.0,0.0,64.0
3597,61.0,0.0,780.0,3.0,64.0
3598,73.0,0.0,780.0,2.0,64.0
3599,61.0,72.0,780.0,2.0,64.0
3600,73.0,0.0,120.0,10.0,64.0
3601,61.0,48.0,720.0,11.0,64.0
3602,75.0,120.0,120.0,10.0,64.0
3603,90.0,0.0,120.0,0.0,64.0
3604,71.0,0.0,120.0,10.0,64.0
3605,87.0,120.0,120.0,0.0,64.0
3606,73.0,0.0,120.0,10.0,64.0
3607,89.0,120.0,120.0,0.0,64.0
3608,85.0,0.0,120.0,0.0,64.0
3609,70.0,120.0,120.0,10.0,64.0
3610,87.0,0.0,120.0,0.0,64.0
3611,71.0,0.0,120.0,10.0,64.0
3612,83.0,0.0,120.0,0.0,64.0
3613,68.0,72.0,120.0,10.0,64.0
3614,65.0,24.0,180.0,11.0,64.0
3615,85.0,120.0,90.0,0.0,64.0
3616,70.0,0.0,90.0,10.0,64.0
3617,82.0,96.0,120.0,0.0,64.0
3618,66.0,72.0,390.0,10.0,64.0
3619,78.0,48.0,780.0,2.0,64.0
3620,66.0,24.0,90.0,11.0,64.0
3621,66.0,0.0,780.0,2.0,64.0
3622,68.0,24.0,90.0,11.0,64.0
3623,83.0,96.0,120.0,0.0,64.0
3624,85.0,24.0,120.0,0.0,64.0
3625,70.0,24.0,90.0,11.0,64.0
3626,66.0,0.0,90.0,11.0,64.0
3627,82.0,120.0,90.0,0.0,64.0
3628,87.0,0.0,90.0,0.0,64.0
3629,82.0,0.0,90.0,10.0,64.0
3630,78.0,192.0,90.0,11.0,64.0
3631,82.0,264.0,90.0,10.0,64.0
3632,87.0,0.0,90.0,0.0,64.0
3633,78.0,0.0,90.0,11.0,64.0
3634,77.0,0.0,240.0,11.0,64.0
3635,86.0,120.0,120.0,0.0,64.0
3636,70.0,72.0,780.0,12.0,64.0
3637,80.0,120.0,240.0,10.0,64.0
3638,87.0,0.0,120.0,0.0,64.0
3639,84.0,120.0,120.0,0.0,64.0
3640,78.0,120.0,240.0,10.0,64.0
3641,75.0,0.0,240.0,11.0,64.0
3642,86.0,0.0,120.0,0.0,64.0
3643,82.0,120.0,120.0,0.0,64.0
3644,74.0,0.0,390.0,11.0,64.0
3645,77.0,72.0,390.0,10.0,64.0
3646,83.0,48.0,120.0,0.0,64.0
3647,80.0,24.0,120.0,0.0,64.0
3648,82.0,144.0,90.0,0.0,64.0
3649,75.0,72.0,390.0,11.0,64.0
3650,75.0,48.0,780.0,12.0,64.0
3651,78.0,120.0,120.0,0.0,64.0
3652,51.0,0.0,780.0,3.0,64.0
3653,75.0,0.0,120.0,10.0,64.0
3654,80.0,0.0,120.0,0.0,64.0
3655,77.0,120.0,120.0,10.0,64.0
3656,82.0,24.0,120.0,0.0,64.0
3657,78.0,0.0,120.0,10.0,64.0
3658,75.0,0.0,90.0,10.0,64.0
3659,78.0,120.0,90.0,0.0,64.0
3660,66.0,144.0,150.0,10.0,64.0
3661,83.0,48.0,90.0,0.0,64.0
3662,83.0,48.0,90.0,0.0,64.0
3663,78.0,216.0,150.0,10.0,64.0
3664,58.0,0.0,780.0,3.0,64.0
3665,74.0,120.0,120.0,12.0,64.0
3666,82.0,72.0,780.0,0.0,64.0
3667,77.0,0.0,240.0,10.0,64.0
3668,75.0,120.0,120.0,12.0,64.0
3669,75.0,0.0,240.0,10.0,64.0
3670,72.0,120.0,120.0,12.0,64.0
3671,74.0,120.0,120.0,12.0,64.0
3672,74.0,48.0,240.0,10.0,64.0
3673,70.0,120.0,120.0,12.0,64.0
3674,71.0,0.0,120.0,12.0,64.0
3675,71.0,120.0,240.0,10.0,64.0
3676,68.0,96.0,120.0,12.0,64.0
3677,70.0,24.0,90.0,12.0,64.0
3678,66.0,120.0,120.0,12.0,64.0
3679,63.0,72.0,390.0,3.0,64.0
3680,70.0,96.0,480.0,10.0,64.0
3681,87.0,48.0,780.0,0.0,64.0
3682,68.0,120.0,120.0,12.0,64.0
3683,70.0,24.0,120.0,12.0,64.0
3684,66.0,24.0,90.0,12.0,64.0
3685,66.0,132.0,150.0,10.0,64.0
3686,71.0,60.0,90.0,12.0,64.0
3687,71.0,60.0,90.0,12.0,64.0
3688,75.0,204.0,150.0,10.0,64.0
3689,70.0,0.0,120.0,12.0,64.0
3690,78.0,72.0,780.0,1.0,64.0
3691,73.0,120.0,120.0,10.0,64.0
3692,71.0,120.0,120.0,12.0,64.0
3693,75.0,0.0,120.0,10.0,64.0
3694,68.0,0.0,120.0,12.0,64.0
3695,71.0,120.0,120.0,10.0,64.0
3696,70.0,0.0,120.0,12.0,64.0
3697,73.0,120.0,120.0,10.0,64.0
3698,66.0,0.0,120.0,12.0,64.0
3699,70.0,120.0,120.0,10.0,64.0
3700,68.0,0.0,120.0,12.0,64.0
3701,71.0,48.0,120.0,10.0,64.0
3702,64.0,0.0,120.0,12.0,64.0
3703,68.0,96.0,120.0,10.0,64.0
3704,66.0,0.0,90.0,12.0,64.0
3705,70.0,144.0,90.0,10.0,64.0
3706,63.0,120.0,120.0,12.0,64.0
3707,66.0,72.0,390.0,10.0,64.0
3708,83.0,48.0,780.0,1.0,64.0
3709,47.0,0.0,780.0,3.0,64.0
3710,71.0,120.0,600.0,11.0,64.0
3711,64.0,120.0,120.0,12.0,64.0
3712,66.0,24.0,120.0,12.0,64.0
3713,63.0,120.0,90.0,12.0,64.0
3714,68.0,24.0,90.0,12.0,64.0
3715,73.0,48.0,120.0,11.0,64.0
3716,75.0,96.0,120.0,11.0,64.0
3717,68.0,24.0,90.0,12.0,64.0
3718,77.0,144.0,90.0,11.0,64.0
3719,54.0,0.0,780.0,3.0,64.0
3720,66.0,72.0,780.0,12.0,64.0
3721,82.0,120.0,120.0,1.0,64.0
3722,78.0,0.0,120.0,11.0,64.0
3723,66.0,0.0,930.0,1.0,64.0
3724,83.0,0.0,120.0,1.0,64.0
3725,80.0,120.0,120.0,11.0,64.0
3726,80.0,0.0,120.0,1.0,64.0
3727,76.0,120.0,120.0,11.0,64.0
3728,78.0,0.0,120.0,11.0,64.0
3729,82.0,120.0,120.0,1.0,64.0
3730,75.0,0.0,120.0,11.0,64.0
3731,78.0,120.0,120.0,1.0,64.0
3732,76.0,0.0,120.0,11.0,64.0
3733,80.0,48.0,120.0,1.0,64.0
3734,73.0,0.0,120.0,11.0,64.0
3735,76.0,96.0,120.0,1.0,64.0
3736,75.0,144.0,90.0,11.0,64.0
3737,78.0,0.0,90.0,1.0,64.0
3738,71.0,48.0,780.0,11.0,64.0
3739,59.0,120.0,120.0,10.0,64.0
3740,59.0,72.0,390.0,3.0,64.0
3741,75.0,0.0,120.0,1.0,64.0
3742,71.0,144.0,930.0,1.0,64.0
3743,61.0,0.0,120.0,10.0,64.0
3744,76.0,120.0,120.0,1.0,64.0
3745,63.0,24.0,120.0,10.0,64.0
3746,78.0,0.0,120.0,1.0,64.0
3747,75.0,0.0,90.0,1.0,64.0
3748,59.0,120.0,90.0,10.0,64.0
3749,80.0,0.0,90.0,1.0,64.0
3750,75.0,192.0,90.0,10.0,64.0
3751,75.0,0.0,90.0,10.0,64.0
3752,80.0,120.0,90.0,1.0,64.0
3753,63.0,72.0,780.0,12.0,64.0
3754,75.0,0.0,240.0,10.0,64.0
3755,63.0,0.0,780.0,13.0,64.0
3756,70.0,120.0,240.0,11.0,64.0
3757,78.0,120.0,120.0,1.0,64.0
3758,80.0,0.0,120.0,1.0,64.0
3759,70.0,48.0,180.0,10.0,64.0
3760,76.0,72.0,120.0,1.0,64.0
3761,68.0,0.0,240.0,11.0,64.0
3762,78.0,120.0,120.0,1.0,64.0
3763,66.0,72.0,390.0,11.0,64.0
3764,75.0,120.0,120.0,1.0,64.0
3765,70.0,48.0,660.0,10.0,64.0
3766,76.0,48.0,120.0,1.0,64.0
3767,73.0,24.0,120.0,1.0,64.0
3768,75.0,144.0,90.0,1.0,64.0
3769,56.0,48.0,780.0,3.0,64.0
3770,68.0,0.0,780.0,13.0,64.0
3771,71.0,72.0,120.0,1.0,64.0
3772,80.0,0.0,780.0,0.0,64.0
3773,68.0,0.0,780.0,12.0,64.0
3774,73.0,96.0,120.0,1.0,64.0
3775,75.0,96.0,120.0,1.0,64.0
3776,68.0,24.0,90.0,10.0,64.0
3777,71.0,120.0,90.0,1.0,64.0
3778,67.0,0.0,90.0,10.0,64.0
3779,76.0,96.0,90.0,1.0,64.0
3780,68.0,96.0,180.0,10.0,64.0
3781,71.0,168.0,180.0,10.0,64.0
3782,76.0,96.0,90.0,1.0,64.0
3783,70.0,120.0,120.0,12.0,64.0
3784,67.0,0.0,120.0,13.0,64.0
3785,75.0,0.0,390.0,1.0,64.0
3786,87.0,48.0,780.0,0.0,64.0
3787,70.0,72.0,390.0,10.0,64.0
3788,63.0,0.0,780.0,3.0,64.0
3789,75.0,0.0,780.0,11.0,64.0
3790,68.0,120.0,120.0,13.0,64.0
3791,71.0,0.0,120.0,12.0,64.0
3792,68.0,0.0,120.0,12.0,64.0
3793,65.0,24.0,120.0,13.0,64.0
3794,67.0,96.0,120.0,13.0,64.0
3795,70.0,24.0,90.0,12.0,64.0
3796,63.0,120.0,120.0,13.0,64.0
3797,67.0,24.0,90.0,12.0,64.0
3798,64.0,48.0,120.0,13.0,64.0
3799,70.0,24.0,90.0,12.0,64.0
3800,61.0,96.0,120.0,13.0,64.0
3801,63.0,144.0,90.0,13.0,64.0
3802,59.0,120.0,120.0,13.0,64.0
3803,80.0,0.0,780.0,10.0,64.0
3804,68.0,0.0,780.0,2.0,64.0
3805,80.0,48.0,780.0,11.0,64.0
3806,68.0,0.0,390.0,3.0,64.0
3807,68.0,72.0,390.0,12.0,64.0
3808,61.0,120.0,120.0,13.0,64.0
3809,63.0,24.0,120.0,13.0,64.0
3810,59.0,120.0,90.0,13.0,64.0
3811,64.0,192.0,90.0,13.0,64.0
3812,64.0,264.0,90.0,13.0,64.0
3813,75.0,0.0,780.0,2.0,64.0
3814,63.0,72.0,780.0,12.0,64.0
3815,63.0,0.0,120.0,13.0,64.0
3816,87.0,0.0,780.0,0.0,64.0
3817,75.0,0.0,780.0,0.0,64.0
3818,87.0,48.0,720.0,10.0,64.0
3819,79.0,120.0,120.0,11.0,64.0
3820,64.0,120.0,120.0,13.0,64.0
3821,80.0,0.0,120.0,11.0,64.0
3822,76.0,0.0,120.0,11.0,64.0
3823,61.0,120.0,120.0,13.0,64.0
3824,78.0,120.0,120.0,11.0,64.0
3825,63.0,0.0,120.0,13.0,64.0
3826,59.0,120.0,120.0,13.0,64.0
3827,75.0,0.0,120.0,11.0,64.0
3828,76.0,0.0,120.0,11.0,64.0
3829,61.0,0.0,120.0,13.0,64.0
3830,79.0,24.0,180.0,10.0,64.0
3831,58.0,72.0,120.0,13.0,64.0
3832,73.0,0.0,120.0,11.0,64.0
3833,61.0,264.0,90.0,13.0,64.0
3834,76.0,0.0,90.0,11.0,64.0
3835,80.0,48.0,780.0,1.0,64.0
3836,68.0,0.0,780.0,1.0,64.0
3837,59.0,192.0,240.0,13.0,64.0
3838,59.0,0.0,240.0,3.0,64.0
3839,75.0,0.0,240.0,11.0,64.0
3840,80.0,0.0,240.0,10.0,64.0
3841,80.0,0.0,780.0,0.0,64.0
3842,92.0,0.0,780.0,0.0,64.0
3843,68.0,144.0,570.0,12.0,64.0
3844,73.0,96.0,240.0,11.0,64.0
3845,82.0,48.0,180.0,10.0,64.0
3846,58.0,0.0,240.0,13.0,64.0
3847,58.0,0.0,240.0,3.0,64.0
3848,56.0,0.0,240.0,3.0,64.0
3849,83.0,0.0,960.0,10.0,64.0
3850,71.0,0.0,240.0,11.0,64.0
3851,56.0,48.0,240.0,13.0,64.0
3852,54.0,24.0,180.0,13.0,64.0
3853,54.0,0.0,180.0,3.0,64.0
3854,70.0,96.0,90.0,12.0,64.0
3855,70.0,0.0,180.0,11.0,64.0
3856,71.0,504.0,90.0,12.0,64.0
3857,71.0,0.0,480.0,11.0,64.0
3858,53.0,0.0,480.0,3.0,64.0
3859,73.0,96.0,780.0,1.0,64.0
3860,53.0,288.0,480.0,13.0,64.0
3861,85.0,0.0,780.0,1.0,64.0
3862,54.0,0.0,450.0,13.0,64.0
3863,73.0,0.0,15.0,12.0,64.0
3864,82.0,0.0,450.0,10.0,64.0
3865,54.0,72.0,390.0,3.0,64.0
3866,66.0,0.0,450.0,11.0,64.0
3867,80.0,0.0,480.0,10.0,64.0
3868,59.0,0.0,480.0,3.0,64.0
3869,80.0,0.0,480.0,1.0,64.0
3870,83.0,0.0,480.0,1.0,64.0
3871,75.0,96.0,780.0,11.0,64.0
3872,71.0,288.0,480.0,12.0,64.0
3873,59.0,0.0,480.0,13.0,64.0
3874,60.0,288.0,390.0,3.0,64.0
3875,78.0,0.0,390.0,10.0,64.0
3876,70.0,0.0,390.0,12.0,64.0
3877,78.0,0.0,390.0,1.0,64.0
3878,60.0,0.0,390.0,13.0,64.0
3879,82.0,0.0,390.0,1.0,64.0
3880,49.0,0.0,390.0,6.0,64.0
3881,61.0,0.0,390.0,5.0,64.0
3882,49.0,0.0,390.0,4.0,64.0
3883,85.0,96.0,780.0,10.0,64.0
3884,61.0,192.0,180.0,13.0,64.0
3885,73.0,0.0,390.0,5.0,64.0
3886,61.0,0.0,390.0,4.0,64.0
3887,73.0,0.0,390.0,11.0,64.0
3888,68.0,0.0,390.0,2.0,64.0
3889,77.0,0.0,390.0,1.0,64.0
3890,49.0,0.0,180.0,14.0,64.0
3891,65.0,0.0,390.0,2.0,64.0
3892,61.0,0.0,180.0,3.0,64.0
3893,68.0,0.0,390.0,12.0,64.0
3894,85.0,0.0,390.0,0.0,64.0
3895,80.0,240.0,390.0,1.0,64.0
3896,61.0,0.0,150.0,4.0,64.0
3897,49.0,0.0,150.0,4.0,64.0
3898,73.0,0.0,150.0,5.0,64.0
3899,61.0,0.0,150.0,5.0,64.0
3900,85.0,144.0,150.0,0.0,64.0
3901,65.0,0.0,150.0,2.0,64.0
3902,80.0,0.0,150.0,1.0,64.0
3903,77.0,0.0,150.0,1.0,64.0
3904,68.0,0.0,150.0,2.0,64.0
3905,61.0,0.0,150.0,4.0,64.0
3906,49.0,0.0,150.0,4.0,64.0
3907,73.0,0.0,150.0,5.0,64.0
3908,61.0,0.0,150.0,5.0,64.0
3909,80.0,0.0,150.0,1.0,64.0
3910,77.0,0.0,150.0,1.0,64.0
3911,68.0,0.0,150.0,2.0,64.0
3912,65.0,0.0,150.0,2.0,64.0
3913,85.0,480.0,150.0,0.0,64.0
3914,61.0,0.0,390.0,5.0,64.0
3915,61.0,240.0,390.0,4.0,64.0
3916,73.0,0.0,390.0,5.0,64.0
3917,81.0,0.0,390.0,1.0,64.0
3918,85.0,0.0,390.0,0.0,64.0
3919,78.0,0.0,390.0,1.0,64.0
3920,66.0,0.0,390.0,2.0,64.0
3921,90.0,96.0,780.0,10.0,64.0
3922,49.0,0.0,390.0,4.0,64.0
3923,69.0,0.0,390.0,2.0,64.0
3924,78.0,0.0,150.0,1.0,64.0
3925,85.0,144.0,150.0,0.0,64.0
3926,81.0,0.0,150.0,1.0,64.0
3927,49.0,0.0,150.0,4.0,64.0
3928,61.0,0.0,150.0,4.0,64.0
3929,66.0,0.0,150.0,2.0,64.0
3930,61.0,0.0,150.0,5.0,64.0
3931,73.0,0.0,150.0,5.0,64.0
3932,69.0,0.0,150.0,2.0,64.0
3933,78.0,0.0,150.0,1.0,64.0
3934,81.0,0.0,150.0,1.0,64.0
3935,69.0,0.0,150.0,2.0,64.0
3936,49.0,0.0,150.0,4.0,64.0
3937,85.0,0.0,150.0,0.0,64.0
3938,73.0,216.0,150.0,5.0,64.0
3939,66.0,0.0,150.0,2.0,64.0
3940,61.0,0.0,150.0,5.0,64.0
3941,61.0,0.0,150.0,4.0,64.0
3942,61.0,48.0,180.0,3.0,64.0
3943,61.0,0.0,180.0,13.0,64.0
3944,85.0,0.0,390.0,0.0,64.0
3945,68.0,96.0,390.0,2.0,64.0
3946,65.0,0.0,390.0,2.0,64.0
3947,49.0,0.0,390.0,6.0,64.0
3948,73.0,0.0,780.0,11.0,64.0
3949,49.0,0.0,180.0,14.0,64.0
3950,49.0,0.0,390.0,4.0,64.0
3951,77.0,0.0,390.0,1.0,64.0
3952,73.0,0.0,390.0,5.0,64.0
3953,61.0,72.0,780.0,12.0,64.0
3954,61.0,0.0,390.0,4.0,64.0
3955,61.0,0.0,390.0,5.0,64.0
3956,80.0,0.0,390.0,1.0,64.0
3957,89.0,72.0,120.0,10.0,64.0
3958,90.0,120.0,120.0,10.0,64.0
3959,87.0,24.0,120.0,10.0,64.0
3960,89.0,120.0,120.0,10.0,64.0
3961,61.0,0.0,150.0,5.0,64.0
3962,73.0,96.0,150.0,5.0,64.0
3963,65.0,0.0,150.0,2.0,64.0
3964,61.0,0.0,150.0,4.0,64.0
3965,68.0,0.0,150.0,2.0,64.0
3966,85.0,0.0,150.0,0.0,64.0
3967,77.0,0.0,150.0,1.0,64.0
3968,85.0,24.0,120.0,10.0,64.0
3969,49.0,0.0,150.0,4.0,64.0
3970,80.0,0.0,150.0,1.0,64.0
3971,86.0,48.0,120.0,10.0,64.0
3972,61.0,0.0,150.0,5.0,64.0
3973,73.0,0.0,150.0,5.0,64.0
3974,65.0,0.0,150.0,2.0,64.0
3975,68.0,0.0,150.0,2.0,64.0
3976,85.0,0.0,150.0,0.0,64.0
3977,80.0,0.0,150.0,1.0,64.0
3978,83.0,24.0,120.0,10.0,64.0
3979,49.0,72.0,150.0,4.0,64.0
3980,77.0,0.0,150.0,1.0,64.0
3981,61.0,0.0,150.0,4.0,64.0
3982,85.0,144.0,90.0,10.0,64.0
3983,69.0,0.0,390.0,2.0,64.0
3984,66.0,72.0,780.0,12.0,64.0
3985,73.0,0.0,390.0,5.0,64.0
3986,78.0,0.0,390.0,1.0,64.0
3987,61.0,0.0,390.0,5.0,64.0
3988,61.0,96.0,390.0,4.0,64.0
3989,81.0,120.0,120.0,10.0,64.0
3990,49.0,0.0,390.0,4.0,64.0
3991,81.0,0.0,390.0,1.0,64.0
3992,66.0,0.0,390.0,2.0,64.0
3993,78.0,0.0,780.0,11.0,64.0
3994,85.0,0.0,390.0,0.0,64.0
3995,83.0,120.0,120.0,10.0,64.0
3996,80.0,24.0,120.0,10.0,64.0
3997,81.0,120.0,120.0,10.0,64.0
3998,85.0,0.0,150.0,0.0,64.0
3999,81.0,0.0,150.0,1.0,64.0
4000,78.0,0.0,150.0,1.0,64.0
4001,49.0,0.0,150.0,4.0,64.0
4002,78.0,24.0,120.0,10.0,64.0
4003,66.0,0.0,150.0,2.0,64.0
4004,61.0,96.0,150.0,5.0,64.0
4005,73.0,0.0,150.0,5.0,64.0
4006,61.0,0.0,150.0,4.0,64.0
4007,69.0,0.0,150.0,2.0,64.0
4008,81.0,48.0,120.0,10.0,64.0
4009,73.0,0.0,150.0,5.0,64.0
4010,81.0,72.0,150.0,1.0,64.0
4011,61.0,0.0,150.0,4.0,64.0
4012,49.0,0.0,150.0,4.0,64.0
4013,61.0,0.0,150.0,5.0,64.0
4014,80.0,24.0,120.0,10.0,64.0
4015,78.0,0.0,150.0,1.0,64.0
4016,69.0,0.0,150.0,2.0,64.0
4017,66.0,0.0,150.0,2.0,64.0
4018,85.0,0.0,150.0,0.0,64.0
4019,78.0,120.0,90.0,10.0,64.0
4020,49.0,0.0,780.0,14.0,64.0
4021,65.0,0.0,90.0,12.0,64.0
4022,65.0,0.0,390.0,2.0,64.0
4023,85.0,0.0,390.0,0.0,64.0
4024,77.0,144.0,90.0,11.0,64.0
4025,85.0,0.0,780.0,10.0,64.0
4026,61.0,0.0,780.0,3.0,64.0
4027,77.0,0.0,390.0,1.0,64.0
4028,49.0,0.0,390.0,4.0,64.0
4029,61.0,0.0,390.0,4.0,64.0
4030,73.0,0.0,390.0,5.0,64.0
4031,61.0,0.0,390.0,5.0,64.0
4032,68.0,96.0,390.0,2.0,64.0
4033,61.0,72.0,780.0,13.0,64.0
4034,80.0,0.0,390.0,1.0,64.0
4035,49.0,0.0,390.0,6.0,64.0
4036,66.0,0.0,120.0,12.0,64.0
4037,78.0,120.0,120.0,11.0,64.0
4038,63.0,24.0,120.0,12.0,64.0
4039,75.0,0.0,120.0,11.0,64.0
4040,77.0,0.0,120.0,11.0,64.0
4041,65.0,120.0,120.0,12.0,64.0
4042,80.0,0.0,150.0,1.0,64.0
4043,68.0,0.0,150.0,2.0,64.0
4044,61.0,0.0,150.0,5.0,64.0
4045,73.0,0.0,150.0,5.0,64.0
4046,73.0,24.0,120.0,11.0,64.0
4047,77.0,0.0,150.0,1.0,64.0
4048,65.0,0.0,150.0,2.0,64.0
4049,49.0,0.0,150.0,4.0,64.0
4050,61.0,0.0,120.0,12.0,64.0
4051,85.0,0.0,150.0,0.0,64.0
4052,61.0,96.0,150.0,4.0,64.0
4053,74.0,48.0,120.0,11.0,64.0
4054,62.0,0.0,120.0,12.0,64.0
4055,59.0,0.0,120.0,12.0,64.0
4056,80.0,0.0,150.0,1.0,64.0
4057,61.0,72.0,150.0,4.0,64.0
4058,49.0,0.0,150.0,4.0,64.0
4059,65.0,0.0,150.0,2.0,64.0
4060,71.0,24.0,120.0,11.0,64.0
4061,61.0,0.0,150.0,5.0,64.0
4062,85.0,0.0,150.0,0.0,64.0
4063,73.0,0.0,150.0,5.0,64.0
4064,68.0,0.0,150.0,2.0,64.0
4065,77.0,0.0,150.0,1.0,64.0
4066,61.0,0.0,90.0,12.0,64.0
4067,73.0,144.0,90.0,11.0,64.0
4068,73.0,0.0,390.0,5.0,64.0
4069,57.0,120.0,120.0,12.0,64.0
4070,69.0,0.0,390.0,2.0,64.0
4071,66.0,0.0,390.0,2.0,64.0
4072,61.0,0.0,390.0,5.0,64.0
4073,66.0,0.0,780.0,3.0,64.0
4074,90.0,0.0,780.0,10.0,64.0
4075,78.0,0.0,390.0,1.0,64.0
4076,66.0,24.0,780.0,13.0,64.0
4077,61.0,0.0,390.0,4.0,64.0
4078,54.0,0.0,390.0,6.0,64.0
4079,85.0,96.0,390.0,0.0,64.0
4080,69.0,0.0,120.0,11.0,64.0
4081,54.0,0.0,780.0,14.0,64.0
4082,49.0,0.0,390.0,4.0,64.0
4083,81.0,0.0,390.0,1.0,64.0
4084,71.0,120.0,120.0,11.0,64.0
4085,59.0,0.0,120.0,12.0,64.0
4086,68.0,0.0,120.0,11.0,64.0
4087,56.0,24.0,120.0,12.0,64.0
4088,57.0,0.0,120.0,12.0,64.0
4089,69.0,72.0,120.0,11.0,64.0
4090,49.0,0.0,150.0,4.0,64.0
4091,61.0,0.0,150.0,4.0,64.0
4092,54.0,0.0,60.0,12.0,64.0
4093,85.0,0.0,150.0,0.0,64.0
4094,78.0,0.0,150.0,1.0,64.0
4095,73.0,0.0,150.0,5.0,64.0
4096,81.0,0.0,150.0,1.0,64.0
4097,69.0,0.0,150.0,2.0,64.0
4098,66.0,48.0,150.0,2.0,64.0
4099,66.0,72.0,60.0,11.0,64.0
4100,61.0,0.0,150.0,5.0,64.0
4101,69.0,96.0,60.0,12.0,64.0
4102,81.0,0.0,60.0,11.0,64.0
4103,85.0,0.0,150.0,0.0,64.0
4104,78.0,0.0,150.0,1.0,64.0
4105,81.0,0.0,150.0,1.0,64.0
4106,80.0,72.0,60.0,11.0,64.0
4107,68.0,0.0,60.0,12.0,64.0
4108,49.0,48.0,150.0,4.0,64.0
4109,61.0,0.0,150.0,4.0,64.0
4110,66.0,0.0,150.0,2.0,64.0
4111,69.0,0.0,150.0,2.0,64.0
4112,73.0,0.0,150.0,5.0,64.0
4113,61.0,0.0,150.0,5.0,64.0
4114,78.0,0.0,60.0,11.0,64.0
4115,66.0,168.0,60.0,12.0,64.0
4116,61.0,0.0,390.0,4.0,64.0
4117,49.0,0.0,390.0,4.0,64.0
4118,49.0,0.0,390.0,6.0,64.0
4119,53.0,120.0,120.0,14.0,64.0
4120,77.0,0.0,120.0,11.0,64.0
4121,65.0,0.0,120.0,12.0,64.0
4122,68.0,96.0,390.0,2.0,64.0
4123,65.0,0.0,390.0,2.0,64.0
4124,73.0,0.0,390.0,5.0,64.0
4125,85.0,0.0,390.0,0.0,64.0
4126,65.0,0.0,120.0,13.0,64.0
4127,61.0,0.0,390.0,5.0,64.0
4128,89.0,0.0,120.0,10.0,64.0
4129,65.0,0.0,120.0,3.0,64.0
4130,80.0,0.0,390.0,1.0,64.0
4131,77.0,0.0,390.0,1.0,64.0
4132,90.0,0.0,120.0,10.0,64.0
4133,66.0,0.0,120.0,3.0,64.0
4134,78.0,120.0,120.0,11.0,64.0
4135,66.0,0.0,120.0,13.0,64.0
4136,66.0,0.0,120.0,12.0,64.0
4137,54.0,0.0,120.0,14.0,64.0
4138,63.0,0.0,120.0,12.0,64.0
4139,63.0,0.0,120.0,3.0,64.0
4140,87.0,24.0,120.0,10.0,64.0
4141,75.0,0.0,120.0,11.0,64.0
4142,51.0,0.0,120.0,14.0,64.0
4143,63.0,0.0,120.0,13.0,64.0
4144,65.0,120.0,120.0,13.0,64.0
4145,77.0,0.0,120.0,11.0,64.0
4146,89.0,0.0,120.0,10.0,64.0
4147,53.0,0.0,120.0,14.0,64.0
4148,65.0,0.0,120.0,12.0,64.0
4149,65.0,0.0,120.0,3.0,64.0
4150,61.0,0.0,120.0,3.0,64.0
4151,73.0,0.0,120.0,11.0,64.0
4152,65.0,96.0,150.0,2.0,64.0
4153,68.0,0.0,150.0,2.0,64.0
4154,61.0,0.0,120.0,12.0,64.0
4155,85.0,24.0,120.0,10.0,64.0
4156,61.0,0.0,150.0,4.0,64.0
4157,49.0,0.0,150.0,4.0,64.0
4158,61.0,0.0,150.0,5.0,64.0
4159,73.0,0.0,150.0,5.0,64.0
4160,80.0,0.0,150.0,1.0,64.0
4161,77.0,0.0,150.0,1.0,64.0
4162,49.0,0.0,120.0,14.0,64.0
4163,61.0,0.0,120.0,13.0,64.0
4164,85.0,0.0,150.0,0.0,64.0
4165,50.0,0.0,120.0,14.0,64.0
4166,62.0,0.0,120.0,12.0,64.0
4167,74.0,0.0,120.0,11.0,64.0
4168,62.0,0.0,120.0,13.0,64.0
4169,86.0,96.0,120.0,10.0,64.0
4170,62.0,0.0,120.0,3.0,64.0
4171,77.0,0.0,150.0,1.0,64.0
4172,49.0,24.0,90.0,6.0,64.0
4173,61.0,0.0,150.0,5.0,64.0
4174,47.0,24.0,120.0,14.0,64.0
4175,80.0,0.0,150.0,1.0,64.0
4176,73.0,0.0,150.0,5.0,64.0
4177,49.0,0.0,150.0,4.0,64.0
4178,85.0,72.0,150.0,0.0,64.0
4179,68.0,0.0,150.0,2.0,64.0
4180,65.0,0.0,150.0,2.0,64.0
4181,59.0,0.0,120.0,13.0,64.0
4182,59.0,0.0,120.0,12.0,64.0
4183,71.0,0.0,120.0,11.0,64.0
4184,83.0,0.0,120.0,10.0,64.0
4185,61.0,0.0,150.0,4.0,64.0
4186,59.0,0.0,120.0,3.0,64.0
4187,61.0,0.0,90.0,13.0,64.0
4188,61.0,0.0,90.0,12.0,64.0
4189,61.0,0.0,90.0,3.0,64.0
4190,73.0,144.0,90.0,11.0,64.0
4191,85.0,0.0,90.0,10.0,64.0
4192,49.0,0.0,90.0,14.0,64.0
4193,49.0,0.0,90.0,6.0,64.0
4194,81.0,0.0,390.0,1.0,64.0
4195,66.0,0.0,390.0,2.0,64.0
4196,69.0,0.0,390.0,2.0,64.0
4197,49.0,0.0,390.0,4.0,64.0
4198,61.0,0.0,390.0,4.0,64.0
4199,81.0,0.0,120.0,10.0,64.0
4200,69.0,0.0,120.0,11.0,64.0
4201,78.0,0.0,390.0,1.0,64.0
4202,57.0,120.0,120.0,13.0,64.0
4203,73.0,0.0,390.0,5.0,64.0
4204,85.0,0.0,390.0,0.0,64.0
4205,57.0,0.0,120.0,3.0,64.0
4206,57.0,0.0,120.0,12.0,64.0
4207,61.0,96.0,390.0,5.0,64.0
4208,54.0,0.0,390.0,6.0,64.0
4209,45.0,0.0,120.0,14.0,64.0
4210,47.0,0.0,120.0,14.0,64.0
4211,59.0,0.0,120.0,13.0,64.0
4212,59.0,120.0,120.0,3.0,64.0
4213,71.0,0.0,120.0,11.0,64.0
4214,83.0,0.0,120.0,10.0,64.0
4215,59.0,0.0,120.0,12.0,64.0
4216,80.0,0.0,120.0,10.0,64.0
4217,56.0,0.0,120.0,12.0,64.0
4218,44.0,0.0,120.0,14.0,64.0
4219,56.0,0.0,120.0,3.0,64.0
4220,68.0,24.0,120.0,11.0,64.0
4221,56.0,0.0,120.0,13.0,64.0
4222,57.0,0.0,120.0,13.0,64.0
4223,57.0,0.0,120.0,12.0,64.0
4224,57.0,0.0,120.0,3.0,64.0
4225,69.0,120.0,120.0,11.0,64.0
4226,45.0,0.0,120.0,14.0,64.0
4227,81.0,0.0,120.0,10.0,64.0
4228,61.0,0.0,150.0,4.0,64.0
4229,78.0,0.0,120.0,10.0,64.0
4230,85.0,0.0,150.0,0.0,64.0
4231,54.0,24.0,120.0,3.0,64.0
4232,73.0,96.0,150.0,5.0,64.0
4233,61.0,0.0,150.0,5.0,64.0
4234,54.0,0.0,120.0,12.0,64.0
4235,42.0,0.0,120.0,14.0,64.0
4236,49.0,0.0,150.0,4.0,64.0
4237,66.0,0.0,150.0,2.0,64.0
4238,69.0,0.0,150.0,2.0,64.0
4239,54.0,0.0,120.0,13.0,64.0
4240,81.0,0.0,150.0,1.0,64.0
4241,78.0,0.0,150.0,1.0,64.0
4242,66.0,0.0,120.0,11.0,64.0
4243,69.0,0.0,120.0,11.0,64.0
4244,81.0,0.0,120.0,10.0,64.0
4245,45.0,0.0,120.0,14.0,64.0
4246,57.0,0.0,120.0,13.0,64.0
4247,57.0,96.0,120.0,12.0,64.0
4248,57.0,0.0,120.0,3.0,64.0
4249,61.0,72.0,150.0,5.0,64.0
4250,73.0,0.0,150.0,5.0,64.0
4251,56.0,24.0,120.0,13.0,64.0
4252,80.0,0.0,120.0,10.0,64.0
4253,61.0,0.0,150.0,4.0,64.0
4254,78.0,0.0,150.0,1.0,64.0
4255,81.0,0.0,150.0,1.0,64.0
4256,54.0,24.0,90.0,6.0,64.0
4257,56.0,0.0,120.0,3.0,64.0
4258,68.0,0.0,120.0,11.0,64.0
4259,44.0,0.0,120.0,14.0,64.0
4260,85.0,0.0,150.0,0.0,64.0
4261,66.0,0.0,150.0,2.0,64.0
4262,69.0,0.0,150.0,2.0,64.0
4263,49.0,0.0,150.0,4.0,64.0
4264,56.0,0.0,120.0,12.0,64.0
4265,54.0,0.0,90.0,6.0,64.0
4266,42.0,0.0,90.0,14.0,64.0
4267,54.0,0.0,90.0,13.0,64.0
4268,54.0,180.0,90.0,12.0,64.0
4269,66.0,0.0,90.0,11.0,64.0
4270,78.0,0.0,90.0,10.0,64.0
4271,54.0,0.0,90.0,3.0,64.0
4272,49.0,204.0,180.0,6.0,64.0
4273,49.0,0.0,150.0,4.0,64.0
4274,85.0,0.0,150.0,10.0,64.0
4275,61.0,0.0,150.0,4.0,64.0
4276,61.0,0.0,150.0,12.0,64.0
4277,73.0,0.0,150.0,11.0,64.0
4278,68.0,0.0,150.0,2.0,64.0
4279,65.0,0.0,150.0,2.0,64.0
4280,77.0,0.0,150.0,1.0,64.0
4281,80.0,36.0,150.0,1.0,64.0
4282,61.0,0.0,150.0,5.0,64.0
4283,49.0,0.0,150.0,14.0,64.0
4284,73.0,0.0,150.0,5.0,64.0
4285,61.0,0.0,150.0,3.0,64.0
4286,61.0,0.0,150.0,13.0,64.0
4287,85.0,108.0,3660.0,0.0,64.0
4288,77.0,240.0,150.0,11.0,64.0
4289,85.0,0.0,150.0,10.0,64.0
4290,80.0,0.0,150.0,11.0,64.0
4291,73.0,0.0,150.0,12.0,64.0
4292,73.0,0.0,150.0,10.0,64.0
4293,54.0,0.0,150.0,14.0,64.0
4294,66.0,0.0,150.0,2.0,64.0
4295,66.0,0.0,150.0,3.0,64.0
4296,81.0,0.0,150.0,1.0,64.0
4297,66.0,0.0,150.0,13.0,64.0
4298,61.0,0.0,150.0,5.0,64.0
4299,69.0,0.0,150.0,2.0,64.0
4300,73.0,240.0,150.0,5.0,64.0
4301,61.0,0.0,150.0,4.0,64.0
4302,49.0,0.0,150.0,4.0,64.0
4303,78.0,0.0,150.0,1.0,64.0
4304,85.0,0.0,150.0,10.0,64.0
4305,73.0,240.0,150.0,10.0,64.0
4306,81.0,0.0,150.0,11.0,64.0
4307,78.0,0.0,150.0,11.0,64.0
4308,78.0,0.0,150.0,12.0,64.0
4309,73.0,0.0,150.0,5.0,64.0
4310,49.0,0.0,150.0,4.0,64.0
4311,61.0,0.0,150.0,5.0,64.0
4312,53.0,0.0,150.0,14.0,64.0
4313,61.0,240.0,150.0,4.0,64.0
4314,80.0,0.0,150.0,1.0,64.0
4315,68.0,0.0,150.0,2.0,64.0
4316,65.0,0.0,150.0,3.0,64.0
4317,71.0,0.0,150.0,2.0,64.0
4318,65.0,0.0,150.0,13.0,64.0
4319,83.0,0.0,150.0,1.0,64.0
4320,83.0,0.0,150.0,11.0,64.0
4321,80.0,240.0,150.0,11.0,64.0
4322,73.0,0.0,150.0,10.0,64.0
4323,77.0,0.0,150.0,12.0,64.0
4324,85.0,0.0,150.0,10.0,64.0
4325,66.0,0.0,150.0,13.0,64.0
4326,61.0,0.0,150.0,5.0,64.0
4327,54.0,240.0,150.0,14.0,64.0
4328,73.0,0.0,150.0,5.0,64.0
4329,61.0,0.0,150.0,4.0,64.0
4330,78.0,0.0,150.0,1.0,64.0
4331,49.0,0.0,150.0,4.0,64.0
4332,66.0,0.0,150.0,3.0,64.0
4333,69.0,0.0,150.0,2.0,64.0
4334,81.0,0.0,150.0,1.0,64.0
4335,66.0,0.0,150.0,2.0,64.0
4336,78.0,240.0,150.0,12.0,64.0
4337,81.0,0.0,150.0,11.0,64.0
4338,73.0,0.0,150.0,10.0,64.0
4339,85.0,0.0,150.0,10.0,64.0
4340,78.0,0.0,150.0,11.0,64.0
4341,49.0,0.0,150.0,14.0,64.0
4342,49.0,204.0,180.0,6.0,64.0
4343,61.0,0.0,150.0,4.0,64.0
4344,49.0,0.0,150.0,4.0,64.0
4345,73.0,0.0,150.0,5.0,64.0
4346,77.0,0.0,150.0,1.0,64.0
4347,61.0,0.0,150.0,13.0,64.0
4348,61.0,0.0,150.0,5.0,64.0
4349,80.0,0.0,150.0,1.0,64.0
4350,65.0,36.0,150.0,2.0,64.0
4351,68.0,0.0,150.0,2.0,64.0
4352,61.0,0.0,150.0,3.0,64.0
4353,80.0,0.0,150.0,11.0,64.0
4354,73.0,0.0,150.0,12.0,64.0
4355,77.0,0.0,150.0,11.0,64.0
4356,73.0,0.0,150.0,10.0,64.0
4357,85.0,240.0,150.0,10.0,64.0
4358,66.0,0.0,150.0,2.0,64.0
4359,66.0,0.0,150.0,3.0,64.0
4360,61.0,0.0,150.0,5.0,64.0
4361,66.0,0.0,150.0,13.0,64.0
4362,69.0,0.0,150.0,2.0,64.0
4363,61.0,0.0,150.0,4.0,64.0
4364,49.0,0.0,150.0,4.0,64.0
4365,81.0,0.0,150.0,1.0,64.0
4366,78.0,0.0,150.0,1.0,64.0
4367,54.0,0.0,150.0,14.0,64.0
4368,73.0,240.0,150.0,5.0,64.0
4369,73.0,0.0,150.0,10.0,64.0
4370,85.0,0.0,150.0,10.0,64.0
4371,78.0,0.0,150.0,11.0,64.0
4372,81.0,0.0,150.0,11.0,64.0
4373,78.0,240.0,150.0,12.0,64.0
4374,68.0,0.0,150.0,2.0,64.0
4375,71.0,0.0,150.0,2.0,64.0
4376,53.0,240.0,150.0,14.0,64.0
4377,61.0,0.0,150.0,5.0,64.0
4378,73.0,0.0,150.0,5.0,64.0
4379,83.0,0.0,150.0,1.0,64.0
4380,65.0,0.0,150.0,3.0,64.0
4381,65.0,0.0,150.0,13.0,64.0
4382,80.0,0.0,150.0,1.0,64.0
4383,49.0,0.0,150.0,4.0,64.0
4384,61.0,0.0,150.0,4.0,64.0
4385,85.0,240.0,150.0,10.0,64.0
4386,73.0,0.0,150.0,10.0,64.0
4387,77.0,0.0,150.0,12.0,64.0
4388,83.0,0.0,150.0,11.0,64.0
4389,80.0,0.0,150.0,11.0,64.0
4390,54.0,0.0,150.0,14.0,64.0
4391,81.0,0.0,150.0,1.0,64.0
4392,61.0,0.0,150.0,4.0,64.0
4393,66.0,0.0,150.0,3.0,64.0
4394,78.0,0.0,150.0,1.0,64.0
4395,49.0,132.0,150.0,4.0,64.0
4396,73.0,0.0,150.0,5.0,64.0
4397,61.0,0.0,150.0,5.0,64.0
4398,66.0,0.0,150.0,2.0,64.0
4399,66.0,0.0,150.0,13.0,64.0
4400,69.0,0.0,150.0,2.0,64.0
4401,78.0,0.0,150.0,11.0,64.0
4402,81.0,0.0,150.0,11.0,64.0
4403,85.0,0.0,150.0,10.0,64.0
4404,78.0,0.0,150.0,12.0,64.0
4405,73.0,324.0,150.0,10.0,64.0
4406,73.0,96.0,240.0,11.0,64.0
4407,61.0,288.0,1860.0,4.0,64.0
4408,49.0,0.0,1860.0,4.0,64.0
4409,77.0,0.0,1860.0,1.0,64.0
4410,80.0,0.0,1860.0,1.0,64.0
4411,85.0,0.0,240.0,10.0,64.0
4412,74.0,204.0,90.0,11.0,64.0
4413,86.0,0.0,90.0,10.0,64.0
4414,77.0,60.0,60.0,11.0,64.0
4415,89.0,0.0,60.0,10.0,64.0
4416,87.0,60.0,60.0,10.0,64.0
4417,75.0,0.0,60.0,11.0,64.0
4418,77.0,60.0,60.0,11.0,64.0
4419,89.0,0.0,60.0,10.0,64.0
4420,75.0,96.0,60.0,11.0,64.0
4421,87.0,0.0,60.0,10.0,64.0
4422,85.0,0.0,90.0,10.0,64.0
4423,73.0,384.0,90.0,11.0,64.0
4424,83.0,96.0,240.0,10.0,64.0
4425,71.0,0.0,240.0,11.0,64.0
4426,70.0,0.0,90.0,11.0,64.0
4427,82.0,204.0,90.0,10.0,64.0
4428,70.0,60.0,60.0,11.0,64.0
4429,82.0,0.0,60.0,10.0,64.0
4430,68.0,60.0,60.0,11.0,64.0
4431,80.0,0.0,60.0,10.0,64.0
4432,82.0,0.0,60.0,10.0,64.0
4433,70.0,60.0,60.0,11.0,64.0
4434,68.0,96.0,60.0,11.0,64.0
4435,80.0,0.0,60.0,10.0,64.0
4436,78.0,0.0,90.0,10.0,64.0
4437,66.0,96.0,90.0,11.0,64.0
4438,77.0,0.0,1860.0,1.0,64.0
4439,80.0,0.0,1860.0,1.0,64.0
4440,61.0,0.0,1860.0,4.0,64.0
4441,89.0,0.0,1860.0,0.0,64.0
4442,83.0,0.0,1860.0,0.0,64.0
4443,49.0,144.0,1860.0,4.0,64.0
4444,77.0,0.0,240.0,10.0,64.0
4445,65.0,96.0,240.0,11.0,64.0
4446,63.0,0.0,90.0,11.0,64.0
4447,75.0,204.0,90.0,10.0,64.0
4448,63.0,0.0,60.0,11.0,64.0
4449,75.0,60.0,60.0,10.0,64.0
4450,73.0,60.0,60.0,10.0,64.0
4451,61.0,0.0,60.0,11.0,64.0
4452,63.0,60.0,60.0,11.0,64.0
4453,75.0,0.0,60.0,10.0,64.0
4454,73.0,96.0,60.0,10.0,64.0
4455,61.0,0.0,60.0,11.0,64.0
4456,72.0,0.0,90.0,10.0,64.0
4457,60.0,216.0,90.0,11.0,64.0
4458,59.0,0.0,60.0,11.0,64.0
4459,71.0,240.0,60.0,10.0,64.0
4460,70.0,240.0,60.0,10.0,64.0
4461,70.0,0.0,60.0,11.0,64.0
4462,71.0,0.0,60.0,10.0,64.0
4463,71.0,240.0,60.0,11.0,64.0
4464,68.0,0.0,60.0,10.0,64.0
4465,68.0,120.0,60.0,11.0,64.0
4466,78.0,0.0,180.0,1.0,64.0
4467,66.0,96.0,90.0,11.0,64.0
4468,82.0,0.0,180.0,0.0,64.0
4469,90.0,0.0,180.0,0.0,64.0
4470,82.0,0.0,180.0,1.0,64.0
4471,54.0,24.0,180.0,4.0,64.0
4472,66.0,0.0,180.0,10.0,64.0
4473,65.0,120.0,90.0,11.0,64.0
4474,66.0,120.0,90.0,11.0,64.0
4475,68.0,120.0,90.0,11.0,64.0
4476,70.0,120.0,90.0,11.0,64.0
4477,68.0,120.0,90.0,11.0,64.0
4478,70.0,120.0,90.0,11.0,64.0
4479,85.0,96.0,480.0,10.0,64.0
4480,68.0,120.0,90.0,11.0,64.0
4481,66.0,120.0,90.0,11.0,64.0
4482,65.0,24.0,90.0,11.0,64.0
4483,66.0,96.0,90.0,11.0,64.0
4484,82.0,24.0,180.0,10.0,64.0
4485,68.0,120.0,90.0,11.0,64.0
4486,70.0,120.0,90.0,11.0,64.0
4487,68.0,120.0,90.0,11.0,64.0
4488,70.0,120.0,90.0,11.0,64.0
4489,78.0,96.0,480.0,10.0,64.0
4490,66.0,120.0,90.0,11.0,64.0
4491,68.0,120.0,90.0,11.0,64.0
4492,67.0,24.0,90.0,11.0,64.0
4493,68.0,96.0,90.0,11.0,64.0
4494,77.0,24.0,180.0,10.0,64.0
4495,70.0,120.0,90.0,11.0,64.0
4496,71.0,120.0,90.0,11.0,64.0
4497,70.0,120.0,90.0,11.0,64.0
4498,71.0,120.0,90.0,11.0,64.0
4499,85.0,96.0,480.0,10.0,64.0
4500,70.0,120.0,90.0,11.0,64.0
4501,68.0,120.0,90.0,11.0,64.0
4502,67.0,24.0,90.0,11.0,64.0
4503,83.0,24.0,180.0,10.0,64.0
4504,68.0,96.0,90.0,11.0,64.0
4505,70.0,120.0,90.0,11.0,64.0
4506,71.0,120.0,90.0,11.0,64.0
4507,70.0,120.0,90.0,11.0,64.0
4508,71.0,120.0,90.0,11.0,64.0
4509,80.0,96.0,480.0,10.0,64.0
4510,68.0,120.0,90.0,11.0,64.0
4511,70.0,120.0,90.0,11.0,64.0
4512,68.0,24.0,90.0,11.0,64.0
4513,70.0,96.0,90.0,11.0,64.0
4514,78.0,24.0,180.0,10.0,64.0
4515,71.0,120.0,90.0,11.0,64.0
4516,73.0,120.0,90.0,11.0,64.0
4517,71.0,120.0,90.0,11.0,64.0
4518,73.0,120.0,90.0,11.0,64.0
4519,90.0,96.0,480.0,10.0,64.0
4520,71.0,120.0,90.0,11.0,64.0
4521,70.0,120.0,90.0,11.0,64.0
4522,71.0,24.0,90.0,11.0,64.0
4523,85.0,24.0,180.0,10.0,64.0
4524,73.0,96.0,90.0,11.0,64.0
4525,75.0,120.0,90.0,11.0,64.0
4526,76.0,120.0,90.0,11.0,64.0
4527,75.0,120.0,90.0,11.0,64.0
4528,82.0,96.0,240.0,10.0,64.0
4529,76.0,120.0,90.0,11.0,64.0
4530,73.0,24.0,90.0,11.0,64.0
4531,83.0,60.0,150.0,10.0,64.0
4532,75.0,60.0,90.0,11.0,64.0
4533,73.0,84.0,90.0,11.0,64.0
4534,87.0,36.0,60.0,10.0,64.0
4535,71.0,24.0,90.0,11.0,64.0
4536,85.0,60.0,60.0,10.0,64.0
4537,87.0,36.0,60.0,10.0,64.0
4538,70.0,12.0,90.0,11.0,64.0
4539,85.0,108.0,40.0,10.0,64.0
4540,71.0,96.0,90.0,11.0,64.0
4541,87.0,24.0,180.0,10.0,64.0
4542,73.0,120.0,90.0,11.0,64.0
4543,75.0,120.0,90.0,11.0,64.0
4544,77.0,84.0,90.0,11.0,64.0
4545,87.0,96.0,60.0,10.0,64.0
4546,78.0,21.0,150.0,11.0,64.0
4547,85.0,141.0,120.0,10.0,64.0
4548,75.0,42.0,150.0,11.0,64.0
4549,83.0,78.0,90.0,10.0,64.0
4550,82.0,102.0,90.0,10.0,64.0
4551,82.0,96.0,60.0,10.0,64.0
4552,71.0,21.0,150.0,11.0,64.0
4553,80.0,141.0,120.0,10.0,64.0
4554,78.0,78.0,90.0,10.0,64.0
4555,73.0,42.0,150.0,11.0,64.0
4556,77.0,138.0,90.0,10.0,64.0
4557,54.0,0.0,390.0,4.0,64.0
4558,66.0,0.0,390.0,5.0,64.0
4559,78.0,0.0,90.0,11.0,64.0
4560,66.0,0.0,90.0,3.0,64.0
4561,78.0,0.0,390.0,1.0,64.0
4562,78.0,0.0,390.0,0.0,64.0
4563,54.0,0.0,390.0,6.0,64.0
4564,66.0,120.0,90.0,12.0,64.0
4565,78.0,0.0,90.0,10.0,64.0
4566,54.0,0.0,90.0,14.0,64.0
4567,66.0,72.0,390.0,2.0,64.0
4568,66.0,0.0,90.0,13.0,64.0
4569,82.0,0.0,90.0,11.0,64.0
4570,70.0,120.0,90.0,13.0,64.0
4571,70.0,0.0,90.0,12.0,64.0
4572,82.0,0.0,90.0,10.0,64.0
4573,70.0,0.0,90.0,3.0,64.0
4574,58.0,0.0,90.0,14.0,64.0
4575,56.0,0.0,90.0,14.0,64.0
4576,80.0,0.0,90.0,11.0,64.0
4577,80.0,0.0,90.0,10.0,64.0
4578,68.0,0.0,90.0,3.0,64.0
4579,68.0,48.0,90.0,12.0,64.0
4580,68.0,0.0,90.0,13.0,64.0
4581,78.0,120.0,90.0,10.0,64.0
4582,78.0,0.0,90.0,11.0,64.0
4583,66.0,0.0,90.0,13.0,64.0
4584,54.0,0.0,90.0,14.0,64.0
4585,66.0,0.0,90.0,12.0,64.0
4586,66.0,0.0,90.0,3.0,64.0
4587,65.0,0.0,90.0,12.0,64.0
4588,53.0,0.0,90.0,14.0,64.0
4589,77.0,48.0,90.0,11.0,64.0
4590,54.0,0.0,150.0,4.0,64.0
4591,65.0,0.0,90.0,13.0,64.0
4592,66.0,0.0,150.0,2.0,64.0
4593,78.0,0.0,150.0,1.0,64.0
4594,65.0,0.0,90.0,3.0,64.0
4595,77.0,0.0,90.0,10.0,64.0
4596,78.0,72.0,150.0,0.0,64.0
4597,66.0,0.0,150.0,5.0,64.0
4598,78.0,0.0,90.0,10.0,64.0
4599,78.0,0.0,90.0,11.0,64.0
4600,66.0,0.0,90.0,12.0,64.0
4601,54.0,0.0,90.0,14.0,64.0
4602,66.0,0.0,90.0,3.0,64.0
4603,66.0,120.0,90.0,13.0,64.0
4604,63.0,0.0,90.0,3.0,64.0
4605,63.0,48.0,90.0,13.0,64.0
4606,75.0,0.0,90.0,11.0,64.0
4607,75.0,0.0,90.0,10.0,64.0
4608,66.0,72.0,150.0,5.0,64.0
4609,78.0,0.0,150.0,0.0,64.0
4610,66.0,0.0,150.0,2.0,64.0
4611,54.0,0.0,90.0,6.0,64.0
4612,51.0,0.0,90.0,14.0,64.0
4613,78.0,0.0,150.0,1.0,64.0
4614,63.0,0.0,90.0,12.0,64.0
4615,54.0,0.0,150.0,4.0,64.0
4616,65.0,0.0,90.0,13.0,64.0
4617,53.0,0.0,90.0,14.0,64.0
4618,54.0,0.0,90.0,6.0,64.0
4619,65.0,0.0,90.0,3.0,64.0
4620,77.0,0.0,90.0,11.0,64.0
4621,77.0,120.0,90.0,10.0,64.0
4622,65.0,0.0,90.0,12.0,64.0
4623,61.0,120.0,90.0,13.0,64.0
4624,82.0,0.0,390.0,1.0,64.0
4625,61.0,0.0,90.0,3.0,64.0
4626,73.0,0.0,90.0,11.0,64.0
4627,58.0,0.0,390.0,4.0,64.0
4628,73.0,0.0,90.0,10.0,64.0
4629,54.0,0.0,390.0,6.0,64.0
4630,70.0,72.0,390.0,2.0,64.0
4631,61.0,0.0,90.0,12.0,64.0
4632,82.0,0.0,390.0,0.0,64.0
4633,49.0,0.0,90.0,14.0,64.0
4634,70.0,0.0,390.0,5.0,64.0
4635,78.0,0.0,90.0,10.0,64.0
4636,66.0,0.0,90.0,12.0,64.0
4637,66.0,120.0,90.0,13.0,64.0
4638,66.0,0.0,90.0,3.0,64.0
4639,54.0,0.0,90.0,14.0,64.0
4640,78.0,0.0,90.0,11.0,64.0
4641,65.0,0.0,90.0,13.0,64.0
4642,65.0,48.0,90.0,12.0,64.0
4643,53.0,0.0,90.0,14.0,64.0
4644,77.0,0.0,90.0,11.0,64.0
4645,77.0,0.0,90.0,10.0,64.0
4646,65.0,0.0,90.0,3.0,64.0
4647,51.0,0.0,90.0,14.0,64.0
4648,75.0,120.0,90.0,10.0,64.0
4649,63.0,0.0,90.0,12.0,64.0
4650,63.0,0.0,90.0,3.0,64.0
4651,63.0,0.0,90.0,13.0,64.0
4652,75.0,0.0,90.0,11.0,64.0
4653,82.0,0.0,150.0,1.0,64.0
4654,70.0,72.0,150.0,2.0,64.0
4655,61.0,0.0,90.0,13.0,64.0
4656,49.0,48.0,90.0,14.0,64.0
4657,61.0,0.0,90.0,12.0,64.0
4658,73.0,0.0,90.0,11.0,64.0
4659,82.0,0.0,150.0,0.0,64.0
4660,58.0,0.0,150.0,4.0,64.0
4661,73.0,0.0,90.0,10.0,64.0
4662,70.0,0.0,150.0,5.0,64.0
4663,61.0,0.0,90.0,3.0,64.0
4664,63.0,0.0,90.0,12.0,64.0
4665,75.0,0.0,90.0,11.0,64.0
4666,63.0,0.0,90.0,13.0,64.0
4667,63.0,120.0,90.0,3.0,64.0
4668,75.0,0.0,90.0,10.0,64.0
4669,51.0,0.0,90.0,14.0,64.0
4670,82.0,72.0,150.0,0.0,64.0
4671,71.0,0.0,90.0,10.0,64.0
4672,59.0,48.0,90.0,12.0,64.0
4673,59.0,0.0,90.0,3.0,64.0
4674,47.0,0.0,90.0,14.0,64.0
4675,54.0,0.0,90.0,6.0,64.0
4676,70.0,0.0,150.0,2.0,64.0
4677,58.0,0.0,150.0,4.0,64.0
4678,59.0,0.0,90.0,13.0,64.0
4679,82.0,0.0,150.0,1.0,64.0
4680,70.0,0.0,150.0,5.0,64.0
4681,71.0,0.0,90.0,11.0,64.0
4682,61.0,0.0,90.0,3.0,64.0
4683,49.0,0.0,90.0,14.0,64.0
4684,54.0,0.0,90.0,6.0,64.0
4685,73.0,0.0,90.0,10.0,64.0
4686,73.0,0.0,90.0,11.0,64.0
4687,61.0,0.0,90.0,13.0,64.0
4688,61.0,120.0,90.0,12.0,64.0
4689,46.0,0.0,90.0,14.0,64.0
4690,73.0,72.0,390.0,2.0,64.0
4691,70.0,0.0,90.0,10.0,64.0
4692,85.0,0.0,390.0,0.0,64.0
4693,58.0,0.0,90.0,13.0,64.0
4694,61.0,0.0,390.0,4.0,64.0
4695,58.0,0.0,90.0,12.0,64.0
4696,85.0,0.0,390.0,1.0,64.0
4697,73.0,0.0,390.0,5.0,64.0
4698,58.0,120.0,90.0,3.0,64.0
4699,54.0,0.0,390.0,6.0,64.0
4700,70.0,0.0,90.0,11.0,64.0
4701,75.0,0.0,90.0,10.0,64.0
4702,63.0,0.0,90.0,12.0,64.0
4703,63.0,0.0,90.0,3.0,64.0
4704,51.0,0.0,90.0,14.0,64.0
4705,63.0,120.0,90.0,13.0,64.0
4706,75.0,0.0,90.0,11.0,64.0
4707,61.0,0.0,90.0,13.0,64.0
4708,73.0,0.0,90.0,11.0,64.0
4709,61.0,0.0,90.0,3.0,64.0
4710,49.0,0.0,90.0,14.0,64.0
4711,73.0,0.0,90.0,10.0,64.0
4712,61.0,48.0,90.0,12.0,64.0
4713,59.0,0.0,90.0,12.0,64.0
4714,59.0,0.0,90.0,13.0,64.0
4715,71.0,120.0,90.0,11.0,64.0
4716,71.0,0.0,90.0,10.0,64.0
4717,47.0,0.0,90.0,14.0,64.0
4718,59.0,0.0,90.0,3.0,64.0
4719,46.0,0.0,90.0,14.0,64.0
4720,70.0,48.0,90.0,11.0,64.0
4721,58.0,0.0,90.0,13.0,64.0
4722,58.0,0.0,90.0,3.0,64.0
4723,61.0,72.0,150.0,4.0,64.0
4724,73.0,0.0,150.0,5.0,64.0
4725,70.0,0.0,90.0,10.0,64.0
4726,58.0,0.0,90.0,12.0,64.0
4727,73.0,0.0,150.0,2.0,64.0
4728,85.0,0.0,150.0,0.0,64.0
4729,85.0,0.0,150.0,1.0,64.0
4730,71.0,0.0,90.0,11.0,64.0
4731,59.0,0.0,90.0,12.0,64.0
4732,47.0,120.0,90.0,14.0,64.0
4733,59.0,0.0,90.0,13.0,64.0
4734,59.0,0.0,90.0,3.0,64.0
4735,71.0,0.0,90.0,10.0,64.0
4736,68.0,0.0,90.0,11.0,64.0
4737,85.0,72.0,150.0,0.0,64.0
4738,73.0,0.0,150.0,2.0,64.0
4739,61.0,0.0,150.0,4.0,64.0
4740,68.0,0.0,90.0,10.0,64.0
4741,54.0,0.0,90.0,6.0,64.0
4742,73.0,0.0,150.0,5.0,64.0
4743,44.0,0.0,90.0,14.0,64.0
4744,56.0,0.0,90.0,13.0,64.0
4745,56.0,0.0,90.0,3.0,64.0
4746,56.0,48.0,90.0,12.0,64.0
4747,85.0,0.0,150.0,1.0,64.0
4748,70.0,0.0,90.0,10.0,64.0
4749,58.0,0.0,90.0,3.0,64.0
4750,54.0,0.0,90.0,6.0,64.0
4751,58.0,0.0,90.0,13.0,64.0
4752,70.0,0.0,90.0,11.0,64.0
4753,46.0,0.0,90.0,14.0,64.0
4754,58.0,144.0,90.0,12.0,64.0
4755,43.0,0.0,120.0,14.0,64.0
4756,76.0,0.0,3780.0,2.0,64.0
4757,85.0,0.0,570.0,0.0,64.0
4758,88.0,0.0,720.0,0.0,64.0
4759,55.0,120.0,120.0,3.0,64.0
4760,73.0,0.0,3780.0,2.0,64.0
4761,88.0,0.0,720.0,1.0,64.0
4762,67.0,0.0,120.0,10.0,64.0
4763,55.0,0.0,120.0,13.0,64.0
4764,49.0,0.0,390.0,6.0,64.0
4765,67.0,0.0,120.0,11.0,64.0
4766,55.0,0.0,120.0,12.0,64.0
4767,70.0,72.0,3660.0,4.0,64.0
4768,61.0,0.0,3660.0,4.0,64.0
4769,85.0,24.0,570.0,1.0,64.0
4770,73.0,96.0,390.0,5.0,64.0
4771,68.0,0.0,120.0,11.0,64.0
4772,56.0,0.0,120.0,13.0,64.0
4773,56.0,0.0,120.0,3.0,64.0
4774,56.0,0.0,120.0,12.0,64.0
4775,44.0,120.0,120.0,14.0,64.0
4776,68.0,0.0,120.0,10.0,64.0
4777,58.0,0.0,120.0,12.0,64.0
4778,70.0,0.0,120.0,10.0,64.0
4779,58.0,0.0,120.0,13.0,64.0
4780,58.0,0.0,120.0,3.0,64.0
4781,70.0,0.0,120.0,11.0,64.0
4782,46.0,24.0,120.0,14.0,64.0
4783,59.0,0.0,120.0,3.0,64.0
4784,71.0,96.0,120.0,11.0,64.0
4785,71.0,0.0,120.0,10.0,64.0
4786,59.0,0.0,120.0,13.0,64.0
4787,59.0,0.0,120.0,12.0,64.0
4788,47.0,0.0,120.0,14.0,64.0
4789,73.0,0.0,120.0,10.0,64.0
4790,61.0,120.0,120.0,13.0,64.0
4791,73.0,0.0,120.0,11.0,64.0
4792,61.0,0.0,120.0,12.0,64.0
4793,49.0,0.0,120.0,14.0,64.0
4794,61.0,0.0,120.0,3.0,64.0
4795,59.0,120.0,120.0,12.0,64.0
4796,47.0,0.0,120.0,14.0,64.0
4797,71.0,0.0,120.0,10.0,64.0
4798,59.0,0.0,120.0,3.0,64.0
4799,71.0,0.0,120.0,11.0,64.0
4800,59.0,0.0,120.0,13.0,64.0
4801,58.0,0.0,120.0,12.0,64.0
4802,85.0,24.0,180.0,1.0,64.0
4803,58.0,0.0,120.0,3.0,64.0
4804,70.0,0.0,120.0,11.0,64.0
4805,46.0,72.0,120.0,14.0,64.0
4806,58.0,0.0,120.0,13.0,64.0
4807,85.0,0.0,180.0,0.0,64.0
4808,70.0,0.0,120.0,10.0,64.0
4809,56.0,0.0,90.0,3.0,64.0
4810,68.0,0.0,90.0,10.0,64.0
4811,44.0,0.0,90.0,14.0,64.0
4812,56.0,144.0,90.0,12.0,64.0
4813,68.0,0.0,90.0,11.0,64.0
4814,56.0,0.0,90.0,13.0,64.0
4815,67.0,0.0,120.0,11.0,64.0
4816,88.0,120.0,240.0,0.0,64.0
4817,85.0,48.0,180.0,0.0,64.0
4818,43.0,0.0,120.0,14.0,64.0
4819,55.0,0.0,120.0,3.0,64.0
4820,85.0,0.0,180.0,1.0,64.0
4821,88.0,0.0,240.0,1.0,64.0
4822,55.0,0.0,120.0,13.0,64.0
4823,67.0,72.0,120.0,10.0,64.0
4824,55.0,0.0,120.0,12.0,64.0
4825,56.0,0.0,120.0,13.0,64.0
4826,56.0,0.0,120.0,3.0,64.0
4827,68.0,0.0,120.0,11.0,64.0
4828,68.0,0.0,120.0,10.0,64.0
4829,44.0,0.0,120.0,14.0,64.0
4830,56.0,0.0,120.0,12.0,64.0
4831,70.0,72.0,120.0,11.0,64.0
4832,58.0,0.0,120.0,13.0,64.0
4833,85.0,48.0,180.0,0.0,64.0
4834,46.0,0.0,120.0,14.0,64.0
4835,85.0,0.0,180.0,1.0,64.0
4836,58.0,0.0,120.0,12.0,64.0
4837,70.0,0.0,120.0,10.0,64.0
4838,58.0,0.0,120.0,3.0,64.0
4839,47.0,0.0,120.0,14.0,64.0
4840,59.0,0.0,120.0,12.0,64.0
4841,59.0,0.0,120.0,13.0,64.0
4842,71.0,0.0,120.0,10.0,64.0
4843,59.0,0.0,120.0,3.0,64.0
4844,71.0,120.0,120.0,11.0,64.0
4845,49.0,0.0,120.0,14.0,64.0
4846,85.0,48.0,180.0,0.0,64.0
4847,61.0,0.0,120.0,3.0,64.0
4848,61.0,0.0,120.0,13.0,64.0
4849,73.0,0.0,120.0,10.0,64.0
4850,85.0,0.0,180.0,1.0,64.0
4851,61.0,72.0,120.0,12.0,64.0
4852,73.0,0.0,120.0,11.0,64.0
4853,88.0,0.0,240.0,0.0,64.0
4854,88.0,0.0,240.0,1.0,64.0
4855,59.0,0.0,120.0,3.0,64.0
4856,59.0,0.0,120.0,13.0,64.0
4857,71.0,0.0,120.0,11.0,64.0
4858,71.0,0.0,120.0,10.0,64.0
4859,47.0,120.0,120.0,14.0,64.0
4860,59.0,0.0,120.0,12.0,64.0
4861,58.0,0.0,120.0,12.0,64.0
4862,58.0,0.0,120.0,3.0,64.0
4863,70.0,0.0,120.0,10.0,64.0
4864,85.0,24.0,180.0,0.0,64.0
4865,46.0,0.0,120.0,14.0,64.0
4866,58.0,72.0,120.0,13.0,64.0
4867,85.0,0.0,180.0,1.0,64.0
4868,70.0,0.0,120.0,11.0,64.0
4869,68.0,0.0,90.0,10.0,64.0
4870,56.0,0.0,90.0,12.0,64.0
4871,44.0,0.0,90.0,14.0,64.0
4872,56.0,144.0,90.0,3.0,64.0
4873,56.0,0.0,90.0,13.0,64.0
4874,68.0,0.0,90.0,11.0,64.0
4875,42.0,0.0,120.0,14.0,64.0
4876,85.0,0.0,570.0,1.0,64.0
4877,66.0,0.0,120.0,10.0,64.0
4878,88.0,0.0,720.0,1.0,64.0
4879,54.0,96.0,390.0,6.0,64.0
4880,66.0,0.0,120.0,11.0,64.0
4881,54.0,0.0,120.0,3.0,64.0
4882,78.0,48.0,780.0,5.0,64.0
4883,66.0,0.0,780.0,5.0,64.0
4884,88.0,0.0,720.0,0.0,64.0
4885,85.0,24.0,570.0,0.0,64.0
4886,54.0,0.0,120.0,13.0,64.0
4887,54.0,120.0,120.0,12.0,64.0
4888,68.0,0.0,120.0,11.0,64.0
4889,68.0,0.0,120.0,10.0,64.0
4890,56.0,120.0,120.0,12.0,64.0
4891,44.0,0.0,120.0,14.0,64.0
4892,56.0,0.0,120.0,13.0,64.0
4893,56.0,0.0,120.0,3.0,64.0
4894,58.0,24.0,120.0,13.0,64.0
4895,70.0,0.0,120.0,11.0,64.0
4896,70.0,0.0,120.0,10.0,64.0
4897,46.0,0.0,120.0,14.0,64.0
4898,58.0,0.0,120.0,12.0,64.0
4899,58.0,0.0,120.0,3.0,64.0
4900,71.0,0.0,120.0,11.0,64.0
4901,59.0,0.0,120.0,13.0,64.0
4902,59.0,0.0,120.0,3.0,64.0
4903,71.0,0.0,120.0,10.0,64.0
4904,47.0,0.0,120.0,14.0,64.0
4905,59.0,96.0,120.0,12.0,64.0
4906,61.0,0.0,120.0,12.0,64.0
4907,73.0,120.0,120.0,11.0,64.0
4908,61.0,0.0,120.0,13.0,64.0
4909,73.0,0.0,120.0,10.0,64.0
4910,61.0,0.0,120.0,3.0,64.0
4911,49.0,0.0,120.0,14.0,64.0
4912,71.0,0.0,120.0,11.0,64.0
4913,71.0,0.0,120.0,10.0,64.0
4914,59.0,0.0,120.0,13.0,64.0
4915,59.0,0.0,120.0,3.0,64.0
4916,59.0,0.0,120.0,12.0,64.0
4917,47.0,48.0,120.0,14.0,64.0
4918,58.0,0.0,120.0,13.0,64.0
4919,54.0,24.0,90.0,6.0,64.0
4920,85.0,0.0,180.0,0.0,64.0
4921,85.0,24.0,180.0,1.0,64.0
4922,70.0,0.0,120.0,11.0,64.0
4923,46.0,0.0,120.0,14.0,64.0
4924,58.0,0.0,120.0,3.0,64.0
4925,58.0,0.0,120.0,12.0,64.0
4926,70.0,72.0,120.0,10.0,64.0
4927,44.0,0.0,90.0,14.0,64.0
4928,56.0,0.0,90.0,12.0,64.0
4929,68.0,0.0,90.0,10.0,64.0
4930,56.0,144.0,90.0,13.0,64.0
4931,54.0,0.0,90.0,6.0,64.0
4932,68.0,0.0,90.0,11.0,64.0
4933,56.0,0.0,90.0,3.0,64.0
4934,54.0,0.0,390.0,6.0,64.0
4935,66.0,72.0,120.0,10.0,64.0
4936,78.0,48.0,390.0,5.0,64.0
4937,88.0,0.0,240.0,1.0,64.0
4938,66.0,0.0,390.0,5.0,64.0
4939,54.0,0.0,120.0,12.0,64.0
4940,85.0,0.0,180.0,1.0,64.0
4941,85.0,48.0,180.0,0.0,64.0
4942,66.0,0.0,120.0,11.0,64.0
4943,88.0,0.0,240.0,0.0,64.0
4944,42.0,0.0,120.0,14.0,64.0
4945,54.0,0.0,120.0,3.0,64.0
4946,54.0,0.0,120.0,13.0,64.0
4947,44.0,0.0,120.0,14.0,64.0
4948,56.0,0.0,120.0,3.0,64.0
4949,56.0,0.0,120.0,12.0,64.0
4950,56.0,0.0,120.0,13.0,64.0
4951,68.0,120.0,120.0,11.0,64.0
4952,68.0,0.0,120.0,10.0,64.0
4953,58.0,0.0,120.0,3.0,64.0
4954,46.0,0.0,120.0,14.0,64.0
4955,85.0,0.0,180.0,0.0,64.0
4956,70.0,0.0,120.0,11.0,64.0
4957,58.0,24.0,120.0,13.0,64.0
4958,85.0,48.0,180.0,1.0,64.0
4959,58.0,0.0,120.0,12.0,64.0
4960,70.0,0.0,120.0,10.0,64.0
4961,47.0,0.0,120.0,14.0,64.0
4962,59.0,120.0,120.0,3.0,64.0
4963,71.0,0.0,120.0,11.0,64.0
4964,59.0,0.0,120.0,13.0,64.0
4965,71.0,0.0,120.0,10.0,64.0
4966,59.0,0.0,120.0,12.0,64.0
4967,73.0,0.0,120.0,10.0,64.0
4968,61.0,0.0,120.0,12.0,64.0
4969,54.0,48.0,390.0,6.0,64.0
4970,85.0,0.0,180.0,0.0,64.0
4971,88.0,0.0,240.0,1.0,64.0
4972,85.0,48.0,180.0,1.0,64.0
4973,61.0,72.0,120.0,13.0,64.0
4974,78.0,0.0,390.0,5.0,64.0
4975,49.0,0.0,120.0,14.0,64.0
4976,61.0,0.0,120.0,3.0,64.0
4977,88.0,0.0,240.0,0.0,64.0
4978,73.0,0.0,120.0,11.0,64.0
4979,66.0,0.0,390.0,5.0,64.0
4980,59.0,0.0,120.0,3.0,64.0
4981,59.0,0.0,120.0,12.0,64.0
4982,71.0,0.0,120.0,10.0,64.0
4983,71.0,48.0,120.0,11.0,64.0
4984,59.0,0.0,120.0,13.0,64.0
4985,47.0,0.0,120.0,14.0,64.0
4986,85.0,0.0,180.0,0.0,64.0
4987,70.0,24.0,120.0,10.0,64.0
4988,46.0,0.0,120.0,14.0,64.0
4989,85.0,24.0,180.0,1.0,64.0
4990,70.0,0.0,120.0,11.0,64.0
4991,58.0,0.0,120.0,13.0,64.0
4992,58.0,0.0,120.0,12.0,64.0
4993,58.0,0.0,120.0,3.0,64.0
4994,56.0,180.0,90.0,3.0,64.0
4995,56.0,0.0,90.0,12.0,64.0
4996,44.0,0.0,90.0,14.0,64.0
4997,68.0,0.0,90.0,10.0,64.0
4998,56.0,0.0,90.0,13.0,64.0
4999,68.0,0.0,90.0,11.0,64.0
5000,66.0,12.0,390.0,4.0,64.0
5001,87.0,0.0,450.0,0.0,64.0
5002,71.0,0.0,930.0,2.0,64.0
5003,83.0,0.0,450.0,0.0,64.0
5004,71.0,0.0,390.0,4.0,64.0
5005,87.0,0.0,450.0,1.0,64.0
5006,66.0,0.0,180.0,5.0,64.0
5007,59.0,0.0,180.0,13.0,64.0
5008,71.0,0.0,150.0,11.0,64.0
5009,54.0,0.0,180.0,6.0,64.0
5010,71.0,36.0,150.0,10.0,64.0
5011,78.0,0.0,180.0,5.0,64.0
5012,59.0,0.0,180.0,12.0,64.0
5013,83.0,0.0,930.0,1.0,64.0
5014,47.0,192.0,180.0,14.0,64.0
5015,75.0,180.0,450.0,2.0,64.0
5016,59.0,0.0,180.0,3.0,64.0
5017,87.0,60.0,150.0,11.0,64.0
5018,87.0,0.0,150.0,10.0,64.0
5019,49.0,0.0,180.0,6.0,64.0
5020,56.0,192.0,180.0,13.0,64.0
5021,56.0,0.0,180.0,3.0,64.0
5022,71.0,0.0,180.0,12.0,64.0
5023,73.0,0.0,180.0,12.0,64.0
5024,68.0,0.0,150.0,10.0,64.0
5025,68.0,36.0,150.0,11.0,64.0
5026,89.0,180.0,450.0,0.0,64.0
5027,85.0,0.0,930.0,0.0,64.0
5028,89.0,0.0,450.0,1.0,64.0
5029,44.0,0.0,180.0,14.0,64.0
5030,73.0,0.0,180.0,5.0,64.0
5031,77.0,0.0,450.0,2.0,64.0
5032,80.0,0.0,180.0,5.0,64.0
5033,71.0,0.0,390.0,4.0,64.0
5034,61.0,12.0,390.0,4.0,64.0
5035,89.0,60.0,150.0,10.0,64.0
5036,89.0,0.0,150.0,11.0,64.0
5037,66.0,36.0,150.0,11.0,64.0
5038,42.0,0.0,180.0,14.0,64.0
5039,78.0,0.0,180.0,5.0,64.0
5040,54.0,0.0,180.0,13.0,64.0
5041,66.0,0.0,150.0,10.0,64.0
5042,90.0,180.0,450.0,0.0,64.0
5043,54.0,0.0,180.0,3.0,64.0
5044,82.0,192.0,180.0,5.0,64.0
5045,54.0,0.0,180.0,6.0,64.0
5046,73.0,0.0,180.0,12.0,64.0
5047,70.0,0.0,180.0,12.0,64.0
5048,85.0,0.0,450.0,1.0,64.0
5049,90.0,0.0,450.0,1.0,64.0
5050,73.0,0.0,450.0,2.0,64.0
5051,70.0,0.0,390.0,4.0,64.0
5052,78.0,0.0,450.0,2.0,64.0
5053,66.0,12.0,390.0,4.0,64.0
5054,90.0,0.0,150.0,10.0,64.0
5055,90.0,60.0,150.0,11.0,64.0
5056,51.0,192.0,180.0,13.0,64.0
5057,51.0,0.0,180.0,3.0,64.0
5058,66.0,0.0,180.0,12.0,64.0
5059,66.0,0.0,180.0,5.0,64.0
5060,39.0,0.0,180.0,14.0,64.0
5061,78.0,0.0,450.0,0.0,64.0
5062,84.0,0.0,450.0,0.0,64.0
5063,84.0,120.0,450.0,1.0,64.0
5064,78.0,0.0,450.0,1.0,64.0
5065,66.0,0.0,390.0,4.0,64.0
5066,54.0,12.0,390.0,4.0,64.0
5067,54.0,0.0,180.0,6.0,64.0
5068,78.0,0.0,180.0,5.0,64.0
5069,72.0,0.0,450.0,2.0,64.0
5070,63.0,0.0,180.0,12.0,64.0
5071,66.0,36.0,150.0,11.0,64.0
5072,66.0,0.0,150.0,10.0,64.0
5073,84.0,0.0,150.0,10.0,64.0
5074,84.0,60.0,150.0,11.0,64.0
5075,85.0,0.0,2310.0,0.0,64.0
5076,85.0,0.0,90.0,11.0,64.0
5077,77.0,0.0,390.0,2.0,64.0
5078,73.0,0.0,390.0,2.0,64.0
5079,73.0,24.0,180.0,5.0,64.0
5080,49.0,0.0,390.0,6.0,64.0
5081,37.0,0.0,390.0,14.0,64.0
5082,85.0,0.0,390.0,10.0,64.0
5083,65.0,96.0,90.0,12.0,64.0
5084,73.0,0.0,2310.0,0.0,64.0
5085,85.0,0.0,450.0,1.0,64.0
5086,80.0,0.0,450.0,1.0,64.0
5087,49.0,0.0,390.0,3.0,64.0
5088,49.0,48.0,390.0,13.0,64.0
5089,68.0,0.0,90.0,12.0,64.0
5090,80.0,120.0,90.0,11.0,64.0
5091,77.0,0.0,90.0,11.0,64.0
5092,61.0,24.0,180.0,4.0,64.0
5093,65.0,48.0,90.0,12.0,64.0
5094,73.0,0.0,90.0,11.0,64.0
5095,61.0,120.0,90.0,12.0,64.0
5096,81.0,0.0,90.0,11.0,64.0
5097,78.0,0.0,450.0,1.0,64.0
5098,81.0,0.0,450.0,1.0,64.0
5099,54.0,24.0,180.0,13.0,64.0
5100,54.0,0.0,180.0,3.0,64.0
5101,42.0,0.0,180.0,14.0,64.0
5102,69.0,96.0,90.0,12.0,64.0
5103,61.0,0.0,660.0,4.0,64.0
5104,85.0,120.0,90.0,11.0,64.0
5105,73.0,0.0,90.0,12.0,64.0
5106,78.0,0.0,180.0,2.0,64.0
5107,81.0,36.0,150.0,10.0,64.0
5108,57.0,0.0,180.0,3.0,64.0
5109,45.0,0.0,180.0,14.0,64.0
5110,57.0,24.0,180.0,13.0,64.0
5111,69.0,0.0,180.0,2.0,64.0
5112,66.0,0.0,150.0,10.0,64.0
5113,73.0,0.0,150.0,10.0,64.0
5114,69.0,0.0,90.0,12.0,64.0
5115,81.0,60.0,90.0,11.0,64.0
5116,49.0,0.0,90.0,6.0,64.0
5117,49.0,0.0,90.0,6.0,64.0
5118,78.0,120.0,90.0,11.0,64.0
5119,66.0,0.0,90.0,12.0,64.0
5120,77.0,0.0,450.0,1.0,64.0
5121,80.0,120.0,450.0,1.0,64.0
5122,65.0,0.0,90.0,12.0,64.0
5123,49.0,0.0,390.0,3.0,64.0
5124,77.0,96.0,90.0,11.0,64.0
5125,77.0,24.0,180.0,10.0,64.0
5126,80.0,24.0,420.0,10.0,64.0
5127,73.0,0.0,180.0,10.0,64.0
5128,49.0,0.0,390.0,13.0,64.0
5129,77.0,48.0,390.0,2.0,64.0
5130,68.0,0.0,390.0,2.0,64.0
5131,49.0,0.0,390.0,6.0,64.0
5132,37.0,0.0,390.0,14.0,64.0
5133,80.0,0.0,90.0,11.0,64.0
5134,68.0,120.0,90.0,12.0,64.0
5135,77.0,0.0,90.0,11.0,64.0
5136,61.0,0.0,180.0,4.0,64.0
5137,65.0,48.0,90.0,12.0,64.0
5138,61.0,0.0,90.0,12.0,64.0
5139,73.0,0.0,90.0,11.0,64.0
5140,69.0,96.0,90.0,12.0,64.0
5141,61.0,24.0,660.0,4.0,64.0
5142,42.0,0.0,180.0,14.0,64.0
5143,81.0,0.0,450.0,1.0,64.0
5144,78.0,0.0,450.0,1.0,64.0
5145,81.0,0.0,90.0,11.0,64.0
5146,54.0,0.0,180.0,13.0,64.0
5147,54.0,24.0,180.0,3.0,64.0
5148,85.0,0.0,90.0,11.0,64.0
5149,73.0,120.0,90.0,12.0,64.0
5150,81.0,0.0,150.0,10.0,64.0
5151,69.0,0.0,180.0,2.0,64.0
5152,78.0,0.0,180.0,2.0,64.0
5153,73.0,0.0,150.0,10.0,64.0
5154,57.0,0.0,180.0,3.0,64.0
5155,69.0,0.0,90.0,12.0,64.0
5156,81.0,0.0,90.0,11.0,64.0
5157,45.0,0.0,180.0,14.0,64.0
5158,49.0,60.0,90.0,6.0,64.0
5159,57.0,24.0,180.0,13.0,64.0
5160,66.0,36.0,150.0,10.0,64.0
5161,78.0,0.0,90.0,11.0,64.0
5162,49.0,0.0,90.0,6.0,64.0
5163,66.0,120.0,90.0,12.0,64.0
5164,77.0,60.0,90.0,11.0,64.0
5165,61.0,0.0,390.0,13.0,64.0
5166,77.0,0.0,390.0,1.0,64.0
5167,49.0,0.0,390.0,14.0,64.0
5168,80.0,0.0,390.0,1.0,64.0
5169,73.0,0.0,390.0,5.0,64.0
5170,49.0,48.0,390.0,6.0,64.0
5171,61.0,0.0,390.0,3.0,64.0
5172,68.0,36.0,150.0,2.0,64.0
5173,73.0,0.0,180.0,10.0,64.0
5174,77.0,0.0,180.0,10.0,64.0
5175,77.0,0.0,150.0,2.0,64.0
5176,65.0,0.0,90.0,12.0,64.0
5177,80.0,24.0,420.0,10.0,64.0
5178,85.0,120.0,90.0,11.0,64.0
5179,73.0,0.0,90.0,12.0,64.0
5180,73.0,24.0,300.0,2.0,64.0
5181,61.0,0.0,300.0,2.0,64.0
5182,73.0,48.0,90.0,12.0,64.0
5183,85.0,0.0,90.0,11.0,64.0
5184,85.0,96.0,90.0,11.0,64.0
5185,73.0,0.0,90.0,12.0,64.0
5186,85.0,0.0,90.0,11.0,64.0
5187,73.0,120.0,90.0,12.0,64.0
5188,73.0,120.0,90.0,12.0,64.0
5189,85.0,0.0,90.0,11.0,64.0
5190,66.0,0.0,150.0,3.0,64.0
5191,54.0,24.0,180.0,14.0,64.0
5192,78.0,0.0,150.0,5.0,64.0
5193,82.0,0.0,150.0,5.0,64.0
5194,61.0,0.0,150.0,2.0,64.0
5195,73.0,60.0,90.0,12.0,64.0
5196,66.0,0.0,150.0,13.0,64.0
5197,54.0,0.0,180.0,6.0,64.0
5198,82.0,0.0,150.0,10.0,64.0
5199,82.0,0.0,150.0,0.0,64.0
5200,92.0,0.0,150.0,0.0,64.0
5201,90.0,0.0,150.0,10.0,64.0
5202,73.0,0.0,150.0,2.0,64.0
5203,70.0,0.0,150.0,4.0,64.0
5204,66.0,36.0,150.0,4.0,64.0
5205,85.0,0.0,90.0,11.0,64.0
5206,82.0,0.0,150.0,1.0,64.0
5207,78.0,0.0,150.0,1.0,64.0
5208,85.0,120.0,90.0,11.0,64.0
5209,73.0,0.0,90.0,12.0,64.0
5210,77.0,0.0,150.0,1.0,64.0
5211,61.0,0.0,150.0,4.0,64.0
5212,68.0,0.0,150.0,4.0,64.0
5213,61.0,0.0,150.0,3.0,64.0
5214,61.0,0.0,150.0,2.0,64.0
5215,80.0,0.0,150.0,5.0,64.0
5216,61.0,0.0,150.0,13.0,64.0
5217,89.0,0.0,150.0,0.0,64.0
5218,89.0,0.0,150.0,10.0,64.0
5219,80.0,36.0,150.0,10.0,64.0
5220,80.0,0.0,150.0,0.0,64.0
5221,73.0,0.0,150.0,5.0,64.0
5222,73.0,0.0,150.0,2.0,64.0
5223,80.0,0.0,150.0,1.0,64.0
5224,73.0,0.0,90.0,11.0,64.0
5225,85.0,60.0,90.0,11.0,64.0
5226,49.0,0.0,180.0,6.0,64.0
5227,73.0,0.0,90.0,12.0,64.0
5228,49.0,24.0,180.0,14.0,64.0
5229,73.0,0.0,90.0,11.0,64.0
5230,85.0,120.0,90.0,11.0,64.0
5231,73.0,0.0,90.0,12.0,64.0
5232,73.0,0.0,90.0,12.0,64.0
5233,82.0,0.0,150.0,10.0,64.0
5234,90.0,0.0,150.0,10.0,64.0
5235,61.0,0.0,150.0,2.0,64.0
5236,82.0,0.0,150.0,5.0,64.0
5237,73.0,0.0,150.0,2.0,64.0
5238,54.0,24.0,180.0,6.0,64.0
5239,66.0,0.0,150.0,13.0,64.0
5240,78.0,36.0,150.0,5.0,64.0
5241,78.0,0.0,150.0,1.0,64.0
5242,73.0,0.0,90.0,11.0,64.0
5243,85.0,60.0,90.0,11.0,64.0
5244,70.0,0.0,150.0,4.0,64.0
5245,66.0,0.0,150.0,3.0,64.0
5246,66.0,0.0,150.0,4.0,64.0
5247,90.0,0.0,150.0,0.0,64.0
5248,82.0,0.0,150.0,0.0,64.0
5249,54.0,0.0,180.0,14.0,64.0
5250,82.0,0.0,150.0,1.0,64.0
5251,73.0,0.0,90.0,12.0,64.0
5252,85.0,120.0,90.0,11.0,64.0
5253,73.0,0.0,90.0,11.0,64.0
5254,85.0,0.0,90.0,11.0,64.0
5255,49.0,24.0,180.0,6.0,64.0
5256,73.0,0.0,90.0,12.0,64.0
5257,80.0,0.0,150.0,5.0,64.0
5258,73.0,0.0,150.0,5.0,64.0
5259,61.0,0.0,150.0,3.0,64.0
5260,80.0,0.0,150.0,0.0,64.0
5261,89.0,0.0,150.0,0.0,64.0
5262,80.0,36.0,150.0,10.0,64.0
5263,73.0,0.0,150.0,2.0,64.0
5264,61.0,0.0,150.0,2.0,64.0
5265,49.0,0.0,180.0,14.0,64.0
5266,77.0,0.0,150.0,1.0,64.0
5267,89.0,0.0,150.0,10.0,64.0
5268,61.0,0.0,150.0,13.0,64.0
5269,61.0,0.0,150.0,4.0,64.0
5270,73.0,60.0,90.0,11.0,64.0
5271,80.0,0.0,150.0,1.0,64.0
5272,68.0,0.0,150.0,4.0,64.0
5273,73.0,0.0,90.0,12.0,64.0
5274,85.0,0.0,90.0,11.0,64.0
5275,73.0,120.0,90.0,11.0,64.0
5276,82.0,0.0,150.0,10.0,64.0
5277,66.0,36.0,150.0,3.0,64.0
5278,66.0,0.0,150.0,13.0,64.0
5279,90.0,0.0,150.0,10.0,64.0
5280,73.0,0.0,90.0,12.0,64.0
5281,61.0,0.0,150.0,2.0,64.0
5282,82.0,0.0,150.0,5.0,64.0
5283,66.0,0.0,150.0,4.0,64.0
5284,78.0,0.0,150.0,5.0,64.0
5285,73.0,60.0,90.0,11.0,64.0
5286,85.0,0.0,90.0,11.0,64.0
5287,70.0,0.0,150.0,4.0,64.0
5288,78.0,0.0,150.0,1.0,64.0
5289,73.0,0.0,150.0,2.0,64.0
5290,54.0,24.0,180.0,14.0,64.0
5291,82.0,0.0,150.0,0.0,64.0
5292,90.0,0.0,150.0,0.0,64.0
5293,54.0,0.0,180.0,6.0,64.0
5294,82.0,0.0,150.0,1.0,64.0
5295,85.0,0.0,90.0,11.0,64.0
5296,73.0,336.0,90.0,11.0,64.0
5297,73.0,0.0,90.0,12.0,64.0
5298,49.0,0.0,390.0,6.0,64.0
5299,80.0,0.0,300.0,0.0,64.0
5300,89.0,0.0,300.0,0.0,64.0
5301,61.0,0.0,300.0,2.0,64.0
5302,80.0,0.0,300.0,5.0,64.0
5303,73.0,0.0,300.0,5.0,64.0
5304,85.0,0.0,300.0,11.0,64.0
5305,73.0,72.0,300.0,11.0,64.0
5306,61.0,0.0,300.0,3.0,64.0
5307,80.0,0.0,300.0,1.0,64.0
5308,61.0,0.0,300.0,13.0,64.0
5309,80.0,0.0,300.0,10.0,64.0
5310,89.0,0.0,300.0,10.0,64.0
5311,77.0,0.0,300.0,1.0,64.0
5312,61.0,0.0,300.0,4.0,64.0
5313,73.0,408.0,390.0,12.0,64.0
5314,73.0,0.0,300.0,2.0,64.0
5315,68.0,0.0,300.0,4.0,64.0
5316,49.0,0.0,390.0,14.0,64.0
5317,61.0,0.0,300.0,5.0,64.0
5318,61.0,72.0,300.0,13.0,64.0
5319,73.0,0.0,300.0,2.0,64.0
5320,61.0,0.0,300.0,2.0,64.0
5321,73.0,0.0,300.0,10.0,64.0
5322,85.0,0.0,300.0,10.0,64.0
5323,85.0,0.0,300.0,1.0,64.0
5324,49.0,0.0,390.0,6.0,64.0
5325,73.0,0.0,300.0,11.0,64.0
5326,61.0,0.0,300.0,4.0,64.0
5327,73.0,0.0,300.0,5.0,64.0
5328,73.0,0.0,300.0,4.0,64.0
5329,85.0,0.0,300.0,0.0,64.0
5330,49.0,0.0,390.0,14.0,64.0
5331,73.0,480.0,390.0,12.0,64.0
5332,61.0,0.0,300.0,3.0,64.0
5333,49.0,192.0,390.0,6.0,64.0
5334,37.0,0.0,390.0,14.0,64.0
5335,73.0,0.0,390.0,0.0,64.0
5336,61.0,0.0,390.0,5.0,64.0
5337,61.0,0.0,570.0,11.0,64.0
5338,49.0,0.0,390.0,3.0,64.0
5339,73.0,0.0,390.0,1.0,64.0
5340,73.0,0.0,390.0,5.0,64.0
5341,61.0,0.0,390.0,2.0,64.0
5342,73.0,0.0,390.0,2.0,64.0
5343,49.0,0.0,390.0,4.0,64.0
5344,61.0,0.0,390.0,4.0,64.0
5345,61.0,384.0,570.0,10.0,64.0
5346,61.0,0.0,390.0,12.0,64.0
5347,49.0,0.0,390.0,13.0,64.0
5348,73.0,0.0,240.0,10.0,64.0
5349,61.0,144.0,240.0,11.0,64.0
5350,60.0,0.0,150.0,11.0,64.0
5351,72.0,240.0,150.0,10.0,64.0
5352,73.0,0.0,150.0,10.0,64.0
5353,61.0,240.0,150.0,11.0,64.0
5354,61.0,0.0,150.0,11.0,64.0
5355,73.0,240.0,150.0,10.0,64.0
5356,61.0,0.0,150.0,11.0,64.0
5357,73.0,336.0,150.0,10.0,64.0
5358,74.0,0.0,240.0,10.0,64.0
5359,62.0,240.0,240.0,11.0,64.0
5360,63.0,0.0,240.0,11.0,64.0
5361,75.0,240.0,240.0,10.0,64.0
5362,64.0,0.0,240.0,11.0,64.0
5363,76.0,192.0,240.0,10.0,64.0
5364,65.0,0.0,180.0,11.0,64.0
5365,77.0,240.0,180.0,10.0,64.0
5366,66.0,0.0,180.0,4.0,64.0
5367,66.0,0.0,180.0,11.0,64.0
5368,78.0,0.0,180.0,11.0,64.0
5369,58.0,0.0,180.0,4.0,64.0
5370,66.0,0.0,180.0,10.0,64.0
5371,73.0,0.0,180.0,12.0,64.0
5372,70.0,0.0,180.0,12.0,64.0
5373,78.0,0.0,180.0,10.0,64.0
5374,70.0,0.0,180.0,2.0,64.0
5375,54.0,0.0,180.0,6.0,64.0
5376,90.0,0.0,180.0,0.0,64.0
5377,66.0,0.0,180.0,5.0,64.0
5378,78.0,0.0,180.0,5.0,64.0
5379,54.0,480.0,180.0,14.0,64.0
5380,66.0,0.0,180.0,3.0,64.0
5381,73.0,0.0,180.0,1.0,64.0
5382,78.0,0.0,180.0,1.0,64.0
5383,66.0,0.0,180.0,13.0,64.0
5384,78.0,0.0,180.0,2.0,64.0
5385,73.0,0.0,180.0,5.0,64.0
5386,73.0,0.0,180.0,1.0,64.0
5387,80.0,0.0,180.0,2.0,64.0
5388,71.0,0.0,180.0,2.0,64.0
5389,73.0,0.0,180.0,10.0,64.0
5390,80.0,0.0,180.0,10.0,64.0
5391,80.0,0.0,180.0,1.0,64.0
5392,65.0,408.0,180.0,3.0,64.0
5393,92.0,0.0,180.0,0.0,64.0
5394,65.0,0.0,180.0,13.0,64.0
5395,49.0,0.0,180.0,6.0,64.0
5396,68.0,0.0,180.0,4.0,64.0
5397,73.0,0.0,180.0,12.0,64.0
5398,71.0,0.0,180.0,12.0,64.0
5399,53.0,0.0,180.0,14.0,64.0
5400,73.0,0.0,180.0,11.0,64.0
5401,80.0,0.0,180.0,11.0,64.0
5402,61.0,0.0,180.0,4.0,64.0
5403,85.0,120.0,120.0,10.0,64.0
5404,87.0,120.0,120.0,10.0,64.0
5405,85.0,120.0,120.0,10.0,64.0
5406,87.0,120.0,120.0,10.0,64.0
5407,85.0,120.0,120.0,10.0,64.0
5408,83.0,120.0,120.0,10.0,64.0
5409,82.0,96.0,120.0,10.0,64.0
5410,80.0,216.0,90.0,10.0,64.0
5411,66.0,0.0,180.0,11.0,64.0
5412,70.0,0.0,180.0,2.0,64.0
5413,54.0,0.0,180.0,6.0,64.0
5414,70.0,480.0,180.0,12.0,64.0
5415,73.0,0.0,180.0,12.0,64.0
5416,66.0,0.0,180.0,5.0,64.0
5417,66.0,0.0,180.0,3.0,64.0
5418,78.0,0.0,180.0,1.0,64.0
5419,78.0,0.0,180.0,2.0,64.0
5420,73.0,0.0,180.0,1.0,64.0
5421,66.0,0.0,180.0,13.0,64.0
5422,78.0,0.0,180.0,10.0,64.0
5423,66.0,0.0,180.0,10.0,64.0
5424,78.0,0.0,180.0,5.0,64.0
5425,66.0,0.0,180.0,4.0,64.0
5426,58.0,0.0,180.0,4.0,64.0
5427,90.0,0.0,180.0,0.0,64.0
5428,54.0,0.0,180.0,14.0,64.0
5429,78.0,0.0,180.0,11.0,64.0
5430,73.0,0.0,180.0,5.0,64.0
5431,71.0,0.0,180.0,12.0,64.0
5432,80.0,0.0,180.0,10.0,64.0
5433,73.0,0.0,180.0,10.0,64.0
5434,73.0,0.0,180.0,12.0,64.0
5435,49.0,408.0,180.0,6.0,64.0
5436,61.0,0.0,180.0,4.0,64.0
5437,80.0,0.0,180.0,2.0,64.0
5438,73.0,0.0,180.0,11.0,64.0
5439,68.0,0.0,180.0,4.0,64.0
5440,92.0,0.0,180.0,0.0,64.0
5441,65.0,0.0,180.0,13.0,64.0
5442,80.0,0.0,180.0,1.0,64.0
5443,73.0,0.0,180.0,1.0,64.0
5444,80.0,0.0,180.0,11.0,64.0
5445,71.0,0.0,180.0,2.0,64.0
5446,53.0,0.0,180.0,14.0,64.0
5447,65.0,0.0,180.0,3.0,64.0
5448,85.0,120.0,120.0,10.0,64.0
5449,87.0,120.0,120.0,10.0,64.0
5450,85.0,120.0,120.0,10.0,64.0
5451,87.0,120.0,120.0,10.0,64.0
5452,85.0,120.0,120.0,10.0,64.0
5453,83.0,120.0,120.0,10.0,64.0
5454,82.0,96.0,120.0,10.0,64.0
5455,80.0,120.0,90.0,10.0,64.0
5456,78.0,0.0,570.0,10.0,64.0
5457,66.0,0.0,780.0,5.0,64.0
5458,54.0,12.0,390.0,6.0,64.0
5459,78.0,0.0,780.0,5.0,64.0
5460,73.0,0.0,90.0,11.0,64.0
5461,54.0,48.0,780.0,4.0,64.0
5462,66.0,0.0,780.0,4.0,64.0
5463,54.0,36.0,150.0,13.0,64.0
5464,54.0,0.0,150.0,3.0,64.0
5465,73.0,0.0,900.0,2.0,64.0
5466,69.0,0.0,900.0,2.0,64.0
5467,66.0,0.0,900.0,1.0,64.0
5468,42.0,24.0,180.0,14.0,64.0
5469,66.0,0.0,900.0,0.0,64.0
5470,66.0,60.0,90.0,12.0,64.0
5471,69.0,0.0,90.0,11.0,64.0
5472,66.0,0.0,570.0,10.0,64.0
5473,73.0,0.0,90.0,11.0,64.0
5474,69.0,0.0,90.0,11.0,64.0
5475,66.0,120.0,90.0,12.0,64.0
5476,66.0,36.0,150.0,3.0,64.0
5477,69.0,48.0,90.0,11.0,64.0
5478,66.0,0.0,150.0,13.0,64.0
5479,66.0,0.0,90.0,12.0,64.0
5480,73.0,0.0,90.0,11.0,64.0
5481,54.0,24.0,180.0,14.0,64.0
5482,69.0,0.0,90.0,11.0,64.0
5483,66.0,0.0,90.0,12.0,64.0
5484,73.0,120.0,90.0,11.0,64.0
5485,73.0,0.0,90.0,11.0,64.0
5486,66.0,0.0,150.0,13.0,64.0
5487,66.0,36.0,150.0,3.0,64.0
5488,66.0,60.0,90.0,12.0,64.0
5489,69.0,0.0,90.0,11.0,64.0
5490,54.0,24.0,180.0,14.0,64.0
5491,69.0,0.0,90.0,11.0,64.0
5492,66.0,0.0,90.0,12.0,64.0
5493,73.0,72.0,90.0,11.0,64.0
5494,73.0,0.0,90.0,11.0,64.0
5495,81.0,0.0,90.0,10.0,64.0
5496,54.0,60.0,90.0,6.0,64.0
5497,54.0,24.0,180.0,14.0,64.0
5498,66.0,0.0,90.0,12.0,64.0
5499,66.0,0.0,150.0,13.0,64.0
5500,66.0,36.0,150.0,3.0,64.0
5501,69.0,0.0,90.0,11.0,64.0
5502,78.0,0.0,90.0,10.0,64.0
5503,73.0,120.0,90.0,11.0,64.0
5504,54.0,0.0,90.0,6.0,64.0
5505,66.0,0.0,90.0,12.0,64.0
5506,69.0,0.0,90.0,11.0,64.0
5507,66.0,0.0,780.0,4.0,64.0
5508,74.0,0.0,1410.0,2.0,64.0
5509,81.0,0.0,1890.0,1.0,64.0
5510,69.0,0.0,1890.0,2.0,64.0
5511,86.0,0.0,1410.0,0.0,64.0
5512,66.0,48.0,780.0,5.0,64.0
5513,78.0,0.0,780.0,5.0,64.0
5514,78.0,0.0,90.0,12.0,64.0
5515,54.0,36.0,150.0,3.0,64.0
5516,54.0,0.0,150.0,13.0,64.0
5517,42.0,24.0,180.0,14.0,64.0
5518,86.0,0.0,1410.0,1.0,64.0
5519,54.0,0.0,780.0,4.0,64.0
5520,90.0,0.0,1890.0,0.0,64.0
5521,86.0,0.0,570.0,10.0,64.0
5522,54.0,12.0,390.0,6.0,64.0
5523,69.0,0.0,90.0,11.0,64.0
5524,74.0,60.0,90.0,11.0,64.0
5525,69.0,0.0,90.0,11.0,64.0
5526,74.0,120.0,90.0,11.0,64.0
5527,78.0,0.0,90.0,12.0,64.0
5528,66.0,36.0,150.0,3.0,64.0
5529,78.0,0.0,90.0,12.0,64.0
5530,74.0,48.0,90.0,11.0,64.0
5531,69.0,0.0,90.0,11.0,64.0
5532,54.0,24.0,180.0,14.0,64.0
5533,66.0,0.0,150.0,13.0,64.0
5534,78.0,120.0,90.0,12.0,64.0
5535,74.0,0.0,90.0,11.0,64.0
5536,69.0,0.0,90.0,11.0,64.0
5537,74.0,60.0,90.0,11.0,64.0
5538,66.0,36.0,150.0,13.0,64.0
5539,54.0,24.0,180.0,14.0,64.0
5540,78.0,0.0,90.0,12.0,64.0
5541,66.0,0.0,150.0,3.0,64.0
5542,69.0,0.0,90.0,11.0,64.0
5543,69.0,72.0,90.0,11.0,64.0
5544,74.0,0.0,90.0,11.0,64.0
5545,78.0,0.0,90.0,12.0,64.0
5546,54.0,24.0,180.0,14.0,64.0
5547,78.0,0.0,90.0,12.0,64.0
5548,81.0,0.0,90.0,10.0,64.0
5549,69.0,0.0,90.0,11.0,64.0
5550,74.0,0.0,90.0,11.0,64.0
5551,54.0,60.0,90.0,6.0,64.0
5552,66.0,0.0,150.0,3.0,64.0
5553,66.0,36.0,150.0,13.0,64.0
5554,74.0,0.0,90.0,11.0,64.0
5555,69.0,0.0,90.0,11.0,64.0
5556,86.0,120.0,90.0,10.0,64.0
5557,54.0,0.0,90.0,6.0,64.0
5558,78.0,0.0,90.0,12.0,64.0
5559,54.0,0.0,180.0,6.0,64.0
5560,54.0,0.0,150.0,13.0,64.0
5561,66.0,0.0,390.0,5.0,64.0
5562,74.0,36.0,90.0,11.0,64.0
5563,69.0,0.0,90.0,11.0,64.0
5564,78.0,12.0,390.0,5.0,64.0
5565,90.0,24.0,120.0,10.0,64.0
5566,42.0,24.0,180.0,14.0,64.0
5567,78.0,0.0,90.0,12.0,64.0
5568,54.0,36.0,150.0,3.0,64.0
5569,66.0,0.0,390.0,4.0,64.0
5570,54.0,0.0,390.0,4.0,64.0
5571,69.0,120.0,90.0,11.0,64.0
5572,78.0,0.0,90.0,12.0,64.0
5573,74.0,0.0,90.0,11.0,64.0
5574,54.0,24.0,180.0,14.0,64.0
5575,86.0,12.0,120.0,10.0,64.0
5576,66.0,36.0,150.0,3.0,64.0
5577,78.0,36.0,90.0,12.0,64.0
5578,66.0,0.0,150.0,13.0,64.0
5579,69.0,0.0,90.0,11.0,64.0
5580,74.0,0.0,90.0,11.0,64.0
5581,74.0,0.0,90.0,11.0,64.0
5582,78.0,0.0,90.0,12.0,64.0
5583,69.0,120.0,90.0,11.0,64.0
5584,73.0,0.0,450.0,2.0,64.0
5585,85.0,0.0,450.0,1.0,64.0
5586,78.0,0.0,90.0,12.0,64.0
5587,54.0,24.0,180.0,6.0,64.0
5588,54.0,0.0,150.0,13.0,64.0
5589,54.0,36.0,150.0,3.0,64.0
5590,73.0,0.0,90.0,11.0,64.0
5591,69.0,36.0,90.0,11.0,64.0
5592,85.0,0.0,450.0,0.0,64.0
5593,66.0,0.0,390.0,5.0,64.0
5594,78.0,12.0,390.0,5.0,64.0
5595,42.0,0.0,180.0,14.0,64.0
5596,66.0,0.0,390.0,4.0,64.0
5597,54.0,0.0,390.0,4.0,64.0
5598,90.0,24.0,120.0,10.0,64.0
5599,78.0,0.0,90.0,12.0,64.0
5600,73.0,0.0,90.0,11.0,64.0
5601,69.0,120.0,90.0,11.0,64.0
5602,66.0,36.0,150.0,13.0,64.0
5603,85.0,12.0,120.0,10.0,64.0
5604,69.0,0.0,90.0,11.0,64.0
5605,73.0,0.0,90.0,11.0,64.0
5606,66.0,0.0,150.0,3.0,64.0
5607,54.0,24.0,180.0,14.0,64.0
5608,78.0,36.0,90.0,12.0,64.0
5609,69.0,0.0,90.0,11.0,64.0
5610,73.0,156.0,90.0,11.0,64.0
5611,78.0,0.0,90.0,12.0,64.0
5612,72.0,0.0,450.0,2.0,64.0
5613,78.0,0.0,390.0,5.0,64.0
5614,66.0,0.0,390.0,5.0,64.0
5615,75.0,0.0,390.0,12.0,64.0
5616,92.0,0.0,450.0,0.0,64.0
5617,66.0,72.0,390.0,3.0,64.0
5618,84.0,0.0,450.0,0.0,64.0
5619,84.0,240.0,120.0,10.0,64.0
5620,75.0,0.0,450.0,2.0,64.0
5621,68.0,0.0,390.0,11.0,64.0
5622,54.0,0.0,390.0,14.0,64.0
5623,84.0,408.0,450.0,1.0,64.0
5624,80.0,0.0,930.0,1.0,64.0
5625,54.0,0.0,390.0,6.0,64.0
5626,66.0,0.0,390.0,13.0,64.0
5627,68.0,0.0,390.0,4.0,64.0
5628,54.0,0.0,390.0,4.0,64.0
5629,92.0,12.0,120.0,10.0,64.0
5630,83.0,0.0,960.0,10.0,64.0
5631,73.0,0.0,960.0,10.0,64.0
5632,65.0,480.0,480.0,13.0,64.0
5633,83.0,0.0,450.0,0.0,64.0
5634,61.0,0.0,390.0,4.0,64.0
5635,68.0,72.0,390.0,4.0,64.0
5636,80.0,0.0,450.0,0.0,64.0
5637,49.0,0.0,390.0,6.0,64.0
5638,73.0,0.0,480.0,11.0,64.0
5639,68.0,0.0,450.0,2.0,64.0
5640,73.0,0.0,390.0,5.0,64.0
5641,65.0,0.0,480.0,3.0,64.0
5642,83.0,0.0,450.0,1.0,64.0
5643,71.0,24.0,450.0,2.0,64.0
5644,53.0,0.0,480.0,14.0,64.0
5645,68.0,0.0,15.0,12.0,64.0
5646,65.0,0.0,480.0,3.0,64.0
5647,73.0,192.0,720.0,11.0,64.0
5648,53.0,0.0,480.0,14.0,64.0
5649,65.0,0.0,480.0,13.0,64.0
5650,66.0,0.0,450.0,13.0,64.0
5651,82.0,288.0,660.0,10.0,64.0
5652,54.0,0.0,450.0,14.0,64.0
5653,66.0,0.0,450.0,3.0,64.0
5654,66.0,216.0,450.0,12.0,64.0
5655,74.0,24.0,180.0,11.0,64.0
5656,71.0,384.0,960.0,12.0,64.0
5657,75.0,0.0,960.0,11.0,64.0
5658,59.0,0.0,960.0,3.0,64.0
5659,47.0,0.0,960.0,14.0,64.0
5660,59.0,0.0,960.0,13.0,64.0
5661,80.0,240.0,240.0,10.0,64.0
5662,83.0,192.0,240.0,10.0,64.0
5663,87.0,48.0,180.0,10.0,64.0
5664,70.0,0.0,480.0,11.0,64.0
5665,73.0,0.0,870.0,11.0,64.0
5666,61.0,0.0,780.0,13.0,64.0
5667,73.0,60.0,480.0,12.0,64.0
5668,61.0,0.0,780.0,3.0,64.0
5669,78.0,96.0,390.0,10.0,64.0
5670,49.0,96.0,780.0,14.0,64.0
5671,82.0,228.0,60.0,10.0,64.0
5672,71.0,0.0,390.0,11.0,64.0
5673,77.0,12.0,390.0,12.0,64.0
5674,80.0,180.0,330.0,10.0,64.0
5675,69.0,0.0,900.0,2.0,64.0
5676,73.0,24.0,900.0,2.0,64.0
5677,78.0,48.0,780.0,5.0,64.0
5678,66.0,0.0,780.0,5.0,64.0
5679,78.0,0.0,570.0,10.0,64.0
5680,66.0,0.0,570.0,10.0,64.0
5681,54.0,12.0,390.0,6.0,64.0
5682,66.0,0.0,900.0,1.0,64.0
5683,73.0,60.0,90.0,11.0,64.0
5684,54.0,36.0,150.0,3.0,64.0
5685,69.0,0.0,90.0,11.0,64.0
5686,66.0,0.0,900.0,0.0,64.0
5687,66.0,0.0,90.0,12.0,64.0
5688,42.0,24.0,180.0,14.0,64.0
5689,54.0,0.0,780.0,4.0,64.0
5690,66.0,0.0,780.0,4.0,64.0
5691,54.0,0.0,150.0,13.0,64.0
5692,66.0,0.0,90.0,12.0,64.0
5693,73.0,0.0,90.0,11.0,64.0
5694,69.0,120.0,90.0,11.0,64.0
5695,66.0,36.0,150.0,13.0,64.0
5696,66.0,48.0,90.0,12.0,64.0
5697,69.0,0.0,90.0,11.0,64.0
5698,73.0,0.0,90.0,11.0,64.0
5699,54.0,24.0,180.0,14.0,64.0
5700,66.0,0.0,150.0,3.0,64.0
5701,66.0,0.0,90.0,12.0,64.0
5702,69.0,120.0,90.0,11.0,64.0
5703,73.0,0.0,90.0,11.0,64.0
5704,66.0,0.0,150.0,13.0,64.0
5705,66.0,36.0,150.0,3.0,64.0
5706,66.0,60.0,90.0,12.0,64.0
5707,54.0,24.0,180.0,14.0,64.0
5708,69.0,0.0,90.0,11.0,64.0
5709,73.0,0.0,90.0,11.0,64.0
5710,66.0,72.0,90.0,12.0,64.0
5711,69.0,0.0,90.0,11.0,64.0
5712,73.0,0.0,90.0,11.0,64.0
5713,66.0,0.0,150.0,13.0,64.0
5714,73.0,60.0,90.0,11.0,64.0
5715,69.0,0.0,90.0,11.0,64.0
5716,54.0,0.0,180.0,14.0,64.0
5717,66.0,0.0,90.0,12.0,64.0
5718,54.0,0.0,90.0,6.0,64.0
5719,81.0,0.0,90.0,10.0,64.0
5720,66.0,36.0,150.0,3.0,64.0
5721,78.0,0.0,90.0,10.0,64.0
5722,73.0,0.0,90.0,11.0,64.0
5723,66.0,0.0,90.0,12.0,64.0
5724,54.0,120.0,90.0,6.0,64.0
5725,69.0,0.0,90.0,11.0,64.0
5726,42.0,24.0,180.0,14.0,64.0
5727,86.0,120.0,1410.0,0.0,64.0
5728,86.0,0.0,570.0,10.0,64.0
5729,78.0,60.0,90.0,12.0,64.0
5730,54.0,48.0,780.0,4.0,64.0
5731,66.0,0.0,780.0,4.0,64.0
5732,90.0,0.0,1890.0,0.0,64.0
5733,54.0,12.0,390.0,6.0,64.0
5734,66.0,0.0,780.0,5.0,64.0
5735,54.0,0.0,150.0,3.0,64.0
5736,54.0,36.0,150.0,13.0,64.0
5737,81.0,0.0,1890.0,1.0,64.0
5738,69.0,0.0,90.0,11.0,64.0
5739,74.0,0.0,90.0,11.0,64.0
5740,74.0,0.0,1410.0,2.0,64.0
5741,69.0,0.0,1890.0,2.0,64.0
5742,78.0,0.0,780.0,5.0,64.0
5743,86.0,0.0,1410.0,1.0,64.0
5744,74.0,0.0,90.0,11.0,64.0
5745,69.0,120.0,90.0,11.0,64.0
5746,78.0,0.0,90.0,12.0,64.0
5747,66.0,36.0,150.0,3.0,64.0
5748,78.0,0.0,90.0,12.0,64.0
5749,54.0,24.0,180.0,14.0,64.0
5750,66.0,0.0,150.0,13.0,64.0
5751,74.0,0.0,90.0,11.0,64.0
5752,69.0,48.0,90.0,11.0,64.0
5753,69.0,0.0,90.0,11.0,64.0
5754,78.0,0.0,90.0,12.0,64.0
5755,74.0,120.0,90.0,11.0,64.0
5756,74.0,60.0,90.0,11.0,64.0
5757,69.0,0.0,90.0,11.0,64.0
5758,66.0,36.0,150.0,3.0,64.0
5759,54.0,24.0,180.0,14.0,64.0
5760,78.0,0.0,90.0,12.0,64.0
5761,66.0,0.0,150.0,13.0,64.0
5762,78.0,72.0,90.0,12.0,64.0
5763,69.0,0.0,90.0,11.0,64.0
5764,74.0,0.0,90.0,11.0,64.0
5765,66.0,0.0,150.0,13.0,64.0
5766,54.0,24.0,180.0,14.0,64.0
5767,74.0,0.0,90.0,11.0,64.0
5768,69.0,60.0,90.0,11.0,64.0
5769,81.0,0.0,90.0,10.0,64.0
5770,66.0,36.0,150.0,3.0,64.0
5771,78.0,0.0,90.0,12.0,64.0
5772,54.0,0.0,90.0,6.0,64.0
5773,69.0,0.0,90.0,11.0,64.0
5774,86.0,0.0,90.0,10.0,64.0
5775,74.0,0.0,90.0,11.0,64.0
5776,54.0,0.0,90.0,6.0,64.0
5777,78.0,120.0,90.0,12.0,64.0
5778,54.0,36.0,150.0,3.0,64.0
5779,74.0,0.0,90.0,11.0,64.0
5780,69.0,0.0,90.0,11.0,64.0
5781,54.0,0.0,150.0,13.0,64.0
5782,66.0,0.0,390.0,5.0,64.0
5783,78.0,12.0,390.0,5.0,64.0
5784,78.0,36.0,90.0,12.0,64.0
5785,42.0,24.0,180.0,14.0,64.0
5786,66.0,0.0,390.0,4.0,64.0
5787,90.0,24.0,120.0,10.0,64.0
5788,54.0,0.0,390.0,4.0,64.0
5789,54.0,0.0,180.0,6.0,64.0
5790,69.0,0.0,90.0,11.0,64.0
5791,78.0,0.0,90.0,12.0,64.0
5792,74.0,120.0,90.0,11.0,64.0
5793,66.0,0.0,150.0,13.0,64.0
5794,54.0,24.0,180.0,14.0,64.0
5795,78.0,36.0,90.0,12.0,64.0
5796,74.0,0.0,90.0,11.0,64.0
5797,86.0,12.0,120.0,10.0,64.0
5798,69.0,0.0,90.0,11.0,64.0
5799,66.0,36.0,150.0,3.0,64.0
5800,78.0,0.0,90.0,12.0,64.0
5801,74.0,0.0,90.0,11.0,64.0
5802,69.0,0.0,90.0,11.0,64.0
5803,42.0,24.0,180.0,14.0,64.0
5804,85.0,0.0,450.0,0.0,64.0
5805,54.0,0.0,180.0,6.0,64.0
5806,66.0,0.0,390.0,4.0,64.0
5807,54.0,0.0,390.0,4.0,64.0
5808,90.0,24.0,120.0,10.0,64.0
5809,54.0,0.0,150.0,13.0,64.0
5810,73.0,156.0,450.0,2.0,64.0
5811,78.0,36.0,90.0,12.0,64.0
5812,66.0,0.0,390.0,5.0,64.0
5813,78.0,12.0,390.0,5.0,64.0
5814,73.0,0.0,90.0,11.0,64.0
5815,69.0,0.0,90.0,11.0,64.0
5816,54.0,36.0,150.0,3.0,64.0
5817,85.0,0.0,450.0,1.0,64.0
5818,78.0,0.0,90.0,12.0,64.0
5819,73.0,0.0,90.0,11.0,64.0
5820,69.0,120.0,90.0,11.0,64.0
5821,66.0,0.0,150.0,3.0,64.0
5822,78.0,0.0,90.0,12.0,64.0
5823,66.0,36.0,150.0,13.0,64.0
5824,73.0,0.0,90.0,11.0,64.0
5825,85.0,12.0,120.0,10.0,64.0
5826,69.0,36.0,90.0,11.0,64.0
5827,54.0,24.0,180.0,14.0,64.0
5828,69.0,0.0,90.0,11.0,64.0
5829,78.0,0.0,90.0,12.0,64.0
5830,73.0,0.0,90.0,11.0,64.0
5831,84.0,240.0,120.0,10.0,64.0
5832,54.0,0.0,390.0,14.0,64.0
5833,66.0,72.0,390.0,13.0,64.0
5834,92.0,0.0,450.0,0.0,64.0
5835,54.0,0.0,390.0,4.0,64.0
5836,75.0,0.0,450.0,2.0,64.0
5837,66.0,0.0,390.0,3.0,64.0
5838,68.0,0.0,390.0,11.0,64.0
5839,68.0,0.0,390.0,4.0,64.0
5840,84.0,0.0,450.0,0.0,64.0
5841,54.0,0.0,390.0,6.0,64.0
5842,72.0,408.0,450.0,2.0,64.0
5843,75.0,0.0,390.0,12.0,64.0
5844,78.0,0.0,390.0,5.0,64.0
5845,66.0,0.0,390.0,5.0,64.0
5846,84.0,0.0,450.0,1.0,64.0
5847,80.0,0.0,930.0,1.0,64.0
5848,92.0,12.0,120.0,10.0,64.0
5849,80.0,24.0,450.0,0.0,64.0
5850,73.0,0.0,960.0,10.0,64.0
5851,83.0,288.0,960.0,10.0,64.0
5852,61.0,0.0,390.0,4.0,64.0
5853,65.0,0.0,480.0,13.0,64.0
5854,65.0,0.0,480.0,3.0,64.0
5855,73.0,0.0,390.0,5.0,64.0
5856,68.0,0.0,450.0,2.0,64.0
5857,83.0,0.0,450.0,0.0,64.0
5858,71.0,0.0,450.0,2.0,64.0
5859,83.0,0.0,450.0,1.0,64.0
5860,49.0,0.0,390.0,6.0,64.0
5861,68.0,72.0,390.0,4.0,64.0
5862,53.0,0.0,480.0,14.0,64.0
5863,68.0,480.0,15.0,12.0,64.0
5864,73.0,0.0,15.0,11.0,64.0
5865,53.0,0.0,480.0,14.0,64.0
5866,65.0,0.0,480.0,13.0,64.0
5867,65.0,0.0,480.0,3.0,64.0
5868,66.0,0.0,450.0,13.0,64.0
5869,54.0,0.0,450.0,14.0,64.0
5870,66.0,0.0,390.0,3.0,64.0
5871,66.0,168.0,450.0,12.0,64.0
5872,82.0,72.0,390.0,10.0,64.0
5873,46.0,0.0,150.0,14.0,64.0
5874,58.0,480.0,150.0,13.0,64.0
5875,79.0,0.0,150.0,10.0,64.0
5876,73.0,0.0,150.0,12.0,64.0
5877,76.0,0.0,150.0,11.0,64.0
5878,59.0,0.0,150.0,13.0,64.0
5879,68.0,0.0,480.0,2.0,64.0
5880,71.0,0.0,150.0,12.0,64.0
5881,47.0,0.0,150.0,14.0,64.0
5882,75.0,0.0,150.0,11.0,64.0
5883,80.0,336.0,150.0,10.0,64.0
5884,56.0,480.0,480.0,3.0,64.0
5885,80.0,0.0,480.0,0.0,64.0
5886,67.0,384.0,480.0,2.0,64.0
5887,79.0,0.0,480.0,0.0,64.0
5888,55.0,0.0,480.0,3.0,64.0
5889,80.0,0.0,390.0,0.0,64.0
5890,56.0,0.0,390.0,3.0,64.0
5891,68.0,240.0,390.0,2.0,64.0
5892,49.0,0.0,150.0,14.0,64.0
5893,78.0,0.0,150.0,11.0,64.0
5894,61.0,480.0,150.0,13.0,64.0
5895,66.0,0.0,150.0,11.0,64.0
5896,82.0,0.0,150.0,10.0,64.0
5897,76.0,0.0,150.0,12.0,64.0
5898,51.0,0.0,150.0,14.0,64.0
5899,71.0,0.0,480.0,2.0,64.0
5900,59.0,480.0,480.0,3.0,64.0
5901,63.0,0.0,150.0,13.0,64.0
5902,66.0,0.0,150.0,11.0,64.0
5903,78.0,0.0,150.0,11.0,64.0
5904,83.0,0.0,480.0,0.0,64.0
5905,75.0,0.0,150.0,12.0,64.0
5906,83.0,336.0,150.0,10.0,64.0
5907,82.0,0.0,480.0,0.0,64.0
5908,70.0,384.0,480.0,2.0,64.0
5909,58.0,0.0,480.0,3.0,64.0
5910,71.0,0.0,390.0,2.0,64.0
5911,83.0,0.0,390.0,0.0,64.0
5912,59.0,456.0,390.0,3.0,64.0
5913,59.0,0.0,1140.0,13.0,64.0
5914,63.0,0.0,1860.0,3.0,64.0
5915,87.0,0.0,1860.0,1.0,64.0
5916,78.0,0.0,1860.0,1.0,64.0
5917,47.0,0.0,1140.0,14.0,64.0
5918,66.0,0.0,1140.0,11.0,64.0
5919,63.0,240.0,1140.0,12.0,64.0
5920,87.0,120.0,120.0,10.0,64.0
5921,86.0,120.0,120.0,10.0,64.0
5922,87.0,120.0,120.0,10.0,64.0
5923,86.0,120.0,120.0,10.0,64.0
5924,87.0,120.0,120.0,10.0,64.0
5925,86.0,180.0,120.0,10.0,64.0
5926,87.0,408.0,900.0,10.0,64.0
5927,47.0,240.0,180.0,14.0,64.0
5928,63.0,0.0,180.0,12.0,64.0
5929,59.0,0.0,180.0,13.0,64.0
5930,66.0,0.0,180.0,11.0,64.0
5931,66.0,0.0,180.0,11.0,64.0
5932,59.0,0.0,180.0,13.0,64.0
5933,47.0,0.0,180.0,14.0,64.0
5934,63.0,240.0,180.0,12.0,64.0
5935,66.0,12.0,180.0,11.0,64.0
5936,63.0,0.0,180.0,12.0,64.0
5937,47.0,0.0,180.0,14.0,64.0
5938,59.0,0.0,180.0,13.0,64.0
5939,59.0,0.0,1140.0,13.0,64.0
5940,68.0,0.0,1140.0,11.0,64.0
5941,86.0,0.0,1860.0,1.0,64.0
5942,77.0,0.0,1860.0,1.0,64.0
5943,47.0,240.0,1140.0,14.0,64.0
5944,65.0,0.0,1140.0,12.0,64.0
5945,62.0,0.0,1860.0,3.0,64.0
5946,59.0,228.0,1860.0,3.0,64.0
5947,86.0,120.0,120.0,10.0,64.0
5948,85.0,120.0,120.0,10.0,64.0
5949,86.0,120.0,120.0,10.0,64.0
5950,85.0,120.0,120.0,10.0,64.0
5951,86.0,120.0,120.0,10.0,64.0
5952,85.0,180.0,120.0,10.0,64.0
5953,86.0,0.0,900.0,10.0,64.0
5954,59.0,0.0,180.0,13.0,64.0
5955,68.0,0.0,180.0,11.0,64.0
5956,65.0,240.0,180.0,12.0,64.0
5957,47.0,0.0,180.0,14.0,64.0
5958,59.0,0.0,180.0,13.0,64.0
5959,65.0,0.0,180.0,12.0,64.0
5960,47.0,240.0,180.0,14.0,64.0
5961,68.0,0.0,180.0,11.0,64.0
5962,47.0,0.0,180.0,14.0,64.0
5963,65.0,12.0,180.0,12.0,64.0
5964,59.0,0.0,180.0,13.0,64.0
5965,68.0,0.0,180.0,11.0,64.0
5966,61.0,180.0,480.0,3.0,64.0
5967,85.0,0.0,480.0,1.0,64.0
5968,78.0,0.0,480.0,1.0,64.0
5969,66.0,0.0,180.0,12.0,64.0
5970,70.0,180.0,180.0,11.0,64.0
5971,58.0,0.0,180.0,13.0,64.0
5972,46.0,0.0,180.0,14.0,64.0
5973,58.0,0.0,480.0,3.0,64.0
5974,85.0,96.0,120.0,10.0,64.0
5975,82.0,24.0,90.0,10.0,64.0
5976,47.0,180.0,180.0,14.0,64.0
5977,59.0,0.0,180.0,13.0,64.0
5978,68.0,0.0,180.0,12.0,64.0
5979,75.0,0.0,180.0,11.0,64.0
5980,56.0,180.0,480.0,3.0,64.0
5981,59.0,0.0,480.0,3.0,64.0
5982,80.0,0.0,480.0,1.0,64.0
5983,83.0,0.0,480.0,1.0,64.0
5984,83.0,96.0,120.0,10.0,64.0
5985,80.0,24.0,90.0,10.0,64.0
5986,78.0,0.0,480.0,1.0,64.0
5987,82.0,0.0,480.0,1.0,64.0
5988,73.0,0.0,180.0,11.0,64.0
5989,70.0,0.0,180.0,12.0,64.0
5990,54.0,0.0,480.0,3.0,64.0
5991,49.0,180.0,180.0,14.0,64.0
5992,58.0,180.0,480.0,3.0,64.0
5993,61.0,0.0,180.0,13.0,64.0
5994,82.0,96.0,120.0,10.0,64.0
5995,78.0,24.0,90.0,10.0,64.0
5996,80.0,0.0,390.0,1.0,64.0
5997,37.0,0.0,180.0,14.0,64.0
5998,49.0,0.0,180.0,13.0,64.0
5999,77.0,0.0,390.0,1.0,64.0
6000,56.0,0.0,390.0,3.0,64.0
6001,73.0,0.0,180.0,11.0,64.0
6002,71.0,0.0,180.0,11.0,64.0
6003,68.0,180.0,180.0,12.0,64.0
6004,53.0,72.0,390.0,3.0,64.0
6005,80.0,24.0,120.0,10.0,64.0
6006,77.0,120.0,90.0,10.0,64.0
6007,42.0,0.0,390.0,14.0,64.0
6008,54.0,0.0,390.0,4.0,64.0
6009,82.0,0.0,390.0,0.0,64.0
6010,85.0,0.0,390.0,0.0,64.0
6011,61.0,0.0,390.0,11.0,64.0
6012,73.0,0.0,390.0,11.0,64.0
6013,70.0,0.0,390.0,11.0,64.0
6014,54.0,0.0,390.0,6.0,64.0
6015,66.0,0.0,390.0,12.0,64.0
6016,66.0,0.0,390.0,5.0,64.0
6017,66.0,0.0,390.0,4.0,64.0
6018,73.0,0.0,390.0,2.0,64.0
6019,54.0,72.0,390.0,3.0,64.0
6020,78.0,0.0,390.0,5.0,64.0
6021,78.0,0.0,390.0,1.0,64.0
6022,78.0,120.0,90.0,10.0,64.0
6023,70.0,0.0,390.0,2.0,64.0
6024,54.0,0.0,390.0,13.0,64.0
6025,78.0,120.0,90.0,10.0,64.0
6026,73.0,48.0,90.0,10.0,64.0
6027,73.0,120.0,90.0,10.0,64.0
6028,70.0,120.0,90.0,10.0,64.0
6029,70.0,120.0,90.0,10.0,64.0
6030,66.0,120.0,90.0,10.0,64.0
6031,66.0,120.0,90.0,10.0,64.0
6032,65.0,0.0,390.0,12.0,64.0
6033,49.0,0.0,390.0,6.0,64.0
6034,80.0,120.0,90.0,10.0,64.0
6035,85.0,0.0,390.0,0.0,64.0
6036,41.0,0.0,390.0,14.0,64.0
6037,80.0,0.0,390.0,1.0,64.0
6038,73.0,0.0,390.0,1.0,64.0
6039,53.0,0.0,390.0,13.0,64.0
6040,73.0,0.0,390.0,2.0,64.0
6041,71.0,0.0,390.0,2.0,64.0
6042,61.0,0.0,390.0,4.0,64.0
6043,68.0,0.0,390.0,4.0,64.0
6044,73.0,0.0,390.0,11.0,64.0
6045,73.0,0.0,390.0,5.0,64.0
6046,53.0,0.0,390.0,3.0,64.0
6047,71.0,0.0,390.0,11.0,64.0
6048,61.0,72.0,390.0,11.0,64.0
6049,80.0,0.0,390.0,5.0,64.0
6050,83.0,0.0,390.0,0.0,64.0
6051,80.0,120.0,90.0,10.0,64.0
6052,77.0,48.0,90.0,10.0,64.0
6053,77.0,120.0,90.0,10.0,64.0
6054,73.0,120.0,90.0,10.0,64.0
6055,73.0,120.0,90.0,10.0,64.0
6056,68.0,120.0,90.0,10.0,64.0
6057,68.0,120.0,90.0,10.0,64.0
6058,54.0,0.0,390.0,6.0,64.0
6059,85.0,0.0,390.0,0.0,64.0
6060,82.0,120.0,90.0,10.0,64.0
6061,70.0,72.0,390.0,4.0,64.0
6062,54.0,0.0,390.0,3.0,64.0
6063,82.0,0.0,390.0,0.0,64.0
6064,73.0,0.0,390.0,2.0,64.0
6065,78.0,0.0,390.0,5.0,64.0
6066,73.0,0.0,390.0,11.0,64.0
6067,70.0,0.0,390.0,2.0,64.0
6068,61.0,0.0,390.0,11.0,64.0
6069,54.0,0.0,390.0,13.0,64.0
6070,73.0,0.0,390.0,1.0,64.0
6071,82.0,0.0,390.0,1.0,64.0
6072,42.0,0.0,390.0,14.0,64.0
6073,66.0,0.0,390.0,12.0,64.0
6074,66.0,0.0,390.0,4.0,64.0
6075,82.0,0.0,390.0,5.0,64.0
6076,70.0,0.0,390.0,11.0,64.0
6077,82.0,120.0,90.0,10.0,64.0
6078,78.0,48.0,90.0,10.0,64.0
6079,78.0,120.0,90.0,10.0,64.0
6080,73.0,120.0,90.0,10.0,64.0
6081,73.0,120.0,90.0,10.0,64.0
6082,70.0,120.0,90.0,10.0,64.0
6083,70.0,120.0,90.0,10.0,64.0
6084,83.0,0.0,390.0,1.0,64.0
6085,49.0,0.0,390.0,6.0,64.0
6086,44.0,0.0,390.0,14.0,64.0
6087,73.0,0.0,390.0,1.0,64.0
6088,73.0,0.0,390.0,5.0,64.0
6089,56.0,0.0,390.0,3.0,64.0
6090,89.0,0.0,390.0,0.0,64.0
6091,83.0,120.0,90.0,10.0,64.0
6092,68.0,0.0,390.0,4.0,64.0
6093,61.0,0.0,390.0,4.0,64.0
6094,68.0,0.0,390.0,12.0,64.0
6095,56.0,0.0,390.0,13.0,64.0
6096,68.0,0.0,390.0,11.0,64.0
6097,77.0,0.0,390.0,11.0,64.0
6098,61.0,0.0,390.0,11.0,64.0
6099,75.0,72.0,390.0,2.0,64.0
6100,73.0,0.0,390.0,2.0,64.0
6101,85.0,0.0,390.0,0.0,64.0
6102,80.0,0.0,390.0,5.0,64.0
6103,83.0,120.0,90.0,10.0,64.0
6104,80.0,48.0,90.0,10.0,64.0
6105,80.0,120.0,90.0,10.0,64.0
6106,77.0,120.0,90.0,10.0,64.0
6107,77.0,120.0,90.0,10.0,64.0
6108,71.0,120.0,90.0,10.0,64.0
6109,71.0,120.0,90.0,10.0,64.0
6110,85.0,120.0,90.0,10.0,64.0
6111,58.0,0.0,390.0,3.0,64.0
6112,78.0,0.0,390.0,1.0,64.0
6113,78.0,0.0,390.0,5.0,64.0
6114,66.0,0.0,390.0,5.0,64.0
6115,66.0,0.0,390.0,4.0,64.0
6116,85.0,0.0,390.0,0.0,64.0
6117,73.0,0.0,390.0,2.0,64.0
6118,70.0,0.0,390.0,2.0,64.0
6119,58.0,0.0,390.0,13.0,64.0
6120,54.0,0.0,390.0,6.0,64.0
6121,61.0,0.0,390.0,11.0,64.0
6122,70.0,0.0,390.0,11.0,64.0
6123,78.0,72.0,390.0,11.0,64.0
6124,54.0,0.0,390.0,4.0,64.0
6125,90.0,0.0,390.0,0.0,64.0
6126,70.0,0.0,390.0,12.0,64.0
6127,46.0,0.0,390.0,14.0,64.0
6128,82.0,0.0,390.0,1.0,64.0
6129,85.0,120.0,90.0,10.0,64.0
6130,82.0,48.0,90.0,10.0,64.0
6131,82.0,120.0,90.0,10.0,64.0
6132,90.0,120.0,90.0,10.0,64.0
6133,73.0,0.0,2100.0,1.0,64.0
6134,85.0,0.0,2100.0,1.0,64.0
6135,90.0,120.0,90.0,10.0,64.0
6136,70.0,0.0,150.0,12.0,64.0
6137,85.0,60.0,90.0,10.0,64.0
6138,85.0,0.0,90.0,11.0,64.0
6139,58.0,60.0,150.0,13.0,64.0
6140,61.0,0.0,150.0,4.0,64.0
6141,58.0,0.0,150.0,3.0,64.0
6142,46.0,0.0,150.0,14.0,64.0
6143,85.0,0.0,90.0,11.0,64.0
6144,85.0,120.0,90.0,10.0,64.0
6145,44.0,0.0,150.0,14.0,64.0
6146,68.0,0.0,150.0,12.0,64.0
6147,83.0,0.0,90.0,11.0,64.0
6148,83.0,60.0,90.0,10.0,64.0
6149,61.0,60.0,150.0,4.0,64.0
6150,56.0,0.0,150.0,3.0,64.0
6151,56.0,0.0,150.0,13.0,64.0
6152,83.0,120.0,90.0,10.0,64.0
6153,83.0,0.0,90.0,11.0,64.0
6154,53.0,0.0,150.0,13.0,64.0
6155,53.0,0.0,150.0,3.0,64.0
6156,65.0,0.0,150.0,12.0,64.0
6157,61.0,60.0,150.0,4.0,64.0
6158,80.0,60.0,90.0,11.0,64.0
6159,80.0,0.0,90.0,10.0,64.0
6160,41.0,0.0,150.0,14.0,64.0
6161,80.0,0.0,90.0,10.0,64.0
6162,80.0,120.0,90.0,11.0,64.0
6163,61.0,60.0,150.0,12.0,64.0
6164,37.0,0.0,150.0,14.0,64.0
6165,61.0,0.0,150.0,4.0,64.0
6166,49.0,0.0,150.0,13.0,64.0
6167,49.0,0.0,150.0,3.0,64.0
6168,77.0,60.0,90.0,11.0,64.0
6169,77.0,0.0,90.0,10.0,64.0
6170,77.0,0.0,90.0,11.0,64.0
6171,77.0,120.0,90.0,10.0,64.0
6172,71.0,60.0,90.0,11.0,64.0
6173,53.0,0.0,150.0,3.0,64.0
6174,56.0,0.0,150.0,12.0,64.0
6175,41.0,60.0,150.0,14.0,64.0
6176,53.0,0.0,150.0,13.0,64.0
6177,61.0,0.0,150.0,4.0,64.0
6178,71.0,0.0,90.0,10.0,64.0
6179,71.0,264.0,90.0,10.0,64.0
6180,71.0,0.0,90.0,11.0,64.0
6181,42.0,0.0,240.0,14.0,64.0
6182,49.0,96.0,390.0,6.0,64.0
6183,70.0,0.0,240.0,11.0,64.0
6184,70.0,0.0,240.0,2.0,64.0
6185,54.0,0.0,240.0,3.0,64.0
6186,54.0,0.0,480.0,12.0,64.0
6187,73.0,0.0,660.0,5.0,64.0
6188,54.0,0.0,240.0,13.0,64.0
6189,70.0,0.0,240.0,10.0,64.0
6190,61.0,0.0,660.0,5.0,64.0
6191,82.0,0.0,240.0,0.0,64.0
6192,49.0,168.0,660.0,4.0,64.0
6193,61.0,0.0,660.0,4.0,64.0
6194,73.0,0.0,240.0,11.0,64.0
6195,58.0,192.0,240.0,3.0,64.0
6196,78.0,144.0,15.0,2.0,64.0
6197,58.0,0.0,240.0,13.0,64.0
6198,73.0,0.0,240.0,10.0,64.0
6199,85.0,0.0,240.0,0.0,64.0
6200,73.0,0.0,240.0,2.0,64.0
6201,46.0,0.0,240.0,14.0,64.0
6202,83.0,0.0,180.0,0.0,64.0
6203,71.0,0.0,180.0,11.0,64.0
6204,56.0,0.0,180.0,13.0,64.0
6205,44.0,0.0,180.0,14.0,64.0
6206,77.0,0.0,180.0,2.0,64.0
6207,71.0,0.0,180.0,2.0,64.0
6208,53.0,0.0,180.0,12.0,64.0
6209,56.0,0.0,180.0,3.0,64.0
6210,71.0,0.0,180.0,10.0,64.0
6211,80.0,96.0,120.0,10.0,64.0
6212,82.0,102.0,90.0,10.0,64.0
6213,83.0,120.0,90.0,10.0,64.0
6214,82.0,120.0,90.0,10.0,64.0
6215,80.0,120.0,90.0,10.0,64.0
6216,78.0,120.0,90.0,10.0,64.0
6217,77.0,120.0,90.0,10.0,64.0
6218,75.0,120.0,90.0,10.0,64.0
6219,73.0,120.0,90.0,10.0,64.0
6220,71.0,282.0,90.0,10.0,64.0
6221,42.0,0.0,240.0,14.0,64.0
6222,82.0,0.0,240.0,0.0,64.0
6223,73.0,0.0,660.0,1.0,64.0
6224,85.0,0.0,660.0,1.0,64.0
6225,61.0,0.0,660.0,4.0,64.0
6226,49.0,0.0,660.0,4.0,64.0
6227,70.0,0.0,240.0,10.0,64.0
6228,70.0,0.0,240.0,11.0,64.0
6229,54.0,0.0,480.0,12.0,64.0
6230,54.0,144.0,240.0,13.0,64.0
6231,54.0,0.0,240.0,3.0,64.0
6232,73.0,168.0,660.0,5.0,64.0
6233,70.0,0.0,240.0,2.0,64.0
6234,78.0,0.0,240.0,2.0,64.0
6235,61.0,0.0,660.0,5.0,64.0
6236,49.0,96.0,390.0,6.0,64.0
6237,73.0,0.0,240.0,11.0,64.0
6238,85.0,0.0,240.0,0.0,64.0
6239,58.0,0.0,240.0,13.0,64.0
6240,73.0,0.0,240.0,10.0,64.0
6241,58.0,192.0,240.0,3.0,64.0
6242,78.0,0.0,240.0,2.0,64.0
6243,73.0,0.0,240.0,2.0,64.0
6244,46.0,0.0,240.0,14.0,64.0
6245,44.0,0.0,180.0,14.0,64.0
6246,71.0,0.0,180.0,11.0,64.0
6247,71.0,0.0,180.0,2.0,64.0
6248,71.0,0.0,180.0,10.0,64.0
6249,53.0,0.0,180.0,12.0,64.0
6250,56.0,0.0,180.0,13.0,64.0
6251,83.0,0.0,180.0,0.0,64.0
6252,56.0,0.0,180.0,3.0,64.0
6253,77.0,0.0,180.0,2.0,64.0
6254,80.0,96.0,120.0,10.0,64.0
6255,82.0,102.0,90.0,10.0,64.0
6256,83.0,120.0,90.0,10.0,64.0
6257,82.0,120.0,90.0,10.0,64.0
6258,80.0,120.0,90.0,10.0,64.0
6259,78.0,120.0,90.0,10.0,64.0
6260,77.0,120.0,90.0,10.0,64.0
6261,75.0,120.0,90.0,10.0,64.0
6262,73.0,120.0,90.0,10.0,64.0
6263,71.0,138.0,90.0,10.0,64.0
6264,70.0,120.0,90.0,10.0,64.0
6265,73.0,120.0,90.0,10.0,64.0
6266,78.0,0.0,90.0,10.0,64.0
6267,78.0,120.0,90.0,11.0,64.0
6268,66.0,0.0,480.0,12.0,64.0
6269,58.0,96.0,240.0,3.0,64.0
6270,46.0,0.0,240.0,14.0,64.0
6271,58.0,0.0,240.0,13.0,64.0
6272,76.0,0.0,90.0,11.0,64.0
6273,76.0,24.0,90.0,10.0,64.0
6274,59.0,96.0,240.0,13.0,64.0
6275,75.0,0.0,90.0,11.0,64.0
6276,47.0,0.0,240.0,14.0,64.0
6277,59.0,0.0,240.0,3.0,64.0
6278,75.0,120.0,90.0,10.0,64.0
6279,71.0,0.0,90.0,11.0,64.0
6280,71.0,24.0,90.0,10.0,64.0
6281,68.0,24.0,420.0,12.0,64.0
6282,60.0,96.0,240.0,3.0,64.0
6283,80.0,120.0,90.0,10.0,64.0
6284,60.0,0.0,240.0,13.0,64.0
6285,48.0,0.0,240.0,14.0,64.0
6286,80.0,0.0,90.0,11.0,64.0
6287,78.0,0.0,90.0,10.0,64.0
6288,78.0,24.0,90.0,11.0,64.0
6289,49.0,0.0,240.0,14.0,64.0
6290,61.0,0.0,240.0,13.0,64.0
6291,61.0,96.0,240.0,3.0,64.0
6292,77.0,96.0,90.0,11.0,64.0
6293,77.0,0.0,90.0,10.0,64.0
6294,73.0,0.0,90.0,11.0,64.0
6295,73.0,24.0,90.0,10.0,64.0
6296,62.0,0.0,180.0,3.0,64.0
6297,62.0,0.0,180.0,13.0,64.0
6298,50.0,24.0,180.0,14.0,64.0
6299,82.0,96.0,90.0,10.0,64.0
6300,82.0,0.0,90.0,1.0,64.0
6301,82.0,0.0,90.0,11.0,64.0
6302,70.0,72.0,390.0,12.0,64.0
6303,80.0,0.0,90.0,10.0,64.0
6304,80.0,0.0,90.0,11.0,64.0
6305,80.0,120.0,90.0,1.0,64.0
6306,63.0,0.0,300.0,13.0,64.0
6307,78.0,0.0,90.0,10.0,64.0
6308,78.0,0.0,90.0,1.0,64.0
6309,63.0,0.0,300.0,3.0,64.0
6310,51.0,24.0,300.0,14.0,64.0
6311,78.0,48.0,90.0,11.0,64.0
6312,75.0,0.0,90.0,11.0,64.0
6313,75.0,96.0,90.0,10.0,64.0
6314,75.0,0.0,90.0,1.0,64.0
6315,83.0,0.0,90.0,1.0,64.0
6316,83.0,120.0,90.0,10.0,64.0
6317,71.0,24.0,420.0,12.0,64.0
6318,83.0,0.0,90.0,11.0,64.0
6319,82.0,120.0,90.0,11.0,64.0
6320,82.0,0.0,90.0,1.0,64.0
6321,82.0,0.0,90.0,10.0,64.0
6322,80.0,96.0,90.0,1.0,64.0
6323,80.0,0.0,90.0,11.0,64.0
6324,53.0,0.0,300.0,14.0,64.0
6325,61.0,0.0,390.0,4.0,64.0
6326,68.0,72.0,390.0,4.0,64.0
6327,65.0,24.0,300.0,3.0,64.0
6328,65.0,0.0,300.0,13.0,64.0
6329,80.0,0.0,90.0,10.0,64.0
6330,77.0,96.0,90.0,1.0,64.0
6331,77.0,0.0,90.0,10.0,64.0
6332,77.0,0.0,90.0,11.0,64.0
6333,85.0,0.0,90.0,11.0,64.0
6334,85.0,48.0,90.0,1.0,64.0
6335,85.0,0.0,90.0,10.0,64.0
6336,73.0,72.0,390.0,12.0,64.0
6337,83.0,120.0,90.0,1.0,64.0
6338,83.0,0.0,90.0,11.0,64.0
6339,83.0,0.0,90.0,10.0,64.0
6340,82.0,0.0,90.0,1.0,64.0
6341,54.0,24.0,300.0,14.0,64.0
6342,66.0,0.0,300.0,13.0,64.0
6343,66.0,48.0,390.0,4.0,64.0
6344,70.0,0.0,390.0,4.0,64.0
6345,82.0,0.0,90.0,11.0,64.0
6346,66.0,0.0,300.0,3.0,64.0
6347,82.0,48.0,90.0,10.0,64.0
6348,78.0,0.0,90.0,11.0,64.0
6349,78.0,0.0,90.0,1.0,64.0
6350,78.0,96.0,90.0,10.0,64.0
6351,87.0,0.0,90.0,11.0,64.0
6352,87.0,48.0,90.0,10.0,64.0
6353,75.0,24.0,180.0,12.0,64.0
6354,87.0,0.0,90.0,1.0,64.0
6355,85.0,0.0,90.0,1.0,64.0
6356,85.0,120.0,90.0,10.0,64.0
6357,85.0,0.0,90.0,11.0,64.0
6358,83.0,72.0,390.0,1.0,64.0
6359,68.0,0.0,390.0,4.0,64.0
6360,71.0,0.0,870.0,4.0,64.0
6361,75.0,0.0,390.0,12.0,64.0
6362,68.0,0.0,390.0,13.0,64.0
6363,68.0,0.0,390.0,3.0,64.0
6364,83.0,0.0,870.0,0.0,64.0
6365,83.0,120.0,90.0,10.0,64.0
6366,56.0,0.0,390.0,14.0,64.0
6367,83.0,0.0,90.0,11.0,64.0
6368,87.0,0.0,390.0,0.0,64.0
6369,82.0,0.0,90.0,10.0,64.0
6370,82.0,120.0,90.0,11.0,64.0
6371,80.0,48.0,90.0,11.0,64.0
6372,80.0,0.0,90.0,10.0,64.0
6373,82.0,120.0,90.0,11.0,64.0
6374,82.0,0.0,90.0,10.0,64.0
6375,61.0,0.0,390.0,13.0,64.0
6376,83.0,0.0,90.0,11.0,64.0
6377,73.0,0.0,390.0,12.0,64.0
6378,49.0,0.0,390.0,14.0,64.0
6379,73.0,0.0,390.0,1.0,64.0
6380,83.0,120.0,90.0,10.0,64.0
6381,80.0,0.0,390.0,1.0,64.0
6382,61.0,0.0,390.0,4.0,64.0
6383,89.0,72.0,390.0,0.0,64.0
6384,61.0,0.0,390.0,3.0,64.0
6385,85.0,0.0,90.0,11.0,64.0
6386,85.0,120.0,90.0,10.0,64.0
6387,87.0,48.0,90.0,11.0,64.0
6388,87.0,0.0,90.0,10.0,64.0
6389,89.0,0.0,90.0,10.0,64.0
6390,89.0,144.0,90.0,11.0,64.0
6391,66.0,0.0,120.0,3.0,64.0
6392,90.0,0.0,120.0,10.0,64.0
6393,54.0,0.0,120.0,14.0,64.0
6394,78.0,0.0,120.0,12.0,64.0
6395,66.0,120.0,120.0,13.0,64.0
6396,66.0,0.0,780.0,2.0,64.0
6397,90.0,0.0,120.0,0.0,64.0
6398,66.0,96.0,390.0,4.0,64.0
6399,90.0,0.0,120.0,11.0,64.0
6400,70.0,0.0,390.0,4.0,64.0
6401,54.0,0.0,390.0,6.0,64.0
6402,78.0,72.0,780.0,1.0,64.0
6403,78.0,0.0,390.0,5.0,64.0
6404,89.0,120.0,120.0,0.0,64.0
6405,53.0,0.0,120.0,14.0,64.0
6406,65.0,0.0,120.0,3.0,64.0
6407,65.0,0.0,120.0,13.0,64.0
6408,77.0,0.0,120.0,12.0,64.0
6409,89.0,0.0,120.0,11.0,64.0
6410,89.0,0.0,120.0,10.0,64.0
6411,75.0,24.0,120.0,12.0,64.0
6412,87.0,0.0,120.0,10.0,64.0
6413,87.0,0.0,120.0,0.0,64.0
6414,63.0,0.0,120.0,3.0,64.0
6415,87.0,0.0,120.0,11.0,64.0
6416,51.0,0.0,120.0,14.0,64.0
6417,63.0,0.0,120.0,13.0,64.0
6418,62.0,0.0,120.0,3.0,64.0
6419,86.0,0.0,120.0,11.0,64.0
6420,74.0,0.0,120.0,12.0,64.0
6421,86.0,0.0,120.0,0.0,64.0
6422,62.0,0.0,120.0,13.0,64.0
6423,50.0,120.0,120.0,14.0,64.0
6424,86.0,0.0,120.0,10.0,64.0
6425,66.0,48.0,180.0,4.0,64.0
6426,70.0,0.0,180.0,4.0,64.0
6427,63.0,0.0,120.0,13.0,64.0
6428,87.0,0.0,120.0,0.0,64.0
6429,63.0,0.0,120.0,3.0,64.0
6430,75.0,72.0,120.0,12.0,64.0
6431,87.0,0.0,120.0,10.0,64.0
6432,87.0,0.0,120.0,11.0,64.0
6433,51.0,0.0,120.0,14.0,64.0
6434,85.0,0.0,120.0,11.0,64.0
6435,61.0,0.0,120.0,13.0,64.0
6436,49.0,0.0,120.0,14.0,64.0
6437,85.0,48.0,120.0,0.0,64.0
6438,85.0,0.0,120.0,10.0,64.0
6439,73.0,0.0,120.0,12.0,64.0
6440,61.0,0.0,120.0,3.0,64.0
6441,70.0,0.0,180.0,4.0,64.0
6442,66.0,24.0,180.0,4.0,64.0
6443,83.0,0.0,120.0,10.0,64.0
6444,59.0,0.0,120.0,3.0,64.0
6445,83.0,0.0,120.0,11.0,64.0
6446,59.0,0.0,120.0,13.0,64.0
6447,47.0,72.0,120.0,14.0,64.0
6448,71.0,0.0,120.0,12.0,64.0
6449,83.0,0.0,120.0,0.0,64.0
6450,58.0,120.0,120.0,13.0,64.0
6451,82.0,24.0,90.0,10.0,64.0
6452,70.0,0.0,120.0,12.0,64.0
6453,82.0,0.0,90.0,11.0,64.0
6454,46.0,0.0,120.0,14.0,64.0
6455,82.0,0.0,90.0,0.0,64.0
6456,58.0,0.0,120.0,3.0,64.0
6457,59.0,0.0,120.0,13.0,64.0
6458,71.0,0.0,120.0,12.0,64.0
6459,47.0,0.0,120.0,14.0,64.0
6460,66.0,0.0,390.0,4.0,64.0
6461,68.0,0.0,390.0,4.0,64.0
6462,59.0,120.0,120.0,3.0,64.0
6463,83.0,0.0,120.0,11.0,64.0
6464,54.0,96.0,390.0,6.0,64.0
6465,87.0,72.0,780.0,1.0,64.0
6466,83.0,0.0,120.0,0.0,64.0
6467,75.0,0.0,780.0,2.0,64.0
6468,83.0,0.0,120.0,10.0,64.0
6469,78.0,0.0,390.0,5.0,64.0
6470,82.0,0.0,120.0,11.0,64.0
6471,82.0,0.0,120.0,0.0,64.0
6472,58.0,0.0,120.0,13.0,64.0
6473,46.0,0.0,120.0,14.0,64.0
6474,70.0,120.0,120.0,12.0,64.0
6475,58.0,0.0,120.0,3.0,64.0
6476,82.0,0.0,120.0,10.0,64.0
6477,44.0,0.0,120.0,14.0,64.0
6478,56.0,0.0,120.0,13.0,64.0
6479,80.0,0.0,120.0,10.0,64.0
6480,80.0,24.0,120.0,0.0,64.0
6481,56.0,0.0,120.0,3.0,64.0
6482,80.0,0.0,120.0,11.0,64.0
6483,68.0,0.0,120.0,12.0,64.0
6484,54.0,0.0,120.0,3.0,64.0
6485,78.0,0.0,120.0,11.0,64.0
6486,78.0,0.0,120.0,10.0,64.0
6487,54.0,120.0,120.0,13.0,64.0
6488,42.0,0.0,120.0,14.0,64.0
6489,78.0,0.0,120.0,0.0,64.0
6490,66.0,0.0,120.0,12.0,64.0
6491,80.0,0.0,120.0,10.0,64.0
6492,80.0,0.0,120.0,0.0,64.0
6493,68.0,0.0,120.0,12.0,64.0
6494,68.0,48.0,180.0,4.0,64.0
6495,80.0,0.0,120.0,11.0,64.0
6496,56.0,72.0,120.0,3.0,64.0
6497,44.0,0.0,120.0,14.0,64.0
6498,66.0,0.0,180.0,4.0,64.0
6499,56.0,0.0,120.0,13.0,64.0
6500,78.0,0.0,120.0,11.0,64.0
6501,42.0,0.0,120.0,14.0,64.0
6502,66.0,0.0,120.0,12.0,64.0
6503,78.0,48.0,120.0,10.0,64.0
6504,78.0,0.0,120.0,0.0,64.0
6505,54.0,0.0,120.0,3.0,64.0
6506,54.0,0.0,120.0,13.0,64.0
6507,53.0,72.0,120.0,13.0,64.0
6508,41.0,0.0,120.0,14.0,64.0
6509,77.0,0.0,120.0,0.0,64.0
6510,65.0,0.0,120.0,12.0,64.0
6511,77.0,0.0,120.0,11.0,64.0
6512,66.0,24.0,180.0,4.0,64.0
6513,77.0,0.0,120.0,10.0,64.0
6514,68.0,0.0,180.0,4.0,64.0
6515,53.0,0.0,120.0,3.0,64.0
6516,75.0,0.0,90.0,10.0,64.0
6517,75.0,0.0,90.0,11.0,64.0
6518,39.0,0.0,90.0,14.0,64.0
6519,51.0,0.0,90.0,3.0,64.0
6520,75.0,0.0,90.0,0.0,64.0
6521,51.0,0.0,90.0,13.0,64.0
6522,63.0,180.0,90.0,12.0,64.0
6523,68.0,0.0,390.0,4.0,64.0
6524,61.0,0.0,390.0,4.0,64.0
6525,49.0,0.0,390.0,6.0,64.0
6526,85.0,0.0,390.0,1.0,64.0
6527,73.0,0.0,150.0,10.0,64.0
6528,37.0,0.0,150.0,14.0,64.0
6529,49.0,0.0,150.0,3.0,64.0
6530,73.0,0.0,150.0,0.0,64.0
6531,73.0,0.0,390.0,5.0,64.0
6532,49.0,0.0,150.0,13.0,64.0
6533,73.0,162.0,150.0,11.0,64.0
6534,61.0,0.0,150.0,12.0,64.0
6535,73.0,12.0,390.0,2.0,64.0
6536,77.0,66.0,90.0,0.0,64.0
6537,71.0,0.0,150.0,12.0,64.0
6538,53.0,0.0,90.0,3.0,64.0
6539,77.0,0.0,90.0,11.0,64.0
6540,59.0,42.0,150.0,13.0,64.0
6541,77.0,0.0,90.0,10.0,64.0
6542,47.0,0.0,150.0,14.0,64.0
6543,80.0,198.0,90.0,10.0,64.0
6544,80.0,0.0,90.0,11.0,64.0
6545,56.0,0.0,90.0,3.0,64.0
6546,80.0,0.0,90.0,0.0,64.0
6547,70.0,0.0,150.0,12.0,64.0
6548,85.0,0.0,150.0,11.0,64.0
6549,85.0,0.0,150.0,10.0,64.0
6550,66.0,204.0,180.0,4.0,64.0
6551,70.0,0.0,180.0,4.0,64.0
6552,46.0,0.0,150.0,14.0,64.0
6553,58.0,0.0,150.0,13.0,64.0
6554,61.0,36.0,150.0,3.0,64.0
6555,85.0,0.0,150.0,0.0,64.0
6556,54.0,0.0,150.0,13.0,64.0
6557,78.0,0.0,180.0,1.0,64.0
6558,85.0,204.0,180.0,1.0,64.0
6559,90.0,0.0,150.0,0.0,64.0
6560,70.0,0.0,180.0,4.0,64.0
6561,58.0,0.0,150.0,3.0,64.0
6562,73.0,0.0,180.0,4.0,64.0
6563,85.0,0.0,150.0,10.0,64.0
6564,66.0,0.0,150.0,10.0,64.0
6565,73.0,0.0,150.0,10.0,64.0
6566,73.0,0.0,150.0,11.0,64.0
6567,85.0,0.0,150.0,11.0,64.0
6568,66.0,0.0,150.0,12.0,64.0
6569,66.0,0.0,150.0,11.0,64.0
6570,42.0,36.0,150.0,14.0,64.0
6571,47.0,0.0,150.0,14.0,64.0
6572,87.0,0.0,180.0,0.0,64.0
6573,71.0,0.0,180.0,4.0,64.0
6574,68.0,0.0,180.0,4.0,64.0
6575,59.0,0.0,150.0,3.0,64.0
6576,75.0,204.0,180.0,1.0,64.0
6577,83.0,0.0,180.0,1.0,64.0
6578,83.0,0.0,180.0,10.0,64.0
6579,75.0,0.0,180.0,10.0,64.0
6580,66.0,0.0,180.0,11.0,64.0
6581,83.0,0.0,180.0,11.0,64.0
6582,71.0,36.0,150.0,12.0,64.0
6583,66.0,0.0,180.0,10.0,64.0
6584,75.0,0.0,180.0,11.0,64.0
6585,59.0,0.0,150.0,13.0,64.0
6586,56.0,0.0,150.0,3.0,64.0
6587,44.0,0.0,150.0,14.0,64.0
6588,56.0,240.0,150.0,13.0,64.0
6589,68.0,0.0,150.0,12.0,64.0
6590,61.0,36.0,150.0,13.0,64.0
6591,73.0,0.0,150.0,12.0,64.0
6592,80.0,0.0,180.0,10.0,64.0
6593,77.0,0.0,180.0,10.0,64.0
6594,73.0,0.0,180.0,10.0,64.0
6595,49.0,0.0,150.0,14.0,64.0
6596,77.0,0.0,180.0,11.0,64.0
6597,80.0,0.0,180.0,11.0,64.0
6598,73.0,0.0,180.0,11.0,64.0
6599,61.0,0.0,180.0,4.0,64.0
6600,68.0,0.0,180.0,4.0,64.0
6601,80.0,0.0,180.0,1.0,64.0
6602,77.0,0.0,180.0,1.0,64.0
6603,85.0,204.0,180.0,0.0,64.0
6604,61.0,0.0,150.0,3.0,64.0
6605,49.0,0.0,150.0,3.0,64.0
6606,61.0,0.0,150.0,12.0,64.0
6607,37.0,204.0,150.0,14.0,64.0
6608,49.0,0.0,150.0,13.0,64.0
6609,54.0,0.0,120.0,14.0,64.0
6610,78.0,72.0,780.0,1.0,64.0
6611,78.0,96.0,390.0,5.0,64.0
6612,78.0,0.0,120.0,12.0,64.0
6613,66.0,0.0,780.0,2.0,64.0
6614,70.0,0.0,390.0,4.0,64.0
6615,66.0,0.0,390.0,4.0,64.0
6616,66.0,0.0,120.0,3.0,64.0
6617,90.0,0.0,120.0,0.0,64.0
6618,54.0,0.0,390.0,6.0,64.0
6619,66.0,0.0,120.0,13.0,64.0
6620,90.0,0.0,120.0,10.0,64.0
6621,90.0,120.0,120.0,11.0,64.0
6622,89.0,0.0,120.0,10.0,64.0
6623,65.0,0.0,120.0,3.0,64.0
6624,53.0,120.0,120.0,14.0,64.0
6625,77.0,0.0,120.0,12.0,64.0
6626,89.0,0.0,120.0,0.0,64.0
6627,65.0,0.0,120.0,13.0,64.0
6628,89.0,0.0,120.0,11.0,64.0
6629,63.0,0.0,120.0,13.0,64.0
6630,75.0,0.0,120.0,12.0,64.0
6631,87.0,0.0,120.0,0.0,64.0
6632,87.0,0.0,120.0,11.0,64.0
6633,63.0,0.0,120.0,3.0,64.0
6634,87.0,24.0,120.0,10.0,64.0
6635,51.0,0.0,120.0,14.0,64.0
6636,74.0,0.0,120.0,12.0,64.0
6637,86.0,0.0,120.0,0.0,64.0
6638,62.0,0.0,120.0,13.0,64.0
6639,50.0,0.0,120.0,14.0,64.0
6640,86.0,0.0,120.0,11.0,64.0
6641,62.0,120.0,120.0,3.0,64.0
6642,86.0,0.0,120.0,10.0,64.0
6643,63.0,0.0,120.0,13.0,64.0
6644,87.0,0.0,120.0,10.0,64.0
6645,87.0,0.0,120.0,0.0,64.0
6646,75.0,0.0,120.0,12.0,64.0
6647,51.0,0.0,120.0,14.0,64.0
6648,87.0,0.0,120.0,11.0,64.0
6649,63.0,72.0,120.0,3.0,64.0
6650,70.0,48.0,180.0,4.0,64.0
6651,66.0,0.0,180.0,4.0,64.0
6652,85.0,0.0,120.0,10.0,64.0
6653,85.0,0.0,120.0,11.0,64.0
6654,49.0,0.0,120.0,14.0,64.0
6655,73.0,0.0,120.0,12.0,64.0
6656,61.0,0.0,120.0,13.0,64.0
6657,85.0,0.0,120.0,0.0,64.0
6658,61.0,48.0,120.0,3.0,64.0
6659,59.0,0.0,120.0,3.0,64.0
6660,83.0,0.0,120.0,10.0,64.0
6661,83.0,0.0,120.0,0.0,64.0
6662,70.0,0.0,180.0,4.0,64.0
6663,66.0,24.0,180.0,4.0,64.0
6664,83.0,72.0,120.0,11.0,64.0
6665,59.0,0.0,120.0,13.0,64.0
6666,47.0,0.0,120.0,14.0,64.0
6667,71.0,0.0,120.0,12.0,64.0
6668,58.0,0.0,120.0,3.0,64.0
6669,82.0,0.0,90.0,10.0,64.0
6670,82.0,24.0,90.0,11.0,64.0
6671,82.0,0.0,90.0,0.0,64.0
6672,70.0,0.0,120.0,12.0,64.0
6673,58.0,0.0,120.0,13.0,64.0
6674,46.0,120.0,120.0,14.0,64.0
6675,71.0,120.0,120.0,12.0,64.0
6676,78.0,0.0,390.0,5.0,64.0
6677,83.0,0.0,120.0,11.0,64.0
6678,59.0,0.0,120.0,3.0,64.0
6679,59.0,0.0,120.0,13.0,64.0
6680,87.0,72.0,780.0,1.0,64.0
6681,47.0,0.0,120.0,14.0,64.0
6682,83.0,0.0,120.0,0.0,64.0
6683,83.0,0.0,120.0,10.0,64.0
6684,66.0,0.0,390.0,4.0,64.0
6685,68.0,0.0,390.0,4.0,64.0
6686,75.0,0.0,780.0,2.0,64.0
6687,54.0,96.0,390.0,6.0,64.0
6688,58.0,120.0,120.0,13.0,64.0
6689,46.0,0.0,120.0,14.0,64.0
6690,82.0,0.0,120.0,11.0,64.0
6691,82.0,0.0,120.0,10.0,64.0
6692,70.0,0.0,120.0,12.0,64.0
6693,82.0,0.0,120.0,0.0,64.0
6694,58.0,0.0,120.0,3.0,64.0
6695,68.0,0.0,120.0,12.0,64.0
6696,44.0,0.0,120.0,14.0,64.0
6697,80.0,0.0,120.0,0.0,64.0
6698,80.0,0.0,120.0,11.0,64.0
6699,80.0,24.0,120.0,10.0,64.0
6700,56.0,0.0,120.0,13.0,64.0
6701,56.0,0.0,120.0,3.0,64.0
6702,54.0,0.0,120.0,3.0,64.0
6703,78.0,120.0,120.0,0.0,64.0
6704,78.0,0.0,120.0,11.0,64.0
6705,54.0,0.0,120.0,13.0,64.0
6706,42.0,0.0,120.0,14.0,64.0
6707,66.0,0.0,120.0,12.0,64.0
6708,78.0,0.0,120.0,10.0,64.0
6709,68.0,0.0,120.0,12.0,64.0
6710,56.0,72.0,120.0,3.0,64.0
6711,80.0,0.0,120.0,0.0,64.0
6712,56.0,0.0,120.0,13.0,64.0
6713,66.0,48.0,180.0,4.0,64.0
6714,68.0,0.0,180.0,4.0,64.0
6715,80.0,0.0,120.0,10.0,64.0
6716,80.0,0.0,120.0,11.0,64.0
6717,44.0,0.0,120.0,14.0,64.0
6718,66.0,0.0,120.0,12.0,64.0
6719,78.0,0.0,120.0,10.0,64.0
6720,54.0,0.0,120.0,13.0,64.0
6721,42.0,0.0,120.0,14.0,64.0
6722,54.0,48.0,120.0,3.0,64.0
6723,78.0,0.0,120.0,0.0,64.0
6724,78.0,0.0,120.0,11.0,64.0
6725,68.0,0.0,180.0,4.0,64.0
6726,66.0,24.0,180.0,4.0,64.0
6727,77.0,0.0,120.0,0.0,64.0
6728,65.0,0.0,120.0,12.0,64.0
6729,77.0,72.0,120.0,10.0,64.0
6730,53.0,0.0,120.0,13.0,64.0
6731,77.0,0.0,120.0,11.0,64.0
6732,53.0,0.0,120.0,3.0,64.0
6733,41.0,0.0,120.0,14.0,64.0
6734,75.0,0.0,90.0,11.0,64.0
6735,63.0,180.0,90.0,12.0,64.0
6736,75.0,0.0,90.0,0.0,64.0
6737,51.0,0.0,90.0,13.0,64.0
6738,51.0,0.0,90.0,3.0,64.0
6739,39.0,0.0,90.0,14.0,64.0
6740,75.0,0.0,90.0,10.0,64.0
6741,49.0,0.0,390.0,6.0,64.0
6742,49.0,0.0,150.0,3.0,64.0
6743,73.0,12.0,390.0,2.0,64.0
6744,49.0,162.0,150.0,13.0,64.0
6745,73.0,0.0,390.0,5.0,64.0
6746,73.0,0.0,150.0,10.0,64.0
6747,37.0,0.0,150.0,14.0,64.0
6748,68.0,0.0,390.0,4.0,64.0
6749,61.0,0.0,150.0,12.0,64.0
6750,73.0,0.0,150.0,11.0,64.0
6751,85.0,0.0,390.0,1.0,64.0
6752,73.0,0.0,150.0,0.0,64.0
6753,61.0,0.0,390.0,4.0,64.0
6754,53.0,0.0,90.0,3.0,64.0
6755,77.0,0.0,90.0,0.0,64.0
6756,71.0,42.0,150.0,12.0,64.0
6757,59.0,0.0,150.0,13.0,64.0
6758,47.0,0.0,150.0,14.0,64.0
6759,77.0,66.0,90.0,10.0,64.0
6760,77.0,0.0,90.0,11.0,64.0
6761,56.0,0.0,90.0,3.0,64.0
6762,80.0,198.0,90.0,0.0,64.0
6763,80.0,0.0,90.0,11.0,64.0
6764,80.0,0.0,90.0,10.0,64.0
6765,58.0,0.0,150.0,13.0,64.0
6766,85.0,0.0,150.0,10.0,64.0
6767,46.0,0.0,150.0,14.0,64.0
6768,61.0,36.0,150.0,3.0,64.0
6769,70.0,0.0,180.0,4.0,64.0
6770,85.0,0.0,150.0,11.0,64.0
6771,66.0,204.0,180.0,4.0,64.0
6772,85.0,0.0,150.0,0.0,64.0
6773,70.0,0.0,150.0,12.0,64.0
6774,78.0,204.0,180.0,1.0,64.0
6775,85.0,0.0,180.0,1.0,64.0
6776,66.0,0.0,150.0,12.0,64.0
6777,85.0,0.0,150.0,10.0,64.0
6778,66.0,0.0,150.0,10.0,64.0
6779,73.0,36.0,150.0,10.0,64.0
6780,70.0,0.0,180.0,4.0,64.0
6781,73.0,0.0,180.0,4.0,64.0
6782,90.0,0.0,150.0,0.0,64.0
6783,42.0,0.0,150.0,14.0,64.0
6784,73.0,0.0,150.0,11.0,64.0
6785,66.0,0.0,150.0,11.0,64.0
6786,85.0,0.0,150.0,11.0,64.0
6787,54.0,0.0,150.0,13.0,64.0
6788,58.0,0.0,150.0,3.0,64.0
6789,83.0,0.0,180.0,1.0,64.0
6790,59.0,0.0,150.0,13.0,64.0
6791,75.0,0.0,180.0,1.0,64.0
6792,59.0,0.0,150.0,3.0,64.0
6793,83.0,0.0,180.0,10.0,64.0
6794,47.0,36.0,150.0,14.0,64.0
6795,75.0,0.0,180.0,10.0,64.0
6796,83.0,0.0,180.0,11.0,64.0
6797,68.0,0.0,180.0,4.0,64.0
6798,71.0,0.0,180.0,4.0,64.0
6799,87.0,0.0,180.0,0.0,64.0
6800,66.0,204.0,180.0,10.0,64.0
6801,71.0,0.0,150.0,12.0,64.0
6802,66.0,0.0,180.0,11.0,64.0
6803,75.0,0.0,180.0,11.0,64.0
6804,56.0,0.0,150.0,13.0,64.0
6805,56.0,0.0,150.0,3.0,64.0
6806,44.0,0.0,150.0,14.0,64.0
6807,68.0,240.0,150.0,12.0,64.0
6808,80.0,0.0,180.0,1.0,64.0
6809,85.0,0.0,180.0,0.0,64.0
6810,61.0,0.0,150.0,13.0,64.0
6811,61.0,0.0,150.0,3.0,64.0
6812,73.0,36.0,150.0,12.0,64.0
6813,68.0,0.0,180.0,4.0,64.0
6814,61.0,0.0,180.0,4.0,64.0
6815,49.0,0.0,150.0,14.0,64.0
6816,77.0,0.0,180.0,1.0,64.0
6817,80.0,0.0,180.0,10.0,64.0
6818,77.0,0.0,180.0,10.0,64.0
6819,73.0,0.0,180.0,10.0,64.0
6820,80.0,204.0,180.0,11.0,64.0
6821,73.0,0.0,180.0,11.0,64.0
6822,77.0,0.0,180.0,11.0,64.0
6823,49.0,0.0,150.0,3.0,64.0
6824,37.0,0.0,150.0,14.0,64.0
6825,61.0,0.0,150.0,12.0,64.0
6826,49.0,180.0,150.0,13.0,64.0
6827,78.0,120.0,90.0,10.0,64.0
6828,66.0,0.0,390.0,5.0,64.0
6829,54.0,0.0,390.0,13.0,64.0
6830,85.0,0.0,4020.0,1.0,64.0
6831,82.0,0.0,390.0,1.0,64.0
6832,78.0,0.0,390.0,5.0,64.0
6833,54.0,72.0,390.0,6.0,64.0
6834,66.0,0.0,390.0,12.0,64.0
6835,66.0,0.0,390.0,4.0,64.0
6836,78.0,0.0,390.0,2.0,64.0
6837,54.0,0.0,390.0,3.0,64.0
6838,66.0,0.0,390.0,11.0,64.0
6839,78.0,0.0,390.0,11.0,64.0
6840,54.0,0.0,390.0,4.0,64.0
6841,78.0,0.0,90.0,0.0,64.0
6842,73.0,0.0,4020.0,2.0,64.0
6843,42.0,0.0,390.0,14.0,64.0
6844,82.0,120.0,90.0,0.0,64.0
6845,82.0,0.0,90.0,10.0,64.0
6846,85.0,0.0,90.0,10.0,64.0
6847,85.0,48.0,90.0,0.0,64.0
6848,82.0,0.0,90.0,10.0,64.0
6849,82.0,120.0,90.0,0.0,64.0
6850,77.0,0.0,240.0,2.0,64.0
6851,83.0,120.0,90.0,0.0,64.0
6852,83.0,0.0,90.0,10.0,64.0
6853,80.0,96.0,240.0,1.0,64.0
6854,80.0,24.0,90.0,10.0,64.0
6855,80.0,0.0,90.0,0.0,64.0
6856,49.0,24.0,180.0,6.0,64.0
6857,80.0,0.0,180.0,2.0,64.0
6858,49.0,0.0,150.0,14.0,64.0
6859,68.0,0.0,180.0,4.0,64.0
6860,83.0,0.0,150.0,11.0,64.0
6861,73.0,0.0,150.0,5.0,64.0
6862,80.0,0.0,180.0,5.0,64.0
6863,61.0,0.0,150.0,4.0,64.0
6864,83.0,0.0,180.0,1.0,64.0
6865,89.0,0.0,90.0,10.0,64.0
6866,73.0,0.0,150.0,12.0,64.0
6867,61.0,36.0,150.0,13.0,64.0
6868,89.0,60.0,90.0,0.0,64.0
6869,68.0,0.0,150.0,12.0,64.0
6870,73.0,0.0,150.0,11.0,64.0
6871,61.0,0.0,150.0,3.0,64.0
6872,85.0,0.0,90.0,0.0,64.0
6873,85.0,120.0,90.0,10.0,64.0
6874,54.0,0.0,390.0,14.0,64.0
6875,78.0,0.0,390.0,2.0,64.0
6876,66.0,0.0,390.0,13.0,64.0
6877,66.0,0.0,390.0,12.0,64.0
6878,82.0,0.0,390.0,11.0,64.0
6879,73.0,0.0,390.0,11.0,64.0
6880,73.0,0.0,390.0,12.0,64.0
6881,54.0,0.0,390.0,4.0,64.0
6882,66.0,0.0,390.0,4.0,64.0
6883,90.0,0.0,90.0,0.0,64.0
6884,90.0,120.0,90.0,10.0,64.0
6885,66.0,0.0,390.0,5.0,64.0
6886,66.0,0.0,390.0,11.0,64.0
6887,82.0,0.0,390.0,1.0,64.0
6888,78.0,0.0,390.0,5.0,64.0
6889,54.0,0.0,390.0,6.0,64.0
6890,66.0,72.0,390.0,3.0,64.0
6891,85.0,0.0,90.0,0.0,64.0
6892,85.0,120.0,90.0,10.0,64.0
6893,82.0,0.0,90.0,10.0,64.0
6894,82.0,48.0,90.0,0.0,64.0
6895,78.0,0.0,90.0,0.0,64.0
6896,78.0,120.0,90.0,10.0,64.0
6897,77.0,0.0,240.0,2.0,64.0
6898,83.0,0.0,90.0,0.0,64.0
6899,83.0,120.0,90.0,10.0,64.0
6900,80.0,96.0,240.0,1.0,64.0
6901,80.0,0.0,90.0,0.0,64.0
6902,80.0,24.0,90.0,10.0,64.0
6903,61.0,0.0,150.0,13.0,64.0
6904,89.0,60.0,90.0,0.0,64.0
6905,89.0,0.0,90.0,10.0,64.0
6906,61.0,0.0,150.0,3.0,64.0
6907,49.0,0.0,150.0,14.0,64.0
6908,73.0,36.0,150.0,5.0,64.0
6909,83.0,0.0,150.0,11.0,64.0
6910,80.0,0.0,180.0,2.0,64.0
6911,68.0,0.0,150.0,12.0,64.0
6912,49.0,0.0,180.0,6.0,64.0
6913,80.0,24.0,180.0,5.0,64.0
6914,73.0,0.0,150.0,11.0,64.0
6915,68.0,0.0,180.0,4.0,64.0
6916,73.0,0.0,150.0,12.0,64.0
6917,61.0,0.0,150.0,4.0,64.0
6918,83.0,0.0,180.0,1.0,64.0
6919,85.0,0.0,90.0,10.0,64.0
6920,85.0,120.0,90.0,0.0,64.0
6921,78.0,0.0,390.0,2.0,64.0
6922,54.0,0.0,390.0,4.0,64.0
6923,54.0,0.0,390.0,14.0,64.0
6924,66.0,0.0,390.0,3.0,64.0
6925,66.0,0.0,390.0,5.0,64.0
6926,54.0,0.0,390.0,6.0,64.0
6927,73.0,72.0,390.0,12.0,64.0
6928,82.0,0.0,390.0,1.0,64.0
6929,82.0,0.0,390.0,11.0,64.0
6930,78.0,0.0,390.0,5.0,64.0
6931,66.0,0.0,390.0,12.0,64.0
6932,90.0,0.0,90.0,0.0,64.0
6933,73.0,0.0,390.0,11.0,64.0
6934,66.0,0.0,390.0,4.0,64.0
6935,66.0,0.0,390.0,11.0,64.0
6936,90.0,120.0,90.0,10.0,64.0
6937,66.0,0.0,390.0,13.0,64.0
6938,85.0,120.0,90.0,0.0,64.0
6939,85.0,0.0,90.0,10.0,64.0
6940,82.0,48.0,90.0,10.0,64.0
6941,82.0,0.0,90.0,0.0,64.0
6942,78.0,0.0,90.0,10.0,64.0
6943,78.0,120.0,90.0,0.0,64.0
6944,80.0,96.0,240.0,1.0,64.0
6945,77.0,0.0,240.0,2.0,64.0
6946,83.0,0.0,90.0,10.0,64.0
6947,83.0,120.0,90.0,0.0,64.0
6948,80.0,24.0,90.0,10.0,64.0
6949,80.0,0.0,90.0,0.0,64.0
6950,73.0,0.0,150.0,12.0,64.0
6951,89.0,0.0,90.0,0.0,64.0
6952,68.0,0.0,180.0,4.0,64.0
6953,61.0,0.0,150.0,4.0,64.0
6954,49.0,0.0,150.0,14.0,64.0
6955,73.0,0.0,150.0,11.0,64.0
6956,80.0,24.0,180.0,5.0,64.0
6957,49.0,0.0,180.0,6.0,64.0
6958,68.0,0.0,150.0,12.0,64.0
6959,89.0,60.0,90.0,10.0,64.0
6960,73.0,0.0,150.0,5.0,64.0
6961,83.0,36.0,150.0,11.0,64.0
6962,61.0,0.0,150.0,3.0,64.0
6963,61.0,0.0,150.0,13.0,64.0
6964,80.0,0.0,180.0,2.0,64.0
6965,83.0,0.0,180.0,1.0,64.0
6966,85.0,120.0,90.0,0.0,64.0
6967,85.0,0.0,90.0,10.0,64.0
6968,54.0,0.0,150.0,14.0,64.0
6969,78.0,0.0,150.0,5.0,64.0
6970,73.0,0.0,150.0,11.0,64.0
6971,82.0,0.0,150.0,11.0,64.0
6972,66.0,0.0,150.0,12.0,64.0
6973,73.0,36.0,150.0,12.0,64.0
6974,54.0,24.0,180.0,6.0,64.0
6975,66.0,0.0,150.0,5.0,64.0
6976,66.0,0.0,150.0,13.0,64.0
6977,66.0,0.0,150.0,3.0,64.0
6978,90.0,60.0,90.0,10.0,64.0
6979,78.0,0.0,240.0,2.0,64.0
6980,90.0,0.0,90.0,0.0,64.0
6981,54.0,0.0,150.0,4.0,64.0
6982,66.0,0.0,150.0,4.0,64.0
6983,82.0,96.0,240.0,1.0,64.0
6984,85.0,0.0,90.0,0.0,64.0
6985,85.0,24.0,90.0,10.0,64.0
6986,61.0,0.0,150.0,13.0,64.0
6987,83.0,96.0,240.0,1.0,64.0
6988,80.0,0.0,240.0,2.0,64.0
6989,89.0,60.0,90.0,10.0,64.0
6990,68.0,0.0,150.0,12.0,64.0
6991,73.0,0.0,150.0,5.0,64.0
6992,73.0,0.0,150.0,11.0,64.0
6993,73.0,0.0,150.0,12.0,64.0
6994,61.0,0.0,150.0,3.0,64.0
6995,80.0,0.0,150.0,5.0,64.0
6996,68.0,36.0,150.0,4.0,64.0
6997,83.0,0.0,150.0,11.0,64.0
6998,61.0,0.0,150.0,4.0,64.0
6999,49.0,24.0,180.0,6.0,64.0
7000,49.0,0.0,150.0,14.0,64.0
7001,89.0,0.0,90.0,0.0,64.0
7002,85.0,24.0,90.0,10.0,64.0
7003,85.0,0.0,90.0,0.0,64.0
7004,54.0,0.0,150.0,14.0,64.0
7005,78.0,0.0,240.0,2.0,64.0
7006,54.0,0.0,150.0,4.0,64.0
7007,66.0,0.0,150.0,3.0,64.0
7008,73.0,0.0,150.0,11.0,64.0
7009,82.0,0.0,150.0,11.0,64.0
7010,90.0,0.0,90.0,0.0,64.0
7011,66.0,0.0,150.0,4.0,64.0
7012,66.0,0.0,150.0,13.0,64.0
7013,82.0,96.0,240.0,1.0,64.0
7014,78.0,0.0,150.0,5.0,64.0
7015,66.0,0.0,150.0,5.0,64.0
7016,54.0,24.0,180.0,6.0,64.0
7017,73.0,36.0,150.0,12.0,64.0
7018,66.0,0.0,150.0,12.0,64.0
7019,90.0,60.0,90.0,10.0,64.0
7020,85.0,0.0,90.0,10.0,64.0
7021,85.0,24.0,90.0,0.0,64.0
7022,80.0,0.0,150.0,5.0,64.0
7023,83.0,96.0,240.0,1.0,64.0
7024,61.0,0.0,150.0,4.0,64.0
7025,68.0,0.0,150.0,12.0,64.0
7026,89.0,0.0,90.0,10.0,64.0
7027,49.0,0.0,150.0,14.0,64.0
7028,80.0,0.0,240.0,2.0,64.0
7029,49.0,24.0,180.0,6.0,64.0
7030,73.0,0.0,150.0,5.0,64.0
7031,61.0,0.0,150.0,3.0,64.0
7032,73.0,0.0,150.0,12.0,64.0
7033,61.0,0.0,150.0,13.0,64.0
7034,83.0,0.0,150.0,11.0,64.0
7035,89.0,60.0,90.0,0.0,64.0
7036,68.0,0.0,150.0,4.0,64.0
7037,73.0,36.0,150.0,11.0,64.0
7038,85.0,0.0,90.0,10.0,64.0
7039,85.0,24.0,90.0,0.0,64.0
7040,82.0,96.0,90.0,11.0,64.0
7041,66.0,72.0,390.0,5.0,64.0
7042,78.0,24.0,180.0,2.0,64.0
7043,73.0,0.0,90.0,11.0,64.0
7044,66.0,0.0,390.0,4.0,64.0
7045,54.0,0.0,390.0,4.0,64.0
7046,54.0,0.0,390.0,14.0,64.0
7047,78.0,0.0,390.0,5.0,64.0
7048,82.0,0.0,180.0,1.0,64.0
7049,66.0,0.0,390.0,3.0,64.0
7050,90.0,0.0,90.0,10.0,64.0
7051,73.0,0.0,390.0,12.0,64.0
7052,66.0,0.0,390.0,12.0,64.0
7053,90.0,0.0,180.0,0.0,64.0
7054,54.0,0.0,390.0,6.0,64.0
7055,66.0,0.0,390.0,13.0,64.0
7056,90.0,0.0,90.0,10.0,64.0
7057,90.0,120.0,90.0,11.0,64.0
7058,89.0,0.0,90.0,11.0,64.0
7059,89.0,48.0,90.0,10.0,64.0
7060,87.0,120.0,90.0,11.0,64.0
7061,87.0,0.0,90.0,10.0,64.0
7062,85.0,120.0,90.0,11.0,64.0
7063,85.0,0.0,90.0,10.0,64.0
7064,87.0,0.0,90.0,11.0,64.0
7065,87.0,120.0,90.0,10.0,64.0
7066,83.0,0.0,90.0,10.0,64.0
7067,83.0,120.0,90.0,11.0,64.0
7068,85.0,0.0,90.0,10.0,64.0
7069,85.0,120.0,90.0,11.0,64.0
7070,82.0,120.0,90.0,10.0,64.0
7071,82.0,0.0,90.0,11.0,64.0
7072,87.0,120.0,90.0,11.0,64.0
7073,87.0,0.0,90.0,10.0,64.0
7074,85.0,120.0,90.0,11.0,64.0
7075,85.0,0.0,90.0,10.0,64.0
7076,83.0,0.0,90.0,10.0,64.0
7077,83.0,120.0,90.0,11.0,64.0
7078,82.0,120.0,90.0,11.0,64.0
7079,82.0,0.0,90.0,10.0,64.0
7080,83.0,120.0,90.0,10.0,64.0
7081,83.0,0.0,90.0,11.0,64.0
7082,80.0,0.0,90.0,10.0,64.0
7083,80.0,120.0,90.0,11.0,64.0
7084,82.0,0.0,90.0,10.0,64.0
7085,82.0,120.0,90.0,11.0,64.0
7086,66.0,0.0,90.0,3.0,64.0
7087,66.0,0.0,90.0,13.0,64.0
7088,54.0,72.0,390.0,4.0,64.0
7089,78.0,0.0,390.0,0.0,64.0
7090,78.0,120.0,90.0,11.0,64.0
7091,78.0,0.0,390.0,1.0,64.0
7092,54.0,0.0,90.0,14.0,64.0
7093,66.0,0.0,390.0,5.0,64.0
7094,54.0,0.0,390.0,6.0,64.0
7095,66.0,0.0,390.0,2.0,64.0
7096,66.0,0.0,90.0,12.0,64.0
7097,78.0,0.0,90.0,10.0,64.0
7098,82.0,0.0,90.0,10.0,64.0
7099,70.0,0.0,90.0,3.0,64.0
7100,58.0,120.0,90.0,14.0,64.0
7101,70.0,0.0,90.0,12.0,64.0
7102,82.0,0.0,90.0,11.0,64.0
7103,70.0,0.0,90.0,13.0,64.0
7104,56.0,0.0,90.0,14.0,64.0
7105,68.0,0.0,90.0,3.0,64.0
7106,80.0,0.0,90.0,10.0,64.0
7107,80.0,0.0,90.0,11.0,64.0
7108,68.0,48.0,90.0,12.0,64.0
7109,68.0,0.0,90.0,13.0,64.0
7110,78.0,0.0,90.0,11.0,64.0
7111,66.0,0.0,90.0,12.0,64.0
7112,54.0,0.0,90.0,14.0,64.0
7113,78.0,0.0,90.0,10.0,64.0
7114,66.0,0.0,90.0,3.0,64.0
7115,66.0,120.0,90.0,13.0,64.0
7116,54.0,0.0,150.0,4.0,64.0
7117,77.0,0.0,90.0,10.0,64.0
7118,66.0,60.0,150.0,2.0,64.0
7119,78.0,0.0,150.0,1.0,64.0
7120,78.0,0.0,150.0,0.0,64.0
7121,65.0,0.0,90.0,3.0,64.0
7122,53.0,60.0,90.0,14.0,64.0
7123,66.0,0.0,150.0,5.0,64.0
7124,65.0,0.0,90.0,12.0,64.0
7125,65.0,0.0,90.0,13.0,64.0
7126,77.0,0.0,90.0,11.0,64.0
7127,66.0,0.0,90.0,13.0,64.0
7128,78.0,120.0,90.0,11.0,64.0
7129,66.0,0.0,90.0,3.0,64.0
7130,66.0,0.0,90.0,12.0,64.0
7131,54.0,0.0,90.0,14.0,64.0
7132,78.0,0.0,90.0,10.0,64.0
7133,54.0,0.0,90.0,6.0,64.0
7134,78.0,0.0,150.0,0.0,64.0
7135,75.0,0.0,90.0,11.0,64.0
7136,63.0,0.0,90.0,12.0,64.0
7137,75.0,0.0,90.0,10.0,64.0
7138,78.0,60.0,150.0,1.0,64.0
7139,66.0,0.0,150.0,2.0,64.0
7140,63.0,0.0,90.0,3.0,64.0
7141,63.0,0.0,90.0,13.0,64.0
7142,66.0,0.0,150.0,5.0,64.0
7143,54.0,0.0,150.0,4.0,64.0
7144,51.0,60.0,90.0,14.0,64.0
7145,65.0,0.0,90.0,13.0,64.0
7146,65.0,120.0,90.0,3.0,64.0
7147,65.0,0.0,90.0,12.0,64.0
7148,77.0,0.0,90.0,10.0,64.0
7149,54.0,0.0,90.0,6.0,64.0
7150,77.0,0.0,90.0,11.0,64.0
7151,53.0,0.0,90.0,14.0,64.0
7152,61.0,0.0,90.0,12.0,64.0
7153,82.0,0.0,390.0,0.0,64.0
7154,70.0,0.0,390.0,5.0,64.0
7155,61.0,0.0,90.0,13.0,64.0
7156,54.0,0.0,390.0,6.0,64.0
7157,49.0,120.0,90.0,14.0,64.0
7158,73.0,0.0,90.0,10.0,64.0
7159,58.0,72.0,390.0,4.0,64.0
7160,70.0,0.0,390.0,2.0,64.0
7161,61.0,0.0,90.0,3.0,64.0
7162,73.0,0.0,90.0,11.0,64.0
7163,82.0,0.0,390.0,1.0,64.0
7164,66.0,0.0,90.0,3.0,64.0
7165,78.0,120.0,90.0,11.0,64.0
7166,66.0,0.0,90.0,13.0,64.0
7167,66.0,0.0,90.0,12.0,64.0
7168,78.0,0.0,90.0,10.0,64.0
7169,54.0,0.0,90.0,14.0,64.0
7170,65.0,0.0,90.0,3.0,64.0
7171,65.0,0.0,90.0,13.0,64.0
7172,65.0,0.0,90.0,12.0,64.0
7173,77.0,48.0,90.0,11.0,64.0
7174,77.0,0.0,90.0,10.0,64.0
7175,53.0,0.0,90.0,14.0,64.0
7176,63.0,0.0,90.0,13.0,64.0
7177,75.0,0.0,90.0,11.0,64.0
7178,63.0,0.0,90.0,12.0,64.0
7179,75.0,0.0,90.0,10.0,64.0
7180,51.0,0.0,90.0,14.0,64.0
7181,63.0,120.0,90.0,3.0,64.0
7182,58.0,0.0,150.0,4.0,64.0
7183,61.0,0.0,90.0,13.0,64.0
7184,49.0,0.0,90.0,14.0,64.0
7185,73.0,0.0,90.0,11.0,64.0
7186,82.0,0.0,150.0,0.0,64.0
7187,73.0,0.0,90.0,10.0,64.0
7188,70.0,0.0,150.0,2.0,64.0
7189,61.0,0.0,90.0,3.0,64.0
7190,70.0,60.0,150.0,5.0,64.0
7191,61.0,60.0,90.0,12.0,64.0
7192,82.0,0.0,150.0,1.0,64.0
7193,63.0,0.0,90.0,13.0,64.0
7194,75.0,0.0,90.0,11.0,64.0
7195,51.0,0.0,90.0,14.0,64.0
7196,75.0,120.0,90.0,10.0,64.0
7197,63.0,0.0,90.0,12.0,64.0
7198,63.0,0.0,90.0,3.0,64.0
7199,71.0,60.0,90.0,11.0,64.0
7200,59.0,0.0,90.0,12.0,64.0
7201,54.0,0.0,90.0,6.0,64.0
7202,82.0,0.0,150.0,1.0,64.0
7203,58.0,60.0,150.0,4.0,64.0
7204,59.0,0.0,90.0,3.0,64.0
7205,71.0,0.0,90.0,10.0,64.0
7206,70.0,0.0,150.0,5.0,64.0
7207,47.0,0.0,90.0,14.0,64.0
7208,70.0,0.0,150.0,2.0,64.0
7209,59.0,0.0,90.0,13.0,64.0
7210,82.0,0.0,150.0,0.0,64.0
7211,61.0,0.0,90.0,12.0,64.0
7212,73.0,0.0,90.0,11.0,64.0
7213,61.0,0.0,90.0,3.0,64.0
7214,61.0,0.0,90.0,13.0,64.0
7215,73.0,0.0,90.0,10.0,64.0
7216,54.0,120.0,90.0,6.0,64.0
7217,49.0,0.0,90.0,14.0,64.0
7218,46.0,0.0,90.0,14.0,64.0
7219,85.0,0.0,390.0,1.0,64.0
7220,73.0,72.0,390.0,2.0,64.0
7221,58.0,0.0,90.0,13.0,64.0
7222,70.0,120.0,90.0,10.0,64.0
7223,61.0,0.0,390.0,4.0,64.0
7224,54.0,0.0,390.0,6.0,64.0
7225,70.0,0.0,90.0,11.0,64.0
7226,85.0,0.0,390.0,0.0,64.0
7227,58.0,0.0,90.0,3.0,64.0
7228,73.0,0.0,390.0,5.0,64.0
7229,58.0,0.0,90.0,12.0,64.0
7230,63.0,0.0,90.0,12.0,64.0
7231,75.0,0.0,90.0,11.0,64.0
7232,63.0,120.0,90.0,3.0,64.0
7233,51.0,0.0,90.0,14.0,64.0
7234,75.0,0.0,90.0,10.0,64.0
7235,63.0,0.0,90.0,13.0,64.0
7236,61.0,0.0,90.0,12.0,64.0
7237,61.0,48.0,90.0,3.0,64.0
7238,61.0,0.0,90.0,13.0,64.0
7239,73.0,0.0,90.0,11.0,64.0
7240,49.0,0.0,90.0,14.0,64.0
7241,73.0,0.0,90.0,10.0,64.0
7242,47.0,0.0,90.0,14.0,64.0
7243,59.0,0.0,90.0,12.0,64.0
7244,71.0,0.0,90.0,10.0,64.0
7245,71.0,0.0,90.0,11.0,64.0
7246,59.0,120.0,90.0,13.0,64.0
7247,59.0,0.0,90.0,3.0,64.0
7248,58.0,0.0,90.0,3.0,64.0
7249,70.0,0.0,90.0,10.0,64.0
7250,73.0,60.0,150.0,2.0,64.0
7251,46.0,0.0,90.0,14.0,64.0
7252,85.0,0.0,150.0,0.0,64.0
7253,73.0,0.0,150.0,5.0,64.0
7254,85.0,0.0,150.0,1.0,64.0
7255,61.0,0.0,150.0,4.0,64.0
7256,70.0,60.0,90.0,11.0,64.0
7257,58.0,0.0,90.0,13.0,64.0
7258,58.0,0.0,90.0,12.0,64.0
7259,71.0,0.0,90.0,11.0,64.0
7260,71.0,0.0,90.0,10.0,64.0
7261,59.0,0.0,90.0,3.0,64.0
7262,47.0,120.0,90.0,14.0,64.0
7263,59.0,0.0,90.0,12.0,64.0
7264,59.0,0.0,90.0,13.0,64.0
7265,56.0,0.0,90.0,13.0,64.0
7266,54.0,0.0,90.0,6.0,64.0
7267,85.0,0.0,150.0,0.0,64.0
7268,56.0,0.0,90.0,3.0,64.0
7269,68.0,60.0,90.0,11.0,64.0
7270,73.0,0.0,150.0,2.0,64.0
7271,68.0,0.0,90.0,10.0,64.0
7272,44.0,0.0,90.0,14.0,64.0
7273,61.0,60.0,150.0,4.0,64.0
7274,56.0,0.0,90.0,12.0,64.0
7275,73.0,0.0,150.0,5.0,64.0
7276,85.0,0.0,150.0,1.0,64.0
7277,58.0,0.0,90.0,12.0,64.0
7278,54.0,0.0,90.0,6.0,64.0
7279,58.0,0.0,90.0,13.0,64.0
7280,58.0,0.0,90.0,3.0,64.0
7281,46.0,0.0,90.0,14.0,64.0
7282,70.0,0.0,90.0,11.0,64.0
7283,70.0,72.0,90.0,10.0,64.0
7284,54.0,48.0,40.0,6.0,64.0
7285,66.0,0.0,150.0,4.0,64.0
7286,54.0,0.0,90.0,12.0,64.0
7287,54.0,0.0,90.0,13.0,64.0
7288,90.0,12.0,150.0,0.0,64.0
7289,90.0,0.0,150.0,1.0,64.0
7290,66.0,0.0,90.0,10.0,64.0
7291,54.0,12.0,90.0,3.0,64.0
7292,42.0,0.0,90.0,14.0,64.0
7293,78.0,0.0,150.0,2.0,64.0
7294,78.0,0.0,150.0,5.0,64.0
7295,66.0,0.0,90.0,11.0,64.0
7296,54.0,48.0,40.0,6.0,64.0
7297,56.0,0.0,90.0,12.0,64.0
7298,56.0,0.0,90.0,3.0,64.0
7299,68.0,0.0,90.0,11.0,64.0
7300,56.0,0.0,90.0,13.0,64.0
7301,54.0,48.0,40.0,6.0,64.0
7302,44.0,0.0,90.0,14.0,64.0
7303,68.0,12.0,90.0,10.0,64.0
7304,54.0,60.0,40.0,6.0,64.0
7305,46.0,0.0,90.0,14.0,64.0
7306,73.0,0.0,150.0,5.0,64.0
7307,61.0,0.0,150.0,4.0,64.0
7308,58.0,0.0,90.0,12.0,64.0
7309,73.0,0.0,150.0,2.0,64.0
7310,85.0,12.0,150.0,1.0,64.0
7311,70.0,0.0,90.0,11.0,64.0
7312,58.0,0.0,90.0,3.0,64.0
7313,58.0,0.0,90.0,13.0,64.0
7314,54.0,48.0,40.0,6.0,64.0
7315,85.0,0.0,150.0,0.0,64.0
7316,70.0,12.0,90.0,10.0,64.0
7317,54.0,48.0,40.0,6.0,64.0
7318,44.0,0.0,90.0,14.0,64.0
7319,68.0,0.0,90.0,10.0,64.0
7320,68.0,0.0,90.0,11.0,64.0
7321,56.0,12.0,90.0,12.0,64.0
7322,56.0,0.0,90.0,3.0,64.0
7323,54.0,48.0,40.0,6.0,64.0
7324,56.0,0.0,90.0,13.0,64.0
7325,54.0,60.0,40.0,6.0,64.0
7326,78.0,0.0,150.0,5.0,64.0
7327,66.0,0.0,90.0,11.0,64.0
7328,78.0,0.0,150.0,2.0,64.0
7329,54.0,0.0,90.0,12.0,64.0
7330,42.0,0.0,90.0,14.0,64.0
7331,54.0,12.0,90.0,3.0,64.0
7332,66.0,0.0,90.0,10.0,64.0
7333,90.0,0.0,150.0,1.0,64.0
7334,54.0,48.0,40.0,6.0,64.0
7335,54.0,0.0,90.0,13.0,64.0
7336,90.0,12.0,150.0,0.0,64.0
7337,66.0,0.0,150.0,4.0,64.0
7338,54.0,48.0,40.0,6.0,64.0
7339,54.0,48.0,40.0,6.0,64.0
7340,56.0,0.0,90.0,3.0,64.0
7341,68.0,0.0,90.0,11.0,64.0
7342,68.0,0.0,90.0,10.0,64.0
7343,44.0,0.0,90.0,14.0,64.0
7344,56.0,12.0,90.0,13.0,64.0
7345,56.0,0.0,90.0,12.0,64.0
7346,54.0,60.0,40.0,6.0,64.0
7347,61.0,0.0,150.0,4.0,64.0
7348,46.0,0.0,90.0,14.0,64.0
7349,58.0,12.0,90.0,3.0,64.0
7350,85.0,0.0,150.0,0.0,64.0
7351,85.0,0.0,150.0,1.0,64.0
7352,58.0,0.0,90.0,12.0,64.0
7353,58.0,0.0,90.0,13.0,64.0
7354,70.0,0.0,90.0,11.0,64.0
7355,73.0,12.0,150.0,5.0,64.0
7356,54.0,48.0,40.0,6.0,64.0
7357,73.0,0.0,150.0,2.0,64.0
7358,70.0,0.0,90.0,10.0,64.0
7359,54.0,48.0,40.0,6.0,64.0
7360,68.0,0.0,90.0,10.0,64.0
7361,54.0,48.0,40.0,6.0,64.0
7362,56.0,0.0,90.0,12.0,64.0
7363,56.0,12.0,90.0,3.0,64.0
7364,56.0,0.0,90.0,13.0,64.0
7365,68.0,0.0,90.0,11.0,64.0
7366,44.0,0.0,90.0,14.0,64.0
7367,54.0,204.0,40.0,6.0,64.0
7368,66.0,0.0,300.0,10.0,64.0
7369,90.0,0.0,300.0,1.0,64.0
7370,85.0,0.0,300.0,0.0,64.0
7371,82.0,0.0,300.0,1.0,64.0
7372,42.0,0.0,300.0,14.0,64.0
7373,54.0,0.0,300.0,3.0,64.0
7374,78.0,0.0,300.0,2.0,64.0
7375,73.0,0.0,300.0,2.0,64.0
7376,54.0,120.0,180.0,6.0,64.0
7377,54.0,360.0,300.0,12.0,64.0
7378,66.0,0.0,300.0,11.0,64.0
7379,66.0,0.0,300.0,5.0,64.0
7380,54.0,0.0,300.0,13.0,64.0
7381,90.0,0.0,300.0,0.0,64.0
7382,66.0,0.0,300.0,4.0,64.0
7383,54.0,0.0,300.0,4.0,64.0
7384,78.0,0.0,300.0,5.0,64.0
7385,66.0,0.0,300.0,5.0,64.0
7386,54.0,0.0,300.0,13.0,64.0
7387,66.0,0.0,300.0,12.0,64.0
7388,54.0,0.0,300.0,4.0,64.0
7389,66.0,0.0,300.0,4.0,64.0
7390,54.0,120.0,180.0,6.0,64.0
7391,78.0,0.0,300.0,2.0,64.0
7392,54.0,0.0,300.0,3.0,64.0
7393,73.0,0.0,300.0,2.0,64.0
7394,78.0,0.0,300.0,5.0,64.0
7395,42.0,0.0,300.0,14.0,64.0
7396,85.0,0.0,300.0,0.0,64.0
7397,82.0,552.0,300.0,11.0,64.0
7398,90.0,0.0,300.0,0.0,64.0
7399,78.0,0.0,300.0,10.0,64.0
7400,73.0,0.0,300.0,11.0,64.0
7401,90.0,0.0,300.0,10.0,64.0
7402,90.0,0.0,300.0,1.0,64.0
7403,82.0,0.0,300.0,1.0,64.0
7404,66.0,0.0,300.0,10.0,64.0
7405,66.0,0.0,300.0,11.0,64.0
7406,42.0,0.0,390.0,14.0,64.0
7407,82.0,0.0,390.0,1.0,64.0
7408,90.0,0.0,390.0,1.0,64.0
7409,78.0,0.0,390.0,10.0,64.0
7410,78.0,0.0,390.0,2.0,64.0
7411,85.0,0.0,390.0,0.0,64.0
7412,90.0,0.0,390.0,0.0,64.0
7413,66.0,0.0,390.0,10.0,64.0
7414,54.0,0.0,390.0,3.0,64.0
7415,82.0,0.0,390.0,11.0,64.0
7416,73.0,0.0,390.0,11.0,64.0
7417,66.0,0.0,390.0,11.0,64.0
7418,54.0,0.0,390.0,4.0,64.0
7419,73.0,0.0,390.0,2.0,64.0
7420,66.0,0.0,390.0,4.0,64.0
7421,78.0,0.0,390.0,5.0,64.0
7422,54.0,0.0,390.0,13.0,64.0
7423,66.0,0.0,390.0,12.0,64.0
7424,54.0,1344.0,390.0,6.0,64.0
7425,90.0,0.0,390.0,10.0,64.0
7426,30.0,0.0,780.0,14.0,64.0
