,note,step,duration,channel,velocity
0,32.0,0.0,630.0,5.0,0.0
1,56.0,0.0,630.0,1.0,0.0
2,44.0,575.0,630.0,5.0,0.0
3,47.0,0.0,240.0,5.0,0.0
4,35.0,0.0,240.0,5.0,0.0
5,59.0,480.0,240.0,1.0,0.0
6,51.0,0.0,240.0,5.0,0.0
7,63.0,0.0,240.0,1.0,0.0
8,39.0,480.0,240.0,5.0,0.0
9,56.0,0.0,240.0,5.0,0.0
10,44.0,0.0,240.0,5.0,0.0
11,68.0,480.0,240.0,1.0,0.0
12,59.0,0.0,240.0,5.0,0.0
13,71.0,680.0,240.0,1.0,0.0
14,47.0,0.0,240.0,5.0,0.0
15,71.0,120.0,90.0,1.0,0.0
16,71.0,80.0,90.0,1.0,0.0
17,73.0,80.0,90.0,1.0,0.0
18,71.0,120.0,90.0,1.0,0.0
19,70.0,96.0,120.0,1.0,0.0
20,71.0,504.0,90.0,1.0,0.0
21,75.0,156.0,480.0,1.0,0.0
22,63.0,480.0,150.0,4.0,0.0
23,59.0,0.0,150.0,5.0,0.0
24,68.0,0.0,150.0,4.0,0.0
25,63.0,0.0,150.0,4.0,0.0
26,59.0,480.0,150.0,5.0,0.0
27,68.0,0.0,150.0,4.0,0.0
28,63.0,804.0,150.0,4.0,0.0
29,59.0,0.0,150.0,5.0,0.0
30,68.0,0.0,150.0,4.0,0.0
31,76.0,156.0,480.0,1.0,0.0
32,58.0,480.0,150.0,5.0,0.0
33,64.0,0.0,150.0,4.0,0.0
34,67.0,0.0,150.0,4.0,0.0
35,61.0,0.0,150.0,4.0,0.0
36,58.0,0.0,150.0,5.0,0.0
37,67.0,0.0,150.0,4.0,0.0
38,61.0,1429.0,150.0,4.0,0.0
39,64.0,0.0,150.0,4.0,0.0
40,39.0,575.0,630.0,5.0,0.0
41,51.0,0.0,630.0,1.0,0.0
42,27.0,0.0,630.0,5.0,0.0
43,55.0,0.0,240.0,1.0,0.0
44,43.0,480.0,240.0,5.0,0.0
45,31.0,0.0,240.0,5.0,0.0
46,46.0,0.0,240.0,5.0,0.0
47,34.0,0.0,240.0,5.0,0.0
48,58.0,480.0,240.0,1.0,0.0
49,51.0,480.0,240.0,5.0,0.0
50,39.0,0.0,240.0,5.0,0.0
51,63.0,0.0,240.0,1.0,0.0
52,67.0,0.0,240.0,1.0,0.0
53,55.0,695.0,240.0,5.0,0.0
54,43.0,0.0,240.0,5.0,0.0
55,70.0,105.0,90.0,1.0,0.0
56,70.0,80.0,90.0,1.0,0.0
57,71.0,80.0,90.0,1.0,0.0
58,70.0,120.0,90.0,1.0,0.0
59,68.0,96.0,120.0,1.0,0.0
60,70.0,504.0,90.0,1.0,0.0
61,73.0,156.0,480.0,1.0,0.0
62,61.0,0.0,150.0,4.0,0.0
63,67.0,480.0,150.0,4.0,0.0
64,64.0,0.0,150.0,4.0,0.0
65,58.0,0.0,150.0,5.0,0.0
66,61.0,0.0,150.0,4.0,0.0
67,67.0,480.0,150.0,4.0,0.0
68,64.0,0.0,150.0,4.0,0.0
69,58.0,0.0,150.0,5.0,0.0
70,61.0,0.0,150.0,4.0,0.0
71,64.0,0.0,150.0,4.0,0.0
72,58.0,0.0,150.0,5.0,0.0
73,67.0,804.0,150.0,4.0,0.0
74,75.0,156.0,480.0,1.0,0.0
75,63.0,0.0,150.0,4.0,0.0
76,59.0,0.0,150.0,5.0,0.0
77,68.0,480.0,150.0,4.0,0.0
78,63.0,0.0,150.0,4.0,0.0
79,68.0,1164.0,150.0,4.0,0.0
80,59.0,0.0,150.0,5.0,0.0
81,63.0,10.0,1380.0,1.0,0.0
82,39.0,70.0,360.0,5.0,0.0
83,51.0,410.0,180.0,3.0,0.0
84,39.0,70.0,360.0,5.0,0.0
85,51.0,410.0,180.0,3.0,0.0
86,39.0,60.0,360.0,5.0,0.0
87,51.0,410.0,180.0,3.0,0.0
88,63.0,360.0,480.0,2.0,0.0
89,39.0,70.0,360.0,5.0,0.0
90,71.0,360.0,960.0,1.0,0.0
91,51.0,50.0,180.0,3.0,0.0
92,62.0,0.0,480.0,2.0,0.0
93,39.0,70.0,360.0,5.0,0.0
94,51.0,50.0,180.0,3.0,0.0
95,61.0,360.0,480.0,2.0,0.0
96,39.0,70.0,360.0,5.0,0.0
97,70.0,0.0,960.0,1.0,0.0
98,51.0,50.0,180.0,3.0,0.0
99,60.0,360.0,480.0,2.0,0.0
100,39.0,70.0,360.0,5.0,0.0
101,51.0,50.0,180.0,3.0,0.0
102,68.0,360.0,960.0,1.0,0.0
103,59.0,360.0,480.0,2.0,0.0
104,39.0,70.0,360.0,5.0,0.0
105,51.0,50.0,180.0,3.0,0.0
106,58.0,63.0,840.0,2.0,0.0
107,39.0,70.0,360.0,5.0,0.0
108,51.0,50.0,180.0,3.0,0.0
109,67.0,0.0,360.0,1.0,0.0
110,39.0,7.0,360.0,5.0,0.0
111,51.0,410.0,180.0,3.0,0.0
112,39.0,70.0,360.0,5.0,0.0
113,51.0,410.0,180.0,3.0,0.0
114,39.0,70.0,360.0,5.0,0.0
115,75.0,360.0,480.0,1.0,0.0
116,71.0,0.0,960.0,2.0,0.0
117,51.0,50.0,180.0,3.0,0.0
118,39.0,70.0,360.0,5.0,0.0
119,74.0,360.0,480.0,1.0,0.0
120,51.0,50.0,180.0,3.0,0.0
121,70.0,0.0,960.0,2.0,0.0
122,39.0,70.0,360.0,5.0,0.0
123,73.0,360.0,480.0,1.0,0.0
124,51.0,50.0,180.0,3.0,0.0
125,72.0,360.0,480.0,1.0,0.0
126,39.0,70.0,360.0,5.0,0.0
127,51.0,50.0,180.0,3.0,0.0
128,71.0,430.0,480.0,1.0,0.0
129,39.0,70.0,360.0,5.0,0.0
130,68.0,190.0,960.0,2.0,0.0
131,51.0,50.0,180.0,3.0,0.0
132,39.0,120.0,720.0,5.0,0.0
133,70.0,70.0,840.0,1.0,0.0
134,51.0,50.0,180.0,3.0,0.0
135,67.0,0.0,360.0,2.0,0.0
136,51.0,50.0,180.0,3.0,0.0
137,51.0,480.0,180.0,3.0,0.0
138,37.0,190.0,720.0,5.0,0.0
139,49.0,240.0,180.0,3.0,0.0
140,49.0,50.0,180.0,3.0,0.0
141,70.0,0.0,960.0,2.0,0.0
142,67.0,190.0,960.0,2.0,0.0
143,76.0,0.0,960.0,1.0,0.0
144,49.0,480.0,180.0,3.0,0.0
145,35.0,120.0,720.0,5.0,0.0
146,47.0,50.0,180.0,3.0,0.0
147,75.0,0.0,360.0,1.0,0.0
148,71.0,0.0,360.0,2.0,0.0
149,68.0,70.0,360.0,2.0,0.0
150,47.0,50.0,180.0,3.0,0.0
151,47.0,480.0,180.0,3.0,0.0
152,31.0,120.0,720.0,5.0,0.0
153,43.0,50.0,180.0,3.0,0.0
154,63.0,190.0,120.0,1.0,0.0
155,70.0,70.0,360.0,1.0,0.0
156,43.0,50.0,180.0,3.0,0.0
157,43.0,50.0,180.0,3.0,0.0
158,73.0,60.0,120.0,1.0,0.0
159,71.0,60.0,60.0,1.0,0.0
160,32.0,190.0,720.0,5.0,0.0
161,73.0,60.0,60.0,1.0,0.0
162,71.0,60.0,60.0,1.0,0.0
163,70.0,120.0,60.0,1.0,0.0
164,71.0,70.0,120.0,1.0,0.0
165,44.0,50.0,180.0,3.0,0.0
166,73.0,190.0,120.0,1.0,0.0
167,75.0,430.0,480.0,1.0,0.0
168,44.0,50.0,180.0,3.0,0.0
169,44.0,50.0,180.0,3.0,0.0
170,37.0,190.0,720.0,5.0,0.0
171,49.0,240.0,180.0,3.0,0.0
172,49.0,50.0,180.0,3.0,0.0
173,76.0,0.0,960.0,1.0,0.0
174,70.0,0.0,960.0,2.0,0.0
175,67.0,190.0,960.0,2.0,0.0
176,49.0,480.0,180.0,3.0,0.0
177,35.0,120.0,720.0,5.0,0.0
178,47.0,50.0,180.0,3.0,0.0
179,75.0,0.0,360.0,1.0,0.0
180,47.0,50.0,180.0,3.0,0.0
181,71.0,70.0,360.0,2.0,0.0
182,68.0,0.0,360.0,2.0,0.0
183,47.0,480.0,180.0,3.0,0.0
184,34.0,120.0,720.0,5.0,0.0
185,46.0,50.0,180.0,3.0,0.0
186,73.0,190.0,120.0,1.0,0.0
187,46.0,50.0,180.0,3.0,0.0
188,82.0,70.0,360.0,1.0,0.0
189,46.0,50.0,180.0,3.0,0.0
190,85.0,190.0,120.0,1.0,0.0
191,44.0,120.0,360.0,5.0,0.0
192,83.0,170.0,180.0,1.0,0.0
193,75.0,240.0,240.0,2.0,0.0
194,80.0,192.0,240.0,2.0,0.0
195,71.0,408.0,180.0,2.0,0.0
196,49.0,120.0,360.0,5.0,0.0
197,73.0,240.0,240.0,2.0,0.0
198,76.0,192.0,240.0,2.0,0.0
199,70.0,408.0,180.0,2.0,0.0
200,51.0,120.0,360.0,5.0,0.0
201,71.0,240.0,240.0,2.0,0.0
202,75.0,192.0,240.0,2.0,0.0
203,68.0,408.0,180.0,2.0,0.0
204,39.0,120.0,360.0,5.0,0.0
205,70.0,240.0,240.0,2.0,0.0
206,73.0,192.0,240.0,2.0,0.0
207,67.0,673.0,180.0,2.0,0.0
208,68.0,0.0,630.0,1.0,0.0
209,56.0,575.0,630.0,1.0,0.0
210,71.0,480.0,240.0,1.0,0.0
211,59.0,0.0,240.0,1.0,0.0
212,63.0,0.0,240.0,1.0,0.0
213,75.0,480.0,240.0,1.0,0.0
214,68.0,480.0,240.0,1.0,0.0
215,80.0,0.0,240.0,1.0,0.0
216,83.0,0.0,240.0,1.0,0.0
217,71.0,695.0,240.0,1.0,0.0
218,71.0,105.0,90.0,1.0,0.0
219,71.0,80.0,90.0,1.0,0.0
220,73.0,80.0,90.0,1.0,0.0
221,71.0,120.0,90.0,1.0,0.0
222,70.0,96.0,120.0,1.0,0.0
223,71.0,154.0,90.0,1.0,0.0
224,30.0,0.0,630.0,5.0,0.0
225,76.0,160.0,120.0,1.0,0.0
226,42.0,145.0,630.0,5.0,0.0
227,78.0,160.0,120.0,1.0,0.0
228,80.0,160.0,120.0,1.0,0.0
229,78.0,15.0,120.0,1.0,0.0
230,76.0,160.0,120.0,1.0,0.0
231,75.0,160.0,120.0,1.0,0.0
232,73.0,110.0,120.0,1.0,0.0
233,46.0,50.0,240.0,5.0,0.0
234,34.0,0.0,240.0,5.0,0.0
235,75.0,160.0,120.0,1.0,0.0
236,76.0,160.0,120.0,1.0,0.0
237,49.0,0.0,240.0,5.0,0.0
238,75.0,110.0,120.0,1.0,0.0
239,37.0,50.0,240.0,5.0,0.0
240,73.0,160.0,120.0,1.0,0.0
241,71.0,160.0,120.0,1.0,0.0
242,42.0,50.0,240.0,5.0,0.0
243,54.0,0.0,240.0,5.0,0.0
244,70.0,110.0,120.0,1.0,0.0
245,71.0,160.0,120.0,1.0,0.0
246,73.0,160.0,120.0,1.0,0.0
247,46.0,0.0,240.0,5.0,0.0
248,58.0,50.0,240.0,5.0,0.0
249,71.0,110.0,120.0,1.0,0.0
250,70.0,160.0,120.0,1.0,0.0
251,68.0,160.0,120.0,1.0,0.0
252,66.0,160.0,120.0,1.0,0.0
253,68.0,160.0,120.0,1.0,0.0
254,66.0,160.0,120.0,1.0,0.0
255,64.0,160.0,120.0,1.0,0.0
256,66.0,160.0,120.0,1.0,0.0
257,64.0,510.0,120.0,1.0,0.0
258,63.0,0.0,720.0,1.0,0.0
259,47.0,60.0,720.0,5.0,0.0
260,54.0,240.0,240.0,3.0,0.0
261,51.0,0.0,360.0,3.0,0.0
262,54.0,480.0,240.0,3.0,0.0
263,64.0,60.0,60.0,2.0,0.0
264,63.0,60.0,60.0,2.0,0.0
265,61.0,60.0,60.0,2.0,0.0
266,63.0,0.0,60.0,2.0,0.0
267,64.0,240.0,480.0,1.0,0.0
268,49.0,120.0,720.0,5.0,0.0
269,54.0,0.0,240.0,3.0,0.0
270,52.0,120.0,360.0,3.0,0.0
271,58.0,155.0,480.0,1.0,0.0
272,54.0,0.0,240.0,3.0,0.0
273,51.0,35.0,360.0,5.0,0.0
274,59.0,205.0,150.0,1.0,0.0
275,54.0,360.0,240.0,3.0,0.0
276,63.0,85.0,150.0,1.0,0.0
277,66.0,120.0,720.0,1.0,0.0
278,47.0,120.0,360.0,5.0,0.0
279,54.0,240.0,240.0,3.0,0.0
280,46.0,120.0,360.0,5.0,0.0
281,54.0,0.0,240.0,3.0,0.0
282,65.0,240.0,240.0,1.0,0.0
283,42.0,67.0,360.0,5.0,0.0
284,64.0,120.0,240.0,1.0,0.0
285,62.0,5.0,180.0,1.0,0.0
286,54.0,528.0,180.0,3.0,0.0
287,47.0,60.0,720.0,5.0,0.0
288,63.0,0.0,720.0,1.0,0.0
289,54.0,240.0,240.0,3.0,0.0
290,51.0,0.0,360.0,3.0,0.0
291,64.0,60.0,60.0,2.0,0.0
292,54.0,0.0,240.0,3.0,0.0
293,63.0,60.0,60.0,2.0,0.0
294,61.0,60.0,60.0,2.0,0.0
295,63.0,480.0,60.0,2.0,0.0
296,64.0,0.0,480.0,1.0,0.0
297,49.0,120.0,720.0,5.0,0.0
298,54.0,240.0,240.0,3.0,0.0
299,58.0,0.0,480.0,1.0,0.0
300,52.0,120.0,360.0,3.0,0.0
301,54.0,190.0,240.0,3.0,0.0
302,59.0,170.0,180.0,1.0,0.0
303,51.0,120.0,360.0,5.0,0.0
304,54.0,0.0,240.0,3.0,0.0
305,71.0,240.0,240.0,1.0,0.0
306,47.0,120.0,360.0,5.0,0.0
307,70.0,120.0,240.0,1.0,0.0
308,54.0,0.0,240.0,3.0,0.0
309,68.0,240.0,240.0,1.0,0.0
310,46.0,120.0,360.0,5.0,0.0
311,66.0,120.0,240.0,1.0,0.0
312,54.0,240.0,240.0,3.0,0.0
313,65.0,0.0,240.0,1.0,0.0
314,64.0,120.0,240.0,1.0,0.0
315,42.0,72.0,360.0,5.0,0.0
316,62.0,0.0,180.0,1.0,0.0
317,54.0,528.0,180.0,3.0,0.0
318,63.0,240.0,480.0,1.0,0.0
319,47.0,120.0,720.0,5.0,0.0
320,54.0,0.0,240.0,3.0,0.0
321,66.0,95.0,390.0,1.0,0.0
322,51.0,25.0,360.0,3.0,0.0
323,54.0,360.0,240.0,3.0,0.0
324,46.0,70.0,360.0,5.0,0.0
325,66.0,50.0,180.0,1.0,0.0
326,54.0,190.0,240.0,3.0,0.0
327,66.0,170.0,180.0,1.0,0.0
328,49.0,70.0,360.0,5.0,0.0
329,66.0,50.0,180.0,1.0,0.0
330,54.0,240.0,240.0,3.0,0.0
331,73.0,190.0,240.0,1.0,0.0
332,44.0,120.0,720.0,5.0,0.0
333,54.0,240.0,240.0,3.0,0.0
334,71.0,50.0,180.0,1.0,0.0
335,71.0,95.0,390.0,1.0,0.0
336,51.0,25.0,360.0,3.0,0.0
337,54.0,430.0,240.0,3.0,0.0
338,44.0,120.0,720.0,5.0,0.0
339,71.0,50.0,180.0,1.0,0.0
340,54.0,190.0,240.0,3.0,0.0
341,71.0,50.0,180.0,1.0,0.0
342,51.0,70.0,360.0,3.0,0.0
343,54.0,288.0,180.0,3.0,0.0
344,71.0,2.0,180.0,1.0,0.0
345,53.0,0.0,1920.0,3.0,0.0
346,71.0,120.0,240.0,1.0,0.0
347,44.0,0.0,1920.0,5.0,0.0
348,49.0,480.0,1920.0,3.0,0.0
349,73.0,120.0,120.0,1.0,0.0
350,75.0,155.0,120.0,1.0,0.0
351,73.0,240.0,150.0,1.0,0.0
352,71.0,240.0,150.0,1.0,0.0
353,70.0,240.0,150.0,1.0,0.0
354,68.0,240.0,150.0,1.0,0.0
355,66.0,240.0,150.0,1.0,0.0
356,65.0,85.0,150.0,1.0,0.0
357,68.0,385.0,480.0,1.0,0.0
358,54.0,0.0,480.0,5.0,0.0
359,66.0,95.0,390.0,1.0,0.0
360,58.0,367.0,480.0,4.0,0.0
361,55.0,303.0,360.0,5.0,0.0
362,59.0,0.0,360.0,4.0,0.0
363,71.0,290.0,180.0,1.0,0.0
364,71.0,385.0,240.0,1.0,0.0
365,78.0,575.0,390.0,1.0,0.0
366,58.0,360.0,480.0,4.0,0.0
367,54.0,0.0,480.0,5.0,0.0
368,55.0,303.0,360.0,5.0,0.0
369,59.0,7.0,360.0,4.0,0.0
370,71.0,297.0,180.0,1.0,0.0
371,71.0,378.0,240.0,1.0,0.0
372,78.0,575.0,390.0,1.0,0.0
373,54.0,367.0,480.0,5.0,0.0
374,58.0,0.0,480.0,4.0,0.0
375,59.0,0.0,360.0,4.0,0.0
376,55.0,303.0,360.0,5.0,0.0
377,71.0,290.0,180.0,1.0,0.0
378,71.0,385.0,240.0,1.0,0.0
379,78.0,95.0,390.0,1.0,0.0
380,58.0,190.0,480.0,4.0,0.0
381,54.0,0.0,480.0,5.0,0.0
382,55.0,0.0,480.0,5.0,0.0
383,71.0,290.0,180.0,1.0,0.0
384,59.0,385.0,480.0,4.0,0.0
385,71.0,0.0,240.0,1.0,0.0
386,78.0,95.0,390.0,1.0,0.0
387,54.0,0.0,480.0,5.0,0.0
388,58.0,190.0,480.0,4.0,0.0
389,55.0,0.0,480.0,5.0,0.0
390,71.0,290.0,180.0,1.0,0.0
391,59.0,0.0,480.0,4.0,0.0
392,71.0,360.0,240.0,1.0,0.0
393,58.0,18.0,360.0,4.0,0.0
394,78.0,480.0,390.0,1.0,0.0
395,54.0,7.0,360.0,5.0,0.0
396,78.0,480.0,390.0,1.0,0.0
397,78.0,480.0,390.0,1.0,0.0
398,78.0,335.0,390.0,1.0,0.0
399,78.0,240.0,240.0,1.0,0.0
400,77.0,240.0,240.0,1.0,0.0
401,76.0,192.0,240.0,1.0,0.0
402,73.0,288.0,180.0,1.0,0.0
403,78.0,240.0,240.0,1.0,0.0
404,77.0,240.0,240.0,1.0,0.0
405,76.0,192.0,240.0,1.0,0.0
406,73.0,408.0,180.0,1.0,0.0
407,63.0,120.0,360.0,4.0,0.0
408,71.0,120.0,720.0,1.0,0.0
409,66.0,240.0,240.0,3.0,0.0
410,63.0,0.0,360.0,4.0,0.0
411,73.0,120.0,120.0,1.0,0.0
412,66.0,360.0,240.0,3.0,0.0
413,71.0,0.0,120.0,1.0,0.0
414,61.0,120.0,360.0,4.0,0.0
415,70.0,0.0,480.0,1.0,0.0
416,66.0,360.0,240.0,3.0,0.0
417,63.0,0.0,360.0,4.0,0.0
418,71.0,120.0,360.0,1.0,0.0
419,66.0,360.0,240.0,3.0,0.0
420,63.0,120.0,360.0,4.0,0.0
421,72.0,360.0,960.0,1.0,0.0
422,66.0,360.0,240.0,3.0,0.0
423,63.0,120.0,360.0,4.0,0.0
424,66.0,0.0,240.0,3.0,0.0
425,64.0,7.0,360.0,4.0,0.0
426,73.0,113.0,360.0,1.0,0.0
427,66.0,360.0,240.0,3.0,0.0
428,64.0,72.0,360.0,4.0,0.0
429,66.0,408.0,180.0,3.0,0.0
430,52.0,120.0,720.0,1.0,0.0
431,61.0,120.0,360.0,4.0,0.0
432,66.0,240.0,240.0,3.0,0.0
433,61.0,0.0,360.0,4.0,0.0
434,51.0,120.0,120.0,1.0,0.0
435,66.0,0.0,240.0,3.0,0.0
436,52.0,240.0,120.0,1.0,0.0
437,61.0,120.0,360.0,4.0,0.0
438,54.0,120.0,240.0,1.0,0.0
439,66.0,0.0,240.0,3.0,0.0
440,52.0,240.0,240.0,1.0,0.0
441,51.0,120.0,240.0,1.0,0.0
442,63.0,72.0,360.0,4.0,0.0
443,66.0,360.0,240.0,3.0,0.0
444,49.0,48.0,180.0,1.0,0.0
445,47.0,360.0,960.0,1.0,0.0
446,64.0,120.0,360.0,4.0,0.0
447,66.0,360.0,240.0,3.0,0.0
448,61.0,120.0,360.0,4.0,0.0
449,66.0,0.0,240.0,3.0,0.0
450,64.0,120.0,360.0,4.0,0.0
451,46.0,0.0,480.0,1.0,0.0
452,66.0,360.0,240.0,3.0,0.0
453,61.0,72.0,360.0,4.0,0.0
454,66.0,408.0,180.0,3.0,0.0
455,58.0,120.0,360.0,4.0,0.0
456,73.0,120.0,720.0,1.0,0.0
457,66.0,240.0,240.0,3.0,0.0
458,58.0,0.0,360.0,4.0,0.0
459,75.0,120.0,120.0,1.0,0.0
460,66.0,0.0,240.0,3.0,0.0
461,73.0,360.0,120.0,1.0,0.0
462,56.0,120.0,360.0,4.0,0.0
463,71.0,360.0,480.0,1.0,0.0
464,66.0,0.0,240.0,3.0,0.0
465,73.0,113.0,360.0,1.0,0.0
466,58.0,7.0,360.0,4.0,0.0
467,66.0,360.0,240.0,3.0,0.0
468,74.0,0.0,960.0,1.0,0.0
469,58.0,120.0,360.0,4.0,0.0
470,66.0,360.0,240.0,3.0,0.0
471,58.0,120.0,360.0,4.0,0.0
472,66.0,360.0,240.0,3.0,0.0
473,59.0,120.0,360.0,4.0,0.0
474,75.0,0.0,360.0,1.0,0.0
475,66.0,360.0,240.0,3.0,0.0
476,59.0,72.0,360.0,4.0,0.0
477,66.0,408.0,180.0,3.0,0.0
478,54.0,120.0,720.0,1.0,0.0
479,63.0,120.0,360.0,4.0,0.0
480,66.0,240.0,240.0,3.0,0.0
481,59.0,0.0,360.0,4.0,0.0
482,66.0,0.0,240.0,3.0,0.0
483,53.0,120.0,120.0,1.0,0.0
484,54.0,240.0,120.0,1.0,0.0
485,56.0,120.0,240.0,1.0,0.0
486,63.0,120.0,360.0,4.0,0.0
487,54.0,240.0,240.0,1.0,0.0
488,66.0,0.0,240.0,3.0,0.0
489,59.0,72.0,360.0,4.0,0.0
490,52.0,120.0,240.0,1.0,0.0
491,66.0,360.0,240.0,3.0,0.0
492,51.0,48.0,180.0,1.0,0.0
493,49.0,360.0,960.0,1.0,0.0
494,64.0,120.0,360.0,4.0,0.0
495,66.0,360.0,240.0,3.0,0.0
496,61.0,120.0,360.0,4.0,0.0
497,66.0,0.0,240.0,3.0,0.0
498,47.0,360.0,480.0,1.0,0.0
499,63.0,120.0,360.0,4.0,0.0
500,66.0,0.0,240.0,3.0,0.0
501,59.0,72.0,360.0,4.0,0.0
502,66.0,408.0,180.0,3.0,0.0
503,66.0,7.0,900.0,2.0,0.0
504,59.0,120.0,360.0,4.0,0.0
505,78.0,5.0,900.0,1.0,0.0
506,63.0,360.0,240.0,3.0,0.0
507,59.0,60.0,360.0,4.0,0.0
508,63.0,408.0,180.0,3.0,0.0
509,57.0,120.0,360.0,4.0,0.0
510,67.0,5.0,900.0,2.0,0.0
511,79.0,0.0,900.0,1.0,0.0
512,61.0,360.0,240.0,3.0,0.0
513,57.0,67.0,360.0,4.0,0.0
514,61.0,408.0,180.0,3.0,0.0
515,80.0,0.0,360.0,1.0,0.0
516,68.0,15.0,360.0,2.0,0.0
517,56.0,0.0,360.0,4.0,0.0
518,60.0,465.0,120.0,3.0,0.0
519,69.0,0.0,360.0,2.0,0.0
520,81.0,1440.0,360.0,1.0,0.0
521,60.0,0.0,360.0,3.0,0.0
522,54.0,0.0,360.0,4.0,0.0
523,61.0,0.0,360.0,4.0,0.0
524,52.0,120.0,360.0,5.0,0.0
525,80.0,240.0,240.0,1.0,0.0
526,78.0,240.0,240.0,1.0,0.0
527,76.0,240.0,240.0,1.0,0.0
528,75.0,240.0,240.0,1.0,0.0
529,73.0,240.0,240.0,1.0,0.0
530,75.0,192.0,240.0,1.0,0.0
531,76.0,1008.0,180.0,1.0,0.0
532,71.0,0.0,1440.0,1.0,0.0
533,63.0,480.0,480.0,4.0,0.0
534,54.0,240.0,960.0,5.0,0.0
535,64.0,0.0,960.0,4.0,0.0
536,61.0,0.0,480.0,5.0,0.0
537,75.0,240.0,240.0,1.0,0.0
538,70.0,360.0,480.0,2.0,0.0
539,73.0,0.0,240.0,1.0,0.0
540,56.0,600.0,360.0,5.0,0.0
541,63.0,0.0,360.0,4.0,0.0
542,71.0,0.0,360.0,1.0,0.0
543,71.0,240.0,240.0,1.0,0.0
544,70.0,240.0,240.0,1.0,0.0
545,69.0,240.0,240.0,1.0,0.0
546,68.0,192.0,240.0,1.0,0.0
547,67.0,408.0,180.0,1.0,0.0
548,47.0,120.0,360.0,5.0,0.0
549,66.0,5.0,900.0,1.0,0.0
550,51.0,360.0,240.0,3.0,0.0
551,47.0,67.0,360.0,5.0,0.0
552,51.0,408.0,180.0,3.0,0.0
553,67.0,0.0,900.0,1.0,0.0
554,45.0,120.0,360.0,5.0,0.0
555,55.0,12.0,900.0,2.0,0.0
556,49.0,360.0,240.0,3.0,0.0
557,45.0,60.0,360.0,5.0,0.0
558,49.0,408.0,180.0,3.0,0.0
559,68.0,0.0,480.0,1.0,0.0
560,44.0,120.0,360.0,5.0,0.0
561,56.0,7.0,480.0,2.0,0.0
562,48.0,353.0,240.0,4.0,0.0
563,69.0,0.0,360.0,1.0,0.0
564,42.0,0.0,360.0,5.0,0.0
565,57.0,1236.0,360.0,2.0,0.0
566,40.0,0.0,1920.0,5.0,0.0
567,44.0,0.0,1920.0,4.0,0.0
568,49.0,156.0,1920.0,4.0,0.0
569,68.0,160.0,150.0,1.0,0.0
570,73.0,160.0,150.0,1.0,0.0
571,63.0,160.0,150.0,1.0,0.0
572,64.0,160.0,150.0,1.0,0.0
573,68.0,160.0,150.0,1.0,0.0
574,60.0,160.0,150.0,1.0,0.0
575,61.0,160.0,150.0,1.0,0.0
576,64.0,160.0,150.0,1.0,0.0
577,55.0,160.0,150.0,1.0,0.0
578,56.0,160.0,150.0,1.0,0.0
579,61.0,160.0,150.0,1.0,0.0
580,51.0,4.0,150.0,1.0,0.0
581,52.0,160.0,150.0,1.0,0.0
582,37.0,30.0,7620.0,5.0,0.0
583,25.0,30.0,7650.0,5.0,0.0
584,56.0,160.0,150.0,1.0,0.0
585,48.0,160.0,150.0,1.0,0.0
586,49.0,160.0,150.0,1.0,0.0
587,52.0,160.0,150.0,1.0,0.0
588,43.0,160.0,150.0,1.0,0.0
589,44.0,160.0,150.0,1.0,0.0
590,47.0,160.0,150.0,1.0,0.0
591,39.0,160.0,150.0,1.0,0.0
592,40.0,160.0,150.0,1.0,0.0
593,44.0,160.0,150.0,1.0,0.0
594,36.0,724.0,150.0,1.0,0.0
595,37.0,240.0,720.0,1.0,0.0
596,32.0,240.0,240.0,1.0,0.0
597,40.0,240.0,240.0,1.0,0.0
598,37.0,240.0,240.0,1.0,0.0
599,44.0,240.0,240.0,1.0,0.0
600,40.0,240.0,240.0,1.0,0.0
601,49.0,240.0,240.0,1.0,0.0
602,44.0,240.0,240.0,1.0,0.0
603,52.0,240.0,240.0,1.0,0.0
604,49.0,240.0,240.0,1.0,0.0
605,56.0,240.0,240.0,1.0,0.0
606,52.0,240.0,240.0,1.0,0.0
607,61.0,240.0,240.0,1.0,0.0
608,56.0,240.0,240.0,1.0,0.0
609,64.0,240.0,240.0,1.0,0.0
610,61.0,240.0,240.0,1.0,0.0
611,68.0,240.0,240.0,1.0,0.0
612,64.0,240.0,240.0,1.0,0.0
613,73.0,240.0,240.0,1.0,0.0
614,68.0,240.0,240.0,1.0,0.0
615,76.0,180.0,240.0,1.0,0.0
616,73.0,360.0,240.0,1.0,0.0
617,80.0,480.0,360.0,1.0,0.0
618,61.0,0.0,360.0,4.0,0.0
619,56.0,487.0,360.0,4.0,0.0
620,52.0,0.0,360.0,5.0,0.0
621,83.0,473.0,360.0,1.0,0.0
622,62.0,0.0,360.0,4.0,0.0
623,56.0,473.0,360.0,4.0,0.0
624,53.0,7.0,360.0,5.0,0.0
625,59.0,113.0,360.0,4.0,0.0
626,63.0,0.0,360.0,4.0,0.0
627,54.0,7.0,360.0,5.0,0.0
628,66.0,240.0,240.0,1.0,0.0
629,78.0,240.0,240.0,1.0,0.0
630,77.0,240.0,240.0,1.0,0.0
631,76.0,240.0,240.0,1.0,0.0
632,75.0,240.0,240.0,1.0,0.0
633,74.0,192.0,240.0,1.0,0.0
634,73.0,288.0,180.0,1.0,0.0
635,73.0,192.0,240.0,1.0,0.0
636,71.0,528.0,180.0,1.0,0.0
637,54.0,0.0,1380.0,5.0,0.0
638,63.0,480.0,480.0,3.0,0.0
639,71.0,240.0,960.0,1.0,0.0
640,64.0,5.0,900.0,3.0,0.0
641,70.0,7.0,420.0,2.0,0.0
642,75.0,180.0,240.0,1.0,0.0
643,73.0,408.0,180.0,1.0,0.0
644,71.0,72.0,360.0,1.0,0.0
645,59.0,48.0,720.0,5.0,0.0
646,66.0,288.0,180.0,3.0,0.0
647,63.0,144.0,300.0,3.0,0.0
648,66.0,48.0,180.0,3.0,0.0
649,71.0,240.0,240.0,1.0,0.0
650,58.0,48.0,720.0,5.0,0.0
651,72.0,192.0,240.0,1.0,0.0
652,66.0,0.0,180.0,3.0,0.0
653,73.0,288.0,180.0,1.0,0.0
654,63.0,144.0,300.0,3.0,0.0
655,66.0,48.0,180.0,3.0,0.0
656,73.0,240.0,240.0,1.0,0.0
657,59.0,48.0,720.0,5.0,0.0
658,74.0,192.0,240.0,1.0,0.0
659,75.0,288.0,180.0,1.0,0.0
660,66.0,0.0,180.0,3.0,0.0
661,63.0,144.0,300.0,3.0,0.0
662,66.0,48.0,180.0,3.0,0.0
663,75.0,240.0,240.0,1.0,0.0
664,78.0,192.0,240.0,1.0,0.0
665,49.0,48.0,720.0,5.0,0.0
666,58.0,192.0,300.0,3.0,0.0
667,76.0,96.0,180.0,1.0,0.0
668,52.0,192.0,300.0,3.0,0.0
669,58.0,192.0,300.0,3.0,0.0
670,76.0,48.0,240.0,1.0,0.0
671,51.0,48.0,720.0,5.0,0.0
672,77.0,192.0,240.0,1.0,0.0
673,78.0,0.0,180.0,1.0,0.0
674,59.0,288.0,180.0,3.0,0.0
675,54.0,144.0,300.0,3.0,0.0
676,78.0,240.0,240.0,1.0,0.0
677,59.0,48.0,180.0,3.0,0.0
678,52.0,48.0,720.0,5.0,0.0
679,79.0,192.0,240.0,1.0,0.0
680,59.0,0.0,180.0,3.0,0.0
681,80.0,288.0,180.0,1.0,0.0
682,56.0,144.0,300.0,3.0,0.0
683,83.0,0.0,180.0,1.0,0.0
684,59.0,288.0,180.0,3.0,0.0
685,83.0,192.0,240.0,1.0,0.0
686,54.0,48.0,720.0,5.0,0.0
687,63.0,0.0,180.0,3.0,0.0
688,71.0,288.0,180.0,1.0,0.0
689,59.0,144.0,300.0,3.0,0.0
690,71.0,240.0,960.0,1.0,0.0
691,63.0,480.0,180.0,3.0,0.0
692,54.0,48.0,720.0,5.0,0.0
693,64.0,48.0,180.0,3.0,0.0
694,58.0,144.0,300.0,3.0,0.0
695,75.0,0.0,240.0,1.0,0.0
696,64.0,0.0,180.0,3.0,0.0
697,73.0,203.0,180.0,1.0,0.0
698,71.0,240.0,150.0,1.0,0.0
699,47.0,5.0,720.0,5.0,0.0
700,54.0,138.0,180.0,3.0,0.0
701,71.0,37.0,150.0,1.0,0.0
702,51.0,77.0,300.0,3.0,0.0
703,71.0,80.0,90.0,1.0,0.0
704,73.0,70.0,90.0,1.0,0.0
705,71.0,43.0,90.0,1.0,0.0
706,70.0,67.0,120.0,1.0,0.0
707,54.0,3.0,180.0,3.0,0.0
708,71.0,200.0,60.0,1.0,0.0
709,46.0,0.0,720.0,5.0,0.0
710,73.0,240.0,150.0,1.0,0.0
711,73.0,37.0,150.0,1.0,0.0
712,54.0,133.0,180.0,3.0,0.0
713,73.0,75.0,90.0,1.0,0.0
714,52.0,48.0,180.0,3.0,0.0
715,75.0,32.0,90.0,1.0,0.0
716,73.0,120.0,90.0,1.0,0.0
717,54.0,5.0,180.0,3.0,0.0
718,71.0,70.0,120.0,1.0,0.0
719,73.0,200.0,60.0,1.0,0.0
720,75.0,240.0,150.0,1.0,0.0
721,47.0,44.0,720.0,5.0,0.0
722,75.0,35.0,150.0,1.0,0.0
723,54.0,130.0,180.0,3.0,0.0
724,75.0,85.0,90.0,1.0,0.0
725,51.0,76.0,270.0,3.0,0.0
726,76.0,75.0,90.0,1.0,0.0
727,75.0,0.0,90.0,1.0,0.0
728,54.0,5.0,180.0,3.0,0.0
729,73.0,70.0,120.0,1.0,0.0
730,75.0,200.0,60.0,1.0,0.0
731,76.0,240.0,150.0,1.0,0.0
732,49.0,5.0,720.0,5.0,0.0
733,58.0,135.0,180.0,3.0,0.0
734,76.0,35.0,150.0,1.0,0.0
735,54.0,76.0,270.0,3.0,0.0
736,76.0,70.0,90.0,1.0,0.0
737,78.0,85.0,60.0,1.0,0.0
738,76.0,39.0,90.0,1.0,0.0
739,75.0,70.0,120.0,1.0,0.0
740,58.0,5.0,180.0,3.0,0.0
741,76.0,175.0,60.0,1.0,0.0
742,51.0,90.0,360.0,5.0,0.0
743,54.0,0.0,360.0,4.0,0.0
744,59.0,0.0,360.0,4.0,0.0
745,78.0,160.0,120.0,1.0,0.0
746,80.0,70.0,120.0,1.0,0.0
747,82.0,160.0,120.0,1.0,0.0
748,83.0,160.0,120.0,1.0,0.0
749,82.0,160.0,120.0,1.0,0.0
750,80.0,160.0,120.0,1.0,0.0
751,78.0,160.0,120.0,1.0,0.0
752,76.0,160.0,120.0,1.0,0.0
753,75.0,160.0,120.0,1.0,0.0
754,73.0,160.0,120.0,1.0,0.0
755,71.0,160.0,120.0,1.0,0.0
756,70.0,340.0,120.0,1.0,0.0
757,68.0,480.0,300.0,1.0,0.0
758,76.0,0.0,300.0,2.0,0.0
759,80.0,480.0,300.0,1.0,0.0
760,71.0,0.0,300.0,2.0,0.0
761,52.0,0.0,300.0,5.0,0.0
762,75.0,0.0,300.0,2.0,0.0
763,71.0,0.0,300.0,2.0,0.0
764,54.0,0.0,300.0,5.0,0.0
765,78.0,480.0,300.0,1.0,0.0
766,42.0,0.0,300.0,5.0,0.0
767,70.0,555.0,300.0,1.0,0.0
768,61.0,0.0,300.0,2.0,0.0
769,64.0,0.0,300.0,2.0,0.0
770,71.0,255.0,390.0,1.0,0.0
771,63.0,0.0,390.0,2.0,0.0
772,47.0,0.0,390.0,5.0,0.0
773,78.0,160.0,150.0,1.0,0.0
774,76.0,160.0,150.0,1.0,0.0
775,75.0,160.0,150.0,1.0,0.0
776,73.0,160.0,150.0,1.0,0.0
777,71.0,160.0,150.0,1.0,0.0
778,70.0,160.0,150.0,1.0,0.0
779,59.0,95.0,390.0,5.0,0.0
780,63.0,0.0,390.0,4.0,0.0
781,71.0,160.0,150.0,1.0,0.0
782,69.0,65.0,150.0,1.0,0.0
783,67.0,385.0,150.0,1.0,0.0
784,64.0,255.0,390.0,4.0,0.0
785,59.0,0.0,390.0,5.0,0.0
786,68.0,0.0,390.0,1.0,0.0
787,80.0,160.0,150.0,1.0,0.0
788,78.0,160.0,150.0,1.0,0.0
789,76.0,160.0,150.0,1.0,0.0
790,75.0,160.0,150.0,1.0,0.0
791,73.0,160.0,150.0,1.0,0.0
792,71.0,160.0,150.0,1.0,0.0
793,70.0,160.0,150.0,1.0,0.0
794,64.0,0.0,390.0,4.0,0.0
795,54.0,0.0,390.0,5.0,0.0
796,61.0,95.0,390.0,4.0,0.0
797,76.0,65.0,150.0,1.0,0.0
798,73.0,385.0,150.0,1.0,0.0
799,71.0,255.0,390.0,1.0,0.0
800,59.0,0.0,390.0,5.0,0.0
801,63.0,0.0,390.0,4.0,0.0
802,66.0,160.0,150.0,1.0,0.0
803,64.0,160.0,150.0,1.0,0.0
804,63.0,160.0,150.0,1.0,0.0
805,61.0,160.0,150.0,1.0,0.0
806,59.0,160.0,150.0,1.0,0.0
807,58.0,160.0,150.0,1.0,0.0
808,59.0,160.0,150.0,1.0,0.0
809,51.0,0.0,390.0,4.0,0.0
810,47.0,95.0,390.0,5.0,0.0
811,57.0,65.0,150.0,1.0,0.0
812,55.0,385.0,150.0,1.0,0.0
813,52.0,0.0,390.0,4.0,0.0
814,56.0,0.0,390.0,1.0,0.0
815,47.0,255.0,390.0,5.0,0.0
816,68.0,160.0,150.0,1.0,0.0
817,66.0,160.0,150.0,1.0,0.0
818,64.0,160.0,150.0,1.0,0.0
819,63.0,160.0,150.0,1.0,0.0
820,61.0,160.0,150.0,1.0,0.0
821,59.0,160.0,150.0,1.0,0.0
822,42.0,95.0,390.0,5.0,0.0
823,49.0,0.0,390.0,4.0,0.0
824,58.0,160.0,150.0,1.0,0.0
825,52.0,0.0,390.0,4.0,0.0
826,64.0,65.0,150.0,1.0,0.0
827,61.0,625.0,150.0,1.0,0.0
828,47.0,0.0,960.0,5.0,0.0
829,51.0,240.0,960.0,4.0,0.0
830,59.0,335.0,630.0,1.0,0.0
831,63.0,480.0,240.0,1.0,0.0
832,66.0,480.0,240.0,1.0,0.0
833,71.0,385.0,240.0,1.0,0.0
834,47.0,95.0,630.0,5.0,0.0
835,35.0,0.0,630.0,5.0,0.0
836,75.0,480.0,240.0,1.0,0.0
837,51.0,215.0,240.0,5.0,0.0
838,39.0,0.0,240.0,5.0,0.0
839,75.0,105.0,90.0,1.0,0.0
840,42.0,0.0,240.0,5.0,0.0
841,54.0,120.0,240.0,5.0,0.0
842,75.0,80.0,90.0,1.0,0.0
843,76.0,80.0,90.0,1.0,0.0
844,75.0,0.0,90.0,1.0,0.0
845,73.0,120.0,120.0,1.0,0.0
846,75.0,240.0,120.0,1.0,0.0
847,78.0,240.0,480.0,1.0,0.0
848,59.0,240.0,240.0,5.0,0.0
849,47.0,0.0,240.0,5.0,0.0
850,63.0,0.0,240.0,5.0,0.0
851,51.0,0.0,240.0,5.0,0.0
852,71.0,480.0,240.0,1.0,0.0
853,71.0,480.0,240.0,1.0,0.0
854,71.0,720.0,240.0,1.0,0.0
855,61.0,1345.0,1200.0,4.0,0.0
856,58.0,0.0,1200.0,4.0,0.0
857,76.0,240.0,480.0,1.0,0.0
858,51.0,0.0,1200.0,5.0,0.0
859,67.0,480.0,240.0,1.0,0.0
860,67.0,0.0,240.0,1.0,0.0
861,56.0,0.0,630.0,1.0,0.0
862,32.0,0.0,630.0,5.0,0.0
863,44.0,575.0,630.0,5.0,0.0
864,36.0,0.0,240.0,5.0,0.0
865,48.0,0.0,240.0,5.0,0.0
866,60.0,480.0,240.0,1.0,0.0
867,63.0,0.0,240.0,1.0,0.0
868,39.0,480.0,240.0,5.0,0.0
869,51.0,0.0,240.0,5.0,0.0
870,68.0,0.0,240.0,1.0,0.0
871,56.0,480.0,240.0,5.0,0.0
872,44.0,0.0,240.0,5.0,0.0
873,72.0,696.0,240.0,1.0,0.0
874,60.0,0.0,240.0,5.0,0.0
875,48.0,0.0,240.0,5.0,0.0
876,75.0,104.0,90.0,1.0,0.0
877,75.0,80.0,90.0,1.0,0.0
878,76.0,80.0,90.0,1.0,0.0
879,75.0,120.0,90.0,1.0,0.0
880,73.0,96.0,120.0,1.0,0.0
881,75.0,168.0,90.0,1.0,0.0
882,42.0,159.0,630.0,5.0,0.0
883,78.0,160.0,150.0,1.0,0.0
884,30.0,0.0,630.0,5.0,0.0
885,80.0,160.0,150.0,1.0,0.0
886,81.0,160.0,150.0,1.0,0.0
887,80.0,1.0,150.0,1.0,0.0
888,78.0,160.0,150.0,1.0,0.0
889,76.0,160.0,150.0,1.0,0.0
890,75.0,96.0,150.0,1.0,0.0
891,36.0,0.0,240.0,5.0,0.0
892,48.0,64.0,240.0,5.0,0.0
893,76.0,160.0,150.0,1.0,0.0
894,78.0,160.0,150.0,1.0,0.0
895,51.0,64.0,240.0,5.0,0.0
896,76.0,96.0,150.0,1.0,0.0
897,39.0,0.0,240.0,5.0,0.0
898,75.0,160.0,150.0,1.0,0.0
899,73.0,160.0,150.0,1.0,0.0
900,54.0,64.0,240.0,5.0,0.0
901,72.0,96.0,150.0,1.0,0.0
902,42.0,0.0,240.0,5.0,0.0
903,75.0,160.0,150.0,1.0,0.0
904,72.0,160.0,150.0,1.0,0.0
905,45.0,0.0,240.0,5.0,0.0
906,57.0,64.0,240.0,5.0,0.0
907,69.0,96.0,150.0,1.0,0.0
908,73.0,160.0,150.0,1.0,0.0
909,69.0,160.0,150.0,1.0,0.0
910,66.0,160.0,150.0,1.0,0.0
911,69.0,160.0,150.0,1.0,0.0
912,66.0,160.0,150.0,1.0,0.0
913,63.0,160.0,150.0,1.0,0.0
914,66.0,160.0,150.0,1.0,0.0
915,63.0,496.0,150.0,1.0,0.0
916,64.0,0.0,720.0,1.0,0.0
917,49.0,60.0,720.0,5.0,0.0
918,56.0,240.0,240.0,3.0,0.0
919,52.0,60.0,360.0,3.0,0.0
920,66.0,60.0,60.0,2.0,0.0
921,56.0,0.0,240.0,3.0,0.0
922,64.0,0.0,60.0,2.0,0.0
923,63.0,60.0,60.0,2.0,0.0
924,64.0,480.0,60.0,2.0,0.0
925,66.0,240.0,480.0,1.0,0.0
926,51.0,120.0,720.0,5.0,0.0
927,56.0,0.0,240.0,3.0,0.0
928,54.0,120.0,360.0,3.0,0.0
929,60.0,155.0,480.0,1.0,0.0
930,56.0,0.0,240.0,3.0,0.0
931,61.0,205.0,150.0,1.0,0.0
932,52.0,35.0,360.0,5.0,0.0
933,64.0,85.0,150.0,1.0,0.0
934,56.0,360.0,240.0,3.0,0.0
935,68.0,120.0,720.0,1.0,0.0
936,49.0,120.0,360.0,5.0,0.0
937,56.0,240.0,240.0,3.0,0.0
938,48.0,120.0,360.0,5.0,0.0
939,67.0,0.0,240.0,1.0,0.0
940,56.0,240.0,240.0,3.0,0.0
941,66.0,120.0,240.0,1.0,0.0
942,44.0,60.0,360.0,5.0,0.0
943,56.0,12.0,180.0,3.0,0.0
944,63.0,528.0,180.0,1.0,0.0
945,49.0,60.0,720.0,5.0,0.0
946,64.0,0.0,720.0,1.0,0.0
947,56.0,240.0,240.0,3.0,0.0
948,52.0,60.0,360.0,3.0,0.0
949,66.0,60.0,60.0,2.0,0.0
950,56.0,480.0,240.0,3.0,0.0
951,64.0,0.0,60.0,2.0,0.0
952,63.0,60.0,60.0,2.0,0.0
953,64.0,0.0,60.0,2.0,0.0
954,66.0,0.0,480.0,1.0,0.0
955,51.0,120.0,720.0,5.0,0.0
956,56.0,240.0,240.0,3.0,0.0
957,60.0,0.0,480.0,1.0,0.0
958,54.0,120.0,360.0,3.0,0.0
959,56.0,155.0,240.0,3.0,0.0
960,61.0,205.0,150.0,1.0,0.0
961,52.0,120.0,360.0,5.0,0.0
962,73.0,0.0,240.0,1.0,0.0
963,56.0,240.0,240.0,3.0,0.0
964,71.0,120.0,240.0,1.0,0.0
965,49.0,120.0,360.0,5.0,0.0
966,69.0,0.0,240.0,1.0,0.0
967,56.0,240.0,240.0,3.0,0.0
968,48.0,120.0,360.0,5.0,0.0
969,68.0,120.0,240.0,1.0,0.0
970,56.0,0.0,240.0,3.0,0.0
971,67.0,240.0,240.0,1.0,0.0
972,44.0,67.0,360.0,5.0,0.0
973,66.0,120.0,240.0,1.0,0.0
974,56.0,5.0,180.0,3.0,0.0
975,63.0,352.0,180.0,1.0,0.0
976,49.0,64.0,720.0,5.0,0.0
977,64.0,95.0,630.0,1.0,0.0
978,52.0,160.0,150.0,3.0,0.0
979,56.0,160.0,150.0,3.0,0.0
980,54.0,1.0,150.0,3.0,0.0
981,52.0,160.0,150.0,3.0,0.0
982,51.0,256.0,150.0,3.0,0.0
983,49.0,64.0,720.0,5.0,0.0
984,68.0,64.0,240.0,1.0,0.0
985,52.0,160.0,150.0,3.0,0.0
986,56.0,160.0,150.0,3.0,0.0
987,54.0,96.0,150.0,3.0,0.0
988,73.0,0.0,240.0,1.0,0.0
989,52.0,168.0,150.0,3.0,0.0
990,51.0,248.0,150.0,3.0,0.0
991,49.0,0.0,720.0,5.0,0.0
992,76.0,64.0,240.0,1.0,0.0
993,52.0,160.0,150.0,3.0,0.0
994,56.0,160.0,150.0,3.0,0.0
995,54.0,96.0,150.0,3.0,0.0
996,80.0,64.0,240.0,1.0,0.0
997,52.0,160.0,150.0,3.0,0.0
998,51.0,320.0,150.0,3.0,0.0
999,49.0,144.0,480.0,5.0,0.0
1000,51.0,160.0,150.0,3.0,0.0
1001,49.0,16.0,150.0,3.0,0.0
1002,47.0,160.0,150.0,3.0,0.0
1003,49.0,161.0,150.0,3.0,0.0
1004,47.0,159.0,150.0,3.0,0.0
1005,34.0,0.0,630.0,5.0,0.0
1006,46.0,159.0,630.0,5.0,0.0
1007,80.0,160.0,150.0,2.0,0.0
1008,82.0,160.0,150.0,2.0,0.0
1009,83.0,160.0,150.0,2.0,0.0
1010,82.0,1.0,150.0,2.0,0.0
1011,80.0,160.0,150.0,2.0,0.0
1012,78.0,160.0,150.0,2.0,0.0
1013,38.0,0.0,240.0,5.0,0.0
1014,50.0,64.0,240.0,5.0,0.0
1015,77.0,96.0,150.0,2.0,0.0
1016,78.0,160.0,150.0,2.0,0.0
1017,80.0,160.0,150.0,2.0,0.0
1018,78.0,96.0,150.0,2.0,0.0
1019,53.0,64.0,240.0,5.0,0.0
1020,41.0,0.0,240.0,5.0,0.0
1021,77.0,161.0,150.0,2.0,0.0
1022,75.0,159.0,150.0,2.0,0.0
1023,58.0,64.0,240.0,5.0,0.0
1024,46.0,0.0,240.0,5.0,0.0
1025,74.0,96.0,150.0,2.0,0.0
1026,77.0,160.0,150.0,2.0,0.0
1027,74.0,160.0,150.0,2.0,0.0
1028,71.0,96.0,150.0,2.0,0.0
1029,62.0,64.0,240.0,5.0,0.0
1030,50.0,0.0,240.0,5.0,0.0
1031,77.0,160.0,150.0,2.0,0.0
1032,71.0,160.0,150.0,2.0,0.0
1033,70.0,160.0,150.0,2.0,0.0
1034,77.0,160.0,150.0,2.0,0.0
1035,70.0,160.0,150.0,2.0,0.0
1036,68.0,160.0,150.0,2.0,0.0
1037,77.0,168.0,150.0,2.0,0.0
1038,68.0,312.0,150.0,2.0,0.0
1039,66.0,95.0,630.0,1.0,0.0
1040,51.0,64.0,720.0,5.0,0.0
1041,54.0,160.0,150.0,3.0,0.0
1042,58.0,160.0,150.0,3.0,0.0
1043,56.0,1.0,150.0,3.0,0.0
1044,54.0,160.0,150.0,3.0,0.0
1045,53.0,256.0,150.0,3.0,0.0
1046,70.0,64.0,240.0,1.0,0.0
1047,51.0,0.0,720.0,5.0,0.0
1048,54.0,160.0,150.0,3.0,0.0
1049,58.0,160.0,150.0,3.0,0.0
1050,56.0,96.0,150.0,3.0,0.0
1051,75.0,64.0,240.0,1.0,0.0
1052,54.0,161.0,150.0,3.0,0.0
1053,53.0,255.0,150.0,3.0,0.0
1054,51.0,64.0,720.0,5.0,0.0
1055,78.0,64.0,240.0,1.0,0.0
1056,54.0,160.0,150.0,3.0,0.0
1057,58.0,160.0,150.0,3.0,0.0
1058,56.0,96.0,150.0,3.0,0.0
1059,82.0,0.0,240.0,1.0,0.0
1060,54.0,160.0,150.0,3.0,0.0
1061,53.0,320.0,150.0,3.0,0.0
1062,51.0,104.0,360.0,5.0,0.0
1063,54.0,56.0,150.0,3.0,0.0
1064,58.0,320.0,150.0,3.0,0.0
1065,51.0,97.0,360.0,5.0,0.0
1066,54.0,56.0,150.0,3.0,0.0
1067,58.0,327.0,150.0,3.0,0.0
1068,67.0,159.0,630.0,1.0,0.0
1069,49.0,104.0,360.0,5.0,0.0
1070,55.0,56.0,150.0,3.0,0.0
1071,58.0,161.0,150.0,3.0,0.0
1072,51.0,104.0,360.0,5.0,0.0
1073,55.0,56.0,150.0,3.0,0.0
1074,58.0,256.0,150.0,3.0,0.0
1075,70.0,64.0,240.0,1.0,0.0
1076,52.0,104.0,360.0,5.0,0.0
1077,55.0,56.0,150.0,3.0,0.0
1078,58.0,256.0,150.0,3.0,0.0
1079,73.0,64.0,240.0,1.0,0.0
1080,51.0,112.0,360.0,5.0,0.0
1081,55.0,56.0,150.0,3.0,0.0
1082,58.0,248.0,150.0,3.0,0.0
1083,79.0,64.0,240.0,1.0,0.0
1084,49.0,104.0,360.0,5.0,0.0
1085,55.0,56.0,150.0,3.0,0.0
1086,58.0,256.0,150.0,3.0,0.0
1087,82.0,64.0,240.0,1.0,0.0
1088,51.0,104.0,360.0,5.0,0.0
1089,55.0,56.0,150.0,3.0,0.0
1090,58.0,320.0,150.0,3.0,0.0
1091,52.0,104.0,360.0,5.0,0.0
1092,55.0,56.0,150.0,3.0,0.0
1093,58.0,320.0,150.0,3.0,0.0
1094,49.0,112.0,360.0,5.0,0.0
1095,55.0,56.0,150.0,3.0,0.0
1096,58.0,312.0,150.0,3.0,0.0
1097,68.0,159.0,630.0,1.0,0.0
1098,47.0,104.0,360.0,5.0,0.0
1099,51.0,56.0,150.0,3.0,0.0
1100,56.0,161.0,150.0,3.0,0.0
1101,49.0,104.0,360.0,5.0,0.0
1102,52.0,56.0,150.0,3.0,0.0
1103,56.0,256.0,150.0,3.0,0.0
1104,47.0,104.0,360.0,5.0,0.0
1105,71.0,64.0,240.0,1.0,0.0
1106,51.0,56.0,150.0,3.0,0.0
1107,56.0,256.0,150.0,3.0,0.0
1108,46.0,105.0,360.0,5.0,0.0
1109,75.0,64.0,240.0,1.0,0.0
1110,49.0,56.0,150.0,3.0,0.0
1111,56.0,255.0,150.0,3.0,0.0
1112,47.0,104.0,360.0,5.0,0.0
1113,80.0,64.0,240.0,1.0,0.0
1114,51.0,56.0,150.0,3.0,0.0
1115,56.0,256.0,150.0,3.0,0.0
1116,46.0,104.0,360.0,5.0,0.0
1117,83.0,64.0,240.0,1.0,0.0
1118,49.0,56.0,150.0,3.0,0.0
1119,56.0,320.0,150.0,3.0,0.0
1120,47.0,104.0,360.0,5.0,0.0
1121,51.0,56.0,150.0,3.0,0.0
1122,56.0,320.0,150.0,3.0,0.0
1123,44.0,97.0,360.0,5.0,0.0
1124,47.0,56.0,150.0,3.0,0.0
1125,51.0,327.0,150.0,3.0,0.0
1126,43.0,104.0,360.0,5.0,0.0
1127,70.0,159.0,630.0,1.0,0.0
1128,58.0,0.0,630.0,1.0,0.0
1129,46.0,56.0,150.0,3.0,0.0
1130,51.0,161.0,150.0,3.0,0.0
1131,44.0,104.0,360.0,5.0,0.0
1132,46.0,56.0,150.0,3.0,0.0
1133,51.0,256.0,150.0,3.0,0.0
1134,61.0,64.0,240.0,1.0,0.0
1135,43.0,104.0,360.0,5.0,0.0
1136,73.0,0.0,240.0,1.0,0.0
1137,46.0,56.0,150.0,3.0,0.0
1138,51.0,256.0,150.0,3.0,0.0
1139,41.0,105.0,360.0,5.0,0.0
1140,75.0,64.0,240.0,1.0,0.0
1141,63.0,0.0,240.0,1.0,0.0
1142,46.0,56.0,150.0,3.0,0.0
1143,51.0,255.0,150.0,3.0,0.0
1144,43.0,104.0,360.0,5.0,0.0
1145,70.0,0.0,240.0,1.0,0.0
1146,82.0,64.0,240.0,1.0,0.0
1147,46.0,56.0,150.0,3.0,0.0
1148,51.0,250.0,150.0,3.0,0.0
1149,39.0,0.0,240.0,5.0,0.0
1150,73.0,0.0,240.0,1.0,0.0
1151,85.0,1398.0,240.0,1.0,0.0
1152,73.0,480.0,180.0,1.0,0.0
1153,76.0,1128.0,180.0,1.0,0.0
1154,67.0,0.0,840.0,1.0,0.0
1155,58.0,312.0,840.0,5.0,0.0
1156,70.0,480.0,180.0,1.0,0.0
1157,73.0,1128.0,180.0,1.0,0.0
1158,64.0,312.0,840.0,1.0,0.0
1159,55.0,0.0,840.0,5.0,0.0
1160,67.0,480.0,180.0,1.0,0.0
1161,70.0,480.0,180.0,1.0,0.0
1162,58.0,480.0,180.0,1.0,0.0
1163,61.0,2208.0,180.0,1.0,0.0
1164,31.0,7.0,2400.0,5.0,0.0
1165,43.0,2058.0,2400.0,5.0,0.0
1166,46.0,0.0,2400.0,2.0,0.0
1167,49.0,0.0,2400.0,2.0,0.0
1168,52.0,480.0,1920.0,1.0,0.0
1169,51.0,0.0,480.0,1.0,0.0
1170,56.0,575.0,630.0,1.0,0.0
1171,44.0,0.0,630.0,5.0,0.0
1172,32.0,0.0,630.0,5.0,0.0
1173,35.0,0.0,240.0,5.0,0.0
1174,47.0,480.0,240.0,5.0,0.0
1175,59.0,0.0,240.0,1.0,0.0
1176,63.0,480.0,240.0,1.0,0.0
1177,39.0,0.0,240.0,5.0,0.0
1178,51.0,0.0,240.0,5.0,0.0
1179,44.0,480.0,240.0,5.0,0.0
1180,56.0,0.0,240.0,5.0,0.0
1181,68.0,0.0,240.0,1.0,0.0
1182,71.0,0.0,240.0,1.0,0.0
1183,59.0,680.0,240.0,5.0,0.0
1184,47.0,0.0,240.0,5.0,0.0
1185,71.0,120.0,90.0,1.0,0.0
1186,71.0,80.0,90.0,1.0,0.0
1187,73.0,80.0,90.0,1.0,0.0
1188,71.0,120.0,90.0,1.0,0.0
1189,70.0,96.0,120.0,1.0,0.0
1190,71.0,504.0,90.0,1.0,0.0
1191,75.0,156.0,480.0,1.0,0.0
1192,59.0,0.0,150.0,5.0,0.0
1193,63.0,0.0,150.0,4.0,0.0
1194,68.0,480.0,150.0,4.0,0.0
1195,59.0,0.0,150.0,5.0,0.0
1196,68.0,0.0,150.0,4.0,0.0
1197,63.0,480.0,150.0,4.0,0.0
1198,59.0,0.0,150.0,5.0,0.0
1199,68.0,0.0,150.0,4.0,0.0
1200,63.0,804.0,150.0,4.0,0.0
1201,76.0,156.0,480.0,1.0,0.0
1202,58.0,0.0,150.0,5.0,0.0
1203,64.0,0.0,150.0,4.0,0.0
1204,61.0,480.0,150.0,4.0,0.0
1205,67.0,0.0,150.0,4.0,0.0
1206,64.0,0.0,150.0,4.0,0.0
1207,61.0,0.0,150.0,4.0,0.0
1208,67.0,0.0,150.0,4.0,0.0
1209,58.0,1429.0,150.0,5.0,0.0
1210,27.0,0.0,630.0,5.0,0.0
1211,51.0,0.0,630.0,1.0,0.0
1212,39.0,575.0,630.0,5.0,0.0
1213,55.0,480.0,240.0,1.0,0.0
1214,31.0,0.0,240.0,5.0,0.0
1215,43.0,0.0,240.0,5.0,0.0
1216,34.0,0.0,240.0,5.0,0.0
1217,46.0,480.0,240.0,5.0,0.0
1218,58.0,0.0,240.0,1.0,0.0
1219,63.0,0.0,240.0,1.0,0.0
1220,39.0,480.0,240.0,5.0,0.0
1221,51.0,0.0,240.0,5.0,0.0
1222,55.0,695.0,240.0,5.0,0.0
1223,43.0,0.0,240.0,5.0,0.0
1224,67.0,0.0,240.0,1.0,0.0
1225,70.0,105.0,90.0,1.0,0.0
1226,70.0,80.0,90.0,1.0,0.0
1227,71.0,80.0,90.0,1.0,0.0
1228,70.0,120.0,90.0,1.0,0.0
1229,68.0,96.0,120.0,1.0,0.0
1230,70.0,504.0,90.0,1.0,0.0
1231,73.0,156.0,480.0,1.0,0.0
1232,64.0,0.0,150.0,4.0,0.0
1233,58.0,0.0,150.0,5.0,0.0
1234,61.0,0.0,150.0,4.0,0.0
1235,67.0,480.0,150.0,4.0,0.0
1236,64.0,480.0,150.0,4.0,0.0
1237,58.0,0.0,150.0,5.0,0.0
1238,67.0,0.0,150.0,4.0,0.0
1239,61.0,0.0,150.0,4.0,0.0
1240,58.0,0.0,150.0,5.0,0.0
1241,64.0,0.0,150.0,4.0,0.0
1242,61.0,0.0,150.0,4.0,0.0
1243,67.0,804.0,150.0,4.0,0.0
1244,75.0,156.0,480.0,1.0,0.0
1245,59.0,0.0,150.0,5.0,0.0
1246,68.0,0.0,150.0,4.0,0.0
1247,63.0,480.0,150.0,4.0,0.0
1248,68.0,1164.0,150.0,4.0,0.0
1249,59.0,0.0,150.0,5.0,0.0
1250,63.0,0.0,150.0,4.0,0.0
1251,63.0,10.0,1380.0,1.0,0.0
1252,39.0,70.0,360.0,5.0,0.0
1253,51.0,410.0,180.0,3.0,0.0
1254,39.0,70.0,360.0,5.0,0.0
1255,51.0,410.0,180.0,3.0,0.0
1256,39.0,60.0,360.0,5.0,0.0
1257,51.0,410.0,180.0,3.0,0.0
1258,39.0,70.0,360.0,5.0,0.0
1259,63.0,360.0,480.0,2.0,0.0
1260,71.0,0.0,960.0,1.0,0.0
1261,51.0,50.0,180.0,3.0,0.0
1262,62.0,360.0,480.0,2.0,0.0
1263,39.0,70.0,360.0,5.0,0.0
1264,51.0,50.0,180.0,3.0,0.0
1265,70.0,0.0,960.0,1.0,0.0
1266,39.0,70.0,360.0,5.0,0.0
1267,61.0,360.0,480.0,2.0,0.0
1268,51.0,50.0,180.0,3.0,0.0
1269,39.0,70.0,360.0,5.0,0.0
1270,60.0,360.0,480.0,2.0,0.0
1271,51.0,50.0,180.0,3.0,0.0
1272,68.0,360.0,960.0,1.0,0.0
1273,59.0,360.0,480.0,2.0,0.0
1274,39.0,70.0,360.0,5.0,0.0
1275,51.0,50.0,180.0,3.0,0.0
1276,58.0,0.0,840.0,2.0,0.0
1277,39.0,70.0,360.0,5.0,0.0
1278,51.0,50.0,180.0,3.0,0.0
1279,67.0,70.0,360.0,1.0,0.0
1280,39.0,0.0,360.0,5.0,0.0
1281,51.0,410.0,180.0,3.0,0.0
1282,39.0,70.0,360.0,5.0,0.0
1283,51.0,410.0,180.0,3.0,0.0
1284,75.0,360.0,480.0,1.0,0.0
1285,39.0,70.0,360.0,5.0,0.0
1286,71.0,360.0,960.0,2.0,0.0
1287,51.0,50.0,180.0,3.0,0.0
1288,74.0,0.0,480.0,1.0,0.0
1289,39.0,70.0,360.0,5.0,0.0
1290,51.0,50.0,180.0,3.0,0.0
1291,39.0,70.0,360.0,5.0,0.0
1292,73.0,360.0,480.0,1.0,0.0
1293,70.0,0.0,960.0,2.0,0.0
1294,51.0,50.0,180.0,3.0,0.0
1295,72.0,360.0,480.0,1.0,0.0
1296,39.0,70.0,360.0,5.0,0.0
1297,51.0,50.0,180.0,3.0,0.0
1298,39.0,70.0,360.0,5.0,0.0
1299,71.0,430.0,480.0,1.0,0.0
1300,68.0,190.0,960.0,2.0,0.0
1301,51.0,50.0,180.0,3.0,0.0
1302,39.0,120.0,720.0,5.0,0.0
1303,70.0,7.0,840.0,1.0,0.0
1304,51.0,50.0,180.0,3.0,0.0
1305,51.0,50.0,180.0,3.0,0.0
1306,67.0,63.0,360.0,2.0,0.0
1307,51.0,480.0,180.0,3.0,0.0
1308,37.0,190.0,720.0,5.0,0.0
1309,49.0,240.0,180.0,3.0,0.0
1310,70.0,0.0,960.0,2.0,0.0
1311,49.0,50.0,180.0,3.0,0.0
1312,76.0,190.0,960.0,1.0,0.0
1313,67.0,0.0,960.0,2.0,0.0
1314,49.0,480.0,180.0,3.0,0.0
1315,35.0,120.0,720.0,5.0,0.0
1316,47.0,50.0,180.0,3.0,0.0
1317,71.0,0.0,360.0,2.0,0.0
1318,68.0,70.0,360.0,2.0,0.0
1319,47.0,50.0,180.0,3.0,0.0
1320,75.0,0.0,360.0,1.0,0.0
1321,47.0,480.0,180.0,3.0,0.0
1322,31.0,120.0,720.0,5.0,0.0
1323,43.0,50.0,180.0,3.0,0.0
1324,63.0,190.0,120.0,1.0,0.0
1325,43.0,50.0,180.0,3.0,0.0
1326,70.0,70.0,360.0,1.0,0.0
1327,43.0,26.0,180.0,3.0,0.0
1328,73.0,84.0,90.0,1.0,0.0
1329,32.0,190.0,720.0,5.0,0.0
1330,71.0,60.0,60.0,1.0,0.0
1331,73.0,60.0,60.0,1.0,0.0
1332,71.0,60.0,60.0,1.0,0.0
1333,70.0,120.0,60.0,1.0,0.0
1334,71.0,70.0,120.0,1.0,0.0
1335,44.0,50.0,180.0,3.0,0.0
1336,73.0,190.0,120.0,1.0,0.0
1337,75.0,430.0,480.0,1.0,0.0
1338,44.0,50.0,180.0,3.0,0.0
1339,44.0,50.0,180.0,3.0,0.0
1340,37.0,190.0,720.0,5.0,0.0
1341,49.0,240.0,180.0,3.0,0.0
1342,49.0,50.0,180.0,3.0,0.0
1343,67.0,0.0,960.0,2.0,0.0
1344,70.0,0.0,960.0,2.0,0.0
1345,76.0,190.0,960.0,1.0,0.0
1346,49.0,480.0,180.0,3.0,0.0
1347,35.0,120.0,720.0,5.0,0.0
1348,47.0,50.0,180.0,3.0,0.0
1349,47.0,50.0,180.0,3.0,0.0
1350,75.0,0.0,360.0,1.0,0.0
1351,71.0,70.0,360.0,2.0,0.0
1352,68.0,0.0,360.0,2.0,0.0
1353,47.0,480.0,180.0,3.0,0.0
1354,34.0,120.0,720.0,5.0,0.0
1355,46.0,50.0,180.0,3.0,0.0
1356,73.0,190.0,120.0,1.0,0.0
1357,82.0,70.0,360.0,1.0,0.0
1358,46.0,50.0,180.0,3.0,0.0
1359,46.0,50.0,180.0,3.0,0.0
1360,85.0,190.0,120.0,1.0,0.0
1361,44.0,120.0,360.0,5.0,0.0
1362,83.0,170.0,180.0,1.0,0.0
1363,75.0,240.0,240.0,2.0,0.0
1364,80.0,192.0,240.0,2.0,0.0
1365,71.0,408.0,180.0,2.0,0.0
1366,49.0,120.0,360.0,5.0,0.0
1367,73.0,240.0,240.0,2.0,0.0
1368,76.0,192.0,240.0,2.0,0.0
1369,70.0,408.0,180.0,2.0,0.0
1370,51.0,120.0,360.0,5.0,0.0
1371,71.0,240.0,240.0,2.0,0.0
1372,75.0,192.0,240.0,2.0,0.0
1373,68.0,408.0,180.0,2.0,0.0
1374,39.0,120.0,360.0,5.0,0.0
1375,70.0,240.0,240.0,2.0,0.0
1376,73.0,192.0,240.0,2.0,0.0
1377,67.0,673.0,180.0,2.0,0.0
1378,68.0,575.0,630.0,1.0,0.0
1379,56.0,95.0,630.0,5.0,0.0
1380,71.0,385.0,240.0,1.0,0.0
1381,75.0,480.0,240.0,1.0,0.0
1382,59.0,0.0,240.0,5.0,0.0
1383,80.0,480.0,240.0,1.0,0.0
1384,63.0,0.0,240.0,5.0,0.0
1385,83.0,480.0,240.0,1.0,0.0
1386,40.0,0.0,630.0,5.0,0.0
1387,76.0,385.0,240.0,1.0,0.0
1388,68.0,0.0,240.0,2.0,0.0
1389,28.0,95.0,630.0,5.0,0.0
1390,71.0,0.0,240.0,2.0,0.0
1391,80.0,480.0,240.0,1.0,0.0
1392,32.0,0.0,240.0,5.0,0.0
1393,44.0,0.0,240.0,5.0,0.0
1394,73.0,480.0,240.0,1.0,0.0
1395,64.0,0.0,240.0,2.0,0.0
1396,49.0,480.0,240.0,5.0,0.0
1397,68.0,0.0,240.0,2.0,0.0
1398,37.0,0.0,240.0,5.0,0.0
1399,76.0,0.0,240.0,1.0,0.0
1400,69.0,0.0,240.0,1.0,0.0
1401,61.0,385.0,240.0,2.0,0.0
1402,40.0,95.0,630.0,5.0,0.0
1403,52.0,0.0,630.0,5.0,0.0
1404,64.0,720.0,240.0,2.0,0.0
1405,73.0,0.0,240.0,1.0,0.0
1406,68.0,240.0,1440.0,1.0,0.0
1407,62.0,240.0,240.0,3.0,0.0
1408,59.0,240.0,240.0,3.0,0.0
1409,62.0,480.0,240.0,3.0,0.0
1410,52.0,0.0,720.0,5.0,0.0
1411,62.0,0.0,240.0,3.0,0.0
1412,59.0,120.0,240.0,3.0,0.0
1413,76.0,72.0,360.0,1.0,0.0
1414,62.0,528.0,180.0,3.0,0.0
1415,52.0,0.0,720.0,5.0,0.0
1416,76.0,0.0,720.0,1.0,0.0
1417,61.0,240.0,240.0,3.0,0.0
1418,57.0,240.0,240.0,3.0,0.0
1419,73.0,0.0,240.0,1.0,0.0
1420,61.0,360.0,240.0,3.0,0.0
1421,52.0,192.0,720.0,5.0,0.0
1422,69.0,120.0,360.0,1.0,0.0
1423,61.0,240.0,240.0,3.0,0.0
1424,57.0,0.0,240.0,3.0,0.0
1425,61.0,528.0,180.0,3.0,0.0
1426,52.0,0.0,720.0,5.0,0.0
1427,68.0,240.0,1200.0,1.0,0.0
1428,62.0,240.0,240.0,3.0,0.0
1429,59.0,240.0,240.0,3.0,0.0
1430,62.0,240.0,240.0,3.0,0.0
1431,52.0,0.0,720.0,5.0,0.0
1432,76.0,0.0,240.0,1.0,0.0
1433,62.0,240.0,240.0,3.0,0.0
1434,78.0,192.0,240.0,1.0,0.0
1435,59.0,0.0,240.0,3.0,0.0
1436,62.0,0.0,180.0,3.0,0.0
1437,76.0,528.0,180.0,1.0,0.0
1438,52.0,0.0,720.0,5.0,0.0
1439,76.0,0.0,720.0,1.0,0.0
1440,61.0,240.0,240.0,3.0,0.0
1441,57.0,240.0,240.0,3.0,0.0
1442,61.0,0.0,240.0,3.0,0.0
1443,73.0,367.0,240.0,1.0,0.0
1444,69.0,113.0,360.0,1.0,0.0
1445,52.0,0.0,720.0,5.0,0.0
1446,61.0,240.0,240.0,3.0,0.0
1447,69.0,233.0,720.0,1.0,0.0
1448,57.0,192.0,240.0,3.0,0.0
1449,61.0,295.0,180.0,3.0,0.0
1450,53.0,0.0,1920.0,5.0,0.0
1451,62.0,360.0,1920.0,3.0,0.0
1452,59.0,0.0,1920.0,3.0,0.0
1453,56.0,0.0,1920.0,3.0,0.0
1454,67.0,240.0,240.0,1.0,0.0
1455,68.0,240.0,240.0,1.0,0.0
1456,70.0,240.0,240.0,1.0,0.0
1457,73.0,240.0,240.0,1.0,0.0
1458,71.0,240.0,240.0,1.0,0.0
1459,70.0,240.0,240.0,1.0,0.0
1460,68.0,0.0,240.0,1.0,0.0
1461,75.0,600.0,360.0,1.0,0.0
1462,55.0,360.0,480.0,4.0,0.0
1463,51.0,0.0,480.0,5.0,0.0
1464,56.0,0.0,360.0,4.0,0.0
1465,52.0,312.0,360.0,5.0,0.0
1466,68.0,288.0,180.0,1.0,0.0
1467,68.0,360.0,240.0,1.0,0.0
1468,75.0,600.0,360.0,1.0,0.0
1469,55.0,0.0,480.0,4.0,0.0
1470,51.0,360.0,480.0,5.0,0.0
1471,52.0,305.0,360.0,5.0,0.0
1472,56.0,7.0,360.0,4.0,0.0
1473,68.0,288.0,180.0,1.0,0.0
1474,68.0,385.0,240.0,1.0,0.0
1475,51.0,192.0,480.0,5.0,0.0
1476,75.0,95.0,390.0,1.0,0.0
1477,55.0,0.0,480.0,4.0,0.0
1478,68.0,288.0,180.0,1.0,0.0
1479,56.0,0.0,480.0,4.0,0.0
1480,52.0,0.0,480.0,5.0,0.0
1481,68.0,385.0,240.0,1.0,0.0
1482,75.0,95.0,390.0,1.0,0.0
1483,51.0,192.0,480.0,5.0,0.0
1484,55.0,0.0,480.0,4.0,0.0
1485,52.0,0.0,480.0,5.0,0.0
1486,68.0,288.0,180.0,1.0,0.0
1487,56.0,0.0,480.0,4.0,0.0
1488,68.0,367.0,240.0,1.0,0.0
1489,55.0,18.0,360.0,4.0,0.0
1490,75.0,480.0,390.0,1.0,0.0
1491,51.0,0.0,360.0,5.0,0.0
1492,75.0,480.0,390.0,1.0,0.0
1493,75.0,480.0,390.0,1.0,0.0
1494,75.0,335.0,390.0,1.0,0.0
1495,75.0,240.0,240.0,1.0,0.0
1496,74.0,240.0,240.0,1.0,0.0
1497,73.0,192.0,240.0,1.0,0.0
1498,70.0,288.0,180.0,1.0,0.0
1499,75.0,240.0,240.0,1.0,0.0
1500,74.0,240.0,240.0,1.0,0.0
1501,73.0,192.0,240.0,1.0,0.0
1502,70.0,408.0,180.0,1.0,0.0
1503,68.0,120.0,720.0,1.0,0.0
1504,59.0,120.0,360.0,4.0,0.0
1505,63.0,240.0,240.0,3.0,0.0
1506,59.0,120.0,360.0,4.0,0.0
1507,70.0,0.0,120.0,1.0,0.0
1508,63.0,360.0,240.0,3.0,0.0
1509,68.0,0.0,120.0,1.0,0.0
1510,67.0,0.0,480.0,1.0,0.0
1511,58.0,120.0,360.0,4.0,0.0
1512,63.0,360.0,240.0,3.0,0.0
1513,68.0,120.0,360.0,1.0,0.0
1514,59.0,0.0,360.0,4.0,0.0
1515,63.0,360.0,240.0,3.0,0.0
1516,60.0,120.0,360.0,4.0,0.0
1517,69.0,352.0,960.0,1.0,0.0
1518,63.0,360.0,240.0,3.0,0.0
1519,60.0,120.0,360.0,4.0,0.0
1520,63.0,0.0,240.0,3.0,0.0
1521,70.0,8.0,360.0,1.0,0.0
1522,61.0,120.0,360.0,4.0,0.0
1523,63.0,360.0,240.0,3.0,0.0
1524,61.0,72.0,360.0,4.0,0.0
1525,63.0,408.0,180.0,3.0,0.0
1526,58.0,120.0,360.0,4.0,0.0
1527,49.0,120.0,720.0,1.0,0.0
1528,63.0,240.0,240.0,3.0,0.0
1529,58.0,0.0,360.0,4.0,0.0
1530,48.0,120.0,120.0,1.0,0.0
1531,63.0,0.0,240.0,3.0,0.0
1532,49.0,240.0,120.0,1.0,0.0
1533,58.0,120.0,360.0,4.0,0.0
1534,51.0,120.0,240.0,1.0,0.0
1535,63.0,240.0,240.0,3.0,0.0
1536,49.0,0.0,240.0,1.0,0.0
1537,59.0,72.0,360.0,4.0,0.0
1538,47.0,120.0,240.0,1.0,0.0
1539,46.0,48.0,180.0,1.0,0.0
1540,63.0,360.0,240.0,3.0,0.0
1541,44.0,0.0,960.0,1.0,0.0
1542,61.0,120.0,360.0,4.0,0.0
1543,63.0,360.0,240.0,3.0,0.0
1544,58.0,120.0,360.0,4.0,0.0
1545,63.0,360.0,240.0,3.0,0.0
1546,61.0,120.0,360.0,4.0,0.0
1547,43.0,360.0,480.0,1.0,0.0
1548,63.0,0.0,240.0,3.0,0.0
1549,58.0,72.0,360.0,4.0,0.0
1550,63.0,408.0,180.0,3.0,0.0
1551,70.0,60.0,720.0,1.0,0.0
1552,55.0,120.0,360.0,4.0,0.0
1553,63.0,240.0,240.0,3.0,0.0
1554,55.0,0.0,360.0,4.0,0.0
1555,63.0,360.0,240.0,3.0,0.0
1556,71.0,60.0,60.0,2.0,0.0
1557,70.0,60.0,60.0,2.0,0.0
1558,68.0,60.0,60.0,2.0,0.0
1559,70.0,0.0,60.0,2.0,0.0
1560,56.0,120.0,360.0,4.0,0.0
1561,71.0,360.0,480.0,1.0,0.0
1562,63.0,0.0,240.0,3.0,0.0
1563,58.0,7.0,360.0,4.0,0.0
1564,73.0,113.0,360.0,1.0,0.0
1565,63.0,360.0,240.0,3.0,0.0
1566,74.0,360.0,960.0,1.0,0.0
1567,58.0,120.0,360.0,4.0,0.0
1568,63.0,360.0,240.0,3.0,0.0
1569,58.0,120.0,360.0,4.0,0.0
1570,63.0,0.0,240.0,3.0,0.0
1571,59.0,0.0,360.0,4.0,0.0
1572,75.0,120.0,360.0,1.0,0.0
1573,63.0,360.0,240.0,3.0,0.0
1574,59.0,72.0,360.0,4.0,0.0
1575,63.0,408.0,180.0,3.0,0.0
1576,51.0,120.0,720.0,1.0,0.0
1577,59.0,120.0,360.0,4.0,0.0
1578,63.0,240.0,240.0,3.0,0.0
1579,56.0,0.0,360.0,4.0,0.0
1580,63.0,240.0,240.0,3.0,0.0
1581,50.0,120.0,120.0,1.0,0.0
1582,51.0,0.0,120.0,1.0,0.0
1583,59.0,120.0,360.0,4.0,0.0
1584,52.0,120.0,240.0,1.0,0.0
1585,63.0,240.0,240.0,3.0,0.0
1586,51.0,0.0,240.0,1.0,0.0
1587,49.0,120.0,240.0,1.0,0.0
1588,56.0,72.0,360.0,4.0,0.0
1589,47.0,48.0,180.0,1.0,0.0
1590,63.0,360.0,240.0,3.0,0.0
1591,46.0,360.0,960.0,1.0,0.0
1592,61.0,120.0,360.0,4.0,0.0
1593,63.0,360.0,240.0,3.0,0.0
1594,58.0,120.0,360.0,4.0,0.0
1595,63.0,0.0,240.0,3.0,0.0
1596,59.0,120.0,360.0,4.0,0.0
1597,44.0,360.0,480.0,1.0,0.0
1598,63.0,0.0,240.0,3.0,0.0
1599,56.0,72.0,360.0,4.0,0.0
1600,63.0,363.0,180.0,3.0,0.0
1601,68.0,7.0,900.0,2.0,0.0
1602,59.0,165.0,300.0,4.0,0.0
1603,80.0,0.0,900.0,1.0,0.0
1604,56.0,322.0,480.0,5.0,0.0
1605,63.0,0.0,240.0,3.0,0.0
1606,59.0,98.0,330.0,4.0,0.0
1607,56.0,5.0,420.0,5.0,0.0
1608,63.0,370.0,180.0,3.0,0.0
1609,60.0,158.0,330.0,4.0,0.0
1610,81.0,5.0,900.0,1.0,0.0
1611,54.0,0.0,480.0,5.0,0.0
1612,69.0,7.0,900.0,2.0,0.0
1613,63.0,322.0,240.0,3.0,0.0
1614,54.0,0.0,420.0,5.0,0.0
1615,60.0,98.0,330.0,4.0,0.0
1616,63.0,288.0,180.0,3.0,0.0
1617,53.0,53.0,360.0,5.0,0.0
1618,68.0,7.0,360.0,2.0,0.0
1619,56.0,120.0,240.0,4.0,0.0
1620,80.0,0.0,360.0,1.0,0.0
1621,61.0,420.0,180.0,3.0,0.0
1622,83.0,0.0,360.0,1.0,0.0
1623,56.0,0.0,360.0,4.0,0.0
1624,71.0,0.0,360.0,2.0,0.0
1625,62.0,0.0,360.0,3.0,0.0
1626,52.0,600.0,360.0,5.0,0.0
1627,83.0,240.0,240.0,1.0,0.0
1628,82.0,240.0,240.0,1.0,0.0
1629,80.0,240.0,240.0,1.0,0.0
1630,79.0,240.0,240.0,1.0,0.0
1631,82.0,367.0,240.0,1.0,0.0
1632,55.0,367.0,480.0,4.0,0.0
1633,51.0,0.0,480.0,5.0,0.0
1634,73.0,113.0,360.0,1.0,0.0
1635,58.0,0.0,360.0,4.0,0.0
1636,55.0,113.0,360.0,5.0,0.0
1637,76.0,240.0,240.0,1.0,0.0
1638,75.0,240.0,240.0,1.0,0.0
1639,73.0,240.0,240.0,1.0,0.0
1640,72.0,240.0,240.0,1.0,0.0
1641,75.0,367.0,240.0,1.0,0.0
1642,66.0,113.0,360.0,1.0,0.0
1643,48.0,0.0,480.0,4.0,0.0
1644,44.0,360.0,480.0,5.0,0.0
1645,51.0,0.0,360.0,4.0,0.0
1646,48.0,120.0,360.0,5.0,0.0
1647,69.0,240.0,240.0,1.0,0.0
1648,68.0,240.0,240.0,1.0,0.0
1649,66.0,240.0,240.0,1.0,0.0
1650,49.0,113.0,360.0,5.0,0.0
1651,64.0,127.0,240.0,1.0,0.0
1652,76.0,240.0,240.0,1.0,0.0
1653,75.0,240.0,240.0,1.0,0.0
1654,73.0,240.0,240.0,1.0,0.0
1655,71.0,240.0,240.0,1.0,0.0
1656,70.0,240.0,240.0,1.0,0.0
1657,71.0,192.0,240.0,1.0,0.0
1658,73.0,1008.0,180.0,1.0,0.0
1659,51.0,413.0,1860.0,5.0,0.0
1660,68.0,240.0,1440.0,1.0,0.0
1661,63.0,0.0,480.0,4.0,0.0
1662,59.0,480.0,480.0,4.0,0.0
1663,58.0,8.0,900.0,4.0,0.0
1664,61.0,7.0,900.0,4.0,0.0
1665,71.0,172.0,240.0,1.0,0.0
1666,67.0,0.0,420.0,2.0,0.0
1667,70.0,0.0,180.0,1.0,0.0
1668,56.0,7.0,900.0,2.0,0.0
1669,47.0,120.0,360.0,4.0,0.0
1670,68.0,8.0,900.0,1.0,0.0
1671,51.0,0.0,240.0,3.0,0.0
1672,47.0,52.0,360.0,4.0,0.0
1673,44.0,360.0,15.0,5.0,0.0
1674,51.0,408.0,180.0,3.0,0.0
1675,57.0,12.0,900.0,2.0,0.0
1676,48.0,120.0,360.0,4.0,0.0
1677,69.0,0.0,900.0,1.0,0.0
1678,51.0,360.0,240.0,3.0,0.0
1679,42.0,0.0,15.0,5.0,0.0
1680,48.0,60.0,360.0,4.0,0.0
1681,51.0,408.0,180.0,3.0,0.0
1682,68.0,360.0,480.0,1.0,0.0
1683,56.0,0.0,480.0,2.0,0.0
1684,44.0,60.0,360.0,4.0,0.0
1685,41.0,53.0,420.0,5.0,0.0
1686,49.0,7.0,180.0,3.0,0.0
1687,44.0,0.0,360.0,4.0,0.0
1688,59.0,585.0,360.0,2.0,0.0
1689,40.0,0.0,360.0,5.0,0.0
1690,71.0,15.0,360.0,1.0,0.0
1691,50.0,0.0,360.0,3.0,0.0
1692,71.0,240.0,240.0,1.0,0.0
1693,70.0,240.0,240.0,1.0,0.0
1694,68.0,240.0,240.0,1.0,0.0
1695,67.0,240.0,240.0,1.0,0.0
1696,70.0,367.0,240.0,1.0,0.0
1697,61.0,113.0,360.0,1.0,0.0
1698,39.0,0.0,480.0,5.0,0.0
1699,43.0,360.0,480.0,4.0,0.0
1700,43.0,7.0,360.0,5.0,0.0
1701,46.0,113.0,360.0,4.0,0.0
1702,64.0,240.0,240.0,1.0,0.0
1703,63.0,240.0,240.0,1.0,0.0
1704,61.0,240.0,240.0,1.0,0.0
1705,60.0,240.0,240.0,1.0,0.0
1706,63.0,360.0,240.0,1.0,0.0
1707,54.0,120.0,360.0,1.0,0.0
1708,36.0,367.0,480.0,4.0,0.0
1709,32.0,0.0,480.0,5.0,0.0
1710,39.0,0.0,360.0,4.0,0.0
1711,36.0,113.0,360.0,5.0,0.0
1712,57.0,240.0,240.0,1.0,0.0
1713,56.0,187.0,240.0,1.0,0.0
1714,54.0,209.0,180.0,1.0,0.0
1715,37.0,42.0,7650.0,5.0,0.0
1716,25.0,3.0,7620.0,5.0,0.0
1717,52.0,160.0,150.0,1.0,0.0
1718,56.0,160.0,150.0,1.0,0.0
1719,48.0,160.0,150.0,1.0,0.0
1720,49.0,160.0,150.0,1.0,0.0
1721,52.0,160.0,150.0,1.0,0.0
1722,43.0,160.0,150.0,1.0,0.0
1723,44.0,160.0,150.0,1.0,0.0
1724,47.0,160.0,150.0,1.0,0.0
1725,39.0,160.0,150.0,1.0,0.0
1726,40.0,160.0,150.0,1.0,0.0
1727,44.0,148.0,150.0,1.0,0.0
1728,36.0,166.0,150.0,1.0,0.0
1729,37.0,154.0,150.0,1.0,0.0
1730,32.0,160.0,150.0,1.0,0.0
1731,37.0,160.0,150.0,1.0,0.0
1732,40.0,160.0,150.0,1.0,0.0
1733,37.0,160.0,150.0,1.0,0.0
1734,40.0,160.0,150.0,1.0,0.0
1735,44.0,160.0,150.0,1.0,0.0
1736,40.0,160.0,150.0,1.0,0.0
1737,44.0,160.0,150.0,1.0,0.0
1738,49.0,160.0,150.0,1.0,0.0
1739,44.0,160.0,150.0,1.0,0.0
1740,49.0,160.0,150.0,1.0,0.0
1741,52.0,160.0,150.0,1.0,0.0
1742,49.0,160.0,150.0,1.0,0.0
1743,52.0,160.0,150.0,1.0,0.0
1744,56.0,160.0,150.0,1.0,0.0
1745,52.0,160.0,150.0,1.0,0.0
1746,56.0,160.0,150.0,1.0,0.0
1747,61.0,160.0,150.0,1.0,0.0
1748,56.0,160.0,150.0,1.0,0.0
1749,61.0,160.0,150.0,1.0,0.0
1750,64.0,160.0,150.0,1.0,0.0
1751,61.0,160.0,150.0,1.0,0.0
1752,64.0,160.0,150.0,1.0,0.0
1753,68.0,160.0,150.0,1.0,0.0
1754,64.0,160.0,150.0,1.0,0.0
1755,68.0,160.0,150.0,1.0,0.0
1756,73.0,160.0,150.0,1.0,0.0
1757,68.0,160.0,150.0,1.0,0.0
1758,73.0,160.0,150.0,1.0,0.0
1759,76.0,160.0,150.0,1.0,0.0
1760,73.0,160.0,150.0,1.0,0.0
1761,76.0,226.0,150.0,1.0,0.0
1762,80.0,225.0,210.0,1.0,0.0
1763,75.0,240.0,240.0,1.0,0.0
1764,76.0,240.0,240.0,1.0,0.0
1765,72.0,240.0,240.0,1.0,0.0
1766,73.0,240.0,240.0,1.0,0.0
1767,69.0,240.0,240.0,1.0,0.0
1768,70.0,240.0,240.0,1.0,0.0
1769,76.0,240.0,240.0,1.0,0.0
1770,73.0,192.0,240.0,1.0,0.0
1771,70.0,415.0,180.0,1.0,0.0
1772,59.0,113.0,360.0,4.0,0.0
1773,56.0,0.0,360.0,4.0,0.0
1774,51.0,0.0,360.0,5.0,0.0
1775,63.0,240.0,240.0,1.0,0.0
1776,75.0,240.0,240.0,1.0,0.0
1777,74.0,240.0,240.0,1.0,0.0
1778,73.0,240.0,240.0,1.0,0.0
1779,72.0,240.0,240.0,1.0,0.0
1780,71.0,192.0,240.0,1.0,0.0
1781,70.0,288.0,180.0,1.0,0.0
1782,51.0,3.0,1860.0,5.0,0.0
1783,70.0,120.0,240.0,1.0,0.0
1784,59.0,70.0,360.0,4.0,0.0
1785,63.0,2.0,180.0,3.0,0.0
1786,68.0,408.0,180.0,1.0,0.0
1787,68.0,240.0,960.0,1.0,0.0
1788,59.0,70.0,360.0,4.0,0.0
1789,63.0,410.0,180.0,3.0,0.0
1790,61.0,70.0,360.0,4.0,0.0
1791,63.0,50.0,180.0,3.0,0.0
1792,67.0,398.0,450.0,2.0,0.0
1793,61.0,67.0,360.0,4.0,0.0
1794,71.0,120.0,240.0,1.0,0.0
1795,70.0,10.0,180.0,1.0,0.0
1796,63.0,2.0,180.0,3.0,0.0
1797,68.0,70.0,360.0,1.0,0.0
1798,56.0,120.0,720.0,5.0,0.0
1799,63.0,290.0,180.0,3.0,0.0
1800,59.0,70.0,360.0,3.0,0.0
1801,68.0,240.0,240.0,1.0,0.0
1802,63.0,50.0,180.0,3.0,0.0
1803,55.0,120.0,720.0,5.0,0.0
1804,69.0,190.0,240.0,1.0,0.0
1805,70.0,288.0,180.0,1.0,0.0
1806,63.0,2.0,180.0,3.0,0.0
1807,61.0,70.0,360.0,3.0,0.0
1808,63.0,50.0,180.0,3.0,0.0
1809,70.0,240.0,240.0,1.0,0.0
1810,73.0,190.0,240.0,1.0,0.0
1811,56.0,120.0,720.0,5.0,0.0
1812,63.0,2.0,180.0,3.0,0.0
1813,71.0,288.0,180.0,1.0,0.0
1814,59.0,70.0,360.0,3.0,0.0
1815,63.0,50.0,180.0,3.0,0.0
1816,71.0,240.0,240.0,1.0,0.0
1817,46.0,120.0,720.0,5.0,0.0
1818,72.0,190.0,240.0,1.0,0.0
1819,73.0,288.0,180.0,1.0,0.0
1820,55.0,2.0,180.0,3.0,0.0
1821,49.0,70.0,360.0,3.0,0.0
1822,73.0,240.0,240.0,1.0,0.0
1823,55.0,50.0,180.0,3.0,0.0
1824,47.0,72.0,360.0,5.0,0.0
1825,74.0,120.0,240.0,1.0,0.0
1826,56.0,360.0,240.0,3.0,0.0
1827,75.0,48.0,180.0,1.0,0.0
1828,48.0,120.0,360.0,5.0,0.0
1829,75.0,240.0,240.0,1.0,0.0
1830,56.0,0.0,240.0,3.0,0.0
1831,49.0,72.0,360.0,5.0,0.0
1832,78.0,120.0,240.0,1.0,0.0
1833,56.0,360.0,240.0,3.0,0.0
1834,76.0,48.0,180.0,1.0,0.0
1835,50.0,72.0,360.0,5.0,0.0
1836,59.0,48.0,180.0,3.0,0.0
1837,80.0,240.0,240.0,1.0,0.0
1838,80.0,190.0,240.0,1.0,0.0
1839,51.0,120.0,720.0,5.0,0.0
1840,59.0,2.0,180.0,3.0,0.0
1841,68.0,288.0,180.0,1.0,0.0
1842,68.0,240.0,960.0,1.0,0.0
1843,56.0,70.0,360.0,3.0,0.0
1844,59.0,480.0,180.0,3.0,0.0
1845,51.0,120.0,720.0,5.0,0.0
1846,61.0,50.0,180.0,3.0,0.0
1847,71.0,0.0,240.0,1.0,0.0
1848,58.0,70.0,360.0,3.0,0.0
1849,70.0,203.0,180.0,1.0,0.0
1850,61.0,2.0,180.0,3.0,0.0
1851,44.0,0.0,720.0,5.0,0.0
1852,68.0,240.0,150.0,1.0,0.0
1853,51.0,130.0,180.0,3.0,0.0
1854,68.0,35.0,150.0,1.0,0.0
1855,47.0,70.0,360.0,3.0,0.0
1856,68.0,80.0,90.0,1.0,0.0
1857,70.0,80.0,90.0,1.0,0.0
1858,68.0,120.0,90.0,1.0,0.0
1859,67.0,0.0,120.0,1.0,0.0
1860,51.0,26.0,180.0,3.0,0.0
1861,68.0,179.0,90.0,1.0,0.0
1862,43.0,120.0,720.0,5.0,0.0
1863,70.0,240.0,150.0,1.0,0.0
1864,70.0,35.0,150.0,1.0,0.0
1865,51.0,130.0,180.0,3.0,0.0
1866,70.0,80.0,90.0,1.0,0.0
1867,49.0,50.0,180.0,3.0,0.0
1868,71.0,30.0,90.0,1.0,0.0
1869,70.0,0.0,90.0,1.0,0.0
1870,68.0,70.0,120.0,1.0,0.0
1871,51.0,26.0,180.0,3.0,0.0
1872,70.0,179.0,90.0,1.0,0.0
1873,44.0,0.0,720.0,5.0,0.0
1874,71.0,240.0,150.0,1.0,0.0
1875,51.0,130.0,180.0,3.0,0.0
1876,71.0,35.0,150.0,1.0,0.0
1877,47.0,0.0,360.0,3.0,0.0
1878,71.0,80.0,90.0,1.0,0.0
1879,73.0,80.0,90.0,1.0,0.0
1880,71.0,120.0,90.0,1.0,0.0
1881,51.0,26.0,180.0,3.0,0.0
1882,70.0,70.0,120.0,1.0,0.0
1883,71.0,179.0,90.0,1.0,0.0
1884,73.0,240.0,150.0,1.0,0.0
1885,46.0,120.0,720.0,5.0,0.0
1886,55.0,130.0,180.0,3.0,0.0
1887,73.0,35.0,150.0,1.0,0.0
1888,73.0,80.0,90.0,1.0,0.0
1889,51.0,70.0,360.0,3.0,0.0
1890,75.0,80.0,90.0,1.0,0.0
1891,73.0,0.0,90.0,1.0,0.0
1892,71.0,0.0,120.0,1.0,0.0
1893,55.0,26.0,180.0,3.0,0.0
1894,73.0,166.0,90.0,1.0,0.0
1895,75.0,160.0,150.0,1.0,0.0
1896,47.0,102.0,360.0,5.0,0.0
1897,56.0,310.0,1920.0,3.0,0.0
1898,80.0,58.0,150.0,1.0,0.0
1899,78.0,160.0,150.0,1.0,0.0
1900,76.0,160.0,150.0,1.0,0.0
1901,75.0,160.0,150.0,1.0,0.0
1902,73.0,160.0,150.0,1.0,0.0
1903,71.0,160.0,150.0,1.0,0.0
1904,70.0,160.0,150.0,1.0,0.0
1905,68.0,160.0,150.0,1.0,0.0
1906,48.0,0.0,480.0,5.0,0.0
1907,66.0,160.0,150.0,1.0,0.0
1908,64.0,163.0,150.0,1.0,0.0
1909,63.0,15.0,150.0,1.0,0.0
1910,64.0,0.0,300.0,1.0,0.0
1911,49.0,480.0,300.0,5.0,0.0
1912,56.0,0.0,300.0,2.0,0.0
1913,49.0,0.0,300.0,5.0,0.0
1914,76.0,480.0,300.0,1.0,0.0
1915,68.0,0.0,300.0,2.0,0.0
1916,73.0,0.0,300.0,2.0,0.0
1917,51.0,480.0,300.0,5.0,0.0
1918,68.0,0.0,300.0,2.0,0.0
1919,71.0,0.0,300.0,2.0,0.0
1920,75.0,0.0,300.0,1.0,0.0
1921,58.0,555.0,300.0,2.0,0.0
1922,39.0,0.0,300.0,5.0,0.0
1923,61.0,0.0,300.0,2.0,0.0
1924,67.0,0.0,300.0,1.0,0.0
1925,68.0,255.0,390.0,1.0,0.0
1926,59.0,0.0,390.0,2.0,0.0
1927,44.0,0.0,390.0,5.0,0.0
1928,75.0,160.0,150.0,1.0,0.0
1929,74.0,160.0,150.0,1.0,0.0
1930,76.0,160.0,150.0,1.0,0.0
1931,75.0,160.0,150.0,1.0,0.0
1932,73.0,160.0,150.0,1.0,0.0
1933,71.0,160.0,150.0,1.0,0.0
1934,70.0,160.0,150.0,1.0,0.0
1935,56.0,95.0,390.0,5.0,0.0
1936,59.0,0.0,390.0,4.0,0.0
1937,71.0,65.0,150.0,1.0,0.0
1938,68.0,385.0,150.0,1.0,0.0
1939,51.0,0.0,390.0,5.0,0.0
1940,58.0,255.0,390.0,4.0,0.0
1941,67.0,0.0,390.0,1.0,0.0
1942,61.0,0.0,390.0,4.0,0.0
1943,73.0,160.0,150.0,1.0,0.0
1944,72.0,160.0,150.0,1.0,0.0
1945,75.0,160.0,150.0,1.0,0.0
1946,73.0,160.0,150.0,1.0,0.0
1947,71.0,160.0,150.0,1.0,0.0
1948,70.0,160.0,150.0,1.0,0.0
1949,58.0,0.0,390.0,4.0,0.0
1950,61.0,0.0,390.0,4.0,0.0
1951,68.0,160.0,150.0,1.0,0.0
1952,51.0,95.0,390.0,5.0,0.0
1953,67.0,65.0,150.0,1.0,0.0
1954,70.0,385.0,150.0,1.0,0.0
1955,68.0,255.0,390.0,1.0,0.0
1956,56.0,0.0,390.0,5.0,0.0
1957,59.0,0.0,390.0,4.0,0.0
1958,75.0,160.0,150.0,1.0,0.0
1959,74.0,160.0,150.0,1.0,0.0
1960,76.0,160.0,150.0,1.0,0.0
1961,75.0,160.0,150.0,1.0,0.0
1962,73.0,160.0,150.0,1.0,0.0
1963,71.0,160.0,150.0,1.0,0.0
1964,44.0,95.0,390.0,5.0,0.0
1965,70.0,160.0,150.0,1.0,0.0
1966,47.0,0.0,390.0,4.0,0.0
1967,71.0,65.0,150.0,1.0,0.0
1968,68.0,187.0,150.0,1.0,0.0
1969,76.0,124.0,180.0,1.0,0.0
1970,39.0,0.0,1920.0,5.0,0.0
1971,49.0,0.0,1920.0,4.0,0.0
1972,46.0,0.0,1920.0,4.0,0.0
1973,43.0,18.0,1920.0,4.0,0.0
1974,75.0,162.0,150.0,1.0,0.0
1975,73.0,163.0,150.0,1.0,0.0
1976,71.0,163.0,150.0,1.0,0.0
1977,70.0,163.0,150.0,1.0,0.0
1978,68.0,162.0,150.0,1.0,0.0
1979,67.0,163.0,150.0,1.0,0.0
1980,64.0,163.0,180.0,1.0,0.0
1981,63.0,163.0,180.0,1.0,0.0
1982,61.0,162.0,180.0,1.0,0.0
1983,59.0,145.0,180.0,1.0,0.0
1984,58.0,607.0,180.0,1.0,0.0
1985,32.0,0.0,630.0,5.0,0.0
1986,56.0,233.0,960.0,1.0,0.0
1987,44.0,342.0,630.0,5.0,0.0
1988,35.0,0.0,240.0,5.0,0.0
1989,47.0,480.0,240.0,5.0,0.0
1990,51.0,0.0,240.0,5.0,0.0
1991,39.0,480.0,240.0,5.0,0.0
1992,44.0,0.0,240.0,5.0,0.0
1993,68.0,95.0,630.0,1.0,0.0
1994,56.0,385.0,240.0,5.0,0.0
1995,47.0,0.0,240.0,5.0,0.0
1996,59.0,480.0,240.0,5.0,0.0
1997,71.0,480.0,240.0,1.0,0.0
1998,75.0,480.0,240.0,1.0,0.0
1999,40.0,95.0,630.0,5.0,0.0
2000,28.0,0.0,630.0,5.0,0.0
2001,80.0,385.0,240.0,1.0,0.0
2002,83.0,480.0,240.0,1.0,0.0
2003,32.0,480.0,240.0,5.0,0.0
2004,44.0,0.0,240.0,5.0,0.0
2005,35.0,480.0,240.0,5.0,0.0
2006,47.0,0.0,240.0,5.0,0.0
2007,52.0,385.0,240.0,5.0,0.0
2008,40.0,0.0,240.0,5.0,0.0
2009,64.0,95.0,630.0,1.0,0.0
2010,56.0,0.0,240.0,5.0,0.0
2011,44.0,480.0,240.0,5.0,0.0
2012,68.0,480.0,240.0,1.0,0.0
2013,71.0,480.0,240.0,1.0,0.0
2014,77.0,385.0,240.0,1.0,0.0
2015,38.0,0.0,630.0,5.0,0.0
2016,26.0,95.0,630.0,5.0,0.0
2017,80.0,480.0,240.0,1.0,0.0
2018,41.0,0.0,240.0,5.0,0.0
2019,29.0,384.0,240.0,5.0,0.0
2020,80.0,96.0,150.0,1.0,0.0
2021,44.0,0.0,240.0,5.0,0.0
2022,32.0,64.0,240.0,5.0,0.0
2023,83.0,161.0,150.0,1.0,0.0
2024,80.0,159.0,150.0,1.0,0.0
2025,38.0,0.0,240.0,5.0,0.0
2026,50.0,64.0,240.0,5.0,0.0
2027,77.0,96.0,150.0,1.0,0.0
2028,80.0,160.0,150.0,1.0,0.0
2029,77.0,160.0,150.0,1.0,0.0
2030,74.0,96.0,150.0,1.0,0.0
2031,53.0,64.0,240.0,5.0,0.0
2032,41.0,0.0,240.0,5.0,0.0
2033,77.0,160.0,150.0,1.0,0.0
2034,74.0,160.0,150.0,1.0,0.0
2035,71.0,96.0,150.0,1.0,0.0
2036,56.0,0.0,240.0,5.0,0.0
2037,44.0,64.0,240.0,5.0,0.0
2038,74.0,160.0,150.0,1.0,0.0
2039,71.0,160.0,150.0,1.0,0.0
2040,47.0,0.0,240.0,5.0,0.0
2041,68.0,96.0,150.0,1.0,0.0
2042,59.0,64.0,240.0,5.0,0.0
2043,71.0,153.0,150.0,1.0,0.0
2044,68.0,327.0,150.0,1.0,0.0
2045,63.0,0.0,360.0,1.0,0.0
2046,51.0,104.0,360.0,5.0,0.0
2047,56.0,56.0,150.0,3.0,0.0
2048,59.0,320.0,150.0,3.0,0.0
2049,75.0,120.0,960.0,1.0,0.0
2050,51.0,104.0,360.0,5.0,0.0
2051,56.0,56.0,150.0,3.0,0.0
2052,59.0,320.0,150.0,3.0,0.0
2053,51.0,104.0,360.0,5.0,0.0
2054,56.0,56.0,150.0,3.0,0.0
2055,59.0,16.0,150.0,3.0,0.0
2056,51.0,0.0,360.0,5.0,0.0
2057,73.0,120.0,120.0,1.0,0.0
2058,71.0,64.0,120.0,1.0,0.0
2059,56.0,56.0,150.0,3.0,0.0
2060,70.0,96.0,120.0,1.0,0.0
2061,59.0,101.0,150.0,3.0,0.0
2062,68.0,1.0,90.0,1.0,0.0
2063,51.0,38.0,360.0,5.0,0.0
2064,70.0,80.0,90.0,1.0,0.0
2065,71.0,80.0,90.0,2.0,0.0
2066,55.0,14.0,150.0,3.0,0.0
2067,70.0,66.0,90.0,2.0,0.0
2068,71.0,42.0,90.0,2.0,0.0
2069,70.0,66.0,90.0,2.0,0.0
2070,61.0,14.0,150.0,3.0,0.0
2071,71.0,80.0,90.0,2.0,0.0
2072,51.0,38.0,360.0,5.0,0.0
2073,70.0,80.0,90.0,2.0,0.0
2074,71.0,80.0,90.0,2.0,0.0
2075,55.0,14.0,150.0,3.0,0.0
2076,70.0,66.0,90.0,2.0,0.0
2077,71.0,42.0,90.0,2.0,0.0
2078,61.0,14.0,150.0,3.0,0.0
2079,70.0,66.0,90.0,2.0,0.0
2080,71.0,80.0,90.0,2.0,0.0
2081,51.0,38.0,360.0,5.0,0.0
2082,70.0,80.0,90.0,2.0,0.0
2083,71.0,80.0,90.0,2.0,0.0
2084,70.0,66.0,90.0,2.0,0.0
2085,55.0,14.0,150.0,3.0,0.0
2086,71.0,42.0,90.0,2.0,0.0
2087,70.0,66.0,90.0,2.0,0.0
2088,61.0,14.0,150.0,3.0,0.0
2089,71.0,80.0,90.0,2.0,0.0
2090,70.0,80.0,90.0,2.0,0.0
2091,51.0,15.0,360.0,5.0,0.0
2092,71.0,80.0,90.0,2.0,0.0
2093,55.0,56.0,150.0,3.0,0.0
2094,70.0,66.0,90.0,2.0,0.0
2095,68.0,90.0,120.0,2.0,0.0
2096,61.0,7.0,150.0,3.0,0.0
2097,70.0,9.0,120.0,2.0,0.0
2098,56.0,319.0,15.0,5.0,0.0
2099,68.0,130.0,150.0,2.0,0.0
2100,80.0,350.0,120.0,2.0,0.0
2101,55.0,320.0,480.0,5.0,0.0
2102,67.0,144.0,150.0,2.0,0.0
2103,79.0,16.0,150.0,2.0,0.0
2104,56.0,79.0,390.0,5.0,0.0
2105,68.0,65.0,150.0,2.0,0.0
2106,80.0,336.0,150.0,2.0,0.0
2107,51.0,320.0,480.0,5.0,0.0
2108,63.0,130.0,150.0,2.0,0.0
2109,75.0,30.0,120.0,2.0,0.0
2110,52.0,320.0,480.0,5.0,0.0
2111,64.0,144.0,150.0,2.0,0.0
2112,76.0,16.0,150.0,2.0,0.0
2113,51.0,320.0,480.0,5.0,0.0
2114,63.0,144.0,150.0,2.0,0.0
2115,75.0,16.0,150.0,2.0,0.0
2116,52.0,79.0,390.0,5.0,0.0
2117,64.0,65.0,150.0,2.0,0.0
2118,76.0,336.0,150.0,2.0,0.0
2119,47.0,320.0,480.0,5.0,0.0
2120,59.0,137.0,150.0,2.0,0.0
2121,71.0,23.0,150.0,2.0,0.0
2122,49.0,320.0,480.0,5.0,0.0
2123,61.0,137.0,150.0,2.0,0.0
2124,73.0,23.0,150.0,2.0,0.0
2125,50.0,320.0,480.0,5.0,0.0
2126,62.0,145.0,150.0,2.0,0.0
2127,74.0,15.0,150.0,2.0,0.0
2128,51.0,72.0,390.0,5.0,0.0
2129,63.0,65.0,150.0,2.0,0.0
2130,75.0,343.0,150.0,2.0,0.0
2131,39.0,320.0,480.0,5.0,0.0
2132,51.0,137.0,150.0,2.0,0.0
2133,63.0,23.0,150.0,2.0,0.0
2134,44.0,320.0,480.0,5.0,0.0
2135,56.0,144.0,150.0,2.0,0.0
2136,68.0,16.0,150.0,2.0,0.0
2137,43.0,320.0,480.0,5.0,0.0
2138,55.0,144.0,150.0,2.0,0.0
2139,67.0,16.0,150.0,2.0,0.0
2140,44.0,79.0,390.0,5.0,0.0
2141,56.0,65.0,150.0,2.0,0.0
2142,68.0,336.0,150.0,2.0,0.0
2143,39.0,320.0,480.0,5.0,0.0
2144,51.0,137.0,150.0,2.0,0.0
2145,63.0,23.0,150.0,2.0,0.0
2146,40.0,320.0,480.0,5.0,0.0
2147,52.0,144.0,150.0,2.0,0.0
2148,64.0,16.0,150.0,2.0,0.0
2149,39.0,320.0,480.0,5.0,0.0
2150,51.0,144.0,150.0,2.0,0.0
2151,63.0,16.0,150.0,2.0,0.0
2152,40.0,79.0,390.0,5.0,0.0
2153,52.0,65.0,150.0,2.0,0.0
2154,64.0,336.0,150.0,2.0,0.0
2155,35.0,320.0,480.0,5.0,0.0
2156,47.0,152.0,150.0,2.0,0.0
2157,59.0,8.0,150.0,2.0,0.0
2158,37.0,320.0,480.0,5.0,0.0
2159,49.0,144.0,150.0,2.0,0.0
2160,61.0,16.0,150.0,2.0,0.0
2161,38.0,320.0,480.0,5.0,0.0
2162,50.0,144.0,150.0,2.0,0.0
2163,62.0,16.0,150.0,2.0,0.0
2164,39.0,79.0,390.0,5.0,0.0
2165,51.0,65.0,150.0,2.0,0.0
2166,63.0,331.0,150.0,2.0,0.0
2167,27.0,360.0,480.0,5.0,0.0
2168,39.0,135.0,150.0,2.0,0.0
2169,51.0,30.0,120.0,2.0,0.0
2170,32.0,120.0,360.0,5.0,0.0
2171,47.0,160.0,150.0,2.0,0.0
2172,51.0,160.0,150.0,2.0,0.0
2173,47.0,160.0,150.0,2.0,0.0
2174,44.0,160.0,150.0,2.0,0.0
2175,51.0,160.0,150.0,2.0,0.0
2176,47.0,160.0,150.0,2.0,0.0
2177,44.0,160.0,150.0,2.0,0.0
2178,27.0,320.0,480.0,5.0,0.0
2179,49.0,160.0,150.0,2.0,0.0
2180,46.0,137.0,150.0,2.0,0.0
2181,43.0,23.0,150.0,2.0,0.0
2182,32.0,160.0,480.0,5.0,0.0
2183,39.0,160.0,150.0,2.0,0.0
2184,47.0,160.0,150.0,2.0,0.0
2185,44.0,160.0,150.0,2.0,0.0
2186,39.0,160.0,150.0,2.0,0.0
2187,47.0,160.0,150.0,2.0,0.0
2188,44.0,160.0,150.0,2.0,0.0
2189,39.0,160.0,150.0,2.0,0.0
2190,46.0,160.0,150.0,2.0,0.0
2191,27.0,480.0,480.0,5.0,0.0
2192,43.0,160.0,150.0,2.0,0.0
2193,39.0,0.0,150.0,2.0,0.0
2194,44.0,960.0,480.0,2.0,0.0
2195,32.0,0.0,480.0,5.0,0.0
2196,44.0,0.0,480.0,2.0,0.0
2197,32.0,1440.0,480.0,5.0,0.0
2198,39.0,0.0,480.0,3.0,0.0
2199,35.0,0.0,480.0,3.0,0.0
2200,32.0,0.0,960.0,5.0,0.0
2201,39.0,0.0,960.0,3.0,0.0
2202,44.0,3120.0,960.0,1.0,0.0
2203,35.0,0.0,960.0,3.0,0.0
2204,47.0,240.0,240.0,5.0,0.0
2205,66.0,0.0,960.0,1.0,0.0
2206,51.0,240.0,240.0,3.0,0.0
2207,54.0,240.0,240.0,3.0,0.0
2208,51.0,240.0,240.0,3.0,0.0
2209,63.0,0.0,480.0,1.0,0.0
2210,47.0,240.0,240.0,5.0,0.0
2211,51.0,240.0,240.0,3.0,0.0
2212,54.0,240.0,240.0,3.0,0.0
2213,63.0,0.0,480.0,1.0,0.0
2214,51.0,240.0,240.0,3.0,0.0
2215,59.0,240.0,960.0,2.0,0.0
2216,42.0,240.0,240.0,5.0,0.0
2217,63.0,120.0,840.0,1.0,0.0
2218,47.0,240.0,240.0,3.0,0.0
2219,51.0,120.0,240.0,3.0,0.0
2220,47.0,0.0,240.0,3.0,0.0
2221,64.0,0.0,120.0,1.0,0.0
2222,61.0,240.0,480.0,1.0,0.0
2223,42.0,240.0,240.0,5.0,0.0
2224,58.0,0.0,480.0,2.0,0.0
2225,46.0,0.0,240.0,3.0,0.0
2226,49.0,192.0,240.0,3.0,0.0
2227,46.0,288.0,180.0,3.0,0.0
2228,51.0,240.0,240.0,3.0,0.0
2229,47.0,240.0,960.0,5.0,0.0
2230,59.0,0.0,960.0,1.0,0.0
2231,54.0,240.0,240.0,3.0,0.0
2232,51.0,240.0,240.0,3.0,0.0
2233,54.0,0.0,240.0,3.0,0.0
2234,61.0,120.0,960.0,1.0,0.0
2235,58.0,240.0,240.0,3.0,0.0
2236,42.0,0.0,960.0,5.0,0.0
2237,54.0,240.0,240.0,3.0,0.0
2238,58.0,240.0,240.0,3.0,0.0
2239,54.0,0.0,240.0,3.0,0.0
2240,59.0,0.0,480.0,3.0,0.0
2241,35.0,0.0,960.0,5.0,0.0
2242,63.0,40.0,120.0,1.0,0.0
2243,64.0,40.0,40.0,1.0,0.0
2244,63.0,40.0,40.0,1.0,0.0
2245,61.0,120.0,40.0,1.0,0.0
2246,63.0,120.0,120.0,1.0,0.0
2247,64.0,120.0,120.0,1.0,0.0
2248,66.0,120.0,120.0,1.0,0.0
2249,68.0,120.0,120.0,1.0,0.0
2250,70.0,120.0,120.0,1.0,0.0
2251,71.0,240.0,120.0,1.0,0.0
2252,66.0,480.0,240.0,1.0,0.0
2253,75.0,240.0,240.0,1.0,0.0
2254,71.0,0.0,240.0,2.0,0.0
2255,73.0,240.0,240.0,1.0,0.0
2256,70.0,0.0,240.0,2.0,0.0
2257,71.0,0.0,240.0,1.0,0.0
2258,68.0,240.0,240.0,2.0,0.0
2259,70.0,0.0,240.0,1.0,0.0
2260,66.0,240.0,240.0,2.0,0.0
2261,68.0,0.0,240.0,1.0,0.0
2262,64.0,0.0,240.0,2.0,0.0
2263,46.0,240.0,240.0,5.0,0.0
2264,66.0,0.0,240.0,1.0,0.0
2265,63.0,240.0,240.0,2.0,0.0
2266,47.0,0.0,240.0,5.0,0.0
2267,64.0,240.0,240.0,1.0,0.0
2268,49.0,0.0,240.0,5.0,0.0
2269,61.0,0.0,240.0,2.0,0.0
2270,51.0,0.0,240.0,5.0,0.0
2271,59.0,0.0,240.0,2.0,0.0
2272,63.0,240.0,240.0,1.0,0.0
2273,68.0,0.0,240.0,1.0,0.0
2274,52.0,0.0,240.0,5.0,0.0
2275,56.0,192.0,240.0,2.0,0.0
2276,64.0,0.0,180.0,1.0,0.0
2277,49.0,288.0,180.0,5.0,0.0
2278,61.0,0.0,180.0,2.0,0.0
2279,63.0,190.0,960.0,1.0,0.0
2280,53.0,240.0,240.0,5.0,0.0
2281,59.0,0.0,960.0,2.0,0.0
2282,54.0,240.0,240.0,5.0,0.0
2283,51.0,240.0,240.0,5.0,0.0
2284,47.0,0.0,240.0,5.0,0.0
2285,58.0,190.0,480.0,2.0,0.0
2286,61.0,240.0,180.0,1.0,0.0
2287,42.0,0.0,480.0,5.0,0.0
2288,63.0,50.0,180.0,1.0,0.0
2289,64.0,240.0,180.0,1.0,0.0
2290,65.0,290.0,180.0,1.0,0.0
2291,47.0,240.0,240.0,5.0,0.0
2292,66.0,120.0,600.0,1.0,0.0
2293,51.0,120.0,240.0,3.0,0.0
2294,54.0,0.0,240.0,3.0,0.0
2295,70.0,120.0,120.0,1.0,0.0
2296,51.0,0.0,240.0,3.0,0.0
2297,71.0,120.0,120.0,1.0,0.0
2298,66.0,190.0,120.0,1.0,0.0
2299,63.0,50.0,180.0,1.0,0.0
2300,47.0,190.0,240.0,5.0,0.0
2301,63.0,50.0,180.0,1.0,0.0
2302,51.0,190.0,240.0,3.0,0.0
2303,54.0,190.0,240.0,3.0,0.0
2304,63.0,50.0,180.0,1.0,0.0
2305,51.0,240.0,240.0,3.0,0.0
2306,63.0,50.0,180.0,1.0,0.0
2307,63.0,60.0,540.0,1.0,0.0
2308,59.0,240.0,960.0,2.0,0.0
2309,42.0,240.0,240.0,5.0,0.0
2310,47.0,60.0,240.0,3.0,0.0
2311,51.0,0.0,240.0,3.0,0.0
2312,64.0,60.0,60.0,1.0,0.0
2313,63.0,60.0,60.0,1.0,0.0
2314,61.0,120.0,60.0,1.0,0.0
2315,63.0,120.0,120.0,1.0,0.0
2316,47.0,0.0,240.0,3.0,0.0
2317,64.0,0.0,120.0,1.0,0.0
2318,58.0,0.0,480.0,2.0,0.0
2319,42.0,240.0,240.0,5.0,0.0
2320,61.0,0.0,480.0,1.0,0.0
2321,46.0,240.0,240.0,3.0,0.0
2322,49.0,0.0,240.0,3.0,0.0
2323,66.0,120.0,120.0,1.0,0.0
2324,64.0,72.0,120.0,1.0,0.0
2325,46.0,24.0,180.0,3.0,0.0
2326,61.0,504.0,90.0,1.0,0.0
2327,59.0,240.0,960.0,1.0,0.0
2328,47.0,0.0,960.0,5.0,0.0
2329,54.0,240.0,240.0,3.0,0.0
2330,51.0,240.0,240.0,3.0,0.0
2331,54.0,0.0,240.0,3.0,0.0
2332,61.0,0.0,960.0,1.0,0.0
2333,42.0,120.0,960.0,5.0,0.0
2334,58.0,240.0,240.0,3.0,0.0
2335,54.0,240.0,240.0,3.0,0.0
2336,58.0,240.0,240.0,3.0,0.0
2337,54.0,0.0,240.0,3.0,0.0
2338,63.0,40.0,120.0,1.0,0.0
2339,35.0,0.0,960.0,5.0,0.0
2340,59.0,0.0,480.0,3.0,0.0
2341,64.0,40.0,40.0,1.0,0.0
2342,63.0,40.0,40.0,1.0,0.0
2343,61.0,120.0,40.0,1.0,0.0
2344,63.0,120.0,120.0,1.0,0.0
2345,64.0,120.0,120.0,1.0,0.0
2346,66.0,120.0,120.0,1.0,0.0
2347,68.0,120.0,120.0,1.0,0.0
2348,70.0,120.0,120.0,1.0,0.0
2349,71.0,192.0,120.0,1.0,0.0
2350,66.0,383.0,180.0,1.0,0.0
2351,71.0,120.0,90.0,1.0,0.0
2352,70.0,120.0,90.0,1.0,0.0
2353,69.0,120.0,90.0,1.0,0.0
2354,68.0,217.0,90.0,1.0,0.0
2355,67.0,240.0,180.0,1.0,0.0
2356,59.0,143.0,180.0,4.0,0.0
2357,51.0,0.0,180.0,5.0,0.0
2358,71.0,120.0,90.0,1.0,0.0
2359,70.0,120.0,90.0,1.0,0.0
2360,69.0,120.0,90.0,1.0,0.0
2361,68.0,217.0,90.0,1.0,0.0
2362,67.0,240.0,180.0,1.0,0.0
2363,51.0,0.0,180.0,5.0,0.0
2364,59.0,143.0,180.0,4.0,0.0
2365,71.0,120.0,90.0,1.0,0.0
2366,70.0,120.0,90.0,1.0,0.0
2367,69.0,120.0,90.0,1.0,0.0
2368,68.0,985.0,90.0,1.0,0.0
2369,51.0,240.0,960.0,5.0,0.0
2370,67.0,0.0,960.0,1.0,0.0
2371,59.0,0.0,1200.0,4.0,0.0
2372,52.0,0.0,240.0,5.0,0.0
2373,68.0,335.0,240.0,1.0,0.0
2374,61.0,120.0,90.0,1.0,0.0
2375,63.0,120.0,90.0,1.0,0.0
2376,64.0,120.0,90.0,1.0,0.0
2377,65.0,625.0,90.0,1.0,0.0
2378,66.0,120.0,600.0,1.0,0.0
2379,47.0,0.0,420.0,4.0,0.0
2380,39.0,36.0,420.0,5.0,0.0
2381,68.0,120.0,120.0,1.0,0.0
2382,70.0,60.0,120.0,1.0,0.0
2383,71.0,504.0,90.0,1.0,0.0
2384,42.0,0.0,900.0,5.0,0.0
2385,54.0,120.0,720.0,2.0,0.0
2386,59.0,0.0,720.0,1.0,0.0
2387,51.0,240.0,480.0,4.0,0.0
2388,52.0,7.0,420.0,4.0,0.0
2389,63.0,60.0,120.0,1.0,0.0
2390,58.0,29.0,180.0,2.0,0.0
2391,61.0,331.0,90.0,1.0,0.0
2392,47.0,0.0,300.0,5.0,0.0
2393,59.0,3.0,300.0,1.0,0.0
2394,51.0,470.0,300.0,4.0,0.0
2395,47.0,0.0,300.0,5.0,0.0
2396,51.0,1370.0,300.0,4.0,0.0
2397,59.0,10.0,300.0,1.0,0.0
2398,73.0,0.0,960.0,1.0,0.0
2399,54.0,7.0,1860.0,5.0,0.0
2400,70.0,240.0,240.0,4.0,0.0
2401,61.0,240.0,240.0,3.0,0.0
2402,70.0,240.0,240.0,4.0,0.0
2403,61.0,240.0,240.0,3.0,0.0
2404,66.0,240.0,240.0,4.0,0.0
2405,70.0,5.0,900.0,1.0,0.0
2406,61.0,240.0,240.0,3.0,0.0
2407,66.0,180.0,240.0,4.0,0.0
2408,61.0,648.0,180.0,3.0,0.0
2409,70.0,0.0,600.0,2.0,0.0
2410,49.0,360.0,1200.0,5.0,0.0
2411,37.0,0.0,1200.0,5.0,0.0
2412,73.0,120.0,600.0,1.0,0.0
2413,69.0,120.0,120.0,2.0,0.0
2414,72.0,0.0,120.0,1.0,0.0
2415,68.0,120.0,120.0,2.0,0.0
2416,71.0,0.0,120.0,1.0,0.0
2417,66.0,240.0,120.0,2.0,0.0
2418,70.0,0.0,120.0,1.0,0.0
2419,68.0,0.0,240.0,1.0,0.0
2420,65.0,0.0,240.0,2.0,0.0
2421,74.0,0.0,120.0,1.0,0.0
2422,70.0,120.0,120.0,2.0,0.0
2423,71.0,120.0,120.0,2.0,0.0
2424,75.0,0.0,120.0,1.0,0.0
2425,74.0,0.0,120.0,1.0,0.0
2426,70.0,120.0,120.0,2.0,0.0
2427,75.0,0.0,120.0,1.0,0.0
2428,71.0,120.0,120.0,2.0,0.0
2429,62.0,120.0,120.0,5.0,0.0
2430,68.0,120.0,240.0,1.0,0.0
2431,65.0,0.0,240.0,2.0,0.0
2432,61.0,0.0,120.0,5.0,0.0
2433,62.0,96.0,120.0,5.0,0.0
2434,61.0,144.0,90.0,5.0,0.0
2435,74.0,0.0,120.0,1.0,0.0
2436,70.0,120.0,120.0,2.0,0.0
2437,71.0,120.0,120.0,2.0,0.0
2438,75.0,0.0,120.0,1.0,0.0
2439,70.0,0.0,120.0,2.0,0.0
2440,74.0,120.0,120.0,1.0,0.0
2441,75.0,0.0,120.0,1.0,0.0
2442,71.0,120.0,120.0,2.0,0.0
2443,65.0,0.0,240.0,2.0,0.0
2444,68.0,120.0,240.0,1.0,0.0
2445,62.0,120.0,120.0,5.0,0.0
2446,61.0,0.0,120.0,5.0,0.0
2447,62.0,96.0,120.0,5.0,0.0
2448,61.0,144.0,90.0,5.0,0.0
2449,67.0,120.0,120.0,1.0,0.0
2450,68.0,120.0,120.0,1.0,0.0
2451,70.0,96.0,120.0,1.0,0.0
2452,71.0,504.0,90.0,1.0,0.0
2453,73.0,58.0,570.0,1.0,0.0
2454,54.0,0.0,1200.0,5.0,0.0
2455,56.0,82.0,240.0,3.0,0.0
2456,59.0,20.0,240.0,3.0,0.0
2457,75.0,40.0,60.0,1.0,0.0
2458,73.0,40.0,60.0,1.0,0.0
2459,72.0,20.0,60.0,1.0,0.0
2460,73.0,100.0,60.0,1.0,0.0
2461,75.0,120.0,120.0,1.0,0.0
2462,65.0,0.0,240.0,3.0,0.0
2463,71.0,240.0,120.0,1.0,0.0
2464,70.0,0.0,240.0,1.0,0.0
2465,66.0,420.0,240.0,3.0,0.0
2466,73.0,45.0,180.0,1.0,0.0
2467,70.0,195.0,40.0,1.0,0.0
2468,73.0,48.0,180.0,1.0,0.0
2469,70.0,252.0,40.0,1.0,0.0
2470,46.0,187.0,240.0,5.0,0.0
2471,78.0,53.0,420.0,1.0,0.0
2472,49.0,240.0,240.0,3.0,0.0
2473,54.0,240.0,240.0,3.0,0.0
2474,78.0,120.0,1080.0,1.0,0.0
2475,49.0,240.0,240.0,3.0,0.0
2476,46.0,240.0,240.0,5.0,0.0
2477,49.0,120.0,240.0,3.0,0.0
2478,54.0,120.0,240.0,3.0,0.0
2479,80.0,0.0,120.0,1.0,0.0
2480,82.0,72.0,120.0,1.0,0.0
2481,49.0,24.0,180.0,3.0,0.0
2482,78.0,264.0,90.0,1.0,0.0
2483,47.0,0.0,240.0,5.0,0.0
2484,77.0,192.0,240.0,1.0,0.0
2485,51.0,240.0,240.0,3.0,0.0
2486,75.0,48.0,180.0,1.0,0.0
2487,54.0,240.0,240.0,3.0,0.0
2488,75.0,120.0,1080.0,1.0,0.0
2489,51.0,240.0,240.0,3.0,0.0
2490,47.0,240.0,240.0,5.0,0.0
2491,51.0,120.0,240.0,3.0,0.0
2492,54.0,0.0,240.0,3.0,0.0
2493,77.0,120.0,120.0,1.0,0.0
2494,78.0,72.0,120.0,1.0,0.0
2495,51.0,24.0,180.0,3.0,0.0
2496,75.0,264.0,90.0,1.0,0.0
2497,73.0,0.0,240.0,1.0,0.0
2498,49.0,192.0,240.0,5.0,0.0
2499,71.0,48.0,180.0,1.0,0.0
2500,53.0,240.0,240.0,3.0,0.0
2501,71.0,38.0,690.0,1.0,0.0
2502,56.0,240.0,240.0,3.0,0.0
2503,53.0,202.0,240.0,3.0,0.0
2504,49.0,190.0,240.0,5.0,0.0
2505,71.0,50.0,180.0,1.0,0.0
2506,53.0,190.0,240.0,3.0,0.0
2507,71.0,50.0,180.0,1.0,0.0
2508,56.0,190.0,240.0,3.0,0.0
2509,53.0,288.0,180.0,3.0,0.0
2510,71.0,2.0,180.0,1.0,0.0
2511,51.0,240.0,240.0,5.0,0.0
2512,69.0,0.0,480.0,1.0,0.0
2513,54.0,240.0,240.0,3.0,0.0
2514,70.0,95.0,390.0,1.0,0.0
2515,58.0,145.0,240.0,3.0,0.0
2516,54.0,200.0,240.0,3.0,0.0
2517,51.0,80.0,240.0,5.0,0.0
2518,66.0,40.0,90.0,1.0,0.0
2519,54.0,80.0,240.0,3.0,0.0
2520,68.0,120.0,90.0,1.0,0.0
2521,70.0,40.0,90.0,1.0,0.0
2522,58.0,80.0,240.0,3.0,0.0
2523,71.0,120.0,90.0,1.0,0.0
2524,73.0,40.0,90.0,1.0,0.0
2525,75.0,112.0,90.0,1.0,0.0
2526,54.0,8.0,180.0,3.0,0.0
2527,77.0,220.0,90.0,1.0,0.0
2528,46.0,0.0,240.0,5.0,0.0
2529,78.0,60.0,180.0,1.0,0.0
2530,73.0,180.0,60.0,1.0,0.0
2531,49.0,240.0,240.0,3.0,0.0
2532,82.0,60.0,180.0,1.0,0.0
2533,78.0,0.0,60.0,1.0,0.0
2534,85.0,120.0,600.0,1.0,0.0
2535,54.0,192.0,240.0,3.0,0.0
2536,49.0,168.0,180.0,3.0,0.0
2537,46.0,120.0,240.0,5.0,0.0
2538,82.0,0.0,120.0,1.0,0.0
2539,79.0,120.0,120.0,1.0,0.0
2540,49.0,0.0,240.0,3.0,0.0
2541,76.0,120.0,120.0,1.0,0.0
2542,73.0,120.0,120.0,1.0,0.0
2543,52.0,120.0,240.0,3.0,0.0
2544,70.0,0.0,120.0,1.0,0.0
2545,49.0,48.0,180.0,3.0,0.0
2546,67.0,72.0,120.0,1.0,0.0
2547,64.0,240.0,120.0,1.0,0.0
2548,63.0,0.0,240.0,1.0,0.0
2549,47.0,240.0,240.0,5.0,0.0
2550,74.0,50.0,330.0,1.0,0.0
2551,51.0,90.0,240.0,3.0,0.0
2552,56.0,20.0,240.0,3.0,0.0
2553,75.0,40.0,60.0,1.0,0.0
2554,74.0,40.0,60.0,1.0,0.0
2555,72.0,20.0,60.0,1.0,0.0
2556,74.0,172.0,60.0,1.0,0.0
2557,75.0,55.0,330.0,1.0,0.0
2558,51.0,133.0,180.0,3.0,0.0
2559,48.0,20.0,240.0,5.0,0.0
2560,77.0,40.0,60.0,1.0,0.0
2561,75.0,40.0,60.0,1.0,0.0
2562,74.0,20.0,60.0,1.0,0.0
2563,75.0,220.0,60.0,1.0,0.0
2564,51.0,75.0,240.0,3.0,0.0
2565,77.0,65.0,300.0,1.0,0.0
2566,57.0,20.0,240.0,3.0,0.0
2567,78.0,40.0,60.0,1.0,0.0
2568,77.0,40.0,60.0,1.0,0.0
2569,75.0,20.0,60.0,1.0,0.0
2570,77.0,172.0,60.0,1.0,0.0
2571,78.0,65.0,300.0,1.0,0.0
2572,51.0,123.0,180.0,3.0,0.0
2573,49.0,20.0,240.0,5.0,0.0
2574,80.0,40.0,60.0,1.0,0.0
2575,78.0,40.0,60.0,1.0,0.0
2576,77.0,20.0,60.0,1.0,0.0
2577,78.0,100.0,60.0,1.0,0.0
2578,82.0,120.0,120.0,1.0,0.0
2579,54.0,240.0,240.0,3.0,0.0
2580,85.0,0.0,120.0,1.0,0.0
2581,58.0,192.0,240.0,3.0,0.0
2582,73.0,115.0,600.0,1.0,0.0
2583,54.0,173.0,180.0,3.0,0.0
2584,49.0,120.0,240.0,5.0,0.0
2585,74.0,0.0,120.0,1.0,0.0
2586,75.0,96.0,120.0,1.0,0.0
2587,53.0,120.0,240.0,3.0,0.0
2588,73.0,24.0,90.0,1.0,0.0
2589,73.0,120.0,120.0,1.0,0.0
2590,56.0,120.0,240.0,3.0,0.0
2591,71.0,0.0,120.0,1.0,0.0
2592,70.0,72.0,120.0,1.0,0.0
2593,53.0,24.0,180.0,3.0,0.0
2594,68.0,144.0,90.0,1.0,0.0
2595,54.0,120.0,120.0,4.0,0.0
2596,66.0,120.0,480.0,1.0,0.0
2597,58.0,120.0,120.0,4.0,0.0
2598,61.0,120.0,120.0,4.0,0.0
2599,58.0,0.0,120.0,4.0,0.0
2600,61.0,120.0,120.0,4.0,0.0
2601,58.0,120.0,120.0,4.0,0.0
2602,61.0,96.0,120.0,4.0,0.0
2603,58.0,144.0,90.0,4.0,0.0
2604,49.0,0.0,480.0,5.0,0.0
2605,65.0,120.0,120.0,1.0,0.0
2606,59.0,120.0,480.0,4.0,0.0
2607,68.0,120.0,120.0,1.0,0.0
2608,75.0,120.0,120.0,1.0,0.0
2609,73.0,0.0,120.0,1.0,0.0
2610,75.0,120.0,120.0,1.0,0.0
2611,73.0,120.0,120.0,1.0,0.0
2612,75.0,96.0,120.0,1.0,0.0
2613,73.0,144.0,90.0,1.0,0.0
2614,54.0,120.0,120.0,4.0,0.0
2615,73.0,120.0,480.0,1.0,0.0
2616,58.0,120.0,120.0,4.0,0.0
2617,61.0,120.0,120.0,4.0,0.0
2618,58.0,0.0,120.0,4.0,0.0
2619,61.0,120.0,120.0,4.0,0.0
2620,78.0,0.0,240.0,1.0,0.0
2621,58.0,120.0,120.0,4.0,0.0
2622,61.0,96.0,120.0,4.0,0.0
2623,58.0,144.0,90.0,4.0,0.0
2624,49.0,0.0,480.0,5.0,0.0
2625,65.0,120.0,120.0,1.0,0.0
2626,59.0,120.0,480.0,4.0,0.0
2627,68.0,120.0,120.0,1.0,0.0
2628,75.0,120.0,120.0,1.0,0.0
2629,73.0,0.0,120.0,1.0,0.0
2630,75.0,120.0,120.0,1.0,0.0
2631,73.0,120.0,120.0,1.0,0.0
2632,75.0,96.0,120.0,1.0,0.0
2633,73.0,144.0,90.0,1.0,0.0
2634,54.0,120.0,120.0,4.0,0.0
2635,73.0,0.0,480.0,1.0,0.0
2636,58.0,120.0,120.0,4.0,0.0
2637,61.0,120.0,120.0,4.0,0.0
2638,58.0,120.0,120.0,4.0,0.0
2639,61.0,120.0,120.0,4.0,0.0
2640,66.0,0.0,240.0,1.0,0.0
2641,58.0,120.0,120.0,4.0,0.0
2642,61.0,96.0,120.0,4.0,0.0
2643,58.0,144.0,90.0,4.0,0.0
2644,65.0,120.0,120.0,1.0,0.0
2645,59.0,0.0,960.0,4.0,0.0
2646,49.0,120.0,960.0,5.0,0.0
2647,68.0,120.0,120.0,1.0,0.0
2648,75.0,120.0,120.0,1.0,0.0
2649,73.0,120.0,120.0,1.0,0.0
2650,75.0,120.0,120.0,1.0,0.0
2651,73.0,120.0,120.0,1.0,0.0
2652,75.0,96.0,120.0,1.0,0.0
2653,73.0,24.0,90.0,1.0,0.0
2654,58.0,120.0,480.0,3.0,0.0
2655,54.0,0.0,480.0,5.0,0.0
2656,73.0,120.0,120.0,1.0,0.0
2657,66.0,80.0,120.0,1.0,0.0
2658,78.0,120.0,90.0,1.0,0.0
2659,78.0,40.0,90.0,1.0,0.0
2660,78.0,120.0,120.0,1.0,0.0
2661,70.0,80.0,120.0,1.0,0.0
2662,82.0,120.0,90.0,1.0,0.0
2663,82.0,160.0,90.0,1.0,0.0
2664,82.0,120.0,120.0,1.0,0.0
2665,73.0,80.0,120.0,1.0,0.0
2666,85.0,120.0,90.0,1.0,0.0
2667,85.0,120.0,90.0,1.0,0.0
2668,61.0,240.0,480.0,5.0,0.0
2669,85.0,120.0,90.0,1.0,0.0
2670,71.0,0.0,480.0,4.0,0.0
2671,65.0,0.0,480.0,4.0,0.0
2672,85.0,120.0,90.0,1.0,0.0
2673,85.0,120.0,90.0,1.0,0.0
2674,85.0,40.0,90.0,1.0,0.0
2675,78.0,313.0,240.0,1.0,0.0
2676,70.0,0.0,240.0,4.0,0.0
2677,66.0,7.0,240.0,5.0,0.0
2678,65.0,0.0,480.0,4.0,0.0
2679,71.0,0.0,480.0,4.0,0.0
2680,61.0,240.0,480.0,5.0,0.0
2681,85.0,120.0,90.0,1.0,0.0
2682,85.0,120.0,90.0,1.0,0.0
2683,85.0,120.0,90.0,1.0,0.0
2684,85.0,40.0,90.0,1.0,0.0
2685,78.0,0.0,240.0,1.0,0.0
2686,70.0,320.0,240.0,4.0,0.0
2687,66.0,0.0,240.0,5.0,0.0
2688,65.0,0.0,480.0,4.0,0.0
2689,71.0,0.0,480.0,4.0,0.0
2690,61.0,240.0,480.0,5.0,0.0
2691,85.0,120.0,90.0,1.0,0.0
2692,85.0,120.0,90.0,1.0,0.0
2693,85.0,120.0,90.0,1.0,0.0
2694,85.0,40.0,90.0,1.0,0.0
2695,70.0,0.0,240.0,4.0,0.0
2696,66.0,1200.0,240.0,5.0,0.0
2697,78.0,0.0,240.0,1.0,0.0
2698,32.0,480.0,960.0,5.0,0.0
2699,44.0,0.0,960.0,5.0,0.0
2700,52.0,5.0,1350.0,1.0,0.0
2701,47.0,380.0,960.0,2.0,0.0
2702,49.0,210.0,1350.0,2.0,0.0
2703,31.0,0.0,480.0,5.0,0.0
2704,43.0,0.0,480.0,5.0,0.0
2705,30.0,0.0,960.0,5.0,0.0
2706,42.0,0.0,960.0,5.0,0.0
2707,46.0,5.0,390.0,2.0,0.0
2708,47.0,120.0,120.0,1.0,0.0
2709,46.0,120.0,120.0,1.0,0.0
2710,49.0,120.0,120.0,1.0,0.0
2711,52.0,120.0,120.0,1.0,0.0
2712,58.0,120.0,120.0,1.0,0.0
2713,61.0,120.0,120.0,1.0,0.0
2714,64.0,120.0,120.0,1.0,0.0
2715,70.0,82.0,120.0,1.0,0.0
2716,73.0,158.0,90.0,1.0,0.0
2717,76.0,480.0,180.0,1.0,0.0
2718,47.0,240.0,240.0,5.0,0.0
2719,66.0,60.0,600.0,1.0,0.0
2720,51.0,120.0,240.0,3.0,0.0
2721,54.0,60.0,240.0,3.0,0.0
2722,65.0,60.0,60.0,1.0,0.0
2723,66.0,0.0,60.0,1.0,0.0
2724,68.0,60.0,60.0,1.0,0.0
2725,51.0,0.0,240.0,3.0,0.0
2726,66.0,60.0,60.0,1.0,0.0
2727,65.0,60.0,60.0,1.0,0.0
2728,66.0,240.0,60.0,1.0,0.0
2729,47.0,240.0,240.0,5.0,0.0
2730,51.0,240.0,240.0,3.0,0.0
2731,63.0,0.0,15.0,1.0,0.0
2732,54.0,240.0,240.0,3.0,0.0
2733,51.0,240.0,240.0,3.0,0.0
2734,59.0,240.0,960.0,2.0,0.0
2735,63.0,50.0,600.0,1.0,0.0
2736,42.0,240.0,240.0,5.0,0.0
2737,47.0,130.0,240.0,3.0,0.0
2738,51.0,20.0,240.0,3.0,0.0
2739,64.0,40.0,60.0,1.0,0.0
2740,63.0,20.0,60.0,1.0,0.0
2741,61.0,100.0,60.0,1.0,0.0
2742,63.0,120.0,120.0,1.0,0.0
2743,47.0,0.0,240.0,3.0,0.0
2744,64.0,0.0,120.0,1.0,0.0
2745,61.0,0.0,480.0,1.0,0.0
2746,42.0,240.0,240.0,5.0,0.0
2747,58.0,0.0,480.0,2.0,0.0
2748,46.0,240.0,240.0,3.0,0.0
2749,49.0,120.0,240.0,3.0,0.0
2750,66.0,0.0,120.0,1.0,0.0
2751,46.0,24.0,180.0,3.0,0.0
2752,64.0,72.0,120.0,1.0,0.0
2753,61.0,264.0,90.0,1.0,0.0
2754,59.0,0.0,960.0,1.0,0.0
2755,51.0,240.0,240.0,3.0,0.0
2756,47.0,0.0,960.0,5.0,0.0
2757,54.0,240.0,240.0,3.0,0.0
2758,51.0,240.0,240.0,3.0,0.0
2759,54.0,240.0,240.0,3.0,0.0
2760,58.0,240.0,240.0,3.0,0.0
2761,61.0,0.0,960.0,1.0,0.0
2762,42.0,0.0,960.0,5.0,0.0
2763,54.0,240.0,240.0,3.0,0.0
2764,58.0,240.0,240.0,3.0,0.0
2765,54.0,120.0,240.0,3.0,0.0
2766,35.0,240.0,960.0,5.0,0.0
2767,59.0,120.0,480.0,3.0,0.0
2768,63.0,40.0,120.0,1.0,0.0
2769,64.0,40.0,40.0,1.0,0.0
2770,63.0,45.0,40.0,1.0,0.0
2771,61.0,120.0,40.0,1.0,0.0
2772,63.0,115.0,120.0,1.0,0.0
2773,64.0,0.0,120.0,1.0,0.0
2774,66.0,120.0,120.0,1.0,0.0
2775,68.0,120.0,120.0,1.0,0.0
2776,70.0,120.0,120.0,1.0,0.0
2777,71.0,0.0,120.0,1.0,0.0
2778,66.0,480.0,240.0,1.0,0.0
2779,71.0,240.0,240.0,2.0,0.0
2780,75.0,0.0,240.0,1.0,0.0
2781,70.0,0.0,240.0,2.0,0.0
2782,73.0,240.0,240.0,1.0,0.0
2783,71.0,0.0,240.0,1.0,0.0
2784,68.0,360.0,240.0,2.0,0.0
2785,70.0,115.0,360.0,1.0,0.0
2786,66.0,5.0,360.0,2.0,0.0
2787,46.0,120.0,240.0,5.0,0.0
2788,34.0,0.0,240.0,5.0,0.0
2789,64.0,120.0,240.0,2.0,0.0
2790,68.0,0.0,240.0,1.0,0.0
2791,35.0,0.0,240.0,5.0,0.0
2792,47.0,120.0,240.0,5.0,0.0
2793,63.0,0.0,240.0,2.0,0.0
2794,66.0,120.0,240.0,1.0,0.0
2795,49.0,0.0,240.0,5.0,0.0
2796,37.0,120.0,240.0,5.0,0.0
2797,61.0,0.0,240.0,2.0,0.0
2798,64.0,120.0,240.0,1.0,0.0
2799,51.0,120.0,240.0,5.0,0.0
2800,39.0,0.0,240.0,5.0,0.0
2801,63.0,0.0,240.0,1.0,0.0
2802,59.0,120.0,240.0,2.0,0.0
2803,52.0,120.0,240.0,5.0,0.0
2804,40.0,0.0,240.0,5.0,0.0
2805,68.0,0.0,240.0,1.0,0.0
2806,56.0,72.0,240.0,2.0,0.0
2807,49.0,33.0,180.0,5.0,0.0
2808,37.0,0.0,180.0,5.0,0.0
2809,64.0,248.0,120.0,1.0,0.0
2810,61.0,7.0,120.0,2.0,0.0
2811,63.0,0.0,960.0,1.0,0.0
2812,53.0,240.0,240.0,5.0,0.0
2813,59.0,0.0,960.0,2.0,0.0
2814,54.0,240.0,240.0,5.0,0.0
2815,51.0,240.0,240.0,5.0,0.0
2816,47.0,190.0,240.0,5.0,0.0
2817,58.0,240.0,180.0,2.0,0.0
2818,42.0,190.0,480.0,5.0,0.0
2819,61.0,0.0,180.0,1.0,0.0
2820,63.0,50.0,180.0,1.0,0.0
2821,64.0,240.0,180.0,1.0,0.0
2822,65.0,290.0,180.0,1.0,0.0
2823,47.0,240.0,240.0,5.0,0.0
2824,66.0,120.0,600.0,1.0,0.0
2825,51.0,120.0,240.0,3.0,0.0
2826,54.0,0.0,240.0,3.0,0.0
2827,70.0,120.0,120.0,1.0,0.0
2828,71.0,120.0,120.0,1.0,0.0
2829,51.0,190.0,240.0,3.0,0.0
2830,66.0,0.0,120.0,1.0,0.0
2831,63.0,50.0,180.0,1.0,0.0
2832,47.0,190.0,240.0,5.0,0.0
2833,63.0,50.0,180.0,1.0,0.0
2834,51.0,190.0,240.0,3.0,0.0
2835,63.0,50.0,180.0,1.0,0.0
2836,54.0,190.0,240.0,3.0,0.0
2837,51.0,240.0,240.0,3.0,0.0
2838,63.0,50.0,180.0,1.0,0.0
2839,63.0,60.0,600.0,1.0,0.0
2840,42.0,240.0,240.0,5.0,0.0
2841,59.0,240.0,960.0,2.0,0.0
2842,47.0,120.0,240.0,3.0,0.0
2843,51.0,20.0,240.0,3.0,0.0
2844,64.0,40.0,60.0,1.0,0.0
2845,63.0,20.0,60.0,1.0,0.0
2846,61.0,100.0,60.0,1.0,0.0
2847,63.0,120.0,120.0,1.0,0.0
2848,47.0,0.0,240.0,3.0,0.0
2849,64.0,0.0,120.0,1.0,0.0
2850,58.0,0.0,480.0,2.0,0.0
2851,42.0,240.0,240.0,5.0,0.0
2852,61.0,0.0,480.0,1.0,0.0
2853,46.0,240.0,240.0,3.0,0.0
2854,49.0,120.0,240.0,3.0,0.0
2855,54.0,0.0,120.0,1.0,0.0
2856,46.0,24.0,180.0,3.0,0.0
2857,56.0,72.0,120.0,1.0,0.0
2858,58.0,264.0,90.0,1.0,0.0
2859,47.0,0.0,960.0,5.0,0.0
2860,51.0,240.0,240.0,3.0,0.0
2861,59.0,0.0,960.0,1.0,0.0
2862,54.0,240.0,240.0,3.0,0.0
2863,51.0,240.0,240.0,3.0,0.0
2864,54.0,240.0,240.0,3.0,0.0
2865,42.0,0.0,960.0,5.0,0.0
2866,61.0,0.0,960.0,1.0,0.0
2867,58.0,240.0,240.0,3.0,0.0
2868,54.0,240.0,240.0,3.0,0.0
2869,58.0,240.0,240.0,3.0,0.0
2870,54.0,120.0,240.0,3.0,0.0
2871,35.0,0.0,960.0,5.0,0.0
2872,59.0,120.0,480.0,3.0,0.0
2873,63.0,40.0,120.0,1.0,0.0
2874,64.0,40.0,40.0,1.0,0.0
2875,63.0,40.0,40.0,1.0,0.0
2876,61.0,120.0,40.0,1.0,0.0
2877,63.0,120.0,120.0,1.0,0.0
2878,64.0,0.0,120.0,1.0,0.0
2879,66.0,120.0,120.0,1.0,0.0
2880,68.0,120.0,120.0,1.0,0.0
2881,70.0,120.0,120.0,1.0,0.0
2882,71.0,240.0,120.0,1.0,0.0
2883,66.0,335.0,240.0,1.0,0.0
2884,71.0,120.0,90.0,1.0,0.0
2885,70.0,120.0,90.0,1.0,0.0
2886,69.0,120.0,90.0,1.0,0.0
2887,68.0,217.0,90.0,1.0,0.0
2888,67.0,240.0,180.0,1.0,0.0
2889,59.0,143.0,180.0,4.0,0.0
2890,51.0,0.0,180.0,5.0,0.0
2891,71.0,120.0,90.0,1.0,0.0
2892,70.0,120.0,90.0,1.0,0.0
2893,69.0,120.0,90.0,1.0,0.0
2894,68.0,217.0,90.0,1.0,0.0
2895,67.0,240.0,180.0,1.0,0.0
2896,51.0,143.0,180.0,5.0,0.0
2897,59.0,0.0,180.0,4.0,0.0
2898,71.0,120.0,90.0,1.0,0.0
2899,70.0,120.0,90.0,1.0,0.0
2900,69.0,120.0,90.0,1.0,0.0
2901,68.0,985.0,90.0,1.0,0.0
2902,59.0,0.0,1200.0,4.0,0.0
2903,51.0,240.0,960.0,5.0,0.0
2904,57.0,0.0,960.0,4.0,0.0
2905,67.0,0.0,960.0,1.0,0.0
2906,68.0,0.0,240.0,1.0,0.0
2907,56.0,335.0,240.0,4.0,0.0
2908,52.0,0.0,240.0,5.0,0.0
2909,61.0,120.0,90.0,1.0,0.0
2910,63.0,120.0,90.0,1.0,0.0
2911,64.0,120.0,90.0,1.0,0.0
2912,65.0,625.0,90.0,1.0,0.0
2913,66.0,60.0,600.0,1.0,0.0
2914,47.0,0.0,420.0,4.0,0.0
2915,39.0,53.0,420.0,5.0,0.0
2916,70.0,60.0,60.0,1.0,0.0
2917,68.0,60.0,60.0,1.0,0.0
2918,71.0,60.0,60.0,1.0,0.0
2919,70.0,60.0,60.0,1.0,0.0
2920,73.0,7.0,60.0,1.0,0.0
2921,71.0,480.0,60.0,1.0,0.0
2922,59.0,55.0,570.0,1.0,0.0
2923,54.0,13.0,720.0,2.0,0.0
2924,51.0,85.0,480.0,4.0,0.0
2925,42.0,8.0,900.0,5.0,0.0
2926,52.0,7.0,420.0,4.0,0.0
2927,61.0,40.0,60.0,1.0,0.0
2928,59.0,40.0,60.0,1.0,0.0
2929,58.0,27.0,60.0,1.0,0.0
2930,59.0,100.0,60.0,1.0,0.0
2931,58.0,21.0,180.0,1.0,0.0
2932,63.0,60.0,120.0,1.0,0.0
2933,61.0,334.0,90.0,1.0,0.0
2934,47.0,0.0,300.0,5.0,0.0
2935,59.0,0.0,300.0,1.0,0.0
2936,51.0,480.0,300.0,4.0,0.0
2937,59.0,0.0,300.0,1.0,0.0
2938,51.0,1610.0,300.0,4.0,0.0
2939,47.0,0.0,300.0,5.0,0.0
2940,28.0,8.0,2880.0,5.0,0.0
2941,56.0,0.0,960.0,1.0,0.0
2942,47.0,240.0,960.0,2.0,0.0
2943,40.0,240.0,240.0,3.0,0.0
2944,40.0,240.0,240.0,3.0,0.0
2945,40.0,0.0,240.0,3.0,0.0
2946,40.0,240.0,240.0,3.0,0.0
2947,54.0,240.0,960.0,1.0,0.0
2948,45.0,0.0,960.0,2.0,0.0
2949,40.0,240.0,15.0,3.0,0.0
2950,40.0,240.0,15.0,3.0,0.0
2951,59.0,120.0,1080.0,1.0,0.0
2952,52.0,120.0,960.0,2.0,0.0
2953,44.0,0.0,960.0,2.0,0.0
2954,40.0,240.0,15.0,3.0,0.0
2955,40.0,240.0,15.0,3.0,0.0
2956,40.0,0.0,240.0,3.0,0.0
2957,51.0,8.0,930.0,2.0,0.0
2958,35.0,120.0,240.0,3.0,0.0
2959,42.0,6.0,930.0,2.0,0.0
2960,61.0,0.0,120.0,1.0,0.0
2961,59.0,120.0,120.0,1.0,0.0
2962,35.0,0.0,240.0,3.0,0.0
2963,61.0,120.0,120.0,1.0,0.0
2964,35.0,0.0,240.0,3.0,0.0
2965,57.0,120.0,120.0,1.0,0.0
2966,59.0,120.0,120.0,1.0,0.0
2967,35.0,0.0,210.0,3.0,0.0
2968,57.0,82.0,120.0,1.0,0.0
2969,59.0,504.0,90.0,1.0,0.0
2970,56.0,0.0,960.0,1.0,0.0
2971,47.0,240.0,960.0,2.0,0.0
2972,28.0,8.0,2880.0,5.0,0.0
2973,40.0,240.0,15.0,3.0,0.0
2974,40.0,0.0,240.0,3.0,0.0
2975,40.0,240.0,240.0,3.0,0.0
2976,45.0,240.0,960.0,2.0,0.0
2977,54.0,0.0,960.0,1.0,0.0
2978,40.0,240.0,240.0,3.0,0.0
2979,40.0,240.0,240.0,3.0,0.0
2980,40.0,0.0,240.0,3.0,0.0
2981,59.0,120.0,1080.0,1.0,0.0
2982,44.0,0.0,960.0,2.0,0.0
2983,52.0,0.0,960.0,2.0,0.0
2984,40.0,240.0,240.0,3.0,0.0
2985,40.0,240.0,15.0,3.0,0.0
2986,40.0,232.0,15.0,3.0,0.0
2987,42.0,0.0,930.0,2.0,0.0
2988,51.0,6.0,930.0,2.0,0.0
2989,61.0,120.0,120.0,1.0,0.0
2990,35.0,0.0,15.0,3.0,0.0
2991,59.0,120.0,120.0,1.0,0.0
2992,61.0,120.0,120.0,1.0,0.0
2993,57.0,120.0,120.0,1.0,0.0
2994,35.0,0.0,240.0,3.0,0.0
2995,59.0,120.0,120.0,1.0,0.0
2996,57.0,90.0,120.0,1.0,0.0
2997,35.0,443.0,210.0,3.0,0.0
2998,59.0,1.0,90.0,1.0,0.0
2999,40.0,7.0,2760.0,5.0,0.0
3000,52.0,0.0,420.0,2.0,0.0
3001,56.0,60.0,420.0,1.0,0.0
3002,56.0,240.0,960.0,2.0,0.0
3003,64.0,0.0,960.0,1.0,0.0
3004,52.0,240.0,15.0,3.0,0.0
3005,52.0,240.0,15.0,3.0,0.0
3006,52.0,240.0,15.0,3.0,0.0
3007,52.0,0.0,240.0,3.0,0.0
3008,63.0,0.0,420.0,1.0,0.0
3009,52.0,180.0,240.0,3.0,0.0
3010,59.0,60.0,420.0,2.0,0.0
3011,52.0,240.0,240.0,3.0,0.0
3012,63.0,0.0,240.0,1.0,0.0
3013,59.0,240.0,240.0,2.0,0.0
3014,52.0,3.0,870.0,3.0,0.0
3015,57.0,0.0,240.0,2.0,0.0
3016,61.0,375.0,240.0,1.0,0.0
3017,59.0,335.0,390.0,1.0,0.0
3018,56.0,0.0,390.0,2.0,0.0
3019,70.0,240.0,240.0,1.0,0.0
3020,71.0,240.0,240.0,1.0,0.0
3021,73.0,192.0,240.0,1.0,0.0
3022,71.0,288.0,180.0,1.0,0.0
3023,47.0,192.0,240.0,5.0,0.0
3024,71.0,0.0,240.0,1.0,0.0
3025,63.0,48.0,180.0,1.0,0.0
3026,54.0,240.0,240.0,3.0,0.0
3027,57.0,240.0,240.0,3.0,0.0
3028,63.0,45.0,720.0,1.0,0.0
3029,54.0,240.0,240.0,3.0,0.0
3030,47.0,15.0,240.0,5.0,0.0
3031,54.0,0.0,240.0,3.0,0.0
3032,64.0,60.0,60.0,1.0,0.0
3033,63.0,60.0,60.0,1.0,0.0
3034,61.0,60.0,60.0,1.0,0.0
3035,63.0,240.0,60.0,1.0,0.0
3036,64.0,0.0,240.0,1.0,0.0
3037,57.0,192.0,240.0,3.0,0.0
3038,54.0,288.0,180.0,3.0,0.0
3039,66.0,0.0,180.0,1.0,0.0
3040,47.0,120.0,240.0,5.0,0.0
3041,66.0,120.0,360.0,1.0,0.0
3042,52.0,240.0,240.0,3.0,0.0
3043,68.0,0.0,120.0,1.0,0.0
3044,64.0,95.0,390.0,1.0,0.0
3045,56.0,145.0,240.0,3.0,0.0
3046,52.0,120.0,240.0,3.0,0.0
3047,70.0,120.0,120.0,1.0,0.0
3048,47.0,0.0,240.0,5.0,0.0
3049,71.0,120.0,120.0,1.0,0.0
3050,70.0,120.0,120.0,1.0,0.0
3051,52.0,0.0,240.0,3.0,0.0
3052,71.0,120.0,120.0,1.0,0.0
3053,70.0,120.0,120.0,1.0,0.0
3054,56.0,120.0,240.0,3.0,0.0
3055,71.0,0.0,120.0,1.0,0.0
3056,73.0,72.0,120.0,1.0,0.0
3057,52.0,24.0,180.0,3.0,0.0
3058,71.0,264.0,90.0,1.0,0.0
3059,47.0,192.0,240.0,5.0,0.0
3060,71.0,0.0,240.0,1.0,0.0
3061,66.0,48.0,180.0,1.0,0.0
3062,51.0,240.0,240.0,3.0,0.0
3063,66.0,55.0,720.0,1.0,0.0
3064,54.0,240.0,240.0,3.0,0.0
3065,51.0,240.0,240.0,3.0,0.0
3066,47.0,5.0,240.0,5.0,0.0
3067,51.0,240.0,240.0,3.0,0.0
3068,68.0,60.0,60.0,1.0,0.0
3069,66.0,60.0,60.0,1.0,0.0
3070,65.0,60.0,60.0,1.0,0.0
3071,66.0,0.0,60.0,1.0,0.0
3072,68.0,192.0,240.0,1.0,0.0
3073,54.0,0.0,240.0,3.0,0.0
3074,51.0,288.0,180.0,3.0,0.0
3075,69.0,0.0,180.0,1.0,0.0
3076,67.0,0.0,480.0,1.0,0.0
3077,47.0,240.0,240.0,5.0,0.0
3078,52.0,240.0,240.0,3.0,0.0
3079,68.0,0.0,240.0,1.0,0.0
3080,56.0,240.0,240.0,3.0,0.0
3081,52.0,120.0,240.0,3.0,0.0
3082,67.0,120.0,120.0,1.0,0.0
3083,47.0,120.0,480.0,5.0,0.0
3084,68.0,120.0,120.0,1.0,0.0
3085,67.0,120.0,120.0,1.0,0.0
3086,68.0,0.0,120.0,1.0,0.0
3087,67.0,120.0,120.0,1.0,0.0
3088,68.0,120.0,120.0,1.0,0.0
3089,69.0,96.0,120.0,1.0,0.0
3090,68.0,264.0,90.0,1.0,0.0
3091,66.0,240.0,480.0,2.0,0.0
3092,73.0,0.0,480.0,2.0,0.0
3093,76.0,0.0,480.0,1.0,0.0
3094,46.0,240.0,240.0,5.0,0.0
3095,70.0,0.0,480.0,2.0,0.0
3096,49.0,0.0,240.0,3.0,0.0
3097,76.0,60.0,840.0,1.0,0.0
3098,54.0,240.0,240.0,3.0,0.0
3099,49.0,360.0,240.0,3.0,0.0
3100,46.0,15.0,1440.0,5.0,0.0
3101,75.0,60.0,60.0,1.0,0.0
3102,76.0,60.0,60.0,1.0,0.0
3103,78.0,60.0,60.0,1.0,0.0
3104,76.0,60.0,60.0,1.0,0.0
3105,75.0,60.0,60.0,1.0,0.0
3106,73.0,60.0,60.0,1.0,0.0
3107,71.0,60.0,60.0,1.0,0.0
3108,70.0,60.0,60.0,1.0,0.0
3109,68.0,60.0,60.0,1.0,0.0
3110,66.0,60.0,60.0,1.0,0.0
3111,64.0,60.0,60.0,1.0,0.0
3112,63.0,60.0,60.0,1.0,0.0
3113,61.0,60.0,60.0,1.0,0.0
3114,59.0,60.0,60.0,1.0,0.0
3115,58.0,60.0,60.0,1.0,0.0
3116,56.0,60.0,60.0,1.0,0.0
3117,54.0,45.0,60.0,1.0,0.0
3118,52.0,240.0,60.0,1.0,0.0
3119,51.0,240.0,480.0,1.0,0.0
3120,35.0,240.0,240.0,5.0,0.0
3121,39.0,0.0,240.0,3.0,0.0
3122,47.0,60.0,960.0,1.0,0.0
3123,42.0,240.0,240.0,3.0,0.0
3124,39.0,480.0,240.0,3.0,0.0
3125,35.0,480.0,1920.0,5.0,0.0
3126,49.0,60.0,60.0,1.0,0.0
3127,47.0,60.0,60.0,1.0,0.0
3128,46.0,60.0,60.0,1.0,0.0
3129,47.0,60.0,60.0,1.0,0.0
3130,49.0,60.0,60.0,1.0,0.0
3131,51.0,60.0,60.0,1.0,0.0
3132,52.0,60.0,60.0,1.0,0.0
3133,54.0,60.0,60.0,1.0,0.0
3134,56.0,60.0,60.0,1.0,0.0
3135,58.0,60.0,60.0,1.0,0.0
3136,59.0,60.0,60.0,1.0,0.0
3137,61.0,60.0,60.0,1.0,0.0
3138,63.0,60.0,60.0,1.0,0.0
3139,64.0,60.0,60.0,1.0,0.0
3140,66.0,60.0,60.0,1.0,0.0
3141,68.0,60.0,60.0,1.0,0.0
3142,70.0,60.0,60.0,1.0,0.0
3143,71.0,60.0,60.0,1.0,0.0
3144,73.0,60.0,60.0,1.0,0.0
3145,75.0,60.0,60.0,1.0,0.0
3146,76.0,60.0,60.0,1.0,0.0
3147,78.0,60.0,60.0,1.0,0.0
3148,80.0,60.0,60.0,1.0,0.0
3149,82.0,0.0,60.0,1.0,0.0
3150,83.0,22.0,960.0,1.0,0.0
3151,44.0,465.0,480.0,5.0,0.0
3152,47.0,473.0,480.0,3.0,0.0
3153,53.0,480.0,480.0,3.0,0.0
3154,83.0,53.0,2280.0,1.0,0.0
3155,47.0,1327.0,480.0,3.0,0.0
3156,44.0,23.0,2310.0,5.0,0.0
3157,82.0,60.0,60.0,1.0,0.0
3158,83.0,60.0,60.0,1.0,0.0
3159,85.0,60.0,60.0,1.0,0.0
3160,83.0,60.0,60.0,1.0,0.0
3161,82.0,60.0,60.0,1.0,0.0
3162,80.0,60.0,60.0,1.0,0.0
3163,78.0,60.0,60.0,1.0,0.0
3164,77.0,60.0,60.0,1.0,0.0
3165,75.0,60.0,60.0,1.0,0.0
3166,73.0,60.0,60.0,1.0,0.0
3167,71.0,60.0,60.0,1.0,0.0
3168,70.0,60.0,60.0,1.0,0.0
3169,68.0,60.0,60.0,1.0,0.0
3170,66.0,60.0,60.0,1.0,0.0
3171,65.0,60.0,60.0,1.0,0.0
3172,63.0,37.0,60.0,1.0,0.0
3173,61.0,60.0,60.0,1.0,0.0
3174,59.0,120.0,60.0,1.0,0.0
3175,58.0,120.0,120.0,1.0,0.0
3176,42.0,187.0,480.0,5.0,0.0
3177,61.0,240.0,120.0,1.0,0.0
3178,66.0,293.0,420.0,1.0,0.0
3179,58.0,0.0,480.0,5.0,0.0
3180,64.0,240.0,480.0,4.0,0.0
3181,66.0,240.0,480.0,1.0,0.0
3182,59.0,190.0,960.0,5.0,0.0
3183,62.0,0.0,960.0,4.0,0.0
3184,71.0,240.0,240.0,1.0,0.0
3185,67.0,240.0,240.0,1.0,0.0
3186,65.0,0.0,240.0,1.0,0.0
3187,61.0,0.0,240.0,4.0,0.0
3188,58.0,240.0,240.0,5.0,0.0
3189,66.0,50.0,180.0,1.0,0.0
3190,71.0,240.0,240.0,1.0,0.0
3191,59.0,190.0,480.0,5.0,0.0
3192,62.0,0.0,480.0,4.0,0.0
3193,67.0,240.0,240.0,1.0,0.0
3194,65.0,0.0,240.0,1.0,0.0
3195,66.0,50.0,180.0,1.0,0.0
3196,58.0,0.0,240.0,5.0,0.0
3197,61.0,240.0,240.0,4.0,0.0
3198,71.0,240.0,240.0,1.0,0.0
3199,67.0,240.0,240.0,1.0,0.0
3200,59.0,0.0,480.0,5.0,0.0
3201,62.0,0.0,480.0,4.0,0.0
3202,65.0,190.0,240.0,1.0,0.0
3203,58.0,240.0,240.0,5.0,0.0
3204,66.0,50.0,180.0,1.0,0.0
3205,61.0,0.0,240.0,4.0,0.0
3206,66.0,240.0,240.0,1.0,0.0
3207,65.0,240.0,240.0,1.0,0.0
3208,66.0,240.0,240.0,1.0,0.0
3209,65.0,240.0,240.0,1.0,0.0
3210,66.0,240.0,240.0,1.0,0.0
3211,67.0,192.0,240.0,1.0,0.0
3212,66.0,528.0,180.0,1.0,0.0
3213,38.0,113.0,2880.0,5.0,0.0
3214,57.0,0.0,960.0,2.0,0.0
3215,66.0,240.0,960.0,1.0,0.0
3216,50.0,240.0,15.0,3.0,0.0
3217,50.0,240.0,15.0,3.0,0.0
3218,50.0,240.0,240.0,3.0,0.0
3219,64.0,0.0,960.0,1.0,0.0
3220,55.0,0.0,960.0,2.0,0.0
3221,50.0,240.0,15.0,3.0,0.0
3222,50.0,240.0,240.0,3.0,0.0
3223,54.0,7.0,960.0,2.0,0.0
3224,69.0,120.0,1080.0,1.0,0.0
3225,62.0,0.0,960.0,2.0,0.0
3226,50.0,240.0,15.0,3.0,0.0
3227,50.0,240.0,15.0,3.0,0.0
3228,50.0,240.0,15.0,3.0,0.0
3229,45.0,120.0,240.0,3.0,0.0
3230,52.0,15.0,900.0,2.0,0.0
3231,61.0,6.0,930.0,2.0,0.0
3232,71.0,0.0,120.0,1.0,0.0
3233,69.0,120.0,120.0,1.0,0.0
3234,45.0,0.0,240.0,3.0,0.0
3235,71.0,120.0,120.0,1.0,0.0
3236,67.0,120.0,120.0,1.0,0.0
3237,45.0,120.0,240.0,3.0,0.0
3238,69.0,0.0,120.0,1.0,0.0
3239,45.0,0.0,210.0,3.0,0.0
3240,67.0,75.0,120.0,1.0,0.0
3241,69.0,504.0,90.0,1.0,0.0
3242,57.0,240.0,960.0,2.0,0.0
3243,66.0,0.0,960.0,1.0,0.0
3244,38.0,120.0,2880.0,5.0,0.0
3245,50.0,240.0,240.0,3.0,0.0
3246,50.0,240.0,15.0,3.0,0.0
3247,64.0,0.0,960.0,1.0,0.0
3248,55.0,0.0,960.0,2.0,0.0
3249,50.0,240.0,15.0,3.0,0.0
3250,50.0,240.0,15.0,3.0,0.0
3251,50.0,240.0,15.0,3.0,0.0
3252,54.0,0.0,960.0,2.0,0.0
3253,62.0,0.0,960.0,2.0,0.0
3254,50.0,240.0,240.0,3.0,0.0
3255,69.0,120.0,1080.0,1.0,0.0
3256,50.0,240.0,240.0,3.0,0.0
3257,50.0,240.0,240.0,3.0,0.0
3258,50.0,0.0,240.0,3.0,0.0
3259,61.0,0.0,930.0,2.0,0.0
3260,52.0,14.0,930.0,2.0,0.0
3261,45.0,0.0,240.0,3.0,0.0
3262,71.0,120.0,120.0,1.0,0.0
3263,69.0,120.0,120.0,1.0,0.0
3264,71.0,0.0,120.0,1.0,0.0
3265,45.0,120.0,15.0,3.0,0.0
3266,67.0,120.0,120.0,1.0,0.0
3267,69.0,0.0,120.0,1.0,0.0
3268,67.0,82.0,120.0,1.0,0.0
3269,45.0,120.0,15.0,3.0,0.0
3270,69.0,264.0,90.0,1.0,0.0
3271,66.0,60.0,240.0,1.0,0.0
3272,50.0,0.0,240.0,5.0,0.0
3273,57.0,240.0,240.0,3.0,0.0
3274,67.0,60.0,60.0,1.0,0.0
3275,66.0,60.0,60.0,1.0,0.0
3276,64.0,60.0,60.0,1.0,0.0
3277,66.0,0.0,60.0,1.0,0.0
3278,54.0,240.0,240.0,5.0,0.0
3279,69.0,0.0,960.0,1.0,0.0
3280,57.0,240.0,240.0,3.0,0.0
3281,49.0,240.0,240.0,5.0,0.0
3282,57.0,240.0,240.0,3.0,0.0
3283,67.0,240.0,240.0,1.0,0.0
3284,48.0,0.0,240.0,5.0,0.0
3285,57.0,0.0,240.0,3.0,0.0
3286,66.0,240.0,240.0,1.0,0.0
3287,64.0,0.0,240.0,1.0,0.0
3288,47.0,192.0,240.0,5.0,0.0
3289,57.0,240.0,240.0,3.0,0.0
3290,63.0,48.0,180.0,1.0,0.0
3291,47.0,216.0,240.0,5.0,0.0
3292,57.0,240.0,240.0,3.0,0.0
3293,63.0,24.0,90.0,1.0,0.0
3294,47.0,120.0,240.0,5.0,0.0
3295,66.0,96.0,360.0,1.0,0.0
3296,55.0,240.0,240.0,3.0,0.0
3297,64.0,24.0,90.0,1.0,0.0
3298,47.0,120.0,240.0,5.0,0.0
3299,67.0,72.0,360.0,1.0,0.0
3300,51.0,24.0,180.0,3.0,0.0
3301,66.0,264.0,90.0,1.0,0.0
3302,52.0,120.0,240.0,5.0,0.0
3303,69.0,96.0,360.0,1.0,0.0
3304,59.0,240.0,240.0,3.0,0.0
3305,67.0,24.0,90.0,1.0,0.0
3306,71.0,0.0,720.0,1.0,0.0
3307,55.0,240.0,240.0,5.0,0.0
3308,59.0,240.0,240.0,3.0,0.0
3309,51.0,120.0,240.0,5.0,0.0
3310,59.0,120.0,240.0,3.0,0.0
3311,70.0,120.0,120.0,1.0,0.0
3312,71.0,0.0,120.0,1.0,0.0
3313,73.0,120.0,120.0,1.0,0.0
3314,50.0,0.0,240.0,5.0,0.0
3315,71.0,120.0,120.0,1.0,0.0
3316,69.0,96.0,120.0,1.0,0.0
3317,59.0,240.0,240.0,3.0,0.0
3318,68.0,24.0,90.0,1.0,0.0
3319,66.0,192.0,240.0,1.0,0.0
3320,49.0,0.0,240.0,5.0,0.0
3321,59.0,240.0,240.0,3.0,0.0
3322,65.0,48.0,180.0,1.0,0.0
3323,49.0,216.0,240.0,5.0,0.0
3324,59.0,240.0,240.0,3.0,0.0
3325,65.0,24.0,90.0,1.0,0.0
3326,49.0,120.0,240.0,5.0,0.0
3327,68.0,96.0,360.0,1.0,0.0
3328,57.0,240.0,240.0,3.0,0.0
3329,66.0,24.0,90.0,1.0,0.0
3330,69.0,72.0,360.0,1.0,0.0
3331,49.0,120.0,240.0,5.0,0.0
3332,53.0,24.0,180.0,3.0,0.0
3333,68.0,264.0,90.0,1.0,0.0
3334,54.0,120.0,240.0,5.0,0.0
3335,71.0,96.0,360.0,1.0,0.0
3336,61.0,240.0,240.0,3.0,0.0
3337,69.0,24.0,90.0,1.0,0.0
3338,73.0,120.0,720.0,1.0,0.0
3339,57.0,240.0,240.0,5.0,0.0
3340,61.0,240.0,240.0,3.0,0.0
3341,53.0,0.0,240.0,5.0,0.0
3342,61.0,0.0,240.0,3.0,0.0
3343,72.0,120.0,120.0,1.0,0.0
3344,73.0,120.0,120.0,1.0,0.0
3345,52.0,120.0,240.0,5.0,0.0
3346,75.0,120.0,120.0,1.0,0.0
3347,73.0,0.0,120.0,1.0,0.0
3348,71.0,96.0,120.0,1.0,0.0
3349,61.0,240.0,240.0,3.0,0.0
3350,70.0,24.0,90.0,1.0,0.0
3351,51.0,192.0,240.0,5.0,0.0
3352,68.0,0.0,240.0,1.0,0.0
3353,67.0,48.0,180.0,1.0,0.0
3354,63.0,240.0,240.0,3.0,0.0
3355,61.0,216.0,240.0,5.0,0.0
3356,63.0,240.0,240.0,3.0,0.0
3357,67.0,24.0,90.0,1.0,0.0
3358,70.0,96.0,360.0,1.0,0.0
3359,59.0,120.0,240.0,5.0,0.0
3360,63.0,240.0,240.0,3.0,0.0
3361,68.0,24.0,90.0,1.0,0.0
3362,55.0,120.0,240.0,5.0,0.0
3363,71.0,96.0,360.0,1.0,0.0
3364,63.0,240.0,240.0,3.0,0.0
3365,70.0,24.0,90.0,1.0,0.0
3366,73.0,96.0,360.0,1.0,0.0
3367,56.0,120.0,240.0,5.0,0.0
3368,63.0,240.0,240.0,3.0,0.0
3369,71.0,24.0,90.0,1.0,0.0
3370,75.0,120.0,720.0,1.0,0.0
3371,59.0,240.0,240.0,5.0,0.0
3372,63.0,240.0,240.0,3.0,0.0
3373,55.0,0.0,240.0,5.0,0.0
3374,63.0,120.0,240.0,3.0,0.0
3375,74.0,120.0,120.0,1.0,0.0
3376,75.0,0.0,120.0,1.0,0.0
3377,54.0,0.0,240.0,5.0,0.0
3378,76.0,120.0,120.0,1.0,0.0
3379,75.0,120.0,120.0,1.0,0.0
3380,63.0,240.0,240.0,3.0,0.0
3381,73.0,96.0,120.0,1.0,0.0
3382,71.0,24.0,90.0,1.0,0.0
3383,53.0,120.0,240.0,5.0,0.0
3384,70.0,120.0,360.0,1.0,0.0
3385,63.0,0.0,240.0,3.0,0.0
3386,68.0,240.0,120.0,1.0,0.0
3387,80.0,63.0,570.0,1.0,0.0
3388,59.0,240.0,240.0,5.0,0.0
3389,63.0,97.0,240.0,3.0,0.0
3390,52.0,0.0,240.0,5.0,0.0
3391,82.0,40.0,40.0,1.0,0.0
3392,80.0,40.0,40.0,1.0,0.0
3393,79.0,120.0,40.0,1.0,0.0
3394,80.0,120.0,120.0,1.0,0.0
3395,62.0,240.0,240.0,3.0,0.0
3396,82.0,0.0,120.0,1.0,0.0
3397,83.0,72.0,360.0,1.0,0.0
3398,59.0,120.0,240.0,5.0,0.0
3399,56.0,48.0,180.0,3.0,0.0
3400,74.0,120.0,120.0,1.0,0.0
3401,75.0,120.0,120.0,1.0,0.0
3402,51.0,120.0,120.0,5.0,0.0
3403,55.0,120.0,120.0,3.0,0.0
3404,58.0,120.0,120.0,3.0,0.0
3405,63.0,120.0,120.0,3.0,0.0
3406,67.0,120.0,120.0,3.0,0.0
3407,70.0,120.0,120.0,3.0,0.0
3408,75.0,120.0,120.0,1.0,0.0
3409,74.0,120.0,120.0,1.0,0.0
3410,51.0,120.0,120.0,5.0,0.0
3411,56.0,120.0,120.0,3.0,0.0
3412,59.0,120.0,120.0,3.0,0.0
3413,62.0,120.0,120.0,3.0,0.0
3414,65.0,120.0,120.0,3.0,0.0
3415,68.0,120.0,120.0,3.0,0.0
3416,74.0,120.0,120.0,1.0,0.0
3417,75.0,120.0,120.0,1.0,0.0
3418,51.0,120.0,120.0,5.0,0.0
3419,55.0,120.0,120.0,3.0,0.0
3420,58.0,120.0,120.0,3.0,0.0
3421,63.0,120.0,120.0,3.0,0.0
3422,67.0,120.0,120.0,3.0,0.0
3423,70.0,120.0,120.0,3.0,0.0
3424,75.0,120.0,120.0,1.0,0.0
3425,74.0,120.0,120.0,1.0,0.0
3426,51.0,120.0,120.0,5.0,0.0
3427,56.0,120.0,120.0,3.0,0.0
3428,59.0,120.0,120.0,3.0,0.0
3429,62.0,120.0,120.0,3.0,0.0
3430,65.0,120.0,120.0,3.0,0.0
3431,68.0,120.0,120.0,3.0,0.0
3432,74.0,120.0,120.0,1.0,0.0
3433,75.0,120.0,120.0,1.0,0.0
3434,51.0,120.0,120.0,5.0,0.0
3435,55.0,120.0,120.0,3.0,0.0
3436,58.0,120.0,120.0,3.0,0.0
3437,63.0,120.0,120.0,3.0,0.0
3438,67.0,120.0,120.0,3.0,0.0
3439,70.0,120.0,120.0,3.0,0.0
3440,74.0,120.0,120.0,1.0,0.0
3441,75.0,120.0,120.0,1.0,0.0
3442,51.0,120.0,120.0,5.0,0.0
3443,55.0,120.0,120.0,3.0,0.0
3444,58.0,120.0,120.0,3.0,0.0
3445,63.0,120.0,120.0,3.0,0.0
3446,67.0,120.0,120.0,3.0,0.0
3447,70.0,120.0,120.0,3.0,0.0
3448,75.0,120.0,120.0,1.0,0.0
3449,76.0,120.0,120.0,1.0,0.0
3450,49.0,120.0,120.0,5.0,0.0
3451,55.0,120.0,120.0,3.0,0.0
3452,58.0,120.0,120.0,3.0,0.0
3453,61.0,120.0,120.0,3.0,0.0
3454,67.0,120.0,120.0,3.0,0.0
3455,70.0,120.0,120.0,3.0,0.0
3456,76.0,120.0,120.0,1.0,0.0
3457,77.0,120.0,120.0,1.0,0.0
3458,47.0,120.0,120.0,5.0,0.0
3459,53.0,120.0,120.0,3.0,0.0
3460,56.0,120.0,120.0,3.0,0.0
3461,59.0,120.0,120.0,3.0,0.0
3462,68.0,120.0,120.0,3.0,0.0
3463,73.0,96.0,120.0,3.0,0.0
3464,77.0,144.0,90.0,1.0,0.0
3465,46.0,120.0,1920.0,5.0,0.0
3466,78.0,120.0,120.0,1.0,0.0
3467,79.0,120.0,120.0,1.0,0.0
3468,80.0,120.0,120.0,1.0,0.0
3469,78.0,120.0,120.0,1.0,0.0
3470,76.0,120.0,120.0,1.0,0.0
3471,75.0,120.0,120.0,1.0,0.0
3472,73.0,120.0,120.0,1.0,0.0
3473,71.0,120.0,120.0,1.0,0.0
3474,70.0,120.0,120.0,1.0,0.0
3475,68.0,120.0,120.0,1.0,0.0
3476,66.0,120.0,120.0,1.0,0.0
3477,65.0,120.0,120.0,1.0,0.0
3478,64.0,120.0,120.0,1.0,0.0
3479,63.0,120.0,120.0,1.0,0.0
3480,61.0,120.0,120.0,1.0,0.0
3481,59.0,0.0,120.0,1.0,0.0
3482,58.0,120.0,120.0,1.0,0.0
3483,42.0,0.0,1860.0,5.0,0.0
3484,52.0,7.0,1860.0,4.0,0.0
3485,49.0,0.0,1860.0,4.0,0.0
3486,56.0,120.0,120.0,1.0,0.0
3487,54.0,120.0,120.0,1.0,0.0
3488,56.0,120.0,120.0,1.0,0.0
3489,58.0,120.0,120.0,1.0,0.0
3490,59.0,120.0,120.0,1.0,0.0
3491,61.0,120.0,120.0,1.0,0.0
3492,63.0,120.0,120.0,1.0,0.0
3493,64.0,120.0,120.0,1.0,0.0
3494,63.0,120.0,120.0,1.0,0.0
3495,61.0,120.0,120.0,1.0,0.0
3496,60.0,120.0,120.0,1.0,0.0
3497,61.0,120.0,120.0,1.0,0.0
3498,63.0,67.0,120.0,1.0,0.0
3499,64.0,128.0,60.0,1.0,0.0
3500,65.0,278.0,150.0,1.0,0.0
3501,66.0,120.0,600.0,1.0,0.0
3502,47.0,240.0,240.0,5.0,0.0
3503,51.0,120.0,240.0,3.0,0.0
3504,54.0,120.0,240.0,3.0,0.0
3505,68.0,0.0,120.0,1.0,0.0
3506,51.0,240.0,240.0,3.0,0.0
3507,70.0,96.0,120.0,1.0,0.0
3508,71.0,24.0,90.0,1.0,0.0
3509,47.0,190.0,240.0,5.0,0.0
3510,71.0,0.0,240.0,1.0,0.0
3511,63.0,50.0,180.0,1.0,0.0
3512,51.0,190.0,240.0,3.0,0.0
3513,54.0,190.0,240.0,3.0,0.0
3514,63.0,50.0,180.0,1.0,0.0
3515,63.0,50.0,180.0,1.0,0.0
3516,51.0,240.0,240.0,3.0,0.0
3517,59.0,0.0,960.0,2.0,0.0
3518,63.0,60.0,600.0,1.0,0.0
3519,42.0,240.0,240.0,5.0,0.0
3520,47.0,120.0,240.0,3.0,0.0
3521,51.0,20.0,240.0,3.0,0.0
3522,64.0,40.0,60.0,1.0,0.0
3523,63.0,20.0,60.0,1.0,0.0
3524,61.0,100.0,60.0,1.0,0.0
3525,47.0,240.0,240.0,3.0,0.0
3526,63.0,120.0,120.0,1.0,0.0
3527,64.0,0.0,120.0,1.0,0.0
3528,61.0,160.0,480.0,1.0,0.0
3529,42.0,240.0,240.0,5.0,0.0
3530,58.0,0.0,480.0,2.0,0.0
3531,46.0,0.0,240.0,3.0,0.0
3532,49.0,80.0,240.0,3.0,0.0
3533,66.0,80.0,90.0,1.0,0.0
3534,65.0,0.0,90.0,1.0,0.0
3535,46.0,40.0,180.0,3.0,0.0
3536,64.0,80.0,90.0,1.0,0.0
3537,63.0,32.0,90.0,1.0,0.0
3538,61.0,248.0,60.0,1.0,0.0
3539,51.0,240.0,240.0,3.0,0.0
3540,47.0,240.0,960.0,5.0,0.0
3541,59.0,0.0,960.0,1.0,0.0
3542,54.0,240.0,240.0,3.0,0.0
3543,51.0,240.0,240.0,3.0,0.0
3544,54.0,0.0,240.0,3.0,0.0
3545,61.0,0.0,960.0,1.0,0.0
3546,58.0,240.0,240.0,3.0,0.0
3547,42.0,0.0,960.0,5.0,0.0
3548,54.0,240.0,240.0,3.0,0.0
3549,58.0,240.0,240.0,3.0,0.0
3550,54.0,125.0,240.0,3.0,0.0
3551,59.0,120.0,480.0,3.0,0.0
3552,63.0,55.0,120.0,1.0,0.0
3553,35.0,240.0,960.0,5.0,0.0
3554,64.0,40.0,60.0,1.0,0.0
3555,63.0,40.0,60.0,1.0,0.0
3556,61.0,122.0,60.0,1.0,0.0
3557,63.0,98.0,150.0,1.0,0.0
3558,64.0,0.0,120.0,1.0,0.0
3559,66.0,120.0,120.0,1.0,0.0
3560,68.0,120.0,120.0,1.0,0.0
3561,70.0,120.0,120.0,1.0,0.0
3562,71.0,0.0,120.0,1.0,0.0
3563,66.0,420.0,240.0,1.0,0.0
3564,71.0,60.0,180.0,1.0,0.0
3565,75.0,180.0,120.0,2.0,0.0
3566,70.0,60.0,180.0,1.0,0.0
3567,73.0,180.0,120.0,2.0,0.0
3568,68.0,60.0,180.0,1.0,0.0
3569,71.0,216.0,120.0,2.0,0.0
3570,66.0,24.0,210.0,1.0,0.0
3571,70.0,180.0,120.0,2.0,0.0
3572,34.0,60.0,180.0,5.0,0.0
3573,64.0,0.0,180.0,1.0,0.0
3574,68.0,180.0,120.0,2.0,0.0
3575,46.0,0.0,120.0,3.0,0.0
3576,63.0,0.0,180.0,1.0,0.0
3577,35.0,60.0,180.0,5.0,0.0
3578,47.0,180.0,120.0,3.0,0.0
3579,66.0,0.0,120.0,2.0,0.0
3580,37.0,0.0,180.0,5.0,0.0
3581,61.0,60.0,180.0,1.0,0.0
3582,49.0,180.0,120.0,3.0,0.0
3583,64.0,0.0,120.0,2.0,0.0
3584,59.0,60.0,180.0,1.0,0.0
3585,39.0,0.0,180.0,5.0,0.0
3586,63.0,180.0,120.0,2.0,0.0
3587,51.0,0.0,120.0,3.0,0.0
3588,40.0,60.0,180.0,5.0,0.0
3589,56.0,0.0,180.0,1.0,0.0
3590,68.0,0.0,120.0,2.0,0.0
3591,52.0,180.0,120.0,3.0,0.0
3592,37.0,36.0,180.0,5.0,0.0
3593,61.0,0.0,180.0,1.0,0.0
3594,49.0,143.0,90.0,3.0,0.0
3595,64.0,1.0,90.0,2.0,0.0
3596,59.0,95.0,960.0,2.0,0.0
3597,63.0,0.0,960.0,1.0,0.0
3598,53.0,120.0,120.0,5.0,0.0
3599,54.0,120.0,120.0,5.0,0.0
3600,56.0,120.0,120.0,5.0,0.0
3601,54.0,120.0,120.0,5.0,0.0
3602,53.0,120.0,120.0,5.0,0.0
3603,54.0,120.0,120.0,5.0,0.0
3604,51.0,120.0,120.0,5.0,0.0
3605,47.0,0.0,120.0,5.0,0.0
3606,61.0,0.0,90.0,1.0,0.0
3607,42.0,95.0,480.0,5.0,0.0
3608,58.0,120.0,90.0,2.0,0.0
3609,59.0,120.0,90.0,1.0,0.0
3610,58.0,120.0,90.0,1.0,0.0
3611,59.0,25.0,90.0,1.0,0.0
3612,61.0,120.0,90.0,1.0,0.0
3613,63.0,120.0,90.0,1.0,0.0
3614,64.0,120.0,90.0,1.0,0.0
3615,65.0,265.0,90.0,1.0,0.0
3616,66.0,60.0,600.0,1.0,0.0
3617,47.0,240.0,240.0,5.0,0.0
3618,51.0,120.0,240.0,3.0,0.0
3619,54.0,60.0,240.0,3.0,0.0
3620,70.0,60.0,60.0,1.0,0.0
3621,68.0,0.0,60.0,1.0,0.0
3622,71.0,60.0,60.0,1.0,0.0
3623,51.0,190.0,240.0,3.0,0.0
3624,70.0,60.0,60.0,1.0,0.0
3625,73.0,60.0,60.0,1.0,0.0
3626,71.0,0.0,60.0,1.0,0.0
3627,47.0,190.0,240.0,5.0,0.0
3628,71.0,50.0,180.0,1.0,0.0
3629,51.0,190.0,240.0,3.0,0.0
3630,63.0,50.0,180.0,1.0,0.0
3631,54.0,190.0,240.0,3.0,0.0
3632,63.0,50.0,180.0,1.0,0.0
3633,51.0,240.0,240.0,3.0,0.0
3634,63.0,50.0,180.0,1.0,0.0
3635,59.0,0.0,960.0,2.0,0.0
3636,42.0,80.0,240.0,5.0,0.0
3637,63.0,60.0,330.0,1.0,0.0
3638,47.0,20.0,240.0,3.0,0.0
3639,64.0,40.0,60.0,1.0,0.0
3640,63.0,40.0,60.0,1.0,0.0
3641,61.0,20.0,60.0,1.0,0.0
3642,63.0,220.0,60.0,1.0,0.0
3643,66.0,120.0,570.0,1.0,0.0
3644,51.0,240.0,240.0,3.0,0.0
3645,47.0,95.0,240.0,3.0,0.0
3646,58.0,0.0,480.0,2.0,0.0
3647,42.0,95.0,240.0,5.0,0.0
3648,65.0,25.0,90.0,1.0,0.0
3649,46.0,95.0,240.0,3.0,0.0
3650,64.0,120.0,90.0,1.0,0.0
3651,63.0,25.0,90.0,1.0,0.0
3652,49.0,95.0,240.0,3.0,0.0
3653,66.0,120.0,90.0,1.0,0.0
3654,64.0,25.0,90.0,1.0,0.0
3655,63.0,97.0,90.0,1.0,0.0
3656,46.0,23.0,180.0,3.0,0.0
3657,61.0,476.0,90.0,1.0,0.0
3658,47.0,0.0,960.0,5.0,0.0
3659,35.0,451.0,960.0,5.0,0.0
3660,59.0,86.0,840.0,1.0,0.0
3661,54.0,240.0,210.0,3.0,0.0
3662,51.0,154.0,210.0,3.0,0.0
3663,54.0,29.0,210.0,3.0,0.0
3664,60.0,0.0,120.0,1.0,0.0
3665,61.0,76.0,840.0,1.0,0.0
3666,30.0,0.0,960.0,5.0,0.0
3667,42.0,0.0,960.0,5.0,0.0
3668,58.0,240.0,210.0,3.0,0.0
3669,54.0,164.0,210.0,3.0,0.0
3670,58.0,29.0,210.0,3.0,0.0
3671,62.0,120.0,120.0,1.0,0.0
3672,63.0,55.0,120.0,1.0,0.0
3673,35.0,0.0,960.0,5.0,0.0
3674,47.0,0.0,960.0,5.0,0.0
3675,64.0,50.0,60.0,1.0,0.0
3676,63.0,35.0,60.0,1.0,0.0
3677,61.0,100.0,60.0,1.0,0.0
3678,63.0,120.0,120.0,1.0,0.0
3679,64.0,80.0,120.0,1.0,0.0
3680,65.0,80.0,90.0,1.0,0.0
3681,66.0,80.0,90.0,1.0,0.0
3682,67.0,60.0,90.0,1.0,0.0
3683,68.0,60.0,60.0,1.0,0.0
3684,69.0,60.0,60.0,1.0,0.0
3685,70.0,60.0,60.0,1.0,0.0
3686,71.0,240.0,60.0,1.0,0.0
3687,66.0,360.0,240.0,1.0,0.0
3688,71.0,120.0,120.0,1.0,0.0
3689,70.0,120.0,120.0,1.0,0.0
3690,69.0,120.0,120.0,1.0,0.0
3691,68.0,95.0,120.0,1.0,0.0
3692,67.0,95.0,240.0,1.0,0.0
3693,59.0,120.0,90.0,4.0,0.0
3694,58.0,25.0,90.0,4.0,0.0
3695,57.0,120.0,90.0,4.0,0.0
3696,56.0,145.0,90.0,4.0,0.0
3697,55.0,0.0,240.0,4.0,0.0
3698,51.0,0.0,240.0,5.0,0.0
3699,71.0,120.0,120.0,1.0,0.0
3700,70.0,120.0,120.0,1.0,0.0
3701,69.0,120.0,120.0,1.0,0.0
3702,68.0,95.0,120.0,1.0,0.0
3703,59.0,120.0,90.0,4.0,0.0
3704,67.0,95.0,240.0,1.0,0.0
3705,58.0,25.0,90.0,4.0,0.0
3706,57.0,120.0,90.0,4.0,0.0
3707,56.0,145.0,90.0,4.0,0.0
3708,55.0,0.0,240.0,4.0,0.0
3709,51.0,0.0,240.0,5.0,0.0
3710,71.0,120.0,120.0,1.0,0.0
3711,70.0,120.0,120.0,1.0,0.0
3712,69.0,120.0,120.0,1.0,0.0
3713,68.0,480.0,120.0,1.0,0.0
3714,67.0,60.0,480.0,1.0,0.0
3715,59.0,0.0,960.0,4.0,0.0
3716,51.0,240.0,960.0,5.0,0.0
3717,68.0,60.0,60.0,1.0,0.0
3718,67.0,60.0,60.0,1.0,0.0
3719,65.0,60.0,60.0,1.0,0.0
3720,67.0,180.0,60.0,1.0,0.0
3721,70.0,60.0,180.0,1.0,0.0
3722,68.0,0.0,60.0,1.0,0.0
3723,52.0,0.0,240.0,5.0,0.0
3724,68.0,335.0,240.0,1.0,0.0
3725,59.0,0.0,240.0,4.0,0.0
3726,61.0,120.0,90.0,1.0,0.0
3727,63.0,120.0,90.0,1.0,0.0
3728,64.0,120.0,90.0,1.0,0.0
3729,65.0,585.0,90.0,1.0,0.0
3730,66.0,65.0,570.0,1.0,0.0
3731,39.0,38.0,420.0,5.0,0.0
3732,47.0,7.0,420.0,4.0,0.0
3733,67.0,80.0,60.0,1.0,0.0
3734,68.0,80.0,60.0,1.0,0.0
3735,69.0,80.0,60.0,1.0,0.0
3736,70.0,35.0,60.0,1.0,0.0
3737,71.0,495.0,60.0,1.0,0.0
3738,42.0,15.0,900.0,5.0,0.0
3739,51.0,80.0,480.0,4.0,0.0
3740,59.0,60.0,570.0,1.0,0.0
3741,52.0,0.0,420.0,4.0,0.0
3742,61.0,40.0,60.0,1.0,0.0
3743,59.0,40.0,60.0,1.0,0.0
3744,58.0,40.0,60.0,1.0,0.0
3745,59.0,100.0,60.0,1.0,0.0
3746,63.0,67.0,120.0,1.0,0.0
3747,58.0,270.0,210.0,1.0,0.0
3748,61.0,8.0,90.0,1.0,0.0
3749,59.0,0.0,480.0,1.0,0.0
3750,47.0,240.0,240.0,5.0,0.0
3751,51.0,240.0,240.0,3.0,0.0
3752,54.0,240.0,240.0,3.0,0.0
3753,51.0,240.0,240.0,3.0,0.0
3754,47.0,240.0,240.0,5.0,0.0
3755,68.0,50.0,570.0,1.0,0.0
3756,52.0,90.0,240.0,3.0,0.0
3757,56.0,20.0,240.0,3.0,0.0
3758,70.0,40.0,60.0,1.0,0.0
3759,68.0,40.0,60.0,1.0,0.0
3760,67.0,20.0,60.0,1.0,0.0
3761,68.0,100.0,60.0,1.0,0.0
3762,71.0,72.0,120.0,1.0,0.0
3763,52.0,24.0,180.0,3.0,0.0
3764,68.0,144.0,90.0,1.0,0.0
3765,47.0,120.0,240.0,5.0,0.0
3766,66.0,120.0,120.0,1.0,0.0
3767,75.0,0.0,120.0,1.0,0.0
3768,73.0,120.0,120.0,1.0,0.0
3769,51.0,0.0,240.0,3.0,0.0
3770,71.0,120.0,120.0,1.0,0.0
3771,70.0,120.0,120.0,1.0,0.0
3772,54.0,0.0,240.0,3.0,0.0
3773,71.0,120.0,120.0,1.0,0.0
3774,51.0,120.0,240.0,3.0,0.0
3775,73.0,96.0,120.0,1.0,0.0
3776,71.0,24.0,90.0,1.0,0.0
3777,47.0,240.0,240.0,5.0,0.0
3778,70.0,120.0,120.0,1.0,0.0
3779,68.0,60.0,450.0,1.0,0.0
3780,52.0,80.0,240.0,3.0,0.0
3781,56.0,20.0,240.0,3.0,0.0
3782,70.0,40.0,60.0,1.0,0.0
3783,68.0,40.0,60.0,1.0,0.0
3784,67.0,20.0,60.0,1.0,0.0
3785,68.0,100.0,60.0,1.0,0.0
3786,71.0,72.0,120.0,1.0,0.0
3787,52.0,24.0,180.0,3.0,0.0
3788,68.0,144.0,90.0,1.0,0.0
3789,66.0,120.0,120.0,1.0,0.0
3790,51.0,0.0,480.0,3.0,0.0
3791,47.0,0.0,480.0,4.0,0.0
3792,54.0,120.0,480.0,3.0,0.0
3793,75.0,120.0,120.0,1.0,0.0
3794,73.0,120.0,120.0,1.0,0.0
3795,71.0,0.0,120.0,1.0,0.0
3796,70.0,120.0,120.0,1.0,0.0
3797,71.0,120.0,120.0,1.0,0.0
3798,73.0,96.0,120.0,1.0,0.0
3799,71.0,264.0,90.0,1.0,0.0
3800,44.0,0.0,480.0,3.0,0.0
3801,49.0,0.0,480.0,3.0,0.0
3802,40.0,120.0,480.0,4.0,0.0
3803,71.0,120.0,120.0,1.0,0.0
3804,70.0,120.0,120.0,1.0,0.0
3805,68.0,0.0,120.0,1.0,0.0
3806,67.0,120.0,120.0,1.0,0.0
3807,68.0,120.0,120.0,1.0,0.0
3808,70.0,96.0,120.0,1.0,0.0
3809,68.0,324.0,90.0,1.0,0.0
3810,42.0,53.0,420.0,5.0,0.0
3811,51.0,7.0,420.0,4.0,0.0
3812,68.0,60.0,60.0,1.0,0.0
3813,66.0,60.0,60.0,1.0,0.0
3814,65.0,0.0,60.0,1.0,0.0
3815,66.0,240.0,60.0,1.0,0.0
3816,71.0,192.0,240.0,1.0,0.0
3817,66.0,348.0,180.0,1.0,0.0
3818,42.0,0.0,420.0,5.0,0.0
3819,47.0,53.0,420.0,4.0,0.0
3820,64.0,60.0,60.0,1.0,0.0
3821,63.0,60.0,60.0,1.0,0.0
3822,62.0,7.0,60.0,1.0,0.0
3823,63.0,240.0,60.0,1.0,0.0
3824,66.0,192.0,240.0,1.0,0.0
3825,63.0,348.0,180.0,1.0,0.0
3826,42.0,8.0,420.0,5.0,0.0
3827,49.0,53.0,420.0,4.0,0.0
3828,66.0,60.0,60.0,1.0,0.0
3829,64.0,52.0,60.0,1.0,0.0
3830,63.0,7.0,60.0,1.0,0.0
3831,64.0,240.0,60.0,1.0,0.0
3832,68.0,240.0,240.0,1.0,0.0
3833,64.0,300.0,240.0,1.0,0.0
3834,52.0,0.0,420.0,4.0,0.0
3835,42.0,60.0,420.0,5.0,0.0
3836,59.0,60.0,60.0,1.0,0.0
3837,58.0,60.0,60.0,1.0,0.0
3838,56.0,0.0,60.0,1.0,0.0
3839,58.0,240.0,60.0,1.0,0.0
3840,61.0,192.0,240.0,1.0,0.0
3841,58.0,288.0,180.0,1.0,0.0
3842,59.0,215.0,480.0,1.0,0.0
3843,47.0,240.0,240.0,5.0,0.0
3844,51.0,0.0,240.0,3.0,0.0
3845,54.0,95.0,240.0,3.0,0.0
3846,71.0,25.0,90.0,1.0,0.0
3847,70.0,120.0,90.0,1.0,0.0
3848,51.0,240.0,240.0,3.0,0.0
3849,69.0,25.0,90.0,1.0,0.0
3850,67.0,240.0,240.0,1.0,0.0
3851,47.0,0.0,240.0,5.0,0.0
3852,68.0,60.0,360.0,1.0,0.0
3853,52.0,120.0,240.0,3.0,0.0
3854,56.0,0.0,240.0,3.0,0.0
3855,71.0,60.0,60.0,1.0,0.0
3856,70.0,60.0,60.0,1.0,0.0
3857,73.0,60.0,60.0,1.0,0.0
3858,52.0,48.0,180.0,3.0,0.0
3859,71.0,60.0,60.0,1.0,0.0
3860,70.0,12.0,60.0,1.0,0.0
3861,68.0,120.0,60.0,1.0,0.0
3862,47.0,120.0,240.0,5.0,0.0
3863,66.0,120.0,120.0,1.0,0.0
3864,75.0,0.0,120.0,1.0,0.0
3865,73.0,120.0,120.0,1.0,0.0
3866,51.0,0.0,240.0,3.0,0.0
3867,71.0,120.0,120.0,1.0,0.0
3868,54.0,0.0,240.0,3.0,0.0
3869,70.0,120.0,120.0,1.0,0.0
3870,71.0,120.0,120.0,1.0,0.0
3871,73.0,96.0,120.0,1.0,0.0
3872,51.0,180.0,240.0,3.0,0.0
3873,71.0,24.0,90.0,1.0,0.0
3874,47.0,0.0,240.0,5.0,0.0
3875,70.0,60.0,180.0,1.0,0.0
3876,68.0,240.0,60.0,1.0,0.0
3877,52.0,50.0,240.0,3.0,0.0
3878,80.0,60.0,300.0,1.0,0.0
3879,56.0,50.0,240.0,3.0,0.0
3880,78.0,60.0,60.0,1.0,0.0
3881,76.0,60.0,60.0,1.0,0.0
3882,75.0,10.0,60.0,1.0,0.0
3883,73.0,60.0,60.0,1.0,0.0
3884,52.0,38.0,180.0,3.0,0.0
3885,71.0,60.0,60.0,1.0,0.0
3886,70.0,22.0,60.0,1.0,0.0
3887,68.0,105.0,60.0,1.0,0.0
3888,47.0,0.0,480.0,5.0,0.0
3889,51.0,0.0,480.0,4.0,0.0
3890,66.0,145.0,90.0,1.0,0.0
3891,75.0,120.0,120.0,1.0,0.0
3892,73.0,120.0,120.0,1.0,0.0
3893,71.0,120.0,120.0,1.0,0.0
3894,70.0,120.0,120.0,1.0,0.0
3895,71.0,120.0,120.0,1.0,0.0
3896,73.0,96.0,120.0,1.0,0.0
3897,71.0,264.0,90.0,1.0,0.0
3898,49.0,120.0,480.0,5.0,0.0
3899,52.0,0.0,480.0,4.0,0.0
3900,58.0,0.0,480.0,4.0,0.0
3901,76.0,120.0,120.0,1.0,0.0
3902,75.0,120.0,120.0,1.0,0.0
3903,73.0,0.0,120.0,1.0,0.0
3904,72.0,120.0,120.0,1.0,0.0
3905,73.0,120.0,120.0,1.0,0.0
3906,75.0,96.0,120.0,1.0,0.0
3907,73.0,984.0,90.0,1.0,0.0
3908,78.0,105.0,1980.0,1.0,0.0
3909,51.0,480.0,480.0,4.0,0.0
3910,54.0,480.0,480.0,3.0,0.0
3911,59.0,75.0,480.0,3.0,0.0
3912,76.0,60.0,120.0,1.0,0.0
3913,75.0,60.0,120.0,1.0,0.0
3914,73.0,60.0,120.0,1.0,0.0
3915,71.0,60.0,120.0,1.0,0.0
3916,70.0,60.0,120.0,1.0,0.0
3917,68.0,60.0,120.0,1.0,0.0
3918,66.0,60.0,120.0,1.0,0.0
3919,64.0,60.0,120.0,1.0,0.0
3920,63.0,60.0,120.0,1.0,0.0
3921,61.0,60.0,120.0,1.0,0.0
3922,59.0,60.0,120.0,1.0,0.0
3923,58.0,60.0,120.0,1.0,0.0
3924,56.0,60.0,120.0,1.0,0.0
3925,54.0,60.0,120.0,1.0,0.0
3926,52.0,420.0,120.0,1.0,0.0
3927,51.0,533.0,900.0,1.0,0.0
3928,32.0,240.0,240.0,5.0,0.0
3929,35.0,180.0,240.0,3.0,0.0
3930,44.0,7.0,180.0,3.0,0.0
3931,49.0,15.0,900.0,1.0,0.0
3932,28.0,240.0,240.0,5.0,0.0
3933,32.0,172.0,240.0,3.0,0.0
3934,37.0,533.0,180.0,3.0,0.0
3935,47.0,240.0,1200.0,1.0,0.0
3936,29.0,240.0,240.0,5.0,0.0
3937,32.0,187.0,240.0,3.0,0.0
3938,37.0,293.0,180.0,3.0,0.0
3939,28.0,240.0,480.0,5.0,0.0
3940,46.0,240.0,480.0,1.0,0.0
3941,35.0,240.0,480.0,5.0,0.0
3942,44.0,240.0,480.0,1.0,0.0
3943,34.0,240.0,480.0,5.0,0.0
3944,42.0,202.0,480.0,1.0,0.0
3945,32.0,1215.0,450.0,5.0,0.0
3946,41.0,0.0,210.0,1.0,0.0
3947,34.0,60.0,1920.0,4.0,0.0
3948,37.0,0.0,1920.0,4.0,0.0
3949,40.0,23.0,1170.0,1.0,0.0
3950,30.0,0.0,1920.0,5.0,0.0
3951,42.0,60.0,60.0,1.0,0.0
3952,40.0,60.0,60.0,1.0,0.0
3953,39.0,60.0,60.0,1.0,0.0
3954,40.0,60.0,60.0,1.0,0.0
3955,42.0,60.0,60.0,1.0,0.0
3956,44.0,60.0,60.0,1.0,0.0
3957,46.0,60.0,60.0,1.0,0.0
3958,47.0,60.0,60.0,1.0,0.0
3959,49.0,60.0,60.0,1.0,0.0
3960,51.0,60.0,60.0,1.0,0.0
3961,52.0,60.0,60.0,1.0,0.0
3962,54.0,60.0,60.0,1.0,0.0
3963,56.0,0.0,60.0,1.0,0.0
3964,58.0,60.0,60.0,1.0,0.0
3965,59.0,60.0,60.0,1.0,0.0
3966,61.0,60.0,60.0,1.0,0.0
3967,63.0,60.0,60.0,1.0,0.0
3968,64.0,60.0,60.0,1.0,0.0
3969,66.0,60.0,60.0,1.0,0.0
3970,68.0,60.0,60.0,1.0,0.0
3971,70.0,60.0,60.0,1.0,0.0
3972,71.0,60.0,60.0,1.0,0.0
3973,73.0,60.0,60.0,1.0,0.0
3974,75.0,60.0,60.0,1.0,0.0
3975,76.0,60.0,60.0,1.0,0.0
3976,78.0,60.0,60.0,1.0,0.0
3977,80.0,60.0,60.0,1.0,0.0
3978,82.0,60.0,60.0,1.0,0.0
3979,83.0,130.0,60.0,1.0,0.0
3980,85.0,160.0,120.0,1.0,0.0
3981,82.0,160.0,120.0,1.0,0.0
3982,78.0,270.0,120.0,1.0,0.0
3983,77.0,192.0,240.0,1.0,0.0
3984,76.0,348.0,180.0,1.0,0.0
3985,47.0,53.0,420.0,5.0,0.0
3986,76.0,60.0,60.0,1.0,0.0
3987,75.0,60.0,60.0,1.0,0.0
3988,73.0,7.0,60.0,1.0,0.0
3989,75.0,240.0,60.0,1.0,0.0
3990,78.0,192.0,240.0,1.0,0.0
3991,75.0,348.0,180.0,1.0,0.0
3992,51.0,53.0,420.0,5.0,0.0
3993,73.0,60.0,60.0,1.0,0.0
3994,71.0,60.0,60.0,1.0,0.0
3995,70.0,7.0,60.0,1.0,0.0
3996,71.0,240.0,60.0,1.0,0.0
3997,75.0,240.0,240.0,1.0,0.0
3998,71.0,300.0,240.0,1.0,0.0
3999,52.0,53.0,420.0,5.0,0.0
4000,70.0,60.0,60.0,1.0,0.0
4001,68.0,60.0,60.0,1.0,0.0
4002,67.0,7.0,60.0,1.0,0.0
4003,68.0,240.0,60.0,1.0,0.0
4004,71.0,192.0,240.0,1.0,0.0
4005,68.0,348.0,180.0,1.0,0.0
4006,56.0,53.0,420.0,5.0,0.0
4007,66.0,60.0,60.0,1.0,0.0
4008,64.0,60.0,60.0,1.0,0.0
4009,63.0,7.0,60.0,1.0,0.0
4010,64.0,240.0,60.0,1.0,0.0
4011,68.0,192.0,240.0,1.0,0.0
4012,64.0,168.0,180.0,1.0,0.0
4013,63.0,120.0,120.0,1.0,0.0
4014,42.0,120.0,240.0,5.0,0.0
4015,66.0,120.0,240.0,1.0,0.0
4016,51.0,120.0,240.0,3.0,0.0
4017,65.0,120.0,240.0,1.0,0.0
4018,47.0,120.0,240.0,3.0,0.0
4019,64.0,120.0,240.0,1.0,0.0
4020,51.0,40.0,240.0,3.0,0.0
4021,63.0,0.0,120.0,1.0,0.0
4022,42.0,0.0,240.0,5.0,0.0
4023,61.0,40.0,40.0,1.0,0.0
4024,63.0,40.0,40.0,1.0,0.0
4025,61.0,40.0,40.0,1.0,0.0
4026,63.0,40.0,40.0,1.0,0.0
4027,61.0,40.0,40.0,1.0,0.0
4028,63.0,40.0,40.0,1.0,0.0
4029,61.0,40.0,40.0,1.0,0.0
4030,52.0,40.0,240.0,3.0,0.0
4031,63.0,40.0,40.0,1.0,0.0
4032,61.0,40.0,40.0,1.0,0.0
4033,63.0,40.0,40.0,1.0,0.0
4034,61.0,40.0,40.0,1.0,0.0
4035,63.0,0.0,40.0,1.0,0.0
4036,61.0,40.0,40.0,1.0,0.0
4037,46.0,0.0,240.0,3.0,0.0
4038,63.0,40.0,40.0,1.0,0.0
4039,61.0,40.0,40.0,1.0,0.0
4040,63.0,40.0,40.0,1.0,0.0
4041,61.0,40.0,40.0,1.0,0.0
4042,63.0,40.0,40.0,1.0,0.0
4043,52.0,48.0,180.0,3.0,0.0
4044,61.0,40.0,40.0,1.0,0.0
4045,63.0,40.0,40.0,1.0,0.0
4046,61.0,60.0,40.0,1.0,0.0
4047,59.0,12.0,60.0,1.0,0.0
4048,61.0,120.0,60.0,1.0,0.0
4049,59.0,120.0,480.0,1.0,0.0
4050,47.0,120.0,120.0,4.0,0.0
4051,51.0,120.0,120.0,4.0,0.0
4052,54.0,120.0,120.0,4.0,0.0
4053,51.0,0.0,120.0,4.0,0.0
4054,54.0,120.0,120.0,4.0,0.0
4055,51.0,120.0,120.0,4.0,0.0
4056,54.0,96.0,120.0,4.0,0.0
4057,51.0,144.0,90.0,4.0,0.0
4058,58.0,120.0,120.0,1.0,0.0
4059,52.0,120.0,480.0,4.0,0.0
4060,42.0,0.0,480.0,5.0,0.0
4061,61.0,120.0,120.0,1.0,0.0
4062,68.0,120.0,120.0,1.0,0.0
4063,66.0,0.0,120.0,1.0,0.0
4064,68.0,120.0,120.0,1.0,0.0
4065,66.0,120.0,120.0,1.0,0.0
4066,68.0,96.0,120.0,1.0,0.0
4067,66.0,144.0,90.0,1.0,0.0
4068,66.0,120.0,480.0,1.0,0.0
4069,47.0,120.0,120.0,4.0,0.0
4070,51.0,120.0,120.0,4.0,0.0
4071,54.0,120.0,120.0,4.0,0.0
4072,51.0,0.0,120.0,4.0,0.0
4073,54.0,120.0,120.0,4.0,0.0
4074,71.0,120.0,240.0,1.0,0.0
4075,51.0,0.0,120.0,4.0,0.0
4076,54.0,96.0,120.0,4.0,0.0
4077,51.0,144.0,90.0,4.0,0.0
4078,58.0,120.0,120.0,1.0,0.0
4079,42.0,0.0,480.0,5.0,0.0
4080,52.0,120.0,480.0,4.0,0.0
4081,61.0,120.0,120.0,1.0,0.0
4082,68.0,120.0,120.0,1.0,0.0
4083,66.0,0.0,120.0,1.0,0.0
4084,68.0,120.0,120.0,1.0,0.0
4085,66.0,120.0,120.0,1.0,0.0
4086,68.0,96.0,120.0,1.0,0.0
4087,66.0,144.0,90.0,1.0,0.0
4088,66.0,0.0,480.0,1.0,0.0
4089,47.0,120.0,120.0,4.0,0.0
4090,51.0,120.0,120.0,4.0,0.0
4091,54.0,120.0,120.0,4.0,0.0
4092,51.0,120.0,120.0,4.0,0.0
4093,54.0,120.0,120.0,4.0,0.0
4094,59.0,120.0,240.0,1.0,0.0
4095,51.0,0.0,120.0,4.0,0.0
4096,54.0,96.0,120.0,4.0,0.0
4097,51.0,144.0,90.0,4.0,0.0
4098,52.0,120.0,960.0,4.0,0.0
4099,42.0,0.0,960.0,5.0,0.0
4100,58.0,120.0,120.0,1.0,0.0
4101,61.0,120.0,120.0,1.0,0.0
4102,68.0,120.0,120.0,1.0,0.0
4103,66.0,120.0,120.0,1.0,0.0
4104,68.0,120.0,120.0,1.0,0.0
4105,66.0,120.0,120.0,1.0,0.0
4106,68.0,96.0,120.0,1.0,0.0
4107,66.0,24.0,90.0,1.0,0.0
4108,47.0,73.0,360.0,5.0,0.0
4109,66.0,120.0,120.0,1.0,0.0
4110,51.0,0.0,360.0,4.0,0.0
4111,59.0,80.0,120.0,1.0,0.0
4112,71.0,47.0,90.0,1.0,0.0
4113,71.0,160.0,90.0,1.0,0.0
4114,71.0,120.0,120.0,1.0,0.0
4115,63.0,80.0,120.0,1.0,0.0
4116,75.0,120.0,90.0,1.0,0.0
4117,75.0,160.0,90.0,1.0,0.0
4118,75.0,120.0,120.0,1.0,0.0
4119,66.0,80.0,120.0,1.0,0.0
4120,78.0,120.0,90.0,1.0,0.0
4121,78.0,120.0,90.0,1.0,0.0
4122,78.0,120.0,90.0,1.0,0.0
4123,64.0,240.0,480.0,4.0,0.0
4124,54.0,0.0,480.0,5.0,0.0
4125,58.0,0.0,480.0,4.0,0.0
4126,78.0,120.0,90.0,1.0,0.0
4127,78.0,120.0,90.0,1.0,0.0
4128,78.0,40.0,90.0,1.0,0.0
4129,71.0,0.0,240.0,1.0,0.0
4130,63.0,0.0,240.0,4.0,0.0
4131,59.0,320.0,240.0,5.0,0.0
4132,54.0,240.0,480.0,5.0,0.0
4133,78.0,120.0,90.0,1.0,0.0
4134,64.0,0.0,480.0,4.0,0.0
4135,58.0,0.0,480.0,4.0,0.0
4136,78.0,120.0,90.0,1.0,0.0
4137,78.0,120.0,90.0,1.0,0.0
4138,78.0,40.0,90.0,1.0,0.0
4139,63.0,320.0,240.0,4.0,0.0
4140,59.0,0.0,240.0,5.0,0.0
4141,71.0,0.0,240.0,1.0,0.0
4142,54.0,0.0,480.0,5.0,0.0
4143,64.0,240.0,480.0,4.0,0.0
4144,78.0,120.0,90.0,1.0,0.0
4145,58.0,0.0,480.0,4.0,0.0
4146,78.0,120.0,90.0,1.0,0.0
4147,78.0,120.0,90.0,1.0,0.0
4148,78.0,40.0,90.0,1.0,0.0
4149,59.0,0.0,240.0,5.0,0.0
4150,83.0,800.0,240.0,1.0,0.0
4151,63.0,0.0,240.0,4.0,0.0
4152,42.0,120.0,90.0,5.0,0.0
4153,54.0,0.0,960.0,2.0,0.0
4154,52.0,0.0,960.0,2.0,0.0
4155,58.0,240.0,960.0,1.0,0.0
4156,42.0,120.0,90.0,5.0,0.0
4157,42.0,120.0,90.0,5.0,0.0
4158,42.0,120.0,90.0,5.0,0.0
4159,42.0,120.0,90.0,5.0,0.0
4160,42.0,120.0,90.0,5.0,0.0
4161,42.0,120.0,90.0,5.0,0.0
4162,42.0,40.0,90.0,5.0,0.0
4163,54.0,0.0,240.0,2.0,0.0
4164,51.0,0.0,240.0,2.0,0.0
4165,59.0,320.0,240.0,1.0,0.0
4166,35.0,0.0,240.0,5.0,0.0
4167,42.0,120.0,90.0,5.0,0.0
4168,61.0,240.0,480.0,1.0,0.0
4169,54.0,0.0,480.0,2.0,0.0
4170,58.0,0.0,480.0,2.0,0.0
4171,42.0,120.0,90.0,5.0,0.0
4172,42.0,120.0,90.0,5.0,0.0
4173,42.0,40.0,90.0,5.0,0.0
4174,51.0,320.0,240.0,2.0,0.0
4175,54.0,0.0,240.0,2.0,0.0
4176,35.0,0.0,240.0,5.0,0.0
4177,59.0,0.0,240.0,1.0,0.0
4178,61.0,0.0,480.0,1.0,0.0
4179,52.0,0.0,480.0,2.0,0.0
4180,58.0,0.0,480.0,2.0,0.0
4181,30.0,120.0,90.0,5.0,0.0
4182,30.0,120.0,90.0,5.0,0.0
4183,30.0,120.0,90.0,5.0,0.0
4184,30.0,40.0,90.0,5.0,0.0
4185,51.0,3600.0,240.0,2.0,0.0
4186,54.0,240.0,15.0,2.0,0.0
4187,59.0,0.0,240.0,1.0,0.0
4188,35.0,0.0,240.0,5.0,0.0
4189,75.0,385.0,960.0,1.0,0.0
4190,56.0,0.0,1320.0,5.0,0.0
4191,59.0,600.0,1320.0,4.0,0.0
4192,71.0,455.0,390.0,1.0,0.0
4193,68.0,385.0,960.0,1.0,0.0
4194,58.0,7.0,1320.0,5.0,0.0
4195,61.0,593.0,1320.0,4.0,0.0
4196,67.0,455.0,390.0,1.0,0.0
4197,76.0,385.0,960.0,1.0,0.0
4198,55.0,0.0,1320.0,5.0,0.0
4199,58.0,593.0,1320.0,4.0,0.0
4200,75.0,462.0,390.0,1.0,0.0
4201,73.0,385.0,960.0,1.0,0.0
4202,56.0,593.0,1320.0,5.0,0.0
4203,63.0,7.0,1320.0,4.0,0.0
4204,71.0,455.0,390.0,1.0,0.0
4205,75.0,385.0,960.0,1.0,0.0
4206,59.0,480.0,960.0,5.0,0.0
4207,63.0,0.0,1440.0,4.0,0.0
4208,80.0,95.0,390.0,1.0,0.0
4209,78.0,367.0,960.0,1.0,0.0
4210,60.0,480.0,480.0,5.0,0.0
4211,64.0,0.0,840.0,4.0,0.0
4212,61.0,18.0,840.0,5.0,0.0
4213,76.0,455.0,390.0,1.0,0.0
4214,75.0,385.0,960.0,1.0,0.0
4215,63.0,0.0,360.0,5.0,0.0
4216,66.0,600.0,360.0,4.0,0.0
4217,64.0,480.0,960.0,5.0,0.0
4218,68.0,367.0,1920.0,4.0,0.0
4219,73.0,95.0,390.0,1.0,0.0
4220,74.0,0.0,960.0,1.0,0.0
4221,65.0,480.0,480.0,5.0,0.0
4222,63.0,18.0,840.0,5.0,0.0
4223,67.0,0.0,360.0,4.0,0.0
4224,75.0,1055.0,390.0,1.0,0.0
4225,63.0,385.0,960.0,1.0,0.0
4226,47.0,593.0,1320.0,4.0,0.0
4227,44.0,7.0,1320.0,5.0,0.0
4228,59.0,455.0,390.0,1.0,0.0
4229,56.0,385.0,960.0,1.0,0.0
4230,49.0,7.0,1320.0,4.0,0.0
4231,46.0,593.0,1320.0,5.0,0.0
4232,55.0,455.0,390.0,1.0,0.0
4233,64.0,385.0,960.0,1.0,0.0
4234,43.0,0.0,1320.0,5.0,0.0
4235,46.0,600.0,1320.0,4.0,0.0
4236,63.0,455.0,390.0,1.0,0.0
4237,61.0,385.0,960.0,1.0,0.0
4238,42.0,593.0,1320.0,5.0,0.0
4239,45.0,7.0,1320.0,4.0,0.0
4240,60.0,455.0,390.0,1.0,0.0
4241,69.0,385.0,960.0,1.0,0.0
4242,48.0,0.0,1440.0,5.0,0.0
4243,51.0,480.0,960.0,4.0,0.0
4244,68.0,95.0,390.0,1.0,0.0
4245,56.0,7.0,1800.0,4.0,0.0
4246,66.0,480.0,480.0,1.0,0.0
4247,49.0,0.0,480.0,5.0,0.0
4248,64.0,480.0,480.0,1.0,0.0
4249,63.0,360.0,480.0,1.0,0.0
4250,51.0,0.0,480.0,5.0,0.0
4251,52.0,0.0,360.0,5.0,0.0
4252,62.0,593.0,360.0,1.0,0.0
4253,51.0,480.0,480.0,5.0,0.0
4254,59.0,0.0,480.0,2.0,0.0
4255,63.0,0.0,480.0,1.0,0.0
4256,59.0,0.0,480.0,1.0,0.0
4257,56.0,360.0,480.0,2.0,0.0
4258,49.0,0.0,360.0,4.0,0.0
4259,39.0,473.0,360.0,5.0,0.0
4260,58.0,0.0,360.0,1.0,0.0
4261,55.0,7.0,360.0,2.0,0.0
4262,44.0,7.0,360.0,5.0,0.0
4263,56.0,713.0,360.0,1.0,0.0
4264,47.0,0.0,360.0,4.0,0.0
4265,73.0,120.0,120.0,1.0,0.0
4266,71.0,120.0,120.0,1.0,0.0
4267,70.0,96.0,120.0,1.0,0.0
4268,68.0,384.0,90.0,1.0,0.0
4269,75.0,65.0,360.0,1.0,0.0
4270,55.0,0.0,360.0,5.0,0.0
4271,58.0,7.0,360.0,5.0,0.0
4272,51.0,408.0,180.0,3.0,0.0
4273,63.0,72.0,360.0,2.0,0.0
4274,56.0,0.0,360.0,5.0,0.0
4275,59.0,0.0,360.0,5.0,0.0
4276,75.0,0.0,360.0,1.0,0.0
4277,51.0,408.0,180.0,3.0,0.0
4278,61.0,65.0,360.0,5.0,0.0
4279,75.0,0.0,360.0,1.0,0.0
4280,63.0,0.0,360.0,2.0,0.0
4281,58.0,7.0,360.0,5.0,0.0
4282,51.0,408.0,180.0,3.0,0.0
4283,63.0,0.0,840.0,2.0,0.0
4284,56.0,65.0,360.0,5.0,0.0
4285,59.0,7.0,360.0,5.0,0.0
4286,75.0,0.0,840.0,1.0,0.0
4287,51.0,408.0,180.0,3.0,0.0
4288,56.0,7.0,360.0,5.0,0.0
4289,59.0,65.0,360.0,5.0,0.0
4290,51.0,168.0,180.0,3.0,0.0
4291,56.0,65.0,360.0,5.0,0.0
4292,59.0,7.0,360.0,5.0,0.0
4293,73.0,120.0,120.0,1.0,0.0
4294,71.0,120.0,120.0,1.0,0.0
4295,51.0,24.0,180.0,3.0,0.0
4296,70.0,0.0,120.0,1.0,0.0
4297,68.0,384.0,90.0,1.0,0.0
4298,58.0,65.0,360.0,5.0,0.0
4299,75.0,7.0,360.0,1.0,0.0
4300,55.0,0.0,360.0,5.0,0.0
4301,51.0,408.0,180.0,3.0,0.0
4302,63.0,0.0,360.0,2.0,0.0
4303,75.0,65.0,360.0,1.0,0.0
4304,59.0,0.0,360.0,5.0,0.0
4305,56.0,7.0,360.0,5.0,0.0
4306,51.0,408.0,180.0,3.0,0.0
4307,63.0,65.0,360.0,2.0,0.0
4308,75.0,7.0,360.0,1.0,0.0
4309,61.0,0.0,360.0,5.0,0.0
4310,58.0,0.0,360.0,5.0,0.0
4311,51.0,408.0,180.0,3.0,0.0
4312,56.0,7.0,360.0,5.0,0.0
4313,59.0,65.0,360.0,5.0,0.0
4314,63.0,65.0,840.0,2.0,0.0
4315,75.0,7.0,840.0,1.0,0.0
4316,51.0,400.0,180.0,3.0,0.0
4317,59.0,8.0,360.0,5.0,0.0
4318,56.0,0.0,360.0,5.0,0.0
4319,51.0,168.0,180.0,3.0,0.0
4320,56.0,65.0,360.0,5.0,0.0
4321,59.0,8.0,360.0,5.0,0.0
4322,73.0,120.0,120.0,1.0,0.0
4323,71.0,112.0,120.0,1.0,0.0
4324,70.0,7.0,120.0,1.0,0.0
4325,51.0,24.0,180.0,3.0,0.0
4326,68.0,49.0,90.0,1.0,0.0
4327,67.0,40.0,30.0,2.0,0.0
4328,70.0,40.0,30.0,2.0,0.0
4329,76.0,685.0,30.0,1.0,0.0
4330,37.0,480.0,300.0,5.0,0.0
4331,49.0,0.0,300.0,5.0,0.0
4332,49.0,195.0,300.0,5.0,0.0
4333,61.0,0.0,300.0,5.0,0.0
4334,68.0,40.0,30.0,2.0,0.0
4335,71.0,40.0,30.0,2.0,0.0
4336,75.0,685.0,30.0,1.0,0.0
4337,47.0,0.0,300.0,5.0,0.0
4338,35.0,480.0,300.0,5.0,0.0
4339,47.0,0.0,300.0,5.0,0.0
4340,59.0,480.0,300.0,5.0,0.0
4341,58.0,195.0,300.0,5.0,0.0
4342,46.0,0.0,300.0,5.0,0.0
4343,70.0,40.0,30.0,2.0,0.0
4344,73.0,40.0,30.0,2.0,0.0
4345,79.0,400.0,30.0,1.0,0.0
4346,73.0,40.0,30.0,2.0,0.0
4347,79.0,40.0,30.0,2.0,0.0
4348,82.0,760.0,30.0,1.0,0.0
4349,55.0,0.0,390.0,5.0,0.0
4350,43.0,0.0,390.0,5.0,0.0
4351,85.0,0.0,390.0,1.0,0.0
4352,75.0,2495.0,390.0,2.0,0.0
4353,82.0,0.0,390.0,2.0,0.0
4354,71.0,1320.0,1440.0,1.0,0.0
4355,62.0,0.0,1320.0,1.0,0.0
4356,56.0,840.0,1320.0,5.0,0.0
4357,59.0,0.0,1320.0,4.0,0.0
4358,58.0,360.0,960.0,4.0,0.0
4359,61.0,0.0,960.0,4.0,0.0
4360,63.0,240.0,720.0,1.0,0.0
4361,55.0,0.0,960.0,5.0,0.0
4362,64.0,0.0,240.0,1.0,0.0
4363,56.0,0.0,360.0,5.0,0.0
4364,59.0,7.0,360.0,4.0,0.0
4365,63.0,353.0,360.0,1.0,0.0
4366,63.0,145.0,240.0,1.0,0.0
4367,59.0,0.0,240.0,2.0,0.0
4368,49.0,35.0,390.0,5.0,0.0
4369,58.0,408.0,180.0,2.0,0.0
4370,61.0,12.0,180.0,1.0,0.0
4371,51.0,455.0,390.0,5.0,0.0
4372,59.0,7.0,360.0,1.0,0.0
4373,56.0,18.0,360.0,2.0,0.0
4374,39.0,462.0,390.0,5.0,0.0
4375,55.0,7.0,360.0,2.0,0.0
4376,58.0,18.0,360.0,1.0,0.0
4377,56.0,18.0,360.0,1.0,0.0
4378,44.0,695.0,390.0,5.0,0.0
4379,73.0,120.0,120.0,1.0,0.0
4380,71.0,120.0,120.0,1.0,0.0
4381,70.0,96.0,120.0,1.0,0.0
4382,68.0,384.0,90.0,1.0,0.0
4383,58.0,7.0,360.0,5.0,0.0
4384,75.0,0.0,360.0,1.0,0.0
4385,55.0,65.0,360.0,5.0,0.0
4386,51.0,408.0,180.0,4.0,0.0
4387,56.0,72.0,360.0,5.0,0.0
4388,75.0,0.0,360.0,1.0,0.0
4389,59.0,0.0,360.0,5.0,0.0
4390,63.0,0.0,360.0,2.0,0.0
4391,51.0,408.0,180.0,4.0,0.0
4392,58.0,7.0,360.0,5.0,0.0
4393,61.0,65.0,360.0,5.0,0.0
4394,63.0,0.0,360.0,2.0,0.0
4395,75.0,0.0,360.0,1.0,0.0
4396,51.0,408.0,180.0,4.0,0.0
4397,56.0,65.0,360.0,5.0,0.0
4398,63.0,7.0,840.0,2.0,0.0
4399,75.0,0.0,840.0,1.0,0.0
4400,59.0,7.0,360.0,5.0,0.0
4401,51.0,408.0,180.0,4.0,0.0
4402,56.0,0.0,360.0,5.0,0.0
4403,59.0,65.0,360.0,5.0,0.0
4404,51.0,168.0,180.0,4.0,0.0
4405,59.0,7.0,360.0,5.0,0.0
4406,56.0,65.0,360.0,5.0,0.0
4407,73.0,120.0,120.0,1.0,0.0
4408,71.0,120.0,120.0,1.0,0.0
4409,70.0,0.0,120.0,1.0,0.0
4410,51.0,24.0,180.0,4.0,0.0
4411,68.0,384.0,90.0,1.0,0.0
4412,75.0,7.0,360.0,1.0,0.0
4413,58.0,65.0,360.0,5.0,0.0
4414,55.0,0.0,360.0,5.0,0.0
4415,51.0,408.0,180.0,4.0,0.0
4416,75.0,65.0,360.0,1.0,0.0
4417,56.0,7.0,360.0,5.0,0.0
4418,63.0,0.0,360.0,2.0,0.0
4419,59.0,0.0,360.0,5.0,0.0
4420,51.0,408.0,180.0,4.0,0.0
4421,63.0,65.0,360.0,2.0,0.0
4422,58.0,0.0,360.0,5.0,0.0
4423,75.0,7.0,360.0,1.0,0.0
4424,61.0,0.0,360.0,5.0,0.0
4425,51.0,408.0,180.0,4.0,0.0
4426,75.0,0.0,840.0,1.0,0.0
4427,56.0,7.0,360.0,5.0,0.0
4428,63.0,65.0,840.0,2.0,0.0
4429,59.0,65.0,360.0,5.0,0.0
4430,51.0,400.0,180.0,4.0,0.0
4431,59.0,8.0,360.0,5.0,0.0
4432,56.0,7.0,360.0,5.0,0.0
4433,51.0,168.0,180.0,4.0,0.0
4434,73.0,120.0,120.0,1.0,0.0
4435,56.0,65.0,360.0,5.0,0.0
4436,59.0,8.0,360.0,5.0,0.0
4437,71.0,112.0,120.0,1.0,0.0
4438,51.0,24.0,180.0,4.0,0.0
4439,70.0,7.0,120.0,1.0,0.0
4440,68.0,49.0,90.0,1.0,0.0
4441,67.0,40.0,30.0,2.0,0.0
4442,70.0,40.0,30.0,2.0,0.0
4443,76.0,685.0,30.0,1.0,0.0
4444,49.0,480.0,300.0,5.0,0.0
4445,37.0,0.0,300.0,5.0,0.0
4446,61.0,0.0,300.0,5.0,0.0
4447,49.0,195.0,300.0,5.0,0.0
4448,68.0,40.0,30.0,2.0,0.0
4449,71.0,40.0,30.0,2.0,0.0
4450,75.0,685.0,30.0,1.0,0.0
4451,35.0,480.0,300.0,5.0,0.0
4452,47.0,0.0,300.0,5.0,0.0
4453,59.0,480.0,300.0,5.0,0.0
4454,47.0,0.0,300.0,5.0,0.0
4455,46.0,0.0,300.0,5.0,0.0
4456,58.0,195.0,300.0,5.0,0.0
4457,70.0,40.0,30.0,2.0,0.0
4458,73.0,40.0,30.0,2.0,0.0
4459,79.0,400.0,30.0,1.0,0.0
4460,73.0,40.0,30.0,2.0,0.0
4461,79.0,40.0,30.0,2.0,0.0
4462,82.0,760.0,30.0,1.0,0.0
4463,85.0,2495.0,390.0,1.0,0.0
4464,55.0,0.0,390.0,5.0,0.0
4465,82.0,0.0,390.0,2.0,0.0
4466,75.0,0.0,390.0,2.0,0.0
4467,43.0,0.0,390.0,5.0,0.0
4468,71.0,1320.0,1440.0,1.0,0.0
4469,56.0,840.0,1320.0,5.0,0.0
4470,59.0,0.0,1320.0,4.0,0.0
4471,62.0,0.0,1320.0,1.0,0.0
4472,61.0,0.0,960.0,4.0,0.0
4473,63.0,240.0,720.0,1.0,0.0
4474,55.0,0.0,960.0,5.0,0.0
4475,58.0,0.0,960.0,4.0,0.0
4476,64.0,360.0,240.0,1.0,0.0
4477,59.0,7.0,360.0,4.0,0.0
4478,56.0,0.0,360.0,5.0,0.0
4479,63.0,353.0,360.0,1.0,0.0
4480,63.0,0.0,240.0,1.0,0.0
4481,49.0,35.0,390.0,5.0,0.0
4482,59.0,145.0,240.0,2.0,0.0
4483,58.0,408.0,180.0,2.0,0.0
4484,61.0,12.0,180.0,1.0,0.0
4485,56.0,18.0,360.0,2.0,0.0
4486,51.0,455.0,390.0,5.0,0.0
4487,59.0,7.0,360.0,1.0,0.0
4488,58.0,18.0,360.0,1.0,0.0
4489,39.0,462.0,390.0,5.0,0.0
4490,55.0,7.0,360.0,2.0,0.0
4491,56.0,18.0,360.0,1.0,0.0
4492,44.0,2375.0,390.0,5.0,0.0
4493,30.0,0.0,1320.0,5.0,0.0
4494,42.0,0.0,1320.0,5.0,0.0
4495,54.0,7.0,1320.0,2.0,0.0
4496,52.0,0.0,1320.0,2.0,0.0
4497,58.0,0.0,1320.0,1.0,0.0
4498,49.0,593.0,1320.0,2.0,0.0
4499,47.0,240.0,960.0,5.0,0.0
4500,51.0,240.0,240.0,3.0,0.0
4501,54.0,240.0,240.0,3.0,0.0
4502,51.0,0.0,240.0,3.0,0.0
4503,54.0,192.0,240.0,3.0,0.0
4504,51.0,528.0,180.0,3.0,0.0
4505,47.0,0.0,960.0,5.0,0.0
4506,51.0,240.0,240.0,3.0,0.0
4507,54.0,145.0,240.0,3.0,0.0
4508,66.0,95.0,390.0,1.0,0.0
4509,51.0,240.0,240.0,3.0,0.0
4510,54.0,145.0,240.0,3.0,0.0
4511,66.0,47.0,390.0,1.0,0.0
4512,51.0,288.0,180.0,3.0,0.0
4513,66.0,80.0,240.0,1.0,0.0
4514,47.0,0.0,960.0,5.0,0.0
4515,68.0,80.0,90.0,1.0,0.0
4516,49.0,240.0,240.0,3.0,0.0
4517,66.0,80.0,90.0,1.0,0.0
4518,65.0,0.0,90.0,1.0,0.0
4519,66.0,240.0,240.0,1.0,0.0
4520,52.0,0.0,240.0,3.0,0.0
4521,49.0,0.0,240.0,3.0,0.0
4522,68.0,240.0,240.0,1.0,0.0
4523,52.0,135.0,240.0,3.0,0.0
4524,66.0,57.0,360.0,1.0,0.0
4525,49.0,528.0,180.0,3.0,0.0
4526,47.0,0.0,960.0,5.0,0.0
4527,76.0,0.0,960.0,1.0,0.0
4528,49.0,240.0,240.0,3.0,0.0
4529,52.0,240.0,240.0,3.0,0.0
4530,49.0,240.0,240.0,3.0,0.0
4531,70.0,72.0,360.0,1.0,0.0
4532,52.0,120.0,240.0,3.0,0.0
4533,49.0,528.0,180.0,3.0,0.0
4534,73.0,240.0,960.0,1.0,0.0
4535,47.0,0.0,960.0,5.0,0.0
4536,51.0,240.0,240.0,3.0,0.0
4537,54.0,240.0,240.0,3.0,0.0
4538,51.0,0.0,240.0,3.0,0.0
4539,54.0,120.0,240.0,3.0,0.0
4540,71.0,72.0,360.0,1.0,0.0
4541,51.0,528.0,180.0,3.0,0.0
4542,47.0,0.0,960.0,5.0,0.0
4543,51.0,240.0,240.0,3.0,0.0
4544,66.0,95.0,390.0,1.0,0.0
4545,54.0,145.0,240.0,3.0,0.0
4546,51.0,240.0,240.0,3.0,0.0
4547,66.0,47.0,390.0,1.0,0.0
4548,54.0,145.0,240.0,3.0,0.0
4549,51.0,288.0,180.0,3.0,0.0
4550,47.0,240.0,960.0,5.0,0.0
4551,65.0,240.0,240.0,1.0,0.0
4552,49.0,0.0,240.0,3.0,0.0
4553,66.0,240.0,240.0,1.0,0.0
4554,68.0,240.0,240.0,1.0,0.0
4555,52.0,0.0,240.0,3.0,0.0
4556,69.0,0.0,240.0,1.0,0.0
4557,49.0,0.0,240.0,3.0,0.0
4558,70.0,0.0,240.0,1.0,0.0
4559,52.0,192.0,240.0,3.0,0.0
4560,71.0,240.0,240.0,1.0,0.0
4561,49.0,48.0,180.0,3.0,0.0
4562,47.0,0.0,960.0,5.0,0.0
4563,72.0,240.0,240.0,1.0,0.0
4564,73.0,0.0,240.0,1.0,0.0
4565,49.0,240.0,240.0,3.0,0.0
4566,74.0,240.0,240.0,1.0,0.0
4567,52.0,0.0,240.0,3.0,0.0
4568,49.0,0.0,240.0,3.0,0.0
4569,75.0,240.0,240.0,1.0,0.0
4570,52.0,192.0,240.0,3.0,0.0
4571,76.0,0.0,240.0,1.0,0.0
4572,49.0,528.0,180.0,3.0,0.0
4573,70.0,0.0,180.0,1.0,0.0
4574,73.0,0.0,960.0,1.0,0.0
4575,47.0,0.0,960.0,5.0,0.0
4576,51.0,240.0,240.0,3.0,0.0
4577,54.0,240.0,240.0,3.0,0.0
4578,51.0,240.0,240.0,3.0,0.0
4579,71.0,72.0,360.0,1.0,0.0
4580,54.0,120.0,240.0,3.0,0.0
4581,51.0,528.0,180.0,3.0,0.0
4582,47.0,240.0,960.0,5.0,0.0
4583,51.0,240.0,240.0,3.0,0.0
4584,71.0,95.0,390.0,1.0,0.0
4585,54.0,145.0,240.0,3.0,0.0
4586,51.0,0.0,240.0,3.0,0.0
4587,54.0,145.0,240.0,3.0,0.0
4588,71.0,47.0,390.0,1.0,0.0
4589,51.0,528.0,180.0,3.0,0.0
4590,43.0,155.0,960.0,5.0,0.0
4591,71.0,80.0,720.0,1.0,0.0
4592,47.0,240.0,240.0,3.0,0.0
4593,53.0,0.0,240.0,3.0,0.0
4594,47.0,0.0,240.0,3.0,0.0
4595,73.0,80.0,90.0,1.0,0.0
4596,71.0,80.0,90.0,1.0,0.0
4597,70.0,0.0,90.0,1.0,0.0
4598,53.0,155.0,240.0,3.0,0.0
4599,71.0,85.0,150.0,1.0,0.0
4600,73.0,37.0,150.0,1.0,0.0
4601,47.0,528.0,180.0,3.0,0.0
4602,43.0,240.0,960.0,5.0,0.0
4603,74.0,0.0,960.0,1.0,0.0
4604,47.0,240.0,240.0,3.0,0.0
4605,50.0,240.0,240.0,3.0,0.0
4606,47.0,0.0,240.0,3.0,0.0
4607,50.0,120.0,240.0,3.0,0.0
4608,65.0,72.0,360.0,1.0,0.0
4609,47.0,393.0,180.0,3.0,0.0
4610,66.0,430.0,360.0,1.0,0.0
4611,42.0,0.0,360.0,5.0,0.0
4612,46.0,15.0,360.0,4.0,0.0
4613,54.0,170.0,300.0,5.0,0.0
4614,66.0,240.0,240.0,1.0,0.0
4615,65.0,240.0,240.0,1.0,0.0
4616,66.0,240.0,240.0,1.0,0.0
4617,67.0,240.0,240.0,1.0,0.0
4618,68.0,240.0,240.0,1.0,0.0
4619,69.0,240.0,240.0,1.0,0.0
4620,70.0,240.0,240.0,1.0,0.0
4621,59.0,0.0,480.0,4.0,0.0
4622,71.0,240.0,240.0,1.0,0.0
4623,55.0,0.0,480.0,5.0,0.0
4624,65.0,360.0,240.0,1.0,0.0
4625,54.0,480.0,390.0,5.0,0.0
4626,58.0,0.0,390.0,4.0,0.0
4627,66.0,25.0,360.0,1.0,0.0
4628,42.0,95.0,390.0,5.0,0.0
4629,54.0,240.0,240.0,1.0,0.0
4630,53.0,240.0,240.0,1.0,0.0
4631,54.0,240.0,240.0,1.0,0.0
4632,55.0,240.0,240.0,1.0,0.0
4633,56.0,240.0,240.0,1.0,0.0
4634,57.0,240.0,240.0,1.0,0.0
4635,58.0,240.0,240.0,1.0,0.0
4636,59.0,240.0,240.0,1.0,0.0
4637,43.0,375.0,480.0,5.0,0.0
4638,47.0,0.0,480.0,4.0,0.0
4639,53.0,0.0,240.0,1.0,0.0
4640,54.0,10.0,360.0,1.0,0.0
4641,46.0,0.0,390.0,4.0,0.0
4642,42.0,480.0,390.0,5.0,0.0
4643,30.0,95.0,390.0,5.0,0.0
4644,77.0,240.0,240.0,1.0,0.0
4645,78.0,240.0,240.0,1.0,0.0
4646,77.0,360.0,240.0,1.0,0.0
4647,78.0,495.0,360.0,1.0,0.0
4648,54.0,105.0,360.0,5.0,0.0
4649,65.0,240.0,240.0,1.0,0.0
4650,66.0,240.0,240.0,1.0,0.0
4651,65.0,480.0,240.0,1.0,0.0
4652,66.0,480.0,480.0,1.0,0.0
4653,42.0,0.0,480.0,5.0,0.0
4654,53.0,240.0,240.0,1.0,0.0
4655,54.0,240.0,240.0,1.0,0.0
4656,53.0,375.0,240.0,1.0,0.0
4657,54.0,480.0,360.0,1.0,0.0
4658,30.0,105.0,360.0,5.0,0.0
4659,41.0,240.0,240.0,1.0,0.0
4660,42.0,240.0,240.0,1.0,0.0
4661,41.0,240.0,240.0,1.0,0.0
4662,42.0,240.0,240.0,1.0,0.0
4663,43.0,155.0,240.0,1.0,0.0
4664,44.0,240.0,150.0,1.0,0.0
4665,42.0,240.0,150.0,1.0,0.0
4666,40.0,240.0,150.0,1.0,0.0
4667,39.0,240.0,150.0,1.0,0.0
4668,37.0,240.0,150.0,1.0,0.0
4669,35.0,240.0,150.0,1.0,0.0
4670,34.0,240.0,150.0,1.0,0.0
4671,32.0,240.0,150.0,1.0,0.0
4672,30.0,240.0,150.0,1.0,0.0
4673,28.0,1420.0,150.0,1.0,0.0
4674,27.0,1440.0,1320.0,1.0,0.0
4675,71.0,0.0,1920.0,1.0,0.0
4676,59.0,480.0,1920.0,1.0,0.0
4677,39.0,585.0,1320.0,5.0,0.0
4678,40.0,15.0,1320.0,5.0,0.0
4679,55.0,360.0,480.0,1.0,0.0
4680,67.0,0.0,480.0,1.0,0.0
4681,56.0,0.0,360.0,1.0,0.0
4682,68.0,585.0,360.0,1.0,0.0
4683,56.0,0.0,1320.0,4.0,0.0
4684,72.0,0.0,480.0,1.0,0.0
4685,52.0,1425.0,1320.0,5.0,0.0
4686,60.0,480.0,480.0,1.0,0.0
4687,61.0,360.0,480.0,1.0,0.0
4688,73.0,0.0,480.0,1.0,0.0
4689,76.0,15.0,360.0,1.0,0.0
4690,64.0,0.0,360.0,1.0,0.0
4691,71.0,0.0,2400.0,1.0,0.0
4692,62.0,1080.0,360.0,4.0,0.0
4693,53.0,0.0,360.0,5.0,0.0
4694,63.0,240.0,960.0,4.0,0.0
4695,54.0,15.0,1320.0,5.0,0.0
4696,70.0,72.0,360.0,2.0,0.0
4697,64.0,0.0,360.0,4.0,0.0
4698,75.0,105.0,240.0,1.0,0.0
4699,73.0,478.0,180.0,1.0,0.0
4700,71.0,360.0,480.0,1.0,0.0
4701,47.0,155.0,960.0,5.0,0.0
4702,54.0,50.0,180.0,3.0,0.0
4703,51.0,35.0,360.0,3.0,0.0
4704,71.0,35.0,150.0,1.0,0.0
4705,54.0,50.0,180.0,3.0,0.0
4706,47.0,35.0,360.0,3.0,0.0
4707,70.0,205.0,150.0,1.0,0.0
4708,71.0,35.0,150.0,1.0,0.0
4709,54.0,290.0,180.0,3.0,0.0
4710,46.0,155.0,960.0,5.0,0.0
4711,72.0,155.0,240.0,1.0,0.0
4712,54.0,410.0,180.0,3.0,0.0
4713,73.0,35.0,150.0,1.0,0.0
4714,52.0,35.0,360.0,3.0,0.0
4715,54.0,50.0,180.0,3.0,0.0
4716,73.0,35.0,150.0,1.0,0.0
4717,72.0,205.0,150.0,1.0,0.0
4718,46.0,35.0,360.0,3.0,0.0
4719,73.0,35.0,150.0,1.0,0.0
4720,54.0,290.0,180.0,3.0,0.0
4721,74.0,155.0,240.0,1.0,0.0
4722,45.0,155.0,960.0,5.0,0.0
4723,54.0,410.0,180.0,3.0,0.0
4724,75.0,35.0,150.0,1.0,0.0
4725,47.0,35.0,360.0,3.0,0.0
4726,75.0,35.0,150.0,1.0,0.0
4727,54.0,50.0,180.0,3.0,0.0
4728,73.0,205.0,150.0,1.0,0.0
4729,45.0,35.0,360.0,3.0,0.0
4730,75.0,35.0,150.0,1.0,0.0
4731,54.0,290.0,180.0,3.0,0.0
4732,44.0,155.0,960.0,5.0,0.0
4733,75.0,155.0,240.0,1.0,0.0
4734,54.0,410.0,180.0,3.0,0.0
4735,76.0,35.0,150.0,1.0,0.0
4736,47.0,35.0,360.0,3.0,0.0
4737,76.0,35.0,150.0,1.0,0.0
4738,54.0,50.0,180.0,3.0,0.0
4739,44.0,35.0,360.0,3.0,0.0
4740,75.0,205.0,150.0,1.0,0.0
4741,76.0,35.0,150.0,1.0,0.0
4742,54.0,290.0,180.0,3.0,0.0
4743,78.0,240.0,240.0,1.0,0.0
4744,39.0,155.0,480.0,5.0,0.0
4745,75.0,0.0,240.0,1.0,0.0
4746,83.0,240.0,150.0,1.0,0.0
4747,83.0,240.0,150.0,1.0,0.0
4748,83.0,240.0,150.0,1.0,0.0
4749,83.0,565.0,150.0,1.0,0.0
4750,52.0,0.0,480.0,5.0,0.0
4751,61.0,0.0,480.0,4.0,0.0
4752,73.0,155.0,240.0,1.0,0.0
4753,80.0,240.0,150.0,1.0,0.0
4754,80.0,240.0,150.0,1.0,0.0
4755,80.0,240.0,150.0,1.0,0.0
4756,80.0,565.0,150.0,1.0,0.0
4757,63.0,0.0,480.0,4.0,0.0
4758,54.0,155.0,480.0,5.0,0.0
4759,71.0,0.0,240.0,1.0,0.0
4760,78.0,240.0,150.0,1.0,0.0
4761,78.0,240.0,150.0,1.0,0.0
4762,78.0,240.0,150.0,1.0,0.0
4763,78.0,565.0,150.0,1.0,0.0
4764,61.0,0.0,480.0,4.0,0.0
4765,54.0,0.0,480.0,5.0,0.0
4766,64.0,155.0,240.0,1.0,0.0
4767,70.0,240.0,150.0,1.0,0.0
4768,70.0,240.0,150.0,1.0,0.0
4769,70.0,240.0,150.0,1.0,0.0
4770,70.0,515.0,150.0,1.0,0.0
4771,47.0,155.0,960.0,5.0,0.0
4772,71.0,0.0,480.0,1.0,0.0
4773,63.0,0.0,480.0,2.0,0.0
4774,66.0,360.0,480.0,2.0,0.0
4775,54.0,50.0,180.0,3.0,0.0
4776,51.0,35.0,360.0,3.0,0.0
4777,54.0,50.0,180.0,3.0,0.0
4778,59.0,35.0,150.0,1.0,0.0
4779,47.0,35.0,360.0,3.0,0.0
4780,58.0,205.0,150.0,1.0,0.0
4781,59.0,35.0,150.0,1.0,0.0
4782,54.0,290.0,180.0,3.0,0.0
4783,60.0,155.0,240.0,1.0,0.0
4784,46.0,155.0,960.0,5.0,0.0
4785,61.0,35.0,150.0,1.0,0.0
4786,54.0,410.0,180.0,3.0,0.0
4787,52.0,35.0,360.0,3.0,0.0
4788,61.0,35.0,150.0,1.0,0.0
4789,54.0,50.0,180.0,3.0,0.0
4790,60.0,205.0,150.0,1.0,0.0
4791,46.0,35.0,360.0,3.0,0.0
4792,54.0,290.0,180.0,3.0,0.0
4793,61.0,35.0,150.0,1.0,0.0
4794,45.0,155.0,960.0,5.0,0.0
4795,62.0,155.0,240.0,1.0,0.0
4796,63.0,35.0,150.0,1.0,0.0
4797,54.0,410.0,180.0,3.0,0.0
4798,47.0,35.0,360.0,3.0,0.0
4799,54.0,50.0,180.0,3.0,0.0
4800,63.0,35.0,150.0,1.0,0.0
4801,62.0,205.0,150.0,1.0,0.0
4802,45.0,35.0,360.0,3.0,0.0
4803,54.0,290.0,180.0,3.0,0.0
4804,63.0,35.0,150.0,1.0,0.0
4805,44.0,155.0,960.0,5.0,0.0
4806,63.0,155.0,240.0,1.0,0.0
4807,54.0,410.0,180.0,3.0,0.0
4808,64.0,35.0,150.0,1.0,0.0
4809,47.0,35.0,360.0,3.0,0.0
4810,54.0,50.0,180.0,3.0,0.0
4811,64.0,35.0,150.0,1.0,0.0
4812,63.0,205.0,150.0,1.0,0.0
4813,44.0,35.0,360.0,3.0,0.0
4814,64.0,35.0,150.0,1.0,0.0
4815,54.0,290.0,180.0,3.0,0.0
4816,66.0,240.0,240.0,1.0,0.0
4817,39.0,0.0,480.0,5.0,0.0
4818,63.0,165.0,240.0,1.0,0.0
4819,71.0,230.0,180.0,1.0,0.0
4820,71.0,240.0,150.0,1.0,0.0
4821,71.0,240.0,150.0,1.0,0.0
4822,71.0,565.0,150.0,1.0,0.0
4823,49.0,0.0,480.0,4.0,0.0
4824,40.0,155.0,480.0,5.0,0.0
4825,61.0,0.0,240.0,1.0,0.0
4826,68.0,240.0,150.0,1.0,0.0
4827,68.0,240.0,150.0,1.0,0.0
4828,68.0,240.0,150.0,1.0,0.0
4829,68.0,565.0,150.0,1.0,0.0
4830,51.0,155.0,480.0,4.0,0.0
4831,42.0,0.0,480.0,5.0,0.0
4832,59.0,0.0,240.0,1.0,0.0
4833,66.0,240.0,150.0,1.0,0.0
4834,66.0,240.0,150.0,1.0,0.0
4835,66.0,240.0,150.0,1.0,0.0
4836,66.0,565.0,150.0,1.0,0.0
4837,49.0,0.0,480.0,4.0,0.0
4838,42.0,0.0,480.0,5.0,0.0
4839,52.0,155.0,240.0,1.0,0.0
4840,58.0,240.0,150.0,1.0,0.0
4841,58.0,240.0,150.0,1.0,0.0
4842,58.0,240.0,150.0,1.0,0.0
4843,58.0,565.0,150.0,1.0,0.0
4844,47.0,360.0,480.0,2.0,0.0
4845,59.0,0.0,480.0,1.0,0.0
4846,54.0,0.0,240.0,4.0,0.0
4847,51.0,120.0,360.0,5.0,0.0
4848,54.0,360.0,240.0,4.0,0.0
4849,51.0,120.0,360.0,5.0,0.0
4850,54.0,360.0,240.0,4.0,0.0
4851,42.0,360.0,480.0,1.0,0.0
4852,52.0,120.0,360.0,5.0,0.0
4853,54.0,0.0,240.0,4.0,0.0
4854,52.0,120.0,360.0,5.0,0.0
4855,44.0,360.0,480.0,1.0,0.0
4856,54.0,0.0,240.0,4.0,0.0
4857,46.0,360.0,480.0,1.0,0.0
4858,52.0,72.0,360.0,5.0,0.0
4859,54.0,48.0,180.0,4.0,0.0
4860,47.0,360.0,480.0,1.0,0.0
4861,51.0,120.0,360.0,5.0,0.0
4862,47.0,0.0,240.0,4.0,0.0
4863,42.0,120.0,360.0,5.0,0.0
4864,47.0,360.0,240.0,4.0,0.0
4865,39.0,120.0,360.0,5.0,0.0
4866,42.0,360.0,240.0,4.0,0.0
4867,40.0,120.0,360.0,5.0,0.0
4868,66.0,360.0,480.0,1.0,0.0
4869,42.0,0.0,240.0,4.0,0.0
4870,40.0,120.0,360.0,5.0,0.0
4871,68.0,360.0,480.0,1.0,0.0
4872,42.0,0.0,240.0,4.0,0.0
4873,40.0,72.0,360.0,5.0,0.0
4874,70.0,360.0,480.0,1.0,0.0
4875,42.0,48.0,180.0,4.0,0.0
4876,71.0,360.0,480.0,1.0,0.0
4877,39.0,120.0,360.0,5.0,0.0
4878,35.0,0.0,240.0,4.0,0.0
4879,30.0,120.0,360.0,5.0,0.0
4880,35.0,360.0,240.0,4.0,0.0
4881,27.0,120.0,360.0,5.0,0.0
4882,30.0,360.0,240.0,4.0,0.0
4883,78.0,0.0,480.0,1.0,0.0
4884,28.0,120.0,360.0,5.0,0.0
4885,30.0,360.0,240.0,4.0,0.0
4886,80.0,360.0,480.0,1.0,0.0
4887,28.0,120.0,360.0,5.0,0.0
4888,30.0,0.0,240.0,4.0,0.0
4889,28.0,72.0,360.0,5.0,0.0
4890,82.0,480.0,480.0,1.0,0.0
4891,30.0,48.0,180.0,4.0,0.0
4892,27.0,240.0,720.0,5.0,0.0
4893,83.0,240.0,480.0,1.0,0.0
4894,30.0,240.0,240.0,1.0,0.0
4895,35.0,240.0,240.0,1.0,0.0
4896,30.0,240.0,240.0,1.0,0.0
4897,39.0,240.0,240.0,1.0,0.0
4898,35.0,240.0,240.0,1.0,0.0
4899,42.0,240.0,240.0,1.0,0.0
4900,39.0,240.0,240.0,1.0,0.0
4901,47.0,192.0,240.0,1.0,0.0
4902,42.0,288.0,180.0,1.0,0.0
4903,35.0,0.0,1320.0,5.0,0.0
4904,37.0,120.0,1320.0,4.0,0.0
4905,41.0,15.0,1320.0,4.0,0.0
4906,47.0,240.0,240.0,1.0,0.0
4907,44.0,240.0,240.0,1.0,0.0
4908,53.0,240.0,240.0,1.0,0.0
4909,47.0,240.0,240.0,1.0,0.0
4910,56.0,105.0,240.0,1.0,0.0
4911,53.0,240.0,240.0,1.0,0.0
4912,49.0,15.0,1320.0,4.0,0.0
4913,53.0,0.0,1320.0,4.0,0.0
4914,47.0,57.0,1320.0,5.0,0.0
4915,61.0,240.0,240.0,1.0,0.0
4916,56.0,240.0,240.0,1.0,0.0
4917,65.0,240.0,240.0,1.0,0.0
4918,61.0,240.0,240.0,1.0,0.0
4919,68.0,120.0,240.0,1.0,0.0
4920,65.0,288.0,180.0,1.0,0.0
4921,46.0,15.0,1320.0,5.0,0.0
4922,64.0,240.0,240.0,1.0,0.0
4923,55.0,15.0,1320.0,4.0,0.0
4924,49.0,105.0,1320.0,4.0,0.0
4925,61.0,240.0,240.0,1.0,0.0
4926,67.0,240.0,240.0,1.0,0.0
4927,64.0,240.0,240.0,1.0,0.0
4928,70.0,105.0,240.0,1.0,0.0
4929,67.0,240.0,240.0,1.0,0.0
4930,52.0,15.0,1320.0,4.0,0.0
4931,46.0,120.0,1320.0,4.0,0.0
4932,73.0,240.0,240.0,1.0,0.0
4933,44.0,0.0,1320.0,5.0,0.0
4934,70.0,240.0,240.0,1.0,0.0
4935,76.0,240.0,240.0,1.0,0.0
4936,73.0,240.0,240.0,1.0,0.0
4937,82.0,105.0,240.0,1.0,0.0
4938,76.0,480.0,240.0,1.0,0.0
4939,43.0,0.0,480.0,5.0,0.0
4940,46.0,0.0,480.0,4.0,0.0
4941,51.0,2880.0,480.0,4.0,0.0
4942,85.0,0.0,480.0,1.0,0.0
4943,75.0,385.0,960.0,1.0,0.0
4944,56.0,0.0,1320.0,5.0,0.0
4945,59.0,600.0,1320.0,4.0,0.0
4946,71.0,455.0,390.0,1.0,0.0
4947,68.0,385.0,960.0,1.0,0.0
4948,58.0,7.0,1320.0,5.0,0.0
4949,61.0,593.0,1320.0,4.0,0.0
4950,67.0,455.0,390.0,1.0,0.0
4951,76.0,385.0,960.0,1.0,0.0
4952,55.0,0.0,1320.0,5.0,0.0
4953,58.0,593.0,1320.0,4.0,0.0
4954,75.0,462.0,390.0,1.0,0.0
4955,73.0,385.0,960.0,1.0,0.0
4956,63.0,7.0,1320.0,4.0,0.0
4957,56.0,593.0,1320.0,5.0,0.0
4958,71.0,455.0,390.0,1.0,0.0
4959,75.0,385.0,960.0,1.0,0.0
4960,59.0,480.0,960.0,5.0,0.0
4961,63.0,480.0,1440.0,4.0,0.0
4962,80.0,95.0,390.0,1.0,0.0
4963,60.0,0.0,480.0,5.0,0.0
4964,78.0,367.0,960.0,1.0,0.0
4965,61.0,18.0,840.0,5.0,0.0
4966,64.0,0.0,840.0,4.0,0.0
4967,76.0,455.0,390.0,1.0,0.0
4968,75.0,385.0,960.0,1.0,0.0
4969,63.0,600.0,360.0,5.0,0.0
4970,66.0,0.0,360.0,4.0,0.0
4971,64.0,480.0,960.0,5.0,0.0
4972,68.0,367.0,1920.0,4.0,0.0
4973,73.0,95.0,390.0,1.0,0.0
4974,65.0,480.0,480.0,5.0,0.0
4975,74.0,0.0,960.0,1.0,0.0
4976,63.0,0.0,840.0,5.0,0.0
4977,75.0,1055.0,390.0,1.0,0.0
4978,67.0,18.0,360.0,4.0,0.0
4979,63.0,385.0,960.0,1.0,0.0
4980,47.0,593.0,1320.0,4.0,0.0
4981,44.0,7.0,1320.0,5.0,0.0
4982,59.0,455.0,390.0,1.0,0.0
4983,56.0,385.0,960.0,1.0,0.0
4984,49.0,7.0,1320.0,4.0,0.0
4985,46.0,593.0,1320.0,5.0,0.0
4986,55.0,455.0,390.0,1.0,0.0
4987,64.0,385.0,960.0,1.0,0.0
4988,46.0,0.0,1320.0,4.0,0.0
4989,43.0,600.0,1320.0,5.0,0.0
4990,63.0,455.0,390.0,1.0,0.0
4991,61.0,385.0,960.0,1.0,0.0
4992,45.0,7.0,1320.0,4.0,0.0
4993,42.0,593.0,1320.0,5.0,0.0
4994,60.0,455.0,390.0,1.0,0.0
4995,69.0,385.0,960.0,1.0,0.0
4996,51.0,480.0,960.0,4.0,0.0
4997,48.0,0.0,1440.0,5.0,0.0
4998,68.0,95.0,390.0,1.0,0.0
4999,56.0,0.0,1800.0,4.0,0.0
5000,66.0,480.0,480.0,1.0,0.0
5001,49.0,0.0,480.0,5.0,0.0
5002,64.0,480.0,480.0,1.0,0.0
5003,51.0,360.0,480.0,5.0,0.0
5004,63.0,0.0,480.0,1.0,0.0
5005,52.0,7.0,360.0,5.0,0.0
5006,62.0,593.0,360.0,1.0,0.0
5007,51.0,480.0,480.0,5.0,0.0
5008,63.0,0.0,480.0,1.0,0.0
5009,59.0,0.0,480.0,2.0,0.0
5010,56.0,360.0,480.0,2.0,0.0
5011,59.0,0.0,480.0,1.0,0.0
5012,58.0,0.0,360.0,1.0,0.0
5013,49.0,7.0,360.0,4.0,0.0
5014,55.0,0.0,360.0,2.0,0.0
5015,39.0,473.0,360.0,5.0,0.0
5016,56.0,713.0,360.0,1.0,0.0
5017,44.0,0.0,360.0,5.0,0.0
5018,47.0,7.0,360.0,4.0,0.0
5019,73.0,120.0,120.0,1.0,0.0
5020,71.0,120.0,120.0,1.0,0.0
5021,70.0,96.0,120.0,1.0,0.0
5022,68.0,384.0,90.0,1.0,0.0
5023,55.0,0.0,360.0,5.0,0.0
5024,58.0,7.0,360.0,5.0,0.0
5025,75.0,65.0,360.0,1.0,0.0
5026,51.0,408.0,180.0,4.0,0.0
5027,63.0,0.0,360.0,2.0,0.0
5028,75.0,72.0,360.0,1.0,0.0
5029,59.0,0.0,360.0,5.0,0.0
5030,56.0,0.0,360.0,5.0,0.0
5031,51.0,408.0,180.0,4.0,0.0
5032,75.0,0.0,360.0,1.0,0.0
5033,61.0,65.0,360.0,5.0,0.0
5034,58.0,7.0,360.0,5.0,0.0
5035,63.0,0.0,360.0,2.0,0.0
5036,51.0,408.0,180.0,4.0,0.0
5037,59.0,7.0,360.0,5.0,0.0
5038,56.0,65.0,360.0,5.0,0.0
5039,63.0,7.0,840.0,2.0,0.0
5040,75.0,0.0,840.0,1.0,0.0
5041,51.0,408.0,180.0,4.0,0.0
5042,59.0,65.0,360.0,5.0,0.0
5043,56.0,0.0,360.0,5.0,0.0
5044,51.0,168.0,180.0,4.0,0.0
5045,73.0,120.0,120.0,1.0,0.0
5046,56.0,65.0,360.0,5.0,0.0
5047,59.0,7.0,360.0,5.0,0.0
5048,71.0,120.0,120.0,1.0,0.0
5049,70.0,0.0,120.0,1.0,0.0
5050,51.0,24.0,180.0,4.0,0.0
5051,68.0,384.0,90.0,1.0,0.0
5052,75.0,0.0,360.0,1.0,0.0
5053,58.0,65.0,360.0,5.0,0.0
5054,55.0,7.0,360.0,5.0,0.0
5055,51.0,408.0,180.0,4.0,0.0
5056,59.0,0.0,360.0,5.0,0.0
5057,75.0,0.0,360.0,1.0,0.0
5058,63.0,65.0,360.0,2.0,0.0
5059,56.0,7.0,360.0,5.0,0.0
5060,51.0,408.0,180.0,4.0,0.0
5061,61.0,0.0,360.0,5.0,0.0
5062,58.0,65.0,360.0,5.0,0.0
5063,63.0,0.0,360.0,2.0,0.0
5064,75.0,7.0,360.0,1.0,0.0
5065,51.0,408.0,180.0,4.0,0.0
5066,75.0,7.0,840.0,1.0,0.0
5067,63.0,65.0,840.0,2.0,0.0
5068,59.0,65.0,360.0,5.0,0.0
5069,56.0,7.0,360.0,5.0,0.0
5070,51.0,400.0,180.0,4.0,0.0
5071,56.0,0.0,360.0,5.0,0.0
5072,59.0,8.0,360.0,5.0,0.0
5073,51.0,168.0,180.0,4.0,0.0
5074,59.0,8.0,360.0,5.0,0.0
5075,56.0,65.0,360.0,5.0,0.0
5076,73.0,120.0,120.0,1.0,0.0
5077,71.0,112.0,120.0,1.0,0.0
5078,70.0,7.0,120.0,1.0,0.0
5079,51.0,24.0,180.0,4.0,0.0
5080,68.0,49.0,90.0,1.0,0.0
5081,67.0,40.0,30.0,2.0,0.0
5082,70.0,40.0,30.0,2.0,0.0
5083,76.0,685.0,30.0,1.0,0.0
5084,37.0,480.0,300.0,5.0,0.0
5085,49.0,0.0,300.0,5.0,0.0
5086,61.0,0.0,300.0,5.0,0.0
5087,49.0,195.0,300.0,5.0,0.0
5088,68.0,40.0,30.0,2.0,0.0
5089,71.0,40.0,30.0,2.0,0.0
5090,75.0,685.0,30.0,1.0,0.0
5091,35.0,480.0,300.0,5.0,0.0
5092,47.0,0.0,300.0,5.0,0.0
5093,59.0,480.0,300.0,5.0,0.0
5094,47.0,0.0,300.0,5.0,0.0
5095,58.0,195.0,300.0,5.0,0.0
5096,46.0,0.0,300.0,5.0,0.0
5097,70.0,40.0,30.0,2.0,0.0
5098,73.0,40.0,30.0,2.0,0.0
5099,79.0,400.0,30.0,1.0,0.0
5100,73.0,40.0,30.0,2.0,0.0
5101,79.0,40.0,30.0,2.0,0.0
5102,82.0,760.0,30.0,1.0,0.0
5103,85.0,0.0,390.0,1.0,0.0
5104,82.0,0.0,390.0,2.0,0.0
5105,75.0,0.0,390.0,2.0,0.0
5106,43.0,2495.0,390.0,5.0,0.0
5107,55.0,0.0,390.0,5.0,0.0
5108,71.0,1320.0,1440.0,1.0,0.0
5109,56.0,0.0,1320.0,5.0,0.0
5110,59.0,840.0,1320.0,4.0,0.0
5111,62.0,0.0,1320.0,1.0,0.0
5112,58.0,0.0,960.0,4.0,0.0
5113,55.0,0.0,960.0,5.0,0.0
5114,63.0,240.0,720.0,1.0,0.0
5115,61.0,360.0,960.0,4.0,0.0
5116,64.0,0.0,240.0,1.0,0.0
5117,59.0,0.0,360.0,4.0,0.0
5118,56.0,7.0,360.0,5.0,0.0
5119,63.0,353.0,360.0,1.0,0.0
5120,63.0,145.0,240.0,1.0,0.0
5121,59.0,0.0,240.0,2.0,0.0
5122,49.0,35.0,390.0,5.0,0.0
5123,58.0,408.0,180.0,2.0,0.0
5124,61.0,12.0,180.0,1.0,0.0
5125,56.0,18.0,360.0,2.0,0.0
5126,51.0,455.0,390.0,5.0,0.0
5127,59.0,7.0,360.0,1.0,0.0
5128,55.0,7.0,360.0,2.0,0.0
5129,39.0,462.0,390.0,5.0,0.0
5130,58.0,18.0,360.0,1.0,0.0
5131,44.0,695.0,390.0,5.0,0.0
5132,56.0,18.0,360.0,1.0,0.0
5133,73.0,120.0,120.0,1.0,0.0
5134,71.0,120.0,120.0,1.0,0.0
5135,70.0,96.0,120.0,1.0,0.0
5136,68.0,384.0,90.0,1.0,0.0
5137,75.0,0.0,360.0,1.0,0.0
5138,58.0,7.0,360.0,5.0,0.0
5139,55.0,65.0,360.0,5.0,0.0
5140,51.0,408.0,180.0,3.0,0.0
5141,75.0,0.0,360.0,1.0,0.0
5142,63.0,0.0,360.0,2.0,0.0
5143,56.0,0.0,360.0,5.0,0.0
5144,59.0,72.0,360.0,5.0,0.0
5145,51.0,408.0,180.0,3.0,0.0
5146,61.0,0.0,360.0,5.0,0.0
5147,63.0,65.0,360.0,2.0,0.0
5148,58.0,7.0,360.0,5.0,0.0
5149,75.0,0.0,360.0,1.0,0.0
5150,51.0,408.0,180.0,3.0,0.0
5151,56.0,65.0,360.0,5.0,0.0
5152,63.0,0.0,840.0,2.0,0.0
5153,59.0,7.0,360.0,5.0,0.0
5154,75.0,0.0,840.0,1.0,0.0
5155,51.0,408.0,180.0,3.0,0.0
5156,59.0,65.0,360.0,5.0,0.0
5157,56.0,7.0,360.0,5.0,0.0
5158,51.0,168.0,180.0,3.0,0.0
5159,59.0,0.0,360.0,5.0,0.0
5160,56.0,65.0,360.0,5.0,0.0
5161,73.0,120.0,120.0,1.0,0.0
5162,71.0,120.0,120.0,1.0,0.0
5163,51.0,24.0,180.0,3.0,0.0
5164,70.0,7.0,120.0,1.0,0.0
5165,68.0,384.0,90.0,1.0,0.0
5166,58.0,65.0,360.0,5.0,0.0
5167,55.0,7.0,360.0,5.0,0.0
5168,75.0,0.0,360.0,1.0,0.0
5169,51.0,408.0,180.0,3.0,0.0
5170,59.0,0.0,360.0,5.0,0.0
5171,56.0,7.0,360.0,5.0,0.0
5172,63.0,65.0,360.0,2.0,0.0
5173,75.0,0.0,360.0,1.0,0.0
5174,51.0,408.0,180.0,3.0,0.0
5175,63.0,0.0,360.0,2.0,0.0
5176,61.0,65.0,360.0,5.0,0.0
5177,58.0,0.0,360.0,5.0,0.0
5178,75.0,7.0,360.0,1.0,0.0
5179,51.0,408.0,180.0,3.0,0.0
5180,56.0,7.0,360.0,5.0,0.0
5181,59.0,65.0,360.0,5.0,0.0
5182,63.0,65.0,840.0,2.0,0.0
5183,75.0,7.0,840.0,1.0,0.0
5184,51.0,400.0,180.0,3.0,0.0
5185,59.0,8.0,360.0,5.0,0.0
5186,56.0,0.0,360.0,5.0,0.0
5187,51.0,168.0,180.0,3.0,0.0
5188,59.0,8.0,360.0,5.0,0.0
5189,73.0,120.0,120.0,1.0,0.0
5190,56.0,65.0,360.0,5.0,0.0
5191,71.0,112.0,120.0,1.0,0.0
5192,70.0,7.0,120.0,1.0,0.0
5193,51.0,24.0,180.0,3.0,0.0
5194,68.0,49.0,90.0,1.0,0.0
5195,67.0,40.0,30.0,2.0,0.0
5196,70.0,40.0,30.0,2.0,0.0
5197,76.0,685.0,30.0,1.0,0.0
5198,49.0,480.0,300.0,5.0,0.0
5199,37.0,0.0,300.0,5.0,0.0
5200,61.0,195.0,300.0,5.0,0.0
5201,49.0,0.0,300.0,5.0,0.0
5202,68.0,40.0,30.0,2.0,0.0
5203,71.0,40.0,30.0,2.0,0.0
5204,75.0,685.0,30.0,1.0,0.0
5205,35.0,0.0,300.0,5.0,0.0
5206,47.0,480.0,300.0,5.0,0.0
5207,47.0,0.0,300.0,5.0,0.0
5208,59.0,480.0,300.0,5.0,0.0
5209,58.0,195.0,300.0,5.0,0.0
5210,46.0,0.0,300.0,5.0,0.0
5211,70.0,40.0,30.0,2.0,0.0
5212,73.0,40.0,30.0,2.0,0.0
5213,79.0,400.0,30.0,1.0,0.0
5214,73.0,40.0,30.0,2.0,0.0
5215,79.0,40.0,30.0,2.0,0.0
5216,82.0,760.0,30.0,1.0,0.0
5217,43.0,0.0,390.0,5.0,0.0
5218,75.0,0.0,390.0,2.0,0.0
5219,82.0,0.0,390.0,2.0,0.0
5220,85.0,2805.0,390.0,1.0,0.0
5221,55.0,0.0,390.0,5.0,0.0
5222,57.0,480.0,300.0,1.0,0.0
5223,45.0,0.0,300.0,5.0,0.0
5224,72.0,0.0,300.0,1.0,0.0
5225,42.0,0.0,300.0,5.0,0.0
5226,54.0,480.0,300.0,5.0,0.0
5227,66.0,0.0,300.0,2.0,0.0
5228,63.0,0.0,300.0,2.0,0.0
5229,72.0,0.0,300.0,2.0,0.0
5230,66.0,0.0,300.0,2.0,0.0
5231,51.0,0.0,300.0,5.0,0.0
5232,39.0,0.0,300.0,5.0,0.0
5233,75.0,480.0,300.0,1.0,0.0
5234,48.0,0.0,300.0,5.0,0.0
5235,36.0,0.0,300.0,5.0,0.0
5236,75.0,0.0,300.0,2.0,0.0
5237,69.0,0.0,300.0,2.0,0.0
5238,78.0,3530.0,300.0,1.0,0.0
5239,49.0,480.0,960.0,5.0,0.0
5240,52.0,0.0,480.0,3.0,0.0
5241,56.0,960.0,480.0,3.0,0.0
5242,48.0,375.0,960.0,5.0,0.0
5243,51.0,0.0,480.0,3.0,0.0
5244,54.0,465.0,360.0,3.0,0.0
5245,68.0,600.0,360.0,1.0,0.0
5246,49.0,0.0,960.0,5.0,0.0
5247,52.0,480.0,480.0,3.0,0.0
5248,56.0,345.0,480.0,3.0,0.0
5249,48.0,375.0,960.0,5.0,0.0
5250,68.0,615.0,360.0,1.0,0.0
5251,51.0,0.0,480.0,3.0,0.0
5252,54.0,75.0,360.0,3.0,0.0
5253,68.0,990.0,210.0,1.0,0.0
5254,69.0,360.0,960.0,1.0,0.0
5255,49.0,0.0,960.0,5.0,0.0
5256,52.0,15.0,480.0,3.0,0.0
5257,56.0,960.0,480.0,3.0,0.0
5258,68.0,105.0,360.0,1.0,0.0
5259,48.0,375.0,960.0,5.0,0.0
5260,51.0,0.0,480.0,3.0,0.0
5261,54.0,60.0,360.0,3.0,0.0
5262,80.0,1005.0,180.0,1.0,0.0
5263,49.0,345.0,960.0,5.0,0.0
5264,81.0,0.0,960.0,1.0,0.0
5265,52.0,0.0,480.0,3.0,0.0
5266,80.0,135.0,360.0,1.0,0.0
5267,56.0,960.0,480.0,3.0,0.0
5268,47.0,360.0,960.0,5.0,0.0
5269,51.0,0.0,480.0,3.0,0.0
5270,56.0,408.0,360.0,3.0,0.0
5271,46.0,480.0,300.0,5.0,0.0
5272,58.0,0.0,300.0,1.0,0.0
5273,74.0,0.0,300.0,1.0,0.0
5274,65.0,0.0,300.0,2.0,0.0
5275,68.0,480.0,300.0,2.0,0.0
5276,56.0,0.0,300.0,5.0,0.0
5277,44.0,0.0,300.0,5.0,0.0
5278,68.0,480.0,300.0,2.0,0.0
5279,77.0,0.0,300.0,1.0,0.0
5280,41.0,0.0,300.0,5.0,0.0
5281,53.0,0.0,300.0,5.0,0.0
5282,74.0,0.0,300.0,2.0,0.0
5283,50.0,0.0,300.0,5.0,0.0
5284,80.0,0.0,300.0,1.0,0.0
5285,71.0,0.0,300.0,2.0,0.0
5286,77.0,0.0,300.0,2.0,0.0
5287,38.0,3552.0,300.0,5.0,0.0
5288,51.0,0.0,960.0,5.0,0.0
5289,54.0,480.0,480.0,3.0,0.0
5290,58.0,960.0,480.0,3.0,0.0
5291,50.0,360.0,960.0,5.0,0.0
5292,53.0,0.0,480.0,3.0,0.0
5293,56.0,495.0,360.0,3.0,0.0
5294,51.0,480.0,960.0,5.0,0.0
5295,70.0,585.0,360.0,1.0,0.0
5296,54.0,0.0,480.0,3.0,0.0
5297,58.0,375.0,480.0,3.0,0.0
5298,50.0,0.0,960.0,5.0,0.0
5299,70.0,585.0,360.0,1.0,0.0
5300,53.0,360.0,480.0,3.0,0.0
5301,56.0,90.0,360.0,3.0,0.0
5302,70.0,990.0,210.0,1.0,0.0
5303,51.0,0.0,960.0,5.0,0.0
5304,71.0,360.0,960.0,1.0,0.0
5305,54.0,0.0,480.0,3.0,0.0
5306,70.0,120.0,360.0,1.0,0.0
5307,58.0,960.0,480.0,3.0,0.0
5308,50.0,0.0,960.0,5.0,0.0
5309,53.0,360.0,480.0,3.0,0.0
5310,56.0,60.0,360.0,3.0,0.0
5311,82.0,1020.0,180.0,1.0,0.0
5312,83.0,0.0,960.0,1.0,0.0
5313,51.0,345.0,960.0,5.0,0.0
5314,54.0,0.0,480.0,3.0,0.0
5315,58.0,960.0,480.0,3.0,0.0
5316,82.0,135.0,360.0,1.0,0.0
5317,51.0,360.0,960.0,5.0,0.0
5318,55.0,0.0,480.0,3.0,0.0
5319,58.0,90.0,360.0,3.0,0.0
5320,63.0,15.0,210.0,2.0,0.0
5321,75.0,1455.0,240.0,1.0,0.0
5322,76.0,15.0,1440.0,1.0,0.0
5323,56.0,15.0,1800.0,5.0,0.0
5324,61.0,15.0,1800.0,4.0,0.0
5325,58.0,0.0,1800.0,4.0,0.0
5326,64.0,330.0,1440.0,2.0,0.0
5327,63.0,1545.0,360.0,2.0,0.0
5328,75.0,0.0,360.0,1.0,0.0
5329,44.0,0.0,960.0,5.0,0.0
5330,47.0,240.0,240.0,3.0,0.0
5331,51.0,240.0,240.0,3.0,0.0
5332,47.0,240.0,240.0,3.0,0.0
5333,51.0,192.0,240.0,3.0,0.0
5334,47.0,528.0,180.0,3.0,0.0
5335,44.0,0.0,960.0,5.0,0.0
5336,47.0,240.0,240.0,3.0,0.0
5337,51.0,105.0,240.0,3.0,0.0
5338,63.0,135.0,360.0,1.0,0.0
5339,47.0,240.0,240.0,3.0,0.0
5340,51.0,105.0,240.0,3.0,0.0
5341,63.0,87.0,360.0,1.0,0.0
5342,47.0,168.0,180.0,3.0,0.0
5343,63.0,120.0,120.0,1.0,0.0
5344,44.0,0.0,960.0,5.0,0.0
5345,64.0,120.0,120.0,1.0,0.0
5346,63.0,120.0,120.0,1.0,0.0
5347,46.0,7.0,240.0,3.0,0.0
5348,61.0,233.0,120.0,1.0,0.0
5349,49.0,0.0,240.0,3.0,0.0
5350,63.0,240.0,240.0,1.0,0.0
5351,46.0,240.0,240.0,3.0,0.0
5352,64.0,0.0,240.0,1.0,0.0
5353,49.0,0.0,240.0,3.0,0.0
5354,63.0,192.0,240.0,1.0,0.0
5355,46.0,528.0,180.0,3.0,0.0
5356,44.0,240.0,960.0,5.0,0.0
5357,73.0,0.0,960.0,1.0,0.0
5358,46.0,240.0,240.0,3.0,0.0
5359,49.0,240.0,240.0,3.0,0.0
5360,46.0,0.0,240.0,3.0,0.0
5361,67.0,72.0,360.0,1.0,0.0
5362,49.0,120.0,240.0,3.0,0.0
5363,46.0,528.0,180.0,3.0,0.0
5364,70.0,0.0,960.0,1.0,0.0
5365,44.0,0.0,960.0,5.0,0.0
5366,47.0,240.0,240.0,3.0,0.0
5367,51.0,240.0,240.0,3.0,0.0
5368,47.0,240.0,240.0,3.0,0.0
5369,51.0,127.0,240.0,3.0,0.0
5370,68.0,60.0,360.0,1.0,0.0
5371,47.0,533.0,180.0,3.0,0.0
5372,44.0,0.0,960.0,5.0,0.0
5373,47.0,240.0,240.0,3.0,0.0
5374,51.0,105.0,240.0,3.0,0.0
5375,75.0,135.0,360.0,1.0,0.0
5376,47.0,240.0,240.0,3.0,0.0
5377,75.0,72.0,360.0,1.0,0.0
5378,51.0,120.0,240.0,3.0,0.0
5379,47.0,288.0,180.0,3.0,0.0
5380,74.0,240.0,240.0,1.0,0.0
5381,44.0,0.0,960.0,5.0,0.0
5382,46.0,0.0,240.0,3.0,0.0
5383,75.0,240.0,240.0,1.0,0.0
5384,49.0,240.0,240.0,3.0,0.0
5385,76.0,0.0,240.0,1.0,0.0
5386,75.0,240.0,240.0,1.0,0.0
5387,46.0,0.0,240.0,3.0,0.0
5388,73.0,192.0,240.0,1.0,0.0
5389,49.0,0.0,240.0,3.0,0.0
5390,46.0,48.0,180.0,3.0,0.0
5391,71.0,240.0,240.0,1.0,0.0
5392,70.0,240.0,240.0,1.0,0.0
5393,44.0,0.0,960.0,5.0,0.0
5394,46.0,0.0,240.0,3.0,0.0
5395,68.0,240.0,240.0,1.0,0.0
5396,67.0,0.0,240.0,1.0,0.0
5397,49.0,240.0,240.0,3.0,0.0
5398,46.0,240.0,240.0,3.0,0.0
5399,70.0,0.0,240.0,1.0,0.0
5400,49.0,192.0,240.0,3.0,0.0
5401,73.0,0.0,240.0,1.0,0.0
5402,67.0,480.0,240.0,1.0,0.0
5403,46.0,48.0,180.0,3.0,0.0
5404,44.0,0.0,960.0,5.0,0.0
5405,70.0,0.0,960.0,1.0,0.0
5406,47.0,240.0,240.0,3.0,0.0
5407,51.0,240.0,240.0,3.0,0.0
5408,47.0,240.0,240.0,3.0,0.0
5409,68.0,72.0,360.0,1.0,0.0
5410,51.0,120.0,240.0,3.0,0.0
5411,47.0,528.0,180.0,3.0,0.0
5412,42.0,0.0,960.0,5.0,0.0
5413,48.0,240.0,240.0,3.0,0.0
5414,68.0,240.0,240.0,1.0,0.0
5415,51.0,0.0,240.0,3.0,0.0
5416,48.0,240.0,240.0,3.0,0.0
5417,51.0,0.0,240.0,3.0,0.0
5418,68.0,192.0,240.0,1.0,0.0
5419,48.0,288.0,180.0,3.0,0.0
5420,41.0,0.0,960.0,5.0,0.0
5421,68.0,240.0,240.0,1.0,0.0
5422,44.0,165.0,240.0,3.0,0.0
5423,70.0,75.0,180.0,1.0,0.0
5424,49.0,75.0,240.0,3.0,0.0
5425,68.0,165.0,150.0,1.0,0.0
5426,44.0,15.0,240.0,3.0,0.0
5427,67.0,165.0,180.0,1.0,0.0
5428,68.0,60.0,180.0,1.0,0.0
5429,49.0,165.0,240.0,3.0,0.0
5430,44.0,528.0,180.0,3.0,0.0
5431,70.0,27.0,180.0,1.0,0.0
5432,71.0,225.0,960.0,1.0,0.0
5433,40.0,0.0,960.0,5.0,0.0
5434,44.0,240.0,240.0,3.0,0.0
5435,47.0,240.0,240.0,3.0,0.0
5436,44.0,15.0,240.0,3.0,0.0
5437,62.0,42.0,390.0,1.0,0.0
5438,47.0,150.0,240.0,3.0,0.0
5439,44.0,393.0,180.0,3.0,0.0
5440,63.0,0.0,360.0,1.0,0.0
5441,39.0,495.0,360.0,5.0,0.0
5442,43.0,15.0,360.0,4.0,0.0
5443,51.0,105.0,360.0,5.0,0.0
5444,63.0,240.0,240.0,1.0,0.0
5445,62.0,240.0,240.0,1.0,0.0
5446,63.0,240.0,240.0,1.0,0.0
5447,64.0,240.0,240.0,1.0,0.0
5448,65.0,240.0,240.0,1.0,0.0
5449,66.0,240.0,240.0,1.0,0.0
5450,67.0,240.0,240.0,1.0,0.0
5451,52.0,15.0,480.0,5.0,0.0
5452,56.0,0.0,480.0,4.0,0.0
5453,68.0,225.0,240.0,1.0,0.0
5454,62.0,345.0,240.0,1.0,0.0
5455,63.0,15.0,360.0,1.0,0.0
5456,51.0,465.0,360.0,5.0,0.0
5457,55.0,0.0,360.0,4.0,0.0
5458,39.0,135.0,360.0,5.0,0.0
5459,51.0,240.0,240.0,1.0,0.0
5460,50.0,240.0,240.0,1.0,0.0
5461,51.0,240.0,240.0,1.0,0.0
5462,52.0,240.0,240.0,1.0,0.0
5463,53.0,240.0,240.0,1.0,0.0
5464,54.0,240.0,240.0,1.0,0.0
5465,55.0,240.0,240.0,1.0,0.0
5466,44.0,360.0,480.0,4.0,0.0
5467,56.0,240.0,240.0,1.0,0.0
5468,40.0,0.0,480.0,5.0,0.0
5469,50.0,0.0,240.0,1.0,0.0
5470,51.0,465.0,360.0,1.0,0.0
5471,43.0,0.0,360.0,4.0,0.0
5472,39.0,15.0,360.0,5.0,0.0
5473,27.0,120.0,360.0,5.0,0.0
5474,74.0,255.0,240.0,1.0,0.0
5475,75.0,225.0,240.0,1.0,0.0
5476,74.0,360.0,240.0,1.0,0.0
5477,75.0,495.0,360.0,1.0,0.0
5478,51.0,105.0,360.0,5.0,0.0
5479,62.0,240.0,240.0,1.0,0.0
5480,63.0,240.0,240.0,1.0,0.0
5481,62.0,375.0,240.0,1.0,0.0
5482,63.0,480.0,360.0,1.0,0.0
5483,39.0,105.0,360.0,5.0,0.0
5484,50.0,240.0,240.0,1.0,0.0
5485,51.0,240.0,240.0,1.0,0.0
5486,50.0,375.0,240.0,1.0,0.0
5487,51.0,465.0,360.0,1.0,0.0
5488,27.0,120.0,360.0,5.0,0.0
5489,38.0,240.0,240.0,1.0,0.0
5490,39.0,240.0,240.0,1.0,0.0
5491,38.0,240.0,240.0,1.0,0.0
5492,39.0,240.0,240.0,1.0,0.0
5493,34.0,240.0,240.0,1.0,0.0
5494,35.0,240.0,240.0,1.0,0.0
5495,31.0,240.0,240.0,1.0,0.0
5496,32.0,240.0,240.0,1.0,0.0
5497,26.0,240.0,240.0,1.0,0.0
5498,27.0,240.0,240.0,1.0,0.0
5499,26.0,240.0,240.0,1.0,0.0
5500,27.0,240.0,240.0,1.0,0.0
5501,26.0,240.0,240.0,1.0,0.0
5502,27.0,240.0,240.0,1.0,0.0
5503,26.0,192.0,240.0,1.0,0.0
5504,27.0,240.0,180.0,1.0,0.0
5505,31.0,240.0,180.0,1.0,0.0
5506,34.0,240.0,180.0,1.0,0.0
5507,39.0,240.0,180.0,1.0,0.0
5508,43.0,240.0,180.0,1.0,0.0
5509,46.0,240.0,180.0,1.0,0.0
5510,51.0,240.0,180.0,1.0,0.0
5511,55.0,240.0,180.0,1.0,0.0
5512,58.0,240.0,180.0,1.0,0.0
5513,63.0,240.0,180.0,1.0,0.0
5514,67.0,240.0,180.0,1.0,0.0
5515,70.0,873.0,180.0,1.0,0.0
5516,73.0,600.0,1320.0,1.0,0.0
5517,85.0,0.0,1320.0,1.0,0.0
5518,28.0,480.0,360.0,5.0,0.0
5519,40.0,15.0,360.0,5.0,0.0
5520,52.0,15.0,960.0,5.0,0.0
5521,40.0,330.0,960.0,5.0,0.0
5522,79.0,0.0,1920.0,1.0,0.0
5523,67.0,360.0,1920.0,1.0,0.0
5524,39.0,30.0,360.0,5.0,0.0
5525,51.0,465.0,360.0,5.0,0.0
5526,37.0,570.0,360.0,5.0,0.0
5527,49.0,15.0,360.0,5.0,0.0
5528,48.0,0.0,840.0,5.0,0.0
5529,36.0,15.0,840.0,5.0,0.0
5530,68.0,15.0,360.0,1.0,0.0
5531,80.0,465.0,360.0,1.0,0.0
5532,54.0,585.0,360.0,5.0,0.0
5533,72.0,15.0,960.0,1.0,0.0
5534,60.0,345.0,960.0,1.0,0.0
5535,42.0,0.0,360.0,5.0,0.0
5536,41.0,585.0,840.0,5.0,0.0
5537,53.0,15.0,840.0,5.0,0.0
5538,73.0,0.0,360.0,1.0,0.0
5539,61.0,15.0,360.0,1.0,0.0
5540,52.0,495.0,480.0,5.0,0.0
5541,74.0,360.0,960.0,1.0,0.0
5542,51.0,105.0,840.0,5.0,0.0
5543,75.0,345.0,480.0,1.0,0.0
5544,59.0,0.0,360.0,4.0,0.0
5545,50.0,1065.0,360.0,5.0,0.0
5546,68.0,15.0,360.0,2.0,0.0
5547,77.0,15.0,360.0,1.0,0.0
5548,63.0,0.0,960.0,2.0,0.0
5549,68.0,0.0,960.0,1.0,0.0
5550,59.0,225.0,960.0,4.0,0.0
5551,51.0,15.0,1320.0,5.0,0.0
5552,67.0,30.0,420.0,2.0,0.0
5553,61.0,30.0,360.0,4.0,0.0
5554,71.0,135.0,240.0,1.0,0.0
5555,70.0,405.0,180.0,1.0,0.0
5556,68.0,72.0,360.0,1.0,0.0
5557,44.0,192.0,960.0,5.0,0.0
5558,51.0,408.0,180.0,3.0,0.0
5559,47.0,72.0,360.0,3.0,0.0
5560,68.0,48.0,180.0,1.0,0.0
5561,51.0,0.0,180.0,3.0,0.0
5562,44.0,72.0,360.0,3.0,0.0
5563,67.0,168.0,180.0,1.0,0.0
5564,51.0,0.0,180.0,3.0,0.0
5565,68.0,303.0,180.0,1.0,0.0
5566,43.0,192.0,960.0,5.0,0.0
5567,69.0,177.0,240.0,1.0,0.0
5568,51.0,408.0,180.0,3.0,0.0
5569,70.0,0.0,180.0,1.0,0.0
5570,49.0,72.0,360.0,3.0,0.0
5571,51.0,48.0,180.0,3.0,0.0
5572,70.0,0.0,180.0,1.0,0.0
5573,43.0,72.0,360.0,3.0,0.0
5574,69.0,168.0,180.0,1.0,0.0
5575,51.0,318.0,180.0,3.0,0.0
5576,70.0,0.0,180.0,1.0,0.0
5577,71.0,162.0,270.0,1.0,0.0
5578,42.0,192.0,960.0,5.0,0.0
5579,72.0,408.0,180.0,1.0,0.0
5580,51.0,0.0,180.0,3.0,0.0
5581,44.0,72.0,360.0,3.0,0.0
5582,72.0,48.0,180.0,1.0,0.0
5583,51.0,0.0,180.0,3.0,0.0
5584,71.0,168.0,180.0,1.0,0.0
5585,42.0,72.0,360.0,3.0,0.0
5586,72.0,303.0,180.0,1.0,0.0
5587,51.0,0.0,180.0,3.0,0.0
5588,40.0,120.0,960.0,5.0,0.0
5589,72.0,177.0,240.0,1.0,0.0
5590,49.0,240.0,360.0,3.0,0.0
5591,73.0,168.0,180.0,1.0,0.0
5592,44.0,72.0,360.0,3.0,0.0
5593,73.0,48.0,180.0,1.0,0.0
5594,49.0,72.0,360.0,3.0,0.0
5595,40.0,72.0,360.0,3.0,0.0
5596,72.0,168.0,180.0,1.0,0.0
5597,73.0,48.0,180.0,1.0,0.0
5598,49.0,240.0,240.0,3.0,0.0
5599,75.0,105.0,240.0,1.0,0.0
5600,35.0,135.0,360.0,5.0,0.0
5601,68.0,192.0,240.0,1.0,0.0
5602,80.0,240.0,180.0,1.0,0.0
5603,80.0,240.0,180.0,1.0,0.0
5604,80.0,240.0,180.0,1.0,0.0
5605,80.0,393.0,180.0,1.0,0.0
5606,49.0,120.0,360.0,5.0,0.0
5607,58.0,15.0,360.0,4.0,0.0
5608,70.0,192.0,240.0,1.0,0.0
5609,76.0,240.0,180.0,1.0,0.0
5610,76.0,240.0,180.0,1.0,0.0
5611,76.0,240.0,180.0,1.0,0.0
5612,76.0,408.0,180.0,1.0,0.0
5613,59.0,120.0,360.0,4.0,0.0
5614,51.0,0.0,360.0,5.0,0.0
5615,68.0,192.0,240.0,1.0,0.0
5616,75.0,240.0,180.0,1.0,0.0
5617,75.0,240.0,180.0,1.0,0.0
5618,75.0,240.0,180.0,1.0,0.0
5619,75.0,393.0,180.0,1.0,0.0
5620,51.0,15.0,360.0,5.0,0.0
5621,58.0,120.0,360.0,4.0,0.0
5622,61.0,192.0,240.0,1.0,0.0
5623,67.0,240.0,180.0,1.0,0.0
5624,67.0,240.0,180.0,1.0,0.0
5625,67.0,240.0,180.0,1.0,0.0
5626,67.0,393.0,180.0,1.0,0.0
5627,44.0,192.0,960.0,5.0,0.0
5628,59.0,72.0,360.0,2.0,0.0
5629,68.0,15.0,360.0,1.0,0.0
5630,51.0,408.0,180.0,3.0,0.0
5631,47.0,72.0,360.0,3.0,0.0
5632,51.0,48.0,180.0,3.0,0.0
5633,56.0,0.0,180.0,1.0,0.0
5634,44.0,72.0,360.0,3.0,0.0
5635,55.0,168.0,180.0,1.0,0.0
5636,51.0,0.0,180.0,3.0,0.0
5637,56.0,288.0,180.0,1.0,0.0
5638,57.0,192.0,240.0,1.0,0.0
5639,43.0,192.0,960.0,5.0,0.0
5640,58.0,408.0,180.0,1.0,0.0
5641,51.0,0.0,180.0,3.0,0.0
5642,49.0,72.0,360.0,3.0,0.0
5643,51.0,0.0,180.0,3.0,0.0
5644,58.0,48.0,180.0,1.0,0.0
5645,57.0,168.0,180.0,1.0,0.0
5646,43.0,72.0,360.0,3.0,0.0
5647,51.0,0.0,180.0,3.0,0.0
5648,58.0,288.0,180.0,1.0,0.0
5649,42.0,192.0,960.0,5.0,0.0
5650,59.0,192.0,240.0,1.0,0.0
5651,51.0,408.0,180.0,3.0,0.0
5652,60.0,0.0,180.0,1.0,0.0
5653,44.0,72.0,360.0,3.0,0.0
5654,60.0,0.0,180.0,1.0,0.0
5655,51.0,48.0,180.0,3.0,0.0
5656,42.0,72.0,360.0,3.0,0.0
5657,59.0,168.0,180.0,1.0,0.0
5658,51.0,288.0,180.0,3.0,0.0
5659,60.0,0.0,180.0,1.0,0.0
5660,41.0,120.0,960.0,5.0,0.0
5661,60.0,192.0,240.0,1.0,0.0
5662,49.0,240.0,360.0,3.0,0.0
5663,61.0,168.0,180.0,1.0,0.0
5664,44.0,72.0,360.0,3.0,0.0
5665,49.0,72.0,360.0,3.0,0.0
5666,61.0,48.0,180.0,1.0,0.0
5667,60.0,168.0,180.0,1.0,0.0
5668,41.0,72.0,360.0,3.0,0.0
5669,49.0,240.0,240.0,3.0,0.0
5670,61.0,48.0,180.0,1.0,0.0
5671,61.0,192.0,240.0,1.0,0.0
5672,40.0,192.0,960.0,5.0,0.0
5673,47.0,0.0,180.0,3.0,0.0
5674,62.0,408.0,180.0,1.0,0.0
5675,44.0,72.0,360.0,3.0,0.0
5676,62.0,48.0,180.0,1.0,0.0
5677,47.0,0.0,180.0,3.0,0.0
5678,61.0,168.0,180.0,1.0,0.0
5679,40.0,72.0,360.0,3.0,0.0
5680,62.0,0.0,180.0,1.0,0.0
5681,47.0,318.0,180.0,3.0,0.0
5682,39.0,192.0,960.0,5.0,0.0
5683,62.0,162.0,270.0,1.0,0.0
5684,47.0,408.0,180.0,3.0,0.0
5685,63.0,0.0,180.0,1.0,0.0
5686,44.0,72.0,360.0,3.0,0.0
5687,63.0,0.0,180.0,1.0,0.0
5688,47.0,48.0,180.0,3.0,0.0
5689,39.0,72.0,360.0,3.0,0.0
5690,62.0,168.0,180.0,1.0,0.0
5691,63.0,528.0,180.0,1.0,0.0
5692,47.0,0.0,180.0,3.0,0.0
5693,65.0,480.0,480.0,1.0,0.0
5694,38.0,495.0,1320.0,5.0,0.0
5695,68.0,360.0,480.0,1.0,0.0
5696,71.0,465.0,840.0,1.0,0.0
5697,50.0,615.0,1320.0,5.0,0.0
5698,70.0,480.0,360.0,1.0,0.0
5699,68.0,345.0,960.0,1.0,0.0
5700,58.0,0.0,1320.0,4.0,0.0
5701,61.0,480.0,1320.0,4.0,0.0
5702,51.0,0.0,1320.0,5.0,0.0
5703,67.0,480.0,360.0,1.0,0.0
5704,73.0,495.0,840.0,1.0,0.0
5705,52.0,0.0,1320.0,5.0,0.0
5706,61.0,465.0,1320.0,4.0,0.0
5707,58.0,15.0,1320.0,4.0,0.0
5708,70.0,465.0,360.0,1.0,0.0
5709,79.0,495.0,840.0,1.0,0.0
5710,58.0,0.0,1320.0,4.0,0.0
5711,51.0,600.0,1320.0,5.0,0.0
5712,61.0,0.0,1320.0,4.0,0.0
5713,73.0,465.0,360.0,1.0,0.0
5714,82.0,480.0,960.0,1.0,0.0
5715,61.0,360.0,1320.0,4.0,0.0
5716,52.0,15.0,1320.0,5.0,0.0
5717,58.0,15.0,1320.0,4.0,0.0
5718,79.0,345.0,480.0,1.0,0.0
5719,85.0,225.0,720.0,1.0,0.0
5720,61.0,15.0,840.0,4.0,0.0
5721,58.0,105.0,840.0,4.0,0.0
5722,51.0,15.0,840.0,5.0,0.0
5723,82.0,240.0,240.0,1.0,0.0
5724,79.0,105.0,240.0,1.0,0.0
5725,76.0,240.0,240.0,1.0,0.0
5726,73.0,240.0,240.0,1.0,0.0
5727,70.0,240.0,240.0,1.0,0.0
5728,67.0,240.0,240.0,1.0,0.0
5729,64.0,240.0,240.0,1.0,0.0
5730,61.0,240.0,240.0,1.0,0.0
5731,58.0,240.0,240.0,1.0,0.0
5732,55.0,240.0,240.0,1.0,0.0
5733,52.0,480.0,240.0,1.0,0.0
5734,51.0,150.0,810.0,1.0,0.0
5735,63.0,240.0,240.0,1.0,0.0
5736,64.0,90.0,240.0,1.0,0.0
5737,65.0,240.0,240.0,1.0,0.0
5738,66.0,240.0,240.0,1.0,0.0
5739,67.0,240.0,240.0,1.0,0.0
5740,68.0,240.0,240.0,1.0,0.0
5741,70.0,240.0,240.0,1.0,0.0
5742,71.0,240.0,240.0,1.0,0.0
5743,72.0,240.0,240.0,1.0,0.0
5744,73.0,192.0,240.0,1.0,0.0
5745,74.0,543.0,180.0,1.0,0.0
5746,75.0,370.0,480.0,1.0,0.0
5747,59.0,0.0,1320.0,4.0,0.0
5748,56.0,600.0,1320.0,5.0,0.0
5749,71.0,455.0,390.0,1.0,0.0
5750,68.0,385.0,960.0,1.0,0.0
5751,61.0,593.0,1320.0,4.0,0.0
5752,58.0,7.0,1320.0,5.0,0.0
5753,67.0,455.0,390.0,1.0,0.0
5754,76.0,385.0,960.0,1.0,0.0
5755,58.0,0.0,1320.0,4.0,0.0
5756,55.0,593.0,1320.0,5.0,0.0
5757,75.0,462.0,390.0,1.0,0.0
5758,73.0,385.0,960.0,1.0,0.0
5759,56.0,593.0,1320.0,5.0,0.0
5760,63.0,7.0,1320.0,4.0,0.0
5761,71.0,455.0,390.0,1.0,0.0
5762,75.0,385.0,960.0,1.0,0.0
5763,59.0,480.0,960.0,5.0,0.0
5764,63.0,0.0,1440.0,4.0,0.0
5765,80.0,95.0,390.0,1.0,0.0
5766,78.0,367.0,960.0,1.0,0.0
5767,60.0,480.0,480.0,5.0,0.0
5768,64.0,0.0,840.0,4.0,0.0
5769,61.0,18.0,840.0,5.0,0.0
5770,76.0,455.0,390.0,1.0,0.0
5771,66.0,600.0,360.0,4.0,0.0
5772,63.0,0.0,360.0,5.0,0.0
5773,75.0,385.0,960.0,1.0,0.0
5774,68.0,367.0,1920.0,4.0,0.0
5775,64.0,480.0,960.0,5.0,0.0
5776,73.0,95.0,390.0,1.0,0.0
5777,74.0,0.0,960.0,1.0,0.0
5778,65.0,480.0,480.0,5.0,0.0
5779,63.0,0.0,840.0,5.0,0.0
5780,67.0,18.0,360.0,4.0,0.0
5781,75.0,1055.0,390.0,1.0,0.0
5782,63.0,480.0,960.0,1.0,0.0
5783,47.0,1568.0,1320.0,4.0,0.0
5784,44.0,7.0,1320.0,5.0,0.0
5785,59.0,345.0,480.0,1.0,0.0
5786,56.0,15.0,360.0,1.0,0.0
5787,49.0,0.0,2280.0,4.0,0.0
5788,56.0,825.0,1440.0,1.0,0.0
5789,52.0,0.0,2280.0,4.0,0.0
5790,46.0,2520.0,2280.0,5.0,0.0
5791,55.0,15.0,840.0,1.0,0.0
5792,64.0,465.0,960.0,1.0,0.0
5793,43.0,0.0,1320.0,5.0,0.0
5794,46.0,1560.0,1320.0,4.0,0.0
5795,63.0,360.0,480.0,1.0,0.0
5796,61.0,0.0,360.0,1.0,0.0
5797,42.0,15.0,2280.0,5.0,0.0
5798,51.0,2490.0,2280.0,4.0,0.0
5799,45.0,0.0,2280.0,4.0,0.0
5800,61.0,840.0,1440.0,1.0,0.0
5801,60.0,0.0,840.0,1.0,0.0
5802,66.0,495.0,960.0,1.0,0.0
5803,56.0,0.0,1320.0,4.0,0.0
5804,48.0,15.0,1320.0,5.0,0.0
5805,64.0,360.0,480.0,1.0,0.0
5806,63.0,1560.0,360.0,1.0,0.0
5807,56.0,15.0,2280.0,4.0,0.0
5808,49.0,2505.0,2280.0,5.0,0.0
5809,63.0,825.0,1440.0,1.0,0.0
5810,64.0,0.0,840.0,1.0,0.0
5811,67.0,480.0,960.0,1.0,0.0
5812,52.0,1560.0,1320.0,4.0,0.0
5813,49.0,15.0,1320.0,5.0,0.0
5814,68.0,345.0,480.0,1.0,0.0
5815,70.0,0.0,360.0,1.0,0.0
5816,50.0,1905.0,2280.0,5.0,0.0
5817,70.0,240.0,1440.0,1.0,0.0
5818,53.0,15.0,2280.0,4.0,0.0
5819,73.0,585.0,240.0,1.0,0.0
5820,71.0,15.0,600.0,1.0,0.0
5821,68.0,375.0,360.0,1.0,0.0
5822,53.0,15.0,1320.0,5.0,0.0
5823,62.0,0.0,1320.0,4.0,0.0
5824,59.0,15.0,1320.0,4.0,0.0
5825,70.0,225.0,240.0,1.0,0.0
5826,68.0,480.0,240.0,1.0,0.0
5827,67.0,345.0,480.0,1.0,0.0
5828,68.0,585.0,360.0,1.0,0.0
5829,51.0,1440.0,480.0,5.0,0.0
5830,59.0,0.0,480.0,4.0,0.0
5831,63.0,0.0,480.0,1.0,0.0
5832,49.0,0.0,480.0,4.0,0.0
5833,46.0,0.0,480.0,4.0,0.0
5834,55.0,1440.0,480.0,1.0,0.0
5835,39.0,0.0,480.0,5.0,0.0
5836,32.0,0.0,480.0,5.0,0.0
5837,47.0,0.0,480.0,4.0,0.0
5838,44.0,0.0,480.0,4.0,0.0
5839,56.0,600.0,480.0,1.0,0.0
5840,73.0,120.0,120.0,1.0,0.0
5841,71.0,120.0,120.0,1.0,0.0
5842,70.0,96.0,120.0,1.0,0.0
5843,68.0,384.0,90.0,1.0,0.0
5844,75.0,65.0,360.0,1.0,0.0
5845,58.0,7.0,360.0,5.0,0.0
5846,55.0,0.0,360.0,5.0,0.0
5847,51.0,408.0,180.0,3.0,0.0
5848,56.0,0.0,360.0,5.0,0.0
5849,63.0,72.0,360.0,2.0,0.0
5850,75.0,0.0,360.0,1.0,0.0
5851,59.0,0.0,360.0,5.0,0.0
5852,51.0,408.0,180.0,3.0,0.0
5853,75.0,65.0,360.0,1.0,0.0
5854,63.0,0.0,360.0,2.0,0.0
5855,61.0,0.0,360.0,5.0,0.0
5856,58.0,7.0,360.0,5.0,0.0
5857,51.0,408.0,180.0,3.0,0.0
5858,59.0,7.0,360.0,5.0,0.0
5859,56.0,65.0,360.0,5.0,0.0
5860,75.0,0.0,840.0,1.0,0.0
5861,63.0,0.0,840.0,2.0,0.0
5862,51.0,408.0,180.0,3.0,0.0
5863,56.0,7.0,360.0,5.0,0.0
5864,59.0,65.0,360.0,5.0,0.0
5865,51.0,168.0,180.0,3.0,0.0
5866,56.0,65.0,360.0,5.0,0.0
5867,73.0,120.0,120.0,1.0,0.0
5868,59.0,7.0,360.0,5.0,0.0
5869,71.0,120.0,120.0,1.0,0.0
5870,70.0,0.0,120.0,1.0,0.0
5871,51.0,24.0,180.0,3.0,0.0
5872,68.0,384.0,90.0,1.0,0.0
5873,55.0,0.0,360.0,5.0,0.0
5874,58.0,65.0,360.0,5.0,0.0
5875,75.0,7.0,360.0,1.0,0.0
5876,51.0,408.0,180.0,3.0,0.0
5877,59.0,0.0,360.0,5.0,0.0
5878,75.0,65.0,360.0,1.0,0.0
5879,56.0,7.0,360.0,5.0,0.0
5880,63.0,0.0,360.0,2.0,0.0
5881,51.0,408.0,180.0,3.0,0.0
5882,63.0,0.0,360.0,2.0,0.0
5883,75.0,7.0,360.0,1.0,0.0
5884,58.0,65.0,360.0,5.0,0.0
5885,61.0,0.0,360.0,5.0,0.0
5886,51.0,408.0,180.0,3.0,0.0
5887,59.0,65.0,360.0,5.0,0.0
5888,56.0,7.0,360.0,5.0,0.0
5889,63.0,65.0,840.0,2.0,0.0
5890,75.0,0.0,840.0,1.0,0.0
5891,51.0,400.0,180.0,3.0,0.0
5892,59.0,8.0,360.0,5.0,0.0
5893,56.0,7.0,360.0,5.0,0.0
5894,51.0,168.0,180.0,3.0,0.0
5895,56.0,65.0,360.0,5.0,0.0
5896,59.0,8.0,360.0,5.0,0.0
5897,73.0,120.0,120.0,1.0,0.0
5898,71.0,112.0,120.0,1.0,0.0
5899,51.0,24.0,180.0,3.0,0.0
5900,70.0,7.0,120.0,1.0,0.0
5901,68.0,49.0,90.0,1.0,0.0
5902,67.0,40.0,30.0,2.0,0.0
5903,70.0,40.0,30.0,2.0,0.0
5904,76.0,685.0,30.0,1.0,0.0
5905,49.0,480.0,300.0,5.0,0.0
5906,37.0,0.0,300.0,5.0,0.0
5907,61.0,0.0,300.0,5.0,0.0
5908,49.0,195.0,300.0,5.0,0.0
5909,68.0,40.0,30.0,2.0,0.0
5910,71.0,40.0,30.0,2.0,0.0
5911,75.0,685.0,30.0,1.0,0.0
5912,35.0,0.0,300.0,5.0,0.0
5913,47.0,480.0,300.0,5.0,0.0
5914,59.0,0.0,300.0,5.0,0.0
5915,47.0,480.0,300.0,5.0,0.0
5916,46.0,0.0,300.0,5.0,0.0
5917,58.0,195.0,300.0,5.0,0.0
5918,70.0,40.0,30.0,2.0,0.0
5919,73.0,40.0,30.0,2.0,0.0
5920,79.0,400.0,30.0,1.0,0.0
5921,73.0,40.0,30.0,2.0,0.0
5922,79.0,40.0,30.0,2.0,0.0
5923,82.0,760.0,30.0,1.0,0.0
5924,75.0,0.0,390.0,2.0,0.0
5925,85.0,0.0,390.0,1.0,0.0
5926,43.0,0.0,390.0,5.0,0.0
5927,82.0,0.0,390.0,2.0,0.0
5928,55.0,2495.0,390.0,5.0,0.0
5929,71.0,1320.0,1440.0,1.0,0.0
5930,56.0,840.0,1320.0,5.0,0.0
5931,62.0,0.0,1320.0,1.0,0.0
5932,59.0,0.0,1320.0,4.0,0.0
5933,63.0,240.0,720.0,1.0,0.0
5934,61.0,0.0,960.0,4.0,0.0
5935,58.0,0.0,960.0,4.0,0.0
5936,55.0,0.0,960.0,5.0,0.0
5937,64.0,360.0,240.0,1.0,0.0
5938,59.0,7.0,360.0,4.0,0.0
5939,63.0,353.0,360.0,1.0,0.0
5940,56.0,0.0,360.0,5.0,0.0
5941,63.0,145.0,240.0,1.0,0.0
5942,59.0,0.0,240.0,2.0,0.0
5943,49.0,35.0,390.0,5.0,0.0
5944,58.0,408.0,180.0,2.0,0.0
5945,61.0,12.0,180.0,1.0,0.0
5946,56.0,18.0,360.0,2.0,0.0
5947,51.0,455.0,390.0,5.0,0.0
5948,59.0,7.0,360.0,1.0,0.0
5949,39.0,462.0,390.0,5.0,0.0
5950,55.0,7.0,360.0,2.0,0.0
5951,58.0,18.0,360.0,1.0,0.0
5952,56.0,18.0,360.0,1.0,0.0
5953,44.0,695.0,390.0,5.0,0.0
5954,73.0,120.0,120.0,1.0,0.0
5955,71.0,120.0,120.0,1.0,0.0
5956,70.0,96.0,120.0,1.0,0.0
5957,68.0,384.0,90.0,1.0,0.0
5958,75.0,65.0,360.0,1.0,0.0
5959,55.0,0.0,360.0,5.0,0.0
5960,58.0,7.0,360.0,5.0,0.0
5961,51.0,408.0,180.0,3.0,0.0
5962,63.0,0.0,360.0,2.0,0.0
5963,59.0,0.0,360.0,5.0,0.0
5964,75.0,0.0,360.0,1.0,0.0
5965,56.0,72.0,360.0,5.0,0.0
5966,51.0,408.0,180.0,3.0,0.0
5967,75.0,0.0,360.0,1.0,0.0
5968,61.0,0.0,360.0,5.0,0.0
5969,63.0,65.0,360.0,2.0,0.0
5970,58.0,7.0,360.0,5.0,0.0
5971,51.0,408.0,180.0,3.0,0.0
5972,63.0,0.0,840.0,2.0,0.0
5973,75.0,7.0,840.0,1.0,0.0
5974,59.0,7.0,360.0,5.0,0.0
5975,56.0,65.0,360.0,5.0,0.0
5976,51.0,408.0,180.0,3.0,0.0
5977,59.0,65.0,360.0,5.0,0.0
5978,56.0,0.0,360.0,5.0,0.0
5979,51.0,168.0,180.0,3.0,0.0
5980,56.0,65.0,360.0,5.0,0.0
5981,59.0,7.0,360.0,5.0,0.0
5982,73.0,120.0,120.0,1.0,0.0
5983,71.0,120.0,120.0,1.0,0.0
5984,70.0,0.0,120.0,1.0,0.0
5985,51.0,24.0,180.0,3.0,0.0
5986,68.0,384.0,90.0,1.0,0.0
5987,58.0,65.0,360.0,5.0,0.0
5988,75.0,7.0,360.0,1.0,0.0
5989,55.0,0.0,360.0,5.0,0.0
5990,51.0,408.0,180.0,3.0,0.0
5991,56.0,7.0,360.0,5.0,0.0
5992,63.0,0.0,360.0,2.0,0.0
5993,59.0,0.0,360.0,5.0,0.0
5994,75.0,65.0,360.0,1.0,0.0
5995,51.0,408.0,180.0,3.0,0.0
5996,58.0,0.0,360.0,5.0,0.0
5997,61.0,65.0,360.0,5.0,0.0
5998,75.0,7.0,360.0,1.0,0.0
5999,63.0,0.0,360.0,2.0,0.0
6000,51.0,408.0,180.0,3.0,0.0
6001,56.0,7.0,360.0,5.0,0.0
6002,59.0,65.0,360.0,5.0,0.0
6003,63.0,65.0,840.0,2.0,0.0
6004,75.0,7.0,840.0,1.0,0.0
6005,51.0,400.0,180.0,3.0,0.0
6006,56.0,0.0,360.0,5.0,0.0
6007,59.0,8.0,360.0,5.0,0.0
6008,51.0,168.0,180.0,3.0,0.0
6009,59.0,8.0,360.0,5.0,0.0
6010,56.0,65.0,360.0,5.0,0.0
6011,73.0,120.0,120.0,1.0,0.0
6012,71.0,112.0,120.0,1.0,0.0
6013,51.0,24.0,180.0,3.0,0.0
6014,70.0,7.0,120.0,1.0,0.0
6015,68.0,49.0,90.0,1.0,0.0
6016,67.0,40.0,30.0,2.0,0.0
6017,70.0,40.0,30.0,2.0,0.0
6018,76.0,685.0,30.0,1.0,0.0
6019,49.0,480.0,300.0,5.0,0.0
6020,37.0,0.0,300.0,5.0,0.0
6021,61.0,0.0,300.0,5.0,0.0
6022,49.0,195.0,300.0,5.0,0.0
6023,68.0,40.0,30.0,2.0,0.0
6024,71.0,40.0,30.0,2.0,0.0
6025,75.0,685.0,30.0,1.0,0.0
6026,47.0,480.0,300.0,5.0,0.0
6027,35.0,0.0,300.0,5.0,0.0
6028,59.0,480.0,300.0,5.0,0.0
6029,47.0,0.0,300.0,5.0,0.0
6030,46.0,195.0,300.0,5.0,0.0
6031,58.0,0.0,300.0,5.0,0.0
6032,70.0,40.0,30.0,2.0,0.0
6033,73.0,40.0,30.0,2.0,0.0
6034,79.0,400.0,30.0,1.0,0.0
6035,73.0,40.0,30.0,2.0,0.0
6036,79.0,40.0,30.0,2.0,0.0
6037,82.0,760.0,30.0,1.0,0.0
6038,43.0,1365.0,390.0,5.0,0.0
6039,55.0,0.0,390.0,5.0,0.0
6040,82.0,0.0,390.0,2.0,0.0
6041,75.0,0.0,390.0,2.0,0.0
6042,85.0,0.0,390.0,1.0,0.0
6043,57.0,33.0,300.0,1.0,0.0
6044,45.0,447.0,330.0,5.0,0.0
6045,72.0,0.0,300.0,1.0,0.0
6046,54.0,0.0,300.0,5.0,0.0
6047,42.0,0.0,300.0,5.0,0.0
6048,66.0,480.0,300.0,2.0,0.0
6049,63.0,0.0,300.0,2.0,0.0
6050,75.0,0.0,300.0,1.0,0.0
6051,39.0,480.0,300.0,5.0,0.0
6052,66.0,0.0,300.0,2.0,0.0
6053,72.0,0.0,300.0,2.0,0.0
6054,51.0,0.0,300.0,5.0,0.0
6055,48.0,0.0,300.0,5.0,0.0
6056,75.0,0.0,300.0,2.0,0.0
6057,36.0,0.0,300.0,5.0,0.0
6058,78.0,3530.0,300.0,1.0,0.0
6059,69.0,0.0,300.0,2.0,0.0
6060,49.0,0.0,960.0,5.0,0.0
6061,52.0,480.0,480.0,3.0,0.0
6062,56.0,960.0,480.0,3.0,0.0
6063,48.0,375.0,960.0,5.0,0.0
6064,51.0,0.0,480.0,3.0,0.0
6065,54.0,465.0,360.0,3.0,0.0
6066,68.0,600.0,360.0,1.0,0.0
6067,49.0,0.0,960.0,5.0,0.0
6068,52.0,480.0,480.0,3.0,0.0
6069,56.0,345.0,480.0,3.0,0.0
6070,68.0,615.0,360.0,1.0,0.0
6071,48.0,0.0,960.0,5.0,0.0
6072,51.0,375.0,480.0,3.0,0.0
6073,54.0,75.0,360.0,3.0,0.0
6074,68.0,990.0,210.0,1.0,0.0
6075,69.0,360.0,960.0,1.0,0.0
6076,49.0,0.0,960.0,5.0,0.0
6077,52.0,15.0,480.0,3.0,0.0
6078,56.0,960.0,480.0,3.0,0.0
6079,68.0,105.0,360.0,1.0,0.0
6080,48.0,375.0,960.0,5.0,0.0
6081,51.0,0.0,480.0,3.0,0.0
6082,54.0,60.0,360.0,3.0,0.0
6083,80.0,1005.0,180.0,1.0,0.0
6084,81.0,0.0,960.0,1.0,0.0
6085,49.0,0.0,960.0,5.0,0.0
6086,52.0,345.0,480.0,3.0,0.0
6087,80.0,135.0,360.0,1.0,0.0
6088,56.0,960.0,480.0,3.0,0.0
6089,48.0,375.0,960.0,5.0,0.0
6090,51.0,0.0,480.0,3.0,0.0
6091,54.0,45.0,360.0,3.0,0.0
6092,56.0,1020.0,180.0,1.0,0.0
6093,49.0,0.0,960.0,5.0,0.0
6094,57.0,375.0,960.0,1.0,0.0
6095,52.0,0.0,480.0,3.0,0.0
6096,56.0,1065.0,360.0,1.0,0.0
6097,49.0,0.0,360.0,3.0,0.0
6098,50.0,0.0,960.0,5.0,0.0
6099,53.0,375.0,480.0,3.0,0.0
6100,59.0,75.0,360.0,3.0,0.0
6101,80.0,990.0,210.0,1.0,0.0
6102,68.0,94.0,1440.0,1.0,0.0
6103,51.0,0.0,960.0,5.0,0.0
6104,56.0,375.0,480.0,3.0,0.0
6105,59.0,105.0,360.0,3.0,0.0
6106,51.0,14.0,960.0,5.0,0.0
6107,70.0,80.0,90.0,1.0,0.0
6108,71.0,80.0,90.0,2.0,0.0
6109,70.0,80.0,90.0,2.0,0.0
6110,71.0,80.0,90.0,2.0,0.0
6111,70.0,80.0,90.0,2.0,0.0
6112,71.0,80.0,90.0,2.0,0.0
6113,70.0,80.0,90.0,2.0,0.0
6114,55.0,0.0,480.0,3.0,0.0
6115,71.0,80.0,90.0,2.0,0.0
6116,70.0,80.0,90.0,2.0,0.0
6117,71.0,80.0,90.0,2.0,0.0
6118,70.0,66.0,90.0,2.0,0.0
6119,71.0,80.0,90.0,2.0,0.0
6120,61.0,105.0,360.0,3.0,0.0
6121,70.0,80.0,90.0,2.0,0.0
6122,71.0,80.0,90.0,2.0,0.0
6123,70.0,106.0,90.0,2.0,0.0
6124,68.0,7.0,120.0,2.0,0.0
6125,70.0,488.0,120.0,2.0,0.0
6126,68.0,0.0,480.0,1.0,0.0
6127,56.0,360.0,960.0,5.0,0.0
6128,59.0,360.0,480.0,4.0,0.0
6129,63.0,0.0,240.0,3.0,0.0
6130,59.0,120.0,360.0,3.0,0.0
6131,63.0,0.0,240.0,3.0,0.0
6132,59.0,75.0,360.0,3.0,0.0
6133,63.0,525.0,180.0,3.0,0.0
6134,51.0,0.0,480.0,1.0,0.0
6135,61.0,0.0,960.0,5.0,0.0
6136,63.0,360.0,240.0,3.0,0.0
6137,53.0,360.0,480.0,1.0,0.0
6138,61.0,120.0,360.0,3.0,0.0
6139,63.0,0.0,240.0,3.0,0.0
6140,61.0,60.0,360.0,3.0,0.0
6141,55.0,472.0,480.0,1.0,0.0
6142,63.0,60.0,180.0,3.0,0.0
6143,59.0,0.0,960.0,5.0,0.0
6144,56.0,360.0,480.0,1.0,0.0
6145,56.0,8.0,240.0,3.0,0.0
6146,51.0,120.0,360.0,3.0,0.0
6147,56.0,360.0,240.0,3.0,0.0
6148,47.0,72.0,360.0,3.0,0.0
6149,51.0,528.0,180.0,3.0,0.0
6150,49.0,0.0,960.0,5.0,0.0
6151,63.0,0.0,480.0,1.0,0.0
6152,51.0,360.0,240.0,3.0,0.0
6153,65.0,0.0,480.0,1.0,0.0
6154,49.0,120.0,360.0,3.0,0.0
6155,51.0,360.0,240.0,3.0,0.0
6156,67.0,480.0,480.0,1.0,0.0
6157,49.0,72.0,360.0,3.0,0.0
6158,51.0,48.0,180.0,3.0,0.0
6159,47.0,360.0,960.0,5.0,0.0
6160,68.0,360.0,480.0,1.0,0.0
6161,51.0,0.0,240.0,3.0,0.0
6162,47.0,120.0,360.0,3.0,0.0
6163,51.0,0.0,240.0,3.0,0.0
6164,47.0,72.0,360.0,3.0,0.0
6165,51.0,528.0,180.0,3.0,0.0
6166,75.0,0.0,480.0,1.0,0.0
6167,49.0,0.0,960.0,5.0,0.0
6168,51.0,360.0,240.0,3.0,0.0
6169,77.0,0.0,480.0,1.0,0.0
6170,49.0,120.0,360.0,3.0,0.0
6171,51.0,360.0,240.0,3.0,0.0
6172,79.0,480.0,480.0,1.0,0.0
6173,49.0,72.0,360.0,3.0,0.0
6174,51.0,48.0,180.0,3.0,0.0
6175,80.0,15.0,1320.0,1.0,0.0
6176,47.0,0.0,960.0,5.0,0.0
6177,51.0,360.0,240.0,3.0,0.0
6178,47.0,120.0,360.0,3.0,0.0
6179,51.0,345.0,240.0,3.0,0.0
6180,47.0,72.0,360.0,3.0,0.0
6181,51.0,528.0,180.0,3.0,0.0
6182,78.0,15.0,1320.0,1.0,0.0
6183,48.0,345.0,960.0,5.0,0.0
6184,56.0,360.0,240.0,3.0,0.0
6185,48.0,120.0,360.0,3.0,0.0
6186,56.0,0.0,240.0,3.0,0.0
6187,48.0,72.0,360.0,3.0,0.0
6188,56.0,528.0,180.0,3.0,0.0
6189,49.0,345.0,960.0,5.0,0.0
6190,76.0,15.0,1320.0,1.0,0.0
6191,56.0,360.0,240.0,3.0,0.0
6192,49.0,120.0,360.0,3.0,0.0
6193,56.0,0.0,240.0,3.0,0.0
6194,49.0,72.0,360.0,3.0,0.0
6195,56.0,528.0,180.0,3.0,0.0
6196,73.0,72.0,1320.0,1.0,0.0
6197,51.0,0.0,960.0,5.0,0.0
6198,55.0,360.0,240.0,3.0,0.0
6199,51.0,120.0,360.0,3.0,0.0
6200,55.0,360.0,240.0,3.0,0.0
6201,51.0,0.0,360.0,3.0,0.0
6202,55.0,528.0,180.0,3.0,0.0
6203,52.0,345.0,960.0,5.0,0.0
6204,71.0,15.0,1320.0,1.0,0.0
6205,56.0,360.0,240.0,3.0,0.0
6206,52.0,120.0,360.0,3.0,0.0
6207,56.0,0.0,240.0,3.0,0.0
6208,52.0,72.0,360.0,3.0,0.0
6209,56.0,528.0,180.0,3.0,0.0
6210,69.0,30.0,1290.0,1.0,0.0
6211,49.0,0.0,960.0,5.0,0.0
6212,52.0,360.0,240.0,3.0,0.0
6213,49.0,120.0,360.0,3.0,0.0
6214,52.0,330.0,240.0,3.0,0.0
6215,49.0,72.0,360.0,3.0,0.0
6216,52.0,528.0,180.0,3.0,0.0
6217,68.0,57.0,1320.0,1.0,0.0
6218,51.0,360.0,960.0,5.0,0.0
6219,59.0,360.0,240.0,3.0,0.0
6220,51.0,120.0,360.0,3.0,0.0
6221,59.0,0.0,240.0,3.0,0.0
6222,51.0,15.0,360.0,3.0,0.0
6223,59.0,528.0,180.0,3.0,0.0
6224,67.0,30.0,1290.0,1.0,0.0
6225,51.0,330.0,960.0,5.0,0.0
6226,58.0,360.0,240.0,3.0,0.0
6227,51.0,120.0,360.0,3.0,0.0
6228,58.0,0.0,240.0,3.0,0.0
6229,51.0,72.0,360.0,3.0,0.0
6230,58.0,408.0,180.0,3.0,0.0
6231,52.0,20.0,1380.0,1.0,0.0
6232,59.0,120.0,360.0,3.0,0.0
6233,68.0,360.0,240.0,3.0,0.0
6234,59.0,120.0,360.0,3.0,0.0
6235,68.0,360.0,240.0,3.0,0.0
6236,59.0,52.0,360.0,3.0,0.0
6237,68.0,528.0,180.0,3.0,0.0
6238,80.0,57.0,1320.0,1.0,0.0
6239,59.0,0.0,960.0,5.0,0.0
6240,68.0,360.0,240.0,3.0,0.0
6241,59.0,120.0,360.0,3.0,0.0
6242,68.0,360.0,240.0,3.0,0.0
6243,59.0,15.0,360.0,3.0,0.0
6244,68.0,528.0,180.0,3.0,0.0
6245,59.0,360.0,960.0,5.0,0.0
6246,83.0,72.0,1320.0,1.0,0.0
6247,68.0,360.0,240.0,3.0,0.0
6248,59.0,120.0,360.0,3.0,0.0
6249,68.0,0.0,240.0,3.0,0.0
6250,59.0,0.0,360.0,3.0,0.0
6251,68.0,528.0,180.0,3.0,0.0
6252,38.0,72.0,1320.0,1.0,0.0
6253,59.0,360.0,960.0,5.0,0.0
6254,68.0,360.0,240.0,3.0,0.0
6255,59.0,120.0,360.0,3.0,0.0
6256,68.0,0.0,240.0,3.0,0.0
6257,59.0,0.0,360.0,3.0,0.0
6258,68.0,528.0,180.0,3.0,0.0
6259,39.0,15.0,1320.0,1.0,0.0
6260,59.0,345.0,960.0,5.0,0.0
6261,68.0,360.0,240.0,3.0,0.0
6262,59.0,120.0,360.0,3.0,0.0
6263,68.0,0.0,240.0,3.0,0.0
6264,59.0,72.0,360.0,3.0,0.0
6265,68.0,528.0,180.0,3.0,0.0
6266,59.0,0.0,960.0,5.0,0.0
6267,40.0,15.0,1320.0,1.0,0.0
6268,68.0,360.0,240.0,3.0,0.0
6269,59.0,120.0,360.0,3.0,0.0
6270,68.0,345.0,240.0,3.0,0.0
6271,59.0,72.0,360.0,3.0,0.0
6272,68.0,528.0,180.0,3.0,0.0
6273,58.0,0.0,960.0,5.0,0.0
6274,37.0,42.0,1350.0,1.0,0.0
6275,68.0,360.0,240.0,3.0,0.0
6276,58.0,120.0,360.0,3.0,0.0
6277,68.0,360.0,240.0,3.0,0.0
6278,58.0,30.0,360.0,3.0,0.0
6279,68.0,528.0,180.0,3.0,0.0
6280,58.0,0.0,960.0,5.0,0.0
6281,39.0,30.0,1290.0,1.0,0.0
6282,67.0,360.0,240.0,3.0,0.0
6283,58.0,120.0,360.0,3.0,0.0
6284,67.0,330.0,240.0,3.0,0.0
6285,58.0,72.0,360.0,3.0,0.0
6286,67.0,528.0,180.0,3.0,0.0
6287,32.0,0.0,480.0,1.0,0.0
6288,59.0,240.0,960.0,5.0,0.0
6289,68.0,240.0,240.0,3.0,0.0
6290,63.0,240.0,240.0,3.0,0.0
6291,59.0,0.0,240.0,3.0,0.0
6292,63.0,240.0,240.0,3.0,0.0
6293,59.0,480.0,240.0,3.0,0.0
6294,58.0,0.0,960.0,5.0,0.0
6295,61.0,240.0,240.0,3.0,0.0
6296,63.0,240.0,240.0,3.0,0.0
6297,75.0,0.0,240.0,1.0,0.0
6298,77.0,0.0,240.0,1.0,0.0
6299,61.0,240.0,240.0,3.0,0.0
6300,63.0,192.0,240.0,3.0,0.0
6301,79.0,0.0,240.0,1.0,0.0
6302,75.0,375.0,240.0,1.0,0.0
6303,61.0,48.0,180.0,3.0,0.0
6304,80.0,105.0,360.0,1.0,0.0
6305,56.0,0.0,960.0,5.0,0.0
6306,59.0,240.0,240.0,3.0,0.0
6307,68.0,0.0,240.0,1.0,0.0
6308,63.0,240.0,240.0,3.0,0.0
6309,70.0,240.0,240.0,1.0,0.0
6310,59.0,0.0,240.0,3.0,0.0
6311,63.0,240.0,240.0,3.0,0.0
6312,71.0,0.0,240.0,1.0,0.0
6313,68.0,375.0,240.0,1.0,0.0
6314,59.0,0.0,240.0,3.0,0.0
6315,75.0,105.0,360.0,1.0,0.0
6316,58.0,0.0,960.0,5.0,0.0
6317,61.0,240.0,240.0,3.0,0.0
6318,63.0,240.0,240.0,3.0,0.0
6319,67.0,0.0,240.0,1.0,0.0
6320,68.0,0.0,240.0,1.0,0.0
6321,61.0,240.0,240.0,3.0,0.0
6322,70.0,0.0,240.0,1.0,0.0
6323,63.0,192.0,240.0,3.0,0.0
6324,61.0,48.0,180.0,3.0,0.0
6325,67.0,345.0,240.0,1.0,0.0
6326,68.0,135.0,360.0,1.0,0.0
6327,56.0,0.0,960.0,5.0,0.0
6328,59.0,240.0,240.0,3.0,0.0
6329,63.0,240.0,240.0,3.0,0.0
6330,59.0,240.0,240.0,3.0,0.0
6331,63.0,240.0,240.0,3.0,0.0
6332,59.0,480.0,240.0,3.0,0.0
6333,58.0,0.0,960.0,5.0,0.0
6334,61.0,240.0,240.0,3.0,0.0
6335,63.0,0.0,240.0,3.0,0.0
6336,39.0,240.0,240.0,1.0,0.0
6337,41.0,0.0,240.0,1.0,0.0
6338,61.0,240.0,240.0,3.0,0.0
6339,43.0,0.0,240.0,1.0,0.0
6340,63.0,192.0,240.0,3.0,0.0
6341,39.0,360.0,240.0,1.0,0.0
6342,61.0,48.0,180.0,3.0,0.0
6343,56.0,240.0,960.0,5.0,0.0
6344,44.0,120.0,360.0,1.0,0.0
6345,59.0,240.0,240.0,3.0,0.0
6346,32.0,0.0,240.0,1.0,0.0
6347,63.0,240.0,240.0,3.0,0.0
6348,34.0,0.0,240.0,1.0,0.0
6349,59.0,0.0,240.0,3.0,0.0
6350,63.0,0.0,240.0,3.0,0.0
6351,35.0,240.0,240.0,1.0,0.0
6352,59.0,0.0,240.0,3.0,0.0
6353,32.0,375.0,240.0,1.0,0.0
6354,58.0,0.0,960.0,5.0,0.0
6355,39.0,105.0,360.0,1.0,0.0
6356,61.0,240.0,240.0,3.0,0.0
6357,63.0,0.0,240.0,3.0,0.0
6358,27.0,240.0,240.0,1.0,0.0
6359,61.0,240.0,240.0,3.0,0.0
6360,29.0,0.0,240.0,1.0,0.0
6361,31.0,0.0,240.0,1.0,0.0
6362,63.0,192.0,240.0,3.0,0.0
6363,27.0,345.0,240.0,1.0,0.0
6364,61.0,48.0,180.0,3.0,0.0
6365,56.0,1560.0,360.0,5.0,0.0
6366,32.0,0.0,360.0,1.0,0.0
6367,59.0,15.0,360.0,3.0,0.0
6368,51.0,0.0,480.0,4.0,0.0
6369,47.0,0.0,480.0,4.0,0.0
6370,68.0,0.0,480.0,2.0,0.0
6371,44.0,0.0,480.0,5.0,0.0
6372,75.0,0.0,480.0,1.0,0.0
6373,63.0,0.0,480.0,1.0,0.0
6374,71.0,0.0,480.0,2.0,0.0
6375,56.0,1440.0,480.0,5.0,0.0
6376,35.0,0.0,480.0,4.0,0.0
6377,39.0,0.0,480.0,4.0,0.0
6378,80.0,0.0,480.0,1.0,0.0
6379,68.0,0.0,480.0,1.0,0.0
6380,71.0,0.0,480.0,2.0,0.0
6381,75.0,0.0,480.0,2.0,0.0
6382,44.0,0.0,480.0,5.0,0.0
6383,32.0,0.0,480.0,5.0,0.0
