,note,step,duration,channel,velocity
0,61.0,60.0,240.0,1.0,0.0
1,57.0,0.0,240.0,1.0,0.0
2,42.0,60.0,120.0,8.0,0.0
3,54.0,0.0,240.0,14.0,0.0
4,54.0,0.0,120.0,7.0,0.0
5,66.0,0.0,240.0,2.0,0.0
6,78.0,0.0,240.0,2.0,0.0
7,61.0,0.0,120.0,6.0,0.0
8,57.0,0.0,120.0,6.0,0.0
9,54.0,0.0,120.0,15.0,0.0
10,73.0,0.0,240.0,0.0,0.0
11,69.0,0.0,240.0,0.0,0.0
12,61.0,0.0,60.0,5.0,0.0
13,61.0,0.0,60.0,4.0,0.0
14,61.0,0.0,120.0,6.0,0.0
15,54.0,0.0,120.0,7.0,0.0
16,57.0,0.0,120.0,6.0,0.0
17,73.0,0.0,60.0,5.0,0.0
18,54.0,0.0,120.0,15.0,0.0
19,73.0,60.0,60.0,4.0,0.0
20,42.0,0.0,120.0,8.0,0.0
21,72.0,0.0,60.0,4.0,0.0
22,72.0,0.0,60.0,5.0,0.0
23,57.0,0.0,120.0,6.0,0.0
24,61.0,0.0,120.0,6.0,0.0
25,54.0,0.0,120.0,7.0,0.0
26,42.0,0.0,120.0,8.0,0.0
27,74.0,60.0,60.0,4.0,0.0
28,54.0,0.0,120.0,15.0,0.0
29,74.0,0.0,60.0,5.0,0.0
30,73.0,0.0,60.0,5.0,0.0
31,73.0,60.0,60.0,4.0,0.0
32,57.0,0.0,120.0,6.0,0.0
33,71.0,60.0,60.0,5.0,0.0
34,42.0,60.0,120.0,8.0,0.0
35,71.0,0.0,60.0,4.0,0.0
36,61.0,0.0,120.0,6.0,0.0
37,54.0,0.0,120.0,15.0,0.0
38,54.0,0.0,120.0,7.0,0.0
39,69.0,0.0,60.0,4.0,0.0
40,69.0,0.0,60.0,5.0,0.0
41,68.0,60.0,60.0,4.0,0.0
42,68.0,0.0,60.0,5.0,0.0
43,57.0,0.0,120.0,6.0,0.0
44,61.0,0.0,120.0,6.0,0.0
45,42.0,0.0,120.0,8.0,0.0
46,54.0,0.0,120.0,7.0,0.0
47,54.0,60.0,120.0,15.0,0.0
48,66.0,0.0,60.0,5.0,0.0
49,66.0,0.0,60.0,4.0,0.0
50,65.0,0.0,60.0,5.0,0.0
51,65.0,60.0,60.0,4.0,0.0
52,54.0,0.0,120.0,7.0,0.0
53,54.0,120.0,120.0,15.0,0.0
54,42.0,0.0,120.0,8.0,0.0
55,57.0,0.0,120.0,6.0,0.0
56,61.0,0.0,120.0,6.0,0.0
57,66.0,0.0,60.0,4.0,0.0
58,66.0,0.0,60.0,5.0,0.0
59,61.0,0.0,240.0,1.0,0.0
60,54.0,0.0,120.0,15.0,0.0
61,78.0,0.0,240.0,2.0,0.0
62,66.0,0.0,240.0,2.0,0.0
63,61.0,0.0,120.0,6.0,0.0
64,57.0,0.0,240.0,1.0,0.0
65,54.0,0.0,120.0,7.0,0.0
66,54.0,0.0,240.0,14.0,0.0
67,42.0,0.0,120.0,8.0,0.0
68,57.0,0.0,120.0,6.0,0.0
69,73.0,0.0,240.0,0.0,0.0
70,69.0,0.0,240.0,0.0,0.0
71,61.0,0.0,60.0,5.0,0.0
72,61.0,60.0,60.0,4.0,0.0
73,73.0,60.0,60.0,5.0,0.0
74,42.0,0.0,120.0,8.0,0.0
75,54.0,0.0,120.0,7.0,0.0
76,61.0,0.0,120.0,6.0,0.0
77,57.0,0.0,120.0,6.0,0.0
78,54.0,60.0,120.0,15.0,0.0
79,73.0,0.0,60.0,4.0,0.0
80,72.0,0.0,60.0,4.0,0.0
81,72.0,0.0,60.0,5.0,0.0
82,69.0,0.0,240.0,11.0,0.0
83,54.0,0.0,240.0,3.0,0.0
84,73.0,0.0,240.0,10.0,0.0
85,54.0,0.0,120.0,15.0,0.0
86,74.0,60.0,60.0,5.0,0.0
87,42.0,0.0,120.0,8.0,0.0
88,61.0,0.0,120.0,6.0,0.0
89,66.0,0.0,240.0,3.0,0.0
90,66.0,0.0,240.0,12.0,0.0
91,74.0,0.0,60.0,4.0,0.0
92,57.0,0.0,120.0,6.0,0.0
93,69.0,60.0,240.0,3.0,0.0
94,54.0,0.0,240.0,13.0,0.0
95,54.0,0.0,120.0,7.0,0.0
96,73.0,60.0,60.0,4.0,0.0
97,73.0,0.0,60.0,5.0,0.0
98,54.0,0.0,120.0,7.0,0.0
99,61.0,0.0,120.0,6.0,0.0
100,57.0,0.0,120.0,6.0,0.0
101,54.0,0.0,120.0,15.0,0.0
102,42.0,0.0,120.0,8.0,0.0
103,71.0,60.0,60.0,4.0,0.0
104,71.0,0.0,60.0,5.0,0.0
105,69.0,0.0,60.0,4.0,0.0
106,69.0,0.0,60.0,5.0,0.0
107,69.0,0.0,240.0,3.0,0.0
108,54.0,0.0,240.0,3.0,0.0
109,54.0,120.0,240.0,13.0,0.0
110,68.0,0.0,60.0,4.0,0.0
111,69.0,0.0,240.0,11.0,0.0
112,61.0,0.0,240.0,3.0,0.0
113,68.0,60.0,60.0,5.0,0.0
114,54.0,0.0,120.0,7.0,0.0
115,61.0,60.0,120.0,6.0,0.0
116,54.0,0.0,120.0,15.0,0.0
117,42.0,0.0,120.0,8.0,0.0
118,57.0,0.0,120.0,6.0,0.0
119,73.0,0.0,240.0,10.0,0.0
120,61.0,0.0,240.0,12.0,0.0
121,66.0,0.0,60.0,4.0,0.0
122,66.0,0.0,60.0,5.0,0.0
123,65.0,60.0,60.0,4.0,0.0
124,61.0,0.0,120.0,6.0,0.0
125,57.0,0.0,120.0,6.0,0.0
126,54.0,0.0,120.0,15.0,0.0
127,42.0,0.0,120.0,8.0,0.0
128,54.0,0.0,120.0,7.0,0.0
129,65.0,0.0,60.0,5.0,0.0
130,66.0,0.0,60.0,4.0,0.0
131,66.0,0.0,60.0,5.0,0.0
132,71.0,0.0,240.0,0.0,0.0
133,74.0,0.0,240.0,0.0,0.0
134,68.0,0.0,720.0,12.0,0.0
135,74.0,0.0,720.0,10.0,0.0
136,53.0,0.0,720.0,3.0,0.0
137,41.0,0.0,120.0,8.0,0.0
138,53.0,0.0,240.0,1.0,0.0
139,68.0,0.0,720.0,3.0,0.0
140,53.0,0.0,120.0,7.0,0.0
141,71.0,0.0,720.0,11.0,0.0
142,53.0,0.0,720.0,13.0,0.0
143,68.0,0.0,240.0,1.0,0.0
144,53.0,0.0,120.0,15.0,0.0
145,71.0,0.0,720.0,3.0,0.0
146,80.0,0.0,240.0,2.0,0.0
147,56.0,0.0,120.0,6.0,0.0
148,59.0,60.0,120.0,6.0,0.0
149,62.0,0.0,60.0,5.0,0.0
150,62.0,0.0,60.0,4.0,0.0
151,59.0,0.0,120.0,6.0,0.0
152,74.0,0.0,60.0,5.0,0.0
153,74.0,60.0,60.0,4.0,0.0
154,41.0,0.0,120.0,8.0,0.0
155,56.0,60.0,120.0,6.0,0.0
156,53.0,0.0,120.0,7.0,0.0
157,53.0,0.0,120.0,15.0,0.0
158,73.0,0.0,60.0,5.0,0.0
159,73.0,0.0,60.0,4.0,0.0
160,76.0,60.0,60.0,4.0,0.0
161,59.0,0.0,120.0,6.0,0.0
162,56.0,0.0,120.0,6.0,0.0
163,53.0,0.0,120.0,15.0,0.0
164,76.0,0.0,60.0,5.0,0.0
165,41.0,0.0,120.0,8.0,0.0
166,53.0,0.0,120.0,7.0,0.0
167,74.0,0.0,60.0,5.0,0.0
168,74.0,60.0,60.0,4.0,0.0
169,53.0,0.0,120.0,15.0,0.0
170,53.0,60.0,120.0,7.0,0.0
171,56.0,0.0,120.0,6.0,0.0
172,59.0,0.0,120.0,6.0,0.0
173,73.0,0.0,60.0,5.0,0.0
174,73.0,60.0,60.0,4.0,0.0
175,41.0,0.0,120.0,8.0,0.0
176,71.0,0.0,60.0,4.0,0.0
177,71.0,0.0,60.0,5.0,0.0
178,69.0,60.0,60.0,5.0,0.0
179,53.0,0.0,120.0,15.0,0.0
180,41.0,0.0,120.0,8.0,0.0
181,53.0,0.0,120.0,7.0,0.0
182,59.0,0.0,120.0,6.0,0.0
183,69.0,0.0,60.0,4.0,0.0
184,56.0,0.0,120.0,6.0,0.0
185,68.0,60.0,60.0,4.0,0.0
186,68.0,0.0,60.0,5.0,0.0
187,53.0,120.0,120.0,7.0,0.0
188,56.0,0.0,120.0,6.0,0.0
189,59.0,0.0,120.0,6.0,0.0
190,66.0,0.0,60.0,4.0,0.0
191,53.0,0.0,120.0,15.0,0.0
192,41.0,0.0,120.0,8.0,0.0
193,66.0,60.0,60.0,5.0,0.0
194,65.0,0.0,60.0,4.0,0.0
195,65.0,0.0,60.0,5.0,0.0
196,69.0,0.0,240.0,1.0,0.0
197,54.0,0.0,240.0,1.0,0.0
198,61.0,0.0,240.0,3.0,0.0
199,69.0,0.0,240.0,0.0,0.0
200,69.0,0.0,240.0,11.0,0.0
201,73.0,0.0,240.0,0.0,0.0
202,73.0,60.0,240.0,10.0,0.0
203,54.0,0.0,120.0,15.0,0.0
204,54.0,0.0,240.0,13.0,0.0
205,61.0,0.0,240.0,12.0,0.0
206,42.0,0.0,120.0,8.0,0.0
207,57.0,0.0,120.0,6.0,0.0
208,78.0,0.0,240.0,2.0,0.0
209,66.0,0.0,240.0,2.0,0.0
210,54.0,60.0,120.0,7.0,0.0
211,69.0,0.0,240.0,3.0,0.0
212,54.0,0.0,240.0,14.0,0.0
213,54.0,0.0,240.0,3.0,0.0
214,61.0,0.0,60.0,4.0,0.0
215,61.0,0.0,60.0,5.0,0.0
216,54.0,0.0,120.0,15.0,0.0
217,54.0,0.0,120.0,7.0,0.0
218,73.0,0.0,60.0,5.0,0.0
219,73.0,60.0,60.0,4.0,0.0
220,42.0,0.0,120.0,8.0,0.0
221,57.0,0.0,120.0,6.0,0.0
222,72.0,0.0,60.0,4.0,0.0
223,72.0,0.0,60.0,5.0,0.0
224,57.0,60.0,120.0,6.0,0.0
225,42.0,0.0,120.0,8.0,0.0
226,54.0,0.0,120.0,15.0,0.0
227,54.0,0.0,120.0,7.0,0.0
228,74.0,60.0,60.0,5.0,0.0
229,74.0,0.0,60.0,4.0,0.0
230,73.0,0.0,60.0,5.0,0.0
231,73.0,0.0,60.0,4.0,0.0
232,54.0,0.0,120.0,7.0,0.0
233,54.0,0.0,120.0,15.0,0.0
234,42.0,0.0,120.0,8.0,0.0
235,57.0,60.0,120.0,6.0,0.0
236,71.0,60.0,60.0,4.0,0.0
237,71.0,0.0,60.0,5.0,0.0
238,69.0,0.0,60.0,4.0,0.0
239,69.0,0.0,60.0,5.0,0.0
240,68.0,60.0,60.0,5.0,0.0
241,66.0,120.0,240.0,12.0,0.0
242,69.0,0.0,240.0,3.0,0.0
243,66.0,0.0,240.0,3.0,0.0
244,54.0,0.0,120.0,15.0,0.0
245,69.0,0.0,240.0,11.0,0.0
246,42.0,0.0,120.0,8.0,0.0
247,54.0,0.0,240.0,3.0,0.0
248,68.0,0.0,60.0,4.0,0.0
249,54.0,0.0,120.0,7.0,0.0
250,73.0,0.0,240.0,10.0,0.0
251,57.0,0.0,120.0,6.0,0.0
252,54.0,0.0,240.0,13.0,0.0
253,66.0,0.0,60.0,4.0,0.0
254,66.0,60.0,60.0,5.0,0.0
255,42.0,0.0,120.0,8.0,0.0
256,65.0,0.0,60.0,4.0,0.0
257,54.0,0.0,120.0,15.0,0.0
258,65.0,60.0,60.0,5.0,0.0
259,57.0,0.0,120.0,6.0,0.0
260,54.0,0.0,120.0,7.0,0.0
261,66.0,0.0,60.0,5.0,0.0
262,66.0,0.0,60.0,4.0,0.0
263,56.0,60.0,240.0,1.0,0.0
264,62.0,0.0,720.0,3.0,0.0
265,71.0,120.0,720.0,11.0,0.0
266,71.0,0.0,240.0,1.0,0.0
267,77.0,0.0,720.0,10.0,0.0
268,56.0,0.0,120.0,7.0,0.0
269,56.0,0.0,720.0,13.0,0.0
270,56.0,0.0,720.0,3.0,0.0
271,56.0,0.0,120.0,15.0,0.0
272,77.0,0.0,240.0,0.0,0.0
273,74.0,0.0,240.0,0.0,0.0
274,62.0,0.0,120.0,6.0,0.0
275,59.0,60.0,120.0,6.0,0.0
276,62.0,0.0,720.0,12.0,0.0
277,71.0,0.0,720.0,3.0,0.0
278,44.0,0.0,120.0,8.0,0.0
279,68.0,0.0,60.0,4.0,0.0
280,68.0,0.0,60.0,5.0,0.0
281,56.0,0.0,120.0,15.0,0.0
282,44.0,0.0,120.0,8.0,0.0
283,62.0,0.0,120.0,6.0,0.0
284,78.0,0.0,60.0,5.0,0.0
285,56.0,0.0,120.0,7.0,0.0
286,59.0,0.0,120.0,6.0,0.0
287,78.0,60.0,60.0,4.0,0.0
288,77.0,0.0,60.0,5.0,0.0
289,77.0,0.0,60.0,4.0,0.0
290,80.0,60.0,60.0,5.0,0.0
291,44.0,0.0,120.0,8.0,0.0
292,80.0,0.0,60.0,4.0,0.0
293,59.0,0.0,120.0,6.0,0.0
294,62.0,60.0,120.0,6.0,0.0
295,56.0,0.0,120.0,15.0,0.0
296,56.0,0.0,120.0,7.0,0.0
297,78.0,0.0,60.0,4.0,0.0
298,78.0,0.0,60.0,5.0,0.0
299,77.0,0.0,60.0,5.0,0.0
300,56.0,0.0,120.0,15.0,0.0
301,44.0,0.0,120.0,8.0,0.0
302,56.0,0.0,120.0,7.0,0.0
303,77.0,60.0,60.0,4.0,0.0
304,62.0,0.0,120.0,6.0,0.0
305,59.0,0.0,120.0,6.0,0.0
306,74.0,60.0,60.0,5.0,0.0
307,74.0,0.0,60.0,4.0,0.0
308,73.0,0.0,60.0,5.0,0.0
309,59.0,0.0,120.0,6.0,0.0
310,62.0,0.0,120.0,6.0,0.0
311,44.0,0.0,120.0,8.0,0.0
312,56.0,60.0,120.0,7.0,0.0
313,56.0,0.0,120.0,15.0,0.0
314,73.0,60.0,60.0,4.0,0.0
315,71.0,0.0,60.0,4.0,0.0
316,71.0,0.0,60.0,5.0,0.0
317,56.0,0.0,120.0,7.0,0.0
318,69.0,0.0,60.0,5.0,0.0
319,56.0,0.0,120.0,15.0,0.0
320,69.0,60.0,60.0,4.0,0.0
321,59.0,0.0,120.0,6.0,0.0
322,62.0,0.0,120.0,6.0,0.0
323,44.0,0.0,120.0,8.0,0.0
324,68.0,0.0,60.0,5.0,0.0
325,68.0,0.0,60.0,4.0,0.0
326,61.0,0.0,120.0,6.0,0.0
327,57.0,0.0,240.0,1.0,0.0
328,61.0,0.0,240.0,3.0,0.0
329,66.0,0.0,240.0,2.0,0.0
330,73.0,0.0,240.0,0.0,0.0
331,78.0,0.0,240.0,0.0,0.0
332,57.0,0.0,240.0,13.0,0.0
333,69.0,0.0,240.0,3.0,0.0
334,57.0,0.0,120.0,7.0,0.0
335,78.0,0.0,240.0,2.0,0.0
336,57.0,60.0,120.0,15.0,0.0
337,57.0,0.0,120.0,6.0,0.0
338,54.0,0.0,240.0,14.0,0.0
339,61.0,0.0,240.0,12.0,0.0
340,69.0,60.0,240.0,11.0,0.0
341,57.0,0.0,240.0,3.0,0.0
342,69.0,0.0,240.0,1.0,0.0
343,78.0,0.0,240.0,10.0,0.0
344,45.0,0.0,120.0,8.0,0.0
345,66.0,0.0,60.0,4.0,0.0
346,66.0,0.0,60.0,5.0,0.0
347,61.0,0.0,120.0,6.0,0.0
348,45.0,0.0,120.0,8.0,0.0
349,81.0,0.0,60.0,4.0,0.0
350,81.0,60.0,60.0,5.0,0.0
351,57.0,0.0,120.0,6.0,0.0
352,57.0,0.0,120.0,7.0,0.0
353,57.0,0.0,120.0,15.0,0.0
354,80.0,0.0,60.0,5.0,0.0
355,80.0,0.0,60.0,4.0,0.0
356,45.0,0.0,120.0,8.0,0.0
357,78.0,0.0,60.0,5.0,0.0
358,57.0,0.0,120.0,6.0,0.0
359,57.0,60.0,120.0,15.0,0.0
360,61.0,0.0,120.0,6.0,0.0
361,78.0,60.0,60.0,4.0,0.0
362,57.0,0.0,120.0,7.0,0.0
363,85.0,0.0,60.0,4.0,0.0
364,85.0,0.0,60.0,5.0,0.0
365,83.0,60.0,60.0,4.0,0.0
366,61.0,0.0,120.0,6.0,0.0
367,45.0,0.0,120.0,8.0,0.0
368,57.0,0.0,120.0,15.0,0.0
369,57.0,0.0,120.0,7.0,0.0
370,57.0,0.0,120.0,6.0,0.0
371,83.0,0.0,60.0,5.0,0.0
372,81.0,60.0,60.0,4.0,0.0
373,81.0,0.0,60.0,5.0,0.0
374,78.0,0.0,240.0,10.0,0.0
375,57.0,60.0,120.0,7.0,0.0
376,66.0,0.0,240.0,3.0,0.0
377,57.0,0.0,240.0,13.0,0.0
378,57.0,0.0,120.0,15.0,0.0
379,80.0,60.0,60.0,4.0,0.0
380,66.0,0.0,240.0,12.0,0.0
381,57.0,0.0,240.0,3.0,0.0
382,57.0,0.0,120.0,6.0,0.0
383,73.0,0.0,240.0,3.0,0.0
384,80.0,0.0,60.0,5.0,0.0
385,61.0,0.0,120.0,6.0,0.0
386,73.0,120.0,240.0,11.0,0.0
387,45.0,0.0,120.0,8.0,0.0
388,78.0,0.0,60.0,5.0,0.0
389,78.0,0.0,60.0,4.0,0.0
390,77.0,0.0,60.0,5.0,0.0
391,57.0,0.0,120.0,15.0,0.0
392,45.0,0.0,120.0,8.0,0.0
393,57.0,0.0,120.0,6.0,0.0
394,61.0,0.0,120.0,6.0,0.0
395,57.0,0.0,120.0,7.0,0.0
396,77.0,60.0,60.0,4.0,0.0
397,78.0,0.0,60.0,4.0,0.0
398,78.0,0.0,60.0,5.0,0.0
399,47.0,60.0,120.0,8.0,0.0
400,66.0,0.0,480.0,3.0,0.0
401,59.0,0.0,120.0,15.0,0.0
402,74.0,0.0,480.0,11.0,0.0
403,54.0,0.0,240.0,14.0,0.0
404,66.0,0.0,480.0,12.0,0.0
405,59.0,0.0,480.0,13.0,0.0
406,59.0,0.0,240.0,1.0,0.0
407,59.0,0.0,120.0,6.0,0.0
408,62.0,0.0,120.0,6.0,0.0
409,74.0,0.0,240.0,0.0,0.0
410,80.0,0.0,240.0,0.0,0.0
411,80.0,0.0,480.0,10.0,0.0
412,74.0,0.0,480.0,3.0,0.0
413,59.0,0.0,480.0,3.0,0.0
414,59.0,0.0,120.0,7.0,0.0
415,66.0,60.0,240.0,2.0,0.0
416,78.0,0.0,240.0,2.0,0.0
417,66.0,0.0,240.0,1.0,0.0
418,80.0,0.0,60.0,5.0,0.0
419,80.0,0.0,60.0,4.0,0.0
420,62.0,0.0,120.0,6.0,0.0
421,47.0,0.0,120.0,8.0,0.0
422,59.0,0.0,120.0,15.0,0.0
423,59.0,0.0,120.0,6.0,0.0
424,83.0,60.0,60.0,5.0,0.0
425,59.0,0.0,120.0,7.0,0.0
426,83.0,0.0,60.0,4.0,0.0
427,81.0,0.0,60.0,4.0,0.0
428,81.0,0.0,60.0,5.0,0.0
429,59.0,0.0,120.0,7.0,0.0
430,80.0,60.0,60.0,5.0,0.0
431,59.0,0.0,120.0,6.0,0.0
432,59.0,0.0,120.0,15.0,0.0
433,80.0,0.0,60.0,4.0,0.0
434,47.0,0.0,120.0,8.0,0.0
435,62.0,60.0,120.0,6.0,0.0
436,86.0,0.0,60.0,5.0,0.0
437,86.0,0.0,60.0,4.0,0.0
438,59.0,60.0,120.0,15.0,0.0
439,62.0,0.0,120.0,6.0,0.0
440,85.0,60.0,60.0,5.0,0.0
441,59.0,0.0,120.0,7.0,0.0
442,59.0,0.0,120.0,6.0,0.0
443,85.0,0.0,60.0,4.0,0.0
444,47.0,0.0,120.0,8.0,0.0
445,83.0,0.0,60.0,5.0,0.0
446,83.0,0.0,60.0,4.0,0.0
447,80.0,0.0,240.0,10.0,0.0
448,66.0,0.0,240.0,12.0,0.0
449,74.0,0.0,240.0,3.0,0.0
450,59.0,0.0,120.0,15.0,0.0
451,59.0,0.0,240.0,13.0,0.0
452,59.0,0.0,240.0,3.0,0.0
453,59.0,0.0,120.0,7.0,0.0
454,74.0,0.0,240.0,11.0,0.0
455,62.0,60.0,120.0,6.0,0.0
456,59.0,0.0,120.0,6.0,0.0
457,66.0,0.0,240.0,3.0,0.0
458,81.0,0.0,60.0,4.0,0.0
459,81.0,60.0,60.0,5.0,0.0
460,47.0,0.0,120.0,8.0,0.0
461,80.0,0.0,60.0,4.0,0.0
462,80.0,0.0,60.0,5.0,0.0
463,47.0,0.0,120.0,8.0,0.0
464,78.0,60.0,60.0,4.0,0.0
465,78.0,0.0,60.0,5.0,0.0
466,59.0,60.0,120.0,6.0,0.0
467,59.0,0.0,120.0,7.0,0.0
468,59.0,0.0,120.0,15.0,0.0
469,62.0,0.0,120.0,6.0,0.0
470,80.0,0.0,60.0,4.0,0.0
471,80.0,0.0,60.0,5.0,0.0
472,60.0,0.0,720.0,3.0,0.0
473,48.0,0.0,120.0,8.0,0.0
474,75.0,120.0,720.0,3.0,0.0
475,81.0,0.0,720.0,10.0,0.0
476,54.0,60.0,60.0,14.0,0.0
477,78.0,0.0,720.0,0.0,0.0
478,60.0,0.0,720.0,1.0,0.0
479,75.0,0.0,720.0,0.0,0.0
480,78.0,0.0,720.0,2.0,0.0
481,66.0,0.0,720.0,2.0,0.0
482,63.0,0.0,120.0,6.0,0.0
483,66.0,0.0,720.0,3.0,0.0
484,69.0,0.0,720.0,1.0,0.0
485,60.0,60.0,120.0,15.0,0.0
486,66.0,0.0,720.0,12.0,0.0
487,60.0,0.0,720.0,13.0,0.0
488,75.0,0.0,720.0,11.0,0.0
489,60.0,0.0,120.0,7.0,0.0
490,54.0,0.0,60.0,14.0,0.0
491,69.0,0.0,60.0,4.0,0.0
492,69.0,0.0,60.0,5.0,0.0
493,54.0,0.0,60.0,14.0,0.0
494,60.0,0.0,120.0,15.0,0.0
495,81.0,0.0,60.0,4.0,0.0
496,63.0,0.0,120.0,6.0,0.0
497,81.0,60.0,60.0,5.0,0.0
498,60.0,0.0,120.0,7.0,0.0
499,48.0,30.0,120.0,8.0,0.0
500,80.0,0.0,60.0,4.0,0.0
501,80.0,0.0,60.0,5.0,0.0
502,54.0,0.0,60.0,14.0,0.0
503,83.0,0.0,60.0,4.0,0.0
504,60.0,30.0,120.0,7.0,0.0
505,48.0,0.0,120.0,8.0,0.0
506,60.0,0.0,120.0,15.0,0.0
507,83.0,0.0,60.0,5.0,0.0
508,63.0,0.0,120.0,6.0,0.0
509,54.0,30.0,30.0,14.0,0.0
510,54.0,30.0,30.0,14.0,0.0
511,81.0,0.0,60.0,5.0,0.0
512,54.0,30.0,30.0,14.0,0.0
513,81.0,0.0,60.0,4.0,0.0
514,54.0,0.0,30.0,14.0,0.0
515,48.0,30.0,120.0,8.0,0.0
516,80.0,0.0,60.0,4.0,0.0
517,60.0,0.0,120.0,15.0,0.0
518,54.0,30.0,30.0,14.0,0.0
519,80.0,0.0,60.0,5.0,0.0
520,69.0,0.0,120.0,6.0,0.0
521,60.0,0.0,120.0,7.0,0.0
522,54.0,30.0,30.0,14.0,0.0
523,78.0,0.0,60.0,4.0,0.0
524,54.0,30.0,30.0,14.0,0.0
525,78.0,0.0,60.0,5.0,0.0
526,54.0,0.0,30.0,14.0,0.0
527,48.0,0.0,120.0,8.0,0.0
528,77.0,30.0,60.0,5.0,0.0
529,60.0,0.0,120.0,15.0,0.0
530,77.0,0.0,60.0,4.0,0.0
531,60.0,0.0,120.0,7.0,0.0
532,69.0,0.0,120.0,6.0,0.0
533,54.0,30.0,30.0,14.0,0.0
534,54.0,0.0,30.0,14.0,0.0
535,54.0,30.0,30.0,14.0,0.0
536,78.0,0.0,60.0,5.0,0.0
537,78.0,0.0,60.0,4.0,0.0
538,54.0,30.0,30.0,14.0,0.0
539,60.0,0.0,120.0,7.0,0.0
540,80.0,0.0,60.0,5.0,0.0
541,48.0,0.0,120.0,8.0,0.0
542,54.0,30.0,30.0,14.0,0.0
543,80.0,30.0,60.0,4.0,0.0
544,69.0,0.0,120.0,6.0,0.0
545,60.0,0.0,120.0,15.0,0.0
546,54.0,0.0,30.0,14.0,0.0
547,54.0,30.0,30.0,14.0,0.0
548,78.0,0.0,60.0,5.0,0.0
549,78.0,0.0,60.0,4.0,0.0
550,54.0,0.0,30.0,14.0,0.0
551,61.0,0.0,240.0,7.0,0.0
552,61.0,0.0,240.0,1.0,0.0
553,77.0,0.0,240.0,0.0,0.0
554,49.0,0.0,240.0,8.0,0.0
555,68.0,0.0,240.0,11.0,0.0
556,65.0,0.0,240.0,12.0,0.0
557,80.0,0.0,240.0,10.0,0.0
558,68.0,0.0,240.0,1.0,0.0
559,73.0,0.0,240.0,0.0,0.0
560,61.0,0.0,180.0,2.0,0.0
561,65.0,0.0,240.0,3.0,0.0
562,77.0,240.0,240.0,5.0,0.0
563,85.0,0.0,240.0,5.0,0.0
564,61.0,0.0,240.0,3.0,0.0
565,61.0,0.0,240.0,15.0,0.0
566,49.0,30.0,120.0,14.0,0.0
567,68.0,0.0,240.0,6.0,0.0
568,77.0,0.0,240.0,4.0,0.0
569,85.0,0.0,240.0,4.0,0.0
570,68.0,0.0,240.0,3.0,0.0
571,61.0,0.0,240.0,13.0,0.0
572,73.0,30.0,180.0,2.0,0.0
573,49.0,30.0,30.0,14.0,0.0
574,49.0,0.0,30.0,14.0,0.0
575,73.0,0.0,60.0,2.0,0.0
576,49.0,30.0,30.0,14.0,0.0
577,61.0,0.0,60.0,2.0,0.0
578,49.0,0.0,30.0,14.0,0.0
579,73.0,0.0,240.0,2.0,0.0
580,49.0,0.0,240.0,14.0,0.0
581,61.0,360.0,240.0,4.0,0.0
582,61.0,0.0,240.0,5.0,0.0
583,61.0,0.0,240.0,2.0,0.0
584,45.0,120.0,120.0,8.0,0.0
585,57.0,0.0,120.0,7.0,0.0
586,45.0,120.0,120.0,8.0,0.0
587,57.0,0.0,120.0,7.0,0.0
588,57.0,0.0,240.0,13.0,0.0
589,45.0,0.0,120.0,8.0,0.0
590,57.0,120.0,120.0,7.0,0.0
591,45.0,0.0,120.0,8.0,0.0
592,57.0,120.0,120.0,7.0,0.0
593,57.0,0.0,120.0,7.0,0.0
594,45.0,120.0,120.0,8.0,0.0
595,57.0,120.0,240.0,13.0,0.0
596,57.0,0.0,120.0,7.0,0.0
597,45.0,0.0,120.0,8.0,0.0
598,37.0,0.0,120.0,8.0,0.0
599,49.0,120.0,120.0,7.0,0.0
600,49.0,0.0,480.0,13.0,0.0
601,49.0,120.0,120.0,7.0,0.0
602,37.0,0.0,120.0,8.0,0.0
603,69.0,0.0,240.0,5.0,0.0
604,57.0,0.0,240.0,6.0,0.0
605,49.0,120.0,120.0,7.0,0.0
606,57.0,120.0,240.0,12.0,0.0
607,69.0,0.0,240.0,11.0,0.0
608,37.0,0.0,120.0,8.0,0.0
609,76.0,0.0,240.0,4.0,0.0
610,76.0,0.0,240.0,10.0,0.0
611,49.0,0.0,120.0,7.0,0.0
612,37.0,0.0,120.0,8.0,0.0
613,76.0,0.0,240.0,10.0,0.0
614,57.0,0.0,240.0,6.0,0.0
615,67.0,0.0,240.0,5.0,0.0
616,67.0,0.0,240.0,11.0,0.0
617,57.0,0.0,240.0,12.0,0.0
618,76.0,120.0,240.0,4.0,0.0
619,49.0,0.0,120.0,7.0,0.0
620,37.0,120.0,120.0,8.0,0.0
621,49.0,0.0,240.0,13.0,0.0
622,49.0,0.0,120.0,7.0,0.0
623,37.0,0.0,120.0,8.0,0.0
624,50.0,0.0,480.0,13.0,0.0
625,57.0,120.0,120.0,12.0,0.0
626,76.0,0.0,240.0,4.0,0.0
627,67.0,0.0,240.0,5.0,0.0
628,38.0,0.0,120.0,8.0,0.0
629,50.0,0.0,120.0,7.0,0.0
630,57.0,0.0,120.0,6.0,0.0
631,76.0,0.0,240.0,10.0,0.0
632,67.0,120.0,240.0,11.0,0.0
633,38.0,0.0,120.0,8.0,0.0
634,58.0,0.0,120.0,12.0,0.0
635,58.0,0.0,120.0,6.0,0.0
636,50.0,0.0,120.0,7.0,0.0
637,66.0,0.0,120.0,5.0,0.0
638,59.0,0.0,120.0,12.0,0.0
639,66.0,0.0,120.0,11.0,0.0
640,74.0,120.0,120.0,4.0,0.0
641,74.0,0.0,120.0,10.0,0.0
642,59.0,0.0,120.0,6.0,0.0
643,50.0,0.0,120.0,7.0,0.0
644,38.0,0.0,120.0,8.0,0.0
645,50.0,0.0,120.0,7.0,0.0
646,73.0,0.0,120.0,10.0,0.0
647,64.0,0.0,120.0,5.0,0.0
648,61.0,120.0,120.0,12.0,0.0
649,73.0,0.0,120.0,4.0,0.0
650,61.0,0.0,120.0,6.0,0.0
651,64.0,0.0,120.0,11.0,0.0
652,38.0,0.0,120.0,8.0,0.0
653,71.0,0.0,120.0,4.0,0.0
654,38.0,0.0,120.0,8.0,0.0
655,71.0,0.0,120.0,10.0,0.0
656,50.0,120.0,120.0,13.0,0.0
657,62.0,0.0,120.0,6.0,0.0
658,50.0,0.0,120.0,7.0,0.0
659,62.0,0.0,120.0,11.0,0.0
660,62.0,0.0,120.0,12.0,0.0
661,62.0,0.0,120.0,5.0,0.0
662,51.0,0.0,120.0,7.0,0.0
663,61.0,0.0,120.0,5.0,0.0
664,39.0,0.0,120.0,8.0,0.0
665,51.0,0.0,120.0,13.0,0.0
666,61.0,0.0,120.0,11.0,0.0
667,69.0,120.0,120.0,4.0,0.0
668,66.0,0.0,120.0,12.0,0.0
669,69.0,0.0,120.0,10.0,0.0
670,66.0,0.0,120.0,6.0,0.0
671,40.0,120.0,120.0,8.0,0.0
672,52.0,0.0,480.0,13.0,0.0
673,64.0,0.0,480.0,12.0,0.0
674,61.0,0.0,480.0,11.0,0.0
675,69.0,0.0,480.0,10.0,0.0
676,61.0,0.0,120.0,5.0,0.0
677,64.0,0.0,120.0,6.0,0.0
678,52.0,0.0,120.0,7.0,0.0
679,69.0,30.0,480.0,4.0,0.0
680,52.0,120.0,120.0,7.0,0.0
681,61.0,0.0,120.0,5.0,0.0
682,64.0,0.0,120.0,6.0,0.0
683,40.0,0.0,120.0,8.0,0.0
684,52.0,0.0,120.0,7.0,0.0
685,61.0,0.0,120.0,5.0,0.0
686,64.0,120.0,120.0,6.0,0.0
687,40.0,0.0,120.0,8.0,0.0
688,61.0,0.0,120.0,5.0,0.0
689,52.0,0.0,120.0,7.0,0.0
690,64.0,0.0,120.0,6.0,0.0
691,40.0,0.0,120.0,8.0,0.0
692,62.0,0.0,240.0,11.0,0.0
693,73.0,60.0,60.0,10.0,0.0
694,73.0,30.0,30.0,4.0,0.0
695,40.0,0.0,120.0,8.0,0.0
696,62.0,60.0,120.0,5.0,0.0
697,52.0,0.0,120.0,7.0,0.0
698,56.0,0.0,120.0,6.0,0.0
699,56.0,0.0,240.0,12.0,0.0
700,52.0,0.0,240.0,13.0,0.0
701,71.0,60.0,150.0,4.0,0.0
702,71.0,0.0,180.0,10.0,0.0
703,52.0,0.0,120.0,7.0,0.0
704,62.0,240.0,120.0,5.0,0.0
705,40.0,0.0,120.0,8.0,0.0
706,56.0,0.0,120.0,6.0,0.0
707,69.0,0.0,60.0,4.0,0.0
708,57.0,0.0,240.0,12.0,0.0
709,69.0,0.0,240.0,4.0,0.0
710,57.0,240.0,240.0,6.0,0.0
711,61.0,0.0,240.0,11.0,0.0
712,33.0,0.0,240.0,8.0,0.0
713,45.0,0.0,240.0,7.0,0.0
714,69.0,0.0,240.0,10.0,0.0
715,45.0,0.0,240.0,13.0,0.0
716,61.0,0.0,240.0,5.0,0.0
717,69.0,0.0,240.0,0.0,0.0
718,57.0,0.0,240.0,1.0,0.0
719,76.0,0.0,240.0,0.0,0.0
720,49.0,240.0,240.0,1.0,0.0
721,49.0,120.0,240.0,1.0,0.0
722,67.0,0.0,240.0,0.0,0.0
723,57.0,0.0,240.0,1.0,0.0
724,76.0,0.0,240.0,0.0,0.0
725,57.0,120.0,120.0,1.0,0.0
726,67.0,0.0,240.0,0.0,0.0
727,76.0,0.0,240.0,0.0,0.0
728,50.0,0.0,600.0,1.0,0.0
729,58.0,120.0,120.0,1.0,0.0
730,59.0,120.0,120.0,1.0,0.0
731,74.0,0.0,120.0,0.0,0.0
732,66.0,0.0,120.0,0.0,0.0
733,64.0,0.0,120.0,0.0,0.0
734,73.0,0.0,120.0,0.0,0.0
735,61.0,120.0,120.0,1.0,0.0
736,71.0,120.0,120.0,0.0,0.0
737,62.0,0.0,120.0,0.0,0.0
738,62.0,0.0,120.0,1.0,0.0
739,61.0,480.0,120.0,0.0,0.0
740,66.0,0.0,120.0,1.0,0.0
741,51.0,0.0,120.0,1.0,0.0
742,69.0,0.0,120.0,0.0,0.0
743,69.0,0.0,480.0,0.0,0.0
744,61.0,0.0,480.0,0.0,0.0
745,52.0,30.0,480.0,1.0,0.0
746,64.0,0.0,480.0,1.0,0.0
747,40.0,0.0,240.0,8.0,0.0
748,52.0,0.0,240.0,3.0,0.0
749,61.0,0.0,240.0,3.0,0.0
750,69.0,0.0,240.0,3.0,0.0
751,52.0,0.0,240.0,7.0,0.0
752,62.0,0.0,240.0,3.0,0.0
753,62.0,0.0,240.0,0.0,0.0
754,40.0,0.0,240.0,8.0,0.0
755,40.0,0.0,240.0,1.0,0.0
756,56.0,0.0,240.0,1.0,0.0
757,52.0,0.0,240.0,7.0,0.0
758,68.0,0.0,240.0,3.0,0.0
759,73.0,150.0,30.0,0.0,0.0
760,52.0,120.0,240.0,3.0,0.0
761,71.0,60.0,150.0,0.0,0.0
762,69.0,0.0,60.0,0.0,0.0
763,45.0,0.0,120.0,15.0,0.0
764,61.0,0.0,240.0,0.0,0.0
765,69.0,0.0,240.0,3.0,0.0
766,33.0,0.0,120.0,8.0,0.0
767,45.0,60.0,120.0,7.0,0.0
768,69.0,0.0,240.0,0.0,0.0
769,61.0,0.0,120.0,6.0,0.0
770,61.0,0.0,240.0,3.0,0.0
771,57.0,0.0,240.0,3.0,0.0
772,57.0,0.0,240.0,1.0,0.0
773,45.0,0.0,240.0,1.0,0.0
774,64.0,0.0,60.0,4.0,0.0
775,64.0,0.0,60.0,5.0,0.0
776,76.0,60.0,60.0,4.0,0.0
777,57.0,60.0,120.0,15.0,0.0
778,61.0,0.0,120.0,6.0,0.0
779,45.0,0.0,120.0,8.0,0.0
780,57.0,0.0,120.0,7.0,0.0
781,76.0,0.0,60.0,5.0,0.0
782,75.0,0.0,60.0,5.0,0.0
783,75.0,0.0,60.0,4.0,0.0
784,69.0,0.0,240.0,11.0,0.0
785,69.0,0.0,240.0,3.0,0.0
786,64.0,0.0,240.0,12.0,0.0
787,73.0,0.0,240.0,10.0,0.0
788,78.0,60.0,60.0,5.0,0.0
789,57.0,0.0,240.0,13.0,0.0
790,73.0,0.0,240.0,0.0,0.0
791,69.0,0.0,240.0,0.0,0.0
792,61.0,0.0,120.0,6.0,0.0
793,57.0,0.0,120.0,15.0,0.0
794,45.0,0.0,120.0,8.0,0.0
795,64.0,0.0,240.0,3.0,0.0
796,57.0,0.0,240.0,3.0,0.0
797,78.0,0.0,60.0,4.0,0.0
798,57.0,60.0,120.0,7.0,0.0
799,64.0,0.0,240.0,1.0,0.0
800,57.0,0.0,240.0,1.0,0.0
801,76.0,0.0,60.0,5.0,0.0
802,76.0,0.0,60.0,4.0,0.0
803,57.0,0.0,120.0,7.0,0.0
804,61.0,0.0,120.0,6.0,0.0
805,74.0,60.0,60.0,4.0,0.0
806,45.0,0.0,120.0,8.0,0.0
807,57.0,60.0,120.0,15.0,0.0
808,74.0,0.0,60.0,5.0,0.0
809,73.0,0.0,60.0,4.0,0.0
810,73.0,0.0,60.0,5.0,0.0
811,45.0,0.0,120.0,8.0,0.0
812,69.0,120.0,240.0,3.0,0.0
813,69.0,0.0,240.0,0.0,0.0
814,73.0,0.0,240.0,0.0,0.0
815,71.0,0.0,60.0,4.0,0.0
816,57.0,0.0,120.0,15.0,0.0
817,64.0,0.0,240.0,3.0,0.0
818,57.0,0.0,240.0,3.0,0.0
819,61.0,0.0,120.0,6.0,0.0
820,64.0,0.0,240.0,12.0,0.0
821,69.0,0.0,240.0,11.0,0.0
822,71.0,60.0,60.0,5.0,0.0
823,57.0,0.0,240.0,1.0,0.0
824,64.0,0.0,240.0,1.0,0.0
825,73.0,0.0,240.0,10.0,0.0
826,57.0,0.0,120.0,7.0,0.0
827,57.0,0.0,240.0,13.0,0.0
828,69.0,0.0,60.0,4.0,0.0
829,69.0,60.0,60.0,5.0,0.0
830,45.0,0.0,120.0,8.0,0.0
831,57.0,0.0,120.0,7.0,0.0
832,68.0,0.0,60.0,5.0,0.0
833,57.0,0.0,120.0,15.0,0.0
834,61.0,0.0,120.0,6.0,0.0
835,68.0,60.0,60.0,4.0,0.0
836,69.0,0.0,60.0,5.0,0.0
837,69.0,0.0,60.0,4.0,0.0
838,71.0,0.0,240.0,0.0,0.0
839,71.0,0.0,720.0,11.0,0.0
840,71.0,0.0,720.0,3.0,0.0
841,56.0,0.0,720.0,13.0,0.0
842,64.0,0.0,720.0,12.0,0.0
843,56.0,0.0,120.0,7.0,0.0
844,64.0,0.0,720.0,3.0,0.0
845,56.0,0.0,240.0,1.0,0.0
846,74.0,120.0,720.0,10.0,0.0
847,64.0,60.0,240.0,1.0,0.0
848,56.0,0.0,120.0,15.0,0.0
849,61.0,0.0,120.0,6.0,0.0
850,56.0,0.0,720.0,3.0,0.0
851,74.0,0.0,240.0,0.0,0.0
852,44.0,0.0,120.0,8.0,0.0
853,68.0,0.0,60.0,5.0,0.0
854,68.0,60.0,60.0,4.0,0.0
855,56.0,0.0,120.0,15.0,0.0
856,74.0,0.0,60.0,5.0,0.0
857,61.0,0.0,120.0,6.0,0.0
858,56.0,0.0,120.0,7.0,0.0
859,44.0,0.0,120.0,8.0,0.0
860,74.0,60.0,60.0,4.0,0.0
861,73.0,0.0,60.0,5.0,0.0
862,73.0,0.0,60.0,4.0,0.0
863,56.0,0.0,120.0,7.0,0.0
864,61.0,0.0,120.0,6.0,0.0
865,44.0,60.0,120.0,8.0,0.0
866,56.0,0.0,120.0,15.0,0.0
867,76.0,0.0,60.0,5.0,0.0
868,76.0,60.0,60.0,4.0,0.0
869,74.0,0.0,60.0,5.0,0.0
870,74.0,0.0,60.0,4.0,0.0
871,56.0,0.0,120.0,15.0,0.0
872,44.0,0.0,120.0,8.0,0.0
873,73.0,60.0,60.0,4.0,0.0
874,61.0,0.0,120.0,6.0,0.0
875,56.0,0.0,120.0,7.0,0.0
876,73.0,0.0,60.0,5.0,0.0
877,71.0,0.0,60.0,4.0,0.0
878,71.0,60.0,60.0,5.0,0.0
879,69.0,60.0,60.0,5.0,0.0
880,61.0,0.0,120.0,6.0,0.0
881,69.0,0.0,60.0,4.0,0.0
882,56.0,0.0,120.0,15.0,0.0
883,56.0,0.0,120.0,7.0,0.0
884,44.0,60.0,120.0,8.0,0.0
885,68.0,0.0,60.0,4.0,0.0
886,68.0,0.0,60.0,5.0,0.0
887,66.0,60.0,60.0,4.0,0.0
888,44.0,0.0,120.0,8.0,0.0
889,61.0,0.0,120.0,6.0,0.0
890,56.0,0.0,120.0,15.0,0.0
891,56.0,0.0,120.0,7.0,0.0
892,66.0,0.0,60.0,5.0,0.0
893,64.0,0.0,60.0,5.0,0.0
894,64.0,0.0,60.0,4.0,0.0
895,69.0,60.0,240.0,11.0,0.0
896,57.0,0.0,120.0,15.0,0.0
897,64.0,0.0,240.0,1.0,0.0
898,64.0,0.0,240.0,3.0,0.0
899,61.0,0.0,120.0,6.0,0.0
900,57.0,0.0,240.0,3.0,0.0
901,57.0,0.0,240.0,1.0,0.0
902,69.0,0.0,240.0,3.0,0.0
903,73.0,0.0,240.0,10.0,0.0
904,64.0,0.0,240.0,12.0,0.0
905,45.0,0.0,120.0,8.0,0.0
906,57.0,0.0,120.0,7.0,0.0
907,69.0,0.0,240.0,0.0,0.0
908,73.0,0.0,240.0,0.0,0.0
909,57.0,0.0,240.0,13.0,0.0
910,64.0,0.0,60.0,4.0,0.0
911,64.0,60.0,60.0,5.0,0.0
912,57.0,0.0,120.0,15.0,0.0
913,57.0,0.0,120.0,7.0,0.0
914,61.0,0.0,120.0,6.0,0.0
915,45.0,0.0,120.0,8.0,0.0
916,76.0,60.0,60.0,5.0,0.0
917,76.0,0.0,60.0,4.0,0.0
918,75.0,0.0,60.0,5.0,0.0
919,75.0,0.0,60.0,4.0,0.0
920,61.0,0.0,120.0,6.0,0.0
921,78.0,0.0,60.0,4.0,0.0
922,57.0,60.0,120.0,15.0,0.0
923,78.0,60.0,60.0,5.0,0.0
924,45.0,0.0,120.0,8.0,0.0
925,57.0,0.0,120.0,7.0,0.0
926,76.0,0.0,60.0,4.0,0.0
927,76.0,0.0,60.0,5.0,0.0
928,74.0,0.0,60.0,4.0,0.0
929,74.0,60.0,60.0,5.0,0.0
930,57.0,0.0,120.0,7.0,0.0
931,45.0,0.0,120.0,8.0,0.0
932,61.0,60.0,120.0,6.0,0.0
933,57.0,0.0,120.0,15.0,0.0
934,73.0,0.0,60.0,5.0,0.0
935,73.0,0.0,60.0,4.0,0.0
936,61.0,0.0,240.0,3.0,0.0
937,71.0,0.0,60.0,5.0,0.0
938,69.0,0.0,240.0,3.0,0.0
939,66.0,120.0,240.0,12.0,0.0
940,69.0,0.0,240.0,11.0,0.0
941,61.0,0.0,240.0,13.0,0.0
942,61.0,0.0,120.0,6.0,0.0
943,42.0,0.0,120.0,8.0,0.0
944,66.0,0.0,240.0,3.0,0.0
945,71.0,60.0,60.0,4.0,0.0
946,69.0,0.0,240.0,10.0,0.0
947,54.0,0.0,120.0,15.0,0.0
948,54.0,60.0,120.0,7.0,0.0
949,69.0,0.0,60.0,5.0,0.0
950,69.0,0.0,60.0,4.0,0.0
951,68.0,0.0,60.0,5.0,0.0
952,54.0,0.0,120.0,15.0,0.0
953,54.0,0.0,120.0,7.0,0.0
954,42.0,0.0,120.0,8.0,0.0
955,61.0,0.0,120.0,6.0,0.0
956,68.0,60.0,60.0,4.0,0.0
957,69.0,0.0,60.0,4.0,0.0
958,69.0,0.0,60.0,5.0,0.0
959,71.0,0.0,720.0,11.0,0.0
960,51.0,60.0,120.0,7.0,0.0
961,51.0,0.0,120.0,15.0,0.0
962,78.0,0.0,240.0,0.0,0.0
963,71.0,0.0,240.0,0.0,0.0
964,69.0,0.0,720.0,3.0,0.0
965,51.0,0.0,720.0,3.0,0.0
966,78.0,0.0,720.0,10.0,0.0
967,69.0,120.0,720.0,12.0,0.0
968,51.0,0.0,240.0,1.0,0.0
969,69.0,0.0,240.0,1.0,0.0
970,39.0,0.0,120.0,8.0,0.0
971,71.0,0.0,720.0,3.0,0.0
972,51.0,0.0,720.0,13.0,0.0
973,63.0,0.0,120.0,6.0,0.0
974,66.0,0.0,60.0,4.0,0.0
975,66.0,0.0,60.0,5.0,0.0
976,39.0,0.0,120.0,8.0,0.0
977,51.0,60.0,120.0,15.0,0.0
978,78.0,0.0,60.0,4.0,0.0
979,78.0,60.0,60.0,5.0,0.0
980,51.0,0.0,120.0,7.0,0.0
981,62.0,0.0,120.0,6.0,0.0
982,77.0,0.0,60.0,5.0,0.0
983,77.0,0.0,60.0,4.0,0.0
984,51.0,60.0,120.0,15.0,0.0
985,51.0,0.0,120.0,7.0,0.0
986,39.0,0.0,120.0,8.0,0.0
987,80.0,0.0,60.0,5.0,0.0
988,62.0,0.0,120.0,6.0,0.0
989,80.0,60.0,60.0,4.0,0.0
990,78.0,0.0,60.0,4.0,0.0
991,78.0,0.0,60.0,5.0,0.0
992,39.0,60.0,120.0,8.0,0.0
993,66.0,0.0,120.0,6.0,0.0
994,51.0,0.0,120.0,7.0,0.0
995,51.0,0.0,120.0,15.0,0.0
996,76.0,0.0,60.0,5.0,0.0
997,76.0,60.0,60.0,4.0,0.0
998,75.0,0.0,60.0,5.0,0.0
999,75.0,0.0,60.0,4.0,0.0
1000,51.0,0.0,120.0,7.0,0.0
1001,66.0,0.0,120.0,6.0,0.0
1002,73.0,60.0,60.0,4.0,0.0
1003,73.0,0.0,60.0,5.0,0.0
1004,51.0,60.0,120.0,15.0,0.0
1005,39.0,0.0,120.0,8.0,0.0
1006,71.0,0.0,60.0,5.0,0.0
1007,71.0,0.0,60.0,4.0,0.0
1008,70.0,0.0,60.0,5.0,0.0
1009,51.0,0.0,120.0,15.0,0.0
1010,51.0,0.0,120.0,7.0,0.0
1011,70.0,60.0,60.0,4.0,0.0
1012,39.0,0.0,120.0,8.0,0.0
1013,66.0,0.0,120.0,6.0,0.0
1014,71.0,0.0,60.0,4.0,0.0
1015,71.0,0.0,60.0,5.0,0.0
1016,52.0,0.0,240.0,13.0,0.0
1017,71.0,0.0,240.0,3.0,0.0
1018,68.0,0.0,120.0,6.0,0.0
1019,68.0,0.0,240.0,12.0,0.0
1020,76.0,0.0,240.0,0.0,0.0
1021,52.0,0.0,240.0,3.0,0.0
1022,76.0,0.0,240.0,10.0,0.0
1023,52.0,0.0,240.0,1.0,0.0
1024,68.0,0.0,240.0,1.0,0.0
1025,52.0,60.0,120.0,15.0,0.0
1026,71.0,0.0,240.0,11.0,0.0
1027,40.0,0.0,120.0,8.0,0.0
1028,52.0,0.0,120.0,7.0,0.0
1029,71.0,0.0,240.0,0.0,0.0
1030,68.0,0.0,240.0,3.0,0.0
1031,71.0,0.0,60.0,5.0,0.0
1032,71.0,0.0,60.0,4.0,0.0
1033,52.0,0.0,120.0,7.0,0.0
1034,83.0,60.0,60.0,4.0,0.0
1035,52.0,0.0,120.0,15.0,0.0
1036,83.0,0.0,60.0,5.0,0.0
1037,68.0,0.0,120.0,6.0,0.0
1038,40.0,60.0,120.0,8.0,0.0
1039,82.0,0.0,60.0,4.0,0.0
1040,82.0,0.0,60.0,5.0,0.0
1041,40.0,0.0,120.0,8.0,0.0
1042,85.0,60.0,60.0,5.0,0.0
1043,85.0,0.0,60.0,4.0,0.0
1044,52.0,0.0,120.0,7.0,0.0
1045,68.0,60.0,120.0,6.0,0.0
1046,52.0,0.0,120.0,15.0,0.0
1047,83.0,0.0,60.0,4.0,0.0
1048,83.0,0.0,60.0,5.0,0.0
1049,81.0,60.0,60.0,4.0,0.0
1050,52.0,0.0,120.0,15.0,0.0
1051,40.0,0.0,120.0,8.0,0.0
1052,52.0,0.0,120.0,7.0,0.0
1053,81.0,0.0,60.0,5.0,0.0
1054,68.0,60.0,120.0,6.0,0.0
1055,80.0,0.0,60.0,5.0,0.0
1056,80.0,0.0,60.0,4.0,0.0
1057,68.0,0.0,120.0,6.0,0.0
1058,52.0,0.0,120.0,15.0,0.0
1059,52.0,0.0,240.0,13.0,0.0
1060,52.0,0.0,120.0,7.0,0.0
1061,78.0,60.0,60.0,5.0,0.0
1062,64.0,0.0,240.0,3.0,0.0
1063,80.0,0.0,240.0,10.0,0.0
1064,71.0,0.0,240.0,3.0,0.0
1065,64.0,0.0,240.0,12.0,0.0
1066,78.0,0.0,60.0,4.0,0.0
1067,40.0,0.0,120.0,8.0,0.0
1068,71.0,0.0,240.0,11.0,0.0
1069,52.0,120.0,240.0,3.0,0.0
1070,76.0,0.0,60.0,4.0,0.0
1071,76.0,60.0,60.0,5.0,0.0
1072,52.0,0.0,120.0,7.0,0.0
1073,52.0,0.0,120.0,15.0,0.0
1074,68.0,0.0,120.0,6.0,0.0
1075,75.0,60.0,60.0,4.0,0.0
1076,40.0,0.0,120.0,8.0,0.0
1077,75.0,0.0,60.0,5.0,0.0
1078,76.0,0.0,60.0,4.0,0.0
1079,76.0,0.0,60.0,5.0,0.0
1080,53.0,0.0,480.0,13.0,0.0
1081,62.0,0.0,240.0,1.0,0.0
1082,62.0,0.0,480.0,12.0,0.0
1083,53.0,60.0,240.0,1.0,0.0
1084,71.0,0.0,480.0,3.0,0.0
1085,62.0,0.0,480.0,3.0,0.0
1086,53.0,0.0,120.0,15.0,0.0
1087,41.0,0.0,120.0,8.0,0.0
1088,53.0,0.0,120.0,7.0,0.0
1089,71.0,0.0,480.0,11.0,0.0
1090,68.0,0.0,120.0,6.0,0.0
1091,71.0,0.0,240.0,0.0,0.0
1092,80.0,0.0,240.0,0.0,0.0
1093,53.0,0.0,480.0,3.0,0.0
1094,80.0,0.0,480.0,10.0,0.0
1095,74.0,60.0,60.0,5.0,0.0
1096,74.0,0.0,60.0,4.0,0.0
1097,68.0,0.0,120.0,6.0,0.0
1098,53.0,0.0,120.0,7.0,0.0
1099,41.0,0.0,120.0,8.0,0.0
1100,53.0,0.0,120.0,15.0,0.0
1101,86.0,60.0,60.0,5.0,0.0
1102,86.0,0.0,60.0,4.0,0.0
1103,85.0,0.0,60.0,4.0,0.0
1104,85.0,0.0,60.0,5.0,0.0
1105,53.0,60.0,120.0,15.0,0.0
1106,41.0,0.0,120.0,8.0,0.0
1107,88.0,0.0,60.0,4.0,0.0
1108,88.0,60.0,60.0,5.0,0.0
1109,53.0,0.0,120.0,7.0,0.0
1110,68.0,0.0,120.0,6.0,0.0
1111,86.0,0.0,60.0,4.0,0.0
1112,86.0,0.0,60.0,5.0,0.0
1113,53.0,0.0,120.0,15.0,0.0
1114,53.0,0.0,120.0,7.0,0.0
1115,85.0,60.0,60.0,4.0,0.0
1116,41.0,0.0,120.0,8.0,0.0
1117,85.0,0.0,60.0,5.0,0.0
1118,68.0,0.0,120.0,6.0,0.0
1119,86.0,60.0,60.0,4.0,0.0
1120,86.0,0.0,60.0,5.0,0.0
1121,42.0,0.0,120.0,8.0,0.0
1122,54.0,60.0,120.0,7.0,0.0
1123,54.0,0.0,120.0,15.0,0.0
1124,54.0,0.0,240.0,13.0,0.0
1125,69.0,0.0,240.0,11.0,0.0
1126,61.0,0.0,240.0,3.0,0.0
1127,69.0,0.0,240.0,3.0,0.0
1128,86.0,0.0,60.0,4.0,0.0
1129,78.0,0.0,240.0,10.0,0.0
1130,54.0,0.0,240.0,3.0,0.0
1131,86.0,60.0,60.0,5.0,0.0
1132,69.0,0.0,120.0,6.0,0.0
1133,61.0,0.0,240.0,12.0,0.0
1134,85.0,0.0,60.0,5.0,0.0
1135,85.0,0.0,60.0,4.0,0.0
1136,42.0,0.0,120.0,8.0,0.0
1137,84.0,0.0,60.0,4.0,0.0
1138,69.0,0.0,120.0,6.0,0.0
1139,54.0,0.0,120.0,15.0,0.0
1140,54.0,0.0,120.0,7.0,0.0
1141,84.0,60.0,60.0,5.0,0.0
1142,85.0,0.0,60.0,4.0,0.0
1143,85.0,120.0,60.0,5.0,0.0
1144,70.0,60.0,120.0,6.0,0.0
1145,55.0,0.0,120.0,15.0,0.0
1146,55.0,0.0,720.0,3.0,0.0
1147,70.0,0.0,720.0,1.0,0.0
1148,61.0,0.0,720.0,12.0,0.0
1149,55.0,0.0,720.0,13.0,0.0
1150,76.0,0.0,720.0,0.0,0.0
1151,76.0,0.0,720.0,10.0,0.0
1152,55.0,0.0,720.0,1.0,0.0
1153,70.0,0.0,720.0,11.0,0.0
1154,61.0,0.0,720.0,3.0,0.0
1155,70.0,0.0,720.0,3.0,0.0
1156,43.0,0.0,120.0,8.0,0.0
1157,73.0,0.0,720.0,0.0,0.0
1158,55.0,0.0,120.0,7.0,0.0
1159,76.0,0.0,60.0,4.0,0.0
1160,76.0,0.0,60.0,5.0,0.0
1161,43.0,0.0,120.0,8.0,0.0
1162,70.0,0.0,120.0,6.0,0.0
1163,55.0,0.0,120.0,15.0,0.0
1164,55.0,0.0,120.0,7.0,0.0
1165,88.0,0.0,60.0,5.0,0.0
1166,88.0,60.0,60.0,4.0,0.0
1167,87.0,60.0,60.0,5.0,0.0
1168,87.0,0.0,60.0,4.0,0.0
1169,55.0,0.0,120.0,15.0,0.0
1170,90.0,60.0,60.0,4.0,0.0
1171,55.0,0.0,120.0,7.0,0.0
1172,70.0,0.0,120.0,6.0,0.0
1173,90.0,0.0,60.0,5.0,0.0
1174,43.0,0.0,120.0,8.0,0.0
1175,88.0,0.0,60.0,5.0,0.0
1176,88.0,60.0,60.0,4.0,0.0
1177,43.0,60.0,120.0,8.0,0.0
1178,87.0,0.0,60.0,4.0,0.0
1179,55.0,0.0,120.0,7.0,0.0
1180,55.0,0.0,120.0,15.0,0.0
1181,70.0,0.0,120.0,6.0,0.0
1182,87.0,60.0,60.0,5.0,0.0
1183,88.0,0.0,60.0,4.0,0.0
1184,88.0,0.0,60.0,5.0,0.0
1185,70.0,0.0,120.0,6.0,0.0
1186,55.0,0.0,120.0,15.0,0.0
1187,87.0,0.0,60.0,5.0,0.0
1188,87.0,60.0,60.0,4.0,0.0
1189,43.0,0.0,120.0,8.0,0.0
1190,55.0,0.0,120.0,7.0,0.0
1191,85.0,60.0,60.0,5.0,0.0
1192,85.0,0.0,60.0,4.0,0.0
1193,84.0,60.0,60.0,5.0,0.0
1194,43.0,0.0,120.0,8.0,0.0
1195,70.0,0.0,120.0,6.0,0.0
1196,55.0,240.0,120.0,7.0,0.0
1197,84.0,0.0,60.0,4.0,0.0
1198,55.0,0.0,120.0,15.0,0.0
1199,85.0,0.0,60.0,4.0,0.0
1200,85.0,0.0,60.0,5.0,0.0
1201,72.0,240.0,240.0,11.0,0.0
1202,56.0,0.0,240.0,3.0,0.0
1203,56.0,0.0,240.0,13.0,0.0
1204,56.0,0.0,240.0,1.0,0.0
1205,84.0,0.0,240.0,5.0,0.0
1206,75.0,0.0,240.0,10.0,0.0
1207,68.0,0.0,240.0,12.0,0.0
1208,68.0,0.0,240.0,3.0,0.0
1209,56.0,0.0,240.0,15.0,0.0
1210,84.0,0.0,240.0,4.0,0.0
1211,68.0,0.0,240.0,6.0,0.0
1212,44.0,0.0,240.0,8.0,0.0
1213,63.0,0.0,240.0,1.0,0.0
1214,75.0,0.0,240.0,0.0,0.0
1215,56.0,0.0,240.0,7.0,0.0
1216,72.0,0.0,240.0,3.0,0.0
1217,72.0,0.0,240.0,0.0,0.0
1218,56.0,0.0,240.0,6.0,0.0
1219,72.0,0.0,240.0,5.0,0.0
1220,63.0,0.0,240.0,5.0,0.0
1221,80.0,480.0,240.0,4.0,0.0
1222,68.0,0.0,240.0,4.0,0.0
1223,75.0,0.0,240.0,4.0,0.0
1224,59.0,0.0,240.0,4.0,0.0
1225,59.0,0.0,240.0,5.0,0.0
1226,59.0,0.0,240.0,6.0,0.0
1227,47.0,0.0,240.0,15.0,0.0
1228,47.0,240.0,240.0,7.0,0.0
1229,35.0,0.0,240.0,8.0,0.0
1230,71.0,240.0,240.0,10.0,0.0
1231,71.0,0.0,240.0,4.0,0.0
1232,71.0,0.0,240.0,10.0,0.0
1233,71.0,120.0,240.0,4.0,0.0
1234,71.0,0.0,480.0,10.0,0.0
1235,71.0,240.0,120.0,4.0,0.0
1236,71.0,120.0,240.0,4.0,0.0
1237,66.0,0.0,240.0,11.0,0.0
1238,66.0,120.0,240.0,5.0,0.0
1239,63.0,0.0,240.0,12.0,0.0
1240,63.0,0.0,240.0,6.0,0.0
1241,71.0,120.0,240.0,4.0,0.0
1242,66.0,0.0,240.0,12.0,0.0
1243,69.0,0.0,240.0,11.0,0.0
1244,71.0,0.0,240.0,10.0,0.0
1245,66.0,0.0,240.0,6.0,0.0
1246,69.0,120.0,240.0,5.0,0.0
1247,71.0,0.0,240.0,4.0,0.0
1248,69.0,0.0,240.0,11.0,0.0
1249,69.0,0.0,240.0,5.0,0.0
1250,40.0,120.0,120.0,8.0,0.0
1251,52.0,0.0,120.0,7.0,0.0
1252,71.0,0.0,480.0,10.0,0.0
1253,52.0,0.0,480.0,13.0,0.0
1254,66.0,0.0,240.0,6.0,0.0
1255,66.0,0.0,240.0,12.0,0.0
1256,71.0,0.0,240.0,4.0,0.0
1257,52.0,0.0,120.0,7.0,0.0
1258,40.0,120.0,120.0,8.0,0.0
1259,64.0,0.0,120.0,12.0,0.0
1260,68.0,0.0,120.0,11.0,0.0
1261,52.0,0.0,120.0,7.0,0.0
1262,68.0,0.0,120.0,5.0,0.0
1263,64.0,120.0,120.0,6.0,0.0
1264,40.0,0.0,120.0,8.0,0.0
1265,63.0,120.0,120.0,6.0,0.0
1266,40.0,0.0,120.0,8.0,0.0
1267,66.0,0.0,120.0,5.0,0.0
1268,63.0,0.0,120.0,12.0,0.0
1269,66.0,0.0,120.0,11.0,0.0
1270,71.0,0.0,240.0,4.0,0.0
1271,52.0,0.0,120.0,7.0,0.0
1272,71.0,0.0,240.0,10.0,0.0
1273,64.0,0.0,240.0,6.0,0.0
1274,68.0,0.0,240.0,11.0,0.0
1275,68.0,0.0,240.0,5.0,0.0
1276,64.0,120.0,240.0,12.0,0.0
1277,56.0,120.0,120.0,7.0,0.0
1278,44.0,0.0,120.0,8.0,0.0
1279,56.0,0.0,240.0,13.0,0.0
1280,56.0,0.0,120.0,7.0,0.0
1281,44.0,0.0,120.0,8.0,0.0
1282,71.0,0.0,240.0,4.0,0.0
1283,64.0,0.0,480.0,5.0,0.0
1284,61.0,0.0,480.0,6.0,0.0
1285,71.0,0.0,240.0,10.0,0.0
1286,45.0,120.0,120.0,8.0,0.0
1287,57.0,0.0,120.0,7.0,0.0
1288,61.0,0.0,480.0,12.0,0.0
1289,57.0,0.0,480.0,13.0,0.0
1290,64.0,0.0,480.0,11.0,0.0
1291,45.0,0.0,120.0,8.0,0.0
1292,57.0,0.0,120.0,7.0,0.0
1293,71.0,120.0,120.0,4.0,0.0
1294,69.0,0.0,120.0,10.0,0.0
1295,57.0,0.0,120.0,7.0,0.0
1296,69.0,120.0,120.0,4.0,0.0
1297,45.0,0.0,120.0,8.0,0.0
1298,68.0,0.0,120.0,4.0,0.0
1299,68.0,120.0,120.0,10.0,0.0
1300,45.0,0.0,120.0,8.0,0.0
1301,57.0,0.0,120.0,7.0,0.0
1302,61.0,0.0,240.0,6.0,0.0
1303,61.0,0.0,240.0,12.0,0.0
1304,54.0,0.0,120.0,7.0,0.0
1305,54.0,0.0,240.0,13.0,0.0
1306,66.0,0.0,240.0,11.0,0.0
1307,66.0,0.0,480.0,5.0,0.0
1308,69.0,120.0,120.0,4.0,0.0
1309,69.0,0.0,480.0,10.0,0.0
1310,42.0,0.0,120.0,8.0,0.0
1311,54.0,120.0,120.0,7.0,0.0
1312,69.0,120.0,240.0,4.0,0.0
1313,42.0,0.0,120.0,8.0,0.0
1314,60.0,0.0,240.0,6.0,0.0
1315,51.0,0.0,240.0,13.0,0.0
1316,60.0,0.0,240.0,12.0,0.0
1317,66.0,0.0,240.0,11.0,0.0
1318,39.0,0.0,120.0,8.0,0.0
1319,51.0,0.0,120.0,7.0,0.0
1320,39.0,0.0,120.0,8.0,0.0
1321,69.0,120.0,120.0,4.0,0.0
1322,51.0,0.0,120.0,7.0,0.0
1323,52.0,0.0,240.0,13.0,0.0
1324,40.0,0.0,120.0,8.0,0.0
1325,64.0,0.0,480.0,11.0,0.0
1326,68.0,0.0,240.0,10.0,0.0
1327,68.0,0.0,120.0,4.0,0.0
1328,64.0,0.0,720.0,5.0,0.0
1329,52.0,120.0,120.0,7.0,0.0
1330,59.0,0.0,240.0,12.0,0.0
1331,59.0,0.0,240.0,6.0,0.0
1332,68.0,0.0,120.0,4.0,0.0
1333,40.0,120.0,120.0,8.0,0.0
1334,52.0,0.0,120.0,7.0,0.0
1335,67.0,0.0,120.0,4.0,0.0
1336,67.0,0.0,240.0,10.0,0.0
1337,49.0,120.0,240.0,13.0,0.0
1338,49.0,0.0,120.0,7.0,0.0
1339,58.0,0.0,240.0,12.0,0.0
1340,58.0,0.0,240.0,6.0,0.0
1341,37.0,120.0,120.0,8.0,0.0
1342,37.0,0.0,120.0,8.0,0.0
1343,67.0,0.0,120.0,4.0,0.0
1344,49.0,0.0,120.0,7.0,0.0
1345,47.0,0.0,120.0,7.0,0.0
1346,35.0,60.0,120.0,8.0,0.0
1347,59.0,0.0,480.0,6.0,0.0
1348,64.0,60.0,240.0,11.0,0.0
1349,66.0,0.0,120.0,4.0,0.0
1350,66.0,0.0,480.0,10.0,0.0
1351,47.0,60.0,480.0,13.0,0.0
1352,59.0,0.0,480.0,12.0,0.0
1353,47.0,0.0,120.0,7.0,0.0
1354,35.0,0.0,120.0,8.0,0.0
1355,66.0,60.0,60.0,4.0,0.0
1356,63.0,0.0,120.0,11.0,0.0
1357,35.0,60.0,120.0,8.0,0.0
1358,63.0,0.0,120.0,5.0,0.0
1359,47.0,0.0,120.0,7.0,0.0
1360,66.0,60.0,60.0,4.0,0.0
1361,61.0,0.0,120.0,11.0,0.0
1362,61.0,0.0,120.0,5.0,0.0
1363,66.0,60.0,60.0,4.0,0.0
1364,47.0,0.0,120.0,7.0,0.0
1365,35.0,0.0,120.0,8.0,0.0
1366,35.0,60.0,120.0,8.0,0.0
1367,63.0,0.0,240.0,11.0,0.0
1368,66.0,0.0,240.0,10.0,0.0
1369,63.0,0.0,240.0,5.0,0.0
1370,57.0,0.0,240.0,6.0,0.0
1371,47.0,0.0,240.0,13.0,0.0
1372,57.0,0.0,240.0,12.0,0.0
1373,47.0,0.0,120.0,7.0,0.0
1374,66.0,60.0,60.0,4.0,0.0
1375,47.0,120.0,120.0,7.0,0.0
1376,66.0,60.0,60.0,4.0,0.0
1377,35.0,0.0,120.0,8.0,0.0
1378,52.0,0.0,240.0,13.0,0.0
1379,64.0,0.0,240.0,10.0,0.0
1380,64.0,0.0,240.0,4.0,0.0
1381,64.0,0.0,240.0,11.0,0.0
1382,64.0,0.0,240.0,5.0,0.0
1383,56.0,0.0,240.0,6.0,0.0
1384,52.0,0.0,120.0,7.0,0.0
1385,40.0,120.0,120.0,8.0,0.0
1386,56.0,0.0,240.0,12.0,0.0
1387,40.0,120.0,120.0,8.0,0.0
1388,52.0,0.0,120.0,7.0,0.0
1389,64.0,0.0,240.0,6.0,0.0
1390,83.0,0.0,240.0,4.0,0.0
1391,44.0,0.0,120.0,8.0,0.0
1392,76.0,120.0,240.0,5.0,0.0
1393,56.0,120.0,120.0,7.0,0.0
1394,56.0,0.0,120.0,7.0,0.0
1395,44.0,0.0,120.0,8.0,0.0
1396,44.0,120.0,120.0,8.0,0.0
1397,83.0,0.0,240.0,4.0,0.0
1398,74.0,0.0,240.0,5.0,0.0
1399,64.0,0.0,240.0,6.0,0.0
1400,56.0,0.0,120.0,7.0,0.0
1401,56.0,120.0,120.0,7.0,0.0
1402,44.0,0.0,120.0,8.0,0.0
1403,45.0,0.0,120.0,8.0,0.0
1404,74.0,0.0,240.0,5.0,0.0
1405,83.0,120.0,240.0,4.0,0.0
1406,64.0,120.0,120.0,6.0,0.0
1407,57.0,0.0,120.0,7.0,0.0
1408,65.0,0.0,120.0,6.0,0.0
1409,57.0,0.0,120.0,7.0,0.0
1410,45.0,0.0,120.0,8.0,0.0
1411,81.0,0.0,120.0,4.0,0.0
1412,73.0,0.0,120.0,5.0,0.0
1413,66.0,0.0,120.0,6.0,0.0
1414,45.0,0.0,120.0,8.0,0.0
1415,57.0,120.0,120.0,7.0,0.0
1416,45.0,0.0,120.0,8.0,0.0
1417,57.0,0.0,120.0,7.0,0.0
1418,71.0,0.0,120.0,5.0,0.0
1419,80.0,0.0,120.0,4.0,0.0
1420,68.0,120.0,120.0,6.0,0.0
1421,57.0,0.0,120.0,7.0,0.0
1422,69.0,120.0,120.0,6.0,0.0
1423,78.0,0.0,120.0,4.0,0.0
1424,45.0,0.0,120.0,8.0,0.0
1425,69.0,0.0,120.0,5.0,0.0
1426,57.0,120.0,120.0,7.0,0.0
1427,73.0,0.0,120.0,6.0,0.0
1428,45.0,0.0,120.0,8.0,0.0
1429,68.0,0.0,120.0,5.0,0.0
1430,76.0,0.0,120.0,4.0,0.0
1431,59.0,120.0,120.0,7.0,0.0
1432,71.0,0.0,120.0,6.0,0.0
1433,47.0,0.0,120.0,8.0,0.0
1434,76.0,0.0,480.0,4.0,0.0
1435,68.0,0.0,120.0,5.0,0.0
1436,68.0,0.0,120.0,5.0,0.0
1437,71.0,0.0,120.0,6.0,0.0
1438,47.0,0.0,120.0,8.0,0.0
1439,59.0,120.0,120.0,7.0,0.0
1440,59.0,120.0,120.0,7.0,0.0
1441,71.0,0.0,120.0,6.0,0.0
1442,68.0,0.0,120.0,5.0,0.0
1443,47.0,0.0,120.0,8.0,0.0
1444,71.0,0.0,120.0,6.0,0.0
1445,68.0,0.0,120.0,5.0,0.0
1446,59.0,0.0,120.0,7.0,0.0
1447,47.0,30.0,120.0,8.0,0.0
1448,35.0,0.0,120.0,8.0,0.0
1449,69.0,0.0,120.0,5.0,0.0
1450,80.0,90.0,30.0,4.0,0.0
1451,47.0,0.0,120.0,7.0,0.0
1452,63.0,60.0,120.0,6.0,0.0
1453,78.0,60.0,150.0,4.0,0.0
1454,69.0,0.0,120.0,5.0,0.0
1455,35.0,0.0,120.0,8.0,0.0
1456,47.0,0.0,120.0,7.0,0.0
1457,63.0,120.0,120.0,6.0,0.0
1458,76.0,0.0,60.0,4.0,0.0
1459,52.0,120.0,120.0,7.0,0.0
1460,68.0,0.0,240.0,5.0,0.0
1461,76.0,0.0,240.0,4.0,0.0
1462,52.0,0.0,120.0,15.0,0.0
1463,40.0,0.0,120.0,8.0,0.0
1464,64.0,120.0,240.0,6.0,0.0
1465,52.0,0.0,120.0,8.0,0.0
1466,64.0,0.0,120.0,7.0,0.0
1467,64.0,0.0,120.0,15.0,0.0
1468,64.0,0.0,240.0,3.0,0.0
1469,80.0,0.0,240.0,10.0,0.0
1470,52.0,120.0,240.0,1.0,0.0
1471,64.0,0.0,240.0,1.0,0.0
1472,71.0,0.0,240.0,11.0,0.0
1473,52.0,0.0,120.0,8.0,0.0
1474,64.0,0.0,240.0,13.0,0.0
1475,71.0,0.0,240.0,3.0,0.0
1476,64.0,0.0,240.0,12.0,0.0
1477,80.0,0.0,240.0,0.0,0.0
1478,71.0,0.0,240.0,0.0,0.0
1479,64.0,0.0,120.0,15.0,0.0
1480,64.0,120.0,120.0,7.0,0.0
1481,64.0,0.0,120.0,7.0,0.0
1482,52.0,0.0,120.0,8.0,0.0
1483,64.0,0.0,120.0,15.0,0.0
1484,64.0,0.0,240.0,1.0,0.0
1485,64.0,120.0,120.0,7.0,0.0
1486,52.0,0.0,240.0,1.0,0.0
1487,80.0,0.0,240.0,10.0,0.0
1488,64.0,0.0,240.0,12.0,0.0
1489,64.0,0.0,240.0,13.0,0.0
1490,71.0,0.0,240.0,11.0,0.0
1491,71.0,0.0,240.0,3.0,0.0
1492,64.0,0.0,120.0,15.0,0.0
1493,64.0,0.0,240.0,3.0,0.0
1494,80.0,0.0,240.0,0.0,0.0
1495,71.0,0.0,240.0,0.0,0.0
1496,52.0,0.0,120.0,8.0,0.0
1497,64.0,0.0,120.0,15.0,0.0
1498,52.0,0.0,120.0,8.0,0.0
1499,64.0,0.0,120.0,7.0,0.0
1500,66.0,0.0,720.0,1.0,0.0
1501,63.0,0.0,720.0,1.0,0.0
1502,81.0,0.0,720.0,0.0,0.0
1503,63.0,0.0,120.0,15.0,0.0
1504,71.0,0.0,720.0,3.0,0.0
1505,63.0,0.0,720.0,3.0,0.0
1506,71.0,0.0,720.0,11.0,0.0
1507,63.0,0.0,720.0,13.0,0.0
1508,66.0,0.0,120.0,6.0,0.0
1509,71.0,0.0,720.0,0.0,0.0
1510,66.0,0.0,720.0,12.0,0.0
1511,81.0,0.0,720.0,10.0,0.0
1512,51.0,60.0,120.0,8.0,0.0
1513,63.0,0.0,120.0,6.0,0.0
1514,63.0,0.0,120.0,7.0,0.0
1515,66.0,120.0,720.0,3.0,0.0
1516,81.0,0.0,60.0,5.0,0.0
1517,81.0,0.0,60.0,4.0,0.0
1518,63.0,0.0,120.0,7.0,0.0
1519,80.0,0.0,60.0,5.0,0.0
1520,63.0,0.0,120.0,15.0,0.0
1521,63.0,0.0,120.0,6.0,0.0
1522,51.0,60.0,120.0,8.0,0.0
1523,66.0,0.0,120.0,6.0,0.0
1524,80.0,60.0,60.0,4.0,0.0
1525,78.0,0.0,60.0,5.0,0.0
1526,78.0,0.0,60.0,4.0,0.0
1527,63.0,60.0,120.0,15.0,0.0
1528,63.0,0.0,120.0,7.0,0.0
1529,76.0,0.0,60.0,4.0,0.0
1530,66.0,0.0,120.0,6.0,0.0
1531,76.0,60.0,60.0,5.0,0.0
1532,51.0,0.0,120.0,8.0,0.0
1533,63.0,0.0,120.0,6.0,0.0
1534,75.0,0.0,60.0,4.0,0.0
1535,75.0,0.0,60.0,5.0,0.0
1536,73.0,60.0,60.0,5.0,0.0
1537,63.0,0.0,120.0,15.0,0.0
1538,63.0,0.0,120.0,7.0,0.0
1539,63.0,60.0,120.0,6.0,0.0
1540,66.0,0.0,120.0,6.0,0.0
1541,51.0,0.0,120.0,8.0,0.0
1542,73.0,0.0,60.0,4.0,0.0
1543,71.0,0.0,60.0,4.0,0.0
1544,71.0,0.0,60.0,5.0,0.0
1545,51.0,0.0,120.0,8.0,0.0
1546,66.0,0.0,120.0,6.0,0.0
1547,63.0,0.0,120.0,6.0,0.0
1548,63.0,0.0,120.0,7.0,0.0
1549,63.0,0.0,120.0,15.0,0.0
1550,70.0,0.0,60.0,4.0,0.0
1551,70.0,60.0,60.0,5.0,0.0
1552,71.0,60.0,60.0,4.0,0.0
1553,71.0,0.0,60.0,5.0,0.0
1554,63.0,0.0,120.0,6.0,0.0
1555,73.0,60.0,60.0,5.0,0.0
1556,66.0,0.0,120.0,6.0,0.0
1557,51.0,0.0,120.0,8.0,0.0
1558,63.0,0.0,120.0,15.0,0.0
1559,63.0,0.0,120.0,7.0,0.0
1560,73.0,0.0,60.0,4.0,0.0
1561,71.0,0.0,60.0,4.0,0.0
1562,71.0,0.0,60.0,5.0,0.0
1563,64.0,0.0,240.0,13.0,0.0
1564,68.0,0.0,240.0,3.0,0.0
1565,68.0,0.0,240.0,12.0,0.0
1566,64.0,0.0,120.0,7.0,0.0
1567,71.0,60.0,240.0,3.0,0.0
1568,52.0,60.0,120.0,8.0,0.0
1569,68.0,0.0,720.0,1.0,0.0
1570,64.0,0.0,720.0,1.0,0.0
1571,71.0,0.0,240.0,11.0,0.0
1572,64.0,0.0,120.0,15.0,0.0
1573,71.0,0.0,720.0,0.0,0.0
1574,80.0,0.0,240.0,10.0,0.0
1575,64.0,0.0,240.0,3.0,0.0
1576,64.0,0.0,120.0,6.0,0.0
1577,68.0,0.0,120.0,6.0,0.0
1578,80.0,0.0,720.0,0.0,0.0
1579,71.0,0.0,60.0,5.0,0.0
1580,71.0,0.0,60.0,4.0,0.0
1581,64.0,0.0,120.0,7.0,0.0
1582,80.0,0.0,60.0,4.0,0.0
1583,68.0,0.0,120.0,6.0,0.0
1584,64.0,0.0,120.0,15.0,0.0
1585,64.0,0.0,120.0,6.0,0.0
1586,80.0,60.0,60.0,5.0,0.0
1587,52.0,0.0,120.0,8.0,0.0
1588,78.0,0.0,60.0,4.0,0.0
1589,78.0,0.0,60.0,5.0,0.0
1590,64.0,0.0,120.0,15.0,0.0
1591,81.0,60.0,60.0,5.0,0.0
1592,81.0,0.0,60.0,4.0,0.0
1593,64.0,0.0,120.0,6.0,0.0
1594,64.0,0.0,120.0,7.0,0.0
1595,68.0,0.0,120.0,6.0,0.0
1596,52.0,60.0,120.0,8.0,0.0
1597,80.0,0.0,60.0,5.0,0.0
1598,80.0,0.0,60.0,4.0,0.0
1599,68.0,0.0,120.0,6.0,0.0
1600,52.0,0.0,120.0,8.0,0.0
1601,64.0,0.0,120.0,15.0,0.0
1602,64.0,0.0,120.0,6.0,0.0
1603,64.0,0.0,120.0,7.0,0.0
1604,78.0,60.0,60.0,4.0,0.0
1605,78.0,0.0,60.0,5.0,0.0
1606,76.0,60.0,60.0,4.0,0.0
1607,76.0,0.0,60.0,5.0,0.0
1608,64.0,0.0,120.0,15.0,0.0
1609,71.0,120.0,240.0,3.0,0.0
1610,68.0,0.0,240.0,3.0,0.0
1611,64.0,0.0,120.0,7.0,0.0
1612,75.0,0.0,60.0,5.0,0.0
1613,64.0,0.0,120.0,6.0,0.0
1614,64.0,0.0,240.0,3.0,0.0
1615,75.0,60.0,60.0,4.0,0.0
1616,64.0,0.0,240.0,13.0,0.0
1617,68.0,0.0,120.0,6.0,0.0
1618,52.0,0.0,120.0,8.0,0.0
1619,80.0,0.0,240.0,10.0,0.0
1620,71.0,0.0,240.0,11.0,0.0
1621,68.0,0.0,240.0,12.0,0.0
1622,76.0,0.0,60.0,5.0,0.0
1623,76.0,60.0,60.0,4.0,0.0
1624,64.0,0.0,120.0,7.0,0.0
1625,52.0,0.0,120.0,8.0,0.0
1626,78.0,60.0,60.0,4.0,0.0
1627,78.0,0.0,60.0,5.0,0.0
1628,68.0,0.0,120.0,6.0,0.0
1629,64.0,0.0,120.0,6.0,0.0
1630,64.0,0.0,120.0,15.0,0.0
1631,76.0,0.0,60.0,5.0,0.0
1632,76.0,0.0,60.0,4.0,0.0
1633,63.0,0.0,720.0,3.0,0.0
1634,72.0,0.0,720.0,3.0,0.0
1635,81.0,0.0,720.0,10.0,0.0
1636,72.0,0.0,720.0,0.0,0.0
1637,81.0,0.0,720.0,0.0,0.0
1638,63.0,0.0,120.0,15.0,0.0
1639,66.0,0.0,720.0,3.0,0.0
1640,63.0,0.0,720.0,13.0,0.0
1641,66.0,120.0,720.0,12.0,0.0
1642,72.0,0.0,720.0,11.0,0.0
1643,51.0,0.0,120.0,8.0,0.0
1644,63.0,0.0,720.0,1.0,0.0
1645,63.0,0.0,120.0,7.0,0.0
1646,66.0,60.0,120.0,6.0,0.0
1647,66.0,0.0,720.0,1.0,0.0
1648,63.0,0.0,120.0,6.0,0.0
1649,72.0,0.0,60.0,4.0,0.0
1650,72.0,0.0,60.0,5.0,0.0
1651,84.0,60.0,60.0,5.0,0.0
1652,51.0,0.0,120.0,8.0,0.0
1653,63.0,0.0,120.0,6.0,0.0
1654,84.0,0.0,60.0,4.0,0.0
1655,66.0,0.0,120.0,6.0,0.0
1656,63.0,60.0,120.0,15.0,0.0
1657,63.0,0.0,120.0,7.0,0.0
1658,83.0,0.0,60.0,4.0,0.0
1659,83.0,0.0,60.0,5.0,0.0
1660,86.0,60.0,60.0,5.0,0.0
1661,51.0,0.0,120.0,8.0,0.0
1662,63.0,0.0,120.0,6.0,0.0
1663,86.0,0.0,60.0,4.0,0.0
1664,63.0,0.0,120.0,7.0,0.0
1665,63.0,60.0,120.0,15.0,0.0
1666,66.0,0.0,120.0,6.0,0.0
1667,84.0,0.0,60.0,5.0,0.0
1668,84.0,0.0,60.0,4.0,0.0
1669,63.0,0.0,120.0,15.0,0.0
1670,63.0,0.0,120.0,6.0,0.0
1671,66.0,0.0,120.0,6.0,0.0
1672,51.0,60.0,120.0,8.0,0.0
1673,83.0,0.0,60.0,4.0,0.0
1674,83.0,60.0,60.0,5.0,0.0
1675,63.0,0.0,120.0,7.0,0.0
1676,81.0,0.0,60.0,4.0,0.0
1677,81.0,0.0,60.0,5.0,0.0
1678,63.0,0.0,120.0,6.0,0.0
1679,66.0,0.0,120.0,6.0,0.0
1680,63.0,60.0,120.0,15.0,0.0
1681,51.0,0.0,120.0,8.0,0.0
1682,79.0,0.0,60.0,4.0,0.0
1683,79.0,60.0,60.0,5.0,0.0
1684,63.0,0.0,120.0,7.0,0.0
1685,78.0,0.0,60.0,4.0,0.0
1686,78.0,0.0,60.0,5.0,0.0
1687,63.0,0.0,120.0,7.0,0.0
1688,76.0,60.0,60.0,4.0,0.0
1689,51.0,0.0,120.0,8.0,0.0
1690,66.0,0.0,120.0,6.0,0.0
1691,76.0,0.0,60.0,5.0,0.0
1692,63.0,0.0,120.0,6.0,0.0
1693,63.0,0.0,120.0,15.0,0.0
1694,75.0,0.0,60.0,5.0,0.0
1695,75.0,0.0,60.0,4.0,0.0
1696,72.0,0.0,240.0,11.0,0.0
1697,62.0,0.0,240.0,13.0,0.0
1698,66.0,0.0,120.0,6.0,0.0
1699,62.0,0.0,120.0,6.0,0.0
1700,66.0,0.0,240.0,12.0,0.0
1701,50.0,0.0,120.0,8.0,0.0
1702,62.0,0.0,720.0,1.0,0.0
1703,81.0,0.0,240.0,10.0,0.0
1704,66.0,0.0,240.0,3.0,0.0
1705,66.0,0.0,720.0,1.0,0.0
1706,81.0,0.0,720.0,0.0,0.0
1707,72.0,0.0,720.0,0.0,0.0
1708,62.0,0.0,240.0,3.0,0.0
1709,62.0,0.0,120.0,15.0,0.0
1710,62.0,0.0,120.0,7.0,0.0
1711,72.0,0.0,240.0,3.0,0.0
1712,72.0,60.0,60.0,5.0,0.0
1713,72.0,0.0,60.0,4.0,0.0
1714,62.0,0.0,120.0,15.0,0.0
1715,62.0,0.0,120.0,6.0,0.0
1716,66.0,0.0,120.0,6.0,0.0
1717,62.0,60.0,120.0,7.0,0.0
1718,84.0,0.0,60.0,4.0,0.0
1719,50.0,0.0,120.0,8.0,0.0
1720,84.0,60.0,60.0,5.0,0.0
1721,83.0,0.0,60.0,5.0,0.0
1722,83.0,0.0,60.0,4.0,0.0
1723,86.0,0.0,60.0,4.0,0.0
1724,50.0,0.0,120.0,8.0,0.0
1725,62.0,0.0,120.0,7.0,0.0
1726,62.0,60.0,120.0,6.0,0.0
1727,62.0,0.0,120.0,15.0,0.0
1728,86.0,60.0,60.0,5.0,0.0
1729,66.0,0.0,120.0,6.0,0.0
1730,84.0,0.0,60.0,4.0,0.0
1731,84.0,0.0,60.0,5.0,0.0
1732,62.0,0.0,120.0,7.0,0.0
1733,62.0,0.0,120.0,6.0,0.0
1734,62.0,0.0,120.0,15.0,0.0
1735,83.0,60.0,60.0,5.0,0.0
1736,66.0,0.0,120.0,6.0,0.0
1737,50.0,0.0,120.0,8.0,0.0
1738,83.0,0.0,60.0,4.0,0.0
1739,81.0,60.0,60.0,4.0,0.0
1740,81.0,0.0,60.0,5.0,0.0
1741,72.0,0.0,240.0,3.0,0.0
1742,62.0,0.0,120.0,7.0,0.0
1743,66.0,0.0,240.0,12.0,0.0
1744,50.0,0.0,120.0,8.0,0.0
1745,66.0,0.0,120.0,6.0,0.0
1746,62.0,0.0,120.0,6.0,0.0
1747,79.0,0.0,60.0,4.0,0.0
1748,72.0,0.0,240.0,11.0,0.0
1749,62.0,0.0,240.0,3.0,0.0
1750,62.0,0.0,120.0,15.0,0.0
1751,81.0,0.0,240.0,10.0,0.0
1752,62.0,0.0,240.0,13.0,0.0
1753,66.0,0.0,240.0,3.0,0.0
1754,79.0,60.0,60.0,5.0,0.0
1755,78.0,60.0,60.0,4.0,0.0
1756,78.0,0.0,60.0,5.0,0.0
1757,66.0,120.0,120.0,6.0,0.0
1758,62.0,0.0,120.0,6.0,0.0
1759,50.0,0.0,120.0,8.0,0.0
1760,62.0,0.0,120.0,7.0,0.0
1761,62.0,0.0,120.0,15.0,0.0
1762,76.0,60.0,60.0,5.0,0.0
1763,76.0,0.0,60.0,4.0,0.0
1764,74.0,0.0,60.0,4.0,0.0
1765,74.0,0.0,60.0,5.0,0.0
1766,71.0,0.0,480.0,11.0,0.0
1767,67.0,0.0,120.0,6.0,0.0
1768,62.0,60.0,120.0,7.0,0.0
1769,67.0,0.0,480.0,12.0,0.0
1770,83.0,0.0,480.0,10.0,0.0
1771,62.0,0.0,480.0,13.0,0.0
1772,71.0,0.0,480.0,0.0,0.0
1773,50.0,0.0,120.0,8.0,0.0
1774,67.0,0.0,720.0,1.0,0.0
1775,62.0,0.0,720.0,1.0,0.0
1776,83.0,0.0,480.0,0.0,0.0
1777,71.0,0.0,480.0,3.0,0.0
1778,62.0,60.0,480.0,3.0,0.0
1779,68.0,0.0,480.0,3.0,0.0
1780,62.0,0.0,120.0,15.0,0.0
1781,71.0,0.0,60.0,4.0,0.0
1782,71.0,0.0,60.0,5.0,0.0
1783,62.0,0.0,120.0,15.0,0.0
1784,62.0,0.0,120.0,7.0,0.0
1785,83.0,0.0,60.0,5.0,0.0
1786,83.0,60.0,60.0,4.0,0.0
1787,50.0,0.0,120.0,8.0,0.0
1788,67.0,0.0,120.0,6.0,0.0
1789,81.0,0.0,60.0,5.0,0.0
1790,81.0,60.0,60.0,4.0,0.0
1791,62.0,0.0,120.0,7.0,0.0
1792,84.0,60.0,60.0,5.0,0.0
1793,62.0,0.0,120.0,15.0,0.0
1794,50.0,0.0,120.0,8.0,0.0
1795,84.0,0.0,60.0,4.0,0.0
1796,67.0,60.0,120.0,6.0,0.0
1797,83.0,0.0,60.0,5.0,0.0
1798,83.0,0.0,60.0,4.0,0.0
1799,81.0,0.0,60.0,5.0,0.0
1800,62.0,0.0,120.0,7.0,0.0
1801,50.0,0.0,120.0,8.0,0.0
1802,81.0,60.0,60.0,4.0,0.0
1803,62.0,0.0,120.0,15.0,0.0
1804,67.0,0.0,120.0,6.0,0.0
1805,79.0,0.0,60.0,4.0,0.0
1806,79.0,0.0,60.0,5.0,0.0
1807,68.0,0.0,240.0,3.0,0.0
1808,50.0,0.0,120.0,8.0,0.0
1809,71.0,0.0,240.0,0.0,0.0
1810,62.0,0.0,240.0,3.0,0.0
1811,79.0,0.0,240.0,0.0,0.0
1812,78.0,60.0,60.0,4.0,0.0
1813,67.0,0.0,240.0,12.0,0.0
1814,62.0,0.0,120.0,7.0,0.0
1815,62.0,0.0,120.0,15.0,0.0
1816,71.0,60.0,120.0,6.0,0.0
1817,71.0,0.0,240.0,3.0,0.0
1818,79.0,0.0,240.0,10.0,0.0
1819,78.0,0.0,60.0,5.0,0.0
1820,71.0,0.0,240.0,11.0,0.0
1821,62.0,120.0,240.0,13.0,0.0
1822,79.0,0.0,60.0,5.0,0.0
1823,79.0,0.0,60.0,4.0,0.0
1824,62.0,0.0,120.0,7.0,0.0
1825,50.0,0.0,120.0,8.0,0.0
1826,71.0,0.0,120.0,6.0,0.0
1827,81.0,60.0,60.0,5.0,0.0
1828,81.0,0.0,60.0,4.0,0.0
1829,62.0,0.0,120.0,15.0,0.0
1830,79.0,0.0,60.0,4.0,0.0
1831,79.0,0.0,60.0,5.0,0.0
1832,61.0,0.0,720.0,13.0,0.0
1833,61.0,0.0,120.0,15.0,0.0
1834,64.0,0.0,720.0,1.0,0.0
1835,64.0,0.0,120.0,6.0,0.0
1836,70.0,0.0,720.0,11.0,0.0
1837,61.0,0.0,720.0,1.0,0.0
1838,70.0,0.0,720.0,0.0,0.0
1839,61.0,0.0,120.0,7.0,0.0
1840,70.0,0.0,720.0,3.0,0.0
1841,64.0,0.0,720.0,3.0,0.0
1842,64.0,0.0,720.0,12.0,0.0
1843,79.0,0.0,720.0,10.0,0.0
1844,49.0,0.0,120.0,8.0,0.0
1845,61.0,0.0,720.0,3.0,0.0
1846,79.0,0.0,720.0,0.0,0.0
1847,70.0,60.0,60.0,4.0,0.0
1848,70.0,0.0,60.0,5.0,0.0
1849,49.0,0.0,120.0,8.0,0.0
1850,82.0,0.0,60.0,5.0,0.0
1851,64.0,0.0,120.0,6.0,0.0
1852,82.0,60.0,60.0,4.0,0.0
1853,61.0,0.0,120.0,7.0,0.0
1854,61.0,0.0,120.0,15.0,0.0
1855,81.0,60.0,60.0,4.0,0.0
1856,81.0,0.0,60.0,5.0,0.0
1857,49.0,60.0,120.0,8.0,0.0
1858,61.0,0.0,120.0,15.0,0.0
1859,64.0,0.0,120.0,6.0,0.0
1860,84.0,0.0,60.0,5.0,0.0
1861,61.0,0.0,120.0,7.0,0.0
1862,84.0,60.0,60.0,4.0,0.0
1863,82.0,0.0,60.0,5.0,0.0
1864,82.0,0.0,60.0,4.0,0.0
1865,61.0,60.0,120.0,7.0,0.0
1866,49.0,0.0,120.0,8.0,0.0
1867,64.0,0.0,120.0,6.0,0.0
1868,81.0,60.0,60.0,5.0,0.0
1869,61.0,0.0,120.0,15.0,0.0
1870,81.0,0.0,60.0,4.0,0.0
1871,79.0,0.0,60.0,5.0,0.0
1872,79.0,0.0,60.0,4.0,0.0
1873,49.0,0.0,120.0,8.0,0.0
1874,61.0,60.0,120.0,7.0,0.0
1875,64.0,0.0,120.0,6.0,0.0
1876,61.0,0.0,120.0,15.0,0.0
1877,78.0,0.0,60.0,5.0,0.0
1878,78.0,60.0,60.0,4.0,0.0
1879,79.0,0.0,60.0,4.0,0.0
1880,79.0,0.0,60.0,5.0,0.0
1881,61.0,0.0,120.0,15.0,0.0
1882,49.0,0.0,120.0,8.0,0.0
1883,81.0,0.0,60.0,4.0,0.0
1884,64.0,120.0,120.0,6.0,0.0
1885,61.0,0.0,120.0,7.0,0.0
1886,81.0,60.0,60.0,5.0,0.0
1887,79.0,0.0,60.0,4.0,0.0
1888,79.0,0.0,60.0,5.0,0.0
1889,62.0,0.0,240.0,13.0,0.0
1890,78.0,0.0,240.0,5.0,0.0
1891,78.0,0.0,240.0,4.0,0.0
1892,66.0,0.0,240.0,3.0,0.0
1893,78.0,0.0,240.0,10.0,0.0
1894,66.0,0.0,240.0,1.0,0.0
1895,50.0,0.0,120.0,8.0,0.0
1896,69.0,0.0,240.0,0.0,0.0
1897,78.0,0.0,240.0,0.0,0.0
1898,69.0,0.0,240.0,11.0,0.0
1899,62.0,0.0,240.0,1.0,0.0
1900,62.0,120.0,120.0,7.0,0.0
1901,69.0,0.0,240.0,3.0,0.0
1902,66.0,0.0,240.0,12.0,0.0
1903,62.0,0.0,240.0,3.0,0.0
1904,62.0,0.0,120.0,15.0,0.0
1905,62.0,0.0,240.0,6.0,0.0
1906,62.0,120.0,120.0,15.0,0.0
1907,62.0,0.0,120.0,7.0,0.0
1908,50.0,0.0,120.0,8.0,0.0
1909,62.0,0.0,240.0,13.0,0.0
1910,62.0,0.0,120.0,7.0,0.0
1911,50.0,0.0,120.0,8.0,0.0
1912,62.0,120.0,120.0,15.0,0.0
1913,62.0,120.0,120.0,7.0,0.0
1914,50.0,0.0,120.0,8.0,0.0
1915,62.0,0.0,120.0,15.0,0.0
1916,62.0,120.0,120.0,15.0,0.0
1917,50.0,0.0,120.0,8.0,0.0
1918,62.0,0.0,120.0,7.0,0.0
1919,62.0,0.0,240.0,13.0,0.0
1920,62.0,0.0,120.0,15.0,0.0
1921,50.0,0.0,120.0,8.0,0.0
1922,62.0,120.0,120.0,7.0,0.0
1923,54.0,0.0,120.0,15.0,0.0
1924,54.0,0.0,480.0,13.0,0.0
1925,42.0,120.0,120.0,8.0,0.0
1926,54.0,0.0,120.0,7.0,0.0
1927,54.0,120.0,120.0,7.0,0.0
1928,54.0,0.0,120.0,15.0,0.0
1929,42.0,0.0,120.0,8.0,0.0
1930,42.0,0.0,120.0,8.0,0.0
1931,62.0,0.0,240.0,12.0,0.0
1932,54.0,120.0,120.0,15.0,0.0
1933,62.0,0.0,240.0,6.0,0.0
1934,74.0,0.0,240.0,5.0,0.0
1935,81.0,0.0,240.0,10.0,0.0
1936,81.0,0.0,240.0,4.0,0.0
1937,74.0,0.0,240.0,11.0,0.0
1938,54.0,0.0,120.0,7.0,0.0
1939,42.0,0.0,120.0,8.0,0.0
1940,54.0,120.0,120.0,7.0,0.0
1941,54.0,0.0,120.0,15.0,0.0
1942,81.0,0.0,240.0,10.0,0.0
1943,42.0,120.0,120.0,8.0,0.0
1944,54.0,0.0,120.0,15.0,0.0
1945,72.0,0.0,240.0,5.0,0.0
1946,72.0,0.0,240.0,11.0,0.0
1947,62.0,0.0,240.0,6.0,0.0
1948,81.0,0.0,240.0,4.0,0.0
1949,54.0,0.0,120.0,7.0,0.0
1950,62.0,0.0,240.0,12.0,0.0
1951,54.0,0.0,240.0,13.0,0.0
1952,54.0,0.0,120.0,7.0,0.0
1953,42.0,0.0,120.0,8.0,0.0
1954,54.0,120.0,120.0,15.0,0.0
1955,55.0,0.0,600.0,13.0,0.0
1956,55.0,0.0,120.0,15.0,0.0
1957,43.0,0.0,120.0,8.0,0.0
1958,72.0,0.0,240.0,11.0,0.0
1959,55.0,120.0,120.0,7.0,0.0
1960,81.0,120.0,240.0,10.0,0.0
1961,62.0,0.0,120.0,12.0,0.0
1962,72.0,0.0,240.0,5.0,0.0
1963,62.0,0.0,120.0,6.0,0.0
1964,81.0,0.0,240.0,4.0,0.0
1965,63.0,0.0,120.0,12.0,0.0
1966,63.0,0.0,120.0,6.0,0.0
1967,43.0,0.0,120.0,8.0,0.0
1968,55.0,0.0,120.0,7.0,0.0
1969,55.0,0.0,120.0,15.0,0.0
1970,55.0,0.0,120.0,15.0,0.0
1971,43.0,0.0,120.0,8.0,0.0
1972,79.0,0.0,120.0,10.0,0.0
1973,71.0,0.0,120.0,5.0,0.0
1974,71.0,0.0,120.0,11.0,0.0
1975,79.0,0.0,120.0,4.0,0.0
1976,55.0,0.0,120.0,7.0,0.0
1977,64.0,0.0,120.0,6.0,0.0
1978,64.0,120.0,120.0,12.0,0.0
1979,66.0,0.0,120.0,12.0,0.0
1980,78.0,0.0,120.0,4.0,0.0
1981,43.0,0.0,120.0,8.0,0.0
1982,55.0,0.0,120.0,15.0,0.0
1983,66.0,0.0,120.0,6.0,0.0
1984,55.0,0.0,120.0,7.0,0.0
1985,69.0,120.0,120.0,5.0,0.0
1986,78.0,0.0,120.0,10.0,0.0
1987,69.0,0.0,120.0,11.0,0.0
1988,67.0,0.0,120.0,5.0,0.0
1989,76.0,0.0,120.0,4.0,0.0
1990,55.0,0.0,120.0,7.0,0.0
1991,67.0,0.0,120.0,6.0,0.0
1992,43.0,0.0,120.0,8.0,0.0
1993,55.0,0.0,120.0,15.0,0.0
1994,76.0,0.0,120.0,10.0,0.0
1995,67.0,0.0,120.0,12.0,0.0
1996,67.0,120.0,120.0,11.0,0.0
1997,66.0,0.0,120.0,11.0,0.0
1998,56.0,120.0,120.0,7.0,0.0
1999,56.0,0.0,120.0,13.0,0.0
2000,74.0,0.0,120.0,4.0,0.0
2001,71.0,0.0,120.0,12.0,0.0
2002,74.0,0.0,120.0,10.0,0.0
2003,66.0,0.0,120.0,5.0,0.0
2004,71.0,0.0,120.0,6.0,0.0
2005,56.0,0.0,120.0,15.0,0.0
2006,44.0,0.0,120.0,8.0,0.0
2007,66.0,0.0,120.0,5.0,0.0
2008,57.0,0.0,480.0,13.0,0.0
2009,57.0,0.0,120.0,15.0,0.0
2010,45.0,0.0,120.0,8.0,0.0
2011,66.0,0.0,480.0,11.0,0.0
2012,69.0,0.0,480.0,12.0,0.0
2013,57.0,0.0,120.0,7.0,0.0
2014,74.0,0.0,480.0,4.0,0.0
2015,69.0,120.0,120.0,6.0,0.0
2016,74.0,0.0,480.0,10.0,0.0
2017,66.0,0.0,120.0,5.0,0.0
2018,57.0,0.0,120.0,15.0,0.0
2019,69.0,120.0,120.0,6.0,0.0
2020,57.0,0.0,120.0,7.0,0.0
2021,45.0,0.0,120.0,8.0,0.0
2022,66.0,0.0,120.0,5.0,0.0
2023,69.0,0.0,120.0,6.0,0.0
2024,45.0,0.0,120.0,8.0,0.0
2025,57.0,0.0,120.0,15.0,0.0
2026,57.0,120.0,120.0,7.0,0.0
2027,57.0,0.0,120.0,15.0,0.0
2028,45.0,60.0,120.0,8.0,0.0
2029,57.0,0.0,120.0,7.0,0.0
2030,66.0,0.0,120.0,5.0,0.0
2031,69.0,0.0,120.0,6.0,0.0
2032,57.0,0.0,240.0,13.0,0.0
2033,69.0,120.0,120.0,6.0,0.0
2034,78.0,60.0,60.0,4.0,0.0
2035,57.0,0.0,120.0,15.0,0.0
2036,57.0,0.0,120.0,7.0,0.0
2037,45.0,0.0,120.0,8.0,0.0
2038,69.0,0.0,240.0,11.0,0.0
2039,61.0,0.0,120.0,6.0,0.0
2040,78.0,0.0,60.0,10.0,0.0
2041,67.0,0.0,240.0,12.0,0.0
2042,67.0,0.0,120.0,5.0,0.0
2043,76.0,0.0,180.0,4.0,0.0
2044,76.0,0.0,180.0,10.0,0.0
2045,57.0,0.0,120.0,7.0,0.0
2046,45.0,0.0,120.0,8.0,0.0
2047,57.0,0.0,120.0,15.0,0.0
2048,67.0,720.0,120.0,5.0,0.0
2049,61.0,0.0,120.0,6.0,0.0
2050,69.0,0.0,120.0,6.0,0.0
2051,68.0,0.0,720.0,6.0,0.0
2052,62.0,0.0,720.0,6.0,0.0
2053,65.0,480.0,720.0,5.0,0.0
2054,74.0,0.0,720.0,10.0,0.0
2055,68.0,0.0,720.0,11.0,0.0
2056,59.0,0.0,720.0,15.0,0.0
2057,65.0,0.0,720.0,12.0,0.0
2058,74.0,0.0,720.0,4.0,0.0
2059,59.0,0.0,720.0,7.0,0.0
2060,47.0,0.0,720.0,8.0,0.0
2061,74.0,0.0,240.0,4.0,0.0
2062,74.0,240.0,240.0,10.0,0.0
2063,74.0,0.0,240.0,4.0,0.0
2064,74.0,120.0,240.0,10.0,0.0
2065,74.0,240.0,120.0,4.0,0.0
2066,74.0,0.0,720.0,10.0,0.0
2067,74.0,0.0,240.0,4.0,0.0
2068,70.0,0.0,240.0,11.0,0.0
2069,65.0,0.0,240.0,12.0,0.0
2070,58.0,120.0,240.0,13.0,0.0
2071,70.0,0.0,240.0,5.0,0.0
2072,46.0,0.0,120.0,8.0,0.0
2073,58.0,120.0,120.0,15.0,0.0
2074,65.0,0.0,240.0,6.0,0.0
2075,58.0,0.0,120.0,7.0,0.0
2076,74.0,0.0,240.0,4.0,0.0
2077,58.0,0.0,120.0,7.0,0.0
2078,46.0,0.0,120.0,8.0,0.0
2079,58.0,0.0,120.0,15.0,0.0
2080,65.0,0.0,240.0,6.0,0.0
2081,65.0,0.0,240.0,12.0,0.0
2082,46.0,0.0,120.0,8.0,0.0
2083,70.0,0.0,240.0,11.0,0.0
2084,58.0,0.0,120.0,15.0,0.0
2085,58.0,120.0,120.0,7.0,0.0
2086,58.0,120.0,240.0,13.0,0.0
2087,70.0,0.0,240.0,5.0,0.0
2088,46.0,0.0,120.0,8.0,0.0
2089,58.0,0.0,120.0,15.0,0.0
2090,58.0,0.0,120.0,7.0,0.0
2091,74.0,0.0,120.0,4.0,0.0
2092,65.0,0.0,720.0,12.0,0.0
2093,45.0,0.0,120.0,8.0,0.0
2094,75.0,120.0,720.0,10.0,0.0
2095,57.0,120.0,120.0,15.0,0.0
2096,57.0,0.0,720.0,13.0,0.0
2097,65.0,0.0,120.0,6.0,0.0
2098,75.0,0.0,120.0,4.0,0.0
2099,72.0,0.0,720.0,11.0,0.0
2100,57.0,0.0,120.0,7.0,0.0
2101,72.0,0.0,720.0,5.0,0.0
2102,57.0,0.0,120.0,7.0,0.0
2103,57.0,120.0,120.0,15.0,0.0
2104,45.0,0.0,120.0,8.0,0.0
2105,75.0,0.0,240.0,4.0,0.0
2106,65.0,0.0,240.0,6.0,0.0
2107,57.0,0.0,120.0,15.0,0.0
2108,45.0,0.0,120.0,8.0,0.0
2109,57.0,120.0,120.0,7.0,0.0
2110,57.0,0.0,120.0,7.0,0.0
2111,65.0,0.0,240.0,6.0,0.0
2112,45.0,0.0,120.0,8.0,0.0
2113,75.0,0.0,240.0,4.0,0.0
2114,57.0,120.0,120.0,15.0,0.0
2115,45.0,0.0,120.0,8.0,0.0
2116,57.0,120.0,120.0,15.0,0.0
2117,57.0,0.0,120.0,7.0,0.0
2118,57.0,0.0,120.0,7.0,0.0
2119,45.0,0.0,120.0,8.0,0.0
2120,75.0,0.0,120.0,4.0,0.0
2121,65.0,0.0,240.0,6.0,0.0
2122,57.0,0.0,120.0,15.0,0.0
2123,74.0,0.0,720.0,10.0,0.0
2124,58.0,0.0,720.0,13.0,0.0
2125,58.0,0.0,720.0,1.0,0.0
2126,70.0,0.0,240.0,5.0,0.0
2127,46.0,0.0,120.0,8.0,0.0
2128,70.0,0.0,240.0,11.0,0.0
2129,70.0,0.0,240.0,0.0,0.0
2130,74.0,0.0,960.0,0.0,0.0
2131,58.0,0.0,120.0,15.0,0.0
2132,58.0,120.0,120.0,7.0,0.0
2133,65.0,0.0,960.0,1.0,0.0
2134,65.0,0.0,720.0,12.0,0.0
2135,74.0,0.0,120.0,4.0,0.0
2136,46.0,0.0,120.0,8.0,0.0
2137,74.0,0.0,240.0,4.0,0.0
2138,65.0,0.0,240.0,6.0,0.0
2139,58.0,0.0,120.0,15.0,0.0
2140,58.0,120.0,120.0,7.0,0.0
2141,69.0,120.0,240.0,5.0,0.0
2142,69.0,0.0,240.0,0.0,0.0
2143,69.0,0.0,240.0,11.0,0.0
2144,46.0,120.0,120.0,8.0,0.0
2145,58.0,0.0,120.0,15.0,0.0
2146,58.0,0.0,120.0,7.0,0.0
2147,58.0,0.0,120.0,7.0,0.0
2148,58.0,0.0,120.0,15.0,0.0
2149,74.0,0.0,240.0,4.0,0.0
2150,46.0,0.0,120.0,8.0,0.0
2151,65.0,0.0,240.0,6.0,0.0
2152,68.0,0.0,240.0,0.0,0.0
2153,46.0,0.0,120.0,8.0,0.0
2154,68.0,0.0,240.0,5.0,0.0
2155,58.0,0.0,120.0,7.0,0.0
2156,68.0,0.0,240.0,11.0,0.0
2157,58.0,120.0,120.0,15.0,0.0
2158,46.0,0.0,120.0,8.0,0.0
2159,58.0,0.0,120.0,7.0,0.0
2160,58.0,120.0,120.0,15.0,0.0
2161,74.0,0.0,240.0,4.0,0.0
2162,65.0,0.0,240.0,6.0,0.0
2163,65.0,0.0,240.0,3.0,0.0
2164,66.0,0.0,240.0,12.0,0.0
2165,57.0,0.0,720.0,3.0,0.0
2166,69.0,0.0,120.0,5.0,0.0
2167,57.0,120.0,120.0,15.0,0.0
2168,69.0,0.0,480.0,11.0,0.0
2169,74.0,120.0,240.0,10.0,0.0
2170,57.0,0.0,720.0,13.0,0.0
2171,57.0,0.0,720.0,1.0,0.0
2172,69.0,120.0,480.0,3.0,0.0
2173,57.0,0.0,120.0,7.0,0.0
2174,45.0,0.0,120.0,8.0,0.0
2175,69.0,0.0,480.0,0.0,0.0
2176,57.0,0.0,120.0,15.0,0.0
2177,69.0,0.0,120.0,5.0,0.0
2178,45.0,0.0,120.0,8.0,0.0
2179,65.0,0.0,120.0,6.0,0.0
2180,57.0,0.0,120.0,7.0,0.0
2181,74.0,0.0,120.0,4.0,0.0
2182,57.0,120.0,120.0,7.0,0.0
2183,69.0,0.0,120.0,5.0,0.0
2184,57.0,0.0,120.0,15.0,0.0
2185,45.0,0.0,120.0,8.0,0.0
2186,73.0,0.0,240.0,10.0,0.0
2187,64.0,0.0,240.0,3.0,0.0
2188,64.0,0.0,240.0,1.0,0.0
2189,73.0,0.0,120.0,4.0,0.0
2190,73.0,0.0,240.0,0.0,0.0
2191,64.0,0.0,120.0,6.0,0.0
2192,64.0,0.0,240.0,12.0,0.0
2193,69.0,0.0,120.0,5.0,0.0
2194,64.0,0.0,120.0,6.0,0.0
2195,45.0,0.0,120.0,8.0,0.0
2196,57.0,0.0,120.0,15.0,0.0
2197,73.0,0.0,120.0,4.0,0.0
2198,57.0,0.0,120.0,7.0,0.0
2199,68.0,0.0,240.0,0.0,0.0
2200,57.0,0.0,120.0,7.0,0.0
2201,62.0,0.0,240.0,3.0,0.0
2202,62.0,0.0,240.0,1.0,0.0
2203,71.0,120.0,120.0,4.0,0.0
2204,45.0,0.0,120.0,8.0,0.0
2205,68.0,0.0,240.0,11.0,0.0
2206,71.0,0.0,240.0,0.0,0.0
2207,68.0,0.0,240.0,3.0,0.0
2208,68.0,0.0,120.0,5.0,0.0
2209,62.0,0.0,120.0,6.0,0.0
2210,57.0,0.0,120.0,15.0,0.0
2211,62.0,0.0,240.0,12.0,0.0
2212,71.0,0.0,240.0,10.0,0.0
2213,57.0,0.0,120.0,7.0,0.0
2214,71.0,0.0,120.0,4.0,0.0
2215,45.0,0.0,120.0,8.0,0.0
2216,68.0,720.0,120.0,5.0,0.0
2217,57.0,0.0,120.0,15.0,0.0
2218,62.0,0.0,120.0,6.0,0.0
2219,69.0,0.0,720.0,11.0,0.0
2220,69.0,120.0,720.0,5.0,0.0
2221,73.0,0.0,720.0,10.0,0.0
2222,69.0,0.0,720.0,3.0,0.0
2223,64.0,0.0,720.0,6.0,0.0
2224,64.0,0.0,720.0,1.0,0.0
2225,45.0,0.0,720.0,1.0,0.0
2226,57.0,0.0,720.0,15.0,0.0
2227,64.0,0.0,720.0,12.0,0.0
2228,57.0,0.0,720.0,3.0,0.0
2229,69.0,0.0,720.0,0.0,0.0
2230,73.0,0.0,720.0,0.0,0.0
2231,57.0,0.0,720.0,13.0,0.0
2232,64.0,0.0,720.0,3.0,0.0
2233,45.0,0.0,720.0,8.0,0.0
2234,57.0,0.0,720.0,7.0,0.0
2235,73.0,0.0,720.0,4.0,0.0
2236,38.0,120.0,120.0,8.0,0.0
2237,69.0,120.0,120.0,4.0,0.0
2238,66.0,0.0,120.0,5.0,0.0
2239,62.0,0.0,120.0,6.0,0.0
2240,74.0,0.0,480.0,0.0,0.0
2241,54.0,120.0,120.0,8.0,0.0
2242,69.0,0.0,120.0,5.0,0.0
2243,74.0,0.0,120.0,4.0,0.0
2244,62.0,120.0,120.0,6.0,0.0
2245,79.0,0.0,600.0,0.0,0.0
2246,52.0,120.0,120.0,8.0,0.0
2247,74.0,0.0,120.0,4.0,0.0
2248,67.0,120.0,120.0,5.0,0.0
2249,64.0,0.0,120.0,6.0,0.0
2250,45.0,120.0,120.0,8.0,0.0
2251,73.0,0.0,240.0,0.0,0.0
2252,64.0,0.0,120.0,6.0,0.0
2253,67.0,120.0,120.0,5.0,0.0
2254,73.0,0.0,120.0,4.0,0.0
2255,69.0,0.0,300.0,1.0,0.0
2256,50.0,120.0,120.0,8.0,0.0
2257,81.0,60.0,300.0,4.0,0.0
2258,74.0,0.0,240.0,0.0,0.0
2259,62.0,0.0,240.0,6.0,0.0
2260,78.0,60.0,120.0,0.0,0.0
2261,64.0,0.0,360.0,1.0,0.0
2262,49.0,0.0,120.0,8.0,0.0
2263,76.0,0.0,360.0,5.0,0.0
2264,61.0,0.0,240.0,6.0,0.0
2265,83.0,60.0,60.0,4.0,0.0
2266,71.0,0.0,60.0,1.0,0.0
2267,69.0,60.0,60.0,1.0,0.0
2268,81.0,0.0,60.0,4.0,0.0
2269,79.0,0.0,60.0,4.0,0.0
2270,67.0,60.0,60.0,1.0,0.0
2271,78.0,0.0,60.0,4.0,0.0
2272,62.0,0.0,120.0,6.0,0.0
2273,66.0,60.0,60.0,1.0,0.0
2274,50.0,0.0,120.0,8.0,0.0
2275,69.0,60.0,60.0,1.0,0.0
2276,81.0,0.0,60.0,4.0,0.0
2277,59.0,0.0,120.0,6.0,0.0
2278,74.0,0.0,240.0,5.0,0.0
2279,67.0,60.0,60.0,1.0,0.0
2280,47.0,0.0,120.0,8.0,0.0
2281,79.0,0.0,60.0,4.0,0.0
2282,62.0,0.0,240.0,1.0,0.0
2283,78.0,0.0,60.0,4.0,0.0
2284,66.0,60.0,60.0,1.0,0.0
2285,64.0,60.0,60.0,1.0,0.0
2286,43.0,0.0,120.0,8.0,0.0
2287,55.0,0.0,120.0,6.0,0.0
2288,76.0,0.0,60.0,4.0,0.0
2289,67.0,0.0,60.0,1.0,0.0
2290,79.0,60.0,60.0,4.0,0.0
2291,61.0,0.0,120.0,1.0,0.0
2292,66.0,60.0,60.0,1.0,0.0
2293,45.0,0.0,120.0,8.0,0.0
2294,78.0,0.0,60.0,4.0,0.0
2295,73.0,240.0,120.0,5.0,0.0
2296,57.0,0.0,120.0,6.0,0.0
2297,76.0,0.0,60.0,4.0,0.0
2298,64.0,0.0,60.0,1.0,0.0
2299,78.0,60.0,240.0,10.0,0.0
2300,38.0,0.0,240.0,8.0,0.0
2301,74.0,0.0,240.0,4.0,0.0
2302,62.0,0.0,240.0,1.0,0.0
2303,62.0,0.0,240.0,6.0,0.0
2304,62.0,0.0,120.0,5.0,0.0
2305,62.0,60.0,60.0,5.0,0.0
2306,81.0,60.0,240.0,10.0,0.0
2307,61.0,60.0,60.0,5.0,0.0
2308,62.0,60.0,60.0,5.0,0.0
2309,64.0,0.0,60.0,5.0,0.0
2310,78.0,0.0,120.0,10.0,0.0
2311,66.0,60.0,60.0,5.0,0.0
2312,64.0,60.0,60.0,5.0,0.0
2313,62.0,60.0,180.0,7.0,0.0
2314,78.0,0.0,120.0,10.0,0.0
2315,66.0,60.0,60.0,5.0,0.0
2316,66.0,0.0,180.0,6.0,0.0
2317,68.0,60.0,60.0,5.0,0.0
2318,69.0,60.0,120.0,5.0,0.0
2319,78.0,0.0,360.0,10.0,0.0
2320,67.0,0.0,60.0,6.0,0.0
2321,64.0,0.0,60.0,7.0,0.0
2322,66.0,0.0,60.0,6.0,0.0
2323,62.0,60.0,60.0,7.0,0.0
2324,70.0,60.0,120.0,5.0,0.0
2325,64.0,0.0,60.0,6.0,0.0
2326,61.0,0.0,60.0,7.0,0.0
2327,71.0,60.0,240.0,5.0,0.0
2328,62.0,0.0,60.0,6.0,0.0
2329,59.0,60.0,60.0,7.0,0.0
2330,61.0,0.0,60.0,6.0,0.0
2331,57.0,60.0,60.0,7.0,0.0
2332,55.0,60.0,60.0,7.0,0.0
2333,71.0,60.0,180.0,4.0,0.0
2334,59.0,0.0,60.0,6.0,0.0
2335,78.0,0.0,120.0,10.0,0.0
2336,57.0,0.0,60.0,6.0,0.0
2337,54.0,0.0,60.0,7.0,0.0
2338,79.0,0.0,240.0,10.0,0.0
2339,55.0,0.0,240.0,6.0,0.0
2340,52.0,0.0,240.0,7.0,0.0
2341,69.0,60.0,60.0,4.0,0.0
2342,71.0,60.0,60.0,4.0,0.0
2343,73.0,60.0,60.0,4.0,0.0
2344,57.0,0.0,240.0,6.0,0.0
2345,74.0,60.0,60.0,4.0,0.0
2346,78.0,60.0,120.0,10.0,0.0
2347,54.0,60.0,180.0,7.0,0.0
2348,69.0,0.0,60.0,4.0,0.0
2349,74.0,60.0,240.0,4.0,0.0
2350,69.0,60.0,180.0,5.0,0.0
2351,78.0,0.0,120.0,10.0,0.0
2352,56.0,60.0,60.0,7.0,0.0
2353,57.0,0.0,240.0,7.0,0.0
2354,76.0,60.0,180.0,10.0,0.0
2355,71.0,0.0,60.0,5.0,0.0
2356,69.0,0.0,60.0,5.0,0.0
2357,69.0,0.0,180.0,6.0,0.0
2358,73.0,0.0,120.0,4.0,0.0
2359,67.0,60.0,60.0,5.0,0.0
2360,76.0,0.0,60.0,10.0,0.0
2361,74.0,60.0,240.0,10.0,0.0
2362,50.0,0.0,240.0,7.0,0.0
2363,66.0,60.0,60.0,5.0,0.0
2364,74.0,0.0,120.0,4.0,0.0
2365,71.0,60.0,60.0,6.0,0.0
2366,67.0,0.0,60.0,5.0,0.0
2367,66.0,0.0,60.0,5.0,0.0
2368,69.0,60.0,60.0,6.0,0.0
2369,86.0,0.0,180.0,4.0,0.0
2370,64.0,0.0,60.0,5.0,0.0
2371,67.0,0.0,60.0,6.0,0.0
2372,66.0,60.0,60.0,6.0,0.0
2373,62.0,60.0,120.0,5.0,0.0
2374,67.0,0.0,60.0,6.0,0.0
2375,88.0,0.0,60.0,4.0,0.0
2376,78.0,0.0,180.0,5.0,0.0
2377,86.0,0.0,60.0,4.0,0.0
2378,66.0,60.0,60.0,6.0,0.0
2379,85.0,60.0,60.0,4.0,0.0
2380,64.0,0.0,60.0,6.0,0.0
2381,62.0,60.0,60.0,6.0,0.0
2382,83.0,0.0,60.0,4.0,0.0
2383,85.0,60.0,60.0,4.0,0.0
2384,79.0,0.0,60.0,5.0,0.0
2385,76.0,0.0,60.0,6.0,0.0
2386,74.0,0.0,60.0,6.0,0.0
2387,83.0,0.0,60.0,4.0,0.0
2388,78.0,60.0,60.0,5.0,0.0
2389,73.0,0.0,60.0,6.0,0.0
2390,76.0,0.0,60.0,5.0,0.0
2391,81.0,60.0,60.0,4.0,0.0
2392,74.0,0.0,60.0,5.0,0.0
2393,80.0,0.0,60.0,4.0,0.0
2394,71.0,60.0,60.0,6.0,0.0
2395,76.0,0.0,60.0,5.0,0.0
2396,81.0,60.0,60.0,4.0,0.0
2397,73.0,0.0,60.0,6.0,0.0
2398,74.0,60.0,60.0,5.0,0.0
2399,71.0,0.0,60.0,6.0,0.0
2400,64.0,60.0,180.0,7.0,0.0
2401,80.0,0.0,60.0,4.0,0.0
2402,69.0,0.0,60.0,6.0,0.0
2403,78.0,60.0,60.0,4.0,0.0
2404,73.0,0.0,60.0,5.0,0.0
2405,76.0,0.0,240.0,10.0,0.0
2406,76.0,0.0,240.0,4.0,0.0
2407,71.0,0.0,120.0,5.0,0.0
2408,68.0,0.0,240.0,6.0,0.0
2409,66.0,60.0,60.0,7.0,0.0
2410,64.0,60.0,60.0,7.0,0.0
2411,76.0,0.0,180.0,5.0,0.0
2412,62.0,60.0,60.0,7.0,0.0
2413,69.0,0.0,240.0,6.0,0.0
2414,61.0,60.0,60.0,7.0,0.0
2415,76.0,60.0,120.0,10.0,0.0
2416,78.0,0.0,60.0,5.0,0.0
2417,62.0,0.0,60.0,7.0,0.0
2418,76.0,0.0,60.0,5.0,0.0
2419,88.0,0.0,180.0,4.0,0.0
2420,61.0,60.0,60.0,7.0,0.0
2421,76.0,0.0,120.0,10.0,0.0
2422,59.0,60.0,60.0,7.0,0.0
2423,74.0,0.0,60.0,5.0,0.0
2424,57.0,0.0,360.0,7.0,0.0
2425,76.0,0.0,120.0,10.0,0.0
2426,73.0,60.0,60.0,5.0,0.0
2427,90.0,0.0,60.0,4.0,0.0
2428,74.0,60.0,60.0,5.0,0.0
2429,88.0,60.0,60.0,4.0,0.0
2430,76.0,60.0,120.0,10.0,0.0
2431,73.0,0.0,60.0,5.0,0.0
2432,86.0,0.0,60.0,4.0,0.0
2433,71.0,0.0,60.0,5.0,0.0
2434,69.0,0.0,60.0,5.0,0.0
2435,85.0,60.0,60.0,4.0,0.0
2436,76.0,60.0,180.0,10.0,0.0
2437,68.0,0.0,60.0,5.0,0.0
2438,86.0,60.0,60.0,4.0,0.0
2439,69.0,0.0,60.0,5.0,0.0
2440,85.0,0.0,60.0,4.0,0.0
2441,55.0,60.0,120.0,7.0,0.0
2442,83.0,0.0,60.0,4.0,0.0
2443,71.0,0.0,60.0,5.0,0.0
2444,76.0,0.0,60.0,10.0,0.0
2445,54.0,60.0,60.0,7.0,0.0
2446,82.0,0.0,240.0,4.0,0.0
2447,73.0,0.0,240.0,5.0,0.0
2448,78.0,60.0,120.0,10.0,0.0
2449,55.0,0.0,60.0,7.0,0.0
2450,66.0,60.0,180.0,6.0,0.0
2451,78.0,0.0,120.0,10.0,0.0
2452,54.0,60.0,60.0,7.0,0.0
2453,52.0,60.0,60.0,7.0,0.0
2454,71.0,0.0,240.0,5.0,0.0
2455,71.0,0.0,120.0,10.0,0.0
2456,50.0,0.0,60.0,7.0,0.0
2457,83.0,0.0,480.0,4.0,0.0
2458,67.0,0.0,60.0,6.0,0.0
2459,49.0,60.0,60.0,7.0,0.0
2460,66.0,0.0,60.0,6.0,0.0
2461,50.0,60.0,60.0,7.0,0.0
2462,71.0,0.0,120.0,10.0,0.0
2463,52.0,0.0,60.0,7.0,0.0
2464,64.0,60.0,60.0,6.0,0.0
2465,74.0,60.0,240.0,10.0,0.0
2466,54.0,0.0,480.0,7.0,0.0
2467,62.0,60.0,60.0,6.0,0.0
2468,61.0,60.0,60.0,6.0,0.0
2469,78.0,60.0,180.0,5.0,0.0
2470,62.0,60.0,60.0,6.0,0.0
2471,64.0,0.0,60.0,6.0,0.0
2472,73.0,60.0,180.0,10.0,0.0
2473,82.0,0.0,240.0,4.0,0.0
2474,66.0,0.0,480.0,6.0,0.0
2475,79.0,60.0,60.0,5.0,0.0
2476,78.0,0.0,60.0,5.0,0.0
2477,73.0,0.0,60.0,10.0,0.0
2478,76.0,90.0,60.0,5.0,0.0
2479,74.0,0.0,90.0,5.0,0.0
2480,83.0,30.0,90.0,4.0,0.0
2481,59.0,0.0,240.0,7.0,0.0
2482,71.0,120.0,240.0,10.0,0.0
2483,62.0,0.0,30.0,5.0,0.0
2484,71.0,90.0,30.0,4.0,0.0
2485,74.0,0.0,120.0,0.0,0.0
2486,78.0,0.0,90.0,4.0,0.0
2487,71.0,30.0,90.0,5.0,0.0
2488,74.0,0.0,30.0,4.0,0.0
2489,66.0,0.0,30.0,5.0,0.0
2490,79.0,0.0,240.0,4.0,0.0
2491,79.0,0.0,360.0,0.0,0.0
2492,67.0,90.0,120.0,12.0,0.0
2493,59.0,0.0,120.0,3.0,0.0
2494,67.0,0.0,120.0,3.0,0.0
2495,59.0,0.0,120.0,13.0,0.0
2496,74.0,120.0,240.0,5.0,0.0
2497,59.0,0.0,30.0,1.0,0.0
2498,47.0,0.0,30.0,8.0,0.0
2499,59.0,0.0,30.0,15.0,0.0
2500,74.0,0.0,150.0,15.0,0.0
2501,67.0,0.0,150.0,15.0,0.0
2502,71.0,0.0,150.0,15.0,0.0
2503,62.0,0.0,30.0,6.0,0.0
2504,59.0,0.0,120.0,13.0,0.0
2505,62.0,0.0,90.0,1.0,0.0
2506,67.0,0.0,120.0,3.0,0.0
2507,71.0,0.0,90.0,6.0,0.0
2508,59.0,0.0,120.0,3.0,0.0
2509,62.0,30.0,90.0,15.0,0.0
2510,50.0,0.0,90.0,8.0,0.0
2511,67.0,0.0,120.0,12.0,0.0
2512,67.0,0.0,30.0,6.0,0.0
2513,47.0,0.0,30.0,8.0,0.0
2514,59.0,0.0,30.0,15.0,0.0
2515,59.0,0.0,30.0,1.0,0.0
2516,69.0,0.0,240.0,15.0,0.0
2517,64.0,0.0,240.0,15.0,0.0
2518,61.0,0.0,240.0,15.0,0.0
2519,76.0,0.0,120.0,3.0,0.0
2520,61.0,0.0,120.0,3.0,0.0
2521,76.0,0.0,120.0,11.0,0.0
2522,61.0,120.0,240.0,1.0,0.0
2523,69.0,0.0,240.0,6.0,0.0
2524,49.0,0.0,240.0,8.0,0.0
2525,64.0,0.0,120.0,3.0,0.0
2526,61.0,0.0,120.0,13.0,0.0
2527,64.0,0.0,120.0,12.0,0.0
2528,69.0,90.0,30.0,4.0,0.0
2529,64.0,0.0,30.0,5.0,0.0
2530,61.0,0.0,120.0,13.0,0.0
2531,76.0,0.0,120.0,3.0,0.0
2532,76.0,0.0,90.0,4.0,0.0
2533,61.0,0.0,120.0,3.0,0.0
2534,76.0,0.0,120.0,0.0,0.0
2535,69.0,0.0,120.0,3.0,0.0
2536,73.0,30.0,90.0,5.0,0.0
2537,76.0,0.0,120.0,11.0,0.0
2538,69.0,0.0,120.0,12.0,0.0
2539,73.0,0.0,30.0,4.0,0.0
2540,69.0,0.0,30.0,5.0,0.0
2541,73.0,0.0,120.0,3.0,0.0
2542,76.0,0.0,240.0,5.0,0.0
2543,73.0,0.0,120.0,11.0,0.0
2544,81.0,0.0,240.0,4.0,0.0
2545,81.0,0.0,240.0,0.0,0.0
2546,45.0,0.0,30.0,8.0,0.0
2547,73.0,0.0,30.0,6.0,0.0
2548,76.0,0.0,150.0,15.0,0.0
2549,57.0,0.0,30.0,1.0,0.0
2550,69.0,0.0,150.0,15.0,0.0
2551,73.0,0.0,150.0,15.0,0.0
2552,57.0,90.0,30.0,15.0,0.0
2553,49.0,0.0,90.0,8.0,0.0
2554,61.0,0.0,90.0,15.0,0.0
2555,69.0,0.0,120.0,11.0,0.0
2556,61.0,0.0,120.0,13.0,0.0
2557,69.0,120.0,120.0,12.0,0.0
2558,69.0,0.0,120.0,3.0,0.0
2559,76.0,0.0,90.0,6.0,0.0
2560,61.0,0.0,120.0,3.0,0.0
2561,61.0,30.0,90.0,1.0,0.0
2562,57.0,0.0,30.0,1.0,0.0
2563,57.0,0.0,30.0,15.0,0.0
2564,45.0,0.0,30.0,8.0,0.0
2565,73.0,0.0,30.0,6.0,0.0
2566,66.0,0.0,120.0,3.0,0.0
2567,62.0,0.0,120.0,13.0,0.0
2568,62.0,0.0,240.0,1.0,0.0
2569,66.0,0.0,120.0,12.0,0.0
2570,78.0,0.0,240.0,10.0,0.0
2571,50.0,0.0,240.0,8.0,0.0
2572,78.0,0.0,240.0,0.0,0.0
2573,62.0,0.0,240.0,15.0,0.0
2574,69.0,0.0,240.0,6.0,0.0
2575,62.0,0.0,120.0,3.0,0.0
2576,74.0,0.0,30.0,5.0,0.0
2577,78.0,90.0,30.0,4.0,0.0
2578,81.0,0.0,90.0,4.0,0.0
2579,62.0,0.0,120.0,12.0,0.0
2580,69.0,0.0,120.0,3.0,0.0
2581,62.0,0.0,120.0,3.0,0.0
2582,50.0,0.0,120.0,3.0,0.0
2583,50.0,120.0,120.0,13.0,0.0
2584,78.0,30.0,90.0,5.0,0.0
2585,69.0,0.0,120.0,11.0,0.0
2586,78.0,0.0,30.0,4.0,0.0
2587,74.0,0.0,30.0,5.0,0.0
2588,66.0,0.0,120.0,11.0,0.0
2589,66.0,0.0,120.0,3.0,0.0
2590,78.0,0.0,240.0,5.0,0.0
2591,81.0,0.0,240.0,0.0,0.0
2592,81.0,0.0,240.0,10.0,0.0
2593,86.0,0.0,240.0,4.0,0.0
2594,66.0,0.0,30.0,6.0,0.0
2595,62.0,90.0,30.0,1.0,0.0
2596,74.0,0.0,150.0,15.0,0.0
2597,50.0,0.0,30.0,8.0,0.0
2598,62.0,0.0,30.0,15.0,0.0
2599,78.0,0.0,150.0,15.0,0.0
2600,81.0,0.0,150.0,15.0,0.0
2601,66.0,30.0,90.0,15.0,0.0
2602,74.0,0.0,120.0,3.0,0.0
2603,74.0,0.0,120.0,11.0,0.0
2604,62.0,0.0,120.0,3.0,0.0
2605,54.0,0.0,90.0,8.0,0.0
2606,69.0,0.0,90.0,6.0,0.0
2607,66.0,0.0,90.0,1.0,0.0
2608,66.0,0.0,120.0,12.0,0.0
2609,62.0,0.0,120.0,13.0,0.0
2610,66.0,0.0,120.0,3.0,0.0
2611,50.0,0.0,30.0,8.0,0.0
2612,66.0,120.0,30.0,6.0,0.0
2613,62.0,0.0,30.0,15.0,0.0
2614,62.0,0.0,30.0,1.0,0.0
2615,61.0,0.0,360.0,12.0,0.0
2616,46.0,0.0,240.0,8.0,0.0
2617,58.0,90.0,360.0,13.0,0.0
2618,78.0,0.0,120.0,10.0,0.0
2619,58.0,0.0,360.0,3.0,0.0
2620,73.0,0.0,240.0,15.0,0.0
2621,58.0,0.0,240.0,15.0,0.0
2622,78.0,0.0,240.0,15.0,0.0
2623,61.0,0.0,360.0,3.0,0.0
2624,58.0,0.0,240.0,1.0,0.0
2625,78.0,0.0,240.0,0.0,0.0
2626,73.0,0.0,240.0,6.0,0.0
2627,66.0,90.0,30.0,5.0,0.0
2628,73.0,0.0,30.0,4.0,0.0
2629,73.0,0.0,120.0,3.0,0.0
2630,73.0,120.0,120.0,11.0,0.0
2631,78.0,0.0,120.0,10.0,0.0
2632,78.0,0.0,90.0,4.0,0.0
2633,73.0,30.0,90.0,5.0,0.0
2634,73.0,0.0,30.0,4.0,0.0
2635,70.0,0.0,30.0,5.0,0.0
2636,85.0,120.0,240.0,4.0,0.0
2637,70.0,0.0,120.0,11.0,0.0
2638,70.0,0.0,120.0,3.0,0.0
2639,82.0,0.0,240.0,5.0,0.0
2640,78.0,0.0,480.0,10.0,0.0
2641,78.0,0.0,240.0,0.0,0.0
2642,70.0,0.0,150.0,15.0,0.0
2643,70.0,0.0,30.0,6.0,0.0
2644,73.0,0.0,150.0,15.0,0.0
2645,54.0,0.0,30.0,15.0,0.0
2646,78.0,0.0,150.0,15.0,0.0
2647,54.0,0.0,30.0,1.0,0.0
2648,42.0,0.0,30.0,8.0,0.0
2649,66.0,0.0,120.0,11.0,0.0
2650,61.0,0.0,120.0,3.0,0.0
2651,58.0,0.0,120.0,13.0,0.0
2652,73.0,0.0,90.0,6.0,0.0
2653,58.0,0.0,120.0,3.0,0.0
2654,57.0,0.0,90.0,15.0,0.0
2655,57.0,0.0,90.0,1.0,0.0
2656,61.0,0.0,120.0,12.0,0.0
2657,66.0,0.0,120.0,3.0,0.0
2658,46.0,30.0,90.0,8.0,0.0
2659,42.0,0.0,30.0,8.0,0.0
2660,70.0,0.0,30.0,6.0,0.0
2661,54.0,0.0,30.0,1.0,0.0
2662,54.0,0.0,30.0,15.0,0.0
2663,78.0,120.0,240.0,15.0,0.0
2664,74.0,0.0,240.0,3.0,0.0
2665,59.0,0.0,240.0,1.0,0.0
2666,71.0,0.0,240.0,15.0,0.0
2667,62.0,0.0,120.0,12.0,0.0
2668,74.0,0.0,240.0,6.0,0.0
2669,78.0,0.0,480.0,0.0,0.0
2670,74.0,0.0,240.0,15.0,0.0
2671,62.0,0.0,120.0,3.0,0.0
2672,74.0,0.0,240.0,11.0,0.0
2673,59.0,0.0,240.0,15.0,0.0
2674,47.0,0.0,240.0,8.0,0.0
2675,59.0,0.0,120.0,13.0,0.0
2676,59.0,0.0,120.0,3.0,0.0
2677,66.0,0.0,30.0,5.0,0.0
2678,74.0,60.0,30.0,4.0,0.0
2679,78.0,30.0,90.0,4.0,0.0
2680,59.0,0.0,60.0,13.0,0.0
2681,66.0,30.0,60.0,3.0,0.0
2682,59.0,0.0,60.0,3.0,0.0
2683,74.0,0.0,90.0,5.0,0.0
2684,66.0,0.0,60.0,12.0,0.0
2685,66.0,0.0,60.0,3.0,0.0
2686,59.0,0.0,60.0,13.0,0.0
2687,59.0,0.0,60.0,3.0,0.0
2688,66.0,0.0,60.0,12.0,0.0
2689,71.0,0.0,30.0,5.0,0.0
2690,74.0,0.0,30.0,4.0,0.0
2691,71.0,0.0,120.0,3.0,0.0
2692,83.0,0.0,240.0,5.0,0.0
2693,59.0,0.0,120.0,3.0,0.0
2694,74.0,0.0,120.0,3.0,0.0
2695,86.0,0.0,240.0,4.0,0.0
2696,74.0,0.0,120.0,11.0,0.0
2697,78.0,0.0,120.0,10.0,0.0
2698,71.0,90.0,120.0,12.0,0.0
2699,59.0,0.0,120.0,13.0,0.0
2700,59.0,0.0,30.0,1.0,0.0
2701,59.0,0.0,30.0,15.0,0.0
2702,74.0,0.0,150.0,15.0,0.0
2703,47.0,0.0,30.0,8.0,0.0
2704,69.0,0.0,150.0,15.0,0.0
2705,62.0,0.0,30.0,6.0,0.0
2706,78.0,0.0,150.0,15.0,0.0
2707,78.0,0.0,120.0,10.0,0.0
2708,50.0,0.0,90.0,8.0,0.0
2709,74.0,0.0,120.0,3.0,0.0
2710,69.0,0.0,120.0,12.0,0.0
2711,59.0,0.0,120.0,3.0,0.0
2712,62.0,30.0,90.0,1.0,0.0
2713,69.0,0.0,120.0,3.0,0.0
2714,66.0,0.0,90.0,6.0,0.0
2715,59.0,0.0,120.0,13.0,0.0
2716,62.0,0.0,90.0,15.0,0.0
2717,74.0,0.0,120.0,11.0,0.0
2718,47.0,120.0,30.0,8.0,0.0
2719,59.0,0.0,30.0,15.0,0.0
2720,59.0,0.0,30.0,1.0,0.0
2721,62.0,0.0,30.0,6.0,0.0
2722,73.0,0.0,120.0,3.0,0.0
2723,80.0,0.0,120.0,0.0,0.0
2724,79.0,0.0,120.0,10.0,0.0
2725,40.0,0.0,120.0,8.0,0.0
2726,73.0,0.0,120.0,11.0,0.0
2727,79.0,0.0,120.0,15.0,0.0
2728,67.0,90.0,120.0,15.0,0.0
2729,52.0,0.0,120.0,15.0,0.0
2730,67.0,0.0,120.0,6.0,0.0
2731,67.0,0.0,120.0,3.0,0.0
2732,52.0,0.0,120.0,3.0,0.0
2733,52.0,0.0,120.0,1.0,0.0
2734,67.0,0.0,120.0,12.0,0.0
2735,52.0,0.0,120.0,13.0,0.0
2736,73.0,0.0,120.0,15.0,0.0
2737,85.0,0.0,30.0,4.0,0.0
2738,79.0,0.0,30.0,5.0,0.0
2739,86.0,0.0,90.0,4.0,0.0
2740,69.0,0.0,240.0,3.0,0.0
2741,54.0,0.0,90.0,15.0,0.0
2742,69.0,0.0,90.0,15.0,0.0
2743,42.0,0.0,90.0,8.0,0.0
2744,74.0,0.0,120.0,15.0,0.0
2745,74.0,0.0,120.0,11.0,0.0
2746,78.0,30.0,90.0,15.0,0.0
2747,69.0,0.0,240.0,12.0,0.0
2748,54.0,0.0,90.0,13.0,0.0
2749,78.0,0.0,90.0,5.0,0.0
2750,69.0,0.0,240.0,6.0,0.0
2751,74.0,0.0,120.0,3.0,0.0
2752,78.0,0.0,120.0,10.0,0.0
2753,54.0,0.0,90.0,3.0,0.0
2754,54.0,0.0,90.0,1.0,0.0
2755,78.0,0.0,120.0,0.0,0.0
2756,55.0,0.0,30.0,1.0,0.0
2757,78.0,0.0,30.0,4.0,0.0
2758,74.0,90.0,30.0,5.0,0.0
2759,55.0,0.0,30.0,15.0,0.0
2760,71.0,0.0,30.0,15.0,0.0
2761,55.0,0.0,30.0,3.0,0.0
2762,55.0,0.0,30.0,13.0,0.0
2763,43.0,0.0,30.0,8.0,0.0
2764,74.0,0.0,120.0,3.0,0.0
2765,76.0,30.0,180.0,10.0,0.0
2766,57.0,60.0,120.0,1.0,0.0
2767,57.0,0.0,120.0,3.0,0.0
2768,74.0,0.0,120.0,11.0,0.0
2769,76.0,0.0,240.0,0.0,0.0
2770,45.0,0.0,120.0,8.0,0.0
2771,76.0,0.0,90.0,4.0,0.0
2772,57.0,0.0,120.0,13.0,0.0
2773,74.0,30.0,90.0,5.0,0.0
2774,57.0,0.0,120.0,15.0,0.0
2775,69.0,0.0,240.0,15.0,0.0
2776,74.0,0.0,120.0,15.0,0.0
2777,76.0,0.0,240.0,15.0,0.0
2778,86.0,0.0,30.0,4.0,0.0
2779,76.0,0.0,30.0,5.0,0.0
2780,67.0,0.0,120.0,12.0,0.0
2781,73.0,0.0,90.0,5.0,0.0
2782,73.0,0.0,120.0,3.0,0.0
2783,67.0,0.0,120.0,6.0,0.0
2784,73.0,90.0,120.0,11.0,0.0
2785,57.0,0.0,120.0,3.0,0.0
2786,73.0,0.0,120.0,15.0,0.0
2787,45.0,0.0,120.0,15.0,0.0
2788,33.0,0.0,120.0,8.0,0.0
2789,45.0,0.0,120.0,1.0,0.0
2790,67.0,0.0,120.0,3.0,0.0
2791,57.0,0.0,120.0,13.0,0.0
2792,76.0,30.0,90.0,4.0,0.0
2793,76.0,0.0,60.0,10.0,0.0
2794,76.0,0.0,30.0,5.0,0.0
2795,85.0,0.0,30.0,4.0,0.0
2796,66.0,0.0,240.0,15.0,0.0
2797,66.0,0.0,240.0,12.0,0.0
2798,74.0,0.0,240.0,10.0,0.0
2799,66.0,0.0,240.0,6.0,0.0
2800,50.0,0.0,240.0,1.0,0.0
2801,86.0,0.0,90.0,4.0,0.0
2802,74.0,0.0,240.0,3.0,0.0
2803,69.0,0.0,240.0,15.0,0.0
2804,74.0,0.0,240.0,0.0,0.0
2805,74.0,0.0,240.0,11.0,0.0
2806,50.0,0.0,240.0,13.0,0.0
2807,38.0,0.0,240.0,8.0,0.0
2808,66.0,120.0,240.0,3.0,0.0
2809,50.0,0.0,240.0,3.0,0.0
2810,74.0,0.0,240.0,15.0,0.0
2811,50.0,0.0,240.0,15.0,0.0
2812,78.0,30.0,90.0,5.0,0.0
2813,66.0,90.0,30.0,5.0,0.0
2814,74.0,0.0,30.0,4.0,0.0
2815,69.0,0.0,90.0,5.0,0.0
2816,78.0,30.0,90.0,4.0,0.0
2817,66.0,0.0,30.0,5.0,0.0
2818,74.0,0.0,30.0,4.0,0.0
2819,78.0,0.0,240.0,5.0,0.0
2820,86.0,0.0,240.0,4.0,0.0
2821,66.0,90.0,30.0,6.0,0.0
2822,69.0,0.0,150.0,15.0,0.0
2823,62.0,0.0,30.0,15.0,0.0
2824,74.0,0.0,150.0,15.0,0.0
2825,62.0,0.0,30.0,1.0,0.0
2826,50.0,0.0,30.0,8.0,0.0
2827,78.0,0.0,150.0,15.0,0.0
2828,62.0,0.0,120.0,13.0,0.0
2829,66.0,0.0,90.0,15.0,0.0
2830,66.0,0.0,120.0,12.0,0.0
2831,66.0,0.0,120.0,3.0,0.0
2832,69.0,30.0,90.0,6.0,0.0
2833,66.0,0.0,90.0,1.0,0.0
2834,54.0,0.0,90.0,8.0,0.0
2835,62.0,0.0,120.0,3.0,0.0
2836,62.0,0.0,30.0,15.0,0.0
2837,66.0,0.0,30.0,6.0,0.0
2838,62.0,120.0,30.0,1.0,0.0
2839,50.0,0.0,30.0,8.0,0.0
2840,66.0,90.0,120.0,3.0,0.0
2841,66.0,0.0,120.0,12.0,0.0
2842,74.0,0.0,240.0,15.0,0.0
2843,59.0,0.0,240.0,1.0,0.0
2844,62.0,0.0,240.0,6.0,0.0
2845,62.0,0.0,120.0,3.0,0.0
2846,62.0,0.0,120.0,13.0,0.0
2847,59.0,0.0,240.0,15.0,0.0
2848,78.0,0.0,240.0,15.0,0.0
2849,47.0,0.0,240.0,8.0,0.0
2850,71.0,0.0,240.0,15.0,0.0
2851,78.0,0.0,30.0,4.0,0.0
2852,74.0,0.0,30.0,5.0,0.0
2853,59.0,0.0,120.0,13.0,0.0
2854,78.0,30.0,90.0,5.0,0.0
2855,62.0,0.0,120.0,12.0,0.0
2856,66.0,0.0,120.0,3.0,0.0
2857,83.0,0.0,90.0,4.0,0.0
2858,66.0,120.0,120.0,11.0,0.0
2859,62.0,0.0,120.0,3.0,0.0
2860,59.0,0.0,120.0,3.0,0.0
2861,74.0,0.0,30.0,5.0,0.0
2862,78.0,0.0,30.0,4.0,0.0
2863,86.0,0.0,240.0,5.0,0.0
2864,66.0,90.0,120.0,3.0,0.0
2865,66.0,0.0,120.0,11.0,0.0
2866,90.0,0.0,240.0,4.0,0.0
2867,59.0,0.0,30.0,1.0,0.0
2868,62.0,0.0,30.0,6.0,0.0
2869,71.0,0.0,150.0,15.0,0.0
2870,47.0,0.0,30.0,8.0,0.0
2871,74.0,0.0,150.0,15.0,0.0
2872,59.0,0.0,30.0,15.0,0.0
2873,78.0,0.0,150.0,15.0,0.0
2874,62.0,0.0,90.0,1.0,0.0
2875,62.0,0.0,120.0,3.0,0.0
2876,71.0,0.0,120.0,11.0,0.0
2877,62.0,120.0,120.0,12.0,0.0
2878,59.0,0.0,120.0,3.0,0.0
2879,71.0,0.0,120.0,3.0,0.0
2880,50.0,30.0,90.0,8.0,0.0
2881,62.0,0.0,90.0,15.0,0.0
2882,59.0,0.0,120.0,13.0,0.0
2883,66.0,0.0,90.0,6.0,0.0
2884,59.0,0.0,30.0,15.0,0.0
2885,59.0,0.0,30.0,1.0,0.0
2886,62.0,0.0,30.0,6.0,0.0
2887,47.0,0.0,30.0,8.0,0.0
2888,74.0,0.0,240.0,15.0,0.0
2889,59.0,0.0,120.0,13.0,0.0
2890,56.0,0.0,240.0,1.0,0.0
2891,59.0,0.0,120.0,3.0,0.0
2892,59.0,0.0,240.0,6.0,0.0
2893,76.0,0.0,240.0,10.0,0.0
2894,56.0,0.0,240.0,15.0,0.0
2895,44.0,0.0,240.0,8.0,0.0
2896,62.0,90.0,120.0,12.0,0.0
2897,76.0,0.0,240.0,15.0,0.0
2898,71.0,0.0,240.0,15.0,0.0
2899,76.0,120.0,240.0,0.0,0.0
2900,62.0,0.0,120.0,3.0,0.0
2901,71.0,0.0,30.0,5.0,0.0
2902,76.0,0.0,30.0,4.0,0.0
2903,56.0,0.0,120.0,13.0,0.0
2904,83.0,0.0,90.0,4.0,0.0
2905,59.0,0.0,120.0,3.0,0.0
2906,56.0,0.0,120.0,3.0,0.0
2907,76.0,30.0,90.0,5.0,0.0
2908,71.0,0.0,120.0,11.0,0.0
2909,71.0,0.0,120.0,3.0,0.0
2910,59.0,0.0,120.0,12.0,0.0
2911,71.0,0.0,30.0,5.0,0.0
2912,76.0,0.0,30.0,4.0,0.0
2913,56.0,0.0,240.0,13.0,0.0
2914,76.0,0.0,120.0,10.0,0.0
2915,56.0,0.0,240.0,3.0,0.0
2916,59.0,0.0,360.0,12.0,0.0
2917,71.0,0.0,120.0,3.0,0.0
2918,88.0,0.0,240.0,4.0,0.0
2919,86.0,0.0,240.0,5.0,0.0
2920,59.0,0.0,360.0,3.0,0.0
2921,71.0,0.0,120.0,11.0,0.0
2922,76.0,0.0,240.0,0.0,0.0
2923,56.0,0.0,30.0,1.0,0.0
2924,44.0,0.0,30.0,8.0,0.0
2925,74.0,0.0,390.0,15.0,0.0
2926,71.0,90.0,30.0,6.0,0.0
2927,71.0,0.0,390.0,15.0,0.0
2928,76.0,0.0,390.0,15.0,0.0
2929,56.0,0.0,30.0,15.0,0.0
2930,74.0,0.0,120.0,11.0,0.0
2931,59.0,0.0,90.0,15.0,0.0
2932,76.0,0.0,120.0,10.0,0.0
2933,59.0,0.0,90.0,1.0,0.0
2934,74.0,0.0,90.0,6.0,0.0
2935,74.0,0.0,120.0,3.0,0.0
2936,47.0,30.0,90.0,8.0,0.0
2937,64.0,120.0,30.0,15.0,0.0
2938,64.0,0.0,30.0,1.0,0.0
2939,71.0,0.0,30.0,6.0,0.0
2940,52.0,0.0,30.0,8.0,0.0
2941,76.0,0.0,480.0,0.0,0.0
2942,74.0,90.0,120.0,3.0,0.0
2943,74.0,0.0,120.0,11.0,0.0
2944,55.0,120.0,240.0,15.0,0.0
2945,55.0,0.0,240.0,13.0,0.0
2946,76.0,0.0,120.0,10.0,0.0
2947,55.0,0.0,240.0,3.0,0.0
2948,43.0,0.0,240.0,8.0,0.0
2949,59.0,0.0,240.0,6.0,0.0
2950,55.0,0.0,240.0,1.0,0.0
2951,71.0,0.0,30.0,5.0,0.0
2952,76.0,0.0,30.0,4.0,0.0
2953,76.0,0.0,120.0,10.0,0.0
2954,76.0,30.0,90.0,5.0,0.0
2955,59.0,0.0,120.0,12.0,0.0
2956,59.0,0.0,120.0,3.0,0.0
2957,74.0,0.0,120.0,3.0,0.0
2958,74.0,0.0,120.0,11.0,0.0
2959,83.0,0.0,90.0,4.0,0.0
2960,76.0,0.0,30.0,4.0,0.0
2961,71.0,0.0,30.0,5.0,0.0
2962,73.0,0.0,120.0,11.0,0.0
2963,88.0,0.0,240.0,4.0,0.0
2964,85.0,0.0,240.0,5.0,0.0
2965,58.0,0.0,120.0,12.0,0.0
2966,55.0,0.0,120.0,13.0,0.0
2967,55.0,60.0,120.0,3.0,0.0
2968,58.0,0.0,120.0,3.0,0.0
2969,73.0,0.0,120.0,3.0,0.0
2970,76.0,30.0,180.0,10.0,0.0
2971,55.0,0.0,30.0,15.0,0.0
2972,73.0,0.0,30.0,15.0,0.0
2973,43.0,0.0,30.0,8.0,0.0
2974,55.0,0.0,30.0,1.0,0.0
2975,76.0,0.0,150.0,15.0,0.0
2976,67.0,0.0,30.0,6.0,0.0
2977,70.0,0.0,30.0,15.0,0.0
2978,59.0,0.0,120.0,12.0,0.0
2979,71.0,0.0,120.0,15.0,0.0
2980,67.0,0.0,120.0,15.0,0.0
2981,59.0,0.0,90.0,15.0,0.0
2982,59.0,0.0,90.0,1.0,0.0
2983,55.0,0.0,120.0,3.0,0.0
2984,71.0,0.0,120.0,3.0,0.0
2985,55.0,0.0,120.0,13.0,0.0
2986,71.0,0.0,120.0,11.0,0.0
2987,59.0,30.0,90.0,6.0,0.0
2988,59.0,0.0,120.0,3.0,0.0
2989,47.0,0.0,90.0,8.0,0.0
2990,76.0,0.0,60.0,10.0,0.0
2991,64.0,0.0,30.0,15.0,0.0
2992,71.0,0.0,30.0,6.0,0.0
2993,52.0,0.0,30.0,8.0,0.0
2994,64.0,120.0,30.0,1.0,0.0
2995,54.0,0.0,120.0,1.0,0.0
2996,76.0,0.0,120.0,15.0,0.0
2997,61.0,0.0,120.0,12.0,0.0
2998,54.0,0.0,120.0,15.0,0.0
2999,70.0,0.0,240.0,11.0,0.0
3000,70.0,0.0,120.0,15.0,0.0
3001,61.0,120.0,120.0,3.0,0.0
3002,54.0,0.0,120.0,13.0,0.0
3003,78.0,0.0,240.0,0.0,0.0
3004,78.0,0.0,120.0,10.0,0.0
3005,70.0,0.0,120.0,6.0,0.0
3006,42.0,0.0,120.0,8.0,0.0
3007,54.0,0.0,120.0,3.0,0.0
3008,73.0,0.0,120.0,15.0,0.0
3009,70.0,0.0,240.0,3.0,0.0
3010,73.0,0.0,30.0,5.0,0.0
3011,76.0,0.0,30.0,4.0,0.0
3012,54.0,0.0,120.0,13.0,0.0
3013,54.0,0.0,120.0,3.0,0.0
3014,85.0,0.0,120.0,5.0,0.0
3015,88.0,0.0,120.0,4.0,0.0
3016,61.0,0.0,120.0,12.0,0.0
3017,61.0,0.0,120.0,3.0,0.0
3018,78.0,120.0,120.0,10.0,0.0
3019,54.0,0.0,30.0,8.0,0.0
3020,73.0,0.0,30.0,15.0,0.0
3021,70.0,0.0,30.0,6.0,0.0
3022,70.0,0.0,30.0,15.0,0.0
3023,66.0,0.0,30.0,15.0,0.0
3024,76.0,0.0,30.0,15.0,0.0
3025,66.0,0.0,30.0,1.0,0.0
3026,71.0,0.0,240.0,0.0,0.0
3027,68.0,0.0,240.0,11.0,0.0
3028,65.0,0.0,120.0,15.0,0.0
3029,68.0,0.0,120.0,6.0,0.0
3030,62.0,0.0,120.0,12.0,0.0
3031,68.0,0.0,120.0,15.0,0.0
3032,71.0,0.0,120.0,15.0,0.0
3033,74.0,0.0,120.0,15.0,0.0
3034,71.0,0.0,120.0,10.0,0.0
3035,53.0,0.0,120.0,3.0,0.0
3036,53.0,0.0,120.0,8.0,0.0
3037,65.0,0.0,120.0,1.0,0.0
3038,53.0,0.0,120.0,13.0,0.0
3039,62.0,120.0,120.0,3.0,0.0
3040,68.0,0.0,240.0,3.0,0.0
3041,71.0,0.0,30.0,5.0,0.0
3042,74.0,0.0,30.0,4.0,0.0
3043,59.0,0.0,120.0,12.0,0.0
3044,53.0,0.0,120.0,3.0,0.0
3045,59.0,0.0,120.0,3.0,0.0
3046,86.0,0.0,120.0,4.0,0.0
3047,71.0,0.0,120.0,10.0,0.0
3048,53.0,0.0,120.0,13.0,0.0
3049,83.0,0.0,120.0,5.0,0.0
3050,53.0,0.0,30.0,1.0,0.0
3051,68.0,120.0,30.0,6.0,0.0
3052,68.0,0.0,30.0,15.0,0.0
3053,52.0,0.0,30.0,15.0,0.0
3054,71.0,0.0,30.0,15.0,0.0
3055,74.0,0.0,30.0,15.0,0.0
3056,41.0,0.0,30.0,8.0,0.0
3057,54.0,0.0,360.0,3.0,0.0
3058,54.0,0.0,360.0,13.0,0.0
3059,74.0,0.0,240.0,0.0,0.0
3060,66.0,0.0,360.0,3.0,0.0
3061,74.0,0.0,120.0,15.0,0.0
3062,66.0,0.0,360.0,12.0,0.0
3063,66.0,0.0,120.0,15.0,0.0
3064,54.0,0.0,120.0,15.0,0.0
3065,71.0,0.0,120.0,11.0,0.0
3066,71.0,0.0,120.0,15.0,0.0
3067,74.0,90.0,240.0,10.0,0.0
3068,66.0,0.0,120.0,6.0,0.0
3069,42.0,90.0,120.0,8.0,0.0
3070,54.0,0.0,120.0,1.0,0.0
3071,71.0,0.0,120.0,3.0,0.0
3072,74.0,0.0,30.0,4.0,0.0
3073,74.0,0.0,30.0,5.0,0.0
3074,78.0,0.0,90.0,4.0,0.0
3075,78.0,30.0,90.0,5.0,0.0
3076,70.0,0.0,120.0,15.0,0.0
3077,54.0,0.0,120.0,1.0,0.0
3078,71.0,0.0,120.0,11.0,0.0
3079,71.0,0.0,120.0,3.0,0.0
3080,42.0,0.0,120.0,8.0,0.0
3081,66.0,0.0,120.0,6.0,0.0
3082,66.0,0.0,120.0,15.0,0.0
3083,73.0,0.0,120.0,15.0,0.0
3084,54.0,0.0,120.0,15.0,0.0
3085,83.0,0.0,30.0,4.0,0.0
3086,85.0,0.0,30.0,5.0,0.0
3087,66.0,30.0,90.0,5.0,0.0
3088,70.0,0.0,120.0,15.0,0.0
3089,42.0,0.0,120.0,8.0,0.0
3090,73.0,0.0,120.0,15.0,0.0
3091,69.0,30.0,180.0,11.0,0.0
3092,54.0,0.0,120.0,15.0,0.0
3093,66.0,0.0,120.0,15.0,0.0
3094,73.0,0.0,180.0,10.0,0.0
3095,66.0,0.0,90.0,4.0,0.0
3096,66.0,0.0,120.0,6.0,0.0
3097,69.0,0.0,180.0,3.0,0.0
3098,54.0,60.0,120.0,1.0,0.0
3099,73.0,0.0,240.0,0.0,0.0
3100,73.0,0.0,30.0,4.0,0.0
3101,73.0,0.0,30.0,5.0,0.0
3102,64.0,0.0,120.0,3.0,0.0
3103,42.0,120.0,120.0,8.0,0.0
3104,76.0,0.0,90.0,4.0,0.0
3105,64.0,0.0,120.0,12.0,0.0
3106,54.0,0.0,120.0,3.0,0.0
3107,66.0,0.0,120.0,15.0,0.0
3108,54.0,0.0,120.0,1.0,0.0
3109,76.0,30.0,90.0,5.0,0.0
3110,73.0,0.0,120.0,15.0,0.0
3111,70.0,0.0,120.0,15.0,0.0
3112,54.0,0.0,120.0,15.0,0.0
3113,66.0,0.0,120.0,6.0,0.0
3114,54.0,0.0,120.0,13.0,0.0
3115,69.0,0.0,60.0,11.0,0.0
3116,73.0,0.0,60.0,10.0,0.0
3117,69.0,0.0,60.0,3.0,0.0
3118,82.0,0.0,30.0,5.0,0.0
3119,82.0,0.0,30.0,4.0,0.0
3120,71.0,0.0,240.0,11.0,0.0
3121,35.0,0.0,120.0,8.0,0.0
3122,71.0,0.0,240.0,10.0,0.0
3123,47.0,0.0,240.0,1.0,0.0
3124,62.0,0.0,240.0,3.0,0.0
3125,71.0,0.0,240.0,3.0,0.0
3126,47.0,0.0,240.0,3.0,0.0
3127,47.0,120.0,240.0,13.0,0.0
3128,59.0,0.0,120.0,6.0,0.0
3129,71.0,0.0,120.0,15.0,0.0
3130,66.0,120.0,120.0,15.0,0.0
3131,47.0,0.0,120.0,15.0,0.0
3132,62.0,0.0,120.0,15.0,0.0
3133,83.0,0.0,120.0,4.0,0.0
3134,62.0,0.0,240.0,12.0,0.0
3135,83.0,0.0,120.0,5.0,0.0
3136,71.0,0.0,120.0,0.0,0.0
3137,71.0,0.0,120.0,4.0,0.0
3138,62.0,0.0,120.0,5.0,0.0
3139,59.0,0.0,120.0,6.0,0.0
3140,67.0,120.0,240.0,1.0,0.0
3141,71.0,0.0,480.0,0.0,0.0
3142,50.0,120.0,120.0,8.0,0.0
3143,71.0,0.0,120.0,4.0,0.0
3144,62.0,0.0,120.0,6.0,0.0
3145,66.0,0.0,120.0,5.0,0.0
3146,76.0,120.0,600.0,0.0,0.0
3147,66.0,0.0,780.0,1.0,0.0
3148,49.0,120.0,120.0,8.0,0.0
3149,61.0,0.0,120.0,6.0,0.0
3150,64.0,0.0,120.0,5.0,0.0
3151,71.0,120.0,120.0,4.0,0.0
3152,70.0,120.0,240.0,0.0,0.0
3153,42.0,120.0,120.0,8.0,0.0
3154,64.0,0.0,120.0,5.0,0.0
3155,70.0,0.0,120.0,4.0,0.0
3156,61.0,0.0,120.0,6.0,0.0
3157,47.0,0.0,120.0,8.0,0.0
3158,78.0,60.0,300.0,4.0,0.0
3159,59.0,0.0,240.0,6.0,0.0
3160,71.0,60.0,240.0,0.0,0.0
3161,74.0,0.0,120.0,0.0,0.0
3162,61.0,0.0,360.0,1.0,0.0
3163,46.0,0.0,120.0,8.0,0.0
3164,73.0,0.0,360.0,5.0,0.0
3165,58.0,60.0,240.0,6.0,0.0
3166,67.0,60.0,60.0,1.0,0.0
3167,79.0,0.0,60.0,4.0,0.0
3168,78.0,0.0,60.0,4.0,0.0
3169,66.0,60.0,60.0,1.0,0.0
3170,76.0,0.0,60.0,4.0,0.0
3171,64.0,0.0,60.0,1.0,0.0
3172,62.0,0.0,60.0,1.0,0.0
3173,47.0,0.0,120.0,8.0,0.0
3174,59.0,60.0,120.0,6.0,0.0
3175,74.0,60.0,60.0,4.0,0.0
3176,78.0,0.0,60.0,4.0,0.0
3177,66.0,0.0,60.0,1.0,0.0
3178,71.0,0.0,240.0,5.0,0.0
3179,76.0,60.0,60.0,4.0,0.0
3180,43.0,0.0,120.0,8.0,0.0
3181,64.0,0.0,60.0,1.0,0.0
3182,55.0,0.0,120.0,6.0,0.0
3183,59.0,0.0,240.0,1.0,0.0
3184,62.0,0.0,60.0,1.0,0.0
3185,74.0,60.0,60.0,4.0,0.0
3186,40.0,0.0,120.0,8.0,0.0
3187,73.0,60.0,60.0,4.0,0.0
3188,52.0,0.0,120.0,6.0,0.0
3189,61.0,0.0,60.0,1.0,0.0
3190,64.0,60.0,60.0,1.0,0.0
3191,76.0,0.0,60.0,4.0,0.0
3192,62.0,0.0,60.0,1.0,0.0
3193,54.0,0.0,120.0,6.0,0.0
3194,74.0,60.0,60.0,4.0,0.0
3195,70.0,0.0,120.0,5.0,0.0
3196,58.0,0.0,120.0,1.0,0.0
3197,42.0,0.0,120.0,8.0,0.0
3198,61.0,60.0,60.0,1.0,0.0
3199,73.0,0.0,60.0,4.0,0.0
3200,59.0,60.0,120.0,6.0,0.0
3201,59.0,0.0,120.0,1.0,0.0
3202,71.0,0.0,60.0,5.0,0.0
3203,71.0,60.0,60.0,4.0,0.0
3204,35.0,0.0,120.0,8.0,0.0
3205,74.0,60.0,120.0,4.0,0.0
3206,74.0,0.0,120.0,5.0,0.0
3207,86.0,0.0,60.0,4.0,0.0
3208,86.0,120.0,60.0,5.0,0.0
3209,62.0,0.0,120.0,15.0,0.0
3210,66.0,0.0,120.0,15.0,0.0
3211,62.0,60.0,120.0,6.0,0.0
3212,74.0,0.0,120.0,15.0,0.0
3213,54.0,0.0,360.0,3.0,0.0
3214,54.0,0.0,360.0,13.0,0.0
3215,54.0,0.0,480.0,1.0,0.0
3216,50.0,0.0,120.0,8.0,0.0
3217,71.0,0.0,120.0,15.0,0.0
3218,71.0,0.0,120.0,4.0,0.0
3219,71.0,60.0,120.0,5.0,0.0
3220,83.0,0.0,60.0,5.0,0.0
3221,83.0,120.0,60.0,4.0,0.0
3222,68.0,0.0,120.0,15.0,0.0
3223,66.0,0.0,120.0,15.0,0.0
3224,73.0,0.0,120.0,15.0,0.0
3225,49.0,0.0,120.0,8.0,0.0
3226,61.0,0.0,120.0,15.0,0.0
3227,61.0,60.0,120.0,6.0,0.0
3228,68.0,60.0,120.0,5.0,0.0
3229,68.0,0.0,120.0,4.0,0.0
3230,73.0,0.0,180.0,3.0,0.0
3231,73.0,0.0,180.0,11.0,0.0
3232,73.0,60.0,180.0,0.0,0.0
3233,54.0,0.0,120.0,13.0,0.0
3234,54.0,0.0,120.0,3.0,0.0
3235,80.0,0.0,60.0,5.0,0.0
3236,80.0,60.0,60.0,4.0,0.0
3237,73.0,0.0,120.0,15.0,0.0
3238,53.0,60.0,120.0,13.0,0.0
3239,49.0,0.0,120.0,15.0,0.0
3240,68.0,0.0,120.0,15.0,0.0
3241,65.0,0.0,120.0,15.0,0.0
3242,61.0,0.0,120.0,6.0,0.0
3243,53.0,0.0,240.0,1.0,0.0
3244,37.0,0.0,120.0,8.0,0.0
3245,53.0,0.0,120.0,3.0,0.0
3246,74.0,0.0,60.0,3.0,0.0
3247,73.0,0.0,120.0,5.0,0.0
3248,74.0,0.0,60.0,0.0,0.0
3249,74.0,0.0,60.0,11.0,0.0
3250,73.0,0.0,120.0,4.0,0.0
3251,73.0,60.0,60.0,11.0,0.0
3252,53.0,0.0,120.0,13.0,0.0
3253,53.0,0.0,120.0,3.0,0.0
3254,73.0,0.0,60.0,3.0,0.0
3255,73.0,0.0,60.0,0.0,0.0
3256,71.0,0.0,60.0,3.0,0.0
3257,71.0,0.0,60.0,11.0,0.0
3258,85.0,0.0,60.0,5.0,0.0
3259,71.0,60.0,60.0,0.0,0.0
3260,85.0,0.0,60.0,4.0,0.0
3261,42.0,0.0,120.0,8.0,0.0
3262,73.0,0.0,120.0,15.0,0.0
3263,69.0,0.0,120.0,15.0,0.0
3264,54.0,0.0,120.0,15.0,0.0
3265,54.0,0.0,240.0,13.0,0.0
3266,54.0,0.0,240.0,3.0,0.0
3267,54.0,0.0,240.0,1.0,0.0
3268,66.0,0.0,120.0,15.0,0.0
3269,69.0,0.0,60.0,11.0,0.0
3270,69.0,0.0,60.0,3.0,0.0
3271,66.0,60.0,120.0,6.0,0.0
3272,69.0,60.0,60.0,0.0,0.0
3273,73.0,0.0,120.0,5.0,0.0
3274,73.0,0.0,60.0,11.0,0.0
3275,73.0,0.0,60.0,0.0,0.0
3276,73.0,0.0,60.0,3.0,0.0
3277,73.0,0.0,120.0,4.0,0.0
3278,71.0,0.0,60.0,0.0,0.0
3279,71.0,60.0,60.0,3.0,0.0
3280,71.0,0.0,60.0,11.0,0.0
3281,85.0,0.0,60.0,5.0,0.0
3282,85.0,0.0,60.0,4.0,0.0
3283,69.0,0.0,60.0,0.0,0.0
3284,69.0,0.0,60.0,11.0,0.0
3285,69.0,60.0,60.0,3.0,0.0
3286,77.0,0.0,120.0,15.0,0.0
3287,56.0,0.0,240.0,1.0,0.0
3288,44.0,60.0,120.0,8.0,0.0
3289,68.0,0.0,120.0,6.0,0.0
3290,71.0,0.0,120.0,15.0,0.0
3291,68.0,0.0,120.0,15.0,0.0
3292,68.0,0.0,60.0,11.0,0.0
3293,56.0,0.0,240.0,3.0,0.0
3294,56.0,0.0,240.0,13.0,0.0
3295,68.0,0.0,60.0,3.0,0.0
3296,68.0,60.0,60.0,0.0,0.0
3297,56.0,0.0,120.0,15.0,0.0
3298,77.0,0.0,120.0,4.0,0.0
3299,71.0,0.0,60.0,11.0,0.0
3300,71.0,0.0,60.0,0.0,0.0
3301,77.0,0.0,120.0,5.0,0.0
3302,71.0,0.0,60.0,3.0,0.0
3303,69.0,60.0,60.0,0.0,0.0
3304,69.0,0.0,60.0,3.0,0.0
3305,69.0,0.0,60.0,11.0,0.0
3306,89.0,0.0,60.0,5.0,0.0
3307,89.0,0.0,60.0,4.0,0.0
3308,68.0,0.0,60.0,11.0,0.0
3309,68.0,0.0,60.0,0.0,0.0
3310,68.0,60.0,60.0,3.0,0.0
3311,73.0,0.0,120.0,15.0,0.0
3312,57.0,0.0,120.0,15.0,0.0
3313,57.0,0.0,240.0,1.0,0.0
3314,69.0,0.0,120.0,6.0,0.0
3315,69.0,0.0,120.0,15.0,0.0
3316,66.0,0.0,60.0,0.0,0.0
3317,78.0,0.0,120.0,15.0,0.0
3318,45.0,0.0,120.0,8.0,0.0
3319,66.0,0.0,60.0,3.0,0.0
3320,66.0,60.0,60.0,11.0,0.0
3321,57.0,0.0,240.0,3.0,0.0
3322,57.0,0.0,240.0,13.0,0.0
3323,65.0,0.0,60.0,3.0,0.0
3324,65.0,0.0,60.0,11.0,0.0
3325,78.0,60.0,120.0,5.0,0.0
3326,65.0,60.0,60.0,0.0,0.0
3327,78.0,0.0,120.0,4.0,0.0
3328,66.0,0.0,60.0,11.0,0.0
3329,66.0,0.0,60.0,3.0,0.0
3330,66.0,0.0,60.0,0.0,0.0
3331,68.0,60.0,60.0,3.0,0.0
3332,68.0,0.0,60.0,0.0,0.0
3333,90.0,0.0,60.0,5.0,0.0
3334,68.0,0.0,60.0,11.0,0.0
3335,90.0,0.0,60.0,4.0,0.0
3336,54.0,0.0,240.0,13.0,0.0
3337,54.0,0.0,240.0,1.0,0.0
3338,61.0,0.0,480.0,1.0,0.0
3339,61.0,0.0,360.0,3.0,0.0
3340,42.0,0.0,120.0,8.0,0.0
3341,69.0,0.0,60.0,0.0,0.0
3342,78.0,0.0,120.0,15.0,0.0
3343,69.0,60.0,120.0,15.0,0.0
3344,73.0,0.0,120.0,15.0,0.0
3345,69.0,0.0,60.0,3.0,0.0
3346,54.0,0.0,240.0,3.0,0.0
3347,61.0,0.0,360.0,12.0,0.0
3348,66.0,0.0,120.0,6.0,0.0
3349,54.0,0.0,120.0,15.0,0.0
3350,69.0,60.0,60.0,11.0,0.0
3351,69.0,0.0,120.0,5.0,0.0
3352,69.0,0.0,120.0,4.0,0.0
3353,68.0,0.0,60.0,0.0,0.0
3354,68.0,0.0,60.0,3.0,0.0
3355,68.0,0.0,60.0,11.0,0.0
3356,66.0,0.0,60.0,11.0,0.0
3357,66.0,0.0,60.0,0.0,0.0
3358,66.0,60.0,60.0,3.0,0.0
3359,81.0,0.0,60.0,5.0,0.0
3360,64.0,0.0,60.0,3.0,0.0
3361,64.0,0.0,60.0,11.0,0.0
3362,64.0,0.0,60.0,0.0,0.0
3363,81.0,120.0,60.0,4.0,0.0
3364,44.0,0.0,120.0,8.0,0.0
3365,56.0,0.0,240.0,13.0,0.0
3366,63.0,0.0,180.0,3.0,0.0
3367,56.0,60.0,240.0,1.0,0.0
3368,56.0,0.0,120.0,6.0,0.0
3369,56.0,0.0,120.0,15.0,0.0
3370,56.0,0.0,240.0,3.0,0.0
3371,63.0,60.0,120.0,15.0,0.0
3372,68.0,0.0,120.0,15.0,0.0
3373,63.0,60.0,180.0,11.0,0.0
3374,73.0,0.0,120.0,15.0,0.0
3375,63.0,0.0,480.0,0.0,0.0
3376,68.0,0.0,120.0,4.0,0.0
3377,68.0,0.0,120.0,5.0,0.0
3378,80.0,60.0,180.0,0.0,0.0
3379,80.0,0.0,180.0,10.0,0.0
3380,61.0,0.0,120.0,3.0,0.0
3381,61.0,0.0,120.0,12.0,0.0
3382,63.0,0.0,60.0,11.0,0.0
3383,63.0,0.0,60.0,3.0,0.0
3384,80.0,0.0,60.0,4.0,0.0
3385,80.0,0.0,60.0,5.0,0.0
3386,56.0,0.0,120.0,15.0,0.0
3387,68.0,0.0,120.0,15.0,0.0
3388,72.0,0.0,120.0,15.0,0.0
3389,63.0,0.0,240.0,11.0,0.0
3390,63.0,0.0,240.0,3.0,0.0
3391,60.0,0.0,120.0,3.0,0.0
3392,60.0,0.0,240.0,1.0,0.0
3393,63.0,0.0,120.0,15.0,0.0
3394,44.0,0.0,120.0,8.0,0.0
3395,56.0,0.0,120.0,6.0,0.0
3396,60.0,0.0,120.0,12.0,0.0
3397,81.0,60.0,60.0,10.0,0.0
3398,81.0,0.0,60.0,0.0,0.0
3399,75.0,0.0,120.0,5.0,0.0
3400,75.0,0.0,120.0,4.0,0.0
3401,60.0,0.0,120.0,3.0,0.0
3402,60.0,0.0,120.0,12.0,0.0
3403,80.0,0.0,60.0,0.0,0.0
3404,80.0,60.0,60.0,10.0,0.0
3405,87.0,60.0,60.0,5.0,0.0
3406,87.0,0.0,60.0,4.0,0.0
3407,78.0,0.0,60.0,0.0,0.0
3408,78.0,0.0,60.0,10.0,0.0
3409,64.0,0.0,240.0,3.0,0.0
3410,76.0,0.0,60.0,0.0,0.0
3411,64.0,0.0,240.0,11.0,0.0
3412,61.0,0.0,240.0,1.0,0.0
3413,61.0,60.0,240.0,3.0,0.0
3414,61.0,0.0,240.0,6.0,0.0
3415,68.0,0.0,240.0,15.0,0.0
3416,73.0,0.0,240.0,15.0,0.0
3417,61.0,0.0,240.0,7.0,0.0
3418,76.0,60.0,60.0,10.0,0.0
3419,61.0,0.0,240.0,15.0,0.0
3420,61.0,0.0,240.0,12.0,0.0
3421,64.0,0.0,240.0,15.0,0.0
3422,64.0,0.0,240.0,0.0,0.0
3423,80.0,0.0,60.0,0.0,0.0
3424,76.0,0.0,120.0,4.0,0.0
3425,80.0,60.0,60.0,10.0,0.0
3426,76.0,0.0,120.0,5.0,0.0
3427,78.0,0.0,60.0,0.0,0.0
3428,78.0,60.0,60.0,10.0,0.0
3429,88.0,0.0,60.0,5.0,0.0
3430,88.0,0.0,60.0,4.0,0.0
3431,76.0,0.0,60.0,0.0,0.0
3432,76.0,0.0,60.0,10.0,0.0
3433,63.0,0.0,240.0,3.0,0.0
3434,63.0,60.0,240.0,12.0,0.0
3435,66.0,0.0,240.0,11.0,0.0
3436,75.0,0.0,60.0,10.0,0.0
3437,63.0,0.0,240.0,6.0,0.0
3438,66.0,0.0,240.0,0.0,0.0
3439,75.0,60.0,60.0,0.0,0.0
3440,63.0,0.0,240.0,15.0,0.0
3441,72.0,0.0,240.0,15.0,0.0
3442,66.0,0.0,240.0,3.0,0.0
3443,63.0,0.0,240.0,7.0,0.0
3444,66.0,0.0,240.0,15.0,0.0
3445,63.0,0.0,240.0,1.0,0.0
3446,78.0,60.0,60.0,10.0,0.0
3447,72.0,0.0,120.0,4.0,0.0
3448,78.0,0.0,60.0,0.0,0.0
3449,72.0,0.0,120.0,5.0,0.0
3450,76.0,0.0,60.0,0.0,0.0
3451,76.0,60.0,60.0,10.0,0.0
3452,84.0,0.0,60.0,4.0,0.0
3453,75.0,0.0,60.0,0.0,0.0
3454,84.0,0.0,60.0,5.0,0.0
3455,75.0,0.0,60.0,10.0,0.0
3456,73.0,0.0,60.0,0.0,0.0
3457,73.0,60.0,60.0,10.0,0.0
3458,64.0,0.0,120.0,1.0,0.0
3459,68.0,0.0,120.0,3.0,0.0
3460,64.0,0.0,240.0,12.0,0.0
3461,64.0,0.0,240.0,3.0,0.0
3462,73.0,0.0,120.0,15.0,0.0
3463,64.0,0.0,120.0,15.0,0.0
3464,64.0,0.0,120.0,7.0,0.0
3465,68.0,0.0,120.0,15.0,0.0
3466,85.0,0.0,120.0,4.0,0.0
3467,68.0,0.0,240.0,0.0,0.0
3468,85.0,120.0,120.0,5.0,0.0
3469,68.0,0.0,120.0,11.0,0.0
3470,64.0,0.0,240.0,6.0,0.0
3471,75.0,0.0,60.0,0.0,0.0
3472,75.0,0.0,60.0,10.0,0.0
3473,68.0,0.0,120.0,3.0,0.0
3474,76.0,0.0,180.0,0.0,0.0
3475,49.0,0.0,120.0,8.0,0.0
3476,68.0,0.0,120.0,15.0,0.0
3477,73.0,0.0,120.0,15.0,0.0
3478,61.0,0.0,120.0,15.0,0.0
3479,61.0,0.0,120.0,3.0,0.0
3480,61.0,0.0,120.0,13.0,0.0
3481,68.0,0.0,120.0,5.0,0.0
3482,61.0,0.0,120.0,1.0,0.0
3483,76.0,60.0,180.0,10.0,0.0
3484,76.0,0.0,180.0,4.0,0.0
3485,68.0,0.0,120.0,11.0,0.0
3486,64.0,60.0,120.0,15.0,0.0
3487,58.0,0.0,120.0,13.0,0.0
3488,58.0,0.0,120.0,1.0,0.0
3489,66.0,0.0,120.0,15.0,0.0
3490,73.0,60.0,120.0,15.0,0.0
3491,58.0,0.0,120.0,15.0,0.0
3492,73.0,0.0,300.0,5.0,0.0
3493,58.0,0.0,120.0,3.0,0.0
3494,73.0,0.0,300.0,3.0,0.0
3495,66.0,0.0,360.0,6.0,0.0
3496,73.0,0.0,300.0,0.0,0.0
3497,46.0,0.0,120.0,8.0,0.0
3498,76.0,0.0,120.0,15.0,0.0
3499,73.0,60.0,300.0,11.0,0.0
3500,74.0,0.0,60.0,10.0,0.0
3501,74.0,0.0,60.0,0.0,0.0
3502,74.0,0.0,60.0,4.0,0.0
3503,76.0,0.0,60.0,4.0,0.0
3504,50.0,0.0,120.0,15.0,0.0
3505,76.0,0.0,60.0,0.0,0.0
3506,66.0,0.0,120.0,15.0,0.0
3507,42.0,0.0,120.0,8.0,0.0
3508,54.0,0.0,120.0,3.0,0.0
3509,76.0,60.0,60.0,10.0,0.0
3510,54.0,60.0,120.0,1.0,0.0
3511,74.0,0.0,120.0,15.0,0.0
3512,69.0,0.0,120.0,15.0,0.0
3513,54.0,0.0,120.0,13.0,0.0
3514,78.0,0.0,60.0,10.0,0.0
3515,78.0,0.0,60.0,4.0,0.0
3516,78.0,0.0,60.0,0.0,0.0
3517,59.0,0.0,180.0,1.0,0.0
3518,74.0,60.0,300.0,10.0,0.0
3519,74.0,0.0,240.0,15.0,0.0
3520,59.0,0.0,180.0,3.0,0.0
3521,74.0,0.0,300.0,0.0,0.0
3522,59.0,0.0,180.0,13.0,0.0
3523,47.0,60.0,180.0,8.0,0.0
3524,73.0,0.0,240.0,15.0,0.0
3525,59.0,0.0,180.0,15.0,0.0
3526,74.0,0.0,300.0,4.0,0.0
3527,66.0,0.0,60.0,5.0,0.0
3528,66.0,0.0,60.0,0.0,0.0
3529,66.0,60.0,60.0,11.0,0.0
3530,66.0,0.0,60.0,3.0,0.0
3531,68.0,0.0,60.0,11.0,0.0
3532,66.0,0.0,240.0,6.0,0.0
3533,68.0,0.0,60.0,3.0,0.0
3534,68.0,0.0,60.0,0.0,0.0
3535,68.0,0.0,60.0,5.0,0.0
3536,49.0,0.0,60.0,8.0,0.0
3537,61.0,0.0,60.0,15.0,0.0
3538,70.0,0.0,60.0,0.0,0.0
3539,61.0,0.0,60.0,13.0,0.0
3540,61.0,0.0,60.0,3.0,0.0
3541,70.0,60.0,60.0,11.0,0.0
3542,70.0,0.0,60.0,5.0,0.0
3543,70.0,0.0,60.0,3.0,0.0
3544,61.0,0.0,60.0,1.0,0.0
3545,71.0,0.0,480.0,0.0,0.0
3546,62.0,0.0,120.0,1.0,0.0
3547,71.0,0.0,360.0,3.0,0.0
3548,62.0,60.0,120.0,3.0,0.0
3549,62.0,0.0,120.0,15.0,0.0
3550,62.0,0.0,120.0,13.0,0.0
3551,71.0,0.0,360.0,5.0,0.0
3552,71.0,0.0,240.0,15.0,0.0
3553,66.0,0.0,240.0,15.0,0.0
3554,74.0,0.0,240.0,15.0,0.0
3555,71.0,0.0,360.0,11.0,0.0
3556,50.0,0.0,120.0,8.0,0.0
3557,73.0,0.0,60.0,0.0,0.0
3558,73.0,0.0,60.0,10.0,0.0
3559,73.0,0.0,60.0,4.0,0.0
3560,59.0,0.0,120.0,15.0,0.0
3561,74.0,0.0,60.0,4.0,0.0
3562,74.0,0.0,60.0,10.0,0.0
3563,74.0,60.0,60.0,0.0,0.0
3564,59.0,0.0,120.0,3.0,0.0
3565,59.0,0.0,120.0,1.0,0.0
3566,66.0,0.0,240.0,6.0,0.0
3567,59.0,0.0,120.0,13.0,0.0
3568,47.0,120.0,120.0,8.0,0.0
3569,76.0,0.0,60.0,4.0,0.0
3570,76.0,0.0,60.0,10.0,0.0
3571,76.0,0.0,60.0,0.0,0.0
3572,73.0,0.0,180.0,4.0,0.0
3573,66.0,0.0,120.0,13.0,0.0
3574,73.0,60.0,180.0,10.0,0.0
3575,73.0,0.0,480.0,0.0,0.0
3576,71.0,0.0,120.0,15.0,0.0
3577,66.0,0.0,120.0,3.0,0.0
3578,66.0,60.0,120.0,15.0,0.0
3579,73.0,0.0,120.0,15.0,0.0
3580,54.0,0.0,120.0,1.0,0.0
3581,54.0,0.0,120.0,15.0,0.0
3582,42.0,0.0,120.0,8.0,0.0
3583,54.0,0.0,120.0,13.0,0.0
3584,66.0,0.0,180.0,15.0,0.0
3585,71.0,0.0,120.0,11.0,0.0
3586,71.0,60.0,120.0,5.0,0.0
3587,66.0,60.0,180.0,7.0,0.0
3588,73.0,0.0,120.0,15.0,0.0
3589,54.0,0.0,120.0,3.0,0.0
3590,66.0,0.0,180.0,6.0,0.0
3591,66.0,0.0,180.0,3.0,0.0
3592,66.0,0.0,180.0,1.0,0.0
3593,71.0,0.0,120.0,3.0,0.0
3594,69.0,0.0,120.0,15.0,0.0
3595,66.0,0.0,180.0,12.0,0.0
3596,73.0,0.0,60.0,10.0,0.0
3597,73.0,0.0,60.0,4.0,0.0
3598,70.0,0.0,120.0,11.0,0.0
3599,70.0,0.0,120.0,5.0,0.0
3600,70.0,0.0,240.0,0.0,0.0
3601,70.0,0.0,240.0,15.0,0.0
3602,73.0,0.0,240.0,15.0,0.0
3603,70.0,0.0,120.0,3.0,0.0
3604,73.0,0.0,240.0,10.0,0.0
3605,73.0,0.0,120.0,4.0,0.0
3606,78.0,0.0,240.0,15.0,0.0
3607,67.0,0.0,60.0,6.0,0.0
3608,67.0,0.0,60.0,7.0,0.0
3609,67.0,0.0,60.0,1.0,0.0
3610,67.0,0.0,60.0,12.0,0.0
3611,67.0,0.0,60.0,3.0,0.0
3612,67.0,60.0,60.0,15.0,0.0
3613,66.0,0.0,60.0,15.0,0.0
3614,70.0,0.0,120.0,5.0,0.0
3615,70.0,0.0,120.0,11.0,0.0
3616,66.0,60.0,60.0,7.0,0.0
3617,70.0,60.0,120.0,3.0,0.0
3618,66.0,0.0,60.0,1.0,0.0
3619,73.0,0.0,120.0,4.0,0.0
3620,66.0,0.0,60.0,6.0,0.0
3621,66.0,0.0,60.0,3.0,0.0
3622,66.0,0.0,60.0,12.0,0.0
3623,64.0,0.0,60.0,12.0,0.0
3624,64.0,0.0,60.0,1.0,0.0
3625,64.0,0.0,60.0,3.0,0.0
3626,64.0,0.0,60.0,15.0,0.0
3627,64.0,0.0,60.0,6.0,0.0
3628,64.0,0.0,60.0,7.0,0.0
3629,78.0,0.0,120.0,15.0,0.0
3630,71.0,0.0,120.0,15.0,0.0
3631,62.0,0.0,120.0,7.0,0.0
3632,78.0,0.0,360.0,10.0,0.0
3633,71.0,0.0,240.0,5.0,0.0
3634,78.0,0.0,540.0,0.0,0.0
3635,71.0,0.0,240.0,3.0,0.0
3636,62.0,60.0,120.0,15.0,0.0
3637,62.0,0.0,60.0,1.0,0.0
3638,62.0,0.0,60.0,6.0,0.0
3639,71.0,0.0,240.0,11.0,0.0
3640,78.0,0.0,120.0,4.0,0.0
3641,62.0,60.0,60.0,12.0,0.0
3642,62.0,0.0,60.0,3.0,0.0
3643,71.0,0.0,240.0,0.0,0.0
3644,66.0,0.0,60.0,6.0,0.0
3645,66.0,0.0,60.0,1.0,0.0
3646,66.0,0.0,60.0,12.0,0.0
3647,66.0,0.0,60.0,3.0,0.0
3648,59.0,0.0,240.0,15.0,0.0
3649,64.0,0.0,60.0,12.0,0.0
3650,59.0,0.0,240.0,3.0,0.0
3651,64.0,60.0,60.0,1.0,0.0
3652,59.0,0.0,240.0,1.0,0.0
3653,64.0,0.0,60.0,3.0,0.0
3654,47.0,0.0,240.0,8.0,0.0
3655,78.0,0.0,240.0,4.0,0.0
3656,64.0,0.0,60.0,6.0,0.0
3657,78.0,0.0,240.0,15.0,0.0
3658,74.0,0.0,120.0,15.0,0.0
3659,59.0,0.0,240.0,13.0,0.0
3660,62.0,0.0,60.0,12.0,0.0
3661,62.0,60.0,60.0,1.0,0.0
3662,62.0,0.0,60.0,3.0,0.0
3663,62.0,0.0,60.0,6.0,0.0
3664,61.0,0.0,60.0,3.0,0.0
3665,61.0,60.0,60.0,1.0,0.0
3666,73.0,0.0,240.0,5.0,0.0
3667,73.0,0.0,240.0,0.0,0.0
3668,61.0,0.0,60.0,12.0,0.0
3669,73.0,0.0,240.0,3.0,0.0
3670,73.0,0.0,240.0,15.0,0.0
3671,61.0,0.0,60.0,6.0,0.0
3672,73.0,0.0,240.0,11.0,0.0
3673,64.0,0.0,60.0,3.0,0.0
3674,64.0,0.0,60.0,1.0,0.0
3675,64.0,60.0,60.0,12.0,0.0
3676,64.0,0.0,60.0,6.0,0.0
3677,58.0,0.0,120.0,3.0,0.0
3678,46.0,0.0,120.0,8.0,0.0
3679,58.0,0.0,120.0,15.0,0.0
3680,78.0,0.0,120.0,15.0,0.0
3681,62.0,0.0,60.0,1.0,0.0
3682,58.0,0.0,120.0,1.0,0.0
3683,58.0,0.0,120.0,13.0,0.0
3684,62.0,0.0,60.0,6.0,0.0
3685,62.0,60.0,60.0,12.0,0.0
3686,62.0,0.0,60.0,3.0,0.0
3687,78.0,0.0,120.0,10.0,0.0
3688,78.0,60.0,120.0,4.0,0.0
3689,61.0,0.0,60.0,6.0,0.0
3690,61.0,0.0,60.0,3.0,0.0
3691,61.0,0.0,60.0,1.0,0.0
3692,61.0,0.0,60.0,12.0,0.0
3693,59.0,0.0,180.0,6.0,0.0
3694,59.0,0.0,180.0,13.0,0.0
3695,74.0,60.0,60.0,3.0,0.0
3696,74.0,0.0,60.0,5.0,0.0
3697,59.0,0.0,180.0,12.0,0.0
3698,74.0,0.0,60.0,0.0,0.0
3699,47.0,0.0,240.0,8.0,0.0
3700,59.0,0.0,240.0,15.0,0.0
3701,78.0,0.0,240.0,15.0,0.0
3702,74.0,0.0,240.0,15.0,0.0
3703,71.0,0.0,240.0,15.0,0.0
3704,78.0,0.0,60.0,10.0,0.0
3705,74.0,0.0,60.0,11.0,0.0
3706,78.0,0.0,60.0,4.0,0.0
3707,59.0,0.0,180.0,3.0,0.0
3708,59.0,0.0,180.0,1.0,0.0
3709,76.0,0.0,60.0,10.0,0.0
3710,73.0,0.0,60.0,3.0,0.0
3711,76.0,0.0,60.0,4.0,0.0
3712,73.0,0.0,60.0,0.0,0.0
3713,73.0,0.0,60.0,11.0,0.0
3714,73.0,0.0,60.0,5.0,0.0
3715,76.0,60.0,60.0,0.0,0.0
3716,71.0,0.0,180.0,5.0,0.0
3717,71.0,0.0,180.0,0.0,0.0
3718,74.0,0.0,60.0,0.0,0.0
3719,74.0,0.0,60.0,4.0,0.0
3720,74.0,0.0,60.0,10.0,0.0
3721,71.0,0.0,180.0,11.0,0.0
3722,71.0,0.0,180.0,3.0,0.0
3723,76.0,0.0,60.0,0.0,0.0
3724,61.0,0.0,60.0,1.0,0.0
3725,61.0,0.0,60.0,12.0,0.0
3726,61.0,0.0,60.0,3.0,0.0
3727,61.0,0.0,60.0,6.0,0.0
3728,47.0,0.0,60.0,3.0,0.0
3729,76.0,0.0,60.0,4.0,0.0
3730,47.0,60.0,60.0,13.0,0.0
3731,76.0,0.0,60.0,10.0,0.0
3732,47.0,0.0,240.0,3.0,0.0
3733,47.0,0.0,120.0,15.0,0.0
3734,78.0,0.0,120.0,15.0,0.0
3735,35.0,0.0,120.0,8.0,0.0
3736,62.0,0.0,60.0,3.0,0.0
3737,78.0,0.0,60.0,4.0,0.0
3738,74.0,0.0,120.0,15.0,0.0
3739,47.0,60.0,240.0,13.0,0.0
3740,78.0,0.0,60.0,0.0,0.0
3741,62.0,0.0,60.0,6.0,0.0
3742,78.0,0.0,60.0,10.0,0.0
3743,47.0,60.0,120.0,1.0,0.0
3744,71.0,0.0,120.0,15.0,0.0
3745,62.0,60.0,60.0,1.0,0.0
3746,62.0,0.0,60.0,12.0,0.0
3747,76.0,0.0,60.0,4.0,0.0
3748,61.0,0.0,60.0,3.0,0.0
3749,73.0,0.0,60.0,5.0,0.0
3750,73.0,0.0,60.0,0.0,0.0
3751,76.0,0.0,60.0,0.0,0.0
3752,61.0,0.0,60.0,12.0,0.0
3753,61.0,0.0,60.0,6.0,0.0
3754,61.0,0.0,60.0,1.0,0.0
3755,73.0,0.0,60.0,3.0,0.0
3756,76.0,0.0,60.0,10.0,0.0
3757,73.0,0.0,60.0,11.0,0.0
3758,59.0,0.0,60.0,12.0,0.0
3759,78.0,60.0,60.0,10.0,0.0
3760,74.0,0.0,60.0,3.0,0.0
3761,59.0,0.0,60.0,1.0,0.0
3762,59.0,0.0,60.0,6.0,0.0
3763,47.0,0.0,120.0,8.0,0.0
3764,74.0,0.0,60.0,5.0,0.0
3765,78.0,0.0,60.0,4.0,0.0
3766,78.0,0.0,60.0,0.0,0.0
3767,74.0,0.0,60.0,11.0,0.0
3768,59.0,0.0,120.0,15.0,0.0
3769,74.0,0.0,120.0,15.0,0.0
3770,80.0,0.0,120.0,15.0,0.0
3771,74.0,0.0,60.0,0.0,0.0
3772,59.0,0.0,60.0,3.0,0.0
3773,80.0,0.0,60.0,4.0,0.0
3774,71.0,0.0,60.0,11.0,0.0
3775,80.0,0.0,60.0,10.0,0.0
3776,71.0,0.0,60.0,0.0,0.0
3777,71.0,0.0,60.0,3.0,0.0
3778,62.0,0.0,60.0,6.0,0.0
3779,62.0,0.0,60.0,3.0,0.0
3780,80.0,0.0,60.0,0.0,0.0
3781,62.0,0.0,60.0,12.0,0.0
3782,62.0,0.0,60.0,1.0,0.0
3783,71.0,0.0,60.0,5.0,0.0
3784,61.0,0.0,60.0,1.0,0.0
3785,61.0,0.0,60.0,3.0,0.0
3786,61.0,0.0,60.0,6.0,0.0
3787,61.0,0.0,60.0,12.0,0.0
3788,76.0,0.0,60.0,3.0,0.0
3789,76.0,60.0,60.0,0.0,0.0
3790,49.0,0.0,60.0,8.0,0.0
3791,76.0,0.0,480.0,15.0,0.0
3792,61.0,0.0,60.0,15.0,0.0
3793,81.0,0.0,480.0,15.0,0.0
3794,81.0,0.0,120.0,4.0,0.0
3795,81.0,0.0,120.0,10.0,0.0
3796,76.0,0.0,60.0,5.0,0.0
3797,81.0,0.0,120.0,0.0,0.0
3798,76.0,0.0,60.0,11.0,0.0
3799,59.0,60.0,60.0,15.0,0.0
3800,59.0,0.0,60.0,3.0,0.0
3801,59.0,0.0,60.0,6.0,0.0
3802,74.0,0.0,60.0,3.0,0.0
3803,74.0,0.0,60.0,0.0,0.0
3804,47.0,0.0,60.0,8.0,0.0
3805,59.0,0.0,60.0,12.0,0.0
3806,74.0,0.0,60.0,5.0,0.0
3807,74.0,0.0,60.0,11.0,0.0
3808,59.0,0.0,60.0,1.0,0.0
3809,76.0,0.0,120.0,10.0,0.0
3810,76.0,0.0,120.0,4.0,0.0
3811,57.0,0.0,60.0,12.0,0.0
3812,57.0,0.0,60.0,1.0,0.0
3813,76.0,0.0,120.0,0.0,0.0
3814,57.0,0.0,60.0,6.0,0.0
3815,57.0,0.0,60.0,3.0,0.0
3816,45.0,0.0,60.0,8.0,0.0
3817,73.0,0.0,60.0,3.0,0.0
3818,57.0,0.0,60.0,15.0,0.0
3819,73.0,0.0,60.0,11.0,0.0
3820,73.0,0.0,60.0,5.0,0.0
3821,73.0,60.0,60.0,0.0,0.0
3822,59.0,0.0,60.0,3.0,0.0
3823,47.0,0.0,60.0,8.0,0.0
3824,59.0,0.0,60.0,15.0,0.0
3825,59.0,0.0,60.0,6.0,0.0
3826,74.0,0.0,60.0,5.0,0.0
3827,59.0,0.0,60.0,1.0,0.0
3828,59.0,0.0,60.0,12.0,0.0
3829,74.0,0.0,60.0,11.0,0.0
3830,74.0,60.0,60.0,3.0,0.0
3831,74.0,0.0,60.0,0.0,0.0
3832,61.0,0.0,60.0,6.0,0.0
3833,81.0,0.0,360.0,4.0,0.0
3834,61.0,0.0,60.0,3.0,0.0
3835,76.0,0.0,60.0,11.0,0.0
3836,61.0,0.0,60.0,1.0,0.0
3837,76.0,0.0,60.0,3.0,0.0
3838,76.0,0.0,60.0,0.0,0.0
3839,81.0,0.0,480.0,0.0,0.0
3840,61.0,0.0,60.0,12.0,0.0
3841,81.0,0.0,360.0,10.0,0.0
3842,61.0,0.0,60.0,15.0,0.0
3843,49.0,60.0,60.0,8.0,0.0
3844,76.0,0.0,60.0,5.0,0.0
3845,59.0,0.0,60.0,15.0,0.0
3846,74.0,0.0,60.0,11.0,0.0
3847,74.0,0.0,60.0,0.0,0.0
3848,59.0,0.0,60.0,1.0,0.0
3849,74.0,0.0,60.0,5.0,0.0
3850,59.0,60.0,60.0,3.0,0.0
3851,47.0,0.0,60.0,8.0,0.0
3852,59.0,0.0,60.0,6.0,0.0
3853,74.0,0.0,60.0,3.0,0.0
3854,59.0,0.0,60.0,12.0,0.0
3855,61.0,0.0,60.0,15.0,0.0
3856,61.0,0.0,60.0,1.0,0.0
3857,73.0,0.0,60.0,3.0,0.0
3858,73.0,60.0,60.0,5.0,0.0
3859,61.0,0.0,60.0,3.0,0.0
3860,73.0,0.0,60.0,0.0,0.0
3861,49.0,0.0,60.0,8.0,0.0
3862,73.0,0.0,60.0,11.0,0.0
3863,61.0,0.0,60.0,6.0,0.0
3864,61.0,0.0,60.0,12.0,0.0
3865,74.0,0.0,60.0,5.0,0.0
3866,74.0,120.0,60.0,11.0,0.0
3867,45.0,0.0,60.0,8.0,0.0
3868,57.0,0.0,60.0,15.0,0.0
3869,57.0,0.0,60.0,3.0,0.0
3870,57.0,0.0,60.0,12.0,0.0
3871,57.0,0.0,60.0,1.0,0.0
3872,57.0,0.0,60.0,6.0,0.0
3873,74.0,0.0,60.0,0.0,0.0
3874,74.0,0.0,60.0,3.0,0.0
3875,40.0,60.0,120.0,8.0,0.0
3876,52.0,0.0,120.0,15.0,0.0
3877,81.0,0.0,240.0,15.0,0.0
3878,64.0,0.0,120.0,12.0,0.0
3879,64.0,0.0,300.0,1.0,0.0
3880,71.0,0.0,180.0,11.0,0.0
3881,64.0,0.0,120.0,3.0,0.0
3882,71.0,0.0,240.0,15.0,0.0
3883,64.0,0.0,120.0,15.0,0.0
3884,71.0,60.0,180.0,3.0,0.0
3885,64.0,0.0,120.0,6.0,0.0
3886,71.0,0.0,480.0,0.0,0.0
3887,71.0,0.0,180.0,5.0,0.0
3888,52.0,0.0,120.0,12.0,0.0
3889,81.0,0.0,120.0,10.0,0.0
3890,64.0,0.0,180.0,15.0,0.0
3891,81.0,0.0,120.0,4.0,0.0
3892,64.0,0.0,180.0,13.0,0.0
3893,64.0,0.0,180.0,3.0,0.0
3894,52.0,60.0,180.0,8.0,0.0
3895,52.0,0.0,120.0,6.0,0.0
3896,52.0,0.0,120.0,3.0,0.0
3897,71.0,0.0,60.0,11.0,0.0
3898,71.0,0.0,60.0,3.0,0.0
3899,71.0,60.0,60.0,5.0,0.0
3900,71.0,60.0,240.0,3.0,0.0
3901,71.0,0.0,240.0,11.0,0.0
3902,80.0,0.0,120.0,10.0,0.0
3903,80.0,0.0,240.0,0.0,0.0
3904,80.0,0.0,120.0,4.0,0.0
3905,71.0,0.0,240.0,15.0,0.0
3906,80.0,0.0,240.0,15.0,0.0
3907,64.0,0.0,480.0,6.0,0.0
3908,71.0,0.0,120.0,5.0,0.0
3909,66.0,0.0,60.0,13.0,0.0
3910,66.0,0.0,60.0,15.0,0.0
3911,66.0,60.0,60.0,1.0,0.0
3912,54.0,0.0,60.0,8.0,0.0
3913,66.0,0.0,60.0,3.0,0.0
3914,64.0,0.0,60.0,13.0,0.0
3915,64.0,60.0,60.0,1.0,0.0
3916,71.0,0.0,120.0,5.0,0.0
3917,52.0,0.0,60.0,8.0,0.0
3918,64.0,0.0,60.0,3.0,0.0
3919,80.0,0.0,120.0,10.0,0.0
3920,64.0,0.0,60.0,15.0,0.0
3921,80.0,0.0,120.0,4.0,0.0
3922,62.0,0.0,60.0,13.0,0.0
3923,50.0,0.0,60.0,8.0,0.0
3924,62.0,0.0,60.0,15.0,0.0
3925,62.0,0.0,60.0,3.0,0.0
3926,62.0,0.0,60.0,1.0,0.0
3927,64.0,30.0,120.0,5.0,0.0
3928,61.0,0.0,60.0,15.0,0.0
3929,81.0,0.0,120.0,0.0,0.0
3930,49.0,0.0,60.0,8.0,0.0
3931,81.0,0.0,240.0,10.0,0.0
3932,61.0,0.0,60.0,3.0,0.0
3933,61.0,30.0,60.0,1.0,0.0
3934,76.0,0.0,240.0,15.0,0.0
3935,64.0,0.0,240.0,12.0,0.0
3936,73.0,0.0,240.0,15.0,0.0
3937,81.0,0.0,240.0,4.0,0.0
3938,61.0,0.0,60.0,13.0,0.0
3939,81.0,0.0,240.0,15.0,0.0
3940,64.0,0.0,60.0,15.0,0.0
3941,64.0,0.0,60.0,3.0,0.0
3942,64.0,0.0,60.0,13.0,0.0
3943,64.0,0.0,60.0,1.0,0.0
3944,52.0,60.0,60.0,8.0,0.0
3945,62.0,0.0,60.0,3.0,0.0
3946,76.0,0.0,240.0,5.0,0.0
3947,76.0,60.0,120.0,0.0,0.0
3948,62.0,0.0,60.0,15.0,0.0
3949,76.0,60.0,240.0,11.0,0.0
3950,62.0,0.0,60.0,13.0,0.0
3951,50.0,60.0,60.0,8.0,0.0
3952,62.0,0.0,60.0,1.0,0.0
3953,76.0,0.0,240.0,3.0,0.0
3954,61.0,0.0,60.0,13.0,0.0
3955,49.0,0.0,60.0,8.0,0.0
3956,61.0,0.0,60.0,3.0,0.0
3957,61.0,0.0,60.0,15.0,0.0
3958,61.0,0.0,60.0,1.0,0.0
3959,68.0,0.0,240.0,3.0,0.0
3960,68.0,60.0,240.0,12.0,0.0
3961,47.0,0.0,60.0,8.0,0.0
3962,80.0,0.0,240.0,15.0,0.0
3963,74.0,0.0,240.0,15.0,0.0
3964,59.0,0.0,60.0,15.0,0.0
3965,71.0,0.0,240.0,15.0,0.0
3966,68.0,0.0,240.0,0.0,0.0
3967,83.0,0.0,240.0,10.0,0.0
3968,83.0,0.0,240.0,4.0,0.0
3969,59.0,60.0,60.0,1.0,0.0
3970,68.0,0.0,240.0,1.0,0.0
3971,68.0,0.0,240.0,6.0,0.0
3972,59.0,0.0,60.0,3.0,0.0
3973,59.0,0.0,60.0,13.0,0.0
3974,62.0,0.0,60.0,15.0,0.0
3975,62.0,0.0,60.0,13.0,0.0
3976,50.0,0.0,60.0,8.0,0.0
3977,62.0,0.0,60.0,3.0,0.0
3978,62.0,0.0,60.0,1.0,0.0
3979,61.0,0.0,60.0,15.0,0.0
3980,61.0,0.0,60.0,1.0,0.0
3981,61.0,0.0,60.0,3.0,0.0
3982,49.0,0.0,60.0,8.0,0.0
3983,74.0,0.0,120.0,3.0,0.0
3984,74.0,0.0,120.0,0.0,0.0
3985,74.0,0.0,120.0,5.0,0.0
3986,61.0,60.0,60.0,13.0,0.0
3987,74.0,0.0,120.0,11.0,0.0
3988,59.0,0.0,60.0,1.0,0.0
3989,59.0,0.0,60.0,13.0,0.0
3990,59.0,0.0,60.0,3.0,0.0
3991,47.0,0.0,60.0,8.0,0.0
3992,59.0,0.0,60.0,15.0,0.0
3993,69.0,60.0,240.0,12.0,0.0
3994,85.0,0.0,240.0,4.0,0.0
3995,73.0,0.0,120.0,11.0,0.0
3996,57.0,0.0,60.0,13.0,0.0
3997,57.0,0.0,60.0,15.0,0.0
3998,73.0,60.0,120.0,5.0,0.0
3999,73.0,0.0,60.0,15.0,0.0
4000,57.0,0.0,60.0,3.0,0.0
4001,66.0,0.0,60.0,15.0,0.0
4002,73.0,0.0,120.0,3.0,0.0
4003,69.0,0.0,240.0,0.0,0.0
4004,56.0,60.0,60.0,1.0,0.0
4005,85.0,0.0,240.0,10.0,0.0
4006,45.0,0.0,60.0,8.0,0.0
4007,73.0,0.0,240.0,0.0,0.0
4008,69.0,0.0,240.0,1.0,0.0
4009,69.0,0.0,240.0,6.0,0.0
4010,59.0,0.0,60.0,15.0,0.0
4011,59.0,0.0,60.0,1.0,0.0
4012,59.0,0.0,60.0,13.0,0.0
4013,74.0,0.0,60.0,15.0,0.0
4014,47.0,0.0,60.0,8.0,0.0
4015,59.0,0.0,60.0,3.0,0.0
4016,68.0,0.0,60.0,15.0,0.0
4017,61.0,60.0,180.0,3.0,0.0
4018,61.0,0.0,180.0,13.0,0.0
4019,71.0,0.0,60.0,11.0,0.0
4020,61.0,0.0,180.0,1.0,0.0
4021,69.0,0.0,120.0,15.0,0.0
4022,76.0,0.0,120.0,15.0,0.0
4023,61.0,0.0,180.0,15.0,0.0
4024,71.0,60.0,60.0,3.0,0.0
4025,49.0,0.0,180.0,8.0,0.0
4026,71.0,0.0,60.0,5.0,0.0
4027,69.0,0.0,60.0,11.0,0.0
4028,69.0,0.0,60.0,5.0,0.0
4029,69.0,0.0,60.0,3.0,0.0
4030,68.0,0.0,240.0,0.0,0.0
4031,77.0,0.0,120.0,10.0,0.0
4032,61.0,0.0,120.0,6.0,0.0
4033,68.0,0.0,240.0,3.0,0.0
4034,77.0,0.0,240.0,0.0,0.0
4035,77.0,0.0,240.0,15.0,0.0
4036,68.0,0.0,240.0,5.0,0.0
4037,77.0,0.0,120.0,4.0,0.0
4038,68.0,0.0,240.0,15.0,0.0
4039,68.0,0.0,240.0,11.0,0.0
4040,62.0,0.0,60.0,1.0,0.0
4041,62.0,0.0,60.0,13.0,0.0
4042,62.0,60.0,60.0,15.0,0.0
4043,62.0,0.0,60.0,3.0,0.0
4044,50.0,0.0,60.0,8.0,0.0
4045,61.0,0.0,60.0,13.0,0.0
4046,61.0,0.0,60.0,1.0,0.0
4047,61.0,0.0,120.0,6.0,0.0
4048,61.0,60.0,60.0,3.0,0.0
4049,77.0,0.0,120.0,10.0,0.0
4050,77.0,0.0,120.0,4.0,0.0
4051,49.0,0.0,60.0,8.0,0.0
4052,61.0,0.0,60.0,15.0,0.0
4053,59.0,0.0,60.0,13.0,0.0
4054,59.0,0.0,60.0,1.0,0.0
4055,59.0,0.0,60.0,15.0,0.0
4056,59.0,60.0,60.0,3.0,0.0
4057,47.0,0.0,60.0,8.0,0.0
4058,78.0,0.0,240.0,10.0,0.0
4059,57.0,0.0,60.0,13.0,0.0
4060,61.0,0.0,240.0,6.0,0.0
4061,57.0,60.0,60.0,3.0,0.0
4062,78.0,0.0,240.0,15.0,0.0
4063,78.0,0.0,240.0,4.0,0.0
4064,57.0,0.0,60.0,1.0,0.0
4065,78.0,0.0,240.0,0.0,0.0
4066,45.0,0.0,60.0,8.0,0.0
4067,73.0,60.0,240.0,15.0,0.0
4068,57.0,0.0,60.0,15.0,0.0
4069,61.0,0.0,240.0,12.0,0.0
4070,61.0,0.0,60.0,15.0,0.0
4071,61.0,0.0,60.0,13.0,0.0
4072,61.0,60.0,60.0,3.0,0.0
4073,61.0,0.0,60.0,1.0,0.0
4074,49.0,0.0,60.0,8.0,0.0
4075,59.0,0.0,60.0,15.0,0.0
4076,47.0,0.0,60.0,8.0,0.0
4077,73.0,0.0,240.0,5.0,0.0
4078,73.0,0.0,240.0,3.0,0.0
4079,73.0,0.0,240.0,0.0,0.0
4080,59.0,0.0,60.0,3.0,0.0
4081,59.0,0.0,60.0,1.0,0.0
4082,59.0,60.0,60.0,13.0,0.0
4083,73.0,0.0,240.0,11.0,0.0
4084,45.0,0.0,60.0,8.0,0.0
4085,57.0,0.0,60.0,13.0,0.0
4086,57.0,0.0,60.0,1.0,0.0
4087,57.0,0.0,60.0,3.0,0.0
4088,57.0,0.0,60.0,15.0,0.0
4089,65.0,0.0,240.0,1.0,0.0
4090,65.0,0.0,240.0,6.0,0.0
4091,56.0,0.0,60.0,1.0,0.0
4092,44.0,0.0,60.0,8.0,0.0
4093,56.0,60.0,60.0,3.0,0.0
4094,80.0,0.0,240.0,0.0,0.0
4095,56.0,0.0,60.0,13.0,0.0
4096,80.0,0.0,240.0,4.0,0.0
4097,80.0,60.0,240.0,10.0,0.0
4098,65.0,0.0,240.0,15.0,0.0
4099,71.0,0.0,240.0,15.0,0.0
4100,56.0,0.0,60.0,15.0,0.0
4101,65.0,0.0,240.0,12.0,0.0
4102,65.0,0.0,240.0,3.0,0.0
4103,59.0,0.0,60.0,1.0,0.0
4104,59.0,0.0,60.0,3.0,0.0
4105,47.0,60.0,60.0,8.0,0.0
4106,59.0,0.0,60.0,13.0,0.0
4107,59.0,0.0,60.0,15.0,0.0
4108,57.0,0.0,60.0,15.0,0.0
4109,57.0,0.0,60.0,1.0,0.0
4110,57.0,0.0,60.0,13.0,0.0
4111,57.0,60.0,60.0,3.0,0.0
4112,71.0,0.0,120.0,11.0,0.0
4113,71.0,0.0,120.0,3.0,0.0
4114,45.0,0.0,60.0,8.0,0.0
4115,71.0,0.0,120.0,5.0,0.0
4116,71.0,0.0,120.0,0.0,0.0
4117,56.0,0.0,60.0,1.0,0.0
4118,44.0,0.0,60.0,8.0,0.0
4119,56.0,0.0,60.0,15.0,0.0
4120,56.0,0.0,60.0,3.0,0.0
4121,56.0,0.0,60.0,13.0,0.0
4122,81.0,0.0,240.0,10.0,0.0
4123,66.0,0.0,240.0,12.0,0.0
4124,81.0,0.0,240.0,0.0,0.0
4125,69.0,0.0,120.0,5.0,0.0
4126,66.0,0.0,240.0,6.0,0.0
4127,54.0,60.0,60.0,1.0,0.0
4128,66.0,0.0,240.0,1.0,0.0
4129,81.0,60.0,240.0,4.0,0.0
4130,73.0,0.0,120.0,15.0,0.0
4131,69.0,0.0,240.0,15.0,0.0
4132,66.0,0.0,240.0,15.0,0.0
4133,54.0,0.0,60.0,15.0,0.0
4134,69.0,0.0,240.0,0.0,0.0
4135,54.0,0.0,60.0,13.0,0.0
4136,69.0,0.0,120.0,11.0,0.0
4137,42.0,0.0,60.0,8.0,0.0
4138,69.0,0.0,120.0,3.0,0.0
4139,54.0,0.0,60.0,3.0,0.0
4140,55.0,0.0,60.0,13.0,0.0
4141,43.0,0.0,60.0,8.0,0.0
4142,55.0,60.0,60.0,3.0,0.0
4143,55.0,0.0,60.0,15.0,0.0
4144,55.0,0.0,60.0,1.0,0.0
4145,67.0,60.0,60.0,11.0,0.0
4146,57.0,0.0,180.0,1.0,0.0
4147,57.0,0.0,180.0,15.0,0.0
4148,67.0,0.0,60.0,3.0,0.0
4149,45.0,0.0,180.0,8.0,0.0
4150,73.0,0.0,120.0,15.0,0.0
4151,57.0,0.0,180.0,3.0,0.0
4152,67.0,0.0,60.0,5.0,0.0
4153,57.0,60.0,180.0,13.0,0.0
4154,66.0,0.0,60.0,3.0,0.0
4155,66.0,0.0,60.0,11.0,0.0
4156,66.0,0.0,60.0,5.0,0.0
4157,64.0,0.0,240.0,5.0,0.0
4158,64.0,0.0,240.0,15.0,0.0
4159,64.0,0.0,240.0,3.0,0.0
4160,73.0,0.0,120.0,4.0,0.0
4161,73.0,0.0,240.0,15.0,0.0
4162,57.0,0.0,120.0,6.0,0.0
4163,69.0,0.0,240.0,15.0,0.0
4164,73.0,60.0,240.0,0.0,0.0
4165,64.0,0.0,240.0,0.0,0.0
4166,64.0,0.0,240.0,11.0,0.0
4167,73.0,0.0,120.0,10.0,0.0
4168,59.0,60.0,60.0,3.0,0.0
4169,59.0,0.0,60.0,1.0,0.0
4170,59.0,0.0,60.0,13.0,0.0
4171,59.0,0.0,60.0,15.0,0.0
4172,47.0,0.0,60.0,8.0,0.0
4173,57.0,0.0,60.0,1.0,0.0
4174,57.0,0.0,60.0,3.0,0.0
4175,73.0,0.0,120.0,10.0,0.0
4176,57.0,0.0,60.0,13.0,0.0
4177,57.0,60.0,60.0,15.0,0.0
4178,57.0,0.0,120.0,6.0,0.0
4179,73.0,0.0,120.0,4.0,0.0
4180,45.0,0.0,60.0,8.0,0.0
4181,43.0,0.0,60.0,8.0,0.0
4182,55.0,0.0,60.0,1.0,0.0
4183,55.0,0.0,60.0,13.0,0.0
4184,56.0,0.0,60.0,15.0,0.0
4185,55.0,0.0,60.0,3.0,0.0
4186,69.0,0.0,240.0,15.0,0.0
4187,74.0,0.0,240.0,15.0,0.0
4188,74.0,0.0,240.0,10.0,0.0
4189,69.0,60.0,360.0,0.0,0.0
4190,74.0,0.0,240.0,0.0,0.0
4191,54.0,0.0,60.0,15.0,0.0
4192,57.0,0.0,240.0,6.0,0.0
4193,54.0,0.0,60.0,13.0,0.0
4194,74.0,0.0,240.0,4.0,0.0
4195,54.0,0.0,60.0,3.0,0.0
4196,54.0,60.0,60.0,1.0,0.0
4197,57.0,0.0,240.0,12.0,0.0
4198,42.0,0.0,60.0,8.0,0.0
4199,45.0,0.0,60.0,8.0,0.0
4200,57.0,0.0,60.0,13.0,0.0
4201,57.0,0.0,60.0,1.0,0.0
4202,57.0,0.0,60.0,3.0,0.0
4203,57.0,60.0,60.0,15.0,0.0
4204,69.0,0.0,240.0,11.0,0.0
4205,43.0,0.0,60.0,8.0,0.0
4206,69.0,0.0,240.0,5.0,0.0
4207,55.0,0.0,60.0,13.0,0.0
4208,69.0,0.0,240.0,3.0,0.0
4209,55.0,0.0,60.0,3.0,0.0
4210,56.0,0.0,60.0,1.0,0.0
4211,56.0,60.0,60.0,15.0,0.0
4212,54.0,60.0,60.0,15.0,0.0
4213,54.0,0.0,60.0,1.0,0.0
4214,54.0,0.0,60.0,3.0,0.0
4215,54.0,0.0,60.0,13.0,0.0
4216,42.0,0.0,60.0,8.0,0.0
4217,52.0,0.0,60.0,1.0,0.0
4218,61.0,0.0,240.0,6.0,0.0
4219,61.0,0.0,240.0,12.0,0.0
4220,40.0,60.0,60.0,8.0,0.0
4221,73.0,0.0,240.0,15.0,0.0
4222,67.0,0.0,240.0,15.0,0.0
4223,76.0,0.0,240.0,4.0,0.0
4224,61.0,0.0,240.0,1.0,0.0
4225,61.0,0.0,240.0,3.0,0.0
4226,52.0,0.0,60.0,15.0,0.0
4227,52.0,0.0,60.0,3.0,0.0
4228,76.0,0.0,240.0,10.0,0.0
4229,52.0,0.0,60.0,13.0,0.0
4230,76.0,0.0,240.0,0.0,0.0
4231,56.0,0.0,60.0,15.0,0.0
4232,55.0,0.0,60.0,3.0,0.0
4233,56.0,0.0,60.0,1.0,0.0
4234,55.0,0.0,60.0,13.0,0.0
4235,43.0,0.0,60.0,8.0,0.0
4236,54.0,0.0,60.0,1.0,0.0
4237,54.0,0.0,60.0,3.0,0.0
4238,42.0,0.0,60.0,8.0,0.0
4239,54.0,60.0,60.0,13.0,0.0
4240,67.0,0.0,120.0,0.0,0.0
4241,54.0,0.0,60.0,15.0,0.0
4242,68.0,0.0,120.0,11.0,0.0
4243,68.0,0.0,120.0,5.0,0.0
4244,68.0,0.0,120.0,3.0,0.0
4245,52.0,0.0,60.0,1.0,0.0
4246,52.0,0.0,60.0,13.0,0.0
4247,52.0,120.0,60.0,15.0,0.0
4248,40.0,0.0,60.0,8.0,0.0
4249,52.0,0.0,60.0,3.0,0.0
4250,69.0,0.0,240.0,15.0,0.0
4251,78.0,120.0,120.0,0.0,0.0
4252,78.0,0.0,120.0,10.0,0.0
4253,66.0,0.0,240.0,5.0,0.0
4254,62.0,0.0,240.0,3.0,0.0
4255,66.0,0.0,120.0,0.0,0.0
4256,50.0,0.0,240.0,13.0,0.0
4257,62.0,0.0,120.0,1.0,0.0
4258,78.0,0.0,240.0,4.0,0.0
4259,62.0,0.0,240.0,15.0,0.0
4260,50.0,0.0,240.0,15.0,0.0
4261,62.0,0.0,240.0,12.0,0.0
4262,38.0,0.0,240.0,8.0,0.0
4263,62.0,0.0,240.0,6.0,0.0
4264,66.0,0.0,240.0,11.0,0.0
4265,66.0,0.0,240.0,3.0,0.0
4266,66.0,0.0,240.0,15.0,0.0
4267,50.0,0.0,240.0,3.0,0.0
4268,81.0,120.0,120.0,0.0,0.0
4269,78.0,0.0,120.0,2.0,0.0
4270,74.0,0.0,120.0,0.0,0.0
4271,78.0,0.0,120.0,10.0,0.0
4272,54.0,0.0,120.0,14.0,0.0
4273,62.0,0.0,120.0,1.0,0.0
4274,69.0,0.0,120.0,1.0,0.0
4275,66.0,0.0,120.0,2.0,0.0
4276,78.0,0.0,120.0,10.0,0.0
4277,81.0,0.0,120.0,0.0,0.0
4278,78.0,120.0,120.0,2.0,0.0
4279,69.0,0.0,120.0,1.0,0.0
4280,62.0,0.0,120.0,1.0,0.0
4281,54.0,0.0,120.0,14.0,0.0
4282,74.0,0.0,120.0,0.0,0.0
4283,66.0,0.0,120.0,2.0,0.0
4284,54.0,0.0,120.0,14.0,0.0
4285,66.0,75.0,120.0,2.0,0.0
4286,74.0,0.0,120.0,0.0,0.0
4287,81.0,0.0,120.0,0.0,0.0
4288,78.0,0.0,120.0,2.0,0.0
4289,78.0,0.0,120.0,10.0,0.0
4290,69.0,0.0,120.0,1.0,0.0
4291,62.0,0.0,120.0,1.0,0.0
4292,81.0,0.0,240.0,0.0,0.0
4293,69.0,0.0,240.0,1.0,0.0
4294,62.0,0.0,240.0,1.0,0.0
4295,66.0,0.0,240.0,2.0,0.0
4296,78.0,0.0,240.0,2.0,0.0
4297,81.0,0.0,180.0,10.0,0.0
4298,74.0,0.0,240.0,0.0,0.0
4299,54.0,0.0,240.0,14.0,0.0
4300,74.0,0.0,60.0,6.0,0.0
4301,76.0,0.0,15.0,4.0,0.0
4302,76.0,15.0,15.0,5.0,0.0
4303,50.0,0.0,60.0,8.0,0.0
4304,74.0,0.0,15.0,5.0,0.0
4305,74.0,15.0,15.0,4.0,0.0
4306,73.0,15.0,15.0,5.0,0.0
4307,73.0,0.0,15.0,4.0,0.0
4308,74.0,0.0,15.0,4.0,0.0
4309,74.0,60.0,15.0,5.0,0.0
4310,78.0,0.0,60.0,6.0,0.0
4311,66.0,0.0,120.0,12.0,0.0
4312,62.0,30.0,120.0,3.0,0.0
4313,54.0,0.0,60.0,8.0,0.0
4314,78.0,0.0,60.0,5.0,0.0
4315,78.0,30.0,60.0,4.0,0.0
4316,69.0,0.0,120.0,3.0,0.0
4317,66.0,0.0,120.0,3.0,0.0
4318,69.0,0.0,120.0,11.0,0.0
4319,62.0,0.0,120.0,13.0,0.0
4320,74.0,0.0,30.0,6.0,0.0
4321,74.0,30.0,30.0,4.0,0.0
4322,74.0,0.0,30.0,5.0,0.0
4323,80.0,0.0,60.0,10.0,0.0
4324,50.0,0.0,30.0,8.0,0.0
4325,66.0,0.0,120.0,3.0,0.0
4326,69.0,0.0,30.0,6.0,0.0
4327,78.0,0.0,240.0,10.0,0.0
4328,69.0,0.0,30.0,5.0,0.0
4329,69.0,60.0,30.0,4.0,0.0
4330,45.0,0.0,30.0,8.0,0.0
4331,69.0,30.0,120.0,11.0,0.0
4332,69.0,0.0,120.0,3.0,0.0
4333,66.0,0.0,120.0,12.0,0.0
4334,62.0,0.0,120.0,3.0,0.0
4335,62.0,0.0,120.0,13.0,0.0
4336,42.0,0.0,30.0,8.0,0.0
4337,66.0,0.0,30.0,6.0,0.0
4338,66.0,30.0,30.0,5.0,0.0
4339,66.0,0.0,30.0,4.0,0.0
4340,69.0,0.0,120.0,3.0,0.0
4341,62.0,60.0,30.0,4.0,0.0
4342,38.0,0.0,30.0,8.0,0.0
4343,62.0,0.0,30.0,6.0,0.0
4344,62.0,0.0,120.0,3.0,0.0
4345,66.0,0.0,120.0,12.0,0.0
4346,62.0,0.0,120.0,13.0,0.0
4347,62.0,0.0,30.0,5.0,0.0
4348,69.0,180.0,120.0,11.0,0.0
4349,66.0,0.0,120.0,3.0,0.0
4350,69.0,30.0,30.0,5.0,0.0
4351,69.0,0.0,30.0,4.0,0.0
4352,45.0,0.0,30.0,8.0,0.0
4353,69.0,0.0,30.0,6.0,0.0
4354,69.0,0.0,180.0,12.0,0.0
4355,61.0,0.0,240.0,4.0,0.0
4356,73.0,0.0,180.0,3.0,0.0
4357,73.0,0.0,240.0,15.0,0.0
4358,69.0,0.0,240.0,15.0,0.0
4359,66.0,0.0,240.0,15.0,0.0
4360,49.0,0.0,240.0,15.0,0.0
4361,61.0,60.0,180.0,3.0,0.0
4362,61.0,0.0,180.0,13.0,0.0
4363,73.0,0.0,180.0,11.0,0.0
4364,61.0,0.0,240.0,6.0,0.0
4365,61.0,120.0,240.0,5.0,0.0
4366,37.0,0.0,240.0,8.0,0.0
4367,69.0,0.0,180.0,3.0,0.0
4368,78.0,0.0,120.0,10.0,0.0
4369,49.0,0.0,120.0,14.0,0.0
4370,81.0,0.0,120.0,0.0,0.0
4371,78.0,0.0,120.0,0.0,0.0
4372,61.0,0.0,120.0,2.0,0.0
4373,73.0,0.0,120.0,2.0,0.0
4374,66.0,0.0,120.0,1.0,0.0
4375,69.0,0.0,120.0,1.0,0.0
4376,68.0,0.0,60.0,3.0,0.0
4377,68.0,0.0,60.0,12.0,0.0
4378,71.0,0.0,60.0,11.0,0.0
4379,61.0,0.0,60.0,3.0,0.0
4380,61.0,0.0,60.0,13.0,0.0
4381,71.0,0.0,60.0,3.0,0.0
4382,66.0,0.0,240.0,12.0,0.0
4383,66.0,0.0,240.0,3.0,0.0
4384,78.0,0.0,120.0,0.0,0.0
4385,61.0,0.0,240.0,13.0,0.0
4386,69.0,75.0,240.0,3.0,0.0
4387,61.0,0.0,240.0,3.0,0.0
4388,81.0,0.0,120.0,0.0,0.0
4389,49.0,0.0,120.0,14.0,0.0
4390,69.0,0.0,120.0,1.0,0.0
4391,66.0,0.0,120.0,1.0,0.0
4392,69.0,0.0,240.0,11.0,0.0
4393,78.0,0.0,120.0,10.0,0.0
4394,73.0,120.0,120.0,2.0,0.0
4395,61.0,0.0,120.0,2.0,0.0
4396,49.0,0.0,120.0,14.0,0.0
4397,81.0,0.0,120.0,0.0,0.0
4398,61.0,0.0,120.0,2.0,0.0
4399,73.0,0.0,120.0,2.0,0.0
4400,78.0,0.0,120.0,10.0,0.0
4401,78.0,0.0,120.0,0.0,0.0
4402,69.0,0.0,120.0,1.0,0.0
4403,66.0,0.0,120.0,1.0,0.0
4404,66.0,0.0,240.0,1.0,0.0
4405,49.0,0.0,240.0,14.0,0.0
4406,78.0,0.0,240.0,0.0,0.0
4407,81.0,0.0,180.0,10.0,0.0
4408,69.0,0.0,240.0,1.0,0.0
4409,73.0,0.0,240.0,2.0,0.0
4410,61.0,0.0,240.0,2.0,0.0
4411,81.0,0.0,240.0,0.0,0.0
4412,80.0,15.0,15.0,5.0,0.0
4413,80.0,0.0,15.0,4.0,0.0
4414,54.0,0.0,60.0,8.0,0.0
4415,78.0,0.0,60.0,6.0,0.0
4416,78.0,0.0,15.0,5.0,0.0
4417,78.0,15.0,15.0,4.0,0.0
4418,77.0,15.0,15.0,5.0,0.0
4419,77.0,0.0,15.0,4.0,0.0
4420,78.0,0.0,15.0,5.0,0.0
4421,78.0,60.0,15.0,4.0,0.0
4422,61.0,0.0,120.0,13.0,0.0
4423,69.0,0.0,120.0,3.0,0.0
4424,81.0,0.0,60.0,6.0,0.0
4425,66.0,30.0,120.0,12.0,0.0
4426,61.0,0.0,120.0,3.0,0.0
4427,69.0,0.0,120.0,11.0,0.0
4428,57.0,30.0,60.0,8.0,0.0
4429,81.0,0.0,60.0,4.0,0.0
4430,66.0,0.0,120.0,3.0,0.0
4431,81.0,0.0,60.0,5.0,0.0
4432,78.0,0.0,30.0,6.0,0.0
4433,80.0,0.0,60.0,10.0,0.0
4434,54.0,0.0,30.0,8.0,0.0
4435,78.0,30.0,30.0,4.0,0.0
4436,78.0,0.0,30.0,5.0,0.0
4437,66.0,0.0,120.0,12.0,0.0
4438,73.0,0.0,30.0,6.0,0.0
4439,69.0,0.0,120.0,11.0,0.0
4440,73.0,0.0,30.0,5.0,0.0
4441,78.0,0.0,240.0,10.0,0.0
4442,66.0,0.0,120.0,3.0,0.0
4443,61.0,30.0,120.0,3.0,0.0
4444,61.0,0.0,120.0,13.0,0.0
4445,69.0,0.0,120.0,3.0,0.0
4446,73.0,60.0,30.0,4.0,0.0
4447,49.0,0.0,30.0,8.0,0.0
4448,45.0,0.0,30.0,8.0,0.0
4449,69.0,0.0,30.0,6.0,0.0
4450,69.0,30.0,30.0,4.0,0.0
4451,69.0,0.0,30.0,5.0,0.0
4452,66.0,0.0,30.0,6.0,0.0
4453,61.0,0.0,120.0,3.0,0.0
4454,69.0,0.0,120.0,11.0,0.0
4455,61.0,120.0,120.0,13.0,0.0
4456,69.0,0.0,120.0,3.0,0.0
4457,42.0,0.0,30.0,8.0,0.0
4458,66.0,0.0,120.0,12.0,0.0
4459,66.0,0.0,120.0,3.0,0.0
4460,66.0,0.0,30.0,4.0,0.0
4461,66.0,60.0,30.0,5.0,0.0
4462,45.0,0.0,30.0,8.0,0.0
4463,69.0,0.0,30.0,5.0,0.0
4464,69.0,30.0,30.0,4.0,0.0
4465,69.0,0.0,30.0,6.0,0.0
4466,78.0,0.0,240.0,2.0,0.0
4467,69.0,0.0,480.0,15.0,0.0
4468,66.0,0.0,240.0,2.0,0.0
4469,60.0,0.0,120.0,5.0,0.0
4470,81.0,0.0,480.0,15.0,0.0
4471,48.0,0.0,120.0,15.0,0.0
4472,69.0,0.0,180.0,11.0,0.0
4473,81.0,0.0,720.0,0.0,0.0
4474,75.0,0.0,960.0,0.0,0.0
4475,66.0,0.0,720.0,1.0,0.0
4476,60.0,0.0,960.0,1.0,0.0
4477,60.0,0.0,120.0,6.0,0.0
4478,66.0,0.0,180.0,12.0,0.0
4479,36.0,0.0,120.0,8.0,0.0
4480,66.0,0.0,180.0,3.0,0.0
4481,60.0,0.0,180.0,13.0,0.0
4482,75.0,0.0,480.0,15.0,0.0
4483,60.0,60.0,120.0,4.0,0.0
4484,54.0,0.0,240.0,14.0,0.0
4485,69.0,60.0,180.0,3.0,0.0
4486,60.0,0.0,180.0,3.0,0.0
4487,75.0,0.0,120.0,6.0,0.0
4488,60.0,0.0,120.0,15.0,0.0
4489,66.0,0.0,120.0,5.0,0.0
4490,81.0,0.0,120.0,4.0,0.0
4491,48.0,120.0,120.0,8.0,0.0
4492,60.0,0.0,60.0,3.0,0.0
4493,60.0,0.0,60.0,13.0,0.0
4494,68.0,0.0,60.0,11.0,0.0
4495,68.0,0.0,60.0,3.0,0.0
4496,64.0,0.0,60.0,3.0,0.0
4497,64.0,0.0,60.0,12.0,0.0
4498,81.0,0.0,120.0,4.0,0.0
4499,63.0,0.0,240.0,12.0,0.0
4500,60.0,60.0,120.0,15.0,0.0
4501,81.0,0.0,480.0,10.0,0.0
4502,66.0,0.0,120.0,5.0,0.0
4503,48.0,0.0,120.0,8.0,0.0
4504,60.0,0.0,240.0,3.0,0.0
4505,60.0,0.0,240.0,13.0,0.0
4506,54.0,60.0,180.0,14.0,0.0
4507,78.0,0.0,180.0,2.0,0.0
4508,66.0,0.0,240.0,3.0,0.0
4509,66.0,0.0,240.0,11.0,0.0
4510,75.0,0.0,120.0,6.0,0.0
4511,66.0,0.0,180.0,2.0,0.0
4512,63.0,0.0,240.0,3.0,0.0
4513,75.0,0.0,120.0,6.0,0.0
4514,60.0,0.0,120.0,15.0,0.0
4515,81.0,0.0,120.0,4.0,0.0
4516,48.0,0.0,120.0,8.0,0.0
4517,66.0,0.0,120.0,5.0,0.0
4518,66.0,0.0,60.0,2.0,0.0
4519,54.0,120.0,60.0,14.0,0.0
4520,78.0,0.0,60.0,2.0,0.0
4521,60.0,120.0,120.0,15.0,0.0
4522,81.0,0.0,240.0,15.0,0.0
4523,75.0,0.0,240.0,15.0,0.0
4524,48.0,0.0,120.0,8.0,0.0
4525,54.0,0.0,240.0,14.0,0.0
4526,75.0,0.0,240.0,11.0,0.0
4527,60.0,0.0,240.0,3.0,0.0
4528,60.0,0.0,240.0,13.0,0.0
4529,66.0,0.0,120.0,5.0,0.0
4530,66.0,0.0,240.0,3.0,0.0
4531,66.0,0.0,240.0,12.0,0.0
4532,81.0,0.0,120.0,4.0,0.0
4533,75.0,0.0,120.0,6.0,0.0
4534,78.0,120.0,240.0,2.0,0.0
4535,66.0,0.0,240.0,2.0,0.0
4536,75.0,0.0,240.0,3.0,0.0
4537,75.0,0.0,120.0,6.0,0.0
4538,66.0,0.0,120.0,5.0,0.0
4539,81.0,0.0,120.0,4.0,0.0
4540,48.0,0.0,120.0,8.0,0.0
4541,60.0,0.0,120.0,15.0,0.0
4542,80.0,0.0,120.0,4.0,0.0
4543,68.0,0.0,120.0,5.0,0.0
4544,80.0,0.0,120.0,10.0,0.0
4545,60.0,0.0,120.0,13.0,0.0
4546,75.0,0.0,120.0,3.0,0.0
4547,75.0,0.0,120.0,6.0,0.0
4548,80.0,0.0,120.0,0.0,0.0
4549,75.0,0.0,120.0,15.0,0.0
4550,60.0,0.0,120.0,3.0,0.0
4551,60.0,0.0,120.0,15.0,0.0
4552,80.0,120.0,120.0,15.0,0.0
4553,68.0,0.0,120.0,1.0,0.0
4554,48.0,0.0,120.0,8.0,0.0
4555,75.0,0.0,120.0,11.0,0.0
4556,68.0,0.0,120.0,3.0,0.0
4557,68.0,0.0,120.0,12.0,0.0
4558,75.0,0.0,120.0,3.0,0.0
4559,75.0,0.0,120.0,15.0,0.0
4560,69.0,0.0,120.0,12.0,0.0
4561,69.0,0.0,120.0,3.0,0.0
4562,48.0,0.0,120.0,8.0,0.0
4563,60.0,0.0,120.0,15.0,0.0
4564,78.0,0.0,120.0,15.0,0.0
4565,69.0,0.0,120.0,1.0,0.0
4566,78.0,0.0,120.0,0.0,0.0
4567,66.0,0.0,120.0,2.0,0.0
4568,75.0,120.0,120.0,11.0,0.0
4569,54.0,0.0,120.0,14.0,0.0
4570,69.0,0.0,120.0,5.0,0.0
4571,75.0,0.0,120.0,6.0,0.0
4572,78.0,0.0,120.0,2.0,0.0
4573,60.0,0.0,120.0,13.0,0.0
4574,60.0,0.0,120.0,3.0,0.0
4575,78.0,0.0,120.0,10.0,0.0
4576,78.0,0.0,120.0,4.0,0.0
4577,69.0,0.0,120.0,15.0,0.0
4578,78.0,0.0,120.0,15.0,0.0
4579,73.0,120.0,120.0,11.0,0.0
4580,69.0,0.0,120.0,5.0,0.0
4581,61.0,0.0,120.0,3.0,0.0
4582,73.0,0.0,120.0,6.0,0.0
4583,78.0,0.0,120.0,10.0,0.0
4584,61.0,0.0,120.0,13.0,0.0
4585,61.0,0.0,120.0,15.0,0.0
4586,69.0,0.0,120.0,12.0,0.0
4587,61.0,0.0,120.0,2.0,0.0
4588,73.0,0.0,120.0,2.0,0.0
4589,78.0,0.0,120.0,0.0,0.0
4590,73.0,0.0,120.0,15.0,0.0
4591,73.0,0.0,240.0,0.0,0.0
4592,49.0,0.0,120.0,14.0,0.0
4593,73.0,0.0,120.0,3.0,0.0
4594,61.0,0.0,240.0,1.0,0.0
4595,69.0,0.0,120.0,1.0,0.0
4596,78.0,0.0,120.0,4.0,0.0
4597,49.0,0.0,120.0,8.0,0.0
4598,69.0,0.0,120.0,3.0,0.0
4599,68.0,0.0,120.0,1.0,0.0
4600,73.0,0.0,120.0,3.0,0.0
4601,73.0,0.0,120.0,15.0,0.0
4602,68.0,0.0,120.0,15.0,0.0
4603,77.0,0.0,120.0,15.0,0.0
4604,49.0,0.0,120.0,15.0,0.0
4605,77.0,0.0,120.0,0.0,0.0
4606,77.0,0.0,120.0,10.0,0.0
4607,61.0,0.0,120.0,3.0,0.0
4608,49.0,0.0,120.0,14.0,0.0
4609,73.0,0.0,120.0,2.0,0.0
4610,61.0,0.0,120.0,2.0,0.0
4611,68.0,0.0,120.0,5.0,0.0
4612,73.0,0.0,120.0,11.0,0.0
4613,61.0,0.0,120.0,6.0,0.0
4614,68.0,240.0,120.0,12.0,0.0
4615,37.0,0.0,120.0,8.0,0.0
4616,68.0,0.0,120.0,3.0,0.0
4617,61.0,0.0,120.0,13.0,0.0
4618,77.0,0.0,120.0,4.0,0.0
4619,73.0,0.0,120.0,10.0,0.0
4620,68.0,0.0,120.0,5.0,0.0
4621,65.0,0.0,120.0,3.0,0.0
4622,37.0,0.0,120.0,8.0,0.0
4623,61.0,0.0,120.0,13.0,0.0
4624,68.0,0.0,120.0,3.0,0.0
4625,61.0,240.0,120.0,3.0,0.0
4626,73.0,0.0,120.0,4.0,0.0
4627,68.0,0.0,120.0,15.0,0.0
4628,65.0,0.0,120.0,15.0,0.0
4629,65.0,0.0,120.0,6.0,0.0
4630,68.0,0.0,120.0,11.0,0.0
4631,65.0,0.0,120.0,12.0,0.0
4632,49.0,0.0,120.0,15.0,0.0
4633,69.0,0.0,240.0,11.0,0.0
4634,66.0,0.0,240.0,6.0,0.0
4635,66.0,0.0,240.0,15.0,0.0
4636,66.0,0.0,240.0,3.0,0.0
4637,54.0,240.0,240.0,13.0,0.0
4638,69.0,0.0,240.0,5.0,0.0
4639,54.0,0.0,240.0,3.0,0.0
4640,66.0,0.0,240.0,12.0,0.0
4641,73.0,0.0,240.0,10.0,0.0
4642,73.0,0.0,240.0,4.0,0.0
4643,54.0,0.0,240.0,15.0,0.0
4644,69.0,0.0,240.0,15.0,0.0
4645,73.0,0.0,240.0,15.0,0.0
4646,69.0,0.0,240.0,3.0,0.0
4647,42.0,0.0,240.0,8.0,0.0
4648,68.0,0.0,240.0,12.0,0.0
4649,41.0,0.0,240.0,8.0,0.0
4650,68.0,0.0,240.0,3.0,0.0
4651,53.0,0.0,240.0,3.0,0.0
4652,73.0,0.0,240.0,10.0,0.0
4653,53.0,0.0,240.0,13.0,0.0
4654,73.0,0.0,240.0,4.0,0.0
4655,71.0,0.0,240.0,3.0,0.0
4656,71.0,0.0,240.0,11.0,0.0
4657,68.0,180.0,240.0,15.0,0.0
4658,68.0,0.0,240.0,6.0,0.0
4659,71.0,0.0,240.0,15.0,0.0
4660,71.0,0.0,240.0,5.0,0.0
4661,53.0,0.0,240.0,15.0,0.0
4662,73.0,0.0,240.0,15.0,0.0
4663,66.0,0.0,240.0,6.0,0.0
4664,54.0,0.0,180.0,13.0,0.0
4665,69.0,0.0,180.0,11.0,0.0
4666,73.0,0.0,180.0,10.0,0.0
4667,42.0,0.0,240.0,8.0,0.0
4668,66.0,60.0,180.0,12.0,0.0
4669,73.0,240.0,240.0,15.0,0.0
4670,69.0,0.0,240.0,15.0,0.0
4671,73.0,0.0,240.0,4.0,0.0
4672,66.0,0.0,240.0,15.0,0.0
4673,54.0,0.0,240.0,15.0,0.0
4674,66.0,0.0,180.0,3.0,0.0
4675,54.0,0.0,180.0,3.0,0.0
4676,69.0,0.0,240.0,5.0,0.0
4677,69.0,0.0,180.0,3.0,0.0
4678,73.0,0.0,60.0,10.0,0.0
4679,54.0,0.0,60.0,13.0,0.0
4680,66.0,0.0,60.0,12.0,0.0
4681,69.0,0.0,60.0,11.0,0.0
4682,69.0,0.0,60.0,3.0,0.0
4683,66.0,0.0,60.0,3.0,0.0
4684,54.0,0.0,60.0,3.0,0.0
4685,61.0,0.0,240.0,3.0,0.0
4686,40.0,0.0,240.0,8.0,0.0
4687,73.0,0.0,240.0,10.0,0.0
4688,52.0,0.0,240.0,13.0,0.0
4689,68.0,0.0,240.0,11.0,0.0
4690,68.0,0.0,240.0,5.0,0.0
4691,52.0,0.0,240.0,3.0,0.0
4692,68.0,0.0,240.0,3.0,0.0
4693,61.0,240.0,240.0,6.0,0.0
4694,73.0,0.0,240.0,4.0,0.0
4695,61.0,0.0,240.0,15.0,0.0
4696,68.0,0.0,240.0,15.0,0.0
4697,61.0,0.0,240.0,12.0,0.0
4698,73.0,0.0,240.0,15.0,0.0
4699,52.0,0.0,240.0,15.0,0.0
4700,51.0,0.0,240.0,13.0,0.0
4701,57.0,120.0,240.0,3.0,0.0
4702,51.0,0.0,240.0,3.0,0.0
4703,73.0,0.0,240.0,15.0,0.0
4704,66.0,0.0,240.0,5.0,0.0
4705,66.0,0.0,240.0,15.0,0.0
4706,51.0,0.0,240.0,15.0,0.0
4707,57.0,0.0,240.0,6.0,0.0
4708,66.0,0.0,240.0,3.0,0.0
4709,57.0,0.0,240.0,12.0,0.0
4710,73.0,0.0,240.0,4.0,0.0
4711,39.0,0.0,240.0,8.0,0.0
4712,73.0,0.0,240.0,10.0,0.0
4713,69.0,0.0,240.0,15.0,0.0
4714,66.0,0.0,240.0,11.0,0.0
4715,56.0,0.0,120.0,6.0,0.0
4716,66.0,0.0,120.0,11.0,0.0
4717,38.0,120.0,240.0,8.0,0.0
4718,56.0,0.0,120.0,3.0,0.0
4719,72.0,0.0,240.0,15.0,0.0
4720,72.0,0.0,120.0,10.0,0.0
4721,66.0,0.0,240.0,15.0,0.0
4722,66.0,0.0,240.0,5.0,0.0
4723,56.0,120.0,120.0,12.0,0.0
4724,66.0,0.0,120.0,3.0,0.0
4725,72.0,0.0,120.0,4.0,0.0
4726,50.0,0.0,240.0,3.0,0.0
4727,50.0,0.0,240.0,15.0,0.0
4728,50.0,0.0,240.0,13.0,0.0
4729,54.0,0.0,120.0,12.0,0.0
4730,66.0,0.0,120.0,3.0,0.0
4731,54.0,0.0,120.0,6.0,0.0
4732,73.0,0.0,120.0,10.0,0.0
4733,66.0,0.0,120.0,11.0,0.0
4734,54.0,0.0,120.0,3.0,0.0
4735,73.0,0.0,120.0,4.0,0.0
4736,66.0,0.0,240.0,5.0,0.0
4737,37.0,0.0,480.0,8.0,0.0
4738,49.0,0.0,480.0,13.0,0.0
4739,66.0,0.0,240.0,11.0,0.0
4740,61.0,0.0,480.0,12.0,0.0
4741,66.0,120.0,240.0,15.0,0.0
4742,69.0,0.0,240.0,15.0,0.0
4743,49.0,0.0,480.0,15.0,0.0
4744,61.0,0.0,480.0,6.0,0.0
4745,61.0,0.0,480.0,15.0,0.0
4746,69.0,0.0,240.0,4.0,0.0
4747,69.0,0.0,240.0,10.0,0.0
4748,66.0,0.0,240.0,3.0,0.0
4749,49.0,0.0,480.0,3.0,0.0
4750,61.0,0.0,480.0,2.0,0.0
4751,61.0,0.0,480.0,3.0,0.0
4752,49.0,60.0,120.0,14.0,0.0
4753,73.0,0.0,480.0,2.0,0.0
4754,49.0,60.0,60.0,14.0,0.0
4755,49.0,0.0,60.0,14.0,0.0
4756,49.0,0.0,120.0,14.0,0.0
4757,68.0,120.0,120.0,4.0,0.0
4758,68.0,0.0,120.0,15.0,0.0
4759,65.0,0.0,120.0,5.0,0.0
4760,65.0,0.0,120.0,15.0,0.0
4761,65.0,0.0,120.0,11.0,0.0
4762,65.0,0.0,120.0,3.0,0.0
4763,68.0,0.0,120.0,10.0,0.0
4764,63.0,0.0,120.0,3.0,0.0
4765,66.0,0.0,120.0,4.0,0.0
4766,66.0,0.0,120.0,15.0,0.0
4767,49.0,0.0,120.0,14.0,0.0
4768,63.0,0.0,120.0,5.0,0.0
4769,63.0,480.0,120.0,15.0,0.0
4770,66.0,0.0,120.0,10.0,0.0
4771,63.0,0.0,120.0,11.0,0.0
4772,61.0,0.0,480.0,3.0,0.0
4773,68.0,0.0,480.0,4.0,0.0
4774,68.0,0.0,480.0,10.0,0.0
4775,61.0,0.0,480.0,2.0,0.0
4776,73.0,0.0,480.0,2.0,0.0
4777,61.0,0.0,480.0,6.0,0.0
4778,65.0,0.0,480.0,5.0,0.0
4779,49.0,0.0,480.0,3.0,0.0
4780,65.0,0.0,480.0,11.0,0.0
4781,37.0,360.0,480.0,8.0,0.0
4782,49.0,0.0,480.0,13.0,0.0
4783,65.0,0.0,480.0,3.0,0.0
4784,61.0,0.0,480.0,12.0,0.0
4785,49.0,0.0,480.0,15.0,0.0
4786,68.0,0.0,480.0,15.0,0.0
4787,49.0,0.0,480.0,14.0,0.0
4788,65.0,0.0,480.0,15.0,0.0
4789,61.0,0.0,480.0,15.0,0.0
4790,49.0,0.0,480.0,8.0,0.0
4791,61.0,0.0,480.0,1.0,0.0
4792,61.0,0.0,480.0,13.0,0.0
4793,61.0,240.0,480.0,3.0,0.0
4794,61.0,120.0,360.0,15.0,0.0
4795,61.0,0.0,120.0,15.0,0.0
4796,57.0,0.0,240.0,15.0,0.0
4797,45.0,240.0,240.0,8.0,0.0
4798,57.0,0.0,240.0,3.0,0.0
4799,57.0,0.0,240.0,13.0,0.0
4800,57.0,0.0,240.0,1.0,0.0
4801,62.0,0.0,240.0,1.0,0.0
4802,62.0,0.0,240.0,15.0,0.0
4803,47.0,240.0,240.0,8.0,0.0
4804,62.0,0.0,240.0,13.0,0.0
4805,62.0,0.0,240.0,3.0,0.0
4806,53.0,0.0,480.0,3.0,0.0
4807,53.0,0.0,480.0,1.0,0.0
4808,53.0,0.0,480.0,13.0,0.0
4809,53.0,0.0,360.0,15.0,0.0
4810,41.0,120.0,360.0,8.0,0.0
4811,68.0,120.0,120.0,7.0,0.0
4812,68.0,0.0,120.0,11.0,0.0
4813,68.0,0.0,120.0,15.0,0.0
4814,68.0,0.0,120.0,5.0,0.0
4815,71.0,0.0,120.0,0.0,0.0
4816,68.0,0.0,120.0,3.0,0.0
4817,68.0,0.0,120.0,15.0,0.0
4818,68.0,0.0,120.0,3.0,0.0
4819,68.0,0.0,120.0,7.0,0.0
4820,68.0,0.0,120.0,5.0,0.0
4821,68.0,0.0,120.0,11.0,0.0
4822,71.0,0.0,120.0,0.0,0.0
4823,71.0,0.0,120.0,0.0,0.0
4824,68.0,0.0,120.0,11.0,0.0
4825,41.0,0.0,120.0,8.0,0.0
4826,68.0,0.0,120.0,7.0,0.0
4827,68.0,0.0,120.0,5.0,0.0
4828,68.0,60.0,120.0,15.0,0.0
4829,53.0,0.0,120.0,15.0,0.0
4830,68.0,0.0,120.0,3.0,0.0
4831,54.0,0.0,240.0,1.0,0.0
4832,42.0,0.0,240.0,8.0,0.0
4833,69.0,0.0,60.0,11.0,0.0
4834,69.0,0.0,60.0,7.0,0.0
4835,54.0,0.0,240.0,3.0,0.0
4836,54.0,60.0,240.0,15.0,0.0
4837,69.0,0.0,60.0,15.0,0.0
4838,69.0,0.0,60.0,3.0,0.0
4839,54.0,0.0,240.0,13.0,0.0
4840,73.0,0.0,60.0,0.0,0.0
4841,69.0,60.0,60.0,5.0,0.0
4842,71.0,0.0,60.0,15.0,0.0
4843,71.0,0.0,60.0,5.0,0.0
4844,71.0,0.0,60.0,3.0,0.0
4845,74.0,0.0,60.0,0.0,0.0
4846,71.0,60.0,60.0,11.0,0.0
4847,71.0,0.0,60.0,7.0,0.0
4848,69.0,0.0,60.0,11.0,0.0
4849,69.0,0.0,60.0,3.0,0.0
4850,69.0,0.0,60.0,15.0,0.0
4851,69.0,0.0,60.0,5.0,0.0
4852,69.0,0.0,60.0,7.0,0.0
4853,73.0,60.0,60.0,0.0,0.0
4854,68.0,0.0,60.0,7.0,0.0
4855,68.0,0.0,60.0,11.0,0.0
4856,71.0,0.0,60.0,0.0,0.0
4857,68.0,0.0,60.0,5.0,0.0
4858,68.0,0.0,60.0,3.0,0.0
4859,68.0,0.0,60.0,15.0,0.0
4860,69.0,60.0,60.0,15.0,0.0
4861,54.0,0.0,120.0,1.0,0.0
4862,73.0,0.0,60.0,0.0,0.0
4863,69.0,0.0,60.0,3.0,0.0
4864,54.0,0.0,120.0,3.0,0.0
4865,69.0,0.0,60.0,5.0,0.0
4866,54.0,0.0,120.0,13.0,0.0
4867,69.0,0.0,60.0,7.0,0.0
4868,69.0,0.0,60.0,11.0,0.0
4869,71.0,0.0,60.0,15.0,0.0
4870,71.0,0.0,60.0,7.0,0.0
4871,71.0,0.0,60.0,3.0,0.0
4872,74.0,0.0,60.0,0.0,0.0
4873,71.0,0.0,60.0,5.0,0.0
4874,71.0,60.0,60.0,11.0,0.0
4875,68.0,60.0,60.0,11.0,0.0
4876,68.0,0.0,60.0,3.0,0.0
4877,54.0,0.0,120.0,13.0,0.0
4878,54.0,0.0,120.0,15.0,0.0
4879,54.0,0.0,120.0,1.0,0.0
4880,71.0,0.0,60.0,0.0,0.0
4881,68.0,0.0,60.0,5.0,0.0
4882,68.0,0.0,60.0,7.0,0.0
4883,42.0,0.0,120.0,8.0,0.0
4884,54.0,0.0,120.0,3.0,0.0
4885,68.0,0.0,60.0,15.0,0.0
4886,73.0,0.0,60.0,0.0,0.0
4887,69.0,0.0,60.0,3.0,0.0
4888,69.0,0.0,60.0,5.0,0.0
4889,69.0,0.0,60.0,7.0,0.0
4890,69.0,0.0,60.0,15.0,0.0
4891,69.0,60.0,60.0,11.0,0.0
4892,44.0,0.0,360.0,8.0,0.0
4893,56.0,0.0,360.0,15.0,0.0
4894,71.0,0.0,60.0,15.0,0.0
4895,71.0,0.0,60.0,5.0,0.0
4896,71.0,0.0,60.0,0.0,0.0
4897,71.0,60.0,60.0,11.0,0.0
4898,56.0,0.0,360.0,13.0,0.0
4899,56.0,0.0,360.0,1.0,0.0
4900,71.0,0.0,60.0,7.0,0.0
4901,71.0,0.0,60.0,3.0,0.0
4902,56.0,0.0,360.0,3.0,0.0
4903,73.0,0.0,60.0,15.0,0.0
4904,73.0,60.0,60.0,0.0,0.0
4905,73.0,0.0,60.0,11.0,0.0
4906,73.0,0.0,60.0,5.0,0.0
4907,73.0,0.0,60.0,7.0,0.0
4908,73.0,0.0,60.0,3.0,0.0
4909,71.0,0.0,60.0,3.0,0.0
4910,71.0,0.0,60.0,5.0,0.0
4911,71.0,0.0,60.0,11.0,0.0
4912,71.0,60.0,60.0,7.0,0.0
4913,71.0,0.0,60.0,0.0,0.0
4914,71.0,0.0,60.0,15.0,0.0
4915,69.0,0.0,60.0,15.0,0.0
4916,69.0,0.0,60.0,0.0,0.0
4917,69.0,0.0,60.0,11.0,0.0
4918,69.0,60.0,60.0,5.0,0.0
4919,69.0,0.0,60.0,3.0,0.0
4920,69.0,0.0,60.0,7.0,0.0
4921,71.0,0.0,60.0,7.0,0.0
4922,71.0,0.0,60.0,3.0,0.0
4923,71.0,60.0,60.0,5.0,0.0
4924,71.0,0.0,60.0,15.0,0.0
4925,71.0,0.0,60.0,11.0,0.0
4926,71.0,0.0,60.0,0.0,0.0
4927,73.0,0.0,60.0,11.0,0.0
4928,73.0,0.0,60.0,15.0,0.0
4929,73.0,60.0,60.0,0.0,0.0
4930,73.0,0.0,60.0,5.0,0.0
4931,73.0,0.0,60.0,7.0,0.0
4932,73.0,0.0,60.0,3.0,0.0
4933,69.0,0.0,60.0,7.0,0.0
4934,69.0,0.0,60.0,3.0,0.0
4935,54.0,0.0,60.0,1.0,0.0
4936,54.0,60.0,60.0,13.0,0.0
4937,69.0,0.0,60.0,15.0,0.0
4938,54.0,0.0,60.0,15.0,0.0
4939,42.0,0.0,60.0,8.0,0.0
4940,69.0,0.0,60.0,11.0,0.0
4941,69.0,0.0,60.0,0.0,0.0
4942,54.0,0.0,60.0,3.0,0.0
4943,69.0,0.0,60.0,5.0,0.0
4944,71.0,0.0,60.0,7.0,0.0
4945,71.0,0.0,60.0,0.0,0.0
4946,71.0,0.0,60.0,3.0,0.0
4947,56.0,0.0,60.0,13.0,0.0
4948,71.0,0.0,60.0,11.0,0.0
4949,56.0,0.0,60.0,1.0,0.0
4950,44.0,0.0,60.0,8.0,0.0
4951,71.0,120.0,60.0,5.0,0.0
4952,56.0,0.0,60.0,3.0,0.0
4953,56.0,0.0,60.0,15.0,0.0
4954,71.0,0.0,60.0,15.0,0.0
4955,57.0,0.0,120.0,13.0,0.0
4956,73.0,0.0,120.0,5.0,0.0
4957,73.0,0.0,120.0,0.0,0.0
4958,73.0,0.0,120.0,15.0,0.0
4959,73.0,0.0,120.0,3.0,0.0
4960,57.0,0.0,120.0,15.0,0.0
4961,57.0,0.0,120.0,3.0,0.0
4962,45.0,0.0,120.0,8.0,0.0
4963,57.0,0.0,120.0,1.0,0.0
4964,73.0,0.0,120.0,7.0,0.0
4965,73.0,60.0,120.0,11.0,0.0
4966,56.0,0.0,60.0,3.0,0.0
4967,76.0,0.0,60.0,0.0,0.0
4968,74.0,60.0,60.0,7.0,0.0
4969,74.0,0.0,60.0,3.0,0.0
4970,74.0,0.0,60.0,5.0,0.0
4971,56.0,0.0,60.0,15.0,0.0
4972,56.0,0.0,60.0,13.0,0.0
4973,44.0,0.0,60.0,8.0,0.0
4974,74.0,0.0,60.0,15.0,0.0
4975,74.0,0.0,60.0,11.0,0.0
4976,56.0,0.0,60.0,1.0,0.0
4977,73.0,0.0,60.0,5.0,0.0
4978,73.0,0.0,60.0,11.0,0.0
4979,57.0,0.0,60.0,13.0,0.0
4980,73.0,60.0,60.0,0.0,0.0
4981,73.0,0.0,60.0,3.0,0.0
4982,57.0,0.0,60.0,3.0,0.0
4983,57.0,0.0,60.0,15.0,0.0
4984,45.0,0.0,60.0,8.0,0.0
4985,73.0,0.0,60.0,7.0,0.0
4986,73.0,0.0,60.0,15.0,0.0
4987,57.0,0.0,60.0,1.0,0.0
4988,59.0,0.0,120.0,1.0,0.0
4989,71.0,0.0,60.0,0.0,0.0
4990,71.0,0.0,60.0,11.0,0.0
4991,71.0,0.0,60.0,3.0,0.0
4992,71.0,0.0,60.0,15.0,0.0
4993,59.0,0.0,120.0,3.0,0.0
4994,59.0,0.0,120.0,13.0,0.0
4995,47.0,0.0,120.0,8.0,0.0
4996,59.0,0.0,120.0,15.0,0.0
4997,71.0,60.0,60.0,7.0,0.0
4998,71.0,0.0,60.0,5.0,0.0
4999,69.0,0.0,60.0,0.0,0.0
5000,69.0,0.0,60.0,15.0,0.0
5001,69.0,0.0,60.0,7.0,0.0
5002,69.0,0.0,60.0,11.0,0.0
5003,69.0,0.0,60.0,5.0,0.0
5004,69.0,60.0,60.0,3.0,0.0
5005,68.0,0.0,60.0,15.0,0.0
5006,57.0,0.0,60.0,13.0,0.0
5007,57.0,60.0,60.0,3.0,0.0
5008,57.0,0.0,60.0,15.0,0.0
5009,68.0,0.0,60.0,3.0,0.0
5010,68.0,0.0,60.0,7.0,0.0
5011,57.0,0.0,60.0,1.0,0.0
5012,68.0,0.0,60.0,5.0,0.0
5013,69.0,0.0,60.0,0.0,0.0
5014,68.0,0.0,60.0,11.0,0.0
5015,45.0,0.0,60.0,8.0,0.0
5016,47.0,0.0,60.0,8.0,0.0
5017,66.0,120.0,60.0,11.0,0.0
5018,59.0,0.0,60.0,15.0,0.0
5019,59.0,0.0,60.0,3.0,0.0
5020,66.0,0.0,60.0,3.0,0.0
5021,66.0,0.0,60.0,15.0,0.0
5022,59.0,0.0,60.0,1.0,0.0
5023,66.0,0.0,60.0,5.0,0.0
5024,66.0,0.0,60.0,7.0,0.0
5025,59.0,0.0,60.0,13.0,0.0
5026,66.0,0.0,60.0,0.0,0.0
5027,65.0,120.0,120.0,3.0,0.0
5028,61.0,0.0,120.0,1.0,0.0
5029,65.0,0.0,120.0,0.0,0.0
5030,61.0,0.0,120.0,15.0,0.0
5031,65.0,0.0,120.0,15.0,0.0
5032,65.0,0.0,120.0,7.0,0.0
5033,61.0,0.0,120.0,3.0,0.0
5034,65.0,0.0,120.0,11.0,0.0
5035,61.0,0.0,120.0,13.0,0.0
5036,65.0,0.0,120.0,5.0,0.0
5037,49.0,0.0,120.0,8.0,0.0
5038,59.0,0.0,120.0,15.0,0.0
5039,68.0,120.0,120.0,11.0,0.0
5040,68.0,0.0,120.0,5.0,0.0
5041,59.0,0.0,120.0,13.0,0.0
5042,68.0,0.0,120.0,7.0,0.0
5043,59.0,0.0,120.0,1.0,0.0
5044,68.0,0.0,120.0,15.0,0.0
5045,68.0,0.0,120.0,0.0,0.0
5046,47.0,0.0,120.0,8.0,0.0
5047,59.0,0.0,120.0,3.0,0.0
5048,68.0,0.0,120.0,3.0,0.0
5049,57.0,0.0,120.0,1.0,0.0
5050,73.0,0.0,120.0,5.0,0.0
5051,57.0,0.0,120.0,15.0,0.0
5052,57.0,0.0,120.0,13.0,0.0
5053,73.0,0.0,120.0,11.0,0.0
5054,57.0,0.0,120.0,3.0,0.0
5055,73.0,0.0,120.0,3.0,0.0
5056,45.0,0.0,120.0,8.0,0.0
5057,73.0,0.0,120.0,7.0,0.0
5058,73.0,120.0,120.0,0.0,0.0
5059,69.0,0.0,120.0,15.0,0.0
5060,44.0,0.0,120.0,8.0,0.0
5061,71.0,0.0,120.0,5.0,0.0
5062,71.0,0.0,120.0,11.0,0.0
5063,56.0,0.0,120.0,13.0,0.0
5064,71.0,0.0,120.0,0.0,0.0
5065,68.0,120.0,120.0,15.0,0.0
5066,71.0,0.0,120.0,3.0,0.0
5067,71.0,0.0,120.0,7.0,0.0
5068,56.0,0.0,120.0,15.0,0.0
5069,56.0,0.0,120.0,3.0,0.0
5070,56.0,0.0,120.0,1.0,0.0
5071,69.0,0.0,120.0,5.0,0.0
5072,69.0,0.0,120.0,3.0,0.0
5073,69.0,0.0,120.0,11.0,0.0
5074,54.0,0.0,120.0,3.0,0.0
5075,54.0,60.0,120.0,15.0,0.0
5076,78.0,0.0,480.0,10.0,0.0
5077,78.0,0.0,480.0,4.0,0.0
5078,69.0,0.0,120.0,0.0,0.0
5079,54.0,0.0,120.0,1.0,0.0
5080,78.0,0.0,480.0,0.0,0.0
5081,42.0,0.0,120.0,8.0,0.0
5082,54.0,0.0,120.0,13.0,0.0
5083,52.0,60.0,120.0,13.0,0.0
5084,68.0,0.0,60.0,0.0,0.0
5085,52.0,0.0,120.0,3.0,0.0
5086,68.0,60.0,60.0,11.0,0.0
5087,40.0,0.0,120.0,8.0,0.0
5088,74.0,0.0,120.0,15.0,0.0
5089,68.0,0.0,120.0,15.0,0.0
5090,78.0,0.0,120.0,15.0,0.0
5091,71.0,0.0,120.0,15.0,0.0
5092,68.0,0.0,60.0,3.0,0.0
5093,52.0,0.0,120.0,15.0,0.0
5094,52.0,0.0,120.0,1.0,0.0
5095,68.0,0.0,60.0,5.0,0.0
5096,69.0,0.0,60.0,5.0,0.0
5097,69.0,0.0,60.0,3.0,0.0
5098,69.0,0.0,60.0,11.0,0.0
5099,69.0,0.0,60.0,0.0,0.0
5100,51.0,0.0,120.0,1.0,0.0
5101,51.0,0.0,120.0,15.0,0.0
5102,78.0,0.0,120.0,15.0,0.0
5103,70.0,60.0,120.0,15.0,0.0
5104,51.0,0.0,120.0,13.0,0.0
5105,66.0,60.0,60.0,0.0,0.0
5106,66.0,0.0,60.0,5.0,0.0
5107,66.0,0.0,60.0,3.0,0.0
5108,51.0,0.0,120.0,3.0,0.0
5109,66.0,0.0,60.0,11.0,0.0
5110,39.0,0.0,120.0,8.0,0.0
5111,68.0,0.0,60.0,3.0,0.0
5112,68.0,0.0,60.0,11.0,0.0
5113,68.0,0.0,60.0,5.0,0.0
5114,68.0,0.0,60.0,0.0,0.0
5115,78.0,0.0,120.0,15.0,0.0
5116,70.0,0.0,60.0,11.0,0.0
5117,56.0,0.0,120.0,15.0,0.0
5118,70.0,60.0,60.0,5.0,0.0
5119,75.0,0.0,120.0,15.0,0.0
5120,72.0,0.0,120.0,15.0,0.0
5121,56.0,0.0,120.0,13.0,0.0
5122,70.0,0.0,60.0,3.0,0.0
5123,70.0,0.0,60.0,0.0,0.0
5124,44.0,0.0,120.0,8.0,0.0
5125,56.0,120.0,120.0,3.0,0.0
5126,56.0,0.0,120.0,1.0,0.0
5127,72.0,0.0,60.0,3.0,0.0
5128,72.0,0.0,60.0,0.0,0.0
5129,72.0,0.0,60.0,11.0,0.0
5130,72.0,0.0,60.0,5.0,0.0
5131,73.0,0.0,240.0,15.0,0.0
5132,68.0,0.0,240.0,15.0,0.0
5133,76.0,0.0,240.0,15.0,0.0
5134,49.0,60.0,120.0,13.0,0.0
5135,73.0,60.0,240.0,5.0,0.0
5136,73.0,0.0,240.0,11.0,0.0
5137,49.0,0.0,120.0,1.0,0.0
5138,73.0,0.0,240.0,0.0,0.0
5139,76.0,0.0,240.0,0.0,0.0
5140,76.0,0.0,240.0,4.0,0.0
5141,49.0,0.0,120.0,15.0,0.0
5142,37.0,0.0,120.0,8.0,0.0
5143,76.0,0.0,240.0,10.0,0.0
5144,73.0,0.0,240.0,3.0,0.0
5145,49.0,0.0,120.0,3.0,0.0
5146,57.0,0.0,60.0,13.0,0.0
5147,57.0,0.0,60.0,1.0,0.0
5148,57.0,60.0,60.0,15.0,0.0
5149,57.0,0.0,60.0,3.0,0.0
5150,45.0,0.0,60.0,8.0,0.0
5151,56.0,0.0,60.0,13.0,0.0
5152,56.0,0.0,60.0,15.0,0.0
5153,56.0,0.0,60.0,3.0,0.0
5154,44.0,0.0,60.0,8.0,0.0
5155,56.0,0.0,60.0,1.0,0.0
5156,54.0,0.0,60.0,3.0,0.0
5157,54.0,0.0,60.0,15.0,0.0
5158,73.0,0.0,240.0,15.0,0.0
5159,54.0,0.0,60.0,1.0,0.0
5160,54.0,0.0,60.0,13.0,0.0
5161,81.0,0.0,240.0,10.0,0.0
5162,78.0,0.0,240.0,15.0,0.0
5163,81.0,0.0,240.0,0.0,0.0
5164,42.0,60.0,60.0,8.0,0.0
5165,81.0,0.0,240.0,15.0,0.0
5166,81.0,0.0,240.0,4.0,0.0
5167,51.0,0.0,60.0,15.0,0.0
5168,51.0,0.0,60.0,13.0,0.0
5169,51.0,60.0,60.0,1.0,0.0
5170,51.0,0.0,60.0,3.0,0.0
5171,39.0,0.0,60.0,8.0,0.0
5172,52.0,0.0,60.0,15.0,0.0
5173,52.0,60.0,60.0,13.0,0.0
5174,52.0,0.0,60.0,3.0,0.0
5175,40.0,0.0,60.0,8.0,0.0
5176,52.0,0.0,60.0,1.0,0.0
5177,54.0,0.0,60.0,15.0,0.0
5178,54.0,0.0,60.0,3.0,0.0
5179,42.0,0.0,60.0,8.0,0.0
5180,54.0,0.0,60.0,13.0,0.0
5181,54.0,120.0,60.0,1.0,0.0
5182,44.0,0.0,240.0,8.0,0.0
5183,56.0,0.0,240.0,3.0,0.0
5184,72.0,0.0,480.0,10.0,0.0
5185,75.0,120.0,240.0,15.0,0.0
5186,72.0,0.0,240.0,15.0,0.0
5187,72.0,0.0,480.0,4.0,0.0
5188,72.0,0.0,480.0,0.0,0.0
5189,56.0,0.0,240.0,15.0,0.0
5190,56.0,120.0,120.0,1.0,0.0
5191,56.0,0.0,240.0,13.0,0.0
5192,63.0,0.0,120.0,1.0,0.0
5193,63.0,0.0,120.0,3.0,0.0
5194,63.0,0.0,120.0,6.0,0.0
5195,63.0,0.0,120.0,12.0,0.0
5196,63.0,120.0,120.0,3.0,0.0
5197,63.0,0.0,120.0,1.0,0.0
5198,63.0,0.0,120.0,6.0,0.0
5199,63.0,0.0,120.0,12.0,0.0
5200,56.0,0.0,120.0,15.0,0.0
5201,63.0,0.0,120.0,6.0,0.0
5202,44.0,0.0,120.0,8.0,0.0
5203,63.0,0.0,120.0,3.0,0.0
5204,63.0,0.0,120.0,12.0,0.0
5205,72.0,0.0,120.0,15.0,0.0
5206,63.0,0.0,120.0,1.0,0.0
5207,75.0,60.0,120.0,15.0,0.0
5208,61.0,60.0,120.0,15.0,0.0
5209,64.0,0.0,240.0,15.0,0.0
5210,64.0,0.0,60.0,1.0,0.0
5211,64.0,0.0,60.0,12.0,0.0
5212,68.0,0.0,240.0,15.0,0.0
5213,73.0,0.0,240.0,0.0,0.0
5214,64.0,60.0,60.0,3.0,0.0
5215,73.0,0.0,240.0,10.0,0.0
5216,64.0,0.0,60.0,6.0,0.0
5217,73.0,0.0,240.0,4.0,0.0
5218,49.0,0.0,120.0,8.0,0.0
5219,66.0,0.0,60.0,6.0,0.0
5220,66.0,0.0,60.0,1.0,0.0
5221,66.0,0.0,60.0,12.0,0.0
5222,66.0,0.0,60.0,3.0,0.0
5223,64.0,0.0,60.0,12.0,0.0
5224,64.0,60.0,60.0,6.0,0.0
5225,64.0,0.0,60.0,3.0,0.0
5226,37.0,0.0,120.0,8.0,0.0
5227,49.0,0.0,120.0,15.0,0.0
5228,64.0,0.0,60.0,1.0,0.0
5229,63.0,0.0,60.0,12.0,0.0
5230,63.0,0.0,60.0,3.0,0.0
5231,63.0,0.0,60.0,1.0,0.0
5232,63.0,60.0,60.0,6.0,0.0
5233,49.0,0.0,480.0,8.0,0.0
5234,64.0,0.0,60.0,1.0,0.0
5235,64.0,0.0,60.0,12.0,0.0
5236,73.0,0.0,120.0,4.0,0.0
5237,73.0,0.0,120.0,0.0,0.0
5238,64.0,60.0,60.0,3.0,0.0
5239,64.0,0.0,60.0,6.0,0.0
5240,61.0,0.0,480.0,13.0,0.0
5241,61.0,0.0,480.0,1.0,0.0
5242,68.0,0.0,240.0,15.0,0.0
5243,61.0,0.0,480.0,3.0,0.0
5244,64.0,0.0,240.0,15.0,0.0
5245,61.0,0.0,480.0,15.0,0.0
5246,73.0,0.0,120.0,10.0,0.0
5247,66.0,0.0,60.0,3.0,0.0
5248,66.0,0.0,60.0,6.0,0.0
5249,66.0,60.0,60.0,1.0,0.0
5250,66.0,0.0,60.0,12.0,0.0
5251,73.0,0.0,120.0,10.0,0.0
5252,63.0,0.0,60.0,6.0,0.0
5253,63.0,60.0,60.0,12.0,0.0
5254,63.0,0.0,60.0,3.0,0.0
5255,73.0,0.0,120.0,0.0,0.0
5256,63.0,0.0,60.0,1.0,0.0
5257,73.0,0.0,120.0,4.0,0.0
5258,64.0,60.0,60.0,12.0,0.0
5259,64.0,0.0,60.0,3.0,0.0
5260,64.0,0.0,60.0,1.0,0.0
5261,64.0,0.0,60.0,6.0,0.0
5262,66.0,0.0,60.0,12.0,0.0
5263,66.0,0.0,240.0,15.0,0.0
5264,75.0,0.0,240.0,15.0,0.0
5265,66.0,60.0,60.0,1.0,0.0
5266,66.0,0.0,60.0,3.0,0.0
5267,75.0,0.0,360.0,10.0,0.0
5268,75.0,0.0,360.0,4.0,0.0
5269,66.0,0.0,60.0,6.0,0.0
5270,75.0,0.0,360.0,0.0,0.0
5271,69.0,0.0,240.0,15.0,0.0
5272,68.0,0.0,60.0,6.0,0.0
5273,68.0,0.0,60.0,3.0,0.0
5274,68.0,60.0,60.0,12.0,0.0
5275,68.0,0.0,60.0,1.0,0.0
5276,66.0,0.0,60.0,3.0,0.0
5277,66.0,60.0,60.0,1.0,0.0
5278,66.0,0.0,60.0,6.0,0.0
5279,66.0,0.0,60.0,12.0,0.0
5280,64.0,60.0,60.0,1.0,0.0
5281,64.0,0.0,60.0,12.0,0.0
5282,64.0,0.0,60.0,3.0,0.0
5283,64.0,0.0,60.0,6.0,0.0
5284,66.0,0.0,240.0,15.0,0.0
5285,66.0,0.0,60.0,12.0,0.0
5286,59.0,0.0,60.0,3.0,0.0
5287,59.0,0.0,60.0,1.0,0.0
5288,66.0,60.0,60.0,1.0,0.0
5289,59.0,0.0,60.0,15.0,0.0
5290,75.0,0.0,240.0,15.0,0.0
5291,47.0,0.0,60.0,8.0,0.0
5292,66.0,0.0,60.0,6.0,0.0
5293,59.0,0.0,60.0,13.0,0.0
5294,69.0,0.0,240.0,15.0,0.0
5295,66.0,0.0,60.0,3.0,0.0
5296,57.0,0.0,60.0,1.0,0.0
5297,68.0,0.0,60.0,1.0,0.0
5298,57.0,0.0,60.0,3.0,0.0
5299,68.0,0.0,60.0,6.0,0.0
5300,68.0,60.0,60.0,12.0,0.0
5301,57.0,0.0,60.0,13.0,0.0
5302,45.0,0.0,60.0,8.0,0.0
5303,57.0,0.0,60.0,15.0,0.0
5304,68.0,0.0,60.0,3.0,0.0
5305,64.0,0.0,60.0,12.0,0.0
5306,73.0,0.0,60.0,4.0,0.0
5307,73.0,0.0,60.0,0.0,0.0
5308,56.0,0.0,60.0,3.0,0.0
5309,64.0,0.0,60.0,3.0,0.0
5310,56.0,0.0,60.0,13.0,0.0
5311,56.0,0.0,60.0,15.0,0.0
5312,73.0,0.0,60.0,10.0,0.0
5313,64.0,0.0,60.0,6.0,0.0
5314,64.0,0.0,60.0,1.0,0.0
5315,44.0,60.0,60.0,8.0,0.0
5316,56.0,0.0,60.0,1.0,0.0
5317,75.0,0.0,60.0,0.0,0.0
5318,66.0,0.0,60.0,1.0,0.0
5319,54.0,120.0,60.0,1.0,0.0
5320,66.0,0.0,60.0,3.0,0.0
5321,54.0,0.0,60.0,13.0,0.0
5322,42.0,0.0,60.0,8.0,0.0
5323,66.0,0.0,60.0,12.0,0.0
5324,75.0,0.0,60.0,10.0,0.0
5325,54.0,0.0,60.0,3.0,0.0
5326,75.0,0.0,60.0,4.0,0.0
5327,54.0,0.0,60.0,15.0,0.0
5328,66.0,0.0,60.0,6.0,0.0
5329,68.0,60.0,120.0,6.0,0.0
5330,76.0,0.0,120.0,10.0,0.0
5331,68.0,0.0,120.0,3.0,0.0
5332,40.0,0.0,240.0,8.0,0.0
5333,68.0,0.0,120.0,12.0,0.0
5334,52.0,0.0,240.0,1.0,0.0
5335,76.0,0.0,120.0,4.0,0.0
5336,52.0,0.0,240.0,3.0,0.0
5337,68.0,0.0,240.0,15.0,0.0
5338,52.0,0.0,240.0,15.0,0.0
5339,71.0,0.0,240.0,15.0,0.0
5340,76.0,0.0,120.0,0.0,0.0
5341,68.0,0.0,120.0,1.0,0.0
5342,52.0,0.0,240.0,13.0,0.0
5343,69.0,0.0,60.0,3.0,0.0
5344,75.0,0.0,60.0,4.0,0.0
5345,75.0,0.0,60.0,0.0,0.0
5346,69.0,60.0,60.0,1.0,0.0
5347,75.0,0.0,60.0,10.0,0.0
5348,69.0,0.0,60.0,12.0,0.0
5349,69.0,0.0,60.0,6.0,0.0
5350,76.0,0.0,60.0,0.0,0.0
5351,68.0,0.0,60.0,12.0,0.0
5352,68.0,0.0,60.0,1.0,0.0
5353,76.0,60.0,60.0,10.0,0.0
5354,76.0,0.0,60.0,4.0,0.0
5355,68.0,0.0,60.0,3.0,0.0
5356,68.0,0.0,60.0,6.0,0.0
5357,66.0,0.0,60.0,6.0,0.0
5358,66.0,0.0,240.0,15.0,0.0
5359,51.0,0.0,120.0,3.0,0.0
5360,51.0,0.0,120.0,13.0,0.0
5361,66.0,0.0,60.0,12.0,0.0
5362,78.0,0.0,120.0,0.0,0.0
5363,39.0,0.0,120.0,8.0,0.0
5364,69.0,0.0,240.0,15.0,0.0
5365,78.0,0.0,120.0,10.0,0.0
5366,66.0,0.0,60.0,1.0,0.0
5367,73.0,0.0,240.0,15.0,0.0
5368,66.0,60.0,60.0,3.0,0.0
5369,51.0,0.0,120.0,15.0,0.0
5370,78.0,0.0,120.0,4.0,0.0
5371,51.0,0.0,120.0,1.0,0.0
5372,64.0,0.0,60.0,12.0,0.0
5373,64.0,0.0,60.0,1.0,0.0
5374,64.0,0.0,60.0,3.0,0.0
5375,64.0,60.0,60.0,6.0,0.0
5376,63.0,0.0,60.0,6.0,0.0
5377,76.0,0.0,60.0,4.0,0.0
5378,57.0,0.0,120.0,3.0,0.0
5379,57.0,0.0,120.0,13.0,0.0
5380,63.0,0.0,60.0,3.0,0.0
5381,57.0,0.0,120.0,1.0,0.0
5382,45.0,0.0,120.0,8.0,0.0
5383,76.0,60.0,60.0,0.0,0.0
5384,57.0,0.0,120.0,15.0,0.0
5385,63.0,0.0,60.0,12.0,0.0
5386,76.0,0.0,60.0,10.0,0.0
5387,63.0,0.0,60.0,1.0,0.0
5388,78.0,120.0,60.0,0.0,0.0
5389,61.0,0.0,60.0,6.0,0.0
5390,78.0,0.0,60.0,10.0,0.0
5391,78.0,0.0,60.0,4.0,0.0
5392,61.0,0.0,60.0,1.0,0.0
5393,61.0,0.0,60.0,12.0,0.0
5394,61.0,0.0,60.0,3.0,0.0
5395,60.0,0.0,120.0,1.0,0.0
5396,56.0,0.0,120.0,1.0,0.0
5397,80.0,0.0,120.0,4.0,0.0
5398,80.0,0.0,120.0,10.0,0.0
5399,60.0,0.0,120.0,6.0,0.0
5400,56.0,0.0,180.0,13.0,0.0
5401,75.0,0.0,120.0,15.0,0.0
5402,72.0,0.0,120.0,15.0,0.0
5403,80.0,0.0,120.0,15.0,0.0
5404,56.0,0.0,180.0,15.0,0.0
5405,44.0,0.0,180.0,8.0,0.0
5406,60.0,60.0,120.0,12.0,0.0
5407,80.0,0.0,120.0,0.0,0.0
5408,56.0,60.0,180.0,3.0,0.0
5409,60.0,0.0,120.0,3.0,0.0
5410,63.0,0.0,120.0,6.0,0.0
5411,78.0,0.0,120.0,10.0,0.0
5412,78.0,0.0,120.0,4.0,0.0
5413,78.0,0.0,120.0,0.0,0.0
5414,63.0,0.0,120.0,12.0,0.0
5415,63.0,0.0,120.0,1.0,0.0
5416,78.0,0.0,120.0,15.0,0.0
5417,72.0,0.0,120.0,15.0,0.0
5418,75.0,0.0,120.0,15.0,0.0
5419,63.0,0.0,120.0,3.0,0.0
5420,58.0,0.0,60.0,3.0,0.0
5421,58.0,0.0,60.0,15.0,0.0
5422,58.0,60.0,60.0,13.0,0.0
5423,46.0,0.0,60.0,8.0,0.0
5424,58.0,0.0,60.0,1.0,0.0
5425,68.0,0.0,120.0,1.0,0.0
5426,60.0,0.0,60.0,13.0,0.0
5427,60.0,0.0,60.0,1.0,0.0
5428,68.0,60.0,120.0,15.0,0.0
5429,76.0,0.0,120.0,10.0,0.0
5430,60.0,0.0,60.0,15.0,0.0
5431,48.0,60.0,60.0,8.0,0.0
5432,68.0,0.0,120.0,12.0,0.0
5433,68.0,0.0,120.0,6.0,0.0
5434,60.0,0.0,60.0,3.0,0.0
5435,76.0,0.0,120.0,0.0,0.0
5436,76.0,0.0,120.0,4.0,0.0
5437,76.0,0.0,120.0,15.0,0.0
5438,68.0,0.0,120.0,3.0,0.0
5439,61.0,0.0,60.0,1.0,0.0
5440,49.0,0.0,60.0,8.0,0.0
5441,61.0,0.0,60.0,13.0,0.0
5442,61.0,0.0,60.0,3.0,0.0
5443,61.0,0.0,60.0,15.0,0.0
5444,58.0,0.0,60.0,1.0,0.0
5445,66.0,0.0,120.0,1.0,0.0
5446,75.0,0.0,120.0,4.0,0.0
5447,66.0,0.0,120.0,15.0,0.0
5448,58.0,0.0,60.0,15.0,0.0
5449,75.0,0.0,120.0,15.0,0.0
5450,58.0,0.0,60.0,3.0,0.0
5451,75.0,0.0,120.0,0.0,0.0
5452,58.0,60.0,60.0,13.0,0.0
5453,66.0,120.0,120.0,6.0,0.0
5454,46.0,0.0,60.0,8.0,0.0
5455,75.0,0.0,120.0,10.0,0.0
5456,66.0,0.0,120.0,12.0,0.0
5457,66.0,0.0,120.0,3.0,0.0
5458,60.0,0.0,60.0,15.0,0.0
5459,60.0,0.0,60.0,13.0,0.0
5460,60.0,0.0,60.0,3.0,0.0
5461,48.0,0.0,60.0,8.0,0.0
5462,60.0,0.0,60.0,1.0,0.0
5463,49.0,0.0,120.0,14.0,0.0
5464,73.0,0.0,120.0,10.0,0.0
5465,64.0,0.0,120.0,3.0,0.0
5466,61.0,0.0,120.0,3.0,0.0
5467,73.0,0.0,480.0,5.0,0.0
5468,64.0,0.0,120.0,6.0,0.0
5469,73.0,0.0,480.0,11.0,0.0
5470,61.0,0.0,240.0,2.0,0.0
5471,73.0,0.0,240.0,2.0,0.0
5472,73.0,0.0,480.0,3.0,0.0
5473,61.0,0.0,120.0,1.0,0.0
5474,64.0,0.0,120.0,1.0,0.0
5475,49.0,0.0,120.0,8.0,0.0
5476,64.0,0.0,120.0,12.0,0.0
5477,61.0,0.0,120.0,13.0,0.0
5478,61.0,0.0,120.0,15.0,0.0
5479,73.0,0.0,120.0,15.0,0.0
5480,73.0,0.0,120.0,4.0,0.0
5481,64.0,60.0,120.0,15.0,0.0
5482,68.0,0.0,120.0,15.0,0.0
5483,73.0,0.0,120.0,0.0,0.0
5484,65.0,0.0,120.0,12.0,0.0
5485,49.0,0.0,120.0,1.0,0.0
5486,83.0,0.0,120.0,0.0,0.0
5487,65.0,0.0,120.0,3.0,0.0
5488,65.0,0.0,120.0,6.0,0.0
5489,37.0,0.0,120.0,8.0,0.0
5490,73.0,0.0,120.0,15.0,0.0
5491,65.0,0.0,120.0,15.0,0.0
5492,49.0,0.0,120.0,13.0,0.0
5493,65.0,0.0,120.0,1.0,0.0
5494,83.0,0.0,120.0,10.0,0.0
5495,83.0,0.0,120.0,4.0,0.0
5496,49.0,60.0,60.0,14.0,0.0
5497,49.0,0.0,120.0,15.0,0.0
5498,68.0,0.0,120.0,15.0,0.0
5499,49.0,0.0,120.0,3.0,0.0
5500,49.0,120.0,60.0,14.0,0.0
5501,73.0,0.0,120.0,2.0,0.0
5502,81.0,0.0,120.0,4.0,0.0
5503,73.0,120.0,120.0,15.0,0.0
5504,66.0,0.0,120.0,1.0,0.0
5505,81.0,0.0,120.0,15.0,0.0
5506,81.0,0.0,120.0,0.0,0.0
5507,61.0,0.0,120.0,2.0,0.0
5508,66.0,0.0,120.0,12.0,0.0
5509,51.0,0.0,120.0,15.0,0.0
5510,51.0,0.0,120.0,1.0,0.0
5511,66.0,0.0,120.0,15.0,0.0
5512,51.0,0.0,120.0,3.0,0.0
5513,49.0,0.0,120.0,14.0,0.0
5514,51.0,0.0,120.0,13.0,0.0
5515,81.0,0.0,120.0,10.0,0.0
5516,66.0,0.0,120.0,6.0,0.0
5517,39.0,0.0,120.0,8.0,0.0
5518,66.0,0.0,120.0,3.0,0.0
5519,61.0,120.0,120.0,2.0,0.0
5520,80.0,0.0,120.0,4.0,0.0
5521,41.0,0.0,120.0,8.0,0.0
5522,80.0,0.0,120.0,10.0,0.0
5523,73.0,0.0,120.0,15.0,0.0
5524,71.0,0.0,120.0,15.0,0.0
5525,53.0,0.0,120.0,15.0,0.0
5526,53.0,0.0,120.0,1.0,0.0
5527,68.0,0.0,120.0,3.0,0.0
5528,53.0,0.0,120.0,13.0,0.0
5529,80.0,0.0,120.0,0.0,0.0
5530,68.0,0.0,120.0,12.0,0.0
5531,53.0,0.0,120.0,3.0,0.0
5532,80.0,0.0,120.0,15.0,0.0
5533,49.0,0.0,120.0,14.0,0.0
5534,68.0,0.0,120.0,6.0,0.0
5535,68.0,0.0,120.0,1.0,0.0
5536,73.0,0.0,120.0,2.0,0.0
5537,61.0,120.0,120.0,1.0,0.0
5538,54.0,120.0,240.0,13.0,0.0
5539,54.0,0.0,240.0,14.0,0.0
5540,69.0,0.0,240.0,5.0,0.0
5541,66.0,0.0,240.0,2.0,0.0
5542,73.0,0.0,240.0,2.0,0.0
5543,42.0,0.0,120.0,8.0,0.0
5544,69.0,0.0,240.0,0.0,0.0
5545,78.0,0.0,240.0,10.0,0.0
5546,61.0,0.0,120.0,6.0,0.0
5547,78.0,0.0,240.0,4.0,0.0
5548,61.0,0.0,120.0,3.0,0.0
5549,61.0,0.0,120.0,12.0,0.0
5550,78.0,0.0,240.0,0.0,0.0
5551,69.0,0.0,240.0,11.0,0.0
5552,69.0,0.0,240.0,3.0,0.0
5553,73.0,0.0,240.0,15.0,0.0
5554,69.0,0.0,240.0,15.0,0.0
5555,54.0,0.0,120.0,15.0,0.0
5556,54.0,0.0,120.0,1.0,0.0
5557,54.0,0.0,120.0,12.0,0.0
5558,54.0,0.0,120.0,3.0,0.0
5559,42.0,0.0,120.0,8.0,0.0
5560,54.0,0.0,120.0,6.0,0.0
5561,54.0,0.0,120.0,15.0,0.0
5562,59.0,0.0,120.0,12.0,0.0
5563,59.0,0.0,120.0,15.0,0.0
5564,74.0,0.0,240.0,0.0,0.0
5565,59.0,0.0,120.0,1.0,0.0
5566,59.0,120.0,120.0,3.0,0.0
5567,47.0,0.0,120.0,8.0,0.0
5568,59.0,0.0,120.0,6.0,0.0
5569,66.0,0.0,120.0,15.0,0.0
5570,74.0,0.0,240.0,11.0,0.0
5571,62.0,0.0,240.0,15.0,0.0
5572,74.0,0.0,240.0,3.0,0.0
5573,74.0,120.0,240.0,5.0,0.0
5574,57.0,0.0,120.0,3.0,0.0
5575,71.0,0.0,120.0,15.0,0.0
5576,66.0,0.0,120.0,4.0,0.0
5577,57.0,0.0,120.0,6.0,0.0
5578,57.0,0.0,120.0,15.0,0.0
5579,57.0,0.0,120.0,12.0,0.0
5580,45.0,0.0,120.0,8.0,0.0
5581,66.0,0.0,120.0,0.0,0.0
5582,57.0,0.0,120.0,1.0,0.0
5583,66.0,0.0,120.0,10.0,0.0
5584,65.0,0.0,480.0,3.0,0.0
5585,56.0,0.0,120.0,6.0,0.0
5586,71.0,0.0,480.0,15.0,0.0
5587,62.0,0.0,480.0,15.0,0.0
5588,71.0,0.0,360.0,10.0,0.0
5589,56.0,0.0,120.0,15.0,0.0
5590,65.0,0.0,480.0,15.0,0.0
5591,44.0,0.0,120.0,8.0,0.0
5592,71.0,0.0,360.0,4.0,0.0
5593,56.0,120.0,120.0,12.0,0.0
5594,71.0,0.0,360.0,0.0,0.0
5595,65.0,0.0,480.0,0.0,0.0
5596,65.0,0.0,480.0,5.0,0.0
5597,56.0,0.0,120.0,3.0,0.0
5598,56.0,0.0,120.0,1.0,0.0
5599,65.0,0.0,480.0,11.0,0.0
5600,56.0,0.0,120.0,13.0,0.0
5601,59.0,0.0,120.0,3.0,0.0
5602,59.0,0.0,120.0,12.0,0.0
5603,59.0,0.0,120.0,6.0,0.0
5604,44.0,0.0,120.0,8.0,0.0
5605,56.0,120.0,120.0,3.0,0.0
5606,59.0,0.0,120.0,1.0,0.0
5607,56.0,0.0,120.0,1.0,0.0
5608,56.0,0.0,120.0,15.0,0.0
5609,56.0,0.0,120.0,1.0,0.0
5610,62.0,0.0,240.0,6.0,0.0
5611,62.0,0.0,240.0,1.0,0.0
5612,44.0,60.0,120.0,8.0,0.0
5613,62.0,60.0,240.0,12.0,0.0
5614,62.0,0.0,240.0,3.0,0.0
5615,56.0,0.0,120.0,13.0,0.0
5616,56.0,0.0,120.0,15.0,0.0
5617,56.0,0.0,120.0,3.0,0.0
5618,56.0,0.0,120.0,13.0,0.0
5619,56.0,0.0,120.0,15.0,0.0
5620,56.0,0.0,120.0,3.0,0.0
5621,69.0,0.0,60.0,10.0,0.0
5622,69.0,60.0,60.0,4.0,0.0
5623,44.0,0.0,120.0,8.0,0.0
5624,69.0,0.0,60.0,0.0,0.0
5625,56.0,0.0,120.0,1.0,0.0
5626,68.0,0.0,60.0,10.0,0.0
5627,68.0,0.0,60.0,0.0,0.0
5628,68.0,0.0,60.0,4.0,0.0
5629,57.0,0.0,60.0,3.0,0.0
5630,61.0,60.0,240.0,1.0,0.0
5631,57.0,0.0,60.0,1.0,0.0
5632,57.0,0.0,60.0,13.0,0.0
5633,66.0,0.0,480.0,15.0,0.0
5634,66.0,0.0,240.0,3.0,0.0
5635,57.0,0.0,60.0,15.0,0.0
5636,61.0,0.0,240.0,6.0,0.0
5637,73.0,0.0,120.0,4.0,0.0
5638,73.0,0.0,120.0,0.0,0.0
5639,66.0,0.0,240.0,11.0,0.0
5640,61.0,0.0,240.0,3.0,0.0
5641,73.0,0.0,480.0,15.0,0.0
5642,61.0,0.0,240.0,12.0,0.0
5643,66.0,0.0,240.0,5.0,0.0
5644,45.0,60.0,60.0,8.0,0.0
5645,73.0,0.0,120.0,10.0,0.0
5646,59.0,0.0,60.0,13.0,0.0
5647,59.0,0.0,60.0,3.0,0.0
5648,47.0,0.0,60.0,8.0,0.0
5649,59.0,0.0,60.0,15.0,0.0
5650,59.0,60.0,60.0,1.0,0.0
5651,57.0,0.0,60.0,13.0,0.0
5652,66.0,0.0,120.0,0.0,0.0
5653,45.0,0.0,60.0,8.0,0.0
5654,57.0,0.0,60.0,1.0,0.0
5655,66.0,0.0,120.0,4.0,0.0
5656,57.0,60.0,60.0,3.0,0.0
5657,66.0,0.0,120.0,10.0,0.0
5658,57.0,0.0,60.0,15.0,0.0
5659,56.0,0.0,60.0,3.0,0.0
5660,44.0,0.0,60.0,8.0,0.0
5661,56.0,0.0,60.0,1.0,0.0
5662,56.0,0.0,60.0,13.0,0.0
5663,56.0,0.0,60.0,15.0,0.0
5664,45.0,0.0,60.0,8.0,0.0
5665,57.0,0.0,60.0,3.0,0.0
5666,57.0,0.0,60.0,15.0,0.0
5667,66.0,0.0,120.0,5.0,0.0
5668,66.0,0.0,120.0,11.0,0.0
5669,78.0,0.0,480.0,4.0,0.0
5670,78.0,0.0,480.0,10.0,0.0
5671,57.0,60.0,60.0,13.0,0.0
5672,57.0,0.0,60.0,1.0,0.0
5673,78.0,0.0,480.0,0.0,0.0
5674,66.0,0.0,120.0,0.0,0.0
5675,66.0,0.0,120.0,3.0,0.0
5676,59.0,0.0,60.0,13.0,0.0
5677,47.0,60.0,60.0,8.0,0.0
5678,59.0,0.0,60.0,15.0,0.0
5679,59.0,0.0,60.0,1.0,0.0
5680,59.0,0.0,60.0,3.0,0.0
5681,56.0,0.0,60.0,3.0,0.0
5682,66.0,0.0,120.0,11.0,0.0
5683,56.0,0.0,60.0,13.0,0.0
5684,66.0,0.0,120.0,5.0,0.0
5685,56.0,0.0,60.0,1.0,0.0
5686,44.0,60.0,60.0,8.0,0.0
5687,66.0,0.0,120.0,0.0,0.0
5688,66.0,60.0,120.0,3.0,0.0
5689,56.0,0.0,60.0,15.0,0.0
5690,57.0,0.0,60.0,13.0,0.0
5691,57.0,0.0,60.0,3.0,0.0
5692,57.0,0.0,60.0,1.0,0.0
5693,45.0,0.0,60.0,8.0,0.0
5694,57.0,0.0,60.0,15.0,0.0
5695,59.0,0.0,60.0,13.0,0.0
5696,68.0,0.0,360.0,11.0,0.0
5697,68.0,0.0,360.0,5.0,0.0
5698,68.0,0.0,360.0,3.0,0.0
5699,78.0,0.0,480.0,15.0,0.0
5700,59.0,0.0,60.0,1.0,0.0
5701,47.0,0.0,60.0,8.0,0.0
5702,74.0,120.0,480.0,15.0,0.0
5703,69.0,0.0,480.0,15.0,0.0
5704,59.0,60.0,60.0,3.0,0.0
5705,68.0,0.0,360.0,0.0,0.0
5706,59.0,0.0,60.0,15.0,0.0
5707,49.0,60.0,60.0,8.0,0.0
5708,61.0,0.0,60.0,1.0,0.0
5709,61.0,0.0,60.0,13.0,0.0
5710,61.0,0.0,60.0,15.0,0.0
5711,61.0,0.0,60.0,3.0,0.0
5712,59.0,60.0,60.0,13.0,0.0
5713,59.0,0.0,60.0,15.0,0.0
5714,59.0,0.0,60.0,3.0,0.0
5715,47.0,0.0,60.0,8.0,0.0
5716,59.0,0.0,60.0,1.0,0.0
5717,57.0,0.0,60.0,3.0,0.0
5718,57.0,60.0,60.0,1.0,0.0
5719,57.0,0.0,60.0,13.0,0.0
5720,45.0,0.0,60.0,8.0,0.0
5721,57.0,0.0,60.0,15.0,0.0
5722,59.0,60.0,60.0,1.0,0.0
5723,47.0,0.0,60.0,8.0,0.0
5724,59.0,0.0,60.0,13.0,0.0
5725,59.0,0.0,60.0,15.0,0.0
5726,59.0,0.0,60.0,3.0,0.0
5727,78.0,0.0,240.0,0.0,0.0
5728,78.0,0.0,240.0,10.0,0.0
5729,78.0,0.0,240.0,4.0,0.0
5730,49.0,0.0,60.0,8.0,0.0
5731,61.0,0.0,60.0,3.0,0.0
5732,61.0,0.0,60.0,1.0,0.0
5733,61.0,0.0,60.0,15.0,0.0
5734,61.0,60.0,60.0,13.0,0.0
5735,66.0,60.0,60.0,0.0,0.0
5736,66.0,0.0,60.0,5.0,0.0
5737,57.0,0.0,60.0,15.0,0.0
5738,45.0,0.0,60.0,8.0,0.0
5739,57.0,0.0,60.0,3.0,0.0
5740,66.0,0.0,60.0,11.0,0.0
5741,57.0,0.0,60.0,13.0,0.0
5742,66.0,0.0,60.0,3.0,0.0
5743,57.0,0.0,60.0,1.0,0.0
5744,68.0,0.0,60.0,3.0,0.0
5745,47.0,0.0,60.0,8.0,0.0
5746,68.0,0.0,60.0,11.0,0.0
5747,68.0,0.0,60.0,0.0,0.0
5748,68.0,0.0,60.0,5.0,0.0
5749,59.0,0.0,60.0,15.0,0.0
5750,59.0,0.0,60.0,3.0,0.0
5751,59.0,0.0,60.0,1.0,0.0
5752,59.0,0.0,60.0,13.0,0.0
5753,78.0,0.0,120.0,10.0,0.0
5754,69.0,0.0,120.0,3.0,0.0
5755,69.0,0.0,120.0,11.0,0.0
5756,61.0,60.0,120.0,1.0,0.0
5757,61.0,0.0,120.0,3.0,0.0
5758,61.0,0.0,120.0,13.0,0.0
5759,69.0,0.0,120.0,0.0,0.0
5760,69.0,0.0,120.0,5.0,0.0
5761,78.0,0.0,120.0,0.0,0.0
5762,73.0,0.0,120.0,15.0,0.0
5763,69.0,0.0,120.0,15.0,0.0
5764,78.0,0.0,120.0,15.0,0.0
5765,49.0,0.0,120.0,8.0,0.0
5766,78.0,0.0,120.0,4.0,0.0
5767,61.0,0.0,120.0,15.0,0.0
5768,50.0,0.0,60.0,8.0,0.0
5769,77.0,0.0,60.0,10.0,0.0
5770,62.0,0.0,60.0,1.0,0.0
5771,69.0,0.0,120.0,15.0,0.0
5772,62.0,60.0,60.0,15.0,0.0
5773,77.0,0.0,120.0,15.0,0.0
5774,73.0,60.0,120.0,15.0,0.0
5775,77.0,0.0,60.0,4.0,0.0
5776,62.0,0.0,60.0,3.0,0.0
5777,68.0,0.0,60.0,3.0,0.0
5778,77.0,0.0,60.0,0.0,0.0
5779,68.0,0.0,60.0,0.0,0.0
5780,62.0,0.0,60.0,13.0,0.0
5781,68.0,0.0,60.0,11.0,0.0
5782,68.0,0.0,60.0,5.0,0.0
5783,61.0,0.0,60.0,13.0,0.0
5784,49.0,0.0,60.0,8.0,0.0
5785,61.0,0.0,60.0,15.0,0.0
5786,69.0,0.0,60.0,0.0,0.0
5787,78.0,0.0,60.0,0.0,0.0
5788,69.0,0.0,60.0,3.0,0.0
5789,61.0,0.0,60.0,3.0,0.0
5790,78.0,0.0,60.0,4.0,0.0
5791,69.0,0.0,60.0,5.0,0.0
5792,61.0,0.0,60.0,1.0,0.0
5793,69.0,0.0,60.0,11.0,0.0
5794,78.0,0.0,60.0,10.0,0.0
5795,80.0,0.0,240.0,15.0,0.0
5796,80.0,0.0,480.0,4.0,0.0
5797,74.0,0.0,240.0,15.0,0.0
5798,71.0,0.0,120.0,5.0,0.0
5799,59.0,0.0,60.0,13.0,0.0
5800,71.0,0.0,240.0,15.0,0.0
5801,47.0,60.0,60.0,8.0,0.0
5802,71.0,0.0,120.0,3.0,0.0
5803,59.0,0.0,60.0,3.0,0.0
5804,80.0,0.0,480.0,10.0,0.0
5805,59.0,0.0,60.0,15.0,0.0
5806,71.0,0.0,120.0,0.0,0.0
5807,80.0,0.0,480.0,0.0,0.0
5808,59.0,0.0,60.0,1.0,0.0
5809,71.0,0.0,120.0,11.0,0.0
5810,57.0,0.0,60.0,1.0,0.0
5811,57.0,0.0,60.0,13.0,0.0
5812,45.0,60.0,60.0,8.0,0.0
5813,57.0,0.0,60.0,15.0,0.0
5814,57.0,0.0,60.0,3.0,0.0
5815,69.0,0.0,60.0,3.0,0.0
5816,56.0,0.0,60.0,13.0,0.0
5817,69.0,0.0,60.0,0.0,0.0
5818,56.0,0.0,60.0,15.0,0.0
5819,44.0,0.0,60.0,8.0,0.0
5820,56.0,0.0,60.0,3.0,0.0
5821,69.0,60.0,60.0,11.0,0.0
5822,69.0,0.0,60.0,5.0,0.0
5823,56.0,0.0,60.0,1.0,0.0
5824,42.0,0.0,60.0,8.0,0.0
5825,54.0,0.0,60.0,1.0,0.0
5826,54.0,0.0,60.0,15.0,0.0
5827,71.0,0.0,60.0,11.0,0.0
5828,71.0,120.0,60.0,5.0,0.0
5829,71.0,0.0,60.0,3.0,0.0
5830,71.0,0.0,60.0,0.0,0.0
5831,54.0,0.0,60.0,3.0,0.0
5832,54.0,0.0,60.0,13.0,0.0
5833,41.0,0.0,120.0,8.0,0.0
5834,73.0,0.0,120.0,11.0,0.0
5835,73.0,0.0,120.0,3.0,0.0
5836,53.0,0.0,120.0,13.0,0.0
5837,73.0,120.0,120.0,5.0,0.0
5838,73.0,0.0,120.0,0.0,0.0
5839,53.0,0.0,120.0,3.0,0.0
5840,80.0,0.0,240.0,15.0,0.0
5841,71.0,0.0,240.0,15.0,0.0
5842,53.0,0.0,120.0,15.0,0.0
5843,73.0,0.0,240.0,15.0,0.0
5844,53.0,0.0,120.0,1.0,0.0
5845,49.0,0.0,120.0,14.0,0.0
5846,71.0,0.0,120.0,5.0,0.0
5847,71.0,120.0,120.0,11.0,0.0
5848,56.0,0.0,120.0,15.0,0.0
5849,73.0,0.0,120.0,2.0,0.0
5850,61.0,0.0,120.0,2.0,0.0
5851,56.0,0.0,120.0,13.0,0.0
5852,56.0,0.0,120.0,3.0,0.0
5853,71.0,0.0,120.0,3.0,0.0
5854,71.0,0.0,120.0,0.0,0.0
5855,56.0,0.0,120.0,1.0,0.0
5856,44.0,0.0,120.0,8.0,0.0
5857,69.0,0.0,120.0,11.0,0.0
5858,78.0,0.0,120.0,0.0,0.0
5859,61.0,0.0,120.0,13.0,0.0
5860,69.0,0.0,120.0,0.0,0.0
5861,78.0,0.0,120.0,4.0,0.0
5862,78.0,0.0,120.0,15.0,0.0
5863,61.0,0.0,120.0,1.0,0.0
5864,49.0,0.0,120.0,14.0,0.0
5865,73.0,0.0,120.0,2.0,0.0
5866,61.0,120.0,120.0,2.0,0.0
5867,78.0,0.0,120.0,10.0,0.0
5868,69.0,0.0,120.0,15.0,0.0
5869,69.0,0.0,120.0,3.0,0.0
5870,49.0,0.0,120.0,8.0,0.0
5871,69.0,0.0,120.0,5.0,0.0
5872,61.0,0.0,120.0,15.0,0.0
5873,61.0,0.0,120.0,3.0,0.0
5874,59.0,0.0,120.0,3.0,0.0
5875,68.0,0.0,120.0,3.0,0.0
5876,59.0,0.0,120.0,15.0,0.0
5877,47.0,0.0,120.0,8.0,0.0
5878,73.0,60.0,120.0,15.0,0.0
5879,77.0,0.0,120.0,10.0,0.0
5880,61.0,0.0,120.0,2.0,0.0
5881,68.0,0.0,120.0,5.0,0.0
5882,73.0,0.0,120.0,2.0,0.0
5883,77.0,0.0,120.0,4.0,0.0
5884,59.0,0.0,120.0,1.0,0.0
5885,68.0,0.0,120.0,11.0,0.0
5886,77.0,0.0,120.0,0.0,0.0
5887,68.0,0.0,120.0,0.0,0.0
5888,59.0,0.0,120.0,13.0,0.0
5889,49.0,0.0,120.0,14.0,0.0
5890,77.0,0.0,120.0,15.0,0.0
5891,66.0,0.0,180.0,11.0,0.0
5892,66.0,0.0,480.0,12.0,0.0
5893,57.0,0.0,60.0,1.0,0.0
5894,66.0,0.0,480.0,1.0,0.0
5895,66.0,0.0,480.0,6.0,0.0
5896,66.0,60.0,180.0,3.0,0.0
5897,78.0,0.0,240.0,10.0,0.0
5898,57.0,60.0,60.0,3.0,0.0
5899,54.0,0.0,240.0,14.0,0.0
5900,66.0,0.0,180.0,5.0,0.0
5901,78.0,0.0,240.0,15.0,0.0
5902,45.0,0.0,60.0,8.0,0.0
5903,78.0,0.0,240.0,4.0,0.0
5904,57.0,0.0,60.0,13.0,0.0
5905,78.0,0.0,240.0,0.0,0.0
5906,57.0,0.0,60.0,15.0,0.0
5907,66.0,0.0,180.0,0.0,0.0
5908,66.0,0.0,240.0,2.0,0.0
5909,73.0,0.0,240.0,2.0,0.0
5910,73.0,0.0,240.0,15.0,0.0
5911,56.0,60.0,60.0,1.0,0.0
5912,56.0,0.0,60.0,3.0,0.0
5913,56.0,0.0,60.0,15.0,0.0
5914,56.0,0.0,60.0,13.0,0.0
5915,44.0,0.0,60.0,8.0,0.0
5916,54.0,0.0,60.0,15.0,0.0
5917,54.0,0.0,60.0,13.0,0.0
5918,54.0,0.0,60.0,1.0,0.0
5919,42.0,0.0,60.0,8.0,0.0
5920,54.0,0.0,60.0,3.0,0.0
5921,68.0,0.0,60.0,0.0,0.0
5922,68.0,0.0,60.0,5.0,0.0
5923,52.0,0.0,60.0,13.0,0.0
5924,52.0,0.0,60.0,3.0,0.0
5925,52.0,0.0,60.0,15.0,0.0
5926,52.0,0.0,60.0,1.0,0.0
5927,68.0,0.0,60.0,3.0,0.0
5928,40.0,0.0,60.0,8.0,0.0
5929,68.0,120.0,60.0,11.0,0.0
5930,51.0,0.0,240.0,15.0,0.0
5931,51.0,0.0,240.0,3.0,0.0
5932,39.0,0.0,240.0,8.0,0.0
5933,70.0,0.0,120.0,15.0,0.0
5934,70.0,0.0,120.0,3.0,0.0
5935,70.0,0.0,120.0,11.0,0.0
5936,51.0,0.0,240.0,1.0,0.0
5937,70.0,0.0,120.0,5.0,0.0
5938,51.0,0.0,240.0,13.0,0.0
5939,70.0,0.0,120.0,0.0,0.0
5940,66.0,120.0,120.0,15.0,0.0
5941,72.0,0.0,120.0,5.0,0.0
5942,72.0,0.0,120.0,11.0,0.0
5943,72.0,0.0,120.0,15.0,0.0
5944,66.0,0.0,120.0,15.0,0.0
5945,72.0,0.0,120.0,0.0,0.0
5946,72.0,120.0,120.0,3.0,0.0
5947,64.0,120.0,240.0,15.0,0.0
5948,52.0,0.0,240.0,15.0,0.0
5949,68.0,0.0,240.0,15.0,0.0
5950,52.0,0.0,240.0,1.0,0.0
5951,64.0,0.0,240.0,1.0,0.0
5952,73.0,0.0,240.0,15.0,0.0
5953,64.0,0.0,240.0,6.0,0.0
5954,73.0,0.0,120.0,5.0,0.0
5955,52.0,0.0,240.0,3.0,0.0
5956,52.0,0.0,240.0,13.0,0.0
5957,73.0,0.0,120.0,0.0,0.0
5958,73.0,0.0,120.0,3.0,0.0
5959,73.0,120.0,120.0,11.0,0.0
5960,40.0,0.0,240.0,8.0,0.0
5961,64.0,0.0,240.0,12.0,0.0
5962,64.0,0.0,240.0,3.0,0.0
5963,68.0,0.0,240.0,5.0,0.0
5964,68.0,0.0,240.0,0.0,0.0
5965,68.0,0.0,240.0,11.0,0.0
5966,68.0,0.0,240.0,3.0,0.0
5967,76.0,60.0,120.0,15.0,0.0
5968,54.0,0.0,240.0,3.0,0.0
5969,54.0,0.0,240.0,13.0,0.0
5970,69.0,0.0,240.0,15.0,0.0
5971,54.0,0.0,240.0,1.0,0.0
5972,68.0,0.0,120.0,15.0,0.0
5973,73.0,0.0,120.0,15.0,0.0
5974,42.0,0.0,240.0,8.0,0.0
5975,69.0,0.0,240.0,12.0,0.0
5976,69.0,0.0,240.0,3.0,0.0
5977,69.0,0.0,240.0,6.0,0.0
5978,69.0,0.0,240.0,1.0,0.0
5979,54.0,0.0,240.0,15.0,0.0
5980,66.0,0.0,60.0,0.0,0.0
5981,75.0,0.0,60.0,15.0,0.0
5982,66.0,0.0,60.0,15.0,0.0
5983,66.0,0.0,60.0,5.0,0.0
5984,66.0,0.0,60.0,3.0,0.0
5985,66.0,60.0,60.0,11.0,0.0
5986,64.0,240.0,60.0,5.0,0.0
5987,73.0,0.0,60.0,15.0,0.0
5988,64.0,0.0,60.0,15.0,0.0
5989,64.0,0.0,60.0,0.0,0.0
5990,64.0,0.0,60.0,11.0,0.0
5991,64.0,0.0,60.0,3.0,0.0
5992,56.0,120.0,240.0,1.0,0.0
5993,56.0,0.0,240.0,3.0,0.0
5994,62.0,0.0,240.0,3.0,0.0
5995,56.0,0.0,240.0,13.0,0.0
5996,62.0,0.0,240.0,11.0,0.0
5997,60.0,0.0,480.0,1.0,0.0
5998,63.0,0.0,240.0,0.0,0.0
5999,60.0,0.0,480.0,6.0,0.0
6000,44.0,0.0,240.0,8.0,0.0
6001,60.0,0.0,480.0,3.0,0.0
6002,72.0,0.0,240.0,15.0,0.0
6003,60.0,60.0,480.0,12.0,0.0
6004,56.0,0.0,240.0,15.0,0.0
6005,75.0,0.0,240.0,15.0,0.0
6006,63.0,0.0,240.0,5.0,0.0
6007,75.0,0.0,120.0,4.0,0.0
6008,75.0,0.0,120.0,10.0,0.0
6009,75.0,0.0,120.0,0.0,0.0
6010,56.0,0.0,120.0,13.0,0.0
6011,75.0,120.0,120.0,4.0,0.0
6012,75.0,0.0,120.0,10.0,0.0
6013,56.0,0.0,120.0,1.0,0.0
6014,56.0,0.0,120.0,3.0,0.0
6015,75.0,0.0,120.0,0.0,0.0
6016,44.0,0.0,120.0,8.0,0.0
6017,56.0,0.0,120.0,13.0,0.0
6018,75.0,0.0,120.0,4.0,0.0
6019,75.0,0.0,120.0,0.0,0.0
6020,72.0,0.0,120.0,15.0,0.0
6021,75.0,0.0,120.0,15.0,0.0
6022,75.0,0.0,120.0,10.0,0.0
6023,56.0,0.0,120.0,3.0,0.0
6024,56.0,0.0,120.0,1.0,0.0
6025,56.0,0.0,120.0,15.0,0.0
6026,61.0,0.0,240.0,3.0,0.0
6027,61.0,0.0,300.0,13.0,0.0
6028,61.0,0.0,300.0,1.0,0.0
6029,49.0,0.0,300.0,8.0,0.0
6030,68.0,0.0,480.0,15.0,0.0
6031,61.0,0.0,300.0,15.0,0.0
6032,76.0,0.0,480.0,15.0,0.0
6033,76.0,60.0,60.0,0.0,0.0
6034,61.0,60.0,240.0,12.0,0.0
6035,76.0,0.0,60.0,10.0,0.0
6036,61.0,0.0,240.0,6.0,0.0
6037,76.0,0.0,60.0,4.0,0.0
6038,78.0,60.0,60.0,4.0,0.0
6039,78.0,0.0,60.0,10.0,0.0
6040,78.0,0.0,60.0,0.0,0.0
6041,68.0,0.0,120.0,5.0,0.0
6042,76.0,0.0,60.0,0.0,0.0
6043,68.0,0.0,120.0,0.0,0.0
6044,76.0,60.0,60.0,10.0,0.0
6045,76.0,0.0,60.0,4.0,0.0
6046,68.0,0.0,120.0,3.0,0.0
6047,68.0,0.0,120.0,11.0,0.0
6048,75.0,0.0,60.0,0.0,0.0
6049,75.0,0.0,60.0,4.0,0.0
6050,75.0,0.0,60.0,10.0,0.0
6051,73.0,0.0,300.0,11.0,0.0
6052,61.0,0.0,120.0,12.0,0.0
6053,73.0,0.0,300.0,5.0,0.0
6054,73.0,60.0,300.0,3.0,0.0
6055,73.0,0.0,300.0,0.0,0.0
6056,76.0,60.0,60.0,0.0,0.0
6057,61.0,0.0,120.0,6.0,0.0
6058,76.0,0.0,60.0,10.0,0.0
6059,76.0,0.0,60.0,4.0,0.0
6060,61.0,0.0,60.0,3.0,0.0
6061,47.0,0.0,60.0,8.0,0.0
6062,59.0,60.0,60.0,13.0,0.0
6063,59.0,0.0,60.0,1.0,0.0
6064,78.0,0.0,60.0,4.0,0.0
6065,59.0,0.0,60.0,3.0,0.0
6066,78.0,0.0,60.0,0.0,0.0
6067,78.0,0.0,60.0,10.0,0.0
6068,59.0,0.0,60.0,15.0,0.0
6069,61.0,0.0,120.0,3.0,0.0
6070,57.0,0.0,60.0,3.0,0.0
6071,61.0,0.0,120.0,6.0,0.0
6072,57.0,0.0,60.0,15.0,0.0
6073,57.0,0.0,60.0,13.0,0.0
6074,75.0,0.0,60.0,10.0,0.0
6075,57.0,0.0,60.0,1.0,0.0
6076,61.0,0.0,120.0,1.0,0.0
6077,61.0,0.0,120.0,12.0,0.0
6078,75.0,60.0,60.0,0.0,0.0
6079,75.0,0.0,60.0,4.0,0.0
6080,45.0,0.0,60.0,8.0,0.0
6081,56.0,0.0,60.0,15.0,0.0
6082,44.0,0.0,60.0,8.0,0.0
6083,56.0,0.0,60.0,13.0,0.0
6084,76.0,60.0,60.0,10.0,0.0
6085,76.0,0.0,60.0,0.0,0.0
6086,56.0,0.0,60.0,3.0,0.0
6087,56.0,0.0,60.0,1.0,0.0
6088,76.0,0.0,60.0,4.0,0.0
6089,78.0,0.0,60.0,4.0,0.0
6090,63.0,0.0,360.0,1.0,0.0
6091,63.0,0.0,360.0,6.0,0.0
6092,57.0,60.0,120.0,1.0,0.0
6093,78.0,0.0,60.0,0.0,0.0
6094,66.0,0.0,240.0,15.0,0.0
6095,45.0,0.0,120.0,8.0,0.0
6096,78.0,0.0,60.0,10.0,0.0
6097,57.0,0.0,120.0,15.0,0.0
6098,63.0,0.0,360.0,12.0,0.0
6099,63.0,0.0,240.0,15.0,0.0
6100,73.0,0.0,240.0,15.0,0.0
6101,63.0,0.0,360.0,3.0,0.0
6102,57.0,0.0,120.0,3.0,0.0
6103,57.0,0.0,120.0,13.0,0.0
6104,71.0,0.0,60.0,3.0,0.0
6105,71.0,0.0,60.0,11.0,0.0
6106,80.0,0.0,60.0,0.0,0.0
6107,71.0,0.0,60.0,0.0,0.0
6108,80.0,0.0,60.0,10.0,0.0
6109,71.0,0.0,60.0,5.0,0.0
6110,80.0,0.0,60.0,4.0,0.0
6111,78.0,0.0,60.0,0.0,0.0
6112,54.0,0.0,120.0,3.0,0.0
6113,54.0,0.0,120.0,15.0,0.0
6114,42.0,0.0,120.0,8.0,0.0
6115,69.0,0.0,60.0,5.0,0.0
6116,78.0,0.0,60.0,4.0,0.0
6117,69.0,60.0,60.0,11.0,0.0
6118,69.0,0.0,60.0,3.0,0.0
6119,78.0,0.0,60.0,10.0,0.0
6120,54.0,60.0,120.0,13.0,0.0
6121,54.0,0.0,120.0,1.0,0.0
6122,69.0,0.0,60.0,0.0,0.0
6123,76.0,0.0,60.0,4.0,0.0
6124,68.0,0.0,60.0,5.0,0.0
6125,68.0,0.0,60.0,11.0,0.0
6126,76.0,0.0,60.0,0.0,0.0
6127,68.0,0.0,60.0,0.0,0.0
6128,76.0,0.0,60.0,10.0,0.0
6129,68.0,0.0,60.0,3.0,0.0
6130,59.0,0.0,240.0,13.0,0.0
6131,69.0,60.0,120.0,11.0,0.0
6132,78.0,0.0,60.0,0.0,0.0
6133,78.0,0.0,60.0,4.0,0.0
6134,78.0,0.0,240.0,15.0,0.0
6135,59.0,0.0,240.0,15.0,0.0
6136,69.0,0.0,120.0,0.0,0.0
6137,78.0,60.0,60.0,10.0,0.0
6138,59.0,0.0,240.0,1.0,0.0
6139,71.0,0.0,120.0,15.0,0.0
6140,63.0,0.0,240.0,15.0,0.0
6141,47.0,0.0,240.0,8.0,0.0
6142,59.0,0.0,240.0,3.0,0.0
6143,69.0,0.0,120.0,3.0,0.0
6144,69.0,0.0,120.0,5.0,0.0
6145,80.0,0.0,60.0,4.0,0.0
6146,80.0,0.0,60.0,0.0,0.0
6147,80.0,0.0,60.0,10.0,0.0
6148,61.0,0.0,60.0,12.0,0.0
6149,61.0,0.0,60.0,1.0,0.0
6150,76.0,0.0,60.0,10.0,0.0
6151,71.0,0.0,60.0,5.0,0.0
6152,76.0,0.0,60.0,4.0,0.0
6153,76.0,0.0,60.0,0.0,0.0
6154,69.0,0.0,120.0,15.0,0.0
6155,61.0,60.0,60.0,6.0,0.0
6156,71.0,0.0,60.0,11.0,0.0
6157,61.0,0.0,60.0,3.0,0.0
6158,71.0,0.0,60.0,0.0,0.0
6159,71.0,0.0,60.0,3.0,0.0
6160,78.0,120.0,60.0,0.0,0.0
6161,69.0,0.0,60.0,0.0,0.0
6162,63.0,0.0,60.0,1.0,0.0
6163,63.0,0.0,60.0,3.0,0.0
6164,69.0,0.0,60.0,11.0,0.0
6165,69.0,0.0,60.0,3.0,0.0
6166,63.0,0.0,60.0,6.0,0.0
6167,69.0,0.0,60.0,5.0,0.0
6168,63.0,0.0,60.0,12.0,0.0
6169,78.0,0.0,60.0,4.0,0.0
6170,78.0,0.0,60.0,10.0,0.0
6171,64.0,0.0,120.0,3.0,0.0
6172,52.0,0.0,120.0,13.0,0.0
6173,64.0,0.0,120.0,12.0,0.0
6174,68.0,0.0,240.0,5.0,0.0
6175,73.0,0.0,240.0,15.0,0.0
6176,52.0,0.0,120.0,15.0,0.0
6177,68.0,0.0,240.0,15.0,0.0
6178,64.0,0.0,120.0,1.0,0.0
6179,52.0,0.0,120.0,3.0,0.0
6180,68.0,60.0,240.0,11.0,0.0
6181,80.0,0.0,120.0,4.0,0.0
6182,80.0,60.0,120.0,0.0,0.0
6183,68.0,0.0,240.0,0.0,0.0
6184,80.0,0.0,120.0,10.0,0.0
6185,52.0,0.0,120.0,1.0,0.0
6186,64.0,0.0,120.0,6.0,0.0
6187,68.0,0.0,240.0,3.0,0.0
6188,40.0,0.0,120.0,8.0,0.0
6189,49.0,0.0,120.0,1.0,0.0
6190,63.0,0.0,60.0,3.0,0.0
6191,81.0,0.0,60.0,4.0,0.0
6192,49.0,0.0,120.0,3.0,0.0
6193,49.0,0.0,120.0,15.0,0.0
6194,81.0,60.0,60.0,10.0,0.0
6195,63.0,0.0,60.0,1.0,0.0
6196,63.0,0.0,60.0,6.0,0.0
6197,37.0,0.0,120.0,8.0,0.0
6198,49.0,0.0,120.0,13.0,0.0
6199,63.0,0.0,60.0,12.0,0.0
6200,81.0,0.0,60.0,0.0,0.0
6201,64.0,0.0,60.0,6.0,0.0
6202,80.0,0.0,60.0,0.0,0.0
6203,64.0,0.0,60.0,12.0,0.0
6204,64.0,0.0,60.0,3.0,0.0
6205,64.0,0.0,60.0,1.0,0.0
6206,80.0,0.0,60.0,10.0,0.0
6207,80.0,0.0,60.0,4.0,0.0
6208,78.0,60.0,60.0,4.0,0.0
6209,78.0,0.0,60.0,10.0,0.0
6210,45.0,0.0,240.0,8.0,0.0
6211,66.0,0.0,120.0,6.0,0.0
6212,57.0,0.0,240.0,3.0,0.0
6213,66.0,0.0,240.0,15.0,0.0
6214,78.0,0.0,60.0,0.0,0.0
6215,57.0,120.0,240.0,15.0,0.0
6216,66.0,0.0,120.0,3.0,0.0
6217,66.0,60.0,120.0,12.0,0.0
6218,57.0,0.0,240.0,1.0,0.0
6219,66.0,0.0,120.0,1.0,0.0
6220,73.0,0.0,240.0,15.0,0.0
6221,57.0,0.0,240.0,13.0,0.0
6222,76.0,0.0,60.0,0.0,0.0
6223,76.0,0.0,60.0,4.0,0.0
6224,76.0,0.0,60.0,10.0,0.0
6225,75.0,0.0,60.0,4.0,0.0
6226,64.0,0.0,60.0,6.0,0.0
6227,75.0,0.0,60.0,10.0,0.0
6228,75.0,0.0,60.0,0.0,0.0
6229,64.0,60.0,60.0,3.0,0.0
6230,64.0,0.0,60.0,12.0,0.0
6231,64.0,0.0,60.0,1.0,0.0
6232,73.0,0.0,60.0,10.0,0.0
6233,73.0,0.0,60.0,4.0,0.0
6234,66.0,0.0,60.0,6.0,0.0
6235,66.0,0.0,60.0,3.0,0.0
6236,66.0,0.0,60.0,1.0,0.0
6237,73.0,0.0,60.0,0.0,0.0
6238,66.0,0.0,60.0,12.0,0.0
6239,44.0,0.0,120.0,8.0,0.0
6240,75.0,0.0,120.0,15.0,0.0
6241,72.0,0.0,120.0,15.0,0.0
6242,56.0,0.0,120.0,15.0,0.0
6243,72.0,0.0,120.0,0.0,0.0
6244,56.0,0.0,240.0,13.0,0.0
6245,68.0,0.0,120.0,3.0,0.0
6246,56.0,0.0,240.0,1.0,0.0
6247,68.0,0.0,120.0,1.0,0.0
6248,68.0,0.0,120.0,6.0,0.0
6249,72.0,0.0,120.0,10.0,0.0
6250,56.0,0.0,240.0,3.0,0.0
6251,68.0,120.0,120.0,12.0,0.0
6252,72.0,0.0,120.0,4.0,0.0
6253,66.0,0.0,120.0,7.0,0.0
6254,68.0,0.0,120.0,5.0,0.0
6255,68.0,0.0,120.0,0.0,0.0
6256,75.0,0.0,120.0,0.0,0.0
6257,68.0,0.0,120.0,11.0,0.0
6258,66.0,0.0,120.0,1.0,0.0
6259,66.0,0.0,120.0,6.0,0.0
6260,75.0,0.0,120.0,10.0,0.0
6261,66.0,120.0,120.0,3.0,0.0
6262,68.0,0.0,120.0,15.0,0.0
6263,75.0,0.0,120.0,4.0,0.0
6264,66.0,0.0,120.0,12.0,0.0
6265,72.0,0.0,120.0,15.0,0.0
6266,66.0,0.0,120.0,15.0,0.0
6267,68.0,0.0,120.0,3.0,0.0
6268,75.0,0.0,120.0,15.0,0.0
6269,70.0,0.0,120.0,15.0,0.0
6270,64.0,0.0,120.0,12.0,0.0
6271,70.0,0.0,120.0,11.0,0.0
6272,70.0,0.0,120.0,5.0,0.0
6273,64.0,0.0,120.0,15.0,0.0
6274,80.0,0.0,120.0,15.0,0.0
6275,73.0,120.0,120.0,15.0,0.0
6276,80.0,0.0,120.0,10.0,0.0
6277,64.0,0.0,120.0,6.0,0.0
6278,80.0,0.0,120.0,4.0,0.0
6279,80.0,0.0,120.0,0.0,0.0
6280,70.0,0.0,120.0,0.0,0.0
6281,64.0,0.0,120.0,3.0,0.0
6282,70.0,0.0,120.0,3.0,0.0
6283,64.0,0.0,120.0,1.0,0.0
6284,64.0,0.0,120.0,7.0,0.0
6285,63.0,0.0,120.0,7.0,0.0
6286,63.0,0.0,120.0,6.0,0.0
6287,78.0,0.0,120.0,10.0,0.0
6288,78.0,0.0,120.0,0.0,0.0
6289,72.0,0.0,120.0,0.0,0.0
6290,63.0,0.0,120.0,3.0,0.0
6291,63.0,0.0,120.0,15.0,0.0
6292,78.0,0.0,120.0,4.0,0.0
6293,72.0,0.0,120.0,3.0,0.0
6294,72.0,0.0,120.0,15.0,0.0
6295,78.0,60.0,120.0,15.0,0.0
6296,72.0,0.0,120.0,5.0,0.0
6297,63.0,0.0,120.0,12.0,0.0
6298,72.0,0.0,120.0,11.0,0.0
6299,63.0,0.0,120.0,1.0,0.0
6300,61.0,0.0,60.0,3.0,0.0
6301,76.0,0.0,60.0,10.0,0.0
6302,73.0,0.0,240.0,15.0,0.0
6303,61.0,0.0,120.0,7.0,0.0
6304,61.0,0.0,120.0,15.0,0.0
6305,76.0,0.0,60.0,4.0,0.0
6306,76.0,0.0,60.0,0.0,0.0
6307,61.0,0.0,60.0,1.0,0.0
6308,73.0,0.0,240.0,11.0,0.0
6309,61.0,0.0,60.0,6.0,0.0
6310,73.0,0.0,240.0,5.0,0.0
6311,76.0,0.0,240.0,15.0,0.0
6312,61.0,60.0,60.0,12.0,0.0
6313,73.0,0.0,240.0,3.0,0.0
6314,69.0,0.0,240.0,15.0,0.0
6315,63.0,0.0,60.0,1.0,0.0
6316,63.0,0.0,60.0,12.0,0.0
6317,75.0,0.0,60.0,4.0,0.0
6318,75.0,60.0,60.0,10.0,0.0
6319,75.0,0.0,60.0,0.0,0.0
6320,63.0,0.0,60.0,3.0,0.0
6321,63.0,0.0,60.0,6.0,0.0
6322,61.0,60.0,60.0,15.0,0.0
6323,64.0,0.0,240.0,12.0,0.0
6324,49.0,0.0,60.0,8.0,0.0
6325,73.0,0.0,180.0,4.0,0.0
6326,61.0,0.0,60.0,1.0,0.0
6327,64.0,0.0,240.0,1.0,0.0
6328,61.0,0.0,60.0,3.0,0.0
6329,64.0,0.0,240.0,3.0,0.0
6330,64.0,0.0,240.0,6.0,0.0
6331,73.0,0.0,180.0,10.0,0.0
6332,61.0,0.0,60.0,13.0,0.0
6333,73.0,60.0,120.0,0.0,0.0
6334,59.0,0.0,60.0,1.0,0.0
6335,59.0,0.0,60.0,3.0,0.0
6336,47.0,0.0,60.0,8.0,0.0
6337,59.0,0.0,60.0,13.0,0.0
6338,59.0,0.0,60.0,15.0,0.0
6339,57.0,0.0,120.0,3.0,0.0
6340,57.0,0.0,120.0,13.0,0.0
6341,57.0,0.0,120.0,15.0,0.0
6342,76.0,0.0,120.0,15.0,0.0
6343,57.0,0.0,120.0,1.0,0.0
6344,45.0,0.0,120.0,8.0,0.0
6345,73.0,0.0,120.0,15.0,0.0
6346,74.0,0.0,60.0,0.0,0.0
6347,74.0,0.0,60.0,4.0,0.0
6348,74.0,60.0,60.0,10.0,0.0
6349,55.0,120.0,120.0,15.0,0.0
6350,55.0,0.0,120.0,1.0,0.0
6351,65.0,0.0,120.0,1.0,0.0
6352,65.0,0.0,120.0,6.0,0.0
6353,55.0,0.0,120.0,3.0,0.0
6354,65.0,0.0,120.0,3.0,0.0
6355,43.0,0.0,120.0,8.0,0.0
6356,71.0,0.0,60.0,0.0,0.0
6357,71.0,60.0,60.0,4.0,0.0
6358,71.0,0.0,60.0,10.0,0.0
6359,65.0,0.0,120.0,12.0,0.0
6360,71.0,0.0,120.0,15.0,0.0
6361,55.0,0.0,120.0,13.0,0.0
6362,77.0,0.0,120.0,15.0,0.0
6363,73.0,0.0,60.0,0.0,0.0
6364,73.0,0.0,60.0,10.0,0.0
6365,73.0,0.0,60.0,4.0,0.0
6366,66.0,0.0,120.0,6.0,0.0
6367,70.0,0.0,240.0,4.0,0.0
6368,73.0,0.0,120.0,15.0,0.0
6369,42.0,0.0,120.0,8.0,0.0
6370,70.0,0.0,120.0,15.0,0.0
6371,66.0,0.0,120.0,3.0,0.0
6372,66.0,0.0,120.0,12.0,0.0
6373,54.0,0.0,120.0,15.0,0.0
6374,70.0,0.0,240.0,10.0,0.0
6375,70.0,0.0,240.0,0.0,0.0
6376,54.0,0.0,240.0,13.0,0.0
6377,66.0,120.0,120.0,1.0,0.0
6378,73.0,0.0,120.0,0.0,0.0
6379,54.0,0.0,120.0,1.0,0.0
6380,73.0,0.0,120.0,3.0,0.0
6381,73.0,0.0,120.0,5.0,0.0
6382,73.0,0.0,120.0,15.0,0.0
6383,70.0,0.0,120.0,15.0,0.0
6384,54.0,0.0,120.0,15.0,0.0
6385,54.0,0.0,120.0,3.0,0.0
6386,54.0,0.0,120.0,7.0,0.0
6387,54.0,0.0,120.0,6.0,0.0
6388,54.0,0.0,120.0,12.0,0.0
6389,73.0,0.0,120.0,11.0,0.0
6390,78.0,0.0,120.0,3.0,0.0
6391,71.0,0.0,120.0,4.0,0.0
6392,56.0,0.0,120.0,1.0,0.0
6393,78.0,0.0,120.0,15.0,0.0
6394,56.0,0.0,120.0,12.0,0.0
6395,56.0,0.0,120.0,3.0,0.0
6396,56.0,0.0,120.0,7.0,0.0
6397,78.0,0.0,120.0,5.0,0.0
6398,74.0,0.0,120.0,15.0,0.0
6399,71.0,0.0,120.0,0.0,0.0
6400,78.0,0.0,120.0,11.0,0.0
6401,56.0,0.0,120.0,6.0,0.0
6402,71.0,120.0,120.0,10.0,0.0
6403,78.0,0.0,120.0,0.0,0.0
6404,56.0,0.0,120.0,15.0,0.0
6405,71.0,0.0,120.0,15.0,0.0
6406,73.0,0.0,120.0,15.0,0.0
6407,58.0,0.0,120.0,3.0,0.0
6408,58.0,0.0,120.0,1.0,0.0
6409,76.0,0.0,120.0,3.0,0.0
6410,73.0,0.0,120.0,10.0,0.0
6411,58.0,60.0,120.0,7.0,0.0
6412,76.0,0.0,120.0,11.0,0.0
6413,58.0,0.0,120.0,6.0,0.0
6414,76.0,0.0,120.0,15.0,0.0
6415,58.0,0.0,120.0,15.0,0.0
6416,76.0,0.0,120.0,5.0,0.0
6417,58.0,0.0,120.0,12.0,0.0
6418,76.0,0.0,120.0,0.0,0.0
6419,73.0,0.0,120.0,0.0,0.0
6420,68.0,0.0,120.0,15.0,0.0
6421,73.0,0.0,120.0,4.0,0.0
6422,74.0,0.0,60.0,3.0,0.0
6423,59.0,60.0,60.0,6.0,0.0
6424,59.0,0.0,60.0,3.0,0.0
6425,59.0,0.0,60.0,1.0,0.0
6426,66.0,0.0,240.0,4.0,0.0
6427,66.0,0.0,240.0,0.0,0.0
6428,74.0,0.0,240.0,15.0,0.0
6429,74.0,0.0,60.0,0.0,0.0
6430,74.0,0.0,60.0,5.0,0.0
6431,59.0,0.0,60.0,12.0,0.0
6432,59.0,0.0,120.0,7.0,0.0
6433,59.0,60.0,120.0,15.0,0.0
6434,66.0,0.0,240.0,10.0,0.0
6435,66.0,0.0,240.0,15.0,0.0
6436,74.0,0.0,60.0,11.0,0.0
6437,73.0,0.0,60.0,5.0,0.0
6438,61.0,0.0,60.0,1.0,0.0
6439,61.0,0.0,60.0,3.0,0.0
6440,61.0,0.0,60.0,6.0,0.0
6441,61.0,0.0,60.0,12.0,0.0
6442,73.0,0.0,60.0,3.0,0.0
6443,73.0,0.0,60.0,11.0,0.0
6444,73.0,0.0,60.0,0.0,0.0
6445,62.0,0.0,240.0,12.0,0.0
6446,71.0,0.0,180.0,11.0,0.0
6447,62.0,0.0,240.0,1.0,0.0
6448,62.0,0.0,240.0,3.0,0.0
6449,59.0,0.0,60.0,1.0,0.0
6450,59.0,0.0,60.0,15.0,0.0
6451,59.0,60.0,60.0,13.0,0.0
6452,71.0,60.0,180.0,3.0,0.0
6453,59.0,0.0,60.0,3.0,0.0
6454,62.0,0.0,240.0,6.0,0.0
6455,71.0,0.0,180.0,5.0,0.0
6456,71.0,0.0,180.0,0.0,0.0
6457,47.0,0.0,60.0,8.0,0.0
6458,45.0,0.0,60.0,8.0,0.0
6459,57.0,60.0,60.0,15.0,0.0
6460,57.0,0.0,60.0,13.0,0.0
6461,57.0,0.0,60.0,1.0,0.0
6462,57.0,0.0,60.0,3.0,0.0
6463,56.0,0.0,120.0,3.0,0.0
6464,56.0,0.0,120.0,1.0,0.0
6465,56.0,0.0,120.0,15.0,0.0
6466,74.0,0.0,120.0,15.0,0.0
6467,71.0,0.0,120.0,15.0,0.0
6468,44.0,0.0,120.0,8.0,0.0
6469,56.0,0.0,120.0,13.0,0.0
6470,73.0,0.0,60.0,11.0,0.0
6471,73.0,60.0,60.0,3.0,0.0
6472,73.0,0.0,60.0,5.0,0.0
6473,73.0,0.0,60.0,0.0,0.0
6474,42.0,120.0,120.0,8.0,0.0
6475,75.0,0.0,120.0,15.0,0.0
6476,54.0,0.0,120.0,3.0,0.0
6477,54.0,0.0,120.0,13.0,0.0
6478,69.0,0.0,60.0,0.0,0.0
6479,63.0,0.0,120.0,3.0,0.0
6480,69.0,0.0,60.0,3.0,0.0
6481,69.0,0.0,120.0,15.0,0.0
6482,63.0,0.0,120.0,6.0,0.0
6483,69.0,60.0,60.0,5.0,0.0
6484,54.0,0.0,120.0,1.0,0.0
6485,69.0,0.0,60.0,11.0,0.0
6486,54.0,0.0,120.0,15.0,0.0
6487,63.0,0.0,120.0,1.0,0.0
6488,63.0,0.0,120.0,12.0,0.0
6489,71.0,0.0,60.0,5.0,0.0
6490,71.0,0.0,60.0,11.0,0.0
6491,71.0,0.0,60.0,0.0,0.0
6492,71.0,0.0,60.0,3.0,0.0
6493,76.0,0.0,480.0,10.0,0.0
6494,64.0,120.0,120.0,3.0,0.0
6495,68.0,0.0,240.0,11.0,0.0
6496,64.0,0.0,120.0,12.0,0.0
6497,64.0,0.0,120.0,1.0,0.0
6498,68.0,0.0,240.0,3.0,0.0
6499,52.0,0.0,240.0,13.0,0.0
6500,76.0,0.0,480.0,0.0,0.0
6501,68.0,0.0,240.0,0.0,0.0
6502,52.0,0.0,240.0,3.0,0.0
6503,64.0,0.0,120.0,6.0,0.0
6504,68.0,0.0,240.0,5.0,0.0
6505,76.0,0.0,480.0,4.0,0.0
6506,71.0,0.0,240.0,15.0,0.0
6507,76.0,0.0,120.0,15.0,0.0
6508,68.0,0.0,240.0,15.0,0.0
6509,52.0,0.0,240.0,15.0,0.0
6510,52.0,0.0,240.0,1.0,0.0
6511,40.0,0.0,240.0,8.0,0.0
6512,62.0,0.0,120.0,1.0,0.0
6513,62.0,0.0,120.0,3.0,0.0
6514,62.0,120.0,120.0,6.0,0.0
6515,62.0,0.0,120.0,12.0,0.0
6516,74.0,0.0,120.0,15.0,0.0
6517,76.0,0.0,120.0,15.0,0.0
6518,61.0,0.0,120.0,12.0,0.0
6519,69.0,0.0,120.0,15.0,0.0
6520,69.0,0.0,120.0,3.0,0.0
6521,73.0,0.0,120.0,15.0,0.0
6522,54.0,0.0,120.0,1.0,0.0
6523,61.0,0.0,120.0,1.0,0.0
6524,54.0,120.0,120.0,15.0,0.0
6525,54.0,0.0,120.0,3.0,0.0
6526,42.0,0.0,120.0,8.0,0.0
6527,69.0,0.0,120.0,11.0,0.0
6528,61.0,0.0,120.0,3.0,0.0
6529,69.0,0.0,120.0,5.0,0.0
6530,69.0,0.0,120.0,0.0,0.0
6531,61.0,0.0,120.0,6.0,0.0
6532,54.0,0.0,120.0,13.0,0.0
6533,56.0,0.0,120.0,15.0,0.0
6534,76.0,0.0,120.0,15.0,0.0
6535,71.0,0.0,120.0,15.0,0.0
6536,59.0,0.0,120.0,1.0,0.0
6537,56.0,0.0,120.0,1.0,0.0
6538,71.0,0.0,120.0,0.0,0.0
6539,44.0,0.0,120.0,8.0,0.0
6540,74.0,0.0,120.0,15.0,0.0
6541,71.0,0.0,120.0,3.0,0.0
6542,71.0,0.0,120.0,5.0,0.0
6543,59.0,0.0,120.0,6.0,0.0
6544,71.0,60.0,120.0,11.0,0.0
6545,59.0,0.0,120.0,3.0,0.0
6546,59.0,0.0,120.0,12.0,0.0
6547,56.0,0.0,120.0,13.0,0.0
6548,56.0,0.0,120.0,3.0,0.0
6549,57.0,0.0,120.0,15.0,0.0
6550,73.0,0.0,120.0,15.0,0.0
6551,69.0,0.0,120.0,15.0,0.0
6552,76.0,60.0,120.0,15.0,0.0
6553,61.0,0.0,60.0,1.0,0.0
6554,64.0,0.0,240.0,3.0,0.0
6555,73.0,0.0,240.0,4.0,0.0
6556,57.0,0.0,240.0,13.0,0.0
6557,73.0,0.0,240.0,0.0,0.0
6558,64.0,0.0,240.0,0.0,0.0
6559,45.0,0.0,120.0,8.0,0.0
6560,73.0,0.0,240.0,10.0,0.0
6561,61.0,0.0,60.0,6.0,0.0
6562,61.0,60.0,60.0,12.0,0.0
6563,64.0,0.0,240.0,11.0,0.0
6564,61.0,0.0,60.0,3.0,0.0
6565,64.0,0.0,240.0,5.0,0.0
6566,57.0,0.0,60.0,6.0,0.0
6567,57.0,0.0,60.0,12.0,0.0
6568,57.0,0.0,60.0,3.0,0.0
6569,57.0,0.0,60.0,1.0,0.0
6570,59.0,0.0,60.0,3.0,0.0
6571,59.0,0.0,60.0,15.0,0.0
6572,59.0,0.0,60.0,7.0,0.0
6573,66.0,0.0,120.0,15.0,0.0
6574,74.0,0.0,120.0,15.0,0.0
6575,59.0,0.0,60.0,1.0,0.0
6576,71.0,0.0,120.0,15.0,0.0
6577,59.0,60.0,60.0,6.0,0.0
6578,59.0,0.0,60.0,12.0,0.0
6579,61.0,0.0,60.0,6.0,0.0
6580,61.0,0.0,60.0,7.0,0.0
6581,61.0,0.0,60.0,12.0,0.0
6582,61.0,0.0,60.0,1.0,0.0
6583,61.0,0.0,60.0,15.0,0.0
6584,61.0,0.0,60.0,3.0,0.0
6585,78.0,0.0,240.0,0.0,0.0
6586,78.0,0.0,240.0,4.0,0.0
6587,71.0,0.0,240.0,15.0,0.0
6588,62.0,0.0,60.0,15.0,0.0
6589,78.0,0.0,240.0,15.0,0.0
6590,69.0,0.0,240.0,15.0,0.0
6591,62.0,0.0,60.0,3.0,0.0
6592,62.0,0.0,60.0,12.0,0.0
6593,78.0,0.0,240.0,10.0,0.0
6594,62.0,0.0,60.0,7.0,0.0
6595,62.0,0.0,60.0,1.0,0.0
6596,62.0,60.0,60.0,6.0,0.0
6597,59.0,0.0,60.0,6.0,0.0
6598,59.0,0.0,60.0,1.0,0.0
6599,59.0,0.0,60.0,3.0,0.0
6600,59.0,60.0,60.0,7.0,0.0
6601,59.0,0.0,60.0,15.0,0.0
6602,59.0,0.0,60.0,12.0,0.0
6603,61.0,60.0,60.0,12.0,0.0
6604,61.0,0.0,60.0,15.0,0.0
6605,61.0,0.0,60.0,6.0,0.0
6606,61.0,0.0,60.0,3.0,0.0
6607,61.0,0.0,60.0,1.0,0.0
6608,61.0,0.0,60.0,7.0,0.0
6609,62.0,120.0,60.0,3.0,0.0
6610,62.0,0.0,60.0,7.0,0.0
6611,62.0,0.0,60.0,12.0,0.0
6612,62.0,0.0,60.0,1.0,0.0
6613,62.0,0.0,60.0,6.0,0.0
6614,62.0,0.0,60.0,15.0,0.0
6615,64.0,0.0,120.0,15.0,0.0
6616,76.0,0.0,120.0,15.0,0.0
6617,68.0,0.0,120.0,15.0,0.0
6618,68.0,0.0,480.0,0.0,0.0
6619,71.0,0.0,120.0,15.0,0.0
6620,64.0,60.0,120.0,7.0,0.0
6621,68.0,0.0,480.0,4.0,0.0
6622,64.0,0.0,120.0,6.0,0.0
6623,68.0,0.0,480.0,10.0,0.0
6624,64.0,0.0,120.0,3.0,0.0
6625,64.0,0.0,120.0,1.0,0.0
6626,64.0,0.0,120.0,12.0,0.0
6627,64.0,0.0,120.0,0.0,0.0
6628,64.0,0.0,120.0,11.0,0.0
6629,40.0,0.0,120.0,8.0,0.0
6630,64.0,0.0,240.0,15.0,0.0
6631,71.0,0.0,240.0,15.0,0.0
6632,52.0,60.0,60.0,15.0,0.0
6633,68.0,0.0,240.0,15.0,0.0
6634,59.0,0.0,120.0,6.0,0.0
6635,59.0,0.0,120.0,12.0,0.0
6636,52.0,0.0,120.0,1.0,0.0
6637,59.0,0.0,120.0,1.0,0.0
6638,64.0,0.0,120.0,5.0,0.0
6639,52.0,0.0,120.0,3.0,0.0
6640,52.0,0.0,120.0,13.0,0.0
6641,64.0,60.0,120.0,3.0,0.0
6642,59.0,0.0,120.0,3.0,0.0
6643,64.0,0.0,120.0,0.0,0.0
6644,40.0,0.0,120.0,8.0,0.0
6645,64.0,0.0,120.0,3.0,0.0
6646,64.0,0.0,360.0,12.0,0.0
6647,64.0,60.0,120.0,11.0,0.0
6648,52.0,60.0,60.0,15.0,0.0
6649,64.0,60.0,360.0,6.0,0.0
6650,52.0,0.0,120.0,13.0,0.0
6651,64.0,0.0,120.0,5.0,0.0
6652,52.0,0.0,120.0,1.0,0.0
6653,52.0,0.0,120.0,3.0,0.0
6654,64.0,0.0,360.0,1.0,0.0
6655,52.0,0.0,120.0,3.0,0.0
6656,71.0,0.0,120.0,15.0,0.0
6657,62.0,0.0,120.0,3.0,0.0
6658,62.0,0.0,120.0,0.0,0.0
6659,62.0,0.0,120.0,15.0,0.0
6660,40.0,60.0,120.0,8.0,0.0
6661,52.0,0.0,120.0,13.0,0.0
6662,62.0,0.0,120.0,5.0,0.0
6663,68.0,0.0,120.0,15.0,0.0
6664,52.0,60.0,60.0,15.0,0.0
6665,52.0,0.0,120.0,1.0,0.0
6666,62.0,0.0,120.0,11.0,0.0
6667,61.0,0.0,120.0,15.0,0.0
6668,54.0,0.0,60.0,15.0,0.0
6669,42.0,0.0,60.0,8.0,0.0
6670,73.0,0.0,120.0,15.0,0.0
6671,61.0,0.0,120.0,3.0,0.0
6672,69.0,0.0,120.0,15.0,0.0
6673,61.0,0.0,120.0,0.0,0.0
6674,61.0,0.0,120.0,5.0,0.0
6675,69.0,0.0,240.0,4.0,0.0
6676,54.0,0.0,60.0,13.0,0.0
6677,61.0,0.0,120.0,11.0,0.0
6678,54.0,0.0,60.0,3.0,0.0
6679,69.0,0.0,240.0,10.0,0.0
6680,54.0,60.0,60.0,1.0,0.0
6681,56.0,0.0,60.0,3.0,0.0
6682,56.0,0.0,60.0,15.0,0.0
6683,56.0,0.0,60.0,1.0,0.0
6684,56.0,0.0,60.0,13.0,0.0
6685,44.0,0.0,60.0,8.0,0.0
6686,69.0,0.0,120.0,11.0,0.0
6687,62.0,0.0,60.0,12.0,0.0
6688,69.0,0.0,120.0,0.0,0.0
6689,54.0,0.0,60.0,1.0,0.0
6690,62.0,60.0,60.0,1.0,0.0
6691,62.0,0.0,60.0,3.0,0.0
6692,42.0,0.0,60.0,8.0,0.0
6693,69.0,0.0,360.0,15.0,0.0
6694,54.0,0.0,60.0,3.0,0.0
6695,62.0,0.0,60.0,6.0,0.0
6696,69.0,0.0,120.0,3.0,0.0
6697,74.0,0.0,360.0,15.0,0.0
6698,69.0,0.0,120.0,5.0,0.0
6699,54.0,0.0,60.0,15.0,0.0
6700,54.0,0.0,60.0,13.0,0.0
6701,40.0,0.0,60.0,8.0,0.0
6702,52.0,0.0,60.0,13.0,0.0
6703,52.0,60.0,60.0,15.0,0.0
6704,61.0,0.0,60.0,1.0,0.0
6705,52.0,0.0,60.0,1.0,0.0
6706,61.0,0.0,60.0,3.0,0.0
6707,61.0,0.0,60.0,6.0,0.0
6708,61.0,0.0,60.0,12.0,0.0
6709,52.0,0.0,60.0,3.0,0.0
6710,54.0,0.0,60.0,1.0,0.0
6711,66.0,0.0,120.0,5.0,0.0
6712,54.0,0.0,60.0,15.0,0.0
6713,62.0,0.0,60.0,1.0,0.0
6714,54.0,0.0,60.0,13.0,0.0
6715,66.0,0.0,120.0,11.0,0.0
6716,62.0,0.0,60.0,6.0,0.0
6717,54.0,60.0,60.0,3.0,0.0
6718,66.0,0.0,120.0,3.0,0.0
6719,62.0,0.0,60.0,12.0,0.0
6720,69.0,0.0,120.0,4.0,0.0
6721,66.0,0.0,120.0,0.0,0.0
6722,69.0,0.0,120.0,0.0,0.0
6723,69.0,0.0,120.0,10.0,0.0
6724,62.0,0.0,60.0,3.0,0.0
6725,42.0,0.0,60.0,8.0,0.0
6726,56.0,60.0,60.0,3.0,0.0
6727,64.0,0.0,60.0,12.0,0.0
6728,64.0,0.0,60.0,6.0,0.0
6729,64.0,0.0,60.0,3.0,0.0
6730,64.0,0.0,60.0,1.0,0.0
6731,56.0,0.0,60.0,15.0,0.0
6732,56.0,0.0,60.0,13.0,0.0
6733,44.0,0.0,60.0,8.0,0.0
6734,56.0,0.0,60.0,1.0,0.0
6735,69.0,0.0,120.0,4.0,0.0
6736,52.0,0.0,60.0,15.0,0.0
6737,61.0,0.0,60.0,6.0,0.0
6738,62.0,0.0,120.0,11.0,0.0
6739,52.0,0.0,60.0,13.0,0.0
6740,62.0,0.0,120.0,5.0,0.0
6741,69.0,0.0,120.0,10.0,0.0
6742,61.0,60.0,60.0,3.0,0.0
6743,69.0,0.0,120.0,0.0,0.0
6744,40.0,0.0,60.0,8.0,0.0
6745,52.0,0.0,60.0,3.0,0.0
6746,52.0,0.0,60.0,1.0,0.0
6747,61.0,0.0,60.0,12.0,0.0
6748,61.0,0.0,60.0,1.0,0.0
6749,62.0,0.0,120.0,0.0,0.0
6750,54.0,0.0,60.0,15.0,0.0
6751,54.0,0.0,60.0,3.0,0.0
6752,42.0,0.0,60.0,8.0,0.0
6753,54.0,0.0,60.0,13.0,0.0
6754,62.0,0.0,60.0,12.0,0.0
6755,54.0,0.0,60.0,1.0,0.0
6756,62.0,60.0,60.0,6.0,0.0
6757,62.0,0.0,60.0,1.0,0.0
6758,62.0,0.0,60.0,3.0,0.0
6759,44.0,0.0,60.0,8.0,0.0
6760,56.0,0.0,60.0,3.0,0.0
6761,59.0,0.0,120.0,12.0,0.0
6762,74.0,0.0,480.0,15.0,0.0
6763,56.0,0.0,60.0,15.0,0.0
6764,56.0,60.0,60.0,13.0,0.0
6765,71.0,0.0,360.0,10.0,0.0
6766,59.0,0.0,120.0,6.0,0.0
6767,59.0,0.0,120.0,1.0,0.0
6768,56.0,0.0,60.0,1.0,0.0
6769,64.0,0.0,480.0,15.0,0.0
6770,71.0,0.0,480.0,15.0,0.0
6771,59.0,60.0,120.0,3.0,0.0
6772,71.0,0.0,360.0,4.0,0.0
6773,45.0,0.0,60.0,8.0,0.0
6774,57.0,0.0,60.0,1.0,0.0
6775,57.0,0.0,60.0,13.0,0.0
6776,57.0,0.0,60.0,3.0,0.0
6777,57.0,0.0,60.0,15.0,0.0
6778,71.0,0.0,120.0,5.0,0.0
6779,71.0,0.0,120.0,3.0,0.0
6780,71.0,0.0,120.0,0.0,0.0
6781,71.0,0.0,120.0,11.0,0.0
6782,56.0,0.0,60.0,15.0,0.0
6783,56.0,0.0,60.0,13.0,0.0
6784,56.0,0.0,60.0,1.0,0.0
6785,56.0,0.0,60.0,3.0,0.0
6786,61.0,0.0,60.0,3.0,0.0
6787,61.0,60.0,60.0,1.0,0.0
6788,44.0,0.0,60.0,8.0,0.0
6789,61.0,0.0,60.0,12.0,0.0
6790,61.0,0.0,60.0,6.0,0.0
6791,54.0,0.0,60.0,15.0,0.0
6792,62.0,0.0,60.0,6.0,0.0
6793,62.0,0.0,60.0,3.0,0.0
6794,54.0,0.0,60.0,3.0,0.0
6795,54.0,0.0,60.0,1.0,0.0
6796,54.0,0.0,60.0,13.0,0.0
6797,62.0,0.0,60.0,1.0,0.0
6798,62.0,0.0,60.0,12.0,0.0
6799,42.0,60.0,60.0,8.0,0.0
6800,64.0,0.0,240.0,12.0,0.0
6801,68.0,0.0,120.0,0.0,0.0
6802,56.0,0.0,60.0,1.0,0.0
6803,56.0,0.0,60.0,15.0,0.0
6804,44.0,0.0,60.0,8.0,0.0
6805,64.0,0.0,240.0,1.0,0.0
6806,56.0,0.0,60.0,3.0,0.0
6807,68.0,0.0,120.0,3.0,0.0
6808,68.0,0.0,120.0,5.0,0.0
6809,68.0,0.0,120.0,11.0,0.0
6810,56.0,60.0,60.0,13.0,0.0
6811,64.0,0.0,240.0,6.0,0.0
6812,57.0,60.0,60.0,1.0,0.0
6813,57.0,0.0,60.0,15.0,0.0
6814,57.0,0.0,60.0,3.0,0.0
6815,45.0,0.0,60.0,8.0,0.0
6816,57.0,0.0,60.0,13.0,0.0
6817,64.0,0.0,120.0,5.0,0.0
6818,54.0,0.0,60.0,13.0,0.0
6819,54.0,0.0,60.0,1.0,0.0
6820,54.0,0.0,60.0,3.0,0.0
6821,64.0,0.0,120.0,3.0,0.0
6822,54.0,0.0,60.0,15.0,0.0
6823,69.0,0.0,60.0,0.0,0.0
6824,64.0,0.0,120.0,0.0,0.0
6825,42.0,0.0,60.0,8.0,0.0
6826,64.0,120.0,120.0,11.0,0.0
6827,69.0,0.0,60.0,4.0,0.0
6828,69.0,60.0,60.0,10.0,0.0
6829,71.0,0.0,60.0,10.0,0.0
6830,56.0,0.0,60.0,15.0,0.0
6831,71.0,0.0,60.0,4.0,0.0
6832,56.0,0.0,60.0,3.0,0.0
6833,56.0,0.0,60.0,1.0,0.0
6834,44.0,0.0,60.0,8.0,0.0
6835,71.0,0.0,60.0,0.0,0.0
6836,56.0,0.0,60.0,13.0,0.0
6837,76.0,0.0,120.0,15.0,0.0
6838,45.0,0.0,120.0,8.0,0.0
6839,57.0,60.0,120.0,1.0,0.0
6840,69.0,0.0,120.0,15.0,0.0
6841,73.0,0.0,120.0,10.0,0.0
6842,57.0,0.0,120.0,13.0,0.0
6843,73.0,0.0,120.0,0.0,0.0
6844,73.0,0.0,120.0,15.0,0.0
6845,57.0,0.0,120.0,15.0,0.0
6846,57.0,0.0,120.0,3.0,0.0
6847,73.0,0.0,120.0,4.0,0.0
6848,68.0,0.0,60.0,15.0,0.0
6849,68.0,0.0,60.0,0.0,0.0
6850,71.0,0.0,60.0,0.0,0.0
6851,59.0,0.0,60.0,1.0,0.0
6852,68.0,0.0,60.0,11.0,0.0
6853,71.0,0.0,60.0,4.0,0.0
6854,74.0,0.0,60.0,15.0,0.0
6855,68.0,0.0,60.0,5.0,0.0
6856,47.0,0.0,60.0,8.0,0.0
6857,71.0,0.0,60.0,10.0,0.0
6858,59.0,0.0,60.0,13.0,0.0
6859,59.0,0.0,60.0,15.0,0.0
6860,59.0,60.0,60.0,3.0,0.0
6861,68.0,0.0,60.0,3.0,0.0
6862,76.0,0.0,60.0,15.0,0.0
6863,73.0,0.0,60.0,10.0,0.0
6864,73.0,0.0,60.0,0.0,0.0
6865,69.0,0.0,60.0,0.0,0.0
6866,57.0,0.0,60.0,1.0,0.0
6867,69.0,60.0,60.0,5.0,0.0
6868,57.0,0.0,60.0,3.0,0.0
6869,73.0,0.0,60.0,15.0,0.0
6870,57.0,0.0,60.0,13.0,0.0
6871,69.0,0.0,60.0,3.0,0.0
6872,45.0,0.0,60.0,8.0,0.0
6873,69.0,0.0,60.0,11.0,0.0
6874,57.0,0.0,60.0,15.0,0.0
6875,73.0,0.0,60.0,4.0,0.0
6876,74.0,0.0,120.0,10.0,0.0
6877,71.0,0.0,120.0,3.0,0.0
6878,56.0,0.0,60.0,1.0,0.0
6879,44.0,0.0,60.0,8.0,0.0
6880,76.0,0.0,240.0,15.0,0.0
6881,74.0,0.0,240.0,15.0,0.0
6882,56.0,60.0,60.0,3.0,0.0
6883,71.0,0.0,120.0,11.0,0.0
6884,56.0,0.0,60.0,15.0,0.0
6885,56.0,0.0,60.0,13.0,0.0
6886,71.0,60.0,120.0,0.0,0.0
6887,74.0,0.0,120.0,0.0,0.0
6888,74.0,0.0,120.0,4.0,0.0
6889,71.0,0.0,240.0,15.0,0.0
6890,71.0,0.0,120.0,5.0,0.0
6891,42.0,0.0,60.0,8.0,0.0
6892,54.0,0.0,60.0,1.0,0.0
6893,54.0,0.0,60.0,3.0,0.0
6894,54.0,0.0,60.0,15.0,0.0
6895,54.0,0.0,60.0,13.0,0.0
6896,73.0,60.0,60.0,0.0,0.0
6897,52.0,0.0,60.0,15.0,0.0
6898,52.0,0.0,60.0,13.0,0.0
6899,69.0,0.0,60.0,5.0,0.0
6900,73.0,0.0,60.0,10.0,0.0
6901,40.0,0.0,60.0,8.0,0.0
6902,69.0,0.0,60.0,0.0,0.0
6903,73.0,0.0,60.0,4.0,0.0
6904,52.0,0.0,60.0,1.0,0.0
6905,69.0,0.0,60.0,3.0,0.0
6906,52.0,0.0,60.0,3.0,0.0
6907,69.0,0.0,60.0,11.0,0.0
6908,50.0,0.0,60.0,13.0,0.0
6909,74.0,0.0,60.0,0.0,0.0
6910,71.0,0.0,60.0,3.0,0.0
6911,38.0,0.0,60.0,8.0,0.0
6912,74.0,0.0,60.0,4.0,0.0
6913,50.0,0.0,60.0,15.0,0.0
6914,71.0,0.0,60.0,0.0,0.0
6915,71.0,0.0,60.0,5.0,0.0
6916,50.0,0.0,60.0,1.0,0.0
6917,71.0,0.0,60.0,11.0,0.0
6918,74.0,120.0,60.0,10.0,0.0
6919,50.0,0.0,60.0,3.0,0.0
6920,73.0,0.0,120.0,11.0,0.0
6921,49.0,120.0,120.0,3.0,0.0
6922,76.0,0.0,120.0,0.0,0.0
6923,76.0,0.0,120.0,4.0,0.0
6924,49.0,0.0,120.0,13.0,0.0
6925,76.0,0.0,120.0,10.0,0.0
6926,76.0,0.0,120.0,15.0,0.0
6927,37.0,0.0,120.0,8.0,0.0
6928,73.0,0.0,120.0,3.0,0.0
6929,73.0,0.0,120.0,5.0,0.0
6930,73.0,0.0,120.0,0.0,0.0
6931,49.0,0.0,120.0,1.0,0.0
6932,69.0,0.0,120.0,15.0,0.0
6933,49.0,0.0,120.0,15.0,0.0
6934,74.0,0.0,120.0,15.0,0.0
6935,40.0,0.0,120.0,8.0,0.0
6936,52.0,0.0,120.0,13.0,0.0
6937,71.0,0.0,120.0,15.0,0.0
6938,68.0,0.0,120.0,3.0,0.0
6939,74.0,0.0,120.0,4.0,0.0
6940,52.0,0.0,120.0,15.0,0.0
6941,52.0,0.0,120.0,3.0,0.0
6942,68.0,0.0,120.0,15.0,0.0
6943,74.0,0.0,120.0,10.0,0.0
6944,74.0,0.0,120.0,0.0,0.0
6945,68.0,0.0,120.0,0.0,0.0
6946,52.0,0.0,120.0,1.0,0.0
6947,68.0,120.0,120.0,5.0,0.0
6948,68.0,0.0,120.0,11.0,0.0
6949,69.0,0.0,120.0,0.0,0.0
6950,76.0,0.0,120.0,15.0,0.0
6951,57.0,0.0,120.0,1.0,0.0
6952,73.0,0.0,120.0,15.0,0.0
6953,73.0,0.0,120.0,10.0,0.0
6954,45.0,0.0,120.0,8.0,0.0
6955,69.0,0.0,120.0,11.0,0.0
6956,57.0,0.0,120.0,15.0,0.0
6957,69.0,0.0,120.0,5.0,0.0
6958,69.0,0.0,120.0,3.0,0.0
6959,73.0,0.0,120.0,4.0,0.0
6960,73.0,0.0,120.0,0.0,0.0
6961,57.0,0.0,120.0,3.0,0.0
6962,57.0,120.0,120.0,13.0,0.0
6963,65.0,0.0,120.0,11.0,0.0
6964,65.0,0.0,120.0,0.0,0.0
6965,71.0,0.0,120.0,0.0,0.0
6966,71.0,0.0,120.0,4.0,0.0
6967,43.0,0.0,120.0,8.0,0.0
6968,65.0,0.0,120.0,5.0,0.0
6969,55.0,0.0,120.0,1.0,0.0
6970,55.0,0.0,120.0,3.0,0.0
6971,71.0,0.0,120.0,10.0,0.0
6972,65.0,0.0,120.0,3.0,0.0
6973,55.0,0.0,120.0,13.0,0.0
6974,65.0,0.0,120.0,15.0,0.0
6975,71.0,120.0,120.0,15.0,0.0
6976,55.0,0.0,120.0,15.0,0.0
6977,54.0,0.0,120.0,1.0,0.0
6978,66.0,0.0,480.0,1.0,0.0
6979,54.0,0.0,240.0,14.0,0.0
6980,54.0,0.0,120.0,13.0,0.0
6981,70.0,0.0,240.0,0.0,0.0
6982,66.0,0.0,240.0,0.0,0.0
6983,70.0,0.0,240.0,4.0,0.0
6984,66.0,0.0,480.0,12.0,0.0
6985,70.0,0.0,240.0,10.0,0.0
6986,66.0,0.0,240.0,5.0,0.0
6987,54.0,0.0,120.0,3.0,0.0
6988,66.0,0.0,240.0,2.0,0.0
6989,54.0,0.0,120.0,15.0,0.0
6990,66.0,0.0,480.0,6.0,0.0
6991,42.0,120.0,120.0,8.0,0.0
6992,66.0,0.0,240.0,3.0,0.0
6993,70.0,0.0,120.0,15.0,0.0
6994,73.0,0.0,120.0,15.0,0.0
6995,66.0,120.0,240.0,11.0,0.0
6996,64.0,0.0,240.0,1.0,0.0
6997,66.0,0.0,120.0,15.0,0.0
6998,64.0,0.0,240.0,13.0,0.0
6999,64.0,0.0,240.0,15.0,0.0
7000,69.0,0.0,120.0,15.0,0.0
7001,64.0,60.0,240.0,3.0,0.0
7002,52.0,0.0,240.0,8.0,0.0
7003,71.0,0.0,120.0,0.0,0.0
7004,68.0,0.0,120.0,11.0,0.0
7005,71.0,0.0,120.0,15.0,0.0
7006,68.0,0.0,120.0,15.0,0.0
7007,71.0,0.0,120.0,4.0,0.0
7008,71.0,0.0,120.0,10.0,0.0
7009,68.0,0.0,120.0,5.0,0.0
7010,68.0,0.0,120.0,3.0,0.0
7011,66.0,0.0,120.0,2.0,0.0
7012,68.0,0.0,120.0,0.0,0.0
7013,50.0,60.0,60.0,8.0,0.0
7014,70.0,0.0,120.0,11.0,0.0
7015,73.0,60.0,120.0,4.0,0.0
7016,66.0,0.0,120.0,2.0,0.0
7017,62.0,0.0,60.0,15.0,0.0
7018,70.0,0.0,120.0,5.0,0.0
7019,68.0,0.0,120.0,15.0,0.0
7020,62.0,0.0,60.0,1.0,0.0
7021,62.0,0.0,60.0,13.0,0.0
7022,70.0,0.0,120.0,3.0,0.0
7023,70.0,0.0,120.0,0.0,0.0
7024,73.0,0.0,120.0,10.0,0.0
7025,73.0,0.0,120.0,0.0,0.0
7026,72.0,0.0,120.0,15.0,0.0
7027,62.0,0.0,60.0,3.0,0.0
7028,61.0,0.0,60.0,1.0,0.0
7029,61.0,0.0,60.0,3.0,0.0
7030,49.0,0.0,60.0,8.0,0.0
7031,61.0,0.0,60.0,13.0,0.0
7032,61.0,0.0,60.0,15.0,0.0
7033,59.0,0.0,60.0,1.0,0.0
7034,66.0,0.0,240.0,15.0,0.0
7035,74.0,0.0,240.0,15.0,0.0
7036,59.0,0.0,60.0,15.0,0.0
7037,62.0,0.0,240.0,3.0,0.0
7038,59.0,0.0,60.0,13.0,0.0
7039,71.0,0.0,240.0,3.0,0.0
7040,74.0,0.0,240.0,10.0,0.0
7041,62.0,60.0,240.0,12.0,0.0
7042,74.0,0.0,240.0,4.0,0.0
7043,74.0,0.0,240.0,0.0,0.0
7044,71.0,0.0,240.0,0.0,0.0
7045,59.0,0.0,60.0,3.0,0.0
7046,47.0,60.0,60.0,8.0,0.0
7047,71.0,0.0,240.0,5.0,0.0
7048,62.0,0.0,240.0,6.0,0.0
7049,62.0,0.0,240.0,1.0,0.0
7050,66.0,0.0,240.0,2.0,0.0
7051,71.0,0.0,240.0,11.0,0.0
7052,57.0,60.0,60.0,1.0,0.0
7053,57.0,0.0,60.0,13.0,0.0
7054,57.0,0.0,60.0,3.0,0.0
7055,45.0,0.0,60.0,8.0,0.0
7056,57.0,0.0,60.0,15.0,0.0
7057,43.0,0.0,60.0,8.0,0.0
7058,55.0,60.0,60.0,15.0,0.0
7059,55.0,0.0,60.0,3.0,0.0
7060,55.0,0.0,60.0,13.0,0.0
7061,55.0,0.0,60.0,1.0,0.0
7062,42.0,0.0,60.0,8.0,0.0
7063,54.0,0.0,60.0,13.0,0.0
7064,54.0,0.0,60.0,15.0,0.0
7065,54.0,0.0,60.0,3.0,0.0
7066,54.0,0.0,60.0,1.0,0.0
7067,71.0,0.0,240.0,15.0,0.0
7068,67.0,0.0,240.0,12.0,0.0
7069,67.0,0.0,240.0,1.0,0.0
7070,52.0,0.0,60.0,3.0,0.0
7071,52.0,60.0,60.0,13.0,0.0
7072,52.0,0.0,60.0,15.0,0.0
7073,67.0,0.0,240.0,15.0,0.0
7074,67.0,0.0,240.0,3.0,0.0
7075,52.0,0.0,60.0,1.0,0.0
7076,40.0,0.0,60.0,8.0,0.0
7077,67.0,0.0,240.0,6.0,0.0
7078,54.0,0.0,60.0,1.0,0.0
7079,54.0,0.0,60.0,15.0,0.0
7080,54.0,0.0,60.0,13.0,0.0
7081,54.0,0.0,60.0,3.0,0.0
7082,42.0,60.0,60.0,8.0,0.0
7083,50.0,0.0,60.0,1.0,0.0
7084,50.0,0.0,60.0,15.0,0.0
7085,50.0,60.0,60.0,3.0,0.0
7086,50.0,0.0,60.0,13.0,0.0
7087,38.0,0.0,60.0,8.0,0.0
7088,52.0,0.0,60.0,13.0,0.0
7089,52.0,120.0,60.0,15.0,0.0
7090,40.0,0.0,60.0,8.0,0.0
7091,52.0,0.0,60.0,3.0,0.0
7092,52.0,0.0,60.0,1.0,0.0
7093,70.0,0.0,480.0,15.0,0.0
7094,58.0,0.0,480.0,12.0,0.0
7095,58.0,0.0,480.0,6.0,0.0
7096,54.0,0.0,480.0,3.0,0.0
7097,73.0,120.0,120.0,15.0,0.0
7098,58.0,0.0,480.0,3.0,0.0
7099,42.0,0.0,480.0,8.0,0.0
7100,54.0,0.0,480.0,1.0,0.0
7101,58.0,0.0,480.0,1.0,0.0
7102,54.0,0.0,480.0,13.0,0.0
7103,54.0,0.0,360.0,15.0,0.0
7104,67.0,0.0,120.0,11.0,0.0
7105,67.0,0.0,120.0,3.0,0.0
7106,67.0,0.0,120.0,5.0,0.0
7107,67.0,0.0,120.0,15.0,0.0
7108,73.0,0.0,120.0,15.0,0.0
7109,73.0,0.0,120.0,4.0,0.0
7110,73.0,0.0,120.0,0.0,0.0
7111,73.0,120.0,120.0,10.0,0.0
7112,67.0,0.0,120.0,0.0,0.0
7113,73.0,0.0,120.0,10.0,0.0
7114,66.0,0.0,120.0,5.0,0.0
7115,73.0,120.0,120.0,0.0,0.0
7116,66.0,0.0,120.0,11.0,0.0
7117,66.0,0.0,120.0,15.0,0.0
7118,73.0,0.0,120.0,15.0,0.0
7119,73.0,0.0,120.0,4.0,0.0
7120,66.0,0.0,120.0,0.0,0.0
7121,66.0,0.0,120.0,3.0,0.0
7122,73.0,0.0,120.0,10.0,0.0
7123,64.0,0.0,120.0,11.0,0.0
7124,64.0,60.0,120.0,0.0,0.0
7125,73.0,0.0,120.0,0.0,0.0
7126,73.0,0.0,120.0,4.0,0.0
7127,64.0,0.0,120.0,15.0,0.0
7128,54.0,0.0,120.0,15.0,0.0
7129,73.0,0.0,120.0,15.0,0.0
7130,64.0,0.0,120.0,3.0,0.0
7131,64.0,0.0,120.0,5.0,0.0
7132,74.0,60.0,60.0,4.0,0.0
7133,62.0,0.0,120.0,5.0,0.0
7134,35.0,0.0,240.0,8.0,0.0
7135,47.0,0.0,240.0,13.0,0.0
7136,59.0,0.0,240.0,12.0,0.0
7137,74.0,0.0,60.0,0.0,0.0
7138,62.0,0.0,120.0,3.0,0.0
7139,59.0,0.0,240.0,6.0,0.0
7140,62.0,0.0,120.0,11.0,0.0
7141,47.0,0.0,240.0,3.0,0.0
7142,59.0,0.0,240.0,1.0,0.0
7143,47.0,0.0,240.0,1.0,0.0
7144,74.0,0.0,60.0,10.0,0.0
7145,74.0,0.0,240.0,15.0,0.0
7146,62.0,0.0,120.0,0.0,0.0
7147,47.0,0.0,240.0,15.0,0.0
7148,66.0,0.0,240.0,15.0,0.0
7149,71.0,0.0,240.0,15.0,0.0
7150,76.0,60.0,60.0,4.0,0.0
7151,76.0,0.0,60.0,0.0,0.0
7152,76.0,0.0,60.0,10.0,0.0
7153,59.0,60.0,120.0,0.0,0.0
7154,59.0,0.0,120.0,3.0,0.0
7155,59.0,0.0,120.0,5.0,0.0
7156,74.0,60.0,60.0,0.0,0.0
7157,59.0,0.0,120.0,11.0,0.0
7158,74.0,0.0,60.0,10.0,0.0
7159,74.0,0.0,60.0,4.0,0.0
7160,73.0,0.0,60.0,4.0,0.0
7161,73.0,0.0,60.0,10.0,0.0
7162,73.0,0.0,60.0,0.0,0.0
7163,74.0,60.0,60.0,0.0,0.0
7164,74.0,0.0,60.0,10.0,0.0
7165,67.0,0.0,360.0,0.0,0.0
7166,67.0,0.0,360.0,11.0,0.0
7167,74.0,0.0,60.0,4.0,0.0
7168,67.0,0.0,360.0,5.0,0.0
7169,67.0,0.0,360.0,3.0,0.0
7170,59.0,60.0,120.0,3.0,0.0
7171,59.0,0.0,120.0,12.0,0.0
7172,59.0,0.0,120.0,7.0,0.0
7173,59.0,0.0,120.0,1.0,0.0
7174,59.0,0.0,120.0,6.0,0.0
7175,76.0,0.0,60.0,4.0,0.0
7176,76.0,0.0,60.0,10.0,0.0
7177,76.0,0.0,60.0,0.0,0.0
7178,68.0,0.0,120.0,15.0,0.0
7179,59.0,0.0,120.0,12.0,0.0
7180,59.0,0.0,120.0,15.0,0.0
7181,74.0,0.0,120.0,15.0,0.0
7182,73.0,60.0,60.0,4.0,0.0
7183,59.0,0.0,120.0,1.0,0.0
7184,59.0,0.0,120.0,3.0,0.0
7185,59.0,0.0,120.0,6.0,0.0
7186,59.0,0.0,120.0,7.0,0.0
7187,73.0,0.0,60.0,10.0,0.0
7188,73.0,0.0,60.0,0.0,0.0
7189,74.0,0.0,60.0,10.0,0.0
7190,74.0,60.0,60.0,0.0,0.0
7191,74.0,0.0,60.0,4.0,0.0
7192,61.0,0.0,360.0,12.0,0.0
7193,69.0,0.0,360.0,15.0,0.0
7194,61.0,0.0,360.0,7.0,0.0
7195,61.0,0.0,360.0,15.0,0.0
7196,61.0,0.0,360.0,3.0,0.0
7197,61.0,0.0,360.0,6.0,0.0
7198,76.0,0.0,60.0,0.0,0.0
7199,76.0,0.0,60.0,10.0,0.0
7200,61.0,0.0,360.0,1.0,0.0
7201,76.0,0.0,360.0,15.0,0.0
7202,76.0,60.0,60.0,4.0,0.0
7203,78.0,0.0,60.0,0.0,0.0
7204,78.0,0.0,60.0,4.0,0.0
7205,78.0,60.0,60.0,10.0,0.0
7206,64.0,0.0,120.0,3.0,0.0
7207,64.0,60.0,120.0,11.0,0.0
7208,64.0,0.0,120.0,5.0,0.0
7209,76.0,60.0,60.0,10.0,0.0
7210,76.0,0.0,60.0,0.0,0.0
7211,76.0,0.0,60.0,4.0,0.0
7212,64.0,0.0,120.0,0.0,0.0
7213,74.0,0.0,60.0,0.0,0.0
7214,74.0,0.0,60.0,4.0,0.0
7215,74.0,0.0,60.0,10.0,0.0
7216,76.0,0.0,60.0,10.0,0.0
7217,69.0,0.0,480.0,3.0,0.0
7218,69.0,60.0,480.0,11.0,0.0
7219,69.0,0.0,480.0,0.0,0.0
7220,76.0,0.0,60.0,0.0,0.0
7221,69.0,0.0,480.0,5.0,0.0
7222,76.0,60.0,60.0,4.0,0.0
7223,78.0,0.0,60.0,10.0,0.0
7224,78.0,0.0,60.0,4.0,0.0
7225,78.0,60.0,60.0,0.0,0.0
7226,59.0,60.0,60.0,3.0,0.0
7227,74.0,0.0,60.0,0.0,0.0
7228,59.0,0.0,60.0,1.0,0.0
7229,59.0,0.0,60.0,7.0,0.0
7230,59.0,0.0,60.0,15.0,0.0
7231,74.0,0.0,120.0,15.0,0.0
7232,78.0,0.0,120.0,15.0,0.0
7233,59.0,0.0,60.0,12.0,0.0
7234,74.0,0.0,60.0,4.0,0.0
7235,59.0,0.0,60.0,6.0,0.0
7236,74.0,0.0,60.0,10.0,0.0
7237,76.0,120.0,60.0,10.0,0.0
7238,61.0,0.0,60.0,15.0,0.0
7239,76.0,0.0,60.0,0.0,0.0
7240,76.0,0.0,60.0,4.0,0.0
7241,61.0,0.0,60.0,7.0,0.0
7242,61.0,0.0,60.0,6.0,0.0
7243,61.0,0.0,60.0,3.0,0.0
7244,61.0,0.0,60.0,1.0,0.0
7245,61.0,0.0,60.0,12.0,0.0
7246,78.0,0.0,240.0,15.0,0.0
7247,62.0,0.0,120.0,15.0,0.0
7248,62.0,60.0,120.0,3.0,0.0
7249,62.0,0.0,120.0,6.0,0.0
7250,62.0,0.0,120.0,7.0,0.0
7251,62.0,0.0,120.0,1.0,0.0
7252,62.0,0.0,120.0,12.0,0.0
7253,69.0,0.0,240.0,15.0,0.0
7254,78.0,0.0,120.0,10.0,0.0
7255,78.0,0.0,120.0,0.0,0.0
7256,78.0,0.0,120.0,4.0,0.0
7257,79.0,0.0,60.0,0.0,0.0
7258,79.0,0.0,60.0,10.0,0.0
7259,61.0,0.0,60.0,15.0,0.0
7260,61.0,0.0,60.0,3.0,0.0
7261,61.0,0.0,60.0,6.0,0.0
7262,61.0,0.0,60.0,7.0,0.0
7263,61.0,0.0,60.0,1.0,0.0
7264,79.0,0.0,60.0,4.0,0.0
7265,61.0,60.0,60.0,12.0,0.0
7266,78.0,0.0,60.0,10.0,0.0
7267,62.0,0.0,60.0,12.0,0.0
7268,62.0,0.0,60.0,1.0,0.0
7269,62.0,0.0,60.0,6.0,0.0
7270,62.0,0.0,60.0,15.0,0.0
7271,62.0,0.0,60.0,7.0,0.0
7272,78.0,0.0,60.0,4.0,0.0
7273,78.0,0.0,60.0,0.0,0.0
7274,62.0,0.0,60.0,3.0,0.0
7275,64.0,0.0,120.0,7.0,0.0
7276,64.0,0.0,120.0,1.0,0.0
7277,67.0,0.0,240.0,11.0,0.0
7278,76.0,0.0,60.0,4.0,0.0
7279,76.0,0.0,60.0,10.0,0.0
7280,76.0,60.0,60.0,0.0,0.0
7281,64.0,0.0,120.0,12.0,0.0
7282,67.0,0.0,240.0,5.0,0.0
7283,71.0,120.0,240.0,15.0,0.0
7284,67.0,0.0,240.0,3.0,0.0
7285,64.0,0.0,120.0,3.0,0.0
7286,67.0,0.0,240.0,0.0,0.0
7287,67.0,0.0,240.0,15.0,0.0
7288,64.0,60.0,120.0,6.0,0.0
7289,64.0,0.0,120.0,15.0,0.0
7290,74.0,0.0,60.0,0.0,0.0
7291,74.0,0.0,60.0,10.0,0.0
7292,74.0,0.0,60.0,4.0,0.0
7293,73.0,0.0,60.0,10.0,0.0
7294,62.0,0.0,60.0,1.0,0.0
7295,62.0,0.0,60.0,6.0,0.0
7296,73.0,0.0,60.0,4.0,0.0
7297,73.0,0.0,60.0,0.0,0.0
7298,62.0,0.0,60.0,3.0,0.0
7299,62.0,0.0,60.0,15.0,0.0
7300,62.0,0.0,60.0,7.0,0.0
7301,62.0,60.0,60.0,12.0,0.0
7302,64.0,0.0,60.0,3.0,0.0
7303,71.0,0.0,60.0,4.0,0.0
7304,64.0,0.0,60.0,1.0,0.0
7305,64.0,0.0,60.0,12.0,0.0
7306,64.0,0.0,60.0,6.0,0.0
7307,71.0,0.0,60.0,0.0,0.0
7308,64.0,0.0,60.0,15.0,0.0
7309,64.0,0.0,60.0,7.0,0.0
7310,71.0,0.0,60.0,10.0,0.0
7311,66.0,0.0,120.0,0.0,0.0
7312,70.0,0.0,120.0,0.0,0.0
7313,66.0,0.0,120.0,15.0,0.0
7314,70.0,0.0,120.0,15.0,0.0
7315,73.0,0.0,120.0,15.0,0.0
7316,66.0,0.0,120.0,5.0,0.0
7317,66.0,0.0,120.0,12.0,0.0
7318,66.0,0.0,120.0,11.0,0.0
7319,66.0,0.0,120.0,1.0,0.0
7320,70.0,120.0,120.0,4.0,0.0
7321,66.0,0.0,120.0,3.0,0.0
7322,66.0,0.0,120.0,6.0,0.0
7323,66.0,0.0,120.0,7.0,0.0
7324,70.0,0.0,120.0,10.0,0.0
7325,70.0,0.0,120.0,15.0,0.0
7326,73.0,0.0,120.0,0.0,0.0
7327,64.0,0.0,120.0,1.0,0.0
7328,73.0,0.0,120.0,10.0,0.0
7329,73.0,0.0,120.0,4.0,0.0
7330,64.0,0.0,120.0,3.0,0.0
7331,70.0,0.0,120.0,5.0,0.0
7332,70.0,0.0,120.0,3.0,0.0
7333,70.0,0.0,120.0,0.0,0.0
7334,64.0,0.0,120.0,6.0,0.0
7335,64.0,120.0,120.0,7.0,0.0
7336,70.0,0.0,120.0,11.0,0.0
7337,64.0,0.0,120.0,15.0,0.0
7338,64.0,0.0,120.0,12.0,0.0
7339,66.0,0.0,120.0,15.0,0.0
7340,78.0,0.0,120.0,4.0,0.0
7341,62.0,0.0,120.0,12.0,0.0
7342,62.0,0.0,120.0,15.0,0.0
7343,78.0,0.0,120.0,15.0,0.0
7344,71.0,0.0,120.0,15.0,0.0
7345,62.0,0.0,120.0,7.0,0.0
7346,78.0,0.0,120.0,0.0,0.0
7347,62.0,0.0,120.0,6.0,0.0
7348,71.0,0.0,120.0,11.0,0.0
7349,71.0,0.0,120.0,3.0,0.0
7350,71.0,0.0,120.0,5.0,0.0
7351,62.0,0.0,120.0,3.0,0.0
7352,78.0,0.0,120.0,10.0,0.0
7353,71.0,120.0,120.0,0.0,0.0
7354,62.0,0.0,120.0,1.0,0.0
7355,61.0,0.0,120.0,6.0,0.0
7356,61.0,0.0,120.0,7.0,0.0
7357,73.0,0.0,120.0,3.0,0.0
7358,61.0,0.0,120.0,12.0,0.0
7359,70.0,0.0,120.0,15.0,0.0
7360,76.0,0.0,120.0,0.0,0.0
7361,61.0,0.0,120.0,3.0,0.0
7362,61.0,0.0,120.0,15.0,0.0
7363,73.0,0.0,120.0,11.0,0.0
7364,76.0,120.0,120.0,10.0,0.0
7365,76.0,0.0,120.0,15.0,0.0
7366,73.0,0.0,120.0,0.0,0.0
7367,61.0,0.0,120.0,1.0,0.0
7368,73.0,0.0,120.0,5.0,0.0
7369,76.0,0.0,120.0,4.0,0.0
7370,59.0,0.0,120.0,1.0,0.0
7371,59.0,0.0,120.0,12.0,0.0
7372,66.0,0.0,120.0,0.0,0.0
7373,74.0,0.0,120.0,0.0,0.0
7374,74.0,0.0,120.0,10.0,0.0
7375,74.0,0.0,120.0,15.0,0.0
7376,59.0,0.0,360.0,15.0,0.0
7377,66.0,120.0,120.0,5.0,0.0
7378,59.0,0.0,120.0,6.0,0.0
7379,66.0,0.0,120.0,15.0,0.0
7380,47.0,60.0,480.0,8.0,0.0
7381,66.0,0.0,120.0,11.0,0.0
7382,59.0,0.0,120.0,3.0,0.0
7383,66.0,0.0,120.0,3.0,0.0
7384,59.0,0.0,480.0,13.0,0.0
7385,74.0,0.0,120.0,4.0,0.0
7386,72.0,120.0,120.0,5.0,0.0
7387,75.0,0.0,120.0,4.0,0.0
7388,72.0,0.0,120.0,3.0,0.0
7389,72.0,0.0,120.0,11.0,0.0
7390,72.0,0.0,120.0,15.0,0.0
7391,75.0,0.0,120.0,15.0,0.0
7392,69.0,0.0,120.0,6.0,0.0
7393,69.0,0.0,120.0,1.0,0.0
7394,69.0,0.0,120.0,3.0,0.0
7395,69.0,0.0,120.0,12.0,0.0
7396,75.0,0.0,120.0,0.0,0.0
7397,72.0,0.0,120.0,0.0,0.0
7398,64.0,0.0,120.0,15.0,0.0
7399,75.0,0.0,120.0,10.0,0.0
7400,71.0,0.0,240.0,0.0,0.0
7401,76.0,0.0,120.0,0.0,0.0
7402,76.0,0.0,120.0,15.0,0.0
7403,71.0,0.0,240.0,5.0,0.0
7404,71.0,0.0,120.0,15.0,0.0
7405,76.0,120.0,120.0,4.0,0.0
7406,76.0,0.0,120.0,10.0,0.0
7407,67.0,0.0,120.0,3.0,0.0
7408,67.0,0.0,120.0,15.0,0.0
7409,67.0,0.0,120.0,1.0,0.0
7410,67.0,0.0,120.0,12.0,0.0
7411,71.0,0.0,240.0,11.0,0.0
7412,71.0,0.0,240.0,3.0,0.0
7413,67.0,0.0,120.0,6.0,0.0
7414,59.0,0.0,120.0,15.0,0.0
7415,63.0,0.0,120.0,1.0,0.0
7416,63.0,0.0,120.0,6.0,0.0
7417,78.0,0.0,120.0,0.0,0.0
7418,78.0,0.0,120.0,10.0,0.0
7419,63.0,0.0,120.0,3.0,0.0
7420,78.0,0.0,120.0,4.0,0.0
7421,63.0,0.0,120.0,12.0,0.0
7422,71.0,0.0,120.0,15.0,0.0
7423,63.0,0.0,120.0,15.0,0.0
7424,78.0,0.0,120.0,15.0,0.0
7425,64.0,120.0,120.0,12.0,0.0
7426,43.0,0.0,240.0,8.0,0.0
7427,79.0,0.0,60.0,10.0,0.0
7428,55.0,0.0,240.0,15.0,0.0
7429,64.0,0.0,120.0,3.0,0.0
7430,79.0,60.0,60.0,0.0,0.0
7431,55.0,0.0,240.0,3.0,0.0
7432,64.0,0.0,120.0,6.0,0.0
7433,55.0,0.0,240.0,1.0,0.0
7434,64.0,0.0,120.0,1.0,0.0
7435,76.0,0.0,240.0,15.0,0.0
7436,55.0,0.0,240.0,13.0,0.0
7437,79.0,0.0,60.0,4.0,0.0
7438,71.0,0.0,240.0,15.0,0.0
7439,78.0,0.0,60.0,4.0,0.0
7440,78.0,0.0,60.0,0.0,0.0
7441,78.0,0.0,60.0,10.0,0.0
7442,71.0,0.0,120.0,12.0,0.0
7443,76.0,60.0,120.0,10.0,0.0
7444,76.0,0.0,120.0,0.0,0.0
7445,71.0,0.0,120.0,3.0,0.0
7446,76.0,0.0,120.0,4.0,0.0
7447,71.0,0.0,120.0,6.0,0.0
7448,71.0,0.0,120.0,1.0,0.0
7449,69.0,0.0,240.0,15.0,0.0
7450,76.0,0.0,240.0,15.0,0.0
7451,60.0,0.0,240.0,15.0,0.0
7452,69.0,0.0,60.0,6.0,0.0
7453,60.0,0.0,240.0,3.0,0.0
7454,60.0,0.0,240.0,13.0,0.0
7455,69.0,0.0,60.0,1.0,0.0
7456,69.0,0.0,60.0,12.0,0.0
7457,60.0,0.0,240.0,1.0,0.0
7458,48.0,60.0,240.0,8.0,0.0
7459,69.0,60.0,60.0,3.0,0.0
7460,67.0,0.0,60.0,6.0,0.0
7461,67.0,60.0,60.0,12.0,0.0
7462,67.0,0.0,60.0,3.0,0.0
7463,67.0,0.0,60.0,1.0,0.0
7464,66.0,60.0,60.0,12.0,0.0
7465,66.0,0.0,60.0,1.0,0.0
7466,66.0,0.0,60.0,3.0,0.0
7467,66.0,0.0,60.0,6.0,0.0
7468,64.0,0.0,60.0,3.0,0.0
7469,64.0,0.0,60.0,6.0,0.0
7470,64.0,0.0,60.0,1.0,0.0
7471,64.0,0.0,60.0,12.0,0.0
7472,66.0,60.0,60.0,3.0,0.0
7473,66.0,0.0,60.0,6.0,0.0
7474,51.0,0.0,480.0,13.0,0.0
7475,51.0,0.0,480.0,1.0,0.0
7476,39.0,60.0,480.0,8.0,0.0
7477,75.0,0.0,240.0,15.0,0.0
7478,66.0,0.0,60.0,1.0,0.0
7479,66.0,0.0,60.0,12.0,0.0
7480,51.0,0.0,480.0,3.0,0.0
7481,66.0,0.0,240.0,15.0,0.0
7482,51.0,0.0,360.0,15.0,0.0
7483,69.0,0.0,240.0,15.0,0.0
7484,64.0,0.0,60.0,1.0,0.0
7485,64.0,0.0,60.0,12.0,0.0
7486,64.0,0.0,60.0,6.0,0.0
7487,64.0,60.0,60.0,3.0,0.0
7488,63.0,60.0,60.0,12.0,0.0
7489,66.0,0.0,120.0,11.0,0.0
7490,66.0,60.0,120.0,5.0,0.0
7491,66.0,0.0,120.0,3.0,0.0
7492,63.0,0.0,60.0,3.0,0.0
7493,66.0,0.0,120.0,0.0,0.0
7494,63.0,0.0,60.0,1.0,0.0
7495,63.0,0.0,60.0,6.0,0.0
7496,61.0,0.0,60.0,12.0,0.0
7497,61.0,0.0,60.0,6.0,0.0
7498,61.0,0.0,60.0,3.0,0.0
7499,61.0,0.0,60.0,1.0,0.0
7500,66.0,0.0,120.0,0.0,0.0
7501,66.0,0.0,120.0,3.0,0.0
7502,75.0,0.0,240.0,15.0,0.0
7503,59.0,0.0,60.0,6.0,0.0
7504,66.0,0.0,120.0,5.0,0.0
7505,71.0,0.0,120.0,15.0,0.0
7506,59.0,60.0,60.0,12.0,0.0
7507,59.0,0.0,60.0,3.0,0.0
7508,66.0,0.0,240.0,15.0,0.0
7509,59.0,0.0,60.0,1.0,0.0
7510,66.0,0.0,120.0,11.0,0.0
7511,60.0,0.0,60.0,12.0,0.0
7512,60.0,0.0,60.0,1.0,0.0
7513,60.0,0.0,60.0,6.0,0.0
7514,60.0,60.0,60.0,3.0,0.0
7515,66.0,0.0,120.0,5.0,0.0
7516,66.0,0.0,120.0,11.0,0.0
7517,66.0,0.0,120.0,3.0,0.0
7518,57.0,0.0,60.0,6.0,0.0
7519,57.0,60.0,60.0,1.0,0.0
7520,66.0,0.0,120.0,0.0,0.0
7521,57.0,0.0,60.0,12.0,0.0
7522,57.0,0.0,60.0,3.0,0.0
7523,69.0,0.0,120.0,15.0,0.0
7524,51.0,0.0,120.0,15.0,0.0
7525,59.0,0.0,60.0,12.0,0.0
7526,59.0,0.0,60.0,3.0,0.0
7527,59.0,0.0,60.0,6.0,0.0
7528,59.0,0.0,60.0,1.0,0.0
7529,67.0,60.0,60.0,0.0,0.0
7530,67.0,0.0,60.0,3.0,0.0
7531,55.0,0.0,120.0,6.0,0.0
7532,55.0,0.0,120.0,3.0,0.0
7533,52.0,0.0,240.0,13.0,0.0
7534,67.0,0.0,60.0,11.0,0.0
7535,55.0,0.0,120.0,1.0,0.0
7536,67.0,0.0,60.0,5.0,0.0
7537,55.0,0.0,120.0,12.0,0.0
7538,71.0,0.0,240.0,15.0,0.0
7539,67.0,0.0,240.0,15.0,0.0
7540,52.0,0.0,240.0,15.0,0.0
7541,40.0,0.0,240.0,8.0,0.0
7542,69.0,0.0,60.0,11.0,0.0
7543,69.0,0.0,60.0,5.0,0.0
7544,69.0,0.0,60.0,3.0,0.0
7545,69.0,60.0,60.0,0.0,0.0
7546,52.0,0.0,120.0,12.0,0.0
7547,52.0,0.0,120.0,6.0,0.0
7548,52.0,0.0,120.0,3.0,0.0
7549,67.0,0.0,60.0,11.0,0.0
7550,52.0,0.0,120.0,1.0,0.0
7551,67.0,60.0,60.0,5.0,0.0
7552,67.0,0.0,60.0,0.0,0.0
7553,67.0,0.0,60.0,3.0,0.0
7554,66.0,60.0,60.0,3.0,0.0
7555,66.0,0.0,60.0,0.0,0.0
7556,66.0,0.0,60.0,5.0,0.0
7557,66.0,0.0,60.0,11.0,0.0
7558,67.0,0.0,60.0,5.0,0.0
7559,52.0,60.0,120.0,13.0,0.0
7560,60.0,0.0,360.0,1.0,0.0
7561,60.0,0.0,360.0,12.0,0.0
7562,60.0,0.0,360.0,6.0,0.0
7563,67.0,0.0,60.0,11.0,0.0
7564,60.0,0.0,360.0,3.0,0.0
7565,40.0,0.0,120.0,8.0,0.0
7566,67.0,0.0,60.0,3.0,0.0
7567,52.0,0.0,120.0,3.0,0.0
7568,67.0,60.0,60.0,0.0,0.0
7569,69.0,0.0,60.0,3.0,0.0
7570,69.0,0.0,60.0,11.0,0.0
7571,69.0,0.0,60.0,5.0,0.0
7572,69.0,0.0,60.0,0.0,0.0
7573,52.0,0.0,120.0,1.0,0.0
7574,52.0,0.0,120.0,15.0,0.0
7575,66.0,0.0,60.0,3.0,0.0
7576,66.0,60.0,60.0,0.0,0.0
7577,72.0,0.0,120.0,15.0,0.0
7578,67.0,60.0,120.0,15.0,0.0
7579,66.0,0.0,60.0,11.0,0.0
7580,66.0,0.0,60.0,5.0,0.0
7581,52.0,0.0,120.0,3.0,0.0
7582,52.0,0.0,120.0,13.0,0.0
7583,40.0,0.0,120.0,8.0,0.0
7584,67.0,0.0,60.0,5.0,0.0
7585,67.0,0.0,60.0,3.0,0.0
7586,67.0,0.0,60.0,11.0,0.0
7587,67.0,0.0,60.0,0.0,0.0
7588,72.0,0.0,240.0,15.0,0.0
7589,54.0,0.0,360.0,1.0,0.0
7590,54.0,0.0,360.0,13.0,0.0
7591,42.0,0.0,360.0,8.0,0.0
7592,69.0,0.0,60.0,3.0,0.0
7593,54.0,0.0,360.0,3.0,0.0
7594,69.0,0.0,240.0,15.0,0.0
7595,69.0,0.0,60.0,0.0,0.0
7596,54.0,0.0,360.0,15.0,0.0
7597,69.0,60.0,60.0,5.0,0.0
7598,69.0,0.0,60.0,11.0,0.0
7599,71.0,0.0,60.0,0.0,0.0
7600,71.0,0.0,60.0,5.0,0.0
7601,71.0,0.0,60.0,3.0,0.0
7602,71.0,60.0,60.0,11.0,0.0
7603,57.0,0.0,120.0,6.0,0.0
7604,57.0,0.0,120.0,12.0,0.0
7605,69.0,60.0,60.0,3.0,0.0
7606,57.0,0.0,120.0,1.0,0.0
7607,57.0,0.0,120.0,3.0,0.0
7608,69.0,0.0,60.0,0.0,0.0
7609,69.0,0.0,60.0,5.0,0.0
7610,69.0,0.0,60.0,11.0,0.0
7611,67.0,0.0,60.0,0.0,0.0
7612,67.0,0.0,60.0,3.0,0.0
7613,67.0,60.0,60.0,5.0,0.0
7614,67.0,0.0,60.0,11.0,0.0
7615,62.0,0.0,480.0,12.0,0.0
7616,69.0,0.0,60.0,5.0,0.0
7617,74.0,0.0,120.0,15.0,0.0
7618,69.0,0.0,60.0,3.0,0.0
7619,69.0,60.0,60.0,11.0,0.0
7620,69.0,0.0,60.0,0.0,0.0
7621,62.0,0.0,480.0,6.0,0.0
7622,69.0,60.0,120.0,15.0,0.0
7623,62.0,0.0,480.0,3.0,0.0
7624,62.0,0.0,480.0,1.0,0.0
7625,71.0,0.0,60.0,0.0,0.0
7626,71.0,0.0,60.0,11.0,0.0
7627,71.0,0.0,60.0,3.0,0.0
7628,71.0,0.0,60.0,5.0,0.0
7629,67.0,0.0,60.0,11.0,0.0
7630,52.0,0.0,60.0,13.0,0.0
7631,71.0,0.0,120.0,15.0,0.0
7632,67.0,0.0,60.0,0.0,0.0
7633,67.0,0.0,60.0,3.0,0.0
7634,52.0,0.0,60.0,15.0,0.0
7635,52.0,60.0,60.0,1.0,0.0
7636,67.0,0.0,60.0,5.0,0.0
7637,52.0,0.0,60.0,3.0,0.0
7638,67.0,0.0,120.0,15.0,0.0
7639,40.0,0.0,60.0,8.0,0.0
7640,69.0,0.0,60.0,0.0,0.0
7641,54.0,0.0,60.0,15.0,0.0
7642,54.0,120.0,60.0,1.0,0.0
7643,69.0,0.0,60.0,3.0,0.0
7644,69.0,0.0,60.0,11.0,0.0
7645,54.0,0.0,60.0,3.0,0.0
7646,54.0,0.0,60.0,13.0,0.0
7647,42.0,0.0,60.0,8.0,0.0
7648,69.0,0.0,60.0,5.0,0.0
7649,55.0,0.0,120.0,1.0,0.0
7650,55.0,0.0,120.0,13.0,0.0
7651,71.0,0.0,120.0,11.0,0.0
7652,43.0,60.0,120.0,8.0,0.0
7653,55.0,0.0,120.0,3.0,0.0
7654,71.0,0.0,120.0,0.0,0.0
7655,71.0,0.0,120.0,5.0,0.0
7656,62.0,0.0,240.0,15.0,0.0
7657,55.0,0.0,120.0,15.0,0.0
7658,71.0,0.0,240.0,15.0,0.0
7659,71.0,0.0,120.0,3.0,0.0
7660,72.0,0.0,60.0,0.0,0.0
7661,54.0,0.0,60.0,15.0,0.0
7662,72.0,0.0,60.0,5.0,0.0
7663,54.0,0.0,60.0,1.0,0.0
7664,42.0,0.0,60.0,8.0,0.0
7665,54.0,0.0,60.0,3.0,0.0
7666,54.0,0.0,60.0,13.0,0.0
7667,72.0,0.0,60.0,11.0,0.0
7668,72.0,60.0,60.0,3.0,0.0
7669,71.0,0.0,60.0,3.0,0.0
7670,55.0,0.0,60.0,13.0,0.0
7671,71.0,0.0,60.0,5.0,0.0
7672,71.0,0.0,60.0,0.0,0.0
7673,43.0,0.0,60.0,8.0,0.0
7674,55.0,0.0,60.0,1.0,0.0
7675,71.0,0.0,60.0,11.0,0.0
7676,55.0,0.0,60.0,3.0,0.0
7677,55.0,60.0,60.0,15.0,0.0
7678,69.0,60.0,60.0,11.0,0.0
7679,60.0,0.0,240.0,12.0,0.0
7680,64.0,0.0,240.0,15.0,0.0
7681,57.0,60.0,120.0,15.0,0.0
7682,45.0,0.0,120.0,8.0,0.0
7683,69.0,0.0,60.0,0.0,0.0
7684,60.0,0.0,240.0,15.0,0.0
7685,57.0,0.0,120.0,1.0,0.0
7686,57.0,0.0,120.0,13.0,0.0
7687,60.0,0.0,240.0,1.0,0.0
7688,69.0,0.0,60.0,5.0,0.0
7689,60.0,0.0,240.0,3.0,0.0
7690,57.0,0.0,120.0,3.0,0.0
7691,69.0,0.0,60.0,3.0,0.0
7692,60.0,0.0,240.0,6.0,0.0
7693,67.0,0.0,60.0,5.0,0.0
7694,67.0,0.0,60.0,3.0,0.0
7695,67.0,0.0,60.0,0.0,0.0
7696,67.0,0.0,60.0,11.0,0.0
7697,55.0,0.0,60.0,3.0,0.0
7698,55.0,0.0,60.0,13.0,0.0
7699,66.0,0.0,60.0,11.0,0.0
7700,55.0,0.0,60.0,1.0,0.0
7701,55.0,0.0,60.0,15.0,0.0
7702,66.0,0.0,60.0,3.0,0.0
7703,43.0,60.0,60.0,8.0,0.0
7704,66.0,0.0,60.0,5.0,0.0
7705,66.0,0.0,60.0,0.0,0.0
7706,64.0,0.0,60.0,11.0,0.0
7707,64.0,120.0,60.0,5.0,0.0
7708,57.0,0.0,60.0,3.0,0.0
7709,57.0,0.0,60.0,15.0,0.0
7710,64.0,0.0,60.0,0.0,0.0
7711,57.0,0.0,60.0,13.0,0.0
7712,45.0,0.0,60.0,8.0,0.0
7713,64.0,0.0,60.0,3.0,0.0
7714,57.0,0.0,60.0,1.0,0.0
7715,63.0,0.0,120.0,11.0,0.0
7716,47.0,0.0,120.0,8.0,0.0
7717,59.0,0.0,120.0,12.0,0.0
7718,66.0,0.0,120.0,15.0,0.0
7719,59.0,0.0,120.0,15.0,0.0
7720,63.0,0.0,120.0,15.0,0.0
7721,63.0,60.0,120.0,5.0,0.0
7722,59.0,0.0,120.0,6.0,0.0
7723,59.0,0.0,120.0,13.0,0.0
7724,63.0,0.0,120.0,0.0,0.0
7725,59.0,0.0,120.0,1.0,0.0
7726,63.0,0.0,120.0,3.0,0.0
7727,59.0,0.0,120.0,3.0,0.0
7728,71.0,0.0,120.0,15.0,0.0
7729,61.0,0.0,60.0,6.0,0.0
7730,61.0,0.0,60.0,12.0,0.0
7731,66.0,0.0,120.0,0.0,0.0
7732,57.0,0.0,120.0,1.0,0.0
7733,66.0,0.0,120.0,5.0,0.0
7734,45.0,0.0,120.0,8.0,0.0
7735,63.0,120.0,120.0,15.0,0.0
7736,57.0,0.0,120.0,15.0,0.0
7737,57.0,0.0,120.0,3.0,0.0
7738,66.0,0.0,120.0,3.0,0.0
7739,57.0,0.0,120.0,13.0,0.0
7740,61.0,60.0,60.0,3.0,0.0
7741,66.0,0.0,120.0,11.0,0.0
7742,61.0,0.0,60.0,1.0,0.0
7743,63.0,0.0,60.0,12.0,0.0
7744,63.0,0.0,60.0,1.0,0.0
7745,63.0,0.0,60.0,6.0,0.0
7746,63.0,0.0,60.0,3.0,0.0
7747,55.0,0.0,120.0,1.0,0.0
7748,64.0,0.0,120.0,1.0,0.0
7749,64.0,0.0,120.0,12.0,0.0
7750,55.0,0.0,120.0,15.0,0.0
7751,64.0,0.0,120.0,6.0,0.0
7752,71.0,0.0,120.0,11.0,0.0
7753,55.0,0.0,120.0,13.0,0.0
7754,71.0,120.0,120.0,3.0,0.0
7755,55.0,0.0,120.0,3.0,0.0
7756,43.0,0.0,120.0,8.0,0.0
7757,64.0,0.0,120.0,3.0,0.0
7758,71.0,0.0,120.0,0.0,0.0
7759,71.0,0.0,120.0,5.0,0.0
7760,64.0,0.0,120.0,15.0,0.0
7761,71.0,0.0,120.0,15.0,0.0
7762,69.0,0.0,120.0,11.0,0.0
7763,66.0,60.0,120.0,12.0,0.0
7764,66.0,0.0,120.0,6.0,0.0
7765,54.0,0.0,120.0,13.0,0.0
7766,69.0,0.0,120.0,3.0,0.0
7767,69.0,0.0,120.0,0.0,0.0
7768,54.0,0.0,120.0,1.0,0.0
7769,66.0,0.0,120.0,1.0,0.0
7770,69.0,0.0,120.0,15.0,0.0
7771,54.0,0.0,120.0,15.0,0.0
7772,63.0,0.0,120.0,15.0,0.0
7773,69.0,0.0,120.0,5.0,0.0
7774,42.0,0.0,120.0,8.0,0.0
7775,66.0,0.0,120.0,3.0,0.0
7776,54.0,0.0,120.0,3.0,0.0
7777,40.0,60.0,120.0,8.0,0.0
7778,67.0,60.0,60.0,6.0,0.0
7779,67.0,0.0,360.0,11.0,0.0
7780,67.0,0.0,240.0,15.0,0.0
7781,67.0,0.0,360.0,5.0,0.0
7782,52.0,0.0,120.0,3.0,0.0
7783,67.0,0.0,60.0,12.0,0.0
7784,67.0,0.0,360.0,0.0,0.0
7785,52.0,0.0,120.0,15.0,0.0
7786,71.0,0.0,240.0,15.0,0.0
7787,52.0,0.0,120.0,13.0,0.0
7788,52.0,0.0,120.0,1.0,0.0
7789,67.0,0.0,60.0,1.0,0.0
7790,67.0,0.0,60.0,3.0,0.0
7791,66.0,0.0,60.0,12.0,0.0
7792,66.0,0.0,60.0,1.0,0.0
7793,66.0,0.0,60.0,3.0,0.0
7794,66.0,0.0,60.0,6.0,0.0
7795,64.0,0.0,60.0,6.0,0.0
7796,54.0,0.0,60.0,15.0,0.0
7797,64.0,0.0,60.0,3.0,0.0
7798,64.0,0.0,60.0,1.0,0.0
7799,54.0,0.0,60.0,1.0,0.0
7800,64.0,0.0,60.0,12.0,0.0
7801,42.0,0.0,60.0,8.0,0.0
7802,54.0,0.0,60.0,13.0,0.0
7803,54.0,60.0,60.0,3.0,0.0
7804,62.0,0.0,60.0,6.0,0.0
7805,55.0,0.0,60.0,3.0,0.0
7806,62.0,0.0,60.0,3.0,0.0
7807,55.0,0.0,60.0,15.0,0.0
7808,43.0,0.0,60.0,8.0,0.0
7809,62.0,120.0,60.0,1.0,0.0
7810,62.0,0.0,60.0,12.0,0.0
7811,55.0,0.0,60.0,13.0,0.0
7812,55.0,0.0,60.0,1.0,0.0
7813,61.0,0.0,120.0,3.0,0.0
7814,61.0,0.0,120.0,12.0,0.0
7815,57.0,0.0,360.0,13.0,0.0
7816,61.0,0.0,120.0,6.0,0.0
7817,57.0,0.0,360.0,15.0,0.0
7818,61.0,0.0,120.0,15.0,0.0
7819,67.0,0.0,120.0,15.0,0.0
7820,45.0,0.0,360.0,8.0,0.0
7821,57.0,0.0,360.0,1.0,0.0
7822,61.0,120.0,120.0,1.0,0.0
7823,64.0,0.0,120.0,15.0,0.0
7824,57.0,0.0,360.0,3.0,0.0
7825,62.0,0.0,240.0,6.0,0.0
7826,66.0,0.0,120.0,0.0,0.0
7827,62.0,0.0,240.0,12.0,0.0
7828,66.0,0.0,120.0,15.0,0.0
7829,62.0,0.0,120.0,15.0,0.0
7830,62.0,0.0,240.0,1.0,0.0
7831,62.0,0.0,240.0,3.0,0.0
7832,66.0,0.0,120.0,3.0,0.0
7833,66.0,0.0,120.0,11.0,0.0
7834,66.0,120.0,120.0,5.0,0.0
7835,81.0,0.0,480.0,0.0,0.0
7836,81.0,0.0,480.0,10.0,0.0
7837,61.0,0.0,120.0,15.0,0.0
7838,64.0,0.0,120.0,5.0,0.0
7839,64.0,0.0,120.0,0.0,0.0
7840,64.0,0.0,120.0,11.0,0.0
7841,64.0,0.0,120.0,3.0,0.0
7842,64.0,120.0,120.0,15.0,0.0
7843,81.0,0.0,480.0,4.0,0.0
7844,55.0,0.0,120.0,3.0,0.0
7845,69.0,0.0,120.0,3.0,0.0
7846,43.0,0.0,120.0,8.0,0.0
7847,69.0,0.0,120.0,11.0,0.0
7848,61.0,0.0,120.0,3.0,0.0
7849,69.0,120.0,120.0,5.0,0.0
7850,55.0,0.0,120.0,15.0,0.0
7851,69.0,0.0,120.0,15.0,0.0
7852,61.0,0.0,120.0,1.0,0.0
7853,55.0,0.0,120.0,13.0,0.0
7854,64.0,0.0,120.0,15.0,0.0
7855,61.0,0.0,120.0,6.0,0.0
7856,73.0,0.0,120.0,15.0,0.0
7857,61.0,0.0,120.0,12.0,0.0
7858,69.0,0.0,120.0,0.0,0.0
7859,55.0,0.0,120.0,1.0,0.0
7860,71.0,0.0,120.0,3.0,0.0
7861,62.0,0.0,120.0,6.0,0.0
7862,62.0,0.0,120.0,15.0,0.0
7863,62.0,120.0,120.0,12.0,0.0
7864,54.0,0.0,120.0,13.0,0.0
7865,62.0,0.0,120.0,3.0,0.0
7866,54.0,0.0,120.0,1.0,0.0
7867,54.0,0.0,120.0,3.0,0.0
7868,69.0,0.0,120.0,15.0,0.0
7869,71.0,0.0,120.0,5.0,0.0
7870,62.0,0.0,120.0,1.0,0.0
7871,71.0,0.0,120.0,11.0,0.0
7872,42.0,0.0,120.0,8.0,0.0
7873,71.0,0.0,120.0,0.0,0.0
7874,54.0,0.0,120.0,15.0,0.0
7875,52.0,120.0,120.0,3.0,0.0
7876,64.0,0.0,120.0,6.0,0.0
7877,73.0,0.0,120.0,11.0,0.0
7878,40.0,0.0,120.0,8.0,0.0
7879,64.0,0.0,120.0,15.0,0.0
7880,69.0,0.0,120.0,15.0,0.0
7881,73.0,0.0,120.0,15.0,0.0
7882,52.0,0.0,120.0,15.0,0.0
7883,52.0,0.0,120.0,13.0,0.0
7884,64.0,0.0,120.0,3.0,0.0
7885,73.0,0.0,120.0,0.0,0.0
7886,64.0,0.0,120.0,1.0,0.0
7887,52.0,0.0,120.0,1.0,0.0
7888,73.0,0.0,120.0,5.0,0.0
7889,64.0,0.0,120.0,12.0,0.0
7890,73.0,0.0,120.0,3.0,0.0
7891,38.0,0.0,120.0,8.0,0.0
7892,50.0,0.0,120.0,1.0,0.0
7893,66.0,60.0,240.0,1.0,0.0
7894,78.0,0.0,240.0,15.0,0.0
7895,50.0,0.0,120.0,15.0,0.0
7896,50.0,0.0,120.0,13.0,0.0
7897,74.0,0.0,120.0,5.0,0.0
7898,69.0,0.0,240.0,15.0,0.0
7899,74.0,0.0,240.0,15.0,0.0
7900,78.0,0.0,240.0,0.0,0.0
7901,66.0,0.0,240.0,6.0,0.0
7902,74.0,60.0,120.0,0.0,0.0
7903,74.0,0.0,120.0,11.0,0.0
7904,66.0,0.0,240.0,12.0,0.0
7905,50.0,0.0,120.0,3.0,0.0
7906,74.0,0.0,120.0,3.0,0.0
7907,66.0,0.0,240.0,3.0,0.0
7908,78.0,0.0,240.0,4.0,0.0
7909,78.0,0.0,240.0,10.0,0.0
7910,59.0,0.0,60.0,3.0,0.0
7911,62.0,0.0,120.0,11.0,0.0
7912,62.0,0.0,120.0,5.0,0.0
7913,47.0,60.0,60.0,8.0,0.0
7914,59.0,0.0,60.0,1.0,0.0
7915,59.0,0.0,60.0,15.0,0.0
7916,62.0,0.0,120.0,0.0,0.0
7917,62.0,0.0,120.0,3.0,0.0
7918,59.0,0.0,60.0,13.0,0.0
7919,57.0,0.0,60.0,13.0,0.0
7920,57.0,0.0,60.0,3.0,0.0
7921,45.0,0.0,60.0,8.0,0.0
7922,57.0,0.0,60.0,15.0,0.0
7923,57.0,0.0,60.0,1.0,0.0
7924,55.0,0.0,60.0,13.0,0.0
7925,43.0,0.0,60.0,8.0,0.0
7926,67.0,0.0,180.0,5.0,0.0
7927,55.0,0.0,60.0,3.0,0.0
7928,67.0,0.0,180.0,3.0,0.0
7929,71.0,0.0,180.0,15.0,0.0
7930,74.0,0.0,180.0,15.0,0.0
7931,83.0,0.0,240.0,4.0,0.0
7932,67.0,0.0,180.0,0.0,0.0
7933,83.0,0.0,240.0,0.0,0.0
7934,55.0,0.0,60.0,15.0,0.0
7935,67.0,0.0,180.0,11.0,0.0
7936,83.0,0.0,240.0,10.0,0.0
7937,55.0,60.0,60.0,1.0,0.0
7938,52.0,0.0,60.0,13.0,0.0
7939,40.0,0.0,60.0,8.0,0.0
7940,52.0,60.0,60.0,1.0,0.0
7941,52.0,0.0,60.0,3.0,0.0
7942,52.0,0.0,60.0,15.0,0.0
7943,54.0,0.0,60.0,15.0,0.0
7944,54.0,0.0,60.0,13.0,0.0
7945,54.0,0.0,60.0,3.0,0.0
7946,54.0,0.0,60.0,1.0,0.0
7947,42.0,60.0,60.0,8.0,0.0
7948,55.0,0.0,60.0,13.0,0.0
7949,66.0,0.0,60.0,0.0,0.0
7950,55.0,0.0,60.0,15.0,0.0
7951,66.0,0.0,60.0,3.0,0.0
7952,43.0,120.0,60.0,8.0,0.0
7953,66.0,0.0,60.0,11.0,0.0
7954,66.0,0.0,60.0,5.0,0.0
7955,71.0,0.0,60.0,15.0,0.0
7956,66.0,0.0,60.0,15.0,0.0
7957,74.0,0.0,60.0,15.0,0.0
7958,55.0,0.0,60.0,1.0,0.0
7959,55.0,0.0,60.0,3.0,0.0
7960,64.0,0.0,120.0,0.0,0.0
7961,73.0,0.0,480.0,0.0,0.0
7962,64.0,0.0,120.0,5.0,0.0
7963,64.0,120.0,120.0,3.0,0.0
7964,57.0,0.0,240.0,13.0,0.0
7965,73.0,0.0,120.0,15.0,0.0
7966,57.0,0.0,120.0,15.0,0.0
7967,69.0,0.0,120.0,15.0,0.0
7968,73.0,0.0,480.0,4.0,0.0
7969,64.0,0.0,120.0,11.0,0.0
7970,73.0,0.0,480.0,10.0,0.0
7971,64.0,0.0,120.0,15.0,0.0
7972,45.0,0.0,120.0,8.0,0.0
7973,64.0,0.0,120.0,11.0,0.0
7974,57.0,0.0,120.0,6.0,0.0
7975,69.0,0.0,360.0,15.0,0.0
7976,57.0,0.0,120.0,3.0,0.0
7977,57.0,0.0,120.0,12.0,0.0
7978,57.0,0.0,120.0,1.0,0.0
7979,64.0,0.0,360.0,15.0,0.0
7980,57.0,0.0,120.0,15.0,0.0
7981,64.0,0.0,120.0,3.0,0.0
7982,57.0,0.0,120.0,7.0,0.0
7983,64.0,120.0,120.0,5.0,0.0
7984,64.0,0.0,120.0,0.0,0.0
7985,73.0,0.0,360.0,15.0,0.0
7986,57.0,0.0,120.0,3.0,0.0
7987,69.0,0.0,360.0,3.0,0.0
7988,57.0,0.0,120.0,15.0,0.0
7989,69.0,0.0,360.0,11.0,0.0
7990,57.0,0.0,120.0,1.0,0.0
7991,69.0,0.0,360.0,0.0,0.0
7992,57.0,120.0,120.0,7.0,0.0
7993,57.0,0.0,120.0,12.0,0.0
7994,57.0,0.0,120.0,6.0,0.0
7995,69.0,0.0,360.0,5.0,0.0
7996,57.0,0.0,120.0,12.0,0.0
7997,57.0,0.0,120.0,3.0,0.0
7998,57.0,0.0,120.0,7.0,0.0
7999,57.0,60.0,120.0,15.0,0.0
8000,57.0,0.0,120.0,1.0,0.0
8001,57.0,0.0,120.0,6.0,0.0
8002,59.0,0.0,60.0,12.0,0.0
8003,59.0,0.0,60.0,3.0,0.0
8004,74.0,60.0,120.0,15.0,0.0
8005,74.0,0.0,240.0,0.0,0.0
8006,74.0,0.0,240.0,4.0,0.0
8007,69.0,0.0,120.0,15.0,0.0
8008,74.0,0.0,240.0,10.0,0.0
8009,59.0,0.0,60.0,6.0,0.0
8010,59.0,60.0,60.0,7.0,0.0
8011,59.0,0.0,60.0,1.0,0.0
8012,59.0,0.0,60.0,15.0,0.0
8013,78.0,0.0,120.0,15.0,0.0
8014,61.0,0.0,60.0,6.0,0.0
8015,61.0,0.0,60.0,12.0,0.0
8016,61.0,0.0,60.0,15.0,0.0
8017,61.0,0.0,60.0,3.0,0.0
8018,61.0,0.0,60.0,1.0,0.0
8019,61.0,0.0,60.0,7.0,0.0
8020,67.0,0.0,360.0,15.0,0.0
8021,59.0,0.0,60.0,6.0,0.0
8022,67.0,0.0,60.0,0.0,0.0
8023,59.0,0.0,60.0,12.0,0.0
8024,67.0,0.0,60.0,11.0,0.0
8025,59.0,0.0,60.0,1.0,0.0
8026,67.0,0.0,60.0,5.0,0.0
8027,67.0,0.0,60.0,3.0,0.0
8028,59.0,0.0,60.0,3.0,0.0
8029,74.0,0.0,360.0,15.0,0.0
8030,59.0,0.0,60.0,15.0,0.0
8031,59.0,60.0,60.0,7.0,0.0
8032,57.0,0.0,60.0,15.0,0.0
8033,57.0,0.0,60.0,3.0,0.0
8034,66.0,0.0,60.0,0.0,0.0
8035,66.0,0.0,60.0,11.0,0.0
8036,57.0,0.0,60.0,7.0,0.0
8037,66.0,0.0,60.0,3.0,0.0
8038,57.0,0.0,60.0,1.0,0.0
8039,57.0,60.0,60.0,12.0,0.0
8040,57.0,0.0,60.0,6.0,0.0
8041,66.0,0.0,60.0,5.0,0.0
8042,67.0,60.0,60.0,5.0,0.0
8043,59.0,0.0,60.0,1.0,0.0
8044,74.0,0.0,120.0,4.0,0.0
8045,67.0,0.0,60.0,3.0,0.0
8046,74.0,60.0,120.0,10.0,0.0
8047,59.0,0.0,60.0,15.0,0.0
8048,59.0,0.0,60.0,12.0,0.0
8049,67.0,0.0,60.0,11.0,0.0
8050,59.0,0.0,60.0,7.0,0.0
8051,59.0,0.0,60.0,3.0,0.0
8052,74.0,0.0,120.0,0.0,0.0
8053,67.0,0.0,60.0,0.0,0.0
8054,59.0,0.0,60.0,6.0,0.0
8055,61.0,0.0,60.0,6.0,0.0
8056,69.0,0.0,60.0,3.0,0.0
8057,61.0,0.0,60.0,7.0,0.0
8058,61.0,0.0,60.0,15.0,0.0
8059,69.0,0.0,60.0,5.0,0.0
8060,69.0,0.0,60.0,11.0,0.0
8061,69.0,0.0,60.0,0.0,0.0
8062,61.0,0.0,60.0,1.0,0.0
8063,61.0,0.0,60.0,12.0,0.0
8064,61.0,0.0,60.0,3.0,0.0
8065,66.0,0.0,60.0,3.0,0.0
8066,57.0,0.0,60.0,6.0,0.0
8067,57.0,0.0,60.0,12.0,0.0
8068,57.0,0.0,60.0,1.0,0.0
8069,57.0,0.0,60.0,3.0,0.0
8070,74.0,0.0,120.0,10.0,0.0
8071,74.0,0.0,120.0,4.0,0.0
8072,57.0,0.0,60.0,15.0,0.0
8073,66.0,0.0,60.0,0.0,0.0
8074,57.0,0.0,60.0,7.0,0.0
8075,74.0,60.0,120.0,0.0,0.0
8076,66.0,0.0,60.0,11.0,0.0
8077,66.0,60.0,60.0,5.0,0.0
8078,59.0,0.0,60.0,7.0,0.0
8079,59.0,0.0,60.0,12.0,0.0
8080,59.0,0.0,60.0,1.0,0.0
8081,67.0,0.0,60.0,0.0,0.0
8082,67.0,0.0,60.0,11.0,0.0
8083,67.0,0.0,60.0,3.0,0.0
8084,59.0,0.0,60.0,6.0,0.0
8085,67.0,0.0,60.0,5.0,0.0
8086,59.0,0.0,60.0,15.0,0.0
8087,59.0,0.0,60.0,3.0,0.0
8088,76.0,60.0,360.0,4.0,0.0
8089,64.0,0.0,120.0,3.0,0.0
8090,45.0,0.0,480.0,8.0,0.0
8091,69.0,0.0,480.0,15.0,0.0
8092,57.0,0.0,480.0,1.0,0.0
8093,76.0,0.0,480.0,15.0,0.0
8094,73.0,0.0,480.0,15.0,0.0
8095,64.0,0.0,120.0,0.0,0.0
8096,64.0,0.0,120.0,5.0,0.0
8097,61.0,60.0,60.0,3.0,0.0
8098,61.0,0.0,60.0,12.0,0.0
8099,64.0,0.0,120.0,11.0,0.0
8100,57.0,0.0,480.0,3.0,0.0
8101,61.0,0.0,60.0,1.0,0.0
8102,76.0,0.0,360.0,10.0,0.0
8103,61.0,0.0,60.0,6.0,0.0
8104,57.0,120.0,480.0,13.0,0.0
8105,57.0,0.0,360.0,15.0,0.0
8106,76.0,0.0,360.0,0.0,0.0
8107,62.0,0.0,60.0,6.0,0.0
8108,62.0,60.0,60.0,12.0,0.0
8109,62.0,0.0,60.0,1.0,0.0
8110,62.0,0.0,60.0,3.0,0.0
8111,66.0,0.0,60.0,3.0,0.0
8112,61.0,0.0,60.0,6.0,0.0
8113,61.0,60.0,60.0,3.0,0.0
8114,61.0,0.0,60.0,12.0,0.0
8115,61.0,0.0,60.0,1.0,0.0
8116,66.0,0.0,60.0,0.0,0.0
8117,66.0,0.0,60.0,5.0,0.0
8118,66.0,0.0,60.0,11.0,0.0
8119,67.0,0.0,60.0,0.0,0.0
8120,67.0,0.0,60.0,5.0,0.0
8121,59.0,0.0,60.0,1.0,0.0
8122,67.0,0.0,60.0,3.0,0.0
8123,67.0,0.0,60.0,11.0,0.0
8124,59.0,0.0,60.0,6.0,0.0
8125,59.0,60.0,60.0,12.0,0.0
8126,59.0,0.0,60.0,3.0,0.0
8127,69.0,0.0,360.0,11.0,0.0
8128,61.0,60.0,60.0,6.0,0.0
8129,61.0,0.0,60.0,1.0,0.0
8130,69.0,0.0,360.0,3.0,0.0
8131,69.0,60.0,360.0,0.0,0.0
8132,61.0,0.0,60.0,12.0,0.0
8133,69.0,0.0,360.0,5.0,0.0
8134,61.0,0.0,60.0,3.0,0.0
8135,62.0,0.0,60.0,12.0,0.0
8136,62.0,0.0,60.0,1.0,0.0
8137,62.0,0.0,60.0,3.0,0.0
8138,62.0,0.0,60.0,6.0,0.0
8139,59.0,0.0,60.0,6.0,0.0
8140,74.0,0.0,60.0,10.0,0.0
8141,59.0,60.0,60.0,3.0,0.0
8142,74.0,0.0,60.0,0.0,0.0
8143,57.0,0.0,120.0,15.0,0.0
8144,74.0,0.0,60.0,4.0,0.0
8145,59.0,0.0,60.0,1.0,0.0
8146,59.0,0.0,60.0,12.0,0.0
8147,61.0,0.0,60.0,6.0,0.0
8148,61.0,0.0,60.0,3.0,0.0
8149,76.0,0.0,60.0,0.0,0.0
8150,76.0,0.0,60.0,10.0,0.0
8151,61.0,0.0,60.0,1.0,0.0
8152,76.0,0.0,60.0,4.0,0.0
8153,61.0,0.0,60.0,12.0,0.0
8154,78.0,0.0,120.0,10.0,0.0
8155,54.0,0.0,240.0,3.0,0.0
8156,42.0,0.0,240.0,8.0,0.0
8157,62.0,0.0,240.0,6.0,0.0
8158,78.0,0.0,120.0,0.0,0.0
8159,62.0,0.0,240.0,12.0,0.0
8160,54.0,120.0,240.0,1.0,0.0
8161,78.0,0.0,240.0,15.0,0.0
8162,69.0,0.0,240.0,15.0,0.0
8163,54.0,0.0,240.0,15.0,0.0
8164,74.0,0.0,240.0,15.0,0.0
8165,62.0,0.0,240.0,1.0,0.0
8166,54.0,0.0,240.0,13.0,0.0
8167,78.0,0.0,120.0,4.0,0.0
8168,62.0,0.0,120.0,3.0,0.0
8169,76.0,0.0,60.0,4.0,0.0
8170,62.0,0.0,240.0,5.0,0.0
8171,76.0,60.0,60.0,10.0,0.0
8172,62.0,0.0,240.0,0.0,0.0
8173,76.0,0.0,60.0,0.0,0.0
8174,62.0,0.0,240.0,11.0,0.0
8175,78.0,0.0,60.0,10.0,0.0
8176,78.0,0.0,60.0,0.0,0.0
8177,78.0,0.0,60.0,4.0,0.0
8178,59.0,0.0,240.0,15.0,0.0
8179,79.0,0.0,120.0,10.0,0.0
8180,79.0,60.0,120.0,4.0,0.0
8181,59.0,0.0,240.0,13.0,0.0
8182,79.0,120.0,240.0,15.0,0.0
8183,47.0,0.0,240.0,8.0,0.0
8184,59.0,0.0,240.0,3.0,0.0
8185,74.0,0.0,240.0,15.0,0.0
8186,79.0,0.0,120.0,0.0,0.0
8187,59.0,0.0,240.0,1.0,0.0
8188,71.0,0.0,120.0,5.0,0.0
8189,78.0,0.0,60.0,4.0,0.0
8190,71.0,0.0,120.0,3.0,0.0
8191,78.0,0.0,60.0,10.0,0.0
8192,71.0,0.0,120.0,11.0,0.0
8193,71.0,0.0,120.0,0.0,0.0
8194,78.0,60.0,60.0,0.0,0.0
8195,79.0,0.0,60.0,10.0,0.0
8196,79.0,0.0,60.0,0.0,0.0
8197,79.0,0.0,60.0,4.0,0.0
8198,69.0,120.0,240.0,0.0,0.0
8199,81.0,0.0,360.0,15.0,0.0
8200,49.0,0.0,360.0,15.0,0.0
8201,64.0,0.0,360.0,15.0,0.0
8202,81.0,120.0,120.0,0.0,0.0
8203,49.0,0.0,480.0,13.0,0.0
8204,69.0,0.0,240.0,5.0,0.0
8205,37.0,0.0,480.0,8.0,0.0
8206,69.0,0.0,240.0,11.0,0.0
8207,49.0,0.0,480.0,1.0,0.0
8208,81.0,0.0,120.0,10.0,0.0
8209,81.0,0.0,120.0,4.0,0.0
8210,49.0,0.0,480.0,3.0,0.0
8211,69.0,0.0,240.0,3.0,0.0
8212,64.0,0.0,120.0,1.0,0.0
8213,76.0,0.0,120.0,4.0,0.0
8214,64.0,0.0,120.0,6.0,0.0
8215,76.0,0.0,120.0,0.0,0.0
8216,76.0,0.0,120.0,10.0,0.0
8217,64.0,0.0,120.0,3.0,0.0
8218,64.0,0.0,120.0,12.0,0.0
8219,81.0,0.0,120.0,4.0,0.0
8220,64.0,0.0,120.0,1.0,0.0
8221,64.0,0.0,120.0,12.0,0.0
8222,81.0,120.0,120.0,0.0,0.0
8223,64.0,0.0,120.0,3.0,0.0
8224,64.0,0.0,120.0,6.0,0.0
8225,81.0,0.0,120.0,10.0,0.0
8226,79.0,0.0,120.0,4.0,0.0
8227,64.0,0.0,120.0,6.0,0.0
8228,64.0,0.0,120.0,3.0,0.0
8229,79.0,0.0,120.0,15.0,0.0
8230,79.0,0.0,120.0,10.0,0.0
8231,64.0,0.0,120.0,15.0,0.0
8232,49.0,0.0,120.0,15.0,0.0
8233,79.0,0.0,120.0,0.0,0.0
8234,64.0,0.0,120.0,1.0,0.0
8235,64.0,60.0,120.0,12.0,0.0
8236,50.0,60.0,240.0,3.0,0.0
8237,66.0,0.0,60.0,1.0,0.0
8238,50.0,0.0,240.0,1.0,0.0
8239,50.0,0.0,240.0,15.0,0.0
8240,69.0,0.0,240.0,15.0,0.0
8241,66.0,0.0,60.0,12.0,0.0
8242,78.0,0.0,120.0,0.0,0.0
8243,78.0,0.0,240.0,15.0,0.0
8244,78.0,0.0,120.0,4.0,0.0
8245,78.0,0.0,120.0,10.0,0.0
8246,38.0,0.0,240.0,8.0,0.0
8247,66.0,0.0,60.0,3.0,0.0
8248,66.0,60.0,60.0,6.0,0.0
8249,50.0,0.0,240.0,13.0,0.0
8250,62.0,0.0,240.0,15.0,0.0
8251,67.0,0.0,60.0,3.0,0.0
8252,67.0,60.0,60.0,6.0,0.0
8253,67.0,0.0,60.0,12.0,0.0
8254,67.0,0.0,60.0,1.0,0.0
8255,69.0,0.0,120.0,0.0,0.0
8256,66.0,0.0,60.0,1.0,0.0
8257,69.0,0.0,120.0,4.0,0.0
8258,69.0,0.0,120.0,10.0,0.0
8259,66.0,60.0,60.0,3.0,0.0
8260,66.0,0.0,60.0,6.0,0.0
8261,66.0,0.0,60.0,12.0,0.0
8262,64.0,0.0,60.0,12.0,0.0
8263,64.0,0.0,60.0,1.0,0.0
8264,64.0,0.0,60.0,3.0,0.0
8265,64.0,0.0,60.0,6.0,0.0
8266,74.0,0.0,480.0,0.0,0.0
8267,66.0,0.0,60.0,3.0,0.0
8268,66.0,60.0,60.0,6.0,0.0
8269,74.0,60.0,480.0,10.0,0.0
8270,66.0,0.0,60.0,1.0,0.0
8271,50.0,0.0,120.0,3.0,0.0
8272,38.0,0.0,120.0,8.0,0.0
8273,50.0,0.0,120.0,13.0,0.0
8274,74.0,0.0,480.0,4.0,0.0
8275,66.0,0.0,60.0,12.0,0.0
8276,50.0,0.0,120.0,1.0,0.0
8277,67.0,0.0,60.0,1.0,0.0
8278,67.0,0.0,60.0,12.0,0.0
8279,67.0,0.0,60.0,3.0,0.0
8280,67.0,60.0,60.0,6.0,0.0
8281,50.0,0.0,120.0,15.0,0.0
8282,78.0,0.0,120.0,15.0,0.0
8283,62.0,60.0,120.0,15.0,0.0
8284,69.0,0.0,120.0,15.0,0.0
8285,50.0,0.0,120.0,3.0,0.0
8286,38.0,0.0,120.0,8.0,0.0
8287,64.0,0.0,60.0,12.0,0.0
8288,64.0,0.0,60.0,1.0,0.0
8289,64.0,0.0,60.0,3.0,0.0
8290,50.0,0.0,120.0,13.0,0.0
8291,50.0,0.0,120.0,1.0,0.0
8292,64.0,60.0,60.0,6.0,0.0
8293,66.0,0.0,60.0,3.0,0.0
8294,66.0,0.0,60.0,6.0,0.0
8295,66.0,0.0,60.0,12.0,0.0
8296,66.0,0.0,60.0,1.0,0.0
8297,67.0,0.0,60.0,3.0,0.0
8298,67.0,0.0,60.0,12.0,0.0
8299,52.0,60.0,360.0,3.0,0.0
8300,68.0,0.0,240.0,15.0,0.0
8301,67.0,60.0,60.0,6.0,0.0
8302,40.0,0.0,360.0,8.0,0.0
8303,71.0,0.0,240.0,15.0,0.0
8304,52.0,0.0,360.0,15.0,0.0
8305,52.0,0.0,360.0,1.0,0.0
8306,67.0,0.0,60.0,1.0,0.0
8307,74.0,0.0,240.0,15.0,0.0
8308,52.0,0.0,360.0,13.0,0.0
8309,69.0,60.0,60.0,6.0,0.0
8310,69.0,0.0,60.0,12.0,0.0
8311,69.0,0.0,60.0,3.0,0.0
8312,69.0,0.0,60.0,1.0,0.0
8313,67.0,0.0,60.0,6.0,0.0
8314,67.0,0.0,60.0,1.0,0.0
8315,67.0,60.0,60.0,3.0,0.0
8316,67.0,0.0,60.0,12.0,0.0
8317,66.0,0.0,60.0,6.0,0.0
8318,66.0,0.0,60.0,1.0,0.0
8319,66.0,0.0,60.0,12.0,0.0
8320,66.0,0.0,60.0,3.0,0.0
8321,73.0,120.0,240.0,15.0,0.0
8322,67.0,60.0,60.0,1.0,0.0
8323,67.0,0.0,60.0,6.0,0.0
8324,73.0,0.0,240.0,10.0,0.0
8325,67.0,0.0,60.0,3.0,0.0
8326,67.0,0.0,60.0,12.0,0.0
8327,73.0,0.0,240.0,0.0,0.0
8328,73.0,0.0,240.0,4.0,0.0
8329,68.0,0.0,240.0,15.0,0.0
8330,69.0,0.0,60.0,3.0,0.0
8331,69.0,0.0,60.0,1.0,0.0
8332,69.0,0.0,60.0,12.0,0.0
8333,69.0,0.0,60.0,6.0,0.0
8334,50.0,0.0,60.0,13.0,0.0
8335,66.0,0.0,60.0,1.0,0.0
8336,50.0,0.0,60.0,1.0,0.0
8337,50.0,0.0,60.0,15.0,0.0
8338,66.0,60.0,60.0,6.0,0.0
8339,66.0,0.0,60.0,3.0,0.0
8340,38.0,0.0,60.0,8.0,0.0
8341,66.0,0.0,60.0,12.0,0.0
8342,50.0,0.0,60.0,3.0,0.0
8343,67.0,0.0,60.0,6.0,0.0
8344,52.0,0.0,60.0,15.0,0.0
8345,52.0,0.0,60.0,1.0,0.0
8346,67.0,0.0,60.0,1.0,0.0
8347,67.0,0.0,60.0,3.0,0.0
8348,52.0,0.0,60.0,13.0,0.0
8349,52.0,0.0,60.0,3.0,0.0
8350,40.0,0.0,60.0,8.0,0.0
8351,67.0,0.0,60.0,12.0,0.0
8352,74.0,0.0,120.0,4.0,0.0
8353,69.0,0.0,120.0,1.0,0.0
8354,69.0,0.0,120.0,6.0,0.0
8355,54.0,0.0,120.0,3.0,0.0
8356,69.0,0.0,120.0,12.0,0.0
8357,42.0,0.0,120.0,8.0,0.0
8358,54.0,60.0,120.0,13.0,0.0
8359,74.0,0.0,120.0,10.0,0.0
8360,74.0,0.0,240.0,15.0,0.0
8361,54.0,0.0,120.0,15.0,0.0
8362,69.0,0.0,240.0,15.0,0.0
8363,54.0,0.0,120.0,1.0,0.0
8364,69.0,0.0,120.0,3.0,0.0
8365,74.0,0.0,120.0,0.0,0.0
8366,74.0,0.0,120.0,0.0,0.0
8367,66.0,0.0,120.0,1.0,0.0
8368,62.0,0.0,60.0,1.0,0.0
8369,62.0,60.0,60.0,3.0,0.0
8370,62.0,0.0,60.0,13.0,0.0
8371,66.0,0.0,120.0,3.0,0.0
8372,74.0,0.0,120.0,4.0,0.0
8373,62.0,0.0,60.0,15.0,0.0
8374,74.0,120.0,120.0,10.0,0.0
8375,50.0,0.0,60.0,8.0,0.0
8376,66.0,0.0,120.0,12.0,0.0
8377,66.0,0.0,120.0,6.0,0.0
8378,49.0,0.0,60.0,8.0,0.0
8379,61.0,0.0,60.0,13.0,0.0
8380,61.0,0.0,60.0,15.0,0.0
8381,61.0,0.0,60.0,1.0,0.0
8382,61.0,0.0,60.0,3.0,0.0
8383,59.0,0.0,120.0,1.0,0.0
8384,68.0,0.0,120.0,12.0,0.0
8385,59.0,0.0,120.0,13.0,0.0
8386,47.0,0.0,120.0,8.0,0.0
8387,68.0,120.0,120.0,1.0,0.0
8388,68.0,0.0,120.0,6.0,0.0
8389,74.0,0.0,480.0,10.0,0.0
8390,68.0,0.0,120.0,15.0,0.0
8391,74.0,120.0,480.0,4.0,0.0
8392,74.0,0.0,120.0,15.0,0.0
8393,74.0,0.0,480.0,0.0,0.0
8394,68.0,0.0,120.0,3.0,0.0
8395,59.0,0.0,120.0,15.0,0.0
8396,59.0,0.0,120.0,3.0,0.0
8397,57.0,0.0,120.0,15.0,0.0
8398,74.0,0.0,120.0,15.0,0.0
8399,69.0,0.0,120.0,15.0,0.0
8400,57.0,0.0,120.0,1.0,0.0
8401,69.0,0.0,120.0,3.0,0.0
8402,57.0,0.0,120.0,13.0,0.0
8403,45.0,0.0,120.0,8.0,0.0
8404,57.0,0.0,120.0,3.0,0.0
8405,69.0,120.0,120.0,6.0,0.0
8406,69.0,0.0,120.0,12.0,0.0
8407,69.0,0.0,120.0,1.0,0.0
8408,76.0,0.0,480.0,0.0,0.0
8409,74.0,0.0,240.0,15.0,0.0
8410,44.0,0.0,120.0,8.0,0.0
8411,71.0,0.0,240.0,15.0,0.0
8412,71.0,0.0,240.0,3.0,0.0
8413,76.0,0.0,480.0,5.0,0.0
8414,76.0,0.0,240.0,15.0,0.0
8415,56.0,120.0,120.0,3.0,0.0
8416,76.0,0.0,480.0,11.0,0.0
8417,71.0,0.0,240.0,6.0,0.0
8418,71.0,0.0,240.0,12.0,0.0
8419,56.0,0.0,120.0,13.0,0.0
8420,71.0,0.0,240.0,1.0,0.0
8421,76.0,0.0,480.0,3.0,0.0
8422,56.0,0.0,120.0,1.0,0.0
8423,56.0,0.0,120.0,15.0,0.0
8424,59.0,0.0,120.0,1.0,0.0
8425,47.0,0.0,120.0,8.0,0.0
8426,59.0,0.0,120.0,15.0,0.0
8427,59.0,0.0,120.0,13.0,0.0
8428,59.0,0.0,120.0,3.0,0.0
8429,52.0,0.0,240.0,13.0,0.0
8430,72.0,120.0,120.0,10.0,0.0
8431,69.0,0.0,120.0,6.0,0.0
8432,69.0,0.0,120.0,1.0,0.0
8433,52.0,0.0,240.0,1.0,0.0
8434,52.0,0.0,240.0,3.0,0.0
8435,72.0,0.0,120.0,4.0,0.0
8436,72.0,0.0,120.0,0.0,0.0
8437,69.0,0.0,120.0,3.0,0.0
8438,40.0,0.0,240.0,8.0,0.0
8439,52.0,0.0,240.0,15.0,0.0
8440,72.0,0.0,120.0,15.0,0.0
8441,76.0,0.0,120.0,15.0,0.0
8442,69.0,0.0,120.0,15.0,0.0
8443,69.0,0.0,120.0,12.0,0.0
8444,68.0,0.0,120.0,12.0,0.0
8445,71.0,0.0,120.0,0.0,0.0
8446,71.0,120.0,120.0,4.0,0.0
8447,76.0,0.0,120.0,15.0,0.0
8448,71.0,0.0,120.0,15.0,0.0
8449,68.0,0.0,120.0,15.0,0.0
8450,68.0,0.0,120.0,3.0,0.0
8451,68.0,0.0,120.0,1.0,0.0
8452,71.0,0.0,120.0,10.0,0.0
8453,68.0,0.0,120.0,6.0,0.0
8454,69.0,0.0,120.0,12.0,0.0
8455,72.0,0.0,240.0,10.0,0.0
8456,69.0,0.0,120.0,6.0,0.0
8457,72.0,0.0,240.0,0.0,0.0
8458,69.0,0.0,120.0,1.0,0.0
8459,72.0,0.0,240.0,4.0,0.0
8460,72.0,0.0,240.0,3.0,0.0
8461,72.0,0.0,240.0,5.0,0.0
8462,69.0,120.0,120.0,3.0,0.0
8463,72.0,0.0,240.0,11.0,0.0
8464,57.0,0.0,120.0,1.0,0.0
8465,76.0,0.0,120.0,15.0,0.0
8466,57.0,0.0,120.0,15.0,0.0
8467,57.0,0.0,120.0,7.0,0.0
8468,57.0,120.0,120.0,3.0,0.0
8469,57.0,0.0,120.0,12.0,0.0
8470,72.0,0.0,120.0,15.0,0.0
8471,57.0,0.0,120.0,6.0,0.0
8472,77.0,0.0,240.0,0.0,0.0
8473,77.0,0.0,240.0,11.0,0.0
8474,62.0,0.0,120.0,7.0,0.0
8475,62.0,0.0,120.0,1.0,0.0
8476,77.0,0.0,240.0,5.0,0.0
8477,77.0,0.0,240.0,3.0,0.0
8478,62.0,0.0,120.0,12.0,0.0
8479,71.0,0.0,240.0,4.0,0.0
8480,62.0,120.0,120.0,15.0,0.0
8481,71.0,0.0,240.0,10.0,0.0
8482,69.0,0.0,240.0,15.0,0.0
8483,62.0,0.0,120.0,3.0,0.0
8484,71.0,0.0,240.0,0.0,0.0
8485,62.0,0.0,120.0,6.0,0.0
8486,77.0,0.0,240.0,15.0,0.0
8487,59.0,0.0,120.0,7.0,0.0
8488,59.0,0.0,120.0,1.0,0.0
8489,59.0,0.0,120.0,3.0,0.0
8490,59.0,0.0,120.0,6.0,0.0
8491,59.0,120.0,120.0,15.0,0.0
8492,59.0,0.0,120.0,12.0,0.0
8493,64.0,0.0,240.0,3.0,0.0
8494,64.0,0.0,240.0,6.0,0.0
8495,68.0,0.0,480.0,3.0,0.0
8496,64.0,120.0,120.0,15.0,0.0
8497,71.0,0.0,480.0,15.0,0.0
8498,71.0,120.0,240.0,0.0,0.0
8499,68.0,0.0,480.0,0.0,0.0
8500,64.0,0.0,240.0,12.0,0.0
8501,68.0,0.0,480.0,11.0,0.0
8502,64.0,0.0,240.0,1.0,0.0
8503,68.0,0.0,480.0,5.0,0.0
8504,71.0,0.0,240.0,4.0,0.0
8505,68.0,0.0,480.0,15.0,0.0
8506,71.0,0.0,240.0,10.0,0.0
8507,40.0,0.0,120.0,8.0,0.0
8508,52.0,0.0,120.0,3.0,0.0
8509,52.0,0.0,120.0,13.0,0.0
8510,52.0,0.0,120.0,15.0,0.0
8511,64.0,0.0,360.0,15.0,0.0
8512,52.0,0.0,120.0,1.0,0.0
8513,52.0,0.0,120.0,1.0,0.0
8514,52.0,120.0,120.0,13.0,0.0
8515,52.0,0.0,120.0,3.0,0.0
8516,52.0,0.0,120.0,15.0,0.0
8517,40.0,0.0,120.0,8.0,0.0
8518,40.0,60.0,120.0,8.0,0.0
8519,52.0,0.0,120.0,1.0,0.0
8520,52.0,0.0,120.0,15.0,0.0
8521,52.0,0.0,120.0,3.0,0.0
8522,52.0,0.0,120.0,13.0,0.0
8523,53.0,0.0,60.0,1.0,0.0
8524,73.0,0.0,240.0,15.0,0.0
8525,41.0,0.0,60.0,8.0,0.0
8526,53.0,60.0,60.0,3.0,0.0
8527,53.0,0.0,60.0,13.0,0.0
8528,69.0,0.0,240.0,3.0,0.0
8529,53.0,0.0,60.0,15.0,0.0
8530,69.0,0.0,240.0,11.0,0.0
8531,69.0,0.0,240.0,15.0,0.0
8532,69.0,0.0,240.0,5.0,0.0
8533,55.0,0.0,60.0,15.0,0.0
8534,55.0,0.0,60.0,3.0,0.0
8535,55.0,0.0,60.0,1.0,0.0
8536,55.0,0.0,60.0,13.0,0.0
8537,43.0,60.0,60.0,8.0,0.0
8538,69.0,60.0,120.0,10.0,0.0
8539,53.0,60.0,60.0,15.0,0.0
8540,53.0,0.0,60.0,1.0,0.0
8541,69.0,0.0,120.0,0.0,0.0
8542,53.0,0.0,60.0,3.0,0.0
8543,41.0,0.0,60.0,8.0,0.0
8544,69.0,0.0,60.0,4.0,0.0
8545,53.0,0.0,60.0,13.0,0.0
8546,52.0,0.0,60.0,15.0,0.0
8547,52.0,0.0,60.0,1.0,0.0
8548,40.0,0.0,60.0,8.0,0.0
8549,52.0,0.0,60.0,13.0,0.0
8550,52.0,0.0,60.0,3.0,0.0
8551,54.0,0.0,60.0,3.0,0.0
8552,74.0,0.0,120.0,10.0,0.0
8553,42.0,0.0,60.0,8.0,0.0
8554,69.0,0.0,120.0,15.0,0.0
8555,54.0,60.0,60.0,13.0,0.0
8556,74.0,0.0,120.0,15.0,0.0
8557,74.0,0.0,120.0,0.0,0.0
8558,54.0,0.0,60.0,1.0,0.0
8559,74.0,0.0,120.0,4.0,0.0
8560,54.0,0.0,60.0,15.0,0.0
8561,55.0,0.0,60.0,3.0,0.0
8562,55.0,0.0,60.0,1.0,0.0
8563,43.0,60.0,60.0,8.0,0.0
8564,55.0,0.0,60.0,15.0,0.0
8565,55.0,0.0,60.0,13.0,0.0
8566,69.0,0.0,120.0,15.0,0.0
8567,72.0,0.0,120.0,10.0,0.0
8568,72.0,60.0,120.0,4.0,0.0
8569,52.0,0.0,60.0,3.0,0.0
8570,52.0,0.0,60.0,1.0,0.0
8571,72.0,0.0,120.0,0.0,0.0
8572,72.0,0.0,120.0,15.0,0.0
8573,52.0,0.0,60.0,13.0,0.0
8574,40.0,0.0,60.0,8.0,0.0
8575,52.0,60.0,60.0,15.0,0.0
8576,54.0,0.0,60.0,13.0,0.0
8577,54.0,0.0,60.0,1.0,0.0
8578,54.0,0.0,60.0,15.0,0.0
8579,54.0,0.0,60.0,3.0,0.0
8580,42.0,0.0,60.0,8.0,0.0
8581,55.0,0.0,60.0,15.0,0.0
8582,55.0,0.0,60.0,1.0,0.0
8583,55.0,0.0,60.0,3.0,0.0
8584,71.0,0.0,120.0,0.0,0.0
8585,71.0,0.0,60.0,4.0,0.0
8586,71.0,0.0,120.0,15.0,0.0
8587,74.0,0.0,120.0,15.0,0.0
8588,43.0,60.0,60.0,8.0,0.0
8589,55.0,0.0,60.0,13.0,0.0
8590,71.0,0.0,120.0,10.0,0.0
8591,57.0,0.0,60.0,15.0,0.0
8592,57.0,0.0,60.0,3.0,0.0
8593,45.0,60.0,60.0,8.0,0.0
8594,57.0,0.0,60.0,1.0,0.0
8595,57.0,0.0,60.0,13.0,0.0
8596,55.0,0.0,60.0,15.0,0.0
8597,64.0,0.0,120.0,10.0,0.0
8598,55.0,60.0,60.0,1.0,0.0
8599,59.0,0.0,120.0,1.0,0.0
8600,55.0,0.0,60.0,3.0,0.0
8601,59.0,0.0,120.0,6.0,0.0
8602,76.0,0.0,120.0,15.0,0.0
8603,64.0,0.0,60.0,4.0,0.0
8604,59.0,0.0,120.0,3.0,0.0
8605,64.0,0.0,120.0,0.0,0.0
8606,55.0,0.0,60.0,13.0,0.0
8607,71.0,0.0,120.0,15.0,0.0
8608,43.0,0.0,60.0,8.0,0.0
8609,59.0,0.0,120.0,12.0,0.0
8610,54.0,0.0,60.0,3.0,0.0
8611,54.0,0.0,60.0,1.0,0.0
8612,54.0,0.0,60.0,13.0,0.0
8613,54.0,0.0,60.0,15.0,0.0
8614,42.0,60.0,60.0,8.0,0.0
8615,59.0,0.0,120.0,6.0,0.0
8616,71.0,0.0,120.0,15.0,0.0
8617,76.0,0.0,120.0,15.0,0.0
8618,59.0,0.0,120.0,1.0,0.0
8619,56.0,60.0,60.0,1.0,0.0
8620,59.0,0.0,120.0,12.0,0.0
8621,44.0,0.0,60.0,8.0,0.0
8622,56.0,0.0,60.0,15.0,0.0
8623,56.0,0.0,60.0,13.0,0.0
8624,56.0,0.0,60.0,3.0,0.0
8625,76.0,60.0,120.0,0.0,0.0
8626,76.0,0.0,120.0,4.0,0.0
8627,76.0,0.0,120.0,10.0,0.0
8628,59.0,0.0,120.0,3.0,0.0
8629,45.0,0.0,60.0,8.0,0.0
8630,57.0,0.0,60.0,3.0,0.0
8631,57.0,0.0,60.0,15.0,0.0
8632,57.0,0.0,60.0,1.0,0.0
8633,57.0,0.0,60.0,13.0,0.0
8634,59.0,0.0,120.0,6.0,0.0
8635,54.0,0.0,60.0,3.0,0.0
8636,74.0,0.0,120.0,4.0,0.0
8637,74.0,0.0,120.0,10.0,0.0
8638,54.0,60.0,60.0,15.0,0.0
8639,74.0,0.0,120.0,15.0,0.0
8640,71.0,0.0,120.0,15.0,0.0
8641,54.0,0.0,60.0,13.0,0.0
8642,59.0,0.0,120.0,12.0,0.0
8643,74.0,0.0,120.0,0.0,0.0
8644,59.0,60.0,120.0,3.0,0.0
8645,54.0,0.0,60.0,1.0,0.0
8646,59.0,0.0,120.0,1.0,0.0
8647,42.0,0.0,60.0,8.0,0.0
8648,44.0,0.0,60.0,8.0,0.0
8649,56.0,0.0,60.0,1.0,0.0
8650,56.0,0.0,60.0,3.0,0.0
8651,56.0,0.0,60.0,13.0,0.0
8652,56.0,0.0,60.0,15.0,0.0
8653,72.0,0.0,240.0,15.0,0.0
8654,57.0,0.0,120.0,13.0,0.0
8655,60.0,0.0,60.0,6.0,0.0
8656,60.0,0.0,60.0,12.0,0.0
8657,72.0,0.0,240.0,0.0,0.0
8658,69.0,0.0,240.0,15.0,0.0
8659,76.0,0.0,240.0,15.0,0.0
8660,72.0,60.0,240.0,10.0,0.0
8661,45.0,0.0,120.0,8.0,0.0
8662,60.0,60.0,60.0,1.0,0.0
8663,60.0,0.0,60.0,3.0,0.0
8664,57.0,60.0,120.0,1.0,0.0
8665,72.0,0.0,240.0,4.0,0.0
8666,57.0,0.0,120.0,15.0,0.0
8667,57.0,0.0,120.0,3.0,0.0
8668,62.0,0.0,60.0,12.0,0.0
8669,62.0,0.0,60.0,6.0,0.0
8670,62.0,0.0,60.0,1.0,0.0
8671,62.0,0.0,60.0,3.0,0.0
8672,60.0,0.0,60.0,3.0,0.0
8673,52.0,0.0,120.0,15.0,0.0
8674,60.0,0.0,60.0,6.0,0.0
8675,40.0,0.0,120.0,8.0,0.0
8676,52.0,0.0,120.0,1.0,0.0
8677,60.0,60.0,60.0,12.0,0.0
8678,60.0,0.0,60.0,1.0,0.0
8679,52.0,0.0,120.0,13.0,0.0
8680,52.0,0.0,120.0,3.0,0.0
8681,59.0,0.0,60.0,12.0,0.0
8682,59.0,0.0,60.0,6.0,0.0
8683,59.0,0.0,60.0,1.0,0.0
8684,59.0,0.0,60.0,3.0,0.0
8685,57.0,0.0,120.0,3.0,0.0
8686,45.0,0.0,120.0,8.0,0.0
8687,57.0,0.0,120.0,1.0,0.0
8688,61.0,0.0,60.0,3.0,0.0
8689,76.0,0.0,240.0,15.0,0.0
8690,69.0,0.0,240.0,15.0,0.0
8691,61.0,0.0,60.0,1.0,0.0
8692,61.0,0.0,60.0,12.0,0.0
8693,57.0,0.0,120.0,13.0,0.0
8694,61.0,60.0,60.0,6.0,0.0
8695,57.0,0.0,120.0,15.0,0.0
8696,73.0,0.0,240.0,15.0,0.0
8697,62.0,60.0,60.0,3.0,0.0
8698,62.0,0.0,60.0,1.0,0.0
8699,62.0,0.0,60.0,6.0,0.0
8700,62.0,0.0,60.0,12.0,0.0
8701,55.0,0.0,120.0,13.0,0.0
8702,55.0,0.0,120.0,15.0,0.0
8703,59.0,0.0,60.0,3.0,0.0
8704,59.0,0.0,60.0,1.0,0.0
8705,43.0,0.0,120.0,8.0,0.0
8706,59.0,0.0,60.0,6.0,0.0
8707,55.0,0.0,120.0,1.0,0.0
8708,55.0,60.0,120.0,3.0,0.0
8709,59.0,60.0,60.0,12.0,0.0
8710,61.0,0.0,60.0,3.0,0.0
8711,61.0,0.0,60.0,1.0,0.0
8712,61.0,0.0,60.0,6.0,0.0
8713,61.0,0.0,60.0,12.0,0.0
8714,62.0,0.0,60.0,1.0,0.0
8715,42.0,0.0,120.0,8.0,0.0
8716,74.0,0.0,240.0,15.0,0.0
8717,69.0,0.0,240.0,15.0,0.0
8718,54.0,60.0,120.0,15.0,0.0
8719,54.0,0.0,120.0,13.0,0.0
8720,62.0,0.0,60.0,3.0,0.0
8721,54.0,0.0,120.0,1.0,0.0
8722,62.0,60.0,60.0,6.0,0.0
8723,62.0,0.0,60.0,12.0,0.0
8724,54.0,0.0,120.0,3.0,0.0
8725,64.0,0.0,60.0,6.0,0.0
8726,64.0,0.0,60.0,12.0,0.0
8727,64.0,0.0,60.0,1.0,0.0
8728,64.0,0.0,60.0,3.0,0.0
8729,66.0,0.0,120.0,3.0,0.0
8730,35.0,0.0,120.0,8.0,0.0
8731,66.0,60.0,120.0,11.0,0.0
8732,47.0,0.0,120.0,3.0,0.0
8733,62.0,0.0,60.0,6.0,0.0
8734,66.0,0.0,120.0,0.0,0.0
8735,47.0,0.0,120.0,13.0,0.0
8736,62.0,0.0,60.0,12.0,0.0
8737,47.0,0.0,120.0,1.0,0.0
8738,62.0,0.0,60.0,1.0,0.0
8739,47.0,0.0,120.0,15.0,0.0
8740,66.0,0.0,120.0,5.0,0.0
8741,62.0,60.0,60.0,3.0,0.0
8742,61.0,0.0,60.0,1.0,0.0
8743,61.0,0.0,60.0,6.0,0.0
8744,61.0,0.0,60.0,3.0,0.0
8745,61.0,0.0,60.0,12.0,0.0
8746,63.0,0.0,60.0,6.0,0.0
8747,63.0,0.0,60.0,12.0,0.0
8748,66.0,0.0,120.0,0.0,0.0
8749,63.0,0.0,60.0,3.0,0.0
8750,59.0,60.0,120.0,15.0,0.0
8751,75.0,0.0,240.0,15.0,0.0
8752,66.0,0.0,240.0,15.0,0.0
8753,59.0,0.0,120.0,3.0,0.0
8754,59.0,0.0,120.0,13.0,0.0
8755,47.0,0.0,120.0,8.0,0.0
8756,66.0,0.0,120.0,11.0,0.0
8757,66.0,0.0,120.0,5.0,0.0
8758,66.0,0.0,120.0,3.0,0.0
8759,59.0,0.0,120.0,1.0,0.0
8760,63.0,60.0,60.0,1.0,0.0
8761,64.0,0.0,60.0,6.0,0.0
8762,64.0,0.0,60.0,12.0,0.0
8763,64.0,0.0,60.0,3.0,0.0
8764,64.0,0.0,60.0,1.0,0.0
8765,61.0,0.0,60.0,12.0,0.0
8766,57.0,0.0,120.0,1.0,0.0
8767,66.0,0.0,120.0,3.0,0.0
8768,45.0,0.0,120.0,8.0,0.0
8769,66.0,0.0,120.0,5.0,0.0
8770,66.0,0.0,120.0,11.0,0.0
8771,57.0,60.0,120.0,15.0,0.0
8772,57.0,0.0,120.0,13.0,0.0
8773,61.0,60.0,60.0,3.0,0.0
8774,57.0,0.0,120.0,3.0,0.0
8775,66.0,0.0,120.0,0.0,0.0
8776,61.0,0.0,60.0,6.0,0.0
8777,61.0,0.0,60.0,1.0,0.0
8778,63.0,0.0,60.0,3.0,0.0
8779,63.0,0.0,60.0,1.0,0.0
8780,63.0,0.0,60.0,12.0,0.0
8781,63.0,0.0,60.0,6.0,0.0
8782,55.0,60.0,240.0,3.0,0.0
8783,55.0,0.0,240.0,13.0,0.0
8784,64.0,0.0,120.0,12.0,0.0
8785,64.0,0.0,120.0,6.0,0.0
8786,43.0,0.0,120.0,8.0,0.0
8787,64.0,0.0,120.0,15.0,0.0
8788,64.0,0.0,120.0,3.0,0.0
8789,71.0,0.0,120.0,15.0,0.0
8790,67.0,60.0,60.0,3.0,0.0
8791,67.0,0.0,60.0,11.0,0.0
8792,55.0,0.0,120.0,15.0,0.0
8793,64.0,0.0,120.0,1.0,0.0
8794,55.0,0.0,240.0,1.0,0.0
8795,67.0,0.0,60.0,0.0,0.0
8796,67.0,0.0,60.0,5.0,0.0
8797,69.0,0.0,60.0,0.0,0.0
8798,69.0,60.0,60.0,5.0,0.0
8799,69.0,0.0,60.0,3.0,0.0
8800,69.0,0.0,60.0,11.0,0.0
8801,59.0,0.0,120.0,6.0,0.0
8802,67.0,60.0,60.0,0.0,0.0
8803,67.0,0.0,60.0,5.0,0.0
8804,59.0,0.0,120.0,12.0,0.0
8805,59.0,0.0,120.0,7.0,0.0
8806,67.0,0.0,60.0,3.0,0.0
8807,66.0,0.0,120.0,15.0,0.0
8808,67.0,0.0,60.0,11.0,0.0
8809,59.0,0.0,120.0,3.0,0.0
8810,74.0,0.0,120.0,15.0,0.0
8811,59.0,0.0,120.0,15.0,0.0
8812,59.0,0.0,120.0,1.0,0.0
8813,66.0,0.0,60.0,0.0,0.0
8814,66.0,0.0,60.0,11.0,0.0
8815,66.0,0.0,60.0,5.0,0.0
8816,66.0,0.0,60.0,3.0,0.0
8817,68.0,0.0,60.0,0.0,0.0
8818,64.0,0.0,120.0,15.0,0.0
8819,68.0,0.0,60.0,11.0,0.0
8820,68.0,0.0,240.0,15.0,0.0
8821,68.0,0.0,60.0,5.0,0.0
8822,64.0,0.0,120.0,3.0,0.0
8823,64.0,0.0,120.0,6.0,0.0
8824,64.0,0.0,120.0,12.0,0.0
8825,71.0,0.0,240.0,15.0,0.0
8826,64.0,0.0,120.0,1.0,0.0
8827,68.0,60.0,60.0,3.0,0.0
8828,64.0,0.0,120.0,7.0,0.0
8829,69.0,0.0,60.0,11.0,0.0
8830,69.0,60.0,60.0,0.0,0.0
8831,69.0,0.0,60.0,3.0,0.0
8832,69.0,0.0,60.0,5.0,0.0
8833,62.0,0.0,120.0,15.0,0.0
8834,62.0,0.0,120.0,1.0,0.0
8835,62.0,0.0,120.0,6.0,0.0
8836,62.0,0.0,120.0,7.0,0.0
8837,62.0,0.0,120.0,12.0,0.0
8838,66.0,60.0,60.0,5.0,0.0
8839,66.0,0.0,60.0,11.0,0.0
8840,66.0,0.0,60.0,3.0,0.0
8841,62.0,0.0,120.0,3.0,0.0
8842,66.0,0.0,60.0,0.0,0.0
8843,68.0,0.0,60.0,11.0,0.0
8844,68.0,60.0,60.0,3.0,0.0
8845,68.0,0.0,60.0,0.0,0.0
8846,68.0,0.0,60.0,5.0,0.0
8847,61.0,0.0,120.0,15.0,0.0
8848,69.0,60.0,60.0,11.0,0.0
8849,61.0,60.0,120.0,12.0,0.0
8850,61.0,0.0,120.0,7.0,0.0
8851,69.0,0.0,60.0,3.0,0.0
8852,61.0,0.0,120.0,3.0,0.0
8853,61.0,0.0,120.0,1.0,0.0
8854,69.0,0.0,60.0,5.0,0.0
8855,64.0,0.0,240.0,15.0,0.0
8856,69.0,60.0,240.0,15.0,0.0
8857,69.0,0.0,60.0,0.0,0.0
8858,61.0,0.0,120.0,6.0,0.0
8859,71.0,0.0,60.0,0.0,0.0
8860,71.0,0.0,60.0,3.0,0.0
8861,71.0,0.0,60.0,5.0,0.0
8862,71.0,0.0,60.0,11.0,0.0
8863,54.0,0.0,120.0,3.0,0.0
8864,69.0,60.0,60.0,0.0,0.0
8865,73.0,0.0,120.0,4.0,0.0
8866,69.0,0.0,60.0,5.0,0.0
8867,69.0,0.0,60.0,11.0,0.0
8868,54.0,0.0,120.0,12.0,0.0
8869,73.0,0.0,120.0,10.0,0.0
8870,69.0,0.0,60.0,3.0,0.0
8871,73.0,0.0,120.0,0.0,0.0
8872,54.0,0.0,120.0,6.0,0.0
8873,54.0,0.0,120.0,1.0,0.0
8874,54.0,0.0,120.0,7.0,0.0
8875,54.0,0.0,120.0,15.0,0.0
8876,68.0,0.0,60.0,11.0,0.0
8877,68.0,0.0,60.0,0.0,0.0
8878,68.0,0.0,60.0,3.0,0.0
8879,68.0,0.0,60.0,5.0,0.0
8880,66.0,0.0,120.0,6.0,0.0
8881,70.0,0.0,60.0,5.0,0.0
8882,62.0,0.0,120.0,7.0,0.0
8883,70.0,0.0,60.0,11.0,0.0
8884,66.0,0.0,120.0,12.0,0.0
8885,66.0,0.0,120.0,1.0,0.0
8886,70.0,0.0,60.0,0.0,0.0
8887,73.0,0.0,240.0,15.0,0.0
8888,66.0,0.0,120.0,3.0,0.0
8889,73.0,0.0,120.0,0.0,0.0
8890,70.0,0.0,240.0,15.0,0.0
8891,70.0,60.0,60.0,3.0,0.0
8892,73.0,0.0,120.0,4.0,0.0
8893,66.0,60.0,120.0,15.0,0.0
8894,73.0,0.0,120.0,10.0,0.0
8895,71.0,0.0,60.0,3.0,0.0
8896,71.0,0.0,60.0,11.0,0.0
8897,71.0,0.0,60.0,0.0,0.0
8898,71.0,0.0,60.0,5.0,0.0
8899,73.0,0.0,120.0,10.0,0.0
8900,68.0,0.0,60.0,11.0,0.0
8901,73.0,0.0,120.0,0.0,0.0
8902,68.0,0.0,60.0,3.0,0.0
8903,64.0,60.0,120.0,15.0,0.0
8904,68.0,60.0,60.0,0.0,0.0
8905,64.0,0.0,120.0,6.0,0.0
8906,64.0,0.0,120.0,12.0,0.0
8907,64.0,0.0,120.0,1.0,0.0
8908,73.0,0.0,120.0,4.0,0.0
8909,61.0,0.0,120.0,7.0,0.0
8910,68.0,0.0,60.0,5.0,0.0
8911,64.0,0.0,120.0,3.0,0.0
8912,70.0,0.0,60.0,3.0,0.0
8913,70.0,0.0,60.0,11.0,0.0
8914,70.0,0.0,60.0,5.0,0.0
8915,70.0,0.0,60.0,0.0,0.0
8916,74.0,60.0,60.0,4.0,0.0
8917,71.0,0.0,120.0,5.0,0.0
8918,78.0,0.0,240.0,15.0,0.0
8919,62.0,0.0,240.0,1.0,0.0
8920,62.0,0.0,240.0,12.0,0.0
8921,74.0,0.0,60.0,0.0,0.0
8922,71.0,60.0,120.0,0.0,0.0
8923,62.0,0.0,120.0,15.0,0.0
8924,62.0,0.0,240.0,3.0,0.0
8925,62.0,0.0,240.0,6.0,0.0
8926,58.0,0.0,120.0,7.0,0.0
8927,71.0,0.0,240.0,15.0,0.0
8928,74.0,0.0,60.0,10.0,0.0
8929,71.0,0.0,120.0,3.0,0.0
8930,71.0,0.0,120.0,11.0,0.0
8931,76.0,0.0,60.0,10.0,0.0
8932,76.0,0.0,60.0,0.0,0.0
8933,76.0,0.0,60.0,4.0,0.0
8934,62.0,0.0,120.0,7.0,0.0
8935,66.0,0.0,120.0,15.0,0.0
8936,66.0,0.0,120.0,3.0,0.0
8937,66.0,0.0,120.0,5.0,0.0
8938,74.0,0.0,60.0,10.0,0.0
8939,74.0,0.0,60.0,0.0,0.0
8940,66.0,0.0,120.0,0.0,0.0
8941,74.0,60.0,60.0,4.0,0.0
8942,66.0,0.0,120.0,11.0,0.0
8943,73.0,0.0,60.0,10.0,0.0
8944,73.0,60.0,60.0,0.0,0.0
8945,73.0,0.0,60.0,4.0,0.0
8946,71.0,60.0,120.0,5.0,0.0
8947,71.0,0.0,120.0,15.0,0.0
8948,71.0,0.0,120.0,11.0,0.0
8949,71.0,0.0,120.0,7.0,0.0
8950,78.0,0.0,240.0,15.0,0.0
8951,71.0,0.0,120.0,0.0,0.0
8952,75.0,0.0,60.0,0.0,0.0
8953,75.0,60.0,60.0,4.0,0.0
8954,75.0,0.0,240.0,15.0,0.0
8955,75.0,0.0,60.0,10.0,0.0
8956,71.0,0.0,120.0,3.0,0.0
8957,76.0,0.0,60.0,10.0,0.0
8958,76.0,0.0,60.0,0.0,0.0
8959,76.0,0.0,60.0,4.0,0.0
8960,73.0,0.0,60.0,4.0,0.0
8961,73.0,0.0,60.0,10.0,0.0
8962,69.0,0.0,120.0,0.0,0.0
8963,73.0,60.0,60.0,0.0,0.0
8964,69.0,0.0,120.0,11.0,0.0
8965,69.0,0.0,120.0,7.0,0.0
8966,69.0,0.0,120.0,15.0,0.0
8967,69.0,60.0,120.0,3.0,0.0
8968,69.0,0.0,120.0,5.0,0.0
8969,75.0,0.0,60.0,0.0,0.0
8970,75.0,0.0,60.0,4.0,0.0
8971,75.0,0.0,60.0,10.0,0.0
8972,76.0,0.0,60.0,0.0,0.0
8973,68.0,0.0,120.0,0.0,0.0
8974,76.0,60.0,60.0,4.0,0.0
8975,76.0,0.0,120.0,15.0,0.0
8976,68.0,0.0,120.0,15.0,0.0
8977,76.0,0.0,60.0,10.0,0.0
8978,68.0,0.0,120.0,7.0,0.0
8979,71.0,0.0,120.0,15.0,0.0
8980,68.0,0.0,120.0,3.0,0.0
8981,68.0,0.0,120.0,11.0,0.0
8982,68.0,60.0,120.0,5.0,0.0
8983,78.0,0.0,60.0,0.0,0.0
8984,78.0,0.0,60.0,10.0,0.0
8985,78.0,0.0,60.0,4.0,0.0
8986,59.0,60.0,120.0,1.0,0.0
8987,76.0,0.0,120.0,15.0,0.0
8988,56.0,0.0,120.0,15.0,0.0
8989,59.0,0.0,120.0,6.0,0.0
8990,56.0,0.0,120.0,3.0,0.0
8991,61.0,0.0,120.0,11.0,0.0
8992,61.0,0.0,120.0,3.0,0.0
8993,76.0,0.0,60.0,4.0,0.0
8994,59.0,0.0,120.0,3.0,0.0
8995,76.0,0.0,60.0,0.0,0.0
8996,61.0,0.0,120.0,0.0,0.0
8997,56.0,0.0,120.0,13.0,0.0
8998,76.0,60.0,60.0,10.0,0.0
8999,44.0,0.0,120.0,8.0,0.0
9000,56.0,0.0,120.0,1.0,0.0
9001,73.0,0.0,240.0,15.0,0.0
9002,61.0,0.0,120.0,5.0,0.0
9003,59.0,0.0,120.0,12.0,0.0
9004,75.0,0.0,60.0,0.0,0.0
9005,75.0,0.0,60.0,10.0,0.0
9006,75.0,0.0,60.0,4.0,0.0
9007,44.0,0.0,120.0,8.0,0.0
9008,56.0,0.0,120.0,13.0,0.0
9009,77.0,0.0,60.0,4.0,0.0
9010,73.0,0.0,120.0,5.0,0.0
9011,73.0,0.0,120.0,11.0,0.0
9012,59.0,0.0,120.0,6.0,0.0
9013,56.0,0.0,120.0,3.0,0.0
9014,59.0,0.0,120.0,3.0,0.0
9015,59.0,0.0,120.0,12.0,0.0
9016,56.0,0.0,120.0,1.0,0.0
9017,56.0,0.0,120.0,15.0,0.0
9018,77.0,0.0,240.0,15.0,0.0
9019,59.0,0.0,120.0,1.0,0.0
9020,77.0,60.0,60.0,10.0,0.0
9021,77.0,0.0,60.0,0.0,0.0
9022,73.0,60.0,120.0,3.0,0.0
9023,73.0,0.0,120.0,0.0,0.0
9024,78.0,0.0,60.0,4.0,0.0
9025,78.0,0.0,60.0,10.0,0.0
9026,78.0,0.0,60.0,0.0,0.0
9027,61.0,0.0,120.0,12.0,0.0
9028,71.0,0.0,120.0,11.0,0.0
9029,71.0,0.0,120.0,0.0,0.0
9030,61.0,0.0,120.0,3.0,0.0
9031,56.0,0.0,120.0,3.0,0.0
9032,75.0,0.0,60.0,4.0,0.0
9033,71.0,0.0,120.0,5.0,0.0
9034,75.0,0.0,60.0,10.0,0.0
9035,75.0,60.0,60.0,0.0,0.0
9036,56.0,0.0,120.0,1.0,0.0
9037,56.0,0.0,120.0,13.0,0.0
9038,44.0,0.0,120.0,8.0,0.0
9039,71.0,0.0,120.0,3.0,0.0
9040,71.0,0.0,120.0,15.0,0.0
9041,56.0,0.0,120.0,15.0,0.0
9042,61.0,0.0,120.0,1.0,0.0
9043,61.0,0.0,120.0,6.0,0.0
9044,77.0,60.0,60.0,0.0,0.0
9045,77.0,0.0,60.0,10.0,0.0
9046,77.0,0.0,60.0,4.0,0.0
9047,69.0,60.0,240.0,5.0,0.0
9048,78.0,0.0,120.0,0.0,0.0
9049,69.0,0.0,240.0,0.0,0.0
9050,61.0,0.0,240.0,15.0,0.0
9051,61.0,0.0,120.0,1.0,0.0
9052,45.0,60.0,60.0,8.0,0.0
9053,69.0,0.0,240.0,11.0,0.0
9054,61.0,0.0,120.0,3.0,0.0
9055,57.0,0.0,60.0,15.0,0.0
9056,78.0,0.0,240.0,15.0,0.0
9057,69.0,0.0,240.0,15.0,0.0
9058,78.0,0.0,120.0,4.0,0.0
9059,57.0,0.0,60.0,3.0,0.0
9060,78.0,0.0,120.0,10.0,0.0
9061,57.0,0.0,60.0,1.0,0.0
9062,69.0,0.0,240.0,3.0,0.0
9063,61.0,0.0,120.0,6.0,0.0
9064,57.0,0.0,60.0,13.0,0.0
9065,61.0,0.0,120.0,12.0,0.0
9066,59.0,0.0,60.0,15.0,0.0
9067,47.0,0.0,60.0,8.0,0.0
9068,59.0,60.0,60.0,3.0,0.0
9069,59.0,0.0,60.0,13.0,0.0
9070,59.0,0.0,60.0,1.0,0.0
9071,57.0,0.0,60.0,3.0,0.0
9072,73.0,0.0,120.0,10.0,0.0
9073,61.0,0.0,120.0,3.0,0.0
9074,61.0,0.0,120.0,1.0,0.0
9075,57.0,0.0,60.0,15.0,0.0
9076,57.0,0.0,60.0,1.0,0.0
9077,45.0,60.0,60.0,8.0,0.0
9078,61.0,0.0,120.0,6.0,0.0
9079,57.0,0.0,60.0,13.0,0.0
9080,73.0,0.0,120.0,4.0,0.0
9081,61.0,0.0,120.0,12.0,0.0
9082,73.0,0.0,120.0,0.0,0.0
9083,56.0,0.0,60.0,1.0,0.0
9084,56.0,0.0,60.0,13.0,0.0
9085,56.0,0.0,60.0,15.0,0.0
9086,56.0,0.0,60.0,3.0,0.0
9087,44.0,0.0,60.0,8.0,0.0
9088,61.0,0.0,120.0,1.0,0.0
9089,78.0,0.0,120.0,10.0,0.0
9090,73.0,0.0,120.0,15.0,0.0
9091,58.0,60.0,60.0,15.0,0.0
9092,61.0,0.0,120.0,15.0,0.0
9093,73.0,0.0,240.0,3.0,0.0
9094,78.0,0.0,120.0,15.0,0.0
9095,61.0,60.0,120.0,12.0,0.0
9096,58.0,0.0,60.0,1.0,0.0
9097,58.0,0.0,60.0,13.0,0.0
9098,73.0,0.0,240.0,0.0,0.0
9099,58.0,0.0,60.0,3.0,0.0
9100,73.0,0.0,240.0,5.0,0.0
9101,46.0,0.0,60.0,8.0,0.0
9102,78.0,0.0,120.0,4.0,0.0
9103,61.0,0.0,120.0,3.0,0.0
9104,61.0,0.0,120.0,6.0,0.0
9105,78.0,0.0,120.0,0.0,0.0
9106,73.0,0.0,240.0,11.0,0.0
9107,59.0,0.0,60.0,3.0,0.0
9108,47.0,0.0,60.0,8.0,0.0
9109,59.0,0.0,60.0,15.0,0.0
9110,59.0,0.0,60.0,1.0,0.0
9111,59.0,0.0,60.0,13.0,0.0
9112,73.0,0.0,120.0,15.0,0.0
9113,68.0,0.0,120.0,15.0,0.0
9114,61.0,0.0,120.0,3.0,0.0
9115,61.0,0.0,120.0,6.0,0.0
9116,61.0,0.0,120.0,12.0,0.0
9117,44.0,0.0,60.0,8.0,0.0
9118,76.0,0.0,120.0,0.0,0.0
9119,76.0,0.0,120.0,15.0,0.0
9120,56.0,0.0,60.0,15.0,0.0
9121,76.0,0.0,120.0,10.0,0.0
9122,61.0,0.0,120.0,1.0,0.0
9123,56.0,0.0,60.0,1.0,0.0
9124,56.0,60.0,60.0,3.0,0.0
9125,56.0,0.0,60.0,13.0,0.0
9126,76.0,0.0,120.0,4.0,0.0
9127,58.0,0.0,60.0,15.0,0.0
9128,58.0,0.0,60.0,3.0,0.0
9129,46.0,0.0,60.0,8.0,0.0
9130,58.0,0.0,60.0,1.0,0.0
9131,58.0,60.0,60.0,13.0,0.0
9132,75.0,0.0,120.0,10.0,0.0
9133,75.0,0.0,120.0,15.0,0.0
9134,66.0,0.0,120.0,5.0,0.0
9135,59.0,0.0,60.0,1.0,0.0
9136,63.0,0.0,480.0,3.0,0.0
9137,66.0,0.0,120.0,11.0,0.0
9138,63.0,0.0,480.0,1.0,0.0
9139,59.0,0.0,60.0,13.0,0.0
9140,59.0,0.0,60.0,3.0,0.0
9141,59.0,60.0,60.0,15.0,0.0
9142,47.0,0.0,60.0,8.0,0.0
9143,66.0,0.0,120.0,3.0,0.0
9144,63.0,0.0,480.0,12.0,0.0
9145,63.0,0.0,480.0,6.0,0.0
9146,75.0,0.0,120.0,4.0,0.0
9147,75.0,0.0,120.0,0.0,0.0
9148,66.0,0.0,120.0,0.0,0.0
9149,66.0,0.0,120.0,15.0,0.0
9150,63.0,0.0,120.0,15.0,0.0
9151,49.0,0.0,60.0,8.0,0.0
9152,61.0,0.0,60.0,15.0,0.0
9153,61.0,60.0,60.0,1.0,0.0
9154,61.0,0.0,60.0,13.0,0.0
9155,61.0,0.0,60.0,3.0,0.0
9156,59.0,0.0,60.0,1.0,0.0
9157,75.0,0.0,120.0,0.0,0.0
9158,68.0,0.0,120.0,0.0,0.0
9159,75.0,0.0,120.0,5.0,0.0
9160,59.0,0.0,60.0,13.0,0.0
9161,68.0,0.0,120.0,4.0,0.0
9162,75.0,0.0,120.0,3.0,0.0
9163,68.0,0.0,120.0,10.0,0.0
9164,75.0,0.0,120.0,15.0,0.0
9165,59.0,0.0,60.0,3.0,0.0
9166,59.0,0.0,60.0,15.0,0.0
9167,63.0,0.0,120.0,15.0,0.0
9168,47.0,60.0,60.0,8.0,0.0
9169,75.0,0.0,120.0,11.0,0.0
9170,68.0,0.0,120.0,15.0,0.0
9171,58.0,0.0,60.0,3.0,0.0
9172,58.0,0.0,60.0,1.0,0.0
9173,58.0,0.0,60.0,15.0,0.0
9174,58.0,60.0,60.0,13.0,0.0
9175,45.0,0.0,60.0,8.0,0.0
9176,80.0,0.0,120.0,10.0,0.0
9177,48.0,0.0,60.0,8.0,0.0
9178,75.0,0.0,240.0,11.0,0.0
9179,60.0,0.0,60.0,3.0,0.0
9180,80.0,0.0,120.0,0.0,0.0
9181,60.0,60.0,60.0,13.0,0.0
9182,60.0,0.0,60.0,1.0,0.0
9183,80.0,60.0,120.0,4.0,0.0
9184,75.0,120.0,240.0,5.0,0.0
9185,60.0,0.0,60.0,15.0,0.0
9186,75.0,0.0,240.0,0.0,0.0
9187,75.0,0.0,240.0,15.0,0.0
9188,78.0,0.0,120.0,15.0,0.0
9189,72.0,0.0,120.0,15.0,0.0
9190,75.0,0.0,240.0,3.0,0.0
9191,61.0,0.0,60.0,3.0,0.0
9192,49.0,0.0,60.0,8.0,0.0
9193,61.0,0.0,60.0,15.0,0.0
9194,61.0,0.0,60.0,13.0,0.0
9195,61.0,0.0,60.0,1.0,0.0
9196,78.0,0.0,120.0,15.0,0.0
9197,58.0,60.0,60.0,15.0,0.0
9198,58.0,0.0,60.0,1.0,0.0
9199,78.0,0.0,120.0,4.0,0.0
9200,58.0,0.0,60.0,3.0,0.0
9201,70.0,0.0,120.0,15.0,0.0
9202,46.0,0.0,60.0,8.0,0.0
9203,78.0,0.0,120.0,0.0,0.0
9204,58.0,0.0,60.0,13.0,0.0
9205,78.0,0.0,120.0,10.0,0.0
9206,48.0,0.0,60.0,8.0,0.0
9207,60.0,0.0,60.0,1.0,0.0
9208,59.0,0.0,60.0,15.0,0.0
9209,60.0,0.0,60.0,13.0,0.0
9210,60.0,0.0,60.0,3.0,0.0
9211,77.0,120.0,240.0,0.0,0.0
9212,65.0,0.0,120.0,3.0,0.0
9213,65.0,0.0,120.0,1.0,0.0
9214,61.0,0.0,360.0,15.0,0.0
9215,68.0,0.0,120.0,3.0,0.0
9216,49.0,0.0,240.0,8.0,0.0
9217,68.0,0.0,120.0,5.0,0.0
9218,68.0,0.0,120.0,0.0,0.0
9219,77.0,0.0,240.0,15.0,0.0
9220,65.0,0.0,240.0,15.0,0.0
9221,68.0,0.0,120.0,11.0,0.0
9222,68.0,0.0,240.0,15.0,0.0
9223,61.0,0.0,240.0,13.0,0.0
9224,77.0,0.0,240.0,10.0,0.0
9225,77.0,0.0,240.0,4.0,0.0
9226,65.0,120.0,120.0,12.0,0.0
9227,65.0,0.0,120.0,6.0,0.0
9228,65.0,0.0,120.0,5.0,0.0
9229,65.0,0.0,120.0,3.0,0.0
9230,65.0,0.0,120.0,11.0,0.0
9231,49.0,0.0,120.0,14.0,0.0
9232,61.0,0.0,120.0,6.0,0.0
9233,61.0,0.0,120.0,3.0,0.0
9234,73.0,0.0,120.0,2.0,0.0
9235,61.0,0.0,120.0,12.0,0.0
9236,61.0,0.0,120.0,1.0,0.0
9237,65.0,0.0,120.0,0.0,0.0
9238,63.0,0.0,120.0,6.0,0.0
9239,61.0,0.0,240.0,1.0,0.0
9240,63.0,0.0,120.0,1.0,0.0
9241,63.0,0.0,120.0,15.0,0.0
9242,49.0,0.0,120.0,14.0,0.0
9243,61.0,0.0,240.0,3.0,0.0
9244,63.0,0.0,120.0,12.0,0.0
9245,66.0,0.0,120.0,11.0,0.0
9246,66.0,120.0,120.0,5.0,0.0
9247,66.0,0.0,120.0,15.0,0.0
9248,66.0,0.0,120.0,3.0,0.0
9249,63.0,0.0,120.0,3.0,0.0
9250,73.0,0.0,120.0,2.0,0.0
9251,66.0,0.0,120.0,0.0,0.0
9252,49.0,0.0,240.0,8.0,0.0
9253,61.0,0.0,240.0,13.0,0.0
9254,49.0,0.0,120.0,14.0,0.0
9255,65.0,0.0,120.0,6.0,0.0
9256,65.0,0.0,120.0,1.0,0.0
9257,68.0,0.0,120.0,11.0,0.0
9258,65.0,0.0,120.0,3.0,0.0
9259,68.0,120.0,120.0,5.0,0.0
9260,68.0,0.0,120.0,3.0,0.0
9261,68.0,0.0,120.0,0.0,0.0
9262,68.0,0.0,120.0,15.0,0.0
9263,65.0,0.0,120.0,15.0,0.0
9264,73.0,0.0,120.0,2.0,0.0
9265,65.0,0.0,120.0,12.0,0.0
9266,61.0,0.0,120.0,15.0,0.0
9267,57.0,0.0,240.0,3.0,0.0
9268,69.0,60.0,120.0,3.0,0.0
9269,66.0,0.0,240.0,2.0,0.0
9270,66.0,0.0,480.0,12.0,0.0
9271,57.0,0.0,240.0,1.0,0.0
9272,54.0,0.0,240.0,14.0,0.0
9273,69.0,0.0,120.0,0.0,0.0
9274,66.0,0.0,480.0,3.0,0.0
9275,45.0,0.0,240.0,8.0,0.0
9276,69.0,0.0,120.0,5.0,0.0
9277,66.0,0.0,480.0,1.0,0.0
9278,66.0,0.0,480.0,6.0,0.0
9279,57.0,0.0,240.0,13.0,0.0
9280,69.0,0.0,120.0,11.0,0.0
9281,57.0,120.0,240.0,15.0,0.0
9282,66.0,0.0,240.0,15.0,0.0
9283,73.0,0.0,240.0,15.0,0.0
9284,68.0,0.0,60.0,11.0,0.0
9285,68.0,0.0,60.0,0.0,0.0
9286,68.0,60.0,60.0,3.0,0.0
9287,68.0,0.0,60.0,5.0,0.0
9288,69.0,0.0,60.0,0.0,0.0
9289,69.0,0.0,60.0,5.0,0.0
9290,69.0,0.0,60.0,11.0,0.0
9291,69.0,0.0,60.0,3.0,0.0
9292,62.0,0.0,240.0,13.0,0.0
9293,62.0,0.0,240.0,3.0,0.0
9294,62.0,0.0,240.0,15.0,0.0
9295,66.0,0.0,240.0,15.0,0.0
9296,71.0,0.0,240.0,15.0,0.0
9297,71.0,0.0,120.0,5.0,0.0
9298,71.0,0.0,120.0,0.0,0.0
9299,62.0,0.0,240.0,1.0,0.0
9300,71.0,60.0,120.0,11.0,0.0
9301,71.0,0.0,120.0,3.0,0.0
9302,50.0,0.0,240.0,8.0,0.0
9303,69.0,0.0,60.0,5.0,0.0
9304,69.0,0.0,60.0,0.0,0.0
9305,69.0,60.0,60.0,3.0,0.0
9306,69.0,0.0,60.0,11.0,0.0
9307,71.0,0.0,60.0,11.0,0.0
9308,71.0,120.0,60.0,5.0,0.0
9309,71.0,0.0,60.0,0.0,0.0
9310,71.0,0.0,60.0,3.0,0.0
9311,41.0,60.0,480.0,8.0,0.0
9312,73.0,0.0,120.0,0.0,0.0
9313,53.0,0.0,480.0,3.0,0.0
9314,73.0,0.0,120.0,15.0,0.0
9315,68.0,0.0,480.0,15.0,0.0
9316,53.0,120.0,360.0,15.0,0.0
9317,68.0,0.0,240.0,3.0,0.0
9318,68.0,0.0,240.0,6.0,0.0
9319,73.0,0.0,120.0,11.0,0.0
9320,53.0,0.0,480.0,13.0,0.0
9321,53.0,0.0,480.0,1.0,0.0
9322,68.0,0.0,240.0,1.0,0.0
9323,73.0,0.0,120.0,3.0,0.0
9324,73.0,120.0,120.0,5.0,0.0
9325,68.0,0.0,240.0,12.0,0.0
9326,74.0,0.0,120.0,5.0,0.0
9327,80.0,0.0,120.0,15.0,0.0
9328,74.0,0.0,120.0,15.0,0.0
9329,80.0,0.0,120.0,4.0,0.0
9330,74.0,120.0,120.0,11.0,0.0
9331,74.0,0.0,120.0,0.0,0.0
9332,74.0,0.0,120.0,3.0,0.0
9333,80.0,0.0,120.0,10.0,0.0
9334,61.0,0.0,360.0,6.0,0.0
9335,80.0,0.0,120.0,4.0,0.0
9336,61.0,0.0,360.0,12.0,0.0
9337,73.0,0.0,120.0,3.0,0.0
9338,61.0,0.0,360.0,3.0,0.0
9339,80.0,0.0,120.0,10.0,0.0
9340,73.0,0.0,120.0,11.0,0.0
9341,73.0,0.0,120.0,15.0,0.0
9342,80.0,0.0,120.0,15.0,0.0
9343,73.0,0.0,120.0,0.0,0.0
9344,61.0,60.0,360.0,1.0,0.0
9345,73.0,0.0,120.0,5.0,0.0
9346,53.0,0.0,120.0,15.0,0.0
9347,71.0,0.0,120.0,3.0,0.0
9348,80.0,0.0,120.0,15.0,0.0
9349,71.0,0.0,120.0,11.0,0.0
9350,71.0,0.0,120.0,0.0,0.0
9351,80.0,0.0,120.0,4.0,0.0
9352,71.0,0.0,120.0,15.0,0.0
9353,80.0,0.0,120.0,10.0,0.0
9354,71.0,0.0,120.0,5.0,0.0
9355,69.0,0.0,120.0,3.0,0.0
9356,81.0,60.0,60.0,4.0,0.0
9357,54.0,0.0,240.0,1.0,0.0
9358,81.0,0.0,60.0,10.0,0.0
9359,54.0,0.0,240.0,3.0,0.0
9360,81.0,60.0,240.0,15.0,0.0
9361,69.0,0.0,240.0,15.0,0.0
9362,73.0,0.0,240.0,15.0,0.0
9363,54.0,0.0,240.0,15.0,0.0
9364,69.0,0.0,120.0,0.0,0.0
9365,42.0,0.0,240.0,8.0,0.0
9366,69.0,0.0,120.0,5.0,0.0
9367,69.0,0.0,120.0,11.0,0.0
9368,54.0,0.0,240.0,13.0,0.0
9369,83.0,0.0,60.0,10.0,0.0
9370,83.0,0.0,60.0,4.0,0.0
9371,57.0,0.0,120.0,12.0,0.0
9372,57.0,0.0,120.0,1.0,0.0
9373,81.0,0.0,60.0,4.0,0.0
9374,81.0,60.0,60.0,10.0,0.0
9375,73.0,0.0,120.0,11.0,0.0
9376,73.0,0.0,120.0,5.0,0.0
9377,73.0,0.0,120.0,0.0,0.0
9378,57.0,0.0,120.0,3.0,0.0
9379,73.0,0.0,120.0,3.0,0.0
9380,57.0,0.0,120.0,6.0,0.0
9381,80.0,0.0,60.0,4.0,0.0
9382,80.0,0.0,60.0,10.0,0.0
9383,78.0,0.0,480.0,3.0,0.0
9384,42.0,0.0,120.0,8.0,0.0
9385,69.0,0.0,240.0,15.0,0.0
9386,62.0,0.0,360.0,6.0,0.0
9387,62.0,60.0,360.0,1.0,0.0
9388,54.0,0.0,120.0,1.0,0.0
9389,78.0,0.0,480.0,11.0,0.0
9390,78.0,0.0,480.0,0.0,0.0
9391,74.0,0.0,120.0,15.0,0.0
9392,62.0,0.0,360.0,12.0,0.0
9393,54.0,0.0,120.0,13.0,0.0
9394,81.0,0.0,60.0,4.0,0.0
9395,81.0,60.0,60.0,10.0,0.0
9396,54.0,0.0,120.0,3.0,0.0
9397,62.0,0.0,360.0,3.0,0.0
9398,78.0,0.0,480.0,5.0,0.0
9399,83.0,60.0,60.0,10.0,0.0
9400,83.0,0.0,60.0,4.0,0.0
9401,54.0,60.0,120.0,13.0,0.0
9402,73.0,0.0,120.0,15.0,0.0
9403,42.0,0.0,120.0,8.0,0.0
9404,54.0,0.0,120.0,15.0,0.0
9405,54.0,0.0,120.0,1.0,0.0
9406,80.0,0.0,60.0,10.0,0.0
9407,54.0,0.0,120.0,3.0,0.0
9408,80.0,60.0,60.0,4.0,0.0
9409,81.0,0.0,60.0,10.0,0.0
9410,81.0,0.0,60.0,4.0,0.0
9411,83.0,60.0,60.0,4.0,0.0
9412,56.0,0.0,360.0,3.0,0.0
9413,62.0,0.0,240.0,15.0,0.0
9414,78.0,0.0,240.0,15.0,0.0
9415,56.0,0.0,360.0,1.0,0.0
9416,44.0,0.0,360.0,8.0,0.0
9417,83.0,0.0,60.0,10.0,0.0
9418,56.0,0.0,360.0,13.0,0.0
9419,71.0,0.0,480.0,15.0,0.0
9420,56.0,0.0,360.0,15.0,0.0
9421,85.0,0.0,60.0,4.0,0.0
9422,85.0,0.0,60.0,10.0,0.0
9423,83.0,0.0,60.0,4.0,0.0
9424,83.0,60.0,60.0,10.0,0.0
9425,59.0,0.0,120.0,3.0,0.0
9426,59.0,0.0,120.0,1.0,0.0
9427,59.0,0.0,120.0,12.0,0.0
9428,59.0,60.0,120.0,6.0,0.0
9429,81.0,0.0,60.0,4.0,0.0
9430,81.0,0.0,60.0,10.0,0.0
9431,83.0,60.0,60.0,4.0,0.0
9432,77.0,0.0,240.0,0.0,0.0
9433,83.0,0.0,60.0,10.0,0.0
9434,68.0,0.0,120.0,12.0,0.0
9435,68.0,0.0,120.0,3.0,0.0
9436,77.0,0.0,240.0,15.0,0.0
9437,68.0,0.0,120.0,6.0,0.0
9438,77.0,0.0,240.0,11.0,0.0
9439,77.0,0.0,240.0,5.0,0.0
9440,77.0,0.0,240.0,3.0,0.0
9441,68.0,0.0,120.0,1.0,0.0
9442,85.0,60.0,60.0,4.0,0.0
9443,85.0,0.0,60.0,10.0,0.0
9444,81.0,0.0,60.0,4.0,0.0
9445,68.0,0.0,120.0,1.0,0.0
9446,54.0,0.0,60.0,3.0,0.0
9447,54.0,0.0,60.0,1.0,0.0
9448,42.0,0.0,60.0,8.0,0.0
9449,54.0,0.0,60.0,15.0,0.0
9450,54.0,60.0,60.0,13.0,0.0
9451,81.0,0.0,60.0,10.0,0.0
9452,68.0,0.0,120.0,6.0,0.0
9453,68.0,0.0,120.0,12.0,0.0
9454,68.0,0.0,120.0,3.0,0.0
9455,56.0,0.0,60.0,13.0,0.0
9456,56.0,0.0,60.0,15.0,0.0
9457,56.0,0.0,60.0,1.0,0.0
9458,83.0,0.0,60.0,4.0,0.0
9459,56.0,0.0,60.0,3.0,0.0
9460,83.0,0.0,60.0,10.0,0.0
9461,44.0,120.0,60.0,8.0,0.0
9462,73.0,0.0,240.0,15.0,0.0
9463,66.0,0.0,120.0,3.0,0.0
9464,57.0,0.0,120.0,1.0,0.0
9465,66.0,0.0,120.0,1.0,0.0
9466,85.0,0.0,120.0,10.0,0.0
9467,45.0,0.0,120.0,8.0,0.0
9468,57.0,60.0,120.0,15.0,0.0
9469,66.0,0.0,120.0,12.0,0.0
9470,69.0,0.0,240.0,15.0,0.0
9471,57.0,0.0,120.0,3.0,0.0
9472,66.0,0.0,240.0,15.0,0.0
9473,85.0,0.0,120.0,4.0,0.0
9474,66.0,0.0,120.0,6.0,0.0
9475,57.0,0.0,120.0,13.0,0.0
9476,65.0,0.0,60.0,3.0,0.0
9477,86.0,0.0,60.0,10.0,0.0
9478,44.0,0.0,60.0,8.0,0.0
9479,65.0,60.0,60.0,12.0,0.0
9480,86.0,0.0,60.0,4.0,0.0
9481,65.0,0.0,60.0,1.0,0.0
9482,56.0,0.0,60.0,13.0,0.0
9483,56.0,0.0,60.0,1.0,0.0
9484,56.0,0.0,60.0,3.0,0.0
9485,56.0,0.0,60.0,15.0,0.0
9486,65.0,0.0,60.0,6.0,0.0
9487,85.0,0.0,60.0,10.0,0.0
9488,57.0,0.0,60.0,15.0,0.0
9489,66.0,0.0,60.0,6.0,0.0
9490,85.0,0.0,60.0,4.0,0.0
9491,45.0,0.0,60.0,8.0,0.0
9492,57.0,0.0,60.0,3.0,0.0
9493,66.0,0.0,60.0,12.0,0.0
9494,66.0,0.0,60.0,3.0,0.0
9495,57.0,0.0,60.0,13.0,0.0
9496,66.0,0.0,60.0,1.0,0.0
9497,57.0,60.0,60.0,1.0,0.0
9498,68.0,0.0,240.0,15.0,0.0
9499,59.0,60.0,120.0,15.0,0.0
9500,71.0,0.0,240.0,15.0,0.0
9501,74.0,0.0,240.0,15.0,0.0
9502,68.0,0.0,60.0,1.0,0.0
9503,59.0,0.0,120.0,1.0,0.0
9504,68.0,0.0,60.0,12.0,0.0
9505,83.0,0.0,60.0,4.0,0.0
9506,47.0,0.0,120.0,8.0,0.0
9507,83.0,60.0,60.0,10.0,0.0
9508,68.0,0.0,60.0,6.0,0.0
9509,59.0,0.0,120.0,3.0,0.0
9510,59.0,0.0,120.0,13.0,0.0
9511,68.0,0.0,60.0,3.0,0.0
9512,69.0,0.0,60.0,3.0,0.0
9513,69.0,0.0,60.0,6.0,0.0
9514,81.0,0.0,60.0,4.0,0.0
9515,69.0,0.0,60.0,12.0,0.0
9516,69.0,0.0,60.0,1.0,0.0
9517,81.0,0.0,60.0,10.0,0.0
9518,71.0,0.0,60.0,1.0,0.0
9519,71.0,0.0,60.0,6.0,0.0
9520,80.0,0.0,60.0,10.0,0.0
9521,57.0,0.0,60.0,1.0,0.0
9522,71.0,0.0,60.0,12.0,0.0
9523,45.0,0.0,60.0,8.0,0.0
9524,71.0,0.0,60.0,3.0,0.0
9525,57.0,0.0,60.0,3.0,0.0
9526,57.0,0.0,60.0,15.0,0.0
9527,57.0,0.0,60.0,13.0,0.0
9528,80.0,60.0,60.0,4.0,0.0
9529,59.0,120.0,60.0,15.0,0.0
9530,69.0,0.0,60.0,12.0,0.0
9531,78.0,0.0,60.0,4.0,0.0
9532,69.0,0.0,60.0,3.0,0.0
9533,59.0,0.0,60.0,13.0,0.0
9534,59.0,0.0,60.0,3.0,0.0
9535,47.0,0.0,60.0,8.0,0.0
9536,69.0,0.0,60.0,1.0,0.0
9537,59.0,0.0,60.0,1.0,0.0
9538,69.0,0.0,60.0,6.0,0.0
9539,78.0,0.0,60.0,10.0,0.0
9540,61.0,0.0,120.0,3.0,0.0
9541,61.0,0.0,120.0,15.0,0.0
9542,68.0,0.0,120.0,12.0,0.0
9543,61.0,0.0,120.0,13.0,0.0
9544,61.0,0.0,120.0,1.0,0.0
9545,68.0,0.0,120.0,3.0,0.0
9546,49.0,0.0,120.0,8.0,0.0
9547,77.0,0.0,120.0,10.0,0.0
9548,68.0,60.0,120.0,6.0,0.0
9549,68.0,0.0,120.0,1.0,0.0
9550,77.0,0.0,120.0,0.0,0.0
9551,68.0,0.0,120.0,15.0,0.0
9552,77.0,0.0,120.0,4.0,0.0
9553,77.0,0.0,120.0,15.0,0.0
9554,62.0,0.0,60.0,13.0,0.0
9555,50.0,0.0,60.0,8.0,0.0
9556,78.0,60.0,120.0,4.0,0.0
9557,66.0,0.0,120.0,3.0,0.0
9558,78.0,0.0,120.0,0.0,0.0
9559,66.0,0.0,120.0,12.0,0.0
9560,78.0,0.0,120.0,10.0,0.0
9561,69.0,0.0,120.0,15.0,0.0
9562,62.0,60.0,60.0,15.0,0.0
9563,62.0,0.0,60.0,1.0,0.0
9564,66.0,0.0,120.0,15.0,0.0
9565,66.0,0.0,120.0,6.0,0.0
9566,66.0,0.0,120.0,1.0,0.0
9567,62.0,0.0,60.0,3.0,0.0
9568,61.0,0.0,60.0,1.0,0.0
9569,61.0,0.0,60.0,13.0,0.0
9570,61.0,0.0,60.0,3.0,0.0
9571,49.0,0.0,60.0,8.0,0.0
9572,61.0,0.0,60.0,15.0,0.0
9573,80.0,0.0,360.0,0.0,0.0
9574,65.0,0.0,120.0,1.0,0.0
9575,74.0,0.0,240.0,0.0,0.0
9576,59.0,0.0,60.0,1.0,0.0
9577,74.0,0.0,240.0,15.0,0.0
9578,47.0,60.0,60.0,8.0,0.0
9579,59.0,0.0,60.0,13.0,0.0
9580,74.0,0.0,240.0,11.0,0.0
9581,65.0,0.0,180.0,3.0,0.0
9582,59.0,0.0,60.0,3.0,0.0
9583,80.0,0.0,360.0,4.0,0.0
9584,59.0,0.0,60.0,15.0,0.0
9585,80.0,0.0,240.0,15.0,0.0
9586,65.0,0.0,240.0,15.0,0.0
9587,80.0,0.0,360.0,10.0,0.0
9588,74.0,0.0,240.0,5.0,0.0
9589,65.0,0.0,180.0,12.0,0.0
9590,74.0,0.0,240.0,3.0,0.0
9591,65.0,0.0,180.0,6.0,0.0
9592,57.0,0.0,60.0,1.0,0.0
9593,57.0,0.0,60.0,15.0,0.0
9594,57.0,0.0,60.0,3.0,0.0
9595,45.0,0.0,60.0,8.0,0.0
9596,57.0,60.0,60.0,13.0,0.0
9597,56.0,60.0,60.0,1.0,0.0
9598,56.0,0.0,60.0,13.0,0.0
9599,56.0,0.0,60.0,3.0,0.0
9600,56.0,0.0,60.0,15.0,0.0
9601,44.0,0.0,60.0,8.0,0.0
9602,54.0,0.0,60.0,3.0,0.0
9603,66.0,120.0,60.0,6.0,0.0
9604,54.0,0.0,60.0,15.0,0.0
9605,66.0,0.0,60.0,3.0,0.0
9606,54.0,0.0,60.0,1.0,0.0
9607,66.0,0.0,60.0,12.0,0.0
9608,54.0,0.0,60.0,13.0,0.0
9609,66.0,0.0,60.0,1.0,0.0
9610,42.0,0.0,60.0,8.0,0.0
9611,68.0,0.0,240.0,3.0,0.0
9612,74.0,0.0,240.0,5.0,0.0
9613,53.0,0.0,240.0,15.0,0.0
9614,71.0,0.0,240.0,15.0,0.0
9615,74.0,0.0,240.0,15.0,0.0
9616,68.0,0.0,240.0,12.0,0.0
9617,68.0,0.0,240.0,1.0,0.0
9618,53.0,0.0,120.0,1.0,0.0
9619,74.0,0.0,240.0,0.0,0.0
9620,80.0,0.0,240.0,15.0,0.0
9621,74.0,0.0,240.0,11.0,0.0
9622,41.0,0.0,240.0,8.0,0.0
9623,53.0,0.0,120.0,13.0,0.0
9624,68.0,0.0,240.0,6.0,0.0
9625,74.0,0.0,240.0,3.0,0.0
9626,53.0,120.0,120.0,3.0,0.0
9627,53.0,0.0,120.0,13.0,0.0
9628,49.0,0.0,120.0,14.0,0.0
9629,53.0,0.0,120.0,1.0,0.0
9630,83.0,0.0,120.0,4.0,0.0
9631,73.0,0.0,120.0,2.0,0.0
9632,83.0,120.0,120.0,10.0,0.0
9633,61.0,0.0,120.0,2.0,0.0
9634,83.0,0.0,120.0,0.0,0.0
9635,53.0,0.0,120.0,3.0,0.0
9636,61.0,0.0,120.0,6.0,0.0
9637,73.0,0.0,240.0,3.0,0.0
9638,73.0,0.0,120.0,2.0,0.0
9639,73.0,0.0,120.0,15.0,0.0
9640,69.0,0.0,120.0,15.0,0.0
9641,61.0,0.0,120.0,12.0,0.0
9642,61.0,0.0,120.0,2.0,0.0
9643,54.0,0.0,120.0,3.0,0.0
9644,73.0,0.0,240.0,5.0,0.0
9645,81.0,0.0,120.0,0.0,0.0
9646,73.0,0.0,480.0,0.0,0.0
9647,42.0,0.0,120.0,8.0,0.0
9648,61.0,0.0,120.0,15.0,0.0
9649,54.0,0.0,120.0,14.0,0.0
9650,54.0,0.0,120.0,1.0,0.0
9651,54.0,0.0,120.0,15.0,0.0
9652,61.0,0.0,120.0,3.0,0.0
9653,81.0,120.0,120.0,10.0,0.0
9654,54.0,0.0,120.0,13.0,0.0
9655,61.0,0.0,120.0,1.0,0.0
9656,73.0,0.0,240.0,11.0,0.0
9657,81.0,0.0,120.0,4.0,0.0
9658,64.0,0.0,120.0,6.0,0.0
9659,61.0,0.0,120.0,1.0,0.0
9660,49.0,0.0,120.0,14.0,0.0
9661,80.0,0.0,120.0,15.0,0.0
9662,61.0,0.0,120.0,15.0,0.0
9663,65.0,120.0,120.0,15.0,0.0
9664,65.0,0.0,120.0,1.0,0.0
9665,65.0,0.0,120.0,3.0,0.0
9666,65.0,0.0,120.0,12.0,0.0
9667,49.0,0.0,120.0,8.0,0.0
9668,80.0,0.0,120.0,0.0,0.0
9669,61.0,0.0,120.0,2.0,0.0
9670,73.0,0.0,120.0,2.0,0.0
9671,80.0,0.0,120.0,10.0,0.0
9672,61.0,0.0,120.0,13.0,0.0
9673,61.0,0.0,120.0,3.0,0.0
9674,80.0,0.0,120.0,4.0,0.0
9675,73.0,0.0,240.0,3.0,0.0
9676,73.0,0.0,240.0,11.0,0.0
9677,78.0,0.0,480.0,10.0,0.0
9678,62.0,0.0,480.0,13.0,0.0
9679,54.0,0.0,120.0,14.0,0.0
9680,66.0,0.0,480.0,2.0,0.0
9681,62.0,0.0,480.0,1.0,0.0
9682,66.0,0.0,120.0,3.0,0.0
9683,66.0,60.0,120.0,1.0,0.0
9684,78.0,0.0,480.0,4.0,0.0
9685,50.0,0.0,240.0,8.0,0.0
9686,78.0,0.0,480.0,0.0,0.0
9687,73.0,0.0,240.0,5.0,0.0
9688,69.0,120.0,240.0,15.0,0.0
9689,78.0,0.0,360.0,15.0,0.0
9690,62.0,0.0,480.0,3.0,0.0
9691,62.0,0.0,240.0,15.0,0.0
9692,73.0,0.0,240.0,15.0,0.0
9693,66.0,0.0,120.0,12.0,0.0
9694,78.0,0.0,480.0,2.0,0.0
9695,66.0,0.0,120.0,6.0,0.0
9696,69.0,0.0,120.0,12.0,0.0
9697,69.0,0.0,120.0,1.0,0.0
9698,69.0,0.0,120.0,6.0,0.0
9699,54.0,60.0,60.0,14.0,0.0
9700,69.0,0.0,120.0,3.0,0.0
9701,54.0,0.0,60.0,14.0,0.0
9702,72.0,0.0,240.0,11.0,0.0
9703,72.0,0.0,240.0,0.0,0.0
9704,68.0,0.0,120.0,12.0,0.0
9705,68.0,0.0,120.0,1.0,0.0
9706,68.0,0.0,120.0,15.0,0.0
9707,38.0,0.0,240.0,8.0,0.0
9708,68.0,0.0,120.0,3.0,0.0
9709,54.0,0.0,120.0,14.0,0.0
9710,72.0,0.0,240.0,3.0,0.0
9711,72.0,0.0,240.0,5.0,0.0
9712,72.0,0.0,240.0,15.0,0.0
9713,68.0,120.0,120.0,6.0,0.0
9714,50.0,0.0,240.0,15.0,0.0
9715,66.0,0.0,120.0,1.0,0.0
9716,66.0,0.0,120.0,12.0,0.0
9717,66.0,0.0,120.0,6.0,0.0
9718,78.0,120.0,120.0,15.0,0.0
9719,54.0,0.0,120.0,14.0,0.0
9720,66.0,0.0,120.0,3.0,0.0
9721,73.0,0.0,240.0,3.0,0.0
9722,77.0,0.0,240.0,4.0,0.0
9723,68.0,0.0,240.0,15.0,0.0
9724,77.0,0.0,240.0,15.0,0.0
9725,73.0,0.0,240.0,2.0,0.0
9726,61.0,0.0,240.0,2.0,0.0
9727,73.0,0.0,240.0,5.0,0.0
9728,49.0,0.0,120.0,15.0,0.0
9729,68.0,0.0,120.0,12.0,0.0
9730,68.0,0.0,120.0,6.0,0.0
9731,68.0,120.0,120.0,3.0,0.0
9732,37.0,0.0,120.0,8.0,0.0
9733,61.0,0.0,240.0,13.0,0.0
9734,73.0,0.0,240.0,11.0,0.0
9735,49.0,120.0,240.0,14.0,0.0
9736,73.0,0.0,240.0,0.0,0.0
9737,73.0,0.0,240.0,15.0,0.0
9738,68.0,0.0,120.0,1.0,0.0
9739,77.0,0.0,240.0,10.0,0.0
9740,77.0,0.0,240.0,0.0,0.0
9741,61.0,0.0,120.0,12.0,0.0
9742,61.0,0.0,120.0,15.0,0.0
9743,61.0,0.0,120.0,3.0,0.0
9744,61.0,0.0,120.0,1.0,0.0
9745,61.0,0.0,120.0,7.0,0.0
9746,61.0,0.0,120.0,6.0,0.0
9747,78.0,120.0,120.0,4.0,0.0
9748,69.0,0.0,120.0,15.0,0.0
9749,63.0,0.0,120.0,1.0,0.0
9750,78.0,0.0,120.0,10.0,0.0
9751,63.0,0.0,120.0,15.0,0.0
9752,73.0,0.0,240.0,11.0,0.0
9753,78.0,0.0,120.0,15.0,0.0
9754,73.0,0.0,240.0,0.0,0.0
9755,63.0,0.0,120.0,7.0,0.0
9756,73.0,0.0,120.0,15.0,0.0
9757,73.0,0.0,240.0,3.0,0.0
9758,63.0,0.0,120.0,3.0,0.0
9759,78.0,0.0,120.0,0.0,0.0
9760,63.0,0.0,120.0,12.0,0.0
9761,63.0,0.0,120.0,6.0,0.0
9762,73.0,0.0,240.0,5.0,0.0
9763,80.0,0.0,120.0,4.0,0.0
9764,80.0,0.0,120.0,10.0,0.0
9765,65.0,0.0,120.0,12.0,0.0
9766,65.0,120.0,120.0,6.0,0.0
9767,65.0,0.0,120.0,7.0,0.0
9768,73.0,0.0,120.0,15.0,0.0
9769,80.0,0.0,120.0,15.0,0.0
9770,65.0,0.0,120.0,15.0,0.0
9771,65.0,0.0,120.0,1.0,0.0
9772,65.0,0.0,120.0,3.0,0.0
9773,80.0,0.0,120.0,0.0,0.0
9774,66.0,120.0,120.0,15.0,0.0
9775,69.0,0.0,240.0,15.0,0.0
9776,73.0,0.0,240.0,15.0,0.0
9777,66.0,0.0,120.0,3.0,0.0
9778,66.0,0.0,120.0,1.0,0.0
9779,66.0,0.0,120.0,7.0,0.0
9780,66.0,0.0,120.0,12.0,0.0
9781,73.0,0.0,240.0,10.0,0.0
9782,66.0,0.0,120.0,6.0,0.0
9783,69.0,0.0,240.0,3.0,0.0
9784,69.0,120.0,240.0,5.0,0.0
9785,73.0,0.0,240.0,4.0,0.0
9786,69.0,0.0,240.0,11.0,0.0
9787,69.0,0.0,240.0,0.0,0.0
9788,73.0,0.0,240.0,0.0,0.0
9789,54.0,0.0,120.0,1.0,0.0
9790,54.0,0.0,120.0,7.0,0.0
9791,54.0,0.0,120.0,3.0,0.0
9792,54.0,0.0,120.0,6.0,0.0
9793,54.0,0.0,120.0,12.0,0.0
9794,54.0,0.0,120.0,15.0,0.0
9795,59.0,0.0,120.0,7.0,0.0
9796,59.0,0.0,120.0,6.0,0.0
9797,59.0,120.0,120.0,3.0,0.0
9798,59.0,0.0,120.0,12.0,0.0
9799,74.0,120.0,240.0,15.0,0.0
9800,74.0,0.0,240.0,3.0,0.0
9801,74.0,0.0,240.0,11.0,0.0
9802,59.0,0.0,120.0,1.0,0.0
9803,59.0,0.0,120.0,15.0,0.0
9804,74.0,0.0,240.0,5.0,0.0
9805,74.0,0.0,240.0,0.0,0.0
9806,66.0,0.0,240.0,15.0,0.0
9807,56.0,0.0,120.0,15.0,0.0
9808,56.0,0.0,120.0,1.0,0.0
9809,56.0,0.0,120.0,6.0,0.0
9810,56.0,0.0,120.0,12.0,0.0
9811,56.0,0.0,120.0,3.0,0.0
9812,56.0,0.0,120.0,7.0,0.0
9813,61.0,0.0,120.0,1.0,0.0
9814,65.0,0.0,480.0,5.0,0.0
9815,65.0,0.0,480.0,11.0,0.0
9816,61.0,0.0,120.0,3.0,0.0
9817,65.0,60.0,480.0,3.0,0.0
9818,65.0,0.0,480.0,0.0,0.0
9819,61.0,0.0,120.0,6.0,0.0
9820,61.0,0.0,120.0,7.0,0.0
9821,61.0,0.0,120.0,12.0,0.0
9822,68.0,0.0,480.0,15.0,0.0
9823,61.0,120.0,120.0,15.0,0.0
9824,65.0,0.0,480.0,15.0,0.0
9825,62.0,0.0,120.0,12.0,0.0
9826,37.0,120.0,120.0,8.0,0.0
9827,49.0,0.0,120.0,13.0,0.0
9828,62.0,0.0,120.0,3.0,0.0
9829,49.0,0.0,120.0,3.0,0.0
9830,62.0,0.0,120.0,6.0,0.0
9831,52.0,0.0,120.0,1.0,0.0
9832,62.0,0.0,120.0,1.0,0.0
9833,49.0,0.0,120.0,15.0,0.0
9834,74.0,0.0,120.0,15.0,0.0
9835,52.0,0.0,120.0,1.0,0.0
9836,37.0,0.0,120.0,8.0,0.0
9837,61.0,0.0,120.0,3.0,0.0
9838,61.0,0.0,120.0,12.0,0.0
9839,61.0,0.0,120.0,6.0,0.0
9840,49.0,0.0,120.0,15.0,0.0
9841,49.0,0.0,120.0,13.0,0.0
9842,49.0,0.0,120.0,3.0,0.0
9843,61.0,120.0,120.0,1.0,0.0
9844,73.0,0.0,120.0,15.0,0.0
9845,49.0,0.0,120.0,3.0,0.0
9846,37.0,0.0,120.0,8.0,0.0
9847,49.0,0.0,120.0,15.0,0.0
9848,59.0,0.0,120.0,1.0,0.0
9849,52.0,0.0,120.0,1.0,0.0
9850,49.0,0.0,120.0,13.0,0.0
9851,59.0,0.0,120.0,6.0,0.0
9852,59.0,0.0,120.0,12.0,0.0
9853,59.0,0.0,120.0,3.0,0.0
9854,71.0,0.0,120.0,15.0,0.0
9855,50.0,0.0,60.0,1.0,0.0
9856,57.0,0.0,120.0,3.0,0.0
9857,66.0,0.0,240.0,3.0,0.0
9858,66.0,0.0,240.0,5.0,0.0
9859,38.0,0.0,60.0,8.0,0.0
9860,57.0,0.0,120.0,12.0,0.0
9861,57.0,0.0,120.0,6.0,0.0
9862,50.0,0.0,60.0,13.0,0.0
9863,50.0,60.0,60.0,3.0,0.0
9864,57.0,60.0,120.0,1.0,0.0
9865,57.0,0.0,240.0,15.0,0.0
9866,66.0,0.0,240.0,15.0,0.0
9867,66.0,0.0,240.0,0.0,0.0
9868,50.0,0.0,60.0,15.0,0.0
9869,66.0,0.0,240.0,11.0,0.0
9870,52.0,0.0,60.0,13.0,0.0
9871,52.0,0.0,60.0,3.0,0.0
9872,40.0,0.0,60.0,8.0,0.0
9873,52.0,0.0,60.0,1.0,0.0
9874,52.0,0.0,60.0,15.0,0.0
9875,54.0,0.0,120.0,6.0,0.0
9876,54.0,0.0,120.0,12.0,0.0
9877,50.0,0.0,60.0,13.0,0.0
9878,50.0,0.0,60.0,3.0,0.0
9879,54.0,0.0,120.0,3.0,0.0
9880,50.0,0.0,60.0,15.0,0.0
9881,38.0,0.0,60.0,8.0,0.0
9882,54.0,0.0,120.0,1.0,0.0
9883,50.0,60.0,60.0,1.0,0.0
9884,49.0,60.0,60.0,13.0,0.0
9885,37.0,0.0,60.0,8.0,0.0
9886,49.0,0.0,60.0,1.0,0.0
9887,49.0,0.0,60.0,3.0,0.0
9888,49.0,0.0,60.0,15.0,0.0
9889,51.0,0.0,60.0,13.0,0.0
9890,51.0,0.0,60.0,1.0,0.0
9891,59.0,0.0,120.0,1.0,0.0
9892,59.0,0.0,120.0,12.0,0.0
9893,59.0,0.0,120.0,15.0,0.0
9894,59.0,0.0,120.0,3.0,0.0
9895,66.0,0.0,120.0,0.0,0.0
9896,66.0,0.0,120.0,15.0,0.0
9897,51.0,0.0,60.0,15.0,0.0
9898,66.0,0.0,120.0,3.0,0.0
9899,51.0,60.0,60.0,3.0,0.0
9900,59.0,60.0,120.0,6.0,0.0
9901,66.0,0.0,120.0,11.0,0.0
9902,66.0,0.0,120.0,5.0,0.0
9903,39.0,0.0,60.0,8.0,0.0
9904,40.0,0.0,60.0,8.0,0.0
9905,52.0,0.0,60.0,1.0,0.0
9906,52.0,0.0,60.0,3.0,0.0
9907,52.0,0.0,60.0,13.0,0.0
9908,52.0,0.0,60.0,15.0,0.0
9909,66.0,0.0,120.0,5.0,0.0
9910,57.0,0.0,120.0,6.0,0.0
9911,66.0,0.0,120.0,3.0,0.0
9912,66.0,0.0,120.0,0.0,0.0
9913,66.0,0.0,120.0,11.0,0.0
9914,57.0,0.0,120.0,15.0,0.0
9915,49.0,60.0,60.0,3.0,0.0
9916,66.0,60.0,120.0,15.0,0.0
9917,57.0,0.0,120.0,12.0,0.0
9918,57.0,0.0,120.0,1.0,0.0
9919,49.0,0.0,60.0,1.0,0.0
9920,57.0,0.0,120.0,3.0,0.0
9921,49.0,0.0,60.0,13.0,0.0
9922,37.0,0.0,60.0,8.0,0.0
9923,49.0,0.0,60.0,15.0,0.0
9924,51.0,0.0,60.0,13.0,0.0
9925,39.0,0.0,60.0,8.0,0.0
9926,51.0,0.0,60.0,3.0,0.0
9927,51.0,0.0,60.0,1.0,0.0
9928,51.0,0.0,60.0,15.0,0.0
9929,68.0,0.0,360.0,11.0,0.0
9930,52.0,0.0,60.0,3.0,0.0
9931,40.0,0.0,60.0,8.0,0.0
9932,52.0,60.0,60.0,15.0,0.0
9933,68.0,0.0,360.0,0.0,0.0
9934,68.0,0.0,360.0,5.0,0.0
9935,71.0,0.0,120.0,15.0,0.0
9936,52.0,0.0,60.0,13.0,0.0
9937,68.0,0.0,120.0,15.0,0.0
9938,52.0,0.0,60.0,1.0,0.0
9939,56.0,0.0,120.0,1.0,0.0
9940,56.0,0.0,120.0,3.0,0.0
9941,56.0,0.0,120.0,12.0,0.0
9942,68.0,0.0,360.0,3.0,0.0
9943,56.0,0.0,120.0,6.0,0.0
9944,42.0,0.0,60.0,8.0,0.0
9945,54.0,0.0,60.0,13.0,0.0
9946,54.0,0.0,60.0,3.0,0.0
9947,54.0,0.0,60.0,1.0,0.0
9948,54.0,60.0,60.0,15.0,0.0
9949,73.0,0.0,120.0,0.0,0.0
9950,73.0,0.0,360.0,15.0,0.0
9951,68.0,0.0,360.0,15.0,0.0
9952,52.0,60.0,60.0,15.0,0.0
9953,73.0,0.0,120.0,10.0,0.0
9954,52.0,0.0,60.0,1.0,0.0
9955,40.0,0.0,60.0,8.0,0.0
9956,52.0,0.0,120.0,12.0,0.0
9957,52.0,0.0,60.0,3.0,0.0
9958,52.0,0.0,120.0,6.0,0.0
9959,73.0,0.0,120.0,4.0,0.0
9960,52.0,0.0,60.0,13.0,0.0
9961,51.0,0.0,60.0,13.0,0.0
9962,39.0,0.0,60.0,8.0,0.0
9963,51.0,60.0,60.0,3.0,0.0
9964,51.0,0.0,60.0,1.0,0.0
9965,51.0,0.0,60.0,15.0,0.0
9966,53.0,0.0,60.0,1.0,0.0
9967,61.0,0.0,120.0,6.0,0.0
9968,73.0,0.0,120.0,10.0,0.0
9969,53.0,0.0,60.0,13.0,0.0
9970,61.0,0.0,120.0,3.0,0.0
9971,73.0,60.0,120.0,0.0,0.0
9972,73.0,0.0,120.0,4.0,0.0
9973,53.0,60.0,60.0,3.0,0.0
9974,61.0,0.0,120.0,12.0,0.0
9975,61.0,0.0,120.0,1.0,0.0
9976,41.0,0.0,60.0,8.0,0.0
9977,53.0,0.0,60.0,15.0,0.0
9978,54.0,0.0,60.0,1.0,0.0
9979,54.0,0.0,60.0,13.0,0.0
9980,54.0,0.0,60.0,3.0,0.0
9981,42.0,0.0,60.0,8.0,0.0
9982,54.0,0.0,60.0,15.0,0.0
9983,73.0,0.0,120.0,0.0,0.0
9984,66.0,0.0,60.0,0.0,0.0
9985,66.0,0.0,60.0,3.0,0.0
9986,73.0,0.0,120.0,4.0,0.0
9987,51.0,0.0,60.0,13.0,0.0
9988,51.0,0.0,60.0,1.0,0.0
9989,61.0,0.0,120.0,12.0,0.0
9990,51.0,60.0,60.0,15.0,0.0
9991,61.0,0.0,120.0,3.0,0.0
9992,51.0,0.0,60.0,3.0,0.0
9993,66.0,0.0,60.0,11.0,0.0
9994,61.0,60.0,120.0,1.0,0.0
9995,61.0,0.0,120.0,6.0,0.0
9996,73.0,0.0,120.0,10.0,0.0
9997,39.0,0.0,60.0,8.0,0.0
9998,66.0,0.0,60.0,5.0,0.0
9999,68.0,0.0,60.0,3.0,0.0
10000,68.0,0.0,60.0,0.0,0.0
10001,41.0,0.0,60.0,8.0,0.0
10002,53.0,0.0,60.0,15.0,0.0
10003,68.0,0.0,60.0,5.0,0.0
10004,53.0,0.0,60.0,13.0,0.0
10005,53.0,0.0,60.0,3.0,0.0
10006,68.0,0.0,60.0,11.0,0.0
10007,53.0,0.0,60.0,1.0,0.0
10008,57.0,0.0,240.0,12.0,0.0
10009,74.0,0.0,60.0,10.0,0.0
10010,54.0,0.0,120.0,3.0,0.0
10011,69.0,0.0,240.0,5.0,0.0
10012,42.0,0.0,120.0,8.0,0.0
10013,69.0,0.0,240.0,11.0,0.0
10014,57.0,0.0,240.0,1.0,0.0
10015,54.0,0.0,120.0,1.0,0.0
10016,57.0,0.0,240.0,3.0,0.0
10017,57.0,60.0,240.0,6.0,0.0
10018,54.0,0.0,120.0,13.0,0.0
10019,57.0,0.0,240.0,15.0,0.0
10020,74.0,0.0,240.0,15.0,0.0
10021,69.0,0.0,240.0,0.0,0.0
10022,74.0,60.0,60.0,0.0,0.0
10023,74.0,0.0,60.0,4.0,0.0
10024,54.0,60.0,120.0,15.0,0.0
10025,69.0,0.0,240.0,15.0,0.0
10026,69.0,0.0,240.0,3.0,0.0
10027,76.0,0.0,60.0,4.0,0.0
10028,76.0,0.0,60.0,10.0,0.0
10029,76.0,0.0,60.0,0.0,0.0
10030,74.0,0.0,60.0,0.0,0.0
10031,54.0,0.0,120.0,1.0,0.0
10032,74.0,60.0,60.0,10.0,0.0
10033,54.0,0.0,120.0,3.0,0.0
10034,54.0,0.0,120.0,15.0,0.0
10035,74.0,0.0,60.0,4.0,0.0
10036,54.0,0.0,120.0,13.0,0.0
10037,42.0,0.0,120.0,8.0,0.0
10038,73.0,0.0,60.0,4.0,0.0
10039,73.0,0.0,60.0,0.0,0.0
10040,73.0,0.0,60.0,10.0,0.0
10041,66.0,0.0,240.0,15.0,0.0
10042,59.0,0.0,120.0,15.0,0.0
10043,75.0,0.0,240.0,15.0,0.0
10044,75.0,60.0,60.0,0.0,0.0
10045,75.0,0.0,60.0,4.0,0.0
10046,66.0,0.0,240.0,12.0,0.0
10047,66.0,0.0,240.0,6.0,0.0
10048,47.0,0.0,120.0,8.0,0.0
10049,59.0,0.0,120.0,13.0,0.0
10050,59.0,60.0,120.0,3.0,0.0
10051,59.0,0.0,120.0,1.0,0.0
10052,66.0,0.0,240.0,1.0,0.0
10053,75.0,0.0,60.0,10.0,0.0
10054,66.0,0.0,240.0,3.0,0.0
10055,76.0,0.0,60.0,0.0,0.0
10056,76.0,0.0,60.0,10.0,0.0
10057,76.0,0.0,60.0,4.0,0.0
10058,73.0,0.0,60.0,4.0,0.0
10059,45.0,0.0,120.0,8.0,0.0
10060,57.0,60.0,120.0,13.0,0.0
10061,57.0,0.0,120.0,15.0,0.0
10062,73.0,0.0,60.0,0.0,0.0
10063,57.0,0.0,120.0,1.0,0.0
10064,73.0,60.0,60.0,10.0,0.0
10065,57.0,0.0,120.0,3.0,0.0
10066,75.0,0.0,60.0,0.0,0.0
10067,75.0,0.0,60.0,10.0,0.0
10068,75.0,0.0,60.0,4.0,0.0
10069,56.0,0.0,120.0,15.0,0.0
10070,56.0,60.0,120.0,3.0,0.0
10071,56.0,0.0,120.0,1.0,0.0
10072,76.0,0.0,60.0,10.0,0.0
10073,59.0,0.0,240.0,1.0,0.0
10074,76.0,0.0,240.0,15.0,0.0
10075,59.0,0.0,240.0,15.0,0.0
10076,56.0,0.0,120.0,13.0,0.0
10077,59.0,0.0,240.0,3.0,0.0
10078,44.0,0.0,120.0,8.0,0.0
10079,76.0,60.0,60.0,0.0,0.0
10080,59.0,0.0,240.0,6.0,0.0
10081,59.0,0.0,240.0,12.0,0.0
10082,76.0,0.0,60.0,4.0,0.0
10083,78.0,0.0,60.0,0.0,0.0
10084,78.0,0.0,60.0,10.0,0.0
10085,78.0,0.0,60.0,4.0,0.0
10086,68.0,0.0,120.0,5.0,0.0
10087,44.0,0.0,120.0,8.0,0.0
10088,68.0,0.0,120.0,3.0,0.0
10089,68.0,0.0,120.0,0.0,0.0
10090,76.0,60.0,60.0,0.0,0.0
10091,56.0,0.0,120.0,3.0,0.0
10092,56.0,0.0,120.0,15.0,0.0
10093,76.0,0.0,60.0,4.0,0.0
10094,68.0,60.0,120.0,11.0,0.0
10095,56.0,0.0,120.0,1.0,0.0
10096,56.0,0.0,120.0,13.0,0.0
10097,76.0,0.0,60.0,10.0,0.0
10098,75.0,0.0,60.0,4.0,0.0
10099,75.0,0.0,60.0,10.0,0.0
10100,75.0,0.0,60.0,0.0,0.0
10101,61.0,0.0,120.0,13.0,0.0
10102,77.0,60.0,60.0,10.0,0.0
10103,61.0,60.0,120.0,1.0,0.0
10104,77.0,0.0,60.0,4.0,0.0
10105,77.0,0.0,240.0,15.0,0.0
10106,49.0,0.0,120.0,8.0,0.0
10107,61.0,0.0,120.0,15.0,0.0
10108,68.0,60.0,240.0,15.0,0.0
10109,68.0,0.0,120.0,11.0,0.0
10110,68.0,0.0,120.0,0.0,0.0
10111,68.0,0.0,120.0,3.0,0.0
10112,68.0,0.0,120.0,5.0,0.0
10113,77.0,0.0,60.0,0.0,0.0
10114,61.0,0.0,120.0,3.0,0.0
10115,78.0,0.0,60.0,0.0,0.0
10116,78.0,0.0,60.0,10.0,0.0
10117,78.0,0.0,60.0,4.0,0.0
10118,47.0,0.0,120.0,8.0,0.0
10119,75.0,60.0,60.0,10.0,0.0
10120,75.0,0.0,60.0,4.0,0.0
10121,68.0,0.0,120.0,3.0,0.0
10122,68.0,0.0,120.0,11.0,0.0
10123,59.0,0.0,120.0,13.0,0.0
10124,59.0,0.0,120.0,3.0,0.0
10125,68.0,0.0,120.0,0.0,0.0
10126,68.0,0.0,120.0,5.0,0.0
10127,59.0,0.0,120.0,1.0,0.0
10128,75.0,0.0,60.0,0.0,0.0
10129,59.0,0.0,120.0,15.0,0.0
10130,77.0,0.0,60.0,0.0,0.0
10131,77.0,0.0,60.0,4.0,0.0
10132,77.0,0.0,60.0,10.0,0.0
10133,69.0,0.0,60.0,11.0,0.0
10134,57.0,0.0,240.0,1.0,0.0
10135,78.0,0.0,240.0,10.0,0.0
10136,78.0,0.0,240.0,4.0,0.0
10137,69.0,0.0,60.0,5.0,0.0
10138,69.0,0.0,60.0,0.0,0.0
10139,78.0,0.0,240.0,0.0,0.0
10140,57.0,0.0,240.0,13.0,0.0
10141,45.0,0.0,120.0,8.0,0.0
10142,57.0,0.0,240.0,3.0,0.0
10143,69.0,60.0,60.0,3.0,0.0
10144,73.0,60.0,240.0,15.0,0.0
10145,57.0,0.0,120.0,15.0,0.0
10146,78.0,0.0,240.0,15.0,0.0
10147,71.0,0.0,60.0,11.0,0.0
10148,71.0,60.0,60.0,0.0,0.0
10149,71.0,0.0,60.0,3.0,0.0
10150,71.0,0.0,60.0,5.0,0.0
10151,61.0,0.0,120.0,12.0,0.0
10152,61.0,0.0,120.0,1.0,0.0
10153,69.0,0.0,60.0,0.0,0.0
10154,61.0,0.0,120.0,3.0,0.0
10155,69.0,0.0,60.0,11.0,0.0
10156,61.0,0.0,120.0,6.0,0.0
10157,61.0,0.0,120.0,15.0,0.0
10158,69.0,60.0,60.0,5.0,0.0
10159,61.0,0.0,120.0,7.0,0.0
10160,69.0,0.0,60.0,3.0,0.0
10161,68.0,0.0,60.0,5.0,0.0
10162,68.0,0.0,60.0,11.0,0.0
10163,68.0,0.0,60.0,3.0,0.0
10164,68.0,0.0,60.0,0.0,0.0
10165,70.0,0.0,60.0,0.0,0.0
10166,70.0,0.0,60.0,3.0,0.0
10167,66.0,0.0,120.0,3.0,0.0
10168,70.0,60.0,60.0,5.0,0.0
10169,74.0,0.0,120.0,15.0,0.0
10170,66.0,60.0,120.0,15.0,0.0
10171,70.0,0.0,120.0,15.0,0.0
10172,66.0,0.0,120.0,6.0,0.0
10173,66.0,0.0,120.0,7.0,0.0
10174,70.0,0.0,60.0,11.0,0.0
10175,66.0,0.0,120.0,1.0,0.0
10176,66.0,0.0,120.0,12.0,0.0
10177,71.0,0.0,60.0,0.0,0.0
10178,71.0,0.0,60.0,11.0,0.0
10179,71.0,0.0,60.0,5.0,0.0
10180,71.0,0.0,60.0,3.0,0.0
10181,68.0,0.0,60.0,5.0,0.0
10182,71.0,0.0,120.0,15.0,0.0
10183,64.0,0.0,120.0,15.0,0.0
10184,68.0,0.0,120.0,15.0,0.0
10185,64.0,0.0,120.0,1.0,0.0
10186,68.0,0.0,60.0,11.0,0.0
10187,68.0,60.0,60.0,3.0,0.0
10188,64.0,0.0,120.0,3.0,0.0
10189,68.0,0.0,60.0,0.0,0.0
10190,64.0,0.0,120.0,7.0,0.0
10191,64.0,0.0,120.0,6.0,0.0
10192,64.0,0.0,120.0,12.0,0.0
10193,70.0,0.0,60.0,0.0,0.0
10194,70.0,0.0,60.0,5.0,0.0
10195,70.0,60.0,60.0,3.0,0.0
10196,70.0,0.0,60.0,11.0,0.0
10197,63.0,0.0,120.0,6.0,0.0
10198,71.0,0.0,60.0,11.0,0.0
10199,66.0,0.0,120.0,15.0,0.0
10200,71.0,0.0,240.0,15.0,0.0
10201,63.0,60.0,120.0,15.0,0.0
10202,63.0,0.0,120.0,1.0,0.0
10203,71.0,60.0,60.0,3.0,0.0
10204,71.0,0.0,60.0,0.0,0.0
10205,71.0,0.0,60.0,5.0,0.0
10206,63.0,0.0,120.0,3.0,0.0
10207,63.0,0.0,120.0,7.0,0.0
10208,63.0,0.0,120.0,12.0,0.0
10209,73.0,0.0,60.0,0.0,0.0
10210,73.0,0.0,60.0,3.0,0.0
10211,73.0,0.0,60.0,11.0,0.0
10212,73.0,0.0,60.0,5.0,0.0
10213,63.0,0.0,120.0,3.0,0.0
10214,63.0,0.0,120.0,7.0,0.0
10215,63.0,0.0,120.0,12.0,0.0
10216,71.0,0.0,60.0,5.0,0.0
10217,71.0,0.0,60.0,0.0,0.0
10218,71.0,60.0,60.0,3.0,0.0
10219,80.0,0.0,120.0,10.0,0.0
10220,63.0,0.0,120.0,1.0,0.0
10221,63.0,0.0,120.0,15.0,0.0
10222,80.0,60.0,120.0,15.0,0.0
10223,71.0,0.0,60.0,11.0,0.0
10224,63.0,0.0,120.0,6.0,0.0
10225,80.0,0.0,120.0,4.0,0.0
10226,70.0,0.0,60.0,0.0,0.0
10227,70.0,0.0,60.0,11.0,0.0
10228,70.0,0.0,60.0,5.0,0.0
10229,70.0,0.0,60.0,3.0,0.0
10230,68.0,0.0,120.0,1.0,0.0
10231,72.0,0.0,60.0,11.0,0.0
10232,68.0,0.0,120.0,6.0,0.0
10233,80.0,0.0,120.0,4.0,0.0
10234,68.0,0.0,120.0,15.0,0.0
10235,72.0,0.0,240.0,15.0,0.0
10236,72.0,0.0,60.0,5.0,0.0
10237,68.0,60.0,120.0,12.0,0.0
10238,72.0,60.0,60.0,3.0,0.0
10239,72.0,0.0,60.0,0.0,0.0
10240,80.0,0.0,120.0,10.0,0.0
10241,74.0,0.0,240.0,15.0,0.0
10242,68.0,0.0,120.0,3.0,0.0
10243,68.0,0.0,120.0,7.0,0.0
10244,73.0,0.0,60.0,5.0,0.0
10245,73.0,0.0,60.0,11.0,0.0
10246,73.0,0.0,60.0,0.0,0.0
10247,73.0,0.0,60.0,3.0,0.0
10248,66.0,0.0,120.0,3.0,0.0
10249,56.0,0.0,120.0,13.0,0.0
10250,66.0,0.0,120.0,15.0,0.0
10251,56.0,0.0,120.0,15.0,0.0
10252,66.0,0.0,120.0,6.0,0.0
10253,80.0,0.0,120.0,4.0,0.0
10254,66.0,0.0,120.0,12.0,0.0
10255,70.0,0.0,60.0,3.0,0.0
10256,56.0,0.0,120.0,1.0,0.0
10257,69.0,0.0,60.0,5.0,0.0
10258,70.0,60.0,60.0,11.0,0.0
10259,56.0,60.0,120.0,3.0,0.0
10260,44.0,0.0,120.0,8.0,0.0
10261,66.0,0.0,120.0,1.0,0.0
10262,80.0,0.0,120.0,10.0,0.0
10263,69.0,0.0,60.0,0.0,0.0
10264,72.0,0.0,60.0,0.0,0.0
10265,72.0,0.0,60.0,5.0,0.0
10266,72.0,0.0,60.0,11.0,0.0
10267,72.0,0.0,60.0,3.0,0.0
10268,73.0,0.0,240.0,11.0,0.0
10269,49.0,0.0,120.0,8.0,0.0
10270,61.0,0.0,120.0,15.0,0.0
10271,81.0,0.0,240.0,15.0,0.0
10272,73.0,0.0,240.0,5.0,0.0
10273,61.0,0.0,120.0,1.0,0.0
10274,64.0,0.0,240.0,15.0,0.0
10275,64.0,0.0,240.0,1.0,0.0
10276,61.0,60.0,120.0,3.0,0.0
10277,73.0,0.0,240.0,0.0,0.0
10278,61.0,0.0,120.0,13.0,0.0
10279,64.0,0.0,240.0,6.0,0.0
10280,81.0,0.0,60.0,4.0,0.0
10281,73.0,0.0,240.0,3.0,0.0
10282,81.0,60.0,60.0,10.0,0.0
10283,64.0,0.0,240.0,3.0,0.0
10284,64.0,0.0,240.0,12.0,0.0
10285,83.0,0.0,60.0,4.0,0.0
10286,83.0,0.0,60.0,10.0,0.0
10287,49.0,0.0,120.0,15.0,0.0
10288,81.0,0.0,60.0,10.0,0.0
10289,37.0,0.0,120.0,8.0,0.0
10290,81.0,60.0,60.0,4.0,0.0
10291,52.0,0.0,120.0,13.0,0.0
10292,49.0,0.0,120.0,1.0,0.0
10293,52.0,0.0,120.0,3.0,0.0
10294,80.0,0.0,60.0,10.0,0.0
10295,80.0,60.0,60.0,4.0,0.0
10296,66.0,0.0,240.0,3.0,0.0
10297,54.0,0.0,120.0,3.0,0.0
10298,66.0,0.0,240.0,1.0,0.0
10299,54.0,60.0,120.0,1.0,0.0
10300,73.0,60.0,240.0,5.0,0.0
10301,66.0,0.0,240.0,6.0,0.0
10302,66.0,0.0,240.0,15.0,0.0
10303,54.0,0.0,120.0,13.0,0.0
10304,54.0,0.0,120.0,15.0,0.0
10305,66.0,0.0,240.0,12.0,0.0
10306,82.0,0.0,240.0,15.0,0.0
10307,82.0,0.0,60.0,4.0,0.0
10308,73.0,0.0,240.0,11.0,0.0
10309,73.0,0.0,240.0,15.0,0.0
10310,73.0,0.0,240.0,3.0,0.0
10311,73.0,0.0,240.0,0.0,0.0
10312,42.0,0.0,120.0,8.0,0.0
10313,82.0,60.0,60.0,10.0,0.0
10314,83.0,0.0,60.0,10.0,0.0
10315,83.0,0.0,60.0,4.0,0.0
10316,52.0,0.0,120.0,15.0,0.0
10317,40.0,0.0,120.0,8.0,0.0
10318,52.0,0.0,120.0,3.0,0.0
10319,52.0,0.0,120.0,1.0,0.0
10320,80.0,0.0,60.0,10.0,0.0
10321,52.0,0.0,120.0,13.0,0.0
10322,80.0,60.0,60.0,4.0,0.0
10323,82.0,0.0,60.0,10.0,0.0
10324,82.0,0.0,60.0,4.0,0.0
10325,83.0,0.0,60.0,4.0,0.0
10326,71.0,0.0,240.0,5.0,0.0
10327,66.0,0.0,240.0,3.0,0.0
10328,71.0,0.0,240.0,3.0,0.0
10329,51.0,0.0,120.0,1.0,0.0
10330,66.0,0.0,240.0,1.0,0.0
10331,51.0,0.0,120.0,13.0,0.0
10332,51.0,0.0,120.0,3.0,0.0
10333,66.0,0.0,240.0,12.0,0.0
10334,39.0,0.0,120.0,8.0,0.0
10335,71.0,0.0,240.0,0.0,0.0
10336,83.0,60.0,60.0,10.0,0.0
10337,71.0,0.0,240.0,11.0,0.0
10338,51.0,0.0,120.0,15.0,0.0
10339,66.0,0.0,240.0,15.0,0.0
10340,71.0,0.0,240.0,15.0,0.0
10341,83.0,0.0,240.0,15.0,0.0
10342,66.0,0.0,240.0,6.0,0.0
10343,85.0,0.0,60.0,4.0,0.0
10344,85.0,60.0,60.0,10.0,0.0
10345,51.0,0.0,120.0,1.0,0.0
10346,83.0,60.0,60.0,4.0,0.0
10347,39.0,0.0,120.0,8.0,0.0
10348,51.0,0.0,120.0,3.0,0.0
10349,51.0,0.0,120.0,13.0,0.0
10350,51.0,0.0,120.0,15.0,0.0
10351,83.0,0.0,60.0,10.0,0.0
10352,82.0,60.0,60.0,4.0,0.0
10353,82.0,0.0,60.0,10.0,0.0
10354,68.0,0.0,240.0,1.0,0.0
10355,56.0,60.0,120.0,1.0,0.0
10356,75.0,0.0,240.0,0.0,0.0
10357,75.0,0.0,240.0,11.0,0.0
10358,75.0,0.0,240.0,5.0,0.0
10359,75.0,0.0,240.0,3.0,0.0
10360,84.0,0.0,60.0,10.0,0.0
10361,56.0,0.0,120.0,3.0,0.0
10362,68.0,120.0,240.0,6.0,0.0
10363,44.0,0.0,120.0,8.0,0.0
10364,84.0,0.0,240.0,15.0,0.0
10365,56.0,0.0,120.0,15.0,0.0
10366,68.0,0.0,240.0,12.0,0.0
10367,56.0,0.0,120.0,13.0,0.0
10368,68.0,0.0,240.0,3.0,0.0
10369,84.0,60.0,60.0,4.0,0.0
10370,85.0,0.0,60.0,4.0,0.0
10371,85.0,0.0,60.0,10.0,0.0
10372,54.0,0.0,120.0,1.0,0.0
10373,82.0,0.0,60.0,4.0,0.0
10374,54.0,0.0,120.0,3.0,0.0
10375,54.0,0.0,120.0,13.0,0.0
10376,42.0,0.0,120.0,8.0,0.0
10377,54.0,0.0,120.0,15.0,0.0
10378,82.0,60.0,60.0,10.0,0.0
10379,84.0,0.0,60.0,4.0,0.0
10380,84.0,0.0,60.0,10.0,0.0
10381,41.0,0.0,120.0,8.0,0.0
10382,85.0,0.0,120.0,10.0,0.0
10383,53.0,0.0,120.0,15.0,0.0
10384,73.0,0.0,120.0,15.0,0.0
10385,68.0,0.0,120.0,3.0,0.0
10386,73.0,0.0,120.0,3.0,0.0
10387,49.0,120.0,240.0,14.0,0.0
10388,68.0,120.0,120.0,15.0,0.0
10389,73.0,0.0,240.0,2.0,0.0
10390,53.0,0.0,120.0,3.0,0.0
10391,53.0,0.0,120.0,1.0,0.0
10392,68.0,0.0,120.0,6.0,0.0
10393,68.0,0.0,120.0,1.0,0.0
10394,53.0,0.0,120.0,13.0,0.0
10395,85.0,0.0,120.0,4.0,0.0
10396,73.0,0.0,120.0,11.0,0.0
10397,73.0,0.0,120.0,0.0,0.0
10398,68.0,0.0,120.0,12.0,0.0
10399,73.0,0.0,120.0,5.0,0.0
10400,49.0,0.0,120.0,8.0,0.0
10401,71.0,0.0,120.0,5.0,0.0
10402,68.0,0.0,120.0,3.0,0.0
10403,68.0,0.0,120.0,6.0,0.0
10404,68.0,0.0,120.0,12.0,0.0
10405,77.0,0.0,120.0,4.0,0.0
10406,61.0,0.0,120.0,1.0,0.0
10407,77.0,0.0,120.0,15.0,0.0
10408,61.0,0.0,120.0,15.0,0.0
10409,68.0,0.0,120.0,1.0,0.0
10410,77.0,0.0,120.0,10.0,0.0
10411,71.0,0.0,120.0,15.0,0.0
10412,68.0,0.0,120.0,15.0,0.0
10413,71.0,0.0,120.0,3.0,0.0
10414,61.0,0.0,120.0,13.0,0.0
10415,71.0,0.0,120.0,0.0,0.0
10416,77.0,0.0,120.0,0.0,0.0
10417,71.0,0.0,120.0,11.0,0.0
10418,61.0,0.0,120.0,3.0,0.0
10419,69.0,0.0,120.0,3.0,0.0
10420,50.0,0.0,120.0,8.0,0.0
10421,69.0,0.0,120.0,11.0,0.0
10422,66.0,0.0,120.0,3.0,0.0
10423,62.0,0.0,120.0,3.0,0.0
10424,69.0,0.0,120.0,5.0,0.0
10425,62.0,0.0,120.0,1.0,0.0
10426,66.0,120.0,120.0,1.0,0.0
10427,78.0,0.0,120.0,0.0,0.0
10428,69.0,0.0,120.0,0.0,0.0
10429,78.0,0.0,120.0,10.0,0.0
10430,62.0,0.0,120.0,13.0,0.0
10431,78.0,0.0,120.0,4.0,0.0
10432,62.0,0.0,120.0,15.0,0.0
10433,78.0,0.0,120.0,15.0,0.0
10434,69.0,0.0,120.0,15.0,0.0
10435,54.0,0.0,120.0,14.0,0.0
10436,66.0,0.0,120.0,2.0,0.0
10437,66.0,0.0,120.0,6.0,0.0
10438,66.0,0.0,120.0,12.0,0.0
10439,59.0,0.0,120.0,1.0,0.0
10440,74.0,0.0,120.0,5.0,0.0
10441,69.0,0.0,120.0,1.0,0.0
10442,69.0,0.0,120.0,6.0,0.0
10443,66.0,0.0,120.0,2.0,0.0
10444,47.0,0.0,120.0,8.0,0.0
10445,78.0,120.0,120.0,10.0,0.0
10446,69.0,0.0,120.0,15.0,0.0
10447,59.0,0.0,120.0,13.0,0.0
10448,69.0,0.0,120.0,12.0,0.0
10449,54.0,0.0,120.0,14.0,0.0
10450,78.0,0.0,120.0,4.0,0.0
10451,59.0,0.0,120.0,3.0,0.0
10452,78.0,0.0,120.0,15.0,0.0
10453,74.0,0.0,120.0,15.0,0.0
10454,69.0,0.0,120.0,3.0,0.0
10455,74.0,0.0,120.0,3.0,0.0
10456,74.0,0.0,120.0,11.0,0.0
10457,78.0,0.0,120.0,0.0,0.0
10458,75.0,0.0,120.0,0.0,0.0
10459,59.0,0.0,120.0,15.0,0.0
10460,68.0,0.0,480.0,1.0,0.0
10461,61.0,0.0,480.0,1.0,0.0
10462,61.0,0.0,480.0,13.0,0.0
10463,78.0,0.0,240.0,4.0,0.0
10464,73.0,0.0,480.0,11.0,0.0
10465,49.0,0.0,120.0,14.0,0.0
10466,73.0,0.0,480.0,5.0,0.0
10467,73.0,0.0,120.0,2.0,0.0
10468,61.0,60.0,120.0,2.0,0.0
10469,78.0,0.0,240.0,0.0,0.0
10470,73.0,0.0,480.0,0.0,0.0
10471,68.0,0.0,480.0,12.0,0.0
10472,49.0,0.0,240.0,8.0,0.0
10473,73.0,0.0,240.0,15.0,0.0
10474,61.0,0.0,480.0,3.0,0.0
10475,73.0,0.0,480.0,3.0,0.0
10476,78.0,0.0,240.0,15.0,0.0
10477,68.0,0.0,480.0,3.0,0.0
10478,61.0,0.0,240.0,15.0,0.0
10479,78.0,120.0,240.0,10.0,0.0
10480,68.0,0.0,480.0,6.0,0.0
10481,68.0,0.0,240.0,15.0,0.0
10482,49.0,0.0,60.0,14.0,0.0
10483,61.0,0.0,60.0,2.0,0.0
10484,73.0,60.0,60.0,2.0,0.0
10485,73.0,0.0,60.0,2.0,0.0
10486,49.0,0.0,60.0,14.0,0.0
10487,61.0,0.0,60.0,2.0,0.0
10488,37.0,0.0,240.0,8.0,0.0
10489,61.0,0.0,120.0,2.0,0.0
10490,73.0,0.0,120.0,2.0,0.0
10491,61.0,0.0,240.0,15.0,0.0
10492,77.0,0.0,240.0,4.0,0.0
10493,77.0,0.0,240.0,0.0,0.0
10494,68.0,0.0,240.0,15.0,0.0
10495,77.0,0.0,240.0,10.0,0.0
10496,49.0,120.0,120.0,14.0,0.0
10497,77.0,0.0,240.0,15.0,0.0
10498,49.0,0.0,240.0,15.0,0.0
10499,49.0,0.0,120.0,14.0,0.0
10500,61.0,0.0,120.0,2.0,0.0
10501,73.0,480.0,120.0,2.0,0.0
10502,60.0,0.0,480.0,3.0,0.0
10503,66.0,0.0,480.0,2.0,0.0
10504,78.0,0.0,480.0,2.0,0.0
10505,54.0,0.0,480.0,14.0,0.0
10506,69.0,0.0,480.0,3.0,0.0
10507,69.0,0.0,480.0,1.0,0.0
10508,60.0,0.0,480.0,13.0,0.0
10509,78.0,0.0,480.0,0.0,0.0
10510,75.0,0.0,480.0,11.0,0.0
10511,78.0,0.0,480.0,4.0,0.0
10512,69.0,420.0,480.0,6.0,0.0
10513,60.0,0.0,480.0,1.0,0.0
10514,48.0,0.0,480.0,15.0,0.0
10515,75.0,0.0,480.0,15.0,0.0
10516,75.0,0.0,480.0,0.0,0.0
10517,69.0,0.0,480.0,15.0,0.0
10518,78.0,0.0,480.0,15.0,0.0
10519,75.0,0.0,480.0,5.0,0.0
10520,78.0,0.0,480.0,10.0,0.0
10521,69.0,0.0,480.0,12.0,0.0
10522,36.0,0.0,480.0,8.0,0.0
10523,75.0,0.0,480.0,3.0,0.0
10524,78.0,0.0,180.0,4.0,0.0
10525,75.0,0.0,240.0,15.0,0.0
10526,75.0,60.0,180.0,5.0,0.0
10527,60.0,0.0,240.0,15.0,0.0
10528,78.0,0.0,240.0,15.0,0.0
10529,78.0,0.0,180.0,10.0,0.0
10530,60.0,0.0,180.0,1.0,0.0
10531,75.0,0.0,180.0,3.0,0.0
10532,60.0,0.0,180.0,13.0,0.0
10533,69.0,0.0,180.0,3.0,0.0
10534,69.0,0.0,180.0,12.0,0.0
10535,75.0,0.0,180.0,11.0,0.0
10536,69.0,0.0,180.0,6.0,0.0
10537,60.0,0.0,180.0,3.0,0.0
10538,78.0,0.0,180.0,0.0,0.0
10539,75.0,0.0,180.0,0.0,0.0
10540,69.0,0.0,180.0,1.0,0.0
10541,69.0,0.0,240.0,15.0,0.0
10542,48.0,0.0,240.0,8.0,0.0
10543,69.0,0.0,60.0,1.0,0.0
10544,78.0,0.0,60.0,10.0,0.0
10545,69.0,0.0,60.0,12.0,0.0
10546,75.0,0.0,60.0,11.0,0.0
10547,75.0,240.0,60.0,5.0,0.0
10548,69.0,0.0,60.0,3.0,0.0
10549,75.0,0.0,60.0,3.0,0.0
10550,78.0,0.0,60.0,0.0,0.0
10551,60.0,0.0,60.0,13.0,0.0
10552,78.0,0.0,60.0,4.0,0.0
10553,69.0,0.0,60.0,6.0,0.0
10554,60.0,0.0,60.0,3.0,0.0
10555,60.0,0.0,60.0,1.0,0.0
10556,75.0,0.0,60.0,0.0,0.0
10557,49.0,0.0,240.0,14.0,0.0
10558,68.0,0.0,240.0,12.0,0.0
10559,73.0,0.0,720.0,11.0,0.0
10560,68.0,0.0,240.0,3.0,0.0
10561,61.0,0.0,240.0,13.0,0.0
10562,73.0,0.0,240.0,15.0,0.0
10563,77.0,0.0,240.0,15.0,0.0
10564,61.0,0.0,240.0,15.0,0.0
10565,68.0,0.0,240.0,15.0,0.0
10566,61.0,0.0,240.0,3.0,0.0
10567,77.0,0.0,240.0,4.0,0.0
10568,73.0,0.0,720.0,5.0,0.0
10569,61.0,0.0,240.0,1.0,0.0
10570,68.0,0.0,240.0,1.0,0.0
10571,68.0,120.0,240.0,6.0,0.0
10572,73.0,0.0,240.0,2.0,0.0
10573,61.0,0.0,240.0,2.0,0.0
10574,73.0,0.0,720.0,3.0,0.0
10575,77.0,0.0,240.0,10.0,0.0
10576,49.0,0.0,240.0,8.0,0.0
10577,77.0,0.0,240.0,0.0,0.0
10578,73.0,0.0,720.0,0.0,0.0
10579,78.0,0.0,240.0,15.0,0.0
10580,73.0,0.0,240.0,15.0,0.0
10581,57.0,120.0,120.0,15.0,0.0
10582,66.0,0.0,120.0,2.0,0.0
10583,57.0,0.0,120.0,3.0,0.0
10584,73.0,0.0,120.0,2.0,0.0
10585,69.0,0.0,480.0,3.0,0.0
10586,54.0,0.0,120.0,14.0,0.0
10587,78.0,0.0,480.0,10.0,0.0
10588,69.0,0.0,480.0,12.0,0.0
10589,45.0,0.0,120.0,8.0,0.0
10590,69.0,0.0,480.0,6.0,0.0
10591,57.0,0.0,120.0,13.0,0.0
10592,69.0,0.0,480.0,1.0,0.0
10593,78.0,0.0,480.0,0.0,0.0
10594,57.0,0.0,120.0,1.0,0.0
10595,78.0,0.0,480.0,4.0,0.0
10596,54.0,0.0,120.0,14.0,0.0
10597,54.0,0.0,120.0,13.0,0.0
10598,42.0,0.0,120.0,8.0,0.0
10599,54.0,0.0,120.0,1.0,0.0
10600,54.0,0.0,120.0,15.0,0.0
10601,66.0,0.0,120.0,2.0,0.0
10602,73.0,120.0,120.0,2.0,0.0
10603,54.0,0.0,120.0,3.0,0.0
10604,69.0,0.0,240.0,15.0,0.0
10605,49.0,0.0,240.0,15.0,0.0
10606,73.0,60.0,240.0,15.0,0.0
10607,78.0,0.0,240.0,15.0,0.0
10608,61.0,0.0,360.0,1.0,0.0
10609,49.0,60.0,120.0,14.0,0.0
10610,61.0,0.0,360.0,13.0,0.0
10611,37.0,0.0,240.0,8.0,0.0
10612,61.0,0.0,360.0,3.0,0.0
10613,73.0,0.0,240.0,2.0,0.0
10614,61.0,0.0,240.0,2.0,0.0
10615,49.0,60.0,60.0,14.0,0.0
10616,49.0,0.0,60.0,14.0,0.0
10617,37.0,0.0,240.0,8.0,0.0
10618,61.0,0.0,120.0,2.0,0.0
10619,68.0,0.0,240.0,6.0,0.0
10620,73.0,0.0,240.0,0.0,0.0
10621,77.0,0.0,240.0,0.0,0.0
10622,73.0,60.0,120.0,2.0,0.0
10623,77.0,0.0,240.0,10.0,0.0
10624,68.0,0.0,240.0,12.0,0.0
10625,73.0,0.0,240.0,15.0,0.0
10626,68.0,960.0,240.0,15.0,0.0
10627,77.0,0.0,240.0,15.0,0.0
10628,49.0,0.0,240.0,15.0,0.0
10629,68.0,0.0,240.0,3.0,0.0
10630,73.0,0.0,240.0,11.0,0.0
10631,77.0,0.0,240.0,4.0,0.0
10632,49.0,60.0,60.0,14.0,0.0
10633,73.0,0.0,240.0,3.0,0.0
10634,73.0,0.0,240.0,5.0,0.0
10635,68.0,0.0,240.0,1.0,0.0
10636,49.0,0.0,60.0,14.0,0.0
10637,61.0,0.0,120.0,1.0,0.0
10638,61.0,0.0,120.0,13.0,0.0
10639,61.0,0.0,120.0,3.0,0.0
10640,61.0,0.0,120.0,2.0,0.0
10641,73.0,0.0,120.0,2.0,0.0
10642,49.0,60.0,60.0,14.0,0.0
10643,49.0,0.0,60.0,14.0,0.0
10644,73.0,0.0,960.0,15.0,0.0
10645,54.0,0.0,960.0,15.0,0.0
10646,54.0,0.0,960.0,14.0,0.0
10647,73.0,0.0,960.0,3.0,0.0
10648,69.0,0.0,960.0,15.0,0.0
10649,78.0,0.0,960.0,4.0,0.0
10650,54.0,0.0,960.0,13.0,0.0
10651,42.0,0.0,960.0,8.0,0.0
10652,66.0,0.0,960.0,15.0,0.0
10653,73.0,0.0,960.0,5.0,0.0
10654,66.0,0.0,960.0,3.0,0.0
10655,73.0,0.0,960.0,0.0,0.0
10656,66.0,0.0,960.0,6.0,0.0
10657,66.0,0.0,960.0,1.0,0.0
10658,78.0,0.0,960.0,0.0,0.0
10659,78.0,0.0,960.0,15.0,0.0
10660,54.0,0.0,960.0,3.0,0.0
10661,73.0,0.0,960.0,11.0,0.0
10662,54.0,0.0,960.0,1.0,0.0
10663,78.0,0.0,960.0,10.0,0.0
10664,66.0,0.0,960.0,12.0,0.0
10665,73.0,0.0,960.0,2.0,0.0
10666,66.0,0.0,960.0,2.0,0.0
