,note,step,duration,channel,velocity
0,66.0,23.0,360.0,1.0,0.0
1,58.0,0.0,360.0,1.0,0.0
2,42.0,48.0,40.0,3.0,0.0
3,54.0,0.0,40.0,3.0,0.0
4,66.0,12.0,180.0,3.0,0.0
5,66.0,0.0,180.0,0.0,0.0
6,58.0,4.0,90.0,3.0,0.0
7,42.0,44.0,40.0,3.0,0.0
8,54.0,0.0,40.0,3.0,0.0
9,54.0,0.0,40.0,3.0,0.0
10,42.0,36.0,40.0,3.0,0.0
11,54.0,44.0,40.0,3.0,0.0
12,61.0,4.0,90.0,3.0,0.0
13,42.0,0.0,40.0,3.0,0.0
14,42.0,44.0,40.0,3.0,0.0
15,70.0,4.0,90.0,3.0,0.0
16,54.0,0.0,40.0,3.0,0.0
17,70.0,0.0,90.0,0.0,0.0
18,54.0,44.0,40.0,3.0,0.0
19,42.0,0.0,40.0,3.0,0.0
20,58.0,4.0,90.0,3.0,0.0
21,66.0,0.0,90.0,3.0,0.0
22,66.0,4.0,90.0,0.0,0.0
23,54.0,21.0,40.0,3.0,0.0
24,42.0,0.0,40.0,3.0,0.0
25,61.0,0.0,90.0,3.0,0.0
26,42.0,0.0,40.0,3.0,0.0
27,54.0,48.0,40.0,3.0,0.0
28,68.0,12.0,180.0,1.0,0.0
29,53.0,48.0,40.0,3.0,0.0
30,41.0,0.0,40.0,3.0,0.0
31,73.0,0.0,150.0,3.0,0.0
32,61.0,0.0,180.0,1.0,0.0
33,73.0,14.0,150.0,0.0,0.0
34,53.0,44.0,40.0,3.0,0.0
35,41.0,0.0,40.0,3.0,0.0
36,61.0,4.0,90.0,3.0,0.0
37,41.0,22.0,40.0,3.0,0.0
38,53.0,0.0,40.0,3.0,0.0
39,53.0,0.0,40.0,3.0,0.0
40,68.0,4.0,90.0,3.0,0.0
41,41.0,2.0,40.0,3.0,0.0
42,75.0,0.0,20.0,3.0,0.0
43,75.0,40.0,20.0,0.0,0.0
44,73.0,4.0,90.0,3.0,0.0
45,68.0,0.0,90.0,1.0,0.0
46,61.0,0.0,90.0,1.0,0.0
47,41.0,0.0,40.0,3.0,0.0
48,73.0,2.0,40.0,0.0,0.0
49,53.0,44.0,40.0,3.0,0.0
50,41.0,44.0,40.0,3.0,0.0
51,53.0,0.0,40.0,3.0,0.0
52,65.0,4.0,90.0,3.0,0.0
53,53.0,0.0,40.0,3.0,0.0
54,41.0,48.0,40.0,3.0,0.0
55,53.0,0.0,40.0,3.0,0.0
56,68.0,0.0,40.0,3.0,0.0
57,73.0,0.0,40.0,3.0,0.0
58,41.0,48.0,40.0,3.0,0.0
59,71.0,12.0,180.0,3.0,0.0
60,51.0,0.0,40.0,3.0,0.0
61,66.0,48.0,40.0,3.0,0.0
62,39.0,0.0,40.0,3.0,0.0
63,39.0,48.0,40.0,3.0,0.0
64,66.0,0.0,40.0,3.0,0.0
65,63.0,0.0,40.0,3.0,0.0
66,63.0,0.0,40.0,3.0,0.0
67,66.0,0.0,40.0,3.0,0.0
68,39.0,36.0,40.0,3.0,0.0
69,39.0,48.0,40.0,3.0,0.0
70,66.0,0.0,40.0,3.0,0.0
71,63.0,0.0,40.0,3.0,0.0
72,37.0,0.0,40.0,3.0,0.0
73,65.0,0.0,40.0,3.0,0.0
74,61.0,44.0,40.0,3.0,0.0
75,70.0,4.0,90.0,3.0,0.0
76,65.0,48.0,40.0,3.0,0.0
77,61.0,0.0,40.0,3.0,0.0
78,37.0,0.0,40.0,3.0,0.0
79,75.0,4.0,90.0,3.0,0.0
80,63.0,0.0,40.0,3.0,0.0
81,59.0,0.0,40.0,3.0,0.0
82,35.0,44.0,40.0,3.0,0.0
83,63.0,0.0,40.0,3.0,0.0
84,59.0,48.0,40.0,3.0,0.0
85,35.0,0.0,40.0,3.0,0.0
86,66.0,4.0,90.0,3.0,0.0
87,37.0,44.0,40.0,3.0,0.0
88,58.0,0.0,40.0,3.0,0.0
89,61.0,0.0,40.0,3.0,0.0
90,58.0,0.0,40.0,3.0,0.0
91,61.0,0.0,40.0,3.0,0.0
92,37.0,48.0,40.0,3.0,0.0
93,35.0,0.0,40.0,3.0,0.0
94,65.0,4.0,90.0,3.0,0.0
95,61.0,0.0,40.0,3.0,0.0
96,56.0,44.0,40.0,3.0,0.0
97,56.0,48.0,40.0,3.0,0.0
98,61.0,0.0,40.0,3.0,0.0
99,35.0,0.0,40.0,3.0,0.0
100,34.0,4.0,90.0,3.0,0.0
101,61.0,0.0,40.0,3.0,0.0
102,54.0,44.0,40.0,3.0,0.0
103,66.0,0.0,40.0,3.0,0.0
104,66.0,0.0,40.0,0.0,0.0
105,68.0,0.0,40.0,0.0,0.0
106,65.0,0.0,40.0,3.0,0.0
107,68.0,48.0,40.0,3.0,0.0
108,65.0,0.0,40.0,0.0,0.0
109,66.0,9.0,40.0,0.0,0.0
110,66.0,0.0,40.0,3.0,0.0
111,70.0,0.0,40.0,3.0,0.0
112,70.0,0.0,40.0,0.0,0.0
113,63.0,39.0,15.0,3.0,0.0
114,71.0,4.0,90.0,0.0,0.0
115,68.0,0.0,90.0,0.0,0.0
116,68.0,0.0,40.0,3.0,0.0
117,32.0,44.0,40.0,3.0,0.0
118,71.0,0.0,40.0,3.0,0.0
119,59.0,0.0,90.0,3.0,0.0
120,32.0,44.0,40.0,3.0,0.0
121,63.0,4.0,90.0,3.0,0.0
122,32.0,44.0,40.0,3.0,0.0
123,63.0,4.0,90.0,0.0,0.0
124,71.0,4.0,120.0,3.0,0.0
125,68.0,0.0,90.0,0.0,0.0
126,68.0,0.0,90.0,3.0,0.0
127,63.0,4.0,90.0,3.0,0.0
128,32.0,40.0,40.0,3.0,0.0
129,44.0,44.0,40.0,3.0,0.0
130,71.0,0.0,90.0,0.0,0.0
131,68.0,4.0,90.0,0.0,0.0
132,59.0,4.0,90.0,3.0,0.0
133,56.0,0.0,90.0,3.0,0.0
134,44.0,0.0,40.0,3.0,0.0
135,75.0,44.0,40.0,3.0,0.0
136,44.0,23.0,40.0,3.0,0.0
137,71.0,0.0,90.0,0.0,0.0
138,71.0,0.0,40.0,3.0,0.0
139,75.0,4.0,90.0,0.0,0.0
140,59.0,48.0,40.0,3.0,0.0
141,68.0,21.0,20.0,3.0,0.0
142,44.0,0.0,40.0,3.0,0.0
143,63.0,0.0,40.0,3.0,0.0
144,37.0,0.0,40.0,3.0,0.0
145,66.0,0.0,40.0,3.0,0.0
146,59.0,0.0,40.0,3.0,0.0
147,56.0,44.0,40.0,3.0,0.0
148,61.0,4.0,90.0,1.0,0.0
149,37.0,0.0,40.0,3.0,0.0
150,59.0,0.0,90.0,3.0,0.0
151,68.0,4.0,90.0,3.0,0.0
152,65.0,44.0,40.0,3.0,0.0
153,65.0,0.0,90.0,0.0,0.0
154,68.0,0.0,180.0,1.0,0.0
155,61.0,8.0,180.0,1.0,0.0
156,37.0,44.0,40.0,3.0,0.0
157,68.0,4.0,90.0,0.0,0.0
158,65.0,4.0,90.0,3.0,0.0
159,71.0,4.0,90.0,3.0,0.0
160,37.0,40.0,40.0,3.0,0.0
161,37.0,36.0,40.0,3.0,0.0
162,71.0,4.0,90.0,0.0,0.0
163,77.0,0.0,90.0,0.0,0.0
164,77.0,0.0,40.0,3.0,0.0
165,59.0,0.0,40.0,3.0,0.0
166,56.0,48.0,40.0,3.0,0.0
167,37.0,0.0,40.0,3.0,0.0
168,78.0,0.0,90.0,0.0,0.0
169,78.0,0.0,40.0,3.0,0.0
170,70.0,0.0,90.0,0.0,0.0
171,58.0,0.0,40.0,3.0,0.0
172,30.0,0.0,40.0,3.0,0.0
173,54.0,23.0,40.0,3.0,0.0
174,66.0,4.0,90.0,1.0,0.0
175,70.0,0.0,90.0,1.0,0.0
176,70.0,0.0,40.0,3.0,0.0
177,73.0,0.0,20.0,3.0,0.0
178,30.0,48.0,40.0,3.0,0.0
179,66.0,21.0,20.0,3.0,0.0
180,35.0,0.0,40.0,3.0,0.0
181,54.0,0.0,90.0,1.0,0.0
182,66.0,4.0,90.0,1.0,0.0
183,70.0,0.0,40.0,3.0,0.0
184,66.0,44.0,40.0,3.0,0.0
185,74.0,0.0,40.0,3.0,0.0
186,54.0,0.0,40.0,3.0,0.0
187,71.0,0.0,40.0,3.0,0.0
188,75.0,26.0,40.0,3.0,0.0
189,35.0,0.0,40.0,3.0,0.0
190,35.0,0.0,40.0,3.0,0.0
191,71.0,4.0,90.0,0.0,0.0
192,68.0,0.0,90.0,0.0,0.0
193,71.0,22.0,20.0,3.0,0.0
194,63.0,0.0,20.0,3.0,0.0
195,59.0,2.0,20.0,3.0,0.0
196,68.0,24.0,20.0,3.0,0.0
197,71.0,0.0,20.0,3.0,0.0
198,56.0,2.0,40.0,3.0,0.0
199,63.0,18.0,20.0,3.0,0.0
200,35.0,0.0,40.0,3.0,0.0
201,59.0,40.0,20.0,3.0,0.0
202,68.0,0.0,20.0,3.0,0.0
203,61.0,44.0,40.0,3.0,0.0
204,37.0,0.0,90.0,3.0,0.0
205,61.0,0.0,90.0,1.0,0.0
206,66.0,0.0,40.0,3.0,0.0
207,66.0,0.0,90.0,0.0,0.0
208,58.0,6.0,40.0,3.0,0.0
209,70.0,4.0,90.0,0.0,0.0
210,61.0,42.0,40.0,3.0,0.0
211,65.0,6.0,40.0,3.0,0.0
212,25.0,0.0,90.0,3.0,0.0
213,61.0,0.0,90.0,1.0,0.0
214,68.0,0.0,40.0,3.0,0.0
215,65.0,0.0,90.0,0.0,0.0
216,61.0,23.0,40.0,3.0,0.0
217,68.0,75.0,90.0,0.0,0.0
218,61.0,21.0,20.0,3.0,0.0
219,68.0,8.0,120.0,3.0,0.0
220,65.0,12.0,180.0,3.0,0.0
221,61.0,25.0,20.0,3.0,0.0
222,61.0,0.0,40.0,1.0,0.0
223,61.0,0.0,40.0,1.0,0.0
224,61.0,17.0,20.0,3.0,0.0
225,69.0,0.0,40.0,3.0,0.0
226,61.0,13.0,20.0,3.0,0.0
227,61.0,0.0,40.0,1.0,0.0
228,66.0,0.0,20.0,1.0,0.0
229,70.0,29.0,40.0,3.0,0.0
230,66.0,0.0,20.0,3.0,0.0
231,61.0,0.0,20.0,3.0,0.0
232,61.0,0.0,20.0,1.0,0.0
233,58.0,48.0,20.0,3.0,0.0
234,58.0,0.0,20.0,1.0,0.0
235,54.0,0.0,20.0,1.0,0.0
236,54.0,34.0,20.0,3.0,0.0
237,63.0,39.0,15.0,3.0,0.0
238,71.0,0.0,90.0,0.0,0.0
239,59.0,4.0,90.0,3.0,0.0
240,63.0,0.0,90.0,0.0,0.0
241,51.0,0.0,90.0,3.0,0.0
242,32.0,44.0,40.0,3.0,0.0
243,56.0,0.0,40.0,3.0,0.0
244,71.0,0.0,90.0,3.0,0.0
245,56.0,0.0,40.0,3.0,0.0
246,32.0,48.0,40.0,3.0,0.0
247,56.0,48.0,40.0,3.0,0.0
248,68.0,31.0,120.0,0.0,0.0
249,71.0,0.0,120.0,0.0,0.0
250,71.0,0.0,120.0,3.0,0.0
251,32.0,0.0,40.0,3.0,0.0
252,59.0,0.0,120.0,3.0,0.0
253,32.0,0.0,40.0,3.0,0.0
254,56.0,23.0,40.0,3.0,0.0
255,44.0,17.0,20.0,3.0,0.0
256,56.0,0.0,20.0,3.0,0.0
257,58.0,25.0,20.0,3.0,0.0
258,73.0,0.0,40.0,3.0,0.0
259,54.0,0.0,40.0,1.0,0.0
260,46.0,0.0,20.0,3.0,0.0
261,61.0,23.0,40.0,3.0,0.0
262,66.0,0.0,40.0,0.0,0.0
263,66.0,0.0,40.0,1.0,0.0
264,73.0,0.0,40.0,0.0,0.0
265,54.0,0.0,40.0,1.0,0.0
266,66.0,0.0,40.0,1.0,0.0
267,75.0,23.0,40.0,0.0,0.0
268,47.0,25.0,20.0,3.0,0.0
269,66.0,0.0,40.0,0.0,0.0
270,75.0,0.0,40.0,3.0,0.0
271,59.0,0.0,20.0,3.0,0.0
272,63.0,0.0,40.0,3.0,0.0
273,71.0,0.0,40.0,0.0,0.0
274,61.0,0.0,40.0,1.0,0.0
275,56.0,0.0,20.0,3.0,0.0
276,77.0,0.0,40.0,3.0,0.0
277,65.0,0.0,40.0,3.0,0.0
278,44.0,25.0,20.0,3.0,0.0
279,77.0,42.0,40.0,0.0,0.0
280,73.0,0.0,40.0,0.0,0.0
281,66.0,0.0,90.0,1.0,0.0
282,54.0,6.0,90.0,1.0,0.0
283,46.0,0.0,40.0,3.0,0.0
284,61.0,0.0,40.0,3.0,0.0
285,78.0,6.0,40.0,0.0,0.0
286,78.0,26.0,40.0,3.0,0.0
287,66.0,0.0,40.0,3.0,0.0
288,70.0,0.0,20.0,3.0,0.0
289,82.0,18.0,20.0,3.0,0.0
290,78.0,40.0,20.0,3.0,0.0
291,66.0,0.0,20.0,3.0,0.0
292,59.0,0.0,40.0,3.0,0.0
293,75.0,26.0,40.0,3.0,0.0
294,71.0,0.0,40.0,0.0,0.0
295,63.0,0.0,40.0,3.0,0.0
296,54.0,0.0,90.0,1.0,0.0
297,66.0,6.0,90.0,1.0,0.0
298,47.0,6.0,40.0,3.0,0.0
299,75.0,0.0,40.0,0.0,0.0
300,66.0,0.0,20.0,3.0,0.0
301,78.0,18.0,20.0,3.0,0.0
302,63.0,0.0,20.0,3.0,0.0
303,75.0,46.0,20.0,3.0,0.0
304,59.0,26.0,40.0,3.0,0.0
305,71.0,0.0,40.0,3.0,0.0
306,63.0,0.0,20.0,3.0,0.0
307,75.0,24.0,20.0,3.0,0.0
308,59.0,0.0,20.0,3.0,0.0
309,71.0,46.0,20.0,3.0,0.0
310,56.0,26.0,40.0,3.0,0.0
311,68.0,0.0,40.0,3.0,0.0
312,71.0,0.0,20.0,3.0,0.0
313,59.0,24.0,20.0,3.0,0.0
314,68.0,46.0,20.0,3.0,0.0
315,56.0,0.0,20.0,3.0,0.0
316,73.0,44.0,40.0,3.0,0.0
317,54.0,0.0,90.0,3.0,0.0
318,34.0,4.0,90.0,3.0,0.0
319,72.0,48.0,40.0,3.0,0.0
320,63.0,0.0,180.0,3.0,0.0
321,66.0,3.0,180.0,3.0,0.0
322,39.0,4.0,90.0,3.0,0.0
323,71.0,44.0,40.0,3.0,0.0
324,70.0,15.0,40.0,3.0,0.0
325,35.0,7.0,90.0,3.0,0.0
326,68.0,12.0,15.0,3.0,0.0
327,70.0,12.0,15.0,3.0,0.0
328,68.0,12.0,15.0,3.0,0.0
329,70.0,12.0,15.0,3.0,0.0
330,68.0,12.0,15.0,3.0,0.0
331,70.0,9.0,15.0,3.0,0.0
332,68.0,5.0,15.0,3.0,0.0
333,70.0,12.0,15.0,3.0,0.0
334,65.0,4.0,90.0,3.0,0.0
335,61.0,3.0,40.0,3.0,0.0
336,37.0,0.0,90.0,3.0,0.0
337,68.0,12.0,15.0,3.0,0.0
338,70.0,12.0,15.0,3.0,0.0
339,68.0,9.0,15.0,3.0,0.0
340,70.0,12.0,15.0,3.0,0.0
341,68.0,12.0,15.0,3.0,0.0
342,59.0,26.0,40.0,3.0,0.0
343,70.0,9.0,15.0,3.0,0.0
344,68.0,8.0,15.0,3.0,0.0
345,30.0,2.0,40.0,3.0,0.0
346,54.0,0.0,1020.0,1.0,0.0
347,66.0,0.0,90.0,0.0,0.0
348,78.0,20.0,660.0,0.0,0.0
349,66.0,22.0,20.0,3.0,0.0
350,66.0,8.0,1020.0,1.0,0.0
351,61.0,24.0,20.0,3.0,0.0
352,58.0,18.0,20.0,3.0,0.0
353,30.0,2.0,40.0,3.0,0.0
354,61.0,21.0,20.0,3.0,0.0
355,70.0,0.0,20.0,0.0,0.0
356,70.0,25.0,20.0,3.0,0.0
357,30.0,23.0,40.0,3.0,0.0
358,54.0,0.0,20.0,3.0,0.0
359,54.0,0.0,20.0,3.0,0.0
360,30.0,48.0,40.0,3.0,0.0
361,70.0,25.0,20.0,0.0,0.0
362,70.0,0.0,20.0,3.0,0.0
363,30.0,48.0,40.0,3.0,0.0
364,55.0,0.0,40.0,3.0,0.0
365,70.0,0.0,40.0,0.0,0.0
366,70.0,0.0,40.0,3.0,0.0
367,71.0,0.0,40.0,3.0,0.0
368,56.0,0.0,40.0,3.0,0.0
369,30.0,23.0,40.0,3.0,0.0
370,71.0,0.0,40.0,0.0,0.0
371,71.0,0.0,20.0,0.0,0.0
372,71.0,25.0,20.0,3.0,0.0
373,30.0,23.0,40.0,3.0,0.0
374,56.0,0.0,20.0,3.0,0.0
375,71.0,0.0,20.0,0.0,0.0
376,30.0,48.0,40.0,3.0,0.0
377,56.0,0.0,20.0,3.0,0.0
378,71.0,25.0,20.0,3.0,0.0
379,30.0,0.0,40.0,3.0,0.0
380,57.0,0.0,40.0,3.0,0.0
381,72.0,0.0,40.0,3.0,0.0
382,72.0,0.0,40.0,0.0,0.0
383,73.0,0.0,40.0,0.0,0.0
384,30.0,0.0,40.0,3.0,0.0
385,58.0,0.0,40.0,3.0,0.0
386,73.0,23.0,40.0,3.0,0.0
387,73.0,0.0,20.0,3.0,0.0
388,58.0,0.0,20.0,3.0,0.0
389,73.0,25.0,20.0,0.0,0.0
390,30.0,23.0,40.0,3.0,0.0
391,73.0,0.0,20.0,0.0,0.0
392,58.0,0.0,20.0,3.0,0.0
393,73.0,0.0,20.0,3.0,0.0
394,30.0,48.0,40.0,3.0,0.0
395,30.0,28.0,40.0,3.0,0.0
396,74.0,0.0,40.0,0.0,0.0
397,58.0,0.0,40.0,3.0,0.0
398,74.0,0.0,40.0,3.0,0.0
399,75.0,0.0,40.0,3.0,0.0
400,30.0,0.0,40.0,3.0,0.0
401,59.0,0.0,40.0,3.0,0.0
402,75.0,0.0,40.0,0.0,0.0
403,75.0,0.0,40.0,3.0,0.0
404,30.0,0.0,40.0,3.0,0.0
405,59.0,0.0,40.0,3.0,0.0
406,75.0,0.0,40.0,0.0,0.0
407,71.0,4.0,90.0,0.0,0.0
408,77.0,23.0,40.0,3.0,0.0
409,56.0,0.0,40.0,3.0,0.0
410,30.0,0.0,40.0,3.0,0.0
411,77.0,0.0,40.0,0.0,0.0
412,78.0,4.0,90.0,0.0,0.0
413,30.0,0.0,40.0,3.0,0.0
414,78.0,44.0,40.0,3.0,0.0
415,58.0,25.0,20.0,3.0,0.0
416,70.0,0.0,40.0,0.0,0.0
417,76.0,0.0,40.0,3.0,0.0
418,58.0,44.0,40.0,3.0,0.0
419,66.0,4.0,90.0,3.0,0.0
420,37.0,0.0,40.0,3.0,0.0
421,76.0,0.0,40.0,0.0,0.0
422,35.0,23.0,40.0,3.0,0.0
423,75.0,0.0,40.0,3.0,0.0
424,75.0,0.0,40.0,0.0,0.0
425,59.0,0.0,40.0,3.0,0.0
426,66.0,1.0,180.0,0.0,0.0
427,66.0,4.0,90.0,3.0,0.0
428,54.0,25.0,20.0,3.0,0.0
429,34.0,0.0,40.0,3.0,0.0
430,74.0,0.0,40.0,0.0,0.0
431,74.0,26.0,40.0,3.0,0.0
432,35.0,2.0,40.0,3.0,0.0
433,75.0,4.0,90.0,0.0,0.0
434,75.0,18.0,20.0,3.0,0.0
435,54.0,0.0,40.0,3.0,0.0
436,73.0,11.0,20.0,3.0,0.0
437,63.0,4.0,90.0,3.0,0.0
438,59.0,0.0,40.0,3.0,0.0
439,35.0,26.0,40.0,3.0,0.0
440,71.0,15.0,15.0,3.0,0.0
441,70.0,7.0,15.0,3.0,0.0
442,66.0,0.0,90.0,1.0,0.0
443,66.0,0.0,90.0,0.0,0.0
444,60.0,0.0,40.0,3.0,0.0
445,68.0,18.0,20.0,3.0,0.0
446,63.0,4.0,90.0,0.0,0.0
447,36.0,2.0,40.0,3.0,0.0
448,68.0,0.0,90.0,1.0,0.0
449,66.0,11.0,20.0,3.0,0.0
450,56.0,0.0,40.0,3.0,0.0
451,36.0,48.0,40.0,3.0,0.0
452,63.0,0.0,40.0,3.0,0.0
453,65.0,24.0,15.0,3.0,0.0
454,66.0,7.0,15.0,3.0,0.0
455,65.0,44.0,40.0,3.0,0.0
456,37.0,4.0,90.0,3.0,0.0
457,61.0,0.0,40.0,0.0,0.0
458,56.0,0.0,40.0,3.0,0.0
459,65.0,0.0,40.0,0.0,0.0
460,61.0,0.0,40.0,1.0,0.0
461,68.0,0.0,40.0,1.0,0.0
462,61.0,0.0,40.0,3.0,0.0
463,77.0,0.0,90.0,3.0,0.0
464,68.0,4.0,90.0,3.0,0.0
465,77.0,0.0,90.0,0.0,0.0
466,71.0,0.0,90.0,3.0,0.0
467,61.0,44.0,40.0,1.0,0.0
468,71.0,0.0,90.0,0.0,0.0
469,61.0,48.0,40.0,1.0,0.0
470,61.0,44.0,40.0,1.0,0.0
471,66.0,0.0,90.0,3.0,0.0
472,78.0,13.0,90.0,0.0,0.0
473,70.0,0.0,90.0,3.0,0.0
474,70.0,0.0,90.0,0.0,0.0
475,78.0,0.0,90.0,3.0,0.0
476,61.0,0.0,240.0,1.0,0.0
477,75.0,14.0,15.0,3.0,0.0
478,54.0,25.0,20.0,3.0,0.0
479,49.0,0.0,40.0,3.0,0.0
480,70.0,9.0,40.0,3.0,0.0
481,70.0,0.0,40.0,0.0,0.0
482,73.0,0.0,40.0,0.0,0.0
483,73.0,0.0,40.0,3.0,0.0
484,73.0,0.0,40.0,3.0,0.0
485,75.0,0.0,15.0,0.0,0.0
486,71.0,0.0,15.0,0.0,0.0
487,58.0,25.0,20.0,3.0,0.0
488,71.0,14.0,15.0,3.0,0.0
489,49.0,0.0,40.0,3.0,0.0
490,70.0,23.0,40.0,0.0,0.0
491,73.0,0.0,40.0,0.0,0.0
492,70.0,0.0,40.0,3.0,0.0
493,61.0,3.0,20.0,3.0,0.0
494,49.0,2.0,40.0,3.0,0.0
495,71.0,0.0,20.0,0.0,0.0
496,68.0,0.0,20.0,3.0,0.0
497,71.0,22.0,20.0,3.0,0.0
498,68.0,0.0,20.0,0.0,0.0
499,70.0,0.0,20.0,0.0,0.0
500,70.0,0.0,20.0,3.0,0.0
501,66.0,46.0,20.0,3.0,0.0
502,66.0,0.0,20.0,0.0,0.0
503,68.0,44.0,40.0,0.0,0.0
504,65.0,0.0,40.0,0.0,0.0
505,49.0,0.0,40.0,3.0,0.0
506,65.0,0.0,40.0,3.0,0.0
507,37.0,4.0,90.0,3.0,0.0
508,68.0,0.0,40.0,3.0,0.0
509,68.0,0.0,90.0,3.0,0.0
510,71.0,0.0,90.0,0.0,0.0
511,77.0,4.0,90.0,0.0,0.0
512,71.0,0.0,90.0,3.0,0.0
513,61.0,44.0,40.0,1.0,0.0
514,77.0,0.0,90.0,3.0,0.0
515,61.0,48.0,40.0,1.0,0.0
516,70.0,0.0,90.0,0.0,0.0
517,78.0,0.0,90.0,0.0,0.0
518,66.0,0.0,90.0,3.0,0.0
519,61.0,44.0,40.0,1.0,0.0
520,70.0,0.0,90.0,3.0,0.0
521,78.0,13.0,90.0,3.0,0.0
522,61.0,0.0,270.0,1.0,0.0
523,70.0,0.0,40.0,3.0,0.0
524,75.0,0.0,15.0,0.0,0.0
525,73.0,9.0,40.0,3.0,0.0
526,54.0,25.0,20.0,3.0,0.0
527,49.0,0.0,40.0,3.0,0.0
528,71.0,14.0,15.0,0.0,0.0
529,73.0,0.0,40.0,0.0,0.0
530,70.0,0.0,40.0,0.0,0.0
531,73.0,0.0,40.0,3.0,0.0
532,49.0,0.0,40.0,3.0,0.0
533,70.0,0.0,40.0,0.0,0.0
534,58.0,25.0,20.0,3.0,0.0
535,71.0,14.0,15.0,3.0,0.0
536,73.0,23.0,40.0,0.0,0.0
537,70.0,0.0,40.0,3.0,0.0
538,71.0,22.0,20.0,0.0,0.0
539,68.0,0.0,20.0,0.0,0.0
540,71.0,0.0,20.0,3.0,0.0
541,68.0,0.0,20.0,3.0,0.0
542,61.0,3.0,20.0,3.0,0.0
543,49.0,2.0,40.0,3.0,0.0
544,66.0,0.0,20.0,0.0,0.0
545,70.0,0.0,20.0,0.0,0.0
546,70.0,90.0,20.0,3.0,0.0
547,66.0,0.0,20.0,3.0,0.0
548,65.0,0.0,90.0,3.0,0.0
549,68.0,140.0,90.0,0.0,0.0
550,37.0,0.0,90.0,3.0,0.0
551,68.0,0.0,90.0,3.0,0.0
552,65.0,0.0,90.0,0.0,0.0
553,49.0,0.0,90.0,3.0,0.0
554,61.0,56.0,120.0,3.0,0.0
555,53.0,44.0,120.0,3.0,0.0
556,35.0,12.0,180.0,3.0,0.0
557,47.0,0.0,180.0,3.0,0.0
558,63.0,40.0,40.0,3.0,0.0
559,61.0,48.0,150.0,3.0,0.0
560,56.0,48.0,40.0,3.0,0.0
561,34.0,0.0,180.0,3.0,0.0
562,46.0,12.0,180.0,3.0,0.0
563,54.0,44.0,120.0,3.0,0.0
564,63.0,40.0,40.0,3.0,0.0
565,61.0,56.0,120.0,3.0,0.0
566,58.0,40.0,40.0,3.0,0.0
567,29.0,12.0,180.0,3.0,0.0
568,53.0,0.0,180.0,3.0,0.0
569,56.0,44.0,120.0,3.0,0.0
570,73.0,40.0,40.0,3.0,0.0
571,71.0,48.0,150.0,3.0,0.0
572,68.0,48.0,40.0,3.0,0.0
573,61.0,44.0,120.0,3.0,0.0
574,30.0,12.0,180.0,3.0,0.0
575,54.0,0.0,180.0,3.0,0.0
576,73.0,40.0,40.0,3.0,0.0
577,70.0,56.0,120.0,3.0,0.0
578,58.0,40.0,40.0,3.0,0.0
579,63.0,44.0,120.0,3.0,0.0
580,47.0,12.0,180.0,3.0,0.0
581,35.0,0.0,180.0,3.0,0.0
582,71.0,40.0,40.0,3.0,0.0
583,68.0,48.0,150.0,3.0,0.0
584,59.0,48.0,40.0,3.0,0.0
585,49.0,12.0,180.0,3.0,0.0
586,37.0,0.0,180.0,3.0,0.0
587,58.0,44.0,120.0,3.0,0.0
588,70.0,40.0,40.0,3.0,0.0
589,66.0,56.0,120.0,3.0,0.0
590,61.0,40.0,40.0,3.0,0.0
591,59.0,44.0,120.0,3.0,0.0
592,37.0,8.0,180.0,3.0,0.0
593,49.0,0.0,180.0,3.0,0.0
594,68.0,40.0,40.0,3.0,0.0
595,65.0,4.0,90.0,3.0,0.0
596,56.0,13.0,40.0,3.0,0.0
597,49.0,13.0,40.0,3.0,0.0
598,30.0,0.0,40.0,3.0,0.0
599,58.0,10.0,15.0,3.0,0.0
600,66.0,14.0,20.0,3.0,0.0
601,61.0,11.0,15.0,3.0,0.0
602,58.0,24.0,15.0,3.0,0.0
603,61.0,24.0,15.0,3.0,0.0
604,58.0,24.0,15.0,3.0,0.0
605,66.0,13.0,40.0,3.0,0.0
606,61.0,11.0,15.0,3.0,0.0
607,58.0,24.0,15.0,3.0,0.0
608,65.0,13.0,40.0,3.0,0.0
609,61.0,11.0,15.0,3.0,0.0
610,53.0,13.0,40.0,3.0,0.0
611,58.0,10.0,15.0,3.0,0.0
612,68.0,14.0,20.0,3.0,0.0
613,37.0,0.0,40.0,3.0,0.0
614,61.0,11.0,15.0,3.0,0.0
615,58.0,24.0,15.0,3.0,0.0
616,61.0,24.0,15.0,3.0,0.0
617,68.0,13.0,40.0,3.0,0.0
618,58.0,24.0,15.0,3.0,0.0
619,61.0,11.0,15.0,3.0,0.0
620,58.0,24.0,15.0,3.0,0.0
621,66.0,23.0,40.0,3.0,0.0
622,61.0,11.0,15.0,3.0,0.0
623,70.0,3.0,20.0,3.0,0.0
624,54.0,0.0,40.0,3.0,0.0
625,58.0,22.0,20.0,3.0,0.0
626,42.0,2.0,40.0,3.0,0.0
627,61.0,24.0,20.0,3.0,0.0
628,58.0,24.0,20.0,3.0,0.0
629,61.0,24.0,20.0,3.0,0.0
630,70.0,2.0,40.0,3.0,0.0
631,54.0,22.0,20.0,3.0,0.0
632,61.0,24.0,20.0,3.0,0.0
633,68.0,2.0,40.0,3.0,0.0
634,54.0,22.0,20.0,3.0,0.0
635,61.0,21.0,20.0,3.0,0.0
636,41.0,0.0,40.0,3.0,0.0
637,80.0,0.0,180.0,0.0,0.0
638,71.0,3.0,20.0,3.0,0.0
639,61.0,0.0,180.0,1.0,0.0
640,68.0,0.0,180.0,1.0,0.0
641,71.0,12.0,180.0,0.0,0.0
642,56.0,22.0,20.0,3.0,0.0
643,65.0,2.0,40.0,3.0,0.0
644,61.0,21.0,20.0,3.0,0.0
645,65.0,2.0,40.0,3.0,0.0
646,41.0,0.0,40.0,3.0,0.0
647,56.0,22.0,20.0,3.0,0.0
648,71.0,3.0,20.0,3.0,0.0
649,61.0,7.0,20.0,3.0,0.0
650,73.0,17.0,15.0,3.0,0.0
651,65.0,0.0,40.0,3.0,0.0
652,41.0,0.0,40.0,3.0,0.0
653,56.0,22.0,20.0,3.0,0.0
654,71.0,2.0,40.0,3.0,0.0
655,61.0,24.0,20.0,3.0,0.0
656,70.0,0.0,20.0,3.0,0.0
657,65.0,2.0,40.0,3.0,0.0
658,59.0,10.0,20.0,3.0,0.0
659,41.0,0.0,40.0,3.0,0.0
660,61.0,21.0,20.0,3.0,0.0
661,68.0,0.0,20.0,3.0,0.0
662,66.0,3.0,20.0,3.0,0.0
663,66.0,2.0,40.0,1.0,0.0
664,54.0,0.0,40.0,1.0,0.0
665,70.0,0.0,40.0,0.0,0.0
666,42.0,0.0,40.0,3.0,0.0
667,78.0,0.0,40.0,0.0,0.0
668,58.0,22.0,20.0,3.0,0.0
669,61.0,24.0,20.0,3.0,0.0
670,58.0,24.0,20.0,3.0,0.0
671,61.0,24.0,20.0,3.0,0.0
672,66.0,0.0,20.0,3.0,0.0
673,58.0,24.0,20.0,3.0,0.0
674,65.0,0.0,20.0,3.0,0.0
675,61.0,24.0,20.0,3.0,0.0
676,66.0,0.0,20.0,3.0,0.0
677,58.0,24.0,20.0,3.0,0.0
678,65.0,21.0,20.0,3.0,0.0
679,61.0,0.0,20.0,3.0,0.0
680,53.0,0.0,40.0,3.0,0.0
681,59.0,22.0,20.0,3.0,0.0
682,37.0,2.0,40.0,3.0,0.0
683,68.0,3.0,20.0,3.0,0.0
684,61.0,24.0,20.0,3.0,0.0
685,59.0,24.0,20.0,3.0,0.0
686,61.0,24.0,20.0,3.0,0.0
687,68.0,0.0,20.0,3.0,0.0
688,59.0,24.0,20.0,3.0,0.0
689,61.0,0.0,20.0,3.0,0.0
690,66.0,24.0,20.0,3.0,0.0
691,59.0,0.0,20.0,3.0,0.0
692,68.0,24.0,20.0,3.0,0.0
693,66.0,21.0,20.0,3.0,0.0
694,61.0,0.0,20.0,3.0,0.0
695,30.0,2.0,40.0,3.0,0.0
696,54.0,0.0,40.0,3.0,0.0
697,58.0,22.0,20.0,3.0,0.0
698,70.0,3.0,20.0,3.0,0.0
699,61.0,24.0,20.0,3.0,0.0
700,58.0,24.0,20.0,3.0,0.0
701,61.0,24.0,20.0,3.0,0.0
702,70.0,0.0,20.0,3.0,0.0
703,54.0,24.0,20.0,3.0,0.0
704,68.0,0.0,20.0,3.0,0.0
705,61.0,24.0,20.0,3.0,0.0
706,70.0,0.0,20.0,3.0,0.0
707,54.0,24.0,20.0,3.0,0.0
708,68.0,24.0,20.0,3.0,0.0
709,61.0,0.0,20.0,3.0,0.0
710,71.0,2.0,40.0,3.0,0.0
711,80.0,0.0,180.0,0.0,0.0
712,71.0,0.0,180.0,0.0,0.0
713,56.0,22.0,20.0,3.0,0.0
714,65.0,0.0,40.0,3.0,0.0
715,61.0,45.0,180.0,1.0,0.0
716,68.0,0.0,180.0,1.0,0.0
717,41.0,0.0,40.0,3.0,0.0
718,61.0,24.0,20.0,3.0,0.0
719,71.0,0.0,40.0,3.0,0.0
720,56.0,22.0,20.0,3.0,0.0
721,41.0,0.0,40.0,3.0,0.0
722,65.0,2.0,40.0,3.0,0.0
723,61.0,7.0,20.0,3.0,0.0
724,73.0,17.0,15.0,3.0,0.0
725,56.0,22.0,20.0,3.0,0.0
726,65.0,2.0,40.0,3.0,0.0
727,41.0,0.0,40.0,3.0,0.0
728,71.0,0.0,40.0,3.0,0.0
729,61.0,24.0,20.0,3.0,0.0
730,59.0,0.0,20.0,3.0,0.0
731,70.0,22.0,20.0,3.0,0.0
732,65.0,2.0,40.0,3.0,0.0
733,41.0,0.0,40.0,3.0,0.0
734,61.0,1.0,20.0,3.0,0.0
735,68.0,0.0,20.0,3.0,0.0
736,70.0,0.0,40.0,0.0,0.0
737,78.0,0.0,40.0,0.0,0.0
738,42.0,0.0,40.0,3.0,0.0
739,54.0,0.0,40.0,1.0,0.0
740,66.0,0.0,40.0,3.0,0.0
741,66.0,96.0,40.0,1.0,0.0
742,58.0,0.0,40.0,3.0,0.0
743,66.0,0.0,40.0,3.0,0.0
744,78.0,48.0,40.0,3.0,0.0
745,76.0,0.0,40.0,3.0,0.0
746,64.0,48.0,40.0,3.0,0.0
747,62.0,48.0,40.0,3.0,0.0
748,74.0,0.0,40.0,3.0,0.0
749,75.0,48.0,40.0,3.0,0.0
750,63.0,0.0,40.0,3.0,0.0
751,60.0,0.0,40.0,3.0,0.0
752,72.0,48.0,40.0,3.0,0.0
753,73.0,0.0,40.0,3.0,0.0
754,61.0,48.0,40.0,3.0,0.0
755,58.0,48.0,40.0,3.0,0.0
756,70.0,0.0,40.0,3.0,0.0
757,71.0,0.0,40.0,3.0,0.0
758,59.0,48.0,40.0,3.0,0.0
759,57.0,0.0,40.0,3.0,0.0
760,69.0,48.0,40.0,3.0,0.0
761,58.0,0.0,40.0,3.0,0.0
762,70.0,48.0,40.0,3.0,0.0
763,37.0,0.0,40.0,3.0,0.0
764,64.0,0.0,40.0,3.0,0.0
765,76.0,0.0,40.0,0.0,0.0
766,79.0,0.0,40.0,0.0,0.0
767,58.0,0.0,40.0,3.0,0.0
768,67.0,48.0,40.0,3.0,0.0
769,69.0,0.0,40.0,3.0,0.0
770,35.0,0.0,40.0,3.0,0.0
771,59.0,0.0,40.0,3.0,0.0
772,75.0,0.0,40.0,0.0,0.0
773,63.0,0.0,40.0,3.0,0.0
774,80.0,48.0,40.0,0.0,0.0
775,74.0,48.0,40.0,3.0,0.0
776,75.0,48.0,40.0,3.0,0.0
777,56.0,0.0,40.0,3.0,0.0
778,77.0,0.0,40.0,0.0,0.0
779,62.0,48.0,40.0,3.0,0.0
780,74.0,0.0,40.0,0.0,0.0
781,65.0,0.0,40.0,3.0,0.0
782,35.0,0.0,40.0,3.0,0.0
783,78.0,0.0,40.0,0.0,0.0
784,58.0,0.0,40.0,3.0,0.0
785,34.0,48.0,40.0,3.0,0.0
786,66.0,0.0,40.0,3.0,0.0
787,61.0,0.0,40.0,3.0,0.0
788,73.0,0.0,40.0,0.0,0.0
789,72.0,48.0,40.0,3.0,0.0
790,73.0,42.0,40.0,3.0,0.0
791,66.0,0.0,60.0,3.0,0.0
792,78.0,28.0,40.0,0.0,0.0
793,66.0,0.0,40.0,1.0,0.0
794,42.0,0.0,60.0,3.0,0.0
795,66.0,0.0,40.0,0.0,0.0
796,54.0,0.0,40.0,1.0,0.0
797,78.0,0.0,60.0,3.0,0.0
798,78.0,40.0,20.0,3.0,0.0
799,66.0,0.0,20.0,3.0,0.0
800,42.0,0.0,20.0,3.0,0.0
801,70.0,0.0,60.0,3.0,0.0
802,70.0,0.0,40.0,0.0,0.0
803,46.0,28.0,60.0,3.0,0.0
804,82.0,0.0,60.0,3.0,0.0
805,58.0,0.0,40.0,1.0,0.0
806,70.0,0.0,40.0,1.0,0.0
807,82.0,28.0,40.0,0.0,0.0
808,46.0,0.0,20.0,3.0,0.0
809,82.0,0.0,20.0,3.0,0.0
810,70.0,0.0,20.0,3.0,0.0
811,73.0,0.0,90.0,1.0,0.0
812,49.0,0.0,90.0,3.0,0.0
813,61.0,0.0,90.0,1.0,0.0
814,73.0,0.0,90.0,3.0,0.0
815,73.0,0.0,90.0,0.0,0.0
816,61.0,74.0,90.0,3.0,0.0
817,70.0,0.0,60.0,1.0,0.0
818,58.0,0.0,60.0,1.0,0.0
819,70.0,0.0,60.0,3.0,0.0
820,70.0,0.0,60.0,0.0,0.0
821,46.0,0.0,60.0,3.0,0.0
822,58.0,0.0,60.0,3.0,0.0
823,42.0,0.0,20.0,3.0,0.0
824,66.0,0.0,20.0,3.0,0.0
825,54.0,0.0,20.0,1.0,0.0
826,66.0,0.0,20.0,1.0,0.0
827,54.0,0.0,20.0,3.0,0.0
828,66.0,0.0,20.0,0.0,0.0
829,61.0,0.0,90.0,3.0,0.0
830,73.0,0.0,90.0,3.0,0.0
831,73.0,0.0,90.0,1.0,0.0
832,73.0,0.0,90.0,0.0,0.0
833,61.0,0.0,90.0,1.0,0.0
834,49.0,0.0,90.0,3.0,0.0
835,61.0,0.0,90.0,1.0,0.0
836,37.0,0.0,90.0,3.0,0.0
837,61.0,0.0,90.0,3.0,0.0
838,49.0,0.0,90.0,3.0,0.0
839,49.0,96.0,90.0,1.0,0.0
840,61.0,0.0,90.0,0.0,0.0
841,66.0,0.0,90.0,1.0,0.0
842,58.0,0.0,90.0,3.0,0.0
843,66.0,0.0,90.0,3.0,0.0
844,54.0,0.0,90.0,3.0,0.0
845,42.0,0.0,90.0,3.0,0.0
846,54.0,0.0,90.0,1.0,0.0
847,66.0,0.0,90.0,0.0,0.0
848,66.0,0.0,120.0,3.0,0.0
849,58.0,21.0,120.0,3.0,0.0
850,61.0,1.0,180.0,3.0,0.0
851,37.0,0.0,180.0,3.0,0.0
852,61.0,0.0,180.0,1.0,0.0
853,56.0,24.0,15.0,3.0,0.0
854,65.0,0.0,15.0,3.0,0.0
855,58.0,24.0,15.0,3.0,0.0
856,66.0,0.0,15.0,3.0,0.0
857,59.0,13.0,15.0,3.0,0.0
858,68.0,11.0,20.0,3.0,0.0
859,71.0,96.0,90.0,0.0,0.0
860,65.0,0.0,90.0,0.0,0.0
861,65.0,11.0,20.0,3.0,0.0
862,56.0,13.0,15.0,3.0,0.0
863,59.0,0.0,15.0,3.0,0.0
864,68.0,23.0,15.0,3.0,0.0
865,56.0,7.0,15.0,3.0,0.0
866,65.0,0.0,15.0,3.0,0.0
867,66.0,0.0,90.0,3.0,0.0
868,66.0,0.0,90.0,1.0,0.0
869,32.0,0.0,90.0,3.0,0.0
870,70.0,0.0,90.0,0.0,0.0
871,54.0,0.0,90.0,3.0,0.0
872,58.0,0.0,90.0,1.0,0.0
873,58.0,140.0,90.0,3.0,0.0
874,66.0,0.0,90.0,0.0,0.0
875,70.0,0.0,120.0,3.0,0.0
876,58.0,21.0,120.0,3.0,0.0
877,61.0,0.0,180.0,1.0,0.0
878,39.0,0.0,180.0,3.0,0.0
879,61.0,0.0,40.0,3.0,0.0
880,68.0,24.0,15.0,3.0,0.0
881,65.0,0.0,15.0,3.0,0.0
882,66.0,24.0,15.0,3.0,0.0
883,70.0,0.0,15.0,3.0,0.0
884,68.0,13.0,15.0,3.0,0.0
885,71.0,46.0,90.0,0.0,0.0
886,71.0,11.0,20.0,3.0,0.0
887,77.0,0.0,90.0,0.0,0.0
888,68.0,11.0,20.0,3.0,0.0
889,65.0,13.0,15.0,3.0,0.0
890,68.0,23.0,15.0,3.0,0.0
891,71.0,0.0,15.0,3.0,0.0
892,68.0,0.0,15.0,3.0,0.0
893,65.0,7.0,15.0,3.0,0.0
894,78.0,46.0,90.0,0.0,0.0
895,66.0,0.0,90.0,1.0,0.0
896,42.0,0.0,40.0,3.0,0.0
897,70.0,0.0,90.0,0.0,0.0
898,66.0,50.0,40.0,3.0,0.0
899,66.0,46.0,90.0,3.0,0.0
900,70.0,0.0,40.0,3.0,0.0
901,73.0,0.0,40.0,0.0,0.0
902,73.0,0.0,90.0,3.0,0.0
903,61.0,0.0,40.0,1.0,0.0
904,61.0,0.0,40.0,3.0,0.0
905,37.0,0.0,40.0,3.0,0.0
906,70.0,0.0,40.0,0.0,0.0
907,34.0,0.0,40.0,3.0,0.0
908,78.0,0.0,40.0,3.0,0.0
909,73.0,0.0,40.0,0.0,0.0
910,78.0,96.0,40.0,0.0,0.0
911,70.0,0.0,40.0,3.0,0.0
912,58.0,0.0,40.0,3.0,0.0
913,66.0,0.0,40.0,3.0,0.0
914,58.0,0.0,40.0,1.0,0.0
915,73.0,0.0,40.0,3.0,0.0
916,82.0,0.0,40.0,0.0,0.0
917,30.0,0.0,40.0,3.0,0.0
918,70.0,0.0,40.0,3.0,0.0
919,78.0,67.0,40.0,0.0,0.0
920,82.0,0.0,40.0,3.0,0.0
921,73.0,0.0,40.0,3.0,0.0
922,54.0,0.0,40.0,1.0,0.0
923,54.0,0.0,40.0,3.0,0.0
924,78.0,0.0,40.0,3.0,0.0
925,70.0,17.0,90.0,0.0,0.0
926,58.0,0.0,90.0,3.0,0.0
927,54.0,24.0,15.0,3.0,0.0
928,42.0,13.0,40.0,3.0,0.0
929,63.0,0.0,90.0,3.0,0.0
930,61.0,11.0,15.0,3.0,0.0
931,54.0,24.0,15.0,3.0,0.0
932,73.0,4.0,90.0,0.0,0.0
933,61.0,7.0,15.0,3.0,0.0
934,53.0,13.0,15.0,3.0,0.0
935,61.0,0.0,40.0,1.0,0.0
936,59.0,0.0,90.0,3.0,0.0
937,71.0,4.0,90.0,0.0,0.0
938,68.0,0.0,40.0,1.0,0.0
939,37.0,2.0,40.0,3.0,0.0
940,65.0,11.0,20.0,3.0,0.0
941,61.0,7.0,15.0,3.0,0.0
942,68.0,11.0,20.0,3.0,0.0
943,66.0,11.0,20.0,3.0,0.0
944,53.0,13.0,15.0,3.0,0.0
945,77.0,2.0,40.0,0.0,0.0
946,61.0,7.0,15.0,3.0,0.0
947,65.0,11.0,20.0,3.0,0.0
948,70.0,0.0,90.0,0.0,0.0
949,42.0,0.0,40.0,3.0,0.0
950,63.0,0.0,90.0,3.0,0.0
951,78.0,0.0,40.0,0.0,0.0
952,66.0,0.0,40.0,1.0,0.0
953,58.0,17.0,90.0,3.0,0.0
954,70.0,13.0,40.0,1.0,0.0
955,54.0,24.0,15.0,3.0,0.0
956,61.0,11.0,15.0,3.0,0.0
957,73.0,4.0,90.0,0.0,0.0
958,54.0,24.0,15.0,3.0,0.0
959,61.0,7.0,15.0,3.0,0.0
960,53.0,13.0,15.0,3.0,0.0
961,71.0,0.0,90.0,0.0,0.0
962,37.0,2.0,40.0,3.0,0.0
963,59.0,4.0,90.0,3.0,0.0
964,61.0,0.0,40.0,1.0,0.0
965,68.0,0.0,40.0,1.0,0.0
966,65.0,11.0,20.0,3.0,0.0
967,61.0,7.0,15.0,3.0,0.0
968,68.0,11.0,20.0,3.0,0.0
969,53.0,13.0,15.0,3.0,0.0
970,77.0,2.0,40.0,0.0,0.0
971,66.0,11.0,20.0,3.0,0.0
972,61.0,7.0,15.0,3.0,0.0
973,65.0,11.0,20.0,3.0,0.0
974,54.0,10.0,15.0,3.0,0.0
975,58.0,0.0,90.0,3.0,0.0
976,66.0,14.0,20.0,3.0,0.0
977,58.0,0.0,40.0,1.0,0.0
978,66.0,13.0,40.0,1.0,0.0
979,70.0,17.0,90.0,0.0,0.0
980,42.0,0.0,40.0,3.0,0.0
981,78.0,0.0,40.0,0.0,0.0
982,61.0,11.0,15.0,3.0,0.0
983,73.0,4.0,90.0,0.0,0.0
984,54.0,10.0,15.0,3.0,0.0
985,66.0,14.0,20.0,3.0,0.0
986,61.0,7.0,15.0,3.0,0.0
987,68.0,11.0,20.0,3.0,0.0
988,59.0,0.0,90.0,3.0,0.0
989,53.0,13.0,15.0,3.0,0.0
990,71.0,4.0,90.0,0.0,0.0
991,37.0,0.0,40.0,3.0,0.0
992,68.0,0.0,40.0,1.0,0.0
993,61.0,2.0,40.0,1.0,0.0
994,71.0,11.0,20.0,3.0,0.0
995,61.0,7.0,15.0,3.0,0.0
996,70.0,11.0,20.0,3.0,0.0
997,77.0,2.0,40.0,0.0,0.0
998,53.0,13.0,15.0,3.0,0.0
999,61.0,7.0,15.0,3.0,0.0
1000,68.0,46.0,20.0,3.0,0.0
1001,66.0,126.0,90.0,3.0,0.0
1002,30.0,0.0,90.0,3.0,0.0
1003,78.0,0.0,90.0,0.0,0.0
1004,58.0,0.0,90.0,3.0,0.0
1005,70.0,0.0,90.0,0.0,0.0
1006,58.0,0.0,40.0,1.0,0.0
1007,54.0,0.0,90.0,3.0,0.0
1008,66.0,44.0,40.0,1.0,0.0
1009,66.0,14.0,180.0,2.0,0.0
1010,54.0,24.0,20.0,2.0,0.0
1011,61.0,24.0,20.0,2.0,0.0
1012,58.0,24.0,20.0,2.0,0.0
1013,61.0,24.0,20.0,2.0,0.0
1014,54.0,24.0,20.0,2.0,0.0
1015,61.0,24.0,20.0,2.0,0.0
1016,58.0,10.0,20.0,2.0,0.0
1017,61.0,24.0,20.0,2.0,0.0
1018,54.0,24.0,20.0,2.0,0.0
1019,70.0,6.0,90.0,2.0,0.0
1020,61.0,24.0,20.0,2.0,0.0
1021,58.0,18.0,20.0,2.0,0.0
1022,61.0,24.0,20.0,2.0,0.0
1023,54.0,24.0,20.0,2.0,0.0
1024,66.0,6.0,90.0,2.0,0.0
1025,61.0,24.0,20.0,2.0,0.0
1026,58.0,18.0,20.0,2.0,0.0
1027,61.0,24.0,20.0,2.0,0.0
1028,53.0,24.0,20.0,2.0,0.0
1029,73.0,4.0,150.0,2.0,0.0
1030,61.0,24.0,20.0,2.0,0.0
1031,56.0,24.0,20.0,2.0,0.0
1032,61.0,24.0,20.0,2.0,0.0
1033,53.0,24.0,20.0,2.0,0.0
1034,61.0,20.0,20.0,2.0,0.0
1035,56.0,24.0,20.0,2.0,0.0
1036,75.0,24.0,20.0,2.0,0.0
1037,61.0,0.0,20.0,2.0,0.0
1038,53.0,24.0,20.0,2.0,0.0
1039,73.0,6.0,90.0,2.0,0.0
1040,61.0,24.0,20.0,2.0,0.0
1041,56.0,18.0,20.0,2.0,0.0
1042,61.0,24.0,20.0,2.0,0.0
1043,53.0,24.0,20.0,2.0,0.0
1044,61.0,24.0,20.0,2.0,0.0
1045,73.0,2.0,40.0,2.0,0.0
1046,56.0,22.0,20.0,2.0,0.0
1047,61.0,24.0,20.0,2.0,0.0
1048,71.0,14.0,180.0,2.0,0.0
1049,51.0,24.0,20.0,2.0,0.0
1050,59.0,24.0,20.0,2.0,0.0
1051,54.0,24.0,20.0,2.0,0.0
1052,59.0,24.0,20.0,2.0,0.0
1053,51.0,24.0,20.0,2.0,0.0
1054,59.0,24.0,20.0,2.0,0.0
1055,54.0,10.0,20.0,2.0,0.0
1056,59.0,24.0,20.0,2.0,0.0
1057,49.0,24.0,20.0,2.0,0.0
1058,70.0,6.0,90.0,2.0,0.0
1059,58.0,24.0,20.0,2.0,0.0
1060,53.0,18.0,20.0,2.0,0.0
1061,58.0,24.0,20.0,2.0,0.0
1062,47.0,16.0,20.0,2.0,0.0
1063,75.0,8.0,40.0,2.0,0.0
1064,56.0,24.0,20.0,2.0,0.0
1065,51.0,24.0,20.0,2.0,0.0
1066,56.0,24.0,20.0,2.0,0.0
1067,49.0,24.0,20.0,2.0,0.0
1068,70.0,6.0,90.0,2.0,0.0
1069,58.0,24.0,20.0,2.0,0.0
1070,54.0,18.0,20.0,2.0,0.0
1071,58.0,13.0,20.0,2.0,0.0
1072,47.0,1.0,20.0,2.0,0.0
1073,68.0,11.0,15.0,2.0,0.0
1074,70.0,12.0,15.0,2.0,0.0
1075,56.0,1.0,20.0,2.0,0.0
1076,68.0,11.0,15.0,2.0,0.0
1077,70.0,12.0,15.0,2.0,0.0
1078,49.0,1.0,20.0,2.0,0.0
1079,68.0,11.0,15.0,2.0,0.0
1080,70.0,12.0,15.0,2.0,0.0
1081,56.0,21.0,20.0,2.0,0.0
1082,68.0,5.0,15.0,2.0,0.0
1083,70.0,6.0,15.0,2.0,0.0
1084,66.0,69.0,20.0,2.0,0.0
1085,46.0,4.0,90.0,2.0,0.0
1086,66.0,0.0,40.0,2.0,0.0
1087,66.0,0.0,40.0,3.0,0.0
1088,68.0,0.0,40.0,2.0,0.0
1089,65.0,0.0,40.0,3.0,0.0
1090,68.0,48.0,40.0,3.0,0.0
1091,66.0,0.0,40.0,3.0,0.0
1092,70.0,0.0,40.0,2.0,0.0
1093,70.0,9.0,40.0,3.0,0.0
1094,44.0,22.0,20.0,2.0,0.0
1095,32.0,6.0,90.0,3.0,0.0
1096,63.0,0.0,90.0,3.0,0.0
1097,68.0,2.0,40.0,3.0,0.0
1098,71.0,0.0,40.0,3.0,0.0
1099,68.0,17.0,15.0,2.0,0.0
1100,71.0,0.0,90.0,2.0,0.0
1101,56.0,24.0,20.0,2.0,0.0
1102,55.0,18.0,20.0,2.0,0.0
1103,56.0,24.0,20.0,2.0,0.0
1104,71.0,8.0,120.0,2.0,0.0
1105,63.0,0.0,40.0,3.0,0.0
1106,58.0,22.0,20.0,2.0,0.0
1107,59.0,2.0,40.0,3.0,0.0
1108,56.0,24.0,20.0,2.0,0.0
1109,55.0,24.0,20.0,2.0,0.0
1110,56.0,24.0,20.0,2.0,0.0
1111,63.0,0.0,40.0,3.0,0.0
1112,44.0,14.0,20.0,2.0,0.0
1113,68.0,2.0,40.0,3.0,0.0
1114,59.0,0.0,90.0,3.0,0.0
1115,35.0,4.0,90.0,3.0,0.0
1116,56.0,24.0,20.0,2.0,0.0
1117,75.0,2.0,40.0,2.0,0.0
1118,55.0,18.0,20.0,2.0,0.0
1119,56.0,24.0,20.0,2.0,0.0
1120,58.0,22.0,20.0,2.0,0.0
1121,71.0,0.0,40.0,2.0,0.0
1122,75.0,0.0,40.0,3.0,0.0
1123,68.0,2.0,40.0,3.0,0.0
1124,56.0,24.0,20.0,2.0,0.0
1125,55.0,22.0,20.0,2.0,0.0
1126,68.0,2.0,40.0,2.0,0.0
1127,56.0,24.0,20.0,2.0,0.0
1128,49.0,2.0,40.0,2.0,0.0
1129,37.0,0.0,40.0,3.0,0.0
1130,66.0,22.0,20.0,2.0,0.0
1131,65.0,24.0,20.0,2.0,0.0
1132,70.0,22.0,20.0,2.0,0.0
1133,61.0,4.0,90.0,3.0,0.0
1134,65.0,0.0,90.0,3.0,0.0
1135,53.0,2.0,40.0,2.0,0.0
1136,56.0,0.0,90.0,3.0,0.0
1137,68.0,24.0,20.0,2.0,0.0
1138,66.0,18.0,20.0,2.0,0.0
1139,35.0,0.0,40.0,3.0,0.0
1140,47.0,2.0,40.0,2.0,0.0
1141,65.0,24.0,20.0,2.0,0.0
1142,56.0,0.0,40.0,3.0,0.0
1143,56.0,2.0,40.0,2.0,0.0
1144,65.0,0.0,40.0,3.0,0.0
1145,63.0,22.0,20.0,2.0,0.0
1146,61.0,0.0,40.0,3.0,0.0
1147,61.0,24.0,20.0,2.0,0.0
1148,46.0,2.0,40.0,2.0,0.0
1149,34.0,4.0,90.0,3.0,0.0
1150,66.0,22.0,20.0,2.0,0.0
1151,68.0,24.0,20.0,2.0,0.0
1152,49.0,2.0,40.0,2.0,0.0
1153,70.0,18.0,20.0,2.0,0.0
1154,61.0,4.0,90.0,3.0,0.0
1155,66.0,0.0,90.0,3.0,0.0
1156,58.0,0.0,90.0,3.0,0.0
1157,71.0,24.0,20.0,2.0,0.0
1158,54.0,2.0,40.0,2.0,0.0
1159,73.0,18.0,20.0,2.0,0.0
1160,75.0,24.0,20.0,2.0,0.0
1161,66.0,0.0,40.0,3.0,0.0
1162,58.0,0.0,40.0,3.0,0.0
1163,77.0,22.0,20.0,2.0,0.0
1164,46.0,2.0,40.0,2.0,0.0
1165,61.0,0.0,40.0,3.0,0.0
1166,78.0,24.0,20.0,2.0,0.0
1167,47.0,2.0,40.0,2.0,0.0
1168,74.0,22.0,20.0,2.0,0.0
1169,35.0,4.0,90.0,3.0,0.0
1170,75.0,24.0,20.0,2.0,0.0
1171,68.0,0.0,40.0,3.0,0.0
1172,70.0,18.0,20.0,2.0,0.0
1173,51.0,4.0,90.0,3.0,0.0
1174,51.0,0.0,40.0,2.0,0.0
1175,59.0,2.0,40.0,3.0,0.0
1176,71.0,24.0,20.0,2.0,0.0
1177,67.0,18.0,20.0,2.0,0.0
1178,56.0,0.0,40.0,2.0,0.0
1179,71.0,0.0,40.0,3.0,0.0
1180,63.0,2.0,40.0,3.0,0.0
1181,68.0,24.0,20.0,2.0,0.0
1182,59.0,0.0,40.0,3.0,0.0
1183,68.0,0.0,40.0,3.0,0.0
1184,47.0,2.0,40.0,2.0,0.0
1185,63.0,0.0,40.0,3.0,0.0
1186,71.0,22.0,20.0,2.0,0.0
1187,68.0,40.0,20.0,2.0,0.0
1188,58.0,0.0,40.0,3.0,0.0
1189,66.0,6.0,40.0,3.0,0.0
1190,49.0,44.0,40.0,2.0,0.0
1191,61.0,0.0,90.0,3.0,0.0
1192,66.0,0.0,90.0,2.0,0.0
1193,37.0,4.0,90.0,3.0,0.0
1194,58.0,42.0,40.0,2.0,0.0
1195,68.0,6.0,40.0,3.0,0.0
1196,49.0,44.0,40.0,2.0,0.0
1197,49.0,4.0,90.0,3.0,0.0
1198,65.0,0.0,40.0,3.0,0.0
1199,68.0,0.0,90.0,2.0,0.0
1200,53.0,71.0,40.0,2.0,0.0
1201,65.0,12.0,180.0,2.0,0.0
1202,68.0,31.0,120.0,2.0,0.0
1203,61.0,0.0,20.0,3.0,0.0
1204,61.0,0.0,20.0,2.0,0.0
1205,61.0,17.0,20.0,2.0,0.0
1206,61.0,0.0,20.0,3.0,0.0
1207,69.0,23.0,40.0,2.0,0.0
1208,61.0,0.0,20.0,3.0,0.0
1209,61.0,0.0,20.0,2.0,0.0
1210,66.0,48.0,20.0,2.0,0.0
1211,70.0,27.0,90.0,2.0,0.0
1212,66.0,0.0,20.0,3.0,0.0
1213,61.0,0.0,20.0,3.0,0.0
1214,61.0,0.0,20.0,2.0,0.0
1215,58.0,48.0,20.0,2.0,0.0
1216,58.0,0.0,20.0,3.0,0.0
1217,54.0,34.0,20.0,2.0,0.0
1218,54.0,0.0,20.0,3.0,0.0
1219,44.0,24.0,20.0,2.0,0.0
1220,56.0,0.0,90.0,3.0,0.0
1221,32.0,0.0,90.0,3.0,0.0
1222,68.0,14.0,15.0,2.0,0.0
1223,71.0,0.0,20.0,3.0,0.0
1224,63.0,3.0,20.0,3.0,0.0
1225,71.0,6.0,90.0,2.0,0.0
1226,56.0,24.0,20.0,2.0,0.0
1227,55.0,18.0,20.0,2.0,0.0
1228,56.0,21.0,20.0,2.0,0.0
1229,63.0,3.0,20.0,3.0,0.0
1230,71.0,10.0,120.0,2.0,0.0
1231,58.0,24.0,20.0,2.0,0.0
1232,59.0,0.0,20.0,3.0,0.0
1233,56.0,24.0,20.0,2.0,0.0
1234,55.0,24.0,20.0,2.0,0.0
1235,56.0,21.0,20.0,2.0,0.0
1236,47.0,14.0,20.0,2.0,0.0
1237,35.0,0.0,90.0,3.0,0.0
1238,68.0,3.0,20.0,3.0,0.0
1239,63.0,0.0,20.0,3.0,0.0
1240,59.0,4.0,90.0,3.0,0.0
1241,56.0,24.0,20.0,2.0,0.0
1242,75.0,2.0,40.0,2.0,0.0
1243,55.0,18.0,20.0,2.0,0.0
1244,56.0,21.0,20.0,2.0,0.0
1245,71.0,0.0,20.0,3.0,0.0
1246,75.0,3.0,20.0,3.0,0.0
1247,58.0,24.0,20.0,2.0,0.0
1248,73.0,0.0,20.0,2.0,0.0
1249,56.0,11.0,20.0,2.0,0.0
1250,71.0,0.0,20.0,2.0,0.0
1251,70.0,13.0,15.0,2.0,0.0
1252,55.0,11.0,20.0,2.0,0.0
1253,68.0,13.0,15.0,2.0,0.0
1254,56.0,24.0,20.0,2.0,0.0
1255,49.0,0.0,40.0,2.0,0.0
1256,66.0,22.0,20.0,2.0,0.0
1257,37.0,2.0,40.0,3.0,0.0
1258,65.0,24.0,20.0,2.0,0.0
1259,82.0,22.0,20.0,2.0,0.0
1260,61.0,0.0,90.0,3.0,0.0
1261,56.0,4.0,90.0,3.0,0.0
1262,65.0,0.0,90.0,3.0,0.0
1263,53.0,2.0,40.0,2.0,0.0
1264,80.0,24.0,20.0,2.0,0.0
1265,78.0,18.0,20.0,2.0,0.0
1266,35.0,2.0,40.0,3.0,0.0
1267,47.0,0.0,40.0,2.0,0.0
1268,77.0,24.0,20.0,2.0,0.0
1269,61.0,2.0,40.0,3.0,0.0
1270,56.0,0.0,40.0,3.0,0.0
1271,75.0,22.0,20.0,2.0,0.0
1272,56.0,0.0,40.0,2.0,0.0
1273,65.0,0.0,40.0,3.0,0.0
1274,73.0,24.0,20.0,2.0,0.0
1275,34.0,4.0,90.0,3.0,0.0
1276,77.0,22.0,20.0,2.0,0.0
1277,46.0,2.0,40.0,2.0,0.0
1278,78.0,24.0,20.0,2.0,0.0
1279,61.0,2.0,40.0,3.0,0.0
1280,80.0,18.0,20.0,2.0,0.0
1281,66.0,0.0,90.0,3.0,0.0
1282,54.0,0.0,40.0,2.0,0.0
1283,58.0,4.0,90.0,3.0,0.0
1284,78.0,24.0,20.0,2.0,0.0
1285,77.0,18.0,20.0,2.0,0.0
1286,51.0,0.0,40.0,2.0,0.0
1287,39.0,4.0,90.0,3.0,0.0
1288,63.0,2.0,40.0,3.0,0.0
1289,75.0,24.0,20.0,2.0,0.0
1290,54.0,0.0,40.0,2.0,0.0
1291,59.0,2.0,40.0,3.0,0.0
1292,66.0,0.0,90.0,3.0,0.0
1293,73.0,18.0,20.0,2.0,0.0
1294,51.0,0.0,40.0,3.0,0.0
1295,71.0,24.0,20.0,2.0,0.0
1296,70.0,22.0,20.0,2.0,0.0
1297,37.0,0.0,40.0,3.0,0.0
1298,49.0,0.0,40.0,3.0,0.0
1299,61.0,0.0,40.0,3.0,0.0
1300,49.0,2.0,40.0,2.0,0.0
1301,71.0,24.0,20.0,2.0,0.0
1302,70.0,4.0,90.0,3.0,0.0
1303,58.0,2.0,40.0,2.0,0.0
1304,66.0,0.0,90.0,3.0,0.0
1305,73.0,22.0,20.0,2.0,0.0
1306,75.0,24.0,20.0,2.0,0.0
1307,37.0,2.0,40.0,3.0,0.0
1308,54.0,0.0,40.0,2.0,0.0
1309,61.0,0.0,40.0,3.0,0.0
1310,73.0,18.0,20.0,2.0,0.0
1311,75.0,24.0,20.0,2.0,0.0
1312,58.0,0.0,40.0,2.0,0.0
1313,77.0,22.0,20.0,2.0,0.0
1314,73.0,2.0,40.0,3.0,0.0
1315,70.0,0.0,40.0,3.0,0.0
1316,78.0,13.0,20.0,2.0,0.0
1317,68.0,0.0,40.0,3.0,0.0
1318,49.0,0.0,40.0,2.0,0.0
1319,37.0,0.0,40.0,3.0,0.0
1320,61.0,3.0,40.0,3.0,0.0
1321,68.0,12.0,15.0,2.0,0.0
1322,71.0,0.0,40.0,3.0,0.0
1323,70.0,12.0,15.0,2.0,0.0
1324,68.0,9.0,15.0,2.0,0.0
1325,70.0,12.0,15.0,2.0,0.0
1326,68.0,4.0,90.0,3.0,0.0
1327,68.0,12.0,15.0,2.0,0.0
1328,59.0,3.0,40.0,2.0,0.0
1329,59.0,0.0,90.0,3.0,0.0
1330,70.0,12.0,15.0,2.0,0.0
1331,68.0,9.0,15.0,2.0,0.0
1332,70.0,12.0,15.0,2.0,0.0
1333,53.0,0.0,40.0,2.0,0.0
1334,37.0,0.0,40.0,3.0,0.0
1335,61.0,3.0,40.0,3.0,0.0
1336,68.0,12.0,15.0,2.0,0.0
1337,70.0,12.0,15.0,2.0,0.0
1338,68.0,5.0,15.0,2.0,0.0
1339,70.0,12.0,15.0,2.0,0.0
1340,56.0,0.0,40.0,3.0,0.0
1341,68.0,12.0,15.0,2.0,0.0
1342,65.0,92.0,40.0,3.0,0.0
1343,59.0,0.0,40.0,2.0,0.0
1344,70.0,9.0,15.0,2.0,0.0
1345,68.0,12.0,15.0,2.0,0.0
1346,66.0,0.0,90.0,3.0,0.0
1347,54.0,0.0,90.0,2.0,0.0
1348,58.0,0.0,90.0,2.0,0.0
1349,42.0,0.0,90.0,3.0,0.0
1350,66.0,0.0,90.0,2.0,0.0
1351,58.0,0.0,90.0,3.0,0.0
1352,61.0,140.0,90.0,3.0,0.0
1353,66.0,0.0,120.0,3.0,0.0
1354,58.0,21.0,120.0,3.0,0.0
1355,61.0,1.0,180.0,3.0,0.0
1356,37.0,0.0,180.0,3.0,0.0
1357,61.0,0.0,180.0,1.0,0.0
1358,65.0,0.0,15.0,3.0,0.0
1359,56.0,24.0,15.0,3.0,0.0
1360,66.0,0.0,15.0,3.0,0.0
1361,58.0,37.0,15.0,3.0,0.0
1362,59.0,0.0,20.0,3.0,0.0
1363,65.0,0.0,90.0,0.0,0.0
1364,71.0,7.0,90.0,0.0,0.0
1365,68.0,24.0,20.0,3.0,0.0
1366,65.0,11.0,20.0,3.0,0.0
1367,56.0,0.0,20.0,3.0,0.0
1368,68.0,0.0,15.0,3.0,0.0
1369,59.0,23.0,15.0,3.0,0.0
1370,56.0,7.0,15.0,3.0,0.0
1371,65.0,0.0,15.0,3.0,0.0
1372,58.0,0.0,90.0,3.0,0.0
1373,30.0,0.0,90.0,3.0,0.0
1374,66.0,0.0,90.0,1.0,0.0
1375,66.0,0.0,90.0,0.0,0.0
1376,70.0,0.0,90.0,0.0,0.0
1377,58.0,0.0,90.0,1.0,0.0
1378,66.0,0.0,90.0,3.0,0.0
1379,58.0,0.0,120.0,3.0,0.0
1380,70.0,21.0,120.0,3.0,0.0
1381,61.0,0.0,180.0,1.0,0.0
1382,37.0,0.0,180.0,3.0,0.0
1383,61.0,0.0,180.0,3.0,0.0
1384,65.0,0.0,15.0,3.0,0.0
1385,68.0,24.0,15.0,3.0,0.0
1386,70.0,0.0,15.0,3.0,0.0
1387,66.0,37.0,15.0,3.0,0.0
1388,71.0,24.0,20.0,3.0,0.0
1389,68.0,0.0,20.0,3.0,0.0
1390,71.0,0.0,90.0,0.0,0.0
1391,77.0,52.0,90.0,0.0,0.0
1392,68.0,11.0,20.0,3.0,0.0
1393,65.0,0.0,20.0,3.0,0.0
1394,68.0,0.0,15.0,3.0,0.0
1395,71.0,23.0,15.0,3.0,0.0
1396,68.0,7.0,15.0,3.0,0.0
1397,65.0,0.0,15.0,3.0,0.0
1398,54.0,0.0,90.0,1.0,0.0
1399,42.0,0.0,90.0,3.0,0.0
1400,70.0,0.0,90.0,3.0,0.0
1401,66.0,0.0,90.0,3.0,0.0
1402,78.0,0.0,90.0,0.0,0.0
1403,54.0,0.0,90.0,3.0,0.0
1404,66.0,0.0,90.0,1.0,0.0
1405,70.0,4.0,90.0,0.0,0.0
1406,54.0,44.0,40.0,2.0,0.0
1407,70.0,0.0,40.0,2.0,0.0
1408,66.0,48.0,40.0,2.0,0.0
1409,73.0,8.0,120.0,2.0,0.0
1410,66.0,48.0,40.0,2.0,0.0
1411,70.0,0.0,40.0,2.0,0.0
1412,70.0,0.0,40.0,2.0,0.0
1413,66.0,40.0,40.0,2.0,0.0
1414,70.0,26.0,40.0,2.0,0.0
1415,66.0,0.0,40.0,2.0,0.0
1416,66.0,0.0,40.0,2.0,0.0
1417,70.0,2.0,40.0,2.0,0.0
1418,75.0,22.0,20.0,2.0,0.0
1419,77.0,7.0,20.0,2.0,0.0
1420,80.0,39.0,15.0,2.0,0.0
1421,70.0,0.0,40.0,2.0,0.0
1422,66.0,26.0,40.0,2.0,0.0
1423,78.0,0.0,40.0,2.0,0.0
1424,66.0,0.0,40.0,2.0,0.0
1425,70.0,2.0,40.0,2.0,0.0
1426,77.0,22.0,20.0,2.0,0.0
1427,75.0,13.0,20.0,2.0,0.0
1428,68.0,3.0,40.0,2.0,0.0
1429,66.0,0.0,40.0,2.0,0.0
1430,72.0,12.0,15.0,2.0,0.0
1431,73.0,12.0,15.0,2.0,0.0
1432,72.0,9.0,15.0,2.0,0.0
1433,73.0,12.0,15.0,2.0,0.0
1434,66.0,0.0,40.0,2.0,0.0
1435,68.0,3.0,40.0,2.0,0.0
1436,72.0,12.0,15.0,2.0,0.0
1437,73.0,12.0,15.0,2.0,0.0
1438,72.0,9.0,15.0,2.0,0.0
1439,73.0,12.0,15.0,2.0,0.0
1440,68.0,26.0,40.0,2.0,0.0
1441,72.0,12.0,15.0,2.0,0.0
1442,66.0,0.0,40.0,2.0,0.0
1443,73.0,12.0,15.0,2.0,0.0
1444,72.0,1.0,15.0,2.0,0.0
1445,73.0,8.0,15.0,2.0,0.0
1446,68.0,2.0,40.0,2.0,0.0
1447,73.0,22.0,20.0,2.0,0.0
1448,66.0,0.0,40.0,2.0,0.0
1449,75.0,46.0,20.0,2.0,0.0
1450,68.0,0.0,40.0,2.0,0.0
1451,65.0,44.0,40.0,2.0,0.0
1452,73.0,4.0,90.0,2.0,0.0
1453,65.0,0.0,40.0,2.0,0.0
1454,68.0,48.0,40.0,2.0,0.0
1455,65.0,0.0,40.0,2.0,0.0
1456,68.0,48.0,40.0,2.0,0.0
1457,73.0,48.0,40.0,2.0,0.0
1458,68.0,0.0,40.0,2.0,0.0
1459,65.0,0.0,40.0,2.0,0.0
1460,70.0,0.0,40.0,2.0,0.0
1461,80.0,0.0,40.0,2.0,0.0
1462,63.0,48.0,40.0,2.0,0.0
1463,70.0,48.0,40.0,2.0,0.0
1464,78.0,0.0,40.0,2.0,0.0
1465,63.0,0.0,40.0,2.0,0.0
1466,70.0,48.0,40.0,2.0,0.0
1467,63.0,0.0,40.0,2.0,0.0
1468,78.0,8.0,120.0,2.0,0.0
1469,70.0,40.0,40.0,2.0,0.0
1470,63.0,0.0,40.0,2.0,0.0
1471,63.0,15.0,40.0,2.0,0.0
1472,70.0,0.0,40.0,2.0,0.0
1473,63.0,0.0,40.0,2.0,0.0
1474,78.0,12.0,15.0,2.0,0.0
1475,70.0,48.0,40.0,2.0,0.0
1476,80.0,12.0,15.0,2.0,0.0
1477,78.0,9.0,15.0,2.0,0.0
1478,80.0,0.0,15.0,2.0,0.0
1479,80.0,48.0,40.0,2.0,0.0
1480,70.0,0.0,40.0,2.0,0.0
1481,61.0,0.0,40.0,2.0,0.0
1482,70.0,0.0,40.0,2.0,0.0
1483,61.0,0.0,40.0,2.0,0.0
1484,82.0,48.0,40.0,2.0,0.0
1485,80.0,8.0,120.0,2.0,0.0
1486,63.0,48.0,40.0,2.0,0.0
1487,60.0,0.0,40.0,2.0,0.0
1488,60.0,40.0,40.0,2.0,0.0
1489,63.0,0.0,40.0,2.0,0.0
1490,60.0,26.0,40.0,2.0,0.0
1491,63.0,0.0,40.0,2.0,0.0
1492,63.0,2.0,40.0,2.0,0.0
1493,60.0,0.0,40.0,2.0,0.0
1494,82.0,22.0,20.0,2.0,0.0
1495,78.0,46.0,20.0,2.0,0.0
1496,77.0,4.0,90.0,2.0,0.0
1497,68.0,0.0,40.0,2.0,0.0
1498,61.0,44.0,40.0,2.0,0.0
1499,61.0,48.0,40.0,2.0,0.0
1500,68.0,0.0,40.0,2.0,0.0
1501,61.0,0.0,40.0,2.0,0.0
1502,68.0,48.0,40.0,2.0,0.0
1503,61.0,26.0,40.0,2.0,0.0
1504,68.0,0.0,40.0,2.0,0.0
1505,77.0,0.0,40.0,2.0,0.0
1506,30.0,0.0,40.0,3.0,0.0
1507,63.0,2.0,40.0,3.0,0.0
1508,77.0,22.0,20.0,2.0,0.0
1509,61.0,0.0,40.0,3.0,0.0
1510,58.0,0.0,40.0,3.0,0.0
1511,54.0,0.0,40.0,2.0,0.0
1512,75.0,24.0,20.0,2.0,0.0
1513,61.0,2.0,40.0,2.0,0.0
1514,74.0,22.0,20.0,2.0,0.0
1515,75.0,24.0,20.0,2.0,0.0
1516,58.0,2.0,40.0,2.0,0.0
1517,74.0,22.0,20.0,2.0,0.0
1518,75.0,24.0,20.0,2.0,0.0
1519,61.0,2.0,40.0,2.0,0.0
1520,74.0,22.0,20.0,2.0,0.0
1521,75.0,24.0,20.0,2.0,0.0
1522,32.0,0.0,40.0,3.0,0.0
1523,61.0,2.0,40.0,3.0,0.0
1524,59.0,0.0,40.0,3.0,0.0
1525,65.0,4.0,90.0,3.0,0.0
1526,56.0,0.0,40.0,2.0,0.0
1527,78.0,22.0,20.0,2.0,0.0
1528,77.0,24.0,20.0,2.0,0.0
1529,61.0,2.0,40.0,2.0,0.0
1530,76.0,18.0,20.0,2.0,0.0
1531,77.0,24.0,20.0,2.0,0.0
1532,76.0,22.0,20.0,2.0,0.0
1533,59.0,2.0,40.0,2.0,0.0
1534,77.0,24.0,20.0,2.0,0.0
1535,76.0,22.0,20.0,2.0,0.0
1536,61.0,2.0,40.0,2.0,0.0
1537,77.0,24.0,20.0,2.0,0.0
1538,58.0,0.0,40.0,3.0,0.0
1539,58.0,0.0,40.0,2.0,0.0
1540,34.0,2.0,40.0,3.0,0.0
1541,66.0,0.0,40.0,3.0,0.0
1542,61.0,0.0,40.0,3.0,0.0
1543,80.0,22.0,20.0,2.0,0.0
1544,78.0,24.0,20.0,2.0,0.0
1545,61.0,2.0,40.0,2.0,0.0
1546,77.0,22.0,20.0,2.0,0.0
1547,78.0,24.0,20.0,2.0,0.0
1548,58.0,0.0,40.0,2.0,0.0
1549,58.0,2.0,40.0,3.0,0.0
1550,67.0,0.0,40.0,3.0,0.0
1551,61.0,0.0,40.0,3.0,0.0
1552,80.0,22.0,20.0,2.0,0.0
1553,79.0,24.0,20.0,2.0,0.0
1554,61.0,2.0,40.0,2.0,0.0
1555,77.0,22.0,20.0,2.0,0.0
1556,79.0,24.0,20.0,2.0,0.0
1557,68.0,0.0,40.0,3.0,0.0
1558,53.0,0.0,40.0,3.0,0.0
1559,41.0,0.0,40.0,3.0,0.0
1560,61.0,2.0,40.0,3.0,0.0
1561,80.0,22.0,20.0,2.0,0.0
1562,53.0,0.0,40.0,2.0,0.0
1563,78.0,24.0,20.0,2.0,0.0
1564,77.0,22.0,20.0,2.0,0.0
1565,61.0,2.0,40.0,2.0,0.0
1566,75.0,24.0,20.0,2.0,0.0
1567,68.0,0.0,40.0,3.0,0.0
1568,73.0,22.0,20.0,2.0,0.0
1569,53.0,2.0,40.0,2.0,0.0
1570,71.0,0.0,40.0,3.0,0.0
1571,61.0,0.0,40.0,3.0,0.0
1572,71.0,24.0,20.0,2.0,0.0
1573,70.0,22.0,20.0,2.0,0.0
1574,61.0,2.0,40.0,2.0,0.0
1575,71.0,46.0,20.0,2.0,0.0
1576,66.0,4.0,90.0,3.0,0.0
1577,61.0,0.0,90.0,2.0,0.0
1578,61.0,0.0,90.0,3.0,0.0
1579,42.0,0.0,90.0,3.0,0.0
1580,54.0,0.0,90.0,2.0,0.0
1581,70.0,0.0,90.0,3.0,0.0
1582,70.0,44.0,40.0,2.0,0.0
1583,81.0,48.0,40.0,2.0,0.0
1584,82.0,48.0,40.0,2.0,0.0
1585,74.0,48.0,40.0,2.0,0.0
1586,75.0,48.0,40.0,2.0,0.0
1587,78.0,48.0,40.0,2.0,0.0
1588,70.0,48.0,40.0,2.0,0.0
1589,75.0,92.0,40.0,2.0,0.0
1590,73.0,75.0,90.0,2.0,0.0
1591,72.0,4.0,90.0,2.0,0.0
1592,44.0,48.0,40.0,3.0,0.0
1593,68.0,0.0,20.0,3.0,0.0
1594,56.0,0.0,40.0,2.0,0.0
1595,43.0,0.0,40.0,3.0,0.0
1596,67.0,0.0,40.0,3.0,0.0
1597,55.0,48.0,40.0,2.0,0.0
1598,56.0,0.0,40.0,2.0,0.0
1599,44.0,48.0,40.0,3.0,0.0
1600,68.0,0.0,40.0,3.0,0.0
1601,55.0,48.0,40.0,2.0,0.0
1602,43.0,0.0,40.0,3.0,0.0
1603,67.0,0.0,40.0,3.0,0.0
1604,68.0,0.0,40.0,3.0,0.0
1605,44.0,0.0,40.0,3.0,0.0
1606,56.0,0.0,40.0,2.0,0.0
1607,56.0,0.0,90.0,2.0,0.0
1608,56.0,0.0,90.0,3.0,0.0
1609,32.0,6.0,90.0,3.0,0.0
1610,68.0,24.0,20.0,2.0,0.0
1611,67.0,18.0,20.0,2.0,0.0
1612,68.0,24.0,20.0,2.0,0.0
1613,70.0,24.0,20.0,2.0,0.0
1614,68.0,24.0,20.0,2.0,0.0
1615,72.0,22.0,20.0,2.0,0.0
1616,66.0,2.0,40.0,2.0,0.0
1617,68.0,24.0,20.0,2.0,0.0
1618,73.0,22.0,20.0,2.0,0.0
1619,65.0,2.0,40.0,2.0,0.0
1620,68.0,24.0,20.0,2.0,0.0
1621,60.0,2.0,40.0,2.0,0.0
1622,75.0,22.0,20.0,2.0,0.0
1623,68.0,24.0,20.0,2.0,0.0
1624,77.0,22.0,20.0,2.0,0.0
1625,61.0,2.0,40.0,2.0,0.0
1626,68.0,24.0,20.0,2.0,0.0
1627,78.0,22.0,20.0,2.0,0.0
1628,63.0,2.0,40.0,2.0,0.0
1629,68.0,24.0,20.0,2.0,0.0
1630,77.0,2.0,40.0,2.0,0.0
1631,61.0,22.0,20.0,2.0,0.0
1632,68.0,24.0,20.0,2.0,0.0
1633,67.0,24.0,20.0,2.0,0.0
1634,68.0,21.0,20.0,2.0,0.0
1635,66.0,24.0,20.0,2.0,0.0
1636,82.0,3.0,20.0,2.0,0.0
1637,68.0,21.0,20.0,2.0,0.0
1638,65.0,24.0,20.0,2.0,0.0
1639,80.0,3.0,20.0,2.0,0.0
1640,68.0,13.0,20.0,2.0,0.0
1641,63.0,1.0,20.0,2.0,0.0
1642,78.0,11.0,15.0,2.0,0.0
1643,80.0,12.0,15.0,2.0,0.0
1644,78.0,9.0,15.0,2.0,0.0
1645,68.0,24.0,20.0,2.0,0.0
1646,80.0,2.0,15.0,2.0,0.0
1647,61.0,22.0,20.0,2.0,0.0
1648,77.0,2.0,40.0,2.0,0.0
1649,68.0,13.0,20.0,2.0,0.0
1650,75.0,11.0,15.0,2.0,0.0
1651,60.0,1.0,20.0,2.0,0.0
1652,77.0,12.0,15.0,2.0,0.0
1653,75.0,9.0,15.0,2.0,0.0
1654,68.0,24.0,20.0,2.0,0.0
1655,77.0,2.0,15.0,2.0,0.0
1656,73.0,2.0,40.0,2.0,0.0
1657,58.0,22.0,20.0,2.0,0.0
1658,68.0,24.0,20.0,2.0,0.0
1659,72.0,24.0,20.0,2.0,0.0
1660,56.0,6.0,90.0,2.0,0.0
1661,68.0,24.0,20.0,2.0,0.0
1662,67.0,18.0,20.0,2.0,0.0
1663,68.0,24.0,20.0,2.0,0.0
1664,70.0,24.0,20.0,2.0,0.0
1665,68.0,24.0,20.0,2.0,0.0
1666,66.0,2.0,40.0,2.0,0.0
1667,72.0,22.0,20.0,2.0,0.0
1668,68.0,24.0,20.0,2.0,0.0
1669,73.0,22.0,20.0,2.0,0.0
1670,65.0,2.0,40.0,2.0,0.0
1671,68.0,24.0,20.0,2.0,0.0
1672,75.0,22.0,20.0,2.0,0.0
1673,60.0,2.0,40.0,2.0,0.0
1674,68.0,24.0,20.0,2.0,0.0
1675,61.0,2.0,40.0,2.0,0.0
1676,77.0,22.0,20.0,2.0,0.0
1677,68.0,24.0,20.0,2.0,0.0
1678,78.0,22.0,20.0,2.0,0.0
1679,63.0,2.0,40.0,2.0,0.0
1680,68.0,24.0,20.0,2.0,0.0
1681,77.0,2.0,40.0,2.0,0.0
1682,61.0,22.0,20.0,2.0,0.0
1683,68.0,24.0,20.0,2.0,0.0
1684,67.0,24.0,20.0,2.0,0.0
1685,68.0,21.0,20.0,2.0,0.0
1686,82.0,3.0,20.0,2.0,0.0
1687,66.0,24.0,20.0,2.0,0.0
1688,68.0,21.0,20.0,2.0,0.0
1689,65.0,24.0,20.0,2.0,0.0
1690,80.0,3.0,20.0,2.0,0.0
1691,68.0,13.0,20.0,2.0,0.0
1692,63.0,1.0,20.0,2.0,0.0
1693,78.0,11.0,15.0,2.0,0.0
1694,80.0,12.0,15.0,2.0,0.0
1695,78.0,9.0,15.0,2.0,0.0
1696,68.0,24.0,20.0,2.0,0.0
1697,80.0,2.0,15.0,2.0,0.0
1698,61.0,22.0,20.0,2.0,0.0
1699,77.0,2.0,40.0,2.0,0.0
1700,68.0,13.0,20.0,2.0,0.0
1701,60.0,1.0,20.0,2.0,0.0
1702,75.0,11.0,15.0,2.0,0.0
1703,77.0,12.0,15.0,2.0,0.0
1704,68.0,24.0,20.0,2.0,0.0
1705,75.0,9.0,15.0,2.0,0.0
1706,77.0,2.0,15.0,2.0,0.0
1707,73.0,2.0,40.0,2.0,0.0
1708,61.0,22.0,20.0,2.0,0.0
1709,68.0,48.0,20.0,2.0,0.0
1710,54.0,4.0,90.0,3.0,0.0
1711,70.0,0.0,90.0,2.0,0.0
1712,65.0,24.0,20.0,2.0,0.0
1713,70.0,2.0,40.0,3.0,0.0
1714,66.0,18.0,20.0,2.0,0.0
1715,65.0,46.0,20.0,2.0,0.0
1716,66.0,2.0,40.0,3.0,0.0
1717,66.0,4.0,90.0,2.0,0.0
1718,77.0,21.0,20.0,2.0,0.0
1719,63.0,3.0,20.0,3.0,0.0
1720,78.0,18.0,20.0,2.0,0.0
1721,75.0,2.0,40.0,3.0,0.0
1722,75.0,46.0,20.0,2.0,0.0
1723,72.0,2.0,40.0,3.0,0.0
1724,72.0,0.0,90.0,2.0,0.0
1725,56.0,4.0,90.0,3.0,0.0
1726,67.0,21.0,20.0,2.0,0.0
1727,68.0,3.0,20.0,3.0,0.0
1728,68.0,18.0,20.0,2.0,0.0
1729,72.0,2.0,40.0,3.0,0.0
1730,67.0,46.0,20.0,2.0,0.0
1731,68.0,2.0,40.0,3.0,0.0
1732,68.0,4.0,90.0,2.0,0.0
1733,79.0,21.0,20.0,2.0,0.0
1734,80.0,18.0,20.0,2.0,0.0
1735,65.0,3.0,20.0,3.0,0.0
1736,77.0,2.0,40.0,3.0,0.0
1737,77.0,46.0,20.0,2.0,0.0
1738,73.0,2.0,40.0,3.0,0.0
1739,73.0,4.0,90.0,2.0,0.0
1740,58.0,0.0,90.0,3.0,0.0
1741,69.0,21.0,20.0,2.0,0.0
1742,70.0,18.0,20.0,2.0,0.0
1743,73.0,2.0,40.0,3.0,0.0
1744,70.0,3.0,20.0,3.0,0.0
1745,69.0,46.0,20.0,2.0,0.0
1746,70.0,2.0,40.0,3.0,0.0
1747,70.0,4.0,90.0,2.0,0.0
1748,81.0,21.0,20.0,2.0,0.0
1749,82.0,18.0,20.0,2.0,0.0
1750,66.0,3.0,20.0,3.0,0.0
1751,78.0,2.0,40.0,3.0,0.0
1752,78.0,46.0,20.0,2.0,0.0
1753,75.0,2.0,40.0,3.0,0.0
1754,75.0,0.0,90.0,2.0,0.0
1755,60.0,4.0,90.0,3.0,0.0
1756,71.0,24.0,20.0,2.0,0.0
1757,72.0,18.0,20.0,2.0,0.0
1758,72.0,2.0,40.0,3.0,0.0
1759,75.0,0.0,40.0,3.0,0.0
1760,71.0,46.0,20.0,2.0,0.0
1761,72.0,4.0,90.0,2.0,0.0
1762,72.0,2.0,40.0,3.0,0.0
1763,79.0,21.0,20.0,2.0,0.0
1764,78.0,2.0,40.0,3.0,0.0
1765,75.0,3.0,20.0,3.0,0.0
1766,60.0,0.0,40.0,3.0,0.0
1767,68.0,0.0,40.0,3.0,0.0
1768,80.0,18.0,20.0,2.0,0.0
1769,78.0,24.0,20.0,2.0,0.0
1770,61.0,0.0,90.0,3.0,0.0
1771,73.0,2.0,40.0,2.0,0.0
1772,77.0,0.0,90.0,3.0,0.0
1773,68.0,0.0,90.0,3.0,0.0
1774,73.0,6.0,90.0,3.0,0.0
1775,77.0,22.0,20.0,2.0,0.0
1776,80.0,24.0,20.0,2.0,0.0
1777,77.0,18.0,20.0,2.0,0.0
1778,73.0,24.0,20.0,2.0,0.0
1779,80.0,12.0,180.0,3.0,0.0
1780,72.0,22.0,20.0,2.0,0.0
1781,66.0,2.0,40.0,2.0,0.0
1782,75.0,24.0,20.0,2.0,0.0
1783,72.0,24.0,20.0,2.0,0.0
1784,68.0,24.0,20.0,2.0,0.0
1785,73.0,22.0,20.0,2.0,0.0
1786,65.0,2.0,40.0,2.0,0.0
1787,68.0,24.0,20.0,2.0,0.0
1788,65.0,10.0,20.0,2.0,0.0
1789,73.0,0.0,40.0,3.0,0.0
1790,61.0,2.0,40.0,2.0,0.0
1791,68.0,21.0,20.0,2.0,0.0
1792,63.0,2.0,40.0,2.0,0.0
1793,68.0,3.0,20.0,3.0,0.0
1794,72.0,0.0,40.0,3.0,0.0
1795,66.0,22.0,20.0,2.0,0.0
1796,68.0,21.0,20.0,2.0,0.0
1797,75.0,3.0,20.0,3.0,0.0
1798,60.0,2.0,40.0,2.0,0.0
1799,63.0,22.0,20.0,2.0,0.0
1800,68.0,0.0,20.0,3.0,0.0
1801,68.0,24.0,20.0,2.0,0.0
1802,65.0,22.0,20.0,2.0,0.0
1803,68.0,0.0,90.0,3.0,0.0
1804,65.0,6.0,90.0,3.0,0.0
1805,61.0,2.0,40.0,2.0,0.0
1806,68.0,24.0,20.0,2.0,0.0
1807,65.0,18.0,20.0,2.0,0.0
1808,61.0,24.0,20.0,2.0,0.0
1809,54.0,2.0,40.0,2.0,0.0
1810,60.0,22.0,20.0,2.0,0.0
1811,68.0,12.0,180.0,3.0,0.0
1812,63.0,24.0,20.0,2.0,0.0
1813,60.0,24.0,20.0,2.0,0.0
1814,56.0,24.0,20.0,2.0,0.0
1815,53.0,2.0,40.0,2.0,0.0
1816,61.0,22.0,20.0,2.0,0.0
1817,56.0,24.0,20.0,2.0,0.0
1818,53.0,10.0,20.0,2.0,0.0
1819,61.0,0.0,40.0,3.0,0.0
1820,49.0,2.0,40.0,2.0,0.0
1821,56.0,21.0,20.0,2.0,0.0
1822,60.0,0.0,40.0,3.0,0.0
1823,54.0,22.0,20.0,2.0,0.0
1824,56.0,3.0,20.0,3.0,0.0
1825,51.0,2.0,40.0,2.0,0.0
1826,56.0,21.0,20.0,2.0,0.0
1827,48.0,2.0,40.0,2.0,0.0
1828,54.0,3.0,20.0,3.0,0.0
1829,51.0,22.0,20.0,2.0,0.0
1830,56.0,0.0,20.0,3.0,0.0
1831,56.0,21.0,20.0,2.0,0.0
1832,53.0,0.0,90.0,3.0,0.0
1833,49.0,0.0,90.0,2.0,0.0
1834,53.0,69.0,20.0,2.0,0.0
1835,56.0,4.0,90.0,3.0,0.0
1836,56.0,48.0,40.0,2.0,0.0
1837,61.0,48.0,40.0,2.0,0.0
1838,65.0,48.0,40.0,2.0,0.0
1839,68.0,48.0,40.0,2.0,0.0
1840,73.0,48.0,40.0,2.0,0.0
1841,77.0,23.0,40.0,2.0,0.0
1842,80.0,51.0,20.0,2.0,0.0
1843,56.0,2.0,40.0,3.0,0.0
1844,49.0,0.0,40.0,3.0,0.0
1845,59.0,0.0,40.0,3.0,0.0
1846,53.0,22.0,20.0,2.0,0.0
1847,61.0,0.0,360.0,1.0,0.0
1848,68.0,0.0,360.0,0.0,0.0
1849,71.0,0.0,360.0,0.0,0.0
1850,83.0,8.0,180.0,2.0,0.0
1851,29.0,6.0,90.0,3.0,0.0
1852,61.0,24.0,20.0,2.0,0.0
1853,59.0,0.0,90.0,3.0,0.0
1854,56.0,18.0,20.0,2.0,0.0
1855,49.0,0.0,90.0,3.0,0.0
1856,56.0,6.0,90.0,3.0,0.0
1857,61.0,24.0,20.0,2.0,0.0
1858,29.0,6.0,90.0,3.0,0.0
1859,53.0,18.0,20.0,2.0,0.0
1860,61.0,24.0,20.0,2.0,0.0
1861,49.0,6.0,90.0,3.0,0.0
1862,56.0,10.0,20.0,2.0,0.0
1863,59.0,0.0,90.0,3.0,0.0
1864,56.0,0.0,90.0,3.0,0.0
1865,61.0,13.0,20.0,2.0,0.0
1866,53.0,1.0,20.0,2.0,0.0
1867,71.0,11.0,15.0,2.0,0.0
1868,29.0,6.0,90.0,3.0,0.0
1869,73.0,12.0,15.0,2.0,0.0
1870,71.0,5.0,15.0,2.0,0.0
1871,61.0,1.0,20.0,2.0,0.0
1872,73.0,12.0,15.0,2.0,0.0
1873,59.0,0.0,90.0,3.0,0.0
1874,56.0,6.0,90.0,3.0,0.0
1875,71.0,11.0,15.0,2.0,0.0
1876,49.0,0.0,90.0,3.0,0.0
1877,56.0,1.0,20.0,2.0,0.0
1878,73.0,12.0,15.0,2.0,0.0
1879,71.0,5.0,15.0,2.0,0.0
1880,61.0,1.0,20.0,2.0,0.0
1881,73.0,12.0,15.0,2.0,0.0
1882,53.0,1.0,20.0,2.0,0.0
1883,29.0,4.0,90.0,3.0,0.0
1884,71.0,11.0,15.0,2.0,0.0
1885,73.0,12.0,15.0,2.0,0.0
1886,61.0,1.0,20.0,2.0,0.0
1887,71.0,5.0,15.0,2.0,0.0
1888,73.0,12.0,15.0,2.0,0.0
1889,56.0,1.0,20.0,2.0,0.0
1890,71.0,6.0,15.0,2.0,0.0
1891,59.0,0.0,40.0,3.0,0.0
1892,56.0,0.0,40.0,3.0,0.0
1893,49.0,2.0,40.0,3.0,0.0
1894,73.0,9.0,15.0,2.0,0.0
1895,61.0,24.0,20.0,2.0,0.0
1896,71.0,8.0,15.0,2.0,0.0
1897,66.0,0.0,90.0,0.0,0.0
1898,58.0,0.0,90.0,3.0,0.0
1899,61.0,0.0,90.0,1.0,0.0
1900,54.0,0.0,90.0,3.0,0.0
1901,49.0,0.0,90.0,3.0,0.0
1902,54.0,0.0,90.0,2.0,0.0
1903,30.0,0.0,90.0,3.0,0.0
1904,70.0,24.0,20.0,2.0,0.0
1905,70.0,0.0,90.0,0.0,0.0
1906,54.0,6.0,90.0,1.0,0.0
1907,72.0,24.0,20.0,2.0,0.0
1908,73.0,18.0,20.0,2.0,0.0
1909,72.0,24.0,20.0,2.0,0.0
1910,73.0,24.0,20.0,2.0,0.0
1911,74.0,24.0,20.0,2.0,0.0
1912,75.0,24.0,20.0,2.0,0.0
1913,74.0,24.0,20.0,2.0,0.0
1914,75.0,24.0,20.0,2.0,0.0
1915,77.0,24.0,20.0,2.0,0.0
1916,78.0,24.0,20.0,2.0,0.0
1917,77.0,7.0,20.0,2.0,0.0
1918,80.0,39.0,15.0,2.0,0.0
1919,78.0,26.0,40.0,2.0,0.0
1920,77.0,24.0,20.0,2.0,0.0
1921,75.0,46.0,20.0,2.0,0.0
1922,80.0,26.0,60.0,2.0,0.0
1923,53.0,22.0,40.0,2.0,0.0
1924,61.0,2.0,40.0,2.0,0.0
1925,73.0,46.0,20.0,2.0,0.0
1926,78.0,22.0,60.0,2.0,0.0
1927,73.0,3.0,180.0,3.0,0.0
1928,66.0,4.0,90.0,3.0,0.0
1929,58.0,22.0,40.0,2.0,0.0
1930,61.0,2.0,40.0,2.0,0.0
1931,75.0,13.0,20.0,2.0,0.0
1932,54.0,3.0,40.0,2.0,0.0
1933,75.0,12.0,15.0,2.0,0.0
1934,70.0,4.0,90.0,3.0,0.0
1935,77.0,12.0,15.0,2.0,0.0
1936,75.0,9.0,15.0,2.0,0.0
1937,77.0,12.0,15.0,2.0,0.0
1938,75.0,12.0,15.0,2.0,0.0
1939,61.0,3.0,40.0,2.0,0.0
1940,77.0,9.0,15.0,2.0,0.0
1941,75.0,5.0,15.0,2.0,0.0
1942,77.0,12.0,15.0,2.0,0.0
1943,75.0,12.0,15.0,2.0,0.0
1944,68.0,3.0,40.0,3.0,0.0
1945,56.0,0.0,40.0,2.0,0.0
1946,72.0,4.0,90.0,3.0,0.0
1947,77.0,12.0,15.0,2.0,0.0
1948,75.0,9.0,15.0,2.0,0.0
1949,77.0,12.0,15.0,2.0,0.0
1950,60.0,92.0,40.0,2.0,0.0
1951,75.0,12.0,15.0,2.0,0.0
1952,66.0,0.0,40.0,3.0,0.0
1953,77.0,9.0,15.0,2.0,0.0
1954,75.0,8.0,15.0,2.0,0.0
1955,61.0,0.0,90.0,2.0,0.0
1956,49.0,0.0,90.0,2.0,0.0
1957,65.0,0.0,90.0,3.0,0.0
1958,73.0,140.0,90.0,3.0,0.0
1959,73.0,0.0,90.0,2.0,0.0
1960,68.0,56.0,120.0,3.0,0.0
1961,42.0,12.0,180.0,3.0,0.0
1962,60.0,44.0,120.0,3.0,0.0
1963,54.0,0.0,180.0,3.0,0.0
1964,70.0,40.0,40.0,3.0,0.0
1965,68.0,48.0,150.0,3.0,0.0
1966,63.0,48.0,40.0,3.0,0.0
1967,61.0,44.0,120.0,3.0,0.0
1968,53.0,12.0,180.0,3.0,0.0
1969,41.0,0.0,180.0,3.0,0.0
1970,70.0,40.0,40.0,3.0,0.0
1971,68.0,56.0,120.0,3.0,0.0
1972,65.0,40.0,40.0,3.0,0.0
1973,36.0,0.0,180.0,3.0,0.0
1974,63.0,44.0,120.0,3.0,0.0
1975,48.0,12.0,180.0,3.0,0.0
1976,80.0,40.0,40.0,3.0,0.0
1977,78.0,44.0,150.0,3.0,0.0
1978,56.0,48.0,40.0,3.0,0.0
1979,49.0,0.0,90.0,3.0,0.0
1980,37.0,0.0,90.0,3.0,0.0
1981,65.0,4.0,90.0,3.0,0.0
1982,49.0,8.0,180.0,2.0,0.0
1983,56.0,44.0,120.0,2.0,0.0
1984,76.0,40.0,40.0,3.0,0.0
1985,77.0,4.0,90.0,3.0,0.0
1986,68.0,56.0,120.0,2.0,0.0
1987,61.0,40.0,40.0,2.0,0.0
1988,60.0,44.0,120.0,2.0,0.0
1989,54.0,12.0,180.0,2.0,0.0
1990,70.0,40.0,40.0,2.0,0.0
1991,68.0,48.0,150.0,2.0,0.0
1992,63.0,48.0,40.0,2.0,0.0
1993,53.0,12.0,180.0,2.0,0.0
1994,61.0,44.0,120.0,2.0,0.0
1995,70.0,40.0,40.0,2.0,0.0
1996,68.0,56.0,120.0,2.0,0.0
1997,56.0,40.0,40.0,2.0,0.0
1998,63.0,44.0,120.0,2.0,0.0
1999,60.0,12.0,180.0,2.0,0.0
2000,80.0,40.0,40.0,2.0,0.0
2001,78.0,0.0,150.0,2.0,0.0
2002,68.0,48.0,40.0,2.0,0.0
2003,61.0,0.0,180.0,2.0,0.0
2004,68.0,8.0,120.0,2.0,0.0
2005,68.0,48.0,40.0,3.0,0.0
2006,80.0,0.0,40.0,2.0,0.0
2007,61.0,23.0,40.0,3.0,0.0
2008,77.0,8.0,120.0,2.0,0.0
2009,65.0,17.0,20.0,3.0,0.0
2010,68.0,0.0,40.0,3.0,0.0
2011,65.0,23.0,40.0,2.0,0.0
2012,54.0,0.0,180.0,3.0,0.0
2013,54.0,12.0,180.0,2.0,0.0
2014,66.0,48.0,40.0,3.0,0.0
2015,70.0,17.0,20.0,3.0,0.0
2016,58.0,8.0,120.0,2.0,0.0
2017,58.0,0.0,40.0,3.0,0.0
2018,78.0,23.0,40.0,2.0,0.0
2019,63.0,17.0,20.0,3.0,0.0
2020,75.0,0.0,150.0,2.0,0.0
2021,66.0,0.0,40.0,3.0,0.0
2022,66.0,23.0,40.0,2.0,0.0
2023,68.0,25.0,20.0,3.0,0.0
2024,65.0,8.0,120.0,2.0,0.0
2025,56.0,0.0,180.0,2.0,0.0
2026,65.0,48.0,40.0,3.0,0.0
2027,56.0,0.0,40.0,3.0,0.0
2028,77.0,23.0,40.0,2.0,0.0
2029,61.0,17.0,20.0,3.0,0.0
2030,73.0,8.0,120.0,2.0,0.0
2031,65.0,0.0,40.0,3.0,0.0
2032,61.0,23.0,40.0,2.0,0.0
2033,66.0,8.0,120.0,2.0,0.0
2034,63.0,9.0,40.0,3.0,0.0
2035,56.0,0.0,180.0,2.0,0.0
2036,66.0,17.0,20.0,3.0,0.0
2037,77.0,39.0,15.0,2.0,0.0
2038,54.0,23.0,40.0,3.0,0.0
2039,75.0,0.0,40.0,2.0,0.0
2040,60.0,36.0,40.0,3.0,0.0
2041,72.0,4.0,90.0,2.0,0.0
2042,56.0,17.0,20.0,3.0,0.0
2043,63.0,0.0,40.0,2.0,0.0
2044,63.0,13.0,40.0,3.0,0.0
2045,61.0,13.0,40.0,3.0,0.0
2046,73.0,0.0,90.0,2.0,0.0
2047,61.0,17.0,90.0,2.0,0.0
2048,65.0,0.0,90.0,2.0,0.0
2049,37.0,0.0,40.0,3.0,0.0
2050,53.0,24.0,15.0,3.0,0.0
2051,56.0,11.0,15.0,3.0,0.0
2052,53.0,24.0,15.0,3.0,0.0
2053,56.0,7.0,15.0,3.0,0.0
2054,53.0,24.0,15.0,3.0,0.0
2055,61.0,13.0,40.0,3.0,0.0
2056,56.0,11.0,15.0,3.0,0.0
2057,60.0,13.0,40.0,3.0,0.0
2058,53.0,24.0,15.0,3.0,0.0
2059,56.0,11.0,15.0,3.0,0.0
2060,54.0,10.0,15.0,3.0,0.0
2061,60.0,13.0,40.0,3.0,0.0
2062,32.0,0.0,40.0,3.0,0.0
2063,63.0,14.0,20.0,3.0,0.0
2064,56.0,11.0,15.0,3.0,0.0
2065,54.0,24.0,15.0,3.0,0.0
2066,56.0,24.0,15.0,3.0,0.0
2067,63.0,13.0,40.0,3.0,0.0
2068,54.0,24.0,15.0,3.0,0.0
2069,56.0,11.0,15.0,3.0,0.0
2070,54.0,24.0,15.0,3.0,0.0
2071,61.0,13.0,40.0,3.0,0.0
2072,56.0,11.0,15.0,3.0,0.0
2073,65.0,14.0,20.0,3.0,0.0
2074,37.0,13.0,40.0,3.0,0.0
2075,61.0,0.0,40.0,3.0,0.0
2076,53.0,10.0,15.0,3.0,0.0
2077,56.0,11.0,15.0,3.0,0.0
2078,53.0,24.0,15.0,3.0,0.0
2079,56.0,24.0,15.0,3.0,0.0
2080,61.0,24.0,15.0,3.0,0.0
2081,65.0,13.0,40.0,3.0,0.0
2082,56.0,11.0,15.0,3.0,0.0
2083,61.0,24.0,15.0,3.0,0.0
2084,63.0,13.0,40.0,3.0,0.0
2085,56.0,11.0,15.0,3.0,0.0
2086,36.0,0.0,40.0,3.0,0.0
2087,60.0,0.0,40.0,3.0,0.0
2088,68.0,0.0,180.0,1.0,0.0
2089,75.0,0.0,180.0,0.0,0.0
2090,66.0,13.0,40.0,3.0,0.0
2091,63.0,24.0,15.0,3.0,0.0
2092,78.0,0.0,180.0,0.0,0.0
2093,56.0,11.0,15.0,3.0,0.0
2094,36.0,0.0,40.0,3.0,0.0
2095,60.0,9.0,40.0,3.0,0.0
2096,66.0,0.0,40.0,3.0,0.0
2097,63.0,24.0,15.0,3.0,0.0
2098,56.0,11.0,15.0,3.0,0.0
2099,68.0,4.0,15.0,3.0,0.0
2100,60.0,13.0,40.0,3.0,0.0
2101,51.0,24.0,15.0,3.0,0.0
2102,36.0,0.0,40.0,3.0,0.0
2103,66.0,0.0,40.0,3.0,0.0
2104,56.0,11.0,15.0,3.0,0.0
2105,36.0,2.0,40.0,3.0,0.0
2106,60.0,0.0,40.0,3.0,0.0
2107,54.0,13.0,15.0,3.0,0.0
2108,65.0,10.0,20.0,3.0,0.0
2109,56.0,11.0,15.0,3.0,0.0
2110,63.0,24.0,20.0,3.0,0.0
2111,37.0,0.0,40.0,3.0,0.0
2112,73.0,0.0,40.0,0.0,0.0
2113,77.0,0.0,40.0,0.0,0.0
2114,61.0,22.0,20.0,2.0,0.0
2115,61.0,0.0,40.0,3.0,0.0
2116,53.0,2.0,40.0,3.0,0.0
2117,61.0,0.0,40.0,1.0,0.0
2118,68.0,24.0,20.0,2.0,0.0
2119,65.0,24.0,20.0,2.0,0.0
2120,68.0,24.0,20.0,2.0,0.0
2121,65.0,24.0,20.0,2.0,0.0
2122,73.0,0.0,20.0,2.0,0.0
2123,72.0,24.0,20.0,2.0,0.0
2124,68.0,0.0,20.0,2.0,0.0
2125,73.0,0.0,20.0,2.0,0.0
2126,65.0,24.0,20.0,2.0,0.0
2127,72.0,0.0,20.0,2.0,0.0
2128,68.0,24.0,20.0,2.0,0.0
2129,44.0,0.0,40.0,3.0,0.0
2130,75.0,0.0,40.0,2.0,0.0
2131,60.0,22.0,20.0,2.0,0.0
2132,56.0,2.0,40.0,3.0,0.0
2133,66.0,0.0,40.0,3.0,0.0
2134,60.0,0.0,40.0,3.0,0.0
2135,68.0,24.0,20.0,2.0,0.0
2136,66.0,24.0,20.0,2.0,0.0
2137,68.0,24.0,20.0,2.0,0.0
2138,75.0,24.0,20.0,2.0,0.0
2139,66.0,0.0,20.0,2.0,0.0
2140,68.0,0.0,20.0,2.0,0.0
2141,73.0,24.0,20.0,2.0,0.0
2142,75.0,0.0,20.0,2.0,0.0
2143,66.0,24.0,20.0,2.0,0.0
2144,68.0,24.0,20.0,2.0,0.0
2145,73.0,0.0,20.0,2.0,0.0
2146,61.0,22.0,20.0,2.0,0.0
2147,61.0,2.0,40.0,3.0,0.0
2148,56.0,0.0,40.0,3.0,0.0
2149,37.0,0.0,40.0,3.0,0.0
2150,77.0,0.0,40.0,2.0,0.0
2151,65.0,0.0,40.0,3.0,0.0
2152,68.0,24.0,20.0,2.0,0.0
2153,65.0,24.0,20.0,2.0,0.0
2154,68.0,24.0,20.0,2.0,0.0
2155,65.0,24.0,20.0,2.0,0.0
2156,77.0,0.0,20.0,2.0,0.0
2157,68.0,0.0,20.0,2.0,0.0
2158,75.0,24.0,20.0,2.0,0.0
2159,65.0,24.0,20.0,2.0,0.0
2160,77.0,0.0,20.0,2.0,0.0
2161,75.0,21.0,20.0,2.0,0.0
2162,68.0,0.0,20.0,2.0,0.0
2163,78.0,0.0,180.0,3.0,0.0
2164,44.0,2.0,40.0,3.0,0.0
2165,60.0,22.0,20.0,2.0,0.0
2166,63.0,14.0,180.0,3.0,0.0
2167,78.0,3.0,20.0,2.0,0.0
2168,72.0,0.0,180.0,3.0,0.0
2169,68.0,21.0,20.0,2.0,0.0
2170,78.0,3.0,20.0,2.0,0.0
2171,63.0,24.0,20.0,2.0,0.0
2172,68.0,7.0,20.0,2.0,0.0
2173,80.0,17.0,15.0,2.0,0.0
2174,32.0,2.0,40.0,3.0,0.0
2175,60.0,22.0,20.0,2.0,0.0
2176,78.0,0.0,40.0,2.0,0.0
2177,68.0,24.0,20.0,2.0,0.0
2178,77.0,10.0,20.0,2.0,0.0
2179,63.0,0.0,20.0,2.0,0.0
2180,68.0,24.0,20.0,2.0,0.0
2181,75.0,0.0,20.0,2.0,0.0
2182,77.0,6.0,90.0,3.0,0.0
2183,77.0,24.0,20.0,2.0,0.0
2184,73.0,0.0,90.0,3.0,0.0
2185,61.0,0.0,90.0,3.0,0.0
2186,37.0,0.0,90.0,3.0,0.0
2187,61.0,0.0,90.0,2.0,0.0
2188,78.0,24.0,20.0,2.0,0.0
2189,80.0,18.0,20.0,2.0,0.0
2190,77.0,24.0,20.0,2.0,0.0
2191,73.0,24.0,20.0,2.0,0.0
2192,75.0,24.0,20.0,2.0,0.0
2193,77.0,24.0,20.0,2.0,0.0
2194,73.0,24.0,20.0,2.0,0.0
2195,70.0,24.0,20.0,2.0,0.0
2196,72.0,24.0,20.0,2.0,0.0
2197,73.0,24.0,20.0,2.0,0.0
2198,70.0,24.0,20.0,2.0,0.0
2199,66.0,24.0,20.0,2.0,0.0
2200,68.0,24.0,20.0,2.0,0.0
2201,70.0,24.0,20.0,2.0,0.0
2202,66.0,24.0,20.0,2.0,0.0
2203,58.0,8.0,180.0,3.0,0.0
2204,63.0,24.0,20.0,2.0,0.0
2205,42.0,0.0,180.0,3.0,0.0
2206,63.0,6.0,90.0,3.0,0.0
2207,62.0,24.0,20.0,2.0,0.0
2208,63.0,18.0,20.0,2.0,0.0
2209,62.0,24.0,20.0,2.0,0.0
2210,63.0,0.0,20.0,3.0,0.0
2211,63.0,44.0,150.0,2.0,0.0
2212,66.0,6.0,90.0,3.0,0.0
2213,54.0,24.0,20.0,2.0,0.0
2214,53.0,0.0,20.0,2.0,0.0
2215,62.0,24.0,20.0,3.0,0.0
2216,54.0,0.0,20.0,2.0,0.0
2217,63.0,10.0,20.0,3.0,0.0
2218,62.0,46.0,20.0,3.0,0.0
2219,53.0,0.0,20.0,2.0,0.0
2220,54.0,8.0,180.0,2.0,0.0
2221,70.0,0.0,90.0,3.0,0.0
2222,54.0,4.0,90.0,3.0,0.0
2223,63.0,0.0,180.0,3.0,0.0
2224,30.0,0.0,180.0,3.0,0.0
2225,70.0,9.0,40.0,2.0,0.0
2226,68.0,39.0,15.0,2.0,0.0
2227,56.0,6.0,90.0,3.0,0.0
2228,60.0,0.0,90.0,3.0,0.0
2229,66.0,26.0,40.0,2.0,0.0
2230,65.0,10.0,20.0,2.0,0.0
2231,63.0,46.0,20.0,2.0,0.0
2232,68.0,44.0,40.0,2.0,0.0
2233,29.0,0.0,90.0,3.0,0.0
2234,61.0,4.0,90.0,3.0,0.0
2235,53.0,0.0,90.0,2.0,0.0
2236,56.0,0.0,90.0,3.0,0.0
2237,67.0,48.0,40.0,2.0,0.0
2238,53.0,0.0,90.0,2.0,0.0
2239,34.0,0.0,90.0,3.0,0.0
2240,66.0,36.0,40.0,2.0,0.0
2241,61.0,0.0,180.0,2.0,0.0
2242,58.0,4.0,90.0,3.0,0.0
2243,61.0,8.0,90.0,3.0,0.0
2244,65.0,15.0,40.0,2.0,0.0
2245,58.0,0.0,90.0,3.0,0.0
2246,49.0,0.0,90.0,2.0,0.0
2247,54.0,7.0,90.0,3.0,0.0
2248,63.0,12.0,15.0,2.0,0.0
2249,30.0,0.0,90.0,3.0,0.0
2250,65.0,12.0,15.0,2.0,0.0
2251,63.0,12.0,15.0,2.0,0.0
2252,65.0,12.0,15.0,2.0,0.0
2253,63.0,12.0,15.0,2.0,0.0
2254,65.0,9.0,15.0,2.0,0.0
2255,63.0,5.0,15.0,2.0,0.0
2256,65.0,12.0,15.0,2.0,0.0
2257,60.0,30.0,90.0,2.0,0.0
2258,60.0,0.0,90.0,3.0,0.0
2259,32.0,0.0,90.0,3.0,0.0
2260,56.0,0.0,90.0,3.0,0.0
2261,63.0,12.0,15.0,2.0,0.0
2262,51.0,0.0,90.0,3.0,0.0
2263,51.0,0.0,90.0,2.0,0.0
2264,65.0,12.0,15.0,2.0,0.0
2265,63.0,12.0,15.0,2.0,0.0
2266,65.0,12.0,15.0,2.0,0.0
2267,63.0,12.0,15.0,2.0,0.0
2268,65.0,9.0,15.0,2.0,0.0
2269,63.0,8.0,15.0,2.0,0.0
2270,80.0,24.0,20.0,2.0,0.0
2271,79.0,24.0,20.0,2.0,0.0
2272,80.0,24.0,20.0,2.0,0.0
2273,76.0,24.0,20.0,2.0,0.0
2274,77.0,24.0,20.0,2.0,0.0
2275,76.0,24.0,20.0,2.0,0.0
2276,77.0,24.0,20.0,2.0,0.0
2277,72.0,24.0,20.0,2.0,0.0
2278,73.0,24.0,20.0,2.0,0.0
2279,72.0,24.0,20.0,2.0,0.0
2280,73.0,24.0,20.0,2.0,0.0
2281,69.0,24.0,20.0,2.0,0.0
2282,70.0,24.0,20.0,2.0,0.0
2283,69.0,24.0,20.0,2.0,0.0
2284,70.0,24.0,20.0,2.0,0.0
2285,65.0,24.0,20.0,2.0,0.0
2286,63.0,6.0,90.0,3.0,0.0
2287,58.0,0.0,120.0,3.0,0.0
2288,66.0,24.0,20.0,2.0,0.0
2289,42.0,0.0,120.0,3.0,0.0
2290,65.0,24.0,20.0,2.0,0.0
2291,66.0,18.0,20.0,2.0,0.0
2292,62.0,24.0,20.0,2.0,0.0
2293,63.0,24.0,20.0,3.0,0.0
2294,54.0,0.0,20.0,2.0,0.0
2295,66.0,6.0,90.0,3.0,0.0
2296,63.0,44.0,150.0,2.0,0.0
2297,41.0,24.0,20.0,3.0,0.0
2298,56.0,0.0,20.0,3.0,0.0
2299,53.0,0.0,20.0,2.0,0.0
2300,62.0,0.0,20.0,3.0,0.0
2301,63.0,0.0,20.0,3.0,0.0
2302,54.0,0.0,20.0,3.0,0.0
2303,39.0,0.0,20.0,3.0,0.0
2304,51.0,18.0,20.0,2.0,0.0
2305,53.0,0.0,20.0,3.0,0.0
2306,65.0,0.0,20.0,3.0,0.0
2307,49.0,46.0,20.0,2.0,0.0
2308,37.0,0.0,20.0,3.0,0.0
2309,48.0,0.0,90.0,2.0,0.0
2310,36.0,0.0,90.0,3.0,0.0
2311,70.0,0.0,90.0,3.0,0.0
2312,51.0,0.0,90.0,3.0,0.0
2313,66.0,4.0,90.0,3.0,0.0
2314,82.0,9.0,40.0,2.0,0.0
2315,80.0,39.0,15.0,2.0,0.0
2316,54.0,6.0,90.0,3.0,0.0
2317,54.0,0.0,90.0,2.0,0.0
2318,63.0,0.0,90.0,3.0,0.0
2319,60.0,0.0,90.0,2.0,0.0
2320,60.0,0.0,90.0,3.0,0.0
2321,78.0,26.0,40.0,2.0,0.0
2322,77.0,18.0,20.0,2.0,0.0
2323,75.0,46.0,20.0,2.0,0.0
2324,80.0,44.0,40.0,2.0,0.0
2325,61.0,4.0,90.0,3.0,0.0
2326,61.0,0.0,90.0,2.0,0.0
2327,53.0,0.0,90.0,3.0,0.0
2328,53.0,0.0,90.0,2.0,0.0
2329,79.0,48.0,40.0,2.0,0.0
2330,78.0,36.0,40.0,2.0,0.0
2331,61.0,0.0,180.0,2.0,0.0
2332,73.0,3.0,180.0,3.0,0.0
2333,58.0,0.0,90.0,3.0,0.0
2334,58.0,4.0,90.0,2.0,0.0
2335,77.0,15.0,40.0,2.0,0.0
2336,70.0,0.0,90.0,3.0,0.0
2337,75.0,12.0,15.0,2.0,0.0
2338,54.0,7.0,90.0,2.0,0.0
2339,54.0,0.0,90.0,3.0,0.0
2340,77.0,12.0,15.0,2.0,0.0
2341,75.0,12.0,15.0,2.0,0.0
2342,77.0,12.0,15.0,2.0,0.0
2343,75.0,12.0,15.0,2.0,0.0
2344,77.0,9.0,15.0,2.0,0.0
2345,75.0,5.0,15.0,2.0,0.0
2346,77.0,12.0,15.0,2.0,0.0
2347,75.0,12.0,15.0,2.0,0.0
2348,56.0,0.0,90.0,2.0,0.0
2349,68.0,30.0,90.0,3.0,0.0
2350,56.0,0.0,90.0,3.0,0.0
2351,72.0,0.0,90.0,3.0,0.0
2352,60.0,0.0,90.0,2.0,0.0
2353,77.0,12.0,15.0,2.0,0.0
2354,75.0,12.0,15.0,2.0,0.0
2355,77.0,12.0,15.0,2.0,0.0
2356,75.0,12.0,15.0,2.0,0.0
2357,77.0,9.0,15.0,2.0,0.0
2358,75.0,8.0,15.0,2.0,0.0
2359,61.0,44.0,810.0,0.0,0.0
2360,80.0,6.0,90.0,2.0,0.0
2361,53.0,24.0,20.0,2.0,0.0
2362,73.0,0.0,810.0,0.0,0.0
2363,61.0,0.0,810.0,1.0,0.0
2364,61.0,24.0,20.0,2.0,0.0
2365,56.0,18.0,20.0,2.0,0.0
2366,61.0,24.0,20.0,2.0,0.0
2367,52.0,24.0,20.0,2.0,0.0
2368,61.0,24.0,20.0,2.0,0.0
2369,79.0,2.0,40.0,2.0,0.0
2370,55.0,22.0,20.0,2.0,0.0
2371,61.0,24.0,20.0,2.0,0.0
2372,53.0,24.0,20.0,2.0,0.0
2373,80.0,6.0,90.0,2.0,0.0
2374,61.0,24.0,20.0,2.0,0.0
2375,56.0,18.0,20.0,2.0,0.0
2376,61.0,24.0,20.0,2.0,0.0
2377,52.0,24.0,20.0,2.0,0.0
2378,61.0,24.0,20.0,2.0,0.0
2379,79.0,2.0,40.0,2.0,0.0
2380,55.0,22.0,20.0,2.0,0.0
2381,61.0,24.0,20.0,2.0,0.0
2382,80.0,2.0,40.0,2.0,0.0
2383,53.0,22.0,20.0,2.0,0.0
2384,61.0,24.0,20.0,2.0,0.0
2385,79.0,2.0,40.0,2.0,0.0
2386,52.0,22.0,20.0,2.0,0.0
2387,61.0,24.0,20.0,2.0,0.0
2388,80.0,2.0,40.0,2.0,0.0
2389,53.0,22.0,20.0,2.0,0.0
2390,61.0,24.0,20.0,2.0,0.0
2391,52.0,22.0,20.0,2.0,0.0
2392,79.0,2.0,40.0,2.0,0.0
2393,61.0,24.0,20.0,2.0,0.0
2394,53.0,22.0,20.0,2.0,0.0
2395,80.0,2.0,40.0,2.0,0.0
2396,61.0,24.0,20.0,2.0,0.0
2397,52.0,22.0,20.0,2.0,0.0
2398,79.0,2.0,40.0,2.0,0.0
2399,61.0,24.0,20.0,2.0,0.0
2400,53.0,22.0,20.0,2.0,0.0
2401,80.0,2.0,40.0,2.0,0.0
2402,61.0,24.0,20.0,2.0,0.0
2403,52.0,22.0,20.0,2.0,0.0
2404,79.0,2.0,40.0,2.0,0.0
2405,61.0,46.0,20.0,2.0,0.0
2406,61.0,0.0,90.0,2.0,0.0
2407,53.0,4.0,90.0,2.0,0.0
2408,80.0,0.0,40.0,2.0,0.0
2409,79.0,48.0,40.0,2.0,0.0
2410,80.0,48.0,40.0,2.0,0.0
2411,81.0,48.0,40.0,2.0,0.0
2412,82.0,48.0,40.0,2.0,0.0
2413,83.0,48.0,40.0,2.0,0.0
2414,84.0,48.0,40.0,2.0,0.0
2415,85.0,26.0,40.0,2.0,0.0
2416,44.0,0.0,40.0,3.0,0.0
2417,61.0,2.0,40.0,3.0,0.0
2418,56.0,0.0,40.0,3.0,0.0
2419,56.0,0.0,40.0,2.0,0.0
2420,44.0,22.0,20.0,2.0,0.0
2421,65.0,0.0,40.0,3.0,0.0
2422,53.0,24.0,20.0,2.0,0.0
2423,44.0,0.0,40.0,3.0,0.0
2424,56.0,0.0,40.0,3.0,0.0
2425,65.0,2.0,40.0,3.0,0.0
2426,58.0,0.0,20.0,2.0,0.0
2427,49.0,22.0,20.0,2.0,0.0
2428,61.0,0.0,40.0,3.0,0.0
2429,53.0,24.0,20.0,2.0,0.0
2430,60.0,0.0,20.0,2.0,0.0
2431,56.0,0.0,40.0,3.0,0.0
2432,61.0,0.0,20.0,2.0,0.0
2433,44.0,2.0,40.0,3.0,0.0
2434,65.0,0.0,40.0,3.0,0.0
2435,44.0,22.0,20.0,2.0,0.0
2436,61.0,0.0,40.0,3.0,0.0
2437,63.0,24.0,20.0,2.0,0.0
2438,53.0,0.0,20.0,2.0,0.0
2439,65.0,22.0,20.0,2.0,0.0
2440,65.0,0.0,40.0,3.0,0.0
2441,56.0,2.0,40.0,3.0,0.0
2442,61.0,0.0,40.0,3.0,0.0
2443,49.0,0.0,20.0,2.0,0.0
2444,44.0,0.0,40.0,3.0,0.0
2445,53.0,24.0,20.0,2.0,0.0
2446,66.0,0.0,20.0,2.0,0.0
2447,65.0,2.0,40.0,3.0,0.0
2448,68.0,22.0,20.0,2.0,0.0
2449,44.0,0.0,20.0,2.0,0.0
2450,61.0,0.0,40.0,3.0,0.0
2451,56.0,0.0,40.0,3.0,0.0
2452,44.0,0.0,40.0,3.0,0.0
2453,70.0,24.0,20.0,2.0,0.0
2454,53.0,0.0,20.0,2.0,0.0
2455,44.0,0.0,40.0,3.0,0.0
2456,49.0,0.0,20.0,2.0,0.0
2457,61.0,0.0,40.0,3.0,0.0
2458,56.0,0.0,40.0,3.0,0.0
2459,72.0,22.0,20.0,2.0,0.0
2460,65.0,2.0,40.0,3.0,0.0
2461,73.0,0.0,20.0,2.0,0.0
2462,53.0,24.0,20.0,2.0,0.0
2463,61.0,0.0,40.0,3.0,0.0
2464,44.0,2.0,40.0,3.0,0.0
2465,65.0,0.0,40.0,3.0,0.0
2466,75.0,22.0,20.0,2.0,0.0
2467,56.0,0.0,40.0,3.0,0.0
2468,44.0,0.0,20.0,2.0,0.0
2469,53.0,0.0,20.0,2.0,0.0
2470,77.0,24.0,20.0,2.0,0.0
2471,61.0,2.0,40.0,3.0,0.0
2472,56.0,0.0,40.0,3.0,0.0
2473,65.0,0.0,40.0,3.0,0.0
2474,49.0,0.0,20.0,2.0,0.0
2475,44.0,0.0,40.0,3.0,0.0
2476,78.0,22.0,20.0,2.0,0.0
2477,53.0,13.0,20.0,2.0,0.0
2478,80.0,0.0,20.0,2.0,0.0
2479,60.0,0.0,20.0,3.0,0.0
2480,32.0,2.0,40.0,3.0,0.0
2481,75.0,11.0,15.0,2.0,0.0
2482,44.0,1.0,20.0,2.0,0.0
2483,56.0,0.0,40.0,3.0,0.0
2484,63.0,0.0,20.0,3.0,0.0
2485,77.0,12.0,15.0,2.0,0.0
2486,60.0,1.0,20.0,3.0,0.0
2487,63.0,0.0,20.0,3.0,0.0
2488,75.0,9.0,15.0,2.0,0.0
2489,54.0,0.0,20.0,2.0,0.0
2490,77.0,12.0,15.0,2.0,0.0
2491,75.0,11.0,15.0,2.0,0.0
2492,56.0,0.0,40.0,3.0,0.0
2493,60.0,0.0,20.0,3.0,0.0
2494,63.0,0.0,20.0,3.0,0.0
2495,32.0,2.0,40.0,3.0,0.0
2496,48.0,1.0,20.0,2.0,0.0
2497,77.0,12.0,15.0,2.0,0.0
2498,60.0,0.0,20.0,3.0,0.0
2499,63.0,1.0,20.0,3.0,0.0
2500,75.0,9.0,15.0,2.0,0.0
2501,54.0,0.0,20.0,2.0,0.0
2502,77.0,12.0,15.0,2.0,0.0
2503,44.0,0.0,20.0,2.0,0.0
2504,56.0,0.0,40.0,3.0,0.0
2505,60.0,0.0,20.0,3.0,0.0
2506,63.0,1.0,20.0,3.0,0.0
2507,32.0,2.0,40.0,3.0,0.0
2508,75.0,11.0,15.0,2.0,0.0
2509,77.0,12.0,15.0,2.0,0.0
2510,54.0,0.0,20.0,2.0,0.0
2511,60.0,0.0,20.0,3.0,0.0
2512,63.0,1.0,20.0,3.0,0.0
2513,75.0,9.0,15.0,2.0,0.0
2514,77.0,12.0,15.0,2.0,0.0
2515,60.0,0.0,20.0,3.0,0.0
2516,63.0,1.0,20.0,3.0,0.0
2517,32.0,2.0,40.0,3.0,0.0
2518,48.0,0.0,20.0,2.0,0.0
2519,56.0,0.0,40.0,3.0,0.0
2520,75.0,11.0,15.0,2.0,0.0
2521,77.0,12.0,15.0,2.0,0.0
2522,63.0,0.0,20.0,3.0,0.0
2523,54.0,0.0,20.0,2.0,0.0
2524,60.0,1.0,20.0,3.0,0.0
2525,75.0,9.0,15.0,2.0,0.0
2526,77.0,12.0,15.0,2.0,0.0
2527,56.0,2.0,40.0,3.0,0.0
2528,44.0,0.0,20.0,2.0,0.0
2529,72.0,12.0,180.0,0.0,0.0
2530,32.0,0.0,40.0,3.0,0.0
2531,72.0,1.0,20.0,3.0,0.0
2532,75.0,0.0,180.0,0.0,0.0
2533,75.0,11.0,15.0,2.0,0.0
2534,66.0,0.0,20.0,3.0,0.0
2535,77.0,12.0,15.0,2.0,0.0
2536,66.0,1.0,20.0,3.0,0.0
2537,54.0,0.0,20.0,2.0,0.0
2538,72.0,0.0,20.0,3.0,0.0
2539,75.0,9.0,15.0,2.0,0.0
2540,77.0,12.0,15.0,2.0,0.0
2541,72.0,1.0,20.0,3.0,0.0
2542,32.0,0.0,40.0,3.0,0.0
2543,75.0,11.0,15.0,2.0,0.0
2544,48.0,0.0,20.0,2.0,0.0
2545,66.0,0.0,20.0,3.0,0.0
2546,56.0,2.0,40.0,3.0,0.0
2547,77.0,12.0,15.0,2.0,0.0
2548,72.0,1.0,20.0,3.0,0.0
2549,75.0,9.0,15.0,2.0,0.0
2550,66.0,0.0,20.0,3.0,0.0
2551,54.0,0.0,20.0,2.0,0.0
2552,77.0,12.0,15.0,2.0,0.0
2553,56.0,0.0,40.0,3.0,0.0
2554,32.0,2.0,40.0,3.0,0.0
2555,44.0,0.0,20.0,2.0,0.0
2556,66.0,1.0,20.0,3.0,0.0
2557,75.0,11.0,15.0,2.0,0.0
2558,72.0,0.0,20.0,3.0,0.0
2559,77.0,12.0,15.0,2.0,0.0
2560,75.0,9.0,15.0,2.0,0.0
2561,66.0,1.0,20.0,3.0,0.0
2562,54.0,0.0,20.0,2.0,0.0
2563,72.0,0.0,20.0,3.0,0.0
2564,77.0,12.0,15.0,2.0,0.0
2565,66.0,0.0,20.0,3.0,0.0
2566,72.0,0.0,20.0,3.0,0.0
2567,75.0,6.0,15.0,2.0,0.0
2568,32.0,2.0,40.0,3.0,0.0
2569,56.0,0.0,40.0,3.0,0.0
2570,48.0,10.0,20.0,2.0,0.0
2571,77.0,5.0,15.0,2.0,0.0
2572,54.0,24.0,20.0,2.0,0.0
2573,66.0,0.0,20.0,3.0,0.0
2574,72.0,0.0,20.0,3.0,0.0
2575,56.0,2.0,40.0,3.0,0.0
2576,61.0,0.0,810.0,1.0,0.0
2577,49.0,0.0,90.0,2.0,0.0
2578,73.0,4.0,90.0,3.0,0.0
2579,73.0,0.0,90.0,0.0,0.0
2580,37.0,0.0,40.0,3.0,0.0
2581,65.0,22.0,20.0,3.0,0.0
2582,73.0,0.0,90.0,2.0,0.0
2583,53.0,0.0,90.0,2.0,0.0
2584,66.0,24.0,20.0,3.0,0.0
2585,68.0,18.0,20.0,3.0,0.0
2586,37.0,2.0,40.0,3.0,0.0
2587,53.0,0.0,40.0,3.0,0.0
2588,65.0,21.0,20.0,3.0,0.0
2589,65.0,25.0,20.0,3.0,0.0
2590,61.0,0.0,20.0,3.0,0.0
2591,65.0,0.0,20.0,0.0,0.0
2592,37.0,23.0,40.0,3.0,0.0
2593,37.0,0.0,40.0,3.0,0.0
2594,65.0,0.0,20.0,3.0,0.0
2595,61.0,0.0,20.0,3.0,0.0
2596,65.0,25.0,20.0,0.0,0.0
2597,37.0,0.0,40.0,3.0,0.0
2598,65.0,0.0,40.0,0.0,0.0
2599,62.0,0.0,40.0,3.0,0.0
2600,65.0,0.0,40.0,3.0,0.0
2601,66.0,23.0,40.0,0.0,0.0
2602,63.0,0.0,40.0,3.0,0.0
2603,37.0,0.0,40.0,3.0,0.0
2604,66.0,0.0,40.0,3.0,0.0
2605,37.0,21.0,40.0,3.0,0.0
2606,66.0,0.0,20.0,3.0,0.0
2607,66.0,0.0,40.0,0.0,0.0
2608,63.0,0.0,20.0,3.0,0.0
2609,37.0,48.0,40.0,3.0,0.0
2610,63.0,0.0,20.0,3.0,0.0
2611,66.0,0.0,40.0,0.0,0.0
2612,66.0,0.0,20.0,3.0,0.0
2613,64.0,0.0,40.0,3.0,0.0
2614,37.0,0.0,40.0,3.0,0.0
2615,67.0,0.0,40.0,3.0,0.0
2616,67.0,48.0,40.0,0.0,0.0
2617,73.0,20.0,270.0,0.0,0.0
2618,68.0,23.0,40.0,3.0,0.0
2619,68.0,0.0,40.0,0.0,0.0
2620,37.0,0.0,40.0,3.0,0.0
2621,65.0,0.0,40.0,3.0,0.0
2622,68.0,25.0,20.0,3.0,0.0
2623,68.0,0.0,20.0,0.0,0.0
2624,65.0,0.0,20.0,3.0,0.0
2625,37.0,23.0,40.0,3.0,0.0
2626,68.0,0.0,20.0,3.0,0.0
2627,68.0,0.0,20.0,0.0,0.0
2628,65.0,0.0,20.0,3.0,0.0
2629,37.0,48.0,40.0,3.0,0.0
2630,37.0,0.0,40.0,3.0,0.0
2631,69.0,0.0,40.0,0.0,0.0
2632,65.0,0.0,40.0,3.0,0.0
2633,69.0,0.0,40.0,3.0,0.0
2634,70.0,0.0,40.0,3.0,0.0
2635,37.0,0.0,40.0,3.0,0.0
2636,66.0,0.0,40.0,3.0,0.0
2637,70.0,0.0,40.0,0.0,0.0
2638,70.0,0.0,40.0,0.0,0.0
2639,70.0,0.0,40.0,3.0,0.0
2640,37.0,0.0,40.0,3.0,0.0
2641,78.0,4.0,90.0,0.0,0.0
2642,66.0,0.0,40.0,3.0,0.0
2643,72.0,0.0,40.0,3.0,0.0
2644,72.0,0.0,40.0,0.0,0.0
2645,63.0,0.0,40.0,3.0,0.0
2646,37.0,48.0,40.0,3.0,0.0
2647,62.0,0.0,40.0,3.0,0.0
2648,65.0,44.0,40.0,3.0,0.0
2649,73.0,0.0,40.0,0.0,0.0
2650,73.0,0.0,40.0,3.0,0.0
2651,37.0,0.0,40.0,3.0,0.0
2652,77.0,52.0,90.0,0.0,0.0
2653,61.0,48.0,40.0,3.0,0.0
2654,73.0,0.0,40.0,3.0,0.0
2655,59.0,0.0,40.0,3.0,0.0
2656,71.0,48.0,40.0,3.0,0.0
2657,57.0,0.0,40.0,3.0,0.0
2658,69.0,48.0,40.0,3.0,0.0
2659,70.0,48.0,40.0,3.0,0.0
2660,58.0,0.0,40.0,3.0,0.0
2661,55.0,0.0,40.0,3.0,0.0
2662,67.0,48.0,40.0,3.0,0.0
2663,69.0,0.0,40.0,3.0,0.0
2664,56.0,48.0,40.0,3.0,0.0
2665,53.0,0.0,40.0,3.0,0.0
2666,65.0,48.0,40.0,3.0,0.0
2667,66.0,0.0,40.0,3.0,0.0
2668,54.0,48.0,40.0,3.0,0.0
2669,52.0,0.0,40.0,3.0,0.0
2670,64.0,48.0,40.0,3.0,0.0
2671,53.0,0.0,40.0,3.0,0.0
2672,65.0,48.0,40.0,3.0,0.0
2673,59.0,48.0,40.0,3.0,0.0
2674,53.0,0.0,40.0,3.0,0.0
2675,74.0,0.0,40.0,0.0,0.0
2676,72.0,0.0,40.0,0.0,0.0
2677,62.0,0.0,40.0,3.0,0.0
2678,44.0,0.0,40.0,3.0,0.0
2679,58.0,0.0,40.0,3.0,0.0
2680,70.0,0.0,40.0,0.0,0.0
2681,54.0,0.0,40.0,3.0,0.0
2682,63.0,48.0,40.0,3.0,0.0
2683,75.0,0.0,40.0,0.0,0.0
2684,42.0,0.0,40.0,3.0,0.0
2685,69.0,48.0,40.0,3.0,0.0
2686,70.0,48.0,40.0,3.0,0.0
2687,57.0,0.0,40.0,3.0,0.0
2688,69.0,0.0,40.0,0.0,0.0
2689,60.0,48.0,40.0,3.0,0.0
2690,72.0,0.0,40.0,0.0,0.0
2691,42.0,0.0,40.0,3.0,0.0
2692,51.0,0.0,40.0,3.0,0.0
2693,56.0,0.0,40.0,3.0,0.0
2694,68.0,0.0,40.0,0.0,0.0
2695,61.0,0.0,40.0,3.0,0.0
2696,73.0,48.0,40.0,0.0,0.0
2697,53.0,0.0,40.0,3.0,0.0
2698,41.0,0.0,40.0,3.0,0.0
2699,67.0,48.0,40.0,3.0,0.0
2700,68.0,70.0,40.0,3.0,0.0
2701,37.0,0.0,60.0,3.0,0.0
2702,73.0,0.0,60.0,3.0,0.0
2703,73.0,0.0,90.0,0.0,0.0
2704,61.0,6.0,90.0,1.0,0.0
2705,61.0,0.0,60.0,3.0,0.0
2706,37.0,0.0,20.0,3.0,0.0
2707,73.0,0.0,20.0,3.0,0.0
2708,61.0,0.0,20.0,3.0,0.0
2709,77.0,0.0,60.0,3.0,0.0
2710,77.0,6.0,90.0,0.0,0.0
2711,65.0,0.0,60.0,3.0,0.0
2712,41.0,22.0,60.0,3.0,0.0
2713,77.0,0.0,20.0,3.0,0.0
2714,65.0,0.0,20.0,3.0,0.0
2715,41.0,0.0,20.0,3.0,0.0
2716,68.0,0.0,90.0,1.0,0.0
2717,44.0,0.0,90.0,3.0,0.0
2718,80.0,74.0,90.0,0.0,0.0
2719,68.0,0.0,90.0,3.0,0.0
2720,41.0,0.0,60.0,3.0,0.0
2721,65.0,0.0,60.0,3.0,0.0
2722,77.0,0.0,60.0,0.0,0.0
2723,73.0,90.0,20.0,0.0,0.0
2724,37.0,0.0,20.0,3.0,0.0
2725,61.0,0.0,20.0,3.0,0.0
2726,68.0,0.0,90.0,1.0,0.0
2727,44.0,96.0,90.0,3.0,0.0
2728,80.0,0.0,90.0,0.0,0.0
2729,56.0,0.0,90.0,3.0,0.0
2730,68.0,0.0,90.0,3.0,0.0
2731,68.0,96.0,90.0,1.0,0.0
2732,56.0,0.0,90.0,3.0,0.0
2733,68.0,0.0,90.0,0.0,0.0
2734,44.0,0.0,90.0,3.0,0.0
2735,32.0,0.0,90.0,3.0,0.0
2736,68.0,0.0,90.0,1.0,0.0
2737,65.0,0.0,90.0,0.0,0.0
2738,37.0,0.0,90.0,3.0,0.0
2739,73.0,0.0,90.0,0.0,0.0
2740,61.0,0.0,90.0,1.0,0.0
2741,53.0,0.0,90.0,3.0,0.0
2742,49.0,0.0,90.0,3.0,0.0
2743,61.0,0.0,90.0,3.0,0.0
2744,73.0,34.0,120.0,3.0,0.0
2745,65.0,0.0,120.0,3.0,0.0
2746,56.0,0.0,180.0,3.0,0.0
2747,44.0,0.0,180.0,3.0,0.0
2748,68.0,0.0,180.0,1.0,0.0
2749,63.0,0.0,20.0,3.0,0.0
2750,72.0,24.0,20.0,3.0,0.0
2751,65.0,24.0,20.0,3.0,0.0
2752,73.0,0.0,20.0,3.0,0.0
2753,75.0,0.0,20.0,3.0,0.0
2754,66.0,52.0,90.0,0.0,0.0
2755,66.0,24.0,20.0,3.0,0.0
2756,60.0,0.0,90.0,0.0,0.0
2757,63.0,0.0,20.0,3.0,0.0
2758,72.0,11.0,20.0,3.0,0.0
2759,75.0,23.0,15.0,3.0,0.0
2760,66.0,0.0,15.0,3.0,0.0
2761,72.0,7.0,15.0,3.0,0.0
2762,63.0,0.0,15.0,3.0,0.0
2763,65.0,0.0,90.0,3.0,0.0
2764,73.0,0.0,90.0,3.0,0.0
2765,37.0,0.0,90.0,3.0,0.0
2766,61.0,0.0,90.0,0.0,0.0
2767,61.0,44.0,40.0,1.0,0.0
2768,61.0,0.0,90.0,3.0,0.0
2769,65.0,96.0,90.0,0.0,0.0
2770,68.0,34.0,120.0,3.0,0.0
2771,68.0,44.0,90.0,1.0,0.0
2772,77.0,0.0,120.0,3.0,0.0
2773,73.0,0.0,120.0,3.0,0.0
2774,56.0,0.0,180.0,3.0,0.0
2775,32.0,0.0,180.0,3.0,0.0
2776,68.0,1.0,180.0,1.0,0.0
2777,72.0,0.0,20.0,3.0,0.0
2778,75.0,24.0,20.0,3.0,0.0
2779,77.0,24.0,20.0,3.0,0.0
2780,73.0,0.0,20.0,3.0,0.0
2781,75.0,0.0,20.0,3.0,0.0
2782,78.0,24.0,20.0,3.0,0.0
2783,72.0,0.0,90.0,0.0,0.0
2784,66.0,96.0,90.0,0.0,0.0
2785,72.0,0.0,20.0,3.0,0.0
2786,75.0,11.0,20.0,3.0,0.0
2787,78.0,23.0,15.0,3.0,0.0
2788,75.0,0.0,15.0,3.0,0.0
2789,75.0,0.0,15.0,3.0,0.0
2790,72.0,7.0,15.0,3.0,0.0
2791,61.0,0.0,90.0,3.0,0.0
2792,37.0,0.0,90.0,3.0,0.0
2793,73.0,0.0,90.0,0.0,0.0
2794,61.0,0.0,90.0,1.0,0.0
2795,68.0,0.0,90.0,1.0,0.0
2796,73.0,0.0,90.0,3.0,0.0
2797,65.0,0.0,90.0,0.0,0.0
2798,61.0,0.0,40.0,3.0,0.0
2799,65.0,0.0,40.0,3.0,0.0
2800,32.0,0.0,40.0,3.0,0.0
2801,73.0,0.0,40.0,0.0,0.0
2802,61.0,0.0,40.0,1.0,0.0
2803,68.0,0.0,40.0,3.0,0.0
2804,68.0,0.0,40.0,1.0,0.0
2805,73.0,96.0,40.0,3.0,0.0
2806,65.0,0.0,40.0,0.0,0.0
2807,61.0,0.0,40.0,1.0,0.0
2808,77.0,0.0,40.0,0.0,0.0
2809,68.0,96.0,40.0,3.0,0.0
2810,73.0,0.0,40.0,0.0,0.0
2811,73.0,0.0,40.0,3.0,0.0
2812,65.0,0.0,40.0,3.0,0.0
2813,68.0,0.0,40.0,1.0,0.0
2814,77.0,0.0,40.0,3.0,0.0
2815,29.0,0.0,40.0,3.0,0.0
2816,68.0,0.0,40.0,3.0,0.0
2817,77.0,0.0,40.0,3.0,0.0
2818,68.0,0.0,40.0,1.0,0.0
2819,61.0,0.0,40.0,3.0,0.0
2820,25.0,0.0,40.0,3.0,0.0
2821,80.0,0.0,40.0,3.0,0.0
2822,65.0,0.0,40.0,3.0,0.0
2823,77.0,0.0,40.0,0.0,0.0
2824,61.0,0.0,40.0,1.0,0.0
2825,80.0,67.0,40.0,0.0,0.0
2826,53.0,17.0,90.0,3.0,0.0
2827,61.0,13.0,40.0,1.0,0.0
2828,61.0,24.0,15.0,3.0,0.0
2829,37.0,0.0,40.0,3.0,0.0
2830,65.0,0.0,90.0,0.0,0.0
2831,56.0,11.0,15.0,3.0,0.0
2832,61.0,24.0,15.0,3.0,0.0
2833,68.0,4.0,90.0,0.0,0.0
2834,56.0,7.0,15.0,3.0,0.0
2835,60.0,13.0,15.0,3.0,0.0
2836,32.0,2.0,40.0,3.0,0.0
2837,68.0,0.0,40.0,1.0,0.0
2838,54.0,4.0,90.0,3.0,0.0
2839,66.0,0.0,90.0,0.0,0.0
2840,63.0,11.0,20.0,3.0,0.0
2841,56.0,7.0,15.0,3.0,0.0
2842,66.0,11.0,20.0,3.0,0.0
2843,72.0,2.0,40.0,0.0,0.0
2844,60.0,13.0,15.0,3.0,0.0
2845,65.0,11.0,20.0,3.0,0.0
2846,63.0,11.0,20.0,3.0,0.0
2847,56.0,7.0,15.0,3.0,0.0
2848,53.0,17.0,90.0,3.0,0.0
2849,37.0,13.0,40.0,3.0,0.0
2850,73.0,0.0,40.0,0.0,0.0
2851,65.0,0.0,90.0,0.0,0.0
2852,61.0,24.0,15.0,3.0,0.0
2853,61.0,0.0,40.0,1.0,0.0
2854,56.0,11.0,15.0,3.0,0.0
2855,61.0,24.0,15.0,3.0,0.0
2856,68.0,4.0,90.0,0.0,0.0
2857,56.0,7.0,15.0,3.0,0.0
2858,63.0,11.0,20.0,3.0,0.0
2859,68.0,0.0,40.0,1.0,0.0
2860,60.0,13.0,15.0,3.0,0.0
2861,54.0,4.0,90.0,3.0,0.0
2862,32.0,2.0,40.0,3.0,0.0
2863,66.0,0.0,90.0,0.0,0.0
2864,66.0,11.0,20.0,3.0,0.0
2865,56.0,7.0,15.0,3.0,0.0
2866,60.0,13.0,15.0,3.0,0.0
2867,65.0,11.0,20.0,3.0,0.0
2868,72.0,2.0,40.0,0.0,0.0
2869,63.0,11.0,20.0,3.0,0.0
2870,56.0,7.0,15.0,3.0,0.0
2871,53.0,0.0,90.0,3.0,0.0
2872,61.0,0.0,40.0,1.0,0.0
2873,37.0,13.0,40.0,3.0,0.0
2874,73.0,0.0,40.0,0.0,0.0
2875,61.0,10.0,15.0,3.0,0.0
2876,65.0,17.0,90.0,0.0,0.0
2877,56.0,11.0,15.0,3.0,0.0
2878,68.0,4.0,90.0,0.0,0.0
2879,61.0,10.0,15.0,3.0,0.0
2880,56.0,7.0,15.0,3.0,0.0
2881,66.0,4.0,90.0,0.0,0.0
2882,32.0,2.0,40.0,3.0,0.0
2883,60.0,13.0,15.0,3.0,0.0
2884,68.0,0.0,40.0,1.0,0.0
2885,63.0,11.0,20.0,3.0,0.0
2886,54.0,0.0,90.0,3.0,0.0
2887,56.0,7.0,15.0,3.0,0.0
2888,66.0,11.0,20.0,3.0,0.0
2889,65.0,11.0,20.0,3.0,0.0
2890,72.0,2.0,40.0,0.0,0.0
2891,60.0,13.0,15.0,3.0,0.0
2892,63.0,46.0,20.0,3.0,0.0
2893,56.0,7.0,15.0,3.0,0.0
2894,73.0,44.0,40.0,0.0,0.0
2895,65.0,0.0,90.0,0.0,0.0
2896,61.0,0.0,90.0,3.0,0.0
2897,61.0,0.0,90.0,1.0,0.0
2898,25.0,0.0,90.0,3.0,0.0
2899,53.0,48.0,90.0,3.0,0.0
2900,68.0,52.0,90.0,0.0,0.0
2901,72.0,48.0,40.0,0.0,0.0
2902,61.0,48.0,40.0,2.0,0.0
2903,65.0,0.0,40.0,2.0,0.0
2904,68.0,8.0,120.0,2.0,0.0
2905,65.0,0.0,40.0,2.0,0.0
2906,61.0,40.0,40.0,2.0,0.0
2907,61.0,26.0,40.0,2.0,0.0
2908,65.0,0.0,40.0,2.0,0.0
2909,70.0,22.0,20.0,2.0,0.0
2910,61.0,2.0,40.0,2.0,0.0
2911,65.0,0.0,40.0,2.0,0.0
2912,67.0,46.0,20.0,2.0,0.0
2913,68.0,0.0,40.0,2.0,0.0
2914,65.0,26.0,40.0,2.0,0.0
2915,61.0,0.0,40.0,2.0,0.0
2916,70.0,22.0,20.0,2.0,0.0
2917,61.0,2.0,40.0,2.0,0.0
2918,65.0,0.0,40.0,2.0,0.0
2919,72.0,24.0,20.0,2.0,0.0
2920,73.0,22.0,20.0,2.0,0.0
2921,65.0,0.0,40.0,2.0,0.0
2922,61.0,2.0,40.0,2.0,0.0
2923,75.0,24.0,20.0,2.0,0.0
2924,77.0,22.0,20.0,2.0,0.0
2925,65.0,2.0,40.0,2.0,0.0
2926,61.0,0.0,40.0,2.0,0.0
2927,73.0,46.0,20.0,2.0,0.0
2928,63.0,0.0,90.0,2.0,0.0
2929,60.0,4.0,90.0,2.0,0.0
2930,44.0,12.0,180.0,3.0,0.0
2931,68.0,0.0,40.0,0.0,0.0
2932,51.0,8.0,120.0,3.0,0.0
2933,60.0,0.0,120.0,3.0,0.0
2934,78.0,44.0,40.0,2.0,0.0
2935,72.0,0.0,40.0,0.0,0.0
2936,56.0,0.0,120.0,3.0,0.0
2937,75.0,0.0,40.0,2.0,0.0
2938,72.0,40.0,40.0,0.0,0.0
2939,75.0,0.0,40.0,0.0,0.0
2940,78.0,0.0,180.0,0.0,0.0
2941,72.0,36.0,40.0,2.0,0.0
2942,75.0,8.0,180.0,0.0,0.0
2943,48.0,0.0,40.0,3.0,0.0
2944,63.0,0.0,40.0,3.0,0.0
2945,60.0,0.0,40.0,3.0,0.0
2946,68.0,48.0,40.0,2.0,0.0
2947,44.0,4.0,90.0,3.0,0.0
2948,66.0,36.0,40.0,2.0,0.0
2949,63.0,0.0,40.0,3.0,0.0
2950,32.0,0.0,90.0,3.0,0.0
2951,60.0,0.0,40.0,3.0,0.0
2952,44.0,0.0,40.0,2.0,0.0
2953,63.0,0.0,40.0,3.0,0.0
2954,66.0,48.0,40.0,3.0,0.0
2955,63.0,0.0,40.0,2.0,0.0
2956,56.0,0.0,40.0,2.0,0.0
2957,55.0,0.0,40.0,2.0,0.0
2958,43.0,48.0,40.0,2.0,0.0
2959,44.0,0.0,40.0,2.0,0.0
2960,56.0,48.0,40.0,2.0,0.0
2961,53.0,0.0,40.0,3.0,0.0
2962,53.0,22.0,40.0,2.0,0.0
2963,68.0,26.0,60.0,2.0,0.0
2964,61.0,0.0,40.0,2.0,0.0
2965,73.0,2.0,40.0,3.0,0.0
2966,61.0,0.0,40.0,3.0,0.0
2967,69.0,7.0,20.0,2.0,0.0
2968,54.0,0.0,40.0,2.0,0.0
2969,54.0,0.0,40.0,3.0,0.0
2970,71.0,39.0,15.0,2.0,0.0
2971,70.0,26.0,40.0,2.0,0.0
2972,68.0,22.0,20.0,2.0,0.0
2973,63.0,2.0,40.0,3.0,0.0
2974,61.0,0.0,40.0,2.0,0.0
2975,66.0,0.0,40.0,3.0,0.0
2976,66.0,46.0,20.0,2.0,0.0
2977,56.0,0.0,40.0,3.0,0.0
2978,56.0,44.0,40.0,2.0,0.0
2979,65.0,4.0,90.0,2.0,0.0
2980,65.0,0.0,40.0,3.0,0.0
2981,61.0,48.0,40.0,2.0,0.0
2982,61.0,0.0,40.0,3.0,0.0
2983,56.0,44.0,40.0,2.0,0.0
2984,63.0,4.0,90.0,2.0,0.0
2985,56.0,0.0,40.0,3.0,0.0
2986,60.0,0.0,40.0,3.0,0.0
2987,63.0,0.0,40.0,3.0,0.0
2988,60.0,48.0,40.0,2.0,0.0
2989,56.0,0.0,120.0,3.0,0.0
2990,68.0,0.0,40.0,0.0,0.0
2991,60.0,0.0,90.0,2.0,0.0
2992,56.0,4.0,90.0,2.0,0.0
2993,78.0,44.0,40.0,2.0,0.0
2994,60.0,0.0,120.0,3.0,0.0
2995,72.0,0.0,40.0,0.0,0.0
2996,51.0,8.0,120.0,3.0,0.0
2997,44.0,12.0,180.0,3.0,0.0
2998,75.0,0.0,40.0,2.0,0.0
2999,75.0,40.0,40.0,0.0,0.0
3000,72.0,0.0,40.0,0.0,0.0
3001,72.0,36.0,40.0,2.0,0.0
3002,75.0,8.0,180.0,0.0,0.0
3003,78.0,0.0,180.0,0.0,0.0
3004,60.0,0.0,40.0,3.0,0.0
3005,48.0,48.0,40.0,3.0,0.0
3006,63.0,0.0,40.0,3.0,0.0
3007,68.0,0.0,40.0,2.0,0.0
3008,44.0,4.0,90.0,3.0,0.0
3009,60.0,36.0,40.0,3.0,0.0
3010,32.0,0.0,90.0,3.0,0.0
3011,63.0,0.0,40.0,3.0,0.0
3012,66.0,0.0,40.0,2.0,0.0
3013,66.0,0.0,40.0,3.0,0.0
3014,56.0,0.0,40.0,2.0,0.0
3015,44.0,48.0,40.0,2.0,0.0
3016,63.0,0.0,40.0,3.0,0.0
3017,63.0,0.0,40.0,2.0,0.0
3018,55.0,48.0,40.0,2.0,0.0
3019,43.0,0.0,40.0,2.0,0.0
3020,56.0,26.0,40.0,2.0,0.0
3021,44.0,0.0,40.0,2.0,0.0
3022,72.0,2.0,40.0,0.0,0.0
3023,68.0,0.0,40.0,0.0,0.0
3024,77.0,22.0,20.0,2.0,0.0
3025,56.0,0.0,120.0,3.0,0.0
3026,44.0,12.0,180.0,3.0,0.0
3027,60.0,10.0,120.0,3.0,0.0
3028,51.0,0.0,120.0,3.0,0.0
3029,78.0,24.0,20.0,2.0,0.0
3030,72.0,2.0,40.0,0.0,0.0
3031,74.0,22.0,20.0,2.0,0.0
3032,75.0,0.0,40.0,0.0,0.0
3033,75.0,24.0,20.0,2.0,0.0
3034,78.0,8.0,180.0,0.0,0.0
3035,75.0,0.0,180.0,0.0,0.0
3036,71.0,14.0,20.0,2.0,0.0
3037,71.0,24.0,20.0,2.0,0.0
3038,60.0,0.0,40.0,3.0,0.0
3039,63.0,2.0,40.0,3.0,0.0
3040,67.0,10.0,20.0,2.0,0.0
3041,48.0,0.0,40.0,3.0,0.0
3042,68.0,46.0,20.0,2.0,0.0
3043,44.0,0.0,90.0,3.0,0.0
3044,66.0,0.0,40.0,2.0,0.0
3045,60.0,0.0,40.0,3.0,0.0
3046,32.0,4.0,90.0,3.0,0.0
3047,63.0,36.0,40.0,3.0,0.0
3048,66.0,48.0,40.0,3.0,0.0
3049,56.0,0.0,40.0,2.0,0.0
3050,63.0,0.0,40.0,3.0,0.0
3051,44.0,0.0,40.0,2.0,0.0
3052,63.0,0.0,40.0,2.0,0.0
3053,55.0,48.0,40.0,2.0,0.0
3054,43.0,0.0,40.0,2.0,0.0
3055,56.0,0.0,40.0,2.0,0.0
3056,44.0,26.0,40.0,2.0,0.0
3057,68.0,22.0,20.0,2.0,0.0
3058,53.0,2.0,40.0,2.0,0.0
3059,53.0,0.0,40.0,3.0,0.0
3060,70.0,24.0,20.0,2.0,0.0
3061,61.0,0.0,40.0,2.0,0.0
3062,73.0,0.0,40.0,3.0,0.0
3063,61.0,2.0,40.0,3.0,0.0
3064,72.0,22.0,20.0,2.0,0.0
3065,73.0,24.0,20.0,2.0,0.0
3066,54.0,0.0,40.0,2.0,0.0
3067,54.0,2.0,40.0,3.0,0.0
3068,72.0,22.0,20.0,2.0,0.0
3069,70.0,24.0,20.0,2.0,0.0
3070,68.0,22.0,20.0,2.0,0.0
3071,61.0,0.0,40.0,3.0,0.0
3072,61.0,0.0,40.0,2.0,0.0
3073,66.0,2.0,40.0,3.0,0.0
3074,66.0,24.0,20.0,2.0,0.0
3075,56.0,2.0,40.0,2.0,0.0
3076,56.0,0.0,40.0,3.0,0.0
3077,65.0,22.0,20.0,2.0,0.0
3078,66.0,24.0,20.0,2.0,0.0
3079,61.0,0.0,40.0,3.0,0.0
3080,65.0,0.0,40.0,3.0,0.0
3081,61.0,2.0,40.0,2.0,0.0
3082,68.0,22.0,20.0,2.0,0.0
3083,70.0,24.0,20.0,2.0,0.0
3084,68.0,22.0,20.0,2.0,0.0
3085,56.0,0.0,40.0,2.0,0.0
3086,56.0,2.0,40.0,3.0,0.0
3087,66.0,24.0,20.0,2.0,0.0
3088,60.0,2.0,40.0,3.0,0.0
3089,60.0,0.0,40.0,2.0,0.0
3090,63.0,0.0,40.0,3.0,0.0
3091,65.0,22.0,20.0,2.0,0.0
3092,63.0,24.0,20.0,2.0,0.0
3093,56.0,0.0,90.0,2.0,0.0
3094,49.0,6.0,90.0,2.0,0.0
3095,61.0,0.0,90.0,2.0,0.0
3096,61.0,0.0,20.0,3.0,0.0
3097,37.0,24.0,20.0,3.0,0.0
3098,39.0,0.0,20.0,3.0,0.0
3099,63.0,0.0,20.0,3.0,0.0
3100,41.0,0.0,20.0,3.0,0.0
3101,65.0,0.0,20.0,3.0,0.0
3102,42.0,0.0,20.0,3.0,0.0
3103,66.0,0.0,20.0,3.0,0.0
3104,41.0,24.0,20.0,3.0,0.0
3105,65.0,0.0,20.0,3.0,0.0
3106,39.0,0.0,20.0,3.0,0.0
3107,63.0,0.0,20.0,3.0,0.0
3108,37.0,0.0,20.0,3.0,0.0
3109,61.0,0.0,20.0,3.0,0.0
3110,35.0,0.0,20.0,3.0,0.0
3111,59.0,0.0,20.0,3.0,0.0
3112,58.0,0.0,20.0,3.0,0.0
3113,34.0,0.0,20.0,3.0,0.0
3114,35.0,24.0,20.0,3.0,0.0
3115,59.0,0.0,20.0,3.0,0.0
3116,37.0,24.0,20.0,3.0,0.0
3117,61.0,0.0,20.0,3.0,0.0
3118,39.0,24.0,20.0,3.0,0.0
3119,63.0,0.0,20.0,3.0,0.0
3120,37.0,0.0,20.0,3.0,0.0
3121,61.0,0.0,20.0,3.0,0.0
3122,35.0,0.0,20.0,3.0,0.0
3123,59.0,0.0,20.0,3.0,0.0
3124,58.0,0.0,20.0,3.0,0.0
3125,34.0,24.0,20.0,3.0,0.0
3126,56.0,0.0,20.0,3.0,0.0
3127,32.0,0.0,20.0,3.0,0.0
3128,31.0,0.0,90.0,2.0,0.0
3129,43.0,0.0,90.0,2.0,0.0
3130,55.0,0.0,90.0,3.0,0.0
3131,31.0,0.0,90.0,3.0,0.0
3132,73.0,24.0,20.0,2.0,0.0
3133,76.0,18.0,20.0,2.0,0.0
3134,73.0,24.0,20.0,2.0,0.0
3135,73.0,0.0,180.0,0.0,0.0
3136,70.0,24.0,20.0,2.0,0.0
3137,76.0,14.0,180.0,0.0,0.0
3138,73.0,24.0,20.0,2.0,0.0
3139,67.0,24.0,20.0,2.0,0.0
3140,70.0,24.0,20.0,2.0,0.0
3141,64.0,24.0,20.0,2.0,0.0
3142,67.0,24.0,20.0,2.0,0.0
3143,61.0,10.0,20.0,2.0,0.0
3144,64.0,24.0,20.0,2.0,0.0
3145,73.0,6.0,90.0,0.0,0.0
3146,70.0,0.0,90.0,0.0,0.0
3147,58.0,24.0,20.0,2.0,0.0
3148,61.0,24.0,20.0,2.0,0.0
3149,55.0,18.0,20.0,2.0,0.0
3150,58.0,48.0,20.0,2.0,0.0
3151,32.0,0.0,90.0,3.0,0.0
3152,32.0,0.0,90.0,2.0,0.0
3153,56.0,0.0,90.0,3.0,0.0
3154,44.0,6.0,90.0,2.0,0.0
3155,75.0,24.0,20.0,2.0,0.0
3156,80.0,18.0,20.0,2.0,0.0
3157,75.0,24.0,20.0,2.0,0.0
3158,75.0,0.0,180.0,0.0,0.0
3159,71.0,24.0,20.0,2.0,0.0
3160,71.0,14.0,180.0,0.0,0.0
3161,75.0,24.0,20.0,2.0,0.0
3162,68.0,24.0,20.0,2.0,0.0
3163,71.0,24.0,20.0,2.0,0.0
3164,63.0,24.0,20.0,2.0,0.0
3165,68.0,24.0,20.0,2.0,0.0
3166,59.0,10.0,20.0,2.0,0.0
3167,63.0,24.0,20.0,2.0,0.0
3168,68.0,0.0,90.0,0.0,0.0
3169,71.0,6.0,90.0,0.0,0.0
3170,56.0,24.0,20.0,2.0,0.0
3171,59.0,24.0,20.0,2.0,0.0
3172,51.0,18.0,20.0,2.0,0.0
3173,56.0,48.0,20.0,2.0,0.0
3174,45.0,0.0,90.0,2.0,0.0
3175,33.0,6.0,90.0,3.0,0.0
3176,57.0,0.0,90.0,3.0,0.0
3177,33.0,0.0,90.0,2.0,0.0
3178,75.0,24.0,20.0,2.0,0.0
3179,78.0,18.0,20.0,2.0,0.0
3180,75.0,24.0,20.0,2.0,0.0
3181,72.0,24.0,20.0,2.0,0.0
3182,75.0,14.0,180.0,0.0,0.0
3183,78.0,0.0,180.0,0.0,0.0
3184,75.0,24.0,20.0,2.0,0.0
3185,69.0,24.0,20.0,2.0,0.0
3186,72.0,24.0,20.0,2.0,0.0
3187,66.0,24.0,20.0,2.0,0.0
3188,69.0,24.0,20.0,2.0,0.0
3189,63.0,10.0,20.0,2.0,0.0
3190,66.0,24.0,20.0,2.0,0.0
3191,75.0,6.0,90.0,0.0,0.0
3192,71.0,0.0,90.0,0.0,0.0
3193,60.0,24.0,20.0,2.0,0.0
3194,63.0,24.0,20.0,2.0,0.0
3195,57.0,18.0,20.0,2.0,0.0
3196,60.0,24.0,20.0,2.0,0.0
3197,74.0,0.0,40.0,0.0,0.0
3198,58.0,0.0,90.0,3.0,0.0
3199,46.0,22.0,20.0,2.0,0.0
3200,70.0,2.0,40.0,0.0,0.0
3201,34.0,4.0,90.0,3.0,0.0
3202,58.0,24.0,20.0,2.0,0.0
3203,57.0,18.0,20.0,2.0,0.0
3204,70.0,2.0,40.0,2.0,0.0
3205,58.0,24.0,20.0,2.0,0.0
3206,77.0,2.0,40.0,2.0,0.0
3207,56.0,22.0,20.0,2.0,0.0
3208,58.0,24.0,20.0,2.0,0.0
3209,54.0,22.0,20.0,2.0,0.0
3210,75.0,2.0,40.0,2.0,0.0
3211,58.0,24.0,20.0,2.0,0.0
3212,74.0,2.0,40.0,2.0,0.0
3213,53.0,22.0,20.0,2.0,0.0
3214,58.0,24.0,20.0,2.0,0.0
3215,71.0,2.0,40.0,2.0,0.0
3216,51.0,22.0,20.0,2.0,0.0
3217,58.0,24.0,20.0,2.0,0.0
3218,50.0,22.0,20.0,2.0,0.0
3219,70.0,2.0,40.0,2.0,0.0
3220,58.0,24.0,20.0,2.0,0.0
3221,46.0,22.0,20.0,2.0,0.0
3222,68.0,2.0,40.0,2.0,0.0
3223,58.0,24.0,20.0,2.0,0.0
3224,51.0,22.0,20.0,2.0,0.0
3225,66.0,2.0,40.0,2.0,0.0
3226,58.0,24.0,20.0,2.0,0.0
3227,54.0,22.0,20.0,2.0,0.0
3228,82.0,2.0,40.0,2.0,0.0
3229,70.0,0.0,40.0,2.0,0.0
3230,58.0,24.0,20.0,2.0,0.0
3231,53.0,22.0,20.0,2.0,0.0
3232,69.0,0.0,40.0,2.0,0.0
3233,81.0,2.0,40.0,2.0,0.0
3234,58.0,24.0,20.0,2.0,0.0
3235,50.0,22.0,20.0,2.0,0.0
3236,68.0,0.0,40.0,2.0,0.0
3237,80.0,2.0,40.0,2.0,0.0
3238,58.0,24.0,20.0,2.0,0.0
3239,67.0,0.0,40.0,2.0,0.0
3240,79.0,2.0,40.0,2.0,0.0
3241,51.0,22.0,20.0,2.0,0.0
3242,58.0,24.0,20.0,2.0,0.0
3243,78.0,2.0,40.0,2.0,0.0
3244,66.0,0.0,40.0,2.0,0.0
3245,47.0,22.0,20.0,2.0,0.0
3246,51.0,24.0,20.0,2.0,0.0
3247,44.0,22.0,20.0,2.0,0.0
3248,65.0,0.0,40.0,2.0,0.0
3249,77.0,2.0,40.0,2.0,0.0
3250,53.0,24.0,20.0,2.0,0.0
3251,75.0,2.0,40.0,2.0,0.0
3252,45.0,22.0,20.0,2.0,0.0
3253,63.0,0.0,40.0,2.0,0.0
3254,53.0,24.0,20.0,2.0,0.0
3255,74.0,2.0,40.0,2.0,0.0
3256,62.0,0.0,40.0,2.0,0.0
3257,46.0,22.0,20.0,2.0,0.0
3258,58.0,24.0,20.0,2.0,0.0
3259,70.0,2.0,40.0,2.0,0.0
3260,57.0,22.0,20.0,2.0,0.0
3261,58.0,24.0,20.0,2.0,0.0
3262,77.0,0.0,20.0,2.0,0.0
3263,56.0,24.0,20.0,2.0,0.0
3264,58.0,24.0,20.0,2.0,0.0
3265,78.0,0.0,20.0,2.0,0.0
3266,54.0,24.0,20.0,2.0,0.0
3267,75.0,0.0,20.0,2.0,0.0
3268,77.0,0.0,20.0,2.0,0.0
3269,58.0,24.0,20.0,2.0,0.0
3270,74.0,0.0,20.0,2.0,0.0
3271,53.0,24.0,20.0,2.0,0.0
3272,58.0,0.0,20.0,2.0,0.0
3273,75.0,24.0,20.0,2.0,0.0
3274,71.0,24.0,20.0,2.0,0.0
3275,51.0,0.0,20.0,2.0,0.0
3276,58.0,0.0,20.0,2.0,0.0
3277,73.0,24.0,20.0,2.0,0.0
3278,70.0,24.0,20.0,2.0,0.0
3279,50.0,0.0,20.0,2.0,0.0
3280,71.0,24.0,20.0,2.0,0.0
3281,58.0,0.0,20.0,2.0,0.0
3282,68.0,24.0,20.0,2.0,0.0
3283,46.0,0.0,20.0,2.0,0.0
3284,70.0,24.0,20.0,2.0,0.0
3285,58.0,0.0,20.0,2.0,0.0
3286,51.0,22.0,20.0,2.0,0.0
3287,66.0,2.0,40.0,2.0,0.0
3288,58.0,24.0,20.0,2.0,0.0
3289,70.0,24.0,20.0,2.0,0.0
3290,54.0,0.0,20.0,2.0,0.0
3291,58.0,0.0,20.0,2.0,0.0
3292,82.0,24.0,20.0,2.0,0.0
3293,53.0,0.0,20.0,2.0,0.0
3294,69.0,24.0,20.0,2.0,0.0
3295,81.0,24.0,20.0,2.0,0.0
3296,58.0,0.0,20.0,2.0,0.0
3297,68.0,0.0,20.0,2.0,0.0
3298,50.0,24.0,20.0,2.0,0.0
3299,80.0,0.0,20.0,2.0,0.0
3300,58.0,24.0,20.0,2.0,0.0
3301,67.0,0.0,20.0,2.0,0.0
3302,51.0,24.0,20.0,2.0,0.0
3303,79.0,24.0,20.0,2.0,0.0
3304,58.0,0.0,20.0,2.0,0.0
3305,66.0,24.0,20.0,2.0,0.0
3306,47.0,0.0,20.0,2.0,0.0
3307,78.0,24.0,20.0,2.0,0.0
3308,51.0,0.0,20.0,2.0,0.0
3309,44.0,0.0,20.0,2.0,0.0
3310,65.0,24.0,20.0,2.0,0.0
3311,53.0,24.0,20.0,2.0,0.0
3312,77.0,0.0,20.0,2.0,0.0
3313,45.0,0.0,20.0,2.0,0.0
3314,63.0,24.0,20.0,2.0,0.0
3315,54.0,24.0,20.0,2.0,0.0
3316,75.0,0.0,20.0,2.0,0.0
3317,53.0,0.0,90.0,2.0,0.0
3318,74.0,24.0,20.0,2.0,0.0
3319,46.0,0.0,90.0,2.0,0.0
3320,75.0,24.0,20.0,2.0,0.0
3321,77.0,18.0,20.0,2.0,0.0
3322,58.0,4.0,40.0,3.0,0.0
3323,53.0,2.0,40.0,3.0,0.0
3324,75.0,7.0,20.0,2.0,0.0
3325,58.0,26.0,40.0,3.0,0.0
3326,75.0,39.0,15.0,2.0,0.0
3327,62.0,0.0,40.0,3.0,0.0
3328,74.0,0.0,40.0,2.0,0.0
3329,62.0,2.0,40.0,3.0,0.0
3330,65.0,0.0,40.0,3.0,0.0
3331,72.0,22.0,20.0,2.0,0.0
3332,70.0,24.0,20.0,2.0,0.0
3333,56.0,0.0,90.0,3.0,0.0
3334,74.0,24.0,20.0,2.0,0.0
3335,44.0,0.0,90.0,2.0,0.0
3336,46.0,0.0,90.0,2.0,0.0
3337,50.0,4.0,90.0,2.0,0.0
3338,53.0,0.0,90.0,2.0,0.0
3339,75.0,24.0,20.0,2.0,0.0
3340,77.0,18.0,20.0,2.0,0.0
3341,58.0,2.0,40.0,3.0,0.0
3342,62.0,0.0,40.0,3.0,0.0
3343,75.0,7.0,20.0,2.0,0.0
3344,65.0,0.0,40.0,3.0,0.0
3345,75.0,39.0,15.0,2.0,0.0
3346,62.0,0.0,40.0,3.0,0.0
3347,74.0,26.0,40.0,2.0,0.0
3348,70.0,2.0,40.0,3.0,0.0
3349,65.0,0.0,40.0,3.0,0.0
3350,72.0,22.0,20.0,2.0,0.0
3351,70.0,24.0,20.0,2.0,0.0
3352,54.0,0.0,40.0,2.0,0.0
3353,70.0,0.0,40.0,3.0,0.0
3354,39.0,0.0,40.0,3.0,0.0
3355,51.0,0.0,40.0,2.0,0.0
3356,78.0,2.0,40.0,3.0,0.0
3357,54.0,0.0,40.0,3.0,0.0
3358,82.0,22.0,20.0,2.0,0.0
3359,78.0,24.0,20.0,2.0,0.0
3360,77.0,0.0,40.0,3.0,0.0
3361,56.0,2.0,40.0,2.0,0.0
3362,53.0,0.0,40.0,2.0,0.0
3363,56.0,0.0,40.0,3.0,0.0
3364,77.0,22.0,20.0,2.0,0.0
3365,41.0,0.0,40.0,3.0,0.0
3366,68.0,0.0,40.0,3.0,0.0
3367,80.0,24.0,20.0,2.0,0.0
3368,42.0,0.0,40.0,3.0,0.0
3369,58.0,0.0,40.0,3.0,0.0
3370,66.0,0.0,40.0,3.0,0.0
3371,78.0,22.0,20.0,2.0,0.0
3372,58.0,0.0,40.0,2.0,0.0
3373,54.0,0.0,40.0,2.0,0.0
3374,75.0,2.0,40.0,3.0,0.0
3375,75.0,24.0,20.0,2.0,0.0
3376,59.0,0.0,40.0,2.0,0.0
3377,59.0,2.0,40.0,3.0,0.0
3378,74.0,22.0,20.0,2.0,0.0
3379,74.0,0.0,40.0,3.0,0.0
3380,65.0,0.0,40.0,3.0,0.0
3381,56.0,0.0,40.0,2.0,0.0
3382,44.0,0.0,40.0,3.0,0.0
3383,77.0,24.0,20.0,2.0,0.0
3384,75.0,0.0,90.0,3.0,0.0
3385,63.0,6.0,90.0,3.0,0.0
3386,54.0,0.0,90.0,2.0,0.0
3387,58.0,0.0,90.0,2.0,0.0
3388,42.0,0.0,90.0,3.0,0.0
3389,75.0,24.0,20.0,2.0,0.0
3390,58.0,0.0,90.0,3.0,0.0
3391,74.0,24.0,20.0,2.0,0.0
3392,75.0,18.0,20.0,2.0,0.0
3393,74.0,24.0,20.0,2.0,0.0
3394,55.0,6.0,90.0,2.0,0.0
3395,75.0,24.0,20.0,2.0,0.0
3396,76.0,24.0,20.0,2.0,0.0
3397,75.0,18.0,20.0,2.0,0.0
3398,76.0,24.0,20.0,2.0,0.0
3399,75.0,22.0,20.0,2.0,0.0
3400,56.0,2.0,40.0,2.0,0.0
3401,32.0,0.0,40.0,3.0,0.0
3402,71.0,0.0,40.0,3.0,0.0
3403,47.0,0.0,40.0,3.0,0.0
3404,63.0,0.0,40.0,3.0,0.0
3405,59.0,0.0,40.0,2.0,0.0
3406,71.0,24.0,20.0,2.0,0.0
3407,61.0,0.0,40.0,3.0,0.0
3408,58.0,0.0,40.0,2.0,0.0
3409,49.0,0.0,40.0,3.0,0.0
3410,61.0,0.0,40.0,2.0,0.0
3411,34.0,0.0,40.0,3.0,0.0
3412,70.0,2.0,40.0,3.0,0.0
3413,70.0,22.0,20.0,2.0,0.0
3414,73.0,24.0,20.0,2.0,0.0
3415,35.0,0.0,40.0,3.0,0.0
3416,59.0,0.0,40.0,3.0,0.0
3417,59.0,0.0,40.0,2.0,0.0
3418,68.0,2.0,40.0,3.0,0.0
3419,51.0,0.0,40.0,3.0,0.0
3420,63.0,0.0,40.0,2.0,0.0
3421,71.0,22.0,20.0,2.0,0.0
3422,68.0,24.0,20.0,2.0,0.0
3423,67.0,2.0,40.0,3.0,0.0
3424,52.0,0.0,40.0,3.0,0.0
3425,37.0,0.0,40.0,3.0,0.0
3426,61.0,0.0,40.0,2.0,0.0
3427,64.0,0.0,40.0,2.0,0.0
3428,58.0,0.0,40.0,3.0,0.0
3429,66.0,22.0,20.0,2.0,0.0
3430,70.0,24.0,20.0,2.0,0.0
3431,63.0,0.0,90.0,2.0,0.0
3432,51.0,0.0,90.0,3.0,0.0
3433,56.0,0.0,90.0,3.0,0.0
3434,68.0,0.0,90.0,3.0,0.0
3435,68.0,24.0,20.0,2.0,0.0
3436,59.0,0.0,90.0,2.0,0.0
3437,35.0,6.0,90.0,3.0,0.0
3438,66.0,24.0,20.0,2.0,0.0
3439,68.0,18.0,20.0,2.0,0.0
3440,66.0,24.0,20.0,2.0,0.0
3441,68.0,24.0,20.0,2.0,0.0
3442,70.0,24.0,20.0,2.0,0.0
3443,68.0,24.0,20.0,2.0,0.0
3444,70.0,24.0,20.0,2.0,0.0
3445,71.0,22.0,20.0,2.0,0.0
3446,56.0,2.0,40.0,2.0,0.0
3447,70.0,24.0,20.0,2.0,0.0
3448,71.0,22.0,20.0,2.0,0.0
3449,63.0,2.0,40.0,2.0,0.0
3450,70.0,7.0,20.0,2.0,0.0
3451,32.0,0.0,40.0,3.0,0.0
3452,65.0,0.0,40.0,3.0,0.0
3453,73.0,39.0,15.0,2.0,0.0
3454,68.0,0.0,40.0,3.0,0.0
3455,56.0,0.0,40.0,2.0,0.0
3456,59.0,0.0,40.0,3.0,0.0
3457,71.0,26.0,40.0,2.0,0.0
3458,65.0,2.0,40.0,2.0,0.0
3459,70.0,22.0,20.0,2.0,0.0
3460,68.0,46.0,20.0,2.0,0.0
3461,58.0,44.0,40.0,2.0,0.0
3462,58.0,0.0,40.0,3.0,0.0
3463,63.0,0.0,40.0,3.0,0.0
3464,66.0,0.0,40.0,3.0,0.0
3465,66.0,4.0,90.0,2.0,0.0
3466,34.0,0.0,40.0,3.0,0.0
3467,63.0,48.0,40.0,2.0,0.0
3468,58.0,0.0,40.0,3.0,0.0
3469,62.0,0.0,40.0,3.0,0.0
3470,58.0,0.0,40.0,2.0,0.0
3471,65.0,0.0,40.0,3.0,0.0
3472,65.0,4.0,90.0,2.0,0.0
3473,34.0,44.0,40.0,3.0,0.0
3474,62.0,26.0,40.0,2.0,0.0
3475,82.0,22.0,20.0,2.0,0.0
3476,82.0,12.0,180.0,0.0,0.0
3477,78.0,2.0,40.0,2.0,0.0
3478,83.0,24.0,20.0,2.0,0.0
3479,80.0,22.0,20.0,2.0,0.0
3480,74.0,2.0,40.0,2.0,0.0
3481,77.0,24.0,20.0,2.0,0.0
3482,75.0,2.0,40.0,2.0,0.0
3483,78.0,22.0,20.0,2.0,0.0
3484,80.0,24.0,20.0,2.0,0.0
3485,70.0,2.0,40.0,2.0,0.0
3486,77.0,10.0,20.0,2.0,0.0
3487,74.0,24.0,20.0,2.0,0.0
3488,75.0,12.0,360.0,0.0,0.0
3489,75.0,0.0,20.0,2.0,0.0
3490,71.0,24.0,20.0,2.0,0.0
3491,70.0,24.0,20.0,2.0,0.0
3492,74.0,0.0,20.0,2.0,0.0
3493,75.0,0.0,20.0,2.0,0.0
3494,71.0,24.0,20.0,2.0,0.0
3495,70.0,24.0,20.0,2.0,0.0
3496,74.0,0.0,20.0,2.0,0.0
3497,71.0,24.0,20.0,2.0,0.0
3498,75.0,0.0,20.0,2.0,0.0
3499,74.0,24.0,20.0,2.0,0.0
3500,70.0,0.0,20.0,2.0,0.0
3501,71.0,0.0,20.0,2.0,0.0
3502,75.0,24.0,20.0,2.0,0.0
3503,70.0,0.0,20.0,2.0,0.0
3504,74.0,24.0,20.0,2.0,0.0
3505,71.0,2.0,40.0,2.0,0.0
3506,75.0,22.0,20.0,2.0,0.0
3507,76.0,24.0,20.0,2.0,0.0
3508,66.0,2.0,40.0,2.0,0.0
3509,73.0,22.0,20.0,2.0,0.0
3510,70.0,24.0,20.0,2.0,0.0
3511,71.0,22.0,20.0,2.0,0.0
3512,68.0,2.0,40.0,2.0,0.0
3513,73.0,24.0,20.0,2.0,0.0
3514,61.0,2.0,40.0,2.0,0.0
3515,70.0,10.0,20.0,2.0,0.0
3516,67.0,24.0,20.0,2.0,0.0
3517,59.0,0.0,20.0,2.0,0.0
3518,68.0,4.0,270.0,0.0,0.0
3519,68.0,24.0,20.0,2.0,0.0
3520,58.0,0.0,20.0,2.0,0.0
3521,67.0,24.0,20.0,2.0,0.0
3522,59.0,24.0,20.0,2.0,0.0
3523,68.0,0.0,20.0,2.0,0.0
3524,67.0,0.0,20.0,2.0,0.0
3525,58.0,24.0,20.0,2.0,0.0
3526,59.0,0.0,20.0,2.0,0.0
3527,68.0,24.0,20.0,2.0,0.0
3528,67.0,24.0,20.0,2.0,0.0
3529,58.0,0.0,20.0,2.0,0.0
3530,59.0,0.0,20.0,2.0,0.0
3531,68.0,24.0,20.0,2.0,0.0
3532,67.0,0.0,20.0,2.0,0.0
3533,58.0,24.0,20.0,2.0,0.0
3534,68.0,22.0,20.0,2.0,0.0
3535,59.0,2.0,40.0,2.0,0.0
3536,70.0,24.0,20.0,2.0,0.0
3537,68.0,2.0,40.0,3.0,0.0
3538,59.0,0.0,40.0,3.0,0.0
3539,71.0,18.0,20.0,2.0,0.0
3540,63.0,0.0,40.0,2.0,0.0
3541,63.0,0.0,40.0,3.0,0.0
3542,73.0,24.0,20.0,2.0,0.0
3543,77.0,4.0,90.0,0.0,0.0
3544,74.0,22.0,20.0,2.0,0.0
3545,68.0,0.0,40.0,3.0,0.0
3546,80.0,0.0,90.0,0.0,0.0
3547,56.0,0.0,40.0,2.0,0.0
3548,59.0,0.0,40.0,3.0,0.0
3549,65.0,2.0,40.0,3.0,0.0
3550,75.0,24.0,20.0,2.0,0.0
3551,68.0,2.0,40.0,3.0,0.0
3552,71.0,18.0,20.0,2.0,0.0
3553,59.0,0.0,40.0,3.0,0.0
3554,65.0,0.0,40.0,2.0,0.0
3555,65.0,0.0,40.0,3.0,0.0
3556,68.0,46.0,20.0,2.0,0.0
3557,78.0,0.0,90.0,0.0,0.0
3558,58.0,44.0,40.0,3.0,0.0
3559,66.0,0.0,40.0,3.0,0.0
3560,66.0,4.0,90.0,2.0,0.0
3561,75.0,0.0,90.0,0.0,0.0
3562,58.0,0.0,40.0,2.0,0.0
3563,63.0,0.0,40.0,3.0,0.0
3564,63.0,0.0,40.0,2.0,0.0
3565,66.0,15.0,40.0,3.0,0.0
3566,58.0,0.0,40.0,3.0,0.0
3567,63.0,0.0,40.0,3.0,0.0
3568,77.0,0.0,90.0,0.0,0.0
3569,65.0,0.0,40.0,3.0,0.0
3570,74.0,0.0,90.0,0.0,0.0
3571,58.0,0.0,40.0,2.0,0.0
3572,58.0,0.0,40.0,3.0,0.0
3573,62.0,3.0,40.0,3.0,0.0
3574,65.0,12.0,15.0,2.0,0.0
3575,66.0,12.0,15.0,2.0,0.0
3576,65.0,9.0,15.0,2.0,0.0
3577,66.0,12.0,15.0,2.0,0.0
3578,62.0,0.0,40.0,2.0,0.0
3579,62.0,26.0,40.0,3.0,0.0
3580,65.0,12.0,15.0,2.0,0.0
3581,65.0,0.0,40.0,3.0,0.0
3582,58.0,0.0,40.0,3.0,0.0
3583,66.0,12.0,15.0,2.0,0.0
3584,65.0,5.0,15.0,2.0,0.0
3585,66.0,4.0,15.0,2.0,0.0
3586,63.0,0.0,90.0,3.0,0.0
3587,51.0,24.0,20.0,2.0,0.0
3588,54.0,0.0,90.0,3.0,0.0
3589,63.0,0.0,90.0,2.0,0.0
3590,58.0,0.0,90.0,3.0,0.0
3591,75.0,0.0,90.0,0.0,0.0
3592,58.0,24.0,20.0,2.0,0.0
3593,54.0,18.0,20.0,2.0,0.0
3594,58.0,24.0,20.0,2.0,0.0
3595,65.0,0.0,20.0,2.0,0.0
3596,42.0,24.0,20.0,2.0,0.0
3597,68.0,24.0,20.0,2.0,0.0
3598,56.0,0.0,20.0,2.0,0.0
3599,50.0,0.0,20.0,2.0,0.0
3600,66.0,24.0,20.0,2.0,0.0
3601,56.0,24.0,20.0,2.0,0.0
3602,65.0,0.0,20.0,2.0,0.0
3603,51.0,24.0,20.0,2.0,0.0
3604,63.0,6.0,90.0,2.0,0.0
3605,58.0,24.0,20.0,2.0,0.0
3606,54.0,18.0,20.0,2.0,0.0
3607,58.0,24.0,20.0,2.0,0.0
3608,46.0,0.0,20.0,2.0,0.0
3609,65.0,24.0,20.0,2.0,0.0
3610,68.0,0.0,20.0,2.0,0.0
3611,56.0,24.0,20.0,2.0,0.0
3612,66.0,0.0,20.0,2.0,0.0
3613,50.0,24.0,20.0,2.0,0.0
3614,56.0,24.0,20.0,2.0,0.0
3615,65.0,0.0,20.0,2.0,0.0
3616,63.0,2.0,40.0,2.0,0.0
3617,51.0,22.0,20.0,2.0,0.0
3618,58.0,24.0,20.0,2.0,0.0
3619,54.0,22.0,20.0,2.0,0.0
3620,63.0,2.0,40.0,2.0,0.0
3621,58.0,24.0,20.0,2.0,0.0
3622,46.0,24.0,20.0,2.0,0.0
3623,65.0,0.0,20.0,2.0,0.0
3624,68.0,0.0,20.0,2.0,0.0
3625,56.0,24.0,20.0,2.0,0.0
3626,66.0,0.0,20.0,2.0,0.0
3627,50.0,24.0,20.0,2.0,0.0
3628,56.0,11.0,20.0,2.0,0.0
3629,65.0,0.0,20.0,2.0,0.0
3630,66.0,0.0,90.0,3.0,0.0
3631,51.0,0.0,90.0,2.0,0.0
3632,54.0,0.0,90.0,2.0,0.0
3633,63.0,0.0,90.0,2.0,0.0
3634,58.0,0.0,40.0,1.0,0.0
3635,66.0,0.0,40.0,1.0,0.0
3636,39.0,13.0,40.0,3.0,0.0
3637,66.0,0.0,90.0,0.0,0.0
3638,54.0,24.0,15.0,3.0,0.0
3639,58.0,11.0,15.0,3.0,0.0
3640,54.0,24.0,15.0,3.0,0.0
3641,70.0,13.0,40.0,0.0,0.0
3642,58.0,7.0,15.0,3.0,0.0
3643,68.0,0.0,40.0,1.0,0.0
3644,68.0,0.0,40.0,0.0,0.0
3645,71.0,0.0,90.0,0.0,0.0
3646,68.0,11.0,20.0,3.0,0.0
3647,37.0,0.0,40.0,3.0,0.0
3648,53.0,13.0,15.0,3.0,0.0
3649,61.0,2.0,40.0,1.0,0.0
3650,59.0,4.0,90.0,3.0,0.0
3651,71.0,11.0,20.0,3.0,0.0
3652,61.0,11.0,15.0,3.0,0.0
3653,53.0,13.0,15.0,3.0,0.0
3654,77.0,2.0,40.0,0.0,0.0
3655,70.0,11.0,20.0,3.0,0.0
3656,68.0,11.0,20.0,3.0,0.0
3657,61.0,7.0,15.0,3.0,0.0
3658,70.0,0.0,40.0,1.0,0.0
3659,66.0,0.0,40.0,1.0,0.0
3660,58.0,0.0,90.0,3.0,0.0
3661,66.0,17.0,90.0,3.0,0.0
3662,78.0,13.0,40.0,0.0,0.0
3663,70.0,0.0,90.0,0.0,0.0
3664,42.0,0.0,40.0,3.0,0.0
3665,54.0,24.0,15.0,3.0,0.0
3666,61.0,11.0,15.0,3.0,0.0
3667,54.0,24.0,15.0,3.0,0.0
3668,73.0,4.0,90.0,0.0,0.0
3669,61.0,7.0,15.0,3.0,0.0
3670,53.0,13.0,15.0,3.0,0.0
3671,59.0,0.0,90.0,3.0,0.0
3672,68.0,11.0,20.0,3.0,0.0
3673,68.0,0.0,40.0,1.0,0.0
3674,61.0,2.0,40.0,1.0,0.0
3675,37.0,0.0,40.0,3.0,0.0
3676,71.0,4.0,90.0,0.0,0.0
3677,71.0,11.0,20.0,3.0,0.0
3678,61.0,7.0,15.0,3.0,0.0
3679,53.0,13.0,15.0,3.0,0.0
3680,70.0,11.0,20.0,3.0,0.0
3681,77.0,2.0,40.0,0.0,0.0
3682,61.0,7.0,15.0,3.0,0.0
3683,68.0,11.0,20.0,3.0,0.0
3684,78.0,0.0,40.0,0.0,0.0
3685,66.0,13.0,40.0,1.0,0.0
3686,70.0,17.0,90.0,0.0,0.0
3687,42.0,0.0,40.0,3.0,0.0
3688,58.0,0.0,40.0,1.0,0.0
3689,54.0,10.0,15.0,3.0,0.0
3690,58.0,0.0,90.0,3.0,0.0
3691,66.0,14.0,20.0,3.0,0.0
3692,61.0,11.0,15.0,3.0,0.0
3693,66.0,14.0,20.0,3.0,0.0
3694,54.0,10.0,15.0,3.0,0.0
3695,73.0,4.0,90.0,0.0,0.0
3696,61.0,7.0,15.0,3.0,0.0
3697,61.0,0.0,40.0,1.0,0.0
3698,59.0,4.0,90.0,3.0,0.0
3699,68.0,2.0,40.0,1.0,0.0
3700,68.0,11.0,20.0,3.0,0.0
3701,37.0,0.0,40.0,3.0,0.0
3702,53.0,13.0,15.0,3.0,0.0
3703,71.0,0.0,90.0,0.0,0.0
3704,61.0,7.0,15.0,3.0,0.0
3705,71.0,11.0,20.0,3.0,0.0
3706,77.0,2.0,40.0,0.0,0.0
3707,70.0,11.0,20.0,3.0,0.0
3708,53.0,13.0,15.0,3.0,0.0
3709,68.0,24.0,20.0,3.0,0.0
3710,61.0,7.0,15.0,3.0,0.0
3711,78.0,0.0,90.0,0.0,0.0
3712,58.0,0.0,90.0,3.0,0.0
3713,66.0,0.0,90.0,1.0,0.0
3714,54.0,0.0,90.0,3.0,0.0
3715,66.0,0.0,90.0,3.0,0.0
3716,30.0,0.0,90.0,3.0,0.0
3717,70.0,0.0,90.0,0.0,0.0
3718,66.0,0.0,90.0,2.0,0.0
3719,54.0,24.0,20.0,2.0,0.0
3720,58.0,6.0,90.0,1.0,0.0
3721,61.0,24.0,20.0,2.0,0.0
3722,58.0,18.0,20.0,2.0,0.0
3723,61.0,24.0,20.0,2.0,0.0
3724,58.0,24.0,20.0,2.0,0.0
3725,76.0,0.0,20.0,2.0,0.0
3726,80.0,24.0,20.0,2.0,0.0
3727,66.0,0.0,20.0,2.0,0.0
3728,61.0,0.0,20.0,2.0,0.0
3729,78.0,24.0,20.0,2.0,0.0
3730,66.0,0.0,20.0,2.0,0.0
3731,76.0,24.0,20.0,2.0,0.0
3732,76.0,0.0,20.0,2.0,0.0
3733,59.0,24.0,20.0,2.0,0.0
3734,66.0,24.0,20.0,2.0,0.0
3735,75.0,0.0,20.0,2.0,0.0
3736,74.0,24.0,20.0,2.0,0.0
3737,63.0,0.0,20.0,2.0,0.0
3738,75.0,24.0,20.0,2.0,0.0
3739,66.0,0.0,20.0,2.0,0.0
3740,73.0,24.0,20.0,2.0,0.0
3741,55.0,0.0,20.0,2.0,0.0
3742,76.0,0.0,20.0,2.0,0.0
3743,63.0,24.0,20.0,2.0,0.0
3744,75.0,24.0,20.0,2.0,0.0
3745,58.0,0.0,20.0,2.0,0.0
3746,73.0,0.0,20.0,2.0,0.0
3747,63.0,24.0,20.0,2.0,0.0
3748,73.0,0.0,20.0,2.0,0.0
3749,56.0,24.0,20.0,2.0,0.0
3750,63.0,24.0,20.0,2.0,0.0
3751,71.0,0.0,20.0,2.0,0.0
3752,59.0,24.0,20.0,2.0,0.0
3753,70.0,0.0,20.0,2.0,0.0
3754,71.0,0.0,20.0,2.0,0.0
3755,63.0,24.0,20.0,2.0,0.0
3756,70.0,24.0,20.0,2.0,0.0
3757,46.0,0.0,20.0,2.0,0.0
3758,55.0,24.0,20.0,2.0,0.0
3759,73.0,0.0,20.0,2.0,0.0
3760,71.0,0.0,20.0,2.0,0.0
3761,49.0,24.0,20.0,2.0,0.0
3762,70.0,0.0,20.0,2.0,0.0
3763,55.0,24.0,20.0,2.0,0.0
3764,70.0,0.0,20.0,2.0,0.0
3765,47.0,24.0,20.0,2.0,0.0
3766,56.0,24.0,20.0,2.0,0.0
3767,68.0,0.0,20.0,2.0,0.0
3768,67.0,24.0,20.0,2.0,0.0
3769,51.0,0.0,20.0,2.0,0.0
3770,56.0,24.0,20.0,2.0,0.0
3771,68.0,0.0,20.0,2.0,0.0
3772,66.0,24.0,20.0,2.0,0.0
3773,48.0,0.0,20.0,2.0,0.0
3774,56.0,0.0,20.0,2.0,0.0
3775,70.0,24.0,20.0,2.0,0.0
3776,68.0,0.0,20.0,2.0,0.0
3777,51.0,24.0,20.0,2.0,0.0
3778,56.0,0.0,20.0,2.0,0.0
3779,66.0,24.0,20.0,2.0,0.0
3780,49.0,6.0,90.0,2.0,0.0
3781,65.0,24.0,20.0,2.0,0.0
3782,73.0,24.0,20.0,2.0,0.0
3783,72.0,18.0,20.0,2.0,0.0
3784,73.0,24.0,20.0,2.0,0.0
3785,75.0,24.0,20.0,2.0,0.0
3786,73.0,24.0,20.0,2.0,0.0
3787,61.0,0.0,40.0,3.0,0.0
3788,61.0,0.0,40.0,2.0,0.0
3789,65.0,22.0,20.0,2.0,0.0
3790,73.0,0.0,40.0,3.0,0.0
3791,65.0,2.0,40.0,3.0,0.0
3792,73.0,21.0,20.0,2.0,0.0
3793,63.0,0.0,20.0,2.0,0.0
3794,66.0,0.0,20.0,3.0,0.0
3795,66.0,22.0,20.0,2.0,0.0
3796,63.0,3.0,20.0,3.0,0.0
3797,73.0,2.0,40.0,3.0,0.0
3798,73.0,21.0,20.0,2.0,0.0
3799,65.0,0.0,20.0,2.0,0.0
3800,68.0,0.0,20.0,3.0,0.0
3801,73.0,2.0,40.0,3.0,0.0
3802,65.0,3.0,20.0,3.0,0.0
3803,68.0,22.0,20.0,2.0,0.0
3804,73.0,21.0,20.0,2.0,0.0
3805,70.0,22.0,20.0,2.0,0.0
3806,66.0,0.0,20.0,3.0,0.0
3807,73.0,2.0,40.0,3.0,0.0
3808,70.0,0.0,20.0,3.0,0.0
3809,66.0,3.0,20.0,2.0,0.0
3810,73.0,21.0,20.0,2.0,0.0
3811,71.0,22.0,20.0,2.0,0.0
3812,71.0,0.0,20.0,3.0,0.0
3813,68.0,0.0,20.0,3.0,0.0
3814,68.0,3.0,20.0,2.0,0.0
3815,73.0,2.0,40.0,3.0,0.0
3816,73.0,24.0,20.0,2.0,0.0
3817,66.0,6.0,90.0,2.0,0.0
3818,70.0,0.0,90.0,3.0,0.0
3819,70.0,24.0,20.0,2.0,0.0
3820,73.0,0.0,90.0,3.0,0.0
3821,73.0,24.0,20.0,2.0,0.0
3822,72.0,18.0,20.0,2.0,0.0
3823,73.0,24.0,20.0,2.0,0.0
3824,75.0,24.0,20.0,2.0,0.0
3825,73.0,24.0,20.0,2.0,0.0
3826,70.0,0.0,40.0,3.0,0.0
3827,78.0,2.0,40.0,2.0,0.0
3828,70.0,22.0,20.0,2.0,0.0
3829,78.0,0.0,40.0,3.0,0.0
3830,73.0,0.0,40.0,3.0,0.0
3831,73.0,21.0,20.0,2.0,0.0
3832,68.0,22.0,20.0,2.0,0.0
3833,77.0,0.0,20.0,2.0,0.0
3834,68.0,0.0,20.0,3.0,0.0
3835,73.0,2.0,40.0,3.0,0.0
3836,77.0,3.0,20.0,3.0,0.0
3837,73.0,21.0,20.0,2.0,0.0
3838,78.0,3.0,20.0,3.0,0.0
3839,73.0,2.0,40.0,3.0,0.0
3840,70.0,22.0,20.0,2.0,0.0
3841,70.0,0.0,20.0,3.0,0.0
3842,78.0,0.0,20.0,2.0,0.0
3843,73.0,21.0,20.0,2.0,0.0
3844,68.0,3.0,20.0,3.0,0.0
3845,77.0,0.0,20.0,2.0,0.0
3846,73.0,2.0,40.0,3.0,0.0
3847,68.0,22.0,20.0,2.0,0.0
3848,77.0,0.0,20.0,3.0,0.0
3849,73.0,21.0,20.0,2.0,0.0
3850,66.0,3.0,20.0,3.0,0.0
3851,66.0,22.0,20.0,2.0,0.0
3852,75.0,0.0,20.0,2.0,0.0
3853,75.0,0.0,20.0,3.0,0.0
3854,73.0,2.0,40.0,3.0,0.0
3855,73.0,24.0,20.0,2.0,0.0
3856,65.0,6.0,90.0,3.0,0.0
3857,73.0,0.0,90.0,2.0,0.0
3858,73.0,0.0,90.0,3.0,0.0
3859,65.0,24.0,20.0,2.0,0.0
3860,61.0,24.0,20.0,2.0,0.0
3861,60.0,18.0,20.0,2.0,0.0
3862,61.0,24.0,20.0,2.0,0.0
3863,63.0,24.0,20.0,2.0,0.0
3864,61.0,24.0,20.0,2.0,0.0
3865,53.0,22.0,20.0,2.0,0.0
3866,49.0,2.0,40.0,3.0,0.0
3867,73.0,0.0,40.0,3.0,0.0
3868,49.0,0.0,40.0,2.0,0.0
3869,53.0,0.0,40.0,3.0,0.0
3870,61.0,21.0,20.0,2.0,0.0
3871,54.0,22.0,20.0,2.0,0.0
3872,51.0,0.0,20.0,3.0,0.0
3873,51.0,0.0,20.0,2.0,0.0
3874,54.0,3.0,20.0,3.0,0.0
3875,73.0,2.0,40.0,3.0,0.0
3876,61.0,21.0,20.0,2.0,0.0
3877,53.0,0.0,20.0,3.0,0.0
3878,53.0,0.0,20.0,2.0,0.0
3879,56.0,3.0,20.0,3.0,0.0
3880,73.0,2.0,40.0,3.0,0.0
3881,56.0,22.0,20.0,2.0,0.0
3882,61.0,21.0,20.0,2.0,0.0
3883,58.0,22.0,20.0,2.0,0.0
3884,73.0,2.0,40.0,3.0,0.0
3885,58.0,0.0,20.0,3.0,0.0
3886,54.0,0.0,20.0,2.0,0.0
3887,54.0,3.0,20.0,3.0,0.0
3888,61.0,21.0,20.0,2.0,0.0
3889,56.0,3.0,20.0,3.0,0.0
3890,73.0,2.0,40.0,3.0,0.0
3891,56.0,0.0,20.0,2.0,0.0
3892,59.0,22.0,20.0,2.0,0.0
3893,59.0,0.0,20.0,3.0,0.0
3894,61.0,24.0,20.0,2.0,0.0
3895,73.0,0.0,90.0,3.0,0.0
3896,54.0,0.0,90.0,3.0,0.0
3897,58.0,6.0,90.0,3.0,0.0
3898,54.0,0.0,90.0,2.0,0.0
3899,58.0,24.0,20.0,2.0,0.0
3900,61.0,24.0,20.0,2.0,0.0
3901,60.0,18.0,20.0,2.0,0.0
3902,61.0,24.0,20.0,2.0,0.0
3903,63.0,24.0,20.0,2.0,0.0
3904,61.0,24.0,20.0,2.0,0.0
3905,58.0,22.0,20.0,2.0,0.0
3906,58.0,0.0,40.0,3.0,0.0
3907,66.0,2.0,40.0,3.0,0.0
3908,73.0,0.0,40.0,3.0,0.0
3909,61.0,21.0,20.0,2.0,0.0
3910,56.0,3.0,20.0,3.0,0.0
3911,56.0,22.0,20.0,2.0,0.0
3912,73.0,2.0,40.0,3.0,0.0
3913,65.0,0.0,20.0,3.0,0.0
3914,61.0,21.0,20.0,2.0,0.0
3915,73.0,2.0,40.0,3.0,0.0
3916,58.0,22.0,20.0,2.0,0.0
3917,66.0,3.0,20.0,3.0,0.0
3918,58.0,0.0,20.0,3.0,0.0
3919,61.0,21.0,20.0,2.0,0.0
3920,73.0,2.0,40.0,3.0,0.0
3921,56.0,3.0,20.0,3.0,0.0
3922,65.0,0.0,20.0,3.0,0.0
3923,56.0,22.0,20.0,2.0,0.0
3924,61.0,21.0,20.0,2.0,0.0
3925,63.0,3.0,20.0,3.0,0.0
3926,54.0,0.0,20.0,3.0,0.0
3927,73.0,2.0,40.0,3.0,0.0
3928,54.0,22.0,20.0,2.0,0.0
3929,61.0,24.0,20.0,2.0,0.0
3930,73.0,4.0,90.0,3.0,0.0
3931,61.0,0.0,90.0,3.0,0.0
3932,73.0,2.0,40.0,2.0,0.0
3933,53.0,0.0,90.0,3.0,0.0
3934,49.0,22.0,20.0,2.0,0.0
3935,61.0,24.0,20.0,2.0,0.0
3936,72.0,2.0,40.0,2.0,0.0
3937,48.0,18.0,20.0,2.0,0.0
3938,60.0,24.0,20.0,2.0,0.0
3939,73.0,2.0,40.0,2.0,0.0
3940,49.0,22.0,20.0,2.0,0.0
3941,61.0,24.0,20.0,2.0,0.0
3942,50.0,22.0,20.0,2.0,0.0
3943,74.0,2.0,40.0,2.0,0.0
3944,62.0,13.0,20.0,2.0,0.0
3945,75.0,11.0,15.0,2.0,0.0
3946,51.0,1.0,20.0,2.0,0.0
3947,77.0,12.0,15.0,2.0,0.0
3948,75.0,9.0,15.0,2.0,0.0
3949,63.0,24.0,20.0,2.0,0.0
3950,77.0,2.0,15.0,2.0,0.0
3951,74.0,2.0,40.0,2.0,0.0
3952,50.0,22.0,20.0,2.0,0.0
3953,62.0,24.0,20.0,2.0,0.0
3954,75.0,2.0,40.0,2.0,0.0
3955,51.0,22.0,20.0,2.0,0.0
3956,63.0,24.0,20.0,2.0,0.0
3957,67.0,2.0,40.0,2.0,0.0
3958,43.0,22.0,20.0,2.0,0.0
3959,55.0,24.0,20.0,2.0,0.0
3960,44.0,22.0,20.0,2.0,0.0
3961,68.0,2.0,40.0,2.0,0.0
3962,56.0,24.0,20.0,2.0,0.0
3963,67.0,2.0,40.0,2.0,0.0
3964,43.0,22.0,20.0,2.0,0.0
3965,55.0,24.0,20.0,2.0,0.0
3966,68.0,2.0,40.0,2.0,0.0
3967,44.0,22.0,20.0,2.0,0.0
3968,56.0,24.0,20.0,2.0,0.0
3969,46.0,22.0,20.0,2.0,0.0
3970,70.0,2.0,40.0,2.0,0.0
3971,58.0,13.0,20.0,2.0,0.0
3972,71.0,11.0,15.0,2.0,0.0
3973,47.0,1.0,20.0,2.0,0.0
3974,73.0,12.0,15.0,2.0,0.0
3975,59.0,24.0,20.0,2.0,0.0
3976,71.0,9.0,15.0,2.0,0.0
3977,73.0,2.0,15.0,2.0,0.0
3978,46.0,22.0,20.0,2.0,0.0
3979,70.0,2.0,40.0,2.0,0.0
3980,58.0,24.0,20.0,2.0,0.0
3981,71.0,2.0,40.0,2.0,0.0
3982,47.0,22.0,20.0,2.0,0.0
3983,56.0,24.0,20.0,2.0,0.0
3984,65.0,2.0,40.0,2.0,0.0
3985,41.0,22.0,20.0,2.0,0.0
3986,53.0,46.0,20.0,2.0,0.0
3987,58.0,0.0,90.0,2.0,0.0
3988,61.0,0.0,90.0,2.0,0.0
3989,58.0,0.0,360.0,1.0,0.0
3990,66.0,0.0,90.0,2.0,0.0
3991,66.0,8.0,180.0,3.0,0.0
3992,66.0,23.0,360.0,1.0,0.0
3993,42.0,0.0,90.0,2.0,0.0
3994,54.0,48.0,90.0,2.0,0.0
3995,54.0,0.0,40.0,3.0,0.0
3996,66.0,0.0,180.0,0.0,0.0
3997,42.0,0.0,90.0,3.0,0.0
3998,58.0,0.0,90.0,3.0,0.0
3999,42.0,48.0,90.0,3.0,0.0
4000,61.0,0.0,90.0,3.0,0.0
4001,70.0,48.0,90.0,0.0,0.0
4002,70.0,0.0,90.0,3.0,0.0
4003,42.0,0.0,90.0,3.0,0.0
4004,58.0,0.0,90.0,3.0,0.0
4005,66.0,0.0,90.0,3.0,0.0
4006,42.0,0.0,90.0,3.0,0.0
4007,66.0,52.0,90.0,0.0,0.0
4008,61.0,0.0,90.0,3.0,0.0
4009,73.0,0.0,150.0,0.0,0.0
4010,61.0,8.0,180.0,1.0,0.0
4011,73.0,14.0,150.0,3.0,0.0
4012,68.0,0.0,180.0,1.0,0.0
4013,42.0,48.0,90.0,3.0,0.0
4014,65.0,26.0,90.0,3.0,0.0
4015,56.0,0.0,90.0,3.0,0.0
4016,42.0,6.0,90.0,3.0,0.0
4017,53.0,0.0,90.0,3.0,0.0
4018,68.0,6.0,90.0,3.0,0.0
4019,75.0,0.0,20.0,0.0,0.0
4020,75.0,24.0,20.0,3.0,0.0
4021,73.0,2.0,40.0,0.0,0.0
4022,42.0,0.0,90.0,3.0,0.0
4023,73.0,0.0,90.0,3.0,0.0
4024,68.0,4.0,90.0,1.0,0.0
4025,61.0,0.0,90.0,1.0,0.0
4026,53.0,16.0,20.0,2.0,0.0
4027,61.0,24.0,20.0,2.0,0.0
4028,49.0,2.0,40.0,3.0,0.0
4029,65.0,6.0,90.0,3.0,0.0
4030,56.0,18.0,20.0,2.0,0.0
4031,61.0,24.0,20.0,2.0,0.0
4032,53.0,4.0,90.0,3.0,0.0
4033,42.0,0.0,90.0,3.0,0.0
4034,53.0,18.0,20.0,2.0,0.0
4035,61.0,24.0,20.0,2.0,0.0
4036,73.0,0.0,40.0,2.0,0.0
4037,56.0,18.0,20.0,2.0,0.0
4038,61.0,2.0,40.0,3.0,0.0
4039,61.0,24.0,20.0,2.0,0.0
4040,51.0,22.0,20.0,2.0,0.0
4041,71.0,12.0,180.0,2.0,0.0
4042,41.0,2.0,40.0,3.0,0.0
4043,59.0,24.0,20.0,2.0,0.0
4044,54.0,22.0,20.0,2.0,0.0
4045,41.0,2.0,40.0,3.0,0.0
4046,59.0,24.0,20.0,2.0,0.0
4047,41.0,2.0,40.0,3.0,0.0
4048,51.0,22.0,20.0,2.0,0.0
4049,59.0,24.0,20.0,2.0,0.0
4050,54.0,10.0,20.0,2.0,0.0
4051,41.0,2.0,40.0,3.0,0.0
4052,59.0,24.0,20.0,2.0,0.0
4053,41.0,0.0,90.0,3.0,0.0
4054,70.0,6.0,90.0,2.0,0.0
4055,49.0,24.0,20.0,2.0,0.0
4056,58.0,24.0,20.0,2.0,0.0
4057,53.0,18.0,20.0,2.0,0.0
4058,58.0,24.0,20.0,2.0,0.0
4059,47.0,24.0,20.0,2.0,0.0
4060,75.0,6.0,90.0,2.0,0.0
4061,56.0,24.0,20.0,2.0,0.0
4062,51.0,18.0,20.0,2.0,0.0
4063,56.0,24.0,20.0,2.0,0.0
4064,66.0,6.0,90.0,2.0,0.0
4065,49.0,24.0,20.0,2.0,0.0
4066,58.0,24.0,20.0,2.0,0.0
4067,54.0,18.0,20.0,2.0,0.0
4068,58.0,13.0,20.0,2.0,0.0
4069,65.0,11.0,15.0,2.0,0.0
4070,47.0,1.0,20.0,2.0,0.0
4071,66.0,12.0,15.0,2.0,0.0
4072,65.0,11.0,15.0,2.0,0.0
4073,56.0,1.0,20.0,2.0,0.0
4074,66.0,12.0,15.0,2.0,0.0
4075,49.0,1.0,20.0,2.0,0.0
4076,65.0,11.0,15.0,2.0,0.0
4077,66.0,12.0,15.0,2.0,0.0
4078,65.0,5.0,15.0,2.0,0.0
4079,56.0,90.0,20.0,2.0,0.0
4080,66.0,6.0,15.0,2.0,0.0
4081,66.0,0.0,90.0,2.0,0.0
4082,54.0,0.0,90.0,2.0,0.0
4083,49.0,4.0,90.0,2.0,0.0
4084,46.0,0.0,90.0,2.0,0.0
4085,66.0,0.0,40.0,3.0,0.0
4086,66.0,0.0,40.0,0.0,0.0
4087,65.0,0.0,40.0,0.0,0.0
4088,68.0,48.0,40.0,3.0,0.0
4089,65.0,0.0,40.0,3.0,0.0
4090,68.0,0.0,40.0,0.0,0.0
4091,70.0,9.0,40.0,0.0,0.0
4092,66.0,0.0,40.0,0.0,0.0
4093,70.0,0.0,40.0,3.0,0.0
4094,66.0,0.0,40.0,3.0,0.0
4095,68.0,6.0,40.0,0.0,0.0
4096,68.0,0.0,40.0,3.0,0.0
4097,32.0,44.0,40.0,3.0,0.0
4098,71.0,0.0,40.0,0.0,0.0
4099,63.0,33.0,15.0,3.0,0.0
4100,71.0,4.0,90.0,3.0,0.0
4101,63.0,4.0,90.0,3.0,0.0
4102,32.0,44.0,40.0,3.0,0.0
4103,59.0,0.0,90.0,3.0,0.0
4104,32.0,44.0,40.0,3.0,0.0
4105,68.0,0.0,90.0,0.0,0.0
4106,71.0,4.0,120.0,3.0,0.0
4107,63.0,4.0,90.0,0.0,0.0
4108,68.0,0.0,90.0,3.0,0.0
4109,63.0,4.0,90.0,3.0,0.0
4110,32.0,40.0,40.0,3.0,0.0
4111,71.0,0.0,90.0,0.0,0.0
4112,44.0,44.0,40.0,3.0,0.0
4113,68.0,4.0,90.0,0.0,0.0
4114,44.0,0.0,40.0,3.0,0.0
4115,59.0,0.0,90.0,3.0,0.0
4116,75.0,44.0,40.0,3.0,0.0
4117,56.0,4.0,90.0,3.0,0.0
4118,44.0,23.0,40.0,3.0,0.0
4119,71.0,0.0,40.0,3.0,0.0
4120,75.0,0.0,90.0,0.0,0.0
4121,71.0,4.0,90.0,0.0,0.0
4122,68.0,21.0,20.0,3.0,0.0
4123,44.0,48.0,40.0,3.0,0.0
4124,63.0,0.0,40.0,3.0,0.0
4125,59.0,0.0,40.0,3.0,0.0
4126,37.0,0.0,40.0,3.0,0.0
4127,56.0,0.0,40.0,3.0,0.0
4128,59.0,0.0,40.0,3.0,0.0
4129,66.0,44.0,40.0,3.0,0.0
4130,61.0,0.0,90.0,1.0,0.0
4131,65.0,44.0,40.0,3.0,0.0
4132,59.0,0.0,90.0,3.0,0.0
4133,68.0,4.0,90.0,3.0,0.0
4134,37.0,0.0,40.0,3.0,0.0
4135,65.0,4.0,90.0,0.0,0.0
4136,68.0,0.0,90.0,0.0,0.0
4137,37.0,44.0,40.0,3.0,0.0
4138,61.0,0.0,180.0,1.0,0.0
4139,65.0,4.0,120.0,3.0,0.0
4140,68.0,8.0,180.0,1.0,0.0
4141,71.0,4.0,90.0,3.0,0.0
4142,37.0,40.0,40.0,3.0,0.0
4143,68.0,0.0,90.0,3.0,0.0
4144,71.0,4.0,90.0,0.0,0.0
4145,37.0,36.0,40.0,3.0,0.0
4146,77.0,0.0,90.0,0.0,0.0
4147,59.0,0.0,40.0,3.0,0.0
4148,77.0,0.0,40.0,3.0,0.0
4149,56.0,0.0,40.0,3.0,0.0
4150,37.0,48.0,40.0,3.0,0.0
4151,70.0,0.0,90.0,0.0,0.0
4152,78.0,23.0,40.0,3.0,0.0
4153,30.0,0.0,40.0,3.0,0.0
4154,66.0,0.0,90.0,1.0,0.0
4155,58.0,0.0,40.0,3.0,0.0
4156,54.0,0.0,40.0,3.0,0.0
4157,78.0,4.0,90.0,0.0,0.0
4158,70.0,0.0,90.0,1.0,0.0
4159,70.0,48.0,40.0,3.0,0.0
4160,66.0,21.0,20.0,3.0,0.0
4161,30.0,0.0,40.0,3.0,0.0
4162,73.0,0.0,40.0,3.0,0.0
4163,74.0,0.0,40.0,3.0,0.0
4164,66.0,44.0,40.0,3.0,0.0
4165,54.0,0.0,90.0,1.0,0.0
4166,70.0,0.0,40.0,3.0,0.0
4167,35.0,0.0,40.0,3.0,0.0
4168,66.0,4.0,90.0,1.0,0.0
4169,75.0,0.0,40.0,3.0,0.0
4170,35.0,0.0,40.0,3.0,0.0
4171,71.0,26.0,40.0,3.0,0.0
4172,54.0,0.0,40.0,3.0,0.0
4173,68.0,0.0,40.0,0.0,0.0
4174,71.0,6.0,40.0,0.0,0.0
4175,63.0,0.0,20.0,3.0,0.0
4176,35.0,2.0,40.0,3.0,0.0
4177,71.0,16.0,20.0,3.0,0.0
4178,68.0,24.0,20.0,3.0,0.0
4179,59.0,0.0,20.0,3.0,0.0
4180,35.0,0.0,40.0,3.0,0.0
4181,56.0,2.0,40.0,3.0,0.0
4182,63.0,0.0,20.0,3.0,0.0
4183,71.0,22.0,20.0,3.0,0.0
4184,59.0,40.0,20.0,3.0,0.0
4185,68.0,0.0,20.0,3.0,0.0
4186,66.0,6.0,40.0,0.0,0.0
4187,70.0,0.0,40.0,0.0,0.0
4188,37.0,0.0,90.0,3.0,0.0
4189,66.0,0.0,40.0,3.0,0.0
4190,58.0,0.0,90.0,3.0,0.0
4191,61.0,44.0,40.0,3.0,0.0
4192,61.0,0.0,90.0,1.0,0.0
4193,61.0,42.0,40.0,3.0,0.0
4194,61.0,44.0,40.0,3.0,0.0
4195,25.0,4.0,90.0,3.0,0.0
4196,61.0,0.0,90.0,1.0,0.0
4197,68.0,0.0,40.0,0.0,0.0
4198,65.0,0.0,40.0,3.0,0.0
4199,68.0,0.0,40.0,3.0,0.0
4200,65.0,6.0,40.0,0.0,0.0
4201,61.0,71.0,40.0,3.0,0.0
4202,65.0,12.0,180.0,3.0,0.0
4203,68.0,31.0,120.0,3.0,0.0
4204,61.0,48.0,20.0,3.0,0.0
4205,61.0,0.0,20.0,1.0,0.0
4206,61.0,0.0,20.0,1.0,0.0
4207,61.0,17.0,20.0,3.0,0.0
4208,61.0,0.0,20.0,3.0,0.0
4209,61.0,0.0,20.0,1.0,0.0
4210,69.0,23.0,40.0,3.0,0.0
4211,70.0,0.0,90.0,3.0,0.0
4212,66.0,0.0,20.0,1.0,0.0
4213,66.0,48.0,20.0,3.0,0.0
4214,61.0,0.0,20.0,1.0,0.0
4215,61.0,21.0,20.0,3.0,0.0
4216,58.0,0.0,20.0,1.0,0.0
4217,58.0,0.0,20.0,3.0,0.0
4218,54.0,0.0,20.0,3.0,0.0
4219,54.0,0.0,20.0,1.0,0.0
4220,71.0,0.0,40.0,3.0,0.0
4221,63.0,2.0,40.0,3.0,0.0
4222,32.0,0.0,90.0,3.0,0.0
4223,71.0,11.0,15.0,2.0,0.0
4224,56.0,6.0,90.0,3.0,0.0
4225,44.0,1.0,20.0,2.0,0.0
4226,73.0,12.0,15.0,2.0,0.0
4227,56.0,1.0,20.0,2.0,0.0
4228,71.0,9.0,15.0,2.0,0.0
4229,73.0,12.0,15.0,2.0,0.0
4230,71.0,11.0,15.0,2.0,0.0
4231,55.0,1.0,20.0,2.0,0.0
4232,73.0,12.0,15.0,2.0,0.0
4233,71.0,5.0,15.0,2.0,0.0
4234,56.0,24.0,20.0,2.0,0.0
4235,73.0,0.0,15.0,2.0,0.0
4236,58.0,22.0,20.0,2.0,0.0
4237,71.0,8.0,120.0,2.0,0.0
4238,59.0,0.0,40.0,3.0,0.0
4239,63.0,2.0,40.0,3.0,0.0
4240,56.0,24.0,20.0,2.0,0.0
4241,55.0,24.0,20.0,2.0,0.0
4242,56.0,24.0,20.0,2.0,0.0
4243,63.0,2.0,40.0,3.0,0.0
4244,35.0,4.0,90.0,3.0,0.0
4245,59.0,0.0,90.0,3.0,0.0
4246,68.0,0.0,40.0,3.0,0.0
4247,47.0,14.0,20.0,2.0,0.0
4248,56.0,24.0,20.0,2.0,0.0
4249,75.0,2.0,40.0,2.0,0.0
4250,55.0,18.0,20.0,2.0,0.0
4251,56.0,24.0,20.0,2.0,0.0
4252,71.0,2.0,40.0,3.0,0.0
4253,73.0,22.0,20.0,2.0,0.0
4254,58.0,0.0,20.0,2.0,0.0
4255,75.0,0.0,40.0,3.0,0.0
4256,56.0,0.0,20.0,2.0,0.0
4257,71.0,11.0,20.0,2.0,0.0
4258,70.0,13.0,15.0,2.0,0.0
4259,55.0,11.0,20.0,2.0,0.0
4260,68.0,13.0,15.0,2.0,0.0
4261,56.0,24.0,20.0,2.0,0.0
4262,49.0,0.0,40.0,2.0,0.0
4263,66.0,22.0,20.0,2.0,0.0
4264,37.0,2.0,40.0,3.0,0.0
4265,65.0,24.0,20.0,2.0,0.0
4266,65.0,0.0,90.0,3.0,0.0
4267,82.0,22.0,20.0,2.0,0.0
4268,61.0,0.0,90.0,3.0,0.0
4269,56.0,4.0,90.0,3.0,0.0
4270,53.0,2.0,40.0,2.0,0.0
4271,80.0,24.0,20.0,2.0,0.0
4272,78.0,18.0,20.0,2.0,0.0
4273,35.0,2.0,40.0,3.0,0.0
4274,47.0,0.0,40.0,2.0,0.0
4275,77.0,24.0,20.0,2.0,0.0
4276,56.0,0.0,40.0,2.0,0.0
4277,56.0,2.0,40.0,3.0,0.0
4278,75.0,22.0,20.0,2.0,0.0
4279,65.0,0.0,40.0,3.0,0.0
4280,61.0,0.0,40.0,3.0,0.0
4281,73.0,24.0,20.0,2.0,0.0
4282,77.0,22.0,20.0,2.0,0.0
4283,34.0,4.0,90.0,3.0,0.0
4284,46.0,2.0,40.0,2.0,0.0
4285,78.0,24.0,20.0,2.0,0.0
4286,80.0,18.0,20.0,2.0,0.0
4287,54.0,0.0,40.0,2.0,0.0
4288,61.0,2.0,40.0,3.0,0.0
4289,66.0,4.0,90.0,3.0,0.0
4290,58.0,0.0,90.0,3.0,0.0
4291,78.0,24.0,20.0,2.0,0.0
4292,77.0,18.0,20.0,2.0,0.0
4293,51.0,0.0,40.0,2.0,0.0
4294,39.0,4.0,90.0,3.0,0.0
4295,63.0,2.0,40.0,3.0,0.0
4296,75.0,21.0,20.0,2.0,0.0
4297,59.0,2.0,40.0,3.0,0.0
4298,66.0,0.0,90.0,3.0,0.0
4299,51.0,3.0,20.0,3.0,0.0
4300,54.0,0.0,40.0,2.0,0.0
4301,73.0,18.0,20.0,2.0,0.0
4302,71.0,24.0,20.0,2.0,0.0
4303,70.0,22.0,20.0,2.0,0.0
4304,49.0,0.0,40.0,2.0,0.0
4305,61.0,2.0,40.0,3.0,0.0
4306,49.0,0.0,40.0,3.0,0.0
4307,37.0,0.0,40.0,3.0,0.0
4308,71.0,24.0,20.0,2.0,0.0
4309,66.0,0.0,90.0,3.0,0.0
4310,58.0,2.0,40.0,2.0,0.0
4311,70.0,4.0,90.0,3.0,0.0
4312,73.0,22.0,20.0,2.0,0.0
4313,75.0,24.0,20.0,2.0,0.0
4314,54.0,0.0,40.0,2.0,0.0
4315,73.0,18.0,20.0,2.0,0.0
4316,37.0,0.0,40.0,3.0,0.0
4317,61.0,2.0,40.0,3.0,0.0
4318,75.0,24.0,20.0,2.0,0.0
4319,70.0,0.0,40.0,3.0,0.0
4320,58.0,0.0,40.0,2.0,0.0
4321,73.0,2.0,40.0,3.0,0.0
4322,77.0,22.0,20.0,2.0,0.0
4323,78.0,13.0,20.0,2.0,0.0
4324,49.0,0.0,40.0,2.0,0.0
4325,71.0,3.0,40.0,3.0,0.0
4326,68.0,0.0,40.0,3.0,0.0
4327,61.0,0.0,40.0,3.0,0.0
4328,68.0,12.0,15.0,2.0,0.0
4329,37.0,0.0,40.0,3.0,0.0
4330,70.0,12.0,15.0,2.0,0.0
4331,68.0,9.0,15.0,2.0,0.0
4332,70.0,12.0,15.0,2.0,0.0
4333,68.0,12.0,15.0,2.0,0.0
4334,59.0,4.0,90.0,3.0,0.0
4335,68.0,0.0,90.0,3.0,0.0
4336,59.0,3.0,40.0,2.0,0.0
4337,70.0,12.0,15.0,2.0,0.0
4338,68.0,9.0,15.0,2.0,0.0
4339,70.0,12.0,15.0,2.0,0.0
4340,53.0,3.0,40.0,2.0,0.0
4341,68.0,12.0,15.0,2.0,0.0
4342,37.0,0.0,40.0,3.0,0.0
4343,61.0,0.0,40.0,3.0,0.0
4344,70.0,12.0,15.0,2.0,0.0
4345,68.0,5.0,15.0,2.0,0.0
4346,70.0,12.0,15.0,2.0,0.0
4347,68.0,12.0,15.0,2.0,0.0
4348,65.0,0.0,40.0,3.0,0.0
4349,59.0,92.0,40.0,2.0,0.0
4350,56.0,0.0,40.0,3.0,0.0
4351,70.0,9.0,15.0,2.0,0.0
4352,68.0,12.0,15.0,2.0,0.0
4353,54.0,0.0,90.0,2.0,0.0
4354,66.0,0.0,90.0,2.0,0.0
4355,66.0,140.0,90.0,3.0,0.0
4356,61.0,0.0,90.0,3.0,0.0
4357,58.0,0.0,90.0,3.0,0.0
4358,42.0,0.0,90.0,3.0,0.0
4359,58.0,0.0,90.0,2.0,0.0
4360,58.0,21.0,120.0,3.0,0.0
4361,66.0,0.0,120.0,3.0,0.0
4362,61.0,0.0,180.0,1.0,0.0
4363,61.0,0.0,180.0,3.0,0.0
4364,37.0,0.0,180.0,3.0,0.0
4365,65.0,0.0,15.0,3.0,0.0
4366,56.0,24.0,15.0,3.0,0.0
4367,58.0,37.0,15.0,3.0,0.0
4368,66.0,0.0,15.0,3.0,0.0
4369,65.0,0.0,90.0,0.0,0.0
4370,59.0,24.0,20.0,3.0,0.0
4371,71.0,96.0,90.0,0.0,0.0
4372,68.0,0.0,20.0,3.0,0.0
4373,56.0,11.0,20.0,3.0,0.0
4374,65.0,0.0,20.0,3.0,0.0
4375,68.0,23.0,15.0,3.0,0.0
4376,59.0,0.0,15.0,3.0,0.0
4377,65.0,0.0,15.0,3.0,0.0
4378,56.0,7.0,15.0,3.0,0.0
4379,58.0,0.0,90.0,3.0,0.0
4380,58.0,140.0,90.0,1.0,0.0
4381,30.0,0.0,90.0,3.0,0.0
4382,70.0,0.0,90.0,0.0,0.0
4383,66.0,0.0,90.0,0.0,0.0
4384,66.0,0.0,90.0,1.0,0.0
4385,66.0,0.0,90.0,3.0,0.0
4386,58.0,0.0,120.0,3.0,0.0
4387,66.0,0.0,120.0,3.0,0.0
4388,70.0,21.0,120.0,3.0,0.0
4389,37.0,0.0,180.0,3.0,0.0
4390,61.0,0.0,180.0,3.0,0.0
4391,61.0,0.0,180.0,1.0,0.0
4392,68.0,24.0,15.0,3.0,0.0
4393,65.0,0.0,15.0,3.0,0.0
4394,66.0,37.0,15.0,3.0,0.0
4395,70.0,0.0,15.0,3.0,0.0
4396,71.0,24.0,20.0,3.0,0.0
4397,77.0,52.0,90.0,0.0,0.0
4398,68.0,0.0,20.0,3.0,0.0
4399,71.0,0.0,90.0,0.0,0.0
4400,68.0,11.0,20.0,3.0,0.0
4401,65.0,0.0,20.0,3.0,0.0
4402,71.0,0.0,15.0,3.0,0.0
4403,68.0,23.0,15.0,3.0,0.0
4404,65.0,0.0,15.0,3.0,0.0
4405,68.0,7.0,15.0,3.0,0.0
4406,42.0,0.0,90.0,3.0,0.0
4407,78.0,0.0,90.0,0.0,0.0
4408,70.0,0.0,90.0,3.0,0.0
4409,66.0,0.0,90.0,3.0,0.0
4410,54.0,0.0,90.0,1.0,0.0
4411,66.0,0.0,90.0,1.0,0.0
4412,70.0,0.0,90.0,0.0,0.0
4413,54.0,44.0,40.0,2.0,0.0
4414,54.0,4.0,90.0,3.0,0.0
4415,70.0,0.0,40.0,2.0,0.0
4416,66.0,48.0,40.0,2.0,0.0
4417,70.0,48.0,40.0,2.0,0.0
4418,73.0,8.0,120.0,2.0,0.0
4419,66.0,0.0,40.0,2.0,0.0
4420,70.0,40.0,40.0,2.0,0.0
4421,66.0,0.0,40.0,2.0,0.0
4422,70.0,26.0,40.0,2.0,0.0
4423,66.0,0.0,40.0,2.0,0.0
4424,66.0,0.0,40.0,2.0,0.0
4425,76.0,22.0,20.0,2.0,0.0
4426,70.0,2.0,40.0,2.0,0.0
4427,75.0,7.0,20.0,2.0,0.0
4428,78.0,39.0,15.0,2.0,0.0
4429,70.0,0.0,40.0,2.0,0.0
4430,66.0,0.0,40.0,2.0,0.0
4431,76.0,26.0,40.0,2.0,0.0
4432,66.0,0.0,40.0,2.0,0.0
4433,75.0,22.0,20.0,2.0,0.0
4434,70.0,2.0,40.0,2.0,0.0
4435,73.0,13.0,20.0,2.0,0.0
4436,70.0,12.0,15.0,2.0,0.0
4437,66.0,3.0,40.0,2.0,0.0
4438,64.0,0.0,40.0,2.0,0.0
4439,35.0,4.0,90.0,3.0,0.0
4440,71.0,12.0,15.0,2.0,0.0
4441,70.0,9.0,15.0,2.0,0.0
4442,71.0,12.0,15.0,2.0,0.0
4443,66.0,0.0,40.0,2.0,0.0
4444,70.0,12.0,15.0,2.0,0.0
4445,64.0,3.0,40.0,2.0,0.0
4446,71.0,12.0,15.0,2.0,0.0
4447,70.0,5.0,15.0,2.0,0.0
4448,71.0,12.0,15.0,2.0,0.0
4449,70.0,12.0,15.0,2.0,0.0
4450,64.0,0.0,40.0,2.0,0.0
4451,66.0,26.0,40.0,2.0,0.0
4452,71.0,12.0,15.0,2.0,0.0
4453,70.0,1.0,15.0,2.0,0.0
4454,71.0,8.0,15.0,2.0,0.0
4455,64.0,2.0,40.0,2.0,0.0
4456,66.0,0.0,40.0,2.0,0.0
4457,71.0,22.0,20.0,2.0,0.0
4458,73.0,46.0,20.0,2.0,0.0
4459,66.0,44.0,40.0,2.0,0.0
4460,71.0,4.0,90.0,2.0,0.0
4461,63.0,0.0,40.0,2.0,0.0
4462,66.0,0.0,40.0,2.0,0.0
4463,63.0,48.0,40.0,2.0,0.0
4464,66.0,48.0,40.0,2.0,0.0
4465,63.0,0.0,40.0,2.0,0.0
4466,66.0,0.0,40.0,2.0,0.0
4467,63.0,48.0,40.0,2.0,0.0
4468,71.0,0.0,40.0,2.0,0.0
4469,78.0,0.0,40.0,2.0,0.0
4470,68.0,48.0,40.0,2.0,0.0
4471,61.0,0.0,40.0,2.0,0.0
4472,76.0,0.0,40.0,2.0,0.0
4473,61.0,0.0,40.0,2.0,0.0
4474,68.0,48.0,40.0,2.0,0.0
4475,61.0,48.0,40.0,2.0,0.0
4476,68.0,0.0,40.0,2.0,0.0
4477,76.0,8.0,120.0,2.0,0.0
4478,68.0,40.0,40.0,2.0,0.0
4479,61.0,0.0,40.0,2.0,0.0
4480,68.0,15.0,40.0,2.0,0.0
4481,61.0,0.0,40.0,2.0,0.0
4482,61.0,0.0,40.0,2.0,0.0
4483,68.0,48.0,40.0,2.0,0.0
4484,76.0,12.0,15.0,2.0,0.0
4485,78.0,12.0,15.0,2.0,0.0
4486,76.0,9.0,15.0,2.0,0.0
4487,78.0,0.0,15.0,2.0,0.0
4488,78.0,48.0,40.0,2.0,0.0
4489,61.0,0.0,40.0,2.0,0.0
4490,68.0,0.0,40.0,2.0,0.0
4491,61.0,48.0,40.0,2.0,0.0
4492,80.0,0.0,40.0,2.0,0.0
4493,68.0,0.0,40.0,2.0,0.0
4494,61.0,48.0,40.0,2.0,0.0
4495,58.0,0.0,40.0,2.0,0.0
4496,78.0,8.0,120.0,2.0,0.0
4497,61.0,0.0,40.0,2.0,0.0
4498,58.0,40.0,40.0,2.0,0.0
4499,61.0,26.0,40.0,2.0,0.0
4500,58.0,0.0,40.0,2.0,0.0
4501,61.0,0.0,40.0,2.0,0.0
4502,58.0,2.0,40.0,2.0,0.0
4503,80.0,22.0,20.0,2.0,0.0
4504,76.0,46.0,20.0,2.0,0.0
4505,75.0,4.0,90.0,2.0,0.0
4506,59.0,44.0,40.0,2.0,0.0
4507,66.0,0.0,40.0,2.0,0.0
4508,59.0,48.0,40.0,2.0,0.0
4509,66.0,0.0,40.0,2.0,0.0
4510,66.0,26.0,40.0,2.0,0.0
4511,59.0,0.0,40.0,2.0,0.0
4512,75.0,22.0,20.0,2.0,0.0
4513,66.0,0.0,40.0,2.0,0.0
4514,59.0,2.0,40.0,2.0,0.0
4515,71.0,24.0,20.0,2.0,0.0
4516,70.0,22.0,20.0,2.0,0.0
4517,51.0,0.0,40.0,3.0,0.0
4518,47.0,2.0,40.0,2.0,0.0
4519,56.0,0.0,40.0,3.0,0.0
4520,54.0,0.0,40.0,3.0,0.0
4521,68.0,24.0,20.0,2.0,0.0
4522,54.0,2.0,40.0,2.0,0.0
4523,67.0,22.0,20.0,2.0,0.0
4524,68.0,24.0,20.0,2.0,0.0
4525,67.0,22.0,20.0,2.0,0.0
4526,52.0,2.0,40.0,3.0,0.0
4527,51.0,0.0,40.0,2.0,0.0
4528,68.0,24.0,20.0,2.0,0.0
4529,67.0,22.0,20.0,2.0,0.0
4530,54.0,2.0,40.0,2.0,0.0
4531,68.0,24.0,20.0,2.0,0.0
4532,49.0,0.0,40.0,2.0,0.0
4533,58.0,0.0,40.0,3.0,0.0
4534,71.0,22.0,20.0,2.0,0.0
4535,54.0,2.0,40.0,3.0,0.0
4536,70.0,24.0,20.0,2.0,0.0
4537,69.0,22.0,20.0,2.0,0.0
4538,54.0,2.0,40.0,2.0,0.0
4539,70.0,24.0,20.0,2.0,0.0
4540,69.0,22.0,20.0,2.0,0.0
4541,52.0,2.0,40.0,2.0,0.0
4542,70.0,24.0,20.0,2.0,0.0
4543,54.0,2.0,40.0,2.0,0.0
4544,69.0,22.0,20.0,2.0,0.0
4545,70.0,24.0,20.0,2.0,0.0
4546,51.0,2.0,40.0,2.0,0.0
4547,59.0,0.0,40.0,3.0,0.0
4548,51.0,0.0,40.0,3.0,0.0
4549,54.0,0.0,40.0,3.0,0.0
4550,73.0,22.0,20.0,2.0,0.0
4551,71.0,24.0,20.0,2.0,0.0
4552,70.0,22.0,20.0,2.0,0.0
4553,54.0,2.0,40.0,2.0,0.0
4554,71.0,24.0,20.0,2.0,0.0
4555,51.0,0.0,40.0,2.0,0.0
4556,54.0,0.0,40.0,3.0,0.0
4557,51.0,0.0,40.0,3.0,0.0
4558,73.0,22.0,20.0,2.0,0.0
4559,60.0,2.0,40.0,3.0,0.0
4560,72.0,24.0,20.0,2.0,0.0
4561,70.0,22.0,20.0,2.0,0.0
4562,54.0,2.0,40.0,2.0,0.0
4563,72.0,24.0,20.0,2.0,0.0
4564,54.0,0.0,40.0,3.0,0.0
4565,46.0,0.0,40.0,3.0,0.0
4566,73.0,22.0,20.0,2.0,0.0
4567,46.0,0.0,40.0,2.0,0.0
4568,61.0,2.0,40.0,3.0,0.0
4569,71.0,24.0,20.0,2.0,0.0
4570,70.0,22.0,20.0,2.0,0.0
4571,54.0,2.0,40.0,2.0,0.0
4572,68.0,24.0,20.0,2.0,0.0
4573,66.0,22.0,20.0,2.0,0.0
4574,61.0,0.0,40.0,3.0,0.0
4575,54.0,2.0,40.0,3.0,0.0
4576,46.0,0.0,40.0,2.0,0.0
4577,64.0,0.0,40.0,3.0,0.0
4578,64.0,24.0,20.0,2.0,0.0
4579,63.0,22.0,20.0,2.0,0.0
4580,54.0,2.0,40.0,2.0,0.0
4581,64.0,46.0,20.0,2.0,0.0
4582,54.0,0.0,90.0,2.0,0.0
4583,47.0,0.0,90.0,2.0,0.0
4584,54.0,4.0,90.0,3.0,0.0
4585,63.0,44.0,40.0,2.0,0.0
4586,59.0,0.0,90.0,3.0,0.0
4587,63.0,0.0,90.0,3.0,0.0
4588,74.0,48.0,40.0,2.0,0.0
4589,75.0,48.0,40.0,2.0,0.0
4590,79.0,48.0,40.0,2.0,0.0
4591,80.0,48.0,40.0,2.0,0.0
4592,83.0,48.0,40.0,2.0,0.0
4593,75.0,44.0,40.0,2.0,0.0
4594,71.0,4.0,90.0,2.0,0.0
4595,59.0,0.0,90.0,2.0,0.0
4596,80.0,92.0,40.0,2.0,0.0
4597,70.0,88.0,90.0,2.0,0.0
4598,61.0,8.0,180.0,2.0,0.0
4599,78.0,0.0,90.0,2.0,0.0
4600,68.0,0.0,90.0,2.0,0.0
4601,77.0,4.0,90.0,2.0,0.0
4602,61.0,48.0,40.0,3.0,0.0
4603,49.0,0.0,40.0,3.0,0.0
4604,73.0,0.0,40.0,3.0,0.0
4605,48.0,0.0,40.0,3.0,0.0
4606,60.0,0.0,40.0,3.0,0.0
4607,72.0,0.0,40.0,3.0,0.0
4608,61.0,0.0,40.0,3.0,0.0
4609,49.0,0.0,40.0,3.0,0.0
4610,73.0,0.0,40.0,3.0,0.0
4611,60.0,0.0,40.0,3.0,0.0
4612,48.0,0.0,40.0,3.0,0.0
4613,72.0,0.0,40.0,3.0,0.0
4614,49.0,0.0,40.0,3.0,0.0
4615,61.0,0.0,40.0,3.0,0.0
4616,73.0,0.0,40.0,3.0,0.0
4617,49.0,6.0,90.0,3.0,0.0
4618,49.0,0.0,90.0,2.0,0.0
4619,37.0,0.0,90.0,3.0,0.0
4620,61.0,0.0,90.0,3.0,0.0
4621,61.0,24.0,20.0,2.0,0.0
4622,60.0,18.0,20.0,2.0,0.0
4623,61.0,24.0,20.0,2.0,0.0
4624,63.0,24.0,20.0,2.0,0.0
4625,61.0,24.0,20.0,2.0,0.0
4626,65.0,22.0,20.0,2.0,0.0
4627,59.0,2.0,40.0,2.0,0.0
4628,61.0,24.0,20.0,2.0,0.0
4629,58.0,2.0,40.0,2.0,0.0
4630,66.0,22.0,20.0,2.0,0.0
4631,61.0,24.0,20.0,2.0,0.0
4632,68.0,22.0,20.0,2.0,0.0
4633,53.0,2.0,40.0,2.0,0.0
4634,61.0,24.0,20.0,2.0,0.0
4635,54.0,2.0,40.0,2.0,0.0
4636,70.0,22.0,20.0,2.0,0.0
4637,61.0,24.0,20.0,2.0,0.0
4638,56.0,2.0,40.0,2.0,0.0
4639,71.0,22.0,20.0,2.0,0.0
4640,61.0,24.0,20.0,2.0,0.0
4641,70.0,2.0,40.0,2.0,0.0
4642,54.0,22.0,20.0,2.0,0.0
4643,61.0,24.0,20.0,2.0,0.0
4644,60.0,24.0,20.0,2.0,0.0
4645,61.0,21.0,20.0,2.0,0.0
4646,59.0,24.0,20.0,2.0,0.0
4647,75.0,3.0,20.0,2.0,0.0
4648,61.0,21.0,20.0,2.0,0.0
4649,58.0,24.0,20.0,2.0,0.0
4650,73.0,3.0,20.0,2.0,0.0
4651,61.0,13.0,20.0,2.0,0.0
4652,56.0,1.0,20.0,2.0,0.0
4653,71.0,11.0,15.0,2.0,0.0
4654,73.0,12.0,15.0,2.0,0.0
4655,61.0,24.0,20.0,2.0,0.0
4656,71.0,9.0,15.0,2.0,0.0
4657,73.0,2.0,15.0,2.0,0.0
4658,54.0,22.0,20.0,2.0,0.0
4659,70.0,2.0,40.0,2.0,0.0
4660,61.0,13.0,20.0,2.0,0.0
4661,68.0,11.0,15.0,2.0,0.0
4662,53.0,1.0,20.0,2.0,0.0
4663,70.0,12.0,15.0,2.0,0.0
4664,61.0,24.0,20.0,2.0,0.0
4665,68.0,9.0,15.0,2.0,0.0
4666,70.0,2.0,15.0,2.0,0.0
4667,51.0,22.0,20.0,2.0,0.0
4668,66.0,2.0,40.0,2.0,0.0
4669,61.0,24.0,20.0,2.0,0.0
4670,65.0,24.0,20.0,2.0,0.0
4671,49.0,6.0,90.0,2.0,0.0
4672,61.0,24.0,20.0,2.0,0.0
4673,60.0,18.0,20.0,2.0,0.0
4674,61.0,24.0,20.0,2.0,0.0
4675,63.0,24.0,20.0,2.0,0.0
4676,61.0,24.0,20.0,2.0,0.0
4677,59.0,2.0,40.0,2.0,0.0
4678,65.0,22.0,20.0,2.0,0.0
4679,61.0,24.0,20.0,2.0,0.0
4680,58.0,2.0,40.0,2.0,0.0
4681,66.0,22.0,20.0,2.0,0.0
4682,61.0,24.0,20.0,2.0,0.0
4683,68.0,22.0,20.0,2.0,0.0
4684,53.0,2.0,40.0,2.0,0.0
4685,61.0,24.0,20.0,2.0,0.0
4686,70.0,22.0,20.0,2.0,0.0
4687,54.0,2.0,40.0,2.0,0.0
4688,61.0,24.0,20.0,2.0,0.0
4689,71.0,22.0,20.0,2.0,0.0
4690,56.0,2.0,40.0,2.0,0.0
4691,61.0,24.0,20.0,2.0,0.0
4692,54.0,22.0,20.0,2.0,0.0
4693,70.0,2.0,40.0,2.0,0.0
4694,61.0,24.0,20.0,2.0,0.0
4695,60.0,24.0,20.0,2.0,0.0
4696,61.0,21.0,20.0,2.0,0.0
4697,59.0,24.0,20.0,2.0,0.0
4698,75.0,3.0,20.0,2.0,0.0
4699,61.0,21.0,20.0,2.0,0.0
4700,58.0,24.0,20.0,2.0,0.0
4701,73.0,3.0,20.0,2.0,0.0
4702,61.0,13.0,20.0,2.0,0.0
4703,56.0,1.0,20.0,2.0,0.0
4704,71.0,11.0,15.0,2.0,0.0
4705,73.0,12.0,15.0,2.0,0.0
4706,71.0,9.0,15.0,2.0,0.0
4707,61.0,24.0,20.0,2.0,0.0
4708,73.0,2.0,15.0,2.0,0.0
4709,70.0,2.0,40.0,2.0,0.0
4710,54.0,22.0,20.0,2.0,0.0
4711,61.0,13.0,20.0,2.0,0.0
4712,59.0,1.0,20.0,2.0,0.0
4713,68.0,11.0,15.0,2.0,0.0
4714,70.0,12.0,15.0,2.0,0.0
4715,68.0,9.0,15.0,2.0,0.0
4716,61.0,24.0,20.0,2.0,0.0
4717,70.0,2.0,15.0,2.0,0.0
4718,58.0,22.0,20.0,2.0,0.0
4719,66.0,2.0,40.0,2.0,0.0
4720,61.0,48.0,20.0,2.0,0.0
4721,63.0,4.0,90.0,2.0,0.0
4722,47.0,0.0,90.0,3.0,0.0
4723,58.0,24.0,20.0,2.0,0.0
4724,59.0,18.0,20.0,2.0,0.0
4725,63.0,2.0,40.0,3.0,0.0
4726,58.0,46.0,20.0,2.0,0.0
4727,59.0,4.0,90.0,2.0,0.0
4728,59.0,2.0,40.0,3.0,0.0
4729,70.0,21.0,20.0,2.0,0.0
4730,71.0,18.0,20.0,2.0,0.0
4731,68.0,2.0,40.0,3.0,0.0
4732,56.0,3.0,20.0,3.0,0.0
4733,68.0,46.0,20.0,2.0,0.0
4734,65.0,2.0,40.0,3.0,0.0
4735,49.0,4.0,90.0,3.0,0.0
4736,65.0,0.0,90.0,2.0,0.0
4737,60.0,24.0,20.0,2.0,0.0
4738,61.0,2.0,40.0,3.0,0.0
4739,65.0,0.0,40.0,3.0,0.0
4740,61.0,18.0,20.0,2.0,0.0
4741,60.0,46.0,20.0,2.0,0.0
4742,61.0,2.0,40.0,3.0,0.0
4743,61.0,4.0,90.0,2.0,0.0
4744,72.0,21.0,20.0,2.0,0.0
4745,58.0,3.0,20.0,3.0,0.0
4746,70.0,2.0,40.0,3.0,0.0
4747,73.0,18.0,20.0,2.0,0.0
4748,70.0,46.0,20.0,2.0,0.0
4749,66.0,4.0,90.0,2.0,0.0
4750,66.0,2.0,40.0,3.0,0.0
4751,51.0,0.0,90.0,3.0,0.0
4752,62.0,24.0,20.0,2.0,0.0
4753,66.0,2.0,40.0,3.0,0.0
4754,63.0,18.0,20.0,2.0,0.0
4755,63.0,0.0,40.0,3.0,0.0
4756,62.0,46.0,20.0,2.0,0.0
4757,63.0,4.0,90.0,2.0,0.0
4758,63.0,2.0,40.0,3.0,0.0
4759,74.0,21.0,20.0,2.0,0.0
4760,75.0,18.0,20.0,2.0,0.0
4761,71.0,2.0,40.0,3.0,0.0
4762,59.0,3.0,20.0,3.0,0.0
4763,71.0,46.0,20.0,2.0,0.0
4764,68.0,4.0,90.0,2.0,0.0
4765,68.0,2.0,40.0,3.0,0.0
4766,53.0,0.0,90.0,3.0,0.0
4767,64.0,24.0,20.0,2.0,0.0
4768,68.0,0.0,40.0,3.0,0.0
4769,65.0,18.0,20.0,2.0,0.0
4770,65.0,2.0,40.0,3.0,0.0
4771,64.0,46.0,20.0,2.0,0.0
4772,65.0,2.0,40.0,3.0,0.0
4773,65.0,4.0,90.0,2.0,0.0
4774,72.0,21.0,20.0,2.0,0.0
4775,71.0,0.0,40.0,3.0,0.0
4776,68.0,3.0,20.0,3.0,0.0
4777,73.0,18.0,20.0,2.0,0.0
4778,61.0,2.0,40.0,3.0,0.0
4779,71.0,24.0,20.0,2.0,0.0
4780,70.0,0.0,90.0,3.0,0.0
4781,70.0,22.0,20.0,2.0,0.0
4782,54.0,0.0,90.0,3.0,0.0
4783,66.0,2.0,40.0,2.0,0.0
4784,61.0,0.0,90.0,3.0,0.0
4785,66.0,6.0,90.0,3.0,0.0
4786,73.0,24.0,20.0,2.0,0.0
4787,78.0,18.0,20.0,2.0,0.0
4788,73.0,24.0,20.0,2.0,0.0
4789,61.0,12.0,180.0,3.0,0.0
4790,71.0,2.0,40.0,2.0,0.0
4791,77.0,22.0,20.0,2.0,0.0
4792,80.0,24.0,20.0,2.0,0.0
4793,77.0,24.0,20.0,2.0,0.0
4794,73.0,24.0,20.0,2.0,0.0
4795,78.0,22.0,20.0,2.0,0.0
4796,70.0,2.0,40.0,2.0,0.0
4797,73.0,24.0,20.0,2.0,0.0
4798,78.0,0.0,40.0,3.0,0.0
4799,66.0,2.0,40.0,2.0,0.0
4800,70.0,10.0,20.0,2.0,0.0
4801,73.0,21.0,20.0,2.0,0.0
4802,77.0,0.0,40.0,3.0,0.0
4803,71.0,22.0,20.0,2.0,0.0
4804,73.0,3.0,20.0,3.0,0.0
4805,68.0,2.0,40.0,2.0,0.0
4806,73.0,21.0,20.0,2.0,0.0
4807,68.0,22.0,20.0,2.0,0.0
4808,71.0,2.0,40.0,3.0,0.0
4809,73.0,3.0,20.0,3.0,0.0
4810,65.0,0.0,40.0,2.0,0.0
4811,73.0,24.0,20.0,2.0,0.0
4812,66.0,2.0,40.0,2.0,0.0
4813,70.0,0.0,90.0,3.0,0.0
4814,73.0,6.0,90.0,3.0,0.0
4815,70.0,22.0,20.0,2.0,0.0
4816,73.0,24.0,20.0,2.0,0.0
4817,70.0,18.0,20.0,2.0,0.0
4818,66.0,24.0,20.0,2.0,0.0
4819,73.0,12.0,180.0,3.0,0.0
4820,59.0,2.0,40.0,2.0,0.0
4821,65.0,22.0,20.0,2.0,0.0
4822,68.0,24.0,20.0,2.0,0.0
4823,65.0,24.0,20.0,2.0,0.0
4824,61.0,24.0,20.0,2.0,0.0
4825,66.0,22.0,20.0,2.0,0.0
4826,46.0,2.0,40.0,2.0,0.0
4827,61.0,24.0,20.0,2.0,0.0
4828,58.0,10.0,20.0,2.0,0.0
4829,66.0,2.0,40.0,3.0,0.0
4830,42.0,0.0,40.0,2.0,0.0
4831,61.0,21.0,20.0,2.0,0.0
4832,65.0,0.0,40.0,3.0,0.0
4833,59.0,22.0,20.0,2.0,0.0
4834,44.0,2.0,40.0,2.0,0.0
4835,61.0,3.0,20.0,3.0,0.0
4836,61.0,21.0,20.0,2.0,0.0
4837,41.0,2.0,40.0,2.0,0.0
4838,59.0,3.0,20.0,3.0,0.0
4839,61.0,0.0,20.0,3.0,0.0
4840,56.0,22.0,20.0,2.0,0.0
4841,61.0,46.0,20.0,2.0,0.0
4842,58.0,44.0,40.0,2.0,0.0
4843,58.0,0.0,90.0,3.0,0.0
4844,42.0,0.0,90.0,2.0,0.0
4845,61.0,4.0,90.0,3.0,0.0
4846,49.0,48.0,40.0,2.0,0.0
4847,54.0,48.0,40.0,2.0,0.0
4848,58.0,48.0,40.0,2.0,0.0
4849,61.0,48.0,40.0,2.0,0.0
4850,66.0,48.0,40.0,2.0,0.0
4851,70.0,23.0,40.0,2.0,0.0
4852,73.0,51.0,20.0,2.0,0.0
4853,54.0,2.0,40.0,3.0,0.0
4854,76.0,8.0,180.0,2.0,0.0
4855,54.0,0.0,360.0,1.0,0.0
4856,52.0,0.0,40.0,3.0,0.0
4857,66.0,5.0,360.0,1.0,0.0
4858,73.0,0.0,360.0,0.0,0.0
4859,76.0,0.0,360.0,0.0,0.0
4860,34.0,6.0,90.0,3.0,0.0
4861,49.0,0.0,40.0,3.0,0.0
4862,46.0,22.0,20.0,2.0,0.0
4863,54.0,24.0,20.0,2.0,0.0
4864,52.0,6.0,90.0,3.0,0.0
4865,49.0,0.0,90.0,3.0,0.0
4866,54.0,0.0,90.0,3.0,0.0
4867,49.0,18.0,20.0,2.0,0.0
4868,54.0,24.0,20.0,2.0,0.0
4869,34.0,6.0,90.0,3.0,0.0
4870,46.0,18.0,20.0,2.0,0.0
4871,54.0,24.0,20.0,2.0,0.0
4872,49.0,6.0,90.0,3.0,0.0
4873,52.0,0.0,90.0,3.0,0.0
4874,54.0,0.0,90.0,3.0,0.0
4875,49.0,10.0,20.0,2.0,0.0
4876,54.0,13.0,20.0,2.0,0.0
4877,64.0,11.0,15.0,2.0,0.0
4878,46.0,1.0,20.0,2.0,0.0
4879,34.0,6.0,90.0,3.0,0.0
4880,66.0,12.0,15.0,2.0,0.0
4881,64.0,5.0,15.0,2.0,0.0
4882,54.0,1.0,20.0,2.0,0.0
4883,66.0,12.0,15.0,2.0,0.0
4884,64.0,11.0,15.0,2.0,0.0
4885,52.0,0.0,90.0,3.0,0.0
4886,49.0,6.0,90.0,3.0,0.0
4887,54.0,0.0,90.0,3.0,0.0
4888,49.0,1.0,20.0,2.0,0.0
4889,66.0,12.0,15.0,2.0,0.0
4890,54.0,1.0,20.0,2.0,0.0
4891,64.0,5.0,15.0,2.0,0.0
4892,66.0,12.0,15.0,2.0,0.0
4893,64.0,11.0,15.0,2.0,0.0
4894,34.0,4.0,90.0,3.0,0.0
4895,46.0,1.0,20.0,2.0,0.0
4896,66.0,12.0,15.0,2.0,0.0
4897,64.0,5.0,15.0,2.0,0.0
4898,54.0,1.0,20.0,2.0,0.0
4899,66.0,12.0,15.0,2.0,0.0
4900,49.0,0.0,40.0,3.0,0.0
4901,54.0,0.0,40.0,3.0,0.0
4902,52.0,2.0,40.0,3.0,0.0
4903,49.0,1.0,20.0,2.0,0.0
4904,64.0,6.0,15.0,2.0,0.0
4905,66.0,9.0,15.0,2.0,0.0
4906,64.0,8.0,15.0,2.0,0.0
4907,54.0,24.0,20.0,2.0,0.0
4908,35.0,0.0,90.0,3.0,0.0
4909,47.0,0.0,90.0,2.0,0.0
4910,51.0,0.0,90.0,3.0,0.0
4911,54.0,6.0,90.0,3.0,0.0
4912,47.0,0.0,90.0,3.0,0.0
4913,75.0,0.0,90.0,0.0,0.0
4914,63.0,24.0,20.0,2.0,0.0
4915,66.0,0.0,90.0,1.0,0.0
4916,54.0,0.0,90.0,1.0,0.0
4917,71.0,0.0,90.0,0.0,0.0
4918,65.0,24.0,20.0,2.0,0.0
4919,66.0,18.0,20.0,2.0,0.0
4920,65.0,24.0,20.0,2.0,0.0
4921,66.0,24.0,20.0,2.0,0.0
4922,67.0,24.0,20.0,2.0,0.0
4923,68.0,24.0,20.0,2.0,0.0
4924,67.0,24.0,20.0,2.0,0.0
4925,68.0,24.0,20.0,2.0,0.0
4926,70.0,24.0,20.0,2.0,0.0
4927,71.0,24.0,20.0,2.0,0.0
4928,70.0,46.0,20.0,2.0,0.0
4929,71.0,26.0,40.0,2.0,0.0
4930,70.0,24.0,20.0,2.0,0.0
4931,68.0,46.0,20.0,2.0,0.0
4932,46.0,22.0,40.0,2.0,0.0
4933,73.0,26.0,60.0,2.0,0.0
4934,54.0,2.0,40.0,2.0,0.0
4935,66.0,46.0,20.0,2.0,0.0
4936,71.0,22.0,60.0,2.0,0.0
4937,66.0,3.0,180.0,3.0,0.0
4938,51.0,22.0,40.0,2.0,0.0
4939,59.0,4.0,90.0,3.0,0.0
4940,54.0,2.0,40.0,2.0,0.0
4941,68.0,13.0,20.0,2.0,0.0
4942,63.0,4.0,90.0,3.0,0.0
4943,47.0,3.0,40.0,2.0,0.0
4944,68.0,12.0,15.0,2.0,0.0
4945,70.0,12.0,15.0,2.0,0.0
4946,68.0,9.0,15.0,2.0,0.0
4947,70.0,12.0,15.0,2.0,0.0
4948,68.0,12.0,15.0,2.0,0.0
4949,54.0,3.0,40.0,2.0,0.0
4950,70.0,9.0,15.0,2.0,0.0
4951,68.0,5.0,15.0,2.0,0.0
4952,70.0,12.0,15.0,2.0,0.0
4953,68.0,12.0,15.0,2.0,0.0
4954,49.0,3.0,40.0,2.0,0.0
4955,61.0,0.0,40.0,3.0,0.0
4956,65.0,4.0,90.0,3.0,0.0
4957,70.0,12.0,15.0,2.0,0.0
4958,68.0,9.0,15.0,2.0,0.0
4959,70.0,12.0,15.0,2.0,0.0
4960,68.0,12.0,15.0,2.0,0.0
4961,59.0,42.0,40.0,3.0,0.0
4962,53.0,0.0,40.0,2.0,0.0
4963,70.0,9.0,15.0,2.0,0.0
4964,68.0,8.0,15.0,2.0,0.0
4965,66.0,0.0,40.0,3.0,0.0
4966,54.0,0.0,90.0,2.0,0.0
4967,66.0,140.0,90.0,2.0,0.0
4968,42.0,0.0,90.0,2.0,0.0
4969,58.0,50.0,40.0,3.0,0.0
4970,61.0,56.0,120.0,3.0,0.0
4971,53.0,44.0,120.0,3.0,0.0
4972,47.0,12.0,180.0,3.0,0.0
4973,35.0,0.0,180.0,3.0,0.0
4974,63.0,40.0,40.0,3.0,0.0
4975,61.0,48.0,150.0,3.0,0.0
4976,56.0,48.0,40.0,3.0,0.0
4977,46.0,0.0,180.0,3.0,0.0
4978,34.0,12.0,180.0,3.0,0.0
4979,54.0,44.0,120.0,3.0,0.0
4980,63.0,40.0,40.0,3.0,0.0
4981,61.0,56.0,120.0,3.0,0.0
4982,58.0,40.0,40.0,3.0,0.0
4983,56.0,44.0,120.0,3.0,0.0
4984,53.0,12.0,180.0,3.0,0.0
4985,29.0,0.0,180.0,3.0,0.0
4986,73.0,40.0,40.0,3.0,0.0
4987,71.0,44.0,150.0,3.0,0.0
4988,68.0,48.0,40.0,3.0,0.0
4989,54.0,0.0,90.0,3.0,0.0
4990,42.0,8.0,180.0,2.0,0.0
4991,61.0,0.0,90.0,3.0,0.0
4992,30.0,4.0,90.0,3.0,0.0
4993,49.0,44.0,120.0,2.0,0.0
4994,69.0,40.0,40.0,3.0,0.0
4995,70.0,4.0,90.0,3.0,0.0
4996,61.0,56.0,120.0,2.0,0.0
4997,54.0,40.0,40.0,2.0,0.0
4998,47.0,12.0,180.0,2.0,0.0
4999,53.0,44.0,120.0,2.0,0.0
5000,63.0,40.0,40.0,2.0,0.0
5001,61.0,48.0,150.0,2.0,0.0
5002,54.0,48.0,40.0,2.0,0.0
5003,46.0,12.0,180.0,2.0,0.0
5004,54.0,44.0,120.0,2.0,0.0
5005,63.0,40.0,40.0,2.0,0.0
5006,61.0,56.0,120.0,2.0,0.0
5007,58.0,40.0,40.0,2.0,0.0
5008,53.0,12.0,180.0,2.0,0.0
5009,56.0,44.0,120.0,2.0,0.0
5010,73.0,40.0,40.0,2.0,0.0
5011,71.0,0.0,150.0,2.0,0.0
5012,61.0,48.0,40.0,2.0,0.0
5013,61.0,8.0,120.0,2.0,0.0
5014,61.0,48.0,40.0,3.0,0.0
5015,54.0,0.0,180.0,2.0,0.0
5016,54.0,23.0,40.0,3.0,0.0
5017,73.0,0.0,40.0,2.0,0.0
5018,70.0,8.0,120.0,2.0,0.0
5019,58.0,17.0,20.0,3.0,0.0
5020,58.0,0.0,40.0,2.0,0.0
5021,61.0,23.0,40.0,3.0,0.0
5022,63.0,17.0,20.0,3.0,0.0
5023,59.0,48.0,40.0,3.0,0.0
5024,47.0,0.0,180.0,3.0,0.0
5025,53.0,8.0,120.0,2.0,0.0
5026,47.0,12.0,180.0,2.0,0.0
5027,71.0,0.0,40.0,2.0,0.0
5028,51.0,23.0,40.0,3.0,0.0
5029,68.0,0.0,150.0,2.0,0.0
5030,56.0,17.0,20.0,3.0,0.0
5031,59.0,23.0,40.0,3.0,0.0
5032,61.0,0.0,40.0,2.0,0.0
5033,61.0,25.0,20.0,3.0,0.0
5034,58.0,8.0,120.0,2.0,0.0
5035,49.0,12.0,180.0,2.0,0.0
5036,58.0,9.0,40.0,3.0,0.0
5037,49.0,0.0,180.0,3.0,0.0
5038,54.0,0.0,40.0,3.0,0.0
5039,71.0,39.0,15.0,2.0,0.0
5040,70.0,23.0,40.0,2.0,0.0
5041,66.0,8.0,120.0,2.0,0.0
5042,61.0,17.0,20.0,3.0,0.0
5043,54.0,23.0,40.0,2.0,0.0
5044,66.0,0.0,40.0,3.0,0.0
5045,49.0,0.0,180.0,3.0,0.0
5046,49.0,8.0,180.0,2.0,0.0
5047,59.0,17.0,20.0,3.0,0.0
5048,59.0,8.0,120.0,2.0,0.0
5049,56.0,0.0,40.0,3.0,0.0
5050,70.0,39.0,15.0,2.0,0.0
5051,68.0,23.0,40.0,2.0,0.0
5052,65.0,4.0,90.0,2.0,0.0
5053,65.0,17.0,20.0,3.0,0.0
5054,71.0,36.0,40.0,3.0,0.0
5055,65.0,13.0,40.0,3.0,0.0
5056,56.0,0.0,40.0,2.0,0.0
5057,58.0,10.0,15.0,3.0,0.0
5058,58.0,0.0,90.0,2.0,0.0
5059,49.0,0.0,40.0,3.0,0.0
5060,66.0,0.0,90.0,2.0,0.0
5061,54.0,17.0,90.0,2.0,0.0
5062,42.0,13.0,40.0,3.0,0.0
5063,66.0,14.0,20.0,3.0,0.0
5064,61.0,11.0,15.0,3.0,0.0
5065,58.0,24.0,15.0,3.0,0.0
5066,61.0,7.0,15.0,3.0,0.0
5067,58.0,24.0,15.0,3.0,0.0
5068,66.0,13.0,40.0,3.0,0.0
5069,61.0,11.0,15.0,3.0,0.0
5070,58.0,24.0,15.0,3.0,0.0
5071,65.0,13.0,40.0,3.0,0.0
5072,61.0,11.0,15.0,3.0,0.0
5073,68.0,14.0,20.0,3.0,0.0
5074,37.0,13.0,40.0,3.0,0.0
5075,53.0,0.0,40.0,3.0,0.0
5076,59.0,10.0,15.0,3.0,0.0
5077,61.0,11.0,15.0,3.0,0.0
5078,59.0,24.0,15.0,3.0,0.0
5079,61.0,24.0,15.0,3.0,0.0
5080,59.0,24.0,15.0,3.0,0.0
5081,68.0,13.0,40.0,3.0,0.0
5082,61.0,11.0,15.0,3.0,0.0
5083,66.0,13.0,40.0,3.0,0.0
5084,59.0,24.0,15.0,3.0,0.0
5085,61.0,11.0,15.0,3.0,0.0
5086,54.0,0.0,40.0,3.0,0.0
5087,58.0,10.0,15.0,3.0,0.0
5088,70.0,14.0,20.0,3.0,0.0
5089,30.0,13.0,40.0,3.0,0.0
5090,61.0,11.0,15.0,3.0,0.0
5091,58.0,24.0,15.0,3.0,0.0
5092,61.0,24.0,15.0,3.0,0.0
5093,54.0,24.0,15.0,3.0,0.0
5094,70.0,13.0,40.0,3.0,0.0
5095,61.0,11.0,15.0,3.0,0.0
5096,68.0,13.0,40.0,3.0,0.0
5097,54.0,24.0,15.0,3.0,0.0
5098,61.0,11.0,15.0,3.0,0.0
5099,65.0,13.0,40.0,3.0,0.0
5100,68.0,0.0,180.0,1.0,0.0
5101,71.0,0.0,40.0,3.0,0.0
5102,41.0,0.0,40.0,3.0,0.0
5103,56.0,24.0,15.0,3.0,0.0
5104,71.0,0.0,180.0,0.0,0.0
5105,80.0,1.0,180.0,0.0,0.0
5106,61.0,0.0,180.0,1.0,0.0
5107,61.0,11.0,15.0,3.0,0.0
5108,56.0,24.0,15.0,3.0,0.0
5109,71.0,9.0,40.0,3.0,0.0
5110,65.0,0.0,40.0,3.0,0.0
5111,41.0,0.0,40.0,3.0,0.0
5112,61.0,11.0,15.0,3.0,0.0
5113,41.0,13.0,40.0,3.0,0.0
5114,73.0,4.0,15.0,3.0,0.0
5115,65.0,0.0,40.0,3.0,0.0
5116,56.0,24.0,15.0,3.0,0.0
5117,71.0,0.0,40.0,3.0,0.0
5118,61.0,11.0,15.0,3.0,0.0
5119,59.0,13.0,15.0,3.0,0.0
5120,70.0,10.0,20.0,3.0,0.0
5121,41.0,2.0,40.0,3.0,0.0
5122,65.0,0.0,40.0,3.0,0.0
5123,68.0,24.0,20.0,3.0,0.0
5124,61.0,11.0,15.0,3.0,0.0
5125,70.0,0.0,40.0,0.0,0.0
5126,66.0,2.0,40.0,1.0,0.0
5127,54.0,0.0,40.0,1.0,0.0
5128,58.0,0.0,40.0,3.0,0.0
5129,42.0,0.0,40.0,3.0,0.0
5130,54.0,22.0,20.0,2.0,0.0
5131,78.0,0.0,40.0,0.0,0.0
5132,66.0,0.0,40.0,3.0,0.0
5133,61.0,24.0,20.0,2.0,0.0
5134,58.0,24.0,20.0,2.0,0.0
5135,61.0,24.0,20.0,2.0,0.0
5136,58.0,0.0,20.0,2.0,0.0
5137,66.0,24.0,20.0,2.0,0.0
5138,61.0,0.0,20.0,2.0,0.0
5139,65.0,24.0,20.0,2.0,0.0
5140,58.0,0.0,20.0,2.0,0.0
5141,66.0,24.0,20.0,2.0,0.0
5142,61.0,0.0,20.0,2.0,0.0
5143,65.0,24.0,20.0,2.0,0.0
5144,59.0,2.0,40.0,3.0,0.0
5145,27.0,0.0,40.0,3.0,0.0
5146,49.0,0.0,40.0,3.0,0.0
5147,68.0,0.0,40.0,2.0,0.0
5148,53.0,22.0,20.0,2.0,0.0
5149,53.0,0.0,40.0,3.0,0.0
5150,61.0,24.0,20.0,2.0,0.0
5151,59.0,24.0,20.0,2.0,0.0
5152,61.0,24.0,20.0,2.0,0.0
5153,59.0,0.0,20.0,2.0,0.0
5154,68.0,24.0,20.0,2.0,0.0
5155,61.0,24.0,20.0,2.0,0.0
5156,66.0,0.0,20.0,2.0,0.0
5157,59.0,0.0,20.0,2.0,0.0
5158,68.0,24.0,20.0,2.0,0.0
5159,66.0,0.0,20.0,2.0,0.0
5160,61.0,24.0,20.0,2.0,0.0
5161,49.0,0.0,40.0,3.0,0.0
5162,54.0,0.0,40.0,3.0,0.0
5163,70.0,0.0,40.0,2.0,0.0
5164,54.0,22.0,20.0,2.0,0.0
5165,58.0,0.0,40.0,3.0,0.0
5166,30.0,2.0,40.0,3.0,0.0
5167,61.0,24.0,20.0,2.0,0.0
5168,58.0,24.0,20.0,2.0,0.0
5169,61.0,24.0,20.0,2.0,0.0
5170,70.0,24.0,20.0,2.0,0.0
5171,58.0,0.0,20.0,2.0,0.0
5172,68.0,24.0,20.0,2.0,0.0
5173,61.0,0.0,20.0,2.0,0.0
5174,58.0,24.0,20.0,2.0,0.0
5175,70.0,0.0,20.0,2.0,0.0
5176,68.0,21.0,20.0,2.0,0.0
5177,61.0,0.0,20.0,2.0,0.0
5178,71.0,0.0,180.0,3.0,0.0
5179,56.0,14.0,180.0,3.0,0.0
5180,71.0,3.0,20.0,2.0,0.0
5181,65.0,0.0,180.0,3.0,0.0
5182,37.0,2.0,40.0,3.0,0.0
5183,53.0,22.0,20.0,2.0,0.0
5184,61.0,21.0,20.0,2.0,0.0
5185,56.0,24.0,20.0,2.0,0.0
5186,71.0,3.0,20.0,2.0,0.0
5187,61.0,7.0,20.0,2.0,0.0
5188,53.0,22.0,20.0,2.0,0.0
5189,73.0,17.0,15.0,2.0,0.0
5190,25.0,2.0,40.0,3.0,0.0
5191,71.0,0.0,40.0,2.0,0.0
5192,61.0,24.0,20.0,2.0,0.0
5193,70.0,0.0,20.0,2.0,0.0
5194,56.0,10.0,20.0,2.0,0.0
5195,61.0,0.0,20.0,2.0,0.0
5196,68.0,24.0,20.0,2.0,0.0
5197,30.0,0.0,90.0,3.0,0.0
5198,66.0,24.0,20.0,2.0,0.0
5199,54.0,0.0,90.0,2.0,0.0
5200,70.0,0.0,90.0,3.0,0.0
5201,54.0,0.0,90.0,3.0,0.0
5202,66.0,6.0,90.0,3.0,0.0
5203,78.0,24.0,20.0,2.0,0.0
5204,82.0,18.0,20.0,2.0,0.0
5205,77.0,24.0,20.0,2.0,0.0
5206,78.0,24.0,20.0,2.0,0.0
5207,74.0,24.0,20.0,2.0,0.0
5208,75.0,24.0,20.0,2.0,0.0
5209,70.0,24.0,20.0,2.0,0.0
5210,71.0,24.0,20.0,2.0,0.0
5211,75.0,24.0,20.0,2.0,0.0
5212,78.0,24.0,20.0,2.0,0.0
5213,74.0,24.0,20.0,2.0,0.0
5214,75.0,24.0,20.0,2.0,0.0
5215,70.0,24.0,20.0,2.0,0.0
5216,71.0,24.0,20.0,2.0,0.0
5217,67.0,24.0,20.0,2.0,0.0
5218,56.0,6.0,90.0,3.0,0.0
5219,51.0,8.0,180.0,3.0,0.0
5220,47.0,0.0,180.0,3.0,0.0
5221,68.0,24.0,20.0,2.0,0.0
5222,67.0,24.0,20.0,2.0,0.0
5223,68.0,18.0,20.0,2.0,0.0
5224,67.0,24.0,20.0,2.0,0.0
5225,59.0,6.0,90.0,3.0,0.0
5226,68.0,22.0,150.0,2.0,0.0
5227,47.0,0.0,20.0,2.0,0.0
5228,56.0,24.0,20.0,3.0,0.0
5229,46.0,0.0,20.0,2.0,0.0
5230,55.0,24.0,20.0,3.0,0.0
5231,47.0,10.0,20.0,2.0,0.0
5232,56.0,0.0,20.0,3.0,0.0
5233,46.0,0.0,20.0,2.0,0.0
5234,55.0,68.0,20.0,3.0,0.0
5235,35.0,8.0,180.0,3.0,0.0
5236,47.0,0.0,180.0,2.0,0.0
5237,47.0,6.0,90.0,3.0,0.0
5238,56.0,0.0,180.0,3.0,0.0
5239,63.0,0.0,90.0,3.0,0.0
5240,75.0,7.0,20.0,2.0,0.0
5241,53.0,0.0,90.0,3.0,0.0
5242,73.0,39.0,15.0,2.0,0.0
5243,49.0,6.0,90.0,3.0,0.0
5244,71.0,26.0,40.0,2.0,0.0
5245,70.0,10.0,20.0,2.0,0.0
5246,68.0,46.0,20.0,2.0,0.0
5247,49.0,0.0,90.0,3.0,0.0
5248,46.0,0.0,90.0,2.0,0.0
5249,73.0,44.0,40.0,2.0,0.0
5250,54.0,0.0,90.0,3.0,0.0
5251,34.0,4.0,90.0,3.0,0.0
5252,72.0,48.0,40.0,2.0,0.0
5253,66.0,3.0,180.0,3.0,0.0
5254,51.0,0.0,90.0,3.0,0.0
5255,39.0,0.0,90.0,3.0,0.0
5256,51.0,4.0,90.0,2.0,0.0
5257,54.0,0.0,180.0,2.0,0.0
5258,71.0,36.0,40.0,2.0,0.0
5259,70.0,15.0,40.0,2.0,0.0
5260,59.0,0.0,90.0,3.0,0.0
5261,68.0,12.0,15.0,2.0,0.0
5262,63.0,0.0,90.0,3.0,0.0
5263,47.0,0.0,90.0,2.0,0.0
5264,35.0,7.0,90.0,3.0,0.0
5265,70.0,12.0,15.0,2.0,0.0
5266,68.0,12.0,15.0,2.0,0.0
5267,70.0,12.0,15.0,2.0,0.0
5268,68.0,12.0,15.0,2.0,0.0
5269,70.0,9.0,15.0,2.0,0.0
5270,68.0,5.0,15.0,2.0,0.0
5271,70.0,12.0,15.0,2.0,0.0
5272,68.0,12.0,15.0,2.0,0.0
5273,61.0,0.0,90.0,3.0,0.0
5274,49.0,30.0,90.0,2.0,0.0
5275,65.0,0.0,90.0,3.0,0.0
5276,56.0,0.0,90.0,3.0,0.0
5277,53.0,0.0,90.0,2.0,0.0
5278,37.0,0.0,90.0,3.0,0.0
5279,70.0,12.0,15.0,2.0,0.0
5280,68.0,12.0,15.0,2.0,0.0
5281,70.0,12.0,15.0,2.0,0.0
5282,68.0,12.0,15.0,2.0,0.0
5283,70.0,9.0,15.0,2.0,0.0
5284,68.0,8.0,15.0,2.0,0.0
5285,85.0,24.0,20.0,2.0,0.0
5286,84.0,24.0,20.0,2.0,0.0
5287,85.0,24.0,20.0,2.0,0.0
5288,81.0,24.0,20.0,2.0,0.0
5289,82.0,24.0,20.0,2.0,0.0
5290,81.0,24.0,20.0,2.0,0.0
5291,82.0,24.0,20.0,2.0,0.0
5292,77.0,24.0,20.0,2.0,0.0
5293,78.0,24.0,20.0,2.0,0.0
5294,77.0,24.0,20.0,2.0,0.0
5295,78.0,24.0,20.0,2.0,0.0
5296,74.0,24.0,20.0,2.0,0.0
5297,75.0,24.0,20.0,2.0,0.0
5298,74.0,24.0,20.0,2.0,0.0
5299,75.0,24.0,20.0,2.0,0.0
5300,70.0,24.0,20.0,2.0,0.0
5301,71.0,24.0,20.0,2.0,0.0
5302,63.0,0.0,120.0,3.0,0.0
5303,68.0,6.0,90.0,3.0,0.0
5304,47.0,0.0,120.0,3.0,0.0
5305,70.0,24.0,20.0,2.0,0.0
5306,71.0,18.0,20.0,2.0,0.0
5307,67.0,24.0,20.0,2.0,0.0
5308,68.0,24.0,20.0,3.0,0.0
5309,68.0,24.0,120.0,2.0,0.0
5310,59.0,0.0,20.0,2.0,0.0
5311,71.0,6.0,90.0,3.0,0.0
5312,67.0,0.0,20.0,3.0,0.0
5313,46.0,0.0,20.0,3.0,0.0
5314,58.0,0.0,20.0,2.0,0.0
5315,61.0,24.0,20.0,3.0,0.0
5316,44.0,0.0,20.0,3.0,0.0
5317,68.0,0.0,20.0,3.0,0.0
5318,56.0,0.0,20.0,2.0,0.0
5319,59.0,18.0,20.0,3.0,0.0
5320,70.0,0.0,20.0,3.0,0.0
5321,58.0,24.0,20.0,3.0,0.0
5322,42.0,0.0,20.0,3.0,0.0
5323,54.0,0.0,20.0,2.0,0.0
5324,56.0,0.0,90.0,3.0,0.0
5325,53.0,0.0,90.0,2.0,0.0
5326,71.0,0.0,90.0,3.0,0.0
5327,75.0,6.0,90.0,3.0,0.0
5328,41.0,0.0,90.0,3.0,0.0
5329,66.0,24.0,20.0,2.0,0.0
5330,65.0,18.0,20.0,2.0,0.0
5331,66.0,24.0,20.0,2.0,0.0
5332,59.0,0.0,90.0,3.0,0.0
5333,65.0,0.0,90.0,3.0,0.0
5334,68.0,24.0,20.0,2.0,0.0
5335,65.0,0.0,90.0,2.0,0.0
5336,59.0,0.0,90.0,2.0,0.0
5337,70.0,24.0,20.0,2.0,0.0
5338,71.0,18.0,20.0,2.0,0.0
5339,72.0,46.0,20.0,2.0,0.0
5340,73.0,44.0,40.0,2.0,0.0
5341,58.0,0.0,90.0,3.0,0.0
5342,66.0,0.0,90.0,2.0,0.0
5343,58.0,4.0,90.0,2.0,0.0
5344,66.0,0.0,90.0,3.0,0.0
5345,72.0,48.0,40.0,2.0,0.0
5346,66.0,0.0,180.0,2.0,0.0
5347,71.0,36.0,40.0,2.0,0.0
5348,63.0,4.0,90.0,3.0,0.0
5349,63.0,0.0,90.0,2.0,0.0
5350,78.0,3.0,180.0,3.0,0.0
5351,70.0,15.0,40.0,2.0,0.0
5352,59.0,0.0,90.0,2.0,0.0
5353,68.0,12.0,15.0,2.0,0.0
5354,75.0,0.0,90.0,3.0,0.0
5355,59.0,7.0,90.0,3.0,0.0
5356,70.0,12.0,15.0,2.0,0.0
5357,68.0,12.0,15.0,2.0,0.0
5358,70.0,12.0,15.0,2.0,0.0
5359,68.0,12.0,15.0,2.0,0.0
5360,70.0,9.0,15.0,2.0,0.0
5361,68.0,5.0,15.0,2.0,0.0
5362,70.0,12.0,15.0,2.0,0.0
5363,73.0,0.0,90.0,3.0,0.0
5364,61.0,0.0,90.0,2.0,0.0
5365,61.0,0.0,90.0,3.0,0.0
5366,77.0,30.0,90.0,3.0,0.0
5367,65.0,0.0,90.0,2.0,0.0
5368,68.0,12.0,15.0,2.0,0.0
5369,70.0,12.0,15.0,2.0,0.0
5370,68.0,12.0,15.0,2.0,0.0
5371,70.0,12.0,15.0,2.0,0.0
5372,68.0,12.0,15.0,2.0,0.0
5373,70.0,9.0,15.0,2.0,0.0
5374,68.0,8.0,15.0,2.0,0.0
5375,61.0,6.0,90.0,2.0,0.0
5376,73.0,0.0,90.0,2.0,0.0
5377,78.0,0.0,810.0,0.0,0.0
5378,66.0,0.0,810.0,0.0,0.0
5379,54.0,0.0,810.0,1.0,0.0
5380,66.0,0.0,810.0,1.0,0.0
5381,46.0,24.0,20.0,2.0,0.0
5382,54.0,24.0,20.0,2.0,0.0
5383,49.0,18.0,20.0,2.0,0.0
5384,54.0,24.0,20.0,2.0,0.0
5385,45.0,24.0,20.0,2.0,0.0
5386,54.0,24.0,20.0,2.0,0.0
5387,47.0,22.0,20.0,2.0,0.0
5388,72.0,2.0,40.0,2.0,0.0
5389,60.0,0.0,40.0,2.0,0.0
5390,54.0,24.0,20.0,2.0,0.0
5391,61.0,6.0,90.0,2.0,0.0
5392,73.0,0.0,90.0,2.0,0.0
5393,46.0,24.0,20.0,2.0,0.0
5394,54.0,24.0,20.0,2.0,0.0
5395,49.0,18.0,20.0,2.0,0.0
5396,54.0,24.0,20.0,2.0,0.0
5397,45.0,24.0,20.0,2.0,0.0
5398,54.0,24.0,20.0,2.0,0.0
5399,60.0,0.0,40.0,2.0,0.0
5400,72.0,2.0,40.0,2.0,0.0
5401,47.0,22.0,20.0,2.0,0.0
5402,54.0,24.0,20.0,2.0,0.0
5403,73.0,0.0,40.0,2.0,0.0
5404,46.0,22.0,20.0,2.0,0.0
5405,61.0,2.0,40.0,2.0,0.0
5406,54.0,24.0,20.0,2.0,0.0
5407,72.0,2.0,40.0,2.0,0.0
5408,60.0,0.0,40.0,2.0,0.0
5409,45.0,22.0,20.0,2.0,0.0
5410,54.0,24.0,20.0,2.0,0.0
5411,46.0,22.0,20.0,2.0,0.0
5412,61.0,2.0,40.0,2.0,0.0
5413,73.0,0.0,40.0,2.0,0.0
5414,54.0,24.0,20.0,2.0,0.0
5415,60.0,0.0,40.0,2.0,0.0
5416,72.0,2.0,40.0,2.0,0.0
5417,45.0,22.0,20.0,2.0,0.0
5418,54.0,24.0,20.0,2.0,0.0
5419,73.0,0.0,40.0,2.0,0.0
5420,46.0,22.0,20.0,2.0,0.0
5421,61.0,2.0,40.0,2.0,0.0
5422,54.0,24.0,20.0,2.0,0.0
5423,45.0,22.0,20.0,2.0,0.0
5424,60.0,0.0,40.0,2.0,0.0
5425,72.0,2.0,40.0,2.0,0.0
5426,54.0,24.0,20.0,2.0,0.0
5427,46.0,22.0,20.0,2.0,0.0
5428,73.0,0.0,40.0,2.0,0.0
5429,61.0,2.0,40.0,2.0,0.0
5430,54.0,24.0,20.0,2.0,0.0
5431,60.0,0.0,40.0,2.0,0.0
5432,72.0,2.0,40.0,2.0,0.0
5433,45.0,22.0,20.0,2.0,0.0
5434,54.0,46.0,20.0,2.0,0.0
5435,46.0,4.0,90.0,2.0,0.0
5436,73.0,44.0,40.0,2.0,0.0
5437,61.0,0.0,40.0,2.0,0.0
5438,54.0,0.0,90.0,2.0,0.0
5439,60.0,48.0,40.0,2.0,0.0
5440,72.0,0.0,40.0,2.0,0.0
5441,73.0,48.0,40.0,2.0,0.0
5442,61.0,0.0,40.0,2.0,0.0
5443,62.0,48.0,40.0,2.0,0.0
5444,74.0,0.0,40.0,2.0,0.0
5445,63.0,48.0,40.0,2.0,0.0
5446,75.0,0.0,40.0,2.0,0.0
5447,64.0,0.0,40.0,2.0,0.0
5448,76.0,48.0,40.0,2.0,0.0
5449,65.0,0.0,40.0,2.0,0.0
5450,77.0,48.0,40.0,2.0,0.0
5451,78.0,0.0,40.0,2.0,0.0
5452,66.0,23.0,40.0,2.0,0.0
5453,85.0,24.0,20.0,2.0,0.0
5454,70.0,3.0,20.0,2.0,0.0
5455,82.0,21.0,20.0,2.0,0.0
5456,68.0,3.0,20.0,2.0,0.0
5457,83.0,24.0,20.0,2.0,0.0
5458,80.0,21.0,20.0,2.0,0.0
5459,66.0,3.0,20.0,2.0,0.0
5460,82.0,24.0,20.0,2.0,0.0
5461,78.0,21.0,20.0,2.0,0.0
5462,80.0,24.0,20.0,2.0,0.0
5463,65.0,3.0,20.0,2.0,0.0
5464,77.0,21.0,20.0,2.0,0.0
5465,82.0,24.0,20.0,2.0,0.0
5466,66.0,3.0,20.0,2.0,0.0
5467,78.0,21.0,20.0,2.0,0.0
5468,80.0,24.0,20.0,2.0,0.0
5469,65.0,3.0,20.0,2.0,0.0
5470,77.0,21.0,20.0,2.0,0.0
5471,78.0,24.0,20.0,2.0,0.0
5472,63.0,3.0,20.0,2.0,0.0
5473,75.0,21.0,20.0,2.0,0.0
5474,62.0,3.0,20.0,2.0,0.0
5475,77.0,24.0,20.0,2.0,0.0
5476,74.0,21.0,20.0,2.0,0.0
5477,63.0,0.0,20.0,3.0,0.0
5478,78.0,24.0,20.0,2.0,0.0
5479,78.0,0.0,20.0,3.0,0.0
5480,63.0,3.0,20.0,2.0,0.0
5481,75.0,21.0,20.0,2.0,0.0
5482,77.0,3.0,20.0,3.0,0.0
5483,77.0,24.0,20.0,2.0,0.0
5484,61.0,0.0,20.0,2.0,0.0
5485,61.0,0.0,20.0,3.0,0.0
5486,73.0,21.0,20.0,2.0,0.0
5487,75.0,24.0,20.0,2.0,0.0
5488,59.0,0.0,20.0,3.0,0.0
5489,75.0,0.0,20.0,3.0,0.0
5490,59.0,3.0,20.0,2.0,0.0
5491,71.0,21.0,20.0,2.0,0.0
5492,73.0,24.0,20.0,2.0,0.0
5493,58.0,0.0,20.0,3.0,0.0
5494,73.0,0.0,20.0,3.0,0.0
5495,58.0,3.0,20.0,2.0,0.0
5496,70.0,21.0,20.0,2.0,0.0
5497,59.0,0.0,20.0,3.0,0.0
5498,75.0,0.0,20.0,3.0,0.0
5499,75.0,24.0,20.0,2.0,0.0
5500,59.0,3.0,20.0,2.0,0.0
5501,71.0,21.0,20.0,2.0,0.0
5502,73.0,0.0,20.0,3.0,0.0
5503,73.0,24.0,20.0,2.0,0.0
5504,58.0,3.0,20.0,2.0,0.0
5505,58.0,0.0,20.0,3.0,0.0
5506,70.0,21.0,20.0,2.0,0.0
5507,71.0,0.0,20.0,3.0,0.0
5508,56.0,3.0,20.0,2.0,0.0
5509,71.0,24.0,20.0,2.0,0.0
5510,56.0,0.0,20.0,3.0,0.0
5511,68.0,21.0,20.0,2.0,0.0
5512,54.0,0.0,20.0,3.0,0.0
5513,54.0,0.0,20.0,2.0,0.0
5514,70.0,3.0,20.0,3.0,0.0
5515,70.0,24.0,20.0,2.0,0.0
5516,66.0,24.0,20.0,2.0,0.0
5517,66.0,0.0,40.0,3.0,0.0
5518,61.0,0.0,40.0,2.0,0.0
5519,49.0,22.0,20.0,2.0,0.0
5520,61.0,0.0,750.0,1.0,0.0
5521,70.0,0.0,40.0,3.0,0.0
5522,37.0,0.0,40.0,3.0,0.0
5523,61.0,2.0,40.0,3.0,0.0
5524,58.0,24.0,20.0,2.0,0.0
5525,63.0,22.0,20.0,2.0,0.0
5526,61.0,0.0,40.0,3.0,0.0
5527,54.0,0.0,20.0,2.0,0.0
5528,66.0,2.0,40.0,3.0,0.0
5529,70.0,0.0,40.0,3.0,0.0
5530,37.0,0.0,40.0,3.0,0.0
5531,65.0,0.0,20.0,2.0,0.0
5532,58.0,24.0,20.0,2.0,0.0
5533,66.0,22.0,20.0,2.0,0.0
5534,37.0,0.0,40.0,3.0,0.0
5535,61.0,2.0,40.0,3.0,0.0
5536,66.0,0.0,40.0,3.0,0.0
5537,70.0,0.0,40.0,3.0,0.0
5538,49.0,0.0,20.0,2.0,0.0
5539,68.0,24.0,20.0,2.0,0.0
5540,58.0,0.0,20.0,2.0,0.0
5541,37.0,0.0,40.0,3.0,0.0
5542,54.0,22.0,20.0,2.0,0.0
5543,66.0,0.0,40.0,3.0,0.0
5544,70.0,2.0,40.0,3.0,0.0
5545,70.0,0.0,20.0,2.0,0.0
5546,61.0,0.0,40.0,3.0,0.0
5547,58.0,0.0,20.0,2.0,0.0
5548,71.0,24.0,20.0,2.0,0.0
5549,49.0,22.0,20.0,2.0,0.0
5550,73.0,0.0,20.0,2.0,0.0
5551,70.0,0.0,40.0,3.0,0.0
5552,66.0,0.0,40.0,3.0,0.0
5553,61.0,0.0,40.0,3.0,0.0
5554,37.0,2.0,40.0,3.0,0.0
5555,75.0,0.0,20.0,2.0,0.0
5556,58.0,24.0,20.0,2.0,0.0
5557,37.0,0.0,40.0,3.0,0.0
5558,61.0,0.0,40.0,3.0,0.0
5559,66.0,0.0,40.0,3.0,0.0
5560,70.0,2.0,40.0,3.0,0.0
5561,77.0,22.0,20.0,2.0,0.0
5562,54.0,0.0,20.0,2.0,0.0
5563,58.0,0.0,20.0,2.0,0.0
5564,78.0,24.0,20.0,2.0,0.0
5565,49.0,22.0,20.0,2.0,0.0
5566,66.0,0.0,40.0,3.0,0.0
5567,61.0,0.0,40.0,3.0,0.0
5568,70.0,2.0,40.0,3.0,0.0
5569,80.0,0.0,20.0,2.0,0.0
5570,37.0,0.0,40.0,3.0,0.0
5571,58.0,0.0,20.0,2.0,0.0
5572,82.0,24.0,20.0,2.0,0.0
5573,37.0,0.0,40.0,3.0,0.0
5574,54.0,0.0,20.0,2.0,0.0
5575,66.0,0.0,40.0,3.0,0.0
5576,83.0,22.0,20.0,2.0,0.0
5577,61.0,0.0,40.0,3.0,0.0
5578,70.0,2.0,40.0,3.0,0.0
5579,58.0,0.0,20.0,2.0,0.0
5580,85.0,13.0,20.0,2.0,0.0
5581,49.0,0.0,20.0,2.0,0.0
5582,61.0,2.0,40.0,3.0,0.0
5583,80.0,11.0,15.0,2.0,0.0
5584,37.0,0.0,40.0,3.0,0.0
5585,65.0,0.0,20.0,3.0,0.0
5586,71.0,1.0,20.0,3.0,0.0
5587,82.0,12.0,15.0,2.0,0.0
5588,71.0,0.0,20.0,3.0,0.0
5589,65.0,1.0,20.0,3.0,0.0
5590,80.0,9.0,15.0,2.0,0.0
5591,59.0,0.0,20.0,2.0,0.0
5592,82.0,12.0,15.0,2.0,0.0
5593,37.0,2.0,40.0,3.0,0.0
5594,80.0,11.0,15.0,2.0,0.0
5595,65.0,0.0,20.0,3.0,0.0
5596,61.0,0.0,40.0,3.0,0.0
5597,71.0,0.0,20.0,3.0,0.0
5598,53.0,1.0,20.0,2.0,0.0
5599,82.0,12.0,15.0,2.0,0.0
5600,65.0,1.0,20.0,3.0,0.0
5601,80.0,9.0,15.0,2.0,0.0
5602,71.0,0.0,20.0,3.0,0.0
5603,59.0,0.0,20.0,2.0,0.0
5604,82.0,12.0,15.0,2.0,0.0
5605,61.0,0.0,40.0,3.0,0.0
5606,37.0,2.0,40.0,3.0,0.0
5607,71.0,0.0,20.0,3.0,0.0
5608,49.0,0.0,20.0,2.0,0.0
5609,80.0,11.0,15.0,2.0,0.0
5610,65.0,1.0,20.0,3.0,0.0
5611,82.0,12.0,15.0,2.0,0.0
5612,71.0,0.0,20.0,3.0,0.0
5613,80.0,9.0,15.0,2.0,0.0
5614,59.0,0.0,20.0,2.0,0.0
5615,65.0,1.0,20.0,3.0,0.0
5616,82.0,12.0,15.0,2.0,0.0
5617,37.0,0.0,40.0,3.0,0.0
5618,65.0,1.0,20.0,3.0,0.0
5619,71.0,0.0,20.0,3.0,0.0
5620,61.0,2.0,40.0,3.0,0.0
5621,80.0,11.0,15.0,2.0,0.0
5622,53.0,0.0,20.0,2.0,0.0
5623,82.0,12.0,15.0,2.0,0.0
5624,65.0,0.0,20.0,3.0,0.0
5625,71.0,1.0,20.0,3.0,0.0
5626,80.0,9.0,15.0,2.0,0.0
5627,59.0,0.0,20.0,2.0,0.0
5628,82.0,12.0,15.0,2.0,0.0
5629,61.0,2.0,40.0,3.0,0.0
5630,77.0,12.0,180.0,0.0,0.0
5631,80.0,0.0,180.0,0.0,0.0
5632,80.0,11.0,15.0,2.0,0.0
5633,37.0,0.0,40.0,3.0,0.0
5634,49.0,0.0,20.0,2.0,0.0
5635,77.0,1.0,20.0,3.0,0.0
5636,71.0,0.0,20.0,3.0,0.0
5637,82.0,12.0,15.0,2.0,0.0
5638,59.0,0.0,20.0,2.0,0.0
5639,80.0,9.0,15.0,2.0,0.0
5640,77.0,1.0,20.0,3.0,0.0
5641,71.0,0.0,20.0,3.0,0.0
5642,82.0,12.0,15.0,2.0,0.0
5643,71.0,1.0,20.0,3.0,0.0
5644,77.0,0.0,20.0,3.0,0.0
5645,37.0,2.0,40.0,3.0,0.0
5646,61.0,0.0,40.0,3.0,0.0
5647,53.0,0.0,20.0,2.0,0.0
5648,80.0,11.0,15.0,2.0,0.0
5649,82.0,12.0,15.0,2.0,0.0
5650,71.0,0.0,20.0,3.0,0.0
5651,77.0,1.0,20.0,3.0,0.0
5652,80.0,9.0,15.0,2.0,0.0
5653,59.0,0.0,20.0,2.0,0.0
5654,82.0,12.0,15.0,2.0,0.0
5655,37.0,2.0,40.0,3.0,0.0
5656,49.0,1.0,20.0,2.0,0.0
5657,71.0,0.0,20.0,3.0,0.0
5658,77.0,0.0,20.0,3.0,0.0
5659,80.0,11.0,15.0,2.0,0.0
5660,61.0,0.0,40.0,3.0,0.0
5661,82.0,12.0,15.0,2.0,0.0
5662,71.0,1.0,20.0,3.0,0.0
5663,77.0,0.0,20.0,3.0,0.0
5664,80.0,9.0,15.0,2.0,0.0
5665,59.0,0.0,20.0,2.0,0.0
5666,82.0,12.0,15.0,2.0,0.0
5667,61.0,2.0,40.0,3.0,0.0
5668,71.0,0.0,20.0,3.0,0.0
5669,37.0,0.0,40.0,3.0,0.0
5670,53.0,0.0,20.0,2.0,0.0
5671,80.0,6.0,15.0,2.0,0.0
5672,77.0,10.0,20.0,3.0,0.0
5673,82.0,5.0,15.0,2.0,0.0
5674,59.0,0.0,20.0,2.0,0.0
5675,71.0,0.0,20.0,3.0,0.0
5676,77.0,90.0,20.0,3.0,0.0
5677,78.0,0.0,90.0,3.0,0.0
5678,66.0,0.0,90.0,1.0,0.0
5679,58.0,0.0,90.0,2.0,0.0
5680,54.0,0.0,90.0,2.0,0.0
5681,58.0,0.0,90.0,1.0,0.0
5682,78.0,0.0,90.0,2.0,0.0
5683,70.0,0.0,90.0,3.0,0.0
5684,30.0,140.0,90.0,3.0,0.0
5685,78.0,0.0,90.0,0.0,0.0
5686,61.0,0.0,90.0,3.0,0.0
5687,58.0,0.0,120.0,3.0,0.0
5688,66.0,34.0,120.0,3.0,0.0
5689,61.0,0.0,180.0,3.0,0.0
5690,61.0,0.0,180.0,1.0,0.0
5691,37.0,0.0,180.0,3.0,0.0
5692,65.0,0.0,20.0,3.0,0.0
5693,56.0,24.0,20.0,3.0,0.0
5694,58.0,0.0,20.0,3.0,0.0
5695,66.0,24.0,20.0,3.0,0.0
5696,68.0,0.0,20.0,3.0,0.0
5697,71.0,0.0,90.0,0.0,0.0
5698,65.0,6.0,90.0,0.0,0.0
5699,59.0,24.0,20.0,3.0,0.0
5700,65.0,24.0,20.0,3.0,0.0
5701,56.0,0.0,20.0,3.0,0.0
5702,59.0,0.0,20.0,3.0,0.0
5703,68.0,10.0,20.0,3.0,0.0
5704,56.0,0.0,20.0,3.0,0.0
5705,65.0,90.0,20.0,3.0,0.0
5706,66.0,0.0,90.0,0.0,0.0
5707,42.0,0.0,90.0,3.0,0.0
5708,54.0,140.0,90.0,3.0,0.0
5709,66.0,0.0,90.0,1.0,0.0
5710,66.0,0.0,90.0,3.0,0.0
5711,58.0,0.0,90.0,3.0,0.0
5712,58.0,0.0,90.0,1.0,0.0
5713,70.0,0.0,90.0,0.0,0.0
5714,58.0,0.0,120.0,3.0,0.0
5715,66.0,0.0,120.0,3.0,0.0
5716,70.0,0.0,120.0,3.0,0.0
5717,37.0,0.0,180.0,3.0,0.0
5718,61.0,21.0,40.0,3.0,0.0
5719,61.0,0.0,180.0,1.0,0.0
5720,68.0,24.0,15.0,3.0,0.0
5721,65.0,0.0,15.0,3.0,0.0
5722,70.0,37.0,15.0,3.0,0.0
5723,66.0,0.0,15.0,3.0,0.0
5724,68.0,0.0,20.0,3.0,0.0
5725,71.0,27.0,90.0,0.0,0.0
5726,71.0,24.0,20.0,3.0,0.0
5727,77.0,0.0,90.0,0.0,0.0
5728,68.0,11.0,20.0,3.0,0.0
5729,65.0,0.0,20.0,3.0,0.0
5730,68.0,0.0,15.0,3.0,0.0
5731,71.0,23.0,15.0,3.0,0.0
5732,68.0,0.0,15.0,3.0,0.0
5733,65.0,7.0,15.0,3.0,0.0
5734,78.0,0.0,90.0,0.0,0.0
5735,70.0,0.0,90.0,0.0,0.0
5736,70.0,23.0,40.0,3.0,0.0
5737,54.0,25.0,20.0,3.0,0.0
5738,54.0,0.0,90.0,1.0,0.0
5739,30.0,0.0,40.0,3.0,0.0
5740,66.0,0.0,90.0,1.0,0.0
5741,66.0,21.0,20.0,3.0,0.0
5742,42.0,9.0,40.0,3.0,0.0
5743,76.0,4.0,90.0,0.0,0.0
5744,78.0,14.0,15.0,3.0,0.0
5745,58.0,21.0,20.0,3.0,0.0
5746,54.0,0.0,60.0,1.0,0.0
5747,34.0,0.0,40.0,3.0,0.0
5748,66.0,1.0,60.0,1.0,0.0
5749,76.0,22.0,40.0,3.0,0.0
5750,42.0,2.0,40.0,3.0,0.0
5751,66.0,3.0,20.0,3.0,0.0
5752,78.0,4.0,90.0,3.0,0.0
5753,75.0,18.0,20.0,3.0,0.0
5754,66.0,0.0,20.0,1.0,0.0
5755,54.0,0.0,20.0,1.0,0.0
5756,76.0,7.0,20.0,3.0,0.0
5757,59.0,21.0,20.0,3.0,0.0
5758,75.0,12.0,180.0,0.0,0.0
5759,66.0,0.0,90.0,1.0,0.0
5760,35.0,0.0,40.0,3.0,0.0
5761,54.0,4.0,90.0,1.0,0.0
5762,76.0,14.0,15.0,3.0,0.0
5763,75.0,23.0,40.0,3.0,0.0
5764,42.0,2.0,40.0,3.0,0.0
5765,78.0,4.0,90.0,3.0,0.0
5766,66.0,3.0,20.0,3.0,0.0
5767,74.0,18.0,20.0,3.0,0.0
5768,75.0,7.0,20.0,3.0,0.0
5769,54.0,1.0,60.0,1.0,0.0
5770,66.0,0.0,60.0,1.0,0.0
5771,59.0,21.0,20.0,3.0,0.0
5772,35.0,0.0,40.0,3.0,0.0
5773,76.0,14.0,15.0,3.0,0.0
5774,75.0,22.0,40.0,3.0,0.0
5775,74.0,10.0,20.0,3.0,0.0
5776,42.0,2.0,40.0,3.0,0.0
5777,66.0,3.0,20.0,3.0,0.0
5778,78.0,23.0,90.0,3.0,0.0
5779,66.0,7.0,20.0,1.0,0.0
5780,75.0,0.0,20.0,3.0,0.0
5781,54.0,0.0,20.0,1.0,0.0
5782,34.0,0.0,40.0,3.0,0.0
5783,54.0,0.0,90.0,1.0,0.0
5784,73.0,0.0,180.0,0.0,0.0
5785,58.0,25.0,20.0,3.0,0.0
5786,75.0,14.0,15.0,3.0,0.0
5787,66.0,4.0,90.0,1.0,0.0
5788,73.0,0.0,40.0,3.0,0.0
5789,42.0,2.0,40.0,3.0,0.0
5790,66.0,3.0,20.0,3.0,0.0
5791,72.0,18.0,20.0,3.0,0.0
5792,78.0,4.0,90.0,3.0,0.0
5793,73.0,7.0,20.0,3.0,0.0
5794,58.0,21.0,20.0,3.0,0.0
5795,66.0,1.0,60.0,1.0,0.0
5796,34.0,22.0,40.0,3.0,0.0
5797,54.0,0.0,60.0,1.0,0.0
5798,75.0,14.0,15.0,3.0,0.0
5799,73.0,0.0,40.0,3.0,0.0
5800,66.0,3.0,20.0,3.0,0.0
5801,78.0,4.0,90.0,3.0,0.0
5802,42.0,2.0,40.0,3.0,0.0
5803,72.0,10.0,20.0,3.0,0.0
5804,73.0,0.0,20.0,3.0,0.0
5805,54.0,0.0,20.0,1.0,0.0
5806,66.0,7.0,20.0,1.0,0.0
5807,66.0,4.0,90.0,1.0,0.0
5808,63.0,21.0,20.0,3.0,0.0
5809,73.0,14.0,15.0,3.0,0.0
5810,54.0,0.0,90.0,1.0,0.0
5811,71.0,0.0,90.0,0.0,0.0
5812,39.0,0.0,40.0,3.0,0.0
5813,71.0,23.0,40.0,3.0,0.0
5814,42.0,2.0,40.0,3.0,0.0
5815,78.0,4.0,90.0,3.0,0.0
5816,66.0,3.0,20.0,3.0,0.0
5817,70.0,18.0,20.0,3.0,0.0
5818,71.0,7.0,20.0,3.0,0.0
5819,66.0,0.0,90.0,1.0,0.0
5820,54.0,0.0,90.0,1.0,0.0
5821,60.0,21.0,20.0,3.0,0.0
5822,68.0,0.0,90.0,0.0,0.0
5823,36.0,0.0,40.0,3.0,0.0
5824,70.0,14.0,15.0,3.0,0.0
5825,63.0,4.0,90.0,0.0,0.0
5826,68.0,23.0,40.0,3.0,0.0
5827,66.0,3.0,20.0,3.0,0.0
5828,67.0,18.0,20.0,3.0,0.0
5829,42.0,0.0,40.0,3.0,0.0
5830,78.0,2.0,40.0,3.0,0.0
5831,68.0,178.0,20.0,3.0,0.0
5832,66.0,90.0,360.0,2.0,0.0
5833,49.0,0.0,360.0,2.0,0.0
5834,61.0,0.0,180.0,3.0,0.0
5835,78.0,0.0,180.0,3.0,0.0
5836,70.0,0.0,360.0,2.0,0.0
5837,61.0,0.0,180.0,1.0,0.0
5838,70.0,177.0,180.0,3.0,0.0
5839,66.0,0.0,180.0,0.0,0.0
5840,37.0,0.0,180.0,3.0,0.0
5841,49.0,0.0,270.0,2.0,0.0
5842,53.0,0.0,270.0,2.0,0.0
5843,59.0,0.0,270.0,2.0,0.0
5844,68.0,12.0,15.0,2.0,0.0
5845,70.0,12.0,15.0,2.0,0.0
5846,68.0,12.0,15.0,2.0,0.0
5847,70.0,12.0,15.0,2.0,0.0
5848,68.0,12.0,15.0,2.0,0.0
5849,70.0,12.0,15.0,2.0,0.0
5850,68.0,12.0,15.0,2.0,0.0
5851,70.0,12.0,15.0,2.0,0.0
5852,68.0,12.0,15.0,2.0,0.0
5853,70.0,12.0,15.0,2.0,0.0
5854,68.0,12.0,15.0,2.0,0.0
5855,70.0,12.0,15.0,2.0,0.0
5856,68.0,12.0,15.0,2.0,0.0
5857,70.0,12.0,15.0,2.0,0.0
5858,68.0,12.0,15.0,2.0,0.0
5859,70.0,12.0,15.0,2.0,0.0
5860,68.0,12.0,15.0,2.0,0.0
5861,70.0,12.0,15.0,2.0,0.0
5862,68.0,12.0,15.0,2.0,0.0
5863,70.0,12.0,15.0,2.0,0.0
5864,68.0,12.0,15.0,2.0,0.0
5865,70.0,1.0,15.0,2.0,0.0
5866,68.0,46.0,15.0,2.0,0.0
5867,66.0,24.0,20.0,2.0,0.0
5868,68.0,24.0,20.0,2.0,0.0
5869,66.0,0.0,90.0,2.0,0.0
5870,66.0,0.0,810.0,1.0,0.0
5871,58.0,0.0,90.0,2.0,0.0
5872,54.0,0.0,90.0,2.0,0.0
5873,78.0,2.0,360.0,0.0,0.0
5874,66.0,4.0,90.0,0.0,0.0
5875,66.0,22.0,20.0,3.0,0.0
5876,54.0,0.0,810.0,1.0,0.0
5877,30.0,2.0,40.0,3.0,0.0
5878,61.0,24.0,20.0,3.0,0.0
5879,30.0,2.0,40.0,3.0,0.0
5880,58.0,18.0,20.0,3.0,0.0
5881,61.0,0.0,15.0,3.0,0.0
5882,30.0,23.0,40.0,3.0,0.0
5883,70.0,0.0,20.0,3.0,0.0
5884,54.0,0.0,20.0,3.0,0.0
5885,70.0,0.0,20.0,0.0,0.0
5886,70.0,0.0,20.0,3.0,0.0
5887,54.0,0.0,20.0,3.0,0.0
5888,30.0,23.0,40.0,3.0,0.0
5889,70.0,0.0,20.0,0.0,0.0
5890,70.0,25.0,20.0,3.0,0.0
5891,30.0,0.0,40.0,3.0,0.0
5892,70.0,0.0,40.0,0.0,0.0
5893,55.0,0.0,40.0,3.0,0.0
5894,30.0,0.0,40.0,3.0,0.0
5895,71.0,25.0,20.0,3.0,0.0
5896,71.0,0.0,40.0,0.0,0.0
5897,56.0,0.0,40.0,3.0,0.0
5898,30.0,21.0,40.0,3.0,0.0
5899,71.0,0.0,20.0,3.0,0.0
5900,71.0,0.0,20.0,0.0,0.0
5901,56.0,0.0,20.0,3.0,0.0
5902,71.0,0.0,20.0,0.0,0.0
5903,30.0,48.0,40.0,3.0,0.0
5904,71.0,0.0,20.0,3.0,0.0
5905,56.0,0.0,20.0,3.0,0.0
5906,72.0,0.0,40.0,3.0,0.0
5907,30.0,0.0,40.0,3.0,0.0
5908,72.0,48.0,40.0,0.0,0.0
5909,78.0,20.0,270.0,0.0,0.0
5910,57.0,0.0,40.0,3.0,0.0
5911,73.0,0.0,40.0,3.0,0.0
5912,30.0,0.0,40.0,3.0,0.0
5913,73.0,0.0,40.0,0.0,0.0
5914,58.0,0.0,40.0,3.0,0.0
5915,58.0,0.0,20.0,3.0,0.0
5916,30.0,23.0,40.0,3.0,0.0
5917,73.0,0.0,20.0,3.0,0.0
5918,73.0,0.0,20.0,0.0,0.0
5919,30.0,48.0,40.0,3.0,0.0
5920,58.0,0.0,20.0,3.0,0.0
5921,73.0,0.0,20.0,3.0,0.0
5922,73.0,25.0,20.0,0.0,0.0
5923,30.0,28.0,40.0,3.0,0.0
5924,74.0,0.0,40.0,3.0,0.0
5925,74.0,0.0,40.0,0.0,0.0
5926,58.0,0.0,40.0,3.0,0.0
5927,59.0,0.0,40.0,3.0,0.0
5928,30.0,0.0,40.0,3.0,0.0
5929,75.0,0.0,40.0,3.0,0.0
5930,75.0,0.0,40.0,0.0,0.0
5931,30.0,0.0,40.0,3.0,0.0
5932,75.0,25.0,20.0,0.0,0.0
5933,75.0,0.0,40.0,3.0,0.0
5934,59.0,0.0,40.0,3.0,0.0
5935,71.0,4.0,90.0,0.0,0.0
5936,30.0,0.0,40.0,3.0,0.0
5937,56.0,0.0,40.0,3.0,0.0
5938,77.0,0.0,40.0,3.0,0.0
5939,77.0,21.0,20.0,0.0,0.0
5940,30.0,0.0,40.0,3.0,0.0
5941,78.0,0.0,40.0,3.0,0.0
5942,70.0,96.0,40.0,0.0,0.0
5943,78.0,0.0,40.0,0.0,0.0
5944,58.0,0.0,40.0,3.0,0.0
5945,66.0,0.0,40.0,3.0,0.0
5946,78.0,48.0,40.0,3.0,0.0
5947,64.0,0.0,40.0,3.0,0.0
5948,76.0,48.0,40.0,3.0,0.0
5949,74.0,0.0,40.0,3.0,0.0
5950,62.0,48.0,40.0,3.0,0.0
5951,75.0,48.0,40.0,3.0,0.0
5952,63.0,0.0,40.0,3.0,0.0
5953,60.0,48.0,40.0,3.0,0.0
5954,72.0,0.0,40.0,3.0,0.0
5955,73.0,48.0,40.0,3.0,0.0
5956,61.0,0.0,40.0,3.0,0.0
5957,70.0,0.0,40.0,3.0,0.0
5958,58.0,48.0,40.0,3.0,0.0
5959,71.0,0.0,40.0,3.0,0.0
5960,59.0,48.0,40.0,3.0,0.0
5961,69.0,0.0,40.0,3.0,0.0
5962,57.0,48.0,40.0,3.0,0.0
5963,58.0,48.0,40.0,3.0,0.0
5964,70.0,0.0,40.0,3.0,0.0
5965,79.0,0.0,40.0,0.0,0.0
5966,58.0,0.0,40.0,3.0,0.0
5967,37.0,0.0,40.0,3.0,0.0
5968,64.0,0.0,40.0,3.0,0.0
5969,67.0,0.0,40.0,3.0,0.0
5970,76.0,48.0,40.0,0.0,0.0
5971,68.0,0.0,40.0,3.0,0.0
5972,63.0,48.0,40.0,3.0,0.0
5973,80.0,0.0,40.0,0.0,0.0
5974,35.0,0.0,40.0,3.0,0.0
5975,59.0,0.0,40.0,3.0,0.0
5976,75.0,0.0,40.0,0.0,0.0
5977,74.0,48.0,40.0,3.0,0.0
5978,75.0,48.0,40.0,3.0,0.0
5979,74.0,0.0,40.0,0.0,0.0
5980,65.0,0.0,40.0,3.0,0.0
5981,77.0,0.0,40.0,0.0,0.0
5982,35.0,0.0,40.0,3.0,0.0
5983,56.0,48.0,40.0,3.0,0.0
5984,62.0,0.0,40.0,3.0,0.0
5985,61.0,0.0,40.0,3.0,0.0
5986,66.0,0.0,40.0,3.0,0.0
5987,34.0,0.0,40.0,3.0,0.0
5988,73.0,48.0,40.0,0.0,0.0
5989,58.0,0.0,40.0,3.0,0.0
5990,78.0,0.0,40.0,0.0,0.0
5991,72.0,48.0,40.0,3.0,0.0
5992,73.0,42.0,40.0,3.0,0.0
5993,66.0,0.0,40.0,0.0,0.0
5994,78.0,0.0,40.0,0.0,0.0
5995,78.0,0.0,60.0,3.0,0.0
5996,54.0,0.0,40.0,1.0,0.0
5997,66.0,0.0,60.0,3.0,0.0
5998,42.0,28.0,60.0,3.0,0.0
5999,66.0,28.0,40.0,1.0,0.0
6000,66.0,0.0,20.0,3.0,0.0
6001,42.0,0.0,20.0,3.0,0.0
6002,78.0,0.0,20.0,3.0,0.0
6003,58.0,28.0,40.0,1.0,0.0
6004,70.0,0.0,40.0,0.0,0.0
6005,70.0,0.0,40.0,1.0,0.0
6006,70.0,0.0,60.0,3.0,0.0
6007,82.0,0.0,40.0,0.0,0.0
6008,46.0,0.0,60.0,3.0,0.0
6009,82.0,28.0,60.0,3.0,0.0
6010,46.0,90.0,20.0,3.0,0.0
6011,82.0,0.0,20.0,3.0,0.0
6012,70.0,0.0,20.0,3.0,0.0
6013,61.0,0.0,90.0,3.0,0.0
6014,73.0,0.0,90.0,0.0,0.0
6015,73.0,0.0,90.0,3.0,0.0
6016,49.0,0.0,90.0,3.0,0.0
6017,73.0,0.0,90.0,1.0,0.0
6018,46.0,0.0,60.0,3.0,0.0
6019,58.0,0.0,60.0,3.0,0.0
6020,70.0,0.0,60.0,0.0,0.0
6021,70.0,0.0,60.0,3.0,0.0
6022,70.0,0.0,60.0,1.0,0.0
6023,42.0,0.0,20.0,3.0,0.0
6024,66.0,0.0,20.0,1.0,0.0
6025,54.0,0.0,20.0,3.0,0.0
6026,66.0,0.0,20.0,0.0,0.0
6027,66.0,0.0,20.0,3.0,0.0
6028,61.0,96.0,90.0,3.0,0.0
6029,73.0,0.0,90.0,1.0,0.0
6030,73.0,0.0,90.0,0.0,0.0
6031,49.0,0.0,90.0,3.0,0.0
6032,73.0,0.0,90.0,3.0,0.0
6033,61.0,0.0,90.0,3.0,0.0
6034,37.0,0.0,90.0,3.0,0.0
6035,61.0,0.0,90.0,0.0,0.0
6036,61.0,0.0,90.0,1.0,0.0
6037,49.0,0.0,90.0,3.0,0.0
6038,54.0,0.0,90.0,3.0,0.0
6039,66.0,0.0,90.0,1.0,0.0
6040,58.0,0.0,90.0,1.0,0.0
6041,42.0,0.0,90.0,3.0,0.0
6042,66.0,0.0,90.0,0.0,0.0
6043,58.0,0.0,90.0,3.0,0.0
6044,66.0,0.0,90.0,3.0,0.0
6045,66.0,0.0,120.0,3.0,0.0
6046,58.0,34.0,120.0,3.0,0.0
6047,37.0,0.0,180.0,3.0,0.0
6048,61.0,0.0,180.0,1.0,0.0
6049,61.0,0.0,180.0,3.0,0.0
6050,65.0,24.0,20.0,3.0,0.0
6051,56.0,0.0,20.0,3.0,0.0
6052,66.0,0.0,20.0,3.0,0.0
6053,58.0,24.0,20.0,3.0,0.0
6054,68.0,0.0,20.0,3.0,0.0
6055,71.0,96.0,90.0,0.0,0.0
6056,59.0,24.0,20.0,3.0,0.0
6057,65.0,0.0,90.0,0.0,0.0
6058,56.0,0.0,20.0,3.0,0.0
6059,65.0,11.0,20.0,3.0,0.0
6060,59.0,0.0,15.0,3.0,0.0
6061,68.0,23.0,15.0,3.0,0.0
6062,56.0,0.0,15.0,3.0,0.0
6063,65.0,7.0,15.0,3.0,0.0
6064,66.0,0.0,90.0,0.0,0.0
6065,70.0,140.0,90.0,0.0,0.0
6066,30.0,0.0,90.0,3.0,0.0
6067,66.0,0.0,90.0,3.0,0.0
6068,58.0,0.0,90.0,3.0,0.0
6069,58.0,0.0,90.0,1.0,0.0
6070,66.0,0.0,90.0,1.0,0.0
6071,54.0,0.0,90.0,3.0,0.0
6072,70.0,0.0,120.0,3.0,0.0
6073,66.0,0.0,120.0,3.0,0.0
6074,58.0,34.0,120.0,3.0,0.0
6075,37.0,0.0,180.0,3.0,0.0
6076,61.0,0.0,180.0,1.0,0.0
6077,61.0,0.0,40.0,3.0,0.0
6078,68.0,24.0,20.0,3.0,0.0
6079,65.0,0.0,20.0,3.0,0.0
6080,70.0,0.0,20.0,3.0,0.0
6081,66.0,24.0,20.0,3.0,0.0
6082,71.0,24.0,20.0,3.0,0.0
6083,77.0,0.0,90.0,0.0,0.0
6084,71.0,46.0,90.0,0.0,0.0
6085,68.0,0.0,20.0,3.0,0.0
6086,65.0,11.0,20.0,3.0,0.0
6087,68.0,0.0,20.0,3.0,0.0
6088,71.0,0.0,15.0,3.0,0.0
6089,68.0,23.0,15.0,3.0,0.0
6090,68.0,0.0,15.0,3.0,0.0
6091,65.0,7.0,15.0,3.0,0.0
6092,70.0,0.0,90.0,0.0,0.0
6093,42.0,50.0,40.0,3.0,0.0
6094,78.0,46.0,90.0,0.0,0.0
6095,70.0,0.0,90.0,3.0,0.0
6096,66.0,0.0,40.0,3.0,0.0
6097,66.0,0.0,40.0,1.0,0.0
6098,73.0,0.0,40.0,0.0,0.0
6099,70.0,0.0,40.0,0.0,0.0
6100,70.0,96.0,40.0,3.0,0.0
6101,73.0,0.0,40.0,3.0,0.0
6102,66.0,0.0,40.0,3.0,0.0
6103,61.0,0.0,40.0,1.0,0.0
6104,37.0,0.0,40.0,3.0,0.0
6105,61.0,0.0,40.0,3.0,0.0
6106,70.0,96.0,40.0,3.0,0.0
6107,73.0,0.0,40.0,0.0,0.0
6108,78.0,0.0,40.0,3.0,0.0
6109,73.0,0.0,40.0,3.0,0.0
6110,58.0,0.0,40.0,3.0,0.0
6111,58.0,0.0,40.0,1.0,0.0
6112,78.0,0.0,40.0,0.0,0.0
6113,34.0,0.0,40.0,3.0,0.0
6114,66.0,0.0,40.0,3.0,0.0
6115,82.0,0.0,40.0,0.0,0.0
6116,82.0,0.0,40.0,3.0,0.0
6117,73.0,0.0,40.0,3.0,0.0
6118,54.0,0.0,40.0,1.0,0.0
6119,54.0,67.0,40.0,3.0,0.0
6120,70.0,0.0,40.0,3.0,0.0
6121,30.0,0.0,40.0,3.0,0.0
6122,78.0,0.0,40.0,3.0,0.0
6123,78.0,0.0,40.0,0.0,0.0
6124,58.0,0.0,90.0,3.0,0.0
6125,66.0,17.0,90.0,3.0,0.0
6126,42.0,13.0,40.0,3.0,0.0
6127,54.0,24.0,15.0,3.0,0.0
6128,70.0,0.0,90.0,0.0,0.0
6129,61.0,11.0,15.0,3.0,0.0
6130,73.0,4.0,90.0,0.0,0.0
6131,54.0,24.0,15.0,3.0,0.0
6132,61.0,7.0,15.0,3.0,0.0
6133,53.0,13.0,15.0,3.0,0.0
6134,37.0,0.0,40.0,3.0,0.0
6135,68.0,2.0,40.0,1.0,0.0
6136,61.0,0.0,40.0,1.0,0.0
6137,71.0,4.0,90.0,0.0,0.0
6138,59.0,0.0,90.0,3.0,0.0
6139,68.0,11.0,20.0,3.0,0.0
6140,61.0,7.0,15.0,3.0,0.0
6141,71.0,11.0,20.0,3.0,0.0
6142,70.0,11.0,20.0,3.0,0.0
6143,53.0,13.0,15.0,3.0,0.0
6144,77.0,2.0,40.0,0.0,0.0
6145,68.0,11.0,20.0,3.0,0.0
6146,61.0,7.0,15.0,3.0,0.0
6147,66.0,17.0,90.0,3.0,0.0
6148,54.0,24.0,15.0,3.0,0.0
6149,42.0,13.0,40.0,3.0,0.0
6150,66.0,0.0,40.0,1.0,0.0
6151,58.0,0.0,90.0,3.0,0.0
6152,78.0,0.0,40.0,0.0,0.0
6153,70.0,0.0,90.0,0.0,0.0
6154,70.0,0.0,40.0,1.0,0.0
6155,61.0,11.0,15.0,3.0,0.0
6156,73.0,4.0,90.0,0.0,0.0
6157,54.0,24.0,15.0,3.0,0.0
6158,61.0,7.0,15.0,3.0,0.0
6159,68.0,11.0,20.0,3.0,0.0
6160,37.0,2.0,40.0,3.0,0.0
6161,59.0,4.0,90.0,3.0,0.0
6162,53.0,13.0,15.0,3.0,0.0
6163,68.0,0.0,40.0,1.0,0.0
6164,61.0,0.0,40.0,1.0,0.0
6165,71.0,0.0,90.0,0.0,0.0
6166,61.0,7.0,15.0,3.0,0.0
6167,71.0,11.0,20.0,3.0,0.0
6168,53.0,13.0,15.0,3.0,0.0
6169,70.0,11.0,20.0,3.0,0.0
6170,77.0,2.0,40.0,0.0,0.0
6171,68.0,11.0,20.0,3.0,0.0
6172,61.0,7.0,15.0,3.0,0.0
6173,66.0,0.0,40.0,1.0,0.0
6174,42.0,0.0,40.0,3.0,0.0
6175,54.0,10.0,15.0,3.0,0.0
6176,61.0,0.0,40.0,1.0,0.0
6177,78.0,13.0,40.0,0.0,0.0
6178,58.0,17.0,90.0,3.0,0.0
6179,66.0,14.0,20.0,3.0,0.0
6180,70.0,0.0,90.0,0.0,0.0
6181,61.0,11.0,15.0,3.0,0.0
6182,66.0,14.0,20.0,3.0,0.0
6183,54.0,10.0,15.0,3.0,0.0
6184,73.0,4.0,90.0,0.0,0.0
6185,61.0,7.0,15.0,3.0,0.0
6186,37.0,2.0,40.0,3.0,0.0
6187,59.0,0.0,90.0,3.0,0.0
6188,53.0,13.0,15.0,3.0,0.0
6189,71.0,4.0,90.0,0.0,0.0
6190,61.0,0.0,40.0,1.0,0.0
6191,68.0,0.0,40.0,1.0,0.0
6192,68.0,11.0,20.0,3.0,0.0
6193,71.0,11.0,20.0,3.0,0.0
6194,61.0,7.0,15.0,3.0,0.0
6195,70.0,11.0,20.0,3.0,0.0
6196,77.0,2.0,40.0,0.0,0.0
6197,53.0,13.0,15.0,3.0,0.0
6198,61.0,7.0,15.0,3.0,0.0
6199,68.0,40.0,20.0,3.0,0.0
6200,66.0,0.0,90.0,3.0,0.0
6201,58.0,0.0,90.0,1.0,0.0
6202,30.0,0.0,90.0,3.0,0.0
6203,58.0,0.0,90.0,3.0,0.0
6204,70.0,0.0,90.0,0.0,0.0
6205,66.0,0.0,90.0,1.0,0.0
6206,54.0,50.0,40.0,3.0,0.0
6207,78.0,0.0,90.0,0.0,0.0
