,note,step,duration,channel,velocity
0,69.0,0.0,360.0,1.0,0.0
1,53.0,120.0,360.0,5.0,0.0
2,70.0,0.0,120.0,1.0,0.0
3,55.0,240.0,120.0,5.0,0.0
4,60.0,0.0,15.0,4.0,0.0
5,69.0,0.0,240.0,1.0,0.0
6,53.0,0.0,240.0,5.0,0.0
7,57.0,285.0,390.0,5.0,0.0
8,72.0,0.0,390.0,1.0,0.0
9,60.0,0.0,390.0,4.0,0.0
10,72.0,410.0,180.0,1.0,0.0
11,57.0,0.0,180.0,5.0,0.0
12,60.0,0.0,180.0,4.0,0.0
13,52.0,120.0,360.0,5.0,0.0
14,67.0,0.0,360.0,1.0,0.0
15,69.0,0.0,120.0,1.0,0.0
16,53.0,0.0,120.0,5.0,0.0
17,52.0,385.0,240.0,5.0,0.0
18,60.0,240.0,15.0,4.0,0.0
19,67.0,0.0,240.0,1.0,0.0
20,60.0,0.0,390.0,4.0,0.0
21,70.0,335.0,390.0,1.0,0.0
22,55.0,0.0,390.0,5.0,0.0
23,70.0,0.0,240.0,1.0,0.0
24,55.0,385.0,240.0,5.0,0.0
25,60.0,0.0,15.0,4.0,0.0
26,65.0,335.0,390.0,1.0,0.0
27,50.0,0.0,390.0,5.0,0.0
28,65.0,0.0,240.0,1.0,0.0
29,50.0,0.0,240.0,5.0,0.0
30,52.0,0.0,390.0,5.0,0.0
31,60.0,385.0,15.0,4.0,0.0
32,67.0,0.0,390.0,1.0,0.0
33,67.0,0.0,240.0,1.0,0.0
34,52.0,380.0,240.0,5.0,0.0
35,69.0,5.0,390.0,1.0,0.0
36,60.0,0.0,15.0,4.0,0.0
37,53.0,215.0,390.0,5.0,0.0
38,46.0,0.0,180.0,5.0,0.0
39,67.0,25.0,180.0,2.0,0.0
40,72.0,70.0,120.0,1.0,0.0
41,70.0,505.0,90.0,1.0,0.0
42,69.0,190.0,480.0,1.0,0.0
43,48.0,0.0,660.0,5.0,0.0
44,65.0,0.0,480.0,2.0,0.0
45,64.0,0.0,180.0,2.0,0.0
46,67.0,410.0,180.0,1.0,0.0
47,53.0,120.0,360.0,5.0,0.0
48,60.0,240.0,480.0,4.0,0.0
49,69.0,0.0,360.0,1.0,0.0
50,55.0,0.0,120.0,5.0,0.0
51,70.0,0.0,120.0,1.0,0.0
52,69.0,0.0,240.0,1.0,0.0
53,53.0,0.0,240.0,5.0,0.0
54,72.0,285.0,390.0,1.0,0.0
55,57.0,0.0,390.0,5.0,0.0
56,60.0,385.0,15.0,4.0,0.0
57,60.0,0.0,180.0,4.0,0.0
58,72.0,0.0,180.0,1.0,0.0
59,57.0,410.0,180.0,5.0,0.0
60,67.0,120.0,360.0,1.0,0.0
61,52.0,0.0,360.0,5.0,0.0
62,69.0,0.0,120.0,1.0,0.0
63,53.0,0.0,120.0,5.0,0.0
64,52.0,0.0,240.0,5.0,0.0
65,67.0,0.0,240.0,1.0,0.0
66,60.0,240.0,15.0,4.0,0.0
67,55.0,0.0,390.0,5.0,0.0
68,70.0,335.0,390.0,1.0,0.0
69,60.0,385.0,15.0,4.0,0.0
70,55.0,385.0,240.0,5.0,0.0
71,70.0,0.0,240.0,1.0,0.0
72,50.0,0.0,390.0,5.0,0.0
73,60.0,0.0,15.0,4.0,0.0
74,65.0,335.0,390.0,1.0,0.0
75,52.0,385.0,240.0,5.0,0.0
76,67.0,0.0,240.0,1.0,0.0
77,60.0,0.0,15.0,4.0,0.0
78,69.0,285.0,390.0,1.0,0.0
79,53.0,0.0,390.0,5.0,0.0
80,46.0,385.0,240.0,5.0,0.0
81,62.0,0.0,180.0,2.0,0.0
82,67.0,0.0,180.0,2.0,0.0
83,70.0,50.0,180.0,1.0,0.0
84,69.0,240.0,480.0,1.0,0.0
85,48.0,95.0,390.0,5.0,0.0
86,65.0,0.0,480.0,2.0,0.0
87,60.0,0.0,15.0,2.0,0.0
88,36.0,0.0,240.0,5.0,0.0
89,58.0,0.0,240.0,2.0,0.0
90,64.0,0.0,240.0,2.0,0.0
91,67.0,480.0,240.0,1.0,0.0
92,57.0,0.0,480.0,2.0,0.0
93,60.0,0.0,15.0,2.0,0.0
94,65.0,600.0,480.0,1.0,0.0
95,41.0,0.0,480.0,5.0,0.0
96,53.0,0.0,360.0,5.0,0.0
97,69.0,120.0,360.0,1.0,0.0
98,55.0,0.0,120.0,5.0,0.0
99,70.0,0.0,120.0,1.0,0.0
100,60.0,240.0,15.0,4.0,0.0
101,69.0,385.0,240.0,1.0,0.0
102,53.0,0.0,240.0,5.0,0.0
103,57.0,285.0,390.0,5.0,0.0
104,72.0,0.0,390.0,1.0,0.0
105,60.0,0.0,390.0,4.0,0.0
106,57.0,0.0,180.0,5.0,0.0
107,60.0,0.0,180.0,4.0,0.0
108,72.0,410.0,180.0,1.0,0.0
109,52.0,120.0,360.0,5.0,0.0
110,67.0,0.0,360.0,1.0,0.0
111,69.0,240.0,120.0,1.0,0.0
112,53.0,0.0,120.0,5.0,0.0
113,60.0,0.0,15.0,4.0,0.0
114,67.0,0.0,240.0,1.0,0.0
115,52.0,0.0,240.0,5.0,0.0
116,70.0,0.0,390.0,1.0,0.0
117,60.0,385.0,15.0,4.0,0.0
118,55.0,335.0,390.0,5.0,0.0
119,70.0,0.0,240.0,1.0,0.0
120,60.0,385.0,240.0,4.0,0.0
121,55.0,0.0,240.0,5.0,0.0
122,65.0,335.0,390.0,1.0,0.0
123,50.0,0.0,390.0,5.0,0.0
124,60.0,0.0,390.0,4.0,0.0
125,50.0,385.0,240.0,5.0,0.0
126,65.0,0.0,240.0,1.0,0.0
127,60.0,0.0,15.0,4.0,0.0
128,67.0,0.0,390.0,1.0,0.0
129,52.0,335.0,390.0,5.0,0.0
130,52.0,0.0,240.0,5.0,0.0
131,67.0,0.0,240.0,1.0,0.0
132,60.0,380.0,15.0,4.0,0.0
133,69.0,5.0,390.0,1.0,0.0
134,53.0,215.0,390.0,5.0,0.0
135,67.0,25.0,180.0,2.0,0.0
136,72.0,70.0,120.0,1.0,0.0
137,46.0,0.0,180.0,5.0,0.0
138,70.0,505.0,90.0,1.0,0.0
139,69.0,0.0,480.0,1.0,0.0
140,48.0,0.0,660.0,5.0,0.0
141,65.0,190.0,480.0,2.0,0.0
142,67.0,410.0,180.0,1.0,0.0
143,64.0,0.0,180.0,2.0,0.0
144,69.0,0.0,360.0,1.0,0.0
145,60.0,0.0,480.0,4.0,0.0
146,53.0,120.0,360.0,5.0,0.0
147,55.0,240.0,120.0,5.0,0.0
148,70.0,0.0,120.0,1.0,0.0
149,53.0,0.0,240.0,5.0,0.0
150,69.0,0.0,240.0,1.0,0.0
151,57.0,285.0,390.0,5.0,0.0
152,60.0,385.0,15.0,4.0,0.0
153,72.0,0.0,390.0,1.0,0.0
154,60.0,0.0,180.0,4.0,0.0
155,57.0,0.0,180.0,5.0,0.0
156,72.0,410.0,180.0,1.0,0.0
157,67.0,120.0,360.0,1.0,0.0
158,52.0,0.0,360.0,5.0,0.0
159,69.0,240.0,120.0,1.0,0.0
160,53.0,0.0,120.0,5.0,0.0
161,52.0,385.0,240.0,5.0,0.0
162,60.0,0.0,15.0,4.0,0.0
163,67.0,0.0,240.0,1.0,0.0
164,70.0,335.0,390.0,1.0,0.0
165,60.0,0.0,15.0,4.0,0.0
166,55.0,0.0,390.0,5.0,0.0
167,70.0,0.0,240.0,1.0,0.0
168,55.0,0.0,240.0,5.0,0.0
169,65.0,0.0,390.0,1.0,0.0
170,50.0,335.0,390.0,5.0,0.0
171,60.0,385.0,15.0,4.0,0.0
172,67.0,385.0,240.0,1.0,0.0
173,52.0,0.0,240.0,5.0,0.0
174,60.0,0.0,15.0,4.0,0.0
175,69.0,285.0,390.0,1.0,0.0
176,53.0,0.0,390.0,5.0,0.0
177,67.0,50.0,180.0,2.0,0.0
178,46.0,385.0,240.0,5.0,0.0
179,70.0,0.0,180.0,1.0,0.0
180,62.0,0.0,180.0,2.0,0.0
181,60.0,0.0,480.0,2.0,0.0
182,65.0,240.0,480.0,2.0,0.0
183,48.0,95.0,390.0,5.0,0.0
184,69.0,0.0,480.0,1.0,0.0
185,67.0,480.0,240.0,1.0,0.0
186,36.0,0.0,240.0,5.0,0.0
187,60.0,0.0,240.0,2.0,0.0
188,58.0,0.0,240.0,2.0,0.0
189,64.0,0.0,240.0,2.0,0.0
190,57.0,480.0,480.0,2.0,0.0
191,60.0,0.0,480.0,2.0,0.0
192,41.0,0.0,480.0,5.0,0.0
193,65.0,0.0,480.0,1.0,0.0
194,72.0,120.0,360.0,1.0,0.0
195,53.0,120.0,240.0,5.0,0.0
196,57.0,190.0,240.0,3.0,0.0
197,74.0,0.0,120.0,1.0,0.0
198,60.0,50.0,180.0,3.0,0.0
199,72.0,240.0,240.0,1.0,0.0
200,53.0,145.0,240.0,5.0,0.0
201,74.0,95.0,390.0,1.0,0.0
202,58.0,190.0,240.0,3.0,0.0
203,62.0,0.0,180.0,3.0,0.0
204,74.0,90.0,180.0,1.0,0.0
205,74.0,40.0,30.0,1.0,0.0
206,53.0,120.0,240.0,5.0,0.0
207,76.0,160.0,30.0,1.0,0.0
208,77.0,120.0,270.0,1.0,0.0
209,58.0,190.0,240.0,3.0,0.0
210,76.0,0.0,120.0,1.0,0.0
211,74.0,0.0,180.0,1.0,0.0
212,62.0,290.0,180.0,3.0,0.0
213,53.0,170.0,240.0,5.0,0.0
214,74.0,0.0,240.0,1.0,0.0
215,72.0,70.0,180.0,1.0,0.0
216,57.0,170.0,240.0,3.0,0.0
217,60.0,290.0,180.0,3.0,0.0
218,72.0,20.0,180.0,1.0,0.0
219,57.0,0.0,390.0,4.0,0.0
220,53.0,45.0,390.0,5.0,0.0
221,72.0,145.0,240.0,1.0,0.0
222,69.0,240.0,180.0,1.0,0.0
223,65.0,290.0,180.0,1.0,0.0
224,52.0,45.0,390.0,5.0,0.0
225,58.0,0.0,390.0,4.0,0.0
226,72.0,145.0,240.0,1.0,0.0
227,70.0,240.0,180.0,1.0,0.0
228,67.0,290.0,180.0,1.0,0.0
229,53.0,0.0,390.0,5.0,0.0
230,57.0,45.0,390.0,4.0,0.0
231,72.0,145.0,240.0,1.0,0.0
232,69.0,240.0,180.0,1.0,0.0
233,65.0,50.0,180.0,1.0,0.0
234,59.0,0.0,240.0,4.0,0.0
235,50.0,480.0,240.0,5.0,0.0
236,65.0,190.0,480.0,2.0,0.0
237,48.0,400.0,690.0,5.0,0.0
238,69.0,0.0,480.0,1.0,0.0
239,60.0,5.0,660.0,4.0,0.0
240,64.0,5.0,180.0,2.0,0.0
241,67.0,0.0,180.0,1.0,0.0
242,69.0,120.0,360.0,1.0,0.0
243,60.0,0.0,480.0,4.0,0.0
244,53.0,0.0,360.0,5.0,0.0
245,55.0,0.0,120.0,5.0,0.0
246,70.0,240.0,120.0,1.0,0.0
247,53.0,385.0,240.0,5.0,0.0
248,69.0,0.0,240.0,1.0,0.0
249,60.0,0.0,15.0,4.0,0.0
250,57.0,0.0,390.0,5.0,0.0
251,72.0,285.0,390.0,1.0,0.0
252,60.0,410.0,180.0,4.0,0.0
253,72.0,0.0,180.0,1.0,0.0
254,57.0,0.0,180.0,5.0,0.0
255,67.0,0.0,360.0,1.0,0.0
256,52.0,120.0,360.0,5.0,0.0
257,53.0,0.0,120.0,5.0,0.0
258,69.0,0.0,120.0,1.0,0.0
259,67.0,0.0,240.0,1.0,0.0
260,52.0,385.0,240.0,5.0,0.0
261,60.0,240.0,15.0,4.0,0.0
262,55.0,0.0,390.0,5.0,0.0
263,60.0,335.0,390.0,4.0,0.0
264,70.0,0.0,390.0,1.0,0.0
265,55.0,0.0,240.0,5.0,0.0
266,70.0,385.0,240.0,1.0,0.0
267,50.0,0.0,390.0,5.0,0.0
268,60.0,0.0,15.0,4.0,0.0
269,65.0,335.0,390.0,1.0,0.0
270,60.0,385.0,240.0,4.0,0.0
271,67.0,0.0,240.0,1.0,0.0
272,52.0,0.0,240.0,5.0,0.0
273,69.0,0.0,390.0,1.0,0.0
274,53.0,285.0,390.0,5.0,0.0
275,60.0,0.0,390.0,4.0,0.0
276,62.0,0.0,180.0,2.0,0.0
277,70.0,0.0,180.0,1.0,0.0
278,67.0,0.0,180.0,2.0,0.0
279,46.0,530.0,180.0,5.0,0.0
280,69.0,0.0,480.0,1.0,0.0
281,65.0,0.0,480.0,2.0,0.0
282,60.0,190.0,480.0,2.0,0.0
283,48.0,0.0,480.0,5.0,0.0
284,67.0,0.0,180.0,1.0,0.0
285,64.0,0.0,180.0,2.0,0.0
286,36.0,530.0,180.0,5.0,0.0
287,58.0,0.0,180.0,2.0,0.0
288,64.0,185.0,480.0,2.0,0.0
289,60.0,5.0,660.0,2.0,0.0
290,41.0,435.0,660.0,5.0,0.0
291,67.0,0.0,480.0,1.0,0.0
292,69.0,0.0,180.0,1.0,0.0
293,65.0,0.0,180.0,2.0,0.0
294,60.0,0.0,390.0,2.0,0.0
295,69.0,285.0,390.0,1.0,0.0
296,65.0,0.0,390.0,2.0,0.0
297,53.0,0.0,390.0,5.0,0.0
298,41.0,0.0,390.0,5.0,0.0
299,60.0,0.0,180.0,2.0,0.0
300,43.0,0.0,180.0,5.0,0.0
301,70.0,0.0,180.0,1.0,0.0
302,64.0,0.0,180.0,2.0,0.0
303,55.0,430.0,180.0,5.0,0.0
304,57.0,5.0,390.0,5.0,0.0
305,65.0,215.0,390.0,2.0,0.0
306,60.0,0.0,390.0,2.0,0.0
307,72.0,0.0,390.0,1.0,0.0
308,45.0,0.0,390.0,5.0,0.0
309,58.0,0.0,180.0,5.0,0.0
310,46.0,40.0,180.0,5.0,0.0
311,74.0,60.0,120.0,1.0,0.0
312,76.0,10.0,60.0,1.0,0.0
313,77.0,395.0,60.0,1.0,0.0
314,65.0,95.0,390.0,1.0,0.0
315,57.0,120.0,480.0,4.0,0.0
316,48.0,0.0,15.0,5.0,0.0
317,58.0,0.0,240.0,4.0,0.0
318,69.0,120.0,120.0,1.0,0.0
319,64.0,0.0,240.0,2.0,0.0
320,67.0,480.0,120.0,1.0,0.0
321,53.0,0.0,480.0,5.0,0.0
322,57.0,360.0,480.0,4.0,0.0
323,65.0,0.0,480.0,1.0,0.0
324,68.0,95.0,120.0,1.0,0.0
325,69.0,180.0,90.0,1.0,0.0
326,60.0,0.0,150.0,4.0,0.0
327,53.0,85.0,150.0,5.0,0.0
328,69.0,120.0,120.0,1.0,0.0
329,68.0,95.0,120.0,1.0,0.0
330,69.0,145.0,90.0,1.0,0.0
331,71.0,95.0,120.0,1.0,0.0
332,72.0,180.0,90.0,1.0,0.0
333,57.0,85.0,150.0,5.0,0.0
334,60.0,0.0,150.0,4.0,0.0
335,72.0,120.0,120.0,1.0,0.0
336,74.0,95.0,120.0,1.0,0.0
337,72.0,145.0,90.0,1.0,0.0
338,72.0,95.0,120.0,1.0,0.0
339,67.0,180.0,90.0,1.0,0.0
340,52.0,0.0,150.0,5.0,0.0
341,60.0,85.0,150.0,4.0,0.0
342,67.0,120.0,120.0,1.0,0.0
343,66.0,95.0,120.0,1.0,0.0
344,67.0,145.0,90.0,1.0,0.0
345,69.0,95.0,120.0,1.0,0.0
346,70.0,180.0,90.0,1.0,0.0
347,60.0,0.0,150.0,4.0,0.0
348,55.0,85.0,150.0,5.0,0.0
349,70.0,120.0,120.0,1.0,0.0
350,72.0,95.0,120.0,1.0,0.0
351,70.0,145.0,90.0,1.0,0.0
352,70.0,95.0,120.0,1.0,0.0
353,65.0,180.0,90.0,1.0,0.0
354,50.0,0.0,150.0,5.0,0.0
355,60.0,85.0,150.0,4.0,0.0
356,65.0,120.0,120.0,1.0,0.0
357,64.0,95.0,120.0,1.0,0.0
358,65.0,145.0,90.0,1.0,0.0
359,66.0,95.0,120.0,1.0,0.0
360,67.0,180.0,90.0,1.0,0.0
361,60.0,0.0,150.0,4.0,0.0
362,52.0,85.0,150.0,5.0,0.0
363,67.0,120.0,120.0,1.0,0.0
364,66.0,95.0,120.0,1.0,0.0
365,67.0,145.0,90.0,1.0,0.0
366,68.0,120.0,120.0,1.0,0.0
367,53.0,0.0,300.0,5.0,0.0
368,60.0,50.0,300.0,4.0,0.0
369,69.0,70.0,120.0,1.0,0.0
370,68.0,120.0,120.0,1.0,0.0
371,69.0,120.0,120.0,1.0,0.0
372,72.0,35.0,120.0,1.0,0.0
373,50.0,0.0,150.0,4.0,0.0
374,46.0,60.0,150.0,5.0,0.0
375,70.0,145.0,90.0,1.0,0.0
376,52.0,0.0,300.0,4.0,0.0
377,69.0,120.0,120.0,1.0,0.0
378,48.0,50.0,300.0,5.0,0.0
379,67.0,70.0,120.0,1.0,0.0
380,65.0,120.0,120.0,1.0,0.0
381,64.0,120.0,120.0,1.0,0.0
382,62.0,95.0,120.0,1.0,0.0
383,60.0,240.0,90.0,1.0,0.0
384,41.0,63.0,600.0,5.0,0.0
385,69.0,0.0,390.0,1.0,0.0
386,60.0,70.0,390.0,2.0,0.0
387,65.0,0.0,390.0,2.0,0.0
388,53.0,120.0,90.0,3.0,0.0
389,53.0,50.0,90.0,3.0,0.0
390,53.0,120.0,90.0,3.0,0.0
391,67.0,25.0,180.0,2.0,0.0
392,70.0,0.0,180.0,1.0,0.0
393,53.0,32.0,90.0,3.0,0.0
394,53.0,240.0,90.0,3.0,0.0
395,41.0,95.0,600.0,5.0,0.0
396,68.0,95.0,240.0,2.0,0.0
397,71.0,0.0,240.0,1.0,0.0
398,53.0,25.0,90.0,3.0,0.0
399,69.0,0.0,180.0,2.0,0.0
400,72.0,25.0,180.0,1.0,0.0
401,53.0,95.0,90.0,3.0,0.0
402,53.0,120.0,90.0,3.0,0.0
403,53.0,25.0,90.0,3.0,0.0
404,69.0,215.0,90.0,1.0,0.0
405,53.0,0.0,90.0,3.0,0.0
406,65.0,0.0,90.0,2.0,0.0
407,67.0,0.0,180.0,1.0,0.0
408,60.0,0.0,180.0,2.0,0.0
409,64.0,25.0,180.0,2.0,0.0
410,36.0,63.0,600.0,5.0,0.0
411,48.0,120.0,90.0,3.0,0.0
412,67.0,0.0,180.0,1.0,0.0
413,64.0,0.0,180.0,2.0,0.0
414,48.0,95.0,90.0,3.0,0.0
415,60.0,25.0,180.0,2.0,0.0
416,48.0,120.0,90.0,3.0,0.0
417,48.0,32.0,90.0,3.0,0.0
418,69.0,25.0,180.0,1.0,0.0
419,65.0,0.0,180.0,2.0,0.0
420,60.0,0.0,180.0,2.0,0.0
421,48.0,240.0,90.0,3.0,0.0
422,36.0,95.0,600.0,5.0,0.0
423,66.0,0.0,240.0,2.0,0.0
424,60.0,45.0,390.0,2.0,0.0
425,69.0,95.0,240.0,1.0,0.0
426,48.0,25.0,90.0,3.0,0.0
427,67.0,0.0,180.0,2.0,0.0
428,48.0,50.0,90.0,3.0,0.0
429,70.0,25.0,180.0,1.0,0.0
430,48.0,120.0,90.0,3.0,0.0
431,48.0,25.0,90.0,3.0,0.0
432,67.0,215.0,90.0,1.0,0.0
433,64.0,0.0,90.0,2.0,0.0
434,48.0,0.0,90.0,3.0,0.0
435,65.0,25.0,180.0,1.0,0.0
436,38.0,70.0,360.0,5.0,0.0
437,50.0,120.0,90.0,3.0,0.0
438,65.0,25.0,180.0,1.0,0.0
439,50.0,25.0,90.0,3.0,0.0
440,50.0,65.0,90.0,3.0,0.0
441,67.0,40.0,30.0,1.0,0.0
442,40.0,0.0,180.0,5.0,0.0
443,69.0,40.0,30.0,1.0,0.0
444,67.0,60.0,30.0,1.0,0.0
445,65.0,35.0,60.0,1.0,0.0
446,52.0,20.0,90.0,3.0,0.0
447,67.0,195.0,60.0,1.0,0.0
448,69.0,25.0,180.0,1.0,0.0
449,41.0,70.0,360.0,5.0,0.0
450,53.0,120.0,90.0,3.0,0.0
451,53.0,25.0,90.0,3.0,0.0
452,69.0,25.0,180.0,1.0,0.0
453,53.0,205.0,90.0,3.0,0.0
454,70.0,0.0,180.0,1.0,0.0
455,34.0,10.0,180.0,5.0,0.0
456,67.0,25.0,180.0,2.0,0.0
457,62.0,0.0,180.0,2.0,0.0
458,46.0,215.0,90.0,3.0,0.0
459,69.0,25.0,180.0,1.0,0.0
460,36.0,70.0,600.0,5.0,0.0
461,60.0,0.0,180.0,2.0,0.0
462,65.0,0.0,180.0,2.0,0.0
463,48.0,120.0,90.0,3.0,0.0
464,69.0,0.0,180.0,1.0,0.0
465,48.0,95.0,90.0,3.0,0.0
466,65.0,0.0,180.0,2.0,0.0
467,60.0,25.0,180.0,2.0,0.0
468,48.0,120.0,90.0,3.0,0.0
469,60.0,0.0,180.0,2.0,0.0
470,64.0,0.0,180.0,2.0,0.0
471,58.0,0.0,180.0,2.0,0.0
472,67.0,25.0,180.0,1.0,0.0
473,48.0,25.0,90.0,3.0,0.0
474,48.0,215.0,90.0,3.0,0.0
475,60.0,0.0,180.0,2.0,0.0
476,57.0,0.0,180.0,2.0,0.0
477,29.0,190.0,240.0,5.0,0.0
478,65.0,50.0,180.0,1.0,0.0
479,41.0,410.0,180.0,5.0,0.0
480,68.0,95.0,120.0,1.0,0.0
481,69.0,180.0,90.0,1.0,0.0
482,53.0,0.0,150.0,5.0,0.0
483,60.0,85.0,150.0,4.0,0.0
484,69.0,120.0,120.0,1.0,0.0
485,68.0,95.0,120.0,1.0,0.0
486,69.0,145.0,90.0,1.0,0.0
487,71.0,95.0,120.0,1.0,0.0
488,72.0,180.0,90.0,1.0,0.0
489,60.0,0.0,150.0,4.0,0.0
490,57.0,85.0,150.0,5.0,0.0
491,72.0,120.0,120.0,1.0,0.0
492,74.0,95.0,120.0,1.0,0.0
493,72.0,145.0,90.0,1.0,0.0
494,72.0,95.0,120.0,1.0,0.0
495,67.0,180.0,90.0,1.0,0.0
496,52.0,85.0,150.0,5.0,0.0
497,60.0,0.0,150.0,4.0,0.0
498,67.0,120.0,120.0,1.0,0.0
499,66.0,95.0,120.0,1.0,0.0
500,67.0,145.0,90.0,1.0,0.0
501,69.0,95.0,120.0,1.0,0.0
502,70.0,180.0,90.0,1.0,0.0
503,55.0,0.0,150.0,5.0,0.0
504,60.0,85.0,150.0,4.0,0.0
505,70.0,120.0,120.0,1.0,0.0
506,72.0,95.0,120.0,1.0,0.0
507,70.0,145.0,90.0,1.0,0.0
508,70.0,95.0,120.0,1.0,0.0
509,65.0,180.0,90.0,1.0,0.0
510,50.0,0.0,150.0,5.0,0.0
511,60.0,85.0,150.0,4.0,0.0
512,65.0,120.0,120.0,1.0,0.0
513,64.0,95.0,120.0,1.0,0.0
514,65.0,145.0,90.0,1.0,0.0
515,66.0,95.0,120.0,1.0,0.0
516,67.0,180.0,90.0,1.0,0.0
517,60.0,85.0,150.0,4.0,0.0
518,52.0,0.0,150.0,5.0,0.0
519,67.0,120.0,120.0,1.0,0.0
520,66.0,95.0,120.0,1.0,0.0
521,67.0,145.0,90.0,1.0,0.0
522,60.0,0.0,300.0,4.0,0.0
523,53.0,50.0,300.0,5.0,0.0
524,68.0,120.0,120.0,1.0,0.0
525,69.0,70.0,120.0,1.0,0.0
526,68.0,120.0,120.0,1.0,0.0
527,69.0,120.0,120.0,1.0,0.0
528,72.0,35.0,120.0,1.0,0.0
529,46.0,60.0,150.0,5.0,0.0
530,50.0,0.0,150.0,4.0,0.0
531,70.0,145.0,90.0,1.0,0.0
532,52.0,0.0,300.0,4.0,0.0
533,48.0,50.0,300.0,5.0,0.0
534,69.0,120.0,120.0,1.0,0.0
535,67.0,70.0,120.0,1.0,0.0
536,65.0,120.0,120.0,1.0,0.0
537,64.0,120.0,120.0,1.0,0.0
538,62.0,95.0,120.0,1.0,0.0
539,60.0,240.0,90.0,1.0,0.0
540,69.0,0.0,390.0,1.0,0.0
541,65.0,0.0,390.0,2.0,0.0
542,60.0,70.0,390.0,2.0,0.0
543,41.0,63.0,600.0,5.0,0.0
544,53.0,120.0,90.0,3.0,0.0
545,53.0,50.0,90.0,3.0,0.0
546,53.0,120.0,90.0,3.0,0.0
547,67.0,25.0,180.0,2.0,0.0
548,70.0,0.0,180.0,1.0,0.0
549,53.0,32.0,90.0,3.0,0.0
550,53.0,240.0,90.0,3.0,0.0
551,41.0,95.0,600.0,5.0,0.0
552,71.0,0.0,240.0,1.0,0.0
553,68.0,95.0,240.0,2.0,0.0
554,53.0,25.0,90.0,3.0,0.0
555,72.0,0.0,180.0,1.0,0.0
556,69.0,25.0,180.0,2.0,0.0
557,53.0,95.0,90.0,3.0,0.0
558,53.0,120.0,90.0,3.0,0.0
559,53.0,25.0,90.0,3.0,0.0
560,69.0,0.0,90.0,1.0,0.0
561,65.0,215.0,90.0,2.0,0.0
562,53.0,0.0,90.0,3.0,0.0
563,67.0,25.0,180.0,1.0,0.0
564,64.0,0.0,180.0,2.0,0.0
565,60.0,0.0,180.0,2.0,0.0
566,36.0,63.0,600.0,5.0,0.0
567,48.0,120.0,90.0,3.0,0.0
568,48.0,95.0,90.0,3.0,0.0
569,67.0,0.0,180.0,1.0,0.0
570,64.0,0.0,180.0,2.0,0.0
571,60.0,25.0,180.0,2.0,0.0
572,48.0,120.0,90.0,3.0,0.0
573,69.0,25.0,180.0,1.0,0.0
574,48.0,32.0,90.0,3.0,0.0
575,65.0,0.0,180.0,2.0,0.0
576,60.0,0.0,180.0,2.0,0.0
577,48.0,240.0,90.0,3.0,0.0
578,69.0,95.0,240.0,1.0,0.0
579,36.0,95.0,600.0,5.0,0.0
580,60.0,45.0,390.0,2.0,0.0
581,66.0,0.0,240.0,2.0,0.0
582,48.0,25.0,90.0,3.0,0.0
583,48.0,50.0,90.0,3.0,0.0
584,67.0,0.0,180.0,2.0,0.0
585,70.0,25.0,180.0,1.0,0.0
586,48.0,120.0,90.0,3.0,0.0
587,48.0,25.0,90.0,3.0,0.0
588,64.0,0.0,90.0,2.0,0.0
589,67.0,0.0,90.0,1.0,0.0
590,48.0,215.0,90.0,3.0,0.0
591,65.0,25.0,180.0,1.0,0.0
592,38.0,70.0,360.0,5.0,0.0
593,50.0,120.0,90.0,3.0,0.0
594,50.0,25.0,90.0,3.0,0.0
595,65.0,25.0,180.0,1.0,0.0
596,50.0,65.0,90.0,3.0,0.0
597,40.0,0.0,180.0,5.0,0.0
598,67.0,40.0,30.0,1.0,0.0
599,69.0,40.0,30.0,1.0,0.0
600,67.0,60.0,30.0,1.0,0.0
601,65.0,35.0,60.0,1.0,0.0
602,52.0,20.0,90.0,3.0,0.0
603,67.0,195.0,60.0,1.0,0.0
604,69.0,25.0,180.0,1.0,0.0
605,41.0,70.0,360.0,5.0,0.0
606,53.0,120.0,90.0,3.0,0.0
607,69.0,25.0,180.0,1.0,0.0
608,53.0,25.0,90.0,3.0,0.0
609,53.0,205.0,90.0,3.0,0.0
610,34.0,10.0,180.0,5.0,0.0
611,70.0,0.0,180.0,1.0,0.0
612,67.0,25.0,180.0,2.0,0.0
613,62.0,0.0,180.0,2.0,0.0
614,46.0,215.0,90.0,3.0,0.0
615,65.0,0.0,180.0,2.0,0.0
616,60.0,0.0,180.0,2.0,0.0
617,69.0,25.0,180.0,1.0,0.0
618,36.0,70.0,600.0,5.0,0.0
619,48.0,120.0,90.0,3.0,0.0
620,48.0,95.0,90.0,3.0,0.0
621,65.0,25.0,180.0,2.0,0.0
622,60.0,0.0,180.0,2.0,0.0
623,69.0,0.0,180.0,1.0,0.0
624,48.0,120.0,90.0,3.0,0.0
625,48.0,25.0,90.0,3.0,0.0
626,60.0,0.0,180.0,2.0,0.0
627,58.0,0.0,180.0,2.0,0.0
628,67.0,0.0,180.0,1.0,0.0
629,64.0,25.0,180.0,2.0,0.0
630,48.0,215.0,90.0,3.0,0.0
631,60.0,0.0,180.0,2.0,0.0
632,29.0,190.0,240.0,5.0,0.0
633,65.0,50.0,180.0,1.0,0.0
634,57.0,0.0,180.0,2.0,0.0
635,41.0,410.0,180.0,5.0,0.0
636,71.0,95.0,120.0,1.0,0.0
637,72.0,180.0,90.0,1.0,0.0
638,57.0,0.0,150.0,4.0,0.0
639,53.0,85.0,150.0,5.0,0.0
640,72.0,120.0,120.0,1.0,0.0
641,71.0,95.0,120.0,1.0,0.0
642,72.0,145.0,90.0,1.0,0.0
643,73.0,95.0,120.0,1.0,0.0
644,74.0,180.0,90.0,1.0,0.0
645,53.0,0.0,150.0,5.0,0.0
646,58.0,85.0,150.0,4.0,0.0
647,74.0,120.0,120.0,1.0,0.0
648,73.0,95.0,120.0,1.0,0.0
649,74.0,145.0,90.0,1.0,0.0
650,53.0,0.0,150.0,5.0,0.0
651,62.0,60.0,150.0,4.0,0.0
652,76.0,35.0,120.0,1.0,0.0
653,77.0,145.0,90.0,1.0,0.0
654,53.0,0.0,150.0,5.0,0.0
655,75.0,35.0,120.0,1.0,0.0
656,60.0,60.0,150.0,4.0,0.0
657,76.0,145.0,90.0,1.0,0.0
658,73.0,35.0,120.0,1.0,0.0
659,53.0,60.0,150.0,5.0,0.0
660,58.0,0.0,150.0,4.0,0.0
661,74.0,145.0,90.0,1.0,0.0
662,71.0,95.0,120.0,1.0,0.0
663,72.0,180.0,90.0,1.0,0.0
664,53.0,45.0,150.0,5.0,0.0
665,57.0,0.0,150.0,4.0,0.0
666,72.0,120.0,90.0,1.0,0.0
667,72.0,120.0,90.0,1.0,0.0
668,72.0,160.0,90.0,1.0,0.0
669,57.0,0.0,570.0,4.0,0.0
670,72.0,120.0,120.0,1.0,0.0
671,53.0,105.0,570.0,5.0,0.0
672,60.0,0.0,570.0,4.0,0.0
673,69.0,95.0,120.0,1.0,0.0
674,65.0,105.0,90.0,1.0,0.0
675,72.0,120.0,90.0,1.0,0.0
676,72.0,15.0,90.0,1.0,0.0
677,72.0,160.0,90.0,1.0,0.0
678,55.0,0.0,570.0,5.0,0.0
679,72.0,120.0,120.0,1.0,0.0
680,60.0,0.0,570.0,4.0,0.0
681,58.0,105.0,570.0,4.0,0.0
682,70.0,95.0,120.0,1.0,0.0
683,64.0,105.0,90.0,1.0,0.0
684,72.0,120.0,90.0,1.0,0.0
685,72.0,15.0,90.0,1.0,0.0
686,72.0,160.0,90.0,1.0,0.0
687,57.0,0.0,390.0,5.0,0.0
688,60.0,95.0,390.0,4.0,0.0
689,72.0,120.0,120.0,1.0,0.0
690,69.0,95.0,120.0,1.0,0.0
691,65.0,50.0,90.0,1.0,0.0
692,72.0,120.0,120.0,1.0,0.0
693,50.0,0.0,180.0,5.0,0.0
694,69.0,70.0,120.0,1.0,0.0
695,59.0,0.0,180.0,4.0,0.0
696,53.0,25.0,180.0,4.0,0.0
697,65.0,505.0,90.0,1.0,0.0
698,69.0,0.0,480.0,1.0,0.0
699,60.0,0.0,660.0,4.0,0.0
700,48.0,5.0,660.0,5.0,0.0
701,65.0,185.0,480.0,2.0,0.0
702,67.0,170.0,180.0,1.0,0.0
703,64.0,0.0,180.0,2.0,0.0
704,68.0,95.0,120.0,1.0,0.0
705,69.0,180.0,90.0,1.0,0.0
706,53.0,0.0,150.0,5.0,0.0
707,60.0,85.0,150.0,4.0,0.0
708,69.0,120.0,120.0,1.0,0.0
709,68.0,95.0,120.0,1.0,0.0
710,69.0,145.0,90.0,1.0,0.0
711,71.0,95.0,120.0,1.0,0.0
712,72.0,180.0,90.0,1.0,0.0
713,57.0,0.0,150.0,5.0,0.0
714,60.0,85.0,150.0,4.0,0.0
715,72.0,120.0,120.0,1.0,0.0
716,74.0,95.0,120.0,1.0,0.0
717,72.0,145.0,90.0,1.0,0.0
718,72.0,95.0,120.0,1.0,0.0
719,67.0,180.0,90.0,1.0,0.0
720,60.0,85.0,150.0,4.0,0.0
721,52.0,0.0,150.0,5.0,0.0
722,67.0,120.0,120.0,1.0,0.0
723,66.0,95.0,120.0,1.0,0.0
724,67.0,145.0,90.0,1.0,0.0
725,69.0,95.0,120.0,1.0,0.0
726,70.0,180.0,90.0,1.0,0.0
727,60.0,85.0,150.0,4.0,0.0
728,55.0,0.0,150.0,5.0,0.0
729,70.0,120.0,120.0,1.0,0.0
730,72.0,95.0,120.0,1.0,0.0
731,70.0,145.0,90.0,1.0,0.0
732,70.0,95.0,120.0,1.0,0.0
733,65.0,180.0,90.0,1.0,0.0
734,50.0,0.0,150.0,5.0,0.0
735,60.0,85.0,150.0,4.0,0.0
736,65.0,120.0,120.0,1.0,0.0
737,60.0,60.0,150.0,4.0,0.0
738,69.0,35.0,120.0,1.0,0.0
739,52.0,0.0,150.0,5.0,0.0
740,67.0,145.0,90.0,1.0,0.0
741,70.0,95.0,120.0,1.0,0.0
742,69.0,180.0,90.0,1.0,0.0
743,53.0,85.0,150.0,5.0,0.0
744,60.0,0.0,150.0,4.0,0.0
745,69.0,120.0,120.0,1.0,0.0
746,46.0,60.0,150.0,5.0,0.0
747,72.0,35.0,120.0,1.0,0.0
748,55.0,0.0,150.0,4.0,0.0
749,70.0,145.0,90.0,1.0,0.0
750,68.0,95.0,120.0,1.0,0.0
751,69.0,180.0,90.0,1.0,0.0
752,53.0,85.0,150.0,4.0,0.0
753,48.0,0.0,150.0,5.0,0.0
754,69.0,120.0,120.0,1.0,0.0
755,70.0,35.0,120.0,1.0,0.0
756,52.0,0.0,150.0,4.0,0.0
757,48.0,60.0,150.0,5.0,0.0
758,67.0,180.0,90.0,1.0,0.0
759,64.0,155.0,480.0,2.0,0.0
760,53.0,205.0,150.0,4.0,0.0
761,67.0,35.0,360.0,1.0,0.0
762,48.0,85.0,150.0,5.0,0.0
763,68.0,0.0,120.0,1.0,0.0
764,69.0,0.0,180.0,1.0,0.0
765,41.0,35.0,150.0,5.0,0.0
766,65.0,240.0,180.0,2.0,0.0
767,60.0,0.0,180.0,2.0,0.0
768,29.0,70.0,360.0,5.0,0.0
769,69.0,0.0,180.0,1.0,0.0
770,65.0,25.0,180.0,2.0,0.0
771,41.0,120.0,90.0,3.0,0.0
772,41.0,25.0,90.0,3.0,0.0
773,65.0,0.0,180.0,2.0,0.0
774,69.0,25.0,180.0,1.0,0.0
775,60.0,0.0,180.0,2.0,0.0
776,41.0,205.0,90.0,3.0,0.0
777,31.0,10.0,180.0,5.0,0.0
778,70.0,0.0,180.0,1.0,0.0
779,64.0,25.0,180.0,2.0,0.0
780,60.0,0.0,180.0,2.0,0.0
781,43.0,215.0,90.0,3.0,0.0
782,33.0,70.0,360.0,5.0,0.0
783,60.0,25.0,180.0,2.0,0.0
784,65.0,0.0,180.0,2.0,0.0
785,72.0,0.0,180.0,1.0,0.0
786,45.0,120.0,90.0,3.0,0.0
787,72.0,0.0,180.0,1.0,0.0
788,45.0,25.0,90.0,3.0,0.0
789,65.0,25.0,180.0,2.0,0.0
790,45.0,145.0,90.0,3.0,0.0
791,74.0,60.0,120.0,1.0,0.0
792,34.0,0.0,180.0,5.0,0.0
793,65.0,25.0,180.0,2.0,0.0
794,46.0,15.0,90.0,3.0,0.0
795,76.0,10.0,60.0,1.0,0.0
796,77.0,200.0,60.0,1.0,0.0
797,36.0,70.0,600.0,5.0,0.0
798,65.0,0.0,180.0,1.0,0.0
799,57.0,0.0,180.0,2.0,0.0
800,60.0,25.0,180.0,2.0,0.0
801,48.0,120.0,90.0,3.0,0.0
802,65.0,25.0,180.0,1.0,0.0
803,48.0,95.0,90.0,3.0,0.0
804,57.0,0.0,180.0,2.0,0.0
805,60.0,0.0,180.0,2.0,0.0
806,48.0,120.0,90.0,3.0,0.0
807,48.0,25.0,90.0,3.0,0.0
808,58.0,0.0,180.0,2.0,0.0
809,64.0,0.0,180.0,2.0,0.0
810,67.0,0.0,180.0,1.0,0.0
811,60.0,25.0,180.0,2.0,0.0
812,48.0,215.0,90.0,3.0,0.0
813,29.0,190.0,240.0,5.0,0.0
814,57.0,0.0,180.0,2.0,0.0
815,60.0,0.0,180.0,2.0,0.0
816,65.0,50.0,180.0,1.0,0.0
817,41.0,531.0,180.0,5.0,0.0
818,69.0,10.0,300.0,1.0,0.0
819,53.0,69.0,240.0,4.0,0.0
820,59.0,160.0,150.0,3.0,0.0
821,60.0,241.0,150.0,3.0,0.0
822,69.0,10.0,300.0,1.0,0.0
823,53.0,69.0,240.0,4.0,0.0
824,59.0,160.0,150.0,3.0,0.0
825,60.0,80.0,150.0,3.0,0.0
826,70.0,60.0,90.0,1.0,0.0
827,55.0,79.0,240.0,4.0,0.0
828,72.0,60.0,90.0,1.0,0.0
829,70.0,40.0,90.0,1.0,0.0
830,59.0,0.0,150.0,3.0,0.0
831,72.0,1.0,60.0,1.0,0.0
832,70.0,80.0,90.0,1.0,0.0
833,69.0,80.0,90.0,1.0,0.0
834,60.0,0.0,150.0,3.0,0.0
835,70.0,241.0,90.0,1.0,0.0
836,72.0,95.0,390.0,1.0,0.0
837,57.0,79.0,240.0,4.0,0.0
838,59.0,65.0,150.0,3.0,0.0
839,60.0,241.0,150.0,3.0,0.0
840,57.0,79.0,240.0,4.0,0.0
841,59.0,160.0,150.0,3.0,0.0
842,60.0,120.0,150.0,3.0,0.0
843,53.0,79.0,240.0,4.0,0.0
844,74.0,120.0,120.0,1.0,0.0
845,72.0,1.0,120.0,1.0,0.0
846,59.0,40.0,150.0,3.0,0.0
847,70.0,85.0,120.0,1.0,0.0
848,60.0,35.0,120.0,3.0,0.0
849,69.0,241.0,120.0,1.0,0.0
850,67.0,10.0,300.0,1.0,0.0
851,52.0,69.0,240.0,4.0,0.0
852,59.0,160.0,150.0,3.0,0.0
853,60.0,241.0,150.0,3.0,0.0
854,67.0,10.0,300.0,1.0,0.0
855,52.0,69.0,240.0,4.0,0.0
856,59.0,160.0,150.0,3.0,0.0
857,60.0,65.0,150.0,3.0,0.0
858,69.0,60.0,60.0,1.0,0.0
859,53.0,4.0,240.0,4.0,0.0
860,70.0,75.0,60.0,1.0,0.0
861,69.0,41.0,90.0,1.0,0.0
862,59.0,80.0,150.0,3.0,0.0
863,70.0,75.0,60.0,1.0,0.0
864,69.0,0.0,90.0,1.0,0.0
865,67.0,80.0,90.0,1.0,0.0
866,60.0,241.0,150.0,3.0,0.0
867,69.0,0.0,90.0,1.0,0.0
868,70.0,95.0,390.0,1.0,0.0
869,55.0,79.0,240.0,4.0,0.0
870,59.0,65.0,150.0,3.0,0.0
871,60.0,241.0,150.0,3.0,0.0
872,55.0,79.0,240.0,4.0,0.0
873,59.0,160.0,150.0,3.0,0.0
874,60.0,120.0,150.0,3.0,0.0
875,52.0,79.0,240.0,4.0,0.0
876,72.0,120.0,120.0,1.0,0.0
877,70.0,1.0,120.0,1.0,0.0
878,59.0,40.0,150.0,3.0,0.0
879,69.0,85.0,120.0,1.0,0.0
880,60.0,35.0,120.0,3.0,0.0
881,67.0,241.0,120.0,1.0,0.0
882,50.0,69.0,240.0,4.0,0.0
883,65.0,10.0,300.0,1.0,0.0
884,59.0,160.0,150.0,3.0,0.0
885,60.0,241.0,150.0,3.0,0.0
886,65.0,10.0,300.0,1.0,0.0
887,50.0,69.0,240.0,4.0,0.0
888,59.0,160.0,150.0,3.0,0.0
889,60.0,80.0,150.0,3.0,0.0
890,65.0,45.0,90.0,1.0,0.0
891,50.0,79.0,240.0,4.0,0.0
892,67.0,75.0,60.0,1.0,0.0
893,65.0,30.0,90.0,1.0,0.0
894,59.0,0.0,150.0,3.0,0.0
895,67.0,11.0,60.0,1.0,0.0
896,65.0,80.0,90.0,1.0,0.0
897,60.0,241.0,150.0,3.0,0.0
898,64.0,80.0,90.0,1.0,0.0
899,65.0,0.0,90.0,1.0,0.0
900,67.0,10.0,300.0,1.0,0.0
901,52.0,69.0,240.0,4.0,0.0
902,58.0,160.0,150.0,3.0,0.0
903,60.0,241.0,150.0,3.0,0.0
904,67.0,10.0,300.0,1.0,0.0
905,52.0,69.0,240.0,4.0,0.0
906,58.0,160.0,150.0,3.0,0.0
907,60.0,80.0,150.0,3.0,0.0
908,67.0,60.0,90.0,1.0,0.0
909,52.0,79.0,240.0,4.0,0.0
910,69.0,60.0,90.0,1.0,0.0
911,67.0,40.0,90.0,1.0,0.0
912,69.0,1.0,90.0,1.0,0.0
913,58.0,0.0,150.0,3.0,0.0
914,67.0,80.0,90.0,1.0,0.0
915,65.0,40.0,90.0,1.0,0.0
916,60.0,40.0,120.0,3.0,0.0
917,67.0,241.0,90.0,1.0,0.0
918,53.0,69.0,240.0,4.0,0.0
919,69.0,10.0,300.0,1.0,0.0
920,57.0,160.0,150.0,3.0,0.0
921,60.0,241.0,150.0,3.0,0.0
922,69.0,10.0,300.0,1.0,0.0
923,53.0,69.0,240.0,4.0,0.0
924,57.0,160.0,150.0,3.0,0.0
925,60.0,120.0,150.0,3.0,0.0
926,72.0,121.0,120.0,1.0,0.0
927,67.0,55.0,420.0,2.0,0.0
928,46.0,79.0,240.0,4.0,0.0
929,70.0,0.0,300.0,1.0,0.0
930,50.0,105.0,150.0,3.0,0.0
931,55.0,241.0,150.0,3.0,0.0
932,48.0,79.0,240.0,4.0,0.0
933,69.0,0.0,960.0,1.0,0.0
934,65.0,241.0,960.0,2.0,0.0
935,53.0,160.0,150.0,3.0,0.0
936,57.0,241.0,150.0,3.0,0.0
937,48.0,79.0,240.0,4.0,0.0
938,53.0,160.0,150.0,3.0,0.0
939,57.0,0.0,150.0,3.0,0.0
940,48.0,79.0,240.0,4.0,0.0
941,67.0,0.0,390.0,1.0,0.0
942,64.0,55.0,390.0,2.0,0.0
943,52.0,65.0,150.0,3.0,0.0
944,55.0,200.0,120.0,3.0,0.0
945,69.0,150.0,150.0,1.0,0.0
946,41.0,10.0,300.0,5.0,0.0
947,65.0,160.0,150.0,3.0,0.0
948,60.0,60.0,150.0,3.0,0.0
949,52.0,100.0,60.0,5.0,0.0
950,69.0,160.0,150.0,1.0,0.0
951,53.0,0.0,270.0,5.0,0.0
952,65.0,160.0,150.0,3.0,0.0
953,60.0,160.0,150.0,3.0,0.0
954,70.0,160.0,150.0,1.0,0.0
955,67.0,160.0,150.0,3.0,0.0
956,60.0,160.0,150.0,3.0,0.0
957,72.0,150.0,150.0,1.0,0.0
958,41.0,10.0,300.0,5.0,0.0
959,69.0,160.0,150.0,3.0,0.0
960,60.0,60.0,150.0,3.0,0.0
961,72.0,155.0,150.0,3.0,0.0
962,52.0,100.0,60.0,5.0,0.0
963,53.0,5.0,240.0,5.0,0.0
964,69.0,125.0,150.0,3.0,0.0
965,60.0,155.0,120.0,3.0,0.0
966,74.0,120.0,120.0,1.0,0.0
967,72.0,120.0,120.0,1.0,0.0
968,70.0,95.0,120.0,1.0,0.0
969,69.0,185.0,90.0,1.0,0.0
970,67.0,150.0,150.0,1.0,0.0
971,36.0,10.0,300.0,5.0,0.0
972,64.0,160.0,150.0,3.0,0.0
973,60.0,60.0,150.0,3.0,0.0
974,47.0,100.0,60.0,5.0,0.0
975,67.0,160.0,150.0,1.0,0.0
976,48.0,160.0,270.0,5.0,0.0
977,64.0,0.0,150.0,3.0,0.0
978,60.0,160.0,150.0,3.0,0.0
979,69.0,160.0,150.0,1.0,0.0
980,65.0,160.0,150.0,3.0,0.0
981,60.0,160.0,150.0,3.0,0.0
982,70.0,150.0,150.0,1.0,0.0
983,36.0,10.0,300.0,5.0,0.0
984,67.0,160.0,150.0,3.0,0.0
985,60.0,60.0,150.0,3.0,0.0
986,47.0,100.0,60.0,5.0,0.0
987,70.0,160.0,150.0,3.0,0.0
988,48.0,125.0,270.0,5.0,0.0
989,67.0,0.0,150.0,3.0,0.0
990,60.0,155.0,120.0,3.0,0.0
991,72.0,120.0,120.0,1.0,0.0
992,70.0,120.0,120.0,1.0,0.0
993,69.0,95.0,120.0,1.0,0.0
994,67.0,185.0,90.0,1.0,0.0
995,65.0,150.0,150.0,1.0,0.0
996,38.0,10.0,300.0,5.0,0.0
997,60.0,155.0,150.0,3.0,0.0
998,57.0,80.0,150.0,3.0,0.0
999,49.0,85.0,60.0,5.0,0.0
1000,65.0,160.0,150.0,1.0,0.0
1001,50.0,160.0,270.0,5.0,0.0
1002,60.0,0.0,150.0,3.0,0.0
1003,57.0,75.0,150.0,3.0,0.0
1004,51.0,85.0,60.0,5.0,0.0
1005,67.0,160.0,150.0,1.0,0.0
1006,52.0,125.0,270.0,5.0,0.0
1007,60.0,0.0,150.0,3.0,0.0
1008,58.0,195.0,120.0,3.0,0.0
1009,69.0,150.0,150.0,1.0,0.0
1010,41.0,10.0,300.0,5.0,0.0
1011,65.0,160.0,150.0,3.0,0.0
1012,60.0,75.0,150.0,3.0,0.0
1013,52.0,85.0,60.0,5.0,0.0
1014,69.0,160.0,150.0,1.0,0.0
1015,53.0,155.0,270.0,5.0,0.0
1016,65.0,5.0,150.0,3.0,0.0
1017,60.0,75.0,150.0,3.0,0.0
1018,45.0,85.0,60.0,5.0,0.0
1019,70.0,150.0,150.0,1.0,0.0
1020,46.0,10.0,240.0,5.0,0.0
1021,67.0,120.0,150.0,3.0,0.0
1022,62.0,200.0,120.0,3.0,0.0
1023,69.0,150.0,150.0,1.0,0.0
1024,36.0,10.0,300.0,5.0,0.0
1025,65.0,160.0,150.0,3.0,0.0
1026,60.0,80.0,150.0,3.0,0.0
1027,47.0,80.0,90.0,5.0,0.0
1028,69.0,160.0,150.0,1.0,0.0
1029,48.0,0.0,270.0,5.0,0.0
1030,65.0,160.0,150.0,3.0,0.0
1031,60.0,80.0,150.0,3.0,0.0
1032,47.0,80.0,90.0,5.0,0.0
1033,67.0,160.0,150.0,1.0,0.0
1034,48.0,155.0,270.0,5.0,0.0
1035,64.0,5.0,150.0,3.0,0.0
1036,58.0,160.0,150.0,3.0,0.0
1037,29.0,10.0,300.0,5.0,0.0
1038,65.0,150.0,150.0,1.0,0.0
1039,60.0,160.0,150.0,1.0,0.0
1040,57.0,70.0,150.0,1.0,0.0
1041,40.0,245.0,60.0,5.0,0.0
1042,53.0,881.0,330.0,1.0,0.0
1043,41.0,5.0,240.0,5.0,0.0
1044,69.0,10.0,300.0,1.0,0.0
1045,53.0,69.0,240.0,4.0,0.0
1046,59.0,160.0,150.0,3.0,0.0
1047,60.0,241.0,150.0,3.0,0.0
1048,53.0,69.0,240.0,4.0,0.0
1049,69.0,10.0,300.0,1.0,0.0
1050,59.0,160.0,150.0,3.0,0.0
1051,60.0,80.0,150.0,3.0,0.0
1052,55.0,79.0,240.0,4.0,0.0
1053,70.0,60.0,90.0,1.0,0.0
1054,72.0,60.0,90.0,1.0,0.0
1055,70.0,40.0,90.0,1.0,0.0
1056,59.0,80.0,150.0,3.0,0.0
1057,72.0,1.0,60.0,1.0,0.0
1058,70.0,0.0,90.0,1.0,0.0
1059,69.0,80.0,90.0,1.0,0.0
1060,60.0,241.0,150.0,3.0,0.0
1061,70.0,0.0,90.0,1.0,0.0
1062,72.0,95.0,390.0,1.0,0.0
1063,57.0,79.0,240.0,4.0,0.0
1064,59.0,65.0,150.0,3.0,0.0
1065,60.0,241.0,150.0,3.0,0.0
1066,57.0,79.0,240.0,4.0,0.0
1067,59.0,160.0,150.0,3.0,0.0
1068,60.0,120.0,150.0,3.0,0.0
1069,74.0,120.0,120.0,1.0,0.0
1070,53.0,79.0,240.0,4.0,0.0
1071,72.0,1.0,120.0,1.0,0.0
1072,59.0,40.0,150.0,3.0,0.0
1073,70.0,85.0,120.0,1.0,0.0
1074,60.0,35.0,120.0,3.0,0.0
1075,69.0,241.0,120.0,1.0,0.0
1076,67.0,10.0,300.0,1.0,0.0
1077,52.0,69.0,240.0,4.0,0.0
1078,59.0,160.0,150.0,3.0,0.0
1079,60.0,241.0,150.0,3.0,0.0
1080,67.0,10.0,300.0,1.0,0.0
1081,52.0,69.0,240.0,4.0,0.0
1082,59.0,160.0,150.0,3.0,0.0
1083,60.0,65.0,150.0,3.0,0.0
1084,69.0,60.0,60.0,1.0,0.0
1085,53.0,4.0,240.0,4.0,0.0
1086,70.0,75.0,60.0,1.0,0.0
1087,69.0,41.0,90.0,1.0,0.0
1088,59.0,0.0,150.0,3.0,0.0
1089,70.0,75.0,60.0,1.0,0.0
1090,69.0,80.0,90.0,1.0,0.0
1091,60.0,0.0,150.0,3.0,0.0
1092,67.0,80.0,90.0,1.0,0.0
1093,69.0,241.0,90.0,1.0,0.0
1094,70.0,95.0,390.0,1.0,0.0
1095,55.0,79.0,240.0,4.0,0.0
1096,59.0,65.0,150.0,3.0,0.0
1097,60.0,241.0,150.0,3.0,0.0
1098,55.0,79.0,240.0,4.0,0.0
1099,59.0,160.0,150.0,3.0,0.0
1100,60.0,120.0,150.0,3.0,0.0
1101,52.0,79.0,240.0,4.0,0.0
1102,72.0,120.0,120.0,1.0,0.0
1103,70.0,1.0,120.0,1.0,0.0
1104,59.0,40.0,150.0,3.0,0.0
1105,69.0,85.0,120.0,1.0,0.0
1106,60.0,35.0,120.0,3.0,0.0
1107,67.0,241.0,120.0,1.0,0.0
1108,50.0,69.0,240.0,4.0,0.0
1109,65.0,10.0,300.0,1.0,0.0
1110,59.0,160.0,150.0,3.0,0.0
1111,60.0,241.0,150.0,3.0,0.0
1112,50.0,69.0,240.0,4.0,0.0
1113,65.0,10.0,300.0,1.0,0.0
1114,59.0,160.0,150.0,3.0,0.0
1115,60.0,80.0,150.0,3.0,0.0
1116,50.0,79.0,240.0,4.0,0.0
1117,65.0,45.0,90.0,1.0,0.0
1118,67.0,75.0,60.0,1.0,0.0
1119,65.0,30.0,90.0,1.0,0.0
1120,67.0,11.0,60.0,1.0,0.0
1121,59.0,0.0,150.0,3.0,0.0
1122,65.0,80.0,90.0,1.0,0.0
1123,60.0,241.0,150.0,3.0,0.0
1124,64.0,80.0,90.0,1.0,0.0
1125,65.0,0.0,90.0,1.0,0.0
1126,67.0,10.0,300.0,1.0,0.0
1127,52.0,69.0,240.0,4.0,0.0
1128,58.0,160.0,150.0,3.0,0.0
1129,60.0,241.0,150.0,3.0,0.0
1130,52.0,69.0,240.0,4.0,0.0
1131,67.0,10.0,300.0,1.0,0.0
1132,58.0,160.0,150.0,3.0,0.0
1133,60.0,80.0,150.0,3.0,0.0
1134,67.0,60.0,90.0,1.0,0.0
1135,52.0,79.0,240.0,4.0,0.0
1136,69.0,60.0,90.0,1.0,0.0
1137,67.0,40.0,90.0,1.0,0.0
1138,58.0,80.0,150.0,3.0,0.0
1139,69.0,1.0,90.0,1.0,0.0
1140,67.0,0.0,90.0,1.0,0.0
1141,65.0,40.0,90.0,1.0,0.0
1142,60.0,40.0,120.0,3.0,0.0
1143,67.0,241.0,90.0,1.0,0.0
1144,69.0,10.0,300.0,1.0,0.0
1145,53.0,69.0,240.0,4.0,0.0
1146,57.0,160.0,150.0,3.0,0.0
1147,60.0,241.0,150.0,3.0,0.0
1148,69.0,10.0,300.0,1.0,0.0
1149,53.0,69.0,240.0,4.0,0.0
1150,57.0,160.0,150.0,3.0,0.0
1151,60.0,120.0,150.0,3.0,0.0
1152,67.0,55.0,420.0,2.0,0.0
1153,46.0,79.0,240.0,4.0,0.0
1154,72.0,121.0,120.0,1.0,0.0
1155,70.0,0.0,300.0,1.0,0.0
1156,50.0,105.0,150.0,3.0,0.0
1157,55.0,241.0,150.0,3.0,0.0
1158,69.0,0.0,960.0,1.0,0.0
1159,65.0,241.0,960.0,2.0,0.0
1160,48.0,79.0,240.0,4.0,0.0
1161,53.0,160.0,150.0,3.0,0.0
1162,57.0,241.0,150.0,3.0,0.0
1163,48.0,79.0,240.0,4.0,0.0
1164,53.0,160.0,150.0,3.0,0.0
1165,57.0,0.0,150.0,3.0,0.0
1166,48.0,79.0,240.0,4.0,0.0
1167,67.0,0.0,390.0,1.0,0.0
1168,64.0,55.0,390.0,2.0,0.0
1169,52.0,65.0,150.0,3.0,0.0
1170,55.0,200.0,120.0,3.0,0.0
1171,69.0,150.0,150.0,1.0,0.0
1172,41.0,10.0,300.0,5.0,0.0
1173,65.0,160.0,150.0,3.0,0.0
1174,60.0,60.0,150.0,3.0,0.0
1175,69.0,160.0,150.0,1.0,0.0
1176,52.0,100.0,60.0,5.0,0.0
1177,53.0,160.0,270.0,5.0,0.0
1178,65.0,0.0,150.0,3.0,0.0
1179,60.0,160.0,150.0,3.0,0.0
1180,70.0,160.0,150.0,1.0,0.0
1181,67.0,160.0,150.0,3.0,0.0
1182,60.0,160.0,150.0,3.0,0.0
1183,72.0,150.0,150.0,1.0,0.0
1184,41.0,10.0,300.0,5.0,0.0
1185,69.0,160.0,150.0,3.0,0.0
1186,60.0,60.0,150.0,3.0,0.0
1187,52.0,100.0,60.0,5.0,0.0
1188,72.0,155.0,150.0,3.0,0.0
1189,53.0,5.0,240.0,5.0,0.0
1190,69.0,125.0,150.0,3.0,0.0
1191,60.0,155.0,120.0,3.0,0.0
1192,74.0,120.0,120.0,1.0,0.0
1193,72.0,120.0,120.0,1.0,0.0
1194,70.0,95.0,120.0,1.0,0.0
1195,69.0,185.0,90.0,1.0,0.0
1196,67.0,150.0,150.0,1.0,0.0
1197,36.0,10.0,300.0,5.0,0.0
1198,64.0,160.0,150.0,3.0,0.0
1199,60.0,60.0,150.0,3.0,0.0
1200,67.0,160.0,150.0,1.0,0.0
1201,47.0,100.0,60.0,5.0,0.0
1202,48.0,160.0,270.0,5.0,0.0
1203,64.0,0.0,150.0,3.0,0.0
1204,60.0,160.0,150.0,3.0,0.0
1205,69.0,160.0,150.0,1.0,0.0
1206,65.0,160.0,150.0,3.0,0.0
1207,60.0,160.0,150.0,3.0,0.0
1208,70.0,150.0,150.0,1.0,0.0
1209,36.0,10.0,300.0,5.0,0.0
1210,67.0,160.0,150.0,3.0,0.0
1211,60.0,60.0,150.0,3.0,0.0
1212,70.0,160.0,150.0,3.0,0.0
1213,47.0,100.0,60.0,5.0,0.0
1214,48.0,0.0,270.0,5.0,0.0
1215,67.0,125.0,150.0,3.0,0.0
1216,60.0,155.0,120.0,3.0,0.0
1217,72.0,120.0,120.0,1.0,0.0
1218,70.0,120.0,120.0,1.0,0.0
1219,69.0,95.0,120.0,1.0,0.0
1220,67.0,185.0,90.0,1.0,0.0
1221,38.0,10.0,300.0,5.0,0.0
1222,65.0,150.0,150.0,1.0,0.0
1223,60.0,155.0,150.0,3.0,0.0
1224,57.0,80.0,150.0,3.0,0.0
1225,65.0,160.0,150.0,1.0,0.0
1226,49.0,85.0,60.0,5.0,0.0
1227,50.0,160.0,270.0,5.0,0.0
1228,60.0,0.0,150.0,3.0,0.0
1229,57.0,75.0,150.0,3.0,0.0
1230,67.0,160.0,150.0,1.0,0.0
1231,51.0,85.0,60.0,5.0,0.0
1232,52.0,0.0,270.0,5.0,0.0
1233,60.0,125.0,150.0,3.0,0.0
1234,58.0,195.0,120.0,3.0,0.0
1235,69.0,150.0,150.0,1.0,0.0
1236,41.0,10.0,300.0,5.0,0.0
1237,65.0,160.0,150.0,3.0,0.0
1238,60.0,75.0,150.0,3.0,0.0
1239,69.0,160.0,150.0,1.0,0.0
1240,52.0,85.0,60.0,5.0,0.0
1241,53.0,155.0,270.0,5.0,0.0
1242,65.0,5.0,150.0,3.0,0.0
1243,60.0,75.0,150.0,3.0,0.0
1244,45.0,85.0,60.0,5.0,0.0
1245,70.0,150.0,150.0,1.0,0.0
1246,46.0,10.0,240.0,5.0,0.0
1247,67.0,120.0,150.0,3.0,0.0
1248,62.0,200.0,120.0,3.0,0.0
1249,69.0,150.0,150.0,1.0,0.0
1250,36.0,10.0,300.0,5.0,0.0
1251,65.0,160.0,150.0,3.0,0.0
1252,60.0,80.0,150.0,3.0,0.0
1253,47.0,80.0,90.0,5.0,0.0
1254,69.0,160.0,150.0,1.0,0.0
1255,48.0,0.0,270.0,5.0,0.0
1256,65.0,160.0,150.0,3.0,0.0
1257,60.0,80.0,150.0,3.0,0.0
1258,67.0,160.0,150.0,1.0,0.0
1259,47.0,80.0,90.0,5.0,0.0
1260,48.0,155.0,270.0,5.0,0.0
1261,64.0,5.0,150.0,3.0,0.0
1262,58.0,160.0,150.0,3.0,0.0
1263,65.0,150.0,150.0,1.0,0.0
1264,29.0,10.0,300.0,5.0,0.0
1265,60.0,160.0,150.0,1.0,0.0
1266,57.0,70.0,150.0,1.0,0.0
1267,53.0,881.0,330.0,1.0,0.0
1268,40.0,245.0,60.0,5.0,0.0
1269,41.0,5.0,240.0,5.0,0.0
1270,72.0,10.0,300.0,1.0,0.0
1271,53.0,69.0,240.0,4.0,0.0
1272,57.0,160.0,150.0,3.0,0.0
1273,60.0,241.0,150.0,3.0,0.0
1274,53.0,69.0,240.0,4.0,0.0
1275,70.0,10.0,300.0,1.0,0.0
1276,55.0,160.0,150.0,3.0,0.0
1277,58.0,241.0,150.0,3.0,0.0
1278,53.0,69.0,240.0,4.0,0.0
1279,72.0,10.0,300.0,1.0,0.0
1280,57.0,160.0,150.0,3.0,0.0
1281,60.0,241.0,150.0,3.0,0.0
1282,74.0,10.0,300.0,1.0,0.0
1283,53.0,69.0,240.0,4.0,0.0
1284,58.0,160.0,150.0,3.0,0.0
1285,62.0,241.0,150.0,3.0,0.0
1286,53.0,79.0,240.0,4.0,0.0
1287,58.0,160.0,150.0,3.0,0.0
1288,62.0,80.0,150.0,3.0,0.0
1289,74.0,80.0,90.0,1.0,0.0
1290,53.0,79.0,240.0,4.0,0.0
1291,76.0,80.0,90.0,1.0,0.0
1292,58.0,0.0,150.0,3.0,0.0
1293,74.0,1.0,90.0,1.0,0.0
1294,72.0,80.0,90.0,1.0,0.0
1295,62.0,45.0,120.0,3.0,0.0
1296,74.0,35.0,90.0,1.0,0.0
1297,76.0,241.0,90.0,1.0,0.0
1298,77.0,10.0,300.0,1.0,0.0
1299,53.0,69.0,240.0,4.0,0.0
1300,62.0,160.0,150.0,3.0,0.0
1301,65.0,241.0,150.0,3.0,0.0
1302,76.0,10.0,300.0,1.0,0.0
1303,53.0,69.0,240.0,4.0,0.0
1304,60.0,160.0,150.0,3.0,0.0
1305,64.0,241.0,150.0,3.0,0.0
1306,53.0,69.0,240.0,4.0,0.0
1307,74.0,10.0,300.0,1.0,0.0
1308,58.0,160.0,150.0,3.0,0.0
1309,62.0,241.0,150.0,3.0,0.0
1310,53.0,69.0,240.0,4.0,0.0
1311,72.0,10.0,300.0,1.0,0.0
1312,57.0,160.0,150.0,3.0,0.0
1313,60.0,241.0,150.0,3.0,0.0
1314,53.0,79.0,240.0,4.0,0.0
1315,57.0,160.0,150.0,3.0,0.0
1316,60.0,80.0,150.0,3.0,0.0
1317,53.0,79.0,240.0,4.0,0.0
1318,69.0,80.0,90.0,1.0,0.0
1319,70.0,80.0,90.0,1.0,0.0
1320,69.0,1.0,90.0,1.0,0.0
1321,57.0,0.0,150.0,3.0,0.0
1322,67.0,80.0,90.0,1.0,0.0
1323,69.0,40.0,90.0,1.0,0.0
1324,60.0,40.0,120.0,3.0,0.0
1325,70.0,241.0,90.0,1.0,0.0
1326,53.0,79.0,240.0,4.0,0.0
1327,72.0,0.0,480.0,1.0,0.0
1328,57.0,160.0,150.0,3.0,0.0
1329,60.0,241.0,150.0,3.0,0.0
1330,69.0,95.0,390.0,1.0,0.0
1331,53.0,79.0,240.0,4.0,0.0
1332,57.0,65.0,150.0,3.0,0.0
1333,60.0,241.0,150.0,3.0,0.0
1334,53.0,79.0,240.0,4.0,0.0
1335,57.0,125.0,150.0,3.0,0.0
1336,60.0,10.0,120.0,3.0,0.0
1337,65.0,266.0,90.0,1.0,0.0
1338,55.0,79.0,240.0,4.0,0.0
1339,72.0,241.0,480.0,1.0,0.0
1340,58.0,160.0,150.0,3.0,0.0
1341,60.0,0.0,150.0,3.0,0.0
1342,55.0,79.0,240.0,4.0,0.0
1343,70.0,95.0,390.0,1.0,0.0
1344,58.0,65.0,150.0,3.0,0.0
1345,60.0,241.0,150.0,3.0,0.0
1346,55.0,79.0,240.0,4.0,0.0
1347,58.0,120.0,150.0,3.0,0.0
1348,60.0,15.0,120.0,3.0,0.0
1349,67.0,266.0,90.0,1.0,0.0
1350,72.0,241.0,480.0,1.0,0.0
1351,53.0,79.0,240.0,4.0,0.0
1352,57.0,160.0,150.0,3.0,0.0
1353,60.0,0.0,150.0,3.0,0.0
1354,53.0,79.0,240.0,4.0,0.0
1355,69.0,95.0,390.0,1.0,0.0
1356,57.0,65.0,150.0,3.0,0.0
1357,60.0,241.0,150.0,3.0,0.0
1358,50.0,79.0,240.0,4.0,0.0
1359,65.0,55.0,390.0,1.0,0.0
1360,53.0,65.0,150.0,3.0,0.0
1361,59.0,1000.0,120.0,3.0,0.0
1362,65.0,380.0,960.0,2.0,0.0
1363,69.0,0.0,960.0,1.0,0.0
1364,48.0,331.0,1350.0,4.0,0.0
1365,60.0,5.0,1350.0,3.0,0.0
1366,67.0,5.0,390.0,1.0,0.0
1367,64.0,0.0,390.0,2.0,0.0
1368,69.0,10.0,300.0,1.0,0.0
1369,53.0,69.0,240.0,4.0,0.0
1370,59.0,160.0,150.0,3.0,0.0
1371,60.0,241.0,150.0,3.0,0.0
1372,69.0,10.0,300.0,1.0,0.0
1373,53.0,69.0,240.0,4.0,0.0
1374,59.0,160.0,150.0,3.0,0.0
1375,60.0,80.0,150.0,3.0,0.0
1376,70.0,60.0,90.0,1.0,0.0
1377,55.0,79.0,240.0,4.0,0.0
1378,72.0,40.0,90.0,1.0,0.0
1379,70.0,60.0,60.0,1.0,0.0
1380,72.0,1.0,90.0,1.0,0.0
1381,59.0,0.0,150.0,3.0,0.0
1382,70.0,80.0,90.0,1.0,0.0
1383,60.0,0.0,150.0,3.0,0.0
1384,69.0,80.0,90.0,1.0,0.0
1385,70.0,241.0,90.0,1.0,0.0
1386,57.0,79.0,240.0,4.0,0.0
1387,72.0,95.0,390.0,1.0,0.0
1388,59.0,65.0,150.0,3.0,0.0
1389,60.0,241.0,150.0,3.0,0.0
1390,57.0,79.0,240.0,4.0,0.0
1391,59.0,160.0,150.0,3.0,0.0
1392,60.0,120.0,150.0,3.0,0.0
1393,74.0,120.0,120.0,1.0,0.0
1394,53.0,79.0,240.0,4.0,0.0
1395,72.0,1.0,120.0,1.0,0.0
1396,59.0,40.0,150.0,3.0,0.0
1397,70.0,85.0,120.0,1.0,0.0
1398,60.0,35.0,120.0,3.0,0.0
1399,69.0,241.0,120.0,1.0,0.0
1400,67.0,10.0,300.0,1.0,0.0
1401,52.0,69.0,240.0,4.0,0.0
1402,59.0,160.0,150.0,3.0,0.0
1403,60.0,241.0,150.0,3.0,0.0
1404,67.0,10.0,300.0,1.0,0.0
1405,52.0,69.0,240.0,4.0,0.0
1406,59.0,160.0,150.0,3.0,0.0
1407,60.0,80.0,150.0,3.0,0.0
1408,69.0,60.0,90.0,1.0,0.0
1409,53.0,79.0,240.0,4.0,0.0
1410,70.0,40.0,90.0,1.0,0.0
1411,69.0,60.0,60.0,1.0,0.0
1412,70.0,1.0,90.0,1.0,0.0
1413,59.0,0.0,150.0,3.0,0.0
1414,69.0,80.0,90.0,1.0,0.0
1415,60.0,0.0,150.0,3.0,0.0
1416,67.0,80.0,90.0,1.0,0.0
1417,69.0,241.0,90.0,1.0,0.0
1418,70.0,95.0,390.0,1.0,0.0
1419,55.0,79.0,240.0,4.0,0.0
1420,59.0,65.0,150.0,3.0,0.0
1421,60.0,241.0,150.0,3.0,0.0
1422,55.0,79.0,240.0,4.0,0.0
1423,59.0,160.0,150.0,3.0,0.0
1424,60.0,120.0,150.0,3.0,0.0
1425,52.0,79.0,240.0,4.0,0.0
1426,72.0,120.0,120.0,1.0,0.0
1427,70.0,1.0,120.0,1.0,0.0
1428,59.0,40.0,150.0,3.0,0.0
1429,69.0,80.0,120.0,1.0,0.0
1430,60.0,40.0,120.0,3.0,0.0
1431,67.0,241.0,120.0,1.0,0.0
1432,65.0,10.0,300.0,1.0,0.0
1433,50.0,69.0,240.0,4.0,0.0
1434,59.0,160.0,150.0,3.0,0.0
1435,60.0,241.0,150.0,3.0,0.0
1436,50.0,69.0,240.0,4.0,0.0
1437,65.0,10.0,300.0,1.0,0.0
1438,59.0,160.0,150.0,3.0,0.0
1439,60.0,80.0,150.0,3.0,0.0
1440,52.0,79.0,240.0,4.0,0.0
1441,67.0,60.0,90.0,1.0,0.0
1442,69.0,40.0,90.0,1.0,0.0
1443,67.0,60.0,60.0,1.0,0.0
1444,58.0,80.0,150.0,3.0,0.0
1445,69.0,1.0,90.0,1.0,0.0
1446,67.0,0.0,90.0,1.0,0.0
1447,60.0,0.0,150.0,3.0,0.0
1448,65.0,80.0,90.0,1.0,0.0
1449,67.0,241.0,90.0,1.0,0.0
1450,69.0,10.0,300.0,1.0,0.0
1451,53.0,69.0,240.0,4.0,0.0
1452,57.0,160.0,150.0,3.0,0.0
1453,60.0,241.0,150.0,3.0,0.0
1454,69.0,10.0,300.0,1.0,0.0
1455,53.0,69.0,240.0,4.0,0.0
1456,57.0,160.0,150.0,3.0,0.0
1457,60.0,80.0,150.0,3.0,0.0
1458,70.0,60.0,90.0,1.0,0.0
1459,46.0,79.0,240.0,4.0,0.0
1460,72.0,40.0,90.0,1.0,0.0
1461,70.0,60.0,60.0,1.0,0.0
1462,50.0,80.0,150.0,3.0,0.0
1463,72.0,1.0,90.0,1.0,0.0
1464,70.0,0.0,90.0,1.0,0.0
1465,55.0,40.0,120.0,3.0,0.0
1466,69.0,40.0,90.0,1.0,0.0
1467,70.0,241.0,90.0,1.0,0.0
1468,48.0,79.0,240.0,4.0,0.0
1469,69.0,95.0,390.0,1.0,0.0
1470,53.0,65.0,150.0,3.0,0.0
1471,57.0,241.0,150.0,3.0,0.0
1472,48.0,79.0,240.0,4.0,0.0
1473,69.0,95.0,390.0,1.0,0.0
1474,53.0,65.0,150.0,3.0,0.0
1475,57.0,80.0,150.0,3.0,0.0
1476,48.0,79.0,240.0,4.0,0.0
1477,69.0,80.0,90.0,1.0,0.0
1478,67.0,80.0,90.0,1.0,0.0
1479,69.0,1.0,90.0,1.0,0.0
1480,52.0,0.0,150.0,3.0,0.0
1481,67.0,80.0,90.0,1.0,0.0
1482,58.0,5.0,120.0,3.0,0.0
1483,65.0,45.0,90.0,1.0,0.0
1484,67.0,510.0,60.0,1.0,0.0
1485,64.0,385.0,960.0,2.0,0.0
1486,67.0,480.0,480.0,1.0,0.0
1487,60.0,0.0,1350.0,3.0,0.0
1488,58.0,0.0,960.0,3.0,0.0
1489,53.0,0.0,1350.0,4.0,0.0
1490,68.0,0.0,480.0,1.0,0.0
1491,57.0,0.0,390.0,3.0,0.0
1492,69.0,0.0,390.0,1.0,0.0
1493,65.0,255.0,390.0,2.0,0.0
1494,41.0,95.0,390.0,5.0,0.0
1495,69.0,160.0,150.0,1.0,0.0
1496,65.0,65.0,150.0,3.0,0.0
1497,60.0,75.0,150.0,3.0,0.0
1498,52.0,85.0,60.0,5.0,0.0
1499,69.0,160.0,150.0,1.0,0.0
1500,53.0,115.0,300.0,5.0,0.0
1501,65.0,45.0,150.0,3.0,0.0
1502,60.0,75.0,150.0,3.0,0.0
1503,70.0,160.0,150.0,1.0,0.0
1504,54.0,85.0,60.0,5.0,0.0
1505,55.0,70.0,300.0,5.0,0.0
1506,67.0,45.0,150.0,3.0,0.0
1507,60.0,205.0,120.0,3.0,0.0
1508,72.0,160.0,150.0,1.0,0.0
1509,45.0,95.0,390.0,5.0,0.0
1510,69.0,65.0,150.0,3.0,0.0
1511,65.0,75.0,150.0,3.0,0.0
1512,56.0,85.0,60.0,5.0,0.0
1513,72.0,160.0,150.0,1.0,0.0
1514,57.0,115.0,300.0,5.0,0.0
1515,69.0,45.0,150.0,3.0,0.0
1516,65.0,70.0,150.0,3.0,0.0
1517,74.0,160.0,150.0,1.0,0.0
1518,57.0,90.0,60.0,5.0,0.0
1519,58.0,80.0,300.0,5.0,0.0
1520,67.0,40.0,150.0,3.0,0.0
1521,65.0,200.0,120.0,3.0,0.0
1522,36.0,95.0,390.0,5.0,0.0
1523,69.0,160.0,150.0,1.0,0.0
1524,65.0,65.0,150.0,3.0,0.0
1525,60.0,75.0,150.0,3.0,0.0
1526,69.0,160.0,150.0,1.0,0.0
1527,47.0,85.0,60.0,5.0,0.0
1528,48.0,115.0,300.0,5.0,0.0
1529,65.0,45.0,150.0,3.0,0.0
1530,60.0,80.0,150.0,3.0,0.0
1531,47.0,80.0,90.0,5.0,0.0
1532,67.0,160.0,150.0,1.0,0.0
1533,48.0,120.0,300.0,5.0,0.0
1534,64.0,40.0,150.0,3.0,0.0
1535,58.0,160.0,150.0,3.0,0.0
1536,65.0,160.0,150.0,1.0,0.0
1537,29.0,95.0,390.0,5.0,0.0
1538,60.0,65.0,150.0,1.0,0.0
1539,57.0,75.0,150.0,1.0,0.0
1540,53.0,815.0,390.0,1.0,0.0
1541,40.0,275.0,60.0,5.0,0.0
1542,41.0,35.0,300.0,5.0,0.0
1543,68.0,240.0,240.0,1.0,0.0
1544,53.0,0.0,720.0,5.0,0.0
1545,67.0,0.0,240.0,1.0,0.0
1546,60.0,240.0,240.0,3.0,0.0
1547,65.0,120.0,240.0,1.0,0.0
1548,56.0,120.0,360.0,3.0,0.0
1549,67.0,240.0,240.0,1.0,0.0
1550,60.0,0.0,240.0,3.0,0.0
1551,53.0,120.0,360.0,5.0,0.0
1552,68.0,120.0,240.0,1.0,0.0
1553,70.0,0.0,240.0,1.0,0.0
1554,60.0,240.0,240.0,3.0,0.0
1555,72.0,240.0,240.0,1.0,0.0
1556,53.0,120.0,720.0,5.0,0.0
1557,60.0,0.0,240.0,3.0,0.0
1558,71.0,240.0,240.0,1.0,0.0
1559,56.0,120.0,360.0,3.0,0.0
1560,73.0,0.0,240.0,1.0,0.0
1561,60.0,0.0,240.0,3.0,0.0
1562,72.0,240.0,240.0,1.0,0.0
1563,53.0,70.0,360.0,5.0,0.0
1564,70.0,120.0,240.0,1.0,0.0
1565,68.0,0.0,180.0,1.0,0.0
1566,60.0,290.0,180.0,3.0,0.0
1567,67.0,240.0,240.0,1.0,0.0
1568,48.0,0.0,720.0,5.0,0.0
1569,60.0,0.0,240.0,3.0,0.0
1570,65.0,240.0,240.0,1.0,0.0
1571,64.0,120.0,240.0,1.0,0.0
1572,55.0,120.0,360.0,3.0,0.0
1573,65.0,240.0,240.0,1.0,0.0
1574,60.0,0.0,240.0,3.0,0.0
1575,67.0,120.0,240.0,1.0,0.0
1576,48.0,120.0,360.0,5.0,0.0
1577,68.0,0.0,240.0,1.0,0.0
1578,60.0,240.0,240.0,3.0,0.0
1579,70.0,240.0,240.0,1.0,0.0
1580,48.0,0.0,720.0,5.0,0.0
1581,60.0,0.0,240.0,3.0,0.0
1582,69.0,240.0,240.0,1.0,0.0
1583,55.0,120.0,360.0,3.0,0.0
1584,72.0,120.0,240.0,1.0,0.0
1585,60.0,0.0,240.0,3.0,0.0
1586,70.0,240.0,240.0,1.0,0.0
1587,68.0,120.0,240.0,1.0,0.0
1588,48.0,70.0,360.0,5.0,0.0
1589,67.0,290.0,180.0,1.0,0.0
1590,60.0,0.0,180.0,3.0,0.0
1591,65.0,240.0,240.0,1.0,0.0
1592,53.0,120.0,720.0,5.0,0.0
1593,60.0,240.0,240.0,3.0,0.0
1594,72.0,0.0,240.0,1.0,0.0
1595,71.0,0.0,240.0,1.0,0.0
1596,56.0,120.0,360.0,3.0,0.0
1597,60.0,240.0,240.0,3.0,0.0
1598,72.0,0.0,240.0,1.0,0.0
1599,68.0,120.0,240.0,1.0,0.0
1600,53.0,70.0,360.0,5.0,0.0
1601,65.0,0.0,180.0,1.0,0.0
1602,60.0,290.0,180.0,3.0,0.0
1603,64.0,240.0,240.0,1.0,0.0
1604,55.0,186.0,720.0,5.0,0.0
1605,72.0,0.0,240.0,1.0,0.0
1606,60.0,240.0,240.0,3.0,0.0
1607,73.0,0.0,240.0,1.0,0.0
1608,58.0,54.0,420.0,3.0,0.0
1609,72.0,0.0,240.0,1.0,0.0
1610,60.0,240.0,240.0,3.0,0.0
1611,55.0,70.0,360.0,5.0,0.0
1612,70.0,120.0,240.0,1.0,0.0
1613,67.0,0.0,180.0,1.0,0.0
1614,60.0,290.0,180.0,3.0,0.0
1615,67.0,120.0,240.0,1.0,0.0
1616,56.0,120.0,360.0,5.0,0.0
1617,65.0,0.0,240.0,1.0,0.0
1618,60.0,240.0,240.0,3.0,0.0
1619,64.0,120.0,240.0,1.0,0.0
1620,55.0,120.0,360.0,5.0,0.0
1621,60.0,0.0,240.0,3.0,0.0
1622,65.0,240.0,240.0,1.0,0.0
1623,53.0,70.0,360.0,5.0,0.0
1624,67.0,120.0,240.0,1.0,0.0
1625,60.0,0.0,180.0,3.0,0.0
1626,68.0,530.0,180.0,1.0,0.0
1627,68.0,360.0,960.0,1.0,0.0
1628,65.0,190.0,780.0,2.0,0.0
1629,48.0,0.0,720.0,5.0,0.0
1630,60.0,240.0,240.0,3.0,0.0
1631,59.0,50.0,240.0,3.0,0.0
1632,60.0,0.0,240.0,3.0,0.0
1633,48.0,40.0,360.0,5.0,0.0
1634,67.0,5.0,390.0,1.0,0.0
1635,64.0,315.0,420.0,2.0,0.0
1636,60.0,0.0,150.0,3.0,0.0
1637,80.0,0.0,240.0,1.0,0.0
1638,53.0,0.0,720.0,5.0,0.0
1639,68.0,240.0,240.0,2.0,0.0
1640,60.0,0.0,240.0,3.0,0.0
1641,79.0,0.0,240.0,1.0,0.0
1642,67.0,240.0,240.0,2.0,0.0
1643,77.0,120.0,240.0,1.0,0.0
1644,56.0,120.0,360.0,3.0,0.0
1645,65.0,0.0,240.0,2.0,0.0
1646,60.0,0.0,240.0,3.0,0.0
1647,67.0,240.0,240.0,2.0,0.0
1648,79.0,0.0,240.0,1.0,0.0
1649,68.0,0.0,240.0,2.0,0.0
1650,53.0,120.0,360.0,5.0,0.0
1651,80.0,120.0,240.0,1.0,0.0
1652,60.0,0.0,240.0,3.0,0.0
1653,70.0,0.0,240.0,2.0,0.0
1654,82.0,240.0,240.0,1.0,0.0
1655,84.0,240.0,240.0,1.0,0.0
1656,53.0,0.0,720.0,5.0,0.0
1657,72.0,0.0,240.0,2.0,0.0
1658,71.0,0.0,240.0,2.0,0.0
1659,60.0,0.0,240.0,3.0,0.0
1660,83.0,240.0,240.0,1.0,0.0
1661,56.0,120.0,360.0,3.0,0.0
1662,73.0,120.0,240.0,2.0,0.0
1663,85.0,0.0,240.0,1.0,0.0
1664,84.0,0.0,240.0,1.0,0.0
1665,60.0,0.0,240.0,3.0,0.0
1666,72.0,240.0,240.0,2.0,0.0
1667,53.0,70.0,360.0,5.0,0.0
1668,82.0,0.0,240.0,1.0,0.0
1669,70.0,120.0,240.0,2.0,0.0
1670,60.0,290.0,180.0,3.0,0.0
1671,80.0,0.0,180.0,1.0,0.0
1672,68.0,0.0,180.0,2.0,0.0
1673,79.0,0.0,240.0,1.0,0.0
1674,48.0,0.0,720.0,5.0,0.0
1675,67.0,240.0,240.0,2.0,0.0
1676,60.0,0.0,240.0,3.0,0.0
1677,65.0,0.0,240.0,2.0,0.0
1678,77.0,240.0,240.0,1.0,0.0
1679,55.0,120.0,360.0,3.0,0.0
1680,64.0,0.0,240.0,2.0,0.0
1681,76.0,120.0,240.0,1.0,0.0
1682,60.0,0.0,240.0,3.0,0.0
1683,65.0,0.0,240.0,2.0,0.0
1684,77.0,240.0,240.0,1.0,0.0
1685,67.0,0.0,240.0,2.0,0.0
1686,79.0,120.0,240.0,1.0,0.0
1687,48.0,120.0,360.0,5.0,0.0
1688,60.0,240.0,240.0,3.0,0.0
1689,68.0,0.0,240.0,2.0,0.0
1690,80.0,0.0,240.0,1.0,0.0
1691,70.0,0.0,240.0,2.0,0.0
1692,82.0,240.0,240.0,1.0,0.0
1693,48.0,120.0,720.0,5.0,0.0
1694,69.0,0.0,240.0,2.0,0.0
1695,60.0,0.0,240.0,3.0,0.0
1696,81.0,240.0,240.0,1.0,0.0
1697,55.0,120.0,360.0,3.0,0.0
1698,84.0,0.0,240.0,1.0,0.0
1699,72.0,0.0,240.0,2.0,0.0
1700,70.0,240.0,240.0,2.0,0.0
1701,82.0,0.0,240.0,1.0,0.0
1702,60.0,0.0,240.0,3.0,0.0
1703,80.0,0.0,240.0,1.0,0.0
1704,48.0,70.0,360.0,5.0,0.0
1705,68.0,120.0,240.0,2.0,0.0
1706,79.0,0.0,180.0,1.0,0.0
1707,67.0,290.0,180.0,2.0,0.0
1708,60.0,0.0,180.0,3.0,0.0
1709,53.0,0.0,720.0,5.0,0.0
1710,77.0,0.0,240.0,1.0,0.0
1711,65.0,240.0,240.0,2.0,0.0
1712,76.0,0.0,240.0,1.0,0.0
1713,64.0,240.0,240.0,2.0,0.0
1714,60.0,0.0,240.0,3.0,0.0
1715,77.0,120.0,240.0,1.0,0.0
1716,65.0,0.0,240.0,2.0,0.0
1717,56.0,120.0,360.0,3.0,0.0
1718,68.0,0.0,240.0,2.0,0.0
1719,80.0,0.0,240.0,1.0,0.0
1720,60.0,240.0,240.0,3.0,0.0
1721,79.0,120.0,240.0,1.0,0.0
1722,52.0,70.0,360.0,5.0,0.0
1723,67.0,0.0,240.0,2.0,0.0
1724,70.0,5.0,180.0,2.0,0.0
1725,82.0,285.0,180.0,1.0,0.0
1726,60.0,0.0,180.0,3.0,0.0
1727,53.0,120.0,720.0,5.0,0.0
1728,80.0,0.0,240.0,1.0,0.0
1729,68.0,240.0,240.0,2.0,0.0
1730,60.0,240.0,240.0,3.0,0.0
1731,67.0,0.0,240.0,2.0,0.0
1732,79.0,0.0,240.0,1.0,0.0
1733,68.0,0.0,240.0,2.0,0.0
1734,80.0,0.0,240.0,1.0,0.0
1735,56.0,120.0,360.0,3.0,0.0
1736,84.0,0.0,240.0,1.0,0.0
1737,60.0,240.0,240.0,3.0,0.0
1738,72.0,0.0,240.0,2.0,0.0
1739,70.0,120.0,240.0,2.0,0.0
1740,82.0,0.0,240.0,1.0,0.0
1741,49.0,70.0,360.0,5.0,0.0
1742,73.0,0.0,180.0,2.0,0.0
1743,58.0,290.0,180.0,3.0,0.0
1744,85.0,0.0,180.0,1.0,0.0
1745,72.0,240.0,240.0,2.0,0.0
1746,84.0,0.0,240.0,1.0,0.0
1747,48.0,120.0,720.0,5.0,0.0
1748,56.0,0.0,240.0,3.0,0.0
1749,83.0,0.0,240.0,1.0,0.0
1750,71.0,190.0,240.0,2.0,0.0
1751,84.0,0.0,180.0,1.0,0.0
1752,53.0,120.0,360.0,3.0,0.0
1753,72.0,50.0,180.0,2.0,0.0
1754,60.0,0.0,240.0,2.0,0.0
1755,56.0,0.0,240.0,3.0,0.0
1756,72.0,240.0,240.0,1.0,0.0
1757,74.0,0.0,240.0,1.0,0.0
1758,62.0,120.0,240.0,2.0,0.0
1759,48.0,70.0,360.0,5.0,0.0
1760,76.0,170.0,180.0,1.0,0.0
1761,55.0,0.0,180.0,3.0,0.0
1762,64.0,0.0,180.0,2.0,0.0
1763,65.0,0.0,960.0,2.0,0.0
1764,77.0,305.0,960.0,1.0,0.0
1765,44.0,240.0,120.0,5.0,0.0
1766,48.0,240.0,120.0,5.0,0.0
1767,53.0,240.0,120.0,5.0,0.0
1768,56.0,120.0,120.0,5.0,0.0
1769,41.0,415.0,300.0,5.0,0.0
1770,68.0,240.0,240.0,1.0,0.0
1771,53.0,120.0,720.0,5.0,0.0
1772,67.0,0.0,240.0,1.0,0.0
1773,60.0,240.0,240.0,3.0,0.0
1774,65.0,0.0,240.0,1.0,0.0
1775,56.0,120.0,360.0,3.0,0.0
1776,67.0,0.0,240.0,1.0,0.0
1777,60.0,240.0,240.0,3.0,0.0
1778,68.0,120.0,240.0,1.0,0.0
1779,53.0,120.0,360.0,5.0,0.0
1780,60.0,0.0,240.0,3.0,0.0
1781,70.0,240.0,240.0,1.0,0.0
1782,72.0,240.0,240.0,1.0,0.0
1783,53.0,120.0,720.0,5.0,0.0
1784,71.0,240.0,240.0,1.0,0.0
1785,60.0,0.0,240.0,3.0,0.0
1786,73.0,0.0,240.0,1.0,0.0
1787,56.0,120.0,360.0,3.0,0.0
1788,72.0,240.0,240.0,1.0,0.0
1789,60.0,0.0,240.0,3.0,0.0
1790,70.0,120.0,240.0,1.0,0.0
1791,53.0,70.0,360.0,5.0,0.0
1792,60.0,0.0,180.0,3.0,0.0
1793,68.0,290.0,180.0,1.0,0.0
1794,67.0,240.0,240.0,1.0,0.0
1795,48.0,120.0,720.0,5.0,0.0
1796,65.0,0.0,240.0,1.0,0.0
1797,60.0,240.0,240.0,3.0,0.0
1798,55.0,120.0,360.0,3.0,0.0
1799,64.0,0.0,240.0,1.0,0.0
1800,60.0,0.0,240.0,3.0,0.0
1801,65.0,240.0,240.0,1.0,0.0
1802,48.0,120.0,360.0,5.0,0.0
1803,67.0,120.0,240.0,1.0,0.0
1804,68.0,0.0,240.0,1.0,0.0
1805,60.0,240.0,240.0,3.0,0.0
1806,48.0,0.0,720.0,5.0,0.0
1807,70.0,240.0,240.0,1.0,0.0
1808,69.0,0.0,240.0,1.0,0.0
1809,60.0,240.0,240.0,3.0,0.0
1810,72.0,120.0,240.0,1.0,0.0
1811,55.0,120.0,360.0,3.0,0.0
1812,70.0,0.0,240.0,1.0,0.0
1813,60.0,240.0,240.0,3.0,0.0
1814,68.0,120.0,240.0,1.0,0.0
1815,48.0,70.0,360.0,5.0,0.0
1816,60.0,290.0,180.0,3.0,0.0
1817,67.0,0.0,180.0,1.0,0.0
1818,53.0,0.0,720.0,5.0,0.0
1819,65.0,240.0,240.0,1.0,0.0
1820,72.0,240.0,240.0,1.0,0.0
1821,60.0,0.0,240.0,3.0,0.0
1822,56.0,120.0,360.0,3.0,0.0
1823,71.0,120.0,240.0,1.0,0.0
1824,60.0,0.0,240.0,3.0,0.0
1825,72.0,240.0,240.0,1.0,0.0
1826,53.0,70.0,360.0,5.0,0.0
1827,68.0,120.0,240.0,1.0,0.0
1828,60.0,0.0,180.0,3.0,0.0
1829,65.0,290.0,180.0,1.0,0.0
1830,55.0,186.0,720.0,5.0,0.0
1831,64.0,240.0,240.0,1.0,0.0
1832,72.0,240.0,240.0,1.0,0.0
1833,60.0,0.0,240.0,3.0,0.0
1834,58.0,54.0,420.0,3.0,0.0
1835,73.0,0.0,240.0,1.0,0.0
1836,60.0,240.0,240.0,3.0,0.0
1837,72.0,0.0,240.0,1.0,0.0
1838,70.0,120.0,240.0,1.0,0.0
1839,55.0,70.0,360.0,5.0,0.0
1840,67.0,0.0,180.0,1.0,0.0
1841,60.0,290.0,180.0,3.0,0.0
1842,56.0,120.0,360.0,5.0,0.0
1843,67.0,120.0,240.0,1.0,0.0
1844,65.0,240.0,240.0,1.0,0.0
1845,60.0,0.0,240.0,3.0,0.0
1846,64.0,120.0,240.0,1.0,0.0
1847,55.0,120.0,360.0,5.0,0.0
1848,60.0,0.0,240.0,3.0,0.0
1849,65.0,240.0,240.0,1.0,0.0
1850,67.0,120.0,240.0,1.0,0.0
1851,53.0,70.0,360.0,5.0,0.0
1852,60.0,0.0,180.0,3.0,0.0
1853,68.0,530.0,180.0,1.0,0.0
1854,48.0,50.0,720.0,5.0,0.0
1855,68.0,0.0,960.0,1.0,0.0
1856,65.0,190.0,780.0,2.0,0.0
1857,60.0,240.0,240.0,3.0,0.0
1858,59.0,0.0,240.0,3.0,0.0
1859,60.0,360.0,240.0,3.0,0.0
1860,48.0,40.0,360.0,5.0,0.0
1861,64.0,315.0,420.0,2.0,0.0
1862,67.0,0.0,390.0,1.0,0.0
1863,60.0,5.0,150.0,3.0,0.0
1864,53.0,120.0,720.0,5.0,0.0
1865,68.0,0.0,240.0,2.0,0.0
1866,80.0,240.0,240.0,1.0,0.0
1867,60.0,240.0,240.0,3.0,0.0
1868,79.0,0.0,240.0,1.0,0.0
1869,67.0,0.0,240.0,2.0,0.0
1870,65.0,0.0,240.0,2.0,0.0
1871,77.0,0.0,240.0,1.0,0.0
1872,56.0,120.0,360.0,3.0,0.0
1873,60.0,0.0,240.0,3.0,0.0
1874,67.0,240.0,240.0,2.0,0.0
1875,79.0,0.0,240.0,1.0,0.0
1876,80.0,0.0,240.0,1.0,0.0
1877,53.0,120.0,360.0,5.0,0.0
1878,68.0,120.0,240.0,2.0,0.0
1879,70.0,0.0,240.0,2.0,0.0
1880,60.0,0.0,240.0,3.0,0.0
1881,82.0,240.0,240.0,1.0,0.0
1882,84.0,0.0,240.0,1.0,0.0
1883,72.0,240.0,240.0,2.0,0.0
1884,53.0,120.0,720.0,5.0,0.0
1885,60.0,240.0,240.0,3.0,0.0
1886,71.0,0.0,240.0,2.0,0.0
1887,83.0,0.0,240.0,1.0,0.0
1888,85.0,0.0,240.0,1.0,0.0
1889,56.0,120.0,360.0,3.0,0.0
1890,73.0,0.0,240.0,2.0,0.0
1891,72.0,0.0,240.0,2.0,0.0
1892,60.0,240.0,240.0,3.0,0.0
1893,84.0,0.0,240.0,1.0,0.0
1894,82.0,0.0,240.0,1.0,0.0
1895,70.0,120.0,240.0,2.0,0.0
1896,53.0,70.0,360.0,5.0,0.0
1897,80.0,290.0,180.0,1.0,0.0
1898,60.0,0.0,180.0,3.0,0.0
1899,68.0,0.0,180.0,2.0,0.0
1900,48.0,0.0,720.0,5.0,0.0
1901,67.0,240.0,240.0,2.0,0.0
1902,79.0,0.0,240.0,1.0,0.0
1903,77.0,0.0,240.0,1.0,0.0
1904,60.0,240.0,240.0,3.0,0.0
1905,65.0,0.0,240.0,2.0,0.0
1906,64.0,0.0,240.0,2.0,0.0
1907,76.0,120.0,240.0,1.0,0.0
1908,55.0,120.0,360.0,3.0,0.0
1909,65.0,240.0,240.0,2.0,0.0
1910,77.0,0.0,240.0,1.0,0.0
1911,60.0,0.0,240.0,3.0,0.0
1912,67.0,120.0,240.0,2.0,0.0
1913,79.0,0.0,240.0,1.0,0.0
1914,48.0,120.0,360.0,5.0,0.0
1915,68.0,0.0,240.0,2.0,0.0
1916,80.0,0.0,240.0,1.0,0.0
1917,60.0,240.0,240.0,3.0,0.0
1918,82.0,0.0,240.0,1.0,0.0
1919,48.0,0.0,720.0,5.0,0.0
1920,70.0,240.0,240.0,2.0,0.0
1921,81.0,240.0,240.0,1.0,0.0
1922,69.0,0.0,240.0,2.0,0.0
1923,60.0,0.0,240.0,3.0,0.0
1924,84.0,0.0,240.0,1.0,0.0
1925,55.0,120.0,360.0,3.0,0.0
1926,72.0,120.0,240.0,2.0,0.0
1927,60.0,0.0,240.0,3.0,0.0
1928,70.0,240.0,240.0,2.0,0.0
1929,82.0,0.0,240.0,1.0,0.0
1930,48.0,70.0,360.0,5.0,0.0
1931,80.0,120.0,240.0,1.0,0.0
1932,68.0,0.0,240.0,2.0,0.0
1933,67.0,0.0,180.0,2.0,0.0
1934,60.0,0.0,180.0,3.0,0.0
1935,79.0,290.0,180.0,1.0,0.0
1936,77.0,240.0,240.0,1.0,0.0
1937,53.0,0.0,720.0,5.0,0.0
1938,65.0,0.0,240.0,2.0,0.0
1939,64.0,240.0,240.0,2.0,0.0
1940,60.0,0.0,240.0,3.0,0.0
1941,76.0,0.0,240.0,1.0,0.0
1942,77.0,0.0,240.0,1.0,0.0
1943,65.0,120.0,240.0,2.0,0.0
1944,56.0,120.0,360.0,3.0,0.0
1945,80.0,0.0,240.0,1.0,0.0
1946,60.0,0.0,240.0,3.0,0.0
1947,68.0,240.0,240.0,2.0,0.0
1948,79.0,0.0,240.0,1.0,0.0
1949,67.0,120.0,240.0,2.0,0.0
1950,52.0,70.0,360.0,5.0,0.0
1951,82.0,285.0,180.0,1.0,0.0
1952,70.0,5.0,180.0,2.0,0.0
1953,60.0,0.0,180.0,3.0,0.0
1954,68.0,0.0,240.0,2.0,0.0
1955,80.0,240.0,240.0,1.0,0.0
1956,53.0,0.0,720.0,5.0,0.0
1957,60.0,0.0,240.0,3.0,0.0
1958,67.0,0.0,240.0,2.0,0.0
1959,79.0,240.0,240.0,1.0,0.0
1960,56.0,120.0,360.0,3.0,0.0
1961,80.0,120.0,240.0,1.0,0.0
1962,68.0,0.0,240.0,2.0,0.0
1963,84.0,0.0,240.0,1.0,0.0
1964,72.0,0.0,240.0,2.0,0.0
1965,60.0,240.0,240.0,3.0,0.0
1966,49.0,70.0,360.0,5.0,0.0
1967,70.0,120.0,240.0,2.0,0.0
1968,82.0,0.0,240.0,1.0,0.0
1969,85.0,290.0,180.0,1.0,0.0
1970,73.0,0.0,180.0,2.0,0.0
1971,58.0,0.0,180.0,3.0,0.0
1972,84.0,240.0,240.0,1.0,0.0
1973,72.0,0.0,240.0,2.0,0.0
1974,48.0,120.0,720.0,5.0,0.0
1975,71.0,0.0,240.0,2.0,0.0
1976,83.0,190.0,240.0,1.0,0.0
1977,56.0,0.0,240.0,3.0,0.0
1978,53.0,120.0,360.0,3.0,0.0
1979,84.0,50.0,180.0,1.0,0.0
1980,72.0,0.0,180.0,2.0,0.0
1981,56.0,0.0,240.0,3.0,0.0
1982,60.0,240.0,240.0,2.0,0.0
1983,72.0,0.0,240.0,1.0,0.0
1984,74.0,0.0,240.0,1.0,0.0
1985,62.0,120.0,240.0,2.0,0.0
1986,48.0,70.0,360.0,5.0,0.0
1987,76.0,0.0,180.0,1.0,0.0
1988,64.0,0.0,180.0,2.0,0.0
1989,55.0,170.0,180.0,3.0,0.0
1990,77.0,305.0,960.0,1.0,0.0
1991,65.0,0.0,960.0,2.0,0.0
1992,44.0,240.0,120.0,5.0,0.0
1993,48.0,240.0,120.0,5.0,0.0
1994,53.0,240.0,120.0,5.0,0.0
1995,56.0,120.0,120.0,5.0,0.0
1996,41.0,415.0,300.0,5.0,0.0
1997,53.0,5.0,1380.0,5.0,0.0
1998,56.0,0.0,960.0,4.0,0.0
1999,65.0,240.0,240.0,1.0,0.0
2000,64.0,240.0,240.0,1.0,0.0
2001,65.0,240.0,240.0,1.0,0.0
2002,77.0,240.0,240.0,1.0,0.0
2003,76.0,175.0,240.0,1.0,0.0
2004,57.0,10.0,420.0,4.0,0.0
2005,75.0,290.0,180.0,1.0,0.0
2006,75.0,240.0,240.0,1.0,0.0
2007,53.0,10.0,1380.0,5.0,0.0
2008,58.0,5.0,1380.0,4.0,0.0
2009,73.0,240.0,240.0,1.0,0.0
2010,72.0,240.0,240.0,1.0,0.0
2011,73.0,240.0,240.0,1.0,0.0
2012,72.0,175.0,240.0,1.0,0.0
2013,73.0,290.0,180.0,1.0,0.0
2014,77.0,0.0,240.0,1.0,0.0
2015,53.0,10.0,1380.0,5.0,0.0
2016,61.0,240.0,240.0,4.0,0.0
2017,60.0,240.0,240.0,4.0,0.0
2018,76.0,0.0,240.0,1.0,0.0
2019,61.0,0.0,240.0,4.0,0.0
2020,77.0,240.0,240.0,1.0,0.0
2021,76.0,0.0,240.0,1.0,0.0
2022,60.0,240.0,240.0,4.0,0.0
2023,77.0,0.0,240.0,1.0,0.0
2024,61.0,180.0,240.0,4.0,0.0
2025,73.0,240.0,180.0,1.0,0.0
2026,58.0,0.0,180.0,4.0,0.0
2027,58.0,50.0,180.0,4.0,0.0
2028,53.0,290.0,1380.0,5.0,0.0
2029,73.0,240.0,240.0,1.0,0.0
2030,72.0,0.0,240.0,1.0,0.0
2031,56.0,240.0,240.0,4.0,0.0
2032,71.0,240.0,240.0,1.0,0.0
2033,55.0,0.0,240.0,4.0,0.0
2034,72.0,240.0,240.0,1.0,0.0
2035,56.0,0.0,240.0,4.0,0.0
2036,55.0,0.0,240.0,4.0,0.0
2037,71.0,190.0,240.0,1.0,0.0
2038,56.0,0.0,180.0,4.0,0.0
2039,72.0,0.0,180.0,1.0,0.0
2040,53.0,0.0,1380.0,5.0,0.0
2041,72.0,0.0,240.0,1.0,0.0
2042,56.0,240.0,240.0,4.0,0.0
2043,70.0,0.0,240.0,1.0,0.0
2044,58.0,240.0,240.0,4.0,0.0
2045,68.0,0.0,240.0,1.0,0.0
2046,60.0,240.0,240.0,4.0,0.0
2047,67.0,0.0,240.0,1.0,0.0
2048,58.0,240.0,240.0,4.0,0.0
2049,65.0,185.0,240.0,1.0,0.0
2050,56.0,5.0,420.0,4.0,0.0
2051,72.0,290.0,180.0,1.0,0.0
2052,55.0,0.0,240.0,4.0,0.0
2053,52.0,0.0,240.0,5.0,0.0
2054,73.0,240.0,240.0,1.0,0.0
2055,56.0,0.0,240.0,4.0,0.0
2056,70.0,0.0,240.0,1.0,0.0
2057,53.0,240.0,240.0,5.0,0.0
2058,67.0,0.0,240.0,1.0,0.0
2059,58.0,0.0,240.0,4.0,0.0
2060,55.0,240.0,240.0,5.0,0.0
2061,60.0,0.0,240.0,4.0,0.0
2062,65.0,0.0,240.0,1.0,0.0
2063,56.0,240.0,240.0,5.0,0.0
2064,64.0,190.0,240.0,1.0,0.0
2065,58.0,285.0,420.0,5.0,0.0
2066,61.0,5.0,420.0,4.0,0.0
2067,67.0,0.0,180.0,1.0,0.0
2068,67.0,190.0,240.0,1.0,0.0
2069,60.0,240.0,480.0,4.0,0.0
2070,56.0,0.0,480.0,5.0,0.0
2071,65.0,50.0,180.0,1.0,0.0
2072,68.0,190.0,240.0,1.0,0.0
2073,52.0,0.0,480.0,5.0,0.0
2074,67.0,50.0,180.0,1.0,0.0
2075,70.0,145.0,240.0,1.0,0.0
2076,60.0,240.0,15.0,4.0,0.0
2077,53.0,0.0,390.0,5.0,0.0
2078,68.0,145.0,180.0,1.0,0.0
2079,67.0,60.0,90.0,1.0,0.0
2080,47.0,385.0,960.0,5.0,0.0
2081,65.0,0.0,960.0,2.0,0.0
2082,68.0,90.0,60.0,1.0,0.0
2083,70.0,715.0,90.0,1.0,0.0
2084,68.0,0.0,720.0,1.0,0.0
2085,64.0,335.0,390.0,2.0,0.0
2086,67.0,0.0,390.0,1.0,0.0
2087,48.0,0.0,390.0,5.0,0.0
2088,68.0,240.0,240.0,1.0,0.0
2089,53.0,0.0,720.0,5.0,0.0
2090,67.0,0.0,240.0,1.0,0.0
2091,60.0,240.0,240.0,3.0,0.0
2092,56.0,120.0,360.0,3.0,0.0
2093,65.0,120.0,240.0,1.0,0.0
2094,60.0,240.0,240.0,3.0,0.0
2095,67.0,0.0,240.0,1.0,0.0
2096,53.0,120.0,360.0,5.0,0.0
2097,68.0,120.0,240.0,1.0,0.0
2098,70.0,0.0,240.0,1.0,0.0
2099,60.0,240.0,240.0,3.0,0.0
2100,72.0,240.0,240.0,1.0,0.0
2101,53.0,0.0,720.0,5.0,0.0
2102,71.0,0.0,240.0,1.0,0.0
2103,60.0,240.0,240.0,3.0,0.0
2104,73.0,120.0,240.0,1.0,0.0
2105,56.0,120.0,360.0,3.0,0.0
2106,60.0,240.0,240.0,3.0,0.0
2107,72.0,0.0,240.0,1.0,0.0
2108,53.0,70.0,360.0,5.0,0.0
2109,70.0,120.0,240.0,1.0,0.0
2110,60.0,290.0,180.0,3.0,0.0
2111,68.0,0.0,180.0,1.0,0.0
2112,67.0,240.0,240.0,1.0,0.0
2113,48.0,0.0,720.0,5.0,0.0
2114,65.0,240.0,240.0,1.0,0.0
2115,60.0,0.0,240.0,3.0,0.0
2116,55.0,120.0,360.0,3.0,0.0
2117,64.0,120.0,240.0,1.0,0.0
2118,60.0,0.0,240.0,3.0,0.0
2119,65.0,240.0,240.0,1.0,0.0
2120,67.0,120.0,240.0,1.0,0.0
2121,48.0,120.0,360.0,5.0,0.0
2122,68.0,240.0,240.0,1.0,0.0
2123,60.0,0.0,240.0,3.0,0.0
2124,48.0,120.0,720.0,5.0,0.0
2125,70.0,240.0,240.0,1.0,0.0
2126,69.0,0.0,240.0,1.0,0.0
2127,60.0,240.0,240.0,3.0,0.0
2128,55.0,120.0,360.0,3.0,0.0
2129,72.0,0.0,240.0,1.0,0.0
2130,70.0,240.0,240.0,1.0,0.0
2131,60.0,0.0,240.0,3.0,0.0
2132,68.0,120.0,240.0,1.0,0.0
2133,48.0,70.0,360.0,5.0,0.0
2134,67.0,290.0,180.0,1.0,0.0
2135,60.0,0.0,180.0,3.0,0.0
2136,53.0,120.0,720.0,5.0,0.0
2137,65.0,240.0,240.0,1.0,0.0
2138,60.0,0.0,240.0,3.0,0.0
2139,64.0,240.0,240.0,1.0,0.0
2140,65.0,0.0,240.0,1.0,0.0
2141,56.0,120.0,360.0,3.0,0.0
2142,68.0,240.0,240.0,1.0,0.0
2143,60.0,0.0,240.0,3.0,0.0
2144,52.0,55.0,360.0,5.0,0.0
2145,67.0,120.0,240.0,1.0,0.0
2146,60.0,290.0,180.0,3.0,0.0
2147,70.0,15.0,180.0,1.0,0.0
2148,68.0,240.0,240.0,1.0,0.0
2149,53.0,0.0,720.0,5.0,0.0
2150,67.0,240.0,240.0,1.0,0.0
2151,60.0,0.0,240.0,3.0,0.0
2152,56.0,120.0,360.0,3.0,0.0
2153,68.0,120.0,240.0,1.0,0.0
2154,60.0,240.0,240.0,3.0,0.0
2155,72.0,0.0,240.0,1.0,0.0
2156,49.0,70.0,360.0,5.0,0.0
2157,70.0,120.0,240.0,1.0,0.0
2158,73.0,0.0,180.0,1.0,0.0
2159,58.0,290.0,180.0,3.0,0.0
2160,72.0,240.0,240.0,1.0,0.0
2161,48.0,120.0,720.0,5.0,0.0
2162,56.0,235.0,240.0,3.0,0.0
2163,71.0,0.0,240.0,1.0,0.0
2164,53.0,120.0,360.0,3.0,0.0
2165,72.0,5.0,240.0,1.0,0.0
2166,60.0,240.0,240.0,1.0,0.0
2167,56.0,0.0,240.0,3.0,0.0
2168,62.0,120.0,240.0,1.0,0.0
2169,48.0,70.0,360.0,5.0,0.0
2170,64.0,50.0,180.0,1.0,0.0
2171,55.0,240.0,240.0,3.0,0.0
2172,53.0,10.0,1380.0,3.0,0.0
2173,65.0,240.0,240.0,1.0,0.0
2174,41.0,0.0,1380.0,5.0,0.0
2175,64.0,240.0,240.0,1.0,0.0
2176,65.0,245.0,240.0,1.0,0.0
2177,60.0,185.0,240.0,1.0,0.0
2178,56.0,230.0,180.0,1.0,0.0
2179,60.0,290.0,180.0,1.0,0.0
2180,41.0,0.0,720.0,5.0,0.0
2181,77.0,240.0,240.0,1.0,0.0
2182,65.0,0.0,240.0,2.0,0.0
2183,48.0,0.0,240.0,3.0,0.0
2184,64.0,240.0,240.0,2.0,0.0
2185,76.0,0.0,240.0,1.0,0.0
2186,44.0,120.0,360.0,3.0,0.0
2187,65.0,0.0,240.0,2.0,0.0
2188,77.0,120.0,240.0,1.0,0.0
2189,68.0,240.0,240.0,2.0,0.0
2190,80.0,0.0,240.0,1.0,0.0
2191,48.0,0.0,240.0,3.0,0.0
2192,79.0,0.0,240.0,1.0,0.0
2193,40.0,120.0,360.0,5.0,0.0
2194,67.0,120.0,240.0,2.0,0.0
2195,82.0,0.0,240.0,1.0,0.0
2196,48.0,240.0,240.0,3.0,0.0
2197,70.0,0.0,240.0,2.0,0.0
2198,68.0,0.0,240.0,2.0,0.0
2199,80.0,240.0,240.0,1.0,0.0
2200,41.0,0.0,720.0,5.0,0.0
2201,67.0,0.0,240.0,2.0,0.0
2202,48.0,0.0,240.0,3.0,0.0
2203,79.0,240.0,240.0,1.0,0.0
2204,80.0,0.0,240.0,1.0,0.0
2205,44.0,120.0,360.0,3.0,0.0
2206,68.0,120.0,240.0,2.0,0.0
2207,48.0,0.0,240.0,3.0,0.0
2208,84.0,0.0,240.0,1.0,0.0
2209,72.0,240.0,240.0,2.0,0.0
2210,82.0,0.0,240.0,1.0,0.0
2211,70.0,120.0,240.0,2.0,0.0
2212,37.0,65.0,360.0,5.0,0.0
2213,73.0,0.0,180.0,2.0,0.0
2214,85.0,290.0,180.0,1.0,0.0
2215,46.0,5.0,180.0,3.0,0.0
2216,36.0,120.0,720.0,5.0,0.0
2217,72.0,0.0,240.0,2.0,0.0
2218,84.0,240.0,240.0,1.0,0.0
2219,83.0,0.0,240.0,1.0,0.0
2220,44.0,0.0,240.0,3.0,0.0
2221,71.0,190.0,240.0,2.0,0.0
2222,84.0,50.0,180.0,1.0,0.0
2223,41.0,120.0,360.0,3.0,0.0
2224,72.0,0.0,180.0,2.0,0.0
2225,60.0,0.0,240.0,2.0,0.0
2226,44.0,240.0,240.0,3.0,0.0
2227,72.0,0.0,240.0,1.0,0.0
2228,62.0,120.0,240.0,2.0,0.0
2229,36.0,65.0,360.0,5.0,0.0
2230,74.0,0.0,240.0,1.0,0.0
2231,64.0,205.0,180.0,2.0,0.0
2232,76.0,0.0,180.0,1.0,0.0
2233,43.0,5.0,180.0,3.0,0.0
2234,77.0,0.0,960.0,1.0,0.0
2235,65.0,135.0,960.0,2.0,0.0
2236,29.0,240.0,150.0,5.0,0.0
2237,32.0,240.0,150.0,5.0,0.0
2238,36.0,240.0,150.0,5.0,0.0
2239,41.0,85.0,150.0,5.0,0.0
2240,29.0,525.0,120.0,5.0,0.0
2241,69.0,0.0,180.0,4.0,0.0
2242,65.0,60.0,180.0,4.0,0.0
2243,53.0,0.0,480.0,5.0,0.0
2244,41.0,0.0,480.0,5.0,0.0
2245,60.0,240.0,120.0,3.0,0.0
2246,77.0,0.0,240.0,2.0,0.0
2247,69.0,0.0,240.0,4.0,0.0
2248,65.0,0.0,240.0,4.0,0.0
2249,81.0,240.0,240.0,1.0,0.0
2250,60.0,0.0,120.0,3.0,0.0
2251,70.0,0.0,240.0,4.0,0.0
2252,67.0,0.0,240.0,4.0,0.0
2253,79.0,240.0,240.0,2.0,0.0
2254,82.0,0.0,240.0,1.0,0.0
2255,60.0,0.0,120.0,3.0,0.0
2256,69.0,0.0,240.0,4.0,0.0
2257,81.0,240.0,240.0,2.0,0.0
2258,72.0,0.0,240.0,4.0,0.0
2259,84.0,0.0,240.0,1.0,0.0
2260,60.0,0.0,120.0,3.0,0.0
2261,70.0,0.0,240.0,4.0,0.0
2262,67.0,0.0,240.0,4.0,0.0
2263,82.0,0.0,240.0,1.0,0.0
2264,79.0,180.0,240.0,2.0,0.0
2265,60.0,0.0,120.0,3.0,0.0
2266,69.0,25.0,180.0,4.0,0.0
2267,65.0,0.0,180.0,4.0,0.0
2268,81.0,10.0,210.0,1.0,0.0
2269,77.0,0.0,210.0,2.0,0.0
2270,60.0,205.0,90.0,3.0,0.0
2271,48.0,0.0,480.0,5.0,0.0
2272,36.0,0.0,480.0,5.0,0.0
2273,64.0,0.0,180.0,4.0,0.0
2274,67.0,60.0,180.0,4.0,0.0
2275,60.0,240.0,120.0,3.0,0.0
2276,76.0,240.0,240.0,2.0,0.0
2277,64.0,0.0,240.0,4.0,0.0
2278,67.0,0.0,240.0,4.0,0.0
2279,79.0,0.0,240.0,1.0,0.0
2280,60.0,0.0,120.0,3.0,0.0
2281,81.0,0.0,240.0,1.0,0.0
2282,77.0,0.0,240.0,2.0,0.0
2283,65.0,240.0,240.0,4.0,0.0
2284,69.0,0.0,240.0,4.0,0.0
2285,60.0,0.0,120.0,3.0,0.0
2286,67.0,0.0,240.0,4.0,0.0
2287,70.0,0.0,240.0,4.0,0.0
2288,82.0,240.0,240.0,1.0,0.0
2289,79.0,0.0,240.0,2.0,0.0
2290,60.0,0.0,120.0,3.0,0.0
2291,77.0,0.0,240.0,2.0,0.0
2292,69.0,0.0,240.0,4.0,0.0
2293,65.0,0.0,240.0,4.0,0.0
2294,81.0,180.0,240.0,1.0,0.0
2295,60.0,0.0,120.0,3.0,0.0
2296,64.0,0.0,180.0,4.0,0.0
2297,67.0,20.0,180.0,4.0,0.0
2298,76.0,10.0,210.0,2.0,0.0
2299,79.0,5.0,210.0,1.0,0.0
2300,60.0,205.0,90.0,3.0,0.0
2301,65.0,0.0,180.0,4.0,0.0
2302,41.0,0.0,300.0,5.0,0.0
2303,53.0,195.0,300.0,5.0,0.0
2304,60.0,60.0,180.0,4.0,0.0
2305,57.0,45.0,120.0,3.0,0.0
2306,77.0,0.0,240.0,1.0,0.0
2307,57.0,0.0,120.0,3.0,0.0
2308,60.0,0.0,15.0,4.0,0.0
2309,65.0,180.0,15.0,4.0,0.0
2310,53.0,0.0,180.0,5.0,0.0
2311,41.0,25.0,180.0,5.0,0.0
2312,57.0,205.0,90.0,3.0,0.0
2313,64.0,0.0,180.0,4.0,0.0
2314,36.0,0.0,300.0,5.0,0.0
2315,48.0,195.0,300.0,5.0,0.0
2316,67.0,60.0,180.0,4.0,0.0
2317,60.0,45.0,120.0,3.0,0.0
2318,79.0,170.0,240.0,1.0,0.0
2319,60.0,10.0,120.0,3.0,0.0
2320,67.0,0.0,15.0,4.0,0.0
2321,64.0,0.0,15.0,4.0,0.0
2322,36.0,0.0,180.0,5.0,0.0
2323,48.0,25.0,180.0,5.0,0.0
2324,60.0,265.0,90.0,3.0,0.0
2325,65.0,0.0,240.0,4.0,0.0
2326,77.0,0.0,240.0,2.0,0.0
2327,81.0,240.0,240.0,1.0,0.0
2328,69.0,0.0,240.0,4.0,0.0
2329,60.0,0.0,120.0,3.0,0.0
2330,79.0,0.0,240.0,2.0,0.0
2331,70.0,0.0,240.0,4.0,0.0
2332,67.0,240.0,240.0,4.0,0.0
2333,82.0,0.0,240.0,1.0,0.0
2334,60.0,0.0,120.0,3.0,0.0
2335,69.0,180.0,240.0,4.0,0.0
2336,65.0,0.0,240.0,4.0,0.0
2337,81.0,0.0,240.0,1.0,0.0
2338,77.0,0.0,240.0,2.0,0.0
2339,60.0,0.0,120.0,3.0,0.0
2340,79.0,45.0,180.0,1.0,0.0
2341,76.0,5.0,180.0,2.0,0.0
2342,64.0,10.0,180.0,4.0,0.0
2343,67.0,0.0,180.0,4.0,0.0
2344,60.0,120.0,120.0,3.0,0.0
2345,60.0,25.0,180.0,4.0,0.0
2346,71.0,70.0,120.0,1.0,0.0
2347,72.0,145.0,90.0,1.0,0.0
2348,71.0,70.0,120.0,1.0,0.0
2349,48.0,25.0,180.0,5.0,0.0
2350,72.0,205.0,90.0,1.0,0.0
2351,69.0,60.0,180.0,4.0,0.0
2352,65.0,0.0,180.0,4.0,0.0
2353,41.0,240.0,480.0,5.0,0.0
2354,53.0,0.0,480.0,5.0,0.0
2355,60.0,240.0,120.0,3.0,0.0
2356,69.0,0.0,240.0,4.0,0.0
2357,65.0,0.0,240.0,4.0,0.0
2358,77.0,0.0,240.0,2.0,0.0
2359,81.0,0.0,240.0,1.0,0.0
2360,60.0,0.0,120.0,3.0,0.0
2361,67.0,0.0,240.0,4.0,0.0
2362,79.0,0.0,240.0,2.0,0.0
2363,70.0,0.0,240.0,4.0,0.0
2364,82.0,240.0,240.0,1.0,0.0
2365,60.0,0.0,120.0,3.0,0.0
2366,81.0,0.0,240.0,2.0,0.0
2367,69.0,0.0,240.0,4.0,0.0
2368,72.0,0.0,240.0,4.0,0.0
2369,84.0,240.0,240.0,1.0,0.0
2370,60.0,0.0,120.0,3.0,0.0
2371,82.0,0.0,240.0,1.0,0.0
2372,79.0,0.0,240.0,2.0,0.0
2373,70.0,0.0,240.0,4.0,0.0
2374,67.0,180.0,240.0,4.0,0.0
2375,60.0,0.0,120.0,3.0,0.0
2376,69.0,0.0,180.0,4.0,0.0
2377,65.0,15.0,180.0,4.0,0.0
2378,81.0,10.0,210.0,1.0,0.0
2379,77.0,10.0,180.0,2.0,0.0
2380,60.0,205.0,90.0,3.0,0.0
2381,36.0,0.0,480.0,5.0,0.0
2382,48.0,0.0,480.0,5.0,0.0
2383,67.0,60.0,180.0,4.0,0.0
2384,64.0,0.0,180.0,4.0,0.0
2385,60.0,240.0,120.0,3.0,0.0
2386,76.0,0.0,240.0,2.0,0.0
2387,64.0,240.0,240.0,4.0,0.0
2388,67.0,0.0,240.0,4.0,0.0
2389,79.0,0.0,240.0,1.0,0.0
2390,60.0,0.0,120.0,3.0,0.0
2391,77.0,0.0,240.0,2.0,0.0
2392,65.0,0.0,240.0,4.0,0.0
2393,81.0,0.0,240.0,1.0,0.0
2394,69.0,240.0,240.0,4.0,0.0
2395,60.0,0.0,120.0,3.0,0.0
2396,67.0,0.0,240.0,4.0,0.0
2397,70.0,240.0,240.0,4.0,0.0
2398,79.0,0.0,240.0,2.0,0.0
2399,82.0,0.0,240.0,1.0,0.0
2400,60.0,0.0,120.0,3.0,0.0
2401,81.0,180.0,240.0,1.0,0.0
2402,65.0,0.0,240.0,4.0,0.0
2403,77.0,0.0,240.0,2.0,0.0
2404,69.0,0.0,240.0,4.0,0.0
2405,60.0,0.0,120.0,3.0,0.0
2406,67.0,20.0,180.0,4.0,0.0
2407,64.0,0.0,180.0,4.0,0.0
2408,76.0,0.0,210.0,2.0,0.0
2409,79.0,15.0,210.0,1.0,0.0
2410,60.0,205.0,90.0,3.0,0.0
2411,53.0,228.0,240.0,5.0,0.0
2412,41.0,0.0,240.0,5.0,0.0
2413,60.0,0.0,180.0,4.0,0.0
2414,65.0,60.0,180.0,4.0,0.0
2415,57.0,12.0,120.0,3.0,0.0
2416,77.0,0.0,240.0,1.0,0.0
2417,65.0,0.0,240.0,4.0,0.0
2418,69.0,0.0,240.0,2.0,0.0
2419,60.0,0.0,240.0,4.0,0.0
2420,57.0,240.0,120.0,3.0,0.0
2421,64.0,60.0,240.0,4.0,0.0
2422,72.0,0.0,240.0,2.0,0.0
2423,79.0,0.0,240.0,1.0,0.0
2424,67.0,0.0,240.0,4.0,0.0
2425,60.0,120.0,180.0,3.0,0.0
2426,81.0,10.0,180.0,1.0,0.0
2427,65.0,15.0,180.0,4.0,0.0
2428,77.0,35.0,210.0,2.0,0.0
2429,69.0,0.0,180.0,4.0,0.0
2430,60.0,180.0,120.0,3.0,0.0
2431,69.0,0.0,180.0,4.0,0.0
2432,65.0,10.0,180.0,4.0,0.0
2433,50.0,50.0,180.0,5.0,0.0
2434,38.0,0.0,180.0,5.0,0.0
2435,62.0,180.0,120.0,3.0,0.0
2436,70.0,0.0,180.0,4.0,0.0
2437,34.0,25.0,180.0,5.0,0.0
2438,46.0,0.0,180.0,5.0,0.0
2439,67.0,10.0,180.0,4.0,0.0
2440,62.0,205.0,90.0,3.0,0.0
2441,65.0,60.0,180.0,4.0,0.0
2442,69.0,0.0,180.0,4.0,0.0
2443,36.0,0.0,240.0,5.0,0.0
2444,48.0,228.0,240.0,5.0,0.0
2445,60.0,12.0,120.0,3.0,0.0
2446,69.0,240.0,240.0,4.0,0.0
2447,77.0,0.0,240.0,2.0,0.0
2448,81.0,0.0,240.0,1.0,0.0
2449,65.0,0.0,240.0,4.0,0.0
2450,60.0,0.0,120.0,3.0,0.0
2451,76.0,0.0,240.0,2.0,0.0
2452,79.0,80.0,240.0,1.0,0.0
2453,64.0,0.0,240.0,4.0,0.0
2454,67.0,0.0,240.0,4.0,0.0
2455,60.0,0.0,120.0,3.0,0.0
2456,65.0,120.0,90.0,4.0,0.0
2457,77.0,120.0,210.0,1.0,0.0
2458,60.0,0.0,90.0,4.0,0.0
2459,53.0,10.0,180.0,5.0,0.0
2460,57.0,110.0,90.0,4.0,0.0
2461,60.0,170.0,90.0,4.0,0.0
2462,41.0,290.0,120.0,5.0,0.0
2463,65.0,0.0,120.0,4.0,0.0
2464,69.0,60.0,180.0,4.0,0.0
2465,41.0,0.0,480.0,5.0,0.0
2466,53.0,0.0,480.0,5.0,0.0
2467,65.0,0.0,180.0,4.0,0.0
2468,60.0,240.0,120.0,3.0,0.0
2469,77.0,0.0,240.0,2.0,0.0
2470,81.0,0.0,240.0,1.0,0.0
2471,65.0,240.0,240.0,4.0,0.0
2472,69.0,0.0,240.0,4.0,0.0
2473,60.0,0.0,120.0,3.0,0.0
2474,79.0,0.0,240.0,2.0,0.0
2475,70.0,0.0,240.0,4.0,0.0
2476,82.0,0.0,240.0,1.0,0.0
2477,67.0,0.0,240.0,4.0,0.0
2478,60.0,240.0,120.0,3.0,0.0
2479,72.0,0.0,240.0,4.0,0.0
2480,69.0,0.0,240.0,4.0,0.0
2481,81.0,0.0,240.0,2.0,0.0
2482,84.0,0.0,240.0,1.0,0.0
2483,60.0,240.0,120.0,3.0,0.0
2484,67.0,0.0,240.0,4.0,0.0
2485,70.0,0.0,240.0,4.0,0.0
2486,82.0,180.0,240.0,1.0,0.0
2487,79.0,0.0,240.0,2.0,0.0
2488,60.0,0.0,120.0,3.0,0.0
2489,77.0,0.0,210.0,2.0,0.0
2490,69.0,0.0,180.0,4.0,0.0
2491,81.0,10.0,210.0,1.0,0.0
2492,65.0,25.0,180.0,4.0,0.0
2493,60.0,205.0,90.0,3.0,0.0
2494,64.0,60.0,180.0,4.0,0.0
2495,36.0,0.0,480.0,5.0,0.0
2496,67.0,0.0,180.0,4.0,0.0
2497,48.0,0.0,480.0,5.0,0.0
2498,60.0,240.0,120.0,3.0,0.0
2499,76.0,0.0,240.0,2.0,0.0
2500,67.0,240.0,240.0,4.0,0.0
2501,79.0,0.0,240.0,1.0,0.0
2502,64.0,0.0,240.0,4.0,0.0
2503,60.0,0.0,120.0,3.0,0.0
2504,65.0,0.0,240.0,4.0,0.0
2505,69.0,0.0,240.0,4.0,0.0
2506,77.0,240.0,240.0,2.0,0.0
2507,81.0,0.0,240.0,1.0,0.0
2508,60.0,0.0,120.0,3.0,0.0
2509,70.0,0.0,240.0,4.0,0.0
2510,67.0,0.0,240.0,4.0,0.0
2511,82.0,0.0,240.0,1.0,0.0
2512,79.0,0.0,240.0,2.0,0.0
2513,60.0,240.0,120.0,3.0,0.0
2514,69.0,0.0,240.0,4.0,0.0
2515,77.0,180.0,240.0,2.0,0.0
2516,65.0,0.0,240.0,4.0,0.0
2517,81.0,0.0,240.0,1.0,0.0
2518,60.0,0.0,120.0,3.0,0.0
2519,67.0,20.0,180.0,4.0,0.0
2520,64.0,0.0,180.0,4.0,0.0
2521,76.0,10.0,210.0,2.0,0.0
2522,79.0,5.0,210.0,1.0,0.0
2523,60.0,205.0,90.0,3.0,0.0
2524,60.0,60.0,180.0,4.0,0.0
2525,41.0,0.0,300.0,5.0,0.0
2526,65.0,0.0,180.0,4.0,0.0
2527,53.0,195.0,300.0,5.0,0.0
2528,57.0,45.0,120.0,3.0,0.0
2529,65.0,180.0,240.0,4.0,0.0
2530,77.0,0.0,240.0,1.0,0.0
2531,60.0,0.0,240.0,4.0,0.0
2532,57.0,0.0,120.0,3.0,0.0
2533,41.0,25.0,180.0,5.0,0.0
2534,53.0,0.0,180.0,5.0,0.0
2535,60.0,3.0,180.0,4.0,0.0
2536,65.0,7.0,180.0,4.0,0.0
2537,57.0,205.0,90.0,3.0,0.0
2538,36.0,0.0,300.0,5.0,0.0
2539,64.0,60.0,180.0,4.0,0.0
2540,67.0,0.0,180.0,4.0,0.0
2541,48.0,195.0,300.0,5.0,0.0
2542,60.0,45.0,120.0,3.0,0.0
2543,79.0,170.0,240.0,1.0,0.0
2544,64.0,10.0,240.0,4.0,0.0
2545,67.0,0.0,240.0,4.0,0.0
2546,60.0,0.0,120.0,3.0,0.0
2547,67.0,10.0,180.0,4.0,0.0
2548,64.0,0.0,180.0,4.0,0.0
2549,48.0,0.0,180.0,5.0,0.0
2550,36.0,25.0,180.0,5.0,0.0
2551,60.0,265.0,90.0,3.0,0.0
2552,65.0,0.0,240.0,4.0,0.0
2553,69.0,240.0,240.0,4.0,0.0
2554,81.0,0.0,240.0,1.0,0.0
2555,77.0,0.0,240.0,2.0,0.0
2556,60.0,0.0,120.0,3.0,0.0
2557,67.0,0.0,240.0,4.0,0.0
2558,79.0,240.0,240.0,2.0,0.0
2559,70.0,0.0,240.0,4.0,0.0
2560,82.0,0.0,240.0,1.0,0.0
2561,60.0,0.0,120.0,3.0,0.0
2562,69.0,0.0,240.0,4.0,0.0
2563,65.0,0.0,240.0,4.0,0.0
2564,81.0,0.0,240.0,1.0,0.0
2565,77.0,0.0,240.0,2.0,0.0
2566,60.0,180.0,120.0,3.0,0.0
2567,67.0,10.0,180.0,4.0,0.0
2568,64.0,0.0,180.0,4.0,0.0
2569,79.0,45.0,180.0,1.0,0.0
2570,76.0,5.0,180.0,2.0,0.0
2571,60.0,120.0,120.0,3.0,0.0
2572,71.0,70.0,120.0,1.0,0.0
2573,60.0,25.0,180.0,4.0,0.0
2574,72.0,145.0,90.0,1.0,0.0
2575,48.0,25.0,180.0,5.0,0.0
2576,71.0,70.0,120.0,1.0,0.0
2577,72.0,205.0,90.0,1.0,0.0
2578,41.0,0.0,480.0,5.0,0.0
2579,53.0,0.0,480.0,5.0,0.0
2580,65.0,60.0,180.0,4.0,0.0
2581,69.0,0.0,180.0,4.0,0.0
2582,60.0,240.0,120.0,3.0,0.0
2583,69.0,0.0,240.0,4.0,0.0
2584,81.0,0.0,240.0,1.0,0.0
2585,65.0,0.0,240.0,4.0,0.0
2586,77.0,0.0,240.0,2.0,0.0
2587,60.0,240.0,120.0,3.0,0.0
2588,70.0,0.0,240.0,4.0,0.0
2589,67.0,0.0,240.0,4.0,0.0
2590,79.0,0.0,240.0,2.0,0.0
2591,82.0,240.0,240.0,1.0,0.0
2592,60.0,0.0,120.0,3.0,0.0
2593,69.0,0.0,240.0,4.0,0.0
2594,72.0,0.0,240.0,4.0,0.0
2595,81.0,0.0,240.0,2.0,0.0
2596,84.0,240.0,240.0,1.0,0.0
2597,60.0,0.0,120.0,3.0,0.0
2598,70.0,0.0,240.0,4.0,0.0
2599,67.0,0.0,240.0,4.0,0.0
2600,79.0,180.0,240.0,2.0,0.0
2601,82.0,0.0,240.0,1.0,0.0
2602,60.0,0.0,120.0,3.0,0.0
2603,65.0,15.0,180.0,4.0,0.0
2604,69.0,0.0,180.0,4.0,0.0
2605,77.0,10.0,180.0,2.0,0.0
2606,81.0,10.0,210.0,1.0,0.0
2607,60.0,205.0,90.0,3.0,0.0
2608,48.0,0.0,480.0,5.0,0.0
2609,36.0,0.0,480.0,5.0,0.0
2610,67.0,60.0,180.0,4.0,0.0
2611,64.0,0.0,180.0,4.0,0.0
2612,60.0,240.0,120.0,3.0,0.0
2613,79.0,240.0,240.0,1.0,0.0
2614,76.0,0.0,240.0,2.0,0.0
2615,67.0,0.0,240.0,4.0,0.0
2616,64.0,0.0,240.0,4.0,0.0
2617,60.0,0.0,120.0,3.0,0.0
2618,65.0,0.0,240.0,4.0,0.0
2619,69.0,0.0,240.0,4.0,0.0
2620,81.0,0.0,240.0,1.0,0.0
2621,77.0,240.0,240.0,2.0,0.0
2622,60.0,0.0,120.0,3.0,0.0
2623,79.0,240.0,240.0,2.0,0.0
2624,82.0,0.0,240.0,1.0,0.0
2625,70.0,0.0,240.0,4.0,0.0
2626,67.0,0.0,240.0,4.0,0.0
2627,60.0,0.0,120.0,3.0,0.0
2628,65.0,0.0,240.0,4.0,0.0
2629,81.0,180.0,240.0,1.0,0.0
2630,69.0,0.0,240.0,4.0,0.0
2631,77.0,0.0,240.0,2.0,0.0
2632,60.0,0.0,120.0,3.0,0.0
2633,76.0,0.0,210.0,2.0,0.0
2634,67.0,20.0,180.0,4.0,0.0
2635,64.0,0.0,180.0,4.0,0.0
2636,79.0,15.0,210.0,1.0,0.0
2637,60.0,205.0,90.0,3.0,0.0
2638,41.0,0.0,240.0,5.0,0.0
2639,60.0,0.0,180.0,4.0,0.0
2640,65.0,60.0,180.0,4.0,0.0
2641,53.0,228.0,240.0,5.0,0.0
2642,57.0,12.0,120.0,3.0,0.0
2643,77.0,0.0,240.0,1.0,0.0
2644,65.0,0.0,240.0,4.0,0.0
2645,69.0,240.0,240.0,2.0,0.0
2646,60.0,0.0,240.0,4.0,0.0
2647,57.0,0.0,120.0,3.0,0.0
2648,64.0,0.0,240.0,4.0,0.0
2649,67.0,60.0,240.0,4.0,0.0
2650,72.0,0.0,240.0,2.0,0.0
2651,79.0,0.0,240.0,1.0,0.0
2652,60.0,120.0,180.0,3.0,0.0
2653,81.0,10.0,180.0,1.0,0.0
2654,65.0,15.0,180.0,4.0,0.0
2655,69.0,0.0,180.0,4.0,0.0
2656,77.0,35.0,210.0,2.0,0.0
2657,60.0,180.0,120.0,3.0,0.0
2658,65.0,10.0,180.0,4.0,0.0
2659,69.0,0.0,180.0,4.0,0.0
2660,38.0,0.0,180.0,5.0,0.0
2661,50.0,50.0,180.0,5.0,0.0
2662,62.0,180.0,120.0,3.0,0.0
2663,70.0,0.0,180.0,4.0,0.0
2664,46.0,0.0,180.0,5.0,0.0
2665,34.0,25.0,180.0,5.0,0.0
2666,67.0,10.0,180.0,4.0,0.0
2667,62.0,205.0,90.0,3.0,0.0
2668,65.0,60.0,180.0,4.0,0.0
2669,36.0,0.0,240.0,5.0,0.0
2670,48.0,228.0,240.0,5.0,0.0
2671,69.0,0.0,180.0,4.0,0.0
2672,60.0,12.0,120.0,3.0,0.0
2673,65.0,0.0,240.0,4.0,0.0
2674,69.0,0.0,240.0,4.0,0.0
2675,77.0,0.0,240.0,2.0,0.0
2676,81.0,0.0,240.0,1.0,0.0
2677,60.0,240.0,120.0,3.0,0.0
2678,67.0,0.0,240.0,4.0,0.0
2679,64.0,0.0,240.0,4.0,0.0
2680,79.0,0.0,240.0,1.0,0.0
2681,76.0,80.0,240.0,2.0,0.0
2682,60.0,0.0,120.0,3.0,0.0
2683,65.0,120.0,90.0,4.0,0.0
2684,77.0,0.0,210.0,1.0,0.0
2685,60.0,120.0,90.0,4.0,0.0
2686,53.0,10.0,180.0,5.0,0.0
2687,57.0,110.0,90.0,4.0,0.0
2688,60.0,170.0,90.0,4.0,0.0
2689,65.0,0.0,120.0,4.0,0.0
2690,41.0,350.0,120.0,5.0,0.0
2691,72.0,0.0,360.0,1.0,0.0
2692,53.0,60.0,480.0,5.0,0.0
2693,57.0,120.0,120.0,3.0,0.0
2694,60.0,60.0,120.0,3.0,0.0
2695,74.0,60.0,60.0,1.0,0.0
2696,57.0,0.0,120.0,3.0,0.0
2697,72.0,0.0,60.0,1.0,0.0
2698,70.0,60.0,60.0,1.0,0.0
2699,60.0,0.0,120.0,3.0,0.0
2700,69.0,60.0,60.0,1.0,0.0
2701,67.0,35.0,60.0,1.0,0.0
2702,57.0,60.0,90.0,3.0,0.0
2703,65.0,85.0,90.0,1.0,0.0
2704,53.0,0.0,480.0,5.0,0.0
2705,73.0,95.0,120.0,1.0,0.0
2706,74.0,25.0,90.0,1.0,0.0
2707,58.0,120.0,120.0,3.0,0.0
2708,74.0,50.0,180.0,1.0,0.0
2709,62.0,70.0,120.0,3.0,0.0
2710,58.0,120.0,120.0,3.0,0.0
2711,62.0,95.0,120.0,3.0,0.0
2712,58.0,145.0,90.0,3.0,0.0
2713,53.0,0.0,480.0,5.0,0.0
2714,77.0,120.0,120.0,1.0,0.0
2715,76.0,120.0,120.0,1.0,0.0
2716,58.0,0.0,120.0,3.0,0.0
2717,79.0,0.0,120.0,1.0,0.0
2718,62.0,120.0,120.0,3.0,0.0
2719,77.0,120.0,120.0,1.0,0.0
2720,58.0,0.0,120.0,3.0,0.0
2721,62.0,0.0,120.0,3.0,0.0
2722,76.0,95.0,120.0,1.0,0.0
2723,58.0,145.0,90.0,3.0,0.0
2724,74.0,0.0,90.0,1.0,0.0
2725,53.0,0.0,480.0,5.0,0.0
2726,71.0,95.0,120.0,1.0,0.0
2727,57.0,120.0,120.0,3.0,0.0
2728,72.0,25.0,90.0,1.0,0.0
2729,72.0,50.0,180.0,1.0,0.0
2730,60.0,70.0,120.0,3.0,0.0
2731,57.0,120.0,120.0,3.0,0.0
2732,60.0,95.0,120.0,3.0,0.0
2733,57.0,180.0,90.0,3.0,0.0
2734,72.0,35.0,360.0,1.0,0.0
2735,45.0,205.0,150.0,4.0,0.0
2736,41.0,0.0,150.0,5.0,0.0
2737,53.0,0.0,150.0,5.0,0.0
2738,57.0,25.0,150.0,4.0,0.0
2739,74.0,60.0,60.0,1.0,0.0
2740,72.0,60.0,60.0,1.0,0.0
2741,70.0,60.0,60.0,1.0,0.0
2742,69.0,60.0,60.0,1.0,0.0
2743,67.0,95.0,60.0,1.0,0.0
2744,65.0,85.0,90.0,1.0,0.0
2745,43.0,0.0,150.0,5.0,0.0
2746,72.0,35.0,120.0,1.0,0.0
2747,46.0,155.0,150.0,4.0,0.0
2748,70.0,85.0,180.0,1.0,0.0
2749,55.0,0.0,150.0,5.0,0.0
2750,58.0,25.0,150.0,4.0,0.0
2751,72.0,60.0,60.0,1.0,0.0
2752,70.0,60.0,60.0,1.0,0.0
2753,69.0,60.0,60.0,1.0,0.0
2754,67.0,60.0,60.0,1.0,0.0
2755,65.0,50.0,60.0,1.0,0.0
2756,64.0,245.0,60.0,1.0,0.0
2757,60.0,0.0,240.0,4.0,0.0
2758,65.0,235.0,240.0,1.0,0.0
2759,57.0,5.0,240.0,5.0,0.0
2760,55.0,0.0,240.0,5.0,0.0
2761,64.0,190.0,240.0,1.0,0.0
2762,58.0,5.0,240.0,4.0,0.0
2763,57.0,0.0,180.0,4.0,0.0
2764,53.0,0.0,180.0,5.0,0.0
2765,59.0,530.0,180.0,2.0,0.0
2766,65.0,0.0,180.0,1.0,0.0
2767,53.0,0.0,480.0,4.0,0.0
2768,57.0,5.0,480.0,4.0,0.0
2769,48.0,0.0,660.0,5.0,0.0
2770,69.0,0.0,480.0,1.0,0.0
2771,60.0,220.0,690.0,2.0,0.0
2772,65.0,180.0,480.0,2.0,0.0
2773,52.0,10.0,180.0,5.0,0.0
2774,67.0,0.0,180.0,1.0,0.0
2775,64.0,5.0,180.0,2.0,0.0
2776,55.0,0.0,180.0,4.0,0.0
2777,69.0,0.0,180.0,4.0,0.0
2778,41.0,0.0,480.0,5.0,0.0
2779,65.0,60.0,180.0,4.0,0.0
2780,53.0,0.0,480.0,5.0,0.0
2781,60.0,240.0,120.0,3.0,0.0
2782,69.0,0.0,240.0,4.0,0.0
2783,65.0,0.0,240.0,4.0,0.0
2784,81.0,0.0,240.0,1.0,0.0
2785,77.0,240.0,240.0,2.0,0.0
2786,60.0,0.0,120.0,3.0,0.0
2787,82.0,0.0,240.0,1.0,0.0
2788,70.0,240.0,240.0,4.0,0.0
2789,79.0,0.0,240.0,2.0,0.0
2790,67.0,0.0,240.0,4.0,0.0
2791,60.0,0.0,120.0,3.0,0.0
2792,84.0,0.0,240.0,1.0,0.0
2793,81.0,0.0,240.0,2.0,0.0
2794,69.0,0.0,240.0,4.0,0.0
2795,72.0,240.0,240.0,4.0,0.0
2796,60.0,0.0,120.0,3.0,0.0
2797,67.0,0.0,240.0,4.0,0.0
2798,70.0,0.0,240.0,4.0,0.0
2799,82.0,0.0,240.0,1.0,0.0
2800,79.0,180.0,240.0,2.0,0.0
2801,60.0,0.0,120.0,3.0,0.0
2802,65.0,0.0,180.0,4.0,0.0
2803,69.0,20.0,180.0,4.0,0.0
2804,81.0,5.0,210.0,1.0,0.0
2805,77.0,10.0,210.0,2.0,0.0
2806,60.0,205.0,90.0,3.0,0.0
2807,67.0,60.0,180.0,4.0,0.0
2808,64.0,0.0,180.0,4.0,0.0
2809,36.0,0.0,480.0,5.0,0.0
2810,48.0,0.0,480.0,5.0,0.0
2811,60.0,240.0,120.0,3.0,0.0
2812,79.0,0.0,240.0,1.0,0.0
2813,76.0,240.0,240.0,2.0,0.0
2814,67.0,0.0,240.0,4.0,0.0
2815,64.0,0.0,240.0,4.0,0.0
2816,60.0,0.0,120.0,3.0,0.0
2817,69.0,0.0,240.0,4.0,0.0
2818,81.0,0.0,240.0,1.0,0.0
2819,77.0,0.0,240.0,2.0,0.0
2820,65.0,240.0,240.0,4.0,0.0
2821,60.0,0.0,120.0,3.0,0.0
2822,70.0,0.0,240.0,4.0,0.0
2823,82.0,0.0,240.0,1.0,0.0
2824,79.0,0.0,240.0,2.0,0.0
2825,67.0,0.0,240.0,4.0,0.0
2826,60.0,240.0,120.0,3.0,0.0
2827,65.0,0.0,240.0,4.0,0.0
2828,69.0,0.0,240.0,4.0,0.0
2829,77.0,180.0,240.0,2.0,0.0
2830,81.0,0.0,240.0,1.0,0.0
2831,60.0,0.0,120.0,3.0,0.0
2832,79.0,5.0,210.0,1.0,0.0
2833,64.0,0.0,180.0,4.0,0.0
2834,67.0,20.0,180.0,4.0,0.0
2835,76.0,10.0,210.0,2.0,0.0
2836,60.0,205.0,90.0,3.0,0.0
2837,65.0,60.0,180.0,4.0,0.0
2838,60.0,0.0,180.0,4.0,0.0
2839,53.0,0.0,390.0,5.0,0.0
2840,41.0,100.0,390.0,5.0,0.0
2841,57.0,140.0,120.0,3.0,0.0
2842,65.0,0.0,240.0,4.0,0.0
2843,60.0,0.0,240.0,4.0,0.0
2844,69.0,240.0,240.0,2.0,0.0
2845,77.0,0.0,240.0,1.0,0.0
2846,57.0,0.0,120.0,3.0,0.0
2847,79.0,180.0,240.0,1.0,0.0
2848,72.0,0.0,240.0,2.0,0.0
2849,67.0,0.0,240.0,4.0,0.0
2850,64.0,0.0,240.0,4.0,0.0
2851,60.0,0.0,120.0,3.0,0.0
2852,77.0,10.0,180.0,2.0,0.0
2853,81.0,30.0,210.0,1.0,0.0
2854,69.0,0.0,180.0,4.0,0.0
2855,65.0,15.0,180.0,4.0,0.0
2856,60.0,185.0,120.0,3.0,0.0
2857,38.0,0.0,180.0,5.0,0.0
2858,50.0,50.0,180.0,5.0,0.0
2859,69.0,10.0,180.0,4.0,0.0
2860,65.0,0.0,180.0,4.0,0.0
2861,62.0,180.0,120.0,3.0,0.0
2862,34.0,50.0,180.0,5.0,0.0
2863,46.0,0.0,180.0,5.0,0.0
2864,70.0,0.0,180.0,4.0,0.0
2865,67.0,10.0,180.0,4.0,0.0
2866,62.0,180.0,120.0,3.0,0.0
2867,48.0,100.0,390.0,5.0,0.0
2868,65.0,60.0,180.0,4.0,0.0
2869,36.0,0.0,390.0,5.0,0.0
2870,69.0,0.0,180.0,4.0,0.0
2871,60.0,140.0,120.0,3.0,0.0
2872,77.0,180.0,240.0,2.0,0.0
2873,81.0,0.0,240.0,1.0,0.0
2874,65.0,0.0,240.0,4.0,0.0
2875,69.0,0.0,240.0,4.0,0.0
2876,60.0,0.0,120.0,3.0,0.0
2877,67.0,20.0,180.0,4.0,0.0
2878,64.0,0.0,180.0,4.0,0.0
2879,76.0,5.0,210.0,2.0,0.0
2880,79.0,10.0,210.0,1.0,0.0
2881,60.0,265.0,90.0,3.0,0.0
2882,79.0,0.0,240.0,1.0,0.0
2883,76.0,0.0,480.0,2.0,0.0
2884,64.0,240.0,240.0,4.0,0.0
2885,67.0,0.0,240.0,4.0,0.0
2886,60.0,0.0,120.0,3.0,0.0
2887,80.0,0.0,240.0,1.0,0.0
2888,64.0,0.0,240.0,4.0,0.0
2889,68.0,180.0,240.0,4.0,0.0
2890,60.0,0.0,120.0,3.0,0.0
2891,77.0,15.0,210.0,2.0,0.0
2892,81.0,5.0,180.0,1.0,0.0
2893,69.0,15.0,180.0,4.0,0.0
2894,65.0,0.0,180.0,4.0,0.0
2895,60.0,205.0,90.0,3.0,0.0
2896,65.0,0.0,180.0,4.0,0.0
2897,60.0,60.0,180.0,4.0,0.0
2898,53.0,0.0,480.0,5.0,0.0
2899,41.0,0.0,480.0,5.0,0.0
2900,57.0,240.0,120.0,3.0,0.0
2901,77.0,0.0,240.0,2.0,0.0
2902,81.0,0.0,240.0,1.0,0.0
2903,65.0,0.0,240.0,4.0,0.0
2904,60.0,0.0,240.0,4.0,0.0
2905,57.0,240.0,120.0,3.0,0.0
2906,82.0,180.0,240.0,1.0,0.0
2907,79.0,0.0,240.0,2.0,0.0
2908,64.0,0.0,240.0,4.0,0.0
2909,67.0,0.0,240.0,4.0,0.0
2910,60.0,0.0,120.0,3.0,0.0
2911,84.0,0.0,210.0,1.0,0.0
2912,69.0,25.0,180.0,4.0,0.0
2913,65.0,0.0,180.0,4.0,0.0
2914,81.0,35.0,210.0,2.0,0.0
2915,60.0,180.0,120.0,3.0,0.0
2916,65.0,0.0,180.0,4.0,0.0
2917,50.0,110.0,180.0,5.0,0.0
2918,38.0,0.0,180.0,5.0,0.0
2919,69.0,10.0,180.0,4.0,0.0
2920,62.0,120.0,180.0,3.0,0.0
2921,67.0,0.0,180.0,4.0,0.0
2922,70.0,10.0,180.0,4.0,0.0
2923,46.0,50.0,180.0,5.0,0.0
2924,34.0,0.0,180.0,5.0,0.0
2925,62.0,180.0,120.0,3.0,0.0
2926,36.0,100.0,390.0,5.0,0.0
2927,48.0,0.0,390.0,5.0,0.0
2928,65.0,0.0,180.0,4.0,0.0
2929,69.0,60.0,180.0,4.0,0.0
2930,60.0,140.0,120.0,3.0,0.0
2931,65.0,0.0,240.0,4.0,0.0
2932,81.0,0.0,240.0,1.0,0.0
2933,77.0,240.0,240.0,2.0,0.0
2934,69.0,0.0,240.0,4.0,0.0
2935,60.0,0.0,120.0,3.0,0.0
2936,64.0,0.0,240.0,4.0,0.0
2937,67.0,80.0,240.0,4.0,0.0
2938,79.0,0.0,240.0,1.0,0.0
2939,76.0,0.0,240.0,2.0,0.0
2940,60.0,0.0,120.0,3.0,0.0
2941,65.0,120.0,90.0,4.0,0.0
2942,77.0,115.0,210.0,1.0,0.0
2943,60.0,5.0,90.0,4.0,0.0
2944,53.0,10.0,180.0,5.0,0.0
2945,57.0,110.0,90.0,4.0,0.0
2946,60.0,118.0,90.0,4.0,0.0
2947,41.0,0.0,90.0,5.0,0.0
2948,65.0,402.0,90.0,4.0,0.0
2949,53.0,0.0,240.0,5.0,0.0
2950,69.0,50.0,300.0,1.0,0.0
2951,60.0,70.0,120.0,3.0,0.0
2952,57.0,120.0,120.0,3.0,0.0
2953,60.0,240.0,120.0,3.0,0.0
2954,69.0,0.0,720.0,1.0,0.0
2955,53.0,120.0,240.0,5.0,0.0
2956,60.0,0.0,120.0,3.0,0.0
2957,57.0,120.0,120.0,3.0,0.0
2958,60.0,120.0,120.0,3.0,0.0
2959,53.0,120.0,120.0,5.0,0.0
2960,60.0,136.0,120.0,3.0,0.0
2961,70.0,25.0,180.0,1.0,0.0
2962,55.0,54.0,150.0,5.0,0.0
2963,60.0,145.0,90.0,3.0,0.0
2964,57.0,120.0,120.0,5.0,0.0
2965,74.0,0.0,240.0,1.0,0.0
2966,60.0,120.0,120.0,3.0,0.0
2967,72.0,55.0,180.0,1.0,0.0
2968,53.0,65.0,120.0,5.0,0.0
2969,60.0,120.0,120.0,3.0,0.0
2970,57.0,120.0,120.0,5.0,0.0
2971,60.0,120.0,120.0,3.0,0.0
2972,53.0,35.0,120.0,5.0,0.0
2973,72.0,85.0,150.0,1.0,0.0
2974,60.0,120.0,120.0,3.0,0.0
2975,74.0,120.0,120.0,1.0,0.0
2976,57.0,0.0,120.0,5.0,0.0
2977,72.0,0.0,120.0,1.0,0.0
2978,60.0,120.0,120.0,3.0,0.0
2979,53.0,90.0,120.0,5.0,0.0
2980,70.0,0.0,120.0,1.0,0.0
2981,69.0,5.0,90.0,1.0,0.0
2982,60.0,265.0,90.0,3.0,0.0
2983,69.0,0.0,240.0,1.0,0.0
2984,52.0,120.0,240.0,5.0,0.0
2985,60.0,0.0,120.0,3.0,0.0
2986,59.0,60.0,120.0,3.0,0.0
2987,67.0,60.0,180.0,1.0,0.0
2988,60.0,240.0,120.0,3.0,0.0
2989,52.0,120.0,240.0,5.0,0.0
2990,67.0,120.0,720.0,1.0,0.0
2991,60.0,0.0,120.0,3.0,0.0
2992,59.0,120.0,120.0,3.0,0.0
2993,60.0,120.0,120.0,3.0,0.0
2994,52.0,120.0,120.0,5.0,0.0
2995,60.0,0.0,120.0,3.0,0.0
2996,53.0,70.0,120.0,5.0,0.0
2997,69.0,25.0,180.0,1.0,0.0
2998,60.0,265.0,90.0,3.0,0.0
2999,54.0,0.0,240.0,5.0,0.0
3000,72.0,0.0,480.0,1.0,0.0
3001,60.0,120.0,120.0,3.0,0.0
3002,59.0,120.0,120.0,3.0,0.0
3003,60.0,240.0,120.0,3.0,0.0
3004,55.0,0.0,240.0,5.0,0.0
3005,70.0,120.0,240.0,1.0,0.0
3006,60.0,0.0,120.0,3.0,0.0
3007,59.0,80.0,120.0,3.0,0.0
3008,70.0,40.0,90.0,1.0,0.0
3009,60.0,120.0,120.0,3.0,0.0
3010,72.0,0.0,120.0,1.0,0.0
3011,52.0,120.0,120.0,5.0,0.0
3012,60.0,0.0,120.0,3.0,0.0
3013,70.0,120.0,120.0,1.0,0.0
3014,69.0,95.0,120.0,1.0,0.0
3015,48.0,0.0,120.0,5.0,0.0
3016,60.0,265.0,90.0,3.0,0.0
3017,67.0,0.0,90.0,1.0,0.0
3018,50.0,120.0,240.0,5.0,0.0
3019,67.0,0.0,240.0,1.0,0.0
3020,60.0,0.0,120.0,3.0,0.0
3021,59.0,65.0,120.0,3.0,0.0
3022,65.0,30.0,180.0,1.0,0.0
3023,60.0,265.0,90.0,3.0,0.0
3024,50.0,120.0,360.0,5.0,0.0
3025,65.0,120.0,120.0,1.0,0.0
3026,64.0,0.0,120.0,1.0,0.0
3027,65.0,120.0,120.0,1.0,0.0
3028,67.0,120.0,120.0,1.0,0.0
3029,65.0,120.0,120.0,1.0,0.0
3030,70.0,95.0,120.0,1.0,0.0
3031,69.0,265.0,90.0,1.0,0.0
3032,52.0,0.0,240.0,5.0,0.0
3033,66.0,0.0,240.0,1.0,0.0
3034,60.0,120.0,120.0,3.0,0.0
3035,59.0,65.0,120.0,3.0,0.0
3036,67.0,30.0,180.0,1.0,0.0
3037,60.0,265.0,90.0,3.0,0.0
3038,52.0,120.0,360.0,5.0,0.0
3039,67.0,120.0,120.0,1.0,0.0
3040,66.0,0.0,120.0,1.0,0.0
3041,67.0,120.0,120.0,1.0,0.0
3042,69.0,120.0,120.0,1.0,0.0
3043,67.0,120.0,120.0,1.0,0.0
3044,72.0,95.0,120.0,1.0,0.0
3045,70.0,145.0,90.0,1.0,0.0
3046,53.0,50.0,300.0,5.0,0.0
3047,70.0,120.0,120.0,1.0,0.0
3048,60.0,0.0,300.0,4.0,0.0
3049,69.0,70.0,120.0,1.0,0.0
3050,68.0,120.0,120.0,1.0,0.0
3051,69.0,120.0,120.0,1.0,0.0
3052,70.0,120.0,120.0,1.0,0.0
3053,53.0,0.0,300.0,4.0,0.0
3054,50.0,50.0,300.0,5.0,0.0
3055,69.0,70.0,120.0,1.0,0.0
3056,68.0,120.0,120.0,1.0,0.0
3057,69.0,120.0,120.0,1.0,0.0
3058,55.0,50.0,300.0,4.0,0.0
3059,72.0,120.0,120.0,1.0,0.0
3060,46.0,0.0,300.0,5.0,0.0
3061,70.0,70.0,120.0,1.0,0.0
3062,69.0,95.0,120.0,1.0,0.0
3063,70.0,145.0,90.0,1.0,0.0
3064,48.0,0.0,390.0,5.0,0.0
3065,52.0,95.0,390.0,4.0,0.0
3066,69.0,120.0,120.0,1.0,0.0
3067,67.0,120.0,120.0,1.0,0.0
3068,66.0,25.0,120.0,1.0,0.0
3069,67.0,120.0,120.0,1.0,0.0
3070,65.0,120.0,120.0,1.0,0.0
3071,64.0,120.0,120.0,1.0,0.0
3072,63.0,120.0,120.0,1.0,0.0
3073,64.0,120.0,120.0,1.0,0.0
3074,62.0,120.0,120.0,1.0,0.0
3075,60.0,120.0,120.0,1.0,0.0
3076,59.0,95.0,120.0,1.0,0.0
3077,60.0,180.0,90.0,1.0,0.0
3078,41.0,74.0,1920.0,5.0,0.0
3079,69.0,0.0,150.0,1.0,0.0
3080,65.0,60.0,150.0,2.0,0.0
3081,53.0,120.0,90.0,4.0,0.0
3082,65.0,25.0,300.0,2.0,0.0
3083,53.0,120.0,90.0,4.0,0.0
3084,69.0,0.0,300.0,1.0,0.0
3085,53.0,95.0,90.0,4.0,0.0
3086,53.0,120.0,90.0,4.0,0.0
3087,53.0,120.0,90.0,4.0,0.0
3088,69.0,0.0,240.0,1.0,0.0
3089,66.0,95.0,240.0,2.0,0.0
3090,53.0,120.0,90.0,4.0,0.0
3091,53.0,25.0,90.0,4.0,0.0
3092,70.0,95.0,240.0,1.0,0.0
3093,67.0,0.0,240.0,2.0,0.0
3094,53.0,120.0,90.0,4.0,0.0
3095,53.0,25.0,90.0,4.0,0.0
3096,53.0,80.0,90.0,4.0,0.0
3097,71.0,5.0,180.0,1.0,0.0
3098,68.0,35.0,180.0,2.0,0.0
3099,53.0,120.0,90.0,4.0,0.0
3100,72.0,105.0,90.0,1.0,0.0
3101,69.0,0.0,90.0,2.0,0.0
3102,53.0,6.0,480.0,4.0,0.0
3103,65.0,120.0,90.0,1.0,0.0
3104,67.0,120.0,90.0,1.0,0.0
3105,69.0,40.0,90.0,1.0,0.0
3106,70.0,120.0,90.0,1.0,0.0
3107,72.0,120.0,90.0,1.0,0.0
3108,74.0,120.0,90.0,1.0,0.0
3109,76.0,160.0,90.0,1.0,0.0
3110,77.0,120.0,120.0,1.0,0.0
3111,79.0,95.0,120.0,1.0,0.0
3112,81.0,265.0,90.0,1.0,0.0
3113,36.0,89.0,1920.0,5.0,0.0
3114,69.0,0.0,120.0,1.0,0.0
3115,65.0,95.0,120.0,2.0,0.0
3116,67.0,120.0,90.0,1.0,0.0
3117,48.0,0.0,90.0,4.0,0.0
3118,64.0,0.0,90.0,2.0,0.0
3119,67.0,25.0,300.0,1.0,0.0
3120,48.0,120.0,90.0,4.0,0.0
3121,64.0,0.0,300.0,2.0,0.0
3122,48.0,95.0,90.0,4.0,0.0
3123,48.0,120.0,90.0,4.0,0.0
3124,48.0,120.0,90.0,4.0,0.0
3125,64.0,0.0,240.0,2.0,0.0
3126,48.0,120.0,90.0,4.0,0.0
3127,67.0,95.0,240.0,1.0,0.0
3128,48.0,25.0,90.0,4.0,0.0
3129,68.0,95.0,240.0,1.0,0.0
3130,48.0,120.0,90.0,4.0,0.0
3131,65.0,0.0,240.0,2.0,0.0
3132,48.0,25.0,90.0,4.0,0.0
3133,48.0,95.0,90.0,4.0,0.0
3134,66.0,0.0,180.0,2.0,0.0
3135,69.0,25.0,180.0,1.0,0.0
3136,48.0,120.0,90.0,4.0,0.0
3137,70.0,0.0,90.0,1.0,0.0
3138,48.0,6.0,480.0,4.0,0.0
3139,67.0,120.0,90.0,2.0,0.0
3140,67.0,120.0,90.0,1.0,0.0
3141,69.0,120.0,90.0,1.0,0.0
3142,70.0,25.0,90.0,1.0,0.0
3143,72.0,120.0,90.0,1.0,0.0
3144,74.0,120.0,90.0,1.0,0.0
3145,76.0,120.0,90.0,1.0,0.0
3146,77.0,145.0,90.0,1.0,0.0
3147,79.0,120.0,120.0,1.0,0.0
3148,81.0,120.0,120.0,1.0,0.0
3149,82.0,240.0,120.0,1.0,0.0
3150,67.0,95.0,120.0,1.0,0.0
3151,65.0,340.0,90.0,1.0,0.0
3152,65.0,165.0,300.0,1.0,0.0
3153,60.0,0.0,300.0,4.0,0.0
3154,50.0,50.0,300.0,5.0,0.0
3155,65.0,70.0,120.0,1.0,0.0
3156,70.0,95.0,120.0,1.0,0.0
3157,69.0,145.0,90.0,1.0,0.0
3158,60.0,50.0,300.0,4.0,0.0
3159,52.0,0.0,300.0,5.0,0.0
3160,66.0,120.0,120.0,1.0,0.0
3161,67.0,70.0,120.0,1.0,0.0
3162,72.0,95.0,120.0,1.0,0.0
3163,70.0,145.0,90.0,1.0,0.0
3164,60.0,0.0,300.0,4.0,0.0
3165,68.0,95.0,120.0,1.0,0.0
3166,53.0,10.0,300.0,5.0,0.0
3167,69.0,95.0,90.0,1.0,0.0
3168,77.0,120.0,90.0,1.0,0.0
3169,77.0,120.0,90.0,1.0,0.0
3170,77.0,120.0,90.0,1.0,0.0
3171,77.0,120.0,90.0,1.0,0.0
3172,77.0,120.0,90.0,1.0,0.0
3173,77.0,160.0,90.0,1.0,0.0
3174,46.0,95.0,390.0,5.0,0.0
3175,50.0,0.0,390.0,4.0,0.0
3176,77.0,120.0,120.0,1.0,0.0
3177,55.0,0.0,390.0,4.0,0.0
3178,74.0,120.0,120.0,1.0,0.0
3179,70.0,25.0,120.0,1.0,0.0
3180,67.0,120.0,120.0,1.0,0.0
3181,72.0,40.0,120.0,1.0,0.0
3182,57.0,0.0,780.0,4.0,0.0
3183,48.0,5.0,1350.0,5.0,0.0
3184,53.0,430.0,780.0,4.0,0.0
3185,74.0,40.0,30.0,1.0,0.0
3186,72.0,40.0,30.0,1.0,0.0
3187,71.0,120.0,30.0,1.0,0.0
3188,72.0,95.0,120.0,1.0,0.0
3189,74.0,315.0,90.0,1.0,0.0
3190,65.0,120.0,720.0,1.0,0.0
3191,55.0,70.0,390.0,4.0,0.0
3192,58.0,0.0,390.0,4.0,0.0
3193,69.0,20.0,120.0,1.0,0.0
3194,67.0,505.0,90.0,1.0,0.0
3195,58.0,190.0,480.0,4.0,0.0
3196,67.0,0.0,480.0,1.0,0.0
3197,53.0,265.0,690.0,5.0,0.0
3198,57.0,5.0,210.0,4.0,0.0
3199,65.0,20.0,180.0,1.0,0.0
3200,60.0,60.0,60.0,1.0,0.0
3201,62.0,60.0,60.0,1.0,0.0
3202,65.0,60.0,60.0,1.0,0.0
3203,64.0,60.0,60.0,1.0,0.0
3204,67.0,60.0,60.0,1.0,0.0
3205,65.0,60.0,60.0,1.0,0.0
3206,69.0,60.0,60.0,1.0,0.0
3207,67.0,60.0,60.0,1.0,0.0
3208,70.0,240.0,60.0,1.0,0.0
3209,69.0,50.0,300.0,1.0,0.0
3210,53.0,70.0,240.0,5.0,0.0
3211,60.0,0.0,120.0,3.0,0.0
3212,57.0,120.0,120.0,3.0,0.0
3213,60.0,240.0,120.0,3.0,0.0
3214,69.0,136.0,720.0,1.0,0.0
3215,53.0,0.0,240.0,5.0,0.0
3216,60.0,120.0,120.0,3.0,0.0
3217,57.0,120.0,120.0,3.0,0.0
3218,60.0,120.0,120.0,3.0,0.0
3219,53.0,120.0,120.0,5.0,0.0
3220,60.0,0.0,120.0,3.0,0.0
3221,70.0,25.0,180.0,1.0,0.0
3222,55.0,54.0,150.0,5.0,0.0
3223,60.0,145.0,90.0,3.0,0.0
3224,57.0,120.0,120.0,5.0,0.0
3225,74.0,0.0,240.0,1.0,0.0
3226,60.0,120.0,120.0,3.0,0.0
3227,53.0,65.0,120.0,5.0,0.0
3228,72.0,55.0,180.0,1.0,0.0
3229,60.0,120.0,120.0,3.0,0.0
3230,57.0,120.0,120.0,5.0,0.0
3231,60.0,120.0,120.0,3.0,0.0
3232,72.0,85.0,150.0,1.0,0.0
3233,53.0,35.0,120.0,5.0,0.0
3234,60.0,120.0,120.0,3.0,0.0
3235,57.0,0.0,120.0,5.0,0.0
3236,74.0,120.0,120.0,1.0,0.0
3237,60.0,0.0,120.0,3.0,0.0
3238,72.0,120.0,120.0,1.0,0.0
3239,53.0,90.0,120.0,5.0,0.0
3240,70.0,0.0,120.0,1.0,0.0
3241,69.0,5.0,90.0,1.0,0.0
3242,60.0,265.0,90.0,3.0,0.0
3243,52.0,0.0,240.0,5.0,0.0
3244,69.0,120.0,240.0,1.0,0.0
3245,60.0,0.0,120.0,3.0,0.0
3246,59.0,60.0,120.0,3.0,0.0
3247,67.0,60.0,180.0,1.0,0.0
3248,60.0,240.0,120.0,3.0,0.0
3249,67.0,120.0,720.0,1.0,0.0
3250,52.0,0.0,240.0,5.0,0.0
3251,60.0,120.0,120.0,3.0,0.0
3252,59.0,120.0,120.0,3.0,0.0
3253,60.0,120.0,120.0,3.0,0.0
3254,52.0,120.0,120.0,5.0,0.0
3255,60.0,0.0,120.0,3.0,0.0
3256,53.0,70.0,120.0,5.0,0.0
3257,69.0,25.0,180.0,1.0,0.0
3258,60.0,265.0,90.0,3.0,0.0
3259,54.0,0.0,240.0,5.0,0.0
3260,72.0,0.0,480.0,1.0,0.0
3261,60.0,120.0,120.0,3.0,0.0
3262,59.0,120.0,120.0,3.0,0.0
3263,60.0,240.0,120.0,3.0,0.0
3264,55.0,120.0,240.0,5.0,0.0
3265,70.0,0.0,240.0,1.0,0.0
3266,60.0,0.0,120.0,3.0,0.0
3267,59.0,80.0,120.0,3.0,0.0
3268,70.0,40.0,90.0,1.0,0.0
3269,60.0,120.0,120.0,3.0,0.0
3270,72.0,120.0,120.0,1.0,0.0
3271,52.0,0.0,120.0,5.0,0.0
3272,70.0,120.0,120.0,1.0,0.0
3273,60.0,0.0,120.0,3.0,0.0
3274,69.0,95.0,120.0,1.0,0.0
3275,48.0,0.0,120.0,5.0,0.0
3276,60.0,0.0,90.0,3.0,0.0
3277,67.0,265.0,90.0,1.0,0.0
3278,67.0,120.0,240.0,1.0,0.0
3279,50.0,0.0,240.0,5.0,0.0
3280,60.0,0.0,120.0,3.0,0.0
3281,59.0,65.0,120.0,3.0,0.0
3282,65.0,30.0,180.0,1.0,0.0
3283,60.0,265.0,90.0,3.0,0.0
3284,50.0,120.0,360.0,5.0,0.0
3285,65.0,120.0,120.0,1.0,0.0
3286,64.0,0.0,120.0,1.0,0.0
3287,65.0,120.0,120.0,1.0,0.0
3288,67.0,120.0,120.0,1.0,0.0
3289,65.0,120.0,120.0,1.0,0.0
3290,70.0,95.0,120.0,1.0,0.0
3291,69.0,265.0,90.0,1.0,0.0
3292,66.0,0.0,240.0,1.0,0.0
3293,52.0,120.0,240.0,5.0,0.0
3294,60.0,0.0,120.0,3.0,0.0
3295,67.0,30.0,180.0,1.0,0.0
3296,59.0,65.0,120.0,3.0,0.0
3297,60.0,265.0,90.0,3.0,0.0
3298,52.0,120.0,360.0,5.0,0.0
3299,67.0,120.0,120.0,1.0,0.0
3300,66.0,0.0,120.0,1.0,0.0
3301,67.0,120.0,120.0,1.0,0.0
3302,69.0,120.0,120.0,1.0,0.0
3303,67.0,120.0,120.0,1.0,0.0
3304,72.0,95.0,120.0,1.0,0.0
3305,70.0,145.0,90.0,1.0,0.0
3306,70.0,120.0,120.0,1.0,0.0
3307,60.0,50.0,300.0,4.0,0.0
3308,53.0,0.0,300.0,5.0,0.0
3309,69.0,70.0,120.0,1.0,0.0
3310,68.0,120.0,120.0,1.0,0.0
3311,69.0,120.0,120.0,1.0,0.0
3312,50.0,0.0,300.0,5.0,0.0
3313,53.0,50.0,300.0,4.0,0.0
3314,70.0,120.0,120.0,1.0,0.0
3315,69.0,70.0,120.0,1.0,0.0
3316,68.0,120.0,120.0,1.0,0.0
3317,69.0,120.0,120.0,1.0,0.0
3318,55.0,0.0,300.0,4.0,0.0
3319,72.0,120.0,120.0,1.0,0.0
3320,46.0,50.0,300.0,5.0,0.0
3321,70.0,70.0,120.0,1.0,0.0
3322,69.0,95.0,120.0,1.0,0.0
3323,70.0,145.0,90.0,1.0,0.0
3324,52.0,0.0,390.0,4.0,0.0
3325,69.0,120.0,120.0,1.0,0.0
3326,48.0,95.0,390.0,5.0,0.0
3327,67.0,120.0,120.0,1.0,0.0
3328,66.0,25.0,120.0,1.0,0.0
3329,67.0,120.0,120.0,1.0,0.0
3330,65.0,120.0,120.0,1.0,0.0
3331,64.0,120.0,120.0,1.0,0.0
3332,63.0,120.0,120.0,1.0,0.0
3333,64.0,120.0,120.0,1.0,0.0
3334,62.0,120.0,120.0,1.0,0.0
3335,60.0,120.0,120.0,1.0,0.0
3336,59.0,95.0,120.0,1.0,0.0
3337,60.0,180.0,90.0,1.0,0.0
3338,69.0,0.0,150.0,1.0,0.0
3339,65.0,60.0,150.0,2.0,0.0
3340,41.0,12.0,1920.0,5.0,0.0
3341,53.0,120.0,90.0,4.0,0.0
3342,69.0,25.0,300.0,1.0,0.0
3343,65.0,0.0,300.0,2.0,0.0
3344,53.0,120.0,90.0,4.0,0.0
3345,53.0,95.0,90.0,4.0,0.0
3346,53.0,120.0,90.0,4.0,0.0
3347,53.0,120.0,90.0,4.0,0.0
3348,66.0,95.0,240.0,2.0,0.0
3349,69.0,0.0,240.0,1.0,0.0
3350,53.0,120.0,90.0,4.0,0.0
3351,53.0,25.0,90.0,4.0,0.0
3352,70.0,0.0,240.0,1.0,0.0
3353,67.0,95.0,240.0,2.0,0.0
3354,53.0,120.0,90.0,4.0,0.0
3355,53.0,25.0,90.0,4.0,0.0
3356,71.0,5.0,180.0,1.0,0.0
3357,68.0,35.0,180.0,2.0,0.0
3358,53.0,80.0,90.0,4.0,0.0
3359,53.0,120.0,90.0,4.0,0.0
3360,53.0,80.0,480.0,4.0,0.0
3361,72.0,0.0,90.0,1.0,0.0
3362,69.0,105.0,90.0,2.0,0.0
3363,65.0,120.0,90.0,1.0,0.0
3364,67.0,120.0,90.0,1.0,0.0
3365,69.0,28.0,90.0,1.0,0.0
3366,70.0,120.0,90.0,1.0,0.0
3367,72.0,120.0,90.0,1.0,0.0
3368,74.0,120.0,90.0,1.0,0.0
3369,76.0,160.0,90.0,1.0,0.0
3370,77.0,120.0,120.0,1.0,0.0
3371,79.0,95.0,120.0,1.0,0.0
3372,81.0,265.0,90.0,1.0,0.0
3373,65.0,0.0,120.0,2.0,0.0
3374,36.0,12.0,1920.0,5.0,0.0
3375,69.0,95.0,120.0,1.0,0.0
3376,48.0,0.0,90.0,4.0,0.0
3377,64.0,120.0,90.0,2.0,0.0
3378,67.0,0.0,90.0,1.0,0.0
3379,48.0,120.0,90.0,4.0,0.0
3380,64.0,25.0,300.0,2.0,0.0
3381,67.0,0.0,300.0,1.0,0.0
3382,48.0,95.0,90.0,4.0,0.0
3383,48.0,120.0,90.0,4.0,0.0
3384,48.0,120.0,90.0,4.0,0.0
3385,67.0,95.0,240.0,1.0,0.0
3386,48.0,120.0,90.0,4.0,0.0
3387,64.0,0.0,240.0,2.0,0.0
3388,48.0,25.0,90.0,4.0,0.0
3389,48.0,120.0,90.0,4.0,0.0
3390,68.0,0.0,240.0,1.0,0.0
3391,65.0,95.0,240.0,2.0,0.0
3392,48.0,25.0,90.0,4.0,0.0
3393,48.0,95.0,90.0,4.0,0.0
3394,66.0,25.0,180.0,2.0,0.0
3395,69.0,0.0,180.0,1.0,0.0
3396,48.0,120.0,90.0,4.0,0.0
3397,70.0,0.0,90.0,1.0,0.0
3398,67.0,120.0,90.0,2.0,0.0
3399,48.0,95.0,480.0,4.0,0.0
3400,67.0,120.0,90.0,1.0,0.0
3401,69.0,120.0,90.0,1.0,0.0
3402,70.0,13.0,90.0,1.0,0.0
3403,72.0,120.0,90.0,1.0,0.0
3404,74.0,120.0,90.0,1.0,0.0
3405,76.0,120.0,90.0,1.0,0.0
3406,77.0,145.0,90.0,1.0,0.0
3407,79.0,120.0,120.0,1.0,0.0
3408,81.0,120.0,120.0,1.0,0.0
3409,82.0,240.0,120.0,1.0,0.0
3410,67.0,95.0,120.0,1.0,0.0
3411,65.0,340.0,90.0,1.0,0.0
3412,65.0,165.0,300.0,1.0,0.0
3413,50.0,0.0,300.0,5.0,0.0
3414,60.0,50.0,300.0,4.0,0.0
3415,65.0,70.0,120.0,1.0,0.0
3416,70.0,95.0,120.0,1.0,0.0
3417,69.0,145.0,90.0,1.0,0.0
3418,66.0,120.0,120.0,1.0,0.0
3419,52.0,50.0,300.0,5.0,0.0
3420,60.0,0.0,300.0,4.0,0.0
3421,67.0,70.0,120.0,1.0,0.0
3422,72.0,95.0,120.0,1.0,0.0
3423,70.0,145.0,90.0,1.0,0.0
3424,53.0,10.0,300.0,5.0,0.0
3425,68.0,95.0,120.0,1.0,0.0
3426,60.0,0.0,300.0,4.0,0.0
3427,69.0,95.0,90.0,1.0,0.0
3428,77.0,120.0,90.0,1.0,0.0
3429,77.0,120.0,90.0,1.0,0.0
3430,77.0,120.0,90.0,1.0,0.0
3431,77.0,120.0,90.0,1.0,0.0
3432,77.0,120.0,90.0,1.0,0.0
3433,77.0,160.0,90.0,1.0,0.0
3434,46.0,95.0,390.0,5.0,0.0
3435,77.0,120.0,120.0,1.0,0.0
3436,50.0,0.0,390.0,4.0,0.0
3437,55.0,0.0,390.0,4.0,0.0
3438,74.0,120.0,120.0,1.0,0.0
3439,70.0,25.0,120.0,1.0,0.0
3440,67.0,120.0,120.0,1.0,0.0
3441,72.0,40.0,120.0,1.0,0.0
3442,57.0,430.0,780.0,4.0,0.0
3443,53.0,0.0,780.0,4.0,0.0
3444,48.0,5.0,1350.0,5.0,0.0
3445,74.0,40.0,30.0,1.0,0.0
3446,72.0,40.0,30.0,1.0,0.0
3447,71.0,120.0,30.0,1.0,0.0
3448,72.0,95.0,120.0,1.0,0.0
3449,74.0,315.0,90.0,1.0,0.0
3450,65.0,120.0,720.0,1.0,0.0
3451,58.0,70.0,390.0,4.0,0.0
3452,55.0,0.0,390.0,4.0,0.0
3453,69.0,20.0,120.0,1.0,0.0
3454,67.0,505.0,90.0,1.0,0.0
3455,67.0,0.0,480.0,1.0,0.0
3456,58.0,85.0,480.0,4.0,0.0
3457,53.0,5.0,810.0,4.0,0.0
3458,57.0,25.0,330.0,4.0,0.0
3459,65.0,75.0,90.0,1.0,0.0
3460,67.0,40.0,30.0,1.0,0.0
3461,65.0,40.0,30.0,1.0,0.0
3462,64.0,90.0,30.0,1.0,0.0
3463,65.0,95.0,120.0,1.0,0.0
3464,67.0,145.0,90.0,1.0,0.0
3465,69.0,40.0,120.0,1.0,0.0
3466,70.0,40.0,30.0,1.0,0.0
3467,69.0,40.0,30.0,1.0,0.0
3468,67.0,120.0,30.0,1.0,0.0
3469,69.0,95.0,120.0,1.0,0.0
3470,70.0,145.0,90.0,1.0,0.0
3471,72.0,60.0,360.0,1.0,0.0
3472,53.0,120.0,120.0,5.0,0.0
3473,65.0,120.0,120.0,3.0,0.0
3474,57.0,0.0,120.0,5.0,0.0
3475,74.0,60.0,60.0,1.0,0.0
3476,65.0,0.0,120.0,3.0,0.0
3477,72.0,120.0,60.0,1.0,0.0
3478,53.0,70.0,120.0,5.0,0.0
3479,70.0,50.0,180.0,1.0,0.0
3480,64.0,120.0,120.0,3.0,0.0
3481,69.0,50.0,180.0,1.0,0.0
3482,55.0,70.0,120.0,5.0,0.0
3483,64.0,120.0,120.0,3.0,0.0
3484,53.0,70.0,120.0,5.0,0.0
3485,67.0,50.0,180.0,1.0,0.0
3486,63.0,120.0,120.0,3.0,0.0
3487,65.0,25.0,180.0,1.0,0.0
3488,57.0,70.0,120.0,5.0,0.0
3489,63.0,265.0,90.0,3.0,0.0
3490,65.0,0.0,360.0,1.0,0.0
3491,53.0,0.0,360.0,5.0,0.0
3492,62.0,120.0,120.0,3.0,0.0
3493,58.0,120.0,120.0,3.0,0.0
3494,62.0,240.0,120.0,3.0,0.0
3495,74.0,0.0,15.0,1.0,0.0
3496,50.0,0.0,360.0,5.0,0.0
3497,58.0,120.0,120.0,3.0,0.0
3498,53.0,35.0,120.0,3.0,0.0
3499,58.0,240.0,120.0,3.0,0.0
3500,46.0,0.0,360.0,5.0,0.0
3501,58.0,60.0,540.0,1.0,0.0
3502,53.0,120.0,120.0,3.0,0.0
3503,50.0,95.0,120.0,3.0,0.0
3504,53.0,85.0,90.0,3.0,0.0
3505,41.0,0.0,360.0,5.0,0.0
3506,62.0,60.0,60.0,1.0,0.0
3507,50.0,0.0,120.0,3.0,0.0
3508,60.0,60.0,60.0,1.0,0.0
3509,58.0,60.0,60.0,3.0,0.0
3510,60.0,60.0,60.0,1.0,0.0
3511,46.0,60.0,120.0,3.0,0.0
3512,62.0,0.0,60.0,1.0,0.0
3513,50.0,60.0,120.0,3.0,0.0
3514,63.0,60.0,60.0,1.0,0.0
3515,65.0,0.0,60.0,1.0,0.0
3516,67.0,60.0,60.0,1.0,0.0
3517,41.0,25.0,360.0,5.0,0.0
3518,69.0,60.0,60.0,1.0,0.0
3519,70.0,60.0,60.0,1.0,0.0
3520,50.0,65.0,120.0,3.0,0.0
3521,72.0,0.0,60.0,1.0,0.0
3522,46.0,0.0,120.0,3.0,0.0
3523,74.0,55.0,60.0,1.0,0.0
3524,75.0,80.0,60.0,1.0,0.0
3525,50.0,95.0,120.0,3.0,0.0
3526,77.0,15.0,60.0,1.0,0.0
3527,79.0,120.0,90.0,1.0,0.0
3528,41.0,25.0,360.0,5.0,0.0
3529,50.0,120.0,120.0,3.0,0.0
3530,81.0,25.0,90.0,1.0,0.0
3531,82.0,70.0,150.0,1.0,0.0
3532,46.0,0.0,120.0,3.0,0.0
3533,50.0,15.0,90.0,3.0,0.0
3534,74.0,370.0,60.0,1.0,0.0
3535,77.0,120.0,360.0,1.0,0.0
3536,41.0,0.0,480.0,5.0,0.0
3537,46.0,155.0,480.0,4.0,0.0
3538,74.0,0.0,120.0,1.0,0.0
3539,72.0,225.0,150.0,1.0,0.0
3540,41.0,0.0,390.0,5.0,0.0
3541,45.0,15.0,390.0,4.0,0.0
3542,72.0,240.0,150.0,1.0,0.0
3543,72.0,240.0,150.0,1.0,0.0
3544,72.0,205.0,150.0,1.0,0.0
3545,74.0,120.0,120.0,1.0,0.0
3546,60.0,5.0,1350.0,4.0,0.0
3547,57.0,205.0,1350.0,4.0,0.0
3548,53.0,0.0,1350.0,5.0,0.0
3549,72.0,120.0,120.0,1.0,0.0
3550,69.0,120.0,120.0,1.0,0.0
3551,67.0,190.0,120.0,1.0,0.0
3552,65.0,205.0,180.0,1.0,0.0
3553,72.0,240.0,150.0,1.0,0.0
3554,72.0,235.0,150.0,1.0,0.0
3555,72.0,0.0,150.0,1.0,0.0
3556,55.0,20.0,1320.0,5.0,0.0
3557,74.0,120.0,120.0,1.0,0.0
3558,58.0,10.0,1320.0,4.0,0.0
3559,60.0,5.0,1320.0,4.0,0.0
3560,72.0,120.0,120.0,1.0,0.0
3561,70.0,120.0,120.0,1.0,0.0
3562,67.0,190.0,120.0,1.0,0.0
3563,64.0,205.0,180.0,1.0,0.0
3564,72.0,240.0,150.0,1.0,0.0
3565,72.0,205.0,150.0,1.0,0.0
3566,72.0,205.0,150.0,1.0,0.0
3567,74.0,120.0,120.0,1.0,0.0
3568,60.0,70.0,390.0,4.0,0.0
3569,53.0,0.0,390.0,5.0,0.0
3570,57.0,0.0,390.0,4.0,0.0
3571,72.0,120.0,120.0,1.0,0.0
3572,69.0,25.0,120.0,1.0,0.0
3573,65.0,145.0,90.0,1.0,0.0
3574,60.0,70.0,390.0,4.0,0.0
3575,52.0,0.0,390.0,5.0,0.0
3576,55.0,0.0,390.0,3.0,0.0
3577,74.0,120.0,120.0,1.0,0.0
3578,72.0,120.0,120.0,1.0,0.0
3579,70.0,25.0,120.0,1.0,0.0
3580,67.0,145.0,90.0,1.0,0.0
3581,53.0,70.0,390.0,5.0,0.0
3582,57.0,0.0,390.0,4.0,0.0
3583,60.0,0.0,390.0,4.0,0.0
3584,74.0,120.0,120.0,1.0,0.0
3585,72.0,120.0,120.0,1.0,0.0
3586,69.0,25.0,120.0,1.0,0.0
3587,65.0,505.0,90.0,1.0,0.0
3588,69.0,0.0,480.0,1.0,0.0
3589,57.0,95.0,480.0,4.0,0.0
3590,53.0,0.0,480.0,4.0,0.0
3591,48.0,10.0,840.0,5.0,0.0
3592,67.0,145.0,90.0,1.0,0.0
3593,55.0,95.0,390.0,3.0,0.0
3594,52.0,0.0,390.0,4.0,0.0
3595,60.0,120.0,120.0,1.0,0.0
3596,72.0,15.0,120.0,1.0,0.0
3597,60.0,120.0,120.0,1.0,0.0
3598,71.0,120.0,120.0,1.0,0.0
3599,60.0,120.0,120.0,1.0,0.0
3600,70.0,95.0,120.0,1.0,0.0
3601,60.0,265.0,90.0,1.0,0.0
3602,53.0,0.0,240.0,5.0,0.0
3603,69.0,95.0,390.0,1.0,0.0
3604,60.0,120.0,120.0,3.0,0.0
3605,57.0,25.0,120.0,3.0,0.0
3606,60.0,240.0,120.0,3.0,0.0
3607,69.0,40.0,600.0,1.0,0.0
3608,53.0,120.0,240.0,5.0,0.0
3609,60.0,0.0,120.0,3.0,0.0
3610,57.0,120.0,120.0,3.0,0.0
3611,60.0,120.0,120.0,3.0,0.0
3612,53.0,0.0,120.0,5.0,0.0
3613,70.0,40.0,30.0,1.0,0.0
3614,60.0,0.0,120.0,3.0,0.0
3615,69.0,40.0,30.0,1.0,0.0
3616,67.0,120.0,30.0,1.0,0.0
3617,55.0,0.0,120.0,5.0,0.0
3618,69.0,95.0,120.0,1.0,0.0
3619,70.0,0.0,90.0,1.0,0.0
3620,60.0,145.0,90.0,3.0,0.0
3621,57.0,120.0,120.0,5.0,0.0
3622,74.0,120.0,240.0,1.0,0.0
3623,60.0,0.0,120.0,3.0,0.0
3624,53.0,60.0,120.0,5.0,0.0
3625,72.0,60.0,180.0,1.0,0.0
3626,60.0,120.0,120.0,3.0,0.0
3627,57.0,120.0,120.0,5.0,0.0
3628,83.0,0.0,240.0,1.0,0.0
3629,60.0,120.0,120.0,3.0,0.0
3630,53.0,0.0,120.0,5.0,0.0
3631,84.0,110.0,120.0,1.0,0.0
3632,60.0,120.0,120.0,3.0,0.0
3633,72.0,10.0,60.0,1.0,0.0
3634,74.0,120.0,120.0,1.0,0.0
3635,57.0,0.0,120.0,5.0,0.0
3636,72.0,0.0,120.0,1.0,0.0
3637,60.0,120.0,120.0,3.0,0.0
3638,70.0,95.0,120.0,1.0,0.0
3639,53.0,0.0,120.0,5.0,0.0
3640,60.0,10.0,90.0,3.0,0.0
3641,69.0,255.0,120.0,1.0,0.0
3642,69.0,120.0,240.0,1.0,0.0
3643,52.0,0.0,240.0,5.0,0.0
3644,60.0,0.0,120.0,3.0,0.0
3645,59.0,120.0,120.0,3.0,0.0
3646,67.0,70.0,420.0,1.0,0.0
3647,60.0,170.0,120.0,3.0,0.0
3648,52.0,0.0,240.0,5.0,0.0
3649,60.0,120.0,120.0,3.0,0.0
3650,59.0,120.0,120.0,3.0,0.0
3651,67.0,10.0,360.0,1.0,0.0
3652,60.0,110.0,120.0,3.0,0.0
3653,52.0,40.0,120.0,5.0,0.0
3654,69.0,40.0,30.0,1.0,0.0
3655,60.0,0.0,120.0,3.0,0.0
3656,67.0,40.0,30.0,1.0,0.0
3657,66.0,120.0,30.0,1.0,0.0
3658,67.0,0.0,120.0,1.0,0.0
3659,53.0,95.0,120.0,5.0,0.0
3660,60.0,265.0,90.0,3.0,0.0
3661,69.0,0.0,90.0,1.0,0.0
3662,72.0,0.0,240.0,1.0,0.0
3663,55.0,120.0,240.0,5.0,0.0
3664,60.0,0.0,120.0,3.0,0.0
3665,59.0,65.0,120.0,3.0,0.0
3666,70.0,55.0,180.0,1.0,0.0
3667,60.0,120.0,120.0,3.0,0.0
3668,81.0,120.0,240.0,1.0,0.0
3669,52.0,120.0,120.0,5.0,0.0
3670,60.0,0.0,120.0,3.0,0.0
3671,55.0,0.0,120.0,5.0,0.0
3672,82.0,110.0,120.0,1.0,0.0
3673,60.0,120.0,120.0,3.0,0.0
3674,70.0,10.0,60.0,1.0,0.0
3675,48.0,0.0,120.0,5.0,0.0
3676,72.0,120.0,120.0,1.0,0.0
3677,60.0,0.0,120.0,3.0,0.0
3678,70.0,120.0,120.0,1.0,0.0
3679,69.0,95.0,120.0,1.0,0.0
3680,52.0,0.0,120.0,5.0,0.0
3681,67.0,255.0,120.0,1.0,0.0
3682,60.0,10.0,90.0,3.0,0.0
3683,67.0,120.0,240.0,1.0,0.0
3684,50.0,0.0,240.0,5.0,0.0
3685,60.0,0.0,120.0,3.0,0.0
3686,59.0,120.0,120.0,3.0,0.0
3687,65.0,165.0,300.0,1.0,0.0
3688,60.0,75.0,120.0,3.0,0.0
3689,50.0,0.0,240.0,5.0,0.0
3690,65.0,120.0,120.0,1.0,0.0
3691,60.0,0.0,120.0,3.0,0.0
3692,59.0,95.0,120.0,3.0,0.0
3693,70.0,0.0,120.0,1.0,0.0
3694,69.0,25.0,90.0,1.0,0.0
3695,60.0,120.0,120.0,3.0,0.0
3696,66.0,120.0,120.0,1.0,0.0
3697,52.0,0.0,240.0,5.0,0.0
3698,60.0,120.0,120.0,3.0,0.0
3699,67.0,0.0,120.0,1.0,0.0
3700,59.0,0.0,120.0,3.0,0.0
3701,72.0,95.0,120.0,1.0,0.0
3702,60.0,145.0,90.0,3.0,0.0
3703,70.0,0.0,90.0,1.0,0.0
3704,68.0,120.0,120.0,1.0,0.0
3705,53.0,55.0,390.0,5.0,0.0
3706,69.0,80.0,120.0,1.0,0.0
3707,77.0,65.0,90.0,1.0,0.0
3708,77.0,120.0,90.0,1.0,0.0
3709,77.0,120.0,90.0,1.0,0.0
3710,77.0,120.0,90.0,1.0,0.0
3711,77.0,115.0,90.0,1.0,0.0
3712,77.0,165.0,60.0,1.0,0.0
3713,50.0,0.0,390.0,4.0,0.0
3714,77.0,120.0,120.0,1.0,0.0
3715,55.0,0.0,390.0,4.0,0.0
3716,46.0,70.0,390.0,5.0,0.0
3717,74.0,120.0,120.0,1.0,0.0
3718,70.0,25.0,120.0,1.0,0.0
3719,67.0,145.0,90.0,1.0,0.0
3720,57.0,240.0,960.0,4.0,0.0
3721,48.0,20.0,1380.0,5.0,0.0
3722,53.0,0.0,960.0,4.0,0.0
3723,72.0,40.0,120.0,1.0,0.0
3724,74.0,40.0,30.0,1.0,0.0
3725,72.0,40.0,30.0,1.0,0.0
3726,71.0,120.0,30.0,1.0,0.0
3727,72.0,95.0,120.0,1.0,0.0
3728,74.0,505.0,90.0,1.0,0.0
3729,65.0,165.0,720.0,1.0,0.0
3730,55.0,0.0,420.0,4.0,0.0
3731,58.0,5.0,420.0,4.0,0.0
3732,64.0,0.0,180.0,2.0,0.0
3733,67.0,770.0,180.0,1.0,0.0
3734,53.0,0.0,1380.0,5.0,0.0
3735,60.0,5.0,1380.0,4.0,0.0
3736,67.0,230.0,720.0,1.0,0.0
3737,64.0,10.0,960.0,2.0,0.0
3738,58.0,420.0,960.0,4.0,0.0
3739,68.0,0.0,240.0,1.0,0.0
3740,65.0,0.0,420.0,2.0,0.0
3741,69.0,0.0,420.0,1.0,0.0
3742,57.0,295.0,420.0,4.0,0.0
3743,60.0,20.0,420.0,2.0,0.0
3744,41.0,0.0,360.0,5.0,0.0
3745,65.0,70.0,420.0,2.0,0.0
3746,69.0,100.0,450.0,1.0,0.0
3747,45.0,120.0,120.0,3.0,0.0
3748,48.0,75.0,120.0,3.0,0.0
3749,53.0,15.0,90.0,3.0,0.0
3750,41.0,0.0,360.0,5.0,0.0
3751,72.0,80.0,90.0,1.0,0.0
3752,45.0,0.0,120.0,3.0,0.0
3753,70.0,80.0,90.0,1.0,0.0
3754,48.0,40.0,120.0,3.0,0.0
3755,69.0,40.0,90.0,1.0,0.0
3756,70.0,55.0,90.0,1.0,0.0
3757,53.0,25.0,90.0,3.0,0.0
3758,72.0,80.0,90.0,1.0,0.0
3759,43.0,0.0,360.0,5.0,0.0
3760,70.0,80.0,90.0,1.0,0.0
3761,74.0,80.0,90.0,1.0,0.0
3762,46.0,80.0,120.0,3.0,0.0
3763,72.0,0.0,90.0,1.0,0.0
3764,70.0,40.0,90.0,1.0,0.0
3765,52.0,40.0,120.0,3.0,0.0
3766,72.0,50.0,90.0,1.0,0.0
3767,55.0,75.0,90.0,3.0,0.0
3768,74.0,5.0,60.0,1.0,0.0
3769,53.0,0.0,780.0,4.0,0.0
3770,45.0,10.0,780.0,5.0,0.0
3771,72.0,70.0,60.0,1.0,0.0
3772,65.0,60.0,60.0,1.0,0.0
3773,67.0,60.0,60.0,1.0,0.0
3774,69.0,60.0,60.0,1.0,0.0
3775,70.0,60.0,60.0,1.0,0.0
3776,72.0,60.0,60.0,1.0,0.0
3777,74.0,60.0,60.0,1.0,0.0
3778,76.0,60.0,60.0,1.0,0.0
3779,77.0,60.0,60.0,1.0,0.0
3780,79.0,60.0,60.0,1.0,0.0
3781,81.0,60.0,60.0,1.0,0.0
3782,79.0,50.0,60.0,1.0,0.0
3783,77.0,60.0,60.0,1.0,0.0
3784,76.0,60.0,60.0,1.0,0.0
3785,74.0,60.0,60.0,1.0,0.0
3786,73.0,60.0,60.0,1.0,0.0
3787,74.0,60.0,60.0,1.0,0.0
3788,53.0,35.0,390.0,4.0,0.0
3789,46.0,0.0,390.0,5.0,0.0
3790,76.0,60.0,60.0,1.0,0.0
3791,77.0,60.0,60.0,1.0,0.0
3792,76.0,60.0,60.0,1.0,0.0
3793,79.0,60.0,60.0,1.0,0.0
3794,77.0,25.0,60.0,1.0,0.0
3795,76.0,60.0,60.0,1.0,0.0
3796,74.0,95.0,60.0,1.0,0.0
3797,72.0,145.0,90.0,1.0,0.0
3798,57.0,0.0,300.0,4.0,0.0
3799,48.0,50.0,300.0,5.0,0.0
3800,84.0,70.0,120.0,1.0,0.0
3801,81.0,95.0,120.0,1.0,0.0
3802,77.0,120.0,90.0,1.0,0.0
3803,72.0,145.0,90.0,1.0,0.0
3804,57.0,50.0,300.0,4.0,0.0
3805,48.0,0.0,300.0,5.0,0.0
3806,77.0,70.0,120.0,1.0,0.0
3807,72.0,95.0,120.0,1.0,0.0
3808,69.0,145.0,90.0,1.0,0.0
3809,48.0,0.0,300.0,5.0,0.0
3810,72.0,120.0,120.0,1.0,0.0
3811,58.0,0.0,300.0,4.0,0.0
3812,52.0,50.0,300.0,4.0,0.0
3813,70.0,70.0,120.0,1.0,0.0
3814,69.0,95.0,120.0,1.0,0.0
3815,67.0,985.0,90.0,1.0,0.0
3816,60.0,390.0,1200.0,2.0,0.0
3817,67.0,0.0,960.0,1.0,0.0
3818,53.0,0.0,1200.0,5.0,0.0
3819,58.0,235.0,960.0,4.0,0.0
3820,64.0,5.0,960.0,2.0,0.0
3821,57.0,5.0,240.0,4.0,0.0
3822,65.0,0.0,240.0,1.0,0.0
3823,53.0,60.0,240.0,5.0,0.0
3824,69.0,85.0,150.0,1.0,0.0
3825,70.0,60.0,60.0,1.0,0.0
3826,60.0,0.0,240.0,3.0,0.0
3827,69.0,120.0,60.0,1.0,0.0
3828,67.0,240.0,120.0,1.0,0.0
3829,69.0,0.0,240.0,1.0,0.0
3830,55.0,155.0,240.0,5.0,0.0
3831,60.0,240.0,240.0,3.0,0.0
3832,70.0,85.0,150.0,1.0,0.0
3833,57.0,0.0,240.0,5.0,0.0
3834,74.0,155.0,240.0,1.0,0.0
3835,72.0,85.0,150.0,1.0,0.0
3836,60.0,155.0,240.0,3.0,0.0
3837,70.0,85.0,150.0,1.0,0.0
3838,53.0,155.0,240.0,5.0,0.0
3839,69.0,35.0,150.0,1.0,0.0
3840,60.0,205.0,180.0,3.0,0.0
3841,52.0,60.0,240.0,5.0,0.0
3842,67.0,85.0,150.0,1.0,0.0
3843,60.0,240.0,240.0,3.0,0.0
3844,69.0,60.0,60.0,1.0,0.0
3845,67.0,120.0,60.0,1.0,0.0
3846,66.0,0.0,120.0,1.0,0.0
3847,67.0,155.0,240.0,1.0,0.0
3848,53.0,0.0,240.0,5.0,0.0
3849,69.0,85.0,150.0,1.0,0.0
3850,60.0,240.0,240.0,3.0,0.0
3851,55.0,155.0,240.0,5.0,0.0
3852,72.0,0.0,240.0,1.0,0.0
3853,60.0,155.0,240.0,3.0,0.0
3854,70.0,85.0,150.0,1.0,0.0
3855,58.0,155.0,240.0,5.0,0.0
3856,69.0,85.0,150.0,1.0,0.0
3857,60.0,290.0,180.0,3.0,0.0
3858,67.0,35.0,150.0,1.0,0.0
3859,57.0,190.0,240.0,5.0,0.0
3860,64.0,0.0,240.0,1.0,0.0
3861,60.0,240.0,240.0,3.0,0.0
3862,65.0,50.0,180.0,1.0,0.0
3863,57.0,155.0,240.0,5.0,0.0
3864,66.0,290.0,180.0,1.0,0.0
3865,60.0,35.0,150.0,3.0,0.0
3866,52.0,190.0,240.0,5.0,0.0
3867,60.0,240.0,240.0,3.0,0.0
3868,67.0,50.0,180.0,1.0,0.0
3869,52.0,155.0,240.0,5.0,0.0
3870,68.0,110.0,180.0,1.0,0.0
3871,60.0,35.0,150.0,3.0,0.0
3872,70.0,125.0,60.0,1.0,0.0
3873,53.0,155.0,240.0,5.0,0.0
3874,69.0,55.0,120.0,1.0,0.0
3875,69.0,85.0,150.0,1.0,0.0
3876,60.0,60.0,240.0,3.0,0.0
3877,72.0,125.0,60.0,1.0,0.0
3878,55.0,155.0,240.0,5.0,0.0
3879,70.0,55.0,120.0,1.0,0.0
3880,70.0,35.0,150.0,1.0,0.0
3881,60.0,530.0,180.0,3.0,0.0
3882,53.0,275.0,480.0,4.0,0.0
3883,48.0,10.0,750.0,5.0,0.0
3884,69.0,0.0,480.0,1.0,0.0
3885,52.0,0.0,300.0,4.0,0.0
3886,67.0,250.0,300.0,1.0,0.0
3887,69.0,95.0,240.0,1.0,0.0
3888,29.0,45.0,60.0,5.0,0.0
3889,33.0,40.0,60.0,3.0,0.0
3890,36.0,40.0,60.0,3.0,0.0
3891,41.0,35.0,60.0,3.0,0.0
3892,65.0,25.0,90.0,2.0,0.0
3893,60.0,120.0,90.0,2.0,0.0
3894,65.0,120.0,90.0,2.0,0.0
3895,69.0,120.0,90.0,1.0,0.0
3896,65.0,120.0,90.0,2.0,0.0
3897,70.0,120.0,90.0,1.0,0.0
3898,67.0,85.0,90.0,2.0,0.0
3899,72.0,5.0,90.0,1.0,0.0
3900,53.0,35.0,60.0,5.0,0.0
3901,57.0,40.0,60.0,3.0,0.0
3902,60.0,45.0,60.0,3.0,0.0
3903,69.0,120.0,90.0,2.0,0.0
3904,65.0,30.0,60.0,3.0,0.0
3905,72.0,120.0,90.0,1.0,0.0
3906,69.0,120.0,90.0,2.0,0.0
3907,74.0,120.0,90.0,1.0,0.0
3908,72.0,120.0,90.0,1.0,0.0
3909,70.0,120.0,90.0,1.0,0.0
3910,69.0,85.0,90.0,1.0,0.0
3911,36.0,40.0,60.0,5.0,0.0
3912,67.0,95.0,240.0,1.0,0.0
3913,40.0,40.0,60.0,3.0,0.0
3914,43.0,40.0,60.0,3.0,0.0
3915,48.0,35.0,60.0,3.0,0.0
3916,64.0,25.0,90.0,2.0,0.0
3917,60.0,120.0,90.0,2.0,0.0
3918,64.0,120.0,90.0,2.0,0.0
3919,67.0,120.0,90.0,1.0,0.0
3920,64.0,120.0,90.0,2.0,0.0
3921,69.0,120.0,90.0,1.0,0.0
3922,65.0,85.0,90.0,2.0,0.0
3923,70.0,5.0,90.0,1.0,0.0
3924,48.0,35.0,60.0,5.0,0.0
3925,52.0,40.0,60.0,3.0,0.0
3926,55.0,40.0,60.0,3.0,0.0
3927,60.0,35.0,60.0,3.0,0.0
3928,67.0,120.0,90.0,2.0,0.0
3929,70.0,120.0,90.0,1.0,0.0
3930,67.0,120.0,90.0,2.0,0.0
3931,72.0,120.0,90.0,1.0,0.0
3932,70.0,120.0,90.0,1.0,0.0
3933,69.0,120.0,90.0,1.0,0.0
3934,67.0,120.0,90.0,1.0,0.0
3935,38.0,60.0,150.0,5.0,0.0
3936,65.0,60.0,90.0,1.0,0.0
3937,69.0,120.0,90.0,1.0,0.0
3938,67.0,60.0,90.0,1.0,0.0
3939,50.0,60.0,150.0,4.0,0.0
3940,65.0,120.0,90.0,1.0,0.0
3941,40.0,60.0,150.0,5.0,0.0
3942,67.0,60.0,90.0,1.0,0.0
3943,70.0,120.0,90.0,1.0,0.0
3944,52.0,60.0,150.0,4.0,0.0
3945,69.0,60.0,90.0,1.0,0.0
3946,67.0,120.0,90.0,1.0,0.0
3947,69.0,60.0,90.0,1.0,0.0
3948,53.0,60.0,150.0,5.0,0.0
3949,72.0,120.0,90.0,1.0,0.0
3950,77.0,60.0,90.0,1.0,0.0
3951,57.0,60.0,150.0,5.0,0.0
3952,72.0,120.0,90.0,1.0,0.0
3953,74.0,60.0,90.0,1.0,0.0
3954,58.0,60.0,150.0,5.0,0.0
3955,77.0,120.0,90.0,2.0,0.0
3956,52.0,60.0,150.0,5.0,0.0
3957,67.0,60.0,90.0,1.0,0.0
3958,70.0,120.0,90.0,2.0,0.0
3959,69.0,60.0,90.0,1.0,0.0
3960,53.0,60.0,150.0,5.0,0.0
3961,72.0,120.0,90.0,2.0,0.0
3962,50.0,60.0,150.0,5.0,0.0
3963,65.0,60.0,90.0,1.0,0.0
3964,69.0,120.0,90.0,2.0,0.0
3965,46.0,60.0,150.0,5.0,0.0
3966,67.0,60.0,90.0,1.0,0.0
3967,70.0,120.0,90.0,2.0,0.0
3968,48.0,60.0,150.0,5.0,0.0
3969,64.0,60.0,90.0,1.0,0.0
3970,67.0,120.0,90.0,2.0,0.0
3971,41.0,75.0,390.0,5.0,0.0
3972,65.0,120.0,90.0,1.0,0.0
3973,60.0,120.0,90.0,1.0,0.0
3974,57.0,45.0,90.0,1.0,0.0
3975,60.0,405.0,90.0,1.0,0.0
3976,29.0,0.0,390.0,5.0,0.0
3977,65.0,250.0,390.0,1.0,0.0
3978,33.0,5.0,390.0,4.0,0.0
3979,36.0,0.0,390.0,4.0,0.0
3980,53.0,60.0,240.0,5.0,0.0
3981,69.0,85.0,150.0,1.0,0.0
3982,60.0,240.0,240.0,3.0,0.0
3983,70.0,60.0,60.0,1.0,0.0
3984,69.0,120.0,60.0,1.0,0.0
3985,67.0,0.0,120.0,1.0,0.0
3986,69.0,0.0,240.0,1.0,0.0
3987,55.0,155.0,240.0,5.0,0.0
3988,70.0,85.0,150.0,1.0,0.0
3989,60.0,240.0,240.0,3.0,0.0
3990,57.0,155.0,240.0,5.0,0.0
3991,74.0,0.0,240.0,1.0,0.0
3992,60.0,155.0,240.0,3.0,0.0
3993,72.0,85.0,150.0,1.0,0.0
3994,70.0,85.0,150.0,1.0,0.0
3995,53.0,155.0,240.0,5.0,0.0
3996,60.0,205.0,180.0,3.0,0.0
3997,69.0,35.0,150.0,1.0,0.0
3998,67.0,85.0,150.0,1.0,0.0
3999,52.0,60.0,240.0,5.0,0.0
4000,69.0,60.0,60.0,1.0,0.0
4001,60.0,0.0,240.0,3.0,0.0
4002,67.0,120.0,60.0,1.0,0.0
4003,66.0,240.0,120.0,1.0,0.0
4004,53.0,155.0,240.0,5.0,0.0
4005,67.0,0.0,240.0,1.0,0.0
4006,69.0,85.0,150.0,1.0,0.0
4007,60.0,240.0,240.0,3.0,0.0
4008,55.0,155.0,240.0,5.0,0.0
4009,72.0,0.0,240.0,1.0,0.0
4010,60.0,155.0,240.0,3.0,0.0
4011,70.0,85.0,150.0,1.0,0.0
4012,69.0,85.0,150.0,1.0,0.0
4013,58.0,155.0,240.0,5.0,0.0
4014,60.0,290.0,180.0,3.0,0.0
4015,67.0,35.0,150.0,1.0,0.0
4016,57.0,0.0,240.0,5.0,0.0
4017,64.0,190.0,240.0,1.0,0.0
4018,65.0,50.0,180.0,1.0,0.0
4019,60.0,240.0,240.0,3.0,0.0
4020,57.0,155.0,240.0,5.0,0.0
4021,60.0,35.0,150.0,3.0,0.0
4022,66.0,290.0,180.0,1.0,0.0
4023,52.0,190.0,240.0,5.0,0.0
4024,67.0,50.0,180.0,1.0,0.0
4025,60.0,240.0,240.0,3.0,0.0
4026,52.0,155.0,240.0,5.0,0.0
4027,68.0,110.0,180.0,1.0,0.0
4028,60.0,35.0,150.0,3.0,0.0
4029,53.0,155.0,240.0,5.0,0.0
4030,70.0,125.0,60.0,1.0,0.0
4031,69.0,55.0,120.0,1.0,0.0
4032,60.0,60.0,240.0,3.0,0.0
4033,69.0,85.0,150.0,1.0,0.0
4034,72.0,125.0,60.0,1.0,0.0
4035,55.0,155.0,240.0,5.0,0.0
4036,70.0,55.0,120.0,1.0,0.0
4037,70.0,35.0,150.0,1.0,0.0
4038,60.0,530.0,180.0,3.0,0.0
4039,48.0,10.0,750.0,5.0,0.0
4040,53.0,0.0,480.0,4.0,0.0
4041,69.0,275.0,480.0,1.0,0.0
4042,67.0,250.0,300.0,1.0,0.0
4043,52.0,0.0,300.0,4.0,0.0
4044,69.0,95.0,240.0,1.0,0.0
4045,29.0,45.0,60.0,5.0,0.0
4046,33.0,40.0,60.0,3.0,0.0
4047,36.0,40.0,60.0,3.0,0.0
4048,65.0,25.0,90.0,2.0,0.0
4049,41.0,35.0,60.0,3.0,0.0
4050,60.0,120.0,90.0,2.0,0.0
4051,65.0,120.0,90.0,2.0,0.0
4052,69.0,120.0,90.0,1.0,0.0
4053,65.0,120.0,90.0,2.0,0.0
4054,70.0,120.0,90.0,1.0,0.0
4055,67.0,85.0,90.0,2.0,0.0
4056,72.0,5.0,90.0,1.0,0.0
4057,53.0,35.0,60.0,5.0,0.0
4058,57.0,40.0,60.0,3.0,0.0
4059,60.0,45.0,60.0,3.0,0.0
4060,65.0,30.0,60.0,3.0,0.0
4061,69.0,120.0,90.0,2.0,0.0
4062,72.0,120.0,90.0,1.0,0.0
4063,69.0,120.0,90.0,2.0,0.0
4064,74.0,120.0,90.0,1.0,0.0
4065,72.0,120.0,90.0,1.0,0.0
4066,70.0,120.0,90.0,1.0,0.0
4067,69.0,85.0,90.0,1.0,0.0
4068,67.0,95.0,240.0,1.0,0.0
4069,36.0,40.0,60.0,5.0,0.0
4070,40.0,40.0,60.0,3.0,0.0
4071,43.0,40.0,60.0,3.0,0.0
4072,48.0,35.0,60.0,3.0,0.0
4073,64.0,25.0,90.0,2.0,0.0
4074,60.0,120.0,90.0,2.0,0.0
4075,64.0,120.0,90.0,2.0,0.0
4076,67.0,120.0,90.0,1.0,0.0
4077,64.0,120.0,90.0,2.0,0.0
4078,69.0,120.0,90.0,1.0,0.0
4079,65.0,85.0,90.0,2.0,0.0
4080,48.0,35.0,60.0,5.0,0.0
4081,70.0,5.0,90.0,1.0,0.0
4082,52.0,40.0,60.0,3.0,0.0
4083,55.0,40.0,60.0,3.0,0.0
4084,67.0,120.0,90.0,2.0,0.0
4085,60.0,35.0,60.0,3.0,0.0
4086,70.0,120.0,90.0,1.0,0.0
4087,67.0,120.0,90.0,2.0,0.0
4088,72.0,120.0,90.0,1.0,0.0
4089,70.0,120.0,90.0,1.0,0.0
4090,69.0,120.0,90.0,1.0,0.0
4091,67.0,120.0,90.0,1.0,0.0
4092,38.0,60.0,150.0,5.0,0.0
4093,65.0,60.0,90.0,1.0,0.0
4094,69.0,120.0,90.0,1.0,0.0
4095,67.0,60.0,90.0,1.0,0.0
4096,50.0,60.0,150.0,4.0,0.0
4097,65.0,120.0,90.0,1.0,0.0
4098,40.0,60.0,150.0,5.0,0.0
4099,67.0,60.0,90.0,1.0,0.0
4100,70.0,120.0,90.0,1.0,0.0
4101,52.0,60.0,150.0,4.0,0.0
4102,69.0,60.0,90.0,1.0,0.0
4103,67.0,120.0,90.0,1.0,0.0
4104,69.0,60.0,90.0,1.0,0.0
4105,53.0,60.0,150.0,5.0,0.0
4106,72.0,120.0,90.0,1.0,0.0
4107,77.0,60.0,90.0,1.0,0.0
4108,57.0,60.0,150.0,5.0,0.0
4109,72.0,120.0,90.0,1.0,0.0
4110,74.0,60.0,90.0,1.0,0.0
4111,58.0,60.0,150.0,5.0,0.0
4112,77.0,120.0,90.0,2.0,0.0
4113,67.0,60.0,90.0,1.0,0.0
4114,52.0,60.0,150.0,5.0,0.0
4115,70.0,120.0,90.0,2.0,0.0
4116,53.0,60.0,150.0,5.0,0.0
4117,69.0,60.0,90.0,1.0,0.0
4118,72.0,120.0,90.0,2.0,0.0
4119,65.0,60.0,90.0,1.0,0.0
4120,50.0,60.0,150.0,5.0,0.0
4121,69.0,120.0,90.0,2.0,0.0
4122,46.0,60.0,150.0,5.0,0.0
4123,67.0,60.0,90.0,1.0,0.0
4124,70.0,120.0,90.0,2.0,0.0
4125,64.0,60.0,90.0,1.0,0.0
4126,48.0,60.0,150.0,5.0,0.0
4127,67.0,120.0,90.0,2.0,0.0
4128,65.0,120.0,90.0,1.0,0.0
4129,41.0,75.0,390.0,5.0,0.0
4130,60.0,120.0,90.0,1.0,0.0
4131,57.0,45.0,90.0,1.0,0.0
4132,60.0,405.0,90.0,1.0,0.0
4133,65.0,215.0,390.0,1.0,0.0
4134,29.0,5.0,390.0,5.0,0.0
4135,33.0,0.0,390.0,4.0,0.0
4136,36.0,0.0,390.0,4.0,0.0
4137,53.0,120.0,720.0,5.0,0.0
4138,65.0,120.0,120.0,1.0,0.0
4139,67.0,120.0,120.0,1.0,0.0
4140,69.0,120.0,120.0,1.0,0.0
4141,60.0,120.0,240.0,3.0,0.0
4142,70.0,0.0,120.0,1.0,0.0
4143,72.0,120.0,120.0,1.0,0.0
4144,57.0,0.0,240.0,3.0,0.0
4145,74.0,0.0,120.0,1.0,0.0
4146,76.0,120.0,120.0,1.0,0.0
4147,60.0,120.0,240.0,3.0,0.0
4148,77.0,0.0,120.0,1.0,0.0
4149,76.0,120.0,120.0,1.0,0.0
4150,53.0,120.0,720.0,5.0,0.0
4151,74.0,120.0,120.0,1.0,0.0
4152,62.0,120.0,240.0,3.0,0.0
4153,73.0,120.0,120.0,1.0,0.0
4154,74.0,0.0,120.0,1.0,0.0
4155,73.0,120.0,120.0,1.0,0.0
4156,58.0,0.0,240.0,3.0,0.0
4157,74.0,0.0,120.0,1.0,0.0
4158,62.0,0.0,240.0,3.0,0.0
4159,73.0,120.0,120.0,1.0,0.0
4160,74.0,120.0,120.0,1.0,0.0
4161,53.0,120.0,720.0,5.0,0.0
4162,77.0,120.0,120.0,1.0,0.0
4163,76.0,120.0,120.0,1.0,0.0
4164,77.0,120.0,120.0,1.0,0.0
4165,62.0,120.0,240.0,3.0,0.0
4166,76.0,0.0,120.0,1.0,0.0
4167,79.0,120.0,120.0,1.0,0.0
4168,58.0,0.0,240.0,3.0,0.0
4169,77.0,0.0,120.0,1.0,0.0
4170,62.0,120.0,240.0,3.0,0.0
4171,76.0,120.0,120.0,1.0,0.0
4172,74.0,0.0,120.0,1.0,0.0
4173,74.0,120.0,120.0,1.0,0.0
4174,53.0,0.0,720.0,5.0,0.0
4175,72.0,120.0,120.0,1.0,0.0
4176,60.0,0.0,240.0,3.0,0.0
4177,71.0,120.0,120.0,1.0,0.0
4178,72.0,120.0,120.0,1.0,0.0
4179,57.0,0.0,240.0,3.0,0.0
4180,71.0,120.0,120.0,1.0,0.0
4181,72.0,120.0,120.0,1.0,0.0
4182,60.0,20.0,180.0,3.0,0.0
4183,71.0,75.0,120.0,1.0,0.0
4184,72.0,85.0,90.0,1.0,0.0
4185,72.0,5.0,90.0,1.0,0.0
4186,41.0,35.0,60.0,5.0,0.0
4187,45.0,40.0,60.0,3.0,0.0
4188,48.0,40.0,60.0,3.0,0.0
4189,77.0,120.0,90.0,1.0,0.0
4190,53.0,35.0,60.0,3.0,0.0
4191,81.0,120.0,90.0,1.0,0.0
4192,79.0,120.0,90.0,1.0,0.0
4193,77.0,120.0,90.0,1.0,0.0
4194,76.0,120.0,90.0,1.0,0.0
4195,74.0,120.0,90.0,1.0,0.0
4196,72.0,85.0,90.0,1.0,0.0
4197,70.0,5.0,90.0,1.0,0.0
4198,43.0,35.0,60.0,5.0,0.0
4199,46.0,40.0,60.0,3.0,0.0
4200,52.0,40.0,60.0,3.0,0.0
4201,76.0,120.0,90.0,1.0,0.0
4202,55.0,35.0,60.0,3.0,0.0
4203,79.0,120.0,90.0,1.0,0.0
4204,77.0,120.0,90.0,1.0,0.0
4205,76.0,120.0,90.0,1.0,0.0
4206,74.0,120.0,90.0,1.0,0.0
4207,72.0,120.0,90.0,1.0,0.0
4208,70.0,85.0,90.0,1.0,0.0
4209,69.0,5.0,90.0,1.0,0.0
4210,45.0,35.0,60.0,5.0,0.0
4211,48.0,40.0,60.0,3.0,0.0
4212,53.0,40.0,60.0,3.0,0.0
4213,57.0,35.0,60.0,3.0,0.0
4214,72.0,120.0,90.0,1.0,0.0
4215,77.0,120.0,90.0,1.0,0.0
4216,76.0,85.0,90.0,1.0,0.0
4217,74.0,5.0,90.0,1.0,0.0
4218,46.0,35.0,60.0,5.0,0.0
4219,50.0,40.0,60.0,3.0,0.0
4220,55.0,40.0,60.0,3.0,0.0
4221,72.0,120.0,90.0,1.0,0.0
4222,58.0,35.0,60.0,3.0,0.0
4223,70.0,120.0,90.0,1.0,0.0
4224,69.0,85.0,90.0,1.0,0.0
4225,48.0,35.0,60.0,5.0,0.0
4226,67.0,5.0,90.0,1.0,0.0
4227,52.0,40.0,60.0,3.0,0.0
4228,55.0,40.0,60.0,3.0,0.0
4229,60.0,35.0,60.0,3.0,0.0
4230,65.0,120.0,90.0,1.0,0.0
4231,64.0,120.0,90.0,1.0,0.0
4232,62.0,120.0,90.0,1.0,0.0
4233,60.0,120.0,90.0,1.0,0.0
4234,58.0,120.0,90.0,1.0,0.0
4235,57.0,120.0,90.0,1.0,0.0
4236,55.0,180.0,90.0,1.0,0.0
4237,69.0,85.0,150.0,1.0,0.0
4238,53.0,60.0,240.0,5.0,0.0
4239,60.0,0.0,240.0,3.0,0.0
4240,70.0,60.0,60.0,1.0,0.0
4241,69.0,120.0,60.0,1.0,0.0
4242,67.0,240.0,120.0,1.0,0.0
4243,55.0,0.0,240.0,5.0,0.0
4244,69.0,155.0,240.0,1.0,0.0
4245,70.0,85.0,150.0,1.0,0.0
4246,60.0,240.0,240.0,3.0,0.0
4247,57.0,0.0,240.0,5.0,0.0
4248,74.0,155.0,240.0,1.0,0.0
4249,60.0,155.0,240.0,3.0,0.0
4250,72.0,85.0,150.0,1.0,0.0
4251,53.0,155.0,240.0,5.0,0.0
4252,70.0,85.0,150.0,1.0,0.0
4253,60.0,205.0,180.0,3.0,0.0
4254,69.0,35.0,150.0,1.0,0.0
4255,67.0,85.0,150.0,1.0,0.0
4256,52.0,60.0,240.0,5.0,0.0
4257,60.0,240.0,240.0,3.0,0.0
4258,69.0,60.0,60.0,1.0,0.0
4259,67.0,120.0,60.0,1.0,0.0
4260,66.0,0.0,120.0,1.0,0.0
4261,53.0,0.0,240.0,5.0,0.0
4262,67.0,155.0,240.0,1.0,0.0
4263,60.0,240.0,240.0,3.0,0.0
4264,69.0,85.0,150.0,1.0,0.0
4265,55.0,155.0,240.0,5.0,0.0
4266,72.0,0.0,240.0,1.0,0.0
4267,70.0,85.0,150.0,1.0,0.0
4268,60.0,155.0,240.0,3.0,0.0
4269,52.0,155.0,240.0,5.0,0.0
4270,69.0,85.0,150.0,1.0,0.0
4271,67.0,35.0,150.0,1.0,0.0
4272,60.0,290.0,180.0,3.0,0.0
4273,64.0,190.0,240.0,1.0,0.0
4274,50.0,0.0,240.0,5.0,0.0
4275,60.0,240.0,240.0,3.0,0.0
4276,65.0,50.0,180.0,1.0,0.0
4277,52.0,190.0,240.0,5.0,0.0
4278,60.0,60.0,240.0,3.0,0.0
4279,67.0,50.0,180.0,1.0,0.0
4280,68.0,180.0,60.0,1.0,0.0
4281,53.0,0.0,240.0,5.0,0.0
4282,69.0,240.0,180.0,1.0,0.0
4283,60.0,60.0,240.0,3.0,0.0
4284,46.0,0.0,240.0,5.0,0.0
4285,72.0,180.0,60.0,1.0,0.0
4286,70.0,240.0,180.0,1.0,0.0
4287,55.0,240.0,240.0,3.0,0.0
4288,48.0,60.0,240.0,5.0,0.0
4289,70.0,180.0,60.0,1.0,0.0
4290,53.0,5.0,240.0,3.0,0.0
4291,69.0,235.0,180.0,1.0,0.0
4292,48.0,60.0,240.0,5.0,0.0
4293,69.0,150.0,60.0,1.0,0.0
4294,52.0,240.0,240.0,3.0,0.0
4295,67.0,30.0,150.0,1.0,0.0
4296,64.0,0.0,480.0,4.0,0.0
4297,58.0,0.0,480.0,4.0,0.0
4298,67.0,240.0,240.0,1.0,0.0
4299,53.0,0.0,480.0,5.0,0.0
4300,68.0,0.0,240.0,1.0,0.0
4301,57.0,0.0,360.0,4.0,0.0
4302,60.0,360.0,15.0,4.0,0.0
4303,53.0,215.0,360.0,5.0,0.0
4304,65.0,0.0,360.0,4.0,0.0
4305,69.0,0.0,360.0,1.0,0.0
4306,41.0,51.0,270.0,5.0,0.0
4307,69.0,120.0,90.0,1.0,0.0
4308,65.0,69.0,90.0,2.0,0.0
4309,45.0,0.0,90.0,3.0,0.0
4310,72.0,0.0,90.0,1.0,0.0
4311,48.0,120.0,90.0,3.0,0.0
4312,69.0,0.0,90.0,2.0,0.0
4313,53.0,120.0,90.0,3.0,0.0
4314,43.0,51.0,270.0,5.0,0.0
4315,70.0,120.0,90.0,1.0,0.0
4316,67.0,0.0,90.0,2.0,0.0
4317,46.0,69.0,90.0,3.0,0.0
4318,52.0,120.0,90.0,3.0,0.0
4319,74.0,0.0,90.0,1.0,0.0
4320,55.0,120.0,90.0,3.0,0.0
4321,70.0,0.0,90.0,2.0,0.0
4322,45.0,51.0,270.0,5.0,0.0
4323,72.0,120.0,90.0,1.0,0.0
4324,69.0,69.0,90.0,2.0,0.0
4325,48.0,0.0,90.0,3.0,0.0
4326,53.0,0.0,90.0,3.0,0.0
4327,77.0,120.0,90.0,1.0,0.0
4328,72.0,0.0,90.0,2.0,0.0
4329,57.0,120.0,90.0,3.0,0.0
4330,46.0,51.0,270.0,5.0,0.0
4331,76.0,120.0,90.0,1.0,0.0
4332,50.0,69.0,90.0,3.0,0.0
4333,74.0,0.0,90.0,1.0,0.0
4334,72.0,0.0,90.0,1.0,0.0
4335,55.0,120.0,90.0,3.0,0.0
4336,58.0,120.0,90.0,3.0,0.0
4337,70.0,0.0,90.0,1.0,0.0
4338,48.0,51.0,270.0,5.0,0.0
4339,69.0,120.0,90.0,1.0,0.0
4340,72.0,0.0,90.0,2.0,0.0
4341,53.0,69.0,90.0,3.0,0.0
4342,65.0,0.0,90.0,1.0,0.0
4343,57.0,120.0,90.0,3.0,0.0
4344,69.0,0.0,90.0,2.0,0.0
4345,60.0,120.0,90.0,3.0,0.0
4346,67.0,120.0,90.0,1.0,0.0
4347,48.0,51.0,270.0,5.0,0.0
4348,52.0,69.0,90.0,3.0,0.0
4349,70.0,0.0,90.0,2.0,0.0
4350,55.0,120.0,90.0,3.0,0.0
4351,64.0,0.0,90.0,1.0,0.0
4352,58.0,120.0,90.0,3.0,0.0
4353,67.0,0.0,90.0,2.0,0.0
4354,41.0,75.0,390.0,5.0,0.0
4355,65.0,120.0,90.0,1.0,0.0
4356,45.0,120.0,90.0,3.0,0.0
4357,60.0,0.0,90.0,1.0,0.0
4358,57.0,0.0,90.0,1.0,0.0
4359,48.0,45.0,90.0,3.0,0.0
4360,53.0,0.0,90.0,3.0,0.0
4361,60.0,405.0,90.0,1.0,0.0
4362,29.0,5.0,390.0,5.0,0.0
4363,65.0,215.0,390.0,1.0,0.0
4364,53.0,120.0,720.0,5.0,0.0
4365,65.0,120.0,120.0,1.0,0.0
4366,67.0,120.0,120.0,1.0,0.0
4367,60.0,0.0,240.0,3.0,0.0
4368,69.0,120.0,120.0,1.0,0.0
4369,70.0,120.0,120.0,1.0,0.0
4370,57.0,0.0,240.0,3.0,0.0
4371,72.0,120.0,120.0,1.0,0.0
4372,74.0,0.0,120.0,1.0,0.0
4373,60.0,120.0,240.0,3.0,0.0
4374,76.0,120.0,120.0,1.0,0.0
4375,77.0,0.0,120.0,1.0,0.0
4376,53.0,0.0,720.0,5.0,0.0
4377,76.0,120.0,120.0,1.0,0.0
4378,74.0,120.0,120.0,1.0,0.0
4379,73.0,120.0,120.0,1.0,0.0
4380,62.0,0.0,240.0,3.0,0.0
4381,74.0,120.0,120.0,1.0,0.0
4382,73.0,120.0,120.0,1.0,0.0
4383,58.0,0.0,240.0,3.0,0.0
4384,74.0,120.0,120.0,1.0,0.0
4385,62.0,0.0,240.0,3.0,0.0
4386,73.0,120.0,120.0,1.0,0.0
4387,74.0,120.0,120.0,1.0,0.0
4388,53.0,0.0,720.0,5.0,0.0
4389,77.0,120.0,120.0,1.0,0.0
4390,76.0,120.0,120.0,1.0,0.0
4391,77.0,120.0,120.0,1.0,0.0
4392,62.0,120.0,240.0,3.0,0.0
4393,76.0,0.0,120.0,1.0,0.0
4394,79.0,120.0,120.0,1.0,0.0
4395,58.0,0.0,240.0,3.0,0.0
4396,77.0,120.0,120.0,1.0,0.0
4397,62.0,0.0,240.0,3.0,0.0
4398,76.0,120.0,120.0,1.0,0.0
4399,53.0,0.0,720.0,5.0,0.0
4400,74.0,120.0,15.0,1.0,0.0
4401,72.0,120.0,120.0,1.0,0.0
4402,60.0,0.0,240.0,3.0,0.0
4403,71.0,120.0,120.0,1.0,0.0
4404,72.0,120.0,120.0,1.0,0.0
4405,57.0,0.0,240.0,3.0,0.0
4406,71.0,120.0,120.0,1.0,0.0
4407,72.0,120.0,120.0,1.0,0.0
4408,60.0,20.0,180.0,3.0,0.0
4409,71.0,75.0,120.0,1.0,0.0
4410,72.0,85.0,90.0,1.0,0.0
4411,41.0,35.0,60.0,5.0,0.0
4412,72.0,5.0,90.0,1.0,0.0
4413,45.0,40.0,60.0,3.0,0.0
4414,48.0,40.0,60.0,3.0,0.0
4415,77.0,120.0,90.0,1.0,0.0
4416,53.0,35.0,60.0,3.0,0.0
4417,81.0,120.0,90.0,1.0,0.0
4418,79.0,120.0,90.0,1.0,0.0
4419,77.0,120.0,90.0,1.0,0.0
4420,76.0,120.0,90.0,1.0,0.0
4421,74.0,120.0,90.0,1.0,0.0
4422,72.0,85.0,90.0,1.0,0.0
4423,43.0,35.0,60.0,5.0,0.0
4424,70.0,5.0,90.0,1.0,0.0
4425,46.0,40.0,60.0,3.0,0.0
4426,52.0,40.0,60.0,3.0,0.0
4427,76.0,120.0,90.0,1.0,0.0
4428,55.0,35.0,60.0,3.0,0.0
4429,79.0,120.0,90.0,1.0,0.0
4430,77.0,120.0,90.0,1.0,0.0
4431,76.0,120.0,90.0,1.0,0.0
4432,74.0,120.0,90.0,1.0,0.0
4433,72.0,120.0,90.0,1.0,0.0
4434,70.0,85.0,90.0,1.0,0.0
4435,69.0,5.0,90.0,1.0,0.0
4436,45.0,35.0,60.0,5.0,0.0
4437,48.0,40.0,60.0,3.0,0.0
4438,53.0,40.0,60.0,3.0,0.0
4439,72.0,120.0,90.0,1.0,0.0
4440,57.0,35.0,60.0,3.0,0.0
4441,77.0,120.0,90.0,1.0,0.0
4442,76.0,85.0,90.0,1.0,0.0
4443,74.0,5.0,90.0,1.0,0.0
4444,46.0,35.0,60.0,5.0,0.0
4445,50.0,40.0,60.0,3.0,0.0
4446,55.0,40.0,60.0,3.0,0.0
4447,58.0,35.0,60.0,3.0,0.0
4448,72.0,120.0,90.0,1.0,0.0
4449,70.0,120.0,90.0,1.0,0.0
4450,69.0,85.0,90.0,1.0,0.0
4451,67.0,5.0,90.0,1.0,0.0
4452,48.0,35.0,60.0,5.0,0.0
4453,52.0,40.0,60.0,3.0,0.0
4454,55.0,40.0,60.0,3.0,0.0
4455,65.0,120.0,90.0,1.0,0.0
4456,60.0,35.0,60.0,3.0,0.0
4457,64.0,120.0,90.0,1.0,0.0
4458,62.0,120.0,90.0,1.0,0.0
4459,60.0,120.0,90.0,1.0,0.0
4460,58.0,120.0,90.0,1.0,0.0
4461,57.0,120.0,90.0,1.0,0.0
4462,55.0,180.0,90.0,1.0,0.0
4463,69.0,85.0,150.0,1.0,0.0
4464,53.0,60.0,240.0,5.0,0.0
4465,70.0,60.0,60.0,1.0,0.0
4466,60.0,0.0,240.0,3.0,0.0
4467,69.0,120.0,60.0,1.0,0.0
4468,67.0,240.0,120.0,1.0,0.0
4469,55.0,0.0,240.0,5.0,0.0
4470,69.0,155.0,240.0,1.0,0.0
4471,60.0,240.0,240.0,3.0,0.0
4472,70.0,85.0,150.0,1.0,0.0
4473,74.0,0.0,240.0,1.0,0.0
4474,57.0,155.0,240.0,5.0,0.0
4475,72.0,85.0,150.0,1.0,0.0
4476,60.0,155.0,240.0,3.0,0.0
4477,70.0,85.0,150.0,1.0,0.0
4478,53.0,155.0,240.0,5.0,0.0
4479,60.0,205.0,180.0,3.0,0.0
4480,69.0,35.0,150.0,1.0,0.0
4481,67.0,85.0,150.0,1.0,0.0
4482,52.0,60.0,240.0,5.0,0.0
4483,69.0,60.0,60.0,1.0,0.0
4484,60.0,0.0,240.0,3.0,0.0
4485,67.0,120.0,60.0,1.0,0.0
4486,66.0,240.0,120.0,1.0,0.0
4487,53.0,0.0,240.0,5.0,0.0
4488,67.0,155.0,240.0,1.0,0.0
4489,60.0,240.0,240.0,3.0,0.0
4490,69.0,85.0,150.0,1.0,0.0
4491,55.0,155.0,240.0,5.0,0.0
4492,72.0,0.0,240.0,1.0,0.0
4493,60.0,155.0,240.0,3.0,0.0
4494,70.0,85.0,150.0,1.0,0.0
4495,69.0,85.0,150.0,1.0,0.0
4496,52.0,155.0,240.0,5.0,0.0
4497,60.0,290.0,180.0,3.0,0.0
4498,67.0,35.0,150.0,1.0,0.0
4499,50.0,190.0,240.0,5.0,0.0
4500,64.0,0.0,240.0,1.0,0.0
4501,65.0,50.0,180.0,1.0,0.0
4502,60.0,240.0,240.0,3.0,0.0
4503,52.0,190.0,240.0,5.0,0.0
4504,60.0,60.0,240.0,3.0,0.0
4505,67.0,50.0,180.0,1.0,0.0
4506,53.0,0.0,240.0,5.0,0.0
4507,68.0,180.0,60.0,1.0,0.0
4508,69.0,240.0,180.0,1.0,0.0
4509,60.0,60.0,240.0,3.0,0.0
4510,72.0,180.0,60.0,1.0,0.0
4511,46.0,0.0,240.0,5.0,0.0
4512,70.0,240.0,180.0,1.0,0.0
4513,55.0,240.0,240.0,3.0,0.0
4514,48.0,60.0,240.0,5.0,0.0
4515,70.0,180.0,60.0,1.0,0.0
4516,53.0,5.0,240.0,3.0,0.0
4517,69.0,235.0,180.0,1.0,0.0
4518,48.0,60.0,240.0,5.0,0.0
4519,69.0,150.0,60.0,1.0,0.0
4520,52.0,240.0,240.0,3.0,0.0
4521,67.0,30.0,150.0,1.0,0.0
4522,67.0,240.0,240.0,1.0,0.0
4523,53.0,0.0,480.0,5.0,0.0
4524,58.0,0.0,480.0,4.0,0.0
4525,64.0,0.0,480.0,4.0,0.0
4526,68.0,360.0,240.0,1.0,0.0
4527,60.0,0.0,15.0,4.0,0.0
4528,65.0,0.0,360.0,4.0,0.0
4529,53.0,0.0,360.0,5.0,0.0
4530,57.0,0.0,360.0,4.0,0.0
4531,69.0,215.0,360.0,1.0,0.0
4532,41.0,51.0,270.0,5.0,0.0
4533,69.0,120.0,90.0,1.0,0.0
4534,65.0,0.0,90.0,2.0,0.0
4535,45.0,69.0,90.0,3.0,0.0
4536,72.0,0.0,90.0,1.0,0.0
4537,48.0,120.0,90.0,3.0,0.0
4538,69.0,0.0,90.0,2.0,0.0
4539,53.0,120.0,90.0,3.0,0.0
4540,70.0,120.0,90.0,1.0,0.0
4541,43.0,51.0,270.0,5.0,0.0
4542,46.0,0.0,90.0,3.0,0.0
4543,67.0,69.0,90.0,2.0,0.0
4544,52.0,120.0,90.0,3.0,0.0
4545,74.0,0.0,90.0,1.0,0.0
4546,55.0,0.0,90.0,3.0,0.0
4547,70.0,120.0,90.0,2.0,0.0
4548,72.0,120.0,90.0,1.0,0.0
4549,45.0,51.0,270.0,5.0,0.0
4550,48.0,69.0,90.0,3.0,0.0
4551,69.0,0.0,90.0,2.0,0.0
4552,53.0,120.0,90.0,3.0,0.0
4553,77.0,0.0,90.0,1.0,0.0
4554,57.0,0.0,90.0,3.0,0.0
4555,72.0,120.0,90.0,2.0,0.0
4556,46.0,51.0,270.0,5.0,0.0
4557,76.0,120.0,90.0,1.0,0.0
4558,50.0,0.0,90.0,3.0,0.0
4559,74.0,69.0,90.0,1.0,0.0
4560,55.0,0.0,90.0,3.0,0.0
4561,72.0,120.0,90.0,1.0,0.0
4562,58.0,0.0,90.0,3.0,0.0
4563,70.0,120.0,90.0,1.0,0.0
4564,48.0,51.0,270.0,5.0,0.0
4565,69.0,120.0,90.0,1.0,0.0
4566,72.0,69.0,90.0,2.0,0.0
4567,53.0,0.0,90.0,3.0,0.0
4568,65.0,0.0,90.0,1.0,0.0
4569,57.0,120.0,90.0,3.0,0.0
4570,69.0,0.0,90.0,2.0,0.0
4571,60.0,120.0,90.0,3.0,0.0
4572,48.0,51.0,270.0,5.0,0.0
4573,67.0,120.0,90.0,1.0,0.0
4574,52.0,0.0,90.0,3.0,0.0
4575,70.0,69.0,90.0,2.0,0.0
4576,55.0,120.0,90.0,3.0,0.0
4577,64.0,0.0,90.0,1.0,0.0
4578,58.0,145.0,90.0,3.0,0.0
4579,67.0,0.0,90.0,2.0,0.0
4580,57.0,120.0,240.0,3.0,0.0
4581,53.0,0.0,480.0,5.0,0.0
4582,65.0,120.0,120.0,1.0,0.0
4583,67.0,0.0,120.0,1.0,0.0
4584,60.0,50.0,180.0,3.0,0.0
4585,69.0,70.0,120.0,1.0,0.0
4586,57.0,0.0,180.0,3.0,0.0
4587,70.0,120.0,120.0,1.0,0.0
4588,72.0,70.0,120.0,1.0,0.0
4589,60.0,50.0,180.0,3.0,0.0
4590,57.0,0.0,180.0,3.0,0.0
4591,74.0,120.0,120.0,1.0,0.0
4592,76.0,70.0,120.0,1.0,0.0
4593,57.0,0.0,180.0,3.0,0.0
4594,60.0,25.0,180.0,3.0,0.0
4595,77.0,145.0,90.0,1.0,0.0
4596,53.0,120.0,480.0,5.0,0.0
4597,76.0,120.0,120.0,1.0,0.0
4598,74.0,120.0,120.0,1.0,0.0
4599,62.0,25.0,180.0,3.0,0.0
4600,73.0,70.0,120.0,1.0,0.0
4601,58.0,0.0,180.0,3.0,0.0
4602,74.0,25.0,90.0,1.0,0.0
4603,62.0,10.0,180.0,3.0,0.0
4604,58.0,0.0,180.0,3.0,0.0
4605,79.0,70.0,120.0,1.0,0.0
4606,77.0,120.0,90.0,1.0,0.0
4607,58.0,0.0,180.0,3.0,0.0
4608,76.0,110.0,90.0,1.0,0.0
4609,62.0,10.0,180.0,3.0,0.0
4610,74.0,160.0,90.0,1.0,0.0
4611,53.0,120.0,480.0,5.0,0.0
4612,74.0,120.0,120.0,1.0,0.0
4613,72.0,120.0,120.0,1.0,0.0
4614,57.0,0.0,180.0,3.0,0.0
4615,60.0,25.0,180.0,3.0,0.0
4616,71.0,70.0,120.0,1.0,0.0
4617,72.0,25.0,90.0,1.0,0.0
4618,57.0,0.0,180.0,3.0,0.0
4619,60.0,50.0,180.0,3.0,0.0
4620,65.0,70.0,120.0,1.0,0.0
4621,69.0,120.0,120.0,1.0,0.0
4622,57.0,25.0,180.0,3.0,0.0
4623,60.0,0.0,180.0,3.0,0.0
4624,72.0,70.0,120.0,1.0,0.0
4625,77.0,145.0,90.0,1.0,0.0
4626,76.0,120.0,120.0,1.0,0.0
4627,53.0,120.0,480.0,5.0,0.0
4628,74.0,120.0,120.0,1.0,0.0
4629,58.0,25.0,180.0,3.0,0.0
4630,73.0,70.0,120.0,1.0,0.0
4631,62.0,0.0,180.0,3.0,0.0
4632,74.0,25.0,90.0,1.0,0.0
4633,79.0,70.0,120.0,1.0,0.0
4634,58.0,10.0,180.0,3.0,0.0
4635,62.0,0.0,180.0,3.0,0.0
4636,77.0,120.0,90.0,1.0,0.0
4637,76.0,110.0,90.0,1.0,0.0
4638,58.0,10.0,180.0,3.0,0.0
4639,62.0,0.0,180.0,3.0,0.0
4640,74.0,360.0,90.0,1.0,0.0
4641,72.0,65.0,330.0,1.0,0.0
4642,60.0,0.0,390.0,3.0,0.0
4643,57.0,70.0,390.0,3.0,0.0
4644,53.0,30.0,480.0,5.0,0.0
4645,72.0,25.0,90.0,1.0,0.0
4646,74.0,40.0,30.0,1.0,0.0
4647,72.0,40.0,30.0,1.0,0.0
4648,71.0,300.0,30.0,1.0,0.0
4649,72.0,455.0,300.0,1.0,0.0
4650,46.0,70.0,390.0,5.0,0.0
4651,55.0,0.0,390.0,4.0,0.0
4652,70.0,55.0,90.0,1.0,0.0
4653,72.0,40.0,30.0,1.0,0.0
4654,70.0,40.0,30.0,1.0,0.0
4655,69.0,300.0,30.0,1.0,0.0
4656,70.0,455.0,300.0,1.0,0.0
4657,53.0,70.0,390.0,4.0,0.0
4658,48.0,0.0,390.0,5.0,0.0
4659,69.0,55.0,90.0,1.0,0.0
4660,70.0,40.0,30.0,1.0,0.0
4661,69.0,40.0,30.0,1.0,0.0
4662,67.0,300.0,30.0,1.0,0.0
4663,69.0,455.0,300.0,1.0,0.0
4664,52.0,0.0,390.0,4.0,0.0
4665,46.0,70.0,390.0,5.0,0.0
4666,67.0,55.0,90.0,1.0,0.0
4667,69.0,40.0,30.0,1.0,0.0
4668,67.0,40.0,30.0,1.0,0.0
4669,66.0,300.0,30.0,1.0,0.0
4670,67.0,310.0,300.0,1.0,0.0
4671,45.0,0.0,390.0,5.0,0.0
4672,53.0,95.0,390.0,4.0,0.0
4673,72.0,120.0,120.0,1.0,0.0
4674,71.0,25.0,120.0,1.0,0.0
4675,72.0,120.0,120.0,1.0,0.0
4676,74.0,120.0,120.0,1.0,0.0
4677,72.0,120.0,120.0,1.0,0.0
4678,71.0,95.0,120.0,1.0,0.0
4679,72.0,265.0,90.0,1.0,0.0
4680,46.0,0.0,390.0,5.0,0.0
4681,55.0,95.0,390.0,4.0,0.0
4682,70.0,120.0,120.0,1.0,0.0
4683,69.0,25.0,120.0,1.0,0.0
4684,70.0,120.0,120.0,1.0,0.0
4685,72.0,120.0,120.0,1.0,0.0
4686,70.0,120.0,120.0,1.0,0.0
4687,69.0,95.0,120.0,1.0,0.0
4688,70.0,265.0,90.0,1.0,0.0
4689,53.0,0.0,390.0,4.0,0.0
4690,48.0,95.0,390.0,5.0,0.0
4691,69.0,120.0,120.0,1.0,0.0
4692,68.0,25.0,120.0,1.0,0.0
4693,69.0,120.0,120.0,1.0,0.0
4694,70.0,120.0,120.0,1.0,0.0
4695,69.0,120.0,120.0,1.0,0.0
4696,68.0,95.0,120.0,1.0,0.0
4697,69.0,265.0,90.0,1.0,0.0
4698,52.0,95.0,390.0,4.0,0.0
4699,48.0,0.0,390.0,5.0,0.0
4700,67.0,120.0,120.0,1.0,0.0
4701,66.0,25.0,120.0,1.0,0.0
4702,67.0,120.0,120.0,1.0,0.0
4703,69.0,120.0,120.0,1.0,0.0
4704,67.0,120.0,120.0,1.0,0.0
4705,66.0,95.0,120.0,1.0,0.0
4706,67.0,215.0,90.0,1.0,0.0
4707,53.0,70.0,390.0,5.0,0.0
4708,65.0,170.0,180.0,1.0,0.0
4709,69.0,25.0,120.0,1.0,0.0
4710,65.0,145.0,90.0,1.0,0.0
4711,72.0,120.0,120.0,1.0,0.0
4712,70.0,120.0,120.0,1.0,0.0
4713,67.0,95.0,120.0,1.0,0.0
4714,64.0,410.0,90.0,1.0,0.0
4715,65.0,430.0,390.0,1.0,0.0
4716,52.0,0.0,390.0,4.0,0.0
4717,64.0,50.0,330.0,2.0,0.0
4718,67.0,0.0,330.0,2.0,0.0
4719,60.0,0.0,390.0,4.0,0.0
4720,55.0,265.0,390.0,4.0,0.0
4721,48.0,0.0,390.0,5.0,0.0
4722,72.0,0.0,330.0,1.0,0.0
4723,45.0,0.0,390.0,4.0,0.0
4724,69.0,0.0,180.0,2.0,0.0
4725,65.0,0.0,180.0,2.0,0.0
4726,48.0,0.0,390.0,4.0,0.0
4727,72.0,190.0,180.0,2.0,0.0
4728,77.0,0.0,180.0,1.0,0.0
4729,53.0,0.0,390.0,4.0,0.0
4730,41.0,70.0,390.0,5.0,0.0
4731,69.0,25.0,120.0,1.0,0.0
4732,65.0,145.0,90.0,1.0,0.0
4733,72.0,120.0,120.0,1.0,0.0
4734,70.0,120.0,120.0,1.0,0.0
4735,67.0,95.0,120.0,1.0,0.0
4736,64.0,410.0,90.0,1.0,0.0
4737,65.0,480.0,390.0,1.0,0.0
4738,52.0,475.0,390.0,4.0,0.0
4739,48.0,0.0,390.0,5.0,0.0
4740,72.0,0.0,390.0,1.0,0.0
4741,55.0,0.0,390.0,4.0,0.0
4742,60.0,0.0,390.0,2.0,0.0
4743,64.0,0.0,390.0,2.0,0.0
4744,67.0,0.0,390.0,2.0,0.0
4745,53.0,0.0,390.0,4.0,0.0
4746,77.0,0.0,390.0,1.0,0.0
4747,65.0,0.0,390.0,2.0,0.0
4748,69.0,0.0,390.0,2.0,0.0
4749,45.0,0.0,390.0,4.0,0.0
4750,72.0,0.0,390.0,2.0,0.0
4751,48.0,1055.0,390.0,4.0,0.0
4752,41.0,0.0,390.0,5.0,0.0
4753,57.0,20.0,480.0,2.0,0.0
4754,41.0,480.0,960.0,5.0,0.0
4755,53.0,0.0,960.0,5.0,0.0
4756,60.0,25.0,450.0,2.0,0.0
4757,65.0,440.0,450.0,1.0,0.0
4758,60.0,0.0,480.0,1.0,0.0
4759,48.0,240.0,480.0,5.0,0.0
4760,36.0,0.0,480.0,5.0,0.0
4761,45.0,0.0,480.0,5.0,0.0
4762,57.0,480.0,480.0,5.0,0.0
4763,69.0,120.0,240.0,1.0,0.0
4764,70.0,120.0,120.0,1.0,0.0
4765,67.0,0.0,120.0,1.0,0.0
4766,53.0,720.0,480.0,5.0,0.0
4767,41.0,0.0,480.0,5.0,0.0
4768,65.0,0.0,480.0,1.0,0.0
4769,72.0,120.0,240.0,1.0,0.0
4770,74.0,120.0,120.0,1.0,0.0
4771,70.0,480.0,120.0,1.0,0.0
4772,69.0,480.0,480.0,1.0,0.0
4773,53.0,480.0,480.0,5.0,0.0
4774,81.0,0.0,480.0,1.0,0.0
4775,62.0,0.0,480.0,4.0,0.0
4776,55.0,480.0,480.0,5.0,0.0
4777,71.0,0.0,480.0,1.0,0.0
4778,65.0,0.0,480.0,4.0,0.0
4779,64.0,240.0,480.0,4.0,0.0
4780,72.0,240.0,720.0,1.0,0.0
4781,60.0,0.0,480.0,5.0,0.0
4782,73.0,240.0,240.0,1.0,0.0
4783,76.0,240.0,240.0,1.0,0.0
4784,74.0,240.0,240.0,1.0,0.0
4785,72.0,240.0,240.0,1.0,0.0
4786,70.0,240.0,240.0,1.0,0.0
4787,69.0,240.0,240.0,1.0,0.0
4788,67.0,240.0,240.0,1.0,0.0
4789,48.0,120.0,360.0,4.0,0.0
4790,65.0,120.0,240.0,1.0,0.0
4791,58.0,240.0,240.0,3.0,0.0
4792,64.0,0.0,240.0,1.0,0.0
4793,55.0,120.0,360.0,4.0,0.0
4794,72.0,120.0,240.0,1.0,0.0
4795,70.0,0.0,240.0,1.0,0.0
4796,58.0,360.0,240.0,3.0,0.0
4797,55.0,120.0,360.0,4.0,0.0
4798,58.0,240.0,240.0,3.0,0.0
4799,67.0,120.0,240.0,1.0,0.0
4800,48.0,120.0,360.0,4.0,0.0
4801,65.0,240.0,240.0,1.0,0.0
4802,57.0,0.0,240.0,3.0,0.0
4803,53.0,120.0,360.0,4.0,0.0
4804,74.0,120.0,240.0,1.0,0.0
4805,72.0,0.0,240.0,1.0,0.0
4806,57.0,360.0,240.0,3.0,0.0
4807,53.0,120.0,360.0,4.0,0.0
4808,57.0,240.0,240.0,3.0,0.0
4809,46.0,120.0,360.0,4.0,0.0
4810,69.0,120.0,240.0,1.0,0.0
4811,55.0,240.0,240.0,3.0,0.0
4812,67.0,0.0,240.0,1.0,0.0
4813,75.0,120.0,240.0,1.0,0.0
4814,50.0,120.0,360.0,4.0,0.0
4815,55.0,0.0,240.0,3.0,0.0
4816,74.0,360.0,240.0,1.0,0.0
4817,50.0,120.0,360.0,4.0,0.0
4818,55.0,480.0,240.0,3.0,0.0
4819,46.0,240.0,480.0,5.0,0.0
4820,62.0,0.0,480.0,1.0,0.0
4821,72.0,240.0,240.0,1.0,0.0
4822,70.0,240.0,240.0,1.0,0.0
4823,69.0,240.0,240.0,1.0,0.0
4824,67.0,240.0,240.0,1.0,0.0
4825,58.0,0.0,480.0,4.0,0.0
4826,48.0,480.0,480.0,5.0,0.0
4827,65.0,240.0,240.0,1.0,0.0
4828,64.0,0.0,240.0,1.0,0.0
4829,65.0,520.0,480.0,1.0,0.0
4830,53.0,0.0,480.0,5.0,0.0
4831,57.0,0.0,480.0,4.0,0.0
4832,48.0,240.0,240.0,5.0,0.0
4833,67.0,40.0,30.0,2.0,0.0
4834,72.0,40.0,30.0,2.0,0.0
4835,76.0,120.0,30.0,2.0,0.0
4836,79.0,22.0,1290.0,1.0,0.0
4837,52.0,240.0,240.0,5.0,0.0
4838,55.0,240.0,240.0,5.0,0.0
4839,52.0,240.0,240.0,5.0,0.0
4840,50.0,218.0,240.0,5.0,0.0
4841,48.0,120.0,240.0,5.0,0.0
4842,47.0,0.0,240.0,5.0,0.0
4843,79.0,120.0,120.0,1.0,0.0
4844,77.0,120.0,120.0,1.0,0.0
4845,76.0,120.0,120.0,1.0,0.0
4846,48.0,120.0,240.0,5.0,0.0
4847,50.0,0.0,240.0,5.0,0.0
4848,74.0,0.0,15.0,1.0,0.0
4849,72.0,120.0,120.0,1.0,0.0
4850,71.0,120.0,120.0,1.0,0.0
4851,43.0,120.0,240.0,5.0,0.0
4852,69.0,0.0,120.0,1.0,0.0
4853,67.0,120.0,120.0,1.0,0.0
4854,45.0,0.0,240.0,5.0,0.0
4855,65.0,120.0,120.0,1.0,0.0
4856,47.0,0.0,240.0,5.0,0.0
4857,64.0,120.0,120.0,1.0,0.0
4858,65.0,120.0,120.0,1.0,0.0
4859,48.0,120.0,240.0,5.0,0.0
4860,64.0,120.0,120.0,1.0,0.0
4861,67.0,0.0,120.0,1.0,0.0
4862,52.0,240.0,240.0,5.0,0.0
4863,72.0,120.0,120.0,1.0,0.0
4864,76.0,0.0,120.0,1.0,0.0
4865,79.0,120.0,960.0,1.0,0.0
4866,55.0,240.0,240.0,5.0,0.0
4867,52.0,240.0,240.0,5.0,0.0
4868,50.0,240.0,240.0,5.0,0.0
4869,48.0,0.0,240.0,5.0,0.0
4870,47.0,120.0,240.0,5.0,0.0
4871,79.0,120.0,120.0,1.0,0.0
4872,77.0,0.0,120.0,1.0,0.0
4873,76.0,120.0,120.0,1.0,0.0
4874,48.0,0.0,240.0,5.0,0.0
4875,74.0,120.0,120.0,1.0,0.0
4876,50.0,120.0,240.0,5.0,0.0
4877,74.0,120.0,120.0,1.0,0.0
4878,72.0,0.0,120.0,1.0,0.0
4879,71.0,120.0,120.0,1.0,0.0
4880,43.0,120.0,240.0,5.0,0.0
4881,69.0,0.0,120.0,1.0,0.0
4882,45.0,120.0,240.0,5.0,0.0
4883,67.0,120.0,120.0,1.0,0.0
4884,65.0,0.0,120.0,1.0,0.0
4885,64.0,120.0,120.0,1.0,0.0
4886,47.0,0.0,240.0,5.0,0.0
4887,65.0,120.0,120.0,1.0,0.0
4888,48.0,0.0,480.0,5.0,0.0
4889,64.0,120.0,120.0,1.0,0.0
4890,67.0,120.0,120.0,1.0,0.0
4891,65.0,120.0,120.0,1.0,0.0
4892,64.0,120.0,120.0,1.0,0.0
4893,65.0,120.0,120.0,1.0,0.0
4894,67.0,120.0,120.0,1.0,0.0
4895,69.0,120.0,120.0,1.0,0.0
4896,71.0,120.0,120.0,1.0,0.0
4897,72.0,120.0,120.0,1.0,0.0
4898,74.0,120.0,120.0,1.0,0.0
4899,76.0,120.0,120.0,1.0,0.0
4900,77.0,120.0,120.0,1.0,0.0
4901,79.0,120.0,120.0,1.0,0.0
4902,81.0,120.0,120.0,1.0,0.0
4903,83.0,120.0,120.0,1.0,0.0
4904,84.0,120.0,120.0,1.0,0.0
4905,83.0,120.0,120.0,1.0,0.0
4906,81.0,120.0,120.0,1.0,0.0
4907,79.0,120.0,120.0,1.0,0.0
4908,77.0,120.0,120.0,1.0,0.0
4909,76.0,120.0,120.0,1.0,0.0
4910,74.0,120.0,120.0,1.0,0.0
4911,72.0,120.0,120.0,1.0,0.0
4912,71.0,240.0,120.0,1.0,0.0
4913,69.0,240.0,240.0,1.0,0.0
4914,53.0,480.0,480.0,5.0,0.0
4915,62.0,0.0,480.0,5.0,0.0
4916,81.0,0.0,120.0,1.0,0.0
4917,55.0,310.0,960.0,5.0,0.0
4918,72.0,255.0,480.0,1.0,0.0
4919,64.0,0.0,480.0,4.0,0.0
4920,76.0,215.0,240.0,1.0,0.0
4921,65.0,0.0,480.0,4.0,0.0
4922,71.0,0.0,480.0,2.0,0.0
4923,74.0,10.0,240.0,1.0,0.0
4924,60.0,170.0,300.0,5.0,0.0
4925,72.0,310.0,480.0,1.0,0.0
4926,64.0,0.0,300.0,4.0,0.0
4927,48.0,1125.0,300.0,5.0,0.0
4928,41.0,0.0,960.0,5.0,0.0
4929,57.0,20.0,480.0,2.0,0.0
4930,53.0,480.0,960.0,5.0,0.0
4931,60.0,25.0,450.0,2.0,0.0
4932,65.0,440.0,450.0,1.0,0.0
4933,60.0,0.0,480.0,1.0,0.0
4934,36.0,240.0,480.0,5.0,0.0
4935,48.0,0.0,480.0,5.0,0.0
4936,57.0,0.0,480.0,5.0,0.0
4937,69.0,120.0,240.0,1.0,0.0
4938,45.0,480.0,480.0,5.0,0.0
4939,70.0,120.0,120.0,1.0,0.0
4940,67.0,0.0,120.0,1.0,0.0
4941,41.0,0.0,480.0,5.0,0.0
4942,53.0,720.0,480.0,5.0,0.0
4943,65.0,0.0,480.0,1.0,0.0
4944,72.0,120.0,240.0,1.0,0.0
4945,74.0,120.0,120.0,1.0,0.0
4946,70.0,480.0,120.0,1.0,0.0
4947,69.0,480.0,480.0,1.0,0.0
4948,81.0,0.0,480.0,1.0,0.0
4949,53.0,480.0,480.0,5.0,0.0
4950,62.0,0.0,480.0,4.0,0.0
4951,71.0,480.0,480.0,1.0,0.0
4952,65.0,0.0,480.0,4.0,0.0
4953,55.0,0.0,480.0,5.0,0.0
4954,60.0,0.0,480.0,5.0,0.0
4955,72.0,240.0,720.0,1.0,0.0
4956,64.0,240.0,480.0,4.0,0.0
4957,73.0,240.0,240.0,1.0,0.0
4958,76.0,240.0,240.0,1.0,0.0
4959,74.0,240.0,240.0,1.0,0.0
4960,72.0,240.0,240.0,1.0,0.0
4961,70.0,240.0,240.0,1.0,0.0
4962,69.0,240.0,240.0,1.0,0.0
4963,67.0,240.0,240.0,1.0,0.0
4964,48.0,120.0,360.0,4.0,0.0
4965,65.0,120.0,240.0,1.0,0.0
4966,64.0,0.0,240.0,1.0,0.0
4967,58.0,240.0,240.0,3.0,0.0
4968,55.0,120.0,360.0,4.0,0.0
4969,72.0,120.0,240.0,1.0,0.0
4970,70.0,360.0,240.0,1.0,0.0
4971,58.0,0.0,240.0,3.0,0.0
4972,55.0,120.0,360.0,4.0,0.0
4973,58.0,240.0,240.0,3.0,0.0
4974,48.0,120.0,360.0,4.0,0.0
4975,67.0,120.0,240.0,1.0,0.0
4976,57.0,0.0,240.0,3.0,0.0
4977,65.0,240.0,240.0,1.0,0.0
4978,74.0,120.0,240.0,1.0,0.0
4979,53.0,120.0,360.0,4.0,0.0
4980,57.0,360.0,240.0,3.0,0.0
4981,72.0,0.0,240.0,1.0,0.0
4982,53.0,120.0,360.0,4.0,0.0
4983,57.0,240.0,240.0,3.0,0.0
4984,46.0,120.0,360.0,4.0,0.0
4985,69.0,120.0,240.0,1.0,0.0
4986,67.0,0.0,240.0,1.0,0.0
4987,55.0,240.0,240.0,3.0,0.0
4988,75.0,120.0,240.0,1.0,0.0
4989,50.0,120.0,360.0,4.0,0.0
4990,74.0,0.0,240.0,1.0,0.0
4991,55.0,360.0,240.0,3.0,0.0
4992,50.0,120.0,360.0,4.0,0.0
4993,55.0,480.0,240.0,3.0,0.0
4994,62.0,240.0,480.0,1.0,0.0
4995,46.0,0.0,480.0,5.0,0.0
4996,72.0,240.0,240.0,1.0,0.0
4997,70.0,240.0,240.0,1.0,0.0
4998,69.0,240.0,240.0,1.0,0.0
4999,67.0,240.0,240.0,1.0,0.0
5000,65.0,240.0,240.0,1.0,0.0
5001,48.0,480.0,480.0,5.0,0.0
5002,58.0,0.0,480.0,4.0,0.0
5003,64.0,0.0,240.0,1.0,0.0
5004,65.0,520.0,480.0,1.0,0.0
5005,57.0,0.0,480.0,4.0,0.0
5006,53.0,0.0,480.0,5.0,0.0
5007,48.0,240.0,240.0,5.0,0.0
5008,67.0,40.0,30.0,2.0,0.0
5009,72.0,40.0,30.0,2.0,0.0
5010,76.0,120.0,30.0,2.0,0.0
5011,79.0,22.0,1290.0,1.0,0.0
5012,52.0,240.0,240.0,5.0,0.0
5013,55.0,240.0,240.0,5.0,0.0
5014,52.0,240.0,240.0,5.0,0.0
5015,50.0,218.0,240.0,5.0,0.0
5016,48.0,120.0,240.0,5.0,0.0
5017,47.0,120.0,240.0,5.0,0.0
5018,79.0,120.0,120.0,1.0,0.0
5019,77.0,0.0,120.0,1.0,0.0
5020,48.0,0.0,240.0,5.0,0.0
5021,76.0,120.0,120.0,1.0,0.0
5022,74.0,120.0,120.0,1.0,0.0
5023,74.0,120.0,120.0,1.0,0.0
5024,50.0,120.0,240.0,5.0,0.0
5025,72.0,0.0,120.0,1.0,0.0
5026,43.0,0.0,240.0,5.0,0.0
5027,71.0,120.0,120.0,1.0,0.0
5028,69.0,120.0,120.0,1.0,0.0
5029,67.0,120.0,120.0,1.0,0.0
5030,45.0,120.0,240.0,5.0,0.0
5031,65.0,0.0,120.0,1.0,0.0
5032,64.0,120.0,120.0,1.0,0.0
5033,47.0,0.0,240.0,5.0,0.0
5034,65.0,120.0,120.0,1.0,0.0
5035,48.0,0.0,240.0,5.0,0.0
5036,64.0,120.0,120.0,1.0,0.0
5037,67.0,120.0,120.0,1.0,0.0
5038,52.0,0.0,240.0,5.0,0.0
5039,72.0,120.0,120.0,1.0,0.0
5040,76.0,240.0,120.0,1.0,0.0
5041,55.0,240.0,240.0,5.0,0.0
5042,52.0,240.0,240.0,5.0,0.0
5043,50.0,240.0,240.0,5.0,0.0
5044,48.0,120.0,240.0,5.0,0.0
5045,79.0,0.0,15.0,1.0,0.0
5046,47.0,0.0,240.0,5.0,0.0
5047,77.0,120.0,120.0,1.0,0.0
5048,76.0,120.0,120.0,1.0,0.0
5049,48.0,120.0,240.0,5.0,0.0
5050,74.0,0.0,15.0,1.0,0.0
5051,50.0,120.0,240.0,5.0,0.0
5052,72.0,0.0,120.0,1.0,0.0
5053,71.0,120.0,120.0,1.0,0.0
5054,43.0,0.0,240.0,5.0,0.0
5055,69.0,120.0,120.0,1.0,0.0
5056,45.0,0.0,240.0,5.0,0.0
5057,67.0,120.0,120.0,1.0,0.0
5058,65.0,120.0,120.0,1.0,0.0
5059,47.0,0.0,240.0,5.0,0.0
5060,64.0,120.0,120.0,1.0,0.0
5061,65.0,120.0,120.0,1.0,0.0
5062,48.0,0.0,480.0,5.0,0.0
5063,64.0,120.0,120.0,1.0,0.0
5064,67.0,120.0,120.0,1.0,0.0
5065,65.0,120.0,120.0,1.0,0.0
5066,64.0,120.0,120.0,1.0,0.0
5067,65.0,120.0,120.0,1.0,0.0
5068,67.0,120.0,120.0,1.0,0.0
5069,69.0,120.0,120.0,1.0,0.0
5070,71.0,120.0,120.0,1.0,0.0
5071,72.0,120.0,120.0,1.0,0.0
5072,74.0,120.0,120.0,1.0,0.0
5073,76.0,120.0,120.0,1.0,0.0
5074,77.0,120.0,120.0,1.0,0.0
5075,79.0,120.0,120.0,1.0,0.0
5076,81.0,120.0,120.0,1.0,0.0
5077,83.0,120.0,120.0,1.0,0.0
5078,84.0,120.0,120.0,1.0,0.0
5079,83.0,120.0,120.0,1.0,0.0
5080,81.0,120.0,120.0,1.0,0.0
5081,79.0,120.0,120.0,1.0,0.0
5082,77.0,120.0,120.0,1.0,0.0
5083,76.0,120.0,120.0,1.0,0.0
5084,74.0,120.0,120.0,1.0,0.0
5085,72.0,120.0,120.0,1.0,0.0
5086,71.0,240.0,120.0,1.0,0.0
5087,62.0,480.0,480.0,5.0,0.0
5088,53.0,0.0,480.0,5.0,0.0
5089,69.0,240.0,240.0,1.0,0.0
5090,81.0,0.0,120.0,1.0,0.0
5091,72.0,255.0,480.0,1.0,0.0
5092,55.0,0.0,960.0,5.0,0.0
5093,64.0,0.0,480.0,4.0,0.0
5094,65.0,310.0,480.0,4.0,0.0
5095,76.0,215.0,240.0,1.0,0.0
5096,71.0,0.0,480.0,2.0,0.0
5097,74.0,10.0,240.0,1.0,0.0
5098,72.0,310.0,480.0,1.0,0.0
5099,60.0,170.0,300.0,5.0,0.0
5100,64.0,0.0,300.0,4.0,0.0
5101,48.0,770.0,300.0,5.0,0.0
5102,60.0,330.0,120.0,1.0,0.0
5103,72.0,150.0,330.0,1.0,0.0
5104,62.0,330.0,120.0,1.0,0.0
5105,74.0,150.0,330.0,1.0,0.0
5106,63.0,330.0,120.0,1.0,0.0
5107,75.0,270.0,330.0,1.0,0.0
5108,50.0,240.0,240.0,5.0,0.0
5109,67.0,0.0,480.0,1.0,0.0
5110,57.0,240.0,240.0,5.0,0.0
5111,66.0,0.0,480.0,1.0,0.0
5112,62.0,240.0,240.0,5.0,0.0
5113,60.0,240.0,240.0,5.0,0.0
5114,58.0,215.0,240.0,5.0,0.0
5115,57.0,240.0,240.0,5.0,0.0
5116,66.0,25.0,90.0,1.0,0.0
5117,69.0,0.0,480.0,1.0,0.0
5118,50.0,240.0,240.0,5.0,0.0
5119,58.0,240.0,240.0,5.0,0.0
5120,62.0,240.0,240.0,5.0,0.0
5121,67.0,0.0,480.0,1.0,0.0
5122,58.0,240.0,240.0,5.0,0.0
5123,57.0,215.0,240.0,5.0,0.0
5124,55.0,240.0,240.0,5.0,0.0
5125,67.0,25.0,90.0,1.0,0.0
5126,70.0,0.0,480.0,1.0,0.0
5127,50.0,240.0,240.0,5.0,0.0
5128,54.0,240.0,240.0,5.0,0.0
5129,69.0,0.0,480.0,1.0,0.0
5130,60.0,240.0,240.0,5.0,0.0
5131,57.0,240.0,240.0,5.0,0.0
5132,55.0,215.0,240.0,5.0,0.0
5133,54.0,240.0,240.0,5.0,0.0
5134,69.0,25.0,90.0,1.0,0.0
5135,55.0,240.0,480.0,5.0,0.0
5136,72.0,190.0,240.0,1.0,0.0
5137,70.0,50.0,180.0,1.0,0.0
5138,73.0,190.0,240.0,1.0,0.0
5139,72.0,290.0,180.0,1.0,0.0
5140,75.0,190.0,240.0,1.0,0.0
5141,74.0,290.0,180.0,1.0,0.0
5142,48.0,240.0,240.0,5.0,0.0
5143,65.0,0.0,480.0,1.0,0.0
5144,55.0,240.0,240.0,5.0,0.0
5145,64.0,0.0,480.0,1.0,0.0
5146,60.0,240.0,240.0,5.0,0.0
5147,58.0,240.0,240.0,5.0,0.0
5148,56.0,215.0,240.0,5.0,0.0
5149,55.0,240.0,240.0,5.0,0.0
5150,64.0,25.0,90.0,1.0,0.0
5151,67.0,240.0,480.0,1.0,0.0
5152,48.0,240.0,240.0,5.0,0.0
5153,56.0,0.0,240.0,5.0,0.0
5154,65.0,0.0,480.0,1.0,0.0
5155,60.0,240.0,240.0,5.0,0.0
5156,56.0,240.0,240.0,5.0,0.0
5157,55.0,215.0,240.0,5.0,0.0
5158,53.0,240.0,240.0,5.0,0.0
5159,65.0,25.0,90.0,1.0,0.0
5160,68.0,0.0,480.0,1.0,0.0
5161,48.0,240.0,240.0,5.0,0.0
5162,52.0,240.0,240.0,5.0,0.0
5163,58.0,240.0,240.0,5.0,0.0
5164,67.0,240.0,480.0,1.0,0.0
5165,55.0,0.0,240.0,5.0,0.0
5166,53.0,215.0,240.0,5.0,0.0
5167,52.0,240.0,240.0,5.0,0.0
5168,67.0,25.0,90.0,1.0,0.0
5169,70.0,240.0,240.0,1.0,0.0
5170,53.0,0.0,960.0,5.0,0.0
5171,68.0,240.0,240.0,1.0,0.0
5172,67.0,240.0,240.0,1.0,0.0
5173,65.0,155.0,240.0,1.0,0.0
5174,39.0,0.0,480.0,5.0,0.0
5175,77.0,240.0,150.0,1.0,0.0
5176,51.0,240.0,480.0,5.0,0.0
5177,77.0,85.0,150.0,1.0,0.0
5178,49.0,240.0,960.0,5.0,0.0
5179,79.0,240.0,240.0,1.0,0.0
5180,37.0,0.0,960.0,5.0,0.0
5181,77.0,240.0,240.0,1.0,0.0
5182,75.0,240.0,240.0,1.0,0.0
5183,73.0,0.0,240.0,1.0,0.0
5184,72.0,240.0,240.0,1.0,0.0
5185,71.0,240.0,240.0,1.0,0.0
5186,53.0,240.0,240.0,4.0,0.0
5187,49.0,0.0,1440.0,5.0,0.0
5188,80.0,0.0,960.0,1.0,0.0
5189,52.0,240.0,240.0,4.0,0.0
5190,53.0,240.0,240.0,4.0,0.0
5191,56.0,240.0,240.0,4.0,0.0
5192,71.0,0.0,480.0,1.0,0.0
5193,55.0,240.0,240.0,4.0,0.0
5194,53.0,310.0,240.0,4.0,0.0
5195,72.0,120.0,720.0,1.0,0.0
5196,48.0,410.0,300.0,5.0,0.0
5197,52.0,0.0,300.0,4.0,0.0
5198,74.0,120.0,120.0,1.0,0.0
5199,72.0,120.0,15.0,1.0,0.0
5200,70.0,120.0,120.0,1.0,0.0
5201,69.0,120.0,120.0,1.0,0.0
5202,67.0,950.0,120.0,1.0,0.0
5203,57.0,0.0,960.0,2.0,0.0
5204,41.0,5.0,960.0,5.0,0.0
5205,53.0,0.0,960.0,5.0,0.0
5206,60.0,10.0,900.0,2.0,0.0
5207,65.0,475.0,900.0,1.0,0.0
5208,36.0,0.0,480.0,5.0,0.0
5209,48.0,240.0,480.0,5.0,0.0
5210,60.0,0.0,480.0,1.0,0.0
5211,45.0,0.0,480.0,5.0,0.0
5212,69.0,120.0,240.0,1.0,0.0
5213,57.0,0.0,480.0,5.0,0.0
5214,70.0,120.0,120.0,1.0,0.0
5215,67.0,480.0,120.0,1.0,0.0
5216,53.0,720.0,480.0,5.0,0.0
5217,65.0,0.0,480.0,1.0,0.0
5218,41.0,0.0,480.0,5.0,0.0
5219,72.0,120.0,240.0,1.0,0.0
5220,74.0,120.0,120.0,1.0,0.0
5221,70.0,480.0,120.0,1.0,0.0
5222,69.0,480.0,480.0,1.0,0.0
5223,53.0,0.0,480.0,5.0,0.0
5224,62.0,480.0,480.0,4.0,0.0
5225,81.0,0.0,480.0,1.0,0.0
5226,55.0,480.0,480.0,5.0,0.0
5227,71.0,0.0,480.0,1.0,0.0
5228,65.0,0.0,480.0,4.0,0.0
5229,72.0,240.0,720.0,1.0,0.0
5230,64.0,0.0,480.0,4.0,0.0
5231,60.0,240.0,480.0,5.0,0.0
5232,73.0,240.0,240.0,1.0,0.0
5233,76.0,240.0,240.0,1.0,0.0
5234,74.0,240.0,240.0,1.0,0.0
5235,72.0,240.0,240.0,1.0,0.0
5236,70.0,240.0,240.0,1.0,0.0
5237,69.0,240.0,240.0,1.0,0.0
5238,67.0,240.0,240.0,1.0,0.0
5239,48.0,120.0,360.0,4.0,0.0
5240,65.0,120.0,240.0,1.0,0.0
5241,58.0,0.0,240.0,3.0,0.0
5242,64.0,240.0,240.0,1.0,0.0
5243,55.0,120.0,360.0,4.0,0.0
5244,72.0,120.0,240.0,1.0,0.0
5245,70.0,360.0,240.0,1.0,0.0
5246,58.0,0.0,240.0,3.0,0.0
5247,55.0,120.0,360.0,4.0,0.0
5248,58.0,240.0,240.0,3.0,0.0
5249,48.0,120.0,360.0,4.0,0.0
5250,67.0,120.0,240.0,1.0,0.0
5251,65.0,0.0,240.0,1.0,0.0
5252,57.0,240.0,240.0,3.0,0.0
5253,74.0,120.0,240.0,1.0,0.0
5254,53.0,120.0,360.0,4.0,0.0
5255,57.0,0.0,240.0,3.0,0.0
5256,72.0,360.0,240.0,1.0,0.0
5257,53.0,120.0,360.0,4.0,0.0
5258,57.0,240.0,240.0,3.0,0.0
5259,48.0,120.0,360.0,4.0,0.0
5260,67.0,120.0,240.0,1.0,0.0
5261,65.0,0.0,240.0,1.0,0.0
5262,57.0,240.0,240.0,3.0,0.0
5263,53.0,120.0,360.0,4.0,0.0
5264,77.0,120.0,240.0,1.0,0.0
5265,75.0,360.0,240.0,1.0,0.0
5266,57.0,0.0,240.0,3.0,0.0
5267,53.0,120.0,360.0,4.0,0.0
5268,57.0,240.0,240.0,3.0,0.0
5269,58.0,0.0,480.0,4.0,0.0
5270,53.0,0.0,480.0,4.0,0.0
5271,46.0,240.0,480.0,5.0,0.0
5272,75.0,240.0,240.0,1.0,0.0
5273,74.0,0.0,240.0,1.0,0.0
5274,72.0,240.0,240.0,1.0,0.0
5275,70.0,240.0,240.0,1.0,0.0
5276,69.0,240.0,240.0,1.0,0.0
5277,67.0,120.0,240.0,1.0,0.0
5278,45.0,0.0,360.0,5.0,0.0
5279,72.0,40.0,120.0,1.0,0.0
5280,74.0,40.0,30.0,1.0,0.0
5281,72.0,40.0,30.0,1.0,0.0
5282,71.0,120.0,30.0,1.0,0.0
5283,72.0,120.0,120.0,1.0,0.0
5284,46.0,480.0,120.0,5.0,0.0
5285,74.0,0.0,120.0,1.0,0.0
5286,48.0,40.0,960.0,5.0,0.0
5287,57.0,0.0,480.0,4.0,0.0
5288,65.0,480.0,480.0,1.0,0.0
5289,64.0,0.0,480.0,1.0,0.0
5290,55.0,0.0,480.0,4.0,0.0
5291,65.0,40.0,30.0,2.0,0.0
5292,53.0,210.0,240.0,5.0,0.0
5293,69.0,160.0,30.0,2.0,0.0
5294,72.0,30.0,360.0,1.0,0.0
5295,57.0,240.0,240.0,5.0,0.0
5296,72.0,0.0,960.0,1.0,0.0
5297,60.0,240.0,240.0,5.0,0.0
5298,57.0,240.0,240.0,5.0,0.0
5299,55.0,240.0,240.0,5.0,0.0
5300,53.0,120.0,240.0,5.0,0.0
5301,52.0,0.0,240.0,5.0,0.0
5302,72.0,120.0,120.0,1.0,0.0
5303,70.0,120.0,120.0,1.0,0.0
5304,69.0,120.0,120.0,1.0,0.0
5305,53.0,0.0,240.0,5.0,0.0
5306,67.0,120.0,120.0,1.0,0.0
5307,55.0,120.0,240.0,5.0,0.0
5308,67.0,120.0,120.0,1.0,0.0
5309,65.0,0.0,120.0,1.0,0.0
5310,48.0,120.0,240.0,5.0,0.0
5311,64.0,120.0,120.0,1.0,0.0
5312,62.0,0.0,120.0,1.0,0.0
5313,50.0,120.0,240.0,5.0,0.0
5314,60.0,120.0,120.0,1.0,0.0
5315,58.0,0.0,120.0,1.0,0.0
5316,52.0,120.0,240.0,5.0,0.0
5317,57.0,120.0,120.0,1.0,0.0
5318,58.0,0.0,120.0,1.0,0.0
5319,57.0,120.0,120.0,1.0,0.0
5320,53.0,120.0,240.0,5.0,0.0
5321,60.0,0.0,120.0,1.0,0.0
5322,65.0,120.0,120.0,1.0,0.0
5323,57.0,240.0,240.0,5.0,0.0
5324,69.0,0.0,120.0,1.0,0.0
5325,60.0,240.0,240.0,5.0,0.0
5326,72.0,0.0,720.0,1.0,0.0
5327,57.0,240.0,240.0,5.0,0.0
5328,55.0,240.0,240.0,5.0,0.0
5329,53.0,0.0,240.0,5.0,0.0
5330,84.0,120.0,15.0,1.0,0.0
5331,52.0,0.0,240.0,5.0,0.0
5332,82.0,120.0,120.0,1.0,0.0
5333,53.0,120.0,240.0,5.0,0.0
5334,81.0,120.0,120.0,1.0,0.0
5335,79.0,0.0,120.0,1.0,0.0
5336,79.0,120.0,120.0,1.0,0.0
5337,55.0,120.0,240.0,5.0,0.0
5338,77.0,0.0,120.0,1.0,0.0
5339,76.0,120.0,120.0,1.0,0.0
5340,48.0,0.0,240.0,5.0,0.0
5341,74.0,120.0,120.0,1.0,0.0
5342,50.0,120.0,240.0,5.0,0.0
5343,72.0,120.0,120.0,1.0,0.0
5344,70.0,0.0,120.0,1.0,0.0
5345,69.0,120.0,120.0,1.0,0.0
5346,52.0,120.0,240.0,5.0,0.0
5347,70.0,0.0,120.0,1.0,0.0
5348,53.0,50.0,300.0,5.0,0.0
5349,69.0,120.0,120.0,1.0,0.0
5350,72.0,70.0,120.0,1.0,0.0
5351,70.0,120.0,120.0,1.0,0.0
5352,69.0,120.0,120.0,1.0,0.0
5353,50.0,0.0,300.0,5.0,0.0
5354,53.0,50.0,300.0,4.0,0.0
5355,70.0,120.0,120.0,1.0,0.0
5356,72.0,70.0,120.0,1.0,0.0
5357,74.0,120.0,120.0,1.0,0.0
5358,76.0,120.0,120.0,1.0,0.0
5359,50.0,0.0,300.0,4.0,0.0
5360,46.0,0.0,300.0,5.0,0.0
5361,53.0,50.0,300.0,4.0,0.0
5362,77.0,120.0,120.0,1.0,0.0
5363,79.0,70.0,120.0,1.0,0.0
5364,81.0,120.0,120.0,1.0,0.0
5365,82.0,120.0,120.0,1.0,0.0
5366,84.0,120.0,120.0,1.0,0.0
5367,45.0,95.0,390.0,5.0,0.0
5368,53.0,0.0,390.0,4.0,0.0
5369,48.0,0.0,390.0,4.0,0.0
5370,82.0,120.0,120.0,1.0,0.0
5371,81.0,25.0,120.0,1.0,0.0
5372,79.0,120.0,120.0,1.0,0.0
5373,77.0,120.0,120.0,1.0,0.0
5374,76.0,120.0,120.0,1.0,0.0
5375,74.0,120.0,120.0,1.0,0.0
5376,72.0,120.0,120.0,1.0,0.0
5377,70.0,120.0,120.0,1.0,0.0
5378,69.0,120.0,120.0,1.0,0.0
5379,67.0,120.0,120.0,1.0,0.0
5380,65.0,60.0,120.0,1.0,0.0
5381,74.0,60.0,60.0,1.0,0.0
5382,46.0,480.0,480.0,5.0,0.0
5383,55.0,0.0,480.0,4.0,0.0
5384,76.0,60.0,60.0,1.0,0.0
5385,74.0,60.0,60.0,1.0,0.0
5386,76.0,40.0,60.0,1.0,0.0
5387,74.0,40.0,30.0,1.0,0.0
5388,76.0,40.0,30.0,1.0,0.0
5389,74.0,60.0,30.0,1.0,0.0
5390,76.0,60.0,60.0,1.0,0.0
5391,77.0,0.0,60.0,1.0,0.0
5392,65.0,0.0,480.0,1.0,0.0
5393,48.0,0.0,960.0,5.0,0.0
5394,57.0,245.0,480.0,4.0,0.0
5395,64.0,0.0,480.0,2.0,0.0
5396,69.0,235.0,240.0,1.0,0.0
5397,58.0,0.0,480.0,4.0,0.0
5398,67.0,385.0,240.0,1.0,0.0
5399,57.0,0.0,390.0,4.0,0.0
5400,53.0,480.0,390.0,5.0,0.0
5401,65.0,0.0,390.0,1.0,0.0
5402,41.0,815.0,390.0,5.0,0.0
5403,34.0,0.0,1530.0,5.0,0.0
5404,46.0,145.0,1530.0,5.0,0.0
5405,65.0,240.0,240.0,1.0,0.0
5406,62.0,0.0,240.0,2.0,0.0
5407,53.0,240.0,240.0,3.0,0.0
5408,58.0,0.0,240.0,2.0,0.0
5409,62.0,240.0,240.0,1.0,0.0
5410,53.0,240.0,240.0,3.0,0.0
5411,60.0,240.0,240.0,2.0,0.0
5412,63.0,0.0,240.0,1.0,0.0
5413,53.0,95.0,240.0,3.0,0.0
5414,65.0,240.0,240.0,1.0,0.0
5415,62.0,0.0,240.0,2.0,0.0
5416,53.0,240.0,240.0,3.0,0.0
5417,62.0,0.0,240.0,1.0,0.0
5418,58.0,240.0,240.0,2.0,0.0
5419,60.0,240.0,240.0,1.0,0.0
5420,57.0,0.0,240.0,2.0,0.0
5421,62.0,240.0,240.0,1.0,0.0
5422,58.0,0.0,240.0,2.0,0.0
5423,60.0,240.0,240.0,2.0,0.0
5424,63.0,0.0,240.0,1.0,0.0
5425,62.0,0.0,240.0,2.0,0.0
5426,65.0,240.0,240.0,1.0,0.0
5427,58.0,240.0,240.0,3.0,0.0
5428,67.0,240.0,240.0,1.0,0.0
5429,63.0,0.0,240.0,2.0,0.0
5430,58.0,240.0,240.0,3.0,0.0
5431,63.0,0.0,240.0,2.0,0.0
5432,53.0,0.0,390.0,5.0,0.0
5433,69.0,145.0,240.0,1.0,0.0
5434,41.0,95.0,390.0,5.0,0.0
5435,60.0,240.0,240.0,3.0,0.0
5436,34.0,95.0,390.0,5.0,0.0
5437,70.0,0.0,240.0,1.0,0.0
5438,62.0,145.0,240.0,2.0,0.0
5439,46.0,0.0,390.0,5.0,0.0
5440,65.0,240.0,240.0,2.0,0.0
5441,58.0,240.0,240.0,4.0,0.0
5442,74.0,0.0,240.0,1.0,0.0
5443,62.0,0.0,240.0,2.0,0.0
5444,60.0,0.0,240.0,2.0,0.0
5445,57.0,240.0,240.0,4.0,0.0
5446,72.0,0.0,240.0,1.0,0.0
5447,74.0,240.0,240.0,1.0,0.0
5448,62.0,0.0,240.0,2.0,0.0
5449,58.0,0.0,240.0,4.0,0.0
5450,60.0,0.0,240.0,4.0,0.0
5451,63.0,0.0,240.0,2.0,0.0
5452,75.0,240.0,240.0,1.0,0.0
5453,62.0,0.0,240.0,4.0,0.0
5454,65.0,240.0,240.0,2.0,0.0
5455,77.0,240.0,480.0,1.0,0.0
5456,58.0,0.0,240.0,3.0,0.0
5457,79.0,0.0,480.0,1.0,0.0
5458,63.0,240.0,240.0,4.0,0.0
5459,67.0,0.0,240.0,2.0,0.0
5460,58.0,240.0,240.0,3.0,0.0
5461,69.0,0.0,240.0,2.0,0.0
5462,63.0,240.0,240.0,4.0,0.0
5463,81.0,240.0,480.0,1.0,0.0
5464,60.0,0.0,240.0,3.0,0.0
5465,70.0,0.0,240.0,2.0,0.0
5466,82.0,0.0,480.0,1.0,0.0
5467,62.0,240.0,240.0,4.0,0.0
5468,65.0,240.0,240.0,3.0,0.0
5469,70.0,0.0,240.0,1.0,0.0
5470,62.0,240.0,240.0,2.0,0.0
5471,60.0,240.0,240.0,2.0,0.0
5472,69.0,0.0,240.0,1.0,0.0
5473,58.0,240.0,240.0,2.0,0.0
5474,67.0,0.0,240.0,1.0,0.0
5475,65.0,0.0,240.0,1.0,0.0
5476,57.0,240.0,240.0,2.0,0.0
5477,64.0,145.0,240.0,1.0,0.0
5478,55.0,0.0,240.0,2.0,0.0
5479,48.0,95.0,390.0,5.0,0.0
5480,60.0,240.0,240.0,3.0,0.0
5481,45.0,95.0,390.0,5.0,0.0
5482,65.0,0.0,240.0,1.0,0.0
5483,57.0,145.0,240.0,2.0,0.0
5484,60.0,240.0,240.0,3.0,0.0
5485,69.0,145.0,240.0,1.0,0.0
5486,41.0,95.0,390.0,5.0,0.0
5487,65.0,0.0,240.0,2.0,0.0
5488,60.0,240.0,240.0,3.0,0.0
5489,48.0,95.0,390.0,5.0,0.0
5490,64.0,145.0,240.0,2.0,0.0
5491,67.0,0.0,240.0,1.0,0.0
5492,60.0,240.0,240.0,3.0,0.0
5493,82.0,240.0,240.0,1.0,0.0
5494,70.0,0.0,240.0,2.0,0.0
5495,62.0,0.0,240.0,4.0,0.0
5496,81.0,240.0,240.0,1.0,0.0
5497,69.0,0.0,240.0,2.0,0.0
5498,60.0,0.0,240.0,4.0,0.0
5499,67.0,0.0,240.0,2.0,0.0
5500,58.0,240.0,240.0,4.0,0.0
5501,79.0,0.0,240.0,1.0,0.0
5502,57.0,0.0,240.0,4.0,0.0
5503,77.0,0.0,240.0,1.0,0.0
5504,65.0,60.0,240.0,2.0,0.0
5505,83.0,180.0,60.0,1.0,0.0
5506,55.0,225.0,240.0,4.0,0.0
5507,64.0,0.0,240.0,2.0,0.0
5508,84.0,15.0,420.0,1.0,0.0
5509,60.0,60.0,240.0,3.0,0.0
5510,57.0,0.0,240.0,4.0,0.0
5511,83.0,180.0,60.0,1.0,0.0
5512,65.0,230.0,240.0,2.0,0.0
5513,84.0,10.0,420.0,1.0,0.0
5514,60.0,60.0,240.0,3.0,0.0
5515,65.0,0.0,240.0,4.0,0.0
5516,83.0,180.0,60.0,1.0,0.0
5517,69.0,225.0,240.0,2.0,0.0
5518,84.0,15.0,420.0,1.0,0.0
5519,60.0,60.0,240.0,3.0,0.0
5520,83.0,180.0,60.0,1.0,0.0
5521,64.0,230.0,240.0,4.0,0.0
5522,67.0,0.0,240.0,2.0,0.0
5523,84.0,10.0,420.0,1.0,0.0
5524,69.0,190.0,240.0,1.0,0.0
5525,60.0,190.0,15.0,3.0,0.0
5526,41.0,50.0,180.0,5.0,0.0
5527,67.0,190.0,240.0,1.0,0.0
5528,40.0,50.0,180.0,5.0,0.0
5529,69.0,190.0,240.0,1.0,0.0
5530,41.0,50.0,180.0,5.0,0.0
5531,70.0,240.0,240.0,1.0,0.0
5532,43.0,50.0,180.0,5.0,0.0
5533,45.0,95.0,390.0,5.0,0.0
5534,72.0,145.0,240.0,1.0,0.0
5535,65.0,240.0,240.0,1.0,0.0
5536,48.0,95.0,390.0,5.0,0.0
5537,65.0,0.0,480.0,2.0,0.0
5538,69.0,145.0,240.0,1.0,0.0
5539,60.0,240.0,240.0,3.0,0.0
5540,67.0,145.0,240.0,1.0,0.0
5541,36.0,95.0,390.0,5.0,0.0
5542,64.0,240.0,480.0,2.0,0.0
5543,60.0,0.0,240.0,3.0,0.0
5544,65.0,145.0,240.0,1.0,0.0
5545,41.0,95.0,390.0,5.0,0.0
5546,60.0,240.0,240.0,3.0,0.0
5547,65.0,0.0,240.0,4.0,0.0
5548,69.0,240.0,240.0,2.0,0.0
5549,81.0,0.0,240.0,1.0,0.0
5550,64.0,240.0,240.0,4.0,0.0
5551,67.0,0.0,240.0,2.0,0.0
5552,79.0,0.0,240.0,1.0,0.0
5553,69.0,240.0,240.0,2.0,0.0
5554,65.0,0.0,240.0,4.0,0.0
5555,81.0,0.0,240.0,1.0,0.0
5556,67.0,240.0,240.0,4.0,0.0
5557,82.0,0.0,240.0,1.0,0.0
5558,70.0,0.0,240.0,2.0,0.0
5559,72.0,240.0,240.0,2.0,0.0
5560,69.0,0.0,240.0,4.0,0.0
5561,84.0,240.0,480.0,1.0,0.0
5562,60.0,0.0,240.0,3.0,0.0
5563,69.0,0.0,240.0,2.0,0.0
5564,81.0,0.0,480.0,1.0,0.0
5565,65.0,240.0,240.0,4.0,0.0
5566,60.0,240.0,240.0,3.0,0.0
5567,67.0,0.0,240.0,2.0,0.0
5568,79.0,240.0,480.0,1.0,0.0
5569,64.0,240.0,240.0,4.0,0.0
5570,60.0,0.0,240.0,3.0,0.0
5571,77.0,0.0,480.0,1.0,0.0
5572,65.0,240.0,240.0,2.0,0.0
5573,60.0,240.0,240.0,1.0,0.0
5574,55.0,0.0,390.0,4.0,0.0
5575,62.0,145.0,240.0,1.0,0.0
5576,46.0,95.0,390.0,5.0,0.0
5577,70.0,240.0,240.0,1.0,0.0
5578,67.0,145.0,240.0,1.0,0.0
5579,48.0,0.0,390.0,5.0,0.0
5580,58.0,95.0,390.0,4.0,0.0
5581,64.0,240.0,240.0,1.0,0.0
5582,57.0,0.0,390.0,4.0,0.0
5583,53.0,95.0,390.0,5.0,0.0
5584,65.0,145.0,240.0,1.0,0.0
5585,60.0,240.0,240.0,1.0,0.0
5586,55.0,0.0,390.0,4.0,0.0
5587,62.0,145.0,240.0,1.0,0.0
5588,46.0,95.0,390.0,5.0,0.0
5589,70.0,240.0,240.0,1.0,0.0
5590,67.0,145.0,240.0,1.0,0.0
5591,48.0,0.0,390.0,5.0,0.0
5592,58.0,95.0,390.0,4.0,0.0
5593,64.0,240.0,240.0,1.0,0.0
5594,57.0,0.0,390.0,4.0,0.0
5595,65.0,145.0,240.0,1.0,0.0
5596,53.0,95.0,390.0,5.0,0.0
5597,64.0,240.0,240.0,1.0,0.0
5598,65.0,240.0,240.0,1.0,0.0
5599,67.0,240.0,240.0,1.0,0.0
5600,63.0,240.0,240.0,1.0,0.0
5601,60.0,240.0,240.0,1.0,0.0
5602,34.0,145.0,1530.0,5.0,0.0
5603,46.0,0.0,1530.0,5.0,0.0
5604,65.0,0.0,240.0,1.0,0.0
5605,62.0,240.0,240.0,2.0,0.0
5606,53.0,240.0,240.0,3.0,0.0
5607,62.0,0.0,240.0,1.0,0.0
5608,58.0,240.0,240.0,2.0,0.0
5609,53.0,240.0,240.0,3.0,0.0
5610,60.0,0.0,240.0,2.0,0.0
5611,63.0,240.0,240.0,1.0,0.0
5612,53.0,95.0,240.0,3.0,0.0
5613,65.0,240.0,240.0,1.0,0.0
5614,62.0,0.0,240.0,2.0,0.0
5615,53.0,240.0,240.0,3.0,0.0
5616,62.0,240.0,240.0,1.0,0.0
5617,58.0,0.0,240.0,2.0,0.0
5618,60.0,240.0,240.0,1.0,0.0
5619,57.0,0.0,240.0,2.0,0.0
5620,58.0,0.0,240.0,2.0,0.0
5621,62.0,240.0,240.0,1.0,0.0
5622,63.0,0.0,240.0,1.0,0.0
5623,60.0,240.0,240.0,2.0,0.0
5624,65.0,0.0,240.0,1.0,0.0
5625,62.0,240.0,240.0,2.0,0.0
5626,58.0,240.0,240.0,3.0,0.0
5627,63.0,240.0,240.0,2.0,0.0
5628,67.0,0.0,240.0,1.0,0.0
5629,58.0,240.0,240.0,3.0,0.0
5630,63.0,0.0,240.0,2.0,0.0
5631,69.0,145.0,240.0,1.0,0.0
5632,41.0,95.0,390.0,5.0,0.0
5633,53.0,0.0,390.0,5.0,0.0
5634,60.0,240.0,240.0,3.0,0.0
5635,46.0,0.0,390.0,5.0,0.0
5636,62.0,145.0,240.0,2.0,0.0
5637,34.0,95.0,390.0,5.0,0.0
5638,70.0,0.0,240.0,1.0,0.0
5639,65.0,240.0,240.0,2.0,0.0
5640,74.0,0.0,240.0,1.0,0.0
5641,62.0,240.0,240.0,2.0,0.0
5642,58.0,0.0,240.0,4.0,0.0
5643,72.0,0.0,240.0,1.0,0.0
5644,60.0,240.0,240.0,2.0,0.0
5645,57.0,0.0,240.0,4.0,0.0
5646,58.0,0.0,240.0,4.0,0.0
5647,74.0,240.0,240.0,1.0,0.0
5648,62.0,0.0,240.0,2.0,0.0
5649,60.0,0.0,240.0,4.0,0.0
5650,75.0,240.0,240.0,1.0,0.0
5651,63.0,0.0,240.0,2.0,0.0
5652,62.0,0.0,240.0,4.0,0.0
5653,65.0,240.0,240.0,2.0,0.0
5654,77.0,240.0,480.0,1.0,0.0
5655,58.0,0.0,240.0,3.0,0.0
5656,63.0,240.0,240.0,4.0,0.0
5657,67.0,0.0,240.0,2.0,0.0
5658,79.0,240.0,480.0,1.0,0.0
5659,58.0,0.0,240.0,3.0,0.0
5660,69.0,240.0,240.0,2.0,0.0
5661,81.0,0.0,480.0,1.0,0.0
5662,63.0,0.0,240.0,4.0,0.0
5663,60.0,240.0,240.0,3.0,0.0
5664,70.0,0.0,240.0,2.0,0.0
5665,62.0,240.0,240.0,4.0,0.0
5666,82.0,0.0,480.0,1.0,0.0
5667,65.0,240.0,240.0,3.0,0.0
5668,70.0,240.0,240.0,1.0,0.0
5669,62.0,0.0,240.0,2.0,0.0
5670,60.0,0.0,240.0,2.0,0.0
5671,69.0,240.0,240.0,1.0,0.0
5672,58.0,0.0,240.0,2.0,0.0
5673,67.0,240.0,240.0,1.0,0.0
5674,57.0,240.0,240.0,2.0,0.0
5675,65.0,0.0,240.0,1.0,0.0
5676,55.0,145.0,240.0,2.0,0.0
5677,48.0,95.0,390.0,5.0,0.0
5678,64.0,0.0,240.0,1.0,0.0
5679,60.0,240.0,240.0,3.0,0.0
5680,65.0,0.0,240.0,1.0,0.0
5681,45.0,95.0,390.0,5.0,0.0
5682,57.0,145.0,240.0,2.0,0.0
5683,60.0,240.0,240.0,3.0,0.0
5684,41.0,95.0,390.0,5.0,0.0
5685,69.0,145.0,240.0,1.0,0.0
5686,65.0,0.0,240.0,2.0,0.0
5687,60.0,240.0,240.0,3.0,0.0
5688,64.0,0.0,240.0,2.0,0.0
5689,48.0,95.0,390.0,5.0,0.0
5690,67.0,145.0,240.0,1.0,0.0
5691,60.0,240.0,240.0,3.0,0.0
5692,70.0,0.0,240.0,2.0,0.0
5693,62.0,0.0,240.0,4.0,0.0
5694,82.0,240.0,240.0,1.0,0.0
5695,69.0,0.0,240.0,2.0,0.0
5696,81.0,0.0,240.0,1.0,0.0
5697,60.0,240.0,240.0,4.0,0.0
5698,58.0,0.0,240.0,4.0,0.0
5699,79.0,0.0,240.0,1.0,0.0
5700,67.0,240.0,240.0,2.0,0.0
5701,57.0,60.0,240.0,4.0,0.0
5702,65.0,0.0,240.0,2.0,0.0
5703,77.0,0.0,240.0,1.0,0.0
5704,83.0,180.0,60.0,1.0,0.0
5705,55.0,0.0,240.0,4.0,0.0
5706,64.0,225.0,240.0,2.0,0.0
5707,84.0,15.0,420.0,1.0,0.0
5708,60.0,60.0,240.0,3.0,0.0
5709,65.0,230.0,240.0,2.0,0.0
5710,83.0,180.0,60.0,1.0,0.0
5711,57.0,0.0,240.0,4.0,0.0
5712,84.0,10.0,420.0,1.0,0.0
5713,60.0,60.0,240.0,3.0,0.0
5714,69.0,0.0,240.0,2.0,0.0
5715,83.0,180.0,60.0,1.0,0.0
5716,65.0,225.0,240.0,4.0,0.0
5717,84.0,15.0,420.0,1.0,0.0
5718,60.0,60.0,240.0,3.0,0.0
5719,67.0,0.0,240.0,2.0,0.0
5720,83.0,180.0,60.0,1.0,0.0
5721,64.0,230.0,240.0,4.0,0.0
5722,84.0,10.0,420.0,1.0,0.0
5723,60.0,190.0,240.0,3.0,0.0
5724,69.0,190.0,240.0,1.0,0.0
5725,41.0,50.0,180.0,5.0,0.0
5726,60.0,0.0,1440.0,3.0,0.0
5727,67.0,190.0,240.0,1.0,0.0
5728,40.0,50.0,180.0,5.0,0.0
5729,41.0,50.0,180.0,5.0,0.0
5730,69.0,190.0,240.0,1.0,0.0
5731,70.0,240.0,240.0,1.0,0.0
5732,43.0,50.0,180.0,5.0,0.0
5733,72.0,145.0,240.0,1.0,0.0
5734,45.0,95.0,390.0,5.0,0.0
5735,65.0,240.0,240.0,1.0,0.0
5736,48.0,95.0,390.0,5.0,0.0
5737,65.0,0.0,480.0,2.0,0.0
5738,69.0,145.0,240.0,1.0,0.0
5739,60.0,240.0,240.0,3.0,0.0
5740,64.0,0.0,480.0,2.0,0.0
5741,67.0,145.0,240.0,1.0,0.0
5742,36.0,95.0,390.0,5.0,0.0
5743,60.0,240.0,240.0,3.0,0.0
5744,41.0,95.0,390.0,5.0,0.0
5745,65.0,145.0,240.0,1.0,0.0
5746,60.0,240.0,240.0,3.0,0.0
5747,69.0,0.0,240.0,2.0,0.0
5748,81.0,0.0,240.0,1.0,0.0
5749,65.0,240.0,240.0,4.0,0.0
5750,79.0,0.0,240.0,1.0,0.0
5751,67.0,240.0,240.0,2.0,0.0
5752,64.0,0.0,240.0,4.0,0.0
5753,81.0,0.0,240.0,1.0,0.0
5754,69.0,240.0,240.0,2.0,0.0
5755,65.0,0.0,240.0,4.0,0.0
5756,82.0,0.0,240.0,1.0,0.0
5757,67.0,0.0,240.0,4.0,0.0
5758,70.0,240.0,240.0,2.0,0.0
5759,84.0,0.0,480.0,1.0,0.0
5760,69.0,0.0,240.0,4.0,0.0
5761,72.0,240.0,240.0,2.0,0.0
5762,60.0,240.0,240.0,3.0,0.0
5763,81.0,240.0,480.0,1.0,0.0
5764,65.0,0.0,240.0,4.0,0.0
5765,69.0,240.0,240.0,2.0,0.0
5766,60.0,0.0,240.0,3.0,0.0
5767,67.0,240.0,240.0,2.0,0.0
5768,79.0,0.0,480.0,1.0,0.0
5769,64.0,0.0,240.0,4.0,0.0
5770,60.0,240.0,240.0,3.0,0.0
5771,65.0,240.0,240.0,2.0,0.0
5772,77.0,240.0,480.0,1.0,0.0
5773,60.0,0.0,240.0,1.0,0.0
5774,62.0,145.0,240.0,1.0,0.0
5775,55.0,95.0,390.0,4.0,0.0
5776,46.0,0.0,390.0,5.0,0.0
5777,70.0,240.0,240.0,1.0,0.0
5778,58.0,95.0,390.0,4.0,0.0
5779,48.0,0.0,390.0,5.0,0.0
5780,67.0,145.0,240.0,1.0,0.0
5781,64.0,240.0,240.0,1.0,0.0
5782,65.0,145.0,240.0,1.0,0.0
5783,57.0,0.0,390.0,4.0,0.0
5784,53.0,95.0,390.0,5.0,0.0
5785,60.0,240.0,240.0,1.0,0.0
5786,46.0,0.0,390.0,5.0,0.0
5787,55.0,95.0,390.0,4.0,0.0
5788,62.0,145.0,240.0,1.0,0.0
5789,70.0,240.0,240.0,1.0,0.0
5790,48.0,0.0,390.0,5.0,0.0
5791,58.0,95.0,390.0,4.0,0.0
5792,67.0,145.0,240.0,1.0,0.0
5793,64.0,240.0,240.0,1.0,0.0
5794,57.0,95.0,390.0,4.0,0.0
5795,65.0,145.0,240.0,1.0,0.0
5796,53.0,0.0,390.0,5.0,0.0
5797,64.0,240.0,240.0,1.0,0.0
5798,65.0,240.0,240.0,1.0,0.0
5799,67.0,240.0,240.0,1.0,0.0
5800,63.0,240.0,240.0,1.0,0.0
5801,60.0,240.0,240.0,1.0,0.0
5802,62.0,0.0,240.0,2.0,0.0
5803,65.0,240.0,240.0,1.0,0.0
5804,43.0,0.0,1920.0,5.0,0.0
5805,31.0,10.0,1920.0,5.0,0.0
5806,55.0,240.0,240.0,3.0,0.0
5807,62.0,0.0,240.0,1.0,0.0
5808,59.0,240.0,240.0,2.0,0.0
5809,55.0,240.0,240.0,3.0,0.0
5810,60.0,240.0,240.0,2.0,0.0
5811,63.0,0.0,240.0,1.0,0.0
5812,55.0,240.0,240.0,3.0,0.0
5813,62.0,230.0,240.0,2.0,0.0
5814,65.0,0.0,240.0,1.0,0.0
5815,80.0,0.0,240.0,1.0,0.0
5816,55.0,240.0,240.0,3.0,0.0
5817,59.0,240.0,240.0,4.0,0.0
5818,62.0,0.0,240.0,2.0,0.0
5819,79.0,0.0,240.0,1.0,0.0
5820,55.0,240.0,240.0,3.0,0.0
5821,77.0,0.0,240.0,1.0,0.0
5822,63.0,0.0,240.0,2.0,0.0
5823,75.0,0.0,480.0,1.0,0.0
5824,60.0,240.0,240.0,4.0,0.0
5825,55.0,240.0,240.0,3.0,0.0
5826,62.0,0.0,240.0,4.0,0.0
5827,65.0,240.0,240.0,2.0,0.0
5828,74.0,0.0,480.0,1.0,0.0
5829,55.0,240.0,240.0,3.0,0.0
5830,59.0,0.0,240.0,4.0,0.0
5831,62.0,0.0,240.0,2.0,0.0
5832,77.0,240.0,240.0,1.0,0.0
5833,55.0,240.0,240.0,3.0,0.0
5834,75.0,0.0,240.0,1.0,0.0
5835,74.0,0.0,240.0,1.0,0.0
5836,60.0,0.0,240.0,4.0,0.0
5837,63.0,240.0,240.0,2.0,0.0
5838,72.0,380.0,240.0,1.0,0.0
5839,55.0,0.0,240.0,3.0,0.0
5840,62.0,285.0,390.0,4.0,0.0
5841,65.0,0.0,390.0,2.0,0.0
5842,71.0,5.0,390.0,1.0,0.0
5843,55.0,0.0,180.0,5.0,0.0
5844,43.0,0.0,180.0,5.0,0.0
5845,67.0,240.0,180.0,2.0,0.0
5846,79.0,0.0,180.0,1.0,0.0
5847,65.0,240.0,180.0,2.0,0.0
5848,41.0,0.0,180.0,5.0,0.0
5849,77.0,0.0,180.0,1.0,0.0
5850,53.0,0.0,180.0,5.0,0.0
5851,75.0,0.0,180.0,1.0,0.0
5852,39.0,0.0,180.0,5.0,0.0
5853,51.0,0.0,180.0,5.0,0.0
5854,63.0,240.0,180.0,2.0,0.0
5855,50.0,0.0,180.0,5.0,0.0
5856,38.0,0.0,180.0,5.0,0.0
5857,74.0,0.0,180.0,1.0,0.0
5858,62.0,360.0,180.0,2.0,0.0
5859,60.0,0.0,300.0,2.0,0.0
5860,48.0,480.0,300.0,5.0,0.0
5861,36.0,0.0,300.0,5.0,0.0
5862,72.0,0.0,300.0,1.0,0.0
5863,48.0,0.0,300.0,5.0,0.0
5864,36.0,0.0,300.0,5.0,0.0
5865,72.0,480.0,300.0,1.0,0.0
5866,60.0,0.0,300.0,2.0,0.0
5867,79.0,0.0,300.0,1.0,0.0
5868,43.0,530.0,300.0,5.0,0.0
5869,55.0,0.0,300.0,5.0,0.0
5870,67.0,0.0,300.0,2.0,0.0
5871,72.0,310.0,360.0,1.0,0.0
5872,48.0,0.0,360.0,5.0,0.0
5873,36.0,0.0,360.0,5.0,0.0
5874,60.0,0.0,360.0,2.0,0.0
5875,55.0,0.0,180.0,5.0,0.0
5876,67.0,0.0,180.0,2.0,0.0
5877,79.0,240.0,180.0,1.0,0.0
5878,43.0,0.0,180.0,5.0,0.0
5879,65.0,0.0,180.0,2.0,0.0
5880,77.0,240.0,180.0,1.0,0.0
5881,53.0,0.0,180.0,5.0,0.0
5882,41.0,0.0,180.0,5.0,0.0
5883,63.0,0.0,180.0,2.0,0.0
5884,75.0,0.0,180.0,1.0,0.0
5885,39.0,0.0,180.0,5.0,0.0
5886,51.0,240.0,180.0,5.0,0.0
5887,62.0,0.0,180.0,2.0,0.0
5888,74.0,360.0,180.0,1.0,0.0
5889,50.0,0.0,180.0,5.0,0.0
5890,38.0,0.0,180.0,5.0,0.0
5891,48.0,0.0,300.0,5.0,0.0
5892,60.0,0.0,300.0,2.0,0.0
5893,72.0,480.0,300.0,1.0,0.0
5894,36.0,0.0,300.0,5.0,0.0
5895,72.0,0.0,300.0,1.0,0.0
5896,48.0,0.0,300.0,5.0,0.0
5897,60.0,0.0,300.0,2.0,0.0
5898,36.0,480.0,300.0,5.0,0.0
5899,67.0,530.0,300.0,2.0,0.0
5900,55.0,0.0,300.0,5.0,0.0
5901,43.0,0.0,300.0,5.0,0.0
5902,79.0,0.0,300.0,1.0,0.0
5903,72.0,0.0,360.0,1.0,0.0
5904,48.0,0.0,360.0,5.0,0.0
5905,36.0,0.0,360.0,5.0,0.0
5906,60.0,310.0,360.0,2.0,0.0
5907,72.0,240.0,180.0,1.0,0.0
5908,70.0,240.0,180.0,1.0,0.0
5909,72.0,240.0,180.0,1.0,0.0
5910,73.0,435.0,180.0,1.0,0.0
5911,75.0,95.0,390.0,1.0,0.0
5912,56.0,240.0,960.0,4.0,0.0
5913,60.0,240.0,240.0,3.0,0.0
5914,63.0,240.0,240.0,3.0,0.0
5915,60.0,0.0,240.0,3.0,0.0
5916,55.0,480.0,480.0,4.0,0.0
5917,61.0,0.0,240.0,3.0,0.0
5918,75.0,240.0,15.0,1.0,0.0
5919,58.0,0.0,240.0,3.0,0.0
5920,56.0,0.0,960.0,4.0,0.0
5921,80.0,240.0,480.0,1.0,0.0
5922,60.0,0.0,240.0,3.0,0.0
5923,75.0,95.0,390.0,1.0,0.0
5924,63.0,145.0,240.0,3.0,0.0
5925,60.0,240.0,240.0,3.0,0.0
5926,55.0,0.0,480.0,4.0,0.0
5927,61.0,240.0,240.0,3.0,0.0
5928,58.0,385.0,240.0,3.0,0.0
5929,56.0,0.0,960.0,4.0,0.0
5930,75.0,95.0,390.0,1.0,0.0
5931,60.0,240.0,240.0,3.0,0.0
5932,63.0,240.0,240.0,3.0,0.0
5933,75.0,0.0,720.0,1.0,0.0
5934,60.0,240.0,240.0,3.0,0.0
5935,61.0,240.0,240.0,3.0,0.0
5936,55.0,0.0,480.0,4.0,0.0
5937,58.0,480.0,240.0,3.0,0.0
5938,75.0,0.0,240.0,1.0,0.0
5939,56.0,88.0,1320.0,4.0,0.0
5940,80.0,0.0,480.0,1.0,0.0
5941,60.0,240.0,240.0,3.0,0.0
5942,63.0,145.0,240.0,3.0,0.0
5943,75.0,95.0,390.0,1.0,0.0
5944,60.0,240.0,240.0,3.0,0.0
5945,61.0,127.0,240.0,3.0,0.0
5946,58.0,480.0,240.0,3.0,0.0
5947,75.0,25.0,90.0,1.0,0.0
5948,84.0,0.0,480.0,1.0,0.0
5949,54.0,95.0,1320.0,4.0,0.0
5950,56.0,240.0,240.0,3.0,0.0
5951,75.0,95.0,390.0,1.0,0.0
5952,60.0,145.0,240.0,3.0,0.0
5953,63.0,240.0,240.0,3.0,0.0
5954,60.0,120.0,240.0,3.0,0.0
5955,56.0,480.0,240.0,3.0,0.0
5956,75.0,25.0,90.0,1.0,0.0
5957,53.0,113.0,1320.0,4.0,0.0
5958,84.0,240.0,480.0,1.0,0.0
5959,57.0,0.0,240.0,3.0,0.0
5960,75.0,95.0,390.0,1.0,0.0
5961,60.0,145.0,240.0,3.0,0.0
5962,63.0,240.0,240.0,3.0,0.0
5963,60.0,95.0,240.0,3.0,0.0
5964,57.0,240.0,240.0,3.0,0.0
5965,75.0,32.0,90.0,1.0,0.0
5966,53.0,0.0,960.0,4.0,0.0
5967,75.0,240.0,240.0,1.0,0.0
5968,58.0,0.0,960.0,3.0,0.0
5969,73.0,240.0,240.0,1.0,0.0
5970,72.0,240.0,240.0,1.0,0.0
5971,73.0,240.0,240.0,1.0,0.0
5972,52.0,0.0,480.0,5.0,0.0
5973,60.0,190.0,240.0,4.0,0.0
5974,72.0,0.0,240.0,1.0,0.0
5975,70.0,50.0,180.0,1.0,0.0
5976,61.0,240.0,240.0,4.0,0.0
5977,69.0,240.0,240.0,1.0,0.0
5978,60.0,0.0,480.0,4.0,0.0
5979,53.0,0.0,480.0,5.0,0.0
5980,76.0,240.0,240.0,1.0,0.0
5981,77.0,240.0,240.0,1.0,0.0
5982,76.0,240.0,240.0,1.0,0.0
5983,77.0,190.0,240.0,1.0,0.0
5984,72.0,290.0,180.0,1.0,0.0
5985,64.0,240.0,1440.0,4.0,0.0
5986,54.0,0.0,1440.0,5.0,0.0
5987,58.0,0.0,1440.0,4.0,0.0
5988,75.0,240.0,240.0,1.0,0.0
5989,73.0,240.0,240.0,1.0,0.0
5990,72.0,240.0,240.0,1.0,0.0
5991,73.0,240.0,240.0,1.0,0.0
5992,72.0,190.0,240.0,1.0,0.0
5993,70.0,50.0,180.0,1.0,0.0
5994,53.0,0.0,390.0,5.0,0.0
5995,77.0,145.0,240.0,1.0,0.0
5996,57.0,95.0,390.0,4.0,0.0
5997,65.0,0.0,390.0,4.0,0.0
5998,76.0,240.0,240.0,1.0,0.0
5999,77.0,240.0,240.0,1.0,0.0
6000,72.0,240.0,240.0,1.0,0.0
6001,73.0,145.0,240.0,1.0,0.0
6002,58.0,95.0,390.0,4.0,0.0
6003,61.0,0.0,390.0,4.0,0.0
6004,53.0,0.0,390.0,5.0,0.0
6005,70.0,240.0,240.0,1.0,0.0
6006,57.0,0.0,390.0,4.0,0.0
6007,77.0,145.0,240.0,1.0,0.0
6008,53.0,95.0,390.0,5.0,0.0
6009,60.0,0.0,390.0,4.0,0.0
6010,76.0,240.0,240.0,1.0,0.0
6011,77.0,240.0,240.0,1.0,0.0
6012,72.0,240.0,240.0,1.0,0.0
6013,58.0,45.0,390.0,5.0,0.0
6014,61.0,0.0,390.0,5.0,0.0
6015,53.0,0.0,390.0,5.0,0.0
6016,73.0,145.0,240.0,1.0,0.0
6017,70.0,290.0,180.0,1.0,0.0
6018,65.0,145.0,240.0,1.0,0.0
6019,57.0,0.0,390.0,5.0,0.0
6020,53.0,0.0,390.0,5.0,0.0
6021,60.0,95.0,390.0,5.0,0.0
6022,64.0,240.0,240.0,1.0,0.0
6023,65.0,240.0,240.0,1.0,0.0
6024,64.0,240.0,240.0,1.0,0.0
6025,65.0,240.0,240.0,1.0,0.0
6026,64.0,240.0,240.0,1.0,0.0
6027,65.0,0.0,240.0,1.0,0.0
6028,62.0,240.0,240.0,2.0,0.0
6029,46.0,240.0,1920.0,5.0,0.0
6030,34.0,0.0,1920.0,5.0,0.0
6031,53.0,240.0,240.0,3.0,0.0
6032,62.0,0.0,240.0,1.0,0.0
6033,58.0,240.0,240.0,2.0,0.0
6034,53.0,240.0,240.0,3.0,0.0
6035,60.0,240.0,240.0,2.0,0.0
6036,63.0,0.0,240.0,1.0,0.0
6037,53.0,240.0,240.0,3.0,0.0
6038,62.0,240.0,240.0,2.0,0.0
6039,65.0,0.0,240.0,1.0,0.0
6040,58.0,0.0,240.0,2.0,0.0
6041,67.0,0.0,240.0,2.0,0.0
6042,70.0,240.0,240.0,1.0,0.0
6043,69.0,0.0,240.0,1.0,0.0
6044,65.0,240.0,240.0,2.0,0.0
6045,67.0,240.0,240.0,1.0,0.0
6046,63.0,0.0,240.0,2.0,0.0
6047,65.0,0.0,240.0,1.0,0.0
6048,62.0,240.0,240.0,2.0,0.0
6049,63.0,240.0,240.0,1.0,0.0
6050,43.0,0.0,480.0,5.0,0.0
6051,58.0,240.0,240.0,3.0,0.0
6052,41.0,240.0,480.0,5.0,0.0
6053,62.0,240.0,240.0,2.0,0.0
6054,65.0,0.0,240.0,1.0,0.0
6055,58.0,0.0,240.0,3.0,0.0
6056,67.0,0.0,240.0,1.0,0.0
6057,63.0,240.0,240.0,2.0,0.0
6058,39.0,240.0,480.0,5.0,0.0
6059,58.0,0.0,240.0,3.0,0.0
6060,62.0,0.0,240.0,2.0,0.0
6061,65.0,240.0,240.0,1.0,0.0
6062,46.0,240.0,480.0,5.0,0.0
6063,58.0,0.0,240.0,3.0,0.0
6064,82.0,240.0,240.0,1.0,0.0
6065,70.0,0.0,240.0,2.0,0.0
6066,67.0,0.0,240.0,4.0,0.0
6067,65.0,0.0,240.0,4.0,0.0
6068,69.0,0.0,240.0,2.0,0.0
6069,81.0,240.0,240.0,1.0,0.0
6070,79.0,0.0,240.0,1.0,0.0
6071,67.0,0.0,240.0,2.0,0.0
6072,63.0,240.0,240.0,4.0,0.0
6073,65.0,240.0,240.0,2.0,0.0
6074,62.0,0.0,240.0,4.0,0.0
6075,77.0,0.0,240.0,1.0,0.0
6076,60.0,240.0,240.0,4.0,0.0
6077,75.0,240.0,480.0,1.0,0.0
6078,63.0,0.0,240.0,2.0,0.0
6079,58.0,0.0,240.0,3.0,0.0
6080,77.0,240.0,480.0,1.0,0.0
6081,65.0,240.0,240.0,2.0,0.0
6082,62.0,0.0,240.0,4.0,0.0
6083,58.0,0.0,240.0,3.0,0.0
6084,79.0,0.0,480.0,1.0,0.0
6085,63.0,0.0,240.0,4.0,0.0
6086,67.0,240.0,240.0,2.0,0.0
6087,58.0,240.0,240.0,3.0,0.0
6088,77.0,240.0,480.0,1.0,0.0
6089,62.0,0.0,240.0,4.0,0.0
6090,65.0,240.0,240.0,2.0,0.0
6091,58.0,0.0,240.0,3.0,0.0
6092,67.0,0.0,240.0,1.0,0.0
6093,63.0,240.0,240.0,2.0,0.0
6094,62.0,0.0,240.0,2.0,0.0
6095,65.0,240.0,240.0,1.0,0.0
6096,60.0,240.0,240.0,2.0,0.0
6097,63.0,0.0,240.0,1.0,0.0
6098,62.0,0.0,240.0,1.0,0.0
6099,58.0,240.0,240.0,2.0,0.0
6100,41.0,0.0,480.0,5.0,0.0
6101,60.0,0.0,240.0,1.0,0.0
6102,57.0,240.0,240.0,2.0,0.0
6103,53.0,240.0,240.0,3.0,0.0
6104,65.0,0.0,240.0,1.0,0.0
6105,58.0,240.0,240.0,2.0,0.0
6106,38.0,240.0,480.0,5.0,0.0
6107,53.0,0.0,240.0,3.0,0.0
6108,62.0,0.0,240.0,1.0,0.0
6109,58.0,240.0,240.0,2.0,0.0
6110,34.0,240.0,480.0,5.0,0.0
6111,53.0,0.0,240.0,3.0,0.0
6112,41.0,0.0,480.0,5.0,0.0
6113,57.0,240.0,240.0,2.0,0.0
6114,60.0,0.0,240.0,1.0,0.0
6115,53.0,240.0,240.0,3.0,0.0
6116,79.0,0.0,240.0,1.0,0.0
6117,63.0,0.0,240.0,4.0,0.0
6118,67.0,240.0,240.0,2.0,0.0
6119,77.0,240.0,240.0,1.0,0.0
6120,62.0,0.0,240.0,4.0,0.0
6121,65.0,0.0,240.0,2.0,0.0
6122,63.0,0.0,240.0,2.0,0.0
6123,60.0,0.0,240.0,4.0,0.0
6124,75.0,240.0,240.0,1.0,0.0
6125,62.0,0.0,240.0,2.0,0.0
6126,58.0,60.0,240.0,4.0,0.0
6127,74.0,0.0,240.0,1.0,0.0
6128,76.0,180.0,60.0,1.0,0.0
6129,57.0,0.0,240.0,4.0,0.0
6130,60.0,230.0,240.0,2.0,0.0
6131,77.0,10.0,420.0,1.0,0.0
6132,53.0,60.0,240.0,3.0,0.0
6133,62.0,230.0,240.0,4.0,0.0
6134,65.0,0.0,240.0,2.0,0.0
6135,76.0,180.0,60.0,1.0,0.0
6136,77.0,10.0,420.0,1.0,0.0
6137,53.0,60.0,240.0,3.0,0.0
6138,58.0,0.0,240.0,4.0,0.0
6139,62.0,215.0,240.0,2.0,0.0
6140,76.0,180.0,60.0,1.0,0.0
6141,77.0,25.0,390.0,1.0,0.0
6142,53.0,60.0,240.0,3.0,0.0
6143,57.0,0.0,240.0,4.0,0.0
6144,76.0,180.0,60.0,1.0,0.0
6145,60.0,230.0,240.0,2.0,0.0
6146,77.0,10.0,420.0,1.0,0.0
6147,65.0,240.0,240.0,2.0,0.0
6148,70.0,0.0,240.0,1.0,0.0
6149,58.0,240.0,1200.0,2.0,0.0
6150,55.0,240.0,240.0,5.0,0.0
6151,69.0,0.0,240.0,1.0,0.0
6152,54.0,240.0,240.0,5.0,0.0
6153,70.0,240.0,240.0,1.0,0.0
6154,55.0,0.0,240.0,5.0,0.0
6155,51.0,240.0,240.0,5.0,0.0
6156,67.0,0.0,240.0,1.0,0.0
6157,50.0,240.0,480.0,5.0,0.0
6158,65.0,0.0,480.0,1.0,0.0
6159,53.0,0.0,240.0,3.0,0.0
6160,63.0,0.0,480.0,1.0,0.0
6161,60.0,240.0,240.0,2.0,0.0
6162,48.0,240.0,480.0,5.0,0.0
6163,55.0,0.0,240.0,3.0,0.0
6164,41.0,0.0,480.0,5.0,0.0
6165,60.0,240.0,480.0,1.0,0.0
6166,57.0,240.0,240.0,2.0,0.0
6167,53.0,0.0,240.0,3.0,0.0
6168,46.0,240.0,480.0,5.0,0.0
6169,58.0,240.0,240.0,2.0,0.0
6170,62.0,0.0,240.0,1.0,0.0
6171,65.0,0.0,240.0,1.0,0.0
6172,70.0,240.0,240.0,2.0,0.0
6173,82.0,0.0,240.0,1.0,0.0
6174,67.0,0.0,240.0,4.0,0.0
6175,69.0,240.0,240.0,2.0,0.0
6176,66.0,0.0,240.0,4.0,0.0
6177,81.0,0.0,240.0,1.0,0.0
6178,82.0,240.0,240.0,1.0,0.0
6179,67.0,0.0,240.0,4.0,0.0
6180,70.0,0.0,240.0,2.0,0.0
6181,63.0,240.0,240.0,4.0,0.0
6182,79.0,0.0,240.0,1.0,0.0
6183,67.0,0.0,240.0,2.0,0.0
6184,77.0,0.0,480.0,1.0,0.0
6185,62.0,240.0,240.0,4.0,0.0
6186,65.0,0.0,240.0,2.0,0.0
6187,58.0,240.0,240.0,3.0,0.0
6188,75.0,0.0,480.0,1.0,0.0
6189,63.0,240.0,240.0,2.0,0.0
6190,60.0,0.0,240.0,4.0,0.0
6191,55.0,240.0,240.0,3.0,0.0
6192,60.0,240.0,240.0,2.0,0.0
6193,57.0,0.0,240.0,4.0,0.0
6194,72.0,0.0,480.0,1.0,0.0
6195,53.0,240.0,240.0,3.0,0.0
6196,74.0,240.0,480.0,1.0,0.0
6197,62.0,240.0,240.0,2.0,0.0
6198,58.0,0.0,240.0,4.0,0.0
6199,65.0,0.0,240.0,3.0,0.0
6200,65.0,145.0,240.0,1.0,0.0
6201,55.0,240.0,480.0,4.0,0.0
6202,39.0,95.0,390.0,5.0,0.0
6203,63.0,0.0,240.0,1.0,0.0
6204,60.0,145.0,240.0,1.0,0.0
6205,51.0,95.0,390.0,4.0,0.0
6206,41.0,0.0,390.0,5.0,0.0
6207,57.0,240.0,240.0,1.0,0.0
6208,50.0,95.0,390.0,4.0,0.0
6209,46.0,0.0,390.0,5.0,0.0
6210,58.0,145.0,240.0,1.0,0.0
6211,62.0,240.0,240.0,1.0,0.0
6212,39.0,95.0,390.0,5.0,0.0
6213,55.0,0.0,480.0,4.0,0.0
6214,65.0,145.0,240.0,1.0,0.0
6215,63.0,240.0,240.0,1.0,0.0
6216,41.0,0.0,390.0,5.0,0.0
6217,51.0,95.0,390.0,4.0,0.0
6218,60.0,145.0,240.0,1.0,0.0
6219,57.0,335.0,240.0,1.0,0.0
6220,50.0,50.0,330.0,4.0,0.0
6221,46.0,0.0,330.0,5.0,0.0
6222,58.0,430.0,390.0,1.0,0.0
6223,34.0,1100.0,330.0,5.0,0.0
6224,57.0,20.0,480.0,2.0,0.0
6225,41.0,480.0,960.0,5.0,0.0
6226,53.0,0.0,960.0,5.0,0.0
6227,60.0,25.0,450.0,2.0,0.0
6228,65.0,440.0,450.0,1.0,0.0
6229,48.0,0.0,480.0,5.0,0.0
6230,36.0,240.0,480.0,5.0,0.0
6231,60.0,0.0,480.0,1.0,0.0
6232,69.0,120.0,240.0,1.0,0.0
6233,45.0,480.0,480.0,5.0,0.0
6234,57.0,0.0,480.0,5.0,0.0
6235,70.0,120.0,120.0,1.0,0.0
6236,67.0,0.0,120.0,1.0,0.0
6237,65.0,0.0,480.0,1.0,0.0
6238,53.0,720.0,480.0,5.0,0.0
6239,41.0,0.0,480.0,5.0,0.0
6240,72.0,120.0,240.0,1.0,0.0
6241,74.0,120.0,120.0,1.0,0.0
6242,70.0,480.0,120.0,1.0,0.0
6243,69.0,480.0,480.0,1.0,0.0
6244,81.0,0.0,480.0,1.0,0.0
6245,53.0,0.0,480.0,5.0,0.0
6246,62.0,480.0,480.0,4.0,0.0
6247,65.0,0.0,480.0,4.0,0.0
6248,71.0,480.0,480.0,1.0,0.0
6249,55.0,0.0,480.0,5.0,0.0
6250,60.0,0.0,480.0,5.0,0.0
6251,64.0,240.0,480.0,4.0,0.0
6252,72.0,240.0,720.0,1.0,0.0
6253,73.0,240.0,240.0,1.0,0.0
6254,76.0,240.0,240.0,1.0,0.0
6255,74.0,240.0,240.0,1.0,0.0
6256,72.0,240.0,240.0,1.0,0.0
6257,70.0,240.0,240.0,1.0,0.0
6258,69.0,240.0,240.0,1.0,0.0
6259,67.0,240.0,240.0,1.0,0.0
6260,65.0,120.0,240.0,1.0,0.0
6261,48.0,120.0,360.0,4.0,0.0
6262,64.0,240.0,240.0,1.0,0.0
6263,58.0,0.0,240.0,3.0,0.0
6264,55.0,120.0,360.0,4.0,0.0
6265,72.0,120.0,240.0,1.0,0.0
6266,70.0,0.0,240.0,1.0,0.0
6267,58.0,360.0,240.0,3.0,0.0
6268,55.0,120.0,360.0,4.0,0.0
6269,58.0,240.0,240.0,3.0,0.0
6270,48.0,120.0,360.0,4.0,0.0
6271,67.0,120.0,240.0,1.0,0.0
6272,65.0,0.0,240.0,1.0,0.0
6273,57.0,240.0,240.0,3.0,0.0
6274,53.0,120.0,360.0,4.0,0.0
6275,74.0,120.0,240.0,1.0,0.0
6276,57.0,0.0,240.0,3.0,0.0
6277,72.0,360.0,240.0,1.0,0.0
6278,53.0,120.0,360.0,4.0,0.0
6279,57.0,240.0,240.0,3.0,0.0
6280,46.0,120.0,360.0,4.0,0.0
6281,69.0,120.0,240.0,1.0,0.0
6282,67.0,240.0,240.0,1.0,0.0
6283,55.0,0.0,240.0,3.0,0.0
6284,50.0,120.0,360.0,4.0,0.0
6285,75.0,120.0,240.0,1.0,0.0
6286,74.0,0.0,240.0,1.0,0.0
6287,55.0,360.0,240.0,3.0,0.0
6288,50.0,120.0,360.0,4.0,0.0
6289,55.0,480.0,240.0,3.0,0.0
6290,46.0,0.0,480.0,5.0,0.0
6291,62.0,240.0,480.0,1.0,0.0
6292,72.0,240.0,240.0,1.0,0.0
6293,70.0,240.0,240.0,1.0,0.0
6294,69.0,240.0,240.0,1.0,0.0
6295,67.0,240.0,240.0,1.0,0.0
6296,65.0,240.0,240.0,1.0,0.0
6297,58.0,0.0,480.0,4.0,0.0
6298,48.0,0.0,480.0,5.0,0.0
6299,64.0,480.0,240.0,1.0,0.0
6300,57.0,520.0,480.0,4.0,0.0
6301,53.0,0.0,480.0,5.0,0.0
6302,65.0,0.0,480.0,1.0,0.0
6303,48.0,240.0,240.0,5.0,0.0
6304,67.0,40.0,30.0,2.0,0.0
6305,72.0,40.0,30.0,2.0,0.0
6306,76.0,120.0,30.0,2.0,0.0
6307,79.0,22.0,1290.0,1.0,0.0
6308,52.0,240.0,240.0,5.0,0.0
6309,55.0,240.0,240.0,5.0,0.0
6310,52.0,240.0,240.0,5.0,0.0
6311,50.0,218.0,240.0,5.0,0.0
6312,48.0,120.0,240.0,5.0,0.0
6313,47.0,0.0,240.0,5.0,0.0
6314,79.0,120.0,120.0,1.0,0.0
6315,77.0,120.0,120.0,1.0,0.0
6316,48.0,0.0,240.0,5.0,0.0
6317,76.0,120.0,120.0,1.0,0.0
6318,74.0,120.0,120.0,1.0,0.0
6319,50.0,0.0,240.0,5.0,0.0
6320,74.0,120.0,120.0,1.0,0.0
6321,72.0,120.0,120.0,1.0,0.0
6322,43.0,120.0,240.0,5.0,0.0
6323,71.0,120.0,120.0,1.0,0.0
6324,69.0,0.0,120.0,1.0,0.0
6325,67.0,120.0,120.0,1.0,0.0
6326,45.0,0.0,240.0,5.0,0.0
6327,65.0,120.0,120.0,1.0,0.0
6328,47.0,120.0,240.0,5.0,0.0
6329,64.0,120.0,120.0,1.0,0.0
6330,65.0,0.0,120.0,1.0,0.0
6331,48.0,0.0,240.0,5.0,0.0
6332,64.0,120.0,120.0,1.0,0.0
6333,67.0,120.0,120.0,1.0,0.0
6334,72.0,120.0,120.0,1.0,0.0
6335,52.0,240.0,240.0,5.0,0.0
6336,76.0,0.0,120.0,1.0,0.0
6337,55.0,240.0,240.0,5.0,0.0
6338,52.0,240.0,240.0,5.0,0.0
6339,50.0,240.0,240.0,5.0,0.0
6340,48.0,120.0,240.0,5.0,0.0
6341,47.0,0.0,240.0,5.0,0.0
6342,79.0,0.0,15.0,1.0,0.0
6343,77.0,120.0,120.0,1.0,0.0
6344,48.0,120.0,240.0,5.0,0.0
6345,76.0,120.0,120.0,1.0,0.0
6346,74.0,0.0,120.0,1.0,0.0
6347,74.0,120.0,120.0,1.0,0.0
6348,50.0,0.0,240.0,5.0,0.0
6349,72.0,120.0,120.0,1.0,0.0
6350,71.0,120.0,120.0,1.0,0.0
6351,43.0,120.0,240.0,5.0,0.0
6352,69.0,0.0,120.0,1.0,0.0
6353,67.0,120.0,120.0,1.0,0.0
6354,45.0,120.0,240.0,5.0,0.0
6355,65.0,0.0,120.0,1.0,0.0
6356,64.0,120.0,120.0,1.0,0.0
6357,47.0,120.0,240.0,5.0,0.0
6358,65.0,0.0,120.0,1.0,0.0
6359,48.0,120.0,480.0,5.0,0.0
6360,64.0,120.0,120.0,1.0,0.0
6361,67.0,120.0,120.0,1.0,0.0
6362,65.0,120.0,120.0,1.0,0.0
6363,64.0,0.0,120.0,1.0,0.0
6364,65.0,120.0,120.0,1.0,0.0
6365,67.0,120.0,120.0,1.0,0.0
6366,69.0,120.0,120.0,1.0,0.0
6367,71.0,120.0,120.0,1.0,0.0
6368,72.0,120.0,120.0,1.0,0.0
6369,74.0,120.0,120.0,1.0,0.0
6370,76.0,120.0,120.0,1.0,0.0
6371,77.0,120.0,120.0,1.0,0.0
6372,79.0,120.0,120.0,1.0,0.0
6373,81.0,120.0,120.0,1.0,0.0
6374,83.0,120.0,120.0,1.0,0.0
6375,84.0,120.0,120.0,1.0,0.0
6376,83.0,120.0,120.0,1.0,0.0
6377,81.0,120.0,120.0,1.0,0.0
6378,79.0,120.0,120.0,1.0,0.0
6379,77.0,120.0,120.0,1.0,0.0
6380,76.0,120.0,120.0,1.0,0.0
6381,74.0,120.0,120.0,1.0,0.0
6382,72.0,120.0,120.0,1.0,0.0
6383,71.0,240.0,120.0,1.0,0.0
6384,53.0,0.0,480.0,5.0,0.0
6385,69.0,240.0,240.0,1.0,0.0
6386,62.0,480.0,480.0,5.0,0.0
6387,81.0,0.0,120.0,1.0,0.0
6388,72.0,0.0,480.0,1.0,0.0
6389,64.0,255.0,480.0,4.0,0.0
6390,55.0,310.0,960.0,5.0,0.0
6391,76.0,215.0,240.0,1.0,0.0
6392,65.0,0.0,480.0,4.0,0.0
6393,71.0,0.0,480.0,2.0,0.0
6394,74.0,10.0,240.0,1.0,0.0
6395,64.0,0.0,300.0,4.0,0.0
6396,72.0,310.0,480.0,1.0,0.0
6397,60.0,170.0,300.0,5.0,0.0
6398,48.0,770.0,300.0,5.0,0.0
6399,60.0,330.0,120.0,1.0,0.0
6400,72.0,150.0,330.0,1.0,0.0
6401,62.0,330.0,120.0,1.0,0.0
6402,74.0,150.0,330.0,1.0,0.0
6403,63.0,330.0,120.0,1.0,0.0
6404,75.0,270.0,330.0,1.0,0.0
6405,67.0,0.0,480.0,1.0,0.0
6406,50.0,240.0,240.0,5.0,0.0
6407,57.0,240.0,240.0,5.0,0.0
6408,66.0,240.0,480.0,1.0,0.0
6409,62.0,240.0,240.0,5.0,0.0
6410,60.0,0.0,240.0,5.0,0.0
6411,58.0,215.0,240.0,5.0,0.0
6412,57.0,240.0,240.0,5.0,0.0
6413,66.0,25.0,90.0,1.0,0.0
6414,50.0,240.0,240.0,5.0,0.0
6415,69.0,0.0,480.0,1.0,0.0
6416,58.0,240.0,240.0,5.0,0.0
6417,62.0,240.0,240.0,5.0,0.0
6418,67.0,0.0,480.0,1.0,0.0
6419,58.0,240.0,240.0,5.0,0.0
6420,57.0,215.0,240.0,5.0,0.0
6421,55.0,240.0,240.0,5.0,0.0
6422,67.0,25.0,90.0,1.0,0.0
6423,70.0,240.0,480.0,1.0,0.0
6424,50.0,240.0,240.0,5.0,0.0
6425,54.0,0.0,240.0,5.0,0.0
6426,60.0,240.0,240.0,5.0,0.0
6427,69.0,240.0,480.0,1.0,0.0
6428,57.0,0.0,240.0,5.0,0.0
6429,55.0,215.0,240.0,5.0,0.0
6430,54.0,240.0,240.0,5.0,0.0
6431,69.0,25.0,90.0,1.0,0.0
6432,55.0,240.0,480.0,5.0,0.0
6433,72.0,190.0,240.0,1.0,0.0
6434,70.0,50.0,180.0,1.0,0.0
6435,73.0,190.0,240.0,1.0,0.0
6436,72.0,290.0,180.0,1.0,0.0
6437,75.0,190.0,240.0,1.0,0.0
6438,74.0,290.0,180.0,1.0,0.0
6439,48.0,240.0,240.0,5.0,0.0
6440,65.0,240.0,480.0,1.0,0.0
6441,55.0,0.0,240.0,5.0,0.0
6442,60.0,240.0,240.0,5.0,0.0
6443,64.0,0.0,480.0,1.0,0.0
6444,58.0,240.0,240.0,5.0,0.0
6445,56.0,215.0,240.0,5.0,0.0
6446,55.0,240.0,240.0,5.0,0.0
6447,64.0,25.0,90.0,1.0,0.0
6448,67.0,240.0,480.0,1.0,0.0
6449,48.0,240.0,240.0,5.0,0.0
6450,56.0,0.0,240.0,5.0,0.0
6451,60.0,240.0,240.0,5.0,0.0
6452,65.0,0.0,480.0,1.0,0.0
6453,56.0,240.0,240.0,5.0,0.0
6454,55.0,215.0,240.0,5.0,0.0
6455,53.0,240.0,240.0,5.0,0.0
6456,65.0,25.0,90.0,1.0,0.0
6457,48.0,240.0,240.0,5.0,0.0
6458,68.0,0.0,480.0,1.0,0.0
6459,52.0,240.0,240.0,5.0,0.0
6460,58.0,240.0,240.0,5.0,0.0
6461,67.0,240.0,480.0,1.0,0.0
6462,55.0,0.0,240.0,5.0,0.0
6463,53.0,215.0,240.0,5.0,0.0
6464,52.0,240.0,240.0,5.0,0.0
6465,67.0,25.0,90.0,1.0,0.0
6466,70.0,240.0,240.0,1.0,0.0
6467,53.0,155.0,960.0,5.0,0.0
6468,68.0,240.0,240.0,1.0,0.0
6469,67.0,240.0,240.0,1.0,0.0
6470,65.0,0.0,240.0,1.0,0.0
6471,77.0,240.0,150.0,1.0,0.0
6472,39.0,0.0,480.0,5.0,0.0
6473,51.0,240.0,480.0,5.0,0.0
6474,77.0,85.0,150.0,1.0,0.0
6475,37.0,0.0,960.0,5.0,0.0
6476,49.0,0.0,960.0,5.0,0.0
6477,79.0,240.0,240.0,1.0,0.0
6478,77.0,240.0,240.0,1.0,0.0
6479,75.0,240.0,240.0,1.0,0.0
6480,73.0,240.0,240.0,1.0,0.0
6481,72.0,240.0,240.0,1.0,0.0
6482,71.0,240.0,240.0,1.0,0.0
6483,49.0,0.0,1440.0,5.0,0.0
6484,80.0,0.0,960.0,1.0,0.0
6485,53.0,240.0,240.0,4.0,0.0
6486,52.0,240.0,240.0,4.0,0.0
6487,53.0,240.0,240.0,4.0,0.0
6488,56.0,240.0,240.0,4.0,0.0
6489,71.0,310.0,480.0,1.0,0.0
6490,55.0,240.0,240.0,4.0,0.0
6491,53.0,0.0,240.0,4.0,0.0
6492,52.0,410.0,300.0,4.0,0.0
6493,48.0,0.0,300.0,5.0,0.0
6494,72.0,120.0,720.0,1.0,0.0
6495,74.0,120.0,120.0,1.0,0.0
6496,72.0,120.0,120.0,1.0,0.0
6497,72.0,120.0,120.0,1.0,0.0
6498,70.0,120.0,120.0,1.0,0.0
6499,69.0,120.0,120.0,1.0,0.0
6500,67.0,950.0,120.0,1.0,0.0
6501,57.0,10.0,960.0,2.0,0.0
6502,53.0,5.0,960.0,5.0,0.0
6503,41.0,0.0,960.0,5.0,0.0
6504,60.0,0.0,900.0,2.0,0.0
6505,65.0,475.0,900.0,1.0,0.0
6506,48.0,0.0,480.0,5.0,0.0
6507,36.0,0.0,480.0,5.0,0.0
6508,60.0,240.0,480.0,1.0,0.0
6509,57.0,480.0,480.0,5.0,0.0
6510,45.0,0.0,480.0,5.0,0.0
6511,69.0,120.0,240.0,1.0,0.0
6512,70.0,120.0,120.0,1.0,0.0
6513,67.0,0.0,120.0,1.0,0.0
6514,53.0,0.0,480.0,5.0,0.0
6515,65.0,0.0,480.0,1.0,0.0
6516,41.0,720.0,480.0,5.0,0.0
6517,72.0,120.0,240.0,1.0,0.0
6518,74.0,120.0,120.0,1.0,0.0
6519,70.0,480.0,120.0,1.0,0.0
6520,69.0,480.0,480.0,1.0,0.0
6521,53.0,0.0,480.0,5.0,0.0
6522,62.0,480.0,480.0,4.0,0.0
6523,81.0,0.0,480.0,1.0,0.0
6524,65.0,0.0,480.0,4.0,0.0
6525,55.0,0.0,480.0,5.0,0.0
6526,71.0,480.0,480.0,1.0,0.0
6527,60.0,240.0,480.0,5.0,0.0
6528,64.0,0.0,480.0,4.0,0.0
6529,72.0,240.0,720.0,1.0,0.0
6530,73.0,240.0,240.0,1.0,0.0
6531,76.0,240.0,240.0,1.0,0.0
6532,74.0,240.0,240.0,1.0,0.0
6533,72.0,240.0,240.0,1.0,0.0
6534,70.0,240.0,240.0,1.0,0.0
6535,69.0,240.0,240.0,1.0,0.0
6536,67.0,240.0,240.0,1.0,0.0
6537,48.0,120.0,360.0,4.0,0.0
6538,65.0,120.0,240.0,1.0,0.0
6539,64.0,240.0,240.0,1.0,0.0
6540,58.0,0.0,240.0,3.0,0.0
6541,55.0,120.0,360.0,4.0,0.0
6542,72.0,120.0,240.0,1.0,0.0
6543,58.0,0.0,240.0,3.0,0.0
6544,70.0,360.0,240.0,1.0,0.0
6545,55.0,120.0,360.0,4.0,0.0
6546,58.0,240.0,240.0,3.0,0.0
6547,67.0,120.0,240.0,1.0,0.0
6548,48.0,120.0,360.0,4.0,0.0
6549,65.0,0.0,240.0,1.0,0.0
6550,57.0,240.0,240.0,3.0,0.0
6551,53.0,120.0,360.0,4.0,0.0
6552,74.0,120.0,240.0,1.0,0.0
6553,72.0,0.0,240.0,1.0,0.0
6554,57.0,360.0,240.0,3.0,0.0
6555,53.0,120.0,360.0,4.0,0.0
6556,57.0,240.0,240.0,3.0,0.0
6557,67.0,120.0,240.0,1.0,0.0
6558,48.0,120.0,360.0,4.0,0.0
6559,65.0,0.0,240.0,1.0,0.0
6560,57.0,240.0,240.0,3.0,0.0
6561,77.0,120.0,240.0,1.0,0.0
6562,53.0,120.0,360.0,4.0,0.0
6563,57.0,0.0,240.0,3.0,0.0
6564,75.0,360.0,240.0,1.0,0.0
6565,53.0,120.0,360.0,4.0,0.0
6566,57.0,240.0,240.0,3.0,0.0
6567,58.0,0.0,480.0,4.0,0.0
6568,53.0,0.0,480.0,4.0,0.0
6569,46.0,240.0,480.0,5.0,0.0
6570,75.0,240.0,240.0,1.0,0.0
6571,74.0,0.0,240.0,1.0,0.0
6572,72.0,240.0,240.0,1.0,0.0
6573,70.0,240.0,240.0,1.0,0.0
6574,69.0,240.0,240.0,1.0,0.0
6575,67.0,120.0,240.0,1.0,0.0
6576,45.0,120.0,360.0,5.0,0.0
6577,72.0,40.0,120.0,1.0,0.0
6578,74.0,40.0,30.0,1.0,0.0
6579,72.0,40.0,30.0,1.0,0.0
6580,71.0,120.0,30.0,1.0,0.0
6581,72.0,0.0,120.0,1.0,0.0
6582,46.0,480.0,120.0,5.0,0.0
6583,74.0,0.0,120.0,1.0,0.0
6584,65.0,0.0,480.0,1.0,0.0
6585,48.0,0.0,960.0,5.0,0.0
6586,57.0,480.0,480.0,4.0,0.0
6587,64.0,0.0,480.0,1.0,0.0
6588,55.0,40.0,480.0,4.0,0.0
6589,53.0,210.0,240.0,5.0,0.0
6590,65.0,40.0,30.0,2.0,0.0
6591,69.0,160.0,30.0,2.0,0.0
6592,72.0,30.0,360.0,1.0,0.0
6593,57.0,240.0,240.0,5.0,0.0
6594,60.0,240.0,240.0,5.0,0.0
6595,72.0,120.0,960.0,1.0,0.0
6596,57.0,240.0,240.0,5.0,0.0
6597,55.0,240.0,240.0,5.0,0.0
6598,53.0,0.0,240.0,5.0,0.0
6599,52.0,120.0,240.0,5.0,0.0
6600,72.0,120.0,120.0,1.0,0.0
6601,70.0,0.0,120.0,1.0,0.0
6602,69.0,120.0,120.0,1.0,0.0
6603,53.0,120.0,240.0,5.0,0.0
6604,67.0,0.0,120.0,1.0,0.0
6605,55.0,0.0,240.0,5.0,0.0
6606,67.0,120.0,120.0,1.0,0.0
6607,65.0,120.0,120.0,1.0,0.0
6608,48.0,0.0,240.0,5.0,0.0
6609,64.0,120.0,120.0,1.0,0.0
6610,62.0,120.0,120.0,1.0,0.0
6611,50.0,0.0,240.0,5.0,0.0
6612,60.0,120.0,120.0,1.0,0.0
6613,58.0,120.0,120.0,1.0,0.0
6614,52.0,120.0,240.0,5.0,0.0
6615,57.0,120.0,120.0,1.0,0.0
6616,58.0,0.0,120.0,1.0,0.0
6617,57.0,120.0,120.0,1.0,0.0
6618,53.0,120.0,240.0,5.0,0.0
6619,60.0,0.0,120.0,1.0,0.0
6620,57.0,0.0,240.0,5.0,0.0
6621,65.0,120.0,120.0,1.0,0.0
6622,69.0,240.0,120.0,1.0,0.0
6623,60.0,240.0,240.0,5.0,0.0
6624,72.0,0.0,720.0,1.0,0.0
6625,57.0,240.0,240.0,5.0,0.0
6626,55.0,240.0,240.0,5.0,0.0
6627,53.0,120.0,240.0,5.0,0.0
6628,84.0,0.0,15.0,1.0,0.0
6629,52.0,0.0,240.0,5.0,0.0
6630,82.0,120.0,120.0,1.0,0.0
6631,81.0,120.0,120.0,1.0,0.0
6632,53.0,120.0,240.0,5.0,0.0
6633,79.0,0.0,120.0,1.0,0.0
6634,79.0,120.0,120.0,1.0,0.0
6635,55.0,0.0,240.0,5.0,0.0
6636,77.0,120.0,120.0,1.0,0.0
6637,76.0,120.0,120.0,1.0,0.0
6638,48.0,120.0,240.0,5.0,0.0
6639,74.0,0.0,120.0,1.0,0.0
6640,72.0,120.0,120.0,1.0,0.0
6641,50.0,0.0,240.0,5.0,0.0
6642,70.0,120.0,120.0,1.0,0.0
6643,52.0,120.0,240.0,5.0,0.0
6644,69.0,120.0,120.0,1.0,0.0
6645,70.0,0.0,120.0,1.0,0.0
6646,69.0,120.0,120.0,1.0,0.0
6647,53.0,50.0,300.0,5.0,0.0
6648,72.0,70.0,120.0,1.0,0.0
6649,70.0,120.0,120.0,1.0,0.0
6650,69.0,120.0,120.0,1.0,0.0
6651,50.0,50.0,300.0,5.0,0.0
6652,53.0,0.0,300.0,4.0,0.0
6653,70.0,120.0,120.0,1.0,0.0
6654,72.0,70.0,120.0,1.0,0.0
6655,74.0,120.0,120.0,1.0,0.0
6656,76.0,120.0,120.0,1.0,0.0
6657,77.0,120.0,120.0,1.0,0.0
6658,46.0,0.0,300.0,5.0,0.0
6659,50.0,0.0,300.0,4.0,0.0
6660,53.0,50.0,300.0,4.0,0.0
6661,79.0,70.0,120.0,1.0,0.0
6662,81.0,120.0,120.0,1.0,0.0
6663,82.0,120.0,120.0,1.0,0.0
6664,53.0,95.0,390.0,4.0,0.0
6665,48.0,0.0,390.0,4.0,0.0
6666,45.0,0.0,390.0,5.0,0.0
6667,84.0,120.0,120.0,1.0,0.0
6668,82.0,120.0,120.0,1.0,0.0
6669,81.0,25.0,120.0,1.0,0.0
6670,79.0,120.0,120.0,1.0,0.0
6671,77.0,120.0,120.0,1.0,0.0
6672,76.0,120.0,120.0,1.0,0.0
6673,74.0,120.0,120.0,1.0,0.0
6674,72.0,120.0,120.0,1.0,0.0
6675,70.0,120.0,120.0,1.0,0.0
6676,69.0,120.0,120.0,1.0,0.0
6677,67.0,120.0,120.0,1.0,0.0
6678,65.0,60.0,120.0,1.0,0.0
6679,46.0,480.0,480.0,5.0,0.0
6680,55.0,0.0,480.0,4.0,0.0
6681,74.0,60.0,60.0,1.0,0.0
6682,76.0,60.0,60.0,1.0,0.0
6683,74.0,60.0,60.0,1.0,0.0
6684,76.0,40.0,60.0,1.0,0.0
6685,74.0,40.0,30.0,1.0,0.0
6686,76.0,40.0,30.0,1.0,0.0
6687,74.0,60.0,30.0,1.0,0.0
6688,76.0,60.0,60.0,1.0,0.0
6689,77.0,0.0,60.0,1.0,0.0
6690,57.0,0.0,480.0,4.0,0.0
6691,65.0,245.0,480.0,1.0,0.0
6692,48.0,385.0,960.0,5.0,0.0
6693,58.0,0.0,480.0,4.0,0.0
6694,69.0,235.0,240.0,1.0,0.0
6695,64.0,0.0,480.0,2.0,0.0
6696,67.0,0.0,240.0,1.0,0.0
6697,53.0,0.0,390.0,5.0,0.0
6698,57.0,0.0,390.0,4.0,0.0
6699,65.0,480.0,390.0,1.0,0.0
6700,41.0,1775.0,390.0,5.0,0.0
6701,67.0,240.0,240.0,1.0,0.0
6702,65.0,240.0,240.0,1.0,0.0
6703,64.0,240.0,240.0,1.0,0.0
6704,65.0,480.0,240.0,1.0,0.0
6705,53.0,0.0,480.0,5.0,0.0
6706,68.0,360.0,480.0,1.0,0.0
6707,60.0,0.0,360.0,3.0,0.0
6708,56.0,360.0,360.0,3.0,0.0
6709,56.0,0.0,360.0,3.0,0.0
6710,60.0,120.0,360.0,3.0,0.0
6711,70.0,120.0,240.0,1.0,0.0
6712,68.0,240.0,240.0,1.0,0.0
6713,67.0,120.0,240.0,1.0,0.0
6714,60.0,120.0,360.0,3.0,0.0
6715,56.0,0.0,360.0,3.0,0.0
6716,68.0,480.0,240.0,1.0,0.0
6717,72.0,360.0,480.0,1.0,0.0
6718,53.0,0.0,480.0,5.0,0.0
6719,60.0,0.0,360.0,3.0,0.0
6720,56.0,360.0,360.0,3.0,0.0
6721,56.0,0.0,360.0,3.0,0.0
6722,60.0,120.0,360.0,3.0,0.0
6723,73.0,120.0,240.0,1.0,0.0
6724,72.0,240.0,240.0,1.0,0.0
6725,71.0,120.0,240.0,1.0,0.0
6726,56.0,0.0,360.0,3.0,0.0
6727,60.0,120.0,360.0,3.0,0.0
6728,72.0,240.0,240.0,1.0,0.0
6729,79.0,240.0,240.0,1.0,0.0
6730,53.0,240.0,480.0,5.0,0.0
6731,77.0,0.0,240.0,1.0,0.0
6732,76.0,120.0,240.0,1.0,0.0
6733,56.0,120.0,360.0,3.0,0.0
6734,60.0,0.0,360.0,3.0,0.0
6735,77.0,240.0,240.0,1.0,0.0
6736,79.0,240.0,240.0,1.0,0.0
6737,53.0,240.0,480.0,5.0,0.0
6738,77.0,0.0,240.0,1.0,0.0
6739,60.0,120.0,360.0,3.0,0.0
6740,56.0,0.0,360.0,3.0,0.0
6741,76.0,120.0,240.0,1.0,0.0
6742,77.0,480.0,240.0,1.0,0.0
6743,80.0,70.0,780.0,1.0,0.0
6744,53.0,290.0,480.0,5.0,0.0
6745,60.0,360.0,360.0,3.0,0.0
6746,56.0,0.0,360.0,3.0,0.0
6747,56.0,360.0,360.0,3.0,0.0
6748,60.0,0.0,360.0,3.0,0.0
6749,77.0,120.0,240.0,1.0,0.0
6750,56.0,200.0,360.0,3.0,0.0
6751,60.0,0.0,360.0,3.0,0.0
6752,80.0,120.0,240.0,1.0,0.0
6753,48.0,240.0,480.0,5.0,0.0
6754,75.0,45.0,90.0,3.0,0.0
6755,77.0,115.0,90.0,3.0,0.0
6756,79.0,240.0,150.0,1.0,0.0
6757,74.0,0.0,240.0,2.0,0.0
6758,55.0,0.0,360.0,3.0,0.0
6759,60.0,360.0,360.0,3.0,0.0
6760,77.0,120.0,240.0,1.0,0.0
6761,60.0,360.0,360.0,3.0,0.0
6762,72.0,120.0,240.0,2.0,0.0
6763,75.0,0.0,240.0,1.0,0.0
6764,55.0,0.0,360.0,3.0,0.0
6765,77.0,120.0,240.0,1.0,0.0
6766,55.0,200.0,360.0,3.0,0.0
6767,74.0,0.0,240.0,2.0,0.0
6768,60.0,0.0,360.0,3.0,0.0
6769,48.0,240.0,480.0,5.0,0.0
6770,75.0,40.0,90.0,3.0,0.0
6771,77.0,120.0,90.0,3.0,0.0
6772,79.0,240.0,150.0,1.0,0.0
6773,55.0,360.0,360.0,3.0,0.0
6774,60.0,0.0,360.0,3.0,0.0
6775,77.0,120.0,240.0,1.0,0.0
6776,74.0,0.0,240.0,2.0,0.0
6777,75.0,120.0,240.0,1.0,0.0
6778,55.0,360.0,360.0,3.0,0.0
6779,60.0,0.0,360.0,3.0,0.0
6780,72.0,0.0,240.0,2.0,0.0
6781,74.0,0.0,240.0,2.0,0.0
6782,55.0,0.0,360.0,3.0,0.0
6783,60.0,200.0,360.0,3.0,0.0
6784,77.0,120.0,240.0,1.0,0.0
6785,48.0,240.0,480.0,5.0,0.0
6786,75.0,30.0,90.0,3.0,0.0
6787,77.0,130.0,60.0,3.0,0.0
6788,79.0,240.0,150.0,1.0,0.0
6789,74.0,120.0,240.0,2.0,0.0
6790,77.0,0.0,240.0,1.0,0.0
6791,55.0,0.0,360.0,3.0,0.0
6792,60.0,360.0,360.0,3.0,0.0
6793,43.0,240.0,480.0,5.0,0.0
6794,75.0,240.0,240.0,1.0,0.0
6795,72.0,0.0,240.0,2.0,0.0
6796,74.0,0.0,240.0,1.0,0.0
6797,55.0,1025.0,360.0,3.0,0.0
6798,71.0,120.0,240.0,2.0,0.0
6799,48.0,240.0,960.0,5.0,0.0
6800,72.0,55.0,900.0,1.0,0.0
6801,67.0,240.0,240.0,1.0,0.0
6802,65.0,240.0,240.0,1.0,0.0
6803,64.0,240.0,240.0,1.0,0.0
6804,65.0,480.0,240.0,1.0,0.0
6805,53.0,360.0,480.0,5.0,0.0
6806,68.0,0.0,480.0,1.0,0.0
6807,60.0,360.0,360.0,3.0,0.0
6808,56.0,0.0,360.0,3.0,0.0
6809,56.0,120.0,360.0,3.0,0.0
6810,60.0,0.0,360.0,3.0,0.0
6811,70.0,120.0,240.0,1.0,0.0
6812,68.0,240.0,240.0,1.0,0.0
6813,60.0,120.0,360.0,3.0,0.0
6814,67.0,120.0,240.0,1.0,0.0
6815,56.0,0.0,360.0,3.0,0.0
6816,68.0,480.0,240.0,1.0,0.0
6817,53.0,360.0,480.0,5.0,0.0
6818,72.0,0.0,480.0,1.0,0.0
6819,56.0,0.0,360.0,3.0,0.0
6820,60.0,360.0,360.0,3.0,0.0
6821,60.0,0.0,360.0,3.0,0.0
6822,73.0,120.0,240.0,1.0,0.0
6823,56.0,120.0,360.0,3.0,0.0
6824,72.0,240.0,240.0,1.0,0.0
6825,56.0,120.0,360.0,3.0,0.0
6826,60.0,0.0,360.0,3.0,0.0
6827,71.0,120.0,240.0,1.0,0.0
6828,72.0,240.0,240.0,1.0,0.0
6829,79.0,240.0,240.0,1.0,0.0
6830,53.0,0.0,480.0,5.0,0.0
6831,77.0,240.0,240.0,1.0,0.0
6832,76.0,120.0,240.0,1.0,0.0
6833,60.0,0.0,360.0,3.0,0.0
6834,56.0,120.0,360.0,3.0,0.0
6835,77.0,240.0,240.0,1.0,0.0
6836,53.0,0.0,480.0,5.0,0.0
6837,79.0,240.0,240.0,1.0,0.0
6838,77.0,240.0,240.0,1.0,0.0
6839,56.0,120.0,360.0,3.0,0.0
6840,76.0,120.0,240.0,1.0,0.0
6841,60.0,0.0,360.0,3.0,0.0
6842,77.0,480.0,240.0,1.0,0.0
6843,53.0,290.0,480.0,5.0,0.0
6844,80.0,70.0,780.0,1.0,0.0
6845,60.0,0.0,360.0,3.0,0.0
6846,56.0,360.0,360.0,3.0,0.0
6847,56.0,0.0,360.0,3.0,0.0
6848,60.0,360.0,360.0,3.0,0.0
6849,77.0,120.0,240.0,1.0,0.0
6850,56.0,200.0,360.0,3.0,0.0
6851,80.0,120.0,240.0,1.0,0.0
6852,60.0,0.0,360.0,3.0,0.0
6853,75.0,45.0,90.0,3.0,0.0
6854,48.0,240.0,480.0,5.0,0.0
6855,77.0,115.0,90.0,3.0,0.0
6856,79.0,240.0,150.0,1.0,0.0
6857,74.0,120.0,240.0,2.0,0.0
6858,77.0,0.0,240.0,1.0,0.0
6859,60.0,360.0,360.0,3.0,0.0
6860,55.0,0.0,360.0,3.0,0.0
6861,75.0,120.0,240.0,1.0,0.0
6862,55.0,360.0,360.0,3.0,0.0
6863,72.0,0.0,240.0,2.0,0.0
6864,60.0,0.0,360.0,3.0,0.0
6865,74.0,120.0,240.0,2.0,0.0
6866,55.0,0.0,360.0,3.0,0.0
6867,60.0,200.0,360.0,3.0,0.0
6868,77.0,0.0,240.0,1.0,0.0
6869,48.0,240.0,480.0,5.0,0.0
6870,75.0,40.0,90.0,3.0,0.0
6871,77.0,120.0,90.0,3.0,0.0
6872,79.0,240.0,150.0,1.0,0.0
6873,77.0,0.0,240.0,1.0,0.0
6874,74.0,120.0,240.0,2.0,0.0
6875,55.0,360.0,360.0,3.0,0.0
6876,60.0,0.0,360.0,3.0,0.0
6877,60.0,360.0,360.0,3.0,0.0
6878,55.0,0.0,360.0,3.0,0.0
6879,75.0,0.0,240.0,1.0,0.0
6880,72.0,120.0,240.0,2.0,0.0
6881,60.0,200.0,360.0,3.0,0.0
6882,77.0,120.0,240.0,1.0,0.0
6883,74.0,0.0,240.0,2.0,0.0
6884,55.0,0.0,360.0,3.0,0.0
6885,75.0,30.0,90.0,3.0,0.0
6886,48.0,240.0,480.0,5.0,0.0
6887,77.0,130.0,60.0,3.0,0.0
6888,79.0,240.0,150.0,1.0,0.0
6889,60.0,360.0,360.0,3.0,0.0
6890,77.0,120.0,240.0,1.0,0.0
6891,74.0,0.0,240.0,2.0,0.0
6892,55.0,0.0,360.0,3.0,0.0
6893,43.0,240.0,480.0,5.0,0.0
6894,72.0,240.0,240.0,2.0,0.0
6895,75.0,0.0,240.0,1.0,0.0
6896,55.0,1025.0,360.0,3.0,0.0
6897,74.0,0.0,240.0,1.0,0.0
6898,71.0,120.0,240.0,2.0,0.0
6899,72.0,55.0,900.0,1.0,0.0
6900,48.0,240.0,960.0,5.0,0.0
6901,68.0,480.0,240.0,2.0,0.0
6902,72.0,0.0,240.0,1.0,0.0
6903,73.0,480.0,240.0,1.0,0.0
6904,70.0,0.0,240.0,2.0,0.0
6905,72.0,0.0,240.0,2.0,0.0
6906,44.0,240.0,480.0,5.0,0.0
6907,75.0,240.0,240.0,1.0,0.0
6908,75.0,120.0,240.0,1.0,0.0
6909,72.0,0.0,240.0,2.0,0.0
6910,56.0,360.0,360.0,3.0,0.0
6911,48.0,0.0,480.0,5.0,0.0
6912,77.0,240.0,240.0,1.0,0.0
6913,75.0,240.0,240.0,1.0,0.0
6914,73.0,120.0,240.0,1.0,0.0
6915,60.0,120.0,360.0,3.0,0.0
6916,72.0,480.0,240.0,1.0,0.0
6917,70.0,300.0,900.0,1.0,0.0
6918,51.0,130.0,780.0,5.0,0.0
6919,67.0,290.0,480.0,2.0,0.0
6920,63.0,0.0,420.0,2.0,0.0
6921,72.0,480.0,240.0,1.0,0.0
6922,68.0,0.0,240.0,2.0,0.0
6923,70.0,0.0,240.0,2.0,0.0
6924,73.0,480.0,240.0,1.0,0.0
6925,72.0,0.0,240.0,2.0,0.0
6926,44.0,335.0,390.0,5.0,0.0
6927,75.0,145.0,240.0,1.0,0.0
6928,72.0,120.0,240.0,2.0,0.0
6929,56.0,360.0,360.0,3.0,0.0
6930,75.0,0.0,240.0,1.0,0.0
6931,77.0,145.0,240.0,1.0,0.0
6932,48.0,95.0,390.0,5.0,0.0
6933,75.0,240.0,240.0,1.0,0.0
6934,60.0,120.0,360.0,3.0,0.0
6935,73.0,120.0,240.0,1.0,0.0
6936,72.0,480.0,240.0,1.0,0.0
6937,67.0,290.0,480.0,2.0,0.0
6938,70.0,295.0,900.0,1.0,0.0
6939,51.0,130.0,780.0,5.0,0.0
6940,63.0,5.0,420.0,2.0,0.0
6941,68.0,480.0,240.0,1.0,0.0
6942,65.0,0.0,240.0,2.0,0.0
6943,67.0,480.0,240.0,2.0,0.0
6944,70.0,0.0,240.0,1.0,0.0
6945,68.0,240.0,240.0,2.0,0.0
6946,41.0,240.0,480.0,5.0,0.0
6947,72.0,0.0,240.0,1.0,0.0
6948,53.0,360.0,360.0,3.0,0.0
6949,72.0,0.0,240.0,1.0,0.0
6950,68.0,120.0,240.0,2.0,0.0
6951,44.0,0.0,480.0,5.0,0.0
6952,73.0,240.0,240.0,1.0,0.0
6953,72.0,240.0,240.0,1.0,0.0
6954,70.0,120.0,240.0,1.0,0.0
6955,56.0,120.0,360.0,3.0,0.0
6956,68.0,480.0,240.0,1.0,0.0
6957,67.0,295.0,900.0,1.0,0.0
6958,48.0,135.0,780.0,5.0,0.0
6959,64.0,290.0,480.0,2.0,0.0
6960,60.0,0.0,420.0,2.0,0.0
6961,65.0,480.0,240.0,2.0,0.0
6962,68.0,0.0,240.0,1.0,0.0
6963,70.0,0.0,240.0,1.0,0.0
6964,67.0,480.0,240.0,2.0,0.0
6965,72.0,0.0,240.0,1.0,0.0
6966,41.0,335.0,390.0,5.0,0.0
6967,68.0,145.0,240.0,2.0,0.0
6968,72.0,0.0,240.0,1.0,0.0
6969,53.0,360.0,360.0,3.0,0.0
6970,68.0,120.0,240.0,2.0,0.0
6971,73.0,145.0,240.0,1.0,0.0
6972,44.0,95.0,390.0,5.0,0.0
6973,72.0,240.0,240.0,1.0,0.0
6974,56.0,120.0,360.0,3.0,0.0
6975,70.0,120.0,240.0,1.0,0.0
6976,68.0,480.0,240.0,1.0,0.0
6977,48.0,130.0,780.0,5.0,0.0
6978,64.0,290.0,480.0,2.0,0.0
6979,67.0,0.0,900.0,1.0,0.0
6980,60.0,300.0,420.0,2.0,0.0
6981,67.0,240.0,240.0,1.0,0.0
6982,65.0,240.0,240.0,1.0,0.0
6983,64.0,240.0,240.0,1.0,0.0
6984,65.0,480.0,240.0,1.0,0.0
6985,53.0,0.0,480.0,5.0,0.0
6986,68.0,360.0,480.0,1.0,0.0
6987,56.0,360.0,360.0,3.0,0.0
6988,60.0,0.0,360.0,3.0,0.0
6989,70.0,120.0,240.0,1.0,0.0
6990,56.0,120.0,360.0,3.0,0.0
6991,60.0,0.0,360.0,3.0,0.0
6992,68.0,240.0,240.0,1.0,0.0
6993,56.0,120.0,360.0,3.0,0.0
6994,67.0,120.0,240.0,1.0,0.0
6995,60.0,0.0,360.0,3.0,0.0
6996,68.0,480.0,240.0,1.0,0.0
6997,72.0,360.0,480.0,1.0,0.0
6998,53.0,0.0,480.0,5.0,0.0
6999,56.0,360.0,360.0,3.0,0.0
7000,60.0,0.0,360.0,3.0,0.0
7001,56.0,0.0,360.0,3.0,0.0
7002,60.0,120.0,360.0,3.0,0.0
7003,73.0,120.0,240.0,1.0,0.0
7004,72.0,240.0,240.0,1.0,0.0
7005,71.0,120.0,240.0,1.0,0.0
7006,56.0,0.0,360.0,3.0,0.0
7007,60.0,120.0,360.0,3.0,0.0
7008,72.0,240.0,240.0,1.0,0.0
7009,79.0,240.0,240.0,1.0,0.0
7010,53.0,0.0,480.0,5.0,0.0
7011,77.0,240.0,240.0,1.0,0.0
7012,76.0,120.0,240.0,1.0,0.0
7013,56.0,120.0,360.0,3.0,0.0
7014,60.0,0.0,360.0,3.0,0.0
7015,77.0,240.0,240.0,1.0,0.0
7016,79.0,240.0,240.0,1.0,0.0
7017,53.0,240.0,480.0,3.0,0.0
7018,77.0,0.0,240.0,1.0,0.0
7019,76.0,120.0,240.0,1.0,0.0
7020,60.0,120.0,360.0,3.0,0.0
7021,56.0,0.0,360.0,3.0,0.0
7022,77.0,480.0,240.0,1.0,0.0
7023,80.0,70.0,780.0,1.0,0.0
7024,49.0,290.0,480.0,5.0,0.0
7025,53.0,360.0,360.0,3.0,0.0
7026,59.0,0.0,360.0,3.0,0.0
7027,53.0,360.0,360.0,3.0,0.0
7028,59.0,0.0,360.0,3.0,0.0
7029,77.0,120.0,240.0,1.0,0.0
7030,59.0,360.0,360.0,3.0,0.0
7031,53.0,0.0,360.0,3.0,0.0
7032,79.0,120.0,240.0,1.0,0.0
7033,80.0,240.0,240.0,1.0,0.0
7034,48.0,240.0,480.0,5.0,0.0
7035,79.0,120.0,240.0,1.0,0.0
7036,53.0,0.0,360.0,3.0,0.0
7037,60.0,360.0,360.0,3.0,0.0
7038,46.0,240.0,480.0,5.0,0.0
7039,77.0,240.0,240.0,1.0,0.0
7040,55.0,360.0,360.0,3.0,0.0
7041,49.0,0.0,360.0,3.0,0.0
7042,76.0,120.0,240.0,1.0,0.0
7043,77.0,240.0,240.0,1.0,0.0
7044,44.0,240.0,480.0,5.0,0.0
7045,72.0,120.0,240.0,1.0,0.0
7046,48.0,0.0,360.0,3.0,0.0
7047,53.0,360.0,360.0,3.0,0.0
7048,73.0,240.0,240.0,1.0,0.0
7049,46.0,240.0,480.0,5.0,0.0
7050,70.0,120.0,240.0,1.0,0.0
7051,49.0,0.0,360.0,3.0,0.0
7052,55.0,480.0,360.0,3.0,0.0
7053,68.0,120.0,960.0,1.0,0.0
7054,48.0,480.0,360.0,5.0,0.0
7055,53.0,0.0,360.0,4.0,0.0
7056,48.0,120.0,360.0,5.0,0.0
7057,53.0,0.0,360.0,4.0,0.0
7058,67.0,120.0,120.0,1.0,0.0
7059,52.0,120.0,360.0,4.0,0.0
7060,48.0,0.0,360.0,5.0,0.0
7061,68.0,120.0,120.0,1.0,0.0
7062,67.0,0.0,120.0,1.0,0.0
7063,68.0,80.0,120.0,1.0,0.0
7064,48.0,120.0,360.0,5.0,0.0
7065,67.0,80.0,90.0,1.0,0.0
7066,52.0,0.0,360.0,4.0,0.0
7067,68.0,80.0,90.0,1.0,0.0
7068,67.0,120.0,90.0,1.0,0.0
7069,65.0,0.0,120.0,1.0,0.0
7070,67.0,905.0,120.0,1.0,0.0
7071,65.0,55.0,900.0,1.0,0.0
7072,53.0,240.0,960.0,4.0,0.0
7073,41.0,0.0,960.0,5.0,0.0
7074,72.0,480.0,240.0,1.0,0.0
7075,68.0,0.0,240.0,2.0,0.0
7076,70.0,0.0,240.0,2.0,0.0
7077,73.0,480.0,240.0,1.0,0.0
7078,75.0,240.0,240.0,1.0,0.0
7079,72.0,0.0,240.0,2.0,0.0
7080,44.0,240.0,480.0,5.0,0.0
7081,75.0,120.0,240.0,1.0,0.0
7082,56.0,360.0,360.0,3.0,0.0
7083,72.0,0.0,240.0,2.0,0.0
7084,48.0,0.0,480.0,5.0,0.0
7085,77.0,240.0,240.0,1.0,0.0
7086,75.0,240.0,240.0,1.0,0.0
7087,60.0,120.0,360.0,3.0,0.0
7088,73.0,120.0,240.0,1.0,0.0
7089,72.0,480.0,240.0,1.0,0.0
7090,51.0,130.0,780.0,5.0,0.0
7091,70.0,300.0,900.0,1.0,0.0
7092,67.0,290.0,480.0,2.0,0.0
7093,63.0,0.0,420.0,2.0,0.0
7094,68.0,0.0,240.0,2.0,0.0
7095,72.0,480.0,240.0,1.0,0.0
7096,73.0,0.0,240.0,1.0,0.0
7097,70.0,480.0,240.0,2.0,0.0
7098,72.0,0.0,240.0,2.0,0.0
7099,75.0,145.0,240.0,1.0,0.0
7100,44.0,335.0,390.0,5.0,0.0
7101,75.0,120.0,240.0,1.0,0.0
7102,72.0,0.0,240.0,2.0,0.0
7103,56.0,360.0,360.0,3.0,0.0
7104,48.0,95.0,390.0,5.0,0.0
7105,77.0,145.0,240.0,1.0,0.0
7106,75.0,240.0,240.0,1.0,0.0
7107,73.0,120.0,240.0,1.0,0.0
7108,60.0,120.0,360.0,3.0,0.0
7109,72.0,480.0,240.0,1.0,0.0
7110,70.0,295.0,900.0,1.0,0.0
7111,67.0,290.0,480.0,2.0,0.0
7112,51.0,130.0,780.0,5.0,0.0
7113,63.0,5.0,420.0,2.0,0.0
7114,68.0,0.0,240.0,1.0,0.0
7115,65.0,480.0,240.0,2.0,0.0
7116,70.0,0.0,240.0,1.0,0.0
7117,67.0,480.0,240.0,2.0,0.0
7118,68.0,0.0,240.0,2.0,0.0
7119,41.0,240.0,480.0,5.0,0.0
7120,72.0,240.0,240.0,1.0,0.0
7121,53.0,360.0,360.0,3.0,0.0
7122,68.0,120.0,240.0,2.0,0.0
7123,72.0,0.0,240.0,1.0,0.0
7124,73.0,240.0,240.0,1.0,0.0
7125,44.0,0.0,480.0,5.0,0.0
7126,72.0,240.0,240.0,1.0,0.0
7127,56.0,120.0,360.0,3.0,0.0
7128,70.0,120.0,240.0,1.0,0.0
7129,68.0,480.0,240.0,1.0,0.0
7130,48.0,135.0,780.0,5.0,0.0
7131,67.0,295.0,900.0,1.0,0.0
7132,64.0,290.0,480.0,2.0,0.0
7133,60.0,0.0,420.0,2.0,0.0
7134,65.0,0.0,240.0,2.0,0.0
7135,68.0,480.0,240.0,1.0,0.0
7136,67.0,0.0,240.0,2.0,0.0
7137,70.0,480.0,240.0,1.0,0.0
7138,68.0,0.0,240.0,2.0,0.0
7139,72.0,145.0,240.0,1.0,0.0
7140,41.0,335.0,390.0,5.0,0.0
7141,72.0,0.0,240.0,1.0,0.0
7142,68.0,120.0,240.0,2.0,0.0
7143,53.0,360.0,360.0,3.0,0.0
7144,73.0,145.0,240.0,1.0,0.0
7145,44.0,95.0,390.0,5.0,0.0
7146,72.0,240.0,240.0,1.0,0.0
7147,70.0,120.0,240.0,1.0,0.0
7148,56.0,120.0,360.0,3.0,0.0
7149,68.0,480.0,240.0,1.0,0.0
7150,64.0,290.0,480.0,2.0,0.0
7151,67.0,300.0,900.0,1.0,0.0
7152,48.0,130.0,780.0,5.0,0.0
7153,60.0,0.0,420.0,2.0,0.0
7154,67.0,240.0,240.0,1.0,0.0
7155,65.0,240.0,240.0,1.0,0.0
7156,64.0,240.0,240.0,1.0,0.0
7157,65.0,480.0,240.0,1.0,0.0
7158,53.0,360.0,480.0,5.0,0.0
7159,68.0,0.0,480.0,1.0,0.0
7160,56.0,0.0,360.0,3.0,0.0
7161,60.0,360.0,360.0,3.0,0.0
7162,60.0,0.0,360.0,3.0,0.0
7163,70.0,120.0,240.0,1.0,0.0
7164,56.0,120.0,360.0,3.0,0.0
7165,68.0,240.0,240.0,1.0,0.0
7166,67.0,120.0,240.0,1.0,0.0
7167,60.0,120.0,360.0,3.0,0.0
7168,56.0,0.0,360.0,3.0,0.0
7169,68.0,480.0,240.0,1.0,0.0
7170,53.0,360.0,480.0,5.0,0.0
7171,72.0,0.0,480.0,1.0,0.0
7172,56.0,0.0,360.0,3.0,0.0
7173,60.0,360.0,360.0,3.0,0.0
7174,56.0,0.0,360.0,3.0,0.0
7175,60.0,120.0,360.0,3.0,0.0
7176,73.0,120.0,240.0,1.0,0.0
7177,72.0,240.0,240.0,1.0,0.0
7178,60.0,0.0,360.0,3.0,0.0
7179,56.0,120.0,360.0,3.0,0.0
7180,71.0,120.0,240.0,1.0,0.0
7181,72.0,240.0,240.0,1.0,0.0
7182,53.0,0.0,480.0,5.0,0.0
7183,79.0,240.0,240.0,1.0,0.0
7184,77.0,240.0,240.0,1.0,0.0
7185,60.0,0.0,360.0,3.0,0.0
7186,76.0,120.0,240.0,1.0,0.0
7187,56.0,120.0,360.0,3.0,0.0
7188,77.0,240.0,240.0,1.0,0.0
7189,53.0,0.0,480.0,3.0,0.0
7190,79.0,240.0,240.0,1.0,0.0
7191,77.0,240.0,240.0,1.0,0.0
7192,60.0,120.0,360.0,3.0,0.0
7193,56.0,0.0,360.0,3.0,0.0
7194,76.0,120.0,240.0,1.0,0.0
7195,77.0,480.0,240.0,1.0,0.0
7196,49.0,290.0,480.0,5.0,0.0
7197,80.0,70.0,780.0,1.0,0.0
7198,53.0,0.0,360.0,3.0,0.0
7199,59.0,360.0,360.0,3.0,0.0
7200,59.0,0.0,360.0,3.0,0.0
7201,53.0,360.0,360.0,3.0,0.0
7202,77.0,120.0,240.0,1.0,0.0
7203,53.0,0.0,360.0,3.0,0.0
7204,59.0,360.0,360.0,3.0,0.0
7205,79.0,120.0,240.0,1.0,0.0
7206,48.0,240.0,480.0,5.0,0.0
7207,80.0,240.0,240.0,1.0,0.0
7208,79.0,120.0,240.0,1.0,0.0
7209,60.0,0.0,360.0,3.0,0.0
7210,53.0,360.0,360.0,3.0,0.0
7211,46.0,240.0,480.0,5.0,0.0
7212,77.0,240.0,240.0,1.0,0.0
7213,49.0,360.0,360.0,3.0,0.0
7214,55.0,0.0,360.0,3.0,0.0
7215,76.0,120.0,240.0,1.0,0.0
7216,44.0,240.0,480.0,5.0,0.0
7217,77.0,240.0,240.0,1.0,0.0
7218,53.0,0.0,360.0,3.0,0.0
7219,48.0,360.0,360.0,3.0,0.0
7220,72.0,120.0,240.0,1.0,0.0
7221,73.0,240.0,240.0,1.0,0.0
7222,46.0,240.0,480.0,5.0,0.0
7223,49.0,0.0,360.0,3.0,0.0
7224,55.0,480.0,360.0,3.0,0.0
7225,70.0,120.0,240.0,1.0,0.0
7226,53.0,0.0,360.0,4.0,0.0
7227,48.0,480.0,360.0,5.0,0.0
7228,68.0,120.0,960.0,1.0,0.0
7229,53.0,0.0,360.0,4.0,0.0
7230,48.0,120.0,360.0,5.0,0.0
7231,52.0,0.0,360.0,4.0,0.0
7232,48.0,120.0,360.0,5.0,0.0
7233,67.0,120.0,120.0,1.0,0.0
7234,68.0,120.0,120.0,1.0,0.0
7235,67.0,0.0,120.0,1.0,0.0
7236,68.0,80.0,120.0,1.0,0.0
7237,52.0,0.0,360.0,4.0,0.0
7238,48.0,0.0,360.0,5.0,0.0
7239,67.0,80.0,90.0,1.0,0.0
7240,68.0,80.0,90.0,1.0,0.0
7241,67.0,120.0,90.0,1.0,0.0
7242,65.0,120.0,120.0,1.0,0.0
7243,67.0,905.0,120.0,1.0,0.0
7244,65.0,55.0,900.0,1.0,0.0
7245,41.0,0.0,960.0,5.0,0.0
7246,53.0,240.0,960.0,4.0,0.0
7247,65.0,0.0,240.0,2.0,0.0
7248,77.0,480.0,240.0,1.0,0.0
7249,67.0,0.0,240.0,2.0,0.0
7250,79.0,320.0,240.0,1.0,0.0
7251,69.0,0.0,960.0,2.0,0.0
7252,41.0,45.0,90.0,4.0,0.0
7253,81.0,240.0,960.0,1.0,0.0
7254,45.0,40.0,90.0,3.0,0.0
7255,48.0,135.0,90.0,3.0,0.0
7256,53.0,420.0,180.0,3.0,0.0
7257,53.0,240.0,240.0,3.0,0.0
7258,53.0,0.0,240.0,3.0,0.0
7259,65.0,0.0,240.0,2.0,0.0
7260,77.0,480.0,240.0,1.0,0.0
7261,79.0,0.0,240.0,1.0,0.0
7262,67.0,320.0,240.0,2.0,0.0
7263,53.0,0.0,240.0,3.0,0.0
7264,81.0,0.0,240.0,1.0,0.0
7265,69.0,60.0,240.0,2.0,0.0
7266,41.0,45.0,90.0,4.0,0.0
7267,45.0,40.0,90.0,3.0,0.0
7268,48.0,75.0,90.0,3.0,0.0
7269,53.0,420.0,180.0,3.0,0.0
7270,53.0,0.0,240.0,3.0,0.0
7271,67.0,0.0,240.0,2.0,0.0
7272,79.0,480.0,240.0,1.0,0.0
7273,53.0,480.0,240.0,3.0,0.0
7274,65.0,0.0,240.0,2.0,0.0
7275,77.0,0.0,240.0,1.0,0.0
7276,64.0,320.0,240.0,2.0,0.0
7277,76.0,0.0,240.0,1.0,0.0
7278,53.0,0.0,240.0,3.0,0.0
7279,62.0,0.0,240.0,2.0,0.0
7280,34.0,45.0,90.0,4.0,0.0
7281,74.0,60.0,240.0,1.0,0.0
7282,38.0,30.0,90.0,3.0,0.0
7283,41.0,85.0,60.0,3.0,0.0
7284,46.0,420.0,180.0,3.0,0.0
7285,64.0,320.0,240.0,2.0,0.0
7286,46.0,0.0,240.0,3.0,0.0
7287,76.0,0.0,240.0,1.0,0.0
7288,65.0,65.0,240.0,2.0,0.0
7289,35.0,45.0,90.0,4.0,0.0
7290,77.0,0.0,240.0,1.0,0.0
7291,38.0,30.0,90.0,3.0,0.0
7292,41.0,85.0,60.0,3.0,0.0
7293,47.0,415.0,180.0,3.0,0.0
7294,67.0,330.0,240.0,2.0,0.0
7295,79.0,0.0,240.0,1.0,0.0
7296,47.0,0.0,240.0,3.0,0.0
7297,76.0,0.0,240.0,1.0,0.0
7298,64.0,65.0,240.0,2.0,0.0
7299,36.0,30.0,90.0,4.0,0.0
7300,40.0,45.0,90.0,3.0,0.0
7301,43.0,75.0,90.0,3.0,0.0
7302,48.0,415.0,180.0,3.0,0.0
7303,60.0,0.0,240.0,2.0,0.0
7304,72.0,5.0,240.0,1.0,0.0
7305,48.0,475.0,240.0,3.0,0.0
7306,65.0,0.0,240.0,2.0,0.0
7307,77.0,0.0,240.0,1.0,0.0
7308,48.0,480.0,240.0,3.0,0.0
7309,48.0,320.0,240.0,3.0,0.0
7310,79.0,0.0,240.0,1.0,0.0
7311,67.0,0.0,240.0,2.0,0.0
7312,41.0,45.0,90.0,4.0,0.0
7313,69.0,0.0,960.0,2.0,0.0
7314,81.0,240.0,960.0,1.0,0.0
7315,45.0,40.0,90.0,3.0,0.0
7316,48.0,140.0,90.0,3.0,0.0
7317,53.0,415.0,180.0,3.0,0.0
7318,53.0,240.0,240.0,3.0,0.0
7319,65.0,0.0,240.0,2.0,0.0
7320,53.0,0.0,240.0,3.0,0.0
7321,77.0,480.0,240.0,1.0,0.0
7322,79.0,0.0,240.0,1.0,0.0
7323,53.0,0.0,240.0,3.0,0.0
7324,67.0,320.0,240.0,2.0,0.0
7325,41.0,45.0,90.0,4.0,0.0
7326,69.0,0.0,240.0,2.0,0.0
7327,81.0,60.0,240.0,1.0,0.0
7328,45.0,40.0,90.0,3.0,0.0
7329,48.0,75.0,90.0,3.0,0.0
7330,53.0,420.0,180.0,3.0,0.0
7331,53.0,0.0,240.0,3.0,0.0
7332,79.0,480.0,240.0,1.0,0.0
7333,67.0,0.0,240.0,2.0,0.0
7334,65.0,0.0,240.0,2.0,0.0
7335,77.0,0.0,240.0,1.0,0.0
7336,53.0,480.0,240.0,3.0,0.0
7337,64.0,0.0,240.0,2.0,0.0
7338,53.0,320.0,240.0,3.0,0.0
7339,76.0,0.0,240.0,1.0,0.0
7340,34.0,45.0,90.0,4.0,0.0
7341,74.0,60.0,240.0,1.0,0.0
7342,62.0,0.0,240.0,2.0,0.0
7343,38.0,30.0,90.0,3.0,0.0
7344,41.0,85.0,60.0,3.0,0.0
7345,46.0,420.0,180.0,3.0,0.0
7346,46.0,0.0,240.0,3.0,0.0
7347,79.0,0.0,240.0,1.0,0.0
7348,67.0,330.0,240.0,2.0,0.0
7349,36.0,30.0,90.0,4.0,0.0
7350,64.0,0.0,240.0,2.0,0.0
7351,76.0,60.0,240.0,1.0,0.0
7352,40.0,45.0,90.0,3.0,0.0
7353,43.0,75.0,90.0,3.0,0.0
7354,48.0,420.0,180.0,3.0,0.0
7355,72.0,0.0,240.0,1.0,0.0
7356,48.0,1135.0,240.0,3.0,0.0
7357,60.0,5.0,240.0,2.0,0.0
7358,77.0,55.0,900.0,1.0,0.0
7359,65.0,5.0,900.0,2.0,0.0
7360,41.0,240.0,960.0,4.0,0.0
7361,77.0,480.0,240.0,1.0,0.0
7362,65.0,0.0,240.0,2.0,0.0
7363,67.0,0.0,240.0,2.0,0.0
7364,79.0,320.0,240.0,1.0,0.0
7365,41.0,45.0,90.0,4.0,0.0
7366,69.0,240.0,960.0,2.0,0.0
7367,81.0,0.0,960.0,1.0,0.0
7368,45.0,40.0,90.0,3.0,0.0
7369,48.0,135.0,90.0,3.0,0.0
7370,53.0,420.0,180.0,3.0,0.0
7371,53.0,240.0,240.0,3.0,0.0
7372,53.0,480.0,240.0,3.0,0.0
7373,77.0,0.0,240.0,1.0,0.0
7374,65.0,0.0,240.0,2.0,0.0
7375,79.0,0.0,240.0,1.0,0.0
7376,67.0,0.0,240.0,2.0,0.0
7377,53.0,320.0,240.0,3.0,0.0
7378,81.0,0.0,240.0,1.0,0.0
7379,69.0,60.0,240.0,2.0,0.0
7380,41.0,45.0,90.0,4.0,0.0
7381,45.0,40.0,90.0,3.0,0.0
7382,48.0,75.0,90.0,3.0,0.0
7383,53.0,420.0,180.0,3.0,0.0
7384,79.0,480.0,240.0,1.0,0.0
7385,67.0,0.0,240.0,2.0,0.0
7386,53.0,0.0,240.0,3.0,0.0
7387,65.0,0.0,240.0,2.0,0.0
7388,53.0,480.0,240.0,3.0,0.0
7389,77.0,0.0,240.0,1.0,0.0
7390,76.0,0.0,240.0,1.0,0.0
7391,64.0,0.0,240.0,2.0,0.0
7392,53.0,320.0,240.0,3.0,0.0
7393,34.0,45.0,90.0,4.0,0.0
7394,62.0,0.0,240.0,2.0,0.0
7395,74.0,60.0,240.0,1.0,0.0
7396,38.0,30.0,90.0,3.0,0.0
7397,41.0,85.0,60.0,3.0,0.0
7398,46.0,420.0,180.0,3.0,0.0
7399,46.0,320.0,240.0,3.0,0.0
7400,64.0,0.0,240.0,2.0,0.0
7401,76.0,0.0,240.0,1.0,0.0
7402,77.0,0.0,240.0,1.0,0.0
7403,65.0,65.0,240.0,2.0,0.0
7404,35.0,45.0,90.0,4.0,0.0
7405,38.0,30.0,90.0,3.0,0.0
7406,41.0,85.0,60.0,3.0,0.0
7407,47.0,415.0,180.0,3.0,0.0
7408,79.0,0.0,240.0,1.0,0.0
7409,67.0,0.0,240.0,2.0,0.0
7410,47.0,330.0,240.0,3.0,0.0
7411,76.0,0.0,240.0,1.0,0.0
7412,36.0,30.0,90.0,4.0,0.0
7413,64.0,65.0,240.0,2.0,0.0
7414,40.0,45.0,90.0,3.0,0.0
7415,43.0,75.0,90.0,3.0,0.0
7416,48.0,415.0,180.0,3.0,0.0
7417,72.0,0.0,240.0,1.0,0.0
7418,60.0,5.0,240.0,2.0,0.0
7419,48.0,475.0,240.0,3.0,0.0
7420,65.0,0.0,240.0,2.0,0.0
7421,77.0,480.0,240.0,1.0,0.0
7422,48.0,0.0,240.0,3.0,0.0
7423,67.0,0.0,240.0,2.0,0.0
7424,79.0,320.0,240.0,1.0,0.0
7425,48.0,0.0,240.0,3.0,0.0
7426,41.0,45.0,90.0,4.0,0.0
7427,81.0,0.0,960.0,1.0,0.0
7428,69.0,240.0,960.0,2.0,0.0
7429,45.0,40.0,90.0,3.0,0.0
7430,48.0,140.0,90.0,3.0,0.0
7431,53.0,415.0,180.0,3.0,0.0
7432,53.0,240.0,240.0,3.0,0.0
7433,53.0,0.0,240.0,3.0,0.0
7434,65.0,0.0,240.0,2.0,0.0
7435,77.0,480.0,240.0,1.0,0.0
7436,53.0,0.0,240.0,3.0,0.0
7437,67.0,0.0,240.0,2.0,0.0
7438,79.0,320.0,240.0,1.0,0.0
7439,41.0,45.0,90.0,4.0,0.0
7440,81.0,60.0,240.0,1.0,0.0
7441,69.0,0.0,240.0,2.0,0.0
7442,45.0,40.0,90.0,3.0,0.0
7443,48.0,75.0,90.0,3.0,0.0
7444,53.0,420.0,180.0,3.0,0.0
7445,67.0,0.0,240.0,2.0,0.0
7446,53.0,480.0,240.0,3.0,0.0
7447,79.0,0.0,240.0,1.0,0.0
7448,53.0,0.0,240.0,3.0,0.0
7449,77.0,0.0,240.0,1.0,0.0
7450,65.0,480.0,240.0,2.0,0.0
7451,53.0,0.0,240.0,3.0,0.0
7452,76.0,0.0,240.0,1.0,0.0
7453,64.0,320.0,240.0,2.0,0.0
7454,74.0,0.0,240.0,1.0,0.0
7455,62.0,60.0,240.0,2.0,0.0
7456,34.0,45.0,90.0,4.0,0.0
7457,38.0,30.0,90.0,3.0,0.0
7458,41.0,85.0,60.0,3.0,0.0
7459,46.0,420.0,180.0,3.0,0.0
7460,67.0,0.0,240.0,2.0,0.0
7461,46.0,330.0,240.0,3.0,0.0
7462,79.0,0.0,240.0,1.0,0.0
7463,36.0,30.0,90.0,4.0,0.0
7464,76.0,0.0,240.0,1.0,0.0
7465,64.0,60.0,240.0,2.0,0.0
7466,40.0,45.0,90.0,3.0,0.0
7467,43.0,75.0,90.0,3.0,0.0
7468,48.0,420.0,180.0,3.0,0.0
7469,60.0,0.0,240.0,2.0,0.0
7470,72.0,5.0,240.0,1.0,0.0
7471,48.0,1135.0,240.0,3.0,0.0
7472,41.0,240.0,960.0,4.0,0.0
7473,65.0,5.0,900.0,2.0,0.0
7474,77.0,55.0,900.0,1.0,0.0
7475,81.0,240.0,240.0,1.0,0.0
7476,82.0,240.0,240.0,1.0,0.0
7477,81.0,240.0,240.0,1.0,0.0
7478,79.0,240.0,240.0,1.0,0.0
7479,77.0,240.0,240.0,1.0,0.0
7480,50.0,0.0,480.0,5.0,0.0
7481,79.0,240.0,240.0,1.0,0.0
7482,77.0,120.0,240.0,1.0,0.0
7483,53.0,0.0,360.0,3.0,0.0
7484,57.0,120.0,360.0,3.0,0.0
7485,76.0,240.0,240.0,1.0,0.0
7486,57.0,0.0,360.0,3.0,0.0
7487,53.0,120.0,360.0,3.0,0.0
7488,74.0,120.0,240.0,1.0,0.0
7489,77.0,240.0,240.0,1.0,0.0
7490,76.0,120.0,240.0,1.0,0.0
7491,57.0,0.0,360.0,3.0,0.0
7492,53.0,120.0,360.0,3.0,0.0
7493,74.0,240.0,240.0,1.0,0.0
7494,52.0,240.0,480.0,5.0,0.0
7495,73.0,240.0,240.0,1.0,0.0
7496,74.0,0.0,240.0,1.0,0.0
7497,76.0,120.0,240.0,1.0,0.0
7498,55.0,120.0,360.0,3.0,0.0
7499,57.0,0.0,360.0,3.0,0.0
7500,73.0,240.0,240.0,1.0,0.0
7501,57.0,0.0,360.0,3.0,0.0
7502,55.0,120.0,360.0,3.0,0.0
7503,69.0,120.0,240.0,1.0,0.0
7504,71.0,240.0,240.0,1.0,0.0
7505,73.0,120.0,240.0,1.0,0.0
7506,57.0,120.0,360.0,3.0,0.0
7507,55.0,0.0,360.0,3.0,0.0
7508,69.0,240.0,240.0,1.0,0.0
7509,74.0,240.0,240.0,1.0,0.0
7510,50.0,0.0,480.0,5.0,0.0
7511,73.0,240.0,240.0,1.0,0.0
7512,74.0,120.0,240.0,1.0,0.0
7513,57.0,120.0,360.0,3.0,0.0
7514,53.0,0.0,360.0,3.0,0.0
7515,76.0,240.0,240.0,1.0,0.0
7516,53.0,120.0,360.0,3.0,0.0
7517,57.0,0.0,360.0,3.0,0.0
7518,77.0,120.0,240.0,1.0,0.0
7519,76.0,240.0,240.0,1.0,0.0
7520,53.0,0.0,360.0,3.0,0.0
7521,77.0,120.0,240.0,1.0,0.0
7522,57.0,120.0,360.0,3.0,0.0
7523,79.0,240.0,240.0,1.0,0.0
7524,49.0,0.0,480.0,5.0,0.0
7525,81.0,240.0,240.0,1.0,0.0
7526,80.0,240.0,240.0,1.0,0.0
7527,57.0,0.0,360.0,3.0,0.0
7528,52.0,120.0,360.0,3.0,0.0
7529,81.0,120.0,240.0,1.0,0.0
7530,80.0,240.0,240.0,1.0,0.0
7531,81.0,120.0,240.0,1.0,0.0
7532,52.0,120.0,360.0,3.0,0.0
7533,57.0,0.0,360.0,3.0,0.0
7534,82.0,240.0,240.0,1.0,0.0
7535,52.0,0.0,360.0,3.0,0.0
7536,81.0,120.0,240.0,1.0,0.0
7537,57.0,120.0,360.0,3.0,0.0
7538,79.0,240.0,240.0,1.0,0.0
7539,50.0,240.0,480.0,5.0,0.0
7540,77.0,240.0,240.0,1.0,0.0
7541,79.0,0.0,240.0,1.0,0.0
7542,77.0,120.0,240.0,1.0,0.0
7543,57.0,120.0,360.0,3.0,0.0
7544,53.0,0.0,360.0,3.0,0.0
7545,76.0,240.0,240.0,1.0,0.0
7546,57.0,0.0,360.0,3.0,0.0
7547,53.0,120.0,360.0,3.0,0.0
7548,74.0,120.0,240.0,1.0,0.0
7549,77.0,240.0,240.0,1.0,0.0
7550,57.0,120.0,360.0,3.0,0.0
7551,76.0,120.0,240.0,1.0,0.0
7552,53.0,0.0,360.0,3.0,0.0
7553,74.0,240.0,240.0,1.0,0.0
7554,72.0,240.0,240.0,1.0,0.0
7555,52.0,0.0,480.0,5.0,0.0
7556,74.0,240.0,240.0,1.0,0.0
7557,57.0,120.0,360.0,3.0,0.0
7558,60.0,0.0,360.0,3.0,0.0
7559,76.0,120.0,240.0,1.0,0.0
7560,72.0,240.0,240.0,1.0,0.0
7561,57.0,0.0,360.0,3.0,0.0
7562,60.0,120.0,360.0,3.0,0.0
7563,69.0,120.0,240.0,1.0,0.0
7564,71.0,240.0,240.0,1.0,0.0
7565,60.0,120.0,360.0,3.0,0.0
7566,72.0,120.0,240.0,1.0,0.0
7567,57.0,0.0,360.0,3.0,0.0
7568,69.0,240.0,240.0,1.0,0.0
7569,71.0,240.0,240.0,1.0,0.0
7570,52.0,240.0,480.0,5.0,0.0
7571,72.0,0.0,240.0,1.0,0.0
7572,59.0,0.0,360.0,3.0,0.0
7573,74.0,120.0,240.0,1.0,0.0
7574,62.0,120.0,360.0,3.0,0.0
7575,71.0,240.0,240.0,1.0,0.0
7576,68.0,120.0,240.0,1.0,0.0
7577,62.0,0.0,360.0,3.0,0.0
7578,59.0,120.0,360.0,3.0,0.0
7579,69.0,240.0,240.0,1.0,0.0
7580,71.0,120.0,240.0,1.0,0.0
7581,62.0,120.0,360.0,3.0,0.0
7582,59.0,0.0,360.0,3.0,0.0
7583,68.0,840.0,240.0,1.0,0.0
7584,57.0,240.0,960.0,5.0,0.0
7585,60.0,0.0,960.0,3.0,0.0
7586,69.0,120.0,840.0,1.0,0.0
7587,72.0,240.0,240.0,1.0,0.0
7588,70.0,240.0,240.0,1.0,0.0
7589,69.0,240.0,240.0,1.0,0.0
7590,67.0,240.0,240.0,1.0,0.0
7591,53.0,240.0,480.0,5.0,0.0
7592,65.0,240.0,240.0,1.0,0.0
7593,67.0,0.0,240.0,1.0,0.0
7594,60.0,120.0,360.0,3.0,0.0
7595,69.0,120.0,240.0,1.0,0.0
7596,57.0,0.0,360.0,3.0,0.0
7597,70.0,240.0,240.0,1.0,0.0
7598,60.0,0.0,360.0,3.0,0.0
7599,72.0,120.0,240.0,1.0,0.0
7600,57.0,120.0,360.0,3.0,0.0
7601,74.0,240.0,240.0,1.0,0.0
7602,57.0,0.0,360.0,3.0,0.0
7603,60.0,120.0,360.0,3.0,0.0
7604,76.0,120.0,240.0,1.0,0.0
7605,77.0,240.0,240.0,1.0,0.0
7606,77.0,240.0,240.0,1.0,0.0
7607,55.0,240.0,480.0,5.0,0.0
7608,76.0,0.0,240.0,1.0,0.0
7609,74.0,120.0,240.0,1.0,0.0
7610,58.0,120.0,360.0,3.0,0.0
7611,60.0,0.0,360.0,3.0,0.0
7612,72.0,240.0,15.0,1.0,0.0
7613,52.0,0.0,480.0,5.0,0.0
7614,70.0,240.0,240.0,1.0,0.0
7615,60.0,120.0,360.0,3.0,0.0
7616,69.0,120.0,240.0,1.0,0.0
7617,58.0,0.0,360.0,3.0,0.0
7618,67.0,240.0,240.0,1.0,0.0
7619,65.0,240.0,240.0,1.0,0.0
7620,53.0,240.0,480.0,5.0,0.0
7621,67.0,0.0,240.0,1.0,0.0
7622,69.0,120.0,240.0,1.0,0.0
7623,57.0,120.0,360.0,3.0,0.0
7624,60.0,0.0,360.0,3.0,0.0
7625,70.0,240.0,240.0,1.0,0.0
7626,57.0,120.0,360.0,3.0,0.0
7627,72.0,120.0,240.0,1.0,0.0
7628,60.0,0.0,360.0,3.0,0.0
7629,74.0,240.0,240.0,1.0,0.0
7630,60.0,0.0,360.0,3.0,0.0
7631,57.0,120.0,360.0,3.0,0.0
7632,76.0,120.0,240.0,1.0,0.0
7633,77.0,480.0,240.0,1.0,0.0
7634,48.0,0.0,480.0,5.0,0.0
7635,78.0,360.0,480.0,1.0,0.0
7636,79.0,335.0,390.0,1.0,0.0
7637,52.0,0.0,360.0,3.0,0.0
7638,58.0,25.0,360.0,3.0,0.0
7639,52.0,0.0,360.0,3.0,0.0
7640,72.0,120.0,240.0,1.0,0.0
7641,58.0,120.0,360.0,3.0,0.0
7642,70.0,240.0,240.0,1.0,0.0
7643,52.0,0.0,360.0,3.0,0.0
7644,58.0,120.0,360.0,3.0,0.0
7645,69.0,120.0,240.0,1.0,0.0
7646,67.0,240.0,240.0,1.0,0.0
7647,53.0,240.0,480.0,5.0,0.0
7648,65.0,240.0,240.0,1.0,0.0
7649,67.0,0.0,240.0,1.0,0.0
7650,60.0,120.0,360.0,3.0,0.0
7651,69.0,120.0,240.0,1.0,0.0
7652,57.0,0.0,360.0,3.0,0.0
7653,70.0,240.0,240.0,1.0,0.0
7654,72.0,120.0,240.0,1.0,0.0
7655,60.0,0.0,360.0,3.0,0.0
7656,57.0,120.0,360.0,3.0,0.0
7657,74.0,240.0,240.0,1.0,0.0
7658,76.0,120.0,240.0,1.0,0.0
7659,57.0,120.0,360.0,3.0,0.0
7660,60.0,0.0,360.0,3.0,0.0
7661,77.0,240.0,240.0,1.0,0.0
7662,55.0,0.0,480.0,5.0,0.0
7663,77.0,240.0,240.0,1.0,0.0
7664,76.0,240.0,240.0,1.0,0.0
7665,74.0,120.0,240.0,1.0,0.0
7666,58.0,0.0,360.0,3.0,0.0
7667,60.0,120.0,360.0,3.0,0.0
7668,72.0,240.0,15.0,1.0,0.0
7669,52.0,240.0,480.0,5.0,0.0
7670,70.0,0.0,240.0,1.0,0.0
7671,69.0,120.0,240.0,1.0,0.0
7672,58.0,0.0,360.0,3.0,0.0
7673,60.0,120.0,360.0,3.0,0.0
7674,67.0,240.0,240.0,1.0,0.0
7675,69.0,120.0,240.0,1.0,0.0
7676,53.0,120.0,360.0,5.0,0.0
7677,72.0,240.0,240.0,2.0,0.0
7678,65.0,120.0,240.0,1.0,0.0
7679,50.0,120.0,360.0,5.0,0.0
7680,69.0,240.0,240.0,2.0,0.0
7681,67.0,120.0,240.0,1.0,0.0
7682,46.0,120.0,360.0,5.0,0.0
7683,70.0,240.0,240.0,2.0,0.0
7684,48.0,120.0,360.0,5.0,0.0
7685,64.0,120.0,240.0,1.0,0.0
7686,67.0,360.0,240.0,2.0,0.0
7687,41.0,410.0,360.0,5.0,0.0
7688,65.0,70.0,780.0,1.0,0.0
7689,53.0,360.0,360.0,5.0,0.0
7690,81.0,240.0,240.0,1.0,0.0
7691,82.0,240.0,240.0,1.0,0.0
7692,81.0,240.0,240.0,1.0,0.0
7693,79.0,240.0,240.0,1.0,0.0
7694,77.0,240.0,240.0,1.0,0.0
7695,50.0,240.0,480.0,5.0,0.0
7696,79.0,0.0,240.0,1.0,0.0
7697,53.0,0.0,360.0,3.0,0.0
7698,57.0,120.0,360.0,3.0,0.0
7699,77.0,120.0,240.0,1.0,0.0
7700,76.0,240.0,240.0,1.0,0.0
7701,53.0,120.0,360.0,3.0,0.0
7702,57.0,0.0,360.0,3.0,0.0
7703,74.0,120.0,240.0,1.0,0.0
7704,77.0,240.0,240.0,1.0,0.0
7705,76.0,120.0,240.0,1.0,0.0
7706,53.0,0.0,360.0,3.0,0.0
7707,57.0,120.0,360.0,3.0,0.0
7708,74.0,240.0,240.0,1.0,0.0
7709,52.0,240.0,480.0,5.0,0.0
7710,73.0,240.0,240.0,1.0,0.0
7711,74.0,0.0,240.0,1.0,0.0
7712,76.0,120.0,240.0,1.0,0.0
7713,57.0,0.0,360.0,3.0,0.0
7714,55.0,120.0,360.0,3.0,0.0
7715,73.0,240.0,240.0,1.0,0.0
7716,55.0,0.0,360.0,3.0,0.0
7717,69.0,120.0,240.0,1.0,0.0
7718,57.0,120.0,360.0,3.0,0.0
7719,71.0,240.0,240.0,1.0,0.0
7720,57.0,120.0,360.0,3.0,0.0
7721,55.0,0.0,360.0,3.0,0.0
7722,73.0,120.0,240.0,1.0,0.0
7723,69.0,240.0,240.0,1.0,0.0
7724,50.0,0.0,480.0,5.0,0.0
7725,74.0,240.0,240.0,1.0,0.0
7726,73.0,240.0,240.0,1.0,0.0
7727,53.0,0.0,360.0,3.0,0.0
7728,57.0,120.0,360.0,3.0,0.0
7729,74.0,120.0,240.0,1.0,0.0
7730,76.0,240.0,240.0,1.0,0.0
7731,57.0,0.0,360.0,3.0,0.0
7732,53.0,120.0,360.0,3.0,0.0
7733,77.0,120.0,240.0,1.0,0.0
7734,76.0,240.0,240.0,1.0,0.0
7735,77.0,120.0,240.0,1.0,0.0
7736,53.0,120.0,360.0,3.0,0.0
7737,57.0,0.0,360.0,3.0,0.0
7738,79.0,240.0,240.0,1.0,0.0
7739,81.0,240.0,240.0,1.0,0.0
7740,45.0,0.0,480.0,5.0,0.0
7741,80.0,240.0,240.0,1.0,0.0
7742,57.0,0.0,360.0,3.0,0.0
7743,52.0,120.0,360.0,5.0,0.0
7744,81.0,120.0,240.0,1.0,0.0
7745,80.0,240.0,240.0,1.0,0.0
7746,81.0,120.0,240.0,1.0,0.0
7747,51.0,120.0,360.0,5.0,0.0
7748,57.0,0.0,360.0,3.0,0.0
7749,80.0,240.0,240.0,1.0,0.0
7750,81.0,120.0,240.0,1.0,0.0
7751,57.0,0.0,360.0,3.0,0.0
7752,50.0,120.0,360.0,5.0,0.0
7753,78.0,240.0,240.0,1.0,0.0
7754,82.0,240.0,240.0,1.0,0.0
7755,43.0,240.0,480.0,5.0,0.0
7756,81.0,0.0,240.0,1.0,0.0
7757,55.0,120.0,360.0,3.0,0.0
7758,50.0,0.0,360.0,3.0,0.0
7759,82.0,120.0,240.0,1.0,0.0
7760,81.0,240.0,240.0,1.0,0.0
7761,50.0,120.0,360.0,3.0,0.0
7762,55.0,0.0,360.0,3.0,0.0
7763,82.0,120.0,240.0,1.0,0.0
7764,81.0,240.0,240.0,1.0,0.0
7765,50.0,0.0,360.0,3.0,0.0
7766,55.0,120.0,360.0,3.0,0.0
7767,82.0,120.0,240.0,1.0,0.0
7768,81.0,240.0,240.0,1.0,0.0
7769,43.0,0.0,480.0,5.0,0.0
7770,82.0,240.0,240.0,1.0,0.0
7771,81.0,240.0,240.0,1.0,0.0
7772,52.0,0.0,360.0,3.0,0.0
7773,79.0,120.0,240.0,1.0,0.0
7774,55.0,120.0,360.0,3.0,0.0
7775,77.0,240.0,240.0,1.0,0.0
7776,55.0,120.0,360.0,3.0,0.0
7777,76.0,120.0,240.0,1.0,0.0
7778,52.0,0.0,360.0,3.0,0.0
7779,77.0,240.0,240.0,1.0,0.0
7780,55.0,0.0,360.0,3.0,0.0
7781,52.0,120.0,360.0,3.0,0.0
7782,79.0,120.0,240.0,1.0,0.0
7783,76.0,240.0,240.0,1.0,0.0
7784,45.0,240.0,480.0,5.0,0.0
7785,77.0,240.0,240.0,1.0,0.0
7786,79.0,0.0,240.0,1.0,0.0
7787,53.0,120.0,360.0,3.0,0.0
7788,50.0,0.0,360.0,3.0,0.0
7789,81.0,120.0,240.0,1.0,0.0
7790,74.0,240.0,240.0,1.0,0.0
7791,73.0,240.0,240.0,1.0,0.0
7792,45.0,0.0,480.0,5.0,0.0
7793,74.0,240.0,240.0,1.0,0.0
7794,55.0,120.0,360.0,3.0,0.0
7795,76.0,120.0,240.0,1.0,0.0
7796,52.0,0.0,360.0,3.0,0.0
7797,73.0,770.0,240.0,1.0,0.0
7798,74.0,190.0,780.0,1.0,0.0
7799,50.0,240.0,960.0,5.0,0.0
7800,53.0,0.0,960.0,3.0,0.0
7801,72.0,240.0,240.0,1.0,0.0
7802,70.0,240.0,240.0,1.0,0.0
7803,69.0,240.0,240.0,1.0,0.0
7804,67.0,240.0,240.0,1.0,0.0
7805,53.0,0.0,480.0,5.0,0.0
7806,65.0,240.0,240.0,1.0,0.0
7807,67.0,240.0,240.0,1.0,0.0
7808,57.0,120.0,360.0,3.0,0.0
7809,60.0,0.0,360.0,3.0,0.0
7810,69.0,120.0,240.0,1.0,0.0
7811,70.0,240.0,240.0,1.0,0.0
7812,72.0,120.0,240.0,1.0,0.0
7813,57.0,120.0,360.0,3.0,0.0
7814,60.0,0.0,360.0,3.0,0.0
7815,74.0,240.0,240.0,1.0,0.0
7816,76.0,120.0,240.0,1.0,0.0
7817,60.0,0.0,360.0,3.0,0.0
7818,57.0,120.0,360.0,3.0,0.0
7819,77.0,240.0,240.0,1.0,0.0
7820,77.0,240.0,240.0,1.0,0.0
7821,55.0,0.0,480.0,5.0,0.0
7822,76.0,240.0,240.0,1.0,0.0
7823,74.0,120.0,240.0,1.0,0.0
7824,60.0,0.0,360.0,3.0,0.0
7825,58.0,120.0,360.0,3.0,0.0
7826,72.0,240.0,240.0,1.0,0.0
7827,72.0,240.0,240.0,1.0,0.0
7828,52.0,0.0,480.0,5.0,0.0
7829,70.0,240.0,240.0,1.0,0.0
7830,69.0,120.0,240.0,1.0,0.0
7831,58.0,0.0,360.0,3.0,0.0
7832,60.0,120.0,360.0,3.0,0.0
7833,67.0,240.0,240.0,1.0,0.0
7834,53.0,0.0,480.0,5.0,0.0
7835,65.0,240.0,240.0,1.0,0.0
7836,67.0,240.0,240.0,1.0,0.0
7837,57.0,120.0,360.0,3.0,0.0
7838,60.0,0.0,360.0,3.0,0.0
7839,69.0,120.0,240.0,1.0,0.0
7840,70.0,240.0,240.0,1.0,0.0
7841,72.0,120.0,240.0,1.0,0.0
7842,60.0,0.0,360.0,3.0,0.0
7843,57.0,120.0,360.0,3.0,0.0
7844,74.0,240.0,240.0,1.0,0.0
7845,76.0,120.0,240.0,1.0,0.0
7846,60.0,120.0,360.0,3.0,0.0
7847,57.0,0.0,360.0,3.0,0.0
7848,77.0,480.0,240.0,1.0,0.0
7849,48.0,0.0,480.0,5.0,0.0
7850,78.0,360.0,480.0,1.0,0.0
7851,58.0,0.0,360.0,3.0,0.0
7852,79.0,335.0,390.0,1.0,0.0
7853,52.0,25.0,360.0,3.0,0.0
7854,58.0,0.0,360.0,3.0,0.0
7855,72.0,120.0,240.0,1.0,0.0
7856,52.0,120.0,360.0,3.0,0.0
7857,70.0,240.0,240.0,1.0,0.0
7858,58.0,0.0,360.0,3.0,0.0
7859,69.0,120.0,240.0,1.0,0.0
7860,52.0,120.0,360.0,3.0,0.0
7861,67.0,240.0,240.0,1.0,0.0
7862,65.0,240.0,240.0,1.0,0.0
7863,53.0,240.0,480.0,5.0,0.0
7864,67.0,0.0,240.0,1.0,0.0
7865,69.0,120.0,240.0,1.0,0.0
7866,60.0,120.0,360.0,3.0,0.0
7867,57.0,0.0,360.0,3.0,0.0
7868,70.0,240.0,240.0,1.0,0.0
7869,60.0,0.0,360.0,3.0,0.0
7870,57.0,120.0,360.0,3.0,0.0
7871,72.0,120.0,240.0,1.0,0.0
7872,74.0,240.0,240.0,1.0,0.0
7873,76.0,120.0,240.0,1.0,0.0
7874,60.0,120.0,360.0,3.0,0.0
7875,57.0,0.0,360.0,3.0,0.0
7876,55.0,0.0,480.0,5.0,0.0
7877,77.0,240.0,15.0,1.0,0.0
7878,76.0,240.0,240.0,1.0,0.0
7879,60.0,0.0,360.0,3.0,0.0
7880,58.0,120.0,360.0,3.0,0.0
7881,74.0,120.0,240.0,1.0,0.0
7882,72.0,240.0,240.0,1.0,0.0
7883,72.0,240.0,240.0,1.0,0.0
7884,52.0,0.0,480.0,5.0,0.0
7885,70.0,240.0,240.0,1.0,0.0
7886,60.0,0.0,360.0,3.0,0.0
7887,69.0,120.0,240.0,1.0,0.0
7888,58.0,120.0,360.0,3.0,0.0
7889,67.0,240.0,240.0,1.0,0.0
7890,69.0,120.0,240.0,1.0,0.0
7891,53.0,120.0,360.0,5.0,0.0
7892,72.0,240.0,240.0,2.0,0.0
7893,50.0,120.0,360.0,5.0,0.0
7894,65.0,120.0,240.0,1.0,0.0
7895,69.0,240.0,240.0,2.0,0.0
7896,46.0,120.0,360.0,5.0,0.0
7897,67.0,120.0,240.0,1.0,0.0
7898,70.0,240.0,240.0,2.0,0.0
7899,48.0,120.0,360.0,5.0,0.0
7900,64.0,120.0,240.0,1.0,0.0
7901,67.0,360.0,240.0,2.0,0.0
7902,65.0,70.0,780.0,1.0,0.0
7903,41.0,410.0,360.0,5.0,0.0
7904,53.0,360.0,360.0,5.0,0.0
7905,81.0,240.0,240.0,1.0,0.0
7906,82.0,240.0,240.0,1.0,0.0
7907,81.0,240.0,240.0,1.0,0.0
7908,79.0,240.0,240.0,1.0,0.0
7909,50.0,0.0,480.0,5.0,0.0
7910,77.0,240.0,240.0,1.0,0.0
7911,79.0,240.0,240.0,1.0,0.0
7912,77.0,120.0,240.0,1.0,0.0
7913,57.0,0.0,360.0,3.0,0.0
7914,53.0,120.0,360.0,3.0,0.0
7915,76.0,240.0,240.0,1.0,0.0
7916,74.0,120.0,240.0,1.0,0.0
7917,57.0,0.0,360.0,3.0,0.0
7918,53.0,120.0,360.0,3.0,0.0
7919,77.0,240.0,240.0,1.0,0.0
7920,57.0,120.0,360.0,3.0,0.0
7921,53.0,0.0,360.0,3.0,0.0
7922,76.0,120.0,240.0,1.0,0.0
7923,74.0,240.0,240.0,1.0,0.0
7924,73.0,240.0,240.0,1.0,0.0
7925,52.0,240.0,480.0,5.0,0.0
7926,74.0,0.0,240.0,1.0,0.0
7927,76.0,120.0,240.0,1.0,0.0
7928,55.0,0.0,360.0,3.0,0.0
7929,57.0,120.0,360.0,3.0,0.0
7930,73.0,240.0,240.0,1.0,0.0
7931,69.0,120.0,240.0,1.0,0.0
7932,55.0,0.0,360.0,3.0,0.0
7933,57.0,120.0,360.0,3.0,0.0
7934,71.0,240.0,240.0,1.0,0.0
7935,73.0,120.0,240.0,1.0,0.0
7936,57.0,120.0,360.0,3.0,0.0
7937,55.0,0.0,360.0,3.0,0.0
7938,69.0,240.0,240.0,1.0,0.0
7939,74.0,240.0,240.0,1.0,0.0
7940,50.0,240.0,480.0,5.0,0.0
7941,73.0,0.0,240.0,1.0,0.0
7942,53.0,120.0,360.0,3.0,0.0
7943,57.0,0.0,360.0,3.0,0.0
7944,74.0,120.0,240.0,1.0,0.0
7945,76.0,240.0,240.0,1.0,0.0
7946,57.0,120.0,360.0,3.0,0.0
7947,77.0,120.0,240.0,1.0,0.0
7948,53.0,0.0,360.0,3.0,0.0
7949,76.0,240.0,240.0,1.0,0.0
7950,57.0,0.0,360.0,3.0,0.0
7951,53.0,120.0,360.0,3.0,0.0
7952,77.0,120.0,240.0,1.0,0.0
7953,79.0,240.0,240.0,1.0,0.0
7954,81.0,240.0,240.0,1.0,0.0
7955,45.0,240.0,480.0,5.0,0.0
7956,80.0,0.0,240.0,1.0,0.0
7957,57.0,0.0,360.0,3.0,0.0
7958,81.0,120.0,240.0,1.0,0.0
7959,52.0,120.0,360.0,5.0,0.0
7960,80.0,240.0,240.0,1.0,0.0
7961,51.0,0.0,360.0,5.0,0.0
7962,81.0,120.0,240.0,1.0,0.0
7963,57.0,120.0,360.0,3.0,0.0
7964,80.0,240.0,240.0,1.0,0.0
7965,57.0,120.0,360.0,3.0,0.0
7966,50.0,0.0,360.0,5.0,0.0
7967,81.0,120.0,240.0,1.0,0.0
7968,78.0,240.0,240.0,1.0,0.0
7969,82.0,240.0,240.0,1.0,0.0
7970,43.0,0.0,480.0,5.0,0.0
7971,81.0,240.0,240.0,1.0,0.0
7972,50.0,120.0,360.0,3.0,0.0
7973,82.0,120.0,240.0,1.0,0.0
7974,55.0,0.0,360.0,3.0,0.0
7975,81.0,240.0,240.0,1.0,0.0
7976,82.0,120.0,240.0,1.0,0.0
7977,55.0,120.0,360.0,3.0,0.0
7978,50.0,0.0,360.0,3.0,0.0
7979,81.0,240.0,240.0,1.0,0.0
7980,55.0,120.0,360.0,3.0,0.0
7981,82.0,120.0,240.0,1.0,0.0
7982,50.0,0.0,360.0,3.0,0.0
7983,81.0,240.0,240.0,1.0,0.0
7984,43.0,0.0,480.0,5.0,0.0
7985,82.0,240.0,240.0,1.0,0.0
7986,81.0,240.0,240.0,1.0,0.0
7987,52.0,120.0,360.0,3.0,0.0
7988,55.0,0.0,360.0,3.0,0.0
7989,79.0,120.0,240.0,1.0,0.0
7990,77.0,240.0,240.0,1.0,0.0
7991,55.0,120.0,360.0,3.0,0.0
7992,76.0,120.0,240.0,1.0,0.0
7993,52.0,0.0,360.0,3.0,0.0
7994,77.0,240.0,240.0,1.0,0.0
7995,52.0,0.0,360.0,3.0,0.0
7996,55.0,120.0,360.0,3.0,0.0
7997,79.0,120.0,240.0,1.0,0.0
7998,76.0,240.0,240.0,1.0,0.0
7999,77.0,240.0,240.0,1.0,0.0
8000,45.0,240.0,480.0,5.0,0.0
8001,79.0,0.0,240.0,1.0,0.0
8002,81.0,120.0,240.0,1.0,0.0
8003,50.0,120.0,360.0,3.0,0.0
8004,53.0,0.0,360.0,3.0,0.0
8005,74.0,240.0,240.0,1.0,0.0
8006,73.0,240.0,240.0,1.0,0.0
8007,45.0,240.0,480.0,5.0,0.0
8008,74.0,0.0,240.0,1.0,0.0
8009,76.0,120.0,240.0,1.0,0.0
8010,55.0,120.0,360.0,3.0,0.0
8011,52.0,0.0,360.0,3.0,0.0
8012,73.0,770.0,240.0,1.0,0.0
8013,50.0,240.0,960.0,5.0,0.0
8014,74.0,190.0,780.0,1.0,0.0
8015,53.0,0.0,960.0,3.0,0.0
8016,65.0,480.0,240.0,2.0,0.0
8017,77.0,0.0,240.0,1.0,0.0
8018,67.0,0.0,240.0,2.0,0.0
8019,79.0,320.0,240.0,1.0,0.0
8020,41.0,45.0,90.0,4.0,0.0
8021,69.0,0.0,960.0,2.0,0.0
8022,81.0,240.0,960.0,1.0,0.0
8023,45.0,40.0,90.0,3.0,0.0
8024,48.0,135.0,90.0,3.0,0.0
8025,53.0,420.0,180.0,3.0,0.0
8026,53.0,240.0,240.0,3.0,0.0
8027,65.0,480.0,240.0,2.0,0.0
8028,53.0,0.0,240.0,3.0,0.0
8029,77.0,0.0,240.0,1.0,0.0
8030,53.0,320.0,240.0,3.0,0.0
8031,79.0,0.0,240.0,1.0,0.0
8032,67.0,0.0,240.0,2.0,0.0
8033,81.0,0.0,240.0,1.0,0.0
8034,41.0,45.0,90.0,4.0,0.0
8035,69.0,60.0,240.0,2.0,0.0
8036,45.0,40.0,90.0,3.0,0.0
8037,48.0,75.0,90.0,3.0,0.0
8038,53.0,420.0,180.0,3.0,0.0
8039,53.0,480.0,240.0,3.0,0.0
8040,67.0,0.0,240.0,2.0,0.0
8041,79.0,0.0,240.0,1.0,0.0
8042,53.0,0.0,240.0,3.0,0.0
8043,77.0,480.0,240.0,1.0,0.0
8044,65.0,0.0,240.0,2.0,0.0
8045,76.0,0.0,240.0,1.0,0.0
8046,64.0,320.0,240.0,2.0,0.0
8047,53.0,0.0,240.0,3.0,0.0
8048,62.0,60.0,240.0,2.0,0.0
8049,74.0,0.0,240.0,1.0,0.0
8050,34.0,45.0,90.0,4.0,0.0
8051,38.0,30.0,90.0,3.0,0.0
8052,41.0,85.0,60.0,3.0,0.0
8053,46.0,420.0,180.0,3.0,0.0
8054,64.0,320.0,240.0,2.0,0.0
8055,76.0,0.0,240.0,1.0,0.0
8056,46.0,0.0,240.0,3.0,0.0
8057,77.0,65.0,240.0,1.0,0.0
8058,35.0,45.0,90.0,4.0,0.0
8059,65.0,0.0,240.0,2.0,0.0
8060,38.0,30.0,90.0,3.0,0.0
8061,41.0,85.0,60.0,3.0,0.0
8062,47.0,415.0,180.0,3.0,0.0
8063,79.0,0.0,240.0,1.0,0.0
8064,67.0,0.0,240.0,2.0,0.0
8065,47.0,330.0,240.0,3.0,0.0
8066,64.0,0.0,240.0,2.0,0.0
8067,76.0,65.0,240.0,1.0,0.0
8068,36.0,30.0,90.0,4.0,0.0
8069,40.0,45.0,90.0,3.0,0.0
8070,43.0,75.0,90.0,3.0,0.0
8071,48.0,415.0,180.0,3.0,0.0
8072,48.0,475.0,240.0,3.0,0.0
8073,60.0,0.0,240.0,2.0,0.0
8074,72.0,5.0,240.0,1.0,0.0
8075,65.0,0.0,240.0,2.0,0.0
8076,48.0,480.0,240.0,3.0,0.0
8077,77.0,0.0,240.0,1.0,0.0
8078,48.0,0.0,240.0,3.0,0.0
8079,79.0,320.0,240.0,1.0,0.0
8080,67.0,0.0,240.0,2.0,0.0
8081,81.0,240.0,960.0,1.0,0.0
8082,41.0,45.0,90.0,4.0,0.0
8083,69.0,0.0,960.0,2.0,0.0
8084,45.0,40.0,90.0,3.0,0.0
8085,48.0,140.0,90.0,3.0,0.0
8086,53.0,415.0,180.0,3.0,0.0
8087,53.0,240.0,240.0,3.0,0.0
8088,65.0,0.0,240.0,2.0,0.0
8089,53.0,0.0,240.0,3.0,0.0
8090,77.0,480.0,240.0,1.0,0.0
8091,79.0,320.0,240.0,1.0,0.0
8092,67.0,0.0,240.0,2.0,0.0
8093,53.0,0.0,240.0,3.0,0.0
8094,69.0,60.0,240.0,2.0,0.0
8095,81.0,0.0,240.0,1.0,0.0
8096,41.0,45.0,90.0,4.0,0.0
8097,45.0,40.0,90.0,3.0,0.0
8098,48.0,75.0,90.0,3.0,0.0
8099,53.0,420.0,180.0,3.0,0.0
8100,79.0,480.0,240.0,1.0,0.0
8101,53.0,0.0,240.0,3.0,0.0
8102,67.0,0.0,240.0,2.0,0.0
8103,77.0,0.0,240.0,1.0,0.0
8104,65.0,480.0,240.0,2.0,0.0
8105,53.0,0.0,240.0,3.0,0.0
8106,64.0,0.0,240.0,2.0,0.0
8107,76.0,0.0,240.0,1.0,0.0
8108,53.0,320.0,240.0,3.0,0.0
8109,62.0,0.0,240.0,2.0,0.0
8110,74.0,60.0,240.0,1.0,0.0
8111,34.0,45.0,90.0,4.0,0.0
8112,38.0,30.0,90.0,3.0,0.0
8113,41.0,85.0,60.0,3.0,0.0
8114,46.0,420.0,180.0,3.0,0.0
8115,67.0,0.0,240.0,2.0,0.0
8116,46.0,0.0,240.0,3.0,0.0
8117,79.0,330.0,240.0,1.0,0.0
8118,36.0,30.0,90.0,4.0,0.0
8119,76.0,60.0,240.0,1.0,0.0
8120,64.0,0.0,240.0,2.0,0.0
8121,40.0,45.0,90.0,3.0,0.0
8122,43.0,75.0,90.0,3.0,0.0
8123,48.0,420.0,180.0,3.0,0.0
8124,48.0,1135.0,240.0,3.0,0.0
8125,60.0,0.0,240.0,2.0,0.0
8126,72.0,5.0,240.0,1.0,0.0
8127,41.0,240.0,960.0,4.0,0.0
8128,65.0,5.0,900.0,2.0,0.0
8129,77.0,55.0,900.0,1.0,0.0
8130,65.0,480.0,240.0,2.0,0.0
8131,77.0,0.0,240.0,1.0,0.0
8132,67.0,320.0,240.0,2.0,0.0
8133,79.0,0.0,240.0,1.0,0.0
8134,69.0,0.0,960.0,2.0,0.0
8135,41.0,45.0,90.0,4.0,0.0
8136,81.0,240.0,960.0,1.0,0.0
8137,45.0,40.0,90.0,3.0,0.0
8138,48.0,135.0,90.0,3.0,0.0
8139,53.0,420.0,180.0,3.0,0.0
8140,53.0,240.0,240.0,3.0,0.0
8141,65.0,480.0,240.0,2.0,0.0
8142,53.0,0.0,240.0,3.0,0.0
8143,77.0,0.0,240.0,1.0,0.0
8144,79.0,0.0,240.0,1.0,0.0
8145,53.0,320.0,240.0,3.0,0.0
8146,67.0,0.0,240.0,2.0,0.0
8147,41.0,45.0,90.0,4.0,0.0
8148,81.0,0.0,240.0,1.0,0.0
8149,69.0,60.0,240.0,2.0,0.0
8150,45.0,40.0,90.0,3.0,0.0
8151,48.0,75.0,90.0,3.0,0.0
8152,53.0,420.0,180.0,3.0,0.0
8153,79.0,480.0,240.0,1.0,0.0
8154,67.0,0.0,240.0,2.0,0.0
8155,53.0,0.0,240.0,3.0,0.0
8156,53.0,0.0,240.0,3.0,0.0
8157,65.0,480.0,240.0,2.0,0.0
8158,77.0,0.0,240.0,1.0,0.0
8159,53.0,0.0,240.0,3.0,0.0
8160,76.0,320.0,240.0,1.0,0.0
8161,64.0,0.0,240.0,2.0,0.0
8162,34.0,45.0,90.0,4.0,0.0
8163,74.0,60.0,240.0,1.0,0.0
8164,62.0,0.0,240.0,2.0,0.0
8165,38.0,30.0,90.0,3.0,0.0
8166,41.0,85.0,60.0,3.0,0.0
8167,46.0,420.0,180.0,3.0,0.0
8168,64.0,0.0,240.0,2.0,0.0
8169,46.0,320.0,240.0,3.0,0.0
8170,76.0,0.0,240.0,1.0,0.0
8171,65.0,65.0,240.0,2.0,0.0
8172,35.0,45.0,90.0,4.0,0.0
8173,77.0,0.0,240.0,1.0,0.0
8174,38.0,30.0,90.0,3.0,0.0
8175,41.0,85.0,60.0,3.0,0.0
8176,47.0,415.0,180.0,3.0,0.0
8177,47.0,330.0,240.0,3.0,0.0
8178,79.0,0.0,240.0,1.0,0.0
8179,67.0,0.0,240.0,2.0,0.0
8180,76.0,0.0,240.0,1.0,0.0
8181,36.0,30.0,90.0,4.0,0.0
8182,64.0,65.0,240.0,2.0,0.0
8183,40.0,45.0,90.0,3.0,0.0
8184,43.0,75.0,90.0,3.0,0.0
8185,48.0,415.0,180.0,3.0,0.0
8186,60.0,5.0,240.0,2.0,0.0
8187,48.0,475.0,240.0,3.0,0.0
8188,72.0,0.0,240.0,1.0,0.0
8189,77.0,0.0,240.0,1.0,0.0
8190,48.0,0.0,240.0,3.0,0.0
8191,65.0,480.0,240.0,2.0,0.0
8192,48.0,320.0,240.0,3.0,0.0
8193,67.0,0.0,240.0,2.0,0.0
8194,79.0,0.0,240.0,1.0,0.0
8195,81.0,0.0,960.0,1.0,0.0
8196,41.0,45.0,90.0,4.0,0.0
8197,69.0,240.0,960.0,2.0,0.0
8198,45.0,40.0,90.0,3.0,0.0
8199,48.0,140.0,90.0,3.0,0.0
8200,53.0,415.0,180.0,3.0,0.0
8201,53.0,240.0,240.0,3.0,0.0
8202,53.0,480.0,240.0,3.0,0.0
8203,77.0,0.0,240.0,1.0,0.0
8204,65.0,0.0,240.0,2.0,0.0
8205,53.0,0.0,240.0,3.0,0.0
8206,67.0,320.0,240.0,2.0,0.0
8207,79.0,0.0,240.0,1.0,0.0
8208,81.0,0.0,240.0,1.0,0.0
8209,69.0,60.0,240.0,2.0,0.0
8210,41.0,45.0,90.0,4.0,0.0
8211,45.0,40.0,90.0,3.0,0.0
8212,48.0,75.0,90.0,3.0,0.0
8213,53.0,420.0,180.0,3.0,0.0
8214,53.0,0.0,240.0,3.0,0.0
8215,67.0,0.0,240.0,2.0,0.0
8216,79.0,480.0,240.0,1.0,0.0
8217,65.0,480.0,240.0,2.0,0.0
8218,53.0,0.0,240.0,3.0,0.0
8219,77.0,0.0,240.0,1.0,0.0
8220,76.0,0.0,240.0,1.0,0.0
8221,64.0,320.0,240.0,2.0,0.0
8222,53.0,0.0,240.0,3.0,0.0
8223,62.0,60.0,240.0,2.0,0.0
8224,74.0,0.0,240.0,1.0,0.0
8225,34.0,45.0,90.0,4.0,0.0
8226,38.0,30.0,90.0,3.0,0.0
8227,41.0,85.0,60.0,3.0,0.0
8228,46.0,420.0,180.0,3.0,0.0
8229,67.0,0.0,240.0,2.0,0.0
8230,79.0,0.0,240.0,1.0,0.0
8231,46.0,330.0,240.0,3.0,0.0
8232,64.0,0.0,240.0,2.0,0.0
8233,76.0,60.0,240.0,1.0,0.0
8234,36.0,30.0,90.0,4.0,0.0
8235,40.0,45.0,90.0,3.0,0.0
8236,43.0,75.0,90.0,3.0,0.0
8237,48.0,420.0,180.0,3.0,0.0
8238,48.0,1135.0,240.0,3.0,0.0
8239,60.0,0.0,240.0,2.0,0.0
8240,72.0,5.0,240.0,1.0,0.0
8241,77.0,55.0,900.0,1.0,0.0
8242,65.0,5.0,900.0,2.0,0.0
8243,41.0,240.0,960.0,4.0,0.0
8244,67.0,240.0,240.0,1.0,0.0
8245,65.0,240.0,240.0,1.0,0.0
8246,64.0,240.0,240.0,1.0,0.0
8247,65.0,480.0,240.0,1.0,0.0
8248,68.0,0.0,480.0,1.0,0.0
8249,53.0,360.0,480.0,5.0,0.0
8250,56.0,360.0,360.0,3.0,0.0
8251,60.0,0.0,360.0,3.0,0.0
8252,70.0,120.0,240.0,1.0,0.0
8253,56.0,120.0,360.0,3.0,0.0
8254,60.0,0.0,360.0,3.0,0.0
8255,68.0,240.0,240.0,1.0,0.0
8256,67.0,120.0,240.0,1.0,0.0
8257,56.0,120.0,360.0,3.0,0.0
8258,60.0,0.0,360.0,3.0,0.0
8259,68.0,480.0,240.0,1.0,0.0
8260,53.0,0.0,480.0,5.0,0.0
8261,72.0,360.0,480.0,1.0,0.0
8262,60.0,360.0,360.0,3.0,0.0
8263,56.0,0.0,360.0,3.0,0.0
8264,73.0,120.0,240.0,1.0,0.0
8265,60.0,120.0,360.0,3.0,0.0
8266,56.0,0.0,360.0,3.0,0.0
8267,72.0,240.0,240.0,1.0,0.0
8268,71.0,120.0,240.0,1.0,0.0
8269,60.0,120.0,360.0,3.0,0.0
8270,56.0,0.0,360.0,3.0,0.0
8271,72.0,240.0,240.0,1.0,0.0
8272,79.0,240.0,240.0,1.0,0.0
8273,53.0,240.0,480.0,5.0,0.0
8274,77.0,0.0,240.0,1.0,0.0
8275,56.0,120.0,360.0,3.0,0.0
8276,60.0,0.0,360.0,3.0,0.0
8277,76.0,120.0,240.0,1.0,0.0
8278,77.0,240.0,240.0,1.0,0.0
8279,53.0,240.0,480.0,5.0,0.0
8280,79.0,240.0,240.0,1.0,0.0
8281,77.0,0.0,240.0,1.0,0.0
8282,76.0,120.0,240.0,1.0,0.0
8283,56.0,120.0,360.0,3.0,0.0
8284,60.0,0.0,360.0,3.0,0.0
8285,77.0,480.0,240.0,1.0,0.0
8286,80.0,70.0,780.0,1.0,0.0
8287,53.0,290.0,480.0,5.0,0.0
8288,60.0,360.0,360.0,3.0,0.0
8289,56.0,0.0,360.0,3.0,0.0
8290,77.0,120.0,240.0,1.0,0.0
8291,56.0,360.0,360.0,3.0,0.0
8292,60.0,0.0,360.0,3.0,0.0
8293,60.0,200.0,360.0,3.0,0.0
8294,80.0,120.0,240.0,1.0,0.0
8295,56.0,0.0,360.0,3.0,0.0
8296,75.0,45.0,90.0,3.0,0.0
8297,48.0,240.0,480.0,5.0,0.0
8298,77.0,115.0,90.0,3.0,0.0
8299,79.0,240.0,150.0,1.0,0.0
8300,77.0,0.0,240.0,1.0,0.0
8301,74.0,120.0,240.0,2.0,0.0
8302,55.0,0.0,360.0,3.0,0.0
8303,60.0,360.0,360.0,3.0,0.0
8304,72.0,0.0,240.0,2.0,0.0
8305,75.0,120.0,240.0,1.0,0.0
8306,55.0,360.0,360.0,3.0,0.0
8307,60.0,0.0,360.0,3.0,0.0
8308,77.0,0.0,240.0,1.0,0.0
8309,74.0,120.0,240.0,2.0,0.0
8310,60.0,200.0,360.0,3.0,0.0
8311,55.0,0.0,360.0,3.0,0.0
8312,48.0,240.0,480.0,5.0,0.0
8313,75.0,40.0,90.0,3.0,0.0
8314,77.0,120.0,90.0,3.0,0.0
8315,79.0,240.0,150.0,1.0,0.0
8316,77.0,120.0,240.0,1.0,0.0
8317,60.0,0.0,360.0,3.0,0.0
8318,55.0,360.0,360.0,3.0,0.0
8319,74.0,0.0,240.0,2.0,0.0
8320,72.0,120.0,240.0,2.0,0.0
8321,75.0,0.0,240.0,1.0,0.0
8322,60.0,0.0,360.0,3.0,0.0
8323,55.0,360.0,360.0,3.0,0.0
8324,55.0,0.0,360.0,3.0,0.0
8325,60.0,200.0,360.0,3.0,0.0
8326,74.0,120.0,240.0,2.0,0.0
8327,77.0,0.0,240.0,1.0,0.0
8328,48.0,240.0,480.0,5.0,0.0
8329,75.0,30.0,90.0,3.0,0.0
8330,77.0,130.0,60.0,3.0,0.0
8331,79.0,240.0,150.0,1.0,0.0
8332,74.0,120.0,240.0,2.0,0.0
8333,77.0,0.0,240.0,1.0,0.0
8334,55.0,360.0,360.0,3.0,0.0
8335,60.0,0.0,360.0,3.0,0.0
8336,75.0,240.0,240.0,1.0,0.0
8337,43.0,240.0,480.0,5.0,0.0
8338,72.0,0.0,240.0,2.0,0.0
8339,55.0,1025.0,360.0,3.0,0.0
8340,71.0,0.0,240.0,2.0,0.0
8341,74.0,120.0,240.0,1.0,0.0
8342,72.0,55.0,900.0,1.0,0.0
8343,48.0,240.0,960.0,5.0,0.0
8344,67.0,240.0,240.0,1.0,0.0
8345,65.0,240.0,240.0,1.0,0.0
8346,64.0,240.0,240.0,1.0,0.0
8347,65.0,480.0,240.0,1.0,0.0
8348,53.0,0.0,480.0,5.0,0.0
8349,68.0,360.0,480.0,1.0,0.0
8350,60.0,0.0,360.0,3.0,0.0
8351,56.0,360.0,360.0,3.0,0.0
8352,60.0,120.0,360.0,3.0,0.0
8353,70.0,120.0,240.0,1.0,0.0
8354,56.0,0.0,360.0,3.0,0.0
8355,68.0,240.0,240.0,1.0,0.0
8356,67.0,120.0,240.0,1.0,0.0
8357,60.0,120.0,360.0,3.0,0.0
8358,56.0,0.0,360.0,3.0,0.0
8359,68.0,480.0,240.0,1.0,0.0
8360,53.0,0.0,480.0,5.0,0.0
8361,72.0,360.0,480.0,1.0,0.0
8362,56.0,360.0,360.0,3.0,0.0
8363,60.0,0.0,360.0,3.0,0.0
8364,60.0,120.0,360.0,3.0,0.0
8365,73.0,120.0,240.0,1.0,0.0
8366,56.0,0.0,360.0,3.0,0.0
8367,72.0,240.0,240.0,1.0,0.0
8368,56.0,120.0,360.0,3.0,0.0
8369,71.0,120.0,240.0,1.0,0.0
8370,60.0,0.0,360.0,3.0,0.0
8371,72.0,240.0,240.0,1.0,0.0
8372,79.0,240.0,240.0,1.0,0.0
8373,53.0,0.0,480.0,5.0,0.0
8374,77.0,240.0,240.0,1.0,0.0
8375,76.0,120.0,240.0,1.0,0.0
8376,56.0,120.0,360.0,3.0,0.0
8377,60.0,0.0,360.0,3.0,0.0
8378,77.0,240.0,240.0,1.0,0.0
8379,53.0,0.0,480.0,5.0,0.0
8380,79.0,240.0,240.0,1.0,0.0
8381,77.0,240.0,240.0,1.0,0.0
8382,60.0,120.0,360.0,3.0,0.0
8383,56.0,0.0,360.0,3.0,0.0
8384,76.0,120.0,240.0,1.0,0.0
8385,77.0,480.0,240.0,1.0,0.0
8386,53.0,290.0,480.0,5.0,0.0
8387,80.0,70.0,780.0,1.0,0.0
8388,56.0,0.0,360.0,3.0,0.0
8389,60.0,360.0,360.0,3.0,0.0
8390,77.0,120.0,240.0,1.0,0.0
8391,60.0,0.0,360.0,3.0,0.0
8392,56.0,360.0,360.0,3.0,0.0
8393,60.0,200.0,360.0,3.0,0.0
8394,80.0,120.0,240.0,1.0,0.0
8395,56.0,0.0,360.0,3.0,0.0
8396,75.0,45.0,90.0,3.0,0.0
8397,48.0,240.0,480.0,5.0,0.0
8398,77.0,115.0,90.0,3.0,0.0
8399,79.0,240.0,150.0,1.0,0.0
8400,77.0,0.0,240.0,1.0,0.0
8401,74.0,120.0,240.0,2.0,0.0
8402,55.0,0.0,360.0,3.0,0.0
8403,60.0,360.0,360.0,3.0,0.0
8404,60.0,0.0,360.0,3.0,0.0
8405,75.0,0.0,240.0,1.0,0.0
8406,55.0,360.0,360.0,3.0,0.0
8407,72.0,120.0,240.0,2.0,0.0
8408,60.0,200.0,360.0,3.0,0.0
8409,77.0,0.0,240.0,1.0,0.0
8410,55.0,0.0,360.0,3.0,0.0
8411,74.0,120.0,240.0,2.0,0.0
8412,48.0,240.0,480.0,5.0,0.0
8413,75.0,40.0,90.0,3.0,0.0
8414,77.0,120.0,90.0,3.0,0.0
8415,79.0,240.0,150.0,1.0,0.0
8416,60.0,0.0,360.0,3.0,0.0
8417,55.0,360.0,360.0,3.0,0.0
8418,74.0,120.0,240.0,2.0,0.0
8419,77.0,0.0,240.0,1.0,0.0
8420,55.0,360.0,360.0,3.0,0.0
8421,75.0,0.0,240.0,1.0,0.0
8422,72.0,120.0,240.0,2.0,0.0
8423,60.0,0.0,360.0,3.0,0.0
8424,77.0,120.0,240.0,1.0,0.0
8425,74.0,0.0,240.0,2.0,0.0
8426,60.0,200.0,360.0,3.0,0.0
8427,55.0,0.0,360.0,3.0,0.0
8428,75.0,30.0,90.0,3.0,0.0
8429,48.0,240.0,480.0,5.0,0.0
8430,77.0,130.0,60.0,3.0,0.0
8431,79.0,240.0,150.0,1.0,0.0
8432,55.0,360.0,360.0,3.0,0.0
8433,77.0,120.0,240.0,1.0,0.0
8434,74.0,0.0,240.0,2.0,0.0
8435,60.0,0.0,360.0,3.0,0.0
8436,75.0,0.0,240.0,1.0,0.0
8437,43.0,240.0,480.0,5.0,0.0
8438,72.0,240.0,240.0,2.0,0.0
8439,55.0,1025.0,360.0,3.0,0.0
8440,74.0,0.0,240.0,1.0,0.0
8441,71.0,120.0,240.0,2.0,0.0
8442,48.0,240.0,960.0,5.0,0.0
8443,72.0,55.0,900.0,1.0,0.0
8444,68.0,0.0,240.0,2.0,0.0
8445,72.0,480.0,240.0,1.0,0.0
8446,70.0,0.0,240.0,2.0,0.0
8447,73.0,480.0,240.0,1.0,0.0
8448,44.0,240.0,480.0,5.0,0.0
8449,72.0,240.0,240.0,2.0,0.0
8450,75.0,0.0,240.0,1.0,0.0
8451,75.0,120.0,240.0,1.0,0.0
8452,56.0,360.0,360.0,3.0,0.0
8453,72.0,0.0,240.0,2.0,0.0
8454,48.0,0.0,480.0,5.0,0.0
8455,77.0,240.0,240.0,1.0,0.0
8456,75.0,240.0,240.0,1.0,0.0
8457,60.0,120.0,360.0,3.0,0.0
8458,73.0,120.0,240.0,1.0,0.0
8459,72.0,480.0,240.0,1.0,0.0
8460,67.0,290.0,480.0,2.0,0.0
8461,70.0,300.0,900.0,1.0,0.0
8462,51.0,130.0,780.0,5.0,0.0
8463,63.0,0.0,420.0,2.0,0.0
8464,68.0,0.0,240.0,2.0,0.0
8465,72.0,480.0,240.0,1.0,0.0
8466,70.0,0.0,240.0,2.0,0.0
8467,73.0,480.0,240.0,1.0,0.0
8468,72.0,0.0,240.0,2.0,0.0
8469,75.0,145.0,240.0,1.0,0.0
8470,44.0,335.0,390.0,5.0,0.0
8471,75.0,120.0,240.0,1.0,0.0
8472,72.0,0.0,240.0,2.0,0.0
8473,56.0,360.0,360.0,3.0,0.0
8474,77.0,145.0,240.0,1.0,0.0
8475,48.0,95.0,390.0,5.0,0.0
8476,75.0,240.0,240.0,1.0,0.0
8477,60.0,120.0,360.0,3.0,0.0
8478,73.0,120.0,240.0,1.0,0.0
8479,72.0,480.0,240.0,1.0,0.0
8480,70.0,295.0,900.0,1.0,0.0
8481,67.0,290.0,480.0,2.0,0.0
8482,51.0,130.0,780.0,5.0,0.0
8483,63.0,5.0,420.0,2.0,0.0
8484,68.0,0.0,240.0,1.0,0.0
8485,65.0,480.0,240.0,2.0,0.0
8486,67.0,480.0,240.0,2.0,0.0
8487,70.0,0.0,240.0,1.0,0.0
8488,72.0,240.0,240.0,1.0,0.0
8489,41.0,240.0,480.0,5.0,0.0
8490,68.0,0.0,240.0,2.0,0.0
8491,72.0,0.0,240.0,1.0,0.0
8492,53.0,360.0,360.0,3.0,0.0
8493,68.0,120.0,240.0,2.0,0.0
8494,44.0,240.0,480.0,5.0,0.0
8495,73.0,240.0,240.0,1.0,0.0
8496,72.0,0.0,240.0,1.0,0.0
8497,70.0,120.0,240.0,1.0,0.0
8498,56.0,120.0,360.0,3.0,0.0
8499,68.0,480.0,240.0,1.0,0.0
8500,67.0,0.0,900.0,1.0,0.0
8501,64.0,290.0,480.0,2.0,0.0
8502,48.0,135.0,780.0,5.0,0.0
8503,60.0,295.0,420.0,2.0,0.0
8504,65.0,480.0,240.0,2.0,0.0
8505,68.0,0.0,240.0,1.0,0.0
8506,67.0,480.0,240.0,2.0,0.0
8507,70.0,0.0,240.0,1.0,0.0
8508,68.0,0.0,240.0,2.0,0.0
8509,41.0,335.0,390.0,5.0,0.0
8510,72.0,145.0,240.0,1.0,0.0
8511,53.0,360.0,360.0,3.0,0.0
8512,68.0,0.0,240.0,2.0,0.0
8513,72.0,120.0,240.0,1.0,0.0
8514,73.0,145.0,240.0,1.0,0.0
8515,44.0,95.0,390.0,5.0,0.0
8516,72.0,240.0,240.0,1.0,0.0
8517,56.0,120.0,360.0,3.0,0.0
8518,70.0,120.0,240.0,1.0,0.0
8519,68.0,480.0,240.0,1.0,0.0
8520,48.0,130.0,780.0,5.0,0.0
8521,64.0,290.0,480.0,2.0,0.0
8522,67.0,300.0,900.0,1.0,0.0
8523,60.0,0.0,420.0,2.0,0.0
8524,67.0,240.0,240.0,1.0,0.0
8525,65.0,240.0,240.0,1.0,0.0
8526,64.0,240.0,240.0,1.0,0.0
8527,65.0,480.0,240.0,1.0,0.0
8528,53.0,360.0,480.0,5.0,0.0
8529,68.0,0.0,480.0,1.0,0.0
8530,60.0,0.0,360.0,3.0,0.0
8531,56.0,360.0,360.0,3.0,0.0
8532,70.0,120.0,240.0,1.0,0.0
8533,60.0,0.0,360.0,3.0,0.0
8534,56.0,120.0,360.0,3.0,0.0
8535,68.0,240.0,240.0,1.0,0.0
8536,60.0,120.0,360.0,3.0,0.0
8537,56.0,0.0,360.0,3.0,0.0
8538,67.0,120.0,240.0,1.0,0.0
8539,68.0,480.0,240.0,1.0,0.0
8540,53.0,0.0,480.0,5.0,0.0
8541,72.0,360.0,480.0,1.0,0.0
8542,56.0,0.0,360.0,3.0,0.0
8543,60.0,360.0,360.0,3.0,0.0
8544,60.0,0.0,360.0,3.0,0.0
8545,73.0,120.0,240.0,1.0,0.0
8546,56.0,120.0,360.0,3.0,0.0
8547,72.0,240.0,240.0,1.0,0.0
8548,60.0,0.0,360.0,3.0,0.0
8549,56.0,120.0,360.0,3.0,0.0
8550,71.0,120.0,240.0,1.0,0.0
8551,72.0,240.0,240.0,1.0,0.0
8552,79.0,240.0,240.0,1.0,0.0
8553,53.0,240.0,480.0,5.0,0.0
8554,77.0,0.0,240.0,1.0,0.0
8555,56.0,0.0,360.0,3.0,0.0
8556,60.0,120.0,360.0,3.0,0.0
8557,76.0,120.0,240.0,1.0,0.0
8558,77.0,240.0,240.0,1.0,0.0
8559,79.0,240.0,240.0,1.0,0.0
8560,53.0,240.0,480.0,3.0,0.0
8561,77.0,0.0,240.0,1.0,0.0
8562,76.0,120.0,240.0,1.0,0.0
8563,56.0,120.0,360.0,3.0,0.0
8564,60.0,0.0,360.0,3.0,0.0
8565,77.0,480.0,240.0,1.0,0.0
8566,80.0,70.0,780.0,1.0,0.0
8567,49.0,290.0,480.0,5.0,0.0
8568,53.0,0.0,360.0,3.0,0.0
8569,59.0,360.0,360.0,3.0,0.0
8570,59.0,360.0,360.0,3.0,0.0
8571,53.0,0.0,360.0,3.0,0.0
8572,77.0,120.0,240.0,1.0,0.0
8573,53.0,0.0,360.0,3.0,0.0
8574,59.0,360.0,360.0,3.0,0.0
8575,79.0,120.0,240.0,1.0,0.0
8576,48.0,240.0,480.0,5.0,0.0
8577,80.0,240.0,240.0,1.0,0.0
8578,53.0,360.0,360.0,3.0,0.0
8579,60.0,0.0,360.0,3.0,0.0
8580,79.0,120.0,240.0,1.0,0.0
8581,46.0,240.0,480.0,5.0,0.0
8582,77.0,240.0,240.0,1.0,0.0
8583,55.0,360.0,360.0,3.0,0.0
8584,49.0,0.0,360.0,3.0,0.0
8585,76.0,120.0,240.0,1.0,0.0
8586,44.0,240.0,480.0,5.0,0.0
8587,77.0,240.0,240.0,1.0,0.0
8588,48.0,360.0,360.0,3.0,0.0
8589,72.0,120.0,240.0,1.0,0.0
8590,53.0,0.0,360.0,3.0,0.0
8591,46.0,240.0,480.0,5.0,0.0
8592,73.0,240.0,240.0,1.0,0.0
8593,55.0,0.0,360.0,3.0,0.0
8594,70.0,120.0,240.0,1.0,0.0
8595,49.0,480.0,360.0,3.0,0.0
8596,53.0,480.0,360.0,4.0,0.0
8597,68.0,120.0,960.0,1.0,0.0
8598,48.0,0.0,360.0,5.0,0.0
8599,48.0,0.0,360.0,5.0,0.0
8600,53.0,120.0,360.0,4.0,0.0
8601,48.0,120.0,360.0,5.0,0.0
8602,67.0,120.0,120.0,1.0,0.0
8603,52.0,0.0,360.0,4.0,0.0
8604,68.0,120.0,120.0,1.0,0.0
8605,67.0,0.0,120.0,1.0,0.0
8606,68.0,80.0,120.0,1.0,0.0
8607,67.0,80.0,90.0,1.0,0.0
8608,52.0,0.0,360.0,4.0,0.0
8609,48.0,120.0,360.0,5.0,0.0
8610,68.0,80.0,90.0,1.0,0.0
8611,67.0,120.0,90.0,1.0,0.0
8612,65.0,0.0,120.0,1.0,0.0
8613,67.0,905.0,120.0,1.0,0.0
8614,65.0,55.0,900.0,1.0,0.0
8615,53.0,240.0,960.0,4.0,0.0
8616,41.0,0.0,960.0,5.0,0.0
8617,72.0,0.0,240.0,1.0,0.0
8618,68.0,480.0,240.0,2.0,0.0
8619,73.0,480.0,240.0,1.0,0.0
8620,70.0,0.0,240.0,2.0,0.0
8621,44.0,240.0,480.0,5.0,0.0
8622,75.0,240.0,240.0,1.0,0.0
8623,72.0,0.0,240.0,2.0,0.0
8624,75.0,0.0,240.0,1.0,0.0
8625,72.0,120.0,240.0,2.0,0.0
8626,56.0,360.0,360.0,3.0,0.0
8627,77.0,240.0,240.0,1.0,0.0
8628,48.0,0.0,480.0,5.0,0.0
8629,75.0,240.0,240.0,1.0,0.0
8630,73.0,120.0,240.0,1.0,0.0
8631,60.0,120.0,360.0,3.0,0.0
8632,72.0,480.0,240.0,1.0,0.0
8633,67.0,290.0,480.0,2.0,0.0
8634,51.0,130.0,780.0,5.0,0.0
8635,70.0,300.0,900.0,1.0,0.0
8636,63.0,0.0,420.0,2.0,0.0
8637,72.0,0.0,240.0,1.0,0.0
8638,68.0,480.0,240.0,2.0,0.0
8639,73.0,0.0,240.0,1.0,0.0
8640,70.0,480.0,240.0,2.0,0.0
8641,72.0,0.0,240.0,2.0,0.0
8642,75.0,145.0,240.0,1.0,0.0
8643,44.0,335.0,390.0,5.0,0.0
8644,56.0,360.0,360.0,3.0,0.0
8645,75.0,0.0,240.0,1.0,0.0
8646,72.0,120.0,240.0,2.0,0.0
8647,77.0,145.0,240.0,1.0,0.0
8648,48.0,95.0,390.0,5.0,0.0
8649,75.0,240.0,240.0,1.0,0.0
8650,60.0,120.0,360.0,3.0,0.0
8651,73.0,120.0,240.0,1.0,0.0
8652,72.0,480.0,240.0,1.0,0.0
8653,51.0,130.0,780.0,5.0,0.0
8654,67.0,290.0,480.0,2.0,0.0
8655,70.0,295.0,900.0,1.0,0.0
8656,63.0,5.0,420.0,2.0,0.0
8657,68.0,480.0,240.0,1.0,0.0
8658,65.0,0.0,240.0,2.0,0.0
8659,70.0,0.0,240.0,1.0,0.0
8660,67.0,480.0,240.0,2.0,0.0
8661,72.0,240.0,240.0,1.0,0.0
8662,41.0,240.0,480.0,5.0,0.0
8663,68.0,0.0,240.0,2.0,0.0
8664,53.0,360.0,360.0,3.0,0.0
8665,68.0,0.0,240.0,2.0,0.0
8666,72.0,120.0,240.0,1.0,0.0
8667,44.0,240.0,480.0,5.0,0.0
8668,73.0,240.0,240.0,1.0,0.0
8669,72.0,0.0,240.0,1.0,0.0
8670,70.0,120.0,240.0,1.0,0.0
8671,56.0,120.0,360.0,3.0,0.0
8672,68.0,480.0,240.0,1.0,0.0
8673,64.0,290.0,480.0,2.0,0.0
8674,48.0,135.0,780.0,5.0,0.0
8675,67.0,295.0,900.0,1.0,0.0
8676,60.0,0.0,420.0,2.0,0.0
8677,65.0,0.0,240.0,2.0,0.0
8678,68.0,480.0,240.0,1.0,0.0
8679,67.0,0.0,240.0,2.0,0.0
8680,70.0,480.0,240.0,1.0,0.0
8681,68.0,145.0,240.0,2.0,0.0
8682,41.0,335.0,390.0,5.0,0.0
8683,72.0,0.0,240.0,1.0,0.0
8684,72.0,120.0,240.0,1.0,0.0
8685,68.0,0.0,240.0,2.0,0.0
8686,53.0,360.0,360.0,3.0,0.0
8687,44.0,95.0,390.0,5.0,0.0
8688,73.0,145.0,240.0,1.0,0.0
8689,72.0,240.0,240.0,1.0,0.0
8690,70.0,120.0,240.0,1.0,0.0
8691,56.0,120.0,360.0,3.0,0.0
8692,68.0,480.0,240.0,1.0,0.0
8693,64.0,290.0,480.0,2.0,0.0
8694,48.0,130.0,780.0,5.0,0.0
8695,67.0,0.0,900.0,1.0,0.0
8696,60.0,300.0,420.0,2.0,0.0
8697,67.0,240.0,240.0,1.0,0.0
8698,65.0,240.0,240.0,1.0,0.0
8699,64.0,240.0,240.0,1.0,0.0
8700,65.0,480.0,240.0,1.0,0.0
8701,68.0,360.0,480.0,1.0,0.0
8702,53.0,0.0,480.0,5.0,0.0
8703,60.0,0.0,360.0,3.0,0.0
8704,56.0,360.0,360.0,3.0,0.0
8705,56.0,120.0,360.0,3.0,0.0
8706,60.0,0.0,360.0,3.0,0.0
8707,70.0,120.0,240.0,1.0,0.0
8708,68.0,240.0,240.0,1.0,0.0
8709,67.0,120.0,240.0,1.0,0.0
8710,56.0,0.0,360.0,3.0,0.0
8711,60.0,120.0,360.0,3.0,0.0
8712,68.0,480.0,240.0,1.0,0.0
8713,53.0,0.0,480.0,5.0,0.0
8714,72.0,360.0,480.0,1.0,0.0
8715,60.0,360.0,360.0,3.0,0.0
8716,56.0,0.0,360.0,3.0,0.0
8717,56.0,120.0,360.0,3.0,0.0
8718,73.0,120.0,240.0,1.0,0.0
8719,60.0,0.0,360.0,3.0,0.0
8720,72.0,240.0,240.0,1.0,0.0
8721,71.0,120.0,240.0,1.0,0.0
8722,56.0,120.0,360.0,3.0,0.0
8723,60.0,0.0,360.0,3.0,0.0
8724,72.0,240.0,240.0,1.0,0.0
8725,53.0,0.0,480.0,5.0,0.0
8726,79.0,240.0,240.0,1.0,0.0
8727,77.0,240.0,240.0,1.0,0.0
8728,76.0,120.0,240.0,1.0,0.0
8729,56.0,120.0,360.0,3.0,0.0
8730,60.0,0.0,360.0,3.0,0.0
8731,77.0,240.0,240.0,1.0,0.0
8732,53.0,0.0,480.0,3.0,0.0
8733,79.0,240.0,240.0,1.0,0.0
8734,77.0,240.0,240.0,1.0,0.0
8735,56.0,120.0,360.0,3.0,0.0
8736,60.0,0.0,360.0,3.0,0.0
8737,76.0,120.0,240.0,1.0,0.0
8738,77.0,480.0,240.0,1.0,0.0
8739,49.0,290.0,480.0,5.0,0.0
8740,80.0,70.0,780.0,1.0,0.0
8741,59.0,360.0,360.0,3.0,0.0
8742,53.0,0.0,360.0,3.0,0.0
8743,77.0,120.0,240.0,1.0,0.0
8744,53.0,360.0,360.0,3.0,0.0
8745,59.0,0.0,360.0,3.0,0.0
8746,79.0,120.0,240.0,1.0,0.0
8747,53.0,0.0,360.0,3.0,0.0
8748,59.0,360.0,360.0,3.0,0.0
8749,48.0,240.0,480.0,5.0,0.0
8750,80.0,240.0,240.0,1.0,0.0
8751,53.0,360.0,360.0,3.0,0.0
8752,79.0,120.0,240.0,1.0,0.0
8753,60.0,0.0,360.0,3.0,0.0
8754,77.0,240.0,240.0,1.0,0.0
8755,46.0,240.0,480.0,5.0,0.0
8756,49.0,360.0,360.0,3.0,0.0
8757,55.0,0.0,360.0,3.0,0.0
8758,76.0,120.0,240.0,1.0,0.0
8759,77.0,240.0,240.0,1.0,0.0
8760,44.0,240.0,480.0,5.0,0.0
8761,72.0,120.0,240.0,1.0,0.0
8762,53.0,0.0,360.0,3.0,0.0
8763,48.0,360.0,360.0,3.0,0.0
8764,46.0,240.0,480.0,5.0,0.0
8765,73.0,240.0,240.0,1.0,0.0
8766,70.0,120.0,240.0,1.0,0.0
8767,55.0,0.0,360.0,3.0,0.0
8768,49.0,480.0,360.0,3.0,0.0
8769,48.0,0.0,360.0,5.0,0.0
8770,68.0,120.0,960.0,1.0,0.0
8771,53.0,480.0,360.0,4.0,0.0
8772,48.0,0.0,360.0,5.0,0.0
8773,53.0,120.0,360.0,4.0,0.0
8774,67.0,120.0,120.0,1.0,0.0
8775,48.0,120.0,360.0,5.0,0.0
8776,52.0,0.0,360.0,4.0,0.0
8777,68.0,120.0,120.0,1.0,0.0
8778,67.0,0.0,120.0,1.0,0.0
8779,68.0,80.0,120.0,1.0,0.0
8780,52.0,0.0,360.0,4.0,0.0
8781,67.0,80.0,90.0,1.0,0.0
8782,48.0,0.0,360.0,5.0,0.0
8783,68.0,80.0,90.0,1.0,0.0
8784,67.0,120.0,90.0,1.0,0.0
8785,65.0,120.0,120.0,1.0,0.0
8786,67.0,905.0,120.0,1.0,0.0
8787,41.0,0.0,960.0,5.0,0.0
8788,65.0,55.0,900.0,1.0,0.0
8789,53.0,240.0,960.0,4.0,0.0
8790,65.0,240.0,240.0,1.0,0.0
8791,77.0,240.0,240.0,2.0,0.0
8792,67.0,240.0,240.0,1.0,0.0
8793,79.0,1.0,240.0,2.0,0.0
8794,69.0,79.0,15.0,1.0,0.0
8795,41.0,65.0,90.0,4.0,0.0
8796,45.0,60.0,90.0,3.0,0.0
8797,48.0,155.0,90.0,3.0,0.0
8798,53.0,360.0,180.0,3.0,0.0
8799,81.0,475.0,480.0,2.0,0.0
8800,53.0,5.0,240.0,3.0,0.0
8801,53.0,240.0,240.0,3.0,0.0
8802,65.0,0.0,240.0,1.0,0.0
8803,77.0,240.0,240.0,2.0,0.0
8804,67.0,240.0,240.0,1.0,0.0
8805,53.0,0.0,240.0,3.0,0.0
8806,79.0,80.0,240.0,2.0,0.0
8807,41.0,65.0,90.0,4.0,0.0
8808,69.0,120.0,240.0,1.0,0.0
8809,45.0,60.0,90.0,3.0,0.0
8810,48.0,35.0,90.0,3.0,0.0
8811,53.0,120.0,180.0,3.0,0.0
8812,81.0,240.0,240.0,2.0,0.0
8813,67.0,0.0,240.0,1.0,0.0
8814,53.0,240.0,240.0,3.0,0.0
8815,79.0,240.0,240.0,2.0,0.0
8816,65.0,0.0,240.0,1.0,0.0
8817,53.0,240.0,240.0,3.0,0.0
8818,77.0,240.0,240.0,2.0,0.0
8819,64.0,240.0,240.0,1.0,0.0
8820,53.0,0.0,240.0,3.0,0.0
8821,76.0,80.0,240.0,2.0,0.0
8822,62.0,120.0,240.0,1.0,0.0
8823,34.0,65.0,90.0,4.0,0.0
8824,38.0,50.0,90.0,3.0,0.0
8825,41.0,45.0,60.0,3.0,0.0
8826,46.0,120.0,180.0,3.0,0.0
8827,74.0,240.0,240.0,2.0,0.0
8828,46.0,240.0,240.0,3.0,0.0
8829,64.0,0.0,240.0,1.0,0.0
8830,76.0,80.0,240.0,2.0,0.0
8831,65.0,125.0,240.0,1.0,0.0
8832,35.0,65.0,90.0,4.0,0.0
8833,38.0,50.0,90.0,3.0,0.0
8834,41.0,45.0,60.0,3.0,0.0
8835,47.0,115.0,180.0,3.0,0.0
8836,77.0,240.0,240.0,2.0,0.0
8837,67.0,240.0,240.0,1.0,0.0
8838,47.0,0.0,240.0,3.0,0.0
8839,79.0,90.0,240.0,2.0,0.0
8840,64.0,125.0,240.0,1.0,0.0
8841,36.0,50.0,90.0,4.0,0.0
8842,40.0,65.0,90.0,3.0,0.0
8843,43.0,35.0,90.0,3.0,0.0
8844,48.0,115.0,180.0,3.0,0.0
8845,76.0,240.0,240.0,2.0,0.0
8846,60.0,5.0,240.0,1.0,0.0
8847,48.0,235.0,240.0,3.0,0.0
8848,72.0,240.0,240.0,2.0,0.0
8849,65.0,0.0,240.0,1.0,0.0
8850,48.0,240.0,240.0,3.0,0.0
8851,77.0,240.0,240.0,2.0,0.0
8852,67.0,240.0,240.0,1.0,0.0
8853,48.0,0.0,240.0,3.0,0.0
8854,79.0,80.0,240.0,2.0,0.0
8855,41.0,65.0,90.0,4.0,0.0
8856,69.0,240.0,480.0,1.0,0.0
8857,45.0,60.0,90.0,3.0,0.0
8858,48.0,160.0,90.0,3.0,0.0
8859,53.0,115.0,180.0,3.0,0.0
8860,81.0,480.0,480.0,2.0,0.0
8861,53.0,0.0,240.0,3.0,0.0
8862,65.0,0.0,240.0,1.0,0.0
8863,53.0,240.0,240.0,3.0,0.0
8864,77.0,240.0,240.0,2.0,0.0
8865,67.0,0.0,240.0,1.0,0.0
8866,53.0,240.0,240.0,3.0,0.0
8867,79.0,80.0,240.0,2.0,0.0
8868,69.0,120.0,240.0,1.0,0.0
8869,41.0,65.0,90.0,4.0,0.0
8870,45.0,60.0,90.0,3.0,0.0
8871,48.0,35.0,90.0,3.0,0.0
8872,53.0,120.0,180.0,3.0,0.0
8873,81.0,240.0,240.0,2.0,0.0
8874,67.0,240.0,240.0,1.0,0.0
8875,53.0,0.0,240.0,3.0,0.0
8876,79.0,240.0,240.0,2.0,0.0
8877,65.0,240.0,240.0,1.0,0.0
8878,53.0,0.0,240.0,3.0,0.0
8879,77.0,240.0,240.0,2.0,0.0
8880,53.0,0.0,240.0,3.0,0.0
8881,64.0,240.0,240.0,1.0,0.0
8882,76.0,80.0,240.0,2.0,0.0
8883,34.0,65.0,90.0,4.0,0.0
8884,62.0,120.0,240.0,1.0,0.0
8885,38.0,50.0,90.0,3.0,0.0
8886,41.0,45.0,60.0,3.0,0.0
8887,46.0,120.0,180.0,3.0,0.0
8888,74.0,240.0,240.0,2.0,0.0
8889,67.0,240.0,240.0,1.0,0.0
8890,46.0,0.0,240.0,3.0,0.0
8891,79.0,90.0,240.0,2.0,0.0
8892,36.0,50.0,90.0,4.0,0.0
8893,64.0,120.0,240.0,1.0,0.0
8894,40.0,65.0,90.0,3.0,0.0
8895,43.0,35.0,90.0,3.0,0.0
8896,48.0,120.0,180.0,3.0,0.0
8897,76.0,165.0,240.0,2.0,0.0
8898,48.0,75.0,180.0,3.0,0.0
8899,60.0,240.0,240.0,1.0,0.0
8900,72.0,385.0,240.0,2.0,0.0
8901,65.0,295.0,900.0,1.0,0.0
8902,41.0,500.0,390.0,4.0,0.0
8903,77.0,20.0,900.0,2.0,0.0
8904,65.0,240.0,240.0,1.0,0.0
8905,77.0,240.0,240.0,2.0,0.0
8906,67.0,240.0,240.0,1.0,0.0
8907,79.0,1.0,240.0,2.0,0.0
8908,41.0,65.0,90.0,4.0,0.0
8909,69.0,79.0,15.0,1.0,0.0
8910,45.0,60.0,90.0,3.0,0.0
8911,48.0,155.0,90.0,3.0,0.0
8912,53.0,360.0,180.0,3.0,0.0
8913,81.0,475.0,480.0,2.0,0.0
8914,53.0,5.0,240.0,3.0,0.0
8915,65.0,0.0,240.0,1.0,0.0
8916,53.0,240.0,240.0,3.0,0.0
8917,77.0,240.0,240.0,2.0,0.0
8918,53.0,0.0,240.0,3.0,0.0
8919,67.0,240.0,240.0,1.0,0.0
8920,79.0,80.0,240.0,2.0,0.0
8921,69.0,120.0,240.0,1.0,0.0
8922,41.0,65.0,90.0,4.0,0.0
8923,45.0,60.0,90.0,3.0,0.0
8924,48.0,35.0,90.0,3.0,0.0
8925,53.0,120.0,180.0,3.0,0.0
8926,81.0,240.0,240.0,2.0,0.0
8927,67.0,0.0,240.0,1.0,0.0
8928,53.0,240.0,240.0,3.0,0.0
8929,79.0,240.0,240.0,2.0,0.0
8930,65.0,240.0,240.0,1.0,0.0
8931,53.0,0.0,240.0,3.0,0.0
8932,77.0,240.0,240.0,2.0,0.0
8933,53.0,240.0,240.0,3.0,0.0
8934,64.0,0.0,240.0,1.0,0.0
8935,76.0,80.0,240.0,2.0,0.0
8936,62.0,120.0,240.0,1.0,0.0
8937,34.0,65.0,90.0,4.0,0.0
8938,38.0,50.0,90.0,3.0,0.0
8939,41.0,45.0,60.0,3.0,0.0
8940,46.0,120.0,180.0,3.0,0.0
8941,74.0,240.0,240.0,2.0,0.0
8942,46.0,0.0,240.0,3.0,0.0
8943,64.0,240.0,240.0,1.0,0.0
8944,76.0,80.0,240.0,2.0,0.0
8945,35.0,65.0,90.0,4.0,0.0
8946,65.0,125.0,240.0,1.0,0.0
8947,38.0,50.0,90.0,3.0,0.0
8948,41.0,45.0,60.0,3.0,0.0
8949,47.0,115.0,180.0,3.0,0.0
8950,77.0,240.0,240.0,2.0,0.0
8951,67.0,240.0,240.0,1.0,0.0
8952,47.0,0.0,240.0,3.0,0.0
8953,79.0,90.0,240.0,2.0,0.0
8954,64.0,125.0,240.0,1.0,0.0
8955,36.0,50.0,90.0,4.0,0.0
8956,40.0,65.0,90.0,3.0,0.0
8957,43.0,35.0,90.0,3.0,0.0
8958,48.0,115.0,180.0,3.0,0.0
8959,76.0,240.0,240.0,2.0,0.0
8960,60.0,5.0,240.0,1.0,0.0
8961,48.0,235.0,240.0,3.0,0.0
8962,72.0,240.0,240.0,2.0,0.0
8963,65.0,0.0,240.0,1.0,0.0
8964,48.0,240.0,240.0,3.0,0.0
8965,77.0,240.0,240.0,2.0,0.0
8966,48.0,0.0,240.0,3.0,0.0
8967,67.0,240.0,240.0,1.0,0.0
8968,79.0,80.0,240.0,2.0,0.0
8969,41.0,65.0,90.0,4.0,0.0
8970,69.0,240.0,480.0,1.0,0.0
8971,45.0,60.0,90.0,3.0,0.0
8972,48.0,160.0,90.0,3.0,0.0
8973,53.0,115.0,180.0,3.0,0.0
8974,81.0,480.0,480.0,2.0,0.0
8975,53.0,0.0,240.0,3.0,0.0
8976,65.0,240.0,240.0,1.0,0.0
8977,53.0,0.0,240.0,3.0,0.0
8978,77.0,240.0,240.0,2.0,0.0
8979,53.0,0.0,240.0,3.0,0.0
8980,67.0,240.0,240.0,1.0,0.0
8981,79.0,80.0,240.0,2.0,0.0
8982,41.0,65.0,90.0,4.0,0.0
8983,69.0,120.0,240.0,1.0,0.0
8984,45.0,60.0,90.0,3.0,0.0
8985,48.0,35.0,90.0,3.0,0.0
8986,53.0,120.0,180.0,3.0,0.0
8987,81.0,240.0,240.0,2.0,0.0
8988,67.0,240.0,240.0,1.0,0.0
8989,53.0,0.0,240.0,3.0,0.0
8990,79.0,240.0,240.0,2.0,0.0
8991,53.0,240.0,240.0,3.0,0.0
8992,65.0,0.0,240.0,1.0,0.0
8993,77.0,240.0,240.0,2.0,0.0
8994,64.0,0.0,240.0,1.0,0.0
8995,53.0,240.0,240.0,3.0,0.0
8996,76.0,80.0,240.0,2.0,0.0
8997,62.0,120.0,240.0,1.0,0.0
8998,34.0,65.0,90.0,4.0,0.0
8999,38.0,50.0,90.0,3.0,0.0
9000,41.0,45.0,60.0,3.0,0.0
9001,46.0,120.0,180.0,3.0,0.0
9002,74.0,240.0,240.0,2.0,0.0
9003,67.0,0.0,240.0,1.0,0.0
9004,46.0,240.0,240.0,3.0,0.0
9005,79.0,90.0,240.0,2.0,0.0
9006,36.0,50.0,90.0,4.0,0.0
9007,64.0,120.0,240.0,1.0,0.0
9008,40.0,65.0,90.0,3.0,0.0
9009,43.0,35.0,90.0,3.0,0.0
9010,48.0,120.0,180.0,3.0,0.0
9011,76.0,240.0,240.0,2.0,0.0
9012,48.0,235.0,240.0,3.0,0.0
9013,60.0,5.0,240.0,1.0,0.0
9014,72.0,80.0,240.0,2.0,0.0
9015,77.0,0.0,960.0,2.0,0.0
9016,41.0,65.0,90.0,4.0,0.0
9017,65.0,240.0,960.0,1.0,0.0
9018,45.0,60.0,90.0,3.0,0.0
9019,48.0,160.0,90.0,3.0,0.0
9020,53.0,355.0,180.0,3.0,0.0
9021,53.0,240.0,240.0,3.0,0.0
9022,69.0,80.0,960.0,2.0,0.0
9023,81.0,120.0,600.0,1.0,0.0
9024,53.0,360.0,240.0,3.0,0.0
9025,53.0,240.0,240.0,3.0,0.0
9026,81.0,0.0,240.0,1.0,0.0
9027,69.0,25.0,120.0,2.0,0.0
9028,41.0,40.0,90.0,4.0,0.0
9029,72.0,40.0,120.0,2.0,0.0
9030,45.0,15.0,90.0,3.0,0.0
9031,77.0,5.0,120.0,2.0,0.0
9032,48.0,35.0,90.0,3.0,0.0
9033,81.0,120.0,120.0,1.0,0.0
9034,53.0,360.0,180.0,3.0,0.0
9035,53.0,480.0,240.0,3.0,0.0
9036,53.0,480.0,240.0,3.0,0.0
9037,53.0,320.0,240.0,3.0,0.0
9038,41.0,40.0,90.0,4.0,0.0
9039,69.0,5.0,120.0,2.0,0.0
9040,72.0,5.0,120.0,2.0,0.0
9041,45.0,35.0,90.0,3.0,0.0
9042,77.0,40.0,120.0,2.0,0.0
9043,48.0,35.0,90.0,3.0,0.0
9044,53.0,415.0,180.0,3.0,0.0
9045,81.0,65.0,120.0,1.0,0.0
9046,53.0,480.0,240.0,3.0,0.0
9047,53.0,480.0,240.0,3.0,0.0
9048,53.0,320.0,240.0,3.0,0.0
9049,82.0,120.0,240.0,1.0,0.0
9050,41.0,65.0,90.0,4.0,0.0
9051,45.0,60.0,90.0,3.0,0.0
9052,48.0,35.0,90.0,3.0,0.0
9053,53.0,35.0,180.0,3.0,0.0
9054,81.0,240.0,150.0,1.0,0.0
9055,53.0,155.0,240.0,3.0,0.0
9056,79.0,85.0,150.0,1.0,0.0
9057,81.0,325.0,150.0,1.0,0.0
9058,53.0,155.0,240.0,3.0,0.0
9059,82.0,0.0,240.0,1.0,0.0
9060,81.0,240.0,150.0,1.0,0.0
9061,79.0,85.0,150.0,1.0,0.0
9062,53.0,155.0,240.0,3.0,0.0
9063,81.0,165.0,150.0,1.0,0.0
9064,82.0,10.0,1860.0,1.0,0.0
9065,74.0,0.0,1860.0,2.0,0.0
9066,77.0,135.0,1860.0,2.0,0.0
9067,34.0,65.0,90.0,4.0,0.0
9068,38.0,50.0,90.0,3.0,0.0
9069,41.0,165.0,60.0,3.0,0.0
9070,46.0,360.0,180.0,3.0,0.0
9071,46.0,480.0,240.0,3.0,0.0
9072,46.0,480.0,240.0,3.0,0.0
9073,46.0,170.0,240.0,3.0,0.0
9074,77.0,0.0,300.0,2.0,0.0
9075,41.0,65.0,90.0,4.0,0.0
9076,82.0,5.0,60.0,1.0,0.0
9077,72.0,60.0,300.0,2.0,0.0
9078,81.0,0.0,270.0,1.0,0.0
9079,45.0,60.0,90.0,3.0,0.0
9080,48.0,95.0,90.0,3.0,0.0
9081,53.0,195.0,180.0,3.0,0.0
9082,77.0,0.0,300.0,2.0,0.0
9083,72.0,255.0,300.0,2.0,0.0
9084,82.0,165.0,60.0,1.0,0.0
9085,53.0,60.0,240.0,3.0,0.0
9086,81.0,5.0,270.0,1.0,0.0
9087,53.0,60.0,240.0,3.0,0.0
9088,82.0,160.0,90.0,1.0,0.0
9089,72.0,250.0,300.0,2.0,0.0
9090,77.0,5.0,300.0,2.0,0.0
9091,81.0,0.0,270.0,1.0,0.0
9092,82.0,165.0,60.0,1.0,0.0
9093,77.0,0.0,300.0,2.0,0.0
9094,72.0,5.0,300.0,2.0,0.0
9095,53.0,60.0,240.0,3.0,0.0
9096,81.0,265.0,270.0,1.0,0.0
9097,36.0,50.0,90.0,4.0,0.0
9098,76.0,250.0,1440.0,2.0,0.0
9099,72.0,5.0,1440.0,2.0,0.0
9100,79.0,0.0,1440.0,1.0,0.0
9101,40.0,65.0,90.0,3.0,0.0
9102,43.0,155.0,90.0,3.0,0.0
9103,48.0,365.0,180.0,3.0,0.0
9104,48.0,475.0,240.0,3.0,0.0
9105,48.0,225.0,240.0,3.0,0.0
9106,48.0,240.0,240.0,3.0,0.0
9107,84.0,80.0,480.0,1.0,0.0
9108,41.0,40.0,90.0,4.0,0.0
9109,69.0,25.0,120.0,2.0,0.0
9110,72.0,40.0,120.0,2.0,0.0
9111,45.0,15.0,90.0,3.0,0.0
9112,77.0,5.0,120.0,2.0,0.0
9113,48.0,35.0,90.0,3.0,0.0
9114,81.0,120.0,120.0,1.0,0.0
9115,53.0,360.0,180.0,3.0,0.0
9116,53.0,480.0,240.0,3.0,0.0
9117,53.0,480.0,240.0,3.0,0.0
9118,53.0,320.0,240.0,3.0,0.0
9119,69.0,25.0,120.0,2.0,0.0
9120,41.0,40.0,90.0,4.0,0.0
9121,72.0,40.0,120.0,2.0,0.0
9122,45.0,15.0,90.0,3.0,0.0
9123,77.0,5.0,120.0,2.0,0.0
9124,81.0,125.0,120.0,1.0,0.0
9125,48.0,35.0,90.0,3.0,0.0
9126,53.0,355.0,180.0,3.0,0.0
9127,53.0,480.0,240.0,3.0,0.0
9128,53.0,480.0,240.0,3.0,0.0
9129,53.0,320.0,240.0,3.0,0.0
9130,41.0,65.0,90.0,4.0,0.0
9131,82.0,120.0,240.0,1.0,0.0
9132,45.0,60.0,90.0,3.0,0.0
9133,48.0,35.0,90.0,3.0,0.0
9134,53.0,35.0,180.0,3.0,0.0
9135,81.0,240.0,150.0,1.0,0.0
9136,79.0,85.0,150.0,1.0,0.0
9137,53.0,155.0,240.0,3.0,0.0
9138,81.0,325.0,150.0,1.0,0.0
9139,53.0,155.0,240.0,3.0,0.0
9140,82.0,0.0,240.0,1.0,0.0
9141,81.0,240.0,150.0,1.0,0.0
9142,53.0,155.0,240.0,3.0,0.0
9143,79.0,85.0,150.0,1.0,0.0
9144,81.0,165.0,150.0,1.0,0.0
9145,77.0,0.0,1890.0,2.0,0.0
9146,74.0,105.0,1890.0,2.0,0.0
9147,34.0,65.0,90.0,4.0,0.0
9148,82.0,15.0,1890.0,1.0,0.0
9149,38.0,50.0,90.0,3.0,0.0
9150,41.0,165.0,60.0,3.0,0.0
9151,46.0,360.0,180.0,3.0,0.0
9152,46.0,480.0,240.0,3.0,0.0
9153,46.0,480.0,240.0,3.0,0.0
9154,46.0,200.0,240.0,3.0,0.0
9155,82.0,0.0,90.0,1.0,0.0
9156,77.0,195.0,1800.0,2.0,0.0
9157,72.0,5.0,1800.0,2.0,0.0
9158,41.0,45.0,90.0,4.0,0.0
9159,81.0,0.0,1770.0,1.0,0.0
9160,45.0,40.0,90.0,3.0,0.0
9161,48.0,135.0,90.0,3.0,0.0
9162,53.0,420.0,180.0,3.0,0.0
9163,53.0,480.0,240.0,3.0,0.0
9164,53.0,480.0,240.0,3.0,0.0
9165,53.0,120.0,240.0,3.0,0.0
9166,72.0,55.0,300.0,2.0,0.0
9167,36.0,50.0,90.0,4.0,0.0
9168,81.0,10.0,90.0,1.0,0.0
9169,76.0,5.0,300.0,2.0,0.0
9170,79.0,0.0,270.0,1.0,0.0
9171,40.0,65.0,90.0,3.0,0.0
9172,43.0,95.0,90.0,3.0,0.0
9173,48.0,195.0,180.0,3.0,0.0
9174,48.0,60.0,240.0,3.0,0.0
9175,76.0,255.0,300.0,2.0,0.0
9176,81.0,170.0,60.0,1.0,0.0
9177,72.0,0.0,300.0,2.0,0.0
9178,79.0,0.0,270.0,1.0,0.0
9179,76.0,250.0,300.0,2.0,0.0
9180,72.0,0.0,300.0,2.0,0.0
9181,81.0,160.0,90.0,1.0,0.0
9182,48.0,60.0,240.0,3.0,0.0
9183,79.0,5.0,270.0,1.0,0.0
9184,76.0,0.0,300.0,2.0,0.0
9185,72.0,560.0,300.0,2.0,0.0
9186,48.0,60.0,240.0,3.0,0.0
9187,81.0,165.0,60.0,1.0,0.0
9188,79.0,5.0,270.0,1.0,0.0
9189,53.0,240.0,480.0,4.0,0.0
9190,77.0,95.0,390.0,1.0,0.0
9191,60.0,0.0,240.0,3.0,0.0
9192,57.0,240.0,240.0,3.0,0.0
9193,60.0,40.0,240.0,3.0,0.0
9194,53.0,240.0,480.0,4.0,0.0
9195,72.0,40.0,30.0,2.0,0.0
9196,77.0,40.0,30.0,2.0,0.0
9197,81.0,360.0,30.0,1.0,0.0
9198,60.0,0.0,240.0,3.0,0.0
9199,57.0,240.0,240.0,3.0,0.0
9200,60.0,40.0,240.0,3.0,0.0
9201,81.0,0.0,240.0,1.0,0.0
9202,72.0,40.0,30.0,2.0,0.0
9203,53.0,240.0,480.0,4.0,0.0
9204,77.0,40.0,30.0,2.0,0.0
9205,81.0,360.0,30.0,1.0,0.0
9206,60.0,0.0,240.0,3.0,0.0
9207,57.0,240.0,240.0,3.0,0.0
9208,60.0,480.0,240.0,3.0,0.0
9209,53.0,240.0,480.0,4.0,0.0
9210,60.0,0.0,240.0,3.0,0.0
9211,57.0,240.0,240.0,3.0,0.0
9212,60.0,40.0,240.0,3.0,0.0
9213,53.0,240.0,480.0,4.0,0.0
9214,72.0,40.0,30.0,2.0,0.0
9215,77.0,40.0,30.0,2.0,0.0
9216,81.0,360.0,30.0,1.0,0.0
9217,60.0,0.0,240.0,3.0,0.0
9218,57.0,240.0,240.0,3.0,0.0
9219,60.0,480.0,240.0,3.0,0.0
9220,53.0,240.0,480.0,4.0,0.0
9221,60.0,0.0,240.0,3.0,0.0
9222,57.0,240.0,240.0,3.0,0.0
9223,60.0,240.0,240.0,3.0,0.0
9224,82.0,190.0,240.0,1.0,0.0
9225,53.0,0.0,480.0,4.0,0.0
9226,81.0,50.0,180.0,1.0,0.0
9227,60.0,190.0,240.0,3.0,0.0
9228,57.0,190.0,240.0,3.0,0.0
9229,79.0,50.0,180.0,1.0,0.0
9230,60.0,240.0,240.0,3.0,0.0
9231,81.0,50.0,180.0,1.0,0.0
9232,53.0,240.0,480.0,4.0,0.0
9233,82.0,240.0,240.0,1.0,0.0
9234,60.0,0.0,240.0,3.0,0.0
9235,81.0,0.0,240.0,1.0,0.0
9236,79.0,240.0,240.0,1.0,0.0
9237,57.0,0.0,240.0,3.0,0.0
9238,81.0,480.0,240.0,1.0,0.0
9239,60.0,0.0,240.0,3.0,0.0
9240,82.0,40.0,1890.0,1.0,0.0
9241,53.0,0.0,480.0,4.0,0.0
9242,62.0,240.0,240.0,3.0,0.0
9243,58.0,240.0,240.0,3.0,0.0
9244,62.0,480.0,240.0,3.0,0.0
9245,53.0,240.0,480.0,4.0,0.0
9246,62.0,0.0,240.0,3.0,0.0
9247,58.0,200.0,240.0,3.0,0.0
9248,62.0,75.0,240.0,3.0,0.0
9249,53.0,75.0,480.0,4.0,0.0
9250,82.0,230.0,60.0,1.0,0.0
9251,81.0,175.0,270.0,1.0,0.0
9252,60.0,0.0,240.0,3.0,0.0
9253,82.0,165.0,60.0,1.0,0.0
9254,57.0,60.0,240.0,3.0,0.0
9255,81.0,180.0,270.0,1.0,0.0
9256,60.0,80.0,240.0,3.0,0.0
9257,82.0,225.0,90.0,1.0,0.0
9258,53.0,0.0,480.0,4.0,0.0
9259,81.0,175.0,270.0,1.0,0.0
9260,60.0,75.0,240.0,3.0,0.0
9261,57.0,65.0,240.0,3.0,0.0
9262,82.0,165.0,60.0,1.0,0.0
9263,81.0,175.0,270.0,1.0,0.0
9264,60.0,480.0,240.0,3.0,0.0
9265,79.0,240.0,1440.0,1.0,0.0
9266,48.0,0.0,480.0,4.0,0.0
9267,60.0,240.0,240.0,3.0,0.0
9268,55.0,240.0,240.0,3.0,0.0
9269,60.0,480.0,240.0,3.0,0.0
9270,48.0,0.0,480.0,4.0,0.0
9271,60.0,0.0,240.0,3.0,0.0
9272,55.0,240.0,240.0,3.0,0.0
9273,84.0,0.0,480.0,1.0,0.0
9274,60.0,80.0,240.0,3.0,0.0
9275,41.0,40.0,90.0,4.0,0.0
9276,69.0,25.0,120.0,2.0,0.0
9277,72.0,40.0,120.0,2.0,0.0
9278,45.0,15.0,90.0,3.0,0.0
9279,77.0,5.0,120.0,2.0,0.0
9280,81.0,120.0,120.0,1.0,0.0
9281,48.0,35.0,90.0,3.0,0.0
9282,53.0,360.0,180.0,3.0,0.0
9283,53.0,480.0,240.0,3.0,0.0
9284,53.0,480.0,240.0,3.0,0.0
9285,53.0,320.0,240.0,3.0,0.0
9286,41.0,40.0,90.0,4.0,0.0
9287,69.0,25.0,120.0,2.0,0.0
9288,72.0,40.0,120.0,2.0,0.0
9289,45.0,15.0,90.0,3.0,0.0
9290,77.0,5.0,120.0,2.0,0.0
9291,48.0,35.0,90.0,3.0,0.0
9292,81.0,125.0,120.0,1.0,0.0
9293,53.0,355.0,180.0,3.0,0.0
9294,53.0,480.0,240.0,3.0,0.0
9295,53.0,480.0,240.0,3.0,0.0
9296,53.0,320.0,240.0,3.0,0.0
9297,82.0,60.0,240.0,1.0,0.0
9298,41.0,45.0,90.0,4.0,0.0
9299,45.0,40.0,90.0,3.0,0.0
9300,48.0,75.0,90.0,3.0,0.0
9301,53.0,95.0,180.0,3.0,0.0
9302,81.0,240.0,150.0,1.0,0.0
9303,79.0,85.0,150.0,1.0,0.0
9304,53.0,155.0,240.0,3.0,0.0
9305,81.0,325.0,150.0,1.0,0.0
9306,53.0,0.0,240.0,3.0,0.0
9307,82.0,155.0,240.0,1.0,0.0
9308,81.0,240.0,150.0,1.0,0.0
9309,79.0,85.0,150.0,1.0,0.0
9310,53.0,155.0,240.0,3.0,0.0
9311,81.0,165.0,150.0,1.0,0.0
9312,82.0,120.0,1890.0,1.0,0.0
9313,34.0,65.0,90.0,4.0,0.0
9314,74.0,0.0,1860.0,2.0,0.0
9315,77.0,5.0,1860.0,2.0,0.0
9316,38.0,50.0,90.0,3.0,0.0
9317,41.0,165.0,60.0,3.0,0.0
9318,46.0,360.0,180.0,3.0,0.0
9319,46.0,480.0,240.0,3.0,0.0
9320,46.0,480.0,240.0,3.0,0.0
9321,46.0,195.0,240.0,3.0,0.0
9322,72.0,195.0,1800.0,2.0,0.0
9323,82.0,65.0,90.0,1.0,0.0
9324,77.0,5.0,1800.0,2.0,0.0
9325,41.0,0.0,90.0,4.0,0.0
9326,81.0,0.0,1740.0,1.0,0.0
9327,45.0,60.0,90.0,3.0,0.0
9328,48.0,155.0,90.0,3.0,0.0
9329,53.0,360.0,180.0,3.0,0.0
9330,53.0,480.0,240.0,3.0,0.0
9331,53.0,480.0,240.0,3.0,0.0
9332,53.0,120.0,240.0,3.0,0.0
9333,81.0,10.0,90.0,1.0,0.0
9334,72.0,0.0,300.0,2.0,0.0
9335,76.0,5.0,300.0,2.0,0.0
9336,36.0,50.0,90.0,4.0,0.0
9337,79.0,55.0,270.0,1.0,0.0
9338,40.0,65.0,90.0,3.0,0.0
9339,43.0,95.0,90.0,3.0,0.0
9340,48.0,195.0,180.0,3.0,0.0
9341,72.0,255.0,300.0,2.0,0.0
9342,48.0,55.0,240.0,3.0,0.0
9343,76.0,5.0,300.0,2.0,0.0
9344,81.0,170.0,60.0,1.0,0.0
9345,79.0,0.0,270.0,1.0,0.0
9346,81.0,160.0,90.0,1.0,0.0
9347,48.0,60.0,240.0,3.0,0.0
9348,76.0,250.0,300.0,2.0,0.0
9349,72.0,0.0,300.0,2.0,0.0
9350,79.0,5.0,270.0,1.0,0.0
9351,81.0,165.0,60.0,1.0,0.0
9352,76.0,255.0,300.0,2.0,0.0
9353,48.0,65.0,240.0,3.0,0.0
9354,72.0,0.0,300.0,2.0,0.0
9355,79.0,0.0,270.0,1.0,0.0
9356,72.0,0.0,1140.0,2.0,0.0
9357,65.0,0.0,1140.0,2.0,0.0
9358,69.0,50.0,1140.0,2.0,0.0
9359,41.0,65.0,90.0,4.0,0.0
9360,77.0,0.0,1140.0,1.0,0.0
9361,45.0,60.0,90.0,3.0,0.0
9362,48.0,155.0,90.0,3.0,0.0
9363,53.0,360.0,180.0,3.0,0.0
9364,53.0,430.0,240.0,3.0,0.0
9365,53.0,480.0,240.0,3.0,0.0
9366,81.0,175.0,390.0,1.0,0.0
9367,53.0,145.0,240.0,3.0,0.0
9368,69.0,0.0,390.0,2.0,0.0
9369,65.0,50.0,1140.0,2.0,0.0
9370,77.0,0.0,1140.0,1.0,0.0
9371,41.0,65.0,90.0,4.0,0.0
9372,45.0,60.0,90.0,3.0,0.0
9373,48.0,160.0,90.0,3.0,0.0
9374,53.0,355.0,180.0,3.0,0.0
9375,53.0,430.0,240.0,3.0,0.0
9376,53.0,480.0,240.0,3.0,0.0
9377,53.0,145.0,240.0,3.0,0.0
9378,84.0,0.0,390.0,1.0,0.0
9379,72.0,175.0,390.0,2.0,0.0
9380,41.0,65.0,90.0,4.0,0.0
9381,65.0,50.0,1140.0,2.0,0.0
9382,77.0,0.0,1140.0,1.0,0.0
9383,45.0,60.0,90.0,3.0,0.0
9384,48.0,155.0,90.0,3.0,0.0
9385,53.0,360.0,180.0,3.0,0.0
9386,53.0,430.0,240.0,3.0,0.0
9387,53.0,480.0,240.0,3.0,0.0
9388,53.0,145.0,240.0,3.0,0.0
9389,81.0,175.0,390.0,1.0,0.0
9390,69.0,0.0,390.0,2.0,0.0
9391,41.0,65.0,90.0,4.0,0.0
9392,77.0,335.0,390.0,1.0,0.0
9393,65.0,0.0,390.0,2.0,0.0
9394,45.0,60.0,90.0,3.0,0.0
9395,48.0,155.0,90.0,3.0,0.0
9396,53.0,25.0,180.0,3.0,0.0
9397,53.0,145.0,240.0,3.0,0.0
9398,81.0,0.0,390.0,1.0,0.0
9399,69.0,175.0,390.0,2.0,0.0
9400,65.0,0.0,390.0,2.0,0.0
9401,77.0,335.0,390.0,1.0,0.0
9402,41.0,65.0,90.0,4.0,0.0
9403,45.0,60.0,90.0,3.0,0.0
9404,48.0,155.0,90.0,3.0,0.0
9405,53.0,25.0,180.0,3.0,0.0
9406,81.0,745.0,390.0,1.0,0.0
9407,69.0,0.0,390.0,2.0,0.0
9408,53.0,145.0,240.0,3.0,0.0
9409,41.0,0.0,660.0,5.0,0.0
9410,65.0,0.0,660.0,2.0,0.0
9411,53.0,935.0,660.0,4.0,0.0
9412,77.0,0.0,660.0,1.0,0.0
9413,69.0,0.0,630.0,2.0,0.0
9414,72.0,0.0,630.0,2.0,0.0
9415,77.0,0.0,630.0,1.0,0.0
9416,53.0,1105.0,630.0,4.0,0.0
9417,65.0,0.0,630.0,2.0,0.0
9418,41.0,0.0,630.0,5.0,0.0
9419,48.0,0.0,630.0,4.0,0.0
9420,77.0,0.0,780.0,1.0,0.0
9421,41.0,0.0,780.0,5.0,0.0
9422,53.0,0.0,780.0,4.0,0.0
9423,48.0,0.0,780.0,4.0,0.0
9424,72.0,0.0,780.0,2.0,0.0
9425,69.0,0.0,780.0,2.0,0.0
9426,65.0,0.0,780.0,2.0,0.0
