,note,step,duration,channel,velocity
0,75.0,120.0,60.0,10.0,0.0
1,76.0,168.0,60.0,10.0,0.0
2,63.0,0.0,120.0,11.0,0.0
3,78.0,72.0,120.0,10.0,0.0
4,66.0,72.0,120.0,11.0,0.0
5,76.0,48.0,60.0,10.0,0.0
6,63.0,72.0,120.0,11.0,0.0
7,75.0,48.0,60.0,10.0,0.0
8,66.0,120.0,120.0,11.0,0.0
9,73.0,48.0,60.0,10.0,0.0
10,71.0,96.0,150.0,10.0,0.0
11,63.0,24.0,120.0,11.0,0.0
12,66.0,120.0,120.0,11.0,0.0
13,73.0,72.0,150.0,10.0,0.0
14,63.0,24.0,120.0,11.0,0.0
15,66.0,144.0,90.0,11.0,0.0
16,66.0,24.0,570.0,10.0,0.0
17,64.0,120.0,120.0,11.0,0.0
18,66.0,120.0,120.0,11.0,0.0
19,64.0,120.0,120.0,11.0,0.0
20,66.0,96.0,120.0,11.0,0.0
21,64.0,120.0,120.0,11.0,0.0
22,66.0,96.0,120.0,11.0,0.0
23,68.0,24.0,90.0,10.0,0.0
24,64.0,96.0,120.0,11.0,0.0
25,70.0,144.0,90.0,10.0,0.0
26,66.0,0.0,90.0,11.0,0.0
27,71.0,72.0,120.0,10.0,0.0
28,63.0,0.0,120.0,11.0,0.0
29,66.0,72.0,120.0,11.0,0.0
30,70.0,48.0,60.0,10.0,0.0
31,63.0,72.0,120.0,11.0,0.0
32,68.0,48.0,60.0,10.0,0.0
33,66.0,48.0,60.0,10.0,0.0
34,66.0,96.0,120.0,11.0,0.0
35,64.0,24.0,90.0,10.0,0.0
36,58.0,96.0,120.0,11.0,0.0
37,66.0,96.0,120.0,11.0,0.0
38,63.0,24.0,90.0,10.0,0.0
39,58.0,96.0,120.0,11.0,0.0
40,64.0,24.0,90.0,10.0,0.0
41,66.0,0.0,90.0,10.0,0.0
42,66.0,144.0,90.0,11.0,0.0
43,59.0,120.0,120.0,11.0,0.0
44,63.0,24.0,570.0,10.0,0.0
45,66.0,120.0,120.0,11.0,0.0
46,59.0,120.0,120.0,11.0,0.0
47,66.0,96.0,120.0,11.0,0.0
48,59.0,120.0,120.0,11.0,0.0
49,66.0,96.0,120.0,11.0,0.0
50,59.0,96.0,120.0,11.0,0.0
51,64.0,24.0,90.0,10.0,0.0
52,66.0,0.0,90.0,11.0,0.0
53,66.0,144.0,90.0,10.0,0.0
54,52.0,72.0,120.0,11.0,0.0
55,68.0,48.0,180.0,10.0,0.0
56,61.0,96.0,120.0,11.0,0.0
57,70.0,24.0,90.0,10.0,0.0
58,52.0,96.0,120.0,11.0,0.0
59,61.0,120.0,120.0,11.0,0.0
60,71.0,24.0,90.0,10.0,0.0
61,73.0,0.0,120.0,10.0,0.0
62,52.0,96.0,120.0,11.0,0.0
63,75.0,24.0,90.0,10.0,0.0
64,61.0,72.0,120.0,11.0,0.0
65,76.0,48.0,60.0,10.0,0.0
66,52.0,72.0,120.0,11.0,0.0
67,61.0,144.0,90.0,11.0,0.0
68,73.0,24.0,60.0,10.0,0.0
69,71.0,0.0,120.0,10.0,0.0
70,52.0,96.0,120.0,11.0,0.0
71,70.0,24.0,90.0,10.0,0.0
72,61.0,72.0,120.0,11.0,0.0
73,52.0,72.0,120.0,11.0,0.0
74,68.0,48.0,60.0,10.0,0.0
75,61.0,120.0,120.0,11.0,0.0
76,66.0,48.0,60.0,10.0,0.0
77,52.0,72.0,120.0,11.0,0.0
78,71.0,48.0,180.0,10.0,0.0
79,59.0,96.0,120.0,11.0,0.0
80,73.0,24.0,90.0,10.0,0.0
81,52.0,96.0,120.0,11.0,0.0
82,75.0,144.0,90.0,10.0,0.0
83,59.0,0.0,90.0,11.0,0.0
84,76.0,96.0,150.0,10.0,0.0
85,58.0,24.0,120.0,11.0,0.0
86,66.0,120.0,120.0,11.0,0.0
87,58.0,24.0,120.0,11.0,0.0
88,76.0,96.0,150.0,10.0,0.0
89,66.0,120.0,120.0,11.0,0.0
90,75.0,96.0,150.0,10.0,0.0
91,59.0,24.0,120.0,11.0,0.0
92,66.0,120.0,120.0,11.0,0.0
93,75.0,72.0,150.0,10.0,0.0
94,59.0,24.0,120.0,11.0,0.0
95,66.0,144.0,90.0,11.0,0.0
96,73.0,96.0,120.0,10.0,0.0
97,54.0,48.0,390.0,11.0,0.0
98,70.0,96.0,90.0,10.0,0.0
99,71.0,72.0,60.0,10.0,0.0
100,68.0,192.0,60.0,10.0,0.0
101,66.0,168.0,150.0,10.0,0.0
102,75.0,120.0,60.0,10.0,0.0
103,63.0,0.0,60.0,11.0,0.0
104,76.0,0.0,60.0,10.0,0.0
105,64.0,168.0,60.0,11.0,0.0
106,39.0,0.0,180.0,14.0,0.0
107,66.0,0.0,120.0,11.0,0.0
108,51.0,0.0,120.0,12.0,0.0
109,51.0,0.0,780.0,3.0,0.0
110,71.0,0.0,390.0,4.0,0.0
111,59.0,72.0,780.0,3.0,0.0
112,71.0,0.0,720.0,1.0,0.0
113,83.0,0.0,720.0,0.0,0.0
114,78.0,72.0,120.0,10.0,0.0
115,59.0,48.0,390.0,4.0,0.0
116,47.0,0.0,390.0,5.0,0.0
117,59.0,0.0,720.0,2.0,0.0
118,51.0,0.0,120.0,13.0,0.0
119,64.0,0.0,60.0,11.0,0.0
120,76.0,48.0,60.0,10.0,0.0
121,54.0,72.0,120.0,12.0,0.0
122,54.0,0.0,120.0,13.0,0.0
123,75.0,0.0,60.0,10.0,0.0
124,51.0,0.0,120.0,13.0,0.0
125,63.0,48.0,60.0,11.0,0.0
126,51.0,24.0,120.0,12.0,0.0
127,39.0,0.0,180.0,14.0,0.0
128,73.0,48.0,60.0,10.0,0.0
129,54.0,0.0,120.0,13.0,0.0
130,61.0,0.0,60.0,11.0,0.0
131,54.0,120.0,120.0,12.0,0.0
132,39.0,48.0,180.0,14.0,0.0
133,59.0,48.0,150.0,11.0,0.0
134,51.0,24.0,120.0,13.0,0.0
135,51.0,0.0,120.0,12.0,0.0
136,71.0,0.0,150.0,10.0,0.0
137,54.0,48.0,120.0,13.0,0.0
138,54.0,0.0,120.0,12.0,0.0
139,51.0,24.0,120.0,12.0,0.0
140,73.0,0.0,180.0,1.0,0.0
141,39.0,0.0,180.0,14.0,0.0
142,85.0,0.0,180.0,0.0,0.0
143,51.0,0.0,120.0,13.0,0.0
144,73.0,0.0,150.0,10.0,0.0
145,61.0,48.0,150.0,11.0,0.0
146,61.0,24.0,180.0,2.0,0.0
147,54.0,144.0,90.0,13.0,0.0
148,54.0,0.0,90.0,12.0,0.0
149,54.0,0.0,390.0,4.0,0.0
150,54.0,48.0,780.0,3.0,0.0
151,52.0,0.0,120.0,12.0,0.0
152,54.0,0.0,720.0,2.0,0.0
153,66.0,48.0,390.0,4.0,0.0
154,61.0,0.0,780.0,3.0,0.0
155,66.0,0.0,720.0,1.0,0.0
156,52.0,72.0,120.0,13.0,0.0
157,66.0,0.0,570.0,10.0,0.0
158,42.0,0.0,390.0,5.0,0.0
159,40.0,48.0,180.0,14.0,0.0
160,54.0,24.0,570.0,11.0,0.0
161,78.0,48.0,720.0,0.0,0.0
162,54.0,0.0,120.0,12.0,0.0
163,54.0,120.0,120.0,13.0,0.0
164,40.0,48.0,180.0,14.0,0.0
165,52.0,24.0,120.0,12.0,0.0
166,52.0,0.0,120.0,13.0,0.0
167,54.0,0.0,120.0,13.0,0.0
168,54.0,96.0,120.0,12.0,0.0
169,40.0,48.0,180.0,14.0,0.0
170,52.0,0.0,120.0,13.0,0.0
171,52.0,72.0,120.0,12.0,0.0
172,54.0,0.0,120.0,13.0,0.0
173,54.0,0.0,120.0,12.0,0.0
174,52.0,0.0,120.0,12.0,0.0
175,56.0,0.0,120.0,2.0,0.0
176,40.0,24.0,180.0,14.0,0.0
177,68.0,0.0,120.0,1.0,0.0
178,80.0,0.0,120.0,0.0,0.0
179,52.0,72.0,120.0,13.0,0.0
180,68.0,24.0,90.0,10.0,0.0
181,56.0,0.0,90.0,11.0,0.0
182,82.0,0.0,90.0,0.0,0.0
183,70.0,0.0,90.0,1.0,0.0
184,58.0,0.0,90.0,2.0,0.0
185,54.0,0.0,90.0,12.0,0.0
186,54.0,0.0,90.0,13.0,0.0
187,70.0,0.0,90.0,10.0,0.0
188,58.0,144.0,90.0,11.0,0.0
189,51.0,0.0,120.0,13.0,0.0
190,66.0,0.0,390.0,4.0,0.0
191,47.0,0.0,390.0,5.0,0.0
192,54.0,48.0,390.0,4.0,0.0
193,39.0,0.0,180.0,14.0,0.0
194,83.0,0.0,120.0,0.0,0.0
195,71.0,0.0,120.0,1.0,0.0
196,59.0,72.0,120.0,11.0,0.0
197,59.0,0.0,120.0,2.0,0.0
198,51.0,0.0,120.0,12.0,0.0
199,63.0,0.0,180.0,3.0,0.0
200,59.0,48.0,180.0,3.0,0.0
201,71.0,0.0,120.0,10.0,0.0
202,82.0,72.0,120.0,0.0,0.0
203,58.0,0.0,120.0,2.0,0.0
204,70.0,0.0,120.0,1.0,0.0
205,70.0,0.0,60.0,10.0,0.0
206,54.0,0.0,120.0,13.0,0.0
207,58.0,0.0,60.0,11.0,0.0
208,54.0,0.0,120.0,12.0,0.0
209,59.0,0.0,180.0,3.0,0.0
210,56.0,24.0,120.0,2.0,0.0
211,63.0,0.0,180.0,3.0,0.0
212,68.0,0.0,120.0,1.0,0.0
213,51.0,0.0,120.0,13.0,0.0
214,68.0,0.0,60.0,10.0,0.0
215,39.0,48.0,180.0,14.0,0.0
216,56.0,48.0,60.0,11.0,0.0
217,80.0,0.0,120.0,0.0,0.0
218,51.0,0.0,120.0,12.0,0.0
219,54.0,0.0,120.0,12.0,0.0
220,66.0,0.0,60.0,10.0,0.0
221,66.0,0.0,120.0,1.0,0.0
222,54.0,0.0,120.0,13.0,0.0
223,54.0,96.0,120.0,2.0,0.0
224,78.0,0.0,120.0,0.0,0.0
225,54.0,0.0,60.0,11.0,0.0
226,52.0,24.0,90.0,11.0,0.0
227,66.0,48.0,390.0,4.0,0.0
228,42.0,0.0,390.0,5.0,0.0
229,61.0,24.0,180.0,3.0,0.0
230,54.0,0.0,180.0,3.0,0.0
231,76.0,0.0,120.0,0.0,0.0
232,64.0,0.0,120.0,1.0,0.0
233,46.0,72.0,120.0,12.0,0.0
234,34.0,0.0,180.0,14.0,0.0
235,52.0,0.0,120.0,2.0,0.0
236,46.0,0.0,120.0,13.0,0.0
237,64.0,0.0,90.0,10.0,0.0
238,54.0,0.0,390.0,4.0,0.0
239,51.0,0.0,120.0,2.0,0.0
240,54.0,0.0,120.0,13.0,0.0
241,63.0,96.0,120.0,1.0,0.0
242,54.0,0.0,120.0,12.0,0.0
243,75.0,0.0,120.0,0.0,0.0
244,63.0,24.0,90.0,10.0,0.0
245,51.0,0.0,90.0,11.0,0.0
246,46.0,0.0,120.0,13.0,0.0
247,34.0,24.0,180.0,14.0,0.0
248,46.0,0.0,120.0,12.0,0.0
249,64.0,0.0,90.0,10.0,0.0
250,64.0,0.0,120.0,1.0,0.0
251,76.0,24.0,120.0,0.0,0.0
252,52.0,24.0,90.0,11.0,0.0
253,52.0,0.0,120.0,2.0,0.0
254,54.0,0.0,180.0,3.0,0.0
255,61.0,0.0,180.0,3.0,0.0
256,54.0,0.0,90.0,13.0,0.0
257,54.0,144.0,90.0,2.0,0.0
258,54.0,0.0,90.0,11.0,0.0
259,54.0,0.0,90.0,12.0,0.0
260,66.0,0.0,90.0,10.0,0.0
261,66.0,0.0,90.0,1.0,0.0
262,78.0,0.0,90.0,0.0,0.0
263,51.0,24.0,570.0,11.0,0.0
264,59.0,0.0,390.0,4.0,0.0
265,66.0,0.0,390.0,4.0,0.0
266,47.0,0.0,120.0,12.0,0.0
267,47.0,72.0,120.0,13.0,0.0
268,75.0,0.0,720.0,0.0,0.0
269,35.0,48.0,180.0,14.0,0.0
270,51.0,0.0,720.0,2.0,0.0
271,51.0,0.0,780.0,3.0,0.0
272,59.0,48.0,780.0,3.0,0.0
273,47.0,48.0,390.0,5.0,0.0
274,63.0,0.0,720.0,1.0,0.0
275,63.0,0.0,570.0,10.0,0.0
276,54.0,120.0,120.0,12.0,0.0
277,54.0,0.0,120.0,13.0,0.0
278,47.0,0.0,120.0,13.0,0.0
279,47.0,24.0,120.0,12.0,0.0
280,35.0,48.0,180.0,14.0,0.0
281,54.0,96.0,120.0,13.0,0.0
282,54.0,0.0,120.0,12.0,0.0
283,35.0,48.0,180.0,14.0,0.0
284,47.0,72.0,120.0,13.0,0.0
285,47.0,0.0,120.0,12.0,0.0
286,54.0,0.0,120.0,12.0,0.0
287,54.0,48.0,120.0,13.0,0.0
288,52.0,24.0,90.0,11.0,0.0
289,52.0,0.0,120.0,2.0,0.0
290,76.0,72.0,120.0,0.0,0.0
291,35.0,24.0,180.0,14.0,0.0
292,64.0,0.0,90.0,10.0,0.0
293,47.0,0.0,120.0,12.0,0.0
294,64.0,0.0,120.0,1.0,0.0
295,47.0,0.0,120.0,13.0,0.0
296,54.0,0.0,90.0,13.0,0.0
297,54.0,0.0,90.0,2.0,0.0
298,54.0,0.0,90.0,11.0,0.0
299,66.0,0.0,90.0,10.0,0.0
300,66.0,0.0,90.0,1.0,0.0
301,54.0,0.0,90.0,12.0,0.0
302,78.0,144.0,90.0,0.0,0.0
303,59.0,0.0,390.0,4.0,0.0
304,56.0,120.0,480.0,2.0,0.0
305,59.0,0.0,780.0,3.0,0.0
306,61.0,24.0,780.0,3.0,0.0
307,47.0,48.0,390.0,5.0,0.0
308,68.0,48.0,180.0,10.0,0.0
309,80.0,0.0,480.0,0.0,0.0
310,56.0,0.0,180.0,11.0,0.0
311,68.0,0.0,480.0,1.0,0.0
312,52.0,0.0,120.0,13.0,0.0
313,40.0,0.0,180.0,14.0,0.0
314,52.0,72.0,120.0,12.0,0.0
315,71.0,0.0,390.0,4.0,0.0
316,56.0,96.0,120.0,13.0,0.0
317,56.0,0.0,120.0,12.0,0.0
318,40.0,24.0,180.0,14.0,0.0
319,52.0,24.0,120.0,12.0,0.0
320,58.0,0.0,90.0,11.0,0.0
321,70.0,24.0,90.0,10.0,0.0
322,52.0,0.0,120.0,13.0,0.0
323,71.0,0.0,90.0,10.0,0.0
324,56.0,0.0,120.0,12.0,0.0
325,59.0,24.0,90.0,11.0,0.0
326,56.0,0.0,120.0,13.0,0.0
327,61.0,0.0,120.0,11.0,0.0
328,73.0,0.0,120.0,10.0,0.0
329,52.0,72.0,120.0,12.0,0.0
330,40.0,24.0,180.0,14.0,0.0
331,73.0,0.0,480.0,1.0,0.0
332,61.0,0.0,480.0,2.0,0.0
333,85.0,120.0,480.0,0.0,0.0
334,52.0,0.0,120.0,13.0,0.0
335,56.0,0.0,120.0,12.0,0.0
336,75.0,24.0,90.0,10.0,0.0
337,63.0,0.0,90.0,11.0,0.0
338,56.0,48.0,120.0,13.0,0.0
339,52.0,72.0,120.0,12.0,0.0
340,40.0,24.0,180.0,14.0,0.0
341,76.0,0.0,60.0,10.0,0.0
342,52.0,0.0,120.0,13.0,0.0
343,64.0,48.0,60.0,11.0,0.0
344,56.0,0.0,90.0,13.0,0.0
345,61.0,0.0,60.0,11.0,0.0
346,56.0,24.0,90.0,12.0,0.0
347,73.0,0.0,60.0,10.0,0.0
348,40.0,0.0,180.0,14.0,0.0
349,54.0,24.0,780.0,3.0,0.0
350,58.0,0.0,480.0,2.0,0.0
351,70.0,0.0,480.0,1.0,0.0
352,61.0,0.0,780.0,3.0,0.0
353,66.0,48.0,390.0,4.0,0.0
354,71.0,0.0,120.0,10.0,0.0
355,52.0,0.0,120.0,12.0,0.0
356,42.0,0.0,390.0,5.0,0.0
357,52.0,72.0,120.0,13.0,0.0
358,82.0,0.0,480.0,0.0,0.0
359,59.0,0.0,120.0,11.0,0.0
360,54.0,0.0,390.0,4.0,0.0
361,58.0,48.0,60.0,11.0,0.0
362,54.0,0.0,120.0,12.0,0.0
363,54.0,72.0,120.0,13.0,0.0
364,70.0,0.0,60.0,10.0,0.0
365,56.0,48.0,60.0,11.0,0.0
366,40.0,0.0,180.0,14.0,0.0
367,52.0,0.0,120.0,12.0,0.0
368,52.0,24.0,120.0,13.0,0.0
369,68.0,0.0,60.0,10.0,0.0
370,54.0,0.0,120.0,13.0,0.0
371,54.0,0.0,60.0,11.0,0.0
372,54.0,120.0,120.0,12.0,0.0
373,66.0,48.0,60.0,10.0,0.0
374,66.0,48.0,390.0,1.0,0.0
375,40.0,48.0,180.0,14.0,0.0
376,78.0,0.0,120.0,10.0,0.0
377,52.0,0.0,120.0,12.0,0.0
378,66.0,0.0,120.0,11.0,0.0
379,78.0,0.0,390.0,0.0,0.0
380,54.0,0.0,390.0,2.0,0.0
381,52.0,72.0,120.0,13.0,0.0
382,54.0,0.0,120.0,12.0,0.0
383,64.0,0.0,60.0,11.0,0.0
384,76.0,0.0,60.0,10.0,0.0
385,54.0,48.0,120.0,13.0,0.0
386,40.0,0.0,180.0,14.0,0.0
387,52.0,0.0,120.0,12.0,0.0
388,52.0,24.0,120.0,13.0,0.0
389,61.0,48.0,60.0,11.0,0.0
390,73.0,0.0,60.0,10.0,0.0
391,54.0,0.0,90.0,12.0,0.0
392,70.0,0.0,60.0,10.0,0.0
393,58.0,24.0,60.0,11.0,0.0
394,54.0,96.0,90.0,13.0,0.0
395,51.0,0.0,150.0,13.0,0.0
396,59.0,36.0,150.0,3.0,0.0
397,71.0,60.0,60.0,10.0,0.0
398,59.0,0.0,120.0,2.0,0.0
399,59.0,12.0,150.0,11.0,0.0
400,51.0,0.0,150.0,12.0,0.0
401,83.0,12.0,120.0,0.0,0.0
402,71.0,0.0,120.0,1.0,0.0
403,39.0,0.0,150.0,14.0,0.0
404,63.0,0.0,150.0,3.0,0.0
405,66.0,120.0,60.0,10.0,0.0
406,64.0,60.0,60.0,11.0,0.0
407,52.0,12.0,120.0,2.0,0.0
408,40.0,0.0,150.0,14.0,0.0
409,61.0,36.0,150.0,3.0,0.0
410,64.0,0.0,150.0,3.0,0.0
411,68.0,0.0,60.0,10.0,0.0
412,73.0,0.0,120.0,1.0,0.0
413,52.0,0.0,150.0,13.0,0.0
414,76.0,0.0,120.0,1.0,0.0
415,52.0,12.0,150.0,12.0,0.0
416,76.0,0.0,120.0,0.0,0.0
417,64.0,0.0,60.0,10.0,0.0
418,61.0,120.0,60.0,11.0,0.0
419,75.0,12.0,120.0,0.0,0.0
420,75.0,0.0,120.0,1.0,0.0
421,71.0,0.0,120.0,1.0,0.0
422,59.0,0.0,150.0,3.0,0.0
423,63.0,36.0,150.0,3.0,0.0
424,54.0,0.0,120.0,2.0,0.0
425,59.0,60.0,60.0,11.0,0.0
426,54.0,0.0,150.0,12.0,0.0
427,42.0,0.0,150.0,14.0,0.0
428,63.0,0.0,60.0,10.0,0.0
429,54.0,12.0,150.0,13.0,0.0
430,66.0,120.0,60.0,10.0,0.0
431,63.0,0.0,60.0,11.0,0.0
432,70.0,0.0,120.0,1.0,0.0
433,42.0,0.0,120.0,2.0,0.0
434,42.0,0.0,150.0,13.0,0.0
435,30.0,12.0,150.0,14.0,0.0
436,61.0,36.0,150.0,3.0,0.0
437,54.0,0.0,150.0,3.0,0.0
438,64.0,0.0,60.0,10.0,0.0
439,61.0,60.0,60.0,11.0,0.0
440,73.0,0.0,120.0,0.0,0.0
441,54.0,0.0,150.0,12.0,0.0
442,73.0,12.0,120.0,1.0,0.0
443,59.0,168.0,60.0,11.0,0.0
444,61.0,0.0,60.0,10.0,0.0
445,59.0,24.0,120.0,10.0,0.0
446,35.0,0.0,150.0,14.0,0.0
447,71.0,42.0,150.0,1.0,0.0
448,59.0,0.0,120.0,11.0,0.0
449,71.0,0.0,150.0,0.0,0.0
450,47.0,0.0,390.0,5.0,0.0
451,47.0,0.0,150.0,2.0,0.0
452,47.0,12.0,150.0,13.0,0.0
453,47.0,0.0,150.0,12.0,0.0
454,71.0,12.0,390.0,4.0,0.0
455,51.0,0.0,150.0,3.0,0.0
456,59.0,0.0,390.0,4.0,0.0
457,59.0,0.0,150.0,3.0,0.0
458,54.0,0.0,90.0,10.0,0.0
459,54.0,120.0,90.0,11.0,0.0
460,59.0,0.0,150.0,13.0,0.0
461,59.0,0.0,150.0,12.0,0.0
462,51.0,66.0,90.0,11.0,0.0
463,63.0,0.0,150.0,2.0,0.0
464,71.0,0.0,150.0,1.0,0.0
465,75.0,0.0,150.0,0.0,0.0
466,51.0,0.0,150.0,3.0,0.0
467,59.0,0.0,150.0,3.0,0.0
468,51.0,0.0,90.0,10.0,0.0
469,54.0,42.0,150.0,2.0,0.0
470,47.0,0.0,150.0,14.0,0.0
471,66.0,0.0,150.0,1.0,0.0
472,54.0,120.0,90.0,10.0,0.0
473,54.0,0.0,90.0,11.0,0.0
474,59.0,78.0,90.0,11.0,0.0
475,59.0,0.0,390.0,12.0,0.0
476,71.0,0.0,150.0,1.0,0.0
477,66.0,0.0,150.0,1.0,0.0
478,75.0,0.0,150.0,0.0,0.0
479,47.0,12.0,390.0,14.0,0.0
480,59.0,0.0,90.0,10.0,0.0
481,54.0,0.0,150.0,2.0,0.0
482,59.0,0.0,390.0,13.0,0.0
483,59.0,0.0,150.0,3.0,0.0
484,63.0,0.0,150.0,2.0,0.0
485,51.0,42.0,150.0,3.0,0.0
486,63.0,0.0,90.0,11.0,0.0
487,63.0,120.0,90.0,10.0,0.0
488,66.0,66.0,90.0,11.0,0.0
489,71.0,0.0,150.0,1.0,0.0
490,75.0,0.0,150.0,0.0,0.0
491,59.0,0.0,150.0,3.0,0.0
492,51.0,0.0,150.0,3.0,0.0
493,66.0,0.0,150.0,1.0,0.0
494,63.0,0.0,150.0,2.0,0.0
495,54.0,42.0,150.0,2.0,0.0
496,66.0,0.0,90.0,10.0,0.0
497,63.0,162.0,90.0,10.0,0.0
498,63.0,0.0,90.0,11.0,0.0
499,59.0,24.0,120.0,11.0,0.0
500,59.0,12.0,390.0,4.0,0.0
501,35.0,0.0,150.0,14.0,0.0
502,71.0,0.0,390.0,4.0,0.0
503,47.0,54.0,150.0,12.0,0.0
504,59.0,0.0,120.0,10.0,0.0
505,47.0,0.0,390.0,5.0,0.0
506,47.0,0.0,150.0,13.0,0.0
507,54.0,0.0,90.0,11.0,0.0
508,54.0,120.0,90.0,10.0,0.0
509,54.0,0.0,150.0,2.0,0.0
510,47.0,0.0,150.0,14.0,0.0
511,66.0,0.0,150.0,1.0,0.0
512,51.0,0.0,90.0,11.0,0.0
513,71.0,0.0,150.0,1.0,0.0
514,51.0,66.0,90.0,10.0,0.0
515,59.0,0.0,150.0,3.0,0.0
516,59.0,0.0,150.0,12.0,0.0
517,51.0,0.0,150.0,3.0,0.0
518,63.0,0.0,150.0,2.0,0.0
519,59.0,0.0,150.0,13.0,0.0
520,75.0,42.0,150.0,0.0,0.0
521,54.0,120.0,90.0,11.0,0.0
522,54.0,0.0,90.0,10.0,0.0
523,59.0,0.0,150.0,3.0,0.0
524,59.0,0.0,390.0,12.0,0.0
525,66.0,0.0,150.0,1.0,0.0
526,59.0,0.0,390.0,13.0,0.0
527,75.0,0.0,150.0,0.0,0.0
528,54.0,0.0,150.0,2.0,0.0
529,63.0,0.0,150.0,2.0,0.0
530,59.0,0.0,90.0,10.0,0.0
531,47.0,12.0,390.0,14.0,0.0
532,51.0,42.0,150.0,3.0,0.0
533,59.0,78.0,90.0,11.0,0.0
534,71.0,0.0,150.0,1.0,0.0
535,63.0,0.0,90.0,10.0,0.0
536,63.0,120.0,90.0,11.0,0.0
537,66.0,0.0,150.0,1.0,0.0
538,71.0,42.0,150.0,1.0,0.0
539,54.0,0.0,150.0,2.0,0.0
540,63.0,0.0,150.0,2.0,0.0
541,66.0,66.0,90.0,10.0,0.0
542,75.0,0.0,150.0,0.0,0.0
543,66.0,0.0,90.0,11.0,0.0
544,51.0,0.0,150.0,3.0,0.0
545,59.0,0.0,150.0,3.0,0.0
546,63.0,0.0,90.0,11.0,0.0
547,63.0,162.0,90.0,10.0,0.0
548,61.0,0.0,120.0,10.0,0.0
549,71.0,0.0,390.0,4.0,0.0
550,47.0,0.0,390.0,5.0,0.0
551,61.0,24.0,120.0,11.0,0.0
552,47.0,54.0,150.0,12.0,0.0
553,35.0,0.0,150.0,14.0,0.0
554,47.0,0.0,150.0,13.0,0.0
555,59.0,0.0,390.0,4.0,0.0
556,56.0,120.0,90.0,11.0,0.0
557,56.0,0.0,90.0,10.0,0.0
558,61.0,0.0,150.0,3.0,0.0
559,64.0,0.0,150.0,3.0,0.0
560,64.0,0.0,150.0,1.0,0.0
561,73.0,42.0,150.0,1.0,0.0
562,52.0,0.0,90.0,11.0,0.0
563,80.0,0.0,150.0,0.0,0.0
564,59.0,0.0,150.0,13.0,0.0
565,59.0,0.0,150.0,12.0,0.0
566,47.0,12.0,150.0,14.0,0.0
567,56.0,0.0,150.0,2.0,0.0
568,52.0,0.0,150.0,2.0,0.0
569,52.0,66.0,90.0,10.0,0.0
570,56.0,120.0,90.0,11.0,0.0
571,56.0,0.0,90.0,10.0,0.0
572,73.0,0.0,150.0,1.0,0.0
573,61.0,0.0,150.0,3.0,0.0
574,59.0,12.0,390.0,12.0,0.0
575,47.0,0.0,390.0,14.0,0.0
576,64.0,0.0,150.0,1.0,0.0
577,80.0,42.0,150.0,0.0,0.0
578,52.0,0.0,150.0,2.0,0.0
579,56.0,0.0,150.0,2.0,0.0
580,61.0,78.0,90.0,10.0,0.0
581,64.0,0.0,150.0,3.0,0.0
582,61.0,0.0,90.0,11.0,0.0
583,59.0,0.0,390.0,13.0,0.0
584,64.0,120.0,90.0,10.0,0.0
585,64.0,0.0,90.0,11.0,0.0
586,64.0,0.0,150.0,1.0,0.0
587,73.0,0.0,150.0,1.0,0.0
588,64.0,0.0,150.0,3.0,0.0
589,61.0,42.0,150.0,3.0,0.0
590,68.0,0.0,90.0,10.0,0.0
591,80.0,0.0,150.0,0.0,0.0
592,52.0,0.0,150.0,2.0,0.0
593,56.0,0.0,150.0,2.0,0.0
594,68.0,66.0,90.0,11.0,0.0
595,64.0,0.0,90.0,11.0,0.0
596,64.0,162.0,90.0,10.0,0.0
597,47.0,0.0,390.0,5.0,0.0
598,61.0,0.0,120.0,10.0,0.0
599,47.0,0.0,150.0,12.0,0.0
600,47.0,54.0,150.0,13.0,0.0
601,71.0,0.0,390.0,4.0,0.0
602,35.0,0.0,150.0,14.0,0.0
603,61.0,24.0,120.0,11.0,0.0
604,59.0,0.0,390.0,4.0,0.0
605,56.0,120.0,90.0,10.0,0.0
606,56.0,0.0,90.0,11.0,0.0
607,59.0,12.0,150.0,13.0,0.0
608,64.0,0.0,150.0,3.0,0.0
609,61.0,0.0,150.0,3.0,0.0
610,73.0,0.0,150.0,1.0,0.0
611,52.0,66.0,90.0,10.0,0.0
612,64.0,42.0,150.0,1.0,0.0
613,80.0,0.0,150.0,0.0,0.0
614,52.0,0.0,150.0,2.0,0.0
615,52.0,0.0,90.0,11.0,0.0
616,47.0,0.0,150.0,14.0,0.0
617,56.0,0.0,150.0,2.0,0.0
618,59.0,0.0,150.0,12.0,0.0
619,56.0,120.0,90.0,11.0,0.0
620,56.0,0.0,90.0,10.0,0.0
621,61.0,0.0,150.0,3.0,0.0
622,64.0,0.0,150.0,3.0,0.0
623,61.0,0.0,90.0,10.0,0.0
624,80.0,42.0,150.0,0.0,0.0
625,52.0,0.0,150.0,2.0,0.0
626,56.0,0.0,150.0,2.0,0.0
627,61.0,78.0,90.0,11.0,0.0
628,73.0,0.0,150.0,1.0,0.0
629,64.0,0.0,150.0,1.0,0.0
630,59.0,0.0,390.0,12.0,0.0
631,47.0,12.0,390.0,14.0,0.0
632,59.0,0.0,390.0,13.0,0.0
633,64.0,120.0,90.0,11.0,0.0
634,64.0,0.0,90.0,10.0,0.0
635,80.0,0.0,150.0,0.0,0.0
636,68.0,0.0,90.0,10.0,0.0
637,52.0,0.0,150.0,2.0,0.0
638,73.0,0.0,150.0,1.0,0.0
639,68.0,66.0,90.0,11.0,0.0
640,56.0,0.0,150.0,2.0,0.0
641,64.0,0.0,150.0,3.0,0.0
642,61.0,42.0,150.0,3.0,0.0
643,64.0,0.0,150.0,1.0,0.0
644,64.0,0.0,90.0,11.0,0.0
645,64.0,162.0,90.0,10.0,0.0
646,66.0,0.0,1350.0,4.0,0.0
647,46.0,54.0,150.0,12.0,0.0
648,42.0,12.0,390.0,5.0,0.0
649,34.0,0.0,150.0,14.0,0.0
650,58.0,0.0,120.0,10.0,0.0
651,46.0,0.0,150.0,13.0,0.0
652,58.0,24.0,120.0,11.0,0.0
653,54.0,12.0,1350.0,4.0,0.0
654,66.0,162.0,90.0,10.0,0.0
655,66.0,0.0,90.0,11.0,0.0
656,85.0,42.0,150.0,0.0,0.0
657,58.0,0.0,150.0,13.0,0.0
658,76.0,0.0,150.0,1.0,0.0
659,46.0,0.0,150.0,14.0,0.0
660,78.0,0.0,150.0,1.0,0.0
661,64.0,0.0,150.0,3.0,0.0
662,54.0,0.0,150.0,3.0,0.0
663,61.0,0.0,150.0,2.0,0.0
664,58.0,0.0,150.0,12.0,0.0
665,76.0,24.0,120.0,10.0,0.0
666,76.0,0.0,120.0,11.0,0.0
667,52.0,0.0,150.0,2.0,0.0
668,66.0,162.0,90.0,10.0,0.0
669,66.0,0.0,90.0,11.0,0.0
670,64.0,0.0,150.0,3.0,0.0
671,52.0,0.0,150.0,2.0,0.0
672,78.0,0.0,150.0,1.0,0.0
673,42.0,0.0,390.0,5.0,0.0
674,46.0,0.0,390.0,14.0,0.0
675,61.0,0.0,150.0,2.0,0.0
676,76.0,42.0,150.0,1.0,0.0
677,76.0,0.0,120.0,10.0,0.0
678,54.0,0.0,150.0,3.0,0.0
679,85.0,0.0,150.0,0.0,0.0
680,58.0,12.0,390.0,12.0,0.0
681,58.0,0.0,390.0,13.0,0.0
682,76.0,36.0,120.0,11.0,0.0
683,66.0,0.0,90.0,11.0,0.0
684,66.0,162.0,90.0,10.0,0.0
685,76.0,0.0,150.0,1.0,0.0
686,64.0,0.0,150.0,3.0,0.0
687,54.0,42.0,150.0,3.0,0.0
688,52.0,0.0,150.0,2.0,0.0
689,61.0,0.0,150.0,2.0,0.0
690,76.0,24.0,120.0,11.0,0.0
691,78.0,0.0,150.0,1.0,0.0
692,76.0,0.0,120.0,10.0,0.0
693,85.0,0.0,150.0,0.0,0.0
694,66.0,120.0,90.0,10.0,0.0
695,66.0,0.0,90.0,11.0,0.0
696,42.0,0.0,390.0,5.0,0.0
697,46.0,54.0,150.0,13.0,0.0
698,46.0,0.0,150.0,12.0,0.0
699,76.0,0.0,90.0,11.0,0.0
700,76.0,66.0,90.0,10.0,0.0
701,34.0,0.0,150.0,14.0,0.0
702,75.0,120.0,90.0,11.0,0.0
703,75.0,0.0,90.0,10.0,0.0
704,54.0,0.0,150.0,3.0,0.0
705,85.0,0.0,150.0,0.0,0.0
706,76.0,42.0,150.0,1.0,0.0
707,73.0,66.0,90.0,10.0,0.0
708,46.0,0.0,150.0,14.0,0.0
709,61.0,0.0,150.0,2.0,0.0
710,58.0,0.0,150.0,12.0,0.0
711,52.0,0.0,150.0,2.0,0.0
712,58.0,0.0,150.0,13.0,0.0
713,78.0,0.0,150.0,1.0,0.0
714,64.0,0.0,150.0,3.0,0.0
715,73.0,0.0,90.0,11.0,0.0
716,71.0,120.0,90.0,11.0,0.0
717,71.0,0.0,90.0,10.0,0.0
718,58.0,0.0,390.0,12.0,0.0
719,58.0,12.0,390.0,13.0,0.0
720,76.0,42.0,150.0,1.0,0.0
721,78.0,0.0,150.0,1.0,0.0
722,70.0,78.0,90.0,11.0,0.0
723,52.0,0.0,150.0,2.0,0.0
724,61.0,0.0,150.0,2.0,0.0
725,70.0,0.0,90.0,10.0,0.0
726,46.0,0.0,390.0,14.0,0.0
727,64.0,0.0,150.0,3.0,0.0
728,54.0,0.0,150.0,3.0,0.0
729,85.0,0.0,150.0,0.0,0.0
730,68.0,120.0,90.0,11.0,0.0
731,68.0,0.0,90.0,10.0,0.0
732,66.0,0.0,90.0,10.0,0.0
733,66.0,66.0,90.0,11.0,0.0
734,85.0,0.0,150.0,0.0,0.0
735,78.0,0.0,150.0,1.0,0.0
736,54.0,0.0,150.0,3.0,0.0
737,64.0,0.0,150.0,3.0,0.0
738,52.0,0.0,150.0,2.0,0.0
739,61.0,0.0,150.0,2.0,0.0
740,76.0,42.0,150.0,1.0,0.0
741,64.0,0.0,90.0,11.0,0.0
742,64.0,120.0,90.0,10.0,0.0
743,59.0,0.0,180.0,12.0,0.0
744,51.0,0.0,120.0,2.0,0.0
745,59.0,60.0,120.0,2.0,0.0
746,63.0,54.0,90.0,10.0,0.0
747,59.0,0.0,180.0,13.0,0.0
748,87.0,0.0,120.0,0.0,0.0
749,47.0,6.0,180.0,14.0,0.0
750,59.0,0.0,120.0,3.0,0.0
751,63.0,0.0,120.0,3.0,0.0
752,63.0,0.0,90.0,11.0,0.0
753,78.0,0.0,120.0,1.0,0.0
754,75.0,0.0,120.0,1.0,0.0
755,71.0,0.0,90.0,10.0,0.0
756,71.0,120.0,90.0,11.0,0.0
757,66.0,54.0,90.0,10.0,0.0
758,87.0,0.0,120.0,0.0,0.0
759,66.0,0.0,90.0,11.0,0.0
760,59.0,0.0,120.0,2.0,0.0
761,63.0,0.0,120.0,3.0,0.0
762,78.0,66.0,120.0,1.0,0.0
763,75.0,0.0,120.0,1.0,0.0
764,51.0,0.0,120.0,2.0,0.0
765,66.0,0.0,120.0,3.0,0.0
766,63.0,0.0,90.0,11.0,0.0
767,63.0,120.0,90.0,10.0,0.0
768,61.0,0.0,120.0,2.0,0.0
769,76.0,0.0,120.0,1.0,0.0
770,40.0,0.0,180.0,14.0,0.0
771,73.0,0.0,120.0,1.0,0.0
772,52.0,0.0,120.0,2.0,0.0
773,61.0,0.0,90.0,10.0,0.0
774,52.0,0.0,180.0,13.0,0.0
775,85.0,60.0,120.0,0.0,0.0
776,52.0,6.0,180.0,12.0,0.0
777,61.0,54.0,90.0,11.0,0.0
778,61.0,0.0,120.0,3.0,0.0
779,64.0,0.0,120.0,3.0,0.0
780,68.0,0.0,90.0,11.0,0.0
781,68.0,120.0,90.0,10.0,0.0
782,52.0,0.0,120.0,2.0,0.0
783,64.0,0.0,90.0,11.0,0.0
784,61.0,0.0,120.0,3.0,0.0
785,85.0,0.0,120.0,0.0,0.0
786,61.0,0.0,120.0,2.0,0.0
787,64.0,54.0,90.0,10.0,0.0
788,73.0,0.0,120.0,1.0,0.0
789,76.0,66.0,120.0,1.0,0.0
790,64.0,0.0,120.0,3.0,0.0
791,61.0,0.0,90.0,10.0,0.0
792,61.0,120.0,90.0,11.0,0.0
793,59.0,0.0,90.0,11.0,0.0
794,54.0,6.0,180.0,12.0,0.0
795,59.0,0.0,120.0,3.0,0.0
796,75.0,0.0,120.0,1.0,0.0
797,83.0,0.0,120.0,0.0,0.0
798,54.0,0.0,180.0,13.0,0.0
799,71.0,0.0,120.0,1.0,0.0
800,59.0,54.0,90.0,10.0,0.0
801,42.0,0.0,180.0,14.0,0.0
802,59.0,60.0,120.0,2.0,0.0
803,51.0,0.0,120.0,2.0,0.0
804,63.0,0.0,120.0,3.0,0.0
805,66.0,120.0,90.0,10.0,0.0
806,66.0,0.0,90.0,11.0,0.0
807,75.0,0.0,120.0,1.0,0.0
808,51.0,0.0,120.0,2.0,0.0
809,83.0,0.0,120.0,0.0,0.0
810,63.0,54.0,90.0,11.0,0.0
811,63.0,0.0,90.0,10.0,0.0
812,71.0,0.0,120.0,1.0,0.0
813,59.0,0.0,120.0,2.0,0.0
814,59.0,0.0,120.0,3.0,0.0
815,63.0,66.0,120.0,3.0,0.0
816,59.0,0.0,90.0,11.0,0.0
817,59.0,120.0,90.0,10.0,0.0
818,58.0,0.0,90.0,10.0,0.0
819,58.0,0.0,120.0,2.0,0.0
820,49.0,0.0,120.0,2.0,0.0
821,66.0,54.0,390.0,4.0,0.0
822,54.0,0.0,180.0,12.0,0.0
823,54.0,0.0,390.0,4.0,0.0
824,42.0,0.0,180.0,13.0,0.0
825,42.0,0.0,390.0,5.0,0.0
826,70.0,0.0,120.0,1.0,0.0
827,73.0,0.0,120.0,1.0,0.0
828,30.0,6.0,180.0,14.0,0.0
829,54.0,0.0,120.0,3.0,0.0
830,61.0,0.0,120.0,3.0,0.0
831,82.0,60.0,120.0,0.0,0.0
832,58.0,54.0,90.0,11.0,0.0
833,64.0,0.0,90.0,11.0,0.0
834,64.0,120.0,90.0,10.0,0.0
835,73.0,0.0,120.0,1.0,0.0
836,61.0,0.0,90.0,11.0,0.0
837,61.0,0.0,120.0,3.0,0.0
838,61.0,54.0,90.0,10.0,0.0
839,82.0,12.0,120.0,0.0,0.0
840,49.0,0.0,120.0,2.0,0.0
841,58.0,0.0,120.0,2.0,0.0
842,54.0,0.0,120.0,3.0,0.0
843,70.0,0.0,120.0,1.0,0.0
844,58.0,162.0,90.0,10.0,0.0
845,58.0,0.0,90.0,11.0,0.0
846,59.0,24.0,120.0,11.0,0.0
847,59.0,0.0,120.0,10.0,0.0
848,83.0,0.0,150.0,0.0,0.0
849,51.0,0.0,150.0,3.0,0.0
850,47.0,0.0,150.0,13.0,0.0
851,59.0,0.0,390.0,4.0,0.0
852,71.0,0.0,390.0,4.0,0.0
853,51.0,0.0,150.0,2.0,0.0
854,59.0,0.0,150.0,3.0,0.0
855,47.0,0.0,390.0,5.0,0.0
856,59.0,42.0,150.0,2.0,0.0
857,47.0,12.0,150.0,12.0,0.0
858,35.0,0.0,150.0,14.0,0.0
859,71.0,0.0,150.0,1.0,0.0
860,54.0,0.0,90.0,10.0,0.0
861,54.0,120.0,90.0,11.0,0.0
862,59.0,12.0,150.0,12.0,0.0
863,71.0,0.0,150.0,1.0,0.0
864,51.0,66.0,90.0,11.0,0.0
865,51.0,0.0,150.0,3.0,0.0
866,59.0,0.0,150.0,3.0,0.0
867,59.0,0.0,150.0,13.0,0.0
868,47.0,0.0,150.0,14.0,0.0
869,51.0,0.0,90.0,10.0,0.0
870,66.0,0.0,150.0,1.0,0.0
871,63.0,0.0,150.0,2.0,0.0
872,54.0,0.0,150.0,2.0,0.0
873,75.0,42.0,150.0,0.0,0.0
874,54.0,0.0,90.0,10.0,0.0
875,54.0,120.0,90.0,11.0,0.0
876,54.0,0.0,150.0,2.0,0.0
877,59.0,0.0,90.0,11.0,0.0
878,51.0,0.0,150.0,3.0,0.0
879,59.0,0.0,150.0,3.0,0.0
880,59.0,0.0,390.0,12.0,0.0
881,66.0,0.0,150.0,1.0,0.0
882,47.0,0.0,390.0,14.0,0.0
883,75.0,0.0,150.0,0.0,0.0
884,59.0,12.0,390.0,13.0,0.0
885,59.0,78.0,90.0,10.0,0.0
886,63.0,0.0,150.0,2.0,0.0
887,71.0,42.0,150.0,1.0,0.0
888,63.0,120.0,90.0,11.0,0.0
889,63.0,0.0,90.0,10.0,0.0
890,75.0,0.0,150.0,0.0,0.0
891,71.0,0.0,150.0,1.0,0.0
892,51.0,0.0,150.0,3.0,0.0
893,54.0,0.0,150.0,2.0,0.0
894,63.0,42.0,150.0,2.0,0.0
895,66.0,0.0,90.0,11.0,0.0
896,66.0,0.0,150.0,1.0,0.0
897,66.0,66.0,90.0,10.0,0.0
898,59.0,0.0,150.0,3.0,0.0
899,63.0,0.0,90.0,11.0,0.0
900,63.0,162.0,90.0,10.0,0.0
901,71.0,12.0,390.0,4.0,0.0
902,59.0,0.0,390.0,4.0,0.0
903,59.0,0.0,120.0,11.0,0.0
904,47.0,0.0,390.0,5.0,0.0
905,59.0,24.0,120.0,10.0,0.0
906,47.0,0.0,150.0,12.0,0.0
907,47.0,54.0,150.0,13.0,0.0
908,35.0,0.0,150.0,14.0,0.0
909,54.0,120.0,90.0,10.0,0.0
910,54.0,0.0,90.0,11.0,0.0
911,71.0,0.0,150.0,1.0,0.0
912,59.0,0.0,150.0,3.0,0.0
913,51.0,0.0,150.0,3.0,0.0
914,75.0,0.0,150.0,0.0,0.0
915,59.0,0.0,150.0,13.0,0.0
916,63.0,0.0,150.0,2.0,0.0
917,47.0,0.0,150.0,14.0,0.0
918,54.0,42.0,150.0,2.0,0.0
919,51.0,66.0,90.0,11.0,0.0
920,51.0,0.0,90.0,10.0,0.0
921,66.0,0.0,150.0,1.0,0.0
922,59.0,0.0,150.0,12.0,0.0
923,54.0,0.0,90.0,10.0,0.0
924,54.0,120.0,90.0,11.0,0.0
925,63.0,0.0,150.0,2.0,0.0
926,59.0,0.0,90.0,10.0,0.0
927,59.0,0.0,390.0,13.0,0.0
928,59.0,12.0,390.0,12.0,0.0
929,51.0,42.0,150.0,3.0,0.0
930,75.0,0.0,150.0,0.0,0.0
931,54.0,0.0,150.0,2.0,0.0
932,59.0,0.0,150.0,3.0,0.0
933,47.0,0.0,390.0,14.0,0.0
934,71.0,0.0,150.0,1.0,0.0
935,66.0,0.0,150.0,1.0,0.0
936,59.0,78.0,90.0,11.0,0.0
937,63.0,0.0,90.0,10.0,0.0
938,63.0,120.0,90.0,11.0,0.0
939,66.0,0.0,90.0,11.0,0.0
940,63.0,0.0,150.0,2.0,0.0
941,54.0,0.0,150.0,2.0,0.0
942,75.0,0.0,150.0,0.0,0.0
943,59.0,0.0,150.0,3.0,0.0
944,51.0,0.0,150.0,3.0,0.0
945,71.0,42.0,150.0,1.0,0.0
946,66.0,0.0,150.0,1.0,0.0
947,66.0,66.0,90.0,10.0,0.0
948,63.0,162.0,90.0,10.0,0.0
949,63.0,0.0,90.0,11.0,0.0
950,47.0,0.0,150.0,13.0,0.0
951,47.0,0.0,150.0,12.0,0.0
952,71.0,12.0,390.0,4.0,0.0
953,59.0,0.0,390.0,4.0,0.0
954,61.0,24.0,120.0,11.0,0.0
955,47.0,0.0,390.0,5.0,0.0
956,61.0,0.0,120.0,10.0,0.0
957,35.0,54.0,150.0,14.0,0.0
958,56.0,120.0,90.0,11.0,0.0
959,56.0,0.0,90.0,10.0,0.0
960,59.0,0.0,150.0,13.0,0.0
961,56.0,0.0,150.0,2.0,0.0
962,61.0,0.0,150.0,3.0,0.0
963,64.0,0.0,150.0,3.0,0.0
964,59.0,0.0,150.0,12.0,0.0
965,52.0,0.0,150.0,2.0,0.0
966,80.0,42.0,150.0,0.0,0.0
967,47.0,0.0,150.0,14.0,0.0
968,52.0,0.0,90.0,10.0,0.0
969,52.0,66.0,90.0,11.0,0.0
970,73.0,0.0,150.0,1.0,0.0
971,64.0,0.0,150.0,1.0,0.0
972,56.0,120.0,90.0,10.0,0.0
973,56.0,0.0,90.0,11.0,0.0
974,47.0,0.0,390.0,14.0,0.0
975,61.0,0.0,90.0,10.0,0.0
976,56.0,0.0,150.0,2.0,0.0
977,73.0,0.0,150.0,1.0,0.0
978,64.0,0.0,150.0,1.0,0.0
979,61.0,0.0,150.0,3.0,0.0
980,64.0,42.0,150.0,3.0,0.0
981,52.0,0.0,150.0,2.0,0.0
982,61.0,78.0,90.0,11.0,0.0
983,59.0,12.0,390.0,13.0,0.0
984,59.0,0.0,390.0,12.0,0.0
985,80.0,0.0,150.0,0.0,0.0
986,64.0,0.0,90.0,11.0,0.0
987,64.0,120.0,90.0,10.0,0.0
988,61.0,0.0,150.0,3.0,0.0
989,52.0,0.0,150.0,2.0,0.0
990,56.0,0.0,150.0,2.0,0.0
991,64.0,0.0,150.0,1.0,0.0
992,73.0,0.0,150.0,1.0,0.0
993,68.0,66.0,90.0,11.0,0.0
994,68.0,0.0,90.0,10.0,0.0
995,80.0,0.0,150.0,0.0,0.0
996,64.0,42.0,150.0,3.0,0.0
997,64.0,0.0,90.0,11.0,0.0
998,64.0,162.0,90.0,10.0,0.0
999,47.0,0.0,150.0,13.0,0.0
1000,61.0,24.0,120.0,11.0,0.0
1001,47.0,0.0,150.0,12.0,0.0
1002,61.0,0.0,120.0,10.0,0.0
1003,59.0,0.0,390.0,4.0,0.0
1004,47.0,0.0,390.0,5.0,0.0
1005,35.0,54.0,150.0,14.0,0.0
1006,71.0,12.0,390.0,4.0,0.0
1007,56.0,0.0,90.0,10.0,0.0
1008,56.0,120.0,90.0,11.0,0.0
1009,56.0,0.0,150.0,2.0,0.0
1010,80.0,0.0,150.0,0.0,0.0
1011,52.0,0.0,150.0,2.0,0.0
1012,59.0,0.0,150.0,13.0,0.0
1013,73.0,0.0,150.0,1.0,0.0
1014,47.0,0.0,150.0,14.0,0.0
1015,64.0,0.0,150.0,1.0,0.0
1016,52.0,0.0,90.0,11.0,0.0
1017,64.0,0.0,150.0,3.0,0.0
1018,61.0,42.0,150.0,3.0,0.0
1019,59.0,0.0,150.0,12.0,0.0
1020,52.0,66.0,90.0,10.0,0.0
1021,56.0,120.0,90.0,11.0,0.0
1022,56.0,0.0,90.0,10.0,0.0
1023,59.0,12.0,390.0,12.0,0.0
1024,61.0,78.0,90.0,11.0,0.0
1025,61.0,0.0,150.0,3.0,0.0
1026,80.0,0.0,150.0,0.0,0.0
1027,56.0,42.0,150.0,2.0,0.0
1028,59.0,0.0,390.0,13.0,0.0
1029,73.0,0.0,150.0,1.0,0.0
1030,64.0,0.0,150.0,1.0,0.0
1031,52.0,0.0,150.0,2.0,0.0
1032,47.0,0.0,390.0,14.0,0.0
1033,64.0,0.0,150.0,3.0,0.0
1034,61.0,0.0,90.0,10.0,0.0
1035,64.0,120.0,90.0,10.0,0.0
1036,64.0,0.0,90.0,11.0,0.0
1037,61.0,0.0,150.0,3.0,0.0
1038,64.0,0.0,150.0,3.0,0.0
1039,68.0,0.0,90.0,11.0,0.0
1040,52.0,42.0,150.0,2.0,0.0
1041,56.0,0.0,150.0,2.0,0.0
1042,64.0,0.0,150.0,1.0,0.0
1043,73.0,0.0,150.0,1.0,0.0
1044,68.0,66.0,90.0,10.0,0.0
1045,80.0,0.0,150.0,0.0,0.0
1046,64.0,162.0,90.0,11.0,0.0
1047,64.0,0.0,90.0,10.0,0.0
1048,42.0,0.0,390.0,5.0,0.0
1049,58.0,0.0,120.0,11.0,0.0
1050,46.0,54.0,150.0,12.0,0.0
1051,34.0,0.0,150.0,14.0,0.0
1052,58.0,24.0,120.0,10.0,0.0
1053,46.0,0.0,150.0,13.0,0.0
1054,66.0,0.0,1350.0,4.0,0.0
1055,54.0,0.0,1350.0,4.0,0.0
1056,66.0,0.0,90.0,11.0,0.0
1057,66.0,162.0,90.0,10.0,0.0
1058,78.0,0.0,150.0,1.0,0.0
1059,76.0,0.0,150.0,1.0,0.0
1060,76.0,24.0,120.0,10.0,0.0
1061,76.0,0.0,120.0,11.0,0.0
1062,85.0,0.0,150.0,0.0,0.0
1063,61.0,0.0,150.0,2.0,0.0
1064,64.0,42.0,150.0,3.0,0.0
1065,52.0,0.0,150.0,2.0,0.0
1066,58.0,12.0,150.0,13.0,0.0
1067,58.0,0.0,150.0,12.0,0.0
1068,46.0,0.0,150.0,14.0,0.0
1069,54.0,0.0,150.0,3.0,0.0
1070,66.0,0.0,90.0,11.0,0.0
1071,66.0,162.0,90.0,10.0,0.0
1072,58.0,0.0,390.0,12.0,0.0
1073,76.0,0.0,120.0,10.0,0.0
1074,46.0,0.0,390.0,14.0,0.0
1075,78.0,0.0,150.0,1.0,0.0
1076,58.0,0.0,390.0,13.0,0.0
1077,64.0,42.0,150.0,3.0,0.0
1078,54.0,0.0,150.0,3.0,0.0
1079,42.0,12.0,390.0,5.0,0.0
1080,76.0,0.0,150.0,1.0,0.0
1081,85.0,0.0,150.0,0.0,0.0
1082,61.0,0.0,150.0,2.0,0.0
1083,76.0,36.0,120.0,11.0,0.0
1084,52.0,0.0,150.0,2.0,0.0
1085,66.0,162.0,90.0,10.0,0.0
1086,66.0,0.0,90.0,11.0,0.0
1087,54.0,0.0,150.0,3.0,0.0
1088,85.0,0.0,150.0,0.0,0.0
1089,76.0,24.0,120.0,11.0,0.0
1090,78.0,0.0,150.0,1.0,0.0
1091,76.0,42.0,150.0,1.0,0.0
1092,64.0,0.0,150.0,3.0,0.0
1093,76.0,0.0,120.0,10.0,0.0
1094,52.0,0.0,150.0,2.0,0.0
1095,61.0,0.0,150.0,2.0,0.0
1096,66.0,120.0,90.0,10.0,0.0
1097,66.0,0.0,90.0,11.0,0.0
1098,46.0,0.0,150.0,12.0,0.0
1099,34.0,0.0,150.0,14.0,0.0
1100,42.0,0.0,390.0,5.0,0.0
1101,76.0,0.0,90.0,11.0,0.0
1102,76.0,66.0,90.0,10.0,0.0
1103,46.0,54.0,150.0,13.0,0.0
1104,75.0,120.0,90.0,11.0,0.0
1105,75.0,0.0,90.0,10.0,0.0
1106,52.0,42.0,150.0,2.0,0.0
1107,73.0,66.0,90.0,11.0,0.0
1108,58.0,0.0,150.0,12.0,0.0
1109,76.0,0.0,150.0,1.0,0.0
1110,46.0,12.0,150.0,14.0,0.0
1111,54.0,0.0,150.0,3.0,0.0
1112,58.0,0.0,150.0,13.0,0.0
1113,78.0,0.0,150.0,1.0,0.0
1114,85.0,0.0,150.0,0.0,0.0
1115,73.0,0.0,90.0,10.0,0.0
1116,64.0,0.0,150.0,3.0,0.0
1117,61.0,0.0,150.0,2.0,0.0
1118,71.0,120.0,90.0,11.0,0.0
1119,71.0,0.0,90.0,10.0,0.0
1120,70.0,78.0,90.0,11.0,0.0
1121,85.0,0.0,150.0,0.0,0.0
1122,58.0,12.0,390.0,12.0,0.0
1123,76.0,0.0,150.0,1.0,0.0
1124,52.0,0.0,150.0,2.0,0.0
1125,70.0,0.0,90.0,10.0,0.0
1126,54.0,0.0,150.0,3.0,0.0
1127,64.0,0.0,150.0,3.0,0.0
1128,58.0,0.0,390.0,13.0,0.0
1129,46.0,0.0,390.0,14.0,0.0
1130,78.0,42.0,150.0,1.0,0.0
1131,61.0,0.0,150.0,2.0,0.0
1132,68.0,120.0,90.0,10.0,0.0
1133,68.0,0.0,90.0,11.0,0.0
1134,64.0,0.0,150.0,3.0,0.0
1135,66.0,0.0,90.0,11.0,0.0
1136,85.0,42.0,150.0,0.0,0.0
1137,66.0,66.0,90.0,10.0,0.0
1138,76.0,0.0,150.0,1.0,0.0
1139,52.0,0.0,150.0,2.0,0.0
1140,61.0,0.0,150.0,2.0,0.0
1141,78.0,0.0,150.0,1.0,0.0
1142,54.0,0.0,150.0,3.0,0.0
1143,64.0,162.0,90.0,10.0,0.0
1144,64.0,0.0,90.0,11.0,0.0
1145,66.0,12.0,1350.0,4.0,0.0
1146,59.0,0.0,1350.0,4.0,0.0
1147,47.0,0.0,150.0,13.0,0.0
1148,47.0,0.0,390.0,5.0,0.0
1149,35.0,0.0,150.0,14.0,0.0
1150,63.0,0.0,120.0,11.0,0.0
1151,47.0,54.0,150.0,12.0,0.0
1152,63.0,24.0,120.0,10.0,0.0
1153,71.0,0.0,90.0,11.0,0.0
1154,71.0,162.0,90.0,10.0,0.0
1155,51.0,0.0,150.0,2.0,0.0
1156,75.0,0.0,150.0,1.0,0.0
1157,47.0,0.0,150.0,14.0,0.0
1158,59.0,0.0,150.0,2.0,0.0
1159,75.0,0.0,120.0,11.0,0.0
1160,54.0,0.0,150.0,3.0,0.0
1161,75.0,24.0,120.0,10.0,0.0
1162,78.0,0.0,150.0,1.0,0.0
1163,59.0,0.0,150.0,12.0,0.0
1164,63.0,0.0,150.0,3.0,0.0
1165,59.0,12.0,150.0,13.0,0.0
1166,83.0,42.0,150.0,0.0,0.0
1167,71.0,162.0,90.0,10.0,0.0
1168,71.0,0.0,90.0,11.0,0.0
1169,75.0,0.0,120.0,10.0,0.0
1170,75.0,0.0,150.0,1.0,0.0
1171,78.0,42.0,150.0,1.0,0.0
1172,47.0,0.0,390.0,5.0,0.0
1173,75.0,36.0,120.0,11.0,0.0
1174,63.0,0.0,150.0,3.0,0.0
1175,59.0,12.0,390.0,13.0,0.0
1176,83.0,0.0,150.0,0.0,0.0
1177,59.0,0.0,390.0,12.0,0.0
1178,54.0,0.0,150.0,3.0,0.0
1179,47.0,0.0,390.0,14.0,0.0
1180,59.0,0.0,150.0,2.0,0.0
1181,51.0,0.0,150.0,2.0,0.0
1182,71.0,162.0,90.0,11.0,0.0
1183,71.0,0.0,90.0,10.0,0.0
1184,75.0,0.0,120.0,10.0,0.0
1185,75.0,0.0,150.0,1.0,0.0
1186,75.0,24.0,120.0,11.0,0.0
1187,54.0,0.0,150.0,3.0,0.0
1188,59.0,0.0,150.0,2.0,0.0
1189,51.0,42.0,150.0,2.0,0.0
1190,83.0,0.0,150.0,0.0,0.0
1191,78.0,0.0,150.0,1.0,0.0
1192,63.0,0.0,150.0,3.0,0.0
1193,71.0,120.0,90.0,11.0,0.0
1194,71.0,0.0,90.0,10.0,0.0
1195,75.0,66.0,90.0,11.0,0.0
1196,47.0,0.0,390.0,5.0,0.0
1197,75.0,0.0,90.0,10.0,0.0
1198,47.0,0.0,150.0,12.0,0.0
1199,47.0,0.0,150.0,13.0,0.0
1200,35.0,54.0,150.0,14.0,0.0
1201,73.0,0.0,90.0,11.0,0.0
1202,73.0,120.0,90.0,10.0,0.0
1203,71.0,66.0,90.0,11.0,0.0
1204,75.0,0.0,150.0,1.0,0.0
1205,59.0,0.0,150.0,12.0,0.0
1206,54.0,0.0,150.0,3.0,0.0
1207,59.0,0.0,150.0,2.0,0.0
1208,51.0,0.0,150.0,2.0,0.0
1209,83.0,42.0,150.0,0.0,0.0
1210,63.0,0.0,150.0,3.0,0.0
1211,71.0,0.0,90.0,10.0,0.0
1212,78.0,0.0,150.0,1.0,0.0
1213,47.0,0.0,150.0,14.0,0.0
1214,59.0,0.0,150.0,13.0,0.0
1215,70.0,120.0,90.0,10.0,0.0
1216,70.0,0.0,90.0,11.0,0.0
1217,54.0,0.0,150.0,3.0,0.0
1218,47.0,0.0,390.0,14.0,0.0
1219,68.0,78.0,90.0,10.0,0.0
1220,59.0,12.0,390.0,13.0,0.0
1221,83.0,0.0,150.0,0.0,0.0
1222,63.0,0.0,150.0,3.0,0.0
1223,51.0,0.0,150.0,2.0,0.0
1224,78.0,42.0,150.0,1.0,0.0
1225,75.0,0.0,150.0,1.0,0.0
1226,59.0,0.0,150.0,2.0,0.0
1227,68.0,0.0,90.0,11.0,0.0
1228,59.0,0.0,390.0,12.0,0.0
1229,66.0,120.0,90.0,10.0,0.0
1230,66.0,0.0,90.0,11.0,0.0
1231,63.0,0.0,150.0,3.0,0.0
1232,51.0,0.0,150.0,2.0,0.0
1233,64.0,0.0,90.0,10.0,0.0
1234,59.0,0.0,150.0,2.0,0.0
1235,83.0,0.0,150.0,0.0,0.0
1236,78.0,42.0,150.0,1.0,0.0
1237,54.0,0.0,150.0,3.0,0.0
1238,64.0,66.0,90.0,11.0,0.0
1239,75.0,0.0,150.0,1.0,0.0
1240,63.0,0.0,90.0,11.0,0.0
1241,63.0,162.0,90.0,10.0,0.0
1242,59.0,0.0,1350.0,4.0,0.0
1243,35.0,0.0,150.0,14.0,0.0
1244,61.0,0.0,120.0,10.0,0.0
1245,61.0,24.0,120.0,11.0,0.0
1246,47.0,0.0,390.0,5.0,0.0
1247,47.0,54.0,150.0,13.0,0.0
1248,47.0,0.0,150.0,12.0,0.0
1249,71.0,0.0,1350.0,4.0,0.0
1250,68.0,0.0,90.0,10.0,0.0
1251,68.0,162.0,90.0,11.0,0.0
1252,61.0,0.0,150.0,3.0,0.0
1253,77.0,0.0,120.0,11.0,0.0
1254,59.0,0.0,150.0,12.0,0.0
1255,77.0,24.0,120.0,10.0,0.0
1256,65.0,42.0,150.0,3.0,0.0
1257,47.0,12.0,150.0,14.0,0.0
1258,80.0,0.0,150.0,0.0,0.0
1259,73.0,0.0,150.0,1.0,0.0
1260,77.0,0.0,150.0,1.0,0.0
1261,53.0,0.0,150.0,2.0,0.0
1262,56.0,0.0,150.0,2.0,0.0
1263,59.0,0.0,150.0,13.0,0.0
1264,68.0,0.0,90.0,10.0,0.0
1265,68.0,162.0,90.0,11.0,0.0
1266,47.0,12.0,390.0,5.0,0.0
1267,47.0,0.0,390.0,14.0,0.0
1268,59.0,0.0,390.0,12.0,0.0
1269,73.0,0.0,150.0,1.0,0.0
1270,77.0,0.0,150.0,1.0,0.0
1271,80.0,42.0,150.0,0.0,0.0
1272,77.0,0.0,120.0,11.0,0.0
1273,53.0,0.0,150.0,2.0,0.0
1274,56.0,0.0,150.0,2.0,0.0
1275,77.0,36.0,120.0,10.0,0.0
1276,65.0,0.0,150.0,3.0,0.0
1277,61.0,0.0,150.0,3.0,0.0
1278,59.0,0.0,390.0,13.0,0.0
1279,68.0,162.0,90.0,10.0,0.0
1280,68.0,0.0,90.0,11.0,0.0
1281,77.0,0.0,150.0,1.0,0.0
1282,77.0,24.0,120.0,11.0,0.0
1283,56.0,42.0,150.0,2.0,0.0
1284,73.0,0.0,150.0,1.0,0.0
1285,61.0,0.0,150.0,3.0,0.0
1286,80.0,0.0,150.0,0.0,0.0
1287,65.0,0.0,150.0,3.0,0.0
1288,77.0,0.0,120.0,10.0,0.0
1289,53.0,0.0,150.0,2.0,0.0
1290,68.0,0.0,90.0,11.0,0.0
1291,68.0,120.0,90.0,10.0,0.0
1292,77.0,0.0,90.0,11.0,0.0
1293,35.0,0.0,150.0,14.0,0.0
1294,47.0,0.0,150.0,12.0,0.0
1295,47.0,54.0,150.0,13.0,0.0
1296,47.0,0.0,390.0,5.0,0.0
1297,77.0,66.0,90.0,10.0,0.0
1298,75.0,0.0,90.0,11.0,0.0
1299,75.0,120.0,90.0,10.0,0.0
1300,77.0,0.0,150.0,1.0,0.0
1301,80.0,0.0,150.0,0.0,0.0
1302,73.0,0.0,150.0,1.0,0.0
1303,73.0,0.0,90.0,10.0,0.0
1304,61.0,0.0,150.0,3.0,0.0
1305,56.0,0.0,150.0,2.0,0.0
1306,73.0,66.0,90.0,11.0,0.0
1307,59.0,0.0,150.0,13.0,0.0
1308,59.0,0.0,150.0,12.0,0.0
1309,47.0,12.0,150.0,14.0,0.0
1310,65.0,42.0,150.0,3.0,0.0
1311,53.0,0.0,150.0,2.0,0.0
1312,71.0,120.0,90.0,11.0,0.0
1313,71.0,0.0,90.0,10.0,0.0
1314,59.0,12.0,390.0,13.0,0.0
1315,53.0,42.0,150.0,2.0,0.0
1316,56.0,0.0,150.0,2.0,0.0
1317,59.0,0.0,390.0,12.0,0.0
1318,65.0,0.0,150.0,3.0,0.0
1319,61.0,0.0,150.0,3.0,0.0
1320,47.0,0.0,390.0,14.0,0.0
1321,80.0,0.0,150.0,0.0,0.0
1322,70.0,0.0,90.0,11.0,0.0
1323,70.0,78.0,90.0,10.0,0.0
1324,73.0,0.0,150.0,1.0,0.0
1325,77.0,0.0,150.0,1.0,0.0
1326,68.0,0.0,90.0,11.0,0.0
1327,68.0,120.0,90.0,10.0,0.0
1328,61.0,0.0,150.0,3.0,0.0
1329,65.0,0.0,150.0,3.0,0.0
1330,53.0,42.0,150.0,2.0,0.0
1331,66.0,0.0,90.0,10.0,0.0
1332,73.0,0.0,150.0,1.0,0.0
1333,77.0,0.0,150.0,1.0,0.0
1334,80.0,0.0,150.0,0.0,0.0
1335,66.0,66.0,90.0,11.0,0.0
1336,56.0,0.0,150.0,2.0,0.0
1337,65.0,162.0,90.0,10.0,0.0
1338,65.0,0.0,90.0,11.0,0.0
1339,66.0,24.0,120.0,11.0,0.0
1340,66.0,0.0,120.0,10.0,0.0
1341,54.0,0.0,1350.0,4.0,0.0
1342,46.0,54.0,150.0,12.0,0.0
1343,66.0,0.0,1350.0,4.0,0.0
1344,46.0,0.0,150.0,13.0,0.0
1345,34.0,0.0,150.0,14.0,0.0
1346,42.0,0.0,390.0,5.0,0.0
1347,73.0,0.0,90.0,10.0,0.0
1348,73.0,162.0,90.0,11.0,0.0
1349,78.0,24.0,120.0,10.0,0.0
1350,46.0,0.0,150.0,14.0,0.0
1351,58.0,12.0,150.0,13.0,0.0
1352,61.0,0.0,150.0,3.0,0.0
1353,66.0,0.0,150.0,3.0,0.0
1354,58.0,0.0,150.0,12.0,0.0
1355,73.0,0.0,150.0,1.0,0.0
1356,58.0,42.0,150.0,2.0,0.0
1357,54.0,0.0,150.0,2.0,0.0
1358,78.0,0.0,150.0,1.0,0.0
1359,82.0,0.0,150.0,0.0,0.0
1360,78.0,0.0,120.0,11.0,0.0
1361,73.0,162.0,90.0,11.0,0.0
1362,73.0,0.0,90.0,10.0,0.0
1363,78.0,42.0,150.0,1.0,0.0
1364,58.0,0.0,390.0,13.0,0.0
1365,42.0,0.0,390.0,5.0,0.0
1366,66.0,0.0,150.0,3.0,0.0
1367,61.0,0.0,150.0,3.0,0.0
1368,73.0,0.0,150.0,1.0,0.0
1369,54.0,0.0,150.0,2.0,0.0
1370,58.0,0.0,390.0,12.0,0.0
1371,82.0,0.0,150.0,0.0,0.0
1372,46.0,12.0,390.0,14.0,0.0
1373,78.0,36.0,120.0,10.0,0.0
1374,78.0,0.0,120.0,11.0,0.0
1375,58.0,0.0,150.0,2.0,0.0
1376,73.0,162.0,90.0,11.0,0.0
1377,73.0,0.0,90.0,10.0,0.0
1378,78.0,24.0,120.0,10.0,0.0
1379,82.0,0.0,150.0,0.0,0.0
1380,54.0,0.0,150.0,2.0,0.0
1381,73.0,0.0,150.0,1.0,0.0
1382,78.0,0.0,150.0,1.0,0.0
1383,61.0,42.0,150.0,3.0,0.0
1384,66.0,0.0,150.0,3.0,0.0
1385,58.0,0.0,150.0,2.0,0.0
1386,78.0,0.0,120.0,11.0,0.0
1387,73.0,120.0,90.0,11.0,0.0
1388,73.0,0.0,90.0,10.0,0.0
1389,46.0,54.0,150.0,12.0,0.0
1390,42.0,12.0,390.0,5.0,0.0
1391,34.0,0.0,150.0,14.0,0.0
1392,46.0,0.0,150.0,13.0,0.0
1393,78.0,0.0,90.0,10.0,0.0
1394,78.0,66.0,90.0,11.0,0.0
1395,77.0,120.0,90.0,10.0,0.0
1396,77.0,0.0,90.0,11.0,0.0
1397,54.0,0.0,150.0,2.0,0.0
1398,75.0,66.0,90.0,11.0,0.0
1399,82.0,42.0,150.0,0.0,0.0
1400,75.0,0.0,90.0,10.0,0.0
1401,58.0,0.0,150.0,2.0,0.0
1402,61.0,0.0,150.0,3.0,0.0
1403,58.0,0.0,150.0,12.0,0.0
1404,66.0,0.0,150.0,3.0,0.0
1405,78.0,0.0,150.0,1.0,0.0
1406,46.0,0.0,150.0,14.0,0.0
1407,58.0,0.0,150.0,13.0,0.0
1408,73.0,0.0,150.0,1.0,0.0
1409,73.0,0.0,90.0,10.0,0.0
1410,73.0,120.0,90.0,11.0,0.0
1411,61.0,0.0,150.0,3.0,0.0
1412,78.0,0.0,150.0,1.0,0.0
1413,82.0,0.0,150.0,0.0,0.0
1414,46.0,0.0,390.0,14.0,0.0
1415,58.0,42.0,150.0,2.0,0.0
1416,71.0,0.0,90.0,11.0,0.0
1417,58.0,12.0,390.0,12.0,0.0
1418,71.0,78.0,90.0,10.0,0.0
1419,54.0,0.0,150.0,2.0,0.0
1420,58.0,0.0,390.0,13.0,0.0
1421,66.0,0.0,150.0,3.0,0.0
1422,73.0,0.0,150.0,1.0,0.0
1423,70.0,0.0,90.0,10.0,0.0
1424,70.0,120.0,90.0,11.0,0.0
1425,54.0,0.0,150.0,2.0,0.0
1426,58.0,0.0,150.0,2.0,0.0
1427,73.0,0.0,150.0,1.0,0.0
1428,78.0,42.0,150.0,1.0,0.0
1429,82.0,0.0,150.0,0.0,0.0
1430,61.0,0.0,150.0,3.0,0.0
1431,66.0,0.0,150.0,3.0,0.0
1432,68.0,0.0,90.0,10.0,0.0
1433,68.0,66.0,90.0,11.0,0.0
1434,66.0,0.0,90.0,10.0,0.0
1435,66.0,162.0,90.0,11.0,0.0
1436,51.0,54.0,150.0,12.0,0.0
1437,39.0,0.0,150.0,13.0,0.0
1438,66.0,0.0,1350.0,4.0,0.0
1439,72.0,0.0,120.0,11.0,0.0
1440,42.0,0.0,390.0,5.0,0.0
1441,27.0,0.0,150.0,14.0,0.0
1442,72.0,24.0,120.0,10.0,0.0
1443,54.0,0.0,1350.0,4.0,0.0
1444,75.0,0.0,90.0,10.0,0.0
1445,75.0,162.0,90.0,11.0,0.0
1446,60.0,0.0,150.0,2.0,0.0
1447,84.0,0.0,150.0,0.0,0.0
1448,39.0,12.0,150.0,14.0,0.0
1449,51.0,0.0,150.0,13.0,0.0
1450,63.0,0.0,150.0,12.0,0.0
1451,54.0,0.0,150.0,3.0,0.0
1452,78.0,0.0,120.0,11.0,0.0
1453,72.0,0.0,150.0,1.0,0.0
1454,78.0,42.0,150.0,1.0,0.0
1455,78.0,24.0,120.0,10.0,0.0
1456,66.0,0.0,150.0,3.0,0.0
1457,51.0,0.0,150.0,2.0,0.0
1458,75.0,0.0,90.0,11.0,0.0
1459,75.0,162.0,90.0,10.0,0.0
1460,51.0,0.0,390.0,13.0,0.0
1461,84.0,0.0,150.0,0.0,0.0
1462,78.0,36.0,120.0,10.0,0.0
1463,78.0,0.0,120.0,11.0,0.0
1464,51.0,0.0,150.0,2.0,0.0
1465,78.0,0.0,150.0,1.0,0.0
1466,72.0,42.0,150.0,1.0,0.0
1467,63.0,12.0,390.0,12.0,0.0
1468,39.0,0.0,390.0,14.0,0.0
1469,60.0,0.0,150.0,2.0,0.0
1470,66.0,0.0,150.0,3.0,0.0
1471,54.0,0.0,150.0,3.0,0.0
1472,42.0,0.0,390.0,5.0,0.0
1473,75.0,162.0,90.0,11.0,0.0
1474,75.0,0.0,90.0,10.0,0.0
1475,72.0,0.0,150.0,1.0,0.0
1476,78.0,0.0,120.0,11.0,0.0
1477,78.0,24.0,120.0,10.0,0.0
1478,60.0,0.0,150.0,2.0,0.0
1479,84.0,0.0,150.0,0.0,0.0
1480,54.0,0.0,150.0,3.0,0.0
1481,66.0,0.0,150.0,3.0,0.0
1482,51.0,42.0,150.0,2.0,0.0
1483,78.0,0.0,150.0,1.0,0.0
1484,75.0,120.0,90.0,11.0,0.0
1485,75.0,0.0,90.0,10.0,0.0
1486,39.0,0.0,150.0,13.0,0.0
1487,78.0,0.0,90.0,11.0,0.0
1488,78.0,66.0,90.0,10.0,0.0
1489,42.0,12.0,390.0,5.0,0.0
1490,51.0,0.0,150.0,12.0,0.0
1491,28.0,54.0,150.0,14.0,0.0
1492,77.0,0.0,90.0,11.0,0.0
1493,77.0,120.0,90.0,10.0,0.0
1494,51.0,0.0,150.0,13.0,0.0
1495,75.0,66.0,90.0,11.0,0.0
1496,72.0,0.0,150.0,1.0,0.0
1497,66.0,0.0,150.0,3.0,0.0
1498,78.0,0.0,150.0,1.0,0.0
1499,51.0,0.0,150.0,2.0,0.0
1500,60.0,0.0,150.0,2.0,0.0
1501,39.0,0.0,150.0,14.0,0.0
1502,75.0,0.0,90.0,10.0,0.0
1503,54.0,0.0,150.0,3.0,0.0
1504,84.0,42.0,150.0,0.0,0.0
1505,63.0,0.0,150.0,12.0,0.0
1506,73.0,0.0,90.0,10.0,0.0
1507,73.0,120.0,90.0,11.0,0.0
1508,72.0,0.0,90.0,10.0,0.0
1509,78.0,0.0,150.0,1.0,0.0
1510,72.0,0.0,150.0,1.0,0.0
1511,72.0,78.0,90.0,11.0,0.0
1512,84.0,42.0,150.0,0.0,0.0
1513,51.0,0.0,150.0,2.0,0.0
1514,39.0,0.0,390.0,14.0,0.0
1515,51.0,0.0,390.0,13.0,0.0
1516,54.0,0.0,150.0,3.0,0.0
1517,66.0,0.0,150.0,3.0,0.0
1518,60.0,0.0,150.0,2.0,0.0
1519,63.0,12.0,390.0,12.0,0.0
1520,70.0,0.0,90.0,10.0,0.0
1521,70.0,120.0,90.0,11.0,0.0
1522,68.0,0.0,90.0,10.0,0.0
1523,60.0,0.0,150.0,2.0,0.0
1524,51.0,42.0,150.0,2.0,0.0
1525,54.0,0.0,150.0,3.0,0.0
1526,66.0,0.0,150.0,3.0,0.0
1527,68.0,66.0,90.0,11.0,0.0
1528,78.0,0.0,150.0,1.0,0.0
1529,72.0,0.0,150.0,1.0,0.0
1530,84.0,0.0,150.0,0.0,0.0
1531,66.0,120.0,90.0,10.0,0.0
1532,66.0,0.0,90.0,11.0,0.0
1533,65.0,0.0,90.0,11.0,0.0
1534,73.0,0.0,150.0,1.0,0.0
1535,85.0,42.0,150.0,0.0,0.0
1536,77.0,0.0,150.0,1.0,0.0
1537,65.0,66.0,90.0,10.0,0.0
1538,37.0,0.0,150.0,13.0,0.0
1539,25.0,0.0,150.0,14.0,0.0
1540,53.0,0.0,150.0,2.0,0.0
1541,73.0,0.0,390.0,4.0,0.0
1542,61.0,0.0,150.0,2.0,0.0
1543,61.0,0.0,150.0,3.0,0.0
1544,49.0,12.0,150.0,12.0,0.0
1545,77.0,120.0,90.0,10.0,0.0
1546,77.0,0.0,90.0,11.0,0.0
1547,75.0,66.0,90.0,10.0,0.0
1548,53.0,0.0,150.0,2.0,0.0
1549,61.0,0.0,150.0,2.0,0.0
1550,37.0,0.0,150.0,14.0,0.0
1551,75.0,0.0,90.0,11.0,0.0
1552,73.0,0.0,150.0,1.0,0.0
1553,77.0,0.0,150.0,1.0,0.0
1554,49.0,12.0,150.0,13.0,0.0
1555,85.0,0.0,150.0,0.0,0.0
1556,61.0,42.0,150.0,3.0,0.0
1557,61.0,0.0,150.0,12.0,0.0
1558,73.0,120.0,90.0,11.0,0.0
1559,73.0,0.0,90.0,10.0,0.0
1560,75.0,0.0,150.0,1.0,0.0
1561,78.0,0.0,150.0,1.0,0.0
1562,63.0,0.0,150.0,3.0,0.0
1563,72.0,0.0,90.0,11.0,0.0
1564,60.0,0.0,150.0,2.0,0.0
1565,49.0,12.0,150.0,13.0,0.0
1566,54.0,0.0,150.0,2.0,0.0
1567,72.0,66.0,90.0,10.0,0.0
1568,61.0,0.0,150.0,12.0,0.0
1569,84.0,42.0,150.0,0.0,0.0
1570,37.0,0.0,150.0,14.0,0.0
1571,78.0,0.0,90.0,10.0,0.0
1572,78.0,120.0,90.0,11.0,0.0
1573,49.0,0.0,150.0,13.0,0.0
1574,84.0,42.0,150.0,0.0,0.0
1575,75.0,66.0,90.0,11.0,0.0
1576,63.0,0.0,150.0,3.0,0.0
1577,75.0,0.0,150.0,1.0,0.0
1578,61.0,12.0,150.0,12.0,0.0
1579,60.0,0.0,150.0,2.0,0.0
1580,54.0,0.0,150.0,2.0,0.0
1581,37.0,0.0,150.0,14.0,0.0
1582,75.0,0.0,90.0,10.0,0.0
1583,78.0,0.0,150.0,1.0,0.0
1584,72.0,120.0,90.0,10.0,0.0
1585,72.0,0.0,90.0,11.0,0.0
1586,85.0,42.0,150.0,0.0,0.0
1587,73.0,0.0,150.0,1.0,0.0
1588,77.0,0.0,150.0,1.0,0.0
1589,49.0,0.0,150.0,13.0,0.0
1590,53.0,0.0,150.0,2.0,0.0
1591,73.0,0.0,90.0,10.0,0.0
1592,61.0,0.0,150.0,3.0,0.0
1593,61.0,0.0,150.0,2.0,0.0
1594,61.0,0.0,150.0,12.0,0.0
1595,37.0,12.0,150.0,14.0,0.0
1596,73.0,0.0,390.0,4.0,0.0
1597,73.0,66.0,90.0,11.0,0.0
1598,77.0,0.0,90.0,11.0,0.0
1599,77.0,120.0,90.0,10.0,0.0
1600,61.0,0.0,150.0,3.0,0.0
1601,85.0,42.0,150.0,0.0,0.0
1602,61.0,0.0,150.0,12.0,0.0
1603,75.0,0.0,90.0,10.0,0.0
1604,77.0,0.0,150.0,1.0,0.0
1605,73.0,0.0,150.0,1.0,0.0
1606,37.0,0.0,150.0,14.0,0.0
1607,53.0,0.0,150.0,2.0,0.0
1608,61.0,0.0,150.0,2.0,0.0
1609,49.0,12.0,150.0,13.0,0.0
1610,75.0,66.0,90.0,11.0,0.0
1611,73.0,0.0,90.0,10.0,0.0
1612,73.0,120.0,90.0,11.0,0.0
1613,49.0,12.0,150.0,13.0,0.0
1614,72.0,66.0,90.0,10.0,0.0
1615,37.0,0.0,150.0,14.0,0.0
1616,63.0,0.0,150.0,3.0,0.0
1617,54.0,0.0,150.0,2.0,0.0
1618,60.0,0.0,150.0,2.0,0.0
1619,61.0,0.0,150.0,12.0,0.0
1620,84.0,42.0,150.0,0.0,0.0
1621,72.0,0.0,90.0,11.0,0.0
1622,78.0,0.0,150.0,1.0,0.0
1623,75.0,0.0,150.0,1.0,0.0
1624,78.0,0.0,90.0,10.0,0.0
1625,78.0,120.0,90.0,11.0,0.0
1626,75.0,66.0,90.0,11.0,0.0
1627,60.0,42.0,150.0,2.0,0.0
1628,54.0,0.0,150.0,2.0,0.0
1629,78.0,0.0,150.0,1.0,0.0
1630,37.0,12.0,150.0,14.0,0.0
1631,75.0,0.0,150.0,1.0,0.0
1632,63.0,0.0,150.0,3.0,0.0
1633,61.0,0.0,150.0,12.0,0.0
1634,49.0,0.0,150.0,13.0,0.0
1635,84.0,0.0,150.0,0.0,0.0
1636,75.0,0.0,90.0,10.0,0.0
1637,72.0,0.0,90.0,10.0,0.0
1638,72.0,198.0,90.0,11.0,0.0
1639,53.0,0.0,150.0,2.0,0.0
1640,37.0,0.0,150.0,14.0,0.0
1641,61.0,0.0,150.0,3.0,0.0
1642,61.0,0.0,150.0,12.0,0.0
1643,73.0,12.0,390.0,4.0,0.0
1644,49.0,162.0,150.0,13.0,0.0
1645,73.0,0.0,150.0,1.0,0.0
1646,77.0,0.0,150.0,1.0,0.0
1647,73.0,0.0,150.0,11.0,0.0
1648,85.0,0.0,150.0,0.0,0.0
1649,61.0,0.0,150.0,2.0,0.0
1650,73.0,0.0,150.0,10.0,0.0
1651,53.0,0.0,90.0,11.0,0.0
1652,25.0,0.0,150.0,14.0,0.0
1653,61.0,0.0,90.0,11.0,0.0
1654,56.0,0.0,150.0,2.0,0.0
1655,53.0,0.0,150.0,2.0,0.0
1656,53.0,0.0,90.0,10.0,0.0
1657,37.0,42.0,150.0,13.0,0.0
1658,49.0,0.0,150.0,12.0,0.0
1659,73.0,0.0,150.0,0.0,0.0
1660,68.0,0.0,150.0,1.0,0.0
1661,61.0,0.0,150.0,3.0,0.0
1662,61.0,66.0,90.0,10.0,0.0
1663,65.0,0.0,150.0,1.0,0.0
1664,61.0,0.0,90.0,10.0,0.0
1665,53.0,198.0,90.0,10.0,0.0
1666,53.0,0.0,90.0,11.0,0.0
1667,61.0,0.0,90.0,11.0,0.0
1668,65.0,0.0,150.0,1.0,0.0
1669,73.0,12.0,390.0,4.0,0.0
1670,37.0,0.0,150.0,13.0,0.0
1671,68.0,0.0,150.0,1.0,0.0
1672,73.0,0.0,150.0,0.0,0.0
1673,56.0,228.0,150.0,2.0,0.0
1674,61.0,0.0,150.0,3.0,0.0
1675,61.0,0.0,150.0,10.0,0.0
1676,53.0,0.0,150.0,10.0,0.0
1677,49.0,0.0,150.0,12.0,0.0
1678,53.0,0.0,150.0,2.0,0.0
1679,25.0,0.0,150.0,14.0,0.0
1680,53.0,0.0,150.0,11.0,0.0
1681,61.0,0.0,150.0,11.0,0.0
1682,53.0,0.0,150.0,11.0,0.0
1683,61.0,0.0,150.0,3.0,0.0
1684,56.0,468.0,150.0,2.0,0.0
1685,25.0,0.0,150.0,14.0,0.0
1686,73.0,0.0,150.0,0.0,0.0
1687,65.0,0.0,150.0,1.0,0.0
1688,68.0,0.0,150.0,1.0,0.0
1689,53.0,0.0,150.0,2.0,0.0
1690,37.0,0.0,150.0,13.0,0.0
1691,49.0,0.0,150.0,12.0,0.0
1692,53.0,0.0,150.0,10.0,0.0
1693,61.0,0.0,150.0,10.0,0.0
1694,61.0,0.0,150.0,11.0,0.0
1695,53.0,0.0,390.0,11.0,0.0
1696,73.0,0.0,390.0,0.0,0.0
1697,53.0,408.0,390.0,2.0,0.0
1698,61.0,0.0,390.0,10.0,0.0
1699,53.0,0.0,390.0,10.0,0.0
1700,56.0,0.0,390.0,2.0,0.0
1701,61.0,0.0,390.0,11.0,0.0
1702,61.0,0.0,390.0,3.0,0.0
1703,73.0,0.0,390.0,4.0,0.0
1704,68.0,0.0,390.0,1.0,0.0
1705,37.0,0.0,390.0,13.0,0.0
1706,49.0,0.0,390.0,12.0,0.0
1707,65.0,0.0,390.0,1.0,0.0
1708,25.0,0.0,390.0,14.0,0.0
1709,70.0,120.0,60.0,10.0,0.0
1710,71.0,168.0,60.0,10.0,0.0
1711,58.0,72.0,120.0,11.0,0.0
1712,73.0,0.0,120.0,10.0,0.0
1713,71.0,48.0,60.0,10.0,0.0
1714,61.0,72.0,120.0,11.0,0.0
1715,58.0,72.0,120.0,11.0,0.0
1716,70.0,48.0,60.0,10.0,0.0
1717,61.0,120.0,120.0,11.0,0.0
1718,68.0,48.0,60.0,10.0,0.0
1719,66.0,96.0,150.0,10.0,0.0
1720,58.0,24.0,120.0,11.0,0.0
1721,61.0,120.0,120.0,11.0,0.0
1722,80.0,0.0,150.0,0.0,0.0
1723,58.0,24.0,120.0,11.0,0.0
1724,56.0,0.0,150.0,2.0,0.0
1725,68.0,48.0,150.0,1.0,0.0
1726,61.0,168.0,60.0,11.0,0.0
1727,73.0,120.0,720.0,0.0,0.0
1728,59.0,120.0,120.0,11.0,0.0
1729,49.0,0.0,720.0,2.0,0.0
1730,61.0,0.0,720.0,1.0,0.0
1731,61.0,120.0,120.0,11.0,0.0
1732,73.0,96.0,150.0,10.0,0.0
1733,59.0,24.0,120.0,11.0,0.0
1734,61.0,120.0,120.0,11.0,0.0
1735,59.0,24.0,120.0,11.0,0.0
1736,73.0,96.0,150.0,10.0,0.0
1737,61.0,0.0,120.0,11.0,0.0
1738,75.0,0.0,120.0,0.0,0.0
1739,63.0,24.0,120.0,1.0,0.0
1740,51.0,0.0,120.0,2.0,0.0
1741,59.0,0.0,120.0,11.0,0.0
1742,73.0,48.0,150.0,10.0,0.0
1743,61.0,48.0,60.0,11.0,0.0
1744,77.0,0.0,120.0,0.0,0.0
1745,53.0,0.0,120.0,2.0,0.0
1746,65.0,120.0,120.0,1.0,0.0
1747,78.0,0.0,180.0,0.0,0.0
1748,54.0,0.0,180.0,2.0,0.0
1749,73.0,120.0,240.0,10.0,0.0
1750,58.0,72.0,120.0,11.0,0.0
1751,66.0,48.0,180.0,1.0,0.0
1752,61.0,0.0,120.0,11.0,0.0
1753,58.0,120.0,120.0,11.0,0.0
1754,75.0,0.0,120.0,10.0,0.0
1755,77.0,0.0,120.0,10.0,0.0
1756,61.0,120.0,120.0,11.0,0.0
1757,58.0,120.0,120.0,11.0,0.0
1758,78.0,0.0,120.0,10.0,0.0
1759,77.0,120.0,120.0,10.0,0.0
1760,61.0,0.0,120.0,11.0,0.0
1761,58.0,0.0,120.0,11.0,0.0
1762,75.0,72.0,120.0,10.0,0.0
1763,73.0,84.0,90.0,10.0,0.0
1764,61.0,24.0,60.0,11.0,0.0
1765,56.0,48.0,120.0,11.0,0.0
1766,73.0,60.0,60.0,10.0,0.0
1767,71.0,72.0,120.0,10.0,0.0
1768,61.0,120.0,120.0,11.0,0.0
1769,71.0,96.0,150.0,10.0,0.0
1770,56.0,24.0,120.0,11.0,0.0
1771,61.0,60.0,120.0,11.0,0.0
1772,71.0,60.0,60.0,10.0,0.0
1773,54.0,48.0,120.0,11.0,0.0
1774,70.0,72.0,120.0,10.0,0.0
1775,61.0,120.0,120.0,11.0,0.0
1776,70.0,48.0,150.0,10.0,0.0
1777,54.0,24.0,120.0,11.0,0.0
1778,61.0,108.0,60.0,11.0,0.0
1779,70.0,60.0,60.0,10.0,0.0
1780,59.0,48.0,120.0,11.0,0.0
1781,68.0,72.0,120.0,10.0,0.0
1782,63.0,120.0,120.0,11.0,0.0
1783,59.0,24.0,120.0,11.0,0.0
1784,68.0,96.0,150.0,10.0,0.0
1785,63.0,60.0,120.0,11.0,0.0
1786,68.0,60.0,60.0,10.0,0.0
1787,60.0,48.0,120.0,11.0,0.0
1788,66.0,72.0,120.0,10.0,0.0
1789,63.0,120.0,120.0,11.0,0.0
1790,66.0,48.0,150.0,10.0,0.0
1791,60.0,24.0,120.0,11.0,0.0
1792,63.0,432.0,60.0,11.0,0.0
1793,61.0,96.0,390.0,11.0,0.0
1794,65.0,144.0,480.0,10.0,0.0
1795,68.0,168.0,150.0,10.0,0.0
1796,70.0,120.0,60.0,10.0,0.0
1797,71.0,168.0,60.0,10.0,0.0
1798,73.0,0.0,120.0,10.0,0.0
1799,58.0,72.0,120.0,11.0,0.0
1800,71.0,48.0,60.0,10.0,0.0
1801,61.0,72.0,120.0,11.0,0.0
1802,70.0,48.0,60.0,10.0,0.0
1803,58.0,72.0,120.0,11.0,0.0
1804,61.0,120.0,120.0,11.0,0.0
1805,68.0,48.0,60.0,10.0,0.0
1806,58.0,24.0,120.0,11.0,0.0
1807,66.0,96.0,150.0,10.0,0.0
1808,61.0,120.0,120.0,11.0,0.0
1809,68.0,0.0,150.0,1.0,0.0
1810,56.0,0.0,150.0,2.0,0.0
1811,58.0,24.0,120.0,11.0,0.0
1812,80.0,48.0,150.0,0.0,0.0
1813,61.0,168.0,60.0,11.0,0.0
1814,59.0,120.0,120.0,11.0,0.0
1815,49.0,0.0,720.0,2.0,0.0
1816,73.0,120.0,720.0,0.0,0.0
1817,61.0,0.0,720.0,1.0,0.0
1818,61.0,120.0,120.0,11.0,0.0
1819,59.0,24.0,120.0,11.0,0.0
1820,73.0,96.0,150.0,10.0,0.0
1821,61.0,120.0,120.0,11.0,0.0
1822,73.0,96.0,150.0,10.0,0.0
1823,59.0,24.0,120.0,11.0,0.0
1824,61.0,0.0,120.0,11.0,0.0
1825,59.0,0.0,120.0,11.0,0.0
1826,63.0,24.0,120.0,1.0,0.0
1827,73.0,48.0,150.0,10.0,0.0
1828,51.0,0.0,120.0,2.0,0.0
1829,75.0,0.0,120.0,0.0,0.0
1830,53.0,120.0,120.0,2.0,0.0
1831,65.0,0.0,120.0,1.0,0.0
1832,77.0,0.0,120.0,0.0,0.0
1833,61.0,48.0,60.0,11.0,0.0
1834,54.0,0.0,180.0,2.0,0.0
1835,66.0,0.0,180.0,1.0,0.0
1836,78.0,48.0,180.0,0.0,0.0
1837,73.0,0.0,180.0,10.0,0.0
1838,57.0,72.0,120.0,11.0,0.0
1839,61.0,96.0,120.0,11.0,0.0
1840,75.0,24.0,90.0,10.0,0.0
1841,57.0,96.0,120.0,11.0,0.0
1842,61.0,96.0,120.0,11.0,0.0
1843,77.0,24.0,90.0,10.0,0.0
1844,57.0,96.0,120.0,11.0,0.0
1845,78.0,24.0,90.0,10.0,0.0
1846,76.0,24.0,90.0,10.0,0.0
1847,61.0,96.0,120.0,11.0,0.0
1848,57.0,72.0,120.0,11.0,0.0
1849,74.0,24.0,90.0,10.0,0.0
1850,61.0,24.0,60.0,11.0,0.0
1851,73.0,84.0,90.0,10.0,0.0
1852,73.0,60.0,60.0,10.0,0.0
1853,56.0,48.0,120.0,11.0,0.0
1854,71.0,72.0,120.0,10.0,0.0
1855,61.0,120.0,120.0,11.0,0.0
1856,56.0,24.0,120.0,11.0,0.0
1857,71.0,96.0,150.0,10.0,0.0
1858,61.0,60.0,120.0,11.0,0.0
1859,71.0,60.0,60.0,10.0,0.0
1860,54.0,48.0,120.0,11.0,0.0
1861,69.0,72.0,120.0,10.0,0.0
1862,61.0,120.0,120.0,11.0,0.0
1863,54.0,24.0,120.0,11.0,0.0
1864,69.0,48.0,150.0,10.0,0.0
1865,61.0,168.0,60.0,11.0,0.0
1866,59.0,120.0,960.0,2.0,0.0
1867,62.0,120.0,1920.0,2.0,0.0
1868,59.0,120.0,120.0,11.0,0.0
1869,69.0,0.0,120.0,10.0,0.0
1870,62.0,120.0,120.0,11.0,0.0
1871,67.0,48.0,750.0,10.0,0.0
1872,59.0,120.0,120.0,11.0,0.0
1873,62.0,120.0,120.0,11.0,0.0
1874,59.0,120.0,120.0,11.0,0.0
1875,62.0,120.0,120.0,11.0,0.0
1876,59.0,24.0,120.0,11.0,0.0
1877,62.0,48.0,60.0,11.0,0.0
1878,58.0,0.0,120.0,11.0,0.0
1879,66.0,120.0,120.0,10.0,0.0
1880,58.0,0.0,960.0,2.0,0.0
1881,62.0,120.0,120.0,11.0,0.0
1882,67.0,48.0,750.0,10.0,0.0
1883,58.0,120.0,120.0,11.0,0.0
1884,62.0,120.0,120.0,11.0,0.0
1885,58.0,120.0,120.0,11.0,0.0
1886,62.0,120.0,120.0,11.0,0.0
1887,58.0,24.0,120.0,11.0,0.0
1888,62.0,48.0,60.0,11.0,0.0
1889,49.0,0.0,1860.0,12.0,0.0
1890,52.0,0.0,1860.0,12.0,0.0
1891,45.0,0.0,390.0,13.0,0.0
1892,33.0,96.0,390.0,14.0,0.0
1893,57.0,120.0,120.0,11.0,0.0
1894,57.0,0.0,390.0,2.0,0.0
1895,61.0,0.0,390.0,2.0,0.0
1896,67.0,0.0,240.0,10.0,0.0
1897,61.0,120.0,120.0,11.0,0.0
1898,64.0,24.0,120.0,11.0,0.0
1899,79.0,72.0,480.0,10.0,0.0
1900,61.0,120.0,120.0,11.0,0.0
1901,64.0,120.0,120.0,11.0,0.0
1902,61.0,0.0,120.0,11.0,0.0
1903,76.0,0.0,480.0,10.0,0.0
1904,52.0,48.0,60.0,2.0,0.0
1905,64.0,72.0,120.0,11.0,0.0
1906,61.0,168.0,60.0,11.0,0.0
1907,54.0,0.0,60.0,2.0,0.0
1908,55.0,0.0,120.0,2.0,0.0
1909,45.0,0.0,390.0,14.0,0.0
1910,57.0,48.0,390.0,13.0,0.0
1911,57.0,72.0,120.0,11.0,0.0
1912,54.0,48.0,60.0,2.0,0.0
1913,61.0,72.0,120.0,11.0,0.0
1914,73.0,0.0,480.0,10.0,0.0
1915,64.0,24.0,120.0,11.0,0.0
1916,52.0,48.0,60.0,2.0,0.0
1917,50.0,48.0,60.0,2.0,0.0
1918,61.0,120.0,120.0,11.0,0.0
1919,49.0,96.0,150.0,2.0,0.0
1920,64.0,24.0,120.0,11.0,0.0
1921,61.0,72.0,120.0,11.0,0.0
1922,64.0,72.0,120.0,11.0,0.0
1923,67.0,168.0,180.0,10.0,0.0
1924,78.0,48.0,60.0,0.0,0.0
1925,79.0,0.0,60.0,0.0,0.0
1926,61.0,0.0,60.0,11.0,0.0
1927,81.0,72.0,120.0,0.0,0.0
1928,50.0,0.0,1860.0,12.0,0.0
1929,45.0,48.0,390.0,13.0,0.0
1930,66.0,72.0,240.0,10.0,0.0
1931,57.0,0.0,120.0,11.0,0.0
1932,33.0,0.0,390.0,14.0,0.0
1933,54.0,0.0,1860.0,12.0,0.0
1934,79.0,48.0,60.0,0.0,0.0
1935,62.0,0.0,120.0,11.0,0.0
1936,66.0,24.0,120.0,11.0,0.0
1937,78.0,48.0,60.0,0.0,0.0
1938,81.0,72.0,480.0,10.0,0.0
1939,76.0,48.0,60.0,0.0,0.0
1940,62.0,120.0,120.0,11.0,0.0
1941,66.0,24.0,120.0,11.0,0.0
1942,74.0,96.0,150.0,0.0,0.0
1943,62.0,0.0,120.0,11.0,0.0
1944,66.0,72.0,120.0,11.0,0.0
1945,54.0,48.0,60.0,2.0,0.0
1946,78.0,72.0,480.0,10.0,0.0
1947,55.0,0.0,60.0,2.0,0.0
1948,62.0,168.0,60.0,11.0,0.0
1949,57.0,0.0,390.0,13.0,0.0
1950,57.0,72.0,120.0,11.0,0.0
1951,45.0,48.0,390.0,14.0,0.0
1952,57.0,0.0,120.0,2.0,0.0
1953,62.0,0.0,120.0,11.0,0.0
1954,55.0,48.0,60.0,2.0,0.0
1955,54.0,48.0,60.0,2.0,0.0
1956,66.0,24.0,120.0,11.0,0.0
1957,74.0,0.0,480.0,10.0,0.0
1958,62.0,120.0,120.0,11.0,0.0
1959,52.0,48.0,60.0,2.0,0.0
1960,66.0,24.0,120.0,11.0,0.0
1961,50.0,96.0,150.0,2.0,0.0
1962,62.0,72.0,120.0,11.0,0.0
1963,76.0,48.0,60.0,0.0,0.0
1964,69.0,168.0,180.0,10.0,0.0
1965,66.0,72.0,120.0,11.0,0.0
1966,62.0,0.0,60.0,11.0,0.0
1967,78.0,0.0,60.0,0.0,0.0
1968,57.0,72.0,120.0,11.0,0.0
1969,49.0,0.0,1860.0,12.0,0.0
1970,67.0,0.0,240.0,10.0,0.0
1971,52.0,168.0,1860.0,12.0,0.0
1972,45.0,0.0,390.0,13.0,0.0
1973,33.0,48.0,390.0,14.0,0.0
1974,79.0,0.0,120.0,0.0,0.0
1975,78.0,48.0,60.0,0.0,0.0
1976,61.0,72.0,120.0,11.0,0.0
1977,79.0,72.0,480.0,10.0,0.0
1978,76.0,48.0,60.0,0.0,0.0
1979,64.0,24.0,120.0,11.0,0.0
1980,61.0,120.0,120.0,11.0,0.0
1981,74.0,48.0,60.0,0.0,0.0
1982,73.0,96.0,150.0,0.0,0.0
1983,64.0,24.0,120.0,11.0,0.0
1984,61.0,0.0,120.0,11.0,0.0
1985,64.0,72.0,120.0,11.0,0.0
1986,52.0,48.0,60.0,2.0,0.0
1987,76.0,0.0,480.0,10.0,0.0
1988,53.0,0.0,60.0,2.0,0.0
1989,61.0,168.0,60.0,11.0,0.0
1990,57.0,48.0,390.0,13.0,0.0
1991,55.0,0.0,120.0,2.0,0.0
1992,57.0,72.0,120.0,11.0,0.0
1993,45.0,0.0,390.0,14.0,0.0
1994,61.0,72.0,120.0,11.0,0.0
1995,53.0,48.0,60.0,2.0,0.0
1996,52.0,48.0,60.0,2.0,0.0
1997,73.0,0.0,480.0,10.0,0.0
1998,64.0,24.0,120.0,11.0,0.0
1999,61.0,120.0,120.0,11.0,0.0
2000,50.0,48.0,60.0,2.0,0.0
2001,49.0,96.0,150.0,2.0,0.0
2002,64.0,24.0,120.0,11.0,0.0
2003,61.0,72.0,120.0,11.0,0.0
2004,64.0,72.0,120.0,11.0,0.0
2005,67.0,0.0,180.0,10.0,0.0
2006,77.0,48.0,60.0,0.0,0.0
2007,79.0,0.0,60.0,0.0,0.0
2008,61.0,0.0,60.0,11.0,0.0
2009,50.0,204.0,1860.0,12.0,0.0
2010,45.0,48.0,390.0,13.0,0.0
2011,33.0,0.0,390.0,14.0,0.0
2012,81.0,72.0,120.0,0.0,0.0
2013,65.0,72.0,240.0,10.0,0.0
2014,53.0,0.0,1860.0,12.0,0.0
2015,57.0,0.0,120.0,11.0,0.0
2016,62.0,0.0,120.0,11.0,0.0
2017,79.0,48.0,60.0,0.0,0.0
2018,81.0,0.0,480.0,10.0,0.0
2019,77.0,48.0,60.0,0.0,0.0
2020,65.0,24.0,120.0,11.0,0.0
2021,76.0,48.0,60.0,0.0,0.0
2022,62.0,120.0,120.0,11.0,0.0
2023,65.0,24.0,120.0,11.0,0.0
2024,74.0,96.0,150.0,0.0,0.0
2025,62.0,72.0,120.0,11.0,0.0
2026,65.0,72.0,120.0,11.0,0.0
2027,53.0,48.0,60.0,2.0,0.0
2028,77.0,0.0,480.0,10.0,0.0
2029,55.0,168.0,60.0,2.0,0.0
2030,62.0,0.0,60.0,11.0,0.0
2031,45.0,0.0,390.0,14.0,0.0
2032,57.0,0.0,120.0,2.0,0.0
2033,57.0,72.0,120.0,11.0,0.0
2034,57.0,48.0,390.0,13.0,0.0
2035,55.0,48.0,60.0,2.0,0.0
2036,62.0,72.0,120.0,11.0,0.0
2037,53.0,48.0,60.0,2.0,0.0
2038,74.0,120.0,480.0,10.0,0.0
2039,65.0,24.0,120.0,11.0,0.0
2040,52.0,48.0,60.0,2.0,0.0
2041,62.0,120.0,120.0,11.0,0.0
2042,65.0,24.0,120.0,11.0,0.0
2043,50.0,48.0,150.0,2.0,0.0
2044,62.0,48.0,60.0,11.0,0.0
2045,65.0,24.0,120.0,11.0,0.0
2046,41.0,0.0,180.0,14.0,0.0
2047,65.0,36.0,150.0,10.0,0.0
2048,53.0,0.0,180.0,13.0,0.0
2049,62.0,12.0,60.0,11.0,0.0
2050,32.0,0.0,570.0,14.0,0.0
2051,56.0,0.0,570.0,12.0,0.0
2052,65.0,0.0,780.0,1.0,0.0
2053,71.0,0.0,780.0,4.0,0.0
2054,59.0,0.0,780.0,4.0,0.0
2055,47.0,0.0,780.0,3.0,0.0
2056,59.0,0.0,780.0,3.0,0.0
2057,56.0,0.0,150.0,10.0,0.0
2058,71.0,0.0,780.0,1.0,0.0
2059,56.0,162.0,150.0,11.0,0.0
2060,47.0,54.0,390.0,5.0,0.0
2061,74.0,108.0,780.0,0.0,0.0
2062,50.0,0.0,780.0,2.0,0.0
2063,44.0,60.0,570.0,13.0,0.0
2064,53.0,0.0,780.0,2.0,0.0
2065,56.0,0.0,90.0,10.0,0.0
2066,56.0,66.0,90.0,11.0,0.0
2067,56.0,0.0,90.0,10.0,0.0
2068,56.0,138.0,90.0,11.0,0.0
2069,56.0,132.0,150.0,10.0,0.0
2070,56.0,0.0,150.0,11.0,0.0
2071,65.0,240.0,150.0,11.0,0.0
2072,65.0,0.0,150.0,10.0,0.0
2073,55.0,162.0,150.0,10.0,0.0
2074,55.0,0.0,150.0,11.0,0.0
2075,53.0,0.0,780.0,2.0,0.0
2076,43.0,0.0,570.0,13.0,0.0
2077,59.0,0.0,780.0,3.0,0.0
2078,47.0,54.0,390.0,5.0,0.0
2079,47.0,0.0,780.0,3.0,0.0
2080,77.0,0.0,780.0,0.0,0.0
2081,71.0,0.0,780.0,4.0,0.0
2082,55.0,60.0,570.0,12.0,0.0
2083,59.0,108.0,780.0,4.0,0.0
2084,62.0,0.0,1740.0,2.0,0.0
2085,74.0,108.0,1740.0,1.0,0.0
2086,71.0,0.0,2310.0,1.0,0.0
2087,31.0,0.0,570.0,14.0,0.0
2088,55.0,0.0,90.0,11.0,0.0
2089,55.0,66.0,90.0,10.0,0.0
2090,55.0,138.0,90.0,10.0,0.0
2091,55.0,0.0,90.0,11.0,0.0
2092,55.0,132.0,150.0,11.0,0.0
2093,55.0,0.0,150.0,10.0,0.0
2094,65.0,0.0,150.0,10.0,0.0
2095,65.0,240.0,150.0,11.0,0.0
2096,47.0,0.0,780.0,3.0,0.0
2097,59.0,0.0,780.0,3.0,0.0
2098,59.0,0.0,780.0,4.0,0.0
2099,78.0,0.0,780.0,0.0,0.0
2100,71.0,0.0,780.0,4.0,0.0
2101,42.0,60.0,570.0,13.0,0.0
2102,30.0,0.0,570.0,14.0,0.0
2103,54.0,0.0,150.0,10.0,0.0
2104,54.0,162.0,150.0,11.0,0.0
2105,47.0,54.0,390.0,5.0,0.0
2106,54.0,0.0,570.0,12.0,0.0
2107,54.0,0.0,780.0,2.0,0.0
2108,54.0,0.0,90.0,11.0,0.0
2109,54.0,66.0,90.0,10.0,0.0
2110,54.0,0.0,90.0,10.0,0.0
2111,54.0,138.0,90.0,11.0,0.0
2112,54.0,0.0,150.0,10.0,0.0
2113,54.0,132.0,150.0,11.0,0.0
2114,66.0,0.0,150.0,10.0,0.0
2115,66.0,372.0,150.0,11.0,0.0
2116,59.0,0.0,390.0,4.0,0.0
2117,61.0,0.0,300.0,2.0,0.0
2118,56.0,0.0,390.0,2.0,0.0
2119,53.0,72.0,300.0,12.0,0.0
2120,53.0,0.0,390.0,10.0,0.0
2121,29.0,0.0,300.0,14.0,0.0
2122,47.0,156.0,390.0,5.0,0.0
2123,73.0,24.0,300.0,1.0,0.0
2124,41.0,0.0,300.0,13.0,0.0
2125,80.0,0.0,300.0,0.0,0.0
2126,53.0,0.0,300.0,11.0,0.0
2127,59.0,0.0,300.0,3.0,0.0
2128,47.0,0.0,390.0,3.0,0.0
2129,71.0,0.0,300.0,4.0,0.0
2130,41.0,0.0,300.0,14.0,0.0
2131,65.0,0.0,300.0,12.0,0.0
2132,53.0,0.0,300.0,2.0,0.0
2133,80.0,0.0,300.0,0.0,0.0
2134,73.0,0.0,300.0,11.0,0.0
2135,59.0,0.0,300.0,3.0,0.0
2136,82.0,60.0,60.0,10.0,0.0
2137,61.0,12.0,300.0,3.0,0.0
2138,71.0,0.0,300.0,11.0,0.0
2139,53.0,48.0,300.0,13.0,0.0
2140,73.0,0.0,300.0,1.0,0.0
2141,71.0,36.0,390.0,1.0,0.0
2142,80.0,60.0,60.0,10.0,0.0
2143,82.0,60.0,60.0,10.0,0.0
2144,80.0,48.0,60.0,10.0,0.0
2145,82.0,12.0,60.0,10.0,0.0
2146,80.0,24.0,60.0,10.0,0.0
2147,78.0,48.0,60.0,10.0,0.0
2148,80.0,300.0,40.0,10.0,0.0
2149,54.0,0.0,300.0,2.0,0.0
2150,66.0,72.0,300.0,12.0,0.0
2151,42.0,0.0,390.0,5.0,0.0
2152,42.0,0.0,300.0,14.0,0.0
2153,73.0,0.0,300.0,11.0,0.0
2154,82.0,0.0,300.0,0.0,0.0
2155,73.0,0.0,300.0,1.0,0.0
2156,82.0,0.0,390.0,10.0,0.0
2157,70.0,0.0,390.0,1.0,0.0
2158,66.0,240.0,390.0,4.0,0.0
2159,70.0,0.0,300.0,11.0,0.0
2160,61.0,24.0,300.0,3.0,0.0
2161,54.0,0.0,300.0,3.0,0.0
2162,54.0,0.0,390.0,4.0,0.0
2163,54.0,0.0,300.0,13.0,0.0
2164,78.0,0.0,150.0,0.0,0.0
2165,63.0,0.0,150.0,12.0,0.0
2166,78.0,0.0,150.0,10.0,0.0
2167,39.0,0.0,150.0,14.0,0.0
2168,51.0,0.0,150.0,2.0,0.0
2169,63.0,0.0,150.0,3.0,0.0
2170,54.0,12.0,150.0,3.0,0.0
2171,66.0,0.0,150.0,1.0,0.0
2172,70.0,0.0,150.0,1.0,0.0
2173,51.0,0.0,150.0,13.0,0.0
2174,70.0,228.0,150.0,11.0,0.0
2175,78.0,0.0,150.0,0.0,0.0
2176,66.0,0.0,150.0,1.0,0.0
2177,70.0,0.0,150.0,11.0,0.0
2178,70.0,0.0,150.0,1.0,0.0
2179,51.0,0.0,150.0,13.0,0.0
2180,51.0,0.0,150.0,2.0,0.0
2181,63.0,0.0,150.0,12.0,0.0
2182,63.0,0.0,150.0,3.0,0.0
2183,78.0,228.0,150.0,10.0,0.0
2184,54.0,12.0,150.0,3.0,0.0
2185,39.0,0.0,150.0,14.0,0.0
2186,71.0,0.0,150.0,1.0,0.0
2187,47.0,0.0,150.0,13.0,0.0
2188,80.0,0.0,150.0,0.0,0.0
2189,68.0,0.0,150.0,1.0,0.0
2190,35.0,228.0,150.0,14.0,0.0
2191,71.0,0.0,150.0,11.0,0.0
2192,80.0,0.0,150.0,10.0,0.0
2193,59.0,0.0,150.0,12.0,0.0
2194,59.0,12.0,150.0,3.0,0.0
2195,63.0,0.0,150.0,3.0,0.0
2196,47.0,0.0,150.0,2.0,0.0
2197,68.0,0.0,150.0,1.0,0.0
2198,35.0,228.0,150.0,14.0,0.0
2199,80.0,0.0,150.0,0.0,0.0
2200,47.0,0.0,150.0,2.0,0.0
2201,63.0,12.0,150.0,3.0,0.0
2202,47.0,0.0,150.0,13.0,0.0
2203,59.0,0.0,150.0,3.0,0.0
2204,59.0,0.0,150.0,12.0,0.0
2205,71.0,0.0,150.0,11.0,0.0
2206,71.0,0.0,150.0,1.0,0.0
2207,80.0,0.0,150.0,10.0,0.0
2208,61.0,0.0,150.0,12.0,0.0
2209,49.0,228.0,150.0,13.0,0.0
2210,77.0,0.0,150.0,10.0,0.0
2211,68.0,0.0,150.0,1.0,0.0
2212,77.0,0.0,150.0,0.0,0.0
2213,68.0,0.0,150.0,11.0,0.0
2214,49.0,0.0,150.0,2.0,0.0
2215,37.0,0.0,150.0,14.0,0.0
2216,65.0,12.0,150.0,1.0,0.0
2217,61.0,0.0,150.0,3.0,0.0
2218,49.0,0.0,150.0,13.0,0.0
2219,61.0,0.0,150.0,3.0,0.0
2220,61.0,0.0,150.0,12.0,0.0
2221,68.0,0.0,150.0,11.0,0.0
2222,77.0,12.0,150.0,0.0,0.0
2223,77.0,0.0,150.0,10.0,0.0
2224,37.0,180.0,150.0,14.0,0.0
2225,68.0,0.0,150.0,1.0,0.0
2226,49.0,0.0,150.0,2.0,0.0
2227,65.0,0.0,150.0,1.0,0.0
2228,66.0,48.0,90.0,11.0,0.0
2229,42.0,0.0,150.0,13.0,0.0
2230,66.0,0.0,390.0,4.0,0.0
2231,54.0,0.0,150.0,12.0,0.0
2232,78.0,0.0,90.0,11.0,0.0
2233,66.0,0.0,150.0,1.0,0.0
2234,42.0,0.0,390.0,5.0,0.0
2235,54.0,12.0,150.0,3.0,0.0
2236,54.0,0.0,390.0,4.0,0.0
2237,30.0,0.0,150.0,14.0,0.0
2238,78.0,60.0,150.0,0.0,0.0
2239,42.0,0.0,150.0,2.0,0.0
2240,78.0,0.0,150.0,10.0,0.0
2241,78.0,120.0,90.0,11.0,0.0
2242,66.0,0.0,90.0,11.0,0.0
2243,70.0,0.0,480.0,1.0,0.0
2244,58.0,96.0,480.0,10.0,0.0
2245,34.0,0.0,480.0,14.0,0.0
2246,66.0,48.0,90.0,11.0,0.0
2247,78.0,0.0,90.0,11.0,0.0
2248,42.0,0.0,150.0,3.0,0.0
2249,54.0,72.0,150.0,3.0,0.0
2250,46.0,0.0,480.0,12.0,0.0
2251,82.0,0.0,480.0,0.0,0.0
2252,46.0,0.0,480.0,2.0,0.0
2253,46.0,0.0,480.0,13.0,0.0
2254,66.0,120.0,90.0,11.0,0.0
2255,78.0,0.0,90.0,11.0,0.0
2256,42.0,72.0,150.0,3.0,0.0
2257,54.0,0.0,150.0,3.0,0.0
2258,78.0,48.0,90.0,11.0,0.0
2259,66.0,0.0,90.0,11.0,0.0
2260,78.0,0.0,90.0,11.0,0.0
2261,66.0,24.0,90.0,11.0,0.0
2262,59.0,0.0,180.0,10.0,0.0
2263,42.0,48.0,150.0,3.0,0.0
2264,54.0,0.0,150.0,3.0,0.0
2265,71.0,0.0,180.0,1.0,0.0
2266,78.0,48.0,90.0,11.0,0.0
2267,83.0,0.0,180.0,0.0,0.0
2268,47.0,0.0,180.0,2.0,0.0
2269,35.0,0.0,180.0,14.0,0.0
2270,66.0,0.0,90.0,11.0,0.0
2271,47.0,24.0,180.0,13.0,0.0
2272,47.0,0.0,180.0,12.0,0.0
2273,66.0,0.0,90.0,11.0,0.0
2274,78.0,120.0,90.0,11.0,0.0
2275,66.0,0.0,390.0,4.0,0.0
2276,42.0,24.0,180.0,3.0,0.0
2277,54.0,0.0,180.0,3.0,0.0
2278,78.0,48.0,150.0,10.0,0.0
2279,78.0,48.0,90.0,11.0,0.0
2280,66.0,0.0,90.0,11.0,0.0
2281,42.0,0.0,390.0,5.0,0.0
2282,54.0,48.0,390.0,4.0,0.0
2283,78.0,120.0,90.0,11.0,0.0
2284,66.0,0.0,90.0,11.0,0.0
2285,54.0,24.0,180.0,3.0,0.0
2286,84.0,0.0,480.0,0.0,0.0
2287,48.0,96.0,480.0,2.0,0.0
2288,60.0,0.0,480.0,10.0,0.0
2289,78.0,48.0,90.0,11.0,0.0
2290,42.0,0.0,180.0,3.0,0.0
2291,36.0,0.0,480.0,14.0,0.0
2292,66.0,0.0,90.0,11.0,0.0
2293,48.0,0.0,480.0,13.0,0.0
2294,72.0,0.0,480.0,1.0,0.0
2295,48.0,0.0,480.0,12.0,0.0
2296,66.0,0.0,90.0,11.0,0.0
2297,78.0,120.0,90.0,11.0,0.0
2298,54.0,24.0,180.0,3.0,0.0
2299,42.0,0.0,180.0,3.0,0.0
2300,78.0,96.0,90.0,11.0,0.0
2301,66.0,0.0,90.0,11.0,0.0
2302,66.0,24.0,90.0,11.0,0.0
2303,78.0,0.0,90.0,11.0,0.0
2304,66.0,96.0,90.0,11.0,0.0
2305,78.0,0.0,90.0,11.0,0.0
2306,49.0,24.0,180.0,2.0,0.0
2307,54.0,0.0,180.0,3.0,0.0
2308,42.0,0.0,180.0,3.0,0.0
2309,49.0,0.0,180.0,12.0,0.0
2310,73.0,0.0,180.0,1.0,0.0
2311,49.0,0.0,180.0,13.0,0.0
2312,85.0,0.0,180.0,0.0,0.0
2313,61.0,0.0,180.0,10.0,0.0
2314,37.0,0.0,180.0,14.0,0.0
2315,66.0,120.0,90.0,11.0,0.0
2316,78.0,0.0,90.0,11.0,0.0
2317,54.0,24.0,180.0,3.0,0.0
2318,66.0,0.0,390.0,4.0,0.0
2319,78.0,0.0,90.0,11.0,0.0
2320,78.0,48.0,150.0,10.0,0.0
2321,54.0,0.0,390.0,4.0,0.0
2322,66.0,48.0,90.0,11.0,0.0
2323,42.0,48.0,390.0,5.0,0.0
2324,42.0,0.0,180.0,3.0,0.0
2325,78.0,0.0,90.0,11.0,0.0
2326,66.0,120.0,90.0,11.0,0.0
2327,54.0,24.0,180.0,3.0,0.0
2328,42.0,0.0,180.0,3.0,0.0
2329,50.0,96.0,480.0,13.0,0.0
2330,86.0,0.0,480.0,0.0,0.0
2331,74.0,0.0,480.0,1.0,0.0
2332,66.0,48.0,90.0,11.0,0.0
2333,50.0,0.0,480.0,12.0,0.0
2334,78.0,0.0,90.0,11.0,0.0
2335,62.0,0.0,480.0,10.0,0.0
2336,50.0,0.0,480.0,2.0,0.0
2337,38.0,0.0,480.0,14.0,0.0
2338,66.0,0.0,90.0,11.0,0.0
2339,78.0,120.0,90.0,11.0,0.0
2340,66.0,96.0,90.0,11.0,0.0
2341,78.0,0.0,90.0,11.0,0.0
2342,42.0,0.0,180.0,3.0,0.0
2343,54.0,24.0,180.0,3.0,0.0
2344,78.0,24.0,90.0,11.0,0.0
2345,66.0,0.0,90.0,11.0,0.0
2346,51.0,0.0,180.0,2.0,0.0
2347,63.0,0.0,180.0,10.0,0.0
2348,87.0,0.0,180.0,0.0,0.0
2349,66.0,0.0,90.0,11.0,0.0
2350,39.0,0.0,180.0,14.0,0.0
2351,51.0,0.0,180.0,12.0,0.0
2352,42.0,0.0,180.0,3.0,0.0
2353,54.0,24.0,180.0,3.0,0.0
2354,51.0,0.0,180.0,13.0,0.0
2355,75.0,0.0,180.0,1.0,0.0
2356,78.0,96.0,90.0,11.0,0.0
2357,78.0,0.0,90.0,11.0,0.0
2358,66.0,180.0,90.0,11.0,0.0
2359,42.0,0.0,390.0,5.0,0.0
2360,54.0,0.0,390.0,3.0,0.0
2361,64.0,0.0,150.0,10.0,0.0
2362,42.0,0.0,390.0,3.0,0.0
2363,52.0,54.0,390.0,2.0,0.0
2364,54.0,0.0,390.0,4.0,0.0
2365,66.0,0.0,390.0,4.0,0.0
2366,52.0,0.0,150.0,13.0,0.0
2367,76.0,0.0,390.0,1.0,0.0
2368,78.0,0.0,150.0,11.0,0.0
2369,66.0,162.0,150.0,11.0,0.0
2370,40.0,0.0,150.0,14.0,0.0
2371,52.0,0.0,150.0,12.0,0.0
2372,88.0,0.0,390.0,0.0,0.0
2373,52.0,0.0,90.0,10.0,0.0
2374,28.0,66.0,90.0,14.0,0.0
2375,52.0,0.0,90.0,12.0,0.0
2376,66.0,0.0,90.0,11.0,0.0
2377,58.0,0.0,90.0,11.0,0.0
2378,40.0,0.0,90.0,13.0,0.0
2379,40.0,0.0,90.0,13.0,0.0
2380,66.0,0.0,90.0,11.0,0.0
2381,52.0,198.0,90.0,12.0,0.0
2382,52.0,0.0,90.0,10.0,0.0
2383,58.0,0.0,90.0,11.0,0.0
2384,28.0,0.0,90.0,14.0,0.0
2385,52.0,132.0,150.0,10.0,0.0
2386,54.0,0.0,300.0,3.0,0.0
2387,52.0,0.0,150.0,12.0,0.0
2388,28.0,0.0,150.0,14.0,0.0
2389,58.0,0.0,150.0,11.0,0.0
2390,70.0,0.0,390.0,1.0,0.0
2391,73.0,0.0,390.0,1.0,0.0
2392,54.0,0.0,300.0,4.0,0.0
2393,66.0,0.0,150.0,11.0,0.0
2394,42.0,0.0,300.0,5.0,0.0
2395,82.0,0.0,390.0,0.0,0.0
2396,42.0,96.0,300.0,3.0,0.0
2397,66.0,0.0,300.0,4.0,0.0
2398,49.0,12.0,390.0,2.0,0.0
2399,40.0,0.0,150.0,13.0,0.0
2400,58.0,0.0,390.0,2.0,0.0
2401,52.0,0.0,150.0,12.0,0.0
2402,28.0,60.0,150.0,14.0,0.0
2403,40.0,0.0,150.0,13.0,0.0
2404,66.0,0.0,150.0,11.0,0.0
2405,52.0,0.0,150.0,10.0,0.0
2406,58.0,0.0,150.0,11.0,0.0
2407,42.0,180.0,90.0,3.0,0.0
2408,54.0,0.0,90.0,3.0,0.0
2409,54.0,0.0,90.0,4.0,0.0
2410,42.0,0.0,90.0,5.0,0.0
2411,66.0,0.0,90.0,4.0,0.0
2412,42.0,54.0,390.0,5.0,0.0
2413,83.0,0.0,780.0,0.0,0.0
2414,54.0,0.0,390.0,3.0,0.0
2415,66.0,0.0,150.0,11.0,0.0
2416,39.0,0.0,150.0,13.0,0.0
2417,59.0,0.0,780.0,2.0,0.0
2418,42.0,0.0,390.0,3.0,0.0
2419,51.0,162.0,150.0,10.0,0.0
2420,66.0,0.0,390.0,4.0,0.0
2421,75.0,0.0,780.0,1.0,0.0
2422,51.0,0.0,150.0,12.0,0.0
2423,51.0,0.0,780.0,2.0,0.0
2424,71.0,0.0,780.0,1.0,0.0
2425,27.0,0.0,150.0,14.0,0.0
2426,59.0,0.0,150.0,11.0,0.0
2427,54.0,0.0,390.0,4.0,0.0
2428,39.0,0.0,90.0,14.0,0.0
2429,78.0,0.0,90.0,10.0,0.0
2430,71.0,66.0,90.0,11.0,0.0
2431,63.0,0.0,90.0,12.0,0.0
2432,51.0,0.0,90.0,13.0,0.0
2433,71.0,0.0,90.0,11.0,0.0
2434,78.0,0.0,90.0,10.0,0.0
2435,39.0,0.0,90.0,14.0,0.0
2436,63.0,0.0,90.0,12.0,0.0
2437,51.0,198.0,90.0,13.0,0.0
2438,39.0,0.0,150.0,14.0,0.0
2439,78.0,132.0,150.0,10.0,0.0
2440,42.0,0.0,300.0,3.0,0.0
2441,54.0,0.0,300.0,3.0,0.0
2442,54.0,0.0,300.0,4.0,0.0
2443,66.0,108.0,300.0,4.0,0.0
2444,42.0,0.0,300.0,5.0,0.0
2445,63.0,0.0,150.0,12.0,0.0
2446,51.0,0.0,150.0,13.0,0.0
2447,71.0,0.0,150.0,11.0,0.0
2448,78.0,0.0,150.0,10.0,0.0
2449,51.0,0.0,150.0,13.0,0.0
2450,63.0,0.0,150.0,12.0,0.0
2451,71.0,0.0,150.0,11.0,0.0
2452,39.0,60.0,150.0,14.0,0.0
2453,66.0,0.0,90.0,4.0,0.0
2454,54.0,0.0,90.0,4.0,0.0
2455,42.0,180.0,90.0,5.0,0.0
2456,42.0,0.0,90.0,3.0,0.0
2457,54.0,0.0,90.0,3.0,0.0
2458,84.0,96.0,780.0,0.0,0.0
2459,78.0,162.0,150.0,10.0,0.0
2460,69.0,0.0,780.0,1.0,0.0
2461,72.0,0.0,780.0,1.0,0.0
2462,42.0,54.0,390.0,3.0,0.0
2463,72.0,0.0,150.0,11.0,0.0
2464,62.0,0.0,150.0,12.0,0.0
2465,54.0,0.0,390.0,3.0,0.0
2466,38.0,0.0,150.0,14.0,0.0
2467,60.0,0.0,780.0,2.0,0.0
2468,57.0,0.0,780.0,2.0,0.0
2469,42.0,0.0,390.0,5.0,0.0
2470,54.0,0.0,390.0,4.0,0.0
2471,66.0,0.0,390.0,4.0,0.0
2472,50.0,0.0,150.0,13.0,0.0
2473,50.0,0.0,90.0,13.0,0.0
2474,62.0,66.0,90.0,12.0,0.0
2475,81.0,0.0,90.0,10.0,0.0
2476,38.0,0.0,90.0,14.0,0.0
2477,78.0,0.0,90.0,11.0,0.0
2478,78.0,198.0,90.0,11.0,0.0
2479,50.0,0.0,90.0,13.0,0.0
2480,81.0,0.0,90.0,10.0,0.0
2481,62.0,0.0,90.0,12.0,0.0
2482,38.0,0.0,90.0,14.0,0.0
2483,54.0,0.0,390.0,4.0,0.0
2484,66.0,0.0,390.0,4.0,0.0
2485,42.0,0.0,390.0,5.0,0.0
2486,54.0,0.0,390.0,3.0,0.0
2487,50.0,0.0,150.0,13.0,0.0
2488,38.0,0.0,150.0,14.0,0.0
2489,62.0,0.0,150.0,12.0,0.0
2490,42.0,12.0,390.0,3.0,0.0
2491,78.0,0.0,150.0,11.0,0.0
2492,81.0,132.0,150.0,10.0,0.0
2493,81.0,0.0,150.0,10.0,0.0
2494,62.0,0.0,150.0,12.0,0.0
2495,78.0,0.0,150.0,11.0,0.0
2496,50.0,0.0,150.0,13.0,0.0
2497,38.0,132.0,150.0,14.0,0.0
2498,49.0,12.0,150.0,13.0,0.0
2499,54.0,36.0,180.0,4.0,0.0
2500,42.0,60.0,40.0,5.0,0.0
2501,66.0,0.0,180.0,4.0,0.0
2502,78.0,0.0,120.0,11.0,0.0
2503,85.0,0.0,150.0,0.0,0.0
2504,54.0,0.0,180.0,3.0,0.0
2505,61.0,0.0,150.0,2.0,0.0
2506,58.0,0.0,150.0,2.0,0.0
2507,70.0,0.0,150.0,1.0,0.0
2508,82.0,36.0,120.0,10.0,0.0
2509,37.0,0.0,150.0,14.0,0.0
2510,61.0,0.0,150.0,12.0,0.0
2511,73.0,0.0,150.0,1.0,0.0
2512,42.0,0.0,180.0,3.0,0.0
2513,42.0,12.0,40.0,5.0,0.0
2514,81.0,0.0,120.0,10.0,0.0
2515,77.0,48.0,120.0,11.0,0.0
2516,42.0,24.0,40.0,5.0,0.0
2517,42.0,12.0,40.0,5.0,0.0
2518,42.0,60.0,40.0,5.0,0.0
2519,54.0,0.0,180.0,3.0,0.0
2520,42.0,0.0,180.0,3.0,0.0
2521,82.0,0.0,120.0,10.0,0.0
2522,85.0,0.0,150.0,0.0,0.0
2523,42.0,0.0,150.0,14.0,0.0
2524,54.0,36.0,180.0,4.0,0.0
2525,78.0,36.0,120.0,11.0,0.0
2526,73.0,0.0,150.0,1.0,0.0
2527,61.0,12.0,150.0,2.0,0.0
2528,54.0,0.0,150.0,13.0,0.0
2529,70.0,0.0,150.0,1.0,0.0
2530,66.0,0.0,150.0,12.0,0.0
2531,58.0,0.0,150.0,2.0,0.0
2532,66.0,0.0,180.0,4.0,0.0
2533,42.0,12.0,40.0,5.0,0.0
2534,42.0,24.0,40.0,5.0,0.0
2535,77.0,48.0,120.0,11.0,0.0
2536,81.0,0.0,120.0,10.0,0.0
2537,42.0,12.0,40.0,5.0,0.0
2538,61.0,0.0,150.0,2.0,0.0
2539,54.0,0.0,180.0,3.0,0.0
2540,85.0,12.0,150.0,0.0,0.0
2541,46.0,0.0,150.0,14.0,0.0
2542,58.0,0.0,150.0,13.0,0.0
2543,70.0,0.0,150.0,1.0,0.0
2544,42.0,0.0,180.0,3.0,0.0
2545,58.0,0.0,150.0,2.0,0.0
2546,73.0,0.0,150.0,1.0,0.0
2547,66.0,36.0,180.0,4.0,0.0
2548,70.0,0.0,150.0,12.0,0.0
2549,82.0,0.0,120.0,10.0,0.0
2550,42.0,60.0,40.0,5.0,0.0
2551,78.0,36.0,120.0,11.0,0.0
2552,54.0,0.0,180.0,4.0,0.0
2553,42.0,12.0,40.0,5.0,0.0
2554,77.0,0.0,120.0,11.0,0.0
2555,81.0,48.0,120.0,10.0,0.0
2556,42.0,24.0,40.0,5.0,0.0
2557,42.0,12.0,40.0,5.0,0.0
2558,66.0,0.0,180.0,4.0,0.0
2559,73.0,0.0,150.0,1.0,0.0
2560,49.0,0.0,150.0,14.0,0.0
2561,85.0,0.0,150.0,0.0,0.0
2562,78.0,36.0,120.0,11.0,0.0
2563,54.0,0.0,180.0,4.0,0.0
2564,42.0,0.0,180.0,3.0,0.0
2565,42.0,60.0,40.0,5.0,0.0
2566,61.0,0.0,150.0,13.0,0.0
2567,54.0,24.0,180.0,3.0,0.0
2568,82.0,0.0,120.0,10.0,0.0
2569,70.0,0.0,150.0,1.0,0.0
2570,66.0,12.0,150.0,12.0,0.0
2571,61.0,0.0,150.0,2.0,0.0
2572,58.0,0.0,150.0,2.0,0.0
2573,42.0,12.0,40.0,5.0,0.0
2574,81.0,12.0,90.0,10.0,0.0
2575,77.0,0.0,90.0,11.0,0.0
2576,42.0,24.0,40.0,5.0,0.0
2577,42.0,60.0,40.0,5.0,0.0
2578,37.0,12.0,150.0,14.0,0.0
2579,61.0,0.0,150.0,12.0,0.0
2580,54.0,36.0,180.0,3.0,0.0
2581,54.0,0.0,180.0,4.0,0.0
2582,66.0,0.0,180.0,4.0,0.0
2583,82.0,36.0,120.0,10.0,0.0
2584,58.0,0.0,150.0,2.0,0.0
2585,42.0,0.0,180.0,3.0,0.0
2586,42.0,60.0,40.0,5.0,0.0
2587,85.0,0.0,150.0,0.0,0.0
2588,49.0,0.0,150.0,13.0,0.0
2589,78.0,0.0,120.0,11.0,0.0
2590,73.0,0.0,150.0,1.0,0.0
2591,70.0,0.0,150.0,1.0,0.0
2592,61.0,0.0,150.0,2.0,0.0
2593,42.0,12.0,40.0,5.0,0.0
2594,81.0,48.0,120.0,10.0,0.0
2595,77.0,0.0,120.0,11.0,0.0
2596,42.0,24.0,40.0,5.0,0.0
2597,42.0,12.0,40.0,5.0,0.0
2598,61.0,0.0,150.0,2.0,0.0
2599,54.0,36.0,180.0,3.0,0.0
2600,42.0,60.0,40.0,5.0,0.0
2601,70.0,0.0,150.0,1.0,0.0
2602,42.0,0.0,150.0,14.0,0.0
2603,42.0,0.0,180.0,3.0,0.0
2604,54.0,0.0,150.0,13.0,0.0
2605,66.0,0.0,150.0,12.0,0.0
2606,82.0,0.0,120.0,10.0,0.0
2607,73.0,12.0,150.0,1.0,0.0
2608,66.0,0.0,180.0,4.0,0.0
2609,54.0,0.0,180.0,4.0,0.0
2610,58.0,0.0,150.0,2.0,0.0
2611,78.0,36.0,120.0,11.0,0.0
2612,85.0,0.0,150.0,0.0,0.0
2613,42.0,12.0,40.0,5.0,0.0
2614,81.0,48.0,120.0,10.0,0.0
2615,42.0,24.0,40.0,5.0,0.0
2616,77.0,0.0,120.0,11.0,0.0
2617,42.0,12.0,40.0,5.0,0.0
2618,46.0,12.0,150.0,14.0,0.0
2619,73.0,0.0,150.0,1.0,0.0
2620,70.0,0.0,150.0,1.0,0.0
2621,82.0,36.0,120.0,10.0,0.0
2622,70.0,0.0,150.0,12.0,0.0
2623,42.0,60.0,40.0,5.0,0.0
2624,78.0,0.0,120.0,11.0,0.0
2625,66.0,0.0,180.0,4.0,0.0
2626,61.0,0.0,150.0,2.0,0.0
2627,58.0,0.0,150.0,2.0,0.0
2628,54.0,0.0,180.0,3.0,0.0
2629,85.0,0.0,150.0,0.0,0.0
2630,42.0,0.0,180.0,3.0,0.0
2631,54.0,36.0,180.0,4.0,0.0
2632,58.0,0.0,150.0,13.0,0.0
2633,42.0,12.0,40.0,5.0,0.0
2634,77.0,0.0,120.0,11.0,0.0
2635,42.0,24.0,40.0,5.0,0.0
2636,81.0,48.0,120.0,10.0,0.0
2637,42.0,12.0,40.0,5.0,0.0
2638,78.0,0.0,120.0,11.0,0.0
2639,85.0,0.0,150.0,0.0,0.0
2640,42.0,0.0,180.0,3.0,0.0
2641,61.0,0.0,150.0,2.0,0.0
2642,66.0,12.0,150.0,12.0,0.0
2643,54.0,0.0,180.0,3.0,0.0
2644,66.0,0.0,180.0,4.0,0.0
2645,61.0,0.0,150.0,13.0,0.0
2646,82.0,36.0,120.0,10.0,0.0
2647,49.0,0.0,150.0,14.0,0.0
2648,58.0,0.0,150.0,2.0,0.0
2649,42.0,60.0,40.0,5.0,0.0
2650,73.0,0.0,150.0,1.0,0.0
2651,70.0,0.0,150.0,1.0,0.0
2652,54.0,24.0,180.0,4.0,0.0
2653,42.0,12.0,40.0,5.0,0.0
2654,77.0,12.0,90.0,11.0,0.0
2655,81.0,0.0,90.0,10.0,0.0
2656,42.0,24.0,40.0,5.0,0.0
2657,42.0,108.0,40.0,5.0,0.0
2658,82.0,0.0,90.0,10.0,0.0
2659,61.0,72.0,390.0,12.0,0.0
2660,54.0,0.0,390.0,4.0,0.0
2661,78.0,120.0,90.0,11.0,0.0
2662,73.0,0.0,390.0,1.0,0.0
2663,66.0,0.0,390.0,4.0,0.0
2664,70.0,0.0,390.0,1.0,0.0
2665,42.0,0.0,390.0,5.0,0.0
2666,61.0,0.0,390.0,2.0,0.0
2667,58.0,0.0,390.0,2.0,0.0
2668,85.0,0.0,390.0,0.0,0.0
2669,42.0,0.0,390.0,3.0,0.0
2670,49.0,0.0,390.0,13.0,0.0
2671,37.0,0.0,390.0,14.0,0.0
2672,54.0,0.0,390.0,3.0,0.0
2673,77.0,120.0,90.0,11.0,0.0
2674,80.0,0.0,90.0,10.0,0.0
2675,78.0,0.0,90.0,10.0,0.0
2676,75.0,48.0,90.0,11.0,0.0
2677,77.0,120.0,90.0,10.0,0.0
2678,73.0,0.0,90.0,11.0,0.0
2679,75.0,120.0,90.0,10.0,0.0
2680,71.0,0.0,90.0,11.0,0.0
2681,70.0,120.0,90.0,11.0,0.0
2682,73.0,0.0,90.0,10.0,0.0
2683,71.0,0.0,90.0,10.0,0.0
2684,68.0,120.0,90.0,11.0,0.0
2685,70.0,120.0,90.0,10.0,0.0
2686,66.0,0.0,90.0,11.0,0.0
2687,85.0,0.0,390.0,0.0,0.0
2688,73.0,72.0,390.0,1.0,0.0
2689,42.0,0.0,390.0,5.0,0.0
2690,54.0,0.0,390.0,3.0,0.0
2691,70.0,0.0,390.0,1.0,0.0
2692,42.0,0.0,390.0,3.0,0.0
2693,58.0,0.0,390.0,2.0,0.0
2694,37.0,0.0,390.0,14.0,0.0
2695,61.0,0.0,390.0,2.0,0.0
2696,82.0,0.0,90.0,10.0,0.0
2697,54.0,0.0,390.0,4.0,0.0
2698,61.0,0.0,390.0,12.0,0.0
2699,78.0,120.0,90.0,11.0,0.0
2700,66.0,0.0,390.0,4.0,0.0
2701,49.0,0.0,390.0,13.0,0.0
2702,77.0,0.0,90.0,11.0,0.0
2703,80.0,120.0,90.0,10.0,0.0
2704,78.0,0.0,90.0,10.0,0.0
2705,75.0,48.0,90.0,11.0,0.0
2706,73.0,120.0,90.0,11.0,0.0
2707,77.0,0.0,90.0,10.0,0.0
2708,75.0,0.0,90.0,10.0,0.0
2709,71.0,120.0,90.0,11.0,0.0
2710,70.0,0.0,90.0,11.0,0.0
2711,73.0,120.0,90.0,10.0,0.0
2712,68.0,120.0,90.0,11.0,0.0
2713,71.0,0.0,90.0,10.0,0.0
2714,70.0,0.0,90.0,10.0,0.0
2715,66.0,408.0,90.0,11.0,0.0
2716,54.0,0.0,390.0,3.0,0.0
2717,61.0,0.0,390.0,2.0,0.0
2718,58.0,0.0,390.0,2.0,0.0
2719,42.0,0.0,390.0,3.0,0.0
2720,42.0,0.0,390.0,5.0,0.0
2721,61.0,0.0,390.0,12.0,0.0
2722,85.0,0.0,390.0,0.0,0.0
2723,78.0,0.0,390.0,11.0,0.0
2724,66.0,0.0,390.0,4.0,0.0
2725,82.0,0.0,390.0,10.0,0.0
2726,73.0,0.0,390.0,1.0,0.0
2727,70.0,0.0,390.0,1.0,0.0
2728,49.0,1368.0,390.0,13.0,0.0
2729,37.0,0.0,390.0,14.0,0.0
2730,54.0,0.0,390.0,4.0,0.0
2731,59.0,0.0,960.0,11.0,0.0
2732,49.0,0.0,960.0,13.0,0.0
2733,56.0,0.0,960.0,12.0,0.0
2734,65.0,120.0,960.0,10.0,0.0
2735,37.0,0.0,960.0,14.0,0.0
2736,70.0,120.0,60.0,1.0,0.0
2737,71.0,48.0,60.0,1.0,0.0
2738,63.0,0.0,1860.0,3.0,0.0
2739,58.0,120.0,960.0,11.0,0.0
2740,61.0,0.0,960.0,12.0,0.0
2741,51.0,0.0,960.0,13.0,0.0
2742,39.0,0.0,960.0,14.0,0.0
2743,73.0,72.0,120.0,1.0,0.0
2744,67.0,0.0,960.0,10.0,0.0
2745,71.0,120.0,60.0,1.0,0.0
2746,70.0,120.0,60.0,1.0,0.0
2747,68.0,192.0,60.0,1.0,0.0
2748,67.0,168.0,150.0,1.0,0.0
2749,59.0,0.0,60.0,2.0,0.0
2750,71.0,120.0,60.0,0.0,0.0
2751,73.0,48.0,60.0,0.0,0.0
2752,61.0,0.0,60.0,2.0,0.0
2753,63.0,72.0,120.0,2.0,0.0
2754,68.0,0.0,960.0,10.0,0.0
2755,32.0,120.0,960.0,14.0,0.0
2756,44.0,0.0,960.0,13.0,0.0
2757,59.0,0.0,1920.0,12.0,0.0
2758,56.0,0.0,1920.0,11.0,0.0
2759,75.0,0.0,120.0,0.0,0.0
2760,61.0,120.0,60.0,2.0,0.0
2761,73.0,0.0,60.0,0.0,0.0
2762,71.0,0.0,60.0,0.0,0.0
2763,59.0,120.0,60.0,2.0,0.0
2764,70.0,192.0,60.0,0.0,0.0
2765,58.0,0.0,60.0,2.0,0.0
2766,56.0,0.0,150.0,2.0,0.0
2767,68.0,168.0,150.0,0.0,0.0
2768,56.0,120.0,60.0,2.0,0.0
2769,68.0,0.0,60.0,1.0,0.0
2770,70.0,0.0,60.0,1.0,0.0
2771,58.0,48.0,60.0,2.0,0.0
2772,49.0,0.0,960.0,13.0,0.0
2773,65.0,0.0,960.0,10.0,0.0
2774,71.0,72.0,120.0,1.0,0.0
2775,37.0,120.0,960.0,14.0,0.0
2776,61.0,156.0,1410.0,3.0,0.0
2777,59.0,0.0,120.0,2.0,0.0
2778,58.0,120.0,60.0,2.0,0.0
2779,70.0,0.0,60.0,1.0,0.0
2780,56.0,0.0,60.0,2.0,0.0
2781,68.0,120.0,60.0,1.0,0.0
2782,54.0,192.0,60.0,2.0,0.0
2783,66.0,0.0,60.0,1.0,0.0
2784,65.0,0.0,150.0,1.0,0.0
2785,53.0,168.0,150.0,2.0,0.0
2786,70.0,0.0,60.0,1.0,0.0
2787,82.0,120.0,60.0,0.0,0.0
2788,83.0,48.0,60.0,0.0,0.0
2789,71.0,0.0,60.0,1.0,0.0
2790,42.0,0.0,180.0,13.0,0.0
2791,58.0,0.0,180.0,12.0,0.0
2792,54.0,0.0,180.0,11.0,0.0
2793,30.0,0.0,180.0,14.0,0.0
2794,73.0,0.0,120.0,1.0,0.0
2795,66.0,120.0,180.0,10.0,0.0
2796,85.0,72.0,120.0,0.0,0.0
2797,71.0,0.0,60.0,1.0,0.0
2798,83.0,0.0,60.0,0.0,0.0
2799,70.0,120.0,60.0,1.0,0.0
2800,82.0,0.0,60.0,0.0,0.0
2801,68.0,0.0,60.0,1.0,0.0
2802,80.0,24.0,60.0,0.0,0.0
2803,78.0,0.0,120.0,0.0,0.0
2804,51.0,0.0,180.0,13.0,0.0
2805,39.0,0.0,180.0,14.0,0.0
2806,58.0,0.0,180.0,10.0,0.0
2807,54.0,0.0,180.0,11.0,0.0
2808,51.0,180.0,180.0,12.0,0.0
2809,66.0,60.0,120.0,1.0,0.0
2810,82.0,240.0,120.0,0.0,0.0
2811,70.0,0.0,120.0,1.0,0.0
2812,51.0,0.0,180.0,12.0,0.0
2813,59.0,180.0,180.0,10.0,0.0
2814,35.0,0.0,180.0,14.0,0.0
2815,80.0,60.0,120.0,0.0,0.0
2816,68.0,0.0,120.0,1.0,0.0
2817,56.0,0.0,180.0,11.0,0.0
2818,47.0,0.0,180.0,13.0,0.0
2819,71.0,0.0,120.0,1.0,0.0
2820,83.0,240.0,120.0,0.0,0.0
2821,37.0,0.0,180.0,14.0,0.0
2822,47.0,180.0,180.0,12.0,0.0
2823,53.0,0.0,180.0,11.0,0.0
2824,56.0,0.0,180.0,10.0,0.0
2825,77.0,0.0,120.0,0.0,0.0
2826,49.0,0.0,180.0,13.0,0.0
2827,65.0,60.0,120.0,1.0,0.0
2828,80.0,252.0,120.0,0.0,0.0
2829,68.0,0.0,120.0,1.0,0.0
2830,30.0,0.0,150.0,14.0,0.0
2831,78.0,0.0,390.0,0.0,0.0
2832,54.0,0.0,5700.0,3.0,0.0
2833,66.0,0.0,390.0,1.0,0.0
2834,46.0,0.0,570.0,12.0,0.0
2835,42.0,24.0,5700.0,3.0,0.0
2836,54.0,0.0,570.0,11.0,0.0
2837,42.0,240.0,150.0,13.0,0.0
2838,54.0,48.0,570.0,10.0,0.0
2839,30.0,192.0,150.0,14.0,0.0
2840,42.0,0.0,150.0,13.0,0.0
2841,42.0,0.0,150.0,13.0,0.0
2842,30.0,174.0,150.0,14.0,0.0
2843,30.0,0.0,150.0,14.0,0.0
2844,58.0,48.0,90.0,12.0,0.0
2845,70.0,18.0,90.0,11.0,0.0
2846,42.0,54.0,150.0,13.0,0.0
2847,70.0,0.0,90.0,10.0,0.0
2848,71.0,0.0,90.0,10.0,0.0
2849,71.0,18.0,90.0,11.0,0.0
2850,59.0,144.0,90.0,12.0,0.0
2851,61.0,24.0,120.0,12.0,0.0
2852,42.0,54.0,150.0,13.0,0.0
2853,30.0,0.0,150.0,14.0,0.0
2854,73.0,0.0,120.0,10.0,0.0
2855,73.0,0.0,120.0,11.0,0.0
2856,59.0,102.0,90.0,12.0,0.0
2857,71.0,18.0,90.0,10.0,0.0
2858,71.0,0.0,90.0,11.0,0.0
2859,42.0,0.0,150.0,13.0,0.0
2860,70.0,18.0,90.0,11.0,0.0
2861,30.0,54.0,150.0,14.0,0.0
2862,58.0,48.0,90.0,12.0,0.0
2863,70.0,0.0,90.0,10.0,0.0
2864,68.0,18.0,90.0,10.0,0.0
2865,56.0,168.0,90.0,12.0,0.0
2866,68.0,0.0,90.0,11.0,0.0
2867,66.0,0.0,150.0,11.0,0.0
2868,66.0,36.0,150.0,10.0,0.0
2869,42.0,12.0,150.0,13.0,0.0
2870,30.0,0.0,150.0,14.0,0.0
2871,54.0,126.0,180.0,12.0,0.0
2872,42.0,0.0,150.0,13.0,0.0
2873,30.0,54.0,150.0,14.0,0.0
2874,65.0,18.0,90.0,11.0,0.0
2875,53.0,48.0,90.0,12.0,0.0
2876,65.0,0.0,90.0,10.0,0.0
2877,66.0,18.0,90.0,10.0,0.0
2878,66.0,0.0,90.0,11.0,0.0
2879,54.0,144.0,90.0,12.0,0.0
2880,68.0,0.0,120.0,10.0,0.0
2881,42.0,0.0,150.0,13.0,0.0
2882,56.0,24.0,120.0,12.0,0.0
2883,68.0,0.0,120.0,11.0,0.0
2884,30.0,54.0,150.0,14.0,0.0
2885,66.0,0.0,90.0,10.0,0.0
2886,66.0,18.0,90.0,11.0,0.0
2887,54.0,102.0,90.0,12.0,0.0
2888,42.0,0.0,150.0,13.0,0.0
2889,65.0,18.0,90.0,11.0,0.0
2890,30.0,54.0,150.0,14.0,0.0
2891,52.0,48.0,90.0,12.0,0.0
2892,65.0,0.0,90.0,10.0,0.0
2893,63.0,0.0,90.0,10.0,0.0
2894,51.0,168.0,90.0,12.0,0.0
2895,63.0,18.0,90.0,11.0,0.0
2896,61.0,0.0,150.0,10.0,0.0
2897,61.0,36.0,150.0,11.0,0.0
2898,42.0,12.0,150.0,13.0,0.0
2899,30.0,0.0,150.0,14.0,0.0
2900,49.0,126.0,180.0,12.0,0.0
2901,51.0,48.0,90.0,12.0,0.0
2902,30.0,54.0,150.0,14.0,0.0
2903,42.0,0.0,150.0,13.0,0.0
2904,63.0,0.0,90.0,10.0,0.0
2905,63.0,18.0,90.0,11.0,0.0
2906,65.0,0.0,90.0,11.0,0.0
2907,65.0,18.0,90.0,10.0,0.0
2908,52.0,168.0,90.0,12.0,0.0
2909,30.0,0.0,150.0,14.0,0.0
2910,66.0,0.0,150.0,10.0,0.0
2911,42.0,0.0,150.0,13.0,0.0
2912,54.0,192.0,180.0,12.0,0.0
2913,66.0,48.0,150.0,11.0,0.0
2914,65.0,0.0,150.0,11.0,0.0
2915,53.0,0.0,180.0,12.0,0.0
2916,30.0,0.0,150.0,14.0,0.0
2917,42.0,48.0,150.0,13.0,0.0
2918,56.0,192.0,180.0,12.0,0.0
2919,68.0,0.0,150.0,10.0,0.0
2920,66.0,0.0,150.0,11.0,0.0
2921,58.0,192.0,180.0,12.0,0.0
2922,42.0,0.0,150.0,13.0,0.0
2923,54.0,0.0,180.0,12.0,0.0
2924,30.0,48.0,150.0,14.0,0.0
2925,70.0,0.0,150.0,10.0,0.0
2926,56.0,0.0,180.0,12.0,0.0
2927,59.0,168.0,180.0,12.0,0.0
2928,68.0,0.0,150.0,11.0,0.0
2929,42.0,0.0,150.0,13.0,0.0
2930,30.0,48.0,150.0,14.0,0.0
2931,71.0,0.0,150.0,10.0,0.0
2932,70.0,0.0,480.0,1.0,0.0
2933,58.0,0.0,150.0,12.0,0.0
2934,30.0,0.0,120.0,14.0,0.0
2935,73.0,96.0,150.0,10.0,0.0
2936,61.0,0.0,150.0,12.0,0.0
2937,42.0,24.0,120.0,13.0,0.0
2938,70.0,0.0,150.0,11.0,0.0
2939,61.0,0.0,480.0,2.0,0.0
2940,58.0,0.0,480.0,2.0,0.0
2941,73.0,0.0,480.0,1.0,0.0
2942,41.0,120.0,120.0,13.0,0.0
2943,29.0,0.0,120.0,14.0,0.0
2944,54.0,0.0,120.0,12.0,0.0
2945,54.0,0.0,120.0,10.0,0.0
2946,30.0,120.0,120.0,14.0,0.0
2947,42.0,0.0,120.0,13.0,0.0
2948,54.0,0.0,120.0,11.0,0.0
2949,29.0,0.0,120.0,14.0,0.0
2950,53.0,0.0,120.0,12.0,0.0
2951,53.0,0.0,120.0,11.0,0.0
2952,53.0,0.0,120.0,10.0,0.0
2953,41.0,120.0,120.0,13.0,0.0
2954,54.0,0.0,120.0,11.0,0.0
2955,54.0,120.0,120.0,12.0,0.0
2956,71.0,0.0,480.0,1.0,0.0
2957,30.0,0.0,120.0,14.0,0.0
2958,54.0,0.0,120.0,10.0,0.0
2959,75.0,0.0,480.0,1.0,0.0
2960,63.0,0.0,480.0,2.0,0.0
2961,42.0,0.0,120.0,13.0,0.0
2962,59.0,120.0,480.0,2.0,0.0
2963,41.0,0.0,120.0,13.0,0.0
2964,53.0,0.0,120.0,12.0,0.0
2965,53.0,0.0,120.0,10.0,0.0
2966,53.0,0.0,120.0,11.0,0.0
2967,29.0,120.0,120.0,14.0,0.0
2968,54.0,0.0,120.0,12.0,0.0
2969,54.0,0.0,120.0,10.0,0.0
2970,54.0,0.0,120.0,11.0,0.0
2971,30.0,96.0,120.0,14.0,0.0
2972,42.0,0.0,120.0,13.0,0.0
2973,53.0,0.0,120.0,10.0,0.0
2974,53.0,0.0,120.0,11.0,0.0
2975,53.0,0.0,120.0,12.0,0.0
2976,41.0,0.0,90.0,13.0,0.0
2977,29.0,24.0,90.0,14.0,0.0
2978,69.0,0.0,480.0,1.0,0.0
2979,72.0,0.0,480.0,1.0,0.0
2980,57.0,0.0,480.0,2.0,0.0
2981,54.0,120.0,120.0,11.0,0.0
2982,54.0,0.0,120.0,10.0,0.0
2983,30.0,0.0,120.0,14.0,0.0
2984,54.0,0.0,120.0,12.0,0.0
2985,60.0,0.0,480.0,2.0,0.0
2986,42.0,0.0,120.0,13.0,0.0
2987,53.0,0.0,120.0,12.0,0.0
2988,53.0,0.0,120.0,10.0,0.0
2989,29.0,0.0,120.0,14.0,0.0
2990,53.0,0.0,120.0,11.0,0.0
2991,41.0,120.0,120.0,13.0,0.0
2992,30.0,0.0,120.0,14.0,0.0
2993,54.0,120.0,120.0,12.0,0.0
2994,54.0,0.0,120.0,11.0,0.0
2995,42.0,0.0,120.0,13.0,0.0
2996,54.0,0.0,120.0,10.0,0.0
2997,53.0,0.0,120.0,11.0,0.0
2998,29.0,0.0,120.0,14.0,0.0
2999,53.0,0.0,120.0,12.0,0.0
3000,41.0,0.0,120.0,13.0,0.0
3001,53.0,120.0,120.0,10.0,0.0
3002,61.0,0.0,480.0,2.0,0.0
3003,42.0,0.0,120.0,13.0,0.0
3004,54.0,0.0,120.0,10.0,0.0
3005,30.0,120.0,120.0,14.0,0.0
3006,54.0,0.0,120.0,12.0,0.0
3007,54.0,0.0,120.0,11.0,0.0
3008,73.0,0.0,480.0,1.0,0.0
3009,70.0,0.0,480.0,1.0,0.0
3010,53.0,120.0,120.0,10.0,0.0
3011,41.0,0.0,120.0,13.0,0.0
3012,53.0,0.0,120.0,11.0,0.0
3013,53.0,0.0,120.0,12.0,0.0
3014,29.0,0.0,120.0,14.0,0.0
3015,54.0,0.0,120.0,12.0,0.0
3016,42.0,72.0,120.0,13.0,0.0
3017,54.0,0.0,120.0,10.0,0.0
3018,54.0,0.0,120.0,11.0,0.0
3019,30.0,0.0,120.0,14.0,0.0
3020,53.0,0.0,120.0,12.0,0.0
3021,53.0,0.0,120.0,10.0,0.0
3022,41.0,0.0,90.0,13.0,0.0
3023,29.0,24.0,90.0,14.0,0.0
3024,53.0,0.0,120.0,11.0,0.0
3025,66.0,0.0,570.0,1.0,0.0
3026,70.0,0.0,570.0,1.0,0.0
3027,30.0,0.0,150.0,14.0,0.0
3028,54.0,48.0,570.0,11.0,0.0
3029,42.0,0.0,5910.0,3.0,0.0
3030,46.0,0.0,570.0,12.0,0.0
3031,58.0,144.0,15.0,2.0,0.0
3032,54.0,0.0,570.0,2.0,0.0
3033,54.0,0.0,5910.0,3.0,0.0
3034,42.0,240.0,150.0,13.0,0.0
3035,54.0,0.0,570.0,10.0,0.0
3036,30.0,0.0,150.0,14.0,0.0
3037,42.0,192.0,150.0,13.0,0.0
3038,30.0,0.0,150.0,14.0,0.0
3039,42.0,174.0,150.0,13.0,0.0
3040,70.0,18.0,90.0,10.0,0.0
3041,42.0,54.0,150.0,13.0,0.0
3042,58.0,48.0,90.0,12.0,0.0
3043,30.0,0.0,150.0,14.0,0.0
3044,70.0,0.0,90.0,11.0,0.0
3045,71.0,0.0,90.0,10.0,0.0
3046,59.0,144.0,90.0,12.0,0.0
3047,71.0,18.0,90.0,11.0,0.0
3048,42.0,54.0,150.0,13.0,0.0
3049,61.0,24.0,120.0,12.0,0.0
3050,73.0,0.0,120.0,11.0,0.0
3051,30.0,0.0,150.0,14.0,0.0
3052,73.0,0.0,120.0,10.0,0.0
3053,71.0,0.0,90.0,11.0,0.0
3054,71.0,18.0,90.0,10.0,0.0
3055,59.0,102.0,90.0,12.0,0.0
3056,30.0,54.0,150.0,14.0,0.0
3057,70.0,18.0,90.0,10.0,0.0
3058,42.0,0.0,150.0,13.0,0.0
3059,70.0,0.0,90.0,11.0,0.0
3060,58.0,48.0,90.0,12.0,0.0
3061,68.0,18.0,90.0,11.0,0.0
3062,56.0,168.0,90.0,12.0,0.0
3063,68.0,0.0,90.0,10.0,0.0
3064,54.0,126.0,180.0,12.0,0.0
3065,42.0,0.0,150.0,13.0,0.0
3066,66.0,0.0,150.0,11.0,0.0
3067,66.0,36.0,150.0,10.0,0.0
3068,30.0,12.0,150.0,14.0,0.0
3069,30.0,54.0,150.0,14.0,0.0
3070,53.0,48.0,90.0,12.0,0.0
3071,42.0,0.0,150.0,13.0,0.0
3072,65.0,18.0,90.0,11.0,0.0
3073,65.0,0.0,90.0,10.0,0.0
3074,66.0,0.0,90.0,11.0,0.0
3075,66.0,18.0,90.0,10.0,0.0
3076,54.0,144.0,90.0,12.0,0.0
3077,68.0,0.0,120.0,10.0,0.0
3078,68.0,0.0,120.0,11.0,0.0
3079,56.0,24.0,120.0,12.0,0.0
3080,42.0,54.0,150.0,13.0,0.0
3081,30.0,0.0,150.0,14.0,0.0
3082,54.0,102.0,90.0,12.0,0.0
3083,66.0,0.0,90.0,11.0,0.0
3084,66.0,18.0,90.0,10.0,0.0
3085,52.0,48.0,90.0,12.0,0.0
3086,65.0,18.0,90.0,11.0,0.0
3087,65.0,0.0,90.0,10.0,0.0
3088,42.0,54.0,150.0,13.0,0.0
3089,30.0,0.0,150.0,14.0,0.0
3090,51.0,168.0,90.0,12.0,0.0
3091,63.0,18.0,90.0,11.0,0.0
3092,63.0,0.0,90.0,10.0,0.0
3093,42.0,12.0,150.0,13.0,0.0
3094,61.0,0.0,150.0,10.0,0.0
3095,61.0,36.0,150.0,11.0,0.0
3096,30.0,0.0,150.0,14.0,0.0
3097,49.0,126.0,180.0,12.0,0.0
3098,63.0,0.0,90.0,10.0,0.0
3099,63.0,18.0,90.0,11.0,0.0
3100,51.0,48.0,90.0,12.0,0.0
3101,30.0,54.0,150.0,14.0,0.0
3102,42.0,0.0,150.0,13.0,0.0
3103,52.0,168.0,90.0,12.0,0.0
3104,65.0,0.0,90.0,10.0,0.0
3105,65.0,18.0,90.0,11.0,0.0
3106,66.0,0.0,150.0,11.0,0.0
3107,30.0,0.0,150.0,14.0,0.0
3108,54.0,192.0,180.0,12.0,0.0
3109,66.0,0.0,150.0,10.0,0.0
3110,42.0,48.0,150.0,13.0,0.0
3111,53.0,0.0,180.0,12.0,0.0
3112,68.0,0.0,150.0,10.0,0.0
3113,30.0,0.0,150.0,14.0,0.0
3114,56.0,192.0,180.0,12.0,0.0
3115,42.0,0.0,150.0,13.0,0.0
3116,65.0,48.0,150.0,11.0,0.0
3117,66.0,48.0,150.0,11.0,0.0
3118,70.0,0.0,150.0,10.0,0.0
3119,58.0,0.0,180.0,12.0,0.0
3120,54.0,192.0,180.0,12.0,0.0
3121,42.0,0.0,150.0,13.0,0.0
3122,30.0,0.0,150.0,14.0,0.0
3123,71.0,0.0,150.0,10.0,0.0
3124,42.0,0.0,150.0,13.0,0.0
3125,59.0,0.0,180.0,12.0,0.0
3126,56.0,168.0,180.0,12.0,0.0
3127,68.0,0.0,150.0,11.0,0.0
3128,30.0,48.0,150.0,14.0,0.0
3129,70.0,0.0,480.0,1.0,0.0
3130,58.0,0.0,150.0,12.0,0.0
3131,61.0,96.0,150.0,12.0,0.0
3132,73.0,0.0,480.0,1.0,0.0
3133,58.0,0.0,480.0,2.0,0.0
3134,42.0,0.0,120.0,13.0,0.0
3135,61.0,0.0,480.0,2.0,0.0
3136,70.0,0.0,150.0,11.0,0.0
3137,73.0,0.0,150.0,10.0,0.0
3138,30.0,24.0,120.0,14.0,0.0
3139,41.0,120.0,120.0,13.0,0.0
3140,29.0,0.0,120.0,14.0,0.0
3141,54.0,0.0,120.0,12.0,0.0
3142,54.0,0.0,120.0,10.0,0.0
3143,30.0,0.0,120.0,14.0,0.0
3144,42.0,0.0,120.0,13.0,0.0
3145,54.0,120.0,120.0,11.0,0.0
3146,53.0,0.0,120.0,10.0,0.0
3147,41.0,0.0,120.0,13.0,0.0
3148,53.0,0.0,120.0,11.0,0.0
3149,53.0,120.0,120.0,12.0,0.0
3150,29.0,0.0,120.0,14.0,0.0
3151,59.0,0.0,480.0,2.0,0.0
3152,54.0,0.0,120.0,10.0,0.0
3153,30.0,0.0,120.0,14.0,0.0
3154,54.0,0.0,120.0,11.0,0.0
3155,71.0,0.0,480.0,1.0,0.0
3156,75.0,0.0,480.0,1.0,0.0
3157,54.0,120.0,120.0,12.0,0.0
3158,63.0,120.0,480.0,2.0,0.0
3159,42.0,0.0,120.0,13.0,0.0
3160,29.0,0.0,120.0,14.0,0.0
3161,53.0,120.0,120.0,10.0,0.0
3162,53.0,0.0,120.0,11.0,0.0
3163,41.0,0.0,120.0,13.0,0.0
3164,53.0,0.0,120.0,12.0,0.0
3165,54.0,0.0,120.0,11.0,0.0
3166,42.0,0.0,120.0,13.0,0.0
3167,30.0,96.0,120.0,14.0,0.0
3168,54.0,0.0,120.0,10.0,0.0
3169,54.0,0.0,120.0,12.0,0.0
3170,53.0,0.0,120.0,10.0,0.0
3171,53.0,0.0,120.0,12.0,0.0
3172,53.0,0.0,120.0,11.0,0.0
3173,41.0,24.0,90.0,13.0,0.0
3174,29.0,0.0,90.0,14.0,0.0
3175,54.0,0.0,120.0,10.0,0.0
3176,69.0,0.0,480.0,1.0,0.0
3177,30.0,0.0,120.0,14.0,0.0
3178,54.0,120.0,120.0,12.0,0.0
3179,72.0,120.0,480.0,1.0,0.0
3180,60.0,0.0,480.0,2.0,0.0
3181,57.0,0.0,480.0,2.0,0.0
3182,54.0,0.0,120.0,11.0,0.0
3183,42.0,0.0,120.0,13.0,0.0
3184,53.0,0.0,120.0,10.0,0.0
3185,53.0,0.0,120.0,11.0,0.0
3186,41.0,0.0,120.0,13.0,0.0
3187,53.0,0.0,120.0,12.0,0.0
3188,29.0,120.0,120.0,14.0,0.0
3189,42.0,0.0,120.0,13.0,0.0
3190,54.0,0.0,120.0,10.0,0.0
3191,54.0,0.0,120.0,11.0,0.0
3192,30.0,0.0,120.0,14.0,0.0
3193,54.0,120.0,120.0,12.0,0.0
3194,53.0,0.0,120.0,11.0,0.0
3195,53.0,0.0,120.0,10.0,0.0
3196,41.0,0.0,120.0,13.0,0.0
3197,29.0,0.0,120.0,14.0,0.0
3198,53.0,0.0,120.0,12.0,0.0
3199,54.0,0.0,120.0,11.0,0.0
3200,61.0,144.0,480.0,2.0,0.0
3201,73.0,0.0,480.0,1.0,0.0
3202,54.0,0.0,120.0,10.0,0.0
3203,42.0,120.0,120.0,13.0,0.0
3204,54.0,0.0,120.0,12.0,0.0
3205,30.0,0.0,120.0,14.0,0.0
3206,53.0,0.0,120.0,12.0,0.0
3207,53.0,120.0,120.0,11.0,0.0
3208,29.0,0.0,120.0,14.0,0.0
3209,41.0,0.0,120.0,13.0,0.0
3210,53.0,0.0,120.0,10.0,0.0
3211,54.0,0.0,120.0,12.0,0.0
3212,42.0,0.0,120.0,13.0,0.0
3213,54.0,96.0,120.0,10.0,0.0
3214,30.0,0.0,120.0,14.0,0.0
3215,54.0,0.0,120.0,11.0,0.0
3216,29.0,24.0,90.0,14.0,0.0
3217,53.0,0.0,120.0,10.0,0.0
3218,53.0,0.0,120.0,11.0,0.0
3219,53.0,0.0,120.0,12.0,0.0
3220,41.0,0.0,90.0,13.0,0.0
3221,54.0,0.0,150.0,12.0,0.0
3222,30.0,0.0,150.0,14.0,0.0
3223,42.0,0.0,150.0,13.0,0.0
3224,82.0,144.0,480.0,0.0,0.0
3225,54.0,0.0,150.0,11.0,0.0
3226,66.0,0.0,150.0,1.0,0.0
3227,54.0,240.0,150.0,2.0,0.0
3228,58.0,0.0,15.0,2.0,0.0
3229,70.0,0.0,15.0,1.0,0.0
3230,54.0,0.0,150.0,10.0,0.0
3231,54.0,0.0,150.0,2.0,0.0
3232,58.0,96.0,150.0,2.0,0.0
3233,42.0,0.0,150.0,13.0,0.0
3234,30.0,0.0,150.0,14.0,0.0
3235,54.0,0.0,150.0,3.0,0.0
3236,54.0,0.0,150.0,12.0,0.0
3237,70.0,0.0,150.0,1.0,0.0
3238,54.0,0.0,150.0,10.0,0.0
3239,66.0,0.0,150.0,1.0,0.0
3240,42.0,0.0,150.0,3.0,0.0
3241,54.0,0.0,150.0,11.0,0.0
3242,54.0,0.0,150.0,12.0,0.0
3243,87.0,144.0,480.0,0.0,0.0
3244,54.0,0.0,150.0,3.0,0.0
3245,54.0,0.0,150.0,10.0,0.0
3246,75.0,0.0,150.0,1.0,0.0
3247,54.0,0.0,150.0,11.0,0.0
3248,42.0,240.0,150.0,13.0,0.0
3249,30.0,0.0,150.0,14.0,0.0
3250,59.0,0.0,150.0,2.0,0.0
3251,71.0,0.0,150.0,1.0,0.0
3252,42.0,0.0,150.0,3.0,0.0
3253,63.0,0.0,150.0,2.0,0.0
3254,42.0,0.0,150.0,3.0,0.0
3255,54.0,0.0,150.0,3.0,0.0
3256,30.0,96.0,150.0,14.0,0.0
3257,42.0,0.0,150.0,13.0,0.0
3258,71.0,0.0,150.0,1.0,0.0
3259,63.0,0.0,150.0,2.0,0.0
3260,54.0,0.0,150.0,11.0,0.0
3261,75.0,0.0,150.0,1.0,0.0
3262,59.0,0.0,150.0,2.0,0.0
3263,54.0,0.0,150.0,10.0,0.0
3264,54.0,0.0,150.0,12.0,0.0
3265,54.0,0.0,150.0,10.0,0.0
3266,54.0,0.0,150.0,11.0,0.0
3267,57.0,0.0,150.0,2.0,0.0
3268,54.0,0.0,150.0,3.0,0.0
3269,42.0,0.0,150.0,3.0,0.0
3270,30.0,0.0,150.0,14.0,0.0
3271,54.0,0.0,150.0,12.0,0.0
3272,60.0,240.0,150.0,2.0,0.0
3273,72.0,0.0,150.0,1.0,0.0
3274,69.0,0.0,150.0,1.0,0.0
3275,42.0,0.0,150.0,13.0,0.0
3276,84.0,144.0,480.0,0.0,0.0
3277,42.0,0.0,150.0,13.0,0.0
3278,30.0,0.0,150.0,14.0,0.0
3279,72.0,0.0,150.0,1.0,0.0
3280,69.0,0.0,150.0,1.0,0.0
3281,57.0,0.0,150.0,2.0,0.0
3282,60.0,0.0,150.0,2.0,0.0
3283,54.0,0.0,150.0,11.0,0.0
3284,54.0,0.0,150.0,10.0,0.0
3285,42.0,96.0,150.0,3.0,0.0
3286,54.0,0.0,150.0,3.0,0.0
3287,54.0,0.0,150.0,12.0,0.0
3288,58.0,0.0,150.0,2.0,0.0
3289,61.0,0.0,150.0,2.0,0.0
3290,70.0,0.0,150.0,1.0,0.0
3291,73.0,0.0,150.0,1.0,0.0
3292,42.0,0.0,150.0,13.0,0.0
3293,54.0,240.0,150.0,11.0,0.0
3294,42.0,0.0,150.0,3.0,0.0
3295,54.0,0.0,150.0,12.0,0.0
3296,54.0,0.0,150.0,3.0,0.0
3297,85.0,0.0,390.0,0.0,0.0
3298,30.0,0.0,150.0,14.0,0.0
3299,54.0,0.0,150.0,10.0,0.0
3300,70.0,0.0,150.0,1.0,0.0
3301,61.0,0.0,150.0,2.0,0.0
3302,54.0,0.0,150.0,10.0,0.0
3303,42.0,0.0,150.0,13.0,0.0
3304,54.0,0.0,150.0,11.0,0.0
3305,54.0,0.0,150.0,3.0,0.0
3306,42.0,0.0,150.0,3.0,0.0
3307,58.0,0.0,150.0,2.0,0.0
3308,54.0,192.0,150.0,12.0,0.0
3309,30.0,0.0,150.0,14.0,0.0
3310,73.0,0.0,150.0,1.0,0.0
3311,70.0,60.0,90.0,11.0,0.0
3312,54.0,0.0,150.0,13.0,0.0
3313,66.0,0.0,390.0,4.0,0.0
3314,82.0,96.0,960.0,0.0,0.0
3315,54.0,24.0,180.0,3.0,0.0
3316,42.0,0.0,180.0,3.0,0.0
3317,78.0,0.0,90.0,10.0,0.0
3318,66.0,0.0,150.0,12.0,0.0
3319,54.0,0.0,390.0,4.0,0.0
3320,42.0,12.0,390.0,5.0,0.0
3321,70.0,0.0,960.0,1.0,0.0
3322,66.0,96.0,1440.0,1.0,0.0
3323,42.0,0.0,150.0,14.0,0.0
3324,58.0,0.0,150.0,2.0,0.0
3325,54.0,36.0,150.0,2.0,0.0
3326,78.0,0.0,90.0,10.0,0.0
3327,70.0,120.0,90.0,11.0,0.0
3328,54.0,24.0,180.0,3.0,0.0
3329,61.0,0.0,180.0,3.0,0.0
3330,42.0,36.0,150.0,14.0,0.0
3331,70.0,0.0,90.0,11.0,0.0
3332,54.0,0.0,150.0,13.0,0.0
3333,54.0,0.0,150.0,2.0,0.0
3334,66.0,0.0,150.0,12.0,0.0
3335,78.0,48.0,90.0,10.0,0.0
3336,70.0,0.0,90.0,11.0,0.0
3337,78.0,120.0,90.0,10.0,0.0
3338,54.0,0.0,180.0,3.0,0.0
3339,51.0,0.0,150.0,2.0,0.0
3340,51.0,0.0,150.0,13.0,0.0
3341,63.0,24.0,180.0,3.0,0.0
3342,70.0,60.0,90.0,11.0,0.0
3343,78.0,0.0,90.0,10.0,0.0
3344,63.0,36.0,150.0,12.0,0.0
3345,39.0,0.0,150.0,14.0,0.0
3346,70.0,0.0,90.0,11.0,0.0
3347,78.0,120.0,90.0,10.0,0.0
3348,70.0,60.0,90.0,11.0,0.0
3349,63.0,0.0,180.0,3.0,0.0
3350,54.0,24.0,180.0,3.0,0.0
3351,51.0,0.0,150.0,13.0,0.0
3352,51.0,36.0,150.0,2.0,0.0
3353,63.0,0.0,150.0,12.0,0.0
3354,78.0,0.0,90.0,10.0,0.0
3355,39.0,0.0,150.0,14.0,0.0
3356,70.0,24.0,90.0,11.0,0.0
3357,78.0,0.0,90.0,10.0,0.0
3358,54.0,24.0,180.0,3.0,0.0
3359,68.0,60.0,90.0,11.0,0.0
3360,68.0,0.0,870.0,1.0,0.0
3361,80.0,96.0,960.0,0.0,0.0
3362,78.0,0.0,90.0,10.0,0.0
3363,59.0,0.0,150.0,12.0,0.0
3364,47.0,0.0,150.0,13.0,0.0
3365,63.0,0.0,180.0,3.0,0.0
3366,35.0,36.0,150.0,14.0,0.0
3367,47.0,0.0,150.0,2.0,0.0
3368,68.0,0.0,90.0,11.0,0.0
3369,78.0,120.0,90.0,10.0,0.0
3370,47.0,0.0,150.0,2.0,0.0
3371,63.0,0.0,180.0,3.0,0.0
3372,35.0,0.0,150.0,14.0,0.0
3373,54.0,24.0,180.0,3.0,0.0
3374,78.0,60.0,90.0,10.0,0.0
3375,68.0,0.0,90.0,11.0,0.0
3376,47.0,0.0,150.0,13.0,0.0
3377,59.0,36.0,150.0,12.0,0.0
3378,78.0,24.0,90.0,10.0,0.0
3379,68.0,0.0,90.0,11.0,0.0
3380,77.0,60.0,90.0,10.0,0.0
3381,49.0,0.0,150.0,13.0,0.0
3382,61.0,0.0,150.0,12.0,0.0
3383,49.0,0.0,150.0,2.0,0.0
3384,68.0,0.0,90.0,11.0,0.0
3385,65.0,12.0,390.0,1.0,0.0
3386,37.0,36.0,150.0,14.0,0.0
3387,61.0,24.0,180.0,3.0,0.0
3388,77.0,120.0,90.0,10.0,0.0
3389,68.0,0.0,90.0,11.0,0.0
3390,68.0,0.0,90.0,11.0,0.0
3391,49.0,0.0,150.0,13.0,0.0
3392,49.0,36.0,150.0,2.0,0.0
3393,37.0,0.0,150.0,14.0,0.0
3394,61.0,24.0,180.0,3.0,0.0
3395,61.0,0.0,150.0,12.0,0.0
3396,77.0,48.0,90.0,10.0,0.0
3397,68.0,0.0,90.0,11.0,0.0
3398,77.0,24.0,90.0,10.0,0.0
3399,61.0,0.0,90.0,11.0,0.0
3400,70.0,0.0,90.0,11.0,0.0
3401,42.0,0.0,150.0,2.0,0.0
3402,70.0,0.0,150.0,1.0,0.0
3403,66.0,36.0,150.0,1.0,0.0
3404,78.0,0.0,150.0,0.0,0.0
3405,73.0,0.0,390.0,4.0,0.0
3406,42.0,12.0,390.0,5.0,0.0
3407,30.0,0.0,150.0,14.0,0.0
3408,42.0,0.0,150.0,13.0,0.0
3409,66.0,0.0,390.0,4.0,0.0
3410,78.0,60.0,90.0,10.0,0.0
3411,54.0,24.0,180.0,3.0,0.0
3412,54.0,0.0,150.0,12.0,0.0
3413,61.0,0.0,180.0,3.0,0.0
3414,70.0,0.0,90.0,11.0,0.0
3415,61.0,120.0,90.0,11.0,0.0
3416,73.0,0.0,90.0,10.0,0.0
3417,54.0,24.0,180.0,3.0,0.0
3418,70.0,0.0,90.0,10.0,0.0
3419,61.0,0.0,180.0,3.0,0.0
3420,70.0,0.0,150.0,1.0,0.0
3421,54.0,0.0,150.0,2.0,0.0
3422,66.0,0.0,150.0,1.0,0.0
3423,61.0,48.0,90.0,11.0,0.0
3424,66.0,0.0,150.0,12.0,0.0
3425,54.0,36.0,150.0,13.0,0.0
3426,42.0,0.0,150.0,14.0,0.0
3427,82.0,0.0,150.0,0.0,0.0
3428,70.0,0.0,90.0,11.0,0.0
3429,61.0,120.0,90.0,11.0,0.0
3430,73.0,0.0,90.0,10.0,0.0
3431,70.0,0.0,90.0,11.0,0.0
3432,83.0,0.0,150.0,0.0,0.0
3433,61.0,24.0,180.0,3.0,0.0
3434,73.0,12.0,390.0,4.0,0.0
3435,49.0,0.0,150.0,12.0,0.0
3436,25.0,36.0,150.0,14.0,0.0
3437,37.0,0.0,150.0,2.0,0.0
3438,65.0,0.0,150.0,1.0,0.0
3439,68.0,0.0,150.0,1.0,0.0
3440,61.0,0.0,90.0,11.0,0.0
3441,68.0,0.0,90.0,11.0,0.0
3442,37.0,0.0,150.0,13.0,0.0
3443,71.0,60.0,90.0,10.0,0.0
3444,73.0,120.0,90.0,10.0,0.0
3445,68.0,0.0,90.0,11.0,0.0
3446,61.0,0.0,90.0,11.0,0.0
3447,61.0,48.0,90.0,11.0,0.0
3448,68.0,0.0,90.0,11.0,0.0
3449,77.0,0.0,90.0,10.0,0.0
3450,80.0,0.0,150.0,0.0,0.0
3451,49.0,0.0,150.0,13.0,0.0
3452,49.0,36.0,150.0,2.0,0.0
3453,61.0,0.0,150.0,12.0,0.0
3454,71.0,0.0,150.0,1.0,0.0
3455,68.0,0.0,150.0,1.0,0.0
3456,37.0,0.0,150.0,14.0,0.0
3457,61.0,24.0,180.0,3.0,0.0
3458,73.0,0.0,90.0,10.0,0.0
3459,61.0,0.0,90.0,11.0,0.0
3460,68.0,120.0,90.0,11.0,0.0
3461,78.0,0.0,150.0,0.0,0.0
3462,61.0,0.0,90.0,11.0,0.0
3463,73.0,0.0,390.0,4.0,0.0
3464,61.0,0.0,180.0,3.0,0.0
3465,70.0,0.0,90.0,11.0,0.0
3466,54.0,24.0,180.0,3.0,0.0
3467,30.0,0.0,150.0,14.0,0.0
3468,42.0,0.0,150.0,13.0,0.0
3469,42.0,0.0,390.0,5.0,0.0
3470,70.0,36.0,150.0,1.0,0.0
3471,42.0,0.0,150.0,2.0,0.0
3472,78.0,60.0,90.0,10.0,0.0
3473,66.0,0.0,150.0,1.0,0.0
3474,66.0,12.0,390.0,4.0,0.0
3475,54.0,0.0,150.0,12.0,0.0
3476,73.0,0.0,90.0,10.0,0.0
3477,70.0,0.0,90.0,11.0,0.0
3478,61.0,120.0,90.0,11.0,0.0
3479,54.0,0.0,180.0,3.0,0.0
3480,61.0,24.0,180.0,3.0,0.0
3481,61.0,48.0,90.0,11.0,0.0
3482,82.0,0.0,150.0,0.0,0.0
3483,42.0,0.0,150.0,14.0,0.0
3484,54.0,0.0,150.0,13.0,0.0
3485,70.0,0.0,150.0,1.0,0.0
3486,54.0,36.0,150.0,2.0,0.0
3487,66.0,0.0,150.0,1.0,0.0
3488,70.0,0.0,90.0,10.0,0.0
3489,66.0,0.0,150.0,12.0,0.0
3490,70.0,0.0,90.0,11.0,0.0
3491,61.0,0.0,90.0,11.0,0.0
3492,70.0,120.0,90.0,11.0,0.0
3493,73.0,0.0,90.0,10.0,0.0
3494,68.0,0.0,90.0,11.0,0.0
3495,25.0,0.0,150.0,14.0,0.0
3496,37.0,0.0,150.0,2.0,0.0
3497,73.0,12.0,390.0,4.0,0.0
3498,61.0,24.0,180.0,3.0,0.0
3499,71.0,60.0,90.0,10.0,0.0
3500,61.0,0.0,90.0,11.0,0.0
3501,65.0,0.0,150.0,1.0,0.0
3502,68.0,0.0,150.0,1.0,0.0
3503,83.0,0.0,150.0,0.0,0.0
3504,37.0,0.0,150.0,13.0,0.0
3505,49.0,36.0,150.0,12.0,0.0
3506,73.0,120.0,90.0,10.0,0.0
3507,68.0,0.0,90.0,11.0,0.0
3508,61.0,0.0,90.0,11.0,0.0
3509,61.0,0.0,150.0,12.0,0.0
3510,71.0,36.0,150.0,1.0,0.0
3511,68.0,0.0,150.0,1.0,0.0
3512,49.0,0.0,150.0,13.0,0.0
3513,80.0,0.0,150.0,0.0,0.0
3514,77.0,0.0,90.0,10.0,0.0
3515,61.0,24.0,180.0,3.0,0.0
3516,49.0,0.0,150.0,2.0,0.0
3517,37.0,0.0,150.0,14.0,0.0
3518,68.0,0.0,90.0,11.0,0.0
3519,61.0,48.0,90.0,11.0,0.0
3520,68.0,0.0,90.0,11.0,0.0
3521,61.0,0.0,90.0,11.0,0.0
3522,73.0,168.0,90.0,10.0,0.0
3523,61.0,0.0,150.0,11.0,0.0
3524,78.0,168.0,150.0,10.0,0.0
3525,70.0,0.0,150.0,11.0,0.0
3526,42.0,0.0,150.0,13.0,0.0
3527,66.0,0.0,150.0,4.0,0.0
3528,42.0,0.0,150.0,2.0,0.0
3529,73.0,0.0,150.0,4.0,0.0
3530,30.0,0.0,150.0,14.0,0.0
3531,54.0,0.0,150.0,3.0,0.0
3532,61.0,0.0,150.0,3.0,0.0
3533,70.0,0.0,150.0,1.0,0.0
3534,42.0,0.0,390.0,5.0,0.0
3535,78.0,0.0,150.0,0.0,0.0
3536,66.0,0.0,150.0,1.0,0.0
3537,54.0,0.0,150.0,12.0,0.0
3538,54.0,0.0,150.0,4.0,0.0
3539,66.0,0.0,150.0,4.0,0.0
3540,42.0,0.0,150.0,14.0,0.0
3541,54.0,0.0,60.0,10.0,0.0
3542,66.0,0.0,150.0,0.0,0.0
3543,66.0,0.0,150.0,12.0,0.0
3544,54.0,0.0,150.0,3.0,0.0
3545,42.0,0.0,150.0,3.0,0.0
3546,54.0,48.0,150.0,13.0,0.0
3547,54.0,72.0,60.0,11.0,0.0
3548,66.0,0.0,150.0,1.0,0.0
3549,54.0,0.0,150.0,2.0,0.0
3550,54.0,192.0,60.0,10.0,0.0
3551,54.0,0.0,60.0,11.0,0.0
3552,42.0,0.0,150.0,13.0,0.0
3553,54.0,0.0,150.0,10.0,0.0
3554,54.0,0.0,150.0,4.0,0.0
3555,66.0,0.0,150.0,4.0,0.0
3556,54.0,0.0,150.0,3.0,0.0
3557,66.0,0.0,150.0,1.0,0.0
3558,66.0,0.0,150.0,0.0,0.0
3559,42.0,0.0,150.0,3.0,0.0
3560,54.0,0.0,150.0,12.0,0.0
3561,42.0,240.0,150.0,2.0,0.0
3562,42.0,0.0,390.0,5.0,0.0
3563,30.0,0.0,150.0,14.0,0.0
3564,54.0,0.0,150.0,11.0,0.0
3565,30.0,0.0,150.0,14.0,0.0
3566,66.0,480.0,150.0,0.0,0.0
3567,42.0,0.0,150.0,13.0,0.0
3568,54.0,0.0,150.0,12.0,0.0
3569,54.0,0.0,150.0,4.0,0.0
3570,42.0,0.0,150.0,3.0,0.0
3571,54.0,0.0,150.0,3.0,0.0
3572,66.0,0.0,150.0,4.0,0.0
3573,42.0,0.0,150.0,2.0,0.0
3574,54.0,0.0,150.0,10.0,0.0
3575,66.0,0.0,150.0,1.0,0.0
3576,54.0,0.0,150.0,11.0,0.0
3577,42.0,414.0,390.0,2.0,0.0
3578,54.0,0.0,390.0,3.0,0.0
3579,54.0,0.0,390.0,11.0,0.0
3580,66.0,0.0,390.0,4.0,0.0
3581,54.0,0.0,390.0,4.0,0.0
3582,54.0,0.0,390.0,12.0,0.0
3583,30.0,0.0,390.0,14.0,0.0
3584,42.0,0.0,390.0,3.0,0.0
3585,54.0,0.0,390.0,10.0,0.0
3586,66.0,0.0,390.0,0.0,0.0
3587,42.0,0.0,390.0,13.0,0.0
3588,42.0,0.0,390.0,5.0,0.0
3589,66.0,0.0,390.0,1.0,0.0
3590,75.0,120.0,90.0,10.0,0.0
3591,76.0,162.0,90.0,10.0,0.0
3592,63.0,72.0,120.0,11.0,0.0
3593,78.0,0.0,120.0,10.0,0.0
3594,76.0,48.0,60.0,10.0,0.0
3595,66.0,72.0,120.0,11.0,0.0
3596,63.0,72.0,120.0,11.0,0.0
3597,75.0,48.0,60.0,10.0,0.0
3598,73.0,48.0,60.0,10.0,0.0
3599,66.0,120.0,120.0,11.0,0.0
3600,63.0,24.0,120.0,11.0,0.0
3601,71.0,96.0,150.0,10.0,0.0
3602,66.0,120.0,120.0,11.0,0.0
3603,63.0,24.0,120.0,11.0,0.0
3604,73.0,72.0,150.0,10.0,0.0
3605,66.0,144.0,90.0,11.0,0.0
3606,66.0,24.0,570.0,10.0,0.0
3607,64.0,120.0,120.0,11.0,0.0
3608,66.0,120.0,120.0,11.0,0.0
3609,64.0,120.0,120.0,11.0,0.0
3610,66.0,96.0,120.0,11.0,0.0
3611,64.0,120.0,120.0,11.0,0.0
3612,66.0,96.0,120.0,11.0,0.0
3613,64.0,96.0,120.0,11.0,0.0
3614,68.0,24.0,90.0,10.0,0.0
3615,70.0,144.0,90.0,10.0,0.0
3616,66.0,0.0,90.0,11.0,0.0
3617,71.0,0.0,120.0,10.0,0.0
3618,63.0,72.0,120.0,11.0,0.0
3619,70.0,48.0,60.0,10.0,0.0
3620,66.0,72.0,120.0,11.0,0.0
3621,68.0,48.0,60.0,10.0,0.0
3622,63.0,72.0,120.0,11.0,0.0
3623,66.0,96.0,120.0,11.0,0.0
3624,66.0,48.0,60.0,10.0,0.0
3625,64.0,24.0,90.0,10.0,0.0
3626,58.0,96.0,120.0,11.0,0.0
3627,63.0,24.0,90.0,10.0,0.0
3628,66.0,96.0,120.0,11.0,0.0
3629,64.0,24.0,90.0,10.0,0.0
3630,58.0,96.0,120.0,11.0,0.0
3631,66.0,0.0,90.0,10.0,0.0
3632,66.0,144.0,90.0,11.0,0.0
3633,63.0,24.0,570.0,10.0,0.0
3634,59.0,120.0,120.0,11.0,0.0
3635,66.0,120.0,120.0,11.0,0.0
3636,59.0,120.0,120.0,11.0,0.0
3637,66.0,96.0,120.0,11.0,0.0
3638,59.0,120.0,120.0,11.0,0.0
3639,66.0,96.0,120.0,11.0,0.0
3640,64.0,24.0,90.0,10.0,0.0
3641,59.0,96.0,120.0,11.0,0.0
3642,66.0,0.0,90.0,11.0,0.0
3643,66.0,144.0,90.0,10.0,0.0
3644,52.0,72.0,120.0,11.0,0.0
3645,68.0,48.0,180.0,10.0,0.0
3646,61.0,96.0,120.0,11.0,0.0
3647,70.0,24.0,90.0,10.0,0.0
3648,52.0,96.0,120.0,11.0,0.0
3649,71.0,24.0,90.0,10.0,0.0
3650,61.0,120.0,120.0,11.0,0.0
3651,73.0,0.0,120.0,10.0,0.0
3652,52.0,96.0,120.0,11.0,0.0
3653,75.0,24.0,90.0,10.0,0.0
3654,61.0,72.0,120.0,11.0,0.0
3655,76.0,48.0,60.0,10.0,0.0
3656,52.0,72.0,120.0,11.0,0.0
3657,61.0,144.0,90.0,11.0,0.0
3658,73.0,24.0,60.0,10.0,0.0
3659,71.0,96.0,120.0,10.0,0.0
3660,52.0,0.0,120.0,11.0,0.0
3661,61.0,72.0,120.0,11.0,0.0
3662,70.0,24.0,90.0,10.0,0.0
3663,52.0,72.0,120.0,11.0,0.0
3664,68.0,48.0,60.0,10.0,0.0
3665,61.0,120.0,120.0,11.0,0.0
3666,66.0,48.0,60.0,10.0,0.0
3667,52.0,72.0,120.0,11.0,0.0
3668,71.0,48.0,180.0,10.0,0.0
3669,59.0,96.0,120.0,11.0,0.0
3670,73.0,24.0,90.0,10.0,0.0
3671,52.0,96.0,120.0,11.0,0.0
3672,75.0,144.0,90.0,10.0,0.0
3673,59.0,0.0,90.0,11.0,0.0
3674,58.0,24.0,120.0,11.0,0.0
3675,76.0,96.0,150.0,10.0,0.0
3676,66.0,120.0,120.0,11.0,0.0
3677,58.0,24.0,120.0,11.0,0.0
3678,76.0,96.0,150.0,10.0,0.0
3679,66.0,120.0,120.0,11.0,0.0
3680,75.0,96.0,150.0,10.0,0.0
3681,59.0,24.0,120.0,11.0,0.0
3682,66.0,120.0,120.0,11.0,0.0
3683,75.0,72.0,150.0,10.0,0.0
3684,59.0,24.0,120.0,11.0,0.0
3685,66.0,144.0,90.0,11.0,0.0
3686,73.0,96.0,120.0,10.0,0.0
3687,54.0,48.0,390.0,11.0,0.0
3688,70.0,96.0,90.0,10.0,0.0
3689,71.0,72.0,60.0,10.0,0.0
3690,68.0,192.0,60.0,10.0,0.0
3691,66.0,168.0,150.0,10.0,0.0
3692,63.0,120.0,60.0,11.0,0.0
3693,75.0,0.0,60.0,10.0,0.0
3694,64.0,168.0,60.0,11.0,0.0
3695,76.0,0.0,60.0,10.0,0.0
3696,39.0,0.0,180.0,14.0,0.0
3697,78.0,0.0,120.0,10.0,0.0
3698,51.0,0.0,120.0,12.0,0.0
3699,71.0,0.0,390.0,4.0,0.0
3700,51.0,72.0,120.0,13.0,0.0
3701,47.0,0.0,390.0,5.0,0.0
3702,59.0,0.0,720.0,2.0,0.0
3703,71.0,0.0,720.0,1.0,0.0
3704,59.0,48.0,390.0,4.0,0.0
3705,51.0,0.0,780.0,3.0,0.0
3706,59.0,72.0,780.0,3.0,0.0
3707,83.0,48.0,720.0,0.0,0.0
3708,66.0,0.0,120.0,11.0,0.0
3709,54.0,72.0,120.0,13.0,0.0
3710,54.0,0.0,120.0,12.0,0.0
3711,76.0,48.0,60.0,10.0,0.0
3712,64.0,0.0,60.0,11.0,0.0
3713,51.0,0.0,120.0,12.0,0.0
3714,39.0,48.0,180.0,14.0,0.0
3715,75.0,0.0,60.0,10.0,0.0
3716,63.0,48.0,60.0,11.0,0.0
3717,51.0,24.0,120.0,13.0,0.0
3718,54.0,120.0,120.0,13.0,0.0
3719,54.0,0.0,120.0,12.0,0.0
3720,61.0,0.0,60.0,11.0,0.0
3721,73.0,0.0,60.0,10.0,0.0
3722,59.0,0.0,150.0,11.0,0.0
3723,71.0,48.0,150.0,10.0,0.0
3724,51.0,0.0,120.0,12.0,0.0
3725,39.0,48.0,180.0,14.0,0.0
3726,51.0,24.0,120.0,13.0,0.0
3727,54.0,0.0,120.0,13.0,0.0
3728,54.0,0.0,120.0,12.0,0.0
3729,73.0,0.0,180.0,1.0,0.0
3730,61.0,0.0,180.0,2.0,0.0
3731,51.0,0.0,120.0,13.0,0.0
3732,61.0,0.0,150.0,11.0,0.0
3733,51.0,24.0,120.0,12.0,0.0
3734,73.0,48.0,150.0,10.0,0.0
3735,39.0,0.0,180.0,14.0,0.0
3736,85.0,24.0,180.0,0.0,0.0
3737,54.0,0.0,90.0,12.0,0.0
3738,54.0,144.0,90.0,13.0,0.0
3739,52.0,0.0,120.0,12.0,0.0
3740,54.0,0.0,390.0,4.0,0.0
3741,78.0,48.0,720.0,0.0,0.0
3742,54.0,0.0,570.0,11.0,0.0
3743,66.0,48.0,390.0,4.0,0.0
3744,66.0,24.0,570.0,10.0,0.0
3745,42.0,0.0,390.0,5.0,0.0
3746,52.0,72.0,120.0,13.0,0.0
3747,61.0,48.0,780.0,3.0,0.0
3748,54.0,0.0,780.0,3.0,0.0
3749,54.0,0.0,720.0,2.0,0.0
3750,40.0,48.0,180.0,14.0,0.0
3751,66.0,0.0,720.0,1.0,0.0
3752,54.0,0.0,120.0,13.0,0.0
3753,54.0,120.0,120.0,12.0,0.0
3754,40.0,48.0,180.0,14.0,0.0
3755,52.0,24.0,120.0,12.0,0.0
3756,52.0,0.0,120.0,13.0,0.0
3757,54.0,0.0,120.0,12.0,0.0
3758,54.0,96.0,120.0,13.0,0.0
3759,40.0,48.0,180.0,14.0,0.0
3760,52.0,72.0,120.0,12.0,0.0
3761,52.0,0.0,120.0,13.0,0.0
3762,54.0,0.0,120.0,12.0,0.0
3763,54.0,0.0,120.0,13.0,0.0
3764,68.0,24.0,90.0,10.0,0.0
3765,52.0,0.0,120.0,13.0,0.0
3766,56.0,0.0,90.0,11.0,0.0
3767,68.0,0.0,120.0,1.0,0.0
3768,56.0,72.0,120.0,2.0,0.0
3769,52.0,0.0,120.0,12.0,0.0
3770,40.0,24.0,180.0,14.0,0.0
3771,80.0,0.0,120.0,0.0,0.0
3772,54.0,0.0,90.0,13.0,0.0
3773,54.0,0.0,90.0,12.0,0.0
3774,58.0,0.0,90.0,2.0,0.0
3775,58.0,0.0,90.0,11.0,0.0
3776,70.0,0.0,90.0,1.0,0.0
3777,82.0,0.0,90.0,0.0,0.0
3778,70.0,144.0,90.0,10.0,0.0
3779,63.0,0.0,180.0,3.0,0.0
3780,39.0,0.0,180.0,14.0,0.0
3781,51.0,0.0,120.0,12.0,0.0
3782,71.0,0.0,120.0,1.0,0.0
3783,59.0,0.0,120.0,11.0,0.0
3784,59.0,0.0,120.0,2.0,0.0
3785,83.0,72.0,120.0,0.0,0.0
3786,71.0,0.0,120.0,10.0,0.0
3787,47.0,48.0,390.0,5.0,0.0
3788,59.0,48.0,180.0,3.0,0.0
3789,51.0,0.0,120.0,13.0,0.0
3790,54.0,0.0,390.0,4.0,0.0
3791,66.0,0.0,390.0,4.0,0.0
3792,54.0,0.0,120.0,12.0,0.0
3793,70.0,72.0,120.0,1.0,0.0
3794,58.0,0.0,60.0,11.0,0.0
3795,70.0,0.0,60.0,10.0,0.0
3796,82.0,0.0,120.0,0.0,0.0
3797,54.0,0.0,120.0,13.0,0.0
3798,58.0,0.0,120.0,2.0,0.0
3799,63.0,0.0,180.0,3.0,0.0
3800,51.0,0.0,120.0,12.0,0.0
3801,80.0,24.0,120.0,0.0,0.0
3802,39.0,0.0,180.0,14.0,0.0
3803,68.0,0.0,120.0,1.0,0.0
3804,56.0,0.0,120.0,2.0,0.0
3805,68.0,0.0,60.0,10.0,0.0
3806,59.0,0.0,180.0,3.0,0.0
3807,51.0,0.0,120.0,13.0,0.0
3808,56.0,48.0,60.0,11.0,0.0
3809,54.0,48.0,60.0,11.0,0.0
3810,54.0,0.0,120.0,2.0,0.0
3811,54.0,0.0,120.0,13.0,0.0
3812,66.0,0.0,120.0,1.0,0.0
3813,66.0,0.0,60.0,10.0,0.0
3814,54.0,96.0,120.0,12.0,0.0
3815,78.0,0.0,120.0,0.0,0.0
3816,54.0,24.0,180.0,3.0,0.0
3817,46.0,0.0,120.0,12.0,0.0
3818,66.0,48.0,390.0,4.0,0.0
3819,52.0,0.0,120.0,2.0,0.0
3820,46.0,0.0,120.0,13.0,0.0
3821,64.0,24.0,90.0,10.0,0.0
3822,52.0,0.0,90.0,11.0,0.0
3823,61.0,0.0,180.0,3.0,0.0
3824,76.0,72.0,120.0,0.0,0.0
3825,54.0,0.0,390.0,4.0,0.0
3826,34.0,0.0,180.0,14.0,0.0
3827,64.0,0.0,120.0,1.0,0.0
3828,42.0,0.0,390.0,5.0,0.0
3829,54.0,0.0,120.0,13.0,0.0
3830,63.0,0.0,90.0,10.0,0.0
3831,51.0,0.0,120.0,2.0,0.0
3832,51.0,24.0,90.0,11.0,0.0
3833,63.0,0.0,120.0,1.0,0.0
3834,54.0,96.0,120.0,12.0,0.0
3835,75.0,0.0,120.0,0.0,0.0
3836,46.0,24.0,120.0,13.0,0.0
3837,64.0,0.0,120.0,1.0,0.0
3838,54.0,0.0,180.0,3.0,0.0
3839,61.0,0.0,180.0,3.0,0.0
3840,52.0,0.0,90.0,11.0,0.0
3841,46.0,0.0,120.0,12.0,0.0
3842,52.0,0.0,120.0,2.0,0.0
3843,76.0,0.0,120.0,0.0,0.0
3844,64.0,24.0,90.0,10.0,0.0
3845,34.0,24.0,180.0,14.0,0.0
3846,66.0,0.0,90.0,1.0,0.0
3847,54.0,0.0,90.0,11.0,0.0
3848,54.0,0.0,90.0,12.0,0.0
3849,78.0,0.0,90.0,0.0,0.0
3850,54.0,0.0,90.0,13.0,0.0
3851,66.0,0.0,90.0,10.0,0.0
3852,54.0,144.0,90.0,2.0,0.0
3853,47.0,72.0,120.0,13.0,0.0
3854,59.0,48.0,780.0,3.0,0.0
3855,35.0,48.0,180.0,14.0,0.0
3856,51.0,0.0,720.0,2.0,0.0
3857,51.0,0.0,570.0,11.0,0.0
3858,51.0,0.0,780.0,3.0,0.0
3859,47.0,0.0,390.0,5.0,0.0
3860,47.0,0.0,120.0,12.0,0.0
3861,66.0,48.0,390.0,4.0,0.0
3862,59.0,0.0,390.0,4.0,0.0
3863,75.0,0.0,720.0,0.0,0.0
3864,63.0,0.0,720.0,1.0,0.0
3865,63.0,24.0,570.0,10.0,0.0
3866,54.0,0.0,120.0,13.0,0.0
3867,54.0,120.0,120.0,12.0,0.0
3868,35.0,48.0,180.0,14.0,0.0
3869,47.0,24.0,120.0,12.0,0.0
3870,47.0,0.0,120.0,13.0,0.0
3871,54.0,96.0,120.0,13.0,0.0
3872,54.0,0.0,120.0,12.0,0.0
3873,47.0,0.0,120.0,12.0,0.0
3874,35.0,48.0,180.0,14.0,0.0
3875,47.0,72.0,120.0,13.0,0.0
3876,54.0,0.0,120.0,12.0,0.0
3877,54.0,48.0,120.0,13.0,0.0
3878,64.0,24.0,90.0,10.0,0.0
3879,52.0,0.0,90.0,11.0,0.0
3880,35.0,24.0,180.0,14.0,0.0
3881,47.0,0.0,120.0,13.0,0.0
3882,64.0,72.0,120.0,1.0,0.0
3883,47.0,0.0,120.0,12.0,0.0
3884,52.0,0.0,120.0,2.0,0.0
3885,76.0,0.0,120.0,0.0,0.0
3886,78.0,0.0,90.0,0.0,0.0
3887,54.0,0.0,90.0,2.0,0.0
3888,54.0,144.0,90.0,12.0,0.0
3889,66.0,0.0,90.0,10.0,0.0
3890,54.0,0.0,90.0,11.0,0.0
3891,66.0,0.0,90.0,1.0,0.0
3892,54.0,0.0,90.0,13.0,0.0
3893,56.0,0.0,480.0,2.0,0.0
3894,68.0,0.0,480.0,1.0,0.0
3895,59.0,24.0,780.0,3.0,0.0
3896,61.0,0.0,780.0,3.0,0.0
3897,80.0,120.0,480.0,0.0,0.0
3898,47.0,48.0,390.0,5.0,0.0
3899,68.0,0.0,180.0,10.0,0.0
3900,71.0,0.0,390.0,4.0,0.0
3901,56.0,48.0,180.0,11.0,0.0
3902,40.0,0.0,180.0,14.0,0.0
3903,59.0,0.0,390.0,4.0,0.0
3904,52.0,0.0,120.0,12.0,0.0
3905,52.0,72.0,120.0,13.0,0.0
3906,56.0,96.0,120.0,13.0,0.0
3907,56.0,0.0,120.0,12.0,0.0
3908,70.0,0.0,90.0,10.0,0.0
3909,58.0,24.0,90.0,11.0,0.0
3910,52.0,0.0,120.0,12.0,0.0
3911,40.0,24.0,180.0,14.0,0.0
3912,52.0,24.0,120.0,13.0,0.0
3913,59.0,24.0,90.0,11.0,0.0
3914,56.0,0.0,120.0,12.0,0.0
3915,71.0,0.0,90.0,10.0,0.0
3916,56.0,0.0,120.0,13.0,0.0
3917,73.0,0.0,120.0,10.0,0.0
3918,40.0,24.0,180.0,14.0,0.0
3919,52.0,72.0,120.0,13.0,0.0
3920,52.0,0.0,120.0,12.0,0.0
3921,61.0,0.0,480.0,2.0,0.0
3922,85.0,0.0,480.0,0.0,0.0
3923,73.0,120.0,480.0,1.0,0.0
3924,61.0,0.0,120.0,11.0,0.0
3925,63.0,24.0,90.0,11.0,0.0
3926,56.0,48.0,120.0,12.0,0.0
3927,75.0,0.0,90.0,10.0,0.0
3928,56.0,0.0,120.0,13.0,0.0
3929,52.0,0.0,120.0,12.0,0.0
3930,40.0,0.0,180.0,14.0,0.0
3931,52.0,72.0,120.0,13.0,0.0
3932,76.0,48.0,60.0,10.0,0.0
3933,64.0,0.0,60.0,11.0,0.0
3934,56.0,0.0,90.0,12.0,0.0
3935,73.0,0.0,60.0,10.0,0.0
3936,56.0,24.0,90.0,13.0,0.0
3937,61.0,24.0,60.0,11.0,0.0
3938,52.0,0.0,120.0,13.0,0.0
3939,58.0,0.0,480.0,2.0,0.0
3940,71.0,72.0,120.0,10.0,0.0
3941,40.0,0.0,180.0,14.0,0.0
3942,42.0,0.0,390.0,5.0,0.0
3943,66.0,0.0,390.0,4.0,0.0
3944,70.0,0.0,480.0,1.0,0.0
3945,82.0,0.0,480.0,0.0,0.0
3946,54.0,0.0,780.0,3.0,0.0
3947,61.0,24.0,780.0,3.0,0.0
3948,59.0,0.0,120.0,11.0,0.0
3949,54.0,48.0,390.0,4.0,0.0
3950,52.0,0.0,120.0,12.0,0.0
3951,70.0,0.0,60.0,10.0,0.0
3952,54.0,0.0,120.0,13.0,0.0
3953,54.0,72.0,120.0,12.0,0.0
3954,58.0,48.0,60.0,11.0,0.0
3955,40.0,0.0,180.0,14.0,0.0
3956,52.0,24.0,120.0,12.0,0.0
3957,52.0,0.0,120.0,13.0,0.0
3958,68.0,48.0,60.0,10.0,0.0
3959,56.0,0.0,60.0,11.0,0.0
3960,54.0,0.0,120.0,13.0,0.0
3961,54.0,120.0,120.0,12.0,0.0
3962,66.0,48.0,60.0,10.0,0.0
3963,54.0,0.0,60.0,11.0,0.0
3964,52.0,0.0,120.0,13.0,0.0
3965,54.0,48.0,390.0,2.0,0.0
3966,66.0,0.0,120.0,11.0,0.0
3967,78.0,0.0,390.0,0.0,0.0
3968,52.0,72.0,120.0,12.0,0.0
3969,40.0,0.0,180.0,14.0,0.0
3970,66.0,0.0,390.0,1.0,0.0
3971,78.0,0.0,120.0,10.0,0.0
3972,64.0,48.0,60.0,11.0,0.0
3973,76.0,0.0,60.0,10.0,0.0
3974,54.0,0.0,120.0,13.0,0.0
3975,54.0,48.0,120.0,12.0,0.0
3976,73.0,48.0,60.0,10.0,0.0
3977,40.0,0.0,180.0,14.0,0.0
3978,52.0,0.0,120.0,13.0,0.0
3979,52.0,24.0,120.0,12.0,0.0
3980,61.0,0.0,60.0,11.0,0.0
3981,58.0,24.0,60.0,11.0,0.0
3982,54.0,96.0,90.0,13.0,0.0
3983,54.0,0.0,90.0,12.0,0.0
3984,70.0,0.0,60.0,10.0,0.0
3985,83.0,0.0,120.0,0.0,0.0
3986,59.0,0.0,120.0,2.0,0.0
3987,51.0,12.0,150.0,13.0,0.0
3988,71.0,60.0,60.0,10.0,0.0
3989,59.0,0.0,150.0,11.0,0.0
3990,51.0,0.0,150.0,12.0,0.0
3991,39.0,0.0,150.0,14.0,0.0
3992,63.0,0.0,150.0,3.0,0.0
3993,59.0,36.0,150.0,3.0,0.0
3994,71.0,12.0,120.0,1.0,0.0
3995,66.0,120.0,60.0,10.0,0.0
3996,73.0,0.0,120.0,1.0,0.0
3997,64.0,0.0,60.0,11.0,0.0
3998,52.0,0.0,150.0,12.0,0.0
3999,64.0,0.0,150.0,3.0,0.0
4000,52.0,0.0,120.0,2.0,0.0
4001,76.0,0.0,120.0,0.0,0.0
4002,76.0,12.0,120.0,1.0,0.0
4003,61.0,36.0,150.0,3.0,0.0
4004,40.0,0.0,150.0,14.0,0.0
4005,68.0,60.0,60.0,10.0,0.0
4006,52.0,12.0,150.0,13.0,0.0
4007,64.0,0.0,60.0,10.0,0.0
4008,61.0,120.0,60.0,11.0,0.0
4009,59.0,36.0,150.0,3.0,0.0
4010,59.0,0.0,60.0,11.0,0.0
4011,54.0,12.0,150.0,13.0,0.0
4012,63.0,0.0,150.0,3.0,0.0
4013,42.0,0.0,150.0,14.0,0.0
4014,71.0,0.0,120.0,1.0,0.0
4015,63.0,60.0,60.0,10.0,0.0
4016,75.0,0.0,120.0,1.0,0.0
4017,54.0,0.0,120.0,2.0,0.0
4018,75.0,12.0,120.0,0.0,0.0
4019,54.0,0.0,150.0,12.0,0.0
4020,63.0,0.0,60.0,11.0,0.0
4021,66.0,120.0,60.0,10.0,0.0
4022,73.0,0.0,120.0,0.0,0.0
4023,64.0,60.0,60.0,10.0,0.0
4024,61.0,0.0,60.0,11.0,0.0
4025,54.0,0.0,150.0,12.0,0.0
4026,42.0,12.0,150.0,13.0,0.0
4027,30.0,0.0,150.0,14.0,0.0
4028,42.0,0.0,120.0,2.0,0.0
4029,70.0,12.0,120.0,1.0,0.0
4030,54.0,0.0,150.0,3.0,0.0
4031,61.0,36.0,150.0,3.0,0.0
4032,73.0,0.0,120.0,1.0,0.0
4033,59.0,168.0,60.0,11.0,0.0
4034,61.0,0.0,60.0,10.0,0.0
4035,59.0,24.0,120.0,11.0,0.0
4036,47.0,0.0,150.0,13.0,0.0
4037,47.0,0.0,390.0,5.0,0.0
4038,47.0,0.0,150.0,12.0,0.0
4039,51.0,0.0,150.0,3.0,0.0
4040,71.0,0.0,390.0,4.0,0.0
4041,59.0,0.0,390.0,4.0,0.0
4042,71.0,0.0,150.0,1.0,0.0
4043,59.0,0.0,120.0,10.0,0.0
4044,35.0,12.0,150.0,14.0,0.0
4045,59.0,42.0,150.0,3.0,0.0
4046,71.0,0.0,150.0,0.0,0.0
4047,47.0,0.0,150.0,2.0,0.0
4048,54.0,0.0,90.0,10.0,0.0
4049,54.0,120.0,90.0,11.0,0.0
4050,51.0,66.0,90.0,10.0,0.0
4051,51.0,0.0,150.0,3.0,0.0
4052,59.0,0.0,150.0,3.0,0.0
4053,54.0,0.0,150.0,2.0,0.0
4054,59.0,12.0,150.0,12.0,0.0
4055,75.0,0.0,150.0,0.0,0.0
4056,47.0,0.0,150.0,14.0,0.0
4057,51.0,0.0,90.0,11.0,0.0
4058,59.0,0.0,150.0,13.0,0.0
4059,71.0,0.0,150.0,1.0,0.0
4060,63.0,42.0,150.0,2.0,0.0
4061,66.0,0.0,150.0,1.0,0.0
4062,54.0,0.0,90.0,10.0,0.0
4063,54.0,120.0,90.0,11.0,0.0
4064,63.0,0.0,150.0,2.0,0.0
4065,54.0,0.0,150.0,2.0,0.0
4066,59.0,12.0,390.0,12.0,0.0
4067,51.0,0.0,150.0,3.0,0.0
4068,59.0,0.0,150.0,3.0,0.0
4069,47.0,0.0,390.0,14.0,0.0
4070,59.0,78.0,90.0,10.0,0.0
4071,71.0,0.0,150.0,1.0,0.0
4072,66.0,0.0,150.0,1.0,0.0
4073,59.0,0.0,390.0,13.0,0.0
4074,59.0,0.0,90.0,11.0,0.0
4075,75.0,42.0,150.0,0.0,0.0
4076,63.0,120.0,90.0,11.0,0.0
4077,63.0,0.0,90.0,10.0,0.0
4078,66.0,0.0,90.0,11.0,0.0
4079,51.0,0.0,150.0,3.0,0.0
4080,66.0,66.0,90.0,10.0,0.0
4081,71.0,0.0,150.0,1.0,0.0
4082,59.0,0.0,150.0,3.0,0.0
4083,66.0,0.0,150.0,1.0,0.0
4084,75.0,0.0,150.0,0.0,0.0
4085,63.0,42.0,150.0,2.0,0.0
4086,54.0,0.0,150.0,2.0,0.0
4087,63.0,162.0,90.0,11.0,0.0
4088,63.0,0.0,90.0,10.0,0.0
4089,47.0,0.0,150.0,12.0,0.0
4090,47.0,0.0,150.0,13.0,0.0
4091,35.0,54.0,150.0,14.0,0.0
4092,71.0,0.0,390.0,4.0,0.0
4093,59.0,12.0,390.0,4.0,0.0
4094,59.0,24.0,120.0,11.0,0.0
4095,47.0,0.0,390.0,5.0,0.0
4096,59.0,0.0,120.0,10.0,0.0
4097,54.0,0.0,90.0,11.0,0.0
4098,54.0,120.0,90.0,10.0,0.0
4099,51.0,66.0,90.0,10.0,0.0
4100,63.0,0.0,150.0,2.0,0.0
4101,75.0,0.0,150.0,0.0,0.0
4102,59.0,0.0,150.0,12.0,0.0
4103,47.0,0.0,150.0,14.0,0.0
4104,59.0,0.0,150.0,13.0,0.0
4105,54.0,0.0,150.0,2.0,0.0
4106,71.0,0.0,150.0,1.0,0.0
4107,51.0,0.0,90.0,11.0,0.0
4108,59.0,0.0,150.0,3.0,0.0
4109,51.0,42.0,150.0,3.0,0.0
4110,66.0,0.0,150.0,1.0,0.0
4111,54.0,0.0,90.0,11.0,0.0
4112,54.0,120.0,90.0,10.0,0.0
4113,51.0,0.0,150.0,3.0,0.0
4114,47.0,0.0,390.0,14.0,0.0
4115,63.0,0.0,150.0,2.0,0.0
4116,59.0,0.0,90.0,11.0,0.0
4117,75.0,0.0,150.0,0.0,0.0
4118,59.0,0.0,150.0,3.0,0.0
4119,54.0,0.0,150.0,2.0,0.0
4120,71.0,42.0,150.0,1.0,0.0
4121,66.0,0.0,150.0,1.0,0.0
4122,59.0,78.0,90.0,10.0,0.0
4123,59.0,0.0,390.0,13.0,0.0
4124,59.0,12.0,390.0,12.0,0.0
4125,63.0,0.0,90.0,10.0,0.0
4126,63.0,120.0,90.0,11.0,0.0
4127,51.0,0.0,150.0,3.0,0.0
4128,59.0,42.0,150.0,3.0,0.0
4129,66.0,0.0,90.0,10.0,0.0
4130,75.0,0.0,150.0,0.0,0.0
4131,54.0,0.0,150.0,2.0,0.0
4132,63.0,0.0,150.0,2.0,0.0
4133,71.0,0.0,150.0,1.0,0.0
4134,66.0,0.0,150.0,1.0,0.0
4135,66.0,66.0,90.0,11.0,0.0
4136,63.0,162.0,90.0,10.0,0.0
4137,63.0,0.0,90.0,11.0,0.0
4138,71.0,0.0,390.0,4.0,0.0
4139,61.0,24.0,120.0,11.0,0.0
4140,59.0,0.0,390.0,4.0,0.0
4141,61.0,0.0,120.0,10.0,0.0
4142,47.0,0.0,150.0,13.0,0.0
4143,47.0,12.0,390.0,5.0,0.0
4144,35.0,54.0,150.0,14.0,0.0
4145,47.0,0.0,150.0,12.0,0.0
4146,56.0,0.0,90.0,10.0,0.0
4147,56.0,120.0,90.0,11.0,0.0
4148,73.0,42.0,150.0,1.0,0.0
4149,64.0,0.0,150.0,1.0,0.0
4150,56.0,0.0,150.0,2.0,0.0
4151,52.0,0.0,150.0,2.0,0.0
4152,59.0,0.0,150.0,13.0,0.0
4153,52.0,66.0,90.0,10.0,0.0
4154,61.0,0.0,150.0,3.0,0.0
4155,59.0,0.0,150.0,12.0,0.0
4156,47.0,0.0,150.0,14.0,0.0
4157,64.0,0.0,150.0,3.0,0.0
4158,52.0,0.0,90.0,11.0,0.0
4159,80.0,0.0,150.0,0.0,0.0
4160,56.0,0.0,90.0,10.0,0.0
4161,56.0,120.0,90.0,11.0,0.0
4162,47.0,12.0,390.0,14.0,0.0
4163,80.0,0.0,150.0,0.0,0.0
4164,61.0,78.0,90.0,10.0,0.0
4165,59.0,0.0,390.0,13.0,0.0
4166,61.0,0.0,90.0,11.0,0.0
4167,64.0,0.0,150.0,1.0,0.0
4168,52.0,0.0,150.0,2.0,0.0
4169,56.0,0.0,150.0,2.0,0.0
4170,59.0,0.0,390.0,12.0,0.0
4171,73.0,0.0,150.0,1.0,0.0
4172,61.0,0.0,150.0,3.0,0.0
4173,64.0,42.0,150.0,3.0,0.0
4174,64.0,120.0,90.0,11.0,0.0
4175,64.0,0.0,90.0,10.0,0.0
4176,52.0,0.0,150.0,2.0,0.0
4177,80.0,0.0,150.0,0.0,0.0
4178,64.0,0.0,150.0,3.0,0.0
4179,56.0,0.0,150.0,2.0,0.0
4180,68.0,0.0,90.0,11.0,0.0
4181,61.0,0.0,150.0,3.0,0.0
4182,68.0,66.0,90.0,10.0,0.0
4183,73.0,42.0,150.0,1.0,0.0
4184,64.0,0.0,150.0,1.0,0.0
4185,64.0,162.0,90.0,11.0,0.0
4186,64.0,0.0,90.0,10.0,0.0
4187,47.0,0.0,150.0,13.0,0.0
4188,59.0,0.0,390.0,4.0,0.0
4189,71.0,0.0,390.0,4.0,0.0
4190,47.0,12.0,390.0,5.0,0.0
4191,61.0,0.0,120.0,10.0,0.0
4192,47.0,54.0,150.0,12.0,0.0
4193,61.0,24.0,120.0,11.0,0.0
4194,35.0,0.0,150.0,14.0,0.0
4195,56.0,0.0,90.0,10.0,0.0
4196,56.0,120.0,90.0,11.0,0.0
4197,52.0,0.0,150.0,2.0,0.0
4198,61.0,42.0,150.0,3.0,0.0
4199,64.0,0.0,150.0,3.0,0.0
4200,56.0,0.0,150.0,2.0,0.0
4201,64.0,0.0,150.0,1.0,0.0
4202,73.0,0.0,150.0,1.0,0.0
4203,80.0,0.0,150.0,0.0,0.0
4204,52.0,0.0,90.0,11.0,0.0
4205,59.0,0.0,150.0,13.0,0.0
4206,47.0,0.0,150.0,14.0,0.0
4207,52.0,66.0,90.0,10.0,0.0
4208,59.0,0.0,150.0,12.0,0.0
4209,56.0,0.0,90.0,10.0,0.0
4210,56.0,120.0,90.0,11.0,0.0
4211,73.0,0.0,150.0,1.0,0.0
4212,61.0,0.0,150.0,3.0,0.0
4213,61.0,0.0,90.0,10.0,0.0
4214,80.0,0.0,150.0,0.0,0.0
4215,52.0,0.0,150.0,2.0,0.0
4216,47.0,12.0,390.0,14.0,0.0
4217,61.0,78.0,90.0,11.0,0.0
4218,59.0,0.0,390.0,12.0,0.0
4219,56.0,0.0,150.0,2.0,0.0
4220,64.0,0.0,150.0,1.0,0.0
4221,64.0,42.0,150.0,3.0,0.0
4222,59.0,0.0,390.0,13.0,0.0
4223,64.0,0.0,90.0,11.0,0.0
4224,64.0,120.0,90.0,10.0,0.0
4225,56.0,0.0,150.0,2.0,0.0
4226,52.0,0.0,150.0,2.0,0.0
4227,80.0,0.0,150.0,0.0,0.0
4228,68.0,0.0,90.0,10.0,0.0
4229,73.0,0.0,150.0,1.0,0.0
4230,64.0,0.0,150.0,1.0,0.0
4231,64.0,0.0,150.0,3.0,0.0
4232,61.0,42.0,150.0,3.0,0.0
4233,68.0,66.0,90.0,11.0,0.0
4234,64.0,162.0,90.0,10.0,0.0
4235,64.0,0.0,90.0,11.0,0.0
4236,42.0,0.0,390.0,5.0,0.0
4237,46.0,0.0,150.0,12.0,0.0
4238,34.0,54.0,150.0,14.0,0.0
4239,46.0,0.0,150.0,13.0,0.0
4240,58.0,0.0,120.0,10.0,0.0
4241,58.0,24.0,120.0,11.0,0.0
4242,66.0,0.0,1350.0,4.0,0.0
4243,54.0,0.0,1350.0,4.0,0.0
4244,66.0,0.0,90.0,11.0,0.0
4245,66.0,162.0,90.0,10.0,0.0
4246,76.0,0.0,150.0,1.0,0.0
4247,58.0,12.0,150.0,12.0,0.0
4248,61.0,0.0,150.0,2.0,0.0
4249,52.0,0.0,150.0,2.0,0.0
4250,54.0,0.0,150.0,3.0,0.0
4251,64.0,0.0,150.0,3.0,0.0
4252,78.0,42.0,150.0,1.0,0.0
4253,85.0,0.0,150.0,0.0,0.0
4254,46.0,0.0,150.0,14.0,0.0
4255,58.0,0.0,150.0,13.0,0.0
4256,76.0,24.0,120.0,10.0,0.0
4257,76.0,0.0,120.0,11.0,0.0
4258,66.0,162.0,90.0,10.0,0.0
4259,66.0,0.0,90.0,11.0,0.0
4260,76.0,36.0,120.0,11.0,0.0
4261,76.0,0.0,150.0,1.0,0.0
4262,42.0,0.0,390.0,5.0,0.0
4263,78.0,0.0,150.0,1.0,0.0
4264,58.0,0.0,390.0,13.0,0.0
4265,58.0,0.0,390.0,12.0,0.0
4266,46.0,12.0,390.0,14.0,0.0
4267,85.0,0.0,150.0,0.0,0.0
4268,76.0,0.0,120.0,10.0,0.0
4269,64.0,0.0,150.0,3.0,0.0
4270,52.0,0.0,150.0,2.0,0.0
4271,54.0,0.0,150.0,3.0,0.0
4272,61.0,42.0,150.0,2.0,0.0
4273,66.0,162.0,90.0,10.0,0.0
4274,66.0,0.0,90.0,11.0,0.0
4275,76.0,0.0,150.0,1.0,0.0
4276,54.0,0.0,150.0,3.0,0.0
4277,76.0,24.0,120.0,11.0,0.0
4278,64.0,0.0,150.0,3.0,0.0
4279,78.0,0.0,150.0,1.0,0.0
4280,61.0,0.0,150.0,2.0,0.0
4281,52.0,42.0,150.0,2.0,0.0
4282,76.0,0.0,120.0,10.0,0.0
4283,85.0,0.0,150.0,0.0,0.0
4284,66.0,120.0,90.0,10.0,0.0
4285,66.0,0.0,90.0,11.0,0.0
4286,34.0,0.0,150.0,14.0,0.0
4287,46.0,54.0,150.0,13.0,0.0
4288,46.0,0.0,150.0,12.0,0.0
4289,76.0,66.0,90.0,10.0,0.0
4290,42.0,0.0,390.0,5.0,0.0
4291,76.0,0.0,90.0,11.0,0.0
4292,75.0,0.0,90.0,11.0,0.0
4293,75.0,120.0,90.0,10.0,0.0
4294,61.0,42.0,150.0,2.0,0.0
4295,52.0,0.0,150.0,2.0,0.0
4296,73.0,66.0,90.0,11.0,0.0
4297,73.0,0.0,90.0,10.0,0.0
4298,58.0,0.0,150.0,13.0,0.0
4299,85.0,0.0,150.0,0.0,0.0
4300,64.0,0.0,150.0,3.0,0.0
4301,46.0,0.0,150.0,14.0,0.0
4302,58.0,12.0,150.0,12.0,0.0
4303,78.0,0.0,150.0,1.0,0.0
4304,76.0,0.0,150.0,1.0,0.0
4305,54.0,0.0,150.0,3.0,0.0
4306,71.0,120.0,90.0,11.0,0.0
4307,71.0,0.0,90.0,10.0,0.0
4308,58.0,0.0,390.0,13.0,0.0
4309,54.0,0.0,150.0,3.0,0.0
4310,46.0,0.0,390.0,14.0,0.0
4311,64.0,0.0,150.0,3.0,0.0
4312,70.0,78.0,90.0,11.0,0.0
4313,58.0,12.0,390.0,12.0,0.0
4314,52.0,0.0,150.0,2.0,0.0
4315,61.0,42.0,150.0,2.0,0.0
4316,85.0,0.0,150.0,0.0,0.0
4317,76.0,0.0,150.0,1.0,0.0
4318,70.0,0.0,90.0,10.0,0.0
4319,78.0,0.0,150.0,1.0,0.0
4320,68.0,0.0,90.0,10.0,0.0
4321,68.0,120.0,90.0,11.0,0.0
4322,85.0,42.0,150.0,0.0,0.0
4323,66.0,66.0,90.0,11.0,0.0
4324,61.0,0.0,150.0,2.0,0.0
4325,52.0,0.0,150.0,2.0,0.0
4326,78.0,0.0,150.0,1.0,0.0
4327,76.0,0.0,150.0,1.0,0.0
4328,54.0,0.0,150.0,3.0,0.0
4329,66.0,0.0,90.0,10.0,0.0
4330,64.0,0.0,150.0,3.0,0.0
4331,64.0,0.0,90.0,10.0,0.0
4332,64.0,120.0,90.0,11.0,0.0
4333,59.0,6.0,180.0,12.0,0.0
4334,75.0,60.0,120.0,1.0,0.0
4335,51.0,0.0,120.0,2.0,0.0
4336,59.0,0.0,120.0,2.0,0.0
4337,59.0,0.0,180.0,13.0,0.0
4338,87.0,0.0,120.0,0.0,0.0
4339,63.0,0.0,120.0,3.0,0.0
4340,59.0,0.0,120.0,3.0,0.0
4341,47.0,0.0,180.0,14.0,0.0
4342,63.0,54.0,90.0,11.0,0.0
4343,63.0,0.0,90.0,10.0,0.0
4344,78.0,0.0,120.0,1.0,0.0
4345,71.0,120.0,90.0,11.0,0.0
4346,71.0,0.0,90.0,10.0,0.0
4347,75.0,0.0,120.0,1.0,0.0
4348,87.0,0.0,120.0,0.0,0.0
4349,63.0,0.0,120.0,3.0,0.0
4350,66.0,0.0,120.0,3.0,0.0
4351,66.0,0.0,90.0,11.0,0.0
4352,51.0,66.0,120.0,2.0,0.0
4353,59.0,0.0,120.0,2.0,0.0
4354,78.0,0.0,120.0,1.0,0.0
4355,66.0,54.0,90.0,10.0,0.0
4356,63.0,0.0,90.0,11.0,0.0
4357,63.0,120.0,90.0,10.0,0.0
4358,73.0,60.0,120.0,1.0,0.0
4359,61.0,0.0,90.0,10.0,0.0
4360,64.0,0.0,120.0,3.0,0.0
4361,76.0,0.0,120.0,1.0,0.0
4362,40.0,6.0,180.0,14.0,0.0
4363,52.0,0.0,180.0,13.0,0.0
4364,61.0,54.0,90.0,11.0,0.0
4365,61.0,0.0,120.0,3.0,0.0
4366,52.0,0.0,120.0,2.0,0.0
4367,61.0,0.0,120.0,2.0,0.0
4368,85.0,0.0,120.0,0.0,0.0
4369,52.0,0.0,180.0,12.0,0.0
4370,68.0,0.0,90.0,10.0,0.0
4371,68.0,120.0,90.0,11.0,0.0
4372,76.0,0.0,120.0,1.0,0.0
4373,64.0,0.0,90.0,11.0,0.0
4374,52.0,66.0,120.0,2.0,0.0
4375,64.0,54.0,90.0,10.0,0.0
4376,61.0,0.0,120.0,3.0,0.0
4377,73.0,0.0,120.0,1.0,0.0
4378,85.0,0.0,120.0,0.0,0.0
4379,64.0,0.0,120.0,3.0,0.0
4380,61.0,0.0,120.0,2.0,0.0
4381,61.0,0.0,90.0,10.0,0.0
4382,61.0,120.0,90.0,11.0,0.0
4383,59.0,0.0,120.0,2.0,0.0
4384,71.0,60.0,120.0,1.0,0.0
4385,75.0,0.0,120.0,1.0,0.0
4386,59.0,0.0,120.0,3.0,0.0
4387,63.0,0.0,120.0,3.0,0.0
4388,59.0,54.0,90.0,11.0,0.0
4389,51.0,0.0,120.0,2.0,0.0
4390,54.0,6.0,180.0,13.0,0.0
4391,54.0,0.0,180.0,12.0,0.0
4392,42.0,0.0,180.0,14.0,0.0
4393,83.0,0.0,120.0,0.0,0.0
4394,59.0,0.0,90.0,10.0,0.0
4395,66.0,0.0,90.0,11.0,0.0
4396,66.0,120.0,90.0,10.0,0.0
4397,63.0,54.0,90.0,11.0,0.0
4398,51.0,66.0,120.0,2.0,0.0
4399,59.0,0.0,120.0,2.0,0.0
4400,63.0,0.0,120.0,3.0,0.0
4401,59.0,0.0,120.0,3.0,0.0
4402,75.0,0.0,120.0,1.0,0.0
4403,63.0,0.0,90.0,10.0,0.0
4404,71.0,0.0,120.0,1.0,0.0
4405,83.0,0.0,120.0,0.0,0.0
4406,59.0,120.0,90.0,10.0,0.0
4407,59.0,0.0,90.0,11.0,0.0
4408,58.0,54.0,90.0,11.0,0.0
4409,73.0,0.0,120.0,1.0,0.0
4410,30.0,0.0,180.0,14.0,0.0
4411,42.0,0.0,180.0,13.0,0.0
4412,58.0,0.0,90.0,10.0,0.0
4413,66.0,0.0,390.0,4.0,0.0
4414,54.0,54.0,390.0,4.0,0.0
4415,82.0,0.0,120.0,0.0,0.0
4416,58.0,0.0,120.0,2.0,0.0
4417,54.0,6.0,180.0,12.0,0.0
4418,61.0,0.0,120.0,3.0,0.0
4419,54.0,0.0,120.0,3.0,0.0
4420,42.0,0.0,390.0,5.0,0.0
4421,70.0,60.0,120.0,1.0,0.0
4422,49.0,0.0,120.0,2.0,0.0
4423,64.0,0.0,90.0,10.0,0.0
4424,64.0,120.0,90.0,11.0,0.0
4425,61.0,0.0,120.0,3.0,0.0
4426,49.0,0.0,120.0,2.0,0.0
4427,58.0,0.0,120.0,2.0,0.0
4428,70.0,0.0,120.0,1.0,0.0
4429,61.0,54.0,90.0,10.0,0.0
4430,61.0,0.0,90.0,11.0,0.0
4431,54.0,12.0,120.0,3.0,0.0
4432,82.0,0.0,120.0,0.0,0.0
4433,73.0,0.0,120.0,1.0,0.0
4434,58.0,0.0,90.0,11.0,0.0
4435,58.0,162.0,90.0,10.0,0.0
4436,59.0,0.0,150.0,3.0,0.0
4437,47.0,0.0,150.0,12.0,0.0
4438,35.0,0.0,150.0,14.0,0.0
4439,83.0,42.0,150.0,0.0,0.0
4440,47.0,12.0,150.0,13.0,0.0
4441,71.0,0.0,390.0,4.0,0.0
4442,59.0,0.0,390.0,4.0,0.0
4443,59.0,0.0,150.0,2.0,0.0
4444,51.0,0.0,150.0,2.0,0.0
4445,47.0,0.0,390.0,5.0,0.0
4446,71.0,0.0,150.0,1.0,0.0
4447,59.0,24.0,120.0,10.0,0.0
4448,51.0,0.0,150.0,3.0,0.0
4449,59.0,0.0,120.0,11.0,0.0
4450,54.0,0.0,90.0,11.0,0.0
4451,54.0,120.0,90.0,10.0,0.0
4452,51.0,0.0,90.0,10.0,0.0
4453,47.0,12.0,150.0,14.0,0.0
4454,75.0,0.0,150.0,0.0,0.0
4455,59.0,0.0,150.0,12.0,0.0
4456,63.0,0.0,150.0,2.0,0.0
4457,59.0,0.0,150.0,3.0,0.0
4458,51.0,0.0,150.0,3.0,0.0
4459,54.0,0.0,150.0,2.0,0.0
4460,71.0,42.0,150.0,1.0,0.0
4461,66.0,0.0,150.0,1.0,0.0
4462,51.0,66.0,90.0,11.0,0.0
4463,59.0,0.0,150.0,13.0,0.0
4464,54.0,120.0,90.0,11.0,0.0
4465,54.0,0.0,90.0,10.0,0.0
4466,59.0,0.0,390.0,12.0,0.0
4467,59.0,0.0,150.0,3.0,0.0
4468,51.0,0.0,150.0,3.0,0.0
4469,59.0,78.0,90.0,11.0,0.0
4470,59.0,0.0,390.0,13.0,0.0
4471,59.0,0.0,90.0,10.0,0.0
4472,66.0,0.0,150.0,1.0,0.0
4473,47.0,12.0,390.0,14.0,0.0
4474,75.0,42.0,150.0,0.0,0.0
4475,63.0,0.0,150.0,2.0,0.0
4476,54.0,0.0,150.0,2.0,0.0
4477,71.0,0.0,150.0,1.0,0.0
4478,63.0,120.0,90.0,11.0,0.0
4479,63.0,0.0,90.0,10.0,0.0
4480,75.0,0.0,150.0,0.0,0.0
4481,54.0,42.0,150.0,2.0,0.0
4482,63.0,0.0,150.0,2.0,0.0
4483,66.0,66.0,90.0,10.0,0.0
4484,51.0,0.0,150.0,3.0,0.0
4485,59.0,0.0,150.0,3.0,0.0
4486,66.0,0.0,150.0,1.0,0.0
4487,66.0,0.0,90.0,11.0,0.0
4488,71.0,0.0,150.0,1.0,0.0
4489,63.0,0.0,90.0,11.0,0.0
4490,63.0,162.0,90.0,10.0,0.0
4491,47.0,12.0,390.0,5.0,0.0
4492,35.0,54.0,150.0,14.0,0.0
4493,59.0,0.0,390.0,4.0,0.0
4494,71.0,0.0,390.0,4.0,0.0
4495,47.0,0.0,150.0,13.0,0.0
4496,47.0,0.0,150.0,12.0,0.0
4497,59.0,24.0,120.0,10.0,0.0
4498,59.0,0.0,120.0,11.0,0.0
4499,54.0,0.0,90.0,11.0,0.0
4500,54.0,120.0,90.0,10.0,0.0
4501,75.0,0.0,150.0,0.0,0.0
4502,63.0,0.0,150.0,2.0,0.0
4503,54.0,0.0,150.0,2.0,0.0
4504,59.0,0.0,150.0,13.0,0.0
4505,51.0,0.0,90.0,11.0,0.0
4506,51.0,66.0,90.0,10.0,0.0
4507,59.0,0.0,150.0,12.0,0.0
4508,47.0,0.0,150.0,14.0,0.0
4509,51.0,0.0,150.0,3.0,0.0
4510,59.0,42.0,150.0,3.0,0.0
4511,66.0,0.0,150.0,1.0,0.0
4512,71.0,0.0,150.0,1.0,0.0
4513,54.0,0.0,90.0,11.0,0.0
4514,54.0,120.0,90.0,10.0,0.0
4515,59.0,12.0,390.0,12.0,0.0
4516,59.0,0.0,90.0,11.0,0.0
4517,59.0,0.0,150.0,3.0,0.0
4518,51.0,0.0,150.0,3.0,0.0
4519,59.0,0.0,390.0,13.0,0.0
4520,59.0,78.0,90.0,10.0,0.0
4521,54.0,0.0,150.0,2.0,0.0
4522,63.0,0.0,150.0,2.0,0.0
4523,66.0,42.0,150.0,1.0,0.0
4524,71.0,0.0,150.0,1.0,0.0
4525,47.0,0.0,390.0,14.0,0.0
4526,75.0,0.0,150.0,0.0,0.0
4527,63.0,120.0,90.0,10.0,0.0
4528,63.0,0.0,90.0,11.0,0.0
4529,54.0,0.0,150.0,2.0,0.0
4530,75.0,0.0,150.0,0.0,0.0
4531,63.0,0.0,150.0,2.0,0.0
4532,66.0,0.0,90.0,11.0,0.0
4533,71.0,0.0,150.0,1.0,0.0
4534,51.0,42.0,150.0,3.0,0.0
4535,66.0,0.0,150.0,1.0,0.0
4536,66.0,66.0,90.0,10.0,0.0
4537,59.0,0.0,150.0,3.0,0.0
4538,63.0,0.0,90.0,10.0,0.0
4539,63.0,162.0,90.0,11.0,0.0
4540,61.0,0.0,120.0,11.0,0.0
4541,61.0,24.0,120.0,10.0,0.0
4542,47.0,0.0,150.0,13.0,0.0
4543,71.0,0.0,390.0,4.0,0.0
4544,59.0,0.0,390.0,4.0,0.0
4545,47.0,0.0,390.0,5.0,0.0
4546,47.0,54.0,150.0,12.0,0.0
4547,35.0,0.0,150.0,14.0,0.0
4548,56.0,0.0,90.0,11.0,0.0
4549,56.0,120.0,90.0,10.0,0.0
4550,59.0,0.0,150.0,12.0,0.0
4551,52.0,0.0,150.0,2.0,0.0
4552,56.0,0.0,150.0,2.0,0.0
4553,61.0,0.0,150.0,3.0,0.0
4554,52.0,0.0,90.0,11.0,0.0
4555,47.0,12.0,150.0,14.0,0.0
4556,52.0,66.0,90.0,10.0,0.0
4557,59.0,0.0,150.0,13.0,0.0
4558,64.0,0.0,150.0,1.0,0.0
4559,73.0,42.0,150.0,1.0,0.0
4560,64.0,0.0,150.0,3.0,0.0
4561,80.0,0.0,150.0,0.0,0.0
4562,56.0,0.0,90.0,10.0,0.0
4563,56.0,120.0,90.0,11.0,0.0
4564,47.0,0.0,390.0,14.0,0.0
4565,64.0,0.0,150.0,1.0,0.0
4566,73.0,0.0,150.0,1.0,0.0
4567,59.0,12.0,390.0,13.0,0.0
4568,56.0,0.0,150.0,2.0,0.0
4569,61.0,0.0,150.0,3.0,0.0
4570,64.0,0.0,150.0,3.0,0.0
4571,59.0,0.0,390.0,12.0,0.0
4572,52.0,42.0,150.0,2.0,0.0
4573,61.0,0.0,90.0,11.0,0.0
4574,61.0,78.0,90.0,10.0,0.0
4575,80.0,0.0,150.0,0.0,0.0
4576,64.0,0.0,90.0,11.0,0.0
4577,64.0,120.0,90.0,10.0,0.0
4578,68.0,0.0,90.0,10.0,0.0
4579,64.0,0.0,150.0,1.0,0.0
4580,73.0,0.0,150.0,1.0,0.0
4581,61.0,0.0,150.0,3.0,0.0
4582,80.0,0.0,150.0,0.0,0.0
4583,56.0,42.0,150.0,2.0,0.0
4584,64.0,0.0,150.0,3.0,0.0
4585,68.0,66.0,90.0,11.0,0.0
4586,52.0,0.0,150.0,2.0,0.0
4587,64.0,162.0,90.0,10.0,0.0
4588,64.0,0.0,90.0,11.0,0.0
4589,47.0,0.0,390.0,5.0,0.0
4590,47.0,54.0,150.0,12.0,0.0
4591,61.0,0.0,120.0,10.0,0.0
4592,35.0,0.0,150.0,14.0,0.0
4593,59.0,0.0,390.0,4.0,0.0
4594,47.0,0.0,150.0,13.0,0.0
4595,61.0,24.0,120.0,11.0,0.0
4596,71.0,0.0,390.0,4.0,0.0
4597,56.0,0.0,90.0,11.0,0.0
4598,56.0,120.0,90.0,10.0,0.0
4599,52.0,66.0,90.0,10.0,0.0
4600,80.0,0.0,150.0,0.0,0.0
4601,73.0,0.0,150.0,1.0,0.0
4602,64.0,0.0,150.0,1.0,0.0
4603,47.0,0.0,150.0,14.0,0.0
4604,56.0,0.0,150.0,2.0,0.0
4605,52.0,0.0,90.0,11.0,0.0
4606,64.0,0.0,150.0,3.0,0.0
4607,61.0,42.0,150.0,3.0,0.0
4608,59.0,0.0,150.0,12.0,0.0
4609,52.0,0.0,150.0,2.0,0.0
4610,59.0,12.0,150.0,13.0,0.0
4611,56.0,0.0,90.0,11.0,0.0
4612,56.0,120.0,90.0,10.0,0.0
4613,61.0,0.0,150.0,3.0,0.0
4614,52.0,42.0,150.0,2.0,0.0
4615,59.0,0.0,390.0,12.0,0.0
4616,59.0,12.0,390.0,13.0,0.0
4617,61.0,78.0,90.0,11.0,0.0
4618,80.0,0.0,150.0,0.0,0.0
4619,47.0,0.0,390.0,14.0,0.0
4620,61.0,0.0,90.0,10.0,0.0
4621,64.0,0.0,150.0,1.0,0.0
4622,73.0,0.0,150.0,1.0,0.0
4623,64.0,0.0,150.0,3.0,0.0
4624,56.0,0.0,150.0,2.0,0.0
4625,64.0,120.0,90.0,11.0,0.0
4626,64.0,0.0,90.0,10.0,0.0
4627,64.0,0.0,150.0,1.0,0.0
4628,61.0,0.0,150.0,3.0,0.0
4629,64.0,42.0,150.0,3.0,0.0
4630,56.0,0.0,150.0,2.0,0.0
4631,52.0,0.0,150.0,2.0,0.0
4632,68.0,0.0,90.0,10.0,0.0
4633,80.0,0.0,150.0,0.0,0.0
4634,68.0,66.0,90.0,11.0,0.0
4635,73.0,0.0,150.0,1.0,0.0
4636,64.0,162.0,90.0,11.0,0.0
4637,64.0,0.0,90.0,10.0,0.0
4638,58.0,0.0,120.0,10.0,0.0
4639,58.0,24.0,120.0,11.0,0.0
4640,42.0,12.0,390.0,5.0,0.0
4641,46.0,0.0,150.0,12.0,0.0
4642,54.0,0.0,1350.0,4.0,0.0
4643,66.0,0.0,1350.0,4.0,0.0
4644,34.0,0.0,150.0,14.0,0.0
4645,46.0,54.0,150.0,13.0,0.0
4646,66.0,0.0,90.0,11.0,0.0
4647,66.0,162.0,90.0,10.0,0.0
4648,64.0,0.0,150.0,3.0,0.0
4649,46.0,0.0,150.0,14.0,0.0
4650,76.0,0.0,150.0,1.0,0.0
4651,78.0,42.0,150.0,1.0,0.0
4652,52.0,0.0,150.0,2.0,0.0
4653,76.0,24.0,120.0,11.0,0.0
4654,58.0,0.0,150.0,13.0,0.0
4655,54.0,0.0,150.0,3.0,0.0
4656,61.0,0.0,150.0,2.0,0.0
4657,58.0,0.0,150.0,12.0,0.0
4658,85.0,0.0,150.0,0.0,0.0
4659,76.0,0.0,120.0,10.0,0.0
4660,66.0,162.0,90.0,11.0,0.0
4661,66.0,0.0,90.0,10.0,0.0
4662,76.0,0.0,150.0,1.0,0.0
4663,61.0,0.0,150.0,2.0,0.0
4664,52.0,42.0,150.0,2.0,0.0
4665,58.0,12.0,390.0,13.0,0.0
4666,78.0,0.0,150.0,1.0,0.0
4667,76.0,0.0,120.0,10.0,0.0
4668,64.0,0.0,150.0,3.0,0.0
4669,58.0,0.0,390.0,12.0,0.0
4670,85.0,0.0,150.0,0.0,0.0
4671,42.0,0.0,390.0,5.0,0.0
4672,76.0,36.0,120.0,11.0,0.0
4673,54.0,0.0,150.0,3.0,0.0
4674,46.0,0.0,390.0,14.0,0.0
4675,66.0,162.0,90.0,10.0,0.0
4676,66.0,0.0,90.0,11.0,0.0
4677,52.0,0.0,150.0,2.0,0.0
4678,61.0,42.0,150.0,2.0,0.0
4679,54.0,0.0,150.0,3.0,0.0
4680,78.0,0.0,150.0,1.0,0.0
4681,76.0,0.0,150.0,1.0,0.0
4682,76.0,24.0,120.0,10.0,0.0
4683,85.0,0.0,150.0,0.0,0.0
4684,76.0,0.0,120.0,11.0,0.0
4685,64.0,0.0,150.0,3.0,0.0
4686,66.0,120.0,90.0,10.0,0.0
4687,66.0,0.0,90.0,11.0,0.0
4688,76.0,0.0,90.0,11.0,0.0
4689,46.0,0.0,150.0,12.0,0.0
4690,46.0,0.0,150.0,13.0,0.0
4691,76.0,66.0,90.0,10.0,0.0
4692,34.0,54.0,150.0,14.0,0.0
4693,42.0,0.0,390.0,5.0,0.0
4694,75.0,0.0,90.0,11.0,0.0
4695,75.0,120.0,90.0,10.0,0.0
4696,58.0,0.0,150.0,13.0,0.0
4697,58.0,12.0,150.0,12.0,0.0
4698,76.0,0.0,150.0,1.0,0.0
4699,54.0,0.0,150.0,3.0,0.0
4700,73.0,0.0,90.0,10.0,0.0
4701,64.0,0.0,150.0,3.0,0.0
4702,78.0,0.0,150.0,1.0,0.0
4703,73.0,66.0,90.0,11.0,0.0
4704,61.0,0.0,150.0,2.0,0.0
4705,52.0,42.0,150.0,2.0,0.0
4706,85.0,0.0,150.0,0.0,0.0
4707,46.0,0.0,150.0,14.0,0.0
4708,71.0,120.0,90.0,10.0,0.0
4709,71.0,0.0,90.0,11.0,0.0
4710,70.0,0.0,90.0,11.0,0.0
4711,76.0,42.0,150.0,1.0,0.0
4712,78.0,0.0,150.0,1.0,0.0
4713,85.0,0.0,150.0,0.0,0.0
4714,64.0,0.0,150.0,3.0,0.0
4715,54.0,0.0,150.0,3.0,0.0
4716,58.0,12.0,390.0,13.0,0.0
4717,58.0,0.0,390.0,12.0,0.0
4718,46.0,0.0,390.0,14.0,0.0
4719,70.0,78.0,90.0,10.0,0.0
4720,61.0,0.0,150.0,2.0,0.0
4721,52.0,0.0,150.0,2.0,0.0
4722,68.0,0.0,90.0,10.0,0.0
4723,68.0,120.0,90.0,11.0,0.0
4724,76.0,0.0,150.0,1.0,0.0
4725,66.0,0.0,90.0,10.0,0.0
4726,66.0,66.0,90.0,11.0,0.0
4727,78.0,0.0,150.0,1.0,0.0
4728,54.0,0.0,150.0,3.0,0.0
4729,64.0,42.0,150.0,3.0,0.0
4730,85.0,0.0,150.0,0.0,0.0
4731,52.0,0.0,150.0,2.0,0.0
4732,61.0,0.0,150.0,2.0,0.0
4733,64.0,162.0,90.0,10.0,0.0
4734,64.0,0.0,90.0,11.0,0.0
4735,47.0,0.0,150.0,12.0,0.0
4736,63.0,0.0,120.0,10.0,0.0
4737,63.0,24.0,120.0,11.0,0.0
4738,47.0,0.0,150.0,13.0,0.0
4739,35.0,54.0,150.0,14.0,0.0
4740,66.0,0.0,1350.0,4.0,0.0
4741,47.0,12.0,390.0,5.0,0.0
4742,59.0,0.0,1350.0,4.0,0.0
4743,71.0,0.0,90.0,10.0,0.0
4744,71.0,162.0,90.0,11.0,0.0
4745,59.0,0.0,150.0,12.0,0.0
4746,59.0,0.0,150.0,13.0,0.0
4747,51.0,42.0,150.0,2.0,0.0
4748,59.0,0.0,150.0,2.0,0.0
4749,75.0,0.0,150.0,1.0,0.0
4750,78.0,0.0,150.0,1.0,0.0
4751,63.0,0.0,150.0,3.0,0.0
4752,54.0,0.0,150.0,3.0,0.0
4753,75.0,24.0,120.0,11.0,0.0
4754,47.0,0.0,150.0,14.0,0.0
4755,75.0,0.0,120.0,10.0,0.0
4756,83.0,0.0,150.0,0.0,0.0
4757,71.0,0.0,90.0,11.0,0.0
4758,71.0,162.0,90.0,10.0,0.0
4759,51.0,0.0,150.0,2.0,0.0
4760,59.0,0.0,150.0,2.0,0.0
4761,59.0,0.0,390.0,12.0,0.0
4762,47.0,0.0,390.0,5.0,0.0
4763,54.0,0.0,150.0,3.0,0.0
4764,63.0,42.0,150.0,3.0,0.0
4765,78.0,0.0,150.0,1.0,0.0
4766,75.0,0.0,150.0,1.0,0.0
4767,47.0,12.0,390.0,14.0,0.0
4768,75.0,0.0,120.0,10.0,0.0
4769,75.0,36.0,120.0,11.0,0.0
4770,59.0,0.0,390.0,13.0,0.0
4771,83.0,0.0,150.0,0.0,0.0
4772,71.0,0.0,90.0,11.0,0.0
4773,71.0,162.0,90.0,10.0,0.0
4774,83.0,0.0,150.0,0.0,0.0
4775,78.0,0.0,150.0,1.0,0.0
4776,75.0,42.0,150.0,1.0,0.0
4777,75.0,24.0,120.0,10.0,0.0
4778,75.0,0.0,120.0,11.0,0.0
4779,59.0,0.0,150.0,2.0,0.0
4780,51.0,0.0,150.0,2.0,0.0
4781,63.0,0.0,150.0,3.0,0.0
4782,54.0,0.0,150.0,3.0,0.0
4783,71.0,0.0,90.0,10.0,0.0
4784,71.0,120.0,90.0,11.0,0.0
4785,47.0,54.0,150.0,12.0,0.0
4786,35.0,0.0,150.0,14.0,0.0
4787,47.0,12.0,390.0,5.0,0.0
4788,75.0,0.0,90.0,11.0,0.0
4789,75.0,66.0,90.0,10.0,0.0
4790,47.0,0.0,150.0,13.0,0.0
4791,73.0,0.0,90.0,10.0,0.0
4792,73.0,120.0,90.0,11.0,0.0
4793,75.0,0.0,150.0,1.0,0.0
4794,83.0,0.0,150.0,0.0,0.0
4795,71.0,0.0,90.0,10.0,0.0
4796,59.0,0.0,150.0,12.0,0.0
4797,71.0,66.0,90.0,11.0,0.0
4798,51.0,42.0,150.0,2.0,0.0
4799,54.0,0.0,150.0,3.0,0.0
4800,63.0,0.0,150.0,3.0,0.0
4801,59.0,0.0,150.0,2.0,0.0
4802,78.0,0.0,150.0,1.0,0.0
4803,59.0,0.0,150.0,13.0,0.0
4804,47.0,0.0,150.0,14.0,0.0
4805,70.0,0.0,90.0,10.0,0.0
4806,70.0,120.0,90.0,11.0,0.0
4807,59.0,0.0,390.0,13.0,0.0
4808,54.0,0.0,150.0,3.0,0.0
4809,63.0,0.0,150.0,3.0,0.0
4810,59.0,0.0,390.0,12.0,0.0
4811,83.0,0.0,150.0,0.0,0.0
4812,68.0,0.0,90.0,11.0,0.0
4813,59.0,0.0,150.0,2.0,0.0
4814,51.0,0.0,150.0,2.0,0.0
4815,75.0,0.0,150.0,1.0,0.0
4816,78.0,42.0,150.0,1.0,0.0
4817,68.0,78.0,90.0,10.0,0.0
4818,47.0,12.0,390.0,14.0,0.0
4819,66.0,120.0,90.0,11.0,0.0
4820,66.0,0.0,90.0,10.0,0.0
4821,64.0,66.0,90.0,10.0,0.0
4822,63.0,0.0,150.0,3.0,0.0
4823,78.0,0.0,150.0,1.0,0.0
4824,51.0,42.0,150.0,2.0,0.0
4825,75.0,0.0,150.0,1.0,0.0
4826,64.0,0.0,90.0,11.0,0.0
4827,83.0,0.0,150.0,0.0,0.0
4828,59.0,0.0,150.0,2.0,0.0
4829,54.0,0.0,150.0,3.0,0.0
4830,63.0,0.0,90.0,11.0,0.0
4831,63.0,162.0,90.0,10.0,0.0
4832,59.0,0.0,1350.0,4.0,0.0
4833,61.0,24.0,120.0,11.0,0.0
4834,47.0,0.0,390.0,5.0,0.0
4835,47.0,0.0,150.0,12.0,0.0
4836,61.0,0.0,120.0,10.0,0.0
4837,47.0,0.0,150.0,13.0,0.0
4838,71.0,0.0,1350.0,4.0,0.0
4839,35.0,54.0,150.0,14.0,0.0
4840,68.0,162.0,90.0,10.0,0.0
4841,68.0,0.0,90.0,11.0,0.0
4842,65.0,42.0,150.0,3.0,0.0
4843,61.0,0.0,150.0,3.0,0.0
4844,77.0,24.0,120.0,10.0,0.0
4845,80.0,0.0,150.0,0.0,0.0
4846,77.0,0.0,120.0,11.0,0.0
4847,73.0,0.0,150.0,1.0,0.0
4848,77.0,0.0,150.0,1.0,0.0
4849,53.0,0.0,150.0,2.0,0.0
4850,59.0,12.0,150.0,13.0,0.0
4851,59.0,0.0,150.0,12.0,0.0
4852,47.0,0.0,150.0,14.0,0.0
4853,56.0,0.0,150.0,2.0,0.0
4854,68.0,0.0,90.0,11.0,0.0
4855,68.0,162.0,90.0,10.0,0.0
4856,59.0,12.0,390.0,12.0,0.0
4857,56.0,0.0,150.0,2.0,0.0
4858,61.0,0.0,150.0,3.0,0.0
4859,65.0,0.0,150.0,3.0,0.0
4860,77.0,42.0,150.0,1.0,0.0
4861,59.0,0.0,390.0,13.0,0.0
4862,53.0,0.0,150.0,2.0,0.0
4863,73.0,0.0,150.0,1.0,0.0
4864,80.0,0.0,150.0,0.0,0.0
4865,47.0,0.0,390.0,5.0,0.0
4866,77.0,0.0,120.0,10.0,0.0
4867,47.0,0.0,390.0,14.0,0.0
4868,77.0,36.0,120.0,11.0,0.0
4869,68.0,0.0,90.0,10.0,0.0
4870,68.0,162.0,90.0,11.0,0.0
4871,73.0,0.0,150.0,1.0,0.0
4872,77.0,0.0,150.0,1.0,0.0
4873,61.0,0.0,150.0,3.0,0.0
4874,65.0,0.0,150.0,3.0,0.0
4875,77.0,0.0,120.0,11.0,0.0
4876,56.0,42.0,150.0,2.0,0.0
4877,77.0,24.0,120.0,10.0,0.0
4878,53.0,0.0,150.0,2.0,0.0
4879,80.0,0.0,150.0,0.0,0.0
4880,68.0,120.0,90.0,11.0,0.0
4881,68.0,0.0,90.0,10.0,0.0
4882,47.0,0.0,390.0,5.0,0.0
4883,77.0,0.0,90.0,10.0,0.0
4884,47.0,0.0,150.0,13.0,0.0
4885,47.0,0.0,150.0,12.0,0.0
4886,35.0,54.0,150.0,14.0,0.0
4887,77.0,66.0,90.0,11.0,0.0
4888,75.0,0.0,90.0,11.0,0.0
4889,75.0,120.0,90.0,10.0,0.0
4890,61.0,0.0,150.0,3.0,0.0
4891,56.0,0.0,150.0,2.0,0.0
4892,59.0,12.0,150.0,12.0,0.0
4893,80.0,0.0,150.0,0.0,0.0
4894,53.0,0.0,150.0,2.0,0.0
4895,73.0,66.0,90.0,10.0,0.0
4896,73.0,0.0,90.0,11.0,0.0
4897,65.0,42.0,150.0,3.0,0.0
4898,77.0,0.0,150.0,1.0,0.0
4899,47.0,0.0,150.0,14.0,0.0
4900,59.0,0.0,150.0,13.0,0.0
4901,73.0,0.0,150.0,1.0,0.0
4902,71.0,120.0,90.0,11.0,0.0
4903,71.0,0.0,90.0,10.0,0.0
4904,56.0,42.0,150.0,2.0,0.0
4905,59.0,0.0,390.0,13.0,0.0
4906,59.0,0.0,390.0,12.0,0.0
4907,65.0,0.0,150.0,3.0,0.0
4908,80.0,0.0,150.0,0.0,0.0
4909,70.0,0.0,90.0,11.0,0.0
4910,70.0,78.0,90.0,10.0,0.0
4911,77.0,0.0,150.0,1.0,0.0
4912,73.0,0.0,150.0,1.0,0.0
4913,53.0,0.0,150.0,2.0,0.0
4914,61.0,0.0,150.0,3.0,0.0
4915,47.0,12.0,390.0,14.0,0.0
4916,68.0,120.0,90.0,11.0,0.0
4917,68.0,0.0,90.0,10.0,0.0
4918,66.0,66.0,90.0,11.0,0.0
4919,80.0,0.0,150.0,0.0,0.0
4920,73.0,0.0,150.0,1.0,0.0
4921,65.0,0.0,150.0,3.0,0.0
4922,66.0,0.0,90.0,10.0,0.0
4923,61.0,42.0,150.0,3.0,0.0
4924,77.0,0.0,150.0,1.0,0.0
4925,53.0,0.0,150.0,2.0,0.0
4926,56.0,0.0,150.0,2.0,0.0
4927,65.0,162.0,90.0,10.0,0.0
4928,65.0,0.0,90.0,11.0,0.0
4929,66.0,0.0,1350.0,4.0,0.0
4930,42.0,0.0,390.0,5.0,0.0
4931,66.0,24.0,120.0,11.0,0.0
4932,54.0,0.0,1350.0,4.0,0.0
4933,46.0,0.0,150.0,12.0,0.0
4934,34.0,0.0,150.0,14.0,0.0
4935,66.0,0.0,120.0,10.0,0.0
4936,46.0,54.0,150.0,13.0,0.0
4937,73.0,162.0,90.0,10.0,0.0
4938,73.0,0.0,90.0,11.0,0.0
4939,78.0,0.0,120.0,11.0,0.0
4940,78.0,24.0,120.0,10.0,0.0
4941,58.0,0.0,150.0,12.0,0.0
4942,58.0,42.0,150.0,2.0,0.0
4943,54.0,0.0,150.0,2.0,0.0
4944,78.0,0.0,150.0,1.0,0.0
4945,66.0,0.0,150.0,3.0,0.0
4946,61.0,0.0,150.0,3.0,0.0
4947,58.0,12.0,150.0,13.0,0.0
4948,46.0,0.0,150.0,14.0,0.0
4949,82.0,0.0,150.0,0.0,0.0
4950,73.0,0.0,150.0,1.0,0.0
4951,73.0,0.0,90.0,10.0,0.0
4952,73.0,162.0,90.0,11.0,0.0
4953,78.0,0.0,120.0,10.0,0.0
4954,61.0,0.0,150.0,3.0,0.0
4955,42.0,0.0,390.0,5.0,0.0
4956,58.0,0.0,150.0,2.0,0.0
4957,58.0,12.0,390.0,13.0,0.0
4958,54.0,42.0,150.0,2.0,0.0
4959,78.0,0.0,150.0,1.0,0.0
4960,73.0,0.0,150.0,1.0,0.0
4961,46.0,0.0,390.0,14.0,0.0
4962,78.0,36.0,120.0,11.0,0.0
4963,82.0,0.0,150.0,0.0,0.0
4964,58.0,0.0,390.0,12.0,0.0
4965,66.0,0.0,150.0,3.0,0.0
4966,73.0,0.0,90.0,10.0,0.0
4967,73.0,162.0,90.0,11.0,0.0
4968,78.0,24.0,120.0,10.0,0.0
4969,78.0,0.0,120.0,11.0,0.0
4970,66.0,0.0,150.0,3.0,0.0
4971,61.0,42.0,150.0,3.0,0.0
4972,73.0,0.0,150.0,1.0,0.0
4973,82.0,0.0,150.0,0.0,0.0
4974,78.0,0.0,150.0,1.0,0.0
4975,58.0,0.0,150.0,2.0,0.0
4976,54.0,0.0,150.0,2.0,0.0
4977,73.0,0.0,90.0,11.0,0.0
4978,73.0,120.0,90.0,10.0,0.0
4979,46.0,54.0,150.0,13.0,0.0
4980,42.0,0.0,390.0,5.0,0.0
4981,46.0,0.0,150.0,12.0,0.0
4982,34.0,0.0,150.0,14.0,0.0
4983,78.0,0.0,90.0,10.0,0.0
4984,78.0,66.0,90.0,11.0,0.0
4985,77.0,120.0,90.0,10.0,0.0
4986,77.0,0.0,90.0,11.0,0.0
4987,54.0,0.0,150.0,2.0,0.0
4988,58.0,42.0,150.0,2.0,0.0
4989,46.0,0.0,150.0,14.0,0.0
4990,75.0,66.0,90.0,11.0,0.0
4991,61.0,0.0,150.0,3.0,0.0
4992,82.0,0.0,150.0,0.0,0.0
4993,66.0,0.0,150.0,3.0,0.0
4994,58.0,0.0,150.0,13.0,0.0
4995,73.0,0.0,150.0,1.0,0.0
4996,78.0,0.0,150.0,1.0,0.0
4997,75.0,0.0,90.0,10.0,0.0
4998,58.0,12.0,150.0,12.0,0.0
4999,73.0,0.0,90.0,10.0,0.0
5000,73.0,120.0,90.0,11.0,0.0
5001,58.0,0.0,390.0,12.0,0.0
5002,71.0,78.0,90.0,10.0,0.0
5003,73.0,0.0,150.0,1.0,0.0
5004,78.0,0.0,150.0,1.0,0.0
5005,58.0,12.0,390.0,13.0,0.0
5006,54.0,0.0,150.0,2.0,0.0
5007,71.0,0.0,90.0,11.0,0.0
5008,82.0,42.0,150.0,0.0,0.0
5009,61.0,0.0,150.0,3.0,0.0
5010,66.0,0.0,150.0,3.0,0.0
5011,58.0,0.0,150.0,2.0,0.0
5012,46.0,0.0,390.0,14.0,0.0
5013,70.0,120.0,90.0,11.0,0.0
5014,70.0,0.0,90.0,10.0,0.0
5015,66.0,0.0,150.0,3.0,0.0
5016,78.0,0.0,150.0,1.0,0.0
5017,61.0,42.0,150.0,3.0,0.0
5018,68.0,66.0,90.0,11.0,0.0
5019,73.0,0.0,150.0,1.0,0.0
5020,68.0,0.0,90.0,10.0,0.0
5021,58.0,0.0,150.0,2.0,0.0
5022,54.0,0.0,150.0,2.0,0.0
5023,82.0,0.0,150.0,0.0,0.0
5024,66.0,162.0,90.0,10.0,0.0
5025,66.0,0.0,90.0,11.0,0.0
5026,72.0,0.0,120.0,11.0,0.0
5027,51.0,0.0,150.0,12.0,0.0
5028,27.0,54.0,150.0,14.0,0.0
5029,66.0,0.0,1350.0,4.0,0.0
5030,54.0,0.0,1350.0,4.0,0.0
5031,72.0,24.0,120.0,10.0,0.0
5032,42.0,0.0,390.0,5.0,0.0
5033,39.0,0.0,150.0,13.0,0.0
5034,75.0,162.0,90.0,11.0,0.0
5035,75.0,0.0,90.0,10.0,0.0
5036,51.0,12.0,150.0,13.0,0.0
5037,54.0,0.0,150.0,3.0,0.0
5038,60.0,0.0,150.0,2.0,0.0
5039,51.0,0.0,150.0,2.0,0.0
5040,84.0,0.0,150.0,0.0,0.0
5041,78.0,0.0,150.0,1.0,0.0
5042,78.0,0.0,120.0,11.0,0.0
5043,66.0,42.0,150.0,3.0,0.0
5044,63.0,0.0,150.0,12.0,0.0
5045,72.0,0.0,150.0,1.0,0.0
5046,78.0,24.0,120.0,10.0,0.0
5047,39.0,0.0,150.0,14.0,0.0
5048,75.0,0.0,90.0,11.0,0.0
5049,75.0,162.0,90.0,10.0,0.0
5050,66.0,0.0,150.0,3.0,0.0
5051,84.0,42.0,150.0,0.0,0.0
5052,78.0,0.0,120.0,11.0,0.0
5053,63.0,0.0,390.0,12.0,0.0
5054,42.0,0.0,390.0,5.0,0.0
5055,78.0,36.0,120.0,10.0,0.0
5056,54.0,0.0,150.0,3.0,0.0
5057,51.0,0.0,150.0,2.0,0.0
5058,78.0,0.0,150.0,1.0,0.0
5059,39.0,0.0,390.0,14.0,0.0
5060,72.0,0.0,150.0,1.0,0.0
5061,60.0,0.0,150.0,2.0,0.0
5062,51.0,12.0,390.0,13.0,0.0
5063,75.0,162.0,90.0,10.0,0.0
5064,75.0,0.0,90.0,11.0,0.0
5065,84.0,0.0,150.0,0.0,0.0
5066,60.0,0.0,150.0,2.0,0.0
5067,78.0,0.0,150.0,1.0,0.0
5068,51.0,0.0,150.0,2.0,0.0
5069,54.0,0.0,150.0,3.0,0.0
5070,78.0,0.0,120.0,11.0,0.0
5071,78.0,24.0,120.0,10.0,0.0
5072,72.0,42.0,150.0,1.0,0.0
5073,66.0,0.0,150.0,3.0,0.0
5074,75.0,120.0,90.0,11.0,0.0
5075,75.0,0.0,90.0,10.0,0.0
5076,42.0,0.0,390.0,5.0,0.0
5077,51.0,54.0,150.0,12.0,0.0
5078,39.0,0.0,150.0,13.0,0.0
5079,78.0,66.0,90.0,10.0,0.0
5080,78.0,0.0,90.0,11.0,0.0
5081,28.0,0.0,150.0,14.0,0.0
5082,77.0,120.0,90.0,11.0,0.0
5083,77.0,0.0,90.0,10.0,0.0
5084,60.0,0.0,150.0,2.0,0.0
5085,78.0,0.0,150.0,1.0,0.0
5086,72.0,42.0,150.0,1.0,0.0
5087,75.0,66.0,90.0,11.0,0.0
5088,66.0,0.0,150.0,3.0,0.0
5089,54.0,0.0,150.0,3.0,0.0
5090,84.0,0.0,150.0,0.0,0.0
5091,51.0,0.0,150.0,2.0,0.0
5092,75.0,0.0,90.0,10.0,0.0
5093,63.0,0.0,150.0,12.0,0.0
5094,51.0,0.0,150.0,13.0,0.0
5095,39.0,12.0,150.0,14.0,0.0
5096,73.0,120.0,90.0,10.0,0.0
5097,73.0,0.0,90.0,11.0,0.0
5098,54.0,0.0,150.0,3.0,0.0
5099,66.0,0.0,150.0,3.0,0.0
5100,72.0,0.0,90.0,10.0,0.0
5101,63.0,0.0,390.0,12.0,0.0
5102,39.0,12.0,390.0,14.0,0.0
5103,60.0,0.0,150.0,2.0,0.0
5104,51.0,0.0,150.0,2.0,0.0
5105,51.0,0.0,390.0,13.0,0.0
5106,72.0,0.0,150.0,1.0,0.0
5107,78.0,0.0,150.0,1.0,0.0
5108,72.0,78.0,90.0,11.0,0.0
5109,84.0,42.0,150.0,0.0,0.0
5110,70.0,0.0,90.0,10.0,0.0
5111,70.0,120.0,90.0,11.0,0.0
5112,66.0,0.0,150.0,3.0,0.0
5113,68.0,66.0,90.0,10.0,0.0
5114,68.0,0.0,90.0,11.0,0.0
5115,78.0,0.0,150.0,1.0,0.0
5116,84.0,42.0,150.0,0.0,0.0
5117,72.0,0.0,150.0,1.0,0.0
5118,54.0,0.0,150.0,3.0,0.0
5119,51.0,0.0,150.0,2.0,0.0
5120,60.0,0.0,150.0,2.0,0.0
5121,66.0,0.0,90.0,11.0,0.0
5122,66.0,120.0,90.0,10.0,0.0
5123,25.0,0.0,150.0,14.0,0.0
5124,37.0,12.0,150.0,13.0,0.0
5125,73.0,0.0,390.0,4.0,0.0
5126,77.0,0.0,150.0,1.0,0.0
5127,85.0,0.0,150.0,0.0,0.0
5128,73.0,42.0,150.0,1.0,0.0
5129,65.0,0.0,90.0,10.0,0.0
5130,61.0,0.0,150.0,3.0,0.0
5131,65.0,66.0,90.0,11.0,0.0
5132,61.0,0.0,150.0,2.0,0.0
5133,53.0,0.0,150.0,2.0,0.0
5134,49.0,0.0,150.0,12.0,0.0
5135,77.0,0.0,90.0,11.0,0.0
5136,77.0,120.0,90.0,10.0,0.0
5137,85.0,42.0,150.0,0.0,0.0
5138,61.0,0.0,150.0,2.0,0.0
5139,53.0,0.0,150.0,2.0,0.0
5140,61.0,0.0,150.0,3.0,0.0
5141,75.0,66.0,90.0,10.0,0.0
5142,77.0,0.0,150.0,1.0,0.0
5143,73.0,0.0,150.0,1.0,0.0
5144,75.0,0.0,90.0,11.0,0.0
5145,61.0,12.0,150.0,12.0,0.0
5146,49.0,0.0,150.0,13.0,0.0
5147,37.0,0.0,150.0,14.0,0.0
5148,73.0,120.0,90.0,11.0,0.0
5149,73.0,0.0,90.0,10.0,0.0
5150,54.0,0.0,150.0,2.0,0.0
5151,60.0,0.0,150.0,2.0,0.0
5152,37.0,12.0,150.0,14.0,0.0
5153,84.0,0.0,150.0,0.0,0.0
5154,75.0,0.0,150.0,1.0,0.0
5155,72.0,66.0,90.0,11.0,0.0
5156,49.0,0.0,150.0,13.0,0.0
5157,63.0,0.0,150.0,3.0,0.0
5158,78.0,42.0,150.0,1.0,0.0
5159,72.0,0.0,90.0,10.0,0.0
5160,61.0,0.0,150.0,12.0,0.0
5161,78.0,0.0,90.0,11.0,0.0
5162,78.0,120.0,90.0,10.0,0.0
5163,78.0,0.0,150.0,1.0,0.0
5164,60.0,0.0,150.0,2.0,0.0
5165,54.0,42.0,150.0,2.0,0.0
5166,75.0,66.0,90.0,10.0,0.0
5167,84.0,0.0,150.0,0.0,0.0
5168,75.0,0.0,150.0,1.0,0.0
5169,75.0,0.0,90.0,11.0,0.0
5170,61.0,0.0,150.0,12.0,0.0
5171,63.0,0.0,150.0,3.0,0.0
5172,37.0,0.0,150.0,14.0,0.0
5173,49.0,12.0,150.0,13.0,0.0
5174,72.0,120.0,90.0,11.0,0.0
5175,72.0,0.0,90.0,10.0,0.0
5176,73.0,0.0,90.0,10.0,0.0
5177,73.0,66.0,90.0,11.0,0.0
5178,73.0,0.0,390.0,4.0,0.0
5179,61.0,0.0,150.0,12.0,0.0
5180,77.0,0.0,150.0,1.0,0.0
5181,49.0,0.0,150.0,13.0,0.0
5182,53.0,0.0,150.0,2.0,0.0
5183,61.0,0.0,150.0,2.0,0.0
5184,37.0,12.0,150.0,14.0,0.0
5185,73.0,0.0,150.0,1.0,0.0
5186,61.0,42.0,150.0,3.0,0.0
5187,85.0,0.0,150.0,0.0,0.0
5188,77.0,0.0,90.0,10.0,0.0
5189,77.0,120.0,90.0,11.0,0.0
5190,75.0,0.0,90.0,11.0,0.0
5191,77.0,0.0,150.0,1.0,0.0
5192,73.0,0.0,150.0,1.0,0.0
5193,61.0,0.0,150.0,12.0,0.0
5194,61.0,0.0,150.0,3.0,0.0
5195,49.0,0.0,150.0,13.0,0.0
5196,37.0,12.0,150.0,14.0,0.0
5197,75.0,66.0,90.0,10.0,0.0
5198,61.0,0.0,150.0,2.0,0.0
5199,53.0,42.0,150.0,2.0,0.0
5200,85.0,0.0,150.0,0.0,0.0
5201,73.0,120.0,90.0,10.0,0.0
5202,73.0,0.0,90.0,11.0,0.0
5203,54.0,0.0,150.0,2.0,0.0
5204,61.0,12.0,150.0,12.0,0.0
5205,78.0,42.0,150.0,1.0,0.0
5206,63.0,0.0,150.0,3.0,0.0
5207,72.0,0.0,90.0,11.0,0.0
5208,84.0,0.0,150.0,0.0,0.0
5209,72.0,66.0,90.0,10.0,0.0
5210,49.0,0.0,150.0,13.0,0.0
5211,37.0,0.0,150.0,14.0,0.0
5212,60.0,0.0,150.0,2.0,0.0
5213,75.0,0.0,150.0,1.0,0.0
5214,78.0,120.0,90.0,11.0,0.0
5215,78.0,0.0,90.0,10.0,0.0
5216,61.0,0.0,150.0,12.0,0.0
5217,60.0,0.0,150.0,2.0,0.0
5218,75.0,0.0,90.0,10.0,0.0
5219,37.0,0.0,150.0,14.0,0.0
5220,75.0,66.0,90.0,11.0,0.0
5221,78.0,0.0,150.0,1.0,0.0
5222,49.0,12.0,150.0,13.0,0.0
5223,54.0,0.0,150.0,2.0,0.0
5224,63.0,0.0,150.0,3.0,0.0
5225,75.0,42.0,150.0,1.0,0.0
5226,84.0,0.0,150.0,0.0,0.0
5227,72.0,198.0,90.0,10.0,0.0
5228,72.0,0.0,90.0,11.0,0.0
5229,37.0,0.0,150.0,14.0,0.0
5230,85.0,0.0,150.0,0.0,0.0
5231,49.0,0.0,150.0,13.0,0.0
5232,77.0,0.0,150.0,1.0,0.0
5233,73.0,0.0,150.0,10.0,0.0
5234,73.0,0.0,150.0,11.0,0.0
5235,61.0,0.0,150.0,2.0,0.0
5236,53.0,0.0,150.0,2.0,0.0
5237,73.0,12.0,390.0,4.0,0.0
5238,61.0,0.0,150.0,3.0,0.0
5239,61.0,162.0,150.0,12.0,0.0
5240,73.0,0.0,150.0,1.0,0.0
5241,61.0,0.0,90.0,10.0,0.0
5242,53.0,0.0,90.0,11.0,0.0
5243,61.0,66.0,90.0,11.0,0.0
5244,49.0,0.0,150.0,12.0,0.0
5245,37.0,0.0,150.0,13.0,0.0
5246,53.0,0.0,90.0,10.0,0.0
5247,73.0,0.0,150.0,0.0,0.0
5248,61.0,42.0,150.0,3.0,0.0
5249,56.0,0.0,150.0,2.0,0.0
5250,68.0,0.0,150.0,1.0,0.0
5251,65.0,0.0,150.0,1.0,0.0
5252,25.0,0.0,150.0,14.0,0.0
5253,53.0,0.0,150.0,2.0,0.0
5254,53.0,0.0,90.0,11.0,0.0
5255,53.0,0.0,90.0,10.0,0.0
5256,61.0,198.0,90.0,10.0,0.0
5257,61.0,0.0,90.0,11.0,0.0
5258,53.0,0.0,150.0,2.0,0.0
5259,49.0,0.0,150.0,12.0,0.0
5260,65.0,0.0,150.0,1.0,0.0
5261,68.0,0.0,150.0,1.0,0.0
5262,61.0,0.0,150.0,11.0,0.0
5263,53.0,0.0,150.0,11.0,0.0
5264,61.0,0.0,150.0,3.0,0.0
5265,73.0,0.0,150.0,0.0,0.0
5266,53.0,0.0,150.0,10.0,0.0
5267,25.0,0.0,150.0,14.0,0.0
5268,56.0,0.0,150.0,2.0,0.0
5269,61.0,0.0,150.0,10.0,0.0
5270,73.0,12.0,390.0,4.0,0.0
5271,37.0,228.0,150.0,13.0,0.0
5272,61.0,0.0,150.0,11.0,0.0
5273,73.0,0.0,150.0,0.0,0.0
5274,49.0,0.0,150.0,12.0,0.0
5275,53.0,0.0,150.0,11.0,0.0
5276,53.0,0.0,150.0,10.0,0.0
5277,61.0,468.0,150.0,10.0,0.0
5278,25.0,0.0,150.0,14.0,0.0
5279,56.0,0.0,150.0,2.0,0.0
5280,53.0,0.0,150.0,2.0,0.0
5281,61.0,0.0,150.0,3.0,0.0
5282,37.0,0.0,150.0,13.0,0.0
5283,68.0,0.0,150.0,1.0,0.0
5284,65.0,0.0,150.0,1.0,0.0
5285,49.0,0.0,390.0,12.0,0.0
5286,53.0,0.0,390.0,10.0,0.0
5287,73.0,0.0,390.0,0.0,0.0
5288,73.0,0.0,390.0,4.0,0.0
5289,68.0,0.0,390.0,1.0,0.0
5290,65.0,0.0,390.0,1.0,0.0
5291,25.0,0.0,390.0,14.0,0.0
5292,61.0,0.0,390.0,10.0,0.0
5293,53.0,408.0,390.0,2.0,0.0
5294,61.0,0.0,390.0,3.0,0.0
5295,61.0,0.0,390.0,11.0,0.0
5296,53.0,0.0,390.0,11.0,0.0
5297,56.0,0.0,390.0,2.0,0.0
5298,37.0,0.0,390.0,13.0,0.0
5299,70.0,120.0,60.0,10.0,0.0
5300,71.0,168.0,60.0,10.0,0.0
5301,58.0,0.0,120.0,11.0,0.0
5302,73.0,72.0,120.0,10.0,0.0
5303,61.0,72.0,120.0,11.0,0.0
5304,71.0,48.0,60.0,10.0,0.0
5305,70.0,48.0,60.0,10.0,0.0
5306,58.0,72.0,120.0,11.0,0.0
5307,61.0,120.0,120.0,11.0,0.0
5308,68.0,48.0,60.0,10.0,0.0
5309,66.0,96.0,150.0,10.0,0.0
5310,58.0,24.0,120.0,11.0,0.0
5311,61.0,120.0,120.0,11.0,0.0
5312,56.0,0.0,150.0,2.0,0.0
5313,58.0,24.0,120.0,11.0,0.0
5314,80.0,0.0,150.0,0.0,0.0
5315,68.0,48.0,150.0,1.0,0.0
5316,61.0,168.0,60.0,11.0,0.0
5317,49.0,0.0,720.0,2.0,0.0
5318,59.0,120.0,120.0,11.0,0.0
5319,73.0,120.0,720.0,0.0,0.0
5320,61.0,0.0,720.0,1.0,0.0
5321,61.0,120.0,120.0,11.0,0.0
5322,73.0,96.0,150.0,10.0,0.0
5323,59.0,24.0,120.0,11.0,0.0
5324,61.0,120.0,120.0,11.0,0.0
5325,59.0,24.0,120.0,11.0,0.0
5326,73.0,96.0,150.0,10.0,0.0
5327,61.0,0.0,120.0,11.0,0.0
5328,73.0,48.0,150.0,10.0,0.0
5329,63.0,24.0,120.0,1.0,0.0
5330,51.0,0.0,120.0,2.0,0.0
5331,59.0,0.0,120.0,11.0,0.0
5332,75.0,0.0,120.0,0.0,0.0
5333,77.0,0.0,120.0,0.0,0.0
5334,53.0,0.0,120.0,2.0,0.0
5335,65.0,120.0,120.0,1.0,0.0
5336,61.0,48.0,60.0,11.0,0.0
5337,54.0,48.0,180.0,2.0,0.0
5338,66.0,0.0,180.0,1.0,0.0
5339,78.0,0.0,180.0,0.0,0.0
5340,73.0,120.0,240.0,10.0,0.0
5341,58.0,72.0,120.0,11.0,0.0
5342,61.0,0.0,120.0,11.0,0.0
5343,58.0,0.0,120.0,11.0,0.0
5344,75.0,120.0,120.0,10.0,0.0
5345,77.0,0.0,120.0,10.0,0.0
5346,61.0,120.0,120.0,11.0,0.0
5347,78.0,120.0,120.0,10.0,0.0
5348,58.0,0.0,120.0,11.0,0.0
5349,61.0,120.0,120.0,11.0,0.0
5350,77.0,0.0,120.0,10.0,0.0
5351,75.0,0.0,120.0,10.0,0.0
5352,58.0,72.0,120.0,11.0,0.0
5353,61.0,24.0,60.0,11.0,0.0
5354,73.0,84.0,90.0,10.0,0.0
5355,56.0,48.0,120.0,11.0,0.0
5356,73.0,60.0,60.0,10.0,0.0
5357,71.0,72.0,120.0,10.0,0.0
5358,61.0,120.0,120.0,11.0,0.0
5359,56.0,24.0,120.0,11.0,0.0
5360,71.0,96.0,150.0,10.0,0.0
5361,61.0,60.0,120.0,11.0,0.0
5362,54.0,48.0,120.0,11.0,0.0
5363,71.0,60.0,60.0,10.0,0.0
5364,70.0,72.0,120.0,10.0,0.0
5365,61.0,120.0,120.0,11.0,0.0
5366,54.0,24.0,120.0,11.0,0.0
5367,70.0,48.0,150.0,10.0,0.0
5368,61.0,108.0,60.0,11.0,0.0
5369,59.0,48.0,120.0,11.0,0.0
5370,70.0,60.0,60.0,10.0,0.0
5371,68.0,72.0,120.0,10.0,0.0
5372,63.0,120.0,120.0,11.0,0.0
5373,59.0,24.0,120.0,11.0,0.0
5374,68.0,96.0,150.0,10.0,0.0
5375,63.0,60.0,120.0,11.0,0.0
5376,68.0,60.0,60.0,10.0,0.0
5377,60.0,48.0,120.0,11.0,0.0
5378,66.0,72.0,120.0,10.0,0.0
5379,63.0,120.0,120.0,11.0,0.0
5380,60.0,24.0,120.0,11.0,0.0
5381,66.0,48.0,150.0,10.0,0.0
5382,63.0,432.0,60.0,11.0,0.0
5383,65.0,144.0,480.0,10.0,0.0
5384,61.0,96.0,390.0,11.0,0.0
5385,68.0,168.0,150.0,10.0,0.0
5386,70.0,120.0,60.0,10.0,0.0
5387,71.0,168.0,60.0,10.0,0.0
5388,73.0,72.0,120.0,10.0,0.0
5389,58.0,0.0,120.0,11.0,0.0
5390,61.0,72.0,120.0,11.0,0.0
5391,71.0,48.0,60.0,10.0,0.0
5392,58.0,72.0,120.0,11.0,0.0
5393,70.0,48.0,60.0,10.0,0.0
5394,68.0,48.0,60.0,10.0,0.0
5395,61.0,120.0,120.0,11.0,0.0
5396,66.0,96.0,150.0,10.0,0.0
5397,58.0,24.0,120.0,11.0,0.0
5398,61.0,120.0,120.0,11.0,0.0
5399,68.0,0.0,150.0,1.0,0.0
5400,58.0,24.0,120.0,11.0,0.0
5401,80.0,48.0,150.0,0.0,0.0
5402,56.0,0.0,150.0,2.0,0.0
5403,61.0,168.0,60.0,11.0,0.0
5404,49.0,0.0,720.0,2.0,0.0
5405,59.0,120.0,120.0,11.0,0.0
5406,61.0,0.0,720.0,1.0,0.0
5407,73.0,120.0,720.0,0.0,0.0
5408,61.0,120.0,120.0,11.0,0.0
5409,73.0,96.0,150.0,10.0,0.0
5410,59.0,24.0,120.0,11.0,0.0
5411,61.0,120.0,120.0,11.0,0.0
5412,73.0,96.0,150.0,10.0,0.0
5413,59.0,24.0,120.0,11.0,0.0
5414,61.0,0.0,120.0,11.0,0.0
5415,75.0,0.0,120.0,0.0,0.0
5416,51.0,0.0,120.0,2.0,0.0
5417,73.0,48.0,150.0,10.0,0.0
5418,63.0,0.0,120.0,1.0,0.0
5419,59.0,24.0,120.0,11.0,0.0
5420,65.0,0.0,120.0,1.0,0.0
5421,53.0,0.0,120.0,2.0,0.0
5422,61.0,48.0,60.0,11.0,0.0
5423,77.0,120.0,120.0,0.0,0.0
5424,57.0,72.0,120.0,11.0,0.0
5425,73.0,0.0,180.0,10.0,0.0
5426,54.0,0.0,180.0,2.0,0.0
5427,66.0,48.0,180.0,1.0,0.0
5428,78.0,0.0,180.0,0.0,0.0
5429,61.0,96.0,120.0,11.0,0.0
5430,57.0,96.0,120.0,11.0,0.0
5431,75.0,24.0,90.0,10.0,0.0
5432,61.0,96.0,120.0,11.0,0.0
5433,77.0,24.0,90.0,10.0,0.0
5434,57.0,96.0,120.0,11.0,0.0
5435,78.0,24.0,90.0,10.0,0.0
5436,61.0,96.0,120.0,11.0,0.0
5437,76.0,24.0,90.0,10.0,0.0
5438,57.0,72.0,120.0,11.0,0.0
5439,74.0,24.0,90.0,10.0,0.0
5440,61.0,24.0,60.0,11.0,0.0
5441,73.0,84.0,90.0,10.0,0.0
5442,73.0,60.0,60.0,10.0,0.0
5443,56.0,48.0,120.0,11.0,0.0
5444,71.0,72.0,120.0,10.0,0.0
5445,61.0,120.0,120.0,11.0,0.0
5446,56.0,24.0,120.0,11.0,0.0
5447,71.0,96.0,150.0,10.0,0.0
5448,61.0,60.0,120.0,11.0,0.0
5449,54.0,48.0,120.0,11.0,0.0
5450,71.0,60.0,60.0,10.0,0.0
5451,69.0,72.0,120.0,10.0,0.0
5452,61.0,120.0,120.0,11.0,0.0
5453,69.0,48.0,150.0,10.0,0.0
5454,54.0,24.0,120.0,11.0,0.0
5455,61.0,168.0,60.0,11.0,0.0
5456,62.0,120.0,1920.0,2.0,0.0
5457,69.0,120.0,120.0,10.0,0.0
5458,59.0,120.0,960.0,2.0,0.0
5459,59.0,0.0,120.0,11.0,0.0
5460,62.0,120.0,120.0,11.0,0.0
5461,67.0,48.0,750.0,10.0,0.0
5462,59.0,120.0,120.0,11.0,0.0
5463,62.0,120.0,120.0,11.0,0.0
5464,59.0,120.0,120.0,11.0,0.0
5465,62.0,120.0,120.0,11.0,0.0
5466,59.0,24.0,120.0,11.0,0.0
5467,62.0,48.0,60.0,11.0,0.0
5468,58.0,120.0,120.0,11.0,0.0
5469,66.0,0.0,120.0,10.0,0.0
5470,58.0,0.0,960.0,2.0,0.0
5471,62.0,120.0,120.0,11.0,0.0
5472,67.0,48.0,750.0,10.0,0.0
5473,58.0,120.0,120.0,11.0,0.0
5474,62.0,120.0,120.0,11.0,0.0
5475,58.0,120.0,120.0,11.0,0.0
5476,62.0,120.0,120.0,11.0,0.0
5477,58.0,24.0,120.0,11.0,0.0
5478,62.0,48.0,60.0,11.0,0.0
5479,33.0,0.0,390.0,14.0,0.0
5480,52.0,0.0,1860.0,12.0,0.0
5481,61.0,0.0,390.0,2.0,0.0
5482,49.0,0.0,1860.0,12.0,0.0
5483,45.0,96.0,390.0,13.0,0.0
5484,57.0,120.0,120.0,11.0,0.0
5485,57.0,0.0,390.0,2.0,0.0
5486,67.0,120.0,240.0,10.0,0.0
5487,61.0,0.0,120.0,11.0,0.0
5488,64.0,24.0,120.0,11.0,0.0
5489,79.0,0.0,480.0,10.0,0.0
5490,61.0,120.0,120.0,11.0,0.0
5491,64.0,120.0,120.0,11.0,0.0
5492,61.0,72.0,120.0,11.0,0.0
5493,64.0,72.0,120.0,11.0,0.0
5494,76.0,0.0,480.0,10.0,0.0
5495,52.0,48.0,60.0,2.0,0.0
5496,54.0,0.0,60.0,2.0,0.0
5497,61.0,168.0,60.0,11.0,0.0
5498,57.0,72.0,120.0,11.0,0.0
5499,57.0,48.0,390.0,13.0,0.0
5500,45.0,0.0,390.0,14.0,0.0
5501,55.0,0.0,120.0,2.0,0.0
5502,61.0,72.0,120.0,11.0,0.0
5503,54.0,48.0,60.0,2.0,0.0
5504,52.0,48.0,60.0,2.0,0.0
5505,73.0,72.0,480.0,10.0,0.0
5506,64.0,24.0,120.0,11.0,0.0
5507,50.0,48.0,60.0,2.0,0.0
5508,61.0,120.0,120.0,11.0,0.0
5509,49.0,96.0,150.0,2.0,0.0
5510,64.0,24.0,120.0,11.0,0.0
5511,61.0,0.0,120.0,11.0,0.0
5512,78.0,48.0,60.0,0.0,0.0
5513,64.0,72.0,120.0,11.0,0.0
5514,67.0,168.0,180.0,10.0,0.0
5515,61.0,0.0,60.0,11.0,0.0
5516,79.0,0.0,60.0,0.0,0.0
5517,45.0,0.0,390.0,13.0,0.0
5518,33.0,48.0,390.0,14.0,0.0
5519,54.0,0.0,1860.0,12.0,0.0
5520,81.0,0.0,120.0,0.0,0.0
5521,57.0,72.0,120.0,11.0,0.0
5522,50.0,0.0,1860.0,12.0,0.0
5523,66.0,72.0,240.0,10.0,0.0
5524,79.0,48.0,60.0,0.0,0.0
5525,62.0,0.0,120.0,11.0,0.0
5526,66.0,24.0,120.0,11.0,0.0
5527,81.0,0.0,480.0,10.0,0.0
5528,78.0,48.0,60.0,0.0,0.0
5529,62.0,120.0,120.0,11.0,0.0
5530,76.0,48.0,60.0,0.0,0.0
5531,74.0,96.0,150.0,0.0,0.0
5532,66.0,24.0,120.0,11.0,0.0
5533,62.0,72.0,120.0,11.0,0.0
5534,54.0,48.0,60.0,2.0,0.0
5535,78.0,72.0,480.0,10.0,0.0
5536,66.0,72.0,120.0,11.0,0.0
5537,62.0,0.0,60.0,11.0,0.0
5538,55.0,168.0,60.0,2.0,0.0
5539,57.0,72.0,120.0,2.0,0.0
5540,57.0,0.0,120.0,11.0,0.0
5541,57.0,0.0,390.0,13.0,0.0
5542,45.0,48.0,390.0,14.0,0.0
5543,62.0,0.0,120.0,11.0,0.0
5544,55.0,48.0,60.0,2.0,0.0
5545,74.0,72.0,480.0,10.0,0.0
5546,66.0,24.0,120.0,11.0,0.0
5547,54.0,48.0,60.0,2.0,0.0
5548,52.0,48.0,60.0,2.0,0.0
5549,62.0,120.0,120.0,11.0,0.0
5550,50.0,96.0,150.0,2.0,0.0
5551,66.0,24.0,120.0,11.0,0.0
5552,62.0,0.0,120.0,11.0,0.0
5553,76.0,48.0,60.0,0.0,0.0
5554,69.0,168.0,180.0,10.0,0.0
5555,66.0,72.0,120.0,11.0,0.0
5556,78.0,0.0,60.0,0.0,0.0
5557,62.0,0.0,60.0,11.0,0.0
5558,57.0,72.0,120.0,11.0,0.0
5559,79.0,0.0,120.0,0.0,0.0
5560,67.0,72.0,240.0,10.0,0.0
5561,33.0,0.0,390.0,14.0,0.0
5562,52.0,0.0,1860.0,12.0,0.0
5563,49.0,0.0,1860.0,12.0,0.0
5564,45.0,48.0,390.0,13.0,0.0
5565,78.0,48.0,60.0,0.0,0.0
5566,61.0,0.0,120.0,11.0,0.0
5567,64.0,24.0,120.0,11.0,0.0
5568,79.0,72.0,480.0,10.0,0.0
5569,76.0,48.0,60.0,0.0,0.0
5570,61.0,120.0,120.0,11.0,0.0
5571,74.0,48.0,60.0,0.0,0.0
5572,64.0,24.0,120.0,11.0,0.0
5573,73.0,96.0,150.0,0.0,0.0
5574,61.0,0.0,120.0,11.0,0.0
5575,52.0,48.0,60.0,2.0,0.0
5576,64.0,72.0,120.0,11.0,0.0
5577,76.0,0.0,480.0,10.0,0.0
5578,61.0,0.0,60.0,11.0,0.0
5579,53.0,168.0,60.0,2.0,0.0
5580,57.0,0.0,120.0,11.0,0.0
5581,45.0,0.0,390.0,14.0,0.0
5582,55.0,72.0,120.0,2.0,0.0
5583,57.0,48.0,390.0,13.0,0.0
5584,61.0,72.0,120.0,11.0,0.0
5585,53.0,48.0,60.0,2.0,0.0
5586,52.0,48.0,60.0,2.0,0.0
5587,73.0,0.0,480.0,10.0,0.0
5588,64.0,24.0,120.0,11.0,0.0
5589,61.0,120.0,120.0,11.0,0.0
5590,50.0,48.0,60.0,2.0,0.0
5591,64.0,24.0,120.0,11.0,0.0
5592,49.0,96.0,150.0,2.0,0.0
5593,61.0,72.0,120.0,11.0,0.0
5594,77.0,48.0,60.0,0.0,0.0
5595,67.0,0.0,180.0,10.0,0.0
5596,64.0,72.0,120.0,11.0,0.0
5597,79.0,0.0,60.0,0.0,0.0
5598,61.0,168.0,60.0,11.0,0.0
5599,57.0,0.0,120.0,11.0,0.0
5600,33.0,0.0,390.0,14.0,0.0
5601,81.0,72.0,120.0,0.0,0.0
5602,45.0,48.0,390.0,13.0,0.0
5603,50.0,204.0,1860.0,12.0,0.0
5604,53.0,0.0,1860.0,12.0,0.0
5605,65.0,0.0,240.0,10.0,0.0
5606,79.0,48.0,60.0,0.0,0.0
5607,62.0,72.0,120.0,11.0,0.0
5608,77.0,48.0,60.0,0.0,0.0
5609,65.0,24.0,120.0,11.0,0.0
5610,81.0,0.0,480.0,10.0,0.0
5611,62.0,120.0,120.0,11.0,0.0
5612,76.0,48.0,60.0,0.0,0.0
5613,65.0,24.0,120.0,11.0,0.0
5614,74.0,96.0,150.0,0.0,0.0
5615,62.0,72.0,120.0,11.0,0.0
5616,77.0,72.0,480.0,10.0,0.0
5617,53.0,48.0,60.0,2.0,0.0
5618,65.0,72.0,120.0,11.0,0.0
5619,62.0,0.0,60.0,11.0,0.0
5620,55.0,168.0,60.0,2.0,0.0
5621,57.0,72.0,120.0,11.0,0.0
5622,57.0,0.0,120.0,2.0,0.0
5623,45.0,0.0,390.0,14.0,0.0
5624,57.0,48.0,390.0,13.0,0.0
5625,62.0,0.0,120.0,11.0,0.0
5626,55.0,48.0,60.0,2.0,0.0
5627,65.0,24.0,120.0,11.0,0.0
5628,74.0,120.0,480.0,10.0,0.0
5629,53.0,48.0,60.0,2.0,0.0
5630,62.0,120.0,120.0,11.0,0.0
5631,52.0,48.0,60.0,2.0,0.0
5632,65.0,24.0,120.0,11.0,0.0
5633,50.0,48.0,150.0,2.0,0.0
5634,62.0,48.0,60.0,11.0,0.0
5635,65.0,36.0,150.0,10.0,0.0
5636,41.0,0.0,180.0,14.0,0.0
5637,53.0,0.0,180.0,13.0,0.0
5638,65.0,24.0,120.0,11.0,0.0
5639,62.0,12.0,60.0,11.0,0.0
5640,44.0,0.0,570.0,13.0,0.0
5641,56.0,162.0,150.0,10.0,0.0
5642,59.0,0.0,780.0,4.0,0.0
5643,47.0,0.0,780.0,3.0,0.0
5644,59.0,108.0,780.0,3.0,0.0
5645,71.0,0.0,780.0,4.0,0.0
5646,56.0,0.0,570.0,12.0,0.0
5647,71.0,0.0,780.0,1.0,0.0
5648,65.0,0.0,780.0,1.0,0.0
5649,50.0,0.0,780.0,2.0,0.0
5650,53.0,0.0,780.0,2.0,0.0
5651,32.0,60.0,570.0,14.0,0.0
5652,74.0,0.0,780.0,0.0,0.0
5653,47.0,54.0,390.0,5.0,0.0
5654,56.0,0.0,150.0,11.0,0.0
5655,56.0,0.0,90.0,10.0,0.0
5656,56.0,66.0,90.0,11.0,0.0
5657,56.0,138.0,90.0,11.0,0.0
5658,56.0,0.0,90.0,10.0,0.0
5659,56.0,132.0,150.0,10.0,0.0
5660,56.0,0.0,150.0,11.0,0.0
5661,65.0,240.0,150.0,10.0,0.0
5662,65.0,0.0,150.0,11.0,0.0
5663,62.0,0.0,1740.0,2.0,0.0
5664,59.0,0.0,780.0,3.0,0.0
5665,47.0,54.0,390.0,5.0,0.0
5666,31.0,0.0,570.0,14.0,0.0
5667,53.0,0.0,780.0,2.0,0.0
5668,55.0,0.0,150.0,11.0,0.0
5669,47.0,0.0,780.0,3.0,0.0
5670,55.0,162.0,150.0,10.0,0.0
5671,43.0,60.0,570.0,13.0,0.0
5672,77.0,0.0,780.0,0.0,0.0
5673,55.0,0.0,570.0,12.0,0.0
5674,71.0,0.0,2310.0,1.0,0.0
5675,74.0,0.0,1740.0,1.0,0.0
5676,59.0,108.0,780.0,4.0,0.0
5677,71.0,0.0,780.0,4.0,0.0
5678,55.0,66.0,90.0,10.0,0.0
5679,55.0,0.0,90.0,11.0,0.0
5680,55.0,0.0,90.0,11.0,0.0
5681,55.0,138.0,90.0,10.0,0.0
5682,55.0,0.0,150.0,11.0,0.0
5683,55.0,132.0,150.0,10.0,0.0
5684,65.0,0.0,150.0,11.0,0.0
5685,65.0,240.0,150.0,10.0,0.0
5686,78.0,108.0,780.0,0.0,0.0
5687,54.0,0.0,570.0,12.0,0.0
5688,30.0,0.0,570.0,14.0,0.0
5689,59.0,0.0,780.0,4.0,0.0
5690,71.0,0.0,780.0,4.0,0.0
5691,47.0,0.0,780.0,3.0,0.0
5692,59.0,0.0,780.0,3.0,0.0
5693,42.0,60.0,570.0,13.0,0.0
5694,54.0,0.0,780.0,2.0,0.0
5695,54.0,0.0,150.0,10.0,0.0
5696,47.0,54.0,390.0,5.0,0.0
5697,54.0,162.0,150.0,11.0,0.0
5698,54.0,66.0,90.0,11.0,0.0
5699,54.0,0.0,90.0,10.0,0.0
5700,54.0,0.0,90.0,11.0,0.0
5701,54.0,138.0,90.0,10.0,0.0
5702,54.0,132.0,150.0,11.0,0.0
5703,54.0,0.0,150.0,10.0,0.0
5704,66.0,372.0,150.0,11.0,0.0
5705,66.0,0.0,150.0,10.0,0.0
5706,53.0,0.0,390.0,10.0,0.0
5707,73.0,0.0,300.0,1.0,0.0
5708,59.0,24.0,300.0,3.0,0.0
5709,59.0,0.0,390.0,4.0,0.0
5710,71.0,0.0,300.0,4.0,0.0
5711,80.0,0.0,300.0,0.0,0.0
5712,61.0,0.0,300.0,2.0,0.0
5713,53.0,72.0,300.0,12.0,0.0
5714,29.0,0.0,300.0,14.0,0.0
5715,47.0,0.0,390.0,5.0,0.0
5716,53.0,0.0,300.0,11.0,0.0
5717,47.0,156.0,390.0,3.0,0.0
5718,56.0,0.0,390.0,2.0,0.0
5719,41.0,0.0,300.0,13.0,0.0
5720,82.0,60.0,60.0,10.0,0.0
5721,53.0,48.0,300.0,13.0,0.0
5722,71.0,36.0,390.0,1.0,0.0
5723,59.0,0.0,300.0,3.0,0.0
5724,80.0,0.0,300.0,0.0,0.0
5725,65.0,0.0,300.0,12.0,0.0
5726,53.0,0.0,300.0,2.0,0.0
5727,61.0,12.0,300.0,3.0,0.0
5728,73.0,0.0,300.0,11.0,0.0
5729,71.0,0.0,300.0,11.0,0.0
5730,41.0,0.0,300.0,14.0,0.0
5731,73.0,0.0,300.0,1.0,0.0
5732,80.0,60.0,60.0,10.0,0.0
5733,82.0,60.0,60.0,10.0,0.0
5734,80.0,48.0,60.0,10.0,0.0
5735,82.0,12.0,60.0,10.0,0.0
5736,80.0,24.0,60.0,10.0,0.0
5737,78.0,48.0,60.0,10.0,0.0
5738,80.0,300.0,40.0,10.0,0.0
5739,82.0,0.0,390.0,10.0,0.0
5740,54.0,0.0,300.0,2.0,0.0
5741,54.0,0.0,390.0,4.0,0.0
5742,82.0,0.0,300.0,0.0,0.0
5743,61.0,0.0,300.0,3.0,0.0
5744,54.0,24.0,300.0,3.0,0.0
5745,42.0,0.0,300.0,14.0,0.0
5746,66.0,0.0,300.0,12.0,0.0
5747,54.0,72.0,300.0,13.0,0.0
5748,73.0,0.0,300.0,11.0,0.0
5749,70.0,0.0,300.0,11.0,0.0
5750,42.0,240.0,390.0,5.0,0.0
5751,66.0,0.0,390.0,4.0,0.0
5752,70.0,0.0,390.0,1.0,0.0
5753,73.0,0.0,300.0,1.0,0.0
5754,70.0,0.0,150.0,11.0,0.0
5755,63.0,0.0,150.0,3.0,0.0
5756,54.0,0.0,150.0,3.0,0.0
5757,39.0,0.0,150.0,14.0,0.0
5758,63.0,0.0,150.0,12.0,0.0
5759,51.0,0.0,150.0,2.0,0.0
5760,70.0,12.0,150.0,1.0,0.0
5761,66.0,0.0,150.0,1.0,0.0
5762,78.0,0.0,150.0,0.0,0.0
5763,78.0,228.0,150.0,10.0,0.0
5764,51.0,0.0,150.0,13.0,0.0
5765,63.0,0.0,150.0,12.0,0.0
5766,66.0,0.0,150.0,1.0,0.0
5767,70.0,0.0,150.0,1.0,0.0
5768,78.0,0.0,150.0,10.0,0.0
5769,78.0,0.0,150.0,0.0,0.0
5770,51.0,0.0,150.0,13.0,0.0
5771,54.0,0.0,150.0,3.0,0.0
5772,63.0,12.0,150.0,3.0,0.0
5773,51.0,0.0,150.0,2.0,0.0
5774,70.0,228.0,150.0,11.0,0.0
5775,39.0,0.0,150.0,14.0,0.0
5776,35.0,0.0,150.0,14.0,0.0
5777,80.0,0.0,150.0,0.0,0.0
5778,59.0,228.0,150.0,12.0,0.0
5779,47.0,0.0,150.0,13.0,0.0
5780,80.0,0.0,150.0,10.0,0.0
5781,68.0,0.0,150.0,1.0,0.0
5782,59.0,0.0,150.0,3.0,0.0
5783,71.0,0.0,150.0,11.0,0.0
5784,63.0,0.0,150.0,3.0,0.0
5785,47.0,12.0,150.0,2.0,0.0
5786,71.0,0.0,150.0,1.0,0.0
5787,80.0,0.0,150.0,0.0,0.0
5788,80.0,0.0,150.0,10.0,0.0
5789,47.0,0.0,150.0,13.0,0.0
5790,68.0,12.0,150.0,1.0,0.0
5791,71.0,0.0,150.0,1.0,0.0
5792,71.0,0.0,150.0,11.0,0.0
5793,47.0,0.0,150.0,2.0,0.0
5794,59.0,0.0,150.0,3.0,0.0
5795,63.0,0.0,150.0,3.0,0.0
5796,59.0,228.0,150.0,12.0,0.0
5797,35.0,0.0,150.0,14.0,0.0
5798,68.0,0.0,150.0,1.0,0.0
5799,65.0,0.0,150.0,1.0,0.0
5800,61.0,228.0,150.0,12.0,0.0
5801,77.0,0.0,150.0,0.0,0.0
5802,68.0,0.0,150.0,11.0,0.0
5803,61.0,0.0,150.0,3.0,0.0
5804,37.0,0.0,150.0,14.0,0.0
5805,77.0,0.0,150.0,10.0,0.0
5806,49.0,12.0,150.0,2.0,0.0
5807,49.0,0.0,150.0,13.0,0.0
5808,49.0,0.0,150.0,2.0,0.0
5809,65.0,0.0,150.0,1.0,0.0
5810,61.0,0.0,150.0,3.0,0.0
5811,37.0,0.0,150.0,14.0,0.0
5812,68.0,0.0,150.0,1.0,0.0
5813,77.0,0.0,150.0,10.0,0.0
5814,61.0,0.0,150.0,12.0,0.0
5815,68.0,180.0,150.0,11.0,0.0
5816,77.0,12.0,150.0,0.0,0.0
5817,49.0,0.0,150.0,13.0,0.0
5818,54.0,72.0,390.0,4.0,0.0
5819,30.0,60.0,150.0,14.0,0.0
5820,42.0,0.0,150.0,13.0,0.0
5821,66.0,0.0,390.0,4.0,0.0
5822,42.0,0.0,390.0,5.0,0.0
5823,78.0,0.0,150.0,0.0,0.0
5824,42.0,0.0,150.0,2.0,0.0
5825,78.0,0.0,150.0,10.0,0.0
5826,54.0,12.0,150.0,3.0,0.0
5827,54.0,0.0,150.0,12.0,0.0
5828,78.0,48.0,90.0,11.0,0.0
5829,66.0,0.0,90.0,11.0,0.0
5830,66.0,0.0,150.0,1.0,0.0
5831,66.0,0.0,90.0,11.0,0.0
5832,78.0,120.0,90.0,11.0,0.0
5833,82.0,0.0,480.0,0.0,0.0
5834,66.0,0.0,90.0,11.0,0.0
5835,46.0,0.0,480.0,2.0,0.0
5836,70.0,0.0,480.0,1.0,0.0
5837,78.0,48.0,90.0,11.0,0.0
5838,42.0,0.0,150.0,3.0,0.0
5839,54.0,0.0,150.0,3.0,0.0
5840,46.0,96.0,480.0,13.0,0.0
5841,34.0,0.0,480.0,14.0,0.0
5842,46.0,0.0,480.0,12.0,0.0
5843,58.0,0.0,480.0,10.0,0.0
5844,66.0,120.0,90.0,11.0,0.0
5845,78.0,0.0,90.0,11.0,0.0
5846,42.0,72.0,150.0,3.0,0.0
5847,54.0,0.0,150.0,3.0,0.0
5848,78.0,0.0,90.0,11.0,0.0
5849,66.0,48.0,90.0,11.0,0.0
5850,78.0,24.0,90.0,11.0,0.0
5851,66.0,0.0,90.0,11.0,0.0
5852,47.0,0.0,180.0,13.0,0.0
5853,47.0,0.0,180.0,12.0,0.0
5854,71.0,0.0,180.0,1.0,0.0
5855,83.0,0.0,180.0,0.0,0.0
5856,54.0,0.0,150.0,3.0,0.0
5857,42.0,48.0,150.0,3.0,0.0
5858,59.0,24.0,180.0,10.0,0.0
5859,47.0,0.0,180.0,2.0,0.0
5860,35.0,0.0,180.0,14.0,0.0
5861,78.0,48.0,90.0,11.0,0.0
5862,66.0,0.0,90.0,11.0,0.0
5863,66.0,0.0,90.0,11.0,0.0
5864,78.0,120.0,90.0,11.0,0.0
5865,54.0,0.0,390.0,4.0,0.0
5866,78.0,48.0,150.0,10.0,0.0
5867,66.0,0.0,390.0,4.0,0.0
5868,54.0,24.0,180.0,3.0,0.0
5869,78.0,0.0,90.0,11.0,0.0
5870,42.0,48.0,390.0,5.0,0.0
5871,66.0,48.0,90.0,11.0,0.0
5872,42.0,0.0,180.0,3.0,0.0
5873,66.0,120.0,90.0,11.0,0.0
5874,78.0,0.0,90.0,11.0,0.0
5875,48.0,0.0,480.0,2.0,0.0
5876,36.0,0.0,480.0,14.0,0.0
5877,66.0,0.0,90.0,11.0,0.0
5878,48.0,0.0,480.0,12.0,0.0
5879,84.0,96.0,480.0,0.0,0.0
5880,78.0,48.0,90.0,11.0,0.0
5881,72.0,0.0,480.0,1.0,0.0
5882,54.0,0.0,180.0,3.0,0.0
5883,42.0,24.0,180.0,3.0,0.0
5884,60.0,0.0,480.0,10.0,0.0
5885,48.0,0.0,480.0,13.0,0.0
5886,66.0,120.0,90.0,11.0,0.0
5887,78.0,0.0,90.0,11.0,0.0
5888,78.0,0.0,90.0,11.0,0.0
5889,66.0,96.0,90.0,11.0,0.0
5890,54.0,0.0,180.0,3.0,0.0
5891,42.0,24.0,180.0,3.0,0.0
5892,66.0,0.0,90.0,11.0,0.0
5893,78.0,24.0,90.0,11.0,0.0
5894,61.0,0.0,180.0,10.0,0.0
5895,49.0,0.0,180.0,12.0,0.0
5896,49.0,0.0,180.0,2.0,0.0
5897,37.0,24.0,180.0,14.0,0.0
5898,49.0,0.0,180.0,13.0,0.0
5899,73.0,0.0,180.0,1.0,0.0
5900,42.0,0.0,180.0,3.0,0.0
5901,54.0,0.0,180.0,3.0,0.0
5902,85.0,0.0,180.0,0.0,0.0
5903,78.0,96.0,90.0,11.0,0.0
5904,66.0,0.0,90.0,11.0,0.0
5905,78.0,0.0,90.0,11.0,0.0
5906,66.0,120.0,90.0,11.0,0.0
5907,78.0,48.0,150.0,10.0,0.0
5908,54.0,48.0,390.0,4.0,0.0
5909,78.0,0.0,90.0,11.0,0.0
5910,66.0,48.0,90.0,11.0,0.0
5911,66.0,0.0,390.0,4.0,0.0
5912,42.0,24.0,180.0,3.0,0.0
5913,54.0,0.0,180.0,3.0,0.0
5914,42.0,0.0,390.0,5.0,0.0
5915,78.0,0.0,90.0,11.0,0.0
5916,66.0,120.0,90.0,11.0,0.0
5917,42.0,0.0,180.0,3.0,0.0
5918,74.0,0.0,480.0,1.0,0.0
5919,50.0,0.0,480.0,13.0,0.0
5920,66.0,48.0,90.0,11.0,0.0
5921,78.0,0.0,90.0,11.0,0.0
5922,86.0,0.0,480.0,0.0,0.0
5923,50.0,0.0,480.0,2.0,0.0
5924,50.0,96.0,480.0,12.0,0.0
5925,62.0,0.0,480.0,10.0,0.0
5926,38.0,0.0,480.0,14.0,0.0
5927,54.0,24.0,180.0,3.0,0.0
5928,66.0,0.0,90.0,11.0,0.0
5929,78.0,120.0,90.0,11.0,0.0
5930,42.0,0.0,180.0,3.0,0.0
5931,54.0,24.0,180.0,3.0,0.0
5932,78.0,96.0,90.0,11.0,0.0
5933,66.0,0.0,90.0,11.0,0.0
5934,78.0,0.0,90.0,11.0,0.0
5935,66.0,24.0,90.0,11.0,0.0
5936,51.0,0.0,180.0,13.0,0.0
5937,42.0,0.0,180.0,3.0,0.0
5938,54.0,0.0,180.0,3.0,0.0
5939,78.0,96.0,90.0,11.0,0.0
5940,66.0,0.0,90.0,11.0,0.0
5941,51.0,24.0,180.0,2.0,0.0
5942,39.0,0.0,180.0,14.0,0.0
5943,75.0,0.0,180.0,1.0,0.0
5944,63.0,0.0,180.0,10.0,0.0
5945,87.0,0.0,180.0,0.0,0.0
5946,51.0,0.0,180.0,12.0,0.0
5947,78.0,0.0,90.0,11.0,0.0
5948,66.0,180.0,90.0,11.0,0.0
5949,42.0,0.0,390.0,5.0,0.0
5950,78.0,0.0,150.0,11.0,0.0
5951,52.0,0.0,150.0,12.0,0.0
5952,66.0,0.0,150.0,11.0,0.0
5953,76.0,0.0,390.0,1.0,0.0
5954,40.0,0.0,150.0,14.0,0.0
5955,64.0,0.0,150.0,10.0,0.0
5956,52.0,162.0,150.0,13.0,0.0
5957,52.0,0.0,390.0,2.0,0.0
5958,54.0,0.0,390.0,3.0,0.0
5959,66.0,0.0,390.0,4.0,0.0
5960,54.0,0.0,390.0,4.0,0.0
5961,88.0,0.0,390.0,0.0,0.0
5962,42.0,54.0,390.0,3.0,0.0
5963,52.0,0.0,90.0,10.0,0.0
5964,52.0,0.0,90.0,12.0,0.0
5965,28.0,0.0,90.0,14.0,0.0
5966,40.0,0.0,90.0,13.0,0.0
5967,66.0,0.0,90.0,11.0,0.0
5968,58.0,66.0,90.0,11.0,0.0
5969,52.0,0.0,90.0,12.0,0.0
5970,66.0,0.0,90.0,11.0,0.0
5971,58.0,198.0,90.0,11.0,0.0
5972,28.0,0.0,90.0,14.0,0.0
5973,40.0,0.0,90.0,13.0,0.0
5974,52.0,0.0,90.0,10.0,0.0
5975,42.0,0.0,300.0,5.0,0.0
5976,66.0,0.0,150.0,11.0,0.0
5977,58.0,0.0,150.0,11.0,0.0
5978,52.0,0.0,150.0,10.0,0.0
5979,58.0,0.0,390.0,2.0,0.0
5980,66.0,0.0,300.0,4.0,0.0
5981,54.0,0.0,300.0,4.0,0.0
5982,52.0,0.0,150.0,12.0,0.0
5983,40.0,132.0,150.0,13.0,0.0
5984,49.0,0.0,390.0,2.0,0.0
5985,54.0,0.0,300.0,3.0,0.0
5986,82.0,0.0,390.0,0.0,0.0
5987,70.0,12.0,390.0,1.0,0.0
5988,73.0,0.0,390.0,1.0,0.0
5989,28.0,0.0,150.0,14.0,0.0
5990,42.0,96.0,300.0,3.0,0.0
5991,28.0,60.0,150.0,14.0,0.0
5992,40.0,0.0,150.0,13.0,0.0
5993,58.0,0.0,150.0,11.0,0.0
5994,66.0,0.0,150.0,11.0,0.0
5995,52.0,0.0,150.0,12.0,0.0
5996,52.0,0.0,150.0,10.0,0.0
5997,54.0,0.0,90.0,4.0,0.0
5998,54.0,0.0,90.0,3.0,0.0
5999,42.0,0.0,90.0,3.0,0.0
6000,42.0,180.0,90.0,5.0,0.0
6001,66.0,0.0,90.0,4.0,0.0
6002,66.0,0.0,390.0,4.0,0.0
6003,39.0,0.0,150.0,13.0,0.0
6004,42.0,54.0,390.0,5.0,0.0
6005,59.0,0.0,150.0,11.0,0.0
6006,66.0,0.0,150.0,11.0,0.0
6007,51.0,0.0,150.0,10.0,0.0
6008,27.0,0.0,150.0,14.0,0.0
6009,54.0,0.0,390.0,3.0,0.0
6010,54.0,0.0,390.0,4.0,0.0
6011,71.0,108.0,780.0,1.0,0.0
6012,75.0,0.0,780.0,1.0,0.0
6013,51.0,162.0,150.0,12.0,0.0
6014,42.0,0.0,390.0,3.0,0.0
6015,83.0,0.0,780.0,0.0,0.0
6016,51.0,0.0,780.0,2.0,0.0
6017,59.0,0.0,780.0,2.0,0.0
6018,39.0,66.0,90.0,14.0,0.0
6019,51.0,0.0,90.0,13.0,0.0
6020,71.0,0.0,90.0,11.0,0.0
6021,78.0,0.0,90.0,10.0,0.0
6022,63.0,0.0,90.0,12.0,0.0
6023,51.0,0.0,90.0,13.0,0.0
6024,71.0,198.0,90.0,11.0,0.0
6025,63.0,0.0,90.0,12.0,0.0
6026,78.0,0.0,90.0,10.0,0.0
6027,39.0,0.0,90.0,14.0,0.0
6028,51.0,132.0,150.0,13.0,0.0
6029,63.0,0.0,150.0,12.0,0.0
6030,42.0,0.0,300.0,3.0,0.0
6031,39.0,0.0,150.0,14.0,0.0
6032,42.0,0.0,300.0,5.0,0.0
6033,54.0,0.0,300.0,4.0,0.0
6034,78.0,0.0,150.0,10.0,0.0
6035,54.0,0.0,300.0,3.0,0.0
6036,71.0,0.0,150.0,11.0,0.0
6037,66.0,0.0,300.0,4.0,0.0
6038,78.0,0.0,150.0,10.0,0.0
6039,39.0,60.0,150.0,14.0,0.0
6040,63.0,0.0,150.0,12.0,0.0
6041,51.0,0.0,150.0,13.0,0.0
6042,71.0,0.0,150.0,11.0,0.0
6043,54.0,0.0,90.0,3.0,0.0
6044,42.0,0.0,90.0,3.0,0.0
6045,66.0,0.0,90.0,4.0,0.0
6046,42.0,180.0,90.0,5.0,0.0
6047,54.0,0.0,90.0,4.0,0.0
6048,57.0,0.0,780.0,2.0,0.0
6049,78.0,162.0,150.0,10.0,0.0
6050,38.0,0.0,150.0,14.0,0.0
6051,69.0,0.0,780.0,1.0,0.0
6052,72.0,0.0,780.0,1.0,0.0
6053,72.0,0.0,150.0,11.0,0.0
6054,42.0,54.0,390.0,5.0,0.0
6055,60.0,0.0,780.0,2.0,0.0
6056,62.0,0.0,150.0,12.0,0.0
6057,66.0,0.0,390.0,4.0,0.0
6058,54.0,0.0,390.0,4.0,0.0
6059,42.0,0.0,390.0,3.0,0.0
6060,54.0,0.0,390.0,3.0,0.0
6061,50.0,0.0,150.0,13.0,0.0
6062,84.0,96.0,780.0,0.0,0.0
6063,38.0,0.0,90.0,14.0,0.0
6064,62.0,0.0,90.0,12.0,0.0
6065,81.0,0.0,90.0,10.0,0.0
6066,50.0,66.0,90.0,13.0,0.0
6067,78.0,0.0,90.0,11.0,0.0
6068,81.0,0.0,90.0,10.0,0.0
6069,78.0,198.0,90.0,11.0,0.0
6070,62.0,0.0,90.0,12.0,0.0
6071,50.0,0.0,90.0,13.0,0.0
6072,38.0,0.0,90.0,14.0,0.0
6073,38.0,0.0,150.0,14.0,0.0
6074,78.0,0.0,150.0,11.0,0.0
6075,42.0,0.0,390.0,5.0,0.0
6076,50.0,0.0,150.0,13.0,0.0
6077,54.0,0.0,390.0,3.0,0.0
6078,81.0,132.0,150.0,10.0,0.0
6079,62.0,0.0,150.0,12.0,0.0
6080,66.0,0.0,390.0,4.0,0.0
6081,54.0,0.0,390.0,4.0,0.0
6082,42.0,12.0,390.0,3.0,0.0
6083,38.0,0.0,150.0,14.0,0.0
6084,81.0,0.0,150.0,10.0,0.0
6085,62.0,0.0,150.0,12.0,0.0
6086,78.0,0.0,150.0,11.0,0.0
6087,50.0,132.0,150.0,13.0,0.0
6088,61.0,0.0,150.0,2.0,0.0
6089,37.0,0.0,150.0,14.0,0.0
6090,78.0,0.0,120.0,11.0,0.0
6091,73.0,0.0,150.0,1.0,0.0
6092,70.0,0.0,150.0,1.0,0.0
6093,58.0,0.0,150.0,2.0,0.0
6094,85.0,0.0,150.0,0.0,0.0
6095,49.0,0.0,150.0,13.0,0.0
6096,61.0,12.0,150.0,12.0,0.0
6097,42.0,0.0,180.0,3.0,0.0
6098,54.0,0.0,180.0,3.0,0.0
6099,66.0,36.0,180.0,4.0,0.0
6100,54.0,0.0,180.0,4.0,0.0
6101,42.0,60.0,40.0,5.0,0.0
6102,82.0,36.0,120.0,10.0,0.0
6103,42.0,12.0,40.0,5.0,0.0
6104,42.0,24.0,40.0,5.0,0.0
6105,81.0,48.0,120.0,10.0,0.0
6106,77.0,0.0,120.0,11.0,0.0
6107,42.0,12.0,40.0,5.0,0.0
6108,73.0,0.0,150.0,1.0,0.0
6109,66.0,0.0,180.0,4.0,0.0
6110,61.0,0.0,150.0,2.0,0.0
6111,58.0,0.0,150.0,2.0,0.0
6112,54.0,0.0,150.0,13.0,0.0
6113,70.0,0.0,150.0,1.0,0.0
6114,42.0,12.0,150.0,14.0,0.0
6115,42.0,0.0,180.0,3.0,0.0
6116,54.0,0.0,180.0,3.0,0.0
6117,66.0,0.0,150.0,12.0,0.0
6118,54.0,36.0,180.0,4.0,0.0
6119,82.0,36.0,120.0,10.0,0.0
6120,85.0,0.0,150.0,0.0,0.0
6121,78.0,0.0,120.0,11.0,0.0
6122,42.0,60.0,40.0,5.0,0.0
6123,42.0,12.0,40.0,5.0,0.0
6124,77.0,48.0,120.0,11.0,0.0
6125,81.0,0.0,120.0,10.0,0.0
6126,42.0,24.0,40.0,5.0,0.0
6127,42.0,12.0,40.0,5.0,0.0
6128,58.0,0.0,150.0,2.0,0.0
6129,42.0,36.0,180.0,3.0,0.0
6130,54.0,0.0,180.0,3.0,0.0
6131,70.0,12.0,150.0,12.0,0.0
6132,78.0,36.0,120.0,11.0,0.0
6133,54.0,0.0,180.0,4.0,0.0
6134,73.0,0.0,150.0,1.0,0.0
6135,70.0,0.0,150.0,1.0,0.0
6136,66.0,0.0,180.0,4.0,0.0
6137,58.0,0.0,150.0,13.0,0.0
6138,82.0,0.0,120.0,10.0,0.0
6139,85.0,0.0,150.0,0.0,0.0
6140,61.0,0.0,150.0,2.0,0.0
6141,42.0,60.0,40.0,5.0,0.0
6142,46.0,0.0,150.0,14.0,0.0
6143,42.0,12.0,40.0,5.0,0.0
6144,42.0,24.0,40.0,5.0,0.0
6145,77.0,0.0,120.0,11.0,0.0
6146,81.0,48.0,120.0,10.0,0.0
6147,42.0,12.0,40.0,5.0,0.0
6148,42.0,60.0,40.0,5.0,0.0
6149,58.0,0.0,150.0,2.0,0.0
6150,61.0,0.0,150.0,13.0,0.0
6151,73.0,0.0,150.0,1.0,0.0
6152,49.0,0.0,150.0,14.0,0.0
6153,78.0,36.0,120.0,11.0,0.0
6154,66.0,12.0,150.0,12.0,0.0
6155,70.0,0.0,150.0,1.0,0.0
6156,61.0,0.0,150.0,2.0,0.0
6157,85.0,0.0,150.0,0.0,0.0
6158,42.0,0.0,180.0,3.0,0.0
6159,66.0,0.0,180.0,4.0,0.0
6160,54.0,24.0,180.0,4.0,0.0
6161,54.0,0.0,180.0,3.0,0.0
6162,82.0,0.0,120.0,10.0,0.0
6163,42.0,12.0,40.0,5.0,0.0
6164,81.0,0.0,90.0,10.0,0.0
6165,77.0,12.0,90.0,11.0,0.0
6166,42.0,24.0,40.0,5.0,0.0
6167,42.0,60.0,40.0,5.0,0.0
6168,61.0,0.0,150.0,12.0,0.0
6169,42.0,0.0,180.0,3.0,0.0
6170,70.0,0.0,150.0,1.0,0.0
6171,73.0,0.0,150.0,1.0,0.0
6172,66.0,0.0,180.0,4.0,0.0
6173,54.0,36.0,180.0,4.0,0.0
6174,82.0,0.0,120.0,10.0,0.0
6175,37.0,0.0,150.0,14.0,0.0
6176,85.0,0.0,150.0,0.0,0.0
6177,78.0,36.0,120.0,11.0,0.0
6178,54.0,0.0,180.0,3.0,0.0
6179,58.0,0.0,150.0,2.0,0.0
6180,61.0,0.0,150.0,2.0,0.0
6181,49.0,12.0,150.0,13.0,0.0
6182,42.0,60.0,40.0,5.0,0.0
6183,42.0,12.0,40.0,5.0,0.0
6184,42.0,24.0,40.0,5.0,0.0
6185,81.0,0.0,120.0,10.0,0.0
6186,77.0,48.0,120.0,11.0,0.0
6187,42.0,12.0,40.0,5.0,0.0
6188,54.0,0.0,180.0,3.0,0.0
6189,42.0,0.0,180.0,3.0,0.0
6190,85.0,0.0,150.0,0.0,0.0
6191,66.0,0.0,150.0,12.0,0.0
6192,66.0,0.0,180.0,4.0,0.0
6193,54.0,36.0,180.0,4.0,0.0
6194,54.0,12.0,150.0,13.0,0.0
6195,78.0,36.0,120.0,11.0,0.0
6196,70.0,0.0,150.0,1.0,0.0
6197,73.0,0.0,150.0,1.0,0.0
6198,42.0,0.0,150.0,14.0,0.0
6199,61.0,0.0,150.0,2.0,0.0
6200,58.0,0.0,150.0,2.0,0.0
6201,42.0,60.0,40.0,5.0,0.0
6202,82.0,0.0,120.0,10.0,0.0
6203,42.0,12.0,40.0,5.0,0.0
6204,81.0,0.0,120.0,10.0,0.0
6205,42.0,24.0,40.0,5.0,0.0
6206,77.0,48.0,120.0,11.0,0.0
6207,42.0,12.0,40.0,5.0,0.0
6208,82.0,0.0,120.0,10.0,0.0
6209,66.0,0.0,180.0,4.0,0.0
6210,61.0,0.0,150.0,2.0,0.0
6211,54.0,0.0,180.0,4.0,0.0
6212,58.0,0.0,150.0,2.0,0.0
6213,73.0,0.0,150.0,1.0,0.0
6214,70.0,0.0,150.0,1.0,0.0
6215,70.0,0.0,150.0,12.0,0.0
6216,42.0,60.0,40.0,5.0,0.0
6217,78.0,36.0,120.0,11.0,0.0
6218,46.0,0.0,150.0,14.0,0.0
6219,58.0,0.0,150.0,13.0,0.0
6220,85.0,12.0,150.0,0.0,0.0
6221,54.0,0.0,180.0,3.0,0.0
6222,42.0,36.0,180.0,3.0,0.0
6223,42.0,12.0,40.0,5.0,0.0
6224,81.0,48.0,120.0,10.0,0.0
6225,42.0,24.0,40.0,5.0,0.0
6226,77.0,0.0,120.0,11.0,0.0
6227,42.0,12.0,40.0,5.0,0.0
6228,54.0,0.0,180.0,3.0,0.0
6229,42.0,24.0,180.0,3.0,0.0
6230,85.0,0.0,150.0,0.0,0.0
6231,78.0,36.0,120.0,11.0,0.0
6232,61.0,0.0,150.0,13.0,0.0
6233,49.0,0.0,150.0,14.0,0.0
6234,58.0,12.0,150.0,2.0,0.0
6235,61.0,0.0,150.0,2.0,0.0
6236,82.0,0.0,120.0,10.0,0.0
6237,42.0,60.0,40.0,5.0,0.0
6238,73.0,0.0,150.0,1.0,0.0
6239,66.0,0.0,150.0,12.0,0.0
6240,70.0,0.0,150.0,1.0,0.0
6241,66.0,0.0,180.0,4.0,0.0
6242,54.0,0.0,180.0,4.0,0.0
6243,42.0,12.0,40.0,5.0,0.0
6244,81.0,12.0,90.0,10.0,0.0
6245,77.0,0.0,90.0,11.0,0.0
6246,42.0,24.0,40.0,5.0,0.0
6247,42.0,108.0,40.0,5.0,0.0
6248,66.0,0.0,390.0,4.0,0.0
6249,54.0,0.0,390.0,4.0,0.0
6250,37.0,72.0,390.0,14.0,0.0
6251,49.0,0.0,390.0,13.0,0.0
6252,78.0,120.0,90.0,11.0,0.0
6253,58.0,0.0,390.0,2.0,0.0
6254,42.0,0.0,390.0,5.0,0.0
6255,73.0,0.0,390.0,1.0,0.0
6256,61.0,0.0,390.0,12.0,0.0
6257,54.0,0.0,390.0,3.0,0.0
6258,61.0,0.0,390.0,2.0,0.0
6259,85.0,0.0,390.0,0.0,0.0
6260,82.0,0.0,90.0,10.0,0.0
6261,70.0,0.0,390.0,1.0,0.0
6262,42.0,0.0,390.0,3.0,0.0
6263,80.0,120.0,90.0,10.0,0.0
6264,77.0,0.0,90.0,11.0,0.0
6265,75.0,48.0,90.0,11.0,0.0
6266,78.0,0.0,90.0,10.0,0.0
6267,73.0,120.0,90.0,11.0,0.0
6268,77.0,0.0,90.0,10.0,0.0
6269,75.0,0.0,90.0,10.0,0.0
6270,71.0,120.0,90.0,11.0,0.0
6271,73.0,0.0,90.0,10.0,0.0
6272,70.0,120.0,90.0,11.0,0.0
6273,71.0,0.0,90.0,10.0,0.0
6274,68.0,120.0,90.0,11.0,0.0
6275,70.0,0.0,90.0,10.0,0.0
6276,66.0,120.0,90.0,11.0,0.0
6277,42.0,0.0,390.0,5.0,0.0
6278,61.0,0.0,390.0,12.0,0.0
6279,42.0,0.0,390.0,3.0,0.0
6280,73.0,0.0,390.0,1.0,0.0
6281,82.0,120.0,90.0,10.0,0.0
6282,49.0,0.0,390.0,13.0,0.0
6283,54.0,0.0,390.0,3.0,0.0
6284,70.0,0.0,390.0,1.0,0.0
6285,61.0,72.0,390.0,2.0,0.0
6286,66.0,0.0,390.0,4.0,0.0
6287,37.0,0.0,390.0,14.0,0.0
6288,54.0,0.0,390.0,4.0,0.0
6289,58.0,0.0,390.0,2.0,0.0
6290,78.0,0.0,90.0,11.0,0.0
6291,85.0,0.0,390.0,0.0,0.0
6292,77.0,120.0,90.0,11.0,0.0
6293,80.0,0.0,90.0,10.0,0.0
6294,78.0,48.0,90.0,10.0,0.0
6295,75.0,0.0,90.0,11.0,0.0
6296,77.0,0.0,90.0,10.0,0.0
6297,73.0,120.0,90.0,11.0,0.0
6298,75.0,120.0,90.0,10.0,0.0
6299,71.0,0.0,90.0,11.0,0.0
6300,70.0,0.0,90.0,11.0,0.0
6301,73.0,120.0,90.0,10.0,0.0
6302,68.0,120.0,90.0,11.0,0.0
6303,71.0,0.0,90.0,10.0,0.0
6304,70.0,0.0,90.0,10.0,0.0
6305,66.0,408.0,90.0,11.0,0.0
6306,37.0,0.0,390.0,14.0,0.0
6307,85.0,0.0,390.0,0.0,0.0
6308,54.0,0.0,390.0,3.0,0.0
6309,42.0,0.0,390.0,3.0,0.0
6310,61.0,0.0,390.0,2.0,0.0
6311,78.0,0.0,390.0,11.0,0.0
6312,82.0,0.0,390.0,10.0,0.0
6313,54.0,0.0,390.0,4.0,0.0
6314,66.0,0.0,390.0,4.0,0.0
6315,42.0,0.0,390.0,5.0,0.0
6316,49.0,0.0,390.0,13.0,0.0
6317,61.0,1368.0,390.0,12.0,0.0
6318,70.0,0.0,390.0,1.0,0.0
6319,73.0,0.0,390.0,1.0,0.0
6320,58.0,0.0,390.0,2.0,0.0
6321,59.0,0.0,960.0,11.0,0.0
6322,37.0,0.0,960.0,14.0,0.0
6323,49.0,120.0,960.0,13.0,0.0
6324,56.0,0.0,960.0,12.0,0.0
6325,65.0,0.0,960.0,10.0,0.0
6326,70.0,120.0,60.0,1.0,0.0
6327,71.0,48.0,60.0,1.0,0.0
6328,73.0,72.0,120.0,1.0,0.0
6329,58.0,0.0,960.0,11.0,0.0
6330,61.0,0.0,960.0,12.0,0.0
6331,67.0,120.0,960.0,10.0,0.0
6332,39.0,0.0,960.0,14.0,0.0
6333,51.0,0.0,960.0,13.0,0.0
6334,63.0,0.0,1860.0,3.0,0.0
6335,71.0,120.0,60.0,1.0,0.0
6336,70.0,120.0,60.0,1.0,0.0
6337,68.0,192.0,60.0,1.0,0.0
6338,67.0,168.0,150.0,1.0,0.0
6339,59.0,0.0,60.0,2.0,0.0
6340,71.0,120.0,60.0,0.0,0.0
6341,61.0,0.0,60.0,2.0,0.0
6342,73.0,48.0,60.0,0.0,0.0
6343,56.0,0.0,1920.0,11.0,0.0
6344,44.0,0.0,960.0,13.0,0.0
6345,75.0,72.0,120.0,0.0,0.0
6346,32.0,120.0,960.0,14.0,0.0
6347,63.0,0.0,120.0,2.0,0.0
6348,59.0,0.0,1920.0,12.0,0.0
6349,68.0,0.0,960.0,10.0,0.0
6350,61.0,120.0,60.0,2.0,0.0
6351,73.0,0.0,60.0,0.0,0.0
6352,59.0,120.0,60.0,2.0,0.0
6353,71.0,0.0,60.0,0.0,0.0
6354,58.0,0.0,60.0,2.0,0.0
6355,70.0,192.0,60.0,0.0,0.0
6356,56.0,0.0,150.0,2.0,0.0
6357,68.0,168.0,150.0,0.0,0.0
6358,68.0,0.0,60.0,1.0,0.0
6359,56.0,120.0,60.0,2.0,0.0
6360,70.0,48.0,60.0,1.0,0.0
6361,58.0,0.0,60.0,2.0,0.0
6362,59.0,0.0,120.0,2.0,0.0
6363,65.0,120.0,960.0,10.0,0.0
6364,61.0,156.0,1410.0,3.0,0.0
6365,71.0,72.0,120.0,1.0,0.0
6366,49.0,0.0,960.0,13.0,0.0
6367,37.0,0.0,960.0,14.0,0.0
6368,70.0,120.0,60.0,1.0,0.0
6369,58.0,0.0,60.0,2.0,0.0
6370,56.0,120.0,60.0,2.0,0.0
6371,68.0,0.0,60.0,1.0,0.0
6372,54.0,192.0,60.0,2.0,0.0
6373,66.0,0.0,60.0,1.0,0.0
6374,53.0,0.0,150.0,2.0,0.0
6375,65.0,168.0,150.0,1.0,0.0
6376,82.0,0.0,60.0,0.0,0.0
6377,70.0,120.0,60.0,1.0,0.0
6378,71.0,0.0,60.0,1.0,0.0
6379,83.0,48.0,60.0,0.0,0.0
6380,85.0,0.0,120.0,0.0,0.0
6381,58.0,0.0,180.0,12.0,0.0
6382,42.0,0.0,180.0,13.0,0.0
6383,30.0,120.0,180.0,14.0,0.0
6384,54.0,0.0,180.0,11.0,0.0
6385,73.0,72.0,120.0,1.0,0.0
6386,66.0,0.0,180.0,10.0,0.0
6387,83.0,0.0,60.0,0.0,0.0
6388,71.0,0.0,60.0,1.0,0.0
6389,82.0,0.0,60.0,0.0,0.0
6390,70.0,120.0,60.0,1.0,0.0
6391,80.0,0.0,60.0,0.0,0.0
6392,68.0,24.0,60.0,1.0,0.0
6393,66.0,0.0,120.0,1.0,0.0
6394,54.0,0.0,180.0,11.0,0.0
6395,39.0,180.0,180.0,14.0,0.0
6396,58.0,0.0,180.0,10.0,0.0
6397,51.0,0.0,180.0,12.0,0.0
6398,78.0,60.0,120.0,0.0,0.0
6399,51.0,0.0,180.0,13.0,0.0
6400,70.0,0.0,120.0,1.0,0.0
6401,82.0,240.0,120.0,0.0,0.0
6402,56.0,0.0,180.0,11.0,0.0
6403,59.0,0.0,180.0,10.0,0.0
6404,51.0,0.0,180.0,12.0,0.0
6405,35.0,0.0,180.0,14.0,0.0
6406,68.0,60.0,120.0,1.0,0.0
6407,47.0,180.0,180.0,13.0,0.0
6408,80.0,0.0,120.0,0.0,0.0
6409,71.0,0.0,120.0,1.0,0.0
6410,83.0,240.0,120.0,0.0,0.0
6411,47.0,0.0,180.0,12.0,0.0
6412,65.0,0.0,120.0,1.0,0.0
6413,53.0,0.0,180.0,11.0,0.0
6414,77.0,60.0,120.0,0.0,0.0
6415,49.0,0.0,180.0,13.0,0.0
6416,37.0,0.0,180.0,14.0,0.0
6417,56.0,180.0,180.0,10.0,0.0
6418,80.0,252.0,120.0,0.0,0.0
6419,68.0,0.0,120.0,1.0,0.0
6420,54.0,48.0,570.0,10.0,0.0
6421,78.0,0.0,390.0,0.0,0.0
6422,46.0,0.0,570.0,12.0,0.0
6423,54.0,0.0,5700.0,3.0,0.0
6424,42.0,24.0,5700.0,3.0,0.0
6425,54.0,0.0,570.0,11.0,0.0
6426,66.0,192.0,390.0,1.0,0.0
6427,30.0,240.0,150.0,14.0,0.0
6428,42.0,0.0,150.0,13.0,0.0
6429,42.0,0.0,150.0,13.0,0.0
6430,30.0,0.0,150.0,14.0,0.0
6431,42.0,0.0,150.0,13.0,0.0
6432,30.0,174.0,150.0,14.0,0.0
6433,42.0,0.0,150.0,13.0,0.0
6434,30.0,54.0,150.0,14.0,0.0
6435,70.0,0.0,90.0,11.0,0.0
6436,58.0,48.0,90.0,12.0,0.0
6437,70.0,18.0,90.0,10.0,0.0
6438,59.0,144.0,90.0,12.0,0.0
6439,71.0,0.0,90.0,11.0,0.0
6440,71.0,18.0,90.0,10.0,0.0
6441,73.0,0.0,120.0,10.0,0.0
6442,30.0,54.0,150.0,14.0,0.0
6443,73.0,0.0,120.0,11.0,0.0
6444,61.0,24.0,120.0,12.0,0.0
6445,42.0,0.0,150.0,13.0,0.0
6446,59.0,102.0,90.0,12.0,0.0
6447,71.0,0.0,90.0,10.0,0.0
6448,71.0,18.0,90.0,11.0,0.0
6449,70.0,18.0,90.0,10.0,0.0
6450,70.0,0.0,90.0,11.0,0.0
6451,30.0,54.0,150.0,14.0,0.0
6452,58.0,48.0,90.0,12.0,0.0
6453,42.0,0.0,150.0,13.0,0.0
6454,68.0,18.0,90.0,10.0,0.0
6455,68.0,0.0,90.0,11.0,0.0
6456,56.0,168.0,90.0,12.0,0.0
6457,30.0,0.0,150.0,14.0,0.0
6458,66.0,36.0,150.0,11.0,0.0
6459,42.0,12.0,150.0,13.0,0.0
6460,66.0,0.0,150.0,10.0,0.0
6461,54.0,126.0,180.0,12.0,0.0
6462,65.0,18.0,90.0,11.0,0.0
6463,30.0,0.0,150.0,14.0,0.0
6464,53.0,48.0,90.0,12.0,0.0
6465,42.0,54.0,150.0,13.0,0.0
6466,65.0,0.0,90.0,10.0,0.0
6467,66.0,0.0,90.0,10.0,0.0
6468,66.0,18.0,90.0,11.0,0.0
6469,54.0,144.0,90.0,12.0,0.0
6470,42.0,54.0,150.0,13.0,0.0
6471,68.0,24.0,120.0,11.0,0.0
6472,68.0,0.0,120.0,10.0,0.0
6473,30.0,0.0,150.0,14.0,0.0
6474,56.0,0.0,120.0,12.0,0.0
6475,66.0,18.0,90.0,10.0,0.0
6476,66.0,0.0,90.0,11.0,0.0
6477,54.0,102.0,90.0,12.0,0.0
6478,52.0,48.0,90.0,12.0,0.0
6479,42.0,54.0,150.0,13.0,0.0
6480,30.0,0.0,150.0,14.0,0.0
6481,65.0,18.0,90.0,11.0,0.0
6482,65.0,0.0,90.0,10.0,0.0
6483,51.0,168.0,90.0,12.0,0.0
6484,63.0,0.0,90.0,11.0,0.0
6485,63.0,18.0,90.0,10.0,0.0
6486,61.0,36.0,150.0,11.0,0.0
6487,30.0,12.0,150.0,14.0,0.0
6488,42.0,0.0,150.0,13.0,0.0
6489,61.0,0.0,150.0,10.0,0.0
6490,49.0,126.0,180.0,12.0,0.0
6491,63.0,0.0,90.0,10.0,0.0
6492,30.0,54.0,150.0,14.0,0.0
6493,42.0,0.0,150.0,13.0,0.0
6494,63.0,18.0,90.0,11.0,0.0
6495,51.0,48.0,90.0,12.0,0.0
6496,65.0,18.0,90.0,10.0,0.0
6497,65.0,0.0,90.0,11.0,0.0
6498,52.0,168.0,90.0,12.0,0.0
6499,66.0,48.0,150.0,10.0,0.0
6500,66.0,0.0,150.0,11.0,0.0
6501,54.0,192.0,180.0,12.0,0.0
6502,30.0,0.0,150.0,14.0,0.0
6503,42.0,0.0,150.0,13.0,0.0
6504,68.0,0.0,150.0,10.0,0.0
6505,53.0,192.0,180.0,12.0,0.0
6506,56.0,0.0,180.0,12.0,0.0
6507,30.0,0.0,150.0,14.0,0.0
6508,42.0,0.0,150.0,13.0,0.0
6509,65.0,48.0,150.0,11.0,0.0
6510,66.0,48.0,150.0,11.0,0.0
6511,42.0,0.0,150.0,13.0,0.0
6512,30.0,0.0,150.0,14.0,0.0
6513,70.0,0.0,150.0,10.0,0.0
6514,58.0,0.0,180.0,12.0,0.0
6515,54.0,192.0,180.0,12.0,0.0
6516,68.0,0.0,150.0,11.0,0.0
6517,42.0,0.0,150.0,13.0,0.0
6518,56.0,0.0,180.0,12.0,0.0
6519,59.0,168.0,180.0,12.0,0.0
6520,71.0,48.0,150.0,10.0,0.0
6521,30.0,0.0,150.0,14.0,0.0
6522,42.0,24.0,120.0,13.0,0.0
6523,30.0,0.0,120.0,14.0,0.0
6524,61.0,0.0,480.0,2.0,0.0
6525,70.0,0.0,480.0,1.0,0.0
6526,70.0,0.0,150.0,11.0,0.0
6527,61.0,0.0,150.0,12.0,0.0
6528,58.0,0.0,150.0,12.0,0.0
6529,73.0,96.0,150.0,10.0,0.0
6530,58.0,0.0,480.0,2.0,0.0
6531,73.0,0.0,480.0,1.0,0.0
6532,29.0,0.0,120.0,14.0,0.0
6533,41.0,120.0,120.0,13.0,0.0
6534,54.0,0.0,120.0,11.0,0.0
6535,54.0,0.0,120.0,12.0,0.0
6536,30.0,0.0,120.0,14.0,0.0
6537,42.0,0.0,120.0,13.0,0.0
6538,54.0,120.0,120.0,10.0,0.0
6539,41.0,120.0,120.0,13.0,0.0
6540,29.0,0.0,120.0,14.0,0.0
6541,53.0,0.0,120.0,12.0,0.0
6542,53.0,0.0,120.0,11.0,0.0
6543,53.0,0.0,120.0,10.0,0.0
6544,54.0,0.0,120.0,11.0,0.0
6545,75.0,0.0,480.0,1.0,0.0
6546,54.0,0.0,120.0,10.0,0.0
6547,59.0,0.0,480.0,2.0,0.0
6548,71.0,0.0,480.0,1.0,0.0
6549,54.0,0.0,120.0,12.0,0.0
6550,30.0,0.0,120.0,14.0,0.0
6551,63.0,120.0,480.0,2.0,0.0
6552,42.0,120.0,120.0,13.0,0.0
6553,53.0,0.0,120.0,11.0,0.0
6554,53.0,0.0,120.0,12.0,0.0
6555,29.0,120.0,120.0,14.0,0.0
6556,41.0,0.0,120.0,13.0,0.0
6557,53.0,0.0,120.0,10.0,0.0
6558,42.0,0.0,120.0,13.0,0.0
6559,54.0,0.0,120.0,10.0,0.0
6560,54.0,0.0,120.0,11.0,0.0
6561,30.0,96.0,120.0,14.0,0.0
6562,54.0,0.0,120.0,12.0,0.0
6563,53.0,0.0,120.0,12.0,0.0
6564,53.0,0.0,120.0,11.0,0.0
6565,41.0,0.0,90.0,13.0,0.0
6566,53.0,0.0,120.0,10.0,0.0
6567,29.0,24.0,90.0,14.0,0.0
6568,60.0,0.0,480.0,2.0,0.0
6569,57.0,0.0,480.0,2.0,0.0
6570,69.0,0.0,480.0,1.0,0.0
6571,72.0,0.0,480.0,1.0,0.0
6572,30.0,0.0,120.0,14.0,0.0
6573,54.0,0.0,120.0,12.0,0.0
6574,42.0,120.0,120.0,13.0,0.0
6575,54.0,0.0,120.0,10.0,0.0
6576,54.0,0.0,120.0,11.0,0.0
6577,53.0,0.0,120.0,11.0,0.0
6578,53.0,0.0,120.0,10.0,0.0
6579,41.0,0.0,120.0,13.0,0.0
6580,53.0,120.0,120.0,12.0,0.0
6581,29.0,0.0,120.0,14.0,0.0
6582,42.0,0.0,120.0,13.0,0.0
6583,30.0,0.0,120.0,14.0,0.0
6584,54.0,120.0,120.0,11.0,0.0
6585,54.0,0.0,120.0,12.0,0.0
6586,54.0,0.0,120.0,10.0,0.0
6587,41.0,0.0,120.0,13.0,0.0
6588,53.0,0.0,120.0,10.0,0.0
6589,29.0,0.0,120.0,14.0,0.0
6590,53.0,120.0,120.0,11.0,0.0
6591,53.0,0.0,120.0,12.0,0.0
6592,70.0,0.0,480.0,1.0,0.0
6593,42.0,0.0,120.0,13.0,0.0
6594,30.0,0.0,120.0,14.0,0.0
6595,54.0,0.0,120.0,12.0,0.0
6596,73.0,0.0,480.0,1.0,0.0
6597,54.0,0.0,120.0,10.0,0.0
6598,61.0,0.0,480.0,2.0,0.0
6599,54.0,120.0,120.0,11.0,0.0
6600,29.0,0.0,120.0,14.0,0.0
6601,53.0,120.0,120.0,12.0,0.0
6602,53.0,0.0,120.0,11.0,0.0
6603,41.0,0.0,120.0,13.0,0.0
6604,53.0,0.0,120.0,10.0,0.0
6605,54.0,0.0,120.0,11.0,0.0
6606,42.0,0.0,120.0,13.0,0.0
6607,54.0,72.0,120.0,10.0,0.0
6608,30.0,0.0,120.0,14.0,0.0
6609,54.0,0.0,120.0,12.0,0.0
6610,53.0,144.0,120.0,11.0,0.0
6611,53.0,0.0,120.0,12.0,0.0
6612,41.0,24.0,90.0,13.0,0.0
6613,29.0,0.0,90.0,14.0,0.0
6614,53.0,0.0,120.0,10.0,0.0
6615,54.0,0.0,5910.0,3.0,0.0
6616,42.0,0.0,5910.0,3.0,0.0
6617,54.0,0.0,570.0,11.0,0.0
6618,46.0,0.0,570.0,12.0,0.0
6619,42.0,240.0,150.0,13.0,0.0
6620,54.0,0.0,570.0,10.0,0.0
6621,58.0,0.0,15.0,2.0,0.0
6622,54.0,0.0,570.0,2.0,0.0
6623,66.0,0.0,570.0,1.0,0.0
6624,30.0,0.0,150.0,14.0,0.0
6625,70.0,0.0,570.0,1.0,0.0
6626,42.0,192.0,150.0,13.0,0.0
6627,30.0,0.0,150.0,14.0,0.0
6628,30.0,0.0,150.0,14.0,0.0
6629,42.0,174.0,150.0,13.0,0.0
6630,70.0,0.0,90.0,10.0,0.0
6631,30.0,0.0,150.0,14.0,0.0
6632,70.0,18.0,90.0,11.0,0.0
6633,58.0,48.0,90.0,12.0,0.0
6634,42.0,54.0,150.0,13.0,0.0
6635,71.0,0.0,90.0,11.0,0.0
6636,71.0,18.0,90.0,10.0,0.0
6637,59.0,144.0,90.0,12.0,0.0
6638,61.0,0.0,120.0,12.0,0.0
6639,30.0,54.0,150.0,14.0,0.0
6640,73.0,24.0,120.0,10.0,0.0
6641,73.0,0.0,120.0,11.0,0.0
6642,42.0,0.0,150.0,13.0,0.0
6643,71.0,0.0,90.0,11.0,0.0
6644,71.0,18.0,90.0,10.0,0.0
6645,59.0,102.0,90.0,12.0,0.0
6646,42.0,0.0,150.0,13.0,0.0
6647,70.0,18.0,90.0,10.0,0.0
6648,30.0,54.0,150.0,14.0,0.0
6649,58.0,48.0,90.0,12.0,0.0
6650,70.0,0.0,90.0,11.0,0.0
6651,56.0,168.0,90.0,12.0,0.0
6652,68.0,0.0,90.0,11.0,0.0
6653,68.0,18.0,90.0,10.0,0.0
6654,66.0,36.0,150.0,10.0,0.0
6655,66.0,0.0,150.0,11.0,0.0
6656,30.0,12.0,150.0,14.0,0.0
6657,42.0,0.0,150.0,13.0,0.0
6658,54.0,126.0,180.0,12.0,0.0
6659,65.0,18.0,90.0,11.0,0.0
6660,30.0,54.0,150.0,14.0,0.0
6661,53.0,48.0,90.0,12.0,0.0
6662,65.0,0.0,90.0,10.0,0.0
6663,42.0,0.0,150.0,13.0,0.0
6664,66.0,0.0,90.0,11.0,0.0
6665,66.0,18.0,90.0,10.0,0.0
6666,54.0,144.0,90.0,12.0,0.0
6667,42.0,54.0,150.0,13.0,0.0
6668,56.0,0.0,120.0,12.0,0.0
6669,68.0,0.0,120.0,11.0,0.0
6670,68.0,24.0,120.0,10.0,0.0
6671,30.0,0.0,150.0,14.0,0.0
6672,54.0,102.0,90.0,12.0,0.0
6673,66.0,18.0,90.0,11.0,0.0
6674,66.0,0.0,90.0,10.0,0.0
6675,52.0,48.0,90.0,12.0,0.0
6676,42.0,0.0,150.0,13.0,0.0
6677,65.0,18.0,90.0,11.0,0.0
6678,30.0,54.0,150.0,14.0,0.0
6679,65.0,0.0,90.0,10.0,0.0
6680,63.0,18.0,90.0,11.0,0.0
6681,63.0,0.0,90.0,10.0,0.0
6682,51.0,168.0,90.0,12.0,0.0
6683,42.0,12.0,150.0,13.0,0.0
6684,61.0,36.0,150.0,10.0,0.0
6685,61.0,0.0,150.0,11.0,0.0
6686,30.0,0.0,150.0,14.0,0.0
6687,49.0,126.0,180.0,12.0,0.0
6688,30.0,0.0,150.0,14.0,0.0
6689,63.0,0.0,90.0,10.0,0.0
6690,51.0,48.0,90.0,12.0,0.0
6691,42.0,54.0,150.0,13.0,0.0
6692,63.0,18.0,90.0,11.0,0.0
6693,52.0,168.0,90.0,12.0,0.0
6694,65.0,18.0,90.0,10.0,0.0
6695,65.0,0.0,90.0,11.0,0.0
6696,54.0,192.0,180.0,12.0,0.0
6697,30.0,0.0,150.0,14.0,0.0
6698,42.0,0.0,150.0,13.0,0.0
6699,66.0,0.0,150.0,10.0,0.0
6700,66.0,48.0,150.0,11.0,0.0
6701,30.0,0.0,150.0,14.0,0.0
6702,68.0,48.0,150.0,10.0,0.0
6703,65.0,0.0,150.0,11.0,0.0
6704,42.0,0.0,150.0,13.0,0.0
6705,53.0,0.0,180.0,12.0,0.0
6706,56.0,192.0,180.0,12.0,0.0
6707,58.0,192.0,180.0,12.0,0.0
6708,42.0,0.0,150.0,13.0,0.0
6709,70.0,0.0,150.0,10.0,0.0
6710,66.0,0.0,150.0,11.0,0.0
6711,30.0,48.0,150.0,14.0,0.0
6712,54.0,0.0,180.0,12.0,0.0
6713,42.0,0.0,150.0,13.0,0.0
6714,71.0,0.0,150.0,10.0,0.0
6715,56.0,168.0,180.0,12.0,0.0
6716,59.0,0.0,180.0,12.0,0.0
6717,30.0,0.0,150.0,14.0,0.0
6718,68.0,48.0,150.0,11.0,0.0
6719,70.0,0.0,150.0,11.0,0.0
6720,58.0,0.0,480.0,2.0,0.0
6721,73.0,96.0,150.0,10.0,0.0
6722,70.0,0.0,480.0,1.0,0.0
6723,73.0,0.0,480.0,1.0,0.0
6724,58.0,0.0,150.0,12.0,0.0
6725,61.0,0.0,150.0,12.0,0.0
6726,61.0,0.0,480.0,2.0,0.0
6727,42.0,0.0,120.0,13.0,0.0
6728,30.0,24.0,120.0,14.0,0.0
6729,41.0,120.0,120.0,13.0,0.0
6730,29.0,0.0,120.0,14.0,0.0
6731,54.0,0.0,120.0,11.0,0.0
6732,30.0,0.0,120.0,14.0,0.0
6733,54.0,120.0,120.0,12.0,0.0
6734,54.0,0.0,120.0,10.0,0.0
6735,42.0,0.0,120.0,13.0,0.0
6736,53.0,0.0,120.0,11.0,0.0
6737,53.0,120.0,120.0,10.0,0.0
6738,41.0,0.0,120.0,13.0,0.0
6739,29.0,0.0,120.0,14.0,0.0
6740,53.0,0.0,120.0,12.0,0.0
6741,54.0,0.0,120.0,11.0,0.0
6742,30.0,0.0,120.0,14.0,0.0
6743,54.0,0.0,120.0,12.0,0.0
6744,54.0,120.0,120.0,10.0,0.0
6745,42.0,0.0,120.0,13.0,0.0
6746,59.0,0.0,480.0,2.0,0.0
6747,63.0,0.0,480.0,2.0,0.0
6748,71.0,120.0,480.0,1.0,0.0
6749,75.0,0.0,480.0,1.0,0.0
6750,29.0,0.0,120.0,14.0,0.0
6751,53.0,0.0,120.0,11.0,0.0
6752,53.0,0.0,120.0,10.0,0.0
6753,53.0,0.0,120.0,12.0,0.0
6754,41.0,120.0,120.0,13.0,0.0
6755,54.0,96.0,120.0,12.0,0.0
6756,42.0,0.0,120.0,13.0,0.0
6757,30.0,0.0,120.0,14.0,0.0
6758,54.0,0.0,120.0,10.0,0.0
6759,54.0,0.0,120.0,11.0,0.0
6760,53.0,0.0,120.0,10.0,0.0
6761,41.0,0.0,90.0,13.0,0.0
6762,29.0,24.0,90.0,14.0,0.0
6763,53.0,0.0,120.0,11.0,0.0
6764,53.0,0.0,120.0,12.0,0.0
6765,54.0,0.0,120.0,11.0,0.0
6766,60.0,0.0,480.0,2.0,0.0
6767,57.0,0.0,480.0,2.0,0.0
6768,54.0,0.0,120.0,10.0,0.0
6769,54.0,120.0,120.0,12.0,0.0
6770,30.0,0.0,120.0,14.0,0.0
6771,42.0,0.0,120.0,13.0,0.0
6772,69.0,0.0,480.0,1.0,0.0
6773,72.0,0.0,480.0,1.0,0.0
6774,53.0,0.0,120.0,11.0,0.0
6775,53.0,120.0,120.0,12.0,0.0
6776,41.0,0.0,120.0,13.0,0.0
6777,29.0,0.0,120.0,14.0,0.0
6778,53.0,0.0,120.0,10.0,0.0
6779,54.0,120.0,120.0,10.0,0.0
6780,54.0,0.0,120.0,11.0,0.0
6781,54.0,0.0,120.0,12.0,0.0
6782,42.0,0.0,120.0,13.0,0.0
6783,30.0,0.0,120.0,14.0,0.0
6784,53.0,0.0,120.0,11.0,0.0
6785,41.0,120.0,120.0,13.0,0.0
6786,53.0,0.0,120.0,12.0,0.0
6787,53.0,0.0,120.0,10.0,0.0
6788,29.0,0.0,120.0,14.0,0.0
6789,54.0,0.0,120.0,12.0,0.0
6790,42.0,0.0,120.0,13.0,0.0
6791,61.0,0.0,480.0,2.0,0.0
6792,54.0,0.0,120.0,11.0,0.0
6793,30.0,120.0,120.0,14.0,0.0
6794,73.0,0.0,480.0,1.0,0.0
6795,54.0,0.0,120.0,10.0,0.0
6796,29.0,0.0,120.0,14.0,0.0
6797,53.0,0.0,120.0,12.0,0.0
6798,41.0,120.0,120.0,13.0,0.0
6799,53.0,0.0,120.0,10.0,0.0
6800,53.0,0.0,120.0,11.0,0.0
6801,54.0,0.0,120.0,11.0,0.0
6802,30.0,0.0,120.0,14.0,0.0
6803,54.0,96.0,120.0,10.0,0.0
6804,54.0,0.0,120.0,12.0,0.0
6805,42.0,0.0,120.0,13.0,0.0
6806,53.0,0.0,120.0,10.0,0.0
6807,29.0,24.0,90.0,14.0,0.0
6808,53.0,0.0,120.0,11.0,0.0
6809,41.0,0.0,90.0,13.0,0.0
6810,53.0,144.0,120.0,12.0,0.0
6811,54.0,0.0,150.0,10.0,0.0
6812,70.0,0.0,15.0,1.0,0.0
6813,66.0,0.0,150.0,1.0,0.0
6814,58.0,0.0,15.0,2.0,0.0
6815,42.0,0.0,150.0,13.0,0.0
6816,54.0,0.0,150.0,11.0,0.0
6817,82.0,144.0,480.0,0.0,0.0
6818,54.0,0.0,150.0,2.0,0.0
6819,54.0,0.0,150.0,12.0,0.0
6820,30.0,0.0,150.0,14.0,0.0
6821,42.0,0.0,150.0,3.0,0.0
6822,66.0,0.0,150.0,1.0,0.0
6823,54.0,0.0,150.0,12.0,0.0
6824,54.0,0.0,150.0,10.0,0.0
6825,30.0,0.0,150.0,14.0,0.0
6826,54.0,96.0,150.0,11.0,0.0
6827,42.0,0.0,150.0,13.0,0.0
6828,54.0,0.0,150.0,2.0,0.0
6829,58.0,0.0,150.0,2.0,0.0
6830,54.0,0.0,150.0,3.0,0.0
6831,70.0,0.0,150.0,1.0,0.0
6832,54.0,0.0,150.0,11.0,0.0
6833,42.0,0.0,150.0,3.0,0.0
6834,30.0,0.0,150.0,14.0,0.0
6835,59.0,0.0,150.0,2.0,0.0
6836,63.0,0.0,150.0,2.0,0.0
6837,54.0,0.0,150.0,3.0,0.0
6838,42.0,0.0,150.0,13.0,0.0
6839,54.0,0.0,150.0,10.0,0.0
6840,54.0,0.0,150.0,12.0,0.0
6841,75.0,0.0,150.0,1.0,0.0
6842,71.0,240.0,150.0,1.0,0.0
6843,87.0,144.0,480.0,0.0,0.0
6844,30.0,0.0,150.0,14.0,0.0
6845,54.0,0.0,150.0,3.0,0.0
6846,42.0,0.0,150.0,3.0,0.0
6847,54.0,0.0,150.0,11.0,0.0
6848,42.0,0.0,150.0,13.0,0.0
6849,54.0,96.0,150.0,12.0,0.0
6850,63.0,0.0,150.0,2.0,0.0
6851,71.0,0.0,150.0,1.0,0.0
6852,75.0,0.0,150.0,1.0,0.0
6853,54.0,0.0,150.0,10.0,0.0
6854,59.0,0.0,150.0,2.0,0.0
6855,42.0,0.0,150.0,13.0,0.0
6856,54.0,0.0,150.0,10.0,0.0
6857,57.0,0.0,150.0,2.0,0.0
6858,84.0,144.0,480.0,0.0,0.0
6859,60.0,240.0,150.0,2.0,0.0
6860,54.0,0.0,150.0,3.0,0.0
6861,42.0,0.0,150.0,3.0,0.0
6862,30.0,0.0,150.0,14.0,0.0
6863,54.0,0.0,150.0,12.0,0.0
6864,54.0,0.0,150.0,11.0,0.0
6865,69.0,0.0,150.0,1.0,0.0
6866,72.0,0.0,150.0,1.0,0.0
6867,57.0,0.0,150.0,2.0,0.0
6868,54.0,0.0,150.0,3.0,0.0
6869,42.0,0.0,150.0,3.0,0.0
6870,54.0,96.0,150.0,10.0,0.0
6871,54.0,0.0,150.0,11.0,0.0
6872,54.0,0.0,150.0,12.0,0.0
6873,60.0,0.0,150.0,2.0,0.0
6874,69.0,0.0,150.0,1.0,0.0
6875,30.0,0.0,150.0,14.0,0.0
6876,72.0,0.0,150.0,1.0,0.0
6877,42.0,0.0,150.0,13.0,0.0
6878,70.0,0.0,150.0,1.0,0.0
6879,30.0,0.0,150.0,14.0,0.0
6880,54.0,0.0,150.0,12.0,0.0
6881,42.0,0.0,150.0,13.0,0.0
6882,54.0,0.0,150.0,11.0,0.0
6883,85.0,0.0,390.0,0.0,0.0
6884,42.0,0.0,150.0,3.0,0.0
6885,73.0,0.0,150.0,1.0,0.0
6886,54.0,0.0,150.0,3.0,0.0
6887,54.0,0.0,150.0,10.0,0.0
6888,58.0,0.0,150.0,2.0,0.0
6889,61.0,240.0,150.0,2.0,0.0
6890,42.0,0.0,150.0,3.0,0.0
6891,54.0,0.0,150.0,3.0,0.0
6892,42.0,0.0,150.0,13.0,0.0
6893,54.0,0.0,150.0,12.0,0.0
6894,30.0,0.0,150.0,14.0,0.0
6895,73.0,0.0,150.0,1.0,0.0
6896,70.0,0.0,150.0,1.0,0.0
6897,54.0,0.0,150.0,10.0,0.0
6898,54.0,192.0,150.0,11.0,0.0
6899,58.0,0.0,150.0,2.0,0.0
6900,61.0,0.0,150.0,2.0,0.0
6901,42.0,0.0,180.0,3.0,0.0
6902,54.0,24.0,180.0,3.0,0.0
6903,70.0,60.0,90.0,11.0,0.0
6904,78.0,0.0,90.0,10.0,0.0
6905,42.0,0.0,390.0,5.0,0.0
6906,66.0,96.0,1440.0,1.0,0.0
6907,54.0,0.0,150.0,13.0,0.0
6908,70.0,0.0,960.0,1.0,0.0
6909,82.0,96.0,960.0,0.0,0.0
6910,42.0,36.0,150.0,14.0,0.0
6911,54.0,0.0,150.0,2.0,0.0
6912,58.0,0.0,150.0,2.0,0.0
6913,66.0,0.0,150.0,12.0,0.0
6914,66.0,12.0,390.0,4.0,0.0
6915,54.0,0.0,390.0,4.0,0.0
6916,70.0,0.0,90.0,11.0,0.0
6917,78.0,120.0,90.0,10.0,0.0
6918,42.0,0.0,150.0,14.0,0.0
6919,54.0,0.0,150.0,2.0,0.0
6920,70.0,0.0,90.0,11.0,0.0
6921,78.0,48.0,90.0,10.0,0.0
6922,54.0,0.0,150.0,13.0,0.0
6923,61.0,24.0,180.0,3.0,0.0
6924,54.0,0.0,180.0,3.0,0.0
6925,66.0,36.0,150.0,12.0,0.0
6926,70.0,120.0,90.0,11.0,0.0
6927,78.0,0.0,90.0,10.0,0.0
6928,51.0,0.0,150.0,2.0,0.0
6929,51.0,36.0,150.0,13.0,0.0
6930,39.0,0.0,150.0,14.0,0.0
6931,63.0,0.0,150.0,12.0,0.0
6932,78.0,60.0,90.0,10.0,0.0
6933,63.0,0.0,180.0,3.0,0.0
6934,54.0,24.0,180.0,3.0,0.0
6935,70.0,0.0,90.0,11.0,0.0
6936,70.0,0.0,90.0,11.0,0.0
6937,78.0,120.0,90.0,10.0,0.0
6938,54.0,24.0,180.0,3.0,0.0
6939,39.0,0.0,150.0,14.0,0.0
6940,51.0,36.0,150.0,13.0,0.0
6941,70.0,0.0,90.0,11.0,0.0
6942,63.0,0.0,180.0,3.0,0.0
6943,51.0,0.0,150.0,2.0,0.0
6944,78.0,60.0,90.0,10.0,0.0
6945,63.0,0.0,150.0,12.0,0.0
6946,70.0,24.0,90.0,11.0,0.0
6947,78.0,0.0,90.0,10.0,0.0
6948,68.0,60.0,90.0,11.0,0.0
6949,68.0,0.0,870.0,1.0,0.0
6950,59.0,0.0,150.0,12.0,0.0
6951,54.0,0.0,180.0,3.0,0.0
6952,47.0,36.0,150.0,2.0,0.0
6953,80.0,96.0,960.0,0.0,0.0
6954,63.0,24.0,180.0,3.0,0.0
6955,47.0,0.0,150.0,13.0,0.0
6956,35.0,0.0,150.0,14.0,0.0
6957,78.0,0.0,90.0,10.0,0.0
6958,78.0,0.0,90.0,10.0,0.0
6959,68.0,120.0,90.0,11.0,0.0
6960,54.0,0.0,180.0,3.0,0.0
6961,68.0,0.0,90.0,11.0,0.0
6962,47.0,0.0,150.0,2.0,0.0
6963,35.0,0.0,150.0,14.0,0.0
6964,47.0,0.0,150.0,13.0,0.0
6965,78.0,60.0,90.0,10.0,0.0
6966,59.0,36.0,150.0,12.0,0.0
6967,63.0,24.0,180.0,3.0,0.0
6968,68.0,24.0,90.0,11.0,0.0
6969,78.0,0.0,90.0,10.0,0.0
6970,77.0,0.0,90.0,10.0,0.0
6971,37.0,0.0,150.0,14.0,0.0
6972,65.0,12.0,390.0,1.0,0.0
6973,61.0,0.0,150.0,12.0,0.0
6974,49.0,0.0,150.0,13.0,0.0
6975,49.0,36.0,150.0,2.0,0.0
6976,68.0,60.0,90.0,11.0,0.0
6977,61.0,24.0,180.0,3.0,0.0
6978,77.0,0.0,90.0,10.0,0.0
6979,68.0,120.0,90.0,11.0,0.0
6980,68.0,48.0,90.0,11.0,0.0
6981,49.0,0.0,150.0,13.0,0.0
6982,37.0,36.0,150.0,14.0,0.0
6983,49.0,0.0,150.0,2.0,0.0
6984,61.0,24.0,180.0,3.0,0.0
6985,61.0,0.0,150.0,12.0,0.0
6986,77.0,0.0,90.0,10.0,0.0
6987,68.0,24.0,90.0,11.0,0.0
6988,77.0,0.0,90.0,10.0,0.0
6989,70.0,0.0,90.0,11.0,0.0
6990,61.0,0.0,90.0,11.0,0.0
6991,78.0,60.0,90.0,10.0,0.0
6992,73.0,0.0,390.0,4.0,0.0
6993,66.0,0.0,390.0,4.0,0.0
6994,30.0,36.0,150.0,14.0,0.0
6995,42.0,0.0,150.0,2.0,0.0
6996,66.0,0.0,150.0,1.0,0.0
6997,70.0,0.0,150.0,1.0,0.0
6998,54.0,0.0,150.0,12.0,0.0
6999,54.0,0.0,180.0,3.0,0.0
7000,42.0,0.0,150.0,13.0,0.0
7001,61.0,24.0,180.0,3.0,0.0
7002,78.0,0.0,150.0,0.0,0.0
7003,42.0,12.0,390.0,5.0,0.0
7004,73.0,120.0,90.0,10.0,0.0
7005,61.0,0.0,90.0,11.0,0.0
7006,70.0,0.0,90.0,11.0,0.0
7007,54.0,0.0,180.0,3.0,0.0
7008,61.0,24.0,180.0,3.0,0.0
7009,42.0,0.0,150.0,14.0,0.0
7010,82.0,0.0,150.0,0.0,0.0
7011,54.0,0.0,150.0,13.0,0.0
7012,70.0,0.0,90.0,10.0,0.0
7013,66.0,36.0,150.0,12.0,0.0
7014,54.0,0.0,150.0,2.0,0.0
7015,61.0,48.0,90.0,11.0,0.0
7016,70.0,0.0,150.0,1.0,0.0
7017,66.0,0.0,150.0,1.0,0.0
7018,70.0,0.0,90.0,11.0,0.0
7019,61.0,120.0,90.0,11.0,0.0
7020,70.0,0.0,90.0,11.0,0.0
7021,73.0,0.0,90.0,10.0,0.0
7022,65.0,0.0,150.0,1.0,0.0
7023,68.0,0.0,150.0,1.0,0.0
7024,37.0,0.0,150.0,13.0,0.0
7025,83.0,0.0,150.0,0.0,0.0
7026,61.0,0.0,90.0,11.0,0.0
7027,37.0,36.0,150.0,2.0,0.0
7028,49.0,0.0,150.0,12.0,0.0
7029,68.0,60.0,90.0,11.0,0.0
7030,71.0,0.0,90.0,10.0,0.0
7031,25.0,0.0,150.0,14.0,0.0
7032,73.0,12.0,390.0,4.0,0.0
7033,61.0,24.0,180.0,3.0,0.0
7034,73.0,0.0,90.0,10.0,0.0
7035,61.0,0.0,90.0,11.0,0.0
7036,68.0,120.0,90.0,11.0,0.0
7037,61.0,24.0,180.0,3.0,0.0
7038,68.0,0.0,90.0,11.0,0.0
7039,49.0,0.0,150.0,2.0,0.0
7040,49.0,0.0,150.0,13.0,0.0
7041,80.0,36.0,150.0,0.0,0.0
7042,61.0,0.0,150.0,12.0,0.0
7043,77.0,0.0,90.0,10.0,0.0
7044,68.0,0.0,150.0,1.0,0.0
7045,71.0,0.0,150.0,1.0,0.0
7046,61.0,48.0,90.0,11.0,0.0
7047,37.0,0.0,150.0,14.0,0.0
7048,73.0,120.0,90.0,10.0,0.0
7049,68.0,0.0,90.0,11.0,0.0
7050,61.0,0.0,90.0,11.0,0.0
7051,61.0,24.0,180.0,3.0,0.0
7052,42.0,36.0,150.0,2.0,0.0
7053,42.0,12.0,390.0,5.0,0.0
7054,70.0,0.0,150.0,1.0,0.0
7055,78.0,0.0,150.0,0.0,0.0
7056,42.0,0.0,150.0,13.0,0.0
7057,66.0,0.0,150.0,1.0,0.0
7058,54.0,0.0,180.0,3.0,0.0
7059,73.0,0.0,390.0,4.0,0.0
7060,66.0,0.0,390.0,4.0,0.0
7061,54.0,0.0,150.0,12.0,0.0
7062,61.0,0.0,90.0,11.0,0.0
7063,70.0,0.0,90.0,11.0,0.0
7064,30.0,0.0,150.0,14.0,0.0
7065,78.0,60.0,90.0,10.0,0.0
7066,61.0,120.0,90.0,11.0,0.0
7067,70.0,0.0,90.0,11.0,0.0
7068,73.0,0.0,90.0,10.0,0.0
7069,61.0,48.0,90.0,11.0,0.0
7070,70.0,0.0,90.0,11.0,0.0
7071,66.0,0.0,150.0,1.0,0.0
7072,70.0,0.0,90.0,10.0,0.0
7073,66.0,0.0,150.0,12.0,0.0
7074,54.0,36.0,150.0,2.0,0.0
7075,54.0,24.0,180.0,3.0,0.0
7076,61.0,0.0,180.0,3.0,0.0
7077,70.0,0.0,150.0,1.0,0.0
7078,82.0,0.0,150.0,0.0,0.0
7079,54.0,0.0,150.0,13.0,0.0
7080,42.0,0.0,150.0,14.0,0.0
7081,61.0,0.0,90.0,11.0,0.0
7082,70.0,0.0,90.0,11.0,0.0
7083,73.0,120.0,90.0,10.0,0.0
7084,73.0,12.0,390.0,4.0,0.0
7085,37.0,0.0,150.0,13.0,0.0
7086,61.0,0.0,90.0,11.0,0.0
7087,68.0,0.0,90.0,11.0,0.0
7088,83.0,0.0,150.0,0.0,0.0
7089,49.0,0.0,150.0,12.0,0.0
7090,68.0,0.0,150.0,1.0,0.0
7091,65.0,36.0,150.0,1.0,0.0
7092,71.0,60.0,90.0,10.0,0.0
7093,37.0,0.0,150.0,2.0,0.0
7094,25.0,0.0,150.0,14.0,0.0
7095,61.0,24.0,180.0,3.0,0.0
7096,73.0,0.0,90.0,10.0,0.0
7097,68.0,120.0,90.0,11.0,0.0
7098,61.0,0.0,90.0,11.0,0.0
7099,68.0,0.0,90.0,11.0,0.0
7100,68.0,0.0,150.0,1.0,0.0
7101,71.0,0.0,150.0,1.0,0.0
7102,61.0,0.0,90.0,11.0,0.0
7103,61.0,0.0,150.0,12.0,0.0
7104,80.0,36.0,150.0,0.0,0.0
7105,77.0,48.0,90.0,10.0,0.0
7106,49.0,0.0,150.0,2.0,0.0
7107,49.0,0.0,150.0,13.0,0.0
7108,37.0,0.0,150.0,14.0,0.0
7109,61.0,24.0,180.0,3.0,0.0
7110,68.0,168.0,90.0,11.0,0.0
7111,61.0,0.0,90.0,11.0,0.0
7112,73.0,0.0,90.0,10.0,0.0
7113,66.0,0.0,150.0,4.0,0.0
7114,78.0,0.0,150.0,0.0,0.0
7115,78.0,0.0,150.0,10.0,0.0
7116,42.0,0.0,150.0,2.0,0.0
7117,54.0,0.0,150.0,12.0,0.0
7118,70.0,0.0,150.0,1.0,0.0
7119,66.0,0.0,150.0,1.0,0.0
7120,61.0,168.0,150.0,3.0,0.0
7121,54.0,0.0,150.0,3.0,0.0
7122,30.0,0.0,150.0,14.0,0.0
7123,42.0,0.0,150.0,13.0,0.0
7124,42.0,0.0,390.0,5.0,0.0
7125,73.0,0.0,150.0,4.0,0.0
7126,70.0,0.0,150.0,11.0,0.0
7127,61.0,0.0,150.0,11.0,0.0
7128,42.0,0.0,150.0,14.0,0.0
7129,54.0,0.0,60.0,11.0,0.0
7130,54.0,72.0,60.0,10.0,0.0
7131,54.0,0.0,150.0,3.0,0.0
7132,54.0,0.0,150.0,13.0,0.0
7133,66.0,0.0,150.0,0.0,0.0
7134,66.0,0.0,150.0,4.0,0.0
7135,54.0,0.0,150.0,4.0,0.0
7136,66.0,48.0,150.0,1.0,0.0
7137,42.0,0.0,150.0,3.0,0.0
7138,54.0,0.0,150.0,2.0,0.0
7139,66.0,0.0,150.0,12.0,0.0
7140,54.0,0.0,60.0,10.0,0.0
7141,54.0,192.0,60.0,11.0,0.0
7142,42.0,0.0,150.0,3.0,0.0
7143,54.0,0.0,150.0,10.0,0.0
7144,54.0,0.0,150.0,11.0,0.0
7145,66.0,0.0,150.0,0.0,0.0
7146,54.0,0.0,150.0,3.0,0.0
7147,42.0,0.0,390.0,5.0,0.0
7148,30.0,0.0,150.0,14.0,0.0
7149,66.0,0.0,150.0,1.0,0.0
7150,42.0,0.0,150.0,13.0,0.0
7151,42.0,0.0,150.0,2.0,0.0
7152,66.0,0.0,150.0,4.0,0.0
7153,54.0,240.0,150.0,4.0,0.0
7154,54.0,0.0,150.0,12.0,0.0
7155,42.0,0.0,150.0,13.0,0.0
7156,42.0,0.0,150.0,3.0,0.0
7157,42.0,0.0,150.0,2.0,0.0
7158,54.0,0.0,150.0,4.0,0.0
7159,54.0,0.0,150.0,3.0,0.0
7160,66.0,0.0,150.0,4.0,0.0
7161,54.0,480.0,150.0,10.0,0.0
7162,66.0,0.0,150.0,1.0,0.0
7163,54.0,0.0,150.0,12.0,0.0
7164,66.0,0.0,150.0,0.0,0.0
7165,54.0,0.0,150.0,11.0,0.0
7166,30.0,0.0,150.0,14.0,0.0
7167,54.0,414.0,390.0,4.0,0.0
7168,54.0,0.0,390.0,12.0,0.0
7169,66.0,0.0,390.0,4.0,0.0
7170,42.0,0.0,390.0,2.0,0.0
7171,30.0,0.0,390.0,14.0,0.0
7172,42.0,0.0,390.0,3.0,0.0
7173,66.0,0.0,390.0,1.0,0.0
7174,66.0,0.0,390.0,0.0,0.0
7175,54.0,0.0,390.0,11.0,0.0
7176,42.0,0.0,390.0,5.0,0.0
7177,42.0,0.0,390.0,13.0,0.0
7178,54.0,0.0,390.0,10.0,0.0
7179,54.0,0.0,390.0,3.0,0.0
7180,55.0,0.0,90.0,12.0,0.0
7181,55.0,0.0,90.0,10.0,0.0
7182,55.0,0.0,90.0,11.0,0.0
7183,31.0,0.0,90.0,14.0,0.0
7184,43.0,120.0,90.0,13.0,0.0
7185,56.0,0.0,90.0,12.0,0.0
7186,32.0,0.0,90.0,14.0,0.0
7187,56.0,162.0,90.0,10.0,0.0
7188,56.0,0.0,90.0,11.0,0.0
7189,44.0,0.0,90.0,13.0,0.0
7190,46.0,0.0,120.0,13.0,0.0
7191,34.0,78.0,120.0,14.0,0.0
7192,55.0,0.0,390.0,2.0,0.0
7193,51.0,0.0,390.0,3.0,0.0
7194,61.0,54.0,390.0,3.0,0.0
7195,58.0,0.0,120.0,12.0,0.0
7196,73.0,0.0,390.0,1.0,0.0
7197,58.0,0.0,120.0,10.0,0.0
7198,70.0,0.0,390.0,1.0,0.0
7199,58.0,0.0,120.0,11.0,0.0
7200,73.0,0.0,390.0,4.0,0.0
7201,63.0,0.0,390.0,4.0,0.0
7202,79.0,0.0,390.0,0.0,0.0
7203,49.0,0.0,390.0,2.0,0.0
7204,44.0,0.0,90.0,13.0,0.0
7205,56.0,120.0,90.0,11.0,0.0
7206,56.0,0.0,90.0,12.0,0.0
7207,32.0,0.0,90.0,14.0,0.0
7208,56.0,0.0,90.0,10.0,0.0
7209,43.0,0.0,90.0,13.0,0.0
7210,55.0,0.0,90.0,10.0,0.0
7211,55.0,0.0,90.0,11.0,0.0
7212,55.0,0.0,90.0,12.0,0.0
7213,31.0,66.0,90.0,14.0,0.0
7214,41.0,0.0,90.0,13.0,0.0
7215,53.0,198.0,90.0,10.0,0.0
7216,29.0,0.0,90.0,14.0,0.0
7217,53.0,0.0,90.0,11.0,0.0
7218,53.0,0.0,90.0,12.0,0.0
7219,51.0,0.0,150.0,12.0,0.0
7220,27.0,0.0,150.0,14.0,0.0
7221,51.0,0.0,150.0,11.0,0.0
7222,39.0,162.0,150.0,13.0,0.0
7223,51.0,0.0,150.0,10.0,0.0
7224,58.0,0.0,90.0,13.0,0.0
7225,46.0,120.0,90.0,14.0,0.0
7226,70.0,0.0,90.0,11.0,0.0
7227,70.0,0.0,90.0,12.0,0.0
7228,70.0,0.0,90.0,10.0,0.0
7229,71.0,0.0,90.0,12.0,0.0
7230,71.0,0.0,90.0,10.0,0.0
7231,71.0,0.0,90.0,11.0,0.0
7232,59.0,0.0,90.0,13.0,0.0
7233,47.0,162.0,90.0,14.0,0.0
7234,49.0,78.0,120.0,14.0,0.0
7235,61.0,0.0,120.0,13.0,0.0
7236,73.0,0.0,120.0,10.0,0.0
7237,85.0,0.0,390.0,0.0,0.0
7238,79.0,0.0,390.0,1.0,0.0
7239,73.0,0.0,120.0,11.0,0.0
7240,55.0,0.0,390.0,2.0,0.0
7241,61.0,0.0,390.0,2.0,0.0
7242,73.0,0.0,120.0,12.0,0.0
7243,73.0,0.0,390.0,4.0,0.0
7244,63.0,0.0,390.0,4.0,0.0
7245,51.0,54.0,390.0,3.0,0.0
7246,61.0,0.0,390.0,3.0,0.0
7247,70.0,0.0,390.0,1.0,0.0
7248,71.0,0.0,90.0,12.0,0.0
7249,59.0,0.0,90.0,13.0,0.0
7250,71.0,120.0,90.0,11.0,0.0
7251,71.0,0.0,90.0,10.0,0.0
7252,47.0,0.0,90.0,14.0,0.0
7253,70.0,0.0,90.0,12.0,0.0
7254,70.0,66.0,90.0,11.0,0.0
7255,46.0,0.0,90.0,14.0,0.0
7256,70.0,0.0,90.0,10.0,0.0
7257,58.0,0.0,90.0,13.0,0.0
7258,44.0,0.0,90.0,14.0,0.0
7259,68.0,0.0,90.0,10.0,0.0
7260,56.0,0.0,90.0,13.0,0.0
7261,68.0,0.0,90.0,11.0,0.0
7262,68.0,198.0,90.0,12.0,0.0
7263,43.0,2082.0,150.0,14.0,0.0
7264,67.0,0.0,150.0,12.0,0.0
7265,55.0,0.0,150.0,13.0,0.0
7266,67.0,0.0,150.0,10.0,0.0
7267,67.0,0.0,150.0,11.0,0.0
7268,68.0,120.0,90.0,10.0,0.0
7269,69.0,162.0,90.0,10.0,0.0
7270,71.0,78.0,120.0,10.0,0.0
7271,56.0,0.0,120.0,11.0,0.0
7272,69.0,42.0,90.0,10.0,0.0
7273,59.0,78.0,120.0,11.0,0.0
7274,68.0,42.0,90.0,10.0,0.0
7275,56.0,78.0,120.0,11.0,0.0
7276,59.0,120.0,120.0,11.0,0.0
7277,66.0,42.0,90.0,10.0,0.0
7278,64.0,96.0,150.0,10.0,0.0
7279,56.0,24.0,120.0,11.0,0.0
7280,59.0,120.0,120.0,11.0,0.0
7281,56.0,24.0,120.0,11.0,0.0
7282,66.0,48.0,150.0,10.0,0.0
7283,59.0,168.0,60.0,11.0,0.0
7284,57.0,120.0,120.0,11.0,0.0
7285,59.0,24.0,570.0,10.0,0.0
7286,59.0,120.0,120.0,11.0,0.0
7287,57.0,120.0,120.0,11.0,0.0
7288,59.0,96.0,120.0,11.0,0.0
7289,57.0,120.0,120.0,11.0,0.0
7290,59.0,78.0,120.0,11.0,0.0
7291,57.0,72.0,120.0,11.0,0.0
7292,61.0,42.0,90.0,10.0,0.0
7293,59.0,6.0,60.0,11.0,0.0
7294,63.0,162.0,90.0,10.0,0.0
7295,56.0,78.0,120.0,11.0,0.0
7296,64.0,0.0,120.0,10.0,0.0
7297,63.0,42.0,90.0,10.0,0.0
7298,59.0,78.0,120.0,11.0,0.0
7299,61.0,42.0,90.0,10.0,0.0
7300,56.0,78.0,120.0,11.0,0.0
7301,59.0,78.0,120.0,11.0,0.0
7302,59.0,42.0,90.0,10.0,0.0
7303,57.0,42.0,90.0,10.0,0.0
7304,51.0,78.0,120.0,11.0,0.0
7305,56.0,42.0,90.0,10.0,0.0
7306,59.0,78.0,120.0,11.0,0.0
7307,57.0,42.0,90.0,10.0,0.0
7308,51.0,72.0,120.0,11.0,0.0
7309,59.0,6.0,60.0,11.0,0.0
7310,59.0,162.0,90.0,10.0,0.0
7311,56.0,0.0,900.0,10.0,0.0
7312,52.0,120.0,120.0,11.0,0.0
7313,59.0,120.0,120.0,11.0,0.0
7314,52.0,120.0,120.0,11.0,0.0
7315,59.0,120.0,120.0,11.0,0.0
7316,52.0,120.0,120.0,11.0,0.0
7317,59.0,120.0,120.0,11.0,0.0
7318,52.0,72.0,120.0,11.0,0.0
7319,59.0,432.0,60.0,11.0,0.0
7320,71.0,0.0,1920.0,1.0,0.0
7321,55.0,216.0,1530.0,10.0,0.0
7322,40.0,0.0,960.0,2.0,0.0
7323,52.0,576.0,960.0,2.0,0.0
7324,52.0,576.0,390.0,11.0,0.0
7325,79.0,0.0,960.0,0.0,0.0
7326,38.0,0.0,960.0,2.0,0.0
7327,50.0,0.0,960.0,2.0,0.0
7328,77.0,0.0,960.0,0.0,0.0
7329,76.0,120.0,60.0,10.0,0.0
7330,77.0,48.0,60.0,10.0,0.0
7331,64.0,24.0,90.0,11.0,0.0
7332,72.0,0.0,120.0,1.0,0.0
7333,67.0,96.0,15.0,1.0,0.0
7334,76.0,0.0,120.0,0.0,0.0
7335,60.0,0.0,90.0,12.0,0.0
7336,36.0,60.0,120.0,2.0,0.0
7337,48.0,0.0,120.0,2.0,0.0
7338,79.0,12.0,120.0,10.0,0.0
7339,55.0,0.0,90.0,11.0,0.0
7340,60.0,0.0,90.0,12.0,0.0
7341,55.0,96.0,90.0,11.0,0.0
7342,64.0,0.0,90.0,11.0,0.0
7343,77.0,24.0,60.0,10.0,0.0
7344,60.0,0.0,120.0,3.0,0.0
7345,64.0,36.0,90.0,11.0,0.0
7346,55.0,0.0,90.0,11.0,0.0
7347,76.0,24.0,60.0,10.0,0.0
7348,48.0,0.0,120.0,2.0,0.0
7349,79.0,0.0,120.0,0.0,0.0
7350,64.0,0.0,120.0,3.0,0.0
7351,60.0,0.0,90.0,12.0,0.0
7352,36.0,60.0,120.0,2.0,0.0
7353,67.0,0.0,120.0,1.0,0.0
7354,72.0,0.0,120.0,1.0,0.0
7355,55.0,0.0,90.0,11.0,0.0
7356,60.0,120.0,90.0,12.0,0.0
7357,64.0,0.0,90.0,11.0,0.0
7358,74.0,24.0,60.0,10.0,0.0
7359,55.0,36.0,90.0,11.0,0.0
7360,79.0,0.0,120.0,0.0,0.0
7361,72.0,72.0,150.0,10.0,0.0
7362,64.0,0.0,90.0,11.0,0.0
7363,60.0,0.0,90.0,12.0,0.0
7364,36.0,0.0,120.0,2.0,0.0
7365,48.0,0.0,120.0,2.0,0.0
7366,60.0,0.0,120.0,3.0,0.0
7367,64.0,0.0,120.0,3.0,0.0
7368,72.0,12.0,120.0,1.0,0.0
7369,67.0,0.0,120.0,1.0,0.0
7370,55.0,0.0,90.0,11.0,0.0
7371,60.0,0.0,90.0,12.0,0.0
7372,64.0,96.0,90.0,11.0,0.0
7373,64.0,48.0,90.0,11.0,0.0
7374,55.0,0.0,90.0,11.0,0.0
7375,35.0,0.0,60.0,14.0,0.0
7376,47.0,24.0,60.0,13.0,0.0
7377,60.0,0.0,90.0,12.0,0.0
7378,74.0,48.0,150.0,10.0,0.0
7379,55.0,0.0,90.0,11.0,0.0
7380,64.0,0.0,90.0,11.0,0.0
7381,60.0,120.0,90.0,12.0,0.0
7382,48.0,24.0,60.0,13.0,0.0
7383,36.0,0.0,60.0,14.0,0.0
7384,67.0,0.0,390.0,10.0,0.0
7385,65.0,0.0,90.0,11.0,0.0
7386,55.0,0.0,90.0,11.0,0.0
7387,38.0,0.0,120.0,14.0,0.0
7388,59.0,24.0,90.0,12.0,0.0
7389,50.0,72.0,120.0,13.0,0.0
7390,65.0,96.0,90.0,11.0,0.0
7391,59.0,0.0,90.0,12.0,0.0
7392,55.0,0.0,90.0,11.0,0.0
7393,36.0,0.0,60.0,14.0,0.0
7394,48.0,24.0,60.0,13.0,0.0
7395,35.0,0.0,60.0,14.0,0.0
7396,43.0,0.0,150.0,2.0,0.0
7397,31.0,0.0,150.0,2.0,0.0
7398,59.0,0.0,90.0,12.0,0.0
7399,79.0,0.0,150.0,0.0,0.0
7400,67.0,0.0,150.0,1.0,0.0
7401,47.0,24.0,60.0,13.0,0.0
7402,65.0,48.0,90.0,11.0,0.0
7403,55.0,0.0,90.0,11.0,0.0
7404,71.0,0.0,150.0,1.0,0.0
7405,59.0,48.0,150.0,3.0,0.0
7406,62.0,0.0,150.0,3.0,0.0
7407,59.0,120.0,90.0,12.0,0.0
7408,45.0,24.0,60.0,13.0,0.0
7409,55.0,0.0,90.0,11.0,0.0
7410,65.0,0.0,90.0,11.0,0.0
7411,33.0,0.0,60.0,14.0,0.0
7412,59.0,0.0,150.0,3.0,0.0
7413,71.0,72.0,150.0,1.0,0.0
7414,43.0,0.0,150.0,2.0,0.0
7415,31.0,0.0,150.0,2.0,0.0
7416,62.0,0.0,150.0,3.0,0.0
7417,67.0,0.0,150.0,1.0,0.0
7418,65.0,0.0,90.0,11.0,0.0
7419,79.0,0.0,150.0,0.0,0.0
7420,31.0,0.0,150.0,14.0,0.0
7421,43.0,0.0,150.0,13.0,0.0
7422,55.0,0.0,90.0,11.0,0.0
7423,59.0,48.0,90.0,12.0,0.0
7424,65.0,0.0,90.0,11.0,0.0
7425,59.0,0.0,90.0,12.0,0.0
7426,55.0,96.0,90.0,11.0,0.0
7427,55.0,48.0,150.0,13.0,0.0
7428,75.0,24.0,60.0,10.0,0.0
7429,59.0,0.0,90.0,12.0,0.0
7430,65.0,48.0,90.0,11.0,0.0
7431,55.0,0.0,90.0,11.0,0.0
7432,43.0,0.0,150.0,14.0,0.0
7433,59.0,120.0,90.0,12.0,0.0
7434,77.0,24.0,60.0,10.0,0.0
7435,55.0,0.0,90.0,11.0,0.0
7436,65.0,0.0,90.0,11.0,0.0
7437,36.0,0.0,390.0,14.0,0.0
7438,63.0,0.0,90.0,11.0,0.0
7439,55.0,0.0,90.0,11.0,0.0
7440,60.0,24.0,90.0,12.0,0.0
7441,79.0,72.0,120.0,10.0,0.0
7442,48.0,0.0,390.0,13.0,0.0
7443,77.0,24.0,60.0,10.0,0.0
7444,55.0,0.0,90.0,11.0,0.0
7445,63.0,0.0,90.0,11.0,0.0
7446,60.0,96.0,90.0,12.0,0.0
7447,63.0,48.0,90.0,11.0,0.0
7448,79.0,0.0,150.0,0.0,0.0
7449,60.0,0.0,90.0,12.0,0.0
7450,55.0,0.0,90.0,11.0,0.0
7451,67.0,0.0,150.0,1.0,0.0
7452,75.0,24.0,60.0,10.0,0.0
7453,36.0,0.0,150.0,2.0,0.0
7454,72.0,48.0,150.0,1.0,0.0
7455,60.0,0.0,150.0,3.0,0.0
7456,63.0,0.0,150.0,3.0,0.0
7457,48.0,0.0,150.0,2.0,0.0
7458,63.0,0.0,90.0,11.0,0.0
7459,74.0,24.0,60.0,10.0,0.0
7460,60.0,120.0,90.0,12.0,0.0
7461,55.0,0.0,90.0,11.0,0.0
7462,67.0,72.0,150.0,1.0,0.0
7463,63.0,0.0,150.0,3.0,0.0
7464,48.0,0.0,150.0,2.0,0.0
7465,36.0,0.0,150.0,2.0,0.0
7466,60.0,0.0,150.0,3.0,0.0
7467,55.0,48.0,90.0,11.0,0.0
7468,60.0,0.0,90.0,12.0,0.0
7469,63.0,0.0,90.0,11.0,0.0
7470,72.0,0.0,150.0,10.0,0.0
7471,72.0,0.0,150.0,1.0,0.0
7472,79.0,0.0,150.0,0.0,0.0
7473,60.0,0.0,90.0,12.0,0.0
7474,55.0,96.0,90.0,11.0,0.0
7475,63.0,0.0,90.0,11.0,0.0
7476,63.0,0.0,90.0,11.0,0.0
7477,60.0,0.0,90.0,12.0,0.0
7478,55.0,48.0,90.0,11.0,0.0
7479,35.0,0.0,60.0,14.0,0.0
7480,74.0,48.0,150.0,10.0,0.0
7481,47.0,24.0,60.0,13.0,0.0
7482,36.0,24.0,60.0,14.0,0.0
7483,60.0,0.0,90.0,12.0,0.0
7484,48.0,0.0,60.0,13.0,0.0
7485,55.0,0.0,90.0,11.0,0.0
7486,63.0,120.0,90.0,11.0,0.0
7487,65.0,0.0,90.0,11.0,0.0
7488,50.0,72.0,120.0,13.0,0.0
7489,38.0,0.0,120.0,14.0,0.0
7490,55.0,24.0,90.0,11.0,0.0
7491,59.0,0.0,90.0,12.0,0.0
7492,67.0,0.0,390.0,10.0,0.0
7493,36.0,0.0,60.0,14.0,0.0
7494,59.0,96.0,90.0,12.0,0.0
7495,48.0,24.0,60.0,13.0,0.0
7496,55.0,0.0,90.0,11.0,0.0
7497,65.0,0.0,90.0,11.0,0.0
7498,43.0,0.0,150.0,2.0,0.0
7499,31.0,0.0,150.0,2.0,0.0
7500,59.0,0.0,90.0,12.0,0.0
7501,35.0,0.0,60.0,14.0,0.0
7502,67.0,0.0,150.0,1.0,0.0
7503,62.0,0.0,150.0,3.0,0.0
7504,59.0,0.0,150.0,3.0,0.0
7505,71.0,48.0,150.0,1.0,0.0
7506,79.0,0.0,150.0,0.0,0.0
7507,47.0,24.0,60.0,13.0,0.0
7508,55.0,48.0,90.0,11.0,0.0
7509,65.0,0.0,90.0,11.0,0.0
7510,59.0,0.0,90.0,12.0,0.0
7511,33.0,0.0,60.0,14.0,0.0
7512,65.0,120.0,90.0,11.0,0.0
7513,55.0,0.0,90.0,11.0,0.0
7514,45.0,24.0,60.0,13.0,0.0
7515,65.0,0.0,90.0,11.0,0.0
7516,31.0,0.0,150.0,2.0,0.0
7517,43.0,0.0,150.0,2.0,0.0
7518,79.0,0.0,150.0,0.0,0.0
7519,55.0,0.0,90.0,11.0,0.0
7520,71.0,0.0,150.0,1.0,0.0
7521,67.0,72.0,150.0,1.0,0.0
7522,59.0,48.0,90.0,12.0,0.0
7523,43.0,0.0,150.0,13.0,0.0
7524,59.0,0.0,150.0,3.0,0.0
7525,62.0,0.0,150.0,3.0,0.0
7526,31.0,0.0,150.0,14.0,0.0
7527,65.0,0.0,90.0,11.0,0.0
7528,59.0,0.0,90.0,12.0,0.0
7529,55.0,96.0,90.0,11.0,0.0
7530,75.0,24.0,60.0,10.0,0.0
7531,55.0,0.0,90.0,11.0,0.0
7532,65.0,48.0,90.0,11.0,0.0
7533,55.0,0.0,150.0,13.0,0.0
7534,59.0,0.0,90.0,12.0,0.0
7535,43.0,48.0,150.0,14.0,0.0
7536,55.0,120.0,90.0,11.0,0.0
7537,65.0,0.0,90.0,11.0,0.0
7538,59.0,0.0,90.0,12.0,0.0
7539,77.0,24.0,60.0,10.0,0.0
7540,48.0,0.0,390.0,13.0,0.0
7541,60.0,24.0,90.0,12.0,0.0
7542,36.0,0.0,390.0,14.0,0.0
7543,55.0,0.0,90.0,11.0,0.0
7544,63.0,0.0,90.0,11.0,0.0
7545,79.0,72.0,120.0,10.0,0.0
7546,77.0,24.0,60.0,10.0,0.0
7547,60.0,96.0,90.0,12.0,0.0
7548,55.0,0.0,90.0,11.0,0.0
7549,63.0,0.0,90.0,11.0,0.0
7550,79.0,0.0,150.0,0.0,0.0
7551,67.0,0.0,150.0,1.0,0.0
7552,72.0,48.0,150.0,1.0,0.0
7553,60.0,0.0,90.0,12.0,0.0
7554,60.0,0.0,150.0,3.0,0.0
7555,55.0,0.0,90.0,11.0,0.0
7556,63.0,48.0,90.0,11.0,0.0
7557,63.0,0.0,150.0,3.0,0.0
7558,48.0,0.0,150.0,2.0,0.0
7559,75.0,24.0,60.0,10.0,0.0
7560,36.0,0.0,150.0,2.0,0.0
7561,55.0,120.0,90.0,11.0,0.0
7562,63.0,0.0,90.0,11.0,0.0
7563,60.0,0.0,90.0,12.0,0.0
7564,74.0,24.0,60.0,10.0,0.0
7565,72.0,0.0,150.0,1.0,0.0
7566,67.0,0.0,150.0,1.0,0.0
7567,60.0,48.0,90.0,12.0,0.0
7568,63.0,0.0,90.0,11.0,0.0
7569,55.0,0.0,90.0,11.0,0.0
7570,36.0,0.0,150.0,2.0,0.0
7571,48.0,0.0,150.0,2.0,0.0
7572,60.0,0.0,150.0,3.0,0.0
7573,79.0,0.0,150.0,0.0,0.0
7574,63.0,72.0,150.0,3.0,0.0
7575,72.0,0.0,150.0,10.0,0.0
7576,63.0,96.0,90.0,11.0,0.0
7577,60.0,0.0,90.0,12.0,0.0
7578,55.0,0.0,90.0,11.0,0.0
7579,63.0,48.0,90.0,11.0,0.0
7580,34.0,0.0,60.0,14.0,0.0
7581,55.0,0.0,90.0,11.0,0.0
7582,74.0,48.0,150.0,10.0,0.0
7583,60.0,0.0,90.0,12.0,0.0
7584,46.0,24.0,60.0,13.0,0.0
7585,63.0,120.0,90.0,11.0,0.0
7586,60.0,0.0,90.0,12.0,0.0
7587,55.0,0.0,90.0,11.0,0.0
7588,48.0,24.0,60.0,13.0,0.0
7589,36.0,0.0,60.0,14.0,0.0
7590,63.0,0.0,390.0,4.0,0.0
7591,67.0,0.0,390.0,10.0,0.0
7592,49.0,72.0,120.0,13.0,0.0
7593,55.0,24.0,90.0,11.0,0.0
7594,58.0,0.0,90.0,12.0,0.0
7595,51.0,0.0,90.0,12.0,0.0
7596,37.0,0.0,120.0,14.0,0.0
7597,63.0,0.0,90.0,11.0,0.0
7598,36.0,0.0,60.0,14.0,0.0
7599,48.0,24.0,60.0,13.0,0.0
7600,55.0,0.0,90.0,11.0,0.0
7601,51.0,0.0,90.0,12.0,0.0
7602,63.0,0.0,90.0,11.0,0.0
7603,58.0,96.0,90.0,12.0,0.0
7604,55.0,0.0,90.0,11.0,0.0
7605,63.0,48.0,90.0,11.0,0.0
7606,58.0,0.0,90.0,12.0,0.0
7607,61.0,0.0,150.0,3.0,0.0
7608,63.0,0.0,150.0,3.0,0.0
7609,51.0,0.0,90.0,12.0,0.0
7610,67.0,0.0,150.0,1.0,0.0
7611,73.0,48.0,150.0,1.0,0.0
7612,79.0,0.0,150.0,0.0,0.0
7613,46.0,0.0,60.0,13.0,0.0
7614,46.0,0.0,150.0,2.0,0.0
7615,34.0,0.0,150.0,2.0,0.0
7616,34.0,24.0,60.0,14.0,0.0
7617,32.0,0.0,60.0,14.0,0.0
7618,58.0,0.0,90.0,12.0,0.0
7619,44.0,24.0,60.0,13.0,0.0
7620,51.0,0.0,90.0,12.0,0.0
7621,63.0,0.0,90.0,11.0,0.0
7622,55.0,120.0,90.0,11.0,0.0
7623,63.0,0.0,390.0,4.0,0.0
7624,67.0,0.0,150.0,1.0,0.0
7625,34.0,0.0,150.0,2.0,0.0
7626,46.0,72.0,150.0,2.0,0.0
7627,51.0,48.0,90.0,12.0,0.0
7628,58.0,0.0,90.0,12.0,0.0
7629,31.0,0.0,150.0,14.0,0.0
7630,61.0,0.0,150.0,3.0,0.0
7631,63.0,0.0,150.0,3.0,0.0
7632,73.0,0.0,150.0,1.0,0.0
7633,43.0,0.0,150.0,13.0,0.0
7634,55.0,0.0,90.0,11.0,0.0
7635,63.0,0.0,90.0,11.0,0.0
7636,79.0,0.0,150.0,0.0,0.0
7637,63.0,0.0,90.0,11.0,0.0
7638,55.0,96.0,90.0,11.0,0.0
7639,51.0,0.0,90.0,12.0,0.0
7640,58.0,0.0,90.0,12.0,0.0
7641,39.0,0.0,150.0,14.0,0.0
7642,63.0,0.0,90.0,11.0,0.0
7643,55.0,48.0,90.0,11.0,0.0
7644,51.0,48.0,150.0,13.0,0.0
7645,51.0,0.0,90.0,12.0,0.0
7646,72.0,24.0,60.0,10.0,0.0
7647,58.0,0.0,90.0,12.0,0.0
7648,51.0,0.0,90.0,12.0,0.0
7649,58.0,0.0,90.0,12.0,0.0
7650,63.0,120.0,90.0,11.0,0.0
7651,73.0,24.0,60.0,10.0,0.0
7652,55.0,0.0,90.0,11.0,0.0
7653,51.0,0.0,90.0,12.0,0.0
7654,60.0,0.0,90.0,12.0,0.0
7655,63.0,0.0,390.0,4.0,0.0
7656,48.0,0.0,390.0,13.0,0.0
7657,63.0,24.0,90.0,11.0,0.0
7658,56.0,0.0,90.0,11.0,0.0
7659,75.0,72.0,120.0,10.0,0.0
7660,36.0,0.0,390.0,14.0,0.0
7661,60.0,0.0,90.0,12.0,0.0
7662,51.0,96.0,90.0,12.0,0.0
7663,73.0,24.0,60.0,10.0,0.0
7664,56.0,0.0,90.0,11.0,0.0
7665,63.0,0.0,90.0,11.0,0.0
7666,51.0,48.0,90.0,12.0,0.0
7667,44.0,48.0,150.0,2.0,0.0
7668,60.0,0.0,90.0,12.0,0.0
7669,32.0,0.0,150.0,2.0,0.0
7670,63.0,0.0,90.0,11.0,0.0
7671,68.0,0.0,150.0,1.0,0.0
7672,60.0,0.0,150.0,3.0,0.0
7673,72.0,24.0,60.0,10.0,0.0
7674,72.0,0.0,150.0,1.0,0.0
7675,56.0,0.0,90.0,11.0,0.0
7676,63.0,0.0,150.0,3.0,0.0
7677,80.0,0.0,150.0,0.0,0.0
7678,56.0,0.0,90.0,11.0,0.0
7679,63.0,0.0,90.0,11.0,0.0
7680,51.0,120.0,90.0,12.0,0.0
7681,60.0,0.0,90.0,12.0,0.0
7682,70.0,24.0,60.0,10.0,0.0
7683,51.0,48.0,90.0,12.0,0.0
7684,60.0,0.0,90.0,12.0,0.0
7685,56.0,0.0,90.0,11.0,0.0
7686,68.0,0.0,150.0,1.0,0.0
7687,60.0,0.0,150.0,3.0,0.0
7688,68.0,0.0,150.0,10.0,0.0
7689,80.0,72.0,150.0,0.0,0.0
7690,72.0,0.0,150.0,1.0,0.0
7691,32.0,0.0,150.0,2.0,0.0
7692,44.0,0.0,150.0,2.0,0.0
7693,63.0,0.0,90.0,11.0,0.0
7694,63.0,0.0,150.0,3.0,0.0
7695,51.0,0.0,90.0,12.0,0.0
7696,56.0,0.0,90.0,11.0,0.0
7697,63.0,0.0,90.0,11.0,0.0
7698,60.0,96.0,90.0,12.0,0.0
7699,43.0,24.0,60.0,13.0,0.0
7700,56.0,0.0,90.0,11.0,0.0
7701,70.0,48.0,150.0,10.0,0.0
7702,31.0,0.0,60.0,14.0,0.0
7703,51.0,0.0,90.0,12.0,0.0
7704,60.0,48.0,90.0,12.0,0.0
7705,63.0,0.0,90.0,11.0,0.0
7706,63.0,0.0,90.0,11.0,0.0
7707,51.0,120.0,90.0,12.0,0.0
7708,60.0,0.0,90.0,12.0,0.0
7709,32.0,24.0,60.0,14.0,0.0
7710,44.0,0.0,60.0,13.0,0.0
7711,56.0,0.0,90.0,11.0,0.0
7712,51.0,0.0,90.0,12.0,0.0
7713,55.0,0.0,90.0,11.0,0.0
7714,46.0,72.0,120.0,13.0,0.0
7715,63.0,0.0,390.0,4.0,0.0
7716,61.0,0.0,90.0,12.0,0.0
7717,63.0,48.0,390.0,10.0,0.0
7718,63.0,24.0,90.0,11.0,0.0
7719,34.0,0.0,120.0,14.0,0.0
7720,32.0,0.0,60.0,14.0,0.0
7721,44.0,24.0,60.0,13.0,0.0
7722,61.0,0.0,90.0,12.0,0.0
7723,51.0,0.0,90.0,12.0,0.0
7724,55.0,0.0,90.0,11.0,0.0
7725,63.0,96.0,90.0,11.0,0.0
7726,67.0,0.0,150.0,1.0,0.0
7727,73.0,0.0,150.0,1.0,0.0
7728,82.0,0.0,150.0,0.0,0.0
7729,43.0,0.0,60.0,13.0,0.0
7730,61.0,0.0,90.0,12.0,0.0
7731,55.0,0.0,90.0,11.0,0.0
7732,31.0,24.0,60.0,14.0,0.0
7733,61.0,0.0,150.0,3.0,0.0
7734,63.0,0.0,150.0,3.0,0.0
7735,39.0,0.0,150.0,2.0,0.0
7736,51.0,0.0,150.0,2.0,0.0
7737,63.0,0.0,90.0,11.0,0.0
7738,51.0,48.0,90.0,12.0,0.0
7739,51.0,0.0,90.0,12.0,0.0
7740,61.0,120.0,90.0,12.0,0.0
7741,63.0,0.0,90.0,11.0,0.0
7742,55.0,0.0,90.0,11.0,0.0
7743,41.0,0.0,60.0,13.0,0.0
7744,29.0,24.0,60.0,14.0,0.0
7745,73.0,0.0,150.0,1.0,0.0
7746,67.0,0.0,150.0,1.0,0.0
7747,82.0,0.0,150.0,0.0,0.0
7748,51.0,0.0,150.0,2.0,0.0
7749,63.0,0.0,90.0,11.0,0.0
7750,27.0,0.0,150.0,14.0,0.0
7751,61.0,0.0,90.0,12.0,0.0
7752,51.0,48.0,90.0,12.0,0.0
7753,63.0,0.0,150.0,3.0,0.0
7754,61.0,0.0,150.0,3.0,0.0
7755,39.0,72.0,150.0,13.0,0.0
7756,55.0,0.0,90.0,11.0,0.0
7757,63.0,0.0,390.0,4.0,0.0
7758,39.0,0.0,150.0,2.0,0.0
7759,63.0,0.0,90.0,11.0,0.0
7760,61.0,0.0,90.0,12.0,0.0
7761,51.0,0.0,90.0,12.0,0.0
7762,55.0,96.0,90.0,11.0,0.0
7763,51.0,0.0,90.0,12.0,0.0
7764,61.0,48.0,90.0,12.0,0.0
7765,55.0,0.0,90.0,11.0,0.0
7766,39.0,0.0,150.0,14.0,0.0
7767,71.0,24.0,60.0,10.0,0.0
7768,51.0,48.0,150.0,13.0,0.0
7769,63.0,0.0,90.0,11.0,0.0
7770,73.0,24.0,60.0,10.0,0.0
7771,61.0,0.0,90.0,12.0,0.0
7772,63.0,0.0,90.0,11.0,0.0
7773,55.0,120.0,90.0,11.0,0.0
7774,51.0,0.0,90.0,12.0,0.0
7775,44.0,0.0,390.0,13.0,0.0
7776,63.0,0.0,90.0,11.0,0.0
7777,56.0,0.0,90.0,11.0,0.0
7778,51.0,0.0,90.0,12.0,0.0
7779,59.0,24.0,90.0,12.0,0.0
7780,32.0,0.0,390.0,14.0,0.0
7781,75.0,72.0,120.0,10.0,0.0
7782,63.0,0.0,390.0,4.0,0.0
7783,56.0,96.0,90.0,11.0,0.0
7784,63.0,0.0,90.0,11.0,0.0
7785,73.0,24.0,60.0,10.0,0.0
7786,59.0,0.0,90.0,12.0,0.0
7787,51.0,0.0,90.0,12.0,0.0
7788,59.0,0.0,90.0,12.0,0.0
7789,63.0,0.0,150.0,3.0,0.0
7790,56.0,0.0,150.0,2.0,0.0
7791,44.0,0.0,150.0,2.0,0.0
7792,56.0,0.0,90.0,11.0,0.0
7793,63.0,0.0,90.0,11.0,0.0
7794,59.0,0.0,150.0,3.0,0.0
7795,71.0,0.0,150.0,1.0,0.0
7796,51.0,48.0,90.0,12.0,0.0
7797,71.0,24.0,60.0,10.0,0.0
7798,83.0,0.0,150.0,0.0,0.0
7799,68.0,48.0,150.0,1.0,0.0
7800,59.0,0.0,90.0,12.0,0.0
7801,70.0,24.0,60.0,10.0,0.0
7802,51.0,0.0,90.0,12.0,0.0
7803,56.0,120.0,90.0,11.0,0.0
7804,63.0,0.0,90.0,11.0,0.0
7805,59.0,48.0,90.0,12.0,0.0
7806,83.0,0.0,150.0,0.0,0.0
7807,59.0,0.0,150.0,3.0,0.0
7808,68.0,0.0,150.0,10.0,0.0
7809,63.0,0.0,150.0,3.0,0.0
7810,56.0,0.0,90.0,11.0,0.0
7811,51.0,0.0,90.0,12.0,0.0
7812,68.0,72.0,150.0,1.0,0.0
7813,71.0,0.0,150.0,1.0,0.0
7814,44.0,0.0,150.0,2.0,0.0
7815,56.0,0.0,150.0,2.0,0.0
7816,63.0,0.0,90.0,11.0,0.0
7817,63.0,0.0,90.0,11.0,0.0
7818,56.0,0.0,90.0,11.0,0.0
7819,51.0,96.0,90.0,12.0,0.0
7820,59.0,0.0,90.0,12.0,0.0
7821,55.0,0.0,60.0,13.0,0.0
7822,59.0,48.0,90.0,12.0,0.0
7823,51.0,0.0,90.0,12.0,0.0
7824,43.0,24.0,60.0,14.0,0.0
7825,70.0,48.0,150.0,10.0,0.0
7826,63.0,0.0,90.0,11.0,0.0
7827,56.0,0.0,90.0,11.0,0.0
7828,51.0,0.0,90.0,12.0,0.0
7829,59.0,0.0,90.0,12.0,0.0
7830,56.0,24.0,60.0,13.0,0.0
7831,56.0,0.0,90.0,11.0,0.0
7832,63.0,120.0,90.0,11.0,0.0
7833,44.0,0.0,60.0,14.0,0.0
7834,55.0,0.0,90.0,11.0,0.0
7835,63.0,0.0,390.0,4.0,0.0
7836,63.0,24.0,90.0,11.0,0.0
7837,46.0,72.0,120.0,14.0,0.0
7838,58.0,0.0,120.0,13.0,0.0
7839,63.0,0.0,390.0,10.0,0.0
7840,61.0,0.0,90.0,12.0,0.0
7841,51.0,0.0,90.0,12.0,0.0
7842,61.0,0.0,90.0,12.0,0.0
7843,56.0,24.0,60.0,13.0,0.0
7844,63.0,0.0,90.0,11.0,0.0
7845,55.0,0.0,90.0,11.0,0.0
7846,51.0,96.0,90.0,12.0,0.0
7847,44.0,0.0,60.0,14.0,0.0
7848,43.0,24.0,60.0,14.0,0.0
7849,79.0,0.0,150.0,1.0,0.0
7850,51.0,0.0,90.0,12.0,0.0
7851,61.0,0.0,150.0,3.0,0.0
7852,63.0,0.0,150.0,3.0,0.0
7853,61.0,0.0,90.0,12.0,0.0
7854,55.0,0.0,60.0,13.0,0.0
7855,70.0,0.0,150.0,1.0,0.0
7856,85.0,48.0,150.0,0.0,0.0
7857,63.0,48.0,90.0,11.0,0.0
7858,55.0,0.0,90.0,11.0,0.0
7859,58.0,0.0,150.0,2.0,0.0
7860,55.0,0.0,150.0,2.0,0.0
7861,41.0,0.0,60.0,14.0,0.0
7862,61.0,0.0,90.0,12.0,0.0
7863,55.0,0.0,90.0,11.0,0.0
7864,63.0,0.0,90.0,11.0,0.0
7865,51.0,120.0,90.0,12.0,0.0
7866,53.0,24.0,60.0,13.0,0.0
7867,51.0,48.0,90.0,12.0,0.0
7868,61.0,0.0,90.0,12.0,0.0
7869,63.0,54.0,390.0,4.0,0.0
7870,39.0,0.0,150.0,14.0,0.0
7871,58.0,72.0,150.0,2.0,0.0
7872,55.0,0.0,150.0,2.0,0.0
7873,55.0,0.0,90.0,11.0,0.0
7874,63.0,0.0,90.0,11.0,0.0
7875,63.0,0.0,150.0,3.0,0.0
7876,61.0,0.0,150.0,3.0,0.0
7877,51.0,0.0,150.0,13.0,0.0
7878,70.0,0.0,150.0,1.0,0.0
7879,79.0,0.0,150.0,1.0,0.0
7880,85.0,0.0,150.0,0.0,0.0
7881,55.0,102.0,90.0,11.0,0.0
7882,63.0,0.0,90.0,11.0,0.0
7883,51.0,0.0,90.0,12.0,0.0
7884,61.0,0.0,90.0,12.0,0.0
7885,51.0,0.0,90.0,12.0,0.0
7886,63.0,0.0,150.0,13.0,0.0
7887,71.0,18.0,90.0,10.0,0.0
7888,61.0,48.0,90.0,12.0,0.0
7889,63.0,0.0,90.0,11.0,0.0
7890,55.0,0.0,90.0,11.0,0.0
7891,51.0,0.0,150.0,14.0,0.0
7892,61.0,0.0,90.0,12.0,0.0
7893,51.0,144.0,90.0,12.0,0.0
7894,55.0,0.0,90.0,11.0,0.0
7895,63.0,0.0,90.0,11.0,0.0
7896,73.0,18.0,90.0,10.0,0.0
7897,47.0,42.0,150.0,14.0,0.0
7898,59.0,30.0,780.0,3.0,0.0
7899,59.0,0.0,150.0,12.0,0.0
7900,63.0,36.0,120.0,11.0,0.0
7901,75.0,0.0,120.0,10.0,0.0
7902,47.0,54.0,390.0,5.0,0.0
7903,63.0,0.0,780.0,3.0,0.0
7904,63.0,0.0,390.0,4.0,0.0
7905,59.0,0.0,150.0,13.0,0.0
7906,51.0,0.0,150.0,12.0,0.0
7907,73.0,0.0,90.0,10.0,0.0
7908,61.0,120.0,90.0,11.0,0.0
7909,44.0,66.0,90.0,14.0,0.0
7910,56.0,0.0,90.0,13.0,0.0
7911,59.0,0.0,90.0,11.0,0.0
7912,56.0,0.0,90.0,12.0,0.0
7913,71.0,0.0,90.0,10.0,0.0
7914,58.0,0.0,90.0,13.0,0.0
7915,46.0,0.0,90.0,14.0,0.0
7916,58.0,0.0,90.0,12.0,0.0
7917,58.0,162.0,90.0,11.0,0.0
7918,70.0,0.0,90.0,10.0,0.0
7919,68.0,42.0,150.0,10.0,0.0
7920,59.0,36.0,120.0,13.0,0.0
7921,47.0,0.0,120.0,14.0,0.0
7922,56.0,0.0,150.0,11.0,0.0
7923,59.0,0.0,120.0,12.0,0.0
7924,46.0,0.0,90.0,14.0,0.0
7925,58.0,0.0,90.0,12.0,0.0
7926,58.0,90.0,90.0,13.0,0.0
7927,56.0,0.0,90.0,13.0,0.0
7928,64.0,66.0,90.0,11.0,0.0
7929,68.0,0.0,150.0,0.0,0.0
7930,56.0,0.0,90.0,12.0,0.0
7931,68.0,54.0,150.0,1.0,0.0
7932,56.0,0.0,150.0,1.0,0.0
7933,76.0,0.0,90.0,10.0,0.0
7934,44.0,0.0,150.0,2.0,0.0
7935,44.0,0.0,90.0,14.0,0.0
7936,78.0,162.0,90.0,10.0,0.0
7937,54.0,0.0,90.0,12.0,0.0
7938,54.0,0.0,90.0,13.0,0.0
7939,42.0,0.0,90.0,14.0,0.0
7940,66.0,0.0,90.0,11.0,0.0
7941,68.0,36.0,120.0,11.0,0.0
7942,40.0,42.0,150.0,14.0,0.0
7943,73.0,54.0,390.0,4.0,0.0
7944,52.0,0.0,150.0,12.0,0.0
7945,73.0,0.0,240.0,0.0,0.0
7946,80.0,0.0,120.0,10.0,0.0
7947,73.0,0.0,240.0,1.0,0.0
7948,64.0,30.0,780.0,3.0,0.0
7949,61.0,0.0,780.0,3.0,0.0
7950,52.0,0.0,150.0,13.0,0.0
7951,49.0,78.0,240.0,2.0,0.0
7952,61.0,0.0,240.0,1.0,0.0
7953,78.0,42.0,90.0,10.0,0.0
7954,66.0,0.0,90.0,11.0,0.0
7955,76.0,0.0,90.0,10.0,0.0
7956,64.0,66.0,90.0,11.0,0.0
7957,76.0,0.0,150.0,0.0,0.0
7958,49.0,0.0,90.0,12.0,0.0
7959,64.0,0.0,150.0,1.0,0.0
7960,49.0,0.0,90.0,13.0,0.0
7961,52.0,0.0,150.0,2.0,0.0
7962,76.0,0.0,150.0,1.0,0.0
7963,37.0,0.0,90.0,14.0,0.0
7964,51.0,162.0,90.0,13.0,0.0
7965,75.0,0.0,90.0,10.0,0.0
7966,51.0,0.0,90.0,12.0,0.0
7967,63.0,0.0,90.0,11.0,0.0
7968,39.0,0.0,90.0,14.0,0.0
7969,56.0,0.0,150.0,2.0,0.0
7970,52.0,0.0,120.0,13.0,0.0
7971,52.0,0.0,120.0,12.0,0.0
7972,80.0,12.0,150.0,1.0,0.0
7973,40.0,24.0,120.0,14.0,0.0
7974,68.0,0.0,150.0,1.0,0.0
7975,80.0,0.0,150.0,0.0,0.0
7976,61.0,42.0,150.0,11.0,0.0
7977,73.0,0.0,150.0,10.0,0.0
7978,39.0,0.0,90.0,14.0,0.0
7979,51.0,0.0,90.0,13.0,0.0
7980,51.0,90.0,90.0,12.0,0.0
7981,70.0,0.0,90.0,10.0,0.0
7982,68.0,0.0,150.0,1.0,0.0
7983,56.0,0.0,150.0,2.0,0.0
7984,58.0,0.0,90.0,11.0,0.0
7985,49.0,0.0,90.0,12.0,0.0
7986,80.0,54.0,150.0,0.0,0.0
7987,49.0,0.0,90.0,13.0,0.0
7988,80.0,0.0,150.0,1.0,0.0
7989,37.0,66.0,90.0,14.0,0.0
7990,47.0,162.0,90.0,13.0,0.0
7991,47.0,0.0,90.0,12.0,0.0
7992,71.0,0.0,90.0,10.0,0.0
7993,59.0,0.0,90.0,11.0,0.0
7994,35.0,0.0,90.0,14.0,0.0
7995,46.0,0.0,150.0,12.0,0.0
7996,56.0,78.0,240.0,2.0,0.0
7997,80.0,0.0,240.0,1.0,0.0
7998,68.0,0.0,240.0,1.0,0.0
7999,54.0,0.0,390.0,4.0,0.0
8000,66.0,0.0,390.0,4.0,0.0
8001,61.0,0.0,120.0,11.0,0.0
8002,42.0,0.0,390.0,5.0,0.0
8003,80.0,0.0,240.0,0.0,0.0
8004,61.0,0.0,780.0,3.0,0.0
8005,54.0,30.0,780.0,3.0,0.0
8006,34.0,0.0,150.0,14.0,0.0
8007,73.0,36.0,120.0,10.0,0.0
8008,46.0,42.0,150.0,13.0,0.0
8009,71.0,0.0,90.0,10.0,0.0
8010,59.0,42.0,90.0,11.0,0.0
8011,54.0,0.0,90.0,12.0,0.0
8012,42.0,0.0,90.0,14.0,0.0
8013,54.0,66.0,90.0,13.0,0.0
8014,54.0,0.0,150.0,2.0,0.0
8015,70.0,0.0,90.0,10.0,0.0
8016,58.0,0.0,90.0,11.0,0.0
8017,78.0,0.0,150.0,1.0,0.0
8018,66.0,54.0,150.0,1.0,0.0
8019,78.0,0.0,150.0,0.0,0.0
8020,56.0,0.0,90.0,12.0,0.0
8021,56.0,0.0,90.0,11.0,0.0
8022,44.0,0.0,90.0,14.0,0.0
8023,68.0,162.0,90.0,10.0,0.0
8024,56.0,0.0,90.0,13.0,0.0
8025,54.0,42.0,150.0,11.0,0.0
8026,58.0,0.0,120.0,12.0,0.0
8027,58.0,36.0,120.0,13.0,0.0
8028,66.0,0.0,150.0,10.0,0.0
8029,46.0,0.0,120.0,14.0,0.0
8030,56.0,0.0,90.0,12.0,0.0
8031,56.0,0.0,90.0,13.0,0.0
8032,44.0,90.0,90.0,14.0,0.0
8033,73.0,0.0,90.0,10.0,0.0
8034,61.0,0.0,90.0,11.0,0.0
8035,66.0,0.0,150.0,0.0,0.0
8036,42.0,54.0,150.0,2.0,0.0
8037,42.0,0.0,90.0,14.0,0.0
8038,54.0,66.0,90.0,12.0,0.0
8039,66.0,0.0,150.0,1.0,0.0
8040,54.0,0.0,150.0,1.0,0.0
8041,54.0,0.0,90.0,13.0,0.0
8042,40.0,0.0,90.0,14.0,0.0
8043,76.0,0.0,90.0,10.0,0.0
8044,52.0,162.0,90.0,12.0,0.0
8045,64.0,0.0,90.0,11.0,0.0
8046,52.0,0.0,90.0,13.0,0.0
8047,63.0,0.0,780.0,3.0,0.0
8048,51.0,0.0,150.0,13.0,0.0
8049,51.0,42.0,150.0,12.0,0.0
8050,66.0,0.0,120.0,11.0,0.0
8051,59.0,30.0,780.0,3.0,0.0
8052,71.0,0.0,240.0,1.0,0.0
8053,59.0,0.0,240.0,1.0,0.0
8054,71.0,0.0,390.0,4.0,0.0
8055,59.0,0.0,390.0,4.0,0.0
8056,39.0,0.0,150.0,14.0,0.0
8057,47.0,0.0,240.0,2.0,0.0
8058,47.0,0.0,390.0,5.0,0.0
8059,71.0,78.0,240.0,0.0,0.0
8060,78.0,36.0,120.0,10.0,0.0
8061,64.0,42.0,90.0,11.0,0.0
8062,76.0,0.0,90.0,10.0,0.0
8063,47.0,0.0,90.0,13.0,0.0
8064,63.0,0.0,150.0,1.0,0.0
8065,51.0,0.0,150.0,2.0,0.0
8066,75.0,54.0,150.0,1.0,0.0
8067,35.0,66.0,90.0,14.0,0.0
8068,75.0,0.0,150.0,0.0,0.0
8069,47.0,0.0,90.0,12.0,0.0
8070,75.0,0.0,90.0,10.0,0.0
8071,63.0,0.0,90.0,11.0,0.0
8072,37.0,0.0,90.0,14.0,0.0
8073,73.0,0.0,90.0,10.0,0.0
8074,49.0,0.0,90.0,13.0,0.0
8075,49.0,162.0,90.0,12.0,0.0
8076,61.0,0.0,90.0,11.0,0.0
8077,51.0,0.0,120.0,13.0,0.0
8078,78.0,0.0,150.0,1.0,0.0
8079,66.0,0.0,150.0,1.0,0.0
8080,59.0,0.0,150.0,11.0,0.0
8081,51.0,24.0,120.0,12.0,0.0
8082,39.0,0.0,120.0,14.0,0.0
8083,71.0,42.0,150.0,10.0,0.0
8084,78.0,0.0,150.0,0.0,0.0
8085,54.0,12.0,150.0,2.0,0.0
8086,49.0,0.0,90.0,13.0,0.0
8087,49.0,0.0,90.0,12.0,0.0
8088,37.0,90.0,90.0,14.0,0.0
8089,54.0,54.0,150.0,2.0,0.0
8090,47.0,0.0,90.0,12.0,0.0
8091,78.0,0.0,150.0,1.0,0.0
8092,78.0,0.0,150.0,0.0,0.0
8093,47.0,66.0,90.0,13.0,0.0
8094,66.0,0.0,150.0,1.0,0.0
8095,56.0,0.0,90.0,11.0,0.0
8096,68.0,0.0,90.0,10.0,0.0
8097,35.0,0.0,90.0,14.0,0.0
8098,58.0,0.0,90.0,11.0,0.0
8099,34.0,0.0,90.0,14.0,0.0
8100,70.0,0.0,90.0,10.0,0.0
8101,46.0,162.0,90.0,12.0,0.0
8102,46.0,0.0,90.0,13.0,0.0
8103,59.0,0.0,120.0,11.0,0.0
8104,32.0,0.0,150.0,14.0,0.0
8105,47.0,0.0,390.0,5.0,0.0
8106,54.0,0.0,240.0,2.0,0.0
8107,78.0,0.0,240.0,0.0,0.0
8108,78.0,0.0,240.0,1.0,0.0
8109,66.0,78.0,240.0,1.0,0.0
8110,59.0,0.0,390.0,4.0,0.0
8111,44.0,0.0,780.0,3.0,0.0
8112,59.0,30.0,780.0,3.0,0.0
8113,44.0,0.0,150.0,13.0,0.0
8114,44.0,42.0,150.0,12.0,0.0
8115,71.0,0.0,390.0,4.0,0.0
8116,71.0,36.0,120.0,10.0,0.0
8117,58.0,0.0,90.0,11.0,0.0
8118,70.0,42.0,90.0,10.0,0.0
8119,40.0,66.0,90.0,14.0,0.0
8120,76.0,0.0,150.0,0.0,0.0
8121,68.0,0.0,90.0,10.0,0.0
8122,52.0,0.0,150.0,2.0,0.0
8123,64.0,54.0,150.0,1.0,0.0
8124,76.0,0.0,150.0,1.0,0.0
8125,52.0,0.0,90.0,12.0,0.0
8126,52.0,0.0,90.0,13.0,0.0
8127,56.0,0.0,90.0,11.0,0.0
8128,66.0,0.0,90.0,10.0,0.0
8129,54.0,0.0,90.0,12.0,0.0
8130,54.0,0.0,90.0,13.0,0.0
8131,42.0,0.0,90.0,14.0,0.0
8132,54.0,162.0,90.0,11.0,0.0
8133,56.0,0.0,120.0,12.0,0.0
8134,64.0,0.0,150.0,10.0,0.0
8135,44.0,0.0,120.0,14.0,0.0
8136,56.0,36.0,120.0,13.0,0.0
8137,52.0,42.0,150.0,11.0,0.0
8138,54.0,90.0,90.0,12.0,0.0
8139,54.0,0.0,90.0,13.0,0.0
8140,42.0,0.0,90.0,14.0,0.0
8141,40.0,0.0,150.0,2.0,0.0
8142,73.0,0.0,90.0,10.0,0.0
8143,61.0,0.0,90.0,11.0,0.0
8144,52.0,0.0,90.0,13.0,0.0
8145,64.0,0.0,150.0,1.0,0.0
8146,52.0,0.0,150.0,1.0,0.0
8147,40.0,0.0,90.0,14.0,0.0
8148,64.0,54.0,150.0,0.0,0.0
8149,52.0,66.0,90.0,12.0,0.0
8150,39.0,0.0,90.0,14.0,0.0
8151,75.0,0.0,90.0,10.0,0.0
8152,63.0,162.0,90.0,11.0,0.0
8153,51.0,0.0,90.0,12.0,0.0
8154,51.0,0.0,90.0,13.0,0.0
8155,70.0,0.0,240.0,1.0,0.0
8156,61.0,30.0,780.0,3.0,0.0
8157,64.0,0.0,120.0,11.0,0.0
8158,49.0,0.0,150.0,12.0,0.0
8159,58.0,78.0,240.0,1.0,0.0
8160,70.0,0.0,240.0,0.0,0.0
8161,49.0,0.0,150.0,13.0,0.0
8162,64.0,0.0,780.0,3.0,0.0
8163,73.0,0.0,390.0,4.0,0.0
8164,46.0,0.0,240.0,2.0,0.0
8165,76.0,36.0,120.0,10.0,0.0
8166,37.0,42.0,150.0,14.0,0.0
8167,75.0,0.0,90.0,10.0,0.0
8168,63.0,42.0,90.0,11.0,0.0
8169,73.0,0.0,90.0,10.0,0.0
8170,46.0,0.0,90.0,14.0,0.0
8171,58.0,0.0,90.0,12.0,0.0
8172,73.0,0.0,150.0,0.0,0.0
8173,73.0,0.0,150.0,1.0,0.0
8174,49.0,0.0,150.0,2.0,0.0
8175,61.0,66.0,90.0,11.0,0.0
8176,61.0,54.0,150.0,1.0,0.0
8177,58.0,0.0,90.0,13.0,0.0
8178,59.0,0.0,90.0,12.0,0.0
8179,59.0,162.0,90.0,11.0,0.0
8180,71.0,0.0,90.0,10.0,0.0
8181,47.0,0.0,90.0,14.0,0.0
8182,59.0,0.0,90.0,13.0,0.0
8183,76.0,0.0,150.0,1.0,0.0
8184,49.0,0.0,120.0,14.0,0.0
8185,64.0,0.0,150.0,1.0,0.0
8186,61.0,0.0,120.0,12.0,0.0
8187,61.0,24.0,120.0,13.0,0.0
8188,76.0,0.0,150.0,0.0,0.0
8189,70.0,0.0,150.0,10.0,0.0
8190,52.0,12.0,150.0,2.0,0.0
8191,58.0,42.0,150.0,11.0,0.0
8192,59.0,0.0,90.0,12.0,0.0
8193,59.0,0.0,90.0,13.0,0.0
8194,47.0,90.0,90.0,14.0,0.0
8195,64.0,0.0,150.0,1.0,0.0
8196,46.0,0.0,90.0,14.0,0.0
8197,58.0,0.0,90.0,12.0,0.0
8198,76.0,0.0,150.0,1.0,0.0
8199,55.0,0.0,90.0,11.0,0.0
8200,76.0,54.0,150.0,0.0,0.0
8201,52.0,0.0,150.0,2.0,0.0
8202,67.0,66.0,90.0,10.0,0.0
8203,58.0,0.0,90.0,13.0,0.0
8204,56.0,0.0,90.0,12.0,0.0
8205,68.0,0.0,90.0,10.0,0.0
8206,56.0,0.0,90.0,11.0,0.0
8207,44.0,0.0,90.0,14.0,0.0
8208,56.0,162.0,90.0,13.0,0.0
8209,55.0,0.0,150.0,12.0,0.0
8210,63.0,0.0,390.0,4.0,0.0
8211,73.0,0.0,390.0,4.0,0.0
8212,76.0,78.0,240.0,0.0,0.0
8213,63.0,0.0,780.0,3.0,0.0
8214,58.0,36.0,120.0,11.0,0.0
8215,52.0,0.0,240.0,2.0,0.0
8216,70.0,0.0,120.0,10.0,0.0
8217,76.0,0.0,240.0,1.0,0.0
8218,55.0,42.0,150.0,13.0,0.0
8219,64.0,0.0,240.0,1.0,0.0
8220,61.0,30.0,780.0,3.0,0.0
8221,43.0,0.0,150.0,14.0,0.0
8222,56.0,0.0,90.0,11.0,0.0
8223,68.0,42.0,90.0,10.0,0.0
8224,63.0,0.0,150.0,1.0,0.0
8225,51.0,0.0,90.0,13.0,0.0
8226,75.0,0.0,150.0,1.0,0.0
8227,39.0,0.0,90.0,14.0,0.0
8228,55.0,0.0,90.0,11.0,0.0
8229,51.0,54.0,150.0,2.0,0.0
8230,75.0,0.0,150.0,0.0,0.0
8231,51.0,66.0,90.0,12.0,0.0
8232,67.0,0.0,90.0,10.0,0.0
8233,65.0,0.0,90.0,10.0,0.0
8234,41.0,0.0,90.0,14.0,0.0
8235,53.0,0.0,90.0,12.0,0.0
8236,53.0,162.0,90.0,13.0,0.0
8237,53.0,0.0,90.0,11.0,0.0
8238,63.0,0.0,150.0,10.0,0.0
8239,43.0,0.0,120.0,14.0,0.0
8240,55.0,0.0,120.0,13.0,0.0
8241,51.0,42.0,150.0,11.0,0.0
8242,55.0,36.0,120.0,12.0,0.0
8243,41.0,0.0,90.0,14.0,0.0
8244,53.0,0.0,90.0,13.0,0.0
8245,53.0,90.0,90.0,12.0,0.0
8246,39.0,66.0,90.0,14.0,0.0
8247,63.0,0.0,150.0,0.0,0.0
8248,63.0,0.0,150.0,1.0,0.0
8249,51.0,0.0,90.0,13.0,0.0
8250,71.0,0.0,90.0,10.0,0.0
8251,51.0,0.0,150.0,2.0,0.0
8252,59.0,0.0,90.0,11.0,0.0
8253,39.0,54.0,150.0,2.0,0.0
8254,51.0,0.0,90.0,12.0,0.0
8255,49.0,0.0,90.0,13.0,0.0
8256,49.0,162.0,90.0,12.0,0.0
8257,37.0,0.0,90.0,14.0,0.0
8258,61.0,0.0,90.0,11.0,0.0
8259,73.0,0.0,90.0,10.0,0.0
8260,56.0,0.0,240.0,2.0,0.0
8261,59.0,0.0,390.0,3.0,0.0
8262,63.0,0.0,120.0,11.0,0.0
8263,47.0,42.0,150.0,12.0,0.0
8264,47.0,0.0,150.0,13.0,0.0
8265,63.0,0.0,390.0,3.0,0.0
8266,44.0,78.0,240.0,2.0,0.0
8267,35.0,0.0,150.0,14.0,0.0
8268,47.0,0.0,390.0,5.0,0.0
8269,71.0,0.0,390.0,4.0,0.0
8270,75.0,36.0,120.0,10.0,0.0
8271,63.0,0.0,390.0,4.0,0.0
8272,68.0,0.0,240.0,1.0,0.0
8273,68.0,0.0,240.0,0.0,0.0
8274,73.0,0.0,90.0,10.0,0.0
8275,61.0,42.0,90.0,11.0,0.0
8276,71.0,0.0,90.0,10.0,0.0
8277,56.0,0.0,90.0,13.0,0.0
8278,71.0,54.0,150.0,0.0,0.0
8279,59.0,66.0,90.0,11.0,0.0
8280,71.0,0.0,150.0,1.0,0.0
8281,47.0,0.0,150.0,2.0,0.0
8282,56.0,0.0,90.0,12.0,0.0
8283,59.0,0.0,150.0,2.0,0.0
8284,44.0,0.0,90.0,14.0,0.0
8285,58.0,0.0,90.0,13.0,0.0
8286,58.0,0.0,90.0,11.0,0.0
8287,46.0,0.0,90.0,14.0,0.0
8288,70.0,0.0,90.0,10.0,0.0
8289,58.0,162.0,90.0,12.0,0.0
8290,56.0,0.0,150.0,11.0,0.0
8291,75.0,0.0,150.0,0.0,0.0
8292,68.0,42.0,150.0,10.0,0.0
8293,59.0,0.0,120.0,12.0,0.0
8294,75.0,12.0,150.0,1.0,0.0
8295,63.0,0.0,150.0,2.0,0.0
8296,51.0,0.0,150.0,2.0,0.0
8297,47.0,0.0,120.0,14.0,0.0
8298,59.0,24.0,120.0,13.0,0.0
8299,46.0,0.0,90.0,14.0,0.0
8300,58.0,0.0,90.0,12.0,0.0
8301,58.0,120.0,90.0,13.0,0.0
8302,44.0,0.0,90.0,14.0,0.0
8303,56.0,0.0,90.0,12.0,0.0
8304,51.0,0.0,150.0,2.0,0.0
8305,75.0,0.0,150.0,0.0,0.0
8306,75.0,54.0,150.0,1.0,0.0
8307,56.0,0.0,90.0,11.0,0.0
8308,68.0,66.0,90.0,10.0,0.0
8309,63.0,0.0,150.0,2.0,0.0
8310,56.0,0.0,90.0,13.0,0.0
8311,54.0,0.0,90.0,12.0,0.0
8312,54.0,0.0,90.0,13.0,0.0
8313,42.0,0.0,90.0,14.0,0.0
8314,58.0,162.0,90.0,11.0,0.0
8315,70.0,0.0,90.0,10.0,0.0
8316,47.0,0.0,390.0,3.0,0.0
8317,59.0,0.0,390.0,3.0,0.0
8318,40.0,42.0,150.0,14.0,0.0
8319,59.0,36.0,120.0,11.0,0.0
8320,52.0,0.0,150.0,12.0,0.0
8321,63.0,0.0,240.0,2.0,0.0
8322,51.0,0.0,240.0,2.0,0.0
8323,71.0,54.0,390.0,4.0,0.0
8324,59.0,0.0,390.0,4.0,0.0
8325,75.0,0.0,240.0,0.0,0.0
8326,75.0,78.0,240.0,1.0,0.0
8327,52.0,0.0,150.0,13.0,0.0
8328,71.0,0.0,120.0,10.0,0.0
8329,47.0,0.0,390.0,5.0,0.0
8330,58.0,42.0,90.0,11.0,0.0
8331,70.0,0.0,90.0,10.0,0.0
8332,52.0,0.0,90.0,13.0,0.0
8333,52.0,0.0,90.0,12.0,0.0
8334,56.0,0.0,90.0,11.0,0.0
8335,74.0,0.0,150.0,0.0,0.0
8336,50.0,0.0,150.0,2.0,0.0
8337,62.0,0.0,150.0,2.0,0.0
8338,74.0,0.0,150.0,1.0,0.0
8339,40.0,0.0,90.0,14.0,0.0
8340,68.0,66.0,90.0,10.0,0.0
8341,54.0,0.0,90.0,11.0,0.0
8342,42.0,162.0,90.0,14.0,0.0
8343,54.0,0.0,90.0,13.0,0.0
8344,54.0,0.0,90.0,12.0,0.0
8345,66.0,0.0,90.0,10.0,0.0
8346,56.0,0.0,120.0,12.0,0.0
8347,52.0,0.0,150.0,11.0,0.0
8348,44.0,0.0,120.0,14.0,0.0
8349,47.0,0.0,390.0,3.0,0.0
8350,59.0,54.0,390.0,3.0,0.0
8351,56.0,36.0,120.0,13.0,0.0
8352,64.0,42.0,150.0,10.0,0.0
8353,54.0,0.0,90.0,13.0,0.0
8354,42.0,0.0,90.0,14.0,0.0
8355,54.0,120.0,90.0,12.0,0.0
8356,64.0,0.0,90.0,10.0,0.0
8357,52.0,66.0,90.0,12.0,0.0
8358,80.0,0.0,240.0,0.0,0.0
8359,68.0,0.0,240.0,1.0,0.0
8360,44.0,0.0,240.0,2.0,0.0
8361,52.0,0.0,90.0,13.0,0.0
8362,52.0,0.0,90.0,11.0,0.0
8363,40.0,0.0,90.0,14.0,0.0
8364,56.0,120.0,240.0,2.0,0.0
8365,66.0,0.0,90.0,10.0,0.0
8366,51.0,0.0,90.0,13.0,0.0
8367,54.0,42.0,90.0,11.0,0.0
8368,51.0,0.0,90.0,12.0,0.0
8369,39.0,0.0,90.0,14.0,0.0
8370,71.0,0.0,390.0,4.0,0.0
8371,59.0,0.0,390.0,4.0,0.0
8372,50.0,6.0,300.0,13.0,0.0
8373,83.0,0.0,480.0,0.0,0.0
8374,47.0,0.0,390.0,3.0,0.0
8375,59.0,54.0,390.0,3.0,0.0
8376,71.0,156.0,480.0,1.0,0.0
8377,38.0,0.0,300.0,14.0,0.0
8378,59.0,0.0,480.0,2.0,0.0
8379,47.0,0.0,480.0,2.0,0.0
8380,68.0,0.0,120.0,10.0,0.0
8381,50.0,0.0,300.0,12.0,0.0
8382,56.0,78.0,120.0,11.0,0.0
8383,54.0,0.0,90.0,11.0,0.0
8384,66.0,114.0,90.0,10.0,0.0
8385,52.0,0.0,90.0,11.0,0.0
8386,64.0,66.0,90.0,10.0,0.0
8387,51.0,0.0,90.0,11.0,0.0
8388,63.0,42.0,90.0,10.0,0.0
8389,28.0,84.0,300.0,14.0,0.0
8390,82.0,0.0,240.0,0.0,0.0
8391,46.0,0.0,240.0,2.0,0.0
8392,58.0,0.0,240.0,2.0,0.0
8393,62.0,84.0,150.0,10.0,0.0
8394,62.0,0.0,150.0,11.0,0.0
8395,62.0,0.0,300.0,12.0,0.0
8396,70.0,72.0,240.0,1.0,0.0
8397,40.0,0.0,300.0,13.0,0.0
8398,52.0,0.0,300.0,12.0,0.0
8399,44.0,384.0,240.0,2.0,0.0
8400,62.0,0.0,150.0,11.0,0.0
8401,56.0,0.0,240.0,2.0,0.0
8402,80.0,0.0,240.0,0.0,0.0
8403,74.0,84.0,150.0,10.0,0.0
8404,68.0,0.0,240.0,1.0,0.0
8405,43.0,0.0,390.0,2.0,0.0
8406,63.0,0.0,390.0,11.0,0.0
8407,55.0,0.0,390.0,2.0,0.0
8408,67.0,414.0,390.0,1.0,0.0
8409,51.0,0.0,390.0,3.0,0.0
8410,63.0,0.0,390.0,3.0,0.0
8411,75.0,0.0,390.0,4.0,0.0
8412,63.0,0.0,390.0,4.0,0.0
8413,27.0,0.0,390.0,14.0,0.0
8414,51.0,0.0,390.0,12.0,0.0
8415,79.0,0.0,390.0,0.0,0.0
8416,39.0,0.0,390.0,13.0,0.0
8417,63.0,0.0,390.0,12.0,0.0
8418,75.0,0.0,390.0,10.0,0.0
8419,55.0,0.0,90.0,10.0,0.0
8420,55.0,0.0,90.0,12.0,0.0
8421,31.0,0.0,90.0,14.0,0.0
8422,43.0,0.0,90.0,13.0,0.0
8423,55.0,120.0,90.0,11.0,0.0
8424,44.0,0.0,90.0,13.0,0.0
8425,56.0,0.0,90.0,10.0,0.0
8426,32.0,0.0,90.0,14.0,0.0
8427,56.0,162.0,90.0,12.0,0.0
8428,56.0,0.0,90.0,11.0,0.0
8429,58.0,0.0,390.0,2.0,0.0
8430,55.0,0.0,390.0,2.0,0.0
8431,70.0,0.0,390.0,1.0,0.0
8432,46.0,0.0,120.0,13.0,0.0
8433,67.0,0.0,390.0,1.0,0.0
8434,58.0,0.0,120.0,12.0,0.0
8435,58.0,0.0,120.0,10.0,0.0
8436,75.0,0.0,390.0,0.0,0.0
8437,34.0,78.0,120.0,14.0,0.0
8438,75.0,0.0,390.0,4.0,0.0
8439,63.0,54.0,390.0,4.0,0.0
8440,51.0,0.0,390.0,3.0,0.0
8441,63.0,0.0,390.0,3.0,0.0
8442,58.0,0.0,120.0,11.0,0.0
8443,56.0,120.0,90.0,11.0,0.0
8444,44.0,0.0,90.0,13.0,0.0
8445,32.0,0.0,90.0,14.0,0.0
8446,56.0,0.0,90.0,12.0,0.0
8447,56.0,0.0,90.0,10.0,0.0
8448,31.0,0.0,90.0,14.0,0.0
8449,55.0,66.0,90.0,12.0,0.0
8450,43.0,0.0,90.0,13.0,0.0
8451,55.0,0.0,90.0,10.0,0.0
8452,55.0,0.0,90.0,11.0,0.0
8453,53.0,0.0,90.0,11.0,0.0
8454,53.0,0.0,90.0,10.0,0.0
8455,29.0,0.0,90.0,14.0,0.0
8456,53.0,198.0,90.0,12.0,0.0
8457,41.0,0.0,90.0,13.0,0.0
8458,27.0,0.0,150.0,14.0,0.0
8459,51.0,0.0,150.0,10.0,0.0
8460,51.0,0.0,150.0,12.0,0.0
8461,39.0,0.0,150.0,13.0,0.0
8462,51.0,162.0,150.0,11.0,0.0
8463,67.0,0.0,90.0,10.0,0.0
8464,55.0,120.0,90.0,13.0,0.0
8465,43.0,0.0,90.0,14.0,0.0
8466,67.0,0.0,90.0,11.0,0.0
8467,67.0,0.0,90.0,12.0,0.0
8468,68.0,0.0,90.0,11.0,0.0
8469,68.0,0.0,90.0,12.0,0.0
8470,68.0,0.0,90.0,10.0,0.0
8471,44.0,0.0,90.0,14.0,0.0
8472,56.0,162.0,90.0,13.0,0.0
8473,51.0,0.0,390.0,3.0,0.0
8474,63.0,0.0,390.0,3.0,0.0
8475,70.0,78.0,120.0,10.0,0.0
8476,46.0,0.0,120.0,14.0,0.0
8477,75.0,0.0,390.0,4.0,0.0
8478,79.0,0.0,390.0,1.0,0.0
8479,55.0,0.0,390.0,2.0,0.0
8480,70.0,0.0,390.0,1.0,0.0
8481,70.0,0.0,120.0,12.0,0.0
8482,58.0,54.0,390.0,2.0,0.0
8483,63.0,0.0,390.0,4.0,0.0
8484,87.0,0.0,390.0,0.0,0.0
8485,58.0,0.0,120.0,13.0,0.0
8486,70.0,0.0,120.0,11.0,0.0
8487,68.0,0.0,90.0,12.0,0.0
8488,68.0,0.0,90.0,11.0,0.0
8489,44.0,0.0,90.0,14.0,0.0
8490,68.0,0.0,90.0,10.0,0.0
8491,56.0,120.0,90.0,13.0,0.0
8492,67.0,0.0,90.0,12.0,0.0
8493,43.0,0.0,90.0,14.0,0.0
8494,55.0,0.0,90.0,13.0,0.0
8495,67.0,0.0,90.0,10.0,0.0
8496,67.0,66.0,90.0,11.0,0.0
8497,65.0,0.0,90.0,12.0,0.0
8498,65.0,0.0,90.0,11.0,0.0
8499,53.0,234.0,90.0,13.0,0.0
8500,41.0,0.0,90.0,14.0,0.0
8501,65.0,0.0,90.0,10.0,0.0
8502,63.0,0.0,180.0,11.0,0.0
8503,63.0,0.0,180.0,10.0,0.0
8504,63.0,0.0,180.0,12.0,0.0
8505,39.0,1086.0,180.0,14.0,0.0
8506,51.0,0.0,180.0,13.0,0.0
8507,78.0,120.0,90.0,10.0,0.0
8508,66.0,0.0,90.0,11.0,0.0
8509,80.0,0.0,90.0,10.0,0.0
8510,68.0,162.0,90.0,11.0,0.0
8511,70.0,0.0,120.0,11.0,0.0
8512,82.0,72.0,120.0,10.0,0.0
8513,51.0,6.0,180.0,13.0,0.0
8514,80.0,120.0,90.0,10.0,0.0
8515,68.0,0.0,90.0,11.0,0.0
8516,66.0,114.0,90.0,11.0,0.0
8517,51.0,6.0,180.0,13.0,0.0
8518,78.0,0.0,90.0,10.0,0.0
8519,77.0,0.0,90.0,10.0,0.0
8520,65.0,198.0,90.0,11.0,0.0
8521,51.0,192.0,180.0,13.0,0.0
8522,51.0,0.0,390.0,2.0,0.0
8523,75.0,0.0,150.0,10.0,0.0
8524,66.0,0.0,390.0,1.0,0.0
8525,63.0,36.0,150.0,11.0,0.0
8526,70.0,48.0,390.0,1.0,0.0
8527,51.0,240.0,180.0,13.0,0.0
8528,51.0,48.0,390.0,2.0,0.0
8529,54.0,0.0,390.0,2.0,0.0
8530,51.0,192.0,180.0,13.0,0.0
8531,70.0,0.0,390.0,1.0,0.0
8532,66.0,0.0,390.0,1.0,0.0
8533,51.0,240.0,180.0,13.0,0.0
8534,58.0,48.0,390.0,2.0,0.0
8535,70.0,0.0,390.0,1.0,0.0
8536,66.0,0.0,390.0,1.0,0.0
8537,51.0,0.0,390.0,2.0,0.0
8538,51.0,192.0,180.0,13.0,0.0
8539,51.0,240.0,180.0,13.0,0.0
8540,51.0,240.0,180.0,13.0,0.0
8541,60.0,192.0,480.0,2.0,0.0
8542,69.0,0.0,480.0,1.0,0.0
8543,66.0,0.0,480.0,1.0,0.0
8544,51.0,0.0,480.0,2.0,0.0
8545,51.0,48.0,180.0,13.0,0.0
8546,70.0,0.0,390.0,1.0,0.0
8547,65.0,0.0,390.0,1.0,0.0
8548,53.0,48.0,390.0,2.0,0.0
8549,50.0,126.0,180.0,13.0,0.0
8550,50.0,0.0,390.0,2.0,0.0
8551,50.0,6.0,180.0,13.0,0.0
8552,62.0,66.0,90.0,10.0,0.0
8553,63.0,162.0,90.0,10.0,0.0
8554,70.0,0.0,1350.0,1.0,0.0
8555,50.0,0.0,1350.0,2.0,0.0
8556,58.0,0.0,1350.0,2.0,0.0
8557,65.0,48.0,1350.0,1.0,0.0
8558,65.0,72.0,120.0,10.0,0.0
8559,50.0,6.0,180.0,13.0,0.0
8560,63.0,120.0,90.0,10.0,0.0
8561,62.0,114.0,90.0,10.0,0.0
8562,50.0,6.0,180.0,13.0,0.0
8563,60.0,198.0,90.0,10.0,0.0
8564,50.0,126.0,180.0,13.0,0.0
8565,58.0,36.0,150.0,10.0,0.0
8566,62.0,0.0,90.0,11.0,0.0
8567,74.0,114.0,90.0,10.0,0.0
8568,50.0,6.0,180.0,13.0,0.0
8569,63.0,162.0,90.0,11.0,0.0
8570,75.0,0.0,90.0,10.0,0.0
8571,77.0,72.0,120.0,10.0,0.0
8572,65.0,0.0,120.0,11.0,0.0
8573,50.0,6.0,180.0,13.0,0.0
8574,63.0,0.0,90.0,11.0,0.0
8575,75.0,120.0,90.0,10.0,0.0
8576,74.0,66.0,90.0,10.0,0.0
8577,62.0,0.0,90.0,11.0,0.0
8578,50.0,6.0,180.0,13.0,0.0
8579,72.0,0.0,90.0,10.0,0.0
8580,60.0,198.0,90.0,11.0,0.0
8581,53.0,0.0,390.0,2.0,0.0
8582,70.0,0.0,150.0,10.0,0.0
8583,50.0,48.0,390.0,2.0,0.0
8584,58.0,36.0,150.0,11.0,0.0
8585,70.0,0.0,390.0,1.0,0.0
8586,65.0,0.0,390.0,1.0,0.0
8587,50.0,192.0,180.0,13.0,0.0
8588,50.0,240.0,180.0,13.0,0.0
8589,50.0,0.0,390.0,2.0,0.0
8590,62.0,48.0,390.0,2.0,0.0
8591,50.0,192.0,180.0,13.0,0.0
8592,65.0,0.0,390.0,1.0,0.0
8593,70.0,0.0,390.0,1.0,0.0
8594,50.0,240.0,180.0,13.0,0.0
8595,50.0,48.0,390.0,2.0,0.0
8596,70.0,0.0,390.0,1.0,0.0
8597,50.0,192.0,180.0,13.0,0.0
8598,58.0,0.0,390.0,2.0,0.0
8599,65.0,0.0,390.0,1.0,0.0
8600,50.0,240.0,180.0,13.0,0.0
8601,72.0,0.0,480.0,1.0,0.0
8602,66.0,192.0,480.0,1.0,0.0
8603,51.0,240.0,180.0,13.0,0.0
8604,51.0,0.0,480.0,2.0,0.0
8605,57.0,0.0,480.0,2.0,0.0
8606,51.0,48.0,180.0,13.0,0.0
8607,58.0,0.0,390.0,2.0,0.0
8608,49.0,48.0,390.0,2.0,0.0
8609,65.0,0.0,390.0,1.0,0.0
8610,70.0,0.0,390.0,1.0,0.0
8611,49.0,126.0,180.0,13.0,0.0
8612,61.0,66.0,90.0,10.0,0.0
8613,49.0,6.0,180.0,13.0,0.0
8614,63.0,162.0,90.0,10.0,0.0
8615,49.0,6.0,180.0,13.0,0.0
8616,58.0,0.0,1350.0,2.0,0.0
8617,70.0,48.0,1350.0,1.0,0.0
8618,65.0,0.0,1350.0,1.0,0.0
8619,65.0,72.0,120.0,10.0,0.0
8620,49.0,0.0,1350.0,2.0,0.0
8621,63.0,120.0,90.0,10.0,0.0
8622,61.0,114.0,90.0,10.0,0.0
8623,49.0,6.0,180.0,13.0,0.0
8624,60.0,198.0,90.0,10.0,0.0
8625,58.0,36.0,150.0,10.0,0.0
8626,49.0,126.0,180.0,13.0,0.0
8627,73.0,114.0,90.0,10.0,0.0
8628,49.0,6.0,180.0,13.0,0.0
8629,61.0,0.0,90.0,11.0,0.0
8630,63.0,0.0,90.0,11.0,0.0
8631,75.0,162.0,90.0,10.0,0.0
8632,65.0,72.0,120.0,11.0,0.0
8633,49.0,6.0,180.0,13.0,0.0
8634,77.0,0.0,120.0,10.0,0.0
8635,75.0,120.0,90.0,10.0,0.0
8636,63.0,0.0,90.0,11.0,0.0
8637,49.0,6.0,180.0,13.0,0.0
8638,61.0,0.0,90.0,11.0,0.0
8639,73.0,66.0,90.0,10.0,0.0
8640,60.0,0.0,90.0,11.0,0.0
8641,72.0,198.0,90.0,10.0,0.0
8642,65.0,0.0,390.0,1.0,0.0
8643,70.0,0.0,390.0,1.0,0.0
8644,49.0,48.0,390.0,2.0,0.0
8645,58.0,0.0,150.0,11.0,0.0
8646,53.0,0.0,390.0,2.0,0.0
8647,49.0,192.0,180.0,13.0,0.0
8648,70.0,36.0,150.0,10.0,0.0
8649,49.0,240.0,180.0,13.0,0.0
8650,49.0,0.0,390.0,2.0,0.0
8651,61.0,0.0,390.0,2.0,0.0
8652,70.0,48.0,390.0,1.0,0.0
8653,65.0,0.0,390.0,1.0,0.0
8654,49.0,192.0,180.0,13.0,0.0
8655,49.0,240.0,180.0,13.0,0.0
8656,70.0,48.0,390.0,1.0,0.0
8657,65.0,0.0,390.0,1.0,0.0
8658,49.0,0.0,390.0,2.0,0.0
8659,49.0,192.0,180.0,13.0,0.0
8660,58.0,0.0,390.0,2.0,0.0
8661,49.0,240.0,180.0,13.0,0.0
8662,71.0,0.0,480.0,1.0,0.0
8663,64.0,48.0,2310.0,1.0,0.0
8664,49.0,0.0,2310.0,2.0,0.0
8665,56.0,192.0,480.0,2.0,0.0
8666,49.0,240.0,180.0,13.0,0.0
8667,49.0,48.0,180.0,13.0,0.0
8668,49.0,126.0,180.0,13.0,0.0
8669,55.0,48.0,390.0,2.0,0.0
8670,70.0,0.0,390.0,1.0,0.0
8671,49.0,6.0,180.0,13.0,0.0
8672,61.0,66.0,90.0,10.0,0.0
8673,63.0,162.0,90.0,10.0,0.0
8674,70.0,0.0,1350.0,1.0,0.0
8675,55.0,30.0,780.0,2.0,0.0
8676,49.0,6.0,180.0,13.0,0.0
8677,64.0,72.0,120.0,10.0,0.0
8678,63.0,120.0,90.0,10.0,0.0
8679,49.0,6.0,180.0,13.0,0.0
8680,61.0,114.0,90.0,10.0,0.0
8681,59.0,198.0,90.0,10.0,0.0
8682,49.0,96.0,180.0,13.0,0.0
8683,58.0,36.0,150.0,10.0,0.0
8684,49.0,6.0,180.0,13.0,0.0
8685,61.0,0.0,90.0,11.0,0.0
8686,73.0,114.0,90.0,10.0,0.0
8687,75.0,0.0,90.0,10.0,0.0
8688,63.0,162.0,90.0,11.0,0.0
8689,76.0,0.0,120.0,10.0,0.0
8690,49.0,6.0,180.0,13.0,0.0
8691,64.0,72.0,120.0,11.0,0.0
8692,52.0,0.0,390.0,2.0,0.0
8693,54.0,0.0,2100.0,3.0,0.0
8694,42.0,0.0,1920.0,3.0,0.0
8695,75.0,0.0,90.0,10.0,0.0
8696,63.0,120.0,90.0,11.0,0.0
8697,73.0,66.0,90.0,10.0,0.0
8698,61.0,0.0,90.0,11.0,0.0
8699,49.0,6.0,180.0,13.0,0.0
8700,59.0,0.0,90.0,11.0,0.0
8701,71.0,198.0,90.0,10.0,0.0
8702,49.0,0.0,480.0,2.0,0.0
8703,58.0,0.0,150.0,11.0,0.0
8704,70.0,36.0,150.0,10.0,0.0
8705,46.0,240.0,180.0,13.0,0.0
8706,70.0,0.0,480.0,1.0,0.0
8707,46.0,0.0,480.0,2.0,0.0
8708,46.0,48.0,180.0,13.0,0.0
8709,73.0,192.0,15.0,1.0,0.0
8710,76.0,0.0,480.0,1.0,0.0
8711,42.0,0.0,960.0,2.0,0.0
8712,46.0,192.0,480.0,2.0,0.0
8713,42.0,240.0,180.0,13.0,0.0
8714,42.0,48.0,180.0,13.0,0.0
8715,64.0,0.0,480.0,1.0,0.0
8716,61.0,120.0,480.0,2.0,0.0
8717,54.0,120.0,180.0,13.0,0.0
8718,70.0,0.0,480.0,1.0,0.0
8719,54.0,0.0,180.0,13.0,0.0
8720,75.0,120.0,60.0,10.0,0.0
8721,76.0,48.0,60.0,10.0,0.0
8722,78.0,72.0,120.0,10.0,0.0
8723,47.0,0.0,180.0,3.0,0.0
8724,71.0,0.0,180.0,1.0,0.0
8725,63.0,0.0,120.0,11.0,0.0
8726,35.0,0.0,180.0,2.0,0.0
8727,59.0,0.0,180.0,2.0,0.0
8728,47.0,48.0,180.0,13.0,0.0
8729,63.0,0.0,180.0,1.0,0.0
8730,66.0,72.0,120.0,11.0,0.0
8731,76.0,0.0,60.0,10.0,0.0
8732,63.0,72.0,120.0,11.0,0.0
8733,75.0,48.0,60.0,10.0,0.0
8734,73.0,48.0,60.0,10.0,0.0
8735,66.0,120.0,120.0,11.0,0.0
8736,71.0,96.0,150.0,10.0,0.0
8737,63.0,24.0,120.0,11.0,0.0
8738,66.0,120.0,120.0,11.0,0.0
8739,85.0,0.0,150.0,0.0,0.0
8740,73.0,48.0,150.0,10.0,0.0
8741,63.0,24.0,120.0,11.0,0.0
8742,66.0,168.0,60.0,11.0,0.0
8743,78.0,0.0,720.0,0.0,0.0
8744,64.0,120.0,120.0,11.0,0.0
8745,66.0,24.0,570.0,10.0,0.0
8746,66.0,120.0,120.0,11.0,0.0
8747,64.0,120.0,120.0,11.0,0.0
8748,66.0,96.0,120.0,11.0,0.0
8749,64.0,120.0,120.0,11.0,0.0
8750,66.0,72.0,120.0,11.0,0.0
8751,80.0,0.0,120.0,0.0,0.0
8752,64.0,72.0,120.0,11.0,0.0
8753,68.0,48.0,60.0,10.0,0.0
8754,82.0,144.0,90.0,0.0,0.0
8755,70.0,0.0,60.0,10.0,0.0
8756,66.0,24.0,60.0,11.0,0.0
8757,71.0,72.0,120.0,10.0,0.0
8758,83.0,0.0,120.0,0.0,0.0
8759,63.0,0.0,120.0,11.0,0.0
8760,66.0,72.0,120.0,11.0,0.0
8761,82.0,0.0,120.0,0.0,0.0
8762,70.0,48.0,60.0,10.0,0.0
8763,63.0,0.0,120.0,11.0,0.0
8764,68.0,48.0,60.0,10.0,0.0
8765,80.0,72.0,120.0,0.0,0.0
8766,66.0,48.0,60.0,10.0,0.0
8767,78.0,72.0,120.0,0.0,0.0
8768,66.0,0.0,120.0,11.0,0.0
8769,64.0,48.0,60.0,10.0,0.0
8770,58.0,0.0,120.0,11.0,0.0
8771,76.0,72.0,120.0,0.0,0.0
8772,66.0,72.0,120.0,11.0,0.0
8773,75.0,0.0,120.0,0.0,0.0
8774,63.0,48.0,60.0,10.0,0.0
8775,64.0,48.0,60.0,10.0,0.0
8776,76.0,0.0,120.0,0.0,0.0
8777,58.0,72.0,120.0,11.0,0.0
8778,66.0,24.0,60.0,10.0,0.0
8779,78.0,144.0,90.0,0.0,0.0
8780,66.0,0.0,60.0,11.0,0.0
8781,63.0,0.0,570.0,10.0,0.0
8782,59.0,120.0,120.0,11.0,0.0
8783,75.0,24.0,570.0,0.0,0.0
8784,66.0,120.0,120.0,11.0,0.0
8785,59.0,120.0,120.0,11.0,0.0
8786,66.0,96.0,120.0,11.0,0.0
8787,59.0,120.0,120.0,11.0,0.0
8788,66.0,78.0,120.0,11.0,0.0
8789,59.0,72.0,120.0,11.0,0.0
8790,52.0,0.0,90.0,2.0,0.0
8791,64.0,42.0,90.0,10.0,0.0
8792,66.0,6.0,60.0,11.0,0.0
8793,66.0,0.0,90.0,10.0,0.0
8794,54.0,162.0,90.0,2.0,0.0
8795,56.0,0.0,150.0,2.0,0.0
8796,52.0,36.0,120.0,11.0,0.0
8797,68.0,84.0,150.0,10.0,0.0
8798,61.0,78.0,120.0,11.0,0.0
8799,58.0,0.0,90.0,2.0,0.0
8800,70.0,42.0,90.0,10.0,0.0
8801,52.0,78.0,120.0,11.0,0.0
8802,61.0,120.0,120.0,11.0,0.0
8803,59.0,42.0,90.0,2.0,0.0
8804,71.0,0.0,90.0,10.0,0.0
8805,52.0,0.0,120.0,11.0,0.0
8806,73.0,36.0,120.0,10.0,0.0
8807,61.0,42.0,150.0,2.0,0.0
8808,75.0,42.0,90.0,10.0,0.0
8809,61.0,78.0,120.0,11.0,0.0
8810,61.0,42.0,150.0,2.0,0.0
8811,76.0,42.0,90.0,10.0,0.0
8812,52.0,36.0,120.0,11.0,0.0
8813,75.0,42.0,90.0,10.0,0.0
8814,61.0,120.0,120.0,11.0,0.0
8815,71.0,0.0,120.0,10.0,0.0
8816,59.0,78.0,120.0,2.0,0.0
8817,52.0,0.0,120.0,11.0,0.0
8818,70.0,0.0,90.0,10.0,0.0
8819,58.0,42.0,90.0,2.0,0.0
8820,61.0,78.0,120.0,11.0,0.0
8821,68.0,42.0,90.0,10.0,0.0
8822,52.0,78.0,120.0,11.0,0.0
8823,56.0,0.0,90.0,2.0,0.0
8824,54.0,0.0,90.0,2.0,0.0
8825,61.0,120.0,120.0,11.0,0.0
8826,66.0,42.0,90.0,10.0,0.0
8827,59.0,84.0,150.0,2.0,0.0
8828,51.0,36.0,120.0,11.0,0.0
8829,71.0,0.0,150.0,10.0,0.0
8830,59.0,78.0,120.0,11.0,0.0
8831,73.0,42.0,90.0,10.0,0.0
8832,51.0,36.0,120.0,11.0,0.0
8833,47.0,42.0,150.0,2.0,0.0
8834,59.0,120.0,120.0,11.0,0.0
8835,75.0,42.0,90.0,10.0,0.0
8836,58.0,12.0,120.0,11.0,0.0
8837,73.0,24.0,120.0,1.0,0.0
8838,46.0,0.0,120.0,2.0,0.0
8839,76.0,84.0,150.0,10.0,0.0
8840,76.0,0.0,120.0,1.0,0.0
8841,78.0,0.0,120.0,0.0,0.0
8842,66.0,120.0,120.0,11.0,0.0
8843,76.0,0.0,120.0,1.0,0.0
8844,58.0,12.0,120.0,11.0,0.0
8845,78.0,24.0,120.0,0.0,0.0
8846,42.0,0.0,120.0,2.0,0.0
8847,76.0,84.0,150.0,10.0,0.0
8848,73.0,0.0,120.0,1.0,0.0
8849,66.0,120.0,120.0,11.0,0.0
8850,47.0,0.0,120.0,2.0,0.0
8851,75.0,84.0,150.0,10.0,0.0
8852,78.0,24.0,120.0,0.0,0.0
8853,75.0,0.0,120.0,1.0,0.0
8854,71.0,0.0,120.0,1.0,0.0
8855,59.0,12.0,120.0,11.0,0.0
8856,66.0,120.0,120.0,11.0,0.0
8857,75.0,84.0,150.0,10.0,0.0
8858,78.0,0.0,120.0,0.0,0.0
8859,59.0,12.0,120.0,11.0,0.0
8860,71.0,0.0,120.0,1.0,0.0
8861,35.0,24.0,120.0,2.0,0.0
8862,75.0,0.0,120.0,1.0,0.0
8863,66.0,120.0,120.0,11.0,0.0
8864,42.0,120.0,180.0,2.0,0.0
8865,78.0,0.0,180.0,0.0,0.0
8866,73.0,72.0,120.0,10.0,0.0
8867,54.0,48.0,390.0,11.0,0.0
8868,70.0,0.0,180.0,1.0,0.0
8869,73.0,0.0,180.0,1.0,0.0
8870,70.0,0.0,60.0,10.0,0.0
8871,71.0,72.0,60.0,10.0,0.0
8872,68.0,192.0,60.0,10.0,0.0
8873,66.0,168.0,150.0,10.0,0.0
8874,63.0,120.0,60.0,11.0,0.0
8875,75.0,0.0,60.0,10.0,0.0
8876,64.0,168.0,60.0,11.0,0.0
8877,76.0,0.0,60.0,10.0,0.0
8878,83.0,0.0,720.0,0.0,0.0
8879,66.0,0.0,120.0,11.0,0.0
8880,59.0,0.0,390.0,4.0,0.0
8881,71.0,48.0,390.0,4.0,0.0
8882,51.0,0.0,120.0,12.0,0.0
8883,59.0,0.0,720.0,2.0,0.0
8884,51.0,0.0,780.0,3.0,0.0
8885,47.0,0.0,390.0,5.0,0.0
8886,51.0,0.0,120.0,13.0,0.0
8887,39.0,48.0,180.0,14.0,0.0
8888,71.0,48.0,720.0,1.0,0.0
8889,59.0,72.0,780.0,3.0,0.0
8890,78.0,72.0,120.0,10.0,0.0
8891,54.0,0.0,120.0,13.0,0.0
8892,76.0,0.0,60.0,10.0,0.0
8893,54.0,72.0,120.0,12.0,0.0
8894,64.0,0.0,60.0,11.0,0.0
8895,51.0,0.0,120.0,13.0,0.0
8896,75.0,48.0,60.0,10.0,0.0
8897,39.0,48.0,180.0,14.0,0.0
8898,63.0,0.0,60.0,11.0,0.0
8899,51.0,24.0,120.0,12.0,0.0
8900,61.0,0.0,60.0,11.0,0.0
8901,54.0,120.0,120.0,13.0,0.0
8902,54.0,0.0,120.0,12.0,0.0
8903,73.0,0.0,60.0,10.0,0.0
8904,71.0,48.0,150.0,10.0,0.0
8905,59.0,0.0,150.0,11.0,0.0
8906,39.0,48.0,180.0,14.0,0.0
8907,51.0,24.0,120.0,12.0,0.0
8908,51.0,0.0,120.0,13.0,0.0
8909,54.0,0.0,120.0,12.0,0.0
8910,54.0,0.0,120.0,13.0,0.0
8911,61.0,168.0,180.0,2.0,0.0
8912,51.0,0.0,120.0,13.0,0.0
8913,73.0,0.0,180.0,1.0,0.0
8914,85.0,0.0,180.0,0.0,0.0
8915,73.0,0.0,150.0,10.0,0.0
8916,51.0,24.0,120.0,12.0,0.0
8917,61.0,48.0,150.0,11.0,0.0
8918,39.0,0.0,180.0,14.0,0.0
8919,54.0,0.0,60.0,13.0,0.0
8920,54.0,0.0,60.0,12.0,0.0
8921,54.0,0.0,780.0,3.0,0.0
8922,61.0,30.0,780.0,3.0,0.0
8923,42.0,0.0,390.0,5.0,0.0
8924,66.0,24.0,570.0,10.0,0.0
8925,52.0,72.0,120.0,13.0,0.0
8926,78.0,0.0,720.0,0.0,0.0
8927,66.0,0.0,720.0,1.0,0.0
8928,40.0,48.0,180.0,14.0,0.0
8929,54.0,0.0,570.0,11.0,0.0
8930,66.0,48.0,390.0,4.0,0.0
8931,54.0,0.0,390.0,4.0,0.0
8932,54.0,0.0,720.0,2.0,0.0
8933,52.0,0.0,120.0,12.0,0.0
8934,54.0,0.0,120.0,12.0,0.0
8935,54.0,120.0,120.0,13.0,0.0
8936,52.0,24.0,120.0,13.0,0.0
8937,52.0,0.0,120.0,12.0,0.0
8938,40.0,48.0,180.0,14.0,0.0
8939,54.0,0.0,120.0,12.0,0.0
8940,54.0,96.0,120.0,13.0,0.0
8941,52.0,72.0,120.0,13.0,0.0
8942,40.0,48.0,180.0,14.0,0.0
8943,52.0,0.0,120.0,12.0,0.0
8944,54.0,0.0,120.0,12.0,0.0
8945,54.0,48.0,120.0,13.0,0.0
8946,68.0,0.0,90.0,10.0,0.0
8947,52.0,0.0,120.0,12.0,0.0
8948,56.0,42.0,90.0,11.0,0.0
8949,40.0,0.0,180.0,14.0,0.0
8950,56.0,0.0,120.0,2.0,0.0
8951,68.0,72.0,120.0,1.0,0.0
8952,80.0,0.0,120.0,0.0,0.0
8953,52.0,0.0,120.0,13.0,0.0
8954,58.0,144.0,90.0,2.0,0.0
8955,54.0,0.0,60.0,13.0,0.0
8956,82.0,0.0,90.0,0.0,0.0
8957,54.0,6.0,60.0,12.0,0.0
8958,70.0,18.0,90.0,10.0,0.0
8959,70.0,0.0,90.0,1.0,0.0
8960,58.0,0.0,90.0,11.0,0.0
8961,66.0,0.0,390.0,4.0,0.0
8962,39.0,6.0,180.0,14.0,0.0
8963,59.0,0.0,180.0,3.0,0.0
8964,63.0,0.0,180.0,3.0,0.0
8965,51.0,0.0,120.0,12.0,0.0
8966,51.0,0.0,120.0,13.0,0.0
8967,54.0,0.0,390.0,4.0,0.0
8968,59.0,0.0,120.0,2.0,0.0
8969,47.0,48.0,390.0,5.0,0.0
8970,83.0,0.0,120.0,0.0,0.0
8971,59.0,0.0,120.0,11.0,0.0
8972,71.0,0.0,120.0,10.0,0.0
8973,71.0,72.0,120.0,1.0,0.0
8974,54.0,0.0,120.0,12.0,0.0
8975,70.0,72.0,120.0,1.0,0.0
8976,58.0,42.0,90.0,11.0,0.0
8977,82.0,0.0,120.0,0.0,0.0
8978,54.0,0.0,120.0,13.0,0.0
8979,58.0,0.0,120.0,2.0,0.0
8980,70.0,0.0,90.0,10.0,0.0
8981,80.0,0.0,120.0,0.0,0.0
8982,59.0,0.0,180.0,3.0,0.0
8983,63.0,0.0,180.0,3.0,0.0
8984,56.0,0.0,120.0,2.0,0.0
8985,56.0,0.0,60.0,11.0,0.0
8986,51.0,24.0,120.0,12.0,0.0
8987,51.0,0.0,120.0,13.0,0.0
8988,68.0,48.0,60.0,10.0,0.0
8989,68.0,0.0,120.0,1.0,0.0
8990,39.0,0.0,180.0,14.0,0.0
8991,54.0,0.0,120.0,2.0,0.0
8992,54.0,78.0,120.0,13.0,0.0
8993,66.0,0.0,60.0,10.0,0.0
8994,54.0,0.0,120.0,12.0,0.0
8995,66.0,0.0,120.0,1.0,0.0
8996,78.0,0.0,120.0,0.0,0.0
8997,54.0,48.0,60.0,11.0,0.0
8998,42.0,0.0,390.0,5.0,0.0
8999,64.0,0.0,90.0,10.0,0.0
9000,64.0,72.0,120.0,1.0,0.0
9001,66.0,0.0,390.0,4.0,0.0
9002,52.0,0.0,120.0,2.0,0.0
9003,76.0,0.0,120.0,0.0,0.0
9004,61.0,0.0,180.0,3.0,0.0
9005,54.0,6.0,180.0,3.0,0.0
9006,34.0,0.0,180.0,14.0,0.0
9007,52.0,42.0,90.0,11.0,0.0
9008,54.0,48.0,390.0,4.0,0.0
9009,46.0,0.0,120.0,12.0,0.0
9010,46.0,0.0,120.0,13.0,0.0
9011,63.0,42.0,90.0,10.0,0.0
9012,63.0,0.0,120.0,1.0,0.0
9013,54.0,0.0,120.0,13.0,0.0
9014,51.0,0.0,120.0,2.0,0.0
9015,75.0,78.0,120.0,0.0,0.0
9016,51.0,0.0,90.0,11.0,0.0
9017,54.0,0.0,120.0,12.0,0.0
9018,34.0,6.0,180.0,14.0,0.0
9019,64.0,0.0,120.0,1.0,0.0
9020,46.0,24.0,120.0,12.0,0.0
9021,76.0,0.0,120.0,0.0,0.0
9022,54.0,0.0,180.0,3.0,0.0
9023,61.0,0.0,180.0,3.0,0.0
9024,52.0,0.0,120.0,2.0,0.0
9025,64.0,42.0,90.0,10.0,0.0
9026,46.0,0.0,120.0,13.0,0.0
9027,52.0,0.0,90.0,11.0,0.0
9028,78.0,0.0,90.0,0.0,0.0
9029,54.0,0.0,90.0,11.0,0.0
9030,54.0,0.0,60.0,12.0,0.0
9031,54.0,144.0,90.0,2.0,0.0
9032,66.0,0.0,90.0,1.0,0.0
9033,66.0,18.0,90.0,10.0,0.0
9034,54.0,0.0,60.0,13.0,0.0
9035,59.0,0.0,780.0,3.0,0.0
9036,63.0,48.0,720.0,1.0,0.0
9037,59.0,0.0,390.0,4.0,0.0
9038,35.0,48.0,180.0,14.0,0.0
9039,51.0,0.0,720.0,2.0,0.0
9040,63.0,0.0,570.0,10.0,0.0
9041,66.0,0.0,390.0,4.0,0.0
9042,47.0,0.0,120.0,13.0,0.0
9043,47.0,48.0,390.0,5.0,0.0
9044,47.0,72.0,120.0,12.0,0.0
9045,75.0,0.0,720.0,0.0,0.0
9046,51.0,24.0,570.0,11.0,0.0
9047,51.0,24.0,780.0,3.0,0.0
9048,54.0,0.0,120.0,13.0,0.0
9049,54.0,120.0,120.0,12.0,0.0
9050,35.0,48.0,180.0,14.0,0.0
9051,47.0,0.0,120.0,12.0,0.0
9052,47.0,24.0,120.0,13.0,0.0
9053,54.0,0.0,120.0,13.0,0.0
9054,54.0,96.0,120.0,12.0,0.0
9055,47.0,0.0,120.0,12.0,0.0
9056,47.0,72.0,120.0,13.0,0.0
9057,35.0,48.0,180.0,14.0,0.0
9058,54.0,0.0,120.0,13.0,0.0
9059,54.0,0.0,120.0,12.0,0.0
9060,47.0,72.0,120.0,13.0,0.0
9061,47.0,0.0,120.0,12.0,0.0
9062,52.0,0.0,120.0,2.0,0.0
9063,76.0,0.0,120.0,0.0,0.0
9064,35.0,0.0,180.0,14.0,0.0
9065,64.0,0.0,120.0,1.0,0.0
9066,52.0,0.0,60.0,11.0,0.0
9067,64.0,48.0,60.0,10.0,0.0
9068,54.0,144.0,90.0,2.0,0.0
9069,54.0,0.0,60.0,11.0,0.0
9070,54.0,0.0,60.0,12.0,0.0
9071,66.0,0.0,90.0,1.0,0.0
9072,78.0,0.0,90.0,0.0,0.0
9073,66.0,0.0,60.0,10.0,0.0
9074,54.0,24.0,60.0,13.0,0.0
9075,40.0,48.0,180.0,14.0,0.0
9076,47.0,48.0,390.0,5.0,0.0
9077,61.0,0.0,780.0,3.0,0.0
9078,68.0,0.0,180.0,10.0,0.0
9079,59.0,24.0,780.0,3.0,0.0
9080,56.0,0.0,180.0,11.0,0.0
9081,71.0,0.0,390.0,4.0,0.0
9082,52.0,0.0,120.0,12.0,0.0
9083,68.0,0.0,480.0,1.0,0.0
9084,52.0,72.0,120.0,13.0,0.0
9085,80.0,0.0,480.0,0.0,0.0
9086,56.0,0.0,480.0,2.0,0.0
9087,59.0,0.0,390.0,4.0,0.0
9088,56.0,72.0,120.0,12.0,0.0
9089,56.0,0.0,120.0,13.0,0.0
9090,40.0,48.0,180.0,14.0,0.0
9091,52.0,24.0,120.0,13.0,0.0
9092,70.0,0.0,60.0,10.0,0.0
9093,58.0,48.0,60.0,11.0,0.0
9094,52.0,0.0,120.0,12.0,0.0
9095,59.0,0.0,60.0,11.0,0.0
9096,56.0,0.0,120.0,12.0,0.0
9097,56.0,120.0,120.0,13.0,0.0
9098,71.0,0.0,60.0,10.0,0.0
9099,61.0,0.0,480.0,2.0,0.0
9100,61.0,0.0,120.0,11.0,0.0
9101,73.0,0.0,480.0,1.0,0.0
9102,85.0,120.0,480.0,0.0,0.0
9103,52.0,72.0,120.0,12.0,0.0
9104,73.0,0.0,120.0,10.0,0.0
9105,40.0,48.0,180.0,14.0,0.0
9106,52.0,0.0,120.0,13.0,0.0
9107,56.0,48.0,120.0,13.0,0.0
9108,63.0,0.0,60.0,11.0,0.0
9109,75.0,0.0,60.0,10.0,0.0
9110,56.0,0.0,120.0,12.0,0.0
9111,64.0,48.0,60.0,11.0,0.0
9112,76.0,0.0,60.0,10.0,0.0
9113,40.0,48.0,180.0,14.0,0.0
9114,52.0,72.0,120.0,13.0,0.0
9115,52.0,0.0,120.0,12.0,0.0
9116,61.0,0.0,60.0,11.0,0.0
9117,73.0,0.0,60.0,10.0,0.0
9118,56.0,0.0,60.0,13.0,0.0
9119,56.0,0.0,60.0,12.0,0.0
9120,66.0,0.0,390.0,4.0,0.0
9121,61.0,24.0,780.0,3.0,0.0
9122,54.0,0.0,780.0,3.0,0.0
9123,54.0,48.0,390.0,4.0,0.0
9124,71.0,0.0,120.0,10.0,0.0
9125,52.0,0.0,120.0,12.0,0.0
9126,59.0,0.0,120.0,11.0,0.0
9127,42.0,0.0,390.0,5.0,0.0
9128,40.0,0.0,180.0,14.0,0.0
9129,82.0,0.0,480.0,0.0,0.0
9130,52.0,72.0,120.0,13.0,0.0
9131,58.0,0.0,480.0,2.0,0.0
9132,70.0,0.0,480.0,1.0,0.0
9133,70.0,48.0,60.0,10.0,0.0
9134,54.0,0.0,120.0,12.0,0.0
9135,58.0,0.0,60.0,11.0,0.0
9136,54.0,72.0,120.0,13.0,0.0
9137,68.0,48.0,60.0,10.0,0.0
9138,52.0,0.0,120.0,13.0,0.0
9139,52.0,24.0,120.0,12.0,0.0
9140,56.0,0.0,60.0,11.0,0.0
9141,40.0,0.0,180.0,14.0,0.0
9142,66.0,48.0,60.0,10.0,0.0
9143,54.0,120.0,120.0,13.0,0.0
9144,54.0,0.0,60.0,11.0,0.0
9145,54.0,0.0,120.0,12.0,0.0
9146,78.0,0.0,390.0,0.0,0.0
9147,40.0,48.0,180.0,14.0,0.0
9148,66.0,72.0,120.0,11.0,0.0
9149,54.0,0.0,390.0,2.0,0.0
9150,52.0,0.0,120.0,12.0,0.0
9151,66.0,48.0,390.0,1.0,0.0
9152,52.0,0.0,120.0,13.0,0.0
9153,78.0,0.0,120.0,10.0,0.0
9154,54.0,48.0,120.0,12.0,0.0
9155,54.0,0.0,120.0,13.0,0.0
9156,76.0,0.0,60.0,10.0,0.0
9157,64.0,0.0,60.0,11.0,0.0
9158,63.0,0.0,60.0,11.0,0.0
9159,52.0,0.0,120.0,13.0,0.0
9160,75.0,48.0,60.0,10.0,0.0
9161,40.0,0.0,180.0,14.0,0.0
9162,52.0,24.0,120.0,12.0,0.0
9163,61.0,0.0,60.0,11.0,0.0
9164,54.0,0.0,60.0,12.0,0.0
9165,54.0,0.0,60.0,13.0,0.0
9166,73.0,120.0,60.0,10.0,0.0
9167,51.0,0.0,150.0,13.0,0.0
9168,51.0,0.0,150.0,12.0,0.0
9169,83.0,48.0,150.0,0.0,0.0
9170,39.0,0.0,150.0,14.0,0.0
9171,71.0,0.0,150.0,1.0,0.0
9172,63.0,0.0,150.0,3.0,0.0
9173,59.0,0.0,150.0,3.0,0.0
9174,59.0,0.0,150.0,2.0,0.0
9175,71.0,72.0,60.0,10.0,0.0
9176,59.0,0.0,150.0,11.0,0.0
9177,66.0,120.0,60.0,10.0,0.0
9178,40.0,0.0,150.0,14.0,0.0
9179,52.0,0.0,150.0,2.0,0.0
9180,76.0,0.0,150.0,0.0,0.0
9181,64.0,0.0,150.0,3.0,0.0
9182,52.0,0.0,150.0,13.0,0.0
9183,52.0,0.0,150.0,12.0,0.0
9184,68.0,0.0,60.0,10.0,0.0
9185,64.0,72.0,60.0,11.0,0.0
9186,76.0,0.0,150.0,1.0,0.0
9187,73.0,0.0,150.0,1.0,0.0
9188,61.0,48.0,150.0,3.0,0.0
9189,64.0,120.0,60.0,10.0,0.0
9190,61.0,0.0,60.0,11.0,0.0
9191,42.0,0.0,150.0,14.0,0.0
9192,75.0,0.0,150.0,1.0,0.0
9193,71.0,0.0,150.0,1.0,0.0
9194,59.0,72.0,60.0,11.0,0.0
9195,75.0,48.0,150.0,0.0,0.0
9196,59.0,0.0,150.0,3.0,0.0
9197,63.0,0.0,150.0,3.0,0.0
9198,63.0,0.0,60.0,10.0,0.0
9199,54.0,0.0,150.0,2.0,0.0
9200,54.0,0.0,150.0,12.0,0.0
9201,54.0,0.0,150.0,13.0,0.0
9202,66.0,0.0,60.0,10.0,0.0
9203,63.0,120.0,60.0,11.0,0.0
9204,54.0,0.0,150.0,12.0,0.0
9205,64.0,0.0,60.0,10.0,0.0
9206,73.0,0.0,150.0,1.0,0.0
9207,61.0,72.0,60.0,11.0,0.0
9208,30.0,48.0,150.0,14.0,0.0
9209,61.0,0.0,150.0,3.0,0.0
9210,54.0,0.0,150.0,3.0,0.0
9211,70.0,0.0,150.0,1.0,0.0
9212,42.0,0.0,150.0,13.0,0.0
9213,42.0,0.0,150.0,2.0,0.0
9214,73.0,0.0,150.0,0.0,0.0
9215,61.0,0.0,60.0,10.0,0.0
9216,58.0,168.0,60.0,11.0,0.0
9217,47.0,0.0,150.0,12.0,0.0
9218,71.0,0.0,390.0,4.0,0.0
9219,59.0,0.0,390.0,4.0,0.0
9220,47.0,0.0,150.0,2.0,0.0
9221,47.0,0.0,150.0,13.0,0.0
9222,71.0,42.0,150.0,1.0,0.0
9223,71.0,0.0,150.0,0.0,0.0
9224,59.0,0.0,120.0,11.0,0.0
9225,35.0,12.0,150.0,14.0,0.0
9226,47.0,0.0,390.0,5.0,0.0
9227,59.0,24.0,120.0,10.0,0.0
9228,59.0,0.0,150.0,3.0,0.0
9229,51.0,0.0,150.0,3.0,0.0
9230,54.0,120.0,90.0,11.0,0.0
9231,54.0,0.0,90.0,10.0,0.0
9232,59.0,0.0,150.0,13.0,0.0
9233,71.0,42.0,150.0,1.0,0.0
9234,66.0,0.0,150.0,1.0,0.0
9235,59.0,0.0,150.0,3.0,0.0
9236,51.0,0.0,150.0,3.0,0.0
9237,51.0,0.0,90.0,10.0,0.0
9238,51.0,66.0,90.0,11.0,0.0
9239,47.0,12.0,150.0,14.0,0.0
9240,63.0,0.0,150.0,2.0,0.0
9241,54.0,0.0,150.0,2.0,0.0
9242,59.0,0.0,150.0,12.0,0.0
9243,75.0,0.0,150.0,0.0,0.0
9244,54.0,0.0,90.0,10.0,0.0
9245,54.0,120.0,90.0,11.0,0.0
9246,71.0,0.0,150.0,1.0,0.0
9247,51.0,0.0,150.0,3.0,0.0
9248,59.0,0.0,150.0,3.0,0.0
9249,66.0,0.0,150.0,1.0,0.0
9250,63.0,0.0,150.0,2.0,0.0
9251,75.0,42.0,150.0,0.0,0.0
9252,47.0,0.0,390.0,14.0,0.0
9253,59.0,0.0,390.0,12.0,0.0
9254,59.0,78.0,90.0,10.0,0.0
9255,59.0,0.0,90.0,11.0,0.0
9256,54.0,0.0,150.0,2.0,0.0
9257,59.0,12.0,390.0,13.0,0.0
9258,63.0,0.0,90.0,11.0,0.0
9259,63.0,120.0,90.0,10.0,0.0
9260,59.0,0.0,150.0,3.0,0.0
9261,51.0,42.0,150.0,3.0,0.0
9262,75.0,0.0,150.0,0.0,0.0
9263,66.0,0.0,90.0,11.0,0.0
9264,71.0,0.0,150.0,1.0,0.0
9265,66.0,0.0,150.0,1.0,0.0
9266,54.0,0.0,150.0,2.0,0.0
9267,63.0,0.0,150.0,2.0,0.0
9268,66.0,66.0,90.0,10.0,0.0
9269,63.0,162.0,90.0,11.0,0.0
9270,63.0,0.0,90.0,10.0,0.0
9271,47.0,0.0,150.0,12.0,0.0
9272,47.0,0.0,390.0,5.0,0.0
9273,35.0,54.0,150.0,14.0,0.0
9274,47.0,0.0,150.0,13.0,0.0
9275,59.0,0.0,120.0,11.0,0.0
9276,59.0,24.0,120.0,10.0,0.0
9277,59.0,12.0,390.0,4.0,0.0
9278,71.0,0.0,390.0,4.0,0.0
9279,54.0,0.0,90.0,10.0,0.0
9280,54.0,120.0,90.0,11.0,0.0
9281,47.0,0.0,150.0,14.0,0.0
9282,51.0,0.0,150.0,3.0,0.0
9283,54.0,42.0,150.0,2.0,0.0
9284,71.0,0.0,150.0,1.0,0.0
9285,66.0,0.0,150.0,1.0,0.0
9286,59.0,0.0,150.0,12.0,0.0
9287,75.0,0.0,150.0,0.0,0.0
9288,59.0,0.0,150.0,3.0,0.0
9289,63.0,0.0,150.0,2.0,0.0
9290,51.0,66.0,90.0,11.0,0.0
9291,59.0,0.0,150.0,13.0,0.0
9292,51.0,0.0,90.0,10.0,0.0
9293,54.0,120.0,90.0,11.0,0.0
9294,54.0,0.0,90.0,10.0,0.0
9295,71.0,0.0,150.0,1.0,0.0
9296,59.0,78.0,90.0,11.0,0.0
9297,59.0,0.0,150.0,3.0,0.0
9298,47.0,0.0,390.0,14.0,0.0
9299,51.0,0.0,150.0,3.0,0.0
9300,59.0,0.0,390.0,13.0,0.0
9301,59.0,0.0,90.0,10.0,0.0
9302,59.0,12.0,390.0,12.0,0.0
9303,63.0,0.0,150.0,2.0,0.0
9304,75.0,0.0,150.0,0.0,0.0
9305,66.0,42.0,150.0,1.0,0.0
9306,54.0,0.0,150.0,2.0,0.0
9307,63.0,0.0,90.0,10.0,0.0
9308,63.0,120.0,90.0,11.0,0.0
9309,75.0,0.0,150.0,0.0,0.0
9310,66.0,0.0,90.0,10.0,0.0
9311,59.0,0.0,150.0,3.0,0.0
9312,71.0,0.0,150.0,1.0,0.0
9313,51.0,0.0,150.0,3.0,0.0
9314,66.0,66.0,90.0,11.0,0.0
9315,63.0,0.0,150.0,2.0,0.0
9316,54.0,0.0,150.0,2.0,0.0
9317,66.0,42.0,150.0,1.0,0.0
9318,63.0,0.0,90.0,10.0,0.0
9319,63.0,162.0,90.0,11.0,0.0
9320,47.0,54.0,150.0,12.0,0.0
9321,61.0,0.0,120.0,10.0,0.0
9322,47.0,0.0,150.0,13.0,0.0
9323,71.0,0.0,390.0,4.0,0.0
9324,61.0,24.0,120.0,11.0,0.0
9325,47.0,0.0,390.0,5.0,0.0
9326,35.0,0.0,150.0,14.0,0.0
9327,59.0,0.0,390.0,4.0,0.0
9328,56.0,0.0,90.0,11.0,0.0
9329,56.0,120.0,90.0,10.0,0.0
9330,47.0,0.0,150.0,14.0,0.0
9331,52.0,66.0,90.0,10.0,0.0
9332,52.0,42.0,150.0,2.0,0.0
9333,56.0,0.0,150.0,2.0,0.0
9334,61.0,0.0,150.0,3.0,0.0
9335,73.0,0.0,150.0,1.0,0.0
9336,64.0,0.0,150.0,1.0,0.0
9337,80.0,0.0,150.0,0.0,0.0
9338,59.0,0.0,150.0,13.0,0.0
9339,52.0,0.0,90.0,11.0,0.0
9340,59.0,12.0,150.0,12.0,0.0
9341,64.0,0.0,150.0,3.0,0.0
9342,56.0,0.0,90.0,11.0,0.0
9343,56.0,120.0,90.0,10.0,0.0
9344,61.0,0.0,150.0,3.0,0.0
9345,61.0,78.0,90.0,11.0,0.0
9346,64.0,0.0,150.0,3.0,0.0
9347,47.0,0.0,390.0,14.0,0.0
9348,80.0,0.0,150.0,0.0,0.0
9349,56.0,42.0,150.0,2.0,0.0
9350,61.0,0.0,90.0,10.0,0.0
9351,59.0,0.0,390.0,13.0,0.0
9352,59.0,12.0,390.0,12.0,0.0
9353,64.0,0.0,150.0,1.0,0.0
9354,73.0,0.0,150.0,1.0,0.0
9355,52.0,0.0,150.0,2.0,0.0
9356,64.0,120.0,90.0,11.0,0.0
9357,64.0,0.0,90.0,10.0,0.0
9358,64.0,0.0,150.0,3.0,0.0
9359,61.0,0.0,150.0,3.0,0.0
9360,52.0,0.0,150.0,2.0,0.0
9361,68.0,0.0,90.0,11.0,0.0
9362,80.0,0.0,150.0,0.0,0.0
9363,68.0,66.0,90.0,10.0,0.0
9364,73.0,42.0,150.0,1.0,0.0
9365,64.0,0.0,150.0,1.0,0.0
9366,56.0,0.0,150.0,2.0,0.0
9367,64.0,162.0,90.0,11.0,0.0
9368,64.0,0.0,90.0,10.0,0.0
9369,71.0,0.0,390.0,4.0,0.0
9370,47.0,54.0,150.0,13.0,0.0
9371,47.0,12.0,390.0,5.0,0.0
9372,35.0,0.0,150.0,14.0,0.0
9373,47.0,0.0,150.0,12.0,0.0
9374,61.0,24.0,120.0,11.0,0.0
9375,59.0,0.0,390.0,4.0,0.0
9376,61.0,0.0,120.0,10.0,0.0
9377,56.0,120.0,90.0,11.0,0.0
9378,56.0,0.0,90.0,10.0,0.0
9379,59.0,0.0,150.0,13.0,0.0
9380,64.0,0.0,150.0,3.0,0.0
9381,56.0,0.0,150.0,2.0,0.0
9382,52.0,0.0,150.0,2.0,0.0
9383,61.0,42.0,150.0,3.0,0.0
9384,59.0,0.0,150.0,12.0,0.0
9385,47.0,0.0,150.0,14.0,0.0
9386,73.0,0.0,150.0,1.0,0.0
9387,64.0,0.0,150.0,1.0,0.0
9388,80.0,0.0,150.0,0.0,0.0
9389,52.0,0.0,90.0,10.0,0.0
9390,52.0,66.0,90.0,11.0,0.0
9391,56.0,120.0,90.0,11.0,0.0
9392,56.0,0.0,90.0,10.0,0.0
9393,73.0,0.0,150.0,1.0,0.0
9394,80.0,42.0,150.0,0.0,0.0
9395,64.0,0.0,150.0,1.0,0.0
9396,47.0,12.0,390.0,14.0,0.0
9397,59.0,0.0,390.0,13.0,0.0
9398,61.0,0.0,90.0,11.0,0.0
9399,56.0,0.0,150.0,2.0,0.0
9400,52.0,0.0,150.0,2.0,0.0
9401,61.0,78.0,90.0,10.0,0.0
9402,59.0,0.0,390.0,12.0,0.0
9403,64.0,0.0,150.0,3.0,0.0
9404,61.0,0.0,150.0,3.0,0.0
9405,64.0,0.0,90.0,11.0,0.0
9406,64.0,120.0,90.0,10.0,0.0
9407,56.0,0.0,150.0,2.0,0.0
9408,64.0,0.0,150.0,3.0,0.0
9409,68.0,66.0,90.0,10.0,0.0
9410,73.0,0.0,150.0,1.0,0.0
9411,64.0,42.0,150.0,1.0,0.0
9412,52.0,0.0,150.0,2.0,0.0
9413,80.0,0.0,150.0,0.0,0.0
9414,68.0,0.0,90.0,11.0,0.0
9415,61.0,0.0,150.0,3.0,0.0
9416,64.0,162.0,90.0,11.0,0.0
9417,64.0,0.0,90.0,10.0,0.0
9418,54.0,0.0,1350.0,4.0,0.0
9419,46.0,0.0,150.0,13.0,0.0
9420,46.0,0.0,150.0,12.0,0.0
9421,58.0,0.0,120.0,10.0,0.0
9422,34.0,72.0,150.0,14.0,0.0
9423,66.0,0.0,1350.0,4.0,0.0
9424,42.0,0.0,390.0,5.0,0.0
9425,58.0,24.0,120.0,11.0,0.0
9426,66.0,0.0,90.0,10.0,0.0
9427,66.0,144.0,90.0,11.0,0.0
9428,58.0,0.0,150.0,12.0,0.0
9429,78.0,0.0,180.0,1.0,0.0
9430,76.0,0.0,180.0,1.0,0.0
9431,46.0,0.0,150.0,14.0,0.0
9432,85.0,0.0,180.0,0.0,0.0
9433,58.0,48.0,150.0,13.0,0.0
9434,76.0,24.0,120.0,10.0,0.0
9435,52.0,24.0,180.0,2.0,0.0
9436,54.0,0.0,180.0,3.0,0.0
9437,64.0,0.0,180.0,3.0,0.0
9438,61.0,0.0,180.0,2.0,0.0
9439,76.0,0.0,120.0,11.0,0.0
9440,66.0,0.0,90.0,10.0,0.0
9441,66.0,144.0,90.0,11.0,0.0
9442,85.0,0.0,180.0,0.0,0.0
9443,46.0,0.0,390.0,14.0,0.0
9444,52.0,0.0,180.0,2.0,0.0
9445,58.0,48.0,390.0,13.0,0.0
9446,58.0,0.0,390.0,12.0,0.0
9447,54.0,0.0,180.0,3.0,0.0
9448,76.0,72.0,120.0,10.0,0.0
9449,64.0,0.0,180.0,3.0,0.0
9450,76.0,0.0,180.0,1.0,0.0
9451,78.0,0.0,180.0,1.0,0.0
9452,42.0,0.0,390.0,5.0,0.0
9453,76.0,0.0,120.0,11.0,0.0
9454,61.0,24.0,180.0,2.0,0.0
9455,66.0,144.0,90.0,10.0,0.0
9456,66.0,0.0,90.0,11.0,0.0
9457,76.0,24.0,120.0,10.0,0.0
9458,76.0,0.0,120.0,11.0,0.0
9459,52.0,0.0,180.0,2.0,0.0
9460,61.0,0.0,180.0,2.0,0.0
9461,85.0,24.0,180.0,0.0,0.0
9462,64.0,0.0,180.0,3.0,0.0
9463,54.0,0.0,180.0,3.0,0.0
9464,76.0,0.0,180.0,1.0,0.0
9465,78.0,0.0,180.0,1.0,0.0
9466,66.0,0.0,90.0,11.0,0.0
9467,66.0,102.0,90.0,10.0,0.0
9468,76.0,66.0,90.0,10.0,0.0
9469,42.0,0.0,390.0,5.0,0.0
9470,46.0,0.0,150.0,12.0,0.0
9471,46.0,54.0,150.0,13.0,0.0
9472,34.0,0.0,150.0,14.0,0.0
9473,76.0,0.0,90.0,11.0,0.0
9474,75.0,120.0,90.0,11.0,0.0
9475,75.0,0.0,90.0,10.0,0.0
9476,54.0,0.0,180.0,3.0,0.0
9477,52.0,0.0,180.0,2.0,0.0
9478,61.0,0.0,180.0,2.0,0.0
9479,85.0,6.0,180.0,0.0,0.0
9480,76.0,0.0,180.0,1.0,0.0
9481,78.0,0.0,180.0,1.0,0.0
9482,58.0,0.0,150.0,12.0,0.0
9483,58.0,48.0,150.0,13.0,0.0
9484,64.0,0.0,180.0,3.0,0.0
9485,46.0,0.0,150.0,14.0,0.0
9486,73.0,0.0,90.0,11.0,0.0
9487,73.0,66.0,90.0,10.0,0.0
9488,71.0,120.0,90.0,11.0,0.0
9489,71.0,0.0,90.0,10.0,0.0
9490,46.0,0.0,390.0,14.0,0.0
9491,70.0,114.0,90.0,10.0,0.0
9492,54.0,0.0,180.0,3.0,0.0
9493,64.0,6.0,180.0,3.0,0.0
9494,58.0,0.0,390.0,12.0,0.0
9495,70.0,0.0,90.0,11.0,0.0
9496,76.0,0.0,180.0,1.0,0.0
9497,78.0,0.0,180.0,1.0,0.0
9498,85.0,0.0,180.0,0.0,0.0
9499,58.0,48.0,390.0,13.0,0.0
9500,61.0,0.0,180.0,2.0,0.0
9501,52.0,0.0,180.0,2.0,0.0
9502,68.0,0.0,90.0,11.0,0.0
9503,68.0,120.0,90.0,10.0,0.0
9504,66.0,0.0,90.0,10.0,0.0
9505,78.0,0.0,180.0,1.0,0.0
9506,52.0,0.0,180.0,2.0,0.0
9507,85.0,0.0,180.0,0.0,0.0
9508,66.0,66.0,90.0,11.0,0.0
9509,64.0,6.0,180.0,3.0,0.0
9510,54.0,0.0,180.0,3.0,0.0
9511,61.0,0.0,180.0,2.0,0.0
9512,76.0,0.0,180.0,1.0,0.0
9513,64.0,0.0,90.0,11.0,0.0
9514,64.0,120.0,90.0,10.0,0.0
9515,47.0,0.0,180.0,14.0,0.0
9516,59.0,6.0,180.0,13.0,0.0
9517,78.0,0.0,120.0,1.0,0.0
9518,75.0,0.0,120.0,1.0,0.0
9519,87.0,60.0,120.0,0.0,0.0
9520,63.0,54.0,90.0,10.0,0.0
9521,59.0,0.0,120.0,2.0,0.0
9522,59.0,0.0,120.0,3.0,0.0
9523,63.0,0.0,120.0,3.0,0.0
9524,51.0,0.0,120.0,2.0,0.0
9525,59.0,0.0,180.0,12.0,0.0
9526,63.0,0.0,90.0,11.0,0.0
9527,71.0,120.0,90.0,10.0,0.0
9528,71.0,0.0,90.0,11.0,0.0
9529,59.0,0.0,120.0,2.0,0.0
9530,51.0,0.0,120.0,2.0,0.0
9531,66.0,66.0,120.0,3.0,0.0
9532,63.0,0.0,120.0,3.0,0.0
9533,87.0,0.0,120.0,0.0,0.0
9534,66.0,0.0,90.0,10.0,0.0
9535,66.0,54.0,90.0,11.0,0.0
9536,75.0,0.0,120.0,1.0,0.0
9537,78.0,0.0,120.0,1.0,0.0
9538,63.0,120.0,90.0,10.0,0.0
9539,63.0,0.0,90.0,11.0,0.0
9540,64.0,0.0,120.0,3.0,0.0
9541,52.0,0.0,120.0,2.0,0.0
9542,76.0,0.0,120.0,1.0,0.0
9543,42.0,54.0,390.0,5.0,0.0
9544,52.0,0.0,180.0,12.0,0.0
9545,52.0,6.0,180.0,13.0,0.0
9546,61.0,60.0,120.0,3.0,0.0
9547,61.0,0.0,90.0,11.0,0.0
9548,66.0,0.0,390.0,4.0,0.0
9549,85.0,0.0,120.0,0.0,0.0
9550,73.0,0.0,120.0,1.0,0.0
9551,61.0,54.0,90.0,10.0,0.0
9552,54.0,0.0,390.0,4.0,0.0
9553,40.0,0.0,180.0,14.0,0.0
9554,61.0,0.0,120.0,2.0,0.0
9555,68.0,0.0,90.0,11.0,0.0
9556,68.0,120.0,90.0,10.0,0.0
9557,52.0,0.0,120.0,2.0,0.0
9558,64.0,0.0,90.0,11.0,0.0
9559,64.0,0.0,120.0,3.0,0.0
9560,61.0,12.0,120.0,2.0,0.0
9561,61.0,0.0,120.0,3.0,0.0
9562,64.0,54.0,90.0,10.0,0.0
9563,76.0,0.0,120.0,1.0,0.0
9564,73.0,0.0,120.0,1.0,0.0
9565,85.0,0.0,120.0,0.0,0.0
9566,61.0,120.0,90.0,10.0,0.0
9567,61.0,0.0,90.0,11.0,0.0
9568,59.0,54.0,90.0,11.0,0.0
9569,59.0,0.0,120.0,3.0,0.0
9570,66.0,0.0,390.0,4.0,0.0
9571,59.0,54.0,390.0,4.0,0.0
9572,63.0,0.0,120.0,3.0,0.0
9573,54.0,6.0,180.0,13.0,0.0
9574,59.0,0.0,90.0,10.0,0.0
9575,42.0,0.0,180.0,14.0,0.0
9576,59.0,60.0,120.0,2.0,0.0
9577,71.0,0.0,120.0,1.0,0.0
9578,75.0,0.0,120.0,1.0,0.0
9579,83.0,0.0,120.0,0.0,0.0
9580,47.0,0.0,390.0,5.0,0.0
9581,54.0,0.0,180.0,12.0,0.0
9582,51.0,0.0,120.0,2.0,0.0
9583,66.0,120.0,90.0,11.0,0.0
9584,66.0,0.0,90.0,10.0,0.0
9585,59.0,0.0,120.0,3.0,0.0
9586,83.0,12.0,120.0,0.0,0.0
9587,75.0,0.0,120.0,1.0,0.0
9588,71.0,0.0,120.0,1.0,0.0
9589,59.0,0.0,120.0,2.0,0.0
9590,63.0,54.0,90.0,10.0,0.0
9591,63.0,0.0,120.0,3.0,0.0
9592,63.0,0.0,90.0,11.0,0.0
9593,51.0,0.0,120.0,2.0,0.0
9594,59.0,0.0,90.0,10.0,0.0
9595,59.0,120.0,90.0,11.0,0.0
9596,58.0,0.0,90.0,11.0,0.0
9597,58.0,0.0,120.0,2.0,0.0
9598,49.0,0.0,120.0,2.0,0.0
9599,58.0,54.0,90.0,10.0,0.0
9600,30.0,6.0,180.0,14.0,0.0
9601,61.0,0.0,120.0,3.0,0.0
9602,54.0,0.0,180.0,12.0,0.0
9603,73.0,0.0,120.0,1.0,0.0
9604,70.0,0.0,120.0,1.0,0.0
9605,42.0,0.0,180.0,13.0,0.0
9606,82.0,60.0,120.0,0.0,0.0
9607,54.0,0.0,120.0,3.0,0.0
9608,64.0,120.0,90.0,10.0,0.0
9609,64.0,0.0,90.0,11.0,0.0
9610,70.0,0.0,120.0,1.0,0.0
9611,54.0,0.0,120.0,3.0,0.0
9612,61.0,54.0,90.0,10.0,0.0
9613,61.0,0.0,120.0,3.0,0.0
9614,73.0,0.0,120.0,1.0,0.0
9615,61.0,0.0,90.0,11.0,0.0
9616,82.0,0.0,120.0,0.0,0.0
9617,58.0,0.0,120.0,2.0,0.0
9618,49.0,66.0,120.0,2.0,0.0
9619,58.0,162.0,90.0,11.0,0.0
9620,58.0,0.0,90.0,10.0,0.0
9621,59.0,0.0,150.0,3.0,0.0
9622,51.0,0.0,150.0,3.0,0.0
9623,47.0,12.0,150.0,12.0,0.0
9624,35.0,0.0,150.0,14.0,0.0
9625,59.0,12.0,390.0,4.0,0.0
9626,83.0,42.0,150.0,0.0,0.0
9627,71.0,0.0,150.0,1.0,0.0
9628,47.0,0.0,390.0,5.0,0.0
9629,71.0,0.0,390.0,4.0,0.0
9630,59.0,24.0,120.0,10.0,0.0
9631,47.0,0.0,150.0,13.0,0.0
9632,59.0,0.0,120.0,11.0,0.0
9633,59.0,0.0,150.0,2.0,0.0
9634,51.0,0.0,150.0,2.0,0.0
9635,54.0,120.0,90.0,10.0,0.0
9636,54.0,0.0,90.0,11.0,0.0
9637,54.0,0.0,150.0,2.0,0.0
9638,63.0,0.0,150.0,2.0,0.0
9639,59.0,42.0,150.0,3.0,0.0
9640,59.0,0.0,150.0,12.0,0.0
9641,51.0,0.0,90.0,10.0,0.0
9642,47.0,0.0,150.0,14.0,0.0
9643,59.0,0.0,150.0,13.0,0.0
9644,71.0,0.0,150.0,1.0,0.0
9645,51.0,66.0,90.0,11.0,0.0
9646,75.0,0.0,150.0,0.0,0.0
9647,66.0,0.0,150.0,1.0,0.0
9648,51.0,0.0,150.0,3.0,0.0
9649,54.0,120.0,90.0,11.0,0.0
9650,54.0,0.0,90.0,10.0,0.0
9651,47.0,12.0,390.0,14.0,0.0
9652,66.0,0.0,150.0,1.0,0.0
9653,59.0,0.0,390.0,12.0,0.0
9654,59.0,0.0,390.0,13.0,0.0
9655,75.0,0.0,150.0,0.0,0.0
9656,71.0,0.0,150.0,1.0,0.0
9657,63.0,0.0,150.0,2.0,0.0
9658,59.0,42.0,150.0,3.0,0.0
9659,54.0,0.0,150.0,2.0,0.0
9660,59.0,0.0,90.0,11.0,0.0
9661,51.0,0.0,150.0,3.0,0.0
9662,59.0,78.0,90.0,10.0,0.0
9663,63.0,0.0,90.0,10.0,0.0
9664,63.0,120.0,90.0,11.0,0.0
9665,66.0,66.0,90.0,10.0,0.0
9666,54.0,0.0,150.0,2.0,0.0
9667,63.0,0.0,150.0,2.0,0.0
9668,66.0,0.0,90.0,11.0,0.0
9669,51.0,0.0,150.0,3.0,0.0
9670,75.0,0.0,150.0,0.0,0.0
9671,66.0,0.0,150.0,1.0,0.0
9672,71.0,0.0,150.0,1.0,0.0
9673,59.0,42.0,150.0,3.0,0.0
9674,63.0,0.0,90.0,11.0,0.0
9675,63.0,162.0,90.0,10.0,0.0
9676,59.0,0.0,390.0,4.0,0.0
9677,47.0,0.0,150.0,12.0,0.0
9678,59.0,24.0,120.0,11.0,0.0
9679,35.0,0.0,150.0,14.0,0.0
9680,47.0,12.0,390.0,5.0,0.0
9681,59.0,0.0,120.0,10.0,0.0
9682,47.0,54.0,150.0,13.0,0.0
9683,71.0,0.0,390.0,4.0,0.0
9684,54.0,120.0,90.0,10.0,0.0
9685,54.0,0.0,90.0,11.0,0.0
9686,59.0,0.0,150.0,3.0,0.0
9687,51.0,0.0,90.0,11.0,0.0
9688,47.0,0.0,150.0,14.0,0.0
9689,59.0,0.0,150.0,12.0,0.0
9690,75.0,0.0,150.0,0.0,0.0
9691,51.0,0.0,150.0,3.0,0.0
9692,63.0,42.0,150.0,2.0,0.0
9693,59.0,0.0,150.0,13.0,0.0
9694,54.0,0.0,150.0,2.0,0.0
9695,71.0,0.0,150.0,1.0,0.0
9696,66.0,0.0,150.0,1.0,0.0
9697,51.0,66.0,90.0,10.0,0.0
9698,54.0,120.0,90.0,10.0,0.0
9699,54.0,0.0,90.0,11.0,0.0
9700,59.0,78.0,90.0,10.0,0.0
9701,66.0,0.0,150.0,1.0,0.0
9702,71.0,0.0,150.0,1.0,0.0
9703,47.0,12.0,390.0,14.0,0.0
9704,59.0,0.0,150.0,3.0,0.0
9705,63.0,0.0,150.0,2.0,0.0
9706,59.0,0.0,390.0,13.0,0.0
9707,59.0,0.0,390.0,12.0,0.0
9708,59.0,0.0,90.0,11.0,0.0
9709,75.0,0.0,150.0,0.0,0.0
9710,51.0,0.0,150.0,3.0,0.0
9711,54.0,42.0,150.0,2.0,0.0
9712,63.0,0.0,90.0,10.0,0.0
9713,63.0,120.0,90.0,11.0,0.0
9714,59.0,42.0,150.0,3.0,0.0
9715,66.0,0.0,90.0,10.0,0.0
9716,75.0,0.0,150.0,0.0,0.0
9717,51.0,0.0,150.0,3.0,0.0
9718,63.0,0.0,150.0,2.0,0.0
9719,66.0,0.0,150.0,1.0,0.0
9720,71.0,0.0,150.0,1.0,0.0
9721,66.0,66.0,90.0,11.0,0.0
9722,54.0,0.0,150.0,2.0,0.0
9723,63.0,0.0,90.0,10.0,0.0
9724,63.0,162.0,90.0,11.0,0.0
9725,47.0,0.0,390.0,5.0,0.0
9726,47.0,54.0,150.0,13.0,0.0
9727,61.0,24.0,120.0,10.0,0.0
9728,59.0,0.0,390.0,4.0,0.0
9729,71.0,0.0,390.0,4.0,0.0
9730,35.0,0.0,150.0,14.0,0.0
9731,47.0,0.0,150.0,12.0,0.0
9732,61.0,0.0,120.0,11.0,0.0
9733,56.0,120.0,90.0,11.0,0.0
9734,56.0,0.0,90.0,10.0,0.0
9735,61.0,0.0,150.0,3.0,0.0
9736,52.0,0.0,90.0,11.0,0.0
9737,59.0,0.0,150.0,13.0,0.0
9738,59.0,0.0,150.0,12.0,0.0
9739,64.0,42.0,150.0,1.0,0.0
9740,56.0,0.0,150.0,2.0,0.0
9741,52.0,0.0,150.0,2.0,0.0
9742,80.0,0.0,150.0,0.0,0.0
9743,47.0,12.0,150.0,14.0,0.0
9744,52.0,66.0,90.0,10.0,0.0
9745,64.0,0.0,150.0,3.0,0.0
9746,73.0,0.0,150.0,1.0,0.0
9747,56.0,0.0,90.0,10.0,0.0
9748,56.0,120.0,90.0,11.0,0.0
9749,59.0,0.0,390.0,13.0,0.0
9750,56.0,0.0,150.0,2.0,0.0
9751,80.0,0.0,150.0,0.0,0.0
9752,61.0,0.0,150.0,3.0,0.0
9753,47.0,12.0,390.0,14.0,0.0
9754,52.0,42.0,150.0,2.0,0.0
9755,59.0,0.0,390.0,12.0,0.0
9756,61.0,0.0,90.0,10.0,0.0
9757,73.0,0.0,150.0,1.0,0.0
9758,64.0,0.0,150.0,1.0,0.0
9759,61.0,78.0,90.0,11.0,0.0
9760,64.0,0.0,150.0,3.0,0.0
9761,64.0,120.0,90.0,11.0,0.0
9762,64.0,0.0,90.0,10.0,0.0
9763,61.0,0.0,150.0,3.0,0.0
9764,68.0,0.0,90.0,10.0,0.0
9765,64.0,0.0,150.0,1.0,0.0
9766,73.0,0.0,150.0,1.0,0.0
9767,64.0,0.0,150.0,3.0,0.0
9768,56.0,0.0,150.0,2.0,0.0
9769,52.0,42.0,150.0,2.0,0.0
9770,68.0,66.0,90.0,11.0,0.0
9771,80.0,0.0,150.0,0.0,0.0
9772,64.0,162.0,90.0,10.0,0.0
9773,64.0,0.0,90.0,11.0,0.0
9774,61.0,24.0,120.0,11.0,0.0
9775,61.0,0.0,120.0,10.0,0.0
9776,47.0,0.0,150.0,13.0,0.0
9777,47.0,12.0,390.0,5.0,0.0
9778,71.0,0.0,390.0,4.0,0.0
9779,59.0,0.0,390.0,4.0,0.0
9780,35.0,0.0,150.0,14.0,0.0
9781,47.0,54.0,150.0,12.0,0.0
9782,56.0,0.0,90.0,10.0,0.0
9783,56.0,120.0,90.0,11.0,0.0
9784,52.0,0.0,90.0,10.0,0.0
9785,73.0,0.0,150.0,1.0,0.0
9786,64.0,42.0,150.0,1.0,0.0
9787,80.0,0.0,150.0,0.0,0.0
9788,64.0,0.0,150.0,3.0,0.0
9789,52.0,66.0,90.0,11.0,0.0
9790,61.0,0.0,150.0,3.0,0.0
9791,59.0,0.0,150.0,13.0,0.0
9792,52.0,0.0,150.0,2.0,0.0
9793,56.0,0.0,150.0,2.0,0.0
9794,47.0,0.0,150.0,14.0,0.0
9795,59.0,0.0,150.0,12.0,0.0
9796,56.0,120.0,90.0,10.0,0.0
9797,56.0,0.0,90.0,11.0,0.0
9798,61.0,0.0,150.0,3.0,0.0
9799,61.0,0.0,90.0,10.0,0.0
9800,56.0,0.0,150.0,2.0,0.0
9801,52.0,0.0,150.0,2.0,0.0
9802,47.0,0.0,390.0,14.0,0.0
9803,80.0,42.0,150.0,0.0,0.0
9804,59.0,12.0,390.0,12.0,0.0
9805,59.0,0.0,390.0,13.0,0.0
9806,61.0,78.0,90.0,11.0,0.0
9807,64.0,0.0,150.0,3.0,0.0
9808,64.0,0.0,150.0,1.0,0.0
9809,73.0,0.0,150.0,1.0,0.0
9810,64.0,120.0,90.0,10.0,0.0
9811,64.0,0.0,90.0,11.0,0.0
9812,56.0,0.0,150.0,2.0,0.0
9813,52.0,0.0,150.0,2.0,0.0
9814,64.0,0.0,150.0,1.0,0.0
9815,73.0,0.0,150.0,1.0,0.0
9816,80.0,42.0,150.0,0.0,0.0
9817,68.0,0.0,90.0,11.0,0.0
9818,64.0,0.0,150.0,3.0,0.0
9819,68.0,66.0,90.0,10.0,0.0
9820,61.0,0.0,150.0,3.0,0.0
9821,64.0,162.0,90.0,11.0,0.0
9822,64.0,0.0,90.0,10.0,0.0
9823,66.0,0.0,1350.0,4.0,0.0
9824,46.0,0.0,150.0,13.0,0.0
9825,46.0,0.0,150.0,12.0,0.0
9826,34.0,72.0,150.0,14.0,0.0
9827,42.0,0.0,390.0,5.0,0.0
9828,58.0,0.0,120.0,10.0,0.0
9829,58.0,24.0,120.0,11.0,0.0
9830,54.0,0.0,1350.0,4.0,0.0
9831,66.0,0.0,90.0,10.0,0.0
9832,66.0,144.0,90.0,11.0,0.0
9833,76.0,0.0,180.0,1.0,0.0
9834,61.0,0.0,180.0,2.0,0.0
9835,52.0,0.0,180.0,2.0,0.0
9836,64.0,0.0,180.0,3.0,0.0
9837,46.0,0.0,150.0,14.0,0.0
9838,58.0,48.0,150.0,13.0,0.0
9839,58.0,0.0,150.0,12.0,0.0
9840,54.0,0.0,180.0,3.0,0.0
9841,76.0,0.0,120.0,11.0,0.0
9842,76.0,24.0,120.0,10.0,0.0
9843,78.0,24.0,180.0,1.0,0.0
9844,85.0,0.0,180.0,0.0,0.0
9845,66.0,144.0,90.0,10.0,0.0
9846,66.0,0.0,90.0,11.0,0.0
9847,76.0,72.0,120.0,10.0,0.0
9848,64.0,0.0,180.0,3.0,0.0
9849,54.0,0.0,180.0,3.0,0.0
9850,46.0,48.0,390.0,14.0,0.0
9851,52.0,0.0,180.0,2.0,0.0
9852,78.0,24.0,180.0,1.0,0.0
9853,58.0,0.0,390.0,12.0,0.0
9854,58.0,0.0,390.0,13.0,0.0
9855,76.0,0.0,180.0,1.0,0.0
9856,42.0,0.0,390.0,5.0,0.0
9857,85.0,0.0,180.0,0.0,0.0
9858,61.0,0.0,180.0,2.0,0.0
9859,76.0,0.0,120.0,11.0,0.0
9860,66.0,0.0,90.0,10.0,0.0
9861,66.0,144.0,90.0,11.0,0.0
9862,76.0,24.0,120.0,10.0,0.0
9863,64.0,0.0,180.0,3.0,0.0
9864,54.0,24.0,180.0,3.0,0.0
9865,52.0,0.0,180.0,2.0,0.0
9866,76.0,0.0,180.0,1.0,0.0
9867,78.0,0.0,180.0,1.0,0.0
9868,76.0,0.0,120.0,11.0,0.0
9869,85.0,0.0,180.0,0.0,0.0
9870,61.0,0.0,180.0,2.0,0.0
9871,66.0,102.0,90.0,11.0,0.0
9872,66.0,0.0,90.0,10.0,0.0
9873,76.0,0.0,90.0,10.0,0.0
9874,46.0,0.0,150.0,13.0,0.0
9875,34.0,54.0,150.0,14.0,0.0
9876,46.0,0.0,150.0,12.0,0.0
9877,42.0,48.0,390.0,5.0,0.0
9878,76.0,66.0,90.0,11.0,0.0
9879,75.0,0.0,90.0,10.0,0.0
9880,75.0,120.0,90.0,11.0,0.0
9881,73.0,66.0,90.0,11.0,0.0
9882,78.0,0.0,180.0,1.0,0.0
9883,58.0,0.0,150.0,12.0,0.0
9884,54.0,0.0,180.0,3.0,0.0
9885,61.0,0.0,180.0,2.0,0.0
9886,52.0,6.0,180.0,2.0,0.0
9887,64.0,0.0,180.0,3.0,0.0
9888,46.0,0.0,150.0,14.0,0.0
9889,76.0,0.0,180.0,1.0,0.0
9890,73.0,0.0,90.0,10.0,0.0
9891,58.0,0.0,150.0,13.0,0.0
9892,85.0,0.0,180.0,0.0,0.0
9893,71.0,120.0,90.0,10.0,0.0
9894,71.0,0.0,90.0,11.0,0.0
9895,76.0,0.0,180.0,1.0,0.0
9896,70.0,0.0,90.0,11.0,0.0
9897,78.0,0.0,180.0,1.0,0.0
9898,70.0,114.0,90.0,10.0,0.0
9899,61.0,6.0,180.0,2.0,0.0
9900,85.0,0.0,180.0,0.0,0.0
9901,58.0,48.0,390.0,12.0,0.0
9902,46.0,0.0,390.0,14.0,0.0
9903,54.0,0.0,180.0,3.0,0.0
9904,64.0,0.0,180.0,3.0,0.0
9905,52.0,0.0,180.0,2.0,0.0
9906,58.0,0.0,390.0,13.0,0.0
9907,68.0,120.0,90.0,11.0,0.0
9908,68.0,0.0,90.0,10.0,0.0
9909,61.0,0.0,180.0,2.0,0.0
9910,64.0,0.0,180.0,3.0,0.0
9911,54.0,0.0,180.0,3.0,0.0
9912,78.0,0.0,180.0,1.0,0.0
9913,76.0,6.0,180.0,1.0,0.0
9914,52.0,0.0,180.0,2.0,0.0
9915,66.0,0.0,90.0,10.0,0.0
9916,66.0,66.0,90.0,11.0,0.0
9917,85.0,0.0,180.0,0.0,0.0
9918,64.0,0.0,90.0,10.0,0.0
9919,64.0,114.0,90.0,11.0,0.0
9920,63.0,0.0,60.0,11.0,0.0
9921,45.0,0.0,150.0,12.0,0.0
9922,47.0,0.0,390.0,5.0,0.0
9923,63.0,72.0,60.0,10.0,0.0
9924,33.0,96.0,150.0,14.0,0.0
9925,45.0,0.0,150.0,13.0,0.0
9926,59.0,0.0,1350.0,4.0,0.0
9927,71.0,0.0,1350.0,4.0,0.0
9928,75.0,120.0,120.0,11.0,0.0
9929,75.0,0.0,120.0,10.0,0.0
9930,47.0,0.0,150.0,3.0,0.0
9931,59.0,0.0,150.0,3.0,0.0
9932,57.0,12.0,150.0,12.0,0.0
9933,57.0,0.0,150.0,13.0,0.0
9934,51.0,0.0,150.0,2.0,0.0
9935,54.0,0.0,150.0,2.0,0.0
9936,45.0,0.0,150.0,14.0,0.0
9937,78.0,24.0,120.0,11.0,0.0
9938,66.0,60.0,150.0,1.0,0.0
9939,75.0,0.0,150.0,1.0,0.0
9940,78.0,0.0,120.0,10.0,0.0
9941,83.0,0.0,150.0,0.0,0.0
9942,75.0,144.0,90.0,11.0,0.0
9943,75.0,0.0,90.0,10.0,0.0
9944,45.0,12.0,390.0,14.0,0.0
9945,78.0,36.0,120.0,10.0,0.0
9946,57.0,0.0,390.0,13.0,0.0
9947,59.0,0.0,150.0,3.0,0.0
9948,78.0,0.0,120.0,11.0,0.0
9949,47.0,0.0,390.0,5.0,0.0
9950,47.0,0.0,150.0,3.0,0.0
9951,75.0,0.0,150.0,1.0,0.0
9952,57.0,0.0,390.0,12.0,0.0
9953,83.0,60.0,150.0,0.0,0.0
9954,51.0,0.0,150.0,2.0,0.0
9955,54.0,0.0,150.0,2.0,0.0
9956,66.0,0.0,150.0,1.0,0.0
9957,75.0,0.0,90.0,10.0,0.0
9958,75.0,144.0,90.0,11.0,0.0
9959,66.0,0.0,150.0,1.0,0.0
9960,51.0,0.0,150.0,2.0,0.0
9961,75.0,0.0,150.0,1.0,0.0
9962,47.0,0.0,150.0,3.0,0.0
9963,59.0,0.0,150.0,3.0,0.0
9964,78.0,24.0,120.0,10.0,0.0
9965,83.0,0.0,150.0,0.0,0.0
9966,78.0,0.0,120.0,11.0,0.0
9967,54.0,60.0,150.0,2.0,0.0
9968,75.0,102.0,90.0,10.0,0.0
9969,75.0,0.0,90.0,11.0,0.0
9970,78.0,0.0,90.0,10.0,0.0
9971,45.0,54.0,150.0,12.0,0.0
9972,45.0,0.0,150.0,13.0,0.0
9973,78.0,66.0,90.0,11.0,0.0
9974,47.0,0.0,390.0,5.0,0.0
9975,33.0,0.0,150.0,14.0,0.0
9976,76.0,120.0,90.0,10.0,0.0
9977,76.0,0.0,90.0,11.0,0.0
9978,45.0,0.0,150.0,14.0,0.0
9979,57.0,0.0,150.0,12.0,0.0
9980,75.0,0.0,90.0,11.0,0.0
9981,47.0,0.0,150.0,3.0,0.0
9982,59.0,42.0,150.0,3.0,0.0
9983,83.0,0.0,150.0,0.0,0.0
9984,57.0,12.0,150.0,13.0,0.0
9985,75.0,66.0,90.0,10.0,0.0
9986,66.0,0.0,150.0,1.0,0.0
9987,54.0,0.0,150.0,2.0,0.0
9988,51.0,0.0,150.0,2.0,0.0
9989,75.0,0.0,150.0,1.0,0.0
9990,73.0,0.0,90.0,10.0,0.0
9991,73.0,120.0,90.0,11.0,0.0
9992,54.0,0.0,150.0,2.0,0.0
9993,51.0,0.0,150.0,2.0,0.0
9994,47.0,0.0,150.0,3.0,0.0
9995,71.0,0.0,90.0,11.0,0.0
9996,57.0,12.0,390.0,12.0,0.0
9997,75.0,42.0,150.0,1.0,0.0
9998,66.0,0.0,150.0,1.0,0.0
9999,45.0,0.0,390.0,14.0,0.0
10000,83.0,0.0,150.0,0.0,0.0
10001,71.0,78.0,90.0,10.0,0.0
10002,59.0,0.0,150.0,3.0,0.0
10003,57.0,0.0,390.0,13.0,0.0
10004,69.0,120.0,90.0,11.0,0.0
10005,69.0,0.0,90.0,10.0,0.0
10006,75.0,42.0,150.0,1.0,0.0
10007,51.0,0.0,150.0,2.0,0.0
10008,68.0,66.0,90.0,10.0,0.0
10009,66.0,0.0,150.0,1.0,0.0
10010,47.0,0.0,150.0,3.0,0.0
10011,59.0,0.0,150.0,3.0,0.0
10012,68.0,0.0,90.0,11.0,0.0
10013,54.0,0.0,150.0,2.0,0.0
10014,83.0,0.0,150.0,0.0,0.0
10015,66.0,0.0,90.0,11.0,0.0
10016,66.0,114.0,90.0,10.0,0.0
10017,44.0,0.0,150.0,12.0,0.0
10018,59.0,0.0,1350.0,4.0,0.0
10019,47.0,0.0,390.0,5.0,0.0
10020,64.0,0.0,60.0,10.0,0.0
10021,32.0,0.0,150.0,14.0,0.0
10022,44.0,96.0,150.0,13.0,0.0
10023,64.0,72.0,60.0,11.0,0.0
10024,71.0,0.0,1350.0,4.0,0.0
10025,76.0,120.0,120.0,10.0,0.0
10026,76.0,0.0,120.0,11.0,0.0
10027,76.0,60.0,150.0,1.0,0.0
10028,56.0,0.0,150.0,12.0,0.0
10029,56.0,12.0,150.0,13.0,0.0
10030,52.0,0.0,150.0,2.0,0.0
10031,56.0,0.0,150.0,2.0,0.0
10032,83.0,0.0,150.0,0.0,0.0
10033,68.0,0.0,150.0,1.0,0.0
10034,80.0,24.0,120.0,11.0,0.0
10035,59.0,0.0,150.0,3.0,0.0
10036,80.0,0.0,120.0,10.0,0.0
10037,44.0,0.0,150.0,14.0,0.0
10038,47.0,0.0,150.0,3.0,0.0
10039,76.0,144.0,90.0,11.0,0.0
10040,76.0,0.0,90.0,10.0,0.0
10041,56.0,0.0,150.0,2.0,0.0
10042,52.0,0.0,150.0,2.0,0.0
10043,68.0,60.0,150.0,1.0,0.0
10044,59.0,0.0,150.0,3.0,0.0
10045,47.0,0.0,150.0,3.0,0.0
10046,56.0,0.0,390.0,12.0,0.0
10047,80.0,36.0,120.0,10.0,0.0
10048,56.0,0.0,390.0,13.0,0.0
10049,76.0,0.0,150.0,1.0,0.0
10050,80.0,0.0,120.0,11.0,0.0
10051,44.0,12.0,390.0,14.0,0.0
10052,47.0,0.0,390.0,5.0,0.0
10053,83.0,0.0,150.0,0.0,0.0
10054,76.0,144.0,90.0,10.0,0.0
10055,76.0,0.0,90.0,11.0,0.0
10056,80.0,0.0,120.0,11.0,0.0
10057,59.0,0.0,150.0,3.0,0.0
10058,47.0,60.0,150.0,3.0,0.0
10059,76.0,0.0,150.0,1.0,0.0
10060,68.0,0.0,150.0,1.0,0.0
10061,83.0,0.0,150.0,0.0,0.0
10062,52.0,0.0,150.0,2.0,0.0
10063,80.0,24.0,120.0,10.0,0.0
10064,56.0,0.0,150.0,2.0,0.0
10065,76.0,102.0,90.0,11.0,0.0
10066,76.0,0.0,90.0,10.0,0.0
10067,32.0,0.0,150.0,14.0,0.0
10068,44.0,0.0,150.0,12.0,0.0
10069,80.0,66.0,90.0,10.0,0.0
10070,80.0,0.0,90.0,11.0,0.0
10071,47.0,12.0,390.0,5.0,0.0
10072,44.0,54.0,150.0,13.0,0.0
10073,78.0,0.0,90.0,11.0,0.0
10074,78.0,120.0,90.0,10.0,0.0
10075,59.0,0.0,150.0,3.0,0.0
10076,47.0,0.0,150.0,3.0,0.0
10077,68.0,0.0,150.0,1.0,0.0
10078,76.0,0.0,90.0,11.0,0.0
10079,83.0,42.0,150.0,0.0,0.0
10080,76.0,0.0,150.0,1.0,0.0
10081,44.0,0.0,150.0,14.0,0.0
10082,76.0,66.0,90.0,10.0,0.0
10083,52.0,0.0,150.0,2.0,0.0
10084,56.0,0.0,150.0,2.0,0.0
10085,56.0,0.0,150.0,13.0,0.0
10086,56.0,0.0,150.0,12.0,0.0
10087,75.0,0.0,90.0,11.0,0.0
10088,75.0,120.0,90.0,10.0,0.0
10089,59.0,0.0,150.0,3.0,0.0
10090,52.0,0.0,150.0,2.0,0.0
10091,56.0,42.0,150.0,2.0,0.0
10092,56.0,0.0,390.0,13.0,0.0
10093,47.0,0.0,150.0,3.0,0.0
10094,56.0,12.0,390.0,12.0,0.0
10095,76.0,0.0,150.0,1.0,0.0
10096,68.0,0.0,150.0,1.0,0.0
10097,73.0,0.0,90.0,11.0,0.0
10098,83.0,0.0,150.0,0.0,0.0
10099,73.0,78.0,90.0,10.0,0.0
10100,44.0,0.0,390.0,14.0,0.0
10101,71.0,120.0,90.0,11.0,0.0
10102,71.0,0.0,90.0,10.0,0.0
10103,52.0,42.0,150.0,2.0,0.0
10104,69.0,0.0,90.0,10.0,0.0
10105,68.0,0.0,150.0,1.0,0.0
10106,76.0,0.0,150.0,1.0,0.0
10107,69.0,66.0,90.0,11.0,0.0
10108,59.0,0.0,150.0,3.0,0.0
10109,83.0,0.0,150.0,0.0,0.0
10110,47.0,0.0,150.0,3.0,0.0
10111,56.0,0.0,150.0,2.0,0.0
10112,68.0,162.0,90.0,11.0,0.0
10113,68.0,0.0,90.0,10.0,0.0
10114,77.0,24.0,120.0,11.0,0.0
10115,32.0,0.0,150.0,14.0,0.0
10116,77.0,0.0,120.0,10.0,0.0
10117,71.0,0.0,1350.0,4.0,0.0
10118,59.0,0.0,1350.0,4.0,0.0
10119,44.0,0.0,150.0,12.0,0.0
10120,44.0,72.0,150.0,13.0,0.0
10121,47.0,12.0,390.0,5.0,0.0
10122,80.0,144.0,90.0,11.0,0.0
10123,80.0,0.0,90.0,10.0,0.0
10124,71.0,0.0,150.0,1.0,0.0
10125,77.0,0.0,150.0,1.0,0.0
10126,56.0,0.0,150.0,12.0,0.0
10127,83.0,0.0,150.0,0.0,0.0
10128,59.0,60.0,150.0,3.0,0.0
10129,83.0,24.0,120.0,11.0,0.0
10130,59.0,0.0,150.0,2.0,0.0
10131,44.0,0.0,150.0,14.0,0.0
10132,83.0,0.0,120.0,10.0,0.0
10133,56.0,0.0,150.0,13.0,0.0
10134,47.0,0.0,150.0,3.0,0.0
10135,53.0,0.0,150.0,2.0,0.0
10136,80.0,144.0,90.0,10.0,0.0
10137,80.0,0.0,90.0,11.0,0.0
10138,83.0,0.0,120.0,11.0,0.0
10139,44.0,12.0,390.0,14.0,0.0
10140,56.0,0.0,390.0,13.0,0.0
10141,71.0,60.0,150.0,1.0,0.0
10142,59.0,0.0,150.0,3.0,0.0
10143,83.0,0.0,150.0,0.0,0.0
10144,56.0,0.0,390.0,12.0,0.0
10145,59.0,0.0,150.0,2.0,0.0
10146,47.0,0.0,390.0,5.0,0.0
10147,47.0,0.0,150.0,3.0,0.0
10148,83.0,36.0,120.0,10.0,0.0
10149,77.0,0.0,150.0,1.0,0.0
10150,53.0,0.0,150.0,2.0,0.0
10151,80.0,0.0,90.0,11.0,0.0
10152,80.0,144.0,90.0,10.0,0.0
10153,71.0,0.0,150.0,1.0,0.0
10154,77.0,0.0,150.0,1.0,0.0
10155,59.0,0.0,150.0,2.0,0.0
10156,83.0,24.0,120.0,11.0,0.0
10157,53.0,0.0,150.0,2.0,0.0
10158,83.0,0.0,150.0,0.0,0.0
10159,59.0,60.0,150.0,3.0,0.0
10160,47.0,0.0,150.0,3.0,0.0
10161,83.0,0.0,120.0,10.0,0.0
10162,80.0,0.0,90.0,10.0,0.0
10163,80.0,102.0,90.0,11.0,0.0
10164,44.0,0.0,150.0,12.0,0.0
10165,47.0,0.0,390.0,5.0,0.0
10166,83.0,0.0,90.0,11.0,0.0
10167,44.0,0.0,150.0,13.0,0.0
10168,83.0,66.0,90.0,10.0,0.0
10169,32.0,54.0,150.0,14.0,0.0
10170,82.0,0.0,90.0,11.0,0.0
10171,82.0,120.0,90.0,10.0,0.0
10172,59.0,0.0,150.0,2.0,0.0
10173,83.0,0.0,150.0,0.0,0.0
10174,80.0,0.0,90.0,10.0,0.0
10175,53.0,0.0,150.0,2.0,0.0
10176,47.0,42.0,150.0,3.0,0.0
10177,59.0,0.0,150.0,3.0,0.0
10178,80.0,66.0,90.0,11.0,0.0
10179,44.0,0.0,150.0,14.0,0.0
10180,77.0,0.0,150.0,1.0,0.0
10181,71.0,0.0,150.0,1.0,0.0
10182,56.0,0.0,150.0,13.0,0.0
10183,56.0,12.0,150.0,12.0,0.0
10184,78.0,120.0,90.0,11.0,0.0
10185,78.0,0.0,90.0,10.0,0.0
10186,47.0,0.0,150.0,3.0,0.0
10187,44.0,0.0,390.0,14.0,0.0
10188,56.0,12.0,390.0,13.0,0.0
10189,56.0,0.0,390.0,12.0,0.0
10190,77.0,0.0,90.0,11.0,0.0
10191,83.0,42.0,150.0,0.0,0.0
10192,53.0,0.0,150.0,2.0,0.0
10193,59.0,0.0,150.0,2.0,0.0
10194,59.0,0.0,150.0,3.0,0.0
10195,77.0,0.0,150.0,1.0,0.0
10196,71.0,0.0,150.0,1.0,0.0
10197,77.0,78.0,90.0,10.0,0.0
10198,75.0,120.0,90.0,10.0,0.0
10199,75.0,0.0,90.0,11.0,0.0
10200,59.0,0.0,150.0,2.0,0.0
10201,47.0,0.0,150.0,3.0,0.0
10202,59.0,42.0,150.0,3.0,0.0
10203,53.0,0.0,150.0,2.0,0.0
10204,77.0,0.0,150.0,1.0,0.0
10205,73.0,66.0,90.0,10.0,0.0
10206,73.0,0.0,90.0,11.0,0.0
10207,71.0,0.0,150.0,1.0,0.0
10208,83.0,0.0,150.0,0.0,0.0
10209,71.0,0.0,90.0,11.0,0.0
10210,71.0,138.0,90.0,10.0,0.0
10211,61.0,0.0,150.0,3.0,0.0
10212,54.0,0.0,150.0,3.0,0.0
10213,54.0,0.0,150.0,12.0,0.0
10214,70.0,0.0,150.0,1.0,0.0
10215,58.0,0.0,150.0,2.0,0.0
10216,70.0,0.0,90.0,11.0,0.0
10217,54.0,0.0,150.0,2.0,0.0
10218,42.0,0.0,390.0,5.0,0.0
10219,78.0,0.0,150.0,1.0,0.0
10220,66.0,12.0,390.0,4.0,0.0
10221,54.0,0.0,390.0,4.0,0.0
10222,42.0,0.0,150.0,13.0,0.0
10223,82.0,0.0,150.0,0.0,0.0
10224,70.0,60.0,90.0,10.0,0.0
10225,30.0,60.0,150.0,14.0,0.0
10226,82.0,0.0,90.0,11.0,0.0
10227,82.0,120.0,90.0,10.0,0.0
10228,54.0,0.0,150.0,13.0,0.0
10229,80.0,48.0,90.0,10.0,0.0
10230,78.0,60.0,150.0,0.0,0.0
10231,42.0,0.0,150.0,14.0,0.0
10232,70.0,0.0,150.0,1.0,0.0
10233,80.0,0.0,90.0,11.0,0.0
10234,58.0,0.0,150.0,2.0,0.0
10235,61.0,0.0,150.0,3.0,0.0
10236,54.0,0.0,150.0,3.0,0.0
10237,73.0,0.0,150.0,1.0,0.0
10238,61.0,0.0,150.0,2.0,0.0
10239,66.0,0.0,150.0,12.0,0.0
10240,78.0,0.0,90.0,11.0,0.0
10241,78.0,120.0,90.0,10.0,0.0
10242,59.0,0.0,150.0,3.0,0.0
10243,56.0,0.0,150.0,2.0,0.0
10244,77.0,0.0,90.0,11.0,0.0
10245,71.0,0.0,150.0,1.0,0.0
10246,68.0,0.0,150.0,1.0,0.0
10247,61.0,0.0,150.0,3.0,0.0
10248,59.0,0.0,150.0,2.0,0.0
10249,54.0,60.0,150.0,13.0,0.0
10250,66.0,0.0,150.0,12.0,0.0
10251,42.0,0.0,150.0,14.0,0.0
10252,77.0,0.0,150.0,0.0,0.0
10253,77.0,60.0,90.0,10.0,0.0
10254,83.0,0.0,90.0,11.0,0.0
10255,83.0,120.0,90.0,10.0,0.0
10256,80.0,0.0,90.0,11.0,0.0
10257,42.0,0.0,150.0,14.0,0.0
10258,66.0,0.0,150.0,12.0,0.0
10259,59.0,0.0,150.0,3.0,0.0
10260,53.0,0.0,150.0,2.0,0.0
10261,61.0,0.0,150.0,3.0,0.0
10262,56.0,0.0,150.0,2.0,0.0
10263,77.0,0.0,150.0,1.0,0.0
10264,80.0,60.0,90.0,10.0,0.0
10265,68.0,60.0,150.0,1.0,0.0
10266,83.0,0.0,150.0,0.0,0.0
10267,54.0,0.0,150.0,13.0,0.0
10268,77.0,0.0,90.0,11.0,0.0
10269,77.0,120.0,90.0,10.0,0.0
10270,54.0,0.0,150.0,13.0,0.0
10271,66.0,0.0,150.0,12.0,0.0
10272,70.0,60.0,90.0,11.0,0.0
10273,61.0,0.0,150.0,3.0,0.0
10274,54.0,60.0,150.0,3.0,0.0
10275,70.0,0.0,90.0,10.0,0.0
10276,70.0,0.0,150.0,1.0,0.0
10277,42.0,12.0,390.0,5.0,0.0
10278,54.0,0.0,150.0,2.0,0.0
10279,66.0,0.0,390.0,4.0,0.0
10280,78.0,0.0,150.0,1.0,0.0
10281,58.0,0.0,150.0,2.0,0.0
10282,82.0,0.0,150.0,0.0,0.0
10283,42.0,0.0,150.0,14.0,0.0
10284,54.0,0.0,390.0,4.0,0.0
10285,82.0,120.0,90.0,10.0,0.0
10286,82.0,0.0,90.0,11.0,0.0
10287,80.0,0.0,90.0,10.0,0.0
10288,70.0,0.0,150.0,1.0,0.0
10289,73.0,60.0,150.0,1.0,0.0
10290,61.0,0.0,150.0,3.0,0.0
10291,80.0,48.0,90.0,11.0,0.0
10292,66.0,0.0,150.0,12.0,0.0
10293,54.0,0.0,150.0,3.0,0.0
10294,61.0,0.0,150.0,2.0,0.0
10295,58.0,0.0,150.0,2.0,0.0
10296,78.0,0.0,150.0,0.0,0.0
10297,54.0,0.0,150.0,13.0,0.0
10298,42.0,0.0,150.0,14.0,0.0
10299,78.0,0.0,90.0,10.0,0.0
10300,78.0,120.0,90.0,11.0,0.0
10301,54.0,60.0,150.0,13.0,0.0
10302,61.0,0.0,150.0,3.0,0.0
10303,59.0,0.0,150.0,3.0,0.0
10304,42.0,0.0,150.0,14.0,0.0
10305,77.0,60.0,90.0,11.0,0.0
10306,56.0,0.0,150.0,2.0,0.0
10307,59.0,0.0,150.0,2.0,0.0
10308,71.0,0.0,150.0,1.0,0.0
10309,77.0,0.0,150.0,0.0,0.0
10310,77.0,0.0,90.0,10.0,0.0
10311,66.0,0.0,150.0,12.0,0.0
10312,68.0,0.0,150.0,1.0,0.0
10313,83.0,0.0,90.0,10.0,0.0
10314,83.0,120.0,90.0,11.0,0.0
10315,66.0,60.0,150.0,12.0,0.0
10316,59.0,0.0,150.0,3.0,0.0
10317,61.0,0.0,150.0,3.0,0.0
10318,53.0,0.0,150.0,2.0,0.0
10319,56.0,0.0,150.0,2.0,0.0
10320,83.0,0.0,150.0,0.0,0.0
10321,54.0,0.0,150.0,13.0,0.0
10322,77.0,0.0,150.0,1.0,0.0
10323,80.0,0.0,90.0,10.0,0.0
10324,42.0,0.0,150.0,14.0,0.0
10325,68.0,0.0,150.0,1.0,0.0
10326,80.0,60.0,90.0,11.0,0.0
10327,77.0,180.0,90.0,10.0,0.0
10328,77.0,0.0,90.0,11.0,0.0
10329,42.0,0.0,150.0,14.0,0.0
10330,42.0,12.0,390.0,5.0,0.0
10331,54.0,0.0,150.0,2.0,0.0
10332,58.0,0.0,150.0,2.0,0.0
10333,66.0,0.0,150.0,4.0,0.0
10334,54.0,162.0,150.0,4.0,0.0
10335,78.0,0.0,150.0,1.0,0.0
10336,66.0,0.0,150.0,1.0,0.0
10337,66.0,0.0,150.0,12.0,0.0
10338,78.0,0.0,150.0,10.0,0.0
10339,61.0,0.0,150.0,3.0,0.0
10340,54.0,0.0,150.0,3.0,0.0
10341,54.0,0.0,150.0,13.0,0.0
10342,78.0,0.0,150.0,11.0,0.0
10343,82.0,0.0,150.0,0.0,0.0
10344,78.0,0.0,150.0,0.0,0.0
10345,66.0,66.0,90.0,10.0,0.0
10346,58.0,0.0,150.0,2.0,0.0
10347,66.0,0.0,90.0,11.0,0.0
10348,54.0,0.0,150.0,3.0,0.0
10349,42.0,42.0,150.0,3.0,0.0
10350,54.0,0.0,150.0,12.0,0.0
10351,58.0,0.0,90.0,11.0,0.0
10352,61.0,0.0,150.0,2.0,0.0
10353,58.0,0.0,90.0,10.0,0.0
10354,66.0,0.0,150.0,4.0,0.0
10355,54.0,0.0,150.0,4.0,0.0
10356,42.0,0.0,150.0,13.0,0.0
10357,30.0,0.0,150.0,14.0,0.0
10358,73.0,0.0,150.0,1.0,0.0
10359,70.0,0.0,150.0,1.0,0.0
10360,58.0,0.0,90.0,11.0,0.0
10361,58.0,198.0,90.0,10.0,0.0
10362,66.0,0.0,90.0,10.0,0.0
10363,66.0,0.0,90.0,11.0,0.0
10364,66.0,0.0,150.0,11.0,0.0
10365,58.0,0.0,150.0,11.0,0.0
10366,42.0,12.0,390.0,5.0,0.0
10367,58.0,0.0,150.0,2.0,0.0
10368,61.0,0.0,150.0,2.0,0.0
10369,58.0,0.0,150.0,10.0,0.0
10370,42.0,0.0,150.0,3.0,0.0
10371,54.0,0.0,150.0,3.0,0.0
10372,30.0,228.0,150.0,14.0,0.0
10373,70.0,0.0,150.0,1.0,0.0
10374,54.0,0.0,150.0,12.0,0.0
10375,54.0,0.0,150.0,4.0,0.0
10376,66.0,0.0,150.0,4.0,0.0
10377,42.0,0.0,150.0,13.0,0.0
10378,73.0,0.0,150.0,1.0,0.0
10379,66.0,0.0,150.0,10.0,0.0
10380,78.0,0.0,150.0,0.0,0.0
10381,70.0,0.0,150.0,1.0,0.0
10382,78.0,0.0,150.0,0.0,0.0
10383,42.0,0.0,150.0,13.0,0.0
10384,66.0,0.0,150.0,4.0,0.0
10385,54.0,0.0,150.0,4.0,0.0
10386,42.0,0.0,150.0,3.0,0.0
10387,58.0,468.0,150.0,2.0,0.0
10388,54.0,0.0,150.0,3.0,0.0
10389,73.0,0.0,150.0,1.0,0.0
10390,54.0,0.0,150.0,12.0,0.0
10391,66.0,0.0,150.0,11.0,0.0
10392,61.0,0.0,150.0,2.0,0.0
10393,66.0,0.0,150.0,10.0,0.0
10394,58.0,0.0,150.0,10.0,0.0
10395,30.0,0.0,150.0,14.0,0.0
10396,58.0,0.0,150.0,11.0,0.0
10397,73.0,0.0,390.0,1.0,0.0
10398,66.0,0.0,390.0,4.0,0.0
10399,30.0,0.0,390.0,14.0,0.0
10400,58.0,0.0,390.0,10.0,0.0
10401,42.0,0.0,390.0,5.0,0.0
10402,66.0,0.0,390.0,10.0,0.0
10403,54.0,0.0,390.0,4.0,0.0
10404,70.0,0.0,390.0,1.0,0.0
10405,42.0,0.0,390.0,13.0,0.0
10406,66.0,0.0,390.0,11.0,0.0
10407,58.0,0.0,390.0,2.0,0.0
10408,78.0,0.0,390.0,0.0,0.0
10409,54.0,0.0,390.0,12.0,0.0
10410,58.0,414.0,390.0,11.0,0.0
10411,61.0,0.0,390.0,2.0,0.0
10412,42.0,0.0,390.0,3.0,0.0
10413,54.0,0.0,390.0,3.0,0.0
10414,75.0,120.0,90.0,10.0,0.0
10415,76.0,162.0,90.0,10.0,0.0
10416,78.0,0.0,120.0,10.0,0.0
10417,63.0,78.0,120.0,11.0,0.0
10418,66.0,78.0,120.0,11.0,0.0
10419,76.0,42.0,90.0,10.0,0.0
10420,63.0,78.0,120.0,11.0,0.0
10421,75.0,42.0,90.0,10.0,0.0
10422,66.0,120.0,120.0,11.0,0.0
10423,73.0,42.0,90.0,10.0,0.0
10424,63.0,36.0,120.0,11.0,0.0
10425,71.0,84.0,150.0,10.0,0.0
10426,66.0,120.0,120.0,11.0,0.0
10427,85.0,0.0,150.0,0.0,0.0
10428,73.0,0.0,150.0,1.0,0.0
10429,63.0,24.0,120.0,11.0,0.0
10430,61.0,48.0,150.0,2.0,0.0
10431,66.0,168.0,60.0,11.0,0.0
10432,54.0,0.0,720.0,2.0,0.0
10433,66.0,0.0,720.0,1.0,0.0
10434,78.0,120.0,720.0,0.0,0.0
10435,64.0,120.0,120.0,11.0,0.0
10436,66.0,120.0,120.0,11.0,0.0
10437,64.0,24.0,120.0,11.0,0.0
10438,78.0,96.0,150.0,10.0,0.0
10439,66.0,120.0,120.0,11.0,0.0
10440,78.0,96.0,150.0,10.0,0.0
10441,64.0,24.0,120.0,11.0,0.0
10442,66.0,0.0,120.0,11.0,0.0
10443,68.0,0.0,120.0,1.0,0.0
10444,78.0,48.0,150.0,10.0,0.0
10445,64.0,0.0,120.0,11.0,0.0
10446,80.0,0.0,120.0,0.0,0.0
10447,56.0,24.0,120.0,2.0,0.0
10448,58.0,0.0,120.0,2.0,0.0
10449,70.0,0.0,120.0,1.0,0.0
10450,66.0,48.0,60.0,11.0,0.0
10451,82.0,120.0,120.0,0.0,0.0
10452,59.0,0.0,180.0,2.0,0.0
10453,83.0,48.0,180.0,0.0,0.0
10454,63.0,72.0,120.0,11.0,0.0
10455,71.0,0.0,180.0,1.0,0.0
10456,78.0,120.0,240.0,10.0,0.0
10457,66.0,0.0,120.0,11.0,0.0
10458,63.0,120.0,120.0,11.0,0.0
10459,80.0,0.0,120.0,10.0,0.0
10460,82.0,0.0,120.0,10.0,0.0
10461,66.0,120.0,120.0,11.0,0.0
10462,83.0,0.0,120.0,10.0,0.0
10463,63.0,120.0,120.0,11.0,0.0
10464,66.0,0.0,120.0,11.0,0.0
10465,82.0,120.0,120.0,10.0,0.0
10466,80.0,0.0,120.0,10.0,0.0
10467,63.0,72.0,120.0,11.0,0.0
10468,78.0,84.0,90.0,10.0,0.0
10469,66.0,24.0,60.0,11.0,0.0
10470,61.0,48.0,120.0,11.0,0.0
10471,78.0,60.0,60.0,10.0,0.0
10472,76.0,72.0,120.0,10.0,0.0
10473,66.0,120.0,120.0,11.0,0.0
10474,61.0,24.0,120.0,11.0,0.0
10475,76.0,96.0,150.0,10.0,0.0
10476,66.0,60.0,120.0,11.0,0.0
10477,59.0,48.0,120.0,11.0,0.0
10478,76.0,60.0,60.0,10.0,0.0
10479,75.0,72.0,120.0,10.0,0.0
10480,66.0,120.0,120.0,11.0,0.0
10481,75.0,48.0,150.0,10.0,0.0
10482,59.0,24.0,120.0,11.0,0.0
10483,66.0,108.0,60.0,11.0,0.0
10484,64.0,48.0,120.0,11.0,0.0
10485,75.0,60.0,60.0,10.0,0.0
10486,73.0,72.0,120.0,10.0,0.0
10487,68.0,120.0,120.0,11.0,0.0
10488,73.0,96.0,150.0,10.0,0.0
10489,64.0,24.0,120.0,11.0,0.0
10490,68.0,60.0,120.0,11.0,0.0
10491,65.0,48.0,120.0,11.0,0.0
10492,73.0,60.0,60.0,10.0,0.0
10493,71.0,72.0,120.0,10.0,0.0
10494,68.0,120.0,120.0,11.0,0.0
10495,71.0,48.0,150.0,10.0,0.0
10496,65.0,24.0,120.0,11.0,0.0
10497,68.0,432.0,60.0,11.0,0.0
10498,70.0,144.0,480.0,10.0,0.0
10499,66.0,96.0,390.0,11.0,0.0
10500,73.0,168.0,150.0,10.0,0.0
10501,75.0,120.0,60.0,10.0,0.0
10502,76.0,168.0,60.0,10.0,0.0
10503,54.0,72.0,3660.0,3.0,0.0
10504,42.0,0.0,3660.0,3.0,0.0
10505,51.0,0.0,120.0,12.0,0.0
10506,78.0,0.0,120.0,10.0,0.0
10507,63.0,72.0,120.0,11.0,0.0
10508,76.0,48.0,60.0,10.0,0.0
10509,54.0,0.0,120.0,12.0,0.0
10510,66.0,72.0,120.0,11.0,0.0
10511,63.0,0.0,120.0,11.0,0.0
10512,51.0,72.0,120.0,12.0,0.0
10513,75.0,48.0,60.0,10.0,0.0
10514,66.0,0.0,120.0,11.0,0.0
10515,54.0,120.0,120.0,12.0,0.0
10516,73.0,48.0,60.0,10.0,0.0
10517,51.0,0.0,120.0,12.0,0.0
10518,71.0,96.0,150.0,10.0,0.0
10519,63.0,24.0,120.0,11.0,0.0
10520,54.0,0.0,120.0,12.0,0.0
10521,66.0,120.0,120.0,11.0,0.0
10522,63.0,24.0,120.0,11.0,0.0
10523,73.0,0.0,150.0,1.0,0.0
10524,49.0,48.0,150.0,2.0,0.0
10525,61.0,0.0,150.0,2.0,0.0
10526,51.0,0.0,120.0,12.0,0.0
10527,66.0,0.0,60.0,11.0,0.0
10528,54.0,168.0,60.0,12.0,0.0
10529,64.0,120.0,120.0,11.0,0.0
10530,52.0,0.0,120.0,12.0,0.0
10531,54.0,0.0,720.0,2.0,0.0
10532,42.0,0.0,720.0,2.0,0.0
10533,66.0,0.0,720.0,1.0,0.0
10534,54.0,0.0,120.0,12.0,0.0
10535,66.0,120.0,120.0,11.0,0.0
10536,52.0,24.0,120.0,12.0,0.0
10537,66.0,96.0,150.0,10.0,0.0
10538,64.0,0.0,120.0,11.0,0.0
10539,54.0,120.0,120.0,12.0,0.0
10540,66.0,0.0,120.0,11.0,0.0
10541,66.0,96.0,150.0,10.0,0.0
10542,52.0,24.0,120.0,12.0,0.0
10543,64.0,0.0,120.0,11.0,0.0
10544,66.0,120.0,120.0,11.0,0.0
10545,54.0,0.0,120.0,12.0,0.0
10546,68.0,0.0,120.0,1.0,0.0
10547,52.0,24.0,120.0,12.0,0.0
10548,44.0,0.0,120.0,2.0,0.0
10549,56.0,0.0,120.0,2.0,0.0
10550,66.0,48.0,150.0,10.0,0.0
10551,64.0,0.0,120.0,11.0,0.0
10552,54.0,0.0,60.0,12.0,0.0
10553,66.0,48.0,60.0,11.0,0.0
10554,46.0,0.0,120.0,2.0,0.0
10555,58.0,0.0,120.0,2.0,0.0
10556,70.0,120.0,120.0,1.0,0.0
10557,66.0,0.0,240.0,10.0,0.0
10558,59.0,0.0,180.0,2.0,0.0
10559,47.0,48.0,180.0,2.0,0.0
10560,71.0,0.0,180.0,1.0,0.0
10561,50.0,0.0,120.0,12.0,0.0
10562,62.0,72.0,120.0,11.0,0.0
10563,54.0,0.0,120.0,12.0,0.0
10564,66.0,120.0,120.0,11.0,0.0
10565,50.0,0.0,120.0,12.0,0.0
10566,68.0,0.0,120.0,10.0,0.0
10567,62.0,120.0,120.0,11.0,0.0
10568,70.0,0.0,120.0,10.0,0.0
10569,54.0,0.0,120.0,12.0,0.0
10570,66.0,120.0,120.0,11.0,0.0
10571,50.0,0.0,120.0,12.0,0.0
10572,71.0,120.0,120.0,10.0,0.0
10573,62.0,0.0,120.0,11.0,0.0
10574,54.0,0.0,120.0,12.0,0.0
10575,69.0,120.0,120.0,10.0,0.0
10576,66.0,0.0,120.0,11.0,0.0
10577,62.0,0.0,120.0,11.0,0.0
10578,50.0,0.0,120.0,12.0,0.0
10579,67.0,72.0,120.0,10.0,0.0
10580,54.0,0.0,60.0,12.0,0.0
10581,66.0,84.0,90.0,10.0,0.0
10582,66.0,24.0,60.0,11.0,0.0
10583,61.0,0.0,120.0,11.0,0.0
10584,49.0,48.0,120.0,12.0,0.0
10585,66.0,60.0,60.0,10.0,0.0
10586,64.0,72.0,120.0,10.0,0.0
10587,66.0,0.0,120.0,11.0,0.0
10588,54.0,120.0,120.0,12.0,0.0
10589,61.0,0.0,120.0,11.0,0.0
10590,64.0,96.0,150.0,10.0,0.0
10591,49.0,24.0,120.0,12.0,0.0
10592,66.0,60.0,120.0,11.0,0.0
10593,54.0,0.0,120.0,12.0,0.0
10594,47.0,48.0,120.0,12.0,0.0
10595,64.0,60.0,60.0,10.0,0.0
10596,59.0,0.0,120.0,11.0,0.0
10597,62.0,72.0,120.0,10.0,0.0
10598,66.0,0.0,120.0,11.0,0.0
10599,54.0,48.0,120.0,12.0,0.0
10600,59.0,0.0,120.0,11.0,0.0
10601,62.0,48.0,150.0,10.0,0.0
10602,47.0,24.0,120.0,12.0,0.0
10603,66.0,0.0,60.0,11.0,0.0
10604,54.0,168.0,60.0,12.0,0.0
10605,52.0,120.0,960.0,2.0,0.0
10606,62.0,0.0,120.0,10.0,0.0
10607,55.0,0.0,1860.0,11.0,0.0
10608,52.0,120.0,120.0,12.0,0.0
10609,55.0,120.0,1920.0,2.0,0.0
10610,55.0,120.0,120.0,12.0,0.0
10611,60.0,42.0,810.0,10.0,0.0
10612,52.0,120.0,120.0,12.0,0.0
10613,55.0,120.0,120.0,12.0,0.0
10614,52.0,120.0,120.0,12.0,0.0
10615,55.0,120.0,120.0,12.0,0.0
10616,52.0,72.0,120.0,12.0,0.0
10617,55.0,6.0,60.0,12.0,0.0
10618,59.0,0.0,120.0,10.0,0.0
10619,51.0,120.0,120.0,12.0,0.0
10620,51.0,0.0,960.0,2.0,0.0
10621,55.0,120.0,120.0,12.0,0.0
10622,60.0,42.0,810.0,10.0,0.0
10623,51.0,120.0,120.0,12.0,0.0
10624,55.0,120.0,120.0,12.0,0.0
10625,51.0,120.0,120.0,12.0,0.0
10626,55.0,120.0,120.0,12.0,0.0
10627,51.0,72.0,120.0,12.0,0.0
10628,55.0,6.0,60.0,12.0,0.0
10629,57.0,0.0,1740.0,12.0,0.0
10630,60.0,120.0,240.0,10.0,0.0
10631,26.0,0.0,390.0,14.0,0.0
10632,38.0,0.0,390.0,13.0,0.0
10633,54.0,120.0,120.0,11.0,0.0
10634,54.0,0.0,390.0,2.0,0.0
10635,50.0,96.0,390.0,2.0,0.0
10636,54.0,24.0,1740.0,12.0,0.0
10637,57.0,0.0,120.0,11.0,0.0
10638,72.0,0.0,480.0,10.0,0.0
10639,62.0,24.0,120.0,11.0,0.0
10640,57.0,120.0,120.0,11.0,0.0
10641,62.0,120.0,120.0,11.0,0.0
10642,57.0,72.0,120.0,11.0,0.0
10643,69.0,0.0,480.0,10.0,0.0
10644,62.0,72.0,120.0,11.0,0.0
10645,57.0,48.0,60.0,2.0,0.0
10646,57.0,144.0,90.0,11.0,0.0
10647,59.0,24.0,60.0,2.0,0.0
10648,60.0,0.0,120.0,2.0,0.0
10649,50.0,0.0,390.0,13.0,0.0
10650,54.0,72.0,120.0,11.0,0.0
10651,38.0,48.0,390.0,14.0,0.0
10652,57.0,72.0,120.0,11.0,0.0
10653,59.0,48.0,60.0,2.0,0.0
10654,66.0,48.0,480.0,10.0,0.0
10655,62.0,24.0,120.0,11.0,0.0
10656,57.0,48.0,60.0,2.0,0.0
10657,57.0,120.0,120.0,11.0,0.0
10658,55.0,48.0,60.0,2.0,0.0
10659,62.0,24.0,120.0,11.0,0.0
10660,54.0,96.0,150.0,2.0,0.0
10661,57.0,0.0,120.0,11.0,0.0
10662,62.0,72.0,120.0,11.0,0.0
10663,60.0,24.0,180.0,10.0,0.0
10664,71.0,48.0,60.0,0.0,0.0
10665,57.0,144.0,90.0,11.0,0.0
10666,72.0,0.0,60.0,0.0,0.0
10667,59.0,72.0,240.0,10.0,0.0
10668,74.0,72.0,120.0,0.0,0.0
10669,26.0,48.0,390.0,14.0,0.0
10670,55.0,0.0,1860.0,12.0,0.0
10671,55.0,0.0,120.0,11.0,0.0
10672,59.0,24.0,1860.0,12.0,0.0
10673,38.0,0.0,390.0,13.0,0.0
10674,72.0,48.0,60.0,0.0,0.0
10675,59.0,0.0,120.0,11.0,0.0
10676,71.0,48.0,60.0,0.0,0.0
10677,74.0,0.0,480.0,10.0,0.0
10678,62.0,24.0,120.0,11.0,0.0
10679,59.0,120.0,120.0,11.0,0.0
10680,69.0,48.0,60.0,0.0,0.0
10681,62.0,24.0,120.0,11.0,0.0
10682,67.0,96.0,150.0,0.0,0.0
10683,59.0,72.0,120.0,11.0,0.0
10684,59.0,48.0,60.0,2.0,0.0
10685,71.0,72.0,480.0,10.0,0.0
10686,62.0,72.0,120.0,11.0,0.0
10687,59.0,144.0,90.0,11.0,0.0
10688,60.0,24.0,60.0,2.0,0.0
10689,55.0,0.0,120.0,11.0,0.0
10690,50.0,0.0,390.0,13.0,0.0
10691,38.0,48.0,390.0,14.0,0.0
10692,62.0,72.0,120.0,2.0,0.0
10693,60.0,48.0,60.0,2.0,0.0
10694,59.0,0.0,120.0,11.0,0.0
10695,62.0,24.0,120.0,11.0,0.0
10696,67.0,72.0,480.0,10.0,0.0
10697,59.0,48.0,60.0,2.0,0.0
10698,57.0,48.0,60.0,2.0,0.0
10699,59.0,120.0,120.0,11.0,0.0
10700,55.0,96.0,150.0,2.0,0.0
10701,62.0,24.0,120.0,11.0,0.0
10702,59.0,0.0,120.0,11.0,0.0
10703,62.0,0.0,180.0,10.0,0.0
10704,69.0,48.0,60.0,0.0,0.0
10705,62.0,72.0,120.0,11.0,0.0
10706,59.0,144.0,90.0,11.0,0.0
10707,71.0,0.0,60.0,0.0,0.0
10708,54.0,24.0,1740.0,12.0,0.0
10709,57.0,0.0,1740.0,12.0,0.0
10710,57.0,0.0,120.0,11.0,0.0
10711,60.0,72.0,240.0,10.0,0.0
10712,38.0,0.0,390.0,13.0,0.0
10713,26.0,48.0,390.0,14.0,0.0
10714,72.0,72.0,120.0,0.0,0.0
10715,62.0,0.0,120.0,11.0,0.0
10716,71.0,48.0,60.0,0.0,0.0
10717,69.0,48.0,60.0,0.0,0.0
10718,81.0,72.0,480.0,10.0,0.0
10719,66.0,24.0,120.0,11.0,0.0
10720,62.0,120.0,120.0,11.0,0.0
10721,67.0,48.0,60.0,0.0,0.0
10722,66.0,96.0,150.0,0.0,0.0
10723,66.0,24.0,120.0,11.0,0.0
10724,62.0,0.0,120.0,11.0,0.0
10725,66.0,72.0,120.0,11.0,0.0
10726,57.0,48.0,60.0,2.0,0.0
10727,78.0,0.0,480.0,10.0,0.0
10728,58.0,24.0,60.0,2.0,0.0
10729,62.0,144.0,90.0,11.0,0.0
10730,60.0,0.0,120.0,2.0,0.0
10731,57.0,72.0,120.0,11.0,0.0
10732,50.0,48.0,390.0,13.0,0.0
10733,38.0,0.0,390.0,14.0,0.0
10734,62.0,72.0,120.0,11.0,0.0
10735,58.0,48.0,60.0,2.0,0.0
10736,57.0,48.0,60.0,2.0,0.0
10737,66.0,24.0,120.0,11.0,0.0
10738,72.0,0.0,480.0,10.0,0.0
10739,55.0,48.0,60.0,2.0,0.0
10740,62.0,120.0,120.0,11.0,0.0
10741,54.0,96.0,150.0,2.0,0.0
10742,66.0,24.0,120.0,11.0,0.0
10743,62.0,48.0,120.0,11.0,0.0
10744,70.0,48.0,60.0,0.0,0.0
10745,69.0,168.0,180.0,10.0,0.0
10746,66.0,72.0,120.0,11.0,0.0
10747,72.0,0.0,60.0,0.0,0.0
10748,62.0,0.0,60.0,11.0,0.0
10749,58.0,0.0,120.0,11.0,0.0
10750,74.0,72.0,120.0,0.0,0.0
10751,55.0,0.0,1860.0,12.0,0.0
10752,58.0,204.0,1860.0,12.0,0.0
10753,26.0,0.0,390.0,14.0,0.0
10754,38.0,48.0,390.0,13.0,0.0
10755,70.0,0.0,240.0,10.0,0.0
10756,62.0,72.0,120.0,11.0,0.0
10757,72.0,48.0,60.0,0.0,0.0
10758,67.0,24.0,120.0,11.0,0.0
10759,70.0,48.0,60.0,0.0,0.0
10760,82.0,0.0,480.0,10.0,0.0
10761,62.0,120.0,120.0,11.0,0.0
10762,69.0,48.0,60.0,0.0,0.0
10763,67.0,24.0,120.0,11.0,0.0
10764,67.0,96.0,150.0,0.0,0.0
10765,62.0,72.0,120.0,11.0,0.0
10766,67.0,72.0,120.0,11.0,0.0
10767,79.0,0.0,480.0,10.0,0.0
10768,58.0,48.0,60.0,2.0,0.0
10769,60.0,168.0,60.0,2.0,0.0
10770,62.0,0.0,60.0,11.0,0.0
10771,50.0,48.0,390.0,13.0,0.0
10772,58.0,72.0,120.0,11.0,0.0
10773,38.0,0.0,390.0,14.0,0.0
10774,62.0,0.0,120.0,2.0,0.0
10775,60.0,48.0,60.0,2.0,0.0
10776,62.0,72.0,120.0,11.0,0.0
10777,74.0,120.0,480.0,10.0,0.0
10778,58.0,48.0,60.0,2.0,0.0
10779,67.0,24.0,120.0,11.0,0.0
10780,62.0,120.0,120.0,11.0,0.0
10781,57.0,48.0,60.0,2.0,0.0
10782,67.0,24.0,120.0,11.0,0.0
10783,55.0,72.0,150.0,2.0,0.0
10784,62.0,24.0,90.0,11.0,0.0
10785,70.0,0.0,120.0,11.0,0.0
10786,70.0,0.0,120.0,10.0,0.0
10787,46.0,0.0,120.0,14.0,0.0
10788,58.0,72.0,120.0,13.0,0.0
10789,61.0,162.0,150.0,10.0,0.0
10790,70.0,0.0,780.0,1.0,0.0
10791,64.0,0.0,780.0,1.0,0.0
10792,61.0,0.0,150.0,11.0,0.0
10793,61.0,108.0,780.0,3.0,0.0
10794,49.0,0.0,480.0,13.0,0.0
10795,79.0,0.0,570.0,0.0,0.0
10796,55.0,60.0,570.0,2.0,0.0
10797,52.0,0.0,3270.0,2.0,0.0
10798,49.0,96.0,480.0,12.0,0.0
10799,37.0,0.0,480.0,14.0,0.0
10800,61.0,0.0,90.0,11.0,0.0
10801,61.0,120.0,90.0,10.0,0.0
10802,61.0,0.0,90.0,10.0,0.0
10803,61.0,42.0,90.0,11.0,0.0
10804,61.0,0.0,150.0,10.0,0.0
10805,61.0,132.0,150.0,11.0,0.0
10806,70.0,240.0,150.0,11.0,0.0
10807,70.0,0.0,150.0,10.0,0.0
10808,48.0,0.0,480.0,13.0,0.0
10809,48.0,96.0,480.0,12.0,0.0
10810,82.0,0.0,570.0,0.0,0.0
10811,58.0,60.0,570.0,2.0,0.0
10812,76.0,0.0,2310.0,1.0,0.0
10813,79.0,108.0,1740.0,1.0,0.0
10814,60.0,108.0,780.0,3.0,0.0
10815,60.0,0.0,150.0,11.0,0.0
10816,60.0,162.0,150.0,10.0,0.0
10817,36.0,0.0,480.0,14.0,0.0
10818,60.0,120.0,90.0,10.0,0.0
10819,60.0,0.0,90.0,11.0,0.0
10820,60.0,0.0,90.0,10.0,0.0
10821,60.0,42.0,90.0,11.0,0.0
10822,60.0,0.0,150.0,11.0,0.0
10823,60.0,132.0,150.0,10.0,0.0
10824,70.0,240.0,150.0,10.0,0.0
10825,70.0,0.0,150.0,11.0,0.0
10826,59.0,162.0,150.0,11.0,0.0
10827,59.0,0.0,780.0,3.0,0.0
10828,59.0,0.0,150.0,10.0,0.0
10829,35.0,96.0,480.0,14.0,0.0
10830,47.0,0.0,480.0,13.0,0.0
10831,59.0,0.0,570.0,2.0,0.0
10832,47.0,0.0,480.0,12.0,0.0
10833,83.0,60.0,570.0,0.0,0.0
10834,59.0,0.0,90.0,10.0,0.0
10835,59.0,120.0,90.0,11.0,0.0
10836,59.0,0.0,90.0,11.0,0.0
10837,59.0,42.0,90.0,10.0,0.0
10838,59.0,132.0,150.0,11.0,0.0
10839,59.0,0.0,150.0,10.0,0.0
10840,71.0,0.0,150.0,10.0,0.0
10841,71.0,324.0,150.0,11.0,0.0
10842,46.0,384.0,390.0,12.0,0.0
10843,85.0,0.0,240.0,0.0,0.0
10844,78.0,0.0,240.0,1.0,0.0
10845,46.0,0.0,390.0,13.0,0.0
10846,34.0,0.0,390.0,14.0,0.0
10847,58.0,144.0,240.0,10.0,0.0
10848,61.0,0.0,240.0,2.0,0.0
10849,58.0,0.0,240.0,11.0,0.0
10850,54.0,0.0,240.0,3.0,0.0
10851,42.0,0.0,390.0,5.0,0.0
10852,78.0,0.0,300.0,1.0,0.0
10853,76.0,0.0,390.0,1.0,0.0
10854,66.0,72.0,300.0,4.0,0.0
10855,73.0,0.0,300.0,4.0,0.0
10856,46.0,0.0,390.0,14.0,0.0
10857,61.0,0.0,300.0,3.0,0.0
10858,85.0,0.0,300.0,0.0,0.0
10859,54.0,384.0,390.0,3.0,0.0
10860,58.0,0.0,390.0,13.0,0.0
10861,58.0,24.0,300.0,2.0,0.0
10862,58.0,0.0,300.0,10.0,0.0
10863,76.0,0.0,300.0,10.0,0.0
10864,58.0,0.0,390.0,12.0,0.0
10865,58.0,0.0,300.0,11.0,0.0
10866,66.0,0.0,300.0,10.0,0.0
10867,66.0,0.0,300.0,11.0,0.0
10868,76.0,0.0,300.0,11.0,0.0
10869,47.0,0.0,300.0,14.0,0.0
10870,66.0,0.0,300.0,10.0,0.0
10871,75.0,0.0,300.0,10.0,0.0
10872,59.0,0.0,300.0,10.0,0.0
10873,78.0,0.0,300.0,1.0,0.0
10874,75.0,0.0,390.0,1.0,0.0
10875,66.0,0.0,300.0,11.0,0.0
10876,75.0,72.0,300.0,11.0,0.0
10877,59.0,0.0,300.0,11.0,0.0
10878,59.0,0.0,300.0,13.0,0.0
10879,59.0,0.0,300.0,2.0,0.0
10880,71.0,0.0,300.0,4.0,0.0
10881,75.0,0.0,300.0,4.0,0.0
10882,59.0,24.0,300.0,12.0,0.0
10883,59.0,0.0,390.0,3.0,0.0
10884,63.0,0.0,300.0,3.0,0.0
10885,47.0,240.0,390.0,5.0,0.0
10886,83.0,0.0,300.0,0.0,0.0
10887,71.0,0.0,150.0,10.0,0.0
10888,56.0,0.0,150.0,13.0,0.0
10889,71.0,0.0,150.0,11.0,0.0
10890,59.0,240.0,150.0,3.0,0.0
10891,56.0,0.0,150.0,2.0,0.0
10892,63.0,0.0,150.0,3.0,0.0
10893,44.0,0.0,150.0,14.0,0.0
10894,71.0,0.0,150.0,1.0,0.0
10895,56.0,0.0,150.0,12.0,0.0
10896,83.0,0.0,150.0,0.0,0.0
10897,75.0,0.0,150.0,1.0,0.0
10898,59.0,0.0,150.0,3.0,0.0
10899,71.0,0.0,150.0,11.0,0.0
10900,56.0,0.0,150.0,2.0,0.0
10901,71.0,0.0,150.0,10.0,0.0
10902,56.0,0.0,150.0,13.0,0.0
10903,44.0,0.0,150.0,14.0,0.0
10904,63.0,240.0,150.0,3.0,0.0
10905,75.0,0.0,150.0,1.0,0.0
10906,71.0,0.0,150.0,1.0,0.0
10907,83.0,0.0,150.0,0.0,0.0
10908,56.0,0.0,150.0,12.0,0.0
10909,73.0,0.0,150.0,1.0,0.0
10910,71.0,0.0,150.0,1.0,0.0
10911,59.0,0.0,150.0,3.0,0.0
10912,52.0,240.0,150.0,2.0,0.0
10913,52.0,0.0,150.0,12.0,0.0
10914,40.0,0.0,150.0,14.0,0.0
10915,83.0,0.0,150.0,0.0,0.0
10916,52.0,0.0,150.0,13.0,0.0
10917,61.0,0.0,150.0,3.0,0.0
10918,80.0,0.0,150.0,10.0,0.0
10919,80.0,0.0,150.0,11.0,0.0
10920,83.0,0.0,150.0,0.0,0.0
10921,80.0,0.0,150.0,11.0,0.0
10922,40.0,240.0,150.0,14.0,0.0
10923,71.0,0.0,150.0,1.0,0.0
10924,73.0,0.0,150.0,1.0,0.0
10925,52.0,0.0,150.0,2.0,0.0
10926,52.0,0.0,150.0,13.0,0.0
10927,59.0,0.0,150.0,3.0,0.0
10928,80.0,0.0,150.0,10.0,0.0
10929,52.0,0.0,150.0,12.0,0.0
10930,61.0,0.0,150.0,3.0,0.0
10931,70.0,0.0,150.0,11.0,0.0
10932,70.0,0.0,150.0,1.0,0.0
10933,54.0,0.0,150.0,3.0,0.0
10934,61.0,0.0,150.0,3.0,0.0
10935,82.0,168.0,150.0,0.0,0.0
10936,54.0,0.0,150.0,2.0,0.0
10937,70.0,0.0,150.0,10.0,0.0
10938,54.0,0.0,150.0,12.0,0.0
10939,42.0,0.0,150.0,14.0,0.0
10940,73.0,0.0,150.0,1.0,0.0
10941,42.0,0.0,390.0,5.0,0.0
10942,54.0,0.0,150.0,13.0,0.0
10943,66.0,72.0,300.0,4.0,0.0
10944,73.0,0.0,300.0,4.0,0.0
10945,54.0,0.0,150.0,13.0,0.0
10946,54.0,0.0,150.0,2.0,0.0
10947,70.0,0.0,150.0,11.0,0.0
10948,54.0,0.0,150.0,3.0,0.0
10949,61.0,0.0,150.0,3.0,0.0
10950,70.0,192.0,150.0,10.0,0.0
10951,70.0,0.0,150.0,1.0,0.0
10952,82.0,0.0,150.0,0.0,0.0
10953,54.0,0.0,150.0,12.0,0.0
10954,42.0,0.0,150.0,14.0,0.0
10955,73.0,0.0,150.0,1.0,0.0
10956,83.0,0.0,150.0,0.0,0.0
10957,59.0,48.0,90.0,11.0,0.0
10958,71.0,0.0,90.0,11.0,0.0
10959,59.0,24.0,300.0,4.0,0.0
10960,47.0,0.0,390.0,5.0,0.0
10961,71.0,0.0,300.0,4.0,0.0
10962,47.0,0.0,150.0,13.0,0.0
10963,35.0,0.0,150.0,14.0,0.0
10964,71.0,0.0,150.0,10.0,0.0
10965,47.0,0.0,150.0,12.0,0.0
10966,47.0,72.0,150.0,2.0,0.0
10967,71.0,0.0,150.0,1.0,0.0
10968,51.0,0.0,150.0,3.0,0.0
10969,59.0,0.0,150.0,3.0,0.0
10970,71.0,96.0,90.0,11.0,0.0
10971,59.0,0.0,90.0,11.0,0.0
10972,51.0,96.0,480.0,12.0,0.0
10973,75.0,0.0,480.0,0.0,0.0
10974,39.0,0.0,480.0,14.0,0.0
10975,59.0,48.0,90.0,11.0,0.0
10976,51.0,0.0,480.0,13.0,0.0
10977,71.0,0.0,90.0,11.0,0.0
10978,51.0,0.0,480.0,10.0,0.0
10979,59.0,0.0,150.0,3.0,0.0
10980,63.0,0.0,480.0,1.0,0.0
10981,47.0,72.0,150.0,3.0,0.0
10982,39.0,0.0,480.0,2.0,0.0
10983,71.0,120.0,90.0,11.0,0.0
10984,59.0,0.0,90.0,11.0,0.0
10985,59.0,0.0,150.0,3.0,0.0
10986,47.0,72.0,150.0,3.0,0.0
10987,71.0,0.0,90.0,11.0,0.0
10988,59.0,48.0,90.0,11.0,0.0
10989,59.0,24.0,90.0,11.0,0.0
10990,71.0,0.0,90.0,11.0,0.0
10991,64.0,0.0,180.0,1.0,0.0
10992,40.0,0.0,180.0,2.0,0.0
10993,59.0,0.0,90.0,11.0,0.0
10994,52.0,0.0,180.0,13.0,0.0
10995,71.0,48.0,90.0,11.0,0.0
10996,40.0,24.0,180.0,14.0,0.0
10997,59.0,0.0,150.0,3.0,0.0
10998,76.0,0.0,180.0,0.0,0.0
10999,47.0,48.0,150.0,3.0,0.0
11000,52.0,0.0,180.0,10.0,0.0
11001,52.0,0.0,180.0,12.0,0.0
11002,59.0,0.0,90.0,11.0,0.0
11003,71.0,120.0,90.0,11.0,0.0
11004,71.0,24.0,180.0,10.0,0.0
11005,47.0,0.0,390.0,5.0,0.0
11006,59.0,0.0,150.0,3.0,0.0
11007,71.0,0.0,300.0,4.0,0.0
11008,59.0,24.0,300.0,4.0,0.0
11009,59.0,0.0,90.0,11.0,0.0
11010,47.0,48.0,150.0,3.0,0.0
11011,71.0,48.0,90.0,11.0,0.0
11012,59.0,0.0,90.0,11.0,0.0
11013,71.0,96.0,90.0,11.0,0.0
11014,29.0,0.0,480.0,14.0,0.0
11015,47.0,72.0,150.0,3.0,0.0
11016,59.0,0.0,150.0,3.0,0.0
11017,41.0,0.0,480.0,2.0,0.0
11018,65.0,0.0,480.0,1.0,0.0
11019,77.0,96.0,480.0,0.0,0.0
11020,53.0,0.0,480.0,10.0,0.0
11021,53.0,0.0,480.0,12.0,0.0
11022,41.0,0.0,480.0,13.0,0.0
11023,71.0,48.0,90.0,11.0,0.0
11024,59.0,0.0,90.0,11.0,0.0
11025,71.0,120.0,90.0,11.0,0.0
11026,59.0,0.0,90.0,11.0,0.0
11027,71.0,0.0,90.0,11.0,0.0
11028,59.0,48.0,90.0,11.0,0.0
11029,59.0,0.0,150.0,3.0,0.0
11030,47.0,72.0,150.0,3.0,0.0
11031,71.0,0.0,90.0,11.0,0.0
11032,59.0,24.0,90.0,11.0,0.0
11033,59.0,0.0,90.0,11.0,0.0
11034,59.0,48.0,150.0,3.0,0.0
11035,47.0,0.0,150.0,3.0,0.0
11036,30.0,0.0,180.0,14.0,0.0
11037,42.0,0.0,180.0,2.0,0.0
11038,54.0,24.0,180.0,10.0,0.0
11039,71.0,48.0,90.0,11.0,0.0
11040,66.0,0.0,180.0,1.0,0.0
11041,42.0,0.0,180.0,13.0,0.0
11042,54.0,0.0,180.0,12.0,0.0
11043,78.0,0.0,180.0,0.0,0.0
11044,71.0,120.0,90.0,11.0,0.0
11045,59.0,0.0,90.0,11.0,0.0
11046,71.0,24.0,180.0,10.0,0.0
11047,59.0,0.0,150.0,3.0,0.0
11048,59.0,0.0,90.0,11.0,0.0
11049,59.0,24.0,300.0,4.0,0.0
11050,47.0,48.0,150.0,3.0,0.0
11051,71.0,0.0,300.0,4.0,0.0
11052,71.0,48.0,90.0,11.0,0.0
11053,47.0,0.0,390.0,5.0,0.0
11054,59.0,0.0,90.0,11.0,0.0
11055,71.0,96.0,90.0,11.0,0.0
11056,55.0,96.0,480.0,10.0,0.0
11057,67.0,0.0,480.0,1.0,0.0
11058,59.0,0.0,90.0,11.0,0.0
11059,43.0,0.0,480.0,2.0,0.0
11060,31.0,0.0,480.0,14.0,0.0
11061,47.0,0.0,150.0,3.0,0.0
11062,59.0,72.0,150.0,3.0,0.0
11063,55.0,0.0,480.0,12.0,0.0
11064,79.0,0.0,480.0,0.0,0.0
11065,43.0,0.0,480.0,13.0,0.0
11066,71.0,48.0,90.0,11.0,0.0
11067,71.0,0.0,90.0,11.0,0.0
11068,59.0,120.0,90.0,11.0,0.0
11069,59.0,0.0,150.0,3.0,0.0
11070,47.0,72.0,150.0,3.0,0.0
11071,59.0,48.0,90.0,11.0,0.0
11072,71.0,0.0,90.0,11.0,0.0
11073,71.0,24.0,90.0,11.0,0.0
11074,59.0,0.0,90.0,11.0,0.0
11075,44.0,24.0,180.0,2.0,0.0
11076,59.0,0.0,90.0,11.0,0.0
11077,68.0,0.0,180.0,1.0,0.0
11078,71.0,48.0,90.0,11.0,0.0
11079,80.0,0.0,180.0,0.0,0.0
11080,56.0,0.0,180.0,12.0,0.0
11081,44.0,0.0,180.0,13.0,0.0
11082,59.0,0.0,150.0,3.0,0.0
11083,32.0,0.0,180.0,14.0,0.0
11084,56.0,0.0,180.0,10.0,0.0
11085,47.0,48.0,150.0,3.0,0.0
11086,59.0,0.0,90.0,11.0,0.0
11087,71.0,180.0,90.0,11.0,0.0
11088,57.0,0.0,150.0,12.0,0.0
11089,81.0,0.0,390.0,0.0,0.0
11090,57.0,156.0,150.0,13.0,0.0
11091,69.0,0.0,390.0,1.0,0.0
11092,47.0,6.0,300.0,3.0,0.0
11093,59.0,0.0,150.0,11.0,0.0
11094,71.0,0.0,150.0,11.0,0.0
11095,57.0,0.0,150.0,10.0,0.0
11096,59.0,0.0,300.0,3.0,0.0
11097,45.0,0.0,150.0,14.0,0.0
11098,47.0,54.0,390.0,5.0,0.0
11099,45.0,0.0,390.0,2.0,0.0
11100,71.0,0.0,300.0,4.0,0.0
11101,59.0,0.0,300.0,4.0,0.0
11102,54.0,0.0,90.0,11.0,0.0
11103,63.0,66.0,90.0,11.0,0.0
11104,33.0,0.0,90.0,14.0,0.0
11105,45.0,0.0,90.0,13.0,0.0
11106,57.0,0.0,90.0,10.0,0.0
11107,45.0,0.0,90.0,12.0,0.0
11108,33.0,0.0,90.0,14.0,0.0
11109,54.0,0.0,90.0,11.0,0.0
11110,63.0,0.0,90.0,11.0,0.0
11111,45.0,0.0,90.0,12.0,0.0
11112,57.0,0.0,90.0,10.0,0.0
11113,45.0,198.0,90.0,13.0,0.0
11114,33.0,0.0,150.0,14.0,0.0
11115,51.0,12.0,390.0,2.0,0.0
11116,59.0,54.0,240.0,4.0,0.0
11117,71.0,0.0,240.0,4.0,0.0
11118,54.0,0.0,390.0,2.0,0.0
11119,75.0,0.0,390.0,0.0,0.0
11120,59.0,0.0,240.0,3.0,0.0
11121,57.0,0.0,150.0,10.0,0.0
11122,45.0,0.0,150.0,13.0,0.0
11123,47.0,96.0,300.0,5.0,0.0
11124,66.0,0.0,390.0,1.0,0.0
11125,63.0,0.0,390.0,1.0,0.0
11126,45.0,0.0,150.0,12.0,0.0
11127,47.0,0.0,240.0,3.0,0.0
11128,54.0,0.0,150.0,11.0,0.0
11129,63.0,78.0,150.0,11.0,0.0
11130,45.0,0.0,150.0,13.0,0.0
11131,57.0,0.0,150.0,10.0,0.0
11132,33.0,0.0,150.0,14.0,0.0
11133,54.0,0.0,150.0,11.0,0.0
11134,63.0,42.0,150.0,11.0,0.0
11135,45.0,0.0,150.0,12.0,0.0
11136,59.0,0.0,90.0,3.0,0.0
11137,47.0,0.0,90.0,3.0,0.0
11138,47.0,180.0,90.0,5.0,0.0
11139,59.0,0.0,90.0,4.0,0.0
11140,71.0,18.0,90.0,4.0,0.0
11141,76.0,0.0,780.0,0.0,0.0
11142,52.0,0.0,780.0,2.0,0.0
11143,56.0,0.0,780.0,2.0,0.0
11144,44.0,0.0,150.0,13.0,0.0
11145,59.0,0.0,300.0,3.0,0.0
11146,47.0,6.0,300.0,3.0,0.0
11147,64.0,0.0,780.0,1.0,0.0
11148,68.0,0.0,780.0,1.0,0.0
11149,32.0,0.0,150.0,14.0,0.0
11150,47.0,54.0,390.0,5.0,0.0
11151,44.0,0.0,150.0,12.0,0.0
11152,56.0,0.0,150.0,10.0,0.0
11153,71.0,0.0,300.0,4.0,0.0
11154,59.0,0.0,300.0,4.0,0.0
11155,56.0,0.0,150.0,11.0,0.0
11156,64.0,156.0,150.0,11.0,0.0
11157,64.0,0.0,90.0,11.0,0.0
11158,32.0,0.0,90.0,14.0,0.0
11159,44.0,66.0,90.0,12.0,0.0
11160,71.0,0.0,90.0,10.0,0.0
11161,44.0,0.0,90.0,13.0,0.0
11162,32.0,0.0,90.0,14.0,0.0
11163,44.0,0.0,90.0,13.0,0.0
11164,64.0,0.0,90.0,11.0,0.0
11165,71.0,0.0,90.0,10.0,0.0
11166,44.0,198.0,90.0,12.0,0.0
11167,56.0,0.0,150.0,12.0,0.0
11168,71.0,0.0,150.0,10.0,0.0
11169,47.0,108.0,300.0,5.0,0.0
11170,71.0,0.0,240.0,4.0,0.0
11171,32.0,0.0,150.0,14.0,0.0
11172,44.0,78.0,150.0,13.0,0.0
11173,64.0,0.0,150.0,11.0,0.0
11174,47.0,54.0,240.0,3.0,0.0
11175,59.0,0.0,240.0,3.0,0.0
11176,59.0,0.0,240.0,4.0,0.0
11177,56.0,0.0,150.0,12.0,0.0
11178,44.0,0.0,150.0,13.0,0.0
11179,64.0,0.0,150.0,11.0,0.0
11180,32.0,0.0,150.0,14.0,0.0
11181,71.0,42.0,150.0,10.0,0.0
11182,59.0,0.0,90.0,3.0,0.0
11183,47.0,18.0,90.0,3.0,0.0
11184,59.0,0.0,90.0,4.0,0.0
11185,71.0,0.0,90.0,4.0,0.0
11186,47.0,180.0,90.0,5.0,0.0
11187,65.0,0.0,780.0,1.0,0.0
11188,47.0,54.0,390.0,5.0,0.0
11189,71.0,0.0,300.0,4.0,0.0
11190,59.0,0.0,300.0,4.0,0.0
11191,59.0,6.0,300.0,3.0,0.0
11192,47.0,0.0,300.0,3.0,0.0
11193,55.0,0.0,150.0,12.0,0.0
11194,74.0,0.0,780.0,1.0,0.0
11195,65.0,0.0,150.0,11.0,0.0
11196,77.0,24.0,780.0,0.0,0.0
11197,53.0,0.0,780.0,2.0,0.0
11198,62.0,0.0,780.0,2.0,0.0
11199,71.0,0.0,150.0,10.0,0.0
11200,43.0,0.0,150.0,13.0,0.0
11201,31.0,156.0,150.0,14.0,0.0
11202,31.0,0.0,90.0,14.0,0.0
11203,71.0,0.0,90.0,11.0,0.0
11204,55.0,0.0,90.0,12.0,0.0
11205,43.0,0.0,90.0,13.0,0.0
11206,74.0,66.0,90.0,10.0,0.0
11207,43.0,198.0,90.0,13.0,0.0
11208,71.0,0.0,90.0,11.0,0.0
11209,31.0,0.0,90.0,14.0,0.0
11210,55.0,0.0,90.0,12.0,0.0
11211,74.0,0.0,90.0,10.0,0.0
11212,74.0,132.0,150.0,10.0,0.0
11213,31.0,0.0,150.0,14.0,0.0
11214,43.0,0.0,150.0,13.0,0.0
11215,59.0,0.0,300.0,4.0,0.0
11216,71.0,0.0,300.0,4.0,0.0
11217,47.0,0.0,300.0,3.0,0.0
11218,71.0,0.0,150.0,11.0,0.0
11219,47.0,12.0,390.0,5.0,0.0
11220,59.0,72.0,300.0,3.0,0.0
11221,55.0,0.0,150.0,12.0,0.0
11222,43.0,0.0,150.0,13.0,0.0
11223,55.0,0.0,150.0,12.0,0.0
11224,71.0,0.0,150.0,11.0,0.0
11225,74.0,0.0,150.0,10.0,0.0
11226,31.0,132.0,150.0,14.0,0.0
11227,47.0,0.0,150.0,3.0,0.0
11228,75.0,0.0,150.0,1.0,0.0
11229,59.0,0.0,150.0,3.0,0.0
11230,54.0,0.0,150.0,12.0,0.0
11231,42.0,0.0,150.0,13.0,0.0
11232,66.0,0.0,150.0,1.0,0.0
11233,30.0,0.0,150.0,14.0,0.0
11234,47.0,60.0,40.0,5.0,0.0
11235,71.0,0.0,150.0,4.0,0.0
11236,54.0,0.0,150.0,2.0,0.0
11237,63.0,0.0,150.0,2.0,0.0
11238,78.0,0.0,150.0,0.0,0.0
11239,59.0,12.0,150.0,4.0,0.0
11240,75.0,36.0,120.0,10.0,0.0
11241,71.0,0.0,120.0,11.0,0.0
11242,47.0,12.0,40.0,5.0,0.0
11243,70.0,48.0,120.0,11.0,0.0
11244,47.0,60.0,40.0,5.0,0.0
11245,74.0,0.0,120.0,10.0,0.0
11246,47.0,12.0,40.0,5.0,0.0
11247,47.0,0.0,150.0,3.0,0.0
11248,71.0,36.0,120.0,11.0,0.0
11249,59.0,0.0,150.0,3.0,0.0
11250,75.0,0.0,120.0,10.0,0.0
11251,59.0,0.0,150.0,12.0,0.0
11252,35.0,0.0,150.0,14.0,0.0
11253,75.0,0.0,150.0,1.0,0.0
11254,66.0,0.0,150.0,1.0,0.0
11255,59.0,0.0,150.0,4.0,0.0
11256,71.0,0.0,150.0,4.0,0.0
11257,47.0,60.0,40.0,5.0,0.0
11258,47.0,0.0,150.0,13.0,0.0
11259,78.0,0.0,150.0,0.0,0.0
11260,63.0,12.0,150.0,2.0,0.0
11261,54.0,0.0,150.0,2.0,0.0
11262,47.0,12.0,40.0,5.0,0.0
11263,74.0,0.0,120.0,10.0,0.0
11264,70.0,48.0,120.0,11.0,0.0
11265,47.0,60.0,40.0,5.0,0.0
11266,47.0,12.0,40.0,5.0,0.0
11267,63.0,0.0,150.0,12.0,0.0
11268,54.0,0.0,150.0,2.0,0.0
11269,63.0,0.0,150.0,2.0,0.0
11270,75.0,12.0,150.0,1.0,0.0
11271,66.0,0.0,150.0,1.0,0.0
11272,39.0,0.0,150.0,14.0,0.0
11273,47.0,0.0,150.0,3.0,0.0
11274,47.0,60.0,40.0,5.0,0.0
11275,51.0,0.0,150.0,13.0,0.0
11276,75.0,0.0,120.0,10.0,0.0
11277,78.0,0.0,150.0,0.0,0.0
11278,59.0,0.0,150.0,3.0,0.0
11279,71.0,36.0,120.0,11.0,0.0
11280,59.0,0.0,150.0,4.0,0.0
11281,71.0,0.0,150.0,4.0,0.0
11282,47.0,12.0,40.0,5.0,0.0
11283,74.0,48.0,120.0,10.0,0.0
11284,47.0,60.0,40.0,5.0,0.0
11285,70.0,0.0,120.0,11.0,0.0
11286,47.0,12.0,40.0,5.0,0.0
11287,71.0,0.0,120.0,11.0,0.0
11288,47.0,60.0,40.0,5.0,0.0
11289,54.0,0.0,150.0,2.0,0.0
11290,71.0,0.0,150.0,4.0,0.0
11291,42.0,0.0,150.0,14.0,0.0
11292,54.0,0.0,150.0,13.0,0.0
11293,63.0,0.0,150.0,2.0,0.0
11294,59.0,0.0,150.0,4.0,0.0
11295,66.0,0.0,150.0,12.0,0.0
11296,78.0,0.0,150.0,0.0,0.0
11297,75.0,0.0,150.0,1.0,0.0
11298,66.0,0.0,150.0,1.0,0.0
11299,47.0,12.0,150.0,3.0,0.0
11300,59.0,0.0,150.0,3.0,0.0
11301,75.0,36.0,120.0,10.0,0.0
11302,47.0,0.0,40.0,5.0,0.0
11303,47.0,48.0,40.0,5.0,0.0
11304,70.0,12.0,90.0,11.0,0.0
11305,74.0,0.0,90.0,10.0,0.0
11306,47.0,60.0,40.0,5.0,0.0
11307,71.0,0.0,150.0,4.0,0.0
11308,47.0,60.0,40.0,5.0,0.0
11309,42.0,0.0,150.0,13.0,0.0
11310,78.0,0.0,150.0,0.0,0.0
11311,47.0,0.0,150.0,3.0,0.0
11312,59.0,12.0,150.0,3.0,0.0
11313,66.0,0.0,150.0,1.0,0.0
11314,75.0,0.0,120.0,10.0,0.0
11315,30.0,0.0,150.0,14.0,0.0
11316,71.0,36.0,120.0,11.0,0.0
11317,54.0,0.0,150.0,12.0,0.0
11318,54.0,0.0,150.0,2.0,0.0
11319,63.0,0.0,150.0,2.0,0.0
11320,75.0,0.0,150.0,1.0,0.0
11321,59.0,0.0,150.0,4.0,0.0
11322,47.0,12.0,40.0,5.0,0.0
11323,47.0,60.0,40.0,5.0,0.0
11324,70.0,48.0,120.0,11.0,0.0
11325,74.0,0.0,120.0,10.0,0.0
11326,47.0,12.0,40.0,5.0,0.0
11327,63.0,0.0,150.0,2.0,0.0
11328,47.0,60.0,40.0,5.0,0.0
11329,54.0,0.0,150.0,2.0,0.0
11330,59.0,0.0,150.0,12.0,0.0
11331,66.0,0.0,150.0,1.0,0.0
11332,59.0,0.0,150.0,4.0,0.0
11333,71.0,0.0,150.0,4.0,0.0
11334,47.0,0.0,150.0,13.0,0.0
11335,47.0,0.0,150.0,3.0,0.0
11336,59.0,0.0,150.0,3.0,0.0
11337,75.0,0.0,120.0,10.0,0.0
11338,71.0,36.0,120.0,11.0,0.0
11339,78.0,0.0,150.0,0.0,0.0
11340,75.0,0.0,150.0,1.0,0.0
11341,35.0,12.0,150.0,14.0,0.0
11342,47.0,12.0,40.0,5.0,0.0
11343,74.0,48.0,120.0,10.0,0.0
11344,47.0,60.0,40.0,5.0,0.0
11345,70.0,0.0,120.0,11.0,0.0
11346,47.0,12.0,40.0,5.0,0.0
11347,75.0,0.0,150.0,1.0,0.0
11348,59.0,0.0,150.0,4.0,0.0
11349,47.0,60.0,40.0,5.0,0.0
11350,71.0,0.0,150.0,4.0,0.0
11351,71.0,36.0,120.0,11.0,0.0
11352,66.0,0.0,150.0,1.0,0.0
11353,51.0,12.0,150.0,13.0,0.0
11354,75.0,0.0,120.0,10.0,0.0
11355,63.0,0.0,150.0,12.0,0.0
11356,47.0,0.0,150.0,3.0,0.0
11357,54.0,0.0,150.0,2.0,0.0
11358,78.0,0.0,150.0,0.0,0.0
11359,63.0,0.0,150.0,2.0,0.0
11360,39.0,0.0,150.0,14.0,0.0
11361,59.0,0.0,150.0,3.0,0.0
11362,47.0,12.0,40.0,5.0,0.0
11363,47.0,60.0,40.0,5.0,0.0
11364,70.0,0.0,120.0,11.0,0.0
11365,74.0,48.0,120.0,10.0,0.0
11366,47.0,12.0,40.0,5.0,0.0
11367,59.0,0.0,150.0,4.0,0.0
11368,47.0,60.0,40.0,5.0,0.0
11369,71.0,0.0,120.0,11.0,0.0
11370,66.0,0.0,150.0,12.0,0.0
11371,54.0,0.0,150.0,13.0,0.0
11372,71.0,0.0,150.0,4.0,0.0
11373,54.0,0.0,150.0,2.0,0.0
11374,42.0,0.0,150.0,14.0,0.0
11375,63.0,0.0,150.0,2.0,0.0
11376,78.0,0.0,150.0,0.0,0.0
11377,75.0,0.0,150.0,1.0,0.0
11378,66.0,0.0,150.0,1.0,0.0
11379,75.0,36.0,120.0,10.0,0.0
11380,47.0,0.0,150.0,3.0,0.0
11381,59.0,12.0,150.0,3.0,0.0
11382,47.0,0.0,40.0,5.0,0.0
11383,47.0,48.0,40.0,5.0,0.0
11384,70.0,0.0,90.0,11.0,0.0
11385,74.0,12.0,90.0,10.0,0.0
11386,47.0,60.0,40.0,5.0,0.0
11387,59.0,0.0,150.0,3.0,0.0
11388,42.0,0.0,150.0,13.0,0.0
11389,54.0,12.0,150.0,2.0,0.0
11390,66.0,0.0,150.0,1.0,0.0
11391,71.0,0.0,150.0,4.0,0.0
11392,63.0,0.0,150.0,2.0,0.0
11393,75.0,0.0,150.0,1.0,0.0
11394,47.0,0.0,150.0,3.0,0.0
11395,59.0,0.0,150.0,4.0,0.0
11396,75.0,36.0,120.0,10.0,0.0
11397,30.0,0.0,150.0,14.0,0.0
11398,47.0,60.0,40.0,5.0,0.0
11399,71.0,0.0,120.0,11.0,0.0
11400,78.0,0.0,150.0,0.0,0.0
11401,54.0,0.0,150.0,12.0,0.0
11402,47.0,12.0,40.0,5.0,0.0
11403,47.0,60.0,40.0,5.0,0.0
11404,77.0,0.0,120.0,10.0,0.0
11405,74.0,48.0,120.0,11.0,0.0
11406,47.0,12.0,40.0,5.0,0.0
11407,47.0,60.0,40.0,5.0,0.0
11408,63.0,12.0,150.0,2.0,0.0
11409,47.0,0.0,150.0,13.0,0.0
11410,35.0,0.0,150.0,14.0,0.0
11411,54.0,0.0,150.0,2.0,0.0
11412,59.0,0.0,150.0,12.0,0.0
11413,83.0,0.0,150.0,0.0,0.0
11414,47.0,0.0,150.0,3.0,0.0
11415,59.0,0.0,150.0,3.0,0.0
11416,78.0,0.0,120.0,10.0,0.0
11417,75.0,36.0,120.0,11.0,0.0
11418,75.0,0.0,150.0,1.0,0.0
11419,78.0,0.0,150.0,1.0,0.0
11420,59.0,0.0,150.0,4.0,0.0
11421,71.0,0.0,150.0,4.0,0.0
11422,47.0,12.0,40.0,5.0,0.0
11423,47.0,60.0,40.0,5.0,0.0
11424,77.0,0.0,120.0,10.0,0.0
11425,74.0,48.0,120.0,11.0,0.0
11426,47.0,12.0,40.0,5.0,0.0
11427,59.0,0.0,150.0,4.0,0.0
11428,71.0,0.0,150.0,4.0,0.0
11429,59.0,0.0,150.0,3.0,0.0
11430,63.0,0.0,150.0,12.0,0.0
11431,39.0,0.0,150.0,14.0,0.0
11432,51.0,0.0,150.0,13.0,0.0
11433,63.0,12.0,150.0,2.0,0.0
11434,78.0,0.0,150.0,1.0,0.0
11435,75.0,0.0,150.0,1.0,0.0
11436,47.0,0.0,150.0,3.0,0.0
11437,83.0,0.0,150.0,0.0,0.0
11438,75.0,36.0,120.0,11.0,0.0
11439,78.0,0.0,120.0,10.0,0.0
11440,47.0,60.0,40.0,5.0,0.0
11441,54.0,0.0,150.0,2.0,0.0
11442,47.0,12.0,40.0,5.0,0.0
11443,77.0,48.0,120.0,10.0,0.0
11444,47.0,60.0,40.0,5.0,0.0
11445,74.0,0.0,120.0,11.0,0.0
11446,47.0,12.0,40.0,5.0,0.0
11447,59.0,0.0,150.0,4.0,0.0
11448,78.0,36.0,120.0,10.0,0.0
11449,83.0,0.0,150.0,0.0,0.0
11450,71.0,0.0,150.0,4.0,0.0
11451,66.0,0.0,150.0,12.0,0.0
11452,75.0,0.0,120.0,11.0,0.0
11453,54.0,0.0,150.0,13.0,0.0
11454,47.0,60.0,40.0,5.0,0.0
11455,63.0,0.0,150.0,2.0,0.0
11456,75.0,0.0,150.0,1.0,0.0
11457,78.0,0.0,150.0,1.0,0.0
11458,42.0,0.0,150.0,14.0,0.0
11459,54.0,12.0,150.0,2.0,0.0
11460,59.0,0.0,150.0,3.0,0.0
11461,47.0,0.0,150.0,3.0,0.0
11462,47.0,0.0,40.0,5.0,0.0
11463,74.0,0.0,90.0,11.0,0.0
11464,47.0,48.0,40.0,5.0,0.0
11465,77.0,12.0,90.0,10.0,0.0
11466,47.0,60.0,40.0,5.0,0.0
11467,75.0,0.0,120.0,11.0,0.0
11468,59.0,0.0,150.0,3.0,0.0
11469,42.0,0.0,150.0,13.0,0.0
11470,47.0,0.0,150.0,3.0,0.0
11471,30.0,0.0,150.0,14.0,0.0
11472,47.0,60.0,40.0,5.0,0.0
11473,83.0,0.0,150.0,0.0,0.0
11474,54.0,0.0,150.0,2.0,0.0
11475,75.0,0.0,150.0,1.0,0.0
11476,78.0,0.0,150.0,1.0,0.0
11477,59.0,0.0,150.0,4.0,0.0
11478,63.0,0.0,150.0,2.0,0.0
11479,54.0,0.0,150.0,12.0,0.0
11480,78.0,36.0,120.0,10.0,0.0
11481,71.0,12.0,150.0,4.0,0.0
11482,47.0,12.0,40.0,5.0,0.0
11483,77.0,48.0,120.0,10.0,0.0
11484,47.0,60.0,40.0,5.0,0.0
11485,74.0,0.0,120.0,11.0,0.0
11486,47.0,12.0,40.0,5.0,0.0
11487,47.0,0.0,150.0,13.0,0.0
11488,47.0,60.0,40.0,5.0,0.0
11489,59.0,0.0,150.0,12.0,0.0
11490,47.0,0.0,150.0,3.0,0.0
11491,83.0,0.0,150.0,0.0,0.0
11492,75.0,0.0,120.0,11.0,0.0
11493,59.0,0.0,150.0,3.0,0.0
11494,78.0,36.0,120.0,10.0,0.0
11495,71.0,0.0,150.0,4.0,0.0
11496,35.0,0.0,150.0,14.0,0.0
11497,63.0,0.0,150.0,2.0,0.0
11498,59.0,0.0,150.0,4.0,0.0
11499,75.0,0.0,150.0,1.0,0.0
11500,78.0,12.0,150.0,1.0,0.0
11501,54.0,0.0,150.0,2.0,0.0
11502,47.0,12.0,40.0,5.0,0.0
11503,47.0,60.0,40.0,5.0,0.0
11504,74.0,48.0,120.0,11.0,0.0
11505,77.0,0.0,120.0,10.0,0.0
11506,47.0,12.0,40.0,5.0,0.0
11507,59.0,0.0,150.0,4.0,0.0
11508,39.0,0.0,150.0,14.0,0.0
11509,78.0,36.0,120.0,10.0,0.0
11510,75.0,0.0,120.0,11.0,0.0
11511,75.0,0.0,150.0,1.0,0.0
11512,63.0,0.0,150.0,12.0,0.0
11513,59.0,0.0,150.0,3.0,0.0
11514,47.0,12.0,150.0,3.0,0.0
11515,78.0,0.0,150.0,1.0,0.0
11516,63.0,0.0,150.0,2.0,0.0
11517,54.0,0.0,150.0,2.0,0.0
11518,83.0,0.0,150.0,0.0,0.0
11519,47.0,60.0,40.0,5.0,0.0
11520,51.0,0.0,150.0,13.0,0.0
11521,71.0,0.0,150.0,4.0,0.0
11522,47.0,12.0,40.0,5.0,0.0
11523,74.0,48.0,120.0,11.0,0.0
11524,77.0,0.0,120.0,10.0,0.0
11525,47.0,60.0,40.0,5.0,0.0
11526,47.0,12.0,40.0,5.0,0.0
11527,54.0,0.0,150.0,2.0,0.0
11528,83.0,0.0,150.0,0.0,0.0
11529,54.0,0.0,150.0,13.0,0.0
11530,78.0,36.0,120.0,10.0,0.0
11531,75.0,0.0,150.0,1.0,0.0
11532,42.0,0.0,150.0,14.0,0.0
11533,78.0,0.0,150.0,1.0,0.0
11534,63.0,0.0,150.0,2.0,0.0
11535,66.0,0.0,150.0,12.0,0.0
11536,59.0,12.0,150.0,4.0,0.0
11537,71.0,0.0,150.0,4.0,0.0
11538,47.0,60.0,40.0,5.0,0.0
11539,75.0,0.0,120.0,11.0,0.0
11540,47.0,0.0,150.0,3.0,0.0
11541,59.0,0.0,150.0,3.0,0.0
11542,47.0,0.0,40.0,5.0,0.0
11543,74.0,12.0,90.0,11.0,0.0
11544,47.0,48.0,40.0,5.0,0.0
11545,77.0,0.0,90.0,10.0,0.0
11546,47.0,108.0,40.0,5.0,0.0
11547,78.0,120.0,90.0,10.0,0.0
11548,71.0,0.0,390.0,4.0,0.0
11549,83.0,72.0,390.0,0.0,0.0
11550,59.0,0.0,390.0,4.0,0.0
11551,59.0,0.0,390.0,3.0,0.0
11552,78.0,0.0,390.0,1.0,0.0
11553,47.0,0.0,390.0,3.0,0.0
11554,30.0,0.0,390.0,14.0,0.0
11555,47.0,0.0,390.0,5.0,0.0
11556,75.0,0.0,90.0,11.0,0.0
11557,63.0,0.0,390.0,2.0,0.0
11558,42.0,0.0,390.0,13.0,0.0
11559,54.0,0.0,390.0,2.0,0.0
11560,75.0,0.0,390.0,1.0,0.0
11561,54.0,0.0,390.0,12.0,0.0
11562,76.0,0.0,90.0,10.0,0.0
11563,73.0,120.0,90.0,11.0,0.0
11564,75.0,0.0,90.0,10.0,0.0
11565,71.0,48.0,90.0,11.0,0.0
11566,73.0,120.0,90.0,10.0,0.0
11567,70.0,0.0,90.0,11.0,0.0
11568,68.0,120.0,90.0,11.0,0.0
11569,71.0,0.0,90.0,10.0,0.0
11570,70.0,120.0,90.0,10.0,0.0
11571,66.0,0.0,90.0,11.0,0.0
11572,68.0,120.0,90.0,10.0,0.0
11573,64.0,0.0,90.0,11.0,0.0
11574,63.0,120.0,90.0,11.0,0.0
11575,66.0,0.0,90.0,10.0,0.0
11576,78.0,120.0,90.0,10.0,0.0
11577,71.0,0.0,390.0,4.0,0.0
11578,75.0,0.0,390.0,1.0,0.0
11579,47.0,72.0,390.0,5.0,0.0
11580,63.0,0.0,390.0,2.0,0.0
11581,54.0,0.0,390.0,2.0,0.0
11582,83.0,0.0,390.0,0.0,0.0
11583,59.0,0.0,390.0,3.0,0.0
11584,42.0,0.0,390.0,13.0,0.0
11585,47.0,0.0,390.0,3.0,0.0
11586,54.0,0.0,390.0,12.0,0.0
11587,75.0,0.0,90.0,11.0,0.0
11588,30.0,0.0,390.0,14.0,0.0
11589,78.0,0.0,390.0,1.0,0.0
11590,59.0,0.0,390.0,4.0,0.0
11591,73.0,120.0,90.0,11.0,0.0
11592,76.0,0.0,90.0,10.0,0.0
11593,75.0,0.0,90.0,10.0,0.0
11594,71.0,48.0,90.0,11.0,0.0
11595,73.0,0.0,90.0,10.0,0.0
11596,70.0,120.0,90.0,11.0,0.0
11597,68.0,120.0,90.0,11.0,0.0
11598,71.0,0.0,90.0,10.0,0.0
11599,66.0,0.0,90.0,11.0,0.0
11600,70.0,120.0,90.0,10.0,0.0
11601,68.0,120.0,90.0,10.0,0.0
11602,64.0,0.0,90.0,11.0,0.0
11603,63.0,408.0,90.0,11.0,0.0
11604,66.0,0.0,90.0,10.0,0.0
11605,75.0,0.0,390.0,1.0,0.0
11606,54.0,1368.0,390.0,2.0,0.0
11607,54.0,0.0,390.0,12.0,0.0
11608,59.0,0.0,390.0,4.0,0.0
11609,71.0,0.0,390.0,4.0,0.0
11610,59.0,0.0,390.0,3.0,0.0
11611,42.0,0.0,390.0,13.0,0.0
11612,63.0,0.0,390.0,2.0,0.0
11613,78.0,0.0,390.0,10.0,0.0
11614,75.0,0.0,390.0,11.0,0.0
11615,78.0,0.0,390.0,1.0,0.0
11616,47.0,0.0,390.0,3.0,0.0
11617,30.0,0.0,390.0,14.0,0.0
11618,83.0,0.0,390.0,0.0,0.0
11619,47.0,0.0,390.0,5.0,0.0
11620,30.0,0.0,960.0,14.0,0.0
11621,52.0,0.0,960.0,12.0,0.0
11622,54.0,0.0,1920.0,11.0,0.0
11623,42.0,0.0,960.0,13.0,0.0
11624,58.0,120.0,960.0,10.0,0.0
11625,75.0,120.0,60.0,1.0,0.0
11626,76.0,48.0,60.0,1.0,0.0
11627,32.0,0.0,960.0,14.0,0.0
11628,51.0,120.0,960.0,12.0,0.0
11629,60.0,0.0,960.0,10.0,0.0
11630,78.0,72.0,120.0,1.0,0.0
11631,44.0,0.0,960.0,13.0,0.0
11632,76.0,120.0,60.0,1.0,0.0
11633,75.0,120.0,60.0,1.0,0.0
11634,73.0,192.0,60.0,1.0,0.0
11635,72.0,168.0,150.0,1.0,0.0
11636,76.0,120.0,60.0,0.0,0.0
11637,78.0,48.0,60.0,0.0,0.0
11638,37.0,0.0,960.0,13.0,0.0
11639,25.0,120.0,960.0,14.0,0.0
11640,52.0,120.0,1920.0,12.0,0.0
11641,52.0,0.0,1920.0,11.0,0.0
11642,61.0,0.0,960.0,10.0,0.0
11643,80.0,72.0,120.0,0.0,0.0
11644,78.0,120.0,60.0,0.0,0.0
11645,76.0,120.0,60.0,0.0,0.0
11646,75.0,192.0,60.0,0.0,0.0
11647,73.0,168.0,150.0,0.0,0.0
11648,73.0,120.0,60.0,1.0,0.0
11649,75.0,48.0,60.0,1.0,0.0
11650,42.0,0.0,960.0,13.0,0.0
11651,58.0,0.0,960.0,10.0,0.0
11652,76.0,72.0,120.0,1.0,0.0
11653,30.0,0.0,960.0,14.0,0.0
11654,75.0,120.0,60.0,1.0,0.0
11655,73.0,120.0,60.0,1.0,0.0
11656,71.0,192.0,60.0,1.0,0.0
11657,70.0,168.0,150.0,1.0,0.0
11658,75.0,0.0,60.0,0.0,0.0
11659,63.0,120.0,60.0,1.0,0.0
11660,51.0,0.0,60.0,2.0,0.0
11661,52.0,48.0,60.0,2.0,0.0
11662,76.0,0.0,60.0,0.0,0.0
11663,64.0,0.0,60.0,1.0,0.0
11664,35.0,0.0,180.0,14.0,0.0
11665,35.0,0.0,180.0,13.0,0.0
11666,54.0,0.0,120.0,2.0,0.0
11667,59.0,120.0,180.0,10.0,0.0
11668,78.0,0.0,120.0,0.0,0.0
11669,66.0,72.0,120.0,1.0,0.0
11670,47.0,0.0,180.0,12.0,0.0
11671,51.0,0.0,180.0,11.0,0.0
11672,52.0,0.0,60.0,2.0,0.0
11673,64.0,0.0,60.0,1.0,0.0
11674,76.0,0.0,60.0,0.0,0.0
11675,51.0,0.0,60.0,2.0,0.0
11676,75.0,0.0,60.0,0.0,0.0
11677,63.0,120.0,60.0,1.0,0.0
11678,49.0,0.0,60.0,2.0,0.0
11679,61.0,192.0,60.0,1.0,0.0
11680,73.0,0.0,60.0,0.0,0.0
11681,71.0,0.0,150.0,0.0,0.0
11682,47.0,48.0,150.0,2.0,0.0
11683,56.0,0.0,180.0,11.0,0.0
11684,59.0,0.0,150.0,1.0,0.0
11685,51.0,0.0,180.0,12.0,0.0
11686,59.0,192.0,180.0,10.0,0.0
11687,44.0,0.0,180.0,13.0,0.0
11688,32.0,0.0,180.0,14.0,0.0
11689,75.0,240.0,150.0,0.0,0.0
11690,63.0,0.0,150.0,1.0,0.0
11691,51.0,0.0,150.0,2.0,0.0
11692,49.0,0.0,150.0,2.0,0.0
11693,40.0,0.0,180.0,13.0,0.0
11694,61.0,48.0,150.0,1.0,0.0
11695,56.0,0.0,180.0,11.0,0.0
11696,73.0,0.0,150.0,0.0,0.0
11697,28.0,192.0,180.0,14.0,0.0
11698,49.0,0.0,180.0,12.0,0.0
11699,59.0,0.0,180.0,10.0,0.0
11700,76.0,0.0,150.0,0.0,0.0
11701,64.0,240.0,150.0,1.0,0.0
11702,52.0,0.0,150.0,2.0,0.0
11703,49.0,0.0,180.0,12.0,0.0
11704,52.0,0.0,180.0,11.0,0.0
11705,58.0,192.0,180.0,10.0,0.0
11706,30.0,0.0,180.0,14.0,0.0
11707,42.0,0.0,180.0,13.0,0.0
11708,46.0,48.0,150.0,2.0,0.0
11709,58.0,0.0,150.0,1.0,0.0
11710,70.0,0.0,150.0,0.0,0.0
11711,49.0,0.0,150.0,2.0,0.0
11712,61.0,0.0,150.0,1.0,0.0
11713,73.0,288.0,150.0,0.0,0.0
11714,35.0,0.0,180.0,14.0,0.0
11715,71.0,0.0,390.0,0.0,0.0
11716,47.0,0.0,570.0,12.0,0.0
11717,47.0,0.0,5580.0,3.0,0.0
11718,59.0,72.0,5580.0,3.0,0.0
11719,51.0,0.0,570.0,11.0,0.0
11720,47.0,48.0,390.0,2.0,0.0
11721,59.0,96.0,570.0,10.0,0.0
11722,35.0,192.0,180.0,13.0,0.0
11723,59.0,0.0,390.0,1.0,0.0
11724,35.0,144.0,180.0,14.0,0.0
11725,47.0,0.0,180.0,13.0,0.0
11726,47.0,0.0,180.0,13.0,0.0
11727,35.0,120.0,180.0,14.0,0.0
11728,35.0,168.0,180.0,14.0,0.0
11729,63.0,0.0,60.0,12.0,0.0
11730,75.0,120.0,60.0,10.0,0.0
11731,75.0,0.0,60.0,11.0,0.0
11732,47.0,0.0,180.0,13.0,0.0
11733,76.0,0.0,60.0,11.0,0.0
11734,76.0,0.0,60.0,10.0,0.0
11735,64.0,0.0,60.0,12.0,0.0
11736,35.0,0.0,150.0,14.0,0.0
11737,47.0,42.0,150.0,13.0,0.0
11738,66.0,0.0,120.0,12.0,0.0
11739,78.0,0.0,120.0,10.0,0.0
11740,78.0,36.0,120.0,11.0,0.0
11741,64.0,0.0,90.0,12.0,0.0
11742,76.0,0.0,90.0,10.0,0.0
11743,76.0,120.0,90.0,11.0,0.0
11744,75.0,0.0,90.0,11.0,0.0
11745,75.0,0.0,90.0,10.0,0.0
11746,63.0,78.0,90.0,12.0,0.0
11747,47.0,0.0,150.0,13.0,0.0
11748,35.0,42.0,150.0,14.0,0.0
11749,73.0,198.0,90.0,11.0,0.0
11750,61.0,0.0,90.0,12.0,0.0
11751,73.0,0.0,90.0,10.0,0.0
11752,71.0,0.0,150.0,11.0,0.0
11753,35.0,0.0,150.0,14.0,0.0
11754,47.0,0.0,150.0,13.0,0.0
11755,59.0,162.0,150.0,12.0,0.0
11756,71.0,0.0,150.0,10.0,0.0
11757,70.0,78.0,90.0,11.0,0.0
11758,58.0,0.0,90.0,12.0,0.0
11759,35.0,0.0,150.0,14.0,0.0
11760,47.0,42.0,150.0,13.0,0.0
11761,70.0,0.0,90.0,10.0,0.0
11762,71.0,0.0,90.0,10.0,0.0
11763,71.0,162.0,90.0,11.0,0.0
11764,59.0,0.0,90.0,12.0,0.0
11765,73.0,0.0,120.0,10.0,0.0
11766,61.0,0.0,120.0,12.0,0.0
11767,73.0,36.0,120.0,11.0,0.0
11768,35.0,42.0,150.0,14.0,0.0
11769,47.0,0.0,150.0,13.0,0.0
11770,71.0,0.0,90.0,11.0,0.0
11771,71.0,0.0,90.0,10.0,0.0
11772,59.0,120.0,90.0,12.0,0.0
11773,47.0,42.0,150.0,13.0,0.0
11774,70.0,0.0,90.0,10.0,0.0
11775,70.0,78.0,90.0,11.0,0.0
11776,35.0,0.0,150.0,14.0,0.0
11777,58.0,0.0,90.0,12.0,0.0
11778,68.0,0.0,90.0,11.0,0.0
11779,68.0,198.0,90.0,10.0,0.0
11780,56.0,0.0,90.0,12.0,0.0
11781,35.0,0.0,150.0,14.0,0.0
11782,66.0,0.0,150.0,11.0,0.0
11783,54.0,0.0,150.0,12.0,0.0
11784,47.0,162.0,150.0,13.0,0.0
11785,66.0,0.0,150.0,10.0,0.0
11786,68.0,0.0,90.0,10.0,0.0
11787,68.0,78.0,90.0,11.0,0.0
11788,56.0,0.0,90.0,12.0,0.0
11789,47.0,0.0,150.0,13.0,0.0
11790,35.0,42.0,150.0,14.0,0.0
11791,70.0,0.0,90.0,10.0,0.0
11792,70.0,186.0,90.0,11.0,0.0
11793,58.0,0.0,90.0,12.0,0.0
11794,59.0,0.0,150.0,12.0,0.0
11795,47.0,0.0,150.0,13.0,0.0
11796,71.0,0.0,150.0,11.0,0.0
11797,71.0,12.0,150.0,10.0,0.0
11798,35.0,228.0,150.0,14.0,0.0
11799,58.0,0.0,150.0,12.0,0.0
11800,61.0,12.0,150.0,12.0,0.0
11801,47.0,0.0,150.0,13.0,0.0
11802,70.0,0.0,150.0,11.0,0.0
11803,35.0,228.0,150.0,14.0,0.0
11804,73.0,0.0,150.0,10.0,0.0
11805,75.0,12.0,150.0,10.0,0.0
11806,59.0,0.0,150.0,12.0,0.0
11807,47.0,0.0,150.0,13.0,0.0
11808,35.0,228.0,150.0,14.0,0.0
11809,71.0,0.0,150.0,11.0,0.0
11810,63.0,0.0,150.0,12.0,0.0
11811,35.0,0.0,150.0,14.0,0.0
11812,73.0,0.0,150.0,11.0,0.0
11813,47.0,204.0,150.0,13.0,0.0
11814,61.0,0.0,150.0,12.0,0.0
11815,64.0,0.0,150.0,12.0,0.0
11816,76.0,12.0,150.0,10.0,0.0
11817,75.0,0.0,150.0,11.0,0.0
11818,66.0,0.0,480.0,1.0,0.0
11819,75.0,0.0,480.0,1.0,0.0
11820,63.0,96.0,150.0,12.0,0.0
11821,78.0,0.0,150.0,10.0,0.0
11822,54.0,120.0,480.0,2.0,0.0
11823,63.0,0.0,480.0,2.0,0.0
11824,47.0,24.0,120.0,13.0,0.0
11825,78.0,0.0,480.0,0.0,0.0
11826,66.0,0.0,150.0,12.0,0.0
11827,35.0,0.0,120.0,14.0,0.0
11828,34.0,120.0,120.0,14.0,0.0
11829,46.0,0.0,120.0,13.0,0.0
11830,59.0,0.0,120.0,10.0,0.0
11831,47.0,0.0,120.0,13.0,0.0
11832,47.0,0.0,120.0,12.0,0.0
11833,35.0,120.0,120.0,14.0,0.0
11834,59.0,0.0,120.0,11.0,0.0
11835,46.0,0.0,120.0,13.0,0.0
11836,58.0,0.0,120.0,10.0,0.0
11837,46.0,0.0,120.0,12.0,0.0
11838,34.0,0.0,120.0,14.0,0.0
11839,58.0,0.0,120.0,11.0,0.0
11840,47.0,0.0,120.0,13.0,0.0
11841,47.0,0.0,120.0,12.0,0.0
11842,56.0,0.0,480.0,2.0,0.0
11843,80.0,0.0,480.0,0.0,0.0
11844,59.0,0.0,120.0,11.0,0.0
11845,35.0,0.0,120.0,14.0,0.0
11846,76.0,0.0,480.0,1.0,0.0
11847,64.0,0.0,480.0,2.0,0.0
11848,68.0,0.0,480.0,1.0,0.0
11849,59.0,120.0,120.0,10.0,0.0
11850,46.0,0.0,120.0,13.0,0.0
11851,58.0,0.0,120.0,11.0,0.0
11852,46.0,120.0,120.0,12.0,0.0
11853,34.0,0.0,120.0,14.0,0.0
11854,58.0,0.0,120.0,10.0,0.0
11855,35.0,120.0,120.0,14.0,0.0
11856,59.0,0.0,120.0,11.0,0.0
11857,59.0,0.0,120.0,10.0,0.0
11858,47.0,0.0,120.0,13.0,0.0
11859,47.0,0.0,120.0,12.0,0.0
11860,34.0,120.0,120.0,14.0,0.0
11861,58.0,0.0,120.0,11.0,0.0
11862,58.0,0.0,120.0,10.0,0.0
11863,46.0,0.0,120.0,12.0,0.0
11864,46.0,0.0,120.0,13.0,0.0
11865,77.0,0.0,480.0,0.0,0.0
11866,65.0,0.0,480.0,1.0,0.0
11867,74.0,0.0,480.0,1.0,0.0
11868,62.0,0.0,480.0,2.0,0.0
11869,35.0,0.0,120.0,14.0,0.0
11870,53.0,0.0,480.0,2.0,0.0
11871,59.0,0.0,120.0,10.0,0.0
11872,47.0,0.0,120.0,12.0,0.0
11873,47.0,120.0,120.0,13.0,0.0
11874,59.0,0.0,120.0,11.0,0.0
11875,58.0,0.0,120.0,11.0,0.0
11876,58.0,0.0,120.0,10.0,0.0
11877,34.0,120.0,120.0,14.0,0.0
11878,46.0,0.0,120.0,12.0,0.0
11879,46.0,0.0,120.0,13.0,0.0
11880,47.0,120.0,120.0,12.0,0.0
11881,59.0,0.0,120.0,11.0,0.0
11882,59.0,0.0,120.0,10.0,0.0
11883,47.0,0.0,120.0,13.0,0.0
11884,35.0,0.0,120.0,14.0,0.0
11885,58.0,0.0,120.0,10.0,0.0
11886,58.0,120.0,120.0,11.0,0.0
11887,46.0,0.0,120.0,13.0,0.0
11888,46.0,0.0,120.0,12.0,0.0
11889,34.0,0.0,120.0,14.0,0.0
11890,78.0,0.0,480.0,0.0,0.0
11891,75.0,0.0,480.0,1.0,0.0
11892,54.0,156.0,480.0,2.0,0.0
11893,66.0,0.0,480.0,1.0,0.0
11894,59.0,0.0,120.0,11.0,0.0
11895,59.0,120.0,120.0,10.0,0.0
11896,63.0,0.0,480.0,2.0,0.0
11897,47.0,0.0,120.0,12.0,0.0
11898,47.0,0.0,120.0,13.0,0.0
11899,35.0,0.0,120.0,14.0,0.0
11900,46.0,0.0,120.0,12.0,0.0
11901,46.0,0.0,120.0,13.0,0.0
11902,58.0,48.0,120.0,11.0,0.0
11903,58.0,0.0,120.0,10.0,0.0
11904,34.0,0.0,120.0,14.0,0.0
11905,47.0,0.0,120.0,13.0,0.0
11906,35.0,120.0,120.0,14.0,0.0
11907,47.0,0.0,120.0,12.0,0.0
11908,59.0,0.0,120.0,11.0,0.0
11909,59.0,0.0,120.0,10.0,0.0
11910,46.0,0.0,120.0,12.0,0.0
11911,34.0,0.0,120.0,14.0,0.0
11912,58.0,0.0,120.0,11.0,0.0
11913,58.0,0.0,120.0,10.0,0.0
11914,46.0,0.0,120.0,13.0,0.0
11915,75.0,60.0,570.0,0.0,0.0
11916,63.0,0.0,570.0,1.0,0.0
11917,71.0,0.0,570.0,1.0,0.0
11918,59.0,0.0,570.0,11.0,0.0
11919,47.0,36.0,150.0,13.0,0.0
11920,47.0,0.0,570.0,12.0,0.0
11921,47.0,0.0,5910.0,3.0,0.0
11922,35.0,0.0,5910.0,3.0,0.0
11923,59.0,0.0,570.0,2.0,0.0
11924,59.0,0.0,570.0,10.0,0.0
11925,51.0,0.0,570.0,2.0,0.0
11926,35.0,204.0,180.0,14.0,0.0
11927,35.0,36.0,150.0,13.0,0.0
11928,35.0,144.0,180.0,14.0,0.0
11929,35.0,120.0,180.0,14.0,0.0
11930,35.0,36.0,150.0,13.0,0.0
11931,35.0,36.0,150.0,13.0,0.0
11932,75.0,0.0,60.0,10.0,0.0
11933,75.0,0.0,60.0,11.0,0.0
11934,63.0,84.0,60.0,12.0,0.0
11935,35.0,0.0,180.0,14.0,0.0
11936,76.0,0.0,60.0,11.0,0.0
11937,64.0,0.0,60.0,12.0,0.0
11938,76.0,168.0,60.0,10.0,0.0
11939,78.0,0.0,120.0,11.0,0.0
11940,35.0,42.0,150.0,14.0,0.0
11941,78.0,0.0,120.0,10.0,0.0
11942,35.0,0.0,150.0,13.0,0.0
11943,66.0,36.0,120.0,12.0,0.0
11944,76.0,120.0,90.0,11.0,0.0
11945,76.0,0.0,90.0,10.0,0.0
11946,64.0,0.0,90.0,12.0,0.0
11947,35.0,0.0,150.0,14.0,0.0
11948,63.0,0.0,90.0,12.0,0.0
11949,35.0,42.0,150.0,13.0,0.0
11950,75.0,78.0,90.0,11.0,0.0
11951,75.0,0.0,90.0,10.0,0.0
11952,73.0,198.0,90.0,10.0,0.0
11953,73.0,0.0,90.0,11.0,0.0
11954,61.0,0.0,90.0,12.0,0.0
11955,71.0,0.0,150.0,10.0,0.0
11956,71.0,0.0,150.0,11.0,0.0
11957,35.0,0.0,150.0,14.0,0.0
11958,35.0,0.0,150.0,13.0,0.0
11959,59.0,162.0,150.0,12.0,0.0
11960,35.0,42.0,150.0,14.0,0.0
11961,58.0,0.0,90.0,12.0,0.0
11962,35.0,0.0,150.0,13.0,0.0
11963,70.0,78.0,90.0,11.0,0.0
11964,70.0,0.0,90.0,10.0,0.0
11965,71.0,0.0,90.0,10.0,0.0
11966,59.0,162.0,90.0,12.0,0.0
11967,71.0,0.0,90.0,11.0,0.0
11968,35.0,42.0,150.0,13.0,0.0
11969,61.0,0.0,120.0,12.0,0.0
11970,73.0,36.0,120.0,10.0,0.0
11971,35.0,0.0,150.0,14.0,0.0
11972,73.0,0.0,120.0,11.0,0.0
11973,71.0,0.0,90.0,11.0,0.0
11974,59.0,0.0,90.0,12.0,0.0
11975,71.0,120.0,90.0,10.0,0.0
11976,58.0,78.0,90.0,12.0,0.0
11977,70.0,0.0,90.0,11.0,0.0
11978,35.0,42.0,150.0,13.0,0.0
11979,35.0,0.0,150.0,14.0,0.0
11980,70.0,0.0,90.0,10.0,0.0
11981,56.0,0.0,90.0,12.0,0.0
11982,68.0,0.0,90.0,10.0,0.0
11983,68.0,198.0,90.0,11.0,0.0
11984,66.0,0.0,150.0,10.0,0.0
11985,35.0,0.0,150.0,14.0,0.0
11986,66.0,0.0,150.0,11.0,0.0
11987,35.0,162.0,150.0,13.0,0.0
11988,54.0,0.0,150.0,12.0,0.0
11989,68.0,0.0,90.0,10.0,0.0
11990,35.0,42.0,150.0,13.0,0.0
11991,68.0,78.0,90.0,11.0,0.0
11992,56.0,0.0,90.0,12.0,0.0
11993,35.0,0.0,150.0,14.0,0.0
11994,58.0,186.0,90.0,12.0,0.0
11995,70.0,0.0,90.0,10.0,0.0
11996,70.0,0.0,90.0,11.0,0.0
11997,71.0,0.0,150.0,11.0,0.0
11998,35.0,228.0,150.0,14.0,0.0
11999,59.0,0.0,150.0,12.0,0.0
12000,35.0,0.0,150.0,13.0,0.0
12001,71.0,12.0,150.0,10.0,0.0
12002,73.0,12.0,150.0,10.0,0.0
12003,70.0,0.0,150.0,11.0,0.0
12004,61.0,0.0,150.0,12.0,0.0
12005,35.0,0.0,150.0,13.0,0.0
12006,58.0,0.0,150.0,12.0,0.0
12007,35.0,228.0,150.0,14.0,0.0
12008,75.0,12.0,150.0,10.0,0.0
12009,35.0,0.0,150.0,14.0,0.0
12010,71.0,0.0,150.0,11.0,0.0
12011,35.0,228.0,150.0,13.0,0.0
12012,59.0,0.0,150.0,12.0,0.0
12013,63.0,0.0,150.0,12.0,0.0
12014,76.0,12.0,150.0,10.0,0.0
12015,73.0,0.0,150.0,11.0,0.0
12016,61.0,0.0,150.0,12.0,0.0
12017,64.0,0.0,150.0,12.0,0.0
12018,35.0,204.0,150.0,14.0,0.0
12019,35.0,0.0,150.0,13.0,0.0
12020,75.0,0.0,480.0,1.0,0.0
12021,66.0,0.0,480.0,1.0,0.0
12022,35.0,24.0,120.0,13.0,0.0
12023,78.0,120.0,480.0,0.0,0.0
12024,54.0,0.0,480.0,2.0,0.0
12025,63.0,0.0,480.0,2.0,0.0
12026,35.0,0.0,120.0,14.0,0.0
12027,63.0,0.0,150.0,12.0,0.0
12028,66.0,0.0,150.0,12.0,0.0
12029,75.0,0.0,150.0,11.0,0.0
12030,78.0,96.0,150.0,10.0,0.0
12031,34.0,0.0,120.0,14.0,0.0
12032,34.0,120.0,120.0,13.0,0.0
12033,59.0,120.0,120.0,10.0,0.0
12034,59.0,0.0,120.0,11.0,0.0
12035,47.0,0.0,120.0,12.0,0.0
12036,35.0,0.0,120.0,14.0,0.0
12037,35.0,0.0,120.0,13.0,0.0
12038,34.0,0.0,120.0,14.0,0.0
12039,46.0,0.0,120.0,12.0,0.0
12040,58.0,0.0,120.0,10.0,0.0
12041,34.0,0.0,120.0,13.0,0.0
12042,58.0,0.0,120.0,11.0,0.0
12043,56.0,120.0,480.0,2.0,0.0
12044,35.0,0.0,120.0,13.0,0.0
12045,59.0,0.0,120.0,11.0,0.0
12046,47.0,0.0,120.0,12.0,0.0
12047,35.0,0.0,120.0,14.0,0.0
12048,68.0,0.0,480.0,1.0,0.0
12049,76.0,0.0,480.0,1.0,0.0
12050,59.0,120.0,120.0,10.0,0.0
12051,80.0,0.0,480.0,0.0,0.0
12052,64.0,0.0,480.0,2.0,0.0
12053,46.0,120.0,120.0,12.0,0.0
12054,34.0,0.0,120.0,14.0,0.0
12055,58.0,0.0,120.0,11.0,0.0
12056,58.0,0.0,120.0,10.0,0.0
12057,34.0,0.0,120.0,13.0,0.0
12058,35.0,0.0,120.0,13.0,0.0
12059,59.0,0.0,120.0,11.0,0.0
12060,35.0,0.0,120.0,14.0,0.0
12061,59.0,0.0,120.0,10.0,0.0
12062,47.0,120.0,120.0,12.0,0.0
12063,58.0,0.0,120.0,11.0,0.0
12064,58.0,0.0,120.0,10.0,0.0
12065,46.0,0.0,120.0,12.0,0.0
12066,34.0,0.0,120.0,14.0,0.0
12067,34.0,0.0,120.0,13.0,0.0
12068,59.0,120.0,120.0,10.0,0.0
12069,74.0,0.0,480.0,1.0,0.0
12070,65.0,0.0,480.0,1.0,0.0
12071,77.0,120.0,480.0,0.0,0.0
12072,35.0,0.0,120.0,14.0,0.0
12073,53.0,0.0,480.0,2.0,0.0
12074,62.0,0.0,480.0,2.0,0.0
12075,59.0,0.0,120.0,11.0,0.0
12076,47.0,0.0,120.0,12.0,0.0
12077,35.0,0.0,120.0,13.0,0.0
12078,34.0,0.0,120.0,13.0,0.0
12079,34.0,0.0,120.0,14.0,0.0
12080,58.0,0.0,120.0,11.0,0.0
12081,46.0,0.0,120.0,12.0,0.0
12082,58.0,120.0,120.0,10.0,0.0
12083,35.0,120.0,120.0,14.0,0.0
12084,47.0,0.0,120.0,12.0,0.0
12085,59.0,0.0,120.0,11.0,0.0
12086,35.0,0.0,120.0,13.0,0.0
12087,59.0,0.0,120.0,10.0,0.0
12088,58.0,0.0,120.0,11.0,0.0
12089,34.0,0.0,120.0,13.0,0.0
12090,58.0,0.0,120.0,10.0,0.0
12091,46.0,0.0,120.0,12.0,0.0
12092,34.0,0.0,120.0,14.0,0.0
12093,35.0,0.0,120.0,14.0,0.0
12094,35.0,120.0,120.0,13.0,0.0
12095,54.0,0.0,390.0,2.0,0.0
12096,75.0,0.0,390.0,1.0,0.0
12097,66.0,96.0,390.0,1.0,0.0
12098,63.0,0.0,390.0,2.0,0.0
12099,59.0,0.0,120.0,10.0,0.0
12100,78.0,0.0,390.0,0.0,0.0
12101,59.0,0.0,120.0,11.0,0.0
12102,47.0,0.0,120.0,12.0,0.0
12103,34.0,0.0,120.0,14.0,0.0
12104,46.0,0.0,120.0,12.0,0.0
12105,58.0,120.0,120.0,11.0,0.0
12106,58.0,0.0,120.0,10.0,0.0
12107,34.0,0.0,120.0,13.0,0.0
12108,35.0,0.0,120.0,13.0,0.0
12109,35.0,0.0,120.0,14.0,0.0
12110,47.0,0.0,120.0,12.0,0.0
12111,59.0,24.0,120.0,10.0,0.0
12112,59.0,0.0,120.0,11.0,0.0
12113,58.0,0.0,120.0,11.0,0.0
12114,34.0,0.0,120.0,13.0,0.0
12115,58.0,0.0,120.0,10.0,0.0
12116,34.0,144.0,120.0,14.0,0.0
12117,46.0,0.0,120.0,12.0,0.0
12118,71.0,240.0,150.0,1.0,0.0
12119,35.0,0.0,150.0,13.0,0.0
12120,59.0,0.0,150.0,11.0,0.0
12121,63.0,0.0,150.0,1.0,0.0
12122,47.0,0.0,150.0,12.0,0.0
12123,35.0,0.0,150.0,14.0,0.0
12124,51.0,0.0,150.0,2.0,0.0
12125,59.0,0.0,150.0,10.0,0.0
12126,59.0,0.0,150.0,2.0,0.0
12127,75.0,0.0,150.0,0.0,0.0
12128,75.0,0.0,150.0,0.0,0.0
12129,59.0,0.0,150.0,10.0,0.0
12130,51.0,0.0,150.0,2.0,0.0
12131,35.0,0.0,150.0,13.0,0.0
12132,59.0,240.0,150.0,11.0,0.0
12133,71.0,0.0,150.0,1.0,0.0
12134,63.0,0.0,150.0,1.0,0.0
12135,47.0,0.0,150.0,12.0,0.0
12136,35.0,0.0,150.0,14.0,0.0
12137,47.0,0.0,150.0,3.0,0.0
12138,35.0,0.0,150.0,3.0,0.0
12139,59.0,0.0,150.0,2.0,0.0
12140,59.0,0.0,150.0,11.0,0.0
12141,35.0,0.0,150.0,14.0,0.0
12142,80.0,0.0,150.0,0.0,0.0
12143,59.0,240.0,150.0,10.0,0.0
12144,68.0,0.0,150.0,1.0,0.0
12145,76.0,0.0,150.0,1.0,0.0
12146,47.0,0.0,150.0,3.0,0.0
12147,35.0,0.0,150.0,3.0,0.0
12148,35.0,0.0,150.0,13.0,0.0
12149,47.0,0.0,150.0,12.0,0.0
12150,64.0,0.0,150.0,2.0,0.0
12151,56.0,0.0,150.0,2.0,0.0
12152,59.0,0.0,150.0,10.0,0.0
12153,35.0,0.0,150.0,14.0,0.0
12154,68.0,0.0,150.0,1.0,0.0
12155,59.0,240.0,150.0,11.0,0.0
12156,80.0,0.0,150.0,0.0,0.0
12157,47.0,0.0,150.0,12.0,0.0
12158,47.0,0.0,150.0,3.0,0.0
12159,35.0,0.0,150.0,3.0,0.0
12160,76.0,0.0,150.0,1.0,0.0
12161,56.0,0.0,150.0,2.0,0.0
12162,64.0,0.0,150.0,2.0,0.0
12163,35.0,0.0,150.0,13.0,0.0
12164,59.0,0.0,150.0,11.0,0.0
12165,65.0,0.0,150.0,1.0,0.0
12166,77.0,0.0,150.0,0.0,0.0
12167,74.0,0.0,150.0,1.0,0.0
12168,62.0,0.0,150.0,2.0,0.0
12169,53.0,0.0,150.0,2.0,0.0
12170,35.0,0.0,150.0,14.0,0.0
12171,35.0,0.0,150.0,3.0,0.0
12172,47.0,0.0,150.0,12.0,0.0
12173,59.0,0.0,150.0,10.0,0.0
12174,47.0,0.0,150.0,3.0,0.0
12175,35.0,240.0,150.0,13.0,0.0
12176,77.0,0.0,150.0,0.0,0.0
12177,59.0,240.0,150.0,11.0,0.0
12178,47.0,0.0,150.0,3.0,0.0
12179,47.0,0.0,150.0,12.0,0.0
12180,59.0,0.0,150.0,10.0,0.0
12181,74.0,0.0,150.0,1.0,0.0
12182,65.0,0.0,150.0,1.0,0.0
12183,53.0,0.0,150.0,2.0,0.0
12184,35.0,0.0,150.0,14.0,0.0
12185,62.0,0.0,150.0,2.0,0.0
12186,35.0,0.0,150.0,13.0,0.0
12187,35.0,0.0,150.0,3.0,0.0
12188,35.0,240.0,150.0,14.0,0.0
12189,47.0,0.0,150.0,12.0,0.0
12190,63.0,0.0,150.0,2.0,0.0
12191,59.0,0.0,150.0,11.0,0.0
12192,35.0,0.0,150.0,13.0,0.0
12193,78.0,0.0,150.0,0.0,0.0
12194,54.0,0.0,150.0,2.0,0.0
12195,35.0,0.0,150.0,3.0,0.0
12196,47.0,0.0,150.0,3.0,0.0
12197,75.0,0.0,150.0,1.0,0.0
12198,59.0,0.0,150.0,10.0,0.0
12199,66.0,0.0,150.0,1.0,0.0
12200,35.0,0.0,150.0,14.0,0.0
12201,59.0,0.0,150.0,11.0,0.0
12202,59.0,0.0,150.0,10.0,0.0
12203,47.0,0.0,150.0,12.0,0.0
12204,35.0,0.0,150.0,13.0,0.0
12205,78.0,192.0,150.0,0.0,0.0
12206,47.0,0.0,150.0,3.0,0.0
12207,63.0,0.0,150.0,2.0,0.0
12208,54.0,0.0,150.0,2.0,0.0
12209,66.0,0.0,150.0,1.0,0.0
12210,75.0,0.0,150.0,1.0,0.0
12211,35.0,0.0,150.0,3.0,0.0
12212,35.0,0.0,150.0,14.0,0.0
12213,56.0,0.0,390.0,4.0,0.0
12214,83.0,0.0,90.0,10.0,0.0
12215,35.0,60.0,150.0,13.0,0.0
12216,35.0,0.0,390.0,3.0,0.0
12217,71.0,0.0,390.0,1.0,0.0
12218,63.0,0.0,390.0,1.0,0.0
12219,47.0,0.0,150.0,12.0,0.0
12220,47.0,0.0,390.0,3.0,0.0
12221,75.0,0.0,450.0,0.0,0.0
12222,51.0,0.0,390.0,2.0,0.0
12223,59.0,0.0,390.0,2.0,0.0
12224,75.0,60.0,90.0,11.0,0.0
12225,47.0,0.0,390.0,5.0,0.0
12226,71.0,12.0,390.0,4.0,0.0
12227,75.0,0.0,90.0,11.0,0.0
12228,83.0,120.0,90.0,10.0,0.0
12229,59.0,0.0,150.0,12.0,0.0
12230,75.0,0.0,90.0,11.0,0.0
12231,47.0,60.0,150.0,13.0,0.0
12232,83.0,48.0,90.0,10.0,0.0
12233,35.0,0.0,150.0,14.0,0.0
12234,75.0,120.0,90.0,11.0,0.0
12235,83.0,0.0,90.0,10.0,0.0
12236,75.0,0.0,90.0,11.0,0.0
12237,44.0,0.0,150.0,14.0,0.0
12238,83.0,60.0,90.0,10.0,0.0
12239,80.0,0.0,450.0,0.0,0.0
12240,63.0,12.0,390.0,2.0,0.0
12241,68.0,60.0,150.0,12.0,0.0
12242,59.0,12.0,870.0,2.0,0.0
12243,71.0,0.0,870.0,1.0,0.0
12244,56.0,0.0,150.0,13.0,0.0
12245,83.0,120.0,90.0,10.0,0.0
12246,75.0,0.0,90.0,11.0,0.0
12247,32.0,60.0,150.0,14.0,0.0
12248,44.0,0.0,150.0,13.0,0.0
12249,75.0,0.0,90.0,11.0,0.0
12250,83.0,48.0,90.0,10.0,0.0
12251,56.0,0.0,150.0,12.0,0.0
12252,75.0,0.0,90.0,11.0,0.0
12253,83.0,120.0,90.0,10.0,0.0
12254,40.0,0.0,150.0,13.0,0.0
12255,80.0,0.0,390.0,1.0,0.0
12256,85.0,24.0,900.0,0.0,0.0
12257,28.0,0.0,150.0,14.0,0.0
12258,61.0,0.0,870.0,2.0,0.0
12259,73.0,60.0,90.0,11.0,0.0
12260,52.0,60.0,150.0,12.0,0.0
12261,83.0,0.0,90.0,10.0,0.0
12262,83.0,0.0,90.0,10.0,0.0
12263,73.0,120.0,90.0,11.0,0.0
12264,73.0,0.0,90.0,11.0,0.0
12265,52.0,0.0,150.0,13.0,0.0
12266,64.0,0.0,150.0,12.0,0.0
12267,40.0,60.0,150.0,14.0,0.0
12268,83.0,48.0,90.0,10.0,0.0
12269,73.0,120.0,90.0,11.0,0.0
12270,83.0,0.0,90.0,10.0,0.0
12271,73.0,0.0,90.0,11.0,0.0
12272,66.0,60.0,150.0,12.0,0.0
12273,54.0,0.0,150.0,13.0,0.0
12274,42.0,0.0,150.0,14.0,0.0
12275,54.0,0.0,390.0,3.0,0.0
12276,42.0,0.0,390.0,3.0,0.0
12277,66.0,0.0,390.0,4.0,0.0
12278,54.0,0.0,390.0,4.0,0.0
12279,70.0,12.0,870.0,1.0,0.0
12280,78.0,0.0,870.0,1.0,0.0
12281,42.0,12.0,390.0,5.0,0.0
12282,82.0,60.0,90.0,10.0,0.0
12283,58.0,0.0,870.0,2.0,0.0
12284,73.0,0.0,90.0,11.0,0.0
12285,82.0,120.0,90.0,10.0,0.0
12286,30.0,0.0,150.0,14.0,0.0
12287,42.0,36.0,150.0,13.0,0.0
12288,54.0,0.0,150.0,12.0,0.0
12289,73.0,48.0,90.0,11.0,0.0
12290,82.0,0.0,90.0,10.0,0.0
12291,82.0,120.0,90.0,10.0,0.0
12292,73.0,0.0,90.0,11.0,0.0
12293,47.0,0.0,390.0,5.0,0.0
12294,51.0,60.0,150.0,12.0,0.0
12295,82.0,0.0,90.0,10.0,0.0
12296,59.0,12.0,870.0,2.0,0.0
12297,83.0,24.0,900.0,0.0,0.0
12298,71.0,0.0,390.0,4.0,0.0
12299,59.0,0.0,390.0,4.0,0.0
12300,27.0,0.0,150.0,14.0,0.0
12301,71.0,60.0,90.0,11.0,0.0
12302,47.0,0.0,390.0,3.0,0.0
12303,39.0,0.0,150.0,13.0,0.0
12304,59.0,0.0,390.0,3.0,0.0
12305,71.0,120.0,90.0,11.0,0.0
12306,82.0,0.0,90.0,10.0,0.0
12307,82.0,0.0,90.0,10.0,0.0
12308,51.0,0.0,150.0,13.0,0.0
12309,63.0,60.0,150.0,12.0,0.0
12310,71.0,48.0,90.0,11.0,0.0
12311,39.0,0.0,150.0,14.0,0.0
12312,71.0,0.0,90.0,11.0,0.0
12313,82.0,120.0,90.0,10.0,0.0
12314,76.0,0.0,870.0,1.0,0.0
12315,40.0,0.0,150.0,14.0,0.0
12316,52.0,0.0,150.0,13.0,0.0
12317,71.0,60.0,90.0,11.0,0.0
12318,68.0,12.0,870.0,1.0,0.0
12319,64.0,60.0,150.0,12.0,0.0
12320,56.0,0.0,870.0,2.0,0.0
12321,80.0,0.0,90.0,10.0,0.0
12322,80.0,0.0,90.0,10.0,0.0
12323,71.0,120.0,90.0,11.0,0.0
12324,40.0,0.0,150.0,13.0,0.0
12325,80.0,0.0,90.0,10.0,0.0
12326,28.0,36.0,150.0,14.0,0.0
12327,71.0,48.0,90.0,11.0,0.0
12328,52.0,0.0,150.0,12.0,0.0
12329,80.0,0.0,90.0,10.0,0.0
12330,71.0,120.0,90.0,11.0,0.0
12331,82.0,24.0,900.0,0.0,0.0
12332,70.0,0.0,90.0,11.0,0.0
12333,80.0,60.0,90.0,10.0,0.0
12334,25.0,60.0,150.0,14.0,0.0
12335,37.0,0.0,150.0,13.0,0.0
12336,49.0,0.0,150.0,12.0,0.0
12337,58.0,0.0,870.0,2.0,0.0
12338,70.0,0.0,90.0,11.0,0.0
12339,80.0,120.0,90.0,10.0,0.0
12340,61.0,60.0,150.0,12.0,0.0
12341,80.0,48.0,90.0,10.0,0.0
12342,49.0,0.0,150.0,13.0,0.0
12343,70.0,0.0,90.0,11.0,0.0
12344,37.0,0.0,150.0,14.0,0.0
12345,70.0,0.0,90.0,11.0,0.0
12346,80.0,120.0,90.0,10.0,0.0
12347,70.0,60.0,90.0,11.0,0.0
12348,51.0,0.0,150.0,13.0,0.0
12349,39.0,60.0,150.0,14.0,0.0
12350,66.0,0.0,870.0,1.0,0.0
12351,54.0,0.0,390.0,4.0,0.0
12352,66.0,0.0,390.0,4.0,0.0
12353,75.0,0.0,870.0,1.0,0.0
12354,42.0,0.0,390.0,3.0,0.0
12355,54.0,12.0,390.0,3.0,0.0
12356,78.0,0.0,90.0,10.0,0.0
12357,63.0,0.0,150.0,12.0,0.0
12358,54.0,0.0,870.0,2.0,0.0
12359,42.0,0.0,390.0,5.0,0.0
12360,70.0,120.0,90.0,11.0,0.0
12361,78.0,0.0,90.0,10.0,0.0
12362,27.0,36.0,150.0,14.0,0.0
12363,51.0,0.0,150.0,12.0,0.0
12364,78.0,48.0,90.0,10.0,0.0
12365,39.0,0.0,150.0,13.0,0.0
12366,70.0,0.0,90.0,11.0,0.0
12367,78.0,0.0,90.0,10.0,0.0
12368,70.0,120.0,90.0,11.0,0.0
12369,35.0,0.0,150.0,14.0,0.0
12370,59.0,0.0,390.0,3.0,0.0
12371,47.0,0.0,390.0,3.0,0.0
12372,80.0,24.0,900.0,0.0,0.0
12373,71.0,0.0,390.0,4.0,0.0
12374,35.0,60.0,150.0,13.0,0.0
12375,68.0,60.0,90.0,11.0,0.0
12376,78.0,0.0,90.0,10.0,0.0
12377,47.0,0.0,150.0,12.0,0.0
12378,59.0,12.0,390.0,4.0,0.0
12379,56.0,12.0,870.0,2.0,0.0
12380,47.0,0.0,390.0,5.0,0.0
12381,68.0,0.0,90.0,11.0,0.0
12382,78.0,120.0,90.0,10.0,0.0
12383,35.0,0.0,150.0,14.0,0.0
12384,47.0,60.0,150.0,13.0,0.0
12385,68.0,0.0,90.0,11.0,0.0
12386,59.0,0.0,150.0,12.0,0.0
12387,78.0,48.0,90.0,10.0,0.0
12388,68.0,0.0,90.0,11.0,0.0
12389,78.0,120.0,90.0,10.0,0.0
12390,73.0,0.0,870.0,1.0,0.0
12391,64.0,0.0,870.0,1.0,0.0
12392,76.0,0.0,90.0,10.0,0.0
12393,52.0,0.0,870.0,2.0,0.0
12394,37.0,0.0,150.0,14.0,0.0
12395,61.0,0.0,150.0,12.0,0.0
12396,68.0,60.0,90.0,11.0,0.0
12397,49.0,60.0,150.0,13.0,0.0
12398,61.0,0.0,870.0,3.0,0.0
12399,76.0,120.0,90.0,10.0,0.0
12400,68.0,0.0,90.0,11.0,0.0
12401,25.0,36.0,150.0,14.0,0.0
12402,37.0,0.0,150.0,13.0,0.0
12403,76.0,0.0,90.0,10.0,0.0
12404,49.0,0.0,150.0,12.0,0.0
12405,68.0,48.0,90.0,11.0,0.0
12406,76.0,0.0,90.0,10.0,0.0
12407,68.0,120.0,90.0,11.0,0.0
12408,54.0,0.0,390.0,4.0,0.0
12409,66.0,0.0,390.0,4.0,0.0
12410,76.0,0.0,90.0,10.0,0.0
12411,34.0,0.0,150.0,13.0,0.0
12412,54.0,0.0,870.0,2.0,0.0
12413,66.0,60.0,90.0,11.0,0.0
12414,46.0,0.0,150.0,12.0,0.0
12415,34.0,60.0,150.0,14.0,0.0
12416,54.0,12.0,390.0,3.0,0.0
12417,42.0,0.0,390.0,5.0,0.0
12418,78.0,24.0,900.0,0.0,0.0
12419,76.0,0.0,90.0,10.0,0.0
12420,66.0,120.0,90.0,11.0,0.0
12421,76.0,48.0,90.0,10.0,0.0
12422,58.0,60.0,150.0,12.0,0.0
12423,34.0,0.0,150.0,14.0,0.0
12424,46.0,0.0,150.0,13.0,0.0
12425,66.0,0.0,90.0,11.0,0.0
12426,66.0,0.0,90.0,11.0,0.0
12427,76.0,120.0,90.0,10.0,0.0
12428,51.0,0.0,390.0,2.0,0.0
12429,66.0,0.0,90.0,11.0,0.0
12430,63.0,0.0,390.0,1.0,0.0
12431,71.0,0.0,390.0,1.0,0.0
12432,59.0,0.0,390.0,3.0,0.0
12433,63.0,12.0,390.0,3.0,0.0
12434,75.0,60.0,90.0,10.0,0.0
12435,71.0,0.0,390.0,4.0,0.0
12436,59.0,0.0,390.0,4.0,0.0
12437,35.0,0.0,150.0,14.0,0.0
12438,59.0,0.0,150.0,12.0,0.0
12439,47.0,0.0,390.0,5.0,0.0
12440,47.0,60.0,150.0,13.0,0.0
12441,66.0,0.0,90.0,11.0,0.0
12442,75.0,120.0,90.0,10.0,0.0
12443,66.0,0.0,90.0,11.0,0.0
12444,75.0,48.0,90.0,10.0,0.0
12445,23.0,0.0,150.0,14.0,0.0
12446,47.0,36.0,150.0,12.0,0.0
12447,35.0,0.0,150.0,13.0,0.0
12448,75.0,408.0,90.0,10.0,0.0
12449,66.0,0.0,90.0,11.0,0.0
12450,47.0,0.0,390.0,5.0,0.0
12451,80.0,0.0,390.0,0.0,0.0
12452,28.0,0.0,390.0,14.0,0.0
12453,80.0,960.0,390.0,10.0,0.0
12454,59.0,0.0,390.0,4.0,0.0
12455,71.0,0.0,390.0,4.0,0.0
12456,52.0,0.0,390.0,12.0,0.0
12457,52.0,0.0,390.0,2.0,0.0
12458,56.0,0.0,390.0,2.0,0.0
12459,40.0,0.0,390.0,13.0,0.0
12460,71.0,0.0,390.0,11.0,0.0
12461,71.0,0.0,390.0,1.0,0.0
12462,59.0,0.0,390.0,3.0,0.0
12463,61.0,0.0,390.0,3.0,0.0
12464,68.0,0.0,390.0,1.0,0.0
12465,61.0,0.0,390.0,11.0,0.0
12466,76.0,0.0,390.0,1.0,0.0
12467,58.0,0.0,390.0,2.0,0.0
12468,52.0,0.0,390.0,2.0,0.0
12469,54.0,0.0,390.0,12.0,0.0
12470,82.0,0.0,390.0,0.0,0.0
12471,73.0,0.0,390.0,1.0,0.0
12472,30.0,672.0,390.0,14.0,0.0
12473,42.0,0.0,390.0,13.0,0.0
12474,54.0,0.0,390.0,10.0,0.0
12475,70.0,0.0,390.0,10.0,0.0
12476,54.0,0.0,390.0,11.0,0.0
12477,42.0,0.0,390.0,5.0,0.0
12478,61.0,0.0,390.0,3.0,0.0
12479,54.0,0.0,390.0,3.0,0.0
12480,66.0,0.0,390.0,4.0,0.0
12481,61.0,0.0,390.0,10.0,0.0
12482,64.0,0.0,390.0,11.0,0.0
12483,54.0,0.0,390.0,4.0,0.0
12484,54.0,24.0,90.0,11.0,0.0
12485,75.0,0.0,150.0,1.0,0.0
12486,71.0,0.0,150.0,1.0,0.0
12487,63.0,0.0,90.0,11.0,0.0
12488,35.0,42.0,150.0,14.0,0.0
12489,83.0,0.0,150.0,0.0,0.0
12490,59.0,0.0,150.0,12.0,0.0
12491,47.0,12.0,390.0,5.0,0.0
12492,59.0,0.0,150.0,4.0,0.0
12493,66.0,0.0,150.0,4.0,0.0
12494,51.0,0.0,150.0,3.0,0.0
12495,59.0,0.0,150.0,3.0,0.0
12496,47.0,0.0,150.0,13.0,0.0
12497,71.0,36.0,120.0,10.0,0.0
12498,51.0,0.0,150.0,2.0,0.0
12499,59.0,0.0,150.0,2.0,0.0
12500,54.0,102.0,90.0,11.0,0.0
12501,63.0,0.0,90.0,11.0,0.0
12502,75.0,18.0,90.0,10.0,0.0
12503,66.0,0.0,150.0,4.0,0.0
12504,59.0,0.0,150.0,3.0,0.0
12505,51.0,0.0,150.0,3.0,0.0
12506,59.0,42.0,150.0,4.0,0.0
12507,75.0,0.0,150.0,1.0,0.0
12508,71.0,18.0,90.0,10.0,0.0
12509,59.0,0.0,150.0,2.0,0.0
12510,51.0,0.0,150.0,2.0,0.0
12511,47.0,0.0,150.0,14.0,0.0
12512,71.0,0.0,150.0,1.0,0.0
12513,54.0,48.0,90.0,11.0,0.0
12514,87.0,0.0,150.0,0.0,0.0
12515,63.0,0.0,90.0,11.0,0.0
12516,71.0,0.0,150.0,12.0,0.0
12517,59.0,0.0,150.0,13.0,0.0
12518,66.0,18.0,90.0,10.0,0.0
12519,63.0,120.0,90.0,11.0,0.0
12520,54.0,0.0,90.0,11.0,0.0
12521,66.0,0.0,150.0,4.0,0.0
12522,54.0,42.0,150.0,4.0,0.0
12523,54.0,0.0,150.0,12.0,0.0
12524,42.0,0.0,150.0,13.0,0.0
12525,54.0,0.0,90.0,11.0,0.0
12526,30.0,0.0,150.0,14.0,0.0
12527,70.0,0.0,150.0,1.0,0.0
12528,78.0,36.0,120.0,10.0,0.0
12529,42.0,12.0,390.0,5.0,0.0
12530,49.0,0.0,150.0,2.0,0.0
12531,58.0,0.0,150.0,2.0,0.0
12532,54.0,0.0,150.0,3.0,0.0
12533,61.0,0.0,150.0,3.0,0.0
12534,85.0,0.0,150.0,0.0,0.0
12535,73.0,0.0,150.0,1.0,0.0
12536,64.0,24.0,90.0,11.0,0.0
12537,64.0,0.0,90.0,11.0,0.0
12538,54.0,102.0,90.0,11.0,0.0
12539,76.0,18.0,90.0,10.0,0.0
12540,54.0,0.0,150.0,13.0,0.0
12541,52.0,0.0,150.0,2.0,0.0
12542,73.0,0.0,150.0,1.0,0.0
12543,54.0,0.0,150.0,3.0,0.0
12544,61.0,0.0,150.0,3.0,0.0
12545,75.0,18.0,90.0,10.0,0.0
12546,64.0,0.0,90.0,11.0,0.0
12547,82.0,0.0,150.0,0.0,0.0
12548,76.0,0.0,150.0,1.0,0.0
12549,42.0,42.0,150.0,14.0,0.0
12550,54.0,0.0,150.0,4.0,0.0
12551,66.0,0.0,150.0,4.0,0.0
12552,66.0,0.0,150.0,12.0,0.0
12553,54.0,48.0,90.0,11.0,0.0
12554,61.0,0.0,150.0,2.0,0.0
12555,54.0,0.0,90.0,11.0,0.0
12556,64.0,120.0,90.0,11.0,0.0
12557,70.0,18.0,90.0,10.0,0.0
12558,71.0,0.0,150.0,1.0,0.0
12559,59.0,0.0,150.0,2.0,0.0
12560,51.0,0.0,150.0,2.0,0.0
12561,83.0,0.0,150.0,0.0,0.0
12562,47.0,12.0,390.0,5.0,0.0
12563,75.0,0.0,150.0,1.0,0.0
12564,63.0,24.0,90.0,11.0,0.0
12565,35.0,0.0,150.0,14.0,0.0
12566,47.0,0.0,150.0,13.0,0.0
12567,63.0,42.0,150.0,3.0,0.0
12568,59.0,0.0,150.0,3.0,0.0
12569,66.0,0.0,150.0,4.0,0.0
12570,54.0,0.0,90.0,11.0,0.0
12571,71.0,36.0,120.0,10.0,0.0
12572,59.0,0.0,150.0,4.0,0.0
12573,59.0,0.0,150.0,12.0,0.0
12574,75.0,18.0,90.0,10.0,0.0
12575,63.0,102.0,90.0,11.0,0.0
12576,54.0,0.0,90.0,11.0,0.0
12577,63.0,0.0,150.0,3.0,0.0
12578,59.0,0.0,150.0,3.0,0.0
12579,66.0,0.0,150.0,4.0,0.0
12580,54.0,48.0,90.0,11.0,0.0
12581,71.0,0.0,150.0,12.0,0.0
12582,47.0,0.0,150.0,14.0,0.0
12583,59.0,0.0,150.0,2.0,0.0
12584,71.0,18.0,90.0,10.0,0.0
12585,63.0,0.0,90.0,11.0,0.0
12586,59.0,0.0,150.0,13.0,0.0
12587,87.0,0.0,150.0,0.0,0.0
12588,71.0,0.0,150.0,1.0,0.0
12589,75.0,42.0,150.0,1.0,0.0
12590,51.0,0.0,150.0,2.0,0.0
12591,59.0,0.0,150.0,4.0,0.0
12592,63.0,0.0,90.0,11.0,0.0
12593,66.0,18.0,90.0,10.0,0.0
12594,54.0,120.0,90.0,11.0,0.0
12595,58.0,0.0,150.0,2.0,0.0
12596,49.0,42.0,150.0,2.0,0.0
12597,85.0,0.0,150.0,0.0,0.0
12598,66.0,0.0,150.0,4.0,0.0
12599,54.0,0.0,150.0,4.0,0.0
12600,42.0,12.0,390.0,5.0,0.0
12601,70.0,0.0,150.0,1.0,0.0
12602,61.0,0.0,150.0,3.0,0.0
12603,54.0,0.0,150.0,3.0,0.0
12604,54.0,0.0,90.0,11.0,0.0
12605,64.0,24.0,90.0,11.0,0.0
12606,73.0,0.0,150.0,1.0,0.0
12607,30.0,0.0,150.0,14.0,0.0
12608,54.0,0.0,150.0,12.0,0.0
12609,78.0,36.0,120.0,10.0,0.0
12610,42.0,0.0,150.0,13.0,0.0
12611,76.0,18.0,90.0,10.0,0.0
12612,64.0,0.0,90.0,11.0,0.0
12613,54.0,102.0,90.0,11.0,0.0
12614,54.0,0.0,150.0,4.0,0.0
12615,66.0,0.0,150.0,12.0,0.0
12616,61.0,0.0,150.0,2.0,0.0
12617,52.0,0.0,150.0,2.0,0.0
12618,82.0,0.0,150.0,0.0,0.0
12619,66.0,0.0,150.0,4.0,0.0
12620,64.0,48.0,90.0,11.0,0.0
12621,54.0,0.0,150.0,3.0,0.0
12622,75.0,18.0,90.0,10.0,0.0
12623,54.0,0.0,90.0,11.0,0.0
12624,54.0,0.0,150.0,13.0,0.0
12625,42.0,0.0,150.0,14.0,0.0
12626,73.0,42.0,150.0,1.0,0.0
12627,76.0,0.0,150.0,1.0,0.0
12628,61.0,0.0,150.0,3.0,0.0
12629,64.0,0.0,90.0,11.0,0.0
12630,54.0,408.0,90.0,11.0,0.0
12631,70.0,18.0,90.0,10.0,0.0
12632,66.0,0.0,390.0,4.0,0.0
12633,54.0,0.0,390.0,11.0,0.0
12634,47.0,0.0,390.0,5.0,0.0
12635,51.0,0.0,390.0,2.0,0.0
12636,59.0,0.0,390.0,2.0,0.0
12637,63.0,0.0,390.0,11.0,0.0
12638,51.0,414.0,390.0,3.0,0.0
12639,59.0,0.0,390.0,3.0,0.0
12640,35.0,0.0,390.0,14.0,0.0
12641,47.0,0.0,390.0,13.0,0.0
12642,71.0,0.0,390.0,10.0,0.0
12643,59.0,0.0,390.0,12.0,0.0
12644,83.0,0.0,390.0,0.0,0.0
12645,71.0,0.0,390.0,1.0,0.0
12646,75.0,0.0,390.0,1.0,0.0
12647,59.0,0.0,390.0,4.0,0.0
12648,63.0,0.0,90.0,11.0,0.0
12649,27.0,0.0,90.0,14.0,0.0
12650,51.0,120.0,90.0,12.0,0.0
12651,39.0,0.0,90.0,13.0,0.0
12652,63.0,0.0,90.0,10.0,0.0
12653,52.0,0.0,90.0,12.0,0.0
12654,40.0,0.0,90.0,13.0,0.0
12655,64.0,162.0,90.0,11.0,0.0
12656,64.0,0.0,90.0,10.0,0.0
12657,28.0,0.0,90.0,14.0,0.0
12658,71.0,0.0,390.0,4.0,0.0
12659,63.0,0.0,150.0,2.0,0.0
12660,54.0,0.0,150.0,2.0,0.0
12661,30.0,0.0,120.0,14.0,0.0
12662,42.0,0.0,120.0,13.0,0.0
12663,83.0,0.0,150.0,0.0,0.0
12664,54.0,0.0,120.0,12.0,0.0
12665,59.0,0.0,390.0,4.0,0.0
12666,66.0,0.0,150.0,1.0,0.0
12667,66.0,0.0,120.0,11.0,0.0
12668,59.0,0.0,150.0,3.0,0.0
12669,47.0,0.0,150.0,3.0,0.0
12670,75.0,42.0,150.0,1.0,0.0
12671,47.0,12.0,390.0,5.0,0.0
12672,66.0,36.0,120.0,10.0,0.0
12673,52.0,0.0,90.0,12.0,0.0
12674,64.0,0.0,90.0,11.0,0.0
12675,28.0,0.0,90.0,14.0,0.0
12676,64.0,120.0,90.0,10.0,0.0
12677,40.0,0.0,90.0,13.0,0.0
12678,47.0,0.0,150.0,3.0,0.0
12679,54.0,0.0,150.0,2.0,0.0
12680,63.0,0.0,150.0,2.0,0.0
12681,59.0,0.0,150.0,3.0,0.0
12682,66.0,42.0,150.0,1.0,0.0
12683,63.0,0.0,90.0,11.0,0.0
12684,83.0,0.0,150.0,0.0,0.0
12685,75.0,0.0,150.0,1.0,0.0
12686,51.0,0.0,90.0,12.0,0.0
12687,39.0,0.0,90.0,13.0,0.0
12688,27.0,66.0,90.0,14.0,0.0
12689,63.0,0.0,90.0,10.0,0.0
12690,61.0,0.0,90.0,11.0,0.0
12691,61.0,198.0,90.0,10.0,0.0
12692,49.0,0.0,90.0,12.0,0.0
12693,25.0,0.0,90.0,14.0,0.0
12694,37.0,0.0,90.0,13.0,0.0
12695,75.0,0.0,150.0,1.0,0.0
12696,47.0,0.0,150.0,3.0,0.0
12697,63.0,0.0,150.0,2.0,0.0
12698,35.0,0.0,150.0,13.0,0.0
12699,83.0,0.0,150.0,0.0,0.0
12700,66.0,0.0,150.0,1.0,0.0
12701,59.0,0.0,150.0,10.0,0.0
12702,47.0,0.0,150.0,12.0,0.0
12703,59.0,0.0,150.0,3.0,0.0
12704,59.0,162.0,150.0,11.0,0.0
12705,35.0,0.0,150.0,14.0,0.0
12706,54.0,0.0,150.0,2.0,0.0
12707,39.0,0.0,90.0,14.0,0.0
12708,75.0,0.0,90.0,11.0,0.0
12709,75.0,0.0,90.0,10.0,0.0
12710,63.0,0.0,90.0,12.0,0.0
12711,51.0,120.0,90.0,13.0,0.0
12712,52.0,162.0,90.0,13.0,0.0
12713,40.0,0.0,90.0,14.0,0.0
12714,76.0,0.0,90.0,10.0,0.0
12715,76.0,0.0,90.0,11.0,0.0
12716,64.0,0.0,90.0,12.0,0.0
12717,54.0,0.0,120.0,13.0,0.0
12718,71.0,0.0,390.0,4.0,0.0
12719,59.0,0.0,150.0,3.0,0.0
12720,78.0,0.0,120.0,11.0,0.0
12721,47.0,0.0,150.0,3.0,0.0
12722,66.0,0.0,150.0,1.0,0.0
12723,42.0,0.0,120.0,14.0,0.0
12724,63.0,0.0,150.0,2.0,0.0
12725,54.0,0.0,150.0,2.0,0.0
12726,75.0,0.0,150.0,1.0,0.0
12727,59.0,0.0,390.0,4.0,0.0
12728,83.0,42.0,150.0,0.0,0.0
12729,47.0,12.0,390.0,5.0,0.0
12730,66.0,36.0,120.0,12.0,0.0
12731,78.0,0.0,120.0,10.0,0.0
12732,40.0,0.0,90.0,14.0,0.0
12733,76.0,0.0,90.0,11.0,0.0
12734,76.0,0.0,90.0,10.0,0.0
12735,52.0,0.0,90.0,13.0,0.0
12736,64.0,120.0,90.0,12.0,0.0
12737,75.0,0.0,150.0,1.0,0.0
12738,66.0,0.0,150.0,1.0,0.0
12739,59.0,0.0,150.0,3.0,0.0
12740,83.0,0.0,150.0,0.0,0.0
12741,51.0,0.0,90.0,13.0,0.0
12742,75.0,0.0,90.0,11.0,0.0
12743,39.0,0.0,90.0,14.0,0.0
12744,75.0,0.0,90.0,10.0,0.0
12745,63.0,66.0,90.0,12.0,0.0
12746,47.0,42.0,150.0,3.0,0.0
12747,54.0,0.0,150.0,2.0,0.0
12748,63.0,0.0,150.0,2.0,0.0
12749,61.0,0.0,90.0,12.0,0.0
12750,49.0,0.0,90.0,13.0,0.0
12751,37.0,198.0,90.0,14.0,0.0
12752,73.0,0.0,90.0,11.0,0.0
12753,73.0,0.0,90.0,10.0,0.0
12754,35.0,0.0,150.0,14.0,0.0
12755,71.0,2988.0,180.0,10.0,0.0
12756,63.0,0.0,150.0,2.0,0.0
12757,75.0,0.0,150.0,1.0,0.0
12758,71.0,0.0,180.0,11.0,0.0
12759,47.0,0.0,150.0,3.0,0.0
12760,59.0,0.0,150.0,3.0,0.0
12761,47.0,0.0,150.0,13.0,0.0
12762,59.0,0.0,150.0,12.0,0.0
12763,83.0,0.0,150.0,0.0,0.0
12764,54.0,0.0,150.0,2.0,0.0
12765,66.0,24.0,150.0,1.0,0.0
12766,23.0,0.0,780.0,14.0,0.0
