,note,step,duration,channel,velocity
0,46.0,0.0,780.0,13.0,0.0
1,34.0,336.0,780.0,14.0,0.0
2,58.0,432.0,180.0,10.0,0.0
3,53.0,0.0,180.0,11.0,0.0
4,49.0,0.0,180.0,12.0,0.0
5,58.0,0.0,390.0,10.0,0.0
6,53.0,144.0,390.0,11.0,0.0
7,49.0,0.0,390.0,12.0,0.0
8,49.0,480.0,390.0,12.0,0.0
9,53.0,0.0,390.0,11.0,0.0
10,58.0,0.0,390.0,10.0,0.0
11,58.0,0.0,390.0,10.0,0.0
12,53.0,0.0,390.0,11.0,0.0
13,49.0,176.0,390.0,12.0,0.0
14,29.0,0.0,90.0,14.0,0.0
15,53.0,0.0,420.0,11.0,0.0
16,58.0,432.0,420.0,10.0,0.0
17,41.0,80.0,90.0,13.0,0.0
18,49.0,0.0,420.0,12.0,0.0
19,31.0,80.0,90.0,14.0,0.0
20,43.0,0.0,90.0,13.0,0.0
21,45.0,0.0,90.0,13.0,0.0
22,33.0,192.0,90.0,14.0,0.0
23,34.0,336.0,780.0,14.0,0.0
24,46.0,0.0,780.0,13.0,0.0
25,49.0,144.0,390.0,12.0,0.0
26,53.0,0.0,390.0,11.0,0.0
27,58.0,0.0,390.0,10.0,0.0
28,49.0,480.0,390.0,12.0,0.0
29,53.0,0.0,390.0,11.0,0.0
30,58.0,0.0,390.0,10.0,0.0
31,53.0,0.0,390.0,11.0,0.0
32,49.0,176.0,390.0,12.0,0.0
33,58.0,0.0,390.0,10.0,0.0
34,58.0,0.0,420.0,10.0,0.0
35,53.0,0.0,420.0,11.0,0.0
36,41.0,0.0,90.0,13.0,0.0
37,29.0,80.0,90.0,14.0,0.0
38,49.0,432.0,420.0,12.0,0.0
39,43.0,80.0,90.0,13.0,0.0
40,31.0,0.0,90.0,14.0,0.0
41,45.0,192.0,90.0,13.0,0.0
42,33.0,0.0,90.0,14.0,0.0
43,34.0,0.0,780.0,14.0,0.0
44,46.0,336.0,780.0,13.0,0.0
45,53.0,0.0,390.0,11.0,0.0
46,49.0,0.0,390.0,12.0,0.0
47,53.0,144.0,390.0,10.0,0.0
48,46.0,480.0,390.0,12.0,0.0
49,61.0,0.0,390.0,10.0,0.0
50,53.0,0.0,390.0,11.0,0.0
51,48.0,0.0,390.0,12.0,0.0
52,53.0,0.0,390.0,11.0,0.0
53,60.0,156.0,390.0,10.0,0.0
54,41.0,0.0,60.0,13.0,0.0
55,53.0,0.0,420.0,11.0,0.0
56,29.0,60.0,60.0,14.0,0.0
57,49.0,0.0,240.0,12.0,0.0
58,58.0,432.0,420.0,10.0,0.0
59,43.0,60.0,60.0,13.0,0.0
60,31.0,0.0,60.0,14.0,0.0
61,45.0,60.0,60.0,13.0,0.0
62,33.0,0.0,60.0,14.0,0.0
63,34.0,0.0,60.0,14.0,0.0
64,46.0,192.0,60.0,13.0,0.0
65,48.0,336.0,780.0,13.0,0.0
66,36.0,0.0,780.0,14.0,0.0
67,51.0,0.0,180.0,12.0,0.0
68,57.0,0.0,390.0,10.0,0.0
69,51.0,144.0,390.0,12.0,0.0
70,53.0,0.0,390.0,11.0,0.0
71,57.0,0.0,390.0,10.0,0.0
72,51.0,480.0,390.0,12.0,0.0
73,53.0,0.0,390.0,11.0,0.0
74,57.0,528.0,390.0,10.0,0.0
75,51.0,0.0,390.0,12.0,0.0
76,53.0,0.0,390.0,11.0,0.0
77,51.0,0.0,420.0,12.0,0.0
78,59.0,432.0,420.0,10.0,0.0
79,53.0,0.0,420.0,11.0,0.0
80,33.0,336.0,780.0,14.0,0.0
81,45.0,0.0,780.0,13.0,0.0
82,51.0,0.0,390.0,12.0,0.0
83,60.0,0.0,390.0,10.0,0.0
84,53.0,144.0,390.0,11.0,0.0
85,53.0,0.0,390.0,11.0,0.0
86,60.0,0.0,390.0,10.0,0.0
87,51.0,480.0,390.0,12.0,0.0
88,60.0,216.0,390.0,10.0,0.0
89,51.0,0.0,390.0,12.0,0.0
90,53.0,0.0,390.0,11.0,0.0
91,60.0,432.0,420.0,10.0,0.0
92,41.0,120.0,120.0,13.0,0.0
93,51.0,0.0,420.0,12.0,0.0
94,53.0,0.0,420.0,11.0,0.0
95,29.0,0.0,120.0,14.0,0.0
96,31.0,0.0,120.0,14.0,0.0
97,43.0,192.0,120.0,13.0,0.0
98,33.0,336.0,780.0,14.0,0.0
99,45.0,0.0,780.0,13.0,0.0
100,53.0,0.0,390.0,11.0,0.0
101,51.0,144.0,390.0,12.0,0.0
102,60.0,0.0,390.0,10.0,0.0
103,60.0,0.0,390.0,10.0,0.0
104,53.0,480.0,390.0,11.0,0.0
105,51.0,0.0,390.0,12.0,0.0
106,60.0,0.0,390.0,10.0,0.0
107,51.0,216.0,390.0,12.0,0.0
108,53.0,0.0,390.0,11.0,0.0
109,29.0,120.0,120.0,14.0,0.0
110,51.0,0.0,420.0,12.0,0.0
111,60.0,0.0,420.0,10.0,0.0
112,53.0,432.0,420.0,11.0,0.0
113,41.0,0.0,120.0,13.0,0.0
114,43.0,0.0,120.0,13.0,0.0
115,31.0,192.0,120.0,14.0,0.0
116,33.0,336.0,780.0,14.0,0.0
117,45.0,0.0,780.0,13.0,0.0
118,51.0,0.0,390.0,12.0,0.0
119,53.0,144.0,390.0,11.0,0.0
120,53.0,0.0,390.0,10.0,0.0
121,48.0,0.0,390.0,12.0,0.0
122,63.0,480.0,390.0,10.0,0.0
123,53.0,0.0,390.0,11.0,0.0
124,49.0,176.0,390.0,12.0,0.0
125,53.0,0.0,390.0,11.0,0.0
126,61.0,0.0,390.0,10.0,0.0
127,60.0,0.0,420.0,10.0,0.0
128,53.0,432.0,420.0,11.0,0.0
129,51.0,0.0,240.0,12.0,0.0
130,29.0,80.0,90.0,14.0,0.0
131,41.0,0.0,90.0,13.0,0.0
132,43.0,0.0,90.0,13.0,0.0
133,31.0,80.0,90.0,14.0,0.0
134,33.0,0.0,90.0,14.0,0.0
135,45.0,192.0,90.0,13.0,0.0
136,34.0,336.0,780.0,14.0,0.0
137,46.0,0.0,4740.0,3.0,0.0
138,58.0,192.0,4740.0,3.0,0.0
139,49.0,0.0,180.0,12.0,0.0
140,46.0,0.0,780.0,13.0,0.0
141,58.0,0.0,390.0,10.0,0.0
142,53.0,144.0,390.0,11.0,0.0
143,49.0,0.0,390.0,12.0,0.0
144,49.0,0.0,390.0,12.0,0.0
145,53.0,480.0,390.0,11.0,0.0
146,58.0,0.0,390.0,10.0,0.0
147,58.0,0.0,390.0,11.0,0.0
148,58.0,176.0,390.0,10.0,0.0
149,49.0,0.0,390.0,12.0,0.0
150,58.0,192.0,420.0,11.0,0.0
151,34.0,0.0,90.0,14.0,0.0
152,58.0,192.0,240.0,10.0,0.0
153,46.0,80.0,90.0,13.0,0.0
154,53.0,0.0,240.0,12.0,0.0
155,36.0,0.0,90.0,14.0,0.0
156,48.0,80.0,90.0,13.0,0.0
157,49.0,0.0,90.0,13.0,0.0
158,37.0,0.0,90.0,14.0,0.0
159,51.0,240.0,390.0,13.0,0.0
160,54.0,0.0,180.0,12.0,0.0
161,39.0,0.0,390.0,14.0,0.0
162,61.0,0.0,180.0,10.0,0.0
163,54.0,0.0,390.0,12.0,0.0
164,58.0,0.0,390.0,11.0,0.0
165,60.0,160.0,390.0,10.0,0.0
166,48.0,0.0,60.0,13.0,0.0
167,36.0,80.0,60.0,14.0,0.0
168,60.0,144.0,240.0,10.0,0.0
169,58.0,48.0,390.0,11.0,0.0
170,54.0,0.0,240.0,12.0,0.0
171,49.0,0.0,60.0,13.0,0.0
172,37.0,80.0,60.0,14.0,0.0
173,51.0,16.0,60.0,13.0,0.0
174,39.0,0.0,60.0,14.0,0.0
175,63.0,0.0,180.0,10.0,0.0
176,41.0,0.0,390.0,14.0,0.0
177,56.0,192.0,180.0,12.0,0.0
178,53.0,240.0,390.0,13.0,0.0
179,56.0,0.0,390.0,12.0,0.0
180,62.0,0.0,390.0,10.0,0.0
181,58.0,160.0,390.0,11.0,0.0
182,50.0,0.0,60.0,13.0,0.0
183,56.0,192.0,240.0,12.0,0.0
184,58.0,0.0,1020.0,11.0,0.0
185,38.0,80.0,60.0,14.0,0.0
186,62.0,0.0,240.0,10.0,0.0
187,39.0,80.0,60.0,14.0,0.0
188,51.0,0.0,60.0,13.0,0.0
189,53.0,16.0,60.0,13.0,0.0
190,41.0,0.0,60.0,14.0,0.0
191,65.0,432.0,180.0,10.0,0.0
192,42.0,0.0,780.0,14.0,0.0
193,54.0,144.0,780.0,12.0,0.0
194,54.0,0.0,780.0,13.0,0.0
195,63.0,144.0,390.0,10.0,0.0
196,63.0,480.0,390.0,10.0,0.0
197,60.0,192.0,3780.0,2.0,0.0
198,48.0,0.0,3780.0,2.0,0.0
199,60.0,0.0,390.0,10.0,0.0
200,60.0,176.0,390.0,11.0,0.0
201,48.0,0.0,90.0,13.0,0.0
202,60.0,0.0,240.0,10.0,0.0
203,60.0,0.0,420.0,11.0,0.0
204,36.0,80.0,90.0,14.0,0.0
205,50.0,0.0,90.0,13.0,0.0
206,38.0,80.0,90.0,14.0,0.0
207,51.0,0.0,90.0,13.0,0.0
208,39.0,192.0,90.0,14.0,0.0
209,41.0,240.0,390.0,14.0,0.0
210,53.0,0.0,390.0,13.0,0.0
211,63.0,192.0,180.0,10.0,0.0
212,56.0,0.0,180.0,12.0,0.0
213,56.0,0.0,390.0,12.0,0.0
214,60.0,176.0,390.0,11.0,0.0
215,62.0,0.0,390.0,10.0,0.0
216,60.0,48.0,390.0,11.0,0.0
217,56.0,144.0,240.0,12.0,0.0
218,50.0,0.0,90.0,13.0,0.0
219,62.0,0.0,240.0,10.0,0.0
220,38.0,80.0,90.0,14.0,0.0
221,51.0,0.0,90.0,13.0,0.0
222,39.0,80.0,90.0,14.0,0.0
223,53.0,0.0,90.0,13.0,0.0
224,41.0,0.0,90.0,14.0,0.0
225,54.0,0.0,390.0,13.0,0.0
226,42.0,240.0,390.0,14.0,0.0
227,58.0,192.0,180.0,12.0,0.0
228,65.0,0.0,180.0,10.0,0.0
229,60.0,0.0,390.0,11.0,0.0
230,58.0,0.0,390.0,12.0,0.0
231,63.0,176.0,390.0,10.0,0.0
232,63.0,0.0,240.0,10.0,0.0
233,40.0,80.0,90.0,14.0,0.0
234,52.0,0.0,90.0,13.0,0.0
235,60.0,0.0,1020.0,11.0,0.0
236,58.0,0.0,240.0,12.0,0.0
237,53.0,0.0,90.0,13.0,0.0
238,41.0,80.0,90.0,14.0,0.0
239,42.0,192.0,90.0,14.0,0.0
240,54.0,0.0,90.0,13.0,0.0
241,56.0,0.0,780.0,13.0,0.0
242,44.0,144.0,780.0,14.0,0.0
243,67.0,432.0,180.0,10.0,0.0
244,56.0,0.0,780.0,12.0,0.0
245,65.0,144.0,390.0,10.0,0.0
246,65.0,480.0,390.0,10.0,0.0
247,77.0,0.0,3750.0,1.0,0.0
248,65.0,0.0,3270.0,1.0,0.0
249,65.0,0.0,390.0,11.0,0.0
250,65.0,176.0,390.0,10.0,0.0
251,41.0,0.0,90.0,14.0,0.0
252,65.0,0.0,240.0,10.0,0.0
253,53.0,80.0,90.0,13.0,0.0
254,65.0,192.0,420.0,11.0,0.0
255,43.0,0.0,90.0,14.0,0.0
256,55.0,80.0,90.0,13.0,0.0
257,44.0,192.0,90.0,14.0,0.0
258,56.0,0.0,90.0,13.0,0.0
259,46.0,0.0,390.0,14.0,0.0
260,58.0,240.0,390.0,13.0,0.0
261,68.0,0.0,180.0,10.0,0.0
262,61.0,0.0,180.0,12.0,0.0
263,67.0,0.0,390.0,10.0,0.0
264,61.0,176.0,390.0,12.0,0.0
265,65.0,0.0,390.0,11.0,0.0
266,65.0,48.0,390.0,11.0,0.0
267,67.0,0.0,240.0,10.0,0.0
268,55.0,80.0,90.0,13.0,0.0
269,43.0,0.0,90.0,14.0,0.0
270,61.0,0.0,240.0,12.0,0.0
271,44.0,0.0,90.0,14.0,0.0
272,56.0,80.0,90.0,13.0,0.0
273,58.0,0.0,90.0,13.0,0.0
274,46.0,144.0,90.0,14.0,0.0
275,63.0,0.0,180.0,12.0,0.0
276,70.0,192.0,180.0,10.0,0.0
277,48.0,0.0,390.0,14.0,0.0
278,60.0,240.0,390.0,13.0,0.0
279,69.0,0.0,390.0,10.0,0.0
280,65.0,0.0,390.0,11.0,0.0
281,63.0,176.0,390.0,12.0,0.0
282,65.0,48.0,180.0,11.0,0.0
283,69.0,0.0,180.0,10.0,0.0
284,57.0,80.0,90.0,13.0,0.0
285,63.0,192.0,240.0,12.0,0.0
286,45.0,0.0,90.0,14.0,0.0
287,58.0,0.0,90.0,13.0,0.0
288,46.0,32.0,90.0,14.0,0.0
289,60.0,0.0,90.0,13.0,0.0
290,48.0,0.0,90.0,14.0,0.0
291,61.0,0.0,390.0,13.0,0.0
292,49.0,0.0,390.0,14.0,0.0
293,61.0,240.0,390.0,12.0,0.0
294,72.0,0.0,180.0,10.0,0.0
295,65.0,192.0,180.0,11.0,0.0
296,70.0,0.0,390.0,10.0,0.0
297,65.0,240.0,390.0,11.0,0.0
298,37.0,0.0,390.0,14.0,0.0
299,58.0,96.0,780.0,12.0,0.0
300,82.0,0.0,390.0,0.0,0.0
301,49.0,48.0,390.0,13.0,0.0
302,65.0,192.0,180.0,11.0,0.0
303,70.0,48.0,390.0,10.0,0.0
304,82.0,0.0,180.0,0.0,0.0
305,51.0,240.0,390.0,13.0,0.0
306,66.0,0.0,180.0,11.0,0.0
307,39.0,0.0,390.0,14.0,0.0
308,78.0,96.0,180.0,1.0,0.0
309,77.0,0.0,390.0,1.0,0.0
310,80.0,0.0,390.0,0.0,0.0
311,68.0,0.0,390.0,10.0,0.0
312,65.0,240.0,390.0,11.0,0.0
313,51.0,288.0,390.0,13.0,0.0
314,58.0,0.0,870.0,12.0,0.0
315,39.0,0.0,390.0,14.0,0.0
316,66.0,0.0,420.0,10.0,0.0
317,78.0,192.0,420.0,0.0,0.0
318,63.0,0.0,420.0,11.0,0.0
319,75.0,0.0,420.0,1.0,0.0
320,53.0,240.0,390.0,13.0,0.0
321,41.0,0.0,390.0,14.0,0.0
322,61.0,240.0,390.0,11.0,0.0
323,73.0,0.0,390.0,1.0,0.0
324,77.0,0.0,390.0,0.0,0.0
325,65.0,0.0,390.0,10.0,0.0
326,41.0,0.0,390.0,14.0,0.0
327,53.0,0.0,390.0,13.0,0.0
328,53.0,240.0,390.0,12.0,0.0
329,63.0,0.0,390.0,10.0,0.0
330,75.0,0.0,390.0,0.0,0.0
331,72.0,240.0,390.0,1.0,0.0
332,60.0,0.0,390.0,11.0,0.0
333,53.0,0.0,390.0,13.0,0.0
334,41.0,240.0,390.0,14.0,0.0
335,53.0,0.0,390.0,12.0,0.0
336,61.0,176.0,390.0,10.0,0.0
337,73.0,0.0,390.0,0.0,0.0
338,70.0,0.0,390.0,1.0,0.0
339,58.0,0.0,390.0,11.0,0.0
340,53.0,16.0,390.0,12.0,0.0
341,29.0,64.0,90.0,14.0,0.0
342,60.0,0.0,180.0,10.0,0.0
343,69.0,24.0,180.0,1.0,0.0
344,41.0,0.0,90.0,13.0,0.0
345,72.0,0.0,180.0,0.0,0.0
346,57.0,0.0,180.0,11.0,0.0
347,31.0,32.0,90.0,14.0,0.0
348,43.0,0.0,90.0,13.0,0.0
349,53.0,0.0,90.0,3.0,0.0
350,41.0,24.0,90.0,3.0,0.0
351,33.0,96.0,90.0,14.0,0.0
352,45.0,0.0,90.0,13.0,0.0
353,46.0,0.0,5670.0,2.0,0.0
354,58.0,0.0,1830.0,1.0,0.0
355,70.0,16.0,1830.0,1.0,0.0
356,46.0,0.0,780.0,13.0,0.0
357,70.0,0.0,1830.0,0.0,0.0
358,49.0,0.0,90.0,12.0,0.0
359,34.0,36.0,5670.0,2.0,0.0
360,70.0,0.0,390.0,4.0,0.0
361,58.0,0.0,390.0,4.0,0.0
362,34.0,0.0,780.0,14.0,0.0
363,58.0,120.0,90.0,11.0,0.0
364,46.0,32.0,780.0,3.0,0.0
365,58.0,0.0,780.0,3.0,0.0
366,58.0,0.0,390.0,10.0,0.0
367,46.0,72.0,390.0,5.0,0.0
368,53.0,120.0,90.0,11.0,0.0
369,49.0,0.0,90.0,12.0,0.0
370,49.0,0.0,90.0,12.0,0.0
371,53.0,48.0,90.0,11.0,0.0
372,49.0,0.0,90.0,12.0,0.0
373,53.0,120.0,90.0,11.0,0.0
374,49.0,120.0,90.0,12.0,0.0
375,53.0,0.0,90.0,11.0,0.0
376,53.0,0.0,90.0,11.0,0.0
377,49.0,72.0,90.0,12.0,0.0
378,53.0,64.0,90.0,11.0,0.0
379,49.0,0.0,90.0,12.0,0.0
380,53.0,16.0,90.0,10.0,0.0
381,55.0,56.0,90.0,10.0,0.0
382,49.0,0.0,90.0,12.0,0.0
383,53.0,24.0,90.0,11.0,0.0
384,57.0,96.0,90.0,10.0,0.0
385,58.0,96.0,480.0,10.0,0.0
386,49.0,0.0,90.0,12.0,0.0
387,53.0,120.0,90.0,11.0,0.0
388,49.0,120.0,90.0,12.0,0.0
389,53.0,0.0,90.0,11.0,0.0
390,49.0,0.0,90.0,12.0,0.0
391,53.0,120.0,90.0,11.0,0.0
392,53.0,24.0,90.0,11.0,0.0
393,49.0,0.0,90.0,12.0,0.0
394,49.0,120.0,90.0,12.0,0.0
395,53.0,0.0,90.0,11.0,0.0
396,53.0,0.0,90.0,11.0,0.0
397,49.0,104.0,90.0,12.0,0.0
398,53.0,0.0,90.0,11.0,0.0
399,49.0,48.0,90.0,12.0,0.0
400,53.0,16.0,90.0,13.0,0.0
401,41.0,0.0,90.0,14.0,0.0
402,55.0,0.0,90.0,13.0,0.0
403,43.0,56.0,90.0,14.0,0.0
404,41.0,0.0,90.0,3.0,0.0
405,49.0,0.0,90.0,12.0,0.0
406,53.0,0.0,90.0,11.0,0.0
407,53.0,24.0,90.0,3.0,0.0
408,57.0,0.0,90.0,13.0,0.0
409,45.0,96.0,90.0,14.0,0.0
410,46.0,0.0,780.0,14.0,0.0
411,58.0,0.0,390.0,4.0,0.0
412,58.0,0.0,780.0,13.0,0.0
413,49.0,0.0,90.0,12.0,0.0
414,82.0,0.0,2220.0,0.0,0.0
415,77.0,24.0,2220.0,1.0,0.0
416,46.0,0.0,390.0,5.0,0.0
417,46.0,0.0,780.0,3.0,0.0
418,53.0,120.0,90.0,11.0,0.0
419,73.0,0.0,2220.0,1.0,0.0
420,58.0,32.0,780.0,3.0,0.0
421,70.0,72.0,390.0,4.0,0.0
422,49.0,120.0,90.0,12.0,0.0
423,53.0,0.0,90.0,11.0,0.0
424,49.0,48.0,90.0,12.0,0.0
425,53.0,0.0,90.0,11.0,0.0
426,49.0,0.0,90.0,12.0,0.0
427,53.0,120.0,90.0,11.0,0.0
428,49.0,0.0,90.0,12.0,0.0
429,53.0,120.0,90.0,11.0,0.0
430,49.0,72.0,90.0,12.0,0.0
431,53.0,0.0,90.0,11.0,0.0
432,65.0,16.0,90.0,10.0,0.0
433,53.0,64.0,90.0,11.0,0.0
434,49.0,0.0,90.0,12.0,0.0
435,67.0,56.0,90.0,10.0,0.0
436,49.0,0.0,90.0,12.0,0.0
437,53.0,24.0,90.0,11.0,0.0
438,69.0,96.0,90.0,10.0,0.0
439,53.0,120.0,90.0,11.0,0.0
440,70.0,72.0,390.0,10.0,0.0
441,49.0,0.0,90.0,12.0,0.0
442,53.0,120.0,90.0,11.0,0.0
443,49.0,0.0,90.0,12.0,0.0
444,49.0,0.0,90.0,12.0,0.0
445,53.0,48.0,90.0,11.0,0.0
446,53.0,0.0,90.0,11.0,0.0
447,49.0,120.0,90.0,12.0,0.0
448,53.0,0.0,90.0,11.0,0.0
449,49.0,120.0,90.0,12.0,0.0
450,53.0,0.0,90.0,11.0,0.0
451,49.0,104.0,90.0,12.0,0.0
452,77.0,16.0,90.0,10.0,0.0
453,53.0,0.0,90.0,11.0,0.0
454,49.0,64.0,90.0,12.0,0.0
455,79.0,56.0,90.0,10.0,0.0
456,53.0,0.0,90.0,11.0,0.0
457,49.0,24.0,90.0,12.0,0.0
458,41.0,0.0,90.0,3.0,0.0
459,53.0,0.0,90.0,3.0,0.0
460,81.0,96.0,90.0,10.0,0.0
461,58.0,72.0,390.0,3.0,0.0
462,82.0,0.0,300.0,10.0,0.0
463,53.0,0.0,90.0,11.0,0.0
464,49.0,120.0,90.0,12.0,0.0
465,46.0,0.0,390.0,3.0,0.0
466,53.0,0.0,90.0,11.0,0.0
467,49.0,96.0,90.0,12.0,0.0
468,53.0,0.0,90.0,11.0,0.0
469,49.0,48.0,90.0,12.0,0.0
470,49.0,120.0,90.0,12.0,0.0
471,53.0,0.0,90.0,11.0,0.0
472,65.0,0.0,300.0,10.0,0.0
473,53.0,120.0,90.0,11.0,0.0
474,46.0,0.0,390.0,3.0,0.0
475,49.0,0.0,90.0,12.0,0.0
476,58.0,72.0,390.0,3.0,0.0
477,77.0,0.0,300.0,1.0,0.0
478,77.0,24.0,300.0,0.0,0.0
479,49.0,0.0,90.0,12.0,0.0
480,53.0,96.0,90.0,11.0,0.0
481,53.0,48.0,90.0,11.0,0.0
482,49.0,0.0,90.0,12.0,0.0
483,53.0,0.0,90.0,11.0,0.0
484,49.0,120.0,90.0,12.0,0.0
485,49.0,0.0,90.0,12.0,0.0
486,58.0,0.0,390.0,3.0,0.0
487,85.0,0.0,300.0,0.0,0.0
488,61.0,24.0,300.0,10.0,0.0
489,53.0,120.0,90.0,11.0,0.0
490,73.0,0.0,300.0,1.0,0.0
491,46.0,72.0,390.0,3.0,0.0
492,49.0,0.0,90.0,12.0,0.0
493,53.0,96.0,90.0,11.0,0.0
494,53.0,48.0,90.0,11.0,0.0
495,49.0,0.0,90.0,12.0,0.0
496,53.0,120.0,90.0,11.0,0.0
497,49.0,0.0,90.0,12.0,0.0
498,58.0,24.0,300.0,10.0,0.0
499,49.0,120.0,90.0,12.0,0.0
500,46.0,0.0,390.0,3.0,0.0
501,70.0,0.0,300.0,1.0,0.0
502,53.0,0.0,90.0,11.0,0.0
503,82.0,0.0,300.0,0.0,0.0
504,58.0,0.0,390.0,3.0,0.0
505,49.0,84.0,90.0,12.0,0.0
506,53.0,0.0,90.0,11.0,0.0
507,41.0,0.0,60.0,14.0,0.0
508,53.0,12.0,60.0,13.0,0.0
509,49.0,24.0,90.0,12.0,0.0
510,53.0,0.0,90.0,11.0,0.0
511,55.0,0.0,60.0,13.0,0.0
512,43.0,24.0,60.0,14.0,0.0
513,53.0,24.0,90.0,11.0,0.0
514,45.0,0.0,60.0,14.0,0.0
515,57.0,36.0,60.0,13.0,0.0
516,49.0,0.0,90.0,12.0,0.0
517,46.0,0.0,60.0,14.0,0.0
518,58.0,96.0,60.0,13.0,0.0
519,51.0,120.0,90.0,12.0,0.0
520,48.0,0.0,300.0,14.0,0.0
521,60.0,96.0,1920.0,3.0,0.0
522,54.0,0.0,90.0,11.0,0.0
523,57.0,24.0,780.0,10.0,0.0
524,36.0,36.0,1830.0,2.0,0.0
525,69.0,0.0,780.0,1.0,0.0
526,60.0,24.0,300.0,13.0,0.0
527,48.0,0.0,1830.0,2.0,0.0
528,81.0,0.0,780.0,0.0,0.0
529,54.0,0.0,90.0,11.0,0.0
530,51.0,96.0,90.0,12.0,0.0
531,51.0,120.0,90.0,12.0,0.0
532,54.0,0.0,90.0,11.0,0.0
533,51.0,0.0,90.0,12.0,0.0
534,54.0,120.0,90.0,11.0,0.0
535,54.0,120.0,90.0,11.0,0.0
536,45.0,24.0,300.0,14.0,0.0
537,51.0,0.0,90.0,12.0,0.0
538,57.0,0.0,300.0,13.0,0.0
539,51.0,72.0,90.0,12.0,0.0
540,54.0,0.0,90.0,11.0,0.0
541,54.0,0.0,90.0,11.0,0.0
542,51.0,120.0,90.0,12.0,0.0
543,54.0,120.0,90.0,11.0,0.0
544,51.0,0.0,90.0,12.0,0.0
545,54.0,0.0,90.0,11.0,0.0
546,39.0,24.0,300.0,14.0,0.0
547,51.0,0.0,300.0,13.0,0.0
548,51.0,120.0,90.0,12.0,0.0
549,51.0,0.0,90.0,12.0,0.0
550,54.0,96.0,90.0,11.0,0.0
551,54.0,120.0,90.0,11.0,0.0
552,51.0,0.0,90.0,12.0,0.0
553,54.0,120.0,90.0,11.0,0.0
554,51.0,0.0,90.0,12.0,0.0
555,36.0,24.0,300.0,14.0,0.0
556,48.0,0.0,300.0,13.0,0.0
557,54.0,0.0,90.0,11.0,0.0
558,51.0,120.0,90.0,12.0,0.0
559,51.0,0.0,90.0,12.0,0.0
560,54.0,84.0,90.0,11.0,0.0
561,51.0,24.0,90.0,12.0,0.0
562,54.0,0.0,90.0,11.0,0.0
563,72.0,12.0,60.0,10.0,0.0
564,73.0,24.0,60.0,10.0,0.0
565,54.0,24.0,90.0,11.0,0.0
566,51.0,0.0,90.0,12.0,0.0
567,75.0,36.0,60.0,10.0,0.0
568,77.0,0.0,60.0,10.0,0.0
569,49.0,0.0,90.0,12.0,0.0
570,46.0,0.0,780.0,13.0,0.0
571,78.0,0.0,300.0,10.0,0.0
572,46.0,0.0,300.0,3.0,0.0
573,34.0,24.0,780.0,14.0,0.0
574,58.0,24.0,300.0,3.0,0.0
575,54.0,120.0,90.0,11.0,0.0
576,46.0,16.0,1830.0,2.0,0.0
577,34.0,0.0,1830.0,2.0,0.0
578,49.0,0.0,90.0,12.0,0.0
579,54.0,96.0,90.0,11.0,0.0
580,49.0,0.0,90.0,12.0,0.0
581,54.0,120.0,90.0,11.0,0.0
582,54.0,0.0,90.0,11.0,0.0
583,49.0,120.0,90.0,12.0,0.0
584,61.0,0.0,300.0,10.0,0.0
585,85.0,0.0,300.0,0.0,0.0
586,58.0,24.0,300.0,3.0,0.0
587,73.0,0.0,300.0,1.0,0.0
588,54.0,120.0,90.0,11.0,0.0
589,46.0,0.0,300.0,3.0,0.0
590,49.0,0.0,90.0,12.0,0.0
591,49.0,72.0,90.0,12.0,0.0
592,54.0,0.0,90.0,11.0,0.0
593,54.0,120.0,90.0,11.0,0.0
594,49.0,0.0,90.0,12.0,0.0
595,54.0,0.0,90.0,11.0,0.0
596,49.0,120.0,90.0,12.0,0.0
597,70.0,0.0,300.0,1.0,0.0
598,58.0,0.0,300.0,10.0,0.0
599,82.0,0.0,300.0,0.0,0.0
600,82.0,0.0,300.0,1.0,0.0
601,54.0,0.0,90.0,11.0,0.0
602,58.0,24.0,300.0,3.0,0.0
603,46.0,0.0,300.0,3.0,0.0
604,49.0,120.0,90.0,12.0,0.0
605,49.0,0.0,90.0,12.0,0.0
606,54.0,96.0,90.0,11.0,0.0
607,49.0,0.0,90.0,12.0,0.0
608,54.0,120.0,90.0,11.0,0.0
609,54.0,120.0,90.0,11.0,0.0
610,49.0,0.0,90.0,12.0,0.0
611,78.0,0.0,300.0,1.0,0.0
612,66.0,0.0,300.0,1.0,0.0
613,54.0,0.0,300.0,10.0,0.0
614,78.0,0.0,300.0,0.0,0.0
615,54.0,120.0,90.0,11.0,0.0
616,46.0,0.0,300.0,3.0,0.0
617,49.0,0.0,90.0,12.0,0.0
618,58.0,8.0,300.0,3.0,0.0
619,49.0,96.0,90.0,12.0,0.0
620,54.0,0.0,90.0,11.0,0.0
621,49.0,0.0,90.0,14.0,0.0
622,61.0,16.0,90.0,13.0,0.0
623,54.0,0.0,90.0,11.0,0.0
624,49.0,48.0,90.0,12.0,0.0
625,48.0,0.0,90.0,14.0,0.0
626,60.0,56.0,90.0,13.0,0.0
627,54.0,24.0,90.0,11.0,0.0
628,49.0,0.0,90.0,12.0,0.0
629,46.0,384.0,90.0,14.0,0.0
630,58.0,0.0,90.0,13.0,0.0
631,41.0,0.0,390.0,5.0,0.0
632,53.0,240.0,720.0,11.0,0.0
633,48.0,0.0,720.0,12.0,0.0
634,45.0,0.0,720.0,2.0,0.0
635,65.0,0.0,720.0,1.0,0.0
636,77.0,0.0,720.0,1.0,0.0
637,45.0,0.0,720.0,14.0,0.0
638,53.0,0.0,390.0,4.0,0.0
639,65.0,0.0,390.0,4.0,0.0
640,77.0,0.0,720.0,0.0,0.0
641,41.0,336.0,390.0,3.0,0.0
642,57.0,0.0,720.0,13.0,0.0
643,53.0,0.0,720.0,10.0,0.0
644,53.0,0.0,390.0,3.0,0.0
645,54.0,240.0,240.0,10.0,0.0
646,58.0,0.0,240.0,13.0,0.0
647,46.0,0.0,240.0,2.0,0.0
648,49.0,0.0,240.0,12.0,0.0
649,46.0,0.0,240.0,14.0,0.0
650,78.0,0.0,240.0,1.0,0.0
651,66.0,0.0,240.0,1.0,0.0
652,54.0,0.0,240.0,11.0,0.0
653,78.0,0.0,240.0,0.0,0.0
654,65.0,240.0,240.0,1.0,0.0
655,53.0,0.0,240.0,11.0,0.0
656,77.0,0.0,240.0,0.0,0.0
657,45.0,0.0,240.0,2.0,0.0
658,53.0,0.0,240.0,10.0,0.0
659,57.0,0.0,240.0,13.0,0.0
660,48.0,0.0,240.0,12.0,0.0
661,77.0,0.0,240.0,1.0,0.0
662,45.0,0.0,240.0,14.0,0.0
663,52.0,0.0,240.0,11.0,0.0
664,76.0,0.0,240.0,1.0,0.0
665,46.0,0.0,240.0,14.0,0.0
666,58.0,0.0,240.0,13.0,0.0
667,49.0,240.0,240.0,12.0,0.0
668,64.0,0.0,240.0,1.0,0.0
669,46.0,0.0,240.0,2.0,0.0
670,52.0,0.0,240.0,10.0,0.0
671,76.0,0.0,240.0,0.0,0.0
672,57.0,0.0,240.0,13.0,0.0
673,53.0,192.0,240.0,11.0,0.0
674,65.0,0.0,240.0,1.0,0.0
675,45.0,0.0,240.0,2.0,0.0
676,77.0,0.0,240.0,0.0,0.0
677,53.0,0.0,240.0,10.0,0.0
678,45.0,0.0,240.0,14.0,0.0
679,48.0,0.0,240.0,12.0,0.0
680,77.0,0.0,240.0,1.0,0.0
681,46.0,0.0,180.0,14.0,0.0
682,76.0,0.0,240.0,1.0,0.0
683,49.0,0.0,180.0,12.0,0.0
684,76.0,0.0,240.0,0.0,0.0
685,52.0,0.0,240.0,10.0,0.0
686,52.0,0.0,240.0,11.0,0.0
687,46.0,0.0,240.0,2.0,0.0
688,64.0,396.0,240.0,1.0,0.0
689,58.0,36.0,180.0,13.0,0.0
690,45.0,0.0,720.0,2.0,0.0
691,48.0,0.0,720.0,12.0,0.0
692,53.0,0.0,390.0,4.0,0.0
693,53.0,0.0,390.0,3.0,0.0
694,57.0,240.0,720.0,13.0,0.0
695,77.0,0.0,720.0,0.0,0.0
696,53.0,0.0,720.0,10.0,0.0
697,53.0,0.0,720.0,11.0,0.0
698,41.0,336.0,390.0,3.0,0.0
699,41.0,0.0,390.0,5.0,0.0
700,65.0,0.0,720.0,1.0,0.0
701,65.0,0.0,390.0,4.0,0.0
702,77.0,0.0,720.0,1.0,0.0
703,45.0,0.0,720.0,14.0,0.0
704,54.0,240.0,240.0,11.0,0.0
705,46.0,0.0,240.0,2.0,0.0
706,78.0,0.0,240.0,0.0,0.0
707,49.0,0.0,240.0,12.0,0.0
708,54.0,0.0,240.0,10.0,0.0
709,58.0,0.0,240.0,13.0,0.0
710,66.0,0.0,240.0,1.0,0.0
711,78.0,0.0,240.0,1.0,0.0
712,46.0,0.0,240.0,14.0,0.0
713,53.0,240.0,240.0,11.0,0.0
714,77.0,0.0,240.0,0.0,0.0
715,48.0,0.0,240.0,12.0,0.0
716,45.0,0.0,240.0,14.0,0.0
717,57.0,0.0,240.0,13.0,0.0
718,53.0,0.0,240.0,10.0,0.0
719,65.0,0.0,240.0,1.0,0.0
720,45.0,0.0,240.0,2.0,0.0
721,77.0,0.0,240.0,1.0,0.0
722,58.0,0.0,240.0,13.0,0.0
723,64.0,0.0,240.0,1.0,0.0
724,76.0,0.0,240.0,1.0,0.0
725,76.0,0.0,240.0,0.0,0.0
726,52.0,0.0,240.0,10.0,0.0
727,49.0,240.0,240.0,12.0,0.0
728,52.0,0.0,240.0,11.0,0.0
729,46.0,0.0,240.0,14.0,0.0
730,46.0,0.0,240.0,2.0,0.0
731,45.0,0.0,240.0,14.0,0.0
732,77.0,0.0,240.0,1.0,0.0
733,77.0,0.0,240.0,0.0,0.0
734,57.0,0.0,240.0,13.0,0.0
735,45.0,0.0,240.0,2.0,0.0
736,65.0,0.0,240.0,1.0,0.0
737,53.0,0.0,240.0,11.0,0.0
738,53.0,192.0,240.0,10.0,0.0
739,48.0,0.0,240.0,12.0,0.0
740,52.0,0.0,240.0,10.0,0.0
741,46.0,0.0,240.0,2.0,0.0
742,76.0,168.0,240.0,0.0,0.0
743,58.0,36.0,180.0,13.0,0.0
744,64.0,0.0,240.0,1.0,0.0
745,49.0,0.0,180.0,12.0,0.0
746,76.0,0.0,240.0,1.0,0.0
747,46.0,0.0,180.0,14.0,0.0
748,52.0,0.0,240.0,11.0,0.0
749,65.0,0.0,390.0,4.0,0.0
750,53.0,0.0,150.0,11.0,0.0
751,45.0,336.0,390.0,2.0,0.0
752,53.0,0.0,390.0,3.0,0.0
753,45.0,0.0,390.0,14.0,0.0
754,41.0,0.0,390.0,5.0,0.0
755,41.0,0.0,390.0,3.0,0.0
756,65.0,0.0,390.0,1.0,0.0
757,57.0,0.0,390.0,13.0,0.0
758,53.0,228.0,150.0,10.0,0.0
759,77.0,0.0,390.0,0.0,0.0
760,77.0,0.0,390.0,1.0,0.0
761,53.0,0.0,390.0,4.0,0.0
762,48.0,0.0,390.0,12.0,0.0
763,57.0,0.0,480.0,11.0,0.0
764,60.0,156.0,480.0,10.0,0.0
765,55.0,240.0,150.0,11.0,0.0
766,58.0,0.0,150.0,10.0,0.0
767,53.0,564.0,150.0,11.0,0.0
768,57.0,0.0,150.0,10.0,0.0
769,60.0,0.0,480.0,11.0,0.0
770,63.0,156.0,480.0,10.0,0.0
771,58.0,0.0,150.0,11.0,0.0
772,61.0,240.0,150.0,10.0,0.0
773,60.0,0.0,150.0,10.0,0.0
774,57.0,564.0,150.0,11.0,0.0
775,69.0,156.0,480.0,1.0,0.0
776,66.0,0.0,480.0,10.0,0.0
777,72.0,0.0,480.0,1.0,0.0
778,63.0,0.0,480.0,11.0,0.0
779,65.0,0.0,150.0,10.0,0.0
780,61.0,240.0,150.0,11.0,0.0
781,73.0,0.0,150.0,1.0,0.0
782,70.0,0.0,150.0,1.0,0.0
783,63.0,0.0,150.0,10.0,0.0
784,60.0,0.0,150.0,11.0,0.0
785,75.0,564.0,150.0,1.0,0.0
786,72.0,0.0,150.0,1.0,0.0
787,60.0,0.0,480.0,2.0,0.0
788,63.0,0.0,480.0,2.0,0.0
789,75.0,0.0,480.0,10.0,0.0
790,72.0,156.0,480.0,11.0,0.0
791,61.0,0.0,180.0,2.0,0.0
792,58.0,192.0,180.0,2.0,0.0
793,77.0,36.0,150.0,10.0,0.0
794,73.0,0.0,150.0,11.0,0.0
795,57.0,0.0,1890.0,2.0,0.0
796,51.0,192.0,180.0,13.0,0.0
797,48.0,48.0,150.0,12.0,0.0
798,78.0,0.0,480.0,10.0,0.0
799,57.0,0.0,150.0,12.0,0.0
800,39.0,0.0,180.0,14.0,0.0
801,60.0,182.0,1890.0,2.0,0.0
802,75.0,144.0,480.0,11.0,0.0
803,51.0,0.0,150.0,12.0,0.0
804,60.0,96.0,150.0,12.0,0.0
805,75.0,192.0,180.0,10.0,0.0
806,42.0,0.0,180.0,14.0,0.0
807,54.0,0.0,180.0,13.0,0.0
808,72.0,0.0,180.0,11.0,0.0
809,57.0,48.0,150.0,12.0,0.0
810,48.0,0.0,150.0,12.0,0.0
811,60.0,240.0,150.0,12.0,0.0
812,51.0,0.0,150.0,12.0,0.0
813,78.0,0.0,480.0,1.0,0.0
814,48.0,48.0,150.0,12.0,0.0
815,57.0,0.0,180.0,13.0,0.0
816,45.0,192.0,180.0,14.0,0.0
817,57.0,0.0,150.0,12.0,0.0
818,51.0,96.0,150.0,12.0,0.0
819,60.0,0.0,150.0,12.0,0.0
820,48.0,0.0,180.0,14.0,0.0
821,48.0,48.0,150.0,12.0,0.0
822,75.0,144.0,15.0,1.0,0.0
823,57.0,0.0,150.0,12.0,0.0
824,60.0,0.0,180.0,13.0,0.0
825,69.0,0.0,180.0,10.0,0.0
826,72.0,0.0,180.0,1.0,0.0
827,66.0,192.0,180.0,11.0,0.0
828,51.0,58.0,150.0,12.0,0.0
829,60.0,0.0,150.0,12.0,0.0
830,73.0,144.0,480.0,11.0,0.0
831,77.0,0.0,480.0,10.0,0.0
832,58.0,182.0,1890.0,2.0,0.0
833,61.0,0.0,1890.0,2.0,0.0
834,37.0,0.0,180.0,14.0,0.0
835,49.0,48.0,150.0,12.0,0.0
836,58.0,0.0,150.0,12.0,0.0
837,49.0,192.0,180.0,13.0,0.0
838,53.0,0.0,150.0,12.0,0.0
839,61.0,96.0,150.0,12.0,0.0
840,58.0,48.0,150.0,12.0,0.0
841,53.0,192.0,180.0,13.0,0.0
842,41.0,0.0,180.0,14.0,0.0
843,70.0,0.0,180.0,11.0,0.0
844,73.0,0.0,180.0,10.0,0.0
845,49.0,0.0,150.0,12.0,0.0
846,61.0,240.0,150.0,12.0,0.0
847,53.0,0.0,150.0,12.0,0.0
848,46.0,0.0,180.0,14.0,0.0
849,49.0,0.0,150.0,12.0,0.0
850,58.0,48.0,150.0,12.0,0.0
851,73.0,144.0,480.0,1.0,0.0
852,77.0,0.0,480.0,1.0,0.0
853,58.0,192.0,180.0,13.0,0.0
854,53.0,0.0,150.0,12.0,0.0
855,61.0,96.0,150.0,12.0,0.0
856,58.0,48.0,150.0,12.0,0.0
857,49.0,0.0,150.0,12.0,0.0
858,70.0,0.0,180.0,1.0,0.0
859,65.0,0.0,180.0,10.0,0.0
860,73.0,0.0,180.0,1.0,0.0
861,61.0,192.0,180.0,11.0,0.0
862,61.0,0.0,180.0,13.0,0.0
863,49.0,0.0,180.0,14.0,0.0
864,53.0,58.0,150.0,12.0,0.0
865,61.0,0.0,150.0,12.0,0.0
866,75.0,0.0,180.0,10.0,0.0
867,72.0,0.0,180.0,11.0,0.0
868,45.0,0.0,180.0,14.0,0.0
869,51.0,0.0,960.0,2.0,0.0
870,60.0,144.0,960.0,2.0,0.0
871,63.0,0.0,150.0,12.0,0.0
872,60.0,48.0,150.0,12.0,0.0
873,57.0,192.0,180.0,13.0,0.0
874,53.0,0.0,150.0,12.0,0.0
875,60.0,240.0,150.0,12.0,0.0
876,60.0,0.0,150.0,12.0,0.0
877,63.0,48.0,150.0,12.0,0.0
878,72.0,192.0,180.0,1.0,0.0
879,75.0,0.0,180.0,1.0,0.0
880,53.0,96.0,150.0,12.0,0.0
881,60.0,0.0,150.0,12.0,0.0
882,61.0,48.0,150.0,12.0,0.0
883,49.0,144.0,900.0,2.0,0.0
884,58.0,0.0,150.0,12.0,0.0
885,58.0,0.0,900.0,2.0,0.0
886,46.0,0.0,180.0,14.0,0.0
887,58.0,0.0,180.0,13.0,0.0
888,73.0,192.0,180.0,10.0,0.0
889,70.0,0.0,180.0,11.0,0.0
890,58.0,0.0,150.0,12.0,0.0
891,53.0,240.0,150.0,12.0,0.0
892,58.0,48.0,150.0,12.0,0.0
893,70.0,192.0,180.0,1.0,0.0
894,73.0,0.0,180.0,1.0,0.0
895,61.0,0.0,150.0,12.0,0.0
896,53.0,48.0,150.0,12.0,0.0
897,58.0,0.0,150.0,12.0,0.0
898,48.0,24.0,300.0,2.0,0.0
899,57.0,0.0,300.0,2.0,0.0
900,53.0,0.0,300.0,3.0,0.0
901,41.0,12.0,390.0,5.0,0.0
902,65.0,0.0,390.0,10.0,0.0
903,72.0,0.0,390.0,10.0,0.0
904,69.0,0.0,300.0,1.0,0.0
905,72.0,0.0,300.0,1.0,0.0
906,65.0,60.0,90.0,12.0,0.0
907,65.0,0.0,300.0,4.0,0.0
908,41.0,60.0,150.0,14.0,0.0
909,53.0,0.0,390.0,11.0,0.0
910,69.0,0.0,390.0,11.0,0.0
911,60.0,0.0,390.0,11.0,0.0
912,53.0,0.0,150.0,13.0,0.0
913,81.0,0.0,300.0,0.0,0.0
914,65.0,96.0,90.0,12.0,0.0
915,40.0,60.0,150.0,14.0,0.0
916,52.0,0.0,150.0,13.0,0.0
917,64.0,48.0,90.0,12.0,0.0
918,64.0,120.0,90.0,12.0,0.0
919,53.0,60.0,150.0,13.0,0.0
920,60.0,0.0,240.0,2.0,0.0
921,57.0,0.0,240.0,2.0,0.0
922,65.0,102.0,240.0,4.0,0.0
923,53.0,0.0,240.0,3.0,0.0
924,41.0,0.0,150.0,14.0,0.0
925,65.0,60.0,90.0,12.0,0.0
926,81.0,0.0,240.0,0.0,0.0
927,72.0,0.0,240.0,1.0,0.0
928,69.0,0.0,240.0,1.0,0.0
929,65.0,18.0,90.0,12.0,0.0
930,66.0,60.0,90.0,12.0,0.0
931,54.0,0.0,150.0,13.0,0.0
932,42.0,42.0,150.0,14.0,0.0
933,53.0,0.0,90.0,3.0,0.0
934,81.0,18.0,90.0,0.0,0.0
935,66.0,120.0,90.0,12.0,0.0
936,69.0,0.0,90.0,1.0,0.0
937,72.0,0.0,90.0,1.0,0.0
938,60.0,0.0,90.0,2.0,0.0
939,57.0,0.0,90.0,2.0,0.0
940,65.0,0.0,90.0,4.0,0.0
941,69.0,0.0,300.0,1.0,0.0
942,53.0,0.0,300.0,3.0,0.0
943,41.0,60.0,150.0,14.0,0.0
944,65.0,60.0,90.0,12.0,0.0
945,65.0,0.0,300.0,4.0,0.0
946,53.0,0.0,150.0,13.0,0.0
947,72.0,24.0,300.0,1.0,0.0
948,60.0,0.0,300.0,2.0,0.0
949,81.0,0.0,300.0,0.0,0.0
950,57.0,0.0,300.0,2.0,0.0
951,65.0,96.0,90.0,12.0,0.0
952,51.0,60.0,150.0,13.0,0.0
953,39.0,0.0,150.0,14.0,0.0
954,63.0,60.0,90.0,12.0,0.0
955,63.0,120.0,90.0,12.0,0.0
956,81.0,0.0,300.0,0.0,0.0
957,37.0,60.0,150.0,14.0,0.0
958,65.0,0.0,300.0,4.0,0.0
959,61.0,60.0,90.0,12.0,0.0
960,69.0,0.0,300.0,1.0,0.0
961,57.0,0.0,300.0,2.0,0.0
962,60.0,0.0,300.0,2.0,0.0
963,41.0,12.0,390.0,5.0,0.0
964,69.0,0.0,300.0,11.0,0.0
965,72.0,0.0,300.0,1.0,0.0
966,60.0,24.0,300.0,11.0,0.0
967,49.0,0.0,150.0,13.0,0.0
968,77.0,0.0,300.0,11.0,0.0
969,53.0,0.0,300.0,3.0,0.0
970,72.0,0.0,300.0,10.0,0.0
971,81.0,0.0,300.0,10.0,0.0
972,65.0,0.0,300.0,10.0,0.0
973,61.0,96.0,90.0,12.0,0.0
974,36.0,0.0,150.0,14.0,0.0
975,48.0,60.0,150.0,13.0,0.0
976,60.0,48.0,90.0,12.0,0.0
977,60.0,120.0,90.0,12.0,0.0
978,73.0,0.0,390.0,11.0,0.0
979,65.0,0.0,390.0,11.0,0.0
980,34.0,60.0,150.0,14.0,0.0
981,82.0,0.0,300.0,0.0,0.0
982,82.0,0.0,390.0,10.0,0.0
983,70.0,0.0,300.0,1.0,0.0
984,58.0,0.0,300.0,2.0,0.0
985,53.0,0.0,300.0,3.0,0.0
986,46.0,0.0,150.0,13.0,0.0
987,61.0,0.0,300.0,2.0,0.0
988,46.0,0.0,390.0,5.0,0.0
989,73.0,0.0,390.0,10.0,0.0
990,65.0,0.0,300.0,4.0,0.0
991,65.0,0.0,390.0,10.0,0.0
992,58.0,60.0,90.0,12.0,0.0
993,73.0,24.0,300.0,1.0,0.0
994,58.0,12.0,390.0,11.0,0.0
995,58.0,96.0,90.0,12.0,0.0
996,45.0,60.0,150.0,13.0,0.0
997,57.0,48.0,90.0,12.0,0.0
998,33.0,0.0,150.0,14.0,0.0
999,57.0,120.0,90.0,12.0,0.0
1000,73.0,102.0,240.0,1.0,0.0
1001,82.0,0.0,240.0,0.0,0.0
1002,58.0,60.0,90.0,12.0,0.0
1003,58.0,0.0,240.0,2.0,0.0
1004,46.0,60.0,150.0,13.0,0.0
1005,34.0,0.0,150.0,14.0,0.0
1006,65.0,0.0,240.0,4.0,0.0
1007,61.0,0.0,240.0,2.0,0.0
1008,70.0,0.0,240.0,1.0,0.0
1009,53.0,0.0,240.0,3.0,0.0
1010,58.0,18.0,90.0,12.0,0.0
1011,36.0,42.0,150.0,14.0,0.0
1012,48.0,0.0,150.0,13.0,0.0
1013,60.0,60.0,90.0,12.0,0.0
1014,60.0,120.0,90.0,12.0,0.0
1015,53.0,0.0,90.0,3.0,0.0
1016,70.0,0.0,90.0,1.0,0.0
1017,73.0,0.0,90.0,1.0,0.0
1018,58.0,0.0,90.0,2.0,0.0
1019,65.0,0.0,90.0,4.0,0.0
1020,82.0,0.0,90.0,0.0,0.0
1021,61.0,18.0,90.0,2.0,0.0
1022,82.0,0.0,300.0,0.0,0.0
1023,53.0,0.0,300.0,3.0,0.0
1024,61.0,0.0,300.0,2.0,0.0
1025,49.0,60.0,150.0,13.0,0.0
1026,61.0,60.0,90.0,12.0,0.0
1027,58.0,24.0,300.0,2.0,0.0
1028,37.0,0.0,150.0,14.0,0.0
1029,70.0,0.0,300.0,1.0,0.0
1030,73.0,0.0,300.0,1.0,0.0
1031,65.0,0.0,300.0,4.0,0.0
1032,61.0,96.0,90.0,12.0,0.0
1033,36.0,0.0,150.0,14.0,0.0
1034,48.0,60.0,150.0,13.0,0.0
1035,60.0,60.0,90.0,12.0,0.0
1036,60.0,120.0,90.0,12.0,0.0
1037,58.0,0.0,300.0,2.0,0.0
1038,73.0,24.0,300.0,11.0,0.0
1039,82.0,0.0,300.0,10.0,0.0
1040,61.0,0.0,300.0,2.0,0.0
1041,65.0,0.0,300.0,11.0,0.0
1042,58.0,0.0,300.0,11.0,0.0
1043,53.0,0.0,300.0,3.0,0.0
1044,46.0,12.0,390.0,5.0,0.0
1045,73.0,0.0,300.0,10.0,0.0
1046,49.0,0.0,150.0,13.0,0.0
1047,65.0,0.0,300.0,4.0,0.0
1048,65.0,0.0,300.0,10.0,0.0
1049,70.0,0.0,300.0,1.0,0.0
1050,73.0,0.0,300.0,1.0,0.0
1051,61.0,60.0,90.0,12.0,0.0
1052,37.0,60.0,150.0,14.0,0.0
1053,82.0,0.0,300.0,0.0,0.0
1054,61.0,96.0,90.0,12.0,0.0
1055,63.0,48.0,90.0,12.0,0.0
1056,39.0,60.0,150.0,14.0,0.0
1057,51.0,0.0,150.0,13.0,0.0
1058,63.0,120.0,90.0,12.0,0.0
1059,65.0,60.0,90.0,12.0,0.0
1060,41.0,0.0,150.0,14.0,0.0
1061,77.0,0.0,390.0,11.0,0.0
1062,69.0,0.0,390.0,11.0,0.0
1063,72.0,0.0,390.0,10.0,0.0
1064,48.0,0.0,300.0,2.0,0.0
1065,69.0,0.0,300.0,1.0,0.0
1066,65.0,0.0,300.0,4.0,0.0
1067,41.0,0.0,390.0,5.0,0.0
1068,53.0,60.0,150.0,13.0,0.0
1069,72.0,0.0,300.0,1.0,0.0
1070,60.0,0.0,390.0,11.0,0.0
1071,81.0,12.0,390.0,10.0,0.0
1072,57.0,24.0,300.0,2.0,0.0
1073,65.0,0.0,390.0,10.0,0.0
1074,53.0,0.0,300.0,3.0,0.0
1075,81.0,0.0,300.0,0.0,0.0
1076,65.0,96.0,90.0,12.0,0.0
1077,52.0,0.0,150.0,13.0,0.0
1078,40.0,60.0,150.0,14.0,0.0
1079,64.0,48.0,90.0,12.0,0.0
1080,64.0,120.0,90.0,12.0,0.0
1081,53.0,0.0,150.0,13.0,0.0
1082,53.0,0.0,240.0,3.0,0.0
1083,72.0,0.0,240.0,1.0,0.0
1084,81.0,0.0,240.0,0.0,0.0
1085,65.0,60.0,90.0,12.0,0.0
1086,41.0,60.0,150.0,14.0,0.0
1087,69.0,0.0,240.0,1.0,0.0
1088,57.0,0.0,240.0,2.0,0.0
1089,60.0,0.0,240.0,2.0,0.0
1090,65.0,102.0,240.0,4.0,0.0
1091,65.0,18.0,90.0,12.0,0.0
1092,42.0,0.0,150.0,14.0,0.0
1093,66.0,60.0,90.0,12.0,0.0
1094,54.0,42.0,150.0,13.0,0.0
1095,66.0,120.0,90.0,12.0,0.0
1096,81.0,0.0,90.0,0.0,0.0
1097,57.0,0.0,90.0,2.0,0.0
1098,65.0,0.0,90.0,4.0,0.0
1099,60.0,0.0,90.0,2.0,0.0
1100,53.0,0.0,90.0,3.0,0.0
1101,72.0,0.0,90.0,1.0,0.0
1102,69.0,18.0,90.0,1.0,0.0
1103,41.0,0.0,150.0,14.0,0.0
1104,81.0,0.0,300.0,0.0,0.0
1105,65.0,0.0,300.0,4.0,0.0
1106,60.0,0.0,300.0,2.0,0.0
1107,57.0,24.0,300.0,2.0,0.0
1108,65.0,60.0,90.0,12.0,0.0
1109,72.0,0.0,300.0,1.0,0.0
1110,69.0,0.0,300.0,1.0,0.0
1111,53.0,60.0,150.0,13.0,0.0
1112,53.0,0.0,300.0,3.0,0.0
1113,65.0,96.0,90.0,12.0,0.0
1114,63.0,60.0,90.0,12.0,0.0
1115,51.0,0.0,150.0,13.0,0.0
1116,39.0,60.0,150.0,14.0,0.0
1117,63.0,120.0,90.0,12.0,0.0
1118,60.0,0.0,300.0,2.0,0.0
1119,61.0,60.0,90.0,12.0,0.0
1120,69.0,24.0,300.0,1.0,0.0
1121,72.0,0.0,300.0,1.0,0.0
1122,49.0,60.0,150.0,13.0,0.0
1123,37.0,0.0,150.0,14.0,0.0
1124,57.0,0.0,300.0,2.0,0.0
1125,41.0,12.0,390.0,5.0,0.0
1126,53.0,0.0,300.0,3.0,0.0
1127,81.0,0.0,300.0,0.0,0.0
1128,81.0,0.0,300.0,10.0,0.0
1129,77.0,0.0,300.0,11.0,0.0
1130,72.0,0.0,300.0,10.0,0.0
1131,65.0,0.0,300.0,10.0,0.0
1132,69.0,0.0,300.0,11.0,0.0
1133,65.0,0.0,300.0,4.0,0.0
1134,60.0,0.0,300.0,11.0,0.0
1135,61.0,96.0,90.0,12.0,0.0
1136,60.0,48.0,90.0,12.0,0.0
1137,36.0,60.0,150.0,14.0,0.0
1138,48.0,0.0,150.0,13.0,0.0
1139,60.0,120.0,90.0,12.0,0.0
1140,61.0,0.0,300.0,2.0,0.0
1141,34.0,0.0,150.0,14.0,0.0
1142,58.0,0.0,300.0,2.0,0.0
1143,65.0,0.0,390.0,11.0,0.0
1144,70.0,0.0,300.0,1.0,0.0
1145,73.0,0.0,390.0,11.0,0.0
1146,73.0,24.0,300.0,1.0,0.0
1147,82.0,0.0,300.0,0.0,0.0
1148,46.0,60.0,150.0,13.0,0.0
1149,46.0,12.0,390.0,5.0,0.0
1150,58.0,60.0,90.0,12.0,0.0
1151,65.0,0.0,390.0,10.0,0.0
1152,65.0,0.0,300.0,4.0,0.0
1153,82.0,0.0,390.0,10.0,0.0
1154,73.0,0.0,390.0,10.0,0.0
1155,58.0,0.0,390.0,11.0,0.0
1156,53.0,0.0,300.0,3.0,0.0
1157,58.0,96.0,90.0,12.0,0.0
1158,57.0,48.0,90.0,12.0,0.0
1159,33.0,60.0,150.0,14.0,0.0
1160,45.0,0.0,150.0,13.0,0.0
1161,57.0,120.0,90.0,12.0,0.0
1162,46.0,0.0,150.0,13.0,0.0
1163,58.0,60.0,90.0,12.0,0.0
1164,65.0,0.0,240.0,4.0,0.0
1165,53.0,0.0,240.0,3.0,0.0
1166,82.0,0.0,240.0,0.0,0.0
1167,58.0,0.0,240.0,2.0,0.0
1168,34.0,60.0,150.0,14.0,0.0
1169,61.0,102.0,240.0,2.0,0.0
1170,73.0,0.0,240.0,1.0,0.0
1171,70.0,0.0,240.0,1.0,0.0
1172,58.0,18.0,90.0,12.0,0.0
1173,36.0,0.0,150.0,14.0,0.0
1174,60.0,60.0,90.0,12.0,0.0
1175,48.0,42.0,150.0,13.0,0.0
1176,82.0,0.0,90.0,0.0,0.0
1177,61.0,0.0,90.0,2.0,0.0
1178,73.0,0.0,90.0,1.0,0.0
1179,70.0,18.0,90.0,1.0,0.0
1180,60.0,120.0,90.0,12.0,0.0
1181,65.0,0.0,90.0,4.0,0.0
1182,58.0,0.0,90.0,2.0,0.0
1183,53.0,0.0,90.0,3.0,0.0
1184,53.0,0.0,300.0,3.0,0.0
1185,58.0,24.0,300.0,2.0,0.0
1186,73.0,0.0,300.0,1.0,0.0
1187,65.0,0.0,300.0,4.0,0.0
1188,37.0,60.0,150.0,14.0,0.0
1189,70.0,0.0,300.0,1.0,0.0
1190,82.0,0.0,300.0,0.0,0.0
1191,49.0,0.0,150.0,13.0,0.0
1192,61.0,0.0,300.0,2.0,0.0
1193,61.0,60.0,90.0,12.0,0.0
1194,61.0,96.0,90.0,12.0,0.0
1195,36.0,60.0,150.0,14.0,0.0
1196,48.0,0.0,150.0,13.0,0.0
1197,60.0,60.0,90.0,12.0,0.0
1198,60.0,120.0,90.0,12.0,0.0
1199,61.0,0.0,300.0,2.0,0.0
1200,58.0,0.0,300.0,11.0,0.0
1201,53.0,0.0,300.0,3.0,0.0
1202,65.0,0.0,300.0,4.0,0.0
1203,65.0,24.0,300.0,11.0,0.0
1204,82.0,0.0,300.0,10.0,0.0
1205,82.0,0.0,300.0,0.0,0.0
1206,49.0,0.0,150.0,13.0,0.0
1207,73.0,0.0,300.0,10.0,0.0
1208,46.0,12.0,390.0,5.0,0.0
1209,65.0,0.0,300.0,10.0,0.0
1210,73.0,0.0,300.0,11.0,0.0
1211,61.0,60.0,90.0,12.0,0.0
1212,37.0,60.0,150.0,14.0,0.0
1213,58.0,0.0,300.0,2.0,0.0
1214,70.0,0.0,300.0,1.0,0.0
1215,73.0,0.0,300.0,1.0,0.0
1216,61.0,96.0,90.0,12.0,0.0
1217,51.0,60.0,150.0,13.0,0.0
1218,63.0,48.0,90.0,12.0,0.0
1219,39.0,0.0,150.0,14.0,0.0
1220,63.0,408.0,90.0,12.0,0.0
1221,65.0,0.0,390.0,12.0,0.0
1222,65.0,0.0,390.0,4.0,0.0
1223,60.0,0.0,390.0,11.0,0.0
1224,41.0,0.0,390.0,14.0,0.0
1225,41.0,0.0,390.0,5.0,0.0
1226,60.0,0.0,390.0,2.0,0.0
1227,57.0,0.0,390.0,2.0,0.0
1228,77.0,0.0,390.0,11.0,0.0
1229,69.0,0.0,390.0,1.0,0.0
1230,53.0,2496.0,390.0,13.0,0.0
1231,53.0,0.0,390.0,3.0,0.0
1232,72.0,0.0,390.0,1.0,0.0
1233,81.0,0.0,390.0,10.0,0.0
1234,72.0,0.0,390.0,10.0,0.0
1235,65.0,0.0,390.0,10.0,0.0
1236,81.0,0.0,390.0,0.0,0.0
1237,69.0,0.0,390.0,11.0,0.0
1238,49.0,960.0,960.0,2.0,0.0
1239,73.0,0.0,960.0,1.0,0.0
1240,61.0,0.0,960.0,1.0,0.0
1241,53.0,0.0,960.0,2.0,0.0
1242,54.0,0.0,960.0,2.0,0.0
1243,51.0,0.0,960.0,2.0,0.0
1244,72.0,384.0,960.0,1.0,0.0
1245,60.0,0.0,960.0,1.0,0.0
1246,53.0,0.0,390.0,2.0,0.0
1247,73.0,0.0,390.0,1.0,0.0
1248,61.0,0.0,390.0,1.0,0.0
1249,56.0,96.0,390.0,2.0,0.0
1250,68.0,144.0,240.0,0.0,0.0
1251,80.0,240.0,150.0,0.0,0.0
1252,65.0,0.0,480.0,10.0,0.0
1253,61.0,240.0,480.0,11.0,0.0
1254,80.0,96.0,150.0,0.0,0.0
1255,66.0,240.0,480.0,10.0,0.0
1256,80.0,192.0,240.0,0.0,0.0
1257,63.0,0.0,480.0,11.0,0.0
1258,72.0,48.0,180.0,0.0,0.0
1259,72.0,144.0,240.0,0.0,0.0
1260,68.0,0.0,390.0,10.0,0.0
1261,65.0,48.0,390.0,11.0,0.0
1262,73.0,1008.0,180.0,0.0,0.0
1263,63.0,960.0,960.0,1.0,0.0
1264,54.0,0.0,960.0,2.0,0.0
1265,51.0,0.0,960.0,2.0,0.0
1266,75.0,0.0,960.0,1.0,0.0
1267,53.0,0.0,960.0,2.0,0.0
1268,56.0,0.0,960.0,2.0,0.0
1269,74.0,384.0,960.0,1.0,0.0
1270,62.0,0.0,960.0,1.0,0.0
1271,63.0,0.0,390.0,1.0,0.0
1272,54.0,96.0,390.0,2.0,0.0
1273,75.0,0.0,390.0,1.0,0.0
1274,58.0,0.0,390.0,2.0,0.0
1275,70.0,144.0,240.0,0.0,0.0
1276,66.0,240.0,480.0,10.0,0.0
1277,82.0,240.0,150.0,0.0,0.0
1278,63.0,0.0,480.0,11.0,0.0
1279,82.0,96.0,150.0,0.0,0.0
1280,68.0,240.0,480.0,10.0,0.0
1281,65.0,0.0,480.0,11.0,0.0
1282,82.0,192.0,240.0,0.0,0.0
1283,74.0,48.0,180.0,0.0,0.0
1284,66.0,0.0,390.0,11.0,0.0
1285,70.0,48.0,390.0,10.0,0.0
1286,74.0,144.0,240.0,0.0,0.0
1287,75.0,1008.0,180.0,0.0,0.0
1288,53.0,0.0,960.0,2.0,0.0
1289,65.0,0.0,960.0,1.0,0.0
1290,56.0,0.0,960.0,2.0,0.0
1291,77.0,960.0,960.0,1.0,0.0
1292,64.0,0.0,960.0,1.0,0.0
1293,76.0,384.0,960.0,1.0,0.0
1294,55.0,0.0,960.0,2.0,0.0
1295,58.0,0.0,960.0,2.0,0.0
1296,56.0,0.0,390.0,2.0,0.0
1297,65.0,0.0,390.0,1.0,0.0
1298,60.0,96.0,390.0,2.0,0.0
1299,77.0,0.0,390.0,1.0,0.0
1300,72.0,144.0,240.0,0.0,0.0
1301,84.0,240.0,150.0,0.0,0.0
1302,65.0,0.0,480.0,11.0,0.0
1303,68.0,240.0,480.0,10.0,0.0
1304,84.0,96.0,150.0,0.0,0.0
1305,84.0,192.0,240.0,0.0,0.0
1306,67.0,0.0,480.0,11.0,0.0
1307,70.0,240.0,480.0,10.0,0.0
1308,76.0,48.0,180.0,0.0,0.0
1309,72.0,0.0,390.0,10.0,0.0
1310,76.0,144.0,240.0,0.0,0.0
1311,68.0,48.0,390.0,11.0,0.0
1312,77.0,240.0,180.0,0.0,0.0
1313,61.0,48.0,390.0,12.0,0.0
1314,78.0,404.0,1890.0,1.0,0.0
1315,58.0,0.0,390.0,13.0,0.0
1316,46.0,0.0,390.0,14.0,0.0
1317,73.0,192.0,180.0,10.0,0.0
1318,66.0,240.0,180.0,10.0,0.0
1319,78.0,240.0,180.0,10.0,0.0
1320,77.0,432.0,180.0,10.0,0.0
1321,75.0,404.0,1890.0,1.0,0.0
1322,75.0,0.0,390.0,10.0,0.0
1323,60.0,0.0,390.0,13.0,0.0
1324,63.0,0.0,390.0,12.0,0.0
1325,48.0,48.0,390.0,14.0,0.0
1326,63.0,240.0,180.0,11.0,0.0
1327,68.0,240.0,180.0,11.0,0.0
1328,66.0,28.0,180.0,11.0,0.0
1329,61.0,0.0,390.0,13.0,0.0
1330,77.0,404.0,1890.0,1.0,0.0
1331,49.0,0.0,390.0,14.0,0.0
1332,56.0,0.0,390.0,12.0,0.0
1333,65.0,48.0,390.0,11.0,0.0
1334,68.0,240.0,180.0,10.0,0.0
1335,77.0,240.0,180.0,10.0,0.0
1336,75.0,28.0,180.0,10.0,0.0
1337,46.0,48.0,390.0,14.0,0.0
1338,73.0,404.0,1890.0,1.0,0.0
1339,58.0,0.0,390.0,13.0,0.0
1340,61.0,0.0,390.0,12.0,0.0
1341,73.0,0.0,390.0,10.0,0.0
1342,61.0,240.0,180.0,11.0,0.0
1343,66.0,240.0,180.0,11.0,0.0
1344,65.0,28.0,180.0,11.0,0.0
1345,75.0,404.0,1890.0,1.0,0.0
1346,58.0,0.0,390.0,12.0,0.0
1347,43.0,0.0,390.0,14.0,0.0
1348,55.0,0.0,390.0,13.0,0.0
1349,63.0,48.0,390.0,11.0,0.0
1350,70.0,240.0,180.0,10.0,0.0
1351,75.0,240.0,180.0,10.0,0.0
1352,73.0,28.0,180.0,10.0,0.0
1353,53.0,0.0,390.0,12.0,0.0
1354,45.0,48.0,390.0,14.0,0.0
1355,57.0,0.0,390.0,13.0,0.0
1356,72.0,0.0,390.0,10.0,0.0
1357,72.0,404.0,1890.0,1.0,0.0
1358,60.0,240.0,180.0,11.0,0.0
1359,65.0,240.0,180.0,11.0,0.0
1360,63.0,28.0,180.0,11.0,0.0
1361,53.0,0.0,390.0,12.0,0.0
1362,58.0,0.0,390.0,13.0,0.0
1363,46.0,48.0,390.0,14.0,0.0
1364,73.0,404.0,1890.0,1.0,0.0
1365,61.0,0.0,390.0,11.0,0.0
1366,65.0,240.0,180.0,10.0,0.0
1367,73.0,240.0,180.0,10.0,0.0
1368,72.0,28.0,180.0,10.0,0.0
1369,42.0,0.0,390.0,14.0,0.0
1370,54.0,0.0,390.0,12.0,0.0
1371,54.0,0.0,390.0,13.0,0.0
1372,70.0,48.0,390.0,10.0,0.0
1373,70.0,404.0,1890.0,1.0,0.0
1374,58.0,240.0,180.0,11.0,0.0
1375,63.0,240.0,180.0,11.0,0.0
1376,61.0,28.0,180.0,11.0,0.0
1377,54.0,0.0,390.0,12.0,0.0
1378,60.0,0.0,390.0,11.0,0.0
1379,39.0,0.0,390.0,14.0,0.0
1380,51.0,48.0,390.0,13.0,0.0
1381,72.0,0.0,1890.0,1.0,0.0
1382,66.0,240.0,180.0,10.0,0.0
1383,72.0,240.0,180.0,10.0,0.0
1384,70.0,28.0,180.0,10.0,0.0
1385,53.0,0.0,390.0,13.0,0.0
1386,69.0,0.0,390.0,10.0,0.0
1387,41.0,48.0,390.0,14.0,0.0
1388,53.0,0.0,390.0,12.0,0.0
1389,69.0,404.0,930.0,1.0,0.0
1390,60.0,240.0,180.0,11.0,0.0
1391,65.0,240.0,180.0,11.0,0.0
1392,57.0,28.0,180.0,11.0,0.0
1393,46.0,0.0,570.0,12.0,0.0
1394,58.0,0.0,570.0,10.0,0.0
1395,58.0,0.0,570.0,11.0,0.0
1396,58.0,0.0,1830.0,3.0,0.0
1397,46.0,192.0,390.0,5.0,0.0
1398,46.0,0.0,1830.0,3.0,0.0
1399,46.0,288.0,570.0,2.0,0.0
1400,70.0,0.0,1830.0,1.0,0.0
1401,82.0,0.0,1830.0,0.0,0.0
1402,58.0,0.0,1830.0,4.0,0.0
1403,34.0,0.0,570.0,14.0,0.0
1404,46.0,0.0,570.0,13.0,0.0
1405,49.0,0.0,150.0,2.0,0.0
1406,58.0,144.0,180.0,11.0,0.0
1407,37.0,0.0,150.0,14.0,0.0
1408,70.0,0.0,180.0,10.0,0.0
1409,49.0,48.0,150.0,13.0,0.0
1410,49.0,0.0,150.0,12.0,0.0
1411,72.0,0.0,90.0,10.0,0.0
1412,60.0,48.0,90.0,11.0,0.0
1413,51.0,0.0,150.0,12.0,0.0
1414,39.0,72.0,150.0,14.0,0.0
1415,51.0,0.0,150.0,2.0,0.0
1416,51.0,0.0,150.0,13.0,0.0
1417,60.0,0.0,90.0,11.0,0.0
1418,72.0,120.0,90.0,10.0,0.0
1419,58.0,48.0,90.0,11.0,0.0
1420,49.0,72.0,150.0,12.0,0.0
1421,49.0,0.0,150.0,2.0,0.0
1422,37.0,0.0,150.0,14.0,0.0
1423,49.0,0.0,150.0,13.0,0.0
1424,70.0,0.0,90.0,10.0,0.0
1425,58.0,120.0,90.0,11.0,0.0
1426,70.0,0.0,90.0,10.0,0.0
1427,51.0,0.0,150.0,2.0,0.0
1428,51.0,0.0,150.0,13.0,0.0
1429,60.0,0.0,90.0,11.0,0.0
1430,72.0,48.0,90.0,10.0,0.0
1431,39.0,0.0,150.0,14.0,0.0
1432,51.0,72.0,150.0,12.0,0.0
1433,60.0,120.0,90.0,11.0,0.0
1434,72.0,0.0,90.0,10.0,0.0
1435,53.0,0.0,150.0,12.0,0.0
1436,53.0,0.0,150.0,2.0,0.0
1437,53.0,0.0,150.0,13.0,0.0
1438,41.0,72.0,150.0,14.0,0.0
1439,62.0,0.0,90.0,11.0,0.0
1440,74.0,48.0,90.0,10.0,0.0
1441,74.0,0.0,90.0,10.0,0.0
1442,62.0,120.0,90.0,11.0,0.0
1443,42.0,0.0,150.0,14.0,0.0
1444,58.0,0.0,1830.0,4.0,0.0
1445,54.0,0.0,150.0,13.0,0.0
1446,54.0,0.0,150.0,12.0,0.0
1447,46.0,0.0,1830.0,3.0,0.0
1448,58.0,0.0,1830.0,3.0,0.0
1449,54.0,72.0,150.0,2.0,0.0
1450,46.0,0.0,390.0,5.0,0.0
1451,82.0,0.0,1830.0,0.0,0.0
1452,63.0,48.0,90.0,11.0,0.0
1453,75.0,0.0,90.0,10.0,0.0
1454,70.0,0.0,1830.0,1.0,0.0
1455,63.0,120.0,90.0,11.0,0.0
1456,75.0,0.0,90.0,10.0,0.0
1457,53.0,0.0,150.0,13.0,0.0
1458,53.0,72.0,150.0,2.0,0.0
1459,74.0,48.0,90.0,10.0,0.0
1460,62.0,0.0,90.0,11.0,0.0
1461,53.0,0.0,150.0,12.0,0.0
1462,41.0,0.0,150.0,14.0,0.0
1463,74.0,120.0,90.0,10.0,0.0
1464,62.0,0.0,90.0,11.0,0.0
1465,75.0,48.0,90.0,10.0,0.0
1466,54.0,0.0,150.0,12.0,0.0
1467,54.0,72.0,150.0,13.0,0.0
1468,63.0,0.0,90.0,11.0,0.0
1469,54.0,0.0,150.0,2.0,0.0
1470,42.0,0.0,150.0,14.0,0.0
1471,63.0,0.0,90.0,11.0,0.0
1472,75.0,120.0,90.0,10.0,0.0
1473,52.0,72.0,150.0,12.0,0.0
1474,72.0,0.0,90.0,10.0,0.0
1475,52.0,0.0,150.0,13.0,0.0
1476,52.0,0.0,150.0,2.0,0.0
1477,60.0,48.0,90.0,11.0,0.0
1478,40.0,0.0,150.0,14.0,0.0
1479,72.0,0.0,90.0,10.0,0.0
1480,60.0,120.0,90.0,11.0,0.0
1481,53.0,0.0,150.0,13.0,0.0
1482,41.0,72.0,150.0,14.0,0.0
1483,62.0,48.0,90.0,11.0,0.0
1484,53.0,0.0,150.0,12.0,0.0
1485,53.0,0.0,150.0,2.0,0.0
1486,74.0,0.0,90.0,10.0,0.0
1487,74.0,120.0,90.0,10.0,0.0
1488,62.0,0.0,90.0,11.0,0.0
1489,52.0,0.0,150.0,2.0,0.0
1490,52.0,0.0,150.0,13.0,0.0
1491,60.0,48.0,90.0,11.0,0.0
1492,52.0,72.0,150.0,12.0,0.0
1493,72.0,0.0,90.0,10.0,0.0
1494,40.0,0.0,150.0,14.0,0.0
1495,72.0,0.0,90.0,10.0,0.0
1496,60.0,120.0,90.0,11.0,0.0
1497,41.0,0.0,150.0,14.0,0.0
1498,53.0,0.0,150.0,2.0,0.0
1499,74.0,0.0,90.0,10.0,0.0
1500,62.0,48.0,90.0,11.0,0.0
1501,53.0,0.0,150.0,12.0,0.0
1502,53.0,72.0,150.0,13.0,0.0
1503,74.0,0.0,90.0,10.0,0.0
1504,62.0,120.0,90.0,11.0,0.0
1505,43.0,0.0,150.0,14.0,0.0
1506,55.0,0.0,150.0,13.0,0.0
1507,64.0,48.0,90.0,11.0,0.0
1508,76.0,0.0,90.0,10.0,0.0
1509,55.0,0.0,150.0,12.0,0.0
1510,55.0,72.0,150.0,2.0,0.0
1511,76.0,0.0,90.0,10.0,0.0
1512,64.0,120.0,90.0,11.0,0.0
1513,82.0,0.0,1920.0,0.0,0.0
1514,58.0,0.0,1830.0,4.0,0.0
1515,56.0,0.0,150.0,13.0,0.0
1516,77.0,48.0,90.0,10.0,0.0
1517,46.0,72.0,390.0,5.0,0.0
1518,56.0,0.0,150.0,2.0,0.0
1519,58.0,0.0,1830.0,3.0,0.0
1520,65.0,0.0,90.0,11.0,0.0
1521,56.0,0.0,150.0,12.0,0.0
1522,44.0,72.0,150.0,14.0,0.0
1523,70.0,96.0,1920.0,1.0,0.0
1524,46.0,0.0,1830.0,3.0,0.0
1525,77.0,120.0,90.0,10.0,0.0
1526,65.0,0.0,90.0,11.0,0.0
1527,55.0,0.0,150.0,13.0,0.0
1528,55.0,0.0,150.0,12.0,0.0
1529,55.0,0.0,150.0,2.0,0.0
1530,76.0,0.0,90.0,10.0,0.0
1531,64.0,48.0,90.0,11.0,0.0
1532,43.0,0.0,150.0,14.0,0.0
1533,64.0,120.0,90.0,11.0,0.0
1534,76.0,0.0,90.0,10.0,0.0
1535,65.0,48.0,90.0,11.0,0.0
1536,77.0,0.0,90.0,10.0,0.0
1537,56.0,0.0,150.0,13.0,0.0
1538,56.0,72.0,150.0,12.0,0.0
1539,56.0,0.0,150.0,2.0,0.0
1540,44.0,0.0,150.0,14.0,0.0
1541,77.0,120.0,90.0,10.0,0.0
1542,65.0,0.0,90.0,11.0,0.0
1543,74.0,0.0,90.0,10.0,0.0
1544,53.0,72.0,150.0,2.0,0.0
1545,53.0,0.0,150.0,12.0,0.0
1546,62.0,48.0,90.0,11.0,0.0
1547,41.0,0.0,150.0,14.0,0.0
1548,53.0,0.0,150.0,13.0,0.0
1549,74.0,0.0,90.0,10.0,0.0
1550,62.0,120.0,90.0,11.0,0.0
1551,54.0,0.0,150.0,13.0,0.0
1552,42.0,0.0,150.0,14.0,0.0
1553,63.0,48.0,90.0,11.0,0.0
1554,54.0,0.0,150.0,12.0,0.0
1555,75.0,0.0,90.0,10.0,0.0
1556,54.0,72.0,150.0,2.0,0.0
1557,75.0,0.0,90.0,10.0,0.0
1558,63.0,120.0,90.0,11.0,0.0
1559,62.0,48.0,90.0,11.0,0.0
1560,53.0,0.0,150.0,13.0,0.0
1561,41.0,72.0,150.0,14.0,0.0
1562,74.0,0.0,90.0,10.0,0.0
1563,53.0,0.0,150.0,2.0,0.0
1564,53.0,0.0,150.0,12.0,0.0
1565,74.0,0.0,90.0,10.0,0.0
1566,62.0,120.0,90.0,11.0,0.0
1567,63.0,48.0,90.0,11.0,0.0
1568,54.0,0.0,150.0,13.0,0.0
1569,54.0,0.0,150.0,2.0,0.0
1570,42.0,0.0,150.0,14.0,0.0
1571,54.0,72.0,150.0,12.0,0.0
1572,75.0,0.0,90.0,10.0,0.0
1573,75.0,0.0,90.0,10.0,0.0
1574,63.0,120.0,90.0,11.0,0.0
1575,77.0,0.0,90.0,10.0,0.0
1576,62.0,0.0,150.0,12.0,0.0
1577,50.0,0.0,150.0,2.0,0.0
1578,38.0,72.0,150.0,14.0,0.0
1579,65.0,48.0,90.0,11.0,0.0
1580,50.0,0.0,150.0,13.0,0.0
1581,65.0,0.0,90.0,11.0,0.0
1582,77.0,24.0,90.0,10.0,0.0
1583,82.0,0.0,300.0,0.0,0.0
1584,51.0,0.0,150.0,2.0,0.0
1585,39.0,0.0,150.0,14.0,0.0
1586,66.0,0.0,90.0,11.0,0.0
1587,78.0,48.0,90.0,10.0,0.0
1588,63.0,72.0,150.0,12.0,0.0
1589,70.0,48.0,300.0,1.0,0.0
1590,51.0,0.0,150.0,13.0,0.0
1591,78.0,0.0,90.0,10.0,0.0
1592,66.0,72.0,90.0,11.0,0.0
1593,39.0,72.0,150.0,2.0,0.0
1594,66.0,48.0,90.0,11.0,0.0
1595,78.0,0.0,90.0,10.0,0.0
1596,27.0,0.0,150.0,14.0,0.0
1597,39.0,0.0,150.0,13.0,0.0
1598,51.0,0.0,150.0,12.0,0.0
1599,78.0,0.0,90.0,10.0,0.0
1600,66.0,120.0,90.0,11.0,0.0
1601,79.0,48.0,90.0,10.0,0.0
1602,63.0,0.0,870.0,1.0,0.0
1603,70.0,72.0,390.0,1.0,0.0
1604,39.0,72.0,150.0,14.0,0.0
1605,51.0,0.0,150.0,2.0,0.0
1606,75.0,48.0,780.0,0.0,0.0
1607,63.0,0.0,150.0,12.0,0.0
1608,67.0,0.0,90.0,11.0,0.0
1609,51.0,0.0,150.0,13.0,0.0
1610,79.0,0.0,90.0,10.0,0.0
1611,67.0,120.0,90.0,11.0,0.0
1612,49.0,0.0,150.0,2.0,0.0
1613,37.0,0.0,150.0,14.0,0.0
1614,49.0,0.0,150.0,13.0,0.0
1615,79.0,0.0,90.0,10.0,0.0
1616,67.0,48.0,90.0,11.0,0.0
1617,58.0,0.0,150.0,12.0,0.0
1618,79.0,0.0,90.0,10.0,0.0
1619,67.0,120.0,90.0,11.0,0.0
1620,68.0,48.0,90.0,11.0,0.0
1621,36.0,0.0,150.0,14.0,0.0
1622,80.0,0.0,90.0,10.0,0.0
1623,48.0,0.0,150.0,13.0,0.0
1624,72.0,0.0,870.0,1.0,0.0
1625,60.0,72.0,150.0,12.0,0.0
1626,48.0,0.0,150.0,2.0,0.0
1627,68.0,72.0,90.0,11.0,0.0
1628,80.0,0.0,90.0,10.0,0.0
1629,80.0,0.0,90.0,10.0,0.0
1630,68.0,48.0,90.0,11.0,0.0
1631,41.0,0.0,150.0,2.0,0.0
1632,53.0,0.0,150.0,12.0,0.0
1633,41.0,72.0,150.0,13.0,0.0
1634,29.0,0.0,150.0,14.0,0.0
1635,80.0,0.0,90.0,10.0,0.0
1636,68.0,120.0,90.0,11.0,0.0
1637,69.0,48.0,90.0,11.0,0.0
1638,41.0,0.0,390.0,5.0,0.0
1639,65.0,0.0,150.0,12.0,0.0
1640,81.0,0.0,90.0,10.0,0.0
1641,53.0,0.0,390.0,3.0,0.0
1642,65.0,0.0,780.0,1.0,0.0
1643,77.0,96.0,780.0,0.0,0.0
1644,53.0,0.0,150.0,2.0,0.0
1645,53.0,0.0,150.0,13.0,0.0
1646,41.0,72.0,150.0,14.0,0.0
1647,65.0,72.0,390.0,4.0,0.0
1648,69.0,120.0,90.0,11.0,0.0
1649,81.0,0.0,90.0,10.0,0.0
1650,81.0,0.0,90.0,10.0,0.0
1651,39.0,0.0,150.0,14.0,0.0
1652,51.0,0.0,150.0,13.0,0.0
1653,69.0,48.0,90.0,11.0,0.0
1654,51.0,0.0,150.0,2.0,0.0
1655,63.0,0.0,150.0,12.0,0.0
1656,81.0,0.0,90.0,10.0,0.0
1657,69.0,216.0,90.0,11.0,0.0
1658,70.0,0.0,300.0,11.0,0.0
1659,82.0,0.0,300.0,10.0,0.0
1660,70.0,0.0,390.0,4.0,0.0
1661,49.0,48.0,390.0,2.0,0.0
1662,73.0,0.0,300.0,1.0,0.0
1663,46.0,0.0,390.0,5.0,0.0
1664,61.0,0.0,180.0,12.0,0.0
1665,58.0,0.0,390.0,4.0,0.0
1666,49.0,0.0,180.0,13.0,0.0
1667,53.0,0.0,390.0,3.0,0.0
1668,46.0,0.0,390.0,3.0,0.0
1669,37.0,96.0,180.0,14.0,0.0
1670,49.0,240.0,180.0,13.0,0.0
1671,37.0,0.0,180.0,14.0,0.0
1672,49.0,0.0,180.0,12.0,0.0
1673,77.0,0.0,300.0,10.0,0.0
1674,65.0,144.0,300.0,11.0,0.0
1675,49.0,96.0,180.0,13.0,0.0
1676,37.0,0.0,180.0,14.0,0.0
1677,49.0,0.0,180.0,12.0,0.0
1678,37.0,0.0,180.0,14.0,0.0
1679,49.0,240.0,180.0,12.0,0.0
1680,49.0,0.0,180.0,13.0,0.0
1681,73.0,0.0,300.0,10.0,0.0
1682,61.0,144.0,300.0,11.0,0.0
1683,49.0,0.0,180.0,12.0,0.0
1684,49.0,0.0,180.0,13.0,0.0
1685,37.0,96.0,180.0,14.0,0.0
1686,49.0,0.0,180.0,12.0,0.0
1687,37.0,240.0,180.0,14.0,0.0
1688,49.0,0.0,180.0,13.0,0.0
1689,49.0,96.0,180.0,12.0,0.0
1690,49.0,0.0,180.0,13.0,0.0
1691,37.0,0.0,180.0,14.0,0.0
1692,58.0,0.0,300.0,11.0,0.0
1693,70.0,144.0,300.0,10.0,0.0
1694,49.0,0.0,180.0,13.0,0.0
1695,49.0,240.0,180.0,12.0,0.0
1696,37.0,0.0,180.0,14.0,0.0
1697,71.0,0.0,300.0,1.0,0.0
1698,59.0,0.0,780.0,10.0,0.0
1699,51.0,0.0,780.0,10.0,0.0
1700,51.0,0.0,180.0,13.0,0.0
1701,54.0,0.0,780.0,11.0,0.0
1702,83.0,0.0,300.0,0.0,0.0
1703,59.0,144.0,300.0,2.0,0.0
1704,51.0,0.0,180.0,12.0,0.0
1705,39.0,96.0,180.0,14.0,0.0
1706,51.0,0.0,180.0,13.0,0.0
1707,39.0,240.0,180.0,14.0,0.0
1708,51.0,0.0,180.0,12.0,0.0
1709,78.0,0.0,300.0,0.0,0.0
1710,51.0,0.0,180.0,12.0,0.0
1711,51.0,0.0,180.0,13.0,0.0
1712,78.0,0.0,300.0,1.0,0.0
1713,66.0,144.0,300.0,1.0,0.0
1714,54.0,0.0,300.0,2.0,0.0
1715,39.0,96.0,180.0,14.0,0.0
1716,51.0,0.0,180.0,13.0,0.0
1717,39.0,0.0,180.0,14.0,0.0
1718,51.0,240.0,180.0,12.0,0.0
1719,51.0,0.0,180.0,13.0,0.0
1720,75.0,96.0,300.0,1.0,0.0
1721,51.0,0.0,180.0,12.0,0.0
1722,39.0,96.0,180.0,14.0,0.0
1723,63.0,0.0,300.0,2.0,0.0
1724,51.0,0.0,300.0,2.0,0.0
1725,75.0,0.0,300.0,0.0,0.0
1726,63.0,0.0,300.0,1.0,0.0
1727,78.0,48.0,150.0,10.0,0.0
1728,39.0,0.0,180.0,14.0,0.0
1729,51.0,0.0,180.0,13.0,0.0
1730,51.0,192.0,180.0,12.0,0.0
1731,66.0,0.0,150.0,11.0,0.0
1732,59.0,0.0,300.0,1.0,0.0
1733,78.0,48.0,150.0,10.0,0.0
1734,39.0,96.0,180.0,14.0,0.0
1735,51.0,0.0,180.0,13.0,0.0
1736,71.0,96.0,300.0,1.0,0.0
1737,51.0,0.0,180.0,12.0,0.0
1738,47.0,0.0,300.0,2.0,0.0
1739,59.0,0.0,300.0,2.0,0.0
1740,71.0,0.0,300.0,0.0,0.0
1741,66.0,0.0,150.0,11.0,0.0
1742,78.0,0.0,150.0,10.0,0.0
1743,39.0,0.0,180.0,14.0,0.0
1744,51.0,240.0,180.0,12.0,0.0
1745,51.0,0.0,180.0,13.0,0.0
1746,66.0,48.0,150.0,11.0,0.0
1747,65.0,0.0,390.0,4.0,0.0
1748,53.0,48.0,390.0,4.0,0.0
1749,66.0,144.0,240.0,11.0,0.0
1750,41.0,0.0,390.0,5.0,0.0
1751,41.0,48.0,180.0,14.0,0.0
1752,53.0,0.0,180.0,13.0,0.0
1753,69.0,0.0,780.0,0.0,0.0
1754,57.0,144.0,780.0,1.0,0.0
1755,69.0,0.0,780.0,1.0,0.0
1756,78.0,0.0,240.0,10.0,0.0
1757,53.0,0.0,180.0,12.0,0.0
1758,53.0,0.0,1890.0,3.0,0.0
1759,41.0,278.0,1890.0,3.0,0.0
1760,57.0,0.0,780.0,2.0,0.0
1761,45.0,0.0,780.0,2.0,0.0
1762,53.0,0.0,180.0,13.0,0.0
1763,53.0,0.0,180.0,12.0,0.0
1764,65.0,0.0,180.0,11.0,0.0
1765,77.0,240.0,180.0,10.0,0.0
1766,41.0,0.0,180.0,14.0,0.0
1767,53.0,0.0,180.0,12.0,0.0
1768,53.0,96.0,180.0,13.0,0.0
1769,65.0,96.0,570.0,11.0,0.0
1770,41.0,0.0,180.0,14.0,0.0
1771,77.0,0.0,570.0,10.0,0.0
1772,41.0,0.0,180.0,14.0,0.0
1773,53.0,0.0,180.0,12.0,0.0
1774,53.0,144.0,180.0,13.0,0.0
1775,53.0,0.0,180.0,13.0,0.0
1776,53.0,192.0,180.0,12.0,0.0
1777,41.0,0.0,180.0,14.0,0.0
1778,72.0,0.0,150.0,1.0,0.0
1779,69.0,36.0,150.0,1.0,0.0
1780,53.0,0.0,180.0,13.0,0.0
1781,41.0,192.0,180.0,14.0,0.0
1782,63.0,0.0,150.0,11.0,0.0
1783,53.0,0.0,180.0,12.0,0.0
1784,81.0,0.0,150.0,0.0,0.0
1785,75.0,12.0,150.0,10.0,0.0
1786,41.0,0.0,180.0,14.0,0.0
1787,63.0,0.0,150.0,11.0,0.0
1788,81.0,36.0,150.0,0.0,0.0
1789,53.0,0.0,180.0,12.0,0.0
1790,75.0,12.0,150.0,10.0,0.0
1791,53.0,192.0,180.0,13.0,0.0
1792,72.0,0.0,150.0,1.0,0.0
1793,69.0,0.0,150.0,1.0,0.0
1794,53.0,0.0,180.0,12.0,0.0
1795,72.0,0.0,150.0,1.0,0.0
1796,69.0,0.0,150.0,1.0,0.0
1797,63.0,12.0,150.0,11.0,0.0
1798,53.0,0.0,180.0,13.0,0.0
1799,75.0,0.0,150.0,10.0,0.0
1800,81.0,36.0,150.0,0.0,0.0
1801,41.0,10.0,180.0,14.0,0.0
1802,63.0,0.0,240.0,11.0,0.0
1803,75.0,0.0,240.0,10.0,0.0
1804,81.0,144.0,240.0,0.0,0.0
1805,54.0,0.0,390.0,12.0,0.0
1806,70.0,0.0,390.0,4.0,0.0
1807,72.0,0.0,240.0,1.0,0.0
1808,58.0,48.0,390.0,4.0,0.0
1809,58.0,0.0,390.0,3.0,0.0
1810,46.0,0.0,390.0,3.0,0.0
1811,69.0,0.0,240.0,1.0,0.0
1812,46.0,0.0,390.0,5.0,0.0
1813,42.0,0.0,390.0,14.0,0.0
1814,54.0,0.0,390.0,13.0,0.0
1815,61.0,0.0,180.0,11.0,0.0
1816,73.0,432.0,180.0,1.0,0.0
1817,73.0,0.0,180.0,10.0,0.0
1818,70.0,0.0,180.0,1.0,0.0
1819,82.0,0.0,180.0,0.0,0.0
1820,73.0,480.0,390.0,10.0,0.0
1821,73.0,0.0,390.0,1.0,0.0
1822,70.0,0.0,390.0,1.0,0.0
1823,61.0,0.0,390.0,11.0,0.0
1824,82.0,0.0,390.0,0.0,0.0
1825,51.0,0.0,960.0,2.0,0.0
1826,54.0,96.0,390.0,12.0,0.0
1827,60.0,0.0,960.0,2.0,0.0
1828,39.0,0.0,390.0,14.0,0.0
1829,51.0,0.0,390.0,13.0,0.0
1830,63.0,240.0,240.0,11.0,0.0
1831,72.0,0.0,240.0,10.0,0.0
1832,75.0,0.0,240.0,10.0,0.0
1833,66.0,240.0,240.0,11.0,0.0
1834,72.0,0.0,240.0,10.0,0.0
1835,63.0,384.0,240.0,11.0,0.0
1836,53.0,96.0,390.0,12.0,0.0
1837,41.0,0.0,390.0,14.0,0.0
1838,53.0,0.0,390.0,13.0,0.0
1839,49.0,0.0,960.0,2.0,0.0
1840,58.0,0.0,960.0,2.0,0.0
1841,61.0,0.0,240.0,11.0,0.0
1842,70.0,240.0,240.0,10.0,0.0
1843,65.0,0.0,240.0,11.0,0.0
1844,73.0,240.0,240.0,10.0,0.0
1845,61.0,384.0,240.0,11.0,0.0
1846,70.0,0.0,240.0,10.0,0.0
1847,29.0,0.0,390.0,14.0,0.0
1848,53.0,96.0,390.0,12.0,0.0
1849,57.0,0.0,960.0,2.0,0.0
1850,48.0,0.0,960.0,2.0,0.0
1851,41.0,0.0,390.0,13.0,0.0
1852,69.0,240.0,240.0,10.0,0.0
1853,60.0,0.0,240.0,11.0,0.0
1854,72.0,240.0,240.0,10.0,0.0
1855,63.0,0.0,240.0,11.0,0.0
1856,60.0,192.0,240.0,11.0,0.0
1857,69.0,0.0,240.0,10.0,0.0
1858,53.0,48.0,1830.0,3.0,0.0
1859,70.0,0.0,1830.0,4.0,0.0
1860,82.0,0.0,300.0,10.0,0.0
1861,46.0,0.0,390.0,5.0,0.0
1862,77.0,0.0,1830.0,1.0,0.0
1863,49.0,0.0,180.0,12.0,0.0
1864,46.0,0.0,1830.0,3.0,0.0
1865,82.0,0.0,1830.0,0.0,0.0
1866,65.0,0.0,1830.0,1.0,0.0
1867,58.0,48.0,390.0,2.0,0.0
1868,49.0,0.0,390.0,2.0,0.0
1869,49.0,96.0,180.0,13.0,0.0
1870,37.0,0.0,180.0,14.0,0.0
1871,58.0,0.0,1830.0,4.0,0.0
1872,70.0,96.0,300.0,11.0,0.0
1873,49.0,0.0,180.0,13.0,0.0
1874,49.0,240.0,180.0,12.0,0.0
1875,37.0,0.0,180.0,14.0,0.0
1876,49.0,0.0,180.0,13.0,0.0
1877,65.0,0.0,300.0,11.0,0.0
1878,77.0,144.0,300.0,10.0,0.0
1879,37.0,0.0,180.0,14.0,0.0
1880,49.0,96.0,180.0,12.0,0.0
1881,49.0,240.0,180.0,13.0,0.0
1882,49.0,0.0,180.0,12.0,0.0
1883,37.0,0.0,180.0,14.0,0.0
1884,49.0,96.0,180.0,12.0,0.0
1885,49.0,0.0,180.0,13.0,0.0
1886,73.0,0.0,300.0,10.0,0.0
1887,61.0,144.0,300.0,11.0,0.0
1888,37.0,0.0,180.0,14.0,0.0
1889,37.0,0.0,180.0,14.0,0.0
1890,49.0,0.0,180.0,12.0,0.0
1891,49.0,240.0,180.0,13.0,0.0
1892,37.0,0.0,180.0,14.0,0.0
1893,58.0,0.0,300.0,11.0,0.0
1894,70.0,96.0,300.0,10.0,0.0
1895,49.0,0.0,180.0,13.0,0.0
1896,49.0,96.0,180.0,12.0,0.0
1897,37.0,240.0,180.0,14.0,0.0
1898,49.0,0.0,180.0,13.0,0.0
1899,49.0,0.0,180.0,12.0,0.0
1900,83.0,144.0,300.0,0.0,0.0
1901,51.0,96.0,180.0,13.0,0.0
1902,71.0,0.0,300.0,1.0,0.0
1903,51.0,0.0,180.0,12.0,0.0
1904,51.0,144.0,780.0,10.0,0.0
1905,59.0,0.0,780.0,10.0,0.0
1906,59.0,0.0,300.0,2.0,0.0
1907,54.0,0.0,780.0,11.0,0.0
1908,39.0,0.0,180.0,14.0,0.0
1909,51.0,240.0,180.0,13.0,0.0
1910,51.0,0.0,180.0,12.0,0.0
1911,39.0,0.0,180.0,14.0,0.0
1912,78.0,0.0,300.0,1.0,0.0
1913,78.0,0.0,300.0,0.0,0.0
1914,66.0,0.0,300.0,1.0,0.0
1915,51.0,0.0,180.0,12.0,0.0
1916,51.0,0.0,180.0,13.0,0.0
1917,54.0,0.0,300.0,2.0,0.0
1918,39.0,96.0,180.0,14.0,0.0
1919,39.0,0.0,180.0,14.0,0.0
1920,51.0,240.0,180.0,13.0,0.0
1921,51.0,0.0,180.0,12.0,0.0
1922,75.0,0.0,300.0,0.0,0.0
1923,63.0,96.0,300.0,2.0,0.0
1924,51.0,0.0,300.0,2.0,0.0
1925,51.0,96.0,180.0,12.0,0.0
1926,51.0,0.0,180.0,13.0,0.0
1927,39.0,0.0,180.0,14.0,0.0
1928,75.0,0.0,300.0,1.0,0.0
1929,63.0,0.0,300.0,1.0,0.0
1930,51.0,0.0,180.0,13.0,0.0
1931,66.0,0.0,150.0,11.0,0.0
1932,51.0,0.0,180.0,12.0,0.0
1933,78.0,48.0,150.0,10.0,0.0
1934,39.0,192.0,180.0,14.0,0.0
1935,78.0,48.0,150.0,10.0,0.0
1936,59.0,0.0,300.0,2.0,0.0
1937,66.0,0.0,150.0,11.0,0.0
1938,71.0,0.0,300.0,0.0,0.0
1939,51.0,0.0,180.0,13.0,0.0
1940,47.0,96.0,300.0,2.0,0.0
1941,59.0,0.0,300.0,1.0,0.0
1942,71.0,0.0,300.0,1.0,0.0
1943,51.0,0.0,180.0,12.0,0.0
1944,39.0,96.0,180.0,14.0,0.0
1945,39.0,0.0,180.0,14.0,0.0
1946,66.0,48.0,150.0,11.0,0.0
1947,51.0,240.0,180.0,13.0,0.0
1948,78.0,0.0,150.0,10.0,0.0
1949,51.0,0.0,180.0,12.0,0.0
1950,65.0,0.0,390.0,4.0,0.0
1951,53.0,48.0,390.0,4.0,0.0
1952,66.0,144.0,240.0,11.0,0.0
1953,41.0,0.0,180.0,14.0,0.0
1954,41.0,0.0,390.0,5.0,0.0
1955,41.0,240.0,1920.0,3.0,0.0
1956,53.0,48.0,180.0,12.0,0.0
1957,53.0,0.0,180.0,13.0,0.0
1958,69.0,144.0,780.0,0.0,0.0
1959,78.0,0.0,240.0,10.0,0.0
1960,45.0,0.0,780.0,2.0,0.0
1961,53.0,0.0,1920.0,3.0,0.0
1962,57.0,0.0,780.0,2.0,0.0
1963,69.0,0.0,780.0,1.0,0.0
1964,57.0,0.0,780.0,1.0,0.0
1965,53.0,0.0,180.0,12.0,0.0
1966,77.0,240.0,180.0,10.0,0.0
1967,65.0,0.0,180.0,11.0,0.0
1968,53.0,0.0,180.0,13.0,0.0
1969,41.0,0.0,180.0,14.0,0.0
1970,65.0,96.0,570.0,11.0,0.0
1971,53.0,96.0,180.0,13.0,0.0
1972,41.0,0.0,180.0,14.0,0.0
1973,53.0,0.0,180.0,12.0,0.0
1974,77.0,0.0,570.0,10.0,0.0
1975,53.0,0.0,180.0,13.0,0.0
1976,53.0,0.0,180.0,12.0,0.0
1977,41.0,144.0,180.0,14.0,0.0
1978,53.0,0.0,180.0,12.0,0.0
1979,41.0,192.0,180.0,14.0,0.0
1980,53.0,0.0,180.0,13.0,0.0
1981,75.0,0.0,150.0,10.0,0.0
1982,81.0,36.0,150.0,0.0,0.0
1983,41.0,0.0,180.0,14.0,0.0
1984,63.0,12.0,150.0,11.0,0.0
1985,69.0,0.0,150.0,1.0,0.0
1986,72.0,0.0,150.0,1.0,0.0
1987,53.0,0.0,180.0,13.0,0.0
1988,53.0,192.0,180.0,12.0,0.0
1989,53.0,0.0,180.0,13.0,0.0
1990,63.0,12.0,150.0,11.0,0.0
1991,72.0,0.0,150.0,1.0,0.0
1992,69.0,0.0,150.0,1.0,0.0
1993,75.0,0.0,150.0,10.0,0.0
1994,81.0,36.0,150.0,0.0,0.0
1995,41.0,192.0,180.0,14.0,0.0
1996,53.0,0.0,180.0,12.0,0.0
1997,72.0,36.0,150.0,1.0,0.0
1998,53.0,0.0,180.0,12.0,0.0
1999,81.0,0.0,150.0,0.0,0.0
2000,63.0,0.0,150.0,11.0,0.0
2001,75.0,12.0,150.0,10.0,0.0
2002,41.0,0.0,180.0,14.0,0.0
2003,69.0,0.0,150.0,1.0,0.0
2004,53.0,48.0,180.0,13.0,0.0
2005,81.0,0.0,240.0,0.0,0.0
2006,46.0,0.0,390.0,5.0,0.0
2007,54.0,0.0,390.0,12.0,0.0
2008,58.0,0.0,390.0,4.0,0.0
2009,70.0,0.0,390.0,4.0,0.0
2010,42.0,48.0,390.0,14.0,0.0
2011,63.0,0.0,240.0,11.0,0.0
2012,72.0,144.0,240.0,1.0,0.0
2013,54.0,0.0,390.0,13.0,0.0
2014,46.0,0.0,390.0,3.0,0.0
2015,58.0,0.0,390.0,3.0,0.0
2016,75.0,0.0,240.0,10.0,0.0
2017,69.0,0.0,240.0,1.0,0.0
2018,73.0,0.0,180.0,1.0,0.0
2019,70.0,0.0,180.0,1.0,0.0
2020,73.0,0.0,180.0,10.0,0.0
2021,61.0,0.0,180.0,11.0,0.0
2022,82.0,432.0,180.0,0.0,0.0
2023,73.0,0.0,390.0,1.0,0.0
2024,82.0,0.0,390.0,0.0,0.0
2025,73.0,480.0,390.0,10.0,0.0
2026,61.0,0.0,390.0,11.0,0.0
2027,70.0,0.0,390.0,1.0,0.0
2028,60.0,0.0,960.0,2.0,0.0
2029,51.0,0.0,960.0,2.0,0.0
2030,51.0,96.0,390.0,13.0,0.0
2031,39.0,0.0,390.0,14.0,0.0
2032,54.0,0.0,390.0,12.0,0.0
2033,72.0,0.0,240.0,10.0,0.0
2034,63.0,240.0,240.0,11.0,0.0
2035,66.0,240.0,240.0,11.0,0.0
2036,75.0,0.0,240.0,10.0,0.0
2037,63.0,384.0,240.0,11.0,0.0
2038,72.0,0.0,240.0,10.0,0.0
2039,49.0,384.0,960.0,2.0,0.0
2040,41.0,0.0,390.0,14.0,0.0
2041,53.0,0.0,390.0,12.0,0.0
2042,53.0,96.0,390.0,13.0,0.0
2043,58.0,0.0,960.0,2.0,0.0
2044,70.0,0.0,240.0,10.0,0.0
2045,61.0,240.0,240.0,11.0,0.0
2046,73.0,0.0,240.0,10.0,0.0
2047,65.0,240.0,240.0,11.0,0.0
2048,61.0,0.0,240.0,11.0,0.0
2049,70.0,0.0,240.0,10.0,0.0
2050,48.0,0.0,960.0,2.0,0.0
2051,53.0,0.0,390.0,12.0,0.0
2052,57.0,0.0,960.0,2.0,0.0
2053,29.0,0.0,390.0,14.0,0.0
2054,41.0,96.0,390.0,13.0,0.0
2055,69.0,0.0,240.0,10.0,0.0
2056,60.0,240.0,240.0,11.0,0.0
2057,72.0,240.0,240.0,10.0,0.0
2058,63.0,0.0,240.0,11.0,0.0
2059,69.0,96.0,240.0,10.0,0.0
2060,60.0,0.0,240.0,11.0,0.0
2061,58.0,0.0,570.0,11.0,0.0
2062,46.0,24.0,420.0,13.0,0.0
2063,34.0,0.0,420.0,14.0,0.0
2064,58.0,0.0,570.0,1.0,0.0
2065,46.0,0.0,570.0,12.0,0.0
2066,58.0,0.0,390.0,2.0,0.0
2067,46.0,48.0,390.0,2.0,0.0
2068,46.0,0.0,390.0,5.0,0.0
2069,58.0,0.0,90.0,10.0,0.0
2070,70.0,0.0,390.0,4.0,0.0
2071,58.0,0.0,390.0,4.0,0.0
2072,70.0,120.0,90.0,10.0,0.0
2073,58.0,0.0,6150.0,3.0,0.0
2074,46.0,0.0,6150.0,3.0,0.0
2075,70.0,0.0,570.0,1.0,0.0
2076,82.0,240.0,6150.0,0.0,0.0
2077,58.0,120.0,90.0,10.0,0.0
2078,70.0,0.0,90.0,10.0,0.0
2079,58.0,48.0,90.0,10.0,0.0
2080,70.0,0.0,90.0,10.0,0.0
2081,58.0,120.0,90.0,10.0,0.0
2082,70.0,0.0,90.0,10.0,0.0
2083,70.0,0.0,90.0,10.0,0.0
2084,58.0,120.0,90.0,10.0,0.0
2085,58.0,120.0,90.0,10.0,0.0
2086,70.0,0.0,90.0,10.0,0.0
2087,58.0,0.0,150.0,1.0,0.0
2088,34.0,0.0,150.0,14.0,0.0
2089,46.0,0.0,150.0,12.0,0.0
2090,70.0,0.0,90.0,10.0,0.0
2091,58.0,48.0,90.0,10.0,0.0
2092,70.0,0.0,150.0,1.0,0.0
2093,46.0,0.0,150.0,2.0,0.0
2094,46.0,72.0,150.0,13.0,0.0
2095,58.0,0.0,90.0,11.0,0.0
2096,58.0,120.0,90.0,11.0,0.0
2097,58.0,0.0,90.0,10.0,0.0
2098,70.0,0.0,90.0,10.0,0.0
2099,59.0,0.0,150.0,1.0,0.0
2100,71.0,0.0,150.0,1.0,0.0
2101,70.0,0.0,90.0,10.0,0.0
2102,47.0,0.0,150.0,12.0,0.0
2103,59.0,48.0,90.0,11.0,0.0
2104,47.0,0.0,150.0,13.0,0.0
2105,47.0,72.0,150.0,2.0,0.0
2106,35.0,0.0,150.0,14.0,0.0
2107,58.0,0.0,90.0,10.0,0.0
2108,58.0,120.0,90.0,10.0,0.0
2109,70.0,0.0,90.0,10.0,0.0
2110,59.0,0.0,90.0,11.0,0.0
2111,34.0,0.0,150.0,14.0,0.0
2112,46.0,0.0,150.0,13.0,0.0
2113,58.0,48.0,90.0,11.0,0.0
2114,46.0,72.0,150.0,2.0,0.0
2115,70.0,0.0,90.0,10.0,0.0
2116,70.0,0.0,150.0,1.0,0.0
2117,58.0,0.0,90.0,10.0,0.0
2118,46.0,0.0,150.0,12.0,0.0
2119,58.0,0.0,150.0,1.0,0.0
2120,58.0,0.0,90.0,10.0,0.0
2121,58.0,0.0,90.0,11.0,0.0
2122,70.0,120.0,90.0,10.0,0.0
2123,58.0,0.0,90.0,10.0,0.0
2124,70.0,48.0,90.0,10.0,0.0
2125,48.0,0.0,150.0,2.0,0.0
2126,36.0,0.0,150.0,14.0,0.0
2127,60.0,72.0,150.0,1.0,0.0
2128,72.0,0.0,150.0,1.0,0.0
2129,48.0,0.0,150.0,12.0,0.0
2130,60.0,0.0,90.0,11.0,0.0
2131,48.0,0.0,150.0,13.0,0.0
2132,58.0,0.0,90.0,10.0,0.0
2133,70.0,0.0,90.0,10.0,0.0
2134,60.0,120.0,90.0,11.0,0.0
2135,62.0,48.0,90.0,11.0,0.0
2136,50.0,0.0,150.0,2.0,0.0
2137,50.0,0.0,150.0,12.0,0.0
2138,38.0,72.0,150.0,14.0,0.0
2139,70.0,0.0,90.0,10.0,0.0
2140,50.0,0.0,150.0,13.0,0.0
2141,58.0,0.0,90.0,10.0,0.0
2142,62.0,0.0,150.0,1.0,0.0
2143,74.0,0.0,150.0,1.0,0.0
2144,62.0,0.0,90.0,11.0,0.0
2145,58.0,120.0,90.0,10.0,0.0
2146,70.0,0.0,90.0,10.0,0.0
2147,46.0,0.0,390.0,5.0,0.0
2148,63.0,0.0,150.0,1.0,0.0
2149,58.0,0.0,390.0,4.0,0.0
2150,39.0,0.0,150.0,14.0,0.0
2151,63.0,0.0,90.0,11.0,0.0
2152,70.0,72.0,390.0,4.0,0.0
2153,51.0,0.0,150.0,2.0,0.0
2154,51.0,72.0,150.0,13.0,0.0
2155,51.0,0.0,150.0,12.0,0.0
2156,58.0,48.0,90.0,10.0,0.0
2157,70.0,0.0,90.0,10.0,0.0
2158,75.0,0.0,150.0,1.0,0.0
2159,63.0,0.0,90.0,11.0,0.0
2160,70.0,120.0,90.0,10.0,0.0
2161,58.0,0.0,90.0,10.0,0.0
2162,50.0,0.0,150.0,12.0,0.0
2163,50.0,0.0,150.0,2.0,0.0
2164,38.0,0.0,150.0,14.0,0.0
2165,58.0,0.0,90.0,10.0,0.0
2166,70.0,0.0,90.0,10.0,0.0
2167,62.0,0.0,150.0,1.0,0.0
2168,74.0,0.0,150.0,1.0,0.0
2169,50.0,0.0,150.0,13.0,0.0
2170,62.0,48.0,90.0,11.0,0.0
2171,58.0,120.0,90.0,10.0,0.0
2172,62.0,0.0,90.0,11.0,0.0
2173,70.0,0.0,90.0,10.0,0.0
2174,58.0,0.0,90.0,10.0,0.0
2175,51.0,0.0,150.0,12.0,0.0
2176,39.0,72.0,150.0,14.0,0.0
2177,70.0,0.0,90.0,10.0,0.0
2178,51.0,0.0,150.0,2.0,0.0
2179,63.0,0.0,150.0,1.0,0.0
2180,75.0,0.0,150.0,1.0,0.0
2181,63.0,48.0,90.0,11.0,0.0
2182,51.0,0.0,150.0,13.0,0.0
2183,63.0,0.0,90.0,11.0,0.0
2184,70.0,0.0,90.0,10.0,0.0
2185,58.0,120.0,90.0,10.0,0.0
2186,60.0,0.0,90.0,11.0,0.0
2187,36.0,0.0,150.0,14.0,0.0
2188,60.0,0.0,150.0,1.0,0.0
2189,72.0,0.0,150.0,1.0,0.0
2190,48.0,0.0,150.0,12.0,0.0
2191,48.0,0.0,150.0,13.0,0.0
2192,58.0,0.0,90.0,10.0,0.0
2193,70.0,48.0,90.0,10.0,0.0
2194,48.0,72.0,150.0,2.0,0.0
2195,58.0,120.0,90.0,10.0,0.0
2196,60.0,0.0,90.0,11.0,0.0
2197,70.0,0.0,90.0,10.0,0.0
2198,73.0,0.0,150.0,1.0,0.0
2199,49.0,0.0,150.0,13.0,0.0
2200,61.0,0.0,90.0,11.0,0.0
2201,61.0,0.0,150.0,1.0,0.0
2202,49.0,72.0,150.0,2.0,0.0
2203,70.0,0.0,90.0,10.0,0.0
2204,58.0,48.0,90.0,10.0,0.0
2205,37.0,0.0,150.0,14.0,0.0
2206,49.0,0.0,150.0,12.0,0.0
2207,70.0,0.0,90.0,10.0,0.0
2208,61.0,120.0,90.0,11.0,0.0
2209,58.0,0.0,90.0,10.0,0.0
2210,60.0,0.0,150.0,1.0,0.0
2211,48.0,0.0,150.0,2.0,0.0
2212,60.0,48.0,90.0,11.0,0.0
2213,72.0,0.0,150.0,1.0,0.0
2214,70.0,0.0,90.0,10.0,0.0
2215,58.0,0.0,90.0,10.0,0.0
2216,48.0,72.0,150.0,13.0,0.0
2217,36.0,0.0,150.0,14.0,0.0
2218,48.0,0.0,150.0,12.0,0.0
2219,70.0,120.0,90.0,10.0,0.0
2220,58.0,0.0,90.0,10.0,0.0
2221,60.0,0.0,90.0,11.0,0.0
2222,50.0,0.0,150.0,12.0,0.0
2223,62.0,0.0,150.0,1.0,0.0
2224,50.0,0.0,150.0,2.0,0.0
2225,70.0,48.0,90.0,10.0,0.0
2226,74.0,0.0,150.0,1.0,0.0
2227,62.0,0.0,90.0,11.0,0.0
2228,50.0,72.0,150.0,13.0,0.0
2229,38.0,0.0,150.0,14.0,0.0
2230,58.0,0.0,90.0,10.0,0.0
2231,70.0,0.0,90.0,10.0,0.0
2232,58.0,0.0,90.0,10.0,0.0
2233,62.0,120.0,90.0,11.0,0.0
2234,76.0,0.0,150.0,1.0,0.0
2235,64.0,72.0,150.0,1.0,0.0
2236,58.0,0.0,90.0,10.0,0.0
2237,70.0,0.0,90.0,10.0,0.0
2238,52.0,0.0,150.0,2.0,0.0
2239,40.0,0.0,150.0,14.0,0.0
2240,52.0,0.0,150.0,13.0,0.0
2241,64.0,48.0,90.0,11.0,0.0
2242,52.0,0.0,150.0,12.0,0.0
2243,64.0,0.0,90.0,11.0,0.0
2244,70.0,120.0,90.0,10.0,0.0
2245,58.0,0.0,90.0,10.0,0.0
2246,70.0,0.0,390.0,4.0,0.0
2247,58.0,0.0,390.0,4.0,0.0
2248,70.0,0.0,90.0,10.0,0.0
2249,58.0,48.0,90.0,10.0,0.0
2250,77.0,72.0,150.0,1.0,0.0
2251,65.0,0.0,90.0,11.0,0.0
2252,53.0,0.0,150.0,2.0,0.0
2253,41.0,0.0,150.0,14.0,0.0
2254,53.0,0.0,150.0,12.0,0.0
2255,65.0,0.0,150.0,1.0,0.0
2256,53.0,0.0,150.0,13.0,0.0
2257,46.0,0.0,390.0,5.0,0.0
2258,70.0,0.0,90.0,10.0,0.0
2259,58.0,120.0,90.0,10.0,0.0
2260,65.0,0.0,90.0,11.0,0.0
2261,58.0,48.0,90.0,10.0,0.0
2262,52.0,0.0,150.0,2.0,0.0
2263,70.0,0.0,90.0,10.0,0.0
2264,52.0,0.0,150.0,12.0,0.0
2265,40.0,72.0,150.0,14.0,0.0
2266,76.0,0.0,150.0,1.0,0.0
2267,64.0,0.0,150.0,1.0,0.0
2268,52.0,0.0,150.0,13.0,0.0
2269,64.0,0.0,90.0,11.0,0.0
2270,70.0,120.0,90.0,10.0,0.0
2271,64.0,0.0,90.0,11.0,0.0
2272,58.0,0.0,90.0,10.0,0.0
2273,65.0,0.0,90.0,11.0,0.0
2274,65.0,0.0,150.0,1.0,0.0
2275,53.0,0.0,150.0,2.0,0.0
2276,53.0,0.0,150.0,13.0,0.0
2277,58.0,48.0,90.0,10.0,0.0
2278,53.0,0.0,150.0,12.0,0.0
2279,77.0,72.0,150.0,1.0,0.0
2280,41.0,0.0,150.0,14.0,0.0
2281,70.0,0.0,90.0,10.0,0.0
2282,65.0,0.0,90.0,11.0,0.0
2283,70.0,0.0,90.0,10.0,0.0
2284,58.0,120.0,90.0,10.0,0.0
2285,70.0,0.0,90.0,10.0,0.0
2286,58.0,0.0,90.0,10.0,0.0
2287,50.0,0.0,150.0,12.0,0.0
2288,38.0,0.0,150.0,14.0,0.0
2289,74.0,0.0,150.0,1.0,0.0
2290,62.0,0.0,150.0,1.0,0.0
2291,50.0,0.0,150.0,13.0,0.0
2292,50.0,72.0,150.0,2.0,0.0
2293,62.0,48.0,90.0,11.0,0.0
2294,70.0,120.0,90.0,10.0,0.0
2295,58.0,0.0,90.0,10.0,0.0
2296,62.0,0.0,90.0,11.0,0.0
2297,51.0,0.0,150.0,13.0,0.0
2298,51.0,0.0,150.0,12.0,0.0
2299,51.0,72.0,150.0,2.0,0.0
2300,58.0,48.0,90.0,10.0,0.0
2301,75.0,0.0,150.0,1.0,0.0
2302,63.0,0.0,150.0,1.0,0.0
2303,63.0,0.0,90.0,11.0,0.0
2304,70.0,0.0,90.0,10.0,0.0
2305,39.0,0.0,150.0,14.0,0.0
2306,63.0,0.0,90.0,11.0,0.0
2307,58.0,0.0,90.0,10.0,0.0
2308,70.0,120.0,90.0,10.0,0.0
2309,62.0,0.0,150.0,1.0,0.0
2310,74.0,0.0,150.0,1.0,0.0
2311,62.0,48.0,90.0,11.0,0.0
2312,38.0,72.0,150.0,14.0,0.0
2313,50.0,0.0,150.0,13.0,0.0
2314,58.0,0.0,90.0,10.0,0.0
2315,70.0,0.0,90.0,10.0,0.0
2316,50.0,0.0,150.0,2.0,0.0
2317,50.0,0.0,150.0,12.0,0.0
2318,70.0,0.0,90.0,10.0,0.0
2319,58.0,0.0,90.0,10.0,0.0
2320,62.0,120.0,90.0,11.0,0.0
2321,51.0,0.0,150.0,2.0,0.0
2322,70.0,0.0,90.0,10.0,0.0
2323,75.0,0.0,150.0,1.0,0.0
2324,58.0,0.0,90.0,10.0,0.0
2325,39.0,0.0,150.0,14.0,0.0
2326,51.0,0.0,150.0,13.0,0.0
2327,51.0,72.0,150.0,12.0,0.0
2328,63.0,0.0,150.0,1.0,0.0
2329,63.0,48.0,90.0,11.0,0.0
2330,70.0,0.0,90.0,10.0,0.0
2331,58.0,120.0,90.0,10.0,0.0
2332,63.0,0.0,90.0,11.0,0.0
2333,77.0,0.0,150.0,1.0,0.0
2334,58.0,48.0,90.0,10.0,0.0
2335,41.0,0.0,150.0,14.0,0.0
2336,70.0,0.0,90.0,10.0,0.0
2337,53.0,0.0,150.0,2.0,0.0
2338,53.0,0.0,150.0,13.0,0.0
2339,65.0,0.0,150.0,1.0,0.0
2340,53.0,72.0,150.0,12.0,0.0
2341,65.0,0.0,90.0,11.0,0.0
2342,65.0,0.0,90.0,11.0,0.0
2343,58.0,168.0,90.0,10.0,0.0
2344,70.0,0.0,90.0,10.0,0.0
2345,58.0,0.0,150.0,10.0,0.0
2346,70.0,240.0,150.0,10.0,0.0
2347,54.0,0.0,390.0,2.0,0.0
2348,70.0,0.0,390.0,4.0,0.0
2349,66.0,0.0,390.0,1.0,0.0
2350,78.0,0.0,390.0,1.0,0.0
2351,46.0,0.0,390.0,5.0,0.0
2352,42.0,0.0,390.0,14.0,0.0
2353,54.0,0.0,390.0,13.0,0.0
2354,58.0,0.0,390.0,4.0,0.0
2355,66.0,0.0,150.0,11.0,0.0
2356,54.0,0.0,390.0,12.0,0.0
2357,70.0,0.0,150.0,11.0,0.0
2358,82.0,0.0,150.0,10.0,0.0
2359,70.0,0.0,150.0,11.0,0.0
2360,82.0,240.0,150.0,10.0,0.0
2361,70.0,240.0,150.0,11.0,0.0
2362,82.0,0.0,150.0,10.0,0.0
2363,82.0,0.0,150.0,10.0,0.0
2364,70.0,240.0,150.0,11.0,0.0
2365,70.0,240.0,150.0,11.0,0.0
2366,82.0,0.0,150.0,10.0,0.0
2367,70.0,240.0,150.0,11.0,0.0
2368,82.0,0.0,150.0,10.0,0.0
2369,70.0,336.0,150.0,11.0,0.0
2370,82.0,0.0,150.0,10.0,0.0
2371,46.0,0.0,390.0,5.0,0.0
2372,68.0,144.0,240.0,11.0,0.0
2373,58.0,0.0,390.0,4.0,0.0
2374,70.0,0.0,390.0,4.0,0.0
2375,80.0,0.0,240.0,10.0,0.0
2376,39.0,0.0,150.0,13.0,0.0
2377,70.0,0.0,150.0,1.0,0.0
2378,27.0,0.0,150.0,14.0,0.0
2379,39.0,0.0,150.0,2.0,0.0
2380,51.0,0.0,150.0,12.0,0.0
2381,75.0,84.0,150.0,1.0,0.0
2382,78.0,0.0,150.0,0.0,0.0
2383,78.0,156.0,240.0,10.0,0.0
2384,66.0,0.0,240.0,11.0,0.0
2385,51.0,0.0,150.0,12.0,0.0
2386,78.0,0.0,150.0,0.0,0.0
2387,58.0,0.0,780.0,3.0,0.0
2388,46.0,96.0,780.0,3.0,0.0
2389,75.0,0.0,150.0,1.0,0.0
2390,51.0,0.0,150.0,13.0,0.0
2391,66.0,0.0,960.0,11.0,0.0
2392,39.0,0.0,150.0,14.0,0.0
2393,78.0,144.0,960.0,10.0,0.0
2394,51.0,0.0,150.0,2.0,0.0
2395,70.0,240.0,150.0,1.0,0.0
2396,39.0,0.0,150.0,14.0,0.0
2397,78.0,0.0,150.0,0.0,0.0
2398,51.0,0.0,150.0,13.0,0.0
2399,51.0,0.0,150.0,12.0,0.0
2400,70.0,240.0,150.0,1.0,0.0
2401,51.0,0.0,150.0,2.0,0.0
2402,75.0,0.0,150.0,1.0,0.0
2403,39.0,0.0,150.0,14.0,0.0
2404,51.0,0.0,150.0,12.0,0.0
2405,78.0,0.0,150.0,0.0,0.0
2406,51.0,0.0,150.0,13.0,0.0
2407,75.0,0.0,150.0,1.0,0.0
2408,70.0,144.0,150.0,1.0,0.0
2409,51.0,0.0,150.0,2.0,0.0
2410,39.0,0.0,150.0,14.0,0.0
2411,70.0,0.0,150.0,1.0,0.0
2412,51.0,0.0,150.0,12.0,0.0
2413,51.0,96.0,150.0,2.0,0.0
2414,78.0,0.0,150.0,0.0,0.0
2415,75.0,0.0,150.0,1.0,0.0
2416,51.0,0.0,150.0,13.0,0.0
2417,58.0,72.0,390.0,3.0,0.0
2418,46.0,0.0,390.0,3.0,0.0
2419,77.0,0.0,150.0,0.0,0.0
2420,65.0,0.0,450.0,11.0,0.0
2421,41.0,0.0,150.0,14.0,0.0
2422,53.0,0.0,150.0,2.0,0.0
2423,73.0,0.0,150.0,1.0,0.0
2424,70.0,0.0,150.0,1.0,0.0
2425,53.0,240.0,150.0,12.0,0.0
2426,53.0,0.0,150.0,13.0,0.0
2427,77.0,168.0,450.0,10.0,0.0
2428,53.0,0.0,150.0,13.0,0.0
2429,53.0,0.0,150.0,2.0,0.0
2430,73.0,0.0,150.0,1.0,0.0
2431,77.0,0.0,150.0,0.0,0.0
2432,70.0,0.0,150.0,1.0,0.0
2433,53.0,0.0,150.0,12.0,0.0
2434,41.0,0.0,150.0,14.0,0.0
2435,55.0,96.0,150.0,12.0,0.0
2436,46.0,0.0,390.0,5.0,0.0
2437,58.0,48.0,1530.0,3.0,0.0
2438,77.0,0.0,240.0,10.0,0.0
2439,46.0,0.0,1530.0,3.0,0.0
2440,43.0,0.0,150.0,14.0,0.0
2441,55.0,0.0,150.0,13.0,0.0
2442,70.0,84.0,390.0,4.0,0.0
2443,58.0,0.0,390.0,4.0,0.0
2444,65.0,144.0,240.0,11.0,0.0
2445,55.0,0.0,150.0,2.0,0.0
2446,70.0,0.0,150.0,1.0,0.0
2447,63.0,0.0,150.0,1.0,0.0
2448,31.0,0.0,150.0,14.0,0.0
2449,55.0,0.0,150.0,12.0,0.0
2450,63.0,156.0,240.0,11.0,0.0
2451,43.0,0.0,150.0,2.0,0.0
2452,75.0,0.0,240.0,10.0,0.0
2453,75.0,0.0,150.0,0.0,0.0
2454,43.0,0.0,150.0,13.0,0.0
2455,70.0,0.0,150.0,1.0,0.0
2456,63.0,0.0,150.0,1.0,0.0
2457,55.0,0.0,150.0,12.0,0.0
2458,55.0,0.0,150.0,2.0,0.0
2459,43.0,0.0,150.0,14.0,0.0
2460,75.0,0.0,960.0,10.0,0.0
2461,63.0,96.0,960.0,11.0,0.0
2462,55.0,240.0,150.0,13.0,0.0
2463,75.0,0.0,150.0,0.0,0.0
2464,55.0,0.0,150.0,13.0,0.0
2465,75.0,0.0,150.0,0.0,0.0
2466,55.0,0.0,150.0,2.0,0.0
2467,63.0,0.0,150.0,1.0,0.0
2468,43.0,0.0,150.0,14.0,0.0
2469,70.0,0.0,150.0,1.0,0.0
2470,55.0,240.0,150.0,12.0,0.0
2471,63.0,240.0,150.0,1.0,0.0
2472,70.0,0.0,150.0,1.0,0.0
2473,75.0,0.0,150.0,0.0,0.0
2474,55.0,0.0,150.0,2.0,0.0
2475,55.0,0.0,150.0,12.0,0.0
2476,43.0,0.0,150.0,14.0,0.0
2477,55.0,0.0,150.0,13.0,0.0
2478,75.0,0.0,150.0,0.0,0.0
2479,43.0,0.0,150.0,14.0,0.0
2480,55.0,0.0,150.0,13.0,0.0
2481,55.0,96.0,150.0,12.0,0.0
2482,55.0,0.0,150.0,2.0,0.0
2483,70.0,0.0,150.0,1.0,0.0
2484,63.0,0.0,150.0,1.0,0.0
2485,76.0,0.0,150.0,0.0,0.0
2486,54.0,0.0,150.0,2.0,0.0
2487,58.0,0.0,150.0,2.0,0.0
2488,72.0,240.0,150.0,1.0,0.0
2489,70.0,0.0,150.0,1.0,0.0
2490,54.0,0.0,150.0,13.0,0.0
2491,64.0,168.0,450.0,11.0,0.0
2492,54.0,0.0,150.0,12.0,0.0
2493,76.0,0.0,450.0,10.0,0.0
2494,42.0,0.0,150.0,14.0,0.0
2495,76.0,0.0,150.0,0.0,0.0
2496,54.0,0.0,150.0,12.0,0.0
2497,54.0,72.0,150.0,13.0,0.0
2498,58.0,0.0,150.0,2.0,0.0
2499,54.0,0.0,150.0,2.0,0.0
2500,70.0,0.0,150.0,1.0,0.0
2501,72.0,0.0,150.0,1.0,0.0
2502,42.0,0.0,150.0,14.0,0.0
2503,70.0,0.0,960.0,1.0,0.0
2504,58.0,0.0,960.0,2.0,0.0
2505,73.0,144.0,960.0,1.0,0.0
2506,53.0,48.0,780.0,3.0,0.0
2507,53.0,0.0,150.0,12.0,0.0
2508,65.0,84.0,690.0,11.0,0.0
2509,61.0,0.0,960.0,2.0,0.0
2510,65.0,0.0,780.0,4.0,0.0
2511,77.0,0.0,1920.0,0.0,0.0
2512,41.0,0.0,390.0,5.0,0.0
2513,53.0,240.0,150.0,13.0,0.0
2514,41.0,0.0,150.0,14.0,0.0
2515,77.0,0.0,690.0,10.0,0.0
2516,53.0,240.0,150.0,12.0,0.0
2517,41.0,0.0,150.0,14.0,0.0
2518,53.0,0.0,150.0,13.0,0.0
2519,53.0,0.0,150.0,12.0,0.0
2520,53.0,60.0,150.0,13.0,0.0
2521,41.0,0.0,150.0,14.0,0.0
2522,41.0,72.0,150.0,14.0,0.0
2523,73.0,48.0,90.0,10.0,0.0
2524,53.0,0.0,150.0,12.0,0.0
2525,61.0,0.0,90.0,11.0,0.0
2526,53.0,0.0,150.0,13.0,0.0
2527,58.0,0.0,90.0,11.0,0.0
2528,70.0,24.0,90.0,10.0,0.0
2529,41.0,144.0,150.0,14.0,0.0
2530,57.0,0.0,960.0,2.0,0.0
2531,53.0,0.0,300.0,11.0,0.0
2532,53.0,0.0,150.0,12.0,0.0
2533,53.0,0.0,390.0,3.0,0.0
2534,53.0,0.0,150.0,13.0,0.0
2535,65.0,0.0,390.0,4.0,0.0
2536,41.0,0.0,390.0,5.0,0.0
2537,60.0,384.0,960.0,2.0,0.0
2538,69.0,0.0,960.0,1.0,0.0
2539,65.0,96.0,300.0,10.0,0.0
2540,72.0,0.0,960.0,1.0,0.0
2541,53.0,240.0,150.0,13.0,0.0
2542,53.0,0.0,150.0,12.0,0.0
2543,41.0,0.0,150.0,14.0,0.0
2544,53.0,144.0,150.0,12.0,0.0
2545,53.0,0.0,390.0,3.0,0.0
2546,60.0,0.0,300.0,11.0,0.0
2547,69.0,0.0,300.0,11.0,0.0
2548,53.0,0.0,300.0,11.0,0.0
2549,41.0,0.0,150.0,14.0,0.0
2550,69.0,96.0,300.0,10.0,0.0
2551,60.0,0.0,300.0,10.0,0.0
2552,53.0,0.0,300.0,10.0,0.0
2553,53.0,0.0,150.0,13.0,0.0
2554,65.0,0.0,390.0,4.0,0.0
2555,53.0,0.0,150.0,13.0,0.0
2556,41.0,96.0,150.0,14.0,0.0
2557,53.0,0.0,150.0,12.0,0.0
2558,70.0,0.0,390.0,1.0,0.0
2559,46.0,0.0,390.0,5.0,0.0
2560,53.0,0.0,390.0,3.0,0.0
2561,46.0,0.0,390.0,3.0,0.0
2562,37.0,0.0,390.0,14.0,0.0
2563,70.0,240.0,390.0,0.0,0.0
2564,49.0,0.0,390.0,13.0,0.0
2565,65.0,0.0,390.0,4.0,0.0
2566,53.0,0.0,390.0,12.0,0.0
2567,58.0,0.0,390.0,2.0,0.0
2568,58.0,0.0,390.0,4.0,0.0
2569,58.0,0.0,150.0,11.0,0.0
2570,70.0,0.0,150.0,10.0,0.0
2571,70.0,240.0,150.0,11.0,0.0
2572,82.0,0.0,150.0,10.0,0.0
2573,82.0,0.0,150.0,10.0,0.0
2574,70.0,240.0,150.0,11.0,0.0
2575,82.0,240.0,150.0,10.0,0.0
2576,70.0,0.0,150.0,11.0,0.0
2577,70.0,0.0,150.0,11.0,0.0
2578,82.0,240.0,150.0,10.0,0.0
2579,70.0,240.0,150.0,11.0,0.0
2580,82.0,0.0,150.0,10.0,0.0
2581,70.0,0.0,150.0,11.0,0.0
2582,82.0,336.0,150.0,10.0,0.0
2583,58.0,0.0,390.0,4.0,0.0
2584,68.0,0.0,240.0,11.0,0.0
2585,80.0,144.0,240.0,10.0,0.0
2586,70.0,0.0,390.0,4.0,0.0
2587,46.0,84.0,390.0,5.0,0.0
2588,39.0,0.0,150.0,2.0,0.0
2589,66.0,156.0,240.0,11.0,0.0
2590,27.0,0.0,150.0,14.0,0.0
2591,70.0,0.0,150.0,1.0,0.0
2592,39.0,0.0,150.0,13.0,0.0
2593,78.0,0.0,150.0,0.0,0.0
2594,78.0,0.0,240.0,10.0,0.0
2595,75.0,0.0,150.0,1.0,0.0
2596,51.0,0.0,150.0,12.0,0.0
2597,78.0,0.0,960.0,10.0,0.0
2598,51.0,0.0,150.0,2.0,0.0
2599,66.0,144.0,960.0,11.0,0.0
2600,51.0,0.0,150.0,12.0,0.0
2601,46.0,96.0,780.0,3.0,0.0
2602,58.0,0.0,780.0,3.0,0.0
2603,70.0,0.0,150.0,1.0,0.0
2604,75.0,0.0,150.0,1.0,0.0
2605,39.0,0.0,150.0,14.0,0.0
2606,78.0,0.0,150.0,0.0,0.0
2607,51.0,240.0,150.0,13.0,0.0
2608,51.0,0.0,150.0,13.0,0.0
2609,39.0,0.0,150.0,14.0,0.0
2610,75.0,0.0,150.0,1.0,0.0
2611,51.0,0.0,150.0,2.0,0.0
2612,78.0,0.0,150.0,0.0,0.0
2613,70.0,0.0,150.0,1.0,0.0
2614,51.0,240.0,150.0,12.0,0.0
2615,39.0,0.0,150.0,14.0,0.0
2616,70.0,0.0,150.0,1.0,0.0
2617,75.0,0.0,150.0,1.0,0.0
2618,78.0,144.0,150.0,0.0,0.0
2619,51.0,0.0,150.0,12.0,0.0
2620,51.0,0.0,150.0,13.0,0.0
2621,51.0,0.0,150.0,2.0,0.0
2622,51.0,0.0,150.0,2.0,0.0
2623,78.0,0.0,150.0,0.0,0.0
2624,51.0,0.0,150.0,13.0,0.0
2625,75.0,0.0,150.0,1.0,0.0
2626,70.0,0.0,150.0,1.0,0.0
2627,51.0,0.0,150.0,12.0,0.0
2628,39.0,96.0,150.0,14.0,0.0
2629,53.0,0.0,150.0,13.0,0.0
2630,70.0,0.0,150.0,1.0,0.0
2631,53.0,240.0,150.0,2.0,0.0
2632,53.0,0.0,150.0,12.0,0.0
2633,77.0,0.0,450.0,10.0,0.0
2634,73.0,0.0,150.0,1.0,0.0
2635,41.0,0.0,150.0,14.0,0.0
2636,65.0,216.0,450.0,11.0,0.0
2637,58.0,0.0,390.0,3.0,0.0
2638,46.0,0.0,390.0,3.0,0.0
2639,77.0,0.0,150.0,0.0,0.0
2640,70.0,72.0,150.0,1.0,0.0
2641,53.0,0.0,150.0,13.0,0.0
2642,73.0,0.0,150.0,1.0,0.0
2643,53.0,0.0,150.0,2.0,0.0
2644,41.0,0.0,150.0,14.0,0.0
2645,53.0,0.0,150.0,12.0,0.0
2646,77.0,0.0,150.0,0.0,0.0
2647,63.0,0.0,300.0,1.0,0.0
2648,46.0,0.0,390.0,3.0,0.0
2649,46.0,0.0,390.0,5.0,0.0
2650,77.0,48.0,240.0,10.0,0.0
2651,58.0,0.0,390.0,3.0,0.0
2652,65.0,0.0,240.0,11.0,0.0
2653,58.0,0.0,390.0,4.0,0.0
2654,55.0,96.0,300.0,2.0,0.0
2655,43.0,48.0,390.0,14.0,0.0
2656,55.0,0.0,390.0,13.0,0.0
2657,70.0,0.0,390.0,4.0,0.0
2658,77.0,48.0,180.0,0.0,0.0
2659,70.0,0.0,300.0,1.0,0.0
2660,55.0,0.0,390.0,12.0,0.0
2661,63.0,0.0,180.0,11.0,0.0
2662,75.0,0.0,180.0,0.0,0.0
2663,75.0,336.0,180.0,10.0,0.0
2664,43.0,0.0,390.0,14.0,0.0
2665,55.0,1296.0,390.0,13.0,0.0
2666,63.0,0.0,300.0,1.0,0.0
2667,75.0,0.0,390.0,0.0,0.0
2668,70.0,96.0,300.0,1.0,0.0
2669,46.0,0.0,390.0,5.0,0.0
2670,63.0,0.0,390.0,11.0,0.0
2671,58.0,0.0,390.0,4.0,0.0
2672,55.0,0.0,300.0,2.0,0.0
2673,70.0,0.0,390.0,4.0,0.0
2674,75.0,0.0,390.0,10.0,0.0
2675,58.0,0.0,390.0,3.0,0.0
2676,46.0,0.0,390.0,3.0,0.0
2677,55.0,0.0,390.0,12.0,0.0
2678,75.0,0.0,240.0,10.0,0.0
2679,46.0,0.0,390.0,3.0,0.0
2680,42.0,48.0,390.0,14.0,0.0
2681,70.0,0.0,390.0,11.0,0.0
2682,58.0,144.0,240.0,12.0,0.0
2683,58.0,0.0,390.0,3.0,0.0
2684,54.0,0.0,390.0,13.0,0.0
2685,54.0,0.0,390.0,2.0,0.0
2686,60.0,432.0,180.0,12.0,0.0
2687,76.0,0.0,180.0,10.0,0.0
2688,46.0,1776.0,390.0,3.0,0.0
2689,54.0,0.0,390.0,2.0,0.0
2690,54.0,0.0,390.0,13.0,0.0
2691,60.0,0.0,390.0,12.0,0.0
2692,58.0,0.0,390.0,3.0,0.0
2693,70.0,0.0,390.0,11.0,0.0
2694,76.0,0.0,390.0,10.0,0.0
2695,42.0,0.0,390.0,14.0,0.0
2696,61.0,0.0,1890.0,12.0,0.0
2697,77.0,120.0,720.0,10.0,0.0
2698,53.0,38.0,1890.0,13.0,0.0
2699,41.0,0.0,1890.0,14.0,0.0
2700,53.0,0.0,3840.0,3.0,0.0
2701,53.0,144.0,1530.0,2.0,0.0
2702,70.0,0.0,1890.0,11.0,0.0
2703,41.0,0.0,3840.0,3.0,0.0
2704,73.0,114.0,120.0,10.0,0.0
2705,70.0,582.0,120.0,10.0,0.0
2706,77.0,120.0,720.0,10.0,0.0
2707,73.0,82.0,120.0,10.0,0.0
2708,70.0,288.0,120.0,10.0,0.0
2709,53.0,0.0,300.0,2.0,0.0
2710,53.0,0.0,300.0,13.0,0.0
2711,73.0,0.0,960.0,1.0,0.0
2712,41.0,0.0,300.0,14.0,0.0
2713,58.0,0.0,300.0,12.0,0.0
2714,65.0,0.0,300.0,10.0,0.0
2715,70.0,864.0,960.0,1.0,0.0
2716,77.0,0.0,960.0,0.0,0.0
2717,61.0,480.0,300.0,11.0,0.0
2718,41.0,0.0,300.0,14.0,0.0
2719,61.0,0.0,300.0,11.0,0.0
2720,53.0,192.0,300.0,2.0,0.0
2721,58.0,0.0,300.0,12.0,0.0
2722,65.0,0.0,300.0,10.0,0.0
2723,53.0,0.0,300.0,13.0,0.0
2724,81.0,144.0,960.0,0.0,0.0
2725,75.0,0.0,960.0,1.0,0.0
2726,72.0,0.0,960.0,1.0,0.0
2727,41.0,0.0,390.0,14.0,0.0
2728,63.0,0.0,480.0,11.0,0.0
2729,69.0,0.0,480.0,10.0,0.0
2730,53.0,96.0,390.0,13.0,0.0
2731,53.0,0.0,390.0,2.0,0.0
2732,60.0,0.0,480.0,12.0,0.0
2733,70.0,0.0,390.0,10.0,0.0
2734,70.0,0.0,390.0,1.0,0.0
2735,46.0,0.0,390.0,3.0,0.0
2736,46.0,0.0,390.0,2.0,0.0
2737,58.0,0.0,390.0,12.0,0.0
2738,82.0,96.0,390.0,0.0,0.0
2739,73.0,0.0,390.0,1.0,0.0
2740,61.0,240.0,150.0,11.0,0.0
2741,46.0,0.0,960.0,13.0,0.0
2742,34.0,240.0,960.0,14.0,0.0
2743,58.0,240.0,240.0,11.0,0.0
2744,65.0,228.0,240.0,11.0,0.0
2745,61.0,12.0,240.0,11.0,0.0
2746,49.0,0.0,960.0,13.0,0.0
2747,57.0,240.0,240.0,11.0,0.0
2748,37.0,240.0,960.0,14.0,0.0
2749,53.0,240.0,480.0,12.0,0.0
2750,58.0,0.0,240.0,11.0,0.0
2751,65.0,228.0,240.0,11.0,0.0
2752,73.0,48.0,720.0,10.0,0.0
2753,46.0,180.0,780.0,12.0,0.0
2754,61.0,12.0,240.0,11.0,0.0
2755,51.0,240.0,960.0,13.0,0.0
2756,39.0,0.0,960.0,14.0,0.0
2757,66.0,0.0,240.0,11.0,0.0
2758,63.0,240.0,240.0,11.0,0.0
2759,72.0,12.0,240.0,10.0,0.0
2760,60.0,228.0,240.0,11.0,0.0
2761,54.0,0.0,960.0,12.0,0.0
2762,75.0,0.0,960.0,10.0,0.0
2763,58.0,12.0,240.0,11.0,0.0
2764,53.0,0.0,930.0,13.0,0.0
2765,57.0,240.0,240.0,11.0,0.0
2766,41.0,8.0,930.0,14.0,0.0
2767,60.0,240.0,240.0,11.0,0.0
2768,53.0,0.0,450.0,12.0,0.0
2769,64.0,216.0,240.0,11.0,0.0
2770,73.0,4.0,450.0,10.0,0.0
2771,65.0,252.0,240.0,11.0,0.0
2772,54.0,0.0,960.0,13.0,0.0
2773,57.0,24.0,450.0,12.0,0.0
2774,72.0,240.0,480.0,10.0,0.0
2775,42.0,240.0,960.0,14.0,0.0
2776,63.0,216.0,240.0,11.0,0.0
2777,60.0,0.0,240.0,11.0,0.0
2778,63.0,216.0,240.0,11.0,0.0
2779,70.0,0.0,450.0,10.0,0.0
2780,58.0,12.0,450.0,12.0,0.0
2781,61.0,12.0,240.0,11.0,0.0
2782,37.0,0.0,960.0,14.0,0.0
2783,49.0,228.0,960.0,13.0,0.0
2784,64.0,240.0,240.0,11.0,0.0
2785,65.0,240.0,240.0,11.0,0.0
2786,53.0,12.0,720.0,12.0,0.0
2787,73.0,0.0,720.0,10.0,0.0
2788,61.0,228.0,240.0,11.0,0.0
2789,58.0,12.0,240.0,11.0,0.0
2790,39.0,0.0,960.0,14.0,0.0
2791,66.0,228.0,240.0,11.0,0.0
2792,51.0,240.0,960.0,13.0,0.0
2793,54.0,0.0,240.0,12.0,0.0
2794,72.0,12.0,240.0,10.0,0.0
2795,63.0,240.0,240.0,11.0,0.0
2796,78.0,0.0,960.0,10.0,0.0
2797,51.0,228.0,240.0,12.0,0.0
2798,60.0,0.0,240.0,11.0,0.0
2799,58.0,0.0,240.0,11.0,0.0
2800,49.0,12.0,240.0,12.0,0.0
2801,57.0,48.0,240.0,11.0,0.0
2802,41.0,8.0,930.0,14.0,0.0
2803,53.0,0.0,930.0,13.0,0.0
2804,48.0,192.0,300.0,12.0,0.0
2805,60.0,240.0,240.0,11.0,0.0
2806,77.0,4.0,450.0,10.0,0.0
2807,63.0,216.0,240.0,11.0,0.0
2808,57.0,228.0,720.0,12.0,0.0
2809,69.0,252.0,240.0,11.0,0.0
2810,42.0,0.0,960.0,14.0,0.0
2811,72.0,0.0,240.0,11.0,0.0
2812,75.0,240.0,480.0,10.0,0.0
2813,54.0,240.0,960.0,13.0,0.0
2814,69.0,0.0,240.0,11.0,0.0
2815,60.0,12.0,240.0,12.0,0.0
2816,72.0,216.0,240.0,11.0,0.0
2817,73.0,0.0,450.0,10.0,0.0
2818,58.0,12.0,450.0,12.0,0.0
2819,70.0,12.0,240.0,11.0,0.0
2820,61.0,0.0,960.0,12.0,0.0
2821,37.0,240.0,960.0,14.0,0.0
2822,64.0,240.0,240.0,11.0,0.0
2823,61.0,0.0,960.0,2.0,0.0
2824,49.0,0.0,960.0,13.0,0.0
2825,73.0,0.0,960.0,1.0,0.0
2826,70.0,0.0,1920.0,1.0,0.0
2827,58.0,0.0,1920.0,2.0,0.0
2828,65.0,240.0,240.0,11.0,0.0
2829,66.0,216.0,240.0,11.0,0.0
2830,82.0,24.0,450.0,10.0,0.0
2831,65.0,0.0,240.0,11.0,0.0
2832,60.0,0.0,960.0,12.0,0.0
2833,72.0,0.0,1920.0,1.0,0.0
2834,60.0,0.0,1920.0,2.0,0.0
2835,51.0,0.0,960.0,13.0,0.0
2836,68.0,240.0,240.0,11.0,0.0
2837,39.0,240.0,960.0,14.0,0.0
2838,66.0,240.0,240.0,11.0,0.0
2839,72.0,24.0,450.0,10.0,0.0
2840,63.0,216.0,240.0,11.0,0.0
2841,60.0,0.0,240.0,11.0,0.0
2842,57.0,0.0,960.0,2.0,0.0
2843,53.0,0.0,960.0,13.0,0.0
2844,69.0,0.0,960.0,1.0,0.0
2845,63.0,0.0,960.0,12.0,0.0
2846,41.0,0.0,960.0,14.0,0.0
2847,58.0,240.0,240.0,11.0,0.0
2848,57.0,240.0,240.0,11.0,0.0
2849,77.0,120.0,360.0,10.0,0.0
2850,60.0,120.0,240.0,11.0,0.0
2851,57.0,384.0,240.0,11.0,0.0
2852,34.0,0.0,390.0,14.0,0.0
2853,61.0,0.0,390.0,12.0,0.0
2854,58.0,72.0,390.0,11.0,0.0
2855,70.0,504.0,450.0,10.0,0.0
2856,46.0,0.0,390.0,13.0,0.0
2857,70.0,0.0,390.0,1.0,0.0
2858,58.0,0.0,390.0,2.0,0.0
2859,65.0,480.0,480.0,6.0,0.0
2860,77.0,456.0,480.0,6.0,0.0
2861,69.0,744.0,450.0,6.0,0.0
2862,72.0,228.0,720.0,6.0,0.0
2863,58.0,0.0,480.0,7.0,0.0
2864,70.0,12.0,240.0,6.0,0.0
2865,61.0,480.0,15.0,7.0,0.0
2866,70.0,48.0,900.0,6.0,0.0
2867,65.0,0.0,480.0,7.0,0.0
2868,63.0,0.0,480.0,7.0,0.0
2869,60.0,912.0,480.0,7.0,0.0
2870,58.0,48.0,900.0,7.0,0.0
2871,61.0,0.0,900.0,7.0,0.0
2872,70.0,480.0,480.0,6.0,0.0
2873,82.0,240.0,480.0,6.0,0.0
2874,80.0,228.0,240.0,6.0,0.0
2875,78.0,732.0,240.0,6.0,0.0
2876,77.0,228.0,720.0,6.0,0.0
2877,54.0,0.0,480.0,7.0,0.0
2878,75.0,12.0,240.0,6.0,0.0
2879,66.0,0.0,480.0,7.0,0.0
2880,58.0,480.0,15.0,7.0,0.0
2881,75.0,48.0,900.0,6.0,0.0
2882,56.0,912.0,480.0,7.0,0.0
2883,65.0,0.0,480.0,7.0,0.0
2884,63.0,48.0,900.0,7.0,0.0
2885,54.0,0.0,900.0,7.0,0.0
2886,75.0,240.0,480.0,6.0,0.0
2887,77.0,240.0,240.0,6.0,0.0
2888,75.0,240.0,240.0,6.0,0.0
2889,73.0,228.0,240.0,6.0,0.0
2890,72.0,492.0,240.0,6.0,0.0
2891,70.0,456.0,480.0,6.0,0.0
2892,53.0,0.0,480.0,7.0,0.0
2893,69.0,24.0,450.0,6.0,0.0
2894,63.0,480.0,480.0,7.0,0.0
2895,60.0,480.0,15.0,7.0,0.0
2896,66.0,240.0,1200.0,6.0,0.0
2897,61.0,240.0,480.0,7.0,0.0
2898,58.0,0.0,480.0,7.0,0.0
2899,57.0,48.0,900.0,7.0,0.0
2900,60.0,0.0,900.0,7.0,0.0
2901,65.0,240.0,240.0,6.0,0.0
2902,72.0,192.0,240.0,6.0,0.0
2903,69.0,240.0,240.0,6.0,0.0
2904,75.0,240.0,240.0,6.0,0.0
2905,72.0,240.0,240.0,6.0,0.0
2906,78.0,228.0,240.0,6.0,0.0
2907,77.0,252.0,240.0,6.0,0.0
2908,75.0,240.0,240.0,6.0,0.0
2909,73.0,240.0,240.0,6.0,0.0
2910,58.0,480.0,480.0,7.0,0.0
2911,61.0,0.0,480.0,7.0,0.0
2912,78.0,228.0,240.0,6.0,0.0
2913,77.0,12.0,240.0,6.0,0.0
2914,65.0,0.0,480.0,7.0,0.0
2915,77.0,48.0,900.0,6.0,0.0
2916,61.0,432.0,480.0,7.0,0.0
2917,60.0,456.0,480.0,7.0,0.0
2918,63.0,0.0,480.0,7.0,0.0
2919,58.0,0.0,900.0,7.0,0.0
2920,61.0,48.0,900.0,7.0,0.0
2921,70.0,144.0,90.0,6.0,0.0
2922,72.0,120.0,120.0,6.0,0.0
2923,70.0,120.0,120.0,6.0,0.0
2924,69.0,72.0,120.0,6.0,0.0
2925,70.0,288.0,120.0,6.0,0.0
2926,85.0,480.0,300.0,6.0,0.0
2927,85.0,912.0,300.0,6.0,0.0
2928,85.0,228.0,720.0,6.0,0.0
2929,51.0,480.0,480.0,7.0,0.0
2930,54.0,0.0,480.0,7.0,0.0
2931,84.0,12.0,240.0,6.0,0.0
2932,54.0,480.0,480.0,7.0,0.0
2933,58.0,0.0,480.0,7.0,0.0
2934,84.0,144.0,1410.0,6.0,0.0
2935,55.0,0.0,480.0,7.0,0.0
2936,52.0,456.0,480.0,7.0,0.0
2937,57.0,0.0,960.0,7.0,0.0
2938,53.0,120.0,960.0,7.0,0.0
2939,82.0,342.0,120.0,6.0,0.0
2940,81.0,18.0,330.0,6.0,0.0
2941,78.0,588.0,120.0,6.0,0.0
2942,77.0,240.0,600.0,6.0,0.0
2943,75.0,132.0,240.0,6.0,0.0
2944,58.0,0.0,390.0,7.0,0.0
2945,65.0,0.0,390.0,7.0,0.0
2946,70.0,96.0,390.0,4.0,0.0
2947,46.0,0.0,390.0,5.0,0.0
2948,61.0,0.0,390.0,7.0,0.0
2949,73.0,120.0,120.0,6.0,0.0
2950,77.0,48.0,4020.0,0.0,0.0
2951,58.0,0.0,390.0,4.0,0.0
2952,41.0,0.0,3840.0,3.0,0.0
2953,53.0,0.0,3840.0,3.0,0.0
2954,77.0,120.0,120.0,6.0,0.0
2955,61.0,0.0,240.0,1.0,0.0
2956,58.0,120.0,240.0,1.0,0.0
2957,76.0,24.0,120.0,6.0,0.0
2958,77.0,0.0,120.0,6.0,0.0
2959,75.0,120.0,120.0,6.0,0.0
2960,63.0,0.0,240.0,1.0,0.0
2961,60.0,0.0,240.0,1.0,0.0
2962,73.0,120.0,120.0,6.0,0.0
2963,65.0,120.0,240.0,1.0,0.0
2964,61.0,0.0,240.0,1.0,0.0
2965,72.0,120.0,120.0,6.0,0.0
2966,70.0,0.0,120.0,6.0,0.0
2967,41.0,0.0,390.0,5.0,0.0
2968,69.0,120.0,120.0,6.0,0.0
2969,57.0,0.0,390.0,7.0,0.0
2970,53.0,96.0,390.0,7.0,0.0
2971,65.0,0.0,390.0,4.0,0.0
2972,53.0,0.0,390.0,4.0,0.0
2973,60.0,0.0,390.0,7.0,0.0
2974,63.0,0.0,390.0,7.0,0.0
2975,60.0,0.0,960.0,1.0,0.0
2976,63.0,0.0,960.0,1.0,0.0
2977,72.0,120.0,120.0,6.0,0.0
2978,75.0,24.0,120.0,6.0,0.0
2979,53.0,120.0,240.0,2.0,0.0
2980,57.0,0.0,240.0,2.0,0.0
2981,78.0,0.0,120.0,6.0,0.0
2982,77.0,120.0,120.0,6.0,0.0
2983,58.0,120.0,240.0,2.0,0.0
2984,55.0,0.0,240.0,2.0,0.0
2985,75.0,0.0,120.0,6.0,0.0
2986,73.0,120.0,120.0,6.0,0.0
2987,57.0,0.0,240.0,2.0,0.0
2988,60.0,120.0,240.0,2.0,0.0
2989,72.0,0.0,120.0,6.0,0.0
2990,61.0,0.0,390.0,2.0,0.0
2991,46.0,0.0,390.0,5.0,0.0
2992,73.0,120.0,120.0,6.0,0.0
2993,58.0,0.0,390.0,2.0,0.0
2994,70.0,96.0,390.0,4.0,0.0
2995,61.0,0.0,390.0,7.0,0.0
2996,65.0,0.0,390.0,7.0,0.0
2997,58.0,0.0,390.0,7.0,0.0
2998,58.0,0.0,390.0,4.0,0.0
2999,77.0,120.0,120.0,6.0,0.0
3000,76.0,24.0,120.0,6.0,0.0
3001,61.0,0.0,240.0,1.0,0.0
3002,58.0,0.0,240.0,1.0,0.0
3003,77.0,120.0,120.0,6.0,0.0
3004,63.0,0.0,240.0,1.0,0.0
3005,75.0,120.0,120.0,6.0,0.0
3006,60.0,0.0,240.0,1.0,0.0
3007,73.0,120.0,120.0,6.0,0.0
3008,65.0,0.0,240.0,1.0,0.0
3009,61.0,120.0,240.0,1.0,0.0
3010,72.0,120.0,120.0,6.0,0.0
3011,70.0,0.0,120.0,6.0,0.0
3012,57.0,0.0,390.0,7.0,0.0
3013,63.0,0.0,390.0,7.0,0.0
3014,60.0,96.0,390.0,7.0,0.0
3015,53.0,0.0,390.0,7.0,0.0
3016,53.0,0.0,390.0,4.0,0.0
3017,41.0,0.0,390.0,5.0,0.0
3018,65.0,0.0,390.0,4.0,0.0
3019,63.0,0.0,960.0,1.0,0.0
3020,60.0,0.0,960.0,1.0,0.0
3021,69.0,120.0,120.0,6.0,0.0
3022,72.0,120.0,120.0,6.0,0.0
3023,75.0,24.0,120.0,6.0,0.0
3024,57.0,0.0,240.0,2.0,0.0
3025,53.0,0.0,240.0,2.0,0.0
3026,78.0,120.0,120.0,6.0,0.0
3027,55.0,0.0,240.0,2.0,0.0
3028,58.0,120.0,240.0,2.0,0.0
3029,77.0,120.0,120.0,6.0,0.0
3030,75.0,0.0,120.0,6.0,0.0
3031,73.0,120.0,120.0,6.0,0.0
3032,60.0,0.0,240.0,2.0,0.0
3033,57.0,120.0,240.0,2.0,0.0
3034,72.0,0.0,120.0,6.0,0.0
3035,58.0,0.0,180.0,2.0,0.0
3036,61.0,0.0,180.0,2.0,0.0
3037,46.0,0.0,390.0,5.0,0.0
3038,70.0,96.0,390.0,4.0,0.0
3039,58.0,0.0,390.0,4.0,0.0
3040,61.0,0.0,390.0,7.0,0.0
3041,58.0,0.0,390.0,7.0,0.0
3042,73.0,72.0,120.0,6.0,0.0
3043,77.0,120.0,120.0,6.0,0.0
3044,82.0,24.0,120.0,6.0,0.0
3045,77.0,120.0,120.0,6.0,0.0
3046,51.0,0.0,390.0,7.0,0.0
3047,72.0,0.0,180.0,1.0,0.0
3048,60.0,48.0,180.0,2.0,0.0
3049,51.0,0.0,180.0,2.0,0.0
3050,39.0,96.0,390.0,7.0,0.0
3051,75.0,0.0,180.0,1.0,0.0
3052,84.0,0.0,180.0,0.0,0.0
3053,78.0,72.0,120.0,6.0,0.0
3054,82.0,120.0,120.0,6.0,0.0
3055,72.0,24.0,120.0,6.0,0.0
3056,75.0,120.0,120.0,6.0,0.0
3057,53.0,0.0,180.0,3.0,0.0
3058,65.0,0.0,180.0,4.0,0.0
3059,53.0,96.0,390.0,7.0,0.0
3060,41.0,0.0,180.0,5.0,0.0
3061,41.0,0.0,390.0,7.0,0.0
3062,73.0,72.0,120.0,6.0,0.0
3063,82.0,0.0,180.0,0.0,0.0
3064,73.0,48.0,180.0,1.0,0.0
3065,49.0,0.0,180.0,2.0,0.0
3066,70.0,0.0,180.0,1.0,0.0
3067,58.0,0.0,180.0,2.0,0.0
3068,77.0,120.0,120.0,6.0,0.0
3069,70.0,24.0,120.0,6.0,0.0
3070,73.0,120.0,120.0,6.0,0.0
3071,57.0,48.0,180.0,2.0,0.0
3072,81.0,0.0,180.0,0.0,0.0
3073,48.0,0.0,180.0,2.0,0.0
3074,53.0,0.0,180.0,3.0,0.0
3075,29.0,96.0,390.0,7.0,0.0
3076,41.0,0.0,180.0,5.0,0.0
3077,72.0,0.0,180.0,1.0,0.0
3078,65.0,0.0,180.0,4.0,0.0
3079,69.0,0.0,180.0,1.0,0.0
3080,72.0,72.0,120.0,6.0,0.0
3081,41.0,0.0,390.0,7.0,0.0
3082,75.0,120.0,120.0,6.0,0.0
3083,69.0,24.0,120.0,6.0,0.0
3084,72.0,192.0,120.0,6.0,0.0
3085,46.0,336.0,780.0,13.0,0.0
3086,58.0,0.0,390.0,4.0,0.0
3087,70.0,0.0,390.0,1.0,0.0
3088,46.0,0.0,390.0,3.0,0.0
3089,34.0,0.0,780.0,14.0,0.0
3090,70.0,0.0,390.0,6.0,0.0
3091,58.0,0.0,180.0,10.0,0.0
3092,46.0,0.0,390.0,7.0,0.0
3093,53.0,0.0,390.0,3.0,0.0
3094,82.0,0.0,390.0,0.0,0.0
3095,53.0,192.0,180.0,11.0,0.0
3096,49.0,0.0,180.0,12.0,0.0
3097,46.0,0.0,390.0,5.0,0.0
3098,49.0,240.0,390.0,2.0,0.0
3099,34.0,0.0,390.0,7.0,0.0
3100,58.0,0.0,390.0,2.0,0.0
3101,53.0,0.0,390.0,11.0,0.0
3102,58.0,0.0,390.0,10.0,0.0
3103,49.0,144.0,390.0,12.0,0.0
3104,53.0,0.0,390.0,11.0,0.0
3105,58.0,480.0,390.0,10.0,0.0
3106,49.0,0.0,390.0,12.0,0.0
3107,53.0,0.0,390.0,11.0,0.0
3108,49.0,176.0,390.0,12.0,0.0
3109,58.0,0.0,390.0,10.0,0.0
3110,41.0,0.0,90.0,13.0,0.0
3111,53.0,0.0,420.0,11.0,0.0
3112,29.0,80.0,90.0,14.0,0.0
3113,58.0,432.0,420.0,10.0,0.0
3114,49.0,0.0,420.0,12.0,0.0
3115,31.0,80.0,90.0,14.0,0.0
3116,43.0,0.0,90.0,13.0,0.0
3117,45.0,192.0,90.0,13.0,0.0
3118,33.0,0.0,90.0,14.0,0.0
3119,34.0,0.0,780.0,14.0,0.0
3120,46.0,336.0,780.0,13.0,0.0
3121,49.0,0.0,390.0,12.0,0.0
3122,53.0,144.0,390.0,11.0,0.0
3123,58.0,0.0,390.0,10.0,0.0
3124,58.0,0.0,390.0,10.0,0.0
3125,49.0,0.0,390.0,12.0,0.0
3126,53.0,480.0,390.0,11.0,0.0
3127,58.0,0.0,390.0,10.0,0.0
3128,49.0,176.0,390.0,12.0,0.0
3129,53.0,0.0,390.0,11.0,0.0
3130,49.0,0.0,420.0,12.0,0.0
3131,58.0,432.0,420.0,10.0,0.0
3132,29.0,80.0,90.0,14.0,0.0
3133,41.0,0.0,90.0,13.0,0.0
3134,53.0,0.0,420.0,11.0,0.0
3135,31.0,0.0,90.0,14.0,0.0
3136,43.0,80.0,90.0,13.0,0.0
3137,33.0,192.0,90.0,14.0,0.0
3138,45.0,0.0,90.0,13.0,0.0
3139,46.0,0.0,780.0,13.0,0.0
3140,34.0,336.0,780.0,14.0,0.0
3141,53.0,144.0,390.0,10.0,0.0
3142,53.0,0.0,390.0,11.0,0.0
3143,49.0,0.0,390.0,12.0,0.0
3144,61.0,0.0,390.0,10.0,0.0
3145,53.0,0.0,390.0,11.0,0.0
3146,46.0,480.0,390.0,12.0,0.0
3147,53.0,0.0,390.0,11.0,0.0
3148,60.0,156.0,390.0,10.0,0.0
3149,48.0,0.0,390.0,12.0,0.0
3150,53.0,0.0,420.0,11.0,0.0
3151,41.0,60.0,60.0,13.0,0.0
3152,29.0,0.0,60.0,14.0,0.0
3153,49.0,192.0,240.0,12.0,0.0
3154,58.0,432.0,420.0,10.0,0.0
3155,43.0,0.0,60.0,13.0,0.0
3156,31.0,60.0,60.0,14.0,0.0
3157,45.0,60.0,60.0,13.0,0.0
3158,33.0,0.0,60.0,14.0,0.0
3159,34.0,0.0,60.0,14.0,0.0
3160,46.0,0.0,60.0,13.0,0.0
3161,48.0,0.0,780.0,13.0,0.0
3162,36.0,336.0,780.0,14.0,0.0
3163,53.0,0.0,390.0,11.0,0.0
3164,57.0,144.0,390.0,10.0,0.0
3165,51.0,0.0,390.0,12.0,0.0
3166,53.0,0.0,390.0,11.0,0.0
3167,51.0,0.0,390.0,12.0,0.0
3168,57.0,480.0,390.0,10.0,0.0
3169,57.0,0.0,390.0,10.0,0.0
3170,51.0,0.0,390.0,12.0,0.0
3171,53.0,432.0,390.0,11.0,0.0
3172,59.0,24.0,420.0,10.0,0.0
3173,51.0,0.0,420.0,12.0,0.0
3174,53.0,0.0,420.0,11.0,0.0
3175,60.0,96.0,90.0,6.0,0.0
3176,45.0,0.0,780.0,13.0,0.0
3177,45.0,0.0,780.0,8.0,0.0
3178,33.0,48.0,780.0,14.0,0.0
3179,33.0,0.0,780.0,8.0,0.0
3180,53.0,120.0,90.0,7.0,0.0
3181,53.0,72.0,390.0,11.0,0.0
3182,51.0,0.0,390.0,12.0,0.0
3183,60.0,0.0,390.0,10.0,0.0
3184,51.0,120.0,90.0,7.0,0.0
3185,53.0,120.0,90.0,7.0,0.0
3186,48.0,48.0,90.0,7.0,0.0
3187,53.0,72.0,90.0,7.0,0.0
3188,60.0,72.0,390.0,10.0,0.0
3189,51.0,0.0,390.0,12.0,0.0
3190,53.0,0.0,390.0,11.0,0.0
3191,51.0,120.0,90.0,7.0,0.0
3192,53.0,120.0,90.0,7.0,0.0
3193,60.0,48.0,90.0,6.0,0.0
3194,53.0,120.0,90.0,7.0,0.0
3195,51.0,120.0,90.0,7.0,0.0
3196,53.0,0.0,390.0,11.0,0.0
3197,60.0,0.0,390.0,10.0,0.0
3198,51.0,72.0,390.0,12.0,0.0
3199,53.0,120.0,90.0,7.0,0.0
3200,48.0,48.0,90.0,7.0,0.0
3201,53.0,120.0,90.0,7.0,0.0
3202,51.0,24.0,90.0,7.0,0.0
3203,41.0,96.0,120.0,8.0,0.0
3204,51.0,0.0,420.0,12.0,0.0
3205,41.0,0.0,120.0,13.0,0.0
3206,53.0,0.0,420.0,11.0,0.0
3207,60.0,24.0,420.0,10.0,0.0
3208,43.0,0.0,120.0,13.0,0.0
3209,53.0,24.0,90.0,7.0,0.0
3210,43.0,96.0,120.0,8.0,0.0
3211,45.0,0.0,780.0,13.0,0.0
3212,33.0,0.0,780.0,14.0,0.0
3213,45.0,48.0,780.0,8.0,0.0
3214,60.0,96.0,90.0,6.0,0.0
3215,53.0,120.0,90.0,7.0,0.0
3216,51.0,120.0,90.0,7.0,0.0
3217,53.0,0.0,390.0,11.0,0.0
3218,51.0,72.0,390.0,12.0,0.0
3219,60.0,0.0,390.0,10.0,0.0
3220,53.0,120.0,90.0,7.0,0.0
3221,48.0,48.0,90.0,7.0,0.0
3222,53.0,72.0,90.0,7.0,0.0
3223,53.0,0.0,390.0,11.0,0.0
3224,60.0,0.0,390.0,10.0,0.0
3225,51.0,72.0,390.0,12.0,0.0
3226,51.0,120.0,90.0,7.0,0.0
3227,53.0,120.0,90.0,7.0,0.0
3228,60.0,48.0,90.0,6.0,0.0
3229,53.0,120.0,90.0,7.0,0.0
3230,51.0,0.0,390.0,12.0,0.0
3231,60.0,72.0,390.0,10.0,0.0
3232,51.0,120.0,90.0,7.0,0.0
3233,53.0,0.0,390.0,11.0,0.0
3234,53.0,120.0,90.0,7.0,0.0
3235,48.0,48.0,90.0,7.0,0.0
3236,53.0,120.0,90.0,7.0,0.0
3237,53.0,24.0,420.0,11.0,0.0
3238,51.0,0.0,420.0,12.0,0.0
3239,60.0,0.0,420.0,10.0,0.0
3240,41.0,0.0,120.0,13.0,0.0
3241,41.0,96.0,120.0,8.0,0.0
3242,51.0,24.0,90.0,7.0,0.0
3243,43.0,96.0,120.0,8.0,0.0
3244,53.0,24.0,90.0,7.0,0.0
3245,43.0,0.0,120.0,13.0,0.0
3246,33.0,0.0,780.0,14.0,0.0
3247,45.0,48.0,780.0,8.0,0.0
3248,60.0,96.0,90.0,6.0,0.0
3249,45.0,0.0,780.0,13.0,0.0
3250,53.0,120.0,90.0,7.0,0.0
3251,51.0,120.0,90.0,7.0,0.0
3252,53.0,0.0,390.0,10.0,0.0
3253,53.0,0.0,390.0,11.0,0.0
3254,51.0,72.0,390.0,12.0,0.0
3255,53.0,120.0,90.0,7.0,0.0
3256,63.0,48.0,90.0,6.0,0.0
3257,53.0,72.0,90.0,7.0,0.0
3258,53.0,0.0,390.0,11.0,0.0
3259,63.0,0.0,390.0,10.0,0.0
3260,48.0,72.0,390.0,12.0,0.0
3261,51.0,120.0,90.0,7.0,0.0
3262,53.0,120.0,90.0,7.0,0.0
3263,61.0,48.0,90.0,6.0,0.0
3264,53.0,120.0,90.0,7.0,0.0
3265,49.0,0.0,390.0,12.0,0.0
3266,53.0,0.0,390.0,11.0,0.0
3267,51.0,120.0,90.0,7.0,0.0
3268,61.0,72.0,390.0,10.0,0.0
3269,53.0,120.0,90.0,7.0,0.0
3270,60.0,48.0,90.0,6.0,0.0
3271,53.0,104.0,90.0,7.0,0.0
3272,60.0,0.0,180.0,10.0,0.0
3273,51.0,64.0,90.0,7.0,0.0
3274,41.0,16.0,90.0,13.0,0.0
3275,53.0,24.0,180.0,11.0,0.0
3276,51.0,0.0,180.0,12.0,0.0
3277,41.0,0.0,90.0,8.0,0.0
3278,43.0,32.0,90.0,8.0,0.0
3279,43.0,0.0,90.0,13.0,0.0
3280,53.0,24.0,90.0,7.0,0.0
3281,45.0,0.0,90.0,13.0,0.0
3282,45.0,96.0,90.0,8.0,0.0
3283,49.0,0.0,180.0,12.0,0.0
3284,46.0,0.0,780.0,13.0,0.0
3285,53.0,0.0,180.0,11.0,0.0
3286,60.0,24.0,180.0,10.0,0.0
3287,46.0,0.0,780.0,8.0,0.0
3288,60.0,96.0,90.0,6.0,0.0
3289,34.0,48.0,780.0,14.0,0.0
3290,53.0,120.0,90.0,7.0,0.0
3291,58.0,72.0,390.0,10.0,0.0
3292,49.0,120.0,90.0,7.0,0.0
3293,49.0,0.0,390.0,12.0,0.0
3294,53.0,0.0,390.0,11.0,0.0
3295,53.0,120.0,90.0,7.0,0.0
3296,58.0,48.0,90.0,6.0,0.0
3297,53.0,72.0,90.0,7.0,0.0
3298,49.0,120.0,90.0,7.0,0.0
3299,53.0,72.0,390.0,11.0,0.0
3300,49.0,0.0,390.0,12.0,0.0
3301,58.0,0.0,390.0,10.0,0.0
3302,53.0,120.0,90.0,7.0,0.0
3303,46.0,0.0,3840.0,3.0,0.0
3304,58.0,96.0,3840.0,3.0,0.0
3305,58.0,48.0,90.0,6.0,0.0
3306,53.0,120.0,90.0,7.0,0.0
3307,49.0,0.0,390.0,12.0,0.0
3308,49.0,120.0,90.0,7.0,0.0
3309,58.0,72.0,390.0,10.0,0.0
3310,58.0,0.0,390.0,11.0,0.0
3311,53.0,120.0,90.0,7.0,0.0
3312,60.0,48.0,90.0,6.0,0.0
3313,58.0,104.0,90.0,6.0,0.0
3314,58.0,24.0,420.0,11.0,0.0
3315,53.0,0.0,240.0,12.0,0.0
3316,46.0,0.0,90.0,13.0,0.0
3317,57.0,64.0,90.0,6.0,0.0
3318,46.0,16.0,90.0,8.0,0.0
3319,58.0,24.0,180.0,10.0,0.0
3320,48.0,32.0,90.0,13.0,0.0
3321,48.0,0.0,90.0,8.0,0.0
3322,58.0,24.0,90.0,6.0,0.0
3323,49.0,96.0,90.0,13.0,0.0
3324,49.0,0.0,90.0,8.0,0.0
3325,51.0,96.0,480.0,8.0,0.0
3326,54.0,0.0,180.0,12.0,0.0
3327,39.0,48.0,390.0,14.0,0.0
3328,61.0,96.0,240.0,10.0,0.0
3329,51.0,0.0,480.0,13.0,0.0
3330,61.0,96.0,90.0,6.0,0.0
3331,59.0,24.0,90.0,6.0,0.0
3332,58.0,48.0,90.0,6.0,0.0
3333,58.0,0.0,390.0,11.0,0.0
3334,59.0,24.0,180.0,10.0,0.0
3335,54.0,72.0,390.0,12.0,0.0
3336,59.0,24.0,90.0,6.0,0.0
3337,61.0,48.0,90.0,6.0,0.0
3338,60.0,104.0,90.0,6.0,0.0
3339,60.0,24.0,180.0,10.0,0.0
3340,48.0,16.0,90.0,8.0,0.0
3341,58.0,48.0,390.0,11.0,0.0
3342,48.0,0.0,90.0,13.0,0.0
3343,54.0,96.0,240.0,12.0,0.0
3344,58.0,64.0,90.0,6.0,0.0
3345,49.0,0.0,90.0,13.0,0.0
3346,49.0,32.0,90.0,8.0,0.0
3347,60.0,24.0,90.0,6.0,0.0
3348,51.0,0.0,90.0,13.0,0.0
3349,51.0,0.0,90.0,8.0,0.0
3350,63.0,96.0,240.0,10.0,0.0
3351,53.0,0.0,480.0,13.0,0.0
3352,41.0,48.0,390.0,14.0,0.0
3353,53.0,96.0,480.0,8.0,0.0
3354,56.0,24.0,180.0,12.0,0.0
3355,63.0,48.0,90.0,6.0,0.0
3356,61.0,24.0,90.0,6.0,0.0
3357,58.0,0.0,390.0,11.0,0.0
3358,60.0,48.0,90.0,6.0,0.0
3359,56.0,72.0,390.0,12.0,0.0
3360,61.0,24.0,180.0,10.0,0.0
3361,61.0,24.0,90.0,6.0,0.0
3362,63.0,48.0,90.0,6.0,0.0
3363,62.0,104.0,90.0,6.0,0.0
3364,62.0,24.0,180.0,10.0,0.0
3365,50.0,0.0,90.0,8.0,0.0
3366,60.0,64.0,90.0,6.0,0.0
3367,56.0,0.0,240.0,12.0,0.0
3368,50.0,16.0,90.0,13.0,0.0
3369,58.0,0.0,180.0,11.0,0.0
3370,51.0,0.0,90.0,8.0,0.0
3371,51.0,32.0,90.0,13.0,0.0
3372,62.0,24.0,90.0,6.0,0.0
3373,53.0,96.0,90.0,8.0,0.0
3374,53.0,0.0,90.0,13.0,0.0
3375,54.0,0.0,780.0,13.0,0.0
3376,65.0,96.0,240.0,10.0,0.0
3377,58.0,0.0,180.0,11.0,0.0
3378,54.0,24.0,180.0,12.0,0.0
3379,42.0,0.0,780.0,14.0,0.0
3380,54.0,48.0,780.0,8.0,0.0
3381,65.0,96.0,90.0,6.0,0.0
3382,63.0,24.0,90.0,6.0,0.0
3383,58.0,72.0,390.0,11.0,0.0
3384,63.0,0.0,390.0,10.0,0.0
3385,62.0,120.0,90.0,6.0,0.0
3386,54.0,0.0,390.0,12.0,0.0
3387,63.0,120.0,90.0,6.0,0.0
3388,68.0,48.0,90.0,6.0,0.0
3389,66.0,72.0,90.0,6.0,0.0
3390,65.0,120.0,90.0,6.0,0.0
3391,58.0,72.0,630.0,11.0,0.0
3392,63.0,0.0,630.0,10.0,0.0
3393,54.0,0.0,630.0,12.0,0.0
3394,66.0,24.0,90.0,6.0,0.0
3395,71.0,120.0,90.0,6.0,0.0
3396,70.0,120.0,90.0,6.0,0.0
3397,69.0,48.0,90.0,6.0,0.0
3398,70.0,120.0,90.0,6.0,0.0
3399,61.0,120.0,90.0,6.0,0.0
3400,60.0,104.0,90.0,6.0,0.0
3401,59.0,64.0,90.0,6.0,0.0
3402,48.0,16.0,90.0,8.0,0.0
3403,60.0,24.0,180.0,10.0,0.0
3404,48.0,0.0,90.0,13.0,0.0
3405,49.0,32.0,90.0,13.0,0.0
3406,49.0,0.0,90.0,8.0,0.0
3407,60.0,24.0,90.0,6.0,0.0
3408,51.0,96.0,90.0,13.0,0.0
3409,51.0,0.0,90.0,8.0,0.0
3410,48.0,0.0,2880.0,2.0,0.0
3411,53.0,0.0,390.0,8.0,0.0
3412,56.0,0.0,180.0,12.0,0.0
3413,41.0,0.0,390.0,14.0,0.0
3414,60.0,24.0,180.0,11.0,0.0
3415,60.0,96.0,2880.0,2.0,0.0
3416,53.0,48.0,390.0,13.0,0.0
3417,63.0,96.0,240.0,10.0,0.0
3418,63.0,96.0,90.0,6.0,0.0
3419,61.0,24.0,90.0,6.0,0.0
3420,56.0,72.0,390.0,12.0,0.0
3421,60.0,48.0,90.0,6.0,0.0
3422,61.0,24.0,180.0,10.0,0.0
3423,60.0,0.0,390.0,11.0,0.0
3424,61.0,120.0,90.0,6.0,0.0
3425,63.0,48.0,90.0,6.0,0.0
3426,62.0,104.0,90.0,6.0,0.0
3427,50.0,16.0,90.0,8.0,0.0
3428,62.0,24.0,180.0,10.0,0.0
3429,60.0,48.0,390.0,11.0,0.0
3430,56.0,0.0,240.0,12.0,0.0
3431,50.0,0.0,90.0,13.0,0.0
3432,60.0,64.0,90.0,6.0,0.0
3433,51.0,32.0,90.0,13.0,0.0
3434,51.0,0.0,90.0,8.0,0.0
3435,62.0,24.0,90.0,6.0,0.0
3436,53.0,0.0,90.0,8.0,0.0
3437,53.0,96.0,90.0,13.0,0.0
3438,58.0,24.0,180.0,12.0,0.0
3439,65.0,48.0,90.0,6.0,0.0
3440,65.0,96.0,240.0,10.0,0.0
3441,55.0,0.0,390.0,8.0,0.0
3442,43.0,0.0,390.0,14.0,0.0
3443,55.0,48.0,390.0,13.0,0.0
3444,63.0,24.0,90.0,6.0,0.0
3445,62.0,48.0,90.0,6.0,0.0
3446,58.0,72.0,390.0,12.0,0.0
3447,60.0,0.0,390.0,11.0,0.0
3448,63.0,24.0,180.0,10.0,0.0
3449,63.0,120.0,90.0,6.0,0.0
3450,65.0,48.0,90.0,6.0,0.0
3451,64.0,104.0,90.0,6.0,0.0
3452,52.0,0.0,90.0,13.0,0.0
3453,58.0,0.0,240.0,12.0,0.0
3454,60.0,0.0,420.0,11.0,0.0
3455,62.0,64.0,90.0,6.0,0.0
3456,64.0,24.0,180.0,10.0,0.0
3457,52.0,16.0,90.0,8.0,0.0
3458,53.0,0.0,90.0,13.0,0.0
3459,53.0,32.0,90.0,8.0,0.0
3460,64.0,24.0,90.0,6.0,0.0
3461,55.0,96.0,90.0,13.0,0.0
3462,55.0,0.0,90.0,8.0,0.0
3463,44.0,0.0,780.0,14.0,0.0
3464,56.0,0.0,780.0,13.0,0.0
3465,56.0,24.0,180.0,12.0,0.0
3466,67.0,96.0,240.0,10.0,0.0
3467,67.0,96.0,90.0,6.0,0.0
3468,56.0,48.0,780.0,8.0,0.0
3469,65.0,24.0,90.0,6.0,0.0
3470,64.0,120.0,90.0,6.0,0.0
3471,60.0,72.0,390.0,11.0,0.0
3472,65.0,0.0,390.0,10.0,0.0
3473,56.0,0.0,390.0,12.0,0.0
3474,65.0,120.0,90.0,6.0,0.0
3475,70.0,48.0,90.0,6.0,0.0
3476,68.0,72.0,90.0,6.0,0.0
3477,56.0,72.0,390.0,12.0,0.0
3478,65.0,0.0,390.0,10.0,0.0
3479,67.0,120.0,90.0,6.0,0.0
3480,60.0,0.0,390.0,11.0,0.0
3481,68.0,24.0,90.0,6.0,0.0
3482,73.0,48.0,90.0,6.0,0.0
3483,77.0,0.0,3360.0,1.0,0.0
3484,65.0,0.0,3360.0,1.0,0.0
3485,72.0,120.0,90.0,6.0,0.0
3486,65.0,72.0,390.0,11.0,0.0
3487,56.0,0.0,390.0,12.0,0.0
3488,71.0,120.0,90.0,6.0,0.0
3489,65.0,0.0,390.0,10.0,0.0
3490,72.0,120.0,90.0,6.0,0.0
3491,67.0,48.0,90.0,6.0,0.0
3492,65.0,104.0,90.0,6.0,0.0
3493,60.0,96.0,240.0,12.0,0.0
3494,65.0,0.0,420.0,11.0,0.0
3495,65.0,24.0,180.0,10.0,0.0
3496,64.0,64.0,90.0,6.0,0.0
3497,53.0,16.0,90.0,8.0,0.0
3498,53.0,0.0,90.0,13.0,0.0
3499,55.0,32.0,90.0,8.0,0.0
3500,55.0,0.0,90.0,13.0,0.0
3501,65.0,24.0,90.0,6.0,0.0
3502,56.0,0.0,90.0,13.0,0.0
3503,56.0,0.0,90.0,8.0,0.0
3504,68.0,96.0,240.0,10.0,0.0
3505,58.0,0.0,390.0,8.0,0.0
3506,46.0,0.0,390.0,14.0,0.0
3507,68.0,96.0,90.0,6.0,0.0
3508,58.0,48.0,390.0,13.0,0.0
3509,61.0,24.0,180.0,12.0,0.0
3510,66.0,24.0,90.0,6.0,0.0
3511,65.0,48.0,90.0,6.0,0.0
3512,66.0,24.0,180.0,10.0,0.0
3513,61.0,72.0,390.0,12.0,0.0
3514,65.0,0.0,390.0,11.0,0.0
3515,66.0,120.0,90.0,6.0,0.0
3516,68.0,48.0,90.0,6.0,0.0
3517,67.0,104.0,90.0,6.0,0.0
3518,65.0,48.0,390.0,11.0,0.0
3519,67.0,24.0,180.0,10.0,0.0
3520,55.0,16.0,90.0,8.0,0.0
3521,55.0,0.0,90.0,13.0,0.0
3522,65.0,64.0,90.0,6.0,0.0
3523,61.0,0.0,180.0,12.0,0.0
3524,56.0,32.0,90.0,13.0,0.0
3525,56.0,0.0,90.0,8.0,0.0
3526,67.0,24.0,90.0,6.0,0.0
3527,58.0,96.0,90.0,8.0,0.0
3528,58.0,0.0,90.0,13.0,0.0
3529,63.0,24.0,180.0,12.0,0.0
3530,48.0,0.0,390.0,14.0,0.0
3531,60.0,48.0,390.0,8.0,0.0
3532,70.0,48.0,90.0,6.0,0.0
3533,60.0,0.0,390.0,13.0,0.0
3534,70.0,96.0,240.0,10.0,0.0
3535,68.0,24.0,90.0,6.0,0.0
3536,65.0,0.0,390.0,11.0,0.0
3537,68.0,24.0,180.0,10.0,0.0
3538,67.0,48.0,90.0,6.0,0.0
3539,63.0,72.0,390.0,12.0,0.0
3540,68.0,120.0,90.0,6.0,0.0
3541,70.0,48.0,90.0,6.0,0.0
3542,69.0,104.0,90.0,6.0,0.0
3543,67.0,64.0,90.0,6.0,0.0
3544,69.0,24.0,180.0,10.0,0.0
3545,57.0,16.0,90.0,8.0,0.0
3546,63.0,0.0,240.0,12.0,0.0
3547,57.0,0.0,90.0,13.0,0.0
3548,65.0,0.0,420.0,11.0,0.0
3549,58.0,0.0,90.0,13.0,0.0
3550,58.0,32.0,90.0,8.0,0.0
3551,69.0,24.0,90.0,6.0,0.0
3552,60.0,0.0,90.0,13.0,0.0
3553,60.0,96.0,90.0,8.0,0.0
3554,72.0,96.0,90.0,6.0,0.0
3555,70.0,24.0,180.0,10.0,0.0
3556,49.0,96.0,480.0,14.0,0.0
3557,61.0,0.0,480.0,8.0,0.0
3558,61.0,0.0,180.0,12.0,0.0
3559,61.0,0.0,480.0,13.0,0.0
3560,70.0,120.0,90.0,6.0,0.0
3561,69.0,96.0,90.0,6.0,0.0
3562,53.0,24.0,180.0,11.0,0.0
3563,49.0,0.0,180.0,12.0,0.0
3564,58.0,0.0,180.0,10.0,0.0
3565,70.0,24.0,90.0,6.0,0.0
3566,73.0,120.0,90.0,6.0,0.0
3567,57.0,96.0,480.0,13.0,0.0
3568,57.0,0.0,480.0,8.0,0.0
3569,45.0,0.0,480.0,14.0,0.0
3570,72.0,120.0,90.0,6.0,0.0
3571,51.0,0.0,180.0,12.0,0.0
3572,60.0,24.0,180.0,10.0,0.0
3573,70.0,96.0,90.0,6.0,0.0
3574,53.0,0.0,180.0,11.0,0.0
3575,72.0,24.0,90.0,6.0,0.0
3576,46.0,0.0,480.0,14.0,0.0
3577,58.0,0.0,480.0,8.0,0.0
3578,58.0,96.0,480.0,13.0,0.0
3579,75.0,120.0,90.0,6.0,0.0
3580,73.0,120.0,90.0,6.0,0.0
3581,49.0,0.0,180.0,12.0,0.0
3582,72.0,96.0,90.0,6.0,0.0
3583,61.0,24.0,180.0,10.0,0.0
3584,53.0,0.0,180.0,11.0,0.0
3585,73.0,24.0,90.0,6.0,0.0
3586,56.0,120.0,450.0,8.0,0.0
3587,44.0,0.0,450.0,14.0,0.0
3588,56.0,0.0,450.0,13.0,0.0
3589,75.0,120.0,90.0,6.0,0.0
3590,74.0,120.0,90.0,6.0,0.0
3591,58.0,0.0,180.0,11.0,0.0
3592,62.0,24.0,180.0,10.0,0.0
3593,72.0,96.0,90.0,6.0,0.0
3594,53.0,0.0,180.0,12.0,0.0
3595,74.0,0.0,90.0,6.0,0.0
3596,54.0,0.0,480.0,13.0,0.0
3597,77.0,120.0,90.0,6.0,0.0
3598,42.0,0.0,480.0,14.0,0.0
3599,54.0,96.0,480.0,8.0,0.0
3600,75.0,120.0,90.0,6.0,0.0
3601,54.0,24.0,180.0,12.0,0.0
3602,63.0,0.0,180.0,10.0,0.0
3603,58.0,0.0,180.0,11.0,0.0
3604,74.0,96.0,90.0,6.0,0.0
3605,75.0,24.0,90.0,6.0,0.0
3606,38.0,96.0,480.0,14.0,0.0
3607,50.0,0.0,480.0,8.0,0.0
3608,78.0,120.0,90.0,6.0,0.0
3609,50.0,0.0,480.0,13.0,0.0
3610,77.0,120.0,90.0,6.0,0.0
3611,58.0,24.0,180.0,11.0,0.0
3612,75.0,96.0,90.0,6.0,0.0
3613,65.0,0.0,180.0,10.0,0.0
3614,56.0,0.0,180.0,12.0,0.0
3615,77.0,24.0,90.0,6.0,0.0
3616,51.0,0.0,480.0,13.0,0.0
3617,80.0,120.0,90.0,6.0,0.0
3618,39.0,0.0,480.0,14.0,0.0
3619,51.0,96.0,480.0,8.0,0.0
3620,78.0,120.0,90.0,6.0,0.0
3621,58.0,24.0,180.0,11.0,0.0
3622,54.0,0.0,180.0,12.0,0.0
3623,66.0,0.0,180.0,10.0,0.0
3624,77.0,96.0,90.0,6.0,0.0
3625,78.0,24.0,90.0,6.0,0.0
3626,80.0,120.0,90.0,6.0,0.0
3627,49.0,120.0,450.0,13.0,0.0
3628,37.0,0.0,450.0,14.0,0.0
3629,49.0,0.0,450.0,8.0,0.0
3630,79.0,120.0,90.0,6.0,0.0
3631,63.0,0.0,180.0,11.0,0.0
3632,77.0,96.0,90.0,6.0,0.0
3633,67.0,0.0,180.0,10.0,0.0
3634,58.0,24.0,180.0,12.0,0.0
3635,79.0,0.0,90.0,6.0,0.0
3636,36.0,96.0,480.0,14.0,0.0
3637,48.0,0.0,480.0,13.0,0.0
3638,63.0,0.0,150.0,11.0,0.0
3639,68.0,0.0,150.0,10.0,0.0
3640,60.0,72.0,150.0,12.0,0.0
3641,48.0,0.0,480.0,8.0,0.0
3642,82.0,48.0,90.0,6.0,0.0
3643,80.0,120.0,90.0,6.0,0.0
3644,79.0,48.0,90.0,6.0,0.0
3645,63.0,72.0,150.0,11.0,0.0
3646,60.0,0.0,150.0,12.0,0.0
3647,68.0,0.0,150.0,10.0,0.0
3648,80.0,24.0,90.0,6.0,0.0
3649,69.0,0.0,150.0,10.0,0.0
3650,39.0,0.0,480.0,14.0,0.0
3651,51.0,96.0,480.0,13.0,0.0
3652,51.0,0.0,480.0,8.0,0.0
3653,82.0,48.0,90.0,6.0,0.0
3654,60.0,72.0,150.0,12.0,0.0
3655,65.0,0.0,150.0,11.0,0.0
3656,80.0,120.0,90.0,6.0,0.0
3657,65.0,72.0,150.0,11.0,0.0
3658,60.0,0.0,150.0,12.0,0.0
3659,69.0,0.0,150.0,10.0,0.0
3660,79.0,48.0,90.0,6.0,0.0
3661,80.0,24.0,90.0,6.0,0.0
3662,37.0,96.0,480.0,14.0,0.0
3663,49.0,0.0,480.0,8.0,0.0
3664,84.0,48.0,90.0,6.0,0.0
3665,49.0,0.0,480.0,13.0,0.0
3666,65.0,72.0,150.0,11.0,0.0
3667,70.0,0.0,150.0,10.0,0.0
3668,61.0,0.0,150.0,12.0,0.0
3669,82.0,120.0,90.0,6.0,0.0
3670,80.0,48.0,90.0,6.0,0.0
3671,61.0,0.0,150.0,12.0,0.0
3672,70.0,0.0,150.0,10.0,0.0
3673,65.0,72.0,150.0,11.0,0.0
3674,82.0,24.0,90.0,6.0,0.0
3675,45.0,96.0,480.0,8.0,0.0
3676,45.0,0.0,480.0,13.0,0.0
3677,72.0,0.0,150.0,10.0,0.0
3678,33.0,0.0,480.0,14.0,0.0
3679,63.0,0.0,150.0,12.0,0.0
3680,85.0,48.0,90.0,6.0,0.0
3681,65.0,72.0,150.0,11.0,0.0
3682,84.0,120.0,90.0,6.0,0.0
3683,63.0,72.0,150.0,12.0,0.0
3684,82.0,48.0,90.0,6.0,0.0
3685,65.0,0.0,150.0,11.0,0.0
3686,72.0,0.0,150.0,10.0,0.0
3687,84.0,24.0,90.0,6.0,0.0
3688,65.0,0.0,390.0,11.0,0.0
3689,61.0,72.0,390.0,12.0,0.0
3690,73.0,0.0,390.0,10.0,0.0
3691,34.0,0.0,480.0,14.0,0.0
3692,84.0,120.0,90.0,6.0,0.0
3693,46.0,0.0,480.0,8.0,0.0
3694,46.0,96.0,480.0,13.0,0.0
3695,84.0,120.0,90.0,6.0,0.0
3696,82.0,48.0,90.0,6.0,0.0
3697,81.0,24.0,90.0,6.0,0.0
3698,82.0,120.0,90.0,6.0,0.0
3699,70.0,48.0,780.0,11.0,0.0
3700,49.0,96.0,480.0,13.0,0.0
3701,49.0,0.0,480.0,8.0,0.0
3702,58.0,0.0,780.0,12.0,0.0
3703,77.0,0.0,480.0,10.0,0.0
3704,37.0,0.0,480.0,14.0,0.0
3705,80.0,120.0,90.0,6.0,0.0
3706,78.0,120.0,90.0,6.0,0.0
3707,77.0,24.0,90.0,6.0,0.0
3708,78.0,120.0,90.0,6.0,0.0
3709,78.0,0.0,480.0,10.0,0.0
3710,39.0,0.0,480.0,14.0,0.0
3711,51.0,0.0,480.0,8.0,0.0
3712,51.0,96.0,480.0,13.0,0.0
3713,80.0,72.0,90.0,6.0,0.0
3714,78.0,120.0,90.0,6.0,0.0
3715,77.0,24.0,90.0,6.0,0.0
3716,42.0,96.0,480.0,14.0,0.0
3717,70.0,0.0,480.0,10.0,0.0
3718,54.0,0.0,480.0,8.0,0.0
3719,58.0,72.0,390.0,12.0,0.0
3720,63.0,0.0,390.0,11.0,0.0
3721,75.0,120.0,90.0,6.0,0.0
3722,54.0,0.0,480.0,13.0,0.0
3723,73.0,120.0,90.0,6.0,0.0
3724,72.0,48.0,90.0,6.0,0.0
3725,70.0,24.0,90.0,6.0,0.0
3726,69.0,0.0,390.0,10.0,0.0
3727,65.0,0.0,390.0,11.0,0.0
3728,41.0,120.0,90.0,8.0,0.0
3729,72.0,0.0,390.0,6.0,0.0
3730,53.0,0.0,390.0,13.0,0.0
3731,69.0,72.0,390.0,6.0,0.0
3732,77.0,0.0,390.0,6.0,0.0
3733,41.0,0.0,390.0,14.0,0.0
3734,60.0,0.0,390.0,12.0,0.0
3735,53.0,120.0,90.0,8.0,0.0
3736,40.0,48.0,90.0,8.0,0.0
3737,52.0,120.0,90.0,8.0,0.0
3738,41.0,120.0,90.0,8.0,0.0
3739,53.0,120.0,90.0,8.0,0.0
3740,42.0,120.0,90.0,8.0,0.0
3741,54.0,120.0,90.0,8.0,0.0
3742,41.0,120.0,90.0,8.0,0.0
3743,53.0,120.0,90.0,8.0,0.0
3744,39.0,120.0,90.0,8.0,0.0
3745,51.0,120.0,90.0,8.0,0.0
3746,81.0,0.0,300.0,6.0,0.0
3747,37.0,120.0,90.0,8.0,0.0
3748,72.0,48.0,300.0,6.0,0.0
3749,77.0,0.0,300.0,6.0,0.0
3750,49.0,72.0,90.0,8.0,0.0
3751,36.0,120.0,90.0,8.0,0.0
3752,48.0,120.0,90.0,8.0,0.0
3753,73.0,0.0,300.0,6.0,0.0
3754,82.0,48.0,300.0,6.0,0.0
3755,77.0,0.0,300.0,6.0,0.0
3756,34.0,120.0,90.0,8.0,0.0
3757,46.0,72.0,90.0,8.0,0.0
3758,33.0,120.0,90.0,8.0,0.0
3759,45.0,120.0,90.0,8.0,0.0
3760,34.0,120.0,90.0,8.0,0.0
3761,46.0,120.0,90.0,8.0,0.0
3762,36.0,120.0,90.0,8.0,0.0
3763,48.0,120.0,90.0,8.0,0.0
3764,37.0,120.0,90.0,8.0,0.0
3765,49.0,120.0,90.0,8.0,0.0
3766,36.0,120.0,90.0,8.0,0.0
3767,48.0,120.0,90.0,8.0,0.0
3768,82.0,0.0,300.0,6.0,0.0
3769,73.0,0.0,300.0,6.0,0.0
3770,77.0,48.0,300.0,6.0,0.0
3771,37.0,120.0,90.0,8.0,0.0
3772,49.0,72.0,90.0,8.0,0.0
3773,39.0,120.0,90.0,8.0,0.0
3774,51.0,120.0,90.0,8.0,0.0
3775,41.0,120.0,90.0,8.0,0.0
3776,60.0,0.0,300.0,2.0,0.0
3777,57.0,48.0,300.0,2.0,0.0
3778,81.0,0.0,300.0,0.0,0.0
3779,72.0,0.0,300.0,1.0,0.0
3780,65.0,0.0,300.0,1.0,0.0
3781,72.0,0.0,300.0,6.0,0.0
3782,81.0,0.0,300.0,6.0,0.0
3783,77.0,0.0,300.0,6.0,0.0
3784,53.0,72.0,90.0,8.0,0.0
3785,40.0,120.0,90.0,8.0,0.0
3786,52.0,120.0,90.0,8.0,0.0
3787,41.0,120.0,90.0,8.0,0.0
3788,72.0,0.0,210.0,1.0,0.0
3789,65.0,120.0,210.0,1.0,0.0
3790,81.0,0.0,210.0,0.0,0.0
3791,60.0,0.0,210.0,2.0,0.0
3792,57.0,0.0,210.0,2.0,0.0
3793,53.0,0.0,90.0,8.0,0.0
3794,42.0,96.0,90.0,8.0,0.0
3795,72.0,0.0,60.0,1.0,0.0
3796,81.0,0.0,60.0,0.0,0.0
3797,65.0,24.0,60.0,1.0,0.0
3798,60.0,0.0,60.0,2.0,0.0
3799,54.0,120.0,90.0,8.0,0.0
3800,57.0,0.0,60.0,2.0,0.0
3801,41.0,120.0,90.0,8.0,0.0
3802,81.0,0.0,300.0,0.0,0.0
3803,72.0,0.0,300.0,1.0,0.0
3804,65.0,0.0,300.0,1.0,0.0
3805,60.0,48.0,300.0,2.0,0.0
3806,57.0,0.0,300.0,2.0,0.0
3807,53.0,72.0,90.0,8.0,0.0
3808,39.0,120.0,90.0,8.0,0.0
3809,51.0,120.0,90.0,8.0,0.0
3810,37.0,120.0,90.0,8.0,0.0
3811,81.0,0.0,300.0,6.0,0.0
3812,77.0,0.0,300.0,6.0,0.0
3813,72.0,0.0,300.0,6.0,0.0
3814,65.0,0.0,300.0,1.0,0.0
3815,72.0,48.0,300.0,1.0,0.0
3816,57.0,0.0,300.0,2.0,0.0
3817,81.0,0.0,300.0,0.0,0.0
3818,60.0,0.0,300.0,2.0,0.0
3819,49.0,72.0,90.0,8.0,0.0
3820,36.0,120.0,90.0,8.0,0.0
3821,48.0,120.0,90.0,8.0,0.0
3822,61.0,0.0,300.0,2.0,0.0
3823,65.0,0.0,300.0,1.0,0.0
3824,73.0,0.0,300.0,1.0,0.0
3825,58.0,48.0,300.0,2.0,0.0
3826,34.0,120.0,90.0,8.0,0.0
3827,82.0,0.0,300.0,0.0,0.0
3828,77.0,0.0,300.0,6.0,0.0
3829,73.0,0.0,300.0,6.0,0.0
3830,82.0,0.0,300.0,6.0,0.0
3831,46.0,72.0,90.0,8.0,0.0
3832,33.0,120.0,90.0,8.0,0.0
3833,45.0,120.0,90.0,8.0,0.0
3834,58.0,120.0,210.0,2.0,0.0
3835,61.0,0.0,210.0,2.0,0.0
3836,65.0,0.0,210.0,1.0,0.0
3837,73.0,0.0,210.0,1.0,0.0
3838,82.0,0.0,210.0,0.0,0.0
3839,34.0,120.0,90.0,8.0,0.0
3840,46.0,0.0,90.0,8.0,0.0
3841,36.0,96.0,90.0,8.0,0.0
3842,48.0,120.0,90.0,8.0,0.0
3843,61.0,0.0,60.0,2.0,0.0
3844,58.0,0.0,60.0,2.0,0.0
3845,65.0,24.0,60.0,1.0,0.0
3846,73.0,0.0,60.0,1.0,0.0
3847,82.0,0.0,60.0,0.0,0.0
3848,61.0,0.0,300.0,2.0,0.0
3849,82.0,0.0,300.0,0.0,0.0
3850,58.0,48.0,300.0,2.0,0.0
3851,73.0,0.0,300.0,1.0,0.0
3852,37.0,120.0,90.0,8.0,0.0
3853,65.0,0.0,300.0,1.0,0.0
3854,49.0,72.0,90.0,8.0,0.0
3855,36.0,120.0,90.0,8.0,0.0
3856,48.0,120.0,90.0,8.0,0.0
3857,82.0,0.0,300.0,0.0,0.0
3858,73.0,0.0,300.0,1.0,0.0
3859,73.0,0.0,300.0,6.0,0.0
3860,82.0,48.0,300.0,6.0,0.0
3861,77.0,0.0,300.0,6.0,0.0
3862,61.0,0.0,300.0,2.0,0.0
3863,65.0,0.0,300.0,1.0,0.0
3864,37.0,120.0,90.0,8.0,0.0
3865,58.0,0.0,300.0,2.0,0.0
3866,49.0,72.0,90.0,8.0,0.0
3867,39.0,120.0,90.0,8.0,0.0
3868,51.0,120.0,90.0,8.0,0.0
3869,81.0,12.0,390.0,6.0,0.0
3870,69.0,0.0,420.0,11.0,0.0
3871,81.0,0.0,300.0,0.0,0.0
3872,53.0,0.0,150.0,13.0,0.0
3873,72.0,0.0,390.0,6.0,0.0
3874,65.0,0.0,420.0,10.0,0.0
3875,72.0,0.0,420.0,10.0,0.0
3876,41.0,0.0,390.0,5.0,0.0
3877,60.0,0.0,300.0,2.0,0.0
3878,77.0,0.0,420.0,11.0,0.0
3879,72.0,0.0,300.0,1.0,0.0
3880,81.0,48.0,420.0,10.0,0.0
3881,53.0,0.0,390.0,8.0,0.0
3882,60.0,0.0,420.0,11.0,0.0
3883,53.0,0.0,300.0,3.0,0.0
3884,65.0,0.0,300.0,4.0,0.0
3885,41.0,60.0,150.0,14.0,0.0
3886,65.0,60.0,90.0,12.0,0.0
3887,57.0,0.0,300.0,2.0,0.0
3888,77.0,0.0,390.0,6.0,0.0
3889,69.0,48.0,300.0,1.0,0.0
3890,41.0,0.0,390.0,8.0,0.0
3891,65.0,72.0,90.0,12.0,0.0
3892,39.0,0.0,150.0,14.0,0.0
3893,63.0,48.0,90.0,12.0,0.0
3894,51.0,12.0,150.0,13.0,0.0
3895,63.0,120.0,90.0,12.0,0.0
3896,57.0,0.0,210.0,2.0,0.0
3897,53.0,0.0,210.0,3.0,0.0
3898,61.0,60.0,90.0,12.0,0.0
3899,65.0,0.0,210.0,4.0,0.0
3900,81.0,120.0,210.0,0.0,0.0
3901,72.0,0.0,210.0,1.0,0.0
3902,69.0,0.0,210.0,1.0,0.0
3903,37.0,60.0,150.0,14.0,0.0
3904,60.0,0.0,210.0,2.0,0.0
3905,49.0,0.0,150.0,13.0,0.0
3906,61.0,0.0,90.0,12.0,0.0
3907,81.0,0.0,150.0,10.0,0.0
3908,48.0,36.0,150.0,13.0,0.0
3909,72.0,0.0,150.0,10.0,0.0
3910,69.0,0.0,150.0,11.0,0.0
3911,77.0,0.0,150.0,11.0,0.0
3912,36.0,0.0,150.0,14.0,0.0
3913,60.0,60.0,90.0,12.0,0.0
3914,57.0,0.0,60.0,2.0,0.0
3915,60.0,0.0,60.0,2.0,0.0
3916,53.0,24.0,60.0,3.0,0.0
3917,72.0,0.0,60.0,1.0,0.0
3918,69.0,0.0,60.0,1.0,0.0
3919,60.0,120.0,90.0,12.0,0.0
3920,81.0,0.0,60.0,0.0,0.0
3921,65.0,0.0,60.0,4.0,0.0
3922,53.0,48.0,300.0,3.0,0.0
3923,58.0,0.0,420.0,11.0,0.0
3924,82.0,48.0,420.0,10.0,0.0
3925,73.0,0.0,420.0,11.0,0.0
3926,46.0,60.0,150.0,13.0,0.0
3927,46.0,12.0,390.0,5.0,0.0
3928,58.0,0.0,300.0,2.0,0.0
3929,61.0,0.0,300.0,2.0,0.0
3930,73.0,0.0,420.0,10.0,0.0
3931,65.0,0.0,420.0,11.0,0.0
3932,82.0,0.0,300.0,0.0,0.0
3933,65.0,0.0,300.0,4.0,0.0
3934,34.0,0.0,150.0,14.0,0.0
3935,70.0,0.0,300.0,1.0,0.0
3936,73.0,0.0,300.0,1.0,0.0
3937,58.0,60.0,90.0,12.0,0.0
3938,58.0,72.0,90.0,12.0,0.0
3939,36.0,0.0,150.0,14.0,0.0
3940,48.0,12.0,150.0,13.0,0.0
3941,60.0,48.0,90.0,12.0,0.0
3942,60.0,120.0,90.0,12.0,0.0
3943,53.0,0.0,210.0,3.0,0.0
3944,73.0,0.0,210.0,1.0,0.0
3945,70.0,0.0,210.0,1.0,0.0
3946,61.0,60.0,90.0,12.0,0.0
3947,37.0,0.0,150.0,14.0,0.0
3948,61.0,0.0,210.0,2.0,0.0
3949,58.0,120.0,210.0,2.0,0.0
3950,82.0,0.0,210.0,0.0,0.0
3951,65.0,0.0,210.0,4.0,0.0
3952,49.0,60.0,150.0,13.0,0.0
3953,61.0,0.0,90.0,12.0,0.0
3954,73.0,0.0,150.0,10.0,0.0
3955,73.0,0.0,150.0,11.0,0.0
3956,39.0,0.0,150.0,14.0,0.0
3957,82.0,0.0,150.0,10.0,0.0
3958,63.0,60.0,90.0,12.0,0.0
3959,65.0,36.0,150.0,11.0,0.0
3960,51.0,0.0,150.0,13.0,0.0
3961,58.0,0.0,60.0,2.0,0.0
3962,82.0,24.0,60.0,0.0,0.0
3963,73.0,0.0,60.0,1.0,0.0
3964,63.0,120.0,90.0,12.0,0.0
3965,53.0,0.0,60.0,3.0,0.0
3966,65.0,0.0,60.0,4.0,0.0
3967,70.0,0.0,60.0,1.0,0.0
3968,61.0,0.0,60.0,2.0,0.0
3969,53.0,60.0,150.0,13.0,0.0
3970,69.0,0.0,300.0,1.0,0.0
3971,41.0,12.0,390.0,5.0,0.0
3972,65.0,60.0,90.0,12.0,0.0
3973,72.0,48.0,300.0,1.0,0.0
3974,41.0,0.0,150.0,14.0,0.0
3975,77.0,0.0,420.0,11.0,0.0
3976,60.0,48.0,420.0,11.0,0.0
3977,81.0,0.0,420.0,10.0,0.0
3978,72.0,0.0,420.0,10.0,0.0
3979,60.0,0.0,300.0,2.0,0.0
3980,81.0,0.0,300.0,0.0,0.0
3981,53.0,0.0,300.0,3.0,0.0
3982,57.0,0.0,300.0,2.0,0.0
3983,69.0,0.0,420.0,11.0,0.0
3984,65.0,0.0,300.0,4.0,0.0
3985,65.0,72.0,90.0,12.0,0.0
3986,63.0,48.0,90.0,12.0,0.0
3987,51.0,12.0,150.0,13.0,0.0
3988,39.0,0.0,150.0,14.0,0.0
3989,63.0,120.0,90.0,12.0,0.0
3990,49.0,60.0,150.0,13.0,0.0
3991,65.0,0.0,210.0,4.0,0.0
3992,81.0,0.0,210.0,0.0,0.0
3993,69.0,120.0,210.0,1.0,0.0
3994,72.0,0.0,210.0,1.0,0.0
3995,61.0,60.0,90.0,12.0,0.0
3996,60.0,0.0,210.0,2.0,0.0
3997,37.0,0.0,150.0,14.0,0.0
3998,53.0,0.0,210.0,3.0,0.0
3999,57.0,0.0,210.0,2.0,0.0
4000,61.0,0.0,90.0,12.0,0.0
4001,36.0,0.0,150.0,14.0,0.0
4002,48.0,36.0,150.0,13.0,0.0
4003,72.0,0.0,150.0,10.0,0.0
4004,81.0,0.0,150.0,10.0,0.0
4005,60.0,60.0,90.0,12.0,0.0
4006,69.0,0.0,150.0,11.0,0.0
4007,77.0,0.0,150.0,11.0,0.0
4008,69.0,0.0,60.0,1.0,0.0
4009,53.0,0.0,60.0,3.0,0.0
4010,57.0,24.0,60.0,2.0,0.0
4011,81.0,0.0,60.0,0.0,0.0
4012,60.0,120.0,90.0,12.0,0.0
4013,60.0,0.0,60.0,2.0,0.0
4014,72.0,0.0,60.0,1.0,0.0
4015,65.0,0.0,60.0,4.0,0.0
4016,65.0,0.0,420.0,11.0,0.0
4017,58.0,0.0,300.0,2.0,0.0
4018,82.0,48.0,300.0,0.0,0.0
4019,34.0,0.0,150.0,14.0,0.0
4020,61.0,0.0,300.0,2.0,0.0
4021,53.0,0.0,300.0,3.0,0.0
4022,82.0,0.0,420.0,10.0,0.0
4023,58.0,0.0,420.0,11.0,0.0
4024,46.0,12.0,390.0,5.0,0.0
4025,73.0,0.0,420.0,10.0,0.0
4026,65.0,0.0,300.0,4.0,0.0
4027,73.0,0.0,300.0,1.0,0.0
4028,70.0,0.0,300.0,1.0,0.0
4029,58.0,60.0,90.0,12.0,0.0
4030,46.0,60.0,150.0,13.0,0.0
4031,73.0,48.0,420.0,11.0,0.0
4032,58.0,72.0,90.0,12.0,0.0
4033,36.0,12.0,150.0,14.0,0.0
4034,48.0,0.0,150.0,13.0,0.0
4035,60.0,48.0,90.0,12.0,0.0
4036,60.0,120.0,90.0,12.0,0.0
4037,82.0,120.0,210.0,0.0,0.0
4038,53.0,0.0,210.0,3.0,0.0
4039,49.0,60.0,150.0,13.0,0.0
4040,61.0,60.0,90.0,12.0,0.0
4041,70.0,0.0,210.0,1.0,0.0
4042,73.0,0.0,210.0,1.0,0.0
4043,37.0,0.0,150.0,14.0,0.0
4044,58.0,0.0,210.0,2.0,0.0
4045,65.0,0.0,210.0,4.0,0.0
4046,61.0,0.0,210.0,2.0,0.0
4047,61.0,0.0,90.0,12.0,0.0
4048,82.0,36.0,150.0,10.0,0.0
4049,39.0,0.0,150.0,14.0,0.0
4050,73.0,0.0,150.0,10.0,0.0
4051,65.0,0.0,150.0,11.0,0.0
4052,63.0,60.0,90.0,12.0,0.0
4053,73.0,0.0,150.0,11.0,0.0
4054,51.0,0.0,150.0,13.0,0.0
4055,73.0,24.0,60.0,1.0,0.0
4056,58.0,0.0,60.0,2.0,0.0
4057,61.0,0.0,60.0,2.0,0.0
4058,53.0,0.0,60.0,3.0,0.0
4059,63.0,408.0,90.0,12.0,0.0
4060,70.0,0.0,60.0,1.0,0.0
4061,65.0,0.0,60.0,4.0,0.0
4062,82.0,0.0,60.0,0.0,0.0
4063,53.0,0.0,390.0,3.0,0.0
4064,57.0,0.0,390.0,2.0,0.0
4065,72.0,0.0,390.0,1.0,0.0
4066,60.0,0.0,390.0,2.0,0.0
4067,69.0,0.0,390.0,1.0,0.0
4068,65.0,0.0,390.0,10.0,0.0
4069,65.0,0.0,390.0,12.0,0.0
4070,53.0,0.0,390.0,13.0,0.0
4071,41.0,0.0,390.0,5.0,0.0
4072,65.0,0.0,390.0,4.0,0.0
4073,69.0,0.0,390.0,11.0,0.0
4074,77.0,0.0,390.0,11.0,0.0
4075,60.0,0.0,390.0,11.0,0.0
4076,41.0,0.0,390.0,14.0,0.0
4077,81.0,0.0,390.0,10.0,0.0
4078,72.0,2496.0,390.0,10.0,0.0
4079,81.0,0.0,390.0,0.0,0.0
4080,61.0,0.0,960.0,1.0,0.0
4081,73.0,0.0,960.0,1.0,0.0
4082,49.0,0.0,960.0,2.0,0.0
4083,53.0,960.0,960.0,2.0,0.0
4084,60.0,0.0,960.0,1.0,0.0
4085,72.0,0.0,960.0,1.0,0.0
4086,54.0,0.0,960.0,2.0,0.0
4087,51.0,384.0,960.0,2.0,0.0
4088,73.0,0.0,390.0,1.0,0.0
4089,61.0,96.0,390.0,1.0,0.0
4090,53.0,0.0,390.0,2.0,0.0
4091,56.0,0.0,390.0,2.0,0.0
4092,68.0,144.0,240.0,6.0,0.0
4093,65.0,0.0,480.0,10.0,0.0
4094,80.0,240.0,150.0,6.0,0.0
4095,61.0,240.0,480.0,11.0,0.0
4096,80.0,96.0,150.0,6.0,0.0
4097,80.0,192.0,240.0,6.0,0.0
4098,63.0,240.0,480.0,11.0,0.0
4099,66.0,0.0,480.0,10.0,0.0
4100,72.0,48.0,180.0,6.0,0.0
4101,68.0,48.0,390.0,10.0,0.0
4102,65.0,0.0,390.0,11.0,0.0
4103,72.0,144.0,240.0,6.0,0.0
4104,73.0,1008.0,180.0,6.0,0.0
4105,51.0,0.0,960.0,2.0,0.0
4106,54.0,0.0,960.0,2.0,0.0
4107,75.0,0.0,960.0,1.0,0.0
4108,63.0,960.0,960.0,1.0,0.0
4109,53.0,384.0,960.0,2.0,0.0
4110,62.0,0.0,960.0,1.0,0.0
4111,74.0,0.0,960.0,1.0,0.0
4112,56.0,0.0,960.0,2.0,0.0
4113,75.0,96.0,390.0,1.0,0.0
4114,63.0,0.0,390.0,1.0,0.0
4115,54.0,0.0,390.0,2.0,0.0
4116,58.0,0.0,390.0,2.0,0.0
4117,70.0,144.0,240.0,6.0,0.0
4118,66.0,240.0,480.0,10.0,0.0
4119,63.0,0.0,480.0,11.0,0.0
4120,82.0,240.0,150.0,6.0,0.0
4121,82.0,96.0,150.0,6.0,0.0
4122,65.0,240.0,480.0,11.0,0.0
4123,68.0,0.0,480.0,10.0,0.0
4124,82.0,192.0,240.0,6.0,0.0
4125,74.0,48.0,180.0,6.0,0.0
4126,70.0,0.0,390.0,10.0,0.0
4127,74.0,144.0,240.0,6.0,0.0
4128,66.0,48.0,390.0,11.0,0.0
4129,75.0,1008.0,180.0,6.0,0.0
4130,53.0,0.0,960.0,2.0,0.0
4131,56.0,0.0,960.0,2.0,0.0
4132,65.0,960.0,960.0,1.0,0.0
4133,77.0,0.0,960.0,1.0,0.0
4134,58.0,0.0,960.0,2.0,0.0
4135,55.0,384.0,960.0,2.0,0.0
4136,64.0,0.0,960.0,1.0,0.0
4137,76.0,0.0,960.0,1.0,0.0
4138,77.0,0.0,390.0,1.0,0.0
4139,65.0,0.0,390.0,1.0,0.0
4140,60.0,0.0,390.0,2.0,0.0
4141,56.0,96.0,390.0,2.0,0.0
4142,72.0,144.0,240.0,6.0,0.0
4143,68.0,0.0,480.0,10.0,0.0
4144,65.0,240.0,480.0,11.0,0.0
4145,84.0,240.0,150.0,6.0,0.0
4146,84.0,96.0,150.0,6.0,0.0
4147,70.0,240.0,480.0,10.0,0.0
4148,84.0,192.0,240.0,6.0,0.0
4149,66.0,0.0,480.0,11.0,0.0
4150,76.0,48.0,180.0,6.0,0.0
4151,68.0,0.0,390.0,11.0,0.0
4152,76.0,144.0,240.0,6.0,0.0
4153,72.0,48.0,390.0,10.0,0.0
4154,77.0,240.0,180.0,6.0,0.0
4155,58.0,0.0,390.0,7.0,0.0
4156,61.0,0.0,390.0,12.0,0.0
4157,46.0,48.0,390.0,14.0,0.0
4158,58.0,0.0,390.0,13.0,0.0
4159,73.0,168.0,180.0,10.0,0.0
4160,80.0,24.0,360.0,6.0,0.0
4161,70.0,48.0,180.0,10.0,0.0
4162,78.0,192.0,120.0,6.0,0.0
4163,78.0,240.0,180.0,10.0,0.0
4164,82.0,120.0,720.0,6.0,0.0
4165,77.0,288.0,180.0,10.0,0.0
4166,60.0,0.0,390.0,7.0,0.0
4167,56.0,0.0,390.0,12.0,0.0
4168,48.0,48.0,390.0,14.0,0.0
4169,75.0,0.0,390.0,10.0,0.0
4170,60.0,0.0,390.0,13.0,0.0
4171,80.0,24.0,120.0,6.0,0.0
4172,63.0,48.0,180.0,11.0,0.0
4173,78.0,192.0,120.0,6.0,0.0
4174,77.0,0.0,180.0,6.0,0.0
4175,68.0,192.0,180.0,11.0,0.0
4176,66.0,408.0,180.0,11.0,0.0
4177,75.0,48.0,150.0,6.0,0.0
4178,61.0,0.0,390.0,7.0,0.0
4179,78.0,24.0,360.0,6.0,0.0
4180,65.0,48.0,390.0,11.0,0.0
4181,61.0,0.0,390.0,13.0,0.0
4182,49.0,0.0,390.0,14.0,0.0
4183,56.0,0.0,390.0,12.0,0.0
4184,68.0,48.0,180.0,10.0,0.0
4185,77.0,192.0,120.0,6.0,0.0
4186,77.0,240.0,180.0,10.0,0.0
4187,80.0,120.0,720.0,6.0,0.0
4188,75.0,288.0,180.0,10.0,0.0
4189,73.0,0.0,390.0,10.0,0.0
4190,58.0,0.0,390.0,13.0,0.0
4191,46.0,0.0,390.0,14.0,0.0
4192,58.0,48.0,390.0,7.0,0.0
4193,58.0,0.0,390.0,12.0,0.0
4194,61.0,48.0,180.0,11.0,0.0
4195,78.0,24.0,120.0,6.0,0.0
4196,77.0,192.0,120.0,6.0,0.0
4197,75.0,0.0,180.0,6.0,0.0
4198,66.0,192.0,180.0,11.0,0.0
4199,73.0,48.0,150.0,6.0,0.0
4200,65.0,408.0,180.0,11.0,0.0
4201,77.0,24.0,360.0,6.0,0.0
4202,54.0,0.0,390.0,7.0,0.0
4203,42.0,0.0,390.0,14.0,0.0
4204,54.0,0.0,390.0,13.0,0.0
4205,63.0,48.0,390.0,11.0,0.0
4206,58.0,0.0,390.0,12.0,0.0
4207,58.0,48.0,180.0,10.0,0.0
4208,75.0,192.0,120.0,6.0,0.0
4209,70.0,240.0,180.0,10.0,0.0
4210,78.0,144.0,720.0,6.0,0.0
4211,66.0,288.0,180.0,10.0,0.0
4212,42.0,0.0,480.0,14.0,0.0
4213,54.0,0.0,480.0,7.0,0.0
4214,54.0,192.0,480.0,13.0,0.0
4215,63.0,0.0,390.0,10.0,0.0
4216,58.0,48.0,390.0,12.0,0.0
4217,70.0,0.0,240.0,6.0,0.0
4218,51.0,48.0,180.0,11.0,0.0
4219,75.0,0.0,180.0,6.0,0.0
4220,43.0,0.0,480.0,14.0,0.0
4221,55.0,0.0,480.0,13.0,0.0
4222,55.0,240.0,480.0,7.0,0.0
4223,58.0,192.0,180.0,11.0,0.0
4224,73.0,48.0,150.0,6.0,0.0
4225,63.0,48.0,180.0,11.0,0.0
4226,56.0,18.0,3810.0,13.0,0.0
4227,44.0,0.0,3810.0,14.0,0.0
4228,68.0,0.0,960.0,10.0,0.0
4229,63.0,0.0,3810.0,11.0,0.0
4230,56.0,0.0,900.0,7.0,0.0
4231,60.0,0.0,900.0,7.0,0.0
4232,63.0,48.0,900.0,7.0,0.0
4233,72.0,120.0,240.0,6.0,0.0
4234,60.0,120.0,960.0,12.0,0.0
4235,73.0,120.0,120.0,6.0,0.0
4236,75.0,120.0,120.0,6.0,0.0
4237,73.0,120.0,120.0,6.0,0.0
4238,72.0,120.0,120.0,6.0,0.0
4239,70.0,72.0,120.0,6.0,0.0
4240,68.0,0.0,120.0,6.0,0.0
4241,56.0,0.0,900.0,7.0,0.0
4242,58.0,0.0,900.0,7.0,0.0
4243,63.0,48.0,900.0,7.0,0.0
4244,67.0,120.0,120.0,6.0,0.0
4245,61.0,120.0,960.0,12.0,0.0
4246,61.0,0.0,900.0,7.0,0.0
4247,70.0,0.0,960.0,10.0,0.0
4248,68.0,120.0,120.0,6.0,0.0
4249,70.0,120.0,120.0,6.0,0.0
4250,72.0,120.0,120.0,6.0,0.0
4251,73.0,120.0,120.0,6.0,0.0
4252,75.0,120.0,120.0,6.0,0.0
4253,77.0,72.0,120.0,6.0,0.0
4254,79.0,0.0,120.0,6.0,0.0
4255,68.0,0.0,960.0,10.0,0.0
4256,63.0,48.0,900.0,7.0,0.0
4257,60.0,0.0,900.0,7.0,0.0
4258,80.0,120.0,120.0,6.0,0.0
4259,60.0,0.0,960.0,12.0,0.0
4260,56.0,0.0,900.0,7.0,0.0
4261,79.0,120.0,120.0,6.0,0.0
4262,77.0,120.0,120.0,6.0,0.0
4263,75.0,120.0,120.0,6.0,0.0
4264,73.0,120.0,120.0,6.0,0.0
4265,72.0,120.0,120.0,6.0,0.0
4266,70.0,72.0,120.0,6.0,0.0
4267,68.0,120.0,120.0,6.0,0.0
4268,70.0,20.0,930.0,10.0,0.0
4269,58.0,0.0,900.0,7.0,0.0
4270,56.0,0.0,900.0,7.0,0.0
4271,61.0,10.0,900.0,7.0,0.0
4272,63.0,0.0,900.0,7.0,0.0
4273,61.0,0.0,930.0,12.0,0.0
4274,67.0,120.0,120.0,6.0,0.0
4275,68.0,120.0,120.0,6.0,0.0
4276,70.0,120.0,120.0,6.0,0.0
4277,72.0,120.0,120.0,6.0,0.0
4278,73.0,120.0,120.0,6.0,0.0
4279,75.0,120.0,120.0,6.0,0.0
4280,77.0,72.0,120.0,6.0,0.0
4281,79.0,120.0,120.0,6.0,0.0
4282,63.0,0.0,180.0,11.0,0.0
4283,68.0,48.0,180.0,10.0,0.0
4284,44.0,0.0,390.0,14.0,0.0
4285,56.0,0.0,390.0,7.0,0.0
4286,56.0,96.0,390.0,13.0,0.0
4287,63.0,0.0,390.0,7.0,0.0
4288,80.0,72.0,120.0,6.0,0.0
4289,60.0,0.0,180.0,12.0,0.0
4290,60.0,0.0,390.0,7.0,0.0
4291,75.0,120.0,120.0,6.0,0.0
4292,72.0,24.0,120.0,6.0,0.0
4293,68.0,120.0,120.0,6.0,0.0
4294,68.0,48.0,180.0,10.0,0.0
4295,61.0,0.0,390.0,7.0,0.0
4296,64.0,0.0,390.0,7.0,0.0
4297,64.0,0.0,180.0,11.0,0.0
4298,61.0,0.0,180.0,12.0,0.0
4299,80.0,72.0,120.0,6.0,0.0
4300,56.0,96.0,390.0,7.0,0.0
4301,76.0,120.0,120.0,6.0,0.0
4302,73.0,24.0,120.0,6.0,0.0
4303,68.0,120.0,120.0,6.0,0.0
4304,56.0,96.0,390.0,13.0,0.0
4305,44.0,0.0,390.0,14.0,0.0
4306,63.0,48.0,180.0,11.0,0.0
4307,56.0,0.0,390.0,7.0,0.0
4308,63.0,0.0,390.0,7.0,0.0
4309,60.0,0.0,390.0,7.0,0.0
4310,60.0,0.0,180.0,12.0,0.0
4311,80.0,72.0,120.0,6.0,0.0
4312,68.0,0.0,180.0,10.0,0.0
4313,75.0,120.0,120.0,6.0,0.0
4314,72.0,24.0,120.0,6.0,0.0
4315,68.0,120.0,120.0,6.0,0.0
4316,61.0,48.0,180.0,12.0,0.0
4317,80.0,72.0,120.0,6.0,0.0
4318,61.0,0.0,390.0,7.0,0.0
4319,64.0,0.0,180.0,11.0,0.0
4320,68.0,0.0,180.0,10.0,0.0
4321,56.0,96.0,390.0,7.0,0.0
4322,64.0,0.0,390.0,7.0,0.0
4323,76.0,120.0,120.0,6.0,0.0
4324,73.0,24.0,120.0,6.0,0.0
4325,68.0,384.0,120.0,6.0,0.0
4326,63.0,0.0,390.0,11.0,0.0
4327,60.0,960.0,390.0,12.0,0.0
4328,72.0,0.0,390.0,6.0,0.0
4329,75.0,0.0,390.0,6.0,0.0
4330,44.0,0.0,390.0,14.0,0.0
4331,56.0,0.0,390.0,13.0,0.0
4332,80.0,0.0,390.0,6.0,0.0
4333,63.0,0.0,390.0,7.0,0.0
4334,56.0,0.0,390.0,7.0,0.0
4335,60.0,0.0,390.0,7.0,0.0
4336,68.0,0.0,390.0,10.0,0.0
4337,68.0,480.0,390.0,6.0,0.0
4338,68.0,216.0,390.0,6.0,0.0
4339,56.0,0.0,1920.0,7.0,0.0
4340,68.0,600.0,120.0,6.0,0.0
4341,53.0,0.0,960.0,8.0,0.0
4342,49.0,0.0,960.0,8.0,0.0
4343,77.0,120.0,600.0,6.0,0.0
4344,75.0,120.0,120.0,6.0,0.0
4345,73.0,480.0,120.0,6.0,0.0
4346,54.0,0.0,960.0,8.0,0.0
4347,51.0,384.0,960.0,8.0,0.0
4348,72.0,384.0,480.0,6.0,0.0
4349,75.0,96.0,390.0,6.0,0.0
4350,53.0,0.0,390.0,8.0,0.0
4351,73.0,0.0,390.0,6.0,0.0
4352,56.0,696.0,390.0,7.0,0.0
4353,65.0,0.0,480.0,6.0,0.0
4354,80.0,324.0,120.0,10.0,0.0
4355,77.0,0.0,120.0,11.0,0.0
4356,73.0,0.0,330.0,11.0,0.0
4357,77.0,36.0,330.0,10.0,0.0
4358,68.0,120.0,15.0,6.0,0.0
4359,73.0,324.0,120.0,11.0,0.0
4360,77.0,0.0,120.0,10.0,0.0
4361,73.0,0.0,330.0,10.0,0.0
4362,68.0,36.0,330.0,11.0,0.0
4363,73.0,0.0,15.0,6.0,0.0
4364,68.0,0.0,120.0,11.0,0.0
4365,73.0,324.0,120.0,10.0,0.0
4366,65.0,36.0,330.0,11.0,0.0
4367,68.0,0.0,330.0,10.0,0.0
4368,68.0,264.0,120.0,10.0,0.0
4369,80.0,60.0,390.0,6.0,0.0
4370,77.0,120.0,15.0,6.0,0.0
4371,65.0,0.0,120.0,11.0,0.0
4372,61.0,228.0,330.0,11.0,0.0
4373,65.0,0.0,330.0,10.0,0.0
4374,66.0,480.0,180.0,10.0,0.0
4375,63.0,0.0,180.0,11.0,0.0
4376,60.0,0.0,180.0,7.0,0.0
4377,56.0,0.0,180.0,12.0,0.0
4378,48.0,0.0,180.0,13.0,0.0
4379,75.0,0.0,180.0,6.0,0.0
4380,36.0,0.0,180.0,14.0,0.0
4381,78.0,0.0,180.0,6.0,0.0
4382,37.0,0.0,180.0,14.0,0.0
4383,77.0,0.0,180.0,6.0,0.0
4384,49.0,0.0,180.0,13.0,0.0
4385,56.0,0.0,180.0,12.0,0.0
4386,65.0,0.0,180.0,10.0,0.0
4387,61.0,672.0,180.0,7.0,0.0
4388,73.0,0.0,180.0,6.0,0.0
4389,61.0,0.0,180.0,11.0,0.0
4390,44.0,0.0,390.0,13.0,0.0
4391,63.0,960.0,390.0,10.0,0.0
4392,32.0,0.0,390.0,14.0,0.0
4393,72.0,0.0,390.0,6.0,0.0
4394,75.0,0.0,390.0,6.0,0.0
4395,56.0,0.0,390.0,7.0,0.0
4396,56.0,0.0,390.0,12.0,0.0
4397,60.0,0.0,390.0,11.0,0.0
4398,70.0,480.0,390.0,6.0,0.0
4399,70.0,216.0,390.0,6.0,0.0
4400,58.0,0.0,1920.0,7.0,0.0
4401,70.0,600.0,120.0,6.0,0.0
4402,51.0,0.0,960.0,8.0,0.0
4403,54.0,480.0,960.0,8.0,0.0
4404,78.0,120.0,600.0,6.0,0.0
4405,77.0,120.0,120.0,6.0,0.0
4406,75.0,0.0,120.0,6.0,0.0
4407,74.0,480.0,480.0,6.0,0.0
4408,53.0,0.0,960.0,8.0,0.0
4409,56.0,384.0,960.0,8.0,0.0
4410,77.0,0.0,480.0,6.0,0.0
4411,54.0,0.0,390.0,8.0,0.0
4412,58.0,0.0,390.0,7.0,0.0
4413,75.0,696.0,390.0,6.0,0.0
4414,66.0,0.0,480.0,6.0,0.0
4415,78.0,324.0,120.0,11.0,0.0
4416,82.0,0.0,120.0,10.0,0.0
4417,78.0,0.0,330.0,10.0,0.0
4418,75.0,36.0,330.0,11.0,0.0
4419,70.0,120.0,15.0,6.0,0.0
4420,75.0,0.0,480.0,6.0,0.0
4421,75.0,324.0,120.0,11.0,0.0
4422,78.0,0.0,120.0,10.0,0.0
4423,70.0,36.0,330.0,11.0,0.0
4424,75.0,0.0,330.0,10.0,0.0
4425,75.0,0.0,120.0,10.0,0.0
4426,70.0,324.0,120.0,11.0,0.0
4427,75.0,120.0,480.0,6.0,0.0
4428,78.0,0.0,480.0,6.0,0.0
4429,70.0,36.0,330.0,10.0,0.0
4430,66.0,0.0,330.0,11.0,0.0
4431,66.0,264.0,120.0,11.0,0.0
4432,78.0,60.0,390.0,6.0,0.0
4433,70.0,0.0,120.0,10.0,0.0
4434,82.0,0.0,390.0,6.0,0.0
4435,66.0,516.0,330.0,10.0,0.0
4436,63.0,0.0,330.0,11.0,0.0
4437,73.0,0.0,480.0,6.0,0.0
4438,68.0,0.0,480.0,6.0,0.0
4439,61.0,0.0,480.0,11.0,0.0
4440,32.0,0.0,960.0,14.0,0.0
4441,56.0,0.0,480.0,12.0,0.0
4442,65.0,0.0,480.0,10.0,0.0
4443,56.0,0.0,960.0,7.0,0.0
4444,65.0,120.0,480.0,7.0,0.0
4445,44.0,0.0,960.0,13.0,0.0
4446,54.0,0.0,480.0,12.0,0.0
4447,66.0,384.0,480.0,7.0,0.0
4448,77.0,288.0,120.0,6.0,0.0
4449,60.0,0.0,480.0,11.0,0.0
4450,63.0,0.0,480.0,10.0,0.0
4451,75.0,72.0,300.0,6.0,0.0
4452,72.0,0.0,300.0,6.0,0.0
4453,37.0,0.0,390.0,14.0,0.0
4454,61.0,0.0,390.0,10.0,0.0
4455,53.0,0.0,390.0,12.0,0.0
4456,49.0,0.0,390.0,13.0,0.0
4457,73.0,0.0,390.0,6.0,0.0
4458,61.0,0.0,390.0,11.0,0.0
4459,61.0,0.0,390.0,7.0,0.0
4460,65.0,998.0,390.0,7.0,0.0
4461,68.0,480.0,420.0,1.0,0.0
4462,68.0,202.0,420.0,1.0,0.0
4463,56.0,0.0,2310.0,12.0,0.0
4464,65.0,0.0,960.0,11.0,0.0
4465,49.0,0.0,960.0,13.0,0.0
4466,68.0,144.0,960.0,10.0,0.0
4467,77.0,120.0,720.0,1.0,0.0
4468,68.0,0.0,2310.0,1.0,0.0
4469,37.0,240.0,150.0,2.0,0.0
4470,41.0,240.0,150.0,2.0,0.0
4471,44.0,96.0,150.0,2.0,0.0
4472,75.0,24.0,120.0,1.0,0.0
4473,49.0,96.0,150.0,2.0,0.0
4474,73.0,0.0,120.0,1.0,0.0
4475,72.0,144.0,480.0,1.0,0.0
4476,51.0,0.0,960.0,13.0,0.0
4477,66.0,144.0,960.0,10.0,0.0
4478,63.0,0.0,480.0,11.0,0.0
4479,39.0,240.0,150.0,2.0,0.0
4480,42.0,96.0,150.0,2.0,0.0
4481,60.0,0.0,480.0,11.0,0.0
4482,75.0,0.0,480.0,1.0,0.0
4483,48.0,240.0,150.0,2.0,0.0
4484,51.0,96.0,150.0,2.0,0.0
4485,53.0,0.0,390.0,13.0,0.0
4486,61.0,0.0,390.0,11.0,0.0
4487,65.0,0.0,390.0,10.0,0.0
4488,41.0,240.0,150.0,2.0,0.0
4489,73.0,0.0,390.0,1.0,0.0
4490,44.0,240.0,150.0,2.0,0.0
4491,49.0,240.0,150.0,2.0,0.0
4492,53.0,240.0,150.0,2.0,0.0
4493,68.0,120.0,480.0,0.0,0.0
4494,80.0,120.0,240.0,6.0,0.0
4495,65.0,0.0,480.0,1.0,0.0
4496,49.0,96.0,150.0,2.0,0.0
4497,78.0,24.0,120.0,6.0,0.0
4498,53.0,96.0,150.0,2.0,0.0
4499,77.0,0.0,120.0,6.0,0.0
4500,68.0,0.0,480.0,1.0,0.0
4501,44.0,96.0,150.0,2.0,0.0
4502,75.0,24.0,120.0,6.0,0.0
4503,73.0,120.0,480.0,0.0,0.0
4504,73.0,120.0,120.0,6.0,0.0
4505,72.0,24.0,120.0,6.0,0.0
4506,49.0,96.0,150.0,2.0,0.0
4507,70.0,0.0,120.0,6.0,0.0
4508,73.0,120.0,480.0,1.0,0.0
4509,77.0,0.0,480.0,0.0,0.0
4510,68.0,24.0,120.0,6.0,0.0
4511,41.0,96.0,150.0,2.0,0.0
4512,66.0,120.0,120.0,6.0,0.0
4513,44.0,96.0,150.0,2.0,0.0
4514,65.0,24.0,120.0,6.0,0.0
4515,63.0,0.0,120.0,6.0,0.0
4516,61.0,24.0,120.0,6.0,0.0
4517,37.0,96.0,150.0,2.0,0.0
4518,77.0,144.0,480.0,1.0,0.0
4519,80.0,0.0,480.0,0.0,0.0
4520,60.0,120.0,120.0,6.0,0.0
4521,58.0,24.0,120.0,6.0,0.0
4522,49.0,96.0,150.0,2.0,0.0
4523,56.0,0.0,120.0,6.0,0.0
4524,78.0,0.0,180.0,0.0,0.0
4525,51.0,0.0,180.0,7.0,0.0
4526,54.0,0.0,180.0,7.0,0.0
4527,48.0,48.0,150.0,2.0,0.0
4528,75.0,192.0,180.0,1.0,0.0
4529,36.0,0.0,180.0,8.0,0.0
4530,44.0,240.0,150.0,2.0,0.0
4531,49.0,48.0,150.0,2.0,0.0
4532,37.0,0.0,180.0,8.0,0.0
4533,49.0,0.0,180.0,7.0,0.0
4534,53.0,0.0,180.0,7.0,0.0
4535,77.0,192.0,180.0,0.0,0.0
4536,73.0,0.0,180.0,1.0,0.0
4537,37.0,240.0,150.0,2.0,0.0
4538,72.0,202.0,420.0,1.0,0.0
4539,48.0,0.0,390.0,7.0,0.0
4540,51.0,38.0,390.0,7.0,0.0
4541,32.0,0.0,390.0,8.0,0.0
4542,75.0,0.0,390.0,0.0,0.0
4543,44.0,240.0,150.0,2.0,0.0
4544,48.0,0.0,150.0,2.0,0.0
4545,51.0,240.0,150.0,2.0,0.0
4546,56.0,240.0,150.0,2.0,0.0
4547,54.0,240.0,150.0,2.0,0.0
4548,70.0,202.0,420.0,1.0,0.0
4549,51.0,38.0,150.0,2.0,0.0
4550,46.0,240.0,150.0,2.0,0.0
4551,70.0,202.0,420.0,1.0,0.0
4552,42.0,38.0,150.0,2.0,0.0
4553,66.0,0.0,960.0,11.0,0.0
4554,39.0,240.0,150.0,2.0,0.0
4555,54.0,0.0,960.0,12.0,0.0
4556,70.0,0.0,960.0,10.0,0.0
4557,70.0,0.0,960.0,1.0,0.0
4558,78.0,120.0,720.0,1.0,0.0
4559,51.0,144.0,960.0,13.0,0.0
4560,42.0,240.0,150.0,2.0,0.0
4561,46.0,96.0,150.0,2.0,0.0
4562,51.0,96.0,150.0,2.0,0.0
4563,77.0,24.0,120.0,1.0,0.0
4564,75.0,0.0,120.0,1.0,0.0
4565,71.0,144.0,720.0,1.0,0.0
4566,74.0,0.0,480.0,1.0,0.0
4567,59.0,0.0,480.0,12.0,0.0
4568,65.0,144.0,480.0,11.0,0.0
4569,53.0,0.0,960.0,13.0,0.0
4570,68.0,0.0,960.0,10.0,0.0
4571,41.0,240.0,150.0,2.0,0.0
4572,44.0,96.0,150.0,2.0,0.0
4573,50.0,96.0,150.0,2.0,0.0
4574,62.0,144.0,480.0,11.0,0.0
4575,56.0,0.0,480.0,12.0,0.0
4576,77.0,0.0,480.0,1.0,0.0
4577,70.0,0.0,240.0,1.0,0.0
4578,53.0,96.0,150.0,2.0,0.0
4579,70.0,240.0,390.0,1.0,0.0
4580,75.0,0.0,390.0,1.0,0.0
4581,54.0,0.0,390.0,13.0,0.0
4582,58.0,0.0,390.0,12.0,0.0
4583,63.0,0.0,390.0,11.0,0.0
4584,66.0,0.0,390.0,10.0,0.0
4585,42.0,240.0,150.0,2.0,0.0
4586,46.0,0.0,150.0,2.0,0.0
4587,51.0,240.0,150.0,2.0,0.0
4588,54.0,240.0,150.0,2.0,0.0
4589,82.0,120.0,240.0,6.0,0.0
4590,70.0,120.0,480.0,0.0,0.0
4591,51.0,96.0,150.0,2.0,0.0
4592,66.0,0.0,480.0,1.0,0.0
4593,54.0,96.0,150.0,2.0,0.0
4594,80.0,24.0,120.0,6.0,0.0
4595,78.0,0.0,120.0,6.0,0.0
4596,77.0,24.0,120.0,6.0,0.0
4597,75.0,0.0,480.0,0.0,0.0
4598,70.0,120.0,480.0,1.0,0.0
4599,46.0,96.0,150.0,2.0,0.0
4600,75.0,120.0,120.0,6.0,0.0
4601,73.0,24.0,120.0,6.0,0.0
4602,51.0,96.0,150.0,2.0,0.0
4603,71.0,0.0,120.0,6.0,0.0
4604,78.0,120.0,480.0,0.0,0.0
4605,75.0,0.0,480.0,1.0,0.0
4606,70.0,24.0,120.0,6.0,0.0
4607,42.0,96.0,150.0,2.0,0.0
4608,68.0,120.0,120.0,6.0,0.0
4609,66.0,24.0,120.0,6.0,0.0
4610,46.0,96.0,150.0,2.0,0.0
4611,65.0,0.0,120.0,6.0,0.0
4612,39.0,96.0,150.0,2.0,0.0
4613,63.0,24.0,120.0,6.0,0.0
4614,78.0,0.0,450.0,1.0,0.0
4615,82.0,24.0,450.0,0.0,0.0
4616,61.0,120.0,120.0,6.0,0.0
4617,60.0,24.0,120.0,6.0,0.0
4618,42.0,72.0,150.0,2.0,0.0
4619,58.0,144.0,120.0,6.0,0.0
4620,56.0,0.0,480.0,7.0,0.0
4621,65.0,0.0,480.0,1.0,0.0
4622,68.0,0.0,480.0,1.0,0.0
4623,44.0,0.0,960.0,8.0,0.0
4624,53.0,0.0,480.0,7.0,0.0
4625,44.0,240.0,150.0,2.0,0.0
4626,73.0,120.0,480.0,0.0,0.0
4627,63.0,0.0,480.0,6.0,0.0
4628,42.0,96.0,150.0,2.0,0.0
4629,72.0,0.0,480.0,1.0,0.0
4630,63.0,0.0,480.0,1.0,0.0
4631,54.0,0.0,480.0,7.0,0.0
4632,65.0,0.0,120.0,6.0,0.0
4633,44.0,240.0,150.0,2.0,0.0
4634,77.0,24.0,120.0,0.0,0.0
4635,60.0,240.0,360.0,7.0,0.0
4636,63.0,0.0,360.0,6.0,0.0
4637,75.0,0.0,360.0,0.0,0.0
4638,32.0,96.0,150.0,2.0,0.0
4639,65.0,0.0,390.0,1.0,0.0
4640,37.0,96.0,390.0,2.0,0.0
4641,73.0,0.0,390.0,1.0,0.0
4642,73.0,0.0,390.0,0.0,0.0
4643,61.0,120.0,240.0,6.0,0.0
4644,53.0,0.0,390.0,7.0,0.0
4645,49.0,0.0,390.0,8.0,0.0
4646,63.0,24.0,120.0,6.0,0.0
4647,65.0,120.0,120.0,6.0,0.0
4648,66.0,120.0,120.0,6.0,0.0
4649,68.0,120.0,120.0,6.0,0.0
4650,70.0,120.0,120.0,6.0,0.0
4651,72.0,120.0,120.0,6.0,0.0
4652,73.0,120.0,120.0,6.0,0.0
4653,75.0,120.0,120.0,6.0,0.0
4654,77.0,120.0,120.0,6.0,0.0
4655,78.0,120.0,120.0,6.0,0.0
4656,79.0,120.0,120.0,6.0,0.0
4657,80.0,120.0,120.0,6.0,0.0
4658,82.0,120.0,120.0,6.0,0.0
4659,80.0,120.0,120.0,6.0,0.0
4660,60.0,96.0,150.0,10.0,0.0
4661,72.0,12.0,120.0,6.0,0.0
4662,56.0,0.0,150.0,11.0,0.0
4663,56.0,12.0,120.0,7.0,0.0
4664,68.0,120.0,120.0,7.0,0.0
4665,73.0,12.0,120.0,6.0,0.0
4666,61.0,0.0,150.0,10.0,0.0
4667,58.0,12.0,120.0,7.0,0.0
4668,58.0,96.0,150.0,11.0,0.0
4669,68.0,120.0,120.0,7.0,0.0
4670,60.0,12.0,120.0,7.0,0.0
4671,63.0,0.0,150.0,10.0,0.0
4672,60.0,96.0,150.0,11.0,0.0
4673,75.0,12.0,120.0,6.0,0.0
4674,68.0,120.0,120.0,7.0,0.0
4675,77.0,12.0,120.0,6.0,0.0
4676,61.0,96.0,150.0,11.0,0.0
4677,61.0,12.0,120.0,7.0,0.0
4678,65.0,0.0,150.0,10.0,0.0
4679,68.0,120.0,120.0,7.0,0.0
4680,78.0,12.0,120.0,6.0,0.0
4681,66.0,96.0,150.0,10.0,0.0
4682,63.0,12.0,120.0,7.0,0.0
4683,63.0,0.0,150.0,11.0,0.0
4684,68.0,120.0,120.0,7.0,0.0
4685,80.0,12.0,120.0,6.0,0.0
4686,65.0,0.0,150.0,11.0,0.0
4687,65.0,12.0,120.0,7.0,0.0
4688,68.0,96.0,150.0,10.0,0.0
4689,68.0,120.0,120.0,7.0,0.0
4690,66.0,12.0,120.0,7.0,0.0
4691,82.0,12.0,120.0,6.0,0.0
4692,66.0,96.0,150.0,11.0,0.0
4693,70.0,0.0,150.0,10.0,0.0
4694,68.0,120.0,120.0,7.0,0.0
4695,63.0,12.0,120.0,7.0,0.0
4696,63.0,0.0,150.0,11.0,0.0
4697,72.0,96.0,150.0,10.0,0.0
4698,84.0,12.0,120.0,6.0,0.0
4699,68.0,120.0,120.0,7.0,0.0
4700,65.0,0.0,390.0,7.0,0.0
4701,85.0,120.0,120.0,6.0,0.0
4702,65.0,96.0,390.0,11.0,0.0
4703,73.0,0.0,390.0,10.0,0.0
4704,84.0,120.0,120.0,6.0,0.0
4705,82.0,24.0,120.0,6.0,0.0
4706,80.0,120.0,120.0,6.0,0.0
4707,79.0,120.0,120.0,6.0,0.0
4708,80.0,120.0,120.0,6.0,0.0
4709,82.0,120.0,120.0,6.0,0.0
4710,80.0,120.0,120.0,6.0,0.0
4711,78.0,120.0,120.0,6.0,0.0
4712,77.0,120.0,120.0,6.0,0.0
4713,75.0,120.0,120.0,6.0,0.0
4714,73.0,120.0,120.0,6.0,0.0
4715,72.0,120.0,120.0,6.0,0.0
4716,73.0,120.0,120.0,6.0,0.0
4717,75.0,120.0,120.0,6.0,0.0
4718,73.0,120.0,120.0,6.0,0.0
4719,56.0,0.0,150.0,11.0,0.0
4720,56.0,12.0,120.0,7.0,0.0
4721,60.0,96.0,150.0,10.0,0.0
4722,72.0,12.0,120.0,6.0,0.0
4723,68.0,120.0,120.0,7.0,0.0
4724,58.0,12.0,120.0,7.0,0.0
4725,58.0,0.0,150.0,11.0,0.0
4726,61.0,96.0,150.0,10.0,0.0
4727,73.0,12.0,120.0,6.0,0.0
4728,68.0,120.0,120.0,7.0,0.0
4729,63.0,0.0,150.0,10.0,0.0
4730,75.0,12.0,120.0,6.0,0.0
4731,60.0,12.0,120.0,7.0,0.0
4732,60.0,96.0,150.0,11.0,0.0
4733,68.0,120.0,120.0,7.0,0.0
4734,77.0,12.0,120.0,6.0,0.0
4735,61.0,0.0,150.0,11.0,0.0
4736,61.0,12.0,120.0,7.0,0.0
4737,65.0,96.0,150.0,10.0,0.0
4738,68.0,120.0,120.0,7.0,0.0
4739,66.0,96.0,150.0,10.0,0.0
4740,63.0,0.0,150.0,11.0,0.0
4741,78.0,12.0,120.0,6.0,0.0
4742,63.0,12.0,120.0,7.0,0.0
4743,68.0,120.0,120.0,7.0,0.0
4744,80.0,12.0,120.0,6.0,0.0
4745,68.0,0.0,150.0,10.0,0.0
4746,65.0,96.0,150.0,11.0,0.0
4747,65.0,12.0,120.0,7.0,0.0
4748,68.0,120.0,120.0,7.0,0.0
4749,82.0,12.0,120.0,6.0,0.0
4750,66.0,12.0,120.0,7.0,0.0
4751,70.0,0.0,150.0,10.0,0.0
4752,66.0,96.0,150.0,11.0,0.0
4753,68.0,120.0,120.0,7.0,0.0
4754,84.0,12.0,120.0,6.0,0.0
4755,72.0,0.0,150.0,10.0,0.0
4756,63.0,96.0,150.0,11.0,0.0
4757,63.0,12.0,120.0,7.0,0.0
4758,68.0,120.0,120.0,7.0,0.0
4759,65.0,0.0,390.0,11.0,0.0
4760,85.0,0.0,240.0,6.0,0.0
4761,73.0,96.0,390.0,10.0,0.0
4762,65.0,120.0,120.0,7.0,0.0
4763,68.0,120.0,120.0,7.0,0.0
4764,63.0,24.0,120.0,7.0,0.0
4765,84.0,120.0,240.0,6.0,0.0
4766,66.0,0.0,120.0,7.0,0.0
4767,65.0,24.0,120.0,7.0,0.0
4768,85.0,96.0,150.0,6.0,0.0
4769,68.0,60.0,120.0,7.0,0.0
4770,69.0,0.0,240.0,10.0,0.0
4771,63.0,0.0,240.0,12.0,0.0
4772,60.0,60.0,120.0,7.0,0.0
4773,60.0,0.0,240.0,13.0,0.0
4774,82.0,60.0,60.0,6.0,0.0
4775,66.0,120.0,240.0,11.0,0.0
4776,81.0,0.0,60.0,6.0,0.0
4777,82.0,60.0,60.0,6.0,0.0
4778,63.0,0.0,120.0,7.0,0.0
4779,81.0,0.0,60.0,6.0,0.0
4780,61.0,120.0,120.0,7.0,0.0
4781,61.0,0.0,480.0,13.0,0.0
4782,82.0,0.0,240.0,6.0,0.0
4783,61.0,0.0,480.0,12.0,0.0
4784,65.0,0.0,480.0,11.0,0.0
4785,70.0,120.0,480.0,10.0,0.0
4786,65.0,120.0,120.0,7.0,0.0
4787,81.0,0.0,240.0,6.0,0.0
4788,60.0,120.0,120.0,7.0,0.0
4789,63.0,0.0,120.0,7.0,0.0
4790,82.0,96.0,150.0,6.0,0.0
4791,61.0,24.0,120.0,7.0,0.0
4792,65.0,120.0,120.0,7.0,0.0
4793,57.0,24.0,120.0,7.0,0.0
4794,65.0,0.0,240.0,10.0,0.0
4795,77.0,96.0,150.0,6.0,0.0
4796,57.0,0.0,240.0,12.0,0.0
4797,57.0,0.0,240.0,13.0,0.0
4798,60.0,0.0,240.0,11.0,0.0
4799,60.0,120.0,120.0,7.0,0.0
4800,58.0,0.0,480.0,13.0,0.0
4801,58.0,120.0,480.0,12.0,0.0
4802,61.0,0.0,480.0,11.0,0.0
4803,78.0,120.0,240.0,6.0,0.0
4804,66.0,0.0,480.0,10.0,0.0
4805,58.0,120.0,120.0,7.0,0.0
4806,61.0,0.0,120.0,7.0,0.0
4807,57.0,120.0,120.0,7.0,0.0
4808,77.0,0.0,240.0,6.0,0.0
4809,60.0,0.0,120.0,7.0,0.0
4810,78.0,96.0,150.0,6.0,0.0
4811,58.0,24.0,120.0,7.0,0.0
4812,61.0,60.0,120.0,7.0,0.0
4813,64.0,0.0,240.0,10.0,0.0
4814,55.0,0.0,120.0,7.0,0.0
4815,77.0,60.0,60.0,6.0,0.0
4816,58.0,0.0,240.0,12.0,0.0
4817,55.0,0.0,240.0,13.0,0.0
4818,61.0,0.0,240.0,11.0,0.0
4819,76.0,60.0,60.0,6.0,0.0
4820,77.0,60.0,60.0,6.0,0.0
4821,58.0,0.0,120.0,7.0,0.0
4822,76.0,120.0,60.0,6.0,0.0
4823,56.0,120.0,120.0,7.0,0.0
4824,60.0,120.0,480.0,11.0,0.0
4825,56.0,0.0,480.0,12.0,0.0
4826,77.0,0.0,240.0,6.0,0.0
4827,56.0,0.0,480.0,13.0,0.0
4828,65.0,0.0,480.0,10.0,0.0
4829,60.0,120.0,120.0,7.0,0.0
4830,76.0,0.0,240.0,6.0,0.0
4831,55.0,120.0,120.0,7.0,0.0
4832,58.0,0.0,120.0,7.0,0.0
4833,77.0,96.0,150.0,6.0,0.0
4834,56.0,24.0,120.0,7.0,0.0
4835,60.0,120.0,120.0,7.0,0.0
4836,59.0,0.0,240.0,11.0,0.0
4837,74.0,96.0,150.0,6.0,0.0
4838,53.0,24.0,120.0,7.0,0.0
4839,62.0,0.0,240.0,10.0,0.0
4840,53.0,0.0,240.0,13.0,0.0
4841,56.0,120.0,240.0,12.0,0.0
4842,56.0,0.0,120.0,7.0,0.0
4843,63.0,0.0,390.0,10.0,0.0
4844,54.0,0.0,390.0,13.0,0.0
4845,58.0,96.0,390.0,11.0,0.0
4846,54.0,0.0,390.0,12.0,0.0
4847,54.0,0.0,390.0,7.0,0.0
4848,75.0,120.0,120.0,6.0,0.0
4849,70.0,120.0,120.0,6.0,0.0
4850,71.0,24.0,120.0,6.0,0.0
4851,70.0,120.0,120.0,6.0,0.0
4852,72.0,120.0,120.0,6.0,0.0
4853,70.0,120.0,120.0,6.0,0.0
4854,74.0,120.0,120.0,6.0,0.0
4855,70.0,120.0,120.0,6.0,0.0
4856,75.0,120.0,120.0,6.0,0.0
4857,70.0,120.0,120.0,6.0,0.0
4858,77.0,120.0,120.0,6.0,0.0
4859,70.0,120.0,120.0,6.0,0.0
4860,78.0,120.0,120.0,6.0,0.0
4861,70.0,120.0,120.0,6.0,0.0
4862,80.0,120.0,120.0,6.0,0.0
4863,70.0,120.0,120.0,6.0,0.0
4864,82.0,120.0,120.0,6.0,0.0
4865,58.0,0.0,1920.0,12.0,0.0
4866,30.0,0.0,1920.0,14.0,0.0
4867,42.0,0.0,1920.0,13.0,0.0
4868,63.0,0.0,1920.0,10.0,0.0
4869,61.0,0.0,1920.0,11.0,0.0
4870,84.0,120.0,120.0,6.0,0.0
4871,85.0,120.0,120.0,6.0,0.0
4872,84.0,120.0,120.0,6.0,0.0
4873,82.0,120.0,120.0,6.0,0.0
4874,80.0,120.0,120.0,6.0,0.0
4875,78.0,120.0,120.0,6.0,0.0
4876,77.0,120.0,120.0,6.0,0.0
4877,75.0,120.0,120.0,6.0,0.0
4878,77.0,120.0,120.0,6.0,0.0
4879,78.0,120.0,120.0,6.0,0.0
4880,77.0,120.0,120.0,6.0,0.0
4881,75.0,120.0,120.0,6.0,0.0
4882,73.0,120.0,120.0,6.0,0.0
4883,72.0,120.0,120.0,6.0,0.0
4884,70.0,120.0,120.0,6.0,0.0
4885,44.0,0.0,390.0,7.0,0.0
4886,56.0,96.0,390.0,7.0,0.0
4887,56.0,0.0,390.0,12.0,0.0
4888,65.0,0.0,390.0,10.0,0.0
4889,32.0,0.0,390.0,14.0,0.0
4890,68.0,120.0,120.0,6.0,0.0
4891,44.0,0.0,390.0,13.0,0.0
4892,61.0,0.0,390.0,11.0,0.0
4893,80.0,120.0,120.0,6.0,0.0
4894,67.0,24.0,120.0,6.0,0.0
4895,79.0,120.0,120.0,6.0,0.0
4896,68.0,120.0,120.0,6.0,0.0
4897,80.0,120.0,120.0,6.0,0.0
4898,69.0,120.0,120.0,6.0,0.0
4899,81.0,120.0,120.0,6.0,0.0
4900,70.0,120.0,120.0,6.0,0.0
4901,82.0,120.0,120.0,6.0,0.0
4902,71.0,120.0,120.0,6.0,0.0
4903,83.0,120.0,120.0,6.0,0.0
4904,72.0,120.0,120.0,6.0,0.0
4905,84.0,120.0,120.0,6.0,0.0
4906,73.0,120.0,120.0,6.0,0.0
4907,85.0,60.0,120.0,6.0,0.0
4908,77.0,60.0,60.0,6.0,0.0
4909,56.0,0.0,120.0,7.0,0.0
4910,75.0,60.0,60.0,6.0,0.0
4911,77.0,60.0,60.0,6.0,0.0
4912,66.0,60.0,120.0,7.0,0.0
4913,75.0,0.0,60.0,6.0,0.0
4914,60.0,60.0,120.0,7.0,0.0
4915,77.0,60.0,60.0,6.0,0.0
4916,75.0,0.0,60.0,6.0,0.0
4917,66.0,0.0,120.0,7.0,0.0
4918,77.0,60.0,60.0,6.0,0.0
4919,75.0,60.0,60.0,6.0,0.0
4920,56.0,0.0,120.0,7.0,0.0
4921,77.0,60.0,60.0,6.0,0.0
4922,75.0,60.0,60.0,6.0,0.0
4923,66.0,60.0,120.0,7.0,0.0
4924,77.0,60.0,60.0,6.0,0.0
4925,75.0,0.0,60.0,6.0,0.0
4926,77.0,60.0,60.0,6.0,0.0
4927,60.0,0.0,120.0,7.0,0.0
4928,75.0,60.0,60.0,6.0,0.0
4929,66.0,60.0,120.0,7.0,0.0
4930,77.0,60.0,60.0,6.0,0.0
4931,75.0,0.0,60.0,6.0,0.0
4932,56.0,60.0,120.0,7.0,0.0
4933,77.0,60.0,60.0,6.0,0.0
4934,75.0,0.0,60.0,6.0,0.0
4935,66.0,0.0,120.0,7.0,0.0
4936,77.0,60.0,60.0,6.0,0.0
4937,75.0,60.0,60.0,6.0,0.0
4938,77.0,60.0,60.0,6.0,0.0
4939,60.0,60.0,120.0,7.0,0.0
4940,75.0,0.0,60.0,6.0,0.0
4941,66.0,60.0,120.0,7.0,0.0
4942,77.0,60.0,60.0,6.0,0.0
4943,75.0,0.0,60.0,6.0,0.0
4944,56.0,60.0,120.0,7.0,0.0
4945,77.0,60.0,60.0,6.0,0.0
4946,75.0,0.0,60.0,6.0,0.0
4947,77.0,60.0,60.0,6.0,0.0
4948,66.0,120.0,120.0,7.0,0.0
4949,75.0,0.0,60.0,6.0,0.0
4950,60.0,0.0,120.0,7.0,0.0
4951,73.0,120.0,120.0,6.0,0.0
4952,66.0,0.0,120.0,7.0,0.0
4953,75.0,240.0,120.0,6.0,0.0
4954,61.0,96.0,390.0,7.0,0.0
4955,65.0,0.0,390.0,7.0,0.0
4956,73.0,120.0,120.0,6.0,0.0
4957,72.0,24.0,120.0,6.0,0.0
4958,73.0,120.0,120.0,6.0,0.0
4959,75.0,120.0,120.0,6.0,0.0
4960,73.0,96.0,120.0,6.0,0.0
4961,72.0,96.0,120.0,6.0,0.0
4962,53.0,24.0,90.0,7.0,0.0
4963,61.0,24.0,90.0,7.0,0.0
4964,73.0,96.0,120.0,6.0,0.0
4965,63.0,96.0,120.0,6.0,0.0
4966,54.0,24.0,90.0,7.0,0.0
4967,61.0,24.0,90.0,7.0,0.0
4968,75.0,96.0,120.0,6.0,0.0
4969,53.0,24.0,90.0,7.0,0.0
4970,62.0,96.0,120.0,6.0,0.0
4971,61.0,24.0,90.0,7.0,0.0
4972,74.0,96.0,120.0,6.0,0.0
4973,63.0,96.0,120.0,6.0,0.0
4974,54.0,24.0,90.0,7.0,0.0
4975,61.0,24.0,90.0,7.0,0.0
4976,75.0,96.0,120.0,6.0,0.0
4977,56.0,24.0,90.0,7.0,0.0
4978,65.0,96.0,120.0,6.0,0.0
4979,61.0,24.0,90.0,7.0,0.0
4980,77.0,96.0,120.0,6.0,0.0
4981,66.0,120.0,120.0,6.0,0.0
4982,58.0,24.0,90.0,7.0,0.0
4983,78.0,0.0,120.0,6.0,0.0
4984,61.0,120.0,120.0,7.0,0.0
4985,65.0,0.0,120.0,6.0,0.0
4986,57.0,120.0,120.0,7.0,0.0
4987,77.0,120.0,120.0,6.0,0.0
4988,61.0,0.0,120.0,7.0,0.0
4989,58.0,120.0,120.0,7.0,0.0
4990,66.0,0.0,120.0,6.0,0.0
4991,78.0,0.0,120.0,6.0,0.0
4992,61.0,120.0,120.0,7.0,0.0
4993,64.0,0.0,120.0,6.0,0.0
4994,55.0,120.0,120.0,7.0,0.0
4995,61.0,120.0,120.0,7.0,0.0
4996,76.0,0.0,120.0,6.0,0.0
4997,56.0,0.0,120.0,7.0,0.0
4998,65.0,120.0,120.0,6.0,0.0
4999,77.0,120.0,120.0,6.0,0.0
5000,61.0,0.0,120.0,7.0,0.0
5001,55.0,0.0,120.0,7.0,0.0
5002,64.0,120.0,120.0,6.0,0.0
5003,76.0,0.0,120.0,6.0,0.0
5004,61.0,120.0,120.0,7.0,0.0
5005,65.0,120.0,120.0,6.0,0.0
5006,56.0,0.0,120.0,7.0,0.0
5007,61.0,120.0,120.0,7.0,0.0
5008,77.0,0.0,120.0,6.0,0.0
5009,58.0,0.0,120.0,7.0,0.0
5010,67.0,120.0,120.0,6.0,0.0
5011,61.0,120.0,120.0,7.0,0.0
5012,79.0,0.0,120.0,6.0,0.0
5013,59.0,0.0,120.0,7.0,0.0
5014,68.0,120.0,120.0,6.0,0.0
5015,61.0,120.0,120.0,7.0,0.0
5016,80.0,0.0,120.0,6.0,0.0
5017,67.0,120.0,120.0,6.0,0.0
5018,58.0,0.0,120.0,7.0,0.0
5019,61.0,0.0,120.0,7.0,0.0
5020,79.0,120.0,120.0,6.0,0.0
5021,68.0,120.0,120.0,6.0,0.0
5022,59.0,0.0,120.0,7.0,0.0
5023,80.0,0.0,120.0,6.0,0.0
5024,61.0,120.0,120.0,7.0,0.0
5025,56.0,120.0,120.0,7.0,0.0
5026,65.0,0.0,120.0,6.0,0.0
5027,61.0,120.0,120.0,7.0,0.0
5028,77.0,0.0,120.0,6.0,0.0
5029,58.0,120.0,120.0,7.0,0.0
5030,66.0,0.0,120.0,6.0,0.0
5031,78.0,0.0,120.0,6.0,0.0
5032,61.0,120.0,120.0,7.0,0.0
5033,56.0,0.0,120.0,7.0,0.0
5034,65.0,120.0,120.0,6.0,0.0
5035,61.0,120.0,120.0,7.0,0.0
5036,77.0,0.0,120.0,6.0,0.0
5037,66.0,0.0,120.0,6.0,0.0
5038,58.0,120.0,120.0,7.0,0.0
5039,78.0,120.0,120.0,6.0,0.0
5040,61.0,0.0,120.0,7.0,0.0
5041,68.0,0.0,120.0,6.0,0.0
5042,53.0,120.0,120.0,7.0,0.0
5043,61.0,120.0,120.0,7.0,0.0
5044,80.0,0.0,120.0,6.0,0.0
5045,61.0,0.0,960.0,11.0,0.0
5046,54.0,0.0,960.0,13.0,0.0
5047,70.0,0.0,960.0,10.0,0.0
5048,54.0,120.0,120.0,7.0,0.0
5049,42.0,120.0,960.0,14.0,0.0
5050,54.0,120.0,1920.0,12.0,0.0
5051,58.0,120.0,120.0,7.0,0.0
5052,61.0,120.0,120.0,6.0,0.0
5053,66.0,120.0,120.0,6.0,0.0
5054,70.0,120.0,120.0,6.0,0.0
5055,73.0,120.0,120.0,6.0,0.0
5056,78.0,120.0,120.0,6.0,0.0
5057,82.0,0.0,120.0,6.0,0.0
5058,72.0,20.0,930.0,10.0,0.0
5059,51.0,120.0,120.0,7.0,0.0
5060,51.0,0.0,930.0,13.0,0.0
5061,66.0,0.0,930.0,11.0,0.0
5062,39.0,0.0,930.0,14.0,0.0
5063,60.0,120.0,120.0,7.0,0.0
5064,63.0,120.0,120.0,6.0,0.0
5065,66.0,120.0,120.0,6.0,0.0
5066,72.0,120.0,120.0,6.0,0.0
5067,75.0,120.0,120.0,6.0,0.0
5068,78.0,100.0,120.0,6.0,0.0
5069,84.0,0.0,120.0,6.0,0.0
5070,53.0,120.0,960.0,13.0,0.0
5071,53.0,120.0,120.0,7.0,0.0
5072,56.0,0.0,960.0,12.0,0.0
5073,73.0,0.0,960.0,10.0,0.0
5074,41.0,0.0,960.0,14.0,0.0
5075,65.0,0.0,960.0,11.0,0.0
5076,61.0,120.0,120.0,7.0,0.0
5077,65.0,120.0,120.0,6.0,0.0
5078,68.0,120.0,120.0,6.0,0.0
5079,73.0,120.0,120.0,6.0,0.0
5080,77.0,120.0,120.0,6.0,0.0
5081,80.0,120.0,120.0,6.0,0.0
5082,85.0,0.0,120.0,6.0,0.0
5083,34.0,0.0,930.0,14.0,0.0
5084,67.0,20.0,930.0,10.0,0.0
5085,61.0,0.0,1920.0,11.0,0.0
5086,46.0,0.0,930.0,13.0,0.0
5087,49.0,0.0,930.0,12.0,0.0
5088,46.0,120.0,120.0,7.0,0.0
5089,55.0,120.0,120.0,7.0,0.0
5090,58.0,120.0,120.0,6.0,0.0
5091,61.0,120.0,120.0,6.0,0.0
5092,67.0,120.0,120.0,6.0,0.0
5093,70.0,120.0,120.0,6.0,0.0
5094,73.0,100.0,120.0,6.0,0.0
5095,79.0,240.0,120.0,6.0,0.0
5096,32.0,0.0,1920.0,14.0,0.0
5097,53.0,0.0,960.0,12.0,0.0
5098,44.0,96.0,390.0,7.0,0.0
5099,44.0,120.0,1920.0,13.0,0.0
5100,68.0,0.0,960.0,10.0,0.0
5101,68.0,120.0,120.0,6.0,0.0
5102,80.0,24.0,120.0,6.0,0.0
5103,77.0,120.0,120.0,6.0,0.0
5104,73.0,120.0,120.0,6.0,0.0
5105,68.0,120.0,120.0,6.0,0.0
5106,65.0,120.0,120.0,6.0,0.0
5107,61.0,60.0,120.0,6.0,0.0
5108,51.0,0.0,960.0,12.0,0.0
5109,54.0,0.0,960.0,11.0,0.0
5110,44.0,0.0,120.0,8.0,0.0
5111,60.0,0.0,960.0,10.0,0.0
5112,65.0,60.0,60.0,6.0,0.0
5113,63.0,60.0,60.0,6.0,0.0
5114,54.0,60.0,120.0,8.0,0.0
5115,65.0,60.0,60.0,6.0,0.0
5116,63.0,0.0,60.0,6.0,0.0
5117,65.0,60.0,60.0,6.0,0.0
5118,48.0,60.0,120.0,8.0,0.0
5119,63.0,0.0,60.0,6.0,0.0
5120,65.0,60.0,60.0,6.0,0.0
5121,54.0,0.0,120.0,8.0,0.0
5122,63.0,60.0,60.0,6.0,0.0
5123,44.0,60.0,120.0,8.0,0.0
5124,65.0,60.0,60.0,6.0,0.0
5125,63.0,0.0,60.0,6.0,0.0
5126,54.0,60.0,120.0,8.0,0.0
5127,65.0,60.0,60.0,6.0,0.0
5128,63.0,0.0,60.0,6.0,0.0
5129,65.0,60.0,60.0,6.0,0.0
5130,48.0,0.0,120.0,8.0,0.0
5131,63.0,60.0,60.0,6.0,0.0
5132,54.0,0.0,120.0,8.0,0.0
5133,65.0,60.0,60.0,6.0,0.0
5134,63.0,0.0,60.0,6.0,0.0
5135,61.0,0.0,390.0,10.0,0.0
5136,49.0,0.0,390.0,12.0,0.0
5137,37.0,0.0,390.0,14.0,0.0
5138,49.0,0.0,390.0,13.0,0.0
5139,61.0,120.0,120.0,6.0,0.0
5140,49.0,96.0,390.0,8.0,0.0
5141,53.0,0.0,390.0,8.0,0.0
5142,53.0,0.0,390.0,11.0,0.0
5143,65.0,120.0,120.0,6.0,0.0
5144,68.0,24.0,120.0,6.0,0.0
5145,73.0,120.0,120.0,6.0,0.0
5146,61.0,120.0,120.0,6.0,0.0
5147,73.0,120.0,120.0,6.0,0.0
5148,37.0,120.0,120.0,8.0,0.0
5149,61.0,0.0,120.0,6.0,0.0
5150,73.0,0.0,120.0,6.0,0.0
5151,49.0,120.0,120.0,8.0,0.0
5152,62.0,120.0,120.0,6.0,0.0
5153,38.0,0.0,120.0,8.0,0.0
5154,73.0,120.0,120.0,6.0,0.0
5155,50.0,0.0,120.0,8.0,0.0
5156,37.0,0.0,120.0,8.0,0.0
5157,61.0,120.0,120.0,6.0,0.0
5158,49.0,120.0,120.0,8.0,0.0
5159,73.0,0.0,120.0,6.0,0.0
5160,63.0,120.0,120.0,6.0,0.0
5161,39.0,0.0,120.0,8.0,0.0
5162,51.0,120.0,120.0,8.0,0.0
5163,73.0,0.0,120.0,6.0,0.0
5164,41.0,0.0,120.0,8.0,0.0
5165,65.0,120.0,120.0,6.0,0.0
5166,53.0,120.0,120.0,8.0,0.0
5167,73.0,0.0,120.0,6.0,0.0
5168,66.0,0.0,120.0,6.0,0.0
5169,42.0,120.0,120.0,8.0,0.0
5170,73.0,0.0,120.0,6.0,0.0
5171,54.0,120.0,120.0,8.0,0.0
5172,65.0,0.0,120.0,6.0,0.0
5173,41.0,120.0,120.0,8.0,0.0
5174,73.0,0.0,120.0,6.0,0.0
5175,53.0,120.0,120.0,8.0,0.0
5176,66.0,0.0,120.0,6.0,0.0
5177,42.0,120.0,120.0,8.0,0.0
5178,54.0,0.0,120.0,8.0,0.0
5179,73.0,120.0,120.0,6.0,0.0
5180,63.0,0.0,120.0,6.0,0.0
5181,39.0,120.0,120.0,8.0,0.0
5182,51.0,120.0,120.0,8.0,0.0
5183,73.0,0.0,120.0,6.0,0.0
5184,64.0,120.0,120.0,6.0,0.0
5185,40.0,0.0,120.0,8.0,0.0
5186,52.0,0.0,120.0,8.0,0.0
5187,73.0,120.0,120.0,6.0,0.0
5188,39.0,0.0,120.0,8.0,0.0
5189,63.0,120.0,120.0,6.0,0.0
5190,73.0,120.0,120.0,6.0,0.0
5191,51.0,0.0,120.0,8.0,0.0
5192,41.0,0.0,120.0,8.0,0.0
5193,65.0,120.0,120.0,6.0,0.0
5194,53.0,120.0,120.0,8.0,0.0
5195,73.0,0.0,120.0,6.0,0.0
5196,67.0,120.0,120.0,6.0,0.0
5197,43.0,0.0,120.0,8.0,0.0
5198,55.0,120.0,120.0,8.0,0.0
5199,73.0,0.0,120.0,6.0,0.0
5200,68.0,120.0,120.0,6.0,0.0
5201,44.0,0.0,120.0,8.0,0.0
5202,56.0,120.0,120.0,8.0,0.0
5203,73.0,0.0,120.0,6.0,0.0
5204,43.0,0.0,120.0,8.0,0.0
5205,67.0,120.0,120.0,6.0,0.0
5206,55.0,120.0,120.0,8.0,0.0
5207,73.0,0.0,120.0,6.0,0.0
5208,44.0,0.0,120.0,8.0,0.0
5209,68.0,120.0,120.0,6.0,0.0
5210,56.0,0.0,120.0,8.0,0.0
5211,73.0,120.0,120.0,6.0,0.0
5212,41.0,0.0,120.0,8.0,0.0
5213,65.0,120.0,120.0,6.0,0.0
5214,53.0,0.0,120.0,8.0,0.0
5215,73.0,120.0,120.0,6.0,0.0
5216,66.0,0.0,120.0,6.0,0.0
5217,42.0,120.0,120.0,8.0,0.0
5218,54.0,0.0,120.0,8.0,0.0
5219,73.0,120.0,120.0,6.0,0.0
5220,65.0,120.0,120.0,6.0,0.0
5221,41.0,0.0,120.0,8.0,0.0
5222,53.0,120.0,120.0,8.0,0.0
5223,73.0,0.0,120.0,6.0,0.0
5224,66.0,0.0,120.0,6.0,0.0
5225,42.0,120.0,120.0,8.0,0.0
5226,73.0,0.0,120.0,6.0,0.0
5227,54.0,120.0,120.0,8.0,0.0
5228,68.0,0.0,120.0,6.0,0.0
5229,44.0,120.0,120.0,8.0,0.0
5230,56.0,120.0,120.0,8.0,0.0
5231,73.0,0.0,120.0,6.0,0.0
5232,69.0,120.0,120.0,6.0,0.0
5233,57.0,120.0,480.0,8.0,0.0
5234,45.0,0.0,480.0,8.0,0.0
5235,73.0,120.0,120.0,6.0,0.0
5236,78.0,120.0,120.0,6.0,0.0
5237,73.0,0.0,120.0,6.0,0.0
5238,56.0,96.0,390.0,8.0,0.0
5239,44.0,0.0,390.0,8.0,0.0
5240,68.0,120.0,120.0,6.0,0.0
5241,73.0,120.0,120.0,6.0,0.0
5242,77.0,24.0,120.0,6.0,0.0
5243,73.0,120.0,120.0,6.0,0.0
5244,54.0,48.0,180.0,8.0,0.0
5245,81.0,72.0,120.0,6.0,0.0
5246,73.0,120.0,120.0,6.0,0.0
5247,81.0,120.0,120.0,6.0,0.0
5248,73.0,120.0,120.0,6.0,0.0
5249,80.0,72.0,120.0,6.0,0.0
5250,53.0,48.0,180.0,8.0,0.0
5251,73.0,120.0,120.0,6.0,0.0
5252,80.0,120.0,120.0,6.0,0.0
5253,73.0,120.0,120.0,6.0,0.0
5254,69.0,120.0,120.0,6.0,0.0
5255,57.0,120.0,480.0,8.0,0.0
5256,45.0,0.0,480.0,8.0,0.0
5257,73.0,120.0,120.0,6.0,0.0
5258,78.0,120.0,120.0,6.0,0.0
5259,73.0,0.0,120.0,6.0,0.0
5260,68.0,120.0,120.0,6.0,0.0
5261,44.0,96.0,390.0,8.0,0.0
5262,56.0,0.0,390.0,8.0,0.0
5263,73.0,120.0,120.0,6.0,0.0
5264,77.0,24.0,120.0,6.0,0.0
5265,73.0,120.0,120.0,6.0,0.0
5266,54.0,48.0,180.0,8.0,0.0
5267,81.0,72.0,120.0,6.0,0.0
5268,73.0,120.0,120.0,6.0,0.0
5269,81.0,120.0,120.0,6.0,0.0
5270,73.0,120.0,120.0,6.0,0.0
5271,53.0,48.0,180.0,8.0,0.0
5272,80.0,72.0,120.0,6.0,0.0
5273,73.0,120.0,120.0,6.0,0.0
5274,80.0,120.0,120.0,6.0,0.0
5275,73.0,120.0,120.0,6.0,0.0
5276,69.0,120.0,120.0,6.0,0.0
5277,57.0,0.0,480.0,8.0,0.0
5278,45.0,0.0,480.0,8.0,0.0
5279,73.0,120.0,120.0,6.0,0.0
5280,78.0,120.0,120.0,6.0,0.0
5281,73.0,120.0,120.0,6.0,0.0
5282,56.0,0.0,390.0,8.0,0.0
5283,68.0,120.0,120.0,6.0,0.0
5284,44.0,96.0,390.0,8.0,0.0
5285,73.0,120.0,120.0,6.0,0.0
5286,77.0,24.0,120.0,6.0,0.0
5287,73.0,120.0,120.0,6.0,0.0
5288,54.0,48.0,180.0,8.0,0.0
5289,81.0,72.0,120.0,6.0,0.0
5290,73.0,120.0,120.0,6.0,0.0
5291,81.0,120.0,120.0,6.0,0.0
5292,73.0,120.0,120.0,6.0,0.0
5293,80.0,72.0,120.0,6.0,0.0
5294,53.0,48.0,180.0,8.0,0.0
5295,73.0,120.0,120.0,6.0,0.0
5296,80.0,120.0,120.0,6.0,0.0
5297,73.0,118.0,120.0,6.0,0.0
5298,54.0,0.0,1920.0,12.0,0.0
5299,69.0,120.0,120.0,6.0,0.0
5300,69.0,118.0,960.0,10.0,0.0
5301,54.0,0.0,2880.0,8.0,0.0
5302,42.0,0.0,2880.0,8.0,0.0
5303,42.0,0.0,2880.0,13.0,0.0
5304,30.0,0.0,2880.0,14.0,0.0
5305,61.0,96.0,1920.0,11.0,0.0
5306,73.0,120.0,120.0,6.0,0.0
5307,81.0,120.0,120.0,6.0,0.0
5308,73.0,120.0,120.0,6.0,0.0
5309,81.0,120.0,120.0,6.0,0.0
5310,73.0,120.0,120.0,6.0,0.0
5311,81.0,120.0,120.0,6.0,0.0
5312,73.0,2.0,120.0,6.0,0.0
5313,70.0,120.0,120.0,6.0,0.0
5314,70.0,18.0,930.0,10.0,0.0
5315,73.0,120.0,120.0,6.0,0.0
5316,82.0,120.0,120.0,6.0,0.0
5317,73.0,120.0,120.0,6.0,0.0
5318,82.0,120.0,120.0,6.0,0.0
5319,73.0,120.0,120.0,6.0,0.0
5320,82.0,102.0,120.0,6.0,0.0
5321,73.0,2.0,120.0,6.0,0.0
5322,63.0,96.0,960.0,11.0,0.0
5323,72.0,120.0,90.0,6.0,0.0
5324,57.0,0.0,960.0,12.0,0.0
5325,72.0,0.0,960.0,10.0,0.0
5326,75.0,120.0,90.0,6.0,0.0
5327,84.0,120.0,90.0,6.0,0.0
5328,75.0,120.0,90.0,6.0,0.0
5329,84.0,120.0,90.0,6.0,0.0
5330,75.0,120.0,90.0,6.0,0.0
5331,84.0,120.0,90.0,6.0,0.0
5332,75.0,24.0,90.0,6.0,0.0
5333,55.0,96.0,960.0,8.0,0.0
5334,73.0,20.0,930.0,10.0,0.0
5335,43.0,0.0,960.0,8.0,0.0
5336,43.0,0.0,930.0,13.0,0.0
5337,73.0,120.0,90.0,6.0,0.0
5338,64.0,0.0,930.0,11.0,0.0
5339,31.0,0.0,930.0,14.0,0.0
5340,58.0,0.0,930.0,12.0,0.0
5341,76.0,120.0,90.0,6.0,0.0
5342,85.0,120.0,90.0,6.0,0.0
5343,76.0,120.0,90.0,6.0,0.0
5344,85.0,120.0,90.0,6.0,0.0
5345,76.0,120.0,90.0,6.0,0.0
5346,85.0,120.0,90.0,6.0,0.0
5347,76.0,4.0,90.0,6.0,0.0
5348,56.0,0.0,390.0,11.0,0.0
5349,56.0,0.0,420.0,8.0,0.0
5350,44.0,36.0,420.0,8.0,0.0
5351,44.0,48.0,390.0,12.0,0.0
5352,56.0,24.0,4140.0,2.0,0.0
5353,77.0,132.0,90.0,6.0,0.0
5354,73.0,0.0,4140.0,1.0,0.0
5355,68.0,24.0,4620.0,1.0,0.0
5356,77.0,0.0,4140.0,0.0,0.0
5357,32.0,0.0,390.0,14.0,0.0
5358,44.0,0.0,390.0,13.0,0.0
5359,56.0,0.0,390.0,10.0,0.0
5360,85.0,120.0,120.0,6.0,0.0
5361,80.0,36.0,120.0,6.0,0.0
5362,77.0,120.0,120.0,6.0,0.0
5363,73.0,120.0,120.0,6.0,0.0
5364,80.0,120.0,120.0,6.0,0.0
5365,77.0,120.0,120.0,6.0,0.0
5366,73.0,120.0,120.0,6.0,0.0
5367,68.0,120.0,120.0,6.0,0.0
5368,77.0,120.0,120.0,6.0,0.0
5369,73.0,120.0,120.0,6.0,0.0
5370,68.0,120.0,120.0,6.0,0.0
5371,65.0,120.0,120.0,6.0,0.0
5372,73.0,120.0,120.0,6.0,0.0
5373,68.0,120.0,120.0,6.0,0.0
5374,65.0,120.0,120.0,6.0,0.0
5375,61.0,120.0,120.0,6.0,0.0
5376,68.0,120.0,120.0,6.0,0.0
5377,65.0,120.0,120.0,6.0,0.0
5378,61.0,120.0,120.0,6.0,0.0
5379,56.0,120.0,120.0,6.0,0.0
5380,44.0,0.0,120.0,8.0,0.0
5381,65.0,0.0,120.0,6.0,0.0
5382,53.0,120.0,120.0,8.0,0.0
5383,61.0,120.0,120.0,6.0,0.0
5384,49.0,0.0,120.0,8.0,0.0
5385,56.0,120.0,120.0,6.0,0.0
5386,44.0,0.0,120.0,8.0,0.0
5387,41.0,0.0,120.0,8.0,0.0
5388,53.0,120.0,120.0,6.0,0.0
5389,61.0,0.0,120.0,6.0,0.0
5390,49.0,120.0,120.0,8.0,0.0
5391,56.0,0.0,120.0,6.0,0.0
5392,44.0,120.0,120.0,8.0,0.0
5393,41.0,0.0,120.0,8.0,0.0
5394,53.0,120.0,120.0,6.0,0.0
5395,37.0,0.0,120.0,8.0,0.0
5396,49.0,120.0,120.0,6.0,0.0
5397,44.0,0.0,120.0,8.0,0.0
5398,56.0,120.0,120.0,6.0,0.0
5399,41.0,120.0,120.0,8.0,0.0
5400,53.0,0.0,120.0,6.0,0.0
5401,37.0,204.0,120.0,8.0,0.0
5402,49.0,0.0,120.0,6.0,0.0
5403,32.0,0.0,180.0,8.0,0.0
5404,44.0,120.0,180.0,7.0,0.0
5405,46.0,120.0,90.0,7.0,0.0
5406,34.0,0.0,90.0,8.0,0.0
5407,48.0,120.0,90.0,7.0,0.0
5408,36.0,0.0,90.0,8.0,0.0
5409,80.0,0.0,300.0,0.0,0.0
5410,37.0,0.0,90.0,8.0,0.0
5411,49.0,120.0,90.0,7.0,0.0
5412,80.0,0.0,300.0,1.0,0.0
5413,51.0,96.0,90.0,7.0,0.0
5414,39.0,0.0,90.0,8.0,0.0
5415,53.0,0.0,90.0,7.0,0.0
5416,41.0,120.0,90.0,8.0,0.0
5417,54.0,120.0,90.0,7.0,0.0
5418,42.0,0.0,90.0,8.0,0.0
5419,44.0,120.0,90.0,8.0,0.0
5420,77.0,0.0,300.0,0.0,0.0
5421,56.0,0.0,90.0,7.0,0.0
5422,65.0,0.0,300.0,1.0,0.0
5423,77.0,24.0,300.0,1.0,0.0
5424,37.0,0.0,90.0,8.0,0.0
5425,49.0,96.0,90.0,7.0,0.0
5426,39.0,0.0,90.0,8.0,0.0
5427,51.0,120.0,90.0,7.0,0.0
5428,41.0,120.0,90.0,8.0,0.0
5429,53.0,0.0,90.0,7.0,0.0
5430,54.0,0.0,90.0,7.0,0.0
5431,73.0,24.0,300.0,0.0,0.0
5432,73.0,0.0,300.0,1.0,0.0
5433,42.0,120.0,90.0,8.0,0.0
5434,61.0,0.0,300.0,1.0,0.0
5435,56.0,0.0,90.0,7.0,0.0
5436,44.0,96.0,90.0,8.0,0.0
5437,46.0,0.0,90.0,8.0,0.0
5438,58.0,120.0,90.0,7.0,0.0
5439,48.0,120.0,90.0,8.0,0.0
5440,60.0,0.0,90.0,7.0,0.0
5441,61.0,120.0,90.0,6.0,0.0
5442,56.0,0.0,870.0,2.0,0.0
5443,68.0,24.0,300.0,0.0,0.0
5444,49.0,0.0,90.0,7.0,0.0
5445,68.0,72.0,870.0,1.0,0.0
5446,44.0,96.0,90.0,7.0,0.0
5447,56.0,0.0,90.0,6.0,0.0
5448,58.0,0.0,90.0,6.0,0.0
5449,46.0,120.0,90.0,7.0,0.0
5450,60.0,120.0,90.0,6.0,0.0
5451,48.0,0.0,90.0,7.0,0.0
5452,61.0,0.0,90.0,6.0,0.0
5453,49.0,120.0,90.0,7.0,0.0
5454,51.0,0.0,90.0,7.0,0.0
5455,63.0,120.0,90.0,6.0,0.0
5456,53.0,48.0,90.0,7.0,0.0
5457,65.0,0.0,90.0,6.0,0.0
5458,66.0,120.0,90.0,6.0,0.0
5459,54.0,0.0,90.0,7.0,0.0
5460,53.0,24.0,300.0,2.0,0.0
5461,68.0,0.0,90.0,6.0,0.0
5462,56.0,120.0,90.0,7.0,0.0
5463,65.0,0.0,300.0,1.0,0.0
5464,49.0,0.0,90.0,7.0,0.0
5465,61.0,96.0,90.0,6.0,0.0
5466,63.0,0.0,90.0,6.0,0.0
5467,51.0,120.0,90.0,7.0,0.0
5468,65.0,0.0,90.0,6.0,0.0
5469,53.0,120.0,90.0,7.0,0.0
5470,66.0,120.0,90.0,6.0,0.0
5471,61.0,24.0,300.0,1.0,0.0
5472,54.0,0.0,90.0,7.0,0.0
5473,49.0,0.0,300.0,2.0,0.0
5474,56.0,0.0,90.0,7.0,0.0
5475,68.0,96.0,90.0,6.0,0.0
5476,70.0,0.0,90.0,6.0,0.0
5477,58.0,120.0,90.0,7.0,0.0
5478,60.0,0.0,90.0,7.0,0.0
5479,72.0,120.0,90.0,6.0,0.0
5480,56.0,72.0,390.0,1.0,0.0
5481,73.0,120.0,90.0,6.0,0.0
5482,61.0,0.0,90.0,7.0,0.0
5483,56.0,72.0,870.0,2.0,0.0
5484,44.0,0.0,870.0,2.0,0.0
5485,56.0,0.0,90.0,7.0,0.0
5486,68.0,120.0,90.0,6.0,0.0
5487,70.0,48.0,90.0,6.0,0.0
5488,58.0,0.0,90.0,7.0,0.0
5489,60.0,0.0,90.0,7.0,0.0
5490,72.0,120.0,90.0,6.0,0.0
5491,61.0,0.0,90.0,7.0,0.0
5492,73.0,120.0,90.0,6.0,0.0
5493,63.0,0.0,90.0,7.0,0.0
5494,75.0,120.0,90.0,6.0,0.0
5495,77.0,48.0,90.0,6.0,0.0
5496,65.0,0.0,90.0,7.0,0.0
5497,78.0,120.0,90.0,6.0,0.0
5498,66.0,0.0,90.0,7.0,0.0
5499,68.0,0.0,90.0,7.0,0.0
5500,80.0,120.0,90.0,6.0,0.0
5501,53.0,0.0,300.0,2.0,0.0
5502,41.0,24.0,300.0,2.0,0.0
5503,77.0,96.0,90.0,6.0,0.0
5504,65.0,0.0,90.0,7.0,0.0
5505,61.0,120.0,90.0,7.0,0.0
5506,73.0,0.0,90.0,6.0,0.0
5507,77.0,0.0,90.0,6.0,0.0
5508,65.0,120.0,90.0,7.0,0.0
5509,37.0,24.0,300.0,2.0,0.0
5510,49.0,0.0,300.0,2.0,0.0
5511,68.0,120.0,90.0,7.0,0.0
5512,80.0,0.0,90.0,6.0,0.0
5513,77.0,0.0,90.0,6.0,0.0
5514,65.0,96.0,90.0,7.0,0.0
5515,61.0,0.0,90.0,7.0,0.0
5516,73.0,120.0,90.0,6.0,0.0
5517,77.0,0.0,90.0,6.0,0.0
5518,65.0,120.0,90.0,7.0,0.0
5519,80.0,120.0,90.0,6.0,0.0
5520,77.0,0.0,1830.0,0.0,0.0
5521,68.0,72.0,1830.0,1.0,0.0
5522,73.0,0.0,1830.0,1.0,0.0
5523,68.0,0.0,390.0,7.0,0.0
5524,32.0,72.0,390.0,2.0,0.0
5525,44.0,0.0,390.0,2.0,0.0
5526,73.0,120.0,90.0,6.0,0.0
5527,79.0,48.0,90.0,6.0,0.0
5528,73.0,120.0,90.0,6.0,0.0
5529,80.0,120.0,90.0,6.0,0.0
5530,73.0,120.0,90.0,6.0,0.0
5531,81.0,120.0,90.0,6.0,0.0
5532,73.0,120.0,90.0,6.0,0.0
5533,82.0,120.0,90.0,6.0,0.0
5534,73.0,120.0,90.0,6.0,0.0
5535,83.0,120.0,90.0,6.0,0.0
5536,73.0,120.0,90.0,6.0,0.0
5537,84.0,120.0,90.0,6.0,0.0
5538,73.0,120.0,90.0,6.0,0.0
5539,85.0,48.0,90.0,6.0,0.0
5540,73.0,84.0,90.0,6.0,0.0
5541,44.0,0.0,1830.0,2.0,0.0
5542,56.0,24.0,90.0,7.0,0.0
5543,77.0,36.0,60.0,6.0,0.0
5544,75.0,0.0,1830.0,0.0,0.0
5545,56.0,0.0,1830.0,2.0,0.0
5546,72.0,16.0,1830.0,1.0,0.0
5547,66.0,0.0,1830.0,1.0,0.0
5548,75.0,60.0,60.0,6.0,0.0
5549,66.0,24.0,90.0,7.0,0.0
5550,77.0,36.0,60.0,6.0,0.0
5551,75.0,60.0,60.0,6.0,0.0
5552,77.0,36.0,60.0,6.0,0.0
5553,60.0,24.0,90.0,7.0,0.0
5554,75.0,60.0,60.0,6.0,0.0
5555,77.0,36.0,60.0,6.0,0.0
5556,66.0,24.0,90.0,7.0,0.0
5557,75.0,60.0,60.0,6.0,0.0
5558,56.0,24.0,90.0,7.0,0.0
5559,77.0,36.0,60.0,6.0,0.0
5560,75.0,60.0,60.0,6.0,0.0
5561,77.0,36.0,60.0,6.0,0.0
5562,66.0,24.0,90.0,7.0,0.0
5563,75.0,60.0,60.0,6.0,0.0
5564,77.0,36.0,60.0,6.0,0.0
5565,60.0,24.0,90.0,7.0,0.0
5566,75.0,60.0,60.0,6.0,0.0
5567,77.0,36.0,60.0,6.0,0.0
5568,66.0,24.0,90.0,7.0,0.0
5569,75.0,60.0,60.0,6.0,0.0
5570,77.0,36.0,60.0,6.0,0.0
5571,56.0,24.0,90.0,7.0,0.0
5572,75.0,60.0,60.0,6.0,0.0
5573,77.0,36.0,60.0,6.0,0.0
5574,66.0,24.0,90.0,7.0,0.0
5575,75.0,60.0,60.0,6.0,0.0
5576,77.0,36.0,60.0,6.0,0.0
5577,60.0,24.0,90.0,7.0,0.0
5578,75.0,60.0,60.0,6.0,0.0
5579,77.0,36.0,60.0,6.0,0.0
5580,66.0,24.0,90.0,7.0,0.0
5581,75.0,60.0,60.0,6.0,0.0
5582,77.0,36.0,60.0,6.0,0.0
5583,56.0,24.0,90.0,7.0,0.0
5584,75.0,60.0,60.0,6.0,0.0
5585,77.0,36.0,60.0,6.0,0.0
5586,66.0,24.0,90.0,7.0,0.0
5587,75.0,80.0,60.0,6.0,0.0
5588,32.0,16.0,90.0,14.0,0.0
5589,60.0,24.0,90.0,7.0,0.0
5590,44.0,0.0,90.0,13.0,0.0
5591,73.0,24.0,120.0,6.0,0.0
5592,34.0,0.0,90.0,14.0,0.0
5593,46.0,56.0,90.0,13.0,0.0
5594,75.0,0.0,120.0,6.0,0.0
5595,66.0,24.0,90.0,7.0,0.0
5596,36.0,96.0,90.0,14.0,0.0
5597,48.0,0.0,90.0,13.0,0.0
5598,73.0,0.0,1830.0,0.0,0.0
5599,49.0,0.0,780.0,13.0,0.0
5600,49.0,36.0,5670.0,2.0,0.0
5601,37.0,0.0,5670.0,2.0,0.0
5602,61.0,24.0,900.0,3.0,0.0
5603,53.0,0.0,900.0,3.0,0.0
5604,73.0,72.0,390.0,6.0,0.0
5605,61.0,0.0,390.0,7.0,0.0
5606,56.0,0.0,90.0,11.0,0.0
5607,65.0,0.0,390.0,7.0,0.0
5608,65.0,0.0,1830.0,1.0,0.0
5609,73.0,16.0,1830.0,1.0,0.0
5610,37.0,32.0,780.0,14.0,0.0
5611,53.0,120.0,90.0,12.0,0.0
5612,56.0,120.0,90.0,11.0,0.0
5613,53.0,0.0,90.0,12.0,0.0
5614,56.0,0.0,90.0,11.0,0.0
5615,53.0,48.0,90.0,12.0,0.0
5616,53.0,120.0,90.0,12.0,0.0
5617,56.0,0.0,90.0,11.0,0.0
5618,56.0,0.0,90.0,11.0,0.0
5619,53.0,120.0,90.0,12.0,0.0
5620,53.0,0.0,90.0,12.0,0.0
5621,56.0,72.0,90.0,11.0,0.0
5622,56.0,16.0,90.0,10.0,0.0
5623,53.0,64.0,90.0,12.0,0.0
5624,56.0,0.0,90.0,11.0,0.0
5625,58.0,32.0,90.0,10.0,0.0
5626,56.0,0.0,90.0,11.0,0.0
5627,53.0,24.0,90.0,12.0,0.0
5628,60.0,96.0,90.0,10.0,0.0
5629,56.0,120.0,90.0,11.0,0.0
5630,53.0,0.0,90.0,12.0,0.0
5631,61.0,48.0,420.0,10.0,0.0
5632,53.0,0.0,90.0,12.0,0.0
5633,56.0,120.0,90.0,11.0,0.0
5634,56.0,0.0,90.0,11.0,0.0
5635,53.0,72.0,90.0,12.0,0.0
5636,56.0,120.0,90.0,11.0,0.0
5637,53.0,0.0,90.0,12.0,0.0
5638,56.0,0.0,90.0,11.0,0.0
5639,53.0,120.0,90.0,12.0,0.0
5640,56.0,104.0,90.0,11.0,0.0
5641,53.0,0.0,90.0,12.0,0.0
5642,53.0,0.0,90.0,12.0,0.0
5643,56.0,48.0,90.0,11.0,0.0
5644,44.0,16.0,90.0,14.0,0.0
5645,56.0,0.0,90.0,13.0,0.0
5646,58.0,0.0,90.0,13.0,0.0
5647,46.0,56.0,90.0,14.0,0.0
5648,53.0,24.0,90.0,12.0,0.0
5649,56.0,0.0,90.0,11.0,0.0
5650,60.0,0.0,90.0,13.0,0.0
5651,48.0,96.0,90.0,14.0,0.0
5652,77.0,0.0,1830.0,1.0,0.0
5653,61.0,32.0,780.0,13.0,0.0
5654,53.0,0.0,90.0,12.0,0.0
5655,61.0,24.0,900.0,3.0,0.0
5656,73.0,0.0,1830.0,1.0,0.0
5657,53.0,0.0,900.0,3.0,0.0
5658,56.0,120.0,90.0,11.0,0.0
5659,49.0,0.0,780.0,14.0,0.0
5660,80.0,16.0,1830.0,0.0,0.0
5661,53.0,0.0,90.0,12.0,0.0
5662,56.0,120.0,90.0,11.0,0.0
5663,53.0,120.0,90.0,12.0,0.0
5664,56.0,0.0,90.0,11.0,0.0
5665,56.0,120.0,90.0,11.0,0.0
5666,53.0,0.0,90.0,12.0,0.0
5667,56.0,0.0,90.0,11.0,0.0
5668,53.0,120.0,90.0,12.0,0.0
5669,53.0,72.0,90.0,12.0,0.0
5670,56.0,0.0,90.0,11.0,0.0
5671,56.0,64.0,90.0,11.0,0.0
5672,53.0,0.0,90.0,12.0,0.0
5673,68.0,16.0,90.0,10.0,0.0
5674,70.0,32.0,90.0,10.0,0.0
5675,53.0,0.0,90.0,12.0,0.0
5676,56.0,24.0,90.0,11.0,0.0
5677,72.0,96.0,90.0,10.0,0.0
5678,53.0,120.0,90.0,12.0,0.0
5679,73.0,48.0,420.0,10.0,0.0
5680,56.0,0.0,90.0,11.0,0.0
5681,53.0,0.0,90.0,12.0,0.0
5682,56.0,120.0,90.0,11.0,0.0
5683,53.0,0.0,90.0,12.0,0.0
5684,56.0,72.0,90.0,11.0,0.0
5685,53.0,120.0,90.0,12.0,0.0
5686,56.0,0.0,90.0,11.0,0.0
5687,56.0,120.0,90.0,11.0,0.0
5688,53.0,0.0,90.0,12.0,0.0
5689,53.0,0.0,90.0,12.0,0.0
5690,56.0,104.0,90.0,11.0,0.0
5691,80.0,16.0,90.0,10.0,0.0
5692,56.0,0.0,90.0,11.0,0.0
5693,53.0,48.0,90.0,12.0,0.0
5694,82.0,56.0,90.0,10.0,0.0
5695,53.0,24.0,90.0,12.0,0.0
5696,56.0,0.0,90.0,11.0,0.0
5697,84.0,96.0,90.0,10.0,0.0
5698,56.0,120.0,90.0,11.0,0.0
5699,80.0,0.0,270.0,1.0,0.0
5700,77.0,0.0,270.0,1.0,0.0
5701,85.0,48.0,300.0,10.0,0.0
5702,53.0,0.0,90.0,12.0,0.0
5703,85.0,24.0,270.0,0.0,0.0
5704,53.0,48.0,90.0,12.0,0.0
5705,56.0,0.0,90.0,11.0,0.0
5706,56.0,0.0,90.0,11.0,0.0
5707,53.0,120.0,90.0,12.0,0.0
5708,53.0,0.0,90.0,12.0,0.0
5709,56.0,120.0,90.0,11.0,0.0
5710,56.0,120.0,90.0,11.0,0.0
5711,53.0,0.0,90.0,12.0,0.0
5712,80.0,24.0,270.0,1.0,0.0
5713,80.0,0.0,270.0,0.0,0.0
5714,68.0,48.0,300.0,10.0,0.0
5715,68.0,0.0,270.0,1.0,0.0
5716,53.0,0.0,90.0,12.0,0.0
5717,56.0,48.0,90.0,11.0,0.0
5718,53.0,0.0,90.0,12.0,0.0
5719,56.0,120.0,90.0,11.0,0.0
5720,56.0,0.0,90.0,11.0,0.0
5721,53.0,120.0,90.0,12.0,0.0
5722,65.0,48.0,300.0,10.0,0.0
5723,77.0,24.0,270.0,0.0,0.0
5724,56.0,0.0,90.0,11.0,0.0
5725,53.0,120.0,90.0,12.0,0.0
5726,77.0,0.0,270.0,1.0,0.0
5727,65.0,0.0,270.0,1.0,0.0
5728,53.0,0.0,90.0,12.0,0.0
5729,56.0,48.0,90.0,11.0,0.0
5730,56.0,0.0,90.0,11.0,0.0
5731,53.0,120.0,90.0,12.0,0.0
5732,56.0,120.0,90.0,11.0,0.0
5733,53.0,0.0,90.0,12.0,0.0
5734,61.0,24.0,270.0,1.0,0.0
5735,53.0,120.0,90.0,12.0,0.0
5736,73.0,0.0,270.0,0.0,0.0
5737,56.0,0.0,90.0,11.0,0.0
5738,73.0,0.0,270.0,1.0,0.0
5739,61.0,12.0,300.0,10.0,0.0
5740,56.0,48.0,90.0,11.0,0.0
5741,53.0,0.0,90.0,12.0,0.0
5742,56.0,24.0,90.0,11.0,0.0
5743,44.0,36.0,60.0,14.0,0.0
5744,56.0,0.0,60.0,13.0,0.0
5745,53.0,0.0,90.0,12.0,0.0
5746,58.0,0.0,60.0,13.0,0.0
5747,46.0,24.0,60.0,14.0,0.0
5748,60.0,36.0,60.0,13.0,0.0
5749,53.0,24.0,90.0,12.0,0.0
5750,56.0,0.0,90.0,11.0,0.0
5751,48.0,0.0,60.0,14.0,0.0
5752,49.0,0.0,60.0,14.0,0.0
5753,61.0,96.0,60.0,13.0,0.0
5754,60.0,0.0,780.0,1.0,0.0
5755,51.0,24.0,300.0,14.0,0.0
5756,60.0,0.0,780.0,10.0,0.0
5757,63.0,0.0,300.0,13.0,0.0
5758,72.0,24.0,780.0,1.0,0.0
5759,72.0,0.0,780.0,0.0,0.0
5760,51.0,0.0,1830.0,2.0,0.0
5761,39.0,36.0,1830.0,2.0,0.0
5762,51.0,0.0,90.0,12.0,0.0
5763,54.0,120.0,90.0,11.0,0.0
5764,51.0,0.0,90.0,12.0,0.0
5765,54.0,96.0,90.0,11.0,0.0
5766,51.0,0.0,90.0,12.0,0.0
5767,54.0,120.0,90.0,11.0,0.0
5768,54.0,120.0,90.0,11.0,0.0
5769,51.0,0.0,90.0,12.0,0.0
5770,54.0,0.0,90.0,11.0,0.0
5771,60.0,0.0,300.0,13.0,0.0
5772,48.0,24.0,300.0,14.0,0.0
5773,51.0,120.0,90.0,12.0,0.0
5774,51.0,0.0,90.0,12.0,0.0
5775,54.0,72.0,90.0,11.0,0.0
5776,51.0,120.0,90.0,12.0,0.0
5777,54.0,0.0,90.0,11.0,0.0
5778,54.0,120.0,90.0,11.0,0.0
5779,51.0,0.0,90.0,12.0,0.0
5780,54.0,0.0,90.0,11.0,0.0
5781,54.0,24.0,300.0,13.0,0.0
5782,42.0,0.0,300.0,14.0,0.0
5783,51.0,120.0,90.0,12.0,0.0
5784,51.0,0.0,90.0,12.0,0.0
5785,54.0,96.0,90.0,11.0,0.0
5786,51.0,0.0,90.0,12.0,0.0
5787,54.0,120.0,90.0,11.0,0.0
5788,54.0,120.0,90.0,11.0,0.0
5789,51.0,0.0,90.0,12.0,0.0
5790,39.0,0.0,300.0,14.0,0.0
5791,54.0,0.0,90.0,11.0,0.0
5792,51.0,24.0,300.0,13.0,0.0
5793,51.0,120.0,90.0,12.0,0.0
5794,51.0,84.0,90.0,12.0,0.0
5795,54.0,0.0,90.0,11.0,0.0
5796,54.0,24.0,90.0,11.0,0.0
5797,75.0,12.0,60.0,10.0,0.0
5798,51.0,0.0,90.0,12.0,0.0
5799,77.0,24.0,60.0,10.0,0.0
5800,51.0,0.0,90.0,12.0,0.0
5801,54.0,24.0,90.0,11.0,0.0
5802,78.0,36.0,60.0,10.0,0.0
5803,80.0,96.0,60.0,10.0,0.0
5804,37.0,48.0,780.0,14.0,0.0
5805,49.0,0.0,780.0,13.0,0.0
5806,61.0,0.0,900.0,3.0,0.0
5807,53.0,120.0,90.0,12.0,0.0
5808,58.0,0.0,90.0,11.0,0.0
5809,49.0,0.0,1830.0,2.0,0.0
5810,37.0,16.0,1830.0,2.0,0.0
5811,82.0,48.0,300.0,10.0,0.0
5812,82.0,0.0,270.0,0.0,0.0
5813,70.0,24.0,270.0,1.0,0.0
5814,53.0,24.0,900.0,3.0,0.0
5815,58.0,0.0,90.0,11.0,0.0
5816,53.0,48.0,90.0,12.0,0.0
5817,58.0,0.0,90.0,11.0,0.0
5818,53.0,120.0,90.0,12.0,0.0
5819,58.0,120.0,90.0,11.0,0.0
5820,53.0,0.0,90.0,12.0,0.0
5821,58.0,0.0,90.0,11.0,0.0
5822,77.0,24.0,270.0,1.0,0.0
5823,65.0,0.0,270.0,1.0,0.0
5824,65.0,0.0,300.0,10.0,0.0
5825,77.0,0.0,270.0,0.0,0.0
5826,53.0,120.0,90.0,12.0,0.0
5827,53.0,48.0,90.0,12.0,0.0
5828,58.0,0.0,90.0,11.0,0.0
5829,58.0,0.0,90.0,11.0,0.0
5830,53.0,96.0,90.0,12.0,0.0
5831,58.0,120.0,90.0,11.0,0.0
5832,53.0,0.0,90.0,12.0,0.0
5833,73.0,0.0,270.0,1.0,0.0
5834,61.0,0.0,270.0,1.0,0.0
5835,85.0,24.0,270.0,0.0,0.0
5836,61.0,0.0,300.0,3.0,0.0
5837,58.0,120.0,90.0,11.0,0.0
5838,53.0,0.0,90.0,12.0,0.0
5839,53.0,0.0,300.0,3.0,0.0
5840,61.0,48.0,300.0,10.0,0.0
5841,53.0,0.0,90.0,12.0,0.0
5842,58.0,48.0,90.0,11.0,0.0
5843,53.0,0.0,90.0,12.0,0.0
5844,58.0,120.0,90.0,11.0,0.0
5845,53.0,120.0,90.0,12.0,0.0
5846,58.0,0.0,90.0,11.0,0.0
5847,53.0,0.0,90.0,12.0,0.0
5848,58.0,0.0,300.0,10.0,0.0
5849,58.0,24.0,270.0,1.0,0.0
5850,70.0,0.0,270.0,1.0,0.0
5851,58.0,120.0,90.0,11.0,0.0
5852,53.0,32.0,300.0,3.0,0.0
5853,61.0,0.0,300.0,3.0,0.0
5854,82.0,0.0,270.0,0.0,0.0
5855,58.0,48.0,90.0,11.0,0.0
5856,53.0,0.0,90.0,12.0,0.0
5857,41.0,0.0,90.0,14.0,0.0
5858,53.0,16.0,90.0,13.0,0.0
5859,53.0,0.0,90.0,12.0,0.0
5860,58.0,48.0,90.0,11.0,0.0
5861,51.0,0.0,90.0,13.0,0.0
5862,39.0,56.0,90.0,14.0,0.0
5863,53.0,24.0,90.0,12.0,0.0
5864,58.0,0.0,90.0,11.0,0.0
5865,37.0,0.0,90.0,14.0,0.0
5866,49.0,720.0,90.0,13.0,0.0
5867,56.0,192.0,780.0,3.0,0.0
5868,36.0,0.0,720.0,14.0,0.0
5869,56.0,48.0,720.0,10.0,0.0
5870,56.0,0.0,720.0,11.0,0.0
5871,68.0,0.0,720.0,1.0,0.0
5872,48.0,0.0,720.0,13.0,0.0
5873,48.0,0.0,720.0,2.0,0.0
5874,80.0,0.0,720.0,0.0,0.0
5875,51.0,0.0,720.0,12.0,0.0
5876,69.0,0.0,240.0,1.0,0.0
5877,49.0,240.0,240.0,2.0,0.0
5878,37.0,0.0,240.0,14.0,0.0
5879,57.0,0.0,240.0,10.0,0.0
5880,57.0,0.0,240.0,11.0,0.0
5881,81.0,0.0,240.0,0.0,0.0
5882,49.0,0.0,240.0,13.0,0.0
5883,52.0,0.0,240.0,12.0,0.0
5884,51.0,0.0,240.0,12.0,0.0
5885,48.0,0.0,240.0,2.0,0.0
5886,68.0,0.0,240.0,1.0,0.0
5887,56.0,0.0,240.0,10.0,0.0
5888,36.0,240.0,240.0,14.0,0.0
5889,80.0,0.0,240.0,0.0,0.0
5890,56.0,0.0,240.0,11.0,0.0
5891,48.0,0.0,240.0,13.0,0.0
5892,49.0,0.0,240.0,2.0,0.0
5893,52.0,0.0,240.0,12.0,0.0
5894,49.0,240.0,240.0,13.0,0.0
5895,55.0,0.0,240.0,11.0,0.0
5896,67.0,0.0,240.0,1.0,0.0
5897,55.0,0.0,240.0,10.0,0.0
5898,79.0,0.0,240.0,0.0,0.0
5899,37.0,0.0,240.0,14.0,0.0
5900,56.0,216.0,240.0,11.0,0.0
5901,36.0,0.0,240.0,14.0,0.0
5902,68.0,0.0,240.0,1.0,0.0
5903,51.0,0.0,240.0,12.0,0.0
5904,48.0,0.0,240.0,2.0,0.0
5905,48.0,0.0,240.0,13.0,0.0
5906,80.0,0.0,240.0,0.0,0.0
5907,56.0,0.0,240.0,10.0,0.0
5908,49.0,0.0,210.0,2.0,0.0
5909,52.0,732.0,240.0,12.0,0.0
5910,67.0,0.0,210.0,1.0,0.0
5911,49.0,0.0,240.0,13.0,0.0
5912,37.0,0.0,240.0,14.0,0.0
5913,55.0,0.0,240.0,10.0,0.0
5914,79.0,12.0,210.0,0.0,0.0
5915,55.0,0.0,240.0,11.0,0.0
5916,48.0,0.0,720.0,2.0,0.0
5917,56.0,0.0,720.0,11.0,0.0
5918,56.0,192.0,780.0,3.0,0.0
5919,51.0,0.0,720.0,12.0,0.0
5920,80.0,0.0,720.0,0.0,0.0
5921,48.0,0.0,720.0,13.0,0.0
5922,56.0,0.0,720.0,10.0,0.0
5923,36.0,0.0,720.0,14.0,0.0
5924,68.0,48.0,720.0,1.0,0.0
5925,57.0,0.0,240.0,10.0,0.0
5926,49.0,240.0,240.0,2.0,0.0
5927,57.0,0.0,240.0,11.0,0.0
5928,81.0,0.0,240.0,0.0,0.0
5929,49.0,0.0,240.0,13.0,0.0
5930,52.0,0.0,240.0,12.0,0.0
5931,69.0,0.0,240.0,1.0,0.0
5932,37.0,0.0,240.0,14.0,0.0
5933,36.0,0.0,240.0,14.0,0.0
5934,56.0,0.0,240.0,11.0,0.0
5935,56.0,0.0,240.0,10.0,0.0
5936,68.0,0.0,240.0,1.0,0.0
5937,80.0,0.0,240.0,0.0,0.0
5938,48.0,0.0,240.0,13.0,0.0
5939,48.0,0.0,240.0,2.0,0.0
5940,51.0,240.0,240.0,12.0,0.0
5941,55.0,0.0,240.0,11.0,0.0
5942,79.0,0.0,240.0,0.0,0.0
5943,37.0,0.0,240.0,14.0,0.0
5944,52.0,0.0,240.0,12.0,0.0
5945,55.0,0.0,240.0,10.0,0.0
5946,49.0,240.0,240.0,2.0,0.0
5947,67.0,0.0,240.0,1.0,0.0
5948,49.0,0.0,240.0,13.0,0.0
5949,56.0,216.0,240.0,10.0,0.0
5950,36.0,0.0,240.0,14.0,0.0
5951,51.0,0.0,240.0,12.0,0.0
5952,48.0,0.0,240.0,13.0,0.0
5953,56.0,0.0,240.0,11.0,0.0
5954,80.0,0.0,240.0,0.0,0.0
5955,68.0,0.0,240.0,1.0,0.0
5956,48.0,0.0,240.0,2.0,0.0
5957,49.0,0.0,210.0,2.0,0.0
5958,49.0,0.0,240.0,13.0,0.0
5959,67.0,0.0,210.0,1.0,0.0
5960,52.0,156.0,240.0,12.0,0.0
5961,55.0,0.0,240.0,11.0,0.0
5962,37.0,0.0,240.0,14.0,0.0
5963,55.0,0.0,240.0,10.0,0.0
5964,79.0,12.0,210.0,0.0,0.0
5965,48.0,0.0,390.0,13.0,0.0
5966,56.0,240.0,150.0,10.0,0.0
5967,36.0,336.0,390.0,14.0,0.0
5968,51.0,0.0,390.0,12.0,0.0
5969,48.0,0.0,390.0,2.0,0.0
5970,56.0,0.0,150.0,11.0,0.0
5971,68.0,0.0,390.0,1.0,0.0
5972,80.0,0.0,390.0,0.0,0.0
5973,63.0,192.0,480.0,10.0,0.0
5974,54.0,0.0,480.0,11.0,0.0
5975,61.0,0.0,180.0,10.0,0.0
5976,53.0,192.0,180.0,11.0,0.0
5977,60.0,576.0,150.0,10.0,0.0
5978,51.0,0.0,150.0,11.0,0.0
5979,58.0,192.0,480.0,11.0,0.0
5980,66.0,0.0,480.0,10.0,0.0
5981,56.0,192.0,180.0,11.0,0.0
5982,65.0,0.0,180.0,10.0,0.0
5983,54.0,576.0,150.0,11.0,0.0
5984,63.0,0.0,150.0,10.0,0.0
5985,70.0,0.0,480.0,10.0,0.0
5986,75.0,192.0,480.0,1.0,0.0
5987,66.0,0.0,480.0,11.0,0.0
5988,70.0,0.0,480.0,1.0,0.0
5989,74.0,192.0,180.0,1.0,0.0
5990,68.0,0.0,180.0,10.0,0.0
5991,65.0,0.0,180.0,11.0,0.0
5992,77.0,0.0,180.0,1.0,0.0
5993,63.0,48.0,150.0,11.0,0.0
5994,75.0,528.0,180.0,1.0,0.0
5995,78.0,0.0,180.0,1.0,0.0
5996,66.0,0.0,150.0,10.0,0.0
5997,78.0,0.0,480.0,10.0,0.0
5998,75.0,0.0,480.0,11.0,0.0
5999,54.0,0.0,480.0,2.0,0.0
6000,63.0,192.0,480.0,2.0,0.0
6001,80.0,192.0,180.0,10.0,0.0
6002,77.0,0.0,180.0,11.0,0.0
6003,61.0,0.0,180.0,2.0,0.0
6004,53.0,0.0,180.0,2.0,0.0
6005,51.0,182.0,1890.0,2.0,0.0
6006,60.0,0.0,1890.0,2.0,0.0
6007,78.0,0.0,480.0,11.0,0.0
6008,42.0,0.0,180.0,13.0,0.0
6009,51.0,0.0,150.0,12.0,0.0
6010,30.0,192.0,180.0,14.0,0.0
6011,60.0,48.0,150.0,12.0,0.0
6012,82.0,144.0,480.0,10.0,0.0
6013,63.0,96.0,150.0,12.0,0.0
6014,54.0,0.0,150.0,12.0,0.0
6015,48.0,0.0,180.0,13.0,0.0
6016,75.0,192.0,180.0,11.0,0.0
6017,36.0,0.0,180.0,14.0,0.0
6018,78.0,0.0,180.0,10.0,0.0
6019,60.0,48.0,150.0,12.0,0.0
6020,51.0,0.0,150.0,12.0,0.0
6021,63.0,240.0,150.0,12.0,0.0
6022,54.0,0.0,150.0,12.0,0.0
6023,82.0,144.0,480.0,1.0,0.0
6024,39.0,192.0,180.0,14.0,0.0
6025,78.0,0.0,480.0,1.0,0.0
6026,51.0,0.0,180.0,13.0,0.0
6027,60.0,48.0,150.0,12.0,0.0
6028,51.0,0.0,150.0,12.0,0.0
6029,63.0,0.0,150.0,12.0,0.0
6030,54.0,96.0,150.0,12.0,0.0
6031,75.0,0.0,180.0,1.0,0.0
6032,51.0,0.0,150.0,12.0,0.0
6033,42.0,0.0,180.0,14.0,0.0
6034,60.0,48.0,150.0,12.0,0.0
6035,78.0,0.0,180.0,1.0,0.0
6036,75.0,0.0,180.0,10.0,0.0
6037,54.0,192.0,180.0,13.0,0.0
6038,72.0,0.0,180.0,11.0,0.0
6039,54.0,0.0,150.0,12.0,0.0
6040,63.0,58.0,150.0,12.0,0.0
6041,77.0,144.0,480.0,11.0,0.0
6042,53.0,0.0,150.0,12.0,0.0
6043,53.0,0.0,1890.0,2.0,0.0
6044,41.0,192.0,180.0,13.0,0.0
6045,61.0,48.0,150.0,12.0,0.0
6046,61.0,518.0,1890.0,2.0,0.0
6047,29.0,0.0,180.0,14.0,0.0
6048,80.0,0.0,480.0,10.0,0.0
6049,65.0,0.0,150.0,12.0,0.0
6050,56.0,96.0,150.0,12.0,0.0
6051,77.0,0.0,180.0,10.0,0.0
6052,32.0,192.0,180.0,14.0,0.0
6053,53.0,0.0,150.0,12.0,0.0
6054,73.0,0.0,180.0,11.0,0.0
6055,44.0,0.0,180.0,13.0,0.0
6056,61.0,48.0,150.0,12.0,0.0
6057,65.0,0.0,150.0,12.0,0.0
6058,56.0,240.0,150.0,12.0,0.0
6059,61.0,0.0,150.0,12.0,0.0
6060,53.0,48.0,150.0,12.0,0.0
6061,37.0,192.0,180.0,14.0,0.0
6062,80.0,0.0,480.0,1.0,0.0
6063,77.0,144.0,480.0,1.0,0.0
6064,49.0,0.0,180.0,13.0,0.0
6065,65.0,96.0,150.0,12.0,0.0
6066,56.0,0.0,150.0,12.0,0.0
6067,53.0,48.0,150.0,12.0,0.0
6068,61.0,0.0,150.0,12.0,0.0
6069,41.0,0.0,180.0,14.0,0.0
6070,73.0,0.0,180.0,1.0,0.0
6071,68.0,0.0,180.0,11.0,0.0
6072,73.0,192.0,180.0,10.0,0.0
6073,53.0,0.0,180.0,13.0,0.0
6074,77.0,0.0,180.0,1.0,0.0
6075,56.0,0.0,150.0,12.0,0.0
6076,65.0,58.0,150.0,12.0,0.0
6077,54.0,240.0,480.0,13.0,0.0
6078,58.0,0.0,960.0,12.0,0.0
6079,66.0,0.0,720.0,11.0,0.0
6080,75.0,120.0,720.0,10.0,0.0
6081,42.0,0.0,480.0,14.0,0.0
6082,54.0,384.0,480.0,2.0,0.0
6083,63.0,0.0,480.0,2.0,0.0
6084,78.0,0.0,480.0,1.0,0.0
6085,75.0,0.0,480.0,1.0,0.0
6086,39.0,72.0,390.0,14.0,0.0
6087,51.0,0.0,390.0,13.0,0.0
6088,68.0,24.0,120.0,11.0,0.0
6089,77.0,0.0,120.0,10.0,0.0
6090,70.0,0.0,90.0,11.0,0.0
6091,78.0,24.0,90.0,10.0,0.0
6092,56.0,0.0,480.0,12.0,0.0
6093,53.0,0.0,480.0,2.0,0.0
6094,73.0,0.0,480.0,10.0,0.0
6095,61.0,384.0,480.0,2.0,0.0
6096,56.0,0.0,390.0,13.0,0.0
6097,65.0,0.0,480.0,11.0,0.0
6098,44.0,96.0,390.0,14.0,0.0
6099,73.0,0.0,480.0,1.0,0.0
6100,77.0,0.0,480.0,1.0,0.0
6101,72.0,0.0,480.0,10.0,0.0
6102,44.0,96.0,390.0,13.0,0.0
6103,72.0,0.0,480.0,1.0,0.0
6104,54.0,0.0,480.0,12.0,0.0
6105,75.0,0.0,480.0,1.0,0.0
6106,32.0,0.0,390.0,14.0,0.0
6107,51.0,0.0,480.0,2.0,0.0
6108,60.0,0.0,480.0,2.0,0.0
6109,63.0,144.0,480.0,11.0,0.0
6110,53.0,0.0,390.0,2.0,0.0
6111,61.0,0.0,390.0,2.0,0.0
6112,73.0,0.0,390.0,10.0,0.0
6113,73.0,96.0,390.0,1.0,0.0
6114,61.0,240.0,150.0,11.0,0.0
6115,53.0,0.0,390.0,12.0,0.0
6116,49.0,240.0,960.0,13.0,0.0
6117,37.0,0.0,960.0,14.0,0.0
6118,61.0,240.0,240.0,11.0,0.0
6119,68.0,228.0,240.0,11.0,0.0
6120,65.0,12.0,240.0,11.0,0.0
6121,56.0,240.0,480.0,12.0,0.0
6122,41.0,0.0,960.0,14.0,0.0
6123,53.0,240.0,960.0,13.0,0.0
6124,60.0,240.0,240.0,11.0,0.0
6125,61.0,0.0,240.0,11.0,0.0
6126,68.0,228.0,240.0,11.0,0.0
6127,77.0,240.0,720.0,10.0,0.0
6128,49.0,0.0,960.0,12.0,0.0
6129,65.0,12.0,240.0,11.0,0.0
6130,54.0,0.0,960.0,13.0,0.0
6131,70.0,0.0,240.0,11.0,0.0
6132,42.0,240.0,960.0,14.0,0.0
6133,66.0,240.0,240.0,11.0,0.0
6134,75.0,0.0,240.0,10.0,0.0
6135,58.0,240.0,960.0,12.0,0.0
6136,78.0,0.0,960.0,10.0,0.0
6137,63.0,228.0,240.0,11.0,0.0
6138,61.0,12.0,240.0,11.0,0.0
6139,60.0,240.0,240.0,11.0,0.0
6140,44.0,0.0,930.0,14.0,0.0
6141,56.0,16.0,930.0,13.0,0.0
6142,63.0,0.0,240.0,11.0,0.0
6143,77.0,240.0,480.0,10.0,0.0
6144,67.0,212.0,240.0,11.0,0.0
6145,56.0,0.0,480.0,12.0,0.0
6146,68.0,12.0,240.0,11.0,0.0
6147,66.0,240.0,240.0,11.0,0.0
6148,75.0,0.0,480.0,10.0,0.0
6149,60.0,240.0,480.0,12.0,0.0
6150,58.0,0.0,960.0,13.0,0.0
6151,46.0,0.0,960.0,14.0,0.0
6152,63.0,0.0,240.0,11.0,0.0
6153,66.0,144.0,240.0,11.0,0.0
6154,61.0,240.0,480.0,12.0,0.0
6155,73.0,84.0,390.0,10.0,0.0
6156,65.0,12.0,240.0,11.0,0.0
6157,53.0,0.0,960.0,13.0,0.0
6158,67.0,240.0,240.0,11.0,0.0
6159,41.0,240.0,960.0,14.0,0.0
6160,68.0,240.0,240.0,11.0,0.0
6161,56.0,0.0,720.0,12.0,0.0
6162,65.0,228.0,240.0,11.0,0.0
6163,77.0,240.0,720.0,10.0,0.0
6164,61.0,12.0,240.0,11.0,0.0
6165,54.0,0.0,960.0,13.0,0.0
6166,42.0,240.0,960.0,14.0,0.0
6167,70.0,0.0,240.0,11.0,0.0
6168,58.0,0.0,240.0,12.0,0.0
6169,66.0,0.0,240.0,11.0,0.0
6170,75.0,240.0,240.0,10.0,0.0
6171,54.0,0.0,240.0,12.0,0.0
6172,63.0,228.0,240.0,11.0,0.0
6173,82.0,0.0,960.0,10.0,0.0
6174,53.0,0.0,240.0,12.0,0.0
6175,61.0,12.0,240.0,11.0,0.0
6176,51.0,0.0,480.0,12.0,0.0
6177,44.0,16.0,930.0,14.0,0.0
6178,60.0,240.0,240.0,11.0,0.0
6179,56.0,0.0,930.0,13.0,0.0
6180,63.0,240.0,240.0,11.0,0.0
6181,80.0,240.0,480.0,10.0,0.0
6182,60.0,240.0,720.0,12.0,0.0
6183,66.0,212.0,240.0,11.0,0.0
6184,72.0,12.0,240.0,11.0,0.0
6185,58.0,0.0,960.0,13.0,0.0
6186,46.0,0.0,960.0,14.0,0.0
6187,78.0,0.0,480.0,10.0,0.0
6188,75.0,0.0,240.0,11.0,0.0
6189,72.0,0.0,240.0,11.0,0.0
6190,63.0,240.0,240.0,12.0,0.0
6191,75.0,144.0,240.0,11.0,0.0
6192,77.0,84.0,390.0,10.0,0.0
6193,61.0,240.0,480.0,12.0,0.0
6194,73.0,12.0,240.0,11.0,0.0
6195,53.0,0.0,960.0,13.0,0.0
6196,53.0,240.0,960.0,2.0,0.0
6197,77.0,0.0,960.0,1.0,0.0
6198,73.0,0.0,1920.0,1.0,0.0
6199,49.0,0.0,1920.0,2.0,0.0
6200,53.0,0.0,960.0,12.0,0.0
6201,41.0,0.0,960.0,14.0,0.0
6202,67.0,240.0,240.0,11.0,0.0
6203,68.0,240.0,240.0,11.0,0.0
6204,70.0,216.0,240.0,11.0,0.0
6205,73.0,12.0,450.0,10.0,0.0
6206,68.0,12.0,240.0,11.0,0.0
6207,75.0,0.0,1920.0,1.0,0.0
6208,51.0,0.0,960.0,12.0,0.0
6209,54.0,240.0,960.0,13.0,0.0
6210,42.0,0.0,960.0,14.0,0.0
6211,51.0,0.0,1920.0,2.0,0.0
6212,69.0,240.0,240.0,11.0,0.0
6213,70.0,240.0,240.0,11.0,0.0
6214,66.0,216.0,240.0,11.0,0.0
6215,63.0,12.0,450.0,10.0,0.0
6216,63.0,12.0,240.0,11.0,0.0
6217,61.0,240.0,240.0,11.0,0.0
6218,44.0,0.0,930.0,14.0,0.0
6219,72.0,0.0,960.0,1.0,0.0
6220,54.0,0.0,960.0,12.0,0.0
6221,48.0,384.0,960.0,2.0,0.0
6222,56.0,16.0,930.0,13.0,0.0
6223,60.0,240.0,240.0,11.0,0.0
6224,68.0,68.0,390.0,10.0,0.0
6225,63.0,144.0,240.0,11.0,0.0
6226,60.0,12.0,240.0,11.0,0.0
6227,49.0,0.0,390.0,13.0,0.0
6228,37.0,0.0,390.0,14.0,0.0
6229,61.0,0.0,390.0,10.0,0.0
6230,49.0,0.0,390.0,2.0,0.0
6231,73.0,0.0,390.0,1.0,0.0
6232,61.0,576.0,390.0,11.0,0.0
6233,53.0,0.0,390.0,12.0,0.0
6234,68.0,480.0,480.0,6.0,0.0
6235,80.0,456.0,480.0,6.0,0.0
6236,72.0,744.0,450.0,6.0,0.0
6237,75.0,228.0,720.0,6.0,0.0
6238,61.0,480.0,480.0,7.0,0.0
6239,73.0,12.0,240.0,6.0,0.0
6240,68.0,0.0,480.0,7.0,0.0
6241,65.0,0.0,15.0,7.0,0.0
6242,73.0,48.0,900.0,6.0,0.0
6243,66.0,600.0,480.0,7.0,0.0
6244,63.0,0.0,480.0,7.0,0.0
6245,65.0,0.0,900.0,7.0,0.0
6246,61.0,48.0,900.0,7.0,0.0
6247,75.0,120.0,120.0,6.0,0.0
6248,73.0,120.0,120.0,6.0,0.0
6249,72.0,72.0,120.0,6.0,0.0
6250,73.0,480.0,120.0,6.0,0.0
6251,75.0,456.0,480.0,6.0,0.0
6252,77.0,264.0,450.0,6.0,0.0
6253,77.0,240.0,240.0,6.0,0.0
6254,78.0,240.0,240.0,6.0,0.0
6255,58.0,0.0,480.0,7.0,0.0
6256,54.0,480.0,480.0,7.0,0.0
6257,74.0,228.0,240.0,6.0,0.0
6258,75.0,12.0,240.0,6.0,0.0
6259,75.0,48.0,900.0,6.0,0.0
6260,66.0,432.0,480.0,7.0,0.0
6261,58.0,0.0,480.0,7.0,0.0
6262,56.0,0.0,480.0,7.0,0.0
6263,65.0,600.0,480.0,7.0,0.0
6264,63.0,48.0,900.0,7.0,0.0
6265,54.0,0.0,900.0,7.0,0.0
6266,77.0,120.0,120.0,6.0,0.0
6267,75.0,120.0,120.0,6.0,0.0
6268,74.0,72.0,120.0,6.0,0.0
6269,75.0,480.0,120.0,6.0,0.0
6270,78.0,456.0,480.0,6.0,0.0
6271,82.0,744.0,450.0,6.0,0.0
6272,82.0,228.0,720.0,6.0,0.0
6273,56.0,480.0,480.0,7.0,0.0
6274,80.0,12.0,240.0,6.0,0.0
6275,60.0,0.0,15.0,7.0,0.0
6276,63.0,480.0,480.0,7.0,0.0
6277,80.0,240.0,1200.0,6.0,0.0
6278,58.0,0.0,480.0,7.0,0.0
6279,61.0,240.0,480.0,7.0,0.0
6280,56.0,0.0,900.0,7.0,0.0
6281,60.0,48.0,900.0,7.0,0.0
6282,79.0,240.0,240.0,6.0,0.0
6283,80.0,192.0,240.0,6.0,0.0
6284,79.0,240.0,240.0,6.0,0.0
6285,80.0,240.0,240.0,6.0,0.0
6286,81.0,240.0,240.0,6.0,0.0
6287,82.0,228.0,240.0,6.0,0.0
6288,78.0,132.0,240.0,6.0,0.0
6289,37.0,0.0,390.0,14.0,0.0
6290,77.0,24.0,120.0,6.0,0.0
6291,61.0,120.0,960.0,7.0,0.0
6292,49.0,0.0,960.0,7.0,0.0
6293,49.0,96.0,390.0,13.0,0.0
6294,65.0,96.0,150.0,11.0,0.0
6295,73.0,0.0,150.0,10.0,0.0
6296,85.0,120.0,120.0,6.0,0.0
6297,72.0,0.0,150.0,10.0,0.0
6298,63.0,0.0,150.0,11.0,0.0
6299,75.0,24.0,120.0,6.0,0.0
6300,84.0,120.0,120.0,6.0,0.0
6301,73.0,24.0,120.0,6.0,0.0
6302,61.0,96.0,150.0,11.0,0.0
6303,70.0,0.0,150.0,10.0,0.0
6304,82.0,120.0,120.0,6.0,0.0
6305,60.0,0.0,150.0,11.0,0.0
6306,72.0,24.0,120.0,6.0,0.0
6307,68.0,96.0,150.0,10.0,0.0
6308,80.0,0.0,120.0,6.0,0.0
6309,66.0,0.0,150.0,10.0,0.0
6310,70.0,24.0,120.0,6.0,0.0
6311,58.0,96.0,150.0,11.0,0.0
6312,54.0,120.0,960.0,7.0,0.0
6313,30.0,0.0,390.0,14.0,0.0
6314,42.0,0.0,960.0,7.0,0.0
6315,42.0,96.0,390.0,13.0,0.0
6316,78.0,120.0,120.0,6.0,0.0
6317,56.0,0.0,150.0,11.0,0.0
6318,65.0,0.0,150.0,10.0,0.0
6319,68.0,24.0,120.0,6.0,0.0
6320,77.0,120.0,120.0,6.0,0.0
6321,66.0,24.0,120.0,6.0,0.0
6322,54.0,0.0,150.0,11.0,0.0
6323,63.0,96.0,150.0,10.0,0.0
6324,75.0,120.0,120.0,6.0,0.0
6325,53.0,0.0,150.0,11.0,0.0
6326,61.0,96.0,150.0,10.0,0.0
6327,65.0,24.0,120.0,6.0,0.0
6328,73.0,0.0,120.0,6.0,0.0
6329,51.0,0.0,390.0,11.0,0.0
6330,56.0,0.0,960.0,7.0,0.0
6331,44.0,0.0,960.0,7.0,0.0
6332,60.0,0.0,390.0,10.0,0.0
6333,32.0,96.0,390.0,14.0,0.0
6334,63.0,24.0,120.0,6.0,0.0
6335,44.0,0.0,390.0,13.0,0.0
6336,51.0,0.0,150.0,12.0,0.0
6337,60.0,96.0,150.0,12.0,0.0
6338,72.0,120.0,120.0,6.0,0.0
6339,58.0,0.0,150.0,12.0,0.0
6340,61.0,24.0,120.0,6.0,0.0
6341,49.0,0.0,150.0,12.0,0.0
6342,70.0,120.0,120.0,6.0,0.0
6343,48.0,0.0,150.0,12.0,0.0
6344,60.0,24.0,120.0,6.0,0.0
6345,56.0,96.0,150.0,12.0,0.0
6346,68.0,120.0,120.0,6.0,0.0
6347,63.0,24.0,120.0,6.0,0.0
6348,51.0,96.0,150.0,12.0,0.0
6349,54.0,0.0,150.0,12.0,0.0
6350,66.0,120.0,120.0,6.0,0.0
6351,49.0,120.0,960.0,7.0,0.0
6352,37.0,0.0,960.0,7.0,0.0
6353,61.0,24.0,120.0,6.0,0.0
6354,37.0,0.0,390.0,13.0,0.0
6355,25.0,0.0,390.0,14.0,0.0
6356,49.0,0.0,150.0,12.0,0.0
6357,53.0,96.0,150.0,12.0,0.0
6358,65.0,120.0,120.0,6.0,0.0
6359,60.0,24.0,120.0,6.0,0.0
6360,51.0,0.0,150.0,12.0,0.0
6361,48.0,96.0,150.0,12.0,0.0
6362,63.0,120.0,120.0,6.0,0.0
6363,46.0,96.0,150.0,12.0,0.0
6364,49.0,0.0,150.0,12.0,0.0
6365,58.0,24.0,120.0,6.0,0.0
6366,61.0,120.0,120.0,6.0,0.0
6367,56.0,24.0,120.0,6.0,0.0
6368,44.0,96.0,150.0,12.0,0.0
6369,48.0,0.0,150.0,12.0,0.0
6370,60.0,0.0,120.0,6.0,0.0
6371,58.0,120.0,120.0,6.0,0.0
6372,46.0,0.0,390.0,12.0,0.0
6373,42.0,96.0,390.0,7.0,0.0
6374,63.0,120.0,120.0,6.0,0.0
6375,66.0,24.0,120.0,6.0,0.0
6376,70.0,120.0,120.0,6.0,0.0
6377,75.0,120.0,120.0,6.0,0.0
6378,54.0,96.0,390.0,7.0,0.0
6379,78.0,120.0,120.0,6.0,0.0
6380,82.0,24.0,120.0,6.0,0.0
6381,78.0,120.0,120.0,6.0,0.0
6382,77.0,120.0,120.0,6.0,0.0
6383,56.0,96.0,390.0,7.0,0.0
6384,80.0,120.0,120.0,6.0,0.0
6385,77.0,24.0,120.0,6.0,0.0
6386,73.0,120.0,120.0,6.0,0.0
6387,75.0,120.0,120.0,6.0,0.0
6388,44.0,16.0,390.0,7.0,0.0
6389,78.0,80.0,120.0,6.0,0.0
6390,75.0,24.0,120.0,6.0,0.0
6391,44.0,0.0,90.0,13.0,0.0
6392,32.0,40.0,90.0,14.0,0.0
6393,46.0,0.0,90.0,13.0,0.0
6394,34.0,80.0,90.0,14.0,0.0
6395,72.0,0.0,120.0,6.0,0.0
6396,36.0,192.0,90.0,14.0,0.0
6397,48.0,0.0,90.0,13.0,0.0
6398,53.0,0.0,180.0,11.0,0.0
6399,61.0,0.0,180.0,10.0,0.0
6400,49.0,0.0,780.0,13.0,0.0
6401,73.0,240.0,390.0,6.0,0.0
6402,49.0,0.0,390.0,7.0,0.0
6403,56.0,192.0,180.0,12.0,0.0
6404,37.0,336.0,780.0,14.0,0.0
6405,53.0,0.0,390.0,11.0,0.0
6406,61.0,0.0,390.0,10.0,0.0
6407,56.0,144.0,390.0,12.0,0.0
6408,61.0,480.0,390.0,10.0,0.0
6409,56.0,0.0,390.0,12.0,0.0
6410,53.0,0.0,390.0,11.0,0.0
6411,56.0,0.0,390.0,12.0,0.0
6412,61.0,176.0,390.0,10.0,0.0
6413,53.0,0.0,390.0,11.0,0.0
6414,61.0,432.0,420.0,10.0,0.0
6415,44.0,80.0,90.0,13.0,0.0
6416,53.0,0.0,180.0,11.0,0.0
6417,56.0,48.0,180.0,12.0,0.0
6418,32.0,0.0,90.0,14.0,0.0
6419,34.0,0.0,90.0,14.0,0.0
6420,46.0,32.0,90.0,13.0,0.0
6421,48.0,192.0,90.0,13.0,0.0
6422,36.0,0.0,90.0,14.0,0.0
6423,56.0,0.0,180.0,12.0,0.0
6424,49.0,336.0,780.0,13.0,0.0
6425,37.0,0.0,780.0,14.0,0.0
6426,53.0,0.0,180.0,11.0,0.0
6427,56.0,0.0,390.0,12.0,0.0
6428,53.0,0.0,390.0,11.0,0.0
6429,61.0,144.0,390.0,10.0,0.0
6430,61.0,480.0,390.0,10.0,0.0
6431,56.0,0.0,390.0,12.0,0.0
6432,53.0,0.0,390.0,11.0,0.0
6433,53.0,0.0,390.0,11.0,0.0
6434,61.0,0.0,390.0,10.0,0.0
6435,56.0,336.0,390.0,12.0,0.0
6436,61.0,0.0,240.0,10.0,0.0
6437,65.0,0.0,2310.0,1.0,0.0
6438,56.0,0.0,2310.0,2.0,0.0
6439,56.0,0.0,15.0,12.0,0.0
6440,46.0,0.0,390.0,5.0,0.0
6441,46.0,240.0,390.0,13.0,0.0
6442,53.0,192.0,15.0,11.0,0.0
6443,68.0,0.0,2310.0,1.0,0.0
6444,34.0,0.0,390.0,14.0,0.0
6445,62.0,0.0,180.0,10.0,0.0
6446,53.0,32.0,780.0,3.0,0.0
6447,74.0,0.0,2310.0,0.0,0.0
6448,46.0,0.0,780.0,3.0,0.0
6449,58.0,0.0,390.0,4.0,0.0
6450,62.0,0.0,2310.0,2.0,0.0
6451,62.0,0.0,390.0,10.0,0.0
6452,56.0,0.0,390.0,12.0,0.0
6453,53.0,144.0,390.0,11.0,0.0
6454,41.0,0.0,90.0,13.0,0.0
6455,62.0,240.0,390.0,10.0,0.0
6456,53.0,0.0,390.0,11.0,0.0
6457,56.0,0.0,390.0,12.0,0.0
6458,29.0,80.0,90.0,14.0,0.0
6459,43.0,0.0,90.0,13.0,0.0
6460,31.0,80.0,90.0,14.0,0.0
6461,45.0,0.0,90.0,13.0,0.0
6462,33.0,144.0,90.0,14.0,0.0
6463,58.0,240.0,390.0,4.0,0.0
6464,34.0,0.0,390.0,14.0,0.0
6465,46.0,0.0,390.0,3.0,0.0
6466,53.0,0.0,390.0,3.0,0.0
6467,46.0,0.0,390.0,13.0,0.0
6468,46.0,0.0,390.0,5.0,0.0
6469,62.0,176.0,390.0,10.0,0.0
6470,53.0,0.0,390.0,11.0,0.0
6471,56.0,0.0,390.0,12.0,0.0
6472,53.0,0.0,390.0,3.0,0.0
6473,46.0,16.0,390.0,3.0,0.0
6474,53.0,0.0,420.0,11.0,0.0
6475,41.0,64.0,90.0,13.0,0.0
6476,62.0,192.0,420.0,10.0,0.0
6477,56.0,0.0,630.0,12.0,0.0
6478,29.0,0.0,90.0,14.0,0.0
6479,31.0,80.0,90.0,14.0,0.0
6480,43.0,0.0,90.0,13.0,0.0
6481,33.0,0.0,90.0,14.0,0.0
6482,45.0,192.0,90.0,13.0,0.0
6483,46.0,240.0,390.0,13.0,0.0
6484,46.0,0.0,390.0,5.0,0.0
6485,46.0,0.0,390.0,3.0,0.0
6486,34.0,0.0,390.0,14.0,0.0
6487,53.0,0.0,390.0,3.0,0.0
6488,58.0,0.0,390.0,4.0,0.0
6489,68.0,336.0,390.0,11.0,0.0
6490,71.0,0.0,390.0,10.0,0.0
6491,62.0,144.0,480.0,1.0,0.0
6492,58.0,0.0,480.0,1.0,0.0
6493,70.0,0.0,390.0,10.0,0.0
6494,66.0,336.0,390.0,11.0,0.0
6495,63.0,0.0,480.0,1.0,0.0
6496,60.0,144.0,480.0,1.0,0.0
6497,68.0,336.0,390.0,10.0,0.0
6498,65.0,0.0,390.0,11.0,0.0
6499,62.0,384.0,480.0,1.0,0.0
6500,65.0,0.0,480.0,1.0,0.0
6501,66.0,576.0,630.0,10.0,0.0
6502,63.0,0.0,630.0,11.0,0.0
6503,66.0,0.0,390.0,1.0,0.0
6504,63.0,0.0,390.0,1.0,0.0
6505,70.0,480.0,480.0,6.0,0.0
6506,82.0,456.0,480.0,6.0,0.0
6507,74.0,744.0,450.0,6.0,0.0
6508,77.0,228.0,720.0,6.0,0.0
6509,66.0,480.0,480.0,7.0,0.0
6510,63.0,0.0,480.0,7.0,0.0
6511,75.0,12.0,240.0,6.0,0.0
6512,70.0,0.0,480.0,7.0,0.0
6513,75.0,48.0,900.0,6.0,0.0
6514,66.0,432.0,480.0,7.0,0.0
6515,68.0,0.0,480.0,7.0,0.0
6516,65.0,600.0,480.0,7.0,0.0
6517,63.0,48.0,900.0,7.0,0.0
6518,66.0,0.0,900.0,7.0,0.0
6519,77.0,120.0,120.0,6.0,0.0
6520,75.0,120.0,120.0,6.0,0.0
6521,74.0,72.0,120.0,6.0,0.0
6522,75.0,480.0,120.0,6.0,0.0
6523,77.0,456.0,480.0,6.0,0.0
6524,78.0,264.0,450.0,6.0,0.0
6525,78.0,240.0,240.0,6.0,0.0
6526,77.0,240.0,240.0,6.0,0.0
6527,80.0,228.0,240.0,6.0,0.0
6528,56.0,0.0,480.0,7.0,0.0
6529,78.0,12.0,240.0,6.0,0.0
6530,77.0,48.0,900.0,6.0,0.0
6531,63.0,432.0,480.0,7.0,0.0
6532,59.0,480.0,15.0,7.0,0.0
6533,58.0,600.0,480.0,7.0,0.0
6534,61.0,0.0,480.0,7.0,0.0
6535,59.0,48.0,900.0,7.0,0.0
6536,56.0,0.0,900.0,7.0,0.0
6537,78.0,120.0,120.0,6.0,0.0
6538,77.0,120.0,120.0,6.0,0.0
6539,75.0,72.0,120.0,6.0,0.0
6540,77.0,480.0,120.0,6.0,0.0
6541,80.0,456.0,480.0,6.0,0.0
6542,83.0,984.0,450.0,6.0,0.0
6543,71.0,0.0,960.0,6.0,0.0
6544,62.0,0.0,480.0,7.0,0.0
6545,58.0,480.0,480.0,7.0,0.0
6546,70.0,240.0,1200.0,6.0,0.0
6547,68.0,480.0,480.0,7.0,0.0
6548,65.0,0.0,480.0,7.0,0.0
6549,66.0,240.0,480.0,7.0,0.0
6550,63.0,0.0,480.0,7.0,0.0
6551,62.0,48.0,900.0,7.0,0.0
6552,65.0,0.0,900.0,7.0,0.0
6553,70.0,240.0,240.0,6.0,0.0
6554,82.0,192.0,240.0,6.0,0.0
6555,70.0,240.0,240.0,6.0,0.0
6556,81.0,240.0,240.0,6.0,0.0
6557,70.0,240.0,240.0,6.0,0.0
6558,80.0,240.0,240.0,6.0,0.0
6559,70.0,120.0,240.0,6.0,0.0
6560,27.0,48.0,180.0,7.0,0.0
6561,78.0,72.0,120.0,6.0,0.0
6562,82.0,120.0,120.0,6.0,0.0
6563,74.0,72.0,120.0,6.0,0.0
6564,29.0,48.0,180.0,7.0,0.0
6565,77.0,120.0,120.0,6.0,0.0
6566,75.0,72.0,120.0,6.0,0.0
6567,30.0,48.0,180.0,7.0,0.0
6568,78.0,120.0,120.0,6.0,0.0
6569,31.0,48.0,180.0,7.0,0.0
6570,70.0,72.0,120.0,6.0,0.0
6571,73.0,120.0,120.0,6.0,0.0
6572,32.0,48.0,180.0,7.0,0.0
6573,71.0,72.0,120.0,6.0,0.0
6574,75.0,120.0,120.0,6.0,0.0
6575,34.0,48.0,180.0,7.0,0.0
6576,67.0,72.0,120.0,6.0,0.0
6577,70.0,120.0,120.0,6.0,0.0
6578,68.0,72.0,120.0,6.0,0.0
6579,35.0,48.0,180.0,7.0,0.0
6580,71.0,120.0,120.0,6.0,0.0
6581,65.0,72.0,120.0,6.0,0.0
6582,38.0,48.0,180.0,7.0,0.0
6583,68.0,120.0,120.0,6.0,0.0
6584,66.0,72.0,120.0,6.0,0.0
6585,39.0,48.0,180.0,7.0,0.0
6586,70.0,120.0,120.0,6.0,0.0
6587,62.0,72.0,120.0,6.0,0.0
6588,41.0,48.0,180.0,7.0,0.0
6589,65.0,120.0,120.0,6.0,0.0
6590,63.0,72.0,120.0,6.0,0.0
6591,42.0,48.0,180.0,7.0,0.0
6592,66.0,120.0,120.0,6.0,0.0
6593,58.0,72.0,120.0,6.0,0.0
6594,43.0,48.0,180.0,7.0,0.0
6595,61.0,120.0,120.0,6.0,0.0
6596,44.0,48.0,180.0,7.0,0.0
6597,59.0,72.0,120.0,6.0,0.0
6598,63.0,120.0,120.0,6.0,0.0
6599,55.0,72.0,120.0,6.0,0.0
6600,46.0,48.0,180.0,7.0,0.0
6601,58.0,120.0,120.0,6.0,0.0
6602,56.0,72.0,120.0,6.0,0.0
6603,47.0,48.0,180.0,7.0,0.0
6604,59.0,120.0,120.0,6.0,0.0
6605,50.0,48.0,180.0,7.0,0.0
6606,53.0,72.0,120.0,6.0,0.0
6607,56.0,192.0,120.0,6.0,0.0
6608,54.0,192.0,180.0,6.0,0.0
6609,51.0,48.0,390.0,7.0,0.0
6610,63.0,432.0,180.0,6.0,0.0
6611,66.0,0.0,180.0,6.0,0.0
6612,47.0,48.0,390.0,7.0,0.0
6613,75.0,0.0,180.0,6.0,0.0
6614,66.0,432.0,180.0,6.0,0.0
6615,44.0,48.0,390.0,7.0,0.0
6616,65.0,368.0,180.0,6.0,0.0
6617,75.0,0.0,180.0,6.0,0.0
6618,46.0,16.0,390.0,7.0,0.0
6619,34.0,0.0,90.0,14.0,0.0
6620,46.0,64.0,90.0,13.0,0.0
6621,65.0,0.0,180.0,6.0,0.0
6622,74.0,48.0,180.0,6.0,0.0
6623,48.0,0.0,90.0,13.0,0.0
6624,36.0,32.0,90.0,14.0,0.0
6625,50.0,192.0,90.0,13.0,0.0
6626,38.0,0.0,90.0,14.0,0.0
6627,75.0,0.0,390.0,6.0,0.0
6628,58.0,0.0,180.0,12.0,0.0
6629,39.0,0.0,390.0,7.0,0.0
6630,39.0,0.0,780.0,14.0,0.0
6631,63.0,192.0,180.0,10.0,0.0
6632,51.0,336.0,780.0,13.0,0.0
6633,54.0,0.0,180.0,11.0,0.0
6634,66.0,240.0,390.0,6.0,0.0
6635,70.0,0.0,390.0,6.0,0.0
6636,58.0,0.0,390.0,12.0,0.0
6637,54.0,144.0,390.0,11.0,0.0
6638,63.0,0.0,390.0,10.0,0.0
6639,63.0,0.0,390.0,10.0,0.0
6640,58.0,480.0,390.0,12.0,0.0
6641,54.0,0.0,390.0,11.0,0.0
6642,63.0,0.0,390.0,10.0,0.0
6643,58.0,0.0,390.0,12.0,0.0
6644,54.0,176.0,390.0,11.0,0.0
6645,63.0,0.0,420.0,10.0,0.0
6646,34.0,80.0,90.0,14.0,0.0
6647,46.0,0.0,90.0,13.0,0.0
6648,58.0,432.0,420.0,12.0,0.0
6649,54.0,0.0,420.0,11.0,0.0
6650,48.0,0.0,90.0,13.0,0.0
6651,36.0,80.0,90.0,14.0,0.0
6652,50.0,0.0,90.0,13.0,0.0
6653,38.0,192.0,90.0,14.0,0.0
6654,39.0,336.0,780.0,14.0,0.0
6655,51.0,0.0,780.0,13.0,0.0
6656,54.0,144.0,390.0,11.0,0.0
6657,58.0,0.0,390.0,12.0,0.0
6658,63.0,0.0,390.0,10.0,0.0
6659,58.0,0.0,390.0,12.0,0.0
6660,54.0,0.0,390.0,11.0,0.0
6661,63.0,480.0,390.0,10.0,0.0
6662,54.0,0.0,390.0,11.0,0.0
6663,63.0,336.0,390.0,10.0,0.0
6664,58.0,0.0,390.0,12.0,0.0
6665,63.0,0.0,240.0,10.0,0.0
6666,58.0,192.0,240.0,12.0,0.0
6667,70.0,0.0,390.0,4.0,0.0
6668,64.0,0.0,180.0,10.0,0.0
6669,46.0,32.0,780.0,3.0,0.0
6670,46.0,0.0,390.0,5.0,0.0
6671,58.0,0.0,780.0,3.0,0.0
6672,54.0,0.0,15.0,11.0,0.0
6673,58.0,0.0,390.0,4.0,0.0
6674,76.0,0.0,2310.0,0.0,0.0
6675,73.0,0.0,2310.0,1.0,0.0
6676,61.0,0.0,180.0,12.0,0.0
6677,52.0,0.0,2310.0,2.0,0.0
6678,49.0,0.0,2310.0,2.0,0.0
6679,66.0,0.0,2310.0,1.0,0.0
6680,42.0,240.0,390.0,13.0,0.0
6681,30.0,0.0,390.0,14.0,0.0
6682,61.0,0.0,390.0,12.0,0.0
6683,54.0,0.0,390.0,11.0,0.0
6684,64.0,144.0,390.0,10.0,0.0
6685,64.0,0.0,390.0,10.0,0.0
6686,54.0,0.0,390.0,11.0,0.0
6687,37.0,0.0,90.0,13.0,0.0
6688,61.0,240.0,390.0,12.0,0.0
6689,25.0,80.0,90.0,14.0,0.0
6690,39.0,0.0,90.0,13.0,0.0
6691,27.0,80.0,90.0,14.0,0.0
6692,41.0,144.0,90.0,13.0,0.0
6693,29.0,0.0,90.0,14.0,0.0
6694,46.0,0.0,390.0,3.0,0.0
6695,58.0,0.0,390.0,3.0,0.0
6696,58.0,0.0,390.0,4.0,0.0
6697,30.0,240.0,390.0,14.0,0.0
6698,42.0,0.0,390.0,13.0,0.0
6699,46.0,0.0,390.0,5.0,0.0
6700,70.0,0.0,390.0,4.0,0.0
6701,54.0,176.0,390.0,11.0,0.0
6702,64.0,0.0,390.0,10.0,0.0
6703,61.0,0.0,390.0,12.0,0.0
6704,58.0,16.0,390.0,3.0,0.0
6705,46.0,0.0,390.0,3.0,0.0
6706,25.0,64.0,90.0,14.0,0.0
6707,64.0,0.0,420.0,10.0,0.0
6708,37.0,0.0,90.0,13.0,0.0
6709,54.0,192.0,420.0,11.0,0.0
6710,61.0,0.0,630.0,12.0,0.0
6711,27.0,80.0,90.0,14.0,0.0
6712,39.0,0.0,90.0,13.0,0.0
6713,41.0,192.0,90.0,13.0,0.0
6714,29.0,0.0,90.0,14.0,0.0
6715,46.0,0.0,390.0,5.0,0.0
6716,70.0,0.0,390.0,4.0,0.0
6717,30.0,240.0,390.0,14.0,0.0
6718,58.0,0.0,390.0,3.0,0.0
6719,46.0,0.0,390.0,3.0,0.0
6720,42.0,0.0,390.0,13.0,0.0
6721,58.0,0.0,390.0,4.0,0.0
6722,64.0,336.0,390.0,11.0,0.0
6723,68.0,0.0,390.0,10.0,0.0
6724,42.0,0.0,480.0,2.0,0.0
6725,46.0,144.0,480.0,2.0,0.0
6726,66.0,0.0,390.0,10.0,0.0
6727,63.0,336.0,390.0,11.0,0.0
6728,44.0,144.0,480.0,2.0,0.0
6729,47.0,0.0,480.0,2.0,0.0
6730,64.0,0.0,390.0,10.0,0.0
6731,61.0,336.0,390.0,11.0,0.0
6732,49.0,384.0,480.0,2.0,0.0
6733,46.0,0.0,480.0,2.0,0.0
6734,63.0,0.0,630.0,10.0,0.0
6735,59.0,576.0,630.0,11.0,0.0
6736,47.0,0.0,390.0,2.0,0.0
6737,51.0,0.0,390.0,2.0,0.0
6738,66.0,480.0,480.0,6.0,0.0
6739,78.0,456.0,480.0,6.0,0.0
6740,70.0,708.0,450.0,6.0,0.0
6741,73.0,264.0,690.0,6.0,0.0
6742,59.0,480.0,480.0,7.0,0.0
6743,71.0,12.0,240.0,6.0,0.0
6744,66.0,432.0,480.0,7.0,0.0
6745,63.0,0.0,15.0,7.0,0.0
6746,71.0,48.0,900.0,6.0,0.0
6747,55.0,0.0,480.0,7.0,0.0
6748,63.0,600.0,480.0,7.0,0.0
6749,56.0,0.0,900.0,7.0,0.0
6750,59.0,48.0,900.0,7.0,0.0
6751,73.0,120.0,120.0,6.0,0.0
6752,71.0,120.0,120.0,6.0,0.0
6753,70.0,72.0,120.0,6.0,0.0
6754,71.0,480.0,120.0,6.0,0.0
6755,73.0,456.0,480.0,6.0,0.0
6756,75.0,744.0,450.0,6.0,0.0
6757,75.0,228.0,720.0,6.0,0.0
6758,52.0,480.0,480.0,7.0,0.0
6759,56.0,0.0,480.0,7.0,0.0
6760,80.0,12.0,240.0,6.0,0.0
6761,73.0,48.0,900.0,6.0,0.0
6762,56.0,432.0,480.0,7.0,0.0
6763,59.0,0.0,480.0,7.0,0.0
6764,54.0,0.0,480.0,7.0,0.0
6765,58.0,720.0,480.0,7.0,0.0
6766,56.0,48.0,900.0,7.0,0.0
6767,53.0,0.0,900.0,7.0,0.0
6768,72.0,192.0,240.0,6.0,0.0
6769,73.0,240.0,240.0,6.0,0.0
6770,72.0,240.0,240.0,6.0,0.0
6771,73.0,240.0,240.0,6.0,0.0
6772,72.0,228.0,240.0,6.0,0.0
6773,73.0,252.0,240.0,6.0,0.0
6774,75.0,240.0,240.0,6.0,0.0
6775,73.0,240.0,240.0,6.0,0.0
6776,54.0,0.0,480.0,7.0,0.0
6777,71.0,228.0,240.0,6.0,0.0
6778,70.0,12.0,240.0,6.0,0.0
6779,61.0,0.0,480.0,7.0,0.0
6780,58.0,240.0,15.0,7.0,0.0
6781,68.0,240.0,240.0,6.0,0.0
6782,66.0,576.0,1110.0,6.0,0.0
6783,59.0,384.0,480.0,7.0,0.0
6784,56.0,0.0,480.0,7.0,0.0
6785,58.0,0.0,960.0,7.0,0.0
6786,54.0,0.0,960.0,7.0,0.0
6787,78.0,480.0,480.0,6.0,0.0
6788,77.0,456.0,480.0,6.0,0.0
6789,76.0,168.0,450.0,6.0,0.0
6790,75.0,192.0,150.0,6.0,0.0
6791,75.0,24.0,180.0,7.0,0.0
6792,78.0,0.0,450.0,6.0,0.0
6793,59.0,96.0,90.0,7.0,0.0
6794,71.0,120.0,90.0,7.0,0.0
6795,58.0,96.0,90.0,7.0,0.0
6796,73.0,24.0,180.0,7.0,0.0
6797,70.0,120.0,90.0,7.0,0.0
6798,78.0,120.0,690.0,6.0,0.0
6799,56.0,96.0,90.0,7.0,0.0
6800,71.0,24.0,180.0,7.0,0.0
6801,68.0,120.0,90.0,7.0,0.0
6802,54.0,96.0,90.0,7.0,0.0
6803,70.0,24.0,180.0,7.0,0.0
6804,66.0,120.0,90.0,7.0,0.0
6805,68.0,24.0,180.0,7.0,0.0
6806,52.0,96.0,90.0,7.0,0.0
6807,64.0,0.0,90.0,7.0,0.0
6808,51.0,96.0,90.0,7.0,0.0
6809,66.0,24.0,180.0,7.0,0.0
6810,63.0,120.0,90.0,7.0,0.0
6811,49.0,96.0,90.0,7.0,0.0
6812,64.0,24.0,180.0,7.0,0.0
6813,61.0,120.0,90.0,7.0,0.0
6814,47.0,48.0,90.0,8.0,0.0
6815,63.0,72.0,150.0,7.0,0.0
6816,59.0,120.0,90.0,8.0,0.0
6817,66.0,48.0,390.0,6.0,0.0
6818,63.0,24.0,180.0,7.0,0.0
6819,47.0,96.0,90.0,8.0,0.0
6820,59.0,120.0,90.0,8.0,0.0
6821,61.0,24.0,180.0,7.0,0.0
6822,46.0,48.0,90.0,8.0,0.0
6823,58.0,120.0,90.0,8.0,0.0
6824,59.0,24.0,180.0,7.0,0.0
6825,44.0,96.0,90.0,8.0,0.0
6826,66.0,48.0,630.0,6.0,0.0
6827,56.0,120.0,90.0,8.0,0.0
6828,42.0,96.0,90.0,8.0,0.0
6829,58.0,24.0,180.0,7.0,0.0
6830,54.0,120.0,90.0,8.0,0.0
6831,56.0,24.0,180.0,7.0,0.0
6832,40.0,48.0,90.0,8.0,0.0
6833,52.0,120.0,90.0,8.0,0.0
6834,54.0,24.0,180.0,7.0,0.0
6835,39.0,96.0,90.0,8.0,0.0
6836,51.0,120.0,90.0,8.0,0.0
6837,37.0,96.0,90.0,8.0,0.0
6838,52.0,24.0,180.0,7.0,0.0
6839,49.0,120.0,90.0,8.0,0.0
6840,51.0,72.0,390.0,6.0,0.0
6841,35.0,120.0,90.0,8.0,0.0
6842,47.0,120.0,90.0,8.0,0.0
6843,46.0,48.0,90.0,8.0,0.0
6844,47.0,120.0,90.0,8.0,0.0
6845,32.0,120.0,90.0,8.0,0.0
6846,63.0,0.0,390.0,6.0,0.0
6847,71.0,72.0,390.0,6.0,0.0
6848,44.0,120.0,90.0,8.0,0.0
6849,42.0,48.0,90.0,8.0,0.0
6850,44.0,120.0,90.0,8.0,0.0
6851,28.0,120.0,90.0,8.0,0.0
6852,61.0,72.0,390.0,6.0,0.0
6853,71.0,0.0,390.0,6.0,0.0
6854,40.0,120.0,90.0,8.0,0.0
6855,39.0,48.0,90.0,8.0,0.0
6856,40.0,120.0,90.0,8.0,0.0
6857,61.0,0.0,390.0,6.0,0.0
6858,70.0,72.0,390.0,6.0,0.0
6859,30.0,120.0,90.0,8.0,0.0
6860,42.0,120.0,90.0,8.0,0.0
6861,40.0,48.0,90.0,8.0,0.0
6862,42.0,264.0,90.0,8.0,0.0
6863,35.0,72.0,2700.0,8.0,0.0
6864,47.0,120.0,120.0,7.0,0.0
6865,51.0,120.0,120.0,7.0,0.0
6866,54.0,120.0,120.0,7.0,0.0
6867,59.0,120.0,120.0,7.0,0.0
6868,51.0,120.0,120.0,7.0,0.0
6869,54.0,120.0,120.0,7.0,0.0
6870,59.0,120.0,120.0,7.0,0.0
6871,63.0,120.0,120.0,7.0,0.0
6872,54.0,120.0,120.0,7.0,0.0
6873,59.0,120.0,120.0,7.0,0.0
6874,63.0,120.0,120.0,7.0,0.0
6875,66.0,120.0,120.0,7.0,0.0
6876,59.0,120.0,120.0,7.0,0.0
6877,63.0,120.0,120.0,7.0,0.0
6878,66.0,120.0,120.0,7.0,0.0
6879,71.0,120.0,120.0,7.0,0.0
6880,63.0,120.0,120.0,7.0,0.0
6881,66.0,120.0,120.0,7.0,0.0
6882,71.0,120.0,120.0,7.0,0.0
6883,75.0,120.0,120.0,7.0,0.0
6884,66.0,48.0,120.0,7.0,0.0
6885,71.0,120.0,120.0,7.0,0.0
6886,75.0,120.0,120.0,7.0,0.0
6887,78.0,120.0,120.0,7.0,0.0
6888,47.0,0.0,390.0,8.0,0.0
6889,35.0,96.0,390.0,8.0,0.0
6890,75.0,120.0,120.0,7.0,0.0
6891,71.0,24.0,120.0,7.0,0.0
6892,66.0,120.0,120.0,7.0,0.0
6893,78.0,120.0,120.0,7.0,0.0
6894,33.0,0.0,390.0,8.0,0.0
6895,45.0,96.0,390.0,8.0,0.0
6896,73.0,120.0,120.0,7.0,0.0
6897,69.0,24.0,120.0,7.0,0.0
6898,66.0,240.0,120.0,7.0,0.0
6899,51.0,0.0,3840.0,2.0,0.0
6900,54.0,0.0,3840.0,2.0,0.0
6901,78.0,0.0,3840.0,0.0,0.0
6902,32.0,0.0,390.0,14.0,0.0
6903,44.0,96.0,390.0,13.0,0.0
6904,44.0,0.0,2880.0,8.0,0.0
6905,56.0,0.0,390.0,10.0,0.0
6906,32.0,0.0,2880.0,8.0,0.0
6907,56.0,0.0,390.0,12.0,0.0
6908,56.0,0.0,390.0,11.0,0.0
6909,72.0,0.0,3840.0,1.0,0.0
6910,75.0,0.0,3840.0,1.0,0.0
6911,81.0,120.0,120.0,7.0,0.0
6912,78.0,24.0,120.0,7.0,0.0
6913,81.0,120.0,120.0,7.0,0.0
6914,75.0,120.0,120.0,7.0,0.0
6915,78.0,80.0,120.0,7.0,0.0
6916,27.0,0.0,90.0,14.0,0.0
6917,51.0,0.0,90.0,12.0,0.0
6918,39.0,40.0,90.0,13.0,0.0
6919,51.0,0.0,90.0,10.0,0.0
6920,72.0,40.0,120.0,7.0,0.0
6921,51.0,0.0,90.0,11.0,0.0
6922,53.0,0.0,90.0,10.0,0.0
6923,41.0,80.0,90.0,13.0,0.0
6924,29.0,0.0,90.0,14.0,0.0
6925,53.0,0.0,90.0,12.0,0.0
6926,53.0,0.0,90.0,11.0,0.0
6927,75.0,0.0,120.0,7.0,0.0
6928,55.0,0.0,90.0,10.0,0.0
6929,43.0,120.0,90.0,13.0,0.0
6930,55.0,0.0,90.0,11.0,0.0
6931,31.0,0.0,90.0,14.0,0.0
6932,55.0,0.0,90.0,12.0,0.0
6933,69.0,120.0,120.0,7.0,0.0
6934,44.0,0.0,390.0,13.0,0.0
6935,56.0,0.0,390.0,11.0,0.0
6936,56.0,96.0,390.0,10.0,0.0
6937,32.0,0.0,390.0,14.0,0.0
6938,56.0,0.0,390.0,12.0,0.0
6939,72.0,120.0,120.0,7.0,0.0
6940,66.0,24.0,120.0,7.0,0.0
6941,69.0,120.0,120.0,7.0,0.0
6942,63.0,120.0,120.0,7.0,0.0
6943,66.0,80.0,120.0,7.0,0.0
6944,51.0,0.0,90.0,11.0,0.0
6945,27.0,40.0,90.0,14.0,0.0
6946,51.0,0.0,90.0,12.0,0.0
6947,60.0,40.0,120.0,7.0,0.0
6948,39.0,0.0,90.0,13.0,0.0
6949,51.0,0.0,90.0,10.0,0.0
6950,53.0,0.0,90.0,10.0,0.0
6951,41.0,0.0,90.0,13.0,0.0
6952,53.0,0.0,90.0,12.0,0.0
6953,29.0,80.0,90.0,14.0,0.0
6954,53.0,0.0,90.0,11.0,0.0
6955,63.0,0.0,120.0,7.0,0.0
6956,43.0,0.0,90.0,13.0,0.0
6957,55.0,0.0,90.0,12.0,0.0
6958,55.0,0.0,90.0,11.0,0.0
6959,55.0,0.0,90.0,10.0,0.0
6960,31.0,120.0,90.0,14.0,0.0
6961,56.0,0.0,390.0,10.0,0.0
6962,57.0,120.0,120.0,7.0,0.0
6963,56.0,96.0,390.0,12.0,0.0
6964,56.0,0.0,390.0,11.0,0.0
6965,44.0,0.0,390.0,13.0,0.0
6966,32.0,0.0,390.0,14.0,0.0
6967,60.0,120.0,120.0,7.0,0.0
6968,54.0,24.0,120.0,7.0,0.0
6969,57.0,120.0,120.0,7.0,0.0
6970,51.0,120.0,120.0,7.0,0.0
6971,54.0,80.0,120.0,7.0,0.0
6972,51.0,0.0,90.0,12.0,0.0
6973,27.0,40.0,90.0,14.0,0.0
6974,39.0,0.0,90.0,13.0,0.0
6975,49.0,40.0,120.0,7.0,0.0
6976,51.0,0.0,90.0,11.0,0.0
6977,51.0,0.0,90.0,10.0,0.0
6978,41.0,0.0,90.0,13.0,0.0
6979,53.0,80.0,90.0,12.0,0.0
6980,53.0,0.0,90.0,11.0,0.0
6981,29.0,0.0,90.0,14.0,0.0
6982,53.0,0.0,90.0,10.0,0.0
6983,54.0,120.0,120.0,7.0,0.0
6984,55.0,0.0,90.0,11.0,0.0
6985,31.0,0.0,90.0,14.0,0.0
6986,55.0,0.0,90.0,10.0,0.0
6987,55.0,0.0,90.0,12.0,0.0
6988,43.0,0.0,90.0,13.0,0.0
6989,44.0,0.0,300.0,13.0,0.0
6990,32.0,0.0,300.0,14.0,0.0
6991,56.0,0.0,300.0,10.0,0.0
6992,56.0,0.0,300.0,11.0,0.0
6993,56.0,48.0,300.0,12.0,0.0
6994,48.0,120.0,120.0,7.0,0.0
6995,51.0,72.0,120.0,7.0,0.0
6996,54.0,120.0,120.0,7.0,0.0
6997,57.0,120.0,120.0,7.0,0.0
6998,56.0,0.0,300.0,11.0,0.0
6999,56.0,120.0,120.0,7.0,0.0
7000,44.0,0.0,300.0,13.0,0.0
7001,56.0,48.0,300.0,10.0,0.0
7002,32.0,0.0,300.0,14.0,0.0
7003,56.0,0.0,300.0,12.0,0.0
7004,54.0,72.0,120.0,7.0,0.0
7005,52.0,120.0,120.0,7.0,0.0
7006,51.0,240.0,120.0,7.0,0.0
7007,49.0,0.0,390.0,13.0,0.0
7008,25.0,120.0,2880.0,8.0,0.0
7009,37.0,0.0,2880.0,8.0,0.0
7010,73.0,96.0,390.0,1.0,0.0
7011,61.0,0.0,390.0,12.0,0.0
7012,61.0,0.0,390.0,10.0,0.0
7013,76.0,0.0,390.0,0.0,0.0
7014,61.0,0.0,390.0,11.0,0.0
7015,52.0,0.0,390.0,2.0,0.0
7016,49.0,0.0,390.0,2.0,0.0
7017,37.0,0.0,390.0,14.0,0.0
7018,49.0,120.0,120.0,7.0,0.0
7019,52.0,24.0,120.0,7.0,0.0
7020,56.0,120.0,120.0,7.0,0.0
7021,61.0,120.0,120.0,7.0,0.0
7022,52.0,120.0,120.0,7.0,0.0
7023,56.0,120.0,120.0,7.0,0.0
7024,61.0,120.0,120.0,7.0,0.0
7025,64.0,120.0,120.0,7.0,0.0
7026,56.0,120.0,120.0,7.0,0.0
7027,61.0,120.0,120.0,7.0,0.0
7028,64.0,120.0,120.0,7.0,0.0
7029,68.0,120.0,120.0,7.0,0.0
7030,61.0,120.0,120.0,7.0,0.0
7031,64.0,120.0,120.0,7.0,0.0
7032,68.0,120.0,120.0,7.0,0.0
7033,73.0,120.0,120.0,7.0,0.0
7034,64.0,120.0,120.0,7.0,0.0
7035,68.0,120.0,120.0,7.0,0.0
7036,73.0,120.0,120.0,7.0,0.0
7037,76.0,120.0,120.0,7.0,0.0
7038,68.0,120.0,120.0,7.0,0.0
7039,73.0,120.0,120.0,7.0,0.0
7040,76.0,0.0,120.0,7.0,0.0
7041,80.0,120.0,120.0,7.0,0.0
7042,49.0,96.0,390.0,8.0,0.0
7043,37.0,0.0,390.0,8.0,0.0
7044,76.0,120.0,120.0,7.0,0.0
7045,73.0,24.0,120.0,7.0,0.0
7046,68.0,120.0,120.0,7.0,0.0
7047,80.0,120.0,120.0,7.0,0.0
7048,47.0,0.0,390.0,8.0,0.0
7049,35.0,96.0,390.0,8.0,0.0
7050,75.0,120.0,120.0,7.0,0.0
7051,71.0,24.0,120.0,7.0,0.0
7052,68.0,240.0,120.0,7.0,0.0
7053,58.0,0.0,390.0,10.0,0.0
7054,53.0,0.0,3840.0,2.0,0.0
7055,56.0,0.0,3840.0,2.0,0.0
7056,34.0,0.0,2880.0,8.0,0.0
7057,46.0,0.0,2880.0,8.0,0.0
7058,80.0,0.0,3840.0,0.0,0.0
7059,77.0,0.0,3840.0,1.0,0.0
7060,74.0,0.0,3840.0,1.0,0.0
7061,34.0,0.0,390.0,14.0,0.0
7062,58.0,0.0,390.0,12.0,0.0
7063,46.0,0.0,390.0,13.0,0.0
7064,58.0,96.0,390.0,11.0,0.0
7065,83.0,120.0,120.0,7.0,0.0
7066,80.0,24.0,120.0,7.0,0.0
7067,83.0,120.0,120.0,7.0,0.0
7068,77.0,120.0,120.0,7.0,0.0
7069,80.0,80.0,120.0,7.0,0.0
7070,53.0,0.0,90.0,11.0,0.0
7071,53.0,0.0,90.0,10.0,0.0
7072,74.0,40.0,120.0,7.0,0.0
7073,29.0,40.0,90.0,14.0,0.0
7074,53.0,0.0,90.0,12.0,0.0
7075,41.0,0.0,90.0,13.0,0.0
7076,43.0,0.0,90.0,13.0,0.0
7077,55.0,0.0,90.0,11.0,0.0
7078,55.0,0.0,90.0,10.0,0.0
7079,31.0,0.0,90.0,14.0,0.0
7080,55.0,80.0,90.0,12.0,0.0
7081,77.0,0.0,120.0,7.0,0.0
7082,57.0,0.0,90.0,10.0,0.0
7083,45.0,0.0,90.0,13.0,0.0
7084,57.0,0.0,90.0,12.0,0.0
7085,33.0,120.0,90.0,14.0,0.0
7086,57.0,0.0,90.0,11.0,0.0
7087,46.0,0.0,390.0,13.0,0.0
7088,71.0,120.0,120.0,7.0,0.0
7089,58.0,0.0,390.0,11.0,0.0
7090,58.0,0.0,390.0,12.0,0.0
7091,58.0,0.0,390.0,10.0,0.0
7092,34.0,96.0,390.0,14.0,0.0
7093,74.0,120.0,120.0,7.0,0.0
7094,68.0,24.0,120.0,7.0,0.0
7095,71.0,120.0,120.0,7.0,0.0
7096,65.0,120.0,120.0,7.0,0.0
7097,68.0,80.0,120.0,7.0,0.0
7098,29.0,0.0,90.0,14.0,0.0
7099,62.0,40.0,120.0,7.0,0.0
7100,53.0,0.0,90.0,12.0,0.0
7101,41.0,40.0,90.0,13.0,0.0
7102,53.0,0.0,90.0,11.0,0.0
7103,53.0,0.0,90.0,10.0,0.0
7104,55.0,0.0,90.0,10.0,0.0
7105,31.0,0.0,90.0,14.0,0.0
7106,55.0,80.0,90.0,11.0,0.0
7107,55.0,0.0,90.0,12.0,0.0
7108,43.0,0.0,90.0,13.0,0.0
7109,65.0,0.0,120.0,7.0,0.0
7110,33.0,0.0,90.0,14.0,0.0
7111,57.0,120.0,90.0,12.0,0.0
7112,57.0,0.0,90.0,10.0,0.0
7113,57.0,0.0,90.0,11.0,0.0
7114,45.0,0.0,90.0,13.0,0.0
7115,58.0,0.0,390.0,11.0,0.0
7116,34.0,0.0,390.0,14.0,0.0
7117,59.0,120.0,120.0,7.0,0.0
7118,46.0,96.0,390.0,13.0,0.0
7119,58.0,0.0,390.0,12.0,0.0
7120,58.0,0.0,390.0,10.0,0.0
7121,62.0,120.0,120.0,7.0,0.0
7122,56.0,24.0,120.0,7.0,0.0
7123,59.0,120.0,120.0,7.0,0.0
7124,53.0,120.0,120.0,7.0,0.0
7125,56.0,80.0,120.0,7.0,0.0
7126,53.0,0.0,90.0,12.0,0.0
7127,51.0,40.0,120.0,7.0,0.0
7128,53.0,40.0,90.0,10.0,0.0
7129,29.0,0.0,90.0,14.0,0.0
7130,41.0,0.0,90.0,13.0,0.0
7131,53.0,0.0,90.0,11.0,0.0
7132,43.0,0.0,90.0,13.0,0.0
7133,31.0,0.0,90.0,14.0,0.0
7134,55.0,0.0,90.0,12.0,0.0
7135,55.0,80.0,90.0,11.0,0.0
7136,55.0,0.0,90.0,10.0,0.0
7137,56.0,0.0,120.0,7.0,0.0
7138,57.0,0.0,90.0,10.0,0.0
7139,57.0,0.0,90.0,11.0,0.0
7140,57.0,0.0,90.0,12.0,0.0
7141,45.0,0.0,90.0,13.0,0.0
7142,33.0,120.0,90.0,14.0,0.0
7143,46.0,0.0,300.0,13.0,0.0
7144,50.0,120.0,120.0,7.0,0.0
7145,58.0,48.0,300.0,10.0,0.0
7146,58.0,0.0,300.0,12.0,0.0
7147,34.0,0.0,300.0,14.0,0.0
7148,58.0,0.0,300.0,11.0,0.0
7149,53.0,72.0,120.0,7.0,0.0
7150,56.0,120.0,120.0,7.0,0.0
7151,59.0,120.0,120.0,7.0,0.0
7152,34.0,48.0,300.0,14.0,0.0
7153,58.0,0.0,300.0,11.0,0.0
7154,58.0,0.0,300.0,10.0,0.0
7155,58.0,0.0,300.0,12.0,0.0
7156,46.0,0.0,300.0,13.0,0.0
7157,58.0,120.0,120.0,7.0,0.0
7158,56.0,72.0,120.0,7.0,0.0
7159,54.0,120.0,120.0,7.0,0.0
7160,53.0,240.0,120.0,7.0,0.0
7161,39.0,96.0,390.0,14.0,0.0
7162,63.0,0.0,390.0,10.0,0.0
7163,39.0,0.0,2820.0,8.0,0.0
7164,63.0,0.0,390.0,12.0,0.0
7165,51.0,0.0,390.0,13.0,0.0
7166,78.0,0.0,390.0,0.0,0.0
7167,54.0,0.0,390.0,2.0,0.0
7168,51.0,0.0,390.0,2.0,0.0
7169,75.0,0.0,390.0,1.0,0.0
7170,63.0,0.0,390.0,11.0,0.0
7171,27.0,48.0,2820.0,8.0,0.0
7172,51.0,120.0,120.0,7.0,0.0
7173,54.0,24.0,120.0,7.0,0.0
7174,58.0,120.0,120.0,7.0,0.0
7175,63.0,120.0,120.0,7.0,0.0
7176,54.0,120.0,120.0,7.0,0.0
7177,58.0,120.0,120.0,7.0,0.0
7178,63.0,120.0,120.0,7.0,0.0
7179,66.0,120.0,120.0,7.0,0.0
7180,58.0,120.0,120.0,7.0,0.0
7181,63.0,120.0,120.0,7.0,0.0
7182,66.0,120.0,120.0,7.0,0.0
7183,70.0,120.0,120.0,7.0,0.0
7184,63.0,120.0,120.0,7.0,0.0
7185,66.0,120.0,120.0,7.0,0.0
7186,70.0,120.0,120.0,7.0,0.0
7187,75.0,120.0,120.0,7.0,0.0
7188,66.0,120.0,120.0,7.0,0.0
7189,70.0,120.0,120.0,7.0,0.0
7190,75.0,120.0,120.0,7.0,0.0
7191,78.0,120.0,120.0,7.0,0.0
7192,70.0,120.0,120.0,7.0,0.0
7193,75.0,72.0,120.0,7.0,0.0
7194,78.0,120.0,120.0,7.0,0.0
7195,82.0,120.0,120.0,7.0,0.0
7196,51.0,0.0,390.0,8.0,0.0
7197,39.0,96.0,390.0,8.0,0.0
7198,78.0,120.0,120.0,7.0,0.0
7199,75.0,24.0,120.0,7.0,0.0
7200,70.0,120.0,120.0,7.0,0.0
7201,49.0,96.0,390.0,8.0,0.0
7202,37.0,0.0,390.0,8.0,0.0
7203,82.0,120.0,120.0,7.0,0.0
7204,77.0,120.0,120.0,7.0,0.0
7205,73.0,24.0,120.0,7.0,0.0
7206,70.0,240.0,120.0,7.0,0.0
7207,60.0,0.0,390.0,10.0,0.0
7208,36.0,0.0,2820.0,8.0,0.0
7209,60.0,0.0,390.0,12.0,0.0
7210,48.0,0.0,390.0,13.0,0.0
7211,60.0,0.0,390.0,11.0,0.0
7212,82.0,0.0,3840.0,0.0,0.0
7213,76.0,0.0,3840.0,1.0,0.0
7214,79.0,0.0,3840.0,1.0,0.0
7215,58.0,0.0,3840.0,2.0,0.0
7216,36.0,96.0,390.0,14.0,0.0
7217,55.0,240.0,3840.0,2.0,0.0
7218,48.0,48.0,2820.0,8.0,0.0
7219,85.0,120.0,120.0,7.0,0.0
7220,82.0,24.0,120.0,7.0,0.0
7221,85.0,120.0,120.0,7.0,0.0
7222,79.0,120.0,120.0,7.0,0.0
7223,82.0,80.0,120.0,7.0,0.0
7224,43.0,40.0,90.0,13.0,0.0
7225,55.0,0.0,90.0,12.0,0.0
7226,55.0,0.0,90.0,10.0,0.0
7227,55.0,0.0,90.0,11.0,0.0
7228,31.0,0.0,90.0,14.0,0.0
7229,76.0,40.0,120.0,7.0,0.0
7230,33.0,0.0,90.0,14.0,0.0
7231,57.0,0.0,90.0,10.0,0.0
7232,57.0,0.0,90.0,11.0,0.0
7233,57.0,0.0,90.0,12.0,0.0
7234,45.0,80.0,90.0,13.0,0.0
7235,79.0,0.0,120.0,7.0,0.0
7236,46.0,0.0,90.0,13.0,0.0
7237,34.0,120.0,90.0,14.0,0.0
7238,58.0,0.0,90.0,10.0,0.0
7239,58.0,0.0,90.0,11.0,0.0
7240,58.0,0.0,90.0,12.0,0.0
7241,73.0,120.0,120.0,7.0,0.0
7242,60.0,0.0,390.0,11.0,0.0
7243,60.0,0.0,390.0,10.0,0.0
7244,36.0,0.0,390.0,14.0,0.0
7245,48.0,96.0,390.0,13.0,0.0
7246,60.0,0.0,390.0,12.0,0.0
7247,76.0,120.0,120.0,7.0,0.0
7248,70.0,24.0,120.0,7.0,0.0
7249,73.0,120.0,120.0,7.0,0.0
7250,67.0,120.0,120.0,7.0,0.0
7251,70.0,80.0,120.0,7.0,0.0
7252,43.0,40.0,90.0,13.0,0.0
7253,55.0,0.0,90.0,10.0,0.0
7254,55.0,0.0,90.0,12.0,0.0
7255,55.0,0.0,90.0,11.0,0.0
7256,64.0,40.0,120.0,7.0,0.0
7257,31.0,0.0,90.0,14.0,0.0
7258,57.0,0.0,90.0,12.0,0.0
7259,57.0,80.0,90.0,10.0,0.0
7260,45.0,0.0,90.0,13.0,0.0
7261,57.0,0.0,90.0,11.0,0.0
7262,33.0,0.0,90.0,14.0,0.0
7263,67.0,120.0,120.0,7.0,0.0
7264,58.0,0.0,90.0,12.0,0.0
7265,58.0,0.0,90.0,11.0,0.0
7266,34.0,0.0,90.0,14.0,0.0
7267,46.0,0.0,90.0,13.0,0.0
7268,58.0,0.0,90.0,10.0,0.0
7269,60.0,0.0,390.0,11.0,0.0
7270,61.0,120.0,120.0,7.0,0.0
7271,48.0,0.0,390.0,13.0,0.0
7272,36.0,0.0,390.0,14.0,0.0
7273,60.0,96.0,390.0,12.0,0.0
7274,60.0,0.0,390.0,10.0,0.0
7275,64.0,120.0,120.0,7.0,0.0
7276,58.0,24.0,120.0,7.0,0.0
7277,61.0,120.0,120.0,7.0,0.0
7278,55.0,120.0,120.0,7.0,0.0
7279,58.0,80.0,120.0,7.0,0.0
7280,31.0,0.0,90.0,14.0,0.0
7281,55.0,0.0,90.0,10.0,0.0
7282,43.0,40.0,90.0,13.0,0.0
7283,55.0,0.0,90.0,12.0,0.0
7284,53.0,40.0,120.0,7.0,0.0
7285,55.0,0.0,90.0,11.0,0.0
7286,33.0,0.0,90.0,14.0,0.0
7287,57.0,0.0,90.0,10.0,0.0
7288,57.0,32.0,90.0,12.0,0.0
7289,45.0,0.0,90.0,13.0,0.0
7290,57.0,0.0,90.0,11.0,0.0
7291,58.0,0.0,120.0,7.0,0.0
7292,58.0,0.0,90.0,11.0,0.0
7293,34.0,0.0,90.0,14.0,0.0
7294,58.0,120.0,90.0,12.0,0.0
7295,46.0,0.0,90.0,13.0,0.0
7296,58.0,0.0,90.0,10.0,0.0
7297,48.0,48.0,300.0,13.0,0.0
7298,36.0,0.0,300.0,14.0,0.0
7299,60.0,0.0,300.0,12.0,0.0
7300,60.0,0.0,300.0,11.0,0.0
7301,52.0,120.0,120.0,7.0,0.0
7302,60.0,0.0,300.0,10.0,0.0
7303,55.0,72.0,120.0,7.0,0.0
7304,58.0,120.0,120.0,7.0,0.0
7305,61.0,120.0,120.0,7.0,0.0
7306,48.0,0.0,300.0,13.0,0.0
7307,60.0,120.0,120.0,7.0,0.0
7308,60.0,0.0,300.0,10.0,0.0
7309,36.0,0.0,300.0,14.0,0.0
7310,60.0,0.0,300.0,12.0,0.0
7311,60.0,48.0,300.0,11.0,0.0
7312,58.0,72.0,120.0,7.0,0.0
7313,57.0,120.0,120.0,7.0,0.0
7314,58.0,0.0,120.0,7.0,0.0
7315,77.0,0.0,390.0,1.0,0.0
7316,53.0,0.0,7590.0,3.0,0.0
7317,41.0,96.0,7590.0,3.0,0.0
7318,41.0,0.0,390.0,13.0,0.0
7319,53.0,0.0,390.0,12.0,0.0
7320,53.0,0.0,390.0,11.0,0.0
7321,53.0,0.0,390.0,10.0,0.0
7322,29.0,96.0,390.0,14.0,0.0
7323,57.0,0.0,390.0,7.0,0.0
7324,81.0,0.0,390.0,0.0,0.0
7325,53.0,0.0,390.0,2.0,0.0
7326,57.0,0.0,390.0,2.0,0.0
7327,29.0,120.0,120.0,8.0,0.0
7328,33.0,24.0,120.0,8.0,0.0
7329,36.0,120.0,120.0,8.0,0.0
7330,41.0,120.0,120.0,8.0,0.0
7331,33.0,120.0,120.0,8.0,0.0
7332,36.0,120.0,120.0,8.0,0.0
7333,41.0,120.0,120.0,8.0,0.0
7334,45.0,120.0,120.0,8.0,0.0
7335,36.0,120.0,120.0,8.0,0.0
7336,41.0,120.0,120.0,8.0,0.0
7337,45.0,120.0,120.0,8.0,0.0
7338,48.0,120.0,120.0,8.0,0.0
7339,41.0,120.0,120.0,8.0,0.0
7340,45.0,120.0,120.0,8.0,0.0
7341,48.0,240.0,120.0,8.0,0.0
7342,53.0,96.0,390.0,8.0,0.0
7343,69.0,240.0,1920.0,1.0,0.0
7344,72.0,0.0,1920.0,1.0,0.0
7345,60.0,0.0,1920.0,2.0,0.0
7346,63.0,0.0,1920.0,2.0,0.0
7347,65.0,120.0,120.0,7.0,0.0
7348,67.0,24.0,120.0,7.0,0.0
7349,69.0,120.0,120.0,7.0,0.0
7350,70.0,120.0,120.0,7.0,0.0
7351,72.0,120.0,120.0,7.0,0.0
7352,73.0,120.0,120.0,7.0,0.0
7353,75.0,120.0,120.0,7.0,0.0
7354,77.0,120.0,120.0,7.0,0.0
7355,79.0,120.0,120.0,7.0,0.0
7356,81.0,120.0,120.0,7.0,0.0
7357,82.0,144.0,120.0,7.0,0.0
7358,84.0,240.0,150.0,7.0,0.0
7359,75.0,96.0,150.0,7.0,0.0
7360,58.0,0.0,390.0,2.0,0.0
7361,70.0,0.0,390.0,1.0,0.0
7362,73.0,0.0,390.0,7.0,0.0
7363,70.0,0.0,390.0,7.0,0.0
7364,65.0,0.0,390.0,7.0,0.0
7365,61.0,0.0,390.0,2.0,0.0
7366,73.0,96.0,390.0,1.0,0.0
7367,29.0,120.0,120.0,8.0,0.0
7368,34.0,24.0,120.0,8.0,0.0
7369,37.0,120.0,120.0,8.0,0.0
7370,41.0,120.0,120.0,8.0,0.0
7371,34.0,120.0,120.0,8.0,0.0
7372,37.0,120.0,120.0,8.0,0.0
7373,41.0,120.0,120.0,8.0,0.0
7374,46.0,120.0,120.0,8.0,0.0
7375,37.0,120.0,120.0,8.0,0.0
7376,41.0,120.0,120.0,8.0,0.0
7377,46.0,120.0,120.0,8.0,0.0
7378,49.0,120.0,120.0,8.0,0.0
7379,41.0,120.0,120.0,8.0,0.0
7380,46.0,120.0,120.0,8.0,0.0
7381,49.0,240.0,120.0,8.0,0.0
7382,73.0,0.0,2310.0,1.0,0.0
7383,77.0,240.0,1920.0,1.0,0.0
7384,58.0,0.0,2310.0,2.0,0.0
7385,53.0,96.0,390.0,8.0,0.0
7386,61.0,96.0,2310.0,2.0,0.0
7387,65.0,120.0,120.0,7.0,0.0
7388,67.0,24.0,120.0,7.0,0.0
7389,69.0,120.0,120.0,7.0,0.0
7390,70.0,120.0,120.0,7.0,0.0
7391,72.0,120.0,120.0,7.0,0.0
7392,73.0,120.0,120.0,7.0,0.0
7393,75.0,120.0,120.0,7.0,0.0
7394,77.0,120.0,120.0,7.0,0.0
7395,81.0,120.0,120.0,7.0,0.0
7396,82.0,120.0,120.0,7.0,0.0
7397,84.0,144.0,120.0,7.0,0.0
7398,85.0,240.0,150.0,7.0,0.0
7399,77.0,0.0,150.0,7.0,0.0
7400,76.0,0.0,390.0,1.0,0.0
7401,46.0,96.0,3750.0,3.0,0.0
7402,58.0,0.0,3750.0,3.0,0.0
7403,70.0,0.0,390.0,7.0,0.0
7404,73.0,0.0,390.0,7.0,0.0
7405,76.0,0.0,390.0,7.0,0.0
7406,30.0,120.0,120.0,8.0,0.0
7407,34.0,24.0,120.0,8.0,0.0
7408,37.0,120.0,120.0,8.0,0.0
7409,42.0,120.0,120.0,8.0,0.0
7410,34.0,120.0,120.0,8.0,0.0
7411,37.0,120.0,120.0,8.0,0.0
7412,42.0,120.0,120.0,8.0,0.0
7413,46.0,120.0,120.0,8.0,0.0
7414,37.0,120.0,120.0,8.0,0.0
7415,42.0,120.0,120.0,8.0,0.0
7416,46.0,120.0,120.0,8.0,0.0
7417,49.0,120.0,120.0,8.0,0.0
7418,42.0,120.0,120.0,8.0,0.0
7419,46.0,120.0,120.0,8.0,0.0
7420,49.0,240.0,120.0,8.0,0.0
7421,54.0,96.0,390.0,8.0,0.0
7422,54.0,0.0,1830.0,2.0,0.0
7423,70.0,0.0,1830.0,1.0,0.0
7424,75.0,0.0,1830.0,1.0,0.0
7425,58.0,0.0,1830.0,2.0,0.0
7426,81.0,120.0,120.0,7.0,0.0
7427,84.0,24.0,120.0,7.0,0.0
7428,82.0,120.0,120.0,7.0,0.0
7429,81.0,120.0,120.0,7.0,0.0
7430,82.0,120.0,120.0,7.0,0.0
7431,80.0,120.0,120.0,7.0,0.0
7432,82.0,120.0,120.0,7.0,0.0
7433,79.0,120.0,120.0,7.0,0.0
7434,82.0,120.0,120.0,7.0,0.0
7435,78.0,120.0,120.0,7.0,0.0
7436,82.0,120.0,120.0,7.0,0.0
7437,77.0,120.0,120.0,7.0,0.0
7438,82.0,120.0,120.0,7.0,0.0
7439,76.0,24.0,120.0,7.0,0.0
7440,82.0,120.0,120.0,7.0,0.0
7441,48.0,0.0,390.0,8.0,0.0
7442,41.0,96.0,390.0,8.0,0.0
7443,53.0,0.0,390.0,8.0,0.0
7444,45.0,0.0,390.0,8.0,0.0
7445,69.0,0.0,960.0,1.0,0.0
7446,41.0,0.0,3750.0,3.0,0.0
7447,81.0,120.0,120.0,7.0,0.0
7448,77.0,0.0,960.0,1.0,0.0
7449,53.0,0.0,960.0,2.0,0.0
7450,60.0,0.0,960.0,2.0,0.0
7451,53.0,48.0,3750.0,3.0,0.0
7452,77.0,120.0,120.0,7.0,0.0
7453,84.0,24.0,120.0,7.0,0.0
7454,81.0,120.0,120.0,7.0,0.0
7455,77.0,120.0,120.0,7.0,0.0
7456,72.0,120.0,120.0,7.0,0.0
7457,69.0,120.0,120.0,7.0,0.0
7458,65.0,120.0,120.0,7.0,0.0
7459,41.0,0.0,390.0,8.0,0.0
7460,46.0,0.0,390.0,8.0,0.0
7461,58.0,0.0,930.0,2.0,0.0
7462,49.0,0.0,930.0,2.0,0.0
7463,53.0,96.0,390.0,8.0,0.0
7464,73.0,20.0,930.0,1.0,0.0
7465,70.0,0.0,930.0,1.0,0.0
7466,73.0,120.0,120.0,7.0,0.0
7467,49.0,0.0,390.0,8.0,0.0
7468,70.0,120.0,120.0,7.0,0.0
7469,77.0,24.0,120.0,7.0,0.0
7470,73.0,120.0,120.0,7.0,0.0
7471,70.0,120.0,120.0,7.0,0.0
7472,65.0,120.0,120.0,7.0,0.0
7473,61.0,100.0,120.0,7.0,0.0
7474,58.0,120.0,120.0,7.0,0.0
7475,48.0,120.0,960.0,2.0,0.0
7476,57.0,0.0,960.0,2.0,0.0
7477,33.0,96.0,390.0,8.0,0.0
7478,29.0,0.0,390.0,8.0,0.0
7479,41.0,0.0,390.0,8.0,0.0
7480,36.0,0.0,390.0,8.0,0.0
7481,72.0,0.0,960.0,1.0,0.0
7482,69.0,0.0,960.0,1.0,0.0
7483,69.0,120.0,120.0,7.0,0.0
7484,65.0,120.0,120.0,7.0,0.0
7485,72.0,24.0,120.0,7.0,0.0
7486,69.0,120.0,120.0,7.0,0.0
7487,65.0,120.0,120.0,7.0,0.0
7488,60.0,120.0,120.0,7.0,0.0
7489,57.0,120.0,120.0,7.0,0.0
7490,53.0,0.0,120.0,7.0,0.0
7491,29.0,0.0,390.0,8.0,0.0
7492,41.0,0.0,390.0,8.0,0.0
7493,34.0,96.0,390.0,8.0,0.0
7494,61.0,120.0,120.0,7.0,0.0
7495,37.0,0.0,390.0,8.0,0.0
7496,58.0,48.0,900.0,2.0,0.0
7497,73.0,0.0,900.0,1.0,0.0
7498,70.0,0.0,900.0,1.0,0.0
7499,61.0,0.0,900.0,2.0,0.0
7500,58.0,120.0,120.0,7.0,0.0
7501,65.0,24.0,120.0,7.0,0.0
7502,61.0,120.0,120.0,7.0,0.0
7503,58.0,120.0,120.0,7.0,0.0
7504,53.0,120.0,120.0,7.0,0.0
7505,49.0,24.0,120.0,7.0,0.0
7506,46.0,120.0,120.0,7.0,0.0
7507,41.0,0.0,390.0,3.0,0.0
7508,69.0,0.0,390.0,1.0,0.0
7509,53.0,0.0,690.0,6.0,0.0
7510,53.0,0.0,390.0,3.0,0.0
7511,72.0,96.0,390.0,1.0,0.0
7512,45.0,36.0,690.0,6.0,0.0
7513,57.0,0.0,390.0,2.0,0.0
7514,60.0,0.0,390.0,2.0,0.0
7515,29.0,120.0,120.0,8.0,0.0
7516,41.0,120.0,120.0,8.0,0.0
7517,29.0,24.0,120.0,8.0,0.0
7518,41.0,120.0,120.0,8.0,0.0
7519,29.0,84.0,120.0,8.0,0.0
7520,41.0,120.0,120.0,8.0,0.0
7521,46.0,0.0,240.0,6.0,0.0
7522,30.0,108.0,120.0,8.0,0.0
7523,52.0,12.0,240.0,6.0,0.0
7524,42.0,120.0,120.0,8.0,0.0
7525,29.0,108.0,120.0,8.0,0.0
7526,45.0,0.0,240.0,6.0,0.0
7527,53.0,12.0,240.0,6.0,0.0
7528,41.0,120.0,120.0,8.0,0.0
7529,52.0,12.0,240.0,6.0,0.0
7530,30.0,108.0,120.0,8.0,0.0
7531,46.0,0.0,240.0,6.0,0.0
7532,42.0,120.0,120.0,8.0,0.0
7533,45.0,12.0,240.0,6.0,0.0
7534,29.0,108.0,120.0,8.0,0.0
7535,53.0,0.0,240.0,6.0,0.0
7536,41.0,120.0,120.0,8.0,0.0
7537,52.0,12.0,240.0,6.0,0.0
7538,46.0,0.0,240.0,6.0,0.0
7539,30.0,108.0,120.0,8.0,0.0
7540,42.0,120.0,120.0,8.0,0.0
7541,45.0,36.0,690.0,6.0,0.0
7542,29.0,120.0,120.0,8.0,0.0
7543,53.0,0.0,690.0,6.0,0.0
7544,41.0,120.0,120.0,8.0,0.0
7545,29.0,120.0,120.0,8.0,0.0
7546,41.0,120.0,120.0,8.0,0.0
7547,29.0,84.0,120.0,8.0,0.0
7548,41.0,120.0,120.0,8.0,0.0
7549,30.0,108.0,120.0,8.0,0.0
7550,52.0,12.0,240.0,6.0,0.0
7551,46.0,0.0,240.0,6.0,0.0
7552,42.0,120.0,120.0,8.0,0.0
7553,45.0,12.0,240.0,6.0,0.0
7554,29.0,108.0,120.0,8.0,0.0
7555,53.0,0.0,240.0,6.0,0.0
7556,41.0,120.0,120.0,8.0,0.0
7557,30.0,108.0,120.0,8.0,0.0
7558,46.0,0.0,240.0,6.0,0.0
7559,52.0,12.0,240.0,6.0,0.0
7560,42.0,120.0,120.0,8.0,0.0
7561,45.0,12.0,240.0,6.0,0.0
7562,53.0,0.0,240.0,6.0,0.0
7563,29.0,108.0,120.0,8.0,0.0
7564,41.0,120.0,120.0,8.0,0.0
7565,52.0,12.0,240.0,6.0,0.0
7566,46.0,0.0,240.0,6.0,0.0
7567,30.0,108.0,120.0,8.0,0.0
7568,42.0,384.0,120.0,8.0,0.0
7569,29.0,576.0,390.0,8.0,0.0
7570,45.0,0.0,390.0,6.0,0.0
7571,53.0,0.0,390.0,6.0,0.0
7572,41.0,0.0,390.0,8.0,0.0
7573,50.0,0.0,240.0,6.0,0.0
7574,38.0,384.0,240.0,8.0,0.0
7575,51.0,576.0,390.0,6.0,0.0
7576,39.0,0.0,390.0,8.0,0.0
7577,40.0,384.0,240.0,8.0,0.0
7578,52.0,0.0,240.0,6.0,0.0
7579,41.0,0.0,390.0,8.0,0.0
7580,53.0,564.0,390.0,6.0,0.0
7581,41.0,240.0,240.0,8.0,0.0
7582,53.0,0.0,240.0,6.0,0.0
7583,29.0,0.0,240.0,8.0,0.0
7584,30.0,0.0,240.0,8.0,0.0
7585,42.0,240.0,240.0,8.0,0.0
7586,54.0,0.0,240.0,6.0,0.0
7587,43.0,0.0,240.0,8.0,0.0
7588,31.0,0.0,240.0,8.0,0.0
7589,55.0,240.0,240.0,6.0,0.0
7590,56.0,240.0,240.0,6.0,0.0
7591,44.0,0.0,240.0,8.0,0.0
7592,32.0,0.0,240.0,8.0,0.0
7593,33.0,204.0,240.0,8.0,0.0
7594,57.0,0.0,240.0,6.0,0.0
7595,45.0,0.0,240.0,8.0,0.0
7596,34.0,336.0,780.0,14.0,0.0
7597,58.0,0.0,180.0,10.0,0.0
7598,34.0,0.0,390.0,8.0,0.0
7599,46.0,240.0,390.0,8.0,0.0
7600,49.0,192.0,180.0,12.0,0.0
7601,53.0,0.0,180.0,11.0,0.0
7602,58.0,0.0,390.0,6.0,0.0
7603,46.0,0.0,780.0,13.0,0.0
7604,53.0,0.0,390.0,11.0,0.0
7605,49.0,144.0,390.0,12.0,0.0
7606,58.0,0.0,390.0,10.0,0.0
7607,53.0,0.0,390.0,11.0,0.0
7608,58.0,0.0,390.0,10.0,0.0
7609,49.0,480.0,390.0,12.0,0.0
7610,58.0,0.0,390.0,10.0,0.0
7611,53.0,0.0,390.0,11.0,0.0
7612,49.0,176.0,390.0,12.0,0.0
7613,49.0,432.0,420.0,12.0,0.0
7614,58.0,0.0,420.0,10.0,0.0
7615,53.0,0.0,420.0,11.0,0.0
7616,41.0,0.0,90.0,13.0,0.0
7617,29.0,80.0,90.0,14.0,0.0
7618,43.0,0.0,90.0,13.0,0.0
7619,31.0,80.0,90.0,14.0,0.0
7620,45.0,192.0,90.0,13.0,0.0
7621,33.0,0.0,90.0,14.0,0.0
7622,34.0,336.0,780.0,14.0,0.0
7623,46.0,0.0,780.0,13.0,0.0
7624,58.0,144.0,390.0,10.0,0.0
7625,53.0,0.0,390.0,11.0,0.0
7626,49.0,0.0,390.0,12.0,0.0
7627,49.0,0.0,390.0,12.0,0.0
7628,53.0,480.0,390.0,11.0,0.0
7629,58.0,0.0,390.0,10.0,0.0
7630,49.0,0.0,390.0,12.0,0.0
7631,53.0,176.0,390.0,11.0,0.0
7632,58.0,0.0,390.0,10.0,0.0
7633,49.0,0.0,420.0,12.0,0.0
7634,58.0,432.0,420.0,10.0,0.0
7635,29.0,0.0,90.0,14.0,0.0
7636,41.0,80.0,90.0,13.0,0.0
7637,53.0,0.0,420.0,11.0,0.0
7638,43.0,80.0,90.0,13.0,0.0
7639,31.0,0.0,90.0,14.0,0.0
7640,33.0,192.0,90.0,14.0,0.0
7641,45.0,0.0,90.0,13.0,0.0
7642,34.0,0.0,780.0,14.0,0.0
7643,46.0,336.0,780.0,13.0,0.0
7644,53.0,0.0,390.0,10.0,0.0
7645,53.0,144.0,390.0,11.0,0.0
7646,49.0,0.0,390.0,12.0,0.0
7647,53.0,480.0,390.0,11.0,0.0
7648,61.0,0.0,390.0,10.0,0.0
7649,46.0,0.0,390.0,12.0,0.0
7650,60.0,0.0,390.0,10.0,0.0
7651,48.0,0.0,390.0,12.0,0.0
7652,53.0,156.0,390.0,11.0,0.0
7653,58.0,0.0,420.0,10.0,0.0
7654,41.0,60.0,60.0,13.0,0.0
7655,29.0,0.0,60.0,14.0,0.0
7656,53.0,0.0,420.0,11.0,0.0
7657,49.0,192.0,240.0,12.0,0.0
7658,31.0,60.0,60.0,14.0,0.0
7659,43.0,0.0,60.0,13.0,0.0
7660,33.0,60.0,60.0,14.0,0.0
7661,45.0,0.0,60.0,13.0,0.0
7662,46.0,0.0,60.0,13.0,0.0
7663,34.0,0.0,60.0,14.0,0.0
7664,48.0,0.0,780.0,13.0,0.0
7665,36.0,336.0,780.0,14.0,0.0
7666,51.0,432.0,180.0,12.0,0.0
7667,53.0,0.0,390.0,11.0,0.0
7668,57.0,144.0,390.0,10.0,0.0
7669,51.0,0.0,390.0,12.0,0.0
7670,51.0,0.0,390.0,12.0,0.0
7671,57.0,480.0,390.0,10.0,0.0
7672,53.0,0.0,390.0,11.0,0.0
7673,53.0,0.0,390.0,11.0,0.0
7674,51.0,0.0,390.0,12.0,0.0
7675,57.0,528.0,390.0,10.0,0.0
7676,53.0,432.0,420.0,11.0,0.0
7677,59.0,0.0,420.0,10.0,0.0
7678,51.0,0.0,420.0,12.0,0.0
7679,33.0,336.0,780.0,14.0,0.0
7680,45.0,0.0,780.0,13.0,0.0
7681,51.0,0.0,390.0,12.0,0.0
7682,53.0,0.0,390.0,11.0,0.0
7683,60.0,144.0,390.0,10.0,0.0
7684,60.0,0.0,390.0,10.0,0.0
7685,51.0,480.0,390.0,12.0,0.0
7686,53.0,0.0,390.0,11.0,0.0
7687,60.0,216.0,390.0,10.0,0.0
7688,53.0,0.0,390.0,11.0,0.0
7689,51.0,0.0,390.0,12.0,0.0
7690,60.0,0.0,420.0,10.0,0.0
7691,29.0,0.0,120.0,14.0,0.0
7692,41.0,120.0,120.0,13.0,0.0
7693,51.0,0.0,420.0,12.0,0.0
7694,53.0,432.0,420.0,11.0,0.0
7695,43.0,0.0,120.0,13.0,0.0
7696,31.0,192.0,120.0,14.0,0.0
7697,33.0,0.0,780.0,14.0,0.0
7698,45.0,336.0,780.0,13.0,0.0
7699,60.0,0.0,390.0,10.0,0.0
7700,51.0,144.0,390.0,12.0,0.0
7701,53.0,0.0,390.0,11.0,0.0
7702,53.0,0.0,390.0,11.0,0.0
7703,60.0,480.0,390.0,10.0,0.0
7704,51.0,0.0,390.0,12.0,0.0
7705,53.0,0.0,390.0,11.0,0.0
7706,51.0,0.0,390.0,12.0,0.0
7707,60.0,216.0,390.0,10.0,0.0
7708,53.0,432.0,420.0,11.0,0.0
7709,60.0,0.0,420.0,10.0,0.0
7710,29.0,120.0,120.0,14.0,0.0
7711,51.0,0.0,420.0,12.0,0.0
7712,41.0,0.0,120.0,13.0,0.0
7713,43.0,0.0,120.0,13.0,0.0
7714,31.0,192.0,120.0,14.0,0.0
7715,33.0,336.0,780.0,14.0,0.0
7716,45.0,0.0,780.0,13.0,0.0
7717,51.0,0.0,390.0,12.0,0.0
7718,53.0,0.0,390.0,11.0,0.0
7719,53.0,144.0,390.0,10.0,0.0
7720,53.0,480.0,390.0,11.0,0.0
7721,48.0,0.0,390.0,12.0,0.0
7722,63.0,0.0,390.0,10.0,0.0
7723,61.0,0.0,390.0,10.0,0.0
7724,53.0,176.0,390.0,11.0,0.0
7725,49.0,0.0,390.0,12.0,0.0
7726,53.0,432.0,420.0,11.0,0.0
7727,41.0,0.0,90.0,13.0,0.0
7728,51.0,192.0,240.0,12.0,0.0
7729,60.0,0.0,420.0,10.0,0.0
7730,29.0,80.0,90.0,14.0,0.0
7731,31.0,0.0,90.0,14.0,0.0
7732,43.0,80.0,90.0,13.0,0.0
7733,45.0,0.0,90.0,13.0,0.0
7734,33.0,0.0,90.0,14.0,0.0
7735,46.0,336.0,780.0,13.0,0.0
7736,34.0,0.0,780.0,14.0,0.0
7737,49.0,0.0,180.0,12.0,0.0
7738,49.0,144.0,390.0,12.0,0.0
7739,53.0,0.0,390.0,11.0,0.0
7740,58.0,0.0,390.0,10.0,0.0
7741,53.0,0.0,390.0,11.0,0.0
7742,58.0,0.0,390.0,10.0,0.0
7743,49.0,456.0,390.0,12.0,0.0
7744,46.0,120.0,3840.0,3.0,0.0
7745,58.0,0.0,3840.0,3.0,0.0
7746,58.0,0.0,390.0,10.0,0.0
7747,49.0,0.0,390.0,12.0,0.0
7748,58.0,96.0,390.0,11.0,0.0
7749,58.0,24.0,120.0,6.0,0.0
7750,70.0,80.0,120.0,6.0,0.0
7751,46.0,0.0,90.0,8.0,0.0
7752,58.0,40.0,120.0,6.0,0.0
7753,46.0,40.0,90.0,13.0,0.0
7754,53.0,0.0,240.0,12.0,0.0
7755,58.0,0.0,420.0,11.0,0.0
7756,58.0,0.0,240.0,10.0,0.0
7757,48.0,0.0,90.0,13.0,0.0
7758,48.0,80.0,90.0,8.0,0.0
7759,70.0,0.0,120.0,6.0,0.0
7760,49.0,0.0,90.0,13.0,0.0
7761,49.0,120.0,90.0,8.0,0.0
7762,59.0,24.0,120.0,6.0,0.0
7763,54.0,48.0,180.0,12.0,0.0
7764,59.0,48.0,150.0,10.0,0.0
7765,51.0,96.0,390.0,13.0,0.0
7766,51.0,0.0,390.0,8.0,0.0
7767,71.0,120.0,120.0,6.0,0.0
7768,58.0,0.0,390.0,11.0,0.0
7769,59.0,0.0,150.0,10.0,0.0
7770,59.0,24.0,120.0,6.0,0.0
7771,54.0,96.0,390.0,12.0,0.0
7772,71.0,120.0,120.0,6.0,0.0
7773,60.0,24.0,120.0,6.0,0.0
7774,72.0,80.0,120.0,6.0,0.0
7775,60.0,40.0,120.0,6.0,0.0
7776,58.0,0.0,390.0,11.0,0.0
7777,54.0,0.0,240.0,12.0,0.0
7778,48.0,0.0,90.0,8.0,0.0
7779,48.0,40.0,90.0,13.0,0.0
7780,60.0,0.0,240.0,10.0,0.0
7781,49.0,80.0,90.0,13.0,0.0
7782,49.0,0.0,90.0,8.0,0.0
7783,72.0,0.0,120.0,6.0,0.0
7784,51.0,0.0,90.0,13.0,0.0
7785,51.0,120.0,90.0,8.0,0.0
7786,53.0,96.0,390.0,13.0,0.0
7787,61.0,24.0,120.0,6.0,0.0
7788,53.0,0.0,390.0,8.0,0.0
7789,61.0,48.0,150.0,10.0,0.0
7790,56.0,48.0,180.0,12.0,0.0
7791,73.0,120.0,120.0,6.0,0.0
7792,61.0,0.0,150.0,10.0,0.0
7793,56.0,96.0,390.0,12.0,0.0
7794,58.0,0.0,390.0,11.0,0.0
7795,61.0,24.0,120.0,6.0,0.0
7796,73.0,120.0,120.0,6.0,0.0
7797,62.0,24.0,120.0,6.0,0.0
7798,74.0,80.0,120.0,6.0,0.0
7799,56.0,120.0,240.0,12.0,0.0
7800,58.0,72.0,1020.0,11.0,0.0
7801,50.0,0.0,90.0,13.0,0.0
7802,62.0,0.0,240.0,10.0,0.0
7803,50.0,40.0,90.0,8.0,0.0
7804,62.0,40.0,120.0,6.0,0.0
7805,51.0,0.0,90.0,13.0,0.0
7806,51.0,80.0,90.0,8.0,0.0
7807,74.0,0.0,120.0,6.0,0.0
7808,53.0,0.0,90.0,13.0,0.0
7809,53.0,0.0,90.0,8.0,0.0
7810,63.0,24.0,120.0,6.0,0.0
7811,54.0,0.0,780.0,12.0,0.0
7812,54.0,0.0,780.0,8.0,0.0
7813,63.0,96.0,150.0,10.0,0.0
7814,54.0,0.0,780.0,13.0,0.0
7815,75.0,120.0,120.0,6.0,0.0
7816,63.0,96.0,150.0,10.0,0.0
7817,63.0,24.0,120.0,6.0,0.0
7818,75.0,120.0,120.0,6.0,0.0
7819,66.0,24.0,120.0,6.0,0.0
7820,66.0,96.0,150.0,10.0,0.0
7821,78.0,48.0,120.0,6.0,0.0
7822,66.0,24.0,120.0,6.0,0.0
7823,66.0,96.0,150.0,10.0,0.0
7824,78.0,0.0,120.0,6.0,0.0
7825,70.0,96.0,150.0,10.0,0.0
7826,70.0,24.0,120.0,6.0,0.0
7827,82.0,120.0,120.0,6.0,0.0
7828,70.0,96.0,150.0,10.0,0.0
7829,70.0,24.0,120.0,6.0,0.0
7830,82.0,120.0,120.0,6.0,0.0
7831,60.0,120.0,120.0,6.0,0.0
7832,72.0,80.0,120.0,6.0,0.0
7833,48.0,40.0,90.0,13.0,0.0
7834,60.0,40.0,120.0,6.0,0.0
7835,60.0,0.0,240.0,10.0,0.0
7836,48.0,0.0,90.0,8.0,0.0
7837,49.0,80.0,90.0,8.0,0.0
7838,49.0,0.0,90.0,13.0,0.0
7839,72.0,120.0,120.0,6.0,0.0
7840,51.0,0.0,90.0,13.0,0.0
7841,51.0,0.0,90.0,8.0,0.0
7842,53.0,0.0,390.0,13.0,0.0
7843,60.0,120.0,2880.0,2.0,0.0
7844,60.0,48.0,180.0,11.0,0.0
7845,48.0,0.0,2880.0,2.0,0.0
7846,61.0,48.0,150.0,10.0,0.0
7847,56.0,0.0,180.0,12.0,0.0
7848,53.0,96.0,390.0,8.0,0.0
7849,61.0,24.0,120.0,6.0,0.0
7850,73.0,120.0,120.0,6.0,0.0
7851,60.0,96.0,390.0,11.0,0.0
7852,56.0,0.0,390.0,12.0,0.0
7853,61.0,0.0,150.0,10.0,0.0
7854,61.0,24.0,120.0,6.0,0.0
7855,73.0,120.0,120.0,6.0,0.0
7856,62.0,24.0,120.0,6.0,0.0
7857,74.0,80.0,120.0,6.0,0.0
7858,56.0,0.0,240.0,12.0,0.0
7859,50.0,0.0,90.0,8.0,0.0
7860,62.0,0.0,240.0,10.0,0.0
7861,60.0,0.0,390.0,11.0,0.0
7862,50.0,40.0,90.0,13.0,0.0
7863,62.0,40.0,120.0,6.0,0.0
7864,51.0,80.0,90.0,8.0,0.0
7865,51.0,0.0,90.0,13.0,0.0
7866,74.0,120.0,120.0,6.0,0.0
7867,53.0,0.0,90.0,8.0,0.0
7868,53.0,0.0,90.0,13.0,0.0
7869,54.0,0.0,390.0,8.0,0.0
7870,54.0,96.0,390.0,13.0,0.0
7871,63.0,48.0,150.0,10.0,0.0
7872,58.0,48.0,180.0,12.0,0.0
7873,63.0,24.0,120.0,6.0,0.0
7874,75.0,120.0,120.0,6.0,0.0
7875,63.0,24.0,120.0,6.0,0.0
7876,63.0,0.0,150.0,10.0,0.0
7877,58.0,96.0,390.0,12.0,0.0
7878,60.0,0.0,390.0,11.0,0.0
7879,75.0,120.0,120.0,6.0,0.0
7880,64.0,24.0,120.0,6.0,0.0
7881,76.0,80.0,120.0,6.0,0.0
7882,64.0,40.0,120.0,6.0,0.0
7883,60.0,72.0,1020.0,11.0,0.0
7884,64.0,0.0,240.0,10.0,0.0
7885,58.0,0.0,240.0,12.0,0.0
7886,52.0,40.0,90.0,8.0,0.0
7887,52.0,0.0,90.0,13.0,0.0
7888,53.0,80.0,90.0,8.0,0.0
7889,53.0,0.0,90.0,13.0,0.0
7890,76.0,120.0,120.0,6.0,0.0
7891,55.0,0.0,90.0,8.0,0.0
7892,55.0,0.0,90.0,13.0,0.0
7893,65.0,96.0,150.0,10.0,0.0
7894,56.0,0.0,780.0,12.0,0.0
7895,56.0,0.0,780.0,13.0,0.0
7896,56.0,0.0,780.0,8.0,0.0
7897,65.0,24.0,120.0,6.0,0.0
7898,77.0,120.0,120.0,6.0,0.0
7899,65.0,24.0,120.0,6.0,0.0
7900,65.0,96.0,150.0,10.0,0.0
7901,77.0,120.0,120.0,6.0,0.0
7902,68.0,96.0,150.0,10.0,0.0
7903,68.0,24.0,120.0,6.0,0.0
7904,80.0,48.0,120.0,6.0,0.0
7905,68.0,96.0,150.0,10.0,0.0
7906,68.0,24.0,120.0,6.0,0.0
7907,80.0,0.0,120.0,6.0,0.0
7908,72.0,24.0,120.0,6.0,0.0
7909,72.0,96.0,150.0,10.0,0.0
7910,65.0,96.0,3360.0,1.0,0.0
7911,77.0,0.0,3840.0,1.0,0.0
7912,84.0,120.0,120.0,6.0,0.0
7913,72.0,24.0,120.0,6.0,0.0
7914,72.0,96.0,150.0,10.0,0.0
7915,84.0,120.0,120.0,6.0,0.0
7916,65.0,120.0,120.0,6.0,0.0
7917,77.0,80.0,120.0,6.0,0.0
7918,53.0,0.0,90.0,8.0,0.0
7919,53.0,40.0,90.0,13.0,0.0
7920,65.0,40.0,120.0,6.0,0.0
7921,65.0,0.0,240.0,10.0,0.0
7922,55.0,80.0,90.0,8.0,0.0
7923,55.0,0.0,90.0,13.0,0.0
7924,77.0,96.0,120.0,6.0,0.0
7925,56.0,0.0,90.0,8.0,0.0
7926,56.0,0.0,90.0,13.0,0.0
7927,58.0,0.0,390.0,13.0,0.0
7928,66.0,48.0,150.0,10.0,0.0
7929,58.0,0.0,390.0,8.0,0.0
7930,66.0,48.0,90.0,6.0,0.0
7931,61.0,0.0,180.0,12.0,0.0
7932,65.0,24.0,180.0,11.0,0.0
7933,78.0,120.0,90.0,6.0,0.0
7934,65.0,0.0,390.0,11.0,0.0
7935,61.0,72.0,390.0,12.0,0.0
7936,66.0,72.0,150.0,10.0,0.0
7937,66.0,48.0,90.0,6.0,0.0
7938,78.0,120.0,90.0,6.0,0.0
7939,67.0,48.0,90.0,6.0,0.0
7940,79.0,104.0,90.0,6.0,0.0
7941,55.0,0.0,90.0,13.0,0.0
7942,61.0,0.0,240.0,12.0,0.0
7943,67.0,0.0,240.0,10.0,0.0
7944,55.0,16.0,90.0,8.0,0.0
7945,65.0,0.0,390.0,11.0,0.0
7946,67.0,64.0,90.0,6.0,0.0
7947,56.0,0.0,90.0,13.0,0.0
7948,56.0,56.0,90.0,8.0,0.0
7949,79.0,24.0,90.0,6.0,0.0
7950,58.0,0.0,90.0,8.0,0.0
7951,58.0,96.0,90.0,13.0,0.0
7952,68.0,48.0,150.0,10.0,0.0
7953,63.0,24.0,180.0,12.0,0.0
7954,68.0,48.0,90.0,6.0,0.0
7955,60.0,0.0,390.0,13.0,0.0
7956,60.0,0.0,390.0,8.0,0.0
7957,80.0,120.0,90.0,6.0,0.0
7958,65.0,72.0,390.0,11.0,0.0
7959,63.0,0.0,390.0,12.0,0.0
7960,68.0,48.0,90.0,6.0,0.0
7961,68.0,72.0,150.0,10.0,0.0
7962,80.0,120.0,90.0,6.0,0.0
7963,69.0,48.0,90.0,6.0,0.0
7964,81.0,104.0,90.0,6.0,0.0
7965,69.0,0.0,240.0,10.0,0.0
7966,69.0,64.0,90.0,6.0,0.0
7967,57.0,0.0,90.0,8.0,0.0
7968,65.0,24.0,420.0,11.0,0.0
7969,57.0,16.0,90.0,13.0,0.0
7970,63.0,0.0,240.0,12.0,0.0
7971,58.0,56.0,90.0,8.0,0.0
7972,58.0,0.0,90.0,13.0,0.0
7973,81.0,24.0,90.0,6.0,0.0
7974,60.0,96.0,90.0,8.0,0.0
7975,60.0,0.0,90.0,13.0,0.0
7976,70.0,96.0,90.0,6.0,0.0
7977,70.0,0.0,180.0,10.0,0.0
7978,61.0,72.0,390.0,12.0,0.0
7979,61.0,24.0,300.0,13.0,0.0
7980,61.0,0.0,300.0,8.0,0.0
7981,72.0,96.0,90.0,6.0,0.0
7982,70.0,72.0,390.0,10.0,0.0
7983,73.0,48.0,90.0,6.0,0.0
7984,65.0,0.0,390.0,11.0,0.0
7985,75.0,24.0,90.0,6.0,0.0
7986,77.0,48.0,90.0,6.0,0.0
7987,49.0,0.0,300.0,13.0,0.0
7988,82.0,48.0,720.0,0.0,0.0
7989,58.0,24.0,780.0,12.0,0.0
7990,49.0,24.0,300.0,8.0,0.0
7991,79.0,96.0,90.0,6.0,0.0
7992,65.0,96.0,240.0,11.0,0.0
7993,70.0,48.0,390.0,10.0,0.0
7994,81.0,120.0,90.0,6.0,0.0
7995,82.0,24.0,90.0,6.0,0.0
7996,51.0,24.0,300.0,13.0,0.0
7997,80.0,48.0,90.0,6.0,0.0
7998,78.0,0.0,240.0,1.0,0.0
7999,51.0,0.0,300.0,8.0,0.0
8000,66.0,24.0,180.0,11.0,0.0
8001,82.0,24.0,90.0,6.0,0.0
8002,77.0,72.0,480.0,1.0,0.0
8003,65.0,0.0,390.0,11.0,0.0
8004,68.0,72.0,390.0,10.0,0.0
8005,80.0,0.0,480.0,0.0,0.0
8006,84.0,120.0,90.0,6.0,0.0
8007,82.0,120.0,90.0,6.0,0.0
8008,80.0,48.0,90.0,6.0,0.0
8009,51.0,0.0,300.0,8.0,0.0
8010,51.0,24.0,300.0,13.0,0.0
8011,58.0,0.0,660.0,12.0,0.0
8012,78.0,24.0,90.0,6.0,0.0
8013,78.0,96.0,240.0,0.0,0.0
8014,63.0,0.0,240.0,11.0,0.0
8015,75.0,0.0,240.0,1.0,0.0
8016,66.0,0.0,240.0,10.0,0.0
8017,77.0,120.0,90.0,6.0,0.0
8018,75.0,24.0,90.0,6.0,0.0
8019,53.0,24.0,300.0,8.0,0.0
8020,73.0,24.0,180.0,1.0,0.0
8021,73.0,48.0,90.0,6.0,0.0
8022,77.0,0.0,180.0,0.0,0.0
8023,65.0,0.0,150.0,10.0,0.0
8024,61.0,48.0,150.0,11.0,0.0
8025,53.0,0.0,300.0,13.0,0.0
8026,75.0,96.0,90.0,6.0,0.0
8027,61.0,0.0,150.0,11.0,0.0
8028,77.0,48.0,90.0,6.0,0.0
8029,65.0,72.0,150.0,10.0,0.0
8030,53.0,48.0,390.0,12.0,0.0
8031,73.0,120.0,90.0,6.0,0.0
8032,53.0,0.0,300.0,8.0,0.0
8033,53.0,24.0,300.0,13.0,0.0
8034,72.0,0.0,180.0,1.0,0.0
8035,60.0,0.0,150.0,11.0,0.0
8036,72.0,48.0,90.0,6.0,0.0
8037,75.0,24.0,180.0,0.0,0.0
8038,63.0,0.0,150.0,10.0,0.0
8039,73.0,96.0,90.0,6.0,0.0
8040,63.0,0.0,150.0,10.0,0.0
8041,75.0,48.0,90.0,6.0,0.0
8042,60.0,72.0,150.0,11.0,0.0
8043,53.0,0.0,390.0,12.0,0.0
8044,72.0,120.0,90.0,6.0,0.0
8045,70.0,48.0,90.0,6.0,0.0
8046,41.0,24.0,300.0,8.0,0.0
8047,73.0,0.0,180.0,0.0,0.0
8048,61.0,48.0,150.0,10.0,0.0
8049,70.0,24.0,180.0,1.0,0.0
8050,41.0,0.0,300.0,13.0,0.0
8051,58.0,0.0,150.0,11.0,0.0
8052,72.0,96.0,90.0,6.0,0.0
8053,53.0,48.0,390.0,12.0,0.0
8054,58.0,72.0,150.0,11.0,0.0
8055,61.0,0.0,150.0,10.0,0.0
8056,73.0,48.0,90.0,6.0,0.0
8057,70.0,120.0,90.0,6.0,0.0
8058,72.0,24.0,180.0,0.0,0.0
8059,69.0,0.0,180.0,1.0,0.0
8060,41.0,16.0,390.0,8.0,0.0
8061,57.0,0.0,150.0,11.0,0.0
8062,60.0,0.0,150.0,10.0,0.0
8063,69.0,48.0,90.0,6.0,0.0
8064,70.0,104.0,90.0,6.0,0.0
8065,57.0,0.0,150.0,11.0,0.0
8066,60.0,0.0,150.0,10.0,0.0
8067,29.0,16.0,90.0,14.0,0.0
8068,41.0,0.0,90.0,13.0,0.0
8069,53.0,24.0,180.0,12.0,0.0
8070,72.0,48.0,90.0,6.0,0.0
8071,43.0,32.0,90.0,13.0,0.0
8072,31.0,0.0,90.0,14.0,0.0
8073,69.0,0.0,90.0,6.0,0.0
8074,53.0,0.0,90.0,3.0,0.0
8075,41.0,24.0,90.0,3.0,0.0
8076,33.0,96.0,90.0,14.0,0.0
8077,45.0,0.0,90.0,13.0,0.0
8078,34.0,36.0,5670.0,2.0,0.0
8079,46.0,0.0,5670.0,2.0,0.0
8080,58.0,0.0,90.0,11.0,0.0
8081,58.0,0.0,390.0,10.0,0.0
8082,58.0,16.0,1830.0,1.0,0.0
8083,70.0,0.0,1830.0,1.0,0.0
8084,34.0,0.0,780.0,14.0,0.0
8085,46.0,0.0,390.0,8.0,0.0
8086,70.0,0.0,390.0,6.0,0.0
8087,58.0,72.0,390.0,4.0,0.0
8088,58.0,0.0,900.0,3.0,0.0
8089,70.0,0.0,390.0,4.0,0.0
8090,46.0,0.0,390.0,5.0,0.0
8091,46.0,32.0,780.0,13.0,0.0
8092,46.0,24.0,900.0,3.0,0.0
8093,49.0,120.0,90.0,12.0,0.0
8094,70.0,0.0,1830.0,0.0,0.0
8095,49.0,120.0,90.0,12.0,0.0
8096,53.0,0.0,90.0,11.0,0.0
8097,49.0,48.0,90.0,12.0,0.0
8098,53.0,0.0,90.0,11.0,0.0
8099,49.0,120.0,90.0,12.0,0.0
8100,53.0,0.0,90.0,11.0,0.0
8101,53.0,0.0,90.0,11.0,0.0
8102,49.0,120.0,90.0,12.0,0.0
8103,53.0,0.0,90.0,11.0,0.0
8104,49.0,72.0,90.0,12.0,0.0
8105,53.0,64.0,90.0,11.0,0.0
8106,49.0,0.0,90.0,12.0,0.0
8107,53.0,16.0,90.0,10.0,0.0
8108,55.0,32.0,90.0,10.0,0.0
8109,49.0,24.0,90.0,12.0,0.0
8110,53.0,0.0,90.0,11.0,0.0
8111,57.0,96.0,90.0,10.0,0.0
8112,53.0,120.0,90.0,11.0,0.0
8113,58.0,72.0,390.0,10.0,0.0
8114,49.0,0.0,90.0,12.0,0.0
8115,49.0,0.0,90.0,12.0,0.0
8116,53.0,120.0,90.0,11.0,0.0
8117,53.0,48.0,90.0,11.0,0.0
8118,49.0,0.0,90.0,12.0,0.0
8119,53.0,0.0,90.0,11.0,0.0
8120,49.0,120.0,90.0,12.0,0.0
8121,53.0,0.0,90.0,11.0,0.0
8122,49.0,120.0,90.0,12.0,0.0
8123,53.0,0.0,90.0,11.0,0.0
8124,49.0,104.0,90.0,12.0,0.0
8125,53.0,48.0,90.0,11.0,0.0
8126,41.0,16.0,90.0,14.0,0.0
8127,53.0,0.0,90.0,13.0,0.0
8128,49.0,0.0,90.0,12.0,0.0
8129,55.0,56.0,90.0,13.0,0.0
8130,43.0,0.0,90.0,14.0,0.0
8131,49.0,0.0,90.0,12.0,0.0
8132,53.0,24.0,90.0,11.0,0.0
8133,41.0,0.0,90.0,3.0,0.0
8134,53.0,0.0,90.0,3.0,0.0
8135,57.0,96.0,90.0,13.0,0.0
8136,45.0,0.0,90.0,14.0,0.0
8137,73.0,0.0,2220.0,1.0,0.0
8138,77.0,0.0,2220.0,1.0,0.0
8139,82.0,0.0,2220.0,0.0,0.0
8140,58.0,0.0,390.0,4.0,0.0
8141,70.0,0.0,390.0,4.0,0.0
8142,46.0,0.0,900.0,3.0,0.0
8143,46.0,32.0,780.0,14.0,0.0
8144,58.0,24.0,900.0,3.0,0.0
8145,46.0,72.0,390.0,5.0,0.0
8146,58.0,0.0,780.0,13.0,0.0
8147,49.0,120.0,90.0,12.0,0.0
8148,53.0,0.0,90.0,11.0,0.0
8149,53.0,0.0,90.0,11.0,0.0
8150,49.0,120.0,90.0,12.0,0.0
8151,53.0,0.0,90.0,11.0,0.0
8152,49.0,48.0,90.0,12.0,0.0
8153,49.0,120.0,90.0,12.0,0.0
8154,53.0,0.0,90.0,11.0,0.0
8155,53.0,0.0,90.0,11.0,0.0
8156,49.0,120.0,90.0,12.0,0.0
8157,53.0,72.0,90.0,11.0,0.0
8158,49.0,0.0,90.0,12.0,0.0
8159,53.0,64.0,90.0,11.0,0.0
8160,65.0,16.0,90.0,10.0,0.0
8161,49.0,0.0,90.0,12.0,0.0
8162,67.0,32.0,90.0,10.0,0.0
8163,49.0,24.0,90.0,12.0,0.0
8164,53.0,0.0,90.0,11.0,0.0
8165,69.0,96.0,90.0,10.0,0.0
8166,53.0,120.0,90.0,11.0,0.0
8167,49.0,0.0,90.0,12.0,0.0
8168,70.0,72.0,390.0,10.0,0.0
8169,49.0,120.0,90.0,12.0,0.0
8170,53.0,0.0,90.0,11.0,0.0
8171,49.0,0.0,90.0,12.0,0.0
8172,53.0,48.0,90.0,11.0,0.0
8173,49.0,0.0,90.0,12.0,0.0
8174,53.0,120.0,90.0,11.0,0.0
8175,53.0,0.0,90.0,11.0,0.0
8176,49.0,120.0,90.0,12.0,0.0
8177,53.0,0.0,90.0,11.0,0.0
8178,49.0,104.0,90.0,12.0,0.0
8179,77.0,16.0,90.0,10.0,0.0
8180,49.0,0.0,90.0,12.0,0.0
8181,53.0,64.0,90.0,11.0,0.0
8182,79.0,56.0,90.0,10.0,0.0
8183,49.0,0.0,90.0,12.0,0.0
8184,41.0,0.0,90.0,3.0,0.0
8185,53.0,24.0,90.0,11.0,0.0
8186,53.0,0.0,90.0,3.0,0.0
8187,81.0,96.0,90.0,10.0,0.0
8188,82.0,48.0,300.0,10.0,0.0
8189,49.0,0.0,90.0,12.0,0.0
8190,46.0,0.0,300.0,3.0,0.0
8191,58.0,0.0,300.0,3.0,0.0
8192,53.0,120.0,90.0,11.0,0.0
8193,49.0,0.0,90.0,12.0,0.0
8194,53.0,72.0,90.0,11.0,0.0
8195,49.0,120.0,90.0,12.0,0.0
8196,53.0,0.0,90.0,11.0,0.0
8197,49.0,0.0,90.0,12.0,0.0
8198,53.0,120.0,90.0,11.0,0.0
8199,77.0,0.0,300.0,0.0,0.0
8200,46.0,0.0,300.0,3.0,0.0
8201,49.0,0.0,90.0,12.0,0.0
8202,77.0,0.0,300.0,1.0,0.0
8203,58.0,0.0,300.0,3.0,0.0
8204,65.0,48.0,300.0,10.0,0.0
8205,53.0,120.0,90.0,11.0,0.0
8206,53.0,72.0,90.0,11.0,0.0
8207,49.0,0.0,90.0,12.0,0.0
8208,49.0,120.0,90.0,12.0,0.0
8209,53.0,0.0,90.0,11.0,0.0
8210,53.0,0.0,90.0,11.0,0.0
8211,49.0,120.0,90.0,12.0,0.0
8212,53.0,0.0,90.0,11.0,0.0
8213,58.0,0.0,300.0,3.0,0.0
8214,46.0,48.0,300.0,3.0,0.0
8215,61.0,0.0,300.0,10.0,0.0
8216,73.0,0.0,300.0,1.0,0.0
8217,49.0,120.0,90.0,12.0,0.0
8218,85.0,0.0,300.0,0.0,0.0
8219,49.0,0.0,90.0,12.0,0.0
8220,53.0,72.0,90.0,11.0,0.0
8221,49.0,0.0,90.0,12.0,0.0
8222,53.0,120.0,90.0,11.0,0.0
8223,49.0,0.0,90.0,12.0,0.0
8224,53.0,120.0,90.0,11.0,0.0
8225,53.0,0.0,90.0,11.0,0.0
8226,46.0,12.0,300.0,3.0,0.0
8227,58.0,0.0,300.0,3.0,0.0
8228,82.0,0.0,300.0,0.0,0.0
8229,58.0,0.0,300.0,10.0,0.0
8230,49.0,120.0,90.0,12.0,0.0
8231,70.0,0.0,300.0,1.0,0.0
8232,53.0,0.0,90.0,11.0,0.0
8233,49.0,72.0,90.0,12.0,0.0
8234,41.0,36.0,60.0,14.0,0.0
8235,49.0,0.0,90.0,12.0,0.0
8236,53.0,24.0,90.0,11.0,0.0
8237,53.0,0.0,60.0,13.0,0.0
8238,55.0,24.0,60.0,13.0,0.0
8239,43.0,0.0,60.0,14.0,0.0
8240,45.0,36.0,60.0,14.0,0.0
8241,53.0,0.0,90.0,11.0,0.0
8242,57.0,0.0,60.0,13.0,0.0
8243,49.0,24.0,90.0,12.0,0.0
8244,58.0,96.0,60.0,13.0,0.0
8245,46.0,0.0,60.0,14.0,0.0
8246,48.0,0.0,300.0,14.0,0.0
8247,54.0,0.0,90.0,11.0,0.0
8248,60.0,0.0,1830.0,3.0,0.0
8249,81.0,24.0,900.0,0.0,0.0
8250,51.0,120.0,90.0,12.0,0.0
8251,57.0,24.0,780.0,10.0,0.0
8252,36.0,0.0,1830.0,2.0,0.0
8253,48.0,36.0,1830.0,2.0,0.0
8254,69.0,0.0,900.0,1.0,0.0
8255,60.0,24.0,300.0,13.0,0.0
8256,51.0,0.0,90.0,12.0,0.0
8257,54.0,96.0,90.0,11.0,0.0
8258,51.0,0.0,90.0,12.0,0.0
8259,54.0,120.0,90.0,11.0,0.0
8260,51.0,120.0,90.0,12.0,0.0
8261,54.0,0.0,90.0,11.0,0.0
8262,54.0,120.0,90.0,11.0,0.0
8263,51.0,0.0,90.0,12.0,0.0
8264,57.0,24.0,300.0,13.0,0.0
8265,45.0,0.0,300.0,14.0,0.0
8266,54.0,72.0,90.0,11.0,0.0
8267,51.0,0.0,90.0,12.0,0.0
8268,54.0,96.0,90.0,11.0,0.0
8269,51.0,0.0,90.0,12.0,0.0
8270,54.0,120.0,90.0,11.0,0.0
8271,51.0,0.0,90.0,12.0,0.0
8272,51.0,0.0,90.0,12.0,0.0
8273,51.0,0.0,300.0,13.0,0.0
8274,54.0,120.0,90.0,11.0,0.0
8275,39.0,24.0,300.0,14.0,0.0
8276,54.0,0.0,90.0,11.0,0.0
8277,51.0,96.0,90.0,12.0,0.0
8278,51.0,0.0,90.0,12.0,0.0
8279,54.0,120.0,90.0,11.0,0.0
8280,54.0,120.0,90.0,11.0,0.0
8281,51.0,0.0,90.0,12.0,0.0
8282,51.0,120.0,90.0,12.0,0.0
8283,36.0,0.0,300.0,14.0,0.0
8284,54.0,0.0,90.0,11.0,0.0
8285,48.0,24.0,300.0,13.0,0.0
8286,51.0,84.0,90.0,12.0,0.0
8287,54.0,0.0,90.0,11.0,0.0
8288,51.0,0.0,90.0,12.0,0.0
8289,54.0,24.0,90.0,11.0,0.0
8290,72.0,12.0,60.0,10.0,0.0
8291,73.0,24.0,60.0,10.0,0.0
8292,51.0,24.0,90.0,12.0,0.0
8293,75.0,36.0,60.0,10.0,0.0
8294,54.0,0.0,90.0,11.0,0.0
8295,77.0,96.0,60.0,10.0,0.0
8296,46.0,16.0,1830.0,2.0,0.0
8297,78.0,0.0,300.0,10.0,0.0
8298,34.0,0.0,780.0,14.0,0.0
8299,46.0,0.0,780.0,13.0,0.0
8300,54.0,0.0,90.0,11.0,0.0
8301,58.0,48.0,300.0,3.0,0.0
8302,46.0,0.0,300.0,3.0,0.0
8303,34.0,0.0,1830.0,2.0,0.0
8304,49.0,120.0,90.0,12.0,0.0
8305,49.0,0.0,90.0,12.0,0.0
8306,54.0,72.0,90.0,11.0,0.0
8307,54.0,0.0,90.0,11.0,0.0
8308,49.0,120.0,90.0,12.0,0.0
8309,49.0,120.0,90.0,12.0,0.0
8310,54.0,0.0,90.0,11.0,0.0
8311,49.0,120.0,90.0,12.0,0.0
8312,46.0,0.0,300.0,3.0,0.0
8313,73.0,48.0,300.0,1.0,0.0
8314,58.0,0.0,300.0,3.0,0.0
8315,61.0,0.0,300.0,10.0,0.0
8316,54.0,0.0,90.0,11.0,0.0
8317,85.0,0.0,300.0,0.0,0.0
8318,49.0,72.0,90.0,12.0,0.0
8319,54.0,0.0,90.0,11.0,0.0
8320,54.0,120.0,90.0,11.0,0.0
8321,49.0,0.0,90.0,12.0,0.0
8322,54.0,0.0,90.0,11.0,0.0
8323,49.0,120.0,90.0,12.0,0.0
8324,82.0,48.0,300.0,1.0,0.0
8325,54.0,0.0,90.0,11.0,0.0
8326,82.0,0.0,300.0,0.0,0.0
8327,49.0,120.0,90.0,12.0,0.0
8328,58.0,0.0,300.0,10.0,0.0
8329,70.0,0.0,300.0,1.0,0.0
8330,46.0,0.0,300.0,3.0,0.0
8331,58.0,0.0,300.0,3.0,0.0
8332,49.0,0.0,90.0,12.0,0.0
8333,54.0,72.0,90.0,11.0,0.0
8334,49.0,0.0,90.0,12.0,0.0
8335,54.0,120.0,90.0,11.0,0.0
8336,54.0,0.0,90.0,11.0,0.0
8337,49.0,120.0,90.0,12.0,0.0
8338,78.0,0.0,300.0,1.0,0.0
8339,66.0,32.0,300.0,1.0,0.0
8340,46.0,0.0,300.0,3.0,0.0
8341,58.0,0.0,300.0,3.0,0.0
8342,54.0,0.0,300.0,10.0,0.0
8343,54.0,0.0,90.0,11.0,0.0
8344,49.0,120.0,90.0,12.0,0.0
8345,78.0,0.0,300.0,0.0,0.0
8346,54.0,0.0,90.0,11.0,0.0
8347,49.0,72.0,90.0,12.0,0.0
8348,61.0,0.0,90.0,13.0,0.0
8349,49.0,16.0,90.0,14.0,0.0
8350,54.0,48.0,90.0,11.0,0.0
8351,49.0,0.0,90.0,12.0,0.0
8352,60.0,56.0,90.0,13.0,0.0
8353,48.0,0.0,90.0,14.0,0.0
8354,49.0,0.0,90.0,12.0,0.0
8355,54.0,24.0,90.0,11.0,0.0
8356,58.0,0.0,90.0,13.0,0.0
8357,46.0,384.0,90.0,14.0,0.0
8358,45.0,0.0,720.0,2.0,0.0
8359,57.0,0.0,720.0,13.0,0.0
8360,77.0,0.0,720.0,0.0,0.0
8361,48.0,0.0,720.0,12.0,0.0
8362,65.0,0.0,720.0,1.0,0.0
8363,77.0,0.0,720.0,1.0,0.0
8364,53.0,336.0,390.0,4.0,0.0
8365,53.0,240.0,720.0,11.0,0.0
8366,53.0,0.0,390.0,3.0,0.0
8367,41.0,0.0,390.0,3.0,0.0
8368,65.0,0.0,390.0,4.0,0.0
8369,41.0,0.0,390.0,5.0,0.0
8370,45.0,0.0,720.0,14.0,0.0
8371,53.0,0.0,720.0,10.0,0.0
8372,78.0,0.0,240.0,0.0,0.0
8373,46.0,240.0,240.0,2.0,0.0
8374,54.0,0.0,240.0,10.0,0.0
8375,58.0,0.0,240.0,13.0,0.0
8376,78.0,0.0,240.0,1.0,0.0
8377,49.0,0.0,240.0,12.0,0.0
8378,66.0,0.0,240.0,1.0,0.0
8379,54.0,0.0,240.0,11.0,0.0
8380,46.0,0.0,240.0,14.0,0.0
8381,65.0,0.0,240.0,1.0,0.0
8382,48.0,0.0,240.0,12.0,0.0
8383,77.0,0.0,240.0,0.0,0.0
8384,77.0,0.0,240.0,1.0,0.0
8385,53.0,0.0,240.0,11.0,0.0
8386,53.0,240.0,240.0,10.0,0.0
8387,45.0,0.0,240.0,14.0,0.0
8388,57.0,0.0,240.0,13.0,0.0
8389,45.0,0.0,240.0,2.0,0.0
8390,76.0,0.0,240.0,0.0,0.0
8391,46.0,0.0,240.0,14.0,0.0
8392,46.0,0.0,240.0,2.0,0.0
8393,58.0,0.0,240.0,13.0,0.0
8394,64.0,0.0,240.0,1.0,0.0
8395,76.0,0.0,240.0,1.0,0.0
8396,52.0,240.0,240.0,10.0,0.0
8397,49.0,0.0,240.0,12.0,0.0
8398,52.0,0.0,240.0,11.0,0.0
8399,57.0,0.0,240.0,13.0,0.0
8400,53.0,228.0,240.0,11.0,0.0
8401,45.0,0.0,240.0,14.0,0.0
8402,48.0,0.0,240.0,12.0,0.0
8403,53.0,0.0,240.0,10.0,0.0
8404,77.0,0.0,240.0,1.0,0.0
8405,65.0,0.0,240.0,1.0,0.0
8406,45.0,0.0,240.0,2.0,0.0
8407,77.0,0.0,240.0,0.0,0.0
8408,52.0,0.0,240.0,11.0,0.0
8409,52.0,0.0,240.0,10.0,0.0
8410,49.0,396.0,240.0,12.0,0.0
8411,76.0,0.0,240.0,0.0,0.0
8412,46.0,0.0,240.0,14.0,0.0
8413,64.0,0.0,240.0,1.0,0.0
8414,76.0,0.0,240.0,1.0,0.0
8415,58.0,0.0,240.0,13.0,0.0
8416,46.0,0.0,240.0,2.0,0.0
8417,65.0,0.0,390.0,4.0,0.0
8418,57.0,0.0,720.0,13.0,0.0
8419,77.0,0.0,720.0,0.0,0.0
8420,41.0,336.0,390.0,3.0,0.0
8421,65.0,0.0,720.0,1.0,0.0
8422,53.0,0.0,720.0,11.0,0.0
8423,53.0,0.0,390.0,4.0,0.0
8424,45.0,0.0,720.0,14.0,0.0
8425,53.0,0.0,720.0,10.0,0.0
8426,45.0,0.0,720.0,2.0,0.0
8427,48.0,0.0,720.0,12.0,0.0
8428,77.0,240.0,720.0,1.0,0.0
8429,53.0,0.0,390.0,3.0,0.0
8430,41.0,0.0,390.0,5.0,0.0
8431,54.0,0.0,240.0,11.0,0.0
8432,54.0,0.0,240.0,10.0,0.0
8433,46.0,240.0,240.0,2.0,0.0
8434,78.0,0.0,240.0,0.0,0.0
8435,46.0,0.0,240.0,14.0,0.0
8436,49.0,0.0,240.0,12.0,0.0
8437,58.0,0.0,240.0,13.0,0.0
8438,66.0,0.0,240.0,1.0,0.0
8439,78.0,0.0,240.0,1.0,0.0
8440,77.0,0.0,240.0,0.0,0.0
8441,45.0,0.0,240.0,14.0,0.0
8442,53.0,240.0,240.0,11.0,0.0
8443,53.0,0.0,240.0,10.0,0.0
8444,57.0,0.0,240.0,13.0,0.0
8445,45.0,0.0,240.0,2.0,0.0
8446,65.0,0.0,240.0,1.0,0.0
8447,48.0,0.0,240.0,12.0,0.0
8448,77.0,0.0,240.0,1.0,0.0
8449,46.0,0.0,240.0,14.0,0.0
8450,52.0,0.0,240.0,10.0,0.0
8451,58.0,0.0,240.0,13.0,0.0
8452,52.0,0.0,240.0,11.0,0.0
8453,46.0,0.0,240.0,2.0,0.0
8454,76.0,240.0,240.0,1.0,0.0
8455,49.0,0.0,240.0,12.0,0.0
8456,64.0,0.0,240.0,1.0,0.0
8457,76.0,0.0,240.0,0.0,0.0
8458,77.0,228.0,240.0,0.0,0.0
8459,53.0,0.0,240.0,10.0,0.0
8460,57.0,0.0,240.0,13.0,0.0
8461,65.0,0.0,240.0,1.0,0.0
8462,45.0,0.0,240.0,2.0,0.0
8463,53.0,0.0,240.0,11.0,0.0
8464,48.0,0.0,240.0,12.0,0.0
8465,77.0,0.0,240.0,1.0,0.0
8466,45.0,0.0,240.0,14.0,0.0
8467,46.0,0.0,240.0,14.0,0.0
8468,76.0,0.0,240.0,1.0,0.0
8469,52.0,0.0,240.0,11.0,0.0
8470,58.0,0.0,240.0,13.0,0.0
8471,64.0,0.0,240.0,1.0,0.0
8472,49.0,168.0,240.0,12.0,0.0
8473,46.0,0.0,240.0,2.0,0.0
8474,76.0,0.0,240.0,0.0,0.0
8475,52.0,0.0,240.0,10.0,0.0
8476,45.0,0.0,390.0,14.0,0.0
8477,41.0,0.0,390.0,3.0,0.0
8478,45.0,0.0,390.0,2.0,0.0
8479,41.0,0.0,390.0,5.0,0.0
8480,57.0,0.0,390.0,13.0,0.0
8481,65.0,0.0,390.0,1.0,0.0
8482,53.0,0.0,390.0,3.0,0.0
8483,77.0,0.0,390.0,1.0,0.0
8484,65.0,0.0,390.0,4.0,0.0
8485,53.0,228.0,150.0,11.0,0.0
8486,77.0,336.0,390.0,0.0,0.0
8487,53.0,0.0,150.0,10.0,0.0
8488,53.0,0.0,390.0,4.0,0.0
8489,48.0,0.0,390.0,12.0,0.0
8490,60.0,156.0,480.0,10.0,0.0
8491,57.0,0.0,480.0,11.0,0.0
8492,58.0,240.0,150.0,10.0,0.0
8493,54.0,0.0,150.0,11.0,0.0
8494,53.0,0.0,150.0,11.0,0.0
8495,57.0,564.0,150.0,10.0,0.0
8496,60.0,0.0,480.0,11.0,0.0
8497,63.0,156.0,480.0,10.0,0.0
8498,61.0,240.0,150.0,10.0,0.0
8499,58.0,0.0,150.0,11.0,0.0
8500,60.0,0.0,150.0,10.0,0.0
8501,57.0,564.0,150.0,11.0,0.0
8502,60.0,0.0,480.0,11.0,0.0
8503,72.0,0.0,480.0,1.0,0.0
8504,66.0,156.0,480.0,10.0,0.0
8505,69.0,0.0,480.0,1.0,0.0
8506,65.0,0.0,150.0,10.0,0.0
8507,58.0,240.0,150.0,11.0,0.0
8508,70.0,0.0,150.0,1.0,0.0
8509,73.0,0.0,150.0,1.0,0.0
8510,72.0,0.0,150.0,1.0,0.0
8511,75.0,0.0,150.0,1.0,0.0
8512,63.0,0.0,150.0,10.0,0.0
8513,60.0,564.0,150.0,11.0,0.0
8514,75.0,0.0,480.0,10.0,0.0
8515,60.0,156.0,480.0,2.0,0.0
8516,63.0,0.0,480.0,2.0,0.0
8517,72.0,0.0,480.0,11.0,0.0
8518,73.0,0.0,150.0,11.0,0.0
8519,77.0,36.0,150.0,10.0,0.0
8520,58.0,192.0,180.0,2.0,0.0
8521,61.0,0.0,180.0,2.0,0.0
8522,36.0,128.0,180.0,14.0,0.0
8523,57.0,0.0,150.0,12.0,0.0
8524,48.0,48.0,150.0,12.0,0.0
8525,75.0,0.0,480.0,11.0,0.0
8526,48.0,0.0,390.0,8.0,0.0
8527,78.0,0.0,480.0,10.0,0.0
8528,48.0,0.0,180.0,13.0,0.0
8529,60.0,0.0,1830.0,2.0,0.0
8530,57.0,0.0,1830.0,2.0,0.0
8531,36.0,0.0,390.0,8.0,0.0
8532,63.0,64.0,150.0,6.0,0.0
8533,51.0,96.0,150.0,12.0,0.0
8534,60.0,0.0,150.0,12.0,0.0
8535,69.0,144.0,150.0,6.0,0.0
8536,75.0,0.0,180.0,10.0,0.0
8537,39.0,0.0,180.0,14.0,0.0
8538,51.0,128.0,180.0,13.0,0.0
8539,72.0,0.0,180.0,11.0,0.0
8540,48.0,0.0,150.0,12.0,0.0
8541,57.0,16.0,150.0,12.0,0.0
8542,72.0,32.0,150.0,6.0,0.0
8543,75.0,64.0,150.0,6.0,0.0
8544,60.0,0.0,150.0,12.0,0.0
8545,51.0,96.0,150.0,12.0,0.0
8546,81.0,144.0,150.0,6.0,0.0
8547,57.0,16.0,150.0,12.0,0.0
8548,45.0,0.0,180.0,14.0,0.0
8549,48.0,0.0,150.0,12.0,0.0
8550,78.0,0.0,480.0,1.0,0.0
8551,57.0,128.0,180.0,13.0,0.0
8552,84.0,32.0,150.0,6.0,0.0
8553,81.0,64.0,150.0,6.0,0.0
8554,51.0,0.0,150.0,12.0,0.0
8555,60.0,96.0,150.0,12.0,0.0
8556,75.0,0.0,150.0,6.0,0.0
8557,75.0,144.0,15.0,1.0,0.0
8558,60.0,128.0,180.0,13.0,0.0
8559,72.0,0.0,180.0,1.0,0.0
8560,48.0,0.0,180.0,14.0,0.0
8561,69.0,0.0,180.0,10.0,0.0
8562,57.0,16.0,150.0,12.0,0.0
8563,66.0,0.0,180.0,11.0,0.0
8564,48.0,0.0,150.0,12.0,0.0
8565,72.0,32.0,150.0,6.0,0.0
8566,69.0,64.0,150.0,6.0,0.0
8567,60.0,96.0,150.0,12.0,0.0
8568,51.0,0.0,150.0,12.0,0.0
8569,63.0,144.0,150.0,6.0,0.0
8570,53.0,96.0,1830.0,2.0,0.0
8571,49.0,96.0,390.0,8.0,0.0
8572,58.0,0.0,1830.0,2.0,0.0
8573,37.0,128.0,180.0,14.0,0.0
8574,49.0,0.0,180.0,13.0,0.0
8575,37.0,0.0,390.0,8.0,0.0
8576,73.0,0.0,480.0,11.0,0.0
8577,58.0,0.0,150.0,12.0,0.0
8578,77.0,0.0,480.0,10.0,0.0
8579,49.0,48.0,150.0,12.0,0.0
8580,65.0,64.0,150.0,6.0,0.0
8581,53.0,0.0,150.0,12.0,0.0
8582,61.0,0.0,150.0,12.0,0.0
8583,70.0,144.0,150.0,6.0,0.0
8584,53.0,0.0,180.0,13.0,0.0
8585,70.0,0.0,180.0,11.0,0.0
8586,73.0,32.0,150.0,6.0,0.0
8587,41.0,0.0,180.0,14.0,0.0
8588,73.0,128.0,180.0,10.0,0.0
8589,49.0,16.0,150.0,12.0,0.0
8590,58.0,0.0,150.0,12.0,0.0
8591,77.0,64.0,150.0,6.0,0.0
8592,53.0,0.0,150.0,12.0,0.0
8593,61.0,96.0,150.0,12.0,0.0
8594,82.0,144.0,150.0,6.0,0.0
8595,58.0,128.0,180.0,13.0,0.0
8596,85.0,32.0,150.0,6.0,0.0
8597,73.0,144.0,480.0,1.0,0.0
8598,46.0,0.0,180.0,14.0,0.0
8599,77.0,0.0,480.0,1.0,0.0
8600,49.0,16.0,150.0,12.0,0.0
8601,58.0,0.0,150.0,12.0,0.0
8602,82.0,64.0,150.0,6.0,0.0
8603,53.0,0.0,150.0,12.0,0.0
8604,61.0,96.0,150.0,12.0,0.0
8605,77.0,0.0,150.0,6.0,0.0
8606,73.0,32.0,150.0,6.0,0.0
8607,61.0,0.0,180.0,13.0,0.0
8608,58.0,0.0,150.0,12.0,0.0
8609,61.0,0.0,180.0,11.0,0.0
8610,65.0,0.0,180.0,10.0,0.0
8611,70.0,128.0,180.0,1.0,0.0
8612,73.0,0.0,180.0,1.0,0.0
8613,49.0,16.0,150.0,12.0,0.0
8614,49.0,0.0,180.0,14.0,0.0
8615,70.0,64.0,150.0,6.0,0.0
8616,53.0,0.0,150.0,12.0,0.0
8617,61.0,0.0,150.0,12.0,0.0
8618,65.0,144.0,150.0,6.0,0.0
8619,75.0,0.0,180.0,10.0,0.0
8620,72.0,0.0,180.0,11.0,0.0
8621,45.0,0.0,180.0,14.0,0.0
8622,57.0,128.0,180.0,13.0,0.0
8623,60.0,0.0,960.0,2.0,0.0
8624,51.0,0.0,960.0,2.0,0.0
8625,45.0,0.0,390.0,8.0,0.0
8626,57.0,0.0,390.0,8.0,0.0
8627,60.0,48.0,150.0,12.0,0.0
8628,63.0,0.0,150.0,12.0,0.0
8629,75.0,64.0,150.0,6.0,0.0
8630,53.0,0.0,150.0,12.0,0.0
8631,60.0,96.0,150.0,12.0,0.0
8632,77.0,144.0,150.0,6.0,0.0
8633,72.0,128.0,180.0,1.0,0.0
8634,75.0,0.0,180.0,1.0,0.0
8635,84.0,32.0,150.0,6.0,0.0
8636,60.0,16.0,150.0,12.0,0.0
8637,63.0,0.0,150.0,12.0,0.0
8638,77.0,64.0,150.0,6.0,0.0
8639,60.0,0.0,150.0,12.0,0.0
8640,53.0,96.0,150.0,12.0,0.0
8641,75.0,144.0,150.0,6.0,0.0
8642,58.0,114.0,960.0,2.0,0.0
8643,49.0,0.0,960.0,2.0,0.0
8644,58.0,0.0,390.0,8.0,0.0
8645,46.0,0.0,180.0,14.0,0.0
8646,58.0,48.0,150.0,12.0,0.0
8647,61.0,0.0,150.0,12.0,0.0
8648,73.0,0.0,180.0,10.0,0.0
8649,70.0,128.0,180.0,11.0,0.0
8650,46.0,0.0,390.0,8.0,0.0
8651,58.0,0.0,180.0,13.0,0.0
8652,73.0,64.0,150.0,6.0,0.0
8653,58.0,0.0,150.0,12.0,0.0
8654,53.0,96.0,150.0,12.0,0.0
8655,77.0,144.0,150.0,6.0,0.0
8656,70.0,0.0,180.0,1.0,0.0
8657,61.0,0.0,150.0,12.0,0.0
8658,73.0,128.0,180.0,1.0,0.0
8659,58.0,16.0,150.0,12.0,0.0
8660,82.0,32.0,150.0,6.0,0.0
8661,77.0,64.0,150.0,6.0,0.0
8662,53.0,0.0,150.0,12.0,0.0
8663,58.0,96.0,150.0,12.0,0.0
8664,73.0,0.0,150.0,6.0,0.0
8665,77.0,0.0,390.0,6.0,0.0
8666,57.0,0.0,390.0,12.0,0.0
8667,53.0,0.0,390.0,13.0,0.0
8668,69.0,90.0,390.0,11.0,0.0
8669,41.0,120.0,120.0,8.0,0.0
8670,81.0,0.0,390.0,6.0,0.0
8671,72.0,0.0,390.0,6.0,0.0
8672,72.0,0.0,390.0,10.0,0.0
8673,60.0,0.0,390.0,12.0,0.0
8674,69.0,0.0,390.0,1.0,0.0
8675,41.0,0.0,390.0,14.0,0.0
8676,48.0,0.0,390.0,2.0,0.0
8677,72.0,0.0,390.0,1.0,0.0
8678,57.0,0.0,390.0,2.0,0.0
8679,53.0,120.0,120.0,8.0,0.0
8680,40.0,30.0,120.0,8.0,0.0
8681,52.0,120.0,120.0,8.0,0.0
8682,41.0,120.0,120.0,8.0,0.0
8683,53.0,120.0,120.0,8.0,0.0
8684,42.0,120.0,120.0,8.0,0.0
8685,54.0,120.0,120.0,8.0,0.0
8686,41.0,120.0,120.0,8.0,0.0
8687,53.0,120.0,120.0,8.0,0.0
8688,39.0,120.0,120.0,8.0,0.0
8689,51.0,120.0,120.0,8.0,0.0
8690,37.0,120.0,120.0,8.0,0.0
8691,77.0,0.0,390.0,6.0,0.0
8692,81.0,0.0,390.0,6.0,0.0
8693,72.0,90.0,390.0,6.0,0.0
8694,49.0,120.0,120.0,8.0,0.0
8695,36.0,30.0,120.0,8.0,0.0
8696,48.0,120.0,120.0,8.0,0.0
8697,77.0,90.0,390.0,6.0,0.0
8698,73.0,0.0,390.0,6.0,0.0
8699,82.0,0.0,390.0,6.0,0.0
8700,34.0,120.0,120.0,8.0,0.0
8701,46.0,120.0,120.0,8.0,0.0
8702,33.0,30.0,120.0,8.0,0.0
8703,45.0,120.0,120.0,8.0,0.0
8704,34.0,120.0,120.0,8.0,0.0
8705,46.0,120.0,120.0,8.0,0.0
8706,36.0,120.0,120.0,8.0,0.0
8707,48.0,120.0,120.0,8.0,0.0
8708,37.0,120.0,120.0,8.0,0.0
8709,49.0,120.0,120.0,8.0,0.0
8710,36.0,120.0,120.0,8.0,0.0
8711,48.0,120.0,120.0,8.0,0.0
8712,37.0,120.0,120.0,8.0,0.0
8713,82.0,0.0,390.0,6.0,0.0
8714,77.0,0.0,390.0,6.0,0.0
8715,73.0,90.0,390.0,6.0,0.0
8716,49.0,120.0,120.0,8.0,0.0
8717,39.0,30.0,120.0,8.0,0.0
8718,51.0,120.0,120.0,8.0,0.0
8719,72.0,66.0,300.0,1.0,0.0
8720,77.0,0.0,390.0,6.0,0.0
8721,41.0,120.0,120.0,8.0,0.0
8722,53.0,0.0,300.0,3.0,0.0
8723,57.0,0.0,300.0,2.0,0.0
8724,81.0,0.0,390.0,6.0,0.0
8725,72.0,90.0,390.0,6.0,0.0
8726,65.0,0.0,300.0,1.0,0.0
8727,81.0,0.0,300.0,0.0,0.0
8728,60.0,0.0,300.0,2.0,0.0
8729,53.0,54.0,120.0,8.0,0.0
8730,40.0,30.0,120.0,8.0,0.0
8731,52.0,120.0,120.0,8.0,0.0
8732,41.0,102.0,120.0,8.0,0.0
8733,53.0,0.0,210.0,3.0,0.0
8734,57.0,0.0,210.0,2.0,0.0
8735,72.0,0.0,210.0,1.0,0.0
8736,65.0,0.0,210.0,1.0,0.0
8737,60.0,0.0,210.0,2.0,0.0
8738,81.0,18.0,210.0,0.0,0.0
8739,53.0,120.0,120.0,8.0,0.0
8740,42.0,78.0,120.0,8.0,0.0
8741,54.0,120.0,120.0,8.0,0.0
8742,53.0,0.0,60.0,3.0,0.0
8743,81.0,0.0,60.0,0.0,0.0
8744,72.0,0.0,60.0,1.0,0.0
8745,65.0,0.0,60.0,1.0,0.0
8746,57.0,42.0,60.0,2.0,0.0
8747,60.0,0.0,60.0,2.0,0.0
8748,65.0,0.0,300.0,1.0,0.0
8749,72.0,0.0,300.0,1.0,0.0
8750,60.0,0.0,300.0,2.0,0.0
8751,57.0,66.0,300.0,2.0,0.0
8752,41.0,120.0,120.0,8.0,0.0
8753,53.0,0.0,300.0,3.0,0.0
8754,81.0,0.0,300.0,0.0,0.0
8755,53.0,54.0,120.0,8.0,0.0
8756,39.0,120.0,120.0,8.0,0.0
8757,51.0,120.0,120.0,8.0,0.0
8758,81.0,0.0,300.0,0.0,0.0
8759,60.0,66.0,300.0,2.0,0.0
8760,81.0,0.0,390.0,6.0,0.0
8761,77.0,90.0,390.0,6.0,0.0
8762,37.0,120.0,120.0,8.0,0.0
8763,57.0,0.0,300.0,2.0,0.0
8764,53.0,0.0,300.0,3.0,0.0
8765,72.0,0.0,390.0,6.0,0.0
8766,72.0,0.0,300.0,1.0,0.0
8767,65.0,0.0,300.0,1.0,0.0
8768,49.0,54.0,120.0,8.0,0.0
8769,36.0,30.0,120.0,8.0,0.0
8770,48.0,120.0,120.0,8.0,0.0
8771,61.0,0.0,300.0,2.0,0.0
8772,82.0,0.0,390.0,6.0,0.0
8773,58.0,0.0,300.0,2.0,0.0
8774,34.0,120.0,120.0,8.0,0.0
8775,77.0,90.0,390.0,6.0,0.0
8776,65.0,0.0,300.0,1.0,0.0
8777,82.0,66.0,300.0,0.0,0.0
8778,73.0,0.0,300.0,1.0,0.0
8779,73.0,0.0,390.0,6.0,0.0
8780,53.0,0.0,300.0,3.0,0.0
8781,46.0,54.0,120.0,8.0,0.0
8782,33.0,30.0,120.0,8.0,0.0
8783,45.0,120.0,120.0,8.0,0.0
8784,53.0,0.0,210.0,3.0,0.0
8785,58.0,0.0,210.0,2.0,0.0
8786,82.0,0.0,210.0,0.0,0.0
8787,73.0,0.0,210.0,1.0,0.0
8788,65.0,0.0,210.0,1.0,0.0
8789,34.0,102.0,120.0,8.0,0.0
8790,61.0,18.0,210.0,2.0,0.0
8791,46.0,120.0,120.0,8.0,0.0
8792,36.0,78.0,120.0,8.0,0.0
8793,48.0,120.0,120.0,8.0,0.0
8794,82.0,0.0,60.0,0.0,0.0
8795,53.0,0.0,60.0,3.0,0.0
8796,61.0,0.0,60.0,2.0,0.0
8797,65.0,42.0,60.0,1.0,0.0
8798,73.0,0.0,60.0,1.0,0.0
8799,58.0,0.0,60.0,2.0,0.0
8800,82.0,0.0,300.0,0.0,0.0
8801,61.0,0.0,300.0,2.0,0.0
8802,58.0,0.0,300.0,2.0,0.0
8803,73.0,0.0,300.0,1.0,0.0
8804,37.0,120.0,120.0,8.0,0.0
8805,65.0,0.0,300.0,1.0,0.0
8806,53.0,66.0,300.0,3.0,0.0
8807,49.0,54.0,120.0,8.0,0.0
8808,36.0,120.0,120.0,8.0,0.0
8809,48.0,120.0,120.0,8.0,0.0
8810,53.0,0.0,300.0,3.0,0.0
8811,82.0,0.0,300.0,0.0,0.0
8812,65.0,0.0,300.0,1.0,0.0
8813,37.0,120.0,120.0,8.0,0.0
8814,58.0,66.0,300.0,2.0,0.0
8815,73.0,0.0,300.0,1.0,0.0
8816,73.0,0.0,390.0,6.0,0.0
8817,61.0,0.0,300.0,2.0,0.0
8818,77.0,90.0,390.0,6.0,0.0
8819,82.0,0.0,390.0,6.0,0.0
8820,49.0,54.0,120.0,8.0,0.0
8821,39.0,30.0,120.0,8.0,0.0
8822,51.0,102.0,120.0,8.0,0.0
8823,57.0,0.0,300.0,2.0,0.0
8824,53.0,60.0,150.0,13.0,0.0
8825,69.0,24.0,300.0,1.0,0.0
8826,72.0,0.0,300.0,1.0,0.0
8827,65.0,0.0,390.0,4.0,0.0
8828,72.0,0.0,300.0,10.0,0.0
8829,65.0,24.0,300.0,10.0,0.0
8830,77.0,0.0,390.0,6.0,0.0
8831,65.0,60.0,90.0,12.0,0.0
8832,81.0,0.0,390.0,6.0,0.0
8833,81.0,0.0,300.0,10.0,0.0
8834,72.0,0.0,390.0,6.0,0.0
8835,53.0,0.0,390.0,8.0,0.0
8836,41.0,0.0,390.0,8.0,0.0
8837,60.0,0.0,300.0,2.0,0.0
8838,53.0,0.0,300.0,3.0,0.0
8839,77.0,0.0,300.0,11.0,0.0
8840,41.0,0.0,150.0,14.0,0.0
8841,81.0,0.0,300.0,0.0,0.0
8842,41.0,12.0,390.0,5.0,0.0
8843,60.0,0.0,300.0,11.0,0.0
8844,69.0,0.0,300.0,11.0,0.0
8845,65.0,72.0,90.0,12.0,0.0
8846,63.0,48.0,90.0,12.0,0.0
8847,51.0,0.0,150.0,13.0,0.0
8848,39.0,60.0,150.0,14.0,0.0
8849,63.0,120.0,90.0,12.0,0.0
8850,81.0,0.0,210.0,0.0,0.0
8851,61.0,60.0,90.0,12.0,0.0
8852,53.0,0.0,210.0,3.0,0.0
8853,65.0,48.0,300.0,4.0,0.0
8854,37.0,60.0,150.0,14.0,0.0
8855,57.0,72.0,210.0,2.0,0.0
8856,69.0,0.0,210.0,1.0,0.0
8857,72.0,0.0,210.0,1.0,0.0
8858,49.0,0.0,150.0,13.0,0.0
8859,60.0,0.0,210.0,2.0,0.0
8860,61.0,0.0,90.0,12.0,0.0
8861,36.0,0.0,150.0,14.0,0.0
8862,77.0,0.0,150.0,11.0,0.0
8863,69.0,0.0,150.0,11.0,0.0
8864,60.0,60.0,90.0,12.0,0.0
8865,81.0,0.0,150.0,10.0,0.0
8866,48.0,0.0,150.0,13.0,0.0
8867,72.0,36.0,150.0,10.0,0.0
8868,53.0,0.0,60.0,3.0,0.0
8869,60.0,0.0,60.0,2.0,0.0
8870,57.0,0.0,60.0,2.0,0.0
8871,60.0,120.0,90.0,12.0,0.0
8872,72.0,0.0,60.0,1.0,0.0
8873,81.0,0.0,60.0,0.0,0.0
8874,69.0,24.0,60.0,1.0,0.0
8875,65.0,0.0,90.0,4.0,0.0
8876,58.0,0.0,300.0,11.0,0.0
8877,65.0,24.0,300.0,11.0,0.0
8878,46.0,12.0,390.0,5.0,0.0
8879,34.0,0.0,150.0,14.0,0.0
8880,82.0,24.0,300.0,0.0,0.0
8881,58.0,60.0,90.0,12.0,0.0
8882,73.0,0.0,300.0,10.0,0.0
8883,82.0,0.0,300.0,10.0,0.0
8884,61.0,0.0,300.0,2.0,0.0
8885,58.0,0.0,300.0,2.0,0.0
8886,73.0,0.0,300.0,1.0,0.0
8887,70.0,0.0,300.0,1.0,0.0
8888,65.0,0.0,390.0,4.0,0.0
8889,53.0,0.0,300.0,3.0,0.0
8890,73.0,0.0,300.0,11.0,0.0
8891,46.0,60.0,150.0,13.0,0.0
8892,58.0,72.0,90.0,12.0,0.0
8893,48.0,0.0,150.0,13.0,0.0
8894,60.0,48.0,90.0,12.0,0.0
8895,36.0,60.0,150.0,14.0,0.0
8896,60.0,120.0,90.0,12.0,0.0
8897,37.0,60.0,150.0,14.0,0.0
8898,49.0,0.0,150.0,13.0,0.0
8899,58.0,0.0,210.0,2.0,0.0
8900,61.0,0.0,210.0,2.0,0.0
8901,73.0,0.0,210.0,1.0,0.0
8902,70.0,0.0,210.0,1.0,0.0
8903,82.0,0.0,210.0,0.0,0.0
8904,65.0,48.0,300.0,4.0,0.0
8905,53.0,0.0,210.0,3.0,0.0
8906,61.0,60.0,90.0,12.0,0.0
8907,61.0,72.0,90.0,12.0,0.0
8908,65.0,0.0,150.0,11.0,0.0
8909,51.0,36.0,150.0,13.0,0.0
8910,82.0,0.0,150.0,10.0,0.0
8911,39.0,0.0,150.0,14.0,0.0
8912,63.0,60.0,90.0,12.0,0.0
8913,73.0,0.0,150.0,11.0,0.0
8914,73.0,0.0,150.0,10.0,0.0
8915,70.0,0.0,60.0,1.0,0.0
8916,73.0,0.0,60.0,1.0,0.0
8917,65.0,0.0,90.0,4.0,0.0
8918,82.0,0.0,60.0,0.0,0.0
8919,63.0,120.0,90.0,12.0,0.0
8920,53.0,0.0,60.0,3.0,0.0
8921,58.0,0.0,60.0,2.0,0.0
8922,61.0,24.0,60.0,2.0,0.0
8923,69.0,24.0,300.0,1.0,0.0
8924,72.0,0.0,300.0,1.0,0.0
8925,53.0,0.0,300.0,3.0,0.0
8926,41.0,12.0,390.0,5.0,0.0
8927,41.0,0.0,150.0,14.0,0.0
8928,81.0,0.0,300.0,0.0,0.0
8929,65.0,60.0,90.0,12.0,0.0
8930,60.0,24.0,300.0,11.0,0.0
8931,57.0,0.0,300.0,2.0,0.0
8932,60.0,0.0,300.0,2.0,0.0
8933,53.0,60.0,150.0,13.0,0.0
8934,72.0,0.0,300.0,10.0,0.0
8935,69.0,0.0,300.0,11.0,0.0
8936,65.0,0.0,390.0,4.0,0.0
8937,77.0,0.0,300.0,11.0,0.0
8938,81.0,0.0,300.0,10.0,0.0
8939,65.0,72.0,90.0,12.0,0.0
8940,39.0,0.0,150.0,14.0,0.0
8941,51.0,60.0,150.0,13.0,0.0
8942,63.0,48.0,90.0,12.0,0.0
8943,63.0,120.0,90.0,12.0,0.0
8944,65.0,48.0,300.0,4.0,0.0
8945,57.0,0.0,210.0,2.0,0.0
8946,53.0,0.0,210.0,3.0,0.0
8947,81.0,0.0,210.0,0.0,0.0
8948,49.0,0.0,150.0,13.0,0.0
8949,61.0,60.0,90.0,12.0,0.0
8950,72.0,0.0,210.0,1.0,0.0
8951,69.0,0.0,210.0,1.0,0.0
8952,60.0,72.0,210.0,2.0,0.0
8953,37.0,60.0,150.0,14.0,0.0
8954,61.0,0.0,90.0,12.0,0.0
8955,36.0,0.0,150.0,14.0,0.0
8956,69.0,0.0,150.0,11.0,0.0
8957,81.0,0.0,150.0,10.0,0.0
8958,48.0,36.0,150.0,13.0,0.0
8959,77.0,0.0,150.0,11.0,0.0
8960,72.0,0.0,150.0,10.0,0.0
8961,60.0,60.0,90.0,12.0,0.0
8962,60.0,0.0,60.0,2.0,0.0
8963,57.0,24.0,60.0,2.0,0.0
8964,60.0,0.0,90.0,12.0,0.0
8965,69.0,0.0,60.0,1.0,0.0
8966,72.0,0.0,60.0,1.0,0.0
8967,53.0,0.0,60.0,3.0,0.0
8968,65.0,120.0,90.0,4.0,0.0
8969,81.0,0.0,60.0,0.0,0.0
8970,65.0,12.0,390.0,4.0,0.0
8971,73.0,0.0,300.0,10.0,0.0
8972,82.0,0.0,300.0,10.0,0.0
8973,34.0,0.0,150.0,14.0,0.0
8974,61.0,0.0,300.0,2.0,0.0
8975,58.0,0.0,300.0,2.0,0.0
8976,65.0,0.0,300.0,11.0,0.0
8977,58.0,24.0,300.0,11.0,0.0
8978,70.0,0.0,300.0,1.0,0.0
8979,73.0,0.0,300.0,11.0,0.0
8980,53.0,24.0,300.0,3.0,0.0
8981,46.0,0.0,390.0,5.0,0.0
8982,46.0,60.0,150.0,13.0,0.0
8983,82.0,0.0,300.0,0.0,0.0
8984,73.0,0.0,300.0,1.0,0.0
8985,58.0,60.0,90.0,12.0,0.0
8986,58.0,72.0,90.0,12.0,0.0
8987,48.0,0.0,150.0,13.0,0.0
8988,36.0,60.0,150.0,14.0,0.0
8989,60.0,48.0,90.0,12.0,0.0
8990,60.0,120.0,90.0,12.0,0.0
8991,70.0,0.0,210.0,1.0,0.0
8992,61.0,60.0,90.0,12.0,0.0
8993,65.0,48.0,300.0,4.0,0.0
8994,82.0,0.0,210.0,0.0,0.0
8995,53.0,0.0,210.0,3.0,0.0
8996,73.0,0.0,210.0,1.0,0.0
8997,58.0,0.0,210.0,2.0,0.0
8998,61.0,72.0,210.0,2.0,0.0
8999,37.0,0.0,150.0,14.0,0.0
9000,49.0,60.0,150.0,13.0,0.0
9001,61.0,0.0,90.0,12.0,0.0
9002,73.0,0.0,150.0,11.0,0.0
9003,65.0,0.0,150.0,11.0,0.0
9004,39.0,0.0,150.0,14.0,0.0
9005,82.0,36.0,150.0,10.0,0.0
9006,51.0,0.0,150.0,13.0,0.0
9007,63.0,60.0,90.0,12.0,0.0
9008,73.0,0.0,150.0,10.0,0.0
9009,53.0,0.0,60.0,3.0,0.0
9010,61.0,0.0,60.0,2.0,0.0
9011,58.0,0.0,60.0,2.0,0.0
9012,65.0,0.0,90.0,4.0,0.0
9013,73.0,24.0,60.0,1.0,0.0
9014,63.0,408.0,90.0,12.0,0.0
9015,70.0,0.0,60.0,1.0,0.0
9016,82.0,0.0,60.0,0.0,0.0
9017,81.0,0.0,390.0,10.0,0.0
9018,69.0,2496.0,390.0,11.0,0.0
9019,72.0,0.0,390.0,1.0,0.0
9020,53.0,0.0,390.0,3.0,0.0
9021,53.0,0.0,390.0,13.0,0.0
9022,41.0,0.0,390.0,14.0,0.0
9023,69.0,0.0,390.0,1.0,0.0
9024,72.0,0.0,390.0,10.0,0.0
9025,81.0,0.0,390.0,0.0,0.0
9026,77.0,0.0,390.0,11.0,0.0
9027,65.0,0.0,390.0,12.0,0.0
9028,60.0,0.0,390.0,11.0,0.0
9029,57.0,0.0,390.0,2.0,0.0
9030,60.0,0.0,390.0,2.0,0.0
9031,65.0,0.0,390.0,4.0,0.0
9032,41.0,0.0,390.0,5.0,0.0
9033,65.0,0.0,390.0,10.0,0.0
9034,73.0,0.0,960.0,1.0,0.0
9035,61.0,0.0,960.0,1.0,0.0
9036,53.0,960.0,960.0,2.0,0.0
9037,49.0,0.0,960.0,2.0,0.0
9038,51.0,0.0,960.0,2.0,0.0
9039,60.0,0.0,960.0,1.0,0.0
9040,72.0,0.0,960.0,1.0,0.0
9041,54.0,384.0,960.0,2.0,0.0
9042,56.0,0.0,390.0,2.0,0.0
9043,61.0,0.0,390.0,1.0,0.0
9044,73.0,0.0,390.0,1.0,0.0
9045,53.0,96.0,390.0,2.0,0.0
9046,68.0,144.0,240.0,6.0,0.0
9047,65.0,240.0,480.0,10.0,0.0
9048,61.0,0.0,480.0,11.0,0.0
9049,80.0,240.0,150.0,6.0,0.0
9050,80.0,96.0,150.0,6.0,0.0
9051,80.0,192.0,240.0,6.0,0.0
9052,63.0,0.0,480.0,11.0,0.0
9053,66.0,240.0,480.0,10.0,0.0
9054,72.0,48.0,180.0,6.0,0.0
9055,65.0,0.0,390.0,11.0,0.0
9056,72.0,144.0,240.0,6.0,0.0
9057,68.0,48.0,390.0,10.0,0.0
9058,73.0,1008.0,180.0,6.0,0.0
9059,75.0,0.0,960.0,1.0,0.0
9060,51.0,0.0,960.0,2.0,0.0
9061,54.0,960.0,960.0,2.0,0.0
9062,63.0,0.0,960.0,1.0,0.0
9063,56.0,384.0,960.0,2.0,0.0
9064,74.0,0.0,960.0,1.0,0.0
9065,62.0,0.0,960.0,1.0,0.0
9066,53.0,0.0,960.0,2.0,0.0
9067,63.0,96.0,390.0,1.0,0.0
9068,75.0,0.0,390.0,1.0,0.0
9069,54.0,0.0,390.0,2.0,0.0
9070,58.0,0.0,390.0,2.0,0.0
9071,70.0,144.0,240.0,6.0,0.0
9072,63.0,0.0,480.0,11.0,0.0
9073,66.0,240.0,480.0,10.0,0.0
9074,82.0,240.0,150.0,6.0,0.0
9075,82.0,96.0,150.0,6.0,0.0
9076,82.0,192.0,240.0,6.0,0.0
9077,68.0,240.0,480.0,10.0,0.0
9078,65.0,0.0,480.0,11.0,0.0
9079,74.0,48.0,180.0,6.0,0.0
9080,66.0,0.0,390.0,11.0,0.0
9081,74.0,144.0,240.0,6.0,0.0
9082,70.0,48.0,390.0,10.0,0.0
9083,75.0,1008.0,180.0,6.0,0.0
9084,77.0,0.0,960.0,1.0,0.0
9085,53.0,960.0,960.0,2.0,0.0
9086,56.0,0.0,960.0,2.0,0.0
9087,65.0,0.0,960.0,1.0,0.0
9088,76.0,384.0,960.0,1.0,0.0
9089,64.0,0.0,960.0,1.0,0.0
9090,58.0,0.0,960.0,2.0,0.0
9091,55.0,0.0,960.0,2.0,0.0
9092,60.0,0.0,390.0,2.0,0.0
9093,56.0,0.0,390.0,2.0,0.0
9094,77.0,96.0,390.0,1.0,0.0
9095,65.0,0.0,390.0,1.0,0.0
9096,72.0,144.0,240.0,6.0,0.0
9097,65.0,0.0,480.0,11.0,0.0
9098,68.0,240.0,480.0,10.0,0.0
9099,84.0,240.0,150.0,6.0,0.0
9100,84.0,96.0,150.0,6.0,0.0
9101,84.0,192.0,240.0,6.0,0.0
9102,67.0,0.0,480.0,11.0,0.0
9103,70.0,240.0,480.0,10.0,0.0
9104,76.0,48.0,180.0,6.0,0.0
9105,72.0,0.0,390.0,10.0,0.0
9106,76.0,144.0,240.0,6.0,0.0
9107,68.0,48.0,390.0,11.0,0.0
9108,77.0,240.0,180.0,6.0,0.0
9109,80.0,24.0,360.0,6.0,0.0
9110,61.0,48.0,390.0,12.0,0.0
9111,58.0,0.0,390.0,8.0,0.0
9112,73.0,168.0,180.0,10.0,0.0
9113,58.0,0.0,390.0,13.0,0.0
9114,46.0,0.0,390.0,14.0,0.0
9115,66.0,24.0,180.0,10.0,0.0
9116,78.0,216.0,90.0,6.0,0.0
9117,82.0,120.0,720.0,6.0,0.0
9118,78.0,240.0,180.0,10.0,0.0
9119,77.0,288.0,180.0,10.0,0.0
9120,48.0,0.0,390.0,14.0,0.0
9121,56.0,0.0,390.0,12.0,0.0
9122,60.0,0.0,390.0,8.0,0.0
9123,75.0,48.0,390.0,10.0,0.0
9124,60.0,0.0,390.0,13.0,0.0
9125,80.0,24.0,120.0,6.0,0.0
9126,63.0,48.0,180.0,11.0,0.0
9127,78.0,192.0,120.0,6.0,0.0
9128,68.0,192.0,180.0,11.0,0.0
9129,77.0,0.0,180.0,6.0,0.0
9130,66.0,408.0,180.0,11.0,0.0
9131,75.0,48.0,150.0,6.0,0.0
9132,49.0,48.0,390.0,14.0,0.0
9133,65.0,0.0,390.0,11.0,0.0
9134,56.0,0.0,390.0,12.0,0.0
9135,61.0,0.0,390.0,8.0,0.0
9136,78.0,24.0,360.0,6.0,0.0
9137,61.0,0.0,390.0,13.0,0.0
9138,68.0,24.0,180.0,10.0,0.0
9139,77.0,216.0,90.0,6.0,0.0
9140,77.0,240.0,180.0,10.0,0.0
9141,80.0,120.0,720.0,6.0,0.0
9142,75.0,288.0,180.0,10.0,0.0
9143,58.0,0.0,390.0,13.0,0.0
9144,73.0,0.0,390.0,10.0,0.0
9145,46.0,0.0,390.0,14.0,0.0
9146,61.0,0.0,390.0,12.0,0.0
9147,58.0,48.0,390.0,8.0,0.0
9148,78.0,24.0,120.0,6.0,0.0
9149,61.0,48.0,180.0,11.0,0.0
9150,77.0,192.0,120.0,6.0,0.0
9151,66.0,0.0,180.0,11.0,0.0
9152,75.0,192.0,180.0,6.0,0.0
9153,65.0,240.0,180.0,11.0,0.0
9154,73.0,48.0,150.0,6.0,0.0
9155,63.0,0.0,390.0,11.0,0.0
9156,43.0,0.0,390.0,14.0,0.0
9157,58.0,0.0,390.0,12.0,0.0
9158,55.0,0.0,390.0,13.0,0.0
9159,55.0,48.0,390.0,8.0,0.0
9160,77.0,192.0,180.0,6.0,0.0
9161,75.0,48.0,390.0,6.0,0.0
9162,70.0,192.0,180.0,10.0,0.0
9163,75.0,240.0,180.0,10.0,0.0
9164,73.0,192.0,180.0,10.0,0.0
9165,83.0,240.0,390.0,6.0,0.0
9166,53.0,48.0,390.0,12.0,0.0
9167,72.0,0.0,390.0,10.0,0.0
9168,45.0,0.0,390.0,14.0,0.0
9169,57.0,0.0,390.0,13.0,0.0
9170,57.0,0.0,390.0,8.0,0.0
9171,84.0,48.0,390.0,6.0,0.0
9172,60.0,192.0,180.0,11.0,0.0
9173,65.0,240.0,180.0,11.0,0.0
9174,72.0,192.0,240.0,6.0,0.0
9175,63.0,48.0,180.0,11.0,0.0
9176,58.0,48.0,390.0,13.0,0.0
9177,58.0,0.0,390.0,8.0,0.0
9178,75.0,192.0,180.0,6.0,0.0
9179,46.0,0.0,390.0,14.0,0.0
9180,53.0,0.0,390.0,12.0,0.0
9181,61.0,0.0,390.0,11.0,0.0
9182,65.0,192.0,180.0,10.0,0.0
9183,73.0,48.0,390.0,6.0,0.0
9184,73.0,240.0,180.0,10.0,0.0
9185,72.0,192.0,180.0,10.0,0.0
9186,81.0,240.0,390.0,6.0,0.0
9187,54.0,48.0,390.0,13.0,0.0
9188,54.0,0.0,390.0,8.0,0.0
9189,42.0,0.0,390.0,14.0,0.0
9190,54.0,0.0,390.0,12.0,0.0
9191,70.0,0.0,390.0,10.0,0.0
9192,58.0,192.0,180.0,11.0,0.0
9193,82.0,48.0,390.0,6.0,0.0
9194,63.0,240.0,180.0,11.0,0.0
9195,70.0,192.0,240.0,6.0,0.0
9196,61.0,48.0,180.0,11.0,0.0
9197,51.0,0.0,390.0,13.0,0.0
9198,71.0,192.0,180.0,6.0,0.0
9199,51.0,0.0,390.0,8.0,0.0
9200,54.0,48.0,390.0,12.0,0.0
9201,60.0,0.0,390.0,11.0,0.0
9202,39.0,0.0,390.0,14.0,0.0
9203,72.0,48.0,390.0,6.0,0.0
9204,66.0,192.0,180.0,10.0,0.0
9205,78.0,240.0,180.0,10.0,0.0
9206,75.0,192.0,180.0,10.0,0.0
9207,75.0,240.0,390.0,6.0,0.0
9208,60.0,0.0,1920.0,12.0,0.0
9209,51.0,0.0,480.0,8.0,0.0
9210,39.0,0.0,480.0,14.0,0.0
9211,72.0,48.0,390.0,10.0,0.0
9212,51.0,144.0,480.0,13.0,0.0
9213,78.0,48.0,390.0,6.0,0.0
9214,54.0,48.0,180.0,11.0,0.0
9215,52.0,0.0,480.0,13.0,0.0
9216,52.0,0.0,480.0,8.0,0.0
9217,40.0,120.0,480.0,14.0,0.0
9218,60.0,240.0,180.0,11.0,0.0
9219,67.0,48.0,180.0,11.0,0.0
9220,70.0,0.0,180.0,6.0,0.0
9221,69.0,0.0,960.0,10.0,0.0
9222,53.0,0.0,960.0,8.0,0.0
9223,57.0,0.0,960.0,8.0,0.0
9224,60.0,120.0,960.0,8.0,0.0
9225,69.0,120.0,120.0,6.0,0.0
9226,41.0,0.0,3840.0,14.0,0.0
9227,65.0,0.0,1920.0,11.0,0.0
9228,72.0,120.0,120.0,6.0,0.0
9229,77.0,120.0,120.0,6.0,0.0
9230,76.0,120.0,120.0,6.0,0.0
9231,77.0,120.0,120.0,6.0,0.0
9232,75.0,120.0,120.0,6.0,0.0
9233,73.0,120.0,120.0,6.0,0.0
9234,72.0,0.0,120.0,6.0,0.0
9235,73.0,120.0,120.0,6.0,0.0
9236,70.0,0.0,960.0,10.0,0.0
9237,61.0,0.0,960.0,12.0,0.0
9238,61.0,0.0,960.0,8.0,0.0
9239,58.0,120.0,960.0,8.0,0.0
9240,75.0,120.0,120.0,6.0,0.0
9241,76.0,120.0,120.0,6.0,0.0
9242,77.0,120.0,120.0,6.0,0.0
9243,75.0,120.0,120.0,6.0,0.0
9244,73.0,120.0,120.0,6.0,0.0
9245,72.0,120.0,120.0,6.0,0.0
9246,70.0,0.0,120.0,6.0,0.0
9247,65.0,0.0,1920.0,12.0,0.0
9248,69.0,0.0,960.0,11.0,0.0
9249,69.0,120.0,120.0,6.0,0.0
9250,60.0,120.0,960.0,8.0,0.0
9251,57.0,0.0,960.0,8.0,0.0
9252,53.0,0.0,15.0,8.0,0.0
9253,72.0,0.0,960.0,10.0,0.0
9254,72.0,120.0,120.0,6.0,0.0
9255,77.0,120.0,120.0,6.0,0.0
9256,76.0,120.0,120.0,6.0,0.0
9257,77.0,120.0,120.0,6.0,0.0
9258,75.0,120.0,120.0,6.0,0.0
9259,73.0,120.0,120.0,6.0,0.0
9260,72.0,0.0,120.0,6.0,0.0
9261,73.0,120.0,120.0,6.0,0.0
9262,61.0,0.0,960.0,8.0,0.0
9263,73.0,0.0,960.0,10.0,0.0
9264,58.0,0.0,960.0,8.0,0.0
9265,70.0,0.0,960.0,11.0,0.0
9266,53.0,0.0,960.0,8.0,0.0
9267,75.0,120.0,120.0,6.0,0.0
9268,76.0,120.0,120.0,6.0,0.0
9269,77.0,120.0,120.0,6.0,0.0
9270,75.0,120.0,120.0,6.0,0.0
9271,73.0,120.0,120.0,6.0,0.0
9272,72.0,120.0,120.0,6.0,0.0
9273,70.0,0.0,120.0,6.0,0.0
9274,69.0,0.0,120.0,6.0,0.0
9275,41.0,96.0,390.0,14.0,0.0
9276,53.0,120.0,15.0,13.0,0.0
9277,65.0,0.0,390.0,12.0,0.0
9278,72.0,0.0,390.0,11.0,0.0
9279,81.0,0.0,390.0,10.0,0.0
9280,57.0,120.0,120.0,8.0,0.0
9281,58.0,120.0,120.0,8.0,0.0
9282,70.0,0.0,120.0,6.0,0.0
9283,72.0,0.0,120.0,6.0,0.0
9284,60.0,24.0,120.0,8.0,0.0
9285,58.0,0.0,120.0,8.0,0.0
9286,70.0,120.0,120.0,6.0,0.0
9287,57.0,0.0,120.0,8.0,0.0
9288,69.0,120.0,120.0,6.0,0.0
9289,66.0,120.0,120.0,6.0,0.0
9290,54.0,0.0,120.0,8.0,0.0
9291,65.0,120.0,120.0,6.0,0.0
9292,53.0,0.0,120.0,8.0,0.0
9293,63.0,120.0,120.0,6.0,0.0
9294,51.0,0.0,120.0,8.0,0.0
9295,61.0,0.0,120.0,6.0,0.0
9296,82.0,96.0,390.0,10.0,0.0
9297,53.0,0.0,390.0,13.0,0.0
9298,65.0,0.0,390.0,12.0,0.0
9299,73.0,0.0,390.0,11.0,0.0
9300,41.0,0.0,390.0,14.0,0.0
9301,49.0,120.0,120.0,8.0,0.0
9302,51.0,0.0,120.0,8.0,0.0
9303,63.0,120.0,120.0,6.0,0.0
9304,64.0,0.0,120.0,6.0,0.0
9305,52.0,24.0,120.0,8.0,0.0
9306,53.0,120.0,120.0,8.0,0.0
9307,65.0,0.0,120.0,6.0,0.0
9308,63.0,120.0,120.0,6.0,0.0
9309,51.0,0.0,120.0,8.0,0.0
9310,49.0,0.0,120.0,8.0,0.0
9311,61.0,120.0,120.0,6.0,0.0
9312,60.0,120.0,120.0,6.0,0.0
9313,48.0,0.0,120.0,8.0,0.0
9314,46.0,0.0,120.0,8.0,0.0
9315,58.0,384.0,120.0,6.0,0.0
9316,41.0,0.0,390.0,13.0,0.0
9317,29.0,0.0,390.0,14.0,0.0
9318,41.0,0.0,390.0,8.0,0.0
9319,53.0,0.0,390.0,8.0,0.0
9320,60.0,0.0,390.0,6.0,0.0
9321,57.0,0.0,390.0,6.0,0.0
9322,65.0,0.0,390.0,6.0,0.0
9323,53.0,0.0,390.0,10.0,0.0
9324,53.0,0.0,390.0,12.0,0.0
9325,53.0,960.0,390.0,11.0,0.0
9326,65.0,480.0,390.0,6.0,0.0
9327,65.0,216.0,390.0,6.0,0.0
9328,46.0,0.0,960.0,8.0,0.0
9329,49.0,0.0,960.0,8.0,0.0
9330,65.0,600.0,120.0,6.0,0.0
9331,53.0,0.0,1920.0,8.0,0.0
9332,73.0,120.0,600.0,6.0,0.0
9333,72.0,120.0,120.0,6.0,0.0
9334,70.0,480.0,120.0,6.0,0.0
9335,51.0,0.0,960.0,8.0,0.0
9336,69.0,480.0,480.0,6.0,0.0
9337,48.0,0.0,960.0,8.0,0.0
9338,72.0,384.0,480.0,6.0,0.0
9339,49.0,0.0,390.0,8.0,0.0
9340,53.0,0.0,390.0,8.0,0.0
9341,70.0,696.0,390.0,6.0,0.0
9342,73.0,0.0,120.0,11.0,0.0
9343,77.0,288.0,120.0,10.0,0.0
9344,61.0,120.0,480.0,6.0,0.0
9345,70.0,0.0,300.0,11.0,0.0
9346,73.0,72.0,300.0,10.0,0.0
9347,65.0,0.0,15.0,6.0,0.0
9348,70.0,288.0,120.0,11.0,0.0
9349,70.0,120.0,480.0,6.0,0.0
9350,73.0,0.0,120.0,10.0,0.0
9351,70.0,0.0,300.0,10.0,0.0
9352,65.0,72.0,300.0,11.0,0.0
9353,70.0,120.0,480.0,6.0,0.0
9354,70.0,288.0,120.0,10.0,0.0
9355,65.0,0.0,120.0,11.0,0.0
9356,61.0,0.0,300.0,11.0,0.0
9357,65.0,72.0,300.0,10.0,0.0
9358,65.0,288.0,120.0,10.0,0.0
9359,61.0,0.0,120.0,11.0,0.0
9360,73.0,0.0,15.0,6.0,0.0
9361,77.0,0.0,480.0,6.0,0.0
9362,58.0,0.0,300.0,11.0,0.0
9363,61.0,72.0,300.0,10.0,0.0
9364,63.0,0.0,180.0,10.0,0.0
9365,72.0,0.0,180.0,6.0,0.0
9366,60.0,0.0,180.0,11.0,0.0
9367,57.0,0.0,180.0,8.0,0.0
9368,33.0,480.0,180.0,14.0,0.0
9369,53.0,0.0,180.0,12.0,0.0
9370,45.0,0.0,180.0,13.0,0.0
9371,75.0,0.0,180.0,6.0,0.0
9372,58.0,0.0,180.0,11.0,0.0
9373,46.0,0.0,180.0,13.0,0.0
9374,61.0,0.0,180.0,10.0,0.0
9375,34.0,0.0,180.0,14.0,0.0
9376,58.0,0.0,180.0,8.0,0.0
9377,53.0,0.0,180.0,12.0,0.0
9378,70.0,0.0,180.0,6.0,0.0
9379,73.0,672.0,180.0,6.0,0.0
9380,29.0,960.0,390.0,14.0,0.0
9381,53.0,0.0,390.0,12.0,0.0
9382,69.0,0.0,390.0,6.0,0.0
9383,72.0,0.0,390.0,6.0,0.0
9384,53.0,0.0,390.0,8.0,0.0
9385,57.0,0.0,390.0,11.0,0.0
9386,60.0,0.0,390.0,10.0,0.0
9387,41.0,0.0,390.0,13.0,0.0
9388,66.0,480.0,390.0,6.0,0.0
9389,66.0,216.0,390.0,6.0,0.0
9390,66.0,600.0,120.0,6.0,0.0
9391,78.0,120.0,600.0,6.0,0.0
9392,77.0,120.0,120.0,6.0,0.0
9393,75.0,480.0,120.0,6.0,0.0
9394,74.0,480.0,480.0,6.0,0.0
9395,77.0,384.0,480.0,6.0,0.0
9396,54.0,696.0,390.0,8.0,0.0
9397,75.0,0.0,390.0,6.0,0.0
9398,58.0,0.0,390.0,8.0,0.0
9399,70.0,0.0,480.0,6.0,0.0
9400,64.0,0.0,1350.0,7.0,0.0
9401,73.0,120.0,480.0,6.0,0.0
9402,76.0,0.0,120.0,11.0,0.0
9403,58.0,24.0,1350.0,7.0,0.0
9404,82.0,288.0,120.0,10.0,0.0
9405,55.0,0.0,1350.0,7.0,0.0
9406,76.0,72.0,300.0,10.0,0.0
9407,73.0,0.0,300.0,11.0,0.0
9408,76.0,288.0,120.0,10.0,0.0
9409,76.0,0.0,480.0,6.0,0.0
9410,73.0,0.0,120.0,11.0,0.0
9411,73.0,120.0,480.0,6.0,0.0
9412,70.0,72.0,300.0,11.0,0.0
9413,73.0,0.0,300.0,10.0,0.0
9414,76.0,0.0,480.0,6.0,0.0
9415,70.0,264.0,120.0,11.0,0.0
9416,73.0,0.0,120.0,10.0,0.0
9417,70.0,72.0,300.0,10.0,0.0
9418,64.0,0.0,300.0,11.0,0.0
9419,85.0,192.0,480.0,6.0,0.0
9420,82.0,120.0,15.0,6.0,0.0
9421,70.0,0.0,120.0,10.0,0.0
9422,63.0,288.0,120.0,11.0,0.0
9423,61.0,72.0,300.0,11.0,0.0
9424,64.0,0.0,300.0,10.0,0.0
9425,53.0,0.0,180.0,7.0,0.0
9426,65.0,0.0,180.0,7.0,0.0
9427,65.0,0.0,180.0,10.0,0.0
9428,58.0,0.0,180.0,12.0,0.0
9429,61.0,0.0,180.0,11.0,0.0
9430,53.0,480.0,180.0,13.0,0.0
9431,77.0,0.0,180.0,6.0,0.0
9432,70.0,0.0,180.0,6.0,0.0
9433,73.0,0.0,180.0,6.0,0.0
9434,41.0,0.0,180.0,14.0,0.0
9435,57.0,0.0,180.0,12.0,0.0
9436,72.0,672.0,180.0,6.0,0.0
9437,77.0,0.0,180.0,6.0,0.0
9438,69.0,0.0,180.0,6.0,0.0
9439,65.0,0.0,180.0,7.0,0.0
9440,53.0,0.0,180.0,7.0,0.0
9441,65.0,0.0,180.0,10.0,0.0
9442,60.0,0.0,180.0,11.0,0.0
9443,41.0,0.0,180.0,14.0,0.0
9444,53.0,0.0,180.0,13.0,0.0
9445,58.0,0.0,390.0,11.0,0.0
9446,58.0,0.0,390.0,12.0,0.0
9447,46.0,0.0,390.0,13.0,0.0
9448,58.0,998.0,390.0,7.0,0.0
9449,34.0,0.0,390.0,14.0,0.0
9450,58.0,0.0,390.0,10.0,0.0
9451,70.0,0.0,390.0,6.0,0.0
9452,65.0,480.0,420.0,1.0,0.0
9453,65.0,214.0,420.0,1.0,0.0
9454,65.0,0.0,960.0,10.0,0.0
9455,73.0,120.0,720.0,1.0,0.0
9456,65.0,0.0,2310.0,1.0,0.0
9457,53.0,12.0,2310.0,12.0,0.0
9458,61.0,0.0,960.0,11.0,0.0
9459,46.0,0.0,960.0,13.0,0.0
9460,46.0,240.0,150.0,2.0,0.0
9461,49.0,240.0,150.0,2.0,0.0
9462,53.0,84.0,150.0,2.0,0.0
9463,58.0,84.0,150.0,2.0,0.0
9464,72.0,36.0,120.0,1.0,0.0
9465,70.0,156.0,120.0,1.0,0.0
9466,63.0,0.0,960.0,10.0,0.0
9467,69.0,0.0,480.0,1.0,0.0
9468,48.0,0.0,960.0,13.0,0.0
9469,60.0,156.0,480.0,11.0,0.0
9470,48.0,240.0,150.0,2.0,0.0
9471,51.0,84.0,150.0,2.0,0.0
9472,72.0,156.0,480.0,1.0,0.0
9473,57.0,240.0,150.0,2.0,0.0
9474,57.0,0.0,480.0,11.0,0.0
9475,60.0,84.0,150.0,2.0,0.0
9476,70.0,0.0,390.0,1.0,0.0
9477,49.0,228.0,150.0,2.0,0.0
9478,49.0,0.0,390.0,13.0,0.0
9479,61.0,0.0,390.0,10.0,0.0
9480,58.0,0.0,390.0,11.0,0.0
9481,53.0,240.0,150.0,2.0,0.0
9482,58.0,240.0,150.0,2.0,0.0
9483,61.0,240.0,150.0,2.0,0.0
9484,61.0,0.0,480.0,1.0,0.0
9485,58.0,84.0,150.0,2.0,0.0
9486,65.0,0.0,480.0,1.0,0.0
9487,77.0,24.0,1860.0,0.0,0.0
9488,77.0,120.0,240.0,6.0,0.0
9489,61.0,84.0,150.0,2.0,0.0
9490,75.0,36.0,120.0,6.0,0.0
9491,73.0,120.0,120.0,6.0,0.0
9492,65.0,0.0,480.0,1.0,0.0
9493,53.0,84.0,150.0,2.0,0.0
9494,72.0,36.0,120.0,6.0,0.0
9495,70.0,120.0,120.0,6.0,0.0
9496,58.0,84.0,150.0,2.0,0.0
9497,68.0,36.0,120.0,6.0,0.0
9498,66.0,0.0,120.0,6.0,0.0
9499,49.0,84.0,150.0,2.0,0.0
9500,65.0,36.0,120.0,6.0,0.0
9501,70.0,120.0,15.0,1.0,0.0
9502,73.0,0.0,480.0,1.0,0.0
9503,63.0,120.0,120.0,6.0,0.0
9504,61.0,36.0,120.0,6.0,0.0
9505,53.0,84.0,150.0,2.0,0.0
9506,60.0,120.0,120.0,6.0,0.0
9507,46.0,84.0,150.0,2.0,0.0
9508,58.0,36.0,120.0,6.0,0.0
9509,73.0,0.0,450.0,1.0,0.0
9510,77.0,24.0,450.0,1.0,0.0
9511,56.0,120.0,120.0,6.0,0.0
9512,54.0,36.0,120.0,6.0,0.0
9513,49.0,36.0,150.0,2.0,0.0
9514,53.0,156.0,120.0,6.0,0.0
9515,65.0,0.0,180.0,3.0,0.0
9516,87.0,0.0,180.0,0.0,0.0
9517,48.0,0.0,180.0,7.0,0.0
9518,51.0,0.0,180.0,7.0,0.0
9519,33.0,204.0,180.0,8.0,0.0
9520,45.0,36.0,150.0,2.0,0.0
9521,53.0,0.0,180.0,3.0,0.0
9522,75.0,0.0,180.0,1.0,0.0
9523,72.0,0.0,180.0,1.0,0.0
9524,41.0,240.0,150.0,2.0,0.0
9525,53.0,0.0,180.0,3.0,0.0
9526,46.0,0.0,180.0,7.0,0.0
9527,65.0,0.0,180.0,3.0,0.0
9528,70.0,0.0,180.0,1.0,0.0
9529,46.0,36.0,150.0,2.0,0.0
9530,49.0,0.0,180.0,7.0,0.0
9531,73.0,0.0,180.0,1.0,0.0
9532,85.0,204.0,180.0,0.0,0.0
9533,34.0,0.0,180.0,8.0,0.0
9534,49.0,240.0,150.0,2.0,0.0
9535,69.0,58.0,420.0,1.0,0.0
9536,72.0,0.0,420.0,1.0,0.0
9537,41.0,228.0,150.0,2.0,0.0
9538,53.0,0.0,390.0,3.0,0.0
9539,65.0,0.0,390.0,3.0,0.0
9540,84.0,0.0,390.0,0.0,0.0
9541,45.0,0.0,390.0,7.0,0.0
9542,48.0,0.0,390.0,7.0,0.0
9543,29.0,38.0,390.0,8.0,0.0
9544,53.0,240.0,240.0,2.0,0.0
9545,52.0,156.0,240.0,2.0,0.0
9546,53.0,240.0,150.0,2.0,0.0
9547,66.0,214.0,420.0,1.0,0.0
9548,54.0,240.0,150.0,2.0,0.0
9549,51.0,26.0,150.0,2.0,0.0
9550,66.0,202.0,420.0,1.0,0.0
9551,47.0,240.0,150.0,2.0,0.0
9552,42.0,26.0,150.0,2.0,0.0
9553,59.0,0.0,960.0,12.0,0.0
9554,39.0,240.0,150.0,2.0,0.0
9555,66.0,0.0,960.0,10.0,0.0
9556,66.0,0.0,960.0,1.0,0.0
9557,78.0,120.0,720.0,1.0,0.0
9558,51.0,144.0,960.0,13.0,0.0
9559,63.0,0.0,960.0,11.0,0.0
9560,42.0,240.0,150.0,2.0,0.0
9561,47.0,96.0,150.0,2.0,0.0
9562,77.0,24.0,120.0,1.0,0.0
9563,51.0,96.0,150.0,2.0,0.0
9564,75.0,0.0,120.0,1.0,0.0
9565,41.0,240.0,150.0,2.0,0.0
9566,62.0,144.0,960.0,11.0,0.0
9567,56.0,0.0,960.0,12.0,0.0
9568,65.0,0.0,960.0,10.0,0.0
9569,53.0,0.0,960.0,13.0,0.0
9570,71.0,144.0,720.0,1.0,0.0
9571,74.0,144.0,480.0,1.0,0.0
9572,44.0,96.0,150.0,2.0,0.0
9573,50.0,96.0,150.0,2.0,0.0
9574,77.0,0.0,480.0,1.0,0.0
9575,70.0,0.0,240.0,1.0,0.0
9576,53.0,96.0,150.0,2.0,0.0
9577,63.0,240.0,390.0,10.0,0.0
9578,70.0,0.0,390.0,1.0,0.0
9579,75.0,0.0,390.0,1.0,0.0
9580,42.0,240.0,150.0,2.0,0.0
9581,63.0,0.0,390.0,11.0,0.0
9582,54.0,0.0,390.0,13.0,0.0
9583,58.0,0.0,390.0,12.0,0.0
9584,46.0,0.0,150.0,2.0,0.0
9585,51.0,240.0,150.0,2.0,0.0
9586,54.0,176.0,150.0,2.0,0.0
9587,64.0,0.0,480.0,1.0,0.0
9588,82.0,80.0,1440.0,0.0,0.0
9589,58.0,64.0,90.0,6.0,0.0
9590,55.0,16.0,150.0,2.0,0.0
9591,60.0,80.0,90.0,6.0,0.0
9592,58.0,80.0,90.0,6.0,0.0
9593,57.0,64.0,90.0,6.0,0.0
9594,58.0,16.0,150.0,2.0,0.0
9595,58.0,80.0,90.0,6.0,0.0
9596,59.0,80.0,90.0,6.0,0.0
9597,49.0,16.0,150.0,2.0,0.0
9598,70.0,0.0,15.0,1.0,0.0
9599,73.0,0.0,480.0,1.0,0.0
9600,60.0,64.0,90.0,6.0,0.0
9601,61.0,80.0,90.0,6.0,0.0
9602,62.0,80.0,90.0,6.0,0.0
9603,63.0,64.0,90.0,6.0,0.0
9604,55.0,16.0,150.0,2.0,0.0
9605,64.0,80.0,90.0,6.0,0.0
9606,65.0,80.0,90.0,6.0,0.0
9607,46.0,16.0,150.0,2.0,0.0
9608,66.0,64.0,90.0,6.0,0.0
9609,73.0,0.0,480.0,1.0,0.0
9610,67.0,80.0,90.0,6.0,0.0
9611,68.0,80.0,90.0,6.0,0.0
9612,49.0,16.0,150.0,2.0,0.0
9613,69.0,64.0,90.0,6.0,0.0
9614,70.0,80.0,90.0,6.0,0.0
9615,71.0,0.0,90.0,6.0,0.0
9616,76.0,0.0,15.0,1.0,0.0
9617,82.0,0.0,480.0,1.0,0.0
9618,72.0,64.0,90.0,6.0,0.0
9619,43.0,16.0,150.0,2.0,0.0
9620,85.0,144.0,480.0,0.0,0.0
9621,73.0,80.0,90.0,6.0,0.0
9622,74.0,120.0,90.0,6.0,0.0
9623,75.0,24.0,120.0,6.0,0.0
9624,46.0,72.0,150.0,2.0,0.0
9625,76.0,24.0,90.0,6.0,0.0
9626,77.0,0.0,180.0,6.0,0.0
9627,73.0,0.0,180.0,1.0,0.0
9628,61.0,0.0,180.0,7.0,0.0
9629,70.0,192.0,180.0,1.0,0.0
9630,41.0,48.0,150.0,2.0,0.0
9631,58.0,0.0,180.0,7.0,0.0
9632,65.0,0.0,180.0,3.0,0.0
9633,77.0,0.0,180.0,0.0,0.0
9634,53.0,0.0,180.0,7.0,0.0
9635,53.0,0.0,180.0,3.0,0.0
9636,53.0,240.0,150.0,2.0,0.0
9637,77.0,0.0,180.0,0.0,0.0
9638,57.0,0.0,180.0,7.0,0.0
9639,60.0,0.0,180.0,7.0,0.0
9640,41.0,48.0,150.0,2.0,0.0
9641,77.0,0.0,180.0,6.0,0.0
9642,65.0,0.0,180.0,3.0,0.0
9643,69.0,0.0,180.0,1.0,0.0
9644,72.0,192.0,180.0,1.0,0.0
9645,53.0,0.0,180.0,7.0,0.0
9646,53.0,0.0,180.0,3.0,0.0
9647,53.0,216.0,150.0,2.0,0.0
9648,70.0,0.0,390.0,0.0,0.0
9649,58.0,0.0,390.0,7.0,0.0
9650,46.0,0.0,390.0,2.0,0.0
9651,46.0,96.0,390.0,3.0,0.0
9652,70.0,0.0,390.0,1.0,0.0
9653,70.0,120.0,120.0,6.0,0.0
9654,58.0,0.0,390.0,3.0,0.0
9655,77.0,120.0,120.0,6.0,0.0
9656,76.0,24.0,120.0,6.0,0.0
9657,77.0,120.0,120.0,6.0,0.0
9658,76.0,120.0,120.0,6.0,0.0
9659,77.0,120.0,120.0,6.0,0.0
9660,76.0,120.0,120.0,6.0,0.0
9661,77.0,120.0,120.0,6.0,0.0
9662,76.0,120.0,120.0,6.0,0.0
9663,77.0,120.0,120.0,6.0,0.0
9664,78.0,120.0,120.0,6.0,0.0
9665,77.0,120.0,120.0,6.0,0.0
9666,75.0,120.0,120.0,6.0,0.0
9667,73.0,120.0,120.0,6.0,0.0
9668,72.0,120.0,120.0,6.0,0.0
9669,70.0,120.0,120.0,6.0,0.0
9670,69.0,96.0,150.0,6.0,0.0
9671,53.0,0.0,1920.0,13.0,0.0
9672,53.0,24.0,120.0,7.0,0.0
9673,41.0,120.0,1920.0,14.0,0.0
9674,65.0,120.0,120.0,7.0,0.0
9675,75.0,0.0,240.0,6.0,0.0
9676,69.0,0.0,240.0,10.0,0.0
9677,63.0,0.0,240.0,11.0,0.0
9678,66.0,120.0,120.0,7.0,0.0
9679,60.0,0.0,240.0,12.0,0.0
9680,65.0,120.0,120.0,7.0,0.0
9681,84.0,120.0,240.0,6.0,0.0
9682,66.0,0.0,240.0,11.0,0.0
9683,63.0,120.0,120.0,7.0,0.0
9684,72.0,0.0,240.0,10.0,0.0
9685,63.0,0.0,240.0,12.0,0.0
9686,65.0,0.0,120.0,7.0,0.0
9687,65.0,0.0,240.0,11.0,0.0
9688,61.0,0.0,240.0,12.0,0.0
9689,61.0,120.0,120.0,7.0,0.0
9690,82.0,0.0,240.0,6.0,0.0
9691,70.0,120.0,240.0,10.0,0.0
9692,65.0,0.0,120.0,7.0,0.0
9693,81.0,0.0,240.0,6.0,0.0
9694,60.0,0.0,240.0,12.0,0.0
9695,63.0,0.0,240.0,11.0,0.0
9696,60.0,120.0,120.0,7.0,0.0
9697,69.0,120.0,240.0,10.0,0.0
9698,65.0,0.0,120.0,7.0,0.0
9699,58.0,120.0,120.0,7.0,0.0
9700,58.0,0.0,240.0,12.0,0.0
9701,66.0,0.0,240.0,10.0,0.0
9702,61.0,0.0,240.0,11.0,0.0
9703,78.0,0.0,240.0,6.0,0.0
9704,65.0,120.0,120.0,7.0,0.0
9705,60.0,0.0,240.0,11.0,0.0
9706,57.0,0.0,240.0,12.0,0.0
9707,77.0,120.0,240.0,6.0,0.0
9708,65.0,0.0,240.0,10.0,0.0
9709,57.0,120.0,120.0,7.0,0.0
9710,65.0,0.0,120.0,7.0,0.0
9711,57.0,0.0,240.0,11.0,0.0
9712,60.0,0.0,240.0,12.0,0.0
9713,53.0,120.0,120.0,7.0,0.0
9714,75.0,0.0,240.0,6.0,0.0
9715,63.0,0.0,240.0,10.0,0.0
9716,65.0,0.0,120.0,7.0,0.0
9717,58.0,0.0,390.0,11.0,0.0
9718,70.0,120.0,120.0,6.0,0.0
9719,58.0,0.0,390.0,7.0,0.0
9720,61.0,0.0,390.0,10.0,0.0
9721,58.0,0.0,390.0,12.0,0.0
9722,46.0,0.0,390.0,13.0,0.0
9723,34.0,96.0,390.0,14.0,0.0
9724,77.0,120.0,120.0,6.0,0.0
9725,76.0,24.0,120.0,6.0,0.0
9726,77.0,120.0,120.0,6.0,0.0
9727,76.0,120.0,120.0,6.0,0.0
9728,77.0,120.0,120.0,6.0,0.0
9729,76.0,120.0,120.0,6.0,0.0
9730,77.0,120.0,120.0,6.0,0.0
9731,76.0,120.0,120.0,6.0,0.0
9732,77.0,120.0,120.0,6.0,0.0
9733,78.0,120.0,120.0,6.0,0.0
9734,77.0,120.0,120.0,6.0,0.0
9735,75.0,120.0,120.0,6.0,0.0
9736,73.0,120.0,120.0,6.0,0.0
9737,72.0,120.0,120.0,6.0,0.0
9738,70.0,120.0,120.0,6.0,0.0
9739,53.0,0.0,1920.0,13.0,0.0
9740,53.0,24.0,120.0,7.0,0.0
9741,41.0,0.0,1920.0,14.0,0.0
9742,69.0,96.0,150.0,6.0,0.0
9743,65.0,120.0,120.0,7.0,0.0
9744,66.0,120.0,120.0,7.0,0.0
9745,60.0,0.0,240.0,12.0,0.0
9746,63.0,0.0,240.0,11.0,0.0
9747,75.0,0.0,240.0,6.0,0.0
9748,69.0,0.0,240.0,10.0,0.0
9749,65.0,120.0,120.0,7.0,0.0
9750,63.0,120.0,120.0,7.0,0.0
9751,72.0,0.0,240.0,10.0,0.0
9752,63.0,0.0,240.0,12.0,0.0
9753,84.0,0.0,240.0,6.0,0.0
9754,66.0,120.0,240.0,11.0,0.0
9755,65.0,0.0,120.0,7.0,0.0
9756,61.0,0.0,240.0,12.0,0.0
9757,61.0,120.0,120.0,7.0,0.0
9758,65.0,0.0,240.0,11.0,0.0
9759,70.0,0.0,240.0,10.0,0.0
9760,82.0,0.0,240.0,6.0,0.0
9761,65.0,120.0,120.0,7.0,0.0
9762,69.0,0.0,240.0,10.0,0.0
9763,60.0,0.0,240.0,12.0,0.0
9764,60.0,120.0,120.0,7.0,0.0
9765,63.0,120.0,240.0,11.0,0.0
9766,81.0,0.0,240.0,6.0,0.0
9767,65.0,0.0,120.0,7.0,0.0
9768,78.0,120.0,240.0,6.0,0.0
9769,58.0,0.0,240.0,12.0,0.0
9770,66.0,0.0,240.0,10.0,0.0
9771,61.0,0.0,240.0,11.0,0.0
9772,58.0,120.0,120.0,7.0,0.0
9773,65.0,0.0,120.0,7.0,0.0
9774,57.0,0.0,240.0,12.0,0.0
9775,65.0,0.0,240.0,10.0,0.0
9776,57.0,120.0,120.0,7.0,0.0
9777,60.0,120.0,240.0,11.0,0.0
9778,77.0,0.0,240.0,6.0,0.0
9779,65.0,0.0,120.0,7.0,0.0
9780,53.0,120.0,120.0,7.0,0.0
9781,57.0,0.0,240.0,11.0,0.0
9782,63.0,0.0,240.0,10.0,0.0
9783,75.0,0.0,240.0,6.0,0.0
9784,60.0,0.0,240.0,12.0,0.0
9785,65.0,120.0,120.0,7.0,0.0
9786,62.0,0.0,150.0,10.0,0.0
9787,58.0,0.0,150.0,11.0,0.0
9788,57.0,24.0,120.0,7.0,0.0
9789,74.0,96.0,150.0,6.0,0.0
9790,46.0,0.0,1920.0,13.0,0.0
9791,34.0,0.0,1920.0,14.0,0.0
9792,58.0,0.0,150.0,12.0,0.0
9793,58.0,120.0,120.0,7.0,0.0
9794,74.0,0.0,240.0,10.0,0.0
9795,58.0,0.0,240.0,12.0,0.0
9796,74.0,0.0,240.0,6.0,0.0
9797,59.0,120.0,120.0,7.0,0.0
9798,65.0,0.0,240.0,11.0,0.0
9799,58.0,120.0,120.0,7.0,0.0
9800,56.0,120.0,120.0,7.0,0.0
9801,77.0,0.0,240.0,6.0,0.0
9802,71.0,120.0,240.0,11.0,0.0
9803,56.0,0.0,240.0,12.0,0.0
9804,77.0,0.0,240.0,10.0,0.0
9805,58.0,0.0,120.0,7.0,0.0
9806,75.0,0.0,240.0,6.0,0.0
9807,54.0,0.0,240.0,12.0,0.0
9808,70.0,0.0,240.0,11.0,0.0
9809,75.0,120.0,240.0,10.0,0.0
9810,54.0,120.0,120.0,7.0,0.0
9811,58.0,0.0,120.0,7.0,0.0
9812,53.0,120.0,120.0,7.0,0.0
9813,53.0,0.0,240.0,12.0,0.0
9814,74.0,0.0,240.0,6.0,0.0
9815,68.0,0.0,240.0,11.0,0.0
9816,74.0,120.0,240.0,10.0,0.0
9817,58.0,0.0,120.0,7.0,0.0
9818,51.0,120.0,120.0,7.0,0.0
9819,71.0,0.0,240.0,10.0,0.0
9820,51.0,0.0,240.0,12.0,0.0
9821,66.0,0.0,240.0,11.0,0.0
9822,71.0,120.0,240.0,6.0,0.0
9823,58.0,0.0,120.0,7.0,0.0
9824,50.0,0.0,240.0,12.0,0.0
9825,70.0,0.0,240.0,6.0,0.0
9826,70.0,0.0,240.0,10.0,0.0
9827,65.0,120.0,240.0,11.0,0.0
9828,50.0,120.0,120.0,7.0,0.0
9829,58.0,0.0,120.0,7.0,0.0
9830,53.0,0.0,240.0,12.0,0.0
9831,68.0,120.0,240.0,10.0,0.0
9832,62.0,0.0,240.0,11.0,0.0
9833,68.0,0.0,240.0,6.0,0.0
9834,46.0,120.0,120.0,7.0,0.0
9835,58.0,0.0,120.0,7.0,0.0
9836,51.0,0.0,180.0,7.0,0.0
9837,39.0,96.0,390.0,14.0,0.0
9838,63.0,48.0,180.0,11.0,0.0
9839,66.0,0.0,180.0,10.0,0.0
9840,66.0,72.0,120.0,6.0,0.0
9841,51.0,0.0,390.0,13.0,0.0
9842,51.0,0.0,180.0,12.0,0.0
9843,70.0,120.0,120.0,6.0,0.0
9844,78.0,24.0,120.0,6.0,0.0
9845,77.0,120.0,120.0,6.0,0.0
9846,75.0,24.0,120.0,6.0,0.0
9847,66.0,0.0,150.0,7.0,0.0
9848,66.0,0.0,150.0,12.0,0.0
9849,70.0,0.0,150.0,11.0,0.0
9850,75.0,96.0,150.0,10.0,0.0
9851,78.0,120.0,120.0,6.0,0.0
9852,65.0,96.0,150.0,7.0,0.0
9853,66.0,0.0,150.0,12.0,0.0
9854,73.0,0.0,150.0,10.0,0.0
9855,68.0,0.0,150.0,11.0,0.0
9856,73.0,24.0,120.0,6.0,0.0
9857,78.0,120.0,120.0,6.0,0.0
9858,71.0,24.0,120.0,6.0,0.0
9859,71.0,96.0,150.0,10.0,0.0
9860,66.0,0.0,150.0,11.0,0.0
9861,63.0,0.0,150.0,12.0,0.0
9862,63.0,0.0,150.0,7.0,0.0
9863,78.0,120.0,120.0,6.0,0.0
9864,75.0,24.0,120.0,6.0,0.0
9865,66.0,96.0,150.0,7.0,0.0
9866,78.0,120.0,120.0,6.0,0.0
9867,71.0,0.0,150.0,10.0,0.0
9868,63.0,96.0,150.0,7.0,0.0
9869,66.0,0.0,150.0,11.0,0.0
9870,71.0,24.0,120.0,6.0,0.0
9871,63.0,0.0,150.0,12.0,0.0
9872,78.0,120.0,120.0,6.0,0.0
9873,70.0,24.0,120.0,6.0,0.0
9874,61.0,96.0,150.0,7.0,0.0
9875,65.0,0.0,150.0,11.0,0.0
9876,61.0,0.0,150.0,12.0,0.0
9877,70.0,0.0,150.0,10.0,0.0
9878,78.0,120.0,120.0,6.0,0.0
9879,60.0,0.0,150.0,12.0,0.0
9880,60.0,0.0,150.0,7.0,0.0
9881,69.0,0.0,150.0,10.0,0.0
9882,63.0,96.0,150.0,11.0,0.0
9883,69.0,24.0,120.0,6.0,0.0
9884,75.0,120.0,120.0,6.0,0.0
9885,72.0,24.0,120.0,6.0,0.0
9886,63.0,96.0,150.0,7.0,0.0
9887,75.0,120.0,120.0,6.0,0.0
9888,69.0,24.0,120.0,6.0,0.0
9889,69.0,0.0,150.0,10.0,0.0
9890,60.0,0.0,150.0,7.0,0.0
9891,60.0,96.0,150.0,12.0,0.0
9892,63.0,0.0,150.0,11.0,0.0
9893,75.0,120.0,120.0,6.0,0.0
9894,61.0,0.0,150.0,11.0,0.0
9895,58.0,0.0,150.0,12.0,0.0
9896,66.0,96.0,150.0,10.0,0.0
9897,58.0,0.0,150.0,7.0,0.0
9898,66.0,24.0,120.0,6.0,0.0
9899,75.0,120.0,120.0,6.0,0.0
9900,60.0,0.0,150.0,11.0,0.0
9901,57.0,96.0,150.0,7.0,0.0
9902,65.0,0.0,150.0,10.0,0.0
9903,57.0,0.0,150.0,12.0,0.0
9904,65.0,24.0,120.0,6.0,0.0
9905,72.0,120.0,120.0,6.0,0.0
9906,69.0,24.0,120.0,6.0,0.0
9907,60.0,96.0,150.0,7.0,0.0
9908,72.0,120.0,120.0,6.0,0.0
9909,65.0,0.0,150.0,10.0,0.0
9910,57.0,0.0,150.0,7.0,0.0
9911,60.0,96.0,150.0,11.0,0.0
9912,57.0,0.0,150.0,12.0,0.0
9913,65.0,24.0,120.0,6.0,0.0
9914,72.0,120.0,120.0,6.0,0.0
9915,63.0,24.0,120.0,6.0,0.0
9916,63.0,96.0,150.0,10.0,0.0
9917,53.0,0.0,150.0,12.0,0.0
9918,57.0,0.0,150.0,11.0,0.0
9919,53.0,0.0,150.0,7.0,0.0
9920,72.0,144.0,120.0,6.0,0.0
9921,61.0,0.0,150.0,10.0,0.0
9922,58.0,0.0,150.0,12.0,0.0
9923,61.0,0.0,150.0,6.0,0.0
9924,58.0,96.0,150.0,11.0,0.0
9925,58.0,120.0,120.0,8.0,0.0
9926,56.0,24.0,120.0,8.0,0.0
9927,65.0,96.0,150.0,6.0,0.0
9928,58.0,120.0,120.0,8.0,0.0
9929,70.0,0.0,150.0,10.0,0.0
9930,70.0,0.0,150.0,6.0,0.0
9931,58.0,0.0,150.0,12.0,0.0
9932,61.0,0.0,150.0,11.0,0.0
9933,54.0,24.0,120.0,8.0,0.0
9934,54.0,0.0,150.0,13.0,0.0
9935,42.0,96.0,150.0,14.0,0.0
9936,58.0,120.0,120.0,8.0,0.0
9937,53.0,96.0,150.0,13.0,0.0
9938,68.0,0.0,150.0,6.0,0.0
9939,41.0,0.0,150.0,14.0,0.0
9940,53.0,24.0,120.0,8.0,0.0
9941,58.0,0.0,150.0,12.0,0.0
9942,68.0,0.0,150.0,10.0,0.0
9943,62.0,0.0,150.0,11.0,0.0
9944,58.0,120.0,120.0,8.0,0.0
9945,66.0,96.0,150.0,6.0,0.0
9946,51.0,0.0,150.0,13.0,0.0
9947,58.0,0.0,150.0,12.0,0.0
9948,66.0,0.0,150.0,10.0,0.0
9949,63.0,0.0,150.0,11.0,0.0
9950,39.0,0.0,150.0,14.0,0.0
9951,51.0,24.0,120.0,8.0,0.0
9952,58.0,120.0,120.0,8.0,0.0
9953,70.0,96.0,150.0,6.0,0.0
9954,54.0,24.0,120.0,8.0,0.0
9955,58.0,120.0,120.0,8.0,0.0
9956,51.0,0.0,150.0,12.0,0.0
9957,39.0,0.0,150.0,14.0,0.0
9958,66.0,96.0,150.0,6.0,0.0
9959,66.0,0.0,150.0,10.0,0.0
9960,51.0,0.0,150.0,13.0,0.0
9961,58.0,0.0,150.0,11.0,0.0
9962,51.0,24.0,120.0,8.0,0.0
9963,58.0,120.0,120.0,8.0,0.0
9964,65.0,0.0,150.0,6.0,0.0
9965,49.0,24.0,120.0,8.0,0.0
9966,49.0,0.0,150.0,13.0,0.0
9967,37.0,96.0,150.0,14.0,0.0
9968,65.0,0.0,150.0,10.0,0.0
9969,58.0,0.0,150.0,11.0,0.0
9970,53.0,0.0,150.0,12.0,0.0
9971,58.0,120.0,120.0,8.0,0.0
9972,57.0,0.0,150.0,11.0,0.0
9973,48.0,24.0,120.0,8.0,0.0
9974,54.0,0.0,150.0,12.0,0.0
9975,63.0,0.0,150.0,6.0,0.0
9976,48.0,96.0,150.0,13.0,0.0
9977,36.0,0.0,150.0,14.0,0.0
9978,63.0,0.0,150.0,10.0,0.0
9979,54.0,120.0,120.0,8.0,0.0
9980,66.0,96.0,150.0,6.0,0.0
9981,51.0,24.0,120.0,8.0,0.0
9982,54.0,120.0,120.0,8.0,0.0
9983,45.0,0.0,150.0,12.0,0.0
9984,48.0,0.0,150.0,13.0,0.0
9985,54.0,0.0,150.0,11.0,0.0
9986,48.0,24.0,120.0,8.0,0.0
9987,63.0,0.0,150.0,10.0,0.0
9988,63.0,0.0,150.0,6.0,0.0
9989,36.0,96.0,150.0,14.0,0.0
9990,54.0,120.0,120.0,8.0,0.0
9991,46.0,0.0,150.0,13.0,0.0
9992,46.0,24.0,120.0,8.0,0.0
9993,54.0,96.0,150.0,11.0,0.0
9994,46.0,0.0,150.0,12.0,0.0
9995,61.0,0.0,150.0,10.0,0.0
9996,34.0,0.0,150.0,14.0,0.0
9997,61.0,0.0,150.0,6.0,0.0
9998,54.0,120.0,120.0,8.0,0.0
9999,54.0,0.0,150.0,11.0,0.0
10000,45.0,24.0,120.0,8.0,0.0
10001,48.0,96.0,150.0,12.0,0.0
10002,60.0,0.0,150.0,10.0,0.0
10003,33.0,0.0,150.0,14.0,0.0
10004,45.0,0.0,150.0,13.0,0.0
10005,60.0,0.0,150.0,6.0,0.0
10006,51.0,120.0,120.0,8.0,0.0
10007,63.0,96.0,150.0,6.0,0.0
10008,48.0,24.0,120.0,8.0,0.0
10009,51.0,120.0,120.0,8.0,0.0
10010,48.0,0.0,150.0,12.0,0.0
10011,60.0,0.0,150.0,10.0,0.0
10012,45.0,96.0,150.0,13.0,0.0
10013,60.0,0.0,150.0,6.0,0.0
10014,33.0,0.0,150.0,14.0,0.0
10015,45.0,24.0,120.0,8.0,0.0
10016,51.0,0.0,150.0,11.0,0.0
10017,51.0,120.0,120.0,8.0,0.0
10018,42.0,0.0,150.0,13.0,0.0
10019,30.0,0.0,150.0,14.0,0.0
10020,48.0,0.0,150.0,12.0,0.0
10021,58.0,96.0,150.0,10.0,0.0
10022,42.0,24.0,120.0,8.0,0.0
10023,58.0,0.0,150.0,6.0,0.0
10024,51.0,0.0,150.0,11.0,0.0
10025,51.0,240.0,120.0,8.0,0.0
10026,57.0,0.0,1890.0,10.0,0.0
10027,41.0,96.0,390.0,8.0,0.0
10028,29.0,0.0,390.0,8.0,0.0
10029,29.0,0.0,1890.0,14.0,0.0
10030,51.0,18.0,1890.0,11.0,0.0
10031,48.0,0.0,1890.0,12.0,0.0
10032,41.0,0.0,1890.0,13.0,0.0
10033,57.0,120.0,120.0,6.0,0.0
10034,60.0,24.0,120.0,6.0,0.0
10035,63.0,120.0,120.0,6.0,0.0
10036,69.0,120.0,120.0,6.0,0.0
10037,63.0,120.0,120.0,6.0,0.0
10038,72.0,120.0,120.0,6.0,0.0
10039,69.0,120.0,120.0,6.0,0.0
10040,75.0,120.0,120.0,6.0,0.0
10041,81.0,0.0,930.0,0.0,0.0
10042,72.0,20.0,930.0,1.0,0.0
10043,75.0,0.0,930.0,1.0,0.0
10044,53.0,0.0,930.0,2.0,0.0
10045,41.0,0.0,930.0,2.0,0.0
10046,72.0,120.0,120.0,6.0,0.0
10047,81.0,120.0,120.0,6.0,0.0
10048,75.0,120.0,120.0,6.0,0.0
10049,84.0,120.0,120.0,6.0,0.0
10050,81.0,120.0,120.0,6.0,0.0
10051,75.0,82.0,120.0,6.0,0.0
10052,72.0,216.0,120.0,6.0,0.0
10053,58.0,0.0,1890.0,10.0,0.0
10054,40.0,72.0,390.0,8.0,0.0
10055,28.0,0.0,390.0,8.0,0.0
10056,28.0,0.0,1890.0,14.0,0.0
10057,40.0,0.0,1890.0,13.0,0.0
10058,55.0,0.0,1890.0,11.0,0.0
10059,49.0,14.0,1890.0,12.0,0.0
10060,58.0,120.0,90.0,6.0,0.0
10061,61.0,48.0,90.0,6.0,0.0
10062,67.0,120.0,90.0,6.0,0.0
10063,70.0,120.0,90.0,6.0,0.0
10064,67.0,120.0,90.0,6.0,0.0
10065,73.0,120.0,90.0,6.0,0.0
10066,70.0,120.0,90.0,6.0,0.0
10067,79.0,120.0,90.0,6.0,0.0
10068,52.0,0.0,930.0,2.0,0.0
10069,40.0,116.0,930.0,2.0,0.0
10070,73.0,0.0,930.0,1.0,0.0
10071,79.0,0.0,930.0,1.0,0.0
10072,82.0,0.0,930.0,0.0,0.0
10073,70.0,120.0,90.0,6.0,0.0
10074,82.0,120.0,90.0,6.0,0.0
10075,79.0,120.0,90.0,6.0,0.0
10076,85.0,120.0,90.0,6.0,0.0
10077,82.0,120.0,90.0,6.0,0.0
10078,79.0,106.0,90.0,6.0,0.0
10079,73.0,4.0,90.0,6.0,0.0
10080,29.0,12.0,390.0,14.0,0.0
10081,41.0,0.0,390.0,13.0,0.0
10082,41.0,0.0,390.0,8.0,0.0
10083,29.0,0.0,390.0,8.0,0.0
10084,82.0,120.0,90.0,6.0,0.0
10085,77.0,120.0,90.0,6.0,0.0
10086,73.0,48.0,90.0,6.0,0.0
10087,53.0,0.0,150.0,12.0,0.0
10088,61.0,0.0,150.0,10.0,0.0
10089,58.0,60.0,150.0,11.0,0.0
10090,70.0,120.0,90.0,6.0,0.0
10091,61.0,0.0,150.0,10.0,0.0
10092,53.0,0.0,150.0,12.0,0.0
10093,77.0,60.0,90.0,6.0,0.0
10094,58.0,60.0,150.0,11.0,0.0
10095,73.0,120.0,90.0,6.0,0.0
10096,61.0,0.0,150.0,10.0,0.0
10097,70.0,60.0,90.0,6.0,0.0
10098,53.0,60.0,150.0,12.0,0.0
10099,58.0,0.0,150.0,11.0,0.0
10100,65.0,84.0,90.0,6.0,0.0
10101,29.0,0.0,390.0,14.0,0.0
10102,41.0,12.0,390.0,13.0,0.0
10103,53.0,0.0,150.0,12.0,0.0
10104,53.0,24.0,90.0,7.0,0.0
10105,60.0,0.0,150.0,10.0,0.0
10106,57.0,24.0,150.0,11.0,0.0
10107,73.0,36.0,60.0,6.0,0.0
10108,72.0,36.0,60.0,6.0,0.0
10109,73.0,36.0,60.0,6.0,0.0
10110,63.0,24.0,90.0,7.0,0.0
10111,72.0,60.0,60.0,6.0,0.0
10112,60.0,0.0,150.0,10.0,0.0
10113,73.0,36.0,60.0,6.0,0.0
10114,53.0,0.0,150.0,12.0,0.0
10115,57.0,24.0,90.0,7.0,0.0
10116,57.0,24.0,150.0,11.0,0.0
10117,72.0,24.0,60.0,6.0,0.0
10118,63.0,24.0,90.0,7.0,0.0
10119,73.0,36.0,60.0,6.0,0.0
10120,72.0,60.0,60.0,6.0,0.0
10121,53.0,0.0,150.0,12.0,0.0
10122,53.0,24.0,90.0,7.0,0.0
10123,60.0,0.0,150.0,10.0,0.0
10124,57.0,24.0,150.0,11.0,0.0
10125,73.0,36.0,60.0,6.0,0.0
10126,72.0,36.0,60.0,6.0,0.0
10127,73.0,36.0,60.0,6.0,0.0
10128,63.0,24.0,90.0,7.0,0.0
10129,72.0,96.0,60.0,6.0,0.0
10130,70.0,36.0,120.0,6.0,0.0
10131,57.0,24.0,90.0,7.0,0.0
10132,57.0,60.0,150.0,11.0,0.0
10133,60.0,0.0,150.0,10.0,0.0
10134,53.0,0.0,150.0,12.0,0.0
10135,63.0,24.0,90.0,7.0,0.0
10136,72.0,234.0,120.0,6.0,0.0
10137,34.0,0.0,390.0,14.0,0.0
10138,49.0,0.0,390.0,12.0,0.0
10139,58.0,0.0,390.0,7.0,0.0
10140,61.0,0.0,390.0,7.0,0.0
10141,46.0,0.0,390.0,13.0,0.0
10142,58.0,0.0,390.0,11.0,0.0
10143,58.0,90.0,390.0,10.0,0.0
10144,70.0,120.0,120.0,6.0,0.0
10145,69.0,30.0,120.0,6.0,0.0
10146,70.0,120.0,120.0,6.0,0.0
10147,72.0,120.0,120.0,6.0,0.0
10148,70.0,120.0,120.0,6.0,0.0
10149,49.0,0.0,120.0,8.0,0.0
10150,69.0,120.0,120.0,6.0,0.0
10151,70.0,120.0,120.0,6.0,0.0
10152,58.0,0.0,120.0,8.0,0.0
10153,60.0,0.0,120.0,6.0,0.0
10154,51.0,120.0,120.0,8.0,0.0
10155,72.0,120.0,120.0,6.0,0.0
10156,58.0,0.0,120.0,8.0,0.0
10157,59.0,0.0,120.0,6.0,0.0
10158,50.0,120.0,120.0,8.0,0.0
10159,58.0,0.0,120.0,8.0,0.0
10160,71.0,120.0,120.0,6.0,0.0
10161,51.0,0.0,120.0,8.0,0.0
10162,60.0,120.0,120.0,6.0,0.0
10163,58.0,0.0,120.0,8.0,0.0
10164,72.0,120.0,120.0,6.0,0.0
10165,62.0,120.0,120.0,6.0,0.0
10166,53.0,0.0,120.0,8.0,0.0
10167,58.0,0.0,120.0,8.0,0.0
10168,74.0,120.0,120.0,6.0,0.0
10169,54.0,0.0,120.0,8.0,0.0
10170,63.0,120.0,120.0,6.0,0.0
10171,58.0,0.0,120.0,8.0,0.0
10172,75.0,120.0,120.0,6.0,0.0
10173,62.0,120.0,120.0,6.0,0.0
10174,53.0,0.0,120.0,8.0,0.0
10175,74.0,120.0,120.0,6.0,0.0
10176,58.0,0.0,120.0,8.0,0.0
10177,63.0,0.0,120.0,6.0,0.0
10178,54.0,120.0,120.0,8.0,0.0
10179,75.0,0.0,120.0,6.0,0.0
10180,58.0,120.0,120.0,8.0,0.0
10181,61.0,0.0,120.0,6.0,0.0
10182,52.0,120.0,120.0,8.0,0.0
10183,73.0,0.0,120.0,6.0,0.0
10184,58.0,120.0,120.0,8.0,0.0
10185,53.0,0.0,120.0,8.0,0.0
10186,62.0,120.0,120.0,6.0,0.0
10187,74.0,0.0,120.0,6.0,0.0
10188,58.0,120.0,120.0,8.0,0.0
10189,61.0,0.0,120.0,6.0,0.0
10190,52.0,120.0,120.0,8.0,0.0
10191,73.0,0.0,120.0,6.0,0.0
10192,58.0,120.0,120.0,8.0,0.0
10193,62.0,0.0,120.0,6.0,0.0
10194,53.0,120.0,120.0,8.0,0.0
10195,74.0,0.0,120.0,6.0,0.0
10196,58.0,120.0,120.0,8.0,0.0
10197,55.0,0.0,120.0,8.0,0.0
10198,64.0,120.0,120.0,6.0,0.0
10199,58.0,0.0,120.0,8.0,0.0
10200,76.0,120.0,120.0,6.0,0.0
10201,56.0,0.0,120.0,8.0,0.0
10202,65.0,120.0,120.0,6.0,0.0
10203,77.0,120.0,120.0,6.0,0.0
10204,58.0,0.0,120.0,8.0,0.0
10205,55.0,0.0,120.0,8.0,0.0
10206,64.0,120.0,120.0,6.0,0.0
10207,58.0,120.0,120.0,8.0,0.0
10208,76.0,0.0,120.0,6.0,0.0
10209,65.0,120.0,120.0,6.0,0.0
10210,56.0,0.0,120.0,8.0,0.0
10211,58.0,0.0,120.0,8.0,0.0
10212,77.0,120.0,120.0,6.0,0.0
10213,62.0,120.0,120.0,6.0,0.0
10214,53.0,0.0,120.0,8.0,0.0
10215,74.0,120.0,120.0,6.0,0.0
10216,58.0,0.0,120.0,8.0,0.0
10217,54.0,0.0,120.0,8.0,0.0
10218,63.0,120.0,120.0,6.0,0.0
10219,75.0,120.0,120.0,6.0,0.0
10220,58.0,0.0,120.0,8.0,0.0
10221,53.0,120.0,120.0,8.0,0.0
10222,62.0,0.0,120.0,6.0,0.0
10223,74.0,0.0,120.0,6.0,0.0
10224,58.0,120.0,120.0,8.0,0.0
10225,63.0,0.0,120.0,6.0,0.0
10226,54.0,120.0,120.0,8.0,0.0
10227,58.0,0.0,120.0,8.0,0.0
10228,75.0,120.0,120.0,6.0,0.0
10229,50.0,0.0,120.0,8.0,0.0
10230,65.0,120.0,120.0,6.0,0.0
10231,58.0,0.0,120.0,8.0,0.0
10232,77.0,126.0,120.0,6.0,0.0
10233,39.0,0.0,960.0,14.0,0.0
10234,58.0,0.0,1920.0,12.0,0.0
10235,66.0,0.0,960.0,10.0,0.0
10236,51.0,120.0,120.0,8.0,0.0
10237,51.0,120.0,960.0,13.0,0.0
10238,63.0,0.0,2880.0,11.0,0.0
10239,54.0,120.0,120.0,8.0,0.0
10240,58.0,120.0,120.0,6.0,0.0
10241,63.0,120.0,120.0,6.0,0.0
10242,66.0,120.0,120.0,6.0,0.0
10243,70.0,120.0,120.0,6.0,0.0
10244,75.0,120.0,120.0,6.0,0.0
10245,78.0,0.0,120.0,6.0,0.0
10246,67.0,0.0,960.0,10.0,0.0
10247,49.0,120.0,960.0,13.0,0.0
10248,49.0,120.0,120.0,8.0,0.0
10249,37.0,0.0,960.0,14.0,0.0
10250,55.0,120.0,120.0,8.0,0.0
10251,58.0,120.0,120.0,6.0,0.0
10252,63.0,120.0,120.0,6.0,0.0
10253,67.0,120.0,120.0,6.0,0.0
10254,70.0,120.0,120.0,6.0,0.0
10255,75.0,120.0,120.0,6.0,0.0
10256,79.0,0.0,120.0,6.0,0.0
10257,48.0,120.0,120.0,8.0,0.0
10258,68.0,0.0,960.0,10.0,0.0
10259,60.0,120.0,1920.0,12.0,0.0
10260,48.0,0.0,960.0,13.0,0.0
10261,36.0,0.0,960.0,14.0,0.0
10262,56.0,120.0,120.0,8.0,0.0
10263,60.0,120.0,120.0,6.0,0.0
10264,63.0,120.0,120.0,6.0,0.0
10265,68.0,120.0,120.0,6.0,0.0
10266,72.0,120.0,120.0,6.0,0.0
10267,75.0,120.0,120.0,6.0,0.0
10268,80.0,120.0,120.0,6.0,0.0
10269,51.0,120.0,120.0,8.0,0.0
10270,69.0,0.0,960.0,10.0,0.0
10271,51.0,0.0,960.0,13.0,0.0
10272,39.0,0.0,960.0,14.0,0.0
10273,65.0,0.0,1920.0,11.0,0.0
10274,57.0,120.0,120.0,8.0,0.0
10275,60.0,120.0,120.0,6.0,0.0
10276,65.0,120.0,120.0,6.0,0.0
10277,69.0,120.0,120.0,6.0,0.0
10278,72.0,120.0,120.0,6.0,0.0
10279,77.0,120.0,120.0,6.0,0.0
10280,81.0,0.0,120.0,6.0,0.0
10281,49.0,120.0,120.0,8.0,0.0
10282,70.0,0.0,960.0,10.0,0.0
10283,61.0,0.0,960.0,12.0,0.0
10284,49.0,120.0,960.0,13.0,0.0
10285,37.0,0.0,960.0,14.0,0.0
10286,58.0,120.0,120.0,8.0,0.0
10287,61.0,120.0,120.0,6.0,0.0
10288,65.0,120.0,120.0,6.0,0.0
10289,70.0,120.0,120.0,6.0,0.0
10290,73.0,120.0,120.0,6.0,0.0
10291,77.0,120.0,120.0,6.0,0.0
10292,82.0,0.0,120.0,6.0,0.0
10293,64.0,0.0,960.0,10.0,0.0
10294,31.0,0.0,960.0,14.0,0.0
10295,61.0,0.0,960.0,11.0,0.0
10296,43.0,120.0,120.0,8.0,0.0
10297,43.0,0.0,960.0,13.0,0.0
10298,52.0,120.0,120.0,8.0,0.0
10299,58.0,120.0,120.0,6.0,0.0
10300,61.0,120.0,120.0,6.0,0.0
10301,64.0,120.0,120.0,6.0,0.0
10302,67.0,120.0,120.0,6.0,0.0
10303,70.0,120.0,120.0,6.0,0.0
10304,76.0,0.0,120.0,6.0,0.0
10305,41.0,0.0,390.0,8.0,0.0
10306,65.0,0.0,390.0,11.0,0.0
10307,53.0,0.0,390.0,8.0,0.0
10308,41.0,96.0,390.0,13.0,0.0
10309,65.0,120.0,120.0,6.0,0.0
10310,58.0,120.0,15.0,12.0,0.0
10311,29.0,0.0,390.0,14.0,0.0
10312,61.0,0.0,390.0,10.0,0.0
10313,77.0,120.0,120.0,6.0,0.0
10314,64.0,24.0,120.0,6.0,0.0
10315,76.0,120.0,120.0,6.0,0.0
10316,65.0,120.0,120.0,6.0,0.0
10317,77.0,120.0,120.0,6.0,0.0
10318,66.0,120.0,120.0,6.0,0.0
10319,78.0,120.0,120.0,6.0,0.0
10320,67.0,120.0,120.0,6.0,0.0
10321,79.0,120.0,120.0,6.0,0.0
10322,68.0,120.0,120.0,6.0,0.0
10323,80.0,120.0,120.0,6.0,0.0
10324,69.0,120.0,120.0,6.0,0.0
10325,81.0,120.0,120.0,6.0,0.0
10326,70.0,120.0,120.0,6.0,0.0
10327,82.0,60.0,120.0,6.0,0.0
10328,53.0,0.0,120.0,7.0,0.0
10329,29.0,0.0,360.0,14.0,0.0
10330,73.0,60.0,60.0,6.0,0.0
10331,41.0,36.0,360.0,13.0,0.0
10332,72.0,60.0,60.0,6.0,0.0
10333,63.0,0.0,120.0,7.0,0.0
10334,73.0,60.0,60.0,6.0,0.0
10335,72.0,60.0,60.0,6.0,0.0
10336,57.0,0.0,120.0,7.0,0.0
10337,73.0,60.0,60.0,6.0,0.0
10338,57.0,24.0,150.0,11.0,0.0
10339,53.0,0.0,150.0,12.0,0.0
10340,60.0,0.0,150.0,10.0,0.0
10341,72.0,0.0,60.0,6.0,0.0
10342,73.0,60.0,60.0,6.0,0.0
10343,63.0,60.0,120.0,7.0,0.0
10344,72.0,0.0,60.0,6.0,0.0
10345,53.0,36.0,120.0,7.0,0.0
10346,57.0,24.0,150.0,11.0,0.0
10347,41.0,36.0,360.0,13.0,0.0
10348,60.0,0.0,150.0,10.0,0.0
10349,29.0,0.0,360.0,14.0,0.0
10350,53.0,0.0,150.0,12.0,0.0
10351,73.0,60.0,60.0,6.0,0.0
10352,72.0,0.0,60.0,6.0,0.0
10353,73.0,60.0,60.0,6.0,0.0
10354,63.0,0.0,120.0,7.0,0.0
10355,72.0,60.0,60.0,6.0,0.0
10356,53.0,0.0,150.0,12.0,0.0
10357,60.0,24.0,150.0,10.0,0.0
10358,73.0,60.0,60.0,6.0,0.0
10359,57.0,0.0,150.0,11.0,0.0
10360,57.0,0.0,120.0,7.0,0.0
10361,72.0,0.0,60.0,6.0,0.0
10362,73.0,60.0,60.0,6.0,0.0
10363,63.0,60.0,120.0,7.0,0.0
10364,72.0,0.0,60.0,6.0,0.0
10365,53.0,0.0,150.0,12.0,0.0
10366,73.0,60.0,60.0,6.0,0.0
10367,57.0,0.0,150.0,11.0,0.0
10368,60.0,24.0,150.0,10.0,0.0
10369,53.0,0.0,120.0,7.0,0.0
10370,41.0,0.0,360.0,13.0,0.0
10371,29.0,0.0,360.0,14.0,0.0
10372,72.0,36.0,60.0,6.0,0.0
10373,73.0,60.0,60.0,6.0,0.0
10374,63.0,60.0,120.0,7.0,0.0
10375,72.0,0.0,60.0,6.0,0.0
10376,73.0,60.0,60.0,6.0,0.0
10377,57.0,0.0,150.0,11.0,0.0
10378,57.0,0.0,120.0,7.0,0.0
10379,60.0,24.0,150.0,10.0,0.0
10380,53.0,0.0,150.0,12.0,0.0
10381,72.0,36.0,60.0,6.0,0.0
10382,73.0,60.0,60.0,6.0,0.0
10383,63.0,0.0,120.0,7.0,0.0
10384,72.0,60.0,60.0,6.0,0.0
10385,53.0,36.0,120.0,7.0,0.0
10386,29.0,0.0,360.0,14.0,0.0
10387,57.0,0.0,150.0,11.0,0.0
10388,73.0,60.0,60.0,6.0,0.0
10389,60.0,0.0,150.0,10.0,0.0
10390,53.0,24.0,150.0,12.0,0.0
10391,41.0,36.0,360.0,13.0,0.0
10392,72.0,0.0,60.0,6.0,0.0
10393,73.0,60.0,60.0,6.0,0.0
10394,63.0,0.0,120.0,7.0,0.0
10395,72.0,120.0,60.0,6.0,0.0
10396,57.0,0.0,120.0,7.0,0.0
10397,70.0,0.0,120.0,6.0,0.0
10398,60.0,0.0,150.0,10.0,0.0
10399,57.0,0.0,150.0,11.0,0.0
10400,53.0,84.0,150.0,12.0,0.0
10401,63.0,234.0,120.0,7.0,0.0
10402,72.0,0.0,120.0,6.0,0.0
10403,58.0,0.0,390.0,10.0,0.0
10404,58.0,0.0,390.0,11.0,0.0
10405,46.0,72.0,390.0,13.0,0.0
10406,34.0,0.0,390.0,14.0,0.0
10407,49.0,0.0,390.0,12.0,0.0
10408,61.0,0.0,450.0,7.0,0.0
10409,58.0,18.0,450.0,7.0,0.0
10410,70.0,120.0,120.0,6.0,0.0
10411,69.0,30.0,120.0,6.0,0.0
10412,70.0,120.0,120.0,6.0,0.0
10413,69.0,120.0,120.0,6.0,0.0
10414,70.0,120.0,120.0,6.0,0.0
10415,58.0,0.0,120.0,6.0,0.0
10416,34.0,120.0,120.0,8.0,0.0
10417,46.0,120.0,120.0,8.0,0.0
10418,70.0,0.0,120.0,6.0,0.0
10419,35.0,0.0,120.0,8.0,0.0
10420,59.0,120.0,120.0,6.0,0.0
10421,70.0,0.0,120.0,6.0,0.0
10422,47.0,120.0,120.0,8.0,0.0
10423,58.0,120.0,120.0,6.0,0.0
10424,34.0,0.0,120.0,8.0,0.0
10425,46.0,120.0,120.0,8.0,0.0
10426,70.0,0.0,120.0,6.0,0.0
10427,60.0,0.0,120.0,6.0,0.0
10428,36.0,120.0,120.0,8.0,0.0
10429,70.0,120.0,120.0,6.0,0.0
10430,48.0,0.0,120.0,8.0,0.0
10431,62.0,0.0,120.0,6.0,0.0
10432,38.0,120.0,120.0,8.0,0.0
10433,70.0,0.0,120.0,6.0,0.0
10434,50.0,120.0,120.0,8.0,0.0
10435,63.0,0.0,120.0,6.0,0.0
10436,39.0,120.0,120.0,8.0,0.0
10437,51.0,120.0,120.0,8.0,0.0
10438,70.0,0.0,120.0,6.0,0.0
10439,62.0,120.0,120.0,6.0,0.0
10440,38.0,0.0,120.0,8.0,0.0
10441,50.0,0.0,120.0,8.0,0.0
10442,70.0,120.0,120.0,6.0,0.0
10443,39.0,0.0,120.0,8.0,0.0
10444,63.0,120.0,120.0,6.0,0.0
10445,51.0,0.0,120.0,8.0,0.0
10446,70.0,120.0,120.0,6.0,0.0
10447,36.0,120.0,120.0,8.0,0.0
10448,60.0,0.0,120.0,6.0,0.0
10449,48.0,120.0,120.0,8.0,0.0
10450,70.0,0.0,120.0,6.0,0.0
10451,37.0,120.0,120.0,8.0,0.0
10452,61.0,0.0,120.0,6.0,0.0
10453,70.0,0.0,120.0,6.0,0.0
10454,49.0,120.0,120.0,8.0,0.0
10455,60.0,120.0,120.0,6.0,0.0
10456,36.0,0.0,120.0,8.0,0.0
10457,48.0,0.0,120.0,8.0,0.0
10458,70.0,120.0,120.0,6.0,0.0
10459,38.0,0.0,120.0,8.0,0.0
10460,62.0,120.0,120.0,6.0,0.0
10461,50.0,0.0,120.0,8.0,0.0
10462,70.0,120.0,120.0,6.0,0.0
10463,40.0,120.0,120.0,8.0,0.0
10464,64.0,0.0,120.0,6.0,0.0
10465,52.0,120.0,120.0,8.0,0.0
10466,70.0,0.0,120.0,6.0,0.0
10467,65.0,120.0,120.0,6.0,0.0
10468,41.0,0.0,120.0,8.0,0.0
10469,70.0,120.0,120.0,6.0,0.0
10470,53.0,0.0,120.0,8.0,0.0
10471,40.0,0.0,120.0,8.0,0.0
10472,64.0,120.0,120.0,6.0,0.0
10473,70.0,120.0,120.0,6.0,0.0
10474,52.0,0.0,120.0,8.0,0.0
10475,41.0,0.0,120.0,8.0,0.0
10476,65.0,120.0,120.0,6.0,0.0
10477,53.0,0.0,120.0,8.0,0.0
10478,70.0,120.0,120.0,6.0,0.0
10479,38.0,0.0,120.0,8.0,0.0
10480,62.0,120.0,120.0,6.0,0.0
10481,70.0,0.0,120.0,6.0,0.0
10482,50.0,120.0,120.0,8.0,0.0
10483,63.0,0.0,120.0,6.0,0.0
10484,39.0,120.0,120.0,8.0,0.0
10485,51.0,120.0,120.0,8.0,0.0
10486,70.0,0.0,120.0,6.0,0.0
10487,38.0,0.0,120.0,8.0,0.0
10488,62.0,120.0,120.0,6.0,0.0
10489,70.0,0.0,120.0,6.0,0.0
10490,50.0,120.0,120.0,8.0,0.0
10491,63.0,0.0,120.0,6.0,0.0
10492,39.0,120.0,120.0,8.0,0.0
10493,51.0,0.0,120.0,8.0,0.0
10494,70.0,120.0,120.0,6.0,0.0
10495,65.0,120.0,120.0,6.0,0.0
10496,41.0,0.0,120.0,8.0,0.0
10497,53.0,0.0,120.0,8.0,0.0
10498,70.0,102.0,120.0,6.0,0.0
10499,66.0,120.0,90.0,6.0,0.0
10500,42.0,96.0,480.0,8.0,0.0
10501,54.0,0.0,480.0,8.0,0.0
10502,70.0,120.0,90.0,6.0,0.0
10503,75.0,120.0,90.0,6.0,0.0
10504,70.0,24.0,90.0,6.0,0.0
10505,65.0,120.0,90.0,6.0,0.0
10506,41.0,72.0,390.0,8.0,0.0
10507,53.0,0.0,390.0,8.0,0.0
10508,70.0,120.0,90.0,6.0,0.0
10509,74.0,48.0,90.0,6.0,0.0
10510,70.0,120.0,90.0,6.0,0.0
10511,51.0,24.0,180.0,8.0,0.0
10512,78.0,96.0,90.0,6.0,0.0
10513,70.0,120.0,90.0,6.0,0.0
10514,78.0,120.0,90.0,6.0,0.0
10515,70.0,120.0,90.0,6.0,0.0
10516,77.0,96.0,90.0,6.0,0.0
10517,50.0,24.0,180.0,8.0,0.0
10518,70.0,120.0,90.0,6.0,0.0
10519,77.0,120.0,90.0,6.0,0.0
10520,70.0,120.0,90.0,6.0,0.0
10521,54.0,0.0,480.0,8.0,0.0
10522,42.0,96.0,480.0,8.0,0.0
10523,66.0,120.0,90.0,6.0,0.0
10524,70.0,120.0,90.0,6.0,0.0
10525,75.0,120.0,90.0,6.0,0.0
10526,70.0,24.0,90.0,6.0,0.0
10527,65.0,120.0,90.0,6.0,0.0
10528,41.0,0.0,390.0,8.0,0.0
10529,53.0,72.0,390.0,8.0,0.0
10530,70.0,120.0,90.0,6.0,0.0
10531,74.0,48.0,90.0,6.0,0.0
10532,70.0,120.0,90.0,6.0,0.0
10533,51.0,24.0,180.0,8.0,0.0
10534,78.0,96.0,90.0,6.0,0.0
10535,70.0,120.0,90.0,6.0,0.0
10536,78.0,120.0,90.0,6.0,0.0
10537,70.0,120.0,90.0,6.0,0.0
10538,77.0,96.0,90.0,6.0,0.0
10539,50.0,24.0,180.0,8.0,0.0
10540,70.0,120.0,90.0,6.0,0.0
10541,77.0,120.0,90.0,6.0,0.0
10542,70.0,120.0,90.0,6.0,0.0
10543,54.0,96.0,480.0,8.0,0.0
10544,42.0,0.0,480.0,8.0,0.0
10545,66.0,120.0,90.0,6.0,0.0
10546,70.0,120.0,90.0,6.0,0.0
10547,75.0,120.0,90.0,6.0,0.0
10548,70.0,24.0,90.0,6.0,0.0
10549,41.0,72.0,390.0,8.0,0.0
10550,53.0,0.0,390.0,8.0,0.0
10551,65.0,120.0,90.0,6.0,0.0
10552,70.0,120.0,90.0,6.0,0.0
10553,74.0,48.0,90.0,6.0,0.0
10554,70.0,120.0,90.0,6.0,0.0
10555,51.0,24.0,180.0,8.0,0.0
10556,78.0,96.0,90.0,6.0,0.0
10557,70.0,120.0,90.0,6.0,0.0
10558,78.0,120.0,90.0,6.0,0.0
10559,70.0,120.0,90.0,6.0,0.0
10560,77.0,96.0,90.0,6.0,0.0
10561,50.0,24.0,180.0,8.0,0.0
10562,70.0,120.0,90.0,6.0,0.0
10563,77.0,120.0,90.0,6.0,0.0
10564,70.0,120.0,90.0,6.0,0.0
10565,64.0,0.0,1830.0,10.0,0.0
10566,58.0,0.0,1830.0,11.0,0.0
10567,36.0,0.0,1830.0,14.0,0.0
10568,48.0,0.0,1830.0,13.0,0.0
10569,55.0,24.0,1830.0,12.0,0.0
10570,67.0,120.0,90.0,6.0,0.0
10571,36.0,96.0,120.0,8.0,0.0
10572,70.0,24.0,90.0,6.0,0.0
10573,38.0,96.0,120.0,8.0,0.0
10574,76.0,24.0,90.0,6.0,0.0
10575,40.0,96.0,120.0,8.0,0.0
10576,70.0,24.0,90.0,6.0,0.0
10577,76.0,0.0,1380.0,0.0,0.0
10578,67.0,0.0,1380.0,1.0,0.0
10579,76.0,24.0,90.0,6.0,0.0
10580,41.0,96.0,120.0,8.0,0.0
10581,60.0,48.0,1380.0,2.0,0.0
10582,70.0,0.0,1380.0,1.0,0.0
10583,48.0,0.0,1380.0,2.0,0.0
10584,43.0,96.0,120.0,8.0,0.0
10585,70.0,24.0,90.0,6.0,0.0
10586,45.0,96.0,120.0,8.0,0.0
10587,76.0,24.0,90.0,6.0,0.0
10588,70.0,24.0,90.0,6.0,0.0
10589,47.0,96.0,120.0,8.0,0.0
10590,48.0,96.0,120.0,8.0,0.0
10591,67.0,24.0,90.0,6.0,0.0
10592,50.0,96.0,120.0,8.0,0.0
10593,70.0,24.0,90.0,6.0,0.0
10594,76.0,24.0,90.0,6.0,0.0
10595,52.0,96.0,120.0,8.0,0.0
10596,70.0,24.0,90.0,6.0,0.0
10597,53.0,96.0,120.0,8.0,0.0
10598,55.0,96.0,240.0,8.0,0.0
10599,76.0,120.0,90.0,6.0,0.0
10600,70.0,24.0,90.0,6.0,0.0
10601,76.0,48.0,90.0,6.0,0.0
10602,70.0,120.0,90.0,6.0,0.0
10603,41.0,0.0,1830.0,13.0,0.0
10604,63.0,0.0,1830.0,10.0,0.0
10605,29.0,0.0,1830.0,14.0,0.0
10606,60.0,0.0,1830.0,11.0,0.0
10607,57.0,24.0,1830.0,12.0,0.0
10608,69.0,120.0,90.0,6.0,0.0
10609,72.0,24.0,90.0,6.0,0.0
10610,41.0,96.0,120.0,8.0,0.0
10611,43.0,96.0,120.0,8.0,0.0
10612,75.0,24.0,90.0,6.0,0.0
10613,45.0,96.0,120.0,8.0,0.0
10614,72.0,24.0,90.0,6.0,0.0
10615,75.0,48.0,1380.0,0.0,0.0
10616,53.0,0.0,1380.0,2.0,0.0
10617,41.0,0.0,1380.0,2.0,0.0
10618,72.0,0.0,1380.0,1.0,0.0
10619,46.0,96.0,120.0,8.0,0.0
10620,69.0,0.0,1380.0,1.0,0.0
10621,75.0,24.0,90.0,6.0,0.0
10622,72.0,24.0,90.0,6.0,0.0
10623,48.0,96.0,120.0,8.0,0.0
10624,50.0,96.0,120.0,8.0,0.0
10625,75.0,24.0,90.0,6.0,0.0
10626,52.0,96.0,120.0,8.0,0.0
10627,72.0,24.0,90.0,6.0,0.0
10628,69.0,24.0,90.0,6.0,0.0
10629,53.0,96.0,120.0,8.0,0.0
10630,72.0,24.0,90.0,6.0,0.0
10631,55.0,96.0,120.0,8.0,0.0
10632,75.0,24.0,90.0,6.0,0.0
10633,57.0,96.0,120.0,8.0,0.0
10634,58.0,96.0,120.0,8.0,0.0
10635,72.0,24.0,90.0,6.0,0.0
10636,75.0,120.0,90.0,6.0,0.0
10637,60.0,96.0,240.0,8.0,0.0
10638,72.0,24.0,90.0,6.0,0.0
10639,75.0,48.0,90.0,6.0,0.0
10640,72.0,120.0,90.0,6.0,0.0
10641,58.0,24.0,1830.0,11.0,0.0
10642,46.0,0.0,1830.0,13.0,0.0
10643,53.0,0.0,1830.0,12.0,0.0
10644,34.0,0.0,1830.0,14.0,0.0
10645,65.0,120.0,90.0,6.0,0.0
10646,62.0,0.0,1830.0,10.0,0.0
10647,70.0,24.0,90.0,6.0,0.0
10648,34.0,96.0,120.0,8.0,0.0
10649,36.0,96.0,120.0,8.0,0.0
10650,74.0,24.0,90.0,6.0,0.0
10651,70.0,24.0,90.0,6.0,0.0
10652,38.0,96.0,120.0,8.0,0.0
10653,65.0,0.0,1380.0,1.0,0.0
10654,39.0,96.0,120.0,8.0,0.0
10655,74.0,48.0,1380.0,0.0,0.0
10656,74.0,24.0,90.0,6.0,0.0
10657,70.0,0.0,1380.0,1.0,0.0
10658,58.0,0.0,1380.0,2.0,0.0
10659,46.0,0.0,1380.0,2.0,0.0
10660,41.0,96.0,120.0,8.0,0.0
10661,70.0,24.0,90.0,6.0,0.0
10662,74.0,24.0,90.0,6.0,0.0
10663,43.0,96.0,120.0,8.0,0.0
10664,70.0,24.0,90.0,6.0,0.0
10665,45.0,96.0,120.0,8.0,0.0
10666,46.0,96.0,120.0,8.0,0.0
10667,65.0,24.0,90.0,6.0,0.0
10668,48.0,96.0,120.0,8.0,0.0
10669,70.0,24.0,90.0,6.0,0.0
10670,74.0,24.0,90.0,6.0,0.0
10671,50.0,96.0,120.0,8.0,0.0
10672,51.0,96.0,120.0,8.0,0.0
10673,70.0,24.0,90.0,6.0,0.0
10674,53.0,96.0,240.0,8.0,0.0
10675,74.0,120.0,90.0,6.0,0.0
10676,70.0,24.0,90.0,6.0,0.0
10677,74.0,48.0,90.0,6.0,0.0
10678,70.0,120.0,90.0,6.0,0.0
10679,42.0,0.0,1830.0,13.0,0.0
10680,54.0,0.0,1830.0,12.0,0.0
10681,61.0,0.0,1830.0,10.0,0.0
10682,30.0,0.0,1830.0,14.0,0.0
10683,70.0,120.0,90.0,6.0,0.0
10684,58.0,24.0,1830.0,11.0,0.0
10685,73.0,24.0,90.0,6.0,0.0
10686,42.0,96.0,120.0,8.0,0.0
10687,82.0,24.0,90.0,6.0,0.0
10688,44.0,96.0,120.0,8.0,0.0
10689,73.0,24.0,90.0,6.0,0.0
10690,46.0,96.0,120.0,8.0,0.0
10691,73.0,0.0,1380.0,1.0,0.0
10692,70.0,0.0,1380.0,1.0,0.0
10693,82.0,24.0,90.0,6.0,0.0
10694,47.0,96.0,120.0,8.0,0.0
10695,82.0,48.0,1380.0,0.0,0.0
10696,54.0,0.0,1380.0,2.0,0.0
10697,42.0,0.0,1380.0,2.0,0.0
10698,49.0,96.0,120.0,8.0,0.0
10699,73.0,24.0,90.0,6.0,0.0
10700,82.0,24.0,90.0,6.0,0.0
10701,51.0,96.0,120.0,8.0,0.0
10702,73.0,24.0,90.0,6.0,0.0
10703,53.0,96.0,120.0,8.0,0.0
10704,70.0,24.0,90.0,6.0,0.0
10705,54.0,96.0,120.0,8.0,0.0
10706,73.0,24.0,90.0,6.0,0.0
10707,56.0,96.0,120.0,8.0,0.0
10708,58.0,96.0,120.0,8.0,0.0
10709,82.0,24.0,90.0,6.0,0.0
10710,73.0,24.0,90.0,6.0,0.0
10711,59.0,96.0,120.0,8.0,0.0
10712,61.0,96.0,240.0,8.0,0.0
10713,82.0,120.0,90.0,6.0,0.0
10714,73.0,24.0,90.0,6.0,0.0
10715,82.0,48.0,90.0,6.0,0.0
10716,73.0,216.0,90.0,6.0,0.0
10717,39.0,72.0,1830.0,8.0,0.0
10718,27.0,0.0,1830.0,8.0,0.0
10719,39.0,72.0,390.0,13.0,0.0
10720,59.0,0.0,180.0,10.0,0.0
10721,51.0,0.0,180.0,12.0,0.0
10722,27.0,0.0,390.0,14.0,0.0
10723,54.0,24.0,180.0,11.0,0.0
10724,78.0,120.0,90.0,6.0,0.0
10725,83.0,48.0,90.0,6.0,0.0
10726,78.0,120.0,90.0,6.0,0.0
10727,75.0,96.0,90.0,6.0,0.0
10728,63.0,0.0,180.0,10.0,0.0
10729,54.0,24.0,180.0,12.0,0.0
10730,59.0,0.0,180.0,11.0,0.0
10731,78.0,120.0,90.0,6.0,0.0
10732,71.0,120.0,90.0,6.0,0.0
10733,75.0,120.0,90.0,6.0,0.0
10734,66.0,96.0,90.0,6.0,0.0
10735,66.0,24.0,180.0,10.0,0.0
10736,59.0,0.0,180.0,12.0,0.0
10737,63.0,0.0,180.0,11.0,0.0
10738,75.0,120.0,90.0,6.0,0.0
10739,78.0,120.0,90.0,6.0,0.0
10740,75.0,120.0,90.0,6.0,0.0
10741,66.0,24.0,180.0,11.0,0.0
10742,71.0,0.0,180.0,10.0,0.0
10743,63.0,0.0,180.0,12.0,0.0
10744,71.0,96.0,90.0,6.0,0.0
10745,75.0,120.0,90.0,6.0,0.0
10746,66.0,48.0,90.0,6.0,0.0
10747,71.0,120.0,90.0,6.0,0.0
10748,40.0,72.0,1830.0,8.0,0.0
10749,28.0,0.0,1830.0,8.0,0.0
10750,40.0,72.0,390.0,13.0,0.0
10751,28.0,0.0,390.0,14.0,0.0
10752,58.0,24.0,180.0,11.0,0.0
10753,61.0,0.0,180.0,10.0,0.0
10754,54.0,0.0,180.0,12.0,0.0
10755,67.0,96.0,90.0,6.0,0.0
10756,70.0,120.0,90.0,6.0,0.0
10757,73.0,48.0,90.0,6.0,0.0
10758,70.0,120.0,90.0,6.0,0.0
10759,67.0,96.0,90.0,6.0,0.0
10760,67.0,0.0,180.0,10.0,0.0
10761,61.0,0.0,180.0,11.0,0.0
10762,58.0,24.0,180.0,12.0,0.0
10763,70.0,120.0,90.0,6.0,0.0
10764,61.0,120.0,90.0,6.0,0.0
10765,67.0,120.0,90.0,6.0,0.0
10766,70.0,24.0,180.0,10.0,0.0
10767,61.0,0.0,180.0,12.0,0.0
10768,58.0,96.0,90.0,6.0,0.0
10769,67.0,0.0,180.0,11.0,0.0
10770,67.0,120.0,90.0,6.0,0.0
10771,70.0,120.0,90.0,6.0,0.0
10772,67.0,120.0,90.0,6.0,0.0
10773,61.0,96.0,90.0,6.0,0.0
10774,67.0,0.0,180.0,12.0,0.0
10775,73.0,0.0,180.0,10.0,0.0
10776,70.0,24.0,180.0,11.0,0.0
10777,67.0,120.0,90.0,6.0,0.0
10778,58.0,48.0,90.0,6.0,0.0
10779,61.0,258.0,90.0,6.0,0.0
10780,82.0,72.0,6150.0,0.0,0.0
10781,53.0,0.0,390.0,12.0,0.0
10782,73.0,0.0,6150.0,1.0,0.0
10783,53.0,0.0,390.0,11.0,0.0
10784,41.0,0.0,390.0,13.0,0.0
10785,61.0,0.0,6150.0,3.0,0.0
10786,58.0,0.0,6150.0,3.0,0.0
10787,70.0,0.0,6150.0,1.0,0.0
10788,53.0,0.0,390.0,10.0,0.0
10789,41.0,0.0,6150.0,2.0,0.0
10790,53.0,0.0,6150.0,2.0,0.0
10791,65.0,0.0,6150.0,4.0,0.0
10792,53.0,0.0,6150.0,4.0,0.0
10793,29.0,0.0,390.0,8.0,0.0
10794,41.0,0.0,390.0,8.0,0.0
10795,29.0,90.0,390.0,14.0,0.0
10796,53.0,120.0,120.0,6.0,0.0
10797,54.0,30.0,120.0,6.0,0.0
10798,53.0,120.0,120.0,6.0,0.0
10799,54.0,120.0,120.0,6.0,0.0
10800,55.0,120.0,120.0,6.0,0.0
10801,56.0,120.0,120.0,6.0,0.0
10802,55.0,120.0,120.0,6.0,0.0
10803,56.0,120.0,120.0,6.0,0.0
10804,57.0,120.0,120.0,6.0,0.0
10805,58.0,120.0,120.0,6.0,0.0
10806,57.0,120.0,120.0,6.0,0.0
10807,58.0,120.0,120.0,6.0,0.0
10808,60.0,120.0,120.0,6.0,0.0
10809,61.0,120.0,120.0,6.0,0.0
10810,60.0,120.0,120.0,6.0,0.0
10811,61.0,120.0,120.0,6.0,0.0
10812,62.0,120.0,120.0,6.0,0.0
10813,50.0,0.0,120.0,7.0,0.0
10814,51.0,120.0,120.0,7.0,0.0
10815,63.0,0.0,120.0,6.0,0.0
10816,62.0,0.0,120.0,6.0,0.0
10817,50.0,120.0,120.0,7.0,0.0
10818,51.0,0.0,120.0,7.0,0.0
10819,63.0,120.0,120.0,6.0,0.0
10820,52.0,0.0,120.0,7.0,0.0
10821,64.0,120.0,120.0,6.0,0.0
10822,65.0,0.0,120.0,6.0,0.0
10823,53.0,120.0,120.0,7.0,0.0
10824,64.0,0.0,120.0,6.0,0.0
10825,52.0,120.0,120.0,7.0,0.0
10826,53.0,120.0,120.0,7.0,0.0
10827,65.0,0.0,120.0,6.0,0.0
10828,53.0,0.0,120.0,7.0,0.0
10829,65.0,120.0,120.0,6.0,0.0
10830,66.0,0.0,120.0,6.0,0.0
10831,54.0,120.0,120.0,7.0,0.0
10832,65.0,120.0,120.0,6.0,0.0
10833,53.0,0.0,120.0,7.0,0.0
10834,54.0,0.0,120.0,7.0,0.0
10835,66.0,120.0,120.0,6.0,0.0
10836,55.0,120.0,120.0,7.0,0.0
10837,67.0,0.0,120.0,6.0,0.0
10838,56.0,120.0,120.0,7.0,0.0
10839,68.0,0.0,120.0,6.0,0.0
10840,67.0,0.0,120.0,6.0,0.0
10841,55.0,120.0,120.0,7.0,0.0
10842,68.0,120.0,120.0,6.0,0.0
10843,56.0,0.0,120.0,7.0,0.0
10844,69.0,120.0,120.0,6.0,0.0
10845,57.0,0.0,120.0,7.0,0.0
10846,58.0,0.0,120.0,7.0,0.0
10847,70.0,120.0,120.0,6.0,0.0
10848,57.0,0.0,120.0,7.0,0.0
10849,69.0,120.0,120.0,6.0,0.0
10850,70.0,0.0,120.0,6.0,0.0
10851,58.0,120.0,120.0,7.0,0.0
10852,72.0,0.0,120.0,6.0,0.0
10853,60.0,120.0,120.0,7.0,0.0
10854,73.0,0.0,120.0,6.0,0.0
10855,61.0,120.0,120.0,7.0,0.0
10856,72.0,0.0,120.0,6.0,0.0
10857,60.0,120.0,120.0,7.0,0.0
10858,73.0,0.0,120.0,6.0,0.0
10859,61.0,120.0,120.0,7.0,0.0
10860,62.0,120.0,120.0,7.0,0.0
10861,74.0,0.0,120.0,6.0,0.0
10862,75.0,0.0,120.0,6.0,0.0
10863,63.0,120.0,120.0,7.0,0.0
10864,74.0,0.0,120.0,6.0,0.0
10865,62.0,120.0,120.0,7.0,0.0
10866,75.0,0.0,120.0,6.0,0.0
10867,63.0,120.0,120.0,7.0,0.0
10868,76.0,120.0,120.0,6.0,0.0
10869,64.0,0.0,120.0,7.0,0.0
10870,77.0,120.0,120.0,6.0,0.0
10871,65.0,0.0,120.0,7.0,0.0
10872,76.0,0.0,120.0,6.0,0.0
10873,64.0,120.0,120.0,7.0,0.0
10874,65.0,18.0,450.0,7.0,0.0
10875,77.0,120.0,120.0,6.0,0.0
10876,73.0,120.0,120.0,6.0,0.0
10877,82.0,30.0,120.0,6.0,0.0
10878,77.0,120.0,120.0,6.0,0.0
10879,85.0,120.0,120.0,6.0,0.0
10880,82.0,120.0,120.0,6.0,0.0
10881,77.0,120.0,120.0,6.0,0.0
10882,82.0,120.0,120.0,6.0,0.0
10883,73.0,120.0,120.0,6.0,0.0
10884,77.0,120.0,120.0,6.0,0.0
10885,82.0,120.0,120.0,6.0,0.0
10886,77.0,120.0,120.0,6.0,0.0
10887,73.0,120.0,120.0,6.0,0.0
10888,77.0,120.0,120.0,6.0,0.0
10889,70.0,120.0,120.0,6.0,0.0
10890,73.0,120.0,120.0,6.0,0.0
10891,58.0,0.0,1830.0,2.0,0.0
10892,65.0,36.0,1320.0,6.0,0.0
10893,53.0,120.0,120.0,7.0,0.0
10894,61.0,0.0,1830.0,2.0,0.0
10895,70.0,12.0,1830.0,1.0,0.0
10896,73.0,0.0,1830.0,1.0,0.0
10897,61.0,120.0,120.0,7.0,0.0
10898,58.0,42.0,120.0,7.0,0.0
10899,58.0,78.0,150.0,11.0,0.0
10900,53.0,0.0,150.0,12.0,0.0
10901,61.0,0.0,150.0,10.0,0.0
10902,61.0,120.0,120.0,7.0,0.0
10903,53.0,0.0,150.0,12.0,0.0
10904,61.0,78.0,150.0,10.0,0.0
10905,53.0,42.0,120.0,7.0,0.0
10906,58.0,0.0,150.0,11.0,0.0
10907,61.0,120.0,120.0,7.0,0.0
10908,53.0,0.0,150.0,12.0,0.0
10909,58.0,0.0,150.0,11.0,0.0
10910,58.0,42.0,120.0,7.0,0.0
10911,61.0,78.0,150.0,10.0,0.0
10912,61.0,120.0,120.0,7.0,0.0
10913,53.0,78.0,150.0,12.0,0.0
10914,58.0,0.0,150.0,11.0,0.0
10915,53.0,42.0,120.0,7.0,0.0
10916,61.0,0.0,150.0,10.0,0.0
10917,61.0,120.0,120.0,7.0,0.0
10918,58.0,0.0,150.0,11.0,0.0
10919,58.0,6.0,120.0,7.0,0.0
10920,61.0,0.0,150.0,10.0,0.0
10921,53.0,24.0,150.0,12.0,0.0
10922,61.0,6.0,120.0,7.0,0.0
10923,67.0,54.0,60.0,6.0,0.0
10924,69.0,60.0,60.0,6.0,0.0
10925,53.0,6.0,120.0,7.0,0.0
10926,58.0,0.0,150.0,11.0,0.0
10927,61.0,0.0,150.0,10.0,0.0
10928,70.0,54.0,60.0,6.0,0.0
10929,53.0,24.0,150.0,12.0,0.0
10930,72.0,36.0,60.0,6.0,0.0
10931,73.0,54.0,60.0,6.0,0.0
10932,61.0,6.0,120.0,7.0,0.0
10933,75.0,60.0,60.0,6.0,0.0
10934,77.0,54.0,60.0,6.0,0.0
10935,53.0,0.0,150.0,12.0,0.0
10936,58.0,6.0,120.0,7.0,0.0
10937,58.0,24.0,150.0,11.0,0.0
10938,61.0,0.0,150.0,10.0,0.0
10939,79.0,24.0,60.0,6.0,0.0
10940,61.0,6.0,120.0,7.0,0.0
10941,81.0,54.0,60.0,6.0,0.0
10942,82.0,60.0,60.0,6.0,0.0
10943,57.0,0.0,180.0,11.0,0.0
10944,72.0,0.0,1830.0,1.0,0.0
10945,53.0,6.0,120.0,7.0,0.0
10946,53.0,42.0,180.0,12.0,0.0
10947,57.0,0.0,1830.0,2.0,0.0
10948,60.0,16.0,1830.0,2.0,0.0
10949,69.0,0.0,1830.0,1.0,0.0
10950,60.0,0.0,180.0,10.0,0.0
10951,73.0,54.0,60.0,6.0,0.0
10952,72.0,60.0,60.0,6.0,0.0
10953,73.0,12.0,60.0,6.0,0.0
10954,63.0,6.0,120.0,7.0,0.0
10955,72.0,60.0,60.0,6.0,0.0
10956,57.0,6.0,120.0,7.0,0.0
10957,60.0,0.0,180.0,10.0,0.0
10958,53.0,42.0,180.0,12.0,0.0
10959,73.0,54.0,60.0,6.0,0.0
10960,57.0,0.0,180.0,11.0,0.0
10961,72.0,60.0,60.0,6.0,0.0
10962,63.0,6.0,120.0,7.0,0.0
10963,73.0,12.0,60.0,6.0,0.0
10964,72.0,60.0,60.0,6.0,0.0
10965,57.0,0.0,180.0,11.0,0.0
10966,60.0,0.0,180.0,10.0,0.0
10967,53.0,6.0,120.0,7.0,0.0
10968,53.0,42.0,180.0,12.0,0.0
10969,73.0,54.0,60.0,6.0,0.0
10970,72.0,60.0,60.0,6.0,0.0
10971,73.0,12.0,60.0,6.0,0.0
10972,63.0,6.0,120.0,7.0,0.0
10973,72.0,60.0,60.0,6.0,0.0
10974,57.0,6.0,120.0,7.0,0.0
10975,60.0,0.0,180.0,10.0,0.0
10976,57.0,42.0,180.0,11.0,0.0
10977,53.0,0.0,180.0,12.0,0.0
10978,73.0,54.0,60.0,6.0,0.0
10979,72.0,60.0,60.0,6.0,0.0
10980,63.0,6.0,120.0,7.0,0.0
10981,73.0,12.0,60.0,6.0,0.0
10982,72.0,60.0,60.0,6.0,0.0
10983,57.0,42.0,180.0,11.0,0.0
10984,53.0,6.0,120.0,7.0,0.0
10985,53.0,0.0,180.0,12.0,0.0
10986,73.0,54.0,60.0,6.0,0.0
10987,60.0,0.0,180.0,10.0,0.0
10988,72.0,60.0,60.0,6.0,0.0
10989,73.0,12.0,60.0,6.0,0.0
10990,63.0,6.0,120.0,7.0,0.0
10991,72.0,60.0,60.0,6.0,0.0
10992,60.0,0.0,180.0,10.0,0.0
10993,53.0,42.0,180.0,12.0,0.0
10994,57.0,0.0,180.0,11.0,0.0
10995,57.0,6.0,120.0,7.0,0.0
10996,73.0,54.0,60.0,6.0,0.0
10997,72.0,60.0,60.0,6.0,0.0
10998,63.0,6.0,120.0,7.0,0.0
10999,73.0,12.0,60.0,6.0,0.0
11000,72.0,60.0,60.0,6.0,0.0
11001,53.0,0.0,180.0,12.0,0.0
11002,53.0,6.0,120.0,7.0,0.0
11003,57.0,0.0,180.0,11.0,0.0
11004,73.0,54.0,60.0,6.0,0.0
11005,60.0,42.0,180.0,10.0,0.0
11006,72.0,60.0,60.0,6.0,0.0
11007,73.0,12.0,60.0,6.0,0.0
11008,63.0,6.0,120.0,7.0,0.0
11009,72.0,80.0,60.0,6.0,0.0
11010,57.0,6.0,120.0,7.0,0.0
11011,53.0,42.0,180.0,12.0,0.0
11012,60.0,0.0,180.0,10.0,0.0
11013,70.0,24.0,120.0,6.0,0.0
11014,41.0,34.0,90.0,13.0,0.0
11015,57.0,0.0,180.0,11.0,0.0
11016,29.0,0.0,90.0,14.0,0.0
11017,31.0,0.0,90.0,14.0,0.0
11018,43.0,32.0,90.0,13.0,0.0
11019,63.0,6.0,120.0,7.0,0.0
11020,72.0,96.0,120.0,6.0,0.0
11021,33.0,0.0,90.0,14.0,0.0
11022,45.0,0.0,90.0,13.0,0.0
11023,70.0,0.0,1830.0,0.0,0.0
11024,58.0,16.0,1830.0,1.0,0.0
11025,49.0,0.0,90.0,12.0,0.0
11026,58.0,0.0,390.0,10.0,0.0
11027,70.0,0.0,1830.0,1.0,0.0
11028,34.0,0.0,780.0,14.0,0.0
11029,58.0,0.0,780.0,3.0,0.0
11030,46.0,0.0,5670.0,2.0,0.0
11031,46.0,0.0,390.0,5.0,0.0
11032,58.0,0.0,390.0,7.0,0.0
11033,58.0,0.0,390.0,4.0,0.0
11034,70.0,0.0,390.0,4.0,0.0
11035,34.0,36.0,5670.0,2.0,0.0
11036,61.0,72.0,390.0,7.0,0.0
11037,58.0,120.0,90.0,11.0,0.0
11038,70.0,0.0,390.0,6.0,0.0
11039,46.0,0.0,780.0,3.0,0.0
11040,46.0,32.0,780.0,13.0,0.0
11041,49.0,0.0,90.0,12.0,0.0
11042,53.0,120.0,90.0,11.0,0.0
11043,49.0,48.0,90.0,12.0,0.0
11044,53.0,0.0,90.0,11.0,0.0
11045,49.0,120.0,90.0,12.0,0.0
11046,53.0,0.0,90.0,11.0,0.0
11047,53.0,0.0,90.0,11.0,0.0
11048,49.0,120.0,90.0,12.0,0.0
11049,53.0,0.0,90.0,11.0,0.0
11050,49.0,72.0,90.0,12.0,0.0
11051,49.0,64.0,90.0,12.0,0.0
11052,53.0,16.0,90.0,10.0,0.0
11053,53.0,0.0,90.0,11.0,0.0
11054,55.0,56.0,90.0,10.0,0.0
11055,49.0,0.0,90.0,12.0,0.0
11056,53.0,24.0,90.0,11.0,0.0
11057,57.0,96.0,90.0,10.0,0.0
11058,49.0,0.0,90.0,12.0,0.0
11059,58.0,96.0,480.0,10.0,0.0
11060,53.0,120.0,90.0,11.0,0.0
11061,49.0,0.0,90.0,12.0,0.0
11062,53.0,120.0,90.0,11.0,0.0
11063,49.0,120.0,90.0,12.0,0.0
11064,53.0,0.0,90.0,11.0,0.0
11065,49.0,0.0,90.0,12.0,0.0
11066,53.0,24.0,90.0,11.0,0.0
11067,53.0,0.0,90.0,11.0,0.0
11068,49.0,120.0,90.0,12.0,0.0
11069,53.0,104.0,90.0,11.0,0.0
11070,49.0,0.0,90.0,12.0,0.0
11071,53.0,0.0,90.0,13.0,0.0
11072,49.0,48.0,90.0,12.0,0.0
11073,41.0,16.0,90.0,14.0,0.0
11074,53.0,0.0,90.0,11.0,0.0
11075,43.0,56.0,90.0,14.0,0.0
11076,55.0,0.0,90.0,13.0,0.0
11077,53.0,0.0,90.0,11.0,0.0
11078,49.0,0.0,90.0,12.0,0.0
11079,41.0,24.0,90.0,3.0,0.0
11080,53.0,0.0,90.0,3.0,0.0
11081,45.0,0.0,90.0,14.0,0.0
11082,57.0,96.0,90.0,13.0,0.0
11083,53.0,0.0,90.0,11.0,0.0
11084,73.0,0.0,2190.0,1.0,0.0
11085,46.0,0.0,390.0,5.0,0.0
11086,70.0,72.0,390.0,4.0,0.0
11087,58.0,0.0,390.0,4.0,0.0
11088,58.0,0.0,780.0,13.0,0.0
11089,82.0,24.0,2190.0,0.0,0.0
11090,77.0,0.0,2190.0,1.0,0.0
11091,49.0,120.0,90.0,12.0,0.0
11092,46.0,0.0,780.0,14.0,0.0
11093,46.0,0.0,780.0,3.0,0.0
11094,58.0,32.0,780.0,3.0,0.0
11095,49.0,120.0,90.0,12.0,0.0
11096,53.0,0.0,90.0,11.0,0.0
11097,49.0,0.0,90.0,12.0,0.0
11098,53.0,48.0,90.0,11.0,0.0
11099,53.0,0.0,90.0,11.0,0.0
11100,49.0,120.0,90.0,12.0,0.0
11101,53.0,0.0,90.0,11.0,0.0
11102,49.0,120.0,90.0,12.0,0.0
11103,49.0,72.0,90.0,12.0,0.0
11104,53.0,0.0,90.0,11.0,0.0
11105,65.0,16.0,90.0,10.0,0.0
11106,53.0,64.0,90.0,11.0,0.0
11107,49.0,0.0,90.0,12.0,0.0
11108,67.0,56.0,90.0,10.0,0.0
11109,53.0,0.0,90.0,11.0,0.0
11110,49.0,24.0,90.0,12.0,0.0
11111,69.0,96.0,90.0,10.0,0.0
11112,70.0,72.0,390.0,10.0,0.0
11113,49.0,0.0,90.0,12.0,0.0
11114,53.0,120.0,90.0,11.0,0.0
11115,49.0,0.0,90.0,12.0,0.0
11116,53.0,120.0,90.0,11.0,0.0
11117,49.0,0.0,90.0,12.0,0.0
11118,53.0,48.0,90.0,11.0,0.0
11119,49.0,0.0,90.0,12.0,0.0
11120,53.0,120.0,90.0,11.0,0.0
11121,49.0,120.0,90.0,12.0,0.0
11122,53.0,0.0,90.0,11.0,0.0
11123,49.0,0.0,90.0,12.0,0.0
11124,53.0,104.0,90.0,11.0,0.0
11125,49.0,0.0,90.0,12.0,0.0
11126,77.0,16.0,90.0,10.0,0.0
11127,53.0,64.0,90.0,11.0,0.0
11128,79.0,56.0,90.0,10.0,0.0
11129,53.0,0.0,90.0,11.0,0.0
11130,53.0,0.0,90.0,3.0,0.0
11131,41.0,0.0,90.0,3.0,0.0
11132,49.0,24.0,90.0,12.0,0.0
11133,81.0,96.0,90.0,10.0,0.0
11134,49.0,0.0,90.0,12.0,0.0
11135,46.0,48.0,300.0,3.0,0.0
11136,58.0,0.0,300.0,3.0,0.0
11137,53.0,120.0,90.0,11.0,0.0
11138,82.0,0.0,300.0,10.0,0.0
11139,49.0,0.0,90.0,12.0,0.0
11140,53.0,48.0,90.0,11.0,0.0
11141,49.0,0.0,90.0,12.0,0.0
11142,53.0,120.0,90.0,11.0,0.0
11143,53.0,120.0,90.0,11.0,0.0
11144,49.0,0.0,90.0,12.0,0.0
11145,49.0,0.0,90.0,12.0,0.0
11146,77.0,0.0,270.0,0.0,0.0
11147,77.0,24.0,270.0,1.0,0.0
11148,65.0,48.0,300.0,10.0,0.0
11149,53.0,120.0,90.0,11.0,0.0
11150,58.0,0.0,300.0,3.0,0.0
11151,46.0,0.0,300.0,3.0,0.0
11152,53.0,0.0,90.0,11.0,0.0
11153,49.0,48.0,90.0,12.0,0.0
11154,53.0,0.0,90.0,11.0,0.0
11155,49.0,120.0,90.0,12.0,0.0
11156,53.0,120.0,90.0,11.0,0.0
11157,49.0,0.0,90.0,12.0,0.0
11158,61.0,0.0,300.0,10.0,0.0
11159,73.0,24.0,270.0,1.0,0.0
11160,49.0,0.0,90.0,12.0,0.0
11161,85.0,0.0,270.0,0.0,0.0
11162,53.0,120.0,90.0,11.0,0.0
11163,46.0,0.0,300.0,3.0,0.0
11164,58.0,48.0,300.0,3.0,0.0
11165,53.0,48.0,90.0,11.0,0.0
11166,49.0,0.0,90.0,12.0,0.0
11167,49.0,0.0,90.0,12.0,0.0
11168,53.0,120.0,90.0,11.0,0.0
11169,49.0,120.0,90.0,12.0,0.0
11170,53.0,0.0,90.0,11.0,0.0
11171,49.0,120.0,90.0,12.0,0.0
11172,58.0,0.0,300.0,10.0,0.0
11173,58.0,0.0,300.0,3.0,0.0
11174,53.0,0.0,90.0,11.0,0.0
11175,82.0,0.0,270.0,0.0,0.0
11176,70.0,24.0,270.0,1.0,0.0
11177,46.0,12.0,300.0,3.0,0.0
11178,53.0,48.0,90.0,11.0,0.0
11179,49.0,0.0,90.0,12.0,0.0
11180,49.0,0.0,90.0,12.0,0.0
11181,41.0,36.0,60.0,14.0,0.0
11182,53.0,24.0,90.0,11.0,0.0
11183,53.0,0.0,60.0,13.0,0.0
11184,43.0,24.0,60.0,14.0,0.0
11185,55.0,0.0,60.0,13.0,0.0
11186,57.0,0.0,60.0,13.0,0.0
11187,49.0,24.0,90.0,12.0,0.0
11188,45.0,36.0,60.0,14.0,0.0
11189,53.0,0.0,90.0,11.0,0.0
11190,46.0,0.0,60.0,14.0,0.0
11191,58.0,96.0,60.0,13.0,0.0
11192,48.0,36.0,1830.0,2.0,0.0
11193,36.0,0.0,1830.0,2.0,0.0
11194,54.0,0.0,90.0,11.0,0.0
11195,69.0,0.0,780.0,1.0,0.0
11196,81.0,0.0,780.0,0.0,0.0
11197,57.0,24.0,780.0,10.0,0.0
11198,48.0,24.0,300.0,14.0,0.0
11199,51.0,120.0,90.0,12.0,0.0
11200,60.0,0.0,300.0,13.0,0.0
11201,60.0,0.0,1830.0,3.0,0.0
11202,54.0,0.0,90.0,11.0,0.0
11203,51.0,96.0,90.0,12.0,0.0
11204,54.0,120.0,90.0,11.0,0.0
11205,51.0,0.0,90.0,12.0,0.0
11206,51.0,0.0,90.0,12.0,0.0
11207,54.0,120.0,90.0,11.0,0.0
11208,57.0,0.0,300.0,13.0,0.0
11209,54.0,0.0,90.0,11.0,0.0
11210,45.0,24.0,300.0,14.0,0.0
11211,51.0,120.0,90.0,12.0,0.0
11212,54.0,72.0,90.0,11.0,0.0
11213,51.0,0.0,90.0,12.0,0.0
11214,54.0,120.0,90.0,11.0,0.0
11215,51.0,0.0,90.0,12.0,0.0
11216,54.0,120.0,90.0,11.0,0.0
11217,51.0,0.0,90.0,12.0,0.0
11218,51.0,24.0,300.0,13.0,0.0
11219,51.0,0.0,90.0,12.0,0.0
11220,39.0,0.0,300.0,14.0,0.0
11221,54.0,120.0,90.0,11.0,0.0
11222,54.0,0.0,90.0,11.0,0.0
11223,51.0,96.0,90.0,12.0,0.0
11224,51.0,120.0,90.0,12.0,0.0
11225,54.0,0.0,90.0,11.0,0.0
11226,51.0,0.0,90.0,12.0,0.0
11227,54.0,120.0,90.0,11.0,0.0
11228,51.0,120.0,90.0,12.0,0.0
11229,48.0,24.0,300.0,13.0,0.0
11230,36.0,0.0,300.0,14.0,0.0
11231,54.0,0.0,90.0,11.0,0.0
11232,54.0,0.0,90.0,11.0,0.0
11233,51.0,84.0,90.0,12.0,0.0
11234,51.0,24.0,90.0,12.0,0.0
11235,72.0,12.0,60.0,10.0,0.0
11236,54.0,0.0,90.0,11.0,0.0
11237,73.0,24.0,60.0,10.0,0.0
11238,51.0,0.0,90.0,12.0,0.0
11239,54.0,24.0,90.0,11.0,0.0
11240,75.0,36.0,60.0,10.0,0.0
11241,77.0,96.0,60.0,10.0,0.0
11242,49.0,120.0,90.0,12.0,0.0
11243,46.0,0.0,300.0,3.0,0.0
11244,46.0,0.0,780.0,13.0,0.0
11245,34.0,0.0,780.0,14.0,0.0
11246,78.0,48.0,300.0,10.0,0.0
11247,54.0,0.0,90.0,11.0,0.0
11248,58.0,0.0,300.0,3.0,0.0
11249,34.0,16.0,1830.0,2.0,0.0
11250,46.0,0.0,1830.0,2.0,0.0
11251,54.0,0.0,90.0,11.0,0.0
11252,49.0,72.0,90.0,12.0,0.0
11253,54.0,0.0,90.0,11.0,0.0
11254,49.0,120.0,90.0,12.0,0.0
11255,49.0,0.0,90.0,12.0,0.0
11256,54.0,120.0,90.0,11.0,0.0
11257,49.0,120.0,90.0,12.0,0.0
11258,85.0,24.0,270.0,0.0,0.0
11259,54.0,0.0,90.0,11.0,0.0
11260,46.0,48.0,300.0,3.0,0.0
11261,58.0,0.0,300.0,3.0,0.0
11262,73.0,0.0,270.0,1.0,0.0
11263,61.0,0.0,300.0,10.0,0.0
11264,54.0,0.0,90.0,11.0,0.0
11265,49.0,48.0,90.0,12.0,0.0
11266,54.0,0.0,90.0,11.0,0.0
11267,49.0,120.0,90.0,12.0,0.0
11268,49.0,0.0,90.0,12.0,0.0
11269,54.0,120.0,90.0,11.0,0.0
11270,58.0,0.0,300.0,10.0,0.0
11271,58.0,48.0,300.0,3.0,0.0
11272,49.0,120.0,90.0,12.0,0.0
11273,70.0,24.0,270.0,1.0,0.0
11274,82.0,0.0,270.0,1.0,0.0
11275,82.0,0.0,270.0,0.0,0.0
11276,54.0,0.0,90.0,11.0,0.0
11277,46.0,0.0,300.0,3.0,0.0
11278,54.0,0.0,90.0,11.0,0.0
11279,49.0,48.0,90.0,12.0,0.0
11280,54.0,120.0,90.0,11.0,0.0
11281,49.0,0.0,90.0,12.0,0.0
11282,49.0,0.0,90.0,12.0,0.0
11283,54.0,120.0,90.0,11.0,0.0
11284,49.0,0.0,90.0,12.0,0.0
11285,54.0,120.0,90.0,11.0,0.0
11286,66.0,0.0,270.0,1.0,0.0
11287,78.0,0.0,270.0,1.0,0.0
11288,54.0,32.0,300.0,10.0,0.0
11289,58.0,0.0,300.0,3.0,0.0
11290,78.0,24.0,270.0,0.0,0.0
11291,46.0,0.0,300.0,3.0,0.0
11292,49.0,0.0,90.0,12.0,0.0
11293,54.0,48.0,90.0,11.0,0.0
11294,61.0,0.0,90.0,13.0,0.0
11295,54.0,48.0,90.0,11.0,0.0
11296,49.0,16.0,90.0,14.0,0.0
11297,49.0,0.0,90.0,12.0,0.0
11298,60.0,0.0,90.0,13.0,0.0
11299,48.0,56.0,90.0,14.0,0.0
11300,49.0,0.0,90.0,12.0,0.0
11301,54.0,24.0,90.0,11.0,0.0
11302,58.0,0.0,90.0,13.0,0.0
11303,46.0,384.0,90.0,14.0,0.0
11304,65.0,0.0,720.0,1.0,0.0
11305,45.0,0.0,720.0,2.0,0.0
11306,77.0,0.0,720.0,1.0,0.0
11307,57.0,0.0,720.0,13.0,0.0
11308,77.0,240.0,720.0,0.0,0.0
11309,48.0,0.0,720.0,12.0,0.0
11310,53.0,0.0,720.0,10.0,0.0
11311,41.0,0.0,390.0,5.0,0.0
11312,53.0,0.0,720.0,11.0,0.0
11313,45.0,0.0,720.0,14.0,0.0
11314,65.0,0.0,390.0,4.0,0.0
11315,41.0,0.0,390.0,3.0,0.0
11316,53.0,336.0,390.0,4.0,0.0
11317,53.0,0.0,390.0,3.0,0.0
11318,46.0,0.0,240.0,2.0,0.0
11319,54.0,0.0,240.0,10.0,0.0
11320,78.0,0.0,240.0,0.0,0.0
11321,49.0,0.0,240.0,12.0,0.0
11322,78.0,0.0,240.0,1.0,0.0
11323,66.0,0.0,240.0,1.0,0.0
11324,46.0,0.0,240.0,14.0,0.0
11325,58.0,0.0,240.0,13.0,0.0
11326,54.0,240.0,240.0,11.0,0.0
11327,53.0,0.0,240.0,10.0,0.0
11328,45.0,0.0,240.0,14.0,0.0
11329,77.0,0.0,240.0,0.0,0.0
11330,48.0,0.0,240.0,12.0,0.0
11331,57.0,0.0,240.0,13.0,0.0
11332,77.0,0.0,240.0,1.0,0.0
11333,65.0,240.0,240.0,1.0,0.0
11334,45.0,0.0,240.0,2.0,0.0
11335,53.0,0.0,240.0,11.0,0.0
11336,52.0,0.0,240.0,10.0,0.0
11337,49.0,0.0,240.0,12.0,0.0
11338,46.0,0.0,240.0,2.0,0.0
11339,52.0,0.0,240.0,11.0,0.0
11340,46.0,0.0,240.0,14.0,0.0
11341,76.0,240.0,240.0,0.0,0.0
11342,58.0,0.0,240.0,13.0,0.0
11343,76.0,0.0,240.0,1.0,0.0
11344,64.0,0.0,240.0,1.0,0.0
11345,77.0,0.0,240.0,1.0,0.0
11346,65.0,0.0,240.0,1.0,0.0
11347,45.0,0.0,240.0,14.0,0.0
11348,45.0,0.0,240.0,2.0,0.0
11349,53.0,0.0,240.0,10.0,0.0
11350,53.0,0.0,240.0,11.0,0.0
11351,57.0,0.0,240.0,13.0,0.0
11352,48.0,192.0,240.0,12.0,0.0
11353,77.0,0.0,240.0,0.0,0.0
11354,76.0,0.0,180.0,1.0,0.0
11355,52.0,36.0,180.0,10.0,0.0
11356,64.0,0.0,180.0,1.0,0.0
11357,76.0,0.0,180.0,0.0,0.0
11358,46.0,396.0,240.0,14.0,0.0
11359,58.0,0.0,240.0,13.0,0.0
11360,46.0,0.0,180.0,2.0,0.0
11361,52.0,0.0,180.0,11.0,0.0
11362,49.0,0.0,240.0,12.0,0.0
11363,77.0,0.0,720.0,0.0,0.0
11364,41.0,0.0,390.0,5.0,0.0
11365,57.0,0.0,720.0,13.0,0.0
11366,45.0,0.0,720.0,14.0,0.0
11367,53.0,0.0,720.0,11.0,0.0
11368,53.0,240.0,720.0,10.0,0.0
11369,65.0,0.0,720.0,1.0,0.0
11370,45.0,0.0,720.0,2.0,0.0
11371,65.0,0.0,390.0,4.0,0.0
11372,53.0,0.0,390.0,4.0,0.0
11373,48.0,0.0,720.0,12.0,0.0
11374,41.0,336.0,390.0,3.0,0.0
11375,53.0,0.0,390.0,3.0,0.0
11376,77.0,0.0,720.0,1.0,0.0
11377,78.0,240.0,240.0,0.0,0.0
11378,78.0,0.0,240.0,1.0,0.0
11379,54.0,0.0,240.0,11.0,0.0
11380,46.0,0.0,240.0,14.0,0.0
11381,46.0,0.0,240.0,2.0,0.0
11382,49.0,0.0,240.0,12.0,0.0
11383,66.0,0.0,240.0,1.0,0.0
11384,58.0,0.0,240.0,13.0,0.0
11385,54.0,0.0,240.0,10.0,0.0
11386,53.0,0.0,240.0,11.0,0.0
11387,45.0,0.0,240.0,14.0,0.0
11388,65.0,0.0,240.0,1.0,0.0
11389,77.0,240.0,240.0,1.0,0.0
11390,57.0,0.0,240.0,13.0,0.0
11391,45.0,0.0,240.0,2.0,0.0
11392,53.0,0.0,240.0,10.0,0.0
11393,48.0,0.0,240.0,12.0,0.0
11394,77.0,0.0,240.0,0.0,0.0
11395,46.0,0.0,240.0,2.0,0.0
11396,76.0,0.0,240.0,0.0,0.0
11397,49.0,240.0,240.0,12.0,0.0
11398,52.0,0.0,240.0,10.0,0.0
11399,52.0,0.0,240.0,11.0,0.0
11400,46.0,0.0,240.0,14.0,0.0
11401,64.0,0.0,240.0,1.0,0.0
11402,76.0,0.0,240.0,1.0,0.0
11403,58.0,0.0,240.0,13.0,0.0
11404,53.0,192.0,240.0,10.0,0.0
11405,53.0,0.0,240.0,11.0,0.0
11406,77.0,0.0,240.0,1.0,0.0
11407,65.0,0.0,240.0,1.0,0.0
11408,77.0,0.0,240.0,0.0,0.0
11409,48.0,0.0,240.0,12.0,0.0
11410,45.0,0.0,240.0,14.0,0.0
11411,45.0,0.0,240.0,2.0,0.0
11412,57.0,0.0,240.0,13.0,0.0
11413,49.0,396.0,240.0,12.0,0.0
11414,46.0,0.0,240.0,14.0,0.0
11415,52.0,0.0,180.0,11.0,0.0
11416,52.0,0.0,180.0,10.0,0.0
11417,76.0,0.0,180.0,0.0,0.0
11418,58.0,0.0,240.0,13.0,0.0
11419,76.0,0.0,180.0,1.0,0.0
11420,64.0,0.0,180.0,1.0,0.0
11421,46.0,36.0,180.0,2.0,0.0
11422,53.0,0.0,390.0,3.0,0.0
11423,41.0,480.0,390.0,5.0,0.0
11424,65.0,0.0,390.0,4.0,0.0
11425,53.0,0.0,390.0,4.0,0.0
11426,53.0,0.0,390.0,11.0,0.0
11427,57.0,0.0,390.0,13.0,0.0
11428,77.0,0.0,390.0,0.0,0.0
11429,41.0,0.0,390.0,3.0,0.0
11430,53.0,0.0,390.0,10.0,0.0
11431,48.0,0.0,390.0,12.0,0.0
11432,65.0,0.0,390.0,1.0,0.0
11433,77.0,0.0,390.0,1.0,0.0
11434,45.0,0.0,390.0,14.0,0.0
11435,45.0,0.0,390.0,2.0,0.0
11436,65.0,0.0,390.0,10.0,0.0
11437,75.0,0.0,390.0,10.0,0.0
11438,65.0,480.0,390.0,11.0,0.0
11439,72.0,0.0,390.0,11.0,0.0
11440,57.0,0.0,390.0,12.0,0.0
11441,58.0,0.0,390.0,4.0,0.0
11442,46.0,0.0,390.0,5.0,0.0
11443,58.0,0.0,390.0,13.0,0.0
11444,73.0,0.0,390.0,1.0,0.0
11445,70.0,0.0,390.0,4.0,0.0
11446,58.0,0.0,390.0,3.0,0.0
11447,46.0,480.0,390.0,3.0,0.0
11448,46.0,0.0,390.0,14.0,0.0
11449,77.0,0.0,390.0,0.0,0.0
11450,46.0,0.0,390.0,2.0,0.0
11451,70.0,0.0,390.0,1.0,0.0
11452,65.0,0.0,390.0,10.0,0.0
11453,70.0,0.0,390.0,11.0,0.0
11454,73.0,480.0,390.0,10.0,0.0
11455,58.0,0.0,390.0,12.0,0.0
11456,58.0,0.0,390.0,11.0,0.0
11457,39.0,0.0,390.0,2.0,0.0
11458,78.0,0.0,390.0,0.0,0.0
11459,70.0,0.0,390.0,4.0,0.0
11460,58.0,0.0,390.0,4.0,0.0
11461,72.0,0.0,390.0,1.0,0.0
11462,70.0,0.0,390.0,1.0,0.0
11463,51.0,480.0,390.0,13.0,0.0
11464,58.0,0.0,390.0,3.0,0.0
11465,46.0,0.0,390.0,3.0,0.0
11466,46.0,0.0,390.0,5.0,0.0
11467,39.0,0.0,390.0,14.0,0.0
11468,70.0,0.0,390.0,10.0,0.0
11469,51.0,0.0,390.0,12.0,0.0
11470,78.0,0.0,390.0,10.0,0.0
11471,66.0,0.0,390.0,11.0,0.0
11472,75.0,480.0,390.0,11.0,0.0
11473,58.0,0.0,390.0,3.0,0.0
11474,46.0,0.0,390.0,3.0,0.0
11475,70.0,0.0,390.0,1.0,0.0
11476,73.0,0.0,390.0,1.0,0.0
11477,40.0,0.0,390.0,2.0,0.0
11478,46.0,0.0,390.0,5.0,0.0
11479,52.0,480.0,390.0,13.0,0.0
11480,58.0,0.0,390.0,4.0,0.0
11481,70.0,0.0,390.0,4.0,0.0
11482,40.0,0.0,390.0,14.0,0.0
11483,82.0,0.0,390.0,0.0,0.0
11484,73.0,0.0,390.0,10.0,0.0
11485,52.0,0.0,390.0,12.0,0.0
11486,82.0,0.0,390.0,10.0,0.0
11487,79.0,0.0,390.0,11.0,0.0
11488,70.0,998.0,390.0,11.0,0.0
11489,41.0,1786.0,900.0,5.0,0.0
11490,53.0,0.0,2700.0,12.0,0.0
11491,73.0,0.0,2850.0,6.0,0.0
11492,70.0,172.0,2700.0,1.0,0.0
11493,73.0,0.0,2700.0,1.0,0.0
11494,53.0,0.0,2700.0,3.0,0.0
11495,41.0,0.0,2700.0,3.0,0.0
11496,41.0,0.0,2700.0,14.0,0.0
11497,53.0,0.0,2700.0,13.0,0.0
11498,41.0,0.0,2700.0,2.0,0.0
11499,73.0,0.0,2700.0,0.0,0.0
11500,53.0,0.0,2700.0,4.0,0.0
11501,65.0,0.0,2700.0,4.0,0.0
11502,53.0,0.0,2700.0,11.0,0.0
11503,65.0,0.0,2850.0,6.0,0.0
11504,70.0,0.0,2850.0,6.0,0.0
11505,53.0,0.0,2700.0,10.0,0.0
11506,53.0,80.0,2850.0,8.0,0.0
11507,73.0,60.0,60.0,6.0,0.0
11508,72.0,60.0,60.0,6.0,0.0
11509,73.0,60.0,60.0,6.0,0.0
11510,72.0,60.0,60.0,6.0,0.0
11511,73.0,60.0,60.0,6.0,0.0
11512,72.0,60.0,60.0,6.0,0.0
11513,73.0,60.0,60.0,6.0,0.0
11514,72.0,60.0,60.0,6.0,0.0
11515,73.0,60.0,60.0,6.0,0.0
11516,72.0,60.0,60.0,6.0,0.0
11517,73.0,60.0,60.0,6.0,0.0
11518,72.0,60.0,60.0,6.0,0.0
11519,73.0,60.0,60.0,6.0,0.0
11520,72.0,60.0,60.0,6.0,0.0
11521,73.0,60.0,60.0,6.0,0.0
11522,72.0,60.0,60.0,6.0,0.0
11523,73.0,60.0,60.0,6.0,0.0
11524,72.0,60.0,60.0,6.0,0.0
11525,73.0,60.0,60.0,6.0,0.0
11526,72.0,60.0,60.0,6.0,0.0
11527,73.0,60.0,60.0,6.0,0.0
11528,72.0,60.0,60.0,6.0,0.0
11529,73.0,60.0,60.0,6.0,0.0
11530,72.0,60.0,60.0,6.0,0.0
11531,73.0,60.0,60.0,6.0,0.0
11532,72.0,60.0,60.0,6.0,0.0
11533,73.0,60.0,60.0,6.0,0.0
11534,72.0,60.0,60.0,6.0,0.0
11535,73.0,20.0,60.0,6.0,0.0
11536,36.0,40.0,90.0,8.0,0.0
11537,72.0,40.0,60.0,6.0,0.0
11538,38.0,20.0,90.0,8.0,0.0
11539,73.0,60.0,60.0,6.0,0.0
11540,40.0,60.0,90.0,8.0,0.0
11541,72.0,0.0,60.0,6.0,0.0
11542,73.0,60.0,60.0,6.0,0.0
11543,41.0,60.0,480.0,8.0,0.0
11544,72.0,60.0,60.0,6.0,0.0
11545,73.0,60.0,60.0,6.0,0.0
11546,72.0,60.0,60.0,6.0,0.0
11547,73.0,60.0,60.0,6.0,0.0
11548,72.0,60.0,60.0,6.0,0.0
11549,73.0,60.0,60.0,6.0,0.0
11550,72.0,0.0,60.0,6.0,0.0
11551,73.0,60.0,60.0,6.0,0.0
11552,72.0,60.0,60.0,6.0,0.0
11553,73.0,60.0,60.0,6.0,0.0
11554,72.0,120.0,60.0,6.0,0.0
11555,70.0,120.0,120.0,6.0,0.0
11556,72.0,60.0,120.0,6.0,0.0
11557,77.0,60.0,60.0,6.0,0.0
11558,75.0,60.0,60.0,6.0,0.0
11559,77.0,60.0,60.0,6.0,0.0
11560,75.0,60.0,60.0,6.0,0.0
11561,77.0,60.0,60.0,6.0,0.0
11562,75.0,60.0,60.0,6.0,0.0
11563,77.0,60.0,60.0,6.0,0.0
11564,75.0,60.0,60.0,6.0,0.0
11565,77.0,60.0,60.0,6.0,0.0
11566,75.0,60.0,60.0,6.0,0.0
11567,77.0,60.0,60.0,6.0,0.0
11568,75.0,60.0,60.0,6.0,0.0
11569,34.0,40.0,90.0,8.0,0.0
11570,77.0,20.0,60.0,6.0,0.0
11571,75.0,40.0,60.0,6.0,0.0
11572,36.0,20.0,90.0,8.0,0.0
11573,77.0,60.0,60.0,6.0,0.0
11574,38.0,60.0,90.0,8.0,0.0
11575,75.0,0.0,60.0,6.0,0.0
11576,77.0,60.0,60.0,6.0,0.0
11577,39.0,60.0,480.0,8.0,0.0
11578,75.0,60.0,60.0,6.0,0.0
11579,77.0,60.0,60.0,6.0,0.0
11580,75.0,60.0,60.0,6.0,0.0
11581,77.0,60.0,60.0,6.0,0.0
11582,75.0,60.0,60.0,6.0,0.0
11583,77.0,60.0,60.0,6.0,0.0
11584,75.0,0.0,60.0,6.0,0.0
11585,77.0,60.0,60.0,6.0,0.0
11586,75.0,60.0,60.0,6.0,0.0
11587,77.0,60.0,60.0,6.0,0.0
11588,75.0,120.0,60.0,6.0,0.0
11589,74.0,120.0,120.0,6.0,0.0
11590,75.0,60.0,120.0,6.0,0.0
11591,80.0,60.0,60.0,6.0,0.0
11592,78.0,60.0,60.0,6.0,0.0
11593,80.0,60.0,60.0,6.0,0.0
11594,78.0,60.0,60.0,6.0,0.0
11595,80.0,60.0,60.0,6.0,0.0
11596,78.0,60.0,60.0,6.0,0.0
11597,80.0,60.0,60.0,6.0,0.0
11598,78.0,60.0,60.0,6.0,0.0
11599,80.0,60.0,60.0,6.0,0.0
11600,78.0,60.0,60.0,6.0,0.0
11601,80.0,60.0,60.0,6.0,0.0
11602,78.0,60.0,60.0,6.0,0.0
11603,30.0,40.0,90.0,8.0,0.0
11604,80.0,20.0,60.0,6.0,0.0
11605,78.0,40.0,60.0,6.0,0.0
11606,32.0,20.0,90.0,8.0,0.0
11607,80.0,60.0,60.0,6.0,0.0
11608,34.0,60.0,90.0,8.0,0.0
11609,78.0,0.0,60.0,6.0,0.0
11610,35.0,60.0,480.0,8.0,0.0
11611,80.0,60.0,60.0,6.0,0.0
11612,78.0,60.0,60.0,6.0,0.0
11613,80.0,60.0,60.0,6.0,0.0
11614,78.0,60.0,60.0,6.0,0.0
11615,80.0,60.0,60.0,6.0,0.0
11616,78.0,60.0,60.0,6.0,0.0
11617,80.0,60.0,60.0,6.0,0.0
11618,78.0,0.0,60.0,6.0,0.0
11619,80.0,60.0,60.0,6.0,0.0
11620,78.0,60.0,60.0,6.0,0.0
11621,80.0,60.0,60.0,6.0,0.0
11622,78.0,120.0,60.0,6.0,0.0
11623,77.0,120.0,120.0,6.0,0.0
11624,78.0,118.0,120.0,6.0,0.0
11625,83.0,120.0,120.0,6.0,0.0
11626,78.0,120.0,120.0,6.0,0.0
11627,75.0,120.0,120.0,6.0,0.0
11628,78.0,120.0,120.0,6.0,0.0
11629,87.0,120.0,120.0,6.0,0.0
11630,78.0,120.0,120.0,6.0,0.0
11631,75.0,120.0,120.0,6.0,0.0
11632,78.0,120.0,120.0,6.0,0.0
11633,85.0,120.0,120.0,6.0,0.0
11634,78.0,120.0,120.0,6.0,0.0
11635,75.0,120.0,120.0,6.0,0.0
11636,78.0,120.0,120.0,6.0,0.0
11637,83.0,120.0,120.0,6.0,0.0
11638,78.0,120.0,120.0,6.0,0.0
11639,75.0,120.0,120.0,6.0,0.0
11640,78.0,238.0,120.0,6.0,0.0
11641,42.0,0.0,240.0,7.0,0.0
11642,39.0,234.0,240.0,7.0,0.0
11643,36.0,240.0,480.0,8.0,0.0
11644,42.0,240.0,480.0,7.0,0.0
11645,39.0,0.0,480.0,7.0,0.0
11646,36.0,240.0,480.0,8.0,0.0
11647,42.0,0.0,480.0,7.0,0.0
11648,39.0,240.0,480.0,7.0,0.0
11649,36.0,240.0,480.0,8.0,0.0
11650,39.0,0.0,480.0,7.0,0.0
11651,42.0,240.0,480.0,7.0,0.0
11652,36.0,6.0,480.0,8.0,0.0
11653,42.0,0.0,240.0,7.0,0.0
11654,39.0,122.0,240.0,7.0,0.0
11655,33.0,8.0,480.0,8.0,0.0
11656,82.0,120.0,120.0,6.0,0.0
11657,79.0,120.0,120.0,6.0,0.0
11658,73.0,112.0,120.0,6.0,0.0
11659,79.0,120.0,120.0,6.0,0.0
11660,88.0,120.0,120.0,6.0,0.0
11661,79.0,120.0,120.0,6.0,0.0
11662,73.0,120.0,120.0,6.0,0.0
11663,79.0,120.0,120.0,6.0,0.0
11664,87.0,120.0,120.0,6.0,0.0
11665,79.0,120.0,120.0,6.0,0.0
11666,73.0,120.0,120.0,6.0,0.0
11667,79.0,120.0,120.0,6.0,0.0
11668,85.0,120.0,120.0,6.0,0.0
11669,79.0,120.0,120.0,6.0,0.0
11670,73.0,120.0,120.0,6.0,0.0
11671,79.0,238.0,120.0,6.0,0.0
11672,34.0,240.0,480.0,8.0,0.0
11673,43.0,234.0,240.0,7.0,0.0
11674,37.0,0.0,240.0,7.0,0.0
11675,37.0,0.0,480.0,7.0,0.0
11676,43.0,240.0,480.0,7.0,0.0
11677,34.0,240.0,480.0,8.0,0.0
11678,43.0,240.0,480.0,7.0,0.0
11679,37.0,0.0,480.0,7.0,0.0
11680,34.0,240.0,480.0,8.0,0.0
11681,43.0,0.0,480.0,7.0,0.0
11682,37.0,240.0,480.0,7.0,0.0
11683,34.0,6.0,480.0,8.0,0.0
11684,43.0,122.0,240.0,7.0,0.0
11685,37.0,0.0,240.0,7.0,0.0
11686,83.0,120.0,120.0,6.0,0.0
11687,32.0,8.0,480.0,8.0,0.0
11688,78.0,120.0,120.0,6.0,0.0
11689,75.0,112.0,120.0,6.0,0.0
11690,78.0,120.0,120.0,6.0,0.0
11691,87.0,120.0,120.0,6.0,0.0
11692,78.0,82.0,120.0,6.0,0.0
11693,51.0,38.0,90.0,8.0,0.0
11694,75.0,42.0,120.0,6.0,0.0
11695,53.0,78.0,90.0,8.0,0.0
11696,78.0,2.0,120.0,6.0,0.0
11697,55.0,118.0,90.0,8.0,0.0
11698,85.0,120.0,120.0,6.0,0.0
11699,56.0,118.0,480.0,8.0,0.0
11700,78.0,120.0,120.0,6.0,0.0
11701,75.0,120.0,120.0,6.0,0.0
11702,78.0,2.0,120.0,6.0,0.0
11703,83.0,120.0,120.0,6.0,0.0
11704,78.0,82.0,120.0,6.0,0.0
11705,75.0,42.0,120.0,6.0,0.0
11706,39.0,38.0,90.0,8.0,0.0
11707,41.0,78.0,90.0,8.0,0.0
11708,78.0,2.0,120.0,6.0,0.0
11709,43.0,118.0,90.0,8.0,0.0
11710,44.0,118.0,480.0,8.0,0.0
11711,83.0,120.0,120.0,6.0,0.0
11712,77.0,120.0,120.0,6.0,0.0
11713,74.0,120.0,120.0,6.0,0.0
11714,77.0,2.0,120.0,6.0,0.0
11715,83.0,120.0,120.0,6.0,0.0
11716,80.0,120.0,120.0,6.0,0.0
11717,77.0,2.0,120.0,6.0,0.0
11718,50.0,118.0,120.0,8.0,0.0
11719,80.0,2.0,120.0,6.0,0.0
11720,51.0,118.0,120.0,8.0,0.0
11721,53.0,118.0,480.0,8.0,0.0
11722,82.0,120.0,120.0,6.0,0.0
11723,80.0,120.0,120.0,6.0,0.0
11724,74.0,120.0,120.0,6.0,0.0
11725,80.0,2.0,120.0,6.0,0.0
11726,82.0,120.0,120.0,6.0,0.0
11727,80.0,82.0,120.0,6.0,0.0
11728,77.0,42.0,120.0,6.0,0.0
11729,34.0,38.0,90.0,8.0,0.0
11730,36.0,78.0,90.0,8.0,0.0
11731,80.0,2.0,120.0,6.0,0.0
11732,38.0,118.0,90.0,8.0,0.0
11733,82.0,120.0,120.0,6.0,0.0
11734,39.0,94.0,390.0,8.0,0.0
11735,78.0,120.0,120.0,6.0,0.0
11736,70.0,26.0,120.0,6.0,0.0
11737,78.0,120.0,120.0,6.0,0.0
11738,41.0,94.0,390.0,8.0,0.0
11739,82.0,120.0,120.0,6.0,0.0
11740,74.0,120.0,120.0,6.0,0.0
11741,70.0,26.0,120.0,6.0,0.0
11742,74.0,120.0,120.0,6.0,0.0
11743,82.0,120.0,120.0,6.0,0.0
11744,42.0,94.0,390.0,8.0,0.0
11745,75.0,120.0,120.0,6.0,0.0
11746,70.0,26.0,120.0,6.0,0.0
11747,75.0,120.0,120.0,6.0,0.0
11748,52.0,94.0,390.0,8.0,0.0
11749,82.0,120.0,120.0,6.0,0.0
11750,73.0,120.0,120.0,6.0,0.0
11751,70.0,26.0,120.0,6.0,0.0
11752,73.0,120.0,120.0,6.0,0.0
11753,82.0,120.0,120.0,6.0,0.0
11754,42.0,94.0,390.0,8.0,0.0
11755,73.0,120.0,120.0,6.0,0.0
11756,70.0,26.0,120.0,6.0,0.0
11757,73.0,120.0,120.0,6.0,0.0
11758,83.0,120.0,120.0,6.0,0.0
11759,53.0,94.0,390.0,8.0,0.0
11760,74.0,120.0,120.0,6.0,0.0
11761,71.0,26.0,120.0,6.0,0.0
11762,74.0,120.0,120.0,6.0,0.0
11763,42.0,94.0,390.0,8.0,0.0
11764,83.0,120.0,120.0,6.0,0.0
11765,74.0,120.0,120.0,6.0,0.0
11766,71.0,26.0,120.0,6.0,0.0
11767,74.0,120.0,120.0,6.0,0.0
11768,74.0,120.0,120.0,6.0,0.0
11769,54.0,94.0,390.0,8.0,0.0
11770,71.0,120.0,120.0,6.0,0.0
11771,62.0,26.0,120.0,6.0,0.0
11772,71.0,120.0,120.0,6.0,0.0
11773,42.0,46.0,180.0,8.0,0.0
11774,74.0,74.0,120.0,6.0,0.0
11775,71.0,120.0,120.0,6.0,0.0
11776,54.0,46.0,180.0,8.0,0.0
11777,62.0,74.0,120.0,6.0,0.0
11778,71.0,120.0,120.0,6.0,0.0
11779,42.0,46.0,180.0,8.0,0.0
11780,74.0,74.0,120.0,6.0,0.0
11781,71.0,120.0,120.0,6.0,0.0
11782,54.0,46.0,180.0,8.0,0.0
11783,62.0,74.0,120.0,6.0,0.0
11784,71.0,120.0,120.0,6.0,0.0
11785,42.0,46.0,180.0,8.0,0.0
11786,74.0,74.0,120.0,6.0,0.0
11787,71.0,120.0,120.0,6.0,0.0
11788,54.0,46.0,180.0,8.0,0.0
11789,62.0,74.0,120.0,6.0,0.0
11790,71.0,120.0,120.0,6.0,0.0
11791,74.0,74.0,120.0,6.0,0.0
11792,42.0,46.0,180.0,8.0,0.0
11793,71.0,120.0,120.0,6.0,0.0
11794,62.0,74.0,120.0,6.0,0.0
11795,54.0,46.0,180.0,8.0,0.0
11796,71.0,120.0,120.0,6.0,0.0
11797,42.0,46.0,180.0,8.0,0.0
11798,74.0,74.0,120.0,6.0,0.0
11799,71.0,120.0,120.0,6.0,0.0
11800,62.0,74.0,120.0,6.0,0.0
11801,54.0,46.0,180.0,8.0,0.0
11802,71.0,120.0,120.0,6.0,0.0
11803,42.0,46.0,180.0,8.0,0.0
11804,74.0,74.0,120.0,6.0,0.0
11805,71.0,120.0,120.0,6.0,0.0
11806,54.0,46.0,180.0,8.0,0.0
11807,62.0,74.0,120.0,6.0,0.0
11808,71.0,120.0,120.0,6.0,0.0
11809,74.0,74.0,120.0,6.0,0.0
11810,42.0,46.0,180.0,8.0,0.0
11811,71.0,120.0,120.0,6.0,0.0
11812,54.0,46.0,180.0,8.0,0.0
11813,62.0,74.0,120.0,6.0,0.0
11814,71.0,120.0,120.0,6.0,0.0
11815,42.0,46.0,180.0,8.0,0.0
11816,74.0,74.0,120.0,6.0,0.0
11817,71.0,120.0,120.0,6.0,0.0
11818,62.0,74.0,120.0,6.0,0.0
11819,54.0,46.0,180.0,8.0,0.0
11820,71.0,242.0,120.0,6.0,0.0
11821,71.0,192.0,240.0,6.0,0.0
11822,55.0,192.0,480.0,8.0,0.0
11823,43.0,0.0,480.0,8.0,0.0
11824,74.0,0.0,240.0,6.0,0.0
11825,74.0,48.0,180.0,6.0,0.0
11826,71.0,0.0,180.0,6.0,0.0
11827,71.0,240.0,180.0,6.0,0.0
11828,74.0,0.0,180.0,6.0,0.0
11829,71.0,0.0,180.0,6.0,0.0
11830,74.0,240.0,180.0,6.0,0.0
11831,74.0,240.0,180.0,6.0,0.0
11832,71.0,0.0,180.0,6.0,0.0
11833,71.0,240.0,180.0,6.0,0.0
11834,74.0,0.0,180.0,6.0,0.0
11835,71.0,240.0,180.0,6.0,0.0
11836,74.0,0.0,180.0,6.0,0.0
11837,74.0,0.0,180.0,6.0,0.0
11838,71.0,240.0,180.0,6.0,0.0
11839,43.0,0.0,390.0,8.0,0.0
11840,71.0,192.0,180.0,6.0,0.0
11841,74.0,0.0,180.0,6.0,0.0
11842,55.0,48.0,390.0,8.0,0.0
11843,74.0,240.0,180.0,6.0,0.0
11844,71.0,0.0,180.0,6.0,0.0
11845,74.0,240.0,180.0,6.0,0.0
11846,71.0,0.0,180.0,6.0,0.0
11847,71.0,240.0,180.0,6.0,0.0
11848,74.0,0.0,180.0,6.0,0.0
11849,71.0,0.0,180.0,6.0,0.0
11850,74.0,240.0,180.0,6.0,0.0
11851,74.0,240.0,180.0,6.0,0.0
11852,71.0,0.0,180.0,6.0,0.0
11853,74.0,240.0,180.0,6.0,0.0
11854,71.0,0.0,180.0,6.0,0.0
11855,71.0,0.0,180.0,6.0,0.0
11856,74.0,240.0,180.0,6.0,0.0
11857,74.0,240.0,180.0,6.0,0.0
11858,71.0,0.0,180.0,6.0,0.0
11859,71.0,432.0,180.0,6.0,0.0
11860,74.0,0.0,180.0,6.0,0.0
11861,55.0,288.0,390.0,8.0,0.0
11862,43.0,0.0,390.0,8.0,0.0
11863,74.0,0.0,180.0,6.0,0.0
11864,71.0,240.0,180.0,6.0,0.0
11865,74.0,432.0,180.0,6.0,0.0
11866,71.0,0.0,180.0,6.0,0.0
11867,55.0,480.0,390.0,8.0,0.0
11868,43.0,0.0,390.0,8.0,0.0
11869,71.0,480.0,390.0,6.0,0.0
11870,74.0,0.0,390.0,6.0,0.0
11871,55.0,0.0,390.0,8.0,0.0
11872,43.0,576.0,390.0,8.0,0.0
11873,50.0,480.0,480.0,8.0,0.0
11874,50.0,720.0,480.0,8.0,0.0
11875,59.0,120.0,720.0,8.0,0.0
11876,57.0,120.0,120.0,8.0,0.0
11877,55.0,480.0,120.0,8.0,0.0
11878,54.0,480.0,480.0,8.0,0.0
11879,62.0,0.0,15.0,6.0,0.0
11880,57.0,0.0,480.0,8.0,0.0
11881,55.0,336.0,390.0,8.0,0.0
11882,71.0,120.0,720.0,6.0,0.0
11883,69.0,120.0,120.0,6.0,0.0
11884,67.0,456.0,120.0,6.0,0.0
11885,66.0,456.0,480.0,6.0,0.0
11886,50.0,24.0,450.0,7.0,0.0
11887,47.0,0.0,450.0,8.0,0.0
11888,67.0,456.0,480.0,6.0,0.0
11889,50.0,0.0,450.0,8.0,0.0
11890,55.0,24.0,450.0,7.0,0.0
11891,55.0,480.0,450.0,8.0,0.0
11892,59.0,0.0,450.0,7.0,0.0
11893,62.0,0.0,450.0,7.0,0.0
11894,59.0,408.0,450.0,8.0,0.0
11895,78.0,0.0,390.0,6.0,0.0
11896,60.0,0.0,450.0,7.0,0.0
11897,57.0,408.0,450.0,8.0,0.0
11898,74.0,72.0,390.0,6.0,0.0
11899,59.0,408.0,450.0,7.0,0.0
11900,74.0,72.0,390.0,6.0,0.0
11901,79.0,0.0,390.0,6.0,0.0
11902,55.0,0.0,450.0,8.0,0.0
11903,54.0,480.0,390.0,8.0,0.0
11904,74.0,0.0,390.0,6.0,0.0
11905,57.0,0.0,390.0,7.0,0.0
11906,81.0,0.0,390.0,6.0,0.0
11907,86.0,480.0,390.0,6.0,0.0
11908,74.0,0.0,390.0,6.0,0.0
11909,64.0,480.0,390.0,6.0,0.0
11910,64.0,816.0,390.0,6.0,0.0
11911,59.0,0.0,390.0,8.0,0.0
11912,56.0,0.0,390.0,8.0,0.0
11913,72.0,48.0,720.0,6.0,0.0
11914,60.0,72.0,780.0,8.0,0.0
11915,57.0,0.0,780.0,8.0,0.0
11916,71.0,120.0,120.0,6.0,0.0
11917,69.0,384.0,120.0,6.0,0.0
11918,68.0,384.0,480.0,6.0,0.0
11919,59.0,96.0,390.0,8.0,0.0
11920,62.0,0.0,390.0,8.0,0.0
11921,71.0,384.0,480.0,6.0,0.0
11922,52.0,96.0,390.0,8.0,0.0
11923,62.0,0.0,390.0,8.0,0.0
11924,59.0,0.0,390.0,8.0,0.0
11925,60.0,120.0,720.0,8.0,0.0
11926,64.0,336.0,390.0,6.0,0.0
11927,59.0,120.0,120.0,8.0,0.0
11928,57.0,384.0,120.0,8.0,0.0
11929,71.0,96.0,390.0,7.0,0.0
11930,76.0,0.0,390.0,6.0,0.0
11931,56.0,384.0,480.0,8.0,0.0
11932,81.0,0.0,390.0,6.0,0.0
11933,57.0,384.0,480.0,8.0,0.0
11934,72.0,96.0,390.0,7.0,0.0
11935,84.0,480.0,390.0,6.0,0.0
11936,88.0,480.0,390.0,6.0,0.0
11937,79.0,288.0,390.0,6.0,0.0
11938,83.0,192.0,180.0,6.0,0.0
11939,78.0,48.0,390.0,7.0,0.0
11940,81.0,1464.0,180.0,6.0,0.0
11941,62.0,480.0,450.0,6.0,0.0
11942,62.0,184.0,450.0,6.0,0.0
11943,43.0,160.0,150.0,8.0,0.0
11944,70.0,80.0,720.0,6.0,0.0
11945,46.0,160.0,150.0,8.0,0.0
11946,50.0,160.0,150.0,8.0,0.0
11947,55.0,80.0,150.0,8.0,0.0
11948,50.0,40.0,150.0,8.0,0.0
11949,69.0,96.0,120.0,6.0,0.0
11950,46.0,160.0,150.0,8.0,0.0
11951,67.0,24.0,90.0,6.0,0.0
11952,45.0,160.0,150.0,8.0,0.0
11953,66.0,96.0,390.0,6.0,0.0
11954,48.0,64.0,150.0,8.0,0.0
11955,50.0,160.0,150.0,8.0,0.0
11956,54.0,160.0,150.0,8.0,0.0
11957,69.0,96.0,390.0,6.0,0.0
11958,50.0,64.0,150.0,8.0,0.0
11959,48.0,128.0,150.0,8.0,0.0
11960,67.0,96.0,390.0,6.0,0.0
11961,46.0,192.0,120.0,8.0,0.0
11962,50.0,64.0,150.0,8.0,0.0
11963,55.0,160.0,150.0,8.0,0.0
11964,58.0,160.0,150.0,8.0,0.0
11965,55.0,160.0,150.0,8.0,0.0
11966,50.0,160.0,150.0,8.0,0.0
11967,46.0,160.0,150.0,8.0,0.0
11968,62.0,160.0,480.0,6.0,0.0
11969,50.0,160.0,150.0,8.0,0.0
11970,55.0,0.0,150.0,8.0,0.0
11971,67.0,0.0,480.0,6.0,0.0
11972,58.0,160.0,150.0,8.0,0.0
11973,55.0,160.0,150.0,8.0,0.0
11974,50.0,160.0,150.0,8.0,0.0
11975,46.0,160.0,150.0,8.0,0.0
11976,70.0,160.0,480.0,6.0,0.0
11977,50.0,160.0,150.0,8.0,0.0
11978,55.0,0.0,150.0,8.0,0.0
11979,46.0,160.0,150.0,8.0,0.0
11980,74.0,0.0,480.0,6.0,0.0
11981,50.0,160.0,150.0,8.0,0.0
11982,53.0,160.0,150.0,8.0,0.0
11983,72.0,0.0,480.0,6.0,0.0
11984,46.0,160.0,150.0,8.0,0.0
11985,51.0,160.0,150.0,8.0,0.0
11986,53.0,160.0,150.0,8.0,0.0
11987,70.0,160.0,480.0,6.0,0.0
11988,46.0,160.0,150.0,8.0,0.0
11989,50.0,160.0,150.0,8.0,0.0
11990,53.0,0.0,150.0,8.0,0.0
11991,46.0,160.0,150.0,8.0,0.0
11992,69.0,96.0,390.0,6.0,0.0
11993,48.0,64.0,150.0,8.0,0.0
11994,51.0,160.0,150.0,8.0,0.0
11995,57.0,160.0,150.0,8.0,0.0
11996,51.0,160.0,150.0,8.0,0.0
11997,48.0,160.0,150.0,8.0,0.0
11998,46.0,160.0,150.0,8.0,0.0
11999,69.0,0.0,480.0,6.0,0.0
12000,48.0,160.0,150.0,8.0,0.0
12001,51.0,160.0,150.0,8.0,0.0
12002,72.0,160.0,480.0,6.0,0.0
12003,57.0,160.0,150.0,8.0,0.0
12004,51.0,160.0,150.0,8.0,0.0
12005,48.0,0.0,150.0,8.0,0.0
12006,46.0,160.0,150.0,8.0,0.0
12007,75.0,0.0,480.0,6.0,0.0
12008,48.0,160.0,150.0,8.0,0.0
12009,51.0,160.0,150.0,8.0,0.0
12010,57.0,160.0,150.0,8.0,0.0
12011,78.0,0.0,480.0,6.0,0.0
12012,51.0,160.0,150.0,8.0,0.0
12013,48.0,160.0,150.0,8.0,0.0
12014,77.0,160.0,480.0,6.0,0.0
12015,46.0,160.0,150.0,8.0,0.0
12016,48.0,160.0,150.0,8.0,0.0
12017,51.0,0.0,150.0,8.0,0.0
12018,57.0,160.0,150.0,8.0,0.0
12019,75.0,0.0,480.0,6.0,0.0
12020,51.0,160.0,150.0,8.0,0.0
12021,48.0,160.0,150.0,8.0,0.0
12022,46.0,160.0,150.0,8.0,0.0
12023,74.0,96.0,390.0,6.0,0.0
12024,50.0,64.0,150.0,8.0,0.0
12025,53.0,160.0,150.0,8.0,0.0
12026,56.0,160.0,150.0,8.0,0.0
12027,53.0,160.0,150.0,8.0,0.0
12028,50.0,160.0,150.0,8.0,0.0
12029,46.0,160.0,150.0,8.0,0.0
12030,74.0,160.0,480.0,6.0,0.0
12031,50.0,160.0,150.0,8.0,0.0
12032,53.0,0.0,150.0,8.0,0.0
12033,77.0,160.0,480.0,6.0,0.0
12034,56.0,160.0,150.0,8.0,0.0
12035,53.0,160.0,150.0,8.0,0.0
12036,50.0,0.0,150.0,8.0,0.0
12037,80.0,160.0,480.0,6.0,0.0
12038,46.0,160.0,150.0,8.0,0.0
12039,50.0,160.0,150.0,8.0,0.0
12040,53.0,0.0,150.0,8.0,0.0
12041,56.0,160.0,150.0,8.0,0.0
12042,83.0,0.0,480.0,6.0,0.0
12043,53.0,160.0,150.0,8.0,0.0
12044,50.0,160.0,150.0,8.0,0.0
12045,82.0,0.0,480.0,6.0,0.0
12046,46.0,160.0,150.0,8.0,0.0
12047,50.0,160.0,150.0,8.0,0.0
12048,53.0,160.0,150.0,8.0,0.0
12049,80.0,96.0,390.0,6.0,0.0
12050,56.0,160.0,150.0,8.0,0.0
12051,53.0,64.0,150.0,8.0,0.0
12052,50.0,160.0,150.0,8.0,0.0
12053,46.0,160.0,150.0,8.0,0.0
12054,50.0,160.0,150.0,8.0,0.0
12055,53.0,160.0,150.0,8.0,0.0
12056,56.0,160.0,150.0,8.0,0.0
12057,80.0,160.0,480.0,6.0,0.0
12058,71.0,0.0,480.0,6.0,0.0
12059,53.0,160.0,150.0,8.0,0.0
12060,50.0,0.0,150.0,8.0,0.0
12061,78.0,0.0,480.0,6.0,0.0
12062,70.0,160.0,480.0,6.0,0.0
12063,46.0,160.0,150.0,8.0,0.0
12064,50.0,160.0,150.0,8.0,0.0
12065,53.0,0.0,150.0,8.0,0.0
12066,56.0,160.0,150.0,8.0,0.0
12067,68.0,160.0,480.0,6.0,0.0
12068,77.0,0.0,480.0,6.0,0.0
12069,53.0,160.0,150.0,8.0,0.0
12070,50.0,0.0,150.0,8.0,0.0
12071,46.0,160.0,150.0,8.0,0.0
12072,50.0,160.0,150.0,8.0,0.0
12073,53.0,384.0,150.0,8.0,0.0
12074,68.0,480.0,480.0,6.0,0.0
12075,71.0,0.0,480.0,6.0,0.0
12076,56.0,96.0,390.0,8.0,0.0
12077,70.0,320.0,480.0,6.0,0.0
12078,66.0,0.0,480.0,6.0,0.0
12079,65.0,192.0,480.0,6.0,0.0
12080,68.0,0.0,480.0,6.0,0.0
12081,34.0,80.0,90.0,8.0,0.0
12082,36.0,80.0,90.0,8.0,0.0
12083,38.0,0.0,90.0,8.0,0.0
12084,39.0,240.0,390.0,8.0,0.0
12085,66.0,192.0,180.0,6.0,0.0
12086,63.0,0.0,180.0,6.0,0.0
12087,75.0,480.0,390.0,6.0,0.0
12088,75.0,480.0,390.0,6.0,0.0
12089,75.0,176.0,390.0,6.0,0.0
12090,34.0,80.0,90.0,8.0,0.0
12091,75.0,48.0,180.0,6.0,0.0
12092,36.0,32.0,90.0,8.0,0.0
12093,38.0,120.0,90.0,8.0,0.0
12094,39.0,96.0,390.0,8.0,0.0
12095,75.0,120.0,120.0,6.0,0.0
12096,66.0,120.0,120.0,6.0,0.0
12097,63.0,24.0,120.0,6.0,0.0
12098,66.0,120.0,120.0,6.0,0.0
12099,75.0,120.0,120.0,6.0,0.0
12100,66.0,120.0,120.0,6.0,0.0
12101,63.0,120.0,120.0,6.0,0.0
12102,66.0,120.0,120.0,6.0,0.0
12103,75.0,120.0,120.0,6.0,0.0
12104,66.0,120.0,120.0,6.0,0.0
12105,63.0,120.0,120.0,6.0,0.0
12106,66.0,120.0,120.0,6.0,0.0
12107,75.0,120.0,120.0,6.0,0.0
12108,66.0,80.0,120.0,6.0,0.0
12109,63.0,40.0,120.0,6.0,0.0
12110,34.0,40.0,90.0,8.0,0.0
12111,36.0,80.0,90.0,8.0,0.0
12112,66.0,0.0,120.0,6.0,0.0
12113,38.0,120.0,90.0,8.0,0.0
12114,75.0,120.0,120.0,6.0,0.0
12115,39.0,96.0,390.0,8.0,0.0
12116,66.0,120.0,120.0,6.0,0.0
12117,63.0,24.0,120.0,6.0,0.0
12118,66.0,120.0,120.0,6.0,0.0
12119,78.0,120.0,120.0,6.0,0.0
12120,66.0,120.0,120.0,6.0,0.0
12121,63.0,120.0,120.0,6.0,0.0
12122,66.0,120.0,120.0,6.0,0.0
12123,77.0,120.0,120.0,6.0,0.0
12124,66.0,120.0,120.0,6.0,0.0
12125,63.0,120.0,120.0,6.0,0.0
12126,66.0,120.0,120.0,6.0,0.0
12127,75.0,120.0,120.0,6.0,0.0
12128,66.0,60.0,120.0,6.0,0.0
12129,63.0,0.0,120.0,6.0,0.0
12130,34.0,60.0,60.0,8.0,0.0
12131,36.0,60.0,60.0,8.0,0.0
12132,66.0,96.0,120.0,6.0,0.0
12133,38.0,60.0,60.0,8.0,0.0
12134,39.0,0.0,60.0,8.0,0.0
12135,41.0,72.0,390.0,8.0,0.0
12136,75.0,120.0,90.0,6.0,0.0
12137,68.0,120.0,90.0,6.0,0.0
12138,63.0,48.0,90.0,6.0,0.0
12139,68.0,120.0,90.0,6.0,0.0
12140,74.0,120.0,90.0,6.0,0.0
12141,68.0,120.0,90.0,6.0,0.0
12142,62.0,120.0,90.0,6.0,0.0
12143,68.0,120.0,90.0,6.0,0.0
12144,74.0,120.0,90.0,6.0,0.0
12145,68.0,120.0,90.0,6.0,0.0
12146,62.0,120.0,90.0,6.0,0.0
12147,68.0,120.0,90.0,6.0,0.0
12148,74.0,120.0,90.0,6.0,0.0
12149,68.0,84.0,90.0,6.0,0.0
12150,62.0,24.0,90.0,6.0,0.0
12151,34.0,36.0,60.0,8.0,0.0
12152,36.0,60.0,60.0,8.0,0.0
12153,68.0,24.0,90.0,6.0,0.0
12154,38.0,36.0,60.0,8.0,0.0
12155,39.0,120.0,60.0,8.0,0.0
12156,74.0,120.0,120.0,6.0,0.0
12157,41.0,96.0,390.0,8.0,0.0
12158,68.0,120.0,120.0,6.0,0.0
12159,62.0,24.0,120.0,6.0,0.0
12160,68.0,120.0,120.0,6.0,0.0
12161,80.0,120.0,120.0,6.0,0.0
12162,70.0,120.0,120.0,6.0,0.0
12163,68.0,120.0,120.0,6.0,0.0
12164,70.0,120.0,120.0,6.0,0.0
12165,78.0,120.0,120.0,6.0,0.0
12166,70.0,120.0,120.0,6.0,0.0
12167,68.0,120.0,120.0,6.0,0.0
12168,70.0,120.0,120.0,6.0,0.0
12169,77.0,120.0,120.0,6.0,0.0
12170,70.0,60.0,120.0,6.0,0.0
12171,68.0,40.0,120.0,6.0,0.0
12172,34.0,60.0,60.0,8.0,0.0
12173,36.0,0.0,60.0,8.0,0.0
12174,38.0,40.0,40.0,8.0,0.0
12175,70.0,0.0,120.0,6.0,0.0
12176,39.0,40.0,40.0,8.0,0.0
12177,41.0,120.0,40.0,8.0,0.0
12178,77.0,72.0,120.0,6.0,0.0
12179,42.0,48.0,180.0,8.0,0.0
12180,70.0,96.0,120.0,6.0,0.0
12181,51.0,24.0,90.0,8.0,0.0
12182,63.0,96.0,120.0,6.0,0.0
12183,70.0,120.0,120.0,6.0,0.0
12184,53.0,24.0,90.0,8.0,0.0
12185,54.0,48.0,180.0,8.0,0.0
12186,75.0,72.0,120.0,6.0,0.0
12187,70.0,120.0,120.0,6.0,0.0
12188,63.0,72.0,120.0,6.0,0.0
12189,42.0,48.0,180.0,8.0,0.0
12190,70.0,120.0,120.0,6.0,0.0
12191,41.0,48.0,180.0,8.0,0.0
12192,75.0,72.0,120.0,6.0,0.0
12193,70.0,96.0,120.0,6.0,0.0
12194,63.0,96.0,120.0,6.0,0.0
12195,49.0,24.0,90.0,8.0,0.0
12196,70.0,120.0,120.0,6.0,0.0
12197,51.0,24.0,90.0,8.0,0.0
12198,73.0,72.0,120.0,6.0,0.0
12199,53.0,48.0,180.0,8.0,0.0
12200,70.0,120.0,120.0,6.0,0.0
12201,65.0,72.0,120.0,6.0,0.0
12202,41.0,48.0,180.0,8.0,0.0
12203,70.0,120.0,120.0,6.0,0.0
12204,73.0,120.0,120.0,6.0,0.0
12205,40.0,96.0,390.0,8.0,0.0
12206,70.0,120.0,120.0,6.0,0.0
12207,67.0,24.0,120.0,6.0,0.0
12208,70.0,120.0,120.0,6.0,0.0
12209,72.0,120.0,120.0,6.0,0.0
12210,52.0,96.0,390.0,8.0,0.0
12211,70.0,120.0,120.0,6.0,0.0
12212,67.0,24.0,120.0,6.0,0.0
12213,70.0,120.0,120.0,6.0,0.0
12214,52.0,96.0,390.0,8.0,0.0
12215,72.0,120.0,120.0,6.0,0.0
12216,70.0,120.0,120.0,6.0,0.0
12217,67.0,24.0,120.0,6.0,0.0
12218,70.0,120.0,120.0,6.0,0.0
12219,72.0,120.0,120.0,6.0,0.0
12220,52.0,96.0,390.0,8.0,0.0
12221,70.0,120.0,120.0,6.0,0.0
12222,67.0,24.0,120.0,6.0,0.0
12223,70.0,160.0,120.0,6.0,0.0
12224,53.0,160.0,150.0,7.0,0.0
12225,72.0,0.0,390.0,6.0,0.0
12226,69.0,96.0,390.0,6.0,0.0
12227,65.0,0.0,390.0,6.0,0.0
12228,57.0,64.0,150.0,7.0,0.0
12229,60.0,160.0,150.0,7.0,0.0
12230,65.0,24.0,450.0,6.0,0.0
12231,53.0,160.0,150.0,7.0,0.0
12232,57.0,136.0,150.0,7.0,0.0
12233,60.0,160.0,150.0,7.0,0.0
12234,77.0,24.0,450.0,6.0,0.0
12235,53.0,160.0,150.0,7.0,0.0
12236,60.0,136.0,150.0,7.0,0.0
12237,63.0,160.0,150.0,7.0,0.0
12238,69.0,24.0,450.0,6.0,0.0
12239,53.0,160.0,150.0,7.0,0.0
12240,60.0,136.0,150.0,7.0,0.0
12241,63.0,160.0,150.0,7.0,0.0
12242,53.0,160.0,150.0,7.0,0.0
12243,72.0,116.0,690.0,6.0,0.0
12244,58.0,160.0,150.0,7.0,0.0
12245,61.0,160.0,150.0,7.0,0.0
12246,53.0,44.0,150.0,7.0,0.0
12247,58.0,148.0,150.0,7.0,0.0
12248,70.0,12.0,240.0,6.0,0.0
12249,61.0,160.0,150.0,7.0,0.0
12250,70.0,48.0,900.0,6.0,0.0
12251,53.0,160.0,150.0,7.0,0.0
12252,61.0,160.0,150.0,7.0,0.0
12253,65.0,160.0,150.0,7.0,0.0
12254,53.0,160.0,150.0,7.0,0.0
12255,60.0,112.0,150.0,7.0,0.0
12256,63.0,160.0,150.0,7.0,0.0
12257,53.0,160.0,150.0,7.0,0.0
12258,58.0,160.0,150.0,7.0,0.0
12259,61.0,160.0,150.0,7.0,0.0
12260,54.0,160.0,150.0,7.0,0.0
12261,70.0,24.0,450.0,6.0,0.0
12262,58.0,136.0,150.0,7.0,0.0
12263,61.0,160.0,150.0,7.0,0.0
12264,82.0,24.0,450.0,6.0,0.0
12265,54.0,160.0,150.0,7.0,0.0
12266,58.0,136.0,150.0,7.0,0.0
12267,61.0,160.0,150.0,7.0,0.0
12268,80.0,92.0,240.0,6.0,0.0
12269,54.0,68.0,150.0,7.0,0.0
12270,58.0,148.0,150.0,7.0,0.0
12271,78.0,12.0,240.0,6.0,0.0
12272,61.0,160.0,150.0,7.0,0.0
12273,54.0,160.0,150.0,7.0,0.0
12274,77.0,116.0,690.0,6.0,0.0
12275,58.0,160.0,150.0,7.0,0.0
12276,63.0,160.0,150.0,7.0,0.0
12277,54.0,44.0,150.0,7.0,0.0
12278,58.0,148.0,150.0,7.0,0.0
12279,75.0,12.0,240.0,6.0,0.0
12280,63.0,160.0,150.0,7.0,0.0
12281,57.0,160.0,150.0,7.0,0.0
12282,75.0,48.0,900.0,6.0,0.0
12283,58.0,160.0,150.0,7.0,0.0
12284,66.0,160.0,150.0,7.0,0.0
12285,56.0,160.0,150.0,7.0,0.0
12286,58.0,112.0,150.0,7.0,0.0
12287,66.0,160.0,150.0,7.0,0.0
12288,54.0,160.0,150.0,7.0,0.0
12289,58.0,160.0,150.0,7.0,0.0
12290,63.0,160.0,150.0,7.0,0.0
12291,54.0,160.0,150.0,7.0,0.0
12292,75.0,0.0,480.0,6.0,0.0
12293,58.0,160.0,150.0,7.0,0.0
12294,63.0,160.0,150.0,7.0,0.0
12295,54.0,160.0,150.0,7.0,0.0
12296,77.0,120.0,360.0,6.0,0.0
12297,58.0,40.0,150.0,7.0,0.0
12298,63.0,160.0,150.0,7.0,0.0
12299,75.0,0.0,120.0,6.0,0.0
12300,73.0,80.0,240.0,6.0,0.0
12301,54.0,80.0,150.0,7.0,0.0
12302,58.0,112.0,150.0,7.0,0.0
12303,72.0,48.0,180.0,6.0,0.0
12304,63.0,160.0,150.0,7.0,0.0
12305,53.0,160.0,150.0,7.0,0.0
12306,70.0,24.0,450.0,6.0,0.0
12307,60.0,136.0,150.0,7.0,0.0
12308,63.0,160.0,150.0,7.0,0.0
12309,53.0,160.0,150.0,7.0,0.0
12310,69.0,24.0,450.0,6.0,0.0
12311,60.0,136.0,150.0,7.0,0.0
12312,63.0,160.0,150.0,7.0,0.0
12313,66.0,156.0,1200.0,6.0,0.0
12314,53.0,160.0,150.0,7.0,0.0
12315,60.0,160.0,150.0,7.0,0.0
12316,63.0,160.0,150.0,7.0,0.0
12317,53.0,160.0,150.0,7.0,0.0
12318,60.0,160.0,150.0,7.0,0.0
12319,63.0,228.0,150.0,7.0,0.0
12320,57.0,0.0,390.0,7.0,0.0
12321,60.0,0.0,390.0,7.0,0.0
12322,53.0,84.0,390.0,7.0,0.0
12323,65.0,240.0,240.0,6.0,0.0
12324,72.0,240.0,240.0,6.0,0.0
12325,69.0,240.0,240.0,6.0,0.0
12326,75.0,240.0,240.0,6.0,0.0
12327,72.0,240.0,240.0,6.0,0.0
12328,78.0,240.0,240.0,6.0,0.0
12329,77.0,480.0,240.0,6.0,0.0
12330,65.0,240.0,240.0,6.0,0.0
12331,72.0,240.0,240.0,6.0,0.0
12332,69.0,240.0,240.0,6.0,0.0
12333,75.0,240.0,240.0,6.0,0.0
12334,72.0,240.0,240.0,6.0,0.0
12335,78.0,240.0,240.0,6.0,0.0
12336,77.0,228.0,240.0,6.0,0.0
12337,65.0,120.0,90.0,6.0,0.0
12338,53.0,0.0,90.0,7.0,0.0
12339,60.0,120.0,90.0,7.0,0.0
12340,72.0,0.0,90.0,6.0,0.0
12341,57.0,0.0,90.0,7.0,0.0
12342,69.0,120.0,90.0,6.0,0.0
12343,75.0,120.0,90.0,6.0,0.0
12344,63.0,0.0,90.0,7.0,0.0
12345,72.0,120.0,90.0,6.0,0.0
12346,60.0,0.0,90.0,7.0,0.0
12347,78.0,0.0,90.0,6.0,0.0
12348,66.0,120.0,90.0,7.0,0.0
12349,77.0,0.0,90.0,6.0,0.0
12350,65.0,120.0,90.0,7.0,0.0
12351,63.0,0.0,90.0,7.0,0.0
12352,75.0,120.0,90.0,6.0,0.0
12353,73.0,120.0,90.0,6.0,0.0
12354,61.0,0.0,90.0,7.0,0.0
12355,60.0,120.0,90.0,7.0,0.0
12356,72.0,0.0,90.0,6.0,0.0
12357,58.0,0.0,90.0,7.0,0.0
12358,70.0,120.0,90.0,6.0,0.0
12359,57.0,0.0,90.0,7.0,0.0
12360,69.0,120.0,90.0,6.0,0.0
12361,54.0,0.0,90.0,7.0,0.0
12362,66.0,120.0,90.0,6.0,0.0
12363,53.0,120.0,90.0,7.0,0.0
12364,65.0,0.0,90.0,6.0,0.0
12365,63.0,120.0,90.0,6.0,0.0
12366,51.0,0.0,90.0,7.0,0.0
12367,49.0,120.0,90.0,8.0,0.0
12368,61.0,0.0,90.0,7.0,0.0
12369,48.0,0.0,90.0,8.0,0.0
12370,60.0,120.0,90.0,7.0,0.0
12371,46.0,120.0,90.0,8.0,0.0
12372,58.0,0.0,90.0,7.0,0.0
12373,57.0,120.0,90.0,7.0,0.0
12374,45.0,0.0,90.0,8.0,0.0
12375,42.0,0.0,90.0,8.0,0.0
12376,54.0,120.0,90.0,7.0,0.0
12377,41.0,0.0,90.0,8.0,0.0
12378,53.0,120.0,90.0,7.0,0.0
12379,51.0,120.0,90.0,7.0,0.0
12380,39.0,0.0,90.0,8.0,0.0
12381,37.0,120.0,90.0,8.0,0.0
12382,49.0,0.0,90.0,7.0,0.0
12383,48.0,120.0,90.0,7.0,0.0
12384,36.0,0.0,90.0,8.0,0.0
12385,46.0,0.0,90.0,7.0,0.0
12386,34.0,120.0,90.0,8.0,0.0
12387,45.0,0.0,90.0,7.0,0.0
12388,33.0,120.0,90.0,8.0,0.0
12389,42.0,120.0,90.0,7.0,0.0
12390,30.0,0.0,90.0,8.0,0.0
12391,41.0,0.0,90.0,7.0,0.0
12392,29.0,120.0,90.0,8.0,0.0
12393,33.0,0.0,90.0,8.0,0.0
12394,45.0,120.0,90.0,7.0,0.0
12395,46.0,120.0,90.0,7.0,0.0
12396,34.0,0.0,90.0,8.0,0.0
12397,48.0,120.0,90.0,7.0,0.0
12398,36.0,0.0,90.0,8.0,0.0
12399,37.0,120.0,90.0,8.0,0.0
12400,49.0,0.0,90.0,7.0,0.0
12401,33.0,120.0,90.0,8.0,0.0
12402,45.0,0.0,90.0,7.0,0.0
12403,46.0,120.0,90.0,7.0,0.0
12404,34.0,0.0,90.0,8.0,0.0
12405,48.0,120.0,90.0,7.0,0.0
12406,36.0,0.0,90.0,8.0,0.0
12407,37.0,0.0,90.0,8.0,0.0
12408,49.0,120.0,90.0,7.0,0.0
12409,51.0,120.0,90.0,7.0,0.0
12410,39.0,0.0,90.0,8.0,0.0
12411,41.0,0.0,90.0,8.0,0.0
12412,53.0,120.0,90.0,7.0,0.0
12413,48.0,120.0,90.0,7.0,0.0
12414,36.0,0.0,90.0,8.0,0.0
12415,37.0,0.0,90.0,8.0,0.0
12416,49.0,120.0,90.0,7.0,0.0
12417,41.0,0.0,90.0,8.0,0.0
12418,53.0,120.0,90.0,7.0,0.0
12419,55.0,0.0,90.0,7.0,0.0
12420,43.0,120.0,90.0,8.0,0.0
12421,45.0,120.0,90.0,8.0,0.0
12422,57.0,0.0,90.0,7.0,0.0
12423,58.0,120.0,90.0,7.0,0.0
12424,46.0,0.0,90.0,8.0,0.0
12425,60.0,120.0,90.0,7.0,0.0
12426,48.0,0.0,90.0,8.0,0.0
12427,61.0,0.0,90.0,7.0,0.0
12428,49.0,120.0,90.0,8.0,0.0
12429,57.0,120.0,90.0,7.0,0.0
12430,45.0,0.0,90.0,8.0,0.0
12431,46.0,0.0,90.0,8.0,0.0
12432,58.0,120.0,90.0,7.0,0.0
12433,48.0,0.0,90.0,8.0,0.0
12434,60.0,120.0,90.0,7.0,0.0
12435,49.0,0.0,90.0,8.0,0.0
12436,61.0,120.0,90.0,7.0,0.0
12437,51.0,120.0,90.0,8.0,0.0
12438,63.0,0.0,90.0,7.0,0.0
12439,53.0,0.0,90.0,8.0,0.0
12440,65.0,120.0,90.0,7.0,0.0
12441,60.0,0.0,90.0,7.0,0.0
12442,48.0,120.0,90.0,8.0,0.0
12443,61.0,0.0,90.0,7.0,0.0
12444,49.0,120.0,90.0,8.0,0.0
12445,63.0,0.0,90.0,7.0,0.0
12446,51.0,120.0,90.0,8.0,0.0
12447,65.0,0.0,90.0,7.0,0.0
12448,53.0,120.0,90.0,8.0,0.0
12449,54.0,0.0,90.0,8.0,0.0
12450,66.0,120.0,90.0,7.0,0.0
12451,67.0,120.0,90.0,7.0,0.0
12452,55.0,0.0,90.0,8.0,0.0
12453,56.0,0.0,90.0,8.0,0.0
12454,68.0,120.0,90.0,7.0,0.0
12455,57.0,0.0,90.0,8.0,0.0
12456,69.0,120.0,90.0,7.0,0.0
12457,58.0,120.0,90.0,8.0,0.0
12458,70.0,0.0,90.0,7.0,0.0
12459,71.0,0.0,90.0,7.0,0.0
12460,59.0,120.0,90.0,8.0,0.0
12461,72.0,120.0,90.0,7.0,0.0
12462,60.0,0.0,90.0,8.0,0.0
12463,61.0,120.0,90.0,7.0,0.0
12464,73.0,0.0,90.0,6.0,0.0
12465,62.0,120.0,90.0,7.0,0.0
12466,74.0,0.0,90.0,6.0,0.0
12467,75.0,0.0,90.0,6.0,0.0
12468,63.0,120.0,90.0,7.0,0.0
12469,76.0,0.0,90.0,6.0,0.0
12470,64.0,120.0,90.0,7.0,0.0
12471,65.0,120.0,90.0,7.0,0.0
12472,77.0,0.0,90.0,6.0,0.0
12473,66.0,120.0,90.0,7.0,0.0
12474,78.0,0.0,90.0,6.0,0.0
12475,67.0,0.0,90.0,7.0,0.0
12476,79.0,120.0,90.0,6.0,0.0
12477,80.0,120.0,90.0,6.0,0.0
12478,68.0,0.0,90.0,7.0,0.0
12479,69.0,0.0,90.0,7.0,0.0
12480,81.0,120.0,90.0,6.0,0.0
12481,82.0,120.0,90.0,6.0,0.0
12482,70.0,0.0,90.0,7.0,0.0
12483,71.0,0.0,90.0,7.0,0.0
12484,83.0,120.0,90.0,6.0,0.0
12485,72.0,120.0,90.0,7.0,0.0
12486,84.0,0.0,90.0,6.0,0.0
12487,73.0,0.0,90.0,7.0,0.0
12488,85.0,120.0,90.0,6.0,0.0
12489,74.0,0.0,90.0,7.0,0.0
12490,86.0,120.0,90.0,6.0,0.0
12491,75.0,120.0,90.0,7.0,0.0
12492,87.0,0.0,90.0,6.0,0.0
12493,88.0,0.0,90.0,6.0,0.0
12494,76.0,152.0,90.0,7.0,0.0
12495,89.0,160.0,120.0,6.0,0.0
12496,77.0,0.0,120.0,7.0,0.0
12497,78.0,0.0,120.0,7.0,0.0
12498,90.0,160.0,120.0,6.0,0.0
12499,79.0,0.0,120.0,7.0,0.0
12500,91.0,160.0,120.0,6.0,0.0
12501,80.0,0.0,120.0,7.0,0.0
12502,92.0,160.0,120.0,6.0,0.0
12503,93.0,160.0,120.0,6.0,0.0
12504,81.0,0.0,120.0,7.0,0.0
12505,82.0,224.0,120.0,7.0,0.0
12506,94.0,0.0,120.0,6.0,0.0
12507,95.0,0.0,180.0,6.0,0.0
12508,83.0,240.0,180.0,7.0,0.0
12509,96.0,240.0,180.0,6.0,0.0
12510,84.0,0.0,180.0,7.0,0.0
12511,97.0,240.0,180.0,6.0,0.0
12512,85.0,0.0,180.0,7.0,0.0
12513,42.0,432.0,180.0,7.0,0.0
12514,54.0,0.0,180.0,7.0,0.0
12515,42.0,0.0,390.0,7.0,0.0
12516,54.0,576.0,390.0,6.0,0.0
12517,47.0,0.0,480.0,8.0,0.0
12518,35.0,0.0,480.0,8.0,0.0
12519,63.0,480.0,480.0,6.0,0.0
12520,54.0,0.0,480.0,7.0,0.0
12521,41.0,0.0,480.0,8.0,0.0
12522,45.0,0.0,480.0,8.0,0.0
12523,60.0,0.0,480.0,6.0,0.0
12524,61.0,0.0,480.0,6.0,0.0
12525,46.0,0.0,480.0,8.0,0.0
12526,34.0,384.0,480.0,8.0,0.0
12527,53.0,480.0,15.0,7.0,0.0
12528,54.0,0.0,390.0,8.0,0.0
12529,66.0,480.0,390.0,6.0,0.0
12530,75.0,0.0,480.0,6.0,0.0
12531,47.0,480.0,480.0,8.0,0.0
12532,66.0,96.0,390.0,7.0,0.0
12533,59.0,0.0,480.0,8.0,0.0
12534,53.0,0.0,480.0,8.0,0.0
12535,57.0,480.0,480.0,8.0,0.0
12536,72.0,0.0,480.0,6.0,0.0
12537,65.0,0.0,15.0,7.0,0.0
12538,46.0,0.0,480.0,8.0,0.0
12539,58.0,384.0,480.0,8.0,0.0
12540,73.0,0.0,480.0,6.0,0.0
12541,66.0,480.0,390.0,7.0,0.0
12542,78.0,0.0,390.0,6.0,0.0
12543,87.0,0.0,390.0,6.0,0.0
12544,59.0,0.0,390.0,7.0,0.0
12545,78.0,0.0,390.0,6.0,0.0
12546,71.0,216.0,390.0,7.0,0.0
12547,75.0,0.0,240.0,7.0,0.0
12548,72.0,0.0,240.0,7.0,0.0
12549,69.0,0.0,240.0,7.0,0.0
12550,65.0,120.0,240.0,7.0,0.0
12551,87.0,120.0,120.0,6.0,0.0
12552,85.0,0.0,120.0,6.0,0.0
12553,85.0,120.0,120.0,6.0,0.0
12554,82.0,120.0,120.0,6.0,0.0
12555,80.0,120.0,120.0,6.0,0.0
12556,78.0,120.0,120.0,6.0,0.0
12557,77.0,120.0,120.0,6.0,0.0
12558,75.0,120.0,120.0,6.0,0.0
12559,73.0,120.0,120.0,6.0,0.0
12560,72.0,120.0,120.0,6.0,0.0
12561,70.0,120.0,120.0,6.0,0.0
12562,69.0,120.0,120.0,6.0,0.0
12563,66.0,120.0,120.0,6.0,0.0
12564,65.0,120.0,120.0,6.0,0.0
12565,63.0,120.0,120.0,6.0,0.0
12566,61.0,120.0,120.0,6.0,0.0
12567,60.0,120.0,120.0,6.0,0.0
12568,58.0,120.0,120.0,6.0,0.0
12569,57.0,120.0,120.0,6.0,0.0
12570,54.0,120.0,120.0,6.0,0.0
12571,53.0,120.0,120.0,7.0,0.0
12572,51.0,120.0,120.0,7.0,0.0
12573,49.0,120.0,120.0,7.0,0.0
12574,48.0,120.0,120.0,7.0,0.0
12575,46.0,120.0,120.0,7.0,0.0
12576,45.0,120.0,120.0,7.0,0.0
12577,42.0,120.0,120.0,7.0,0.0
12578,41.0,120.0,120.0,7.0,0.0
12579,42.0,120.0,120.0,7.0,0.0
12580,43.0,120.0,120.0,7.0,0.0
12581,44.0,120.0,120.0,7.0,0.0
12582,45.0,120.0,120.0,7.0,0.0
12583,46.0,120.0,120.0,7.0,0.0
12584,47.0,120.0,120.0,7.0,0.0
12585,48.0,120.0,120.0,7.0,0.0
12586,49.0,120.0,120.0,7.0,0.0
12587,50.0,120.0,120.0,7.0,0.0
12588,51.0,120.0,120.0,7.0,0.0
12589,52.0,120.0,120.0,7.0,0.0
12590,53.0,120.0,120.0,7.0,0.0
12591,54.0,120.0,120.0,7.0,0.0
12592,55.0,120.0,120.0,7.0,0.0
12593,56.0,120.0,120.0,7.0,0.0
12594,57.0,120.0,120.0,7.0,0.0
12595,58.0,120.0,120.0,7.0,0.0
12596,59.0,120.0,120.0,7.0,0.0
12597,60.0,120.0,120.0,7.0,0.0
12598,61.0,120.0,120.0,7.0,0.0
12599,62.0,120.0,120.0,6.0,0.0
12600,63.0,120.0,120.0,6.0,0.0
12601,64.0,120.0,120.0,6.0,0.0
12602,65.0,120.0,120.0,6.0,0.0
12603,66.0,120.0,120.0,6.0,0.0
12604,67.0,120.0,120.0,6.0,0.0
12605,68.0,120.0,120.0,6.0,0.0
12606,69.0,120.0,120.0,6.0,0.0
12607,70.0,120.0,120.0,6.0,0.0
12608,71.0,120.0,120.0,6.0,0.0
12609,72.0,120.0,120.0,6.0,0.0
12610,73.0,120.0,120.0,6.0,0.0
12611,74.0,120.0,120.0,6.0,0.0
12612,75.0,120.0,120.0,6.0,0.0
12613,76.0,120.0,120.0,6.0,0.0
12614,77.0,160.0,120.0,6.0,0.0
12615,78.0,160.0,150.0,6.0,0.0
12616,79.0,160.0,150.0,6.0,0.0
12617,80.0,60.0,150.0,6.0,0.0
12618,82.0,60.0,60.0,6.0,0.0
12619,81.0,60.0,60.0,6.0,0.0
12620,82.0,60.0,60.0,6.0,0.0
12621,81.0,60.0,60.0,6.0,0.0
12622,82.0,4.0,60.0,6.0,0.0
12623,36.0,56.0,60.0,8.0,0.0
12624,81.0,24.0,60.0,6.0,0.0
12625,38.0,36.0,60.0,8.0,0.0
12626,82.0,44.0,60.0,6.0,0.0
12627,40.0,16.0,60.0,8.0,0.0
12628,81.0,60.0,60.0,6.0,0.0
12629,82.0,60.0,60.0,6.0,0.0
12630,41.0,48.0,180.0,8.0,0.0
12631,81.0,60.0,60.0,6.0,0.0
12632,82.0,12.0,60.0,6.0,0.0
12633,81.0,60.0,60.0,6.0,0.0
12634,82.0,4.0,60.0,6.0,0.0
12635,48.0,56.0,60.0,8.0,0.0
12636,81.0,24.0,60.0,6.0,0.0
12637,50.0,36.0,60.0,8.0,0.0
12638,82.0,44.0,60.0,6.0,0.0
12639,52.0,16.0,60.0,8.0,0.0
12640,81.0,60.0,60.0,6.0,0.0
12641,82.0,60.0,60.0,6.0,0.0
12642,53.0,48.0,180.0,8.0,0.0
12643,81.0,60.0,60.0,6.0,0.0
12644,82.0,12.0,60.0,6.0,0.0
12645,81.0,60.0,60.0,6.0,0.0
12646,82.0,4.0,60.0,6.0,0.0
12647,60.0,56.0,60.0,7.0,0.0
12648,81.0,24.0,60.0,6.0,0.0
12649,62.0,36.0,60.0,7.0,0.0
12650,82.0,44.0,60.0,6.0,0.0
12651,64.0,16.0,60.0,7.0,0.0
12652,81.0,60.0,60.0,6.0,0.0
12653,82.0,60.0,60.0,6.0,0.0
12654,65.0,48.0,180.0,7.0,0.0
12655,81.0,60.0,60.0,6.0,0.0
12656,82.0,12.0,60.0,6.0,0.0
12657,81.0,60.0,60.0,6.0,0.0
12658,72.0,56.0,60.0,7.0,0.0
12659,82.0,4.0,60.0,6.0,0.0
12660,81.0,24.0,60.0,6.0,0.0
12661,74.0,36.0,60.0,7.0,0.0
12662,82.0,44.0,60.0,6.0,0.0
12663,76.0,16.0,60.0,7.0,0.0
12664,81.0,60.0,60.0,6.0,0.0
12665,77.0,48.0,180.0,7.0,0.0
12666,82.0,60.0,60.0,6.0,0.0
12667,81.0,60.0,60.0,6.0,0.0
12668,82.0,12.0,60.0,6.0,0.0
12669,81.0,60.0,60.0,6.0,0.0
12670,72.0,24.0,90.0,7.0,0.0
12671,82.0,36.0,60.0,6.0,0.0
12672,81.0,60.0,60.0,6.0,0.0
12673,73.0,24.0,90.0,7.0,0.0
12674,82.0,36.0,60.0,6.0,0.0
12675,81.0,60.0,60.0,6.0,0.0
12676,82.0,60.0,60.0,6.0,0.0
12677,75.0,48.0,180.0,7.0,0.0
12678,81.0,60.0,60.0,6.0,0.0
12679,82.0,12.0,60.0,6.0,0.0
12680,81.0,60.0,60.0,6.0,0.0
12681,82.0,36.0,60.0,6.0,0.0
12682,69.0,24.0,90.0,7.0,0.0
12683,81.0,60.0,60.0,6.0,0.0
12684,82.0,36.0,60.0,6.0,0.0
12685,70.0,24.0,90.0,7.0,0.0
12686,81.0,60.0,60.0,6.0,0.0
12687,72.0,48.0,180.0,7.0,0.0
12688,82.0,60.0,60.0,6.0,0.0
12689,81.0,60.0,60.0,6.0,0.0
12690,82.0,12.0,60.0,6.0,0.0
12691,81.0,60.0,60.0,6.0,0.0
12692,63.0,24.0,90.0,7.0,0.0
12693,82.0,36.0,60.0,6.0,0.0
12694,81.0,60.0,60.0,6.0,0.0
12695,82.0,36.0,60.0,6.0,0.0
12696,65.0,24.0,90.0,7.0,0.0
12697,81.0,60.0,60.0,6.0,0.0
12698,82.0,60.0,60.0,6.0,0.0
12699,66.0,48.0,180.0,7.0,0.0
12700,81.0,60.0,60.0,6.0,0.0
12701,82.0,12.0,60.0,6.0,0.0
12702,81.0,60.0,60.0,6.0,0.0
12703,60.0,24.0,90.0,7.0,0.0
12704,82.0,36.0,60.0,6.0,0.0
12705,81.0,60.0,60.0,6.0,0.0
12706,82.0,36.0,60.0,6.0,0.0
12707,61.0,24.0,90.0,7.0,0.0
12708,81.0,60.0,60.0,6.0,0.0
12709,82.0,60.0,60.0,6.0,0.0
12710,63.0,48.0,180.0,7.0,0.0
12711,81.0,60.0,60.0,6.0,0.0
12712,82.0,12.0,60.0,6.0,0.0
12713,81.0,60.0,60.0,6.0,0.0
12714,82.0,36.0,60.0,6.0,0.0
12715,36.0,24.0,90.0,8.0,0.0
12716,81.0,60.0,60.0,6.0,0.0
12717,82.0,36.0,60.0,6.0,0.0
12718,37.0,24.0,90.0,8.0,0.0
12719,81.0,60.0,60.0,6.0,0.0
12720,39.0,48.0,180.0,8.0,0.0
12721,82.0,60.0,60.0,6.0,0.0
12722,81.0,60.0,60.0,6.0,0.0
12723,82.0,12.0,60.0,6.0,0.0
12724,81.0,60.0,60.0,6.0,0.0
12725,82.0,36.0,60.0,6.0,0.0
12726,48.0,24.0,90.0,8.0,0.0
12727,81.0,60.0,60.0,6.0,0.0
12728,82.0,36.0,60.0,6.0,0.0
12729,49.0,24.0,90.0,8.0,0.0
12730,81.0,60.0,60.0,6.0,0.0
12731,51.0,48.0,180.0,8.0,0.0
12732,82.0,60.0,60.0,6.0,0.0
12733,81.0,60.0,60.0,6.0,0.0
12734,82.0,12.0,60.0,6.0,0.0
12735,81.0,60.0,60.0,6.0,0.0
12736,57.0,24.0,90.0,7.0,0.0
12737,82.0,36.0,60.0,6.0,0.0
12738,81.0,60.0,60.0,6.0,0.0
12739,58.0,24.0,90.0,7.0,0.0
12740,82.0,36.0,60.0,6.0,0.0
12741,81.0,60.0,60.0,6.0,0.0
12742,82.0,60.0,60.0,6.0,0.0
12743,60.0,48.0,180.0,7.0,0.0
12744,81.0,60.0,60.0,6.0,0.0
12745,82.0,12.0,60.0,6.0,0.0
12746,81.0,60.0,60.0,6.0,0.0
12747,82.0,36.0,60.0,6.0,0.0
12748,69.0,24.0,90.0,7.0,0.0
12749,81.0,60.0,60.0,6.0,0.0
12750,70.0,24.0,90.0,7.0,0.0
12751,82.0,36.0,60.0,6.0,0.0
12752,81.0,60.0,60.0,6.0,0.0
12753,82.0,60.0,60.0,6.0,0.0
12754,73.0,0.0,60.0,7.0,0.0
12755,81.0,0.0,60.0,6.0,0.0
12756,72.0,60.0,60.0,7.0,0.0
12757,73.0,60.0,60.0,7.0,0.0
12758,82.0,0.0,60.0,6.0,0.0
12759,81.0,0.0,60.0,6.0,0.0
12760,72.0,60.0,60.0,7.0,0.0
12761,82.0,0.0,60.0,6.0,0.0
12762,73.0,60.0,60.0,7.0,0.0
12763,81.0,60.0,60.0,6.0,0.0
12764,72.0,0.0,60.0,7.0,0.0
12765,82.0,0.0,60.0,6.0,0.0
12766,73.0,60.0,60.0,7.0,0.0
12767,81.0,60.0,60.0,6.0,0.0
12768,72.0,0.0,60.0,7.0,0.0
12769,82.0,60.0,60.0,6.0,0.0
12770,73.0,0.0,60.0,7.0,0.0
12771,72.0,0.0,60.0,7.0,0.0
12772,81.0,60.0,60.0,6.0,0.0
12773,73.0,0.0,60.0,7.0,0.0
12774,82.0,60.0,60.0,6.0,0.0
12775,81.0,0.0,60.0,6.0,0.0
12776,72.0,60.0,60.0,7.0,0.0
12777,82.0,60.0,60.0,6.0,0.0
12778,73.0,0.0,60.0,7.0,0.0
12779,72.0,0.0,60.0,7.0,0.0
12780,81.0,60.0,60.0,6.0,0.0
12781,73.0,60.0,60.0,7.0,0.0
12782,82.0,0.0,60.0,6.0,0.0
12783,72.0,60.0,60.0,7.0,0.0
12784,81.0,0.0,60.0,6.0,0.0
12785,82.0,0.0,60.0,7.0,0.0
12786,85.0,60.0,60.0,6.0,0.0
12787,84.0,60.0,60.0,6.0,0.0
12788,81.0,0.0,60.0,7.0,0.0
12789,82.0,0.0,60.0,7.0,0.0
12790,85.0,60.0,60.0,6.0,0.0
12791,84.0,0.0,60.0,6.0,0.0
12792,81.0,60.0,60.0,7.0,0.0
12793,85.0,0.0,60.0,6.0,0.0
12794,82.0,60.0,60.0,7.0,0.0
12795,81.0,60.0,60.0,7.0,0.0
12796,84.0,0.0,60.0,6.0,0.0
12797,82.0,60.0,60.0,7.0,0.0
12798,85.0,0.0,60.0,6.0,0.0
12799,81.0,0.0,60.0,7.0,0.0
12800,84.0,60.0,60.0,6.0,0.0
12801,85.0,0.0,60.0,6.0,0.0
12802,82.0,60.0,60.0,7.0,0.0
12803,84.0,60.0,60.0,6.0,0.0
12804,81.0,0.0,60.0,7.0,0.0
12805,82.0,0.0,60.0,7.0,0.0
12806,85.0,60.0,60.0,6.0,0.0
12807,81.0,60.0,60.0,7.0,0.0
12808,84.0,0.0,60.0,6.0,0.0
12809,85.0,60.0,60.0,6.0,0.0
12810,82.0,0.0,60.0,7.0,0.0
12811,84.0,0.0,60.0,6.0,0.0
12812,81.0,60.0,60.0,7.0,0.0
12813,85.0,0.0,60.0,6.0,0.0
12814,82.0,60.0,60.0,7.0,0.0
12815,84.0,120.0,60.0,6.0,0.0
12816,81.0,0.0,60.0,7.0,0.0
12817,73.0,120.0,120.0,6.0,0.0
12818,72.0,60.0,120.0,6.0,0.0
12819,73.0,60.0,60.0,6.0,0.0
12820,72.0,60.0,60.0,6.0,0.0
12821,73.0,60.0,60.0,6.0,0.0
12822,72.0,60.0,60.0,6.0,0.0
12823,53.0,36.0,390.0,7.0,0.0
12824,73.0,60.0,60.0,6.0,0.0
12825,72.0,60.0,60.0,6.0,0.0
12826,73.0,60.0,60.0,6.0,0.0
12827,72.0,60.0,60.0,6.0,0.0
12828,73.0,60.0,60.0,6.0,0.0
12829,72.0,24.0,60.0,6.0,0.0
12830,73.0,60.0,60.0,6.0,0.0
12831,72.0,60.0,60.0,6.0,0.0
12832,73.0,60.0,60.0,6.0,0.0
12833,65.0,36.0,390.0,7.0,0.0
12834,72.0,60.0,60.0,6.0,0.0
12835,73.0,60.0,60.0,6.0,0.0
12836,72.0,60.0,60.0,6.0,0.0
12837,73.0,60.0,60.0,6.0,0.0
12838,72.0,24.0,60.0,6.0,0.0
12839,73.0,60.0,60.0,6.0,0.0
12840,72.0,60.0,60.0,6.0,0.0
12841,57.0,36.0,390.0,7.0,0.0
12842,73.0,60.0,60.0,6.0,0.0
12843,72.0,60.0,60.0,6.0,0.0
12844,73.0,60.0,60.0,6.0,0.0
12845,72.0,60.0,60.0,6.0,0.0
12846,73.0,60.0,60.0,6.0,0.0
12847,72.0,24.0,60.0,6.0,0.0
12848,73.0,60.0,60.0,6.0,0.0
12849,72.0,60.0,60.0,6.0,0.0
12850,73.0,60.0,60.0,6.0,0.0
12851,72.0,60.0,60.0,6.0,0.0
12852,73.0,60.0,60.0,6.0,0.0
12853,72.0,60.0,60.0,6.0,0.0
12854,73.0,60.0,60.0,6.0,0.0
12855,72.0,60.0,60.0,6.0,0.0
12856,73.0,60.0,60.0,6.0,0.0
12857,72.0,60.0,60.0,6.0,0.0
12858,53.0,36.0,390.0,7.0,0.0
12859,73.0,60.0,60.0,6.0,0.0
12860,72.0,60.0,60.0,6.0,0.0
12861,73.0,60.0,60.0,6.0,0.0
12862,72.0,60.0,60.0,6.0,0.0
12863,73.0,60.0,60.0,6.0,0.0
12864,72.0,24.0,60.0,6.0,0.0
12865,73.0,60.0,60.0,6.0,0.0
12866,72.0,60.0,60.0,6.0,0.0
12867,66.0,36.0,390.0,7.0,0.0
12868,73.0,60.0,60.0,6.0,0.0
12869,72.0,60.0,60.0,6.0,0.0
12870,73.0,60.0,60.0,6.0,0.0
12871,72.0,60.0,60.0,6.0,0.0
12872,73.0,60.0,60.0,6.0,0.0
12873,72.0,24.0,60.0,6.0,0.0
12874,73.0,60.0,60.0,6.0,0.0
12875,72.0,60.0,60.0,6.0,0.0
12876,73.0,60.0,60.0,6.0,0.0
12877,57.0,36.0,390.0,7.0,0.0
12878,72.0,60.0,60.0,6.0,0.0
12879,73.0,60.0,60.0,6.0,0.0
12880,72.0,60.0,60.0,6.0,0.0
12881,73.0,60.0,60.0,6.0,0.0
12882,72.0,24.0,60.0,6.0,0.0
12883,73.0,60.0,60.0,6.0,0.0
12884,72.0,60.0,60.0,6.0,0.0
12885,73.0,60.0,60.0,6.0,0.0
12886,72.0,60.0,60.0,6.0,0.0
12887,73.0,60.0,60.0,6.0,0.0
12888,72.0,60.0,60.0,6.0,0.0
12889,73.0,60.0,60.0,6.0,0.0
12890,72.0,60.0,60.0,6.0,0.0
12891,73.0,60.0,60.0,6.0,0.0
12892,72.0,60.0,60.0,6.0,0.0
12893,73.0,60.0,60.0,6.0,0.0
12894,53.0,36.0,390.0,7.0,0.0
12895,72.0,60.0,60.0,6.0,0.0
12896,73.0,60.0,60.0,6.0,0.0
12897,72.0,60.0,60.0,6.0,0.0
12898,73.0,60.0,60.0,6.0,0.0
12899,72.0,24.0,60.0,6.0,0.0
12900,73.0,60.0,60.0,6.0,0.0
12901,72.0,60.0,60.0,6.0,0.0
12902,73.0,60.0,60.0,6.0,0.0
12903,69.0,36.0,390.0,7.0,0.0
12904,72.0,60.0,60.0,6.0,0.0
12905,73.0,60.0,60.0,6.0,0.0
12906,72.0,60.0,60.0,6.0,0.0
12907,73.0,60.0,60.0,6.0,0.0
12908,72.0,24.0,60.0,6.0,0.0
12909,73.0,60.0,60.0,6.0,0.0
12910,72.0,60.0,60.0,6.0,0.0
12911,73.0,60.0,60.0,6.0,0.0
12912,81.0,96.0,390.0,7.0,0.0
12913,72.0,60.0,60.0,6.0,0.0
12914,73.0,60.0,60.0,6.0,0.0
12915,72.0,120.0,60.0,6.0,0.0
12916,70.0,24.0,120.0,6.0,0.0
12917,72.0,384.0,120.0,6.0,0.0
12918,46.0,240.0,570.0,12.0,0.0
12919,58.0,0.0,570.0,10.0,0.0
12920,46.0,0.0,1830.0,3.0,0.0
12921,58.0,0.0,1830.0,3.0,0.0
12922,58.0,0.0,1830.0,4.0,0.0
12923,82.0,0.0,1830.0,0.0,0.0
12924,58.0,0.0,570.0,11.0,0.0
12925,46.0,0.0,390.0,5.0,0.0
12926,46.0,0.0,570.0,2.0,0.0
12927,46.0,0.0,570.0,13.0,0.0
12928,58.0,0.0,390.0,8.0,0.0
12929,46.0,0.0,390.0,8.0,0.0
12930,70.0,12.0,1830.0,1.0,0.0
12931,49.0,0.0,390.0,8.0,0.0
12932,34.0,0.0,570.0,14.0,0.0
12933,70.0,0.0,390.0,6.0,0.0
12934,77.0,0.0,390.0,6.0,0.0
12935,82.0,192.0,390.0,6.0,0.0
12936,73.0,0.0,390.0,6.0,0.0
12937,53.0,0.0,390.0,8.0,0.0
12938,37.0,0.0,150.0,14.0,0.0
12939,58.0,0.0,90.0,11.0,0.0
12940,49.0,0.0,150.0,2.0,0.0
12941,70.0,60.0,90.0,10.0,0.0
12942,49.0,60.0,150.0,13.0,0.0
12943,49.0,0.0,150.0,12.0,0.0
12944,58.0,0.0,90.0,11.0,0.0
12945,70.0,120.0,90.0,10.0,0.0
12946,51.0,0.0,150.0,12.0,0.0
12947,51.0,0.0,150.0,2.0,0.0
12948,39.0,0.0,150.0,14.0,0.0
12949,72.0,60.0,90.0,10.0,0.0
12950,60.0,0.0,90.0,11.0,0.0
12951,51.0,60.0,150.0,13.0,0.0
12952,60.0,0.0,90.0,11.0,0.0
12953,72.0,120.0,90.0,10.0,0.0
12954,58.0,0.0,90.0,11.0,0.0
12955,70.0,60.0,90.0,10.0,0.0
12956,37.0,60.0,150.0,14.0,0.0
12957,49.0,0.0,150.0,12.0,0.0
12958,49.0,0.0,150.0,13.0,0.0
12959,49.0,0.0,150.0,2.0,0.0
12960,70.0,120.0,90.0,10.0,0.0
12961,58.0,0.0,90.0,11.0,0.0
12962,51.0,0.0,150.0,2.0,0.0
12963,51.0,60.0,150.0,13.0,0.0
12964,39.0,0.0,150.0,14.0,0.0
12965,60.0,0.0,90.0,11.0,0.0
12966,72.0,60.0,90.0,10.0,0.0
12967,51.0,0.0,150.0,12.0,0.0
12968,60.0,0.0,90.0,11.0,0.0
12969,72.0,120.0,90.0,10.0,0.0
12970,41.0,0.0,150.0,14.0,0.0
12971,53.0,0.0,150.0,2.0,0.0
12972,53.0,0.0,150.0,12.0,0.0
12973,62.0,0.0,90.0,11.0,0.0
12974,74.0,48.0,90.0,10.0,0.0
12975,53.0,60.0,150.0,13.0,0.0
12976,62.0,120.0,90.0,11.0,0.0
12977,74.0,0.0,90.0,10.0,0.0
12978,75.0,0.0,90.0,10.0,0.0
12979,58.0,0.0,1830.0,4.0,0.0
12980,82.0,0.0,1830.0,0.0,0.0
12981,54.0,0.0,150.0,12.0,0.0
12982,63.0,60.0,90.0,11.0,0.0
12983,58.0,0.0,1830.0,3.0,0.0
12984,46.0,12.0,1830.0,3.0,0.0
12985,54.0,0.0,150.0,2.0,0.0
12986,46.0,12.0,390.0,5.0,0.0
12987,54.0,0.0,150.0,13.0,0.0
12988,70.0,0.0,1830.0,1.0,0.0
12989,42.0,60.0,150.0,14.0,0.0
12990,75.0,120.0,90.0,10.0,0.0
12991,63.0,0.0,90.0,11.0,0.0
12992,41.0,0.0,150.0,14.0,0.0
12993,62.0,0.0,90.0,11.0,0.0
12994,74.0,48.0,90.0,10.0,0.0
12995,53.0,0.0,150.0,13.0,0.0
12996,53.0,60.0,150.0,12.0,0.0
12997,53.0,0.0,150.0,2.0,0.0
12998,74.0,120.0,90.0,10.0,0.0
12999,62.0,0.0,90.0,11.0,0.0
13000,63.0,0.0,90.0,11.0,0.0
13001,54.0,60.0,150.0,2.0,0.0
13002,42.0,0.0,150.0,14.0,0.0
13003,54.0,0.0,150.0,12.0,0.0
13004,75.0,60.0,90.0,10.0,0.0
13005,54.0,0.0,150.0,13.0,0.0
13006,75.0,120.0,90.0,10.0,0.0
13007,63.0,0.0,90.0,11.0,0.0
13008,60.0,60.0,90.0,11.0,0.0
13009,52.0,0.0,150.0,13.0,0.0
13010,52.0,0.0,150.0,2.0,0.0
13011,72.0,0.0,90.0,10.0,0.0
13012,52.0,0.0,150.0,12.0,0.0
13013,40.0,60.0,150.0,14.0,0.0
13014,72.0,120.0,90.0,10.0,0.0
13015,60.0,0.0,90.0,11.0,0.0
13016,41.0,0.0,150.0,14.0,0.0
13017,53.0,0.0,150.0,13.0,0.0
13018,62.0,60.0,90.0,11.0,0.0
13019,53.0,0.0,150.0,2.0,0.0
13020,74.0,0.0,90.0,10.0,0.0
13021,53.0,60.0,150.0,12.0,0.0
13022,74.0,120.0,90.0,10.0,0.0
13023,62.0,0.0,90.0,11.0,0.0
13024,52.0,0.0,150.0,12.0,0.0
13025,52.0,0.0,150.0,2.0,0.0
13026,52.0,0.0,150.0,13.0,0.0
13027,72.0,0.0,90.0,10.0,0.0
13028,40.0,60.0,150.0,14.0,0.0
13029,60.0,60.0,90.0,11.0,0.0
13030,72.0,120.0,90.0,10.0,0.0
13031,60.0,0.0,90.0,11.0,0.0
13032,41.0,0.0,150.0,14.0,0.0
13033,74.0,60.0,90.0,10.0,0.0
13034,53.0,60.0,150.0,13.0,0.0
13035,53.0,0.0,150.0,12.0,0.0
13036,62.0,0.0,90.0,11.0,0.0
13037,53.0,0.0,150.0,2.0,0.0
13038,62.0,120.0,90.0,11.0,0.0
13039,74.0,0.0,90.0,10.0,0.0
13040,55.0,0.0,150.0,12.0,0.0
13041,55.0,0.0,150.0,13.0,0.0
13042,76.0,48.0,90.0,10.0,0.0
13043,55.0,60.0,150.0,2.0,0.0
13044,64.0,0.0,90.0,11.0,0.0
13045,43.0,0.0,150.0,14.0,0.0
13046,76.0,120.0,90.0,10.0,0.0
13047,64.0,0.0,90.0,11.0,0.0
13048,56.0,60.0,150.0,2.0,0.0
13049,44.0,0.0,150.0,14.0,0.0
13050,77.0,60.0,90.0,10.0,0.0
13051,65.0,0.0,90.0,11.0,0.0
13052,46.0,0.0,1830.0,3.0,0.0
13053,46.0,12.0,390.0,5.0,0.0
13054,82.0,0.0,2220.0,0.0,0.0
13055,58.0,12.0,1830.0,4.0,0.0
13056,56.0,0.0,150.0,13.0,0.0
13057,56.0,0.0,150.0,12.0,0.0
13058,70.0,24.0,2220.0,1.0,0.0
13059,58.0,0.0,1830.0,3.0,0.0
13060,77.0,0.0,90.0,10.0,0.0
13061,65.0,120.0,90.0,11.0,0.0
13062,64.0,48.0,90.0,11.0,0.0
13063,55.0,0.0,150.0,13.0,0.0
13064,55.0,0.0,150.0,12.0,0.0
13065,55.0,60.0,150.0,2.0,0.0
13066,43.0,0.0,150.0,14.0,0.0
13067,76.0,0.0,90.0,10.0,0.0
13068,64.0,0.0,90.0,11.0,0.0
13069,76.0,120.0,90.0,10.0,0.0
13070,77.0,0.0,90.0,10.0,0.0
13071,44.0,60.0,150.0,14.0,0.0
13072,65.0,60.0,90.0,11.0,0.0
13073,56.0,0.0,150.0,2.0,0.0
13074,56.0,0.0,150.0,13.0,0.0
13075,56.0,0.0,150.0,12.0,0.0
13076,77.0,0.0,90.0,10.0,0.0
13077,65.0,120.0,90.0,11.0,0.0
13078,53.0,0.0,150.0,12.0,0.0
13079,41.0,0.0,150.0,14.0,0.0
13080,62.0,0.0,90.0,11.0,0.0
13081,53.0,60.0,150.0,13.0,0.0
13082,53.0,0.0,150.0,2.0,0.0
13083,74.0,60.0,90.0,10.0,0.0
13084,62.0,0.0,90.0,11.0,0.0
13085,74.0,120.0,90.0,10.0,0.0
13086,54.0,0.0,150.0,12.0,0.0
13087,63.0,0.0,90.0,11.0,0.0
13088,42.0,0.0,150.0,14.0,0.0
13089,54.0,0.0,150.0,13.0,0.0
13090,54.0,60.0,150.0,2.0,0.0
13091,75.0,60.0,90.0,10.0,0.0
13092,75.0,0.0,90.0,10.0,0.0
13093,63.0,120.0,90.0,11.0,0.0
13094,53.0,0.0,150.0,2.0,0.0
13095,41.0,0.0,150.0,14.0,0.0
13096,53.0,60.0,150.0,12.0,0.0
13097,53.0,0.0,150.0,13.0,0.0
13098,62.0,60.0,90.0,11.0,0.0
13099,74.0,0.0,90.0,10.0,0.0
13100,74.0,120.0,90.0,10.0,0.0
13101,62.0,0.0,90.0,11.0,0.0
13102,54.0,0.0,150.0,2.0,0.0
13103,75.0,60.0,90.0,10.0,0.0
13104,42.0,0.0,150.0,14.0,0.0
13105,54.0,0.0,150.0,13.0,0.0
13106,54.0,60.0,150.0,12.0,0.0
13107,63.0,0.0,90.0,11.0,0.0
13108,75.0,120.0,90.0,10.0,0.0
13109,63.0,0.0,90.0,11.0,0.0
13110,77.0,48.0,90.0,10.0,0.0
13111,50.0,0.0,150.0,13.0,0.0
13112,38.0,0.0,150.0,14.0,0.0
13113,50.0,0.0,150.0,2.0,0.0
13114,62.0,60.0,150.0,12.0,0.0
13115,65.0,0.0,90.0,11.0,0.0
13116,65.0,0.0,90.0,11.0,0.0
13117,77.0,120.0,90.0,10.0,0.0
13118,66.0,0.0,90.0,11.0,0.0
13119,78.0,48.0,90.0,10.0,0.0
13120,51.0,0.0,150.0,2.0,0.0
13121,63.0,0.0,150.0,12.0,0.0
13122,39.0,72.0,150.0,14.0,0.0
13123,51.0,0.0,150.0,13.0,0.0
13124,78.0,96.0,90.0,10.0,0.0
13125,66.0,0.0,90.0,11.0,0.0
13126,27.0,0.0,150.0,14.0,0.0
13127,51.0,0.0,150.0,12.0,0.0
13128,78.0,48.0,90.0,10.0,0.0
13129,39.0,72.0,150.0,13.0,0.0
13130,66.0,0.0,90.0,11.0,0.0
13131,39.0,0.0,150.0,2.0,0.0
13132,78.0,120.0,90.0,10.0,0.0
13133,66.0,0.0,90.0,11.0,0.0
13134,63.0,120.0,930.0,1.0,0.0
13135,51.0,0.0,150.0,13.0,0.0
13136,63.0,72.0,150.0,12.0,0.0
13137,67.0,48.0,90.0,11.0,0.0
13138,75.0,24.0,900.0,0.0,0.0
13139,79.0,0.0,90.0,10.0,0.0
13140,70.0,0.0,450.0,1.0,0.0
13141,51.0,0.0,150.0,2.0,0.0
13142,39.0,0.0,150.0,14.0,0.0
13143,79.0,120.0,90.0,10.0,0.0
13144,67.0,0.0,90.0,11.0,0.0
13145,49.0,0.0,150.0,2.0,0.0
13146,37.0,0.0,150.0,14.0,0.0
13147,67.0,0.0,90.0,11.0,0.0
13148,61.0,0.0,150.0,12.0,0.0
13149,79.0,48.0,90.0,10.0,0.0
13150,49.0,72.0,150.0,13.0,0.0
13151,79.0,0.0,90.0,10.0,0.0
13152,67.0,120.0,90.0,11.0,0.0
13153,36.0,0.0,150.0,14.0,0.0
13154,48.0,0.0,150.0,13.0,0.0
13155,80.0,48.0,90.0,10.0,0.0
13156,72.0,0.0,870.0,1.0,0.0
13157,48.0,0.0,150.0,2.0,0.0
13158,60.0,72.0,150.0,12.0,0.0
13159,68.0,0.0,90.0,11.0,0.0
13160,68.0,120.0,90.0,11.0,0.0
13161,80.0,0.0,90.0,10.0,0.0
13162,80.0,0.0,90.0,10.0,0.0
13163,41.0,48.0,150.0,13.0,0.0
13164,68.0,48.0,90.0,11.0,0.0
13165,41.0,0.0,150.0,2.0,0.0
13166,53.0,0.0,150.0,12.0,0.0
13167,29.0,0.0,150.0,14.0,0.0
13168,80.0,0.0,90.0,10.0,0.0
13169,68.0,0.0,90.0,11.0,0.0
13170,77.0,0.0,870.0,0.0,0.0
13171,81.0,48.0,90.0,10.0,0.0
13172,41.0,0.0,390.0,5.0,0.0
13173,53.0,0.0,300.0,3.0,0.0
13174,65.0,0.0,150.0,12.0,0.0
13175,65.0,240.0,870.0,1.0,0.0
13176,53.0,0.0,150.0,13.0,0.0
13177,69.0,0.0,90.0,11.0,0.0
13178,53.0,72.0,150.0,2.0,0.0
13179,41.0,0.0,150.0,14.0,0.0
13180,65.0,48.0,300.0,4.0,0.0
13181,81.0,72.0,90.0,10.0,0.0
13182,69.0,0.0,90.0,11.0,0.0
13183,51.0,0.0,150.0,2.0,0.0
13184,69.0,48.0,90.0,11.0,0.0
13185,63.0,0.0,150.0,12.0,0.0
13186,39.0,72.0,150.0,14.0,0.0
13187,81.0,0.0,90.0,10.0,0.0
13188,51.0,0.0,150.0,13.0,0.0
13189,69.0,168.0,90.0,11.0,0.0
13190,81.0,0.0,90.0,10.0,0.0
13191,70.0,0.0,300.0,4.0,0.0
13192,46.0,0.0,390.0,5.0,0.0
13193,53.0,0.0,300.0,3.0,0.0
13194,58.0,0.0,300.0,4.0,0.0
13195,49.0,0.0,390.0,2.0,0.0
13196,49.0,0.0,150.0,13.0,0.0
13197,61.0,0.0,150.0,12.0,0.0
13198,46.0,96.0,300.0,3.0,0.0
13199,70.0,0.0,300.0,11.0,0.0
13200,73.0,0.0,390.0,1.0,0.0
13201,37.0,144.0,150.0,14.0,0.0
13202,82.0,0.0,300.0,10.0,0.0
13203,49.0,0.0,150.0,13.0,0.0
13204,49.0,0.0,150.0,12.0,0.0
13205,37.0,0.0,150.0,14.0,0.0
13206,49.0,0.0,150.0,12.0,0.0
13207,65.0,0.0,300.0,11.0,0.0
13208,49.0,144.0,150.0,13.0,0.0
13209,77.0,96.0,300.0,10.0,0.0
13210,37.0,0.0,150.0,14.0,0.0
13211,49.0,0.0,150.0,13.0,0.0
13212,37.0,240.0,150.0,14.0,0.0
13213,49.0,0.0,150.0,12.0,0.0
13214,73.0,96.0,300.0,10.0,0.0
13215,49.0,0.0,150.0,12.0,0.0
13216,37.0,144.0,150.0,14.0,0.0
13217,49.0,0.0,150.0,13.0,0.0
13218,61.0,0.0,300.0,11.0,0.0
13219,37.0,240.0,150.0,14.0,0.0
13220,49.0,0.0,150.0,13.0,0.0
13221,49.0,0.0,150.0,12.0,0.0
13222,70.0,96.0,300.0,10.0,0.0
13223,58.0,0.0,300.0,11.0,0.0
13224,49.0,144.0,150.0,13.0,0.0
13225,37.0,0.0,150.0,14.0,0.0
13226,49.0,0.0,150.0,12.0,0.0
13227,37.0,0.0,150.0,14.0,0.0
13228,49.0,240.0,150.0,12.0,0.0
13229,49.0,0.0,150.0,13.0,0.0
13230,54.0,0.0,780.0,11.0,0.0
13231,51.0,0.0,780.0,10.0,0.0
13232,59.0,0.0,780.0,10.0,0.0
13233,51.0,144.0,150.0,13.0,0.0
13234,71.0,96.0,300.0,1.0,0.0
13235,83.0,0.0,300.0,0.0,0.0
13236,59.0,0.0,300.0,2.0,0.0
13237,39.0,0.0,150.0,14.0,0.0
13238,51.0,0.0,150.0,12.0,0.0
13239,51.0,0.0,150.0,12.0,0.0
13240,39.0,0.0,150.0,14.0,0.0
13241,51.0,240.0,150.0,13.0,0.0
13242,39.0,0.0,150.0,14.0,0.0
13243,78.0,0.0,300.0,0.0,0.0
13244,51.0,144.0,150.0,13.0,0.0
13245,54.0,0.0,300.0,2.0,0.0
13246,51.0,0.0,150.0,12.0,0.0
13247,78.0,0.0,300.0,1.0,0.0
13248,66.0,96.0,300.0,1.0,0.0
13249,39.0,0.0,150.0,14.0,0.0
13250,51.0,240.0,150.0,13.0,0.0
13251,51.0,0.0,150.0,12.0,0.0
13252,51.0,0.0,150.0,13.0,0.0
13253,39.0,0.0,150.0,14.0,0.0
13254,63.0,96.0,300.0,1.0,0.0
13255,75.0,0.0,300.0,1.0,0.0
13256,75.0,0.0,300.0,0.0,0.0
13257,63.0,0.0,300.0,2.0,0.0
13258,51.0,0.0,300.0,2.0,0.0
13259,51.0,144.0,150.0,12.0,0.0
13260,39.0,0.0,150.0,14.0,0.0
13261,78.0,0.0,150.0,10.0,0.0
13262,51.0,0.0,150.0,12.0,0.0
13263,51.0,240.0,150.0,13.0,0.0
13264,66.0,0.0,150.0,11.0,0.0
13265,59.0,0.0,300.0,1.0,0.0
13266,39.0,144.0,150.0,14.0,0.0
13267,51.0,0.0,150.0,13.0,0.0
13268,66.0,0.0,150.0,11.0,0.0
13269,71.0,0.0,300.0,1.0,0.0
13270,71.0,0.0,300.0,0.0,0.0
13271,47.0,96.0,300.0,2.0,0.0
13272,51.0,0.0,150.0,12.0,0.0
13273,78.0,0.0,150.0,10.0,0.0
13274,59.0,0.0,300.0,2.0,0.0
13275,51.0,0.0,150.0,13.0,0.0
13276,78.0,0.0,150.0,10.0,0.0
13277,66.0,252.0,150.0,11.0,0.0
13278,51.0,0.0,150.0,12.0,0.0
13279,39.0,0.0,150.0,14.0,0.0
13280,65.0,0.0,390.0,4.0,0.0
13281,53.0,0.0,390.0,4.0,0.0
13282,69.0,0.0,780.0,0.0,0.0
13283,57.0,0.0,780.0,2.0,0.0
13284,53.0,0.0,150.0,13.0,0.0
13285,45.0,0.0,780.0,2.0,0.0
13286,78.0,0.0,240.0,10.0,0.0
13287,66.0,144.0,240.0,11.0,0.0
13288,41.0,84.0,150.0,14.0,0.0
13289,53.0,0.0,150.0,12.0,0.0
13290,69.0,108.0,780.0,1.0,0.0
13291,57.0,0.0,780.0,1.0,0.0
13292,53.0,0.0,1920.0,3.0,0.0
13293,41.0,240.0,1920.0,3.0,0.0
13294,41.0,12.0,390.0,5.0,0.0
13295,53.0,0.0,150.0,12.0,0.0
13296,77.0,0.0,180.0,10.0,0.0
13297,65.0,204.0,180.0,11.0,0.0
13298,41.0,0.0,150.0,14.0,0.0
13299,53.0,36.0,150.0,13.0,0.0
13300,77.0,180.0,690.0,10.0,0.0
13301,53.0,0.0,150.0,13.0,0.0
13302,65.0,0.0,690.0,11.0,0.0
13303,53.0,0.0,150.0,12.0,0.0
13304,41.0,132.0,150.0,14.0,0.0
13305,53.0,0.0,150.0,12.0,0.0
13306,41.0,240.0,150.0,14.0,0.0
13307,53.0,0.0,150.0,13.0,0.0
13308,53.0,0.0,150.0,13.0,0.0
13309,53.0,48.0,150.0,12.0,0.0
13310,41.0,0.0,150.0,14.0,0.0
13311,75.0,0.0,150.0,10.0,0.0
13312,53.0,0.0,150.0,12.0,0.0
13313,81.0,12.0,150.0,0.0,0.0
13314,41.0,0.0,150.0,14.0,0.0
13315,63.0,0.0,150.0,11.0,0.0
13316,69.0,0.0,150.0,1.0,0.0
13317,72.0,0.0,150.0,1.0,0.0
13318,53.0,228.0,150.0,13.0,0.0
13319,69.0,0.0,150.0,1.0,0.0
13320,72.0,12.0,150.0,1.0,0.0
13321,81.0,0.0,150.0,0.0,0.0
13322,53.0,0.0,150.0,13.0,0.0
13323,75.0,0.0,150.0,10.0,0.0
13324,41.0,0.0,150.0,14.0,0.0
13325,53.0,228.0,150.0,12.0,0.0
13326,63.0,0.0,150.0,11.0,0.0
13327,81.0,0.0,150.0,0.0,0.0
13328,75.0,0.0,150.0,10.0,0.0
13329,53.0,0.0,150.0,12.0,0.0
13330,72.0,0.0,150.0,1.0,0.0
13331,41.0,0.0,150.0,14.0,0.0
13332,53.0,84.0,150.0,13.0,0.0
13333,63.0,12.0,150.0,11.0,0.0
13334,69.0,0.0,150.0,1.0,0.0
13335,46.0,0.0,390.0,3.0,0.0
13336,58.0,0.0,390.0,3.0,0.0
13337,75.0,0.0,240.0,10.0,0.0
13338,72.0,0.0,240.0,1.0,0.0
13339,63.0,0.0,240.0,11.0,0.0
13340,69.0,144.0,240.0,1.0,0.0
13341,81.0,0.0,240.0,0.0,0.0
13342,58.0,0.0,390.0,4.0,0.0
13343,70.0,0.0,390.0,4.0,0.0
13344,54.0,0.0,390.0,13.0,0.0
13345,42.0,0.0,390.0,14.0,0.0
13346,54.0,0.0,390.0,12.0,0.0
13347,46.0,48.0,390.0,5.0,0.0
13348,61.0,432.0,180.0,11.0,0.0
13349,73.0,0.0,180.0,10.0,0.0
13350,82.0,0.0,180.0,0.0,0.0
13351,73.0,0.0,180.0,1.0,0.0
13352,70.0,0.0,180.0,1.0,0.0
13353,73.0,0.0,390.0,1.0,0.0
13354,61.0,0.0,390.0,11.0,0.0
13355,73.0,480.0,390.0,10.0,0.0
13356,82.0,0.0,390.0,0.0,0.0
13357,70.0,0.0,390.0,1.0,0.0
13358,51.0,0.0,960.0,2.0,0.0
13359,39.0,0.0,390.0,14.0,0.0
13360,51.0,96.0,390.0,13.0,0.0
13361,60.0,384.0,960.0,2.0,0.0
13362,54.0,0.0,390.0,12.0,0.0
13363,63.0,0.0,240.0,11.0,0.0
13364,72.0,240.0,240.0,10.0,0.0
13365,66.0,192.0,240.0,11.0,0.0
13366,75.0,0.0,240.0,10.0,0.0
13367,63.0,0.0,240.0,11.0,0.0
13368,72.0,48.0,180.0,10.0,0.0
13369,53.0,0.0,390.0,13.0,0.0
13370,49.0,0.0,960.0,2.0,0.0
13371,58.0,0.0,960.0,2.0,0.0
13372,53.0,0.0,390.0,12.0,0.0
13373,41.0,96.0,390.0,14.0,0.0
13374,70.0,0.0,240.0,10.0,0.0
13375,61.0,240.0,240.0,11.0,0.0
13376,73.0,192.0,240.0,10.0,0.0
13377,65.0,0.0,240.0,11.0,0.0
13378,61.0,384.0,240.0,11.0,0.0
13379,70.0,48.0,180.0,10.0,0.0
13380,57.0,96.0,960.0,2.0,0.0
13381,53.0,96.0,390.0,12.0,0.0
13382,48.0,0.0,960.0,2.0,0.0
13383,41.0,0.0,390.0,13.0,0.0
13384,29.0,0.0,390.0,14.0,0.0
13385,69.0,240.0,240.0,10.0,0.0
13386,60.0,0.0,240.0,11.0,0.0
13387,72.0,0.0,240.0,10.0,0.0
13388,63.0,192.0,240.0,11.0,0.0
13389,60.0,48.0,180.0,11.0,0.0
13390,69.0,0.0,180.0,10.0,0.0
13391,58.0,0.0,390.0,4.0,0.0
13392,82.0,0.0,6150.0,0.0,0.0
13393,70.0,0.0,390.0,4.0,0.0
13394,70.0,0.0,570.0,1.0,0.0
13395,58.0,0.0,570.0,1.0,0.0
13396,46.0,0.0,570.0,12.0,0.0
13397,46.0,0.0,570.0,13.0,0.0
13398,58.0,120.0,570.0,11.0,0.0
13399,46.0,0.0,6150.0,3.0,0.0
13400,58.0,0.0,6150.0,3.0,0.0
13401,70.0,0.0,90.0,10.0,0.0
13402,34.0,0.0,570.0,14.0,0.0
13403,58.0,120.0,90.0,10.0,0.0
13404,46.0,72.0,390.0,5.0,0.0
13405,46.0,0.0,570.0,2.0,0.0
13406,70.0,0.0,90.0,10.0,0.0
13407,58.0,120.0,90.0,10.0,0.0
13408,58.0,0.0,90.0,10.0,0.0
13409,70.0,48.0,90.0,10.0,0.0
13410,58.0,120.0,90.0,10.0,0.0
13411,70.0,0.0,90.0,10.0,0.0
13412,58.0,0.0,90.0,10.0,0.0
13413,70.0,0.0,90.0,10.0,0.0
13414,70.0,120.0,90.0,10.0,0.0
13415,58.0,0.0,90.0,10.0,0.0
13416,46.0,60.0,150.0,12.0,0.0
13417,46.0,0.0,150.0,2.0,0.0
13418,70.0,0.0,150.0,1.0,0.0
13419,58.0,0.0,150.0,1.0,0.0
13420,34.0,0.0,150.0,14.0,0.0
13421,58.0,60.0,90.0,11.0,0.0
13422,70.0,0.0,90.0,10.0,0.0
13423,46.0,0.0,150.0,13.0,0.0
13424,58.0,0.0,90.0,10.0,0.0
13425,58.0,0.0,90.0,10.0,0.0
13426,58.0,120.0,90.0,11.0,0.0
13427,70.0,0.0,90.0,10.0,0.0
13428,47.0,60.0,150.0,13.0,0.0
13429,47.0,0.0,150.0,2.0,0.0
13430,59.0,0.0,90.0,11.0,0.0
13431,70.0,60.0,90.0,10.0,0.0
13432,47.0,0.0,150.0,12.0,0.0
13433,58.0,0.0,90.0,10.0,0.0
13434,35.0,0.0,150.0,14.0,0.0
13435,59.0,0.0,150.0,1.0,0.0
13436,71.0,0.0,150.0,1.0,0.0
13437,59.0,0.0,90.0,11.0,0.0
13438,70.0,0.0,90.0,10.0,0.0
13439,58.0,120.0,90.0,10.0,0.0
13440,58.0,0.0,150.0,1.0,0.0
13441,58.0,0.0,90.0,11.0,0.0
13442,46.0,0.0,150.0,2.0,0.0
13443,46.0,60.0,150.0,12.0,0.0
13444,34.0,0.0,150.0,14.0,0.0
13445,70.0,0.0,150.0,1.0,0.0
13446,58.0,0.0,90.0,10.0,0.0
13447,46.0,0.0,150.0,13.0,0.0
13448,70.0,60.0,90.0,10.0,0.0
13449,70.0,0.0,90.0,10.0,0.0
13450,58.0,120.0,90.0,10.0,0.0
13451,58.0,0.0,90.0,11.0,0.0
13452,48.0,0.0,150.0,13.0,0.0
13453,60.0,0.0,90.0,11.0,0.0
13454,36.0,60.0,150.0,14.0,0.0
13455,58.0,0.0,90.0,10.0,0.0
13456,48.0,0.0,150.0,2.0,0.0
13457,72.0,0.0,150.0,1.0,0.0
13458,60.0,0.0,150.0,1.0,0.0
13459,70.0,60.0,90.0,10.0,0.0
13460,48.0,0.0,150.0,12.0,0.0
13461,58.0,0.0,90.0,10.0,0.0
13462,70.0,120.0,90.0,10.0,0.0
13463,60.0,0.0,90.0,11.0,0.0
13464,70.0,60.0,90.0,10.0,0.0
13465,50.0,60.0,150.0,13.0,0.0
13466,62.0,0.0,90.0,11.0,0.0
13467,58.0,0.0,90.0,10.0,0.0
13468,50.0,0.0,150.0,2.0,0.0
13469,50.0,0.0,150.0,12.0,0.0
13470,62.0,0.0,150.0,1.0,0.0
13471,74.0,0.0,150.0,1.0,0.0
13472,38.0,0.0,150.0,14.0,0.0
13473,58.0,0.0,90.0,10.0,0.0
13474,70.0,0.0,90.0,10.0,0.0
13475,62.0,120.0,90.0,11.0,0.0
13476,58.0,0.0,390.0,4.0,0.0
13477,70.0,12.0,390.0,4.0,0.0
13478,39.0,0.0,150.0,14.0,0.0
13479,63.0,0.0,90.0,11.0,0.0
13480,51.0,0.0,150.0,12.0,0.0
13481,63.0,0.0,150.0,1.0,0.0
13482,75.0,0.0,150.0,1.0,0.0
13483,51.0,0.0,150.0,13.0,0.0
13484,51.0,60.0,150.0,2.0,0.0
13485,46.0,0.0,390.0,5.0,0.0
13486,58.0,0.0,90.0,10.0,0.0
13487,70.0,60.0,90.0,10.0,0.0
13488,58.0,120.0,90.0,10.0,0.0
13489,70.0,0.0,90.0,10.0,0.0
13490,63.0,0.0,90.0,11.0,0.0
13491,50.0,0.0,150.0,12.0,0.0
13492,62.0,0.0,90.0,11.0,0.0
13493,50.0,60.0,150.0,2.0,0.0
13494,70.0,48.0,90.0,10.0,0.0
13495,38.0,0.0,150.0,14.0,0.0
13496,58.0,0.0,90.0,10.0,0.0
13497,62.0,0.0,150.0,1.0,0.0
13498,74.0,0.0,150.0,1.0,0.0
13499,50.0,0.0,150.0,13.0,0.0
13500,62.0,0.0,90.0,11.0,0.0
13501,70.0,0.0,90.0,10.0,0.0
13502,58.0,120.0,90.0,10.0,0.0
13503,58.0,60.0,90.0,10.0,0.0
13504,70.0,0.0,90.0,10.0,0.0
13505,51.0,0.0,150.0,2.0,0.0
13506,39.0,0.0,150.0,14.0,0.0
13507,75.0,60.0,150.0,1.0,0.0
13508,51.0,0.0,150.0,13.0,0.0
13509,63.0,0.0,150.0,1.0,0.0
13510,63.0,0.0,90.0,11.0,0.0
13511,51.0,0.0,150.0,12.0,0.0
13512,63.0,120.0,90.0,11.0,0.0
13513,70.0,0.0,90.0,10.0,0.0
13514,58.0,0.0,90.0,10.0,0.0
13515,48.0,0.0,150.0,2.0,0.0
13516,36.0,0.0,150.0,14.0,0.0
13517,48.0,60.0,150.0,13.0,0.0
13518,48.0,0.0,150.0,12.0,0.0
13519,60.0,0.0,90.0,11.0,0.0
13520,72.0,0.0,150.0,1.0,0.0
13521,70.0,0.0,90.0,10.0,0.0
13522,60.0,0.0,150.0,1.0,0.0
13523,58.0,60.0,90.0,10.0,0.0
13524,60.0,0.0,90.0,11.0,0.0
13525,70.0,0.0,90.0,10.0,0.0
13526,58.0,120.0,90.0,10.0,0.0
13527,58.0,0.0,90.0,10.0,0.0
13528,73.0,60.0,150.0,1.0,0.0
13529,37.0,0.0,150.0,14.0,0.0
13530,49.0,0.0,150.0,2.0,0.0
13531,49.0,0.0,150.0,13.0,0.0
13532,70.0,60.0,90.0,10.0,0.0
13533,61.0,0.0,150.0,1.0,0.0
13534,61.0,0.0,90.0,11.0,0.0
13535,49.0,0.0,150.0,12.0,0.0
13536,58.0,120.0,90.0,10.0,0.0
13537,61.0,0.0,90.0,11.0,0.0
13538,70.0,0.0,90.0,10.0,0.0
13539,48.0,0.0,150.0,2.0,0.0
13540,36.0,0.0,150.0,14.0,0.0
13541,60.0,0.0,150.0,1.0,0.0
13542,48.0,60.0,150.0,13.0,0.0
13543,60.0,60.0,90.0,11.0,0.0
13544,72.0,0.0,150.0,1.0,0.0
13545,48.0,0.0,150.0,12.0,0.0
13546,58.0,0.0,90.0,10.0,0.0
13547,70.0,0.0,90.0,10.0,0.0
13548,60.0,120.0,90.0,11.0,0.0
13549,70.0,0.0,90.0,10.0,0.0
13550,58.0,0.0,90.0,10.0,0.0
13551,58.0,0.0,90.0,10.0,0.0
13552,74.0,0.0,150.0,1.0,0.0
13553,62.0,0.0,150.0,1.0,0.0
13554,70.0,60.0,90.0,10.0,0.0
13555,50.0,60.0,150.0,13.0,0.0
13556,50.0,0.0,150.0,12.0,0.0
13557,62.0,0.0,90.0,11.0,0.0
13558,38.0,0.0,150.0,14.0,0.0
13559,50.0,0.0,150.0,2.0,0.0
13560,62.0,0.0,90.0,11.0,0.0
13561,70.0,0.0,90.0,10.0,0.0
13562,58.0,120.0,90.0,10.0,0.0
13563,76.0,0.0,150.0,1.0,0.0
13564,58.0,60.0,90.0,10.0,0.0
13565,64.0,0.0,150.0,1.0,0.0
13566,52.0,0.0,150.0,2.0,0.0
13567,40.0,0.0,150.0,14.0,0.0
13568,70.0,0.0,90.0,10.0,0.0
13569,52.0,0.0,150.0,12.0,0.0
13570,52.0,60.0,150.0,13.0,0.0
13571,64.0,0.0,90.0,11.0,0.0
13572,64.0,0.0,90.0,11.0,0.0
13573,58.0,120.0,90.0,10.0,0.0
13574,70.0,0.0,90.0,10.0,0.0
13575,58.0,12.0,390.0,4.0,0.0
13576,70.0,0.0,390.0,4.0,0.0
13577,65.0,60.0,150.0,1.0,0.0
13578,41.0,0.0,150.0,14.0,0.0
13579,46.0,0.0,390.0,5.0,0.0
13580,53.0,0.0,150.0,13.0,0.0
13581,53.0,0.0,150.0,12.0,0.0
13582,77.0,0.0,150.0,1.0,0.0
13583,53.0,0.0,150.0,2.0,0.0
13584,58.0,0.0,90.0,10.0,0.0
13585,70.0,0.0,90.0,10.0,0.0
13586,65.0,60.0,90.0,11.0,0.0
13587,58.0,120.0,90.0,10.0,0.0
13588,70.0,0.0,90.0,10.0,0.0
13589,65.0,0.0,90.0,11.0,0.0
13590,76.0,0.0,150.0,1.0,0.0
13591,40.0,0.0,150.0,14.0,0.0
13592,64.0,0.0,150.0,1.0,0.0
13593,64.0,48.0,90.0,11.0,0.0
13594,52.0,0.0,150.0,12.0,0.0
13595,70.0,0.0,90.0,10.0,0.0
13596,58.0,0.0,90.0,10.0,0.0
13597,52.0,60.0,150.0,2.0,0.0
13598,52.0,0.0,150.0,13.0,0.0
13599,58.0,0.0,90.0,10.0,0.0
13600,70.0,120.0,90.0,10.0,0.0
13601,64.0,0.0,90.0,11.0,0.0
13602,53.0,0.0,150.0,12.0,0.0
13603,65.0,60.0,90.0,11.0,0.0
13604,65.0,0.0,150.0,1.0,0.0
13605,53.0,0.0,150.0,13.0,0.0
13606,41.0,0.0,150.0,14.0,0.0
13607,70.0,0.0,90.0,10.0,0.0
13608,77.0,0.0,150.0,1.0,0.0
13609,53.0,60.0,150.0,2.0,0.0
13610,58.0,0.0,90.0,10.0,0.0
13611,58.0,0.0,90.0,10.0,0.0
13612,65.0,120.0,90.0,11.0,0.0
13613,70.0,0.0,90.0,10.0,0.0
13614,38.0,0.0,150.0,14.0,0.0
13615,70.0,0.0,90.0,10.0,0.0
13616,50.0,0.0,150.0,13.0,0.0
13617,50.0,0.0,150.0,2.0,0.0
13618,50.0,0.0,150.0,12.0,0.0
13619,58.0,0.0,90.0,10.0,0.0
13620,62.0,60.0,90.0,11.0,0.0
13621,74.0,60.0,150.0,1.0,0.0
13622,62.0,0.0,150.0,1.0,0.0
13623,70.0,0.0,90.0,10.0,0.0
13624,62.0,120.0,90.0,11.0,0.0
13625,58.0,0.0,90.0,10.0,0.0
13626,39.0,0.0,150.0,14.0,0.0
13627,70.0,0.0,90.0,10.0,0.0
13628,51.0,0.0,150.0,13.0,0.0
13629,58.0,60.0,90.0,10.0,0.0
13630,51.0,60.0,150.0,12.0,0.0
13631,75.0,0.0,150.0,1.0,0.0
13632,51.0,0.0,150.0,2.0,0.0
13633,63.0,0.0,150.0,1.0,0.0
13634,63.0,0.0,90.0,11.0,0.0
13635,70.0,0.0,90.0,10.0,0.0
13636,58.0,120.0,90.0,10.0,0.0
13637,63.0,0.0,90.0,11.0,0.0
13638,50.0,0.0,150.0,13.0,0.0
13639,38.0,60.0,150.0,14.0,0.0
13640,62.0,0.0,90.0,11.0,0.0
13641,70.0,60.0,90.0,10.0,0.0
13642,50.0,0.0,150.0,2.0,0.0
13643,50.0,0.0,150.0,12.0,0.0
13644,74.0,0.0,150.0,1.0,0.0
13645,58.0,0.0,90.0,10.0,0.0
13646,62.0,0.0,150.0,1.0,0.0
13647,58.0,120.0,90.0,10.0,0.0
13648,70.0,0.0,90.0,10.0,0.0
13649,62.0,0.0,90.0,11.0,0.0
13650,75.0,0.0,150.0,1.0,0.0
13651,63.0,0.0,150.0,1.0,0.0
13652,51.0,0.0,150.0,2.0,0.0
13653,63.0,60.0,90.0,11.0,0.0
13654,51.0,60.0,150.0,13.0,0.0
13655,70.0,0.0,90.0,10.0,0.0
13656,58.0,0.0,90.0,10.0,0.0
13657,51.0,0.0,150.0,12.0,0.0
13658,39.0,0.0,150.0,14.0,0.0
13659,58.0,120.0,90.0,10.0,0.0
13660,63.0,0.0,90.0,11.0,0.0
13661,70.0,0.0,90.0,10.0,0.0
13662,65.0,0.0,90.0,11.0,0.0
13663,53.0,0.0,150.0,2.0,0.0
13664,65.0,60.0,150.0,1.0,0.0
13665,58.0,0.0,90.0,10.0,0.0
13666,41.0,0.0,150.0,14.0,0.0
13667,77.0,0.0,150.0,1.0,0.0
13668,70.0,60.0,90.0,10.0,0.0
13669,53.0,0.0,150.0,13.0,0.0
13670,53.0,0.0,150.0,12.0,0.0
13671,70.0,0.0,90.0,10.0,0.0
13672,58.0,0.0,90.0,10.0,0.0
13673,65.0,180.0,90.0,11.0,0.0
13674,66.0,0.0,150.0,11.0,0.0
13675,54.0,0.0,390.0,13.0,0.0
13676,78.0,12.0,390.0,1.0,0.0
13677,46.0,0.0,390.0,5.0,0.0
13678,66.0,0.0,390.0,1.0,0.0
13679,58.0,228.0,150.0,10.0,0.0
13680,70.0,0.0,150.0,10.0,0.0
13681,42.0,0.0,390.0,14.0,0.0
13682,54.0,0.0,390.0,2.0,0.0
13683,54.0,0.0,390.0,12.0,0.0
13684,58.0,0.0,390.0,4.0,0.0
13685,70.0,0.0,390.0,4.0,0.0
13686,70.0,240.0,150.0,11.0,0.0
13687,82.0,0.0,150.0,10.0,0.0
13688,82.0,240.0,150.0,10.0,0.0
13689,70.0,0.0,150.0,11.0,0.0
13690,70.0,240.0,150.0,11.0,0.0
13691,82.0,0.0,150.0,10.0,0.0
13692,70.0,240.0,150.0,11.0,0.0
13693,82.0,0.0,150.0,10.0,0.0
13694,70.0,0.0,150.0,11.0,0.0
13695,82.0,240.0,150.0,10.0,0.0
13696,82.0,0.0,150.0,10.0,0.0
13697,70.0,240.0,150.0,11.0,0.0
13698,82.0,0.0,150.0,10.0,0.0
13699,70.0,324.0,150.0,11.0,0.0
13700,46.0,0.0,390.0,5.0,0.0
13701,80.0,144.0,240.0,10.0,0.0
13702,58.0,12.0,390.0,4.0,0.0
13703,68.0,0.0,240.0,11.0,0.0
13704,70.0,0.0,390.0,4.0,0.0
13705,78.0,0.0,150.0,0.0,0.0
13706,51.0,0.0,180.0,12.0,0.0
13707,66.0,0.0,240.0,11.0,0.0
13708,39.0,36.0,180.0,13.0,0.0
13709,39.0,0.0,150.0,2.0,0.0
13710,78.0,168.0,240.0,10.0,0.0
13711,70.0,0.0,150.0,1.0,0.0
13712,27.0,0.0,180.0,14.0,0.0
13713,75.0,36.0,150.0,1.0,0.0
13714,70.0,0.0,150.0,1.0,0.0
13715,75.0,36.0,150.0,1.0,0.0
13716,51.0,0.0,150.0,2.0,0.0
13717,39.0,0.0,180.0,14.0,0.0
13718,46.0,0.0,780.0,3.0,0.0
13719,78.0,0.0,150.0,0.0,0.0
13720,78.0,156.0,960.0,10.0,0.0
13721,51.0,204.0,180.0,12.0,0.0
13722,58.0,108.0,780.0,3.0,0.0
13723,66.0,0.0,960.0,11.0,0.0
13724,51.0,0.0,180.0,13.0,0.0
13725,51.0,0.0,180.0,12.0,0.0
13726,39.0,0.0,180.0,14.0,0.0
13727,78.0,0.0,150.0,0.0,0.0
13728,51.0,204.0,180.0,13.0,0.0
13729,70.0,0.0,150.0,1.0,0.0
13730,75.0,0.0,150.0,1.0,0.0
13731,51.0,36.0,150.0,2.0,0.0
13732,51.0,0.0,180.0,13.0,0.0
13733,39.0,96.0,180.0,14.0,0.0
13734,78.0,36.0,150.0,0.0,0.0
13735,51.0,0.0,150.0,2.0,0.0
13736,51.0,0.0,180.0,12.0,0.0
13737,70.0,0.0,150.0,1.0,0.0
13738,75.0,0.0,150.0,1.0,0.0
13739,75.0,36.0,150.0,1.0,0.0
13740,51.0,0.0,180.0,12.0,0.0
13741,51.0,0.0,150.0,2.0,0.0
13742,39.0,0.0,180.0,14.0,0.0
13743,51.0,48.0,180.0,13.0,0.0
13744,70.0,0.0,150.0,1.0,0.0
13745,78.0,0.0,150.0,0.0,0.0
13746,53.0,0.0,180.0,13.0,0.0
13747,73.0,0.0,150.0,1.0,0.0
13748,41.0,120.0,180.0,14.0,0.0
13749,77.0,0.0,150.0,0.0,0.0
13750,46.0,0.0,300.0,3.0,0.0
13751,70.0,0.0,150.0,1.0,0.0
13752,65.0,0.0,450.0,11.0,0.0
13753,58.0,84.0,300.0,3.0,0.0
13754,53.0,0.0,180.0,12.0,0.0
13755,53.0,36.0,150.0,2.0,0.0
13756,77.0,264.0,450.0,10.0,0.0
13757,77.0,0.0,150.0,0.0,0.0
13758,70.0,0.0,150.0,1.0,0.0
13759,73.0,36.0,150.0,1.0,0.0
13760,41.0,0.0,180.0,14.0,0.0
13761,53.0,24.0,180.0,13.0,0.0
13762,53.0,0.0,180.0,12.0,0.0
13763,53.0,0.0,150.0,2.0,0.0
13764,65.0,72.0,240.0,11.0,0.0
13765,46.0,0.0,300.0,5.0,0.0
13766,77.0,0.0,240.0,10.0,0.0
13767,58.0,72.0,300.0,4.0,0.0
13768,70.0,0.0,300.0,4.0,0.0
13769,55.0,0.0,300.0,2.0,0.0
13770,63.0,0.0,300.0,1.0,0.0
13771,70.0,0.0,300.0,1.0,0.0
13772,55.0,0.0,390.0,12.0,0.0
13773,77.0,0.0,240.0,0.0,0.0
13774,43.0,0.0,390.0,14.0,0.0
13775,58.0,0.0,300.0,3.0,0.0
13776,46.0,0.0,300.0,3.0,0.0
13777,55.0,48.0,390.0,13.0,0.0
13778,75.0,0.0,180.0,0.0,0.0
13779,75.0,360.0,180.0,10.0,0.0
13780,63.0,0.0,180.0,11.0,0.0
13781,75.0,0.0,390.0,0.0,0.0
13782,58.0,0.0,300.0,3.0,0.0
13783,46.0,0.0,300.0,3.0,0.0
13784,63.0,72.0,300.0,1.0,0.0
13785,43.0,0.0,390.0,14.0,0.0
13786,55.0,0.0,300.0,2.0,0.0
13787,55.0,0.0,390.0,13.0,0.0
13788,70.0,0.0,300.0,1.0,0.0
13789,63.0,0.0,390.0,11.0,0.0
13790,58.0,0.0,300.0,4.0,0.0
13791,70.0,0.0,300.0,4.0,0.0
13792,75.0,0.0,390.0,10.0,0.0
13793,46.0,0.0,300.0,5.0,0.0
13794,55.0,1248.0,390.0,12.0,0.0
13795,54.0,0.0,300.0,2.0,0.0
13796,58.0,48.0,180.0,12.0,0.0
13797,70.0,312.0,480.0,11.0,0.0
13798,54.0,0.0,390.0,13.0,0.0
13799,58.0,0.0,300.0,3.0,0.0
13800,75.0,72.0,240.0,10.0,0.0
13801,46.0,72.0,300.0,3.0,0.0
13802,42.0,48.0,390.0,14.0,0.0
13803,76.0,48.0,180.0,10.0,0.0
13804,60.0,0.0,180.0,12.0,0.0
13805,60.0,0.0,390.0,12.0,0.0
13806,58.0,0.0,300.0,3.0,0.0
13807,46.0,72.0,300.0,3.0,0.0
13808,54.0,0.0,300.0,2.0,0.0
13809,70.0,0.0,390.0,11.0,0.0
13810,76.0,0.0,390.0,10.0,0.0
13811,54.0,0.0,390.0,13.0,0.0
13812,42.0,1776.0,390.0,14.0,0.0
13813,77.0,120.0,720.0,10.0,0.0
13814,53.0,0.0,1830.0,13.0,0.0
13815,70.0,0.0,1830.0,11.0,0.0
13816,53.0,72.0,1830.0,2.0,0.0
13817,53.0,0.0,3840.0,3.0,0.0
13818,41.0,0.0,3840.0,3.0,0.0
13819,61.0,0.0,1830.0,12.0,0.0
13820,41.0,0.0,1830.0,14.0,0.0
13821,73.0,96.0,120.0,10.0,0.0
13822,70.0,744.0,90.0,10.0,0.0
13823,77.0,120.0,720.0,10.0,0.0
13824,73.0,24.0,120.0,10.0,0.0
13825,70.0,336.0,90.0,10.0,0.0
13826,65.0,0.0,300.0,10.0,0.0
13827,73.0,0.0,960.0,1.0,0.0
13828,70.0,792.0,960.0,1.0,0.0
13829,61.0,480.0,300.0,11.0,0.0
13830,53.0,0.0,300.0,2.0,0.0
13831,41.0,0.0,300.0,14.0,0.0
13832,58.0,0.0,300.0,12.0,0.0
13833,77.0,0.0,960.0,0.0,0.0
13834,53.0,0.0,300.0,13.0,0.0
13835,61.0,0.0,300.0,11.0,0.0
13836,53.0,0.0,300.0,2.0,0.0
13837,41.0,168.0,300.0,14.0,0.0
13838,65.0,0.0,300.0,10.0,0.0
13839,53.0,0.0,300.0,13.0,0.0
13840,58.0,0.0,300.0,12.0,0.0
13841,75.0,0.0,960.0,1.0,0.0
13842,72.0,0.0,960.0,1.0,0.0
13843,81.0,0.0,960.0,0.0,0.0
13844,69.0,144.0,480.0,10.0,0.0
13845,41.0,168.0,300.0,14.0,0.0
13846,53.0,0.0,300.0,13.0,0.0
13847,63.0,0.0,480.0,11.0,0.0
13848,60.0,0.0,480.0,12.0,0.0
13849,53.0,0.0,300.0,2.0,0.0
13850,70.0,0.0,390.0,1.0,0.0
13851,73.0,96.0,390.0,1.0,0.0
13852,58.0,0.0,390.0,12.0,0.0
13853,70.0,0.0,390.0,10.0,0.0
13854,61.0,240.0,150.0,11.0,0.0
13855,34.0,240.0,960.0,14.0,0.0
13856,46.0,0.0,390.0,2.0,0.0
13857,46.0,0.0,390.0,3.0,0.0
13858,82.0,0.0,390.0,0.0,0.0
13859,46.0,0.0,960.0,13.0,0.0
13860,58.0,240.0,240.0,11.0,0.0
13861,65.0,228.0,240.0,11.0,0.0
13862,61.0,12.0,240.0,11.0,0.0
13863,53.0,240.0,480.0,12.0,0.0
13864,49.0,240.0,960.0,13.0,0.0
13865,57.0,228.0,240.0,11.0,0.0
13866,37.0,0.0,960.0,14.0,0.0
13867,58.0,12.0,240.0,11.0,0.0
13868,65.0,228.0,240.0,11.0,0.0
13869,46.0,12.0,930.0,12.0,0.0
13870,73.0,216.0,720.0,10.0,0.0
13871,61.0,12.0,240.0,11.0,0.0
13872,66.0,0.0,240.0,11.0,0.0
13873,51.0,0.0,960.0,13.0,0.0
13874,39.0,240.0,960.0,14.0,0.0
13875,63.0,240.0,240.0,11.0,0.0
13876,72.0,12.0,240.0,10.0,0.0
13877,60.0,228.0,240.0,11.0,0.0
13878,75.0,0.0,960.0,10.0,0.0
13879,54.0,48.0,900.0,12.0,0.0
13880,58.0,12.0,240.0,11.0,0.0
13881,53.0,24.0,900.0,13.0,0.0
13882,57.0,192.0,240.0,11.0,0.0
13883,41.0,0.0,900.0,14.0,0.0
13884,60.0,240.0,240.0,11.0,0.0
13885,73.0,0.0,450.0,10.0,0.0
13886,64.0,192.0,240.0,11.0,0.0
13887,53.0,12.0,450.0,12.0,0.0
13888,65.0,252.0,240.0,11.0,0.0
13889,72.0,0.0,480.0,10.0,0.0
13890,57.0,240.0,480.0,12.0,0.0
13891,54.0,0.0,960.0,13.0,0.0
13892,63.0,240.0,240.0,11.0,0.0
13893,42.0,240.0,960.0,14.0,0.0
13894,60.0,0.0,240.0,11.0,0.0
13895,58.0,0.0,450.0,12.0,0.0
13896,70.0,12.0,450.0,10.0,0.0
13897,63.0,216.0,240.0,11.0,0.0
13898,61.0,12.0,240.0,11.0,0.0
13899,64.0,240.0,240.0,11.0,0.0
13900,37.0,0.0,960.0,14.0,0.0
13901,49.0,240.0,960.0,13.0,0.0
13902,65.0,240.0,240.0,11.0,0.0
13903,73.0,228.0,720.0,10.0,0.0
13904,53.0,0.0,720.0,12.0,0.0
13905,61.0,228.0,240.0,11.0,0.0
13906,58.0,12.0,240.0,11.0,0.0
13907,51.0,240.0,960.0,13.0,0.0
13908,39.0,0.0,960.0,14.0,0.0
13909,66.0,0.0,240.0,11.0,0.0
13910,63.0,240.0,240.0,11.0,0.0
13911,54.0,0.0,240.0,12.0,0.0
13912,72.0,12.0,240.0,10.0,0.0
13913,51.0,0.0,240.0,12.0,0.0
13914,60.0,228.0,240.0,11.0,0.0
13915,78.0,0.0,960.0,10.0,0.0
13916,58.0,12.0,240.0,11.0,0.0
13917,49.0,0.0,240.0,12.0,0.0
13918,53.0,24.0,900.0,13.0,0.0
13919,57.0,240.0,240.0,11.0,0.0
13920,41.0,0.0,900.0,14.0,0.0
13921,48.0,0.0,480.0,12.0,0.0
13922,60.0,240.0,240.0,11.0,0.0
13923,57.0,0.0,720.0,12.0,0.0
13924,77.0,12.0,450.0,10.0,0.0
13925,63.0,192.0,240.0,11.0,0.0
13926,69.0,252.0,240.0,11.0,0.0
13927,72.0,192.0,240.0,11.0,0.0
13928,75.0,240.0,480.0,10.0,0.0
13929,54.0,0.0,960.0,13.0,0.0
13930,42.0,240.0,960.0,14.0,0.0
13931,69.0,0.0,240.0,11.0,0.0
13932,60.0,48.0,180.0,12.0,0.0
13933,72.0,216.0,240.0,11.0,0.0
13934,73.0,12.0,450.0,10.0,0.0
13935,58.0,0.0,450.0,12.0,0.0
13936,70.0,12.0,240.0,11.0,0.0
13937,64.0,240.0,240.0,11.0,0.0
13938,58.0,0.0,960.0,2.0,0.0
13939,61.0,0.0,960.0,2.0,0.0
13940,61.0,0.0,960.0,12.0,0.0
13941,49.0,0.0,960.0,13.0,0.0
13942,37.0,0.0,960.0,14.0,0.0
13943,73.0,240.0,960.0,1.0,0.0
13944,70.0,0.0,1920.0,1.0,0.0
13945,65.0,240.0,240.0,11.0,0.0
13946,82.0,12.0,450.0,10.0,0.0
13947,66.0,216.0,240.0,11.0,0.0
13948,65.0,12.0,240.0,11.0,0.0
13949,60.0,0.0,960.0,12.0,0.0
13950,51.0,0.0,960.0,13.0,0.0
13951,68.0,240.0,240.0,11.0,0.0
13952,72.0,0.0,1920.0,1.0,0.0
13953,54.0,240.0,960.0,2.0,0.0
13954,60.0,0.0,1920.0,2.0,0.0
13955,39.0,0.0,960.0,14.0,0.0
13956,66.0,240.0,240.0,11.0,0.0
13957,63.0,216.0,240.0,11.0,0.0
13958,72.0,12.0,450.0,10.0,0.0
13959,60.0,12.0,240.0,11.0,0.0
13960,58.0,240.0,240.0,11.0,0.0
13961,41.0,0.0,930.0,14.0,0.0
13962,57.0,0.0,960.0,2.0,0.0
13963,63.0,8.0,930.0,12.0,0.0
13964,53.0,0.0,930.0,13.0,0.0
13965,69.0,192.0,960.0,1.0,0.0
13966,57.0,240.0,240.0,11.0,0.0
13967,60.0,144.0,240.0,11.0,0.0
13968,77.0,76.0,390.0,10.0,0.0
13969,57.0,12.0,240.0,11.0,0.0
13970,46.0,96.0,390.0,13.0,0.0
13971,34.0,0.0,390.0,14.0,0.0
13972,58.0,0.0,180.0,11.0,0.0
13973,58.0,0.0,390.0,2.0,0.0
13974,61.0,144.0,480.0,12.0,0.0
13975,70.0,192.0,180.0,10.0,0.0
13976,70.0,144.0,2400.0,1.0,0.0
13977,58.0,0.0,390.0,11.0,0.0
13978,58.0,216.0,390.0,10.0,0.0
13979,46.0,0.0,120.0,12.0,0.0
13980,58.0,48.0,390.0,10.0,0.0
13981,46.0,120.0,120.0,2.0,0.0
13982,58.0,144.0,240.0,11.0,0.0
13983,48.0,0.0,120.0,12.0,0.0
13984,48.0,0.0,120.0,2.0,0.0
13985,50.0,144.0,480.0,2.0,0.0
13986,56.0,288.0,180.0,11.0,0.0
13987,50.0,0.0,480.0,12.0,0.0
13988,56.0,0.0,390.0,11.0,0.0
13989,58.0,176.0,390.0,10.0,0.0
13990,58.0,0.0,240.0,10.0,0.0
13991,56.0,144.0,240.0,11.0,0.0
13992,46.0,0.0,90.0,2.0,0.0
13993,46.0,80.0,90.0,12.0,0.0
13994,48.0,80.0,90.0,12.0,0.0
13995,48.0,0.0,90.0,2.0,0.0
13996,50.0,0.0,90.0,2.0,0.0
13997,50.0,0.0,90.0,12.0,0.0
13998,51.0,228.0,150.0,12.0,0.0
13999,51.0,0.0,480.0,2.0,0.0
14000,54.0,12.0,150.0,11.0,0.0
14001,58.0,0.0,150.0,10.0,0.0
14002,58.0,12.0,150.0,10.0,0.0
14003,54.0,0.0,150.0,11.0,0.0
14004,51.0,84.0,150.0,12.0,0.0
14005,54.0,164.0,150.0,12.0,0.0
14006,63.0,0.0,150.0,10.0,0.0
14007,72.0,0.0,480.0,1.0,0.0
14008,75.0,0.0,480.0,1.0,0.0
14009,60.0,12.0,150.0,11.0,0.0
14010,63.0,0.0,150.0,10.0,0.0
14011,48.0,0.0,90.0,13.0,0.0
14012,54.0,4.0,150.0,12.0,0.0
14013,60.0,12.0,150.0,11.0,0.0
14014,36.0,64.0,90.0,14.0,0.0
14015,48.0,0.0,90.0,2.0,0.0
14016,49.0,0.0,90.0,13.0,0.0
14017,49.0,0.0,90.0,2.0,0.0
14018,37.0,80.0,90.0,14.0,0.0
14019,51.0,144.0,90.0,13.0,0.0
14020,51.0,0.0,90.0,2.0,0.0
14021,39.0,0.0,90.0,14.0,0.0
14022,41.0,0.0,480.0,14.0,0.0
14023,61.0,12.0,150.0,10.0,0.0
14024,65.0,0.0,390.0,4.0,0.0
14025,53.0,0.0,390.0,4.0,0.0
14026,58.0,0.0,150.0,11.0,0.0
14027,53.0,0.0,480.0,2.0,0.0
14028,70.0,144.0,480.0,1.0,0.0
14029,53.0,228.0,150.0,12.0,0.0
14030,53.0,0.0,480.0,13.0,0.0
14031,41.0,0.0,390.0,3.0,0.0
14032,53.0,12.0,390.0,3.0,0.0
14033,73.0,0.0,480.0,1.0,0.0
14034,41.0,0.0,390.0,5.0,0.0
14035,61.0,0.0,150.0,10.0,0.0
14036,53.0,84.0,150.0,12.0,0.0
14037,58.0,0.0,150.0,11.0,0.0
14038,60.0,12.0,150.0,10.0,0.0
14039,53.0,0.0,150.0,11.0,0.0
14040,51.0,164.0,150.0,12.0,0.0
14041,69.0,0.0,450.0,1.0,0.0
14042,72.0,24.0,450.0,1.0,0.0
14043,41.0,64.0,90.0,2.0,0.0
14044,51.0,4.0,150.0,12.0,0.0
14045,53.0,0.0,150.0,11.0,0.0
14046,41.0,0.0,90.0,13.0,0.0
14047,60.0,12.0,150.0,10.0,0.0
14048,29.0,0.0,90.0,14.0,0.0
14049,43.0,0.0,90.0,13.0,0.0
14050,31.0,0.0,90.0,14.0,0.0
14051,43.0,56.0,90.0,2.0,0.0
14052,45.0,0.0,90.0,13.0,0.0
14053,33.0,0.0,90.0,14.0,0.0
14054,45.0,192.0,90.0,2.0,0.0
14055,70.0,0.0,390.0,4.0,0.0
14056,46.0,0.0,390.0,13.0,0.0
14057,58.0,0.0,390.0,4.0,0.0
14058,46.0,96.0,390.0,5.0,0.0
14059,49.0,144.0,480.0,12.0,0.0
14060,46.0,0.0,390.0,3.0,0.0
14061,46.0,0.0,390.0,2.0,0.0
14062,58.0,0.0,390.0,3.0,0.0
14063,53.0,192.0,180.0,11.0,0.0
14064,58.0,0.0,180.0,10.0,0.0
14065,34.0,0.0,390.0,14.0,0.0
14066,70.0,0.0,2400.0,1.0,0.0
14067,58.0,0.0,390.0,10.0,0.0
14068,58.0,216.0,390.0,11.0,0.0
14069,58.0,0.0,240.0,11.0,0.0
14070,46.0,0.0,120.0,12.0,0.0
14071,46.0,120.0,120.0,2.0,0.0
14072,58.0,48.0,390.0,10.0,0.0
14073,48.0,0.0,120.0,2.0,0.0
14074,48.0,144.0,120.0,12.0,0.0
14075,56.0,288.0,180.0,11.0,0.0
14076,50.0,0.0,480.0,2.0,0.0
14077,50.0,144.0,480.0,12.0,0.0
14078,58.0,0.0,390.0,10.0,0.0
14079,56.0,176.0,390.0,11.0,0.0
14080,56.0,0.0,240.0,11.0,0.0
14081,46.0,0.0,90.0,2.0,0.0
14082,46.0,80.0,90.0,12.0,0.0
14083,48.0,0.0,90.0,12.0,0.0
14084,48.0,80.0,90.0,2.0,0.0
14085,50.0,0.0,90.0,12.0,0.0
14086,50.0,144.0,90.0,2.0,0.0
14087,58.0,0.0,15.0,10.0,0.0
14088,51.0,144.0,480.0,2.0,0.0
14089,51.0,228.0,150.0,12.0,0.0
14090,54.0,12.0,150.0,11.0,0.0
14091,58.0,12.0,150.0,10.0,0.0
14092,51.0,84.0,150.0,12.0,0.0
14093,54.0,0.0,150.0,11.0,0.0
14094,60.0,0.0,150.0,11.0,0.0
14095,75.0,0.0,480.0,1.0,0.0
14096,72.0,0.0,480.0,1.0,0.0
14097,63.0,12.0,150.0,10.0,0.0
14098,54.0,164.0,150.0,12.0,0.0
14099,36.0,0.0,90.0,14.0,0.0
14100,60.0,0.0,150.0,11.0,0.0
14101,54.0,4.0,150.0,12.0,0.0
14102,48.0,0.0,90.0,13.0,0.0
14103,63.0,12.0,150.0,10.0,0.0
14104,48.0,64.0,90.0,2.0,0.0
14105,37.0,0.0,90.0,14.0,0.0
14106,49.0,0.0,90.0,13.0,0.0
14107,49.0,80.0,90.0,2.0,0.0
14108,39.0,0.0,90.0,14.0,0.0
14109,51.0,144.0,90.0,13.0,0.0
14110,51.0,0.0,90.0,2.0,0.0
14111,53.0,0.0,390.0,4.0,0.0
14112,65.0,0.0,390.0,4.0,0.0
14113,70.0,0.0,480.0,1.0,0.0
14114,53.0,0.0,390.0,3.0,0.0
14115,41.0,144.0,480.0,14.0,0.0
14116,53.0,228.0,150.0,12.0,0.0
14117,73.0,0.0,480.0,1.0,0.0
14118,61.0,12.0,150.0,10.0,0.0
14119,41.0,0.0,390.0,3.0,0.0
14120,58.0,0.0,150.0,11.0,0.0
14121,53.0,0.0,480.0,2.0,0.0
14122,41.0,0.0,390.0,5.0,0.0
14123,53.0,0.0,480.0,13.0,0.0
14124,53.0,84.0,150.0,12.0,0.0
14125,58.0,0.0,150.0,11.0,0.0
14126,61.0,12.0,150.0,10.0,0.0
14127,53.0,0.0,150.0,11.0,0.0
14128,72.0,24.0,450.0,1.0,0.0
14129,69.0,0.0,450.0,1.0,0.0
14130,51.0,164.0,150.0,12.0,0.0
14131,60.0,12.0,150.0,10.0,0.0
14132,41.0,64.0,90.0,13.0,0.0
14133,41.0,0.0,90.0,2.0,0.0
14134,60.0,0.0,150.0,10.0,0.0
14135,51.0,4.0,150.0,12.0,0.0
14136,53.0,12.0,150.0,11.0,0.0
14137,29.0,0.0,90.0,14.0,0.0
14138,31.0,0.0,90.0,14.0,0.0
14139,43.0,0.0,90.0,2.0,0.0
14140,43.0,56.0,90.0,13.0,0.0
14141,33.0,0.0,90.0,14.0,0.0
14142,45.0,240.0,90.0,2.0,0.0
14143,45.0,0.0,90.0,13.0,0.0
14144,70.0,0.0,390.0,4.0,0.0
14145,58.0,0.0,390.0,3.0,0.0
14146,82.0,0.0,1200.0,0.0,0.0
14147,34.0,144.0,780.0,14.0,0.0
14148,46.0,96.0,390.0,5.0,0.0
14149,58.0,0.0,1200.0,10.0,0.0
14150,46.0,0.0,780.0,13.0,0.0
14151,58.0,0.0,390.0,4.0,0.0
14152,46.0,0.0,390.0,3.0,0.0
14153,53.0,144.0,240.0,11.0,0.0
14154,49.0,0.0,240.0,12.0,0.0
14155,70.0,240.0,1200.0,1.0,0.0
14156,46.0,0.0,780.0,2.0,0.0
14157,54.0,0.0,240.0,11.0,0.0
14158,51.0,240.0,240.0,12.0,0.0
14159,53.0,0.0,240.0,11.0,0.0
14160,49.0,48.0,240.0,12.0,0.0
14161,51.0,240.0,240.0,12.0,0.0
14162,54.0,48.0,180.0,11.0,0.0
14163,53.0,240.0,1200.0,11.0,0.0
14164,49.0,0.0,240.0,12.0,0.0
14165,81.0,0.0,240.0,0.0,0.0
14166,63.0,0.0,240.0,10.0,0.0
14167,48.0,240.0,240.0,12.0,0.0
14168,75.0,0.0,240.0,1.0,0.0
14169,82.0,80.0,240.0,0.0,0.0
14170,61.0,0.0,240.0,10.0,0.0
14171,73.0,0.0,240.0,1.0,0.0
14172,46.0,0.0,240.0,12.0,0.0
14173,41.0,0.0,90.0,13.0,0.0
14174,72.0,0.0,180.0,1.0,0.0
14175,29.0,80.0,90.0,14.0,0.0
14176,81.0,0.0,180.0,0.0,0.0
14177,60.0,48.0,180.0,10.0,0.0
14178,51.0,0.0,240.0,12.0,0.0
14179,41.0,0.0,90.0,2.0,0.0
14180,31.0,32.0,90.0,14.0,0.0
14181,43.0,0.0,90.0,2.0,0.0
14182,43.0,0.0,90.0,13.0,0.0
14183,33.0,240.0,90.0,14.0,0.0
14184,45.0,0.0,90.0,13.0,0.0
14185,45.0,0.0,90.0,2.0,0.0
14186,46.0,0.0,780.0,13.0,0.0
14187,49.0,0.0,240.0,12.0,0.0
14188,58.0,240.0,1200.0,10.0,0.0
14189,46.0,0.0,780.0,2.0,0.0
14190,70.0,0.0,1200.0,1.0,0.0
14191,34.0,144.0,780.0,14.0,0.0
14192,82.0,0.0,1200.0,0.0,0.0
14193,51.0,0.0,240.0,12.0,0.0
14194,54.0,240.0,240.0,11.0,0.0
14195,49.0,0.0,240.0,12.0,0.0
14196,53.0,48.0,240.0,11.0,0.0
14197,51.0,240.0,240.0,12.0,0.0
14198,54.0,48.0,180.0,11.0,0.0
14199,53.0,0.0,1350.0,11.0,0.0
14200,49.0,0.0,240.0,12.0,0.0
14201,48.0,0.0,240.0,12.0,0.0
14202,75.0,0.0,240.0,1.0,0.0
14203,63.0,0.0,240.0,10.0,0.0
14204,81.0,240.0,240.0,0.0,0.0
14205,46.0,0.0,240.0,12.0,0.0
14206,61.0,80.0,240.0,10.0,0.0
14207,82.0,0.0,240.0,0.0,0.0
14208,73.0,0.0,240.0,1.0,0.0
14209,72.0,48.0,180.0,1.0,0.0
14210,29.0,80.0,90.0,14.0,0.0
14211,51.0,0.0,240.0,12.0,0.0
14212,81.0,0.0,180.0,0.0,0.0
14213,41.0,0.0,90.0,2.0,0.0
14214,60.0,0.0,240.0,10.0,0.0
14215,41.0,0.0,90.0,13.0,0.0
14216,43.0,32.0,90.0,13.0,0.0
14217,43.0,0.0,90.0,2.0,0.0
14218,31.0,0.0,90.0,14.0,0.0
14219,45.0,384.0,90.0,2.0,0.0
14220,45.0,0.0,90.0,13.0,0.0
14221,33.0,0.0,90.0,14.0,0.0
14222,46.0,0.0,390.0,13.0,0.0
14223,49.0,0.0,390.0,12.0,0.0
14224,58.0,0.0,390.0,10.0,0.0
14225,34.0,0.0,390.0,14.0,0.0
14226,46.0,0.0,390.0,2.0,0.0
14227,82.0,0.0,390.0,0.0,0.0
14228,70.0,960.0,390.0,1.0,0.0
14229,34.0,0.0,390.0,14.0,0.0
14230,82.0,0.0,390.0,0.0,0.0
14231,46.0,0.0,390.0,2.0,0.0
14232,49.0,0.0,390.0,12.0,0.0
14233,46.0,0.0,390.0,13.0,0.0
14234,70.0,0.0,390.0,1.0,0.0
14235,53.0,0.0,390.0,11.0,0.0
14236,58.0,960.0,390.0,10.0,0.0
14237,58.0,0.0,390.0,10.0,0.0
14238,34.0,0.0,390.0,14.0,0.0
14239,53.0,0.0,390.0,11.0,0.0
14240,49.0,0.0,390.0,12.0,0.0
14241,70.0,0.0,390.0,1.0,0.0
14242,46.0,4224.0,390.0,13.0,0.0
14243,46.0,0.0,390.0,2.0,0.0
14244,82.0,0.0,390.0,0.0,0.0
14245,24.0,0.0,780.0,14.0,0.0
