,note,step,duration,channel,velocity
0,62.0,240.0,240.0,2.0,0.0
1,57.0,120.0,240.0,2.0,0.0
2,66.0,120.0,120.0,2.0,0.0
3,62.0,120.0,120.0,2.0,0.0
4,57.0,120.0,120.0,2.0,0.0
5,54.0,240.0,120.0,2.0,0.0
6,62.0,240.0,240.0,13.0,0.0
7,50.0,120.0,480.0,2.0,0.0
8,57.0,0.0,240.0,13.0,0.0
9,66.0,120.0,120.0,13.0,0.0
10,62.0,120.0,120.0,13.0,0.0
11,57.0,120.0,120.0,13.0,0.0
12,54.0,120.0,120.0,13.0,0.0
13,50.0,30.0,1140.0,13.0,0.0
14,38.0,0.0,120.0,7.0,0.0
15,62.0,60.0,60.0,2.0,0.0
16,66.0,60.0,60.0,2.0,0.0
17,72.0,0.0,120.0,3.0,0.0
18,66.0,60.0,120.0,5.0,0.0
19,69.0,0.0,120.0,4.0,0.0
20,69.0,0.0,60.0,2.0,0.0
21,38.0,60.0,120.0,7.0,0.0
22,72.0,60.0,60.0,2.0,0.0
23,69.0,0.0,60.0,2.0,0.0
24,69.0,60.0,120.0,4.0,0.0
25,66.0,0.0,120.0,5.0,0.0
26,66.0,60.0,60.0,2.0,0.0
27,72.0,0.0,120.0,3.0,0.0
28,60.0,0.0,60.0,2.0,0.0
29,38.0,0.0,120.0,7.0,0.0
30,59.0,60.0,60.0,2.0,0.0
31,62.0,60.0,60.0,2.0,0.0
32,67.0,0.0,120.0,4.0,0.0
33,62.0,0.0,120.0,5.0,0.0
34,67.0,60.0,60.0,2.0,0.0
35,70.0,0.0,120.0,3.0,0.0
36,70.0,60.0,60.0,2.0,0.0
37,38.0,0.0,120.0,7.0,0.0
38,69.0,60.0,60.0,2.0,0.0
39,64.0,60.0,60.0,2.0,0.0
40,67.0,120.0,120.0,4.0,0.0
41,69.0,0.0,120.0,3.0,0.0
42,69.0,60.0,60.0,2.0,0.0
43,64.0,0.0,120.0,5.0,0.0
44,67.0,0.0,60.0,2.0,0.0
45,66.0,0.0,120.0,4.0,0.0
46,66.0,60.0,120.0,2.0,0.0
47,38.0,0.0,120.0,7.0,0.0
48,62.0,0.0,120.0,5.0,0.0
49,69.0,0.0,120.0,3.0,0.0
50,54.0,30.0,30.0,13.0,0.0
51,52.0,120.0,30.0,13.0,0.0
52,50.0,240.0,120.0,13.0,0.0
53,38.0,60.0,120.0,7.0,0.0
54,69.0,30.0,180.0,2.0,0.0
55,69.0,0.0,120.0,3.0,0.0
56,62.0,0.0,120.0,5.0,0.0
57,66.0,0.0,120.0,4.0,0.0
58,71.0,30.0,30.0,2.0,0.0
59,69.0,60.0,30.0,2.0,0.0
60,67.0,60.0,60.0,2.0,0.0
61,38.0,0.0,120.0,7.0,0.0
62,66.0,60.0,60.0,2.0,0.0
63,69.0,60.0,120.0,3.0,0.0
64,66.0,0.0,120.0,4.0,0.0
65,64.0,60.0,60.0,2.0,0.0
66,62.0,0.0,120.0,5.0,0.0
67,62.0,0.0,60.0,2.0,0.0
68,62.0,60.0,60.0,2.0,0.0
69,55.0,0.0,360.0,13.0,0.0
70,40.0,60.0,120.0,7.0,0.0
71,61.0,0.0,60.0,2.0,0.0
72,61.0,0.0,120.0,5.0,0.0
73,69.0,0.0,120.0,3.0,0.0
74,64.0,60.0,60.0,2.0,0.0
75,67.0,120.0,120.0,4.0,0.0
76,62.0,0.0,60.0,2.0,0.0
77,61.0,0.0,240.0,2.0,0.0
78,40.0,120.0,120.0,7.0,0.0
79,67.0,0.0,120.0,4.0,0.0
80,52.0,0.0,120.0,13.0,0.0
81,69.0,120.0,120.0,3.0,0.0
82,61.0,0.0,120.0,5.0,0.0
83,49.0,60.0,120.0,13.0,0.0
84,33.0,0.0,120.0,7.0,0.0
85,67.0,30.0,180.0,2.0,0.0
86,64.0,0.0,120.0,13.0,0.0
87,64.0,0.0,120.0,4.0,0.0
88,61.0,60.0,120.0,5.0,0.0
89,69.0,0.0,120.0,3.0,0.0
90,69.0,30.0,30.0,2.0,0.0
91,67.0,0.0,30.0,2.0,0.0
92,66.0,60.0,60.0,2.0,0.0
93,61.0,60.0,120.0,13.0,0.0
94,33.0,0.0,120.0,7.0,0.0
95,64.0,0.0,60.0,2.0,0.0
96,61.0,0.0,120.0,5.0,0.0
97,69.0,0.0,120.0,3.0,0.0
98,55.0,0.0,120.0,13.0,0.0
99,62.0,60.0,60.0,2.0,0.0
100,64.0,60.0,120.0,4.0,0.0
101,61.0,0.0,60.0,2.0,0.0
102,62.0,0.0,120.0,5.0,0.0
103,69.0,0.0,120.0,3.0,0.0
104,66.0,0.0,120.0,4.0,0.0
105,38.0,0.0,120.0,7.0,0.0
106,54.0,60.0,120.0,13.0,0.0
107,62.0,60.0,60.0,2.0,0.0
108,50.0,0.0,60.0,2.0,0.0
109,54.0,60.0,60.0,2.0,0.0
110,57.0,60.0,120.0,13.0,0.0
111,57.0,0.0,60.0,2.0,0.0
112,54.0,60.0,60.0,2.0,0.0
113,57.0,90.0,60.0,2.0,0.0
114,62.0,0.0,120.0,2.0,0.0
115,42.0,0.0,120.0,7.0,0.0
116,69.0,0.0,120.0,3.0,0.0
117,62.0,120.0,120.0,4.0,0.0
118,54.0,0.0,120.0,5.0,0.0
119,57.0,30.0,90.0,13.0,0.0
120,50.0,0.0,30.0,13.0,0.0
121,43.0,0.0,120.0,7.0,0.0
122,62.0,0.0,120.0,4.0,0.0
123,59.0,0.0,120.0,13.0,0.0
124,71.0,0.0,120.0,3.0,0.0
125,55.0,60.0,120.0,5.0,0.0
126,55.0,0.0,60.0,2.0,0.0
127,47.0,60.0,120.0,13.0,0.0
128,59.0,60.0,60.0,2.0,0.0
129,64.0,0.0,60.0,2.0,0.0
130,57.0,60.0,60.0,2.0,0.0
131,61.0,90.0,60.0,2.0,0.0
132,73.0,0.0,120.0,3.0,0.0
133,66.0,0.0,120.0,4.0,0.0
134,57.0,0.0,120.0,5.0,0.0
135,66.0,0.0,120.0,2.0,0.0
136,45.0,0.0,120.0,7.0,0.0
137,61.0,30.0,90.0,13.0,0.0
138,54.0,120.0,30.0,13.0,0.0
139,74.0,0.0,120.0,3.0,0.0
140,66.0,0.0,120.0,4.0,0.0
141,59.0,0.0,120.0,5.0,0.0
142,47.0,0.0,120.0,7.0,0.0
143,62.0,0.0,120.0,13.0,0.0
144,59.0,60.0,60.0,2.0,0.0
145,50.0,0.0,120.0,13.0,0.0
146,62.0,60.0,60.0,2.0,0.0
147,67.0,60.0,60.0,2.0,0.0
148,61.0,60.0,60.0,2.0,0.0
149,64.0,90.0,60.0,2.0,0.0
150,76.0,0.0,120.0,3.0,0.0
151,69.0,120.0,120.0,4.0,0.0
152,69.0,0.0,120.0,2.0,0.0
153,61.0,0.0,120.0,5.0,0.0
154,49.0,0.0,120.0,7.0,0.0
155,64.0,30.0,90.0,13.0,0.0
156,57.0,0.0,30.0,13.0,0.0
157,69.0,0.0,120.0,4.0,0.0
158,62.0,120.0,120.0,5.0,0.0
159,50.0,0.0,120.0,7.0,0.0
160,78.0,0.0,120.0,3.0,0.0
161,66.0,0.0,120.0,13.0,0.0
162,50.0,120.0,120.0,13.0,0.0
163,69.0,0.0,120.0,4.0,0.0
164,49.0,0.0,120.0,7.0,0.0
165,61.0,60.0,120.0,5.0,0.0
166,49.0,60.0,180.0,13.0,0.0
167,76.0,0.0,120.0,3.0,0.0
168,64.0,120.0,60.0,13.0,0.0
169,62.0,0.0,120.0,13.0,0.0
170,74.0,120.0,120.0,4.0,0.0
171,80.0,0.0,120.0,3.0,0.0
172,71.0,0.0,120.0,5.0,0.0
173,47.0,0.0,120.0,7.0,0.0
174,81.0,0.0,120.0,3.0,0.0
175,61.0,0.0,120.0,13.0,0.0
176,45.0,0.0,120.0,7.0,0.0
177,64.0,0.0,120.0,5.0,0.0
178,73.0,60.0,120.0,4.0,0.0
179,64.0,0.0,60.0,2.0,0.0
180,66.0,60.0,60.0,2.0,0.0
181,68.0,60.0,60.0,2.0,0.0
182,69.0,30.0,60.0,2.0,0.0
183,61.0,30.0,90.0,13.0,0.0
184,71.0,0.0,60.0,2.0,0.0
185,56.0,60.0,30.0,13.0,0.0
186,57.0,0.0,120.0,13.0,0.0
187,72.0,60.0,60.0,2.0,0.0
188,68.0,60.0,60.0,2.0,0.0
189,48.0,60.0,120.0,13.0,0.0
190,69.0,60.0,60.0,2.0,0.0
191,71.0,0.0,60.0,2.0,0.0
192,50.0,0.0,120.0,13.0,0.0
193,72.0,60.0,60.0,2.0,0.0
194,68.0,60.0,60.0,2.0,0.0
195,69.0,60.0,60.0,2.0,0.0
196,51.0,60.0,120.0,13.0,0.0
197,60.0,0.0,60.0,2.0,0.0
198,40.0,60.0,120.0,7.0,0.0
199,52.0,0.0,480.0,13.0,0.0
200,61.0,60.0,60.0,2.0,0.0
201,64.0,0.0,60.0,2.0,0.0
202,81.0,0.0,120.0,3.0,0.0
203,64.0,0.0,120.0,5.0,0.0
204,69.0,60.0,60.0,2.0,0.0
205,73.0,60.0,120.0,4.0,0.0
206,61.0,0.0,60.0,2.0,0.0
207,59.0,60.0,60.0,2.0,0.0
208,40.0,0.0,120.0,7.0,0.0
209,62.0,60.0,60.0,2.0,0.0
210,71.0,0.0,120.0,4.0,0.0
211,69.0,60.0,60.0,2.0,0.0
212,80.0,0.0,120.0,3.0,0.0
213,64.0,0.0,120.0,5.0,0.0
214,74.0,0.0,120.0,4.0,0.0
215,68.0,60.0,60.0,2.0,0.0
216,69.0,0.0,120.0,2.0,0.0
217,64.0,60.0,60.0,5.0,0.0
218,72.0,0.0,60.0,4.0,0.0
219,69.0,0.0,180.0,12.0,0.0
220,45.0,0.0,120.0,13.0,0.0
221,45.0,0.0,60.0,7.0,0.0
222,81.0,0.0,60.0,3.0,0.0
223,81.0,0.0,60.0,3.0,0.0
224,72.0,0.0,60.0,4.0,0.0
225,45.0,60.0,60.0,7.0,0.0
226,64.0,0.0,60.0,5.0,0.0
227,72.0,0.0,60.0,4.0,0.0
228,64.0,0.0,60.0,5.0,0.0
229,45.0,60.0,60.0,7.0,0.0
230,81.0,0.0,60.0,3.0,0.0
231,81.0,0.0,60.0,3.0,0.0
232,72.0,0.0,60.0,4.0,0.0
233,64.0,60.0,60.0,12.0,0.0
234,45.0,0.0,60.0,7.0,0.0
235,64.0,0.0,60.0,5.0,0.0
236,72.0,0.0,60.0,4.0,0.0
237,45.0,30.0,60.0,7.0,0.0
238,81.0,0.0,60.0,3.0,0.0
239,64.0,0.0,60.0,5.0,0.0
240,72.0,30.0,90.0,12.0,0.0
241,45.0,0.0,60.0,7.0,0.0
242,64.0,0.0,60.0,5.0,0.0
243,72.0,0.0,60.0,4.0,0.0
244,81.0,60.0,60.0,3.0,0.0
245,69.0,0.0,30.0,12.0,0.0
246,64.0,0.0,60.0,12.0,0.0
247,81.0,0.0,60.0,3.0,0.0
248,45.0,0.0,60.0,7.0,0.0
249,64.0,60.0,60.0,5.0,0.0
250,72.0,0.0,60.0,4.0,0.0
251,72.0,0.0,60.0,4.0,0.0
252,64.0,0.0,60.0,5.0,0.0
253,81.0,0.0,60.0,3.0,0.0
254,45.0,0.0,60.0,7.0,0.0
255,60.0,60.0,60.0,12.0,0.0
256,74.0,60.0,60.0,4.0,0.0
257,45.0,0.0,60.0,7.0,0.0
258,59.0,0.0,120.0,12.0,0.0
259,65.0,0.0,60.0,5.0,0.0
260,83.0,0.0,60.0,3.0,0.0
261,45.0,0.0,60.0,7.0,0.0
262,74.0,0.0,60.0,4.0,0.0
263,65.0,60.0,60.0,5.0,0.0
264,83.0,0.0,60.0,3.0,0.0
265,83.0,60.0,60.0,3.0,0.0
266,65.0,0.0,60.0,5.0,0.0
267,45.0,0.0,60.0,7.0,0.0
268,62.0,0.0,120.0,12.0,0.0
269,74.0,0.0,60.0,4.0,0.0
270,74.0,0.0,60.0,4.0,0.0
271,65.0,0.0,60.0,5.0,0.0
272,45.0,0.0,60.0,7.0,0.0
273,83.0,60.0,60.0,3.0,0.0
274,65.0,0.0,60.0,5.0,0.0
275,74.0,0.0,60.0,4.0,0.0
276,83.0,0.0,60.0,3.0,0.0
277,45.0,60.0,60.0,7.0,0.0
278,65.0,60.0,60.0,5.0,0.0
279,83.0,0.0,60.0,3.0,0.0
280,74.0,0.0,60.0,4.0,0.0
281,45.0,0.0,60.0,7.0,0.0
282,74.0,45.0,60.0,4.0,0.0
283,45.0,0.0,60.0,7.0,0.0
284,83.0,0.0,60.0,3.0,0.0
285,71.0,0.0,60.0,12.0,0.0
286,65.0,0.0,60.0,5.0,0.0
287,74.0,0.0,60.0,4.0,0.0
288,65.0,0.0,60.0,5.0,0.0
289,81.0,120.0,60.0,3.0,0.0
290,69.0,15.0,40.0,12.0,0.0
291,45.0,0.0,60.0,7.0,0.0
292,69.0,0.0,15.0,12.0,0.0
293,68.0,0.0,180.0,12.0,0.0
294,47.0,0.0,120.0,7.0,0.0
295,74.0,60.0,60.0,4.0,0.0
296,80.0,0.0,60.0,3.0,0.0
297,65.0,0.0,60.0,5.0,0.0
298,65.0,0.0,60.0,5.0,0.0
299,80.0,0.0,60.0,3.0,0.0
300,74.0,45.0,60.0,4.0,0.0
301,77.0,120.0,60.0,3.0,0.0
302,65.0,0.0,60.0,5.0,0.0
303,65.0,15.0,40.0,12.0,0.0
304,74.0,0.0,60.0,4.0,0.0
305,65.0,0.0,15.0,12.0,0.0
306,40.0,0.0,120.0,7.0,0.0
307,64.0,0.0,180.0,12.0,0.0
308,68.0,60.0,60.0,4.0,0.0
309,76.0,0.0,60.0,3.0,0.0
310,64.0,0.0,60.0,5.0,0.0
311,69.0,0.0,60.0,4.0,0.0
312,76.0,0.0,60.0,3.0,0.0
313,66.0,60.0,60.0,5.0,0.0
314,62.0,60.0,60.0,12.0,0.0
315,68.0,0.0,60.0,5.0,0.0
316,74.0,0.0,60.0,3.0,0.0
317,71.0,0.0,60.0,4.0,0.0
318,60.0,0.0,60.0,12.0,0.0
319,72.0,0.0,60.0,3.0,0.0
320,64.0,0.0,60.0,5.0,0.0
321,45.0,0.0,60.0,7.0,0.0
322,72.0,60.0,60.0,4.0,0.0
323,72.0,0.0,60.0,4.0,0.0
324,64.0,60.0,60.0,12.0,0.0
325,76.0,0.0,60.0,3.0,0.0
326,45.0,0.0,60.0,7.0,0.0
327,64.0,0.0,60.0,5.0,0.0
328,76.0,60.0,60.0,3.0,0.0
329,64.0,0.0,60.0,12.0,0.0
330,64.0,0.0,60.0,5.0,0.0
331,72.0,0.0,60.0,4.0,0.0
332,43.0,0.0,60.0,7.0,0.0
333,64.0,0.0,60.0,5.0,0.0
334,43.0,0.0,60.0,7.0,0.0
335,69.0,0.0,60.0,12.0,0.0
336,72.0,0.0,60.0,4.0,0.0
337,81.0,60.0,60.0,3.0,0.0
338,72.0,0.0,60.0,4.0,0.0
339,81.0,60.0,60.0,3.0,0.0
340,42.0,0.0,60.0,7.0,0.0
341,66.0,0.0,60.0,5.0,0.0
342,69.0,60.0,180.0,12.0,0.0
343,42.0,0.0,60.0,7.0,0.0
344,81.0,0.0,60.0,3.0,0.0
345,72.0,0.0,60.0,4.0,0.0
346,66.0,60.0,60.0,5.0,0.0
347,81.0,0.0,60.0,3.0,0.0
348,72.0,0.0,60.0,4.0,0.0
349,40.0,0.0,60.0,7.0,0.0
350,66.0,0.0,60.0,5.0,0.0
351,69.0,0.0,60.0,12.0,0.0
352,72.0,0.0,60.0,4.0,0.0
353,66.0,60.0,60.0,5.0,0.0
354,40.0,0.0,60.0,7.0,0.0
355,81.0,0.0,60.0,3.0,0.0
356,66.0,0.0,60.0,5.0,0.0
357,71.0,60.0,60.0,4.0,0.0
358,39.0,0.0,60.0,7.0,0.0
359,69.0,0.0,120.0,12.0,0.0
360,81.0,0.0,60.0,3.0,0.0
361,39.0,0.0,60.0,7.0,0.0
362,81.0,0.0,60.0,3.0,0.0
363,66.0,0.0,60.0,5.0,0.0
364,71.0,60.0,60.0,4.0,0.0
365,64.0,0.0,60.0,5.0,0.0
366,79.0,0.0,60.0,3.0,0.0
367,67.0,0.0,120.0,12.0,0.0
368,40.0,0.0,60.0,7.0,0.0
369,71.0,60.0,60.0,4.0,0.0
370,71.0,0.0,60.0,4.0,0.0
371,79.0,0.0,60.0,3.0,0.0
372,64.0,60.0,60.0,5.0,0.0
373,40.0,0.0,60.0,7.0,0.0
374,45.0,0.0,60.0,7.0,0.0
375,66.0,0.0,180.0,12.0,0.0
376,69.0,0.0,60.0,4.0,0.0
377,78.0,60.0,60.0,3.0,0.0
378,60.0,0.0,60.0,5.0,0.0
379,69.0,0.0,60.0,4.0,0.0
380,45.0,0.0,60.0,7.0,0.0
381,78.0,0.0,60.0,3.0,0.0
382,60.0,60.0,60.0,5.0,0.0
383,60.0,0.0,60.0,5.0,0.0
384,45.0,60.0,60.0,7.0,0.0
385,78.0,0.0,60.0,3.0,0.0
386,69.0,0.0,60.0,4.0,0.0
387,67.0,0.0,60.0,4.0,0.0
388,61.0,0.0,60.0,5.0,0.0
389,46.0,0.0,60.0,7.0,0.0
390,76.0,120.0,60.0,3.0,0.0
391,64.0,0.0,60.0,12.0,0.0
392,75.0,0.0,120.0,3.0,0.0
393,47.0,120.0,120.0,7.0,0.0
394,66.0,0.0,120.0,4.0,0.0
395,54.0,0.0,120.0,5.0,0.0
396,63.0,0.0,120.0,12.0,0.0
397,66.0,0.0,120.0,12.0,0.0
398,47.0,0.0,60.0,7.0,0.0
399,59.0,0.0,60.0,5.0,0.0
400,71.0,0.0,60.0,3.0,0.0
401,71.0,60.0,60.0,4.0,0.0
402,51.0,0.0,60.0,7.0,0.0
403,63.0,0.0,60.0,5.0,0.0
404,75.0,0.0,60.0,3.0,0.0
405,75.0,60.0,60.0,4.0,0.0
406,47.0,0.0,60.0,7.0,0.0
407,71.0,60.0,60.0,4.0,0.0
408,71.0,0.0,60.0,3.0,0.0
409,59.0,0.0,60.0,5.0,0.0
410,42.0,0.0,60.0,7.0,0.0
411,66.0,60.0,60.0,3.0,0.0
412,66.0,0.0,60.0,5.0,0.0
413,66.0,0.0,60.0,4.0,0.0
414,63.0,0.0,60.0,5.0,0.0
415,63.0,60.0,60.0,3.0,0.0
416,39.0,0.0,60.0,7.0,0.0
417,63.0,0.0,60.0,4.0,0.0
418,66.0,0.0,360.0,12.0,0.0
419,59.0,0.0,60.0,4.0,0.0
420,59.0,60.0,60.0,5.0,0.0
421,59.0,0.0,60.0,3.0,0.0
422,62.0,0.0,480.0,2.0,0.0
423,35.0,60.0,120.0,7.0,0.0
424,71.0,0.0,60.0,5.0,0.0
425,78.0,0.0,60.0,3.0,0.0
426,74.0,0.0,60.0,4.0,0.0
427,74.0,60.0,60.0,4.0,0.0
428,78.0,0.0,60.0,3.0,0.0
429,71.0,0.0,60.0,5.0,0.0
430,78.0,0.0,60.0,3.0,0.0
431,71.0,0.0,60.0,5.0,0.0
432,74.0,60.0,60.0,4.0,0.0
433,74.0,0.0,60.0,4.0,0.0
434,78.0,0.0,60.0,3.0,0.0
435,71.0,60.0,60.0,5.0,0.0
436,74.0,0.0,60.0,4.0,0.0
437,71.0,60.0,60.0,5.0,0.0
438,78.0,0.0,60.0,3.0,0.0
439,74.0,60.0,60.0,4.0,0.0
440,66.0,0.0,120.0,12.0,0.0
441,78.0,0.0,60.0,3.0,0.0
442,71.0,0.0,60.0,5.0,0.0
443,74.0,60.0,60.0,4.0,0.0
444,71.0,0.0,60.0,5.0,0.0
445,78.0,0.0,60.0,3.0,0.0
446,67.0,60.0,60.0,12.0,0.0
447,37.0,0.0,120.0,7.0,0.0
448,64.0,0.0,480.0,2.0,0.0
449,78.0,0.0,60.0,3.0,0.0
450,66.0,0.0,60.0,12.0,0.0
451,70.0,60.0,60.0,5.0,0.0
452,76.0,0.0,60.0,4.0,0.0
453,76.0,0.0,60.0,4.0,0.0
454,66.0,0.0,120.0,12.0,0.0
455,70.0,60.0,60.0,5.0,0.0
456,78.0,0.0,60.0,3.0,0.0
457,76.0,0.0,60.0,4.0,0.0
458,78.0,60.0,60.0,3.0,0.0
459,70.0,0.0,60.0,5.0,0.0
460,76.0,0.0,60.0,4.0,0.0
461,70.0,0.0,60.0,5.0,0.0
462,78.0,60.0,60.0,3.0,0.0
463,66.0,60.0,180.0,12.0,0.0
464,70.0,0.0,60.0,5.0,0.0
465,78.0,60.0,60.0,3.0,0.0
466,76.0,0.0,60.0,4.0,0.0
467,70.0,0.0,60.0,5.0,0.0
468,76.0,0.0,60.0,4.0,0.0
469,78.0,0.0,60.0,3.0,0.0
470,70.0,0.0,60.0,5.0,0.0
471,66.0,0.0,60.0,12.0,0.0
472,76.0,60.0,60.0,4.0,0.0
473,78.0,0.0,60.0,3.0,0.0
474,38.0,0.0,120.0,7.0,0.0
475,66.0,60.0,60.0,12.0,0.0
476,62.0,0.0,240.0,2.0,0.0
477,71.0,60.0,60.0,5.0,0.0
478,78.0,0.0,60.0,3.0,0.0
479,71.0,0.0,60.0,12.0,0.0
480,74.0,0.0,60.0,4.0,0.0
481,78.0,0.0,60.0,3.0,0.0
482,74.0,60.0,60.0,4.0,0.0
483,71.0,0.0,60.0,5.0,0.0
484,66.0,0.0,120.0,12.0,0.0
485,74.0,0.0,60.0,4.0,0.0
486,78.0,60.0,60.0,3.0,0.0
487,71.0,0.0,60.0,5.0,0.0
488,83.0,0.0,60.0,3.0,0.0
489,66.0,0.0,180.0,2.0,0.0
490,78.0,0.0,60.0,4.0,0.0
491,71.0,60.0,60.0,5.0,0.0
492,50.0,45.0,180.0,7.0,0.0
493,83.0,0.0,60.0,3.0,0.0
494,71.0,60.0,60.0,5.0,0.0
495,78.0,0.0,60.0,4.0,0.0
496,71.0,0.0,60.0,5.0,0.0
497,83.0,0.0,60.0,3.0,0.0
498,71.0,0.0,60.0,12.0,0.0
499,78.0,0.0,60.0,4.0,0.0
500,69.0,15.0,40.0,12.0,0.0
501,64.0,0.0,60.0,2.0,0.0
502,49.0,0.0,60.0,7.0,0.0
503,76.0,0.0,60.0,4.0,0.0
504,81.0,0.0,60.0,3.0,0.0
505,73.0,120.0,60.0,5.0,0.0
506,69.0,0.0,15.0,12.0,0.0
507,62.0,0.0,240.0,2.0,0.0
508,68.0,0.0,180.0,12.0,0.0
509,47.0,0.0,120.0,7.0,0.0
510,74.0,60.0,60.0,5.0,0.0
511,80.0,0.0,60.0,3.0,0.0
512,74.0,0.0,60.0,4.0,0.0
513,74.0,60.0,60.0,4.0,0.0
514,47.0,0.0,120.0,7.0,0.0
515,71.0,0.0,60.0,5.0,0.0
516,80.0,0.0,60.0,3.0,0.0
517,71.0,0.0,60.0,5.0,0.0
518,74.0,30.0,60.0,4.0,0.0
519,68.0,0.0,60.0,12.0,0.0
520,80.0,0.0,60.0,3.0,0.0
521,74.0,60.0,30.0,4.0,0.0
522,71.0,0.0,30.0,5.0,0.0
523,62.0,60.0,180.0,2.0,0.0
524,68.0,0.0,180.0,12.0,0.0
525,80.0,0.0,30.0,3.0,0.0
526,47.0,0.0,180.0,7.0,0.0
527,71.0,90.0,30.0,5.0,0.0
528,74.0,0.0,30.0,4.0,0.0
529,80.0,0.0,30.0,3.0,0.0
530,74.0,0.0,60.0,4.0,0.0
531,80.0,0.0,60.0,3.0,0.0
532,71.0,0.0,60.0,5.0,0.0
533,69.0,0.0,60.0,5.0,0.0
534,48.0,60.0,60.0,7.0,0.0
535,63.0,0.0,60.0,2.0,0.0
536,75.0,0.0,60.0,4.0,0.0
537,78.0,0.0,60.0,3.0,0.0
538,66.0,0.0,60.0,12.0,0.0
539,78.0,0.0,60.0,3.0,0.0
540,66.0,0.0,120.0,12.0,0.0
541,73.0,0.0,60.0,4.0,0.0
542,61.0,60.0,120.0,2.0,0.0
543,68.0,0.0,60.0,5.0,0.0
544,49.0,60.0,60.0,7.0,0.0
545,78.0,0.0,60.0,3.0,0.0
546,65.0,0.0,120.0,12.0,0.0
547,73.0,0.0,240.0,4.0,0.0
548,68.0,0.0,240.0,5.0,0.0
549,49.0,0.0,240.0,7.0,0.0
550,68.0,60.0,120.0,2.0,0.0
551,77.0,60.0,60.0,3.0,0.0
552,77.0,0.0,60.0,3.0,0.0
553,65.0,60.0,60.0,2.0,0.0
554,77.0,0.0,60.0,3.0,0.0
555,61.0,60.0,60.0,2.0,0.0
556,77.0,0.0,60.0,3.0,0.0
557,77.0,0.0,60.0,3.0,0.0
558,47.0,0.0,120.0,7.0,0.0
559,63.0,60.0,60.0,2.0,0.0
560,73.0,60.0,120.0,4.0,0.0
561,68.0,0.0,120.0,5.0,0.0
562,65.0,0.0,60.0,2.0,0.0
563,77.0,0.0,60.0,3.0,0.0
564,66.0,0.0,360.0,12.0,0.0
565,45.0,1.0,60.0,7.0,0.0
566,69.0,0.0,60.0,5.0,0.0
567,66.0,59.0,15.0,2.0,0.0
568,78.0,0.0,60.0,3.0,0.0
569,73.0,60.0,60.0,4.0,0.0
570,49.0,60.0,60.0,7.0,0.0
571,78.0,60.0,60.0,3.0,0.0
572,73.0,0.0,60.0,4.0,0.0
573,69.0,0.0,60.0,5.0,0.0
574,54.0,60.0,60.0,7.0,0.0
575,73.0,60.0,60.0,4.0,0.0
576,69.0,0.0,60.0,5.0,0.0
577,78.0,0.0,60.0,3.0,0.0
578,45.0,60.0,60.0,7.0,0.0
579,66.0,0.0,120.0,12.0,0.0
580,78.0,60.0,60.0,3.0,0.0
581,69.0,0.0,60.0,5.0,0.0
582,73.0,0.0,60.0,4.0,0.0
583,66.0,60.0,180.0,12.0,0.0
584,47.0,60.0,60.0,7.0,0.0
585,78.0,0.0,60.0,3.0,0.0
586,74.0,60.0,60.0,4.0,0.0
587,68.0,0.0,60.0,5.0,0.0
588,50.0,0.0,60.0,7.0,0.0
589,78.0,60.0,60.0,3.0,0.0
590,68.0,0.0,60.0,12.0,0.0
591,74.0,0.0,60.0,4.0,0.0
592,68.0,0.0,60.0,5.0,0.0
593,68.0,0.0,240.0,12.0,0.0
594,54.0,60.0,60.0,7.0,0.0
595,78.0,0.0,60.0,3.0,0.0
596,74.0,0.0,60.0,4.0,0.0
597,68.0,60.0,60.0,5.0,0.0
598,47.0,60.0,60.0,7.0,0.0
599,68.0,0.0,60.0,5.0,0.0
600,74.0,60.0,60.0,4.0,0.0
601,78.0,0.0,60.0,3.0,0.0
602,68.0,0.0,360.0,12.0,0.0
603,35.0,60.0,60.0,7.0,0.0
604,68.0,0.0,60.0,5.0,0.0
605,74.0,60.0,60.0,4.0,0.0
606,78.0,0.0,60.0,3.0,0.0
607,50.0,60.0,60.0,7.0,0.0
608,78.0,0.0,60.0,3.0,0.0
609,68.0,60.0,60.0,5.0,0.0
610,74.0,0.0,60.0,4.0,0.0
611,54.0,60.0,60.0,7.0,0.0
612,74.0,0.0,60.0,4.0,0.0
613,78.0,60.0,60.0,3.0,0.0
614,68.0,0.0,60.0,5.0,0.0
615,47.0,60.0,60.0,7.0,0.0
616,68.0,60.0,120.0,12.0,0.0
617,68.0,0.0,60.0,5.0,0.0
618,74.0,0.0,60.0,4.0,0.0
619,78.0,0.0,60.0,3.0,0.0
620,68.0,30.0,90.0,12.0,0.0
621,48.0,30.0,60.0,7.0,0.0
622,78.0,0.0,60.0,3.0,0.0
623,69.0,0.0,60.0,5.0,0.0
624,75.0,60.0,60.0,4.0,0.0
625,71.0,0.0,30.0,12.0,0.0
626,69.0,0.0,240.0,12.0,0.0
627,51.0,60.0,60.0,7.0,0.0
628,75.0,0.0,60.0,4.0,0.0
629,78.0,0.0,60.0,3.0,0.0
630,69.0,60.0,60.0,5.0,0.0
631,54.0,60.0,60.0,7.0,0.0
632,75.0,0.0,60.0,4.0,0.0
633,69.0,0.0,60.0,5.0,0.0
634,78.0,60.0,60.0,3.0,0.0
635,48.0,0.0,60.0,7.0,0.0
636,68.0,60.0,60.0,12.0,0.0
637,60.0,0.0,60.0,4.0,0.0
638,66.0,60.0,60.0,12.0,0.0
639,60.0,0.0,60.0,3.0,0.0
640,60.0,0.0,60.0,5.0,0.0
641,61.0,60.0,60.0,5.0,0.0
642,61.0,0.0,60.0,4.0,0.0
643,61.0,0.0,60.0,3.0,0.0
644,49.0,0.0,60.0,7.0,0.0
645,66.0,0.0,360.0,12.0,0.0
646,62.0,60.0,60.0,3.0,0.0
647,62.0,0.0,60.0,4.0,0.0
648,62.0,0.0,60.0,5.0,0.0
649,50.0,0.0,60.0,7.0,0.0
650,61.0,0.0,60.0,5.0,0.0
651,49.0,0.0,60.0,7.0,0.0
652,57.0,60.0,120.0,2.0,0.0
653,61.0,0.0,60.0,4.0,0.0
654,61.0,60.0,60.0,3.0,0.0
655,48.0,0.0,60.0,7.0,0.0
656,60.0,0.0,60.0,4.0,0.0
657,60.0,0.0,60.0,3.0,0.0
658,60.0,0.0,60.0,5.0,0.0
659,49.0,60.0,120.0,7.0,0.0
660,61.0,0.0,60.0,5.0,0.0
661,61.0,0.0,60.0,3.0,0.0
662,61.0,30.0,60.0,4.0,0.0
663,61.0,0.0,120.0,2.0,0.0
664,81.0,0.0,30.0,3.0,0.0
665,78.0,0.0,30.0,4.0,0.0
666,73.0,30.0,30.0,5.0,0.0
667,65.0,0.0,120.0,2.0,0.0
668,69.0,30.0,60.0,12.0,0.0
669,37.0,60.0,120.0,7.0,0.0
670,71.0,0.0,30.0,5.0,0.0
671,68.0,0.0,60.0,12.0,0.0
672,77.0,30.0,30.0,4.0,0.0
673,80.0,0.0,30.0,3.0,0.0
674,42.0,60.0,60.0,7.0,0.0
675,66.0,0.0,120.0,2.0,0.0
676,73.0,0.0,360.0,11.0,0.0
677,66.0,60.0,120.0,12.0,0.0
678,69.0,0.0,60.0,5.0,0.0
679,78.0,0.0,60.0,3.0,0.0
680,78.0,0.0,60.0,4.0,0.0
681,66.0,60.0,60.0,6.0,0.0
682,78.0,0.0,60.0,3.0,0.0
683,73.0,0.0,60.0,4.0,0.0
684,69.0,60.0,60.0,5.0,0.0
685,66.0,60.0,60.0,6.0,0.0
686,73.0,60.0,60.0,4.0,0.0
687,78.0,0.0,60.0,3.0,0.0
688,69.0,0.0,60.0,5.0,0.0
689,66.0,30.0,60.0,6.0,0.0
690,78.0,30.0,90.0,11.0,0.0
691,73.0,0.0,60.0,4.0,0.0
692,78.0,60.0,60.0,3.0,0.0
693,69.0,0.0,60.0,5.0,0.0
694,78.0,0.0,30.0,11.0,0.0
695,77.0,45.0,180.0,11.0,0.0
696,68.0,60.0,60.0,6.0,0.0
697,71.0,60.0,60.0,4.0,0.0
698,77.0,0.0,60.0,3.0,0.0
699,74.0,0.0,60.0,5.0,0.0
700,68.0,0.0,60.0,6.0,0.0
701,74.0,60.0,60.0,4.0,0.0
702,77.0,0.0,60.0,3.0,0.0
703,71.0,0.0,60.0,5.0,0.0
704,74.0,15.0,40.0,11.0,0.0
705,74.0,0.0,15.0,11.0,0.0
706,65.0,60.0,60.0,6.0,0.0
707,73.0,0.0,180.0,11.0,0.0
708,68.0,0.0,60.0,5.0,0.0
709,73.0,60.0,60.0,4.0,0.0
710,80.0,0.0,60.0,3.0,0.0
711,61.0,45.0,60.0,6.0,0.0
712,71.0,60.0,60.0,4.0,0.0
713,80.0,0.0,60.0,3.0,0.0
714,71.0,15.0,40.0,11.0,0.0
715,65.0,0.0,60.0,5.0,0.0
716,71.0,0.0,15.0,11.0,0.0
717,69.0,30.0,60.0,11.0,0.0
718,66.0,60.0,300.0,5.0,0.0
719,66.0,60.0,180.0,6.0,0.0
720,69.0,0.0,120.0,4.0,0.0
721,68.0,30.0,30.0,11.0,0.0
722,78.0,0.0,120.0,3.0,0.0
723,66.0,60.0,30.0,11.0,0.0
724,66.0,0.0,120.0,11.0,0.0
725,72.0,60.0,60.0,4.0,0.0
726,64.0,0.0,60.0,6.0,0.0
727,81.0,0.0,120.0,3.0,0.0
728,63.0,0.0,60.0,6.0,0.0
729,71.0,0.0,60.0,4.0,0.0
730,63.0,0.0,60.0,5.0,0.0
731,59.0,0.0,60.0,6.0,0.0
732,81.0,60.0,60.0,4.0,0.0
733,84.0,0.0,60.0,3.0,0.0
734,61.0,0.0,60.0,6.0,0.0
735,83.0,60.0,60.0,3.0,0.0
736,64.0,0.0,60.0,5.0,0.0
737,79.0,0.0,60.0,4.0,0.0
738,78.0,0.0,60.0,4.0,0.0
739,63.0,0.0,60.0,6.0,0.0
740,66.0,0.0,60.0,5.0,0.0
741,81.0,60.0,60.0,3.0,0.0
742,64.0,60.0,60.0,6.0,0.0
743,71.0,0.0,360.0,11.0,0.0
744,64.0,0.0,60.0,5.0,0.0
745,71.0,0.0,60.0,4.0,0.0
746,79.0,60.0,60.0,3.0,0.0
747,64.0,60.0,60.0,6.0,0.0
748,64.0,0.0,60.0,5.0,0.0
749,79.0,60.0,60.0,3.0,0.0
750,71.0,0.0,60.0,4.0,0.0
751,64.0,60.0,60.0,6.0,0.0
752,79.0,60.0,60.0,3.0,0.0
753,71.0,0.0,60.0,4.0,0.0
754,64.0,0.0,60.0,5.0,0.0
755,76.0,30.0,90.0,11.0,0.0
756,64.0,30.0,60.0,6.0,0.0
757,71.0,0.0,60.0,4.0,0.0
758,64.0,0.0,60.0,5.0,0.0
759,79.0,60.0,60.0,3.0,0.0
760,76.0,0.0,30.0,11.0,0.0
761,66.0,60.0,60.0,6.0,0.0
762,75.0,0.0,180.0,11.0,0.0
763,66.0,0.0,60.0,5.0,0.0
764,75.0,60.0,60.0,4.0,0.0
765,81.0,0.0,60.0,3.0,0.0
766,66.0,45.0,60.0,6.0,0.0
767,81.0,0.0,60.0,3.0,0.0
768,66.0,0.0,60.0,5.0,0.0
769,75.0,0.0,60.0,4.0,0.0
770,72.0,15.0,40.0,11.0,0.0
771,72.0,60.0,15.0,11.0,0.0
772,71.0,0.0,180.0,11.0,0.0
773,63.0,60.0,60.0,6.0,0.0
774,81.0,0.0,60.0,3.0,0.0
775,78.0,60.0,60.0,4.0,0.0
776,63.0,0.0,60.0,5.0,0.0
777,59.0,60.0,60.0,6.0,0.0
778,81.0,0.0,60.0,3.0,0.0
779,59.0,60.0,60.0,5.0,0.0
780,69.0,0.0,60.0,11.0,0.0
781,78.0,0.0,60.0,4.0,0.0
782,67.0,0.0,60.0,11.0,0.0
783,64.0,60.0,60.0,6.0,0.0
784,71.0,0.0,60.0,4.0,0.0
785,64.0,0.0,60.0,5.0,0.0
786,71.0,0.0,60.0,11.0,0.0
787,79.0,60.0,60.0,3.0,0.0
788,76.0,30.0,90.0,11.0,0.0
789,55.0,30.0,60.0,6.0,0.0
790,88.0,0.0,60.0,3.0,0.0
791,71.0,60.0,60.0,4.0,0.0
792,55.0,0.0,60.0,5.0,0.0
793,74.0,0.0,30.0,11.0,0.0
794,73.0,30.0,90.0,11.0,0.0
795,57.0,30.0,60.0,6.0,0.0
796,57.0,60.0,60.0,5.0,0.0
797,85.0,0.0,60.0,3.0,0.0
798,67.0,0.0,60.0,4.0,0.0
799,71.0,0.0,30.0,11.0,0.0
800,69.0,0.0,60.0,11.0,0.0
801,61.0,60.0,60.0,6.0,0.0
802,67.0,0.0,60.0,11.0,0.0
803,61.0,0.0,60.0,5.0,0.0
804,79.0,0.0,60.0,3.0,0.0
805,64.0,60.0,60.0,4.0,0.0
806,50.0,60.0,60.0,7.0,0.0
807,81.0,0.0,360.0,10.0,0.0
808,66.0,60.0,120.0,11.0,0.0
809,78.0,0.0,60.0,3.0,0.0
810,62.0,0.0,60.0,5.0,0.0
811,62.0,0.0,60.0,4.0,0.0
812,69.0,0.0,120.0,11.0,0.0
813,50.0,60.0,60.0,7.0,0.0
814,66.0,60.0,60.0,4.0,0.0
815,62.0,0.0,60.0,5.0,0.0
816,81.0,0.0,60.0,3.0,0.0
817,50.0,60.0,60.0,7.0,0.0
818,66.0,60.0,60.0,4.0,0.0
819,62.0,0.0,60.0,5.0,0.0
820,81.0,0.0,60.0,3.0,0.0
821,78.0,0.0,60.0,10.0,0.0
822,50.0,45.0,60.0,7.0,0.0
823,62.0,0.0,60.0,5.0,0.0
824,66.0,60.0,60.0,4.0,0.0
825,74.0,15.0,40.0,10.0,0.0
826,86.0,0.0,60.0,3.0,0.0
827,74.0,0.0,15.0,10.0,0.0
828,73.0,60.0,180.0,10.0,0.0
829,52.0,60.0,60.0,7.0,0.0
830,85.0,60.0,60.0,3.0,0.0
831,67.0,0.0,60.0,4.0,0.0
832,64.0,0.0,60.0,5.0,0.0
833,52.0,0.0,60.0,7.0,0.0
834,64.0,0.0,60.0,5.0,0.0
835,86.0,0.0,60.0,3.0,0.0
836,67.0,0.0,60.0,4.0,0.0
837,74.0,60.0,60.0,10.0,0.0
838,49.0,60.0,60.0,7.0,0.0
839,76.0,0.0,180.0,10.0,0.0
840,61.0,0.0,60.0,5.0,0.0
841,67.0,60.0,60.0,4.0,0.0
842,88.0,0.0,60.0,3.0,0.0
843,45.0,60.0,60.0,7.0,0.0
844,79.0,0.0,60.0,10.0,0.0
845,64.0,60.0,60.0,4.0,0.0
846,79.0,0.0,60.0,3.0,0.0
847,57.0,0.0,60.0,5.0,0.0
848,77.0,0.0,60.0,10.0,0.0
849,50.0,60.0,60.0,7.0,0.0
850,69.0,0.0,60.0,5.0,0.0
851,78.0,0.0,60.0,3.0,0.0
852,62.0,60.0,60.0,4.0,0.0
853,78.0,0.0,60.0,10.0,0.0
854,50.0,60.0,60.0,7.0,0.0
855,78.0,0.0,120.0,10.0,0.0
856,78.0,60.0,60.0,3.0,0.0
857,74.0,0.0,60.0,5.0,0.0
858,69.0,0.0,60.0,4.0,0.0
859,50.0,60.0,60.0,7.0,0.0
860,74.0,0.0,60.0,5.0,0.0
861,69.0,60.0,60.0,4.0,0.0
862,78.0,0.0,60.0,3.0,0.0
863,74.0,0.0,60.0,10.0,0.0
864,50.0,45.0,60.0,7.0,0.0
865,78.0,0.0,60.0,3.0,0.0
866,69.0,0.0,60.0,4.0,0.0
867,81.0,15.0,40.0,10.0,0.0
868,74.0,0.0,60.0,5.0,0.0
869,81.0,60.0,15.0,10.0,0.0
870,80.0,60.0,180.0,10.0,0.0
871,46.0,60.0,60.0,7.0,0.0
872,80.0,0.0,60.0,3.0,0.0
873,62.0,0.0,60.0,5.0,0.0
874,74.0,60.0,60.0,4.0,0.0
875,46.0,0.0,60.0,7.0,0.0
876,74.0,60.0,60.0,4.0,0.0
877,77.0,0.0,60.0,10.0,0.0
878,80.0,0.0,60.0,3.0,0.0
879,65.0,0.0,60.0,5.0,0.0
880,77.0,30.0,60.0,10.0,0.0
881,46.0,0.0,60.0,7.0,0.0
882,79.0,30.0,30.0,10.0,0.0
883,80.0,0.0,60.0,3.0,0.0
884,74.0,60.0,60.0,4.0,0.0
885,65.0,0.0,60.0,5.0,0.0
886,77.0,0.0,30.0,10.0,0.0
887,46.0,60.0,60.0,7.0,0.0
888,76.0,0.0,60.0,10.0,0.0
889,74.0,120.0,60.0,4.0,0.0
890,62.0,0.0,60.0,5.0,0.0
891,80.0,0.0,60.0,3.0,0.0
892,74.0,0.0,60.0,10.0,0.0
893,45.0,0.0,120.0,7.0,0.0
894,73.0,0.0,120.0,4.0,0.0
895,73.0,0.0,120.0,10.0,0.0
896,64.0,0.0,120.0,5.0,0.0
897,81.0,120.0,120.0,3.0,0.0
898,76.0,0.0,120.0,10.0,0.0
899,69.0,60.0,60.0,3.0,0.0
900,69.0,0.0,60.0,4.0,0.0
901,68.0,60.0,60.0,4.0,0.0
902,71.0,0.0,60.0,3.0,0.0
903,67.0,0.0,60.0,4.0,0.0
904,73.0,60.0,60.0,3.0,0.0
905,66.0,0.0,60.0,4.0,0.0
906,74.0,60.0,60.0,3.0,0.0
907,76.0,0.0,60.0,3.0,0.0
908,64.0,120.0,60.0,4.0,0.0
909,78.0,0.0,120.0,3.0,0.0
910,69.0,0.0,120.0,5.0,0.0
911,50.0,120.0,120.0,7.0,0.0
912,62.0,0.0,120.0,4.0,0.0
913,78.0,120.0,120.0,10.0,0.0
914,78.0,0.0,120.0,3.0,0.0
915,49.0,0.0,120.0,7.0,0.0
916,76.0,120.0,120.0,4.0,0.0
917,70.0,0.0,120.0,5.0,0.0
918,78.0,120.0,120.0,10.0,0.0
919,78.0,0.0,120.0,3.0,0.0
920,74.0,120.0,120.0,4.0,0.0
921,47.0,0.0,120.0,7.0,0.0
922,71.0,0.0,120.0,5.0,0.0
923,78.0,0.0,120.0,10.0,0.0
924,44.0,0.0,120.0,7.0,0.0
925,83.0,240.0,120.0,3.0,0.0
926,83.0,0.0,120.0,10.0,0.0
927,74.0,0.0,120.0,5.0,0.0
928,76.0,0.0,120.0,4.0,0.0
929,68.0,0.0,120.0,6.0,0.0
930,71.0,0.0,120.0,5.0,0.0
931,74.0,120.0,120.0,4.0,0.0
932,76.0,0.0,240.0,3.0,0.0
933,67.0,0.0,120.0,6.0,0.0
934,69.0,0.0,240.0,5.0,0.0
935,76.0,0.0,120.0,10.0,0.0
936,73.0,120.0,120.0,4.0,0.0
937,66.0,240.0,120.0,6.0,0.0
938,81.0,0.0,120.0,3.0,0.0
939,74.0,0.0,120.0,4.0,0.0
940,81.0,0.0,120.0,10.0,0.0
941,74.0,0.0,240.0,3.0,0.0
942,66.0,120.0,120.0,6.0,0.0
943,72.0,0.0,120.0,4.0,0.0
944,69.0,0.0,120.0,5.0,0.0
945,67.0,0.0,120.0,5.0,0.0
946,67.0,120.0,120.0,6.0,0.0
947,71.0,0.0,120.0,4.0,0.0
948,79.0,0.0,240.0,3.0,0.0
949,67.0,0.0,120.0,5.0,0.0
950,64.0,0.0,240.0,6.0,0.0
951,71.0,120.0,120.0,4.0,0.0
952,69.0,0.0,240.0,5.0,0.0
953,73.0,120.0,120.0,4.0,0.0
954,62.0,0.0,120.0,6.0,0.0
955,78.0,120.0,120.0,3.0,0.0
956,74.0,0.0,120.0,4.0,0.0
957,43.0,60.0,120.0,7.0,0.0
958,76.0,0.0,180.0,3.0,0.0
959,74.0,0.0,360.0,4.0,0.0
960,71.0,30.0,180.0,5.0,0.0
961,43.0,120.0,120.0,7.0,0.0
962,69.0,30.0,30.0,5.0,0.0
963,78.0,0.0,30.0,3.0,0.0
964,67.0,0.0,30.0,5.0,0.0
965,79.0,0.0,30.0,3.0,0.0
966,74.0,0.0,120.0,3.0,0.0
967,74.0,120.0,120.0,10.0,0.0
968,66.0,0.0,120.0,5.0,0.0
969,45.0,0.0,120.0,7.0,0.0
970,67.0,0.0,120.0,5.0,0.0
971,45.0,180.0,120.0,7.0,0.0
972,76.0,0.0,120.0,10.0,0.0
973,73.0,0.0,120.0,4.0,0.0
974,76.0,0.0,120.0,3.0,0.0
975,67.0,0.0,240.0,5.0,0.0
976,76.0,0.0,180.0,3.0,0.0
977,45.0,120.0,240.0,7.0,0.0
978,73.0,0.0,240.0,4.0,0.0
979,76.0,60.0,180.0,10.0,0.0
980,77.0,0.0,60.0,3.0,0.0
981,77.0,0.0,60.0,10.0,0.0
982,66.0,0.0,120.0,5.0,0.0
983,38.0,0.0,120.0,7.0,0.0
984,74.0,0.0,120.0,4.0,0.0
985,78.0,0.0,120.0,3.0,0.0
986,78.0,240.0,120.0,10.0,0.0
987,66.0,0.0,120.0,1.0,0.0
988,81.0,0.0,120.0,10.0,0.0
989,81.0,0.0,120.0,0.0,0.0
990,66.0,0.0,120.0,13.0,0.0
991,74.0,0.0,120.0,0.0,0.0
992,74.0,120.0,120.0,11.0,0.0
993,69.0,0.0,120.0,1.0,0.0
994,69.0,0.0,120.0,12.0,0.0
995,81.0,0.0,120.0,3.0,0.0
996,74.0,0.0,120.0,5.0,0.0
997,54.0,15.0,120.0,7.0,0.0
998,78.0,105.0,120.0,4.0,0.0
999,81.0,0.0,120.0,0.0,0.0
1000,72.0,0.0,120.0,11.0,0.0
1001,81.0,0.0,120.0,10.0,0.0
1002,64.0,0.0,120.0,1.0,0.0
1003,64.0,120.0,120.0,13.0,0.0
1004,72.0,0.0,120.0,0.0,0.0
1005,67.0,0.0,120.0,1.0,0.0
1006,78.0,0.0,120.0,4.0,0.0
1007,67.0,0.0,120.0,12.0,0.0
1008,81.0,120.0,120.0,3.0,0.0
1009,52.0,0.0,120.0,7.0,0.0
1010,72.0,0.0,120.0,5.0,0.0
1011,78.0,0.0,120.0,4.0,0.0
1012,66.0,0.0,120.0,1.0,0.0
1013,71.0,0.0,240.0,5.0,0.0
1014,63.0,0.0,120.0,1.0,0.0
1015,81.0,0.0,120.0,0.0,0.0
1016,81.0,0.0,120.0,10.0,0.0
1017,81.0,0.0,120.0,3.0,0.0
1018,66.0,0.0,120.0,12.0,0.0
1019,51.0,0.0,120.0,7.0,0.0
1020,63.0,60.0,120.0,13.0,0.0
1021,71.0,0.0,120.0,11.0,0.0
1022,71.0,0.0,120.0,0.0,0.0
1023,64.0,0.0,120.0,13.0,0.0
1024,52.0,0.0,60.0,7.0,0.0
1025,64.0,0.0,120.0,12.0,0.0
1026,80.0,0.0,120.0,10.0,0.0
1027,76.0,0.0,120.0,4.0,0.0
1028,64.0,120.0,120.0,1.0,0.0
1029,71.0,0.0,120.0,0.0,0.0
1030,80.0,0.0,120.0,0.0,0.0
1031,71.0,0.0,120.0,11.0,0.0
1032,80.0,60.0,60.0,3.0,0.0
1033,83.0,0.0,30.0,3.0,0.0
1034,87.0,60.0,120.0,3.0,0.0
1035,88.0,60.0,60.0,3.0,0.0
1036,76.0,120.0,30.0,3.0,0.0
1037,64.0,0.0,120.0,1.0,0.0
1038,58.0,60.0,120.0,13.0,0.0
1039,64.0,0.0,120.0,5.0,0.0
1040,79.0,0.0,120.0,10.0,0.0
1041,79.0,0.0,120.0,3.0,0.0
1042,64.0,0.0,120.0,12.0,0.0
1043,73.0,0.0,120.0,4.0,0.0
1044,58.0,0.0,120.0,1.0,0.0
1045,79.0,0.0,120.0,0.0,0.0
1046,73.0,0.0,120.0,0.0,0.0
1047,46.0,0.0,120.0,7.0,0.0
1048,73.0,0.0,120.0,11.0,0.0
1049,74.0,0.0,120.0,0.0,0.0
1050,62.0,0.0,120.0,5.0,0.0
1051,47.0,60.0,60.0,7.0,0.0
1052,78.0,0.0,120.0,10.0,0.0
1053,62.0,0.0,120.0,12.0,0.0
1054,78.0,0.0,120.0,0.0,0.0
1055,59.0,120.0,120.0,13.0,0.0
1056,74.0,0.0,120.0,4.0,0.0
1057,78.0,0.0,60.0,3.0,0.0
1058,74.0,0.0,120.0,11.0,0.0
1059,62.0,0.0,120.0,1.0,0.0
1060,59.0,0.0,120.0,1.0,0.0
1061,78.0,0.0,30.0,3.0,0.0
1062,85.0,60.0,120.0,3.0,0.0
1063,86.0,60.0,60.0,3.0,0.0
1064,74.0,120.0,30.0,3.0,0.0
1065,43.0,0.0,480.0,7.0,0.0
1066,83.0,30.0,270.0,3.0,0.0
1067,63.0,0.0,60.0,1.0,0.0
1068,59.0,0.0,60.0,1.0,0.0
1069,63.0,60.0,60.0,4.0,0.0
1070,59.0,0.0,60.0,5.0,0.0
1071,64.0,60.0,60.0,1.0,0.0
1072,61.0,0.0,60.0,1.0,0.0
1073,61.0,0.0,60.0,5.0,0.0
1074,64.0,0.0,60.0,4.0,0.0
1075,63.0,0.0,60.0,5.0,0.0
1076,66.0,30.0,60.0,1.0,0.0
1077,66.0,0.0,60.0,4.0,0.0
1078,63.0,0.0,60.0,1.0,0.0
1079,67.0,0.0,180.0,1.0,0.0
1080,64.0,0.0,180.0,5.0,0.0
1081,67.0,0.0,180.0,4.0,0.0
1082,64.0,30.0,180.0,1.0,0.0
1083,85.0,30.0,30.0,3.0,0.0
1084,86.0,30.0,30.0,3.0,0.0
1085,82.0,30.0,30.0,3.0,0.0
1086,83.0,30.0,30.0,3.0,0.0
1087,78.0,0.0,30.0,3.0,0.0
1088,67.0,0.0,60.0,1.0,0.0
1089,71.0,0.0,60.0,1.0,0.0
1090,71.0,60.0,60.0,4.0,0.0
1091,67.0,0.0,60.0,5.0,0.0
1092,79.0,30.0,30.0,3.0,0.0
1093,76.0,0.0,30.0,3.0,0.0
1094,45.0,0.0,60.0,7.0,0.0
1095,69.0,0.0,60.0,1.0,0.0
1096,66.0,0.0,60.0,1.0,0.0
1097,69.0,180.0,60.0,4.0,0.0
1098,74.0,0.0,60.0,3.0,0.0
1099,66.0,0.0,60.0,5.0,0.0
1100,62.0,0.0,120.0,5.0,0.0
1101,74.0,0.0,240.0,10.0,0.0
1102,66.0,0.0,240.0,12.0,0.0
1103,66.0,0.0,120.0,4.0,0.0
1104,66.0,0.0,120.0,1.0,0.0
1105,45.0,120.0,120.0,7.0,0.0
1106,69.0,0.0,240.0,11.0,0.0
1107,74.0,0.0,240.0,3.0,0.0
1108,62.0,0.0,120.0,1.0,0.0
1109,57.0,0.0,240.0,13.0,0.0
1110,69.0,0.0,240.0,0.0,0.0
1111,74.0,0.0,240.0,0.0,0.0
1112,69.0,120.0,120.0,4.0,0.0
1113,45.0,0.0,120.0,7.0,0.0
1114,69.0,0.0,120.0,1.0,0.0
1115,66.0,0.0,120.0,1.0,0.0
1116,66.0,0.0,120.0,5.0,0.0
1117,67.0,0.0,120.0,4.0,0.0
1118,67.0,0.0,120.0,0.0,0.0
1119,57.0,0.0,120.0,13.0,0.0
1120,73.0,0.0,120.0,3.0,0.0
1121,45.0,0.0,120.0,7.0,0.0
1122,67.0,0.0,120.0,11.0,0.0
1123,73.0,0.0,120.0,10.0,0.0
1124,64.0,0.0,120.0,12.0,0.0
1125,64.0,0.0,120.0,5.0,0.0
1126,73.0,0.0,120.0,0.0,0.0
1127,64.0,0.0,120.0,1.0,0.0
1128,67.0,180.0,120.0,1.0,0.0
1129,79.0,0.0,180.0,3.0,0.0
1130,73.0,0.0,180.0,11.0,0.0
1131,79.0,0.0,180.0,10.0,0.0
1132,64.0,0.0,180.0,12.0,0.0
1133,73.0,0.0,180.0,0.0,0.0
1134,67.0,60.0,180.0,0.0,0.0
1135,58.0,0.0,180.0,13.0,0.0
1136,46.0,0.0,180.0,7.0,0.0
1137,73.0,0.0,180.0,4.0,0.0
1138,67.0,0.0,180.0,1.0,0.0
1139,64.0,0.0,180.0,1.0,0.0
1140,64.0,0.0,180.0,5.0,0.0
1141,59.0,0.0,60.0,13.0,0.0
1142,74.0,0.0,60.0,0.0,0.0
1143,78.0,0.0,60.0,3.0,0.0
1144,62.0,0.0,60.0,5.0,0.0
1145,74.0,0.0,60.0,11.0,0.0
1146,62.0,0.0,60.0,1.0,0.0
1147,66.0,0.0,60.0,1.0,0.0
1148,62.0,0.0,60.0,12.0,0.0
1149,74.0,0.0,60.0,4.0,0.0
1150,78.0,60.0,60.0,10.0,0.0
1151,66.0,0.0,60.0,0.0,0.0
1152,47.0,0.0,60.0,7.0,0.0
1153,62.0,0.0,120.0,12.0,0.0
1154,66.0,0.0,120.0,0.0,0.0
1155,74.0,0.0,120.0,0.0,0.0
1156,62.0,0.0,120.0,1.0,0.0
1157,59.0,240.0,120.0,13.0,0.0
1158,74.0,0.0,60.0,4.0,0.0
1159,66.0,0.0,120.0,1.0,0.0
1160,74.0,0.0,120.0,11.0,0.0
1161,62.0,0.0,60.0,5.0,0.0
1162,78.0,0.0,60.0,3.0,0.0
1163,78.0,0.0,120.0,10.0,0.0
1164,47.0,60.0,60.0,7.0,0.0
1165,64.0,0.0,120.0,1.0,0.0
1166,68.0,0.0,120.0,1.0,0.0
1167,52.0,0.0,120.0,7.0,0.0
1168,71.0,0.0,120.0,0.0,0.0
1169,74.0,0.0,120.0,0.0,0.0
1170,76.0,0.0,120.0,3.0,0.0
1171,71.0,0.0,120.0,4.0,0.0
1172,74.0,0.0,120.0,4.0,0.0
1173,80.0,0.0,120.0,4.0,0.0
1174,52.0,120.0,120.0,5.0,0.0
1175,64.0,0.0,120.0,5.0,0.0
1176,86.0,0.0,120.0,3.0,0.0
1177,68.0,0.0,120.0,3.0,0.0
1178,80.0,60.0,120.0,10.0,0.0
1179,64.0,0.0,120.0,13.0,0.0
1180,74.0,0.0,120.0,11.0,0.0
1181,71.0,0.0,120.0,12.0,0.0
1182,88.0,60.0,60.0,3.0,0.0
1183,64.0,0.0,120.0,1.0,0.0
1184,62.0,0.0,120.0,1.0,0.0
1185,50.0,0.0,120.0,7.0,0.0
1186,64.0,0.0,120.0,5.0,0.0
1187,71.0,0.0,120.0,0.0,0.0
1188,68.0,120.0,120.0,0.0,0.0
1189,71.0,0.0,120.0,4.0,0.0
1190,80.0,0.0,60.0,3.0,0.0
1191,80.0,0.0,120.0,10.0,0.0
1192,64.0,0.0,120.0,12.0,0.0
1193,71.0,0.0,120.0,11.0,0.0
1194,62.0,120.0,120.0,13.0,0.0
1195,81.0,0.0,120.0,10.0,0.0
1196,49.0,0.0,360.0,7.0,0.0
1197,69.0,0.0,120.0,11.0,0.0
1198,64.0,0.0,120.0,12.0,0.0
1199,61.0,60.0,120.0,13.0,0.0
1200,81.0,0.0,60.0,3.0,0.0
1201,69.0,0.0,360.0,5.0,0.0
1202,61.0,0.0,120.0,13.0,0.0
1203,76.0,0.0,240.0,4.0,0.0
1204,88.0,60.0,60.0,3.0,0.0
1205,79.0,0.0,120.0,10.0,0.0
1206,73.0,60.0,120.0,0.0,0.0
1207,64.0,0.0,120.0,1.0,0.0
1208,64.0,0.0,120.0,12.0,0.0
1209,61.0,0.0,120.0,1.0,0.0
1210,69.0,0.0,120.0,11.0,0.0
1211,76.0,0.0,120.0,0.0,0.0
1212,85.0,0.0,60.0,3.0,0.0
1213,64.0,0.0,120.0,1.0,0.0
1214,67.0,0.0,120.0,1.0,0.0
1215,79.0,0.0,120.0,0.0,0.0
1216,76.0,0.0,120.0,0.0,0.0
1217,81.0,60.0,60.0,3.0,0.0
1218,79.0,60.0,60.0,3.0,0.0
1219,62.0,0.0,120.0,12.0,0.0
1220,78.0,60.0,60.0,3.0,0.0
1221,62.0,120.0,120.0,1.0,0.0
1222,74.0,0.0,120.0,4.0,0.0
1223,50.0,0.0,120.0,7.0,0.0
1224,78.0,0.0,120.0,10.0,0.0
1225,66.0,0.0,120.0,1.0,0.0
1226,78.0,0.0,120.0,0.0,0.0
1227,69.0,0.0,120.0,11.0,0.0
1228,62.0,0.0,120.0,13.0,0.0
1229,74.0,0.0,120.0,0.0,0.0
1230,86.0,0.0,60.0,3.0,0.0
1231,62.0,0.0,240.0,1.0,0.0
1232,55.0,0.0,240.0,1.0,0.0
1233,43.0,0.0,120.0,7.0,0.0
1234,67.0,0.0,240.0,0.0,0.0
1235,62.0,0.0,120.0,12.0,0.0
1236,67.0,60.0,120.0,11.0,0.0
1237,83.0,0.0,120.0,10.0,0.0
1238,55.0,0.0,120.0,13.0,0.0
1239,74.0,0.0,240.0,0.0,0.0
1240,74.0,60.0,120.0,4.0,0.0
1241,67.0,0.0,120.0,5.0,0.0
1242,83.0,0.0,120.0,3.0,0.0
1243,43.0,0.0,120.0,7.0,0.0
1244,62.0,0.0,120.0,12.0,0.0
1245,83.0,60.0,120.0,10.0,0.0
1246,55.0,0.0,120.0,13.0,0.0
1247,71.0,0.0,120.0,11.0,0.0
1248,71.0,60.0,120.0,5.0,0.0
1249,83.0,0.0,120.0,3.0,0.0
1250,74.0,0.0,120.0,4.0,0.0
1251,56.0,60.0,120.0,13.0,0.0
1252,71.0,0.0,240.0,0.0,0.0
1253,74.0,0.0,120.0,11.0,0.0
1254,64.0,0.0,120.0,1.0,0.0
1255,76.0,0.0,120.0,0.0,0.0
1256,83.0,0.0,120.0,10.0,0.0
1257,44.0,0.0,120.0,7.0,0.0
1258,64.0,0.0,120.0,12.0,0.0
1259,56.0,0.0,240.0,1.0,0.0
1260,71.0,0.0,120.0,5.0,0.0
1261,76.0,0.0,120.0,4.0,0.0
1262,86.0,60.0,120.0,3.0,0.0
1263,77.0,0.0,120.0,0.0,0.0
1264,44.0,0.0,120.0,7.0,0.0
1265,74.0,0.0,120.0,11.0,0.0
1266,65.0,0.0,120.0,12.0,0.0
1267,83.0,0.0,120.0,10.0,0.0
1268,65.0,60.0,120.0,1.0,0.0
1269,56.0,0.0,120.0,13.0,0.0
1270,86.0,0.0,120.0,3.0,0.0
1271,77.0,0.0,60.0,4.0,0.0
1272,71.0,0.0,60.0,5.0,0.0
1273,74.0,0.0,360.0,10.0,0.0
1274,57.0,0.0,480.0,13.0,0.0
1275,66.0,0.0,360.0,1.0,0.0
1276,69.0,0.0,360.0,11.0,0.0
1277,57.0,60.0,120.0,1.0,0.0
1278,45.0,0.0,120.0,7.0,0.0
1279,78.0,0.0,60.0,4.0,0.0
1280,69.0,0.0,120.0,0.0,0.0
1281,78.0,0.0,120.0,0.0,0.0
1282,69.0,60.0,60.0,5.0,0.0
1283,66.0,60.0,360.0,12.0,0.0
1284,74.0,0.0,120.0,3.0,0.0
1285,74.0,60.0,120.0,4.0,0.0
1286,66.0,0.0,120.0,5.0,0.0
1287,74.0,0.0,240.0,0.0,0.0
1288,45.0,60.0,120.0,7.0,0.0
1289,57.0,0.0,120.0,1.0,0.0
1290,69.0,0.0,240.0,0.0,0.0
1291,74.0,60.0,120.0,4.0,0.0
1292,66.0,0.0,120.0,5.0,0.0
1293,74.0,0.0,120.0,3.0,0.0
1294,45.0,0.0,120.0,7.0,0.0
1295,57.0,0.0,120.0,1.0,0.0
1296,66.0,0.0,60.0,5.0,0.0
1297,74.0,0.0,120.0,4.0,0.0
1298,74.0,0.0,60.0,3.0,0.0
1299,61.0,60.0,120.0,1.0,0.0
1300,78.0,0.0,60.0,10.0,0.0
1301,69.0,60.0,60.0,1.0,0.0
1302,45.0,0.0,120.0,7.0,0.0
1303,67.0,0.0,120.0,0.0,0.0
1304,69.0,0.0,60.0,12.0,0.0
1305,78.0,0.0,60.0,3.0,0.0
1306,73.0,0.0,120.0,11.0,0.0
1307,69.0,0.0,60.0,5.0,0.0
1308,78.0,0.0,60.0,0.0,0.0
1309,76.0,0.0,60.0,3.0,0.0
1310,73.0,0.0,60.0,4.0,0.0
1311,76.0,0.0,60.0,10.0,0.0
1312,76.0,0.0,60.0,0.0,0.0
1313,67.0,0.0,60.0,12.0,0.0
1314,67.0,0.0,60.0,5.0,0.0
1315,67.0,0.0,60.0,1.0,0.0
1316,74.0,0.0,120.0,11.0,0.0
1317,62.0,0.0,120.0,1.0,0.0
1318,66.0,0.0,120.0,1.0,0.0
1319,74.0,0.0,60.0,4.0,0.0
1320,74.0,0.0,120.0,10.0,0.0
1321,50.0,0.0,120.0,7.0,0.0
1322,66.0,0.0,120.0,5.0,0.0
1323,74.0,60.0,60.0,3.0,0.0
1324,66.0,60.0,120.0,12.0,0.0
1325,74.0,0.0,120.0,0.0,0.0
1326,66.0,0.0,120.0,0.0,0.0
1327,50.0,0.0,120.0,13.0,0.0
1328,66.0,0.0,60.0,4.0,0.0
1329,69.0,0.0,60.0,3.0,0.0
1330,69.0,0.0,60.0,4.0,0.0
1331,78.0,60.0,60.0,3.0,0.0
1332,66.0,0.0,60.0,4.0,0.0
1333,69.0,120.0,60.0,3.0,0.0
1334,67.0,0.0,120.0,1.0,0.0
1335,64.0,0.0,120.0,1.0,0.0
1336,45.0,0.0,120.0,7.0,0.0
1337,61.0,0.0,120.0,5.0,0.0
1338,73.0,0.0,120.0,0.0,0.0
1339,67.0,0.0,120.0,0.0,0.0
1340,64.0,0.0,60.0,4.0,0.0
1341,67.0,60.0,60.0,3.0,0.0
1342,76.0,0.0,60.0,3.0,0.0
1343,67.0,60.0,60.0,4.0,0.0
1344,64.0,0.0,60.0,4.0,0.0
1345,67.0,240.0,60.0,3.0,0.0
1346,64.0,0.0,240.0,4.0,0.0
1347,67.0,0.0,240.0,3.0,0.0
1348,67.0,0.0,240.0,1.0,0.0
1349,73.0,0.0,240.0,0.0,0.0
1350,38.0,0.0,360.0,7.0,0.0
1351,76.0,0.0,240.0,0.0,0.0
1352,61.0,0.0,240.0,5.0,0.0
1353,64.0,120.0,240.0,1.0,0.0
1354,62.0,0.0,120.0,5.0,0.0
1355,62.0,0.0,120.0,4.0,0.0
1356,62.0,0.0,120.0,1.0,0.0
1357,66.0,601.0,120.0,3.0,0.0
1358,66.0,0.0,120.0,1.0,0.0
1359,74.0,0.0,120.0,0.0,0.0
